{
  "track_name": "09 - Overtime",
  "duration_sec": 26.46,
  "sample_rate": 44100,
  "note_count": 378,
  "unique_pitches": 29,
  "pitch_range": 48,
  "avg_note_duration": 0.2242,
  "reconstruction_stats": {
    "notes_reconstructed": 378,
    "keyon_events": 378,
    "keyoff_events": 376,
    "orphan_keyons": 2,
    "unique_pitches": 29,
    "pitch_range": 48,
    "avg_duration_sec": 0.2242
  },
  "metadata": {
    "source": "P\\Pro Striker Final Stage\\09 - Overtime.vgz"
  },
  "notes": [
    {
      "channel": 1,
      "note": 49,
      "start": 0.0,
      "duration": 0.1212,
      "velocity": 95,
      "chip": "ym2612"
    },
    {
      "channel": 2,
      "note": 61,
      "start": 0.0057,
      "duration": 0.2329,
      "velocity": 117,
      "chip": "ym2612"
    },
    {
      "channel": 3,
      "note": 61,
      "start": 0.0202,
      "duration": 0.2354,
      "velocity": 117,
      "chip": "ym2612"
    },
    {
      "channel": 2,
      "note": 64,
      "start": 0.2391,
      "duration": 0.1889,
      "velocity": 117,
      "chip": "ym2612"
    },
    {
      "channel": 3,
      "note": 64,
      "start": 0.2562,
      "duration": 0.1773,
      "velocity": 117,
      "chip": "ym2612"
    },
    {
      "channel": 1,
      "note": 49,
      "start": 0.3719,
      "duration": 0.0554,
      "velocity": 95,
      "chip": "ym2612"
    },
    {
      "channel": 2,
      "note": 66,
      "start": 0.4286,
      "duration": 0.2557,
      "velocity": 117,
      "chip": "ym2612"
    },
    {
      "channel": 3,
      "note": 66,
      "start": 0.434,
      "duration": 0.2667,
      "velocity": 117,
      "chip": "ym2612"
    },
    {
      "channel": 1,
      "note": 49,
      "start": 0.6029,
      "duration": 0.2143,
      "velocity": 95,
      "chip": "ym2612"
    },
    {
      "channel": 0,
      "note": 83,
      "start": 0.6839,
      "duration": 0.1329,
      "velocity": 105,
      "chip": "ym2612"
    },
    {
      "channel": 2,
      "note": 61,
      "start": 0.6849,
      "duration": 0.3858,
      "velocity": 117,
      "chip": "ym2612"
    },
    {
      "channel": 3,
      "note": 61,
      "start": 0.7013,
      "duration": 0.3754,
      "velocity": 117,
      "chip": "ym2612"
    },
    {
      "channel": 4,
      "note": 83,
      "start": 0.7516,
      "duration": 0.1157,
      "velocity": 105,
      "chip": "ym2612"
    },
    {
      "channel": 1,
      "note": 49,
      "start": 0.936,
      "duration": 0.1337,
      "velocity": 95,
      "chip": "ym2612"
    },
    {
      "channel": 0,
      "note": 83,
      "start": 1.0675,
      "duration": 0.0334,
      "velocity": 105,
      "chip": "ym2612"
    },
    {
      "channel": 1,
      "note": 56,
      "start": 1.0702,
      "duration": 0.0603,
      "velocity": 95,
      "chip": "ym2612"
    },
    {
      "channel": 2,
      "note": 64,
      "start": 1.0713,
      "duration": 0.0603,
      "velocity": 117,
      "chip": "ym2612"
    },
    {
      "channel": 3,
      "note": 64,
      "start": 1.0772,
      "duration": 0.06,
      "velocity": 117,
      "chip": "ym2612"
    },
    {
      "channel": 4,
      "note": 83,
      "start": 1.0857,
      "duration": 0.0312,
      "velocity": 105,
      "chip": "ym2612"
    },
    {
      "channel": 0,
      "note": 83,
      "start": 1.1303,
      "duration": 0.1676,
      "velocity": 105,
      "chip": "ym2612"
    },
    {
      "channel": 1,
      "note": 61,
      "start": 1.131,
      "duration": 0.1672,
      "velocity": 95,
      "chip": "ym2612"
    },
    {
      "channel": 2,
      "note": 66,
      "start": 1.1321,
      "duration": 0.1677,
      "velocity": 117,
      "chip": "ym2612"
    },
    {
      "channel": 3,
      "note": 66,
      "start": 1.1378,
      "duration": 0.1685,
      "velocity": 117,
      "chip": "ym2612"
    },
    {
      "channel": 4,
      "note": 83,
      "start": 1.1463,
      "duration": 0.1687,
      "velocity": 105,
      "chip": "ym2612"
    },
    {
      "channel": 1,
      "note": 49,
      "start": 1.2987,
      "duration": 0.1066,
      "velocity": 95,
      "chip": "ym2612"
    },
    {
      "channel": 2,
      "note": 61,
      "start": 1.3003,
      "duration": 0.222,
      "velocity": 117,
      "chip": "ym2612"
    },
    {
      "channel": 3,
      "note": 61,
      "start": 1.3069,
      "duration": 0.2324,
      "velocity": 117,
      "chip": "ym2612"
    },
    {
      "channel": 2,
      "note": 64,
      "start": 1.5228,
      "duration": 0.1892,
      "velocity": 117,
      "chip": "ym2612"
    },
    {
      "channel": 3,
      "note": 64,
      "start": 1.5398,
      "duration": 0.1771,
      "velocity": 117,
      "chip": "ym2612"
    },
    {
      "channel": 1,
      "note": 49,
      "start": 1.6559,
      "duration": 0.0556,
      "velocity": 95,
      "chip": "ym2612"
    },
    {
      "channel": 2,
      "note": 66,
      "start": 1.7125,
      "duration": 0.1393,
      "velocity": 117,
      "chip": "ym2612"
    },
    {
      "channel": 3,
      "note": 66,
      "start": 1.7175,
      "duration": 0.1504,
      "velocity": 117,
      "chip": "ym2612"
    },
    {
      "channel": 1,
      "note": 49,
      "start": 1.8516,
      "duration": 0.2518,
      "velocity": 99,
      "chip": "ym2612"
    },
    {
      "channel": 2,
      "note": 73,
      "start": 1.8524,
      "duration": 0.116,
      "velocity": 117,
      "chip": "ym2612"
    },
    {
      "channel": 3,
      "note": 73,
      "start": 1.8685,
      "duration": 0.1163,
      "velocity": 117,
      "chip": "ym2612"
    },
    {
      "channel": 0,
      "note": 83,
      "start": 1.968,
      "duration": 0.133,
      "velocity": 105,
      "chip": "ym2612"
    },
    {
      "channel": 2,
      "note": 66,
      "start": 1.969,
      "duration": 0.2162,
      "velocity": 117,
      "chip": "ym2612"
    },
    {
      "channel": 3,
      "note": 66,
      "start": 1.9854,
      "duration": 0.2143,
      "velocity": 117,
      "chip": "ym2612"
    },
    {
      "channel": 4,
      "note": 83,
      "start": 2.0357,
      "duration": 0.0809,
      "velocity": 105,
      "chip": "ym2612"
    },
    {
      "channel": 1,
      "note": 66,
      "start": 2.104,
      "duration": 0.0804,
      "velocity": 95,
      "chip": "ym2612"
    },
    {
      "channel": 1,
      "note": 49,
      "start": 2.185,
      "duration": 0.1632,
      "velocity": 99,
      "chip": "ym2612"
    },
    {
      "channel": 2,
      "note": 71,
      "start": 2.1857,
      "duration": 0.1632,
      "velocity": 117,
      "chip": "ym2612"
    },
    {
      "channel": 3,
      "note": 71,
      "start": 2.2002,
      "duration": 0.1533,
      "velocity": 117,
      "chip": "ym2612"
    },
    {
      "channel": 0,
      "note": 83,
      "start": 2.3165,
      "duration": 0.0292,
      "velocity": 105,
      "chip": "ym2612"
    },
    {
      "channel": 4,
      "note": 83,
      "start": 2.3305,
      "duration": 0.0344,
      "velocity": 105,
      "chip": "ym2612"
    },
    {
      "channel": 1,
      "note": 56,
      "start": 2.3487,
      "duration": 0.032,
      "velocity": 95,
      "chip": "ym2612"
    },
    {
      "channel": 2,
      "note": 66,
      "start": 2.3494,
      "duration": 0.0648,
      "velocity": 117,
      "chip": "ym2612"
    },
    {
      "channel": 3,
      "note": 66,
      "start": 2.3541,
      "duration": 0.0763,
      "velocity": 117,
      "chip": "ym2612"
    },
    {
      "channel": 0,
      "note": 83,
      "start": 2.3784,
      "duration": 0.1684,
      "velocity": 105,
      "chip": "ym2612"
    },
    {
      "channel": 1,
      "note": 59,
      "start": 2.3812,
      "duration": 0.166,
      "velocity": 95,
      "chip": "ym2612"
    },
    {
      "channel": 4,
      "note": 83,
      "start": 2.3956,
      "duration": 0.1684,
      "velocity": 105,
      "chip": "ym2612"
    },
    {
      "channel": 2,
      "note": 71,
      "start": 2.4148,
      "duration": 0.134,
      "velocity": 117,
      "chip": "ym2612"
    },
    {
      "channel": 3,
      "note": 71,
      "start": 2.431,
      "duration": 0.1244,
      "velocity": 117,
      "chip": "ym2612"
    },
    {
      "channel": 1,
      "note": 49,
      "start": 2.5477,
      "duration": 0.1067,
      "velocity": 95,
      "chip": "ym2612"
    },
    {
      "channel": 2,
      "note": 61,
      "start": 2.5493,
      "duration": 0.2225,
      "velocity": 117,
      "chip": "ym2612"
    },
    {
      "channel": 3,
      "note": 61,
      "start": 2.5559,
      "duration": 0.2329,
      "velocity": 117,
      "chip": "ym2612"
    },
    {
      "channel": 2,
      "note": 64,
      "start": 2.7723,
      "duration": 0.1717,
      "velocity": 117,
      "chip": "ym2612"
    },
    {
      "channel": 3,
      "note": 64,
      "start": 2.7894,
      "duration": 0.1637,
      "velocity": 117,
      "chip": "ym2612"
    },
    {
      "channel": 1,
      "note": 49,
      "start": 2.8884,
      "duration": 0.0548,
      "velocity": 95,
      "chip": "ym2612"
    },
    {
      "channel": 2,
      "note": 66,
      "start": 2.9445,
      "duration": 0.2728,
      "velocity": 117,
      "chip": "ym2612"
    },
    {
      "channel": 3,
      "note": 66,
      "start": 2.9536,
      "duration": 0.2802,
      "velocity": 117,
      "chip": "ym2612"
    },
    {
      "channel": 1,
      "note": 49,
      "start": 3.1193,
      "duration": 0.2163,
      "velocity": 99,
      "chip": "ym2612"
    },
    {
      "channel": 0,
      "note": 83,
      "start": 3.2169,
      "duration": 0.1161,
      "velocity": 105,
      "chip": "ym2612"
    },
    {
      "channel": 2,
      "note": 61,
      "start": 3.2179,
      "duration": 0.3691,
      "velocity": 117,
      "chip": "ym2612"
    },
    {
      "channel": 3,
      "note": 61,
      "start": 3.2343,
      "duration": 0.3627,
      "velocity": 117,
      "chip": "ym2612"
    },
    {
      "channel": 4,
      "note": 83,
      "start": 3.2846,
      "duration": 0.1157,
      "velocity": 105,
      "chip": "ym2612"
    },
    {
      "channel": 1,
      "note": 49,
      "start": 3.4669,
      "duration": 0.1191,
      "velocity": 95,
      "chip": "ym2612"
    },
    {
      "channel": 0,
      "note": 83,
      "start": 3.5838,
      "duration": 0.0374,
      "velocity": 105,
      "chip": "ym2612"
    },
    {
      "channel": 1,
      "note": 49,
      "start": 3.5866,
      "duration": 0.0371,
      "velocity": 99,
      "chip": "ym2612"
    },
    {
      "channel": 2,
      "note": 64,
      "start": 3.5876,
      "duration": 0.065,
      "velocity": 117,
      "chip": "ym2612"
    },
    {
      "channel": 3,
      "note": 64,
      "start": 3.5976,
      "duration": 0.0648,
      "velocity": 117,
      "chip": "ym2612"
    },
    {
      "channel": 4,
      "note": 83,
      "start": 3.606,
      "duration": 0.0334,
      "velocity": 105,
      "chip": "ym2612"
    },
    {
      "channel": 1,
      "note": 56,
      "start": 3.6242,
      "duration": 0.0274,
      "velocity": 95,
      "chip": "ym2612"
    },
    {
      "channel": 0,
      "note": 83,
      "start": 3.6494,
      "duration": 0.1656,
      "velocity": 105,
      "chip": "ym2612"
    },
    {
      "channel": 1,
      "note": 59,
      "start": 3.6522,
      "duration": 0.1635,
      "velocity": 95,
      "chip": "ym2612"
    },
    {
      "channel": 2,
      "note": 66,
      "start": 3.6533,
      "duration": 0.1656,
      "velocity": 126,
      "chip": "ym2612"
    },
    {
      "channel": 3,
      "note": 66,
      "start": 3.663,
      "duration": 0.1694,
      "velocity": 126,
      "chip": "ym2612"
    },
    {
      "channel": 4,
      "note": 83,
      "start": 3.6715,
      "duration": 0.1709,
      "velocity": 105,
      "chip": "ym2612"
    },
    {
      "channel": 0,
      "note": 90,
      "start": 3.8156,
      "duration": 0.0702,
      "velocity": 105,
      "chip": "ym2612"
    },
    {
      "channel": 1,
      "note": 56,
      "start": 3.8163,
      "duration": 0.0699,
      "velocity": 95,
      "chip": "ym2612"
    },
    {
      "channel": 2,
      "note": 87,
      "start": 3.8195,
      "duration": 0.1659,
      "velocity": 126,
      "chip": "ym2612"
    },
    {
      "channel": 3,
      "note": 87,
      "start": 3.8329,
      "duration": 0.1583,
      "velocity": 126,
      "chip": "ym2612"
    },
    {
      "channel": 4,
      "note": 90,
      "start": 3.8429,
      "duration": 0.0751,
      "velocity": 105,
      "chip": "ym2612"
    },
    {
      "channel": 0,
      "note": 87,
      "start": 3.9846,
      "duration": 0.0647,
      "velocity": 105,
      "chip": "ym2612"
    },
    {
      "channel": 1,
      "note": 51,
      "start": 3.9853,
      "duration": 0.0643,
      "velocity": 95,
      "chip": "ym2612"
    },
    {
      "channel": 2,
      "note": 83,
      "start": 3.986,
      "duration": 0.1467,
      "velocity": 126,
      "chip": "ym2612"
    },
    {
      "channel": 3,
      "note": 83,
      "start": 3.9919,
      "duration": 0.1509,
      "velocity": 126,
      "chip": "ym2612"
    },
    {
      "channel": 4,
      "note": 87,
      "start": 4.0051,
      "duration": 0.0764,
      "velocity": 105,
      "chip": "ym2612"
    },
    {
      "channel": 0,
      "note": 83,
      "start": 4.1318,
      "duration": 0.2779,
      "velocity": 105,
      "chip": "ym2612"
    },
    {
      "channel": 1,
      "note": 52,
      "start": 4.1325,
      "duration": 0.0627,
      "velocity": 95,
      "chip": "ym2612"
    },
    {
      "channel": 2,
      "note": 80,
      "start": 4.1332,
      "duration": 0.2801,
      "velocity": 126,
      "chip": "ym2612"
    },
    {
      "channel": 3,
      "note": 80,
      "start": 4.1433,
      "duration": 0.2793,
      "velocity": 126,
      "chip": "ym2612"
    },
    {
      "channel": 4,
      "note": 83,
      "start": 4.1524,
      "duration": 0.2896,
      "velocity": 105,
      "chip": "ym2612"
    },
    {
      "channel": 1,
      "note": 64,
      "start": 4.2959,
      "duration": 0.1163,
      "velocity": 95,
      "chip": "ym2612"
    },
    {
      "channel": 1,
      "note": 52,
      "start": 4.4128,
      "duration": 0.213,
      "velocity": 95,
      "chip": "ym2612"
    },
    {
      "channel": 2,
      "note": 90,
      "start": 4.4139,
      "duration": 0.2126,
      "velocity": 126,
      "chip": "ym2612"
    },
    {
      "channel": 3,
      "note": 90,
      "start": 4.4232,
      "duration": 0.2134,
      "velocity": 126,
      "chip": "ym2612"
    },
    {
      "channel": 0,
      "note": 90,
      "start": 4.6257,
      "duration": 0.0349,
      "velocity": 105,
      "chip": "ym2612"
    },
    {
      "channel": 1,
      "note": 64,
      "start": 4.6264,
      "duration": 0.0633,
      "velocity": 95,
      "chip": "ym2612"
    },
    {
      "channel": 2,
      "note": 95,
      "start": 4.6271,
      "duration": 0.2589,
      "velocity": 126,
      "chip": "ym2612"
    },
    {
      "channel": 3,
      "note": 95,
      "start": 4.6371,
      "duration": 0.2598,
      "velocity": 126,
      "chip": "ym2612"
    },
    {
      "channel": 4,
      "note": 90,
      "start": 4.646,
      "duration": 0.0311,
      "velocity": 105,
      "chip": "ym2612"
    },
    {
      "channel": 0,
      "note": 83,
      "start": 4.6896,
      "duration": 0.195,
      "velocity": 105,
      "chip": "ym2612"
    },
    {
      "channel": 1,
      "note": 52,
      "start": 4.6903,
      "duration": 0.1265,
      "velocity": 95,
      "chip": "ym2612"
    },
    {
      "channel": 4,
      "note": 83,
      "start": 4.7223,
      "duration": 0.1949,
      "velocity": 105,
      "chip": "ym2612"
    },
    {
      "channel": 0,
      "note": 85,
      "start": 4.8852,
      "duration": 0.0971,
      "velocity": 105,
      "chip": "ym2612"
    },
    {
      "channel": 1,
      "note": 54,
      "start": 4.8859,
      "duration": 0.214,
      "velocity": 95,
      "chip": "ym2612"
    },
    {
      "channel": 2,
      "note": 94,
      "start": 4.8866,
      "duration": 0.214,
      "velocity": 126,
      "chip": "ym2612"
    },
    {
      "channel": 3,
      "note": 94,
      "start": 4.8974,
      "duration": 0.2132,
      "velocity": 126,
      "chip": "ym2612"
    },
    {
      "channel": 4,
      "note": 85,
      "start": 4.9177,
      "duration": 0.1321,
      "velocity": 105,
      "chip": "ym2612"
    },
    {
      "channel": 0,
      "note": 85,
      "start": 5.0997,
      "duration": 0.6957,
      "velocity": 105,
      "chip": "ym2612"
    },
    {
      "channel": 1,
      "note": 54,
      "start": 5.1004,
      "duration": 0.3805,
      "velocity": 99,
      "chip": "ym2612"
    },
    {
      "channel": 2,
      "note": 94,
      "start": 5.1012,
      "duration": 0.3804,
      "velocity": 126,
      "chip": "ym2612"
    },
    {
      "channel": 3,
      "note": 94,
      "start": 5.1112,
      "duration": 0.3759,
      "velocity": 126,
      "chip": "ym2612"
    },
    {
      "channel": 4,
      "note": 85,
      "start": 5.1322,
      "duration": 0.6956,
      "velocity": 105,
      "chip": "ym2612"
    },
    {
      "channel": 1,
      "note": 66,
      "start": 5.4815,
      "duration": 0.0977,
      "velocity": 95,
      "chip": "ym2612"
    },
    {
      "channel": 2,
      "note": 94,
      "start": 5.4822,
      "duration": 0.0981,
      "velocity": 126,
      "chip": "ym2612"
    },
    {
      "channel": 3,
      "note": 94,
      "start": 5.4876,
      "duration": 0.0983,
      "velocity": 126,
      "chip": "ym2612"
    },
    {
      "channel": 1,
      "note": 54,
      "start": 5.5797,
      "duration": 0.0313,
      "velocity": 95,
      "chip": "ym2612"
    },
    {
      "channel": 2,
      "note": 90,
      "start": 5.5809,
      "duration": 0.0308,
      "velocity": 126,
      "chip": "ym2612"
    },
    {
      "channel": 3,
      "note": 90,
      "start": 5.5865,
      "duration": 0.0305,
      "velocity": 126,
      "chip": "ym2612"
    },
    {
      "channel": 1,
      "note": 59,
      "start": 5.6116,
      "duration": 0.1171,
      "velocity": 95,
      "chip": "ym2612"
    },
    {
      "channel": 2,
      "note": 90,
      "start": 5.6123,
      "duration": 0.1532,
      "velocity": 126,
      "chip": "ym2612"
    },
    {
      "channel": 3,
      "note": 90,
      "start": 5.6176,
      "duration": 0.1533,
      "velocity": 126,
      "chip": "ym2612"
    },
    {
      "channel": 1,
      "note": 66,
      "start": 5.7653,
      "duration": 0.0308,
      "velocity": 95,
      "chip": "ym2612"
    },
    {
      "channel": 2,
      "note": 90,
      "start": 5.7661,
      "duration": 0.0308,
      "velocity": 126,
      "chip": "ym2612"
    },
    {
      "channel": 3,
      "note": 90,
      "start": 5.7715,
      "duration": 0.0305,
      "velocity": 126,
      "chip": "ym2612"
    },
    {
      "channel": 0,
      "note": 87,
      "start": 5.796,
      "duration": 0.2154,
      "velocity": 105,
      "chip": "ym2612"
    },
    {
      "channel": 1,
      "note": 61,
      "start": 5.7967,
      "duration": 0.2156,
      "velocity": 95,
      "chip": "ym2612"
    },
    {
      "channel": 2,
      "note": 85,
      "start": 5.7975,
      "duration": 0.2186,
      "velocity": 117,
      "chip": "ym2612"
    },
    {
      "channel": 3,
      "note": 85,
      "start": 5.8026,
      "duration": 0.2232,
      "velocity": 117,
      "chip": "ym2612"
    },
    {
      "channel": 4,
      "note": 87,
      "start": 5.8285,
      "duration": 0.2112,
      "velocity": 105,
      "chip": "ym2612"
    },
    {
      "channel": 0,
      "note": 76,
      "start": 6.0119,
      "duration": 0.0435,
      "velocity": 105,
      "chip": "ym2612"
    },
    {
      "channel": 1,
      "note": 49,
      "start": 6.0127,
      "duration": 0.1063,
      "velocity": 95,
      "chip": "ym2612"
    },
    {
      "channel": 2,
      "note": 61,
      "start": 6.0166,
      "duration": 0.2363,
      "velocity": 117,
      "chip": "ym2612"
    },
    {
      "channel": 3,
      "note": 61,
      "start": 6.0263,
      "duration": 0.2432,
      "velocity": 117,
      "chip": "ym2612"
    },
    {
      "channel": 4,
      "note": 76,
      "start": 6.0403,
      "duration": 0.0285,
      "velocity": 105,
      "chip": "ym2612"
    },
    {
      "channel": 0,
      "note": 80,
      "start": 6.056,
      "duration": 0.0622,
      "velocity": 105,
      "chip": "ym2612"
    },
    {
      "channel": 4,
      "note": 80,
      "start": 6.0693,
      "duration": 0.1166,
      "velocity": 105,
      "chip": "ym2612"
    },
    {
      "channel": 0,
      "note": 83,
      "start": 6.1188,
      "duration": 0.2496,
      "velocity": 105,
      "chip": "ym2612"
    },
    {
      "channel": 4,
      "note": 83,
      "start": 6.1865,
      "duration": 0.1992,
      "velocity": 105,
      "chip": "ym2612"
    },
    {
      "channel": 2,
      "note": 64,
      "start": 6.2535,
      "duration": 0.1794,
      "velocity": 117,
      "chip": "ym2612"
    },
    {
      "channel": 3,
      "note": 64,
      "start": 6.2701,
      "duration": 0.168,
      "velocity": 117,
      "chip": "ym2612"
    },
    {
      "channel": 0,
      "note": 88,
      "start": 6.369,
      "duration": 0.031,
      "velocity": 105,
      "chip": "ym2612"
    },
    {
      "channel": 1,
      "note": 49,
      "start": 6.3697,
      "duration": 0.0624,
      "velocity": 95,
      "chip": "ym2612"
    },
    {
      "channel": 4,
      "note": 88,
      "start": 6.3863,
      "duration": 0.029,
      "velocity": 105,
      "chip": "ym2612"
    },
    {
      "channel": 0,
      "note": 85,
      "start": 6.4006,
      "duration": 0.0312,
      "velocity": 105,
      "chip": "ym2612"
    },
    {
      "channel": 4,
      "note": 85,
      "start": 6.4159,
      "duration": 0.0343,
      "velocity": 105,
      "chip": "ym2612"
    },
    {
      "channel": 2,
      "note": 66,
      "start": 6.4335,
      "duration": 0.2646,
      "velocity": 117,
      "chip": "ym2612"
    },
    {
      "channel": 3,
      "note": 66,
      "start": 6.4388,
      "duration": 0.2758,
      "velocity": 117,
      "chip": "ym2612"
    },
    {
      "channel": 0,
      "note": 82,
      "start": 6.4827,
      "duration": 0.1163,
      "velocity": 105,
      "chip": "ym2612"
    },
    {
      "channel": 4,
      "note": 82,
      "start": 6.5336,
      "duration": 0.0979,
      "velocity": 105,
      "chip": "ym2612"
    },
    {
      "channel": 1,
      "note": 49,
      "start": 6.6,
      "duration": 0.2145,
      "velocity": 95,
      "chip": "ym2612"
    },
    {
      "channel": 0,
      "note": 78,
      "start": 6.6977,
      "duration": 0.1161,
      "velocity": 105,
      "chip": "ym2612"
    },
    {
      "channel": 2,
      "note": 61,
      "start": 6.6987,
      "duration": 0.3687,
      "velocity": 117,
      "chip": "ym2612"
    },
    {
      "channel": 3,
      "note": 61,
      "start": 6.7151,
      "duration": 0.3584,
      "velocity": 117,
      "chip": "ym2612"
    },
    {
      "channel": 4,
      "note": 78,
      "start": 6.7487,
      "duration": 0.1326,
      "velocity": 105,
      "chip": "ym2612"
    },
    {
      "channel": 0,
      "note": 80,
      "start": 6.8144,
      "duration": 0.4805,
      "velocity": 105,
      "chip": "ym2612"
    },
    {
      "channel": 4,
      "note": 80,
      "start": 6.8819,
      "duration": 0.4357,
      "velocity": 105,
      "chip": "ym2612"
    },
    {
      "channel": 1,
      "note": 49,
      "start": 6.95,
      "duration": 0.1163,
      "velocity": 95,
      "chip": "ym2612"
    },
    {
      "channel": 1,
      "note": 56,
      "start": 7.0669,
      "duration": 0.0645,
      "velocity": 95,
      "chip": "ym2612"
    },
    {
      "channel": 2,
      "note": 64,
      "start": 7.068,
      "duration": 0.0645,
      "velocity": 117,
      "chip": "ym2612"
    },
    {
      "channel": 3,
      "note": 64,
      "start": 7.0741,
      "duration": 0.0646,
      "velocity": 117,
      "chip": "ym2612"
    },
    {
      "channel": 1,
      "note": 61,
      "start": 7.132,
      "duration": 0.1637,
      "velocity": 95,
      "chip": "ym2612"
    },
    {
      "channel": 2,
      "note": 66,
      "start": 7.133,
      "duration": 0.1642,
      "velocity": 117,
      "chip": "ym2612"
    },
    {
      "channel": 3,
      "note": 66,
      "start": 7.1392,
      "duration": 0.165,
      "velocity": 117,
      "chip": "ym2612"
    },
    {
      "channel": 0,
      "note": 76,
      "start": 7.2955,
      "duration": 0.0378,
      "velocity": 105,
      "chip": "ym2612"
    },
    {
      "channel": 1,
      "note": 49,
      "start": 7.2962,
      "duration": 0.1071,
      "velocity": 95,
      "chip": "ym2612"
    },
    {
      "channel": 2,
      "note": 61,
      "start": 7.2977,
      "duration": 0.2391,
      "velocity": 117,
      "chip": "ym2612"
    },
    {
      "channel": 3,
      "note": 61,
      "start": 7.3048,
      "duration": 0.2488,
      "velocity": 117,
      "chip": "ym2612"
    },
    {
      "channel": 4,
      "note": 76,
      "start": 7.3181,
      "duration": 0.0281,
      "velocity": 105,
      "chip": "ym2612"
    },
    {
      "channel": 0,
      "note": 80,
      "start": 7.3339,
      "duration": 0.0687,
      "velocity": 105,
      "chip": "ym2612"
    },
    {
      "channel": 4,
      "note": 80,
      "start": 7.3468,
      "duration": 0.1235,
      "velocity": 105,
      "chip": "ym2612"
    },
    {
      "channel": 0,
      "note": 83,
      "start": 7.4032,
      "duration": 0.2496,
      "velocity": 105,
      "chip": "ym2612"
    },
    {
      "channel": 4,
      "note": 83,
      "start": 7.4708,
      "duration": 0.1992,
      "velocity": 105,
      "chip": "ym2612"
    },
    {
      "channel": 2,
      "note": 64,
      "start": 7.5375,
      "duration": 0.1793,
      "velocity": 117,
      "chip": "ym2612"
    },
    {
      "channel": 3,
      "note": 64,
      "start": 7.5541,
      "duration": 0.1679,
      "velocity": 117,
      "chip": "ym2612"
    },
    {
      "channel": 0,
      "note": 88,
      "start": 7.6533,
      "duration": 0.0311,
      "velocity": 105,
      "chip": "ym2612"
    },
    {
      "channel": 1,
      "note": 49,
      "start": 7.654,
      "duration": 0.0624,
      "velocity": 95,
      "chip": "ym2612"
    },
    {
      "channel": 4,
      "note": 88,
      "start": 7.6706,
      "duration": 0.029,
      "velocity": 105,
      "chip": "ym2612"
    },
    {
      "channel": 0,
      "note": 85,
      "start": 7.6849,
      "duration": 0.031,
      "velocity": 105,
      "chip": "ym2612"
    },
    {
      "channel": 4,
      "note": 85,
      "start": 7.7003,
      "duration": 0.0337,
      "velocity": 105,
      "chip": "ym2612"
    },
    {
      "channel": 2,
      "note": 66,
      "start": 7.7173,
      "duration": 0.1318,
      "velocity": 117,
      "chip": "ym2612"
    },
    {
      "channel": 3,
      "note": 66,
      "start": 7.7226,
      "duration": 0.1428,
      "velocity": 117,
      "chip": "ym2612"
    },
    {
      "channel": 0,
      "note": 83,
      "start": 7.7507,
      "duration": 0.0974,
      "velocity": 105,
      "chip": "ym2612"
    },
    {
      "channel": 4,
      "note": 83,
      "start": 7.7829,
      "duration": 0.1328,
      "velocity": 105,
      "chip": "ym2612"
    },
    {
      "channel": 1,
      "note": 49,
      "start": 7.849,
      "duration": 0.252,
      "velocity": 99,
      "chip": "ym2612"
    },
    {
      "channel": 2,
      "note": 73,
      "start": 7.8497,
      "duration": 0.1164,
      "velocity": 117,
      "chip": "ym2612"
    },
    {
      "channel": 3,
      "note": 73,
      "start": 7.8659,
      "duration": 0.1329,
      "velocity": 117,
      "chip": "ym2612"
    },
    {
      "channel": 0,
      "note": 90,
      "start": 7.9657,
      "duration": 0.1326,
      "velocity": 105,
      "chip": "ym2612"
    },
    {
      "channel": 2,
      "note": 66,
      "start": 7.9667,
      "duration": 0.216,
      "velocity": 117,
      "chip": "ym2612"
    },
    {
      "channel": 3,
      "note": 66,
      "start": 7.9994,
      "duration": 0.2145,
      "velocity": 117,
      "chip": "ym2612"
    },
    {
      "channel": 4,
      "note": 90,
      "start": 8.0335,
      "duration": 0.0973,
      "velocity": 105,
      "chip": "ym2612"
    },
    {
      "channel": 0,
      "note": 88,
      "start": 8.0988,
      "duration": 0.4458,
      "velocity": 105,
      "chip": "ym2612"
    },
    {
      "channel": 1,
      "note": 66,
      "start": 8.1016,
      "duration": 0.0804,
      "velocity": 95,
      "chip": "ym2612"
    },
    {
      "channel": 4,
      "note": 88,
      "start": 8.1314,
      "duration": 0.4362,
      "velocity": 105,
      "chip": "ym2612"
    },
    {
      "channel": 1,
      "note": 49,
      "start": 8.1826,
      "duration": 0.1633,
      "velocity": 99,
      "chip": "ym2612"
    },
    {
      "channel": 2,
      "note": 71,
      "start": 8.1833,
      "duration": 0.1634,
      "velocity": 117,
      "chip": "ym2612"
    },
    {
      "channel": 3,
      "note": 71,
      "start": 8.2144,
      "duration": 0.1411,
      "velocity": 117,
      "chip": "ym2612"
    },
    {
      "channel": 1,
      "note": 56,
      "start": 8.3465,
      "duration": 0.0347,
      "velocity": 95,
      "chip": "ym2612"
    },
    {
      "channel": 2,
      "note": 66,
      "start": 8.3472,
      "duration": 0.0669,
      "velocity": 117,
      "chip": "ym2612"
    },
    {
      "channel": 3,
      "note": 66,
      "start": 8.3561,
      "duration": 0.0886,
      "velocity": 117,
      "chip": "ym2612"
    },
    {
      "channel": 1,
      "note": 59,
      "start": 8.3817,
      "duration": 0.1637,
      "velocity": 95,
      "chip": "ym2612"
    },
    {
      "channel": 2,
      "note": 71,
      "start": 8.4147,
      "duration": 0.1322,
      "velocity": 117,
      "chip": "ym2612"
    },
    {
      "channel": 3,
      "note": 71,
      "start": 8.4453,
      "duration": 0.1085,
      "velocity": 117,
      "chip": "ym2612"
    },
    {
      "channel": 0,
      "note": 76,
      "start": 8.5452,
      "duration": 0.0339,
      "velocity": 105,
      "chip": "ym2612"
    },
    {
      "channel": 1,
      "note": 49,
      "start": 8.5459,
      "duration": 0.1067,
      "velocity": 95,
      "chip": "ym2612"
    },
    {
      "channel": 2,
      "note": 61,
      "start": 8.5475,
      "duration": 0.2223,
      "velocity": 117,
      "chip": "ym2612"
    },
    {
      "channel": 3,
      "note": 61,
      "start": 8.5544,
      "duration": 0.2487,
      "velocity": 117,
      "chip": "ym2612"
    },
    {
      "channel": 4,
      "note": 76,
      "start": 8.5681,
      "duration": 0.0276,
      "velocity": 105,
      "chip": "ym2612"
    },
    {
      "channel": 0,
      "note": 80,
      "start": 8.5797,
      "duration": 0.0721,
      "velocity": 105,
      "chip": "ym2612"
    },
    {
      "channel": 4,
      "note": 80,
      "start": 8.5963,
      "duration": 0.1231,
      "velocity": 105,
      "chip": "ym2612"
    },
    {
      "channel": 0,
      "note": 83,
      "start": 8.6523,
      "duration": 0.2496,
      "velocity": 105,
      "chip": "ym2612"
    },
    {
      "channel": 4,
      "note": 83,
      "start": 8.72,
      "duration": 0.1992,
      "velocity": 105,
      "chip": "ym2612"
    },
    {
      "channel": 2,
      "note": 64,
      "start": 8.7703,
      "duration": 0.1966,
      "velocity": 117,
      "chip": "ym2612"
    },
    {
      "channel": 3,
      "note": 64,
      "start": 8.8037,
      "duration": 0.1689,
      "velocity": 117,
      "chip": "ym2612"
    },
    {
      "channel": 0,
      "note": 88,
      "start": 8.9025,
      "duration": 0.0272,
      "velocity": 105,
      "chip": "ym2612"
    },
    {
      "channel": 1,
      "note": 49,
      "start": 8.9032,
      "duration": 0.0629,
      "velocity": 95,
      "chip": "ym2612"
    },
    {
      "channel": 4,
      "note": 88,
      "start": 8.9198,
      "duration": 0.0295,
      "velocity": 105,
      "chip": "ym2612"
    },
    {
      "channel": 0,
      "note": 85,
      "start": 8.9304,
      "duration": 0.0354,
      "velocity": 105,
      "chip": "ym2612"
    },
    {
      "channel": 4,
      "note": 85,
      "start": 8.9499,
      "duration": 0.0345,
      "velocity": 105,
      "chip": "ym2612"
    },
    {
      "channel": 2,
      "note": 66,
      "start": 8.9675,
      "duration": 0.2474,
      "velocity": 117,
      "chip": "ym2612"
    },
    {
      "channel": 3,
      "note": 66,
      "start": 8.9731,
      "duration": 0.275,
      "velocity": 117,
      "chip": "ym2612"
    },
    {
      "channel": 0,
      "note": 82,
      "start": 8.9996,
      "duration": 0.133,
      "velocity": 105,
      "chip": "ym2612"
    },
    {
      "channel": 4,
      "note": 82,
      "start": 9.0672,
      "duration": 0.0979,
      "velocity": 105,
      "chip": "ym2612"
    },
    {
      "channel": 1,
      "note": 49,
      "start": 9.1336,
      "duration": 0.2166,
      "velocity": 99,
      "chip": "ym2612"
    },
    {
      "channel": 0,
      "note": 78,
      "start": 9.2145,
      "duration": 0.1329,
      "velocity": 105,
      "chip": "ym2612"
    },
    {
      "channel": 2,
      "note": 61,
      "start": 9.2155,
      "duration": 0.3854,
      "velocity": 117,
      "chip": "ym2612"
    },
    {
      "channel": 3,
      "note": 61,
      "start": 9.2486,
      "duration": 0.3584,
      "velocity": 117,
      "chip": "ym2612"
    },
    {
      "channel": 4,
      "note": 78,
      "start": 9.2823,
      "duration": 0.1326,
      "velocity": 105,
      "chip": "ym2612"
    },
    {
      "channel": 0,
      "note": 80,
      "start": 9.3479,
      "duration": 0.4805,
      "velocity": 105,
      "chip": "ym2612"
    },
    {
      "channel": 4,
      "note": 80,
      "start": 9.4154,
      "duration": 0.4396,
      "velocity": 105,
      "chip": "ym2612"
    },
    {
      "channel": 1,
      "note": 49,
      "start": 9.4647,
      "duration": 0.1351,
      "velocity": 95,
      "chip": "ym2612"
    },
    {
      "channel": 1,
      "note": 49,
      "start": 9.6004,
      "duration": 0.034,
      "velocity": 99,
      "chip": "ym2612"
    },
    {
      "channel": 2,
      "note": 64,
      "start": 9.6015,
      "duration": 0.0684,
      "velocity": 117,
      "chip": "ym2612"
    },
    {
      "channel": 3,
      "note": 64,
      "start": 9.6076,
      "duration": 0.0684,
      "velocity": 117,
      "chip": "ym2612"
    },
    {
      "channel": 1,
      "note": 56,
      "start": 9.635,
      "duration": 0.0339,
      "velocity": 95,
      "chip": "ym2612"
    },
    {
      "channel": 1,
      "note": 59,
      "start": 9.6694,
      "duration": 0.1598,
      "velocity": 95,
      "chip": "ym2612"
    },
    {
      "channel": 2,
      "note": 66,
      "start": 9.6705,
      "duration": 0.162,
      "velocity": 126,
      "chip": "ym2612"
    },
    {
      "channel": 3,
      "note": 66,
      "start": 9.6766,
      "duration": 0.1648,
      "velocity": 126,
      "chip": "ym2612"
    },
    {
      "channel": 0,
      "note": 87,
      "start": 9.829,
      "duration": 0.037,
      "velocity": 105,
      "chip": "ym2612"
    },
    {
      "channel": 1,
      "note": 56,
      "start": 9.8297,
      "duration": 0.0706,
      "velocity": 95,
      "chip": "ym2612"
    },
    {
      "channel": 2,
      "note": 87,
      "start": 9.833,
      "duration": 0.1496,
      "velocity": 126,
      "chip": "ym2612"
    },
    {
      "channel": 3,
      "note": 87,
      "start": 9.842,
      "duration": 0.1512,
      "velocity": 126,
      "chip": "ym2612"
    },
    {
      "channel": 4,
      "note": 87,
      "start": 9.8556,
      "duration": 0.0281,
      "velocity": 105,
      "chip": "ym2612"
    },
    {
      "channel": 0,
      "note": 88,
      "start": 9.8666,
      "duration": 0.033,
      "velocity": 105,
      "chip": "ym2612"
    },
    {
      "channel": 4,
      "note": 88,
      "start": 9.8843,
      "duration": 0.0478,
      "velocity": 105,
      "chip": "ym2612"
    },
    {
      "channel": 0,
      "note": 90,
      "start": 9.9001,
      "duration": 0.081,
      "velocity": 105,
      "chip": "ym2612"
    },
    {
      "channel": 4,
      "note": 90,
      "start": 9.9326,
      "duration": 0.0695,
      "velocity": 105,
      "chip": "ym2612"
    },
    {
      "channel": 0,
      "note": 87,
      "start": 9.9818,
      "duration": 0.0357,
      "velocity": 105,
      "chip": "ym2612"
    },
    {
      "channel": 1,
      "note": 51,
      "start": 9.9824,
      "duration": 0.0627,
      "velocity": 95,
      "chip": "ym2612"
    },
    {
      "channel": 2,
      "note": 83,
      "start": 9.9832,
      "duration": 0.1608,
      "velocity": 126,
      "chip": "ym2612"
    },
    {
      "channel": 3,
      "note": 83,
      "start": 9.9938,
      "duration": 0.1563,
      "velocity": 126,
      "chip": "ym2612"
    },
    {
      "channel": 4,
      "note": 87,
      "start": 10.0027,
      "duration": 0.0314,
      "velocity": 105,
      "chip": "ym2612"
    },
    {
      "channel": 0,
      "note": 83,
      "start": 10.0451,
      "duration": 0.0976,
      "velocity": 105,
      "chip": "ym2612"
    },
    {
      "channel": 4,
      "note": 83,
      "start": 10.0774,
      "duration": 0.086,
      "velocity": 105,
      "chip": "ym2612"
    },
    {
      "channel": 0,
      "note": 80,
      "start": 10.1432,
      "duration": 0.2783,
      "velocity": 105,
      "chip": "ym2612"
    },
    {
      "channel": 1,
      "note": 52,
      "start": 10.1439,
      "duration": 0.0632,
      "velocity": 95,
      "chip": "ym2612"
    },
    {
      "channel": 2,
      "note": 80,
      "start": 10.1446,
      "duration": 0.2805,
      "velocity": 126,
      "chip": "ym2612"
    },
    {
      "channel": 3,
      "note": 80,
      "start": 10.1506,
      "duration": 0.2797,
      "velocity": 126,
      "chip": "ym2612"
    },
    {
      "channel": 4,
      "note": 80,
      "start": 10.1639,
      "duration": 0.2748,
      "velocity": 105,
      "chip": "ym2612"
    },
    {
      "channel": 1,
      "note": 64,
      "start": 10.291,
      "duration": 0.133,
      "velocity": 95,
      "chip": "ym2612"
    },
    {
      "channel": 1,
      "note": 52,
      "start": 10.4245,
      "duration": 0.2131,
      "velocity": 95,
      "chip": "ym2612"
    },
    {
      "channel": 2,
      "note": 90,
      "start": 10.4256,
      "duration": 0.2127,
      "velocity": 126,
      "chip": "ym2612"
    },
    {
      "channel": 3,
      "note": 90,
      "start": 10.4309,
      "duration": 0.2132,
      "velocity": 126,
      "chip": "ym2612"
    },
    {
      "channel": 0,
      "note": 83,
      "start": 10.6375,
      "duration": 0.0311,
      "velocity": 105,
      "chip": "ym2612"
    },
    {
      "channel": 1,
      "note": 64,
      "start": 10.6382,
      "duration": 0.063,
      "velocity": 95,
      "chip": "ym2612"
    },
    {
      "channel": 2,
      "note": 95,
      "start": 10.639,
      "duration": 0.2586,
      "velocity": 126,
      "chip": "ym2612"
    },
    {
      "channel": 3,
      "note": 95,
      "start": 10.6447,
      "duration": 0.259,
      "velocity": 126,
      "chip": "ym2612"
    },
    {
      "channel": 4,
      "note": 83,
      "start": 10.6541,
      "duration": 0.031,
      "velocity": 105,
      "chip": "ym2612"
    },
    {
      "channel": 0,
      "note": 87,
      "start": 10.7011,
      "duration": 0.195,
      "velocity": 105,
      "chip": "ym2612"
    },
    {
      "channel": 1,
      "note": 52,
      "start": 10.7017,
      "duration": 0.1143,
      "velocity": 95,
      "chip": "ym2612"
    },
    {
      "channel": 4,
      "note": 87,
      "start": 10.717,
      "duration": 0.1962,
      "velocity": 105,
      "chip": "ym2612"
    },
    {
      "channel": 0,
      "note": 85,
      "start": 10.8968,
      "duration": 0.0808,
      "velocity": 105,
      "chip": "ym2612"
    },
    {
      "channel": 1,
      "note": 54,
      "start": 10.8975,
      "duration": 0.2144,
      "velocity": 95,
      "chip": "ym2612"
    },
    {
      "channel": 2,
      "note": 94,
      "start": 10.8982,
      "duration": 0.2144,
      "velocity": 126,
      "chip": "ym2612"
    },
    {
      "channel": 3,
      "note": 94,
      "start": 10.9043,
      "duration": 0.2136,
      "velocity": 126,
      "chip": "ym2612"
    },
    {
      "channel": 4,
      "note": 85,
      "start": 10.9138,
      "duration": 0.1313,
      "velocity": 105,
      "chip": "ym2612"
    },
    {
      "channel": 0,
      "note": 85,
      "start": 11.1117,
      "duration": 0.8994,
      "velocity": 105,
      "chip": "ym2612"
    },
    {
      "channel": 1,
      "note": 54,
      "start": 11.1124,
      "duration": 0.369,
      "velocity": 99,
      "chip": "ym2612"
    },
    {
      "channel": 2,
      "note": 94,
      "start": 11.1132,
      "duration": 0.3689,
      "velocity": 126,
      "chip": "ym2612"
    },
    {
      "channel": 3,
      "note": 94,
      "start": 11.1185,
      "duration": 0.3689,
      "velocity": 126,
      "chip": "ym2612"
    },
    {
      "channel": 4,
      "note": 85,
      "start": 11.1275,
      "duration": 0.9073,
      "velocity": 105,
      "chip": "ym2612"
    },
    {
      "channel": 1,
      "note": 66,
      "start": 11.4819,
      "duration": 0.081,
      "velocity": 95,
      "chip": "ym2612"
    },
    {
      "channel": 2,
      "note": 94,
      "start": 11.4826,
      "duration": 0.0814,
      "velocity": 126,
      "chip": "ym2612"
    },
    {
      "channel": 3,
      "note": 94,
      "start": 11.488,
      "duration": 0.0817,
      "velocity": 126,
      "chip": "ym2612"
    },
    {
      "channel": 1,
      "note": 54,
      "start": 11.5634,
      "duration": 0.0356,
      "velocity": 95,
      "chip": "ym2612"
    },
    {
      "channel": 2,
      "note": 90,
      "start": 11.5646,
      "duration": 0.0351,
      "velocity": 126,
      "chip": "ym2612"
    },
    {
      "channel": 3,
      "note": 90,
      "start": 11.5703,
      "duration": 0.0348,
      "velocity": 126,
      "chip": "ym2612"
    },
    {
      "channel": 1,
      "note": 59,
      "start": 11.5996,
      "duration": 0.1286,
      "velocity": 95,
      "chip": "ym2612"
    },
    {
      "channel": 2,
      "note": 90,
      "start": 11.6003,
      "duration": 0.1604,
      "velocity": 126,
      "chip": "ym2612"
    },
    {
      "channel": 3,
      "note": 90,
      "start": 11.6058,
      "duration": 0.1602,
      "velocity": 126,
      "chip": "ym2612"
    },
    {
      "channel": 1,
      "note": 66,
      "start": 11.7606,
      "duration": 0.0355,
      "velocity": 95,
      "chip": "ym2612"
    },
    {
      "channel": 2,
      "note": 90,
      "start": 11.7613,
      "duration": 0.0354,
      "velocity": 126,
      "chip": "ym2612"
    },
    {
      "channel": 3,
      "note": 90,
      "start": 11.7665,
      "duration": 0.0356,
      "velocity": 126,
      "chip": "ym2612"
    },
    {
      "channel": 1,
      "note": 61,
      "start": 11.7966,
      "duration": 0.2156,
      "velocity": 95,
      "chip": "ym2612"
    },
    {
      "channel": 2,
      "note": 85,
      "start": 11.7973,
      "duration": 0.2182,
      "velocity": 126,
      "chip": "ym2612"
    },
    {
      "channel": 3,
      "note": 85,
      "start": 11.8027,
      "duration": 0.2221,
      "velocity": 126,
      "chip": "ym2612"
    },
    {
      "channel": 0,
      "note": 88,
      "start": 12.0117,
      "duration": 0.0803,
      "velocity": 105,
      "chip": "ym2612"
    },
    {
      "channel": 1,
      "note": 57,
      "start": 12.0128,
      "duration": 0.2136,
      "velocity": 95,
      "chip": "ym2612"
    },
    {
      "channel": 2,
      "note": 85,
      "start": 12.0161,
      "duration": 0.2111,
      "velocity": 126,
      "chip": "ym2612"
    },
    {
      "channel": 3,
      "note": 85,
      "start": 12.0254,
      "duration": 0.2176,
      "velocity": 126,
      "chip": "ym2612"
    },
    {
      "channel": 4,
      "note": 88,
      "start": 12.0353,
      "duration": 0.1244,
      "velocity": 105,
      "chip": "ym2612"
    },
    {
      "channel": 0,
      "note": 76,
      "start": 12.0925,
      "duration": 0.1328,
      "velocity": 105,
      "chip": "ym2612"
    },
    {
      "channel": 4,
      "note": 76,
      "start": 12.1603,
      "duration": 0.1159,
      "velocity": 105,
      "chip": "ym2612"
    },
    {
      "channel": 0,
      "note": 83,
      "start": 12.2259,
      "duration": 0.1529,
      "velocity": 105,
      "chip": "ym2612"
    },
    {
      "channel": 2,
      "note": 93,
      "start": 12.2278,
      "duration": 0.1162,
      "velocity": 126,
      "chip": "ym2612"
    },
    {
      "channel": 3,
      "note": 93,
      "start": 12.2436,
      "duration": 0.1067,
      "velocity": 126,
      "chip": "ym2612"
    },
    {
      "channel": 4,
      "note": 83,
      "start": 12.2768,
      "duration": 0.1155,
      "velocity": 105,
      "chip": "ym2612"
    },
    {
      "channel": 1,
      "note": 57,
      "start": 12.3434,
      "duration": 0.0647,
      "velocity": 95,
      "chip": "ym2612"
    },
    {
      "channel": 2,
      "note": 97,
      "start": 12.3445,
      "duration": 0.896,
      "velocity": 126,
      "chip": "ym2612"
    },
    {
      "channel": 3,
      "note": 97,
      "start": 12.351,
      "duration": 0.8993,
      "velocity": 126,
      "chip": "ym2612"
    },
    {
      "channel": 0,
      "note": 88,
      "start": 12.3795,
      "duration": 0.028,
      "velocity": 105,
      "chip": "ym2612"
    },
    {
      "channel": 4,
      "note": 88,
      "start": 12.3929,
      "duration": 0.0324,
      "velocity": 105,
      "chip": "ym2612"
    },
    {
      "channel": 0,
      "note": 87,
      "start": 12.408,
      "duration": 0.0482,
      "velocity": 105,
      "chip": "ym2612"
    },
    {
      "channel": 4,
      "note": 87,
      "start": 12.4258,
      "duration": 0.047,
      "velocity": 105,
      "chip": "ym2612"
    },
    {
      "channel": 0,
      "note": 83,
      "start": 12.4569,
      "duration": 0.369,
      "velocity": 105,
      "chip": "ym2612"
    },
    {
      "channel": 1,
      "note": 57,
      "start": 12.4576,
      "duration": 0.3307,
      "velocity": 95,
      "chip": "ym2612"
    },
    {
      "channel": 4,
      "note": 83,
      "start": 12.4734,
      "duration": 0.3682,
      "velocity": 105,
      "chip": "ym2612"
    },
    {
      "channel": 1,
      "note": 61,
      "start": 12.7889,
      "duration": 0.2363,
      "velocity": 95,
      "chip": "ym2612"
    },
    {
      "channel": 0,
      "note": 78,
      "start": 12.9077,
      "duration": 0.1163,
      "velocity": 105,
      "chip": "ym2612"
    },
    {
      "channel": 4,
      "note": 78,
      "start": 12.9757,
      "duration": 0.081,
      "velocity": 105,
      "chip": "ym2612"
    },
    {
      "channel": 0,
      "note": 83,
      "start": 13.0247,
      "duration": 0.2144,
      "velocity": 105,
      "chip": "ym2612"
    },
    {
      "channel": 1,
      "note": 59,
      "start": 13.0258,
      "duration": 0.2809,
      "velocity": 95,
      "chip": "ym2612"
    },
    {
      "channel": 4,
      "note": 83,
      "start": 13.0573,
      "duration": 0.2016,
      "velocity": 105,
      "chip": "ym2612"
    },
    {
      "channel": 0,
      "note": 83,
      "start": 13.2396,
      "duration": 0.0346,
      "velocity": 105,
      "chip": "ym2612"
    },
    {
      "channel": 2,
      "note": 95,
      "start": 13.241,
      "duration": 0.0663,
      "velocity": 126,
      "chip": "ym2612"
    },
    {
      "channel": 3,
      "note": 95,
      "start": 13.2509,
      "duration": 0.067,
      "velocity": 126,
      "chip": "ym2612"
    },
    {
      "channel": 4,
      "note": 83,
      "start": 13.2595,
      "duration": 0.0329,
      "velocity": 105,
      "chip": "ym2612"
    },
    {
      "channel": 0,
      "note": 78,
      "start": 13.2748,
      "duration": 0.0304,
      "velocity": 105,
      "chip": "ym2612"
    },
    {
      "channel": 4,
      "note": 78,
      "start": 13.293,
      "duration": 0.0447,
      "velocity": 105,
      "chip": "ym2612"
    },
    {
      "channel": 0,
      "note": 76,
      "start": 13.3058,
      "duration": 0.3796,
      "velocity": 105,
      "chip": "ym2612"
    },
    {
      "channel": 1,
      "note": 57,
      "start": 13.3072,
      "duration": 0.213,
      "velocity": 95,
      "chip": "ym2612"
    },
    {
      "channel": 2,
      "note": 92,
      "start": 13.308,
      "duration": 0.2126,
      "velocity": 126,
      "chip": "ym2612"
    },
    {
      "channel": 3,
      "note": 92,
      "start": 13.3184,
      "duration": 0.2351,
      "velocity": 126,
      "chip": "ym2612"
    },
    {
      "channel": 4,
      "note": 76,
      "start": 13.3383,
      "duration": 0.3647,
      "velocity": 105,
      "chip": "ym2612"
    },
    {
      "channel": 2,
      "note": 93,
      "start": 13.5212,
      "duration": 0.1967,
      "velocity": 126,
      "chip": "ym2612"
    },
    {
      "channel": 3,
      "note": 93,
      "start": 13.5542,
      "duration": 0.1683,
      "velocity": 126,
      "chip": "ym2612"
    },
    {
      "channel": 1,
      "note": 57,
      "start": 13.654,
      "duration": 0.0631,
      "velocity": 95,
      "chip": "ym2612"
    },
    {
      "channel": 1,
      "note": 57,
      "start": 13.7177,
      "duration": 0.0335,
      "velocity": 95,
      "chip": "ym2612"
    },
    {
      "channel": 2,
      "note": 92,
      "start": 13.7184,
      "duration": 0.5633,
      "velocity": 126,
      "chip": "ym2612"
    },
    {
      "channel": 3,
      "note": 92,
      "start": 13.723,
      "duration": 0.5685,
      "velocity": 126,
      "chip": "ym2612"
    },
    {
      "channel": 0,
      "note": 76,
      "start": 13.7511,
      "duration": 0.1296,
      "velocity": 105,
      "chip": "ym2612"
    },
    {
      "channel": 1,
      "note": 57,
      "start": 13.7518,
      "duration": 0.13,
      "velocity": 95,
      "chip": "ym2612"
    },
    {
      "channel": 4,
      "note": 76,
      "start": 13.7835,
      "duration": 0.1186,
      "velocity": 105,
      "chip": "ym2612"
    },
    {
      "channel": 0,
      "note": 80,
      "start": 13.8813,
      "duration": 0.0368,
      "velocity": 105,
      "chip": "ym2612"
    },
    {
      "channel": 1,
      "note": 61,
      "start": 13.8823,
      "duration": 0.3334,
      "velocity": 95,
      "chip": "ym2612"
    },
    {
      "channel": 4,
      "note": 80,
      "start": 13.9027,
      "duration": 0.0479,
      "velocity": 105,
      "chip": "ym2612"
    },
    {
      "channel": 0,
      "note": 81,
      "start": 14.0003,
      "duration": 0.0974,
      "velocity": 105,
      "chip": "ym2612"
    },
    {
      "channel": 4,
      "note": 81,
      "start": 14.0329,
      "duration": 0.1326,
      "velocity": 105,
      "chip": "ym2612"
    },
    {
      "channel": 0,
      "note": 83,
      "start": 14.2156,
      "duration": 0.036,
      "velocity": 105,
      "chip": "ym2612"
    },
    {
      "channel": 1,
      "note": 59,
      "start": 14.2163,
      "duration": 0.2805,
      "velocity": 95,
      "chip": "ym2612"
    },
    {
      "channel": 4,
      "note": 83,
      "start": 14.2363,
      "duration": 0.0338,
      "velocity": 105,
      "chip": "ym2612"
    },
    {
      "channel": 0,
      "note": 85,
      "start": 14.2812,
      "duration": 0.0973,
      "velocity": 105,
      "chip": "ym2612"
    },
    {
      "channel": 2,
      "note": 90,
      "start": 14.2823,
      "duration": 0.2153,
      "velocity": 126,
      "chip": "ym2612"
    },
    {
      "channel": 3,
      "note": 90,
      "start": 14.2921,
      "duration": 0.2157,
      "velocity": 126,
      "chip": "ym2612"
    },
    {
      "channel": 4,
      "note": 85,
      "start": 14.3136,
      "duration": 0.1326,
      "velocity": 105,
      "chip": "ym2612"
    },
    {
      "channel": 0,
      "note": 81,
      "start": 14.496,
      "duration": 0.1303,
      "velocity": 105,
      "chip": "ym2612"
    },
    {
      "channel": 1,
      "note": 57,
      "start": 14.4975,
      "duration": 0.6137,
      "velocity": 95,
      "chip": "ym2612"
    },
    {
      "channel": 2,
      "note": 90,
      "start": 14.4982,
      "duration": 0.5438,
      "velocity": 126,
      "chip": "ym2612"
    },
    {
      "channel": 3,
      "note": 90,
      "start": 14.5084,
      "duration": 0.5443,
      "velocity": 126,
      "chip": "ym2612"
    },
    {
      "channel": 4,
      "note": 81,
      "start": 14.5168,
      "duration": 0.1279,
      "velocity": 105,
      "chip": "ym2612"
    },
    {
      "channel": 0,
      "note": 86,
      "start": 14.7572,
      "duration": 0.2145,
      "velocity": 105,
      "chip": "ym2612"
    },
    {
      "channel": 4,
      "note": 86,
      "start": 14.8252,
      "duration": 0.1668,
      "velocity": 105,
      "chip": "ym2612"
    },
    {
      "channel": 0,
      "note": 90,
      "start": 14.9724,
      "duration": 0.1381,
      "velocity": 105,
      "chip": "ym2612"
    },
    {
      "channel": 4,
      "note": 90,
      "start": 14.9926,
      "duration": 0.1394,
      "velocity": 105,
      "chip": "ym2612"
    },
    {
      "channel": 2,
      "note": 92,
      "start": 15.0426,
      "duration": 0.0693,
      "velocity": 126,
      "chip": "ym2612"
    },
    {
      "channel": 3,
      "note": 92,
      "start": 15.0532,
      "duration": 0.0695,
      "velocity": 126,
      "chip": "ym2612"
    },
    {
      "channel": 0,
      "note": 93,
      "start": 15.1111,
      "duration": 0.137,
      "velocity": 105,
      "chip": "ym2612"
    },
    {
      "channel": 1,
      "note": 50,
      "start": 15.1117,
      "duration": 0.1372,
      "velocity": 95,
      "chip": "ym2612"
    },
    {
      "channel": 2,
      "note": 93,
      "start": 15.1125,
      "duration": 0.1403,
      "velocity": 117,
      "chip": "ym2612"
    },
    {
      "channel": 3,
      "note": 93,
      "start": 15.1234,
      "duration": 0.1391,
      "velocity": 117,
      "chip": "ym2612"
    },
    {
      "channel": 4,
      "note": 93,
      "start": 15.1325,
      "duration": 0.1464,
      "velocity": 105,
      "chip": "ym2612"
    },
    {
      "channel": 1,
      "note": 49,
      "start": 15.2495,
      "duration": 0.1026,
      "velocity": 95,
      "chip": "ym2612"
    },
    {
      "channel": 2,
      "note": 61,
      "start": 15.2534,
      "duration": 0.2328,
      "velocity": 117,
      "chip": "ym2612"
    },
    {
      "channel": 3,
      "note": 61,
      "start": 15.263,
      "duration": 0.2401,
      "velocity": 117,
      "chip": "ym2612"
    },
    {
      "channel": 2,
      "note": 64,
      "start": 15.4867,
      "duration": 10.9735,
      "velocity": 117,
      "chip": "ym2612"
    },
    {
      "channel": 3,
      "note": 64,
      "start": 15.5037,
      "duration": 10.9565,
      "velocity": 117,
      "chip": "ym2612"
    }
  ]
}