{
  "track_name": "09 - Shop 2",
  "duration_sec": 92.091,
  "sample_rate": 44100,
  "note_count": 1154,
  "unique_pitches": 23,
  "pitch_range": 43,
  "avg_note_duration": 0.0931,
  "reconstruction_stats": {
    "notes_reconstructed": 1154,
    "keyon_events": 1154,
    "keyoff_events": 1153,
    "orphan_keyons": 1,
    "unique_pitches": 23,
    "pitch_range": 43,
    "avg_duration_sec": 0.0931
  },
  "metadata": {
    "source": "W\\Waterworld\\Waterworld (Mega Drive, Genesis)\\09 - Shop 2.vgz"
  },
  "notes": [
    {
      "channel": 0,
      "note": -1,
      "start": 0.0052,
      "duration": 0.3381,
      "velocity": 106,
      "chip": "ym2612"
    },
    {
      "channel": 2,
      "note": -1,
      "start": 0.008,
      "duration": 0.0041,
      "velocity": 107,
      "chip": "ym2612"
    },
    {
      "channel": 1,
      "note": -1,
      "start": 0.0407,
      "duration": 0.3434,
      "velocity": 106,
      "chip": "ym2612"
    },
    {
      "channel": 2,
      "note": 37,
      "start": 0.0435,
      "duration": 0.0046,
      "velocity": 107,
      "chip": "ym2612"
    },
    {
      "channel": 2,
      "note": 37,
      "start": 0.0798,
      "duration": 0.003,
      "velocity": 107,
      "chip": "ym2612"
    },
    {
      "channel": 2,
      "note": 37,
      "start": 0.1149,
      "duration": 0.0091,
      "velocity": 107,
      "chip": "ym2612"
    },
    {
      "channel": 0,
      "note": 62,
      "start": 0.3454,
      "duration": 0.1126,
      "velocity": 106,
      "chip": "ym2612"
    },
    {
      "channel": 2,
      "note": 35,
      "start": 0.3487,
      "duration": 0.0046,
      "velocity": 107,
      "chip": "ym2612"
    },
    {
      "channel": 1,
      "note": 62,
      "start": 0.3862,
      "duration": 0.3032,
      "velocity": 106,
      "chip": "ym2612"
    },
    {
      "channel": 2,
      "note": 37,
      "start": 0.389,
      "duration": 0.0046,
      "velocity": 107,
      "chip": "ym2612"
    },
    {
      "channel": 2,
      "note": 37,
      "start": 0.4254,
      "duration": 0.0031,
      "velocity": 107,
      "chip": "ym2612"
    },
    {
      "channel": 0,
      "note": 69,
      "start": 0.4602,
      "duration": 0.3416,
      "velocity": 106,
      "chip": "ym2612"
    },
    {
      "channel": 2,
      "note": 37,
      "start": 0.4636,
      "duration": 0.006,
      "velocity": 107,
      "chip": "ym2612"
    },
    {
      "channel": 1,
      "note": 69,
      "start": 0.6914,
      "duration": 0.3438,
      "velocity": 106,
      "chip": "ym2612"
    },
    {
      "channel": 2,
      "note": 35,
      "start": 0.6942,
      "duration": 0.0046,
      "velocity": 107,
      "chip": "ym2612"
    },
    {
      "channel": 2,
      "note": 37,
      "start": 0.7326,
      "duration": 0.0046,
      "velocity": 107,
      "chip": "ym2612"
    },
    {
      "channel": 2,
      "note": 37,
      "start": 0.7696,
      "duration": 0.003,
      "velocity": 107,
      "chip": "ym2612"
    },
    {
      "channel": 2,
      "note": 37,
      "start": 0.8052,
      "duration": 0.0105,
      "velocity": 107,
      "chip": "ym2612"
    },
    {
      "channel": 2,
      "note": 40,
      "start": 1.0381,
      "duration": 0.0046,
      "velocity": 107,
      "chip": "ym2612"
    },
    {
      "channel": 2,
      "note": 40,
      "start": 1.0756,
      "duration": 0.0046,
      "velocity": 107,
      "chip": "ym2612"
    },
    {
      "channel": 0,
      "note": 69,
      "start": 1.1119,
      "duration": 0.0814,
      "velocity": 106,
      "chip": "ym2612"
    },
    {
      "channel": 2,
      "note": 37,
      "start": 1.1151,
      "duration": 0.0031,
      "velocity": 107,
      "chip": "ym2612"
    },
    {
      "channel": 1,
      "note": 69,
      "start": 1.1506,
      "duration": 0.0831,
      "velocity": 106,
      "chip": "ym2612"
    },
    {
      "channel": 2,
      "note": 37,
      "start": 1.1534,
      "duration": 0.0046,
      "velocity": 107,
      "chip": "ym2612"
    },
    {
      "channel": 0,
      "note": 59,
      "start": 1.1954,
      "duration": 0.343,
      "velocity": 106,
      "chip": "ym2612"
    },
    {
      "channel": 2,
      "note": 35,
      "start": 1.1986,
      "duration": 0.0046,
      "velocity": 107,
      "chip": "ym2612"
    },
    {
      "channel": 1,
      "note": 59,
      "start": 1.2358,
      "duration": 0.3432,
      "velocity": 106,
      "chip": "ym2612"
    },
    {
      "channel": 2,
      "note": 37,
      "start": 1.2386,
      "duration": 0.0045,
      "velocity": 107,
      "chip": "ym2612"
    },
    {
      "channel": 2,
      "note": 37,
      "start": 1.2751,
      "duration": 0.003,
      "velocity": 107,
      "chip": "ym2612"
    },
    {
      "channel": 2,
      "note": 37,
      "start": 1.31,
      "duration": 0.0091,
      "velocity": 107,
      "chip": "ym2612"
    },
    {
      "channel": 0,
      "note": 62,
      "start": 1.5405,
      "duration": 0.1124,
      "velocity": 106,
      "chip": "ym2612"
    },
    {
      "channel": 2,
      "note": 35,
      "start": 1.5438,
      "duration": 0.0045,
      "velocity": 107,
      "chip": "ym2612"
    },
    {
      "channel": 1,
      "note": 62,
      "start": 1.5812,
      "duration": 0.303,
      "velocity": 106,
      "chip": "ym2612"
    },
    {
      "channel": 2,
      "note": 37,
      "start": 1.584,
      "duration": 0.0045,
      "velocity": 107,
      "chip": "ym2612"
    },
    {
      "channel": 2,
      "note": 37,
      "start": 1.6203,
      "duration": 0.0031,
      "velocity": 107,
      "chip": "ym2612"
    },
    {
      "channel": 0,
      "note": 69,
      "start": 1.6551,
      "duration": 0.3414,
      "velocity": 106,
      "chip": "ym2612"
    },
    {
      "channel": 2,
      "note": 37,
      "start": 1.6585,
      "duration": 0.006,
      "velocity": 107,
      "chip": "ym2612"
    },
    {
      "channel": 1,
      "note": 69,
      "start": 1.8863,
      "duration": 0.3464,
      "velocity": 106,
      "chip": "ym2612"
    },
    {
      "channel": 2,
      "note": 35,
      "start": 1.8891,
      "duration": 0.0046,
      "velocity": 107,
      "chip": "ym2612"
    },
    {
      "channel": 2,
      "note": 37,
      "start": 1.9274,
      "duration": 0.0045,
      "velocity": 107,
      "chip": "ym2612"
    },
    {
      "channel": 2,
      "note": 37,
      "start": 1.9643,
      "duration": 0.0031,
      "velocity": 107,
      "chip": "ym2612"
    },
    {
      "channel": 2,
      "note": 37,
      "start": 1.9998,
      "duration": 0.0106,
      "velocity": 107,
      "chip": "ym2612"
    },
    {
      "channel": 0,
      "note": 69,
      "start": 2.2318,
      "duration": 0.2451,
      "velocity": 106,
      "chip": "ym2612"
    },
    {
      "channel": 2,
      "note": 42,
      "start": 2.2353,
      "duration": 0.0045,
      "velocity": 107,
      "chip": "ym2612"
    },
    {
      "channel": 1,
      "note": 69,
      "start": 2.2726,
      "duration": 0.2456,
      "velocity": 106,
      "chip": "ym2612"
    },
    {
      "channel": 2,
      "note": 42,
      "start": 2.2754,
      "duration": 0.0045,
      "velocity": 107,
      "chip": "ym2612"
    },
    {
      "channel": 2,
      "note": 44,
      "start": 2.3122,
      "duration": 0.003,
      "velocity": 107,
      "chip": "ym2612"
    },
    {
      "channel": 2,
      "note": 44,
      "start": 2.3479,
      "duration": 0.0082,
      "velocity": 107,
      "chip": "ym2612"
    },
    {
      "channel": 0,
      "note": 72,
      "start": 2.4791,
      "duration": 0.3444,
      "velocity": 106,
      "chip": "ym2612"
    },
    {
      "channel": 2,
      "note": 35,
      "start": 2.4823,
      "duration": 0.0046,
      "velocity": 107,
      "chip": "ym2612"
    },
    {
      "channel": 1,
      "note": 72,
      "start": 2.5204,
      "duration": 0.3437,
      "velocity": 106,
      "chip": "ym2612"
    },
    {
      "channel": 2,
      "note": 37,
      "start": 2.5232,
      "duration": 0.0045,
      "velocity": 107,
      "chip": "ym2612"
    },
    {
      "channel": 2,
      "note": 37,
      "start": 2.5599,
      "duration": 0.003,
      "velocity": 107,
      "chip": "ym2612"
    },
    {
      "channel": 2,
      "note": 37,
      "start": 2.5949,
      "duration": 0.0092,
      "velocity": 107,
      "chip": "ym2612"
    },
    {
      "channel": 0,
      "note": 62,
      "start": 2.8256,
      "duration": 0.1125,
      "velocity": 106,
      "chip": "ym2612"
    },
    {
      "channel": 2,
      "note": 35,
      "start": 2.8288,
      "duration": 0.0046,
      "velocity": 107,
      "chip": "ym2612"
    },
    {
      "channel": 1,
      "note": 62,
      "start": 2.8662,
      "duration": 0.3031,
      "velocity": 106,
      "chip": "ym2612"
    },
    {
      "channel": 2,
      "note": 37,
      "start": 2.869,
      "duration": 0.0046,
      "velocity": 107,
      "chip": "ym2612"
    },
    {
      "channel": 2,
      "note": 37,
      "start": 2.9056,
      "duration": 0.0031,
      "velocity": 107,
      "chip": "ym2612"
    },
    {
      "channel": 0,
      "note": 69,
      "start": 2.9402,
      "duration": 0.3414,
      "velocity": 106,
      "chip": "ym2612"
    },
    {
      "channel": 2,
      "note": 37,
      "start": 2.9436,
      "duration": 0.006,
      "velocity": 107,
      "chip": "ym2612"
    },
    {
      "channel": 1,
      "note": 69,
      "start": 3.1715,
      "duration": 0.3436,
      "velocity": 106,
      "chip": "ym2612"
    },
    {
      "channel": 2,
      "note": 35,
      "start": 3.1743,
      "duration": 0.0045,
      "velocity": 107,
      "chip": "ym2612"
    },
    {
      "channel": 2,
      "note": 37,
      "start": 3.2125,
      "duration": 0.0046,
      "velocity": 107,
      "chip": "ym2612"
    },
    {
      "channel": 2,
      "note": 37,
      "start": 3.2496,
      "duration": 0.003,
      "velocity": 107,
      "chip": "ym2612"
    },
    {
      "channel": 2,
      "note": 37,
      "start": 3.285,
      "duration": 0.0106,
      "velocity": 107,
      "chip": "ym2612"
    },
    {
      "channel": 2,
      "note": 40,
      "start": 3.518,
      "duration": 0.0046,
      "velocity": 107,
      "chip": "ym2612"
    },
    {
      "channel": 2,
      "note": 40,
      "start": 3.5553,
      "duration": 0.0046,
      "velocity": 107,
      "chip": "ym2612"
    },
    {
      "channel": 0,
      "note": 69,
      "start": 3.5916,
      "duration": 0.0818,
      "velocity": 106,
      "chip": "ym2612"
    },
    {
      "channel": 2,
      "note": 37,
      "start": 3.5948,
      "duration": 0.003,
      "velocity": 107,
      "chip": "ym2612"
    },
    {
      "channel": 1,
      "note": 69,
      "start": 3.6303,
      "duration": 0.0837,
      "velocity": 106,
      "chip": "ym2612"
    },
    {
      "channel": 2,
      "note": 37,
      "start": 3.6331,
      "duration": 0.0046,
      "velocity": 107,
      "chip": "ym2612"
    },
    {
      "channel": 0,
      "note": 59,
      "start": 3.6755,
      "duration": 0.3432,
      "velocity": 106,
      "chip": "ym2612"
    },
    {
      "channel": 2,
      "note": 35,
      "start": 3.6788,
      "duration": 0.0046,
      "velocity": 107,
      "chip": "ym2612"
    },
    {
      "channel": 1,
      "note": 59,
      "start": 3.7161,
      "duration": 0.3432,
      "velocity": 106,
      "chip": "ym2612"
    },
    {
      "channel": 2,
      "note": 37,
      "start": 3.7189,
      "duration": 0.0046,
      "velocity": 107,
      "chip": "ym2612"
    },
    {
      "channel": 2,
      "note": 37,
      "start": 3.7555,
      "duration": 0.003,
      "velocity": 107,
      "chip": "ym2612"
    },
    {
      "channel": 2,
      "note": 37,
      "start": 3.7904,
      "duration": 0.0091,
      "velocity": 107,
      "chip": "ym2612"
    },
    {
      "channel": 0,
      "note": 62,
      "start": 4.0209,
      "duration": 0.1125,
      "velocity": 106,
      "chip": "ym2612"
    },
    {
      "channel": 2,
      "note": 35,
      "start": 4.0241,
      "duration": 0.0046,
      "velocity": 107,
      "chip": "ym2612"
    },
    {
      "channel": 1,
      "note": 62,
      "start": 4.0615,
      "duration": 0.3032,
      "velocity": 106,
      "chip": "ym2612"
    },
    {
      "channel": 2,
      "note": 37,
      "start": 4.0643,
      "duration": 0.0045,
      "velocity": 107,
      "chip": "ym2612"
    },
    {
      "channel": 2,
      "note": 37,
      "start": 4.1007,
      "duration": 0.0031,
      "velocity": 107,
      "chip": "ym2612"
    },
    {
      "channel": 0,
      "note": 69,
      "start": 4.1355,
      "duration": 0.3415,
      "velocity": 106,
      "chip": "ym2612"
    },
    {
      "channel": 2,
      "note": 37,
      "start": 4.139,
      "duration": 0.006,
      "velocity": 107,
      "chip": "ym2612"
    },
    {
      "channel": 1,
      "note": 69,
      "start": 4.3668,
      "duration": 0.3464,
      "velocity": 106,
      "chip": "ym2612"
    },
    {
      "channel": 2,
      "note": 35,
      "start": 4.3696,
      "duration": 0.0045,
      "velocity": 107,
      "chip": "ym2612"
    },
    {
      "channel": 2,
      "note": 37,
      "start": 4.4078,
      "duration": 0.0046,
      "velocity": 107,
      "chip": "ym2612"
    },
    {
      "channel": 2,
      "note": 37,
      "start": 4.4449,
      "duration": 0.003,
      "velocity": 107,
      "chip": "ym2612"
    },
    {
      "channel": 2,
      "note": 37,
      "start": 4.4804,
      "duration": 0.0105,
      "velocity": 107,
      "chip": "ym2612"
    },
    {
      "channel": 0,
      "note": 69,
      "start": 4.7123,
      "duration": 0.2449,
      "velocity": 106,
      "chip": "ym2612"
    },
    {
      "channel": 2,
      "note": 42,
      "start": 4.7157,
      "duration": 0.0045,
      "velocity": 107,
      "chip": "ym2612"
    },
    {
      "channel": 1,
      "note": 69,
      "start": 4.7527,
      "duration": 0.2546,
      "velocity": 106,
      "chip": "ym2612"
    },
    {
      "channel": 2,
      "note": 42,
      "start": 4.7555,
      "duration": 0.0045,
      "velocity": 107,
      "chip": "ym2612"
    },
    {
      "channel": 2,
      "note": 44,
      "start": 4.7921,
      "duration": 0.003,
      "velocity": 107,
      "chip": "ym2612"
    },
    {
      "channel": 2,
      "note": 44,
      "start": 4.8281,
      "duration": 0.0082,
      "velocity": 107,
      "chip": "ym2612"
    },
    {
      "channel": 0,
      "note": 72,
      "start": 4.9593,
      "duration": 0.2476,
      "velocity": 106,
      "chip": "ym2612"
    },
    {
      "channel": 2,
      "note": 35,
      "start": 4.9625,
      "duration": 0.0071,
      "velocity": 107,
      "chip": "ym2612"
    },
    {
      "channel": 3,
      "note": -1,
      "start": 4.9651,
      "duration": 0.0131,
      "velocity": 91,
      "chip": "ym2612"
    },
    {
      "channel": 4,
      "note": -1,
      "start": 4.9878,
      "duration": 0.0113,
      "velocity": 91,
      "chip": "ym2612"
    },
    {
      "channel": 1,
      "note": 72,
      "start": 5.0095,
      "duration": 0.245,
      "velocity": 106,
      "chip": "ym2612"
    },
    {
      "channel": 2,
      "note": 37,
      "start": 5.0123,
      "duration": 0.0071,
      "velocity": 107,
      "chip": "ym2612"
    },
    {
      "channel": 3,
      "note": 61,
      "start": 5.0149,
      "duration": 0.013,
      "velocity": 91,
      "chip": "ym2612"
    },
    {
      "channel": 4,
      "note": 61,
      "start": 5.0372,
      "duration": 0.011,
      "velocity": 91,
      "chip": "ym2612"
    },
    {
      "channel": 2,
      "note": 37,
      "start": 5.0585,
      "duration": 0.0071,
      "velocity": 107,
      "chip": "ym2612"
    },
    {
      "channel": 3,
      "note": 61,
      "start": 5.0611,
      "duration": 0.0132,
      "velocity": 91,
      "chip": "ym2612"
    },
    {
      "channel": 4,
      "note": 61,
      "start": 5.0836,
      "duration": 0.0111,
      "velocity": 91,
      "chip": "ym2612"
    },
    {
      "channel": 2,
      "note": 37,
      "start": 5.1046,
      "duration": 0.0057,
      "velocity": 107,
      "chip": "ym2612"
    },
    {
      "channel": 3,
      "note": 64,
      "start": 5.1072,
      "duration": 0.0116,
      "velocity": 91,
      "chip": "ym2612"
    },
    {
      "channel": 3,
      "note": 61,
      "start": 5.1284,
      "duration": 0.0388,
      "velocity": 91,
      "chip": "ym2612"
    },
    {
      "channel": 4,
      "note": 64,
      "start": 5.1311,
      "duration": 0.0365,
      "velocity": 91,
      "chip": "ym2612"
    },
    {
      "channel": 0,
      "note": 62,
      "start": 5.209,
      "duration": 0.1406,
      "velocity": 106,
      "chip": "ym2612"
    },
    {
      "channel": 2,
      "note": 35,
      "start": 5.2122,
      "duration": 0.0071,
      "velocity": 107,
      "chip": "ym2612"
    },
    {
      "channel": 4,
      "note": 61,
      "start": 5.2149,
      "duration": 0.0133,
      "velocity": 91,
      "chip": "ym2612"
    },
    {
      "channel": 1,
      "note": 62,
      "start": 5.2566,
      "duration": 0.1987,
      "velocity": 106,
      "chip": "ym2612"
    },
    {
      "channel": 2,
      "note": 37,
      "start": 5.2594,
      "duration": 0.0071,
      "velocity": 107,
      "chip": "ym2612"
    },
    {
      "channel": 3,
      "note": 69,
      "start": 5.262,
      "duration": 0.0134,
      "velocity": 91,
      "chip": "ym2612"
    },
    {
      "channel": 4,
      "note": 69,
      "start": 5.2848,
      "duration": 0.0114,
      "velocity": 91,
      "chip": "ym2612"
    },
    {
      "channel": 2,
      "note": 37,
      "start": 5.3063,
      "duration": 0.0071,
      "velocity": 107,
      "chip": "ym2612"
    },
    {
      "channel": 3,
      "note": 68,
      "start": 5.309,
      "duration": 0.0132,
      "velocity": 91,
      "chip": "ym2612"
    },
    {
      "channel": 4,
      "note": 68,
      "start": 5.3314,
      "duration": 0.0112,
      "velocity": 91,
      "chip": "ym2612"
    },
    {
      "channel": 0,
      "note": 69,
      "start": 5.3517,
      "duration": 0.2494,
      "velocity": 106,
      "chip": "ym2612"
    },
    {
      "channel": 2,
      "note": 37,
      "start": 5.3552,
      "duration": 0.0056,
      "velocity": 107,
      "chip": "ym2612"
    },
    {
      "channel": 3,
      "note": 66,
      "start": 5.3578,
      "duration": 0.0117,
      "velocity": 91,
      "chip": "ym2612"
    },
    {
      "channel": 3,
      "note": 64,
      "start": 5.3793,
      "duration": 0.0357,
      "velocity": 91,
      "chip": "ym2612"
    },
    {
      "channel": 4,
      "note": 66,
      "start": 5.3819,
      "duration": 0.0334,
      "velocity": 91,
      "chip": "ym2612"
    },
    {
      "channel": 1,
      "note": 69,
      "start": 5.4574,
      "duration": 0.2494,
      "velocity": 106,
      "chip": "ym2612"
    },
    {
      "channel": 2,
      "note": 35,
      "start": 5.4602,
      "duration": 0.0097,
      "velocity": 107,
      "chip": "ym2612"
    },
    {
      "channel": 3,
      "note": 66,
      "start": 5.4628,
      "duration": 0.0164,
      "velocity": 91,
      "chip": "ym2612"
    },
    {
      "channel": 4,
      "note": 64,
      "start": 5.4654,
      "duration": 0.0141,
      "velocity": 91,
      "chip": "ym2612"
    },
    {
      "channel": 4,
      "note": 66,
      "start": 5.4898,
      "duration": 0.0113,
      "velocity": 91,
      "chip": "ym2612"
    },
    {
      "channel": 2,
      "note": 37,
      "start": 5.5115,
      "duration": 0.0071,
      "velocity": 107,
      "chip": "ym2612"
    },
    {
      "channel": 3,
      "note": 61,
      "start": 5.5141,
      "duration": 0.0134,
      "velocity": 91,
      "chip": "ym2612"
    },
    {
      "channel": 4,
      "note": 61,
      "start": 5.5368,
      "duration": 0.0114,
      "velocity": 91,
      "chip": "ym2612"
    },
    {
      "channel": 2,
      "note": 37,
      "start": 5.5584,
      "duration": 0.0071,
      "velocity": 107,
      "chip": "ym2612"
    },
    {
      "channel": 3,
      "note": 61,
      "start": 5.561,
      "duration": 0.0132,
      "velocity": 91,
      "chip": "ym2612"
    },
    {
      "channel": 4,
      "note": 61,
      "start": 5.5836,
      "duration": 0.0112,
      "velocity": 91,
      "chip": "ym2612"
    },
    {
      "channel": 2,
      "note": 37,
      "start": 5.6045,
      "duration": 0.0057,
      "velocity": 107,
      "chip": "ym2612"
    },
    {
      "channel": 3,
      "note": 64,
      "start": 5.6071,
      "duration": 0.0119,
      "velocity": 91,
      "chip": "ym2612"
    },
    {
      "channel": 3,
      "note": 61,
      "start": 5.6288,
      "duration": 0.0381,
      "velocity": 91,
      "chip": "ym2612"
    },
    {
      "channel": 4,
      "note": 64,
      "start": 5.6314,
      "duration": 0.0358,
      "velocity": 91,
      "chip": "ym2612"
    },
    {
      "channel": 2,
      "note": 40,
      "start": 5.7097,
      "duration": 0.0072,
      "velocity": 107,
      "chip": "ym2612"
    },
    {
      "channel": 4,
      "note": 61,
      "start": 5.7124,
      "duration": 0.0133,
      "velocity": 91,
      "chip": "ym2612"
    },
    {
      "channel": 3,
      "note": 69,
      "start": 5.735,
      "duration": 0.0112,
      "velocity": 91,
      "chip": "ym2612"
    },
    {
      "channel": 2,
      "note": 40,
      "start": 5.7563,
      "duration": 0.0098,
      "velocity": 107,
      "chip": "ym2612"
    },
    {
      "channel": 3,
      "note": 69,
      "start": 5.7589,
      "duration": 0.0164,
      "velocity": 91,
      "chip": "ym2612"
    },
    {
      "channel": 4,
      "note": 69,
      "start": 5.7615,
      "duration": 0.0142,
      "velocity": 91,
      "chip": "ym2612"
    },
    {
      "channel": 3,
      "note": 68,
      "start": 5.7859,
      "duration": 0.0112,
      "velocity": 91,
      "chip": "ym2612"
    },
    {
      "channel": 0,
      "note": 69,
      "start": 5.8067,
      "duration": 0.1074,
      "velocity": 106,
      "chip": "ym2612"
    },
    {
      "channel": 2,
      "note": 37,
      "start": 5.8099,
      "duration": 0.0097,
      "velocity": 107,
      "chip": "ym2612"
    },
    {
      "channel": 3,
      "note": 68,
      "start": 5.8125,
      "duration": 0.0163,
      "velocity": 91,
      "chip": "ym2612"
    },
    {
      "channel": 4,
      "note": 69,
      "start": 5.8151,
      "duration": 0.0141,
      "velocity": 91,
      "chip": "ym2612"
    },
    {
      "channel": 1,
      "note": 69,
      "start": 5.8566,
      "duration": 0.1118,
      "velocity": 106,
      "chip": "ym2612"
    },
    {
      "channel": 2,
      "note": 37,
      "start": 5.8593,
      "duration": 0.0097,
      "velocity": 107,
      "chip": "ym2612"
    },
    {
      "channel": 3,
      "note": 71,
      "start": 5.862,
      "duration": 0.0165,
      "velocity": 91,
      "chip": "ym2612"
    },
    {
      "channel": 4,
      "note": 68,
      "start": 5.8646,
      "duration": 0.0142,
      "velocity": 91,
      "chip": "ym2612"
    },
    {
      "channel": 3,
      "note": 64,
      "start": 5.8896,
      "duration": 0.0159,
      "velocity": 91,
      "chip": "ym2612"
    },
    {
      "channel": 4,
      "note": 71,
      "start": 5.8922,
      "duration": 0.0136,
      "velocity": 91,
      "chip": "ym2612"
    },
    {
      "channel": 0,
      "note": 59,
      "start": 5.9163,
      "duration": 0.251,
      "velocity": 106,
      "chip": "ym2612"
    },
    {
      "channel": 2,
      "note": 35,
      "start": 5.9195,
      "duration": 0.0097,
      "velocity": 107,
      "chip": "ym2612"
    },
    {
      "channel": 3,
      "note": 66,
      "start": 5.9221,
      "duration": 0.0163,
      "velocity": 91,
      "chip": "ym2612"
    },
    {
      "channel": 4,
      "note": 64,
      "start": 5.9247,
      "duration": 0.0141,
      "velocity": 91,
      "chip": "ym2612"
    },
    {
      "channel": 4,
      "note": 66,
      "start": 5.9491,
      "duration": 0.0111,
      "velocity": 91,
      "chip": "ym2612"
    },
    {
      "channel": 1,
      "note": 59,
      "start": 5.9705,
      "duration": 0.2472,
      "velocity": 106,
      "chip": "ym2612"
    },
    {
      "channel": 2,
      "note": 37,
      "start": 5.9732,
      "duration": 0.0071,
      "velocity": 107,
      "chip": "ym2612"
    },
    {
      "channel": 3,
      "note": 61,
      "start": 5.9759,
      "duration": 0.013,
      "velocity": 91,
      "chip": "ym2612"
    },
    {
      "channel": 4,
      "note": 61,
      "start": 5.9982,
      "duration": 0.011,
      "velocity": 91,
      "chip": "ym2612"
    },
    {
      "channel": 2,
      "note": 37,
      "start": 6.0195,
      "duration": 0.0071,
      "velocity": 107,
      "chip": "ym2612"
    },
    {
      "channel": 3,
      "note": 61,
      "start": 6.0221,
      "duration": 0.0131,
      "velocity": 91,
      "chip": "ym2612"
    },
    {
      "channel": 4,
      "note": 61,
      "start": 6.0444,
      "duration": 0.0112,
      "velocity": 91,
      "chip": "ym2612"
    },
    {
      "channel": 2,
      "note": 37,
      "start": 6.0651,
      "duration": 0.0057,
      "velocity": 107,
      "chip": "ym2612"
    },
    {
      "channel": 3,
      "note": 64,
      "start": 6.0678,
      "duration": 0.0116,
      "velocity": 91,
      "chip": "ym2612"
    },
    {
      "channel": 3,
      "note": 61,
      "start": 6.089,
      "duration": 0.0386,
      "velocity": 91,
      "chip": "ym2612"
    },
    {
      "channel": 4,
      "note": 64,
      "start": 6.0916,
      "duration": 0.0364,
      "velocity": 91,
      "chip": "ym2612"
    },
    {
      "channel": 0,
      "note": 62,
      "start": 6.1694,
      "duration": 0.1473,
      "velocity": 106,
      "chip": "ym2612"
    },
    {
      "channel": 2,
      "note": 35,
      "start": 6.1727,
      "duration": 0.0071,
      "velocity": 107,
      "chip": "ym2612"
    },
    {
      "channel": 4,
      "note": 61,
      "start": 6.1753,
      "duration": 0.0133,
      "velocity": 91,
      "chip": "ym2612"
    },
    {
      "channel": 3,
      "note": 69,
      "start": 6.1978,
      "duration": 0.0112,
      "velocity": 91,
      "chip": "ym2612"
    },
    {
      "channel": 1,
      "note": 62,
      "start": 6.2198,
      "duration": 0.2025,
      "velocity": 106,
      "chip": "ym2612"
    },
    {
      "channel": 2,
      "note": 37,
      "start": 6.2226,
      "duration": 0.0097,
      "velocity": 107,
      "chip": "ym2612"
    },
    {
      "channel": 3,
      "note": 69,
      "start": 6.2252,
      "duration": 0.0164,
      "velocity": 91,
      "chip": "ym2612"
    },
    {
      "channel": 4,
      "note": 69,
      "start": 6.2278,
      "duration": 0.0141,
      "velocity": 91,
      "chip": "ym2612"
    },
    {
      "channel": 4,
      "note": 69,
      "start": 6.2522,
      "duration": 0.0114,
      "velocity": 91,
      "chip": "ym2612"
    },
    {
      "channel": 2,
      "note": 37,
      "start": 6.2735,
      "duration": 0.0071,
      "velocity": 107,
      "chip": "ym2612"
    },
    {
      "channel": 3,
      "note": 68,
      "start": 6.2761,
      "duration": 0.0132,
      "velocity": 91,
      "chip": "ym2612"
    },
    {
      "channel": 4,
      "note": 68,
      "start": 6.2986,
      "duration": 0.0112,
      "velocity": 91,
      "chip": "ym2612"
    },
    {
      "channel": 0,
      "note": 69,
      "start": 6.3189,
      "duration": 0.2497,
      "velocity": 106,
      "chip": "ym2612"
    },
    {
      "channel": 2,
      "note": 37,
      "start": 6.3223,
      "duration": 0.0056,
      "velocity": 107,
      "chip": "ym2612"
    },
    {
      "channel": 3,
      "note": 66,
      "start": 6.3249,
      "duration": 0.0117,
      "velocity": 91,
      "chip": "ym2612"
    },
    {
      "channel": 3,
      "note": 64,
      "start": 6.3465,
      "duration": 0.0355,
      "velocity": 91,
      "chip": "ym2612"
    },
    {
      "channel": 4,
      "note": 66,
      "start": 6.3491,
      "duration": 0.0332,
      "velocity": 91,
      "chip": "ym2612"
    },
    {
      "channel": 1,
      "note": 69,
      "start": 6.4244,
      "duration": 0.2528,
      "velocity": 106,
      "chip": "ym2612"
    },
    {
      "channel": 2,
      "note": 35,
      "start": 6.4272,
      "duration": 0.0097,
      "velocity": 107,
      "chip": "ym2612"
    },
    {
      "channel": 3,
      "note": 66,
      "start": 6.4298,
      "duration": 0.0165,
      "velocity": 91,
      "chip": "ym2612"
    },
    {
      "channel": 4,
      "note": 64,
      "start": 6.4324,
      "duration": 0.0142,
      "velocity": 91,
      "chip": "ym2612"
    },
    {
      "channel": 4,
      "note": 66,
      "start": 6.4569,
      "duration": 0.0115,
      "velocity": 91,
      "chip": "ym2612"
    },
    {
      "channel": 2,
      "note": 37,
      "start": 6.4787,
      "duration": 0.0071,
      "velocity": 107,
      "chip": "ym2612"
    },
    {
      "channel": 3,
      "note": 61,
      "start": 6.4813,
      "duration": 0.0134,
      "velocity": 91,
      "chip": "ym2612"
    },
    {
      "channel": 4,
      "note": 61,
      "start": 6.5041,
      "duration": 0.0113,
      "velocity": 91,
      "chip": "ym2612"
    },
    {
      "channel": 2,
      "note": 37,
      "start": 6.5256,
      "duration": 0.0071,
      "velocity": 107,
      "chip": "ym2612"
    },
    {
      "channel": 3,
      "note": 61,
      "start": 6.5282,
      "duration": 0.0133,
      "velocity": 91,
      "chip": "ym2612"
    },
    {
      "channel": 4,
      "note": 61,
      "start": 6.5509,
      "duration": 0.0112,
      "velocity": 91,
      "chip": "ym2612"
    },
    {
      "channel": 2,
      "note": 37,
      "start": 6.572,
      "duration": 0.0056,
      "velocity": 107,
      "chip": "ym2612"
    },
    {
      "channel": 3,
      "note": 64,
      "start": 6.5746,
      "duration": 0.0118,
      "velocity": 91,
      "chip": "ym2612"
    },
    {
      "channel": 3,
      "note": 68,
      "start": 6.5963,
      "duration": 0.0381,
      "velocity": 91,
      "chip": "ym2612"
    },
    {
      "channel": 4,
      "note": 64,
      "start": 6.5989,
      "duration": 0.0359,
      "velocity": 91,
      "chip": "ym2612"
    },
    {
      "channel": 0,
      "note": 69,
      "start": 6.6762,
      "duration": 0.2004,
      "velocity": 106,
      "chip": "ym2612"
    },
    {
      "channel": 2,
      "note": 42,
      "start": 6.6796,
      "duration": 0.0072,
      "velocity": 107,
      "chip": "ym2612"
    },
    {
      "channel": 4,
      "note": 68,
      "start": 6.6823,
      "duration": 0.0134,
      "velocity": 91,
      "chip": "ym2612"
    },
    {
      "channel": 3,
      "note": 69,
      "start": 6.7051,
      "duration": 0.0111,
      "velocity": 91,
      "chip": "ym2612"
    },
    {
      "channel": 1,
      "note": 69,
      "start": 6.7265,
      "duration": 0.2002,
      "velocity": 106,
      "chip": "ym2612"
    },
    {
      "channel": 2,
      "note": 42,
      "start": 6.7293,
      "duration": 0.0097,
      "velocity": 107,
      "chip": "ym2612"
    },
    {
      "channel": 3,
      "note": 69,
      "start": 6.732,
      "duration": 0.0167,
      "velocity": 91,
      "chip": "ym2612"
    },
    {
      "channel": 4,
      "note": 69,
      "start": 6.7346,
      "duration": 0.0144,
      "velocity": 91,
      "chip": "ym2612"
    },
    {
      "channel": 4,
      "note": 69,
      "start": 6.7593,
      "duration": 0.0113,
      "velocity": 91,
      "chip": "ym2612"
    },
    {
      "channel": 2,
      "note": 44,
      "start": 6.7807,
      "duration": 0.0071,
      "velocity": 107,
      "chip": "ym2612"
    },
    {
      "channel": 3,
      "note": 71,
      "start": 6.7833,
      "duration": 0.0137,
      "velocity": 91,
      "chip": "ym2612"
    },
    {
      "channel": 4,
      "note": 71,
      "start": 6.8063,
      "duration": 0.0113,
      "velocity": 91,
      "chip": "ym2612"
    },
    {
      "channel": 2,
      "note": 44,
      "start": 6.8274,
      "duration": 0.0057,
      "velocity": 107,
      "chip": "ym2612"
    },
    {
      "channel": 3,
      "note": 71,
      "start": 6.83,
      "duration": 0.0119,
      "velocity": 91,
      "chip": "ym2612"
    },
    {
      "channel": 4,
      "note": 71,
      "start": 6.8524,
      "duration": 0.0128,
      "velocity": 91,
      "chip": "ym2612"
    },
    {
      "channel": 0,
      "note": 72,
      "start": 6.8787,
      "duration": 0.2477,
      "velocity": 106,
      "chip": "ym2612"
    },
    {
      "channel": 2,
      "note": 35,
      "start": 6.8819,
      "duration": 0.0071,
      "velocity": 107,
      "chip": "ym2612"
    },
    {
      "channel": 3,
      "note": 71,
      "start": 6.8845,
      "duration": 0.0131,
      "velocity": 91,
      "chip": "ym2612"
    },
    {
      "channel": 4,
      "note": 71,
      "start": 6.907,
      "duration": 0.0112,
      "velocity": 91,
      "chip": "ym2612"
    },
    {
      "channel": 1,
      "note": 72,
      "start": 6.9288,
      "duration": 0.2451,
      "velocity": 106,
      "chip": "ym2612"
    },
    {
      "channel": 2,
      "note": 37,
      "start": 6.9316,
      "duration": 0.0071,
      "velocity": 107,
      "chip": "ym2612"
    },
    {
      "channel": 3,
      "note": 61,
      "start": 6.9342,
      "duration": 0.0131,
      "velocity": 91,
      "chip": "ym2612"
    },
    {
      "channel": 4,
      "note": 61,
      "start": 6.9566,
      "duration": 0.011,
      "velocity": 91,
      "chip": "ym2612"
    },
    {
      "channel": 2,
      "note": 37,
      "start": 6.9778,
      "duration": 0.0071,
      "velocity": 107,
      "chip": "ym2612"
    },
    {
      "channel": 3,
      "note": 61,
      "start": 6.9805,
      "duration": 0.0132,
      "velocity": 91,
      "chip": "ym2612"
    },
    {
      "channel": 4,
      "note": 61,
      "start": 7.0029,
      "duration": 0.0111,
      "velocity": 91,
      "chip": "ym2612"
    },
    {
      "channel": 2,
      "note": 37,
      "start": 7.0239,
      "duration": 0.0056,
      "velocity": 107,
      "chip": "ym2612"
    },
    {
      "channel": 3,
      "note": 64,
      "start": 7.0265,
      "duration": 0.0118,
      "velocity": 91,
      "chip": "ym2612"
    },
    {
      "channel": 3,
      "note": 61,
      "start": 7.048,
      "duration": 0.0388,
      "velocity": 91,
      "chip": "ym2612"
    },
    {
      "channel": 4,
      "note": 64,
      "start": 7.0506,
      "duration": 0.0365,
      "velocity": 91,
      "chip": "ym2612"
    },
    {
      "channel": 0,
      "note": 62,
      "start": 7.1285,
      "duration": 0.1406,
      "velocity": 106,
      "chip": "ym2612"
    },
    {
      "channel": 2,
      "note": 35,
      "start": 7.1317,
      "duration": 0.0071,
      "velocity": 107,
      "chip": "ym2612"
    },
    {
      "channel": 4,
      "note": 61,
      "start": 7.1344,
      "duration": 0.0132,
      "velocity": 91,
      "chip": "ym2612"
    },
    {
      "channel": 1,
      "note": 62,
      "start": 7.1761,
      "duration": 0.1987,
      "velocity": 106,
      "chip": "ym2612"
    },
    {
      "channel": 2,
      "note": 37,
      "start": 7.1789,
      "duration": 0.0071,
      "velocity": 107,
      "chip": "ym2612"
    },
    {
      "channel": 3,
      "note": 69,
      "start": 7.1815,
      "duration": 0.0133,
      "velocity": 91,
      "chip": "ym2612"
    },
    {
      "channel": 4,
      "note": 69,
      "start": 7.2042,
      "duration": 0.0113,
      "velocity": 91,
      "chip": "ym2612"
    },
    {
      "channel": 2,
      "note": 37,
      "start": 7.2257,
      "duration": 0.0071,
      "velocity": 107,
      "chip": "ym2612"
    },
    {
      "channel": 3,
      "note": 68,
      "start": 7.2283,
      "duration": 0.0133,
      "velocity": 91,
      "chip": "ym2612"
    },
    {
      "channel": 4,
      "note": 68,
      "start": 7.2509,
      "duration": 0.0113,
      "velocity": 91,
      "chip": "ym2612"
    },
    {
      "channel": 0,
      "note": 69,
      "start": 7.2712,
      "duration": 0.2503,
      "velocity": 106,
      "chip": "ym2612"
    },
    {
      "channel": 2,
      "note": 37,
      "start": 7.2746,
      "duration": 0.0056,
      "velocity": 107,
      "chip": "ym2612"
    },
    {
      "channel": 3,
      "note": 66,
      "start": 7.2773,
      "duration": 0.0117,
      "velocity": 91,
      "chip": "ym2612"
    },
    {
      "channel": 3,
      "note": 64,
      "start": 7.2988,
      "duration": 0.0357,
      "velocity": 91,
      "chip": "ym2612"
    },
    {
      "channel": 4,
      "note": 66,
      "start": 7.3014,
      "duration": 0.0334,
      "velocity": 91,
      "chip": "ym2612"
    },
    {
      "channel": 1,
      "note": 69,
      "start": 7.3769,
      "duration": 0.25,
      "velocity": 106,
      "chip": "ym2612"
    },
    {
      "channel": 2,
      "note": 35,
      "start": 7.3797,
      "duration": 0.0097,
      "velocity": 107,
      "chip": "ym2612"
    },
    {
      "channel": 3,
      "note": 66,
      "start": 7.3823,
      "duration": 0.0165,
      "velocity": 91,
      "chip": "ym2612"
    },
    {
      "channel": 4,
      "note": 64,
      "start": 7.3849,
      "duration": 0.0142,
      "velocity": 91,
      "chip": "ym2612"
    },
    {
      "channel": 4,
      "note": 66,
      "start": 7.4094,
      "duration": 0.0115,
      "velocity": 91,
      "chip": "ym2612"
    },
    {
      "channel": 2,
      "note": 37,
      "start": 7.4313,
      "duration": 0.0072,
      "velocity": 107,
      "chip": "ym2612"
    },
    {
      "channel": 3,
      "note": 61,
      "start": 7.4339,
      "duration": 0.0134,
      "velocity": 91,
      "chip": "ym2612"
    },
    {
      "channel": 4,
      "note": 61,
      "start": 7.4567,
      "duration": 0.0115,
      "velocity": 91,
      "chip": "ym2612"
    },
    {
      "channel": 2,
      "note": 37,
      "start": 7.4784,
      "duration": 0.0071,
      "velocity": 107,
      "chip": "ym2612"
    },
    {
      "channel": 3,
      "note": 61,
      "start": 7.481,
      "duration": 0.0133,
      "velocity": 91,
      "chip": "ym2612"
    },
    {
      "channel": 4,
      "note": 61,
      "start": 7.5038,
      "duration": 0.0111,
      "velocity": 91,
      "chip": "ym2612"
    },
    {
      "channel": 2,
      "note": 37,
      "start": 7.5249,
      "duration": 0.0056,
      "velocity": 107,
      "chip": "ym2612"
    },
    {
      "channel": 3,
      "note": 64,
      "start": 7.5275,
      "duration": 0.0117,
      "velocity": 91,
      "chip": "ym2612"
    },
    {
      "channel": 3,
      "note": 61,
      "start": 7.5489,
      "duration": 0.038,
      "velocity": 91,
      "chip": "ym2612"
    },
    {
      "channel": 4,
      "note": 64,
      "start": 7.5515,
      "duration": 0.0358,
      "velocity": 91,
      "chip": "ym2612"
    },
    {
      "channel": 2,
      "note": 40,
      "start": 7.6298,
      "duration": 0.0072,
      "velocity": 107,
      "chip": "ym2612"
    },
    {
      "channel": 4,
      "note": 61,
      "start": 7.6324,
      "duration": 0.0134,
      "velocity": 91,
      "chip": "ym2612"
    },
    {
      "channel": 3,
      "note": 69,
      "start": 7.6552,
      "duration": 0.0112,
      "velocity": 91,
      "chip": "ym2612"
    },
    {
      "channel": 2,
      "note": 40,
      "start": 7.6765,
      "duration": 0.0098,
      "velocity": 107,
      "chip": "ym2612"
    },
    {
      "channel": 3,
      "note": 69,
      "start": 7.6791,
      "duration": 0.0164,
      "velocity": 91,
      "chip": "ym2612"
    },
    {
      "channel": 4,
      "note": 69,
      "start": 7.6817,
      "duration": 0.0141,
      "velocity": 91,
      "chip": "ym2612"
    },
    {
      "channel": 3,
      "note": 68,
      "start": 7.706,
      "duration": 0.0111,
      "velocity": 91,
      "chip": "ym2612"
    },
    {
      "channel": 0,
      "note": 69,
      "start": 7.7271,
      "duration": 0.11,
      "velocity": 106,
      "chip": "ym2612"
    },
    {
      "channel": 2,
      "note": 37,
      "start": 7.7303,
      "duration": 0.0097,
      "velocity": 107,
      "chip": "ym2612"
    },
    {
      "channel": 3,
      "note": 68,
      "start": 7.7329,
      "duration": 0.0164,
      "velocity": 91,
      "chip": "ym2612"
    },
    {
      "channel": 4,
      "note": 69,
      "start": 7.7355,
      "duration": 0.0141,
      "velocity": 91,
      "chip": "ym2612"
    },
    {
      "channel": 1,
      "note": 69,
      "start": 7.7768,
      "duration": 0.1145,
      "velocity": 106,
      "chip": "ym2612"
    },
    {
      "channel": 2,
      "note": 37,
      "start": 7.7796,
      "duration": 0.0097,
      "velocity": 107,
      "chip": "ym2612"
    },
    {
      "channel": 3,
      "note": 71,
      "start": 7.7823,
      "duration": 0.0165,
      "velocity": 91,
      "chip": "ym2612"
    },
    {
      "channel": 4,
      "note": 68,
      "start": 7.7849,
      "duration": 0.0142,
      "velocity": 91,
      "chip": "ym2612"
    },
    {
      "channel": 3,
      "note": 64,
      "start": 7.81,
      "duration": 0.0157,
      "velocity": 91,
      "chip": "ym2612"
    },
    {
      "channel": 4,
      "note": 71,
      "start": 7.8126,
      "duration": 0.0135,
      "velocity": 91,
      "chip": "ym2612"
    },
    {
      "channel": 0,
      "note": 59,
      "start": 7.8392,
      "duration": 0.2514,
      "velocity": 106,
      "chip": "ym2612"
    },
    {
      "channel": 2,
      "note": 35,
      "start": 7.8424,
      "duration": 0.0097,
      "velocity": 107,
      "chip": "ym2612"
    },
    {
      "channel": 3,
      "note": 66,
      "start": 7.8451,
      "duration": 0.0164,
      "velocity": 91,
      "chip": "ym2612"
    },
    {
      "channel": 4,
      "note": 64,
      "start": 7.8477,
      "duration": 0.0142,
      "velocity": 91,
      "chip": "ym2612"
    },
    {
      "channel": 4,
      "note": 66,
      "start": 7.8721,
      "duration": 0.0111,
      "velocity": 91,
      "chip": "ym2612"
    },
    {
      "channel": 1,
      "note": 59,
      "start": 7.8935,
      "duration": 0.2475,
      "velocity": 106,
      "chip": "ym2612"
    },
    {
      "channel": 2,
      "note": 37,
      "start": 7.8963,
      "duration": 0.0071,
      "velocity": 107,
      "chip": "ym2612"
    },
    {
      "channel": 3,
      "note": 61,
      "start": 7.8989,
      "duration": 0.013,
      "velocity": 91,
      "chip": "ym2612"
    },
    {
      "channel": 4,
      "note": 61,
      "start": 7.9213,
      "duration": 0.011,
      "velocity": 91,
      "chip": "ym2612"
    },
    {
      "channel": 2,
      "note": 37,
      "start": 7.9425,
      "duration": 0.0071,
      "velocity": 107,
      "chip": "ym2612"
    },
    {
      "channel": 3,
      "note": 61,
      "start": 7.9451,
      "duration": 0.0132,
      "velocity": 91,
      "chip": "ym2612"
    },
    {
      "channel": 4,
      "note": 61,
      "start": 7.9677,
      "duration": 0.0112,
      "velocity": 91,
      "chip": "ym2612"
    },
    {
      "channel": 2,
      "note": 37,
      "start": 7.9883,
      "duration": 0.0057,
      "velocity": 107,
      "chip": "ym2612"
    },
    {
      "channel": 3,
      "note": 64,
      "start": 7.991,
      "duration": 0.0116,
      "velocity": 91,
      "chip": "ym2612"
    },
    {
      "channel": 3,
      "note": 61,
      "start": 8.0122,
      "duration": 0.0388,
      "velocity": 91,
      "chip": "ym2612"
    },
    {
      "channel": 4,
      "note": 64,
      "start": 8.0148,
      "duration": 0.0365,
      "velocity": 91,
      "chip": "ym2612"
    },
    {
      "channel": 0,
      "note": 62,
      "start": 8.0927,
      "duration": 0.1478,
      "velocity": 106,
      "chip": "ym2612"
    },
    {
      "channel": 2,
      "note": 35,
      "start": 8.096,
      "duration": 0.0071,
      "velocity": 107,
      "chip": "ym2612"
    },
    {
      "channel": 4,
      "note": 61,
      "start": 8.0986,
      "duration": 0.0133,
      "velocity": 91,
      "chip": "ym2612"
    },
    {
      "channel": 3,
      "note": 69,
      "start": 8.1212,
      "duration": 0.0112,
      "velocity": 91,
      "chip": "ym2612"
    },
    {
      "channel": 1,
      "note": 62,
      "start": 8.1431,
      "duration": 0.2029,
      "velocity": 106,
      "chip": "ym2612"
    },
    {
      "channel": 2,
      "note": 37,
      "start": 8.1459,
      "duration": 0.0097,
      "velocity": 107,
      "chip": "ym2612"
    },
    {
      "channel": 3,
      "note": 69,
      "start": 8.1485,
      "duration": 0.0166,
      "velocity": 91,
      "chip": "ym2612"
    },
    {
      "channel": 4,
      "note": 69,
      "start": 8.1512,
      "duration": 0.0143,
      "velocity": 91,
      "chip": "ym2612"
    },
    {
      "channel": 4,
      "note": 69,
      "start": 8.1757,
      "duration": 0.0114,
      "velocity": 91,
      "chip": "ym2612"
    },
    {
      "channel": 2,
      "note": 37,
      "start": 8.1973,
      "duration": 0.0071,
      "velocity": 107,
      "chip": "ym2612"
    },
    {
      "channel": 3,
      "note": 68,
      "start": 8.1999,
      "duration": 0.0132,
      "velocity": 91,
      "chip": "ym2612"
    },
    {
      "channel": 4,
      "note": 68,
      "start": 8.2224,
      "duration": 0.0112,
      "velocity": 91,
      "chip": "ym2612"
    },
    {
      "channel": 0,
      "note": 69,
      "start": 8.2427,
      "duration": 0.2497,
      "velocity": 106,
      "chip": "ym2612"
    },
    {
      "channel": 2,
      "note": 37,
      "start": 8.2461,
      "duration": 0.0056,
      "velocity": 107,
      "chip": "ym2612"
    },
    {
      "channel": 3,
      "note": 66,
      "start": 8.2487,
      "duration": 0.0117,
      "velocity": 91,
      "chip": "ym2612"
    },
    {
      "channel": 3,
      "note": 64,
      "start": 8.2702,
      "duration": 0.0355,
      "velocity": 91,
      "chip": "ym2612"
    },
    {
      "channel": 4,
      "note": 66,
      "start": 8.2728,
      "duration": 0.0332,
      "velocity": 91,
      "chip": "ym2612"
    },
    {
      "channel": 1,
      "note": 69,
      "start": 8.3481,
      "duration": 0.2527,
      "velocity": 106,
      "chip": "ym2612"
    },
    {
      "channel": 2,
      "note": 35,
      "start": 8.3509,
      "duration": 0.0097,
      "velocity": 107,
      "chip": "ym2612"
    },
    {
      "channel": 3,
      "note": 66,
      "start": 8.3535,
      "duration": 0.0165,
      "velocity": 91,
      "chip": "ym2612"
    },
    {
      "channel": 4,
      "note": 64,
      "start": 8.3562,
      "duration": 0.0142,
      "velocity": 91,
      "chip": "ym2612"
    },
    {
      "channel": 4,
      "note": 66,
      "start": 8.3807,
      "duration": 0.0115,
      "velocity": 91,
      "chip": "ym2612"
    },
    {
      "channel": 2,
      "note": 37,
      "start": 8.4025,
      "duration": 0.0071,
      "velocity": 107,
      "chip": "ym2612"
    },
    {
      "channel": 3,
      "note": 61,
      "start": 8.4051,
      "duration": 0.0134,
      "velocity": 91,
      "chip": "ym2612"
    },
    {
      "channel": 4,
      "note": 61,
      "start": 8.4278,
      "duration": 0.0115,
      "velocity": 91,
      "chip": "ym2612"
    },
    {
      "channel": 2,
      "note": 37,
      "start": 8.4494,
      "duration": 0.0071,
      "velocity": 107,
      "chip": "ym2612"
    },
    {
      "channel": 3,
      "note": 61,
      "start": 8.452,
      "duration": 0.0132,
      "velocity": 91,
      "chip": "ym2612"
    },
    {
      "channel": 4,
      "note": 61,
      "start": 8.4747,
      "duration": 0.0111,
      "velocity": 91,
      "chip": "ym2612"
    },
    {
      "channel": 2,
      "note": 37,
      "start": 8.4957,
      "duration": 0.0056,
      "velocity": 107,
      "chip": "ym2612"
    },
    {
      "channel": 3,
      "note": 64,
      "start": 8.4983,
      "duration": 0.0118,
      "velocity": 91,
      "chip": "ym2612"
    },
    {
      "channel": 3,
      "note": 68,
      "start": 8.5199,
      "duration": 0.0381,
      "velocity": 91,
      "chip": "ym2612"
    },
    {
      "channel": 4,
      "note": 64,
      "start": 8.5226,
      "duration": 0.0359,
      "velocity": 91,
      "chip": "ym2612"
    },
    {
      "channel": 0,
      "note": 69,
      "start": 8.5998,
      "duration": 0.2003,
      "velocity": 106,
      "chip": "ym2612"
    },
    {
      "channel": 2,
      "note": 42,
      "start": 8.6032,
      "duration": 0.0072,
      "velocity": 107,
      "chip": "ym2612"
    },
    {
      "channel": 4,
      "note": 68,
      "start": 8.6059,
      "duration": 0.0134,
      "velocity": 91,
      "chip": "ym2612"
    },
    {
      "channel": 3,
      "note": 69,
      "start": 8.6286,
      "duration": 0.0111,
      "velocity": 91,
      "chip": "ym2612"
    },
    {
      "channel": 1,
      "note": 69,
      "start": 8.6501,
      "duration": 0.1911,
      "velocity": 106,
      "chip": "ym2612"
    },
    {
      "channel": 2,
      "note": 42,
      "start": 8.6529,
      "duration": 0.0097,
      "velocity": 107,
      "chip": "ym2612"
    },
    {
      "channel": 3,
      "note": 69,
      "start": 8.6555,
      "duration": 0.0167,
      "velocity": 91,
      "chip": "ym2612"
    },
    {
      "channel": 4,
      "note": 69,
      "start": 8.6582,
      "duration": 0.0144,
      "velocity": 91,
      "chip": "ym2612"
    },
    {
      "channel": 4,
      "note": 69,
      "start": 8.6828,
      "duration": 0.0113,
      "velocity": 91,
      "chip": "ym2612"
    },
    {
      "channel": 2,
      "note": 44,
      "start": 8.7043,
      "duration": 0.0071,
      "velocity": 107,
      "chip": "ym2612"
    },
    {
      "channel": 3,
      "note": 71,
      "start": 8.7069,
      "duration": 0.0137,
      "velocity": 91,
      "chip": "ym2612"
    },
    {
      "channel": 4,
      "note": 71,
      "start": 8.7299,
      "duration": 0.0112,
      "velocity": 91,
      "chip": "ym2612"
    },
    {
      "channel": 2,
      "note": 44,
      "start": 8.751,
      "duration": 0.0057,
      "velocity": 107,
      "chip": "ym2612"
    },
    {
      "channel": 3,
      "note": 71,
      "start": 8.7536,
      "duration": 0.012,
      "velocity": 91,
      "chip": "ym2612"
    },
    {
      "channel": 4,
      "note": 71,
      "start": 8.776,
      "duration": 0.0129,
      "velocity": 91,
      "chip": "ym2612"
    },
    {
      "channel": 0,
      "note": 72,
      "start": 8.8022,
      "duration": 0.2286,
      "velocity": 106,
      "chip": "ym2612"
    },
    {
      "channel": 2,
      "note": 35,
      "start": 8.8055,
      "duration": 0.0046,
      "velocity": 107,
      "chip": "ym2612"
    },
    {
      "channel": 1,
      "note": 72,
      "start": 8.8433,
      "duration": 0.2286,
      "velocity": 106,
      "chip": "ym2612"
    },
    {
      "channel": 2,
      "note": 39,
      "start": 8.8461,
      "duration": 0.0045,
      "velocity": 107,
      "chip": "ym2612"
    },
    {
      "channel": 2,
      "note": 39,
      "start": 8.8841,
      "duration": 0.0046,
      "velocity": 107,
      "chip": "ym2612"
    },
    {
      "channel": 2,
      "note": 39,
      "start": 8.9207,
      "duration": 0.003,
      "velocity": 107,
      "chip": "ym2612"
    },
    {
      "channel": 0,
      "note": 63,
      "start": 9.033,
      "duration": 0.116,
      "velocity": 106,
      "chip": "ym2612"
    },
    {
      "channel": 2,
      "note": 37,
      "start": 9.0362,
      "duration": 0.0045,
      "velocity": 107,
      "chip": "ym2612"
    },
    {
      "channel": 1,
      "note": 63,
      "start": 9.074,
      "duration": 0.1885,
      "velocity": 106,
      "chip": "ym2612"
    },
    {
      "channel": 2,
      "note": 39,
      "start": 9.0768,
      "duration": 0.0045,
      "velocity": 107,
      "chip": "ym2612"
    },
    {
      "channel": 2,
      "note": 39,
      "start": 9.115,
      "duration": 0.0046,
      "velocity": 107,
      "chip": "ym2612"
    },
    {
      "channel": 0,
      "note": 71,
      "start": 9.1511,
      "duration": 0.2261,
      "velocity": 106,
      "chip": "ym2612"
    },
    {
      "channel": 2,
      "note": 39,
      "start": 9.1546,
      "duration": 0.0032,
      "velocity": 107,
      "chip": "ym2612"
    },
    {
      "channel": 1,
      "note": 71,
      "start": 9.2647,
      "duration": 0.2263,
      "velocity": 106,
      "chip": "ym2612"
    },
    {
      "channel": 2,
      "note": 37,
      "start": 9.2675,
      "duration": 0.0046,
      "velocity": 107,
      "chip": "ym2612"
    },
    {
      "channel": 2,
      "note": 39,
      "start": 9.3058,
      "duration": 0.0046,
      "velocity": 107,
      "chip": "ym2612"
    },
    {
      "channel": 2,
      "note": 39,
      "start": 9.3435,
      "duration": 0.0045,
      "velocity": 107,
      "chip": "ym2612"
    },
    {
      "channel": 2,
      "note": 39,
      "start": 9.3806,
      "duration": 0.0031,
      "velocity": 107,
      "chip": "ym2612"
    },
    {
      "channel": 2,
      "note": 42,
      "start": 9.4939,
      "duration": 0.0046,
      "velocity": 107,
      "chip": "ym2612"
    },
    {
      "channel": 2,
      "note": 42,
      "start": 9.5312,
      "duration": 0.0046,
      "velocity": 107,
      "chip": "ym2612"
    },
    {
      "channel": 0,
      "note": 71,
      "start": 9.568,
      "duration": 0.0832,
      "velocity": 106,
      "chip": "ym2612"
    },
    {
      "channel": 2,
      "note": 39,
      "start": 9.5712,
      "duration": 0.0046,
      "velocity": 107,
      "chip": "ym2612"
    },
    {
      "channel": 1,
      "note": 71,
      "start": 9.6082,
      "duration": 0.0834,
      "velocity": 106,
      "chip": "ym2612"
    },
    {
      "channel": 2,
      "note": 39,
      "start": 9.611,
      "duration": 0.0046,
      "velocity": 107,
      "chip": "ym2612"
    },
    {
      "channel": 0,
      "note": 61,
      "start": 9.6533,
      "duration": 0.2283,
      "velocity": 106,
      "chip": "ym2612"
    },
    {
      "channel": 2,
      "note": 37,
      "start": 9.6565,
      "duration": 0.0046,
      "velocity": 107,
      "chip": "ym2612"
    },
    {
      "channel": 1,
      "note": 61,
      "start": 9.6938,
      "duration": 0.2288,
      "velocity": 106,
      "chip": "ym2612"
    },
    {
      "channel": 2,
      "note": 39,
      "start": 9.6966,
      "duration": 0.0046,
      "velocity": 107,
      "chip": "ym2612"
    },
    {
      "channel": 2,
      "note": 39,
      "start": 9.7346,
      "duration": 0.0046,
      "velocity": 107,
      "chip": "ym2612"
    },
    {
      "channel": 2,
      "note": 39,
      "start": 9.7714,
      "duration": 0.003,
      "velocity": 107,
      "chip": "ym2612"
    },
    {
      "channel": 0,
      "note": 63,
      "start": 9.8837,
      "duration": 0.1159,
      "velocity": 106,
      "chip": "ym2612"
    },
    {
      "channel": 2,
      "note": 37,
      "start": 9.887,
      "duration": 0.0045,
      "velocity": 107,
      "chip": "ym2612"
    },
    {
      "channel": 1,
      "note": 63,
      "start": 9.9247,
      "duration": 0.1886,
      "velocity": 106,
      "chip": "ym2612"
    },
    {
      "channel": 2,
      "note": 39,
      "start": 9.9275,
      "duration": 0.0045,
      "velocity": 107,
      "chip": "ym2612"
    },
    {
      "channel": 2,
      "note": 39,
      "start": 9.9657,
      "duration": 0.0045,
      "velocity": 107,
      "chip": "ym2612"
    },
    {
      "channel": 0,
      "note": 71,
      "start": 10.0018,
      "duration": 0.2258,
      "velocity": 106,
      "chip": "ym2612"
    },
    {
      "channel": 2,
      "note": 39,
      "start": 10.0052,
      "duration": 0.003,
      "velocity": 107,
      "chip": "ym2612"
    },
    {
      "channel": 1,
      "note": 71,
      "start": 10.1154,
      "duration": 0.2285,
      "velocity": 106,
      "chip": "ym2612"
    },
    {
      "channel": 2,
      "note": 37,
      "start": 10.1183,
      "duration": 0.0045,
      "velocity": 107,
      "chip": "ym2612"
    },
    {
      "channel": 2,
      "note": 39,
      "start": 10.1565,
      "duration": 0.0046,
      "velocity": 107,
      "chip": "ym2612"
    },
    {
      "channel": 2,
      "note": 39,
      "start": 10.1941,
      "duration": 0.0045,
      "velocity": 107,
      "chip": "ym2612"
    },
    {
      "channel": 2,
      "note": 39,
      "start": 10.231,
      "duration": 0.0031,
      "velocity": 107,
      "chip": "ym2612"
    },
    {
      "channel": 0,
      "note": 71,
      "start": 10.343,
      "duration": 0.1568,
      "velocity": 106,
      "chip": "ym2612"
    },
    {
      "channel": 2,
      "note": 44,
      "start": 10.3464,
      "duration": 0.0045,
      "velocity": 107,
      "chip": "ym2612"
    },
    {
      "channel": 1,
      "note": 71,
      "start": 10.3836,
      "duration": 0.1569,
      "velocity": 106,
      "chip": "ym2612"
    },
    {
      "channel": 2,
      "note": 44,
      "start": 10.3864,
      "duration": 0.0045,
      "velocity": 107,
      "chip": "ym2612"
    },
    {
      "channel": 2,
      "note": 46,
      "start": 10.4247,
      "duration": 0.0046,
      "velocity": 107,
      "chip": "ym2612"
    },
    {
      "channel": 2,
      "note": 46,
      "start": 10.4619,
      "duration": 0.0031,
      "velocity": 107,
      "chip": "ym2612"
    },
    {
      "channel": 0,
      "note": 74,
      "start": 10.5019,
      "duration": 0.2289,
      "velocity": 106,
      "chip": "ym2612"
    },
    {
      "channel": 2,
      "note": 37,
      "start": 10.5051,
      "duration": 0.0046,
      "velocity": 107,
      "chip": "ym2612"
    },
    {
      "channel": 1,
      "note": 74,
      "start": 10.5426,
      "duration": 0.229,
      "velocity": 106,
      "chip": "ym2612"
    },
    {
      "channel": 2,
      "note": 39,
      "start": 10.5454,
      "duration": 0.0046,
      "velocity": 107,
      "chip": "ym2612"
    },
    {
      "channel": 2,
      "note": 39,
      "start": 10.5836,
      "duration": 0.0045,
      "velocity": 107,
      "chip": "ym2612"
    },
    {
      "channel": 2,
      "note": 39,
      "start": 10.6204,
      "duration": 0.003,
      "velocity": 107,
      "chip": "ym2612"
    },
    {
      "channel": 0,
      "note": 63,
      "start": 10.7329,
      "duration": 0.1159,
      "velocity": 106,
      "chip": "ym2612"
    },
    {
      "channel": 2,
      "note": 37,
      "start": 10.7362,
      "duration": 0.0046,
      "velocity": 107,
      "chip": "ym2612"
    },
    {
      "channel": 1,
      "note": 63,
      "start": 10.7737,
      "duration": 0.1888,
      "velocity": 106,
      "chip": "ym2612"
    },
    {
      "channel": 2,
      "note": 39,
      "start": 10.7766,
      "duration": 0.0046,
      "velocity": 107,
      "chip": "ym2612"
    },
    {
      "channel": 2,
      "note": 39,
      "start": 10.8147,
      "duration": 0.0046,
      "velocity": 107,
      "chip": "ym2612"
    },
    {
      "channel": 0,
      "note": 71,
      "start": 10.851,
      "duration": 0.2258,
      "velocity": 106,
      "chip": "ym2612"
    },
    {
      "channel": 2,
      "note": 39,
      "start": 10.8544,
      "duration": 0.0032,
      "velocity": 107,
      "chip": "ym2612"
    },
    {
      "channel": 1,
      "note": 71,
      "start": 10.9646,
      "duration": 0.226,
      "velocity": 106,
      "chip": "ym2612"
    },
    {
      "channel": 2,
      "note": 37,
      "start": 10.9674,
      "duration": 0.0045,
      "velocity": 107,
      "chip": "ym2612"
    },
    {
      "channel": 2,
      "note": 39,
      "start": 11.0057,
      "duration": 0.0046,
      "velocity": 107,
      "chip": "ym2612"
    },
    {
      "channel": 2,
      "note": 39,
      "start": 11.0434,
      "duration": 0.0045,
      "velocity": 107,
      "chip": "ym2612"
    },
    {
      "channel": 2,
      "note": 39,
      "start": 11.0802,
      "duration": 0.0031,
      "velocity": 107,
      "chip": "ym2612"
    },
    {
      "channel": 2,
      "note": 42,
      "start": 11.1935,
      "duration": 0.0045,
      "velocity": 107,
      "chip": "ym2612"
    },
    {
      "channel": 2,
      "note": 42,
      "start": 11.231,
      "duration": 0.0046,
      "velocity": 107,
      "chip": "ym2612"
    },
    {
      "channel": 0,
      "note": 71,
      "start": 11.2679,
      "duration": 0.083,
      "velocity": 106,
      "chip": "ym2612"
    },
    {
      "channel": 2,
      "note": 39,
      "start": 11.2711,
      "duration": 0.0046,
      "velocity": 107,
      "chip": "ym2612"
    },
    {
      "channel": 1,
      "note": 71,
      "start": 11.3081,
      "duration": 0.0834,
      "velocity": 106,
      "chip": "ym2612"
    },
    {
      "channel": 2,
      "note": 39,
      "start": 11.3109,
      "duration": 0.0045,
      "velocity": 107,
      "chip": "ym2612"
    },
    {
      "channel": 0,
      "note": 61,
      "start": 11.353,
      "duration": 0.2283,
      "velocity": 106,
      "chip": "ym2612"
    },
    {
      "channel": 2,
      "note": 37,
      "start": 11.3563,
      "duration": 0.0045,
      "velocity": 107,
      "chip": "ym2612"
    },
    {
      "channel": 1,
      "note": 61,
      "start": 11.3936,
      "duration": 0.2287,
      "velocity": 106,
      "chip": "ym2612"
    },
    {
      "channel": 2,
      "note": 39,
      "start": 11.3963,
      "duration": 0.0045,
      "velocity": 107,
      "chip": "ym2612"
    },
    {
      "channel": 2,
      "note": 39,
      "start": 11.4345,
      "duration": 0.0046,
      "velocity": 107,
      "chip": "ym2612"
    },
    {
      "channel": 2,
      "note": 39,
      "start": 11.4711,
      "duration": 0.003,
      "velocity": 107,
      "chip": "ym2612"
    },
    {
      "channel": 0,
      "note": 63,
      "start": 11.5834,
      "duration": 0.1156,
      "velocity": 106,
      "chip": "ym2612"
    },
    {
      "channel": 2,
      "note": 37,
      "start": 11.5867,
      "duration": 0.0046,
      "velocity": 107,
      "chip": "ym2612"
    },
    {
      "channel": 1,
      "note": 63,
      "start": 11.6244,
      "duration": 0.1882,
      "velocity": 106,
      "chip": "ym2612"
    },
    {
      "channel": 2,
      "note": 39,
      "start": 11.6272,
      "duration": 0.0045,
      "velocity": 107,
      "chip": "ym2612"
    },
    {
      "channel": 2,
      "note": 39,
      "start": 11.6648,
      "duration": 0.0045,
      "velocity": 107,
      "chip": "ym2612"
    },
    {
      "channel": 0,
      "note": 71,
      "start": 11.7012,
      "duration": 0.2258,
      "velocity": 106,
      "chip": "ym2612"
    },
    {
      "channel": 2,
      "note": 39,
      "start": 11.7046,
      "duration": 0.003,
      "velocity": 107,
      "chip": "ym2612"
    },
    {
      "channel": 1,
      "note": 71,
      "start": 11.8147,
      "duration": 0.2288,
      "velocity": 106,
      "chip": "ym2612"
    },
    {
      "channel": 2,
      "note": 37,
      "start": 11.8175,
      "duration": 0.0046,
      "velocity": 107,
      "chip": "ym2612"
    },
    {
      "channel": 2,
      "note": 39,
      "start": 11.8558,
      "duration": 0.0046,
      "velocity": 107,
      "chip": "ym2612"
    },
    {
      "channel": 2,
      "note": 39,
      "start": 11.8934,
      "duration": 0.0045,
      "velocity": 107,
      "chip": "ym2612"
    },
    {
      "channel": 2,
      "note": 39,
      "start": 11.9304,
      "duration": 0.0031,
      "velocity": 107,
      "chip": "ym2612"
    },
    {
      "channel": 0,
      "note": 71,
      "start": 12.0425,
      "duration": 0.1571,
      "velocity": 106,
      "chip": "ym2612"
    },
    {
      "channel": 2,
      "note": 44,
      "start": 12.046,
      "duration": 0.0046,
      "velocity": 107,
      "chip": "ym2612"
    },
    {
      "channel": 1,
      "note": 71,
      "start": 12.0831,
      "duration": 0.1669,
      "velocity": 106,
      "chip": "ym2612"
    },
    {
      "channel": 2,
      "note": 44,
      "start": 12.0859,
      "duration": 0.0046,
      "velocity": 107,
      "chip": "ym2612"
    },
    {
      "channel": 2,
      "note": 46,
      "start": 12.1244,
      "duration": 0.0045,
      "velocity": 107,
      "chip": "ym2612"
    },
    {
      "channel": 2,
      "note": 46,
      "start": 12.1616,
      "duration": 0.0031,
      "velocity": 107,
      "chip": "ym2612"
    },
    {
      "channel": 0,
      "note": 74,
      "start": 12.2017,
      "duration": 0.2484,
      "velocity": 106,
      "chip": "ym2612"
    },
    {
      "channel": 2,
      "note": 37,
      "start": 12.205,
      "duration": 0.0071,
      "velocity": 107,
      "chip": "ym2612"
    },
    {
      "channel": 3,
      "note": 71,
      "start": 12.2076,
      "duration": 0.0134,
      "velocity": 91,
      "chip": "ym2612"
    },
    {
      "channel": 4,
      "note": 71,
      "start": 12.2304,
      "duration": 0.0115,
      "velocity": 91,
      "chip": "ym2612"
    },
    {
      "channel": 1,
      "note": 74,
      "start": 12.2522,
      "duration": 0.2426,
      "velocity": 106,
      "chip": "ym2612"
    },
    {
      "channel": 2,
      "note": 39,
      "start": 12.255,
      "duration": 0.0071,
      "velocity": 107,
      "chip": "ym2612"
    },
    {
      "channel": 3,
      "note": 63,
      "start": 12.2576,
      "duration": 0.0134,
      "velocity": 91,
      "chip": "ym2612"
    },
    {
      "channel": 4,
      "note": 63,
      "start": 12.2803,
      "duration": 0.0114,
      "velocity": 91,
      "chip": "ym2612"
    },
    {
      "channel": 2,
      "note": 39,
      "start": 12.302,
      "duration": 0.0071,
      "velocity": 107,
      "chip": "ym2612"
    },
    {
      "channel": 3,
      "note": 63,
      "start": 12.3046,
      "duration": 0.0133,
      "velocity": 91,
      "chip": "ym2612"
    },
    {
      "channel": 4,
      "note": 63,
      "start": 12.3274,
      "duration": 0.0112,
      "velocity": 91,
      "chip": "ym2612"
    },
    {
      "channel": 2,
      "note": 39,
      "start": 12.3485,
      "duration": 0.0056,
      "velocity": 107,
      "chip": "ym2612"
    },
    {
      "channel": 3,
      "note": 66,
      "start": 12.3511,
      "duration": 0.0118,
      "velocity": 91,
      "chip": "ym2612"
    },
    {
      "channel": 3,
      "note": 63,
      "start": 12.3727,
      "duration": 0.038,
      "velocity": 91,
      "chip": "ym2612"
    },
    {
      "channel": 4,
      "note": 66,
      "start": 12.3753,
      "duration": 0.0358,
      "velocity": 91,
      "chip": "ym2612"
    },
    {
      "channel": 2,
      "note": 37,
      "start": 12.4535,
      "duration": 0.0071,
      "velocity": 107,
      "chip": "ym2612"
    },
    {
      "channel": 4,
      "note": 63,
      "start": 12.4562,
      "duration": 0.0134,
      "velocity": 91,
      "chip": "ym2612"
    },
    {
      "channel": 2,
      "note": 39,
      "start": 12.4977,
      "duration": 0.0072,
      "velocity": 107,
      "chip": "ym2612"
    },
    {
      "channel": 3,
      "note": 71,
      "start": 12.5003,
      "duration": 0.0134,
      "velocity": 91,
      "chip": "ym2612"
    },
    {
      "channel": 4,
      "note": 71,
      "start": 12.5231,
      "duration": 0.0113,
      "velocity": 91,
      "chip": "ym2612"
    },
    {
      "channel": 2,
      "note": 39,
      "start": 12.5445,
      "duration": 0.0072,
      "velocity": 107,
      "chip": "ym2612"
    },
    {
      "channel": 3,
      "note": 70,
      "start": 12.5471,
      "duration": 0.0133,
      "velocity": 91,
      "chip": "ym2612"
    },
    {
      "channel": 4,
      "note": 70,
      "start": 12.5699,
      "duration": 0.0112,
      "velocity": 91,
      "chip": "ym2612"
    },
    {
      "channel": 2,
      "note": 39,
      "start": 12.5905,
      "duration": 0.0056,
      "velocity": 107,
      "chip": "ym2612"
    },
    {
      "channel": 3,
      "note": 68,
      "start": 12.5931,
      "duration": 0.0118,
      "velocity": 91,
      "chip": "ym2612"
    },
    {
      "channel": 3,
      "note": 66,
      "start": 12.6148,
      "duration": 0.0385,
      "velocity": 91,
      "chip": "ym2612"
    },
    {
      "channel": 4,
      "note": 68,
      "start": 12.6174,
      "duration": 0.0363,
      "velocity": 91,
      "chip": "ym2612"
    },
    {
      "channel": 2,
      "note": 37,
      "start": 12.6961,
      "duration": 0.0097,
      "velocity": 107,
      "chip": "ym2612"
    },
    {
      "channel": 3,
      "note": 68,
      "start": 12.6988,
      "duration": 0.0166,
      "velocity": 91,
      "chip": "ym2612"
    },
    {
      "channel": 4,
      "note": 66,
      "start": 12.7014,
      "duration": 0.0143,
      "velocity": 91,
      "chip": "ym2612"
    },
    {
      "channel": 4,
      "note": 68,
      "start": 12.7259,
      "duration": 0.0114,
      "velocity": 91,
      "chip": "ym2612"
    },
    {
      "channel": 2,
      "note": 39,
      "start": 12.75,
      "duration": 0.0071,
      "velocity": 107,
      "chip": "ym2612"
    },
    {
      "channel": 3,
      "note": 63,
      "start": 12.7526,
      "duration": 0.0133,
      "velocity": 91,
      "chip": "ym2612"
    },
    {
      "channel": 4,
      "note": 63,
      "start": 12.7752,
      "duration": 0.0115,
      "velocity": 91,
      "chip": "ym2612"
    },
    {
      "channel": 2,
      "note": 39,
      "start": 12.7974,
      "duration": 0.0072,
      "velocity": 107,
      "chip": "ym2612"
    },
    {
      "channel": 3,
      "note": 63,
      "start": 12.8,
      "duration": 0.0133,
      "velocity": 91,
      "chip": "ym2612"
    },
    {
      "channel": 4,
      "note": 63,
      "start": 12.8228,
      "duration": 0.0112,
      "velocity": 91,
      "chip": "ym2612"
    },
    {
      "channel": 2,
      "note": 39,
      "start": 12.8437,
      "duration": 0.0056,
      "velocity": 107,
      "chip": "ym2612"
    },
    {
      "channel": 3,
      "note": 66,
      "start": 12.8463,
      "duration": 0.0119,
      "velocity": 91,
      "chip": "ym2612"
    },
    {
      "channel": 3,
      "note": 63,
      "start": 12.868,
      "duration": 0.0384,
      "velocity": 91,
      "chip": "ym2612"
    },
    {
      "channel": 4,
      "note": 66,
      "start": 12.8707,
      "duration": 0.0361,
      "velocity": 91,
      "chip": "ym2612"
    },
    {
      "channel": 2,
      "note": 42,
      "start": 12.9491,
      "duration": 0.0071,
      "velocity": 107,
      "chip": "ym2612"
    },
    {
      "channel": 4,
      "note": 63,
      "start": 12.9517,
      "duration": 0.0133,
      "velocity": 91,
      "chip": "ym2612"
    },
    {
      "channel": 3,
      "note": 71,
      "start": 12.9745,
      "duration": 0.0114,
      "velocity": 91,
      "chip": "ym2612"
    },
    {
      "channel": 2,
      "note": 42,
      "start": 12.9966,
      "duration": 0.0097,
      "velocity": 107,
      "chip": "ym2612"
    },
    {
      "channel": 3,
      "note": 71,
      "start": 12.9992,
      "duration": 0.0167,
      "velocity": 91,
      "chip": "ym2612"
    },
    {
      "channel": 4,
      "note": 71,
      "start": 13.0018,
      "duration": 0.0144,
      "velocity": 91,
      "chip": "ym2612"
    },
    {
      "channel": 3,
      "note": 70,
      "start": 13.0264,
      "duration": 0.0114,
      "velocity": 91,
      "chip": "ym2612"
    },
    {
      "channel": 2,
      "note": 39,
      "start": 13.0505,
      "duration": 0.0097,
      "velocity": 107,
      "chip": "ym2612"
    },
    {
      "channel": 3,
      "note": 70,
      "start": 13.0532,
      "duration": 0.0165,
      "velocity": 91,
      "chip": "ym2612"
    },
    {
      "channel": 4,
      "note": 71,
      "start": 13.0558,
      "duration": 0.0142,
      "velocity": 91,
      "chip": "ym2612"
    },
    {
      "channel": 2,
      "note": 39,
      "start": 13.0981,
      "duration": 0.0098,
      "velocity": 107,
      "chip": "ym2612"
    },
    {
      "channel": 3,
      "note": 73,
      "start": 13.1007,
      "duration": 0.0165,
      "velocity": 91,
      "chip": "ym2612"
    },
    {
      "channel": 4,
      "note": 70,
      "start": 13.1033,
      "duration": 0.0143,
      "velocity": 91,
      "chip": "ym2612"
    },
    {
      "channel": 3,
      "note": 66,
      "start": 13.1288,
      "duration": 0.0158,
      "velocity": 91,
      "chip": "ym2612"
    },
    {
      "channel": 4,
      "note": 73,
      "start": 13.1315,
      "duration": 0.0135,
      "velocity": 91,
      "chip": "ym2612"
    },
    {
      "channel": 2,
      "note": 37,
      "start": 13.156,
      "duration": 0.0098,
      "velocity": 107,
      "chip": "ym2612"
    },
    {
      "channel": 3,
      "note": 68,
      "start": 13.1586,
      "duration": 0.0163,
      "velocity": 91,
      "chip": "ym2612"
    },
    {
      "channel": 4,
      "note": 66,
      "start": 13.1612,
      "duration": 0.0141,
      "velocity": 91,
      "chip": "ym2612"
    },
    {
      "channel": 4,
      "note": 68,
      "start": 13.1856,
      "duration": 0.0113,
      "velocity": 91,
      "chip": "ym2612"
    },
    {
      "channel": 2,
      "note": 39,
      "start": 13.2093,
      "duration": 0.0072,
      "velocity": 107,
      "chip": "ym2612"
    },
    {
      "channel": 3,
      "note": 63,
      "start": 13.2119,
      "duration": 0.0133,
      "velocity": 91,
      "chip": "ym2612"
    },
    {
      "channel": 4,
      "note": 63,
      "start": 13.2345,
      "duration": 0.0114,
      "velocity": 91,
      "chip": "ym2612"
    },
    {
      "channel": 2,
      "note": 39,
      "start": 13.2565,
      "duration": 0.0071,
      "velocity": 107,
      "chip": "ym2612"
    },
    {
      "channel": 3,
      "note": 63,
      "start": 13.2591,
      "duration": 0.0133,
      "velocity": 91,
      "chip": "ym2612"
    },
    {
      "channel": 4,
      "note": 63,
      "start": 13.282,
      "duration": 0.0111,
      "velocity": 91,
      "chip": "ym2612"
    },
    {
      "channel": 2,
      "note": 39,
      "start": 13.3028,
      "duration": 0.0056,
      "velocity": 107,
      "chip": "ym2612"
    },
    {
      "channel": 3,
      "note": 66,
      "start": 13.3054,
      "duration": 0.0117,
      "velocity": 91,
      "chip": "ym2612"
    },
    {
      "channel": 3,
      "note": 63,
      "start": 13.327,
      "duration": 0.0384,
      "velocity": 91,
      "chip": "ym2612"
    },
    {
      "channel": 4,
      "note": 66,
      "start": 13.3296,
      "duration": 0.0361,
      "velocity": 91,
      "chip": "ym2612"
    },
    {
      "channel": 2,
      "note": 37,
      "start": 13.408,
      "duration": 0.0072,
      "velocity": 107,
      "chip": "ym2612"
    },
    {
      "channel": 4,
      "note": 63,
      "start": 13.4107,
      "duration": 0.0133,
      "velocity": 91,
      "chip": "ym2612"
    },
    {
      "channel": 3,
      "note": 71,
      "start": 13.4334,
      "duration": 0.0114,
      "velocity": 91,
      "chip": "ym2612"
    },
    {
      "channel": 2,
      "note": 39,
      "start": 13.4554,
      "duration": 0.0098,
      "velocity": 107,
      "chip": "ym2612"
    },
    {
      "channel": 3,
      "note": 71,
      "start": 13.458,
      "duration": 0.0167,
      "velocity": 91,
      "chip": "ym2612"
    },
    {
      "channel": 4,
      "note": 71,
      "start": 13.4606,
      "duration": 0.0144,
      "velocity": 91,
      "chip": "ym2612"
    },
    {
      "channel": 4,
      "note": 71,
      "start": 13.4853,
      "duration": 0.0112,
      "velocity": 91,
      "chip": "ym2612"
    },
    {
      "channel": 2,
      "note": 39,
      "start": 13.5092,
      "duration": 0.0071,
      "velocity": 107,
      "chip": "ym2612"
    },
    {
      "channel": 3,
      "note": 70,
      "start": 13.5118,
      "duration": 0.0132,
      "velocity": 91,
      "chip": "ym2612"
    },
    {
      "channel": 4,
      "note": 70,
      "start": 13.5346,
      "duration": 0.0112,
      "velocity": 91,
      "chip": "ym2612"
    },
    {
      "channel": 2,
      "note": 39,
      "start": 13.5552,
      "duration": 0.0056,
      "velocity": 107,
      "chip": "ym2612"
    },
    {
      "channel": 3,
      "note": 68,
      "start": 13.5578,
      "duration": 0.0117,
      "velocity": 91,
      "chip": "ym2612"
    },
    {
      "channel": 3,
      "note": 66,
      "start": 13.5794,
      "duration": 0.0384,
      "velocity": 91,
      "chip": "ym2612"
    },
    {
      "channel": 4,
      "note": 68,
      "start": 13.582,
      "duration": 0.0361,
      "velocity": 91,
      "chip": "ym2612"
    },
    {
      "channel": 2,
      "note": 37,
      "start": 13.6606,
      "duration": 0.0097,
      "velocity": 107,
      "chip": "ym2612"
    },
    {
      "channel": 3,
      "note": 68,
      "start": 13.6632,
      "duration": 0.0165,
      "velocity": 91,
      "chip": "ym2612"
    },
    {
      "channel": 4,
      "note": 66,
      "start": 13.6658,
      "duration": 0.0142,
      "velocity": 91,
      "chip": "ym2612"
    },
    {
      "channel": 4,
      "note": 68,
      "start": 13.6903,
      "duration": 0.0115,
      "velocity": 91,
      "chip": "ym2612"
    },
    {
      "channel": 2,
      "note": 39,
      "start": 13.7143,
      "duration": 0.0072,
      "velocity": 107,
      "chip": "ym2612"
    },
    {
      "channel": 3,
      "note": 63,
      "start": 13.7169,
      "duration": 0.0133,
      "velocity": 91,
      "chip": "ym2612"
    },
    {
      "channel": 4,
      "note": 63,
      "start": 13.7396,
      "duration": 0.0114,
      "velocity": 91,
      "chip": "ym2612"
    },
    {
      "channel": 2,
      "note": 39,
      "start": 13.7615,
      "duration": 0.0072,
      "velocity": 107,
      "chip": "ym2612"
    },
    {
      "channel": 3,
      "note": 63,
      "start": 13.7641,
      "duration": 0.0133,
      "velocity": 91,
      "chip": "ym2612"
    },
    {
      "channel": 4,
      "note": 63,
      "start": 13.7869,
      "duration": 0.0112,
      "velocity": 91,
      "chip": "ym2612"
    },
    {
      "channel": 2,
      "note": 39,
      "start": 13.8078,
      "duration": 0.0056,
      "velocity": 107,
      "chip": "ym2612"
    },
    {
      "channel": 3,
      "note": 66,
      "start": 13.8104,
      "duration": 0.0122,
      "velocity": 91,
      "chip": "ym2612"
    },
    {
      "channel": 3,
      "note": 70,
      "start": 13.8324,
      "duration": 0.0383,
      "velocity": 91,
      "chip": "ym2612"
    },
    {
      "channel": 4,
      "note": 66,
      "start": 13.8351,
      "duration": 0.036,
      "velocity": 91,
      "chip": "ym2612"
    },
    {
      "channel": 2,
      "note": 44,
      "start": 13.9134,
      "duration": 0.0071,
      "velocity": 107,
      "chip": "ym2612"
    },
    {
      "channel": 4,
      "note": 70,
      "start": 13.9161,
      "duration": 0.0135,
      "velocity": 91,
      "chip": "ym2612"
    },
    {
      "channel": 3,
      "note": 71,
      "start": 13.9388,
      "duration": 0.0114,
      "velocity": 91,
      "chip": "ym2612"
    },
    {
      "channel": 2,
      "note": 44,
      "start": 13.9607,
      "duration": 0.0097,
      "velocity": 107,
      "chip": "ym2612"
    },
    {
      "channel": 3,
      "note": 71,
      "start": 13.9633,
      "duration": 0.0165,
      "velocity": 91,
      "chip": "ym2612"
    },
    {
      "channel": 4,
      "note": 71,
      "start": 13.9659,
      "duration": 0.0142,
      "velocity": 91,
      "chip": "ym2612"
    },
    {
      "channel": 4,
      "note": 71,
      "start": 13.9905,
      "duration": 0.0113,
      "velocity": 91,
      "chip": "ym2612"
    },
    {
      "channel": 2,
      "note": 46,
      "start": 14.0144,
      "duration": 0.0072,
      "velocity": 107,
      "chip": "ym2612"
    },
    {
      "channel": 3,
      "note": 73,
      "start": 14.017,
      "duration": 0.0136,
      "velocity": 91,
      "chip": "ym2612"
    },
    {
      "channel": 4,
      "note": 73,
      "start": 14.04,
      "duration": 0.0115,
      "velocity": 91,
      "chip": "ym2612"
    },
    {
      "channel": 2,
      "note": 46,
      "start": 14.061,
      "duration": 0.0056,
      "velocity": 107,
      "chip": "ym2612"
    },
    {
      "channel": 3,
      "note": 73,
      "start": 14.0636,
      "duration": 0.0118,
      "velocity": 91,
      "chip": "ym2612"
    },
    {
      "channel": 4,
      "note": 73,
      "start": 14.0864,
      "duration": 0.0127,
      "velocity": 91,
      "chip": "ym2612"
    },
    {
      "channel": 0,
      "note": 75,
      "start": 14.1124,
      "duration": 0.045,
      "velocity": 1,
      "chip": "ym2612"
    },
    {
      "channel": 2,
      "note": 37,
      "start": 14.1156,
      "duration": 0.0071,
      "velocity": 107,
      "chip": "ym2612"
    },
    {
      "channel": 3,
      "note": 73,
      "start": 14.1182,
      "duration": 0.0134,
      "velocity": 91,
      "chip": "ym2612"
    },
    {
      "channel": 1,
      "note": 75,
      "start": 14.14,
      "duration": 0.0098,
      "velocity": 91,
      "chip": "ym2612"
    },
    {
      "channel": 0,
      "note": 63,
      "start": 14.1595,
      "duration": 0.0229,
      "velocity": 1,
      "chip": "ym2612"
    },
    {
      "channel": 2,
      "note": 39,
      "start": 14.1624,
      "duration": 0.0068,
      "velocity": 107,
      "chip": "ym2612"
    },
    {
      "channel": 3,
      "note": 63,
      "start": 14.165,
      "duration": 0.0115,
      "velocity": 91,
      "chip": "ym2612"
    },
    {
      "channel": 0,
      "note": 61,
      "start": 14.1845,
      "duration": 0.0194,
      "velocity": 1,
      "chip": "ym2612"
    },
    {
      "channel": 1,
      "note": 63,
      "start": 14.1871,
      "duration": 0.0097,
      "velocity": 91,
      "chip": "ym2612"
    },
    {
      "channel": 0,
      "note": 63,
      "start": 14.2061,
      "duration": 0.0415,
      "velocity": 1,
      "chip": "ym2612"
    },
    {
      "channel": 2,
      "note": 39,
      "start": 14.2089,
      "duration": 0.0068,
      "velocity": 107,
      "chip": "ym2612"
    },
    {
      "channel": 3,
      "note": 63,
      "start": 14.2115,
      "duration": 0.0115,
      "velocity": 91,
      "chip": "ym2612"
    },
    {
      "channel": 1,
      "note": 63,
      "start": 14.231,
      "duration": 0.0098,
      "velocity": 91,
      "chip": "ym2612"
    },
    {
      "channel": 0,
      "note": 66,
      "start": 14.2497,
      "duration": 0.0219,
      "velocity": 1,
      "chip": "ym2612"
    },
    {
      "channel": 2,
      "note": 39,
      "start": 14.2525,
      "duration": 0.0052,
      "velocity": 107,
      "chip": "ym2612"
    },
    {
      "channel": 3,
      "note": 66,
      "start": 14.2551,
      "duration": 0.0101,
      "velocity": 91,
      "chip": "ym2612"
    },
    {
      "channel": 0,
      "note": 63,
      "start": 14.2737,
      "duration": 0.0811,
      "velocity": 1,
      "chip": "ym2612"
    },
    {
      "channel": 1,
      "note": 66,
      "start": 14.2763,
      "duration": 0.038,
      "velocity": 91,
      "chip": "ym2612"
    },
    {
      "channel": 3,
      "note": 63,
      "start": 14.2793,
      "duration": 0.0358,
      "velocity": 91,
      "chip": "ym2612"
    },
    {
      "channel": 0,
      "note": 66,
      "start": 14.3569,
      "duration": 0.0224,
      "velocity": 1,
      "chip": "ym2612"
    },
    {
      "channel": 1,
      "note": 63,
      "start": 14.3595,
      "duration": 0.0139,
      "velocity": 91,
      "chip": "ym2612"
    },
    {
      "channel": 2,
      "note": 37,
      "start": 14.3623,
      "duration": 0.0044,
      "velocity": 107,
      "chip": "ym2612"
    },
    {
      "channel": 0,
      "note": 68,
      "start": 14.3812,
      "duration": 0.0175,
      "velocity": 1,
      "chip": "ym2612"
    },
    {
      "channel": 0,
      "note": 66,
      "start": 14.4009,
      "duration": 0.0445,
      "velocity": 1,
      "chip": "ym2612"
    },
    {
      "channel": 2,
      "note": 39,
      "start": 14.4037,
      "duration": 0.0068,
      "velocity": 107,
      "chip": "ym2612"
    },
    {
      "channel": 3,
      "note": 71,
      "start": 14.4063,
      "duration": 0.0115,
      "velocity": 91,
      "chip": "ym2612"
    },
    {
      "channel": 1,
      "note": 71,
      "start": 14.4258,
      "duration": 0.0097,
      "velocity": 91,
      "chip": "ym2612"
    },
    {
      "channel": 0,
      "note": 63,
      "start": 14.4476,
      "duration": 0.023,
      "velocity": 1,
      "chip": "ym2612"
    },
    {
      "channel": 2,
      "note": 39,
      "start": 14.4504,
      "duration": 0.0068,
      "velocity": 107,
      "chip": "ym2612"
    },
    {
      "channel": 3,
      "note": 70,
      "start": 14.453,
      "duration": 0.0116,
      "velocity": 91,
      "chip": "ym2612"
    },
    {
      "channel": 0,
      "note": 66,
      "start": 14.4726,
      "duration": 0.0191,
      "velocity": 1,
      "chip": "ym2612"
    },
    {
      "channel": 1,
      "note": 70,
      "start": 14.4752,
      "duration": 0.0097,
      "velocity": 91,
      "chip": "ym2612"
    },
    {
      "channel": 0,
      "note": 63,
      "start": 14.4939,
      "duration": 0.1027,
      "velocity": 1,
      "chip": "ym2612"
    },
    {
      "channel": 2,
      "note": 39,
      "start": 14.4967,
      "duration": 0.0052,
      "velocity": 107,
      "chip": "ym2612"
    },
    {
      "channel": 3,
      "note": 68,
      "start": 14.4993,
      "duration": 0.01,
      "velocity": 91,
      "chip": "ym2612"
    },
    {
      "channel": 1,
      "note": 68,
      "start": 14.5179,
      "duration": 0.0381,
      "velocity": 91,
      "chip": "ym2612"
    },
    {
      "channel": 3,
      "note": 66,
      "start": 14.5209,
      "duration": 0.0359,
      "velocity": 91,
      "chip": "ym2612"
    },
    {
      "channel": 0,
      "note": 61,
      "start": 14.5987,
      "duration": 0.0269,
      "velocity": 1,
      "chip": "ym2612"
    },
    {
      "channel": 1,
      "note": 66,
      "start": 14.6013,
      "duration": 0.0171,
      "velocity": 91,
      "chip": "ym2612"
    },
    {
      "channel": 2,
      "note": 37,
      "start": 14.6041,
      "duration": 0.0069,
      "velocity": 107,
      "chip": "ym2612"
    },
    {
      "channel": 3,
      "note": 68,
      "start": 14.6067,
      "duration": 0.0125,
      "velocity": 91,
      "chip": "ym2612"
    },
    {
      "channel": 0,
      "note": 70,
      "start": 14.6278,
      "duration": 0.0217,
      "velocity": 1,
      "chip": "ym2612"
    },
    {
      "channel": 1,
      "note": 68,
      "start": 14.6303,
      "duration": 0.0097,
      "velocity": 91,
      "chip": "ym2612"
    },
    {
      "channel": 0,
      "note": 66,
      "start": 14.6516,
      "duration": 0.0228,
      "velocity": 1,
      "chip": "ym2612"
    },
    {
      "channel": 2,
      "note": 39,
      "start": 14.6545,
      "duration": 0.0068,
      "velocity": 107,
      "chip": "ym2612"
    },
    {
      "channel": 3,
      "note": 63,
      "start": 14.6571,
      "duration": 0.0115,
      "velocity": 91,
      "chip": "ym2612"
    },
    {
      "channel": 0,
      "note": 63,
      "start": 14.6766,
      "duration": 0.0194,
      "velocity": 1,
      "chip": "ym2612"
    },
    {
      "channel": 1,
      "note": 63,
      "start": 14.6792,
      "duration": 0.0097,
      "velocity": 91,
      "chip": "ym2612"
    },
    {
      "channel": 0,
      "note": 61,
      "start": 14.6981,
      "duration": 0.0416,
      "velocity": 1,
      "chip": "ym2612"
    },
    {
      "channel": 2,
      "note": 39,
      "start": 14.701,
      "duration": 0.0068,
      "velocity": 107,
      "chip": "ym2612"
    },
    {
      "channel": 3,
      "note": 63,
      "start": 14.7036,
      "duration": 0.0116,
      "velocity": 91,
      "chip": "ym2612"
    },
    {
      "channel": 1,
      "note": 63,
      "start": 14.7233,
      "duration": 0.0098,
      "velocity": 91,
      "chip": "ym2612"
    },
    {
      "channel": 0,
      "note": 71,
      "start": 14.7419,
      "duration": 0.0219,
      "velocity": 1,
      "chip": "ym2612"
    },
    {
      "channel": 2,
      "note": 39,
      "start": 14.7447,
      "duration": 0.0053,
      "velocity": 107,
      "chip": "ym2612"
    },
    {
      "channel": 3,
      "note": 66,
      "start": 14.7473,
      "duration": 0.0102,
      "velocity": 91,
      "chip": "ym2612"
    },
    {
      "channel": 0,
      "note": 70,
      "start": 14.7659,
      "duration": 0.0809,
      "velocity": 1,
      "chip": "ym2612"
    },
    {
      "channel": 1,
      "note": 66,
      "start": 14.7685,
      "duration": 0.0379,
      "velocity": 91,
      "chip": "ym2612"
    },
    {
      "channel": 3,
      "note": 63,
      "start": 14.7715,
      "duration": 0.0356,
      "velocity": 91,
      "chip": "ym2612"
    },
    {
      "channel": 0,
      "note": 68,
      "start": 14.849,
      "duration": 0.0227,
      "velocity": 1,
      "chip": "ym2612"
    },
    {
      "channel": 1,
      "note": 63,
      "start": 14.8515,
      "duration": 0.0139,
      "velocity": 91,
      "chip": "ym2612"
    },
    {
      "channel": 2,
      "note": 42,
      "start": 14.8543,
      "duration": 0.0043,
      "velocity": 107,
      "chip": "ym2612"
    },
    {
      "channel": 0,
      "note": 66,
      "start": 14.8738,
      "duration": 0.0226,
      "velocity": 1,
      "chip": "ym2612"
    },
    {
      "channel": 3,
      "note": 71,
      "start": 14.877,
      "duration": 0.0099,
      "velocity": 91,
      "chip": "ym2612"
    },
    {
      "channel": 0,
      "note": 68,
      "start": 14.8985,
      "duration": 0.0475,
      "velocity": 1,
      "chip": "ym2612"
    },
    {
      "channel": 1,
      "note": 71,
      "start": 14.9011,
      "duration": 0.0169,
      "velocity": 91,
      "chip": "ym2612"
    },
    {
      "channel": 2,
      "note": 42,
      "start": 14.9039,
      "duration": 0.0069,
      "velocity": 107,
      "chip": "ym2612"
    },
    {
      "channel": 3,
      "note": 71,
      "start": 14.9065,
      "duration": 0.0123,
      "velocity": 91,
      "chip": "ym2612"
    },
    {
      "channel": 3,
      "note": 70,
      "start": 14.9278,
      "duration": 0.0098,
      "velocity": 91,
      "chip": "ym2612"
    },
    {
      "channel": 0,
      "note": 70,
      "start": 14.9481,
      "duration": 0.0986,
      "velocity": 1,
      "chip": "ym2612"
    },
    {
      "channel": 1,
      "note": 71,
      "start": 14.9507,
      "duration": 0.017,
      "velocity": 91,
      "chip": "ym2612"
    },
    {
      "channel": 2,
      "note": 39,
      "start": 14.9534,
      "duration": 0.0069,
      "velocity": 107,
      "chip": "ym2612"
    },
    {
      "channel": 3,
      "note": 70,
      "start": 14.9561,
      "duration": 0.0124,
      "velocity": 91,
      "chip": "ym2612"
    },
    {
      "channel": 1,
      "note": 70,
      "start": 14.992,
      "duration": 0.017,
      "velocity": 91,
      "chip": "ym2612"
    },
    {
      "channel": 2,
      "note": 39,
      "start": 14.9948,
      "duration": 0.0069,
      "velocity": 107,
      "chip": "ym2612"
    },
    {
      "channel": 3,
      "note": 73,
      "start": 14.9974,
      "duration": 0.0124,
      "velocity": 91,
      "chip": "ym2612"
    },
    {
      "channel": 1,
      "note": 73,
      "start": 15.0217,
      "duration": 0.0142,
      "velocity": 91,
      "chip": "ym2612"
    },
    {
      "channel": 3,
      "note": 66,
      "start": 15.0247,
      "duration": 0.012,
      "velocity": 91,
      "chip": "ym2612"
    },
    {
      "channel": 0,
      "note": 63,
      "start": 15.0488,
      "duration": 0.0268,
      "velocity": 1,
      "chip": "ym2612"
    },
    {
      "channel": 1,
      "note": 66,
      "start": 15.0514,
      "duration": 0.0171,
      "velocity": 91,
      "chip": "ym2612"
    },
    {
      "channel": 2,
      "note": 37,
      "start": 15.0542,
      "duration": 0.0069,
      "velocity": 107,
      "chip": "ym2612"
    },
    {
      "channel": 3,
      "note": 68,
      "start": 15.0568,
      "duration": 0.0124,
      "velocity": 91,
      "chip": "ym2612"
    },
    {
      "channel": 0,
      "note": 75,
      "start": 15.0778,
      "duration": 0.0219,
      "velocity": 1,
      "chip": "ym2612"
    },
    {
      "channel": 1,
      "note": 68,
      "start": 15.0804,
      "duration": 0.0099,
      "velocity": 91,
      "chip": "ym2612"
    },
    {
      "channel": 0,
      "note": 73,
      "start": 15.1019,
      "duration": 0.0446,
      "velocity": 1,
      "chip": "ym2612"
    },
    {
      "channel": 2,
      "note": 39,
      "start": 15.1047,
      "duration": 0.0068,
      "velocity": 107,
      "chip": "ym2612"
    },
    {
      "channel": 3,
      "note": 63,
      "start": 15.1073,
      "duration": 0.0116,
      "velocity": 91,
      "chip": "ym2612"
    },
    {
      "channel": 1,
      "note": 63,
      "start": 15.1269,
      "duration": 0.0097,
      "velocity": 91,
      "chip": "ym2612"
    },
    {
      "channel": 0,
      "note": 70,
      "start": 15.1486,
      "duration": 0.023,
      "velocity": 1,
      "chip": "ym2612"
    },
    {
      "channel": 2,
      "note": 39,
      "start": 15.1514,
      "duration": 0.0068,
      "velocity": 107,
      "chip": "ym2612"
    },
    {
      "channel": 3,
      "note": 63,
      "start": 15.154,
      "duration": 0.0116,
      "velocity": 91,
      "chip": "ym2612"
    },
    {
      "channel": 0,
      "note": 73,
      "start": 15.1737,
      "duration": 0.0192,
      "velocity": 1,
      "chip": "ym2612"
    },
    {
      "channel": 1,
      "note": 63,
      "start": 15.1763,
      "duration": 0.0097,
      "velocity": 91,
      "chip": "ym2612"
    },
    {
      "channel": 0,
      "note": 70,
      "start": 15.195,
      "duration": 0.1022,
      "velocity": 1,
      "chip": "ym2612"
    },
    {
      "channel": 2,
      "note": 39,
      "start": 15.1979,
      "duration": 0.0054,
      "velocity": 107,
      "chip": "ym2612"
    },
    {
      "channel": 3,
      "note": 66,
      "start": 15.2005,
      "duration": 0.01,
      "velocity": 91,
      "chip": "ym2612"
    },
    {
      "channel": 1,
      "note": 66,
      "start": 15.2189,
      "duration": 0.0378,
      "velocity": 91,
      "chip": "ym2612"
    },
    {
      "channel": 3,
      "note": 63,
      "start": 15.222,
      "duration": 0.0355,
      "velocity": 91,
      "chip": "ym2612"
    },
    {
      "channel": 0,
      "note": 68,
      "start": 15.2993,
      "duration": 0.0229,
      "velocity": 1,
      "chip": "ym2612"
    },
    {
      "channel": 1,
      "note": 63,
      "start": 15.3019,
      "duration": 0.0139,
      "velocity": 91,
      "chip": "ym2612"
    },
    {
      "channel": 2,
      "note": 37,
      "start": 15.3046,
      "duration": 0.0043,
      "velocity": 107,
      "chip": "ym2612"
    },
    {
      "channel": 0,
      "note": 70,
      "start": 15.3243,
      "duration": 0.0224,
      "velocity": 1,
      "chip": "ym2612"
    },
    {
      "channel": 3,
      "note": 71,
      "start": 15.3274,
      "duration": 0.0099,
      "velocity": 91,
      "chip": "ym2612"
    },
    {
      "channel": 0,
      "note": 68,
      "start": 15.3489,
      "duration": 0.0264,
      "velocity": 1,
      "chip": "ym2612"
    },
    {
      "channel": 1,
      "note": 71,
      "start": 15.3514,
      "duration": 0.0167,
      "velocity": 91,
      "chip": "ym2612"
    },
    {
      "channel": 2,
      "note": 39,
      "start": 15.3542,
      "duration": 0.0069,
      "velocity": 107,
      "chip": "ym2612"
    },
    {
      "channel": 3,
      "note": 71,
      "start": 15.3568,
      "duration": 0.0121,
      "velocity": 91,
      "chip": "ym2612"
    },
    {
      "channel": 0,
      "note": 66,
      "start": 15.3774,
      "duration": 0.0217,
      "velocity": 1,
      "chip": "ym2612"
    },
    {
      "channel": 1,
      "note": 71,
      "start": 15.38,
      "duration": 0.0097,
      "velocity": 91,
      "chip": "ym2612"
    },
    {
      "channel": 0,
      "note": 68,
      "start": 15.4013,
      "duration": 0.0231,
      "velocity": 1,
      "chip": "ym2612"
    },
    {
      "channel": 2,
      "note": 39,
      "start": 15.4041,
      "duration": 0.0068,
      "velocity": 107,
      "chip": "ym2612"
    },
    {
      "channel": 3,
      "note": 70,
      "start": 15.4067,
      "duration": 0.0117,
      "velocity": 91,
      "chip": "ym2612"
    },
    {
      "channel": 0,
      "note": 70,
      "start": 15.4265,
      "duration": 0.0189,
      "velocity": 1,
      "chip": "ym2612"
    },
    {
      "channel": 1,
      "note": 70,
      "start": 15.4291,
      "duration": 0.0096,
      "velocity": 91,
      "chip": "ym2612"
    },
    {
      "channel": 0,
      "note": 66,
      "start": 15.4476,
      "duration": 0.0218,
      "velocity": 1,
      "chip": "ym2612"
    },
    {
      "channel": 2,
      "note": 39,
      "start": 15.4504,
      "duration": 0.0053,
      "velocity": 107,
      "chip": "ym2612"
    },
    {
      "channel": 3,
      "note": 68,
      "start": 15.453,
      "duration": 0.01,
      "velocity": 91,
      "chip": "ym2612"
    },
    {
      "channel": 0,
      "note": 63,
      "start": 15.4715,
      "duration": 0.0787,
      "velocity": 1,
      "chip": "ym2612"
    },
    {
      "channel": 1,
      "note": 68,
      "start": 15.4741,
      "duration": 0.0355,
      "velocity": 91,
      "chip": "ym2612"
    },
    {
      "channel": 3,
      "note": 66,
      "start": 15.4771,
      "duration": 0.0333,
      "velocity": 91,
      "chip": "ym2612"
    },
    {
      "channel": 0,
      "note": 61,
      "start": 15.5524,
      "duration": 0.0265,
      "velocity": 1,
      "chip": "ym2612"
    },
    {
      "channel": 1,
      "note": 66,
      "start": 15.5549,
      "duration": 0.0168,
      "velocity": 91,
      "chip": "ym2612"
    },
    {
      "channel": 2,
      "note": 37,
      "start": 15.5577,
      "duration": 0.0069,
      "velocity": 107,
      "chip": "ym2612"
    },
    {
      "channel": 3,
      "note": 68,
      "start": 15.5603,
      "duration": 0.0121,
      "velocity": 91,
      "chip": "ym2612"
    },
    {
      "channel": 0,
      "note": 63,
      "start": 15.581,
      "duration": 0.0218,
      "velocity": 1,
      "chip": "ym2612"
    },
    {
      "channel": 1,
      "note": 68,
      "start": 15.5835,
      "duration": 0.0097,
      "velocity": 91,
      "chip": "ym2612"
    },
    {
      "channel": 0,
      "note": 61,
      "start": 15.6049,
      "duration": 0.0229,
      "velocity": 1,
      "chip": "ym2612"
    },
    {
      "channel": 2,
      "note": 39,
      "start": 15.6078,
      "duration": 0.0068,
      "velocity": 107,
      "chip": "ym2612"
    },
    {
      "channel": 3,
      "note": 63,
      "start": 15.6104,
      "duration": 0.0115,
      "velocity": 91,
      "chip": "ym2612"
    },
    {
      "channel": 0,
      "note": 58,
      "start": 15.6299,
      "duration": 0.0194,
      "velocity": 1,
      "chip": "ym2612"
    },
    {
      "channel": 1,
      "note": 63,
      "start": 15.6325,
      "duration": 0.0097,
      "velocity": 91,
      "chip": "ym2612"
    },
    {
      "channel": 0,
      "note": 63,
      "start": 15.6515,
      "duration": 0.0228,
      "velocity": 1,
      "chip": "ym2612"
    },
    {
      "channel": 2,
      "note": 39,
      "start": 15.6543,
      "duration": 0.0068,
      "velocity": 107,
      "chip": "ym2612"
    },
    {
      "channel": 3,
      "note": 63,
      "start": 15.6569,
      "duration": 0.0115,
      "velocity": 91,
      "chip": "ym2612"
    },
    {
      "channel": 0,
      "note": 61,
      "start": 15.6763,
      "duration": 0.019,
      "velocity": 1,
      "chip": "ym2612"
    },
    {
      "channel": 1,
      "note": 63,
      "start": 15.6789,
      "duration": 0.0096,
      "velocity": 91,
      "chip": "ym2612"
    },
    {
      "channel": 0,
      "note": 58,
      "start": 15.6974,
      "duration": 0.022,
      "velocity": 1,
      "chip": "ym2612"
    },
    {
      "channel": 2,
      "note": 39,
      "start": 15.7003,
      "duration": 0.0053,
      "velocity": 107,
      "chip": "ym2612"
    },
    {
      "channel": 3,
      "note": 66,
      "start": 15.7029,
      "duration": 0.0101,
      "velocity": 91,
      "chip": "ym2612"
    },
    {
      "channel": 0,
      "note": 63,
      "start": 15.7216,
      "duration": 0.0785,
      "velocity": 1,
      "chip": "ym2612"
    },
    {
      "channel": 1,
      "note": 66,
      "start": 15.7241,
      "duration": 0.0355,
      "velocity": 91,
      "chip": "ym2612"
    },
    {
      "channel": 3,
      "note": 70,
      "start": 15.7272,
      "duration": 0.0332,
      "velocity": 91,
      "chip": "ym2612"
    },
    {
      "channel": 0,
      "note": 61,
      "start": 15.8022,
      "duration": 0.0448,
      "velocity": 1,
      "chip": "ym2612"
    },
    {
      "channel": 1,
      "note": 70,
      "start": 15.8048,
      "duration": 0.0139,
      "velocity": 91,
      "chip": "ym2612"
    },
    {
      "channel": 2,
      "note": 44,
      "start": 15.8076,
      "duration": 0.0043,
      "velocity": 107,
      "chip": "ym2612"
    },
    {
      "channel": 3,
      "note": 71,
      "start": 15.8278,
      "duration": 0.0098,
      "velocity": 91,
      "chip": "ym2612"
    },
    {
      "channel": 0,
      "note": 66,
      "start": 15.8492,
      "duration": 0.0471,
      "velocity": 1,
      "chip": "ym2612"
    },
    {
      "channel": 1,
      "note": 71,
      "start": 15.8518,
      "duration": 0.0169,
      "velocity": 91,
      "chip": "ym2612"
    },
    {
      "channel": 2,
      "note": 44,
      "start": 15.8545,
      "duration": 0.0069,
      "velocity": 107,
      "chip": "ym2612"
    },
    {
      "channel": 3,
      "note": 71,
      "start": 15.8572,
      "duration": 0.0123,
      "velocity": 91,
      "chip": "ym2612"
    },
    {
      "channel": 1,
      "note": 71,
      "start": 15.878,
      "duration": 0.0097,
      "velocity": 91,
      "chip": "ym2612"
    },
    {
      "channel": 0,
      "note": 68,
      "start": 15.8984,
      "duration": 0.0417,
      "velocity": 1,
      "chip": "ym2612"
    },
    {
      "channel": 2,
      "note": 46,
      "start": 15.9012,
      "duration": 0.0069,
      "velocity": 107,
      "chip": "ym2612"
    },
    {
      "channel": 3,
      "note": 73,
      "start": 15.9039,
      "duration": 0.0117,
      "velocity": 91,
      "chip": "ym2612"
    },
    {
      "channel": 1,
      "note": 73,
      "start": 15.9236,
      "duration": 0.0099,
      "velocity": 91,
      "chip": "ym2612"
    },
    {
      "channel": 0,
      "note": 71,
      "start": 15.9423,
      "duration": 0.0464,
      "velocity": 1,
      "chip": "ym2612"
    },
    {
      "channel": 2,
      "note": 46,
      "start": 15.9451,
      "duration": 0.0053,
      "velocity": 107,
      "chip": "ym2612"
    },
    {
      "channel": 3,
      "note": 73,
      "start": 15.9477,
      "duration": 0.01,
      "velocity": 91,
      "chip": "ym2612"
    },
    {
      "channel": 1,
      "note": 73,
      "start": 15.9663,
      "duration": 0.0114,
      "velocity": 91,
      "chip": "ym2612"
    },
    {
      "channel": 0,
      "note": 70,
      "start": 15.9908,
      "duration": 0.023,
      "velocity": 1,
      "chip": "ym2612"
    },
    {
      "channel": 2,
      "note": 37,
      "start": 15.9936,
      "duration": 0.0068,
      "velocity": 107,
      "chip": "ym2612"
    },
    {
      "channel": 3,
      "note": 73,
      "start": 15.9962,
      "duration": 0.0116,
      "velocity": 91,
      "chip": "ym2612"
    },
    {
      "channel": 0,
      "note": 75,
      "start": 16.0159,
      "duration": 0.0222,
      "velocity": 1,
      "chip": "ym2612"
    },
    {
      "channel": 1,
      "note": 73,
      "start": 16.0185,
      "duration": 0.0098,
      "velocity": 91,
      "chip": "ym2612"
    },
    {
      "channel": 0,
      "note": 73,
      "start": 16.0402,
      "duration": 0.0229,
      "velocity": 1,
      "chip": "ym2612"
    },
    {
      "channel": 2,
      "note": 39,
      "start": 16.043,
      "duration": 0.0068,
      "velocity": 107,
      "chip": "ym2612"
    },
    {
      "channel": 3,
      "note": 63,
      "start": 16.0456,
      "duration": 0.0116,
      "velocity": 91,
      "chip": "ym2612"
    },
    {
      "channel": 0,
      "note": 70,
      "start": 16.0652,
      "duration": 0.0221,
      "velocity": 1,
      "chip": "ym2612"
    },
    {
      "channel": 1,
      "note": 63,
      "start": 16.0678,
      "duration": 0.0097,
      "velocity": 91,
      "chip": "ym2612"
    },
    {
      "channel": 0,
      "note": 75,
      "start": 16.0895,
      "duration": 0.023,
      "velocity": 1,
      "chip": "ym2612"
    },
    {
      "channel": 2,
      "note": 39,
      "start": 16.0923,
      "duration": 0.0068,
      "velocity": 107,
      "chip": "ym2612"
    },
    {
      "channel": 3,
      "note": 63,
      "start": 16.0949,
      "duration": 0.0117,
      "velocity": 91,
      "chip": "ym2612"
    },
    {
      "channel": 0,
      "note": 73,
      "start": 16.1146,
      "duration": 0.0192,
      "velocity": 1,
      "chip": "ym2612"
    },
    {
      "channel": 1,
      "note": 63,
      "start": 16.1172,
      "duration": 0.0098,
      "velocity": 91,
      "chip": "ym2612"
    },
    {
      "channel": 0,
      "note": 70,
      "start": 16.136,
      "duration": 0.0218,
      "velocity": 1,
      "chip": "ym2612"
    },
    {
      "channel": 2,
      "note": 39,
      "start": 16.1388,
      "duration": 0.0052,
      "velocity": 107,
      "chip": "ym2612"
    },
    {
      "channel": 3,
      "note": 66,
      "start": 16.1415,
      "duration": 0.0101,
      "velocity": 91,
      "chip": "ym2612"
    },
    {
      "channel": 0,
      "note": 75,
      "start": 16.1599,
      "duration": 0.0783,
      "velocity": 1,
      "chip": "ym2612"
    },
    {
      "channel": 1,
      "note": 66,
      "start": 16.1625,
      "duration": 0.0353,
      "velocity": 91,
      "chip": "ym2612"
    },
    {
      "channel": 3,
      "note": 63,
      "start": 16.1655,
      "duration": 0.0331,
      "velocity": 91,
      "chip": "ym2612"
    },
    {
      "channel": 0,
      "note": 73,
      "start": 16.2404,
      "duration": 0.0225,
      "velocity": 1,
      "chip": "ym2612"
    },
    {
      "channel": 1,
      "note": 63,
      "start": 16.243,
      "duration": 0.0139,
      "velocity": 91,
      "chip": "ym2612"
    },
    {
      "channel": 2,
      "note": 37,
      "start": 16.2458,
      "duration": 0.0043,
      "velocity": 107,
      "chip": "ym2612"
    },
    {
      "channel": 0,
      "note": 70,
      "start": 16.2649,
      "duration": 0.0174,
      "velocity": 1,
      "chip": "ym2612"
    },
    {
      "channel": 0,
      "note": 75,
      "start": 16.2844,
      "duration": 0.023,
      "velocity": 1,
      "chip": "ym2612"
    },
    {
      "channel": 2,
      "note": 39,
      "start": 16.2873,
      "duration": 0.0068,
      "velocity": 107,
      "chip": "ym2612"
    },
    {
      "channel": 3,
      "note": 71,
      "start": 16.2899,
      "duration": 0.0116,
      "velocity": 91,
      "chip": "ym2612"
    },
    {
      "channel": 0,
      "note": 73,
      "start": 16.3096,
      "duration": 0.0222,
      "velocity": 1,
      "chip": "ym2612"
    },
    {
      "channel": 1,
      "note": 71,
      "start": 16.3122,
      "duration": 0.0098,
      "velocity": 91,
      "chip": "ym2612"
    },
    {
      "channel": 0,
      "note": 70,
      "start": 16.3339,
      "duration": 0.0231,
      "velocity": 1,
      "chip": "ym2612"
    },
    {
      "channel": 2,
      "note": 39,
      "start": 16.3367,
      "duration": 0.0068,
      "velocity": 107,
      "chip": "ym2612"
    },
    {
      "channel": 3,
      "note": 70,
      "start": 16.3393,
      "duration": 0.0117,
      "velocity": 91,
      "chip": "ym2612"
    },
    {
      "channel": 0,
      "note": 73,
      "start": 16.3591,
      "duration": 0.0192,
      "velocity": 1,
      "chip": "ym2612"
    },
    {
      "channel": 1,
      "note": 70,
      "start": 16.3617,
      "duration": 0.0099,
      "velocity": 91,
      "chip": "ym2612"
    },
    {
      "channel": 0,
      "note": 70,
      "start": 16.3805,
      "duration": 0.0218,
      "velocity": 1,
      "chip": "ym2612"
    },
    {
      "channel": 2,
      "note": 39,
      "start": 16.3833,
      "duration": 0.0054,
      "velocity": 107,
      "chip": "ym2612"
    },
    {
      "channel": 3,
      "note": 68,
      "start": 16.3859,
      "duration": 0.0102,
      "velocity": 91,
      "chip": "ym2612"
    },
    {
      "channel": 0,
      "note": 68,
      "start": 16.4044,
      "duration": 0.0787,
      "velocity": 1,
      "chip": "ym2612"
    },
    {
      "channel": 1,
      "note": 68,
      "start": 16.407,
      "duration": 0.0355,
      "velocity": 91,
      "chip": "ym2612"
    },
    {
      "channel": 3,
      "note": 66,
      "start": 16.41,
      "duration": 0.0332,
      "velocity": 91,
      "chip": "ym2612"
    },
    {
      "channel": 0,
      "note": 70,
      "start": 16.4852,
      "duration": 0.027,
      "velocity": 1,
      "chip": "ym2612"
    },
    {
      "channel": 1,
      "note": 66,
      "start": 16.4878,
      "duration": 0.0172,
      "velocity": 91,
      "chip": "ym2612"
    },
    {
      "channel": 2,
      "note": 37,
      "start": 16.4905,
      "duration": 0.0069,
      "velocity": 107,
      "chip": "ym2612"
    },
    {
      "channel": 3,
      "note": 68,
      "start": 16.4931,
      "duration": 0.0126,
      "velocity": 91,
      "chip": "ym2612"
    },
    {
      "channel": 0,
      "note": 73,
      "start": 16.5143,
      "duration": 0.0217,
      "velocity": 1,
      "chip": "ym2612"
    },
    {
      "channel": 1,
      "note": 68,
      "start": 16.5169,
      "duration": 0.0098,
      "velocity": 91,
      "chip": "ym2612"
    },
    {
      "channel": 0,
      "note": 70,
      "start": 16.5381,
      "duration": 0.023,
      "velocity": 1,
      "chip": "ym2612"
    },
    {
      "channel": 2,
      "note": 39,
      "start": 16.541,
      "duration": 0.0068,
      "velocity": 107,
      "chip": "ym2612"
    },
    {
      "channel": 3,
      "note": 63,
      "start": 16.5436,
      "duration": 0.0116,
      "velocity": 91,
      "chip": "ym2612"
    },
    {
      "channel": 0,
      "note": 68,
      "start": 16.5632,
      "duration": 0.0224,
      "velocity": 1,
      "chip": "ym2612"
    },
    {
      "channel": 1,
      "note": 63,
      "start": 16.5658,
      "duration": 0.0099,
      "velocity": 91,
      "chip": "ym2612"
    },
    {
      "channel": 0,
      "note": 73,
      "start": 16.5877,
      "duration": 0.0229,
      "velocity": 1,
      "chip": "ym2612"
    },
    {
      "channel": 2,
      "note": 39,
      "start": 16.5906,
      "duration": 0.0068,
      "velocity": 107,
      "chip": "ym2612"
    },
    {
      "channel": 3,
      "note": 63,
      "start": 16.5932,
      "duration": 0.0115,
      "velocity": 91,
      "chip": "ym2612"
    },
    {
      "channel": 0,
      "note": 70,
      "start": 16.6128,
      "duration": 0.0191,
      "velocity": 1,
      "chip": "ym2612"
    },
    {
      "channel": 1,
      "note": 63,
      "start": 16.6154,
      "duration": 0.0097,
      "velocity": 91,
      "chip": "ym2612"
    },
    {
      "channel": 0,
      "note": 68,
      "start": 16.634,
      "duration": 0.0217,
      "velocity": 1,
      "chip": "ym2612"
    },
    {
      "channel": 2,
      "note": 39,
      "start": 16.6368,
      "duration": 0.0053,
      "velocity": 107,
      "chip": "ym2612"
    },
    {
      "channel": 3,
      "note": 66,
      "start": 16.6395,
      "duration": 0.01,
      "velocity": 91,
      "chip": "ym2612"
    },
    {
      "channel": 0,
      "note": 66,
      "start": 16.6578,
      "duration": 0.0785,
      "velocity": 1,
      "chip": "ym2612"
    },
    {
      "channel": 1,
      "note": 66,
      "start": 16.6604,
      "duration": 0.0355,
      "velocity": 91,
      "chip": "ym2612"
    },
    {
      "channel": 3,
      "note": 63,
      "start": 16.6634,
      "duration": 0.0332,
      "velocity": 91,
      "chip": "ym2612"
    },
    {
      "channel": 0,
      "note": 63,
      "start": 16.7385,
      "duration": 0.0227,
      "velocity": 1,
      "chip": "ym2612"
    },
    {
      "channel": 1,
      "note": 63,
      "start": 16.7411,
      "duration": 0.0139,
      "velocity": 91,
      "chip": "ym2612"
    },
    {
      "channel": 2,
      "note": 42,
      "start": 16.7438,
      "duration": 0.0043,
      "velocity": 107,
      "chip": "ym2612"
    },
    {
      "channel": 0,
      "note": 66,
      "start": 16.7634,
      "duration": 0.0225,
      "velocity": 1,
      "chip": "ym2612"
    },
    {
      "channel": 3,
      "note": 71,
      "start": 16.7665,
      "duration": 0.0098,
      "velocity": 91,
      "chip": "ym2612"
    },
    {
      "channel": 0,
      "note": 68,
      "start": 16.788,
      "duration": 0.0269,
      "velocity": 1,
      "chip": "ym2612"
    },
    {
      "channel": 1,
      "note": 71,
      "start": 16.7906,
      "duration": 0.0171,
      "velocity": 91,
      "chip": "ym2612"
    },
    {
      "channel": 2,
      "note": 42,
      "start": 16.7934,
      "duration": 0.0069,
      "velocity": 107,
      "chip": "ym2612"
    },
    {
      "channel": 3,
      "note": 71,
      "start": 16.796,
      "duration": 0.0124,
      "velocity": 91,
      "chip": "ym2612"
    },
    {
      "channel": 0,
      "note": 70,
      "start": 16.817,
      "duration": 0.0217,
      "velocity": 1,
      "chip": "ym2612"
    },
    {
      "channel": 3,
      "note": 70,
      "start": 16.8201,
      "duration": 0.0096,
      "velocity": 91,
      "chip": "ym2612"
    },
    {
      "channel": 0,
      "note": 63,
      "start": 16.8408,
      "duration": 0.0263,
      "velocity": 1,
      "chip": "ym2612"
    },
    {
      "channel": 1,
      "note": 71,
      "start": 16.8434,
      "duration": 0.017,
      "velocity": 91,
      "chip": "ym2612"
    },
    {
      "channel": 2,
      "note": 39,
      "start": 16.8462,
      "duration": 0.0069,
      "velocity": 107,
      "chip": "ym2612"
    },
    {
      "channel": 3,
      "note": 70,
      "start": 16.8488,
      "duration": 0.0124,
      "velocity": 91,
      "chip": "ym2612"
    },
    {
      "channel": 0,
      "note": 61,
      "start": 16.869,
      "duration": 0.0165,
      "velocity": 1,
      "chip": "ym2612"
    },
    {
      "channel": 0,
      "note": 58,
      "start": 16.8876,
      "duration": 0.0271,
      "velocity": 1,
      "chip": "ym2612"
    },
    {
      "channel": 1,
      "note": 70,
      "start": 16.8902,
      "duration": 0.0167,
      "velocity": 91,
      "chip": "ym2612"
    },
    {
      "channel": 2,
      "note": 39,
      "start": 16.893,
      "duration": 0.0069,
      "velocity": 107,
      "chip": "ym2612"
    },
    {
      "channel": 3,
      "note": 73,
      "start": 16.8956,
      "duration": 0.0121,
      "velocity": 91,
      "chip": "ym2612"
    },
    {
      "channel": 0,
      "note": 61,
      "start": 16.9169,
      "duration": 0.0278,
      "velocity": 1,
      "chip": "ym2612"
    },
    {
      "channel": 1,
      "note": 73,
      "start": 16.9195,
      "duration": 0.0142,
      "velocity": 91,
      "chip": "ym2612"
    },
    {
      "channel": 3,
      "note": 66,
      "start": 16.9225,
      "duration": 0.012,
      "velocity": 91,
      "chip": "ym2612"
    },
    {
      "channel": 0,
      "note": 62,
      "start": 16.9468,
      "duration": 0.0265,
      "velocity": 1,
      "chip": "ym2612"
    },
    {
      "channel": 1,
      "note": 66,
      "start": 16.9493,
      "duration": 0.0168,
      "velocity": 91,
      "chip": "ym2612"
    },
    {
      "channel": 2,
      "note": 37,
      "start": 16.9521,
      "duration": 0.0069,
      "velocity": 107,
      "chip": "ym2612"
    },
    {
      "channel": 3,
      "note": 68,
      "start": 16.9547,
      "duration": 0.0122,
      "velocity": 91,
      "chip": "ym2612"
    },
    {
      "channel": 0,
      "note": 63,
      "start": 16.9754,
      "duration": 0.0218,
      "velocity": 1,
      "chip": "ym2612"
    },
    {
      "channel": 1,
      "note": 68,
      "start": 16.978,
      "duration": 0.0097,
      "velocity": 91,
      "chip": "ym2612"
    },
    {
      "channel": 0,
      "note": 66,
      "start": 16.9993,
      "duration": 0.023,
      "velocity": 1,
      "chip": "ym2612"
    },
    {
      "channel": 2,
      "note": 39,
      "start": 17.0022,
      "duration": 0.0068,
      "velocity": 107,
      "chip": "ym2612"
    },
    {
      "channel": 3,
      "note": 63,
      "start": 17.0048,
      "duration": 0.0116,
      "velocity": 91,
      "chip": "ym2612"
    },
    {
      "channel": 0,
      "note": 68,
      "start": 17.0244,
      "duration": 0.0194,
      "velocity": 1,
      "chip": "ym2612"
    },
    {
      "channel": 1,
      "note": 63,
      "start": 17.027,
      "duration": 0.0097,
      "velocity": 91,
      "chip": "ym2612"
    },
    {
      "channel": 0,
      "note": 66,
      "start": 17.046,
      "duration": 0.0228,
      "velocity": 1,
      "chip": "ym2612"
    },
    {
      "channel": 2,
      "note": 39,
      "start": 17.0488,
      "duration": 0.0068,
      "velocity": 107,
      "chip": "ym2612"
    },
    {
      "channel": 3,
      "note": 63,
      "start": 17.0514,
      "duration": 0.0115,
      "velocity": 91,
      "chip": "ym2612"
    },
    {
      "channel": 0,
      "note": 68,
      "start": 17.0709,
      "duration": 0.019,
      "velocity": 1,
      "chip": "ym2612"
    },
    {
      "channel": 1,
      "note": 63,
      "start": 17.0734,
      "duration": 0.0097,
      "velocity": 91,
      "chip": "ym2612"
    },
    {
      "channel": 0,
      "note": 70,
      "start": 17.092,
      "duration": 0.0218,
      "velocity": 1,
      "chip": "ym2612"
    },
    {
      "channel": 2,
      "note": 39,
      "start": 17.0949,
      "duration": 0.0053,
      "velocity": 107,
      "chip": "ym2612"
    },
    {
      "channel": 3,
      "note": 66,
      "start": 17.0975,
      "duration": 0.01,
      "velocity": 91,
      "chip": "ym2612"
    },
    {
      "channel": 0,
      "note": 68,
      "start": 17.1159,
      "duration": 0.0785,
      "velocity": 1,
      "chip": "ym2612"
    },
    {
      "channel": 1,
      "note": 66,
      "start": 17.1185,
      "duration": 0.0354,
      "velocity": 91,
      "chip": "ym2612"
    },
    {
      "channel": 3,
      "note": 63,
      "start": 17.1215,
      "duration": 0.0332,
      "velocity": 91,
      "chip": "ym2612"
    },
    {
      "channel": 0,
      "note": 70,
      "start": 17.1965,
      "duration": 0.0228,
      "velocity": 1,
      "chip": "ym2612"
    },
    {
      "channel": 1,
      "note": 63,
      "start": 17.1991,
      "duration": 0.0139,
      "velocity": 91,
      "chip": "ym2612"
    },
    {
      "channel": 2,
      "note": 37,
      "start": 17.2019,
      "duration": 0.0043,
      "velocity": 107,
      "chip": "ym2612"
    },
    {
      "channel": 0,
      "note": 73,
      "start": 17.2215,
      "duration": 0.0224,
      "velocity": 1,
      "chip": "ym2612"
    },
    {
      "channel": 3,
      "note": 71,
      "start": 17.2246,
      "duration": 0.0099,
      "velocity": 91,
      "chip": "ym2612"
    },
    {
      "channel": 0,
      "note": 70,
      "start": 17.246,
      "duration": 0.0266,
      "velocity": 1,
      "chip": "ym2612"
    },
    {
      "channel": 1,
      "note": 71,
      "start": 17.2486,
      "duration": 0.0168,
      "velocity": 91,
      "chip": "ym2612"
    },
    {
      "channel": 2,
      "note": 39,
      "start": 17.2514,
      "duration": 0.0069,
      "velocity": 107,
      "chip": "ym2612"
    },
    {
      "channel": 3,
      "note": 71,
      "start": 17.254,
      "duration": 0.0122,
      "velocity": 91,
      "chip": "ym2612"
    },
    {
      "channel": 0,
      "note": 73,
      "start": 17.2747,
      "duration": 0.0197,
      "velocity": 1,
      "chip": "ym2612"
    },
    {
      "channel": 1,
      "note": 71,
      "start": 17.2773,
      "duration": 0.0098,
      "velocity": 91,
      "chip": "ym2612"
    },
    {
      "channel": 0,
      "note": 75,
      "start": 17.2966,
      "duration": 0.023,
      "velocity": 1,
      "chip": "ym2612"
    },
    {
      "channel": 2,
      "note": 39,
      "start": 17.2994,
      "duration": 0.0068,
      "velocity": 107,
      "chip": "ym2612"
    },
    {
      "channel": 3,
      "note": 70,
      "start": 17.302,
      "duration": 0.0116,
      "velocity": 91,
      "chip": "ym2612"
    },
    {
      "channel": 0,
      "note": 78,
      "start": 17.3216,
      "duration": 0.0213,
      "velocity": 1,
      "chip": "ym2612"
    },
    {
      "channel": 1,
      "note": 70,
      "start": 17.3242,
      "duration": 0.0099,
      "velocity": 91,
      "chip": "ym2612"
    },
    {
      "channel": 0,
      "note": 75,
      "start": 17.3451,
      "duration": 0.022,
      "velocity": 1,
      "chip": "ym2612"
    },
    {
      "channel": 2,
      "note": 39,
      "start": 17.3479,
      "duration": 0.0053,
      "velocity": 107,
      "chip": "ym2612"
    },
    {
      "channel": 3,
      "note": 68,
      "start": 17.3505,
      "duration": 0.0101,
      "velocity": 91,
      "chip": "ym2612"
    },
    {
      "channel": 0,
      "note": 73,
      "start": 17.3691,
      "duration": 0.0786,
      "velocity": 1,
      "chip": "ym2612"
    },
    {
      "channel": 1,
      "note": 68,
      "start": 17.3717,
      "duration": 0.0354,
      "velocity": 91,
      "chip": "ym2612"
    },
    {
      "channel": 3,
      "note": 66,
      "start": 17.3748,
      "duration": 0.0332,
      "velocity": 91,
      "chip": "ym2612"
    },
    {
      "channel": 0,
      "note": 70,
      "start": 17.4499,
      "duration": 0.027,
      "velocity": 1,
      "chip": "ym2612"
    },
    {
      "channel": 1,
      "note": 66,
      "start": 17.4524,
      "duration": 0.0172,
      "velocity": 91,
      "chip": "ym2612"
    },
    {
      "channel": 2,
      "note": 37,
      "start": 17.4552,
      "duration": 0.0069,
      "velocity": 107,
      "chip": "ym2612"
    },
    {
      "channel": 3,
      "note": 68,
      "start": 17.4578,
      "duration": 0.0125,
      "velocity": 91,
      "chip": "ym2612"
    },
    {
      "channel": 0,
      "note": 73,
      "start": 17.479,
      "duration": 0.0217,
      "velocity": 1,
      "chip": "ym2612"
    },
    {
      "channel": 1,
      "note": 68,
      "start": 17.4815,
      "duration": 0.0098,
      "velocity": 91,
      "chip": "ym2612"
    },
    {
      "channel": 0,
      "note": 70,
      "start": 17.5028,
      "duration": 0.0229,
      "velocity": 1,
      "chip": "ym2612"
    },
    {
      "channel": 2,
      "note": 39,
      "start": 17.5057,
      "duration": 0.0068,
      "velocity": 107,
      "chip": "ym2612"
    },
    {
      "channel": 3,
      "note": 63,
      "start": 17.5083,
      "duration": 0.0116,
      "velocity": 91,
      "chip": "ym2612"
    },
    {
      "channel": 0,
      "note": 68,
      "start": 17.5279,
      "duration": 0.0223,
      "velocity": 1,
      "chip": "ym2612"
    },
    {
      "channel": 1,
      "note": 63,
      "start": 17.5305,
      "duration": 0.0099,
      "velocity": 91,
      "chip": "ym2612"
    },
    {
      "channel": 0,
      "note": 70,
      "start": 17.5524,
      "duration": 0.0229,
      "velocity": 1,
      "chip": "ym2612"
    },
    {
      "channel": 2,
      "note": 39,
      "start": 17.5552,
      "duration": 0.0068,
      "velocity": 107,
      "chip": "ym2612"
    },
    {
      "channel": 3,
      "note": 63,
      "start": 17.5578,
      "duration": 0.0116,
      "velocity": 91,
      "chip": "ym2612"
    },
    {
      "channel": 0,
      "note": 68,
      "start": 17.5774,
      "duration": 0.0192,
      "velocity": 1,
      "chip": "ym2612"
    },
    {
      "channel": 1,
      "note": 63,
      "start": 17.58,
      "duration": 0.0098,
      "velocity": 91,
      "chip": "ym2612"
    },
    {
      "channel": 0,
      "note": 66,
      "start": 17.5987,
      "duration": 0.0219,
      "velocity": 1,
      "chip": "ym2612"
    },
    {
      "channel": 2,
      "note": 39,
      "start": 17.6016,
      "duration": 0.0053,
      "velocity": 107,
      "chip": "ym2612"
    },
    {
      "channel": 3,
      "note": 66,
      "start": 17.6042,
      "duration": 0.0101,
      "velocity": 91,
      "chip": "ym2612"
    },
    {
      "channel": 0,
      "note": 68,
      "start": 17.6227,
      "duration": 0.0784,
      "velocity": 1,
      "chip": "ym2612"
    },
    {
      "channel": 1,
      "note": 66,
      "start": 17.6253,
      "duration": 0.0354,
      "velocity": 91,
      "chip": "ym2612"
    },
    {
      "channel": 3,
      "note": 70,
      "start": 17.6283,
      "duration": 0.0332,
      "velocity": 91,
      "chip": "ym2612"
    },
    {
      "channel": 0,
      "note": 66,
      "start": 17.7033,
      "duration": 0.0228,
      "velocity": 1,
      "chip": "ym2612"
    },
    {
      "channel": 1,
      "note": 70,
      "start": 17.7059,
      "duration": 0.0138,
      "velocity": 91,
      "chip": "ym2612"
    },
    {
      "channel": 2,
      "note": 44,
      "start": 17.7087,
      "duration": 0.0043,
      "velocity": 107,
      "chip": "ym2612"
    },
    {
      "channel": 0,
      "note": 63,
      "start": 17.7282,
      "duration": 0.0225,
      "velocity": 1,
      "chip": "ym2612"
    },
    {
      "channel": 3,
      "note": 71,
      "start": 17.7313,
      "duration": 0.0097,
      "velocity": 91,
      "chip": "ym2612"
    },
    {
      "channel": 0,
      "note": 66,
      "start": 17.7528,
      "duration": 0.0266,
      "velocity": 1,
      "chip": "ym2612"
    },
    {
      "channel": 1,
      "note": 71,
      "start": 17.7554,
      "duration": 0.0168,
      "velocity": 91,
      "chip": "ym2612"
    },
    {
      "channel": 2,
      "note": 44,
      "start": 17.7582,
      "duration": 0.007,
      "velocity": 107,
      "chip": "ym2612"
    },
    {
      "channel": 3,
      "note": 71,
      "start": 17.7608,
      "duration": 0.0122,
      "velocity": 91,
      "chip": "ym2612"
    },
    {
      "channel": 0,
      "note": 68,
      "start": 17.7815,
      "duration": 0.0196,
      "velocity": 1,
      "chip": "ym2612"
    },
    {
      "channel": 1,
      "note": 71,
      "start": 17.7841,
      "duration": 0.0098,
      "velocity": 91,
      "chip": "ym2612"
    },
    {
      "channel": 0,
      "note": 70,
      "start": 17.8033,
      "duration": 0.0231,
      "velocity": 1,
      "chip": "ym2612"
    },
    {
      "channel": 2,
      "note": 46,
      "start": 17.8061,
      "duration": 0.0069,
      "velocity": 107,
      "chip": "ym2612"
    },
    {
      "channel": 3,
      "note": 73,
      "start": 17.8088,
      "duration": 0.0117,
      "velocity": 91,
      "chip": "ym2612"
    },
    {
      "channel": 0,
      "note": 71,
      "start": 17.8285,
      "duration": 0.0214,
      "velocity": 1,
      "chip": "ym2612"
    },
    {
      "channel": 1,
      "note": 73,
      "start": 17.8311,
      "duration": 0.0098,
      "velocity": 91,
      "chip": "ym2612"
    },
    {
      "channel": 0,
      "note": 70,
      "start": 17.852,
      "duration": 0.022,
      "velocity": 1,
      "chip": "ym2612"
    },
    {
      "channel": 2,
      "note": 46,
      "start": 17.8549,
      "duration": 0.0052,
      "velocity": 107,
      "chip": "ym2612"
    },
    {
      "channel": 3,
      "note": 73,
      "start": 17.8575,
      "duration": 0.0101,
      "velocity": 91,
      "chip": "ym2612"
    },
    {
      "channel": 0,
      "note": 68,
      "start": 17.8762,
      "duration": 0.0252,
      "velocity": 1,
      "chip": "ym2612"
    },
    {
      "channel": 1,
      "note": 73,
      "start": 17.8788,
      "duration": 0.0112,
      "velocity": 91,
      "chip": "ym2612"
    },
    {
      "channel": 0,
      "note": 70,
      "start": 17.9035,
      "duration": 0.2361,
      "velocity": 106,
      "chip": "ym2612"
    },
    {
      "channel": 2,
      "note": 37,
      "start": 17.9064,
      "duration": 0.0067,
      "velocity": 107,
      "chip": "ym2612"
    },
    {
      "channel": 3,
      "note": 73,
      "start": 17.909,
      "duration": 0.0115,
      "velocity": 91,
      "chip": "ym2612"
    },
    {
      "channel": 1,
      "note": 73,
      "start": 17.9286,
      "duration": 0.0096,
      "velocity": 91,
      "chip": "ym2612"
    },
    {
      "channel": 2,
      "note": 39,
      "start": 17.9476,
      "duration": 0.0067,
      "velocity": 107,
      "chip": "ym2612"
    },
    {
      "channel": 3,
      "note": 63,
      "start": 17.9503,
      "duration": 0.0114,
      "velocity": 91,
      "chip": "ym2612"
    },
    {
      "channel": 1,
      "note": 63,
      "start": 17.9696,
      "duration": 0.0097,
      "velocity": 91,
      "chip": "ym2612"
    },
    {
      "channel": 2,
      "note": 39,
      "start": 17.9917,
      "duration": 0.0067,
      "velocity": 107,
      "chip": "ym2612"
    },
    {
      "channel": 3,
      "note": 63,
      "start": 17.9944,
      "duration": 0.0116,
      "velocity": 91,
      "chip": "ym2612"
    },
    {
      "channel": 1,
      "note": 63,
      "start": 18.0139,
      "duration": 0.0098,
      "velocity": 91,
      "chip": "ym2612"
    },
    {
      "channel": 2,
      "note": 39,
      "start": 18.0327,
      "duration": 0.0054,
      "velocity": 107,
      "chip": "ym2612"
    },
    {
      "channel": 3,
      "note": 66,
      "start": 18.0353,
      "duration": 0.0101,
      "velocity": 91,
      "chip": "ym2612"
    },
    {
      "channel": 1,
      "note": 66,
      "start": 18.0539,
      "duration": 0.0455,
      "velocity": 91,
      "chip": "ym2612"
    },
    {
      "channel": 3,
      "note": 63,
      "start": 18.0569,
      "duration": 0.0432,
      "velocity": 91,
      "chip": "ym2612"
    },
    {
      "channel": 1,
      "note": 63,
      "start": 18.1424,
      "duration": 0.0139,
      "velocity": 91,
      "chip": "ym2612"
    },
    {
      "channel": 2,
      "note": 37,
      "start": 18.1451,
      "duration": 0.0043,
      "velocity": 107,
      "chip": "ym2612"
    },
    {
      "channel": 2,
      "note": 39,
      "start": 18.1798,
      "duration": 0.0067,
      "velocity": 107,
      "chip": "ym2612"
    },
    {
      "channel": 3,
      "note": 71,
      "start": 18.1824,
      "duration": 0.0116,
      "velocity": 91,
      "chip": "ym2612"
    },
    {
      "channel": 1,
      "note": 71,
      "start": 18.2021,
      "duration": 0.0096,
      "velocity": 91,
      "chip": "ym2612"
    },
    {
      "channel": 2,
      "note": 39,
      "start": 18.2239,
      "duration": 0.0068,
      "velocity": 107,
      "chip": "ym2612"
    },
    {
      "channel": 3,
      "note": 70,
      "start": 18.2265,
      "duration": 0.0116,
      "velocity": 91,
      "chip": "ym2612"
    },
    {
      "channel": 1,
      "note": 70,
      "start": 18.246,
      "duration": 0.0097,
      "velocity": 91,
      "chip": "ym2612"
    },
    {
      "channel": 2,
      "note": 39,
      "start": 18.2648,
      "duration": 0.0052,
      "velocity": 107,
      "chip": "ym2612"
    },
    {
      "channel": 3,
      "note": 68,
      "start": 18.2674,
      "duration": 0.01,
      "velocity": 91,
      "chip": "ym2612"
    },
    {
      "channel": 1,
      "note": 68,
      "start": 18.2859,
      "duration": 0.0458,
      "velocity": 91,
      "chip": "ym2612"
    },
    {
      "channel": 3,
      "note": 66,
      "start": 18.2889,
      "duration": 0.0436,
      "velocity": 91,
      "chip": "ym2612"
    },
    {
      "channel": 1,
      "note": 66,
      "start": 18.3746,
      "duration": 0.017,
      "velocity": 91,
      "chip": "ym2612"
    },
    {
      "channel": 2,
      "note": 37,
      "start": 18.3774,
      "duration": 0.0068,
      "velocity": 107,
      "chip": "ym2612"
    },
    {
      "channel": 3,
      "note": 68,
      "start": 18.38,
      "duration": 0.0124,
      "velocity": 91,
      "chip": "ym2612"
    },
    {
      "channel": 1,
      "note": 68,
      "start": 18.4009,
      "duration": 0.0097,
      "velocity": 91,
      "chip": "ym2612"
    },
    {
      "channel": 2,
      "note": 39,
      "start": 18.4217,
      "duration": 0.0067,
      "velocity": 107,
      "chip": "ym2612"
    },
    {
      "channel": 3,
      "note": 63,
      "start": 18.4243,
      "duration": 0.0116,
      "velocity": 91,
      "chip": "ym2612"
    },
    {
      "channel": 1,
      "note": 63,
      "start": 18.4437,
      "duration": 0.0096,
      "velocity": 91,
      "chip": "ym2612"
    },
    {
      "channel": 2,
      "note": 39,
      "start": 18.4655,
      "duration": 0.0068,
      "velocity": 107,
      "chip": "ym2612"
    },
    {
      "channel": 3,
      "note": 63,
      "start": 18.4681,
      "duration": 0.0117,
      "velocity": 91,
      "chip": "ym2612"
    },
    {
      "channel": 1,
      "note": 63,
      "start": 18.4879,
      "duration": 0.0097,
      "velocity": 91,
      "chip": "ym2612"
    },
    {
      "channel": 2,
      "note": 39,
      "start": 18.5068,
      "duration": 0.0053,
      "velocity": 107,
      "chip": "ym2612"
    },
    {
      "channel": 3,
      "note": 66,
      "start": 18.5094,
      "duration": 0.0101,
      "velocity": 91,
      "chip": "ym2612"
    },
    {
      "channel": 1,
      "note": 66,
      "start": 18.5279,
      "duration": 0.0456,
      "velocity": 91,
      "chip": "ym2612"
    },
    {
      "channel": 3,
      "note": 63,
      "start": 18.5309,
      "duration": 0.0434,
      "velocity": 91,
      "chip": "ym2612"
    },
    {
      "channel": 1,
      "note": 63,
      "start": 18.6164,
      "duration": 0.0139,
      "velocity": 91,
      "chip": "ym2612"
    },
    {
      "channel": 2,
      "note": 42,
      "start": 18.6191,
      "duration": 0.0043,
      "velocity": 107,
      "chip": "ym2612"
    },
    {
      "channel": 3,
      "note": 71,
      "start": 18.6393,
      "duration": 0.0098,
      "velocity": 91,
      "chip": "ym2612"
    },
    {
      "channel": 1,
      "note": 71,
      "start": 18.6606,
      "duration": 0.017,
      "velocity": 91,
      "chip": "ym2612"
    },
    {
      "channel": 2,
      "note": 42,
      "start": 18.6634,
      "duration": 0.0069,
      "velocity": 107,
      "chip": "ym2612"
    },
    {
      "channel": 3,
      "note": 71,
      "start": 18.666,
      "duration": 0.0124,
      "velocity": 91,
      "chip": "ym2612"
    },
    {
      "channel": 3,
      "note": 70,
      "start": 18.6873,
      "duration": 0.0098,
      "velocity": 91,
      "chip": "ym2612"
    },
    {
      "channel": 1,
      "note": 71,
      "start": 18.7074,
      "duration": 0.0171,
      "velocity": 91,
      "chip": "ym2612"
    },
    {
      "channel": 2,
      "note": 39,
      "start": 18.7102,
      "duration": 0.007,
      "velocity": 107,
      "chip": "ym2612"
    },
    {
      "channel": 3,
      "note": 70,
      "start": 18.7128,
      "duration": 0.0125,
      "velocity": 91,
      "chip": "ym2612"
    },
    {
      "channel": 1,
      "note": 70,
      "start": 18.7516,
      "duration": 0.0169,
      "velocity": 91,
      "chip": "ym2612"
    },
    {
      "channel": 2,
      "note": 39,
      "start": 18.7544,
      "duration": 0.0068,
      "velocity": 107,
      "chip": "ym2612"
    },
    {
      "channel": 3,
      "note": 73,
      "start": 18.757,
      "duration": 0.0123,
      "velocity": 91,
      "chip": "ym2612"
    },
    {
      "channel": 1,
      "note": 73,
      "start": 18.7785,
      "duration": 0.0142,
      "velocity": 91,
      "chip": "ym2612"
    },
    {
      "channel": 3,
      "note": 66,
      "start": 18.7815,
      "duration": 0.0119,
      "velocity": 91,
      "chip": "ym2612"
    },
    {
      "channel": 1,
      "note": 66,
      "start": 18.8058,
      "duration": 0.0168,
      "velocity": 91,
      "chip": "ym2612"
    },
    {
      "channel": 2,
      "note": 37,
      "start": 18.8085,
      "duration": 0.0068,
      "velocity": 107,
      "chip": "ym2612"
    },
    {
      "channel": 3,
      "note": 68,
      "start": 18.8112,
      "duration": 0.0122,
      "velocity": 91,
      "chip": "ym2612"
    },
    {
      "channel": 1,
      "note": 68,
      "start": 18.8318,
      "duration": 0.0099,
      "velocity": 91,
      "chip": "ym2612"
    },
    {
      "channel": 2,
      "note": 39,
      "start": 18.8527,
      "duration": 0.0067,
      "velocity": 107,
      "chip": "ym2612"
    },
    {
      "channel": 3,
      "note": 63,
      "start": 18.8553,
      "duration": 0.0115,
      "velocity": 91,
      "chip": "ym2612"
    },
    {
      "channel": 1,
      "note": 63,
      "start": 18.8748,
      "duration": 0.0098,
      "velocity": 91,
      "chip": "ym2612"
    },
    {
      "channel": 2,
      "note": 39,
      "start": 18.8968,
      "duration": 0.0068,
      "velocity": 107,
      "chip": "ym2612"
    },
    {
      "channel": 3,
      "note": 63,
      "start": 18.8994,
      "duration": 0.0115,
      "velocity": 91,
      "chip": "ym2612"
    },
    {
      "channel": 1,
      "note": 63,
      "start": 18.919,
      "duration": 0.0098,
      "velocity": 91,
      "chip": "ym2612"
    },
    {
      "channel": 2,
      "note": 39,
      "start": 18.9379,
      "duration": 0.0053,
      "velocity": 107,
      "chip": "ym2612"
    },
    {
      "channel": 3,
      "note": 66,
      "start": 18.9405,
      "duration": 0.01,
      "velocity": 91,
      "chip": "ym2612"
    },
    {
      "channel": 1,
      "note": 66,
      "start": 18.9589,
      "duration": 0.0456,
      "velocity": 91,
      "chip": "ym2612"
    },
    {
      "channel": 3,
      "note": 63,
      "start": 18.9619,
      "duration": 0.0433,
      "velocity": 91,
      "chip": "ym2612"
    },
    {
      "channel": 1,
      "note": 63,
      "start": 19.0473,
      "duration": 0.0139,
      "velocity": 91,
      "chip": "ym2612"
    },
    {
      "channel": 2,
      "note": 37,
      "start": 19.0501,
      "duration": 0.0043,
      "velocity": 107,
      "chip": "ym2612"
    },
    {
      "channel": 3,
      "note": 71,
      "start": 19.0702,
      "duration": 0.0098,
      "velocity": 91,
      "chip": "ym2612"
    },
    {
      "channel": 1,
      "note": 71,
      "start": 19.0914,
      "duration": 0.0171,
      "velocity": 91,
      "chip": "ym2612"
    },
    {
      "channel": 2,
      "note": 39,
      "start": 19.0942,
      "duration": 0.0068,
      "velocity": 107,
      "chip": "ym2612"
    },
    {
      "channel": 3,
      "note": 71,
      "start": 19.0968,
      "duration": 0.0124,
      "velocity": 91,
      "chip": "ym2612"
    },
    {
      "channel": 1,
      "note": 71,
      "start": 19.1177,
      "duration": 0.0096,
      "velocity": 91,
      "chip": "ym2612"
    },
    {
      "channel": 2,
      "note": 39,
      "start": 19.1386,
      "duration": 0.0068,
      "velocity": 107,
      "chip": "ym2612"
    },
    {
      "channel": 3,
      "note": 70,
      "start": 19.1412,
      "duration": 0.0116,
      "velocity": 91,
      "chip": "ym2612"
    },
    {
      "channel": 1,
      "note": 70,
      "start": 19.1607,
      "duration": 0.0098,
      "velocity": 91,
      "chip": "ym2612"
    },
    {
      "channel": 2,
      "note": 39,
      "start": 19.1796,
      "duration": 0.0053,
      "velocity": 107,
      "chip": "ym2612"
    },
    {
      "channel": 3,
      "note": 68,
      "start": 19.1822,
      "duration": 0.01,
      "velocity": 91,
      "chip": "ym2612"
    },
    {
      "channel": 1,
      "note": 68,
      "start": 19.2007,
      "duration": 0.0457,
      "velocity": 91,
      "chip": "ym2612"
    },
    {
      "channel": 3,
      "note": 66,
      "start": 19.2037,
      "duration": 0.0434,
      "velocity": 91,
      "chip": "ym2612"
    },
    {
      "channel": 1,
      "note": 66,
      "start": 19.2893,
      "duration": 0.0167,
      "velocity": 91,
      "chip": "ym2612"
    },
    {
      "channel": 2,
      "note": 37,
      "start": 19.292,
      "duration": 0.0068,
      "velocity": 107,
      "chip": "ym2612"
    },
    {
      "channel": 3,
      "note": 68,
      "start": 19.2946,
      "duration": 0.0121,
      "velocity": 91,
      "chip": "ym2612"
    },
    {
      "channel": 1,
      "note": 68,
      "start": 19.3152,
      "duration": 0.0099,
      "velocity": 91,
      "chip": "ym2612"
    },
    {
      "channel": 2,
      "note": 39,
      "start": 19.3361,
      "duration": 0.0067,
      "velocity": 107,
      "chip": "ym2612"
    },
    {
      "channel": 3,
      "note": 63,
      "start": 19.3387,
      "duration": 0.0115,
      "velocity": 91,
      "chip": "ym2612"
    },
    {
      "channel": 1,
      "note": 63,
      "start": 19.3583,
      "duration": 0.0098,
      "velocity": 91,
      "chip": "ym2612"
    },
    {
      "channel": 2,
      "note": 39,
      "start": 19.3803,
      "duration": 0.0067,
      "velocity": 107,
      "chip": "ym2612"
    },
    {
      "channel": 3,
      "note": 63,
      "start": 19.3829,
      "duration": 0.0115,
      "velocity": 91,
      "chip": "ym2612"
    },
    {
      "channel": 1,
      "note": 63,
      "start": 19.4023,
      "duration": 0.0098,
      "velocity": 91,
      "chip": "ym2612"
    },
    {
      "channel": 2,
      "note": 39,
      "start": 19.4213,
      "duration": 0.0053,
      "velocity": 107,
      "chip": "ym2612"
    },
    {
      "channel": 3,
      "note": 66,
      "start": 19.4239,
      "duration": 0.0102,
      "velocity": 91,
      "chip": "ym2612"
    },
    {
      "channel": 1,
      "note": 66,
      "start": 19.4425,
      "duration": 0.0456,
      "velocity": 91,
      "chip": "ym2612"
    },
    {
      "channel": 3,
      "note": 70,
      "start": 19.4456,
      "duration": 0.0434,
      "velocity": 91,
      "chip": "ym2612"
    },
    {
      "channel": 1,
      "note": 70,
      "start": 19.531,
      "duration": 0.014,
      "velocity": 91,
      "chip": "ym2612"
    },
    {
      "channel": 2,
      "note": 44,
      "start": 19.5338,
      "duration": 0.0044,
      "velocity": 107,
      "chip": "ym2612"
    },
    {
      "channel": 3,
      "note": 71,
      "start": 19.5541,
      "duration": 0.0099,
      "velocity": 91,
      "chip": "ym2612"
    },
    {
      "channel": 1,
      "note": 71,
      "start": 19.5753,
      "duration": 0.0171,
      "velocity": 91,
      "chip": "ym2612"
    },
    {
      "channel": 2,
      "note": 44,
      "start": 19.578,
      "duration": 0.0068,
      "velocity": 107,
      "chip": "ym2612"
    },
    {
      "channel": 3,
      "note": 71,
      "start": 19.5807,
      "duration": 0.0124,
      "velocity": 91,
      "chip": "ym2612"
    },
    {
      "channel": 1,
      "note": 71,
      "start": 19.6016,
      "duration": 0.0099,
      "velocity": 91,
      "chip": "ym2612"
    },
    {
      "channel": 2,
      "note": 46,
      "start": 19.6224,
      "duration": 0.0068,
      "velocity": 107,
      "chip": "ym2612"
    },
    {
      "channel": 3,
      "note": 73,
      "start": 19.625,
      "duration": 0.0116,
      "velocity": 91,
      "chip": "ym2612"
    },
    {
      "channel": 1,
      "note": 73,
      "start": 19.6446,
      "duration": 0.0096,
      "velocity": 91,
      "chip": "ym2612"
    },
    {
      "channel": 2,
      "note": 46,
      "start": 19.6633,
      "duration": 0.0053,
      "velocity": 107,
      "chip": "ym2612"
    },
    {
      "channel": 3,
      "note": 73,
      "start": 19.6659,
      "duration": 0.0102,
      "velocity": 91,
      "chip": "ym2612"
    },
    {
      "channel": 1,
      "note": 73,
      "start": 19.6847,
      "duration": 0.0112,
      "velocity": 91,
      "chip": "ym2612"
    },
    {
      "channel": 0,
      "note": 63,
      "start": 19.7089,
      "duration": 0.3451,
      "velocity": 106,
      "chip": "ym2612"
    },
    {
      "channel": 3,
      "note": 73,
      "start": 19.712,
      "duration": 0.0112,
      "velocity": 91,
      "chip": "ym2612"
    },
    {
      "channel": 2,
      "note": 37,
      "start": 19.7306,
      "duration": 0.0083,
      "velocity": 91,
      "chip": "ym2612"
    },
    {
      "channel": 1,
      "note": 73,
      "start": 19.7498,
      "duration": 0.3384,
      "velocity": 106,
      "chip": "ym2612"
    },
    {
      "channel": 3,
      "note": 63,
      "start": 19.7525,
      "duration": 0.0113,
      "velocity": 91,
      "chip": "ym2612"
    },
    {
      "channel": 2,
      "note": 63,
      "start": 19.7723,
      "duration": 0.0098,
      "velocity": 91,
      "chip": "ym2612"
    },
    {
      "channel": 3,
      "note": 63,
      "start": 19.791,
      "duration": 0.01,
      "velocity": 91,
      "chip": "ym2612"
    },
    {
      "channel": 2,
      "note": 63,
      "start": 19.8095,
      "duration": 0.0097,
      "velocity": 91,
      "chip": "ym2612"
    },
    {
      "channel": 3,
      "note": 66,
      "start": 19.828,
      "duration": 0.0667,
      "velocity": 91,
      "chip": "ym2612"
    },
    {
      "channel": 2,
      "note": 66,
      "start": 19.9373,
      "duration": 0.077,
      "velocity": 91,
      "chip": "ym2612"
    },
    {
      "channel": 3,
      "note": 63,
      "start": 19.9399,
      "duration": 0.0748,
      "velocity": 91,
      "chip": "ym2612"
    },
    {
      "channel": 2,
      "note": 63,
      "start": 20.0571,
      "duration": 0.0114,
      "velocity": 91,
      "chip": "ym2612"
    },
    {
      "channel": 3,
      "note": 71,
      "start": 20.0911,
      "duration": 0.0115,
      "velocity": 91,
      "chip": "ym2612"
    },
    {
      "channel": 2,
      "note": 71,
      "start": 20.111,
      "duration": 0.0098,
      "velocity": 91,
      "chip": "ym2612"
    },
    {
      "channel": 3,
      "note": 70,
      "start": 20.1295,
      "duration": 0.0098,
      "velocity": 91,
      "chip": "ym2612"
    },
    {
      "channel": 2,
      "note": 70,
      "start": 20.1478,
      "duration": 0.0098,
      "velocity": 91,
      "chip": "ym2612"
    },
    {
      "channel": 3,
      "note": 68,
      "start": 20.1662,
      "duration": 0.0692,
      "velocity": 91,
      "chip": "ym2612"
    },
    {
      "channel": 2,
      "note": 68,
      "start": 20.278,
      "duration": 0.077,
      "velocity": 91,
      "chip": "ym2612"
    },
    {
      "channel": 3,
      "note": 66,
      "start": 20.2806,
      "duration": 0.0747,
      "velocity": 91,
      "chip": "ym2612"
    },
    {
      "channel": 2,
      "note": 66,
      "start": 20.3978,
      "duration": 0.0144,
      "velocity": 91,
      "chip": "ym2612"
    },
    {
      "channel": 3,
      "note": 68,
      "start": 20.4005,
      "duration": 0.0121,
      "velocity": 91,
      "chip": "ym2612"
    },
    {
      "channel": 2,
      "note": 68,
      "start": 20.4216,
      "duration": 0.0098,
      "velocity": 91,
      "chip": "ym2612"
    },
    {
      "channel": 3,
      "note": 63,
      "start": 20.4419,
      "duration": 0.0114,
      "velocity": 91,
      "chip": "ym2612"
    },
    {
      "channel": 2,
      "note": 63,
      "start": 20.4618,
      "duration": 0.0097,
      "velocity": 91,
      "chip": "ym2612"
    },
    {
      "channel": 3,
      "note": 63,
      "start": 20.4801,
      "duration": 0.01,
      "velocity": 91,
      "chip": "ym2612"
    },
    {
      "channel": 2,
      "note": 63,
      "start": 20.4985,
      "duration": 0.0097,
      "velocity": 91,
      "chip": "ym2612"
    },
    {
      "channel": 3,
      "note": 66,
      "start": 20.5168,
      "duration": 0.0696,
      "velocity": 91,
      "chip": "ym2612"
    },
    {
      "channel": 2,
      "note": 66,
      "start": 20.629,
      "duration": 0.0769,
      "velocity": 91,
      "chip": "ym2612"
    },
    {
      "channel": 3,
      "note": 63,
      "start": 20.6316,
      "duration": 0.0747,
      "velocity": 91,
      "chip": "ym2612"
    },
    {
      "channel": 2,
      "note": 63,
      "start": 20.7486,
      "duration": 0.0113,
      "velocity": 91,
      "chip": "ym2612"
    },
    {
      "channel": 3,
      "note": 71,
      "start": 20.7685,
      "duration": 0.01,
      "velocity": 91,
      "chip": "ym2612"
    },
    {
      "channel": 2,
      "note": 71,
      "start": 20.7897,
      "duration": 0.0143,
      "velocity": 91,
      "chip": "ym2612"
    },
    {
      "channel": 3,
      "note": 71,
      "start": 20.7923,
      "duration": 0.0121,
      "velocity": 91,
      "chip": "ym2612"
    },
    {
      "channel": 3,
      "note": 70,
      "start": 20.8134,
      "duration": 0.01,
      "velocity": 91,
      "chip": "ym2612"
    },
    {
      "channel": 2,
      "note": 71,
      "start": 20.8322,
      "duration": 0.0127,
      "velocity": 91,
      "chip": "ym2612"
    },
    {
      "channel": 3,
      "note": 70,
      "start": 20.8348,
      "duration": 0.0105,
      "velocity": 91,
      "chip": "ym2612"
    },
    {
      "channel": 2,
      "note": 70,
      "start": 20.8688,
      "duration": 0.0144,
      "velocity": 91,
      "chip": "ym2612"
    },
    {
      "channel": 3,
      "note": 73,
      "start": 20.8715,
      "duration": 0.0121,
      "velocity": 91,
      "chip": "ym2612"
    },
    {
      "channel": 2,
      "note": 73,
      "start": 20.8932,
      "duration": 0.0144,
      "velocity": 91,
      "chip": "ym2612"
    },
    {
      "channel": 3,
      "note": 66,
      "start": 20.8958,
      "duration": 0.0121,
      "velocity": 91,
      "chip": "ym2612"
    },
    {
      "channel": 2,
      "note": 66,
      "start": 20.9204,
      "duration": 0.0142,
      "velocity": 91,
      "chip": "ym2612"
    },
    {
      "channel": 3,
      "note": 68,
      "start": 20.923,
      "duration": 0.012,
      "velocity": 91,
      "chip": "ym2612"
    },
    {
      "channel": 2,
      "note": 68,
      "start": 20.9439,
      "duration": 0.0097,
      "velocity": 91,
      "chip": "ym2612"
    },
    {
      "channel": 3,
      "note": 63,
      "start": 20.9641,
      "duration": 0.0115,
      "velocity": 91,
      "chip": "ym2612"
    },
    {
      "channel": 2,
      "note": 63,
      "start": 20.984,
      "duration": 0.0096,
      "velocity": 91,
      "chip": "ym2612"
    },
    {
      "channel": 3,
      "note": 63,
      "start": 21.0022,
      "duration": 0.0096,
      "velocity": 91,
      "chip": "ym2612"
    },
    {
      "channel": 2,
      "note": 63,
      "start": 21.0203,
      "duration": 0.0099,
      "velocity": 91,
      "chip": "ym2612"
    },
    {
      "channel": 3,
      "note": 66,
      "start": 21.0388,
      "duration": 0.0695,
      "velocity": 91,
      "chip": "ym2612"
    },
    {
      "channel": 2,
      "note": 66,
      "start": 21.1509,
      "duration": 0.077,
      "velocity": 91,
      "chip": "ym2612"
    },
    {
      "channel": 3,
      "note": 63,
      "start": 21.1535,
      "duration": 0.0748,
      "velocity": 91,
      "chip": "ym2612"
    },
    {
      "channel": 2,
      "note": 63,
      "start": 21.2706,
      "duration": 0.0112,
      "velocity": 91,
      "chip": "ym2612"
    },
    {
      "channel": 3,
      "note": 71,
      "start": 21.2904,
      "duration": 0.0099,
      "velocity": 91,
      "chip": "ym2612"
    },
    {
      "channel": 2,
      "note": 71,
      "start": 21.3115,
      "duration": 0.0144,
      "velocity": 91,
      "chip": "ym2612"
    },
    {
      "channel": 3,
      "note": 71,
      "start": 21.3141,
      "duration": 0.0122,
      "velocity": 91,
      "chip": "ym2612"
    },
    {
      "channel": 2,
      "note": 71,
      "start": 21.3353,
      "duration": 0.0098,
      "velocity": 91,
      "chip": "ym2612"
    },
    {
      "channel": 3,
      "note": 70,
      "start": 21.3537,
      "duration": 0.0099,
      "velocity": 91,
      "chip": "ym2612"
    },
    {
      "channel": 2,
      "note": 70,
      "start": 21.3721,
      "duration": 0.0099,
      "velocity": 91,
      "chip": "ym2612"
    },
    {
      "channel": 3,
      "note": 68,
      "start": 21.3906,
      "duration": 0.0656,
      "velocity": 91,
      "chip": "ym2612"
    },
    {
      "channel": 2,
      "note": 68,
      "start": 21.4987,
      "duration": 0.077,
      "velocity": 91,
      "chip": "ym2612"
    },
    {
      "channel": 3,
      "note": 66,
      "start": 21.5013,
      "duration": 0.0748,
      "velocity": 91,
      "chip": "ym2612"
    },
    {
      "channel": 2,
      "note": 66,
      "start": 21.6186,
      "duration": 0.0144,
      "velocity": 91,
      "chip": "ym2612"
    },
    {
      "channel": 3,
      "note": 68,
      "start": 21.6212,
      "duration": 0.0121,
      "velocity": 91,
      "chip": "ym2612"
    },
    {
      "channel": 2,
      "note": 68,
      "start": 21.6423,
      "duration": 0.0097,
      "velocity": 91,
      "chip": "ym2612"
    },
    {
      "channel": 3,
      "note": 63,
      "start": 21.6624,
      "duration": 0.0115,
      "velocity": 91,
      "chip": "ym2612"
    },
    {
      "channel": 2,
      "note": 63,
      "start": 21.6824,
      "duration": 0.0096,
      "velocity": 91,
      "chip": "ym2612"
    },
    {
      "channel": 3,
      "note": 63,
      "start": 21.7006,
      "duration": 0.0098,
      "velocity": 91,
      "chip": "ym2612"
    },
    {
      "channel": 2,
      "note": 63,
      "start": 21.719,
      "duration": 0.0098,
      "velocity": 91,
      "chip": "ym2612"
    },
    {
      "channel": 3,
      "note": 66,
      "start": 21.7373,
      "duration": 0.0695,
      "velocity": 91,
      "chip": "ym2612"
    },
    {
      "channel": 2,
      "note": 66,
      "start": 21.8495,
      "duration": 0.077,
      "velocity": 91,
      "chip": "ym2612"
    },
    {
      "channel": 3,
      "note": 70,
      "start": 21.8521,
      "duration": 0.0747,
      "velocity": 91,
      "chip": "ym2612"
    },
    {
      "channel": 2,
      "note": 70,
      "start": 21.9691,
      "duration": 0.0112,
      "velocity": 91,
      "chip": "ym2612"
    },
    {
      "channel": 3,
      "note": 71,
      "start": 21.989,
      "duration": 0.0099,
      "velocity": 91,
      "chip": "ym2612"
    },
    {
      "channel": 2,
      "note": 71,
      "start": 22.01,
      "duration": 0.0143,
      "velocity": 91,
      "chip": "ym2612"
    },
    {
      "channel": 3,
      "note": 71,
      "start": 22.0127,
      "duration": 0.012,
      "velocity": 91,
      "chip": "ym2612"
    },
    {
      "channel": 2,
      "note": 71,
      "start": 22.0337,
      "duration": 0.01,
      "velocity": 91,
      "chip": "ym2612"
    },
    {
      "channel": 3,
      "note": 73,
      "start": 22.0521,
      "duration": 0.0098,
      "velocity": 91,
      "chip": "ym2612"
    },
    {
      "channel": 2,
      "note": 73,
      "start": 22.0704,
      "duration": 0.0099,
      "velocity": 91,
      "chip": "ym2612"
    },
    {
      "channel": 3,
      "note": 73,
      "start": 22.0889,
      "duration": 0.0658,
      "velocity": 91,
      "chip": "ym2612"
    },
    {
      "channel": 2,
      "note": 73,
      "start": 22.1973,
      "duration": 0.0112,
      "velocity": 91,
      "chip": "ym2612"
    },
    {
      "channel": 0,
      "note": 63,
      "start": 22.221,
      "duration": 0.3485,
      "velocity": 106,
      "chip": "ym2612"
    },
    {
      "channel": 3,
      "note": 73,
      "start": 22.2241,
      "duration": 0.0115,
      "velocity": 91,
      "chip": "ym2612"
    },
    {
      "channel": 2,
      "note": 73,
      "start": 22.2442,
      "duration": 0.0097,
      "velocity": 91,
      "chip": "ym2612"
    },
    {
      "channel": 1,
      "note": 63,
      "start": 22.2655,
      "duration": 0.3382,
      "velocity": 106,
      "chip": "ym2612"
    },
    {
      "channel": 3,
      "note": 61,
      "start": 22.2682,
      "duration": 0.0113,
      "velocity": 91,
      "chip": "ym2612"
    },
    {
      "channel": 2,
      "note": 61,
      "start": 22.288,
      "duration": 0.0098,
      "velocity": 91,
      "chip": "ym2612"
    },
    {
      "channel": 3,
      "note": 61,
      "start": 22.3066,
      "duration": 0.0099,
      "velocity": 91,
      "chip": "ym2612"
    },
    {
      "channel": 2,
      "note": 61,
      "start": 22.3249,
      "duration": 0.0098,
      "velocity": 91,
      "chip": "ym2612"
    },
    {
      "channel": 3,
      "note": 64,
      "start": 22.3436,
      "duration": 0.0667,
      "velocity": 91,
      "chip": "ym2612"
    },
    {
      "channel": 2,
      "note": 64,
      "start": 22.4528,
      "duration": 0.077,
      "velocity": 91,
      "chip": "ym2612"
    },
    {
      "channel": 3,
      "note": 61,
      "start": 22.4554,
      "duration": 0.0748,
      "velocity": 91,
      "chip": "ym2612"
    },
    {
      "channel": 2,
      "note": 61,
      "start": 22.5727,
      "duration": 0.0114,
      "velocity": 91,
      "chip": "ym2612"
    },
    {
      "channel": 3,
      "note": 69,
      "start": 22.6066,
      "duration": 0.0114,
      "velocity": 91,
      "chip": "ym2612"
    },
    {
      "channel": 2,
      "note": 69,
      "start": 22.6265,
      "duration": 0.0099,
      "velocity": 91,
      "chip": "ym2612"
    },
    {
      "channel": 3,
      "note": 68,
      "start": 22.645,
      "duration": 0.0098,
      "velocity": 91,
      "chip": "ym2612"
    },
    {
      "channel": 2,
      "note": 68,
      "start": 22.6632,
      "duration": 0.0098,
      "velocity": 91,
      "chip": "ym2612"
    },
    {
      "channel": 3,
      "note": 66,
      "start": 22.6817,
      "duration": 0.0692,
      "velocity": 91,
      "chip": "ym2612"
    },
    {
      "channel": 2,
      "note": 66,
      "start": 22.7935,
      "duration": 0.077,
      "velocity": 91,
      "chip": "ym2612"
    },
    {
      "channel": 3,
      "note": 64,
      "start": 22.7961,
      "duration": 0.0747,
      "velocity": 91,
      "chip": "ym2612"
    },
    {
      "channel": 2,
      "note": 64,
      "start": 22.9133,
      "duration": 0.0144,
      "velocity": 91,
      "chip": "ym2612"
    },
    {
      "channel": 3,
      "note": 66,
      "start": 22.9159,
      "duration": 0.0122,
      "velocity": 91,
      "chip": "ym2612"
    },
    {
      "channel": 2,
      "note": 66,
      "start": 22.9373,
      "duration": 0.0097,
      "velocity": 91,
      "chip": "ym2612"
    },
    {
      "channel": 3,
      "note": 61,
      "start": 22.9574,
      "duration": 0.0114,
      "velocity": 91,
      "chip": "ym2612"
    },
    {
      "channel": 2,
      "note": 61,
      "start": 22.9773,
      "duration": 0.0097,
      "velocity": 91,
      "chip": "ym2612"
    },
    {
      "channel": 3,
      "note": 61,
      "start": 22.9957,
      "duration": 0.0099,
      "velocity": 91,
      "chip": "ym2612"
    },
    {
      "channel": 2,
      "note": 61,
      "start": 23.014,
      "duration": 0.0098,
      "velocity": 91,
      "chip": "ym2612"
    },
    {
      "channel": 3,
      "note": 64,
      "start": 23.0324,
      "duration": 0.0696,
      "velocity": 91,
      "chip": "ym2612"
    },
    {
      "channel": 2,
      "note": 64,
      "start": 23.1446,
      "duration": 0.0769,
      "velocity": 91,
      "chip": "ym2612"
    },
    {
      "channel": 3,
      "note": 61,
      "start": 23.1472,
      "duration": 0.0747,
      "velocity": 91,
      "chip": "ym2612"
    },
    {
      "channel": 2,
      "note": 61,
      "start": 23.2642,
      "duration": 0.0114,
      "velocity": 91,
      "chip": "ym2612"
    },
    {
      "channel": 3,
      "note": 69,
      "start": 23.2841,
      "duration": 0.01,
      "velocity": 91,
      "chip": "ym2612"
    },
    {
      "channel": 2,
      "note": 69,
      "start": 23.3054,
      "duration": 0.0143,
      "velocity": 91,
      "chip": "ym2612"
    },
    {
      "channel": 3,
      "note": 69,
      "start": 23.308,
      "duration": 0.012,
      "velocity": 91,
      "chip": "ym2612"
    },
    {
      "channel": 3,
      "note": 68,
      "start": 23.329,
      "duration": 0.0099,
      "velocity": 91,
      "chip": "ym2612"
    },
    {
      "channel": 2,
      "note": 69,
      "start": 23.3478,
      "duration": 0.0127,
      "velocity": 91,
      "chip": "ym2612"
    },
    {
      "channel": 3,
      "note": 68,
      "start": 23.3504,
      "duration": 0.0105,
      "velocity": 91,
      "chip": "ym2612"
    },
    {
      "channel": 2,
      "note": 68,
      "start": 23.3844,
      "duration": 0.0144,
      "velocity": 91,
      "chip": "ym2612"
    },
    {
      "channel": 3,
      "note": 71,
      "start": 23.387,
      "duration": 0.0121,
      "velocity": 91,
      "chip": "ym2612"
    },
    {
      "channel": 2,
      "note": 71,
      "start": 23.4088,
      "duration": 0.0143,
      "velocity": 91,
      "chip": "ym2612"
    },
    {
      "channel": 3,
      "note": 64,
      "start": 23.4114,
      "duration": 0.012,
      "velocity": 91,
      "chip": "ym2612"
    },
    {
      "channel": 2,
      "note": 64,
      "start": 23.4359,
      "duration": 0.0142,
      "velocity": 91,
      "chip": "ym2612"
    },
    {
      "channel": 3,
      "note": 66,
      "start": 23.4385,
      "duration": 0.0119,
      "velocity": 91,
      "chip": "ym2612"
    },
    {
      "channel": 2,
      "note": 66,
      "start": 23.4596,
      "duration": 0.01,
      "velocity": 91,
      "chip": "ym2612"
    },
    {
      "channel": 3,
      "note": 61,
      "start": 23.48,
      "duration": 0.0115,
      "velocity": 91,
      "chip": "ym2612"
    },
    {
      "channel": 2,
      "note": 61,
      "start": 23.4999,
      "duration": 0.0097,
      "velocity": 91,
      "chip": "ym2612"
    },
    {
      "channel": 3,
      "note": 61,
      "start": 23.5181,
      "duration": 0.0097,
      "velocity": 91,
      "chip": "ym2612"
    },
    {
      "channel": 2,
      "note": 61,
      "start": 23.5362,
      "duration": 0.0099,
      "velocity": 91,
      "chip": "ym2612"
    },
    {
      "channel": 3,
      "note": 64,
      "start": 23.5547,
      "duration": 0.0695,
      "velocity": 91,
      "chip": "ym2612"
    },
    {
      "channel": 2,
      "note": 64,
      "start": 23.6668,
      "duration": 0.077,
      "velocity": 91,
      "chip": "ym2612"
    },
    {
      "channel": 3,
      "note": 61,
      "start": 23.6694,
      "duration": 0.0748,
      "velocity": 91,
      "chip": "ym2612"
    },
    {
      "channel": 2,
      "note": 61,
      "start": 23.7864,
      "duration": 0.0112,
      "velocity": 91,
      "chip": "ym2612"
    },
    {
      "channel": 3,
      "note": 69,
      "start": 23.8063,
      "duration": 0.0098,
      "velocity": 91,
      "chip": "ym2612"
    },
    {
      "channel": 2,
      "note": 69,
      "start": 23.8273,
      "duration": 0.0144,
      "velocity": 91,
      "chip": "ym2612"
    },
    {
      "channel": 3,
      "note": 69,
      "start": 23.83,
      "duration": 0.0122,
      "velocity": 91,
      "chip": "ym2612"
    },
    {
      "channel": 2,
      "note": 69,
      "start": 23.8511,
      "duration": 0.0098,
      "velocity": 91,
      "chip": "ym2612"
    },
    {
      "channel": 3,
      "note": 68,
      "start": 23.8696,
      "duration": 0.01,
      "velocity": 91,
      "chip": "ym2612"
    },
    {
      "channel": 2,
      "note": 68,
      "start": 23.888,
      "duration": 0.0097,
      "velocity": 91,
      "chip": "ym2612"
    },
    {
      "channel": 3,
      "note": 66,
      "start": 23.9064,
      "duration": 0.0657,
      "velocity": 91,
      "chip": "ym2612"
    },
    {
      "channel": 2,
      "note": 66,
      "start": 24.0146,
      "duration": 0.077,
      "velocity": 91,
      "chip": "ym2612"
    },
    {
      "channel": 3,
      "note": 64,
      "start": 24.0173,
      "duration": 0.0748,
      "velocity": 91,
      "chip": "ym2612"
    },
    {
      "channel": 2,
      "note": 64,
      "start": 24.1345,
      "duration": 0.0143,
      "velocity": 91,
      "chip": "ym2612"
    },
    {
      "channel": 3,
      "note": 66,
      "start": 24.1371,
      "duration": 0.0121,
      "velocity": 91,
      "chip": "ym2612"
    },
    {
      "channel": 2,
      "note": 66,
      "start": 24.1583,
      "duration": 0.0098,
      "velocity": 91,
      "chip": "ym2612"
    },
    {
      "channel": 3,
      "note": 61,
      "start": 24.1785,
      "duration": 0.0115,
      "velocity": 91,
      "chip": "ym2612"
    },
    {
      "channel": 2,
      "note": 61,
      "start": 24.1984,
      "duration": 0.0097,
      "velocity": 91,
      "chip": "ym2612"
    },
    {
      "channel": 3,
      "note": 61,
      "start": 24.2166,
      "duration": 0.0098,
      "velocity": 91,
      "chip": "ym2612"
    },
    {
      "channel": 2,
      "note": 61,
      "start": 24.2349,
      "duration": 0.0099,
      "velocity": 91,
      "chip": "ym2612"
    },
    {
      "channel": 3,
      "note": 64,
      "start": 24.2535,
      "duration": 0.0695,
      "velocity": 91,
      "chip": "ym2612"
    },
    {
      "channel": 2,
      "note": 64,
      "start": 24.3656,
      "duration": 0.077,
      "velocity": 91,
      "chip": "ym2612"
    },
    {
      "channel": 3,
      "note": 68,
      "start": 24.3682,
      "duration": 0.0747,
      "velocity": 91,
      "chip": "ym2612"
    },
    {
      "channel": 2,
      "note": 68,
      "start": 24.4853,
      "duration": 0.0112,
      "velocity": 91,
      "chip": "ym2612"
    },
    {
      "channel": 3,
      "note": 69,
      "start": 24.5051,
      "duration": 0.0099,
      "velocity": 91,
      "chip": "ym2612"
    },
    {
      "channel": 2,
      "note": 69,
      "start": 24.5263,
      "duration": 0.0142,
      "velocity": 91,
      "chip": "ym2612"
    },
    {
      "channel": 3,
      "note": 69,
      "start": 24.5289,
      "duration": 0.012,
      "velocity": 91,
      "chip": "ym2612"
    },
    {
      "channel": 2,
      "note": 69,
      "start": 24.5499,
      "duration": 0.01,
      "velocity": 91,
      "chip": "ym2612"
    },
    {
      "channel": 3,
      "note": 71,
      "start": 24.5684,
      "duration": 0.0098,
      "velocity": 91,
      "chip": "ym2612"
    },
    {
      "channel": 2,
      "note": 71,
      "start": 24.5866,
      "duration": 0.0099,
      "velocity": 91,
      "chip": "ym2612"
    },
    {
      "channel": 3,
      "note": 71,
      "start": 24.6052,
      "duration": 0.0657,
      "velocity": 91,
      "chip": "ym2612"
    },
    {
      "channel": 2,
      "note": 71,
      "start": 24.7136,
      "duration": 0.0112,
      "velocity": 91,
      "chip": "ym2612"
    },
    {
      "channel": 0,
      "note": 61,
      "start": 24.7373,
      "duration": 67.3541,
      "velocity": 106,
      "chip": "ym2612"
    },
    {
      "channel": 2,
      "note": 71,
      "start": 24.7405,
      "duration": 0.0045,
      "velocity": 107,
      "chip": "ym2612"
    }
  ]
}