{
  "track_name": "09 - Yushis - Main Theme",
  "duration_sec": 44.858,
  "sample_rate": 44100,
  "note_count": 1036,
  "unique_pitches": 30,
  "pitch_range": 66,
  "avg_note_duration": 0.2026,
  "reconstruction_stats": {
    "notes_reconstructed": 1036,
    "keyon_events": 1036,
    "keyoff_events": 1033,
    "orphan_keyons": 3,
    "unique_pitches": 30,
    "pitch_range": 66,
    "avg_duration_sec": 0.2026
  },
  "metadata": {
    "source": "P\\Phantasy Star II Text Adventures\\09 - Yushis - Main Theme.vgz"
  },
  "notes": [
    {
      "channel": 1,
      "note": 57,
      "start": 0.0471,
      "duration": 0.1285,
      "velocity": 80,
      "chip": "ym2612"
    },
    {
      "channel": 3,
      "note": 57,
      "start": 0.0504,
      "duration": 0.1259,
      "velocity": 98,
      "chip": "ym2612"
    },
    {
      "channel": 5,
      "note": 72,
      "start": 0.0546,
      "duration": 0.1252,
      "velocity": 100,
      "chip": "ym2612"
    },
    {
      "channel": 2,
      "note": 25,
      "start": 0.0582,
      "duration": 0.2553,
      "velocity": 79,
      "chip": "ym2612"
    },
    {
      "channel": 1,
      "note": 57,
      "start": 0.1762,
      "duration": 0.1327,
      "velocity": 80,
      "chip": "ym2612"
    },
    {
      "channel": 3,
      "note": 59,
      "start": 0.177,
      "duration": 0.1323,
      "velocity": 98,
      "chip": "ym2612"
    },
    {
      "channel": 5,
      "note": 72,
      "start": 0.1805,
      "duration": 0.1322,
      "velocity": 100,
      "chip": "ym2612"
    },
    {
      "channel": 3,
      "note": 60,
      "start": 0.3099,
      "duration": 0.1331,
      "velocity": 98,
      "chip": "ym2612"
    },
    {
      "channel": 5,
      "note": 72,
      "start": 0.3134,
      "duration": 0.1332,
      "velocity": 100,
      "chip": "ym2612"
    },
    {
      "channel": 1,
      "note": 57,
      "start": 0.4429,
      "duration": 0.1327,
      "velocity": 80,
      "chip": "ym2612"
    },
    {
      "channel": 3,
      "note": 62,
      "start": 0.4436,
      "duration": 0.1323,
      "velocity": 98,
      "chip": "ym2612"
    },
    {
      "channel": 5,
      "note": 72,
      "start": 0.4471,
      "duration": 0.1322,
      "velocity": 100,
      "chip": "ym2612"
    },
    {
      "channel": 3,
      "note": 64,
      "start": 0.5765,
      "duration": 0.1331,
      "velocity": 98,
      "chip": "ym2612"
    },
    {
      "channel": 5,
      "note": 72,
      "start": 0.58,
      "duration": 0.2665,
      "velocity": 100,
      "chip": "ym2612"
    },
    {
      "channel": 2,
      "note": 70,
      "start": 0.5837,
      "duration": 0.13,
      "velocity": 79,
      "chip": "ym2612"
    },
    {
      "channel": 1,
      "note": 57,
      "start": 0.7095,
      "duration": 0.1327,
      "velocity": 80,
      "chip": "ym2612"
    },
    {
      "channel": 3,
      "note": 65,
      "start": 0.7103,
      "duration": 0.1327,
      "velocity": 98,
      "chip": "ym2612"
    },
    {
      "channel": 2,
      "note": 25,
      "start": 0.7143,
      "duration": 0.2663,
      "velocity": 79,
      "chip": "ym2612"
    },
    {
      "channel": 1,
      "note": 69,
      "start": 0.8429,
      "duration": 0.1327,
      "velocity": 80,
      "chip": "ym2612"
    },
    {
      "channel": 3,
      "note": 67,
      "start": 0.8436,
      "duration": 0.1327,
      "velocity": 98,
      "chip": "ym2612"
    },
    {
      "channel": 5,
      "note": 72,
      "start": 0.8471,
      "duration": 0.1327,
      "velocity": 100,
      "chip": "ym2612"
    },
    {
      "channel": 1,
      "note": 57,
      "start": 0.9762,
      "duration": 0.1327,
      "velocity": 80,
      "chip": "ym2612"
    },
    {
      "channel": 3,
      "note": 69,
      "start": 0.977,
      "duration": 0.1327,
      "velocity": 98,
      "chip": "ym2612"
    },
    {
      "channel": 5,
      "note": 72,
      "start": 0.9805,
      "duration": 0.1328,
      "velocity": 100,
      "chip": "ym2612"
    },
    {
      "channel": 1,
      "note": 57,
      "start": 1.1095,
      "duration": 0.1327,
      "velocity": 80,
      "chip": "ym2612"
    },
    {
      "channel": 3,
      "note": 71,
      "start": 1.1103,
      "duration": 0.1327,
      "velocity": 98,
      "chip": "ym2612"
    },
    {
      "channel": 5,
      "note": 72,
      "start": 1.1139,
      "duration": 0.1327,
      "velocity": 100,
      "chip": "ym2612"
    },
    {
      "channel": 1,
      "note": 57,
      "start": 1.2429,
      "duration": 0.1327,
      "velocity": 80,
      "chip": "ym2612"
    },
    {
      "channel": 3,
      "note": 72,
      "start": 1.2436,
      "duration": 0.1323,
      "velocity": 98,
      "chip": "ym2612"
    },
    {
      "channel": 5,
      "note": 72,
      "start": 1.2471,
      "duration": 0.1322,
      "velocity": 100,
      "chip": "ym2612"
    },
    {
      "channel": 3,
      "note": 74,
      "start": 1.3765,
      "duration": 0.1331,
      "velocity": 98,
      "chip": "ym2612"
    },
    {
      "channel": 5,
      "note": 72,
      "start": 1.38,
      "duration": 0.1332,
      "velocity": 100,
      "chip": "ym2612"
    },
    {
      "channel": 2,
      "note": 25,
      "start": 1.3836,
      "duration": 0.2661,
      "velocity": 127,
      "chip": "ym2612"
    },
    {
      "channel": 1,
      "note": 57,
      "start": 1.5095,
      "duration": 0.1327,
      "velocity": 80,
      "chip": "ym2612"
    },
    {
      "channel": 3,
      "note": 76,
      "start": 1.5103,
      "duration": 0.1323,
      "velocity": 98,
      "chip": "ym2612"
    },
    {
      "channel": 5,
      "note": 72,
      "start": 1.5138,
      "duration": 0.1322,
      "velocity": 100,
      "chip": "ym2612"
    },
    {
      "channel": 3,
      "note": 77,
      "start": 1.6432,
      "duration": 0.1331,
      "velocity": 98,
      "chip": "ym2612"
    },
    {
      "channel": 5,
      "note": 72,
      "start": 1.6467,
      "duration": 0.2665,
      "velocity": 100,
      "chip": "ym2612"
    },
    {
      "channel": 2,
      "note": 70,
      "start": 1.6503,
      "duration": 0.13,
      "velocity": 79,
      "chip": "ym2612"
    },
    {
      "channel": 1,
      "note": 57,
      "start": 1.7762,
      "duration": 0.1327,
      "velocity": 80,
      "chip": "ym2612"
    },
    {
      "channel": 3,
      "note": 79,
      "start": 1.777,
      "duration": 0.1327,
      "velocity": 98,
      "chip": "ym2612"
    },
    {
      "channel": 2,
      "note": 25,
      "start": 1.781,
      "duration": 0.2663,
      "velocity": 79,
      "chip": "ym2612"
    },
    {
      "channel": 1,
      "note": 69,
      "start": 1.9095,
      "duration": 0.1327,
      "velocity": 80,
      "chip": "ym2612"
    },
    {
      "channel": 3,
      "note": 81,
      "start": 1.9103,
      "duration": 0.1327,
      "velocity": 98,
      "chip": "ym2612"
    },
    {
      "channel": 5,
      "note": 72,
      "start": 1.9138,
      "duration": 0.1327,
      "velocity": 100,
      "chip": "ym2612"
    },
    {
      "channel": 1,
      "note": 57,
      "start": 2.0429,
      "duration": 0.1329,
      "velocity": 80,
      "chip": "ym2612"
    },
    {
      "channel": 3,
      "note": 83,
      "start": 2.0436,
      "duration": 0.1329,
      "velocity": 98,
      "chip": "ym2612"
    },
    {
      "channel": 5,
      "note": 72,
      "start": 2.0471,
      "duration": 0.133,
      "velocity": 100,
      "chip": "ym2612"
    },
    {
      "channel": 1,
      "note": 55,
      "start": 2.1765,
      "duration": 0.1324,
      "velocity": 80,
      "chip": "ym2612"
    },
    {
      "channel": 3,
      "note": 55,
      "start": 2.1772,
      "duration": 0.1324,
      "velocity": 98,
      "chip": "ym2612"
    },
    {
      "channel": 5,
      "note": 72,
      "start": 2.1808,
      "duration": 0.1324,
      "velocity": 100,
      "chip": "ym2612"
    },
    {
      "channel": 2,
      "note": 25,
      "start": 2.1844,
      "duration": 0.2624,
      "velocity": 79,
      "chip": "ym2612"
    },
    {
      "channel": 1,
      "note": 55,
      "start": 2.3095,
      "duration": 0.1327,
      "velocity": 80,
      "chip": "ym2612"
    },
    {
      "channel": 3,
      "note": 57,
      "start": 2.3103,
      "duration": 0.1323,
      "velocity": 98,
      "chip": "ym2612"
    },
    {
      "channel": 5,
      "note": 72,
      "start": 2.3138,
      "duration": 0.1322,
      "velocity": 100,
      "chip": "ym2612"
    },
    {
      "channel": 3,
      "note": 58,
      "start": 2.4432,
      "duration": 0.1331,
      "velocity": 98,
      "chip": "ym2612"
    },
    {
      "channel": 5,
      "note": 72,
      "start": 2.4467,
      "duration": 0.1332,
      "velocity": 100,
      "chip": "ym2612"
    },
    {
      "channel": 1,
      "note": 55,
      "start": 2.5762,
      "duration": 0.1327,
      "velocity": 80,
      "chip": "ym2612"
    },
    {
      "channel": 3,
      "note": 60,
      "start": 2.5769,
      "duration": 0.1323,
      "velocity": 98,
      "chip": "ym2612"
    },
    {
      "channel": 5,
      "note": 72,
      "start": 2.5805,
      "duration": 0.1322,
      "velocity": 100,
      "chip": "ym2612"
    },
    {
      "channel": 3,
      "note": 62,
      "start": 2.7099,
      "duration": 0.1331,
      "velocity": 98,
      "chip": "ym2612"
    },
    {
      "channel": 5,
      "note": 72,
      "start": 2.7134,
      "duration": 0.2665,
      "velocity": 100,
      "chip": "ym2612"
    },
    {
      "channel": 2,
      "note": 70,
      "start": 2.717,
      "duration": 0.13,
      "velocity": 79,
      "chip": "ym2612"
    },
    {
      "channel": 1,
      "note": 55,
      "start": 2.8429,
      "duration": 0.1327,
      "velocity": 80,
      "chip": "ym2612"
    },
    {
      "channel": 3,
      "note": 63,
      "start": 2.8436,
      "duration": 0.1327,
      "velocity": 98,
      "chip": "ym2612"
    },
    {
      "channel": 2,
      "note": 25,
      "start": 2.8476,
      "duration": 0.2663,
      "velocity": 79,
      "chip": "ym2612"
    },
    {
      "channel": 1,
      "note": 67,
      "start": 2.9762,
      "duration": 0.1327,
      "velocity": 80,
      "chip": "ym2612"
    },
    {
      "channel": 3,
      "note": 65,
      "start": 2.977,
      "duration": 0.1327,
      "velocity": 98,
      "chip": "ym2612"
    },
    {
      "channel": 5,
      "note": 72,
      "start": 2.9805,
      "duration": 0.1327,
      "velocity": 100,
      "chip": "ym2612"
    },
    {
      "channel": 1,
      "note": 55,
      "start": 3.1095,
      "duration": 0.1327,
      "velocity": 80,
      "chip": "ym2612"
    },
    {
      "channel": 3,
      "note": 67,
      "start": 3.1102,
      "duration": 0.1328,
      "velocity": 98,
      "chip": "ym2612"
    },
    {
      "channel": 5,
      "note": 72,
      "start": 3.1138,
      "duration": 0.1327,
      "velocity": 100,
      "chip": "ym2612"
    },
    {
      "channel": 1,
      "note": 55,
      "start": 3.2429,
      "duration": 0.1327,
      "velocity": 80,
      "chip": "ym2612"
    },
    {
      "channel": 3,
      "note": 69,
      "start": 3.2436,
      "duration": 0.1327,
      "velocity": 98,
      "chip": "ym2612"
    },
    {
      "channel": 5,
      "note": 72,
      "start": 3.2472,
      "duration": 0.1327,
      "velocity": 100,
      "chip": "ym2612"
    },
    {
      "channel": 1,
      "note": 55,
      "start": 3.3762,
      "duration": 0.1327,
      "velocity": 80,
      "chip": "ym2612"
    },
    {
      "channel": 3,
      "note": 70,
      "start": 3.377,
      "duration": 0.1323,
      "velocity": 98,
      "chip": "ym2612"
    },
    {
      "channel": 5,
      "note": 72,
      "start": 3.3805,
      "duration": 0.1322,
      "velocity": 100,
      "chip": "ym2612"
    },
    {
      "channel": 3,
      "note": 72,
      "start": 3.5099,
      "duration": 0.1331,
      "velocity": 98,
      "chip": "ym2612"
    },
    {
      "channel": 5,
      "note": 72,
      "start": 3.5134,
      "duration": 0.1332,
      "velocity": 100,
      "chip": "ym2612"
    },
    {
      "channel": 2,
      "note": 25,
      "start": 3.5169,
      "duration": 0.2661,
      "velocity": 127,
      "chip": "ym2612"
    },
    {
      "channel": 1,
      "note": 55,
      "start": 3.6429,
      "duration": 0.1327,
      "velocity": 80,
      "chip": "ym2612"
    },
    {
      "channel": 3,
      "note": 74,
      "start": 3.6436,
      "duration": 0.1323,
      "velocity": 98,
      "chip": "ym2612"
    },
    {
      "channel": 5,
      "note": 72,
      "start": 3.6471,
      "duration": 0.1322,
      "velocity": 100,
      "chip": "ym2612"
    },
    {
      "channel": 3,
      "note": 75,
      "start": 3.7765,
      "duration": 0.1331,
      "velocity": 98,
      "chip": "ym2612"
    },
    {
      "channel": 5,
      "note": 72,
      "start": 3.78,
      "duration": 0.2665,
      "velocity": 100,
      "chip": "ym2612"
    },
    {
      "channel": 2,
      "note": 70,
      "start": 3.7837,
      "duration": 0.13,
      "velocity": 79,
      "chip": "ym2612"
    },
    {
      "channel": 1,
      "note": 55,
      "start": 3.9095,
      "duration": 0.1327,
      "velocity": 80,
      "chip": "ym2612"
    },
    {
      "channel": 3,
      "note": 77,
      "start": 3.9103,
      "duration": 0.1327,
      "velocity": 98,
      "chip": "ym2612"
    },
    {
      "channel": 2,
      "note": 25,
      "start": 3.9143,
      "duration": 0.2663,
      "velocity": 79,
      "chip": "ym2612"
    },
    {
      "channel": 1,
      "note": 67,
      "start": 4.0429,
      "duration": 0.1327,
      "velocity": 80,
      "chip": "ym2612"
    },
    {
      "channel": 3,
      "note": 79,
      "start": 4.0436,
      "duration": 0.1327,
      "velocity": 98,
      "chip": "ym2612"
    },
    {
      "channel": 5,
      "note": 72,
      "start": 4.0471,
      "duration": 0.1327,
      "velocity": 100,
      "chip": "ym2612"
    },
    {
      "channel": 1,
      "note": 55,
      "start": 4.1762,
      "duration": 0.1331,
      "velocity": 80,
      "chip": "ym2612"
    },
    {
      "channel": 3,
      "note": 81,
      "start": 4.177,
      "duration": 0.1332,
      "velocity": 98,
      "chip": "ym2612"
    },
    {
      "channel": 5,
      "note": 72,
      "start": 4.1805,
      "duration": 0.1333,
      "velocity": 100,
      "chip": "ym2612"
    },
    {
      "channel": 1,
      "note": 57,
      "start": 4.3099,
      "duration": 0.1324,
      "velocity": 80,
      "chip": "ym2612"
    },
    {
      "channel": 3,
      "note": 57,
      "start": 4.3107,
      "duration": 0.1322,
      "velocity": 98,
      "chip": "ym2612"
    },
    {
      "channel": 5,
      "note": 72,
      "start": 4.3143,
      "duration": 0.1322,
      "velocity": 100,
      "chip": "ym2612"
    },
    {
      "channel": 2,
      "note": 25,
      "start": 4.3179,
      "duration": 0.2622,
      "velocity": 79,
      "chip": "ym2612"
    },
    {
      "channel": 1,
      "note": 57,
      "start": 4.4429,
      "duration": 0.1327,
      "velocity": 80,
      "chip": "ym2612"
    },
    {
      "channel": 3,
      "note": 59,
      "start": 4.4436,
      "duration": 0.1323,
      "velocity": 98,
      "chip": "ym2612"
    },
    {
      "channel": 5,
      "note": 72,
      "start": 4.4471,
      "duration": 0.1322,
      "velocity": 100,
      "chip": "ym2612"
    },
    {
      "channel": 3,
      "note": 60,
      "start": 4.5765,
      "duration": 0.1331,
      "velocity": 98,
      "chip": "ym2612"
    },
    {
      "channel": 5,
      "note": 72,
      "start": 4.58,
      "duration": 0.1332,
      "velocity": 100,
      "chip": "ym2612"
    },
    {
      "channel": 1,
      "note": 57,
      "start": 4.7095,
      "duration": 0.1327,
      "velocity": 80,
      "chip": "ym2612"
    },
    {
      "channel": 3,
      "note": 62,
      "start": 4.7103,
      "duration": 0.1323,
      "velocity": 98,
      "chip": "ym2612"
    },
    {
      "channel": 5,
      "note": 72,
      "start": 4.7138,
      "duration": 0.1322,
      "velocity": 100,
      "chip": "ym2612"
    },
    {
      "channel": 3,
      "note": 64,
      "start": 4.8432,
      "duration": 0.1331,
      "velocity": 98,
      "chip": "ym2612"
    },
    {
      "channel": 5,
      "note": 72,
      "start": 4.8467,
      "duration": 0.2665,
      "velocity": 100,
      "chip": "ym2612"
    },
    {
      "channel": 2,
      "note": 70,
      "start": 4.8503,
      "duration": 0.13,
      "velocity": 79,
      "chip": "ym2612"
    },
    {
      "channel": 1,
      "note": 57,
      "start": 4.9762,
      "duration": 0.1327,
      "velocity": 80,
      "chip": "ym2612"
    },
    {
      "channel": 3,
      "note": 65,
      "start": 4.977,
      "duration": 0.1327,
      "velocity": 98,
      "chip": "ym2612"
    },
    {
      "channel": 2,
      "note": 25,
      "start": 4.981,
      "duration": 0.2663,
      "velocity": 79,
      "chip": "ym2612"
    },
    {
      "channel": 1,
      "note": 69,
      "start": 5.1095,
      "duration": 0.1327,
      "velocity": 80,
      "chip": "ym2612"
    },
    {
      "channel": 3,
      "note": 67,
      "start": 5.1103,
      "duration": 0.1327,
      "velocity": 98,
      "chip": "ym2612"
    },
    {
      "channel": 5,
      "note": 72,
      "start": 5.1138,
      "duration": 0.1327,
      "velocity": 100,
      "chip": "ym2612"
    },
    {
      "channel": 1,
      "note": 57,
      "start": 5.2429,
      "duration": 0.1327,
      "velocity": 80,
      "chip": "ym2612"
    },
    {
      "channel": 3,
      "note": 69,
      "start": 5.2436,
      "duration": 0.1327,
      "velocity": 98,
      "chip": "ym2612"
    },
    {
      "channel": 5,
      "note": 72,
      "start": 5.2471,
      "duration": 0.1328,
      "velocity": 100,
      "chip": "ym2612"
    },
    {
      "channel": 1,
      "note": 57,
      "start": 5.3762,
      "duration": 0.1327,
      "velocity": 80,
      "chip": "ym2612"
    },
    {
      "channel": 3,
      "note": 71,
      "start": 5.377,
      "duration": 0.1327,
      "velocity": 98,
      "chip": "ym2612"
    },
    {
      "channel": 5,
      "note": 72,
      "start": 5.3805,
      "duration": 0.1327,
      "velocity": 100,
      "chip": "ym2612"
    },
    {
      "channel": 1,
      "note": 57,
      "start": 5.5095,
      "duration": 0.1327,
      "velocity": 80,
      "chip": "ym2612"
    },
    {
      "channel": 3,
      "note": 72,
      "start": 5.5103,
      "duration": 0.1323,
      "velocity": 98,
      "chip": "ym2612"
    },
    {
      "channel": 5,
      "note": 72,
      "start": 5.5138,
      "duration": 0.1322,
      "velocity": 100,
      "chip": "ym2612"
    },
    {
      "channel": 3,
      "note": 74,
      "start": 5.6432,
      "duration": 0.1331,
      "velocity": 98,
      "chip": "ym2612"
    },
    {
      "channel": 5,
      "note": 72,
      "start": 5.6467,
      "duration": 0.1332,
      "velocity": 100,
      "chip": "ym2612"
    },
    {
      "channel": 2,
      "note": 25,
      "start": 5.6502,
      "duration": 0.2661,
      "velocity": 127,
      "chip": "ym2612"
    },
    {
      "channel": 1,
      "note": 57,
      "start": 5.7762,
      "duration": 0.1327,
      "velocity": 80,
      "chip": "ym2612"
    },
    {
      "channel": 3,
      "note": 76,
      "start": 5.777,
      "duration": 0.1323,
      "velocity": 98,
      "chip": "ym2612"
    },
    {
      "channel": 5,
      "note": 72,
      "start": 5.7805,
      "duration": 0.1322,
      "velocity": 100,
      "chip": "ym2612"
    },
    {
      "channel": 3,
      "note": 77,
      "start": 5.9099,
      "duration": 0.1331,
      "velocity": 98,
      "chip": "ym2612"
    },
    {
      "channel": 5,
      "note": 72,
      "start": 5.9134,
      "duration": 0.2665,
      "velocity": 100,
      "chip": "ym2612"
    },
    {
      "channel": 2,
      "note": 70,
      "start": 5.917,
      "duration": 0.13,
      "velocity": 79,
      "chip": "ym2612"
    },
    {
      "channel": 1,
      "note": 57,
      "start": 6.0429,
      "duration": 0.1327,
      "velocity": 80,
      "chip": "ym2612"
    },
    {
      "channel": 3,
      "note": 79,
      "start": 6.0436,
      "duration": 0.1327,
      "velocity": 98,
      "chip": "ym2612"
    },
    {
      "channel": 2,
      "note": 25,
      "start": 6.0476,
      "duration": 0.2663,
      "velocity": 79,
      "chip": "ym2612"
    },
    {
      "channel": 1,
      "note": 69,
      "start": 6.1762,
      "duration": 0.1327,
      "velocity": 80,
      "chip": "ym2612"
    },
    {
      "channel": 3,
      "note": 81,
      "start": 6.177,
      "duration": 0.1327,
      "velocity": 98,
      "chip": "ym2612"
    },
    {
      "channel": 5,
      "note": 72,
      "start": 6.1805,
      "duration": 0.1327,
      "velocity": 100,
      "chip": "ym2612"
    },
    {
      "channel": 1,
      "note": 57,
      "start": 6.3095,
      "duration": 0.1329,
      "velocity": 80,
      "chip": "ym2612"
    },
    {
      "channel": 3,
      "note": 83,
      "start": 6.3103,
      "duration": 0.1329,
      "velocity": 98,
      "chip": "ym2612"
    },
    {
      "channel": 5,
      "note": 72,
      "start": 6.3138,
      "duration": 0.133,
      "velocity": 100,
      "chip": "ym2612"
    },
    {
      "channel": 1,
      "note": 55,
      "start": 6.4431,
      "duration": 0.1324,
      "velocity": 80,
      "chip": "ym2612"
    },
    {
      "channel": 3,
      "note": 55,
      "start": 6.4439,
      "duration": 0.1324,
      "velocity": 98,
      "chip": "ym2612"
    },
    {
      "channel": 5,
      "note": 72,
      "start": 6.4475,
      "duration": 0.1324,
      "velocity": 100,
      "chip": "ym2612"
    },
    {
      "channel": 2,
      "note": 25,
      "start": 6.4511,
      "duration": 0.2625,
      "velocity": 79,
      "chip": "ym2612"
    },
    {
      "channel": 1,
      "note": 55,
      "start": 6.5762,
      "duration": 0.1327,
      "velocity": 80,
      "chip": "ym2612"
    },
    {
      "channel": 3,
      "note": 57,
      "start": 6.5769,
      "duration": 0.1323,
      "velocity": 98,
      "chip": "ym2612"
    },
    {
      "channel": 5,
      "note": 72,
      "start": 6.5805,
      "duration": 0.1322,
      "velocity": 100,
      "chip": "ym2612"
    },
    {
      "channel": 3,
      "note": 58,
      "start": 6.7099,
      "duration": 0.1331,
      "velocity": 98,
      "chip": "ym2612"
    },
    {
      "channel": 5,
      "note": 72,
      "start": 6.7134,
      "duration": 0.1332,
      "velocity": 100,
      "chip": "ym2612"
    },
    {
      "channel": 1,
      "note": 55,
      "start": 6.8429,
      "duration": 0.1327,
      "velocity": 80,
      "chip": "ym2612"
    },
    {
      "channel": 3,
      "note": 60,
      "start": 6.8436,
      "duration": 0.1323,
      "velocity": 98,
      "chip": "ym2612"
    },
    {
      "channel": 5,
      "note": 72,
      "start": 6.8471,
      "duration": 0.1322,
      "velocity": 100,
      "chip": "ym2612"
    },
    {
      "channel": 3,
      "note": 62,
      "start": 6.9765,
      "duration": 0.1331,
      "velocity": 98,
      "chip": "ym2612"
    },
    {
      "channel": 5,
      "note": 72,
      "start": 6.98,
      "duration": 0.2665,
      "velocity": 100,
      "chip": "ym2612"
    },
    {
      "channel": 2,
      "note": 70,
      "start": 6.9837,
      "duration": 0.13,
      "velocity": 79,
      "chip": "ym2612"
    },
    {
      "channel": 1,
      "note": 55,
      "start": 7.1095,
      "duration": 0.1327,
      "velocity": 80,
      "chip": "ym2612"
    },
    {
      "channel": 3,
      "note": 63,
      "start": 7.1103,
      "duration": 0.1327,
      "velocity": 98,
      "chip": "ym2612"
    },
    {
      "channel": 2,
      "note": 25,
      "start": 7.1143,
      "duration": 0.2663,
      "velocity": 79,
      "chip": "ym2612"
    },
    {
      "channel": 1,
      "note": 67,
      "start": 7.2429,
      "duration": 0.1327,
      "velocity": 80,
      "chip": "ym2612"
    },
    {
      "channel": 3,
      "note": 65,
      "start": 7.2436,
      "duration": 0.1327,
      "velocity": 98,
      "chip": "ym2612"
    },
    {
      "channel": 5,
      "note": 72,
      "start": 7.2471,
      "duration": 0.1327,
      "velocity": 100,
      "chip": "ym2612"
    },
    {
      "channel": 1,
      "note": 55,
      "start": 7.3762,
      "duration": 0.1327,
      "velocity": 80,
      "chip": "ym2612"
    },
    {
      "channel": 3,
      "note": 67,
      "start": 7.377,
      "duration": 0.1327,
      "velocity": 98,
      "chip": "ym2612"
    },
    {
      "channel": 5,
      "note": 72,
      "start": 7.3805,
      "duration": 0.1327,
      "velocity": 100,
      "chip": "ym2612"
    },
    {
      "channel": 1,
      "note": 55,
      "start": 7.5095,
      "duration": 0.1327,
      "velocity": 80,
      "chip": "ym2612"
    },
    {
      "channel": 3,
      "note": 69,
      "start": 7.5103,
      "duration": 0.1327,
      "velocity": 98,
      "chip": "ym2612"
    },
    {
      "channel": 5,
      "note": 72,
      "start": 7.5139,
      "duration": 0.1327,
      "velocity": 100,
      "chip": "ym2612"
    },
    {
      "channel": 1,
      "note": 55,
      "start": 7.6429,
      "duration": 0.1327,
      "velocity": 80,
      "chip": "ym2612"
    },
    {
      "channel": 3,
      "note": 70,
      "start": 7.6436,
      "duration": 0.1323,
      "velocity": 98,
      "chip": "ym2612"
    },
    {
      "channel": 5,
      "note": 72,
      "start": 7.6471,
      "duration": 0.1322,
      "velocity": 100,
      "chip": "ym2612"
    },
    {
      "channel": 3,
      "note": 72,
      "start": 7.7765,
      "duration": 0.1331,
      "velocity": 98,
      "chip": "ym2612"
    },
    {
      "channel": 5,
      "note": 72,
      "start": 7.78,
      "duration": 0.1332,
      "velocity": 100,
      "chip": "ym2612"
    },
    {
      "channel": 2,
      "note": 25,
      "start": 7.7836,
      "duration": 0.2663,
      "velocity": 127,
      "chip": "ym2612"
    },
    {
      "channel": 1,
      "note": 55,
      "start": 7.9095,
      "duration": 0.1329,
      "velocity": 80,
      "chip": "ym2612"
    },
    {
      "channel": 3,
      "note": 74,
      "start": 7.9103,
      "duration": 0.1325,
      "velocity": 98,
      "chip": "ym2612"
    },
    {
      "channel": 5,
      "note": 72,
      "start": 7.9138,
      "duration": 0.1325,
      "velocity": 100,
      "chip": "ym2612"
    },
    {
      "channel": 3,
      "note": 75,
      "start": 8.0434,
      "duration": 0.1336,
      "velocity": 98,
      "chip": "ym2612"
    },
    {
      "channel": 5,
      "note": 72,
      "start": 8.0469,
      "duration": 0.2674,
      "velocity": 100,
      "chip": "ym2612"
    },
    {
      "channel": 2,
      "note": 70,
      "start": 8.0506,
      "duration": 0.1305,
      "velocity": 79,
      "chip": "ym2612"
    },
    {
      "channel": 0,
      "note": 67,
      "start": 8.1761,
      "duration": 0.1328,
      "velocity": 98,
      "chip": "ym2612"
    },
    {
      "channel": 1,
      "note": 55,
      "start": 8.1768,
      "duration": 0.1327,
      "velocity": 80,
      "chip": "ym2612"
    },
    {
      "channel": 3,
      "note": 77,
      "start": 8.1776,
      "duration": 0.1328,
      "velocity": 98,
      "chip": "ym2612"
    },
    {
      "channel": 2,
      "note": 25,
      "start": 8.1816,
      "duration": 0.2668,
      "velocity": 79,
      "chip": "ym2612"
    },
    {
      "channel": 4,
      "note": 79,
      "start": 8.2273,
      "duration": 0.1326,
      "velocity": 98,
      "chip": "ym2612"
    },
    {
      "channel": 0,
      "note": 69,
      "start": 8.3095,
      "duration": 0.1327,
      "velocity": 98,
      "chip": "ym2612"
    },
    {
      "channel": 1,
      "note": 67,
      "start": 8.3102,
      "duration": 0.1327,
      "velocity": 80,
      "chip": "ym2612"
    },
    {
      "channel": 3,
      "note": 79,
      "start": 8.311,
      "duration": 0.1327,
      "velocity": 98,
      "chip": "ym2612"
    },
    {
      "channel": 5,
      "note": 72,
      "start": 8.3149,
      "duration": 0.1327,
      "velocity": 100,
      "chip": "ym2612"
    },
    {
      "channel": 4,
      "note": 81,
      "start": 8.3607,
      "duration": 0.1326,
      "velocity": 98,
      "chip": "ym2612"
    },
    {
      "channel": 0,
      "note": 71,
      "start": 8.4428,
      "duration": 0.1327,
      "velocity": 98,
      "chip": "ym2612"
    },
    {
      "channel": 1,
      "note": 55,
      "start": 8.4436,
      "duration": 0.1328,
      "velocity": 80,
      "chip": "ym2612"
    },
    {
      "channel": 3,
      "note": 81,
      "start": 8.4443,
      "duration": 0.1329,
      "velocity": 98,
      "chip": "ym2612"
    },
    {
      "channel": 5,
      "note": 72,
      "start": 8.4483,
      "duration": 0.1329,
      "velocity": 100,
      "chip": "ym2612"
    },
    {
      "channel": 4,
      "note": 83,
      "start": 8.494,
      "duration": 0.1326,
      "velocity": 98,
      "chip": "ym2612"
    },
    {
      "channel": 0,
      "note": 72,
      "start": 8.5761,
      "duration": 0.3994,
      "velocity": 98,
      "chip": "ym2612"
    },
    {
      "channel": 1,
      "note": 57,
      "start": 8.577,
      "duration": 0.1322,
      "velocity": 80,
      "chip": "ym2612"
    },
    {
      "channel": 3,
      "note": 64,
      "start": 8.5779,
      "duration": 1.3317,
      "velocity": 98,
      "chip": "ym2612"
    },
    {
      "channel": 5,
      "note": 72,
      "start": 8.5819,
      "duration": 0.1316,
      "velocity": 100,
      "chip": "ym2612"
    },
    {
      "channel": 2,
      "note": 25,
      "start": 8.5855,
      "duration": 0.2617,
      "velocity": 79,
      "chip": "ym2612"
    },
    {
      "channel": 4,
      "note": 84,
      "start": 8.6273,
      "duration": 0.3992,
      "velocity": 98,
      "chip": "ym2612"
    },
    {
      "channel": 1,
      "note": 57,
      "start": 8.7098,
      "duration": 0.1328,
      "velocity": 80,
      "chip": "ym2612"
    },
    {
      "channel": 5,
      "note": 72,
      "start": 8.7141,
      "duration": 0.1322,
      "velocity": 100,
      "chip": "ym2612"
    },
    {
      "channel": 5,
      "note": 72,
      "start": 8.847,
      "duration": 0.1336,
      "velocity": 100,
      "chip": "ym2612"
    },
    {
      "channel": 0,
      "note": 74,
      "start": 8.9761,
      "duration": 0.1327,
      "velocity": 98,
      "chip": "ym2612"
    },
    {
      "channel": 1,
      "note": 57,
      "start": 8.9769,
      "duration": 0.1327,
      "velocity": 80,
      "chip": "ym2612"
    },
    {
      "channel": 5,
      "note": 72,
      "start": 8.9812,
      "duration": 0.1323,
      "velocity": 100,
      "chip": "ym2612"
    },
    {
      "channel": 4,
      "note": 86,
      "start": 9.0273,
      "duration": 0.1323,
      "velocity": 98,
      "chip": "ym2612"
    },
    {
      "channel": 0,
      "note": 71,
      "start": 9.1095,
      "duration": 0.266,
      "velocity": 98,
      "chip": "ym2612"
    },
    {
      "channel": 5,
      "note": 72,
      "start": 9.1141,
      "duration": 0.2665,
      "velocity": 100,
      "chip": "ym2612"
    },
    {
      "channel": 2,
      "note": 70,
      "start": 9.1177,
      "duration": 0.1296,
      "velocity": 79,
      "chip": "ym2612"
    },
    {
      "channel": 4,
      "note": 83,
      "start": 9.1604,
      "duration": 0.2661,
      "velocity": 98,
      "chip": "ym2612"
    },
    {
      "channel": 1,
      "note": 57,
      "start": 9.2431,
      "duration": 0.1331,
      "velocity": 80,
      "chip": "ym2612"
    },
    {
      "channel": 2,
      "note": 25,
      "start": 9.248,
      "duration": 0.2667,
      "velocity": 79,
      "chip": "ym2612"
    },
    {
      "channel": 0,
      "note": 72,
      "start": 9.3761,
      "duration": 0.1327,
      "velocity": 98,
      "chip": "ym2612"
    },
    {
      "channel": 1,
      "note": 69,
      "start": 9.3769,
      "duration": 0.1327,
      "velocity": 80,
      "chip": "ym2612"
    },
    {
      "channel": 5,
      "note": 72,
      "start": 9.3812,
      "duration": 0.1327,
      "velocity": 100,
      "chip": "ym2612"
    },
    {
      "channel": 4,
      "note": 84,
      "start": 9.4273,
      "duration": 0.1326,
      "velocity": 98,
      "chip": "ym2612"
    },
    {
      "channel": 0,
      "note": 69,
      "start": 9.5095,
      "duration": 0.7994,
      "velocity": 98,
      "chip": "ym2612"
    },
    {
      "channel": 1,
      "note": 57,
      "start": 9.5102,
      "duration": 0.1323,
      "velocity": 80,
      "chip": "ym2612"
    },
    {
      "channel": 5,
      "note": 72,
      "start": 9.5146,
      "duration": 0.1323,
      "velocity": 100,
      "chip": "ym2612"
    },
    {
      "channel": 4,
      "note": 81,
      "start": 9.5607,
      "duration": 0.7992,
      "velocity": 98,
      "chip": "ym2612"
    },
    {
      "channel": 1,
      "note": 57,
      "start": 9.6431,
      "duration": 0.1328,
      "velocity": 80,
      "chip": "ym2612"
    },
    {
      "channel": 5,
      "note": 72,
      "start": 9.6475,
      "duration": 0.1327,
      "velocity": 100,
      "chip": "ym2612"
    },
    {
      "channel": 1,
      "note": 57,
      "start": 9.7765,
      "duration": 0.1328,
      "velocity": 80,
      "chip": "ym2612"
    },
    {
      "channel": 5,
      "note": 72,
      "start": 9.7808,
      "duration": 0.1327,
      "velocity": 100,
      "chip": "ym2612"
    },
    {
      "channel": 3,
      "note": 67,
      "start": 9.9101,
      "duration": 0.4002,
      "velocity": 98,
      "chip": "ym2612"
    },
    {
      "channel": 5,
      "note": 72,
      "start": 9.9141,
      "duration": 0.1328,
      "velocity": 100,
      "chip": "ym2612"
    },
    {
      "channel": 2,
      "note": 25,
      "start": 9.9176,
      "duration": 0.2657,
      "velocity": 127,
      "chip": "ym2612"
    },
    {
      "channel": 1,
      "note": 57,
      "start": 10.0431,
      "duration": 0.1328,
      "velocity": 80,
      "chip": "ym2612"
    },
    {
      "channel": 5,
      "note": 72,
      "start": 10.0475,
      "duration": 0.1322,
      "velocity": 100,
      "chip": "ym2612"
    },
    {
      "channel": 5,
      "note": 72,
      "start": 10.1803,
      "duration": 0.2669,
      "velocity": 100,
      "chip": "ym2612"
    },
    {
      "channel": 2,
      "note": 70,
      "start": 10.184,
      "duration": 0.1308,
      "velocity": 79,
      "chip": "ym2612"
    },
    {
      "channel": 0,
      "note": 67,
      "start": 10.3095,
      "duration": 0.1327,
      "velocity": 98,
      "chip": "ym2612"
    },
    {
      "channel": 1,
      "note": 57,
      "start": 10.3102,
      "duration": 0.1327,
      "velocity": 80,
      "chip": "ym2612"
    },
    {
      "channel": 3,
      "note": 65,
      "start": 10.311,
      "duration": 0.3994,
      "velocity": 98,
      "chip": "ym2612"
    },
    {
      "channel": 2,
      "note": 25,
      "start": 10.3154,
      "duration": 0.266,
      "velocity": 79,
      "chip": "ym2612"
    },
    {
      "channel": 4,
      "note": 79,
      "start": 10.3607,
      "duration": 0.1326,
      "velocity": 98,
      "chip": "ym2612"
    },
    {
      "channel": 0,
      "note": 69,
      "start": 10.4428,
      "duration": 0.1327,
      "velocity": 98,
      "chip": "ym2612"
    },
    {
      "channel": 1,
      "note": 69,
      "start": 10.4436,
      "duration": 0.1327,
      "velocity": 80,
      "chip": "ym2612"
    },
    {
      "channel": 5,
      "note": 72,
      "start": 10.4478,
      "duration": 0.1328,
      "velocity": 100,
      "chip": "ym2612"
    },
    {
      "channel": 4,
      "note": 81,
      "start": 10.494,
      "duration": 0.1326,
      "velocity": 98,
      "chip": "ym2612"
    },
    {
      "channel": 0,
      "note": 71,
      "start": 10.5761,
      "duration": 0.1327,
      "velocity": 98,
      "chip": "ym2612"
    },
    {
      "channel": 1,
      "note": 57,
      "start": 10.5769,
      "duration": 0.1327,
      "velocity": 80,
      "chip": "ym2612"
    },
    {
      "channel": 5,
      "note": 72,
      "start": 10.5812,
      "duration": 0.1332,
      "velocity": 100,
      "chip": "ym2612"
    },
    {
      "channel": 4,
      "note": 83,
      "start": 10.6273,
      "duration": 0.1326,
      "velocity": 98,
      "chip": "ym2612"
    },
    {
      "channel": 0,
      "note": 72,
      "start": 10.7095,
      "duration": 0.3994,
      "velocity": 98,
      "chip": "ym2612"
    },
    {
      "channel": 1,
      "note": 55,
      "start": 10.7102,
      "duration": 0.1323,
      "velocity": 80,
      "chip": "ym2612"
    },
    {
      "channel": 3,
      "note": 64,
      "start": 10.711,
      "duration": 1.3319,
      "velocity": 98,
      "chip": "ym2612"
    },
    {
      "channel": 5,
      "note": 72,
      "start": 10.715,
      "duration": 0.1318,
      "velocity": 100,
      "chip": "ym2612"
    },
    {
      "channel": 2,
      "note": 25,
      "start": 10.7186,
      "duration": 0.2618,
      "velocity": 79,
      "chip": "ym2612"
    },
    {
      "channel": 4,
      "note": 84,
      "start": 10.7607,
      "duration": 0.3992,
      "velocity": 98,
      "chip": "ym2612"
    },
    {
      "channel": 1,
      "note": 55,
      "start": 10.8431,
      "duration": 0.1328,
      "velocity": 80,
      "chip": "ym2612"
    },
    {
      "channel": 5,
      "note": 72,
      "start": 10.8475,
      "duration": 0.1322,
      "velocity": 100,
      "chip": "ym2612"
    },
    {
      "channel": 5,
      "note": 72,
      "start": 10.9803,
      "duration": 0.1336,
      "velocity": 100,
      "chip": "ym2612"
    },
    {
      "channel": 0,
      "note": 74,
      "start": 11.1095,
      "duration": 0.1327,
      "velocity": 98,
      "chip": "ym2612"
    },
    {
      "channel": 1,
      "note": 55,
      "start": 11.1102,
      "duration": 0.1327,
      "velocity": 80,
      "chip": "ym2612"
    },
    {
      "channel": 5,
      "note": 72,
      "start": 11.1145,
      "duration": 0.1323,
      "velocity": 100,
      "chip": "ym2612"
    },
    {
      "channel": 4,
      "note": 86,
      "start": 11.1607,
      "duration": 0.1323,
      "velocity": 98,
      "chip": "ym2612"
    },
    {
      "channel": 0,
      "note": 71,
      "start": 11.2428,
      "duration": 0.266,
      "velocity": 98,
      "chip": "ym2612"
    },
    {
      "channel": 5,
      "note": 72,
      "start": 11.2475,
      "duration": 0.2665,
      "velocity": 100,
      "chip": "ym2612"
    },
    {
      "channel": 2,
      "note": 70,
      "start": 11.251,
      "duration": 0.1296,
      "velocity": 79,
      "chip": "ym2612"
    },
    {
      "channel": 4,
      "note": 83,
      "start": 11.2938,
      "duration": 0.2661,
      "velocity": 98,
      "chip": "ym2612"
    },
    {
      "channel": 1,
      "note": 55,
      "start": 11.3765,
      "duration": 0.1331,
      "velocity": 80,
      "chip": "ym2612"
    },
    {
      "channel": 2,
      "note": 25,
      "start": 11.3813,
      "duration": 0.2667,
      "velocity": 79,
      "chip": "ym2612"
    },
    {
      "channel": 0,
      "note": 72,
      "start": 11.5095,
      "duration": 0.1327,
      "velocity": 98,
      "chip": "ym2612"
    },
    {
      "channel": 1,
      "note": 67,
      "start": 11.5102,
      "duration": 0.1327,
      "velocity": 80,
      "chip": "ym2612"
    },
    {
      "channel": 5,
      "note": 72,
      "start": 11.5146,
      "duration": 0.1327,
      "velocity": 100,
      "chip": "ym2612"
    },
    {
      "channel": 4,
      "note": 84,
      "start": 11.5607,
      "duration": 0.1326,
      "velocity": 98,
      "chip": "ym2612"
    },
    {
      "channel": 0,
      "note": 69,
      "start": 11.6428,
      "duration": 0.7994,
      "velocity": 98,
      "chip": "ym2612"
    },
    {
      "channel": 1,
      "note": 55,
      "start": 11.6436,
      "duration": 0.1323,
      "velocity": 80,
      "chip": "ym2612"
    },
    {
      "channel": 5,
      "note": 72,
      "start": 11.6478,
      "duration": 0.1324,
      "velocity": 100,
      "chip": "ym2612"
    },
    {
      "channel": 4,
      "note": 81,
      "start": 11.694,
      "duration": 0.7992,
      "velocity": 98,
      "chip": "ym2612"
    },
    {
      "channel": 1,
      "note": 55,
      "start": 11.7765,
      "duration": 0.1328,
      "velocity": 80,
      "chip": "ym2612"
    },
    {
      "channel": 5,
      "note": 72,
      "start": 11.7808,
      "duration": 0.1327,
      "velocity": 100,
      "chip": "ym2612"
    },
    {
      "channel": 1,
      "note": 55,
      "start": 11.9098,
      "duration": 0.1328,
      "velocity": 80,
      "chip": "ym2612"
    },
    {
      "channel": 5,
      "note": 72,
      "start": 11.9141,
      "duration": 0.1327,
      "velocity": 100,
      "chip": "ym2612"
    },
    {
      "channel": 3,
      "note": 67,
      "start": 12.0434,
      "duration": 0.4002,
      "velocity": 98,
      "chip": "ym2612"
    },
    {
      "channel": 5,
      "note": 72,
      "start": 12.0474,
      "duration": 0.1328,
      "velocity": 100,
      "chip": "ym2612"
    },
    {
      "channel": 2,
      "note": 25,
      "start": 12.051,
      "duration": 0.2657,
      "velocity": 127,
      "chip": "ym2612"
    },
    {
      "channel": 1,
      "note": 55,
      "start": 12.1765,
      "duration": 0.1328,
      "velocity": 80,
      "chip": "ym2612"
    },
    {
      "channel": 5,
      "note": 72,
      "start": 12.1808,
      "duration": 0.1322,
      "velocity": 100,
      "chip": "ym2612"
    },
    {
      "channel": 5,
      "note": 72,
      "start": 12.3137,
      "duration": 0.2665,
      "velocity": 100,
      "chip": "ym2612"
    },
    {
      "channel": 2,
      "note": 70,
      "start": 12.3173,
      "duration": 0.1308,
      "velocity": 79,
      "chip": "ym2612"
    },
    {
      "channel": 0,
      "note": 76,
      "start": 12.4428,
      "duration": 0.3994,
      "velocity": 98,
      "chip": "ym2612"
    },
    {
      "channel": 1,
      "note": 55,
      "start": 12.4436,
      "duration": 0.1323,
      "velocity": 80,
      "chip": "ym2612"
    },
    {
      "channel": 3,
      "note": 59,
      "start": 12.4443,
      "duration": 0.3995,
      "velocity": 98,
      "chip": "ym2612"
    },
    {
      "channel": 2,
      "note": 25,
      "start": 12.4487,
      "duration": 0.2655,
      "velocity": 79,
      "chip": "ym2612"
    },
    {
      "channel": 4,
      "note": 88,
      "start": 12.494,
      "duration": 0.3992,
      "velocity": 98,
      "chip": "ym2612"
    },
    {
      "channel": 1,
      "note": 67,
      "start": 12.5765,
      "duration": 0.1328,
      "velocity": 80,
      "chip": "ym2612"
    },
    {
      "channel": 5,
      "note": 72,
      "start": 12.5808,
      "duration": 0.1327,
      "velocity": 100,
      "chip": "ym2612"
    },
    {
      "channel": 1,
      "note": 55,
      "start": 12.7098,
      "duration": 0.1333,
      "velocity": 80,
      "chip": "ym2612"
    },
    {
      "channel": 5,
      "note": 72,
      "start": 12.7141,
      "duration": 0.1337,
      "velocity": 100,
      "chip": "ym2612"
    },
    {
      "channel": 0,
      "note": 69,
      "start": 12.8428,
      "duration": 2.1328,
      "velocity": 98,
      "chip": "ym2612"
    },
    {
      "channel": 1,
      "note": 57,
      "start": 12.8437,
      "duration": 0.1322,
      "velocity": 80,
      "chip": "ym2612"
    },
    {
      "channel": 3,
      "note": 57,
      "start": 12.8445,
      "duration": 2.1322,
      "velocity": 98,
      "chip": "ym2612"
    },
    {
      "channel": 5,
      "note": 72,
      "start": 12.8485,
      "duration": 0.1317,
      "velocity": 100,
      "chip": "ym2612"
    },
    {
      "channel": 2,
      "note": 25,
      "start": 12.8521,
      "duration": 0.2617,
      "velocity": 79,
      "chip": "ym2612"
    },
    {
      "channel": 4,
      "note": 81,
      "start": 12.894,
      "duration": 2.1324,
      "velocity": 98,
      "chip": "ym2612"
    },
    {
      "channel": 1,
      "note": 57,
      "start": 12.9765,
      "duration": 0.1328,
      "velocity": 80,
      "chip": "ym2612"
    },
    {
      "channel": 5,
      "note": 72,
      "start": 12.9808,
      "duration": 0.1322,
      "velocity": 100,
      "chip": "ym2612"
    },
    {
      "channel": 5,
      "note": 72,
      "start": 13.1137,
      "duration": 0.1332,
      "velocity": 100,
      "chip": "ym2612"
    },
    {
      "channel": 1,
      "note": 57,
      "start": 13.2431,
      "duration": 0.1328,
      "velocity": 80,
      "chip": "ym2612"
    },
    {
      "channel": 5,
      "note": 72,
      "start": 13.2475,
      "duration": 0.1322,
      "velocity": 100,
      "chip": "ym2612"
    },
    {
      "channel": 5,
      "note": 72,
      "start": 13.3803,
      "duration": 0.2665,
      "velocity": 100,
      "chip": "ym2612"
    },
    {
      "channel": 2,
      "note": 70,
      "start": 13.384,
      "duration": 0.13,
      "velocity": 79,
      "chip": "ym2612"
    },
    {
      "channel": 1,
      "note": 57,
      "start": 13.5098,
      "duration": 0.1328,
      "velocity": 80,
      "chip": "ym2612"
    },
    {
      "channel": 2,
      "note": 25,
      "start": 13.5146,
      "duration": 0.2663,
      "velocity": 79,
      "chip": "ym2612"
    },
    {
      "channel": 1,
      "note": 69,
      "start": 13.6431,
      "duration": 0.1328,
      "velocity": 80,
      "chip": "ym2612"
    },
    {
      "channel": 5,
      "note": 72,
      "start": 13.6475,
      "duration": 0.1327,
      "velocity": 100,
      "chip": "ym2612"
    },
    {
      "channel": 1,
      "note": 57,
      "start": 13.7765,
      "duration": 0.1328,
      "velocity": 80,
      "chip": "ym2612"
    },
    {
      "channel": 5,
      "note": 72,
      "start": 13.7808,
      "duration": 0.1327,
      "velocity": 100,
      "chip": "ym2612"
    },
    {
      "channel": 1,
      "note": 57,
      "start": 13.9098,
      "duration": 0.1328,
      "velocity": 80,
      "chip": "ym2612"
    },
    {
      "channel": 5,
      "note": 72,
      "start": 13.9142,
      "duration": 0.1327,
      "velocity": 100,
      "chip": "ym2612"
    },
    {
      "channel": 1,
      "note": 57,
      "start": 14.0431,
      "duration": 0.1328,
      "velocity": 80,
      "chip": "ym2612"
    },
    {
      "channel": 5,
      "note": 72,
      "start": 14.0475,
      "duration": 0.1322,
      "velocity": 100,
      "chip": "ym2612"
    },
    {
      "channel": 5,
      "note": 72,
      "start": 14.1803,
      "duration": 0.1332,
      "velocity": 100,
      "chip": "ym2612"
    },
    {
      "channel": 2,
      "note": 25,
      "start": 14.1839,
      "duration": 0.2661,
      "velocity": 127,
      "chip": "ym2612"
    },
    {
      "channel": 1,
      "note": 57,
      "start": 14.3098,
      "duration": 0.1328,
      "velocity": 80,
      "chip": "ym2612"
    },
    {
      "channel": 5,
      "note": 72,
      "start": 14.3141,
      "duration": 0.1322,
      "velocity": 100,
      "chip": "ym2612"
    },
    {
      "channel": 5,
      "note": 72,
      "start": 14.447,
      "duration": 0.2665,
      "velocity": 100,
      "chip": "ym2612"
    },
    {
      "channel": 2,
      "note": 70,
      "start": 14.4506,
      "duration": 0.13,
      "velocity": 79,
      "chip": "ym2612"
    },
    {
      "channel": 1,
      "note": 57,
      "start": 14.5765,
      "duration": 0.1328,
      "velocity": 80,
      "chip": "ym2612"
    },
    {
      "channel": 2,
      "note": 25,
      "start": 14.5813,
      "duration": 0.2663,
      "velocity": 79,
      "chip": "ym2612"
    },
    {
      "channel": 1,
      "note": 69,
      "start": 14.7098,
      "duration": 0.1328,
      "velocity": 80,
      "chip": "ym2612"
    },
    {
      "channel": 5,
      "note": 72,
      "start": 14.7141,
      "duration": 0.1327,
      "velocity": 100,
      "chip": "ym2612"
    },
    {
      "channel": 1,
      "note": 57,
      "start": 14.8431,
      "duration": 0.1328,
      "velocity": 80,
      "chip": "ym2612"
    },
    {
      "channel": 5,
      "note": 72,
      "start": 14.8475,
      "duration": 0.1332,
      "velocity": 100,
      "chip": "ym2612"
    },
    {
      "channel": 1,
      "note": 55,
      "start": 14.9765,
      "duration": 0.1324,
      "velocity": 80,
      "chip": "ym2612"
    },
    {
      "channel": 3,
      "note": 55,
      "start": 14.9773,
      "duration": 0.1324,
      "velocity": 98,
      "chip": "ym2612"
    },
    {
      "channel": 5,
      "note": 72,
      "start": 14.9813,
      "duration": 0.1319,
      "velocity": 100,
      "chip": "ym2612"
    },
    {
      "channel": 2,
      "note": 25,
      "start": 14.9849,
      "duration": 0.2619,
      "velocity": 79,
      "chip": "ym2612"
    },
    {
      "channel": 1,
      "note": 55,
      "start": 15.1095,
      "duration": 0.1327,
      "velocity": 80,
      "chip": "ym2612"
    },
    {
      "channel": 3,
      "note": 57,
      "start": 15.1103,
      "duration": 0.1323,
      "velocity": 98,
      "chip": "ym2612"
    },
    {
      "channel": 5,
      "note": 72,
      "start": 15.1138,
      "duration": 0.1322,
      "velocity": 100,
      "chip": "ym2612"
    },
    {
      "channel": 3,
      "note": 59,
      "start": 15.2432,
      "duration": 0.1331,
      "velocity": 98,
      "chip": "ym2612"
    },
    {
      "channel": 5,
      "note": 72,
      "start": 15.2467,
      "duration": 0.1332,
      "velocity": 100,
      "chip": "ym2612"
    },
    {
      "channel": 1,
      "note": 55,
      "start": 15.3762,
      "duration": 0.1327,
      "velocity": 80,
      "chip": "ym2612"
    },
    {
      "channel": 3,
      "note": 60,
      "start": 15.377,
      "duration": 0.1323,
      "velocity": 98,
      "chip": "ym2612"
    },
    {
      "channel": 5,
      "note": 72,
      "start": 15.3805,
      "duration": 0.1322,
      "velocity": 100,
      "chip": "ym2612"
    },
    {
      "channel": 3,
      "note": 62,
      "start": 15.5099,
      "duration": 0.1331,
      "velocity": 98,
      "chip": "ym2612"
    },
    {
      "channel": 5,
      "note": 72,
      "start": 15.5134,
      "duration": 0.2665,
      "velocity": 100,
      "chip": "ym2612"
    },
    {
      "channel": 2,
      "note": 70,
      "start": 15.517,
      "duration": 0.13,
      "velocity": 79,
      "chip": "ym2612"
    },
    {
      "channel": 1,
      "note": 55,
      "start": 15.6429,
      "duration": 0.1327,
      "velocity": 80,
      "chip": "ym2612"
    },
    {
      "channel": 3,
      "note": 64,
      "start": 15.6436,
      "duration": 0.1328,
      "velocity": 98,
      "chip": "ym2612"
    },
    {
      "channel": 2,
      "note": 25,
      "start": 15.6476,
      "duration": 0.2663,
      "velocity": 79,
      "chip": "ym2612"
    },
    {
      "channel": 1,
      "note": 67,
      "start": 15.7762,
      "duration": 0.1327,
      "velocity": 80,
      "chip": "ym2612"
    },
    {
      "channel": 3,
      "note": 65,
      "start": 15.777,
      "duration": 0.1327,
      "velocity": 98,
      "chip": "ym2612"
    },
    {
      "channel": 5,
      "note": 72,
      "start": 15.7805,
      "duration": 0.1327,
      "velocity": 100,
      "chip": "ym2612"
    },
    {
      "channel": 1,
      "note": 55,
      "start": 15.9095,
      "duration": 0.1327,
      "velocity": 80,
      "chip": "ym2612"
    },
    {
      "channel": 3,
      "note": 67,
      "start": 15.9103,
      "duration": 0.1327,
      "velocity": 98,
      "chip": "ym2612"
    },
    {
      "channel": 5,
      "note": 72,
      "start": 15.9138,
      "duration": 0.1327,
      "velocity": 100,
      "chip": "ym2612"
    },
    {
      "channel": 1,
      "note": 55,
      "start": 16.0429,
      "duration": 0.1327,
      "velocity": 80,
      "chip": "ym2612"
    },
    {
      "channel": 3,
      "note": 69,
      "start": 16.0436,
      "duration": 0.1327,
      "velocity": 98,
      "chip": "ym2612"
    },
    {
      "channel": 5,
      "note": 72,
      "start": 16.0472,
      "duration": 0.1327,
      "velocity": 100,
      "chip": "ym2612"
    },
    {
      "channel": 1,
      "note": 55,
      "start": 16.1762,
      "duration": 0.1327,
      "velocity": 80,
      "chip": "ym2612"
    },
    {
      "channel": 3,
      "note": 71,
      "start": 16.177,
      "duration": 0.1323,
      "velocity": 98,
      "chip": "ym2612"
    },
    {
      "channel": 5,
      "note": 72,
      "start": 16.1805,
      "duration": 0.1322,
      "velocity": 100,
      "chip": "ym2612"
    },
    {
      "channel": 3,
      "note": 72,
      "start": 16.3099,
      "duration": 0.1331,
      "velocity": 98,
      "chip": "ym2612"
    },
    {
      "channel": 5,
      "note": 72,
      "start": 16.3134,
      "duration": 0.1332,
      "velocity": 100,
      "chip": "ym2612"
    },
    {
      "channel": 2,
      "note": 25,
      "start": 16.3169,
      "duration": 0.2663,
      "velocity": 127,
      "chip": "ym2612"
    },
    {
      "channel": 1,
      "note": 55,
      "start": 16.4429,
      "duration": 0.1329,
      "velocity": 80,
      "chip": "ym2612"
    },
    {
      "channel": 3,
      "note": 74,
      "start": 16.4436,
      "duration": 0.1325,
      "velocity": 98,
      "chip": "ym2612"
    },
    {
      "channel": 5,
      "note": 72,
      "start": 16.4471,
      "duration": 0.1325,
      "velocity": 100,
      "chip": "ym2612"
    },
    {
      "channel": 3,
      "note": 76,
      "start": 16.5768,
      "duration": 0.1336,
      "velocity": 98,
      "chip": "ym2612"
    },
    {
      "channel": 5,
      "note": 72,
      "start": 16.5803,
      "duration": 0.2674,
      "velocity": 100,
      "chip": "ym2612"
    },
    {
      "channel": 2,
      "note": 70,
      "start": 16.5839,
      "duration": 0.1305,
      "velocity": 79,
      "chip": "ym2612"
    },
    {
      "channel": 0,
      "note": 67,
      "start": 16.7094,
      "duration": 0.1328,
      "velocity": 98,
      "chip": "ym2612"
    },
    {
      "channel": 1,
      "note": 55,
      "start": 16.7102,
      "duration": 0.1327,
      "velocity": 80,
      "chip": "ym2612"
    },
    {
      "channel": 3,
      "note": 77,
      "start": 16.7109,
      "duration": 0.1328,
      "velocity": 98,
      "chip": "ym2612"
    },
    {
      "channel": 2,
      "note": 25,
      "start": 16.7149,
      "duration": 0.2668,
      "velocity": 79,
      "chip": "ym2612"
    },
    {
      "channel": 4,
      "note": 79,
      "start": 16.7607,
      "duration": 0.1326,
      "velocity": 98,
      "chip": "ym2612"
    },
    {
      "channel": 0,
      "note": 69,
      "start": 16.8428,
      "duration": 0.1327,
      "velocity": 98,
      "chip": "ym2612"
    },
    {
      "channel": 1,
      "note": 67,
      "start": 16.8436,
      "duration": 0.1327,
      "velocity": 80,
      "chip": "ym2612"
    },
    {
      "channel": 3,
      "note": 79,
      "start": 16.8443,
      "duration": 0.1327,
      "velocity": 98,
      "chip": "ym2612"
    },
    {
      "channel": 5,
      "note": 72,
      "start": 16.8483,
      "duration": 0.1327,
      "velocity": 100,
      "chip": "ym2612"
    },
    {
      "channel": 4,
      "note": 81,
      "start": 16.894,
      "duration": 0.1326,
      "velocity": 98,
      "chip": "ym2612"
    },
    {
      "channel": 0,
      "note": 71,
      "start": 16.9761,
      "duration": 0.1327,
      "velocity": 98,
      "chip": "ym2612"
    },
    {
      "channel": 1,
      "note": 55,
      "start": 16.9768,
      "duration": 0.1329,
      "velocity": 80,
      "chip": "ym2612"
    },
    {
      "channel": 3,
      "note": 81,
      "start": 16.9777,
      "duration": 0.1329,
      "velocity": 98,
      "chip": "ym2612"
    },
    {
      "channel": 5,
      "note": 72,
      "start": 16.9816,
      "duration": 0.1329,
      "velocity": 100,
      "chip": "ym2612"
    },
    {
      "channel": 4,
      "note": 83,
      "start": 17.0273,
      "duration": 0.1326,
      "velocity": 98,
      "chip": "ym2612"
    },
    {
      "channel": 0,
      "note": 72,
      "start": 17.1095,
      "duration": 0.3994,
      "velocity": 98,
      "chip": "ym2612"
    },
    {
      "channel": 1,
      "note": 57,
      "start": 17.1104,
      "duration": 0.1322,
      "velocity": 80,
      "chip": "ym2612"
    },
    {
      "channel": 3,
      "note": 64,
      "start": 17.1112,
      "duration": 1.3317,
      "velocity": 98,
      "chip": "ym2612"
    },
    {
      "channel": 5,
      "note": 72,
      "start": 17.1152,
      "duration": 0.1316,
      "velocity": 100,
      "chip": "ym2612"
    },
    {
      "channel": 2,
      "note": 25,
      "start": 17.1188,
      "duration": 0.2617,
      "velocity": 79,
      "chip": "ym2612"
    },
    {
      "channel": 4,
      "note": 84,
      "start": 17.1607,
      "duration": 0.3992,
      "velocity": 98,
      "chip": "ym2612"
    },
    {
      "channel": 1,
      "note": 57,
      "start": 17.2431,
      "duration": 0.1328,
      "velocity": 80,
      "chip": "ym2612"
    },
    {
      "channel": 5,
      "note": 72,
      "start": 17.2475,
      "duration": 0.1322,
      "velocity": 100,
      "chip": "ym2612"
    },
    {
      "channel": 5,
      "note": 72,
      "start": 17.3803,
      "duration": 0.1336,
      "velocity": 100,
      "chip": "ym2612"
    },
    {
      "channel": 0,
      "note": 74,
      "start": 17.5095,
      "duration": 0.1327,
      "velocity": 98,
      "chip": "ym2612"
    },
    {
      "channel": 1,
      "note": 57,
      "start": 17.5102,
      "duration": 0.1327,
      "velocity": 80,
      "chip": "ym2612"
    },
    {
      "channel": 5,
      "note": 72,
      "start": 17.5146,
      "duration": 0.1323,
      "velocity": 100,
      "chip": "ym2612"
    },
    {
      "channel": 4,
      "note": 86,
      "start": 17.5607,
      "duration": 0.1323,
      "velocity": 98,
      "chip": "ym2612"
    },
    {
      "channel": 0,
      "note": 71,
      "start": 17.6428,
      "duration": 0.266,
      "velocity": 98,
      "chip": "ym2612"
    },
    {
      "channel": 5,
      "note": 72,
      "start": 17.6475,
      "duration": 0.2665,
      "velocity": 100,
      "chip": "ym2612"
    },
    {
      "channel": 2,
      "note": 70,
      "start": 17.651,
      "duration": 0.1296,
      "velocity": 79,
      "chip": "ym2612"
    },
    {
      "channel": 4,
      "note": 83,
      "start": 17.6938,
      "duration": 0.2661,
      "velocity": 98,
      "chip": "ym2612"
    },
    {
      "channel": 1,
      "note": 57,
      "start": 17.7765,
      "duration": 0.1331,
      "velocity": 80,
      "chip": "ym2612"
    },
    {
      "channel": 2,
      "note": 25,
      "start": 17.7813,
      "duration": 0.2667,
      "velocity": 79,
      "chip": "ym2612"
    },
    {
      "channel": 0,
      "note": 72,
      "start": 17.9095,
      "duration": 0.1327,
      "velocity": 98,
      "chip": "ym2612"
    },
    {
      "channel": 1,
      "note": 69,
      "start": 17.9102,
      "duration": 0.1327,
      "velocity": 80,
      "chip": "ym2612"
    },
    {
      "channel": 5,
      "note": 72,
      "start": 17.9146,
      "duration": 0.1327,
      "velocity": 100,
      "chip": "ym2612"
    },
    {
      "channel": 4,
      "note": 84,
      "start": 17.9607,
      "duration": 0.1326,
      "velocity": 98,
      "chip": "ym2612"
    },
    {
      "channel": 0,
      "note": 69,
      "start": 18.0428,
      "duration": 0.7994,
      "velocity": 98,
      "chip": "ym2612"
    },
    {
      "channel": 1,
      "note": 57,
      "start": 18.0436,
      "duration": 0.1323,
      "velocity": 80,
      "chip": "ym2612"
    },
    {
      "channel": 5,
      "note": 72,
      "start": 18.0479,
      "duration": 0.1323,
      "velocity": 100,
      "chip": "ym2612"
    },
    {
      "channel": 4,
      "note": 81,
      "start": 18.094,
      "duration": 0.7992,
      "velocity": 98,
      "chip": "ym2612"
    },
    {
      "channel": 1,
      "note": 57,
      "start": 18.1765,
      "duration": 0.1327,
      "velocity": 80,
      "chip": "ym2612"
    },
    {
      "channel": 5,
      "note": 72,
      "start": 18.1808,
      "duration": 0.1327,
      "velocity": 100,
      "chip": "ym2612"
    },
    {
      "channel": 1,
      "note": 57,
      "start": 18.3098,
      "duration": 0.1328,
      "velocity": 80,
      "chip": "ym2612"
    },
    {
      "channel": 5,
      "note": 72,
      "start": 18.3141,
      "duration": 0.1327,
      "velocity": 100,
      "chip": "ym2612"
    },
    {
      "channel": 3,
      "note": 67,
      "start": 18.4434,
      "duration": 0.4002,
      "velocity": 98,
      "chip": "ym2612"
    },
    {
      "channel": 5,
      "note": 72,
      "start": 18.4474,
      "duration": 0.1328,
      "velocity": 100,
      "chip": "ym2612"
    },
    {
      "channel": 2,
      "note": 25,
      "start": 18.451,
      "duration": 0.2657,
      "velocity": 127,
      "chip": "ym2612"
    },
    {
      "channel": 1,
      "note": 57,
      "start": 18.5765,
      "duration": 0.1328,
      "velocity": 80,
      "chip": "ym2612"
    },
    {
      "channel": 5,
      "note": 72,
      "start": 18.5808,
      "duration": 0.1322,
      "velocity": 100,
      "chip": "ym2612"
    },
    {
      "channel": 5,
      "note": 72,
      "start": 18.7137,
      "duration": 0.2669,
      "velocity": 100,
      "chip": "ym2612"
    },
    {
      "channel": 2,
      "note": 70,
      "start": 18.7173,
      "duration": 0.1308,
      "velocity": 79,
      "chip": "ym2612"
    },
    {
      "channel": 0,
      "note": 67,
      "start": 18.8428,
      "duration": 0.1327,
      "velocity": 98,
      "chip": "ym2612"
    },
    {
      "channel": 1,
      "note": 57,
      "start": 18.8436,
      "duration": 0.1327,
      "velocity": 80,
      "chip": "ym2612"
    },
    {
      "channel": 3,
      "note": 65,
      "start": 18.8443,
      "duration": 0.3994,
      "velocity": 98,
      "chip": "ym2612"
    },
    {
      "channel": 2,
      "note": 25,
      "start": 18.8487,
      "duration": 0.266,
      "velocity": 79,
      "chip": "ym2612"
    },
    {
      "channel": 4,
      "note": 79,
      "start": 18.894,
      "duration": 0.1326,
      "velocity": 98,
      "chip": "ym2612"
    },
    {
      "channel": 0,
      "note": 69,
      "start": 18.9761,
      "duration": 0.1327,
      "velocity": 98,
      "chip": "ym2612"
    },
    {
      "channel": 1,
      "note": 69,
      "start": 18.9769,
      "duration": 0.1327,
      "velocity": 80,
      "chip": "ym2612"
    },
    {
      "channel": 5,
      "note": 72,
      "start": 18.9812,
      "duration": 0.1328,
      "velocity": 100,
      "chip": "ym2612"
    },
    {
      "channel": 4,
      "note": 81,
      "start": 19.0273,
      "duration": 0.1326,
      "velocity": 98,
      "chip": "ym2612"
    },
    {
      "channel": 0,
      "note": 71,
      "start": 19.1095,
      "duration": 0.1327,
      "velocity": 98,
      "chip": "ym2612"
    },
    {
      "channel": 1,
      "note": 57,
      "start": 19.1102,
      "duration": 0.1327,
      "velocity": 80,
      "chip": "ym2612"
    },
    {
      "channel": 5,
      "note": 72,
      "start": 19.1145,
      "duration": 0.1332,
      "velocity": 100,
      "chip": "ym2612"
    },
    {
      "channel": 4,
      "note": 83,
      "start": 19.1607,
      "duration": 0.1326,
      "velocity": 98,
      "chip": "ym2612"
    },
    {
      "channel": 0,
      "note": 72,
      "start": 19.2428,
      "duration": 0.3994,
      "velocity": 98,
      "chip": "ym2612"
    },
    {
      "channel": 1,
      "note": 55,
      "start": 19.2436,
      "duration": 0.1323,
      "velocity": 80,
      "chip": "ym2612"
    },
    {
      "channel": 3,
      "note": 64,
      "start": 19.2443,
      "duration": 1.3319,
      "velocity": 98,
      "chip": "ym2612"
    },
    {
      "channel": 5,
      "note": 72,
      "start": 19.2483,
      "duration": 0.1318,
      "velocity": 100,
      "chip": "ym2612"
    },
    {
      "channel": 2,
      "note": 25,
      "start": 19.252,
      "duration": 0.2618,
      "velocity": 79,
      "chip": "ym2612"
    },
    {
      "channel": 4,
      "note": 84,
      "start": 19.294,
      "duration": 0.3992,
      "velocity": 98,
      "chip": "ym2612"
    },
    {
      "channel": 1,
      "note": 55,
      "start": 19.3765,
      "duration": 0.1328,
      "velocity": 80,
      "chip": "ym2612"
    },
    {
      "channel": 5,
      "note": 72,
      "start": 19.3808,
      "duration": 0.1322,
      "velocity": 100,
      "chip": "ym2612"
    },
    {
      "channel": 5,
      "note": 72,
      "start": 19.5137,
      "duration": 0.1336,
      "velocity": 100,
      "chip": "ym2612"
    },
    {
      "channel": 0,
      "note": 74,
      "start": 19.6428,
      "duration": 0.1327,
      "velocity": 98,
      "chip": "ym2612"
    },
    {
      "channel": 1,
      "note": 55,
      "start": 19.6436,
      "duration": 0.1327,
      "velocity": 80,
      "chip": "ym2612"
    },
    {
      "channel": 5,
      "note": 72,
      "start": 19.6478,
      "duration": 0.1323,
      "velocity": 100,
      "chip": "ym2612"
    },
    {
      "channel": 4,
      "note": 86,
      "start": 19.694,
      "duration": 0.1323,
      "velocity": 98,
      "chip": "ym2612"
    },
    {
      "channel": 0,
      "note": 71,
      "start": 19.7761,
      "duration": 0.266,
      "velocity": 98,
      "chip": "ym2612"
    },
    {
      "channel": 5,
      "note": 72,
      "start": 19.7808,
      "duration": 0.2665,
      "velocity": 100,
      "chip": "ym2612"
    },
    {
      "channel": 2,
      "note": 70,
      "start": 19.7844,
      "duration": 0.1296,
      "velocity": 79,
      "chip": "ym2612"
    },
    {
      "channel": 4,
      "note": 83,
      "start": 19.8271,
      "duration": 0.2661,
      "velocity": 98,
      "chip": "ym2612"
    },
    {
      "channel": 1,
      "note": 55,
      "start": 19.9098,
      "duration": 0.1331,
      "velocity": 80,
      "chip": "ym2612"
    },
    {
      "channel": 2,
      "note": 25,
      "start": 19.9146,
      "duration": 0.2668,
      "velocity": 79,
      "chip": "ym2612"
    },
    {
      "channel": 0,
      "note": 72,
      "start": 20.0428,
      "duration": 0.1327,
      "velocity": 98,
      "chip": "ym2612"
    },
    {
      "channel": 1,
      "note": 67,
      "start": 20.0436,
      "duration": 0.1327,
      "velocity": 80,
      "chip": "ym2612"
    },
    {
      "channel": 5,
      "note": 72,
      "start": 20.0479,
      "duration": 0.1327,
      "velocity": 100,
      "chip": "ym2612"
    },
    {
      "channel": 4,
      "note": 84,
      "start": 20.094,
      "duration": 0.1326,
      "velocity": 98,
      "chip": "ym2612"
    },
    {
      "channel": 0,
      "note": 69,
      "start": 20.1761,
      "duration": 0.7994,
      "velocity": 98,
      "chip": "ym2612"
    },
    {
      "channel": 1,
      "note": 55,
      "start": 20.1769,
      "duration": 0.1323,
      "velocity": 80,
      "chip": "ym2612"
    },
    {
      "channel": 5,
      "note": 72,
      "start": 20.1812,
      "duration": 0.1324,
      "velocity": 100,
      "chip": "ym2612"
    },
    {
      "channel": 4,
      "note": 81,
      "start": 20.2273,
      "duration": 0.7992,
      "velocity": 98,
      "chip": "ym2612"
    },
    {
      "channel": 1,
      "note": 55,
      "start": 20.3098,
      "duration": 0.1328,
      "velocity": 80,
      "chip": "ym2612"
    },
    {
      "channel": 5,
      "note": 72,
      "start": 20.3142,
      "duration": 0.1327,
      "velocity": 100,
      "chip": "ym2612"
    },
    {
      "channel": 1,
      "note": 55,
      "start": 20.4431,
      "duration": 0.1328,
      "velocity": 80,
      "chip": "ym2612"
    },
    {
      "channel": 5,
      "note": 72,
      "start": 20.4475,
      "duration": 0.1327,
      "velocity": 100,
      "chip": "ym2612"
    },
    {
      "channel": 3,
      "note": 67,
      "start": 20.5768,
      "duration": 0.4002,
      "velocity": 98,
      "chip": "ym2612"
    },
    {
      "channel": 5,
      "note": 72,
      "start": 20.5807,
      "duration": 0.1328,
      "velocity": 100,
      "chip": "ym2612"
    },
    {
      "channel": 2,
      "note": 25,
      "start": 20.5843,
      "duration": 0.2657,
      "velocity": 127,
      "chip": "ym2612"
    },
    {
      "channel": 1,
      "note": 55,
      "start": 20.7098,
      "duration": 0.1328,
      "velocity": 80,
      "chip": "ym2612"
    },
    {
      "channel": 5,
      "note": 72,
      "start": 20.7141,
      "duration": 0.1322,
      "velocity": 100,
      "chip": "ym2612"
    },
    {
      "channel": 5,
      "note": 72,
      "start": 20.847,
      "duration": 0.2665,
      "velocity": 100,
      "chip": "ym2612"
    },
    {
      "channel": 2,
      "note": 70,
      "start": 20.8506,
      "duration": 0.1308,
      "velocity": 79,
      "chip": "ym2612"
    },
    {
      "channel": 0,
      "note": 76,
      "start": 20.9761,
      "duration": 0.3994,
      "velocity": 98,
      "chip": "ym2612"
    },
    {
      "channel": 1,
      "note": 55,
      "start": 20.9769,
      "duration": 0.1323,
      "velocity": 80,
      "chip": "ym2612"
    },
    {
      "channel": 3,
      "note": 59,
      "start": 20.9777,
      "duration": 0.3995,
      "velocity": 98,
      "chip": "ym2612"
    },
    {
      "channel": 2,
      "note": 25,
      "start": 20.9821,
      "duration": 0.2655,
      "velocity": 79,
      "chip": "ym2612"
    },
    {
      "channel": 4,
      "note": 88,
      "start": 21.0273,
      "duration": 0.3992,
      "velocity": 98,
      "chip": "ym2612"
    },
    {
      "channel": 1,
      "note": 67,
      "start": 21.1098,
      "duration": 0.1328,
      "velocity": 80,
      "chip": "ym2612"
    },
    {
      "channel": 5,
      "note": 72,
      "start": 21.1141,
      "duration": 0.1327,
      "velocity": 100,
      "chip": "ym2612"
    },
    {
      "channel": 1,
      "note": 55,
      "start": 21.2431,
      "duration": 0.1333,
      "velocity": 80,
      "chip": "ym2612"
    },
    {
      "channel": 5,
      "note": 72,
      "start": 21.2475,
      "duration": 0.1337,
      "velocity": 100,
      "chip": "ym2612"
    },
    {
      "channel": 0,
      "note": 69,
      "start": 21.3761,
      "duration": 2.1328,
      "velocity": 98,
      "chip": "ym2612"
    },
    {
      "channel": 1,
      "note": 57,
      "start": 21.377,
      "duration": 0.1322,
      "velocity": 80,
      "chip": "ym2612"
    },
    {
      "channel": 3,
      "note": 57,
      "start": 21.3778,
      "duration": 2.1322,
      "velocity": 98,
      "chip": "ym2612"
    },
    {
      "channel": 5,
      "note": 72,
      "start": 21.3818,
      "duration": 0.1317,
      "velocity": 100,
      "chip": "ym2612"
    },
    {
      "channel": 2,
      "note": 25,
      "start": 21.3854,
      "duration": 0.2617,
      "velocity": 79,
      "chip": "ym2612"
    },
    {
      "channel": 4,
      "note": 81,
      "start": 21.4273,
      "duration": 2.1324,
      "velocity": 98,
      "chip": "ym2612"
    },
    {
      "channel": 1,
      "note": 57,
      "start": 21.5098,
      "duration": 0.1328,
      "velocity": 80,
      "chip": "ym2612"
    },
    {
      "channel": 5,
      "note": 72,
      "start": 21.5141,
      "duration": 0.1322,
      "velocity": 100,
      "chip": "ym2612"
    },
    {
      "channel": 5,
      "note": 72,
      "start": 21.647,
      "duration": 0.1332,
      "velocity": 100,
      "chip": "ym2612"
    },
    {
      "channel": 1,
      "note": 57,
      "start": 21.7765,
      "duration": 0.1328,
      "velocity": 80,
      "chip": "ym2612"
    },
    {
      "channel": 5,
      "note": 72,
      "start": 21.7808,
      "duration": 0.1322,
      "velocity": 100,
      "chip": "ym2612"
    },
    {
      "channel": 5,
      "note": 72,
      "start": 21.9137,
      "duration": 0.2665,
      "velocity": 100,
      "chip": "ym2612"
    },
    {
      "channel": 2,
      "note": 70,
      "start": 21.9173,
      "duration": 0.13,
      "velocity": 79,
      "chip": "ym2612"
    },
    {
      "channel": 1,
      "note": 57,
      "start": 22.0431,
      "duration": 0.1328,
      "velocity": 80,
      "chip": "ym2612"
    },
    {
      "channel": 2,
      "note": 25,
      "start": 22.048,
      "duration": 0.2663,
      "velocity": 79,
      "chip": "ym2612"
    },
    {
      "channel": 1,
      "note": 69,
      "start": 22.1765,
      "duration": 0.1328,
      "velocity": 80,
      "chip": "ym2612"
    },
    {
      "channel": 5,
      "note": 72,
      "start": 22.1808,
      "duration": 0.1327,
      "velocity": 100,
      "chip": "ym2612"
    },
    {
      "channel": 1,
      "note": 57,
      "start": 22.3098,
      "duration": 0.1328,
      "velocity": 80,
      "chip": "ym2612"
    },
    {
      "channel": 5,
      "note": 72,
      "start": 22.3141,
      "duration": 0.1327,
      "velocity": 100,
      "chip": "ym2612"
    },
    {
      "channel": 1,
      "note": 57,
      "start": 22.4432,
      "duration": 0.1327,
      "velocity": 80,
      "chip": "ym2612"
    },
    {
      "channel": 5,
      "note": 72,
      "start": 22.4475,
      "duration": 0.1327,
      "velocity": 100,
      "chip": "ym2612"
    },
    {
      "channel": 1,
      "note": 57,
      "start": 22.5765,
      "duration": 0.1328,
      "velocity": 80,
      "chip": "ym2612"
    },
    {
      "channel": 5,
      "note": 72,
      "start": 22.5808,
      "duration": 0.1322,
      "velocity": 100,
      "chip": "ym2612"
    },
    {
      "channel": 5,
      "note": 72,
      "start": 22.7137,
      "duration": 0.1332,
      "velocity": 100,
      "chip": "ym2612"
    },
    {
      "channel": 2,
      "note": 25,
      "start": 22.7172,
      "duration": 0.2661,
      "velocity": 127,
      "chip": "ym2612"
    },
    {
      "channel": 1,
      "note": 57,
      "start": 22.8431,
      "duration": 0.1328,
      "velocity": 80,
      "chip": "ym2612"
    },
    {
      "channel": 5,
      "note": 72,
      "start": 22.8475,
      "duration": 0.1322,
      "velocity": 100,
      "chip": "ym2612"
    },
    {
      "channel": 5,
      "note": 72,
      "start": 22.9803,
      "duration": 0.2665,
      "velocity": 100,
      "chip": "ym2612"
    },
    {
      "channel": 2,
      "note": 70,
      "start": 22.984,
      "duration": 0.13,
      "velocity": 79,
      "chip": "ym2612"
    },
    {
      "channel": 1,
      "note": 57,
      "start": 23.1098,
      "duration": 0.1328,
      "velocity": 80,
      "chip": "ym2612"
    },
    {
      "channel": 2,
      "note": 25,
      "start": 23.1146,
      "duration": 0.2663,
      "velocity": 79,
      "chip": "ym2612"
    },
    {
      "channel": 1,
      "note": 69,
      "start": 23.2431,
      "duration": 0.1328,
      "velocity": 80,
      "chip": "ym2612"
    },
    {
      "channel": 5,
      "note": 72,
      "start": 23.2475,
      "duration": 0.1327,
      "velocity": 100,
      "chip": "ym2612"
    },
    {
      "channel": 1,
      "note": 57,
      "start": 23.3765,
      "duration": 0.1328,
      "velocity": 80,
      "chip": "ym2612"
    },
    {
      "channel": 5,
      "note": 72,
      "start": 23.3808,
      "duration": 0.1332,
      "velocity": 100,
      "chip": "ym2612"
    },
    {
      "channel": 1,
      "note": 55,
      "start": 23.5099,
      "duration": 0.1324,
      "velocity": 80,
      "chip": "ym2612"
    },
    {
      "channel": 3,
      "note": 55,
      "start": 23.5106,
      "duration": 0.1324,
      "velocity": 98,
      "chip": "ym2612"
    },
    {
      "channel": 5,
      "note": 72,
      "start": 23.5146,
      "duration": 0.1319,
      "velocity": 100,
      "chip": "ym2612"
    },
    {
      "channel": 2,
      "note": 25,
      "start": 23.5183,
      "duration": 0.2619,
      "velocity": 79,
      "chip": "ym2612"
    },
    {
      "channel": 1,
      "note": 55,
      "start": 23.6429,
      "duration": 0.1327,
      "velocity": 80,
      "chip": "ym2612"
    },
    {
      "channel": 3,
      "note": 57,
      "start": 23.6436,
      "duration": 0.1323,
      "velocity": 98,
      "chip": "ym2612"
    },
    {
      "channel": 5,
      "note": 72,
      "start": 23.6471,
      "duration": 0.1322,
      "velocity": 100,
      "chip": "ym2612"
    },
    {
      "channel": 3,
      "note": 59,
      "start": 23.7765,
      "duration": 0.1331,
      "velocity": 98,
      "chip": "ym2612"
    },
    {
      "channel": 5,
      "note": 72,
      "start": 23.78,
      "duration": 0.1332,
      "velocity": 100,
      "chip": "ym2612"
    },
    {
      "channel": 1,
      "note": 55,
      "start": 23.9095,
      "duration": 0.1327,
      "velocity": 80,
      "chip": "ym2612"
    },
    {
      "channel": 3,
      "note": 60,
      "start": 23.9103,
      "duration": 0.1323,
      "velocity": 98,
      "chip": "ym2612"
    },
    {
      "channel": 5,
      "note": 72,
      "start": 23.9138,
      "duration": 0.1322,
      "velocity": 100,
      "chip": "ym2612"
    },
    {
      "channel": 3,
      "note": 62,
      "start": 24.0432,
      "duration": 0.1331,
      "velocity": 98,
      "chip": "ym2612"
    },
    {
      "channel": 5,
      "note": 72,
      "start": 24.0467,
      "duration": 0.2665,
      "velocity": 100,
      "chip": "ym2612"
    },
    {
      "channel": 2,
      "note": 70,
      "start": 24.0503,
      "duration": 0.13,
      "velocity": 79,
      "chip": "ym2612"
    },
    {
      "channel": 1,
      "note": 55,
      "start": 24.1762,
      "duration": 0.1327,
      "velocity": 80,
      "chip": "ym2612"
    },
    {
      "channel": 3,
      "note": 64,
      "start": 24.177,
      "duration": 0.1327,
      "velocity": 98,
      "chip": "ym2612"
    },
    {
      "channel": 2,
      "note": 25,
      "start": 24.181,
      "duration": 0.2663,
      "velocity": 79,
      "chip": "ym2612"
    },
    {
      "channel": 1,
      "note": 67,
      "start": 24.3095,
      "duration": 0.1327,
      "velocity": 80,
      "chip": "ym2612"
    },
    {
      "channel": 3,
      "note": 65,
      "start": 24.3103,
      "duration": 0.1327,
      "velocity": 98,
      "chip": "ym2612"
    },
    {
      "channel": 5,
      "note": 72,
      "start": 24.3138,
      "duration": 0.1327,
      "velocity": 100,
      "chip": "ym2612"
    },
    {
      "channel": 1,
      "note": 55,
      "start": 24.4429,
      "duration": 0.1327,
      "velocity": 80,
      "chip": "ym2612"
    },
    {
      "channel": 3,
      "note": 67,
      "start": 24.4436,
      "duration": 0.1328,
      "velocity": 98,
      "chip": "ym2612"
    },
    {
      "channel": 5,
      "note": 72,
      "start": 24.4471,
      "duration": 0.1327,
      "velocity": 100,
      "chip": "ym2612"
    },
    {
      "channel": 1,
      "note": 55,
      "start": 24.5762,
      "duration": 0.1327,
      "velocity": 80,
      "chip": "ym2612"
    },
    {
      "channel": 3,
      "note": 69,
      "start": 24.577,
      "duration": 0.1327,
      "velocity": 98,
      "chip": "ym2612"
    },
    {
      "channel": 5,
      "note": 72,
      "start": 24.5805,
      "duration": 0.1327,
      "velocity": 100,
      "chip": "ym2612"
    },
    {
      "channel": 1,
      "note": 55,
      "start": 24.7095,
      "duration": 0.1327,
      "velocity": 80,
      "chip": "ym2612"
    },
    {
      "channel": 3,
      "note": 71,
      "start": 24.7103,
      "duration": 0.1323,
      "velocity": 98,
      "chip": "ym2612"
    },
    {
      "channel": 5,
      "note": 72,
      "start": 24.7138,
      "duration": 0.1322,
      "velocity": 100,
      "chip": "ym2612"
    },
    {
      "channel": 3,
      "note": 72,
      "start": 24.8432,
      "duration": 0.1331,
      "velocity": 98,
      "chip": "ym2612"
    },
    {
      "channel": 5,
      "note": 72,
      "start": 24.8467,
      "duration": 0.1332,
      "velocity": 100,
      "chip": "ym2612"
    },
    {
      "channel": 2,
      "note": 25,
      "start": 24.8502,
      "duration": 0.2663,
      "velocity": 127,
      "chip": "ym2612"
    },
    {
      "channel": 1,
      "note": 55,
      "start": 24.9762,
      "duration": 0.1329,
      "velocity": 80,
      "chip": "ym2612"
    },
    {
      "channel": 3,
      "note": 74,
      "start": 24.977,
      "duration": 0.1325,
      "velocity": 98,
      "chip": "ym2612"
    },
    {
      "channel": 5,
      "note": 72,
      "start": 24.9805,
      "duration": 0.1325,
      "velocity": 100,
      "chip": "ym2612"
    },
    {
      "channel": 3,
      "note": 76,
      "start": 25.1101,
      "duration": 0.1336,
      "velocity": 98,
      "chip": "ym2612"
    },
    {
      "channel": 5,
      "note": 72,
      "start": 25.1136,
      "duration": 0.2674,
      "velocity": 100,
      "chip": "ym2612"
    },
    {
      "channel": 2,
      "note": 70,
      "start": 25.1172,
      "duration": 0.1305,
      "velocity": 79,
      "chip": "ym2612"
    },
    {
      "channel": 0,
      "note": 72,
      "start": 25.2428,
      "duration": 0.1327,
      "velocity": 98,
      "chip": "ym2612"
    },
    {
      "channel": 1,
      "note": 55,
      "start": 25.2436,
      "duration": 0.1327,
      "velocity": 80,
      "chip": "ym2612"
    },
    {
      "channel": 3,
      "note": 77,
      "start": 25.2443,
      "duration": 0.1327,
      "velocity": 98,
      "chip": "ym2612"
    },
    {
      "channel": 2,
      "note": 25,
      "start": 25.2483,
      "duration": 0.2667,
      "velocity": 79,
      "chip": "ym2612"
    },
    {
      "channel": 4,
      "note": 84,
      "start": 25.294,
      "duration": 0.1326,
      "velocity": 98,
      "chip": "ym2612"
    },
    {
      "channel": 0,
      "note": 74,
      "start": 25.3761,
      "duration": 0.1327,
      "velocity": 98,
      "chip": "ym2612"
    },
    {
      "channel": 1,
      "note": 67,
      "start": 25.3769,
      "duration": 0.1327,
      "velocity": 80,
      "chip": "ym2612"
    },
    {
      "channel": 3,
      "note": 79,
      "start": 25.3777,
      "duration": 0.1327,
      "velocity": 98,
      "chip": "ym2612"
    },
    {
      "channel": 5,
      "note": 72,
      "start": 25.3816,
      "duration": 0.1327,
      "velocity": 100,
      "chip": "ym2612"
    },
    {
      "channel": 4,
      "note": 86,
      "start": 25.4273,
      "duration": 0.1326,
      "velocity": 98,
      "chip": "ym2612"
    },
    {
      "channel": 0,
      "note": 76,
      "start": 25.5095,
      "duration": 0.1327,
      "velocity": 98,
      "chip": "ym2612"
    },
    {
      "channel": 1,
      "note": 55,
      "start": 25.5102,
      "duration": 0.1328,
      "velocity": 80,
      "chip": "ym2612"
    },
    {
      "channel": 3,
      "note": 81,
      "start": 25.511,
      "duration": 0.1329,
      "velocity": 98,
      "chip": "ym2612"
    },
    {
      "channel": 5,
      "note": 72,
      "start": 25.5149,
      "duration": 0.1329,
      "velocity": 100,
      "chip": "ym2612"
    },
    {
      "channel": 4,
      "note": 88,
      "start": 25.5607,
      "duration": 0.1326,
      "velocity": 98,
      "chip": "ym2612"
    },
    {
      "channel": 0,
      "note": 77,
      "start": 25.6428,
      "duration": 1.7327,
      "velocity": 98,
      "chip": "ym2612"
    },
    {
      "channel": 1,
      "note": 53,
      "start": 25.6436,
      "duration": 0.1323,
      "velocity": 80,
      "chip": "ym2612"
    },
    {
      "channel": 3,
      "note": 67,
      "start": 25.6445,
      "duration": 0.1321,
      "velocity": 98,
      "chip": "ym2612"
    },
    {
      "channel": 5,
      "note": 72,
      "start": 25.6485,
      "duration": 0.132,
      "velocity": 100,
      "chip": "ym2612"
    },
    {
      "channel": 2,
      "note": 25,
      "start": 25.6522,
      "duration": 0.2621,
      "velocity": 79,
      "chip": "ym2612"
    },
    {
      "channel": 4,
      "note": 89,
      "start": 25.694,
      "duration": 1.7326,
      "velocity": 98,
      "chip": "ym2612"
    },
    {
      "channel": 1,
      "note": 53,
      "start": 25.7765,
      "duration": 0.1328,
      "velocity": 80,
      "chip": "ym2612"
    },
    {
      "channel": 3,
      "note": 65,
      "start": 25.7772,
      "duration": 0.1323,
      "velocity": 98,
      "chip": "ym2612"
    },
    {
      "channel": 5,
      "note": 72,
      "start": 25.7812,
      "duration": 0.1323,
      "velocity": 100,
      "chip": "ym2612"
    },
    {
      "channel": 3,
      "note": 64,
      "start": 25.9101,
      "duration": 0.1332,
      "velocity": 98,
      "chip": "ym2612"
    },
    {
      "channel": 5,
      "note": 72,
      "start": 25.9141,
      "duration": 0.1331,
      "velocity": 100,
      "chip": "ym2612"
    },
    {
      "channel": 1,
      "note": 53,
      "start": 26.0431,
      "duration": 0.1328,
      "velocity": 80,
      "chip": "ym2612"
    },
    {
      "channel": 3,
      "note": 62,
      "start": 26.0439,
      "duration": 0.1323,
      "velocity": 98,
      "chip": "ym2612"
    },
    {
      "channel": 5,
      "note": 72,
      "start": 26.0478,
      "duration": 0.1319,
      "velocity": 100,
      "chip": "ym2612"
    },
    {
      "channel": 5,
      "note": 72,
      "start": 26.1803,
      "duration": 0.2669,
      "velocity": 100,
      "chip": "ym2612"
    },
    {
      "channel": 2,
      "note": 70,
      "start": 26.1839,
      "duration": 0.1305,
      "velocity": 79,
      "chip": "ym2612"
    },
    {
      "channel": 1,
      "note": 53,
      "start": 26.3098,
      "duration": 0.1328,
      "velocity": 80,
      "chip": "ym2612"
    },
    {
      "channel": 3,
      "note": 62,
      "start": 26.3105,
      "duration": 0.1328,
      "velocity": 98,
      "chip": "ym2612"
    },
    {
      "channel": 2,
      "note": 25,
      "start": 26.315,
      "duration": 0.2663,
      "velocity": 79,
      "chip": "ym2612"
    },
    {
      "channel": 1,
      "note": 65,
      "start": 26.4431,
      "duration": 0.1328,
      "velocity": 80,
      "chip": "ym2612"
    },
    {
      "channel": 3,
      "note": 64,
      "start": 26.4439,
      "duration": 0.1328,
      "velocity": 98,
      "chip": "ym2612"
    },
    {
      "channel": 5,
      "note": 72,
      "start": 26.4478,
      "duration": 0.1327,
      "velocity": 100,
      "chip": "ym2612"
    },
    {
      "channel": 1,
      "note": 53,
      "start": 26.5765,
      "duration": 0.1328,
      "velocity": 80,
      "chip": "ym2612"
    },
    {
      "channel": 3,
      "note": 62,
      "start": 26.5772,
      "duration": 0.1328,
      "velocity": 98,
      "chip": "ym2612"
    },
    {
      "channel": 5,
      "note": 72,
      "start": 26.5812,
      "duration": 0.1328,
      "velocity": 100,
      "chip": "ym2612"
    },
    {
      "channel": 1,
      "note": 53,
      "start": 26.7098,
      "duration": 0.1328,
      "velocity": 80,
      "chip": "ym2612"
    },
    {
      "channel": 3,
      "note": 60,
      "start": 26.7105,
      "duration": 0.1328,
      "velocity": 98,
      "chip": "ym2612"
    },
    {
      "channel": 5,
      "note": 72,
      "start": 26.7146,
      "duration": 0.1326,
      "velocity": 100,
      "chip": "ym2612"
    },
    {
      "channel": 1,
      "note": 53,
      "start": 26.8431,
      "duration": 0.1328,
      "velocity": 80,
      "chip": "ym2612"
    },
    {
      "channel": 3,
      "note": 62,
      "start": 26.8439,
      "duration": 0.1323,
      "velocity": 98,
      "chip": "ym2612"
    },
    {
      "channel": 5,
      "note": 72,
      "start": 26.8478,
      "duration": 0.1323,
      "velocity": 100,
      "chip": "ym2612"
    },
    {
      "channel": 3,
      "note": 60,
      "start": 26.9768,
      "duration": 0.1332,
      "velocity": 98,
      "chip": "ym2612"
    },
    {
      "channel": 5,
      "note": 72,
      "start": 26.9807,
      "duration": 0.1331,
      "velocity": 100,
      "chip": "ym2612"
    },
    {
      "channel": 2,
      "note": 25,
      "start": 26.9843,
      "duration": 0.2656,
      "velocity": 127,
      "chip": "ym2612"
    },
    {
      "channel": 1,
      "note": 53,
      "start": 27.1098,
      "duration": 0.1328,
      "velocity": 80,
      "chip": "ym2612"
    },
    {
      "channel": 3,
      "note": 59,
      "start": 27.1105,
      "duration": 0.1323,
      "velocity": 98,
      "chip": "ym2612"
    },
    {
      "channel": 5,
      "note": 72,
      "start": 27.1145,
      "duration": 0.1319,
      "velocity": 100,
      "chip": "ym2612"
    },
    {
      "channel": 5,
      "note": 72,
      "start": 27.2469,
      "duration": 0.2674,
      "velocity": 100,
      "chip": "ym2612"
    },
    {
      "channel": 2,
      "note": 70,
      "start": 27.2506,
      "duration": 0.1309,
      "velocity": 79,
      "chip": "ym2612"
    },
    {
      "channel": 0,
      "note": 76,
      "start": 27.3761,
      "duration": 0.1327,
      "velocity": 98,
      "chip": "ym2612"
    },
    {
      "channel": 1,
      "note": 53,
      "start": 27.3769,
      "duration": 0.1327,
      "velocity": 80,
      "chip": "ym2612"
    },
    {
      "channel": 3,
      "note": 57,
      "start": 27.3777,
      "duration": 0.1327,
      "velocity": 98,
      "chip": "ym2612"
    },
    {
      "channel": 2,
      "note": 25,
      "start": 27.3821,
      "duration": 0.2663,
      "velocity": 79,
      "chip": "ym2612"
    },
    {
      "channel": 4,
      "note": 88,
      "start": 27.4273,
      "duration": 0.1326,
      "velocity": 98,
      "chip": "ym2612"
    },
    {
      "channel": 0,
      "note": 74,
      "start": 27.5095,
      "duration": 0.1327,
      "velocity": 98,
      "chip": "ym2612"
    },
    {
      "channel": 1,
      "note": 65,
      "start": 27.5102,
      "duration": 0.1327,
      "velocity": 80,
      "chip": "ym2612"
    },
    {
      "channel": 3,
      "note": 59,
      "start": 27.511,
      "duration": 0.1327,
      "velocity": 98,
      "chip": "ym2612"
    },
    {
      "channel": 5,
      "note": 72,
      "start": 27.5149,
      "duration": 0.1327,
      "velocity": 100,
      "chip": "ym2612"
    },
    {
      "channel": 4,
      "note": 86,
      "start": 27.5607,
      "duration": 0.1326,
      "velocity": 98,
      "chip": "ym2612"
    },
    {
      "channel": 0,
      "note": 72,
      "start": 27.6428,
      "duration": 0.1327,
      "velocity": 98,
      "chip": "ym2612"
    },
    {
      "channel": 1,
      "note": 53,
      "start": 27.6436,
      "duration": 0.1327,
      "velocity": 80,
      "chip": "ym2612"
    },
    {
      "channel": 3,
      "note": 60,
      "start": 27.6443,
      "duration": 0.1328,
      "velocity": 98,
      "chip": "ym2612"
    },
    {
      "channel": 5,
      "note": 72,
      "start": 27.6482,
      "duration": 0.1328,
      "velocity": 100,
      "chip": "ym2612"
    },
    {
      "channel": 4,
      "note": 84,
      "start": 27.694,
      "duration": 0.1326,
      "velocity": 98,
      "chip": "ym2612"
    },
    {
      "channel": 0,
      "note": 74,
      "start": 27.7761,
      "duration": 1.7327,
      "velocity": 98,
      "chip": "ym2612"
    },
    {
      "channel": 1,
      "note": 50,
      "start": 27.7769,
      "duration": 0.1323,
      "velocity": 80,
      "chip": "ym2612"
    },
    {
      "channel": 3,
      "note": 65,
      "start": 27.7777,
      "duration": 0.1323,
      "velocity": 98,
      "chip": "ym2612"
    },
    {
      "channel": 5,
      "note": 72,
      "start": 27.7817,
      "duration": 0.1322,
      "velocity": 100,
      "chip": "ym2612"
    },
    {
      "channel": 2,
      "note": 25,
      "start": 27.7853,
      "duration": 0.2623,
      "velocity": 79,
      "chip": "ym2612"
    },
    {
      "channel": 4,
      "note": 86,
      "start": 27.8273,
      "duration": 1.7326,
      "velocity": 98,
      "chip": "ym2612"
    },
    {
      "channel": 1,
      "note": 50,
      "start": 27.9098,
      "duration": 0.1328,
      "velocity": 80,
      "chip": "ym2612"
    },
    {
      "channel": 3,
      "note": 64,
      "start": 27.9105,
      "duration": 0.1323,
      "velocity": 98,
      "chip": "ym2612"
    },
    {
      "channel": 5,
      "note": 72,
      "start": 27.9145,
      "duration": 0.1323,
      "velocity": 100,
      "chip": "ym2612"
    },
    {
      "channel": 3,
      "note": 62,
      "start": 28.0434,
      "duration": 0.1332,
      "velocity": 98,
      "chip": "ym2612"
    },
    {
      "channel": 5,
      "note": 72,
      "start": 28.0474,
      "duration": 0.1331,
      "velocity": 100,
      "chip": "ym2612"
    },
    {
      "channel": 1,
      "note": 50,
      "start": 28.1765,
      "duration": 0.1328,
      "velocity": 80,
      "chip": "ym2612"
    },
    {
      "channel": 3,
      "note": 60,
      "start": 28.1772,
      "duration": 0.1323,
      "velocity": 98,
      "chip": "ym2612"
    },
    {
      "channel": 5,
      "note": 72,
      "start": 28.1812,
      "duration": 0.1319,
      "velocity": 100,
      "chip": "ym2612"
    },
    {
      "channel": 5,
      "note": 72,
      "start": 28.3136,
      "duration": 0.2669,
      "velocity": 100,
      "chip": "ym2612"
    },
    {
      "channel": 2,
      "note": 70,
      "start": 28.3172,
      "duration": 0.1305,
      "velocity": 79,
      "chip": "ym2612"
    },
    {
      "channel": 1,
      "note": 50,
      "start": 28.4431,
      "duration": 0.1328,
      "velocity": 80,
      "chip": "ym2612"
    },
    {
      "channel": 3,
      "note": 59,
      "start": 28.4439,
      "duration": 0.1328,
      "velocity": 98,
      "chip": "ym2612"
    },
    {
      "channel": 2,
      "note": 25,
      "start": 28.4483,
      "duration": 0.2663,
      "velocity": 79,
      "chip": "ym2612"
    },
    {
      "channel": 1,
      "note": 62,
      "start": 28.5765,
      "duration": 0.1328,
      "velocity": 80,
      "chip": "ym2612"
    },
    {
      "channel": 3,
      "note": 60,
      "start": 28.5772,
      "duration": 0.1328,
      "velocity": 98,
      "chip": "ym2612"
    },
    {
      "channel": 5,
      "note": 72,
      "start": 28.5812,
      "duration": 0.1327,
      "velocity": 100,
      "chip": "ym2612"
    },
    {
      "channel": 1,
      "note": 50,
      "start": 28.7098,
      "duration": 0.1328,
      "velocity": 80,
      "chip": "ym2612"
    },
    {
      "channel": 3,
      "note": 59,
      "start": 28.7105,
      "duration": 0.1328,
      "velocity": 98,
      "chip": "ym2612"
    },
    {
      "channel": 5,
      "note": 72,
      "start": 28.7145,
      "duration": 0.1324,
      "velocity": 100,
      "chip": "ym2612"
    },
    {
      "channel": 1,
      "note": 50,
      "start": 28.8431,
      "duration": 0.1328,
      "velocity": 80,
      "chip": "ym2612"
    },
    {
      "channel": 5,
      "note": 72,
      "start": 28.8475,
      "duration": 0.133,
      "velocity": 100,
      "chip": "ym2612"
    },
    {
      "channel": 1,
      "note": 50,
      "start": 28.9765,
      "duration": 0.1328,
      "velocity": 80,
      "chip": "ym2612"
    },
    {
      "channel": 3,
      "note": 57,
      "start": 28.9772,
      "duration": 0.1323,
      "velocity": 98,
      "chip": "ym2612"
    },
    {
      "channel": 5,
      "note": 72,
      "start": 28.9812,
      "duration": 0.1323,
      "velocity": 100,
      "chip": "ym2612"
    },
    {
      "channel": 3,
      "note": 59,
      "start": 29.1101,
      "duration": 0.1332,
      "velocity": 98,
      "chip": "ym2612"
    },
    {
      "channel": 5,
      "note": 72,
      "start": 29.1141,
      "duration": 0.1331,
      "velocity": 100,
      "chip": "ym2612"
    },
    {
      "channel": 2,
      "note": 25,
      "start": 29.1176,
      "duration": 0.2661,
      "velocity": 127,
      "chip": "ym2612"
    },
    {
      "channel": 1,
      "note": 50,
      "start": 29.2431,
      "duration": 0.1328,
      "velocity": 80,
      "chip": "ym2612"
    },
    {
      "channel": 3,
      "note": 60,
      "start": 29.2439,
      "duration": 0.1323,
      "velocity": 98,
      "chip": "ym2612"
    },
    {
      "channel": 5,
      "note": 72,
      "start": 29.2478,
      "duration": 0.1323,
      "velocity": 100,
      "chip": "ym2612"
    },
    {
      "channel": 3,
      "note": 59,
      "start": 29.3768,
      "duration": 0.1336,
      "velocity": 98,
      "chip": "ym2612"
    },
    {
      "channel": 5,
      "note": 72,
      "start": 29.3807,
      "duration": 0.2669,
      "velocity": 100,
      "chip": "ym2612"
    },
    {
      "channel": 2,
      "note": 70,
      "start": 29.3844,
      "duration": 0.1305,
      "velocity": 79,
      "chip": "ym2612"
    },
    {
      "channel": 0,
      "note": 76,
      "start": 29.5095,
      "duration": 0.1327,
      "velocity": 98,
      "chip": "ym2612"
    },
    {
      "channel": 1,
      "note": 50,
      "start": 29.5102,
      "duration": 0.1327,
      "velocity": 80,
      "chip": "ym2612"
    },
    {
      "channel": 3,
      "note": 57,
      "start": 29.511,
      "duration": 0.1327,
      "velocity": 98,
      "chip": "ym2612"
    },
    {
      "channel": 2,
      "note": 25,
      "start": 29.5154,
      "duration": 0.2663,
      "velocity": 79,
      "chip": "ym2612"
    },
    {
      "channel": 4,
      "note": 88,
      "start": 29.5607,
      "duration": 0.1326,
      "velocity": 98,
      "chip": "ym2612"
    },
    {
      "channel": 0,
      "note": 74,
      "start": 29.6428,
      "duration": 0.1327,
      "velocity": 98,
      "chip": "ym2612"
    },
    {
      "channel": 1,
      "note": 62,
      "start": 29.6436,
      "duration": 0.1327,
      "velocity": 80,
      "chip": "ym2612"
    },
    {
      "channel": 3,
      "note": 55,
      "start": 29.6443,
      "duration": 0.1328,
      "velocity": 98,
      "chip": "ym2612"
    },
    {
      "channel": 5,
      "note": 72,
      "start": 29.6482,
      "duration": 0.1328,
      "velocity": 100,
      "chip": "ym2612"
    },
    {
      "channel": 4,
      "note": 86,
      "start": 29.694,
      "duration": 0.1326,
      "velocity": 98,
      "chip": "ym2612"
    },
    {
      "channel": 0,
      "note": 72,
      "start": 29.7761,
      "duration": 0.1327,
      "velocity": 98,
      "chip": "ym2612"
    },
    {
      "channel": 1,
      "note": 50,
      "start": 29.7768,
      "duration": 0.1327,
      "velocity": 80,
      "chip": "ym2612"
    },
    {
      "channel": 3,
      "note": 57,
      "start": 29.7776,
      "duration": 0.1328,
      "velocity": 98,
      "chip": "ym2612"
    },
    {
      "channel": 5,
      "note": 72,
      "start": 29.7815,
      "duration": 0.1328,
      "velocity": 100,
      "chip": "ym2612"
    },
    {
      "channel": 4,
      "note": 84,
      "start": 29.8273,
      "duration": 0.1326,
      "velocity": 98,
      "chip": "ym2612"
    },
    {
      "channel": 0,
      "note": 71,
      "start": 29.9095,
      "duration": 1.3327,
      "velocity": 98,
      "chip": "ym2612"
    },
    {
      "channel": 1,
      "note": 52,
      "start": 29.9102,
      "duration": 0.1323,
      "velocity": 80,
      "chip": "ym2612"
    },
    {
      "channel": 3,
      "note": 64,
      "start": 29.911,
      "duration": 0.1323,
      "velocity": 98,
      "chip": "ym2612"
    },
    {
      "channel": 5,
      "note": 72,
      "start": 29.915,
      "duration": 0.1322,
      "velocity": 100,
      "chip": "ym2612"
    },
    {
      "channel": 2,
      "note": 25,
      "start": 29.9186,
      "duration": 0.2623,
      "velocity": 79,
      "chip": "ym2612"
    },
    {
      "channel": 4,
      "note": 83,
      "start": 29.9607,
      "duration": 1.3323,
      "velocity": 98,
      "chip": "ym2612"
    },
    {
      "channel": 1,
      "note": 52,
      "start": 30.0431,
      "duration": 0.1328,
      "velocity": 80,
      "chip": "ym2612"
    },
    {
      "channel": 3,
      "note": 62,
      "start": 30.0439,
      "duration": 0.1323,
      "velocity": 98,
      "chip": "ym2612"
    },
    {
      "channel": 5,
      "note": 72,
      "start": 30.0478,
      "duration": 0.1323,
      "velocity": 100,
      "chip": "ym2612"
    },
    {
      "channel": 3,
      "note": 60,
      "start": 30.1768,
      "duration": 0.1332,
      "velocity": 98,
      "chip": "ym2612"
    },
    {
      "channel": 5,
      "note": 72,
      "start": 30.1807,
      "duration": 0.1331,
      "velocity": 100,
      "chip": "ym2612"
    },
    {
      "channel": 1,
      "note": 52,
      "start": 30.3098,
      "duration": 0.1328,
      "velocity": 80,
      "chip": "ym2612"
    },
    {
      "channel": 3,
      "note": 59,
      "start": 30.3105,
      "duration": 0.1323,
      "velocity": 98,
      "chip": "ym2612"
    },
    {
      "channel": 5,
      "note": 72,
      "start": 30.3145,
      "duration": 0.1319,
      "velocity": 100,
      "chip": "ym2612"
    },
    {
      "channel": 5,
      "note": 72,
      "start": 30.4469,
      "duration": 0.2669,
      "velocity": 100,
      "chip": "ym2612"
    },
    {
      "channel": 2,
      "note": 70,
      "start": 30.4506,
      "duration": 0.1305,
      "velocity": 79,
      "chip": "ym2612"
    },
    {
      "channel": 1,
      "note": 52,
      "start": 30.5765,
      "duration": 0.1328,
      "velocity": 80,
      "chip": "ym2612"
    },
    {
      "channel": 3,
      "note": 57,
      "start": 30.5772,
      "duration": 0.1328,
      "velocity": 98,
      "chip": "ym2612"
    },
    {
      "channel": 2,
      "note": 25,
      "start": 30.5817,
      "duration": 0.2663,
      "velocity": 79,
      "chip": "ym2612"
    },
    {
      "channel": 1,
      "note": 64,
      "start": 30.7098,
      "duration": 0.1328,
      "velocity": 80,
      "chip": "ym2612"
    },
    {
      "channel": 3,
      "note": 59,
      "start": 30.7105,
      "duration": 0.1328,
      "velocity": 98,
      "chip": "ym2612"
    },
    {
      "channel": 5,
      "note": 72,
      "start": 30.7145,
      "duration": 0.1327,
      "velocity": 100,
      "chip": "ym2612"
    },
    {
      "channel": 1,
      "note": 52,
      "start": 30.8431,
      "duration": 0.1328,
      "velocity": 80,
      "chip": "ym2612"
    },
    {
      "channel": 3,
      "note": 57,
      "start": 30.8439,
      "duration": 0.1328,
      "velocity": 98,
      "chip": "ym2612"
    },
    {
      "channel": 5,
      "note": 72,
      "start": 30.8478,
      "duration": 0.1324,
      "velocity": 100,
      "chip": "ym2612"
    },
    {
      "channel": 1,
      "note": 52,
      "start": 30.9765,
      "duration": 0.1328,
      "velocity": 80,
      "chip": "ym2612"
    },
    {
      "channel": 5,
      "note": 72,
      "start": 30.9808,
      "duration": 0.133,
      "velocity": 100,
      "chip": "ym2612"
    },
    {
      "channel": 1,
      "note": 52,
      "start": 31.1098,
      "duration": 0.1331,
      "velocity": 80,
      "chip": "ym2612"
    },
    {
      "channel": 3,
      "note": 55,
      "start": 31.1105,
      "duration": 0.1327,
      "velocity": 98,
      "chip": "ym2612"
    },
    {
      "channel": 5,
      "note": 72,
      "start": 31.1145,
      "duration": 0.1327,
      "velocity": 100,
      "chip": "ym2612"
    },
    {
      "channel": 0,
      "note": 79,
      "start": 31.2428,
      "duration": 0.7994,
      "velocity": 98,
      "chip": "ym2612"
    },
    {
      "channel": 3,
      "note": 57,
      "start": 31.2439,
      "duration": 0.1328,
      "velocity": 98,
      "chip": "ym2612"
    },
    {
      "channel": 5,
      "note": 72,
      "start": 31.2478,
      "duration": 0.1327,
      "velocity": 100,
      "chip": "ym2612"
    },
    {
      "channel": 2,
      "note": 25,
      "start": 31.2514,
      "duration": 0.2656,
      "velocity": 127,
      "chip": "ym2612"
    },
    {
      "channel": 4,
      "note": 91,
      "start": 31.2938,
      "duration": 0.7995,
      "velocity": 98,
      "chip": "ym2612"
    },
    {
      "channel": 1,
      "note": 52,
      "start": 31.3765,
      "duration": 0.1328,
      "velocity": 80,
      "chip": "ym2612"
    },
    {
      "channel": 3,
      "note": 59,
      "start": 31.3772,
      "duration": 0.1323,
      "velocity": 98,
      "chip": "ym2612"
    },
    {
      "channel": 5,
      "note": 72,
      "start": 31.3812,
      "duration": 0.1323,
      "velocity": 100,
      "chip": "ym2612"
    },
    {
      "channel": 3,
      "note": 60,
      "start": 31.5101,
      "duration": 0.1332,
      "velocity": 98,
      "chip": "ym2612"
    },
    {
      "channel": 5,
      "note": 72,
      "start": 31.5141,
      "duration": 0.2665,
      "velocity": 100,
      "chip": "ym2612"
    },
    {
      "channel": 2,
      "note": 70,
      "start": 31.5177,
      "duration": 0.13,
      "velocity": 79,
      "chip": "ym2612"
    },
    {
      "channel": 1,
      "note": 52,
      "start": 31.6431,
      "duration": 0.1328,
      "velocity": 80,
      "chip": "ym2612"
    },
    {
      "channel": 3,
      "note": 59,
      "start": 31.6439,
      "duration": 0.1328,
      "velocity": 98,
      "chip": "ym2612"
    },
    {
      "channel": 2,
      "note": 25,
      "start": 31.6483,
      "duration": 0.2659,
      "velocity": 79,
      "chip": "ym2612"
    },
    {
      "channel": 1,
      "note": 64,
      "start": 31.7765,
      "duration": 0.1328,
      "velocity": 80,
      "chip": "ym2612"
    },
    {
      "channel": 3,
      "note": 57,
      "start": 31.7772,
      "duration": 0.1328,
      "velocity": 98,
      "chip": "ym2612"
    },
    {
      "channel": 5,
      "note": 72,
      "start": 31.7812,
      "duration": 0.1323,
      "velocity": 100,
      "chip": "ym2612"
    },
    {
      "channel": 1,
      "note": 52,
      "start": 31.9098,
      "duration": 0.1331,
      "velocity": 80,
      "chip": "ym2612"
    },
    {
      "channel": 5,
      "note": 72,
      "start": 31.9141,
      "duration": 0.1337,
      "velocity": 100,
      "chip": "ym2612"
    },
    {
      "channel": 0,
      "note": 76,
      "start": 32.0428,
      "duration": 1.5994,
      "velocity": 98,
      "chip": "ym2612"
    },
    {
      "channel": 1,
      "note": 52,
      "start": 32.0436,
      "duration": 0.1323,
      "velocity": 80,
      "chip": "ym2612"
    },
    {
      "channel": 3,
      "note": 67,
      "start": 32.0443,
      "duration": 0.1323,
      "velocity": 98,
      "chip": "ym2612"
    },
    {
      "channel": 5,
      "note": 72,
      "start": 32.0483,
      "duration": 0.1322,
      "velocity": 100,
      "chip": "ym2612"
    },
    {
      "channel": 2,
      "note": 25,
      "start": 32.052,
      "duration": 0.2623,
      "velocity": 79,
      "chip": "ym2612"
    },
    {
      "channel": 4,
      "note": 88,
      "start": 32.094,
      "duration": 1.5985,
      "velocity": 98,
      "chip": "ym2612"
    },
    {
      "channel": 1,
      "note": 52,
      "start": 32.1765,
      "duration": 0.1328,
      "velocity": 80,
      "chip": "ym2612"
    },
    {
      "channel": 3,
      "note": 65,
      "start": 32.1772,
      "duration": 0.1323,
      "velocity": 98,
      "chip": "ym2612"
    },
    {
      "channel": 5,
      "note": 72,
      "start": 32.1812,
      "duration": 0.1323,
      "velocity": 100,
      "chip": "ym2612"
    },
    {
      "channel": 3,
      "note": 64,
      "start": 32.3101,
      "duration": 0.1332,
      "velocity": 98,
      "chip": "ym2612"
    },
    {
      "channel": 5,
      "note": 72,
      "start": 32.3141,
      "duration": 0.1331,
      "velocity": 100,
      "chip": "ym2612"
    },
    {
      "channel": 1,
      "note": 52,
      "start": 32.4431,
      "duration": 0.1328,
      "velocity": 80,
      "chip": "ym2612"
    },
    {
      "channel": 3,
      "note": 62,
      "start": 32.4439,
      "duration": 0.1323,
      "velocity": 98,
      "chip": "ym2612"
    },
    {
      "channel": 5,
      "note": 72,
      "start": 32.4478,
      "duration": 0.1319,
      "velocity": 100,
      "chip": "ym2612"
    },
    {
      "channel": 5,
      "note": 72,
      "start": 32.5803,
      "duration": 0.2669,
      "velocity": 100,
      "chip": "ym2612"
    },
    {
      "channel": 2,
      "note": 70,
      "start": 32.5839,
      "duration": 0.1305,
      "velocity": 79,
      "chip": "ym2612"
    },
    {
      "channel": 1,
      "note": 52,
      "start": 32.7098,
      "duration": 0.1328,
      "velocity": 80,
      "chip": "ym2612"
    },
    {
      "channel": 3,
      "note": 62,
      "start": 32.7105,
      "duration": 0.1328,
      "velocity": 98,
      "chip": "ym2612"
    },
    {
      "channel": 2,
      "note": 25,
      "start": 32.715,
      "duration": 0.2663,
      "velocity": 79,
      "chip": "ym2612"
    },
    {
      "channel": 1,
      "note": 64,
      "start": 32.8431,
      "duration": 0.1328,
      "velocity": 80,
      "chip": "ym2612"
    },
    {
      "channel": 3,
      "note": 64,
      "start": 32.8439,
      "duration": 0.1328,
      "velocity": 98,
      "chip": "ym2612"
    },
    {
      "channel": 5,
      "note": 72,
      "start": 32.8478,
      "duration": 0.1327,
      "velocity": 100,
      "chip": "ym2612"
    },
    {
      "channel": 1,
      "note": 52,
      "start": 32.9765,
      "duration": 0.1328,
      "velocity": 80,
      "chip": "ym2612"
    },
    {
      "channel": 3,
      "note": 62,
      "start": 32.9772,
      "duration": 0.1328,
      "velocity": 98,
      "chip": "ym2612"
    },
    {
      "channel": 5,
      "note": 72,
      "start": 32.9812,
      "duration": 0.1328,
      "velocity": 100,
      "chip": "ym2612"
    },
    {
      "channel": 1,
      "note": 52,
      "start": 33.1098,
      "duration": 0.1328,
      "velocity": 80,
      "chip": "ym2612"
    },
    {
      "channel": 3,
      "note": 60,
      "start": 33.1105,
      "duration": 0.1328,
      "velocity": 98,
      "chip": "ym2612"
    },
    {
      "channel": 5,
      "note": 72,
      "start": 33.1146,
      "duration": 0.1326,
      "velocity": 100,
      "chip": "ym2612"
    },
    {
      "channel": 1,
      "note": 52,
      "start": 33.2431,
      "duration": 0.1328,
      "velocity": 80,
      "chip": "ym2612"
    },
    {
      "channel": 3,
      "note": 62,
      "start": 33.2439,
      "duration": 0.1323,
      "velocity": 98,
      "chip": "ym2612"
    },
    {
      "channel": 5,
      "note": 72,
      "start": 33.2478,
      "duration": 0.1323,
      "velocity": 100,
      "chip": "ym2612"
    },
    {
      "channel": 3,
      "note": 60,
      "start": 33.3768,
      "duration": 0.1332,
      "velocity": 98,
      "chip": "ym2612"
    },
    {
      "channel": 5,
      "note": 72,
      "start": 33.3807,
      "duration": 0.1331,
      "velocity": 100,
      "chip": "ym2612"
    },
    {
      "channel": 2,
      "note": 25,
      "start": 33.3843,
      "duration": 0.2657,
      "velocity": 127,
      "chip": "ym2612"
    },
    {
      "channel": 1,
      "note": 52,
      "start": 33.5098,
      "duration": 0.1328,
      "velocity": 80,
      "chip": "ym2612"
    },
    {
      "channel": 3,
      "note": 59,
      "start": 33.5105,
      "duration": 0.1324,
      "velocity": 98,
      "chip": "ym2612"
    },
    {
      "channel": 5,
      "note": 72,
      "start": 33.5145,
      "duration": 0.1319,
      "velocity": 100,
      "chip": "ym2612"
    },
    {
      "channel": 5,
      "note": 72,
      "start": 33.647,
      "duration": 0.2673,
      "velocity": 100,
      "chip": "ym2612"
    },
    {
      "channel": 2,
      "note": 70,
      "start": 33.6506,
      "duration": 0.1304,
      "velocity": 79,
      "chip": "ym2612"
    },
    {
      "channel": 0,
      "note": 72,
      "start": 33.7761,
      "duration": 0.1327,
      "velocity": 98,
      "chip": "ym2612"
    },
    {
      "channel": 1,
      "note": 52,
      "start": 33.7769,
      "duration": 0.1327,
      "velocity": 80,
      "chip": "ym2612"
    },
    {
      "channel": 3,
      "note": 57,
      "start": 33.7777,
      "duration": 0.1327,
      "velocity": 98,
      "chip": "ym2612"
    },
    {
      "channel": 2,
      "note": 25,
      "start": 33.7817,
      "duration": 0.2667,
      "velocity": 79,
      "chip": "ym2612"
    },
    {
      "channel": 4,
      "note": 84,
      "start": 33.8273,
      "duration": 0.1326,
      "velocity": 98,
      "chip": "ym2612"
    },
    {
      "channel": 0,
      "note": 74,
      "start": 33.9095,
      "duration": 0.1327,
      "velocity": 98,
      "chip": "ym2612"
    },
    {
      "channel": 1,
      "note": 64,
      "start": 33.9102,
      "duration": 0.1327,
      "velocity": 80,
      "chip": "ym2612"
    },
    {
      "channel": 3,
      "note": 59,
      "start": 33.911,
      "duration": 0.1327,
      "velocity": 98,
      "chip": "ym2612"
    },
    {
      "channel": 5,
      "note": 72,
      "start": 33.9149,
      "duration": 0.1327,
      "velocity": 100,
      "chip": "ym2612"
    },
    {
      "channel": 4,
      "note": 86,
      "start": 33.9607,
      "duration": 0.1326,
      "velocity": 98,
      "chip": "ym2612"
    },
    {
      "channel": 0,
      "note": 76,
      "start": 34.0428,
      "duration": 0.1327,
      "velocity": 98,
      "chip": "ym2612"
    },
    {
      "channel": 1,
      "note": 52,
      "start": 34.0436,
      "duration": 0.1328,
      "velocity": 80,
      "chip": "ym2612"
    },
    {
      "channel": 3,
      "note": 60,
      "start": 34.0443,
      "duration": 0.1329,
      "velocity": 98,
      "chip": "ym2612"
    },
    {
      "channel": 5,
      "note": 72,
      "start": 34.0482,
      "duration": 0.133,
      "velocity": 100,
      "chip": "ym2612"
    },
    {
      "channel": 4,
      "note": 88,
      "start": 34.094,
      "duration": 0.1326,
      "velocity": 98,
      "chip": "ym2612"
    },
    {
      "channel": 0,
      "note": 77,
      "start": 34.1761,
      "duration": 1.7327,
      "velocity": 98,
      "chip": "ym2612"
    },
    {
      "channel": 1,
      "note": 53,
      "start": 34.177,
      "duration": 0.1323,
      "velocity": 80,
      "chip": "ym2612"
    },
    {
      "channel": 3,
      "note": 67,
      "start": 34.1779,
      "duration": 0.1321,
      "velocity": 98,
      "chip": "ym2612"
    },
    {
      "channel": 5,
      "note": 72,
      "start": 34.1819,
      "duration": 0.132,
      "velocity": 100,
      "chip": "ym2612"
    },
    {
      "channel": 2,
      "note": 25,
      "start": 34.1855,
      "duration": 0.2621,
      "velocity": 79,
      "chip": "ym2612"
    },
    {
      "channel": 4,
      "note": 89,
      "start": 34.2273,
      "duration": 1.7326,
      "velocity": 98,
      "chip": "ym2612"
    },
    {
      "channel": 1,
      "note": 53,
      "start": 34.3098,
      "duration": 0.1328,
      "velocity": 80,
      "chip": "ym2612"
    },
    {
      "channel": 3,
      "note": 65,
      "start": 34.3105,
      "duration": 0.1323,
      "velocity": 98,
      "chip": "ym2612"
    },
    {
      "channel": 5,
      "note": 72,
      "start": 34.3145,
      "duration": 0.1323,
      "velocity": 100,
      "chip": "ym2612"
    },
    {
      "channel": 3,
      "note": 64,
      "start": 34.4434,
      "duration": 0.1332,
      "velocity": 98,
      "chip": "ym2612"
    },
    {
      "channel": 5,
      "note": 72,
      "start": 34.4474,
      "duration": 0.1331,
      "velocity": 100,
      "chip": "ym2612"
    },
    {
      "channel": 1,
      "note": 53,
      "start": 34.5765,
      "duration": 0.1328,
      "velocity": 80,
      "chip": "ym2612"
    },
    {
      "channel": 3,
      "note": 62,
      "start": 34.5772,
      "duration": 0.1323,
      "velocity": 98,
      "chip": "ym2612"
    },
    {
      "channel": 5,
      "note": 72,
      "start": 34.5812,
      "duration": 0.1319,
      "velocity": 100,
      "chip": "ym2612"
    },
    {
      "channel": 5,
      "note": 72,
      "start": 34.7136,
      "duration": 0.2669,
      "velocity": 100,
      "chip": "ym2612"
    },
    {
      "channel": 2,
      "note": 70,
      "start": 34.7172,
      "duration": 0.1305,
      "velocity": 79,
      "chip": "ym2612"
    },
    {
      "channel": 1,
      "note": 53,
      "start": 34.8431,
      "duration": 0.1328,
      "velocity": 80,
      "chip": "ym2612"
    },
    {
      "channel": 3,
      "note": 62,
      "start": 34.8439,
      "duration": 0.1328,
      "velocity": 98,
      "chip": "ym2612"
    },
    {
      "channel": 2,
      "note": 25,
      "start": 34.8483,
      "duration": 0.2663,
      "velocity": 79,
      "chip": "ym2612"
    },
    {
      "channel": 1,
      "note": 65,
      "start": 34.9765,
      "duration": 0.1328,
      "velocity": 80,
      "chip": "ym2612"
    },
    {
      "channel": 3,
      "note": 64,
      "start": 34.9772,
      "duration": 0.1328,
      "velocity": 98,
      "chip": "ym2612"
    },
    {
      "channel": 5,
      "note": 72,
      "start": 34.9812,
      "duration": 0.1327,
      "velocity": 100,
      "chip": "ym2612"
    },
    {
      "channel": 1,
      "note": 53,
      "start": 35.1098,
      "duration": 0.1328,
      "velocity": 80,
      "chip": "ym2612"
    },
    {
      "channel": 3,
      "note": 62,
      "start": 35.1105,
      "duration": 0.1328,
      "velocity": 98,
      "chip": "ym2612"
    },
    {
      "channel": 5,
      "note": 72,
      "start": 35.1145,
      "duration": 0.1328,
      "velocity": 100,
      "chip": "ym2612"
    },
    {
      "channel": 1,
      "note": 53,
      "start": 35.2431,
      "duration": 0.1328,
      "velocity": 80,
      "chip": "ym2612"
    },
    {
      "channel": 3,
      "note": 60,
      "start": 35.2439,
      "duration": 0.1328,
      "velocity": 98,
      "chip": "ym2612"
    },
    {
      "channel": 5,
      "note": 72,
      "start": 35.2479,
      "duration": 0.1326,
      "velocity": 100,
      "chip": "ym2612"
    },
    {
      "channel": 1,
      "note": 53,
      "start": 35.3765,
      "duration": 0.1328,
      "velocity": 80,
      "chip": "ym2612"
    },
    {
      "channel": 3,
      "note": 62,
      "start": 35.3772,
      "duration": 0.1323,
      "velocity": 98,
      "chip": "ym2612"
    },
    {
      "channel": 5,
      "note": 72,
      "start": 35.3812,
      "duration": 0.1323,
      "velocity": 100,
      "chip": "ym2612"
    },
    {
      "channel": 3,
      "note": 60,
      "start": 35.5101,
      "duration": 0.1332,
      "velocity": 98,
      "chip": "ym2612"
    },
    {
      "channel": 5,
      "note": 72,
      "start": 35.5141,
      "duration": 0.1331,
      "velocity": 100,
      "chip": "ym2612"
    },
    {
      "channel": 2,
      "note": 25,
      "start": 35.5176,
      "duration": 0.2656,
      "velocity": 127,
      "chip": "ym2612"
    },
    {
      "channel": 1,
      "note": 53,
      "start": 35.6431,
      "duration": 0.1328,
      "velocity": 80,
      "chip": "ym2612"
    },
    {
      "channel": 3,
      "note": 59,
      "start": 35.6439,
      "duration": 0.1323,
      "velocity": 98,
      "chip": "ym2612"
    },
    {
      "channel": 5,
      "note": 72,
      "start": 35.6478,
      "duration": 0.1319,
      "velocity": 100,
      "chip": "ym2612"
    },
    {
      "channel": 5,
      "note": 72,
      "start": 35.7803,
      "duration": 0.2674,
      "velocity": 100,
      "chip": "ym2612"
    },
    {
      "channel": 2,
      "note": 70,
      "start": 35.7839,
      "duration": 0.1309,
      "velocity": 79,
      "chip": "ym2612"
    },
    {
      "channel": 0,
      "note": 76,
      "start": 35.9095,
      "duration": 0.1327,
      "velocity": 98,
      "chip": "ym2612"
    },
    {
      "channel": 1,
      "note": 53,
      "start": 35.9102,
      "duration": 0.1327,
      "velocity": 80,
      "chip": "ym2612"
    },
    {
      "channel": 3,
      "note": 57,
      "start": 35.911,
      "duration": 0.1327,
      "velocity": 98,
      "chip": "ym2612"
    },
    {
      "channel": 2,
      "note": 25,
      "start": 35.9154,
      "duration": 0.2663,
      "velocity": 79,
      "chip": "ym2612"
    },
    {
      "channel": 4,
      "note": 88,
      "start": 35.9607,
      "duration": 0.1326,
      "velocity": 98,
      "chip": "ym2612"
    },
    {
      "channel": 0,
      "note": 74,
      "start": 36.0428,
      "duration": 0.1327,
      "velocity": 98,
      "chip": "ym2612"
    },
    {
      "channel": 1,
      "note": 65,
      "start": 36.0436,
      "duration": 0.1327,
      "velocity": 80,
      "chip": "ym2612"
    },
    {
      "channel": 3,
      "note": 59,
      "start": 36.0443,
      "duration": 0.1327,
      "velocity": 98,
      "chip": "ym2612"
    },
    {
      "channel": 5,
      "note": 72,
      "start": 36.0483,
      "duration": 0.1327,
      "velocity": 100,
      "chip": "ym2612"
    },
    {
      "channel": 4,
      "note": 86,
      "start": 36.094,
      "duration": 0.1326,
      "velocity": 98,
      "chip": "ym2612"
    },
    {
      "channel": 0,
      "note": 72,
      "start": 36.1761,
      "duration": 0.1327,
      "velocity": 98,
      "chip": "ym2612"
    },
    {
      "channel": 1,
      "note": 53,
      "start": 36.1768,
      "duration": 0.1327,
      "velocity": 80,
      "chip": "ym2612"
    },
    {
      "channel": 3,
      "note": 60,
      "start": 36.1776,
      "duration": 0.1328,
      "velocity": 98,
      "chip": "ym2612"
    },
    {
      "channel": 5,
      "note": 72,
      "start": 36.1815,
      "duration": 0.1328,
      "velocity": 100,
      "chip": "ym2612"
    },
    {
      "channel": 4,
      "note": 84,
      "start": 36.2273,
      "duration": 0.1326,
      "velocity": 98,
      "chip": "ym2612"
    },
    {
      "channel": 0,
      "note": 74,
      "start": 36.3095,
      "duration": 1.7327,
      "velocity": 98,
      "chip": "ym2612"
    },
    {
      "channel": 1,
      "note": 50,
      "start": 36.3102,
      "duration": 0.1323,
      "velocity": 80,
      "chip": "ym2612"
    },
    {
      "channel": 3,
      "note": 65,
      "start": 36.311,
      "duration": 0.1323,
      "velocity": 98,
      "chip": "ym2612"
    },
    {
      "channel": 5,
      "note": 72,
      "start": 36.315,
      "duration": 0.1322,
      "velocity": 100,
      "chip": "ym2612"
    },
    {
      "channel": 2,
      "note": 25,
      "start": 36.3186,
      "duration": 0.2623,
      "velocity": 79,
      "chip": "ym2612"
    },
    {
      "channel": 4,
      "note": 86,
      "start": 36.3607,
      "duration": 1.7326,
      "velocity": 98,
      "chip": "ym2612"
    },
    {
      "channel": 1,
      "note": 50,
      "start": 36.4431,
      "duration": 0.1328,
      "velocity": 80,
      "chip": "ym2612"
    },
    {
      "channel": 3,
      "note": 64,
      "start": 36.4439,
      "duration": 0.1323,
      "velocity": 98,
      "chip": "ym2612"
    },
    {
      "channel": 5,
      "note": 72,
      "start": 36.4478,
      "duration": 0.1323,
      "velocity": 100,
      "chip": "ym2612"
    },
    {
      "channel": 3,
      "note": 62,
      "start": 36.5768,
      "duration": 0.1332,
      "velocity": 98,
      "chip": "ym2612"
    },
    {
      "channel": 5,
      "note": 72,
      "start": 36.5807,
      "duration": 0.1331,
      "velocity": 100,
      "chip": "ym2612"
    },
    {
      "channel": 1,
      "note": 50,
      "start": 36.7098,
      "duration": 0.1328,
      "velocity": 80,
      "chip": "ym2612"
    },
    {
      "channel": 3,
      "note": 60,
      "start": 36.7105,
      "duration": 0.1323,
      "velocity": 98,
      "chip": "ym2612"
    },
    {
      "channel": 5,
      "note": 72,
      "start": 36.7145,
      "duration": 0.1319,
      "velocity": 100,
      "chip": "ym2612"
    },
    {
      "channel": 5,
      "note": 72,
      "start": 36.8469,
      "duration": 0.2669,
      "velocity": 100,
      "chip": "ym2612"
    },
    {
      "channel": 2,
      "note": 70,
      "start": 36.8506,
      "duration": 0.1305,
      "velocity": 79,
      "chip": "ym2612"
    },
    {
      "channel": 1,
      "note": 50,
      "start": 36.9765,
      "duration": 0.1328,
      "velocity": 80,
      "chip": "ym2612"
    },
    {
      "channel": 3,
      "note": 59,
      "start": 36.9772,
      "duration": 0.1328,
      "velocity": 98,
      "chip": "ym2612"
    },
    {
      "channel": 2,
      "note": 25,
      "start": 36.9817,
      "duration": 0.2663,
      "velocity": 79,
      "chip": "ym2612"
    },
    {
      "channel": 1,
      "note": 62,
      "start": 37.1098,
      "duration": 0.1328,
      "velocity": 80,
      "chip": "ym2612"
    },
    {
      "channel": 3,
      "note": 60,
      "start": 37.1105,
      "duration": 0.1328,
      "velocity": 98,
      "chip": "ym2612"
    },
    {
      "channel": 5,
      "note": 72,
      "start": 37.1145,
      "duration": 0.1327,
      "velocity": 100,
      "chip": "ym2612"
    },
    {
      "channel": 1,
      "note": 50,
      "start": 37.2431,
      "duration": 0.1328,
      "velocity": 80,
      "chip": "ym2612"
    },
    {
      "channel": 3,
      "note": 59,
      "start": 37.2439,
      "duration": 0.1328,
      "velocity": 98,
      "chip": "ym2612"
    },
    {
      "channel": 5,
      "note": 72,
      "start": 37.2478,
      "duration": 0.1324,
      "velocity": 100,
      "chip": "ym2612"
    },
    {
      "channel": 1,
      "note": 50,
      "start": 37.3765,
      "duration": 0.1328,
      "velocity": 80,
      "chip": "ym2612"
    },
    {
      "channel": 5,
      "note": 72,
      "start": 37.3808,
      "duration": 0.133,
      "velocity": 100,
      "chip": "ym2612"
    },
    {
      "channel": 1,
      "note": 50,
      "start": 37.5098,
      "duration": 0.1328,
      "velocity": 80,
      "chip": "ym2612"
    },
    {
      "channel": 3,
      "note": 57,
      "start": 37.5105,
      "duration": 0.1323,
      "velocity": 98,
      "chip": "ym2612"
    },
    {
      "channel": 5,
      "note": 72,
      "start": 37.5145,
      "duration": 0.1323,
      "velocity": 100,
      "chip": "ym2612"
    },
    {
      "channel": 3,
      "note": 59,
      "start": 37.6434,
      "duration": 0.1332,
      "velocity": 98,
      "chip": "ym2612"
    },
    {
      "channel": 5,
      "note": 72,
      "start": 37.6474,
      "duration": 0.1331,
      "velocity": 100,
      "chip": "ym2612"
    },
    {
      "channel": 2,
      "note": 25,
      "start": 37.651,
      "duration": 0.2661,
      "velocity": 127,
      "chip": "ym2612"
    },
    {
      "channel": 1,
      "note": 50,
      "start": 37.7765,
      "duration": 0.1328,
      "velocity": 80,
      "chip": "ym2612"
    },
    {
      "channel": 3,
      "note": 60,
      "start": 37.7772,
      "duration": 0.1323,
      "velocity": 98,
      "chip": "ym2612"
    },
    {
      "channel": 5,
      "note": 72,
      "start": 37.7812,
      "duration": 0.1323,
      "velocity": 100,
      "chip": "ym2612"
    },
    {
      "channel": 3,
      "note": 59,
      "start": 37.9101,
      "duration": 0.1336,
      "velocity": 98,
      "chip": "ym2612"
    },
    {
      "channel": 5,
      "note": 72,
      "start": 37.9141,
      "duration": 0.2669,
      "velocity": 100,
      "chip": "ym2612"
    },
    {
      "channel": 2,
      "note": 70,
      "start": 37.9177,
      "duration": 0.1305,
      "velocity": 79,
      "chip": "ym2612"
    },
    {
      "channel": 0,
      "note": 76,
      "start": 38.0428,
      "duration": 0.1327,
      "velocity": 98,
      "chip": "ym2612"
    },
    {
      "channel": 1,
      "note": 50,
      "start": 38.0436,
      "duration": 0.1327,
      "velocity": 80,
      "chip": "ym2612"
    },
    {
      "channel": 3,
      "note": 57,
      "start": 38.0443,
      "duration": 0.1327,
      "velocity": 98,
      "chip": "ym2612"
    },
    {
      "channel": 2,
      "note": 25,
      "start": 38.0487,
      "duration": 0.2663,
      "velocity": 79,
      "chip": "ym2612"
    },
    {
      "channel": 4,
      "note": 88,
      "start": 38.094,
      "duration": 0.1326,
      "velocity": 98,
      "chip": "ym2612"
    },
    {
      "channel": 0,
      "note": 74,
      "start": 38.1761,
      "duration": 0.1328,
      "velocity": 98,
      "chip": "ym2612"
    },
    {
      "channel": 1,
      "note": 62,
      "start": 38.1769,
      "duration": 0.1327,
      "velocity": 80,
      "chip": "ym2612"
    },
    {
      "channel": 3,
      "note": 55,
      "start": 38.1776,
      "duration": 0.1328,
      "velocity": 98,
      "chip": "ym2612"
    },
    {
      "channel": 5,
      "note": 72,
      "start": 38.1815,
      "duration": 0.1328,
      "velocity": 100,
      "chip": "ym2612"
    },
    {
      "channel": 4,
      "note": 86,
      "start": 38.2273,
      "duration": 0.1326,
      "velocity": 98,
      "chip": "ym2612"
    },
    {
      "channel": 0,
      "note": 72,
      "start": 38.3095,
      "duration": 0.1327,
      "velocity": 98,
      "chip": "ym2612"
    },
    {
      "channel": 1,
      "note": 50,
      "start": 38.3102,
      "duration": 0.1327,
      "velocity": 80,
      "chip": "ym2612"
    },
    {
      "channel": 3,
      "note": 57,
      "start": 38.3109,
      "duration": 0.1328,
      "velocity": 98,
      "chip": "ym2612"
    },
    {
      "channel": 5,
      "note": 72,
      "start": 38.3149,
      "duration": 0.1328,
      "velocity": 100,
      "chip": "ym2612"
    },
    {
      "channel": 4,
      "note": 84,
      "start": 38.3607,
      "duration": 0.1326,
      "velocity": 98,
      "chip": "ym2612"
    },
    {
      "channel": 0,
      "note": 71,
      "start": 38.4428,
      "duration": 1.3327,
      "velocity": 98,
      "chip": "ym2612"
    },
    {
      "channel": 1,
      "note": 52,
      "start": 38.4436,
      "duration": 0.1323,
      "velocity": 80,
      "chip": "ym2612"
    },
    {
      "channel": 3,
      "note": 64,
      "start": 38.4443,
      "duration": 0.1323,
      "velocity": 98,
      "chip": "ym2612"
    },
    {
      "channel": 5,
      "note": 72,
      "start": 38.4483,
      "duration": 0.1322,
      "velocity": 100,
      "chip": "ym2612"
    },
    {
      "channel": 2,
      "note": 25,
      "start": 38.452,
      "duration": 0.2623,
      "velocity": 79,
      "chip": "ym2612"
    },
    {
      "channel": 4,
      "note": 83,
      "start": 38.494,
      "duration": 1.3323,
      "velocity": 98,
      "chip": "ym2612"
    },
    {
      "channel": 1,
      "note": 52,
      "start": 38.5765,
      "duration": 0.1328,
      "velocity": 80,
      "chip": "ym2612"
    },
    {
      "channel": 3,
      "note": 62,
      "start": 38.5772,
      "duration": 0.1323,
      "velocity": 98,
      "chip": "ym2612"
    },
    {
      "channel": 5,
      "note": 72,
      "start": 38.5812,
      "duration": 0.1323,
      "velocity": 100,
      "chip": "ym2612"
    },
    {
      "channel": 3,
      "note": 60,
      "start": 38.7101,
      "duration": 0.1332,
      "velocity": 98,
      "chip": "ym2612"
    },
    {
      "channel": 5,
      "note": 72,
      "start": 38.7141,
      "duration": 0.1331,
      "velocity": 100,
      "chip": "ym2612"
    },
    {
      "channel": 1,
      "note": 52,
      "start": 38.8431,
      "duration": 0.1328,
      "velocity": 80,
      "chip": "ym2612"
    },
    {
      "channel": 3,
      "note": 59,
      "start": 38.8439,
      "duration": 0.1323,
      "velocity": 98,
      "chip": "ym2612"
    },
    {
      "channel": 5,
      "note": 72,
      "start": 38.8478,
      "duration": 0.1319,
      "velocity": 100,
      "chip": "ym2612"
    },
    {
      "channel": 5,
      "note": 72,
      "start": 38.9803,
      "duration": 0.2669,
      "velocity": 100,
      "chip": "ym2612"
    },
    {
      "channel": 2,
      "note": 70,
      "start": 38.9839,
      "duration": 0.1305,
      "velocity": 79,
      "chip": "ym2612"
    },
    {
      "channel": 1,
      "note": 52,
      "start": 39.1098,
      "duration": 0.1328,
      "velocity": 80,
      "chip": "ym2612"
    },
    {
      "channel": 3,
      "note": 57,
      "start": 39.1105,
      "duration": 0.1328,
      "velocity": 98,
      "chip": "ym2612"
    },
    {
      "channel": 2,
      "note": 25,
      "start": 39.115,
      "duration": 0.2663,
      "velocity": 79,
      "chip": "ym2612"
    },
    {
      "channel": 1,
      "note": 64,
      "start": 39.2431,
      "duration": 0.1328,
      "velocity": 80,
      "chip": "ym2612"
    },
    {
      "channel": 3,
      "note": 59,
      "start": 39.2439,
      "duration": 0.1328,
      "velocity": 98,
      "chip": "ym2612"
    },
    {
      "channel": 5,
      "note": 72,
      "start": 39.2478,
      "duration": 0.1327,
      "velocity": 100,
      "chip": "ym2612"
    },
    {
      "channel": 1,
      "note": 52,
      "start": 39.3765,
      "duration": 0.1328,
      "velocity": 80,
      "chip": "ym2612"
    },
    {
      "channel": 3,
      "note": 57,
      "start": 39.3772,
      "duration": 0.1328,
      "velocity": 98,
      "chip": "ym2612"
    },
    {
      "channel": 5,
      "note": 72,
      "start": 39.3812,
      "duration": 0.1324,
      "velocity": 100,
      "chip": "ym2612"
    },
    {
      "channel": 1,
      "note": 52,
      "start": 39.5098,
      "duration": 0.1328,
      "velocity": 80,
      "chip": "ym2612"
    },
    {
      "channel": 5,
      "note": 72,
      "start": 39.5142,
      "duration": 0.133,
      "velocity": 100,
      "chip": "ym2612"
    },
    {
      "channel": 1,
      "note": 52,
      "start": 39.6431,
      "duration": 0.1331,
      "velocity": 80,
      "chip": "ym2612"
    },
    {
      "channel": 3,
      "note": 55,
      "start": 39.6439,
      "duration": 0.1327,
      "velocity": 98,
      "chip": "ym2612"
    },
    {
      "channel": 5,
      "note": 72,
      "start": 39.6478,
      "duration": 0.1327,
      "velocity": 100,
      "chip": "ym2612"
    },
    {
      "channel": 0,
      "note": 79,
      "start": 39.7761,
      "duration": 0.7994,
      "velocity": 98,
      "chip": "ym2612"
    },
    {
      "channel": 3,
      "note": 57,
      "start": 39.7772,
      "duration": 0.1328,
      "velocity": 98,
      "chip": "ym2612"
    },
    {
      "channel": 5,
      "note": 72,
      "start": 39.7812,
      "duration": 0.1327,
      "velocity": 100,
      "chip": "ym2612"
    },
    {
      "channel": 2,
      "note": 25,
      "start": 39.7847,
      "duration": 0.2656,
      "velocity": 127,
      "chip": "ym2612"
    },
    {
      "channel": 4,
      "note": 91,
      "start": 39.8271,
      "duration": 0.7995,
      "velocity": 98,
      "chip": "ym2612"
    },
    {
      "channel": 1,
      "note": 52,
      "start": 39.9098,
      "duration": 0.1328,
      "velocity": 80,
      "chip": "ym2612"
    },
    {
      "channel": 3,
      "note": 59,
      "start": 39.9105,
      "duration": 0.1323,
      "velocity": 98,
      "chip": "ym2612"
    },
    {
      "channel": 5,
      "note": 72,
      "start": 39.9145,
      "duration": 0.1323,
      "velocity": 100,
      "chip": "ym2612"
    },
    {
      "channel": 3,
      "note": 60,
      "start": 40.0434,
      "duration": 0.1332,
      "velocity": 98,
      "chip": "ym2612"
    },
    {
      "channel": 5,
      "note": 72,
      "start": 40.0474,
      "duration": 0.2665,
      "velocity": 100,
      "chip": "ym2612"
    },
    {
      "channel": 2,
      "note": 70,
      "start": 40.051,
      "duration": 0.13,
      "velocity": 79,
      "chip": "ym2612"
    },
    {
      "channel": 1,
      "note": 52,
      "start": 40.1765,
      "duration": 0.1328,
      "velocity": 80,
      "chip": "ym2612"
    },
    {
      "channel": 3,
      "note": 59,
      "start": 40.1772,
      "duration": 0.1328,
      "velocity": 98,
      "chip": "ym2612"
    },
    {
      "channel": 2,
      "note": 25,
      "start": 40.1817,
      "duration": 0.2659,
      "velocity": 79,
      "chip": "ym2612"
    },
    {
      "channel": 1,
      "note": 64,
      "start": 40.3098,
      "duration": 0.1328,
      "velocity": 80,
      "chip": "ym2612"
    },
    {
      "channel": 3,
      "note": 57,
      "start": 40.3105,
      "duration": 0.1328,
      "velocity": 98,
      "chip": "ym2612"
    },
    {
      "channel": 5,
      "note": 72,
      "start": 40.3145,
      "duration": 0.1323,
      "velocity": 100,
      "chip": "ym2612"
    },
    {
      "channel": 1,
      "note": 52,
      "start": 40.4431,
      "duration": 0.1331,
      "velocity": 80,
      "chip": "ym2612"
    },
    {
      "channel": 5,
      "note": 72,
      "start": 40.4474,
      "duration": 0.1337,
      "velocity": 100,
      "chip": "ym2612"
    },
    {
      "channel": 0,
      "note": 76,
      "start": 40.5761,
      "duration": 2.1355,
      "velocity": 98,
      "chip": "ym2612"
    },
    {
      "channel": 1,
      "note": 52,
      "start": 40.5769,
      "duration": 0.1323,
      "velocity": 80,
      "chip": "ym2612"
    },
    {
      "channel": 3,
      "note": 67,
      "start": 40.5777,
      "duration": 0.1323,
      "velocity": 98,
      "chip": "ym2612"
    },
    {
      "channel": 5,
      "note": 72,
      "start": 40.5817,
      "duration": 0.1322,
      "velocity": 100,
      "chip": "ym2612"
    },
    {
      "channel": 2,
      "note": 25,
      "start": 40.5853,
      "duration": 0.2623,
      "velocity": 79,
      "chip": "ym2612"
    },
    {
      "channel": 4,
      "note": 88,
      "start": 40.6273,
      "duration": 2.1517,
      "velocity": 98,
      "chip": "ym2612"
    },
    {
      "channel": 1,
      "note": 52,
      "start": 40.7098,
      "duration": 0.1328,
      "velocity": 80,
      "chip": "ym2612"
    },
    {
      "channel": 3,
      "note": 65,
      "start": 40.7105,
      "duration": 0.1323,
      "velocity": 98,
      "chip": "ym2612"
    },
    {
      "channel": 5,
      "note": 72,
      "start": 40.7145,
      "duration": 0.1323,
      "velocity": 100,
      "chip": "ym2612"
    },
    {
      "channel": 3,
      "note": 64,
      "start": 40.8434,
      "duration": 0.1332,
      "velocity": 98,
      "chip": "ym2612"
    },
    {
      "channel": 5,
      "note": 72,
      "start": 40.8474,
      "duration": 0.1331,
      "velocity": 100,
      "chip": "ym2612"
    },
    {
      "channel": 1,
      "note": 52,
      "start": 40.9765,
      "duration": 0.1328,
      "velocity": 80,
      "chip": "ym2612"
    },
    {
      "channel": 3,
      "note": 62,
      "start": 40.9772,
      "duration": 0.1323,
      "velocity": 98,
      "chip": "ym2612"
    },
    {
      "channel": 5,
      "note": 72,
      "start": 40.9812,
      "duration": 0.1319,
      "velocity": 100,
      "chip": "ym2612"
    },
    {
      "channel": 5,
      "note": 72,
      "start": 41.1136,
      "duration": 0.2669,
      "velocity": 100,
      "chip": "ym2612"
    },
    {
      "channel": 2,
      "note": 70,
      "start": 41.1172,
      "duration": 0.1305,
      "velocity": 79,
      "chip": "ym2612"
    },
    {
      "channel": 1,
      "note": 52,
      "start": 41.2431,
      "duration": 0.1328,
      "velocity": 80,
      "chip": "ym2612"
    },
    {
      "channel": 3,
      "note": 62,
      "start": 41.2439,
      "duration": 0.1328,
      "velocity": 98,
      "chip": "ym2612"
    },
    {
      "channel": 2,
      "note": 25,
      "start": 41.2483,
      "duration": 0.2663,
      "velocity": 79,
      "chip": "ym2612"
    },
    {
      "channel": 1,
      "note": 64,
      "start": 41.3765,
      "duration": 0.1328,
      "velocity": 80,
      "chip": "ym2612"
    },
    {
      "channel": 3,
      "note": 64,
      "start": 41.3772,
      "duration": 0.1328,
      "velocity": 98,
      "chip": "ym2612"
    },
    {
      "channel": 5,
      "note": 72,
      "start": 41.3812,
      "duration": 0.1327,
      "velocity": 100,
      "chip": "ym2612"
    },
    {
      "channel": 1,
      "note": 52,
      "start": 41.5098,
      "duration": 0.1328,
      "velocity": 80,
      "chip": "ym2612"
    },
    {
      "channel": 3,
      "note": 62,
      "start": 41.5105,
      "duration": 0.1328,
      "velocity": 98,
      "chip": "ym2612"
    },
    {
      "channel": 5,
      "note": 72,
      "start": 41.5145,
      "duration": 0.1328,
      "velocity": 100,
      "chip": "ym2612"
    },
    {
      "channel": 1,
      "note": 52,
      "start": 41.6431,
      "duration": 0.1328,
      "velocity": 80,
      "chip": "ym2612"
    },
    {
      "channel": 3,
      "note": 60,
      "start": 41.6439,
      "duration": 0.1328,
      "velocity": 98,
      "chip": "ym2612"
    },
    {
      "channel": 5,
      "note": 72,
      "start": 41.6479,
      "duration": 0.1326,
      "velocity": 100,
      "chip": "ym2612"
    },
    {
      "channel": 1,
      "note": 52,
      "start": 41.7765,
      "duration": 0.1328,
      "velocity": 80,
      "chip": "ym2612"
    },
    {
      "channel": 3,
      "note": 62,
      "start": 41.7772,
      "duration": 0.1323,
      "velocity": 98,
      "chip": "ym2612"
    },
    {
      "channel": 5,
      "note": 72,
      "start": 41.7812,
      "duration": 0.1323,
      "velocity": 100,
      "chip": "ym2612"
    },
    {
      "channel": 3,
      "note": 60,
      "start": 41.9101,
      "duration": 0.1332,
      "velocity": 98,
      "chip": "ym2612"
    },
    {
      "channel": 5,
      "note": 72,
      "start": 41.9141,
      "duration": 0.1331,
      "velocity": 100,
      "chip": "ym2612"
    },
    {
      "channel": 2,
      "note": 25,
      "start": 41.9176,
      "duration": 0.2661,
      "velocity": 127,
      "chip": "ym2612"
    },
    {
      "channel": 1,
      "note": 52,
      "start": 42.0431,
      "duration": 0.1332,
      "velocity": 80,
      "chip": "ym2612"
    },
    {
      "channel": 3,
      "note": 59,
      "start": 42.0439,
      "duration": 0.1328,
      "velocity": 98,
      "chip": "ym2612"
    },
    {
      "channel": 5,
      "note": 72,
      "start": 42.0478,
      "duration": 0.1323,
      "velocity": 100,
      "chip": "ym2612"
    },
    {
      "channel": 5,
      "note": 72,
      "start": 42.1808,
      "duration": 0.2664,
      "velocity": 100,
      "chip": "ym2612"
    },
    {
      "channel": 2,
      "note": 70,
      "start": 42.1844,
      "duration": 0.13,
      "velocity": 79,
      "chip": "ym2612"
    },
    {
      "channel": 1,
      "note": 52,
      "start": 42.3098,
      "duration": 0.1328,
      "velocity": 80,
      "chip": "ym2612"
    },
    {
      "channel": 3,
      "note": 57,
      "start": 42.3105,
      "duration": 0.1328,
      "velocity": 98,
      "chip": "ym2612"
    },
    {
      "channel": 2,
      "note": 25,
      "start": 42.315,
      "duration": 0.2663,
      "velocity": 79,
      "chip": "ym2612"
    },
    {
      "channel": 1,
      "note": 64,
      "start": 42.4431,
      "duration": 0.1328,
      "velocity": 80,
      "chip": "ym2612"
    },
    {
      "channel": 3,
      "note": 59,
      "start": 42.4439,
      "duration": 0.1328,
      "velocity": 98,
      "chip": "ym2612"
    },
    {
      "channel": 5,
      "note": 72,
      "start": 42.4478,
      "duration": 0.1327,
      "velocity": 100,
      "chip": "ym2612"
    },
    {
      "channel": 1,
      "note": 52,
      "start": 42.5765,
      "duration": 0.1385,
      "velocity": 80,
      "chip": "ym2612"
    },
    {
      "channel": 3,
      "note": 60,
      "start": 42.5772,
      "duration": 0.1413,
      "velocity": 98,
      "chip": "ym2612"
    },
    {
      "channel": 5,
      "note": 72,
      "start": 42.5812,
      "duration": 0.1414,
      "velocity": 100,
      "chip": "ym2612"
    },
    {
      "channel": 1,
      "note": 57,
      "start": 42.7156,
      "duration": 0.1433,
      "velocity": 80,
      "chip": "ym2612"
    },
    {
      "channel": 3,
      "note": 57,
      "start": 42.7191,
      "duration": 0.1405,
      "velocity": 98,
      "chip": "ym2612"
    },
    {
      "channel": 5,
      "note": 72,
      "start": 42.7232,
      "duration": 0.14,
      "velocity": 100,
      "chip": "ym2612"
    },
    {
      "channel": 2,
      "note": 25,
      "start": 42.7268,
      "duration": 0.27,
      "velocity": 79,
      "chip": "ym2612"
    },
    {
      "channel": 1,
      "note": 57,
      "start": 42.8595,
      "duration": 0.1327,
      "velocity": 80,
      "chip": "ym2612"
    },
    {
      "channel": 3,
      "note": 59,
      "start": 42.8603,
      "duration": 0.1323,
      "velocity": 98,
      "chip": "ym2612"
    },
    {
      "channel": 5,
      "note": 72,
      "start": 42.8638,
      "duration": 0.1322,
      "velocity": 100,
      "chip": "ym2612"
    },
    {
      "channel": 3,
      "note": 60,
      "start": 42.9932,
      "duration": 0.1331,
      "velocity": 98,
      "chip": "ym2612"
    },
    {
      "channel": 5,
      "note": 72,
      "start": 42.9967,
      "duration": 0.1332,
      "velocity": 100,
      "chip": "ym2612"
    },
    {
      "channel": 1,
      "note": 57,
      "start": 43.1262,
      "duration": 0.1327,
      "velocity": 80,
      "chip": "ym2612"
    },
    {
      "channel": 3,
      "note": 62,
      "start": 43.127,
      "duration": 0.1323,
      "velocity": 98,
      "chip": "ym2612"
    },
    {
      "channel": 5,
      "note": 72,
      "start": 43.1305,
      "duration": 0.1322,
      "velocity": 100,
      "chip": "ym2612"
    },
    {
      "channel": 3,
      "note": 64,
      "start": 43.2599,
      "duration": 0.1331,
      "velocity": 98,
      "chip": "ym2612"
    },
    {
      "channel": 5,
      "note": 72,
      "start": 43.2634,
      "duration": 0.2665,
      "velocity": 100,
      "chip": "ym2612"
    },
    {
      "channel": 2,
      "note": 70,
      "start": 43.267,
      "duration": 0.13,
      "velocity": 79,
      "chip": "ym2612"
    },
    {
      "channel": 1,
      "note": 57,
      "start": 43.3929,
      "duration": 0.1327,
      "velocity": 80,
      "chip": "ym2612"
    },
    {
      "channel": 3,
      "note": 65,
      "start": 43.3936,
      "duration": 0.1327,
      "velocity": 98,
      "chip": "ym2612"
    },
    {
      "channel": 2,
      "note": 25,
      "start": 43.3976,
      "duration": 0.2663,
      "velocity": 79,
      "chip": "ym2612"
    },
    {
      "channel": 1,
      "note": 69,
      "start": 43.5262,
      "duration": 0.1327,
      "velocity": 80,
      "chip": "ym2612"
    },
    {
      "channel": 3,
      "note": 67,
      "start": 43.527,
      "duration": 0.1327,
      "velocity": 98,
      "chip": "ym2612"
    },
    {
      "channel": 5,
      "note": 72,
      "start": 43.5305,
      "duration": 0.1327,
      "velocity": 100,
      "chip": "ym2612"
    },
    {
      "channel": 1,
      "note": 57,
      "start": 43.6595,
      "duration": 0.1327,
      "velocity": 80,
      "chip": "ym2612"
    },
    {
      "channel": 3,
      "note": 69,
      "start": 43.6603,
      "duration": 0.1327,
      "velocity": 98,
      "chip": "ym2612"
    },
    {
      "channel": 5,
      "note": 72,
      "start": 43.6638,
      "duration": 0.1328,
      "velocity": 100,
      "chip": "ym2612"
    },
    {
      "channel": 1,
      "note": 57,
      "start": 43.7929,
      "duration": 0.1327,
      "velocity": 80,
      "chip": "ym2612"
    },
    {
      "channel": 3,
      "note": 71,
      "start": 43.7936,
      "duration": 0.1327,
      "velocity": 98,
      "chip": "ym2612"
    },
    {
      "channel": 5,
      "note": 72,
      "start": 43.7972,
      "duration": 0.1327,
      "velocity": 100,
      "chip": "ym2612"
    },
    {
      "channel": 1,
      "note": 57,
      "start": 43.9262,
      "duration": 0.1327,
      "velocity": 80,
      "chip": "ym2612"
    },
    {
      "channel": 3,
      "note": 72,
      "start": 43.927,
      "duration": 0.1323,
      "velocity": 98,
      "chip": "ym2612"
    },
    {
      "channel": 5,
      "note": 72,
      "start": 43.9305,
      "duration": 0.1322,
      "velocity": 100,
      "chip": "ym2612"
    },
    {
      "channel": 3,
      "note": 74,
      "start": 44.0599,
      "duration": 0.1331,
      "velocity": 98,
      "chip": "ym2612"
    },
    {
      "channel": 5,
      "note": 72,
      "start": 44.0634,
      "duration": 0.1332,
      "velocity": 100,
      "chip": "ym2612"
    },
    {
      "channel": 2,
      "note": 25,
      "start": 44.0669,
      "duration": 0.2661,
      "velocity": 127,
      "chip": "ym2612"
    },
    {
      "channel": 1,
      "note": 57,
      "start": 44.1929,
      "duration": 0.1327,
      "velocity": 80,
      "chip": "ym2612"
    },
    {
      "channel": 3,
      "note": 76,
      "start": 44.1936,
      "duration": 0.1323,
      "velocity": 98,
      "chip": "ym2612"
    },
    {
      "channel": 5,
      "note": 72,
      "start": 44.1971,
      "duration": 0.1322,
      "velocity": 100,
      "chip": "ym2612"
    },
    {
      "channel": 3,
      "note": 77,
      "start": 44.3265,
      "duration": 0.1331,
      "velocity": 98,
      "chip": "ym2612"
    },
    {
      "channel": 5,
      "note": 72,
      "start": 44.33,
      "duration": 0.2665,
      "velocity": 100,
      "chip": "ym2612"
    },
    {
      "channel": 2,
      "note": 70,
      "start": 44.3337,
      "duration": 0.13,
      "velocity": 79,
      "chip": "ym2612"
    },
    {
      "channel": 1,
      "note": 57,
      "start": 44.4595,
      "duration": 0.1327,
      "velocity": 80,
      "chip": "ym2612"
    },
    {
      "channel": 3,
      "note": 79,
      "start": 44.4603,
      "duration": 0.1327,
      "velocity": 98,
      "chip": "ym2612"
    },
    {
      "channel": 2,
      "note": 25,
      "start": 44.4643,
      "duration": 0.2663,
      "velocity": 79,
      "chip": "ym2612"
    },
    {
      "channel": 1,
      "note": 69,
      "start": 44.5929,
      "duration": 0.1327,
      "velocity": 80,
      "chip": "ym2612"
    },
    {
      "channel": 3,
      "note": 81,
      "start": 44.5936,
      "duration": 0.1327,
      "velocity": 98,
      "chip": "ym2612"
    },
    {
      "channel": 5,
      "note": 72,
      "start": 44.5971,
      "duration": 0.1327,
      "velocity": 100,
      "chip": "ym2612"
    },
    {
      "channel": 1,
      "note": 57,
      "start": 44.7262,
      "duration": 0.1318,
      "velocity": 80,
      "chip": "ym2612"
    },
    {
      "channel": 3,
      "note": 83,
      "start": 44.727,
      "duration": 0.1311,
      "velocity": 98,
      "chip": "ym2612"
    },
    {
      "channel": 5,
      "note": 72,
      "start": 44.7305,
      "duration": 0.1276,
      "velocity": 100,
      "chip": "ym2612"
    }
  ]
}