{
  "track_name": "09 - Asteroid M",
  "duration_sec": 80.465,
  "sample_rate": 44100,
  "note_count": 614,
  "unique_pitches": 19,
  "pitch_range": 31,
  "avg_note_duration": 0.1773,
  "reconstruction_stats": {
    "notes_reconstructed": 614,
    "keyon_events": 614,
    "keyoff_events": 613,
    "orphan_keyons": 1,
    "unique_pitches": 19,
    "pitch_range": 31,
    "avg_duration_sec": 0.1773
  },
  "metadata": {
    "source": "X\\X-Men\\09 - Asteroid M.vgz"
  },
  "notes": [
    {
      "channel": 0,
      "note": 44,
      "start": 0.0,
      "duration": 0.0638,
      "velocity": 102,
      "chip": "ym2612"
    },
    {
      "channel": 0,
      "note": 44,
      "start": 0.0747,
      "duration": 0.087,
      "velocity": 102,
      "chip": "ym2612"
    },
    {
      "channel": 0,
      "note": 44,
      "start": 0.1812,
      "duration": 0.1305,
      "velocity": 102,
      "chip": "ym2612"
    },
    {
      "channel": 0,
      "note": 49,
      "start": 0.3478,
      "duration": 0.0584,
      "velocity": 102,
      "chip": "ym2612"
    },
    {
      "channel": 0,
      "note": 49,
      "start": 0.4168,
      "duration": 0.0686,
      "velocity": 102,
      "chip": "ym2612"
    },
    {
      "channel": 0,
      "note": 49,
      "start": 0.5049,
      "duration": 0.1305,
      "velocity": 102,
      "chip": "ym2612"
    },
    {
      "channel": 0,
      "note": 47,
      "start": 0.6549,
      "duration": 0.0589,
      "velocity": 102,
      "chip": "ym2612"
    },
    {
      "channel": 0,
      "note": 47,
      "start": 0.7245,
      "duration": 0.0682,
      "velocity": 102,
      "chip": "ym2612"
    },
    {
      "channel": 0,
      "note": 47,
      "start": 0.8121,
      "duration": 0.1305,
      "velocity": 102,
      "chip": "ym2612"
    },
    {
      "channel": 0,
      "note": 46,
      "start": 0.9622,
      "duration": 0.0596,
      "velocity": 102,
      "chip": "ym2612"
    },
    {
      "channel": 0,
      "note": 46,
      "start": 1.0387,
      "duration": 0.0571,
      "velocity": 102,
      "chip": "ym2612"
    },
    {
      "channel": 0,
      "note": 46,
      "start": 1.1056,
      "duration": 0.0589,
      "velocity": 102,
      "chip": "ym2612"
    },
    {
      "channel": 0,
      "note": 44,
      "start": 1.1738,
      "duration": 0.0587,
      "velocity": 102,
      "chip": "ym2612"
    },
    {
      "channel": 0,
      "note": 44,
      "start": 1.2434,
      "duration": 0.0929,
      "velocity": 102,
      "chip": "ym2612"
    },
    {
      "channel": 0,
      "note": 44,
      "start": 1.3558,
      "duration": 0.1305,
      "velocity": 102,
      "chip": "ym2612"
    },
    {
      "channel": 0,
      "note": 49,
      "start": 1.5058,
      "duration": 0.059,
      "velocity": 102,
      "chip": "ym2612"
    },
    {
      "channel": 0,
      "note": 49,
      "start": 1.5757,
      "duration": 0.0683,
      "velocity": 102,
      "chip": "ym2612"
    },
    {
      "channel": 0,
      "note": 49,
      "start": 1.6801,
      "duration": 0.1305,
      "velocity": 102,
      "chip": "ym2612"
    },
    {
      "channel": 0,
      "note": 47,
      "start": 1.83,
      "duration": 0.0585,
      "velocity": 102,
      "chip": "ym2612"
    },
    {
      "channel": 0,
      "note": 47,
      "start": 1.8991,
      "duration": 0.0683,
      "velocity": 102,
      "chip": "ym2612"
    },
    {
      "channel": 0,
      "note": 47,
      "start": 1.987,
      "duration": 0.1305,
      "velocity": 102,
      "chip": "ym2612"
    },
    {
      "channel": 0,
      "note": 46,
      "start": 2.1369,
      "duration": 0.059,
      "velocity": 102,
      "chip": "ym2612"
    },
    {
      "channel": 0,
      "note": 46,
      "start": 2.2067,
      "duration": 0.0681,
      "velocity": 102,
      "chip": "ym2612"
    },
    {
      "channel": 0,
      "note": 46,
      "start": 2.2943,
      "duration": 0.1305,
      "velocity": 102,
      "chip": "ym2612"
    },
    {
      "channel": 0,
      "note": 39,
      "start": 2.461,
      "duration": 0.0632,
      "velocity": 102,
      "chip": "ym2612"
    },
    {
      "channel": 4,
      "note": 70,
      "start": 2.465,
      "duration": 0.1606,
      "velocity": 113,
      "chip": "ym2612"
    },
    {
      "channel": 1,
      "note": 58,
      "start": 2.4685,
      "duration": 0.446,
      "velocity": 105,
      "chip": "ym2612"
    },
    {
      "channel": 0,
      "note": 39,
      "start": 2.5339,
      "duration": 0.0915,
      "velocity": 102,
      "chip": "ym2612"
    },
    {
      "channel": 0,
      "note": 39,
      "start": 2.6449,
      "duration": 0.1305,
      "velocity": 102,
      "chip": "ym2612"
    },
    {
      "channel": 4,
      "note": 68,
      "start": 2.6478,
      "duration": 0.1278,
      "velocity": 113,
      "chip": "ym2612"
    },
    {
      "channel": 0,
      "note": 44,
      "start": 2.7949,
      "duration": 0.0606,
      "velocity": 102,
      "chip": "ym2612"
    },
    {
      "channel": 4,
      "note": 70,
      "start": 2.7985,
      "duration": 0.1329,
      "velocity": 113,
      "chip": "ym2612"
    },
    {
      "channel": 0,
      "note": 44,
      "start": 2.8651,
      "duration": 0.0661,
      "velocity": 102,
      "chip": "ym2612"
    },
    {
      "channel": 0,
      "note": 44,
      "start": 2.9507,
      "duration": 0.1305,
      "velocity": 102,
      "chip": "ym2612"
    },
    {
      "channel": 4,
      "note": 68,
      "start": 2.954,
      "duration": 0.1275,
      "velocity": 113,
      "chip": "ym2612"
    },
    {
      "channel": 1,
      "note": 56,
      "start": 2.957,
      "duration": 0.1244,
      "velocity": 105,
      "chip": "ym2612"
    },
    {
      "channel": 0,
      "note": 42,
      "start": 3.1007,
      "duration": 0.063,
      "velocity": 102,
      "chip": "ym2612"
    },
    {
      "channel": 4,
      "note": 70,
      "start": 3.1037,
      "duration": 0.1521,
      "velocity": 113,
      "chip": "ym2612"
    },
    {
      "channel": 1,
      "note": 59,
      "start": 3.1067,
      "duration": 0.4306,
      "velocity": 105,
      "chip": "ym2612"
    },
    {
      "channel": 0,
      "note": 42,
      "start": 3.1815,
      "duration": 0.074,
      "velocity": 102,
      "chip": "ym2612"
    },
    {
      "channel": 0,
      "note": 42,
      "start": 3.2755,
      "duration": 0.13,
      "velocity": 102,
      "chip": "ym2612"
    },
    {
      "channel": 4,
      "note": 68,
      "start": 3.2788,
      "duration": 0.1269,
      "velocity": 113,
      "chip": "ym2612"
    },
    {
      "channel": 0,
      "note": 41,
      "start": 3.4251,
      "duration": 0.0612,
      "velocity": 102,
      "chip": "ym2612"
    },
    {
      "channel": 4,
      "note": 70,
      "start": 3.428,
      "duration": 0.1349,
      "velocity": 113,
      "chip": "ym2612"
    },
    {
      "channel": 0,
      "note": 41,
      "start": 3.4969,
      "duration": 0.0658,
      "velocity": 102,
      "chip": "ym2612"
    },
    {
      "channel": 0,
      "note": 41,
      "start": 3.5821,
      "duration": 0.1307,
      "velocity": 102,
      "chip": "ym2612"
    },
    {
      "channel": 4,
      "note": 68,
      "start": 3.585,
      "duration": 0.1279,
      "velocity": 113,
      "chip": "ym2612"
    },
    {
      "channel": 1,
      "note": 56,
      "start": 3.588,
      "duration": 0.1248,
      "velocity": 105,
      "chip": "ym2612"
    },
    {
      "channel": 0,
      "note": 39,
      "start": 3.7322,
      "duration": 0.0621,
      "velocity": 102,
      "chip": "ym2612"
    },
    {
      "channel": 4,
      "note": 70,
      "start": 3.7352,
      "duration": 0.1339,
      "velocity": 113,
      "chip": "ym2612"
    },
    {
      "channel": 1,
      "note": 61,
      "start": 3.7381,
      "duration": 0.4528,
      "velocity": 105,
      "chip": "ym2612"
    },
    {
      "channel": 0,
      "note": 39,
      "start": 3.8036,
      "duration": 0.0653,
      "velocity": 102,
      "chip": "ym2612"
    },
    {
      "channel": 0,
      "note": 39,
      "start": 3.9051,
      "duration": 0.1305,
      "velocity": 102,
      "chip": "ym2612"
    },
    {
      "channel": 4,
      "note": 68,
      "start": 3.9081,
      "duration": 0.1277,
      "velocity": 113,
      "chip": "ym2612"
    },
    {
      "channel": 0,
      "note": 44,
      "start": 4.0551,
      "duration": 0.0599,
      "velocity": 102,
      "chip": "ym2612"
    },
    {
      "channel": 4,
      "note": 70,
      "start": 4.058,
      "duration": 0.1331,
      "velocity": 113,
      "chip": "ym2612"
    },
    {
      "channel": 0,
      "note": 44,
      "start": 4.1254,
      "duration": 0.0654,
      "velocity": 102,
      "chip": "ym2612"
    },
    {
      "channel": 0,
      "note": 44,
      "start": 4.2103,
      "duration": 0.1305,
      "velocity": 102,
      "chip": "ym2612"
    },
    {
      "channel": 4,
      "note": 68,
      "start": 4.2133,
      "duration": 0.1278,
      "velocity": 113,
      "chip": "ym2612"
    },
    {
      "channel": 1,
      "note": 56,
      "start": 4.2168,
      "duration": 0.1241,
      "velocity": 105,
      "chip": "ym2612"
    },
    {
      "channel": 0,
      "note": 42,
      "start": 4.3603,
      "duration": 0.0632,
      "velocity": 102,
      "chip": "ym2612"
    },
    {
      "channel": 4,
      "note": 70,
      "start": 4.3633,
      "duration": 0.1346,
      "velocity": 113,
      "chip": "ym2612"
    },
    {
      "channel": 1,
      "note": 59,
      "start": 4.3666,
      "duration": 0.4545,
      "velocity": 105,
      "chip": "ym2612"
    },
    {
      "channel": 0,
      "note": 42,
      "start": 4.4329,
      "duration": 0.0649,
      "velocity": 102,
      "chip": "ym2612"
    },
    {
      "channel": 0,
      "note": 42,
      "start": 4.5173,
      "duration": 0.1305,
      "velocity": 102,
      "chip": "ym2612"
    },
    {
      "channel": 4,
      "note": 68,
      "start": 4.5203,
      "duration": 0.1277,
      "velocity": 113,
      "chip": "ym2612"
    },
    {
      "channel": 0,
      "note": 41,
      "start": 4.6839,
      "duration": 0.0627,
      "velocity": 102,
      "chip": "ym2612"
    },
    {
      "channel": 3,
      "note": 56,
      "start": 4.687,
      "duration": 0.0596,
      "velocity": 108,
      "chip": "ym2612"
    },
    {
      "channel": 4,
      "note": 70,
      "start": 4.6898,
      "duration": 0.1316,
      "velocity": 113,
      "chip": "ym2612"
    },
    {
      "channel": 0,
      "note": 41,
      "start": 4.7559,
      "duration": 0.0651,
      "velocity": 102,
      "chip": "ym2612"
    },
    {
      "channel": 3,
      "note": 58,
      "start": 4.7582,
      "duration": 0.0631,
      "velocity": 108,
      "chip": "ym2612"
    },
    {
      "channel": 0,
      "note": 41,
      "start": 4.8404,
      "duration": 0.1305,
      "velocity": 102,
      "chip": "ym2612"
    },
    {
      "channel": 3,
      "note": 59,
      "start": 4.8429,
      "duration": 0.1283,
      "velocity": 108,
      "chip": "ym2612"
    },
    {
      "channel": 4,
      "note": 68,
      "start": 4.8461,
      "duration": 0.1253,
      "velocity": 113,
      "chip": "ym2612"
    },
    {
      "channel": 1,
      "note": 56,
      "start": 4.8491,
      "duration": 0.122,
      "velocity": 105,
      "chip": "ym2612"
    },
    {
      "channel": 0,
      "note": 44,
      "start": 4.9908,
      "duration": 0.0623,
      "velocity": 102,
      "chip": "ym2612"
    },
    {
      "channel": 3,
      "note": 56,
      "start": 4.9936,
      "duration": 0.1274,
      "velocity": 108,
      "chip": "ym2612"
    },
    {
      "channel": 1,
      "note": 58,
      "start": 4.9968,
      "duration": 0.0789,
      "velocity": 105,
      "chip": "ym2612"
    },
    {
      "channel": 0,
      "note": 44,
      "start": 5.0625,
      "duration": 0.0918,
      "velocity": 102,
      "chip": "ym2612"
    },
    {
      "channel": 0,
      "note": 44,
      "start": 5.1737,
      "duration": 0.1305,
      "velocity": 102,
      "chip": "ym2612"
    },
    {
      "channel": 0,
      "note": 49,
      "start": 5.3237,
      "duration": 0.059,
      "velocity": 102,
      "chip": "ym2612"
    },
    {
      "channel": 0,
      "note": 49,
      "start": 5.3995,
      "duration": 0.0781,
      "velocity": 102,
      "chip": "ym2612"
    },
    {
      "channel": 0,
      "note": 49,
      "start": 5.4971,
      "duration": 0.1305,
      "velocity": 102,
      "chip": "ym2612"
    },
    {
      "channel": 0,
      "note": 47,
      "start": 5.6472,
      "duration": 0.0596,
      "velocity": 102,
      "chip": "ym2612"
    },
    {
      "channel": 3,
      "note": 61,
      "start": 5.6499,
      "duration": 0.4913,
      "velocity": 108,
      "chip": "ym2612"
    },
    {
      "channel": 0,
      "note": 47,
      "start": 5.7173,
      "duration": 0.0658,
      "velocity": 102,
      "chip": "ym2612"
    },
    {
      "channel": 0,
      "note": 47,
      "start": 5.8025,
      "duration": 0.1305,
      "velocity": 102,
      "chip": "ym2612"
    },
    {
      "channel": 0,
      "note": 46,
      "start": 5.9525,
      "duration": 0.0594,
      "velocity": 102,
      "chip": "ym2612"
    },
    {
      "channel": 0,
      "note": 46,
      "start": 6.0225,
      "duration": 0.0571,
      "velocity": 102,
      "chip": "ym2612"
    },
    {
      "channel": 0,
      "note": 46,
      "start": 6.0978,
      "duration": 0.058,
      "velocity": 102,
      "chip": "ym2612"
    },
    {
      "channel": 0,
      "note": 44,
      "start": 6.1653,
      "duration": 0.0591,
      "velocity": 102,
      "chip": "ym2612"
    },
    {
      "channel": 3,
      "note": 54,
      "start": 6.1679,
      "duration": 0.0567,
      "velocity": 108,
      "chip": "ym2612"
    },
    {
      "channel": 0,
      "note": 44,
      "start": 6.2345,
      "duration": 0.0901,
      "velocity": 102,
      "chip": "ym2612"
    },
    {
      "channel": 0,
      "note": 44,
      "start": 6.3441,
      "duration": 0.1305,
      "velocity": 102,
      "chip": "ym2612"
    },
    {
      "channel": 3,
      "note": 54,
      "start": 6.3467,
      "duration": 0.1281,
      "velocity": 108,
      "chip": "ym2612"
    },
    {
      "channel": 0,
      "note": 49,
      "start": 6.494,
      "duration": 0.0608,
      "velocity": 102,
      "chip": "ym2612"
    },
    {
      "channel": 3,
      "note": 56,
      "start": 6.4973,
      "duration": 0.1166,
      "velocity": 108,
      "chip": "ym2612"
    },
    {
      "channel": 0,
      "note": 49,
      "start": 6.5656,
      "duration": 0.0649,
      "velocity": 102,
      "chip": "ym2612"
    },
    {
      "channel": 0,
      "note": 49,
      "start": 6.6499,
      "duration": 0.1305,
      "velocity": 102,
      "chip": "ym2612"
    },
    {
      "channel": 0,
      "note": 47,
      "start": 6.8166,
      "duration": 0.0585,
      "velocity": 102,
      "chip": "ym2612"
    },
    {
      "channel": 0,
      "note": 47,
      "start": 6.8857,
      "duration": 0.0685,
      "velocity": 102,
      "chip": "ym2612"
    },
    {
      "channel": 0,
      "note": 47,
      "start": 6.9737,
      "duration": 0.1305,
      "velocity": 102,
      "chip": "ym2612"
    },
    {
      "channel": 0,
      "note": 46,
      "start": 7.1237,
      "duration": 0.0589,
      "velocity": 102,
      "chip": "ym2612"
    },
    {
      "channel": 0,
      "note": 46,
      "start": 7.1936,
      "duration": 0.0681,
      "velocity": 102,
      "chip": "ym2612"
    },
    {
      "channel": 0,
      "note": 46,
      "start": 7.2811,
      "duration": 0.1305,
      "velocity": 102,
      "chip": "ym2612"
    },
    {
      "channel": 0,
      "note": 39,
      "start": 7.4311,
      "duration": 0.0634,
      "velocity": 102,
      "chip": "ym2612"
    },
    {
      "channel": 4,
      "note": 70,
      "start": 7.4347,
      "duration": 0.1785,
      "velocity": 113,
      "chip": "ym2612"
    },
    {
      "channel": 1,
      "note": 58,
      "start": 7.4377,
      "duration": 0.4815,
      "velocity": 105,
      "chip": "ym2612"
    },
    {
      "channel": 0,
      "note": 39,
      "start": 7.5123,
      "duration": 0.1007,
      "velocity": 102,
      "chip": "ym2612"
    },
    {
      "channel": 0,
      "note": 39,
      "start": 7.6324,
      "duration": 0.1305,
      "velocity": 102,
      "chip": "ym2612"
    },
    {
      "channel": 4,
      "note": 68,
      "start": 7.6353,
      "duration": 0.1278,
      "velocity": 113,
      "chip": "ym2612"
    },
    {
      "channel": 0,
      "note": 44,
      "start": 7.7824,
      "duration": 0.0606,
      "velocity": 102,
      "chip": "ym2612"
    },
    {
      "channel": 4,
      "note": 70,
      "start": 7.786,
      "duration": 0.1333,
      "velocity": 113,
      "chip": "ym2612"
    },
    {
      "channel": 0,
      "note": 44,
      "start": 7.8526,
      "duration": 0.0664,
      "velocity": 102,
      "chip": "ym2612"
    },
    {
      "channel": 0,
      "note": 44,
      "start": 7.9385,
      "duration": 0.1305,
      "velocity": 102,
      "chip": "ym2612"
    },
    {
      "channel": 4,
      "note": 68,
      "start": 7.9415,
      "duration": 0.1277,
      "velocity": 113,
      "chip": "ym2612"
    },
    {
      "channel": 1,
      "note": 56,
      "start": 7.9444,
      "duration": 0.1247,
      "velocity": 105,
      "chip": "ym2612"
    },
    {
      "channel": 0,
      "note": 42,
      "start": 8.0884,
      "duration": 0.0625,
      "velocity": 102,
      "chip": "ym2612"
    },
    {
      "channel": 4,
      "note": 70,
      "start": 8.0914,
      "duration": 0.1346,
      "velocity": 113,
      "chip": "ym2612"
    },
    {
      "channel": 1,
      "note": 59,
      "start": 8.0947,
      "duration": 0.4369,
      "velocity": 105,
      "chip": "ym2612"
    },
    {
      "channel": 0,
      "note": 42,
      "start": 8.1605,
      "duration": 0.0652,
      "velocity": 102,
      "chip": "ym2612"
    },
    {
      "channel": 0,
      "note": 42,
      "start": 8.2622,
      "duration": 0.1302,
      "velocity": 102,
      "chip": "ym2612"
    },
    {
      "channel": 4,
      "note": 68,
      "start": 8.2652,
      "duration": 0.1275,
      "velocity": 113,
      "chip": "ym2612"
    },
    {
      "channel": 0,
      "note": 41,
      "start": 8.412,
      "duration": 0.0601,
      "velocity": 102,
      "chip": "ym2612"
    },
    {
      "channel": 4,
      "note": 70,
      "start": 8.4153,
      "duration": 0.1331,
      "velocity": 113,
      "chip": "ym2612"
    },
    {
      "channel": 0,
      "note": 41,
      "start": 8.4816,
      "duration": 0.0666,
      "velocity": 102,
      "chip": "ym2612"
    },
    {
      "channel": 0,
      "note": 41,
      "start": 8.5678,
      "duration": 0.1304,
      "velocity": 102,
      "chip": "ym2612"
    },
    {
      "channel": 4,
      "note": 68,
      "start": 8.5707,
      "duration": 0.1277,
      "velocity": 113,
      "chip": "ym2612"
    },
    {
      "channel": 1,
      "note": 56,
      "start": 8.5737,
      "duration": 0.1246,
      "velocity": 105,
      "chip": "ym2612"
    },
    {
      "channel": 0,
      "note": 39,
      "start": 8.7178,
      "duration": 0.0627,
      "velocity": 102,
      "chip": "ym2612"
    },
    {
      "channel": 4,
      "note": 70,
      "start": 8.7207,
      "duration": 0.1347,
      "velocity": 113,
      "chip": "ym2612"
    },
    {
      "channel": 1,
      "note": 61,
      "start": 8.7237,
      "duration": 0.4381,
      "velocity": 105,
      "chip": "ym2612"
    },
    {
      "channel": 0,
      "note": 39,
      "start": 8.7897,
      "duration": 0.0654,
      "velocity": 102,
      "chip": "ym2612"
    },
    {
      "channel": 0,
      "note": 39,
      "start": 8.8746,
      "duration": 0.1305,
      "velocity": 102,
      "chip": "ym2612"
    },
    {
      "channel": 4,
      "note": 68,
      "start": 8.8776,
      "duration": 0.1278,
      "velocity": 113,
      "chip": "ym2612"
    },
    {
      "channel": 0,
      "note": 44,
      "start": 9.0412,
      "duration": 0.0605,
      "velocity": 102,
      "chip": "ym2612"
    },
    {
      "channel": 4,
      "note": 70,
      "start": 9.0442,
      "duration": 0.1345,
      "velocity": 113,
      "chip": "ym2612"
    },
    {
      "channel": 0,
      "note": 44,
      "start": 9.1125,
      "duration": 0.0661,
      "velocity": 102,
      "chip": "ym2612"
    },
    {
      "channel": 0,
      "note": 44,
      "start": 9.1979,
      "duration": 0.1305,
      "velocity": 102,
      "chip": "ym2612"
    },
    {
      "channel": 4,
      "note": 68,
      "start": 9.2013,
      "duration": 0.1273,
      "velocity": 113,
      "chip": "ym2612"
    },
    {
      "channel": 1,
      "note": 56,
      "start": 9.2049,
      "duration": 0.1237,
      "velocity": 105,
      "chip": "ym2612"
    },
    {
      "channel": 0,
      "note": 42,
      "start": 9.348,
      "duration": 0.0631,
      "velocity": 102,
      "chip": "ym2612"
    },
    {
      "channel": 4,
      "note": 70,
      "start": 9.351,
      "duration": 0.1348,
      "velocity": 113,
      "chip": "ym2612"
    },
    {
      "channel": 1,
      "note": 59,
      "start": 9.354,
      "duration": 0.4542,
      "velocity": 105,
      "chip": "ym2612"
    },
    {
      "channel": 0,
      "note": 42,
      "start": 9.4205,
      "duration": 0.0651,
      "velocity": 102,
      "chip": "ym2612"
    },
    {
      "channel": 0,
      "note": 42,
      "start": 9.5051,
      "duration": 0.1305,
      "velocity": 102,
      "chip": "ym2612"
    },
    {
      "channel": 4,
      "note": 68,
      "start": 9.5081,
      "duration": 0.1277,
      "velocity": 113,
      "chip": "ym2612"
    },
    {
      "channel": 0,
      "note": 41,
      "start": 9.6551,
      "duration": 0.0617,
      "velocity": 102,
      "chip": "ym2612"
    },
    {
      "channel": 3,
      "note": 56,
      "start": 9.6579,
      "duration": 0.059,
      "velocity": 108,
      "chip": "ym2612"
    },
    {
      "channel": 4,
      "note": 70,
      "start": 9.6607,
      "duration": 0.1478,
      "velocity": 113,
      "chip": "ym2612"
    },
    {
      "channel": 0,
      "note": 41,
      "start": 9.7344,
      "duration": 0.0737,
      "velocity": 102,
      "chip": "ym2612"
    },
    {
      "channel": 3,
      "note": 58,
      "start": 9.7365,
      "duration": 0.0718,
      "velocity": 108,
      "chip": "ym2612"
    },
    {
      "channel": 0,
      "note": 41,
      "start": 9.8275,
      "duration": 0.1305,
      "velocity": 102,
      "chip": "ym2612"
    },
    {
      "channel": 3,
      "note": 59,
      "start": 9.8299,
      "duration": 0.1284,
      "velocity": 108,
      "chip": "ym2612"
    },
    {
      "channel": 4,
      "note": 68,
      "start": 9.8328,
      "duration": 0.1256,
      "velocity": 113,
      "chip": "ym2612"
    },
    {
      "channel": 1,
      "note": 56,
      "start": 9.8362,
      "duration": 0.122,
      "velocity": 105,
      "chip": "ym2612"
    },
    {
      "channel": 0,
      "note": 44,
      "start": 9.9779,
      "duration": 0.0627,
      "velocity": 102,
      "chip": "ym2612"
    },
    {
      "channel": 3,
      "note": 56,
      "start": 9.9806,
      "duration": 0.1107,
      "velocity": 108,
      "chip": "ym2612"
    },
    {
      "channel": 1,
      "note": 58,
      "start": 9.9837,
      "duration": 0.0569,
      "velocity": 105,
      "chip": "ym2612"
    },
    {
      "channel": 0,
      "note": 44,
      "start": 10.0502,
      "duration": 0.0909,
      "velocity": 102,
      "chip": "ym2612"
    },
    {
      "channel": 0,
      "note": 44,
      "start": 10.1607,
      "duration": 0.1304,
      "velocity": 102,
      "chip": "ym2612"
    },
    {
      "channel": 0,
      "note": 49,
      "start": 10.3106,
      "duration": 0.0595,
      "velocity": 102,
      "chip": "ym2612"
    },
    {
      "channel": 0,
      "note": 49,
      "start": 10.3807,
      "duration": 0.0666,
      "velocity": 102,
      "chip": "ym2612"
    },
    {
      "channel": 0,
      "note": 49,
      "start": 10.4835,
      "duration": 0.1305,
      "velocity": 102,
      "chip": "ym2612"
    },
    {
      "channel": 0,
      "note": 47,
      "start": 10.6335,
      "duration": 0.06,
      "velocity": 102,
      "chip": "ym2612"
    },
    {
      "channel": 3,
      "note": 61,
      "start": 10.6362,
      "duration": 0.4901,
      "velocity": 108,
      "chip": "ym2612"
    },
    {
      "channel": 0,
      "note": 47,
      "start": 10.7041,
      "duration": 0.0654,
      "velocity": 102,
      "chip": "ym2612"
    },
    {
      "channel": 0,
      "note": 47,
      "start": 10.789,
      "duration": 0.1305,
      "velocity": 102,
      "chip": "ym2612"
    },
    {
      "channel": 0,
      "note": 46,
      "start": 10.939,
      "duration": 0.0583,
      "velocity": 102,
      "chip": "ym2612"
    },
    {
      "channel": 0,
      "note": 46,
      "start": 11.008,
      "duration": 0.0575,
      "velocity": 102,
      "chip": "ym2612"
    },
    {
      "channel": 0,
      "note": 46,
      "start": 11.0751,
      "duration": 0.0586,
      "velocity": 102,
      "chip": "ym2612"
    },
    {
      "channel": 0,
      "note": 44,
      "start": 11.1507,
      "duration": 0.0591,
      "velocity": 102,
      "chip": "ym2612"
    },
    {
      "channel": 3,
      "note": 54,
      "start": 11.1535,
      "duration": 0.0564,
      "velocity": 108,
      "chip": "ym2612"
    },
    {
      "channel": 0,
      "note": 44,
      "start": 11.2199,
      "duration": 0.0911,
      "velocity": 102,
      "chip": "ym2612"
    },
    {
      "channel": 0,
      "note": 44,
      "start": 11.3305,
      "duration": 0.1305,
      "velocity": 102,
      "chip": "ym2612"
    },
    {
      "channel": 3,
      "note": 54,
      "start": 11.3331,
      "duration": 0.1281,
      "velocity": 108,
      "chip": "ym2612"
    },
    {
      "channel": 0,
      "note": 49,
      "start": 11.4804,
      "duration": 0.0608,
      "velocity": 102,
      "chip": "ym2612"
    },
    {
      "channel": 3,
      "note": 56,
      "start": 11.4837,
      "duration": 0.0801,
      "velocity": 108,
      "chip": "ym2612"
    },
    {
      "channel": 0,
      "note": 49,
      "start": 11.552,
      "duration": 0.0656,
      "velocity": 102,
      "chip": "ym2612"
    },
    {
      "channel": 0,
      "note": 49,
      "start": 11.6371,
      "duration": 0.1304,
      "velocity": 102,
      "chip": "ym2612"
    },
    {
      "channel": 0,
      "note": 47,
      "start": 11.7871,
      "duration": 0.0594,
      "velocity": 102,
      "chip": "ym2612"
    },
    {
      "channel": 0,
      "note": 47,
      "start": 11.8633,
      "duration": 0.0778,
      "velocity": 102,
      "chip": "ym2612"
    },
    {
      "channel": 0,
      "note": 47,
      "start": 11.9605,
      "duration": 0.1305,
      "velocity": 102,
      "chip": "ym2612"
    },
    {
      "channel": 0,
      "note": 46,
      "start": 12.1106,
      "duration": 0.0589,
      "velocity": 102,
      "chip": "ym2612"
    },
    {
      "channel": 0,
      "note": 46,
      "start": 12.1801,
      "duration": 0.0683,
      "velocity": 102,
      "chip": "ym2612"
    },
    {
      "channel": 0,
      "note": 46,
      "start": 12.2679,
      "duration": 0.1305,
      "velocity": 102,
      "chip": "ym2612"
    },
    {
      "channel": 0,
      "note": 39,
      "start": 12.4179,
      "duration": 0.0634,
      "velocity": 102,
      "chip": "ym2612"
    },
    {
      "channel": 4,
      "note": 70,
      "start": 12.4215,
      "duration": 0.1616,
      "velocity": 113,
      "chip": "ym2612"
    },
    {
      "channel": 1,
      "note": 58,
      "start": 12.4245,
      "duration": 0.5146,
      "velocity": 105,
      "chip": "ym2612"
    },
    {
      "channel": 0,
      "note": 39,
      "start": 12.4907,
      "duration": 0.0922,
      "velocity": 102,
      "chip": "ym2612"
    },
    {
      "channel": 0,
      "note": 39,
      "start": 12.619,
      "duration": 0.1305,
      "velocity": 102,
      "chip": "ym2612"
    },
    {
      "channel": 4,
      "note": 68,
      "start": 12.6223,
      "duration": 0.1273,
      "velocity": 113,
      "chip": "ym2612"
    },
    {
      "channel": 0,
      "note": 44,
      "start": 12.769,
      "duration": 0.0606,
      "velocity": 102,
      "chip": "ym2612"
    },
    {
      "channel": 4,
      "note": 70,
      "start": 12.7725,
      "duration": 0.1333,
      "velocity": 113,
      "chip": "ym2612"
    },
    {
      "channel": 0,
      "note": 44,
      "start": 12.8393,
      "duration": 0.0662,
      "velocity": 102,
      "chip": "ym2612"
    },
    {
      "channel": 0,
      "note": 44,
      "start": 12.925,
      "duration": 0.1305,
      "velocity": 102,
      "chip": "ym2612"
    },
    {
      "channel": 4,
      "note": 68,
      "start": 12.9279,
      "duration": 0.1278,
      "velocity": 113,
      "chip": "ym2612"
    },
    {
      "channel": 2,
      "note": 56,
      "start": 12.9312,
      "duration": 0.1247,
      "velocity": 105,
      "chip": "ym2612"
    },
    {
      "channel": 0,
      "note": 42,
      "start": 13.0751,
      "duration": 0.0635,
      "velocity": 102,
      "chip": "ym2612"
    },
    {
      "channel": 4,
      "note": 70,
      "start": 13.0781,
      "duration": 0.1355,
      "velocity": 113,
      "chip": "ym2612"
    },
    {
      "channel": 1,
      "note": 59,
      "start": 13.081,
      "duration": 0.4392,
      "velocity": 105,
      "chip": "ym2612"
    },
    {
      "channel": 0,
      "note": 42,
      "start": 13.148,
      "duration": 0.0654,
      "velocity": 102,
      "chip": "ym2612"
    },
    {
      "channel": 0,
      "note": 42,
      "start": 13.2332,
      "duration": 0.1302,
      "velocity": 102,
      "chip": "ym2612"
    },
    {
      "channel": 4,
      "note": 68,
      "start": 13.2362,
      "duration": 0.1274,
      "velocity": 113,
      "chip": "ym2612"
    },
    {
      "channel": 0,
      "note": 41,
      "start": 13.3995,
      "duration": 0.0607,
      "velocity": 102,
      "chip": "ym2612"
    },
    {
      "channel": 4,
      "note": 70,
      "start": 13.4028,
      "duration": 0.1341,
      "velocity": 113,
      "chip": "ym2612"
    },
    {
      "channel": 0,
      "note": 41,
      "start": 13.4698,
      "duration": 0.067,
      "velocity": 102,
      "chip": "ym2612"
    },
    {
      "channel": 0,
      "note": 41,
      "start": 13.5563,
      "duration": 0.1305,
      "velocity": 102,
      "chip": "ym2612"
    },
    {
      "channel": 4,
      "note": 68,
      "start": 13.5593,
      "duration": 0.1277,
      "velocity": 113,
      "chip": "ym2612"
    },
    {
      "channel": 1,
      "note": 56,
      "start": 13.5627,
      "duration": 0.1625,
      "velocity": 105,
      "chip": "ym2612"
    },
    {
      "channel": 0,
      "note": 39,
      "start": 13.7062,
      "duration": 0.0632,
      "velocity": 102,
      "chip": "ym2612"
    },
    {
      "channel": 4,
      "note": 70,
      "start": 13.7092,
      "duration": 0.1355,
      "velocity": 113,
      "chip": "ym2612"
    },
    {
      "channel": 2,
      "note": 61,
      "start": 13.7124,
      "duration": 0.455,
      "velocity": 105,
      "chip": "ym2612"
    },
    {
      "channel": 0,
      "note": 39,
      "start": 13.7788,
      "duration": 0.0656,
      "velocity": 102,
      "chip": "ym2612"
    },
    {
      "channel": 0,
      "note": 39,
      "start": 13.8639,
      "duration": 0.1305,
      "velocity": 102,
      "chip": "ym2612"
    },
    {
      "channel": 4,
      "note": 68,
      "start": 13.8669,
      "duration": 0.1277,
      "velocity": 113,
      "chip": "ym2612"
    },
    {
      "channel": 0,
      "note": 44,
      "start": 14.0139,
      "duration": 0.0599,
      "velocity": 102,
      "chip": "ym2612"
    },
    {
      "channel": 4,
      "note": 70,
      "start": 14.0169,
      "duration": 0.1502,
      "velocity": 113,
      "chip": "ym2612"
    },
    {
      "channel": 0,
      "note": 44,
      "start": 14.0911,
      "duration": 0.0759,
      "velocity": 102,
      "chip": "ym2612"
    },
    {
      "channel": 0,
      "note": 44,
      "start": 14.1864,
      "duration": 0.1305,
      "velocity": 102,
      "chip": "ym2612"
    },
    {
      "channel": 4,
      "note": 68,
      "start": 14.1894,
      "duration": 0.1278,
      "velocity": 113,
      "chip": "ym2612"
    },
    {
      "channel": 1,
      "note": 56,
      "start": 14.1933,
      "duration": 0.1237,
      "velocity": 105,
      "chip": "ym2612"
    },
    {
      "channel": 0,
      "note": 42,
      "start": 14.3363,
      "duration": 0.063,
      "velocity": 102,
      "chip": "ym2612"
    },
    {
      "channel": 4,
      "note": 70,
      "start": 14.3393,
      "duration": 0.1346,
      "velocity": 113,
      "chip": "ym2612"
    },
    {
      "channel": 1,
      "note": 59,
      "start": 14.3423,
      "duration": 0.4149,
      "velocity": 105,
      "chip": "ym2612"
    },
    {
      "channel": 0,
      "note": 42,
      "start": 14.409,
      "duration": 0.0647,
      "velocity": 102,
      "chip": "ym2612"
    },
    {
      "channel": 0,
      "note": 42,
      "start": 14.4931,
      "duration": 0.1305,
      "velocity": 102,
      "chip": "ym2612"
    },
    {
      "channel": 4,
      "note": 68,
      "start": 14.4961,
      "duration": 0.1278,
      "velocity": 113,
      "chip": "ym2612"
    },
    {
      "channel": 0,
      "note": 41,
      "start": 14.6432,
      "duration": 0.0622,
      "velocity": 102,
      "chip": "ym2612"
    },
    {
      "channel": 3,
      "note": 56,
      "start": 14.646,
      "duration": 0.0596,
      "velocity": 108,
      "chip": "ym2612"
    },
    {
      "channel": 4,
      "note": 70,
      "start": 14.6488,
      "duration": 0.1318,
      "velocity": 113,
      "chip": "ym2612"
    },
    {
      "channel": 0,
      "note": 41,
      "start": 14.7149,
      "duration": 0.0654,
      "velocity": 102,
      "chip": "ym2612"
    },
    {
      "channel": 3,
      "note": 58,
      "start": 14.7171,
      "duration": 0.0633,
      "velocity": 108,
      "chip": "ym2612"
    },
    {
      "channel": 0,
      "note": 41,
      "start": 14.8163,
      "duration": 0.1305,
      "velocity": 102,
      "chip": "ym2612"
    },
    {
      "channel": 3,
      "note": 59,
      "start": 14.8188,
      "duration": 0.1284,
      "velocity": 108,
      "chip": "ym2612"
    },
    {
      "channel": 4,
      "note": 68,
      "start": 14.8216,
      "duration": 0.1257,
      "velocity": 113,
      "chip": "ym2612"
    },
    {
      "channel": 1,
      "note": 56,
      "start": 14.8246,
      "duration": 0.1224,
      "velocity": 105,
      "chip": "ym2612"
    },
    {
      "channel": 0,
      "note": 44,
      "start": 14.9668,
      "duration": 0.0624,
      "velocity": 102,
      "chip": "ym2612"
    },
    {
      "channel": 3,
      "note": 56,
      "start": 14.9695,
      "duration": 0.1274,
      "velocity": 108,
      "chip": "ym2612"
    },
    {
      "channel": 1,
      "note": 58,
      "start": 14.9726,
      "duration": 0.0566,
      "velocity": 105,
      "chip": "ym2612"
    },
    {
      "channel": 0,
      "note": 44,
      "start": 15.0381,
      "duration": 0.092,
      "velocity": 102,
      "chip": "ym2612"
    },
    {
      "channel": 0,
      "note": 44,
      "start": 15.1497,
      "duration": 0.1304,
      "velocity": 102,
      "chip": "ym2612"
    },
    {
      "channel": 0,
      "note": 49,
      "start": 15.2996,
      "duration": 0.059,
      "velocity": 102,
      "chip": "ym2612"
    },
    {
      "channel": 0,
      "note": 49,
      "start": 15.3695,
      "duration": 0.0681,
      "velocity": 102,
      "chip": "ym2612"
    },
    {
      "channel": 0,
      "note": 49,
      "start": 15.4571,
      "duration": 0.1305,
      "velocity": 102,
      "chip": "ym2612"
    },
    {
      "channel": 0,
      "note": 47,
      "start": 15.6238,
      "duration": 0.0595,
      "velocity": 102,
      "chip": "ym2612"
    },
    {
      "channel": 3,
      "note": 61,
      "start": 15.6264,
      "duration": 0.4902,
      "velocity": 108,
      "chip": "ym2612"
    },
    {
      "channel": 0,
      "note": 47,
      "start": 15.6939,
      "duration": 0.0656,
      "velocity": 102,
      "chip": "ym2612"
    },
    {
      "channel": 0,
      "note": 47,
      "start": 15.7789,
      "duration": 0.1305,
      "velocity": 102,
      "chip": "ym2612"
    },
    {
      "channel": 0,
      "note": 46,
      "start": 15.9289,
      "duration": 0.0595,
      "velocity": 102,
      "chip": "ym2612"
    },
    {
      "channel": 0,
      "note": 46,
      "start": 15.9992,
      "duration": 0.057,
      "velocity": 102,
      "chip": "ym2612"
    },
    {
      "channel": 0,
      "note": 46,
      "start": 16.0658,
      "duration": 0.0582,
      "velocity": 102,
      "chip": "ym2612"
    },
    {
      "channel": 0,
      "note": 44,
      "start": 16.1346,
      "duration": 0.0566,
      "velocity": 102,
      "chip": "ym2612"
    },
    {
      "channel": 3,
      "note": 54,
      "start": 16.1374,
      "duration": 0.0539,
      "velocity": 108,
      "chip": "ym2612"
    },
    {
      "channel": 0,
      "note": 44,
      "start": 16.2081,
      "duration": 0.0992,
      "velocity": 102,
      "chip": "ym2612"
    },
    {
      "channel": 0,
      "note": 44,
      "start": 16.3268,
      "duration": 0.1305,
      "velocity": 102,
      "chip": "ym2612"
    },
    {
      "channel": 3,
      "note": 54,
      "start": 16.3294,
      "duration": 0.1281,
      "velocity": 108,
      "chip": "ym2612"
    },
    {
      "channel": 0,
      "note": 49,
      "start": 16.4769,
      "duration": 0.061,
      "velocity": 102,
      "chip": "ym2612"
    },
    {
      "channel": 3,
      "note": 56,
      "start": 16.4798,
      "duration": 0.1183,
      "velocity": 108,
      "chip": "ym2612"
    },
    {
      "channel": 0,
      "note": 49,
      "start": 16.5493,
      "duration": 0.0653,
      "velocity": 102,
      "chip": "ym2612"
    },
    {
      "channel": 0,
      "note": 49,
      "start": 16.6341,
      "duration": 0.1305,
      "velocity": 102,
      "chip": "ym2612"
    },
    {
      "channel": 0,
      "note": 47,
      "start": 16.7841,
      "duration": 0.0597,
      "velocity": 102,
      "chip": "ym2612"
    },
    {
      "channel": 0,
      "note": 47,
      "start": 16.8547,
      "duration": 0.0669,
      "velocity": 102,
      "chip": "ym2612"
    },
    {
      "channel": 0,
      "note": 47,
      "start": 16.9579,
      "duration": 0.1305,
      "velocity": 102,
      "chip": "ym2612"
    },
    {
      "channel": 0,
      "note": 46,
      "start": 17.1079,
      "duration": 0.059,
      "velocity": 102,
      "chip": "ym2612"
    },
    {
      "channel": 0,
      "note": 46,
      "start": 17.1779,
      "duration": 0.0677,
      "velocity": 102,
      "chip": "ym2612"
    },
    {
      "channel": 0,
      "note": 46,
      "start": 17.2651,
      "duration": 0.1305,
      "velocity": 102,
      "chip": "ym2612"
    },
    {
      "channel": 0,
      "note": 39,
      "start": 17.415,
      "duration": 0.064,
      "velocity": 102,
      "chip": "ym2612"
    },
    {
      "channel": 4,
      "note": 70,
      "start": 17.419,
      "duration": 0.1607,
      "velocity": 113,
      "chip": "ym2612"
    },
    {
      "channel": 1,
      "note": 58,
      "start": 17.4222,
      "duration": 0.4637,
      "velocity": 105,
      "chip": "ym2612"
    },
    {
      "channel": 0,
      "note": 39,
      "start": 17.4877,
      "duration": 0.0917,
      "velocity": 102,
      "chip": "ym2612"
    },
    {
      "channel": 0,
      "note": 39,
      "start": 17.599,
      "duration": 0.1305,
      "velocity": 102,
      "chip": "ym2612"
    },
    {
      "channel": 4,
      "note": 68,
      "start": 17.602,
      "duration": 0.1277,
      "velocity": 113,
      "chip": "ym2612"
    },
    {
      "channel": 0,
      "note": 44,
      "start": 17.7656,
      "duration": 0.0611,
      "velocity": 102,
      "chip": "ym2612"
    },
    {
      "channel": 4,
      "note": 70,
      "start": 17.7695,
      "duration": 0.1333,
      "velocity": 113,
      "chip": "ym2612"
    },
    {
      "channel": 0,
      "note": 44,
      "start": 17.8361,
      "duration": 0.0664,
      "velocity": 102,
      "chip": "ym2612"
    },
    {
      "channel": 0,
      "note": 44,
      "start": 17.9221,
      "duration": 0.1305,
      "velocity": 102,
      "chip": "ym2612"
    },
    {
      "channel": 4,
      "note": 68,
      "start": 17.9251,
      "duration": 0.1278,
      "velocity": 113,
      "chip": "ym2612"
    },
    {
      "channel": 1,
      "note": 56,
      "start": 17.9281,
      "duration": 0.1246,
      "velocity": 105,
      "chip": "ym2612"
    },
    {
      "channel": 0,
      "note": 42,
      "start": 18.0722,
      "duration": 0.0634,
      "velocity": 102,
      "chip": "ym2612"
    },
    {
      "channel": 4,
      "note": 70,
      "start": 18.0752,
      "duration": 0.1351,
      "velocity": 113,
      "chip": "ym2612"
    },
    {
      "channel": 1,
      "note": 59,
      "start": 18.0781,
      "duration": 0.4137,
      "velocity": 105,
      "chip": "ym2612"
    },
    {
      "channel": 0,
      "note": 42,
      "start": 18.145,
      "duration": 0.0651,
      "velocity": 102,
      "chip": "ym2612"
    },
    {
      "channel": 0,
      "note": 42,
      "start": 18.2299,
      "duration": 0.1302,
      "velocity": 102,
      "chip": "ym2612"
    },
    {
      "channel": 4,
      "note": 68,
      "start": 18.2332,
      "duration": 0.1271,
      "velocity": 113,
      "chip": "ym2612"
    },
    {
      "channel": 0,
      "note": 41,
      "start": 18.3795,
      "duration": 0.0605,
      "velocity": 102,
      "chip": "ym2612"
    },
    {
      "channel": 4,
      "note": 70,
      "start": 18.3825,
      "duration": 0.1516,
      "velocity": 113,
      "chip": "ym2612"
    },
    {
      "channel": 0,
      "note": 41,
      "start": 18.4575,
      "duration": 0.0764,
      "velocity": 102,
      "chip": "ym2612"
    },
    {
      "channel": 0,
      "note": 41,
      "start": 18.5533,
      "duration": 0.1305,
      "velocity": 102,
      "chip": "ym2612"
    },
    {
      "channel": 4,
      "note": 68,
      "start": 18.5563,
      "duration": 0.1278,
      "velocity": 113,
      "chip": "ym2612"
    },
    {
      "channel": 1,
      "note": 56,
      "start": 18.5593,
      "duration": 0.1246,
      "velocity": 105,
      "chip": "ym2612"
    },
    {
      "channel": 0,
      "note": 39,
      "start": 18.7033,
      "duration": 0.0621,
      "velocity": 102,
      "chip": "ym2612"
    },
    {
      "channel": 4,
      "note": 70,
      "start": 18.7063,
      "duration": 0.1336,
      "velocity": 113,
      "chip": "ym2612"
    },
    {
      "channel": 1,
      "note": 61,
      "start": 18.7092,
      "duration": 0.4189,
      "velocity": 105,
      "chip": "ym2612"
    },
    {
      "channel": 0,
      "note": 39,
      "start": 18.7749,
      "duration": 0.0647,
      "velocity": 102,
      "chip": "ym2612"
    },
    {
      "channel": 0,
      "note": 39,
      "start": 18.8592,
      "duration": 0.1305,
      "velocity": 102,
      "chip": "ym2612"
    },
    {
      "channel": 4,
      "note": 68,
      "start": 18.8622,
      "duration": 0.1277,
      "velocity": 113,
      "chip": "ym2612"
    },
    {
      "channel": 0,
      "note": 44,
      "start": 19.0092,
      "duration": 0.0594,
      "velocity": 102,
      "chip": "ym2612"
    },
    {
      "channel": 4,
      "note": 70,
      "start": 19.0121,
      "duration": 0.1329,
      "velocity": 113,
      "chip": "ym2612"
    },
    {
      "channel": 0,
      "note": 44,
      "start": 19.079,
      "duration": 0.0659,
      "velocity": 102,
      "chip": "ym2612"
    },
    {
      "channel": 0,
      "note": 44,
      "start": 19.181,
      "duration": 0.1305,
      "velocity": 102,
      "chip": "ym2612"
    },
    {
      "channel": 4,
      "note": 68,
      "start": 19.1839,
      "duration": 0.1277,
      "velocity": 113,
      "chip": "ym2612"
    },
    {
      "channel": 1,
      "note": 56,
      "start": 19.1879,
      "duration": 0.1237,
      "velocity": 105,
      "chip": "ym2612"
    },
    {
      "channel": 0,
      "note": 42,
      "start": 19.3309,
      "duration": 0.0625,
      "velocity": 102,
      "chip": "ym2612"
    },
    {
      "channel": 4,
      "note": 70,
      "start": 19.3339,
      "duration": 0.1338,
      "velocity": 113,
      "chip": "ym2612"
    },
    {
      "channel": 1,
      "note": 59,
      "start": 19.3369,
      "duration": 0.4369,
      "velocity": 105,
      "chip": "ym2612"
    },
    {
      "channel": 0,
      "note": 42,
      "start": 19.4027,
      "duration": 0.0647,
      "velocity": 102,
      "chip": "ym2612"
    },
    {
      "channel": 0,
      "note": 42,
      "start": 19.487,
      "duration": 0.1305,
      "velocity": 102,
      "chip": "ym2612"
    },
    {
      "channel": 4,
      "note": 68,
      "start": 19.49,
      "duration": 0.1277,
      "velocity": 113,
      "chip": "ym2612"
    },
    {
      "channel": 0,
      "note": 41,
      "start": 19.637,
      "duration": 0.0621,
      "velocity": 102,
      "chip": "ym2612"
    },
    {
      "channel": 3,
      "note": 56,
      "start": 19.6398,
      "duration": 0.0595,
      "velocity": 108,
      "chip": "ym2612"
    },
    {
      "channel": 4,
      "note": 70,
      "start": 19.6426,
      "duration": 0.1314,
      "velocity": 113,
      "chip": "ym2612"
    },
    {
      "channel": 0,
      "note": 41,
      "start": 19.7085,
      "duration": 0.0652,
      "velocity": 102,
      "chip": "ym2612"
    },
    {
      "channel": 3,
      "note": 58,
      "start": 19.7107,
      "duration": 0.0632,
      "velocity": 108,
      "chip": "ym2612"
    },
    {
      "channel": 0,
      "note": 41,
      "start": 19.7931,
      "duration": 0.1305,
      "velocity": 102,
      "chip": "ym2612"
    },
    {
      "channel": 3,
      "note": 59,
      "start": 19.7956,
      "duration": 0.1283,
      "velocity": 108,
      "chip": "ym2612"
    },
    {
      "channel": 4,
      "note": 68,
      "start": 19.7988,
      "duration": 0.1253,
      "velocity": 113,
      "chip": "ym2612"
    },
    {
      "channel": 1,
      "note": 56,
      "start": 19.8018,
      "duration": 0.122,
      "velocity": 105,
      "chip": "ym2612"
    },
    {
      "channel": 0,
      "note": 44,
      "start": 19.96,
      "duration": 0.0629,
      "velocity": 102,
      "chip": "ym2612"
    },
    {
      "channel": 3,
      "note": 56,
      "start": 19.9629,
      "duration": 0.0969,
      "velocity": 108,
      "chip": "ym2612"
    },
    {
      "channel": 1,
      "note": 58,
      "start": 19.9661,
      "duration": 0.0862,
      "velocity": 105,
      "chip": "ym2612"
    },
    {
      "channel": 0,
      "note": 44,
      "start": 20.0324,
      "duration": 0.0922,
      "velocity": 102,
      "chip": "ym2612"
    },
    {
      "channel": 0,
      "note": 44,
      "start": 20.1442,
      "duration": 0.1304,
      "velocity": 102,
      "chip": "ym2612"
    },
    {
      "channel": 0,
      "note": 49,
      "start": 20.2941,
      "duration": 0.0585,
      "velocity": 102,
      "chip": "ym2612"
    },
    {
      "channel": 0,
      "note": 49,
      "start": 20.3633,
      "duration": 0.0678,
      "velocity": 102,
      "chip": "ym2612"
    },
    {
      "channel": 0,
      "note": 49,
      "start": 20.4505,
      "duration": 0.1305,
      "velocity": 102,
      "chip": "ym2612"
    },
    {
      "channel": 0,
      "note": 47,
      "start": 20.6005,
      "duration": 0.0606,
      "velocity": 102,
      "chip": "ym2612"
    },
    {
      "channel": 3,
      "note": 61,
      "start": 20.6035,
      "duration": 0.5086,
      "velocity": 108,
      "chip": "ym2612"
    },
    {
      "channel": 0,
      "note": 47,
      "start": 20.678,
      "duration": 0.0763,
      "velocity": 102,
      "chip": "ym2612"
    },
    {
      "channel": 0,
      "note": 47,
      "start": 20.7738,
      "duration": 0.1304,
      "velocity": 102,
      "chip": "ym2612"
    },
    {
      "channel": 0,
      "note": 46,
      "start": 20.9238,
      "duration": 0.0593,
      "velocity": 102,
      "chip": "ym2612"
    },
    {
      "channel": 0,
      "note": 46,
      "start": 20.9939,
      "duration": 0.0581,
      "velocity": 102,
      "chip": "ym2612"
    },
    {
      "channel": 0,
      "note": 46,
      "start": 21.0616,
      "duration": 0.0578,
      "velocity": 102,
      "chip": "ym2612"
    },
    {
      "channel": 0,
      "note": 44,
      "start": 21.1301,
      "duration": 0.0572,
      "velocity": 102,
      "chip": "ym2612"
    },
    {
      "channel": 3,
      "note": 54,
      "start": 21.1327,
      "duration": 0.0548,
      "velocity": 108,
      "chip": "ym2612"
    },
    {
      "channel": 0,
      "note": 44,
      "start": 21.1977,
      "duration": 0.0896,
      "velocity": 102,
      "chip": "ym2612"
    },
    {
      "channel": 0,
      "note": 44,
      "start": 21.3235,
      "duration": 0.1305,
      "velocity": 102,
      "chip": "ym2612"
    },
    {
      "channel": 3,
      "note": 54,
      "start": 21.3261,
      "duration": 0.128,
      "velocity": 108,
      "chip": "ym2612"
    },
    {
      "channel": 0,
      "note": 49,
      "start": 21.4734,
      "duration": 0.06,
      "velocity": 102,
      "chip": "ym2612"
    },
    {
      "channel": 3,
      "note": 56,
      "start": 21.4764,
      "duration": 0.0792,
      "velocity": 108,
      "chip": "ym2612"
    },
    {
      "channel": 0,
      "note": 49,
      "start": 21.5443,
      "duration": 0.0649,
      "velocity": 102,
      "chip": "ym2612"
    },
    {
      "channel": 0,
      "note": 49,
      "start": 21.6287,
      "duration": 0.1305,
      "velocity": 102,
      "chip": "ym2612"
    },
    {
      "channel": 0,
      "note": 47,
      "start": 21.7787,
      "duration": 0.0591,
      "velocity": 102,
      "chip": "ym2612"
    },
    {
      "channel": 0,
      "note": 47,
      "start": 21.8487,
      "duration": 0.0681,
      "velocity": 102,
      "chip": "ym2612"
    },
    {
      "channel": 0,
      "note": 47,
      "start": 21.9362,
      "duration": 0.1305,
      "velocity": 102,
      "chip": "ym2612"
    },
    {
      "channel": 0,
      "note": 46,
      "start": 22.1029,
      "duration": 0.0589,
      "velocity": 102,
      "chip": "ym2612"
    },
    {
      "channel": 0,
      "note": 46,
      "start": 22.1728,
      "duration": 0.0671,
      "velocity": 102,
      "chip": "ym2612"
    },
    {
      "channel": 0,
      "note": 46,
      "start": 22.2593,
      "duration": 0.1305,
      "velocity": 102,
      "chip": "ym2612"
    },
    {
      "channel": 0,
      "note": 39,
      "start": 22.4093,
      "duration": 0.0623,
      "velocity": 102,
      "chip": "ym2612"
    },
    {
      "channel": 4,
      "note": 70,
      "start": 22.4132,
      "duration": 0.1599,
      "velocity": 113,
      "chip": "ym2612"
    },
    {
      "channel": 1,
      "note": 58,
      "start": 22.4161,
      "duration": 0.4471,
      "velocity": 105,
      "chip": "ym2612"
    },
    {
      "channel": 0,
      "note": 39,
      "start": 22.4807,
      "duration": 0.0922,
      "velocity": 102,
      "chip": "ym2612"
    },
    {
      "channel": 0,
      "note": 39,
      "start": 22.5924,
      "duration": 0.1305,
      "velocity": 102,
      "chip": "ym2612"
    },
    {
      "channel": 4,
      "note": 68,
      "start": 22.5954,
      "duration": 0.1278,
      "velocity": 113,
      "chip": "ym2612"
    },
    {
      "channel": 0,
      "note": 44,
      "start": 22.7424,
      "duration": 0.0612,
      "velocity": 102,
      "chip": "ym2612"
    },
    {
      "channel": 4,
      "note": 70,
      "start": 22.7463,
      "duration": 0.1503,
      "velocity": 113,
      "chip": "ym2612"
    },
    {
      "channel": 0,
      "note": 44,
      "start": 22.8217,
      "duration": 0.0747,
      "velocity": 102,
      "chip": "ym2612"
    },
    {
      "channel": 0,
      "note": 44,
      "start": 22.9159,
      "duration": 0.1305,
      "velocity": 102,
      "chip": "ym2612"
    },
    {
      "channel": 4,
      "note": 68,
      "start": 22.9189,
      "duration": 0.1279,
      "velocity": 113,
      "chip": "ym2612"
    },
    {
      "channel": 1,
      "note": 56,
      "start": 22.9223,
      "duration": 0.1243,
      "velocity": 105,
      "chip": "ym2612"
    },
    {
      "channel": 0,
      "note": 42,
      "start": 23.0659,
      "duration": 0.0619,
      "velocity": 102,
      "chip": "ym2612"
    },
    {
      "channel": 4,
      "note": 70,
      "start": 23.0688,
      "duration": 0.1343,
      "velocity": 113,
      "chip": "ym2612"
    },
    {
      "channel": 1,
      "note": 59,
      "start": 23.0718,
      "duration": 0.4121,
      "velocity": 105,
      "chip": "ym2612"
    },
    {
      "channel": 0,
      "note": 42,
      "start": 23.1372,
      "duration": 0.0657,
      "velocity": 102,
      "chip": "ym2612"
    },
    {
      "channel": 0,
      "note": 42,
      "start": 23.2229,
      "duration": 0.1301,
      "velocity": 102,
      "chip": "ym2612"
    },
    {
      "channel": 4,
      "note": 68,
      "start": 23.2258,
      "duration": 0.1274,
      "velocity": 113,
      "chip": "ym2612"
    },
    {
      "channel": 0,
      "note": 41,
      "start": 23.3724,
      "duration": 0.0607,
      "velocity": 102,
      "chip": "ym2612"
    },
    {
      "channel": 4,
      "note": 70,
      "start": 23.3753,
      "duration": 0.1344,
      "velocity": 113,
      "chip": "ym2612"
    },
    {
      "channel": 0,
      "note": 41,
      "start": 23.4438,
      "duration": 0.0657,
      "velocity": 102,
      "chip": "ym2612"
    },
    {
      "channel": 0,
      "note": 41,
      "start": 23.5456,
      "duration": 0.1305,
      "velocity": 102,
      "chip": "ym2612"
    },
    {
      "channel": 4,
      "note": 68,
      "start": 23.5489,
      "duration": 0.1274,
      "velocity": 113,
      "chip": "ym2612"
    },
    {
      "channel": 1,
      "note": 56,
      "start": 23.5519,
      "duration": 0.1627,
      "velocity": 105,
      "chip": "ym2612"
    },
    {
      "channel": 0,
      "note": 39,
      "start": 23.6956,
      "duration": 0.0633,
      "velocity": 102,
      "chip": "ym2612"
    },
    {
      "channel": 4,
      "note": 70,
      "start": 23.6986,
      "duration": 0.1341,
      "velocity": 113,
      "chip": "ym2612"
    },
    {
      "channel": 2,
      "note": 61,
      "start": 23.7018,
      "duration": 0.4368,
      "velocity": 105,
      "chip": "ym2612"
    },
    {
      "channel": 0,
      "note": 39,
      "start": 23.7681,
      "duration": 0.0644,
      "velocity": 102,
      "chip": "ym2612"
    },
    {
      "channel": 0,
      "note": 39,
      "start": 23.852,
      "duration": 0.1304,
      "velocity": 102,
      "chip": "ym2612"
    },
    {
      "channel": 4,
      "note": 68,
      "start": 23.855,
      "duration": 0.1277,
      "velocity": 113,
      "chip": "ym2612"
    },
    {
      "channel": 0,
      "note": 44,
      "start": 24.002,
      "duration": 0.0602,
      "velocity": 102,
      "chip": "ym2612"
    },
    {
      "channel": 4,
      "note": 70,
      "start": 24.0053,
      "duration": 0.1331,
      "velocity": 113,
      "chip": "ym2612"
    },
    {
      "channel": 0,
      "note": 44,
      "start": 24.0732,
      "duration": 0.065,
      "velocity": 102,
      "chip": "ym2612"
    },
    {
      "channel": 0,
      "note": 44,
      "start": 24.1577,
      "duration": 0.1305,
      "velocity": 102,
      "chip": "ym2612"
    },
    {
      "channel": 4,
      "note": 68,
      "start": 24.1607,
      "duration": 0.1279,
      "velocity": 113,
      "chip": "ym2612"
    },
    {
      "channel": 1,
      "note": 56,
      "start": 24.1642,
      "duration": 0.1241,
      "velocity": 105,
      "chip": "ym2612"
    },
    {
      "channel": 0,
      "note": 42,
      "start": 24.3245,
      "duration": 0.063,
      "velocity": 102,
      "chip": "ym2612"
    },
    {
      "channel": 4,
      "note": 70,
      "start": 24.3278,
      "duration": 0.1344,
      "velocity": 113,
      "chip": "ym2612"
    },
    {
      "channel": 1,
      "note": 59,
      "start": 24.3312,
      "duration": 0.437,
      "velocity": 105,
      "chip": "ym2612"
    },
    {
      "channel": 0,
      "note": 42,
      "start": 24.3965,
      "duration": 0.0656,
      "velocity": 102,
      "chip": "ym2612"
    },
    {
      "channel": 0,
      "note": 42,
      "start": 24.4816,
      "duration": 0.1305,
      "velocity": 102,
      "chip": "ym2612"
    },
    {
      "channel": 4,
      "note": 68,
      "start": 24.4846,
      "duration": 0.1277,
      "velocity": 113,
      "chip": "ym2612"
    },
    {
      "channel": 0,
      "note": 41,
      "start": 24.6316,
      "duration": 0.06,
      "velocity": 102,
      "chip": "ym2612"
    },
    {
      "channel": 4,
      "note": 70,
      "start": 24.6346,
      "duration": 0.1337,
      "velocity": 113,
      "chip": "ym2612"
    },
    {
      "channel": 0,
      "note": 41,
      "start": 24.7023,
      "duration": 0.0658,
      "velocity": 102,
      "chip": "ym2612"
    },
    {
      "channel": 0,
      "note": 41,
      "start": 24.7876,
      "duration": 0.1305,
      "velocity": 102,
      "chip": "ym2612"
    },
    {
      "channel": 4,
      "note": 68,
      "start": 24.7906,
      "duration": 0.1278,
      "velocity": 113,
      "chip": "ym2612"
    },
    {
      "channel": 1,
      "note": 56,
      "start": 24.7936,
      "duration": 0.1246,
      "velocity": 105,
      "chip": "ym2612"
    },
    {
      "channel": 0,
      "note": 44,
      "start": 24.9379,
      "duration": 0.0615,
      "velocity": 102,
      "chip": "ym2612"
    },
    {
      "channel": 1,
      "note": 58,
      "start": 24.9412,
      "duration": 0.1948,
      "velocity": 105,
      "chip": "ym2612"
    },
    {
      "channel": 3,
      "note": 56,
      "start": 24.9482,
      "duration": 0.0513,
      "velocity": 113,
      "chip": "ym2612"
    },
    {
      "channel": 0,
      "note": 44,
      "start": 25.0173,
      "duration": 0.102,
      "velocity": 102,
      "chip": "ym2612"
    },
    {
      "channel": 3,
      "note": 58,
      "start": 25.0201,
      "duration": 0.0994,
      "velocity": 113,
      "chip": "ym2612"
    },
    {
      "channel": 0,
      "note": 44,
      "start": 25.1389,
      "duration": 0.1305,
      "velocity": 102,
      "chip": "ym2612"
    },
    {
      "channel": 3,
      "note": 56,
      "start": 25.1418,
      "duration": 0.1277,
      "velocity": 113,
      "chip": "ym2612"
    },
    {
      "channel": 0,
      "note": 49,
      "start": 25.2889,
      "duration": 0.0597,
      "velocity": 102,
      "chip": "ym2612"
    },
    {
      "channel": 3,
      "note": 58,
      "start": 25.2955,
      "duration": 0.0532,
      "velocity": 113,
      "chip": "ym2612"
    },
    {
      "channel": 0,
      "note": 49,
      "start": 25.3597,
      "duration": 0.0662,
      "velocity": 102,
      "chip": "ym2612"
    },
    {
      "channel": 3,
      "note": 56,
      "start": 25.3623,
      "duration": 0.0637,
      "velocity": 113,
      "chip": "ym2612"
    },
    {
      "channel": 0,
      "note": 49,
      "start": 25.4454,
      "duration": 0.1305,
      "velocity": 102,
      "chip": "ym2612"
    },
    {
      "channel": 3,
      "note": 58,
      "start": 25.4483,
      "duration": 0.1278,
      "velocity": 113,
      "chip": "ym2612"
    },
    {
      "channel": 0,
      "note": 47,
      "start": 25.5954,
      "duration": 0.0587,
      "velocity": 102,
      "chip": "ym2612"
    },
    {
      "channel": 3,
      "note": 66,
      "start": 25.6018,
      "duration": 0.2964,
      "velocity": 113,
      "chip": "ym2612"
    },
    {
      "channel": 0,
      "note": 47,
      "start": 25.6646,
      "duration": 0.0667,
      "velocity": 102,
      "chip": "ym2612"
    },
    {
      "channel": 0,
      "note": 47,
      "start": 25.7675,
      "duration": 0.1305,
      "velocity": 102,
      "chip": "ym2612"
    },
    {
      "channel": 0,
      "note": 46,
      "start": 25.9175,
      "duration": 0.0597,
      "velocity": 102,
      "chip": "ym2612"
    },
    {
      "channel": 3,
      "note": 63,
      "start": 25.924,
      "duration": 0.0533,
      "velocity": 113,
      "chip": "ym2612"
    },
    {
      "channel": 0,
      "note": 46,
      "start": 25.9881,
      "duration": 0.0583,
      "velocity": 102,
      "chip": "ym2612"
    },
    {
      "channel": 3,
      "note": 62,
      "start": 25.9947,
      "duration": 0.0517,
      "velocity": 113,
      "chip": "ym2612"
    },
    {
      "channel": 0,
      "note": 46,
      "start": 26.0555,
      "duration": 0.0575,
      "velocity": 102,
      "chip": "ym2612"
    },
    {
      "channel": 3,
      "note": 61,
      "start": 26.0615,
      "duration": 0.0516,
      "velocity": 113,
      "chip": "ym2612"
    },
    {
      "channel": 0,
      "note": 44,
      "start": 26.1229,
      "duration": 0.059,
      "velocity": 102,
      "chip": "ym2612"
    },
    {
      "channel": 3,
      "note": 56,
      "start": 26.1306,
      "duration": 0.0515,
      "velocity": 113,
      "chip": "ym2612"
    },
    {
      "channel": 0,
      "note": 44,
      "start": 26.1919,
      "duration": 0.091,
      "velocity": 102,
      "chip": "ym2612"
    },
    {
      "channel": 3,
      "note": 58,
      "start": 26.1947,
      "duration": 0.0884,
      "velocity": 113,
      "chip": "ym2612"
    },
    {
      "channel": 0,
      "note": 44,
      "start": 26.3025,
      "duration": 0.1304,
      "velocity": 102,
      "chip": "ym2612"
    },
    {
      "channel": 3,
      "note": 56,
      "start": 26.3054,
      "duration": 0.1277,
      "velocity": 113,
      "chip": "ym2612"
    },
    {
      "channel": 0,
      "note": 49,
      "start": 26.4692,
      "duration": 0.0594,
      "velocity": 102,
      "chip": "ym2612"
    },
    {
      "channel": 3,
      "note": 58,
      "start": 26.4753,
      "duration": 0.0534,
      "velocity": 113,
      "chip": "ym2612"
    },
    {
      "channel": 0,
      "note": 49,
      "start": 26.5398,
      "duration": 0.0658,
      "velocity": 102,
      "chip": "ym2612"
    },
    {
      "channel": 3,
      "note": 56,
      "start": 26.5424,
      "duration": 0.0634,
      "velocity": 113,
      "chip": "ym2612"
    },
    {
      "channel": 0,
      "note": 49,
      "start": 26.6252,
      "duration": 0.1305,
      "velocity": 102,
      "chip": "ym2612"
    },
    {
      "channel": 3,
      "note": 58,
      "start": 26.6281,
      "duration": 0.1278,
      "velocity": 113,
      "chip": "ym2612"
    },
    {
      "channel": 0,
      "note": 47,
      "start": 26.7751,
      "duration": 0.0589,
      "velocity": 102,
      "chip": "ym2612"
    },
    {
      "channel": 3,
      "note": 66,
      "start": 26.7817,
      "duration": 0.2796,
      "velocity": 113,
      "chip": "ym2612"
    },
    {
      "channel": 0,
      "note": 47,
      "start": 26.8446,
      "duration": 0.0665,
      "velocity": 102,
      "chip": "ym2612"
    },
    {
      "channel": 0,
      "note": 47,
      "start": 26.9305,
      "duration": 0.1305,
      "velocity": 102,
      "chip": "ym2612"
    },
    {
      "channel": 0,
      "note": 46,
      "start": 27.0807,
      "duration": 0.0599,
      "velocity": 102,
      "chip": "ym2612"
    },
    {
      "channel": 3,
      "note": 63,
      "start": 27.0873,
      "duration": 0.0534,
      "velocity": 113,
      "chip": "ym2612"
    },
    {
      "channel": 0,
      "note": 46,
      "start": 27.1578,
      "duration": 0.0582,
      "velocity": 102,
      "chip": "ym2612"
    },
    {
      "channel": 3,
      "note": 62,
      "start": 27.1639,
      "duration": 0.0522,
      "velocity": 113,
      "chip": "ym2612"
    },
    {
      "channel": 0,
      "note": 46,
      "start": 27.2263,
      "duration": 0.059,
      "velocity": 102,
      "chip": "ym2612"
    },
    {
      "channel": 3,
      "note": 61,
      "start": 27.2335,
      "duration": 0.0519,
      "velocity": 113,
      "chip": "ym2612"
    },
    {
      "channel": 0,
      "note": 39,
      "start": 27.2941,
      "duration": 0.0585,
      "velocity": 102,
      "chip": "ym2612"
    },
    {
      "channel": 3,
      "note": 61,
      "start": 27.3015,
      "duration": 0.0512,
      "velocity": 113,
      "chip": "ym2612"
    },
    {
      "channel": 0,
      "note": 39,
      "start": 27.3626,
      "duration": 0.0913,
      "velocity": 102,
      "chip": "ym2612"
    },
    {
      "channel": 3,
      "note": 63,
      "start": 27.3663,
      "duration": 0.0878,
      "velocity": 113,
      "chip": "ym2612"
    },
    {
      "channel": 0,
      "note": 39,
      "start": 27.4734,
      "duration": 0.1305,
      "velocity": 102,
      "chip": "ym2612"
    },
    {
      "channel": 3,
      "note": 61,
      "start": 27.4765,
      "duration": 0.1275,
      "velocity": 113,
      "chip": "ym2612"
    },
    {
      "channel": 0,
      "note": 44,
      "start": 27.6234,
      "duration": 0.06,
      "velocity": 102,
      "chip": "ym2612"
    },
    {
      "channel": 3,
      "note": 63,
      "start": 27.63,
      "duration": 0.0535,
      "velocity": 113,
      "chip": "ym2612"
    },
    {
      "channel": 0,
      "note": 44,
      "start": 27.694,
      "duration": 0.0668,
      "velocity": 102,
      "chip": "ym2612"
    },
    {
      "channel": 3,
      "note": 61,
      "start": 27.6969,
      "duration": 0.0641,
      "velocity": 113,
      "chip": "ym2612"
    },
    {
      "channel": 0,
      "note": 44,
      "start": 27.7969,
      "duration": 0.1305,
      "velocity": 102,
      "chip": "ym2612"
    },
    {
      "channel": 3,
      "note": 63,
      "start": 27.8,
      "duration": 0.1276,
      "velocity": 113,
      "chip": "ym2612"
    },
    {
      "channel": 0,
      "note": 42,
      "start": 27.947,
      "duration": 0.0603,
      "velocity": 102,
      "chip": "ym2612"
    },
    {
      "channel": 3,
      "note": 61,
      "start": 27.9533,
      "duration": 0.0541,
      "velocity": 113,
      "chip": "ym2612"
    },
    {
      "channel": 0,
      "note": 42,
      "start": 28.0182,
      "duration": 0.0664,
      "velocity": 102,
      "chip": "ym2612"
    },
    {
      "channel": 3,
      "note": 63,
      "start": 28.0213,
      "duration": 0.0634,
      "velocity": 113,
      "chip": "ym2612"
    },
    {
      "channel": 0,
      "note": 42,
      "start": 28.1045,
      "duration": 0.1301,
      "velocity": 102,
      "chip": "ym2612"
    },
    {
      "channel": 3,
      "note": 61,
      "start": 28.1076,
      "duration": 0.1272,
      "velocity": 113,
      "chip": "ym2612"
    },
    {
      "channel": 0,
      "note": 41,
      "start": 28.2541,
      "duration": 0.06,
      "velocity": 102,
      "chip": "ym2612"
    },
    {
      "channel": 3,
      "note": 63,
      "start": 28.2605,
      "duration": 0.0537,
      "velocity": 113,
      "chip": "ym2612"
    },
    {
      "channel": 0,
      "note": 41,
      "start": 28.3246,
      "duration": 0.0658,
      "velocity": 102,
      "chip": "ym2612"
    },
    {
      "channel": 3,
      "note": 61,
      "start": 28.3275,
      "duration": 0.0631,
      "velocity": 113,
      "chip": "ym2612"
    },
    {
      "channel": 0,
      "note": 41,
      "start": 28.4099,
      "duration": 0.1305,
      "velocity": 102,
      "chip": "ym2612"
    },
    {
      "channel": 3,
      "note": 63,
      "start": 28.413,
      "duration": 0.1275,
      "velocity": 113,
      "chip": "ym2612"
    },
    {
      "channel": 0,
      "note": 39,
      "start": 28.5766,
      "duration": 0.0585,
      "velocity": 102,
      "chip": "ym2612"
    },
    {
      "channel": 3,
      "note": 61,
      "start": 28.5837,
      "duration": 0.0515,
      "velocity": 113,
      "chip": "ym2612"
    },
    {
      "channel": 0,
      "note": 39,
      "start": 28.6459,
      "duration": 0.0935,
      "velocity": 102,
      "chip": "ym2612"
    },
    {
      "channel": 3,
      "note": 63,
      "start": 28.6488,
      "duration": 0.0908,
      "velocity": 113,
      "chip": "ym2612"
    },
    {
      "channel": 0,
      "note": 39,
      "start": 28.759,
      "duration": 0.1305,
      "velocity": 102,
      "chip": "ym2612"
    },
    {
      "channel": 3,
      "note": 61,
      "start": 28.762,
      "duration": 0.1276,
      "velocity": 113,
      "chip": "ym2612"
    },
    {
      "channel": 0,
      "note": 44,
      "start": 28.909,
      "duration": 0.0597,
      "velocity": 102,
      "chip": "ym2612"
    },
    {
      "channel": 3,
      "note": 63,
      "start": 28.9153,
      "duration": 0.0535,
      "velocity": 113,
      "chip": "ym2612"
    },
    {
      "channel": 0,
      "note": 44,
      "start": 28.9794,
      "duration": 0.0668,
      "velocity": 102,
      "chip": "ym2612"
    },
    {
      "channel": 3,
      "note": 61,
      "start": 28.982,
      "duration": 0.0643,
      "velocity": 113,
      "chip": "ym2612"
    },
    {
      "channel": 0,
      "note": 44,
      "start": 29.0657,
      "duration": 0.1305,
      "velocity": 102,
      "chip": "ym2612"
    },
    {
      "channel": 3,
      "note": 63,
      "start": 29.0688,
      "duration": 0.1276,
      "velocity": 113,
      "chip": "ym2612"
    },
    {
      "channel": 0,
      "note": 42,
      "start": 29.2157,
      "duration": 0.06,
      "velocity": 102,
      "chip": "ym2612"
    },
    {
      "channel": 3,
      "note": 61,
      "start": 29.2221,
      "duration": 0.0537,
      "velocity": 113,
      "chip": "ym2612"
    },
    {
      "channel": 0,
      "note": 42,
      "start": 29.2929,
      "duration": 0.0772,
      "velocity": 102,
      "chip": "ym2612"
    },
    {
      "channel": 3,
      "note": 63,
      "start": 29.2957,
      "duration": 0.0746,
      "velocity": 113,
      "chip": "ym2612"
    },
    {
      "channel": 0,
      "note": 42,
      "start": 29.3896,
      "duration": 0.1305,
      "velocity": 102,
      "chip": "ym2612"
    },
    {
      "channel": 3,
      "note": 61,
      "start": 29.3928,
      "duration": 0.1276,
      "velocity": 113,
      "chip": "ym2612"
    },
    {
      "channel": 0,
      "note": 41,
      "start": 29.5397,
      "duration": 0.0605,
      "velocity": 102,
      "chip": "ym2612"
    },
    {
      "channel": 3,
      "note": 63,
      "start": 29.546,
      "duration": 0.0543,
      "velocity": 113,
      "chip": "ym2612"
    },
    {
      "channel": 0,
      "note": 41,
      "start": 29.6107,
      "duration": 0.0659,
      "velocity": 102,
      "chip": "ym2612"
    },
    {
      "channel": 3,
      "note": 61,
      "start": 29.6136,
      "duration": 0.0632,
      "velocity": 113,
      "chip": "ym2612"
    },
    {
      "channel": 0,
      "note": 41,
      "start": 29.6961,
      "duration": 0.1305,
      "velocity": 102,
      "chip": "ym2612"
    },
    {
      "channel": 3,
      "note": 63,
      "start": 29.6992,
      "duration": 0.1276,
      "velocity": 113,
      "chip": "ym2612"
    },
    {
      "channel": 0,
      "note": 44,
      "start": 29.8465,
      "duration": 0.0602,
      "velocity": 102,
      "chip": "ym2612"
    },
    {
      "channel": 3,
      "note": 56,
      "start": 29.8533,
      "duration": 0.0535,
      "velocity": 113,
      "chip": "ym2612"
    },
    {
      "channel": 0,
      "note": 44,
      "start": 29.9176,
      "duration": 0.0937,
      "velocity": 102,
      "chip": "ym2612"
    },
    {
      "channel": 3,
      "note": 58,
      "start": 29.9202,
      "duration": 0.0912,
      "velocity": 113,
      "chip": "ym2612"
    },
    {
      "channel": 0,
      "note": 44,
      "start": 30.0474,
      "duration": 0.1305,
      "velocity": 102,
      "chip": "ym2612"
    },
    {
      "channel": 3,
      "note": 56,
      "start": 30.0503,
      "duration": 0.1278,
      "velocity": 113,
      "chip": "ym2612"
    },
    {
      "channel": 0,
      "note": 49,
      "start": 30.1973,
      "duration": 0.0594,
      "velocity": 102,
      "chip": "ym2612"
    },
    {
      "channel": 3,
      "note": 58,
      "start": 30.2035,
      "duration": 0.0534,
      "velocity": 113,
      "chip": "ym2612"
    },
    {
      "channel": 0,
      "note": 49,
      "start": 30.2675,
      "duration": 0.0661,
      "velocity": 102,
      "chip": "ym2612"
    },
    {
      "channel": 3,
      "note": 56,
      "start": 30.2704,
      "duration": 0.0635,
      "velocity": 113,
      "chip": "ym2612"
    },
    {
      "channel": 0,
      "note": 49,
      "start": 30.3531,
      "duration": 0.1306,
      "velocity": 102,
      "chip": "ym2612"
    },
    {
      "channel": 3,
      "note": 58,
      "start": 30.356,
      "duration": 0.1278,
      "velocity": 113,
      "chip": "ym2612"
    },
    {
      "channel": 0,
      "note": 47,
      "start": 30.5032,
      "duration": 0.06,
      "velocity": 102,
      "chip": "ym2612"
    },
    {
      "channel": 3,
      "note": 66,
      "start": 30.5095,
      "duration": 0.2813,
      "velocity": 113,
      "chip": "ym2612"
    },
    {
      "channel": 0,
      "note": 47,
      "start": 30.5741,
      "duration": 0.0665,
      "velocity": 102,
      "chip": "ym2612"
    },
    {
      "channel": 0,
      "note": 47,
      "start": 30.66,
      "duration": 0.1305,
      "velocity": 102,
      "chip": "ym2612"
    },
    {
      "channel": 0,
      "note": 46,
      "start": 30.8267,
      "duration": 0.06,
      "velocity": 102,
      "chip": "ym2612"
    },
    {
      "channel": 3,
      "note": 63,
      "start": 30.8332,
      "duration": 0.0535,
      "velocity": 113,
      "chip": "ym2612"
    },
    {
      "channel": 0,
      "note": 46,
      "start": 30.8975,
      "duration": 0.0585,
      "velocity": 102,
      "chip": "ym2612"
    },
    {
      "channel": 3,
      "note": 62,
      "start": 30.9041,
      "duration": 0.052,
      "velocity": 113,
      "chip": "ym2612"
    },
    {
      "channel": 0,
      "note": 46,
      "start": 30.9651,
      "duration": 0.0576,
      "velocity": 102,
      "chip": "ym2612"
    },
    {
      "channel": 3,
      "note": 61,
      "start": 30.9711,
      "duration": 0.0517,
      "velocity": 113,
      "chip": "ym2612"
    },
    {
      "channel": 0,
      "note": 44,
      "start": 31.0327,
      "duration": 0.0587,
      "velocity": 102,
      "chip": "ym2612"
    },
    {
      "channel": 3,
      "note": 56,
      "start": 31.0404,
      "duration": 0.0512,
      "velocity": 113,
      "chip": "ym2612"
    },
    {
      "channel": 0,
      "note": 44,
      "start": 31.1013,
      "duration": 0.0907,
      "velocity": 102,
      "chip": "ym2612"
    },
    {
      "channel": 3,
      "note": 58,
      "start": 31.1038,
      "duration": 0.0883,
      "velocity": 113,
      "chip": "ym2612"
    },
    {
      "channel": 0,
      "note": 44,
      "start": 31.2116,
      "duration": 0.1305,
      "velocity": 102,
      "chip": "ym2612"
    },
    {
      "channel": 3,
      "note": 56,
      "start": 31.2145,
      "duration": 0.1278,
      "velocity": 113,
      "chip": "ym2612"
    },
    {
      "channel": 0,
      "note": 49,
      "start": 31.3615,
      "duration": 0.0602,
      "velocity": 102,
      "chip": "ym2612"
    },
    {
      "channel": 3,
      "note": 58,
      "start": 31.3681,
      "duration": 0.0537,
      "velocity": 113,
      "chip": "ym2612"
    },
    {
      "channel": 0,
      "note": 49,
      "start": 31.4388,
      "duration": 0.0767,
      "velocity": 102,
      "chip": "ym2612"
    },
    {
      "channel": 3,
      "note": 56,
      "start": 31.4413,
      "duration": 0.0743,
      "velocity": 113,
      "chip": "ym2612"
    },
    {
      "channel": 0,
      "note": 49,
      "start": 31.535,
      "duration": 0.1304,
      "velocity": 102,
      "chip": "ym2612"
    },
    {
      "channel": 3,
      "note": 58,
      "start": 31.5379,
      "duration": 0.1277,
      "velocity": 113,
      "chip": "ym2612"
    },
    {
      "channel": 0,
      "note": 47,
      "start": 31.6849,
      "duration": 0.0606,
      "velocity": 102,
      "chip": "ym2612"
    },
    {
      "channel": 3,
      "note": 66,
      "start": 31.6917,
      "duration": 0.282,
      "velocity": 113,
      "chip": "ym2612"
    },
    {
      "channel": 0,
      "note": 47,
      "start": 31.7564,
      "duration": 0.0671,
      "velocity": 102,
      "chip": "ym2612"
    },
    {
      "channel": 0,
      "note": 47,
      "start": 31.8429,
      "duration": 0.1305,
      "velocity": 102,
      "chip": "ym2612"
    },
    {
      "channel": 0,
      "note": 46,
      "start": 31.9929,
      "duration": 0.0604,
      "velocity": 102,
      "chip": "ym2612"
    },
    {
      "channel": 3,
      "note": 63,
      "start": 31.9994,
      "duration": 0.0539,
      "velocity": 113,
      "chip": "ym2612"
    },
    {
      "channel": 0,
      "note": 46,
      "start": 32.0637,
      "duration": 0.0584,
      "velocity": 102,
      "chip": "ym2612"
    },
    {
      "channel": 3,
      "note": 62,
      "start": 32.0704,
      "duration": 0.0519,
      "velocity": 113,
      "chip": "ym2612"
    },
    {
      "channel": 0,
      "note": 46,
      "start": 32.139,
      "duration": 0.0583,
      "velocity": 102,
      "chip": "ym2612"
    },
    {
      "channel": 3,
      "note": 61,
      "start": 32.1452,
      "duration": 0.0523,
      "velocity": 113,
      "chip": "ym2612"
    },
    {
      "channel": 0,
      "note": 39,
      "start": 32.2063,
      "duration": 0.0574,
      "velocity": 102,
      "chip": "ym2612"
    },
    {
      "channel": 3,
      "note": 61,
      "start": 32.2132,
      "duration": 0.0505,
      "velocity": 113,
      "chip": "ym2612"
    },
    {
      "channel": 0,
      "note": 39,
      "start": 32.2736,
      "duration": 0.0926,
      "velocity": 102,
      "chip": "ym2612"
    },
    {
      "channel": 3,
      "note": 63,
      "start": 32.2773,
      "duration": 0.089,
      "velocity": 113,
      "chip": "ym2612"
    },
    {
      "channel": 0,
      "note": 39,
      "start": 32.3855,
      "duration": 0.1305,
      "velocity": 102,
      "chip": "ym2612"
    },
    {
      "channel": 3,
      "note": 61,
      "start": 32.3886,
      "duration": 0.1277,
      "velocity": 113,
      "chip": "ym2612"
    },
    {
      "channel": 0,
      "note": 44,
      "start": 32.5355,
      "duration": 0.0599,
      "velocity": 102,
      "chip": "ym2612"
    },
    {
      "channel": 3,
      "note": 63,
      "start": 32.5419,
      "duration": 0.0536,
      "velocity": 113,
      "chip": "ym2612"
    },
    {
      "channel": 0,
      "note": 44,
      "start": 32.6059,
      "duration": 0.0663,
      "velocity": 102,
      "chip": "ym2612"
    },
    {
      "channel": 3,
      "note": 61,
      "start": 32.6088,
      "duration": 0.0636,
      "velocity": 113,
      "chip": "ym2612"
    },
    {
      "channel": 0,
      "note": 44,
      "start": 32.6916,
      "duration": 0.1306,
      "velocity": 102,
      "chip": "ym2612"
    },
    {
      "channel": 3,
      "note": 63,
      "start": 32.6947,
      "duration": 0.1277,
      "velocity": 113,
      "chip": "ym2612"
    },
    {
      "channel": 0,
      "note": 42,
      "start": 32.8583,
      "duration": 0.0597,
      "velocity": 102,
      "chip": "ym2612"
    },
    {
      "channel": 3,
      "note": 61,
      "start": 32.8646,
      "duration": 0.0536,
      "velocity": 113,
      "chip": "ym2612"
    },
    {
      "channel": 0,
      "note": 42,
      "start": 32.9289,
      "duration": 0.0667,
      "velocity": 102,
      "chip": "ym2612"
    },
    {
      "channel": 3,
      "note": 63,
      "start": 32.9317,
      "duration": 0.0641,
      "velocity": 113,
      "chip": "ym2612"
    },
    {
      "channel": 0,
      "note": 42,
      "start": 33.0155,
      "duration": 0.1302,
      "velocity": 102,
      "chip": "ym2612"
    },
    {
      "channel": 3,
      "note": 61,
      "start": 33.0187,
      "duration": 0.1272,
      "velocity": 113,
      "chip": "ym2612"
    },
    {
      "channel": 0,
      "note": 41,
      "start": 33.1651,
      "duration": 0.0588,
      "velocity": 102,
      "chip": "ym2612"
    },
    {
      "channel": 3,
      "note": 63,
      "start": 33.1715,
      "duration": 0.0525,
      "velocity": 113,
      "chip": "ym2612"
    },
    {
      "channel": 0,
      "note": 41,
      "start": 33.2347,
      "duration": 0.0666,
      "velocity": 102,
      "chip": "ym2612"
    },
    {
      "channel": 3,
      "note": 61,
      "start": 33.2373,
      "duration": 0.0642,
      "velocity": 113,
      "chip": "ym2612"
    },
    {
      "channel": 0,
      "note": 41,
      "start": 33.3207,
      "duration": 0.1306,
      "velocity": 102,
      "chip": "ym2612"
    },
    {
      "channel": 3,
      "note": 63,
      "start": 33.3238,
      "duration": 0.1276,
      "velocity": 113,
      "chip": "ym2612"
    },
    {
      "channel": 0,
      "note": 39,
      "start": 33.4708,
      "duration": 0.0602,
      "velocity": 102,
      "chip": "ym2612"
    },
    {
      "channel": 3,
      "note": 61,
      "start": 33.4778,
      "duration": 0.0534,
      "velocity": 113,
      "chip": "ym2612"
    },
    {
      "channel": 0,
      "note": 39,
      "start": 33.5482,
      "duration": 0.104,
      "velocity": 102,
      "chip": "ym2612"
    },
    {
      "channel": 3,
      "note": 63,
      "start": 33.5509,
      "duration": 0.1015,
      "velocity": 113,
      "chip": "ym2612"
    },
    {
      "channel": 0,
      "note": 39,
      "start": 33.6717,
      "duration": 0.1304,
      "velocity": 102,
      "chip": "ym2612"
    },
    {
      "channel": 3,
      "note": 61,
      "start": 33.6748,
      "duration": 0.1276,
      "velocity": 113,
      "chip": "ym2612"
    },
    {
      "channel": 0,
      "note": 44,
      "start": 33.8217,
      "duration": 0.0597,
      "velocity": 102,
      "chip": "ym2612"
    },
    {
      "channel": 3,
      "note": 63,
      "start": 33.8281,
      "duration": 0.0534,
      "velocity": 113,
      "chip": "ym2612"
    },
    {
      "channel": 0,
      "note": 44,
      "start": 33.8922,
      "duration": 0.0662,
      "velocity": 102,
      "chip": "ym2612"
    },
    {
      "channel": 3,
      "note": 61,
      "start": 33.8953,
      "duration": 0.0633,
      "velocity": 113,
      "chip": "ym2612"
    },
    {
      "channel": 0,
      "note": 44,
      "start": 33.978,
      "duration": 0.1305,
      "velocity": 102,
      "chip": "ym2612"
    },
    {
      "channel": 3,
      "note": 63,
      "start": 33.981,
      "duration": 0.1276,
      "velocity": 113,
      "chip": "ym2612"
    },
    {
      "channel": 0,
      "note": 42,
      "start": 34.128,
      "duration": 0.0602,
      "velocity": 102,
      "chip": "ym2612"
    },
    {
      "channel": 3,
      "note": 61,
      "start": 34.1344,
      "duration": 0.0539,
      "velocity": 113,
      "chip": "ym2612"
    },
    {
      "channel": 0,
      "note": 42,
      "start": 34.199,
      "duration": 0.0661,
      "velocity": 102,
      "chip": "ym2612"
    },
    {
      "channel": 3,
      "note": 63,
      "start": 34.2019,
      "duration": 0.0635,
      "velocity": 113,
      "chip": "ym2612"
    },
    {
      "channel": 0,
      "note": 42,
      "start": 34.3014,
      "duration": 0.1305,
      "velocity": 102,
      "chip": "ym2612"
    },
    {
      "channel": 3,
      "note": 61,
      "start": 34.3049,
      "duration": 0.1271,
      "velocity": 113,
      "chip": "ym2612"
    },
    {
      "channel": 0,
      "note": 41,
      "start": 34.4513,
      "duration": 0.0595,
      "velocity": 102,
      "chip": "ym2612"
    },
    {
      "channel": 3,
      "note": 63,
      "start": 34.4576,
      "duration": 0.0532,
      "velocity": 113,
      "chip": "ym2612"
    },
    {
      "channel": 0,
      "note": 41,
      "start": 34.5216,
      "duration": 0.0661,
      "velocity": 102,
      "chip": "ym2612"
    },
    {
      "channel": 3,
      "note": 61,
      "start": 34.5241,
      "duration": 0.0637,
      "velocity": 113,
      "chip": "ym2612"
    },
    {
      "channel": 0,
      "note": 41,
      "start": 34.6077,
      "duration": 0.1299,
      "velocity": 102,
      "chip": "ym2612"
    },
    {
      "channel": 3,
      "note": 63,
      "start": 34.6108,
      "duration": 0.127,
      "velocity": 113,
      "chip": "ym2612"
    },
    {
      "channel": 1,
      "note": 51,
      "start": 34.7619,
      "duration": 0.6053,
      "velocity": 113,
      "chip": "ym2612"
    },
    {
      "channel": 1,
      "note": 56,
      "start": 35.3904,
      "duration": 0.5017,
      "velocity": 113,
      "chip": "ym2612"
    },
    {
      "channel": 1,
      "note": 54,
      "start": 35.9072,
      "duration": 1.0131,
      "velocity": 113,
      "chip": "ym2612"
    },
    {
      "channel": 1,
      "note": 58,
      "start": 36.9306,
      "duration": 0.0699,
      "velocity": 113,
      "chip": "ym2612"
    },
    {
      "channel": 1,
      "note": 59,
      "start": 37.0205,
      "duration": 0.13,
      "velocity": 113,
      "chip": "ym2612"
    },
    {
      "channel": 1,
      "note": 58,
      "start": 37.1905,
      "duration": 0.59,
      "velocity": 113,
      "chip": "ym2612"
    },
    {
      "channel": 1,
      "note": 51,
      "start": 37.8045,
      "duration": 0.3757,
      "velocity": 113,
      "chip": "ym2612"
    },
    {
      "channel": 1,
      "note": 58,
      "start": 38.1943,
      "duration": 0.0536,
      "velocity": 113,
      "chip": "ym2612"
    },
    {
      "channel": 1,
      "note": 59,
      "start": 38.2631,
      "duration": 0.0527,
      "velocity": 113,
      "chip": "ym2612"
    },
    {
      "channel": 1,
      "note": 58,
      "start": 38.331,
      "duration": 0.6281,
      "velocity": 113,
      "chip": "ym2612"
    },
    {
      "channel": 1,
      "note": 51,
      "start": 38.9822,
      "duration": 0.6076,
      "velocity": 113,
      "chip": "ym2612"
    },
    {
      "channel": 1,
      "note": 51,
      "start": 39.6129,
      "duration": 0.6054,
      "velocity": 113,
      "chip": "ym2612"
    },
    {
      "channel": 1,
      "note": 56,
      "start": 40.2414,
      "duration": 0.502,
      "velocity": 113,
      "chip": "ym2612"
    },
    {
      "channel": 1,
      "note": 54,
      "start": 40.7593,
      "duration": 1.2423,
      "velocity": 113,
      "chip": "ym2612"
    },
    {
      "channel": 1,
      "note": 53,
      "start": 42.0251,
      "duration": 1.1398,
      "velocity": 113,
      "chip": "ym2612"
    },
    {
      "channel": 1,
      "note": 61,
      "start": 43.1796,
      "duration": 0.628,
      "velocity": 113,
      "chip": "ym2612"
    },
    {
      "channel": 1,
      "note": 59,
      "start": 43.8307,
      "duration": 0.6056,
      "velocity": 113,
      "chip": "ym2612"
    },
    {
      "channel": 1,
      "note": 51,
      "start": 44.4595,
      "duration": 0.6068,
      "velocity": 113,
      "chip": "ym2612"
    },
    {
      "channel": 1,
      "note": 56,
      "start": 45.0895,
      "duration": 0.4945,
      "velocity": 113,
      "chip": "ym2612"
    },
    {
      "channel": 1,
      "note": 54,
      "start": 45.6063,
      "duration": 1.0148,
      "velocity": 113,
      "chip": "ym2612"
    },
    {
      "channel": 1,
      "note": 58,
      "start": 46.6317,
      "duration": 0.0698,
      "velocity": 113,
      "chip": "ym2612"
    },
    {
      "channel": 1,
      "note": 59,
      "start": 46.7215,
      "duration": 0.1299,
      "velocity": 113,
      "chip": "ym2612"
    },
    {
      "channel": 1,
      "note": 62,
      "start": 46.8754,
      "duration": 0.6075,
      "velocity": 113,
      "chip": "ym2612"
    },
    {
      "channel": 1,
      "note": 58,
      "start": 47.5063,
      "duration": 0.377,
      "velocity": 113,
      "chip": "ym2612"
    },
    {
      "channel": 1,
      "note": 58,
      "start": 47.8974,
      "duration": 0.0537,
      "velocity": 113,
      "chip": "ym2612"
    },
    {
      "channel": 1,
      "note": 59,
      "start": 47.9664,
      "duration": 0.0519,
      "velocity": 113,
      "chip": "ym2612"
    },
    {
      "channel": 1,
      "note": 62,
      "start": 48.0334,
      "duration": 0.6288,
      "velocity": 113,
      "chip": "ym2612"
    },
    {
      "channel": 1,
      "note": 58,
      "start": 48.6853,
      "duration": 0.6078,
      "velocity": 113,
      "chip": "ym2612"
    },
    {
      "channel": 1,
      "note": 56,
      "start": 49.3163,
      "duration": 0.5912,
      "velocity": 113,
      "chip": "ym2612"
    },
    {
      "channel": 1,
      "note": 54,
      "start": 49.9474,
      "duration": 0.495,
      "velocity": 113,
      "chip": "ym2612"
    },
    {
      "channel": 1,
      "note": 53,
      "start": 50.4576,
      "duration": 1.2594,
      "velocity": 113,
      "chip": "ym2612"
    },
    {
      "channel": 1,
      "note": 51,
      "start": 51.7405,
      "duration": 2.3893,
      "velocity": 113,
      "chip": "ym2612"
    },
    {
      "channel": 0,
      "note": 44,
      "start": 54.1688,
      "duration": 26.2966,
      "velocity": 102,
      "chip": "ym2612"
    }
  ]
}