{
  "track_name": "09 - Inside Shredder's Hideout",
  "duration_sec": 26.612,
  "sample_rate": 44100,
  "note_count": 780,
  "unique_pitches": 25,
  "pitch_range": 60,
  "avg_note_duration": 0.0628,
  "reconstruction_stats": {
    "notes_reconstructed": 780,
    "keyon_events": 780,
    "keyoff_events": 779,
    "orphan_keyons": 1,
    "unique_pitches": 25,
    "pitch_range": 60,
    "avg_duration_sec": 0.0628
  },
  "metadata": {
    "source": "T\\Teenage Mutant Ninja Turtles - The Hyperstone Heist\\09 - Inside Shredder's Hideout.vgz"
  },
  "notes": [
    {
      "channel": 0,
      "note": 61,
      "start": 0.0,
      "duration": 0.056,
      "velocity": 111,
      "chip": "ym2612"
    },
    {
      "channel": 1,
      "note": 85,
      "start": 0.0021,
      "duration": 0.0165,
      "velocity": 99,
      "chip": "ym2612"
    },
    {
      "channel": 2,
      "note": 61,
      "start": 0.0041,
      "duration": 0.0146,
      "velocity": 108,
      "chip": "ym2612"
    },
    {
      "channel": 4,
      "note": 81,
      "start": 0.0082,
      "duration": 0.0252,
      "velocity": 127,
      "chip": "ym2612"
    },
    {
      "channel": 1,
      "note": 73,
      "start": 0.0236,
      "duration": 0.0092,
      "velocity": 99,
      "chip": "ym2612"
    },
    {
      "channel": 2,
      "note": 49,
      "start": 0.0241,
      "duration": 0.0088,
      "velocity": 108,
      "chip": "ym2612"
    },
    {
      "channel": 3,
      "note": 85,
      "start": 0.0289,
      "duration": 0.0095,
      "velocity": 99,
      "chip": "ym2612"
    },
    {
      "channel": 1,
      "note": 76,
      "start": 0.0378,
      "duration": 0.0095,
      "velocity": 99,
      "chip": "ym2612"
    },
    {
      "channel": 2,
      "note": 52,
      "start": 0.0383,
      "duration": 0.0091,
      "velocity": 108,
      "chip": "ym2612"
    },
    {
      "channel": 4,
      "note": 81,
      "start": 0.0392,
      "duration": 0.0217,
      "velocity": 127,
      "chip": "ym2612"
    },
    {
      "channel": 3,
      "note": 73,
      "start": 0.0439,
      "duration": 0.0086,
      "velocity": 99,
      "chip": "ym2612"
    },
    {
      "channel": 1,
      "note": 78,
      "start": 0.0517,
      "duration": 0.0085,
      "velocity": 99,
      "chip": "ym2612"
    },
    {
      "channel": 2,
      "note": 54,
      "start": 0.0523,
      "duration": 0.0082,
      "velocity": 108,
      "chip": "ym2612"
    },
    {
      "channel": 3,
      "note": 76,
      "start": 0.057,
      "duration": 0.0085,
      "velocity": 99,
      "chip": "ym2612"
    },
    {
      "channel": 0,
      "note": 49,
      "start": 0.0642,
      "duration": 0.0239,
      "velocity": 111,
      "chip": "ym2612"
    },
    {
      "channel": 1,
      "note": 80,
      "start": 0.0648,
      "duration": 0.0095,
      "velocity": 99,
      "chip": "ym2612"
    },
    {
      "channel": 2,
      "note": 56,
      "start": 0.0653,
      "duration": 0.0092,
      "velocity": 108,
      "chip": "ym2612"
    },
    {
      "channel": 4,
      "note": 81,
      "start": 0.0662,
      "duration": 0.0228,
      "velocity": 127,
      "chip": "ym2612"
    },
    {
      "channel": 3,
      "note": 78,
      "start": 0.071,
      "duration": 0.009,
      "velocity": 99,
      "chip": "ym2612"
    },
    {
      "channel": 1,
      "note": 76,
      "start": 0.0793,
      "duration": 0.0091,
      "velocity": 99,
      "chip": "ym2612"
    },
    {
      "channel": 2,
      "note": 52,
      "start": 0.0798,
      "duration": 0.0087,
      "velocity": 108,
      "chip": "ym2612"
    },
    {
      "channel": 3,
      "note": 80,
      "start": 0.0848,
      "duration": 0.011,
      "velocity": 99,
      "chip": "ym2612"
    },
    {
      "channel": 0,
      "note": 61,
      "start": 0.0941,
      "duration": 0.0104,
      "velocity": 111,
      "chip": "ym2612"
    },
    {
      "channel": 1,
      "note": 80,
      "start": 0.0951,
      "duration": 0.01,
      "velocity": 99,
      "chip": "ym2612"
    },
    {
      "channel": 2,
      "note": 56,
      "start": 0.0956,
      "duration": 0.0097,
      "velocity": 108,
      "chip": "ym2612"
    },
    {
      "channel": 4,
      "note": 81,
      "start": 0.0964,
      "duration": 0.025,
      "velocity": 127,
      "chip": "ym2612"
    },
    {
      "channel": 3,
      "note": 76,
      "start": 0.1015,
      "duration": 0.01,
      "velocity": 99,
      "chip": "ym2612"
    },
    {
      "channel": 0,
      "note": 52,
      "start": 0.11,
      "duration": 0.0251,
      "velocity": 111,
      "chip": "ym2612"
    },
    {
      "channel": 1,
      "note": 83,
      "start": 0.1107,
      "duration": 0.0101,
      "velocity": 99,
      "chip": "ym2612"
    },
    {
      "channel": 2,
      "note": 59,
      "start": 0.1113,
      "duration": 0.0098,
      "velocity": 108,
      "chip": "ym2612"
    },
    {
      "channel": 3,
      "note": 80,
      "start": 0.1176,
      "duration": 0.009,
      "velocity": 99,
      "chip": "ym2612"
    },
    {
      "channel": 1,
      "note": 85,
      "start": 0.1259,
      "duration": 0.0095,
      "velocity": 99,
      "chip": "ym2612"
    },
    {
      "channel": 2,
      "note": 61,
      "start": 0.1264,
      "duration": 0.0092,
      "velocity": 108,
      "chip": "ym2612"
    },
    {
      "channel": 4,
      "note": 81,
      "start": 0.1273,
      "duration": 0.0224,
      "velocity": 127,
      "chip": "ym2612"
    },
    {
      "channel": 3,
      "note": 83,
      "start": 0.1316,
      "duration": 0.0095,
      "velocity": 99,
      "chip": "ym2612"
    },
    {
      "channel": 0,
      "note": 64,
      "start": 0.1397,
      "duration": 0.0091,
      "velocity": 111,
      "chip": "ym2612"
    },
    {
      "channel": 1,
      "note": 80,
      "start": 0.1404,
      "duration": 0.0086,
      "velocity": 99,
      "chip": "ym2612"
    },
    {
      "channel": 2,
      "note": 56,
      "start": 0.1409,
      "duration": 0.0083,
      "velocity": 108,
      "chip": "ym2612"
    },
    {
      "channel": 3,
      "note": 85,
      "start": 0.1457,
      "duration": 0.0097,
      "velocity": 99,
      "chip": "ym2612"
    },
    {
      "channel": 0,
      "note": 54,
      "start": 0.1539,
      "duration": 0.2988,
      "velocity": 111,
      "chip": "ym2612"
    },
    {
      "channel": 1,
      "note": 83,
      "start": 0.1546,
      "duration": 0.0807,
      "velocity": 99,
      "chip": "ym2612"
    },
    {
      "channel": 2,
      "note": 59,
      "start": 0.1551,
      "duration": 0.0803,
      "velocity": 108,
      "chip": "ym2612"
    },
    {
      "channel": 4,
      "note": 81,
      "start": 0.156,
      "duration": 0.1805,
      "velocity": 127,
      "chip": "ym2612"
    },
    {
      "channel": 3,
      "note": 80,
      "start": 0.1857,
      "duration": 0.0842,
      "velocity": 99,
      "chip": "ym2612"
    },
    {
      "channel": 1,
      "note": 85,
      "start": 0.2692,
      "duration": 0.0666,
      "velocity": 99,
      "chip": "ym2612"
    },
    {
      "channel": 2,
      "note": 61,
      "start": 0.2698,
      "duration": 0.0662,
      "velocity": 108,
      "chip": "ym2612"
    },
    {
      "channel": 3,
      "note": 83,
      "start": 0.3032,
      "duration": 0.0674,
      "velocity": 99,
      "chip": "ym2612"
    },
    {
      "channel": 1,
      "note": 88,
      "start": 0.3698,
      "duration": 0.0093,
      "velocity": 99,
      "chip": "ym2612"
    },
    {
      "channel": 2,
      "note": 64,
      "start": 0.3703,
      "duration": 0.0091,
      "velocity": 108,
      "chip": "ym2612"
    },
    {
      "channel": 4,
      "note": 81,
      "start": 0.3712,
      "duration": 0.0232,
      "velocity": 127,
      "chip": "ym2612"
    },
    {
      "channel": 3,
      "note": 85,
      "start": 0.3759,
      "duration": 0.0091,
      "velocity": 99,
      "chip": "ym2612"
    },
    {
      "channel": 1,
      "note": 85,
      "start": 0.3842,
      "duration": 0.0094,
      "velocity": 99,
      "chip": "ym2612"
    },
    {
      "channel": 2,
      "note": 61,
      "start": 0.3848,
      "duration": 0.0091,
      "velocity": 108,
      "chip": "ym2612"
    },
    {
      "channel": 3,
      "note": 88,
      "start": 0.39,
      "duration": 0.0087,
      "velocity": 99,
      "chip": "ym2612"
    },
    {
      "channel": 1,
      "note": 88,
      "start": 0.3979,
      "duration": 0.0215,
      "velocity": 99,
      "chip": "ym2612"
    },
    {
      "channel": 2,
      "note": 64,
      "start": 0.3985,
      "duration": 0.0211,
      "velocity": 108,
      "chip": "ym2612"
    },
    {
      "channel": 4,
      "note": 81,
      "start": 0.4005,
      "duration": 0.0634,
      "velocity": 119,
      "chip": "ym2612"
    },
    {
      "channel": 3,
      "note": 85,
      "start": 0.4053,
      "duration": 0.0489,
      "velocity": 99,
      "chip": "ym2612"
    },
    {
      "channel": 1,
      "note": 90,
      "start": 0.4534,
      "duration": 0.0098,
      "velocity": 99,
      "chip": "ym2612"
    },
    {
      "channel": 2,
      "note": 66,
      "start": 0.454,
      "duration": 0.0094,
      "velocity": 108,
      "chip": "ym2612"
    },
    {
      "channel": 3,
      "note": 88,
      "start": 0.4598,
      "duration": 0.0105,
      "velocity": 99,
      "chip": "ym2612"
    },
    {
      "channel": 0,
      "note": 56,
      "start": 0.469,
      "duration": 0.0233,
      "velocity": 111,
      "chip": "ym2612"
    },
    {
      "channel": 1,
      "note": 92,
      "start": 0.4697,
      "duration": 0.0106,
      "velocity": 99,
      "chip": "ym2612"
    },
    {
      "channel": 2,
      "note": 68,
      "start": 0.4702,
      "duration": 0.0103,
      "velocity": 108,
      "chip": "ym2612"
    },
    {
      "channel": 4,
      "note": 81,
      "start": 0.471,
      "duration": 0.0219,
      "velocity": 119,
      "chip": "ym2612"
    },
    {
      "channel": 3,
      "note": 90,
      "start": 0.4771,
      "duration": 0.0081,
      "velocity": 99,
      "chip": "ym2612"
    },
    {
      "channel": 3,
      "note": 92,
      "start": 0.4896,
      "duration": 0.008,
      "velocity": 99,
      "chip": "ym2612"
    },
    {
      "channel": 0,
      "note": 56,
      "start": 0.4962,
      "duration": 0.0106,
      "velocity": 111,
      "chip": "ym2612"
    },
    {
      "channel": 1,
      "note": 92,
      "start": 0.4968,
      "duration": 0.0229,
      "velocity": 99,
      "chip": "ym2612"
    },
    {
      "channel": 2,
      "note": 68,
      "start": 0.4974,
      "duration": 0.0226,
      "velocity": 108,
      "chip": "ym2612"
    },
    {
      "channel": 4,
      "note": 81,
      "start": 0.4983,
      "duration": 0.0092,
      "velocity": 119,
      "chip": "ym2612"
    },
    {
      "channel": 0,
      "note": 56,
      "start": 0.5111,
      "duration": 0.02,
      "velocity": 111,
      "chip": "ym2612"
    },
    {
      "channel": 4,
      "note": 81,
      "start": 0.5122,
      "duration": 0.02,
      "velocity": 119,
      "chip": "ym2612"
    },
    {
      "channel": 3,
      "note": 92,
      "start": 0.5165,
      "duration": 0.0212,
      "velocity": 99,
      "chip": "ym2612"
    },
    {
      "channel": 0,
      "note": 56,
      "start": 0.5364,
      "duration": 0.0122,
      "velocity": 111,
      "chip": "ym2612"
    },
    {
      "channel": 1,
      "note": 92,
      "start": 0.537,
      "duration": 0.087,
      "velocity": 99,
      "chip": "ym2612"
    },
    {
      "channel": 2,
      "note": 68,
      "start": 0.5375,
      "duration": 0.087,
      "velocity": 108,
      "chip": "ym2612"
    },
    {
      "channel": 4,
      "note": 81,
      "start": 0.5384,
      "duration": 0.011,
      "velocity": 119,
      "chip": "ym2612"
    },
    {
      "channel": 0,
      "note": 56,
      "start": 0.5524,
      "duration": 0.1302,
      "velocity": 111,
      "chip": "ym2612"
    },
    {
      "channel": 4,
      "note": 81,
      "start": 0.5539,
      "duration": 0.0215,
      "velocity": 119,
      "chip": "ym2612"
    },
    {
      "channel": 3,
      "note": 92,
      "start": 0.5584,
      "duration": 0.0768,
      "velocity": 99,
      "chip": "ym2612"
    },
    {
      "channel": 0,
      "note": 59,
      "start": 0.7141,
      "duration": 0.032,
      "velocity": 95,
      "chip": "ym2612"
    },
    {
      "channel": 1,
      "note": 83,
      "start": 0.7162,
      "duration": 0.0164,
      "velocity": 101,
      "chip": "ym2612"
    },
    {
      "channel": 2,
      "note": 54,
      "start": 0.7183,
      "duration": 0.0144,
      "velocity": 92,
      "chip": "ym2612"
    },
    {
      "channel": 4,
      "note": 81,
      "start": 0.7226,
      "duration": 0.0243,
      "velocity": 127,
      "chip": "ym2612"
    },
    {
      "channel": 1,
      "note": 85,
      "start": 0.7368,
      "duration": 0.0095,
      "velocity": 101,
      "chip": "ym2612"
    },
    {
      "channel": 2,
      "note": 56,
      "start": 0.7373,
      "duration": 0.0091,
      "velocity": 92,
      "chip": "ym2612"
    },
    {
      "channel": 3,
      "note": 83,
      "start": 0.7425,
      "duration": 0.0104,
      "velocity": 101,
      "chip": "ym2612"
    },
    {
      "channel": 0,
      "note": 49,
      "start": 0.7513,
      "duration": 0.0693,
      "velocity": 95,
      "chip": "ym2612"
    },
    {
      "channel": 1,
      "note": 85,
      "start": 0.7522,
      "duration": 0.014,
      "velocity": 101,
      "chip": "ym2612"
    },
    {
      "channel": 2,
      "note": 49,
      "start": 0.7527,
      "duration": 0.0094,
      "velocity": 92,
      "chip": "ym2612"
    },
    {
      "channel": 4,
      "note": 81,
      "start": 0.7538,
      "duration": 0.0676,
      "velocity": 127,
      "chip": "ym2612"
    },
    {
      "channel": 3,
      "note": 85,
      "start": 0.7587,
      "duration": 0.0083,
      "velocity": 101,
      "chip": "ym2612"
    },
    {
      "channel": 2,
      "note": 49,
      "start": 0.7668,
      "duration": 0.0541,
      "velocity": 92,
      "chip": "ym2612"
    },
    {
      "channel": 3,
      "note": 85,
      "start": 0.7884,
      "duration": 0.0731,
      "velocity": 101,
      "chip": "ym2612"
    },
    {
      "channel": 0,
      "note": 52,
      "start": 0.8544,
      "duration": 0.0098,
      "velocity": 95,
      "chip": "ym2612"
    },
    {
      "channel": 1,
      "note": 88,
      "start": 0.8553,
      "duration": 0.0092,
      "velocity": 101,
      "chip": "ym2612"
    },
    {
      "channel": 2,
      "note": 49,
      "start": 0.8558,
      "duration": 0.0089,
      "velocity": 92,
      "chip": "ym2612"
    },
    {
      "channel": 4,
      "note": 81,
      "start": 0.8567,
      "duration": 0.0231,
      "velocity": 127,
      "chip": "ym2612"
    },
    {
      "channel": 0,
      "note": 54,
      "start": 0.868,
      "duration": 0.0109,
      "velocity": 95,
      "chip": "ym2612"
    },
    {
      "channel": 1,
      "note": 88,
      "start": 0.869,
      "duration": 0.0102,
      "velocity": 101,
      "chip": "ym2612"
    },
    {
      "channel": 2,
      "note": 49,
      "start": 0.8698,
      "duration": 0.0095,
      "velocity": 92,
      "chip": "ym2612"
    },
    {
      "channel": 3,
      "note": 88,
      "start": 0.8754,
      "duration": 0.0112,
      "velocity": 101,
      "chip": "ym2612"
    },
    {
      "channel": 0,
      "note": 59,
      "start": 0.8846,
      "duration": 0.0339,
      "velocity": 95,
      "chip": "ym2612"
    },
    {
      "channel": 1,
      "note": 83,
      "start": 0.8855,
      "duration": 0.0102,
      "velocity": 101,
      "chip": "ym2612"
    },
    {
      "channel": 2,
      "note": 54,
      "start": 0.8863,
      "duration": 0.0095,
      "velocity": 92,
      "chip": "ym2612"
    },
    {
      "channel": 4,
      "note": 81,
      "start": 0.8871,
      "duration": 0.0323,
      "velocity": 127,
      "chip": "ym2612"
    },
    {
      "channel": 3,
      "note": 88,
      "start": 0.8927,
      "duration": 0.0079,
      "velocity": 101,
      "chip": "ym2612"
    },
    {
      "channel": 1,
      "note": 85,
      "start": 0.8999,
      "duration": 0.0189,
      "velocity": 101,
      "chip": "ym2612"
    },
    {
      "channel": 2,
      "note": 56,
      "start": 0.9005,
      "duration": 0.0185,
      "velocity": 92,
      "chip": "ym2612"
    },
    {
      "channel": 3,
      "note": 83,
      "start": 0.9063,
      "duration": 0.0485,
      "velocity": 101,
      "chip": "ym2612"
    },
    {
      "channel": 0,
      "note": 59,
      "start": 0.9529,
      "duration": 0.0347,
      "velocity": 95,
      "chip": "ym2612"
    },
    {
      "channel": 1,
      "note": 85,
      "start": 0.9538,
      "duration": 0.0145,
      "velocity": 101,
      "chip": "ym2612"
    },
    {
      "channel": 2,
      "note": 56,
      "start": 0.9546,
      "duration": 0.01,
      "velocity": 92,
      "chip": "ym2612"
    },
    {
      "channel": 4,
      "note": 81,
      "start": 0.9561,
      "duration": 0.0323,
      "velocity": 127,
      "chip": "ym2612"
    },
    {
      "channel": 3,
      "note": 85,
      "start": 0.9607,
      "duration": 0.0086,
      "velocity": 101,
      "chip": "ym2612"
    },
    {
      "channel": 2,
      "note": 49,
      "start": 0.9691,
      "duration": 0.0189,
      "velocity": 92,
      "chip": "ym2612"
    },
    {
      "channel": 3,
      "note": 85,
      "start": 0.9749,
      "duration": 0.097,
      "velocity": 101,
      "chip": "ym2612"
    },
    {
      "channel": 0,
      "note": 49,
      "start": 1.0219,
      "duration": 0.0829,
      "velocity": 95,
      "chip": "ym2612"
    },
    {
      "channel": 1,
      "note": 85,
      "start": 1.0231,
      "duration": 0.082,
      "velocity": 101,
      "chip": "ym2612"
    },
    {
      "channel": 2,
      "note": 49,
      "start": 1.0236,
      "duration": 0.0816,
      "velocity": 92,
      "chip": "ym2612"
    },
    {
      "channel": 4,
      "note": 81,
      "start": 1.0246,
      "duration": 0.1819,
      "velocity": 127,
      "chip": "ym2612"
    },
    {
      "channel": 0,
      "note": 52,
      "start": 1.1387,
      "duration": 0.1107,
      "velocity": 95,
      "chip": "ym2612"
    },
    {
      "channel": 1,
      "note": 85,
      "start": 1.1399,
      "duration": 0.0656,
      "velocity": 101,
      "chip": "ym2612"
    },
    {
      "channel": 2,
      "note": 59,
      "start": 1.1405,
      "duration": 0.1459,
      "velocity": 92,
      "chip": "ym2612"
    },
    {
      "channel": 3,
      "note": 85,
      "start": 1.1736,
      "duration": 0.0669,
      "velocity": 101,
      "chip": "ym2612"
    },
    {
      "channel": 1,
      "note": 88,
      "start": 1.2402,
      "duration": 0.0094,
      "velocity": 101,
      "chip": "ym2612"
    },
    {
      "channel": 4,
      "note": 81,
      "start": 1.2412,
      "duration": 0.0227,
      "velocity": 127,
      "chip": "ym2612"
    },
    {
      "channel": 3,
      "note": 85,
      "start": 1.2463,
      "duration": 0.0084,
      "velocity": 101,
      "chip": "ym2612"
    },
    {
      "channel": 0,
      "note": 54,
      "start": 1.2535,
      "duration": 0.066,
      "velocity": 95,
      "chip": "ym2612"
    },
    {
      "channel": 1,
      "note": 88,
      "start": 1.2544,
      "duration": 0.0088,
      "velocity": 101,
      "chip": "ym2612"
    },
    {
      "channel": 3,
      "note": 88,
      "start": 1.2596,
      "duration": 0.0085,
      "velocity": 101,
      "chip": "ym2612"
    },
    {
      "channel": 1,
      "note": 90,
      "start": 1.2677,
      "duration": 0.052,
      "velocity": 101,
      "chip": "ym2612"
    },
    {
      "channel": 4,
      "note": 81,
      "start": 1.2698,
      "duration": 0.1511,
      "velocity": 119,
      "chip": "ym2612"
    },
    {
      "channel": 3,
      "note": 88,
      "start": 1.2875,
      "duration": 0.0672,
      "velocity": 101,
      "chip": "ym2612"
    },
    {
      "channel": 0,
      "note": 56,
      "start": 1.3534,
      "duration": 0.0667,
      "velocity": 95,
      "chip": "ym2612"
    },
    {
      "channel": 1,
      "note": 90,
      "start": 1.3544,
      "duration": 0.066,
      "velocity": 101,
      "chip": "ym2612"
    },
    {
      "channel": 3,
      "note": 90,
      "start": 1.388,
      "duration": 0.0683,
      "velocity": 101,
      "chip": "ym2612"
    },
    {
      "channel": 0,
      "note": 59,
      "start": 1.4546,
      "duration": 0.0345,
      "velocity": 95,
      "chip": "ym2612"
    },
    {
      "channel": 1,
      "note": 92,
      "start": 1.4555,
      "duration": 0.0157,
      "velocity": 101,
      "chip": "ym2612"
    },
    {
      "channel": 2,
      "note": 54,
      "start": 1.4561,
      "duration": 0.0113,
      "velocity": 92,
      "chip": "ym2612"
    },
    {
      "channel": 4,
      "note": 81,
      "start": 1.4581,
      "duration": 0.0317,
      "velocity": 127,
      "chip": "ym2612"
    },
    {
      "channel": 3,
      "note": 90,
      "start": 1.4641,
      "duration": 0.0078,
      "velocity": 101,
      "chip": "ym2612"
    },
    {
      "channel": 2,
      "note": 56,
      "start": 1.4717,
      "duration": 0.0177,
      "velocity": 92,
      "chip": "ym2612"
    },
    {
      "channel": 3,
      "note": 92,
      "start": 1.4776,
      "duration": 0.079,
      "velocity": 101,
      "chip": "ym2612"
    },
    {
      "channel": 0,
      "note": 49,
      "start": 1.5233,
      "duration": 0.1668,
      "velocity": 95,
      "chip": "ym2612"
    },
    {
      "channel": 1,
      "note": 92,
      "start": 1.5242,
      "duration": 0.099,
      "velocity": 101,
      "chip": "ym2612"
    },
    {
      "channel": 2,
      "note": 49,
      "start": 1.5248,
      "duration": 0.0651,
      "velocity": 92,
      "chip": "ym2612"
    },
    {
      "channel": 4,
      "note": 81,
      "start": 1.5258,
      "duration": 0.1651,
      "velocity": 127,
      "chip": "ym2612"
    },
    {
      "channel": 2,
      "note": 49,
      "start": 1.6239,
      "duration": 0.0666,
      "velocity": 92,
      "chip": "ym2612"
    },
    {
      "channel": 3,
      "note": 92,
      "start": 1.6581,
      "duration": 0.0726,
      "velocity": 101,
      "chip": "ym2612"
    },
    {
      "channel": 0,
      "note": 52,
      "start": 1.724,
      "duration": 0.0115,
      "velocity": 95,
      "chip": "ym2612"
    },
    {
      "channel": 1,
      "note": 90,
      "start": 1.7249,
      "duration": 0.015,
      "velocity": 101,
      "chip": "ym2612"
    },
    {
      "channel": 2,
      "note": 49,
      "start": 1.7255,
      "duration": 0.0105,
      "velocity": 92,
      "chip": "ym2612"
    },
    {
      "channel": 4,
      "note": 81,
      "start": 1.7263,
      "duration": 0.0234,
      "velocity": 127,
      "chip": "ym2612"
    },
    {
      "channel": 0,
      "note": 54,
      "start": 1.7398,
      "duration": 0.009,
      "velocity": 95,
      "chip": "ym2612"
    },
    {
      "channel": 2,
      "note": 49,
      "start": 1.7408,
      "duration": 0.0083,
      "velocity": 92,
      "chip": "ym2612"
    },
    {
      "channel": 3,
      "note": 90,
      "start": 1.746,
      "duration": 0.0165,
      "velocity": 101,
      "chip": "ym2612"
    },
    {
      "channel": 0,
      "note": 59,
      "start": 1.7546,
      "duration": 0.0357,
      "velocity": 95,
      "chip": "ym2612"
    },
    {
      "channel": 1,
      "note": 90,
      "start": 1.7556,
      "duration": 0.0141,
      "velocity": 101,
      "chip": "ym2612"
    },
    {
      "channel": 2,
      "note": 54,
      "start": 1.7564,
      "duration": 0.0096,
      "velocity": 92,
      "chip": "ym2612"
    },
    {
      "channel": 4,
      "note": 81,
      "start": 1.7572,
      "duration": 0.034,
      "velocity": 127,
      "chip": "ym2612"
    },
    {
      "channel": 2,
      "note": 56,
      "start": 1.7702,
      "duration": 0.0205,
      "velocity": 92,
      "chip": "ym2612"
    },
    {
      "channel": 3,
      "note": 90,
      "start": 1.7758,
      "duration": 0.056,
      "velocity": 101,
      "chip": "ym2612"
    },
    {
      "channel": 0,
      "note": 59,
      "start": 1.8246,
      "duration": 0.0359,
      "velocity": 95,
      "chip": "ym2612"
    },
    {
      "channel": 1,
      "note": 88,
      "start": 1.8255,
      "duration": 0.0144,
      "velocity": 101,
      "chip": "ym2612"
    },
    {
      "channel": 2,
      "note": 56,
      "start": 1.8263,
      "duration": 0.0095,
      "velocity": 92,
      "chip": "ym2612"
    },
    {
      "channel": 4,
      "note": 81,
      "start": 1.8274,
      "duration": 0.034,
      "velocity": 127,
      "chip": "ym2612"
    },
    {
      "channel": 2,
      "note": 49,
      "start": 1.8408,
      "duration": 0.0201,
      "velocity": 92,
      "chip": "ym2612"
    },
    {
      "channel": 3,
      "note": 88,
      "start": 1.8466,
      "duration": 0.0816,
      "velocity": 101,
      "chip": "ym2612"
    },
    {
      "channel": 0,
      "note": 49,
      "start": 1.8949,
      "duration": 0.0663,
      "velocity": 95,
      "chip": "ym2612"
    },
    {
      "channel": 1,
      "note": 88,
      "start": 1.8958,
      "duration": 0.0994,
      "velocity": 101,
      "chip": "ym2612"
    },
    {
      "channel": 2,
      "note": 49,
      "start": 1.8963,
      "duration": 0.0653,
      "velocity": 92,
      "chip": "ym2612"
    },
    {
      "channel": 4,
      "note": 81,
      "start": 1.8974,
      "duration": 0.1651,
      "velocity": 127,
      "chip": "ym2612"
    },
    {
      "channel": 0,
      "note": 52,
      "start": 1.9951,
      "duration": 0.1087,
      "velocity": 95,
      "chip": "ym2612"
    },
    {
      "channel": 2,
      "note": 59,
      "start": 1.9959,
      "duration": 0.1469,
      "velocity": 92,
      "chip": "ym2612"
    },
    {
      "channel": 3,
      "note": 88,
      "start": 2.0296,
      "duration": 0.0714,
      "velocity": 101,
      "chip": "ym2612"
    },
    {
      "channel": 1,
      "note": 85,
      "start": 2.0962,
      "duration": 0.0079,
      "velocity": 101,
      "chip": "ym2612"
    },
    {
      "channel": 4,
      "note": 81,
      "start": 2.0971,
      "duration": 0.0217,
      "velocity": 127,
      "chip": "ym2612"
    },
    {
      "channel": 0,
      "note": 54,
      "start": 2.1085,
      "duration": 0.0674,
      "velocity": 95,
      "chip": "ym2612"
    },
    {
      "channel": 1,
      "note": 85,
      "start": 2.1094,
      "duration": 0.0089,
      "velocity": 101,
      "chip": "ym2612"
    },
    {
      "channel": 3,
      "note": 85,
      "start": 2.1146,
      "duration": 0.0089,
      "velocity": 101,
      "chip": "ym2612"
    },
    {
      "channel": 1,
      "note": 83,
      "start": 2.1231,
      "duration": 0.053,
      "velocity": 101,
      "chip": "ym2612"
    },
    {
      "channel": 4,
      "note": 81,
      "start": 2.1256,
      "duration": 0.1685,
      "velocity": 119,
      "chip": "ym2612"
    },
    {
      "channel": 3,
      "note": 85,
      "start": 2.1438,
      "duration": 0.0673,
      "velocity": 101,
      "chip": "ym2612"
    },
    {
      "channel": 0,
      "note": 56,
      "start": 2.2098,
      "duration": 0.0835,
      "velocity": 95,
      "chip": "ym2612"
    },
    {
      "channel": 1,
      "note": 83,
      "start": 2.2107,
      "duration": 0.0827,
      "velocity": 101,
      "chip": "ym2612"
    },
    {
      "channel": 3,
      "note": 83,
      "start": 2.2611,
      "duration": 0.07,
      "velocity": 101,
      "chip": "ym2612"
    },
    {
      "channel": 0,
      "note": 52,
      "start": 2.3277,
      "duration": 0.0361,
      "velocity": 95,
      "chip": "ym2612"
    },
    {
      "channel": 1,
      "note": 107,
      "start": 2.3302,
      "duration": 0.0123,
      "velocity": 102,
      "chip": "ym2612"
    },
    {
      "channel": 2,
      "note": 59,
      "start": 2.3309,
      "duration": 0.012,
      "velocity": 92,
      "chip": "ym2612"
    },
    {
      "channel": 4,
      "note": 81,
      "start": 2.333,
      "duration": 0.0317,
      "velocity": 127,
      "chip": "ym2612"
    },
    {
      "channel": 3,
      "note": 83,
      "start": 2.3393,
      "duration": 0.009,
      "velocity": 101,
      "chip": "ym2612"
    },
    {
      "channel": 1,
      "note": 107,
      "start": 2.3476,
      "duration": 0.0165,
      "velocity": 102,
      "chip": "ym2612"
    },
    {
      "channel": 2,
      "note": 61,
      "start": 2.3481,
      "duration": 0.0162,
      "velocity": 92,
      "chip": "ym2612"
    },
    {
      "channel": 3,
      "note": 107,
      "start": 2.3554,
      "duration": 0.0442,
      "velocity": 102,
      "chip": "ym2612"
    },
    {
      "channel": 0,
      "note": 59,
      "start": 2.3981,
      "duration": 0.0663,
      "velocity": 95,
      "chip": "ym2612"
    },
    {
      "channel": 1,
      "note": 107,
      "start": 2.3988,
      "duration": 0.0998,
      "velocity": 102,
      "chip": "ym2612"
    },
    {
      "channel": 2,
      "note": 54,
      "start": 2.3993,
      "duration": 0.0655,
      "velocity": 92,
      "chip": "ym2612"
    },
    {
      "channel": 4,
      "note": 81,
      "start": 2.4004,
      "duration": 0.1654,
      "velocity": 127,
      "chip": "ym2612"
    },
    {
      "channel": 3,
      "note": 107,
      "start": 2.4319,
      "duration": 0.0674,
      "velocity": 102,
      "chip": "ym2612"
    },
    {
      "channel": 0,
      "note": 61,
      "start": 2.4983,
      "duration": 0.0667,
      "velocity": 95,
      "chip": "ym2612"
    },
    {
      "channel": 2,
      "note": 54,
      "start": 2.4991,
      "duration": 0.0663,
      "velocity": 92,
      "chip": "ym2612"
    },
    {
      "channel": 3,
      "note": 107,
      "start": 2.5325,
      "duration": 0.0727,
      "velocity": 102,
      "chip": "ym2612"
    },
    {
      "channel": 0,
      "note": 64,
      "start": 2.5989,
      "duration": 0.01,
      "velocity": 95,
      "chip": "ym2612"
    },
    {
      "channel": 1,
      "note": 107,
      "start": 2.5995,
      "duration": 0.0095,
      "velocity": 102,
      "chip": "ym2612"
    },
    {
      "channel": 2,
      "note": 54,
      "start": 2.6,
      "duration": 0.0092,
      "velocity": 92,
      "chip": "ym2612"
    },
    {
      "channel": 4,
      "note": 81,
      "start": 2.6008,
      "duration": 0.022,
      "velocity": 127,
      "chip": "ym2612"
    },
    {
      "channel": 1,
      "note": 109,
      "start": 2.6139,
      "duration": 0.0139,
      "velocity": 102,
      "chip": "ym2612"
    },
    {
      "channel": 2,
      "note": 54,
      "start": 2.6147,
      "duration": 0.0077,
      "velocity": 92,
      "chip": "ym2612"
    },
    {
      "channel": 3,
      "note": 107,
      "start": 2.6194,
      "duration": 0.0094,
      "velocity": 102,
      "chip": "ym2612"
    },
    {
      "channel": 0,
      "note": 52,
      "start": 2.6276,
      "duration": 0.0352,
      "velocity": 95,
      "chip": "ym2612"
    },
    {
      "channel": 2,
      "note": 59,
      "start": 2.6286,
      "duration": 0.0096,
      "velocity": 92,
      "chip": "ym2612"
    },
    {
      "channel": 4,
      "note": 81,
      "start": 2.6295,
      "duration": 0.0342,
      "velocity": 127,
      "chip": "ym2612"
    },
    {
      "channel": 3,
      "note": 109,
      "start": 2.6348,
      "duration": 0.0129,
      "velocity": 102,
      "chip": "ym2612"
    },
    {
      "channel": 1,
      "note": 95,
      "start": 2.6425,
      "duration": 0.0548,
      "velocity": 102,
      "chip": "ym2612"
    },
    {
      "channel": 2,
      "note": 61,
      "start": 2.6431,
      "duration": 0.0201,
      "velocity": 92,
      "chip": "ym2612"
    },
    {
      "channel": 0,
      "note": 52,
      "start": 2.6971,
      "duration": 0.052,
      "velocity": 95,
      "chip": "ym2612"
    },
    {
      "channel": 2,
      "note": 61,
      "start": 2.6981,
      "duration": 0.0097,
      "velocity": 92,
      "chip": "ym2612"
    },
    {
      "channel": 4,
      "note": 81,
      "start": 2.6992,
      "duration": 0.0507,
      "velocity": 127,
      "chip": "ym2612"
    },
    {
      "channel": 3,
      "note": 95,
      "start": 2.7042,
      "duration": 0.0136,
      "velocity": 102,
      "chip": "ym2612"
    },
    {
      "channel": 1,
      "note": 95,
      "start": 2.7123,
      "duration": 0.0369,
      "velocity": 102,
      "chip": "ym2612"
    },
    {
      "channel": 2,
      "note": 54,
      "start": 2.7132,
      "duration": 0.0363,
      "velocity": 92,
      "chip": "ym2612"
    },
    {
      "channel": 0,
      "note": 59,
      "start": 2.7834,
      "duration": 0.0662,
      "velocity": 95,
      "chip": "ym2612"
    },
    {
      "channel": 1,
      "note": 95,
      "start": 2.784,
      "duration": 0.0997,
      "velocity": 102,
      "chip": "ym2612"
    },
    {
      "channel": 2,
      "note": 64,
      "start": 2.7846,
      "duration": 0.0654,
      "velocity": 92,
      "chip": "ym2612"
    },
    {
      "channel": 4,
      "note": 81,
      "start": 2.7856,
      "duration": 0.1653,
      "velocity": 127,
      "chip": "ym2612"
    },
    {
      "channel": 3,
      "note": 95,
      "start": 2.8171,
      "duration": 0.0676,
      "velocity": 102,
      "chip": "ym2612"
    },
    {
      "channel": 0,
      "note": 61,
      "start": 2.8835,
      "duration": 0.2822,
      "velocity": 95,
      "chip": "ym2612"
    },
    {
      "channel": 2,
      "note": 64,
      "start": 2.8845,
      "duration": 0.066,
      "velocity": 92,
      "chip": "ym2612"
    },
    {
      "channel": 3,
      "note": 95,
      "start": 2.9177,
      "duration": 0.0729,
      "velocity": 102,
      "chip": "ym2612"
    },
    {
      "channel": 1,
      "note": 95,
      "start": 2.9844,
      "duration": 0.01,
      "velocity": 102,
      "chip": "ym2612"
    },
    {
      "channel": 2,
      "note": 64,
      "start": 2.9851,
      "duration": 0.0095,
      "velocity": 92,
      "chip": "ym2612"
    },
    {
      "channel": 4,
      "note": 81,
      "start": 2.986,
      "duration": 0.0219,
      "velocity": 127,
      "chip": "ym2612"
    },
    {
      "channel": 1,
      "note": 97,
      "start": 2.9987,
      "duration": 0.0127,
      "velocity": 102,
      "chip": "ym2612"
    },
    {
      "channel": 2,
      "note": 66,
      "start": 2.9993,
      "duration": 0.0082,
      "velocity": 92,
      "chip": "ym2612"
    },
    {
      "channel": 3,
      "note": 95,
      "start": 3.004,
      "duration": 0.0084,
      "velocity": 102,
      "chip": "ym2612"
    },
    {
      "channel": 2,
      "note": 66,
      "start": 3.0122,
      "duration": 0.0532,
      "velocity": 92,
      "chip": "ym2612"
    },
    {
      "channel": 4,
      "note": 81,
      "start": 3.0142,
      "duration": 0.1522,
      "velocity": 119,
      "chip": "ym2612"
    },
    {
      "channel": 3,
      "note": 97,
      "start": 3.0326,
      "duration": 0.1001,
      "velocity": 102,
      "chip": "ym2612"
    },
    {
      "channel": 1,
      "note": 83,
      "start": 3.0994,
      "duration": 0.1007,
      "velocity": 102,
      "chip": "ym2612"
    },
    {
      "channel": 2,
      "note": 66,
      "start": 3.1002,
      "duration": 0.0658,
      "velocity": 92,
      "chip": "ym2612"
    },
    {
      "channel": 0,
      "note": 52,
      "start": 3.2,
      "duration": 0.0351,
      "velocity": 95,
      "chip": "ym2612"
    },
    {
      "channel": 2,
      "note": 59,
      "start": 3.2011,
      "duration": 0.0111,
      "velocity": 92,
      "chip": "ym2612"
    },
    {
      "channel": 4,
      "note": 81,
      "start": 3.2031,
      "duration": 0.0328,
      "velocity": 127,
      "chip": "ym2612"
    },
    {
      "channel": 3,
      "note": 83,
      "start": 3.2087,
      "duration": 0.0131,
      "velocity": 102,
      "chip": "ym2612"
    },
    {
      "channel": 1,
      "note": 83,
      "start": 3.2163,
      "duration": 0.019,
      "velocity": 102,
      "chip": "ym2612"
    },
    {
      "channel": 2,
      "note": 61,
      "start": 3.2168,
      "duration": 0.0186,
      "velocity": 92,
      "chip": "ym2612"
    },
    {
      "channel": 0,
      "note": 59,
      "start": 3.2694,
      "duration": 0.0663,
      "velocity": 95,
      "chip": "ym2612"
    },
    {
      "channel": 1,
      "note": 83,
      "start": 3.27,
      "duration": 0.0997,
      "velocity": 102,
      "chip": "ym2612"
    },
    {
      "channel": 2,
      "note": 54,
      "start": 3.2706,
      "duration": 0.0654,
      "velocity": 92,
      "chip": "ym2612"
    },
    {
      "channel": 4,
      "note": 81,
      "start": 3.272,
      "duration": 0.1651,
      "velocity": 127,
      "chip": "ym2612"
    },
    {
      "channel": 3,
      "note": 83,
      "start": 3.3032,
      "duration": 0.0673,
      "velocity": 102,
      "chip": "ym2612"
    },
    {
      "channel": 0,
      "note": 61,
      "start": 3.3696,
      "duration": 0.0667,
      "velocity": 95,
      "chip": "ym2612"
    },
    {
      "channel": 2,
      "note": 54,
      "start": 3.3703,
      "duration": 0.0663,
      "velocity": 92,
      "chip": "ym2612"
    },
    {
      "channel": 3,
      "note": 83,
      "start": 3.4037,
      "duration": 0.0745,
      "velocity": 102,
      "chip": "ym2612"
    },
    {
      "channel": 1,
      "note": 83,
      "start": 3.4706,
      "duration": 0.0107,
      "velocity": 102,
      "chip": "ym2612"
    },
    {
      "channel": 2,
      "note": 54,
      "start": 3.4711,
      "duration": 0.0104,
      "velocity": 92,
      "chip": "ym2612"
    },
    {
      "channel": 4,
      "note": 81,
      "start": 3.4722,
      "duration": 0.0234,
      "velocity": 127,
      "chip": "ym2612"
    },
    {
      "channel": 1,
      "note": 85,
      "start": 3.4856,
      "duration": 0.0165,
      "velocity": 102,
      "chip": "ym2612"
    },
    {
      "channel": 2,
      "note": 54,
      "start": 3.4868,
      "duration": 0.0085,
      "velocity": 92,
      "chip": "ym2612"
    },
    {
      "channel": 3,
      "note": 83,
      "start": 3.4915,
      "duration": 0.0116,
      "velocity": 102,
      "chip": "ym2612"
    },
    {
      "channel": 0,
      "note": 52,
      "start": 3.5019,
      "duration": 0.035,
      "velocity": 95,
      "chip": "ym2612"
    },
    {
      "channel": 2,
      "note": 59,
      "start": 3.5029,
      "duration": 0.0101,
      "velocity": 92,
      "chip": "ym2612"
    },
    {
      "channel": 4,
      "note": 81,
      "start": 3.5038,
      "duration": 0.0339,
      "velocity": 127,
      "chip": "ym2612"
    },
    {
      "channel": 3,
      "note": 85,
      "start": 3.5094,
      "duration": 0.0119,
      "velocity": 102,
      "chip": "ym2612"
    },
    {
      "channel": 2,
      "note": 61,
      "start": 3.5169,
      "duration": 0.0203,
      "velocity": 92,
      "chip": "ym2612"
    },
    {
      "channel": 0,
      "note": 52,
      "start": 3.5712,
      "duration": 0.0349,
      "velocity": 95,
      "chip": "ym2612"
    },
    {
      "channel": 2,
      "note": 61,
      "start": 3.5721,
      "duration": 0.0094,
      "velocity": 92,
      "chip": "ym2612"
    },
    {
      "channel": 4,
      "note": 81,
      "start": 3.5732,
      "duration": 0.0337,
      "velocity": 127,
      "chip": "ym2612"
    },
    {
      "channel": 1,
      "note": 83,
      "start": 3.5857,
      "duration": 0.0207,
      "velocity": 102,
      "chip": "ym2612"
    },
    {
      "channel": 2,
      "note": 54,
      "start": 3.5866,
      "duration": 0.02,
      "velocity": 92,
      "chip": "ym2612"
    },
    {
      "channel": 0,
      "note": 64,
      "start": 3.6404,
      "duration": 0.0663,
      "velocity": 95,
      "chip": "ym2612"
    },
    {
      "channel": 1,
      "note": 85,
      "start": 3.6411,
      "duration": 0.0658,
      "velocity": 102,
      "chip": "ym2612"
    },
    {
      "channel": 2,
      "note": 64,
      "start": 3.6418,
      "duration": 0.0653,
      "velocity": 92,
      "chip": "ym2612"
    },
    {
      "channel": 4,
      "note": 81,
      "start": 3.6427,
      "duration": 0.1653,
      "velocity": 127,
      "chip": "ym2612"
    },
    {
      "channel": 3,
      "note": 83,
      "start": 3.6745,
      "duration": 0.0679,
      "velocity": 102,
      "chip": "ym2612"
    },
    {
      "channel": 0,
      "note": 61,
      "start": 3.7406,
      "duration": 0.2986,
      "velocity": 95,
      "chip": "ym2612"
    },
    {
      "channel": 1,
      "note": 88,
      "start": 3.7413,
      "duration": 0.0996,
      "velocity": 102,
      "chip": "ym2612"
    },
    {
      "channel": 2,
      "note": 64,
      "start": 3.7422,
      "duration": 0.0654,
      "velocity": 92,
      "chip": "ym2612"
    },
    {
      "channel": 3,
      "note": 85,
      "start": 3.7749,
      "duration": 0.0671,
      "velocity": 102,
      "chip": "ym2612"
    },
    {
      "channel": 2,
      "note": 64,
      "start": 3.8418,
      "duration": 0.0085,
      "velocity": 92,
      "chip": "ym2612"
    },
    {
      "channel": 4,
      "note": 81,
      "start": 3.8426,
      "duration": 0.0214,
      "velocity": 127,
      "chip": "ym2612"
    },
    {
      "channel": 3,
      "note": 88,
      "start": 3.8472,
      "duration": 0.0133,
      "velocity": 102,
      "chip": "ym2612"
    },
    {
      "channel": 1,
      "note": 88,
      "start": 3.8549,
      "duration": 0.0084,
      "velocity": 102,
      "chip": "ym2612"
    },
    {
      "channel": 2,
      "note": 66,
      "start": 3.8555,
      "duration": 0.008,
      "velocity": 92,
      "chip": "ym2612"
    },
    {
      "channel": 1,
      "note": 85,
      "start": 3.8681,
      "duration": 0.1042,
      "velocity": 102,
      "chip": "ym2612"
    },
    {
      "channel": 2,
      "note": 66,
      "start": 3.869,
      "duration": 0.07,
      "velocity": 92,
      "chip": "ym2612"
    },
    {
      "channel": 4,
      "note": 81,
      "start": 3.8709,
      "duration": 0.1692,
      "velocity": 119,
      "chip": "ym2612"
    },
    {
      "channel": 3,
      "note": 88,
      "start": 3.8895,
      "duration": 0.0839,
      "velocity": 102,
      "chip": "ym2612"
    },
    {
      "channel": 2,
      "note": 66,
      "start": 3.9732,
      "duration": 0.0663,
      "velocity": 92,
      "chip": "ym2612"
    },
    {
      "channel": 3,
      "note": 85,
      "start": 4.0068,
      "duration": 0.0771,
      "velocity": 102,
      "chip": "ym2612"
    },
    {
      "channel": 0,
      "note": 59,
      "start": 4.0738,
      "duration": 0.03,
      "velocity": 95,
      "chip": "ym2612"
    },
    {
      "channel": 1,
      "note": 83,
      "start": 4.0759,
      "duration": 0.0118,
      "velocity": 101,
      "chip": "ym2612"
    },
    {
      "channel": 2,
      "note": 54,
      "start": 4.0769,
      "duration": 0.011,
      "velocity": 92,
      "chip": "ym2612"
    },
    {
      "channel": 4,
      "note": 81,
      "start": 4.0789,
      "duration": 0.0257,
      "velocity": 127,
      "chip": "ym2612"
    },
    {
      "channel": 1,
      "note": 85,
      "start": 4.0925,
      "duration": 0.0115,
      "velocity": 101,
      "chip": "ym2612"
    },
    {
      "channel": 2,
      "note": 56,
      "start": 4.093,
      "duration": 0.0111,
      "velocity": 92,
      "chip": "ym2612"
    },
    {
      "channel": 3,
      "note": 83,
      "start": 4.1002,
      "duration": 0.0104,
      "velocity": 101,
      "chip": "ym2612"
    },
    {
      "channel": 0,
      "note": 49,
      "start": 4.109,
      "duration": 0.0338,
      "velocity": 95,
      "chip": "ym2612"
    },
    {
      "channel": 1,
      "note": 85,
      "start": 4.1099,
      "duration": 0.0137,
      "velocity": 101,
      "chip": "ym2612"
    },
    {
      "channel": 2,
      "note": 49,
      "start": 4.1104,
      "duration": 0.0099,
      "velocity": 92,
      "chip": "ym2612"
    },
    {
      "channel": 4,
      "note": 81,
      "start": 4.1115,
      "duration": 0.032,
      "velocity": 127,
      "chip": "ym2612"
    },
    {
      "channel": 3,
      "note": 85,
      "start": 4.1169,
      "duration": 0.0075,
      "velocity": 101,
      "chip": "ym2612"
    },
    {
      "channel": 2,
      "note": 49,
      "start": 4.1241,
      "duration": 0.019,
      "velocity": 92,
      "chip": "ym2612"
    },
    {
      "channel": 3,
      "note": 85,
      "start": 4.1289,
      "duration": 0.0547,
      "velocity": 101,
      "chip": "ym2612"
    },
    {
      "channel": 0,
      "note": 52,
      "start": 4.1766,
      "duration": 0.0105,
      "velocity": 95,
      "chip": "ym2612"
    },
    {
      "channel": 1,
      "note": 88,
      "start": 4.1775,
      "duration": 0.0099,
      "velocity": 101,
      "chip": "ym2612"
    },
    {
      "channel": 2,
      "note": 49,
      "start": 4.178,
      "duration": 0.0096,
      "velocity": 92,
      "chip": "ym2612"
    },
    {
      "channel": 4,
      "note": 81,
      "start": 4.1789,
      "duration": 0.0238,
      "velocity": 127,
      "chip": "ym2612"
    },
    {
      "channel": 0,
      "note": 54,
      "start": 4.1918,
      "duration": 0.01,
      "velocity": 95,
      "chip": "ym2612"
    },
    {
      "channel": 1,
      "note": 88,
      "start": 4.1927,
      "duration": 0.0094,
      "velocity": 101,
      "chip": "ym2612"
    },
    {
      "channel": 2,
      "note": 49,
      "start": 4.1935,
      "duration": 0.0088,
      "velocity": 92,
      "chip": "ym2612"
    },
    {
      "channel": 3,
      "note": 88,
      "start": 4.1986,
      "duration": 0.0104,
      "velocity": 101,
      "chip": "ym2612"
    },
    {
      "channel": 0,
      "note": 59,
      "start": 4.2072,
      "duration": 0.0356,
      "velocity": 95,
      "chip": "ym2612"
    },
    {
      "channel": 1,
      "note": 83,
      "start": 4.208,
      "duration": 0.011,
      "velocity": 101,
      "chip": "ym2612"
    },
    {
      "channel": 2,
      "note": 54,
      "start": 4.2088,
      "duration": 0.0104,
      "velocity": 92,
      "chip": "ym2612"
    },
    {
      "channel": 4,
      "note": 81,
      "start": 4.2096,
      "duration": 0.034,
      "velocity": 127,
      "chip": "ym2612"
    },
    {
      "channel": 3,
      "note": 88,
      "start": 4.2157,
      "duration": 0.0083,
      "velocity": 101,
      "chip": "ym2612"
    },
    {
      "channel": 1,
      "note": 85,
      "start": 4.2233,
      "duration": 0.0196,
      "velocity": 101,
      "chip": "ym2612"
    },
    {
      "channel": 2,
      "note": 56,
      "start": 4.2239,
      "duration": 0.0193,
      "velocity": 92,
      "chip": "ym2612"
    },
    {
      "channel": 3,
      "note": 83,
      "start": 4.2296,
      "duration": 0.0497,
      "velocity": 101,
      "chip": "ym2612"
    },
    {
      "channel": 0,
      "note": 59,
      "start": 4.2771,
      "duration": 0.0524,
      "velocity": 95,
      "chip": "ym2612"
    },
    {
      "channel": 1,
      "note": 85,
      "start": 4.2782,
      "duration": 0.0148,
      "velocity": 101,
      "chip": "ym2612"
    },
    {
      "channel": 2,
      "note": 56,
      "start": 4.2791,
      "duration": 0.0099,
      "velocity": 92,
      "chip": "ym2612"
    },
    {
      "channel": 4,
      "note": 81,
      "start": 4.2802,
      "duration": 0.0504,
      "velocity": 127,
      "chip": "ym2612"
    },
    {
      "channel": 3,
      "note": 85,
      "start": 4.2852,
      "duration": 0.0091,
      "velocity": 101,
      "chip": "ym2612"
    },
    {
      "channel": 2,
      "note": 49,
      "start": 4.2941,
      "duration": 0.036,
      "velocity": 92,
      "chip": "ym2612"
    },
    {
      "channel": 3,
      "note": 85,
      "start": 4.3017,
      "duration": 0.0957,
      "velocity": 101,
      "chip": "ym2612"
    },
    {
      "channel": 0,
      "note": 49,
      "start": 4.3641,
      "duration": 0.0663,
      "velocity": 95,
      "chip": "ym2612"
    },
    {
      "channel": 1,
      "note": 85,
      "start": 4.365,
      "duration": 0.0656,
      "velocity": 101,
      "chip": "ym2612"
    },
    {
      "channel": 2,
      "note": 49,
      "start": 4.3655,
      "duration": 0.0653,
      "velocity": 92,
      "chip": "ym2612"
    },
    {
      "channel": 4,
      "note": 81,
      "start": 4.3666,
      "duration": 0.1651,
      "velocity": 127,
      "chip": "ym2612"
    },
    {
      "channel": 0,
      "note": 52,
      "start": 4.4643,
      "duration": 0.1104,
      "velocity": 95,
      "chip": "ym2612"
    },
    {
      "channel": 1,
      "note": 85,
      "start": 4.4652,
      "duration": 0.0659,
      "velocity": 101,
      "chip": "ym2612"
    },
    {
      "channel": 2,
      "note": 59,
      "start": 4.4658,
      "duration": 0.1466,
      "velocity": 92,
      "chip": "ym2612"
    },
    {
      "channel": 3,
      "note": 85,
      "start": 4.4988,
      "duration": 0.0669,
      "velocity": 101,
      "chip": "ym2612"
    },
    {
      "channel": 1,
      "note": 88,
      "start": 4.5654,
      "duration": 0.0096,
      "velocity": 101,
      "chip": "ym2612"
    },
    {
      "channel": 4,
      "note": 81,
      "start": 4.5664,
      "duration": 0.0227,
      "velocity": 127,
      "chip": "ym2612"
    },
    {
      "channel": 3,
      "note": 85,
      "start": 4.5711,
      "duration": 0.0086,
      "velocity": 101,
      "chip": "ym2612"
    },
    {
      "channel": 0,
      "note": 54,
      "start": 4.5785,
      "duration": 0.0671,
      "velocity": 95,
      "chip": "ym2612"
    },
    {
      "channel": 1,
      "note": 88,
      "start": 4.5794,
      "duration": 0.0091,
      "velocity": 101,
      "chip": "ym2612"
    },
    {
      "channel": 3,
      "note": 88,
      "start": 4.5852,
      "duration": 0.0086,
      "velocity": 101,
      "chip": "ym2612"
    },
    {
      "channel": 1,
      "note": 90,
      "start": 4.5934,
      "duration": 0.0524,
      "velocity": 101,
      "chip": "ym2612"
    },
    {
      "channel": 4,
      "note": 81,
      "start": 4.5956,
      "duration": 0.1515,
      "velocity": 119,
      "chip": "ym2612"
    },
    {
      "channel": 3,
      "note": 88,
      "start": 4.6135,
      "duration": 0.0673,
      "velocity": 101,
      "chip": "ym2612"
    },
    {
      "channel": 0,
      "note": 56,
      "start": 4.6795,
      "duration": 0.0667,
      "velocity": 95,
      "chip": "ym2612"
    },
    {
      "channel": 1,
      "note": 90,
      "start": 4.6805,
      "duration": 0.0659,
      "velocity": 101,
      "chip": "ym2612"
    },
    {
      "channel": 3,
      "note": 90,
      "start": 4.7141,
      "duration": 0.0683,
      "velocity": 101,
      "chip": "ym2612"
    },
    {
      "channel": 0,
      "note": 59,
      "start": 4.7806,
      "duration": 0.0352,
      "velocity": 95,
      "chip": "ym2612"
    },
    {
      "channel": 1,
      "note": 92,
      "start": 4.7815,
      "duration": 0.0161,
      "velocity": 101,
      "chip": "ym2612"
    },
    {
      "channel": 2,
      "note": 54,
      "start": 4.7822,
      "duration": 0.0117,
      "velocity": 92,
      "chip": "ym2612"
    },
    {
      "channel": 4,
      "note": 81,
      "start": 4.7842,
      "duration": 0.0325,
      "velocity": 127,
      "chip": "ym2612"
    },
    {
      "channel": 3,
      "note": 90,
      "start": 4.7905,
      "duration": 0.0078,
      "velocity": 101,
      "chip": "ym2612"
    },
    {
      "channel": 2,
      "note": 56,
      "start": 4.7981,
      "duration": 0.0181,
      "velocity": 92,
      "chip": "ym2612"
    },
    {
      "channel": 3,
      "note": 92,
      "start": 4.8039,
      "duration": 0.0795,
      "velocity": 101,
      "chip": "ym2612"
    },
    {
      "channel": 0,
      "note": 49,
      "start": 4.8501,
      "duration": 0.1836,
      "velocity": 95,
      "chip": "ym2612"
    },
    {
      "channel": 1,
      "note": 92,
      "start": 4.851,
      "duration": 0.099,
      "velocity": 101,
      "chip": "ym2612"
    },
    {
      "channel": 2,
      "note": 49,
      "start": 4.8516,
      "duration": 0.0651,
      "velocity": 92,
      "chip": "ym2612"
    },
    {
      "channel": 4,
      "note": 81,
      "start": 4.8526,
      "duration": 0.1819,
      "velocity": 127,
      "chip": "ym2612"
    },
    {
      "channel": 2,
      "note": 49,
      "start": 4.9507,
      "duration": 0.0834,
      "velocity": 92,
      "chip": "ym2612"
    },
    {
      "channel": 3,
      "note": 92,
      "start": 4.9848,
      "duration": 0.0897,
      "velocity": 101,
      "chip": "ym2612"
    },
    {
      "channel": 0,
      "note": 52,
      "start": 5.0676,
      "duration": 0.0101,
      "velocity": 95,
      "chip": "ym2612"
    },
    {
      "channel": 1,
      "note": 90,
      "start": 5.0685,
      "duration": 0.0139,
      "velocity": 101,
      "chip": "ym2612"
    },
    {
      "channel": 2,
      "note": 49,
      "start": 5.0691,
      "duration": 0.009,
      "velocity": 92,
      "chip": "ym2612"
    },
    {
      "channel": 4,
      "note": 81,
      "start": 5.0698,
      "duration": 0.0227,
      "velocity": 127,
      "chip": "ym2612"
    },
    {
      "channel": 0,
      "note": 54,
      "start": 5.0823,
      "duration": 0.0095,
      "velocity": 95,
      "chip": "ym2612"
    },
    {
      "channel": 2,
      "note": 49,
      "start": 5.0833,
      "duration": 0.0088,
      "velocity": 92,
      "chip": "ym2612"
    },
    {
      "channel": 3,
      "note": 90,
      "start": 5.0885,
      "duration": 0.0149,
      "velocity": 101,
      "chip": "ym2612"
    },
    {
      "channel": 0,
      "note": 59,
      "start": 5.096,
      "duration": 0.0357,
      "velocity": 95,
      "chip": "ym2612"
    },
    {
      "channel": 1,
      "note": 90,
      "start": 5.0969,
      "duration": 0.0145,
      "velocity": 101,
      "chip": "ym2612"
    },
    {
      "channel": 2,
      "note": 54,
      "start": 5.0978,
      "duration": 0.0095,
      "velocity": 92,
      "chip": "ym2612"
    },
    {
      "channel": 4,
      "note": 81,
      "start": 5.0985,
      "duration": 0.034,
      "velocity": 127,
      "chip": "ym2612"
    },
    {
      "channel": 2,
      "note": 56,
      "start": 5.112,
      "duration": 0.0201,
      "velocity": 92,
      "chip": "ym2612"
    },
    {
      "channel": 3,
      "note": 90,
      "start": 5.1175,
      "duration": 0.0558,
      "velocity": 101,
      "chip": "ym2612"
    },
    {
      "channel": 0,
      "note": 59,
      "start": 5.166,
      "duration": 0.0347,
      "velocity": 95,
      "chip": "ym2612"
    },
    {
      "channel": 1,
      "note": 88,
      "start": 5.1669,
      "duration": 0.0141,
      "velocity": 101,
      "chip": "ym2612"
    },
    {
      "channel": 2,
      "note": 56,
      "start": 5.1677,
      "duration": 0.0091,
      "velocity": 92,
      "chip": "ym2612"
    },
    {
      "channel": 4,
      "note": 81,
      "start": 5.1688,
      "duration": 0.0327,
      "velocity": 127,
      "chip": "ym2612"
    },
    {
      "channel": 2,
      "note": 49,
      "start": 5.1819,
      "duration": 0.0192,
      "velocity": 92,
      "chip": "ym2612"
    },
    {
      "channel": 3,
      "note": 88,
      "start": 5.1876,
      "duration": 0.0806,
      "velocity": 101,
      "chip": "ym2612"
    },
    {
      "channel": 0,
      "note": 49,
      "start": 5.235,
      "duration": 0.0663,
      "velocity": 95,
      "chip": "ym2612"
    },
    {
      "channel": 1,
      "note": 88,
      "start": 5.2359,
      "duration": 0.0994,
      "velocity": 101,
      "chip": "ym2612"
    },
    {
      "channel": 2,
      "note": 49,
      "start": 5.2363,
      "duration": 0.0653,
      "velocity": 92,
      "chip": "ym2612"
    },
    {
      "channel": 4,
      "note": 81,
      "start": 5.2374,
      "duration": 0.1651,
      "velocity": 127,
      "chip": "ym2612"
    },
    {
      "channel": 0,
      "note": 52,
      "start": 5.3351,
      "duration": 0.1101,
      "velocity": 95,
      "chip": "ym2612"
    },
    {
      "channel": 2,
      "note": 59,
      "start": 5.3359,
      "duration": 0.1645,
      "velocity": 92,
      "chip": "ym2612"
    },
    {
      "channel": 3,
      "note": 88,
      "start": 5.3697,
      "duration": 0.072,
      "velocity": 101,
      "chip": "ym2612"
    },
    {
      "channel": 1,
      "note": 85,
      "start": 5.4362,
      "duration": 0.0093,
      "velocity": 101,
      "chip": "ym2612"
    },
    {
      "channel": 4,
      "note": 81,
      "start": 5.4372,
      "duration": 0.0222,
      "velocity": 127,
      "chip": "ym2612"
    },
    {
      "channel": 0,
      "note": 54,
      "start": 5.4491,
      "duration": 0.0845,
      "velocity": 95,
      "chip": "ym2612"
    },
    {
      "channel": 1,
      "note": 85,
      "start": 5.45,
      "duration": 0.0088,
      "velocity": 101,
      "chip": "ym2612"
    },
    {
      "channel": 3,
      "note": 85,
      "start": 5.4556,
      "duration": 0.0085,
      "velocity": 101,
      "chip": "ym2612"
    },
    {
      "channel": 1,
      "note": 83,
      "start": 5.4637,
      "duration": 0.0701,
      "velocity": 101,
      "chip": "ym2612"
    },
    {
      "channel": 4,
      "note": 81,
      "start": 5.4662,
      "duration": 0.1691,
      "velocity": 119,
      "chip": "ym2612"
    },
    {
      "channel": 3,
      "note": 85,
      "start": 5.5019,
      "duration": 0.0672,
      "velocity": 101,
      "chip": "ym2612"
    },
    {
      "channel": 0,
      "note": 56,
      "start": 5.5675,
      "duration": 0.0666,
      "velocity": 95,
      "chip": "ym2612"
    },
    {
      "channel": 1,
      "note": 83,
      "start": 5.5687,
      "duration": 0.0656,
      "velocity": 101,
      "chip": "ym2612"
    },
    {
      "channel": 3,
      "note": 83,
      "start": 5.6024,
      "duration": 0.0685,
      "velocity": 101,
      "chip": "ym2612"
    },
    {
      "channel": 0,
      "note": 52,
      "start": 5.6688,
      "duration": 0.0357,
      "velocity": 95,
      "chip": "ym2612"
    },
    {
      "channel": 1,
      "note": 90,
      "start": 5.6699,
      "duration": 0.0127,
      "velocity": 101,
      "chip": "ym2612"
    },
    {
      "channel": 2,
      "note": 59,
      "start": 5.6706,
      "duration": 0.0122,
      "velocity": 92,
      "chip": "ym2612"
    },
    {
      "channel": 4,
      "note": 81,
      "start": 5.6727,
      "duration": 0.0327,
      "velocity": 127,
      "chip": "ym2612"
    },
    {
      "channel": 3,
      "note": 83,
      "start": 5.679,
      "duration": 0.009,
      "velocity": 101,
      "chip": "ym2612"
    },
    {
      "channel": 1,
      "note": 90,
      "start": 5.6872,
      "duration": 0.0175,
      "velocity": 101,
      "chip": "ym2612"
    },
    {
      "channel": 2,
      "note": 61,
      "start": 5.6878,
      "duration": 0.0171,
      "velocity": 92,
      "chip": "ym2612"
    },
    {
      "channel": 3,
      "note": 90,
      "start": 5.6942,
      "duration": 0.0462,
      "velocity": 101,
      "chip": "ym2612"
    },
    {
      "channel": 0,
      "note": 59,
      "start": 5.7388,
      "duration": 0.0663,
      "velocity": 95,
      "chip": "ym2612"
    },
    {
      "channel": 1,
      "note": 78,
      "start": 5.7396,
      "duration": 0.0656,
      "velocity": 101,
      "chip": "ym2612"
    },
    {
      "channel": 2,
      "note": 54,
      "start": 5.7402,
      "duration": 0.0652,
      "velocity": 92,
      "chip": "ym2612"
    },
    {
      "channel": 4,
      "note": 81,
      "start": 5.7414,
      "duration": 0.1651,
      "velocity": 127,
      "chip": "ym2612"
    },
    {
      "channel": 3,
      "note": 90,
      "start": 5.773,
      "duration": 0.0676,
      "velocity": 101,
      "chip": "ym2612"
    },
    {
      "channel": 0,
      "note": 61,
      "start": 5.8389,
      "duration": 0.0667,
      "velocity": 95,
      "chip": "ym2612"
    },
    {
      "channel": 1,
      "note": 78,
      "start": 5.8398,
      "duration": 0.066,
      "velocity": 101,
      "chip": "ym2612"
    },
    {
      "channel": 2,
      "note": 54,
      "start": 5.8404,
      "duration": 0.0656,
      "velocity": 92,
      "chip": "ym2612"
    },
    {
      "channel": 3,
      "note": 78,
      "start": 5.8735,
      "duration": 0.0677,
      "velocity": 101,
      "chip": "ym2612"
    },
    {
      "channel": 0,
      "note": 64,
      "start": 5.9395,
      "duration": 0.0109,
      "velocity": 95,
      "chip": "ym2612"
    },
    {
      "channel": 1,
      "note": 90,
      "start": 5.9404,
      "duration": 0.0102,
      "velocity": 101,
      "chip": "ym2612"
    },
    {
      "channel": 2,
      "note": 54,
      "start": 5.941,
      "duration": 0.0099,
      "velocity": 92,
      "chip": "ym2612"
    },
    {
      "channel": 4,
      "note": 81,
      "start": 5.9418,
      "duration": 0.024,
      "velocity": 127,
      "chip": "ym2612"
    },
    {
      "channel": 3,
      "note": 78,
      "start": 5.9469,
      "duration": 0.0099,
      "velocity": 101,
      "chip": "ym2612"
    },
    {
      "channel": 1,
      "note": 90,
      "start": 5.9558,
      "duration": 0.0094,
      "velocity": 101,
      "chip": "ym2612"
    },
    {
      "channel": 2,
      "note": 54,
      "start": 5.9566,
      "duration": 0.0088,
      "velocity": 92,
      "chip": "ym2612"
    },
    {
      "channel": 3,
      "note": 90,
      "start": 5.9615,
      "duration": 0.0101,
      "velocity": 101,
      "chip": "ym2612"
    },
    {
      "channel": 0,
      "note": 52,
      "start": 5.9698,
      "duration": 0.0358,
      "velocity": 95,
      "chip": "ym2612"
    },
    {
      "channel": 1,
      "note": 92,
      "start": 5.9706,
      "duration": 0.0107,
      "velocity": 101,
      "chip": "ym2612"
    },
    {
      "channel": 2,
      "note": 59,
      "start": 5.9715,
      "duration": 0.01,
      "velocity": 92,
      "chip": "ym2612"
    },
    {
      "channel": 4,
      "note": 81,
      "start": 5.9723,
      "duration": 0.0341,
      "velocity": 127,
      "chip": "ym2612"
    },
    {
      "channel": 3,
      "note": 90,
      "start": 5.9779,
      "duration": 0.0088,
      "velocity": 101,
      "chip": "ym2612"
    },
    {
      "channel": 1,
      "note": 88,
      "start": 5.9861,
      "duration": 0.0196,
      "velocity": 101,
      "chip": "ym2612"
    },
    {
      "channel": 2,
      "note": 61,
      "start": 5.9866,
      "duration": 0.0193,
      "velocity": 92,
      "chip": "ym2612"
    },
    {
      "channel": 3,
      "note": 92,
      "start": 5.9924,
      "duration": 0.0493,
      "velocity": 101,
      "chip": "ym2612"
    },
    {
      "channel": 0,
      "note": 52,
      "start": 6.0398,
      "duration": 0.0522,
      "velocity": 95,
      "chip": "ym2612"
    },
    {
      "channel": 1,
      "note": 88,
      "start": 6.0407,
      "duration": 0.017,
      "velocity": 101,
      "chip": "ym2612"
    },
    {
      "channel": 2,
      "note": 61,
      "start": 6.0415,
      "duration": 0.012,
      "velocity": 92,
      "chip": "ym2612"
    },
    {
      "channel": 4,
      "note": 81,
      "start": 6.0427,
      "duration": 0.0502,
      "velocity": 127,
      "chip": "ym2612"
    },
    {
      "channel": 3,
      "note": 88,
      "start": 6.0477,
      "duration": 0.011,
      "velocity": 101,
      "chip": "ym2612"
    },
    {
      "channel": 2,
      "note": 54,
      "start": 6.0585,
      "duration": 0.0339,
      "velocity": 92,
      "chip": "ym2612"
    },
    {
      "channel": 3,
      "note": 88,
      "start": 6.0639,
      "duration": 0.0957,
      "velocity": 101,
      "chip": "ym2612"
    },
    {
      "channel": 0,
      "note": 59,
      "start": 6.1263,
      "duration": 0.0663,
      "velocity": 95,
      "chip": "ym2612"
    },
    {
      "channel": 1,
      "note": 85,
      "start": 6.1273,
      "duration": 0.0656,
      "velocity": 101,
      "chip": "ym2612"
    },
    {
      "channel": 2,
      "note": 64,
      "start": 6.1278,
      "duration": 0.0652,
      "velocity": 92,
      "chip": "ym2612"
    },
    {
      "channel": 4,
      "note": 81,
      "start": 6.1289,
      "duration": 0.1651,
      "velocity": 127,
      "chip": "ym2612"
    },
    {
      "channel": 0,
      "note": 61,
      "start": 6.2266,
      "duration": 0.281,
      "velocity": 95,
      "chip": "ym2612"
    },
    {
      "channel": 1,
      "note": 85,
      "start": 6.2274,
      "duration": 0.0659,
      "velocity": 101,
      "chip": "ym2612"
    },
    {
      "channel": 2,
      "note": 64,
      "start": 6.2283,
      "duration": 0.0653,
      "velocity": 92,
      "chip": "ym2612"
    },
    {
      "channel": 3,
      "note": 85,
      "start": 6.261,
      "duration": 0.0676,
      "velocity": 101,
      "chip": "ym2612"
    },
    {
      "channel": 1,
      "note": 83,
      "start": 6.3276,
      "duration": 0.0096,
      "velocity": 101,
      "chip": "ym2612"
    },
    {
      "channel": 2,
      "note": 64,
      "start": 6.3283,
      "duration": 0.0091,
      "velocity": 92,
      "chip": "ym2612"
    },
    {
      "channel": 4,
      "note": 81,
      "start": 6.3292,
      "duration": 0.0231,
      "velocity": 127,
      "chip": "ym2612"
    },
    {
      "channel": 3,
      "note": 85,
      "start": 6.3344,
      "duration": 0.0084,
      "velocity": 101,
      "chip": "ym2612"
    },
    {
      "channel": 1,
      "note": 85,
      "start": 6.342,
      "duration": 0.0096,
      "velocity": 101,
      "chip": "ym2612"
    },
    {
      "channel": 2,
      "note": 66,
      "start": 6.3426,
      "duration": 0.0093,
      "velocity": 92,
      "chip": "ym2612"
    },
    {
      "channel": 3,
      "note": 83,
      "start": 6.348,
      "duration": 0.0093,
      "velocity": 101,
      "chip": "ym2612"
    },
    {
      "channel": 1,
      "note": 85,
      "start": 6.3562,
      "duration": 0.051,
      "velocity": 101,
      "chip": "ym2612"
    },
    {
      "channel": 2,
      "note": 66,
      "start": 6.3571,
      "duration": 0.0503,
      "velocity": 92,
      "chip": "ym2612"
    },
    {
      "channel": 4,
      "note": 81,
      "start": 6.359,
      "duration": 0.1494,
      "velocity": 119,
      "chip": "ym2612"
    },
    {
      "channel": 3,
      "note": 85,
      "start": 6.3746,
      "duration": 0.0679,
      "velocity": 101,
      "chip": "ym2612"
    },
    {
      "channel": 1,
      "note": 90,
      "start": 6.4415,
      "duration": 0.0663,
      "velocity": 101,
      "chip": "ym2612"
    },
    {
      "channel": 2,
      "note": 66,
      "start": 6.4423,
      "duration": 0.0656,
      "velocity": 92,
      "chip": "ym2612"
    },
    {
      "channel": 3,
      "note": 85,
      "start": 6.4755,
      "duration": 0.0684,
      "velocity": 101,
      "chip": "ym2612"
    },
    {
      "channel": 0,
      "note": 52,
      "start": 6.5419,
      "duration": 0.0271,
      "velocity": 95,
      "chip": "ym2612"
    },
    {
      "channel": 1,
      "note": 90,
      "start": 6.5428,
      "duration": 0.0163,
      "velocity": 101,
      "chip": "ym2612"
    },
    {
      "channel": 2,
      "note": 59,
      "start": 6.5437,
      "duration": 0.01,
      "velocity": 92,
      "chip": "ym2612"
    },
    {
      "channel": 3,
      "note": 90,
      "start": 6.5498,
      "duration": 0.0101,
      "velocity": 101,
      "chip": "ym2612"
    },
    {
      "channel": 2,
      "note": 61,
      "start": 6.5597,
      "duration": 0.0097,
      "velocity": 92,
      "chip": "ym2612"
    },
    {
      "channel": 3,
      "note": 90,
      "start": 6.5657,
      "duration": 0.0149,
      "velocity": 101,
      "chip": "ym2612"
    },
    {
      "channel": 0,
      "note": 59,
      "start": 6.5742,
      "duration": 0.0099,
      "velocity": 95,
      "chip": "ym2612"
    },
    {
      "channel": 1,
      "note": 88,
      "start": 6.5751,
      "duration": 0.0093,
      "velocity": 101,
      "chip": "ym2612"
    },
    {
      "channel": 2,
      "note": 54,
      "start": 6.5757,
      "duration": 0.0088,
      "velocity": 92,
      "chip": "ym2612"
    },
    {
      "channel": 0,
      "note": 61,
      "start": 6.5883,
      "duration": 0.0137,
      "velocity": 95,
      "chip": "ym2612"
    },
    {
      "channel": 1,
      "note": 88,
      "start": 6.5892,
      "duration": 0.013,
      "velocity": 101,
      "chip": "ym2612"
    },
    {
      "channel": 2,
      "note": 54,
      "start": 6.59,
      "duration": 0.0123,
      "velocity": 92,
      "chip": "ym2612"
    },
    {
      "channel": 3,
      "note": 88,
      "start": 6.5976,
      "duration": 0.0401,
      "velocity": 101,
      "chip": "ym2612"
    },
    {
      "channel": 1,
      "note": 85,
      "start": 6.6369,
      "duration": 0.0108,
      "velocity": 101,
      "chip": "ym2612"
    },
    {
      "channel": 2,
      "note": 54,
      "start": 6.6375,
      "duration": 0.0107,
      "velocity": 92,
      "chip": "ym2612"
    },
    {
      "channel": 3,
      "note": 88,
      "start": 6.6439,
      "duration": 0.0096,
      "velocity": 101,
      "chip": "ym2612"
    },
    {
      "channel": 1,
      "note": 85,
      "start": 6.6525,
      "duration": 0.0095,
      "velocity": 101,
      "chip": "ym2612"
    },
    {
      "channel": 2,
      "note": 54,
      "start": 6.6533,
      "duration": 0.0089,
      "velocity": 92,
      "chip": "ym2612"
    },
    {
      "channel": 3,
      "note": 85,
      "start": 6.6586,
      "duration": 0.0099,
      "velocity": 101,
      "chip": "ym2612"
    },
    {
      "channel": 0,
      "note": 52,
      "start": 6.6667,
      "duration": 0.025,
      "velocity": 95,
      "chip": "ym2612"
    },
    {
      "channel": 1,
      "note": 88,
      "start": 6.6675,
      "duration": 0.011,
      "velocity": 101,
      "chip": "ym2612"
    },
    {
      "channel": 2,
      "note": 59,
      "start": 6.6683,
      "duration": 0.0104,
      "velocity": 92,
      "chip": "ym2612"
    },
    {
      "channel": 3,
      "note": 85,
      "start": 6.6749,
      "duration": 0.0088,
      "velocity": 101,
      "chip": "ym2612"
    },
    {
      "channel": 1,
      "note": 88,
      "start": 6.6829,
      "duration": 0.0263,
      "velocity": 101,
      "chip": "ym2612"
    },
    {
      "channel": 2,
      "note": 61,
      "start": 6.6835,
      "duration": 0.0086,
      "velocity": 92,
      "chip": "ym2612"
    },
    {
      "channel": 3,
      "note": 88,
      "start": 6.6888,
      "duration": 0.0085,
      "velocity": 101,
      "chip": "ym2612"
    },
    {
      "channel": 0,
      "note": 52,
      "start": 6.6962,
      "duration": 0.027,
      "velocity": 95,
      "chip": "ym2612"
    },
    {
      "channel": 2,
      "note": 61,
      "start": 6.6972,
      "duration": 0.0122,
      "velocity": 92,
      "chip": "ym2612"
    },
    {
      "channel": 3,
      "note": 88,
      "start": 6.7039,
      "duration": 0.0272,
      "velocity": 101,
      "chip": "ym2612"
    },
    {
      "channel": 2,
      "note": 54,
      "start": 6.7138,
      "duration": 0.01,
      "velocity": 92,
      "chip": "ym2612"
    },
    {
      "channel": 0,
      "note": 64,
      "start": 6.7294,
      "duration": 0.0097,
      "velocity": 95,
      "chip": "ym2612"
    },
    {
      "channel": 1,
      "note": 85,
      "start": 6.7303,
      "duration": 0.009,
      "velocity": 101,
      "chip": "ym2612"
    },
    {
      "channel": 2,
      "note": 64,
      "start": 6.7309,
      "duration": 0.0087,
      "velocity": 92,
      "chip": "ym2612"
    },
    {
      "channel": 0,
      "note": 61,
      "start": 6.7432,
      "duration": 0.0675,
      "velocity": 95,
      "chip": "ym2612"
    },
    {
      "channel": 1,
      "note": 85,
      "start": 6.7441,
      "duration": 0.0379,
      "velocity": 101,
      "chip": "ym2612"
    },
    {
      "channel": 2,
      "note": 64,
      "start": 6.7449,
      "duration": 0.009,
      "velocity": 92,
      "chip": "ym2612"
    },
    {
      "channel": 3,
      "note": 85,
      "start": 6.7505,
      "duration": 0.0079,
      "velocity": 101,
      "chip": "ym2612"
    },
    {
      "channel": 2,
      "note": 64,
      "start": 6.7583,
      "duration": 0.0085,
      "velocity": 92,
      "chip": "ym2612"
    },
    {
      "channel": 3,
      "note": 85,
      "start": 6.763,
      "duration": 0.029,
      "velocity": 101,
      "chip": "ym2612"
    },
    {
      "channel": 2,
      "note": 66,
      "start": 6.7721,
      "duration": 0.0103,
      "velocity": 92,
      "chip": "ym2612"
    },
    {
      "channel": 2,
      "note": 66,
      "start": 6.7872,
      "duration": 0.0086,
      "velocity": 92,
      "chip": "ym2612"
    },
    {
      "channel": 2,
      "note": 66,
      "start": 6.8011,
      "duration": 0.0103,
      "velocity": 92,
      "chip": "ym2612"
    },
    {
      "channel": 0,
      "note": 49,
      "start": 6.817,
      "duration": 0.0309,
      "velocity": 95,
      "chip": "ym2612"
    },
    {
      "channel": 1,
      "note": 83,
      "start": 6.8191,
      "duration": 0.0151,
      "velocity": 99,
      "chip": "ym2612"
    },
    {
      "channel": 2,
      "note": 59,
      "start": 6.8204,
      "duration": 0.0141,
      "velocity": 92,
      "chip": "ym2612"
    },
    {
      "channel": 4,
      "note": 81,
      "start": 6.8248,
      "duration": 0.0999,
      "velocity": 127,
      "chip": "ym2612"
    },
    {
      "channel": 1,
      "note": 83,
      "start": 6.8389,
      "duration": 0.0092,
      "velocity": 99,
      "chip": "ym2612"
    },
    {
      "channel": 2,
      "note": 59,
      "start": 6.8395,
      "duration": 0.0088,
      "velocity": 92,
      "chip": "ym2612"
    },
    {
      "channel": 3,
      "note": 83,
      "start": 6.8444,
      "duration": 0.0094,
      "velocity": 99,
      "chip": "ym2612"
    },
    {
      "channel": 0,
      "note": 59,
      "start": 6.8524,
      "duration": 0.0095,
      "velocity": 95,
      "chip": "ym2612"
    },
    {
      "channel": 1,
      "note": 83,
      "start": 6.8531,
      "duration": 0.0092,
      "velocity": 99,
      "chip": "ym2612"
    },
    {
      "channel": 2,
      "note": 59,
      "start": 6.8536,
      "duration": 0.0088,
      "velocity": 92,
      "chip": "ym2612"
    },
    {
      "channel": 3,
      "note": 83,
      "start": 6.858,
      "duration": 0.0103,
      "velocity": 99,
      "chip": "ym2612"
    },
    {
      "channel": 0,
      "note": 61,
      "start": 6.8665,
      "duration": 0.0574,
      "velocity": 95,
      "chip": "ym2612"
    },
    {
      "channel": 1,
      "note": 83,
      "start": 6.8673,
      "duration": 0.0567,
      "velocity": 99,
      "chip": "ym2612"
    },
    {
      "channel": 2,
      "note": 59,
      "start": 6.8682,
      "duration": 0.056,
      "velocity": 92,
      "chip": "ym2612"
    },
    {
      "channel": 3,
      "note": 83,
      "start": 6.8914,
      "duration": 0.068,
      "velocity": 99,
      "chip": "ym2612"
    },
    {
      "channel": 1,
      "note": 83,
      "start": 6.9585,
      "duration": 0.0105,
      "velocity": 99,
      "chip": "ym2612"
    },
    {
      "channel": 2,
      "note": 59,
      "start": 6.9593,
      "duration": 0.0099,
      "velocity": 92,
      "chip": "ym2612"
    },
    {
      "channel": 4,
      "note": 81,
      "start": 6.9604,
      "duration": 0.065,
      "velocity": 127,
      "chip": "ym2612"
    },
    {
      "channel": 3,
      "note": 83,
      "start": 6.965,
      "duration": 0.0102,
      "velocity": 99,
      "chip": "ym2612"
    },
    {
      "channel": 0,
      "note": 54,
      "start": 6.9733,
      "duration": 0.0256,
      "velocity": 95,
      "chip": "ym2612"
    },
    {
      "channel": 1,
      "note": 83,
      "start": 6.9742,
      "duration": 0.0096,
      "velocity": 99,
      "chip": "ym2612"
    },
    {
      "channel": 2,
      "note": 59,
      "start": 6.975,
      "duration": 0.009,
      "velocity": 92,
      "chip": "ym2612"
    },
    {
      "channel": 3,
      "note": 83,
      "start": 6.9797,
      "duration": 0.0109,
      "velocity": 99,
      "chip": "ym2612"
    },
    {
      "channel": 1,
      "note": 73,
      "start": 6.9892,
      "duration": 0.0098,
      "velocity": 99,
      "chip": "ym2612"
    },
    {
      "channel": 2,
      "note": 49,
      "start": 6.99,
      "duration": 0.0092,
      "velocity": 92,
      "chip": "ym2612"
    },
    {
      "channel": 3,
      "note": 83,
      "start": 6.9949,
      "duration": 0.0111,
      "velocity": 99,
      "chip": "ym2612"
    },
    {
      "channel": 0,
      "note": 56,
      "start": 7.0037,
      "duration": 0.0204,
      "velocity": 95,
      "chip": "ym2612"
    },
    {
      "channel": 1,
      "note": 73,
      "start": 7.005,
      "duration": 0.0194,
      "velocity": 99,
      "chip": "ym2612"
    },
    {
      "channel": 2,
      "note": 49,
      "start": 7.0058,
      "duration": 0.0191,
      "velocity": 92,
      "chip": "ym2612"
    },
    {
      "channel": 3,
      "note": 73,
      "start": 7.0109,
      "duration": 0.0495,
      "velocity": 99,
      "chip": "ym2612"
    },
    {
      "channel": 0,
      "note": 59,
      "start": 7.0585,
      "duration": 0.0512,
      "velocity": 95,
      "chip": "ym2612"
    },
    {
      "channel": 1,
      "note": 83,
      "start": 7.0594,
      "duration": 0.012,
      "velocity": 99,
      "chip": "ym2612"
    },
    {
      "channel": 2,
      "note": 59,
      "start": 7.0602,
      "duration": 0.0114,
      "velocity": 92,
      "chip": "ym2612"
    },
    {
      "channel": 4,
      "note": 81,
      "start": 7.061,
      "duration": 0.2507,
      "velocity": 127,
      "chip": "ym2612"
    },
    {
      "channel": 3,
      "note": 73,
      "start": 7.0677,
      "duration": 0.0092,
      "velocity": 99,
      "chip": "ym2612"
    },
    {
      "channel": 1,
      "note": 83,
      "start": 7.0759,
      "duration": 0.0341,
      "velocity": 99,
      "chip": "ym2612"
    },
    {
      "channel": 2,
      "note": 59,
      "start": 7.0767,
      "duration": 0.0334,
      "velocity": 92,
      "chip": "ym2612"
    },
    {
      "channel": 3,
      "note": 83,
      "start": 7.0815,
      "duration": 0.0642,
      "velocity": 99,
      "chip": "ym2612"
    },
    {
      "channel": 0,
      "note": 54,
      "start": 7.1438,
      "duration": 0.0666,
      "velocity": 95,
      "chip": "ym2612"
    },
    {
      "channel": 1,
      "note": 73,
      "start": 7.1446,
      "duration": 0.0659,
      "velocity": 99,
      "chip": "ym2612"
    },
    {
      "channel": 2,
      "note": 49,
      "start": 7.1455,
      "duration": 0.0653,
      "velocity": 92,
      "chip": "ym2612"
    },
    {
      "channel": 3,
      "note": 83,
      "start": 7.1783,
      "duration": 0.0674,
      "velocity": 99,
      "chip": "ym2612"
    },
    {
      "channel": 0,
      "note": 56,
      "start": 7.2443,
      "duration": 0.1109,
      "velocity": 95,
      "chip": "ym2612"
    },
    {
      "channel": 1,
      "note": 85,
      "start": 7.2449,
      "duration": 0.0661,
      "velocity": 99,
      "chip": "ym2612"
    },
    {
      "channel": 2,
      "note": 61,
      "start": 7.2455,
      "duration": 0.0658,
      "velocity": 92,
      "chip": "ym2612"
    },
    {
      "channel": 3,
      "note": 73,
      "start": 7.2788,
      "duration": 0.0675,
      "velocity": 99,
      "chip": "ym2612"
    },
    {
      "channel": 1,
      "note": 85,
      "start": 7.3453,
      "duration": 0.0101,
      "velocity": 99,
      "chip": "ym2612"
    },
    {
      "channel": 2,
      "note": 61,
      "start": 7.3461,
      "duration": 0.0095,
      "velocity": 92,
      "chip": "ym2612"
    },
    {
      "channel": 4,
      "note": 81,
      "start": 7.3469,
      "duration": 0.0241,
      "velocity": 127,
      "chip": "ym2612"
    },
    {
      "channel": 3,
      "note": 85,
      "start": 7.3516,
      "duration": 0.0105,
      "velocity": 99,
      "chip": "ym2612"
    },
    {
      "channel": 0,
      "note": 52,
      "start": 7.3602,
      "duration": 0.0099,
      "velocity": 95,
      "chip": "ym2612"
    },
    {
      "channel": 1,
      "note": 83,
      "start": 7.361,
      "duration": 0.0093,
      "velocity": 99,
      "chip": "ym2612"
    },
    {
      "channel": 2,
      "note": 59,
      "start": 7.3619,
      "duration": 0.0087,
      "velocity": 92,
      "chip": "ym2612"
    },
    {
      "channel": 3,
      "note": 85,
      "start": 7.3666,
      "duration": 0.009,
      "velocity": 99,
      "chip": "ym2612"
    },
    {
      "channel": 0,
      "note": 54,
      "start": 7.3744,
      "duration": 0.1512,
      "velocity": 95,
      "chip": "ym2612"
    },
    {
      "channel": 1,
      "note": 85,
      "start": 7.3749,
      "duration": 0.0502,
      "velocity": 99,
      "chip": "ym2612"
    },
    {
      "channel": 2,
      "note": 61,
      "start": 7.3755,
      "duration": 0.0498,
      "velocity": 92,
      "chip": "ym2612"
    },
    {
      "channel": 4,
      "note": 81,
      "start": 7.3775,
      "duration": 0.149,
      "velocity": 119,
      "chip": "ym2612"
    },
    {
      "channel": 3,
      "note": 83,
      "start": 7.3928,
      "duration": 0.0677,
      "velocity": 99,
      "chip": "ym2612"
    },
    {
      "channel": 1,
      "note": 85,
      "start": 7.4594,
      "duration": 0.0663,
      "velocity": 99,
      "chip": "ym2612"
    },
    {
      "channel": 2,
      "note": 61,
      "start": 7.4603,
      "duration": 0.0657,
      "velocity": 92,
      "chip": "ym2612"
    },
    {
      "channel": 3,
      "note": 85,
      "start": 7.4932,
      "duration": 0.0682,
      "velocity": 99,
      "chip": "ym2612"
    },
    {
      "channel": 0,
      "note": 49,
      "start": 7.5595,
      "duration": 0.1095,
      "velocity": 95,
      "chip": "ym2612"
    },
    {
      "channel": 1,
      "note": 83,
      "start": 7.5604,
      "duration": 0.066,
      "velocity": 99,
      "chip": "ym2612"
    },
    {
      "channel": 2,
      "note": 59,
      "start": 7.5612,
      "duration": 0.0654,
      "velocity": 92,
      "chip": "ym2612"
    },
    {
      "channel": 4,
      "note": 81,
      "start": 7.5631,
      "duration": 0.2503,
      "velocity": 127,
      "chip": "ym2612"
    },
    {
      "channel": 3,
      "note": 85,
      "start": 7.594,
      "duration": 0.067,
      "velocity": 99,
      "chip": "ym2612"
    },
    {
      "channel": 1,
      "note": 83,
      "start": 7.6603,
      "duration": 0.009,
      "velocity": 99,
      "chip": "ym2612"
    },
    {
      "channel": 2,
      "note": 59,
      "start": 7.6608,
      "duration": 0.0086,
      "velocity": 92,
      "chip": "ym2612"
    },
    {
      "channel": 3,
      "note": 83,
      "start": 7.6657,
      "duration": 0.0095,
      "velocity": 99,
      "chip": "ym2612"
    },
    {
      "channel": 0,
      "note": 59,
      "start": 7.6738,
      "duration": 0.0381,
      "velocity": 95,
      "chip": "ym2612"
    },
    {
      "channel": 1,
      "note": 73,
      "start": 7.6744,
      "duration": 0.0377,
      "velocity": 99,
      "chip": "ym2612"
    },
    {
      "channel": 2,
      "note": 49,
      "start": 7.675,
      "duration": 0.0373,
      "velocity": 92,
      "chip": "ym2612"
    },
    {
      "channel": 3,
      "note": 83,
      "start": 7.6798,
      "duration": 0.0679,
      "velocity": 99,
      "chip": "ym2612"
    },
    {
      "channel": 0,
      "note": 61,
      "start": 7.7459,
      "duration": 0.1113,
      "velocity": 95,
      "chip": "ym2612"
    },
    {
      "channel": 1,
      "note": 73,
      "start": 7.7468,
      "duration": 0.066,
      "velocity": 99,
      "chip": "ym2612"
    },
    {
      "channel": 2,
      "note": 49,
      "start": 7.7476,
      "duration": 0.0653,
      "velocity": 92,
      "chip": "ym2612"
    },
    {
      "channel": 3,
      "note": 73,
      "start": 7.7802,
      "duration": 0.0678,
      "velocity": 99,
      "chip": "ym2612"
    },
    {
      "channel": 1,
      "note": 85,
      "start": 7.847,
      "duration": 0.0104,
      "velocity": 99,
      "chip": "ym2612"
    },
    {
      "channel": 2,
      "note": 61,
      "start": 7.8478,
      "duration": 0.0098,
      "velocity": 92,
      "chip": "ym2612"
    },
    {
      "channel": 4,
      "note": 81,
      "start": 7.8489,
      "duration": 0.0548,
      "velocity": 127,
      "chip": "ym2612"
    },
    {
      "channel": 3,
      "note": 73,
      "start": 7.8538,
      "duration": 0.0101,
      "velocity": 99,
      "chip": "ym2612"
    },
    {
      "channel": 0,
      "note": 52,
      "start": 7.862,
      "duration": 0.0101,
      "velocity": 95,
      "chip": "ym2612"
    },
    {
      "channel": 1,
      "note": 85,
      "start": 7.8629,
      "duration": 0.0095,
      "velocity": 99,
      "chip": "ym2612"
    },
    {
      "channel": 2,
      "note": 61,
      "start": 7.8637,
      "duration": 0.0088,
      "velocity": 92,
      "chip": "ym2612"
    },
    {
      "channel": 3,
      "note": 85,
      "start": 7.8684,
      "duration": 0.0099,
      "velocity": 99,
      "chip": "ym2612"
    },
    {
      "channel": 0,
      "note": 54,
      "start": 7.8765,
      "duration": 0.0264,
      "velocity": 95,
      "chip": "ym2612"
    },
    {
      "channel": 1,
      "note": 83,
      "start": 7.8773,
      "duration": 0.0105,
      "velocity": 99,
      "chip": "ym2612"
    },
    {
      "channel": 2,
      "note": 59,
      "start": 7.8781,
      "duration": 0.0099,
      "velocity": 92,
      "chip": "ym2612"
    },
    {
      "channel": 3,
      "note": 85,
      "start": 7.8839,
      "duration": 0.009,
      "velocity": 99,
      "chip": "ym2612"
    },
    {
      "channel": 1,
      "note": 85,
      "start": 7.8922,
      "duration": 0.0109,
      "velocity": 99,
      "chip": "ym2612"
    },
    {
      "channel": 2,
      "note": 61,
      "start": 7.8927,
      "duration": 0.0105,
      "velocity": 92,
      "chip": "ym2612"
    },
    {
      "channel": 3,
      "note": 83,
      "start": 7.8992,
      "duration": 0.0097,
      "velocity": 99,
      "chip": "ym2612"
    },
    {
      "channel": 1,
      "note": 85,
      "start": 7.908,
      "duration": 0.0092,
      "velocity": 99,
      "chip": "ym2612"
    },
    {
      "channel": 2,
      "note": 61,
      "start": 7.9088,
      "duration": 0.0086,
      "velocity": 92,
      "chip": "ym2612"
    },
    {
      "channel": 4,
      "note": 81,
      "start": 7.9096,
      "duration": 0.1209,
      "velocity": 127,
      "chip": "ym2612"
    },
    {
      "channel": 3,
      "note": 85,
      "start": 7.9133,
      "duration": 0.0141,
      "velocity": 99,
      "chip": "ym2612"
    },
    {
      "channel": 0,
      "note": 49,
      "start": 7.9228,
      "duration": 0.0132,
      "velocity": 111,
      "chip": "ym2612"
    },
    {
      "channel": 1,
      "note": 73,
      "start": 7.9252,
      "duration": 0.011,
      "velocity": 87,
      "chip": "ym2612"
    },
    {
      "channel": 2,
      "note": 49,
      "start": 7.9272,
      "duration": 0.0091,
      "velocity": 108,
      "chip": "ym2612"
    },
    {
      "channel": 3,
      "note": 85,
      "start": 7.9322,
      "duration": 0.0098,
      "velocity": 99,
      "chip": "ym2612"
    },
    {
      "channel": 0,
      "note": 52,
      "start": 7.9405,
      "duration": 0.0107,
      "velocity": 111,
      "chip": "ym2612"
    },
    {
      "channel": 1,
      "note": 76,
      "start": 7.9412,
      "duration": 0.0103,
      "velocity": 87,
      "chip": "ym2612"
    },
    {
      "channel": 2,
      "note": 52,
      "start": 7.9418,
      "duration": 0.0099,
      "velocity": 108,
      "chip": "ym2612"
    },
    {
      "channel": 3,
      "note": 73,
      "start": 7.9479,
      "duration": 0.01,
      "velocity": 87,
      "chip": "ym2612"
    },
    {
      "channel": 0,
      "note": 54,
      "start": 7.9561,
      "duration": 0.0098,
      "velocity": 111,
      "chip": "ym2612"
    },
    {
      "channel": 1,
      "note": 78,
      "start": 7.9566,
      "duration": 0.0094,
      "velocity": 87,
      "chip": "ym2612"
    },
    {
      "channel": 2,
      "note": 54,
      "start": 7.9577,
      "duration": 0.0086,
      "velocity": 108,
      "chip": "ym2612"
    },
    {
      "channel": 3,
      "note": 76,
      "start": 7.9623,
      "duration": 0.0101,
      "velocity": 87,
      "chip": "ym2612"
    },
    {
      "channel": 0,
      "note": 56,
      "start": 7.9706,
      "duration": 0.0102,
      "velocity": 111,
      "chip": "ym2612"
    },
    {
      "channel": 1,
      "note": 80,
      "start": 7.9715,
      "duration": 0.0095,
      "velocity": 87,
      "chip": "ym2612"
    },
    {
      "channel": 2,
      "note": 56,
      "start": 7.9722,
      "duration": 0.0091,
      "velocity": 108,
      "chip": "ym2612"
    },
    {
      "channel": 3,
      "note": 78,
      "start": 7.9772,
      "duration": 0.01,
      "velocity": 87,
      "chip": "ym2612"
    },
    {
      "channel": 0,
      "note": 59,
      "start": 7.9857,
      "duration": 0.012,
      "velocity": 111,
      "chip": "ym2612"
    },
    {
      "channel": 1,
      "note": 83,
      "start": 7.9864,
      "duration": 0.0115,
      "velocity": 87,
      "chip": "ym2612"
    },
    {
      "channel": 2,
      "note": 59,
      "start": 7.9871,
      "duration": 0.0111,
      "velocity": 108,
      "chip": "ym2612"
    },
    {
      "channel": 3,
      "note": 80,
      "start": 7.9944,
      "duration": 0.0107,
      "velocity": 87,
      "chip": "ym2612"
    },
    {
      "channel": 0,
      "note": 64,
      "start": 8.0037,
      "duration": 0.0117,
      "velocity": 111,
      "chip": "ym2612"
    },
    {
      "channel": 1,
      "note": 88,
      "start": 8.0043,
      "duration": 0.0113,
      "velocity": 87,
      "chip": "ym2612"
    },
    {
      "channel": 2,
      "note": 64,
      "start": 8.0049,
      "duration": 0.0109,
      "velocity": 108,
      "chip": "ym2612"
    },
    {
      "channel": 3,
      "note": 83,
      "start": 8.0099,
      "duration": 0.0115,
      "velocity": 87,
      "chip": "ym2612"
    },
    {
      "channel": 0,
      "note": 61,
      "start": 8.0199,
      "duration": 0.0099,
      "velocity": 111,
      "chip": "ym2612"
    },
    {
      "channel": 1,
      "note": 85,
      "start": 8.0205,
      "duration": 0.0094,
      "velocity": 87,
      "chip": "ym2612"
    },
    {
      "channel": 2,
      "note": 61,
      "start": 8.0212,
      "duration": 0.0089,
      "velocity": 108,
      "chip": "ym2612"
    },
    {
      "channel": 3,
      "note": 88,
      "start": 8.0263,
      "duration": 0.0041,
      "velocity": 87,
      "chip": "ym2612"
    },
    {
      "channel": 0,
      "note": 57,
      "start": 8.0352,
      "duration": 0.0275,
      "velocity": 111,
      "chip": "ym2612"
    },
    {
      "channel": 1,
      "note": 88,
      "start": 8.0373,
      "duration": 0.0221,
      "velocity": 99,
      "chip": "ym2612"
    },
    {
      "channel": 2,
      "note": 57,
      "start": 8.0385,
      "duration": 0.0131,
      "velocity": 108,
      "chip": "ym2612"
    },
    {
      "channel": 4,
      "note": 81,
      "start": 8.0416,
      "duration": 0.0103,
      "velocity": 127,
      "chip": "ym2612"
    },
    {
      "channel": 2,
      "note": 57,
      "start": 8.0554,
      "duration": 0.0076,
      "velocity": 108,
      "chip": "ym2612"
    },
    {
      "channel": 3,
      "note": 88,
      "start": 8.0639,
      "duration": 0.0142,
      "velocity": 99,
      "chip": "ym2612"
    },
    {
      "channel": 0,
      "note": 68,
      "start": 8.0678,
      "duration": 0.0098,
      "velocity": 111,
      "chip": "ym2612"
    },
    {
      "channel": 1,
      "note": 85,
      "start": 8.0684,
      "duration": 0.0407,
      "velocity": 99,
      "chip": "ym2612"
    },
    {
      "channel": 2,
      "note": 57,
      "start": 8.069,
      "duration": 0.0402,
      "velocity": 108,
      "chip": "ym2612"
    },
    {
      "channel": 4,
      "note": 81,
      "start": 8.0701,
      "duration": 0.0083,
      "velocity": 127,
      "chip": "ym2612"
    },
    {
      "channel": 0,
      "note": 69,
      "start": 8.0817,
      "duration": 0.0607,
      "velocity": 111,
      "chip": "ym2612"
    },
    {
      "channel": 3,
      "note": 85,
      "start": 8.1436,
      "duration": 0.0427,
      "velocity": 99,
      "chip": "ym2612"
    },
    {
      "channel": 1,
      "note": 88,
      "start": 8.1768,
      "duration": 0.0092,
      "velocity": 99,
      "chip": "ym2612"
    },
    {
      "channel": 2,
      "note": 57,
      "start": 8.1773,
      "duration": 0.0257,
      "velocity": 108,
      "chip": "ym2612"
    },
    {
      "channel": 4,
      "note": 81,
      "start": 8.1784,
      "duration": 0.0081,
      "velocity": 127,
      "chip": "ym2612"
    },
    {
      "channel": 0,
      "note": 57,
      "start": 8.1902,
      "duration": 0.039,
      "velocity": 111,
      "chip": "ym2612"
    },
    {
      "channel": 1,
      "note": 90,
      "start": 8.1908,
      "duration": 0.0165,
      "velocity": 99,
      "chip": "ym2612"
    },
    {
      "channel": 3,
      "note": 88,
      "start": 8.2,
      "duration": 0.0077,
      "velocity": 99,
      "chip": "ym2612"
    },
    {
      "channel": 4,
      "note": 81,
      "start": 8.2041,
      "duration": 0.0084,
      "velocity": 127,
      "chip": "ym2612"
    },
    {
      "channel": 3,
      "note": 90,
      "start": 8.2124,
      "duration": 0.0174,
      "velocity": 99,
      "chip": "ym2612"
    },
    {
      "channel": 1,
      "note": 92,
      "start": 8.217,
      "duration": 0.0297,
      "velocity": 99,
      "chip": "ym2612"
    },
    {
      "channel": 2,
      "note": 56,
      "start": 8.2175,
      "duration": 0.0207,
      "velocity": 108,
      "chip": "ym2612"
    },
    {
      "channel": 0,
      "note": 56,
      "start": 8.2333,
      "duration": 0.0207,
      "velocity": 111,
      "chip": "ym2612"
    },
    {
      "channel": 4,
      "note": 81,
      "start": 8.2347,
      "duration": 0.0085,
      "velocity": 127,
      "chip": "ym2612"
    },
    {
      "channel": 3,
      "note": 92,
      "start": 8.2431,
      "duration": 0.0993,
      "velocity": 99,
      "chip": "ym2612"
    },
    {
      "channel": 2,
      "note": 56,
      "start": 8.2473,
      "duration": 0.0074,
      "velocity": 108,
      "chip": "ym2612"
    },
    {
      "channel": 0,
      "note": 56,
      "start": 8.2752,
      "duration": 0.1672,
      "velocity": 111,
      "chip": "ym2612"
    },
    {
      "channel": 1,
      "note": 90,
      "start": 8.2758,
      "duration": 0.1333,
      "velocity": 99,
      "chip": "ym2612"
    },
    {
      "channel": 2,
      "note": 56,
      "start": 8.2764,
      "duration": 0.1329,
      "velocity": 108,
      "chip": "ym2612"
    },
    {
      "channel": 4,
      "note": 81,
      "start": 8.2775,
      "duration": 0.0651,
      "velocity": 127,
      "chip": "ym2612"
    },
    {
      "channel": 3,
      "note": 90,
      "start": 8.4437,
      "duration": 0.0478,
      "velocity": 99,
      "chip": "ym2612"
    },
    {
      "channel": 0,
      "note": 68,
      "start": 8.4764,
      "duration": 0.0099,
      "velocity": 111,
      "chip": "ym2612"
    },
    {
      "channel": 1,
      "note": 88,
      "start": 8.4771,
      "duration": 0.0095,
      "velocity": 99,
      "chip": "ym2612"
    },
    {
      "channel": 2,
      "note": 56,
      "start": 8.4776,
      "duration": 0.0791,
      "velocity": 108,
      "chip": "ym2612"
    },
    {
      "channel": 4,
      "note": 81,
      "start": 8.4787,
      "duration": 0.0084,
      "velocity": 127,
      "chip": "ym2612"
    },
    {
      "channel": 0,
      "note": 56,
      "start": 8.4904,
      "duration": 0.1665,
      "velocity": 111,
      "chip": "ym2612"
    },
    {
      "channel": 1,
      "note": 85,
      "start": 8.491,
      "duration": 0.0654,
      "velocity": 99,
      "chip": "ym2612"
    },
    {
      "channel": 3,
      "note": 88,
      "start": 8.499,
      "duration": 0.0243,
      "velocity": 99,
      "chip": "ym2612"
    },
    {
      "channel": 4,
      "note": 81,
      "start": 8.5034,
      "duration": 0.0546,
      "velocity": 127,
      "chip": "ym2612"
    },
    {
      "channel": 3,
      "note": 85,
      "start": 8.5575,
      "duration": 0.1673,
      "velocity": 99,
      "chip": "ym2612"
    },
    {
      "channel": 1,
      "note": 83,
      "start": 8.5905,
      "duration": 0.0666,
      "velocity": 99,
      "chip": "ym2612"
    },
    {
      "channel": 0,
      "note": 61,
      "start": 8.6908,
      "duration": 0.1097,
      "velocity": 111,
      "chip": "ym2612"
    },
    {
      "channel": 1,
      "note": 85,
      "start": 8.6917,
      "duration": 0.1089,
      "velocity": 99,
      "chip": "ym2612"
    },
    {
      "channel": 2,
      "note": 61,
      "start": 8.6923,
      "duration": 0.0658,
      "velocity": 108,
      "chip": "ym2612"
    },
    {
      "channel": 4,
      "note": 81,
      "start": 8.6934,
      "duration": 0.0656,
      "velocity": 127,
      "chip": "ym2612"
    },
    {
      "channel": 3,
      "note": 83,
      "start": 8.7589,
      "duration": 0.0382,
      "velocity": 99,
      "chip": "ym2612"
    },
    {
      "channel": 2,
      "note": 61,
      "start": 8.792,
      "duration": 0.0088,
      "velocity": 108,
      "chip": "ym2612"
    },
    {
      "channel": 3,
      "note": 85,
      "start": 8.8016,
      "duration": 0.1105,
      "velocity": 99,
      "chip": "ym2612"
    },
    {
      "channel": 0,
      "note": 73,
      "start": 8.8054,
      "duration": 0.0392,
      "velocity": 111,
      "chip": "ym2612"
    },
    {
      "channel": 1,
      "note": 85,
      "start": 8.806,
      "duration": 0.1393,
      "velocity": 99,
      "chip": "ym2612"
    },
    {
      "channel": 2,
      "note": 61,
      "start": 8.8065,
      "duration": 0.1054,
      "velocity": 108,
      "chip": "ym2612"
    },
    {
      "channel": 4,
      "note": 81,
      "start": 8.8076,
      "duration": 0.0377,
      "velocity": 127,
      "chip": "ym2612"
    },
    {
      "channel": 0,
      "note": 61,
      "start": 8.8784,
      "duration": 0.0666,
      "velocity": 111,
      "chip": "ym2612"
    },
    {
      "channel": 3,
      "note": 85,
      "start": 8.9463,
      "duration": 0.0511,
      "velocity": 99,
      "chip": "ym2612"
    },
    {
      "channel": 1,
      "note": 85,
      "start": 8.9794,
      "duration": 0.0088,
      "velocity": 99,
      "chip": "ym2612"
    },
    {
      "channel": 2,
      "note": 61,
      "start": 8.9799,
      "duration": 0.0264,
      "velocity": 108,
      "chip": "ym2612"
    },
    {
      "channel": 4,
      "note": 81,
      "start": 8.981,
      "duration": 0.0078,
      "velocity": 127,
      "chip": "ym2612"
    },
    {
      "channel": 0,
      "note": 61,
      "start": 8.992,
      "duration": 0.0682,
      "velocity": 111,
      "chip": "ym2612"
    },
    {
      "channel": 1,
      "note": 83,
      "start": 8.9926,
      "duration": 0.0084,
      "velocity": 99,
      "chip": "ym2612"
    },
    {
      "channel": 3,
      "note": 85,
      "start": 9.0021,
      "duration": 0.0251,
      "velocity": 99,
      "chip": "ym2612"
    },
    {
      "channel": 1,
      "note": 85,
      "start": 9.0061,
      "duration": 0.0543,
      "velocity": 99,
      "chip": "ym2612"
    },
    {
      "channel": 4,
      "note": 81,
      "start": 9.0074,
      "duration": 0.0541,
      "velocity": 127,
      "chip": "ym2612"
    },
    {
      "channel": 3,
      "note": 83,
      "start": 9.0614,
      "duration": 0.04,
      "velocity": 99,
      "chip": "ym2612"
    },
    {
      "channel": 0,
      "note": 54,
      "start": 9.0941,
      "duration": 0.0214,
      "velocity": 111,
      "chip": "ym2612"
    },
    {
      "channel": 1,
      "note": 88,
      "start": 9.0948,
      "duration": 0.0297,
      "velocity": 99,
      "chip": "ym2612"
    },
    {
      "channel": 2,
      "note": 54,
      "start": 9.0953,
      "duration": 0.0166,
      "velocity": 108,
      "chip": "ym2612"
    },
    {
      "channel": 3,
      "note": 85,
      "start": 9.1051,
      "duration": 0.0071,
      "velocity": 99,
      "chip": "ym2612"
    },
    {
      "channel": 4,
      "note": 81,
      "start": 9.1092,
      "duration": 0.0077,
      "velocity": 127,
      "chip": "ym2612"
    },
    {
      "channel": 3,
      "note": 88,
      "start": 9.1166,
      "duration": 0.1179,
      "velocity": 99,
      "chip": "ym2612"
    },
    {
      "channel": 0,
      "note": 54,
      "start": 9.1196,
      "duration": 0.0088,
      "velocity": 111,
      "chip": "ym2612"
    },
    {
      "channel": 2,
      "note": 54,
      "start": 9.1204,
      "duration": 0.0087,
      "velocity": 108,
      "chip": "ym2612"
    },
    {
      "channel": 0,
      "note": 54,
      "start": 9.1338,
      "duration": 0.2119,
      "velocity": 111,
      "chip": "ym2612"
    },
    {
      "channel": 1,
      "note": 85,
      "start": 9.1344,
      "duration": 0.2661,
      "velocity": 99,
      "chip": "ym2612"
    },
    {
      "channel": 2,
      "note": 54,
      "start": 9.135,
      "duration": 0.1329,
      "velocity": 108,
      "chip": "ym2612"
    },
    {
      "channel": 4,
      "note": 81,
      "start": 9.1361,
      "duration": 0.0652,
      "velocity": 127,
      "chip": "ym2612"
    },
    {
      "channel": 3,
      "note": 85,
      "start": 9.3021,
      "duration": 0.1841,
      "velocity": 99,
      "chip": "ym2612"
    },
    {
      "channel": 2,
      "note": 54,
      "start": 9.3353,
      "duration": 0.0324,
      "velocity": 108,
      "chip": "ym2612"
    },
    {
      "channel": 4,
      "note": 81,
      "start": 9.3365,
      "duration": 0.0102,
      "velocity": 127,
      "chip": "ym2612"
    },
    {
      "channel": 0,
      "note": 54,
      "start": 9.3509,
      "duration": 0.0091,
      "velocity": 111,
      "chip": "ym2612"
    },
    {
      "channel": 0,
      "note": 56,
      "start": 9.3672,
      "duration": 0.0667,
      "velocity": 111,
      "chip": "ym2612"
    },
    {
      "channel": 4,
      "note": 81,
      "start": 9.3689,
      "duration": 0.0662,
      "velocity": 127,
      "chip": "ym2612"
    },
    {
      "channel": 0,
      "note": 57,
      "start": 9.4678,
      "duration": 0.0278,
      "velocity": 111,
      "chip": "ym2612"
    },
    {
      "channel": 2,
      "note": 57,
      "start": 9.4688,
      "duration": 0.0231,
      "velocity": 108,
      "chip": "ym2612"
    },
    {
      "channel": 1,
      "note": 88,
      "start": 9.4858,
      "duration": 0.0241,
      "velocity": 99,
      "chip": "ym2612"
    },
    {
      "channel": 4,
      "note": 81,
      "start": 9.4874,
      "duration": 0.0093,
      "velocity": 127,
      "chip": "ym2612"
    },
    {
      "channel": 0,
      "note": 57,
      "start": 9.5006,
      "duration": 0.0092,
      "velocity": 111,
      "chip": "ym2612"
    },
    {
      "channel": 2,
      "note": 57,
      "start": 9.5013,
      "duration": 0.0088,
      "velocity": 108,
      "chip": "ym2612"
    },
    {
      "channel": 3,
      "note": 88,
      "start": 9.5109,
      "duration": 0.1326,
      "velocity": 99,
      "chip": "ym2612"
    },
    {
      "channel": 0,
      "note": 69,
      "start": 9.5143,
      "duration": 0.0615,
      "velocity": 111,
      "chip": "ym2612"
    },
    {
      "channel": 1,
      "note": 85,
      "start": 9.5149,
      "duration": 0.1617,
      "velocity": 99,
      "chip": "ym2612"
    },
    {
      "channel": 2,
      "note": 57,
      "start": 9.5154,
      "duration": 0.1278,
      "velocity": 108,
      "chip": "ym2612"
    },
    {
      "channel": 4,
      "note": 81,
      "start": 9.5169,
      "duration": 0.0597,
      "velocity": 127,
      "chip": "ym2612"
    },
    {
      "channel": 0,
      "note": 57,
      "start": 9.6098,
      "duration": 0.1098,
      "velocity": 111,
      "chip": "ym2612"
    },
    {
      "channel": 3,
      "note": 85,
      "start": 9.6776,
      "duration": 0.0524,
      "velocity": 99,
      "chip": "ym2612"
    },
    {
      "channel": 1,
      "note": 88,
      "start": 9.7106,
      "duration": 0.0093,
      "velocity": 99,
      "chip": "ym2612"
    },
    {
      "channel": 2,
      "note": 57,
      "start": 9.7112,
      "duration": 0.0371,
      "velocity": 108,
      "chip": "ym2612"
    },
    {
      "channel": 4,
      "note": 81,
      "start": 9.7126,
      "duration": 0.0079,
      "velocity": 127,
      "chip": "ym2612"
    },
    {
      "channel": 0,
      "note": 57,
      "start": 9.7243,
      "duration": 0.0235,
      "velocity": 111,
      "chip": "ym2612"
    },
    {
      "channel": 1,
      "note": 90,
      "start": 9.7253,
      "duration": 0.0228,
      "velocity": 99,
      "chip": "ym2612"
    },
    {
      "channel": 3,
      "note": 88,
      "start": 9.7344,
      "duration": 0.0099,
      "velocity": 99,
      "chip": "ym2612"
    },
    {
      "channel": 4,
      "note": 81,
      "start": 9.7402,
      "duration": 0.009,
      "velocity": 127,
      "chip": "ym2612"
    },
    {
      "channel": 3,
      "note": 90,
      "start": 9.7491,
      "duration": 0.0258,
      "velocity": 99,
      "chip": "ym2612"
    },
    {
      "channel": 0,
      "note": 56,
      "start": 9.7533,
      "duration": 0.038,
      "velocity": 111,
      "chip": "ym2612"
    },
    {
      "channel": 1,
      "note": 92,
      "start": 9.7539,
      "duration": 0.0335,
      "velocity": 99,
      "chip": "ym2612"
    },
    {
      "channel": 2,
      "note": 59,
      "start": 9.7701,
      "duration": 0.0081,
      "velocity": 108,
      "chip": "ym2612"
    },
    {
      "channel": 4,
      "note": 81,
      "start": 9.7712,
      "duration": 0.008,
      "velocity": 127,
      "chip": "ym2612"
    },
    {
      "channel": 3,
      "note": 92,
      "start": 9.779,
      "duration": 0.1331,
      "velocity": 99,
      "chip": "ym2612"
    },
    {
      "channel": 2,
      "note": 56,
      "start": 9.7833,
      "duration": 0.0086,
      "velocity": 108,
      "chip": "ym2612"
    },
    {
      "channel": 0,
      "note": 56,
      "start": 9.8114,
      "duration": 0.1673,
      "velocity": 111,
      "chip": "ym2612"
    },
    {
      "channel": 1,
      "note": 90,
      "start": 9.812,
      "duration": 0.1668,
      "velocity": 99,
      "chip": "ym2612"
    },
    {
      "channel": 2,
      "note": 56,
      "start": 9.8126,
      "duration": 0.1329,
      "velocity": 108,
      "chip": "ym2612"
    },
    {
      "channel": 4,
      "note": 81,
      "start": 9.8136,
      "duration": 0.0651,
      "velocity": 127,
      "chip": "ym2612"
    },
    {
      "channel": 3,
      "note": 90,
      "start": 9.9798,
      "duration": 0.0525,
      "velocity": 99,
      "chip": "ym2612"
    },
    {
      "channel": 0,
      "note": 56,
      "start": 10.0126,
      "duration": 0.0231,
      "velocity": 111,
      "chip": "ym2612"
    },
    {
      "channel": 1,
      "note": 92,
      "start": 10.0132,
      "duration": 0.0097,
      "velocity": 99,
      "chip": "ym2612"
    },
    {
      "channel": 2,
      "note": 56,
      "start": 10.0137,
      "duration": 0.028,
      "velocity": 108,
      "chip": "ym2612"
    },
    {
      "channel": 4,
      "note": 81,
      "start": 10.0149,
      "duration": 0.0086,
      "velocity": 127,
      "chip": "ym2612"
    },
    {
      "channel": 1,
      "note": 95,
      "start": 10.0275,
      "duration": 0.0231,
      "velocity": 99,
      "chip": "ym2612"
    },
    {
      "channel": 3,
      "note": 92,
      "start": 10.0368,
      "duration": 0.01,
      "velocity": 99,
      "chip": "ym2612"
    },
    {
      "channel": 0,
      "note": 56,
      "start": 10.0414,
      "duration": 0.009,
      "velocity": 111,
      "chip": "ym2612"
    },
    {
      "channel": 4,
      "note": 81,
      "start": 10.0429,
      "duration": 0.0089,
      "velocity": 127,
      "chip": "ym2612"
    },
    {
      "channel": 3,
      "note": 95,
      "start": 10.0516,
      "duration": 0.0224,
      "velocity": 99,
      "chip": "ym2612"
    },
    {
      "channel": 0,
      "note": 49,
      "start": 10.0567,
      "duration": 0.1156,
      "velocity": 111,
      "chip": "ym2612"
    },
    {
      "channel": 1,
      "note": 97,
      "start": 10.0573,
      "duration": 0.0467,
      "velocity": 99,
      "chip": "ym2612"
    },
    {
      "channel": 2,
      "note": 49,
      "start": 10.0582,
      "duration": 0.023,
      "velocity": 108,
      "chip": "ym2612"
    },
    {
      "channel": 3,
      "note": 97,
      "start": 10.0779,
      "duration": 0.135,
      "velocity": 99,
      "chip": "ym2612"
    },
    {
      "channel": 0,
      "note": 54,
      "start": 10.2063,
      "duration": 0.0105,
      "velocity": 111,
      "chip": "ym2612"
    },
    {
      "channel": 1,
      "note": 90,
      "start": 10.2069,
      "duration": 0.01,
      "velocity": 99,
      "chip": "ym2612"
    },
    {
      "channel": 2,
      "note": 54,
      "start": 10.2075,
      "duration": 0.0096,
      "velocity": 108,
      "chip": "ym2612"
    },
    {
      "channel": 0,
      "note": 52,
      "start": 10.2215,
      "duration": 0.0215,
      "velocity": 111,
      "chip": "ym2612"
    },
    {
      "channel": 1,
      "note": 88,
      "start": 10.2222,
      "duration": 0.0211,
      "velocity": 99,
      "chip": "ym2612"
    },
    {
      "channel": 2,
      "note": 52,
      "start": 10.2228,
      "duration": 0.0207,
      "velocity": 108,
      "chip": "ym2612"
    },
    {
      "channel": 3,
      "note": 90,
      "start": 10.2327,
      "duration": 0.0072,
      "velocity": 99,
      "chip": "ym2612"
    },
    {
      "channel": 3,
      "note": 88,
      "start": 10.2443,
      "duration": 0.0198,
      "velocity": 99,
      "chip": "ym2612"
    },
    {
      "channel": 0,
      "note": 49,
      "start": 10.2478,
      "duration": 0.1219,
      "velocity": 111,
      "chip": "ym2612"
    },
    {
      "channel": 1,
      "note": 85,
      "start": 10.2484,
      "duration": 0.0892,
      "velocity": 99,
      "chip": "ym2612"
    },
    {
      "channel": 2,
      "note": 49,
      "start": 10.249,
      "duration": 0.094,
      "velocity": 108,
      "chip": "ym2612"
    },
    {
      "channel": 3,
      "note": 85,
      "start": 10.2688,
      "duration": 0.079,
      "velocity": 99,
      "chip": "ym2612"
    },
    {
      "channel": 0,
      "note": 59,
      "start": 10.376,
      "duration": 0.032,
      "velocity": 95,
      "chip": "ym2612"
    },
    {
      "channel": 1,
      "note": 83,
      "start": 10.3781,
      "duration": 0.0158,
      "velocity": 101,
      "chip": "ym2612"
    },
    {
      "channel": 2,
      "note": 54,
      "start": 10.3804,
      "duration": 0.0138,
      "velocity": 92,
      "chip": "ym2612"
    },
    {
      "channel": 4,
      "note": 81,
      "start": 10.3839,
      "duration": 0.0249,
      "velocity": 127,
      "chip": "ym2612"
    },
    {
      "channel": 1,
      "note": 85,
      "start": 10.3985,
      "duration": 0.0096,
      "velocity": 101,
      "chip": "ym2612"
    },
    {
      "channel": 2,
      "note": 56,
      "start": 10.399,
      "duration": 0.0093,
      "velocity": 92,
      "chip": "ym2612"
    },
    {
      "channel": 3,
      "note": 83,
      "start": 10.4046,
      "duration": 0.01,
      "velocity": 101,
      "chip": "ym2612"
    },
    {
      "channel": 0,
      "note": 49,
      "start": 10.4129,
      "duration": 0.0699,
      "velocity": 95,
      "chip": "ym2612"
    },
    {
      "channel": 1,
      "note": 85,
      "start": 10.4138,
      "duration": 0.0132,
      "velocity": 101,
      "chip": "ym2612"
    },
    {
      "channel": 2,
      "note": 49,
      "start": 10.4144,
      "duration": 0.0095,
      "velocity": 92,
      "chip": "ym2612"
    },
    {
      "channel": 4,
      "note": 81,
      "start": 10.4155,
      "duration": 0.0682,
      "velocity": 127,
      "chip": "ym2612"
    },
    {
      "channel": 3,
      "note": 85,
      "start": 10.4206,
      "duration": 0.0072,
      "velocity": 101,
      "chip": "ym2612"
    },
    {
      "channel": 2,
      "note": 49,
      "start": 10.4276,
      "duration": 0.0556,
      "velocity": 92,
      "chip": "ym2612"
    },
    {
      "channel": 3,
      "note": 85,
      "start": 10.4507,
      "duration": 16.1617,
      "velocity": 101,
      "chip": "ym2612"
    }
  ]
}