{
  "track_name": "09 - The Monkey Lair",
  "duration_sec": 82.622,
  "sample_rate": 44100,
  "note_count": 1341,
  "unique_pitches": 21,
  "pitch_range": 52,
  "avg_note_duration": 0.2101,
  "reconstruction_stats": {
    "notes_reconstructed": 1341,
    "keyon_events": 1341,
    "keyoff_events": 1339,
    "orphan_keyons": 2,
    "unique_pitches": 21,
    "pitch_range": 52,
    "avg_duration_sec": 0.2101
  },
  "metadata": {
    "source": "R\\Ren & Stimpy - Stimpy's Invention\\09 - The Monkey Lair.vgz"
  },
  "notes": [
    {
      "channel": 3,
      "note": 62,
      "start": 0.0149,
      "duration": 0.1104,
      "velocity": 79,
      "chip": "ym2612"
    },
    {
      "channel": 0,
      "note": 50,
      "start": 0.0202,
      "duration": 0.1049,
      "velocity": 107,
      "chip": "ym2612"
    },
    {
      "channel": 2,
      "note": 74,
      "start": 0.0253,
      "duration": 0.2001,
      "velocity": 117,
      "chip": "ym2612"
    },
    {
      "channel": 3,
      "note": 69,
      "start": 0.1284,
      "duration": 0.0968,
      "velocity": 79,
      "chip": "ym2612"
    },
    {
      "channel": 3,
      "note": 68,
      "start": 0.2285,
      "duration": 0.1134,
      "velocity": 79,
      "chip": "ym2612"
    },
    {
      "channel": 0,
      "note": 57,
      "start": 0.2312,
      "duration": 0.1105,
      "velocity": 107,
      "chip": "ym2612"
    },
    {
      "channel": 2,
      "note": 74,
      "start": 0.2336,
      "duration": 0.2084,
      "velocity": 117,
      "chip": "ym2612"
    },
    {
      "channel": 3,
      "note": 69,
      "start": 0.3454,
      "duration": 0.0963,
      "velocity": 79,
      "chip": "ym2612"
    },
    {
      "channel": 3,
      "note": 62,
      "start": 0.445,
      "duration": 0.0969,
      "velocity": 79,
      "chip": "ym2612"
    },
    {
      "channel": 0,
      "note": 53,
      "start": 0.4477,
      "duration": 0.094,
      "velocity": 107,
      "chip": "ym2612"
    },
    {
      "channel": 3,
      "note": 69,
      "start": 0.5451,
      "duration": 0.1134,
      "velocity": 79,
      "chip": "ym2612"
    },
    {
      "channel": 3,
      "note": 68,
      "start": 0.6617,
      "duration": 0.097,
      "velocity": 79,
      "chip": "ym2612"
    },
    {
      "channel": 0,
      "note": 57,
      "start": 0.6644,
      "duration": 0.094,
      "velocity": 107,
      "chip": "ym2612"
    },
    {
      "channel": 2,
      "note": 74,
      "start": 0.6667,
      "duration": 0.2087,
      "velocity": 117,
      "chip": "ym2612"
    },
    {
      "channel": 3,
      "note": 69,
      "start": 0.7618,
      "duration": 0.1133,
      "velocity": 79,
      "chip": "ym2612"
    },
    {
      "channel": 3,
      "note": 62,
      "start": 0.8784,
      "duration": 0.0968,
      "velocity": 79,
      "chip": "ym2612"
    },
    {
      "channel": 0,
      "note": 50,
      "start": 0.8811,
      "duration": 0.094,
      "velocity": 107,
      "chip": "ym2612"
    },
    {
      "channel": 3,
      "note": 69,
      "start": 0.9785,
      "duration": 0.1134,
      "velocity": 79,
      "chip": "ym2612"
    },
    {
      "channel": 3,
      "note": 68,
      "start": 1.095,
      "duration": 0.0969,
      "velocity": 79,
      "chip": "ym2612"
    },
    {
      "channel": 0,
      "note": 57,
      "start": 1.0981,
      "duration": 0.0937,
      "velocity": 107,
      "chip": "ym2612"
    },
    {
      "channel": 2,
      "note": 74,
      "start": 1.1004,
      "duration": 0.2083,
      "velocity": 117,
      "chip": "ym2612"
    },
    {
      "channel": 3,
      "note": 69,
      "start": 1.1951,
      "duration": 0.1134,
      "velocity": 79,
      "chip": "ym2612"
    },
    {
      "channel": 3,
      "note": 62,
      "start": 1.3117,
      "duration": 0.0968,
      "velocity": 79,
      "chip": "ym2612"
    },
    {
      "channel": 0,
      "note": 53,
      "start": 1.3144,
      "duration": 0.094,
      "velocity": 107,
      "chip": "ym2612"
    },
    {
      "channel": 3,
      "note": 69,
      "start": 1.4117,
      "duration": 0.1134,
      "velocity": 79,
      "chip": "ym2612"
    },
    {
      "channel": 3,
      "note": 68,
      "start": 1.5283,
      "duration": 0.0969,
      "velocity": 79,
      "chip": "ym2612"
    },
    {
      "channel": 0,
      "note": 57,
      "start": 1.531,
      "duration": 0.094,
      "velocity": 107,
      "chip": "ym2612"
    },
    {
      "channel": 2,
      "note": 74,
      "start": 1.5338,
      "duration": 0.1914,
      "velocity": 117,
      "chip": "ym2612"
    },
    {
      "channel": 3,
      "note": 69,
      "start": 1.6285,
      "duration": 80.9939,
      "velocity": 79,
      "chip": "ym2612"
    },
    {
      "channel": 1,
      "note": 62,
      "start": 1.7286,
      "duration": 0.1132,
      "velocity": 79,
      "chip": "ym2612"
    },
    {
      "channel": 0,
      "note": 50,
      "start": 1.7313,
      "duration": 0.1103,
      "velocity": 107,
      "chip": "ym2612"
    },
    {
      "channel": 2,
      "note": 74,
      "start": 1.7336,
      "duration": 0.2084,
      "velocity": 117,
      "chip": "ym2612"
    },
    {
      "channel": 1,
      "note": 69,
      "start": 1.8453,
      "duration": 0.0964,
      "velocity": 79,
      "chip": "ym2612"
    },
    {
      "channel": 1,
      "note": 68,
      "start": 1.945,
      "duration": 0.1135,
      "velocity": 79,
      "chip": "ym2612"
    },
    {
      "channel": 0,
      "note": 57,
      "start": 1.9476,
      "duration": 0.1106,
      "velocity": 107,
      "chip": "ym2612"
    },
    {
      "channel": 2,
      "note": 74,
      "start": 1.95,
      "duration": 0.2086,
      "velocity": 117,
      "chip": "ym2612"
    },
    {
      "channel": 1,
      "note": 69,
      "start": 2.0616,
      "duration": 0.0968,
      "velocity": 79,
      "chip": "ym2612"
    },
    {
      "channel": 1,
      "note": 62,
      "start": 2.1616,
      "duration": 0.1135,
      "velocity": 79,
      "chip": "ym2612"
    },
    {
      "channel": 0,
      "note": 53,
      "start": 2.1644,
      "duration": 0.1107,
      "velocity": 107,
      "chip": "ym2612"
    },
    {
      "channel": 1,
      "note": 69,
      "start": 2.2783,
      "duration": 0.0968,
      "velocity": 79,
      "chip": "ym2612"
    },
    {
      "channel": 1,
      "note": 68,
      "start": 2.3783,
      "duration": 0.1135,
      "velocity": 79,
      "chip": "ym2612"
    },
    {
      "channel": 0,
      "note": 57,
      "start": 2.381,
      "duration": 0.1108,
      "velocity": 107,
      "chip": "ym2612"
    },
    {
      "channel": 2,
      "note": 74,
      "start": 2.3832,
      "duration": 0.2087,
      "velocity": 117,
      "chip": "ym2612"
    },
    {
      "channel": 1,
      "note": 69,
      "start": 2.495,
      "duration": 0.0967,
      "velocity": 79,
      "chip": "ym2612"
    },
    {
      "channel": 1,
      "note": 62,
      "start": 2.595,
      "duration": 0.1136,
      "velocity": 79,
      "chip": "ym2612"
    },
    {
      "channel": 0,
      "note": 50,
      "start": 2.5977,
      "duration": 0.1107,
      "velocity": 107,
      "chip": "ym2612"
    },
    {
      "channel": 1,
      "note": 69,
      "start": 2.7117,
      "duration": 0.0967,
      "velocity": 79,
      "chip": "ym2612"
    },
    {
      "channel": 4,
      "note": 80,
      "start": 2.7289,
      "duration": 0.363,
      "velocity": 84,
      "chip": "ym2612"
    },
    {
      "channel": 1,
      "note": 68,
      "start": 2.8116,
      "duration": 0.0969,
      "velocity": 79,
      "chip": "ym2612"
    },
    {
      "channel": 0,
      "note": 57,
      "start": 2.8144,
      "duration": 0.094,
      "velocity": 107,
      "chip": "ym2612"
    },
    {
      "channel": 2,
      "note": 74,
      "start": 2.8166,
      "duration": 0.2087,
      "velocity": 117,
      "chip": "ym2612"
    },
    {
      "channel": 1,
      "note": 69,
      "start": 2.9117,
      "duration": 0.1134,
      "velocity": 79,
      "chip": "ym2612"
    },
    {
      "channel": 1,
      "note": 62,
      "start": 3.0283,
      "duration": 0.0968,
      "velocity": 79,
      "chip": "ym2612"
    },
    {
      "channel": 0,
      "note": 53,
      "start": 3.031,
      "duration": 0.094,
      "velocity": 107,
      "chip": "ym2612"
    },
    {
      "channel": 1,
      "note": 69,
      "start": 3.1283,
      "duration": 0.1133,
      "velocity": 79,
      "chip": "ym2612"
    },
    {
      "channel": 1,
      "note": 68,
      "start": 3.2449,
      "duration": 0.0969,
      "velocity": 79,
      "chip": "ym2612"
    },
    {
      "channel": 0,
      "note": 57,
      "start": 3.2476,
      "duration": 0.0941,
      "velocity": 107,
      "chip": "ym2612"
    },
    {
      "channel": 2,
      "note": 74,
      "start": 3.2502,
      "duration": 0.2086,
      "velocity": 117,
      "chip": "ym2612"
    },
    {
      "channel": 1,
      "note": 69,
      "start": 3.3451,
      "duration": 0.1134,
      "velocity": 79,
      "chip": "ym2612"
    },
    {
      "channel": 1,
      "note": 62,
      "start": 3.4617,
      "duration": 0.0968,
      "velocity": 79,
      "chip": "ym2612"
    },
    {
      "channel": 0,
      "note": 50,
      "start": 3.4644,
      "duration": 0.094,
      "velocity": 107,
      "chip": "ym2612"
    },
    {
      "channel": 1,
      "note": 69,
      "start": 3.5621,
      "duration": 0.1129,
      "velocity": 79,
      "chip": "ym2612"
    },
    {
      "channel": 1,
      "note": 68,
      "start": 3.6782,
      "duration": 0.097,
      "velocity": 79,
      "chip": "ym2612"
    },
    {
      "channel": 0,
      "note": 57,
      "start": 3.681,
      "duration": 0.0941,
      "velocity": 107,
      "chip": "ym2612"
    },
    {
      "channel": 1,
      "note": 69,
      "start": 3.7784,
      "duration": 0.1134,
      "velocity": 79,
      "chip": "ym2612"
    },
    {
      "channel": 1,
      "note": 62,
      "start": 3.895,
      "duration": 0.0968,
      "velocity": 79,
      "chip": "ym2612"
    },
    {
      "channel": 0,
      "note": 53,
      "start": 3.8976,
      "duration": 0.094,
      "velocity": 107,
      "chip": "ym2612"
    },
    {
      "channel": 5,
      "note": 50,
      "start": 3.9012,
      "duration": 0.1907,
      "velocity": 88,
      "chip": "ym2612"
    },
    {
      "channel": 1,
      "note": 69,
      "start": 3.995,
      "duration": 0.0968,
      "velocity": 79,
      "chip": "ym2612"
    },
    {
      "channel": 1,
      "note": 68,
      "start": 4.095,
      "duration": 0.1134,
      "velocity": 79,
      "chip": "ym2612"
    },
    {
      "channel": 0,
      "note": 57,
      "start": 4.0978,
      "duration": 0.1106,
      "velocity": 107,
      "chip": "ym2612"
    },
    {
      "channel": 1,
      "note": 69,
      "start": 4.2116,
      "duration": 0.0968,
      "velocity": 79,
      "chip": "ym2612"
    },
    {
      "channel": 1,
      "note": 62,
      "start": 4.3116,
      "duration": 0.1136,
      "velocity": 79,
      "chip": "ym2612"
    },
    {
      "channel": 0,
      "note": 50,
      "start": 4.3143,
      "duration": 0.1108,
      "velocity": 107,
      "chip": "ym2612"
    },
    {
      "channel": 5,
      "note": 50,
      "start": 4.3169,
      "duration": 0.2084,
      "velocity": 88,
      "chip": "ym2612"
    },
    {
      "channel": 1,
      "note": 69,
      "start": 4.4284,
      "duration": 0.0966,
      "velocity": 79,
      "chip": "ym2612"
    },
    {
      "channel": 1,
      "note": 68,
      "start": 4.5283,
      "duration": 0.1136,
      "velocity": 79,
      "chip": "ym2612"
    },
    {
      "channel": 0,
      "note": 57,
      "start": 4.5314,
      "duration": 0.1103,
      "velocity": 107,
      "chip": "ym2612"
    },
    {
      "channel": 1,
      "note": 69,
      "start": 4.6451,
      "duration": 0.0967,
      "velocity": 79,
      "chip": "ym2612"
    },
    {
      "channel": 4,
      "note": 80,
      "start": 4.6621,
      "duration": 0.3298,
      "velocity": 84,
      "chip": "ym2612"
    },
    {
      "channel": 1,
      "note": 62,
      "start": 4.745,
      "duration": 0.1135,
      "velocity": 79,
      "chip": "ym2612"
    },
    {
      "channel": 0,
      "note": 53,
      "start": 4.7477,
      "duration": 0.1106,
      "velocity": 107,
      "chip": "ym2612"
    },
    {
      "channel": 5,
      "note": 50,
      "start": 4.7507,
      "duration": 0.208,
      "velocity": 88,
      "chip": "ym2612"
    },
    {
      "channel": 1,
      "note": 69,
      "start": 4.8617,
      "duration": 0.0967,
      "velocity": 79,
      "chip": "ym2612"
    },
    {
      "channel": 1,
      "note": 68,
      "start": 4.9616,
      "duration": 0.1135,
      "velocity": 79,
      "chip": "ym2612"
    },
    {
      "channel": 0,
      "note": 57,
      "start": 4.9644,
      "duration": 0.1107,
      "velocity": 107,
      "chip": "ym2612"
    },
    {
      "channel": 1,
      "note": 69,
      "start": 5.0783,
      "duration": 0.0968,
      "velocity": 79,
      "chip": "ym2612"
    },
    {
      "channel": 1,
      "note": 62,
      "start": 5.1783,
      "duration": 0.0968,
      "velocity": 79,
      "chip": "ym2612"
    },
    {
      "channel": 0,
      "note": 50,
      "start": 5.181,
      "duration": 0.094,
      "velocity": 107,
      "chip": "ym2612"
    },
    {
      "channel": 5,
      "note": 53,
      "start": 5.1838,
      "duration": 0.2082,
      "velocity": 88,
      "chip": "ym2612"
    },
    {
      "channel": 1,
      "note": 69,
      "start": 5.2787,
      "duration": 0.1131,
      "velocity": 79,
      "chip": "ym2612"
    },
    {
      "channel": 1,
      "note": 68,
      "start": 5.395,
      "duration": 0.0969,
      "velocity": 79,
      "chip": "ym2612"
    },
    {
      "channel": 0,
      "note": 57,
      "start": 5.3977,
      "duration": 0.094,
      "velocity": 107,
      "chip": "ym2612"
    },
    {
      "channel": 5,
      "note": 50,
      "start": 5.4003,
      "duration": 0.2083,
      "velocity": 88,
      "chip": "ym2612"
    },
    {
      "channel": 1,
      "note": 69,
      "start": 5.4951,
      "duration": 0.1132,
      "velocity": 79,
      "chip": "ym2612"
    },
    {
      "channel": 1,
      "note": 62,
      "start": 5.6116,
      "duration": 0.0968,
      "velocity": 79,
      "chip": "ym2612"
    },
    {
      "channel": 0,
      "note": 53,
      "start": 5.6143,
      "duration": 0.094,
      "velocity": 107,
      "chip": "ym2612"
    },
    {
      "channel": 5,
      "note": 48,
      "start": 5.617,
      "duration": 0.2083,
      "velocity": 88,
      "chip": "ym2612"
    },
    {
      "channel": 1,
      "note": 69,
      "start": 5.7117,
      "duration": 0.1134,
      "velocity": 79,
      "chip": "ym2612"
    },
    {
      "channel": 1,
      "note": 68,
      "start": 5.8283,
      "duration": 0.0969,
      "velocity": 79,
      "chip": "ym2612"
    },
    {
      "channel": 0,
      "note": 57,
      "start": 5.831,
      "duration": 0.094,
      "velocity": 107,
      "chip": "ym2612"
    },
    {
      "channel": 5,
      "note": 50,
      "start": 5.8339,
      "duration": 0.208,
      "velocity": 88,
      "chip": "ym2612"
    },
    {
      "channel": 1,
      "note": 69,
      "start": 5.9284,
      "duration": 0.1132,
      "velocity": 79,
      "chip": "ym2612"
    },
    {
      "channel": 1,
      "note": 62,
      "start": 6.045,
      "duration": 0.0968,
      "velocity": 79,
      "chip": "ym2612"
    },
    {
      "channel": 0,
      "note": 50,
      "start": 6.0476,
      "duration": 0.094,
      "velocity": 107,
      "chip": "ym2612"
    },
    {
      "channel": 1,
      "note": 69,
      "start": 6.145,
      "duration": 0.1135,
      "velocity": 79,
      "chip": "ym2612"
    },
    {
      "channel": 1,
      "note": 68,
      "start": 6.2617,
      "duration": 0.0968,
      "velocity": 79,
      "chip": "ym2612"
    },
    {
      "channel": 0,
      "note": 57,
      "start": 6.2644,
      "duration": 0.094,
      "velocity": 107,
      "chip": "ym2612"
    },
    {
      "channel": 1,
      "note": 69,
      "start": 6.3617,
      "duration": 0.0968,
      "velocity": 79,
      "chip": "ym2612"
    },
    {
      "channel": 1,
      "note": 62,
      "start": 6.4616,
      "duration": 0.1136,
      "velocity": 79,
      "chip": "ym2612"
    },
    {
      "channel": 0,
      "note": 53,
      "start": 6.4643,
      "duration": 0.1108,
      "velocity": 107,
      "chip": "ym2612"
    },
    {
      "channel": 1,
      "note": 69,
      "start": 6.5784,
      "duration": 0.0966,
      "velocity": 79,
      "chip": "ym2612"
    },
    {
      "channel": 1,
      "note": 68,
      "start": 6.6782,
      "duration": 0.1135,
      "velocity": 79,
      "chip": "ym2612"
    },
    {
      "channel": 0,
      "note": 57,
      "start": 6.6809,
      "duration": 0.1107,
      "velocity": 107,
      "chip": "ym2612"
    },
    {
      "channel": 1,
      "note": 69,
      "start": 6.795,
      "duration": 0.0968,
      "velocity": 79,
      "chip": "ym2612"
    },
    {
      "channel": 1,
      "note": 62,
      "start": 6.8949,
      "duration": 0.1137,
      "velocity": 79,
      "chip": "ym2612"
    },
    {
      "channel": 0,
      "note": 50,
      "start": 6.8976,
      "duration": 0.1108,
      "velocity": 107,
      "chip": "ym2612"
    },
    {
      "channel": 2,
      "note": 74,
      "start": 6.9,
      "duration": 0.2087,
      "velocity": 117,
      "chip": "ym2612"
    },
    {
      "channel": 1,
      "note": 69,
      "start": 7.0121,
      "duration": 0.0963,
      "velocity": 79,
      "chip": "ym2612"
    },
    {
      "channel": 1,
      "note": 68,
      "start": 7.1117,
      "duration": 0.1134,
      "velocity": 79,
      "chip": "ym2612"
    },
    {
      "channel": 0,
      "note": 57,
      "start": 7.1144,
      "duration": 0.1106,
      "velocity": 107,
      "chip": "ym2612"
    },
    {
      "channel": 2,
      "note": 74,
      "start": 7.1168,
      "duration": 0.2086,
      "velocity": 117,
      "chip": "ym2612"
    },
    {
      "channel": 1,
      "note": 69,
      "start": 7.2283,
      "duration": 0.0968,
      "velocity": 79,
      "chip": "ym2612"
    },
    {
      "channel": 1,
      "note": 62,
      "start": 7.3284,
      "duration": 0.1135,
      "velocity": 79,
      "chip": "ym2612"
    },
    {
      "channel": 0,
      "note": 53,
      "start": 7.3311,
      "duration": 0.1107,
      "velocity": 107,
      "chip": "ym2612"
    },
    {
      "channel": 1,
      "note": 69,
      "start": 7.4451,
      "duration": 0.0966,
      "velocity": 79,
      "chip": "ym2612"
    },
    {
      "channel": 1,
      "note": 68,
      "start": 7.5449,
      "duration": 0.097,
      "velocity": 79,
      "chip": "ym2612"
    },
    {
      "channel": 0,
      "note": 57,
      "start": 7.5476,
      "duration": 0.0941,
      "velocity": 107,
      "chip": "ym2612"
    },
    {
      "channel": 2,
      "note": 74,
      "start": 7.5499,
      "duration": 0.2088,
      "velocity": 117,
      "chip": "ym2612"
    },
    {
      "channel": 1,
      "note": 69,
      "start": 7.6451,
      "duration": 0.1132,
      "velocity": 79,
      "chip": "ym2612"
    },
    {
      "channel": 1,
      "note": 62,
      "start": 7.7616,
      "duration": 0.0969,
      "velocity": 79,
      "chip": "ym2612"
    },
    {
      "channel": 0,
      "note": 50,
      "start": 7.7643,
      "duration": 0.0941,
      "velocity": 107,
      "chip": "ym2612"
    },
    {
      "channel": 1,
      "note": 69,
      "start": 7.8617,
      "duration": 0.1134,
      "velocity": 79,
      "chip": "ym2612"
    },
    {
      "channel": 1,
      "note": 68,
      "start": 7.9783,
      "duration": 0.0968,
      "velocity": 79,
      "chip": "ym2612"
    },
    {
      "channel": 0,
      "note": 57,
      "start": 7.9813,
      "duration": 0.0937,
      "velocity": 107,
      "chip": "ym2612"
    },
    {
      "channel": 2,
      "note": 74,
      "start": 7.9836,
      "duration": 0.2084,
      "velocity": 117,
      "chip": "ym2612"
    },
    {
      "channel": 1,
      "note": 69,
      "start": 8.0783,
      "duration": 0.1134,
      "velocity": 79,
      "chip": "ym2612"
    },
    {
      "channel": 1,
      "note": 62,
      "start": 8.195,
      "duration": 0.0968,
      "velocity": 79,
      "chip": "ym2612"
    },
    {
      "channel": 0,
      "note": 53,
      "start": 8.1977,
      "duration": 0.094,
      "velocity": 107,
      "chip": "ym2612"
    },
    {
      "channel": 1,
      "note": 69,
      "start": 8.295,
      "duration": 0.1134,
      "velocity": 79,
      "chip": "ym2612"
    },
    {
      "channel": 1,
      "note": 68,
      "start": 8.4116,
      "duration": 0.0969,
      "velocity": 79,
      "chip": "ym2612"
    },
    {
      "channel": 0,
      "note": 57,
      "start": 8.4143,
      "duration": 0.0941,
      "velocity": 107,
      "chip": "ym2612"
    },
    {
      "channel": 2,
      "note": 74,
      "start": 8.4171,
      "duration": 0.2083,
      "velocity": 117,
      "chip": "ym2612"
    },
    {
      "channel": 1,
      "note": 69,
      "start": 8.5117,
      "duration": 0.1134,
      "velocity": 79,
      "chip": "ym2612"
    },
    {
      "channel": 1,
      "note": 62,
      "start": 8.6284,
      "duration": 0.0967,
      "velocity": 79,
      "chip": "ym2612"
    },
    {
      "channel": 0,
      "note": 50,
      "start": 8.6311,
      "duration": 0.0938,
      "velocity": 107,
      "chip": "ym2612"
    },
    {
      "channel": 2,
      "note": 74,
      "start": 8.6334,
      "duration": 0.1919,
      "velocity": 117,
      "chip": "ym2612"
    },
    {
      "channel": 1,
      "note": 69,
      "start": 8.7287,
      "duration": 0.0964,
      "velocity": 79,
      "chip": "ym2612"
    },
    {
      "channel": 1,
      "note": 68,
      "start": 8.8283,
      "duration": 0.1135,
      "velocity": 79,
      "chip": "ym2612"
    },
    {
      "channel": 0,
      "note": 57,
      "start": 8.831,
      "duration": 0.1106,
      "velocity": 107,
      "chip": "ym2612"
    },
    {
      "channel": 2,
      "note": 74,
      "start": 8.8334,
      "duration": 0.2087,
      "velocity": 117,
      "chip": "ym2612"
    },
    {
      "channel": 1,
      "note": 69,
      "start": 8.945,
      "duration": 0.0968,
      "velocity": 79,
      "chip": "ym2612"
    },
    {
      "channel": 1,
      "note": 62,
      "start": 9.045,
      "duration": 0.1134,
      "velocity": 79,
      "chip": "ym2612"
    },
    {
      "channel": 0,
      "note": 53,
      "start": 9.0477,
      "duration": 0.1106,
      "velocity": 107,
      "chip": "ym2612"
    },
    {
      "channel": 1,
      "note": 69,
      "start": 9.1616,
      "duration": 0.0968,
      "velocity": 79,
      "chip": "ym2612"
    },
    {
      "channel": 1,
      "note": 68,
      "start": 9.2616,
      "duration": 0.1136,
      "velocity": 79,
      "chip": "ym2612"
    },
    {
      "channel": 0,
      "note": 57,
      "start": 9.2643,
      "duration": 0.1108,
      "velocity": 107,
      "chip": "ym2612"
    },
    {
      "channel": 2,
      "note": 74,
      "start": 9.2666,
      "duration": 0.2087,
      "velocity": 117,
      "chip": "ym2612"
    },
    {
      "channel": 1,
      "note": 69,
      "start": 9.3784,
      "duration": 0.0966,
      "velocity": 79,
      "chip": "ym2612"
    },
    {
      "channel": 1,
      "note": 62,
      "start": 9.4783,
      "duration": 0.1135,
      "velocity": 79,
      "chip": "ym2612"
    },
    {
      "channel": 0,
      "note": 50,
      "start": 9.481,
      "duration": 0.1106,
      "velocity": 107,
      "chip": "ym2612"
    },
    {
      "channel": 1,
      "note": 69,
      "start": 9.595,
      "duration": 0.0968,
      "velocity": 79,
      "chip": "ym2612"
    },
    {
      "channel": 1,
      "note": 68,
      "start": 9.695,
      "duration": 0.1136,
      "velocity": 79,
      "chip": "ym2612"
    },
    {
      "channel": 0,
      "note": 57,
      "start": 9.6976,
      "duration": 0.1108,
      "velocity": 107,
      "chip": "ym2612"
    },
    {
      "channel": 2,
      "note": 74,
      "start": 9.6999,
      "duration": 0.2088,
      "velocity": 117,
      "chip": "ym2612"
    },
    {
      "channel": 1,
      "note": 69,
      "start": 9.8118,
      "duration": 0.0966,
      "velocity": 79,
      "chip": "ym2612"
    },
    {
      "channel": 1,
      "note": 62,
      "start": 9.9117,
      "duration": 0.0967,
      "velocity": 79,
      "chip": "ym2612"
    },
    {
      "channel": 0,
      "note": 53,
      "start": 9.9144,
      "duration": 0.0938,
      "velocity": 107,
      "chip": "ym2612"
    },
    {
      "channel": 1,
      "note": 69,
      "start": 10.0116,
      "duration": 0.1135,
      "velocity": 79,
      "chip": "ym2612"
    },
    {
      "channel": 1,
      "note": 68,
      "start": 10.1283,
      "duration": 0.0968,
      "velocity": 79,
      "chip": "ym2612"
    },
    {
      "channel": 0,
      "note": 57,
      "start": 10.131,
      "duration": 0.094,
      "velocity": 107,
      "chip": "ym2612"
    },
    {
      "channel": 2,
      "note": 74,
      "start": 10.1336,
      "duration": 0.2084,
      "velocity": 117,
      "chip": "ym2612"
    },
    {
      "channel": 1,
      "note": 69,
      "start": 10.2283,
      "duration": 0.1134,
      "velocity": 79,
      "chip": "ym2612"
    },
    {
      "channel": 1,
      "note": 62,
      "start": 10.345,
      "duration": 0.0968,
      "velocity": 79,
      "chip": "ym2612"
    },
    {
      "channel": 0,
      "note": 50,
      "start": 10.3476,
      "duration": 0.094,
      "velocity": 107,
      "chip": "ym2612"
    },
    {
      "channel": 1,
      "note": 69,
      "start": 10.4453,
      "duration": 0.1131,
      "velocity": 79,
      "chip": "ym2612"
    },
    {
      "channel": 1,
      "note": 68,
      "start": 10.5616,
      "duration": 0.0969,
      "velocity": 79,
      "chip": "ym2612"
    },
    {
      "channel": 0,
      "note": 57,
      "start": 10.5642,
      "duration": 0.0941,
      "velocity": 107,
      "chip": "ym2612"
    },
    {
      "channel": 1,
      "note": 69,
      "start": 10.6617,
      "duration": 0.1133,
      "velocity": 79,
      "chip": "ym2612"
    },
    {
      "channel": 1,
      "note": 62,
      "start": 10.7782,
      "duration": 0.0969,
      "velocity": 79,
      "chip": "ym2612"
    },
    {
      "channel": 0,
      "note": 53,
      "start": 10.7809,
      "duration": 0.0941,
      "velocity": 107,
      "chip": "ym2612"
    },
    {
      "channel": 1,
      "note": 69,
      "start": 10.8783,
      "duration": 0.1135,
      "velocity": 79,
      "chip": "ym2612"
    },
    {
      "channel": 1,
      "note": 68,
      "start": 10.995,
      "duration": 0.0968,
      "velocity": 79,
      "chip": "ym2612"
    },
    {
      "channel": 0,
      "note": 57,
      "start": 10.9977,
      "duration": 0.094,
      "velocity": 107,
      "chip": "ym2612"
    },
    {
      "channel": 4,
      "note": 93,
      "start": 11.0121,
      "duration": 0.2798,
      "velocity": 84,
      "chip": "ym2612"
    },
    {
      "channel": 1,
      "note": 69,
      "start": 11.095,
      "duration": 0.0968,
      "velocity": 79,
      "chip": "ym2612"
    },
    {
      "channel": 1,
      "note": 62,
      "start": 11.195,
      "duration": 0.1135,
      "velocity": 79,
      "chip": "ym2612"
    },
    {
      "channel": 0,
      "note": 50,
      "start": 11.1977,
      "duration": 0.1107,
      "velocity": 107,
      "chip": "ym2612"
    },
    {
      "channel": 1,
      "note": 69,
      "start": 11.3117,
      "duration": 0.0968,
      "velocity": 79,
      "chip": "ym2612"
    },
    {
      "channel": 1,
      "note": 68,
      "start": 11.4116,
      "duration": 0.1136,
      "velocity": 79,
      "chip": "ym2612"
    },
    {
      "channel": 0,
      "note": 57,
      "start": 11.4147,
      "duration": 0.1104,
      "velocity": 107,
      "chip": "ym2612"
    },
    {
      "channel": 4,
      "note": 93,
      "start": 11.4953,
      "duration": 0.2966,
      "velocity": 84,
      "chip": "ym2612"
    },
    {
      "channel": 1,
      "note": 69,
      "start": 11.5284,
      "duration": 0.0967,
      "velocity": 79,
      "chip": "ym2612"
    },
    {
      "channel": 1,
      "note": 62,
      "start": 11.6283,
      "duration": 0.1135,
      "velocity": 79,
      "chip": "ym2612"
    },
    {
      "channel": 0,
      "note": 53,
      "start": 11.631,
      "duration": 0.1107,
      "velocity": 107,
      "chip": "ym2612"
    },
    {
      "channel": 1,
      "note": 69,
      "start": 11.745,
      "duration": 0.0966,
      "velocity": 79,
      "chip": "ym2612"
    },
    {
      "channel": 1,
      "note": 68,
      "start": 11.8449,
      "duration": 0.1137,
      "velocity": 79,
      "chip": "ym2612"
    },
    {
      "channel": 0,
      "note": 57,
      "start": 11.8476,
      "duration": 0.1108,
      "velocity": 107,
      "chip": "ym2612"
    },
    {
      "channel": 1,
      "note": 69,
      "start": 11.9617,
      "duration": 0.0967,
      "velocity": 79,
      "chip": "ym2612"
    },
    {
      "channel": 1,
      "note": 62,
      "start": 12.0616,
      "duration": 0.1136,
      "velocity": 79,
      "chip": "ym2612"
    },
    {
      "channel": 0,
      "note": 50,
      "start": 12.0643,
      "duration": 0.1108,
      "velocity": 107,
      "chip": "ym2612"
    },
    {
      "channel": 1,
      "note": 69,
      "start": 12.1788,
      "duration": 0.0964,
      "velocity": 79,
      "chip": "ym2612"
    },
    {
      "channel": 4,
      "note": 93,
      "start": 12.1954,
      "duration": 0.3132,
      "velocity": 84,
      "chip": "ym2612"
    },
    {
      "channel": 1,
      "note": 68,
      "start": 12.2783,
      "duration": 0.0969,
      "velocity": 79,
      "chip": "ym2612"
    },
    {
      "channel": 0,
      "note": 57,
      "start": 12.2811,
      "duration": 0.094,
      "velocity": 107,
      "chip": "ym2612"
    },
    {
      "channel": 1,
      "note": 69,
      "start": 12.3784,
      "duration": 0.1134,
      "velocity": 79,
      "chip": "ym2612"
    },
    {
      "channel": 1,
      "note": 62,
      "start": 12.495,
      "duration": 0.0968,
      "velocity": 79,
      "chip": "ym2612"
    },
    {
      "channel": 0,
      "note": 53,
      "start": 12.4977,
      "duration": 0.094,
      "velocity": 107,
      "chip": "ym2612"
    },
    {
      "channel": 1,
      "note": 69,
      "start": 12.595,
      "duration": 0.1134,
      "velocity": 79,
      "chip": "ym2612"
    },
    {
      "channel": 1,
      "note": 68,
      "start": 12.7116,
      "duration": 0.097,
      "velocity": 79,
      "chip": "ym2612"
    },
    {
      "channel": 0,
      "note": 57,
      "start": 12.7143,
      "duration": 0.0941,
      "velocity": 107,
      "chip": "ym2612"
    },
    {
      "channel": 1,
      "note": 69,
      "start": 12.8117,
      "duration": 0.1134,
      "velocity": 79,
      "chip": "ym2612"
    },
    {
      "channel": 1,
      "note": 62,
      "start": 12.9283,
      "duration": 0.0969,
      "velocity": 79,
      "chip": "ym2612"
    },
    {
      "channel": 0,
      "note": 50,
      "start": 12.931,
      "duration": 0.0941,
      "velocity": 107,
      "chip": "ym2612"
    },
    {
      "channel": 1,
      "note": 69,
      "start": 13.0284,
      "duration": 0.1134,
      "velocity": 79,
      "chip": "ym2612"
    },
    {
      "channel": 1,
      "note": 68,
      "start": 13.145,
      "duration": 0.0968,
      "velocity": 79,
      "chip": "ym2612"
    },
    {
      "channel": 0,
      "note": 57,
      "start": 13.1476,
      "duration": 0.094,
      "velocity": 107,
      "chip": "ym2612"
    },
    {
      "channel": 1,
      "note": 69,
      "start": 13.245,
      "duration": 0.0968,
      "velocity": 79,
      "chip": "ym2612"
    },
    {
      "channel": 1,
      "note": 62,
      "start": 13.345,
      "duration": 0.1136,
      "velocity": 79,
      "chip": "ym2612"
    },
    {
      "channel": 0,
      "note": 53,
      "start": 13.3476,
      "duration": 0.1108,
      "velocity": 107,
      "chip": "ym2612"
    },
    {
      "channel": 1,
      "note": 69,
      "start": 13.4617,
      "duration": 0.0967,
      "velocity": 79,
      "chip": "ym2612"
    },
    {
      "channel": 1,
      "note": 68,
      "start": 13.5616,
      "duration": 0.1136,
      "velocity": 79,
      "chip": "ym2612"
    },
    {
      "channel": 0,
      "note": 57,
      "start": 13.5643,
      "duration": 0.1108,
      "velocity": 107,
      "chip": "ym2612"
    },
    {
      "channel": 1,
      "note": 69,
      "start": 13.6784,
      "duration": 0.0967,
      "velocity": 79,
      "chip": "ym2612"
    },
    {
      "channel": 1,
      "note": 55,
      "start": 13.7783,
      "duration": 0.1136,
      "velocity": 79,
      "chip": "ym2612"
    },
    {
      "channel": 0,
      "note": 43,
      "start": 13.781,
      "duration": 0.1108,
      "velocity": 107,
      "chip": "ym2612"
    },
    {
      "channel": 2,
      "note": 74,
      "start": 13.7834,
      "duration": 0.2087,
      "velocity": 117,
      "chip": "ym2612"
    },
    {
      "channel": 1,
      "note": 62,
      "start": 13.8955,
      "duration": 0.0963,
      "velocity": 79,
      "chip": "ym2612"
    },
    {
      "channel": 1,
      "note": 61,
      "start": 13.9951,
      "duration": 0.1134,
      "velocity": 79,
      "chip": "ym2612"
    },
    {
      "channel": 0,
      "note": 50,
      "start": 13.9978,
      "duration": 0.1106,
      "velocity": 107,
      "chip": "ym2612"
    },
    {
      "channel": 2,
      "note": 74,
      "start": 14.0002,
      "duration": 0.2085,
      "velocity": 117,
      "chip": "ym2612"
    },
    {
      "channel": 1,
      "note": 62,
      "start": 14.1117,
      "duration": 0.0966,
      "velocity": 79,
      "chip": "ym2612"
    },
    {
      "channel": 1,
      "note": 55,
      "start": 14.2116,
      "duration": 0.1136,
      "velocity": 79,
      "chip": "ym2612"
    },
    {
      "channel": 0,
      "note": 47,
      "start": 14.2143,
      "duration": 0.1108,
      "velocity": 107,
      "chip": "ym2612"
    },
    {
      "channel": 1,
      "note": 62,
      "start": 14.3284,
      "duration": 0.0966,
      "velocity": 79,
      "chip": "ym2612"
    },
    {
      "channel": 1,
      "note": 61,
      "start": 14.4282,
      "duration": 0.0969,
      "velocity": 79,
      "chip": "ym2612"
    },
    {
      "channel": 0,
      "note": 50,
      "start": 14.4309,
      "duration": 0.0941,
      "velocity": 107,
      "chip": "ym2612"
    },
    {
      "channel": 2,
      "note": 74,
      "start": 14.4332,
      "duration": 0.2088,
      "velocity": 117,
      "chip": "ym2612"
    },
    {
      "channel": 1,
      "note": 62,
      "start": 14.5283,
      "duration": 0.1134,
      "velocity": 79,
      "chip": "ym2612"
    },
    {
      "channel": 1,
      "note": 55,
      "start": 14.645,
      "duration": 0.0969,
      "velocity": 79,
      "chip": "ym2612"
    },
    {
      "channel": 0,
      "note": 43,
      "start": 14.6478,
      "duration": 0.094,
      "velocity": 107,
      "chip": "ym2612"
    },
    {
      "channel": 1,
      "note": 62,
      "start": 14.7451,
      "duration": 0.1134,
      "velocity": 79,
      "chip": "ym2612"
    },
    {
      "channel": 1,
      "note": 61,
      "start": 14.8616,
      "duration": 0.0969,
      "velocity": 79,
      "chip": "ym2612"
    },
    {
      "channel": 0,
      "note": 50,
      "start": 14.8647,
      "duration": 0.0937,
      "velocity": 107,
      "chip": "ym2612"
    },
    {
      "channel": 2,
      "note": 74,
      "start": 14.867,
      "duration": 0.2085,
      "velocity": 117,
      "chip": "ym2612"
    },
    {
      "channel": 1,
      "note": 62,
      "start": 14.9617,
      "duration": 0.1134,
      "velocity": 79,
      "chip": "ym2612"
    },
    {
      "channel": 1,
      "note": 55,
      "start": 15.0784,
      "duration": 0.0968,
      "velocity": 79,
      "chip": "ym2612"
    },
    {
      "channel": 0,
      "note": 47,
      "start": 15.0811,
      "duration": 0.094,
      "velocity": 107,
      "chip": "ym2612"
    },
    {
      "channel": 1,
      "note": 62,
      "start": 15.1784,
      "duration": 0.1133,
      "velocity": 79,
      "chip": "ym2612"
    },
    {
      "channel": 1,
      "note": 61,
      "start": 15.295,
      "duration": 0.0969,
      "velocity": 79,
      "chip": "ym2612"
    },
    {
      "channel": 0,
      "note": 50,
      "start": 15.2976,
      "duration": 0.0941,
      "velocity": 107,
      "chip": "ym2612"
    },
    {
      "channel": 2,
      "note": 74,
      "start": 15.3004,
      "duration": 0.2083,
      "velocity": 117,
      "chip": "ym2612"
    },
    {
      "channel": 1,
      "note": 62,
      "start": 15.3951,
      "duration": 0.1134,
      "velocity": 79,
      "chip": "ym2612"
    },
    {
      "channel": 1,
      "note": 55,
      "start": 15.5117,
      "duration": 0.0968,
      "velocity": 79,
      "chip": "ym2612"
    },
    {
      "channel": 0,
      "note": 43,
      "start": 15.5144,
      "duration": 0.094,
      "velocity": 107,
      "chip": "ym2612"
    },
    {
      "channel": 2,
      "note": 74,
      "start": 15.5167,
      "duration": 0.192,
      "velocity": 117,
      "chip": "ym2612"
    },
    {
      "channel": 1,
      "note": 62,
      "start": 15.6121,
      "duration": 0.0963,
      "velocity": 79,
      "chip": "ym2612"
    },
    {
      "channel": 1,
      "note": 61,
      "start": 15.7117,
      "duration": 0.1134,
      "velocity": 79,
      "chip": "ym2612"
    },
    {
      "channel": 0,
      "note": 50,
      "start": 15.7144,
      "duration": 0.1106,
      "velocity": 107,
      "chip": "ym2612"
    },
    {
      "channel": 2,
      "note": 74,
      "start": 15.7168,
      "duration": 0.2086,
      "velocity": 117,
      "chip": "ym2612"
    },
    {
      "channel": 1,
      "note": 62,
      "start": 15.8283,
      "duration": 0.0968,
      "velocity": 79,
      "chip": "ym2612"
    },
    {
      "channel": 1,
      "note": 55,
      "start": 15.9284,
      "duration": 0.1134,
      "velocity": 79,
      "chip": "ym2612"
    },
    {
      "channel": 0,
      "note": 47,
      "start": 15.9311,
      "duration": 0.1106,
      "velocity": 107,
      "chip": "ym2612"
    },
    {
      "channel": 1,
      "note": 62,
      "start": 16.045,
      "duration": 0.0967,
      "velocity": 79,
      "chip": "ym2612"
    },
    {
      "channel": 1,
      "note": 61,
      "start": 16.145,
      "duration": 0.1136,
      "velocity": 79,
      "chip": "ym2612"
    },
    {
      "channel": 0,
      "note": 50,
      "start": 16.1476,
      "duration": 0.1108,
      "velocity": 107,
      "chip": "ym2612"
    },
    {
      "channel": 2,
      "note": 74,
      "start": 16.1499,
      "duration": 0.2087,
      "velocity": 117,
      "chip": "ym2612"
    },
    {
      "channel": 1,
      "note": 62,
      "start": 16.2617,
      "duration": 0.0966,
      "velocity": 79,
      "chip": "ym2612"
    },
    {
      "channel": 1,
      "note": 55,
      "start": 16.3616,
      "duration": 0.1136,
      "velocity": 79,
      "chip": "ym2612"
    },
    {
      "channel": 0,
      "note": 43,
      "start": 16.3643,
      "duration": 0.1108,
      "velocity": 107,
      "chip": "ym2612"
    },
    {
      "channel": 1,
      "note": 62,
      "start": 16.4784,
      "duration": 0.0967,
      "velocity": 79,
      "chip": "ym2612"
    },
    {
      "channel": 1,
      "note": 61,
      "start": 16.5783,
      "duration": 0.1136,
      "velocity": 79,
      "chip": "ym2612"
    },
    {
      "channel": 0,
      "note": 50,
      "start": 16.581,
      "duration": 0.1107,
      "velocity": 107,
      "chip": "ym2612"
    },
    {
      "channel": 2,
      "note": 74,
      "start": 16.5833,
      "duration": 0.2087,
      "velocity": 117,
      "chip": "ym2612"
    },
    {
      "channel": 1,
      "note": 62,
      "start": 16.6951,
      "duration": 0.0966,
      "velocity": 79,
      "chip": "ym2612"
    },
    {
      "channel": 1,
      "note": 55,
      "start": 16.795,
      "duration": 0.0968,
      "velocity": 79,
      "chip": "ym2612"
    },
    {
      "channel": 0,
      "note": 47,
      "start": 16.7977,
      "duration": 0.094,
      "velocity": 107,
      "chip": "ym2612"
    },
    {
      "channel": 1,
      "note": 62,
      "start": 16.895,
      "duration": 0.1134,
      "velocity": 79,
      "chip": "ym2612"
    },
    {
      "channel": 1,
      "note": 61,
      "start": 17.0116,
      "duration": 0.0969,
      "velocity": 79,
      "chip": "ym2612"
    },
    {
      "channel": 0,
      "note": 50,
      "start": 17.0143,
      "duration": 0.0941,
      "velocity": 107,
      "chip": "ym2612"
    },
    {
      "channel": 2,
      "note": 74,
      "start": 17.0169,
      "duration": 0.2085,
      "velocity": 117,
      "chip": "ym2612"
    },
    {
      "channel": 1,
      "note": 62,
      "start": 17.1117,
      "duration": 0.1134,
      "velocity": 79,
      "chip": "ym2612"
    },
    {
      "channel": 1,
      "note": 55,
      "start": 17.2283,
      "duration": 0.0968,
      "velocity": 79,
      "chip": "ym2612"
    },
    {
      "channel": 0,
      "note": 43,
      "start": 17.231,
      "duration": 0.094,
      "velocity": 107,
      "chip": "ym2612"
    },
    {
      "channel": 1,
      "note": 62,
      "start": 17.3287,
      "duration": 0.1131,
      "velocity": 79,
      "chip": "ym2612"
    },
    {
      "channel": 1,
      "note": 61,
      "start": 17.4449,
      "duration": 0.097,
      "velocity": 79,
      "chip": "ym2612"
    },
    {
      "channel": 0,
      "note": 50,
      "start": 17.4476,
      "duration": 0.0941,
      "velocity": 107,
      "chip": "ym2612"
    },
    {
      "channel": 1,
      "note": 62,
      "start": 17.545,
      "duration": 0.1134,
      "velocity": 79,
      "chip": "ym2612"
    },
    {
      "channel": 1,
      "note": 55,
      "start": 17.6616,
      "duration": 0.0969,
      "velocity": 79,
      "chip": "ym2612"
    },
    {
      "channel": 0,
      "note": 47,
      "start": 17.6643,
      "duration": 0.0941,
      "velocity": 107,
      "chip": "ym2612"
    },
    {
      "channel": 5,
      "note": 43,
      "start": 17.6671,
      "duration": 0.2083,
      "velocity": 88,
      "chip": "ym2612"
    },
    {
      "channel": 1,
      "note": 62,
      "start": 17.7617,
      "duration": 0.1134,
      "velocity": 79,
      "chip": "ym2612"
    },
    {
      "channel": 1,
      "note": 61,
      "start": 17.8784,
      "duration": 0.0968,
      "velocity": 79,
      "chip": "ym2612"
    },
    {
      "channel": 0,
      "note": 50,
      "start": 17.8811,
      "duration": 0.094,
      "velocity": 107,
      "chip": "ym2612"
    },
    {
      "channel": 1,
      "note": 62,
      "start": 17.9784,
      "duration": 0.0967,
      "velocity": 79,
      "chip": "ym2612"
    },
    {
      "channel": 1,
      "note": 55,
      "start": 18.0783,
      "duration": 0.1136,
      "velocity": 79,
      "chip": "ym2612"
    },
    {
      "channel": 0,
      "note": 43,
      "start": 18.081,
      "duration": 0.1108,
      "velocity": 107,
      "chip": "ym2612"
    },
    {
      "channel": 5,
      "note": 43,
      "start": 18.0836,
      "duration": 0.2083,
      "velocity": 88,
      "chip": "ym2612"
    },
    {
      "channel": 1,
      "note": 62,
      "start": 18.1951,
      "duration": 0.0966,
      "velocity": 79,
      "chip": "ym2612"
    },
    {
      "channel": 4,
      "note": 80,
      "start": 18.2121,
      "duration": 0.3798,
      "velocity": 84,
      "chip": "ym2612"
    },
    {
      "channel": 1,
      "note": 61,
      "start": 18.295,
      "duration": 0.1135,
      "velocity": 79,
      "chip": "ym2612"
    },
    {
      "channel": 0,
      "note": 50,
      "start": 18.2981,
      "duration": 0.1102,
      "velocity": 107,
      "chip": "ym2612"
    },
    {
      "channel": 1,
      "note": 62,
      "start": 18.4117,
      "duration": 0.0968,
      "velocity": 79,
      "chip": "ym2612"
    },
    {
      "channel": 1,
      "note": 55,
      "start": 18.5117,
      "duration": 0.1135,
      "velocity": 79,
      "chip": "ym2612"
    },
    {
      "channel": 0,
      "note": 47,
      "start": 18.5144,
      "duration": 0.1107,
      "velocity": 107,
      "chip": "ym2612"
    },
    {
      "channel": 5,
      "note": 43,
      "start": 18.517,
      "duration": 0.2083,
      "velocity": 88,
      "chip": "ym2612"
    },
    {
      "channel": 1,
      "note": 62,
      "start": 18.6284,
      "duration": 0.0966,
      "velocity": 79,
      "chip": "ym2612"
    },
    {
      "channel": 1,
      "note": 61,
      "start": 18.7283,
      "duration": 0.1135,
      "velocity": 79,
      "chip": "ym2612"
    },
    {
      "channel": 0,
      "note": 50,
      "start": 18.731,
      "duration": 0.1106,
      "velocity": 107,
      "chip": "ym2612"
    },
    {
      "channel": 1,
      "note": 62,
      "start": 18.845,
      "duration": 0.0967,
      "velocity": 79,
      "chip": "ym2612"
    },
    {
      "channel": 1,
      "note": 55,
      "start": 18.9449,
      "duration": 0.1137,
      "velocity": 79,
      "chip": "ym2612"
    },
    {
      "channel": 0,
      "note": 43,
      "start": 18.9476,
      "duration": 0.1109,
      "velocity": 107,
      "chip": "ym2612"
    },
    {
      "channel": 5,
      "note": 46,
      "start": 18.9504,
      "duration": 0.2083,
      "velocity": 88,
      "chip": "ym2612"
    },
    {
      "channel": 1,
      "note": 62,
      "start": 19.0621,
      "duration": 0.0963,
      "velocity": 79,
      "chip": "ym2612"
    },
    {
      "channel": 1,
      "note": 61,
      "start": 19.1617,
      "duration": 0.0968,
      "velocity": 79,
      "chip": "ym2612"
    },
    {
      "channel": 0,
      "note": 50,
      "start": 19.1644,
      "duration": 0.094,
      "velocity": 107,
      "chip": "ym2612"
    },
    {
      "channel": 5,
      "note": 43,
      "start": 19.167,
      "duration": 0.2084,
      "velocity": 88,
      "chip": "ym2612"
    },
    {
      "channel": 1,
      "note": 62,
      "start": 19.2617,
      "duration": 0.1134,
      "velocity": 79,
      "chip": "ym2612"
    },
    {
      "channel": 1,
      "note": 55,
      "start": 19.3784,
      "duration": 0.0968,
      "velocity": 79,
      "chip": "ym2612"
    },
    {
      "channel": 0,
      "note": 47,
      "start": 19.3811,
      "duration": 0.094,
      "velocity": 107,
      "chip": "ym2612"
    },
    {
      "channel": 5,
      "note": 41,
      "start": 19.3837,
      "duration": 0.2083,
      "velocity": 88,
      "chip": "ym2612"
    },
    {
      "channel": 1,
      "note": 62,
      "start": 19.4784,
      "duration": 0.1133,
      "velocity": 79,
      "chip": "ym2612"
    },
    {
      "channel": 1,
      "note": 61,
      "start": 19.595,
      "duration": 0.0969,
      "velocity": 79,
      "chip": "ym2612"
    },
    {
      "channel": 0,
      "note": 50,
      "start": 19.5976,
      "duration": 0.0941,
      "velocity": 107,
      "chip": "ym2612"
    },
    {
      "channel": 5,
      "note": 43,
      "start": 19.6009,
      "duration": 0.2076,
      "velocity": 88,
      "chip": "ym2612"
    },
    {
      "channel": 1,
      "note": 62,
      "start": 19.6951,
      "duration": 0.1132,
      "velocity": 79,
      "chip": "ym2612"
    },
    {
      "channel": 1,
      "note": 55,
      "start": 19.8116,
      "duration": 0.0968,
      "velocity": 79,
      "chip": "ym2612"
    },
    {
      "channel": 0,
      "note": 43,
      "start": 19.8143,
      "duration": 0.094,
      "velocity": 107,
      "chip": "ym2612"
    },
    {
      "channel": 1,
      "note": 62,
      "start": 19.9116,
      "duration": 0.1135,
      "velocity": 79,
      "chip": "ym2612"
    },
    {
      "channel": 1,
      "note": 61,
      "start": 20.0283,
      "duration": 0.0968,
      "velocity": 79,
      "chip": "ym2612"
    },
    {
      "channel": 0,
      "note": 50,
      "start": 20.031,
      "duration": 0.094,
      "velocity": 107,
      "chip": "ym2612"
    },
    {
      "channel": 1,
      "note": 62,
      "start": 20.1283,
      "duration": 0.1134,
      "velocity": 79,
      "chip": "ym2612"
    },
    {
      "channel": 4,
      "note": 80,
      "start": 20.1453,
      "duration": 0.3465,
      "velocity": 84,
      "chip": "ym2612"
    },
    {
      "channel": 1,
      "note": 55,
      "start": 20.2449,
      "duration": 0.0969,
      "velocity": 79,
      "chip": "ym2612"
    },
    {
      "channel": 0,
      "note": 47,
      "start": 20.2476,
      "duration": 0.094,
      "velocity": 107,
      "chip": "ym2612"
    },
    {
      "channel": 1,
      "note": 62,
      "start": 20.345,
      "duration": 0.0968,
      "velocity": 79,
      "chip": "ym2612"
    },
    {
      "channel": 1,
      "note": 61,
      "start": 20.445,
      "duration": 0.1135,
      "velocity": 79,
      "chip": "ym2612"
    },
    {
      "channel": 0,
      "note": 50,
      "start": 20.4476,
      "duration": 0.1107,
      "velocity": 107,
      "chip": "ym2612"
    },
    {
      "channel": 1,
      "note": 62,
      "start": 20.5617,
      "duration": 0.0968,
      "velocity": 79,
      "chip": "ym2612"
    },
    {
      "channel": 1,
      "note": 55,
      "start": 20.6616,
      "duration": 0.1135,
      "velocity": 79,
      "chip": "ym2612"
    },
    {
      "channel": 0,
      "note": 43,
      "start": 20.6643,
      "duration": 0.1107,
      "velocity": 107,
      "chip": "ym2612"
    },
    {
      "channel": 2,
      "note": 74,
      "start": 20.6667,
      "duration": 0.2087,
      "velocity": 117,
      "chip": "ym2612"
    },
    {
      "channel": 1,
      "note": 62,
      "start": 20.7787,
      "duration": 0.0964,
      "velocity": 79,
      "chip": "ym2612"
    },
    {
      "channel": 1,
      "note": 61,
      "start": 20.8784,
      "duration": 0.1134,
      "velocity": 79,
      "chip": "ym2612"
    },
    {
      "channel": 0,
      "note": 50,
      "start": 20.8811,
      "duration": 0.1105,
      "velocity": 107,
      "chip": "ym2612"
    },
    {
      "channel": 2,
      "note": 74,
      "start": 20.8835,
      "duration": 0.2086,
      "velocity": 117,
      "chip": "ym2612"
    },
    {
      "channel": 1,
      "note": 62,
      "start": 20.995,
      "duration": 0.0968,
      "velocity": 79,
      "chip": "ym2612"
    },
    {
      "channel": 1,
      "note": 55,
      "start": 21.0951,
      "duration": 0.1135,
      "velocity": 79,
      "chip": "ym2612"
    },
    {
      "channel": 0,
      "note": 47,
      "start": 21.0978,
      "duration": 0.1106,
      "velocity": 107,
      "chip": "ym2612"
    },
    {
      "channel": 1,
      "note": 62,
      "start": 21.2117,
      "duration": 0.0966,
      "velocity": 79,
      "chip": "ym2612"
    },
    {
      "channel": 1,
      "note": 61,
      "start": 21.3116,
      "duration": 0.1136,
      "velocity": 79,
      "chip": "ym2612"
    },
    {
      "channel": 0,
      "note": 50,
      "start": 21.3142,
      "duration": 0.1108,
      "velocity": 107,
      "chip": "ym2612"
    },
    {
      "channel": 2,
      "note": 74,
      "start": 21.3165,
      "duration": 0.2088,
      "velocity": 117,
      "chip": "ym2612"
    },
    {
      "channel": 1,
      "note": 62,
      "start": 21.4284,
      "duration": 0.0966,
      "velocity": 79,
      "chip": "ym2612"
    },
    {
      "channel": 1,
      "note": 55,
      "start": 21.5283,
      "duration": 0.0969,
      "velocity": 79,
      "chip": "ym2612"
    },
    {
      "channel": 0,
      "note": 43,
      "start": 21.531,
      "duration": 0.094,
      "velocity": 107,
      "chip": "ym2612"
    },
    {
      "channel": 1,
      "note": 62,
      "start": 21.6284,
      "duration": 0.1132,
      "velocity": 79,
      "chip": "ym2612"
    },
    {
      "channel": 1,
      "note": 61,
      "start": 21.7449,
      "duration": 0.0969,
      "velocity": 79,
      "chip": "ym2612"
    },
    {
      "channel": 0,
      "note": 50,
      "start": 21.748,
      "duration": 0.0937,
      "velocity": 107,
      "chip": "ym2612"
    },
    {
      "channel": 2,
      "note": 74,
      "start": 21.7502,
      "duration": 0.2085,
      "velocity": 117,
      "chip": "ym2612"
    },
    {
      "channel": 1,
      "note": 62,
      "start": 21.845,
      "duration": 0.1134,
      "velocity": 79,
      "chip": "ym2612"
    },
    {
      "channel": 1,
      "note": 55,
      "start": 21.9617,
      "duration": 0.0967,
      "velocity": 79,
      "chip": "ym2612"
    },
    {
      "channel": 0,
      "note": 47,
      "start": 21.9644,
      "duration": 0.0938,
      "velocity": 107,
      "chip": "ym2612"
    },
    {
      "channel": 1,
      "note": 62,
      "start": 22.0616,
      "duration": 0.1134,
      "velocity": 79,
      "chip": "ym2612"
    },
    {
      "channel": 1,
      "note": 61,
      "start": 22.1782,
      "duration": 0.097,
      "velocity": 79,
      "chip": "ym2612"
    },
    {
      "channel": 0,
      "note": 50,
      "start": 22.1809,
      "duration": 0.0941,
      "velocity": 107,
      "chip": "ym2612"
    },
    {
      "channel": 2,
      "note": 74,
      "start": 22.1837,
      "duration": 0.2083,
      "velocity": 117,
      "chip": "ym2612"
    },
    {
      "channel": 1,
      "note": 62,
      "start": 22.2784,
      "duration": 0.1132,
      "velocity": 79,
      "chip": "ym2612"
    },
    {
      "channel": 1,
      "note": 55,
      "start": 22.395,
      "duration": 0.0968,
      "velocity": 79,
      "chip": "ym2612"
    },
    {
      "channel": 0,
      "note": 43,
      "start": 22.3976,
      "duration": 0.094,
      "velocity": 107,
      "chip": "ym2612"
    },
    {
      "channel": 2,
      "note": 74,
      "start": 22.3999,
      "duration": 0.2088,
      "velocity": 117,
      "chip": "ym2612"
    },
    {
      "channel": 1,
      "note": 62,
      "start": 22.4954,
      "duration": 0.113,
      "velocity": 79,
      "chip": "ym2612"
    },
    {
      "channel": 1,
      "note": 61,
      "start": 22.6117,
      "duration": 0.0968,
      "velocity": 79,
      "chip": "ym2612"
    },
    {
      "channel": 0,
      "note": 50,
      "start": 22.6144,
      "duration": 0.0938,
      "velocity": 107,
      "chip": "ym2612"
    },
    {
      "channel": 2,
      "note": 74,
      "start": 22.6168,
      "duration": 0.1919,
      "velocity": 117,
      "chip": "ym2612"
    },
    {
      "channel": 1,
      "note": 62,
      "start": 22.7116,
      "duration": 0.0968,
      "velocity": 79,
      "chip": "ym2612"
    },
    {
      "channel": 1,
      "note": 55,
      "start": 22.8117,
      "duration": 0.1134,
      "velocity": 79,
      "chip": "ym2612"
    },
    {
      "channel": 0,
      "note": 47,
      "start": 22.8144,
      "duration": 0.1106,
      "velocity": 107,
      "chip": "ym2612"
    },
    {
      "channel": 1,
      "note": 62,
      "start": 22.9283,
      "duration": 0.0966,
      "velocity": 79,
      "chip": "ym2612"
    },
    {
      "channel": 1,
      "note": 61,
      "start": 23.0282,
      "duration": 0.1136,
      "velocity": 79,
      "chip": "ym2612"
    },
    {
      "channel": 0,
      "note": 50,
      "start": 23.0309,
      "duration": 0.1107,
      "velocity": 107,
      "chip": "ym2612"
    },
    {
      "channel": 2,
      "note": 74,
      "start": 23.0332,
      "duration": 0.2088,
      "velocity": 117,
      "chip": "ym2612"
    },
    {
      "channel": 1,
      "note": 62,
      "start": 23.145,
      "duration": 0.0966,
      "velocity": 79,
      "chip": "ym2612"
    },
    {
      "channel": 1,
      "note": 55,
      "start": 23.245,
      "duration": 0.1136,
      "velocity": 79,
      "chip": "ym2612"
    },
    {
      "channel": 0,
      "note": 43,
      "start": 23.2476,
      "duration": 0.1108,
      "velocity": 107,
      "chip": "ym2612"
    },
    {
      "channel": 1,
      "note": 62,
      "start": 23.3617,
      "duration": 0.0966,
      "velocity": 79,
      "chip": "ym2612"
    },
    {
      "channel": 1,
      "note": 61,
      "start": 23.4616,
      "duration": 0.1136,
      "velocity": 79,
      "chip": "ym2612"
    },
    {
      "channel": 0,
      "note": 50,
      "start": 23.4642,
      "duration": 0.1107,
      "velocity": 107,
      "chip": "ym2612"
    },
    {
      "channel": 2,
      "note": 74,
      "start": 23.4665,
      "duration": 0.2089,
      "velocity": 117,
      "chip": "ym2612"
    },
    {
      "channel": 1,
      "note": 62,
      "start": 23.5783,
      "duration": 0.0968,
      "velocity": 79,
      "chip": "ym2612"
    },
    {
      "channel": 1,
      "note": 55,
      "start": 23.6784,
      "duration": 0.1135,
      "velocity": 79,
      "chip": "ym2612"
    },
    {
      "channel": 0,
      "note": 47,
      "start": 23.6811,
      "duration": 0.1106,
      "velocity": 107,
      "chip": "ym2612"
    },
    {
      "channel": 1,
      "note": 62,
      "start": 23.7951,
      "duration": 0.0966,
      "velocity": 79,
      "chip": "ym2612"
    },
    {
      "channel": 1,
      "note": 61,
      "start": 23.8949,
      "duration": 0.097,
      "velocity": 79,
      "chip": "ym2612"
    },
    {
      "channel": 0,
      "note": 50,
      "start": 23.8976,
      "duration": 0.0941,
      "velocity": 107,
      "chip": "ym2612"
    },
    {
      "channel": 2,
      "note": 74,
      "start": 23.9002,
      "duration": 0.2085,
      "velocity": 117,
      "chip": "ym2612"
    },
    {
      "channel": 1,
      "note": 62,
      "start": 23.9951,
      "duration": 0.1132,
      "velocity": 79,
      "chip": "ym2612"
    },
    {
      "channel": 1,
      "note": 55,
      "start": 24.1116,
      "duration": 0.0968,
      "velocity": 79,
      "chip": "ym2612"
    },
    {
      "channel": 0,
      "note": 43,
      "start": 24.1143,
      "duration": 0.094,
      "velocity": 107,
      "chip": "ym2612"
    },
    {
      "channel": 1,
      "note": 62,
      "start": 24.212,
      "duration": 0.1131,
      "velocity": 79,
      "chip": "ym2612"
    },
    {
      "channel": 1,
      "note": 61,
      "start": 24.3283,
      "duration": 0.0968,
      "velocity": 79,
      "chip": "ym2612"
    },
    {
      "channel": 0,
      "note": 50,
      "start": 24.331,
      "duration": 0.094,
      "velocity": 107,
      "chip": "ym2612"
    },
    {
      "channel": 1,
      "note": 62,
      "start": 24.4283,
      "duration": 0.1134,
      "velocity": 79,
      "chip": "ym2612"
    },
    {
      "channel": 1,
      "note": 55,
      "start": 24.5449,
      "duration": 0.097,
      "velocity": 79,
      "chip": "ym2612"
    },
    {
      "channel": 0,
      "note": 47,
      "start": 24.5476,
      "duration": 0.0941,
      "velocity": 107,
      "chip": "ym2612"
    },
    {
      "channel": 1,
      "note": 62,
      "start": 24.6451,
      "duration": 0.1134,
      "velocity": 79,
      "chip": "ym2612"
    },
    {
      "channel": 1,
      "note": 61,
      "start": 24.7616,
      "duration": 0.0968,
      "velocity": 79,
      "chip": "ym2612"
    },
    {
      "channel": 0,
      "note": 50,
      "start": 24.7643,
      "duration": 0.094,
      "velocity": 107,
      "chip": "ym2612"
    },
    {
      "channel": 1,
      "note": 62,
      "start": 24.8616,
      "duration": 0.1135,
      "velocity": 79,
      "chip": "ym2612"
    },
    {
      "channel": 1,
      "note": 55,
      "start": 24.9783,
      "duration": 0.0968,
      "velocity": 79,
      "chip": "ym2612"
    },
    {
      "channel": 0,
      "note": 43,
      "start": 24.981,
      "duration": 0.094,
      "velocity": 107,
      "chip": "ym2612"
    },
    {
      "channel": 1,
      "note": 62,
      "start": 25.0783,
      "duration": 0.0968,
      "velocity": 79,
      "chip": "ym2612"
    },
    {
      "channel": 1,
      "note": 61,
      "start": 25.1783,
      "duration": 0.1135,
      "velocity": 79,
      "chip": "ym2612"
    },
    {
      "channel": 0,
      "note": 50,
      "start": 25.1813,
      "duration": 0.1102,
      "velocity": 107,
      "chip": "ym2612"
    },
    {
      "channel": 1,
      "note": 62,
      "start": 25.295,
      "duration": 0.0968,
      "velocity": 79,
      "chip": "ym2612"
    },
    {
      "channel": 1,
      "note": 55,
      "start": 25.3949,
      "duration": 0.1135,
      "velocity": 79,
      "chip": "ym2612"
    },
    {
      "channel": 0,
      "note": 47,
      "start": 25.3976,
      "duration": 0.1107,
      "velocity": 107,
      "chip": "ym2612"
    },
    {
      "channel": 1,
      "note": 62,
      "start": 25.5117,
      "duration": 0.0967,
      "velocity": 79,
      "chip": "ym2612"
    },
    {
      "channel": 1,
      "note": 61,
      "start": 25.6116,
      "duration": 0.1136,
      "velocity": 79,
      "chip": "ym2612"
    },
    {
      "channel": 0,
      "note": 50,
      "start": 25.6143,
      "duration": 0.1107,
      "velocity": 107,
      "chip": "ym2612"
    },
    {
      "channel": 1,
      "note": 62,
      "start": 25.7283,
      "duration": 0.0967,
      "velocity": 79,
      "chip": "ym2612"
    },
    {
      "channel": 1,
      "note": 55,
      "start": 25.8282,
      "duration": 0.1135,
      "velocity": 79,
      "chip": "ym2612"
    },
    {
      "channel": 0,
      "note": 43,
      "start": 25.8309,
      "duration": 0.1107,
      "velocity": 107,
      "chip": "ym2612"
    },
    {
      "channel": 1,
      "note": 62,
      "start": 25.9453,
      "duration": 0.0964,
      "velocity": 79,
      "chip": "ym2612"
    },
    {
      "channel": 1,
      "note": 61,
      "start": 26.045,
      "duration": 0.0969,
      "velocity": 79,
      "chip": "ym2612"
    },
    {
      "channel": 0,
      "note": 50,
      "start": 26.0476,
      "duration": 0.0941,
      "velocity": 107,
      "chip": "ym2612"
    },
    {
      "channel": 1,
      "note": 62,
      "start": 26.145,
      "duration": 0.1134,
      "velocity": 79,
      "chip": "ym2612"
    },
    {
      "channel": 1,
      "note": 55,
      "start": 26.2616,
      "duration": 0.0969,
      "velocity": 79,
      "chip": "ym2612"
    },
    {
      "channel": 0,
      "note": 47,
      "start": 26.2643,
      "duration": 0.0941,
      "velocity": 107,
      "chip": "ym2612"
    },
    {
      "channel": 1,
      "note": 62,
      "start": 26.3617,
      "duration": 0.1134,
      "velocity": 79,
      "chip": "ym2612"
    },
    {
      "channel": 1,
      "note": 61,
      "start": 26.4783,
      "duration": 0.0969,
      "velocity": 79,
      "chip": "ym2612"
    },
    {
      "channel": 0,
      "note": 50,
      "start": 26.481,
      "duration": 0.0941,
      "velocity": 107,
      "chip": "ym2612"
    },
    {
      "channel": 4,
      "note": 93,
      "start": 26.4953,
      "duration": 0.2798,
      "velocity": 84,
      "chip": "ym2612"
    },
    {
      "channel": 1,
      "note": 62,
      "start": 26.5784,
      "duration": 0.1134,
      "velocity": 79,
      "chip": "ym2612"
    },
    {
      "channel": 1,
      "note": 55,
      "start": 26.695,
      "duration": 0.0968,
      "velocity": 79,
      "chip": "ym2612"
    },
    {
      "channel": 0,
      "note": 43,
      "start": 26.6977,
      "duration": 0.094,
      "velocity": 107,
      "chip": "ym2612"
    },
    {
      "channel": 1,
      "note": 62,
      "start": 26.795,
      "duration": 0.1134,
      "velocity": 79,
      "chip": "ym2612"
    },
    {
      "channel": 1,
      "note": 61,
      "start": 26.9116,
      "duration": 0.097,
      "velocity": 79,
      "chip": "ym2612"
    },
    {
      "channel": 0,
      "note": 50,
      "start": 26.9142,
      "duration": 0.0941,
      "velocity": 107,
      "chip": "ym2612"
    },
    {
      "channel": 4,
      "note": 93,
      "start": 26.9786,
      "duration": 0.2965,
      "velocity": 84,
      "chip": "ym2612"
    },
    {
      "channel": 1,
      "note": 62,
      "start": 27.0117,
      "duration": 0.1134,
      "velocity": 79,
      "chip": "ym2612"
    },
    {
      "channel": 1,
      "note": 55,
      "start": 27.1283,
      "duration": 0.0968,
      "velocity": 79,
      "chip": "ym2612"
    },
    {
      "channel": 0,
      "note": 47,
      "start": 27.131,
      "duration": 0.094,
      "velocity": 107,
      "chip": "ym2612"
    },
    {
      "channel": 1,
      "note": 62,
      "start": 27.2283,
      "duration": 0.0966,
      "velocity": 79,
      "chip": "ym2612"
    },
    {
      "channel": 1,
      "note": 61,
      "start": 27.3282,
      "duration": 0.1135,
      "velocity": 79,
      "chip": "ym2612"
    },
    {
      "channel": 0,
      "note": 50,
      "start": 27.3309,
      "duration": 0.1107,
      "velocity": 107,
      "chip": "ym2612"
    },
    {
      "channel": 1,
      "note": 62,
      "start": 27.445,
      "duration": 0.0967,
      "velocity": 79,
      "chip": "ym2612"
    },
    {
      "channel": 1,
      "note": 57,
      "start": 27.5449,
      "duration": 0.1135,
      "velocity": 79,
      "chip": "ym2612"
    },
    {
      "channel": 0,
      "note": 45,
      "start": 27.5476,
      "duration": 0.1107,
      "velocity": 107,
      "chip": "ym2612"
    },
    {
      "channel": 2,
      "note": 74,
      "start": 27.55,
      "duration": 0.2087,
      "velocity": 117,
      "chip": "ym2612"
    },
    {
      "channel": 1,
      "note": 64,
      "start": 27.662,
      "duration": 0.0964,
      "velocity": 79,
      "chip": "ym2612"
    },
    {
      "channel": 4,
      "note": 93,
      "start": 27.6787,
      "duration": 0.3132,
      "velocity": 84,
      "chip": "ym2612"
    },
    {
      "channel": 1,
      "note": 63,
      "start": 27.7617,
      "duration": 0.1134,
      "velocity": 79,
      "chip": "ym2612"
    },
    {
      "channel": 0,
      "note": 52,
      "start": 27.7644,
      "duration": 0.1106,
      "velocity": 107,
      "chip": "ym2612"
    },
    {
      "channel": 2,
      "note": 74,
      "start": 27.7668,
      "duration": 0.2085,
      "velocity": 117,
      "chip": "ym2612"
    },
    {
      "channel": 1,
      "note": 64,
      "start": 27.8783,
      "duration": 0.0967,
      "velocity": 79,
      "chip": "ym2612"
    },
    {
      "channel": 1,
      "note": 57,
      "start": 27.9783,
      "duration": 0.1136,
      "velocity": 79,
      "chip": "ym2612"
    },
    {
      "channel": 0,
      "note": 49,
      "start": 27.981,
      "duration": 0.1107,
      "velocity": 107,
      "chip": "ym2612"
    },
    {
      "channel": 1,
      "note": 64,
      "start": 28.0951,
      "duration": 0.0967,
      "velocity": 79,
      "chip": "ym2612"
    },
    {
      "channel": 1,
      "note": 63,
      "start": 28.195,
      "duration": 0.1136,
      "velocity": 79,
      "chip": "ym2612"
    },
    {
      "channel": 0,
      "note": 52,
      "start": 28.1976,
      "duration": 0.1108,
      "velocity": 107,
      "chip": "ym2612"
    },
    {
      "channel": 2,
      "note": 74,
      "start": 28.1999,
      "duration": 0.2087,
      "velocity": 117,
      "chip": "ym2612"
    },
    {
      "channel": 1,
      "note": 64,
      "start": 28.3117,
      "duration": 0.0966,
      "velocity": 79,
      "chip": "ym2612"
    },
    {
      "channel": 1,
      "note": 57,
      "start": 28.4116,
      "duration": 0.0968,
      "velocity": 79,
      "chip": "ym2612"
    },
    {
      "channel": 0,
      "note": 45,
      "start": 28.4143,
      "duration": 0.094,
      "velocity": 107,
      "chip": "ym2612"
    },
    {
      "channel": 1,
      "note": 64,
      "start": 28.5116,
      "duration": 0.1135,
      "velocity": 79,
      "chip": "ym2612"
    },
    {
      "channel": 1,
      "note": 63,
      "start": 28.6283,
      "duration": 0.0968,
      "velocity": 79,
      "chip": "ym2612"
    },
    {
      "channel": 0,
      "note": 52,
      "start": 28.6313,
      "duration": 0.0936,
      "velocity": 107,
      "chip": "ym2612"
    },
    {
      "channel": 2,
      "note": 74,
      "start": 28.6336,
      "duration": 0.2083,
      "velocity": 117,
      "chip": "ym2612"
    },
    {
      "channel": 1,
      "note": 64,
      "start": 28.7283,
      "duration": 0.1134,
      "velocity": 79,
      "chip": "ym2612"
    },
    {
      "channel": 1,
      "note": 57,
      "start": 28.845,
      "duration": 0.0968,
      "velocity": 79,
      "chip": "ym2612"
    },
    {
      "channel": 0,
      "note": 49,
      "start": 28.8476,
      "duration": 0.094,
      "velocity": 107,
      "chip": "ym2612"
    },
    {
      "channel": 1,
      "note": 64,
      "start": 28.945,
      "duration": 0.1135,
      "velocity": 79,
      "chip": "ym2612"
    },
    {
      "channel": 1,
      "note": 63,
      "start": 29.0616,
      "duration": 0.0969,
      "velocity": 79,
      "chip": "ym2612"
    },
    {
      "channel": 0,
      "note": 52,
      "start": 29.0643,
      "duration": 0.0941,
      "velocity": 107,
      "chip": "ym2612"
    },
    {
      "channel": 2,
      "note": 74,
      "start": 29.0671,
      "duration": 0.2082,
      "velocity": 117,
      "chip": "ym2612"
    },
    {
      "channel": 1,
      "note": 64,
      "start": 29.1617,
      "duration": 0.1132,
      "velocity": 79,
      "chip": "ym2612"
    },
    {
      "channel": 1,
      "note": 57,
      "start": 29.2783,
      "duration": 0.0968,
      "velocity": 79,
      "chip": "ym2612"
    },
    {
      "channel": 0,
      "note": 45,
      "start": 29.281,
      "duration": 0.094,
      "velocity": 107,
      "chip": "ym2612"
    },
    {
      "channel": 2,
      "note": 74,
      "start": 29.2832,
      "duration": 0.2088,
      "velocity": 117,
      "chip": "ym2612"
    },
    {
      "channel": 1,
      "note": 64,
      "start": 29.3787,
      "duration": 0.1131,
      "velocity": 79,
      "chip": "ym2612"
    },
    {
      "channel": 1,
      "note": 63,
      "start": 29.4951,
      "duration": 0.0967,
      "velocity": 79,
      "chip": "ym2612"
    },
    {
      "channel": 0,
      "note": 52,
      "start": 29.4978,
      "duration": 0.0938,
      "velocity": 107,
      "chip": "ym2612"
    },
    {
      "channel": 2,
      "note": 74,
      "start": 29.5002,
      "duration": 0.1919,
      "velocity": 117,
      "chip": "ym2612"
    },
    {
      "channel": 1,
      "note": 64,
      "start": 29.595,
      "duration": 0.0968,
      "velocity": 79,
      "chip": "ym2612"
    },
    {
      "channel": 1,
      "note": 57,
      "start": 29.695,
      "duration": 0.1134,
      "velocity": 79,
      "chip": "ym2612"
    },
    {
      "channel": 0,
      "note": 49,
      "start": 29.6977,
      "duration": 0.1106,
      "velocity": 107,
      "chip": "ym2612"
    },
    {
      "channel": 1,
      "note": 64,
      "start": 29.8116,
      "duration": 0.0968,
      "velocity": 79,
      "chip": "ym2612"
    },
    {
      "channel": 1,
      "note": 63,
      "start": 29.9116,
      "duration": 0.1136,
      "velocity": 79,
      "chip": "ym2612"
    },
    {
      "channel": 0,
      "note": 52,
      "start": 29.9142,
      "duration": 0.1107,
      "velocity": 107,
      "chip": "ym2612"
    },
    {
      "channel": 2,
      "note": 74,
      "start": 29.9165,
      "duration": 0.2089,
      "velocity": 117,
      "chip": "ym2612"
    },
    {
      "channel": 1,
      "note": 64,
      "start": 30.0283,
      "duration": 0.0968,
      "velocity": 79,
      "chip": "ym2612"
    },
    {
      "channel": 1,
      "note": 57,
      "start": 30.1284,
      "duration": 0.1134,
      "velocity": 79,
      "chip": "ym2612"
    },
    {
      "channel": 0,
      "note": 45,
      "start": 30.1311,
      "duration": 0.1106,
      "velocity": 107,
      "chip": "ym2612"
    },
    {
      "channel": 1,
      "note": 64,
      "start": 30.245,
      "duration": 0.0966,
      "velocity": 79,
      "chip": "ym2612"
    },
    {
      "channel": 1,
      "note": 63,
      "start": 30.3449,
      "duration": 0.1135,
      "velocity": 79,
      "chip": "ym2612"
    },
    {
      "channel": 0,
      "note": 52,
      "start": 30.3476,
      "duration": 0.1107,
      "velocity": 107,
      "chip": "ym2612"
    },
    {
      "channel": 2,
      "note": 74,
      "start": 30.3499,
      "duration": 0.2088,
      "velocity": 117,
      "chip": "ym2612"
    },
    {
      "channel": 1,
      "note": 64,
      "start": 30.4616,
      "duration": 0.0968,
      "velocity": 79,
      "chip": "ym2612"
    },
    {
      "channel": 1,
      "note": 57,
      "start": 30.5617,
      "duration": 0.1136,
      "velocity": 79,
      "chip": "ym2612"
    },
    {
      "channel": 0,
      "note": 49,
      "start": 30.5644,
      "duration": 0.1107,
      "velocity": 107,
      "chip": "ym2612"
    },
    {
      "channel": 1,
      "note": 64,
      "start": 30.6784,
      "duration": 0.0967,
      "velocity": 79,
      "chip": "ym2612"
    },
    {
      "channel": 1,
      "note": 63,
      "start": 30.7783,
      "duration": 0.0968,
      "velocity": 79,
      "chip": "ym2612"
    },
    {
      "channel": 0,
      "note": 52,
      "start": 30.781,
      "duration": 0.094,
      "velocity": 107,
      "chip": "ym2612"
    },
    {
      "channel": 2,
      "note": 74,
      "start": 30.7836,
      "duration": 0.2085,
      "velocity": 117,
      "chip": "ym2612"
    },
    {
      "channel": 1,
      "note": 64,
      "start": 30.8783,
      "duration": 0.1134,
      "velocity": 79,
      "chip": "ym2612"
    },
    {
      "channel": 1,
      "note": 57,
      "start": 30.995,
      "duration": 0.0968,
      "velocity": 79,
      "chip": "ym2612"
    },
    {
      "channel": 0,
      "note": 45,
      "start": 30.9977,
      "duration": 0.094,
      "velocity": 107,
      "chip": "ym2612"
    },
    {
      "channel": 1,
      "note": 64,
      "start": 31.0955,
      "duration": 0.1129,
      "velocity": 79,
      "chip": "ym2612"
    },
    {
      "channel": 1,
      "note": 63,
      "start": 31.2116,
      "duration": 0.0969,
      "velocity": 79,
      "chip": "ym2612"
    },
    {
      "channel": 0,
      "note": 52,
      "start": 31.2142,
      "duration": 0.0941,
      "velocity": 107,
      "chip": "ym2612"
    },
    {
      "channel": 1,
      "note": 64,
      "start": 31.3116,
      "duration": 0.1134,
      "velocity": 79,
      "chip": "ym2612"
    },
    {
      "channel": 1,
      "note": 57,
      "start": 31.4282,
      "duration": 0.0969,
      "velocity": 79,
      "chip": "ym2612"
    },
    {
      "channel": 0,
      "note": 49,
      "start": 31.4309,
      "duration": 0.0941,
      "velocity": 107,
      "chip": "ym2612"
    },
    {
      "channel": 5,
      "note": 45,
      "start": 31.4337,
      "duration": 0.2082,
      "velocity": 88,
      "chip": "ym2612"
    },
    {
      "channel": 1,
      "note": 64,
      "start": 31.5283,
      "duration": 0.1133,
      "velocity": 79,
      "chip": "ym2612"
    },
    {
      "channel": 1,
      "note": 63,
      "start": 31.645,
      "duration": 0.0968,
      "velocity": 79,
      "chip": "ym2612"
    },
    {
      "channel": 0,
      "note": 52,
      "start": 31.6476,
      "duration": 0.094,
      "velocity": 107,
      "chip": "ym2612"
    },
    {
      "channel": 1,
      "note": 64,
      "start": 31.745,
      "duration": 0.1135,
      "velocity": 79,
      "chip": "ym2612"
    },
    {
      "channel": 1,
      "note": 57,
      "start": 31.8616,
      "duration": 0.0968,
      "velocity": 79,
      "chip": "ym2612"
    },
    {
      "channel": 0,
      "note": 45,
      "start": 31.8643,
      "duration": 0.094,
      "velocity": 107,
      "chip": "ym2612"
    },
    {
      "channel": 5,
      "note": 45,
      "start": 31.867,
      "duration": 0.1917,
      "velocity": 88,
      "chip": "ym2612"
    },
    {
      "channel": 1,
      "note": 64,
      "start": 31.9616,
      "duration": 0.0968,
      "velocity": 79,
      "chip": "ym2612"
    },
    {
      "channel": 1,
      "note": 63,
      "start": 32.0617,
      "duration": 0.1136,
      "velocity": 79,
      "chip": "ym2612"
    },
    {
      "channel": 0,
      "note": 52,
      "start": 32.0647,
      "duration": 0.1104,
      "velocity": 107,
      "chip": "ym2612"
    },
    {
      "channel": 1,
      "note": 64,
      "start": 32.1784,
      "duration": 0.0967,
      "velocity": 79,
      "chip": "ym2612"
    },
    {
      "channel": 1,
      "note": 57,
      "start": 32.2783,
      "duration": 0.1136,
      "velocity": 79,
      "chip": "ym2612"
    },
    {
      "channel": 0,
      "note": 49,
      "start": 32.281,
      "duration": 0.1108,
      "velocity": 107,
      "chip": "ym2612"
    },
    {
      "channel": 5,
      "note": 45,
      "start": 32.2836,
      "duration": 0.2083,
      "velocity": 88,
      "chip": "ym2612"
    },
    {
      "channel": 1,
      "note": 64,
      "start": 32.3951,
      "duration": 0.0966,
      "velocity": 79,
      "chip": "ym2612"
    },
    {
      "channel": 1,
      "note": 63,
      "start": 32.495,
      "duration": 0.1134,
      "velocity": 79,
      "chip": "ym2612"
    },
    {
      "channel": 0,
      "note": 52,
      "start": 32.4977,
      "duration": 0.1106,
      "velocity": 107,
      "chip": "ym2612"
    },
    {
      "channel": 1,
      "note": 64,
      "start": 32.6116,
      "duration": 0.0968,
      "velocity": 79,
      "chip": "ym2612"
    },
    {
      "channel": 1,
      "note": 57,
      "start": 32.7116,
      "duration": 0.1135,
      "velocity": 79,
      "chip": "ym2612"
    },
    {
      "channel": 0,
      "note": 45,
      "start": 32.7144,
      "duration": 0.1106,
      "velocity": 107,
      "chip": "ym2612"
    },
    {
      "channel": 5,
      "note": 48,
      "start": 32.7172,
      "duration": 0.2081,
      "velocity": 88,
      "chip": "ym2612"
    },
    {
      "channel": 1,
      "note": 64,
      "start": 32.8287,
      "duration": 0.0964,
      "velocity": 79,
      "chip": "ym2612"
    },
    {
      "channel": 1,
      "note": 63,
      "start": 32.9283,
      "duration": 0.1136,
      "velocity": 79,
      "chip": "ym2612"
    },
    {
      "channel": 0,
      "note": 52,
      "start": 32.931,
      "duration": 0.1108,
      "velocity": 107,
      "chip": "ym2612"
    },
    {
      "channel": 5,
      "note": 45,
      "start": 32.9336,
      "duration": 0.2083,
      "velocity": 88,
      "chip": "ym2612"
    },
    {
      "channel": 1,
      "note": 64,
      "start": 33.0451,
      "duration": 0.0966,
      "velocity": 79,
      "chip": "ym2612"
    },
    {
      "channel": 1,
      "note": 57,
      "start": 33.145,
      "duration": 0.0968,
      "velocity": 79,
      "chip": "ym2612"
    },
    {
      "channel": 0,
      "note": 49,
      "start": 33.1476,
      "duration": 0.094,
      "velocity": 107,
      "chip": "ym2612"
    },
    {
      "channel": 5,
      "note": 43,
      "start": 33.1503,
      "duration": 0.2083,
      "velocity": 88,
      "chip": "ym2612"
    },
    {
      "channel": 1,
      "note": 64,
      "start": 33.245,
      "duration": 0.1134,
      "velocity": 79,
      "chip": "ym2612"
    },
    {
      "channel": 1,
      "note": 63,
      "start": 33.3617,
      "duration": 0.0968,
      "velocity": 79,
      "chip": "ym2612"
    },
    {
      "channel": 0,
      "note": 52,
      "start": 33.3644,
      "duration": 0.094,
      "velocity": 107,
      "chip": "ym2612"
    },
    {
      "channel": 5,
      "note": 45,
      "start": 33.3673,
      "duration": 0.208,
      "velocity": 88,
      "chip": "ym2612"
    },
    {
      "channel": 1,
      "note": 64,
      "start": 33.4617,
      "duration": 0.1133,
      "velocity": 79,
      "chip": "ym2612"
    },
    {
      "channel": 1,
      "note": 57,
      "start": 33.5783,
      "duration": 0.0969,
      "velocity": 79,
      "chip": "ym2612"
    },
    {
      "channel": 0,
      "note": 45,
      "start": 33.581,
      "duration": 0.0941,
      "velocity": 107,
      "chip": "ym2612"
    },
    {
      "channel": 1,
      "note": 64,
      "start": 33.6784,
      "duration": 0.1133,
      "velocity": 79,
      "chip": "ym2612"
    },
    {
      "channel": 4,
      "note": 80,
      "start": 33.6954,
      "duration": 0.3797,
      "velocity": 84,
      "chip": "ym2612"
    },
    {
      "channel": 1,
      "note": 63,
      "start": 33.7949,
      "duration": 0.0969,
      "velocity": 79,
      "chip": "ym2612"
    },
    {
      "channel": 0,
      "note": 52,
      "start": 33.7976,
      "duration": 0.094,
      "velocity": 107,
      "chip": "ym2612"
    },
    {
      "channel": 1,
      "note": 64,
      "start": 33.895,
      "duration": 0.1134,
      "velocity": 79,
      "chip": "ym2612"
    },
    {
      "channel": 1,
      "note": 57,
      "start": 34.0116,
      "duration": 0.0969,
      "velocity": 79,
      "chip": "ym2612"
    },
    {
      "channel": 0,
      "note": 49,
      "start": 34.0144,
      "duration": 0.094,
      "velocity": 107,
      "chip": "ym2612"
    },
    {
      "channel": 1,
      "note": 64,
      "start": 34.1117,
      "duration": 0.1134,
      "velocity": 79,
      "chip": "ym2612"
    },
    {
      "channel": 1,
      "note": 63,
      "start": 34.2283,
      "duration": 0.0969,
      "velocity": 79,
      "chip": "ym2612"
    },
    {
      "channel": 0,
      "note": 52,
      "start": 34.231,
      "duration": 0.094,
      "velocity": 107,
      "chip": "ym2612"
    },
    {
      "channel": 1,
      "note": 64,
      "start": 34.3283,
      "duration": 0.0968,
      "velocity": 79,
      "chip": "ym2612"
    },
    {
      "channel": 1,
      "note": 57,
      "start": 34.4283,
      "duration": 0.1136,
      "velocity": 79,
      "chip": "ym2612"
    },
    {
      "channel": 0,
      "note": 45,
      "start": 34.431,
      "duration": 0.1108,
      "velocity": 107,
      "chip": "ym2612"
    },
    {
      "channel": 2,
      "note": 74,
      "start": 34.4334,
      "duration": 0.2086,
      "velocity": 117,
      "chip": "ym2612"
    },
    {
      "channel": 1,
      "note": 64,
      "start": 34.5455,
      "duration": 0.0963,
      "velocity": 79,
      "chip": "ym2612"
    },
    {
      "channel": 1,
      "note": 63,
      "start": 34.645,
      "duration": 0.1135,
      "velocity": 79,
      "chip": "ym2612"
    },
    {
      "channel": 0,
      "note": 52,
      "start": 34.6476,
      "duration": 0.1106,
      "velocity": 107,
      "chip": "ym2612"
    },
    {
      "channel": 2,
      "note": 74,
      "start": 34.65,
      "duration": 0.2087,
      "velocity": 117,
      "chip": "ym2612"
    },
    {
      "channel": 1,
      "note": 64,
      "start": 34.7616,
      "duration": 0.0968,
      "velocity": 79,
      "chip": "ym2612"
    },
    {
      "channel": 1,
      "note": 57,
      "start": 34.8617,
      "duration": 0.1135,
      "velocity": 79,
      "chip": "ym2612"
    },
    {
      "channel": 0,
      "note": 49,
      "start": 34.8644,
      "duration": 0.1106,
      "velocity": 107,
      "chip": "ym2612"
    },
    {
      "channel": 1,
      "note": 64,
      "start": 34.9783,
      "duration": 0.0968,
      "velocity": 79,
      "chip": "ym2612"
    },
    {
      "channel": 1,
      "note": 63,
      "start": 35.0783,
      "duration": 0.1135,
      "velocity": 79,
      "chip": "ym2612"
    },
    {
      "channel": 0,
      "note": 52,
      "start": 35.081,
      "duration": 0.1107,
      "velocity": 107,
      "chip": "ym2612"
    },
    {
      "channel": 2,
      "note": 74,
      "start": 35.0832,
      "duration": 0.2087,
      "velocity": 117,
      "chip": "ym2612"
    },
    {
      "channel": 1,
      "note": 64,
      "start": 35.195,
      "duration": 0.0967,
      "velocity": 79,
      "chip": "ym2612"
    },
    {
      "channel": 1,
      "note": 57,
      "start": 35.295,
      "duration": 0.1136,
      "velocity": 79,
      "chip": "ym2612"
    },
    {
      "channel": 0,
      "note": 45,
      "start": 35.2976,
      "duration": 0.1108,
      "velocity": 107,
      "chip": "ym2612"
    },
    {
      "channel": 1,
      "note": 64,
      "start": 35.4117,
      "duration": 0.0966,
      "velocity": 79,
      "chip": "ym2612"
    },
    {
      "channel": 1,
      "note": 63,
      "start": 35.5116,
      "duration": 0.0969,
      "velocity": 79,
      "chip": "ym2612"
    },
    {
      "channel": 0,
      "note": 52,
      "start": 35.5146,
      "duration": 0.0937,
      "velocity": 107,
      "chip": "ym2612"
    },
    {
      "channel": 2,
      "note": 74,
      "start": 35.5169,
      "duration": 0.2085,
      "velocity": 117,
      "chip": "ym2612"
    },
    {
      "channel": 1,
      "note": 64,
      "start": 35.6117,
      "duration": 0.1134,
      "velocity": 79,
      "chip": "ym2612"
    },
    {
      "channel": 4,
      "note": 80,
      "start": 35.6453,
      "duration": 0.3298,
      "velocity": 84,
      "chip": "ym2612"
    },
    {
      "channel": 1,
      "note": 57,
      "start": 35.7284,
      "duration": 0.0967,
      "velocity": 79,
      "chip": "ym2612"
    },
    {
      "channel": 0,
      "note": 49,
      "start": 35.7311,
      "duration": 0.0939,
      "velocity": 107,
      "chip": "ym2612"
    },
    {
      "channel": 1,
      "note": 64,
      "start": 35.8283,
      "duration": 0.1134,
      "velocity": 79,
      "chip": "ym2612"
    },
    {
      "channel": 1,
      "note": 63,
      "start": 35.945,
      "duration": 0.0968,
      "velocity": 79,
      "chip": "ym2612"
    },
    {
      "channel": 0,
      "note": 52,
      "start": 35.9476,
      "duration": 0.094,
      "velocity": 107,
      "chip": "ym2612"
    },
    {
      "channel": 2,
      "note": 74,
      "start": 35.9504,
      "duration": 0.2082,
      "velocity": 117,
      "chip": "ym2612"
    },
    {
      "channel": 1,
      "note": 64,
      "start": 36.045,
      "duration": 0.1134,
      "velocity": 79,
      "chip": "ym2612"
    },
    {
      "channel": 1,
      "note": 57,
      "start": 36.1616,
      "duration": 0.0969,
      "velocity": 79,
      "chip": "ym2612"
    },
    {
      "channel": 0,
      "note": 45,
      "start": 36.1643,
      "duration": 0.094,
      "velocity": 107,
      "chip": "ym2612"
    },
    {
      "channel": 2,
      "note": 74,
      "start": 36.1666,
      "duration": 0.2087,
      "velocity": 117,
      "chip": "ym2612"
    },
    {
      "channel": 1,
      "note": 64,
      "start": 36.2621,
      "duration": 0.113,
      "velocity": 79,
      "chip": "ym2612"
    },
    {
      "channel": 1,
      "note": 63,
      "start": 36.3783,
      "duration": 0.0969,
      "velocity": 79,
      "chip": "ym2612"
    },
    {
      "channel": 0,
      "note": 52,
      "start": 36.381,
      "duration": 0.094,
      "velocity": 107,
      "chip": "ym2612"
    },
    {
      "channel": 2,
      "note": 74,
      "start": 36.3834,
      "duration": 0.2086,
      "velocity": 117,
      "chip": "ym2612"
    },
    {
      "channel": 1,
      "note": 64,
      "start": 36.4784,
      "duration": 0.1134,
      "velocity": 79,
      "chip": "ym2612"
    },
    {
      "channel": 1,
      "note": 57,
      "start": 36.5951,
      "duration": 0.0968,
      "velocity": 79,
      "chip": "ym2612"
    },
    {
      "channel": 0,
      "note": 49,
      "start": 36.5978,
      "duration": 0.094,
      "velocity": 107,
      "chip": "ym2612"
    },
    {
      "channel": 1,
      "note": 64,
      "start": 36.6951,
      "duration": 0.0966,
      "velocity": 79,
      "chip": "ym2612"
    },
    {
      "channel": 1,
      "note": 63,
      "start": 36.795,
      "duration": 0.1136,
      "velocity": 79,
      "chip": "ym2612"
    },
    {
      "channel": 0,
      "note": 52,
      "start": 36.7976,
      "duration": 0.1108,
      "velocity": 107,
      "chip": "ym2612"
    },
    {
      "channel": 2,
      "note": 74,
      "start": 36.7999,
      "duration": 0.2088,
      "velocity": 117,
      "chip": "ym2612"
    },
    {
      "channel": 1,
      "note": 64,
      "start": 36.9117,
      "duration": 0.0966,
      "velocity": 79,
      "chip": "ym2612"
    },
    {
      "channel": 1,
      "note": 57,
      "start": 37.0117,
      "duration": 0.1134,
      "velocity": 79,
      "chip": "ym2612"
    },
    {
      "channel": 0,
      "note": 45,
      "start": 37.0144,
      "duration": 0.1106,
      "velocity": 107,
      "chip": "ym2612"
    },
    {
      "channel": 1,
      "note": 64,
      "start": 37.1283,
      "duration": 0.0967,
      "velocity": 79,
      "chip": "ym2612"
    },
    {
      "channel": 1,
      "note": 63,
      "start": 37.2282,
      "duration": 0.1136,
      "velocity": 79,
      "chip": "ym2612"
    },
    {
      "channel": 0,
      "note": 52,
      "start": 37.2309,
      "duration": 0.1108,
      "velocity": 107,
      "chip": "ym2612"
    },
    {
      "channel": 2,
      "note": 74,
      "start": 37.2332,
      "duration": 0.2088,
      "velocity": 117,
      "chip": "ym2612"
    },
    {
      "channel": 1,
      "note": 64,
      "start": 37.345,
      "duration": 0.0967,
      "velocity": 79,
      "chip": "ym2612"
    },
    {
      "channel": 1,
      "note": 57,
      "start": 37.445,
      "duration": 0.1134,
      "velocity": 79,
      "chip": "ym2612"
    },
    {
      "channel": 0,
      "note": 49,
      "start": 37.4477,
      "duration": 0.1106,
      "velocity": 107,
      "chip": "ym2612"
    },
    {
      "channel": 1,
      "note": 64,
      "start": 37.5616,
      "duration": 0.0968,
      "velocity": 79,
      "chip": "ym2612"
    },
    {
      "channel": 1,
      "note": 63,
      "start": 37.6616,
      "duration": 0.1136,
      "velocity": 79,
      "chip": "ym2612"
    },
    {
      "channel": 0,
      "note": 52,
      "start": 37.6642,
      "duration": 0.1108,
      "velocity": 107,
      "chip": "ym2612"
    },
    {
      "channel": 2,
      "note": 74,
      "start": 37.6668,
      "duration": 0.2085,
      "velocity": 117,
      "chip": "ym2612"
    },
    {
      "channel": 1,
      "note": 64,
      "start": 37.7783,
      "duration": 0.0967,
      "velocity": 79,
      "chip": "ym2612"
    },
    {
      "channel": 1,
      "note": 57,
      "start": 37.8783,
      "duration": 0.0968,
      "velocity": 79,
      "chip": "ym2612"
    },
    {
      "channel": 0,
      "note": 45,
      "start": 37.881,
      "duration": 0.094,
      "velocity": 107,
      "chip": "ym2612"
    },
    {
      "channel": 1,
      "note": 64,
      "start": 37.9787,
      "duration": 0.1131,
      "velocity": 79,
      "chip": "ym2612"
    },
    {
      "channel": 1,
      "note": 63,
      "start": 38.0949,
      "duration": 0.0969,
      "velocity": 79,
      "chip": "ym2612"
    },
    {
      "channel": 0,
      "note": 52,
      "start": 38.0976,
      "duration": 0.0941,
      "velocity": 107,
      "chip": "ym2612"
    },
    {
      "channel": 1,
      "note": 64,
      "start": 38.195,
      "duration": 0.1134,
      "velocity": 79,
      "chip": "ym2612"
    },
    {
      "channel": 1,
      "note": 57,
      "start": 38.3116,
      "duration": 0.097,
      "velocity": 79,
      "chip": "ym2612"
    },
    {
      "channel": 0,
      "note": 49,
      "start": 38.3143,
      "duration": 0.0941,
      "velocity": 107,
      "chip": "ym2612"
    },
    {
      "channel": 1,
      "note": 64,
      "start": 38.4117,
      "duration": 0.1134,
      "velocity": 79,
      "chip": "ym2612"
    },
    {
      "channel": 1,
      "note": 63,
      "start": 38.5283,
      "duration": 0.0969,
      "velocity": 79,
      "chip": "ym2612"
    },
    {
      "channel": 0,
      "note": 52,
      "start": 38.531,
      "duration": 0.0941,
      "velocity": 107,
      "chip": "ym2612"
    },
    {
      "channel": 1,
      "note": 64,
      "start": 38.6284,
      "duration": 0.1134,
      "velocity": 79,
      "chip": "ym2612"
    },
    {
      "channel": 1,
      "note": 57,
      "start": 38.745,
      "duration": 0.0969,
      "velocity": 79,
      "chip": "ym2612"
    },
    {
      "channel": 0,
      "note": 45,
      "start": 38.7476,
      "duration": 0.0941,
      "velocity": 107,
      "chip": "ym2612"
    },
    {
      "channel": 1,
      "note": 64,
      "start": 38.8451,
      "duration": 0.0966,
      "velocity": 79,
      "chip": "ym2612"
    },
    {
      "channel": 1,
      "note": 63,
      "start": 38.9449,
      "duration": 0.1135,
      "velocity": 79,
      "chip": "ym2612"
    },
    {
      "channel": 0,
      "note": 52,
      "start": 38.948,
      "duration": 0.1103,
      "velocity": 107,
      "chip": "ym2612"
    },
    {
      "channel": 1,
      "note": 64,
      "start": 39.0616,
      "duration": 0.0968,
      "velocity": 79,
      "chip": "ym2612"
    },
    {
      "channel": 1,
      "note": 57,
      "start": 39.1616,
      "duration": 0.1136,
      "velocity": 79,
      "chip": "ym2612"
    },
    {
      "channel": 0,
      "note": 49,
      "start": 39.1642,
      "duration": 0.1108,
      "velocity": 107,
      "chip": "ym2612"
    },
    {
      "channel": 1,
      "note": 64,
      "start": 39.2783,
      "duration": 0.0968,
      "velocity": 79,
      "chip": "ym2612"
    },
    {
      "channel": 1,
      "note": 63,
      "start": 39.3783,
      "duration": 0.1136,
      "velocity": 79,
      "chip": "ym2612"
    },
    {
      "channel": 0,
      "note": 52,
      "start": 39.381,
      "duration": 0.1108,
      "velocity": 107,
      "chip": "ym2612"
    },
    {
      "channel": 1,
      "note": 64,
      "start": 39.4951,
      "duration": 0.0966,
      "velocity": 79,
      "chip": "ym2612"
    },
    {
      "channel": 1,
      "note": 57,
      "start": 39.5949,
      "duration": 0.1135,
      "velocity": 79,
      "chip": "ym2612"
    },
    {
      "channel": 0,
      "note": 45,
      "start": 39.5976,
      "duration": 0.1107,
      "velocity": 107,
      "chip": "ym2612"
    },
    {
      "channel": 1,
      "note": 64,
      "start": 39.712,
      "duration": 0.0964,
      "velocity": 79,
      "chip": "ym2612"
    },
    {
      "channel": 1,
      "note": 63,
      "start": 39.8116,
      "duration": 0.1136,
      "velocity": 79,
      "chip": "ym2612"
    },
    {
      "channel": 0,
      "note": 52,
      "start": 39.8143,
      "duration": 0.1108,
      "velocity": 107,
      "chip": "ym2612"
    },
    {
      "channel": 1,
      "note": 64,
      "start": 39.9284,
      "duration": 0.0966,
      "velocity": 79,
      "chip": "ym2612"
    },
    {
      "channel": 1,
      "note": 57,
      "start": 40.0282,
      "duration": 0.0969,
      "velocity": 79,
      "chip": "ym2612"
    },
    {
      "channel": 0,
      "note": 49,
      "start": 40.0309,
      "duration": 0.0941,
      "velocity": 107,
      "chip": "ym2612"
    },
    {
      "channel": 1,
      "note": 64,
      "start": 40.1283,
      "duration": 0.1134,
      "velocity": 79,
      "chip": "ym2612"
    },
    {
      "channel": 1,
      "note": 63,
      "start": 40.245,
      "duration": 0.0969,
      "velocity": 79,
      "chip": "ym2612"
    },
    {
      "channel": 0,
      "note": 52,
      "start": 40.2476,
      "duration": 0.0941,
      "velocity": 107,
      "chip": "ym2612"
    },
    {
      "channel": 1,
      "note": 64,
      "start": 40.3451,
      "duration": 0.1134,
      "velocity": 79,
      "chip": "ym2612"
    },
    {
      "channel": 1,
      "note": 57,
      "start": 40.4616,
      "duration": 0.0969,
      "velocity": 79,
      "chip": "ym2612"
    },
    {
      "channel": 0,
      "note": 45,
      "start": 40.4643,
      "duration": 0.0941,
      "velocity": 107,
      "chip": "ym2612"
    },
    {
      "channel": 1,
      "note": 64,
      "start": 40.5617,
      "duration": 0.1133,
      "velocity": 79,
      "chip": "ym2612"
    },
    {
      "channel": 1,
      "note": 63,
      "start": 40.6782,
      "duration": 0.097,
      "velocity": 79,
      "chip": "ym2612"
    },
    {
      "channel": 0,
      "note": 52,
      "start": 40.681,
      "duration": 0.0941,
      "velocity": 107,
      "chip": "ym2612"
    },
    {
      "channel": 1,
      "note": 64,
      "start": 40.7783,
      "duration": 0.1134,
      "velocity": 79,
      "chip": "ym2612"
    },
    {
      "channel": 1,
      "note": 57,
      "start": 40.8949,
      "duration": 0.0969,
      "velocity": 79,
      "chip": "ym2612"
    },
    {
      "channel": 0,
      "note": 49,
      "start": 40.8976,
      "duration": 0.0941,
      "velocity": 107,
      "chip": "ym2612"
    },
    {
      "channel": 1,
      "note": 64,
      "start": 40.995,
      "duration": 0.1134,
      "velocity": 79,
      "chip": "ym2612"
    },
    {
      "channel": 1,
      "note": 63,
      "start": 41.1116,
      "duration": 0.0968,
      "velocity": 79,
      "chip": "ym2612"
    },
    {
      "channel": 0,
      "note": 52,
      "start": 41.1143,
      "duration": 0.094,
      "velocity": 107,
      "chip": "ym2612"
    },
    {
      "channel": 1,
      "note": 64,
      "start": 41.2118,
      "duration": 0.0799,
      "velocity": 79,
      "chip": "ym2612"
    },
    {
      "channel": 1,
      "note": 62,
      "start": 41.3151,
      "duration": 0.11,
      "velocity": 79,
      "chip": "ym2612"
    },
    {
      "channel": 0,
      "note": 50,
      "start": 41.3205,
      "duration": 0.1045,
      "velocity": 107,
      "chip": "ym2612"
    },
    {
      "channel": 2,
      "note": 74,
      "start": 41.3259,
      "duration": 0.1994,
      "velocity": 117,
      "chip": "ym2612"
    },
    {
      "channel": 1,
      "note": 69,
      "start": 41.4283,
      "duration": 0.0966,
      "velocity": 79,
      "chip": "ym2612"
    },
    {
      "channel": 1,
      "note": 68,
      "start": 41.5283,
      "duration": 0.1135,
      "velocity": 79,
      "chip": "ym2612"
    },
    {
      "channel": 0,
      "note": 57,
      "start": 41.531,
      "duration": 0.1108,
      "velocity": 107,
      "chip": "ym2612"
    },
    {
      "channel": 2,
      "note": 74,
      "start": 41.5334,
      "duration": 0.2086,
      "velocity": 117,
      "chip": "ym2612"
    },
    {
      "channel": 1,
      "note": 69,
      "start": 41.645,
      "duration": 0.0966,
      "velocity": 79,
      "chip": "ym2612"
    },
    {
      "channel": 1,
      "note": 62,
      "start": 41.745,
      "duration": 0.1136,
      "velocity": 79,
      "chip": "ym2612"
    },
    {
      "channel": 0,
      "note": 53,
      "start": 41.7476,
      "duration": 0.1108,
      "velocity": 107,
      "chip": "ym2612"
    },
    {
      "channel": 1,
      "note": 69,
      "start": 41.8621,
      "duration": 0.0964,
      "velocity": 79,
      "chip": "ym2612"
    },
    {
      "channel": 1,
      "note": 68,
      "start": 41.9616,
      "duration": 0.1136,
      "velocity": 79,
      "chip": "ym2612"
    },
    {
      "channel": 0,
      "note": 57,
      "start": 41.9643,
      "duration": 0.1108,
      "velocity": 107,
      "chip": "ym2612"
    },
    {
      "channel": 2,
      "note": 74,
      "start": 41.9666,
      "duration": 0.2087,
      "velocity": 117,
      "chip": "ym2612"
    },
    {
      "channel": 4,
      "note": 93,
      "start": 41.9787,
      "duration": 0.2798,
      "velocity": 84,
      "chip": "ym2612"
    },
    {
      "channel": 1,
      "note": 69,
      "start": 42.0784,
      "duration": 0.0966,
      "velocity": 79,
      "chip": "ym2612"
    },
    {
      "channel": 1,
      "note": 62,
      "start": 42.1783,
      "duration": 0.1136,
      "velocity": 79,
      "chip": "ym2612"
    },
    {
      "channel": 0,
      "note": 50,
      "start": 42.181,
      "duration": 0.1107,
      "velocity": 107,
      "chip": "ym2612"
    },
    {
      "channel": 1,
      "note": 69,
      "start": 42.2951,
      "duration": 0.0966,
      "velocity": 79,
      "chip": "ym2612"
    },
    {
      "channel": 1,
      "note": 68,
      "start": 42.3949,
      "duration": 0.097,
      "velocity": 79,
      "chip": "ym2612"
    },
    {
      "channel": 0,
      "note": 57,
      "start": 42.3976,
      "duration": 0.0941,
      "velocity": 107,
      "chip": "ym2612"
    },
    {
      "channel": 2,
      "note": 74,
      "start": 42.3999,
      "duration": 0.2089,
      "velocity": 117,
      "chip": "ym2612"
    },
    {
      "channel": 4,
      "note": 93,
      "start": 42.462,
      "duration": 0.3133,
      "velocity": 84,
      "chip": "ym2612"
    },
    {
      "channel": 1,
      "note": 69,
      "start": 42.4951,
      "duration": 0.1134,
      "velocity": 79,
      "chip": "ym2612"
    },
    {
      "channel": 1,
      "note": 62,
      "start": 42.6117,
      "duration": 0.0967,
      "velocity": 79,
      "chip": "ym2612"
    },
    {
      "channel": 0,
      "note": 53,
      "start": 42.6144,
      "duration": 0.0939,
      "velocity": 107,
      "chip": "ym2612"
    },
    {
      "channel": 1,
      "note": 69,
      "start": 42.7117,
      "duration": 0.1134,
      "velocity": 79,
      "chip": "ym2612"
    },
    {
      "channel": 1,
      "note": 68,
      "start": 42.8283,
      "duration": 0.0969,
      "velocity": 79,
      "chip": "ym2612"
    },
    {
      "channel": 0,
      "note": 57,
      "start": 42.8313,
      "duration": 0.0937,
      "velocity": 107,
      "chip": "ym2612"
    },
    {
      "channel": 2,
      "note": 74,
      "start": 42.8338,
      "duration": 0.2081,
      "velocity": 117,
      "chip": "ym2612"
    },
    {
      "channel": 1,
      "note": 69,
      "start": 42.9285,
      "duration": 39.6939,
      "velocity": 79,
      "chip": "ym2612"
    },
    {
      "channel": 5,
      "note": 62,
      "start": 43.0453,
      "duration": 0.0966,
      "velocity": 79,
      "chip": "ym2612"
    },
    {
      "channel": 0,
      "note": 50,
      "start": 43.048,
      "duration": 0.0937,
      "velocity": 107,
      "chip": "ym2612"
    },
    {
      "channel": 2,
      "note": 74,
      "start": 43.0507,
      "duration": 0.2081,
      "velocity": 117,
      "chip": "ym2612"
    },
    {
      "channel": 5,
      "note": 69,
      "start": 43.1451,
      "duration": 0.1135,
      "velocity": 79,
      "chip": "ym2612"
    },
    {
      "channel": 4,
      "note": 93,
      "start": 43.1621,
      "duration": 0.3298,
      "velocity": 84,
      "chip": "ym2612"
    },
    {
      "channel": 5,
      "note": 68,
      "start": 43.2619,
      "duration": 0.0967,
      "velocity": 79,
      "chip": "ym2612"
    },
    {
      "channel": 0,
      "note": 57,
      "start": 43.2646,
      "duration": 0.0937,
      "velocity": 107,
      "chip": "ym2612"
    },
    {
      "channel": 2,
      "note": 74,
      "start": 43.267,
      "duration": 0.2084,
      "velocity": 117,
      "chip": "ym2612"
    },
    {
      "channel": 5,
      "note": 69,
      "start": 43.3621,
      "duration": 0.113,
      "velocity": 79,
      "chip": "ym2612"
    },
    {
      "channel": 5,
      "note": 62,
      "start": 43.4784,
      "duration": 0.0969,
      "velocity": 79,
      "chip": "ym2612"
    },
    {
      "channel": 0,
      "note": 53,
      "start": 43.4812,
      "duration": 0.0938,
      "velocity": 107,
      "chip": "ym2612"
    },
    {
      "channel": 5,
      "note": 69,
      "start": 43.5785,
      "duration": 0.0968,
      "velocity": 79,
      "chip": "ym2612"
    },
    {
      "channel": 5,
      "note": 68,
      "start": 43.6784,
      "duration": 0.1136,
      "velocity": 79,
      "chip": "ym2612"
    },
    {
      "channel": 0,
      "note": 57,
      "start": 43.6811,
      "duration": 0.1106,
      "velocity": 107,
      "chip": "ym2612"
    },
    {
      "channel": 2,
      "note": 74,
      "start": 43.6834,
      "duration": 0.2086,
      "velocity": 117,
      "chip": "ym2612"
    },
    {
      "channel": 5,
      "note": 69,
      "start": 43.7952,
      "duration": 0.0966,
      "velocity": 79,
      "chip": "ym2612"
    },
    {
      "channel": 5,
      "note": 62,
      "start": 43.8951,
      "duration": 0.1135,
      "velocity": 79,
      "chip": "ym2612"
    },
    {
      "channel": 0,
      "note": 50,
      "start": 43.8978,
      "duration": 0.1105,
      "velocity": 107,
      "chip": "ym2612"
    },
    {
      "channel": 5,
      "note": 69,
      "start": 44.0117,
      "duration": 0.0968,
      "velocity": 79,
      "chip": "ym2612"
    },
    {
      "channel": 5,
      "note": 68,
      "start": 44.1117,
      "duration": 0.1137,
      "velocity": 79,
      "chip": "ym2612"
    },
    {
      "channel": 0,
      "note": 57,
      "start": 44.1144,
      "duration": 0.1106,
      "velocity": 107,
      "chip": "ym2612"
    },
    {
      "channel": 2,
      "note": 74,
      "start": 44.1167,
      "duration": 0.2087,
      "velocity": 117,
      "chip": "ym2612"
    },
    {
      "channel": 5,
      "note": 69,
      "start": 44.2285,
      "duration": 0.0966,
      "velocity": 79,
      "chip": "ym2612"
    },
    {
      "channel": 5,
      "note": 62,
      "start": 44.3285,
      "duration": 0.1135,
      "velocity": 79,
      "chip": "ym2612"
    },
    {
      "channel": 0,
      "note": 53,
      "start": 44.3312,
      "duration": 0.1105,
      "velocity": 107,
      "chip": "ym2612"
    },
    {
      "channel": 5,
      "note": 69,
      "start": 44.4451,
      "duration": 0.0968,
      "velocity": 79,
      "chip": "ym2612"
    },
    {
      "channel": 5,
      "note": 68,
      "start": 44.5451,
      "duration": 0.1136,
      "velocity": 79,
      "chip": "ym2612"
    },
    {
      "channel": 0,
      "note": 57,
      "start": 44.5478,
      "duration": 0.1106,
      "velocity": 107,
      "chip": "ym2612"
    },
    {
      "channel": 2,
      "note": 74,
      "start": 44.5504,
      "duration": 0.2083,
      "velocity": 117,
      "chip": "ym2612"
    },
    {
      "channel": 5,
      "note": 69,
      "start": 44.6619,
      "duration": 0.0966,
      "velocity": 79,
      "chip": "ym2612"
    },
    {
      "channel": 5,
      "note": 62,
      "start": 44.7618,
      "duration": 0.0968,
      "velocity": 79,
      "chip": "ym2612"
    },
    {
      "channel": 0,
      "note": 50,
      "start": 44.7645,
      "duration": 0.0938,
      "velocity": 107,
      "chip": "ym2612"
    },
    {
      "channel": 5,
      "note": 69,
      "start": 44.8618,
      "duration": 0.1134,
      "velocity": 79,
      "chip": "ym2612"
    },
    {
      "channel": 5,
      "note": 68,
      "start": 44.9784,
      "duration": 0.097,
      "velocity": 79,
      "chip": "ym2612"
    },
    {
      "channel": 0,
      "note": 57,
      "start": 44.9811,
      "duration": 0.094,
      "velocity": 107,
      "chip": "ym2612"
    },
    {
      "channel": 5,
      "note": 69,
      "start": 45.0789,
      "duration": 0.1129,
      "velocity": 79,
      "chip": "ym2612"
    },
    {
      "channel": 5,
      "note": 62,
      "start": 45.195,
      "duration": 0.097,
      "velocity": 79,
      "chip": "ym2612"
    },
    {
      "channel": 0,
      "note": 53,
      "start": 45.1978,
      "duration": 0.094,
      "velocity": 107,
      "chip": "ym2612"
    },
    {
      "channel": 4,
      "note": 50,
      "start": 45.2013,
      "duration": 0.2071,
      "velocity": 88,
      "chip": "ym2612"
    },
    {
      "channel": 5,
      "note": 69,
      "start": 45.2952,
      "duration": 0.1134,
      "velocity": 79,
      "chip": "ym2612"
    },
    {
      "channel": 5,
      "note": 68,
      "start": 45.4117,
      "duration": 0.0969,
      "velocity": 79,
      "chip": "ym2612"
    },
    {
      "channel": 0,
      "note": 57,
      "start": 45.4145,
      "duration": 0.0938,
      "velocity": 107,
      "chip": "ym2612"
    },
    {
      "channel": 5,
      "note": 69,
      "start": 45.5117,
      "duration": 0.1134,
      "velocity": 79,
      "chip": "ym2612"
    },
    {
      "channel": 5,
      "note": 62,
      "start": 45.6283,
      "duration": 0.0969,
      "velocity": 79,
      "chip": "ym2612"
    },
    {
      "channel": 0,
      "note": 50,
      "start": 45.631,
      "duration": 0.0939,
      "velocity": 107,
      "chip": "ym2612"
    },
    {
      "channel": 4,
      "note": 50,
      "start": 45.6336,
      "duration": 0.2082,
      "velocity": 88,
      "chip": "ym2612"
    },
    {
      "channel": 5,
      "note": 69,
      "start": 45.7284,
      "duration": 0.1136,
      "velocity": 79,
      "chip": "ym2612"
    },
    {
      "channel": 5,
      "note": 68,
      "start": 45.8451,
      "duration": 0.0969,
      "velocity": 79,
      "chip": "ym2612"
    },
    {
      "channel": 0,
      "note": 57,
      "start": 45.8478,
      "duration": 0.0939,
      "velocity": 107,
      "chip": "ym2612"
    },
    {
      "channel": 5,
      "note": 69,
      "start": 45.9451,
      "duration": 0.0968,
      "velocity": 79,
      "chip": "ym2612"
    },
    {
      "channel": 5,
      "note": 62,
      "start": 46.0451,
      "duration": 0.1136,
      "velocity": 79,
      "chip": "ym2612"
    },
    {
      "channel": 0,
      "note": 53,
      "start": 46.0478,
      "duration": 0.1105,
      "velocity": 107,
      "chip": "ym2612"
    },
    {
      "channel": 4,
      "note": 50,
      "start": 46.0504,
      "duration": 0.2081,
      "velocity": 88,
      "chip": "ym2612"
    },
    {
      "channel": 5,
      "note": 69,
      "start": 46.1617,
      "duration": 0.097,
      "velocity": 79,
      "chip": "ym2612"
    },
    {
      "channel": 5,
      "note": 68,
      "start": 46.2618,
      "duration": 0.1134,
      "velocity": 79,
      "chip": "ym2612"
    },
    {
      "channel": 0,
      "note": 57,
      "start": 46.2649,
      "duration": 0.11,
      "velocity": 107,
      "chip": "ym2612"
    },
    {
      "channel": 5,
      "note": 69,
      "start": 46.3784,
      "duration": 0.0969,
      "velocity": 79,
      "chip": "ym2612"
    },
    {
      "channel": 5,
      "note": 62,
      "start": 46.4784,
      "duration": 0.1136,
      "velocity": 79,
      "chip": "ym2612"
    },
    {
      "channel": 0,
      "note": 50,
      "start": 46.4812,
      "duration": 0.1105,
      "velocity": 107,
      "chip": "ym2612"
    },
    {
      "channel": 4,
      "note": 53,
      "start": 46.4842,
      "duration": 0.2076,
      "velocity": 88,
      "chip": "ym2612"
    },
    {
      "channel": 5,
      "note": 69,
      "start": 46.5951,
      "duration": 0.0969,
      "velocity": 79,
      "chip": "ym2612"
    },
    {
      "channel": 5,
      "note": 68,
      "start": 46.6951,
      "duration": 0.1136,
      "velocity": 79,
      "chip": "ym2612"
    },
    {
      "channel": 0,
      "note": 57,
      "start": 46.6978,
      "duration": 0.1106,
      "velocity": 107,
      "chip": "ym2612"
    },
    {
      "channel": 4,
      "note": 50,
      "start": 46.7004,
      "duration": 0.208,
      "velocity": 88,
      "chip": "ym2612"
    },
    {
      "channel": 5,
      "note": 69,
      "start": 46.8122,
      "duration": 0.0964,
      "velocity": 79,
      "chip": "ym2612"
    },
    {
      "channel": 5,
      "note": 62,
      "start": 46.9117,
      "duration": 0.1136,
      "velocity": 79,
      "chip": "ym2612"
    },
    {
      "channel": 0,
      "note": 53,
      "start": 46.9144,
      "duration": 0.1106,
      "velocity": 107,
      "chip": "ym2612"
    },
    {
      "channel": 4,
      "note": 48,
      "start": 46.917,
      "duration": 0.2082,
      "velocity": 88,
      "chip": "ym2612"
    },
    {
      "channel": 5,
      "note": 69,
      "start": 47.0285,
      "duration": 0.0969,
      "velocity": 79,
      "chip": "ym2612"
    },
    {
      "channel": 5,
      "note": 68,
      "start": 47.1285,
      "duration": 0.0968,
      "velocity": 79,
      "chip": "ym2612"
    },
    {
      "channel": 0,
      "note": 57,
      "start": 47.1312,
      "duration": 0.0938,
      "velocity": 107,
      "chip": "ym2612"
    },
    {
      "channel": 4,
      "note": 50,
      "start": 47.1341,
      "duration": 0.2078,
      "velocity": 88,
      "chip": "ym2612"
    },
    {
      "channel": 5,
      "note": 69,
      "start": 47.2285,
      "duration": 0.1135,
      "velocity": 79,
      "chip": "ym2612"
    },
    {
      "channel": 5,
      "note": 62,
      "start": 47.3452,
      "duration": 0.0968,
      "velocity": 79,
      "chip": "ym2612"
    },
    {
      "channel": 0,
      "note": 50,
      "start": 47.3479,
      "duration": 0.0938,
      "velocity": 107,
      "chip": "ym2612"
    },
    {
      "channel": 5,
      "note": 69,
      "start": 47.4452,
      "duration": 0.1132,
      "velocity": 79,
      "chip": "ym2612"
    },
    {
      "channel": 5,
      "note": 68,
      "start": 47.5617,
      "duration": 0.097,
      "velocity": 79,
      "chip": "ym2612"
    },
    {
      "channel": 0,
      "note": 57,
      "start": 47.5644,
      "duration": 0.094,
      "velocity": 107,
      "chip": "ym2612"
    },
    {
      "channel": 5,
      "note": 69,
      "start": 47.6618,
      "duration": 0.1134,
      "velocity": 79,
      "chip": "ym2612"
    },
    {
      "channel": 5,
      "note": 62,
      "start": 47.7783,
      "duration": 0.097,
      "velocity": 79,
      "chip": "ym2612"
    },
    {
      "channel": 0,
      "note": 53,
      "start": 47.781,
      "duration": 0.094,
      "velocity": 107,
      "chip": "ym2612"
    },
    {
      "channel": 5,
      "note": 69,
      "start": 47.8785,
      "duration": 0.1134,
      "velocity": 79,
      "chip": "ym2612"
    },
    {
      "channel": 5,
      "note": 68,
      "start": 47.995,
      "duration": 0.0969,
      "velocity": 79,
      "chip": "ym2612"
    },
    {
      "channel": 0,
      "note": 57,
      "start": 47.9978,
      "duration": 0.0938,
      "velocity": 107,
      "chip": "ym2612"
    },
    {
      "channel": 5,
      "note": 69,
      "start": 48.0951,
      "duration": 0.1136,
      "velocity": 79,
      "chip": "ym2612"
    },
    {
      "channel": 5,
      "note": 62,
      "start": 48.2118,
      "duration": 0.0968,
      "velocity": 79,
      "chip": "ym2612"
    },
    {
      "channel": 0,
      "note": 50,
      "start": 48.2145,
      "duration": 0.0938,
      "velocity": 107,
      "chip": "ym2612"
    },
    {
      "channel": 2,
      "note": 74,
      "start": 48.2169,
      "duration": 0.1919,
      "velocity": 117,
      "chip": "ym2612"
    },
    {
      "channel": 5,
      "note": 69,
      "start": 48.3118,
      "duration": 0.0968,
      "velocity": 79,
      "chip": "ym2612"
    },
    {
      "channel": 5,
      "note": 68,
      "start": 48.4119,
      "duration": 0.1135,
      "velocity": 79,
      "chip": "ym2612"
    },
    {
      "channel": 0,
      "note": 57,
      "start": 48.4146,
      "duration": 0.1105,
      "velocity": 107,
      "chip": "ym2612"
    },
    {
      "channel": 2,
      "note": 74,
      "start": 48.417,
      "duration": 0.2085,
      "velocity": 117,
      "chip": "ym2612"
    },
    {
      "channel": 5,
      "note": 69,
      "start": 48.5289,
      "duration": 0.0964,
      "velocity": 79,
      "chip": "ym2612"
    },
    {
      "channel": 5,
      "note": 62,
      "start": 48.6285,
      "duration": 0.1134,
      "velocity": 79,
      "chip": "ym2612"
    },
    {
      "channel": 0,
      "note": 53,
      "start": 48.6312,
      "duration": 0.1104,
      "velocity": 107,
      "chip": "ym2612"
    },
    {
      "channel": 5,
      "note": 69,
      "start": 48.7451,
      "duration": 0.0968,
      "velocity": 79,
      "chip": "ym2612"
    },
    {
      "channel": 5,
      "note": 68,
      "start": 48.8451,
      "duration": 0.1136,
      "velocity": 79,
      "chip": "ym2612"
    },
    {
      "channel": 0,
      "note": 57,
      "start": 48.8478,
      "duration": 0.1106,
      "velocity": 107,
      "chip": "ym2612"
    },
    {
      "channel": 2,
      "note": 74,
      "start": 48.85,
      "duration": 0.2086,
      "velocity": 117,
      "chip": "ym2612"
    },
    {
      "channel": 5,
      "note": 69,
      "start": 48.9619,
      "duration": 0.0966,
      "velocity": 79,
      "chip": "ym2612"
    },
    {
      "channel": 5,
      "note": 62,
      "start": 49.0618,
      "duration": 0.1135,
      "velocity": 79,
      "chip": "ym2612"
    },
    {
      "channel": 0,
      "note": 50,
      "start": 49.0645,
      "duration": 0.1105,
      "velocity": 107,
      "chip": "ym2612"
    },
    {
      "channel": 5,
      "note": 69,
      "start": 49.1784,
      "duration": 0.0968,
      "velocity": 79,
      "chip": "ym2612"
    },
    {
      "channel": 4,
      "note": 80,
      "start": 49.1954,
      "duration": 0.3631,
      "velocity": 84,
      "chip": "ym2612"
    },
    {
      "channel": 5,
      "note": 68,
      "start": 49.2784,
      "duration": 0.1136,
      "velocity": 79,
      "chip": "ym2612"
    },
    {
      "channel": 0,
      "note": 57,
      "start": 49.2811,
      "duration": 0.1107,
      "velocity": 107,
      "chip": "ym2612"
    },
    {
      "channel": 2,
      "note": 74,
      "start": 49.2834,
      "duration": 0.2087,
      "velocity": 117,
      "chip": "ym2612"
    },
    {
      "channel": 5,
      "note": 69,
      "start": 49.3952,
      "duration": 0.0968,
      "velocity": 79,
      "chip": "ym2612"
    },
    {
      "channel": 5,
      "note": 62,
      "start": 49.4952,
      "duration": 0.0968,
      "velocity": 79,
      "chip": "ym2612"
    },
    {
      "channel": 0,
      "note": 53,
      "start": 49.4979,
      "duration": 0.0938,
      "velocity": 107,
      "chip": "ym2612"
    },
    {
      "channel": 5,
      "note": 69,
      "start": 49.5951,
      "duration": 0.1134,
      "velocity": 79,
      "chip": "ym2612"
    },
    {
      "channel": 5,
      "note": 68,
      "start": 49.7117,
      "duration": 0.097,
      "velocity": 79,
      "chip": "ym2612"
    },
    {
      "channel": 0,
      "note": 57,
      "start": 49.7148,
      "duration": 0.0936,
      "velocity": 107,
      "chip": "ym2612"
    },
    {
      "channel": 2,
      "note": 74,
      "start": 49.7172,
      "duration": 0.2081,
      "velocity": 117,
      "chip": "ym2612"
    },
    {
      "channel": 5,
      "note": 69,
      "start": 49.8119,
      "duration": 0.1134,
      "velocity": 79,
      "chip": "ym2612"
    },
    {
      "channel": 5,
      "note": 62,
      "start": 49.9285,
      "duration": 0.0968,
      "velocity": 79,
      "chip": "ym2612"
    },
    {
      "channel": 0,
      "note": 50,
      "start": 49.9312,
      "duration": 0.0938,
      "velocity": 107,
      "chip": "ym2612"
    },
    {
      "channel": 2,
      "note": 74,
      "start": 49.9339,
      "duration": 0.2081,
      "velocity": 117,
      "chip": "ym2612"
    },
    {
      "channel": 5,
      "note": 69,
      "start": 50.0285,
      "duration": 0.1134,
      "velocity": 79,
      "chip": "ym2612"
    },
    {
      "channel": 5,
      "note": 68,
      "start": 50.1451,
      "duration": 0.0969,
      "velocity": 79,
      "chip": "ym2612"
    },
    {
      "channel": 0,
      "note": 57,
      "start": 50.1479,
      "duration": 0.0939,
      "velocity": 107,
      "chip": "ym2612"
    },
    {
      "channel": 2,
      "note": 74,
      "start": 50.1503,
      "duration": 0.2084,
      "velocity": 117,
      "chip": "ym2612"
    },
    {
      "channel": 5,
      "note": 69,
      "start": 50.2456,
      "duration": 0.113,
      "velocity": 79,
      "chip": "ym2612"
    },
    {
      "channel": 5,
      "note": 62,
      "start": 50.3619,
      "duration": 0.0968,
      "velocity": 79,
      "chip": "ym2612"
    },
    {
      "channel": 0,
      "note": 53,
      "start": 50.3646,
      "duration": 0.0938,
      "velocity": 107,
      "chip": "ym2612"
    },
    {
      "channel": 5,
      "note": 69,
      "start": 50.4619,
      "duration": 0.1134,
      "velocity": 79,
      "chip": "ym2612"
    },
    {
      "channel": 5,
      "note": 68,
      "start": 50.5784,
      "duration": 0.097,
      "velocity": 79,
      "chip": "ym2612"
    },
    {
      "channel": 0,
      "note": 57,
      "start": 50.5811,
      "duration": 0.094,
      "velocity": 107,
      "chip": "ym2612"
    },
    {
      "channel": 2,
      "note": 74,
      "start": 50.5834,
      "duration": 0.1919,
      "velocity": 117,
      "chip": "ym2612"
    },
    {
      "channel": 5,
      "note": 69,
      "start": 50.6785,
      "duration": 0.0966,
      "velocity": 79,
      "chip": "ym2612"
    },
    {
      "channel": 5,
      "note": 62,
      "start": 50.7785,
      "duration": 0.1134,
      "velocity": 79,
      "chip": "ym2612"
    },
    {
      "channel": 0,
      "note": 50,
      "start": 50.7812,
      "duration": 0.1104,
      "velocity": 107,
      "chip": "ym2612"
    },
    {
      "channel": 5,
      "note": 69,
      "start": 50.8951,
      "duration": 0.0968,
      "velocity": 79,
      "chip": "ym2612"
    },
    {
      "channel": 5,
      "note": 68,
      "start": 50.9951,
      "duration": 0.1136,
      "velocity": 79,
      "chip": "ym2612"
    },
    {
      "channel": 0,
      "note": 57,
      "start": 50.9978,
      "duration": 0.1106,
      "velocity": 107,
      "chip": "ym2612"
    },
    {
      "channel": 2,
      "note": 74,
      "start": 51.0,
      "duration": 0.2087,
      "velocity": 117,
      "chip": "ym2612"
    },
    {
      "channel": 5,
      "note": 69,
      "start": 51.1119,
      "duration": 0.0968,
      "velocity": 79,
      "chip": "ym2612"
    },
    {
      "channel": 4,
      "note": 80,
      "start": 51.1287,
      "duration": 0.3299,
      "velocity": 84,
      "chip": "ym2612"
    },
    {
      "channel": 5,
      "note": 62,
      "start": 51.2119,
      "duration": 0.1135,
      "velocity": 79,
      "chip": "ym2612"
    },
    {
      "channel": 0,
      "note": 53,
      "start": 51.2146,
      "duration": 0.1105,
      "velocity": 107,
      "chip": "ym2612"
    },
    {
      "channel": 5,
      "note": 69,
      "start": 51.3285,
      "duration": 0.0966,
      "velocity": 79,
      "chip": "ym2612"
    },
    {
      "channel": 5,
      "note": 68,
      "start": 51.4283,
      "duration": 0.1137,
      "velocity": 79,
      "chip": "ym2612"
    },
    {
      "channel": 0,
      "note": 57,
      "start": 51.431,
      "duration": 0.1107,
      "velocity": 107,
      "chip": "ym2612"
    },
    {
      "channel": 2,
      "note": 74,
      "start": 51.4336,
      "duration": 0.2083,
      "velocity": 117,
      "chip": "ym2612"
    },
    {
      "channel": 5,
      "note": 69,
      "start": 51.5452,
      "duration": 0.0966,
      "velocity": 79,
      "chip": "ym2612"
    },
    {
      "channel": 5,
      "note": 62,
      "start": 51.6451,
      "duration": 0.0968,
      "velocity": 79,
      "chip": "ym2612"
    },
    {
      "channel": 0,
      "note": 50,
      "start": 51.6478,
      "duration": 0.0938,
      "velocity": 107,
      "chip": "ym2612"
    },
    {
      "channel": 5,
      "note": 69,
      "start": 51.7451,
      "duration": 0.1134,
      "velocity": 79,
      "chip": "ym2612"
    },
    {
      "channel": 5,
      "note": 68,
      "start": 51.8617,
      "duration": 0.097,
      "velocity": 79,
      "chip": "ym2612"
    },
    {
      "channel": 0,
      "note": 57,
      "start": 51.8644,
      "duration": 0.094,
      "velocity": 107,
      "chip": "ym2612"
    },
    {
      "channel": 5,
      "note": 69,
      "start": 51.9623,
      "duration": 0.1129,
      "velocity": 79,
      "chip": "ym2612"
    },
    {
      "channel": 5,
      "note": 62,
      "start": 52.0783,
      "duration": 0.097,
      "velocity": 79,
      "chip": "ym2612"
    },
    {
      "channel": 0,
      "note": 53,
      "start": 52.081,
      "duration": 0.094,
      "velocity": 107,
      "chip": "ym2612"
    },
    {
      "channel": 5,
      "note": 69,
      "start": 52.1785,
      "duration": 0.1134,
      "velocity": 79,
      "chip": "ym2612"
    },
    {
      "channel": 5,
      "note": 68,
      "start": 52.2951,
      "duration": 0.0968,
      "velocity": 79,
      "chip": "ym2612"
    },
    {
      "channel": 0,
      "note": 57,
      "start": 52.2978,
      "duration": 0.0938,
      "velocity": 107,
      "chip": "ym2612"
    },
    {
      "channel": 5,
      "note": 69,
      "start": 52.3951,
      "duration": 0.1136,
      "velocity": 79,
      "chip": "ym2612"
    },
    {
      "channel": 5,
      "note": 62,
      "start": 52.5117,
      "duration": 0.0969,
      "velocity": 79,
      "chip": "ym2612"
    },
    {
      "channel": 0,
      "note": 50,
      "start": 52.5145,
      "duration": 0.0938,
      "velocity": 107,
      "chip": "ym2612"
    },
    {
      "channel": 5,
      "note": 69,
      "start": 52.6117,
      "duration": 0.1134,
      "velocity": 79,
      "chip": "ym2612"
    },
    {
      "channel": 5,
      "note": 68,
      "start": 52.7283,
      "duration": 0.097,
      "velocity": 79,
      "chip": "ym2612"
    },
    {
      "channel": 0,
      "note": 57,
      "start": 52.731,
      "duration": 0.094,
      "velocity": 107,
      "chip": "ym2612"
    },
    {
      "channel": 5,
      "note": 69,
      "start": 52.8285,
      "duration": 0.0968,
      "velocity": 79,
      "chip": "ym2612"
    },
    {
      "channel": 5,
      "note": 62,
      "start": 52.9284,
      "duration": 0.1136,
      "velocity": 79,
      "chip": "ym2612"
    },
    {
      "channel": 0,
      "note": 53,
      "start": 52.9311,
      "duration": 0.1106,
      "velocity": 107,
      "chip": "ym2612"
    },
    {
      "channel": 5,
      "note": 69,
      "start": 53.0451,
      "duration": 0.0968,
      "velocity": 79,
      "chip": "ym2612"
    },
    {
      "channel": 5,
      "note": 68,
      "start": 53.1451,
      "duration": 0.1136,
      "velocity": 79,
      "chip": "ym2612"
    },
    {
      "channel": 0,
      "note": 57,
      "start": 53.1481,
      "duration": 0.1102,
      "velocity": 107,
      "chip": "ym2612"
    },
    {
      "channel": 5,
      "note": 69,
      "start": 53.2618,
      "duration": 0.0968,
      "velocity": 79,
      "chip": "ym2612"
    },
    {
      "channel": 5,
      "note": 62,
      "start": 53.3617,
      "duration": 0.1136,
      "velocity": 79,
      "chip": "ym2612"
    },
    {
      "channel": 0,
      "note": 50,
      "start": 53.3644,
      "duration": 0.1106,
      "velocity": 107,
      "chip": "ym2612"
    },
    {
      "channel": 5,
      "note": 69,
      "start": 53.4785,
      "duration": 0.0968,
      "velocity": 79,
      "chip": "ym2612"
    },
    {
      "channel": 5,
      "note": 68,
      "start": 53.5784,
      "duration": 0.1135,
      "velocity": 79,
      "chip": "ym2612"
    },
    {
      "channel": 0,
      "note": 57,
      "start": 53.5812,
      "duration": 0.1104,
      "velocity": 107,
      "chip": "ym2612"
    },
    {
      "channel": 5,
      "note": 69,
      "start": 53.6955,
      "duration": 0.0965,
      "velocity": 79,
      "chip": "ym2612"
    },
    {
      "channel": 5,
      "note": 62,
      "start": 53.7951,
      "duration": 0.1136,
      "velocity": 79,
      "chip": "ym2612"
    },
    {
      "channel": 0,
      "note": 53,
      "start": 53.7978,
      "duration": 0.1106,
      "velocity": 107,
      "chip": "ym2612"
    },
    {
      "channel": 5,
      "note": 69,
      "start": 53.9119,
      "duration": 0.0968,
      "velocity": 79,
      "chip": "ym2612"
    },
    {
      "channel": 5,
      "note": 68,
      "start": 54.0118,
      "duration": 0.0968,
      "velocity": 79,
      "chip": "ym2612"
    },
    {
      "channel": 0,
      "note": 57,
      "start": 54.0145,
      "duration": 0.0938,
      "velocity": 107,
      "chip": "ym2612"
    },
    {
      "channel": 5,
      "note": 69,
      "start": 54.1118,
      "duration": 0.1134,
      "velocity": 79,
      "chip": "ym2612"
    },
    {
      "channel": 5,
      "note": 62,
      "start": 54.2283,
      "duration": 0.097,
      "velocity": 79,
      "chip": "ym2612"
    },
    {
      "channel": 0,
      "note": 50,
      "start": 54.2311,
      "duration": 0.094,
      "velocity": 107,
      "chip": "ym2612"
    },
    {
      "channel": 5,
      "note": 69,
      "start": 54.3285,
      "duration": 0.1134,
      "velocity": 79,
      "chip": "ym2612"
    },
    {
      "channel": 5,
      "note": 68,
      "start": 54.4451,
      "duration": 0.0969,
      "velocity": 79,
      "chip": "ym2612"
    },
    {
      "channel": 0,
      "note": 57,
      "start": 54.4478,
      "duration": 0.0939,
      "velocity": 107,
      "chip": "ym2612"
    },
    {
      "channel": 5,
      "note": 69,
      "start": 54.5451,
      "duration": 0.1134,
      "velocity": 79,
      "chip": "ym2612"
    },
    {
      "channel": 5,
      "note": 62,
      "start": 54.6617,
      "duration": 0.097,
      "velocity": 79,
      "chip": "ym2612"
    },
    {
      "channel": 0,
      "note": 53,
      "start": 54.6644,
      "duration": 0.094,
      "velocity": 107,
      "chip": "ym2612"
    },
    {
      "channel": 5,
      "note": 69,
      "start": 54.7619,
      "duration": 0.1134,
      "velocity": 79,
      "chip": "ym2612"
    },
    {
      "channel": 5,
      "note": 68,
      "start": 54.8784,
      "duration": 0.0969,
      "velocity": 79,
      "chip": "ym2612"
    },
    {
      "channel": 0,
      "note": 57,
      "start": 54.8812,
      "duration": 0.0938,
      "velocity": 107,
      "chip": "ym2612"
    },
    {
      "channel": 5,
      "note": 69,
      "start": 54.9784,
      "duration": 0.1134,
      "velocity": 79,
      "chip": "ym2612"
    },
    {
      "channel": 5,
      "note": 55,
      "start": 55.095,
      "duration": 0.097,
      "velocity": 79,
      "chip": "ym2612"
    },
    {
      "channel": 0,
      "note": 43,
      "start": 55.0977,
      "duration": 0.094,
      "velocity": 107,
      "chip": "ym2612"
    },
    {
      "channel": 2,
      "note": 74,
      "start": 55.1002,
      "duration": 0.1919,
      "velocity": 117,
      "chip": "ym2612"
    },
    {
      "channel": 5,
      "note": 62,
      "start": 55.1951,
      "duration": 0.0968,
      "velocity": 79,
      "chip": "ym2612"
    },
    {
      "channel": 5,
      "note": 61,
      "start": 55.2952,
      "duration": 0.1134,
      "velocity": 79,
      "chip": "ym2612"
    },
    {
      "channel": 0,
      "note": 50,
      "start": 55.2979,
      "duration": 0.1104,
      "velocity": 107,
      "chip": "ym2612"
    },
    {
      "channel": 2,
      "note": 74,
      "start": 55.3003,
      "duration": 0.2085,
      "velocity": 117,
      "chip": "ym2612"
    },
    {
      "channel": 5,
      "note": 62,
      "start": 55.4123,
      "duration": 0.0964,
      "velocity": 79,
      "chip": "ym2612"
    },
    {
      "channel": 5,
      "note": 55,
      "start": 55.5119,
      "duration": 0.1134,
      "velocity": 79,
      "chip": "ym2612"
    },
    {
      "channel": 0,
      "note": 47,
      "start": 55.5146,
      "duration": 0.1104,
      "velocity": 107,
      "chip": "ym2612"
    },
    {
      "channel": 5,
      "note": 62,
      "start": 55.6285,
      "duration": 0.0968,
      "velocity": 79,
      "chip": "ym2612"
    },
    {
      "channel": 5,
      "note": 61,
      "start": 55.7284,
      "duration": 0.1136,
      "velocity": 79,
      "chip": "ym2612"
    },
    {
      "channel": 0,
      "note": 50,
      "start": 55.7312,
      "duration": 0.1106,
      "velocity": 107,
      "chip": "ym2612"
    },
    {
      "channel": 2,
      "note": 74,
      "start": 55.7334,
      "duration": 0.2085,
      "velocity": 117,
      "chip": "ym2612"
    },
    {
      "channel": 5,
      "note": 62,
      "start": 55.8452,
      "duration": 0.0966,
      "velocity": 79,
      "chip": "ym2612"
    },
    {
      "channel": 5,
      "note": 55,
      "start": 55.9451,
      "duration": 0.1136,
      "velocity": 79,
      "chip": "ym2612"
    },
    {
      "channel": 0,
      "note": 43,
      "start": 55.9478,
      "duration": 0.1105,
      "velocity": 107,
      "chip": "ym2612"
    },
    {
      "channel": 5,
      "note": 62,
      "start": 56.0617,
      "duration": 0.0968,
      "velocity": 79,
      "chip": "ym2612"
    },
    {
      "channel": 5,
      "note": 61,
      "start": 56.1617,
      "duration": 0.1136,
      "velocity": 79,
      "chip": "ym2612"
    },
    {
      "channel": 0,
      "note": 50,
      "start": 56.1644,
      "duration": 0.1106,
      "velocity": 107,
      "chip": "ym2612"
    },
    {
      "channel": 2,
      "note": 74,
      "start": 56.1667,
      "duration": 0.2087,
      "velocity": 117,
      "chip": "ym2612"
    },
    {
      "channel": 5,
      "note": 62,
      "start": 56.2785,
      "duration": 0.0967,
      "velocity": 79,
      "chip": "ym2612"
    },
    {
      "channel": 5,
      "note": 55,
      "start": 56.3785,
      "duration": 0.0968,
      "velocity": 79,
      "chip": "ym2612"
    },
    {
      "channel": 0,
      "note": 47,
      "start": 56.3812,
      "duration": 0.0938,
      "velocity": 107,
      "chip": "ym2612"
    },
    {
      "channel": 5,
      "note": 62,
      "start": 56.4785,
      "duration": 0.1134,
      "velocity": 79,
      "chip": "ym2612"
    },
    {
      "channel": 5,
      "note": 61,
      "start": 56.5951,
      "duration": 0.097,
      "velocity": 79,
      "chip": "ym2612"
    },
    {
      "channel": 0,
      "note": 50,
      "start": 56.5981,
      "duration": 0.0936,
      "velocity": 107,
      "chip": "ym2612"
    },
    {
      "channel": 2,
      "note": 74,
      "start": 56.6006,
      "duration": 0.2081,
      "velocity": 117,
      "chip": "ym2612"
    },
    {
      "channel": 5,
      "note": 62,
      "start": 56.6952,
      "duration": 0.1134,
      "velocity": 79,
      "chip": "ym2612"
    },
    {
      "channel": 5,
      "note": 55,
      "start": 56.8119,
      "duration": 0.0968,
      "velocity": 79,
      "chip": "ym2612"
    },
    {
      "channel": 0,
      "note": 43,
      "start": 56.8146,
      "duration": 0.0938,
      "velocity": 107,
      "chip": "ym2612"
    },
    {
      "channel": 2,
      "note": 74,
      "start": 56.8172,
      "duration": 0.2081,
      "velocity": 117,
      "chip": "ym2612"
    },
    {
      "channel": 5,
      "note": 62,
      "start": 56.9118,
      "duration": 0.1134,
      "velocity": 79,
      "chip": "ym2612"
    },
    {
      "channel": 5,
      "note": 61,
      "start": 57.0285,
      "duration": 0.0968,
      "velocity": 79,
      "chip": "ym2612"
    },
    {
      "channel": 0,
      "note": 50,
      "start": 57.0312,
      "duration": 0.0938,
      "velocity": 107,
      "chip": "ym2612"
    },
    {
      "channel": 2,
      "note": 74,
      "start": 57.0336,
      "duration": 0.2084,
      "velocity": 117,
      "chip": "ym2612"
    },
    {
      "channel": 5,
      "note": 62,
      "start": 57.1289,
      "duration": 0.113,
      "velocity": 79,
      "chip": "ym2612"
    },
    {
      "channel": 5,
      "note": 55,
      "start": 57.2451,
      "duration": 0.0968,
      "velocity": 79,
      "chip": "ym2612"
    },
    {
      "channel": 0,
      "note": 47,
      "start": 57.2479,
      "duration": 0.0938,
      "velocity": 107,
      "chip": "ym2612"
    },
    {
      "channel": 5,
      "note": 62,
      "start": 57.3451,
      "duration": 0.1134,
      "velocity": 79,
      "chip": "ym2612"
    },
    {
      "channel": 5,
      "note": 61,
      "start": 57.4617,
      "duration": 0.097,
      "velocity": 79,
      "chip": "ym2612"
    },
    {
      "channel": 0,
      "note": 50,
      "start": 57.4644,
      "duration": 0.094,
      "velocity": 107,
      "chip": "ym2612"
    },
    {
      "channel": 2,
      "note": 74,
      "start": 57.4667,
      "duration": 0.192,
      "velocity": 117,
      "chip": "ym2612"
    },
    {
      "channel": 4,
      "note": 93,
      "start": 57.4787,
      "duration": 0.2798,
      "velocity": 84,
      "chip": "ym2612"
    },
    {
      "channel": 5,
      "note": 62,
      "start": 57.5619,
      "duration": 0.0966,
      "velocity": 79,
      "chip": "ym2612"
    },
    {
      "channel": 5,
      "note": 55,
      "start": 57.6617,
      "duration": 0.1136,
      "velocity": 79,
      "chip": "ym2612"
    },
    {
      "channel": 0,
      "note": 43,
      "start": 57.6645,
      "duration": 0.1105,
      "velocity": 107,
      "chip": "ym2612"
    },
    {
      "channel": 5,
      "note": 62,
      "start": 57.7785,
      "duration": 0.0968,
      "velocity": 79,
      "chip": "ym2612"
    },
    {
      "channel": 5,
      "note": 61,
      "start": 57.8784,
      "duration": 0.1136,
      "velocity": 79,
      "chip": "ym2612"
    },
    {
      "channel": 0,
      "note": 50,
      "start": 57.8811,
      "duration": 0.1106,
      "velocity": 107,
      "chip": "ym2612"
    },
    {
      "channel": 2,
      "note": 74,
      "start": 57.8834,
      "duration": 0.2087,
      "velocity": 117,
      "chip": "ym2612"
    },
    {
      "channel": 4,
      "note": 93,
      "start": 57.962,
      "duration": 0.2965,
      "velocity": 84,
      "chip": "ym2612"
    },
    {
      "channel": 5,
      "note": 62,
      "start": 57.9951,
      "duration": 0.0968,
      "velocity": 79,
      "chip": "ym2612"
    },
    {
      "channel": 5,
      "note": 55,
      "start": 58.0951,
      "duration": 0.1136,
      "velocity": 79,
      "chip": "ym2612"
    },
    {
      "channel": 0,
      "note": 47,
      "start": 58.0978,
      "duration": 0.1106,
      "velocity": 107,
      "chip": "ym2612"
    },
    {
      "channel": 5,
      "note": 62,
      "start": 58.2119,
      "duration": 0.0967,
      "velocity": 79,
      "chip": "ym2612"
    },
    {
      "channel": 5,
      "note": 61,
      "start": 58.3117,
      "duration": 0.1136,
      "velocity": 79,
      "chip": "ym2612"
    },
    {
      "channel": 0,
      "note": 50,
      "start": 58.3144,
      "duration": 0.1106,
      "velocity": 107,
      "chip": "ym2612"
    },
    {
      "channel": 2,
      "note": 74,
      "start": 58.317,
      "duration": 0.2083,
      "velocity": 117,
      "chip": "ym2612"
    },
    {
      "channel": 5,
      "note": 62,
      "start": 58.4285,
      "duration": 0.0966,
      "velocity": 79,
      "chip": "ym2612"
    },
    {
      "channel": 5,
      "note": 55,
      "start": 58.5285,
      "duration": 0.1136,
      "velocity": 79,
      "chip": "ym2612"
    },
    {
      "channel": 0,
      "note": 43,
      "start": 58.5312,
      "duration": 0.1106,
      "velocity": 107,
      "chip": "ym2612"
    },
    {
      "channel": 5,
      "note": 62,
      "start": 58.6452,
      "duration": 0.0967,
      "velocity": 79,
      "chip": "ym2612"
    },
    {
      "channel": 4,
      "note": 93,
      "start": 58.6621,
      "duration": 0.3131,
      "velocity": 84,
      "chip": "ym2612"
    },
    {
      "channel": 5,
      "note": 61,
      "start": 58.7451,
      "duration": 0.0969,
      "velocity": 79,
      "chip": "ym2612"
    },
    {
      "channel": 0,
      "note": 50,
      "start": 58.7478,
      "duration": 0.094,
      "velocity": 107,
      "chip": "ym2612"
    },
    {
      "channel": 5,
      "note": 62,
      "start": 58.8455,
      "duration": 0.113,
      "velocity": 79,
      "chip": "ym2612"
    },
    {
      "channel": 5,
      "note": 55,
      "start": 58.9617,
      "duration": 0.097,
      "velocity": 79,
      "chip": "ym2612"
    },
    {
      "channel": 0,
      "note": 47,
      "start": 58.9644,
      "duration": 0.094,
      "velocity": 107,
      "chip": "ym2612"
    },
    {
      "channel": 2,
      "note": 43,
      "start": 58.9672,
      "duration": 0.2082,
      "velocity": 88,
      "chip": "ym2612"
    },
    {
      "channel": 5,
      "note": 62,
      "start": 59.0619,
      "duration": 0.1134,
      "velocity": 79,
      "chip": "ym2612"
    },
    {
      "channel": 5,
      "note": 61,
      "start": 59.1785,
      "duration": 0.0967,
      "velocity": 79,
      "chip": "ym2612"
    },
    {
      "channel": 0,
      "note": 50,
      "start": 59.1812,
      "duration": 0.0937,
      "velocity": 107,
      "chip": "ym2612"
    },
    {
      "channel": 5,
      "note": 62,
      "start": 59.2784,
      "duration": 0.1134,
      "velocity": 79,
      "chip": "ym2612"
    },
    {
      "channel": 5,
      "note": 55,
      "start": 59.395,
      "duration": 0.097,
      "velocity": 79,
      "chip": "ym2612"
    },
    {
      "channel": 0,
      "note": 43,
      "start": 59.3977,
      "duration": 0.0941,
      "velocity": 107,
      "chip": "ym2612"
    },
    {
      "channel": 2,
      "note": 43,
      "start": 59.4004,
      "duration": 0.2083,
      "velocity": 88,
      "chip": "ym2612"
    },
    {
      "channel": 5,
      "note": 62,
      "start": 59.4952,
      "duration": 0.1134,
      "velocity": 79,
      "chip": "ym2612"
    },
    {
      "channel": 5,
      "note": 61,
      "start": 59.6119,
      "duration": 0.0968,
      "velocity": 79,
      "chip": "ym2612"
    },
    {
      "channel": 0,
      "note": 50,
      "start": 59.6146,
      "duration": 0.0938,
      "velocity": 107,
      "chip": "ym2612"
    },
    {
      "channel": 5,
      "note": 62,
      "start": 59.7119,
      "duration": 0.1134,
      "velocity": 79,
      "chip": "ym2612"
    },
    {
      "channel": 5,
      "note": 55,
      "start": 59.8284,
      "duration": 0.097,
      "velocity": 79,
      "chip": "ym2612"
    },
    {
      "channel": 0,
      "note": 47,
      "start": 59.8311,
      "duration": 0.094,
      "velocity": 107,
      "chip": "ym2612"
    },
    {
      "channel": 2,
      "note": 43,
      "start": 59.8338,
      "duration": 0.1915,
      "velocity": 88,
      "chip": "ym2612"
    },
    {
      "channel": 5,
      "note": 62,
      "start": 59.9285,
      "duration": 0.0966,
      "velocity": 79,
      "chip": "ym2612"
    },
    {
      "channel": 5,
      "note": 61,
      "start": 60.0285,
      "duration": 0.1135,
      "velocity": 79,
      "chip": "ym2612"
    },
    {
      "channel": 0,
      "note": 50,
      "start": 60.0315,
      "duration": 0.1102,
      "velocity": 107,
      "chip": "ym2612"
    },
    {
      "channel": 5,
      "note": 62,
      "start": 60.1452,
      "duration": 0.0968,
      "velocity": 79,
      "chip": "ym2612"
    },
    {
      "channel": 5,
      "note": 55,
      "start": 60.2451,
      "duration": 0.1136,
      "velocity": 79,
      "chip": "ym2612"
    },
    {
      "channel": 0,
      "note": 43,
      "start": 60.2478,
      "duration": 0.1106,
      "velocity": 107,
      "chip": "ym2612"
    },
    {
      "channel": 2,
      "note": 46,
      "start": 60.2507,
      "duration": 0.208,
      "velocity": 88,
      "chip": "ym2612"
    },
    {
      "channel": 5,
      "note": 62,
      "start": 60.3619,
      "duration": 0.0966,
      "velocity": 79,
      "chip": "ym2612"
    },
    {
      "channel": 5,
      "note": 61,
      "start": 60.4618,
      "duration": 0.1136,
      "velocity": 79,
      "chip": "ym2612"
    },
    {
      "channel": 0,
      "note": 50,
      "start": 60.4645,
      "duration": 0.1106,
      "velocity": 107,
      "chip": "ym2612"
    },
    {
      "channel": 2,
      "note": 43,
      "start": 60.4672,
      "duration": 0.2081,
      "velocity": 88,
      "chip": "ym2612"
    },
    {
      "channel": 5,
      "note": 62,
      "start": 60.5789,
      "duration": 0.0962,
      "velocity": 79,
      "chip": "ym2612"
    },
    {
      "channel": 5,
      "note": 55,
      "start": 60.6785,
      "duration": 0.1136,
      "velocity": 79,
      "chip": "ym2612"
    },
    {
      "channel": 0,
      "note": 47,
      "start": 60.6812,
      "duration": 0.1106,
      "velocity": 107,
      "chip": "ym2612"
    },
    {
      "channel": 2,
      "note": 41,
      "start": 60.6839,
      "duration": 0.2081,
      "velocity": 88,
      "chip": "ym2612"
    },
    {
      "channel": 5,
      "note": 62,
      "start": 60.7952,
      "duration": 0.0966,
      "velocity": 79,
      "chip": "ym2612"
    },
    {
      "channel": 5,
      "note": 61,
      "start": 60.8951,
      "duration": 0.1136,
      "velocity": 79,
      "chip": "ym2612"
    },
    {
      "channel": 0,
      "note": 50,
      "start": 60.8978,
      "duration": 0.1106,
      "velocity": 107,
      "chip": "ym2612"
    },
    {
      "channel": 2,
      "note": 43,
      "start": 60.9012,
      "duration": 0.2074,
      "velocity": 88,
      "chip": "ym2612"
    },
    {
      "channel": 5,
      "note": 62,
      "start": 61.0119,
      "duration": 0.0966,
      "velocity": 79,
      "chip": "ym2612"
    },
    {
      "channel": 5,
      "note": 55,
      "start": 61.1118,
      "duration": 0.0968,
      "velocity": 79,
      "chip": "ym2612"
    },
    {
      "channel": 0,
      "note": 43,
      "start": 61.1145,
      "duration": 0.0938,
      "velocity": 107,
      "chip": "ym2612"
    },
    {
      "channel": 5,
      "note": 62,
      "start": 61.2118,
      "duration": 0.1134,
      "velocity": 79,
      "chip": "ym2612"
    },
    {
      "channel": 5,
      "note": 61,
      "start": 61.3283,
      "duration": 0.097,
      "velocity": 79,
      "chip": "ym2612"
    },
    {
      "channel": 0,
      "note": 50,
      "start": 61.3311,
      "duration": 0.094,
      "velocity": 107,
      "chip": "ym2612"
    },
    {
      "channel": 5,
      "note": 62,
      "start": 61.4285,
      "duration": 0.1133,
      "velocity": 79,
      "chip": "ym2612"
    },
    {
      "channel": 5,
      "note": 55,
      "start": 61.545,
      "duration": 0.097,
      "velocity": 79,
      "chip": "ym2612"
    },
    {
      "channel": 0,
      "note": 47,
      "start": 61.5477,
      "duration": 0.094,
      "velocity": 107,
      "chip": "ym2612"
    },
    {
      "channel": 5,
      "note": 62,
      "start": 61.6451,
      "duration": 0.1134,
      "velocity": 79,
      "chip": "ym2612"
    },
    {
      "channel": 5,
      "note": 61,
      "start": 61.7617,
      "duration": 0.097,
      "velocity": 79,
      "chip": "ym2612"
    },
    {
      "channel": 0,
      "note": 50,
      "start": 61.7644,
      "duration": 0.094,
      "velocity": 107,
      "chip": "ym2612"
    },
    {
      "channel": 5,
      "note": 62,
      "start": 61.8619,
      "duration": 0.1134,
      "velocity": 79,
      "chip": "ym2612"
    },
    {
      "channel": 5,
      "note": 55,
      "start": 61.9784,
      "duration": 0.097,
      "velocity": 79,
      "chip": "ym2612"
    },
    {
      "channel": 0,
      "note": 43,
      "start": 61.9812,
      "duration": 0.0939,
      "velocity": 107,
      "chip": "ym2612"
    },
    {
      "channel": 2,
      "note": 74,
      "start": 61.9836,
      "duration": 0.2085,
      "velocity": 117,
      "chip": "ym2612"
    },
    {
      "channel": 5,
      "note": 62,
      "start": 62.0785,
      "duration": 0.1134,
      "velocity": 79,
      "chip": "ym2612"
    },
    {
      "channel": 5,
      "note": 61,
      "start": 62.1952,
      "duration": 0.0968,
      "velocity": 79,
      "chip": "ym2612"
    },
    {
      "channel": 0,
      "note": 50,
      "start": 62.1979,
      "duration": 0.0938,
      "velocity": 107,
      "chip": "ym2612"
    },
    {
      "channel": 2,
      "note": 74,
      "start": 62.2003,
      "duration": 0.1917,
      "velocity": 117,
      "chip": "ym2612"
    },
    {
      "channel": 5,
      "note": 62,
      "start": 62.2955,
      "duration": 0.0964,
      "velocity": 79,
      "chip": "ym2612"
    },
    {
      "channel": 5,
      "note": 55,
      "start": 62.3951,
      "duration": 0.1134,
      "velocity": 79,
      "chip": "ym2612"
    },
    {
      "channel": 0,
      "note": 47,
      "start": 62.3978,
      "duration": 0.1105,
      "velocity": 107,
      "chip": "ym2612"
    },
    {
      "channel": 5,
      "note": 62,
      "start": 62.5117,
      "duration": 0.0968,
      "velocity": 79,
      "chip": "ym2612"
    },
    {
      "channel": 5,
      "note": 61,
      "start": 62.6117,
      "duration": 0.1136,
      "velocity": 79,
      "chip": "ym2612"
    },
    {
      "channel": 0,
      "note": 50,
      "start": 62.6144,
      "duration": 0.1107,
      "velocity": 107,
      "chip": "ym2612"
    },
    {
      "channel": 2,
      "note": 74,
      "start": 62.6167,
      "duration": 0.2087,
      "velocity": 117,
      "chip": "ym2612"
    },
    {
      "channel": 5,
      "note": 62,
      "start": 62.7285,
      "duration": 0.0968,
      "velocity": 79,
      "chip": "ym2612"
    },
    {
      "channel": 5,
      "note": 55,
      "start": 62.8285,
      "duration": 0.1135,
      "velocity": 79,
      "chip": "ym2612"
    },
    {
      "channel": 0,
      "note": 43,
      "start": 62.8312,
      "duration": 0.1105,
      "velocity": 107,
      "chip": "ym2612"
    },
    {
      "channel": 5,
      "note": 62,
      "start": 62.9451,
      "duration": 0.0968,
      "velocity": 79,
      "chip": "ym2612"
    },
    {
      "channel": 5,
      "note": 61,
      "start": 63.0451,
      "duration": 0.1136,
      "velocity": 79,
      "chip": "ym2612"
    },
    {
      "channel": 0,
      "note": 50,
      "start": 63.0478,
      "duration": 0.1105,
      "velocity": 107,
      "chip": "ym2612"
    },
    {
      "channel": 2,
      "note": 74,
      "start": 63.0501,
      "duration": 0.2086,
      "velocity": 117,
      "chip": "ym2612"
    },
    {
      "channel": 5,
      "note": 62,
      "start": 63.1618,
      "duration": 0.0968,
      "velocity": 79,
      "chip": "ym2612"
    },
    {
      "channel": 5,
      "note": 55,
      "start": 63.2619,
      "duration": 0.1135,
      "velocity": 79,
      "chip": "ym2612"
    },
    {
      "channel": 0,
      "note": 47,
      "start": 63.2646,
      "duration": 0.1105,
      "velocity": 107,
      "chip": "ym2612"
    },
    {
      "channel": 5,
      "note": 62,
      "start": 63.3785,
      "duration": 0.0966,
      "velocity": 79,
      "chip": "ym2612"
    },
    {
      "channel": 5,
      "note": 61,
      "start": 63.4783,
      "duration": 0.097,
      "velocity": 79,
      "chip": "ym2612"
    },
    {
      "channel": 0,
      "note": 50,
      "start": 63.4814,
      "duration": 0.0937,
      "velocity": 107,
      "chip": "ym2612"
    },
    {
      "channel": 2,
      "note": 74,
      "start": 63.4838,
      "duration": 0.2082,
      "velocity": 117,
      "chip": "ym2612"
    },
    {
      "channel": 5,
      "note": 62,
      "start": 63.5785,
      "duration": 0.1134,
      "velocity": 79,
      "chip": "ym2612"
    },
    {
      "channel": 5,
      "note": 55,
      "start": 63.6952,
      "duration": 0.0968,
      "velocity": 79,
      "chip": "ym2612"
    },
    {
      "channel": 0,
      "note": 43,
      "start": 63.6979,
      "duration": 0.0938,
      "velocity": 107,
      "chip": "ym2612"
    },
    {
      "channel": 2,
      "note": 74,
      "start": 63.7006,
      "duration": 0.2081,
      "velocity": 117,
      "chip": "ym2612"
    },
    {
      "channel": 5,
      "note": 62,
      "start": 63.7951,
      "duration": 0.1134,
      "velocity": 79,
      "chip": "ym2612"
    },
    {
      "channel": 5,
      "note": 61,
      "start": 63.9119,
      "duration": 0.0968,
      "velocity": 79,
      "chip": "ym2612"
    },
    {
      "channel": 0,
      "note": 50,
      "start": 63.9146,
      "duration": 0.0938,
      "velocity": 107,
      "chip": "ym2612"
    },
    {
      "channel": 2,
      "note": 74,
      "start": 63.917,
      "duration": 0.2084,
      "velocity": 117,
      "chip": "ym2612"
    },
    {
      "channel": 5,
      "note": 62,
      "start": 64.0123,
      "duration": 0.113,
      "velocity": 79,
      "chip": "ym2612"
    },
    {
      "channel": 5,
      "note": 55,
      "start": 64.1285,
      "duration": 0.0969,
      "velocity": 79,
      "chip": "ym2612"
    },
    {
      "channel": 0,
      "note": 47,
      "start": 64.1312,
      "duration": 0.0939,
      "velocity": 107,
      "chip": "ym2612"
    },
    {
      "channel": 5,
      "note": 62,
      "start": 64.2285,
      "duration": 0.1134,
      "velocity": 79,
      "chip": "ym2612"
    },
    {
      "channel": 5,
      "note": 61,
      "start": 64.3451,
      "duration": 0.0968,
      "velocity": 79,
      "chip": "ym2612"
    },
    {
      "channel": 0,
      "note": 50,
      "start": 64.3478,
      "duration": 0.0938,
      "velocity": 107,
      "chip": "ym2612"
    },
    {
      "channel": 2,
      "note": 74,
      "start": 64.3501,
      "duration": 0.192,
      "velocity": 117,
      "chip": "ym2612"
    },
    {
      "channel": 5,
      "note": 62,
      "start": 64.4451,
      "duration": 0.0968,
      "velocity": 79,
      "chip": "ym2612"
    },
    {
      "channel": 5,
      "note": 55,
      "start": 64.5452,
      "duration": 0.1135,
      "velocity": 79,
      "chip": "ym2612"
    },
    {
      "channel": 0,
      "note": 43,
      "start": 64.5479,
      "duration": 0.1105,
      "velocity": 107,
      "chip": "ym2612"
    },
    {
      "channel": 5,
      "note": 62,
      "start": 64.6619,
      "duration": 0.0967,
      "velocity": 79,
      "chip": "ym2612"
    },
    {
      "channel": 4,
      "note": 80,
      "start": 64.6787,
      "duration": 0.3797,
      "velocity": 84,
      "chip": "ym2612"
    },
    {
      "channel": 5,
      "note": 61,
      "start": 64.7617,
      "duration": 0.1135,
      "velocity": 79,
      "chip": "ym2612"
    },
    {
      "channel": 0,
      "note": 50,
      "start": 64.7644,
      "duration": 0.1106,
      "velocity": 107,
      "chip": "ym2612"
    },
    {
      "channel": 2,
      "note": 74,
      "start": 64.7667,
      "duration": 0.2086,
      "velocity": 117,
      "chip": "ym2612"
    },
    {
      "channel": 5,
      "note": 62,
      "start": 64.8784,
      "duration": 0.0968,
      "velocity": 79,
      "chip": "ym2612"
    },
    {
      "channel": 5,
      "note": 55,
      "start": 64.9784,
      "duration": 0.1136,
      "velocity": 79,
      "chip": "ym2612"
    },
    {
      "channel": 0,
      "note": 47,
      "start": 64.9811,
      "duration": 0.1106,
      "velocity": 107,
      "chip": "ym2612"
    },
    {
      "channel": 5,
      "note": 62,
      "start": 65.0951,
      "duration": 0.0968,
      "velocity": 79,
      "chip": "ym2612"
    },
    {
      "channel": 5,
      "note": 61,
      "start": 65.1951,
      "duration": 0.1135,
      "velocity": 79,
      "chip": "ym2612"
    },
    {
      "channel": 0,
      "note": 50,
      "start": 65.1978,
      "duration": 0.1104,
      "velocity": 107,
      "chip": "ym2612"
    },
    {
      "channel": 2,
      "note": 74,
      "start": 65.2004,
      "duration": 0.2083,
      "velocity": 117,
      "chip": "ym2612"
    },
    {
      "channel": 5,
      "note": 62,
      "start": 65.3117,
      "duration": 0.0968,
      "velocity": 79,
      "chip": "ym2612"
    },
    {
      "channel": 5,
      "note": 55,
      "start": 65.4118,
      "duration": 0.1135,
      "velocity": 79,
      "chip": "ym2612"
    },
    {
      "channel": 0,
      "note": 43,
      "start": 65.4145,
      "duration": 0.1105,
      "velocity": 107,
      "chip": "ym2612"
    },
    {
      "channel": 5,
      "note": 62,
      "start": 65.5285,
      "duration": 0.0968,
      "velocity": 79,
      "chip": "ym2612"
    },
    {
      "channel": 5,
      "note": 61,
      "start": 65.6284,
      "duration": 0.097,
      "velocity": 79,
      "chip": "ym2612"
    },
    {
      "channel": 0,
      "note": 50,
      "start": 65.6311,
      "duration": 0.094,
      "velocity": 107,
      "chip": "ym2612"
    },
    {
      "channel": 5,
      "note": 62,
      "start": 65.7289,
      "duration": 0.113,
      "velocity": 79,
      "chip": "ym2612"
    },
    {
      "channel": 5,
      "note": 55,
      "start": 65.8451,
      "duration": 0.097,
      "velocity": 79,
      "chip": "ym2612"
    },
    {
      "channel": 0,
      "note": 47,
      "start": 65.8478,
      "duration": 0.094,
      "velocity": 107,
      "chip": "ym2612"
    },
    {
      "channel": 5,
      "note": 62,
      "start": 65.9452,
      "duration": 0.1132,
      "velocity": 79,
      "chip": "ym2612"
    },
    {
      "channel": 5,
      "note": 61,
      "start": 66.0617,
      "duration": 0.097,
      "velocity": 79,
      "chip": "ym2612"
    },
    {
      "channel": 0,
      "note": 50,
      "start": 66.0644,
      "duration": 0.094,
      "velocity": 107,
      "chip": "ym2612"
    },
    {
      "channel": 5,
      "note": 62,
      "start": 66.1618,
      "duration": 0.1134,
      "velocity": 79,
      "chip": "ym2612"
    },
    {
      "channel": 5,
      "note": 55,
      "start": 66.2784,
      "duration": 0.097,
      "velocity": 79,
      "chip": "ym2612"
    },
    {
      "channel": 0,
      "note": 43,
      "start": 66.2811,
      "duration": 0.094,
      "velocity": 107,
      "chip": "ym2612"
    },
    {
      "channel": 5,
      "note": 62,
      "start": 66.3785,
      "duration": 0.1134,
      "velocity": 79,
      "chip": "ym2612"
    },
    {
      "channel": 5,
      "note": 61,
      "start": 66.4951,
      "duration": 0.097,
      "velocity": 79,
      "chip": "ym2612"
    },
    {
      "channel": 0,
      "note": 50,
      "start": 66.4978,
      "duration": 0.094,
      "velocity": 107,
      "chip": "ym2612"
    },
    {
      "channel": 5,
      "note": 62,
      "start": 66.5952,
      "duration": 0.1134,
      "velocity": 79,
      "chip": "ym2612"
    },
    {
      "channel": 4,
      "note": 80,
      "start": 66.6121,
      "duration": 0.3465,
      "velocity": 84,
      "chip": "ym2612"
    },
    {
      "channel": 5,
      "note": 55,
      "start": 66.7117,
      "duration": 0.0969,
      "velocity": 79,
      "chip": "ym2612"
    },
    {
      "channel": 0,
      "note": 47,
      "start": 66.7144,
      "duration": 0.0939,
      "velocity": 107,
      "chip": "ym2612"
    },
    {
      "channel": 5,
      "note": 62,
      "start": 66.8118,
      "duration": 0.0968,
      "velocity": 79,
      "chip": "ym2612"
    },
    {
      "channel": 5,
      "note": 61,
      "start": 66.9117,
      "duration": 0.1136,
      "velocity": 79,
      "chip": "ym2612"
    },
    {
      "channel": 0,
      "note": 50,
      "start": 66.9148,
      "duration": 0.1102,
      "velocity": 107,
      "chip": "ym2612"
    },
    {
      "channel": 5,
      "note": 62,
      "start": 67.0285,
      "duration": 0.0968,
      "velocity": 79,
      "chip": "ym2612"
    },
    {
      "channel": 5,
      "note": 55,
      "start": 67.1284,
      "duration": 0.1135,
      "velocity": 79,
      "chip": "ym2612"
    },
    {
      "channel": 0,
      "note": 43,
      "start": 67.1312,
      "duration": 0.1104,
      "velocity": 107,
      "chip": "ym2612"
    },
    {
      "channel": 5,
      "note": 62,
      "start": 67.2451,
      "duration": 0.0968,
      "velocity": 79,
      "chip": "ym2612"
    },
    {
      "channel": 5,
      "note": 61,
      "start": 67.345,
      "duration": 0.1136,
      "velocity": 79,
      "chip": "ym2612"
    },
    {
      "channel": 0,
      "note": 50,
      "start": 67.3478,
      "duration": 0.1106,
      "velocity": 107,
      "chip": "ym2612"
    },
    {
      "channel": 5,
      "note": 62,
      "start": 67.4622,
      "duration": 0.0963,
      "velocity": 79,
      "chip": "ym2612"
    },
    {
      "channel": 5,
      "note": 55,
      "start": 67.5617,
      "duration": 0.1136,
      "velocity": 79,
      "chip": "ym2612"
    },
    {
      "channel": 0,
      "note": 47,
      "start": 67.5644,
      "duration": 0.1106,
      "velocity": 107,
      "chip": "ym2612"
    },
    {
      "channel": 5,
      "note": 62,
      "start": 67.6785,
      "duration": 0.0968,
      "velocity": 79,
      "chip": "ym2612"
    },
    {
      "channel": 5,
      "note": 61,
      "start": 67.7784,
      "duration": 0.1136,
      "velocity": 79,
      "chip": "ym2612"
    },
    {
      "channel": 0,
      "note": 50,
      "start": 67.7811,
      "duration": 0.1106,
      "velocity": 107,
      "chip": "ym2612"
    },
    {
      "channel": 5,
      "note": 62,
      "start": 67.8952,
      "duration": 0.0968,
      "velocity": 79,
      "chip": "ym2612"
    },
    {
      "channel": 5,
      "note": 55,
      "start": 67.9951,
      "duration": 0.0968,
      "velocity": 79,
      "chip": "ym2612"
    },
    {
      "channel": 0,
      "note": 43,
      "start": 67.9978,
      "duration": 0.0938,
      "velocity": 107,
      "chip": "ym2612"
    },
    {
      "channel": 5,
      "note": 62,
      "start": 68.0951,
      "duration": 0.1134,
      "velocity": 79,
      "chip": "ym2612"
    },
    {
      "channel": 5,
      "note": 61,
      "start": 68.2117,
      "duration": 0.097,
      "velocity": 79,
      "chip": "ym2612"
    },
    {
      "channel": 0,
      "note": 50,
      "start": 68.2144,
      "duration": 0.094,
      "velocity": 107,
      "chip": "ym2612"
    },
    {
      "channel": 5,
      "note": 62,
      "start": 68.3119,
      "duration": 0.1134,
      "velocity": 79,
      "chip": "ym2612"
    },
    {
      "channel": 5,
      "note": 55,
      "start": 68.4284,
      "duration": 0.0968,
      "velocity": 79,
      "chip": "ym2612"
    },
    {
      "channel": 0,
      "note": 47,
      "start": 68.4311,
      "duration": 0.0938,
      "velocity": 107,
      "chip": "ym2612"
    },
    {
      "channel": 5,
      "note": 62,
      "start": 68.5284,
      "duration": 0.1134,
      "velocity": 79,
      "chip": "ym2612"
    },
    {
      "channel": 5,
      "note": 61,
      "start": 68.645,
      "duration": 0.097,
      "velocity": 79,
      "chip": "ym2612"
    },
    {
      "channel": 0,
      "note": 50,
      "start": 68.6477,
      "duration": 0.094,
      "velocity": 107,
      "chip": "ym2612"
    },
    {
      "channel": 5,
      "note": 62,
      "start": 68.7451,
      "duration": 0.1134,
      "velocity": 79,
      "chip": "ym2612"
    },
    {
      "channel": 5,
      "note": 57,
      "start": 68.8617,
      "duration": 0.0969,
      "velocity": 79,
      "chip": "ym2612"
    },
    {
      "channel": 0,
      "note": 45,
      "start": 68.8644,
      "duration": 0.0938,
      "velocity": 107,
      "chip": "ym2612"
    },
    {
      "channel": 2,
      "note": 74,
      "start": 68.8668,
      "duration": 0.2086,
      "velocity": 117,
      "chip": "ym2612"
    },
    {
      "channel": 5,
      "note": 64,
      "start": 68.9617,
      "duration": 0.1136,
      "velocity": 79,
      "chip": "ym2612"
    },
    {
      "channel": 5,
      "note": 63,
      "start": 69.0785,
      "duration": 0.0968,
      "velocity": 79,
      "chip": "ym2612"
    },
    {
      "channel": 0,
      "note": 52,
      "start": 69.0813,
      "duration": 0.0938,
      "velocity": 107,
      "chip": "ym2612"
    },
    {
      "channel": 2,
      "note": 74,
      "start": 69.0837,
      "duration": 0.1917,
      "velocity": 117,
      "chip": "ym2612"
    },
    {
      "channel": 5,
      "note": 64,
      "start": 69.1789,
      "duration": 0.0964,
      "velocity": 79,
      "chip": "ym2612"
    },
    {
      "channel": 5,
      "note": 57,
      "start": 69.2785,
      "duration": 0.1134,
      "velocity": 79,
      "chip": "ym2612"
    },
    {
      "channel": 0,
      "note": 49,
      "start": 69.2812,
      "duration": 0.1104,
      "velocity": 107,
      "chip": "ym2612"
    },
    {
      "channel": 5,
      "note": 64,
      "start": 69.3951,
      "duration": 0.0968,
      "velocity": 79,
      "chip": "ym2612"
    },
    {
      "channel": 5,
      "note": 63,
      "start": 69.4951,
      "duration": 0.1136,
      "velocity": 79,
      "chip": "ym2612"
    },
    {
      "channel": 0,
      "note": 52,
      "start": 69.4978,
      "duration": 0.1106,
      "velocity": 107,
      "chip": "ym2612"
    },
    {
      "channel": 2,
      "note": 74,
      "start": 69.5,
      "duration": 0.2087,
      "velocity": 117,
      "chip": "ym2612"
    },
    {
      "channel": 5,
      "note": 64,
      "start": 69.6119,
      "duration": 0.0966,
      "velocity": 79,
      "chip": "ym2612"
    },
    {
      "channel": 5,
      "note": 57,
      "start": 69.7118,
      "duration": 0.1135,
      "velocity": 79,
      "chip": "ym2612"
    },
    {
      "channel": 0,
      "note": 45,
      "start": 69.7145,
      "duration": 0.1105,
      "velocity": 107,
      "chip": "ym2612"
    },
    {
      "channel": 5,
      "note": 64,
      "start": 69.8284,
      "duration": 0.0968,
      "velocity": 79,
      "chip": "ym2612"
    },
    {
      "channel": 5,
      "note": 63,
      "start": 69.9283,
      "duration": 0.1137,
      "velocity": 79,
      "chip": "ym2612"
    },
    {
      "channel": 0,
      "note": 52,
      "start": 69.9311,
      "duration": 0.1106,
      "velocity": 107,
      "chip": "ym2612"
    },
    {
      "channel": 2,
      "note": 74,
      "start": 69.9334,
      "duration": 0.2086,
      "velocity": 117,
      "chip": "ym2612"
    },
    {
      "channel": 5,
      "note": 64,
      "start": 70.0452,
      "duration": 0.0966,
      "velocity": 79,
      "chip": "ym2612"
    },
    {
      "channel": 5,
      "note": 57,
      "start": 70.1451,
      "duration": 0.1135,
      "velocity": 79,
      "chip": "ym2612"
    },
    {
      "channel": 0,
      "note": 49,
      "start": 70.1478,
      "duration": 0.1105,
      "velocity": 107,
      "chip": "ym2612"
    },
    {
      "channel": 5,
      "note": 64,
      "start": 70.2618,
      "duration": 0.0968,
      "velocity": 79,
      "chip": "ym2612"
    },
    {
      "channel": 5,
      "note": 63,
      "start": 70.3617,
      "duration": 0.097,
      "velocity": 79,
      "chip": "ym2612"
    },
    {
      "channel": 0,
      "note": 52,
      "start": 70.3648,
      "duration": 0.0936,
      "velocity": 107,
      "chip": "ym2612"
    },
    {
      "channel": 2,
      "note": 74,
      "start": 70.3672,
      "duration": 0.2081,
      "velocity": 117,
      "chip": "ym2612"
    },
    {
      "channel": 5,
      "note": 64,
      "start": 70.4619,
      "duration": 0.1133,
      "velocity": 79,
      "chip": "ym2612"
    },
    {
      "channel": 5,
      "note": 57,
      "start": 70.5785,
      "duration": 0.0969,
      "velocity": 79,
      "chip": "ym2612"
    },
    {
      "channel": 0,
      "note": 45,
      "start": 70.5812,
      "duration": 0.0939,
      "velocity": 107,
      "chip": "ym2612"
    },
    {
      "channel": 2,
      "note": 74,
      "start": 70.5838,
      "duration": 0.2081,
      "velocity": 117,
      "chip": "ym2612"
    },
    {
      "channel": 5,
      "note": 64,
      "start": 70.6785,
      "duration": 0.1132,
      "velocity": 79,
      "chip": "ym2612"
    },
    {
      "channel": 5,
      "note": 63,
      "start": 70.7951,
      "duration": 0.0969,
      "velocity": 79,
      "chip": "ym2612"
    },
    {
      "channel": 0,
      "note": 52,
      "start": 70.7978,
      "duration": 0.0939,
      "velocity": 107,
      "chip": "ym2612"
    },
    {
      "channel": 2,
      "note": 74,
      "start": 70.8002,
      "duration": 0.2085,
      "velocity": 117,
      "chip": "ym2612"
    },
    {
      "channel": 5,
      "note": 64,
      "start": 70.8955,
      "duration": 0.113,
      "velocity": 79,
      "chip": "ym2612"
    },
    {
      "channel": 5,
      "note": 57,
      "start": 71.0118,
      "duration": 0.0968,
      "velocity": 79,
      "chip": "ym2612"
    },
    {
      "channel": 0,
      "note": 49,
      "start": 71.0145,
      "duration": 0.0938,
      "velocity": 107,
      "chip": "ym2612"
    },
    {
      "channel": 5,
      "note": 64,
      "start": 71.1118,
      "duration": 0.1134,
      "velocity": 79,
      "chip": "ym2612"
    },
    {
      "channel": 5,
      "note": 63,
      "start": 71.2283,
      "duration": 0.097,
      "velocity": 79,
      "chip": "ym2612"
    },
    {
      "channel": 0,
      "note": 52,
      "start": 71.2311,
      "duration": 0.094,
      "velocity": 107,
      "chip": "ym2612"
    },
    {
      "channel": 2,
      "note": 74,
      "start": 71.2334,
      "duration": 0.2087,
      "velocity": 117,
      "chip": "ym2612"
    },
    {
      "channel": 5,
      "note": 64,
      "start": 71.3285,
      "duration": 0.1134,
      "velocity": 79,
      "chip": "ym2612"
    },
    {
      "channel": 5,
      "note": 57,
      "start": 71.4452,
      "duration": 0.0968,
      "velocity": 79,
      "chip": "ym2612"
    },
    {
      "channel": 0,
      "note": 45,
      "start": 71.4479,
      "duration": 0.0938,
      "velocity": 107,
      "chip": "ym2612"
    },
    {
      "channel": 5,
      "note": 64,
      "start": 71.5452,
      "duration": 0.0967,
      "velocity": 79,
      "chip": "ym2612"
    },
    {
      "channel": 5,
      "note": 63,
      "start": 71.6451,
      "duration": 0.1136,
      "velocity": 79,
      "chip": "ym2612"
    },
    {
      "channel": 0,
      "note": 52,
      "start": 71.6478,
      "duration": 0.1106,
      "velocity": 107,
      "chip": "ym2612"
    },
    {
      "channel": 2,
      "note": 74,
      "start": 71.6501,
      "duration": 0.2085,
      "velocity": 117,
      "chip": "ym2612"
    },
    {
      "channel": 5,
      "note": 64,
      "start": 71.7619,
      "duration": 0.0966,
      "velocity": 79,
      "chip": "ym2612"
    },
    {
      "channel": 5,
      "note": 57,
      "start": 71.8617,
      "duration": 0.1135,
      "velocity": 79,
      "chip": "ym2612"
    },
    {
      "channel": 0,
      "note": 49,
      "start": 71.8645,
      "duration": 0.1104,
      "velocity": 107,
      "chip": "ym2612"
    },
    {
      "channel": 5,
      "note": 64,
      "start": 71.9784,
      "duration": 0.0968,
      "velocity": 79,
      "chip": "ym2612"
    },
    {
      "channel": 5,
      "note": 63,
      "start": 72.0785,
      "duration": 0.1135,
      "velocity": 79,
      "chip": "ym2612"
    },
    {
      "channel": 0,
      "note": 52,
      "start": 72.0812,
      "duration": 0.1105,
      "velocity": 107,
      "chip": "ym2612"
    },
    {
      "channel": 2,
      "note": 74,
      "start": 72.0838,
      "duration": 0.2083,
      "velocity": 117,
      "chip": "ym2612"
    },
    {
      "channel": 5,
      "note": 64,
      "start": 72.1951,
      "duration": 0.0968,
      "velocity": 79,
      "chip": "ym2612"
    },
    {
      "channel": 5,
      "note": 57,
      "start": 72.2951,
      "duration": 0.1135,
      "velocity": 79,
      "chip": "ym2612"
    },
    {
      "channel": 0,
      "note": 45,
      "start": 72.2979,
      "duration": 0.1104,
      "velocity": 107,
      "chip": "ym2612"
    },
    {
      "channel": 5,
      "note": 64,
      "start": 72.4117,
      "duration": 0.0968,
      "velocity": 79,
      "chip": "ym2612"
    },
    {
      "channel": 5,
      "note": 63,
      "start": 72.5117,
      "duration": 0.1136,
      "velocity": 79,
      "chip": "ym2612"
    },
    {
      "channel": 0,
      "note": 52,
      "start": 72.5144,
      "duration": 0.1106,
      "velocity": 107,
      "chip": "ym2612"
    },
    {
      "channel": 5,
      "note": 64,
      "start": 72.6289,
      "duration": 0.0963,
      "velocity": 79,
      "chip": "ym2612"
    },
    {
      "channel": 5,
      "note": 57,
      "start": 72.7284,
      "duration": 0.097,
      "velocity": 79,
      "chip": "ym2612"
    },
    {
      "channel": 0,
      "note": 49,
      "start": 72.7312,
      "duration": 0.0939,
      "velocity": 107,
      "chip": "ym2612"
    },
    {
      "channel": 4,
      "note": 45,
      "start": 72.734,
      "duration": 0.2078,
      "velocity": 88,
      "chip": "ym2612"
    },
    {
      "channel": 5,
      "note": 64,
      "start": 72.8285,
      "duration": 0.1134,
      "velocity": 79,
      "chip": "ym2612"
    },
    {
      "channel": 5,
      "note": 63,
      "start": 72.9451,
      "duration": 0.0968,
      "velocity": 79,
      "chip": "ym2612"
    },
    {
      "channel": 0,
      "note": 52,
      "start": 72.9478,
      "duration": 0.0938,
      "velocity": 107,
      "chip": "ym2612"
    },
    {
      "channel": 2,
      "note": 93,
      "start": 72.9622,
      "duration": 0.2798,
      "velocity": 84,
      "chip": "ym2612"
    },
    {
      "channel": 5,
      "note": 64,
      "start": 73.0451,
      "duration": 0.1135,
      "velocity": 79,
      "chip": "ym2612"
    },
    {
      "channel": 5,
      "note": 57,
      "start": 73.1618,
      "duration": 0.0969,
      "velocity": 79,
      "chip": "ym2612"
    },
    {
      "channel": 0,
      "note": 45,
      "start": 73.1645,
      "duration": 0.0939,
      "velocity": 107,
      "chip": "ym2612"
    },
    {
      "channel": 4,
      "note": 45,
      "start": 73.1671,
      "duration": 0.2081,
      "velocity": 88,
      "chip": "ym2612"
    },
    {
      "channel": 5,
      "note": 64,
      "start": 73.2619,
      "duration": 0.1134,
      "velocity": 79,
      "chip": "ym2612"
    },
    {
      "channel": 5,
      "note": 63,
      "start": 73.3785,
      "duration": 0.0969,
      "velocity": 79,
      "chip": "ym2612"
    },
    {
      "channel": 0,
      "note": 52,
      "start": 73.3812,
      "duration": 0.0939,
      "velocity": 107,
      "chip": "ym2612"
    },
    {
      "channel": 2,
      "note": 93,
      "start": 73.4454,
      "duration": 0.2966,
      "velocity": 84,
      "chip": "ym2612"
    },
    {
      "channel": 5,
      "note": 64,
      "start": 73.4785,
      "duration": 0.1134,
      "velocity": 79,
      "chip": "ym2612"
    },
    {
      "channel": 5,
      "note": 57,
      "start": 73.5951,
      "duration": 0.097,
      "velocity": 79,
      "chip": "ym2612"
    },
    {
      "channel": 0,
      "note": 49,
      "start": 73.5978,
      "duration": 0.0939,
      "velocity": 107,
      "chip": "ym2612"
    },
    {
      "channel": 4,
      "note": 45,
      "start": 73.6004,
      "duration": 0.2082,
      "velocity": 88,
      "chip": "ym2612"
    },
    {
      "channel": 5,
      "note": 64,
      "start": 73.6952,
      "duration": 0.1135,
      "velocity": 79,
      "chip": "ym2612"
    },
    {
      "channel": 5,
      "note": 63,
      "start": 73.8119,
      "duration": 0.0967,
      "velocity": 79,
      "chip": "ym2612"
    },
    {
      "channel": 0,
      "note": 52,
      "start": 73.8149,
      "duration": 0.0933,
      "velocity": 107,
      "chip": "ym2612"
    },
    {
      "channel": 5,
      "note": 64,
      "start": 73.9117,
      "duration": 0.0968,
      "velocity": 79,
      "chip": "ym2612"
    },
    {
      "channel": 5,
      "note": 57,
      "start": 74.0117,
      "duration": 0.1136,
      "velocity": 79,
      "chip": "ym2612"
    },
    {
      "channel": 0,
      "note": 45,
      "start": 74.0144,
      "duration": 0.1106,
      "velocity": 107,
      "chip": "ym2612"
    },
    {
      "channel": 4,
      "note": 48,
      "start": 74.0172,
      "duration": 0.2081,
      "velocity": 88,
      "chip": "ym2612"
    },
    {
      "channel": 5,
      "note": 64,
      "start": 74.1284,
      "duration": 0.097,
      "velocity": 79,
      "chip": "ym2612"
    },
    {
      "channel": 2,
      "note": 93,
      "start": 74.1455,
      "duration": 0.3132,
      "velocity": 84,
      "chip": "ym2612"
    },
    {
      "channel": 5,
      "note": 63,
      "start": 74.2285,
      "duration": 0.1134,
      "velocity": 79,
      "chip": "ym2612"
    },
    {
      "channel": 0,
      "note": 52,
      "start": 74.2313,
      "duration": 0.1104,
      "velocity": 107,
      "chip": "ym2612"
    },
    {
      "channel": 4,
      "note": 45,
      "start": 74.2338,
      "duration": 0.2081,
      "velocity": 88,
      "chip": "ym2612"
    },
    {
      "channel": 5,
      "note": 64,
      "start": 74.3455,
      "duration": 0.0966,
      "velocity": 79,
      "chip": "ym2612"
    },
    {
      "channel": 5,
      "note": 57,
      "start": 74.4452,
      "duration": 0.1135,
      "velocity": 79,
      "chip": "ym2612"
    },
    {
      "channel": 0,
      "note": 49,
      "start": 74.4479,
      "duration": 0.1105,
      "velocity": 107,
      "chip": "ym2612"
    },
    {
      "channel": 4,
      "note": 43,
      "start": 74.4505,
      "duration": 0.208,
      "velocity": 88,
      "chip": "ym2612"
    },
    {
      "channel": 5,
      "note": 64,
      "start": 74.5619,
      "duration": 0.0968,
      "velocity": 79,
      "chip": "ym2612"
    },
    {
      "channel": 5,
      "note": 63,
      "start": 74.6618,
      "duration": 0.1135,
      "velocity": 79,
      "chip": "ym2612"
    },
    {
      "channel": 0,
      "note": 52,
      "start": 74.6646,
      "duration": 0.1104,
      "velocity": 107,
      "chip": "ym2612"
    },
    {
      "channel": 4,
      "note": 45,
      "start": 74.6674,
      "duration": 0.2078,
      "velocity": 88,
      "chip": "ym2612"
    },
    {
      "channel": 5,
      "note": 64,
      "start": 74.7785,
      "duration": 0.0969,
      "velocity": 79,
      "chip": "ym2612"
    },
    {
      "channel": 5,
      "note": 57,
      "start": 74.8785,
      "duration": 0.1134,
      "velocity": 79,
      "chip": "ym2612"
    },
    {
      "channel": 0,
      "note": 45,
      "start": 74.8812,
      "duration": 0.1105,
      "velocity": 107,
      "chip": "ym2612"
    },
    {
      "channel": 5,
      "note": 64,
      "start": 74.9951,
      "duration": 0.0968,
      "velocity": 79,
      "chip": "ym2612"
    },
    {
      "channel": 5,
      "note": 63,
      "start": 75.0951,
      "duration": 0.0968,
      "velocity": 79,
      "chip": "ym2612"
    },
    {
      "channel": 0,
      "note": 52,
      "start": 75.0978,
      "duration": 0.0938,
      "velocity": 107,
      "chip": "ym2612"
    },
    {
      "channel": 5,
      "note": 64,
      "start": 75.1951,
      "duration": 0.1134,
      "velocity": 79,
      "chip": "ym2612"
    },
    {
      "channel": 5,
      "note": 57,
      "start": 75.3117,
      "duration": 0.097,
      "velocity": 79,
      "chip": "ym2612"
    },
    {
      "channel": 0,
      "note": 49,
      "start": 75.3144,
      "duration": 0.094,
      "velocity": 107,
      "chip": "ym2612"
    },
    {
      "channel": 5,
      "note": 64,
      "start": 75.4119,
      "duration": 0.1134,
      "velocity": 79,
      "chip": "ym2612"
    },
    {
      "channel": 5,
      "note": 63,
      "start": 75.5284,
      "duration": 0.097,
      "velocity": 79,
      "chip": "ym2612"
    },
    {
      "channel": 0,
      "note": 52,
      "start": 75.5311,
      "duration": 0.094,
      "velocity": 107,
      "chip": "ym2612"
    },
    {
      "channel": 5,
      "note": 64,
      "start": 75.6285,
      "duration": 0.1134,
      "velocity": 79,
      "chip": "ym2612"
    },
    {
      "channel": 5,
      "note": 57,
      "start": 75.7451,
      "duration": 0.0968,
      "velocity": 79,
      "chip": "ym2612"
    },
    {
      "channel": 0,
      "note": 45,
      "start": 75.7478,
      "duration": 0.0938,
      "velocity": 107,
      "chip": "ym2612"
    },
    {
      "channel": 2,
      "note": 74,
      "start": 75.7502,
      "duration": 0.2085,
      "velocity": 117,
      "chip": "ym2612"
    },
    {
      "channel": 5,
      "note": 64,
      "start": 75.8451,
      "duration": 0.1134,
      "velocity": 79,
      "chip": "ym2612"
    },
    {
      "channel": 5,
      "note": 63,
      "start": 75.9618,
      "duration": 0.0968,
      "velocity": 79,
      "chip": "ym2612"
    },
    {
      "channel": 0,
      "note": 52,
      "start": 75.9645,
      "duration": 0.0939,
      "velocity": 107,
      "chip": "ym2612"
    },
    {
      "channel": 2,
      "note": 74,
      "start": 75.9669,
      "duration": 0.2085,
      "velocity": 117,
      "chip": "ym2612"
    },
    {
      "channel": 5,
      "note": 64,
      "start": 76.0622,
      "duration": 0.113,
      "velocity": 79,
      "chip": "ym2612"
    },
    {
      "channel": 5,
      "note": 57,
      "start": 76.1785,
      "duration": 0.0969,
      "velocity": 79,
      "chip": "ym2612"
    },
    {
      "channel": 0,
      "note": 49,
      "start": 76.1812,
      "duration": 0.0939,
      "velocity": 107,
      "chip": "ym2612"
    },
    {
      "channel": 5,
      "note": 64,
      "start": 76.2785,
      "duration": 0.0966,
      "velocity": 79,
      "chip": "ym2612"
    },
    {
      "channel": 5,
      "note": 63,
      "start": 76.3783,
      "duration": 0.1137,
      "velocity": 79,
      "chip": "ym2612"
    },
    {
      "channel": 0,
      "note": 52,
      "start": 76.3811,
      "duration": 0.1106,
      "velocity": 107,
      "chip": "ym2612"
    },
    {
      "channel": 2,
      "note": 74,
      "start": 76.3834,
      "duration": 0.2087,
      "velocity": 117,
      "chip": "ym2612"
    },
    {
      "channel": 5,
      "note": 64,
      "start": 76.4952,
      "duration": 0.0967,
      "velocity": 79,
      "chip": "ym2612"
    },
    {
      "channel": 5,
      "note": 57,
      "start": 76.5951,
      "duration": 0.1135,
      "velocity": 79,
      "chip": "ym2612"
    },
    {
      "channel": 0,
      "note": 45,
      "start": 76.5978,
      "duration": 0.1105,
      "velocity": 107,
      "chip": "ym2612"
    },
    {
      "channel": 5,
      "note": 64,
      "start": 76.7118,
      "duration": 0.0968,
      "velocity": 79,
      "chip": "ym2612"
    },
    {
      "channel": 5,
      "note": 63,
      "start": 76.8117,
      "duration": 0.1136,
      "velocity": 79,
      "chip": "ym2612"
    },
    {
      "channel": 0,
      "note": 52,
      "start": 76.8144,
      "duration": 0.1106,
      "velocity": 107,
      "chip": "ym2612"
    },
    {
      "channel": 2,
      "note": 74,
      "start": 76.8167,
      "duration": 0.2087,
      "velocity": 117,
      "chip": "ym2612"
    },
    {
      "channel": 5,
      "note": 64,
      "start": 76.9285,
      "duration": 0.0968,
      "velocity": 79,
      "chip": "ym2612"
    },
    {
      "channel": 5,
      "note": 57,
      "start": 77.0285,
      "duration": 0.1134,
      "velocity": 79,
      "chip": "ym2612"
    },
    {
      "channel": 0,
      "note": 49,
      "start": 77.0312,
      "duration": 0.1104,
      "velocity": 107,
      "chip": "ym2612"
    },
    {
      "channel": 5,
      "note": 64,
      "start": 77.1451,
      "duration": 0.0968,
      "velocity": 79,
      "chip": "ym2612"
    },
    {
      "channel": 5,
      "note": 63,
      "start": 77.2451,
      "duration": 0.097,
      "velocity": 79,
      "chip": "ym2612"
    },
    {
      "channel": 0,
      "note": 52,
      "start": 77.2481,
      "duration": 0.0936,
      "velocity": 107,
      "chip": "ym2612"
    },
    {
      "channel": 2,
      "note": 74,
      "start": 77.2506,
      "duration": 0.2081,
      "velocity": 117,
      "chip": "ym2612"
    },
    {
      "channel": 5,
      "note": 64,
      "start": 77.3452,
      "duration": 0.1132,
      "velocity": 79,
      "chip": "ym2612"
    },
    {
      "channel": 5,
      "note": 57,
      "start": 77.4617,
      "duration": 0.097,
      "velocity": 79,
      "chip": "ym2612"
    },
    {
      "channel": 0,
      "note": 45,
      "start": 77.4645,
      "duration": 0.0939,
      "velocity": 107,
      "chip": "ym2612"
    },
    {
      "channel": 2,
      "note": 74,
      "start": 77.4672,
      "duration": 0.2083,
      "velocity": 117,
      "chip": "ym2612"
    },
    {
      "channel": 5,
      "note": 64,
      "start": 77.5619,
      "duration": 0.1134,
      "velocity": 79,
      "chip": "ym2612"
    },
    {
      "channel": 5,
      "note": 63,
      "start": 77.6785,
      "duration": 0.0968,
      "velocity": 79,
      "chip": "ym2612"
    },
    {
      "channel": 0,
      "note": 52,
      "start": 77.6812,
      "duration": 0.0939,
      "velocity": 107,
      "chip": "ym2612"
    },
    {
      "channel": 2,
      "note": 74,
      "start": 77.6836,
      "duration": 0.2085,
      "velocity": 117,
      "chip": "ym2612"
    },
    {
      "channel": 5,
      "note": 64,
      "start": 77.7789,
      "duration": 0.113,
      "velocity": 79,
      "chip": "ym2612"
    },
    {
      "channel": 5,
      "note": 57,
      "start": 77.8952,
      "duration": 0.0967,
      "velocity": 79,
      "chip": "ym2612"
    },
    {
      "channel": 0,
      "note": 49,
      "start": 77.8979,
      "duration": 0.0937,
      "velocity": 107,
      "chip": "ym2612"
    },
    {
      "channel": 5,
      "note": 64,
      "start": 77.9951,
      "duration": 0.1134,
      "velocity": 79,
      "chip": "ym2612"
    },
    {
      "channel": 5,
      "note": 63,
      "start": 78.1117,
      "duration": 0.097,
      "velocity": 79,
      "chip": "ym2612"
    },
    {
      "channel": 0,
      "note": 52,
      "start": 78.1144,
      "duration": 0.094,
      "velocity": 107,
      "chip": "ym2612"
    },
    {
      "channel": 2,
      "note": 74,
      "start": 78.1167,
      "duration": 0.2086,
      "velocity": 117,
      "chip": "ym2612"
    },
    {
      "channel": 5,
      "note": 64,
      "start": 78.2119,
      "duration": 0.1132,
      "velocity": 79,
      "chip": "ym2612"
    },
    {
      "channel": 5,
      "note": 57,
      "start": 78.3284,
      "duration": 0.0969,
      "velocity": 79,
      "chip": "ym2612"
    },
    {
      "channel": 0,
      "note": 45,
      "start": 78.3312,
      "duration": 0.0938,
      "velocity": 107,
      "chip": "ym2612"
    },
    {
      "channel": 5,
      "note": 64,
      "start": 78.4284,
      "duration": 0.0968,
      "velocity": 79,
      "chip": "ym2612"
    },
    {
      "channel": 5,
      "note": 63,
      "start": 78.5284,
      "duration": 0.1136,
      "velocity": 79,
      "chip": "ym2612"
    },
    {
      "channel": 0,
      "note": 52,
      "start": 78.5311,
      "duration": 0.1106,
      "velocity": 107,
      "chip": "ym2612"
    },
    {
      "channel": 2,
      "note": 74,
      "start": 78.5334,
      "duration": 0.2087,
      "velocity": 117,
      "chip": "ym2612"
    },
    {
      "channel": 5,
      "note": 64,
      "start": 78.6451,
      "duration": 0.0968,
      "velocity": 79,
      "chip": "ym2612"
    },
    {
      "channel": 5,
      "note": 57,
      "start": 78.7452,
      "duration": 0.1135,
      "velocity": 79,
      "chip": "ym2612"
    },
    {
      "channel": 0,
      "note": 49,
      "start": 78.7479,
      "duration": 0.1105,
      "velocity": 107,
      "chip": "ym2612"
    },
    {
      "channel": 5,
      "note": 64,
      "start": 78.8619,
      "duration": 0.0967,
      "velocity": 79,
      "chip": "ym2612"
    },
    {
      "channel": 5,
      "note": 63,
      "start": 78.9617,
      "duration": 0.1136,
      "velocity": 79,
      "chip": "ym2612"
    },
    {
      "channel": 0,
      "note": 52,
      "start": 78.9645,
      "duration": 0.1106,
      "velocity": 107,
      "chip": "ym2612"
    },
    {
      "channel": 2,
      "note": 74,
      "start": 78.967,
      "duration": 0.2083,
      "velocity": 117,
      "chip": "ym2612"
    },
    {
      "channel": 5,
      "note": 64,
      "start": 79.0785,
      "duration": 0.0966,
      "velocity": 79,
      "chip": "ym2612"
    },
    {
      "channel": 5,
      "note": 57,
      "start": 79.1784,
      "duration": 0.1137,
      "velocity": 79,
      "chip": "ym2612"
    },
    {
      "channel": 0,
      "note": 45,
      "start": 79.1812,
      "duration": 0.1106,
      "velocity": 107,
      "chip": "ym2612"
    },
    {
      "channel": 5,
      "note": 64,
      "start": 79.2953,
      "duration": 0.0966,
      "velocity": 79,
      "chip": "ym2612"
    },
    {
      "channel": 5,
      "note": 63,
      "start": 79.3951,
      "duration": 0.1136,
      "velocity": 79,
      "chip": "ym2612"
    },
    {
      "channel": 0,
      "note": 52,
      "start": 79.3978,
      "duration": 0.1106,
      "velocity": 107,
      "chip": "ym2612"
    },
    {
      "channel": 5,
      "note": 64,
      "start": 79.5123,
      "duration": 0.0962,
      "velocity": 79,
      "chip": "ym2612"
    },
    {
      "channel": 5,
      "note": 57,
      "start": 79.6117,
      "duration": 0.097,
      "velocity": 79,
      "chip": "ym2612"
    },
    {
      "channel": 0,
      "note": 49,
      "start": 79.6144,
      "duration": 0.094,
      "velocity": 107,
      "chip": "ym2612"
    },
    {
      "channel": 5,
      "note": 64,
      "start": 79.7119,
      "duration": 0.1134,
      "velocity": 79,
      "chip": "ym2612"
    },
    {
      "channel": 5,
      "note": 63,
      "start": 79.8284,
      "duration": 0.0969,
      "velocity": 79,
      "chip": "ym2612"
    },
    {
      "channel": 0,
      "note": 52,
      "start": 79.8312,
      "duration": 0.0938,
      "velocity": 107,
      "chip": "ym2612"
    },
    {
      "channel": 5,
      "note": 64,
      "start": 79.9284,
      "duration": 0.1134,
      "velocity": 79,
      "chip": "ym2612"
    },
    {
      "channel": 5,
      "note": 57,
      "start": 80.045,
      "duration": 0.097,
      "velocity": 79,
      "chip": "ym2612"
    },
    {
      "channel": 0,
      "note": 45,
      "start": 80.0477,
      "duration": 0.094,
      "velocity": 107,
      "chip": "ym2612"
    },
    {
      "channel": 5,
      "note": 64,
      "start": 80.1451,
      "duration": 0.1135,
      "velocity": 79,
      "chip": "ym2612"
    },
    {
      "channel": 4,
      "note": 80,
      "start": 80.1621,
      "duration": 0.3796,
      "velocity": 84,
      "chip": "ym2612"
    },
    {
      "channel": 5,
      "note": 63,
      "start": 80.2617,
      "duration": 0.0969,
      "velocity": 79,
      "chip": "ym2612"
    },
    {
      "channel": 0,
      "note": 52,
      "start": 80.2644,
      "duration": 0.094,
      "velocity": 107,
      "chip": "ym2612"
    },
    {
      "channel": 5,
      "note": 64,
      "start": 80.3618,
      "duration": 0.1134,
      "velocity": 79,
      "chip": "ym2612"
    },
    {
      "channel": 5,
      "note": 57,
      "start": 80.4783,
      "duration": 0.097,
      "velocity": 79,
      "chip": "ym2612"
    },
    {
      "channel": 0,
      "note": 49,
      "start": 80.481,
      "duration": 0.0941,
      "velocity": 107,
      "chip": "ym2612"
    },
    {
      "channel": 5,
      "note": 64,
      "start": 80.5785,
      "duration": 0.1134,
      "velocity": 79,
      "chip": "ym2612"
    },
    {
      "channel": 5,
      "note": 63,
      "start": 80.6951,
      "duration": 0.0969,
      "velocity": 79,
      "chip": "ym2612"
    },
    {
      "channel": 0,
      "note": 52,
      "start": 80.6981,
      "duration": 0.0935,
      "velocity": 107,
      "chip": "ym2612"
    },
    {
      "channel": 5,
      "note": 64,
      "start": 80.7951,
      "duration": 0.0968,
      "velocity": 79,
      "chip": "ym2612"
    },
    {
      "channel": 5,
      "note": 57,
      "start": 80.8951,
      "duration": 0.1136,
      "velocity": 79,
      "chip": "ym2612"
    },
    {
      "channel": 0,
      "note": 45,
      "start": 80.8978,
      "duration": 0.1106,
      "velocity": 107,
      "chip": "ym2612"
    },
    {
      "channel": 5,
      "note": 64,
      "start": 81.0118,
      "duration": 0.0968,
      "velocity": 79,
      "chip": "ym2612"
    },
    {
      "channel": 5,
      "note": 63,
      "start": 81.1117,
      "duration": 0.1136,
      "velocity": 79,
      "chip": "ym2612"
    },
    {
      "channel": 0,
      "note": 52,
      "start": 81.1144,
      "duration": 0.1106,
      "velocity": 107,
      "chip": "ym2612"
    },
    {
      "channel": 5,
      "note": 64,
      "start": 81.2289,
      "duration": 0.0963,
      "velocity": 79,
      "chip": "ym2612"
    },
    {
      "channel": 5,
      "note": 57,
      "start": 81.3284,
      "duration": 0.1136,
      "velocity": 79,
      "chip": "ym2612"
    },
    {
      "channel": 0,
      "note": 49,
      "start": 81.3312,
      "duration": 0.1106,
      "velocity": 107,
      "chip": "ym2612"
    },
    {
      "channel": 5,
      "note": 64,
      "start": 81.4452,
      "duration": 0.0966,
      "velocity": 79,
      "chip": "ym2612"
    },
    {
      "channel": 5,
      "note": 63,
      "start": 81.545,
      "duration": 0.1136,
      "velocity": 79,
      "chip": "ym2612"
    },
    {
      "channel": 0,
      "note": 52,
      "start": 81.5477,
      "duration": 0.1106,
      "velocity": 107,
      "chip": "ym2612"
    },
    {
      "channel": 5,
      "note": 64,
      "start": 81.6617,
      "duration": 0.0968,
      "velocity": 79,
      "chip": "ym2612"
    },
    {
      "channel": 5,
      "note": 57,
      "start": 81.7617,
      "duration": 0.1136,
      "velocity": 79,
      "chip": "ym2612"
    },
    {
      "channel": 0,
      "note": 45,
      "start": 81.7644,
      "duration": 0.1106,
      "velocity": 107,
      "chip": "ym2612"
    },
    {
      "channel": 5,
      "note": 64,
      "start": 81.8785,
      "duration": 0.0968,
      "velocity": 79,
      "chip": "ym2612"
    },
    {
      "channel": 5,
      "note": 63,
      "start": 81.9784,
      "duration": 0.097,
      "velocity": 79,
      "chip": "ym2612"
    },
    {
      "channel": 0,
      "note": 52,
      "start": 81.9811,
      "duration": 0.094,
      "velocity": 107,
      "chip": "ym2612"
    },
    {
      "channel": 5,
      "note": 64,
      "start": 82.0785,
      "duration": 0.1134,
      "velocity": 79,
      "chip": "ym2612"
    },
    {
      "channel": 4,
      "note": 80,
      "start": 82.1121,
      "duration": 0.3298,
      "velocity": 84,
      "chip": "ym2612"
    },
    {
      "channel": 5,
      "note": 57,
      "start": 82.1951,
      "duration": 0.0968,
      "velocity": 79,
      "chip": "ym2612"
    },
    {
      "channel": 0,
      "note": 49,
      "start": 82.1978,
      "duration": 0.0939,
      "velocity": 107,
      "chip": "ym2612"
    },
    {
      "channel": 5,
      "note": 64,
      "start": 82.2951,
      "duration": 0.1135,
      "velocity": 79,
      "chip": "ym2612"
    },
    {
      "channel": 5,
      "note": 63,
      "start": 82.4117,
      "duration": 0.097,
      "velocity": 79,
      "chip": "ym2612"
    },
    {
      "channel": 0,
      "note": 52,
      "start": 82.4144,
      "duration": 0.094,
      "velocity": 107,
      "chip": "ym2612"
    },
    {
      "channel": 5,
      "note": 64,
      "start": 82.512,
      "duration": 0.0966,
      "velocity": 79,
      "chip": "ym2612"
    }
  ]
}