{
  "track_name": "09 Ending [TriAngle]",
  "duration_sec": 135.5,
  "sample_rate": 44100,
  "note_count": 722,
  "unique_pitches": 31,
  "pitch_range": 60,
  "avg_note_duration": 0.9987,
  "reconstruction_stats": {
    "notes_reconstructed": 722,
    "keyon_events": 722,
    "keyoff_events": 719,
    "orphan_keyons": 3,
    "unique_pitches": 31,
    "pitch_range": 60,
    "avg_duration_sec": 0.9987
  },
  "metadata": {
    "source": "I\\If\\09 Ending [TriAngle].vgz"
  },
  "notes": [
    {
      "channel": 3,
      "note": -1,
      "start": 0.2503,
      "duration": 135.2497,
      "velocity": 98,
      "chip": "ym2612"
    },
    {
      "channel": 4,
      "note": -1,
      "start": 0.2503,
      "duration": 135.2497,
      "velocity": 98,
      "chip": "ym2612"
    },
    {
      "channel": 5,
      "note": -1,
      "start": 0.2503,
      "duration": 135.2497,
      "velocity": 127,
      "chip": "ym2612"
    },
    {
      "channel": 2,
      "note": 56,
      "start": 0.2726,
      "duration": 1.0376,
      "velocity": 82,
      "chip": "ym2612"
    },
    {
      "channel": 2,
      "note": 56,
      "start": 1.3712,
      "duration": 0.6717,
      "velocity": 82,
      "chip": "ym2612"
    },
    {
      "channel": 2,
      "note": 56,
      "start": 2.104,
      "duration": 0.3053,
      "velocity": 82,
      "chip": "ym2612"
    },
    {
      "channel": 2,
      "note": 56,
      "start": 2.4704,
      "duration": 1.038,
      "velocity": 82,
      "chip": "ym2612"
    },
    {
      "channel": 2,
      "note": 56,
      "start": 3.5696,
      "duration": 0.4885,
      "velocity": 82,
      "chip": "ym2612"
    },
    {
      "channel": 2,
      "note": 68,
      "start": 4.1191,
      "duration": 0.1222,
      "velocity": 82,
      "chip": "ym2612"
    },
    {
      "channel": 2,
      "note": 56,
      "start": 4.3023,
      "duration": 0.3053,
      "velocity": 82,
      "chip": "ym2612"
    },
    {
      "channel": 2,
      "note": 56,
      "start": 4.6688,
      "duration": 1.038,
      "velocity": 82,
      "chip": "ym2612"
    },
    {
      "channel": 2,
      "note": 56,
      "start": 5.7679,
      "duration": 0.6717,
      "velocity": 82,
      "chip": "ym2612"
    },
    {
      "channel": 2,
      "note": 56,
      "start": 6.5007,
      "duration": 0.3053,
      "velocity": 82,
      "chip": "ym2612"
    },
    {
      "channel": 2,
      "note": 56,
      "start": 6.8671,
      "duration": 1.038,
      "velocity": 82,
      "chip": "ym2612"
    },
    {
      "channel": 2,
      "note": 56,
      "start": 7.9662,
      "duration": 0.4885,
      "velocity": 82,
      "chip": "ym2612"
    },
    {
      "channel": 2,
      "note": 56,
      "start": 8.5158,
      "duration": 0.1221,
      "velocity": 82,
      "chip": "ym2612"
    },
    {
      "channel": 1,
      "note": 47,
      "start": 8.6993,
      "duration": 0.1218,
      "velocity": 120,
      "chip": "ym2612"
    },
    {
      "channel": 2,
      "note": 58,
      "start": 8.6994,
      "duration": 0.3049,
      "velocity": 82,
      "chip": "ym2612"
    },
    {
      "channel": 1,
      "note": 47,
      "start": 8.8825,
      "duration": 0.1218,
      "velocity": 120,
      "chip": "ym2612"
    },
    {
      "channel": 1,
      "note": 30,
      "start": 9.0657,
      "duration": 0.305,
      "velocity": 123,
      "chip": "ym2612"
    },
    {
      "channel": 2,
      "note": 61,
      "start": 9.0658,
      "duration": 1.0377,
      "velocity": 82,
      "chip": "ym2612"
    },
    {
      "channel": 1,
      "note": 78,
      "start": 9.4321,
      "duration": 0.3051,
      "velocity": 127,
      "chip": "ym2612"
    },
    {
      "channel": 1,
      "note": 47,
      "start": 9.7985,
      "duration": 0.305,
      "velocity": 120,
      "chip": "ym2612"
    },
    {
      "channel": 1,
      "note": 30,
      "start": 10.1648,
      "duration": 0.4882,
      "velocity": 123,
      "chip": "ym2612"
    },
    {
      "channel": 2,
      "note": 60,
      "start": 10.1649,
      "duration": 0.6714,
      "velocity": 82,
      "chip": "ym2612"
    },
    {
      "channel": 1,
      "note": 78,
      "start": 10.7145,
      "duration": 0.1218,
      "velocity": 117,
      "chip": "ym2612"
    },
    {
      "channel": 1,
      "note": 47,
      "start": 10.8976,
      "duration": 0.305,
      "velocity": 120,
      "chip": "ym2612"
    },
    {
      "channel": 2,
      "note": 60,
      "start": 10.8977,
      "duration": 0.305,
      "velocity": 82,
      "chip": "ym2612"
    },
    {
      "channel": 1,
      "note": 30,
      "start": 11.2641,
      "duration": 0.305,
      "velocity": 123,
      "chip": "ym2612"
    },
    {
      "channel": 2,
      "note": 58,
      "start": 11.2641,
      "duration": 1.0377,
      "velocity": 82,
      "chip": "ym2612"
    },
    {
      "channel": 1,
      "note": 78,
      "start": 11.6305,
      "duration": 0.3049,
      "velocity": 127,
      "chip": "ym2612"
    },
    {
      "channel": 1,
      "note": 47,
      "start": 11.9968,
      "duration": 0.305,
      "velocity": 120,
      "chip": "ym2612"
    },
    {
      "channel": 1,
      "note": 30,
      "start": 12.3632,
      "duration": 0.4882,
      "velocity": 123,
      "chip": "ym2612"
    },
    {
      "channel": 2,
      "note": 60,
      "start": 12.3633,
      "duration": 0.4882,
      "velocity": 82,
      "chip": "ym2612"
    },
    {
      "channel": 1,
      "note": 78,
      "start": 12.9128,
      "duration": 0.1218,
      "velocity": 117,
      "chip": "ym2612"
    },
    {
      "channel": 2,
      "note": 68,
      "start": 12.9129,
      "duration": 0.1218,
      "velocity": 82,
      "chip": "ym2612"
    },
    {
      "channel": 1,
      "note": 47,
      "start": 13.096,
      "duration": 0.3051,
      "velocity": 120,
      "chip": "ym2612"
    },
    {
      "channel": 2,
      "note": 60,
      "start": 13.0961,
      "duration": 0.305,
      "velocity": 82,
      "chip": "ym2612"
    },
    {
      "channel": 1,
      "note": 30,
      "start": 13.4624,
      "duration": 0.3051,
      "velocity": 123,
      "chip": "ym2612"
    },
    {
      "channel": 2,
      "note": 61,
      "start": 13.4624,
      "duration": 0.6714,
      "velocity": 82,
      "chip": "ym2612"
    },
    {
      "channel": 1,
      "note": 78,
      "start": 13.8288,
      "duration": 0.305,
      "velocity": 127,
      "chip": "ym2612"
    },
    {
      "channel": 1,
      "note": 47,
      "start": 14.1951,
      "duration": 0.3051,
      "velocity": 120,
      "chip": "ym2612"
    },
    {
      "channel": 2,
      "note": 61,
      "start": 14.1952,
      "duration": 0.305,
      "velocity": 82,
      "chip": "ym2612"
    },
    {
      "channel": 1,
      "note": 30,
      "start": 14.5616,
      "duration": 0.4882,
      "velocity": 123,
      "chip": "ym2612"
    },
    {
      "channel": 2,
      "note": 63,
      "start": 14.5617,
      "duration": 0.3049,
      "velocity": 82,
      "chip": "ym2612"
    },
    {
      "channel": 2,
      "note": 56,
      "start": 14.9277,
      "duration": 0.3053,
      "velocity": 82,
      "chip": "ym2612"
    },
    {
      "channel": 1,
      "note": 78,
      "start": 15.1111,
      "duration": 0.1218,
      "velocity": 117,
      "chip": "ym2612"
    },
    {
      "channel": 1,
      "note": 47,
      "start": 15.2943,
      "duration": 0.305,
      "velocity": 120,
      "chip": "ym2612"
    },
    {
      "channel": 2,
      "note": 60,
      "start": 15.2944,
      "duration": 0.305,
      "velocity": 82,
      "chip": "ym2612"
    },
    {
      "channel": 1,
      "note": 30,
      "start": 15.6608,
      "duration": 0.305,
      "velocity": 123,
      "chip": "ym2612"
    },
    {
      "channel": 2,
      "note": 58,
      "start": 15.6608,
      "duration": 0.8545,
      "velocity": 82,
      "chip": "ym2612"
    },
    {
      "channel": 1,
      "note": 78,
      "start": 16.0271,
      "duration": 0.3051,
      "velocity": 127,
      "chip": "ym2612"
    },
    {
      "channel": 1,
      "note": 47,
      "start": 16.3935,
      "duration": 0.3051,
      "velocity": 120,
      "chip": "ym2612"
    },
    {
      "channel": 2,
      "note": 56,
      "start": 16.5764,
      "duration": 0.1222,
      "velocity": 82,
      "chip": "ym2612"
    },
    {
      "channel": 1,
      "note": 30,
      "start": 16.7599,
      "duration": 0.305,
      "velocity": 123,
      "chip": "ym2612"
    },
    {
      "channel": 2,
      "note": 56,
      "start": 16.76,
      "duration": 1.0377,
      "velocity": 82,
      "chip": "ym2612"
    },
    {
      "channel": 1,
      "note": 47,
      "start": 17.1263,
      "duration": 0.1218,
      "velocity": 120,
      "chip": "ym2612"
    },
    {
      "channel": 1,
      "note": 78,
      "start": 17.3095,
      "duration": 0.1218,
      "velocity": 117,
      "chip": "ym2612"
    },
    {
      "channel": 0,
      "note": 67,
      "start": 17.4924,
      "duration": 0.1221,
      "velocity": 103,
      "chip": "ym2612"
    },
    {
      "channel": 1,
      "note": 47,
      "start": 17.4927,
      "duration": 0.3049,
      "velocity": 120,
      "chip": "ym2612"
    },
    {
      "channel": 0,
      "note": 68,
      "start": 17.6756,
      "duration": 0.1221,
      "velocity": 103,
      "chip": "ym2612"
    },
    {
      "channel": 0,
      "note": 70,
      "start": 17.8588,
      "duration": 0.3053,
      "velocity": 103,
      "chip": "ym2612"
    },
    {
      "channel": 1,
      "note": 30,
      "start": 17.8591,
      "duration": 0.305,
      "velocity": 123,
      "chip": "ym2612"
    },
    {
      "channel": 2,
      "note": 56,
      "start": 17.8592,
      "duration": 1.0377,
      "velocity": 82,
      "chip": "ym2612"
    },
    {
      "channel": 0,
      "note": 68,
      "start": 18.2251,
      "duration": 0.4885,
      "velocity": 103,
      "chip": "ym2612"
    },
    {
      "channel": 1,
      "note": 78,
      "start": 18.2255,
      "duration": 0.305,
      "velocity": 127,
      "chip": "ym2612"
    },
    {
      "channel": 1,
      "note": 47,
      "start": 18.5918,
      "duration": 0.3051,
      "velocity": 120,
      "chip": "ym2612"
    },
    {
      "channel": 0,
      "note": 73,
      "start": 18.7748,
      "duration": 0.1221,
      "velocity": 103,
      "chip": "ym2612"
    },
    {
      "channel": 0,
      "note": 72,
      "start": 18.958,
      "duration": 2.5036,
      "velocity": 103,
      "chip": "ym2612"
    },
    {
      "channel": 1,
      "note": 30,
      "start": 18.9583,
      "duration": 0.4881,
      "velocity": 123,
      "chip": "ym2612"
    },
    {
      "channel": 2,
      "note": 56,
      "start": 18.9584,
      "duration": 0.6712,
      "velocity": 82,
      "chip": "ym2612"
    },
    {
      "channel": 1,
      "note": 78,
      "start": 19.5079,
      "duration": 0.1217,
      "velocity": 117,
      "chip": "ym2612"
    },
    {
      "channel": 1,
      "note": 47,
      "start": 19.691,
      "duration": 0.305,
      "velocity": 120,
      "chip": "ym2612"
    },
    {
      "channel": 2,
      "note": 56,
      "start": 19.6911,
      "duration": 0.3049,
      "velocity": 82,
      "chip": "ym2612"
    },
    {
      "channel": 1,
      "note": 30,
      "start": 20.0575,
      "duration": 0.305,
      "velocity": 123,
      "chip": "ym2612"
    },
    {
      "channel": 2,
      "note": 56,
      "start": 20.0575,
      "duration": 1.0377,
      "velocity": 82,
      "chip": "ym2612"
    },
    {
      "channel": 1,
      "note": 78,
      "start": 20.4238,
      "duration": 0.3051,
      "velocity": 127,
      "chip": "ym2612"
    },
    {
      "channel": 1,
      "note": 47,
      "start": 20.7902,
      "duration": 0.3051,
      "velocity": 120,
      "chip": "ym2612"
    },
    {
      "channel": 1,
      "note": 30,
      "start": 21.1566,
      "duration": 0.4882,
      "velocity": 123,
      "chip": "ym2612"
    },
    {
      "channel": 2,
      "note": 56,
      "start": 21.1567,
      "duration": 0.4882,
      "velocity": 82,
      "chip": "ym2612"
    },
    {
      "channel": 1,
      "note": 78,
      "start": 21.7061,
      "duration": 0.1219,
      "velocity": 117,
      "chip": "ym2612"
    },
    {
      "channel": 2,
      "note": 68,
      "start": 21.7062,
      "duration": 0.1218,
      "velocity": 82,
      "chip": "ym2612"
    },
    {
      "channel": 0,
      "note": 68,
      "start": 21.889,
      "duration": 0.3053,
      "velocity": 103,
      "chip": "ym2612"
    },
    {
      "channel": 1,
      "note": 47,
      "start": 21.8894,
      "duration": 0.305,
      "velocity": 120,
      "chip": "ym2612"
    },
    {
      "channel": 2,
      "note": 56,
      "start": 21.8895,
      "duration": 0.3049,
      "velocity": 82,
      "chip": "ym2612"
    },
    {
      "channel": 0,
      "note": 70,
      "start": 22.2554,
      "duration": 0.6717,
      "velocity": 103,
      "chip": "ym2612"
    },
    {
      "channel": 1,
      "note": 30,
      "start": 22.2558,
      "duration": 0.305,
      "velocity": 123,
      "chip": "ym2612"
    },
    {
      "channel": 2,
      "note": 56,
      "start": 22.2558,
      "duration": 1.0377,
      "velocity": 82,
      "chip": "ym2612"
    },
    {
      "channel": 1,
      "note": 78,
      "start": 22.6221,
      "duration": 0.305,
      "velocity": 127,
      "chip": "ym2612"
    },
    {
      "channel": 0,
      "note": 72,
      "start": 22.9882,
      "duration": 0.1221,
      "velocity": 103,
      "chip": "ym2612"
    },
    {
      "channel": 1,
      "note": 47,
      "start": 22.9885,
      "duration": 0.305,
      "velocity": 120,
      "chip": "ym2612"
    },
    {
      "channel": 0,
      "note": 73,
      "start": 23.1714,
      "duration": 0.1221,
      "velocity": 103,
      "chip": "ym2612"
    },
    {
      "channel": 0,
      "note": 75,
      "start": 23.3546,
      "duration": 2.87,
      "velocity": 103,
      "chip": "ym2612"
    },
    {
      "channel": 1,
      "note": 30,
      "start": 23.355,
      "duration": 0.4881,
      "velocity": 123,
      "chip": "ym2612"
    },
    {
      "channel": 2,
      "note": 56,
      "start": 23.3551,
      "duration": 0.6712,
      "velocity": 82,
      "chip": "ym2612"
    },
    {
      "channel": 1,
      "note": 78,
      "start": 23.9044,
      "duration": 0.1219,
      "velocity": 117,
      "chip": "ym2612"
    },
    {
      "channel": 1,
      "note": 47,
      "start": 24.0876,
      "duration": 0.305,
      "velocity": 120,
      "chip": "ym2612"
    },
    {
      "channel": 2,
      "note": 56,
      "start": 24.0877,
      "duration": 0.305,
      "velocity": 82,
      "chip": "ym2612"
    },
    {
      "channel": 1,
      "note": 30,
      "start": 24.4541,
      "duration": 0.305,
      "velocity": 123,
      "chip": "ym2612"
    },
    {
      "channel": 2,
      "note": 56,
      "start": 24.4541,
      "duration": 1.0377,
      "velocity": 82,
      "chip": "ym2612"
    },
    {
      "channel": 1,
      "note": 78,
      "start": 24.8204,
      "duration": 0.3051,
      "velocity": 127,
      "chip": "ym2612"
    },
    {
      "channel": 1,
      "note": 47,
      "start": 25.1868,
      "duration": 0.3051,
      "velocity": 120,
      "chip": "ym2612"
    },
    {
      "channel": 1,
      "note": 30,
      "start": 25.5533,
      "duration": 0.3049,
      "velocity": 123,
      "chip": "ym2612"
    },
    {
      "channel": 2,
      "note": 56,
      "start": 25.5534,
      "duration": 0.3049,
      "velocity": 82,
      "chip": "ym2612"
    },
    {
      "channel": 1,
      "note": 47,
      "start": 25.9195,
      "duration": 0.1219,
      "velocity": 120,
      "chip": "ym2612"
    },
    {
      "channel": 2,
      "note": 68,
      "start": 25.9196,
      "duration": 0.1218,
      "velocity": 82,
      "chip": "ym2612"
    },
    {
      "channel": 1,
      "note": 78,
      "start": 26.1029,
      "duration": 0.1216,
      "velocity": 117,
      "chip": "ym2612"
    },
    {
      "channel": 2,
      "note": 56,
      "start": 26.103,
      "duration": 0.3048,
      "velocity": 82,
      "chip": "ym2612"
    },
    {
      "channel": 0,
      "note": 67,
      "start": 26.2858,
      "duration": 0.122,
      "velocity": 103,
      "chip": "ym2612"
    },
    {
      "channel": 1,
      "note": 47,
      "start": 26.2861,
      "duration": 0.3048,
      "velocity": 120,
      "chip": "ym2612"
    },
    {
      "channel": 0,
      "note": 68,
      "start": 26.4689,
      "duration": 0.122,
      "velocity": 103,
      "chip": "ym2612"
    },
    {
      "channel": 2,
      "note": 56,
      "start": 26.469,
      "duration": 0.122,
      "velocity": 82,
      "chip": "ym2612"
    },
    {
      "channel": 0,
      "note": 70,
      "start": 26.652,
      "duration": 0.3053,
      "velocity": 103,
      "chip": "ym2612"
    },
    {
      "channel": 1,
      "note": 30,
      "start": 26.6524,
      "duration": 0.305,
      "velocity": 123,
      "chip": "ym2612"
    },
    {
      "channel": 2,
      "note": 56,
      "start": 26.6524,
      "duration": 1.0377,
      "velocity": 82,
      "chip": "ym2612"
    },
    {
      "channel": 0,
      "note": 68,
      "start": 27.0184,
      "duration": 0.4885,
      "velocity": 103,
      "chip": "ym2612"
    },
    {
      "channel": 1,
      "note": 78,
      "start": 27.0187,
      "duration": 0.305,
      "velocity": 127,
      "chip": "ym2612"
    },
    {
      "channel": 1,
      "note": 47,
      "start": 27.3851,
      "duration": 0.3051,
      "velocity": 120,
      "chip": "ym2612"
    },
    {
      "channel": 0,
      "note": 73,
      "start": 27.568,
      "duration": 0.1221,
      "velocity": 103,
      "chip": "ym2612"
    },
    {
      "channel": 0,
      "note": 72,
      "start": 27.7512,
      "duration": 2.5037,
      "velocity": 103,
      "chip": "ym2612"
    },
    {
      "channel": 1,
      "note": 30,
      "start": 27.7515,
      "duration": 0.4881,
      "velocity": 123,
      "chip": "ym2612"
    },
    {
      "channel": 2,
      "note": 56,
      "start": 27.7516,
      "duration": 0.6713,
      "velocity": 82,
      "chip": "ym2612"
    },
    {
      "channel": 1,
      "note": 78,
      "start": 28.3011,
      "duration": 0.1218,
      "velocity": 117,
      "chip": "ym2612"
    },
    {
      "channel": 1,
      "note": 47,
      "start": 28.4843,
      "duration": 0.3051,
      "velocity": 120,
      "chip": "ym2612"
    },
    {
      "channel": 2,
      "note": 56,
      "start": 28.4843,
      "duration": 0.305,
      "velocity": 82,
      "chip": "ym2612"
    },
    {
      "channel": 1,
      "note": 30,
      "start": 28.8507,
      "duration": 0.305,
      "velocity": 123,
      "chip": "ym2612"
    },
    {
      "channel": 2,
      "note": 56,
      "start": 28.8508,
      "duration": 1.0377,
      "velocity": 82,
      "chip": "ym2612"
    },
    {
      "channel": 1,
      "note": 78,
      "start": 29.2171,
      "duration": 0.3052,
      "velocity": 127,
      "chip": "ym2612"
    },
    {
      "channel": 1,
      "note": 47,
      "start": 29.5835,
      "duration": 0.305,
      "velocity": 120,
      "chip": "ym2612"
    },
    {
      "channel": 1,
      "note": 30,
      "start": 29.9499,
      "duration": 0.4882,
      "velocity": 123,
      "chip": "ym2612"
    },
    {
      "channel": 2,
      "note": 56,
      "start": 29.95,
      "duration": 0.4881,
      "velocity": 82,
      "chip": "ym2612"
    },
    {
      "channel": 0,
      "note": 70,
      "start": 30.316,
      "duration": 0.3053,
      "velocity": 103,
      "chip": "ym2612"
    },
    {
      "channel": 1,
      "note": 78,
      "start": 30.4995,
      "duration": 0.1218,
      "velocity": 117,
      "chip": "ym2612"
    },
    {
      "channel": 2,
      "note": 68,
      "start": 30.4995,
      "duration": 0.1218,
      "velocity": 82,
      "chip": "ym2612"
    },
    {
      "channel": 0,
      "note": 68,
      "start": 30.6824,
      "duration": 0.3053,
      "velocity": 103,
      "chip": "ym2612"
    },
    {
      "channel": 1,
      "note": 47,
      "start": 30.6827,
      "duration": 0.305,
      "velocity": 120,
      "chip": "ym2612"
    },
    {
      "channel": 2,
      "note": 56,
      "start": 30.6828,
      "duration": 0.3049,
      "velocity": 82,
      "chip": "ym2612"
    },
    {
      "channel": 0,
      "note": 70,
      "start": 31.0488,
      "duration": 0.6717,
      "velocity": 103,
      "chip": "ym2612"
    },
    {
      "channel": 1,
      "note": 30,
      "start": 31.0491,
      "duration": 0.305,
      "velocity": 123,
      "chip": "ym2612"
    },
    {
      "channel": 2,
      "note": 56,
      "start": 31.0492,
      "duration": 1.0377,
      "velocity": 82,
      "chip": "ym2612"
    },
    {
      "channel": 1,
      "note": 78,
      "start": 31.4154,
      "duration": 0.3051,
      "velocity": 127,
      "chip": "ym2612"
    },
    {
      "channel": 0,
      "note": 68,
      "start": 31.7815,
      "duration": 0.3053,
      "velocity": 103,
      "chip": "ym2612"
    },
    {
      "channel": 1,
      "note": 47,
      "start": 31.7819,
      "duration": 0.305,
      "velocity": 120,
      "chip": "ym2612"
    },
    {
      "channel": 0,
      "note": 68,
      "start": 32.148,
      "duration": 2.5037,
      "velocity": 103,
      "chip": "ym2612"
    },
    {
      "channel": 1,
      "note": 30,
      "start": 32.1483,
      "duration": 0.4882,
      "velocity": 123,
      "chip": "ym2612"
    },
    {
      "channel": 2,
      "note": 56,
      "start": 32.1484,
      "duration": 0.6713,
      "velocity": 82,
      "chip": "ym2612"
    },
    {
      "channel": 1,
      "note": 78,
      "start": 32.6978,
      "duration": 0.1219,
      "velocity": 117,
      "chip": "ym2612"
    },
    {
      "channel": 1,
      "note": 47,
      "start": 32.881,
      "duration": 0.305,
      "velocity": 120,
      "chip": "ym2612"
    },
    {
      "channel": 2,
      "note": 56,
      "start": 32.8811,
      "duration": 0.305,
      "velocity": 82,
      "chip": "ym2612"
    },
    {
      "channel": 1,
      "note": 30,
      "start": 33.2475,
      "duration": 0.3049,
      "velocity": 123,
      "chip": "ym2612"
    },
    {
      "channel": 2,
      "note": 56,
      "start": 33.2476,
      "duration": 1.0377,
      "velocity": 82,
      "chip": "ym2612"
    },
    {
      "channel": 1,
      "note": 78,
      "start": 33.6139,
      "duration": 0.305,
      "velocity": 127,
      "chip": "ym2612"
    },
    {
      "channel": 1,
      "note": 47,
      "start": 33.9802,
      "duration": 0.305,
      "velocity": 120,
      "chip": "ym2612"
    },
    {
      "channel": 1,
      "note": 78,
      "start": 34.3466,
      "duration": 0.305,
      "velocity": 127,
      "chip": "ym2612"
    },
    {
      "channel": 2,
      "note": 56,
      "start": 34.3467,
      "duration": 0.4881,
      "velocity": 82,
      "chip": "ym2612"
    },
    {
      "channel": 1,
      "note": 47,
      "start": 34.713,
      "duration": 0.305,
      "velocity": 120,
      "chip": "ym2612"
    },
    {
      "channel": 2,
      "note": 56,
      "start": 34.896,
      "duration": 0.1221,
      "velocity": 82,
      "chip": "ym2612"
    },
    {
      "channel": 0,
      "note": 68,
      "start": 35.0791,
      "duration": 0.1221,
      "velocity": 103,
      "chip": "ym2612"
    },
    {
      "channel": 1,
      "note": 78,
      "start": 35.0795,
      "duration": 0.1218,
      "velocity": 117,
      "chip": "ym2612"
    },
    {
      "channel": 2,
      "note": 58,
      "start": 35.0795,
      "duration": 0.3049,
      "velocity": 82,
      "chip": "ym2612"
    },
    {
      "channel": 0,
      "note": 72,
      "start": 35.2623,
      "duration": 0.1221,
      "velocity": 103,
      "chip": "ym2612"
    },
    {
      "channel": 1,
      "note": 78,
      "start": 35.2627,
      "duration": 0.1218,
      "velocity": 127,
      "chip": "ym2612"
    },
    {
      "channel": 0,
      "note": 79,
      "start": 35.4455,
      "duration": 0.6717,
      "velocity": 103,
      "chip": "ym2612"
    },
    {
      "channel": 1,
      "note": 30,
      "start": 35.4459,
      "duration": 0.305,
      "velocity": 123,
      "chip": "ym2612"
    },
    {
      "channel": 2,
      "note": 61,
      "start": 35.4459,
      "duration": 1.0377,
      "velocity": 82,
      "chip": "ym2612"
    },
    {
      "channel": 1,
      "note": 78,
      "start": 35.8122,
      "duration": 0.3051,
      "velocity": 127,
      "chip": "ym2612"
    },
    {
      "channel": 0,
      "note": 80,
      "start": 36.1783,
      "duration": 0.3053,
      "velocity": 103,
      "chip": "ym2612"
    },
    {
      "channel": 1,
      "note": 47,
      "start": 36.1787,
      "duration": 0.305,
      "velocity": 120,
      "chip": "ym2612"
    },
    {
      "channel": 0,
      "note": 82,
      "start": 36.5447,
      "duration": 0.3053,
      "velocity": 103,
      "chip": "ym2612"
    },
    {
      "channel": 1,
      "note": 30,
      "start": 36.545,
      "duration": 0.4881,
      "velocity": 123,
      "chip": "ym2612"
    },
    {
      "channel": 2,
      "note": 61,
      "start": 36.5451,
      "duration": 0.6713,
      "velocity": 82,
      "chip": "ym2612"
    },
    {
      "channel": 0,
      "note": 80,
      "start": 36.9111,
      "duration": 0.3053,
      "velocity": 103,
      "chip": "ym2612"
    },
    {
      "channel": 1,
      "note": 78,
      "start": 37.0945,
      "duration": 0.1219,
      "velocity": 117,
      "chip": "ym2612"
    },
    {
      "channel": 0,
      "note": 79,
      "start": 37.2775,
      "duration": 0.3053,
      "velocity": 103,
      "chip": "ym2612"
    },
    {
      "channel": 1,
      "note": 47,
      "start": 37.2778,
      "duration": 0.305,
      "velocity": 120,
      "chip": "ym2612"
    },
    {
      "channel": 2,
      "note": 61,
      "start": 37.2779,
      "duration": 0.3049,
      "velocity": 82,
      "chip": "ym2612"
    },
    {
      "channel": 0,
      "note": 80,
      "start": 37.6442,
      "duration": 1.7706,
      "velocity": 103,
      "chip": "ym2612"
    },
    {
      "channel": 1,
      "note": 30,
      "start": 37.6445,
      "duration": 0.3048,
      "velocity": 123,
      "chip": "ym2612"
    },
    {
      "channel": 2,
      "note": 61,
      "start": 37.6446,
      "duration": 1.0374,
      "velocity": 82,
      "chip": "ym2612"
    },
    {
      "channel": 1,
      "note": 78,
      "start": 38.0105,
      "duration": 0.305,
      "velocity": 127,
      "chip": "ym2612"
    },
    {
      "channel": 1,
      "note": 47,
      "start": 38.377,
      "duration": 0.305,
      "velocity": 120,
      "chip": "ym2612"
    },
    {
      "channel": 1,
      "note": 30,
      "start": 38.7434,
      "duration": 0.4882,
      "velocity": 123,
      "chip": "ym2612"
    },
    {
      "channel": 2,
      "note": 64,
      "start": 38.7434,
      "duration": 0.6713,
      "velocity": 82,
      "chip": "ym2612"
    },
    {
      "channel": 1,
      "note": 78,
      "start": 39.2929,
      "duration": 0.1218,
      "velocity": 117,
      "chip": "ym2612"
    },
    {
      "channel": 0,
      "note": 80,
      "start": 39.4759,
      "duration": 0.3053,
      "velocity": 103,
      "chip": "ym2612"
    },
    {
      "channel": 1,
      "note": 47,
      "start": 39.4762,
      "duration": 0.305,
      "velocity": 120,
      "chip": "ym2612"
    },
    {
      "channel": 2,
      "note": 64,
      "start": 39.4763,
      "duration": 0.3049,
      "velocity": 82,
      "chip": "ym2612"
    },
    {
      "channel": 0,
      "note": 79,
      "start": 39.8423,
      "duration": 0.6717,
      "velocity": 103,
      "chip": "ym2612"
    },
    {
      "channel": 1,
      "note": 30,
      "start": 39.8426,
      "duration": 0.3049,
      "velocity": 123,
      "chip": "ym2612"
    },
    {
      "channel": 2,
      "note": 65,
      "start": 39.8427,
      "duration": 1.0377,
      "velocity": 82,
      "chip": "ym2612"
    },
    {
      "channel": 1,
      "note": 78,
      "start": 40.2089,
      "duration": 0.3051,
      "velocity": 127,
      "chip": "ym2612"
    },
    {
      "channel": 0,
      "note": 80,
      "start": 40.575,
      "duration": 0.3053,
      "velocity": 103,
      "chip": "ym2612"
    },
    {
      "channel": 1,
      "note": 47,
      "start": 40.5754,
      "duration": 0.305,
      "velocity": 120,
      "chip": "ym2612"
    },
    {
      "channel": 0,
      "note": 79,
      "start": 40.9415,
      "duration": 0.4884,
      "velocity": 103,
      "chip": "ym2612"
    },
    {
      "channel": 1,
      "note": 30,
      "start": 40.9418,
      "duration": 0.4881,
      "velocity": 123,
      "chip": "ym2612"
    },
    {
      "channel": 2,
      "note": 65,
      "start": 40.9419,
      "duration": 0.6713,
      "velocity": 82,
      "chip": "ym2612"
    },
    {
      "channel": 0,
      "note": 77,
      "start": 41.491,
      "duration": 0.1222,
      "velocity": 103,
      "chip": "ym2612"
    },
    {
      "channel": 1,
      "note": 78,
      "start": 41.4913,
      "duration": 0.1218,
      "velocity": 117,
      "chip": "ym2612"
    },
    {
      "channel": 0,
      "note": 85,
      "start": 41.6742,
      "duration": 0.3053,
      "velocity": 103,
      "chip": "ym2612"
    },
    {
      "channel": 1,
      "note": 47,
      "start": 41.6745,
      "duration": 0.305,
      "velocity": 120,
      "chip": "ym2612"
    },
    {
      "channel": 2,
      "note": 65,
      "start": 41.6746,
      "duration": 0.3049,
      "velocity": 82,
      "chip": "ym2612"
    },
    {
      "channel": 0,
      "note": 84,
      "start": 42.0406,
      "duration": 1.7708,
      "velocity": 103,
      "chip": "ym2612"
    },
    {
      "channel": 1,
      "note": 30,
      "start": 42.041,
      "duration": 0.305,
      "velocity": 123,
      "chip": "ym2612"
    },
    {
      "channel": 2,
      "note": 65,
      "start": 42.041,
      "duration": 1.0377,
      "velocity": 82,
      "chip": "ym2612"
    },
    {
      "channel": 1,
      "note": 78,
      "start": 42.4073,
      "duration": 0.3051,
      "velocity": 127,
      "chip": "ym2612"
    },
    {
      "channel": 1,
      "note": 47,
      "start": 42.7737,
      "duration": 0.305,
      "velocity": 120,
      "chip": "ym2612"
    },
    {
      "channel": 1,
      "note": 30,
      "start": 43.1401,
      "duration": 0.305,
      "velocity": 123,
      "chip": "ym2612"
    },
    {
      "channel": 2,
      "note": 63,
      "start": 43.1402,
      "duration": 0.6713,
      "velocity": 82,
      "chip": "ym2612"
    },
    {
      "channel": 1,
      "note": 47,
      "start": 43.5065,
      "duration": 0.1218,
      "velocity": 120,
      "chip": "ym2612"
    },
    {
      "channel": 1,
      "note": 78,
      "start": 43.6897,
      "duration": 0.1218,
      "velocity": 117,
      "chip": "ym2612"
    },
    {
      "channel": 0,
      "note": 77,
      "start": 43.8726,
      "duration": 0.3053,
      "velocity": 103,
      "chip": "ym2612"
    },
    {
      "channel": 1,
      "note": 47,
      "start": 43.8729,
      "duration": 0.305,
      "velocity": 120,
      "chip": "ym2612"
    },
    {
      "channel": 2,
      "note": 63,
      "start": 43.873,
      "duration": 0.3049,
      "velocity": 82,
      "chip": "ym2612"
    },
    {
      "channel": 0,
      "note": 84,
      "start": 44.239,
      "duration": 0.3053,
      "velocity": 103,
      "chip": "ym2612"
    },
    {
      "channel": 1,
      "note": 30,
      "start": 44.2393,
      "duration": 0.3049,
      "velocity": 123,
      "chip": "ym2612"
    },
    {
      "channel": 2,
      "note": 62,
      "start": 44.2394,
      "duration": 1.0377,
      "velocity": 82,
      "chip": "ym2612"
    },
    {
      "channel": 0,
      "note": 77,
      "start": 44.6054,
      "duration": 0.3053,
      "velocity": 103,
      "chip": "ym2612"
    },
    {
      "channel": 1,
      "note": 78,
      "start": 44.6057,
      "duration": 0.305,
      "velocity": 127,
      "chip": "ym2612"
    },
    {
      "channel": 0,
      "note": 76,
      "start": 44.9717,
      "duration": 0.3054,
      "velocity": 103,
      "chip": "ym2612"
    },
    {
      "channel": 1,
      "note": 47,
      "start": 44.9722,
      "duration": 0.305,
      "velocity": 120,
      "chip": "ym2612"
    },
    {
      "channel": 0,
      "note": 77,
      "start": 45.3382,
      "duration": 0.3053,
      "velocity": 103,
      "chip": "ym2612"
    },
    {
      "channel": 1,
      "note": 30,
      "start": 45.3385,
      "duration": 0.4882,
      "velocity": 123,
      "chip": "ym2612"
    },
    {
      "channel": 2,
      "note": 62,
      "start": 45.3386,
      "duration": 0.6713,
      "velocity": 82,
      "chip": "ym2612"
    },
    {
      "channel": 0,
      "note": 79,
      "start": 45.7046,
      "duration": 0.3053,
      "velocity": 103,
      "chip": "ym2612"
    },
    {
      "channel": 1,
      "note": 78,
      "start": 45.888,
      "duration": 0.1219,
      "velocity": 117,
      "chip": "ym2612"
    },
    {
      "channel": 0,
      "note": 80,
      "start": 46.071,
      "duration": 0.3053,
      "velocity": 103,
      "chip": "ym2612"
    },
    {
      "channel": 1,
      "note": 47,
      "start": 46.0713,
      "duration": 0.3049,
      "velocity": 120,
      "chip": "ym2612"
    },
    {
      "channel": 2,
      "note": 62,
      "start": 46.0714,
      "duration": 0.3049,
      "velocity": 82,
      "chip": "ym2612"
    },
    {
      "channel": 0,
      "note": 82,
      "start": 46.4373,
      "duration": 1.0381,
      "velocity": 103,
      "chip": "ym2612"
    },
    {
      "channel": 1,
      "note": 30,
      "start": 46.4377,
      "duration": 0.305,
      "velocity": 123,
      "chip": "ym2612"
    },
    {
      "channel": 2,
      "note": 61,
      "start": 46.4377,
      "duration": 1.0377,
      "velocity": 82,
      "chip": "ym2612"
    },
    {
      "channel": 1,
      "note": 78,
      "start": 46.8041,
      "duration": 0.305,
      "velocity": 127,
      "chip": "ym2612"
    },
    {
      "channel": 1,
      "note": 47,
      "start": 47.1704,
      "duration": 0.3051,
      "velocity": 120,
      "chip": "ym2612"
    },
    {
      "channel": 0,
      "note": 75,
      "start": 47.5365,
      "duration": 0.8548,
      "velocity": 103,
      "chip": "ym2612"
    },
    {
      "channel": 1,
      "note": 30,
      "start": 47.5368,
      "duration": 0.4882,
      "velocity": 123,
      "chip": "ym2612"
    },
    {
      "channel": 2,
      "note": 61,
      "start": 47.5369,
      "duration": 0.6713,
      "velocity": 82,
      "chip": "ym2612"
    },
    {
      "channel": 1,
      "note": 78,
      "start": 48.0863,
      "duration": 0.1219,
      "velocity": 117,
      "chip": "ym2612"
    },
    {
      "channel": 1,
      "note": 47,
      "start": 48.2696,
      "duration": 0.305,
      "velocity": 120,
      "chip": "ym2612"
    },
    {
      "channel": 2,
      "note": 61,
      "start": 48.2697,
      "duration": 0.3049,
      "velocity": 82,
      "chip": "ym2612"
    },
    {
      "channel": 0,
      "note": 75,
      "start": 48.4524,
      "duration": 0.1221,
      "velocity": 103,
      "chip": "ym2612"
    },
    {
      "channel": 0,
      "note": 82,
      "start": 48.6356,
      "duration": 0.3053,
      "velocity": 103,
      "chip": "ym2612"
    },
    {
      "channel": 1,
      "note": 30,
      "start": 48.636,
      "duration": 0.305,
      "velocity": 123,
      "chip": "ym2612"
    },
    {
      "channel": 2,
      "note": 60,
      "start": 48.6361,
      "duration": 1.0377,
      "velocity": 82,
      "chip": "ym2612"
    },
    {
      "channel": 0,
      "note": 75,
      "start": 49.0022,
      "duration": 0.3051,
      "velocity": 103,
      "chip": "ym2612"
    },
    {
      "channel": 1,
      "note": 78,
      "start": 49.0025,
      "duration": 0.3048,
      "velocity": 127,
      "chip": "ym2612"
    },
    {
      "channel": 0,
      "note": 74,
      "start": 49.3684,
      "duration": 0.3053,
      "velocity": 103,
      "chip": "ym2612"
    },
    {
      "channel": 1,
      "note": 47,
      "start": 49.3688,
      "duration": 0.305,
      "velocity": 120,
      "chip": "ym2612"
    },
    {
      "channel": 0,
      "note": 75,
      "start": 49.7348,
      "duration": 0.3053,
      "velocity": 103,
      "chip": "ym2612"
    },
    {
      "channel": 1,
      "note": 30,
      "start": 49.7351,
      "duration": 0.4882,
      "velocity": 123,
      "chip": "ym2612"
    },
    {
      "channel": 2,
      "note": 60,
      "start": 49.7352,
      "duration": 0.6713,
      "velocity": 82,
      "chip": "ym2612"
    },
    {
      "channel": 0,
      "note": 77,
      "start": 50.1012,
      "duration": 0.3053,
      "velocity": 103,
      "chip": "ym2612"
    },
    {
      "channel": 1,
      "note": 78,
      "start": 50.2847,
      "duration": 0.1218,
      "velocity": 117,
      "chip": "ym2612"
    },
    {
      "channel": 0,
      "note": 79,
      "start": 50.4676,
      "duration": 0.3053,
      "velocity": 103,
      "chip": "ym2612"
    },
    {
      "channel": 1,
      "note": 47,
      "start": 50.4679,
      "duration": 0.305,
      "velocity": 120,
      "chip": "ym2612"
    },
    {
      "channel": 2,
      "note": 60,
      "start": 50.468,
      "duration": 0.3049,
      "velocity": 82,
      "chip": "ym2612"
    },
    {
      "channel": 0,
      "note": 80,
      "start": 50.834,
      "duration": 0.3053,
      "velocity": 103,
      "chip": "ym2612"
    },
    {
      "channel": 1,
      "note": 30,
      "start": 50.8343,
      "duration": 0.305,
      "velocity": 123,
      "chip": "ym2612"
    },
    {
      "channel": 2,
      "note": 59,
      "start": 50.8344,
      "duration": 1.0377,
      "velocity": 82,
      "chip": "ym2612"
    },
    {
      "channel": 0,
      "note": 82,
      "start": 51.2004,
      "duration": 0.4885,
      "velocity": 103,
      "chip": "ym2612"
    },
    {
      "channel": 1,
      "note": 78,
      "start": 51.2007,
      "duration": 0.3049,
      "velocity": 127,
      "chip": "ym2612"
    },
    {
      "channel": 1,
      "note": 47,
      "start": 51.567,
      "duration": 0.305,
      "velocity": 120,
      "chip": "ym2612"
    },
    {
      "channel": 0,
      "note": 75,
      "start": 51.75,
      "duration": 0.1221,
      "velocity": 103,
      "chip": "ym2612"
    },
    {
      "channel": 0,
      "note": 75,
      "start": 51.9332,
      "duration": 1.4045,
      "velocity": 103,
      "chip": "ym2612"
    },
    {
      "channel": 1,
      "note": 30,
      "start": 51.9335,
      "duration": 0.3049,
      "velocity": 123,
      "chip": "ym2612"
    },
    {
      "channel": 2,
      "note": 59,
      "start": 51.9336,
      "duration": 0.3049,
      "velocity": 82,
      "chip": "ym2612"
    },
    {
      "channel": 1,
      "note": 47,
      "start": 52.2998,
      "duration": 0.1219,
      "velocity": 120,
      "chip": "ym2612"
    },
    {
      "channel": 2,
      "note": 61,
      "start": 52.2999,
      "duration": 0.305,
      "velocity": 82,
      "chip": "ym2612"
    },
    {
      "channel": 1,
      "note": 78,
      "start": 52.483,
      "duration": 0.1219,
      "velocity": 117,
      "chip": "ym2612"
    },
    {
      "channel": 1,
      "note": 47,
      "start": 52.6662,
      "duration": 0.3051,
      "velocity": 120,
      "chip": "ym2612"
    },
    {
      "channel": 2,
      "note": 63,
      "start": 52.6663,
      "duration": 0.305,
      "velocity": 82,
      "chip": "ym2612"
    },
    {
      "channel": 1,
      "note": 30,
      "start": 53.0327,
      "duration": 0.305,
      "velocity": 123,
      "chip": "ym2612"
    },
    {
      "channel": 2,
      "note": 64,
      "start": 53.0327,
      "duration": 1.0377,
      "velocity": 82,
      "chip": "ym2612"
    },
    {
      "channel": 0,
      "note": 73,
      "start": 53.3988,
      "duration": 0.3053,
      "velocity": 103,
      "chip": "ym2612"
    },
    {
      "channel": 1,
      "note": 78,
      "start": 53.3991,
      "duration": 0.3049,
      "velocity": 127,
      "chip": "ym2612"
    },
    {
      "channel": 0,
      "note": 75,
      "start": 53.7651,
      "duration": 0.3053,
      "velocity": 103,
      "chip": "ym2612"
    },
    {
      "channel": 1,
      "note": 47,
      "start": 53.7655,
      "duration": 0.3049,
      "velocity": 120,
      "chip": "ym2612"
    },
    {
      "channel": 0,
      "note": 76,
      "start": 54.1315,
      "duration": 0.3053,
      "velocity": 103,
      "chip": "ym2612"
    },
    {
      "channel": 1,
      "note": 30,
      "start": 54.1318,
      "duration": 0.4882,
      "velocity": 123,
      "chip": "ym2612"
    },
    {
      "channel": 2,
      "note": 64,
      "start": 54.1319,
      "duration": 0.6713,
      "velocity": 82,
      "chip": "ym2612"
    },
    {
      "channel": 0,
      "note": 78,
      "start": 54.4979,
      "duration": 0.3053,
      "velocity": 103,
      "chip": "ym2612"
    },
    {
      "channel": 1,
      "note": 78,
      "start": 54.6814,
      "duration": 0.1218,
      "velocity": 117,
      "chip": "ym2612"
    },
    {
      "channel": 0,
      "note": 80,
      "start": 54.8644,
      "duration": 0.3053,
      "velocity": 103,
      "chip": "ym2612"
    },
    {
      "channel": 1,
      "note": 47,
      "start": 54.8647,
      "duration": 0.3049,
      "velocity": 120,
      "chip": "ym2612"
    },
    {
      "channel": 2,
      "note": 64,
      "start": 54.8648,
      "duration": 0.3049,
      "velocity": 82,
      "chip": "ym2612"
    },
    {
      "channel": 0,
      "note": 83,
      "start": 55.2307,
      "duration": 1.038,
      "velocity": 103,
      "chip": "ym2612"
    },
    {
      "channel": 1,
      "note": 30,
      "start": 55.231,
      "duration": 0.3049,
      "velocity": 123,
      "chip": "ym2612"
    },
    {
      "channel": 2,
      "note": 64,
      "start": 55.2311,
      "duration": 1.0377,
      "velocity": 82,
      "chip": "ym2612"
    },
    {
      "channel": 1,
      "note": 78,
      "start": 55.5973,
      "duration": 0.3051,
      "velocity": 127,
      "chip": "ym2612"
    },
    {
      "channel": 1,
      "note": 47,
      "start": 55.9638,
      "duration": 0.305,
      "velocity": 120,
      "chip": "ym2612"
    },
    {
      "channel": 0,
      "note": 85,
      "start": 56.3299,
      "duration": 0.6717,
      "velocity": 103,
      "chip": "ym2612"
    },
    {
      "channel": 1,
      "note": 30,
      "start": 56.3302,
      "duration": 0.4882,
      "velocity": 123,
      "chip": "ym2612"
    },
    {
      "channel": 2,
      "note": 64,
      "start": 56.3303,
      "duration": 0.6713,
      "velocity": 82,
      "chip": "ym2612"
    },
    {
      "channel": 1,
      "note": 78,
      "start": 56.8797,
      "duration": 0.1219,
      "velocity": 117,
      "chip": "ym2612"
    },
    {
      "channel": 0,
      "note": 83,
      "start": 57.0626,
      "duration": 0.3053,
      "velocity": 103,
      "chip": "ym2612"
    },
    {
      "channel": 1,
      "note": 47,
      "start": 57.063,
      "duration": 0.305,
      "velocity": 120,
      "chip": "ym2612"
    },
    {
      "channel": 2,
      "note": 64,
      "start": 57.063,
      "duration": 0.3049,
      "velocity": 82,
      "chip": "ym2612"
    },
    {
      "channel": 0,
      "note": 82,
      "start": 57.429,
      "duration": 0.1221,
      "velocity": 103,
      "chip": "ym2612"
    },
    {
      "channel": 1,
      "note": 30,
      "start": 57.4294,
      "duration": 0.305,
      "velocity": 123,
      "chip": "ym2612"
    },
    {
      "channel": 2,
      "note": 63,
      "start": 57.4295,
      "duration": 1.0377,
      "velocity": 82,
      "chip": "ym2612"
    },
    {
      "channel": 0,
      "note": 80,
      "start": 57.6122,
      "duration": 0.1221,
      "velocity": 103,
      "chip": "ym2612"
    },
    {
      "channel": 0,
      "note": 82,
      "start": 57.7954,
      "duration": 1.4044,
      "velocity": 103,
      "chip": "ym2612"
    },
    {
      "channel": 1,
      "note": 78,
      "start": 57.7959,
      "duration": 0.3048,
      "velocity": 127,
      "chip": "ym2612"
    },
    {
      "channel": 1,
      "note": 47,
      "start": 58.1621,
      "duration": 0.3051,
      "velocity": 120,
      "chip": "ym2612"
    },
    {
      "channel": 1,
      "note": 30,
      "start": 58.5285,
      "duration": 0.4882,
      "velocity": 123,
      "chip": "ym2612"
    },
    {
      "channel": 2,
      "note": 63,
      "start": 58.5286,
      "duration": 0.6713,
      "velocity": 82,
      "chip": "ym2612"
    },
    {
      "channel": 1,
      "note": 78,
      "start": 59.0781,
      "duration": 0.1218,
      "velocity": 117,
      "chip": "ym2612"
    },
    {
      "channel": 0,
      "note": 75,
      "start": 59.261,
      "duration": 0.1221,
      "velocity": 103,
      "chip": "ym2612"
    },
    {
      "channel": 1,
      "note": 47,
      "start": 59.2613,
      "duration": 0.305,
      "velocity": 120,
      "chip": "ym2612"
    },
    {
      "channel": 2,
      "note": 63,
      "start": 59.2614,
      "duration": 0.3049,
      "velocity": 82,
      "chip": "ym2612"
    },
    {
      "channel": 0,
      "note": 75,
      "start": 59.6274,
      "duration": 1.4045,
      "velocity": 103,
      "chip": "ym2612"
    },
    {
      "channel": 1,
      "note": 30,
      "start": 59.6277,
      "duration": 0.3049,
      "velocity": 123,
      "chip": "ym2612"
    },
    {
      "channel": 2,
      "note": 63,
      "start": 59.6278,
      "duration": 0.4881,
      "velocity": 82,
      "chip": "ym2612"
    },
    {
      "channel": 1,
      "note": 78,
      "start": 59.994,
      "duration": 0.1219,
      "velocity": 127,
      "chip": "ym2612"
    },
    {
      "channel": 1,
      "note": 47,
      "start": 60.1772,
      "duration": 0.122,
      "velocity": 120,
      "chip": "ym2612"
    },
    {
      "channel": 2,
      "note": 75,
      "start": 60.1773,
      "duration": 0.122,
      "velocity": 82,
      "chip": "ym2612"
    },
    {
      "channel": 1,
      "note": 47,
      "start": 60.3606,
      "duration": 0.3049,
      "velocity": 120,
      "chip": "ym2612"
    },
    {
      "channel": 2,
      "note": 63,
      "start": 60.3607,
      "duration": 0.3049,
      "velocity": 82,
      "chip": "ym2612"
    },
    {
      "channel": 1,
      "note": 30,
      "start": 60.7269,
      "duration": 0.305,
      "velocity": 123,
      "chip": "ym2612"
    },
    {
      "channel": 2,
      "note": 63,
      "start": 60.727,
      "duration": 0.3049,
      "velocity": 82,
      "chip": "ym2612"
    },
    {
      "channel": 1,
      "note": 47,
      "start": 61.0932,
      "duration": 0.1218,
      "velocity": 120,
      "chip": "ym2612"
    },
    {
      "channel": 2,
      "note": 63,
      "start": 61.0933,
      "duration": 0.1218,
      "velocity": 82,
      "chip": "ym2612"
    },
    {
      "channel": 1,
      "note": 78,
      "start": 61.2764,
      "duration": 0.1218,
      "velocity": 117,
      "chip": "ym2612"
    },
    {
      "channel": 2,
      "note": 51,
      "start": 61.2765,
      "duration": 0.4881,
      "velocity": 82,
      "chip": "ym2612"
    },
    {
      "channel": 0,
      "note": 67,
      "start": 61.4593,
      "duration": 0.1221,
      "velocity": 103,
      "chip": "ym2612"
    },
    {
      "channel": 1,
      "note": 47,
      "start": 61.4597,
      "duration": 0.305,
      "velocity": 120,
      "chip": "ym2612"
    },
    {
      "channel": 0,
      "note": 68,
      "start": 61.6425,
      "duration": 0.1221,
      "velocity": 103,
      "chip": "ym2612"
    },
    {
      "channel": 0,
      "note": 70,
      "start": 61.8257,
      "duration": 0.3053,
      "velocity": 103,
      "chip": "ym2612"
    },
    {
      "channel": 1,
      "note": 30,
      "start": 61.8261,
      "duration": 0.3049,
      "velocity": 123,
      "chip": "ym2612"
    },
    {
      "channel": 2,
      "note": 56,
      "start": 61.8261,
      "duration": 1.0377,
      "velocity": 82,
      "chip": "ym2612"
    },
    {
      "channel": 0,
      "note": 68,
      "start": 62.1921,
      "duration": 0.4885,
      "velocity": 103,
      "chip": "ym2612"
    },
    {
      "channel": 1,
      "note": 78,
      "start": 62.1924,
      "duration": 0.305,
      "velocity": 127,
      "chip": "ym2612"
    },
    {
      "channel": 1,
      "note": 47,
      "start": 62.5587,
      "duration": 0.305,
      "velocity": 120,
      "chip": "ym2612"
    },
    {
      "channel": 0,
      "note": 73,
      "start": 62.7417,
      "duration": 0.1221,
      "velocity": 103,
      "chip": "ym2612"
    },
    {
      "channel": 0,
      "note": 72,
      "start": 62.9249,
      "duration": 2.5036,
      "velocity": 103,
      "chip": "ym2612"
    },
    {
      "channel": 1,
      "note": 30,
      "start": 62.9252,
      "duration": 0.4882,
      "velocity": 123,
      "chip": "ym2612"
    },
    {
      "channel": 2,
      "note": 56,
      "start": 62.9253,
      "duration": 0.6713,
      "velocity": 82,
      "chip": "ym2612"
    },
    {
      "channel": 1,
      "note": 78,
      "start": 63.4748,
      "duration": 0.1218,
      "velocity": 117,
      "chip": "ym2612"
    },
    {
      "channel": 1,
      "note": 47,
      "start": 63.658,
      "duration": 0.305,
      "velocity": 120,
      "chip": "ym2612"
    },
    {
      "channel": 2,
      "note": 56,
      "start": 63.658,
      "duration": 0.305,
      "velocity": 82,
      "chip": "ym2612"
    },
    {
      "channel": 1,
      "note": 30,
      "start": 64.0244,
      "duration": 0.305,
      "velocity": 123,
      "chip": "ym2612"
    },
    {
      "channel": 2,
      "note": 56,
      "start": 64.0244,
      "duration": 1.0377,
      "velocity": 82,
      "chip": "ym2612"
    },
    {
      "channel": 1,
      "note": 78,
      "start": 64.3907,
      "duration": 0.3051,
      "velocity": 127,
      "chip": "ym2612"
    },
    {
      "channel": 1,
      "note": 47,
      "start": 64.7571,
      "duration": 0.305,
      "velocity": 120,
      "chip": "ym2612"
    },
    {
      "channel": 1,
      "note": 30,
      "start": 65.1236,
      "duration": 0.4882,
      "velocity": 123,
      "chip": "ym2612"
    },
    {
      "channel": 2,
      "note": 56,
      "start": 65.1236,
      "duration": 0.4881,
      "velocity": 82,
      "chip": "ym2612"
    },
    {
      "channel": 1,
      "note": 78,
      "start": 65.6731,
      "duration": 0.1219,
      "velocity": 117,
      "chip": "ym2612"
    },
    {
      "channel": 2,
      "note": 68,
      "start": 65.6732,
      "duration": 0.1218,
      "velocity": 82,
      "chip": "ym2612"
    },
    {
      "channel": 0,
      "note": 68,
      "start": 65.856,
      "duration": 0.3053,
      "velocity": 103,
      "chip": "ym2612"
    },
    {
      "channel": 1,
      "note": 47,
      "start": 65.8563,
      "duration": 0.305,
      "velocity": 120,
      "chip": "ym2612"
    },
    {
      "channel": 2,
      "note": 56,
      "start": 65.8564,
      "duration": 0.3049,
      "velocity": 82,
      "chip": "ym2612"
    },
    {
      "channel": 0,
      "note": 70,
      "start": 66.2224,
      "duration": 0.6717,
      "velocity": 103,
      "chip": "ym2612"
    },
    {
      "channel": 1,
      "note": 30,
      "start": 66.2228,
      "duration": 0.3049,
      "velocity": 123,
      "chip": "ym2612"
    },
    {
      "channel": 2,
      "note": 56,
      "start": 66.2229,
      "duration": 1.0376,
      "velocity": 82,
      "chip": "ym2612"
    },
    {
      "channel": 1,
      "note": 78,
      "start": 66.5892,
      "duration": 0.3049,
      "velocity": 127,
      "chip": "ym2612"
    },
    {
      "channel": 0,
      "note": 72,
      "start": 66.9552,
      "duration": 0.1221,
      "velocity": 103,
      "chip": "ym2612"
    },
    {
      "channel": 1,
      "note": 47,
      "start": 66.9555,
      "duration": 0.305,
      "velocity": 120,
      "chip": "ym2612"
    },
    {
      "channel": 0,
      "note": 73,
      "start": 67.1384,
      "duration": 0.1221,
      "velocity": 103,
      "chip": "ym2612"
    },
    {
      "channel": 0,
      "note": 75,
      "start": 67.3216,
      "duration": 2.87,
      "velocity": 103,
      "chip": "ym2612"
    },
    {
      "channel": 1,
      "note": 30,
      "start": 67.322,
      "duration": 0.4881,
      "velocity": 123,
      "chip": "ym2612"
    },
    {
      "channel": 2,
      "note": 56,
      "start": 67.322,
      "duration": 0.6713,
      "velocity": 82,
      "chip": "ym2612"
    },
    {
      "channel": 1,
      "note": 78,
      "start": 67.8714,
      "duration": 0.1218,
      "velocity": 117,
      "chip": "ym2612"
    },
    {
      "channel": 1,
      "note": 47,
      "start": 68.0546,
      "duration": 0.3051,
      "velocity": 120,
      "chip": "ym2612"
    },
    {
      "channel": 2,
      "note": 56,
      "start": 68.0547,
      "duration": 0.305,
      "velocity": 82,
      "chip": "ym2612"
    },
    {
      "channel": 1,
      "note": 30,
      "start": 68.4211,
      "duration": 0.305,
      "velocity": 123,
      "chip": "ym2612"
    },
    {
      "channel": 2,
      "note": 56,
      "start": 68.4212,
      "duration": 1.0377,
      "velocity": 82,
      "chip": "ym2612"
    },
    {
      "channel": 1,
      "note": 78,
      "start": 68.7874,
      "duration": 0.305,
      "velocity": 127,
      "chip": "ym2612"
    },
    {
      "channel": 1,
      "note": 47,
      "start": 69.1538,
      "duration": 0.3051,
      "velocity": 120,
      "chip": "ym2612"
    },
    {
      "channel": 1,
      "note": 30,
      "start": 69.5202,
      "duration": 0.305,
      "velocity": 123,
      "chip": "ym2612"
    },
    {
      "channel": 2,
      "note": 56,
      "start": 69.5203,
      "duration": 0.3049,
      "velocity": 82,
      "chip": "ym2612"
    },
    {
      "channel": 1,
      "note": 47,
      "start": 69.8866,
      "duration": 0.1219,
      "velocity": 120,
      "chip": "ym2612"
    },
    {
      "channel": 2,
      "note": 68,
      "start": 69.8866,
      "duration": 0.1218,
      "velocity": 82,
      "chip": "ym2612"
    },
    {
      "channel": 1,
      "note": 78,
      "start": 70.0698,
      "duration": 0.1218,
      "velocity": 117,
      "chip": "ym2612"
    },
    {
      "channel": 2,
      "note": 56,
      "start": 70.0698,
      "duration": 0.305,
      "velocity": 82,
      "chip": "ym2612"
    },
    {
      "channel": 0,
      "note": 67,
      "start": 70.2527,
      "duration": 0.1221,
      "velocity": 103,
      "chip": "ym2612"
    },
    {
      "channel": 1,
      "note": 47,
      "start": 70.2531,
      "duration": 0.3049,
      "velocity": 120,
      "chip": "ym2612"
    },
    {
      "channel": 0,
      "note": 68,
      "start": 70.4359,
      "duration": 0.1221,
      "velocity": 103,
      "chip": "ym2612"
    },
    {
      "channel": 2,
      "note": 56,
      "start": 70.436,
      "duration": 0.122,
      "velocity": 82,
      "chip": "ym2612"
    },
    {
      "channel": 0,
      "note": 70,
      "start": 70.6191,
      "duration": 0.3053,
      "velocity": 103,
      "chip": "ym2612"
    },
    {
      "channel": 1,
      "note": 30,
      "start": 70.6195,
      "duration": 0.305,
      "velocity": 123,
      "chip": "ym2612"
    },
    {
      "channel": 2,
      "note": 56,
      "start": 70.6195,
      "duration": 1.0377,
      "velocity": 82,
      "chip": "ym2612"
    },
    {
      "channel": 0,
      "note": 68,
      "start": 70.9855,
      "duration": 0.4885,
      "velocity": 103,
      "chip": "ym2612"
    },
    {
      "channel": 1,
      "note": 78,
      "start": 70.9858,
      "duration": 0.305,
      "velocity": 127,
      "chip": "ym2612"
    },
    {
      "channel": 1,
      "note": 47,
      "start": 71.3522,
      "duration": 0.305,
      "velocity": 120,
      "chip": "ym2612"
    },
    {
      "channel": 0,
      "note": 73,
      "start": 71.5351,
      "duration": 0.1221,
      "velocity": 103,
      "chip": "ym2612"
    },
    {
      "channel": 0,
      "note": 72,
      "start": 71.7183,
      "duration": 2.5037,
      "velocity": 103,
      "chip": "ym2612"
    },
    {
      "channel": 1,
      "note": 30,
      "start": 71.7187,
      "duration": 0.488,
      "velocity": 123,
      "chip": "ym2612"
    },
    {
      "channel": 2,
      "note": 56,
      "start": 71.7188,
      "duration": 0.6712,
      "velocity": 82,
      "chip": "ym2612"
    },
    {
      "channel": 1,
      "note": 78,
      "start": 72.2681,
      "duration": 0.1219,
      "velocity": 117,
      "chip": "ym2612"
    },
    {
      "channel": 1,
      "note": 47,
      "start": 72.4513,
      "duration": 0.305,
      "velocity": 120,
      "chip": "ym2612"
    },
    {
      "channel": 2,
      "note": 56,
      "start": 72.4514,
      "duration": 0.305,
      "velocity": 82,
      "chip": "ym2612"
    },
    {
      "channel": 1,
      "note": 30,
      "start": 72.8178,
      "duration": 0.305,
      "velocity": 123,
      "chip": "ym2612"
    },
    {
      "channel": 2,
      "note": 56,
      "start": 72.8178,
      "duration": 1.0378,
      "velocity": 82,
      "chip": "ym2612"
    },
    {
      "channel": 1,
      "note": 78,
      "start": 73.1841,
      "duration": 0.305,
      "velocity": 127,
      "chip": "ym2612"
    },
    {
      "channel": 1,
      "note": 47,
      "start": 73.5505,
      "duration": 0.305,
      "velocity": 120,
      "chip": "ym2612"
    },
    {
      "channel": 1,
      "note": 30,
      "start": 73.917,
      "duration": 0.4881,
      "velocity": 123,
      "chip": "ym2612"
    },
    {
      "channel": 2,
      "note": 56,
      "start": 73.9171,
      "duration": 0.4881,
      "velocity": 82,
      "chip": "ym2612"
    },
    {
      "channel": 0,
      "note": 70,
      "start": 74.283,
      "duration": 0.3053,
      "velocity": 103,
      "chip": "ym2612"
    },
    {
      "channel": 1,
      "note": 78,
      "start": 74.4665,
      "duration": 0.1218,
      "velocity": 117,
      "chip": "ym2612"
    },
    {
      "channel": 2,
      "note": 68,
      "start": 74.4665,
      "duration": 0.1218,
      "velocity": 82,
      "chip": "ym2612"
    },
    {
      "channel": 0,
      "note": 68,
      "start": 74.6494,
      "duration": 0.3053,
      "velocity": 103,
      "chip": "ym2612"
    },
    {
      "channel": 1,
      "note": 47,
      "start": 74.6497,
      "duration": 0.305,
      "velocity": 120,
      "chip": "ym2612"
    },
    {
      "channel": 2,
      "note": 56,
      "start": 74.6498,
      "duration": 0.3049,
      "velocity": 82,
      "chip": "ym2612"
    },
    {
      "channel": 0,
      "note": 70,
      "start": 75.0158,
      "duration": 0.6717,
      "velocity": 103,
      "chip": "ym2612"
    },
    {
      "channel": 1,
      "note": 30,
      "start": 75.0161,
      "duration": 0.305,
      "velocity": 123,
      "chip": "ym2612"
    },
    {
      "channel": 2,
      "note": 56,
      "start": 75.0162,
      "duration": 1.0377,
      "velocity": 82,
      "chip": "ym2612"
    },
    {
      "channel": 1,
      "note": 78,
      "start": 75.3824,
      "duration": 0.3051,
      "velocity": 127,
      "chip": "ym2612"
    },
    {
      "channel": 0,
      "note": 68,
      "start": 75.7486,
      "duration": 0.3053,
      "velocity": 103,
      "chip": "ym2612"
    },
    {
      "channel": 1,
      "note": 47,
      "start": 75.7489,
      "duration": 0.3049,
      "velocity": 120,
      "chip": "ym2612"
    },
    {
      "channel": 0,
      "note": 68,
      "start": 76.115,
      "duration": 2.5036,
      "velocity": 103,
      "chip": "ym2612"
    },
    {
      "channel": 1,
      "note": 30,
      "start": 76.1154,
      "duration": 0.4881,
      "velocity": 123,
      "chip": "ym2612"
    },
    {
      "channel": 2,
      "note": 56,
      "start": 76.1154,
      "duration": 0.6713,
      "velocity": 82,
      "chip": "ym2612"
    },
    {
      "channel": 1,
      "note": 78,
      "start": 76.6649,
      "duration": 0.1218,
      "velocity": 117,
      "chip": "ym2612"
    },
    {
      "channel": 1,
      "note": 47,
      "start": 76.848,
      "duration": 0.3051,
      "velocity": 120,
      "chip": "ym2612"
    },
    {
      "channel": 2,
      "note": 56,
      "start": 76.8481,
      "duration": 0.305,
      "velocity": 82,
      "chip": "ym2612"
    },
    {
      "channel": 1,
      "note": 30,
      "start": 77.2145,
      "duration": 0.305,
      "velocity": 123,
      "chip": "ym2612"
    },
    {
      "channel": 2,
      "note": 56,
      "start": 77.2146,
      "duration": 1.0377,
      "velocity": 82,
      "chip": "ym2612"
    },
    {
      "channel": 1,
      "note": 78,
      "start": 77.5809,
      "duration": 0.305,
      "velocity": 127,
      "chip": "ym2612"
    },
    {
      "channel": 1,
      "note": 47,
      "start": 77.9473,
      "duration": 0.305,
      "velocity": 120,
      "chip": "ym2612"
    },
    {
      "channel": 1,
      "note": 78,
      "start": 78.3137,
      "duration": 0.305,
      "velocity": 127,
      "chip": "ym2612"
    },
    {
      "channel": 2,
      "note": 56,
      "start": 78.3138,
      "duration": 0.4881,
      "velocity": 82,
      "chip": "ym2612"
    },
    {
      "channel": 1,
      "note": 47,
      "start": 78.68,
      "duration": 0.305,
      "velocity": 120,
      "chip": "ym2612"
    },
    {
      "channel": 2,
      "note": 56,
      "start": 78.8631,
      "duration": 0.122,
      "velocity": 82,
      "chip": "ym2612"
    },
    {
      "channel": 0,
      "note": 68,
      "start": 79.0462,
      "duration": 0.1221,
      "velocity": 103,
      "chip": "ym2612"
    },
    {
      "channel": 1,
      "note": 78,
      "start": 79.0465,
      "duration": 0.1218,
      "velocity": 117,
      "chip": "ym2612"
    },
    {
      "channel": 2,
      "note": 58,
      "start": 79.0466,
      "duration": 0.3049,
      "velocity": 82,
      "chip": "ym2612"
    },
    {
      "channel": 0,
      "note": 72,
      "start": 79.2294,
      "duration": 0.1221,
      "velocity": 103,
      "chip": "ym2612"
    },
    {
      "channel": 1,
      "note": 78,
      "start": 79.2297,
      "duration": 0.1217,
      "velocity": 127,
      "chip": "ym2612"
    },
    {
      "channel": 0,
      "note": 79,
      "start": 79.4126,
      "duration": 0.6717,
      "velocity": 103,
      "chip": "ym2612"
    },
    {
      "channel": 1,
      "note": 30,
      "start": 79.4129,
      "duration": 0.3049,
      "velocity": 123,
      "chip": "ym2612"
    },
    {
      "channel": 2,
      "note": 61,
      "start": 79.413,
      "duration": 1.0377,
      "velocity": 82,
      "chip": "ym2612"
    },
    {
      "channel": 1,
      "note": 78,
      "start": 79.7792,
      "duration": 0.3051,
      "velocity": 127,
      "chip": "ym2612"
    },
    {
      "channel": 0,
      "note": 80,
      "start": 80.1453,
      "duration": 0.3053,
      "velocity": 103,
      "chip": "ym2612"
    },
    {
      "channel": 1,
      "note": 47,
      "start": 80.1457,
      "duration": 0.305,
      "velocity": 120,
      "chip": "ym2612"
    },
    {
      "channel": 0,
      "note": 82,
      "start": 80.5117,
      "duration": 0.3053,
      "velocity": 103,
      "chip": "ym2612"
    },
    {
      "channel": 1,
      "note": 30,
      "start": 80.5121,
      "duration": 0.4882,
      "velocity": 123,
      "chip": "ym2612"
    },
    {
      "channel": 2,
      "note": 61,
      "start": 80.5121,
      "duration": 0.6713,
      "velocity": 82,
      "chip": "ym2612"
    },
    {
      "channel": 0,
      "note": 80,
      "start": 80.8781,
      "duration": 0.3053,
      "velocity": 103,
      "chip": "ym2612"
    },
    {
      "channel": 1,
      "note": 78,
      "start": 81.0617,
      "duration": 0.1217,
      "velocity": 117,
      "chip": "ym2612"
    },
    {
      "channel": 0,
      "note": 79,
      "start": 81.2446,
      "duration": 0.3054,
      "velocity": 103,
      "chip": "ym2612"
    },
    {
      "channel": 1,
      "note": 47,
      "start": 81.2449,
      "duration": 0.3051,
      "velocity": 120,
      "chip": "ym2612"
    },
    {
      "channel": 2,
      "note": 61,
      "start": 81.2449,
      "duration": 0.305,
      "velocity": 82,
      "chip": "ym2612"
    },
    {
      "channel": 0,
      "note": 80,
      "start": 81.6109,
      "duration": 1.7709,
      "velocity": 103,
      "chip": "ym2612"
    },
    {
      "channel": 1,
      "note": 30,
      "start": 81.6112,
      "duration": 0.305,
      "velocity": 123,
      "chip": "ym2612"
    },
    {
      "channel": 2,
      "note": 61,
      "start": 81.6113,
      "duration": 1.0377,
      "velocity": 82,
      "chip": "ym2612"
    },
    {
      "channel": 1,
      "note": 78,
      "start": 81.9776,
      "duration": 0.3051,
      "velocity": 127,
      "chip": "ym2612"
    },
    {
      "channel": 1,
      "note": 47,
      "start": 82.344,
      "duration": 0.3051,
      "velocity": 120,
      "chip": "ym2612"
    },
    {
      "channel": 1,
      "note": 30,
      "start": 82.7104,
      "duration": 0.4882,
      "velocity": 123,
      "chip": "ym2612"
    },
    {
      "channel": 2,
      "note": 64,
      "start": 82.7105,
      "duration": 0.6713,
      "velocity": 82,
      "chip": "ym2612"
    },
    {
      "channel": 1,
      "note": 78,
      "start": 83.26,
      "duration": 0.1217,
      "velocity": 117,
      "chip": "ym2612"
    },
    {
      "channel": 0,
      "note": 80,
      "start": 83.4429,
      "duration": 0.3053,
      "velocity": 103,
      "chip": "ym2612"
    },
    {
      "channel": 1,
      "note": 47,
      "start": 83.4432,
      "duration": 0.305,
      "velocity": 120,
      "chip": "ym2612"
    },
    {
      "channel": 2,
      "note": 64,
      "start": 83.4433,
      "duration": 0.3049,
      "velocity": 82,
      "chip": "ym2612"
    },
    {
      "channel": 0,
      "note": 79,
      "start": 83.8093,
      "duration": 0.6717,
      "velocity": 103,
      "chip": "ym2612"
    },
    {
      "channel": 1,
      "note": 30,
      "start": 83.8096,
      "duration": 0.3049,
      "velocity": 123,
      "chip": "ym2612"
    },
    {
      "channel": 2,
      "note": 65,
      "start": 83.8097,
      "duration": 1.0377,
      "velocity": 82,
      "chip": "ym2612"
    },
    {
      "channel": 1,
      "note": 78,
      "start": 84.1759,
      "duration": 0.305,
      "velocity": 127,
      "chip": "ym2612"
    },
    {
      "channel": 0,
      "note": 80,
      "start": 84.5421,
      "duration": 0.3053,
      "velocity": 103,
      "chip": "ym2612"
    },
    {
      "channel": 1,
      "note": 47,
      "start": 84.5424,
      "duration": 0.305,
      "velocity": 120,
      "chip": "ym2612"
    },
    {
      "channel": 0,
      "note": 79,
      "start": 84.9085,
      "duration": 0.4885,
      "velocity": 103,
      "chip": "ym2612"
    },
    {
      "channel": 1,
      "note": 30,
      "start": 84.9088,
      "duration": 0.4882,
      "velocity": 123,
      "chip": "ym2612"
    },
    {
      "channel": 2,
      "note": 65,
      "start": 84.9089,
      "duration": 0.6713,
      "velocity": 82,
      "chip": "ym2612"
    },
    {
      "channel": 0,
      "note": 77,
      "start": 85.4581,
      "duration": 0.1221,
      "velocity": 103,
      "chip": "ym2612"
    },
    {
      "channel": 1,
      "note": 78,
      "start": 85.4584,
      "duration": 0.1218,
      "velocity": 117,
      "chip": "ym2612"
    },
    {
      "channel": 0,
      "note": 85,
      "start": 85.6413,
      "duration": 0.3052,
      "velocity": 103,
      "chip": "ym2612"
    },
    {
      "channel": 1,
      "note": 47,
      "start": 85.6417,
      "duration": 0.3049,
      "velocity": 120,
      "chip": "ym2612"
    },
    {
      "channel": 2,
      "note": 65,
      "start": 85.6417,
      "duration": 0.3048,
      "velocity": 82,
      "chip": "ym2612"
    },
    {
      "channel": 0,
      "note": 84,
      "start": 86.0076,
      "duration": 1.7709,
      "velocity": 103,
      "chip": "ym2612"
    },
    {
      "channel": 1,
      "note": 30,
      "start": 86.008,
      "duration": 0.305,
      "velocity": 123,
      "chip": "ym2612"
    },
    {
      "channel": 2,
      "note": 65,
      "start": 86.0081,
      "duration": 1.0377,
      "velocity": 82,
      "chip": "ym2612"
    },
    {
      "channel": 1,
      "note": 78,
      "start": 86.3743,
      "duration": 0.3051,
      "velocity": 127,
      "chip": "ym2612"
    },
    {
      "channel": 1,
      "note": 47,
      "start": 86.7407,
      "duration": 0.305,
      "velocity": 120,
      "chip": "ym2612"
    },
    {
      "channel": 1,
      "note": 30,
      "start": 87.1072,
      "duration": 0.305,
      "velocity": 123,
      "chip": "ym2612"
    },
    {
      "channel": 2,
      "note": 63,
      "start": 87.1072,
      "duration": 0.6713,
      "velocity": 82,
      "chip": "ym2612"
    },
    {
      "channel": 1,
      "note": 47,
      "start": 87.4735,
      "duration": 0.1219,
      "velocity": 120,
      "chip": "ym2612"
    },
    {
      "channel": 1,
      "note": 78,
      "start": 87.6567,
      "duration": 0.1218,
      "velocity": 117,
      "chip": "ym2612"
    },
    {
      "channel": 0,
      "note": 77,
      "start": 87.8396,
      "duration": 0.3053,
      "velocity": 103,
      "chip": "ym2612"
    },
    {
      "channel": 1,
      "note": 47,
      "start": 87.84,
      "duration": 0.305,
      "velocity": 120,
      "chip": "ym2612"
    },
    {
      "channel": 2,
      "note": 63,
      "start": 87.84,
      "duration": 0.3049,
      "velocity": 82,
      "chip": "ym2612"
    },
    {
      "channel": 0,
      "note": 84,
      "start": 88.2061,
      "duration": 0.3052,
      "velocity": 103,
      "chip": "ym2612"
    },
    {
      "channel": 1,
      "note": 30,
      "start": 88.2064,
      "duration": 0.3049,
      "velocity": 123,
      "chip": "ym2612"
    },
    {
      "channel": 2,
      "note": 62,
      "start": 88.2065,
      "duration": 1.0376,
      "velocity": 82,
      "chip": "ym2612"
    },
    {
      "channel": 0,
      "note": 77,
      "start": 88.5724,
      "duration": 0.3053,
      "velocity": 103,
      "chip": "ym2612"
    },
    {
      "channel": 1,
      "note": 78,
      "start": 88.5728,
      "duration": 0.3049,
      "velocity": 127,
      "chip": "ym2612"
    },
    {
      "channel": 0,
      "note": 76,
      "start": 88.9388,
      "duration": 0.3053,
      "velocity": 103,
      "chip": "ym2612"
    },
    {
      "channel": 1,
      "note": 47,
      "start": 88.9392,
      "duration": 0.3049,
      "velocity": 120,
      "chip": "ym2612"
    },
    {
      "channel": 0,
      "note": 77,
      "start": 89.3052,
      "duration": 0.3053,
      "velocity": 103,
      "chip": "ym2612"
    },
    {
      "channel": 1,
      "note": 30,
      "start": 89.3056,
      "duration": 0.4881,
      "velocity": 123,
      "chip": "ym2612"
    },
    {
      "channel": 2,
      "note": 62,
      "start": 89.3056,
      "duration": 0.6713,
      "velocity": 82,
      "chip": "ym2612"
    },
    {
      "channel": 0,
      "note": 79,
      "start": 89.6716,
      "duration": 0.3053,
      "velocity": 103,
      "chip": "ym2612"
    },
    {
      "channel": 1,
      "note": 78,
      "start": 89.855,
      "duration": 0.1219,
      "velocity": 117,
      "chip": "ym2612"
    },
    {
      "channel": 0,
      "note": 80,
      "start": 90.038,
      "duration": 0.3053,
      "velocity": 103,
      "chip": "ym2612"
    },
    {
      "channel": 1,
      "note": 47,
      "start": 90.0384,
      "duration": 0.3049,
      "velocity": 120,
      "chip": "ym2612"
    },
    {
      "channel": 2,
      "note": 62,
      "start": 90.0384,
      "duration": 0.3049,
      "velocity": 82,
      "chip": "ym2612"
    },
    {
      "channel": 0,
      "note": 82,
      "start": 90.4044,
      "duration": 1.0381,
      "velocity": 103,
      "chip": "ym2612"
    },
    {
      "channel": 1,
      "note": 30,
      "start": 90.4047,
      "duration": 0.3049,
      "velocity": 123,
      "chip": "ym2612"
    },
    {
      "channel": 2,
      "note": 61,
      "start": 90.4048,
      "duration": 1.0377,
      "velocity": 82,
      "chip": "ym2612"
    },
    {
      "channel": 1,
      "note": 78,
      "start": 90.771,
      "duration": 0.3051,
      "velocity": 127,
      "chip": "ym2612"
    },
    {
      "channel": 1,
      "note": 47,
      "start": 91.1375,
      "duration": 0.305,
      "velocity": 120,
      "chip": "ym2612"
    },
    {
      "channel": 0,
      "note": 75,
      "start": 91.5036,
      "duration": 0.8549,
      "velocity": 103,
      "chip": "ym2612"
    },
    {
      "channel": 1,
      "note": 30,
      "start": 91.5039,
      "duration": 0.4881,
      "velocity": 123,
      "chip": "ym2612"
    },
    {
      "channel": 2,
      "note": 61,
      "start": 91.504,
      "duration": 0.6713,
      "velocity": 82,
      "chip": "ym2612"
    },
    {
      "channel": 1,
      "note": 78,
      "start": 92.0534,
      "duration": 0.1219,
      "velocity": 117,
      "chip": "ym2612"
    },
    {
      "channel": 1,
      "note": 47,
      "start": 92.2367,
      "duration": 0.305,
      "velocity": 120,
      "chip": "ym2612"
    },
    {
      "channel": 2,
      "note": 61,
      "start": 92.2368,
      "duration": 0.3049,
      "velocity": 82,
      "chip": "ym2612"
    },
    {
      "channel": 0,
      "note": 75,
      "start": 92.4196,
      "duration": 0.1221,
      "velocity": 103,
      "chip": "ym2612"
    },
    {
      "channel": 0,
      "note": 82,
      "start": 92.6027,
      "duration": 0.3054,
      "velocity": 103,
      "chip": "ym2612"
    },
    {
      "channel": 1,
      "note": 30,
      "start": 92.6031,
      "duration": 0.3051,
      "velocity": 123,
      "chip": "ym2612"
    },
    {
      "channel": 2,
      "note": 60,
      "start": 92.6032,
      "duration": 1.0377,
      "velocity": 82,
      "chip": "ym2612"
    },
    {
      "channel": 0,
      "note": 75,
      "start": 92.9692,
      "duration": 0.3053,
      "velocity": 103,
      "chip": "ym2612"
    },
    {
      "channel": 1,
      "note": 78,
      "start": 92.9695,
      "duration": 0.305,
      "velocity": 127,
      "chip": "ym2612"
    },
    {
      "channel": 0,
      "note": 74,
      "start": 93.3356,
      "duration": 0.3053,
      "velocity": 103,
      "chip": "ym2612"
    },
    {
      "channel": 1,
      "note": 47,
      "start": 93.3359,
      "duration": 0.305,
      "velocity": 120,
      "chip": "ym2612"
    },
    {
      "channel": 0,
      "note": 75,
      "start": 93.702,
      "duration": 0.3053,
      "velocity": 103,
      "chip": "ym2612"
    },
    {
      "channel": 1,
      "note": 30,
      "start": 93.7023,
      "duration": 0.4881,
      "velocity": 123,
      "chip": "ym2612"
    },
    {
      "channel": 2,
      "note": 60,
      "start": 93.7024,
      "duration": 0.6713,
      "velocity": 82,
      "chip": "ym2612"
    },
    {
      "channel": 0,
      "note": 77,
      "start": 94.0683,
      "duration": 0.3053,
      "velocity": 103,
      "chip": "ym2612"
    },
    {
      "channel": 1,
      "note": 78,
      "start": 94.2518,
      "duration": 0.1219,
      "velocity": 117,
      "chip": "ym2612"
    },
    {
      "channel": 0,
      "note": 79,
      "start": 94.4347,
      "duration": 0.3053,
      "velocity": 103,
      "chip": "ym2612"
    },
    {
      "channel": 1,
      "note": 47,
      "start": 94.4352,
      "duration": 0.3049,
      "velocity": 120,
      "chip": "ym2612"
    },
    {
      "channel": 2,
      "note": 60,
      "start": 94.4352,
      "duration": 0.3048,
      "velocity": 82,
      "chip": "ym2612"
    },
    {
      "channel": 0,
      "note": 80,
      "start": 94.8011,
      "duration": 0.3053,
      "velocity": 103,
      "chip": "ym2612"
    },
    {
      "channel": 1,
      "note": 30,
      "start": 94.8015,
      "duration": 0.3049,
      "velocity": 123,
      "chip": "ym2612"
    },
    {
      "channel": 2,
      "note": 59,
      "start": 94.8015,
      "duration": 1.0376,
      "velocity": 82,
      "chip": "ym2612"
    },
    {
      "channel": 0,
      "note": 82,
      "start": 95.1675,
      "duration": 0.4885,
      "velocity": 103,
      "chip": "ym2612"
    },
    {
      "channel": 1,
      "note": 78,
      "start": 95.1678,
      "duration": 0.305,
      "velocity": 127,
      "chip": "ym2612"
    },
    {
      "channel": 1,
      "note": 47,
      "start": 95.5342,
      "duration": 0.305,
      "velocity": 120,
      "chip": "ym2612"
    },
    {
      "channel": 0,
      "note": 75,
      "start": 95.7171,
      "duration": 0.1221,
      "velocity": 103,
      "chip": "ym2612"
    },
    {
      "channel": 0,
      "note": 75,
      "start": 95.9003,
      "duration": 1.4045,
      "velocity": 103,
      "chip": "ym2612"
    },
    {
      "channel": 1,
      "note": 30,
      "start": 95.9006,
      "duration": 0.305,
      "velocity": 123,
      "chip": "ym2612"
    },
    {
      "channel": 2,
      "note": 59,
      "start": 95.9007,
      "duration": 0.3049,
      "velocity": 82,
      "chip": "ym2612"
    },
    {
      "channel": 1,
      "note": 47,
      "start": 96.267,
      "duration": 0.1218,
      "velocity": 120,
      "chip": "ym2612"
    },
    {
      "channel": 2,
      "note": 61,
      "start": 96.267,
      "duration": 0.305,
      "velocity": 82,
      "chip": "ym2612"
    },
    {
      "channel": 1,
      "note": 78,
      "start": 96.4501,
      "duration": 0.1219,
      "velocity": 117,
      "chip": "ym2612"
    },
    {
      "channel": 1,
      "note": 47,
      "start": 96.6333,
      "duration": 0.3051,
      "velocity": 120,
      "chip": "ym2612"
    },
    {
      "channel": 2,
      "note": 63,
      "start": 96.6334,
      "duration": 0.305,
      "velocity": 82,
      "chip": "ym2612"
    },
    {
      "channel": 1,
      "note": 30,
      "start": 96.9998,
      "duration": 0.305,
      "velocity": 123,
      "chip": "ym2612"
    },
    {
      "channel": 2,
      "note": 64,
      "start": 96.9998,
      "duration": 1.0377,
      "velocity": 82,
      "chip": "ym2612"
    },
    {
      "channel": 0,
      "note": 73,
      "start": 97.3658,
      "duration": 0.3053,
      "velocity": 103,
      "chip": "ym2612"
    },
    {
      "channel": 1,
      "note": 78,
      "start": 97.3661,
      "duration": 0.305,
      "velocity": 127,
      "chip": "ym2612"
    },
    {
      "channel": 0,
      "note": 75,
      "start": 97.7322,
      "duration": 0.3053,
      "velocity": 103,
      "chip": "ym2612"
    },
    {
      "channel": 1,
      "note": 47,
      "start": 97.7326,
      "duration": 0.3049,
      "velocity": 120,
      "chip": "ym2612"
    },
    {
      "channel": 0,
      "note": 76,
      "start": 98.0986,
      "duration": 0.3053,
      "velocity": 103,
      "chip": "ym2612"
    },
    {
      "channel": 1,
      "note": 30,
      "start": 98.099,
      "duration": 0.4881,
      "velocity": 123,
      "chip": "ym2612"
    },
    {
      "channel": 2,
      "note": 64,
      "start": 98.099,
      "duration": 0.6713,
      "velocity": 82,
      "chip": "ym2612"
    },
    {
      "channel": 0,
      "note": 78,
      "start": 98.465,
      "duration": 0.3053,
      "velocity": 103,
      "chip": "ym2612"
    },
    {
      "channel": 1,
      "note": 78,
      "start": 98.6485,
      "duration": 0.1218,
      "velocity": 117,
      "chip": "ym2612"
    },
    {
      "channel": 0,
      "note": 80,
      "start": 98.8314,
      "duration": 0.3053,
      "velocity": 103,
      "chip": "ym2612"
    },
    {
      "channel": 1,
      "note": 47,
      "start": 98.8317,
      "duration": 0.305,
      "velocity": 120,
      "chip": "ym2612"
    },
    {
      "channel": 2,
      "note": 64,
      "start": 98.8318,
      "duration": 0.3049,
      "velocity": 82,
      "chip": "ym2612"
    },
    {
      "channel": 0,
      "note": 83,
      "start": 99.1978,
      "duration": 1.0381,
      "velocity": 103,
      "chip": "ym2612"
    },
    {
      "channel": 1,
      "note": 30,
      "start": 99.1981,
      "duration": 0.3049,
      "velocity": 123,
      "chip": "ym2612"
    },
    {
      "channel": 2,
      "note": 64,
      "start": 99.1982,
      "duration": 1.0377,
      "velocity": 82,
      "chip": "ym2612"
    },
    {
      "channel": 1,
      "note": 78,
      "start": 99.5645,
      "duration": 0.305,
      "velocity": 127,
      "chip": "ym2612"
    },
    {
      "channel": 1,
      "note": 47,
      "start": 99.9309,
      "duration": 0.305,
      "velocity": 120,
      "chip": "ym2612"
    },
    {
      "channel": 0,
      "note": 90,
      "start": 100.297,
      "duration": 0.6717,
      "velocity": 103,
      "chip": "ym2612"
    },
    {
      "channel": 1,
      "note": 30,
      "start": 100.2973,
      "duration": 0.4881,
      "velocity": 123,
      "chip": "ym2612"
    },
    {
      "channel": 2,
      "note": 64,
      "start": 100.2974,
      "duration": 0.6713,
      "velocity": 82,
      "chip": "ym2612"
    },
    {
      "channel": 1,
      "note": 78,
      "start": 100.8468,
      "duration": 0.1219,
      "velocity": 117,
      "chip": "ym2612"
    },
    {
      "channel": 0,
      "note": 88,
      "start": 101.0298,
      "duration": 0.3053,
      "velocity": 103,
      "chip": "ym2612"
    },
    {
      "channel": 1,
      "note": 47,
      "start": 101.0301,
      "duration": 0.305,
      "velocity": 120,
      "chip": "ym2612"
    },
    {
      "channel": 2,
      "note": 64,
      "start": 101.0302,
      "duration": 0.3049,
      "velocity": 82,
      "chip": "ym2612"
    },
    {
      "channel": 0,
      "note": 87,
      "start": 101.3961,
      "duration": 0.1221,
      "velocity": 103,
      "chip": "ym2612"
    },
    {
      "channel": 1,
      "note": 30,
      "start": 101.3965,
      "duration": 0.3049,
      "velocity": 123,
      "chip": "ym2612"
    },
    {
      "channel": 2,
      "note": 63,
      "start": 101.3966,
      "duration": 1.0377,
      "velocity": 82,
      "chip": "ym2612"
    },
    {
      "channel": 0,
      "note": 85,
      "start": 101.5793,
      "duration": 0.1221,
      "velocity": 103,
      "chip": "ym2612"
    },
    {
      "channel": 0,
      "note": 87,
      "start": 101.7625,
      "duration": 1.4045,
      "velocity": 103,
      "chip": "ym2612"
    },
    {
      "channel": 1,
      "note": 78,
      "start": 101.7629,
      "duration": 0.3049,
      "velocity": 127,
      "chip": "ym2612"
    },
    {
      "channel": 1,
      "note": 47,
      "start": 102.1292,
      "duration": 0.3051,
      "velocity": 120,
      "chip": "ym2612"
    },
    {
      "channel": 1,
      "note": 30,
      "start": 102.4956,
      "duration": 0.4882,
      "velocity": 123,
      "chip": "ym2612"
    },
    {
      "channel": 2,
      "note": 63,
      "start": 102.4957,
      "duration": 0.6713,
      "velocity": 82,
      "chip": "ym2612"
    },
    {
      "channel": 1,
      "note": 78,
      "start": 103.0451,
      "duration": 0.1218,
      "velocity": 117,
      "chip": "ym2612"
    },
    {
      "channel": 0,
      "note": 75,
      "start": 103.228,
      "duration": 0.1221,
      "velocity": 103,
      "chip": "ym2612"
    },
    {
      "channel": 1,
      "note": 47,
      "start": 103.2284,
      "duration": 0.3049,
      "velocity": 120,
      "chip": "ym2612"
    },
    {
      "channel": 2,
      "note": 63,
      "start": 103.2285,
      "duration": 0.3049,
      "velocity": 82,
      "chip": "ym2612"
    },
    {
      "channel": 0,
      "note": 75,
      "start": 103.5944,
      "duration": 2.1373,
      "velocity": 103,
      "chip": "ym2612"
    },
    {
      "channel": 1,
      "note": 30,
      "start": 103.5948,
      "duration": 0.3049,
      "velocity": 123,
      "chip": "ym2612"
    },
    {
      "channel": 2,
      "note": 63,
      "start": 103.5949,
      "duration": 0.488,
      "velocity": 82,
      "chip": "ym2612"
    },
    {
      "channel": 1,
      "note": 78,
      "start": 103.9611,
      "duration": 0.1218,
      "velocity": 127,
      "chip": "ym2612"
    },
    {
      "channel": 1,
      "note": 47,
      "start": 104.1443,
      "duration": 0.1218,
      "velocity": 120,
      "chip": "ym2612"
    },
    {
      "channel": 2,
      "note": 75,
      "start": 104.1443,
      "duration": 0.1218,
      "velocity": 82,
      "chip": "ym2612"
    },
    {
      "channel": 1,
      "note": 47,
      "start": 104.3275,
      "duration": 0.3051,
      "velocity": 120,
      "chip": "ym2612"
    },
    {
      "channel": 2,
      "note": 63,
      "start": 104.3276,
      "duration": 0.305,
      "velocity": 82,
      "chip": "ym2612"
    },
    {
      "channel": 1,
      "note": 30,
      "start": 104.6939,
      "duration": 0.305,
      "velocity": 123,
      "chip": "ym2612"
    },
    {
      "channel": 2,
      "note": 63,
      "start": 104.694,
      "duration": 0.3049,
      "velocity": 82,
      "chip": "ym2612"
    },
    {
      "channel": 1,
      "note": 47,
      "start": 105.0604,
      "duration": 0.1217,
      "velocity": 120,
      "chip": "ym2612"
    },
    {
      "channel": 2,
      "note": 63,
      "start": 105.0604,
      "duration": 0.1217,
      "velocity": 82,
      "chip": "ym2612"
    },
    {
      "channel": 1,
      "note": 78,
      "start": 105.2435,
      "duration": 0.1219,
      "velocity": 117,
      "chip": "ym2612"
    },
    {
      "channel": 2,
      "note": 51,
      "start": 105.2435,
      "duration": 0.4882,
      "velocity": 82,
      "chip": "ym2612"
    },
    {
      "channel": 1,
      "note": 47,
      "start": 105.4267,
      "duration": 0.305,
      "velocity": 120,
      "chip": "ym2612"
    },
    {
      "channel": 0,
      "note": 80,
      "start": 105.7928,
      "duration": 0.6717,
      "velocity": 103,
      "chip": "ym2612"
    },
    {
      "channel": 1,
      "note": 30,
      "start": 105.7933,
      "duration": 0.3049,
      "velocity": 123,
      "chip": "ym2612"
    },
    {
      "channel": 2,
      "note": 56,
      "start": 105.7933,
      "duration": 1.0376,
      "velocity": 82,
      "chip": "ym2612"
    },
    {
      "channel": 1,
      "note": 78,
      "start": 106.1595,
      "duration": 0.305,
      "velocity": 127,
      "chip": "ym2612"
    },
    {
      "channel": 0,
      "note": 79,
      "start": 106.5256,
      "duration": 0.3053,
      "velocity": 103,
      "chip": "ym2612"
    },
    {
      "channel": 1,
      "note": 47,
      "start": 106.5259,
      "duration": 0.3049,
      "velocity": 120,
      "chip": "ym2612"
    },
    {
      "channel": 0,
      "note": 80,
      "start": 106.892,
      "duration": 0.3053,
      "velocity": 103,
      "chip": "ym2612"
    },
    {
      "channel": 1,
      "note": 30,
      "start": 106.8923,
      "duration": 0.4881,
      "velocity": 123,
      "chip": "ym2612"
    },
    {
      "channel": 2,
      "note": 56,
      "start": 106.8924,
      "duration": 0.6713,
      "velocity": 82,
      "chip": "ym2612"
    },
    {
      "channel": 0,
      "note": 82,
      "start": 107.2584,
      "duration": 0.3053,
      "velocity": 103,
      "chip": "ym2612"
    },
    {
      "channel": 1,
      "note": 78,
      "start": 107.4418,
      "duration": 0.1219,
      "velocity": 117,
      "chip": "ym2612"
    },
    {
      "channel": 0,
      "note": 84,
      "start": 107.6248,
      "duration": 0.3053,
      "velocity": 103,
      "chip": "ym2612"
    },
    {
      "channel": 1,
      "note": 47,
      "start": 107.6251,
      "duration": 0.3049,
      "velocity": 120,
      "chip": "ym2612"
    },
    {
      "channel": 2,
      "note": 56,
      "start": 107.6252,
      "duration": 0.3049,
      "velocity": 82,
      "chip": "ym2612"
    },
    {
      "channel": 0,
      "note": 85,
      "start": 107.9911,
      "duration": 0.3053,
      "velocity": 103,
      "chip": "ym2612"
    },
    {
      "channel": 1,
      "note": 30,
      "start": 107.9917,
      "duration": 0.3048,
      "velocity": 123,
      "chip": "ym2612"
    },
    {
      "channel": 2,
      "note": 56,
      "start": 107.9917,
      "duration": 1.0375,
      "velocity": 82,
      "chip": "ym2612"
    },
    {
      "channel": 0,
      "note": 84,
      "start": 108.3576,
      "duration": 0.3053,
      "velocity": 103,
      "chip": "ym2612"
    },
    {
      "channel": 1,
      "note": 78,
      "start": 108.3579,
      "duration": 0.3049,
      "velocity": 127,
      "chip": "ym2612"
    },
    {
      "channel": 0,
      "note": 82,
      "start": 108.7239,
      "duration": 0.3053,
      "velocity": 103,
      "chip": "ym2612"
    },
    {
      "channel": 1,
      "note": 47,
      "start": 108.7242,
      "duration": 0.305,
      "velocity": 120,
      "chip": "ym2612"
    },
    {
      "channel": 0,
      "note": 87,
      "start": 109.0903,
      "duration": 1.7708,
      "velocity": 103,
      "chip": "ym2612"
    },
    {
      "channel": 1,
      "note": 30,
      "start": 109.0906,
      "duration": 0.4882,
      "velocity": 123,
      "chip": "ym2612"
    },
    {
      "channel": 2,
      "note": 56,
      "start": 109.0907,
      "duration": 0.4881,
      "velocity": 82,
      "chip": "ym2612"
    },
    {
      "channel": 1,
      "note": 78,
      "start": 109.6401,
      "duration": 0.1219,
      "velocity": 117,
      "chip": "ym2612"
    },
    {
      "channel": 2,
      "note": 68,
      "start": 109.6402,
      "duration": 0.1218,
      "velocity": 82,
      "chip": "ym2612"
    },
    {
      "channel": 1,
      "note": 47,
      "start": 109.8233,
      "duration": 0.3051,
      "velocity": 120,
      "chip": "ym2612"
    },
    {
      "channel": 2,
      "note": 56,
      "start": 109.8234,
      "duration": 0.305,
      "velocity": 82,
      "chip": "ym2612"
    },
    {
      "channel": 1,
      "note": 30,
      "start": 110.1898,
      "duration": 0.305,
      "velocity": 123,
      "chip": "ym2612"
    },
    {
      "channel": 2,
      "note": 56,
      "start": 110.1899,
      "duration": 1.0377,
      "velocity": 82,
      "chip": "ym2612"
    },
    {
      "channel": 1,
      "note": 78,
      "start": 110.5561,
      "duration": 0.305,
      "velocity": 127,
      "chip": "ym2612"
    },
    {
      "channel": 0,
      "note": 79,
      "start": 110.9222,
      "duration": 0.3053,
      "velocity": 103,
      "chip": "ym2612"
    },
    {
      "channel": 1,
      "note": 47,
      "start": 110.9226,
      "duration": 0.305,
      "velocity": 120,
      "chip": "ym2612"
    },
    {
      "channel": 0,
      "note": 80,
      "start": 111.2886,
      "duration": 0.3054,
      "velocity": 103,
      "chip": "ym2612"
    },
    {
      "channel": 1,
      "note": 30,
      "start": 111.289,
      "duration": 0.4882,
      "velocity": 123,
      "chip": "ym2612"
    },
    {
      "channel": 2,
      "note": 56,
      "start": 111.289,
      "duration": 0.6713,
      "velocity": 82,
      "chip": "ym2612"
    },
    {
      "channel": 0,
      "note": 82,
      "start": 111.6551,
      "duration": 0.3053,
      "velocity": 103,
      "chip": "ym2612"
    },
    {
      "channel": 1,
      "note": 78,
      "start": 111.8385,
      "duration": 0.1218,
      "velocity": 117,
      "chip": "ym2612"
    },
    {
      "channel": 0,
      "note": 85,
      "start": 112.0215,
      "duration": 0.3053,
      "velocity": 103,
      "chip": "ym2612"
    },
    {
      "channel": 1,
      "note": 47,
      "start": 112.0218,
      "duration": 0.305,
      "velocity": 120,
      "chip": "ym2612"
    },
    {
      "channel": 2,
      "note": 56,
      "start": 112.0219,
      "duration": 0.3049,
      "velocity": 82,
      "chip": "ym2612"
    },
    {
      "channel": 0,
      "note": 84,
      "start": 112.3878,
      "duration": 0.3053,
      "velocity": 103,
      "chip": "ym2612"
    },
    {
      "channel": 1,
      "note": 30,
      "start": 112.3882,
      "duration": 0.305,
      "velocity": 123,
      "chip": "ym2612"
    },
    {
      "channel": 2,
      "note": 56,
      "start": 112.3883,
      "duration": 1.0377,
      "velocity": 82,
      "chip": "ym2612"
    },
    {
      "channel": 0,
      "note": 82,
      "start": 112.7543,
      "duration": 0.4885,
      "velocity": 103,
      "chip": "ym2612"
    },
    {
      "channel": 1,
      "note": 78,
      "start": 112.7546,
      "duration": 0.3049,
      "velocity": 127,
      "chip": "ym2612"
    },
    {
      "channel": 1,
      "note": 47,
      "start": 113.1209,
      "duration": 0.3051,
      "velocity": 120,
      "chip": "ym2612"
    },
    {
      "channel": 0,
      "note": 80,
      "start": 113.3039,
      "duration": 0.1221,
      "velocity": 103,
      "chip": "ym2612"
    },
    {
      "channel": 0,
      "note": 80,
      "start": 113.487,
      "duration": 0.6717,
      "velocity": 103,
      "chip": "ym2612"
    },
    {
      "channel": 1,
      "note": 30,
      "start": 113.4874,
      "duration": 0.3049,
      "velocity": 123,
      "chip": "ym2612"
    },
    {
      "channel": 2,
      "note": 56,
      "start": 113.4875,
      "duration": 0.488,
      "velocity": 82,
      "chip": "ym2612"
    },
    {
      "channel": 1,
      "note": 47,
      "start": 113.8537,
      "duration": 0.1218,
      "velocity": 120,
      "chip": "ym2612"
    },
    {
      "channel": 1,
      "note": 78,
      "start": 114.0369,
      "duration": 0.1218,
      "velocity": 117,
      "chip": "ym2612"
    },
    {
      "channel": 2,
      "note": 56,
      "start": 114.0369,
      "duration": 0.1218,
      "velocity": 82,
      "chip": "ym2612"
    },
    {
      "channel": 0,
      "note": 75,
      "start": 114.2198,
      "duration": 0.3053,
      "velocity": 103,
      "chip": "ym2612"
    },
    {
      "channel": 1,
      "note": 47,
      "start": 114.2201,
      "duration": 0.305,
      "velocity": 120,
      "chip": "ym2612"
    },
    {
      "channel": 2,
      "note": 58,
      "start": 114.2202,
      "duration": 0.3049,
      "velocity": 82,
      "chip": "ym2612"
    },
    {
      "channel": 0,
      "note": 80,
      "start": 114.5861,
      "duration": 0.6717,
      "velocity": 103,
      "chip": "ym2612"
    },
    {
      "channel": 1,
      "note": 30,
      "start": 114.5865,
      "duration": 0.305,
      "velocity": 123,
      "chip": "ym2612"
    },
    {
      "channel": 2,
      "note": 61,
      "start": 114.5866,
      "duration": 1.0377,
      "velocity": 82,
      "chip": "ym2612"
    },
    {
      "channel": 1,
      "note": 78,
      "start": 114.9528,
      "duration": 0.3051,
      "velocity": 127,
      "chip": "ym2612"
    },
    {
      "channel": 0,
      "note": 79,
      "start": 115.319,
      "duration": 0.3053,
      "velocity": 103,
      "chip": "ym2612"
    },
    {
      "channel": 1,
      "note": 47,
      "start": 115.3193,
      "duration": 0.3049,
      "velocity": 120,
      "chip": "ym2612"
    },
    {
      "channel": 0,
      "note": 80,
      "start": 115.6853,
      "duration": 0.3053,
      "velocity": 103,
      "chip": "ym2612"
    },
    {
      "channel": 1,
      "note": 30,
      "start": 115.6857,
      "duration": 0.4882,
      "velocity": 123,
      "chip": "ym2612"
    },
    {
      "channel": 2,
      "note": 60,
      "start": 115.6858,
      "duration": 0.6713,
      "velocity": 82,
      "chip": "ym2612"
    },
    {
      "channel": 0,
      "note": 82,
      "start": 116.0517,
      "duration": 0.3053,
      "velocity": 103,
      "chip": "ym2612"
    },
    {
      "channel": 1,
      "note": 78,
      "start": 116.2352,
      "duration": 0.1218,
      "velocity": 117,
      "chip": "ym2612"
    },
    {
      "channel": 0,
      "note": 84,
      "start": 116.4181,
      "duration": 0.3053,
      "velocity": 103,
      "chip": "ym2612"
    },
    {
      "channel": 1,
      "note": 47,
      "start": 116.4186,
      "duration": 0.3048,
      "velocity": 120,
      "chip": "ym2612"
    },
    {
      "channel": 2,
      "note": 60,
      "start": 116.4186,
      "duration": 0.3048,
      "velocity": 82,
      "chip": "ym2612"
    },
    {
      "channel": 0,
      "note": 85,
      "start": 116.7845,
      "duration": 0.3053,
      "velocity": 103,
      "chip": "ym2612"
    },
    {
      "channel": 1,
      "note": 30,
      "start": 116.7849,
      "duration": 0.3049,
      "velocity": 123,
      "chip": "ym2612"
    },
    {
      "channel": 2,
      "note": 58,
      "start": 116.7849,
      "duration": 1.0377,
      "velocity": 82,
      "chip": "ym2612"
    },
    {
      "channel": 0,
      "note": 84,
      "start": 117.1509,
      "duration": 0.1221,
      "velocity": 103,
      "chip": "ym2612"
    },
    {
      "channel": 1,
      "note": 78,
      "start": 117.1514,
      "duration": 0.3048,
      "velocity": 127,
      "chip": "ym2612"
    },
    {
      "channel": 0,
      "note": 82,
      "start": 117.5173,
      "duration": 0.1221,
      "velocity": 103,
      "chip": "ym2612"
    },
    {
      "channel": 1,
      "note": 47,
      "start": 117.5176,
      "duration": 0.305,
      "velocity": 120,
      "chip": "ym2612"
    },
    {
      "channel": 0,
      "note": 87,
      "start": 117.8837,
      "duration": 1.7708,
      "velocity": 103,
      "chip": "ym2612"
    },
    {
      "channel": 1,
      "note": 30,
      "start": 117.884,
      "duration": 0.4882,
      "velocity": 123,
      "chip": "ym2612"
    },
    {
      "channel": 2,
      "note": 60,
      "start": 117.8841,
      "duration": 0.4881,
      "velocity": 82,
      "chip": "ym2612"
    },
    {
      "channel": 1,
      "note": 78,
      "start": 118.4336,
      "duration": 0.1218,
      "velocity": 117,
      "chip": "ym2612"
    },
    {
      "channel": 2,
      "note": 68,
      "start": 118.4336,
      "duration": 0.1218,
      "velocity": 82,
      "chip": "ym2612"
    },
    {
      "channel": 1,
      "note": 47,
      "start": 118.6167,
      "duration": 0.305,
      "velocity": 120,
      "chip": "ym2612"
    },
    {
      "channel": 2,
      "note": 60,
      "start": 118.6168,
      "duration": 0.3049,
      "velocity": 82,
      "chip": "ym2612"
    },
    {
      "channel": 1,
      "note": 30,
      "start": 118.9831,
      "duration": 0.305,
      "velocity": 123,
      "chip": "ym2612"
    },
    {
      "channel": 2,
      "note": 61,
      "start": 118.9832,
      "duration": 0.6713,
      "velocity": 82,
      "chip": "ym2612"
    },
    {
      "channel": 1,
      "note": 78,
      "start": 119.3495,
      "duration": 0.305,
      "velocity": 127,
      "chip": "ym2612"
    },
    {
      "channel": 0,
      "note": 79,
      "start": 119.7156,
      "duration": 0.3053,
      "velocity": 103,
      "chip": "ym2612"
    },
    {
      "channel": 1,
      "note": 47,
      "start": 119.7159,
      "duration": 0.305,
      "velocity": 120,
      "chip": "ym2612"
    },
    {
      "channel": 2,
      "note": 61,
      "start": 119.716,
      "duration": 0.3049,
      "velocity": 82,
      "chip": "ym2612"
    },
    {
      "channel": 0,
      "note": 80,
      "start": 120.082,
      "duration": 0.3053,
      "velocity": 103,
      "chip": "ym2612"
    },
    {
      "channel": 1,
      "note": 30,
      "start": 120.0823,
      "duration": 0.4881,
      "velocity": 123,
      "chip": "ym2612"
    },
    {
      "channel": 2,
      "note": 63,
      "start": 120.0824,
      "duration": 0.3049,
      "velocity": 82,
      "chip": "ym2612"
    },
    {
      "channel": 0,
      "note": 82,
      "start": 120.4484,
      "duration": 0.3053,
      "velocity": 103,
      "chip": "ym2612"
    },
    {
      "channel": 2,
      "note": 56,
      "start": 120.4485,
      "duration": 0.3053,
      "velocity": 82,
      "chip": "ym2612"
    },
    {
      "channel": 1,
      "note": 78,
      "start": 120.6319,
      "duration": 0.1218,
      "velocity": 117,
      "chip": "ym2612"
    },
    {
      "channel": 0,
      "note": 85,
      "start": 120.8148,
      "duration": 0.3053,
      "velocity": 103,
      "chip": "ym2612"
    },
    {
      "channel": 1,
      "note": 47,
      "start": 120.8151,
      "duration": 0.305,
      "velocity": 120,
      "chip": "ym2612"
    },
    {
      "channel": 2,
      "note": 60,
      "start": 120.8152,
      "duration": 0.3049,
      "velocity": 82,
      "chip": "ym2612"
    },
    {
      "channel": 0,
      "note": 84,
      "start": 121.1812,
      "duration": 0.3053,
      "velocity": 103,
      "chip": "ym2612"
    },
    {
      "channel": 1,
      "note": 30,
      "start": 121.1815,
      "duration": 0.305,
      "velocity": 123,
      "chip": "ym2612"
    },
    {
      "channel": 2,
      "note": 58,
      "start": 121.1816,
      "duration": 0.8544,
      "velocity": 82,
      "chip": "ym2612"
    },
    {
      "channel": 0,
      "note": 82,
      "start": 121.5476,
      "duration": 0.4885,
      "velocity": 103,
      "chip": "ym2612"
    },
    {
      "channel": 1,
      "note": 78,
      "start": 121.5479,
      "duration": 0.3049,
      "velocity": 127,
      "chip": "ym2612"
    },
    {
      "channel": 1,
      "note": 47,
      "start": 121.9142,
      "duration": 0.305,
      "velocity": 120,
      "chip": "ym2612"
    },
    {
      "channel": 0,
      "note": 80,
      "start": 122.0971,
      "duration": 0.1221,
      "velocity": 103,
      "chip": "ym2612"
    },
    {
      "channel": 2,
      "note": 56,
      "start": 122.0972,
      "duration": 0.122,
      "velocity": 82,
      "chip": "ym2612"
    },
    {
      "channel": 0,
      "note": 80,
      "start": 122.2803,
      "duration": 2.1372,
      "velocity": 103,
      "chip": "ym2612"
    },
    {
      "channel": 1,
      "note": 30,
      "start": 122.2807,
      "duration": 0.3049,
      "velocity": 123,
      "chip": "ym2612"
    },
    {
      "channel": 2,
      "note": 56,
      "start": 122.281,
      "duration": 1.0374,
      "velocity": 82,
      "chip": "ym2612"
    },
    {
      "channel": 1,
      "note": 78,
      "start": 122.647,
      "duration": 0.3051,
      "velocity": 127,
      "chip": "ym2612"
    },
    {
      "channel": 1,
      "note": 47,
      "start": 123.0134,
      "duration": 0.3051,
      "velocity": 120,
      "chip": "ym2612"
    },
    {
      "channel": 2,
      "note": 56,
      "start": 123.3797,
      "duration": 1.0379,
      "velocity": 82,
      "chip": "ym2612"
    },
    {
      "channel": 2,
      "note": 56,
      "start": 124.4787,
      "duration": 0.6717,
      "velocity": 82,
      "chip": "ym2612"
    },
    {
      "channel": 2,
      "note": 56,
      "start": 125.2115,
      "duration": 0.3053,
      "velocity": 82,
      "chip": "ym2612"
    },
    {
      "channel": 2,
      "note": 56,
      "start": 125.5779,
      "duration": 1.0381,
      "velocity": 82,
      "chip": "ym2612"
    },
    {
      "channel": 2,
      "note": 56,
      "start": 126.677,
      "duration": 0.4885,
      "velocity": 82,
      "chip": "ym2612"
    },
    {
      "channel": 2,
      "note": 68,
      "start": 127.2266,
      "duration": 0.1221,
      "velocity": 82,
      "chip": "ym2612"
    },
    {
      "channel": 2,
      "note": 56,
      "start": 127.4098,
      "duration": 0.3054,
      "velocity": 82,
      "chip": "ym2612"
    },
    {
      "channel": 0,
      "note": 85,
      "start": 127.7762,
      "duration": 1.0381,
      "velocity": 103,
      "chip": "ym2612"
    },
    {
      "channel": 2,
      "note": 56,
      "start": 127.7763,
      "duration": 1.038,
      "velocity": 82,
      "chip": "ym2612"
    },
    {
      "channel": 0,
      "note": 87,
      "start": 128.8754,
      "duration": 0.3053,
      "velocity": 103,
      "chip": "ym2612"
    },
    {
      "channel": 2,
      "note": 56,
      "start": 128.8754,
      "duration": 0.6716,
      "velocity": 82,
      "chip": "ym2612"
    },
    {
      "channel": 0,
      "note": 80,
      "start": 129.2417,
      "duration": 0.1221,
      "velocity": 103,
      "chip": "ym2612"
    },
    {
      "channel": 0,
      "note": 85,
      "start": 129.6082,
      "duration": 0.6716,
      "velocity": 103,
      "chip": "ym2612"
    },
    {
      "channel": 2,
      "note": 56,
      "start": 129.6083,
      "duration": 0.3052,
      "velocity": 82,
      "chip": "ym2612"
    },
    {
      "channel": 2,
      "note": 56,
      "start": 129.9746,
      "duration": 0.6716,
      "velocity": 82,
      "chip": "ym2612"
    },
    {
      "channel": 0,
      "note": 84,
      "start": 130.341,
      "duration": 0.1221,
      "velocity": 103,
      "chip": "ym2612"
    },
    {
      "channel": 0,
      "note": 82,
      "start": 130.7074,
      "duration": 0.3053,
      "velocity": 103,
      "chip": "ym2612"
    },
    {
      "channel": 2,
      "note": 51,
      "start": 130.7074,
      "duration": 0.3052,
      "velocity": 82,
      "chip": "ym2612"
    },
    {
      "channel": 0,
      "note": 80,
      "start": 131.0737,
      "duration": 3.2365,
      "velocity": 103,
      "chip": "ym2612"
    },
    {
      "channel": 2,
      "note": 56,
      "start": 131.0738,
      "duration": 3.2364,
      "velocity": 82,
      "chip": "ym2612"
    }
  ]
}