{
  "track_name": "10 - Jungle Performance (Solo)",
  "duration_sec": 51.844,
  "sample_rate": 44100,
  "note_count": 98,
  "unique_pitches": 7,
  "pitch_range": 14,
  "avg_note_duration": 0.2355,
  "reconstruction_stats": {
    "notes_reconstructed": 98,
    "keyon_events": 98,
    "keyoff_events": 98,
    "orphan_keyons": 0,
    "unique_pitches": 7,
    "pitch_range": 14,
    "avg_duration_sec": 0.2355
  },
  "metadata": {
    "source": "T\\Tempo\\10 - Jungle Performance (Solo).vgz"
  },
  "notes": [
    {
      "channel": 1,
      "note": 49,
      "start": 0.1022,
      "duration": 0.5112,
      "velocity": 64,
      "chip": "ym2612"
    },
    {
      "channel": 1,
      "note": 49,
      "start": 0.7304,
      "duration": 0.1332,
      "velocity": 64,
      "chip": "ym2612"
    },
    {
      "channel": 1,
      "note": 56,
      "start": 0.8641,
      "duration": 0.1156,
      "velocity": 64,
      "chip": "ym2612"
    },
    {
      "channel": 1,
      "note": 55,
      "start": 1.2304,
      "duration": 0.1326,
      "velocity": 64,
      "chip": "ym2612"
    },
    {
      "channel": 1,
      "note": 56,
      "start": 1.6145,
      "duration": 0.4989,
      "velocity": 64,
      "chip": "ym2612"
    },
    {
      "channel": 1,
      "note": 56,
      "start": 2.2304,
      "duration": 0.1332,
      "velocity": 64,
      "chip": "ym2612"
    },
    {
      "channel": 1,
      "note": 63,
      "start": 2.9975,
      "duration": 0.1164,
      "velocity": 64,
      "chip": "ym2612"
    },
    {
      "channel": 1,
      "note": 59,
      "start": 3.1145,
      "duration": 0.1319,
      "velocity": 64,
      "chip": "ym2612"
    },
    {
      "channel": 1,
      "note": 56,
      "start": 3.364,
      "duration": 0.1329,
      "velocity": 64,
      "chip": "ym2612"
    },
    {
      "channel": 1,
      "note": 49,
      "start": 3.7471,
      "duration": 0.1165,
      "velocity": 64,
      "chip": "ym2612"
    },
    {
      "channel": 1,
      "note": 52,
      "start": 3.8641,
      "duration": 0.1323,
      "velocity": 64,
      "chip": "ym2612"
    },
    {
      "channel": 1,
      "note": 54,
      "start": 4.2471,
      "duration": 0.116,
      "velocity": 64,
      "chip": "ym2612"
    },
    {
      "channel": 1,
      "note": 56,
      "start": 4.6137,
      "duration": 0.5157,
      "velocity": 64,
      "chip": "ym2612"
    },
    {
      "channel": 1,
      "note": 56,
      "start": 5.2468,
      "duration": 0.1334,
      "velocity": 64,
      "chip": "ym2612"
    },
    {
      "channel": 1,
      "note": 59,
      "start": 5.9968,
      "duration": 0.1342,
      "velocity": 64,
      "chip": "ym2612"
    },
    {
      "channel": 1,
      "note": 49,
      "start": 6.1315,
      "duration": 0.7483,
      "velocity": 64,
      "chip": "ym2612"
    },
    {
      "channel": 1,
      "note": 56,
      "start": 6.8804,
      "duration": 0.1327,
      "velocity": 64,
      "chip": "ym2612"
    },
    {
      "channel": 1,
      "note": 55,
      "start": 7.2638,
      "duration": 0.116,
      "velocity": 64,
      "chip": "ym2612"
    },
    {
      "channel": 1,
      "note": 56,
      "start": 7.6304,
      "duration": 0.4996,
      "velocity": 64,
      "chip": "ym2612"
    },
    {
      "channel": 1,
      "note": 56,
      "start": 8.2638,
      "duration": 0.1168,
      "velocity": 64,
      "chip": "ym2612"
    },
    {
      "channel": 1,
      "note": 63,
      "start": 9.0138,
      "duration": 0.1337,
      "velocity": 64,
      "chip": "ym2612"
    },
    {
      "channel": 1,
      "note": 59,
      "start": 9.397,
      "duration": 0.1159,
      "velocity": 64,
      "chip": "ym2612"
    },
    {
      "channel": 1,
      "note": 49,
      "start": 9.7638,
      "duration": 0.1328,
      "velocity": 64,
      "chip": "ym2612"
    },
    {
      "channel": 1,
      "note": 52,
      "start": 9.8971,
      "duration": 0.116,
      "velocity": 64,
      "chip": "ym2612"
    },
    {
      "channel": 1,
      "note": 54,
      "start": 10.2638,
      "duration": 0.1326,
      "velocity": 64,
      "chip": "ym2612"
    },
    {
      "channel": 1,
      "note": 56,
      "start": 10.6471,
      "duration": 0.4993,
      "velocity": 64,
      "chip": "ym2612"
    },
    {
      "channel": 1,
      "note": 56,
      "start": 11.2807,
      "duration": 0.1156,
      "velocity": 64,
      "chip": "ym2612"
    },
    {
      "channel": 1,
      "note": 49,
      "start": 12.1509,
      "duration": 0.4959,
      "velocity": 64,
      "chip": "ym2612"
    },
    {
      "channel": 1,
      "note": 49,
      "start": 12.7807,
      "duration": 0.1164,
      "velocity": 64,
      "chip": "ym2612"
    },
    {
      "channel": 1,
      "note": 56,
      "start": 12.8977,
      "duration": 0.132,
      "velocity": 64,
      "chip": "ym2612"
    },
    {
      "channel": 1,
      "note": 55,
      "start": 13.2804,
      "duration": 0.1329,
      "velocity": 64,
      "chip": "ym2612"
    },
    {
      "channel": 1,
      "note": 56,
      "start": 13.6648,
      "duration": 0.4987,
      "velocity": 64,
      "chip": "ym2612"
    },
    {
      "channel": 1,
      "note": 56,
      "start": 14.2804,
      "duration": 0.1328,
      "velocity": 64,
      "chip": "ym2612"
    },
    {
      "channel": 1,
      "note": 63,
      "start": 15.0307,
      "duration": 0.1327,
      "velocity": 64,
      "chip": "ym2612"
    },
    {
      "channel": 1,
      "note": 59,
      "start": 15.164,
      "duration": 0.1154,
      "velocity": 64,
      "chip": "ym2612"
    },
    {
      "channel": 1,
      "note": 56,
      "start": 15.4138,
      "duration": 0.1326,
      "velocity": 64,
      "chip": "ym2612"
    },
    {
      "channel": 1,
      "note": 49,
      "start": 15.7968,
      "duration": 0.1167,
      "velocity": 64,
      "chip": "ym2612"
    },
    {
      "channel": 1,
      "note": 52,
      "start": 15.914,
      "duration": 0.1323,
      "velocity": 64,
      "chip": "ym2612"
    },
    {
      "channel": 1,
      "note": 54,
      "start": 16.297,
      "duration": 0.1157,
      "velocity": 64,
      "chip": "ym2612"
    },
    {
      "channel": 1,
      "note": 56,
      "start": 16.6637,
      "duration": 0.4994,
      "velocity": 64,
      "chip": "ym2612"
    },
    {
      "channel": 1,
      "note": 56,
      "start": 17.2968,
      "duration": 0.1163,
      "velocity": 64,
      "chip": "ym2612"
    },
    {
      "channel": 1,
      "note": 59,
      "start": 18.0468,
      "duration": 0.1335,
      "velocity": 64,
      "chip": "ym2612"
    },
    {
      "channel": 1,
      "note": 49,
      "start": 18.1808,
      "duration": 0.749,
      "velocity": 64,
      "chip": "ym2612"
    },
    {
      "channel": 1,
      "note": 56,
      "start": 18.9303,
      "duration": 0.116,
      "velocity": 64,
      "chip": "ym2612"
    },
    {
      "channel": 1,
      "note": 55,
      "start": 19.297,
      "duration": 0.1324,
      "velocity": 64,
      "chip": "ym2612"
    },
    {
      "channel": 1,
      "note": 56,
      "start": 19.68,
      "duration": 0.5001,
      "velocity": 64,
      "chip": "ym2612"
    },
    {
      "channel": 1,
      "note": 56,
      "start": 20.3138,
      "duration": 0.1164,
      "velocity": 64,
      "chip": "ym2612"
    },
    {
      "channel": 1,
      "note": 63,
      "start": 21.0637,
      "duration": 0.1168,
      "velocity": 64,
      "chip": "ym2612"
    },
    {
      "channel": 1,
      "note": 59,
      "start": 21.4301,
      "duration": 0.1325,
      "velocity": 64,
      "chip": "ym2612"
    },
    {
      "channel": 1,
      "note": 49,
      "start": 21.8134,
      "duration": 0.133,
      "velocity": 64,
      "chip": "ym2612"
    },
    {
      "channel": 1,
      "note": 52,
      "start": 21.947,
      "duration": 0.116,
      "velocity": 64,
      "chip": "ym2612"
    },
    {
      "channel": 1,
      "note": 54,
      "start": 22.3137,
      "duration": 0.1324,
      "velocity": 64,
      "chip": "ym2612"
    },
    {
      "channel": 1,
      "note": 56,
      "start": 22.697,
      "duration": 0.4994,
      "velocity": 64,
      "chip": "ym2612"
    },
    {
      "channel": 1,
      "note": 56,
      "start": 23.3134,
      "duration": 0.133,
      "velocity": 64,
      "chip": "ym2612"
    },
    {
      "channel": 1,
      "note": 49,
      "start": 24.2017,
      "duration": 0.4951,
      "velocity": 64,
      "chip": "ym2612"
    },
    {
      "channel": 1,
      "note": 49,
      "start": 24.8304,
      "duration": 0.1165,
      "velocity": 64,
      "chip": "ym2612"
    },
    {
      "channel": 1,
      "note": 56,
      "start": 24.9475,
      "duration": 0.1323,
      "velocity": 64,
      "chip": "ym2612"
    },
    {
      "channel": 1,
      "note": 55,
      "start": 25.3304,
      "duration": 0.116,
      "velocity": 64,
      "chip": "ym2612"
    },
    {
      "channel": 1,
      "note": 56,
      "start": 25.6978,
      "duration": 0.5155,
      "velocity": 64,
      "chip": "ym2612"
    },
    {
      "channel": 1,
      "note": 56,
      "start": 26.3304,
      "duration": 0.1331,
      "velocity": 64,
      "chip": "ym2612"
    },
    {
      "channel": 1,
      "note": 63,
      "start": 27.0808,
      "duration": 0.1331,
      "velocity": 64,
      "chip": "ym2612"
    },
    {
      "channel": 1,
      "note": 59,
      "start": 27.2145,
      "duration": 0.1152,
      "velocity": 64,
      "chip": "ym2612"
    },
    {
      "channel": 1,
      "note": 56,
      "start": 27.464,
      "duration": 0.1161,
      "velocity": 64,
      "chip": "ym2612"
    },
    {
      "channel": 1,
      "note": 49,
      "start": 27.8304,
      "duration": 0.1332,
      "velocity": 64,
      "chip": "ym2612"
    },
    {
      "channel": 1,
      "note": 52,
      "start": 27.9641,
      "duration": 0.1156,
      "velocity": 64,
      "chip": "ym2612"
    },
    {
      "channel": 1,
      "note": 54,
      "start": 28.3471,
      "duration": 0.116,
      "velocity": 64,
      "chip": "ym2612"
    },
    {
      "channel": 1,
      "note": 56,
      "start": 28.7137,
      "duration": 0.499,
      "velocity": 64,
      "chip": "ym2612"
    },
    {
      "channel": 1,
      "note": 56,
      "start": 29.3468,
      "duration": 0.1167,
      "velocity": 64,
      "chip": "ym2612"
    },
    {
      "channel": 1,
      "note": 59,
      "start": 30.0968,
      "duration": 0.1175,
      "velocity": 64,
      "chip": "ym2612"
    },
    {
      "channel": 1,
      "note": 49,
      "start": 30.2148,
      "duration": 0.7651,
      "velocity": 64,
      "chip": "ym2612"
    },
    {
      "channel": 1,
      "note": 56,
      "start": 30.9804,
      "duration": 0.116,
      "velocity": 64,
      "chip": "ym2612"
    },
    {
      "channel": 1,
      "note": 55,
      "start": 31.3471,
      "duration": 0.1326,
      "velocity": 64,
      "chip": "ym2612"
    },
    {
      "channel": 1,
      "note": 56,
      "start": 31.7304,
      "duration": 0.4996,
      "velocity": 64,
      "chip": "ym2612"
    },
    {
      "channel": 1,
      "note": 56,
      "start": 32.347,
      "duration": 0.1335,
      "velocity": 64,
      "chip": "ym2612"
    },
    {
      "channel": 1,
      "note": 63,
      "start": 33.1138,
      "duration": 0.1171,
      "velocity": 64,
      "chip": "ym2612"
    },
    {
      "channel": 1,
      "note": 59,
      "start": 33.4804,
      "duration": 0.1326,
      "velocity": 64,
      "chip": "ym2612"
    },
    {
      "channel": 1,
      "note": 49,
      "start": 33.8638,
      "duration": 0.1161,
      "velocity": 64,
      "chip": "ym2612"
    },
    {
      "channel": 1,
      "note": 52,
      "start": 33.9804,
      "duration": 0.1326,
      "velocity": 64,
      "chip": "ym2612"
    },
    {
      "channel": 1,
      "note": 54,
      "start": 34.3638,
      "duration": 0.116,
      "velocity": 64,
      "chip": "ym2612"
    },
    {
      "channel": 1,
      "note": 56,
      "start": 34.7471,
      "duration": 0.4993,
      "velocity": 64,
      "chip": "ym2612"
    },
    {
      "channel": 1,
      "note": 56,
      "start": 35.3641,
      "duration": 0.1322,
      "velocity": 64,
      "chip": "ym2612"
    },
    {
      "channel": 1,
      "note": 49,
      "start": 36.2484,
      "duration": 0.7482,
      "velocity": 64,
      "chip": "ym2612"
    },
    {
      "channel": 1,
      "note": 49,
      "start": 42.2638,
      "duration": 0.7495,
      "velocity": 64,
      "chip": "ym2612"
    },
    {
      "channel": 1,
      "note": 56,
      "start": 43.7807,
      "duration": 0.4987,
      "velocity": 64,
      "chip": "ym2612"
    },
    {
      "channel": 1,
      "note": 56,
      "start": 44.3968,
      "duration": 0.1328,
      "velocity": 64,
      "chip": "ym2612"
    },
    {
      "channel": 1,
      "note": 63,
      "start": 45.147,
      "duration": 0.1327,
      "velocity": 64,
      "chip": "ym2612"
    },
    {
      "channel": 1,
      "note": 59,
      "start": 45.5301,
      "duration": 0.1325,
      "velocity": 64,
      "chip": "ym2612"
    },
    {
      "channel": 1,
      "note": 49,
      "start": 45.9134,
      "duration": 0.1161,
      "velocity": 64,
      "chip": "ym2612"
    },
    {
      "channel": 1,
      "note": 52,
      "start": 46.0301,
      "duration": 0.1326,
      "velocity": 64,
      "chip": "ym2612"
    },
    {
      "channel": 1,
      "note": 54,
      "start": 46.4134,
      "duration": 0.116,
      "velocity": 64,
      "chip": "ym2612"
    },
    {
      "channel": 1,
      "note": 56,
      "start": 46.7803,
      "duration": 0.4994,
      "velocity": 64,
      "chip": "ym2612"
    },
    {
      "channel": 1,
      "note": 56,
      "start": 47.4134,
      "duration": 0.1328,
      "velocity": 64,
      "chip": "ym2612"
    },
    {
      "channel": 1,
      "note": 54,
      "start": 48.2967,
      "duration": 0.1828,
      "velocity": 64,
      "chip": "ym2612"
    },
    {
      "channel": 1,
      "note": 54,
      "start": 48.6633,
      "duration": 0.1995,
      "velocity": 64,
      "chip": "ym2612"
    },
    {
      "channel": 1,
      "note": 56,
      "start": 49.0467,
      "duration": 0.1828,
      "velocity": 64,
      "chip": "ym2612"
    },
    {
      "channel": 1,
      "note": 56,
      "start": 49.4134,
      "duration": 0.1994,
      "velocity": 64,
      "chip": "ym2612"
    },
    {
      "channel": 1,
      "note": 49,
      "start": 50.547,
      "duration": 0.7543,
      "velocity": 64,
      "chip": "ym2612"
    },
    {
      "channel": 1,
      "note": 49,
      "start": 51.3018,
      "duration": 0.5116,
      "velocity": 64,
      "chip": "ym2612"
    }
  ]
}