{
  "track_name": "10 - Bonus Game",
  "duration_sec": 29.463,
  "sample_rate": 44100,
  "note_count": 524,
  "unique_pitches": 25,
  "pitch_range": 64,
  "avg_note_duration": 0.2373,
  "reconstruction_stats": {
    "notes_reconstructed": 524,
    "keyon_events": 524,
    "keyoff_events": 512,
    "orphan_keyons": 3,
    "unique_pitches": 25,
    "pitch_range": 64,
    "avg_duration_sec": 0.2373
  },
  "metadata": {
    "source": "D\\Decap Attack\\10 - Bonus Game.vgz"
  },
  "notes": [
    {
      "channel": 0,
      "note": 56,
      "start": 0.0001,
      "duration": 0.2976,
      "velocity": 106,
      "chip": "ym2612"
    },
    {
      "channel": 1,
      "note": 75,
      "start": 0.003,
      "duration": 0.2952,
      "velocity": 107,
      "chip": "ym2612"
    },
    {
      "channel": 3,
      "note": 75,
      "start": 0.006,
      "duration": 0.293,
      "velocity": 102,
      "chip": "ym2612"
    },
    {
      "channel": 4,
      "note": 71,
      "start": 0.0088,
      "duration": 0.2907,
      "velocity": 102,
      "chip": "ym2612"
    },
    {
      "channel": 5,
      "note": 20,
      "start": 0.0117,
      "duration": 0.2883,
      "velocity": 127,
      "chip": "ym2612"
    },
    {
      "channel": 0,
      "note": 56,
      "start": 0.298,
      "duration": 0.1497,
      "velocity": 106,
      "chip": "ym2612"
    },
    {
      "channel": 1,
      "note": 78,
      "start": 0.2985,
      "duration": 0.1496,
      "velocity": 107,
      "chip": "ym2612"
    },
    {
      "channel": 3,
      "note": 75,
      "start": 0.2993,
      "duration": 0.1492,
      "velocity": 102,
      "chip": "ym2612"
    },
    {
      "channel": 4,
      "note": 71,
      "start": 0.2998,
      "duration": 0.1489,
      "velocity": 102,
      "chip": "ym2612"
    },
    {
      "channel": 5,
      "note": 20,
      "start": 0.3004,
      "duration": 0.1485,
      "velocity": 127,
      "chip": "ym2612"
    },
    {
      "channel": 2,
      "note": 75,
      "start": 0.3317,
      "duration": 0.2996,
      "velocity": 107,
      "chip": "ym2612"
    },
    {
      "channel": 0,
      "note": 56,
      "start": 0.448,
      "duration": 0.1497,
      "velocity": 106,
      "chip": "ym2612"
    },
    {
      "channel": 5,
      "note": 80,
      "start": 0.4515,
      "duration": 0.1478,
      "velocity": 127,
      "chip": "ym2612"
    },
    {
      "channel": 0,
      "note": 68,
      "start": 0.5981,
      "duration": 0.1496,
      "velocity": 106,
      "chip": "ym2612"
    },
    {
      "channel": 5,
      "note": 20,
      "start": 0.6019,
      "duration": 0.2973,
      "velocity": 127,
      "chip": "ym2612"
    },
    {
      "channel": 2,
      "note": 78,
      "start": 0.6317,
      "duration": 0.1497,
      "velocity": 107,
      "chip": "ym2612"
    },
    {
      "channel": 0,
      "note": 56,
      "start": 0.7481,
      "duration": 0.1496,
      "velocity": 106,
      "chip": "ym2612"
    },
    {
      "channel": 0,
      "note": 56,
      "start": 0.898,
      "duration": 0.1497,
      "velocity": 106,
      "chip": "ym2612"
    },
    {
      "channel": 5,
      "note": 32,
      "start": 0.9017,
      "duration": 0.148,
      "velocity": 69,
      "chip": "ym2612"
    },
    {
      "channel": 0,
      "note": 68,
      "start": 1.0481,
      "duration": 0.1496,
      "velocity": 106,
      "chip": "ym2612"
    },
    {
      "channel": 3,
      "note": 75,
      "start": 1.049,
      "duration": 0.1499,
      "velocity": 102,
      "chip": "ym2612"
    },
    {
      "channel": 4,
      "note": 71,
      "start": 1.0495,
      "duration": 0.1496,
      "velocity": 102,
      "chip": "ym2612"
    },
    {
      "channel": 5,
      "note": 20,
      "start": 1.0524,
      "duration": 0.1469,
      "velocity": 127,
      "chip": "ym2612"
    },
    {
      "channel": 0,
      "note": 56,
      "start": 1.1981,
      "duration": 0.1496,
      "velocity": 106,
      "chip": "ym2612"
    },
    {
      "channel": 1,
      "note": 75,
      "start": 1.1986,
      "duration": 0.1496,
      "velocity": 107,
      "chip": "ym2612"
    },
    {
      "channel": 5,
      "note": 20,
      "start": 1.1997,
      "duration": 0.1503,
      "velocity": 127,
      "chip": "ym2612"
    },
    {
      "channel": 0,
      "note": 68,
      "start": 1.3481,
      "duration": 0.1496,
      "velocity": 106,
      "chip": "ym2612"
    },
    {
      "channel": 1,
      "note": 78,
      "start": 1.3486,
      "duration": 0.2996,
      "velocity": 107,
      "chip": "ym2612"
    },
    {
      "channel": 3,
      "note": 75,
      "start": 1.3494,
      "duration": 0.2995,
      "velocity": 102,
      "chip": "ym2612"
    },
    {
      "channel": 4,
      "note": 71,
      "start": 1.3499,
      "duration": 0.2996,
      "velocity": 102,
      "chip": "ym2612"
    },
    {
      "channel": 5,
      "note": 80,
      "start": 1.3526,
      "duration": 0.4477,
      "velocity": 127,
      "chip": "ym2612"
    },
    {
      "channel": 0,
      "note": 56,
      "start": 1.4981,
      "duration": 0.1496,
      "velocity": 106,
      "chip": "ym2612"
    },
    {
      "channel": 2,
      "note": 75,
      "start": 1.5316,
      "duration": 0.1496,
      "velocity": 107,
      "chip": "ym2612"
    },
    {
      "channel": 0,
      "note": 68,
      "start": 1.6481,
      "duration": 0.1496,
      "velocity": 106,
      "chip": "ym2612"
    },
    {
      "channel": 1,
      "note": 75,
      "start": 1.6486,
      "duration": 0.1497,
      "velocity": 107,
      "chip": "ym2612"
    },
    {
      "channel": 3,
      "note": 75,
      "start": 1.6493,
      "duration": 0.1498,
      "velocity": 102,
      "chip": "ym2612"
    },
    {
      "channel": 4,
      "note": 71,
      "start": 1.6498,
      "duration": 0.1499,
      "velocity": 102,
      "chip": "ym2612"
    },
    {
      "channel": 2,
      "note": 78,
      "start": 1.6816,
      "duration": 0.2996,
      "velocity": 107,
      "chip": "ym2612"
    },
    {
      "channel": 0,
      "note": 59,
      "start": 1.7982,
      "duration": 0.2995,
      "velocity": 106,
      "chip": "ym2612"
    },
    {
      "channel": 1,
      "note": 80,
      "start": 1.7988,
      "duration": 0.2994,
      "velocity": 107,
      "chip": "ym2612"
    },
    {
      "channel": 3,
      "note": 78,
      "start": 1.7995,
      "duration": 0.2994,
      "velocity": 102,
      "chip": "ym2612"
    },
    {
      "channel": 4,
      "note": 75,
      "start": 1.8002,
      "duration": 0.2993,
      "velocity": 102,
      "chip": "ym2612"
    },
    {
      "channel": 5,
      "note": 20,
      "start": 1.8031,
      "duration": 0.2968,
      "velocity": 127,
      "chip": "ym2612"
    },
    {
      "channel": 2,
      "note": 75,
      "start": 1.9816,
      "duration": 0.1496,
      "velocity": 107,
      "chip": "ym2612"
    },
    {
      "channel": 0,
      "note": 59,
      "start": 2.098,
      "duration": 0.1497,
      "velocity": 106,
      "chip": "ym2612"
    },
    {
      "channel": 1,
      "note": 75,
      "start": 2.0986,
      "duration": 0.1496,
      "velocity": 107,
      "chip": "ym2612"
    },
    {
      "channel": 3,
      "note": 78,
      "start": 2.0993,
      "duration": 0.1495,
      "velocity": 102,
      "chip": "ym2612"
    },
    {
      "channel": 4,
      "note": 75,
      "start": 2.0998,
      "duration": 0.1492,
      "velocity": 102,
      "chip": "ym2612"
    },
    {
      "channel": 5,
      "note": 20,
      "start": 2.1003,
      "duration": 0.1489,
      "velocity": 127,
      "chip": "ym2612"
    },
    {
      "channel": 2,
      "note": 80,
      "start": 2.1317,
      "duration": 0.2995,
      "velocity": 107,
      "chip": "ym2612"
    },
    {
      "channel": 0,
      "note": 59,
      "start": 2.248,
      "duration": 0.1497,
      "velocity": 106,
      "chip": "ym2612"
    },
    {
      "channel": 1,
      "note": 78,
      "start": 2.2485,
      "duration": 0.2997,
      "velocity": 107,
      "chip": "ym2612"
    },
    {
      "channel": 5,
      "note": 80,
      "start": 2.2518,
      "duration": 0.1473,
      "velocity": 127,
      "chip": "ym2612"
    },
    {
      "channel": 0,
      "note": 71,
      "start": 2.3981,
      "duration": 0.1496,
      "velocity": 106,
      "chip": "ym2612"
    },
    {
      "channel": 5,
      "note": 20,
      "start": 2.4018,
      "duration": 0.2971,
      "velocity": 127,
      "chip": "ym2612"
    },
    {
      "channel": 2,
      "note": 75,
      "start": 2.4316,
      "duration": 0.1496,
      "velocity": 107,
      "chip": "ym2612"
    },
    {
      "channel": 0,
      "note": 59,
      "start": 2.5481,
      "duration": 0.1496,
      "velocity": 106,
      "chip": "ym2612"
    },
    {
      "channel": 1,
      "note": 75,
      "start": 2.5486,
      "duration": 0.1496,
      "velocity": 107,
      "chip": "ym2612"
    },
    {
      "channel": 2,
      "note": 78,
      "start": 2.5816,
      "duration": 0.2997,
      "velocity": 107,
      "chip": "ym2612"
    },
    {
      "channel": 0,
      "note": 59,
      "start": 2.698,
      "duration": 0.1497,
      "velocity": 106,
      "chip": "ym2612"
    },
    {
      "channel": 5,
      "note": 32,
      "start": 2.7015,
      "duration": 0.1482,
      "velocity": 69,
      "chip": "ym2612"
    },
    {
      "channel": 0,
      "note": 71,
      "start": 2.8481,
      "duration": 0.1496,
      "velocity": 106,
      "chip": "ym2612"
    },
    {
      "channel": 3,
      "note": 78,
      "start": 2.849,
      "duration": 0.1499,
      "velocity": 102,
      "chip": "ym2612"
    },
    {
      "channel": 4,
      "note": 75,
      "start": 2.8495,
      "duration": 0.1495,
      "velocity": 102,
      "chip": "ym2612"
    },
    {
      "channel": 5,
      "note": 20,
      "start": 2.8524,
      "duration": 0.1469,
      "velocity": 127,
      "chip": "ym2612"
    },
    {
      "channel": 2,
      "note": 75,
      "start": 2.8817,
      "duration": 0.1495,
      "velocity": 107,
      "chip": "ym2612"
    },
    {
      "channel": 0,
      "note": 59,
      "start": 2.9981,
      "duration": 0.1496,
      "velocity": 106,
      "chip": "ym2612"
    },
    {
      "channel": 1,
      "note": 75,
      "start": 2.9986,
      "duration": 0.1496,
      "velocity": 107,
      "chip": "ym2612"
    },
    {
      "channel": 5,
      "note": 20,
      "start": 2.9996,
      "duration": 0.1504,
      "velocity": 127,
      "chip": "ym2612"
    },
    {
      "channel": 0,
      "note": 71,
      "start": 3.1481,
      "duration": 0.1496,
      "velocity": 106,
      "chip": "ym2612"
    },
    {
      "channel": 1,
      "note": 73,
      "start": 3.1486,
      "duration": 0.2996,
      "velocity": 107,
      "chip": "ym2612"
    },
    {
      "channel": 3,
      "note": 78,
      "start": 3.1494,
      "duration": 0.2995,
      "velocity": 102,
      "chip": "ym2612"
    },
    {
      "channel": 4,
      "note": 75,
      "start": 3.1499,
      "duration": 0.2996,
      "velocity": 102,
      "chip": "ym2612"
    },
    {
      "channel": 5,
      "note": 80,
      "start": 3.1525,
      "duration": 0.4478,
      "velocity": 127,
      "chip": "ym2612"
    },
    {
      "channel": 0,
      "note": 59,
      "start": 3.2981,
      "duration": 0.1496,
      "velocity": 106,
      "chip": "ym2612"
    },
    {
      "channel": 2,
      "note": 75,
      "start": 3.3316,
      "duration": 0.1496,
      "velocity": 107,
      "chip": "ym2612"
    },
    {
      "channel": 0,
      "note": 71,
      "start": 3.4481,
      "duration": 0.1496,
      "velocity": 106,
      "chip": "ym2612"
    },
    {
      "channel": 1,
      "note": 71,
      "start": 3.4486,
      "duration": 0.1497,
      "velocity": 107,
      "chip": "ym2612"
    },
    {
      "channel": 3,
      "note": 78,
      "start": 3.4493,
      "duration": 0.1498,
      "velocity": 102,
      "chip": "ym2612"
    },
    {
      "channel": 4,
      "note": 75,
      "start": 3.4498,
      "duration": 0.1499,
      "velocity": 102,
      "chip": "ym2612"
    },
    {
      "channel": 2,
      "note": 73,
      "start": 3.4816,
      "duration": 0.2996,
      "velocity": 107,
      "chip": "ym2612"
    },
    {
      "channel": 0,
      "note": 49,
      "start": 3.5982,
      "duration": 0.2995,
      "velocity": 106,
      "chip": "ym2612"
    },
    {
      "channel": 1,
      "note": 73,
      "start": 3.5988,
      "duration": 0.2994,
      "velocity": 107,
      "chip": "ym2612"
    },
    {
      "channel": 3,
      "note": 73,
      "start": 3.5995,
      "duration": 0.299,
      "velocity": 102,
      "chip": "ym2612"
    },
    {
      "channel": 4,
      "note": 68,
      "start": 3.6002,
      "duration": 0.2989,
      "velocity": 102,
      "chip": "ym2612"
    },
    {
      "channel": 5,
      "note": 20,
      "start": 3.6031,
      "duration": 0.2964,
      "velocity": 127,
      "chip": "ym2612"
    },
    {
      "channel": 2,
      "note": 71,
      "start": 3.7816,
      "duration": 0.1498,
      "velocity": 107,
      "chip": "ym2612"
    },
    {
      "channel": 0,
      "note": 49,
      "start": 3.898,
      "duration": 0.1497,
      "velocity": 106,
      "chip": "ym2612"
    },
    {
      "channel": 3,
      "note": 73,
      "start": 3.8989,
      "duration": 0.1499,
      "velocity": 102,
      "chip": "ym2612"
    },
    {
      "channel": 4,
      "note": 68,
      "start": 3.8994,
      "duration": 0.1496,
      "velocity": 102,
      "chip": "ym2612"
    },
    {
      "channel": 5,
      "note": 20,
      "start": 3.8999,
      "duration": 0.1493,
      "velocity": 127,
      "chip": "ym2612"
    },
    {
      "channel": 2,
      "note": 73,
      "start": 3.9318,
      "duration": 0.2994,
      "velocity": 107,
      "chip": "ym2612"
    },
    {
      "channel": 0,
      "note": 49,
      "start": 4.048,
      "duration": 0.1497,
      "velocity": 106,
      "chip": "ym2612"
    },
    {
      "channel": 1,
      "note": 74,
      "start": 4.0485,
      "duration": 0.2997,
      "velocity": 107,
      "chip": "ym2612"
    },
    {
      "channel": 5,
      "note": 80,
      "start": 4.0518,
      "duration": 0.1473,
      "velocity": 127,
      "chip": "ym2612"
    },
    {
      "channel": 0,
      "note": 61,
      "start": 4.1981,
      "duration": 0.1496,
      "velocity": 106,
      "chip": "ym2612"
    },
    {
      "channel": 5,
      "note": 20,
      "start": 4.2018,
      "duration": 0.2975,
      "velocity": 127,
      "chip": "ym2612"
    },
    {
      "channel": 0,
      "note": 49,
      "start": 4.3481,
      "duration": 0.1496,
      "velocity": 106,
      "chip": "ym2612"
    },
    {
      "channel": 2,
      "note": 74,
      "start": 4.3817,
      "duration": 0.2995,
      "velocity": 107,
      "chip": "ym2612"
    },
    {
      "channel": 0,
      "note": 51,
      "start": 4.498,
      "duration": 0.1497,
      "velocity": 106,
      "chip": "ym2612"
    },
    {
      "channel": 1,
      "note": 73,
      "start": 4.4985,
      "duration": 0.2997,
      "velocity": 107,
      "chip": "ym2612"
    },
    {
      "channel": 5,
      "note": 32,
      "start": 4.5018,
      "duration": 0.1478,
      "velocity": 69,
      "chip": "ym2612"
    },
    {
      "channel": 0,
      "note": 63,
      "start": 4.6481,
      "duration": 0.1496,
      "velocity": 106,
      "chip": "ym2612"
    },
    {
      "channel": 3,
      "note": 75,
      "start": 4.649,
      "duration": 0.15,
      "velocity": 102,
      "chip": "ym2612"
    },
    {
      "channel": 4,
      "note": 70,
      "start": 4.6495,
      "duration": 0.1497,
      "velocity": 102,
      "chip": "ym2612"
    },
    {
      "channel": 5,
      "note": 20,
      "start": 4.6523,
      "duration": 0.147,
      "velocity": 127,
      "chip": "ym2612"
    },
    {
      "channel": 0,
      "note": 51,
      "start": 4.7981,
      "duration": 0.1496,
      "velocity": 106,
      "chip": "ym2612"
    },
    {
      "channel": 1,
      "note": 71,
      "start": 4.7986,
      "duration": 0.1496,
      "velocity": 107,
      "chip": "ym2612"
    },
    {
      "channel": 5,
      "note": 20,
      "start": 4.7997,
      "duration": 0.1502,
      "velocity": 127,
      "chip": "ym2612"
    },
    {
      "channel": 2,
      "note": 73,
      "start": 4.8316,
      "duration": 0.2996,
      "velocity": 107,
      "chip": "ym2612"
    },
    {
      "channel": 0,
      "note": 63,
      "start": 4.9481,
      "duration": 0.1496,
      "velocity": 106,
      "chip": "ym2612"
    },
    {
      "channel": 1,
      "note": 68,
      "start": 4.9486,
      "duration": 0.2996,
      "velocity": 107,
      "chip": "ym2612"
    },
    {
      "channel": 3,
      "note": 75,
      "start": 4.9493,
      "duration": 0.2996,
      "velocity": 102,
      "chip": "ym2612"
    },
    {
      "channel": 4,
      "note": 70,
      "start": 4.9498,
      "duration": 0.2996,
      "velocity": 102,
      "chip": "ym2612"
    },
    {
      "channel": 5,
      "note": 80,
      "start": 4.9525,
      "duration": 0.4478,
      "velocity": 127,
      "chip": "ym2612"
    },
    {
      "channel": 0,
      "note": 51,
      "start": 5.0981,
      "duration": 0.1496,
      "velocity": 106,
      "chip": "ym2612"
    },
    {
      "channel": 2,
      "note": 71,
      "start": 5.1316,
      "duration": 0.1496,
      "velocity": 107,
      "chip": "ym2612"
    },
    {
      "channel": 0,
      "note": 63,
      "start": 5.2481,
      "duration": 0.1496,
      "velocity": 106,
      "chip": "ym2612"
    },
    {
      "channel": 1,
      "note": 68,
      "start": 5.2486,
      "duration": 0.1501,
      "velocity": 107,
      "chip": "ym2612"
    },
    {
      "channel": 3,
      "note": 75,
      "start": 5.2493,
      "duration": 0.1497,
      "velocity": 102,
      "chip": "ym2612"
    },
    {
      "channel": 4,
      "note": 70,
      "start": 5.2498,
      "duration": 0.1498,
      "velocity": 102,
      "chip": "ym2612"
    },
    {
      "channel": 2,
      "note": 68,
      "start": 5.2816,
      "duration": 0.2996,
      "velocity": 107,
      "chip": "ym2612"
    },
    {
      "channel": 0,
      "note": 56,
      "start": 5.3982,
      "duration": 0.2995,
      "velocity": 106,
      "chip": "ym2612"
    },
    {
      "channel": 1,
      "note": 68,
      "start": 5.3987,
      "duration": 1.7996,
      "velocity": 107,
      "chip": "ym2612"
    },
    {
      "channel": 3,
      "note": 68,
      "start": 5.3995,
      "duration": 0.299,
      "velocity": 102,
      "chip": "ym2612"
    },
    {
      "channel": 4,
      "note": 63,
      "start": 5.4001,
      "duration": 0.2989,
      "velocity": 102,
      "chip": "ym2612"
    },
    {
      "channel": 5,
      "note": 20,
      "start": 5.4031,
      "duration": 0.2965,
      "velocity": 127,
      "chip": "ym2612"
    },
    {
      "channel": 2,
      "note": 68,
      "start": 5.5816,
      "duration": 0.15,
      "velocity": 107,
      "chip": "ym2612"
    },
    {
      "channel": 0,
      "note": 56,
      "start": 5.698,
      "duration": 0.1497,
      "velocity": 106,
      "chip": "ym2612"
    },
    {
      "channel": 3,
      "note": 68,
      "start": 5.6989,
      "duration": 0.1496,
      "velocity": 102,
      "chip": "ym2612"
    },
    {
      "channel": 4,
      "note": 63,
      "start": 5.6994,
      "duration": 0.1493,
      "velocity": 102,
      "chip": "ym2612"
    },
    {
      "channel": 5,
      "note": 20,
      "start": 5.6999,
      "duration": 0.149,
      "velocity": 127,
      "chip": "ym2612"
    },
    {
      "channel": 2,
      "note": 68,
      "start": 5.7316,
      "duration": 1.7996,
      "velocity": 107,
      "chip": "ym2612"
    },
    {
      "channel": 0,
      "note": 56,
      "start": 5.848,
      "duration": 0.1497,
      "velocity": 106,
      "chip": "ym2612"
    },
    {
      "channel": 5,
      "note": 80,
      "start": 5.8515,
      "duration": 0.1477,
      "velocity": 127,
      "chip": "ym2612"
    },
    {
      "channel": 0,
      "note": 63,
      "start": 5.998,
      "duration": 0.1497,
      "velocity": 106,
      "chip": "ym2612"
    },
    {
      "channel": 5,
      "note": 20,
      "start": 6.0018,
      "duration": 0.2973,
      "velocity": 127,
      "chip": "ym2612"
    },
    {
      "channel": 0,
      "note": 68,
      "start": 6.1481,
      "duration": 0.1496,
      "velocity": 106,
      "chip": "ym2612"
    },
    {
      "channel": 0,
      "note": 56,
      "start": 6.2981,
      "duration": 0.1496,
      "velocity": 106,
      "chip": "ym2612"
    },
    {
      "channel": 5,
      "note": 32,
      "start": 6.3016,
      "duration": 0.148,
      "velocity": 69,
      "chip": "ym2612"
    },
    {
      "channel": 0,
      "note": 68,
      "start": 6.4481,
      "duration": 0.1496,
      "velocity": 106,
      "chip": "ym2612"
    },
    {
      "channel": 3,
      "note": 68,
      "start": 6.449,
      "duration": 0.1496,
      "velocity": 102,
      "chip": "ym2612"
    },
    {
      "channel": 4,
      "note": 63,
      "start": 6.4495,
      "duration": 0.1493,
      "velocity": 102,
      "chip": "ym2612"
    },
    {
      "channel": 5,
      "note": 20,
      "start": 6.4523,
      "duration": 0.1466,
      "velocity": 127,
      "chip": "ym2612"
    },
    {
      "channel": 0,
      "note": 56,
      "start": 6.5981,
      "duration": 0.1496,
      "velocity": 106,
      "chip": "ym2612"
    },
    {
      "channel": 5,
      "note": 20,
      "start": 6.5993,
      "duration": 0.1503,
      "velocity": 127,
      "chip": "ym2612"
    },
    {
      "channel": 0,
      "note": 68,
      "start": 6.7481,
      "duration": 0.1496,
      "velocity": 106,
      "chip": "ym2612"
    },
    {
      "channel": 3,
      "note": 68,
      "start": 6.749,
      "duration": 0.2995,
      "velocity": 102,
      "chip": "ym2612"
    },
    {
      "channel": 4,
      "note": 63,
      "start": 6.7495,
      "duration": 0.2996,
      "velocity": 102,
      "chip": "ym2612"
    },
    {
      "channel": 5,
      "note": 80,
      "start": 6.7522,
      "duration": 0.4482,
      "velocity": 127,
      "chip": "ym2612"
    },
    {
      "channel": 0,
      "note": 54,
      "start": 6.8981,
      "duration": 0.1496,
      "velocity": 106,
      "chip": "ym2612"
    },
    {
      "channel": 0,
      "note": 55,
      "start": 7.048,
      "duration": 0.1497,
      "velocity": 106,
      "chip": "ym2612"
    },
    {
      "channel": 3,
      "note": 68,
      "start": 7.0489,
      "duration": 0.1502,
      "velocity": 102,
      "chip": "ym2612"
    },
    {
      "channel": 4,
      "note": 63,
      "start": 7.0494,
      "duration": 0.1503,
      "velocity": 102,
      "chip": "ym2612"
    },
    {
      "channel": 0,
      "note": 56,
      "start": 7.1982,
      "duration": 0.2995,
      "velocity": 106,
      "chip": "ym2612"
    },
    {
      "channel": 1,
      "note": 75,
      "start": 7.1988,
      "duration": 0.2994,
      "velocity": 107,
      "chip": "ym2612"
    },
    {
      "channel": 3,
      "note": 75,
      "start": 7.1996,
      "duration": 0.2993,
      "velocity": 102,
      "chip": "ym2612"
    },
    {
      "channel": 4,
      "note": 71,
      "start": 7.2002,
      "duration": 0.2991,
      "velocity": 102,
      "chip": "ym2612"
    },
    {
      "channel": 5,
      "note": 20,
      "start": 7.2032,
      "duration": 0.2968,
      "velocity": 127,
      "chip": "ym2612"
    },
    {
      "channel": 0,
      "note": 56,
      "start": 7.498,
      "duration": 0.1497,
      "velocity": 106,
      "chip": "ym2612"
    },
    {
      "channel": 1,
      "note": 78,
      "start": 7.4985,
      "duration": 0.1496,
      "velocity": 107,
      "chip": "ym2612"
    },
    {
      "channel": 3,
      "note": 75,
      "start": 7.4992,
      "duration": 0.1493,
      "velocity": 102,
      "chip": "ym2612"
    },
    {
      "channel": 4,
      "note": 71,
      "start": 7.4998,
      "duration": 0.149,
      "velocity": 102,
      "chip": "ym2612"
    },
    {
      "channel": 5,
      "note": 20,
      "start": 7.5003,
      "duration": 0.1485,
      "velocity": 127,
      "chip": "ym2612"
    },
    {
      "channel": 2,
      "note": 75,
      "start": 7.5317,
      "duration": 0.2996,
      "velocity": 107,
      "chip": "ym2612"
    },
    {
      "channel": 0,
      "note": 56,
      "start": 7.648,
      "duration": 0.1497,
      "velocity": 106,
      "chip": "ym2612"
    },
    {
      "channel": 5,
      "note": 80,
      "start": 7.6515,
      "duration": 0.1478,
      "velocity": 127,
      "chip": "ym2612"
    },
    {
      "channel": 0,
      "note": 68,
      "start": 7.7981,
      "duration": 0.1496,
      "velocity": 106,
      "chip": "ym2612"
    },
    {
      "channel": 5,
      "note": 20,
      "start": 7.8019,
      "duration": 0.2973,
      "velocity": 127,
      "chip": "ym2612"
    },
    {
      "channel": 2,
      "note": 78,
      "start": 7.8317,
      "duration": 0.1497,
      "velocity": 107,
      "chip": "ym2612"
    },
    {
      "channel": 0,
      "note": 56,
      "start": 7.9481,
      "duration": 0.1496,
      "velocity": 106,
      "chip": "ym2612"
    },
    {
      "channel": 0,
      "note": 56,
      "start": 8.098,
      "duration": 0.1497,
      "velocity": 106,
      "chip": "ym2612"
    },
    {
      "channel": 5,
      "note": 32,
      "start": 8.1017,
      "duration": 0.148,
      "velocity": 69,
      "chip": "ym2612"
    },
    {
      "channel": 0,
      "note": 68,
      "start": 8.2481,
      "duration": 0.1496,
      "velocity": 106,
      "chip": "ym2612"
    },
    {
      "channel": 3,
      "note": 75,
      "start": 8.249,
      "duration": 0.1499,
      "velocity": 102,
      "chip": "ym2612"
    },
    {
      "channel": 4,
      "note": 71,
      "start": 8.2495,
      "duration": 0.1496,
      "velocity": 102,
      "chip": "ym2612"
    },
    {
      "channel": 5,
      "note": 20,
      "start": 8.2524,
      "duration": 0.1469,
      "velocity": 127,
      "chip": "ym2612"
    },
    {
      "channel": 0,
      "note": 56,
      "start": 8.3981,
      "duration": 0.1496,
      "velocity": 106,
      "chip": "ym2612"
    },
    {
      "channel": 1,
      "note": 75,
      "start": 8.3986,
      "duration": 0.1496,
      "velocity": 107,
      "chip": "ym2612"
    },
    {
      "channel": 5,
      "note": 20,
      "start": 8.3997,
      "duration": 0.1503,
      "velocity": 127,
      "chip": "ym2612"
    },
    {
      "channel": 0,
      "note": 68,
      "start": 8.5481,
      "duration": 0.1496,
      "velocity": 106,
      "chip": "ym2612"
    },
    {
      "channel": 1,
      "note": 78,
      "start": 8.5486,
      "duration": 0.2996,
      "velocity": 107,
      "chip": "ym2612"
    },
    {
      "channel": 3,
      "note": 75,
      "start": 8.5494,
      "duration": 0.2995,
      "velocity": 102,
      "chip": "ym2612"
    },
    {
      "channel": 4,
      "note": 71,
      "start": 8.5499,
      "duration": 0.2996,
      "velocity": 102,
      "chip": "ym2612"
    },
    {
      "channel": 5,
      "note": 80,
      "start": 8.5526,
      "duration": 0.4477,
      "velocity": 127,
      "chip": "ym2612"
    },
    {
      "channel": 0,
      "note": 56,
      "start": 8.6981,
      "duration": 0.1496,
      "velocity": 106,
      "chip": "ym2612"
    },
    {
      "channel": 2,
      "note": 75,
      "start": 8.7316,
      "duration": 0.1496,
      "velocity": 107,
      "chip": "ym2612"
    },
    {
      "channel": 0,
      "note": 68,
      "start": 8.8481,
      "duration": 0.1496,
      "velocity": 106,
      "chip": "ym2612"
    },
    {
      "channel": 1,
      "note": 75,
      "start": 8.8486,
      "duration": 0.1497,
      "velocity": 107,
      "chip": "ym2612"
    },
    {
      "channel": 3,
      "note": 75,
      "start": 8.8493,
      "duration": 0.1498,
      "velocity": 102,
      "chip": "ym2612"
    },
    {
      "channel": 4,
      "note": 71,
      "start": 8.8498,
      "duration": 0.1499,
      "velocity": 102,
      "chip": "ym2612"
    },
    {
      "channel": 2,
      "note": 78,
      "start": 8.8816,
      "duration": 0.2996,
      "velocity": 107,
      "chip": "ym2612"
    },
    {
      "channel": 0,
      "note": 59,
      "start": 8.9982,
      "duration": 0.2995,
      "velocity": 106,
      "chip": "ym2612"
    },
    {
      "channel": 1,
      "note": 80,
      "start": 8.9988,
      "duration": 0.2994,
      "velocity": 107,
      "chip": "ym2612"
    },
    {
      "channel": 3,
      "note": 78,
      "start": 8.9995,
      "duration": 0.2994,
      "velocity": 102,
      "chip": "ym2612"
    },
    {
      "channel": 4,
      "note": 75,
      "start": 9.0002,
      "duration": 0.2993,
      "velocity": 102,
      "chip": "ym2612"
    },
    {
      "channel": 5,
      "note": 20,
      "start": 9.0031,
      "duration": 0.2968,
      "velocity": 127,
      "chip": "ym2612"
    },
    {
      "channel": 2,
      "note": 75,
      "start": 9.1816,
      "duration": 0.1496,
      "velocity": 107,
      "chip": "ym2612"
    },
    {
      "channel": 0,
      "note": 59,
      "start": 9.298,
      "duration": 0.1497,
      "velocity": 106,
      "chip": "ym2612"
    },
    {
      "channel": 1,
      "note": 75,
      "start": 9.2986,
      "duration": 0.1496,
      "velocity": 107,
      "chip": "ym2612"
    },
    {
      "channel": 3,
      "note": 78,
      "start": 9.2993,
      "duration": 0.1495,
      "velocity": 102,
      "chip": "ym2612"
    },
    {
      "channel": 4,
      "note": 75,
      "start": 9.2998,
      "duration": 0.1492,
      "velocity": 102,
      "chip": "ym2612"
    },
    {
      "channel": 5,
      "note": 20,
      "start": 9.3003,
      "duration": 0.1489,
      "velocity": 127,
      "chip": "ym2612"
    },
    {
      "channel": 2,
      "note": 80,
      "start": 9.3317,
      "duration": 0.2995,
      "velocity": 107,
      "chip": "ym2612"
    },
    {
      "channel": 0,
      "note": 59,
      "start": 9.448,
      "duration": 0.1497,
      "velocity": 106,
      "chip": "ym2612"
    },
    {
      "channel": 1,
      "note": 78,
      "start": 9.4485,
      "duration": 0.2997,
      "velocity": 107,
      "chip": "ym2612"
    },
    {
      "channel": 5,
      "note": 80,
      "start": 9.4518,
      "duration": 0.1473,
      "velocity": 127,
      "chip": "ym2612"
    },
    {
      "channel": 0,
      "note": 71,
      "start": 9.5981,
      "duration": 0.1496,
      "velocity": 106,
      "chip": "ym2612"
    },
    {
      "channel": 5,
      "note": 20,
      "start": 9.6018,
      "duration": 0.2971,
      "velocity": 127,
      "chip": "ym2612"
    },
    {
      "channel": 2,
      "note": 75,
      "start": 9.6316,
      "duration": 0.1496,
      "velocity": 107,
      "chip": "ym2612"
    },
    {
      "channel": 0,
      "note": 59,
      "start": 9.7481,
      "duration": 0.1496,
      "velocity": 106,
      "chip": "ym2612"
    },
    {
      "channel": 1,
      "note": 75,
      "start": 9.7486,
      "duration": 0.1496,
      "velocity": 107,
      "chip": "ym2612"
    },
    {
      "channel": 2,
      "note": 78,
      "start": 9.7816,
      "duration": 0.2997,
      "velocity": 107,
      "chip": "ym2612"
    },
    {
      "channel": 0,
      "note": 59,
      "start": 9.898,
      "duration": 0.1497,
      "velocity": 106,
      "chip": "ym2612"
    },
    {
      "channel": 5,
      "note": 32,
      "start": 9.9015,
      "duration": 0.1482,
      "velocity": 69,
      "chip": "ym2612"
    },
    {
      "channel": 0,
      "note": 71,
      "start": 10.0481,
      "duration": 0.1496,
      "velocity": 106,
      "chip": "ym2612"
    },
    {
      "channel": 3,
      "note": 78,
      "start": 10.049,
      "duration": 0.1499,
      "velocity": 102,
      "chip": "ym2612"
    },
    {
      "channel": 4,
      "note": 75,
      "start": 10.0495,
      "duration": 0.1495,
      "velocity": 102,
      "chip": "ym2612"
    },
    {
      "channel": 5,
      "note": 20,
      "start": 10.0524,
      "duration": 0.1469,
      "velocity": 127,
      "chip": "ym2612"
    },
    {
      "channel": 2,
      "note": 75,
      "start": 10.0817,
      "duration": 0.1495,
      "velocity": 107,
      "chip": "ym2612"
    },
    {
      "channel": 0,
      "note": 59,
      "start": 10.1981,
      "duration": 0.1496,
      "velocity": 106,
      "chip": "ym2612"
    },
    {
      "channel": 1,
      "note": 75,
      "start": 10.1986,
      "duration": 0.1496,
      "velocity": 107,
      "chip": "ym2612"
    },
    {
      "channel": 5,
      "note": 20,
      "start": 10.1996,
      "duration": 0.1504,
      "velocity": 127,
      "chip": "ym2612"
    },
    {
      "channel": 0,
      "note": 71,
      "start": 10.3481,
      "duration": 0.1496,
      "velocity": 106,
      "chip": "ym2612"
    },
    {
      "channel": 1,
      "note": 73,
      "start": 10.3486,
      "duration": 0.2996,
      "velocity": 107,
      "chip": "ym2612"
    },
    {
      "channel": 3,
      "note": 78,
      "start": 10.3494,
      "duration": 0.2995,
      "velocity": 102,
      "chip": "ym2612"
    },
    {
      "channel": 4,
      "note": 75,
      "start": 10.3499,
      "duration": 0.2996,
      "velocity": 102,
      "chip": "ym2612"
    },
    {
      "channel": 5,
      "note": 80,
      "start": 10.3525,
      "duration": 0.4478,
      "velocity": 127,
      "chip": "ym2612"
    },
    {
      "channel": 0,
      "note": 59,
      "start": 10.4981,
      "duration": 0.1496,
      "velocity": 106,
      "chip": "ym2612"
    },
    {
      "channel": 2,
      "note": 75,
      "start": 10.5316,
      "duration": 0.1496,
      "velocity": 107,
      "chip": "ym2612"
    },
    {
      "channel": 0,
      "note": 71,
      "start": 10.6481,
      "duration": 0.1496,
      "velocity": 106,
      "chip": "ym2612"
    },
    {
      "channel": 1,
      "note": 71,
      "start": 10.6486,
      "duration": 0.1497,
      "velocity": 107,
      "chip": "ym2612"
    },
    {
      "channel": 3,
      "note": 78,
      "start": 10.6493,
      "duration": 0.1498,
      "velocity": 102,
      "chip": "ym2612"
    },
    {
      "channel": 4,
      "note": 75,
      "start": 10.6498,
      "duration": 0.1499,
      "velocity": 102,
      "chip": "ym2612"
    },
    {
      "channel": 2,
      "note": 73,
      "start": 10.6816,
      "duration": 0.2996,
      "velocity": 107,
      "chip": "ym2612"
    },
    {
      "channel": 0,
      "note": 49,
      "start": 10.7982,
      "duration": 0.2995,
      "velocity": 106,
      "chip": "ym2612"
    },
    {
      "channel": 1,
      "note": 73,
      "start": 10.7988,
      "duration": 0.2994,
      "velocity": 107,
      "chip": "ym2612"
    },
    {
      "channel": 3,
      "note": 73,
      "start": 10.7995,
      "duration": 0.299,
      "velocity": 102,
      "chip": "ym2612"
    },
    {
      "channel": 4,
      "note": 68,
      "start": 10.8002,
      "duration": 0.2989,
      "velocity": 102,
      "chip": "ym2612"
    },
    {
      "channel": 5,
      "note": 20,
      "start": 10.8031,
      "duration": 0.2964,
      "velocity": 127,
      "chip": "ym2612"
    },
    {
      "channel": 2,
      "note": 71,
      "start": 10.9816,
      "duration": 0.1498,
      "velocity": 107,
      "chip": "ym2612"
    },
    {
      "channel": 0,
      "note": 49,
      "start": 11.098,
      "duration": 0.1497,
      "velocity": 106,
      "chip": "ym2612"
    },
    {
      "channel": 3,
      "note": 73,
      "start": 11.0989,
      "duration": 0.1499,
      "velocity": 102,
      "chip": "ym2612"
    },
    {
      "channel": 4,
      "note": 68,
      "start": 11.0994,
      "duration": 0.1496,
      "velocity": 102,
      "chip": "ym2612"
    },
    {
      "channel": 5,
      "note": 20,
      "start": 11.0999,
      "duration": 0.1493,
      "velocity": 127,
      "chip": "ym2612"
    },
    {
      "channel": 2,
      "note": 73,
      "start": 11.1318,
      "duration": 0.2994,
      "velocity": 107,
      "chip": "ym2612"
    },
    {
      "channel": 0,
      "note": 49,
      "start": 11.248,
      "duration": 0.1497,
      "velocity": 106,
      "chip": "ym2612"
    },
    {
      "channel": 1,
      "note": 74,
      "start": 11.2485,
      "duration": 0.2997,
      "velocity": 107,
      "chip": "ym2612"
    },
    {
      "channel": 5,
      "note": 80,
      "start": 11.2518,
      "duration": 0.1473,
      "velocity": 127,
      "chip": "ym2612"
    },
    {
      "channel": 0,
      "note": 61,
      "start": 11.3981,
      "duration": 0.1496,
      "velocity": 106,
      "chip": "ym2612"
    },
    {
      "channel": 5,
      "note": 20,
      "start": 11.4018,
      "duration": 0.2975,
      "velocity": 127,
      "chip": "ym2612"
    },
    {
      "channel": 0,
      "note": 49,
      "start": 11.5481,
      "duration": 0.1496,
      "velocity": 106,
      "chip": "ym2612"
    },
    {
      "channel": 2,
      "note": 74,
      "start": 11.5817,
      "duration": 0.2995,
      "velocity": 107,
      "chip": "ym2612"
    },
    {
      "channel": 0,
      "note": 51,
      "start": 11.698,
      "duration": 0.1497,
      "velocity": 106,
      "chip": "ym2612"
    },
    {
      "channel": 1,
      "note": 73,
      "start": 11.6985,
      "duration": 0.2997,
      "velocity": 107,
      "chip": "ym2612"
    },
    {
      "channel": 5,
      "note": 32,
      "start": 11.7018,
      "duration": 0.1478,
      "velocity": 69,
      "chip": "ym2612"
    },
    {
      "channel": 0,
      "note": 63,
      "start": 11.8481,
      "duration": 0.1496,
      "velocity": 106,
      "chip": "ym2612"
    },
    {
      "channel": 3,
      "note": 75,
      "start": 11.849,
      "duration": 0.15,
      "velocity": 102,
      "chip": "ym2612"
    },
    {
      "channel": 4,
      "note": 70,
      "start": 11.8495,
      "duration": 0.1497,
      "velocity": 102,
      "chip": "ym2612"
    },
    {
      "channel": 5,
      "note": 20,
      "start": 11.8523,
      "duration": 0.147,
      "velocity": 127,
      "chip": "ym2612"
    },
    {
      "channel": 0,
      "note": 51,
      "start": 11.9981,
      "duration": 0.1496,
      "velocity": 106,
      "chip": "ym2612"
    },
    {
      "channel": 1,
      "note": 71,
      "start": 11.9986,
      "duration": 0.1496,
      "velocity": 107,
      "chip": "ym2612"
    },
    {
      "channel": 5,
      "note": 20,
      "start": 11.9997,
      "duration": 0.1502,
      "velocity": 127,
      "chip": "ym2612"
    },
    {
      "channel": 2,
      "note": 73,
      "start": 12.0316,
      "duration": 0.2996,
      "velocity": 107,
      "chip": "ym2612"
    },
    {
      "channel": 0,
      "note": 63,
      "start": 12.1481,
      "duration": 0.1496,
      "velocity": 106,
      "chip": "ym2612"
    },
    {
      "channel": 1,
      "note": 68,
      "start": 12.1486,
      "duration": 0.2996,
      "velocity": 107,
      "chip": "ym2612"
    },
    {
      "channel": 3,
      "note": 75,
      "start": 12.1493,
      "duration": 0.2996,
      "velocity": 102,
      "chip": "ym2612"
    },
    {
      "channel": 4,
      "note": 70,
      "start": 12.1498,
      "duration": 0.2996,
      "velocity": 102,
      "chip": "ym2612"
    },
    {
      "channel": 5,
      "note": 80,
      "start": 12.1525,
      "duration": 0.4478,
      "velocity": 127,
      "chip": "ym2612"
    },
    {
      "channel": 0,
      "note": 51,
      "start": 12.2981,
      "duration": 0.1496,
      "velocity": 106,
      "chip": "ym2612"
    },
    {
      "channel": 2,
      "note": 71,
      "start": 12.3316,
      "duration": 0.1496,
      "velocity": 107,
      "chip": "ym2612"
    },
    {
      "channel": 0,
      "note": 63,
      "start": 12.4481,
      "duration": 0.1496,
      "velocity": 106,
      "chip": "ym2612"
    },
    {
      "channel": 1,
      "note": 68,
      "start": 12.4486,
      "duration": 0.1501,
      "velocity": 107,
      "chip": "ym2612"
    },
    {
      "channel": 3,
      "note": 75,
      "start": 12.4493,
      "duration": 0.1497,
      "velocity": 102,
      "chip": "ym2612"
    },
    {
      "channel": 4,
      "note": 70,
      "start": 12.4498,
      "duration": 0.1498,
      "velocity": 102,
      "chip": "ym2612"
    },
    {
      "channel": 2,
      "note": 68,
      "start": 12.4816,
      "duration": 0.2996,
      "velocity": 107,
      "chip": "ym2612"
    },
    {
      "channel": 0,
      "note": 56,
      "start": 12.5982,
      "duration": 0.2995,
      "velocity": 106,
      "chip": "ym2612"
    },
    {
      "channel": 1,
      "note": 68,
      "start": 12.5987,
      "duration": 1.7996,
      "velocity": 107,
      "chip": "ym2612"
    },
    {
      "channel": 3,
      "note": 68,
      "start": 12.5995,
      "duration": 0.299,
      "velocity": 102,
      "chip": "ym2612"
    },
    {
      "channel": 4,
      "note": 63,
      "start": 12.6001,
      "duration": 0.2989,
      "velocity": 102,
      "chip": "ym2612"
    },
    {
      "channel": 5,
      "note": 20,
      "start": 12.6031,
      "duration": 0.2965,
      "velocity": 127,
      "chip": "ym2612"
    },
    {
      "channel": 2,
      "note": 68,
      "start": 12.7816,
      "duration": 0.15,
      "velocity": 107,
      "chip": "ym2612"
    },
    {
      "channel": 0,
      "note": 56,
      "start": 12.898,
      "duration": 0.1497,
      "velocity": 106,
      "chip": "ym2612"
    },
    {
      "channel": 3,
      "note": 68,
      "start": 12.8989,
      "duration": 0.1496,
      "velocity": 102,
      "chip": "ym2612"
    },
    {
      "channel": 4,
      "note": 63,
      "start": 12.8994,
      "duration": 0.1493,
      "velocity": 102,
      "chip": "ym2612"
    },
    {
      "channel": 5,
      "note": 20,
      "start": 12.8999,
      "duration": 0.149,
      "velocity": 127,
      "chip": "ym2612"
    },
    {
      "channel": 2,
      "note": 68,
      "start": 12.9316,
      "duration": 1.7996,
      "velocity": 107,
      "chip": "ym2612"
    },
    {
      "channel": 0,
      "note": 56,
      "start": 13.048,
      "duration": 0.1497,
      "velocity": 106,
      "chip": "ym2612"
    },
    {
      "channel": 5,
      "note": 80,
      "start": 13.0515,
      "duration": 0.1477,
      "velocity": 127,
      "chip": "ym2612"
    },
    {
      "channel": 0,
      "note": 63,
      "start": 13.198,
      "duration": 0.1497,
      "velocity": 106,
      "chip": "ym2612"
    },
    {
      "channel": 5,
      "note": 20,
      "start": 13.2018,
      "duration": 0.2973,
      "velocity": 127,
      "chip": "ym2612"
    },
    {
      "channel": 0,
      "note": 68,
      "start": 13.3481,
      "duration": 0.1496,
      "velocity": 106,
      "chip": "ym2612"
    },
    {
      "channel": 0,
      "note": 56,
      "start": 13.4981,
      "duration": 0.1496,
      "velocity": 106,
      "chip": "ym2612"
    },
    {
      "channel": 5,
      "note": 32,
      "start": 13.5016,
      "duration": 0.148,
      "velocity": 69,
      "chip": "ym2612"
    },
    {
      "channel": 0,
      "note": 68,
      "start": 13.6481,
      "duration": 0.1496,
      "velocity": 106,
      "chip": "ym2612"
    },
    {
      "channel": 3,
      "note": 68,
      "start": 13.649,
      "duration": 0.1496,
      "velocity": 102,
      "chip": "ym2612"
    },
    {
      "channel": 4,
      "note": 63,
      "start": 13.6495,
      "duration": 0.1493,
      "velocity": 102,
      "chip": "ym2612"
    },
    {
      "channel": 5,
      "note": 20,
      "start": 13.6523,
      "duration": 0.1466,
      "velocity": 127,
      "chip": "ym2612"
    },
    {
      "channel": 0,
      "note": 56,
      "start": 13.7981,
      "duration": 0.1496,
      "velocity": 106,
      "chip": "ym2612"
    },
    {
      "channel": 5,
      "note": 20,
      "start": 13.7993,
      "duration": 0.1503,
      "velocity": 127,
      "chip": "ym2612"
    },
    {
      "channel": 0,
      "note": 68,
      "start": 13.9481,
      "duration": 0.1496,
      "velocity": 106,
      "chip": "ym2612"
    },
    {
      "channel": 3,
      "note": 68,
      "start": 13.949,
      "duration": 0.2995,
      "velocity": 102,
      "chip": "ym2612"
    },
    {
      "channel": 4,
      "note": 63,
      "start": 13.9495,
      "duration": 0.2996,
      "velocity": 102,
      "chip": "ym2612"
    },
    {
      "channel": 5,
      "note": 80,
      "start": 13.9522,
      "duration": 0.4474,
      "velocity": 127,
      "chip": "ym2612"
    },
    {
      "channel": 0,
      "note": 54,
      "start": 14.0981,
      "duration": 0.1496,
      "velocity": 106,
      "chip": "ym2612"
    },
    {
      "channel": 0,
      "note": 55,
      "start": 14.248,
      "duration": 0.1497,
      "velocity": 106,
      "chip": "ym2612"
    },
    {
      "channel": 3,
      "note": 68,
      "start": 14.2489,
      "duration": 0.1502,
      "velocity": 102,
      "chip": "ym2612"
    },
    {
      "channel": 4,
      "note": 63,
      "start": 14.2494,
      "duration": 0.1499,
      "velocity": 102,
      "chip": "ym2612"
    },
    {
      "channel": 0,
      "note": 52,
      "start": 14.3982,
      "duration": 0.2995,
      "velocity": 106,
      "chip": "ym2612"
    },
    {
      "channel": 1,
      "note": 68,
      "start": 14.3988,
      "duration": 0.5993,
      "velocity": 107,
      "chip": "ym2612"
    },
    {
      "channel": 5,
      "note": 20,
      "start": 14.4024,
      "duration": 0.2968,
      "velocity": 127,
      "chip": "ym2612"
    },
    {
      "channel": 0,
      "note": 52,
      "start": 14.698,
      "duration": 0.1497,
      "velocity": 106,
      "chip": "ym2612"
    },
    {
      "channel": 5,
      "note": 20,
      "start": 14.6995,
      "duration": 0.1493,
      "velocity": 127,
      "chip": "ym2612"
    },
    {
      "channel": 2,
      "note": 68,
      "start": 14.7317,
      "duration": 0.5998,
      "velocity": 107,
      "chip": "ym2612"
    },
    {
      "channel": 5,
      "note": 80,
      "start": 14.8513,
      "duration": 0.1476,
      "velocity": 127,
      "chip": "ym2612"
    },
    {
      "channel": 1,
      "note": 68,
      "start": 14.9981,
      "duration": 0.1498,
      "velocity": 107,
      "chip": "ym2612"
    },
    {
      "channel": 5,
      "note": 32,
      "start": 15.0015,
      "duration": 0.1475,
      "velocity": 69,
      "chip": "ym2612"
    },
    {
      "channel": 1,
      "note": 71,
      "start": 15.1482,
      "duration": 0.5997,
      "velocity": 107,
      "chip": "ym2612"
    },
    {
      "channel": 5,
      "note": 32,
      "start": 15.1494,
      "duration": 0.1497,
      "velocity": 69,
      "chip": "ym2612"
    },
    {
      "channel": 0,
      "note": 52,
      "start": 15.298,
      "duration": 0.2997,
      "velocity": 106,
      "chip": "ym2612"
    },
    {
      "channel": 5,
      "note": 20,
      "start": 15.3018,
      "duration": 0.2973,
      "velocity": 127,
      "chip": "ym2612"
    },
    {
      "channel": 2,
      "note": 68,
      "start": 15.3315,
      "duration": 0.1497,
      "velocity": 107,
      "chip": "ym2612"
    },
    {
      "channel": 2,
      "note": 71,
      "start": 15.4816,
      "duration": 0.5998,
      "velocity": 107,
      "chip": "ym2612"
    },
    {
      "channel": 0,
      "note": 52,
      "start": 15.598,
      "duration": 0.1497,
      "velocity": 106,
      "chip": "ym2612"
    },
    {
      "channel": 5,
      "note": 20,
      "start": 15.5995,
      "duration": 0.1496,
      "velocity": 127,
      "chip": "ym2612"
    },
    {
      "channel": 1,
      "note": 73,
      "start": 15.7482,
      "duration": 0.4501,
      "velocity": 107,
      "chip": "ym2612"
    },
    {
      "channel": 5,
      "note": 80,
      "start": 15.7517,
      "duration": 0.1471,
      "velocity": 127,
      "chip": "ym2612"
    },
    {
      "channel": 5,
      "note": 32,
      "start": 15.9013,
      "duration": 0.1475,
      "velocity": 69,
      "chip": "ym2612"
    },
    {
      "channel": 5,
      "note": 32,
      "start": 16.0491,
      "duration": 0.1504,
      "velocity": 69,
      "chip": "ym2612"
    },
    {
      "channel": 2,
      "note": 73,
      "start": 16.0817,
      "duration": 0.4497,
      "velocity": 107,
      "chip": "ym2612"
    },
    {
      "channel": 0,
      "note": 51,
      "start": 16.1982,
      "duration": 0.2995,
      "velocity": 106,
      "chip": "ym2612"
    },
    {
      "channel": 1,
      "note": 74,
      "start": 16.1988,
      "duration": 0.2994,
      "velocity": 107,
      "chip": "ym2612"
    },
    {
      "channel": 5,
      "note": 20,
      "start": 16.2024,
      "duration": 0.2968,
      "velocity": 127,
      "chip": "ym2612"
    },
    {
      "channel": 0,
      "note": 51,
      "start": 16.498,
      "duration": 0.1497,
      "velocity": 106,
      "chip": "ym2612"
    },
    {
      "channel": 5,
      "note": 20,
      "start": 16.4995,
      "duration": 0.1496,
      "velocity": 127,
      "chip": "ym2612"
    },
    {
      "channel": 2,
      "note": 74,
      "start": 16.5318,
      "duration": 0.2995,
      "velocity": 107,
      "chip": "ym2612"
    },
    {
      "channel": 1,
      "note": 73,
      "start": 16.6482,
      "duration": 0.2996,
      "velocity": 107,
      "chip": "ym2612"
    },
    {
      "channel": 5,
      "note": 80,
      "start": 16.6517,
      "duration": 0.1471,
      "velocity": 127,
      "chip": "ym2612"
    },
    {
      "channel": 5,
      "note": 32,
      "start": 16.8013,
      "duration": 0.1475,
      "velocity": 69,
      "chip": "ym2612"
    },
    {
      "channel": 5,
      "note": 32,
      "start": 16.9492,
      "duration": 0.1503,
      "velocity": 69,
      "chip": "ym2612"
    },
    {
      "channel": 2,
      "note": 73,
      "start": 16.9818,
      "duration": 0.2994,
      "velocity": 107,
      "chip": "ym2612"
    },
    {
      "channel": 0,
      "note": 51,
      "start": 17.098,
      "duration": 0.2997,
      "velocity": 106,
      "chip": "ym2612"
    },
    {
      "channel": 1,
      "note": 75,
      "start": 17.0986,
      "duration": 0.2996,
      "velocity": 107,
      "chip": "ym2612"
    },
    {
      "channel": 5,
      "note": 20,
      "start": 17.1022,
      "duration": 0.2973,
      "velocity": 127,
      "chip": "ym2612"
    },
    {
      "channel": 0,
      "note": 51,
      "start": 17.398,
      "duration": 0.1497,
      "velocity": 106,
      "chip": "ym2612"
    },
    {
      "channel": 1,
      "note": 78,
      "start": 17.3985,
      "duration": 0.2993,
      "velocity": 107,
      "chip": "ym2612"
    },
    {
      "channel": 5,
      "note": 20,
      "start": 17.3999,
      "duration": 0.1489,
      "velocity": 127,
      "chip": "ym2612"
    },
    {
      "channel": 2,
      "note": 75,
      "start": 17.4316,
      "duration": 0.2998,
      "velocity": 107,
      "chip": "ym2612"
    },
    {
      "channel": 5,
      "note": 80,
      "start": 17.5513,
      "duration": 0.1477,
      "velocity": 127,
      "chip": "ym2612"
    },
    {
      "channel": 1,
      "note": 79,
      "start": 17.6982,
      "duration": 0.3001,
      "velocity": 107,
      "chip": "ym2612"
    },
    {
      "channel": 5,
      "note": 32,
      "start": 17.7016,
      "duration": 0.1472,
      "velocity": 69,
      "chip": "ym2612"
    },
    {
      "channel": 2,
      "note": 78,
      "start": 17.7317,
      "duration": 0.2995,
      "velocity": 107,
      "chip": "ym2612"
    },
    {
      "channel": 5,
      "note": 32,
      "start": 17.8492,
      "duration": 0.1504,
      "velocity": 69,
      "chip": "ym2612"
    },
    {
      "channel": 0,
      "note": 56,
      "start": 17.9982,
      "duration": 0.2995,
      "velocity": 106,
      "chip": "ym2612"
    },
    {
      "channel": 1,
      "note": 80,
      "start": 17.9988,
      "duration": 0.2994,
      "velocity": 107,
      "chip": "ym2612"
    },
    {
      "channel": 5,
      "note": 20,
      "start": 18.0024,
      "duration": 0.2971,
      "velocity": 127,
      "chip": "ym2612"
    },
    {
      "channel": 2,
      "note": 79,
      "start": 18.0316,
      "duration": 0.2996,
      "velocity": 107,
      "chip": "ym2612"
    },
    {
      "channel": 0,
      "note": 56,
      "start": 18.298,
      "duration": 0.1497,
      "velocity": 106,
      "chip": "ym2612"
    },
    {
      "channel": 1,
      "note": 75,
      "start": 18.2986,
      "duration": 0.2996,
      "velocity": 107,
      "chip": "ym2612"
    },
    {
      "channel": 5,
      "note": 20,
      "start": 18.2998,
      "duration": 0.1493,
      "velocity": 127,
      "chip": "ym2612"
    },
    {
      "channel": 2,
      "note": 80,
      "start": 18.3317,
      "duration": 0.2995,
      "velocity": 107,
      "chip": "ym2612"
    },
    {
      "channel": 0,
      "note": 56,
      "start": 18.448,
      "duration": 0.1497,
      "velocity": 106,
      "chip": "ym2612"
    },
    {
      "channel": 5,
      "note": 80,
      "start": 18.4517,
      "duration": 0.1478,
      "velocity": 127,
      "chip": "ym2612"
    },
    {
      "channel": 0,
      "note": 63,
      "start": 18.598,
      "duration": 0.1497,
      "velocity": 106,
      "chip": "ym2612"
    },
    {
      "channel": 1,
      "note": 80,
      "start": 18.5986,
      "duration": 0.2996,
      "velocity": 107,
      "chip": "ym2612"
    },
    {
      "channel": 5,
      "note": 20,
      "start": 18.6022,
      "duration": 0.2973,
      "velocity": 127,
      "chip": "ym2612"
    },
    {
      "channel": 2,
      "note": 75,
      "start": 18.6316,
      "duration": 0.2996,
      "velocity": 107,
      "chip": "ym2612"
    },
    {
      "channel": 0,
      "note": 68,
      "start": 18.7481,
      "duration": 0.1496,
      "velocity": 106,
      "chip": "ym2612"
    },
    {
      "channel": 0,
      "note": 56,
      "start": 18.8981,
      "duration": 0.1496,
      "velocity": 106,
      "chip": "ym2612"
    },
    {
      "channel": 1,
      "note": 79,
      "start": 18.8986,
      "duration": 0.2996,
      "velocity": 107,
      "chip": "ym2612"
    },
    {
      "channel": 5,
      "note": 32,
      "start": 18.902,
      "duration": 0.1471,
      "velocity": 69,
      "chip": "ym2612"
    },
    {
      "channel": 2,
      "note": 80,
      "start": 18.9316,
      "duration": 0.2996,
      "velocity": 107,
      "chip": "ym2612"
    },
    {
      "channel": 0,
      "note": 68,
      "start": 19.0481,
      "duration": 0.1496,
      "velocity": 106,
      "chip": "ym2612"
    },
    {
      "channel": 5,
      "note": 20,
      "start": 19.0518,
      "duration": 0.1476,
      "velocity": 127,
      "chip": "ym2612"
    },
    {
      "channel": 0,
      "note": 56,
      "start": 19.1981,
      "duration": 0.1496,
      "velocity": 106,
      "chip": "ym2612"
    },
    {
      "channel": 1,
      "note": 75,
      "start": 19.1986,
      "duration": 0.2996,
      "velocity": 107,
      "chip": "ym2612"
    },
    {
      "channel": 5,
      "note": 20,
      "start": 19.1999,
      "duration": 0.1493,
      "velocity": 127,
      "chip": "ym2612"
    },
    {
      "channel": 2,
      "note": 79,
      "start": 19.2316,
      "duration": 0.2996,
      "velocity": 107,
      "chip": "ym2612"
    },
    {
      "channel": 0,
      "note": 68,
      "start": 19.3481,
      "duration": 0.1496,
      "velocity": 106,
      "chip": "ym2612"
    },
    {
      "channel": 5,
      "note": 80,
      "start": 19.3517,
      "duration": 0.4478,
      "velocity": 127,
      "chip": "ym2612"
    },
    {
      "channel": 0,
      "note": 54,
      "start": 19.4981,
      "duration": 0.1496,
      "velocity": 106,
      "chip": "ym2612"
    },
    {
      "channel": 1,
      "note": 79,
      "start": 19.4986,
      "duration": 0.2997,
      "velocity": 107,
      "chip": "ym2612"
    },
    {
      "channel": 2,
      "note": 75,
      "start": 19.5316,
      "duration": 0.2996,
      "velocity": 107,
      "chip": "ym2612"
    },
    {
      "channel": 0,
      "note": 55,
      "start": 19.648,
      "duration": 0.1497,
      "velocity": 106,
      "chip": "ym2612"
    },
    {
      "channel": 0,
      "note": 56,
      "start": 19.7982,
      "duration": 0.2995,
      "velocity": 106,
      "chip": "ym2612"
    },
    {
      "channel": 1,
      "note": 78,
      "start": 19.7987,
      "duration": 0.2994,
      "velocity": 107,
      "chip": "ym2612"
    },
    {
      "channel": 5,
      "note": 20,
      "start": 19.8023,
      "duration": 0.2971,
      "velocity": 127,
      "chip": "ym2612"
    },
    {
      "channel": 2,
      "note": 79,
      "start": 19.8316,
      "duration": 0.2996,
      "velocity": 107,
      "chip": "ym2612"
    },
    {
      "channel": 0,
      "note": 56,
      "start": 20.098,
      "duration": 0.1497,
      "velocity": 106,
      "chip": "ym2612"
    },
    {
      "channel": 1,
      "note": 75,
      "start": 20.0985,
      "duration": 0.2996,
      "velocity": 107,
      "chip": "ym2612"
    },
    {
      "channel": 5,
      "note": 20,
      "start": 20.0998,
      "duration": 0.1493,
      "velocity": 127,
      "chip": "ym2612"
    },
    {
      "channel": 2,
      "note": 78,
      "start": 20.1317,
      "duration": 0.2995,
      "velocity": 107,
      "chip": "ym2612"
    },
    {
      "channel": 0,
      "note": 56,
      "start": 20.248,
      "duration": 0.1497,
      "velocity": 106,
      "chip": "ym2612"
    },
    {
      "channel": 5,
      "note": 80,
      "start": 20.2517,
      "duration": 0.1478,
      "velocity": 127,
      "chip": "ym2612"
    },
    {
      "channel": 0,
      "note": 63,
      "start": 20.398,
      "duration": 0.1497,
      "velocity": 106,
      "chip": "ym2612"
    },
    {
      "channel": 1,
      "note": 78,
      "start": 20.3985,
      "duration": 0.2997,
      "velocity": 107,
      "chip": "ym2612"
    },
    {
      "channel": 5,
      "note": 20,
      "start": 20.4021,
      "duration": 0.2973,
      "velocity": 127,
      "chip": "ym2612"
    },
    {
      "channel": 2,
      "note": 75,
      "start": 20.4316,
      "duration": 0.2996,
      "velocity": 107,
      "chip": "ym2612"
    },
    {
      "channel": 0,
      "note": 68,
      "start": 20.5481,
      "duration": 0.1496,
      "velocity": 106,
      "chip": "ym2612"
    },
    {
      "channel": 0,
      "note": 56,
      "start": 20.6981,
      "duration": 0.1496,
      "velocity": 106,
      "chip": "ym2612"
    },
    {
      "channel": 1,
      "note": 77,
      "start": 20.6986,
      "duration": 0.2996,
      "velocity": 107,
      "chip": "ym2612"
    },
    {
      "channel": 5,
      "note": 32,
      "start": 20.702,
      "duration": 0.1471,
      "velocity": 69,
      "chip": "ym2612"
    },
    {
      "channel": 2,
      "note": 78,
      "start": 20.7316,
      "duration": 0.2996,
      "velocity": 107,
      "chip": "ym2612"
    },
    {
      "channel": 0,
      "note": 68,
      "start": 20.8481,
      "duration": 0.1496,
      "velocity": 106,
      "chip": "ym2612"
    },
    {
      "channel": 5,
      "note": 20,
      "start": 20.8518,
      "duration": 0.1476,
      "velocity": 127,
      "chip": "ym2612"
    },
    {
      "channel": 0,
      "note": 56,
      "start": 20.9981,
      "duration": 0.1496,
      "velocity": 106,
      "chip": "ym2612"
    },
    {
      "channel": 1,
      "note": 73,
      "start": 20.9986,
      "duration": 0.2996,
      "velocity": 107,
      "chip": "ym2612"
    },
    {
      "channel": 5,
      "note": 20,
      "start": 20.9998,
      "duration": 0.1493,
      "velocity": 127,
      "chip": "ym2612"
    },
    {
      "channel": 2,
      "note": 77,
      "start": 21.0316,
      "duration": 0.2996,
      "velocity": 107,
      "chip": "ym2612"
    },
    {
      "channel": 0,
      "note": 68,
      "start": 21.1481,
      "duration": 0.1496,
      "velocity": 106,
      "chip": "ym2612"
    },
    {
      "channel": 5,
      "note": 80,
      "start": 21.1517,
      "duration": 0.4478,
      "velocity": 127,
      "chip": "ym2612"
    },
    {
      "channel": 0,
      "note": 54,
      "start": 21.2981,
      "duration": 0.1496,
      "velocity": 106,
      "chip": "ym2612"
    },
    {
      "channel": 1,
      "note": 77,
      "start": 21.2986,
      "duration": 0.2997,
      "velocity": 107,
      "chip": "ym2612"
    },
    {
      "channel": 2,
      "note": 73,
      "start": 21.3316,
      "duration": 0.2996,
      "velocity": 107,
      "chip": "ym2612"
    },
    {
      "channel": 0,
      "note": 55,
      "start": 21.448,
      "duration": 0.1497,
      "velocity": 106,
      "chip": "ym2612"
    },
    {
      "channel": 0,
      "note": 52,
      "start": 21.5982,
      "duration": 0.2995,
      "velocity": 106,
      "chip": "ym2612"
    },
    {
      "channel": 1,
      "note": 68,
      "start": 21.5988,
      "duration": 0.5993,
      "velocity": 107,
      "chip": "ym2612"
    },
    {
      "channel": 5,
      "note": 20,
      "start": 21.6024,
      "duration": 0.2968,
      "velocity": 127,
      "chip": "ym2612"
    },
    {
      "channel": 2,
      "note": 77,
      "start": 21.6316,
      "duration": 0.2996,
      "velocity": 107,
      "chip": "ym2612"
    },
    {
      "channel": 0,
      "note": 52,
      "start": 21.898,
      "duration": 0.1497,
      "velocity": 106,
      "chip": "ym2612"
    },
    {
      "channel": 5,
      "note": 20,
      "start": 21.8995,
      "duration": 0.1493,
      "velocity": 127,
      "chip": "ym2612"
    },
    {
      "channel": 2,
      "note": 68,
      "start": 21.9317,
      "duration": 0.5998,
      "velocity": 107,
      "chip": "ym2612"
    },
    {
      "channel": 5,
      "note": 80,
      "start": 22.0513,
      "duration": 0.1476,
      "velocity": 127,
      "chip": "ym2612"
    },
    {
      "channel": 1,
      "note": 68,
      "start": 22.1981,
      "duration": 0.1498,
      "velocity": 107,
      "chip": "ym2612"
    },
    {
      "channel": 5,
      "note": 32,
      "start": 22.2015,
      "duration": 0.1475,
      "velocity": 69,
      "chip": "ym2612"
    },
    {
      "channel": 1,
      "note": 71,
      "start": 22.3482,
      "duration": 0.5997,
      "velocity": 107,
      "chip": "ym2612"
    },
    {
      "channel": 5,
      "note": 32,
      "start": 22.3494,
      "duration": 0.1497,
      "velocity": 69,
      "chip": "ym2612"
    },
    {
      "channel": 0,
      "note": 52,
      "start": 22.498,
      "duration": 0.2997,
      "velocity": 106,
      "chip": "ym2612"
    },
    {
      "channel": 5,
      "note": 20,
      "start": 22.5018,
      "duration": 0.2973,
      "velocity": 127,
      "chip": "ym2612"
    },
    {
      "channel": 2,
      "note": 68,
      "start": 22.5315,
      "duration": 0.1497,
      "velocity": 107,
      "chip": "ym2612"
    },
    {
      "channel": 2,
      "note": 71,
      "start": 22.6816,
      "duration": 0.5998,
      "velocity": 107,
      "chip": "ym2612"
    },
    {
      "channel": 0,
      "note": 52,
      "start": 22.798,
      "duration": 0.1497,
      "velocity": 106,
      "chip": "ym2612"
    },
    {
      "channel": 5,
      "note": 20,
      "start": 22.7995,
      "duration": 0.1496,
      "velocity": 127,
      "chip": "ym2612"
    },
    {
      "channel": 1,
      "note": 73,
      "start": 22.9482,
      "duration": 0.4501,
      "velocity": 107,
      "chip": "ym2612"
    },
    {
      "channel": 5,
      "note": 80,
      "start": 22.9517,
      "duration": 0.1471,
      "velocity": 127,
      "chip": "ym2612"
    },
    {
      "channel": 5,
      "note": 32,
      "start": 23.1013,
      "duration": 0.1475,
      "velocity": 69,
      "chip": "ym2612"
    },
    {
      "channel": 5,
      "note": 32,
      "start": 23.2491,
      "duration": 0.1504,
      "velocity": 69,
      "chip": "ym2612"
    },
    {
      "channel": 2,
      "note": 73,
      "start": 23.2817,
      "duration": 0.4497,
      "velocity": 107,
      "chip": "ym2612"
    },
    {
      "channel": 0,
      "note": 51,
      "start": 23.3982,
      "duration": 0.2995,
      "velocity": 106,
      "chip": "ym2612"
    },
    {
      "channel": 1,
      "note": 74,
      "start": 23.3988,
      "duration": 0.2994,
      "velocity": 107,
      "chip": "ym2612"
    },
    {
      "channel": 5,
      "note": 20,
      "start": 23.4024,
      "duration": 0.2968,
      "velocity": 127,
      "chip": "ym2612"
    },
    {
      "channel": 0,
      "note": 51,
      "start": 23.698,
      "duration": 0.1497,
      "velocity": 106,
      "chip": "ym2612"
    },
    {
      "channel": 5,
      "note": 20,
      "start": 23.6995,
      "duration": 0.1496,
      "velocity": 127,
      "chip": "ym2612"
    },
    {
      "channel": 2,
      "note": 74,
      "start": 23.7318,
      "duration": 0.2995,
      "velocity": 107,
      "chip": "ym2612"
    },
    {
      "channel": 1,
      "note": 73,
      "start": 23.8482,
      "duration": 0.2996,
      "velocity": 107,
      "chip": "ym2612"
    },
    {
      "channel": 5,
      "note": 80,
      "start": 23.8517,
      "duration": 0.1471,
      "velocity": 127,
      "chip": "ym2612"
    },
    {
      "channel": 5,
      "note": 32,
      "start": 24.0013,
      "duration": 0.1475,
      "velocity": 69,
      "chip": "ym2612"
    },
    {
      "channel": 5,
      "note": 32,
      "start": 24.1492,
      "duration": 0.1503,
      "velocity": 69,
      "chip": "ym2612"
    },
    {
      "channel": 2,
      "note": 73,
      "start": 24.1818,
      "duration": 0.2994,
      "velocity": 107,
      "chip": "ym2612"
    },
    {
      "channel": 0,
      "note": 51,
      "start": 24.298,
      "duration": 0.2997,
      "velocity": 106,
      "chip": "ym2612"
    },
    {
      "channel": 1,
      "note": 75,
      "start": 24.2986,
      "duration": 0.2996,
      "velocity": 107,
      "chip": "ym2612"
    },
    {
      "channel": 5,
      "note": 20,
      "start": 24.3022,
      "duration": 0.2974,
      "velocity": 127,
      "chip": "ym2612"
    },
    {
      "channel": 0,
      "note": 51,
      "start": 24.598,
      "duration": 0.1497,
      "velocity": 106,
      "chip": "ym2612"
    },
    {
      "channel": 1,
      "note": 78,
      "start": 24.5985,
      "duration": 0.2993,
      "velocity": 107,
      "chip": "ym2612"
    },
    {
      "channel": 5,
      "note": 20,
      "start": 24.5999,
      "duration": 0.1489,
      "velocity": 127,
      "chip": "ym2612"
    },
    {
      "channel": 2,
      "note": 75,
      "start": 24.6316,
      "duration": 0.2998,
      "velocity": 107,
      "chip": "ym2612"
    },
    {
      "channel": 5,
      "note": 80,
      "start": 24.7513,
      "duration": 0.1477,
      "velocity": 127,
      "chip": "ym2612"
    },
    {
      "channel": 1,
      "note": 79,
      "start": 24.8982,
      "duration": 0.3001,
      "velocity": 107,
      "chip": "ym2612"
    },
    {
      "channel": 5,
      "note": 32,
      "start": 24.9016,
      "duration": 0.1471,
      "velocity": 69,
      "chip": "ym2612"
    },
    {
      "channel": 2,
      "note": 78,
      "start": 24.9317,
      "duration": 0.2995,
      "velocity": 107,
      "chip": "ym2612"
    },
    {
      "channel": 5,
      "note": 32,
      "start": 25.0491,
      "duration": 0.1504,
      "velocity": 69,
      "chip": "ym2612"
    },
    {
      "channel": 0,
      "note": 58,
      "start": 25.1982,
      "duration": 0.2995,
      "velocity": 106,
      "chip": "ym2612"
    },
    {
      "channel": 1,
      "note": 80,
      "start": 25.1988,
      "duration": 0.2994,
      "velocity": 107,
      "chip": "ym2612"
    },
    {
      "channel": 5,
      "note": 80,
      "start": 25.2022,
      "duration": 0.0464,
      "velocity": 127,
      "chip": "ym2612"
    },
    {
      "channel": 2,
      "note": 79,
      "start": 25.2316,
      "duration": 0.2996,
      "velocity": 107,
      "chip": "ym2612"
    },
    {
      "channel": 5,
      "note": 80,
      "start": 25.249,
      "duration": 0.0999,
      "velocity": 127,
      "chip": "ym2612"
    },
    {
      "channel": 5,
      "note": 80,
      "start": 25.349,
      "duration": 0.1505,
      "velocity": 127,
      "chip": "ym2612"
    },
    {
      "channel": 0,
      "note": 58,
      "start": 25.498,
      "duration": 0.2997,
      "velocity": 106,
      "chip": "ym2612"
    },
    {
      "channel": 1,
      "note": 80,
      "start": 25.4985,
      "duration": 0.2996,
      "velocity": 107,
      "chip": "ym2612"
    },
    {
      "channel": 5,
      "note": 77,
      "start": 25.4998,
      "duration": 0.2996,
      "velocity": 127,
      "chip": "ym2612"
    },
    {
      "channel": 2,
      "note": 80,
      "start": 25.5317,
      "duration": 0.2995,
      "velocity": 107,
      "chip": "ym2612"
    },
    {
      "channel": 0,
      "note": 58,
      "start": 25.798,
      "duration": 0.2997,
      "velocity": 106,
      "chip": "ym2612"
    },
    {
      "channel": 1,
      "note": 80,
      "start": 25.7985,
      "duration": 0.2996,
      "velocity": 107,
      "chip": "ym2612"
    },
    {
      "channel": 5,
      "note": 72,
      "start": 25.7998,
      "duration": 0.2996,
      "velocity": 127,
      "chip": "ym2612"
    },
    {
      "channel": 2,
      "note": 80,
      "start": 25.8316,
      "duration": 0.2996,
      "velocity": 107,
      "chip": "ym2612"
    },
    {
      "channel": 0,
      "note": 58,
      "start": 26.098,
      "duration": 0.2997,
      "velocity": 106,
      "chip": "ym2612"
    },
    {
      "channel": 1,
      "note": 80,
      "start": 26.0985,
      "duration": 0.2997,
      "velocity": 107,
      "chip": "ym2612"
    },
    {
      "channel": 5,
      "note": 84,
      "start": 26.0999,
      "duration": 0.1488,
      "velocity": 127,
      "chip": "ym2612"
    },
    {
      "channel": 2,
      "note": 80,
      "start": 26.1316,
      "duration": 0.2996,
      "velocity": 107,
      "chip": "ym2612"
    },
    {
      "channel": 5,
      "note": 84,
      "start": 26.249,
      "duration": 0.1504,
      "velocity": 127,
      "chip": "ym2612"
    },
    {
      "channel": 0,
      "note": 53,
      "start": 26.3981,
      "duration": 0.2996,
      "velocity": 106,
      "chip": "ym2612"
    },
    {
      "channel": 1,
      "note": 77,
      "start": 26.3986,
      "duration": 0.2996,
      "velocity": 107,
      "chip": "ym2612"
    },
    {
      "channel": 5,
      "note": 80,
      "start": 26.3999,
      "duration": 0.1488,
      "velocity": 127,
      "chip": "ym2612"
    },
    {
      "channel": 2,
      "note": 80,
      "start": 26.4316,
      "duration": 0.2996,
      "velocity": 107,
      "chip": "ym2612"
    },
    {
      "channel": 5,
      "note": 77,
      "start": 26.549,
      "duration": 0.1504,
      "velocity": 127,
      "chip": "ym2612"
    },
    {
      "channel": 0,
      "note": 58,
      "start": 26.6981,
      "duration": 0.2996,
      "velocity": 106,
      "chip": "ym2612"
    },
    {
      "channel": 1,
      "note": 80,
      "start": 26.6986,
      "duration": 0.2997,
      "velocity": 107,
      "chip": "ym2612"
    },
    {
      "channel": 5,
      "note": 77,
      "start": 26.6999,
      "duration": 0.1488,
      "velocity": 127,
      "chip": "ym2612"
    },
    {
      "channel": 2,
      "note": 77,
      "start": 26.7316,
      "duration": 0.2996,
      "velocity": 107,
      "chip": "ym2612"
    },
    {
      "channel": 5,
      "note": 72,
      "start": 26.849,
      "duration": 0.1505,
      "velocity": 127,
      "chip": "ym2612"
    },
    {
      "channel": 0,
      "note": 51,
      "start": 26.9982,
      "duration": 0.8995,
      "velocity": 106,
      "chip": "ym2612"
    },
    {
      "channel": 1,
      "note": 79,
      "start": 26.9988,
      "duration": 1.8015,
      "velocity": 107,
      "chip": "ym2612"
    },
    {
      "channel": 5,
      "note": 20,
      "start": 27.0023,
      "duration": 0.4464,
      "velocity": 127,
      "chip": "ym2612"
    },
    {
      "channel": 2,
      "note": 80,
      "start": 27.0316,
      "duration": 0.2996,
      "velocity": 107,
      "chip": "ym2612"
    },
    {
      "channel": 2,
      "note": 79,
      "start": 27.3317,
      "duration": 1.7995,
      "velocity": 107,
      "chip": "ym2612"
    },
    {
      "channel": 5,
      "note": 20,
      "start": 27.449,
      "duration": 0.4501,
      "velocity": 127,
      "chip": "ym2612"
    },
    {
      "channel": 0,
      "note": 63,
      "start": 27.8981,
      "duration": 0.1496,
      "velocity": 106,
      "chip": "ym2612"
    },
    {
      "channel": 5,
      "note": 84,
      "start": 27.9017,
      "duration": 0.1474,
      "velocity": 127,
      "chip": "ym2612"
    },
    {
      "channel": 0,
      "note": 61,
      "start": 28.048,
      "duration": 0.1497,
      "velocity": 106,
      "chip": "ym2612"
    },
    {
      "channel": 5,
      "note": 84,
      "start": 28.0495,
      "duration": 0.1496,
      "velocity": 127,
      "chip": "ym2612"
    },
    {
      "channel": 0,
      "note": 58,
      "start": 28.198,
      "duration": 0.1497,
      "velocity": 106,
      "chip": "ym2612"
    },
    {
      "channel": 5,
      "note": 72,
      "start": 28.1995,
      "duration": 0.1496,
      "velocity": 127,
      "chip": "ym2612"
    },
    {
      "channel": 0,
      "note": 51,
      "start": 28.3481,
      "duration": 0.1496,
      "velocity": 106,
      "chip": "ym2612"
    },
    {
      "channel": 5,
      "note": 84,
      "start": 28.3495,
      "duration": 0.1496,
      "velocity": 127,
      "chip": "ym2612"
    },
    {
      "channel": 0,
      "note": 54,
      "start": 28.498,
      "duration": 0.1497,
      "velocity": 106,
      "chip": "ym2612"
    },
    {
      "channel": 5,
      "note": 77,
      "start": 28.4995,
      "duration": 0.1496,
      "velocity": 127,
      "chip": "ym2612"
    },
    {
      "channel": 0,
      "note": 55,
      "start": 28.648,
      "duration": 0.1497,
      "velocity": 106,
      "chip": "ym2612"
    },
    {
      "channel": 5,
      "note": 72,
      "start": 28.6495,
      "duration": 0.1552,
      "velocity": 127,
      "chip": "ym2612"
    },
    {
      "channel": 0,
      "note": 56,
      "start": 28.8002,
      "duration": 0.2975,
      "velocity": 106,
      "chip": "ym2612"
    },
    {
      "channel": 1,
      "note": 75,
      "start": 28.8008,
      "duration": 0.2973,
      "velocity": 107,
      "chip": "ym2612"
    },
    {
      "channel": 3,
      "note": 75,
      "start": 28.8039,
      "duration": 0.295,
      "velocity": 102,
      "chip": "ym2612"
    },
    {
      "channel": 4,
      "note": 71,
      "start": 28.8045,
      "duration": 0.2949,
      "velocity": 102,
      "chip": "ym2612"
    },
    {
      "channel": 5,
      "note": 20,
      "start": 28.8076,
      "duration": 0.2924,
      "velocity": 127,
      "chip": "ym2612"
    },
    {
      "channel": 0,
      "note": 56,
      "start": 29.098,
      "duration": 0.1497,
      "velocity": 106,
      "chip": "ym2612"
    },
    {
      "channel": 1,
      "note": 78,
      "start": 29.0985,
      "duration": 0.1496,
      "velocity": 107,
      "chip": "ym2612"
    },
    {
      "channel": 3,
      "note": 75,
      "start": 29.0992,
      "duration": 0.1493,
      "velocity": 102,
      "chip": "ym2612"
    },
    {
      "channel": 4,
      "note": 71,
      "start": 29.0998,
      "duration": 0.149,
      "velocity": 102,
      "chip": "ym2612"
    },
    {
      "channel": 5,
      "note": 20,
      "start": 29.1003,
      "duration": 0.1485,
      "velocity": 127,
      "chip": "ym2612"
    },
    {
      "channel": 2,
      "note": 75,
      "start": 29.1317,
      "duration": 0.2996,
      "velocity": 107,
      "chip": "ym2612"
    },
    {
      "channel": 0,
      "note": 56,
      "start": 29.248,
      "duration": 0.1497,
      "velocity": 106,
      "chip": "ym2612"
    },
    {
      "channel": 5,
      "note": 80,
      "start": 29.2515,
      "duration": 0.1478,
      "velocity": 127,
      "chip": "ym2612"
    },
    {
      "channel": 0,
      "note": 68,
      "start": 29.3981,
      "duration": 0.0653,
      "velocity": 106,
      "chip": "ym2612"
    },
    {
      "channel": 5,
      "note": 20,
      "start": 29.4019,
      "duration": 0.0615,
      "velocity": 127,
      "chip": "ym2612"
    },
    {
      "channel": 2,
      "note": 78,
      "start": 29.4317,
      "duration": 0.0317,
      "velocity": 107,
      "chip": "ym2612"
    }
  ]
}