{
  "track_name": "10 - Guilds",
  "duration_sec": 81.883,
  "sample_rate": 44100,
  "note_count": 492,
  "unique_pitches": 24,
  "pitch_range": 36,
  "avg_note_duration": 0.4011,
  "reconstruction_stats": {
    "notes_reconstructed": 492,
    "keyon_events": 492,
    "keyoff_events": 491,
    "orphan_keyons": 1,
    "unique_pitches": 24,
    "pitch_range": 36,
    "avg_duration_sec": 0.4011
  },
  "metadata": {
    "source": "R\\Rings of Power\\10 - Guilds.vgz"
  },
  "notes": [
    {
      "channel": 0,
      "note": 81,
      "start": 0.0,
      "duration": 0.1141,
      "velocity": 86,
      "chip": "ym2612"
    },
    {
      "channel": 1,
      "note": 81,
      "start": 0.2501,
      "duration": 0.2807,
      "velocity": 86,
      "chip": "ym2612"
    },
    {
      "channel": 2,
      "note": 57,
      "start": 0.2668,
      "duration": 0.5807,
      "velocity": 127,
      "chip": "ym2612"
    },
    {
      "channel": 3,
      "note": 83,
      "start": 0.5168,
      "duration": 0.2474,
      "velocity": 86,
      "chip": "ym2612"
    },
    {
      "channel": 4,
      "note": 84,
      "start": 0.5835,
      "duration": 0.1307,
      "velocity": 115,
      "chip": "ym2612"
    },
    {
      "channel": 0,
      "note": 83,
      "start": 0.8334,
      "duration": 0.1307,
      "velocity": 115,
      "chip": "ym2612"
    },
    {
      "channel": 1,
      "note": 84,
      "start": 1.0334,
      "duration": 0.3308,
      "velocity": 86,
      "chip": "ym2612"
    },
    {
      "channel": 4,
      "note": 83,
      "start": 1.0835,
      "duration": 0.0974,
      "velocity": 115,
      "chip": "ym2612"
    },
    {
      "channel": 3,
      "note": 83,
      "start": 1.5501,
      "duration": 0.3141,
      "velocity": 86,
      "chip": "ym2612"
    },
    {
      "channel": 2,
      "note": 57,
      "start": 1.5531,
      "duration": 0.261,
      "velocity": 127,
      "chip": "ym2612"
    },
    {
      "channel": 0,
      "note": 83,
      "start": 1.6001,
      "duration": 0.1474,
      "velocity": 115,
      "chip": "ym2612"
    },
    {
      "channel": 4,
      "note": 84,
      "start": 1.8676,
      "duration": 0.08,
      "velocity": 115,
      "chip": "ym2612"
    },
    {
      "channel": 1,
      "note": 81,
      "start": 2.05,
      "duration": 1.0975,
      "velocity": 86,
      "chip": "ym2612"
    },
    {
      "channel": 0,
      "note": 57,
      "start": 2.0531,
      "duration": 0.1277,
      "velocity": 127,
      "chip": "ym2612"
    },
    {
      "channel": 2,
      "note": 84,
      "start": 2.1167,
      "duration": 0.0975,
      "velocity": 115,
      "chip": "ym2612"
    },
    {
      "channel": 3,
      "note": 53,
      "start": 2.3169,
      "duration": 0.5306,
      "velocity": 127,
      "chip": "ym2612"
    },
    {
      "channel": 4,
      "note": 84,
      "start": 2.6168,
      "duration": 0.1474,
      "velocity": 115,
      "chip": "ym2612"
    },
    {
      "channel": 0,
      "note": 83,
      "start": 2.8668,
      "duration": 0.1474,
      "velocity": 115,
      "chip": "ym2612"
    },
    {
      "channel": 2,
      "note": 84,
      "start": 3.1168,
      "duration": 0.1321,
      "velocity": 115,
      "chip": "ym2612"
    },
    {
      "channel": 4,
      "note": 84,
      "start": 3.6335,
      "duration": 0.2473,
      "velocity": 115,
      "chip": "ym2612"
    },
    {
      "channel": 3,
      "note": 53,
      "start": 3.8669,
      "duration": 0.2473,
      "velocity": 127,
      "chip": "ym2612"
    },
    {
      "channel": 0,
      "note": 85,
      "start": 3.8842,
      "duration": 0.13,
      "velocity": 115,
      "chip": "ym2612"
    },
    {
      "channel": 1,
      "note": 81,
      "start": 4.1175,
      "duration": 0.08,
      "velocity": 86,
      "chip": "ym2612"
    },
    {
      "channel": 2,
      "note": 53,
      "start": 4.1334,
      "duration": 0.2141,
      "velocity": 127,
      "chip": "ym2612"
    },
    {
      "channel": 4,
      "note": 84,
      "start": 4.1365,
      "duration": 0.161,
      "velocity": 115,
      "chip": "ym2612"
    },
    {
      "channel": 0,
      "note": 81,
      "start": 4.3847,
      "duration": 0.2128,
      "velocity": 86,
      "chip": "ym2612"
    },
    {
      "channel": 3,
      "note": 55,
      "start": 4.3879,
      "duration": 0.4097,
      "velocity": 127,
      "chip": "ym2612"
    },
    {
      "channel": 1,
      "note": 83,
      "start": 4.6334,
      "duration": 0.2475,
      "velocity": 86,
      "chip": "ym2612"
    },
    {
      "channel": 4,
      "note": 83,
      "start": 4.9515,
      "duration": 0.1127,
      "velocity": 115,
      "chip": "ym2612"
    },
    {
      "channel": 2,
      "note": 84,
      "start": 5.1501,
      "duration": 0.3974,
      "velocity": 86,
      "chip": "ym2612"
    },
    {
      "channel": 0,
      "note": 84,
      "start": 5.2001,
      "duration": 0.0974,
      "velocity": 115,
      "chip": "ym2612"
    },
    {
      "channel": 3,
      "note": 55,
      "start": 5.6502,
      "duration": 0.1973,
      "velocity": 127,
      "chip": "ym2612"
    },
    {
      "channel": 1,
      "note": 84,
      "start": 5.7167,
      "duration": 0.0809,
      "velocity": 115,
      "chip": "ym2612"
    },
    {
      "channel": 4,
      "note": 83,
      "start": 5.9002,
      "duration": 0.2473,
      "velocity": 86,
      "chip": "ym2612"
    },
    {
      "channel": 0,
      "note": 83,
      "start": 5.9795,
      "duration": 0.0847,
      "velocity": 115,
      "chip": "ym2612"
    },
    {
      "channel": 2,
      "note": 55,
      "start": 6.1508,
      "duration": 0.2134,
      "velocity": 127,
      "chip": "ym2612"
    },
    {
      "channel": 1,
      "note": 83,
      "start": 6.2,
      "duration": 0.1142,
      "velocity": 115,
      "chip": "ym2612"
    },
    {
      "channel": 3,
      "note": 60,
      "start": 6.4169,
      "duration": 0.2671,
      "velocity": 127,
      "chip": "ym2612"
    },
    {
      "channel": 0,
      "note": 84,
      "start": 6.4199,
      "duration": 0.2943,
      "velocity": 86,
      "chip": "ym2612"
    },
    {
      "channel": 4,
      "note": 83,
      "start": 6.6835,
      "duration": 0.1807,
      "velocity": 86,
      "chip": "ym2612"
    },
    {
      "channel": 1,
      "note": 81,
      "start": 6.9334,
      "duration": 0.1141,
      "velocity": 86,
      "chip": "ym2612"
    },
    {
      "channel": 2,
      "note": 59,
      "start": 6.9365,
      "duration": 0.2944,
      "velocity": 127,
      "chip": "ym2612"
    },
    {
      "channel": 3,
      "note": 83,
      "start": 6.9835,
      "duration": 0.1154,
      "velocity": 115,
      "chip": "ym2612"
    },
    {
      "channel": 0,
      "note": 81,
      "start": 7.2,
      "duration": 0.5141,
      "velocity": 86,
      "chip": "ym2612"
    },
    {
      "channel": 4,
      "note": 84,
      "start": 7.2342,
      "duration": 0.0966,
      "velocity": 115,
      "chip": "ym2612"
    },
    {
      "channel": 1,
      "note": 57,
      "start": 7.4501,
      "duration": 0.3474,
      "velocity": 127,
      "chip": "ym2612"
    },
    {
      "channel": 3,
      "note": 84,
      "start": 7.7668,
      "duration": 0.1141,
      "velocity": 115,
      "chip": "ym2612"
    },
    {
      "channel": 2,
      "note": 85,
      "start": 8.0167,
      "duration": 0.1142,
      "velocity": 115,
      "chip": "ym2612"
    },
    {
      "channel": 4,
      "note": 81,
      "start": 8.2348,
      "duration": 0.0794,
      "velocity": 86,
      "chip": "ym2612"
    },
    {
      "channel": 0,
      "note": 57,
      "start": 8.2379,
      "duration": 0.0596,
      "velocity": 127,
      "chip": "ym2612"
    },
    {
      "channel": 1,
      "note": 84,
      "start": 8.2668,
      "duration": 0.0974,
      "velocity": 115,
      "chip": "ym2612"
    },
    {
      "channel": 3,
      "note": 81,
      "start": 8.4668,
      "duration": 0.3307,
      "velocity": 86,
      "chip": "ym2612"
    },
    {
      "channel": 2,
      "note": 57,
      "start": 8.4699,
      "duration": 0.3284,
      "velocity": 127,
      "chip": "ym2612"
    },
    {
      "channel": 0,
      "note": 83,
      "start": 8.7334,
      "duration": 0.2475,
      "velocity": 86,
      "chip": "ym2612"
    },
    {
      "channel": 4,
      "note": 84,
      "start": 8.7835,
      "duration": 0.1308,
      "velocity": 115,
      "chip": "ym2612"
    },
    {
      "channel": 1,
      "note": 83,
      "start": 9.0334,
      "duration": 0.1475,
      "velocity": 115,
      "chip": "ym2612"
    },
    {
      "channel": 3,
      "note": 84,
      "start": 9.2502,
      "duration": 0.3474,
      "velocity": 86,
      "chip": "ym2612"
    },
    {
      "channel": 2,
      "note": 83,
      "start": 9.3001,
      "duration": 0.0988,
      "velocity": 115,
      "chip": "ym2612"
    },
    {
      "channel": 4,
      "note": 83,
      "start": 9.7668,
      "duration": 0.2974,
      "velocity": 86,
      "chip": "ym2612"
    },
    {
      "channel": 0,
      "note": 57,
      "start": 9.7699,
      "duration": 0.161,
      "velocity": 127,
      "chip": "ym2612"
    },
    {
      "channel": 1,
      "note": 83,
      "start": 9.8167,
      "duration": 0.1488,
      "velocity": 115,
      "chip": "ym2612"
    },
    {
      "channel": 2,
      "note": 84,
      "start": 10.0675,
      "duration": 0.0801,
      "velocity": 115,
      "chip": "ym2612"
    },
    {
      "channel": 3,
      "note": 81,
      "start": 10.2834,
      "duration": 0.9975,
      "velocity": 86,
      "chip": "ym2612"
    },
    {
      "channel": 0,
      "note": 57,
      "start": 10.2865,
      "duration": 0.2457,
      "velocity": 127,
      "chip": "ym2612"
    },
    {
      "channel": 1,
      "note": 84,
      "start": 10.3334,
      "duration": 0.0807,
      "velocity": 115,
      "chip": "ym2612"
    },
    {
      "channel": 4,
      "note": 53,
      "start": 10.5502,
      "duration": 0.4639,
      "velocity": 127,
      "chip": "ym2612"
    },
    {
      "channel": 2,
      "note": 84,
      "start": 10.85,
      "duration": 0.1142,
      "velocity": 115,
      "chip": "ym2612"
    },
    {
      "channel": 1,
      "note": 83,
      "start": 11.0668,
      "duration": 0.1475,
      "velocity": 115,
      "chip": "ym2612"
    },
    {
      "channel": 0,
      "note": 84,
      "start": 11.3334,
      "duration": 0.1307,
      "velocity": 115,
      "chip": "ym2612"
    },
    {
      "channel": 2,
      "note": 53,
      "start": 11.8168,
      "duration": 0.2641,
      "velocity": 127,
      "chip": "ym2612"
    },
    {
      "channel": 4,
      "note": 84,
      "start": 11.8335,
      "duration": 0.2481,
      "velocity": 115,
      "chip": "ym2612"
    },
    {
      "channel": 1,
      "note": 85,
      "start": 12.1001,
      "duration": 0.1308,
      "velocity": 115,
      "chip": "ym2612"
    },
    {
      "channel": 3,
      "note": 81,
      "start": 12.3335,
      "duration": 0.064,
      "velocity": 86,
      "chip": "ym2612"
    },
    {
      "channel": 0,
      "note": 53,
      "start": 12.3365,
      "duration": 0.2442,
      "velocity": 127,
      "chip": "ym2612"
    },
    {
      "channel": 2,
      "note": 84,
      "start": 12.35,
      "duration": 0.1475,
      "velocity": 115,
      "chip": "ym2612"
    },
    {
      "channel": 4,
      "note": 81,
      "start": 12.5841,
      "duration": 0.2968,
      "velocity": 86,
      "chip": "ym2612"
    },
    {
      "channel": 1,
      "note": 55,
      "start": 12.5872,
      "duration": 0.4437,
      "velocity": 127,
      "chip": "ym2612"
    },
    {
      "channel": 3,
      "note": 83,
      "start": 12.8502,
      "duration": 0.2654,
      "velocity": 86,
      "chip": "ym2612"
    },
    {
      "channel": 2,
      "note": 84,
      "start": 12.8668,
      "duration": 0.2141,
      "velocity": 115,
      "chip": "ym2612"
    },
    {
      "channel": 0,
      "note": 85,
      "start": 13.1334,
      "duration": 0.1141,
      "velocity": 115,
      "chip": "ym2612"
    },
    {
      "channel": 4,
      "note": 84,
      "start": 13.3502,
      "duration": 0.4473,
      "velocity": 86,
      "chip": "ym2612"
    },
    {
      "channel": 1,
      "note": 84,
      "start": 13.3667,
      "duration": 0.1808,
      "velocity": 115,
      "chip": "ym2612"
    },
    {
      "channel": 2,
      "note": 55,
      "start": 13.8668,
      "duration": 0.2474,
      "velocity": 127,
      "chip": "ym2612"
    },
    {
      "channel": 3,
      "note": 84,
      "start": 13.8835,
      "duration": 0.1807,
      "velocity": 115,
      "chip": "ym2612"
    },
    {
      "channel": 0,
      "note": 83,
      "start": 14.1174,
      "duration": 0.2665,
      "velocity": 86,
      "chip": "ym2612"
    },
    {
      "channel": 1,
      "note": 83,
      "start": 14.1501,
      "duration": 0.1308,
      "velocity": 115,
      "chip": "ym2612"
    },
    {
      "channel": 4,
      "note": 55,
      "start": 14.3835,
      "duration": 0.1307,
      "velocity": 127,
      "chip": "ym2612"
    },
    {
      "channel": 3,
      "note": 84,
      "start": 14.4002,
      "duration": 0.0973,
      "velocity": 115,
      "chip": "ym2612"
    },
    {
      "channel": 2,
      "note": 84,
      "start": 14.6334,
      "duration": 0.3308,
      "velocity": 86,
      "chip": "ym2612"
    },
    {
      "channel": 1,
      "note": 60,
      "start": 14.6364,
      "duration": 0.2611,
      "velocity": 127,
      "chip": "ym2612"
    },
    {
      "channel": 0,
      "note": 83,
      "start": 14.9007,
      "duration": 0.1968,
      "velocity": 86,
      "chip": "ym2612"
    },
    {
      "channel": 3,
      "note": 84,
      "start": 14.9168,
      "duration": 0.1141,
      "velocity": 115,
      "chip": "ym2612"
    },
    {
      "channel": 4,
      "note": 81,
      "start": 15.1501,
      "duration": 0.1481,
      "velocity": 86,
      "chip": "ym2612"
    },
    {
      "channel": 1,
      "note": 59,
      "start": 15.1668,
      "duration": 0.1974,
      "velocity": 127,
      "chip": "ym2612"
    },
    {
      "channel": 2,
      "note": 83,
      "start": 15.1698,
      "duration": 0.0778,
      "velocity": 115,
      "chip": "ym2612"
    },
    {
      "channel": 3,
      "note": 81,
      "start": 15.4181,
      "duration": 0.396,
      "velocity": 86,
      "chip": "ym2612"
    },
    {
      "channel": 0,
      "note": 83,
      "start": 15.4334,
      "duration": 0.0974,
      "velocity": 115,
      "chip": "ym2612"
    },
    {
      "channel": 2,
      "note": 57,
      "start": 15.6502,
      "duration": 0.3807,
      "velocity": 127,
      "chip": "ym2612"
    },
    {
      "channel": 4,
      "note": 83,
      "start": 15.9335,
      "duration": 0.1307,
      "velocity": 115,
      "chip": "ym2612"
    },
    {
      "channel": 1,
      "note": 84,
      "start": 16.1834,
      "duration": 0.0974,
      "velocity": 115,
      "chip": "ym2612"
    },
    {
      "channel": 0,
      "note": 81,
      "start": 16.4334,
      "duration": 0.1154,
      "velocity": 86,
      "chip": "ym2612"
    },
    {
      "channel": 3,
      "note": 85,
      "start": 16.4502,
      "duration": 0.1141,
      "velocity": 115,
      "chip": "ym2612"
    },
    {
      "channel": 2,
      "note": 81,
      "start": 16.6834,
      "duration": 0.2808,
      "velocity": 86,
      "chip": "ym2612"
    },
    {
      "channel": 4,
      "note": 57,
      "start": 16.7002,
      "duration": 0.5807,
      "velocity": 127,
      "chip": "ym2612"
    },
    {
      "channel": 1,
      "note": 76,
      "start": 16.7033,
      "duration": 0.511,
      "velocity": 98,
      "chip": "ym2612"
    },
    {
      "channel": 0,
      "note": 83,
      "start": 16.95,
      "duration": 0.2475,
      "velocity": 86,
      "chip": "ym2612"
    },
    {
      "channel": 3,
      "note": 84,
      "start": 17.0168,
      "duration": 0.1307,
      "velocity": 115,
      "chip": "ym2612"
    },
    {
      "channel": 2,
      "note": 83,
      "start": 17.2668,
      "duration": 0.1141,
      "velocity": 115,
      "chip": "ym2612"
    },
    {
      "channel": 3,
      "note": 84,
      "start": 17.4668,
      "duration": 0.3308,
      "velocity": 86,
      "chip": "ym2612"
    },
    {
      "channel": 0,
      "note": 83,
      "start": 17.5167,
      "duration": 0.0975,
      "velocity": 115,
      "chip": "ym2612"
    },
    {
      "channel": 1,
      "note": 76,
      "start": 17.7502,
      "duration": 0.664,
      "velocity": 98,
      "chip": "ym2612"
    },
    {
      "channel": 4,
      "note": 83,
      "start": 17.9668,
      "duration": 0.3307,
      "velocity": 86,
      "chip": "ym2612"
    },
    {
      "channel": 2,
      "note": 57,
      "start": 17.9699,
      "duration": 0.261,
      "velocity": 127,
      "chip": "ym2612"
    },
    {
      "channel": 0,
      "note": 83,
      "start": 18.0334,
      "duration": 0.1475,
      "velocity": 115,
      "chip": "ym2612"
    },
    {
      "channel": 3,
      "note": 84,
      "start": 18.3009,
      "duration": 0.08,
      "velocity": 115,
      "chip": "ym2612"
    },
    {
      "channel": 0,
      "note": 81,
      "start": 18.5,
      "duration": 1.0808,
      "velocity": 86,
      "chip": "ym2612"
    },
    {
      "channel": 2,
      "note": 57,
      "start": 18.5031,
      "duration": 0.1111,
      "velocity": 127,
      "chip": "ym2612"
    },
    {
      "channel": 4,
      "note": 84,
      "start": 18.5335,
      "duration": 0.1141,
      "velocity": 115,
      "chip": "ym2612"
    },
    {
      "channel": 3,
      "note": 53,
      "start": 18.7502,
      "duration": 0.5307,
      "velocity": 127,
      "chip": "ym2612"
    },
    {
      "channel": 1,
      "note": 77,
      "start": 18.7834,
      "duration": 0.6974,
      "velocity": 98,
      "chip": "ym2612"
    },
    {
      "channel": 2,
      "note": 84,
      "start": 19.05,
      "duration": 0.1475,
      "velocity": 115,
      "chip": "ym2612"
    },
    {
      "channel": 4,
      "note": 83,
      "start": 19.3002,
      "duration": 0.1474,
      "velocity": 115,
      "chip": "ym2612"
    },
    {
      "channel": 2,
      "note": 84,
      "start": 19.5501,
      "duration": 0.1141,
      "velocity": 115,
      "chip": "ym2612"
    },
    {
      "channel": 3,
      "note": 77,
      "start": 19.8169,
      "duration": 0.5807,
      "velocity": 98,
      "chip": "ym2612"
    },
    {
      "channel": 4,
      "note": 84,
      "start": 20.0668,
      "duration": 0.2307,
      "velocity": 115,
      "chip": "ym2612"
    },
    {
      "channel": 1,
      "note": 53,
      "start": 20.2834,
      "duration": 0.2474,
      "velocity": 127,
      "chip": "ym2612"
    },
    {
      "channel": 0,
      "note": 85,
      "start": 20.3008,
      "duration": 0.1466,
      "velocity": 115,
      "chip": "ym2612"
    },
    {
      "channel": 2,
      "note": 81,
      "start": 20.5341,
      "duration": 0.0801,
      "velocity": 86,
      "chip": "ym2612"
    },
    {
      "channel": 4,
      "note": 53,
      "start": 20.5502,
      "duration": 0.2307,
      "velocity": 127,
      "chip": "ym2612"
    },
    {
      "channel": 3,
      "note": 84,
      "start": 20.5533,
      "duration": 0.1776,
      "velocity": 115,
      "chip": "ym2612"
    },
    {
      "channel": 0,
      "note": 81,
      "start": 20.8001,
      "duration": 0.2307,
      "velocity": 86,
      "chip": "ym2612"
    },
    {
      "channel": 1,
      "note": 55,
      "start": 20.8031,
      "duration": 0.4111,
      "velocity": 127,
      "chip": "ym2612"
    },
    {
      "channel": 2,
      "note": 77,
      "start": 20.8668,
      "duration": 0.5141,
      "velocity": 98,
      "chip": "ym2612"
    },
    {
      "channel": 3,
      "note": 83,
      "start": 21.0668,
      "duration": 0.2473,
      "velocity": 86,
      "chip": "ym2612"
    },
    {
      "channel": 4,
      "note": 83,
      "start": 21.3668,
      "duration": 0.1141,
      "velocity": 115,
      "chip": "ym2612"
    },
    {
      "channel": 0,
      "note": 84,
      "start": 21.5834,
      "duration": 0.3807,
      "velocity": 86,
      "chip": "ym2612"
    },
    {
      "channel": 1,
      "note": 84,
      "start": 21.6334,
      "duration": 0.0807,
      "velocity": 115,
      "chip": "ym2612"
    },
    {
      "channel": 3,
      "note": 77,
      "start": 21.8002,
      "duration": 0.5139,
      "velocity": 98,
      "chip": "ym2612"
    },
    {
      "channel": 2,
      "note": 55,
      "start": 22.0668,
      "duration": 0.2141,
      "velocity": 127,
      "chip": "ym2612"
    },
    {
      "channel": 4,
      "note": 84,
      "start": 22.1502,
      "duration": 0.0807,
      "velocity": 115,
      "chip": "ym2612"
    },
    {
      "channel": 1,
      "note": 83,
      "start": 22.3334,
      "duration": 0.2474,
      "velocity": 86,
      "chip": "ym2612"
    },
    {
      "channel": 0,
      "note": 83,
      "start": 22.3834,
      "duration": 0.1141,
      "velocity": 115,
      "chip": "ym2612"
    },
    {
      "channel": 4,
      "note": 55,
      "start": 22.5842,
      "duration": 0.2134,
      "velocity": 127,
      "chip": "ym2612"
    },
    {
      "channel": 2,
      "note": 83,
      "start": 22.6334,
      "duration": 0.1141,
      "velocity": 115,
      "chip": "ym2612"
    },
    {
      "channel": 3,
      "note": 60,
      "start": 22.8502,
      "duration": 0.267,
      "velocity": 127,
      "chip": "ym2612"
    },
    {
      "channel": 0,
      "note": 84,
      "start": 22.8531,
      "duration": 0.2944,
      "velocity": 86,
      "chip": "ym2612"
    },
    {
      "channel": 1,
      "note": 76,
      "start": 22.8668,
      "duration": 0.5641,
      "velocity": 98,
      "chip": "ym2612"
    },
    {
      "channel": 2,
      "note": 83,
      "start": 23.1166,
      "duration": 0.1822,
      "velocity": 86,
      "chip": "ym2612"
    },
    {
      "channel": 4,
      "note": 81,
      "start": 23.3668,
      "duration": 0.1141,
      "velocity": 86,
      "chip": "ym2612"
    },
    {
      "channel": 3,
      "note": 59,
      "start": 23.3699,
      "duration": 0.2943,
      "velocity": 127,
      "chip": "ym2612"
    },
    {
      "channel": 0,
      "note": 83,
      "start": 23.4167,
      "duration": 0.1141,
      "velocity": 115,
      "chip": "ym2612"
    },
    {
      "channel": 2,
      "note": 81,
      "start": 23.6334,
      "duration": 0.5155,
      "velocity": 86,
      "chip": "ym2612"
    },
    {
      "channel": 1,
      "note": 84,
      "start": 23.6675,
      "duration": 0.0966,
      "velocity": 115,
      "chip": "ym2612"
    },
    {
      "channel": 4,
      "note": 57,
      "start": 23.8835,
      "duration": 0.3473,
      "velocity": 127,
      "chip": "ym2612"
    },
    {
      "channel": 0,
      "note": 76,
      "start": 23.9167,
      "duration": 0.4641,
      "velocity": 98,
      "chip": "ym2612"
    },
    {
      "channel": 3,
      "note": 84,
      "start": 24.2002,
      "duration": 0.1141,
      "velocity": 115,
      "chip": "ym2612"
    },
    {
      "channel": 1,
      "note": 85,
      "start": 24.45,
      "duration": 0.1141,
      "velocity": 115,
      "chip": "ym2612"
    },
    {
      "channel": 2,
      "note": 81,
      "start": 24.65,
      "duration": 0.0975,
      "velocity": 86,
      "chip": "ym2612"
    },
    {
      "channel": 4,
      "note": 57,
      "start": 24.6532,
      "duration": 0.0777,
      "velocity": 127,
      "chip": "ym2612"
    },
    {
      "channel": 3,
      "note": 84,
      "start": 24.6835,
      "duration": 0.1141,
      "velocity": 115,
      "chip": "ym2612"
    },
    {
      "channel": 0,
      "note": 81,
      "start": 24.9,
      "duration": 0.3308,
      "velocity": 86,
      "chip": "ym2612"
    },
    {
      "channel": 1,
      "note": 57,
      "start": 24.9031,
      "duration": 0.3285,
      "velocity": 127,
      "chip": "ym2612"
    },
    {
      "channel": 4,
      "note": 76,
      "start": 24.9669,
      "duration": 0.464,
      "velocity": 98,
      "chip": "ym2612"
    },
    {
      "channel": 2,
      "note": 83,
      "start": 25.1667,
      "duration": 0.2475,
      "velocity": 86,
      "chip": "ym2612"
    },
    {
      "channel": 3,
      "note": 84,
      "start": 25.2168,
      "duration": 0.1308,
      "velocity": 115,
      "chip": "ym2612"
    },
    {
      "channel": 0,
      "note": 83,
      "start": 25.4668,
      "duration": 0.1474,
      "velocity": 115,
      "chip": "ym2612"
    },
    {
      "channel": 1,
      "note": 84,
      "start": 25.6834,
      "duration": 0.3474,
      "velocity": 86,
      "chip": "ym2612"
    },
    {
      "channel": 3,
      "note": 83,
      "start": 25.7335,
      "duration": 0.0807,
      "velocity": 115,
      "chip": "ym2612"
    },
    {
      "channel": 2,
      "note": 76,
      "start": 26.0168,
      "duration": 0.4321,
      "velocity": 98,
      "chip": "ym2612"
    },
    {
      "channel": 4,
      "note": 83,
      "start": 26.2001,
      "duration": 0.2975,
      "velocity": 86,
      "chip": "ym2612"
    },
    {
      "channel": 0,
      "note": 57,
      "start": 26.2031,
      "duration": 0.161,
      "velocity": 127,
      "chip": "ym2612"
    },
    {
      "channel": 3,
      "note": 83,
      "start": 26.2502,
      "duration": 0.1307,
      "velocity": 115,
      "chip": "ym2612"
    },
    {
      "channel": 1,
      "note": 84,
      "start": 26.5008,
      "duration": 0.0801,
      "velocity": 115,
      "chip": "ym2612"
    },
    {
      "channel": 0,
      "note": 81,
      "start": 26.7,
      "duration": 1.0141,
      "velocity": 86,
      "chip": "ym2612"
    },
    {
      "channel": 3,
      "note": 57,
      "start": 26.7031,
      "duration": 0.2444,
      "velocity": 127,
      "chip": "ym2612"
    },
    {
      "channel": 2,
      "note": 84,
      "start": 26.7667,
      "duration": 0.0809,
      "velocity": 115,
      "chip": "ym2612"
    },
    {
      "channel": 4,
      "note": 53,
      "start": 26.9668,
      "duration": 0.4807,
      "velocity": 127,
      "chip": "ym2612"
    },
    {
      "channel": 1,
      "note": 77,
      "start": 26.9699,
      "duration": 0.5474,
      "velocity": 98,
      "chip": "ym2612"
    },
    {
      "channel": 2,
      "note": 84,
      "start": 27.2667,
      "duration": 0.1308,
      "velocity": 115,
      "chip": "ym2612"
    },
    {
      "channel": 3,
      "note": 83,
      "start": 27.5168,
      "duration": 0.1307,
      "velocity": 115,
      "chip": "ym2612"
    },
    {
      "channel": 2,
      "note": 84,
      "start": 27.7667,
      "duration": 0.1308,
      "velocity": 115,
      "chip": "ym2612"
    },
    {
      "channel": 4,
      "note": 77,
      "start": 27.9668,
      "duration": 0.5307,
      "velocity": 98,
      "chip": "ym2612"
    },
    {
      "channel": 1,
      "note": 53,
      "start": 28.2501,
      "duration": 0.2641,
      "velocity": 127,
      "chip": "ym2612"
    },
    {
      "channel": 3,
      "note": 84,
      "start": 28.2668,
      "duration": 0.2481,
      "velocity": 115,
      "chip": "ym2612"
    },
    {
      "channel": 0,
      "note": 85,
      "start": 28.5334,
      "duration": 0.1307,
      "velocity": 115,
      "chip": "ym2612"
    },
    {
      "channel": 2,
      "note": 81,
      "start": 28.7668,
      "duration": 0.0641,
      "velocity": 86,
      "chip": "ym2612"
    },
    {
      "channel": 4,
      "note": 53,
      "start": 28.7699,
      "duration": 0.2277,
      "velocity": 127,
      "chip": "ym2612"
    },
    {
      "channel": 1,
      "note": 84,
      "start": 28.7834,
      "duration": 0.1474,
      "velocity": 115,
      "chip": "ym2612"
    },
    {
      "channel": 3,
      "note": 81,
      "start": 29.0009,
      "duration": 0.3146,
      "velocity": 86,
      "chip": "ym2612"
    },
    {
      "channel": 0,
      "note": 55,
      "start": 29.004,
      "duration": 0.4602,
      "velocity": 127,
      "chip": "ym2612"
    },
    {
      "channel": 2,
      "note": 77,
      "start": 29.0501,
      "duration": 0.5807,
      "velocity": 98,
      "chip": "ym2612"
    },
    {
      "channel": 1,
      "note": 83,
      "start": 29.2667,
      "duration": 0.2641,
      "velocity": 86,
      "chip": "ym2612"
    },
    {
      "channel": 4,
      "note": 84,
      "start": 29.2834,
      "duration": 0.2308,
      "velocity": 115,
      "chip": "ym2612"
    },
    {
      "channel": 3,
      "note": 85,
      "start": 29.5502,
      "duration": 0.1307,
      "velocity": 115,
      "chip": "ym2612"
    },
    {
      "channel": 0,
      "note": 84,
      "start": 29.7834,
      "duration": 0.4475,
      "velocity": 86,
      "chip": "ym2612"
    },
    {
      "channel": 4,
      "note": 84,
      "start": 29.8002,
      "duration": 0.1807,
      "velocity": 115,
      "chip": "ym2612"
    },
    {
      "channel": 1,
      "note": 77,
      "start": 30.0501,
      "duration": 0.3474,
      "velocity": 98,
      "chip": "ym2612"
    },
    {
      "channel": 2,
      "note": 55,
      "start": 30.3001,
      "duration": 0.2474,
      "velocity": 127,
      "chip": "ym2612"
    },
    {
      "channel": 3,
      "note": 84,
      "start": 30.3168,
      "duration": 0.1808,
      "velocity": 115,
      "chip": "ym2612"
    },
    {
      "channel": 4,
      "note": 74,
      "start": 30.5169,
      "duration": 0.3307,
      "velocity": 98,
      "chip": "ym2612"
    },
    {
      "channel": 0,
      "note": 83,
      "start": 30.5507,
      "duration": 0.2801,
      "velocity": 86,
      "chip": "ym2612"
    },
    {
      "channel": 1,
      "note": 83,
      "start": 30.5834,
      "duration": 0.1141,
      "velocity": 115,
      "chip": "ym2612"
    },
    {
      "channel": 3,
      "note": 55,
      "start": 30.8168,
      "duration": 0.1307,
      "velocity": 127,
      "chip": "ym2612"
    },
    {
      "channel": 2,
      "note": 84,
      "start": 30.8341,
      "duration": 0.0968,
      "velocity": 115,
      "chip": "ym2612"
    },
    {
      "channel": 1,
      "note": 76,
      "start": 31.0501,
      "duration": 0.5321,
      "velocity": 98,
      "chip": "ym2612"
    },
    {
      "channel": 0,
      "note": 84,
      "start": 31.0667,
      "duration": 0.3308,
      "velocity": 86,
      "chip": "ym2612"
    },
    {
      "channel": 4,
      "note": 60,
      "start": 31.0698,
      "duration": 0.261,
      "velocity": 127,
      "chip": "ym2612"
    },
    {
      "channel": 2,
      "note": 83,
      "start": 31.3341,
      "duration": 0.1968,
      "velocity": 86,
      "chip": "ym2612"
    },
    {
      "channel": 3,
      "note": 84,
      "start": 31.3502,
      "duration": 0.1141,
      "velocity": 115,
      "chip": "ym2612"
    },
    {
      "channel": 4,
      "note": 81,
      "start": 31.5855,
      "duration": 0.1454,
      "velocity": 86,
      "chip": "ym2612"
    },
    {
      "channel": 0,
      "note": 59,
      "start": 31.6001,
      "duration": 0.1974,
      "velocity": 127,
      "chip": "ym2612"
    },
    {
      "channel": 3,
      "note": 83,
      "start": 31.6032,
      "duration": 0.0777,
      "velocity": 115,
      "chip": "ym2612"
    },
    {
      "channel": 2,
      "note": 81,
      "start": 31.8334,
      "duration": 0.4142,
      "velocity": 86,
      "chip": "ym2612"
    },
    {
      "channel": 1,
      "note": 83,
      "start": 31.85,
      "duration": 0.1142,
      "velocity": 115,
      "chip": "ym2612"
    },
    {
      "channel": 3,
      "note": 76,
      "start": 32.0502,
      "duration": 0.4807,
      "velocity": 98,
      "chip": "ym2612"
    },
    {
      "channel": 4,
      "note": 57,
      "start": 32.0835,
      "duration": 0.3821,
      "velocity": 127,
      "chip": "ym2612"
    },
    {
      "channel": 0,
      "note": 83,
      "start": 32.3668,
      "duration": 0.1307,
      "velocity": 115,
      "chip": "ym2612"
    },
    {
      "channel": 1,
      "note": 84,
      "start": 32.6167,
      "duration": 0.0808,
      "velocity": 115,
      "chip": "ym2612"
    },
    {
      "channel": 2,
      "note": 81,
      "start": 32.8667,
      "duration": 0.0975,
      "velocity": 86,
      "chip": "ym2612"
    },
    {
      "channel": 4,
      "note": 85,
      "start": 32.8835,
      "duration": 0.0974,
      "velocity": 115,
      "chip": "ym2612"
    },
    {
      "channel": 0,
      "note": 81,
      "start": 33.1167,
      "duration": 0.2807,
      "velocity": 86,
      "chip": "ym2612"
    },
    {
      "channel": 3,
      "note": 76,
      "start": 33.1199,
      "duration": 0.5284,
      "velocity": 98,
      "chip": "ym2612"
    },
    {
      "channel": 1,
      "note": 57,
      "start": 33.1334,
      "duration": 0.5808,
      "velocity": 127,
      "chip": "ym2612"
    },
    {
      "channel": 2,
      "note": 88,
      "start": 33.1365,
      "duration": 0.2278,
      "velocity": 116,
      "chip": "ym2612"
    },
    {
      "channel": 4,
      "note": 83,
      "start": 33.3835,
      "duration": 0.2474,
      "velocity": 86,
      "chip": "ym2612"
    },
    {
      "channel": 2,
      "note": 86,
      "start": 33.3865,
      "duration": 0.261,
      "velocity": 116,
      "chip": "ym2612"
    },
    {
      "channel": 0,
      "note": 84,
      "start": 33.4501,
      "duration": 0.1141,
      "velocity": 115,
      "chip": "ym2612"
    },
    {
      "channel": 0,
      "note": 83,
      "start": 33.7,
      "duration": 0.1141,
      "velocity": 115,
      "chip": "ym2612"
    },
    {
      "channel": 4,
      "note": 84,
      "start": 33.9001,
      "duration": 0.3307,
      "velocity": 86,
      "chip": "ym2612"
    },
    {
      "channel": 2,
      "note": 84,
      "start": 33.9031,
      "duration": 0.3611,
      "velocity": 116,
      "chip": "ym2612"
    },
    {
      "channel": 3,
      "note": 83,
      "start": 33.9502,
      "duration": 0.0974,
      "velocity": 115,
      "chip": "ym2612"
    },
    {
      "channel": 1,
      "note": 76,
      "start": 34.1834,
      "duration": 0.6474,
      "velocity": 98,
      "chip": "ym2612"
    },
    {
      "channel": 0,
      "note": 83,
      "start": 34.4167,
      "duration": 0.2975,
      "velocity": 86,
      "chip": "ym2612"
    },
    {
      "channel": 3,
      "note": 57,
      "start": 34.4198,
      "duration": 0.2444,
      "velocity": 127,
      "chip": "ym2612"
    },
    {
      "channel": 4,
      "note": 83,
      "start": 34.423,
      "duration": 0.2745,
      "velocity": 116,
      "chip": "ym2612"
    },
    {
      "channel": 2,
      "note": 83,
      "start": 34.4667,
      "duration": 0.1475,
      "velocity": 115,
      "chip": "ym2612"
    },
    {
      "channel": 2,
      "note": 84,
      "start": 34.7174,
      "duration": 0.0801,
      "velocity": 115,
      "chip": "ym2612"
    },
    {
      "channel": 3,
      "note": 81,
      "start": 34.9335,
      "duration": 1.064,
      "velocity": 86,
      "chip": "ym2612"
    },
    {
      "channel": 4,
      "note": 57,
      "start": 34.9366,
      "duration": 0.0943,
      "velocity": 127,
      "chip": "ym2612"
    },
    {
      "channel": 0,
      "note": 84,
      "start": 34.9667,
      "duration": 0.0975,
      "velocity": 115,
      "chip": "ym2612"
    },
    {
      "channel": 2,
      "note": 53,
      "start": 35.1848,
      "duration": 0.5127,
      "velocity": 127,
      "chip": "ym2612"
    },
    {
      "channel": 1,
      "note": 84,
      "start": 35.1879,
      "duration": 1.0263,
      "velocity": 116,
      "chip": "ym2612"
    },
    {
      "channel": 4,
      "note": 77,
      "start": 35.2168,
      "duration": 0.6807,
      "velocity": 98,
      "chip": "ym2612"
    },
    {
      "channel": 0,
      "note": 84,
      "start": 35.4834,
      "duration": 0.1308,
      "velocity": 115,
      "chip": "ym2612"
    },
    {
      "channel": 0,
      "note": 83,
      "start": 35.7168,
      "duration": 0.1474,
      "velocity": 115,
      "chip": "ym2612"
    },
    {
      "channel": 2,
      "note": 84,
      "start": 35.9668,
      "duration": 0.1308,
      "velocity": 115,
      "chip": "ym2612"
    },
    {
      "channel": 0,
      "note": 77,
      "start": 36.2334,
      "duration": 0.5975,
      "velocity": 98,
      "chip": "ym2612"
    },
    {
      "channel": 4,
      "note": 84,
      "start": 36.4835,
      "duration": 0.2474,
      "velocity": 115,
      "chip": "ym2612"
    },
    {
      "channel": 3,
      "note": 53,
      "start": 36.7169,
      "duration": 0.2473,
      "velocity": 127,
      "chip": "ym2612"
    },
    {
      "channel": 2,
      "note": 84,
      "start": 36.7199,
      "duration": 0.0942,
      "velocity": 116,
      "chip": "ym2612"
    },
    {
      "channel": 1,
      "note": 85,
      "start": 36.7341,
      "duration": 0.1481,
      "velocity": 115,
      "chip": "ym2612"
    },
    {
      "channel": 4,
      "note": 81,
      "start": 36.9675,
      "duration": 0.08,
      "velocity": 86,
      "chip": "ym2612"
    },
    {
      "channel": 2,
      "note": 53,
      "start": 36.9834,
      "duration": 0.2307,
      "velocity": 127,
      "chip": "ym2612"
    },
    {
      "channel": 0,
      "note": 84,
      "start": 36.9865,
      "duration": 0.0778,
      "velocity": 116,
      "chip": "ym2612"
    },
    {
      "channel": 1,
      "note": 84,
      "start": 36.9895,
      "duration": 0.176,
      "velocity": 115,
      "chip": "ym2612"
    },
    {
      "channel": 3,
      "note": 81,
      "start": 37.2335,
      "duration": 0.2307,
      "velocity": 86,
      "chip": "ym2612"
    },
    {
      "channel": 4,
      "note": 84,
      "start": 37.2367,
      "duration": 0.2441,
      "velocity": 116,
      "chip": "ym2612"
    },
    {
      "channel": 0,
      "note": 55,
      "start": 37.2397,
      "duration": 0.4078,
      "velocity": 127,
      "chip": "ym2612"
    },
    {
      "channel": 1,
      "note": 77,
      "start": 37.3001,
      "duration": 0.5141,
      "velocity": 98,
      "chip": "ym2612"
    },
    {
      "channel": 2,
      "note": 83,
      "start": 37.5,
      "duration": 0.2309,
      "velocity": 86,
      "chip": "ym2612"
    },
    {
      "channel": 3,
      "note": 86,
      "start": 37.5031,
      "duration": 0.3278,
      "velocity": 116,
      "chip": "ym2612"
    },
    {
      "channel": 4,
      "note": 83,
      "start": 37.8002,
      "duration": 0.1141,
      "velocity": 115,
      "chip": "ym2612"
    },
    {
      "channel": 0,
      "note": 84,
      "start": 38.0,
      "duration": 0.3975,
      "velocity": 86,
      "chip": "ym2612"
    },
    {
      "channel": 2,
      "note": 88,
      "start": 38.0031,
      "duration": 0.4777,
      "velocity": 116,
      "chip": "ym2612"
    },
    {
      "channel": 1,
      "note": 84,
      "start": 38.0667,
      "duration": 0.0808,
      "velocity": 115,
      "chip": "ym2612"
    },
    {
      "channel": 3,
      "note": 77,
      "start": 38.2335,
      "duration": 0.5141,
      "velocity": 98,
      "chip": "ym2612"
    },
    {
      "channel": 4,
      "note": 55,
      "start": 38.5002,
      "duration": 0.2141,
      "velocity": 127,
      "chip": "ym2612"
    },
    {
      "channel": 1,
      "note": 84,
      "start": 38.5667,
      "duration": 0.0975,
      "velocity": 115,
      "chip": "ym2612"
    },
    {
      "channel": 0,
      "note": 86,
      "start": 38.7668,
      "duration": 0.2481,
      "velocity": 116,
      "chip": "ym2612"
    },
    {
      "channel": 2,
      "note": 83,
      "start": 38.7698,
      "duration": 0.2444,
      "velocity": 86,
      "chip": "ym2612"
    },
    {
      "channel": 1,
      "note": 83,
      "start": 38.8167,
      "duration": 0.1141,
      "velocity": 115,
      "chip": "ym2612"
    },
    {
      "channel": 4,
      "note": 55,
      "start": 39.0183,
      "duration": 0.2126,
      "velocity": 127,
      "chip": "ym2612"
    },
    {
      "channel": 3,
      "note": 83,
      "start": 39.0669,
      "duration": 0.1154,
      "velocity": 115,
      "chip": "ym2612"
    },
    {
      "channel": 1,
      "note": 60,
      "start": 39.2834,
      "duration": 0.2702,
      "velocity": 127,
      "chip": "ym2612"
    },
    {
      "channel": 2,
      "note": 84,
      "start": 39.2865,
      "duration": 0.211,
      "velocity": 116,
      "chip": "ym2612"
    },
    {
      "channel": 0,
      "note": 84,
      "start": 39.2895,
      "duration": 0.176,
      "velocity": 86,
      "chip": "ym2612"
    },
    {
      "channel": 3,
      "note": 76,
      "start": 39.3168,
      "duration": 0.5474,
      "velocity": 98,
      "chip": "ym2612"
    },
    {
      "channel": 4,
      "note": 83,
      "start": 39.5501,
      "duration": 0.1641,
      "velocity": 86,
      "chip": "ym2612"
    },
    {
      "channel": 0,
      "note": 81,
      "start": 39.5531,
      "duration": 0.0944,
      "velocity": 116,
      "chip": "ym2612"
    },
    {
      "channel": 2,
      "note": 81,
      "start": 39.8,
      "duration": 0.1141,
      "velocity": 86,
      "chip": "ym2612"
    },
    {
      "channel": 1,
      "note": 59,
      "start": 39.8031,
      "duration": 0.3111,
      "velocity": 127,
      "chip": "ym2612"
    },
    {
      "channel": 0,
      "note": 81,
      "start": 39.8061,
      "duration": 0.1247,
      "velocity": 116,
      "chip": "ym2612"
    },
    {
      "channel": 4,
      "note": 83,
      "start": 39.8502,
      "duration": 0.114,
      "velocity": 115,
      "chip": "ym2612"
    },
    {
      "channel": 3,
      "note": 81,
      "start": 40.0668,
      "duration": 0.4973,
      "velocity": 86,
      "chip": "ym2612"
    },
    {
      "channel": 2,
      "note": 81,
      "start": 40.0699,
      "duration": 0.611,
      "velocity": 116,
      "chip": "ym2612"
    },
    {
      "channel": 0,
      "note": 84,
      "start": 40.1175,
      "duration": 0.08,
      "velocity": 115,
      "chip": "ym2612"
    },
    {
      "channel": 4,
      "note": 57,
      "start": 40.3182,
      "duration": 0.3459,
      "velocity": 127,
      "chip": "ym2612"
    },
    {
      "channel": 1,
      "note": 76,
      "start": 40.3501,
      "duration": 0.4641,
      "velocity": 98,
      "chip": "ym2612"
    },
    {
      "channel": 0,
      "note": 84,
      "start": 40.6347,
      "duration": 0.1129,
      "velocity": 115,
      "chip": "ym2612"
    },
    {
      "channel": 3,
      "note": 88,
      "start": 40.8176,
      "duration": 0.1466,
      "velocity": 116,
      "chip": "ym2612"
    },
    {
      "channel": 4,
      "note": 85,
      "start": 40.8668,
      "duration": 0.1307,
      "velocity": 115,
      "chip": "ym2612"
    },
    {
      "channel": 2,
      "note": 81,
      "start": 41.0834,
      "duration": 0.0815,
      "velocity": 86,
      "chip": "ym2612"
    },
    {
      "channel": 0,
      "note": 57,
      "start": 41.0865,
      "duration": 0.061,
      "velocity": 127,
      "chip": "ym2612"
    },
    {
      "channel": 1,
      "note": 88,
      "start": 41.0895,
      "duration": 0.0746,
      "velocity": 116,
      "chip": "ym2612"
    },
    {
      "channel": 3,
      "note": 84,
      "start": 41.1168,
      "duration": 0.114,
      "velocity": 115,
      "chip": "ym2612"
    },
    {
      "channel": 4,
      "note": 81,
      "start": 41.3335,
      "duration": 0.3307,
      "velocity": 86,
      "chip": "ym2612"
    },
    {
      "channel": 0,
      "note": 57,
      "start": 41.3365,
      "duration": 0.3284,
      "velocity": 127,
      "chip": "ym2612"
    },
    {
      "channel": 1,
      "note": 88,
      "start": 41.3396,
      "duration": 0.2579,
      "velocity": 116,
      "chip": "ym2612"
    },
    {
      "channel": 2,
      "note": 76,
      "start": 41.4001,
      "duration": 0.4641,
      "velocity": 98,
      "chip": "ym2612"
    },
    {
      "channel": 3,
      "note": 83,
      "start": 41.6008,
      "duration": 0.2498,
      "velocity": 86,
      "chip": "ym2612"
    },
    {
      "channel": 1,
      "note": 84,
      "start": 41.65,
      "duration": 0.1309,
      "velocity": 115,
      "chip": "ym2612"
    },
    {
      "channel": 4,
      "note": 86,
      "start": 41.8502,
      "duration": 0.2141,
      "velocity": 116,
      "chip": "ym2612"
    },
    {
      "channel": 0,
      "note": 83,
      "start": 41.9001,
      "duration": 0.1487,
      "velocity": 115,
      "chip": "ym2612"
    },
    {
      "channel": 1,
      "note": 84,
      "start": 42.1167,
      "duration": 0.3475,
      "velocity": 86,
      "chip": "ym2612"
    },
    {
      "channel": 3,
      "note": 84,
      "start": 42.1199,
      "duration": 0.3307,
      "velocity": 116,
      "chip": "ym2612"
    },
    {
      "channel": 2,
      "note": 83,
      "start": 42.1668,
      "duration": 0.0807,
      "velocity": 115,
      "chip": "ym2612"
    },
    {
      "channel": 0,
      "note": 76,
      "start": 42.4501,
      "duration": 0.4141,
      "velocity": 98,
      "chip": "ym2612"
    },
    {
      "channel": 4,
      "note": 83,
      "start": 42.6334,
      "duration": 0.2974,
      "velocity": 86,
      "chip": "ym2612"
    },
    {
      "channel": 2,
      "note": 57,
      "start": 42.6365,
      "duration": 0.161,
      "velocity": 127,
      "chip": "ym2612"
    },
    {
      "channel": 3,
      "note": 83,
      "start": 42.6397,
      "duration": 0.2746,
      "velocity": 116,
      "chip": "ym2612"
    },
    {
      "channel": 1,
      "note": 83,
      "start": 42.6834,
      "duration": 0.1308,
      "velocity": 115,
      "chip": "ym2612"
    },
    {
      "channel": 2,
      "note": 84,
      "start": 42.9341,
      "duration": 0.08,
      "velocity": 115,
      "chip": "ym2612"
    },
    {
      "channel": 1,
      "note": 81,
      "start": 43.1334,
      "duration": 1.0141,
      "velocity": 86,
      "chip": "ym2612"
    },
    {
      "channel": 0,
      "note": 57,
      "start": 43.1364,
      "duration": 0.2444,
      "velocity": 127,
      "chip": "ym2612"
    },
    {
      "channel": 3,
      "note": 84,
      "start": 43.2002,
      "duration": 0.0973,
      "velocity": 115,
      "chip": "ym2612"
    },
    {
      "channel": 4,
      "note": 53,
      "start": 43.4002,
      "duration": 0.4807,
      "velocity": 127,
      "chip": "ym2612"
    },
    {
      "channel": 2,
      "note": 84,
      "start": 43.4033,
      "duration": 1.0276,
      "velocity": 116,
      "chip": "ym2612"
    },
    {
      "channel": 3,
      "note": 77,
      "start": 43.4064,
      "duration": 0.5441,
      "velocity": 98,
      "chip": "ym2612"
    },
    {
      "channel": 0,
      "note": 84,
      "start": 43.7,
      "duration": 0.1308,
      "velocity": 115,
      "chip": "ym2612"
    },
    {
      "channel": 0,
      "note": 83,
      "start": 43.95,
      "duration": 0.1475,
      "velocity": 115,
      "chip": "ym2612"
    },
    {
      "channel": 4,
      "note": 84,
      "start": 44.2002,
      "duration": 0.114,
      "velocity": 115,
      "chip": "ym2612"
    },
    {
      "channel": 3,
      "note": 77,
      "start": 44.4002,
      "duration": 0.5307,
      "velocity": 98,
      "chip": "ym2612"
    },
    {
      "channel": 0,
      "note": 53,
      "start": 44.6834,
      "duration": 0.2641,
      "velocity": 127,
      "chip": "ym2612"
    },
    {
      "channel": 1,
      "note": 84,
      "start": 44.7001,
      "duration": 0.2481,
      "velocity": 115,
      "chip": "ym2612"
    },
    {
      "channel": 4,
      "note": 84,
      "start": 44.9343,
      "duration": 0.1299,
      "velocity": 116,
      "chip": "ym2612"
    },
    {
      "channel": 2,
      "note": 85,
      "start": 44.9668,
      "duration": 0.1308,
      "velocity": 115,
      "chip": "ym2612"
    },
    {
      "channel": 3,
      "note": 81,
      "start": 45.2015,
      "duration": 0.0627,
      "velocity": 86,
      "chip": "ym2612"
    },
    {
      "channel": 0,
      "note": 53,
      "start": 45.2045,
      "duration": 0.2263,
      "velocity": 127,
      "chip": "ym2612"
    },
    {
      "channel": 1,
      "note": 84,
      "start": 45.2076,
      "duration": 0.09,
      "velocity": 116,
      "chip": "ym2612"
    },
    {
      "channel": 4,
      "note": 84,
      "start": 45.2168,
      "duration": 0.1474,
      "velocity": 115,
      "chip": "ym2612"
    },
    {
      "channel": 2,
      "note": 81,
      "start": 45.4341,
      "duration": 0.2803,
      "velocity": 86,
      "chip": "ym2612"
    },
    {
      "channel": 3,
      "note": 55,
      "start": 45.4372,
      "duration": 0.4602,
      "velocity": 127,
      "chip": "ym2612"
    },
    {
      "channel": 1,
      "note": 84,
      "start": 45.4403,
      "duration": 0.2572,
      "velocity": 116,
      "chip": "ym2612"
    },
    {
      "channel": 4,
      "note": 77,
      "start": 45.4849,
      "duration": 0.5793,
      "velocity": 98,
      "chip": "ym2612"
    },
    {
      "channel": 0,
      "note": 83,
      "start": 45.7007,
      "duration": 0.2634,
      "velocity": 86,
      "chip": "ym2612"
    },
    {
      "channel": 1,
      "note": 86,
      "start": 45.7038,
      "duration": 0.3451,
      "velocity": 116,
      "chip": "ym2612"
    },
    {
      "channel": 2,
      "note": 84,
      "start": 45.7173,
      "duration": 0.2303,
      "velocity": 115,
      "chip": "ym2612"
    },
    {
      "channel": 3,
      "note": 85,
      "start": 45.9835,
      "duration": 0.1307,
      "velocity": 115,
      "chip": "ym2612"
    },
    {
      "channel": 2,
      "note": 84,
      "start": 46.2167,
      "duration": 0.4475,
      "velocity": 86,
      "chip": "ym2612"
    },
    {
      "channel": 0,
      "note": 88,
      "start": 46.2198,
      "duration": 0.4777,
      "velocity": 116,
      "chip": "ym2612"
    },
    {
      "channel": 1,
      "note": 84,
      "start": 46.2334,
      "duration": 0.1808,
      "velocity": 115,
      "chip": "ym2612"
    },
    {
      "channel": 4,
      "note": 77,
      "start": 46.4835,
      "duration": 0.3473,
      "velocity": 98,
      "chip": "ym2612"
    },
    {
      "channel": 3,
      "note": 55,
      "start": 46.7335,
      "duration": 0.2474,
      "velocity": 127,
      "chip": "ym2612"
    },
    {
      "channel": 1,
      "note": 84,
      "start": 46.75,
      "duration": 0.1822,
      "velocity": 115,
      "chip": "ym2612"
    },
    {
      "channel": 2,
      "note": 74,
      "start": 46.9501,
      "duration": 0.3308,
      "velocity": 98,
      "chip": "ym2612"
    },
    {
      "channel": 0,
      "note": 83,
      "start": 46.9841,
      "duration": 0.28,
      "velocity": 86,
      "chip": "ym2612"
    },
    {
      "channel": 4,
      "note": 86,
      "start": 46.9873,
      "duration": 0.2603,
      "velocity": 116,
      "chip": "ym2612"
    },
    {
      "channel": 1,
      "note": 83,
      "start": 47.0167,
      "duration": 0.1141,
      "velocity": 115,
      "chip": "ym2612"
    },
    {
      "channel": 3,
      "note": 55,
      "start": 47.251,
      "duration": 0.1299,
      "velocity": 127,
      "chip": "ym2612"
    },
    {
      "channel": 1,
      "note": 84,
      "start": 47.2674,
      "duration": 0.0968,
      "velocity": 115,
      "chip": "ym2612"
    },
    {
      "channel": 4,
      "note": 76,
      "start": 47.4669,
      "duration": 0.5307,
      "velocity": 98,
      "chip": "ym2612"
    },
    {
      "channel": 0,
      "note": 84,
      "start": 47.5014,
      "duration": 0.1961,
      "velocity": 86,
      "chip": "ym2612"
    },
    {
      "channel": 2,
      "note": 60,
      "start": 47.5044,
      "duration": 0.2431,
      "velocity": 127,
      "chip": "ym2612"
    },
    {
      "channel": 1,
      "note": 84,
      "start": 47.5075,
      "duration": 0.2067,
      "velocity": 116,
      "chip": "ym2612"
    },
    {
      "channel": 3,
      "note": 83,
      "start": 47.7508,
      "duration": 0.2134,
      "velocity": 86,
      "chip": "ym2612"
    },
    {
      "channel": 0,
      "note": 81,
      "start": 47.7539,
      "duration": 0.1102,
      "velocity": 116,
      "chip": "ym2612"
    },
    {
      "channel": 1,
      "note": 84,
      "start": 47.7847,
      "duration": 0.1128,
      "velocity": 115,
      "chip": "ym2612"
    },
    {
      "channel": 2,
      "note": 81,
      "start": 48.0008,
      "duration": 0.1641,
      "velocity": 86,
      "chip": "ym2612"
    },
    {
      "channel": 0,
      "note": 81,
      "start": 48.0038,
      "duration": 0.1604,
      "velocity": 116,
      "chip": "ym2612"
    },
    {
      "channel": 1,
      "note": 59,
      "start": 48.0168,
      "duration": 0.2141,
      "velocity": 127,
      "chip": "ym2612"
    },
    {
      "channel": 3,
      "note": 83,
      "start": 48.0199,
      "duration": 0.0944,
      "velocity": 115,
      "chip": "ym2612"
    },
    {
      "channel": 4,
      "note": 81,
      "start": 48.2668,
      "duration": 0.414,
      "velocity": 86,
      "chip": "ym2612"
    },
    {
      "channel": 3,
      "note": 81,
      "start": 48.27,
      "duration": 0.6456,
      "velocity": 116,
      "chip": "ym2612"
    },
    {
      "channel": 0,
      "note": 83,
      "start": 48.2834,
      "duration": 0.1141,
      "velocity": 115,
      "chip": "ym2612"
    },
    {
      "channel": 2,
      "note": 76,
      "start": 48.4834,
      "duration": 0.4808,
      "velocity": 98,
      "chip": "ym2612"
    },
    {
      "channel": 1,
      "note": 57,
      "start": 48.5168,
      "duration": 0.3641,
      "velocity": 127,
      "chip": "ym2612"
    },
    {
      "channel": 0,
      "note": 83,
      "start": 48.8,
      "duration": 0.1308,
      "velocity": 115,
      "chip": "ym2612"
    },
    {
      "channel": 4,
      "note": 84,
      "start": 49.0502,
      "duration": 0.0807,
      "velocity": 115,
      "chip": "ym2612"
    },
    {
      "channel": 1,
      "note": 81,
      "start": 49.2834,
      "duration": 0.1141,
      "velocity": 86,
      "chip": "ym2612"
    },
    {
      "channel": 3,
      "note": 85,
      "start": 49.3002,
      "duration": 0.1141,
      "velocity": 115,
      "chip": "ym2612"
    },
    {
      "channel": 0,
      "note": 59,
      "start": 49.5334,
      "duration": 0.4641,
      "velocity": 116,
      "chip": "ym2612"
    },
    {
      "channel": 2,
      "note": 83,
      "start": 49.55,
      "duration": 1.8141,
      "velocity": 86,
      "chip": "ym2612"
    },
    {
      "channel": 4,
      "note": 55,
      "start": 49.5532,
      "duration": 1.9784,
      "velocity": 127,
      "chip": "ym2612"
    },
    {
      "channel": 1,
      "note": 74,
      "start": 49.5563,
      "duration": 1.9746,
      "velocity": 98,
      "chip": "ym2612"
    },
    {
      "channel": 3,
      "note": 62,
      "start": 50.0668,
      "duration": 0.464,
      "velocity": 116,
      "chip": "ym2612"
    },
    {
      "channel": 0,
      "note": 64,
      "start": 50.5834,
      "duration": 0.4308,
      "velocity": 116,
      "chip": "ym2612"
    },
    {
      "channel": 3,
      "note": 65,
      "start": 51.1002,
      "duration": 0.2973,
      "velocity": 116,
      "chip": "ym2612"
    },
    {
      "channel": 0,
      "note": 81,
      "start": 51.3674,
      "duration": 0.0801,
      "velocity": 86,
      "chip": "ym2612"
    },
    {
      "channel": 2,
      "note": 59,
      "start": 51.6001,
      "duration": 0.5307,
      "velocity": 116,
      "chip": "ym2612"
    },
    {
      "channel": 3,
      "note": 83,
      "start": 51.6032,
      "duration": 1.811,
      "velocity": 86,
      "chip": "ym2612"
    },
    {
      "channel": 0,
      "note": 55,
      "start": 51.6063,
      "duration": 1.9919,
      "velocity": 127,
      "chip": "ym2612"
    },
    {
      "channel": 1,
      "note": 74,
      "start": 51.6093,
      "duration": 1.9882,
      "velocity": 98,
      "chip": "ym2612"
    },
    {
      "channel": 4,
      "note": 62,
      "start": 52.1168,
      "duration": 0.4974,
      "velocity": 116,
      "chip": "ym2612"
    },
    {
      "channel": 2,
      "note": 64,
      "start": 52.6334,
      "duration": 0.4807,
      "velocity": 116,
      "chip": "ym2612"
    },
    {
      "channel": 4,
      "note": 65,
      "start": 53.1502,
      "duration": 0.3141,
      "velocity": 116,
      "chip": "ym2612"
    },
    {
      "channel": 2,
      "note": 81,
      "start": 53.4175,
      "duration": 0.2499,
      "velocity": 86,
      "chip": "ym2612"
    },
    {
      "channel": 3,
      "note": 59,
      "start": 53.6669,
      "duration": 0.564,
      "velocity": 116,
      "chip": "ym2612"
    },
    {
      "channel": 4,
      "note": 83,
      "start": 53.6707,
      "duration": 1.7934,
      "velocity": 86,
      "chip": "ym2612"
    },
    {
      "channel": 1,
      "note": 55,
      "start": 53.6737,
      "duration": 1.9924,
      "velocity": 127,
      "chip": "ym2612"
    },
    {
      "channel": 0,
      "note": 74,
      "start": 53.6768,
      "duration": 1.9887,
      "velocity": 98,
      "chip": "ym2612"
    },
    {
      "channel": 2,
      "note": 62,
      "start": 54.1667,
      "duration": 0.4808,
      "velocity": 116,
      "chip": "ym2612"
    },
    {
      "channel": 3,
      "note": 64,
      "start": 54.6835,
      "duration": 0.4473,
      "velocity": 116,
      "chip": "ym2612"
    },
    {
      "channel": 2,
      "note": 65,
      "start": 55.2002,
      "duration": 0.2807,
      "velocity": 116,
      "chip": "ym2612"
    },
    {
      "channel": 3,
      "note": 81,
      "start": 55.4675,
      "duration": 0.08,
      "velocity": 86,
      "chip": "ym2612"
    },
    {
      "channel": 4,
      "note": 83,
      "start": 55.7168,
      "duration": 1.7974,
      "velocity": 86,
      "chip": "ym2612"
    },
    {
      "channel": 2,
      "note": 55,
      "start": 55.7199,
      "duration": 1.9951,
      "velocity": 127,
      "chip": "ym2612"
    },
    {
      "channel": 3,
      "note": 74,
      "start": 55.723,
      "duration": 1.9912,
      "velocity": 98,
      "chip": "ym2612"
    },
    {
      "channel": 0,
      "note": 59,
      "start": 55.726,
      "duration": 0.5062,
      "velocity": 116,
      "chip": "ym2612"
    },
    {
      "channel": 1,
      "note": 65,
      "start": 56.2355,
      "duration": 0.4953,
      "velocity": 116,
      "chip": "ym2612"
    },
    {
      "channel": 0,
      "note": 64,
      "start": 56.7341,
      "duration": 0.5134,
      "velocity": 116,
      "chip": "ym2612"
    },
    {
      "channel": 1,
      "note": 62,
      "start": 57.2508,
      "duration": 0.5141,
      "velocity": 116,
      "chip": "ym2612"
    },
    {
      "channel": 0,
      "note": 81,
      "start": 57.5175,
      "duration": 0.2467,
      "velocity": 86,
      "chip": "ym2612"
    },
    {
      "channel": 4,
      "note": 60,
      "start": 57.7183,
      "duration": 1.0125,
      "velocity": 98,
      "chip": "ym2612"
    },
    {
      "channel": 3,
      "note": 79,
      "start": 57.7682,
      "duration": 0.2626,
      "velocity": 86,
      "chip": "ym2612"
    },
    {
      "channel": 2,
      "note": 60,
      "start": 57.7713,
      "duration": 1.045,
      "velocity": 127,
      "chip": "ym2612"
    },
    {
      "channel": 0,
      "note": 64,
      "start": 57.7743,
      "duration": 1.0412,
      "velocity": 116,
      "chip": "ym2612"
    },
    {
      "channel": 1,
      "note": 76,
      "start": 58.0341,
      "duration": 0.2301,
      "velocity": 86,
      "chip": "ym2612"
    },
    {
      "channel": 3,
      "note": 72,
      "start": 58.3001,
      "duration": 0.2641,
      "velocity": 86,
      "chip": "ym2612"
    },
    {
      "channel": 1,
      "note": 76,
      "start": 58.55,
      "duration": 0.6143,
      "velocity": 86,
      "chip": "ym2612"
    },
    {
      "channel": 3,
      "note": 60,
      "start": 58.8197,
      "duration": 0.9112,
      "velocity": 127,
      "chip": "ym2612"
    },
    {
      "channel": 4,
      "note": 64,
      "start": 58.8228,
      "duration": 1.0081,
      "velocity": 116,
      "chip": "ym2612"
    },
    {
      "channel": 0,
      "note": 60,
      "start": 58.8259,
      "duration": 0.5717,
      "velocity": 98,
      "chip": "ym2612"
    },
    {
      "channel": 2,
      "note": 79,
      "start": 59.05,
      "duration": 0.2141,
      "velocity": 86,
      "chip": "ym2612"
    },
    {
      "channel": 1,
      "note": 83,
      "start": 59.3167,
      "duration": 0.1309,
      "velocity": 86,
      "chip": "ym2612"
    },
    {
      "channel": 2,
      "note": 84,
      "start": 59.5667,
      "duration": 0.9641,
      "velocity": 86,
      "chip": "ym2612"
    },
    {
      "channel": 0,
      "note": 55,
      "start": 59.8342,
      "duration": 0.7633,
      "velocity": 127,
      "chip": "ym2612"
    },
    {
      "channel": 1,
      "note": 67,
      "start": 59.8372,
      "duration": 0.8769,
      "velocity": 116,
      "chip": "ym2612"
    },
    {
      "channel": 3,
      "note": 59,
      "start": 59.8404,
      "duration": 0.8071,
      "velocity": 98,
      "chip": "ym2612"
    },
    {
      "channel": 4,
      "note": 83,
      "start": 60.6008,
      "duration": 0.5301,
      "velocity": 86,
      "chip": "ym2612"
    },
    {
      "channel": 2,
      "note": 55,
      "start": 60.8501,
      "duration": 1.0808,
      "velocity": 127,
      "chip": "ym2612"
    },
    {
      "channel": 0,
      "note": 67,
      "start": 60.8531,
      "duration": 0.361,
      "velocity": 116,
      "chip": "ym2612"
    },
    {
      "channel": 3,
      "note": 59,
      "start": 60.9002,
      "duration": 0.964,
      "velocity": 98,
      "chip": "ym2612"
    },
    {
      "channel": 1,
      "note": 83,
      "start": 61.35,
      "duration": 0.1315,
      "velocity": 86,
      "chip": "ym2612"
    },
    {
      "channel": 4,
      "note": 67,
      "start": 61.3531,
      "duration": 0.1278,
      "velocity": 116,
      "chip": "ym2612"
    },
    {
      "channel": 0,
      "note": 67,
      "start": 61.6168,
      "duration": 0.264,
      "velocity": 116,
      "chip": "ym2612"
    },
    {
      "channel": 4,
      "note": 83,
      "start": 61.6199,
      "duration": 0.2451,
      "velocity": 86,
      "chip": "ym2612"
    },
    {
      "channel": 1,
      "note": 79,
      "start": 61.8841,
      "duration": 0.2468,
      "velocity": 86,
      "chip": "ym2612"
    },
    {
      "channel": 3,
      "note": 60,
      "start": 61.8872,
      "duration": 1.0277,
      "velocity": 127,
      "chip": "ym2612"
    },
    {
      "channel": 4,
      "note": 64,
      "start": 61.8904,
      "duration": 1.0238,
      "velocity": 116,
      "chip": "ym2612"
    },
    {
      "channel": 0,
      "note": 76,
      "start": 62.1341,
      "duration": 0.2468,
      "velocity": 86,
      "chip": "ym2612"
    },
    {
      "channel": 2,
      "note": 72,
      "start": 62.4,
      "duration": 0.2641,
      "velocity": 86,
      "chip": "ym2612"
    },
    {
      "channel": 1,
      "note": 76,
      "start": 62.65,
      "duration": 0.6141,
      "velocity": 86,
      "chip": "ym2612"
    },
    {
      "channel": 0,
      "note": 60,
      "start": 62.9183,
      "duration": 0.9292,
      "velocity": 127,
      "chip": "ym2612"
    },
    {
      "channel": 2,
      "note": 64,
      "start": 62.9213,
      "duration": 1.0095,
      "velocity": 116,
      "chip": "ym2612"
    },
    {
      "channel": 4,
      "note": 60,
      "start": 62.9244,
      "duration": 0.5731,
      "velocity": 98,
      "chip": "ym2612"
    },
    {
      "channel": 3,
      "note": 79,
      "start": 63.1668,
      "duration": 0.2154,
      "velocity": 86,
      "chip": "ym2612"
    },
    {
      "channel": 1,
      "note": 83,
      "start": 63.4334,
      "duration": 0.1141,
      "velocity": 86,
      "chip": "ym2612"
    },
    {
      "channel": 3,
      "note": 84,
      "start": 63.6668,
      "duration": 0.9474,
      "velocity": 86,
      "chip": "ym2612"
    },
    {
      "channel": 4,
      "note": 55,
      "start": 63.9342,
      "duration": 0.7633,
      "velocity": 127,
      "chip": "ym2612"
    },
    {
      "channel": 1,
      "note": 67,
      "start": 63.9373,
      "duration": 0.8769,
      "velocity": 116,
      "chip": "ym2612"
    },
    {
      "channel": 0,
      "note": 59,
      "start": 63.9404,
      "duration": 0.8071,
      "velocity": 98,
      "chip": "ym2612"
    },
    {
      "channel": 2,
      "note": 83,
      "start": 64.7007,
      "duration": 0.5481,
      "velocity": 86,
      "chip": "ym2612"
    },
    {
      "channel": 3,
      "note": 55,
      "start": 64.9335,
      "duration": 1.0973,
      "velocity": 127,
      "chip": "ym2612"
    },
    {
      "channel": 4,
      "note": 67,
      "start": 64.9367,
      "duration": 0.3775,
      "velocity": 116,
      "chip": "ym2612"
    },
    {
      "channel": 0,
      "note": 59,
      "start": 65.0001,
      "duration": 0.9641,
      "velocity": 98,
      "chip": "ym2612"
    },
    {
      "channel": 1,
      "note": 83,
      "start": 65.45,
      "duration": 0.1475,
      "velocity": 86,
      "chip": "ym2612"
    },
    {
      "channel": 2,
      "note": 67,
      "start": 65.4531,
      "duration": 0.1277,
      "velocity": 116,
      "chip": "ym2612"
    },
    {
      "channel": 4,
      "note": 67,
      "start": 65.7168,
      "duration": 0.2701,
      "velocity": 116,
      "chip": "ym2612"
    },
    {
      "channel": 2,
      "note": 83,
      "start": 65.7198,
      "duration": 0.2451,
      "velocity": 86,
      "chip": "ym2612"
    },
    {
      "channel": 1,
      "note": 84,
      "start": 65.9834,
      "duration": 0.5309,
      "velocity": 86,
      "chip": "ym2612"
    },
    {
      "channel": 0,
      "note": 69,
      "start": 65.9864,
      "duration": 0.8777,
      "velocity": 116,
      "chip": "ym2612"
    },
    {
      "channel": 2,
      "note": 57,
      "start": 65.9902,
      "duration": 0.7739,
      "velocity": 127,
      "chip": "ym2612"
    },
    {
      "channel": 4,
      "note": 60,
      "start": 66.0002,
      "duration": 0.8307,
      "velocity": 98,
      "chip": "ym2612"
    },
    {
      "channel": 3,
      "note": 84,
      "start": 66.7501,
      "duration": 0.2321,
      "velocity": 86,
      "chip": "ym2612"
    },
    {
      "channel": 1,
      "note": 84,
      "start": 67.0167,
      "duration": 0.2488,
      "velocity": 86,
      "chip": "ym2612"
    },
    {
      "channel": 2,
      "note": 57,
      "start": 67.0198,
      "duration": 1.0444,
      "velocity": 127,
      "chip": "ym2612"
    },
    {
      "channel": 4,
      "note": 69,
      "start": 67.0229,
      "duration": 1.0079,
      "velocity": 116,
      "chip": "ym2612"
    },
    {
      "channel": 0,
      "note": 60,
      "start": 67.026,
      "duration": 0.9215,
      "velocity": 98,
      "chip": "ym2612"
    },
    {
      "channel": 3,
      "note": 83,
      "start": 67.2834,
      "duration": 0.4807,
      "velocity": 86,
      "chip": "ym2612"
    },
    {
      "channel": 1,
      "note": 83,
      "start": 68.0341,
      "duration": 0.5634,
      "velocity": 86,
      "chip": "ym2612"
    },
    {
      "channel": 3,
      "note": 55,
      "start": 68.0372,
      "duration": 0.7769,
      "velocity": 127,
      "chip": "ym2612"
    },
    {
      "channel": 0,
      "note": 71,
      "start": 68.0403,
      "duration": 0.8079,
      "velocity": 116,
      "chip": "ym2612"
    },
    {
      "channel": 4,
      "note": 59,
      "start": 68.0835,
      "duration": 0.7639,
      "velocity": 98,
      "chip": "ym2612"
    },
    {
      "channel": 2,
      "note": 83,
      "start": 68.8,
      "duration": 0.0975,
      "velocity": 86,
      "chip": "ym2612"
    },
    {
      "channel": 1,
      "note": 83,
      "start": 69.0668,
      "duration": 0.2307,
      "velocity": 86,
      "chip": "ym2612"
    },
    {
      "channel": 3,
      "note": 55,
      "start": 69.0699,
      "duration": 1.0778,
      "velocity": 127,
      "chip": "ym2612"
    },
    {
      "channel": 4,
      "note": 71,
      "start": 69.073,
      "duration": 0.3744,
      "velocity": 116,
      "chip": "ym2612"
    },
    {
      "channel": 0,
      "note": 59,
      "start": 69.0761,
      "duration": 0.8715,
      "velocity": 98,
      "chip": "ym2612"
    },
    {
      "channel": 2,
      "note": 84,
      "start": 69.3334,
      "duration": 0.4475,
      "velocity": 86,
      "chip": "ym2612"
    },
    {
      "channel": 1,
      "note": 71,
      "start": 69.5834,
      "duration": 0.1475,
      "velocity": 116,
      "chip": "ym2612"
    },
    {
      "channel": 4,
      "note": 71,
      "start": 69.8169,
      "duration": 0.3344,
      "velocity": 116,
      "chip": "ym2612"
    },
    {
      "channel": 1,
      "note": 81,
      "start": 69.8514,
      "duration": 3.2961,
      "velocity": 86,
      "chip": "ym2612"
    },
    {
      "channel": 2,
      "note": 53,
      "start": 70.0834,
      "duration": 2.9808,
      "velocity": 127,
      "chip": "ym2612"
    },
    {
      "channel": 0,
      "note": 72,
      "start": 70.0865,
      "duration": 3.0944,
      "velocity": 116,
      "chip": "ym2612"
    },
    {
      "channel": 3,
      "note": 57,
      "start": 70.1507,
      "duration": 0.7634,
      "velocity": 98,
      "chip": "ym2612"
    },
    {
      "channel": 4,
      "note": 57,
      "start": 71.1502,
      "duration": 0.7639,
      "velocity": 98,
      "chip": "ym2612"
    },
    {
      "channel": 3,
      "note": 57,
      "start": 72.1668,
      "duration": 0.9307,
      "velocity": 98,
      "chip": "ym2612"
    },
    {
      "channel": 4,
      "note": 83,
      "start": 73.1668,
      "duration": 0.2141,
      "velocity": 86,
      "chip": "ym2612"
    },
    {
      "channel": 2,
      "note": 52,
      "start": 73.1698,
      "duration": 1.0778,
      "velocity": 127,
      "chip": "ym2612"
    },
    {
      "channel": 3,
      "note": 76,
      "start": 73.173,
      "duration": 0.8579,
      "velocity": 116,
      "chip": "ym2612"
    },
    {
      "channel": 1,
      "note": 59,
      "start": 73.2,
      "duration": 1.0204,
      "velocity": 98,
      "chip": "ym2612"
    },
    {
      "channel": 0,
      "note": 80,
      "start": 73.4334,
      "duration": 0.2141,
      "velocity": 86,
      "chip": "ym2612"
    },
    {
      "channel": 4,
      "note": 76,
      "start": 73.6834,
      "duration": 0.2308,
      "velocity": 86,
      "chip": "ym2612"
    },
    {
      "channel": 0,
      "note": 81,
      "start": 73.95,
      "duration": 4.0975,
      "velocity": 86,
      "chip": "ym2612"
    },
    {
      "channel": 4,
      "note": 57,
      "start": 74.2168,
      "duration": 3.8974,
      "velocity": 127,
      "chip": "ym2612"
    },
    {
      "channel": 3,
      "note": 69,
      "start": 74.22,
      "duration": 3.9442,
      "velocity": 116,
      "chip": "ym2612"
    },
    {
      "channel": 1,
      "note": 57,
      "start": 74.2834,
      "duration": 0.7974,
      "velocity": 98,
      "chip": "ym2612"
    },
    {
      "channel": 2,
      "note": 57,
      "start": 75.2334,
      "duration": 0.9308,
      "velocity": 98,
      "chip": "ym2612"
    },
    {
      "channel": 1,
      "note": 57,
      "start": 76.3001,
      "duration": 0.8975,
      "velocity": 98,
      "chip": "ym2612"
    },
    {
      "channel": 2,
      "note": 57,
      "start": 77.3668,
      "duration": 0.6307,
      "velocity": 98,
      "chip": "ym2612"
    },
    {
      "channel": 1,
      "note": 57,
      "start": 81.5668,
      "duration": 0.2474,
      "velocity": 1,
      "chip": "ym2612"
    },
    {
      "channel": 0,
      "note": 81,
      "start": 81.8834,
      "duration": 0.0001,
      "velocity": 86,
      "chip": "ym2612"
    }
  ]
}