{
  "track_name": "10 - Underground",
  "duration_sec": 24.8,
  "sample_rate": 44100,
  "note_count": 304,
  "unique_pitches": 42,
  "pitch_range": 52,
  "avg_note_duration": 0.3435,
  "reconstruction_stats": {
    "notes_reconstructed": 304,
    "keyon_events": 304,
    "keyoff_events": 300,
    "orphan_keyons": 4,
    "unique_pitches": 42,
    "pitch_range": 52,
    "avg_duration_sec": 0.3435
  },
  "metadata": {
    "source": "S\\Splatterhouse 2\\10 - Underground.vgz"
  },
  "notes": [
    {
      "channel": 0,
      "note": 69,
      "start": 0.0734,
      "duration": 0.4611,
      "velocity": 99,
      "chip": "ym2612"
    },
    {
      "channel": 1,
      "note": 57,
      "start": 0.0771,
      "duration": 0.224,
      "velocity": 99,
      "chip": "ym2612"
    },
    {
      "channel": 2,
      "note": 76,
      "start": 0.0807,
      "duration": 0.4556,
      "velocity": 107,
      "chip": "ym2612"
    },
    {
      "channel": 4,
      "note": 69,
      "start": 0.1188,
      "duration": 0.4665,
      "velocity": 107,
      "chip": "ym2612"
    },
    {
      "channel": 1,
      "note": 61,
      "start": 0.3012,
      "duration": 0.2342,
      "velocity": 99,
      "chip": "ym2612"
    },
    {
      "channel": 0,
      "note": 70,
      "start": 0.5346,
      "duration": 0.4666,
      "velocity": 99,
      "chip": "ym2612"
    },
    {
      "channel": 1,
      "note": 65,
      "start": 0.5356,
      "duration": 0.2322,
      "velocity": 99,
      "chip": "ym2612"
    },
    {
      "channel": 2,
      "note": 77,
      "start": 0.5365,
      "duration": 0.4665,
      "velocity": 107,
      "chip": "ym2612"
    },
    {
      "channel": 4,
      "note": 70,
      "start": 0.5853,
      "duration": 0.4665,
      "velocity": 107,
      "chip": "ym2612"
    },
    {
      "channel": 1,
      "note": 61,
      "start": 0.7679,
      "duration": 0.2342,
      "velocity": 99,
      "chip": "ym2612"
    },
    {
      "channel": 0,
      "note": 69,
      "start": 1.0012,
      "duration": 0.2333,
      "velocity": 99,
      "chip": "ym2612"
    },
    {
      "channel": 1,
      "note": 57,
      "start": 1.0022,
      "duration": 0.2332,
      "velocity": 99,
      "chip": "ym2612"
    },
    {
      "channel": 2,
      "note": 76,
      "start": 1.0032,
      "duration": 0.2332,
      "velocity": 107,
      "chip": "ym2612"
    },
    {
      "channel": 4,
      "note": 69,
      "start": 1.052,
      "duration": 0.2333,
      "velocity": 107,
      "chip": "ym2612"
    },
    {
      "channel": 0,
      "note": 69,
      "start": 1.2346,
      "duration": 0.2335,
      "velocity": 99,
      "chip": "ym2612"
    },
    {
      "channel": 1,
      "note": 61,
      "start": 1.2356,
      "duration": 0.2335,
      "velocity": 99,
      "chip": "ym2612"
    },
    {
      "channel": 2,
      "note": 76,
      "start": 1.2365,
      "duration": 0.2335,
      "velocity": 107,
      "chip": "ym2612"
    },
    {
      "channel": 4,
      "note": 69,
      "start": 1.2854,
      "duration": 0.2334,
      "velocity": 107,
      "chip": "ym2612"
    },
    {
      "channel": 0,
      "note": 70,
      "start": 1.4682,
      "duration": 0.4666,
      "velocity": 99,
      "chip": "ym2612"
    },
    {
      "channel": 1,
      "note": 65,
      "start": 1.4692,
      "duration": 0.2322,
      "velocity": 99,
      "chip": "ym2612"
    },
    {
      "channel": 2,
      "note": 77,
      "start": 1.4702,
      "duration": 0.4665,
      "velocity": 107,
      "chip": "ym2612"
    },
    {
      "channel": 3,
      "note": 69,
      "start": 1.4711,
      "duration": 0.1141,
      "velocity": 87,
      "chip": "ym2612"
    },
    {
      "channel": 4,
      "note": 70,
      "start": 1.519,
      "duration": 0.4663,
      "velocity": 107,
      "chip": "ym2612"
    },
    {
      "channel": 3,
      "note": 72,
      "start": 1.5854,
      "duration": 0.1173,
      "velocity": 87,
      "chip": "ym2612"
    },
    {
      "channel": 1,
      "note": 61,
      "start": 1.7015,
      "duration": 0.2343,
      "velocity": 99,
      "chip": "ym2612"
    },
    {
      "channel": 3,
      "note": 71,
      "start": 1.7028,
      "duration": 0.1159,
      "velocity": 87,
      "chip": "ym2612"
    },
    {
      "channel": 3,
      "note": 72,
      "start": 1.8188,
      "duration": 0.1186,
      "velocity": 87,
      "chip": "ym2612"
    },
    {
      "channel": 0,
      "note": 69,
      "start": 1.9349,
      "duration": 0.4662,
      "velocity": 99,
      "chip": "ym2612"
    },
    {
      "channel": 1,
      "note": 57,
      "start": 1.9359,
      "duration": 0.2319,
      "velocity": 99,
      "chip": "ym2612"
    },
    {
      "channel": 2,
      "note": 76,
      "start": 1.9368,
      "duration": 0.4662,
      "velocity": 107,
      "chip": "ym2612"
    },
    {
      "channel": 4,
      "note": 69,
      "start": 1.9854,
      "duration": 0.4665,
      "velocity": 107,
      "chip": "ym2612"
    },
    {
      "channel": 1,
      "note": 61,
      "start": 2.168,
      "duration": 0.2341,
      "velocity": 99,
      "chip": "ym2612"
    },
    {
      "channel": 0,
      "note": 71,
      "start": 2.4013,
      "duration": 0.4665,
      "velocity": 99,
      "chip": "ym2612"
    },
    {
      "channel": 1,
      "note": 65,
      "start": 2.4022,
      "duration": 0.2322,
      "velocity": 99,
      "chip": "ym2612"
    },
    {
      "channel": 2,
      "note": 78,
      "start": 2.4032,
      "duration": 0.4665,
      "velocity": 107,
      "chip": "ym2612"
    },
    {
      "channel": 4,
      "note": 71,
      "start": 2.4521,
      "duration": 0.4665,
      "velocity": 107,
      "chip": "ym2612"
    },
    {
      "channel": 1,
      "note": 61,
      "start": 2.6346,
      "duration": 0.2342,
      "velocity": 99,
      "chip": "ym2612"
    },
    {
      "channel": 0,
      "note": 69,
      "start": 2.8679,
      "duration": 0.2333,
      "velocity": 99,
      "chip": "ym2612"
    },
    {
      "channel": 1,
      "note": 57,
      "start": 2.8689,
      "duration": 0.2332,
      "velocity": 99,
      "chip": "ym2612"
    },
    {
      "channel": 2,
      "note": 76,
      "start": 2.8699,
      "duration": 0.2332,
      "velocity": 107,
      "chip": "ym2612"
    },
    {
      "channel": 4,
      "note": 69,
      "start": 2.9187,
      "duration": 0.2333,
      "velocity": 107,
      "chip": "ym2612"
    },
    {
      "channel": 0,
      "note": 69,
      "start": 3.1012,
      "duration": 0.2335,
      "velocity": 99,
      "chip": "ym2612"
    },
    {
      "channel": 1,
      "note": 61,
      "start": 3.1022,
      "duration": 0.2335,
      "velocity": 99,
      "chip": "ym2612"
    },
    {
      "channel": 2,
      "note": 76,
      "start": 3.1032,
      "duration": 0.2335,
      "velocity": 107,
      "chip": "ym2612"
    },
    {
      "channel": 4,
      "note": 69,
      "start": 3.1521,
      "duration": 0.2334,
      "velocity": 107,
      "chip": "ym2612"
    },
    {
      "channel": 0,
      "note": 72,
      "start": 3.3349,
      "duration": 0.4668,
      "velocity": 99,
      "chip": "ym2612"
    },
    {
      "channel": 1,
      "note": 65,
      "start": 3.3358,
      "duration": 0.2323,
      "velocity": 99,
      "chip": "ym2612"
    },
    {
      "channel": 2,
      "note": 79,
      "start": 3.3368,
      "duration": 0.4668,
      "velocity": 107,
      "chip": "ym2612"
    },
    {
      "channel": 3,
      "note": 68,
      "start": 3.3378,
      "duration": 0.1141,
      "velocity": 87,
      "chip": "ym2612"
    },
    {
      "channel": 4,
      "note": 72,
      "start": 3.3856,
      "duration": 0.4663,
      "velocity": 107,
      "chip": "ym2612"
    },
    {
      "channel": 3,
      "note": 72,
      "start": 3.4521,
      "duration": 0.1173,
      "velocity": 87,
      "chip": "ym2612"
    },
    {
      "channel": 1,
      "note": 61,
      "start": 3.5682,
      "duration": 0.2345,
      "velocity": 99,
      "chip": "ym2612"
    },
    {
      "channel": 3,
      "note": 71,
      "start": 3.5695,
      "duration": 0.1159,
      "velocity": 87,
      "chip": "ym2612"
    },
    {
      "channel": 3,
      "note": 72,
      "start": 3.6855,
      "duration": 0.1188,
      "velocity": 87,
      "chip": "ym2612"
    },
    {
      "channel": 0,
      "note": 69,
      "start": 3.8018,
      "duration": 0.466,
      "velocity": 99,
      "chip": "ym2612"
    },
    {
      "channel": 1,
      "note": 57,
      "start": 3.8027,
      "duration": 0.2317,
      "velocity": 99,
      "chip": "ym2612"
    },
    {
      "channel": 2,
      "note": 76,
      "start": 3.8038,
      "duration": 0.466,
      "velocity": 107,
      "chip": "ym2612"
    },
    {
      "channel": 4,
      "note": 69,
      "start": 3.8521,
      "duration": 0.4665,
      "velocity": 107,
      "chip": "ym2612"
    },
    {
      "channel": 1,
      "note": 61,
      "start": 4.0346,
      "duration": 0.2341,
      "velocity": 99,
      "chip": "ym2612"
    },
    {
      "channel": 0,
      "note": 73,
      "start": 4.2679,
      "duration": 0.4666,
      "velocity": 99,
      "chip": "ym2612"
    },
    {
      "channel": 1,
      "note": 65,
      "start": 4.2689,
      "duration": 0.2322,
      "velocity": 99,
      "chip": "ym2612"
    },
    {
      "channel": 2,
      "note": 80,
      "start": 4.2699,
      "duration": 0.4665,
      "velocity": 107,
      "chip": "ym2612"
    },
    {
      "channel": 4,
      "note": 73,
      "start": 4.3187,
      "duration": 0.4665,
      "velocity": 107,
      "chip": "ym2612"
    },
    {
      "channel": 1,
      "note": 61,
      "start": 4.5013,
      "duration": 0.2341,
      "velocity": 99,
      "chip": "ym2612"
    },
    {
      "channel": 0,
      "note": 69,
      "start": 4.7346,
      "duration": 0.2333,
      "velocity": 99,
      "chip": "ym2612"
    },
    {
      "channel": 1,
      "note": 57,
      "start": 4.7356,
      "duration": 0.2332,
      "velocity": 99,
      "chip": "ym2612"
    },
    {
      "channel": 2,
      "note": 76,
      "start": 4.7365,
      "duration": 0.2332,
      "velocity": 107,
      "chip": "ym2612"
    },
    {
      "channel": 4,
      "note": 69,
      "start": 4.7853,
      "duration": 0.2333,
      "velocity": 107,
      "chip": "ym2612"
    },
    {
      "channel": 0,
      "note": 69,
      "start": 4.9679,
      "duration": 0.2335,
      "velocity": 99,
      "chip": "ym2612"
    },
    {
      "channel": 1,
      "note": 61,
      "start": 4.9689,
      "duration": 0.2335,
      "velocity": 99,
      "chip": "ym2612"
    },
    {
      "channel": 2,
      "note": 76,
      "start": 4.9699,
      "duration": 0.2335,
      "velocity": 107,
      "chip": "ym2612"
    },
    {
      "channel": 4,
      "note": 69,
      "start": 5.0187,
      "duration": 0.2334,
      "velocity": 107,
      "chip": "ym2612"
    },
    {
      "channel": 0,
      "note": 74,
      "start": 5.2015,
      "duration": 0.4666,
      "velocity": 99,
      "chip": "ym2612"
    },
    {
      "channel": 1,
      "note": 65,
      "start": 5.2025,
      "duration": 0.2322,
      "velocity": 99,
      "chip": "ym2612"
    },
    {
      "channel": 2,
      "note": 81,
      "start": 5.2034,
      "duration": 0.4667,
      "velocity": 107,
      "chip": "ym2612"
    },
    {
      "channel": 3,
      "note": 69,
      "start": 5.2045,
      "duration": 0.1141,
      "velocity": 87,
      "chip": "ym2612"
    },
    {
      "channel": 4,
      "note": 74,
      "start": 5.2522,
      "duration": 0.4663,
      "velocity": 107,
      "chip": "ym2612"
    },
    {
      "channel": 3,
      "note": 72,
      "start": 5.3187,
      "duration": 0.1173,
      "velocity": 87,
      "chip": "ym2612"
    },
    {
      "channel": 1,
      "note": 61,
      "start": 5.4348,
      "duration": 0.2344,
      "velocity": 99,
      "chip": "ym2612"
    },
    {
      "channel": 3,
      "note": 71,
      "start": 5.4361,
      "duration": 0.1159,
      "velocity": 87,
      "chip": "ym2612"
    },
    {
      "channel": 3,
      "note": 72,
      "start": 5.5521,
      "duration": 0.1187,
      "velocity": 87,
      "chip": "ym2612"
    },
    {
      "channel": 0,
      "note": 69,
      "start": 5.6683,
      "duration": 0.4663,
      "velocity": 99,
      "chip": "ym2612"
    },
    {
      "channel": 1,
      "note": 61,
      "start": 5.6692,
      "duration": 0.232,
      "velocity": 99,
      "chip": "ym2612"
    },
    {
      "channel": 2,
      "note": 76,
      "start": 5.6702,
      "duration": 0.4663,
      "velocity": 107,
      "chip": "ym2612"
    },
    {
      "channel": 4,
      "note": 69,
      "start": 5.7187,
      "duration": 0.4665,
      "velocity": 107,
      "chip": "ym2612"
    },
    {
      "channel": 1,
      "note": 57,
      "start": 5.9013,
      "duration": 0.2342,
      "velocity": 99,
      "chip": "ym2612"
    },
    {
      "channel": 0,
      "note": 75,
      "start": 6.1347,
      "duration": 0.4665,
      "velocity": 99,
      "chip": "ym2612"
    },
    {
      "channel": 1,
      "note": 65,
      "start": 6.1356,
      "duration": 0.2322,
      "velocity": 99,
      "chip": "ym2612"
    },
    {
      "channel": 2,
      "note": 82,
      "start": 6.1366,
      "duration": 0.4665,
      "velocity": 107,
      "chip": "ym2612"
    },
    {
      "channel": 4,
      "note": 75,
      "start": 6.1853,
      "duration": 0.4666,
      "velocity": 107,
      "chip": "ym2612"
    },
    {
      "channel": 1,
      "note": 61,
      "start": 6.368,
      "duration": 0.2341,
      "velocity": 99,
      "chip": "ym2612"
    },
    {
      "channel": 0,
      "note": 74,
      "start": 6.6012,
      "duration": 0.4669,
      "velocity": 99,
      "chip": "ym2612"
    },
    {
      "channel": 1,
      "note": 61,
      "start": 6.6022,
      "duration": 0.2322,
      "velocity": 99,
      "chip": "ym2612"
    },
    {
      "channel": 2,
      "note": 81,
      "start": 6.6032,
      "duration": 0.4668,
      "velocity": 107,
      "chip": "ym2612"
    },
    {
      "channel": 4,
      "note": 74,
      "start": 6.652,
      "duration": 0.4668,
      "velocity": 107,
      "chip": "ym2612"
    },
    {
      "channel": 1,
      "note": 57,
      "start": 6.8346,
      "duration": 0.2345,
      "velocity": 99,
      "chip": "ym2612"
    },
    {
      "channel": 0,
      "note": 73,
      "start": 7.0682,
      "duration": 0.2332,
      "velocity": 99,
      "chip": "ym2612"
    },
    {
      "channel": 1,
      "note": 65,
      "start": 7.0692,
      "duration": 0.2332,
      "velocity": 99,
      "chip": "ym2612"
    },
    {
      "channel": 2,
      "note": 80,
      "start": 7.0702,
      "duration": 0.2332,
      "velocity": 107,
      "chip": "ym2612"
    },
    {
      "channel": 3,
      "note": 68,
      "start": 7.0711,
      "duration": 0.1141,
      "velocity": 87,
      "chip": "ym2612"
    },
    {
      "channel": 4,
      "note": 73,
      "start": 7.119,
      "duration": 0.2332,
      "velocity": 107,
      "chip": "ym2612"
    },
    {
      "channel": 3,
      "note": 72,
      "start": 7.1854,
      "duration": 0.1189,
      "velocity": 87,
      "chip": "ym2612"
    },
    {
      "channel": 0,
      "note": 72,
      "start": 7.3015,
      "duration": 0.2335,
      "velocity": 99,
      "chip": "ym2612"
    },
    {
      "channel": 1,
      "note": 61,
      "start": 7.3024,
      "duration": 0.2335,
      "velocity": 99,
      "chip": "ym2612"
    },
    {
      "channel": 2,
      "note": 79,
      "start": 7.3034,
      "duration": 0.2335,
      "velocity": 107,
      "chip": "ym2612"
    },
    {
      "channel": 3,
      "note": 71,
      "start": 7.3044,
      "duration": 0.1143,
      "velocity": 87,
      "chip": "ym2612"
    },
    {
      "channel": 4,
      "note": 72,
      "start": 7.3522,
      "duration": 0.2329,
      "velocity": 107,
      "chip": "ym2612"
    },
    {
      "channel": 3,
      "note": 72,
      "start": 7.4188,
      "duration": 0.1188,
      "velocity": 87,
      "chip": "ym2612"
    },
    {
      "channel": 0,
      "note": 71,
      "start": 7.5351,
      "duration": 0.4661,
      "velocity": 99,
      "chip": "ym2612"
    },
    {
      "channel": 1,
      "note": 61,
      "start": 7.5361,
      "duration": 0.2318,
      "velocity": 99,
      "chip": "ym2612"
    },
    {
      "channel": 2,
      "note": 78,
      "start": 7.5371,
      "duration": 0.4661,
      "velocity": 107,
      "chip": "ym2612"
    },
    {
      "channel": 4,
      "note": 71,
      "start": 7.5853,
      "duration": 0.4665,
      "velocity": 107,
      "chip": "ym2612"
    },
    {
      "channel": 1,
      "note": 57,
      "start": 7.768,
      "duration": 0.2341,
      "velocity": 99,
      "chip": "ym2612"
    },
    {
      "channel": 0,
      "note": 72,
      "start": 8.0013,
      "duration": 3.2671,
      "velocity": 99,
      "chip": "ym2612"
    },
    {
      "channel": 1,
      "note": 65,
      "start": 8.0022,
      "duration": 0.2322,
      "velocity": 99,
      "chip": "ym2612"
    },
    {
      "channel": 2,
      "note": 79,
      "start": 8.0032,
      "duration": 3.2672,
      "velocity": 107,
      "chip": "ym2612"
    },
    {
      "channel": 4,
      "note": 72,
      "start": 8.052,
      "duration": 3.2667,
      "velocity": 107,
      "chip": "ym2612"
    },
    {
      "channel": 1,
      "note": 61,
      "start": 8.2346,
      "duration": 0.2333,
      "velocity": 99,
      "chip": "ym2612"
    },
    {
      "channel": 1,
      "note": 61,
      "start": 8.468,
      "duration": 0.2332,
      "velocity": 99,
      "chip": "ym2612"
    },
    {
      "channel": 1,
      "note": 57,
      "start": 8.7013,
      "duration": 0.2333,
      "velocity": 99,
      "chip": "ym2612"
    },
    {
      "channel": 1,
      "note": 65,
      "start": 8.9348,
      "duration": 0.2332,
      "velocity": 99,
      "chip": "ym2612"
    },
    {
      "channel": 3,
      "note": 69,
      "start": 8.936,
      "duration": 0.1157,
      "velocity": 87,
      "chip": "ym2612"
    },
    {
      "channel": 3,
      "note": 72,
      "start": 9.0518,
      "duration": 0.1173,
      "velocity": 87,
      "chip": "ym2612"
    },
    {
      "channel": 1,
      "note": 61,
      "start": 9.168,
      "duration": 0.2336,
      "velocity": 99,
      "chip": "ym2612"
    },
    {
      "channel": 3,
      "note": 71,
      "start": 9.1692,
      "duration": 0.1159,
      "velocity": 87,
      "chip": "ym2612"
    },
    {
      "channel": 3,
      "note": 72,
      "start": 9.2852,
      "duration": 0.1173,
      "velocity": 87,
      "chip": "ym2612"
    },
    {
      "channel": 1,
      "note": 60,
      "start": 9.4017,
      "duration": 0.2326,
      "velocity": 99,
      "chip": "ym2612"
    },
    {
      "channel": 1,
      "note": 57,
      "start": 9.6345,
      "duration": 0.2332,
      "velocity": 99,
      "chip": "ym2612"
    },
    {
      "channel": 1,
      "note": 53,
      "start": 9.8678,
      "duration": 0.2333,
      "velocity": 99,
      "chip": "ym2612"
    },
    {
      "channel": 1,
      "note": 57,
      "start": 10.1012,
      "duration": 0.2332,
      "velocity": 99,
      "chip": "ym2612"
    },
    {
      "channel": 1,
      "note": 59,
      "start": 10.3345,
      "duration": 0.2332,
      "velocity": 99,
      "chip": "ym2612"
    },
    {
      "channel": 1,
      "note": 56,
      "start": 10.5678,
      "duration": 0.2335,
      "velocity": 99,
      "chip": "ym2612"
    },
    {
      "channel": 1,
      "note": 53,
      "start": 10.8015,
      "duration": 0.2332,
      "velocity": 99,
      "chip": "ym2612"
    },
    {
      "channel": 3,
      "note": 68,
      "start": 10.8027,
      "duration": 0.1157,
      "velocity": 87,
      "chip": "ym2612"
    },
    {
      "channel": 3,
      "note": 72,
      "start": 10.9185,
      "duration": 0.1173,
      "velocity": 87,
      "chip": "ym2612"
    },
    {
      "channel": 1,
      "note": 56,
      "start": 11.0348,
      "duration": 0.2346,
      "velocity": 99,
      "chip": "ym2612"
    },
    {
      "channel": 3,
      "note": 71,
      "start": 11.0359,
      "duration": 0.1159,
      "velocity": 87,
      "chip": "ym2612"
    },
    {
      "channel": 3,
      "note": 72,
      "start": 11.1519,
      "duration": 0.1191,
      "velocity": 87,
      "chip": "ym2612"
    },
    {
      "channel": 0,
      "note": 81,
      "start": 11.2685,
      "duration": 0.466,
      "velocity": 99,
      "chip": "ym2612"
    },
    {
      "channel": 1,
      "note": 45,
      "start": 11.2695,
      "duration": 0.2317,
      "velocity": 99,
      "chip": "ym2612"
    },
    {
      "channel": 2,
      "note": 88,
      "start": 11.2704,
      "duration": 0.466,
      "velocity": 107,
      "chip": "ym2612"
    },
    {
      "channel": 4,
      "note": 81,
      "start": 11.3187,
      "duration": 0.4665,
      "velocity": 107,
      "chip": "ym2612"
    },
    {
      "channel": 1,
      "note": 49,
      "start": 11.5013,
      "duration": 0.2341,
      "velocity": 99,
      "chip": "ym2612"
    },
    {
      "channel": 0,
      "note": 82,
      "start": 11.7346,
      "duration": 0.4665,
      "velocity": 99,
      "chip": "ym2612"
    },
    {
      "channel": 1,
      "note": 53,
      "start": 11.7356,
      "duration": 0.2322,
      "velocity": 99,
      "chip": "ym2612"
    },
    {
      "channel": 2,
      "note": 89,
      "start": 11.7365,
      "duration": 0.4665,
      "velocity": 107,
      "chip": "ym2612"
    },
    {
      "channel": 4,
      "note": 82,
      "start": 11.7853,
      "duration": 0.4665,
      "velocity": 107,
      "chip": "ym2612"
    },
    {
      "channel": 1,
      "note": 49,
      "start": 11.968,
      "duration": 0.2341,
      "velocity": 99,
      "chip": "ym2612"
    },
    {
      "channel": 0,
      "note": 81,
      "start": 12.2012,
      "duration": 0.2333,
      "velocity": 99,
      "chip": "ym2612"
    },
    {
      "channel": 1,
      "note": 45,
      "start": 12.2022,
      "duration": 0.2332,
      "velocity": 99,
      "chip": "ym2612"
    },
    {
      "channel": 2,
      "note": 88,
      "start": 12.2032,
      "duration": 0.2332,
      "velocity": 107,
      "chip": "ym2612"
    },
    {
      "channel": 4,
      "note": 81,
      "start": 12.2519,
      "duration": 0.2333,
      "velocity": 107,
      "chip": "ym2612"
    },
    {
      "channel": 0,
      "note": 81,
      "start": 12.4346,
      "duration": 0.2335,
      "velocity": 99,
      "chip": "ym2612"
    },
    {
      "channel": 1,
      "note": 49,
      "start": 12.4356,
      "duration": 0.2335,
      "velocity": 99,
      "chip": "ym2612"
    },
    {
      "channel": 2,
      "note": 88,
      "start": 12.4365,
      "duration": 0.2335,
      "velocity": 107,
      "chip": "ym2612"
    },
    {
      "channel": 4,
      "note": 81,
      "start": 12.4853,
      "duration": 0.2335,
      "velocity": 107,
      "chip": "ym2612"
    },
    {
      "channel": 0,
      "note": 82,
      "start": 12.6682,
      "duration": 0.4666,
      "velocity": 99,
      "chip": "ym2612"
    },
    {
      "channel": 1,
      "note": 53,
      "start": 12.6692,
      "duration": 0.2322,
      "velocity": 99,
      "chip": "ym2612"
    },
    {
      "channel": 2,
      "note": 89,
      "start": 12.6701,
      "duration": 0.4667,
      "velocity": 107,
      "chip": "ym2612"
    },
    {
      "channel": 3,
      "note": 69,
      "start": 12.6711,
      "duration": 0.1141,
      "velocity": 87,
      "chip": "ym2612"
    },
    {
      "channel": 4,
      "note": 82,
      "start": 12.719,
      "duration": 0.4663,
      "velocity": 107,
      "chip": "ym2612"
    },
    {
      "channel": 3,
      "note": 72,
      "start": 12.7853,
      "duration": 0.1173,
      "velocity": 87,
      "chip": "ym2612"
    },
    {
      "channel": 1,
      "note": 49,
      "start": 12.9014,
      "duration": 0.2344,
      "velocity": 99,
      "chip": "ym2612"
    },
    {
      "channel": 3,
      "note": 71,
      "start": 12.9027,
      "duration": 0.1159,
      "velocity": 87,
      "chip": "ym2612"
    },
    {
      "channel": 3,
      "note": 72,
      "start": 13.0187,
      "duration": 0.1187,
      "velocity": 87,
      "chip": "ym2612"
    },
    {
      "channel": 0,
      "note": 81,
      "start": 13.1349,
      "duration": 0.4662,
      "velocity": 99,
      "chip": "ym2612"
    },
    {
      "channel": 1,
      "note": 45,
      "start": 13.1359,
      "duration": 0.2319,
      "velocity": 99,
      "chip": "ym2612"
    },
    {
      "channel": 2,
      "note": 88,
      "start": 13.1369,
      "duration": 0.4661,
      "velocity": 107,
      "chip": "ym2612"
    },
    {
      "channel": 4,
      "note": 81,
      "start": 13.1853,
      "duration": 0.4666,
      "velocity": 107,
      "chip": "ym2612"
    },
    {
      "channel": 1,
      "note": 49,
      "start": 13.368,
      "duration": 0.2341,
      "velocity": 99,
      "chip": "ym2612"
    },
    {
      "channel": 0,
      "note": 83,
      "start": 13.6013,
      "duration": 0.4665,
      "velocity": 99,
      "chip": "ym2612"
    },
    {
      "channel": 1,
      "note": 53,
      "start": 13.6022,
      "duration": 0.2322,
      "velocity": 99,
      "chip": "ym2612"
    },
    {
      "channel": 2,
      "note": 90,
      "start": 13.6032,
      "duration": 0.4665,
      "velocity": 107,
      "chip": "ym2612"
    },
    {
      "channel": 4,
      "note": 83,
      "start": 13.6521,
      "duration": 0.4665,
      "velocity": 107,
      "chip": "ym2612"
    },
    {
      "channel": 1,
      "note": 49,
      "start": 13.8346,
      "duration": 0.2342,
      "velocity": 99,
      "chip": "ym2612"
    },
    {
      "channel": 0,
      "note": 81,
      "start": 14.0679,
      "duration": 0.2333,
      "velocity": 99,
      "chip": "ym2612"
    },
    {
      "channel": 1,
      "note": 45,
      "start": 14.0689,
      "duration": 0.2332,
      "velocity": 99,
      "chip": "ym2612"
    },
    {
      "channel": 2,
      "note": 88,
      "start": 14.0699,
      "duration": 0.2333,
      "velocity": 107,
      "chip": "ym2612"
    },
    {
      "channel": 4,
      "note": 81,
      "start": 14.1187,
      "duration": 0.2332,
      "velocity": 107,
      "chip": "ym2612"
    },
    {
      "channel": 0,
      "note": 81,
      "start": 14.3013,
      "duration": 0.2335,
      "velocity": 99,
      "chip": "ym2612"
    },
    {
      "channel": 1,
      "note": 49,
      "start": 14.3022,
      "duration": 0.2335,
      "velocity": 99,
      "chip": "ym2612"
    },
    {
      "channel": 2,
      "note": 88,
      "start": 14.3032,
      "duration": 0.2335,
      "velocity": 107,
      "chip": "ym2612"
    },
    {
      "channel": 4,
      "note": 81,
      "start": 14.352,
      "duration": 0.2335,
      "velocity": 107,
      "chip": "ym2612"
    },
    {
      "channel": 0,
      "note": 84,
      "start": 14.5349,
      "duration": 0.4668,
      "velocity": 99,
      "chip": "ym2612"
    },
    {
      "channel": 1,
      "note": 53,
      "start": 14.5359,
      "duration": 0.2322,
      "velocity": 99,
      "chip": "ym2612"
    },
    {
      "channel": 2,
      "note": 91,
      "start": 14.5368,
      "duration": 0.4667,
      "velocity": 107,
      "chip": "ym2612"
    },
    {
      "channel": 3,
      "note": 68,
      "start": 14.5378,
      "duration": 0.1141,
      "velocity": 87,
      "chip": "ym2612"
    },
    {
      "channel": 4,
      "note": 84,
      "start": 14.5856,
      "duration": 0.4662,
      "velocity": 107,
      "chip": "ym2612"
    },
    {
      "channel": 3,
      "note": 72,
      "start": 14.6521,
      "duration": 0.1173,
      "velocity": 87,
      "chip": "ym2612"
    },
    {
      "channel": 1,
      "note": 49,
      "start": 14.7682,
      "duration": 0.2344,
      "velocity": 99,
      "chip": "ym2612"
    },
    {
      "channel": 3,
      "note": 71,
      "start": 14.7695,
      "duration": 0.1159,
      "velocity": 87,
      "chip": "ym2612"
    },
    {
      "channel": 3,
      "note": 72,
      "start": 14.8854,
      "duration": 0.1188,
      "velocity": 87,
      "chip": "ym2612"
    },
    {
      "channel": 0,
      "note": 81,
      "start": 15.0017,
      "duration": 0.4661,
      "velocity": 99,
      "chip": "ym2612"
    },
    {
      "channel": 1,
      "note": 49,
      "start": 15.0027,
      "duration": 0.2318,
      "velocity": 99,
      "chip": "ym2612"
    },
    {
      "channel": 2,
      "note": 88,
      "start": 15.0037,
      "duration": 0.4661,
      "velocity": 107,
      "chip": "ym2612"
    },
    {
      "channel": 4,
      "note": 81,
      "start": 15.052,
      "duration": 0.4665,
      "velocity": 107,
      "chip": "ym2612"
    },
    {
      "channel": 1,
      "note": 45,
      "start": 15.2346,
      "duration": 0.2341,
      "velocity": 99,
      "chip": "ym2612"
    },
    {
      "channel": 0,
      "note": 85,
      "start": 15.468,
      "duration": 0.4665,
      "velocity": 99,
      "chip": "ym2612"
    },
    {
      "channel": 1,
      "note": 53,
      "start": 15.4689,
      "duration": 0.2322,
      "velocity": 99,
      "chip": "ym2612"
    },
    {
      "channel": 2,
      "note": 92,
      "start": 15.4699,
      "duration": 0.4665,
      "velocity": 107,
      "chip": "ym2612"
    },
    {
      "channel": 4,
      "note": 85,
      "start": 15.5187,
      "duration": 0.4665,
      "velocity": 107,
      "chip": "ym2612"
    },
    {
      "channel": 1,
      "note": 49,
      "start": 15.7013,
      "duration": 0.2341,
      "velocity": 99,
      "chip": "ym2612"
    },
    {
      "channel": 0,
      "note": 81,
      "start": 15.9346,
      "duration": 0.2333,
      "velocity": 99,
      "chip": "ym2612"
    },
    {
      "channel": 1,
      "note": 49,
      "start": 15.9356,
      "duration": 0.2332,
      "velocity": 99,
      "chip": "ym2612"
    },
    {
      "channel": 2,
      "note": 88,
      "start": 15.9365,
      "duration": 0.2332,
      "velocity": 107,
      "chip": "ym2612"
    },
    {
      "channel": 4,
      "note": 81,
      "start": 15.9853,
      "duration": 0.2333,
      "velocity": 107,
      "chip": "ym2612"
    },
    {
      "channel": 0,
      "note": 81,
      "start": 16.1679,
      "duration": 0.2335,
      "velocity": 99,
      "chip": "ym2612"
    },
    {
      "channel": 1,
      "note": 45,
      "start": 16.1689,
      "duration": 0.2335,
      "velocity": 99,
      "chip": "ym2612"
    },
    {
      "channel": 2,
      "note": 88,
      "start": 16.1699,
      "duration": 0.2335,
      "velocity": 107,
      "chip": "ym2612"
    },
    {
      "channel": 4,
      "note": 81,
      "start": 16.2187,
      "duration": 0.2334,
      "velocity": 107,
      "chip": "ym2612"
    },
    {
      "channel": 0,
      "note": 86,
      "start": 16.4015,
      "duration": 0.4666,
      "velocity": 99,
      "chip": "ym2612"
    },
    {
      "channel": 1,
      "note": 53,
      "start": 16.4025,
      "duration": 0.2322,
      "velocity": 99,
      "chip": "ym2612"
    },
    {
      "channel": 2,
      "note": 93,
      "start": 16.4034,
      "duration": 0.4667,
      "velocity": 107,
      "chip": "ym2612"
    },
    {
      "channel": 3,
      "note": 69,
      "start": 16.4045,
      "duration": 0.1141,
      "velocity": 87,
      "chip": "ym2612"
    },
    {
      "channel": 4,
      "note": 86,
      "start": 16.4522,
      "duration": 0.4663,
      "velocity": 107,
      "chip": "ym2612"
    },
    {
      "channel": 3,
      "note": 72,
      "start": 16.5187,
      "duration": 0.1173,
      "velocity": 87,
      "chip": "ym2612"
    },
    {
      "channel": 1,
      "note": 49,
      "start": 16.6348,
      "duration": 0.2344,
      "velocity": 99,
      "chip": "ym2612"
    },
    {
      "channel": 3,
      "note": 71,
      "start": 16.6361,
      "duration": 0.1159,
      "velocity": 87,
      "chip": "ym2612"
    },
    {
      "channel": 3,
      "note": 72,
      "start": 16.7521,
      "duration": 0.1187,
      "velocity": 87,
      "chip": "ym2612"
    },
    {
      "channel": 0,
      "note": 81,
      "start": 16.8683,
      "duration": 0.4663,
      "velocity": 99,
      "chip": "ym2612"
    },
    {
      "channel": 1,
      "note": 49,
      "start": 16.8692,
      "duration": 0.232,
      "velocity": 99,
      "chip": "ym2612"
    },
    {
      "channel": 2,
      "note": 88,
      "start": 16.8702,
      "duration": 0.4663,
      "velocity": 107,
      "chip": "ym2612"
    },
    {
      "channel": 4,
      "note": 81,
      "start": 16.9187,
      "duration": 0.4666,
      "velocity": 107,
      "chip": "ym2612"
    },
    {
      "channel": 1,
      "note": 45,
      "start": 17.1013,
      "duration": 0.2342,
      "velocity": 99,
      "chip": "ym2612"
    },
    {
      "channel": 0,
      "note": 87,
      "start": 17.3347,
      "duration": 0.6998,
      "velocity": 99,
      "chip": "ym2612"
    },
    {
      "channel": 1,
      "note": 53,
      "start": 17.3356,
      "duration": 0.2322,
      "velocity": 99,
      "chip": "ym2612"
    },
    {
      "channel": 2,
      "note": 94,
      "start": 17.3366,
      "duration": 0.6998,
      "velocity": 107,
      "chip": "ym2612"
    },
    {
      "channel": 4,
      "note": 87,
      "start": 17.3854,
      "duration": 0.6999,
      "velocity": 107,
      "chip": "ym2612"
    },
    {
      "channel": 1,
      "note": 49,
      "start": 17.568,
      "duration": 0.2332,
      "velocity": 99,
      "chip": "ym2612"
    },
    {
      "channel": 1,
      "note": 49,
      "start": 17.8013,
      "duration": 0.2341,
      "velocity": 99,
      "chip": "ym2612"
    },
    {
      "channel": 0,
      "note": 86,
      "start": 18.0346,
      "duration": 0.2335,
      "velocity": 99,
      "chip": "ym2612"
    },
    {
      "channel": 1,
      "note": 45,
      "start": 18.0356,
      "duration": 0.2335,
      "velocity": 99,
      "chip": "ym2612"
    },
    {
      "channel": 2,
      "note": 93,
      "start": 18.0365,
      "duration": 0.2335,
      "velocity": 107,
      "chip": "ym2612"
    },
    {
      "channel": 4,
      "note": 86,
      "start": 18.0854,
      "duration": 0.2334,
      "velocity": 107,
      "chip": "ym2612"
    },
    {
      "channel": 0,
      "note": 85,
      "start": 18.2682,
      "duration": 0.2332,
      "velocity": 99,
      "chip": "ym2612"
    },
    {
      "channel": 1,
      "note": 53,
      "start": 18.2692,
      "duration": 0.2332,
      "velocity": 99,
      "chip": "ym2612"
    },
    {
      "channel": 2,
      "note": 92,
      "start": 18.2702,
      "duration": 0.2332,
      "velocity": 107,
      "chip": "ym2612"
    },
    {
      "channel": 3,
      "note": 68,
      "start": 18.2711,
      "duration": 0.1141,
      "velocity": 87,
      "chip": "ym2612"
    },
    {
      "channel": 4,
      "note": 85,
      "start": 18.319,
      "duration": 0.2332,
      "velocity": 107,
      "chip": "ym2612"
    },
    {
      "channel": 3,
      "note": 72,
      "start": 18.3854,
      "duration": 0.1189,
      "velocity": 87,
      "chip": "ym2612"
    },
    {
      "channel": 0,
      "note": 84,
      "start": 18.5015,
      "duration": 0.2335,
      "velocity": 99,
      "chip": "ym2612"
    },
    {
      "channel": 1,
      "note": 49,
      "start": 18.5024,
      "duration": 0.2335,
      "velocity": 99,
      "chip": "ym2612"
    },
    {
      "channel": 2,
      "note": 91,
      "start": 18.5034,
      "duration": 0.2334,
      "velocity": 107,
      "chip": "ym2612"
    },
    {
      "channel": 3,
      "note": 71,
      "start": 18.5044,
      "duration": 0.1143,
      "velocity": 87,
      "chip": "ym2612"
    },
    {
      "channel": 4,
      "note": 84,
      "start": 18.5522,
      "duration": 0.233,
      "velocity": 107,
      "chip": "ym2612"
    },
    {
      "channel": 3,
      "note": 72,
      "start": 18.6188,
      "duration": 0.1187,
      "velocity": 87,
      "chip": "ym2612"
    },
    {
      "channel": 0,
      "note": 83,
      "start": 18.735,
      "duration": 0.4662,
      "velocity": 99,
      "chip": "ym2612"
    },
    {
      "channel": 1,
      "note": 47,
      "start": 18.736,
      "duration": 0.2319,
      "velocity": 99,
      "chip": "ym2612"
    },
    {
      "channel": 2,
      "note": 90,
      "start": 18.737,
      "duration": 0.4661,
      "velocity": 107,
      "chip": "ym2612"
    },
    {
      "channel": 4,
      "note": 83,
      "start": 18.7853,
      "duration": 0.4665,
      "velocity": 107,
      "chip": "ym2612"
    },
    {
      "channel": 1,
      "note": 50,
      "start": 18.968,
      "duration": 0.2342,
      "velocity": 99,
      "chip": "ym2612"
    },
    {
      "channel": 0,
      "note": 89,
      "start": 19.2013,
      "duration": 0.6999,
      "velocity": 99,
      "chip": "ym2612"
    },
    {
      "channel": 1,
      "note": 53,
      "start": 19.2023,
      "duration": 0.2322,
      "velocity": 99,
      "chip": "ym2612"
    },
    {
      "channel": 2,
      "note": 96,
      "start": 19.2033,
      "duration": 0.6998,
      "velocity": 107,
      "chip": "ym2612"
    },
    {
      "channel": 4,
      "note": 89,
      "start": 19.252,
      "duration": 0.6999,
      "velocity": 107,
      "chip": "ym2612"
    },
    {
      "channel": 1,
      "note": 50,
      "start": 19.4346,
      "duration": 0.2332,
      "velocity": 99,
      "chip": "ym2612"
    },
    {
      "channel": 1,
      "note": 47,
      "start": 19.668,
      "duration": 0.2341,
      "velocity": 99,
      "chip": "ym2612"
    },
    {
      "channel": 0,
      "note": 88,
      "start": 19.9013,
      "duration": 0.2335,
      "velocity": 99,
      "chip": "ym2612"
    },
    {
      "channel": 1,
      "note": 50,
      "start": 19.9022,
      "duration": 0.2335,
      "velocity": 99,
      "chip": "ym2612"
    },
    {
      "channel": 2,
      "note": 95,
      "start": 19.9032,
      "duration": 0.2335,
      "velocity": 107,
      "chip": "ym2612"
    },
    {
      "channel": 4,
      "note": 88,
      "start": 19.9521,
      "duration": 0.2334,
      "velocity": 107,
      "chip": "ym2612"
    },
    {
      "channel": 0,
      "note": 87,
      "start": 20.1349,
      "duration": 0.2332,
      "velocity": 99,
      "chip": "ym2612"
    },
    {
      "channel": 1,
      "note": 53,
      "start": 20.1358,
      "duration": 0.2332,
      "velocity": 99,
      "chip": "ym2612"
    },
    {
      "channel": 2,
      "note": 94,
      "start": 20.1368,
      "duration": 0.2332,
      "velocity": 107,
      "chip": "ym2612"
    },
    {
      "channel": 3,
      "note": 71,
      "start": 20.1378,
      "duration": 0.1141,
      "velocity": 87,
      "chip": "ym2612"
    },
    {
      "channel": 4,
      "note": 87,
      "start": 20.1856,
      "duration": 0.2331,
      "velocity": 107,
      "chip": "ym2612"
    },
    {
      "channel": 3,
      "note": 72,
      "start": 20.252,
      "duration": 0.119,
      "velocity": 87,
      "chip": "ym2612"
    },
    {
      "channel": 0,
      "note": 86,
      "start": 20.3681,
      "duration": 0.2334,
      "velocity": 99,
      "chip": "ym2612"
    },
    {
      "channel": 1,
      "note": 50,
      "start": 20.3692,
      "duration": 0.2333,
      "velocity": 99,
      "chip": "ym2612"
    },
    {
      "channel": 2,
      "note": 93,
      "start": 20.3701,
      "duration": 0.2333,
      "velocity": 107,
      "chip": "ym2612"
    },
    {
      "channel": 3,
      "note": 71,
      "start": 20.3711,
      "duration": 0.1143,
      "velocity": 87,
      "chip": "ym2612"
    },
    {
      "channel": 4,
      "note": 86,
      "start": 20.4189,
      "duration": 0.2329,
      "velocity": 107,
      "chip": "ym2612"
    },
    {
      "channel": 3,
      "note": 72,
      "start": 20.4854,
      "duration": 0.1186,
      "velocity": 87,
      "chip": "ym2612"
    },
    {
      "channel": 0,
      "note": 85,
      "start": 20.6016,
      "duration": 0.4663,
      "velocity": 99,
      "chip": "ym2612"
    },
    {
      "channel": 1,
      "note": 50,
      "start": 20.6026,
      "duration": 0.2319,
      "velocity": 99,
      "chip": "ym2612"
    },
    {
      "channel": 2,
      "note": 92,
      "start": 20.6036,
      "duration": 0.4662,
      "velocity": 107,
      "chip": "ym2612"
    },
    {
      "channel": 4,
      "note": 85,
      "start": 20.652,
      "duration": 0.4666,
      "velocity": 107,
      "chip": "ym2612"
    },
    {
      "channel": 1,
      "note": 53,
      "start": 20.8346,
      "duration": 0.2342,
      "velocity": 99,
      "chip": "ym2612"
    },
    {
      "channel": 0,
      "note": 86,
      "start": 21.068,
      "duration": 3.2672,
      "velocity": 99,
      "chip": "ym2612"
    },
    {
      "channel": 1,
      "note": 47,
      "start": 21.069,
      "duration": 0.2321,
      "velocity": 99,
      "chip": "ym2612"
    },
    {
      "channel": 2,
      "note": 93,
      "start": 21.0699,
      "duration": 3.2672,
      "velocity": 107,
      "chip": "ym2612"
    },
    {
      "channel": 4,
      "note": 86,
      "start": 21.1187,
      "duration": 3.2666,
      "velocity": 107,
      "chip": "ym2612"
    },
    {
      "channel": 1,
      "note": 50,
      "start": 21.3012,
      "duration": 0.2333,
      "velocity": 99,
      "chip": "ym2612"
    },
    {
      "channel": 1,
      "note": 45,
      "start": 21.5346,
      "duration": 0.2332,
      "velocity": 99,
      "chip": "ym2612"
    },
    {
      "channel": 1,
      "note": 50,
      "start": 21.768,
      "duration": 0.2334,
      "velocity": 99,
      "chip": "ym2612"
    },
    {
      "channel": 1,
      "note": 44,
      "start": 22.0014,
      "duration": 0.2332,
      "velocity": 99,
      "chip": "ym2612"
    },
    {
      "channel": 3,
      "note": 71,
      "start": 22.0026,
      "duration": 0.1157,
      "velocity": 87,
      "chip": "ym2612"
    },
    {
      "channel": 3,
      "note": 73,
      "start": 22.1185,
      "duration": 0.1173,
      "velocity": 87,
      "chip": "ym2612"
    },
    {
      "channel": 1,
      "note": 50,
      "start": 22.2347,
      "duration": 0.2335,
      "velocity": 99,
      "chip": "ym2612"
    },
    {
      "channel": 3,
      "note": 72,
      "start": 22.2359,
      "duration": 0.1159,
      "velocity": 87,
      "chip": "ym2612"
    },
    {
      "channel": 3,
      "note": 73,
      "start": 22.3519,
      "duration": 0.1172,
      "velocity": 87,
      "chip": "ym2612"
    },
    {
      "channel": 1,
      "note": 47,
      "start": 22.4683,
      "duration": 0.2327,
      "velocity": 99,
      "chip": "ym2612"
    },
    {
      "channel": 1,
      "note": 50,
      "start": 22.7012,
      "duration": 0.2332,
      "velocity": 99,
      "chip": "ym2612"
    },
    {
      "channel": 1,
      "note": 46,
      "start": 22.9345,
      "duration": 0.2332,
      "velocity": 99,
      "chip": "ym2612"
    },
    {
      "channel": 1,
      "note": 50,
      "start": 23.1678,
      "duration": 0.2332,
      "velocity": 99,
      "chip": "ym2612"
    },
    {
      "channel": 1,
      "note": 45,
      "start": 23.4012,
      "duration": 0.2332,
      "velocity": 99,
      "chip": "ym2612"
    },
    {
      "channel": 1,
      "note": 50,
      "start": 23.6345,
      "duration": 0.2333,
      "velocity": 99,
      "chip": "ym2612"
    },
    {
      "channel": 1,
      "note": 44,
      "start": 23.8678,
      "duration": 0.2333,
      "velocity": 99,
      "chip": "ym2612"
    },
    {
      "channel": 1,
      "note": 50,
      "start": 24.1012,
      "duration": 0.2351,
      "velocity": 99,
      "chip": "ym2612"
    },
    {
      "channel": 0,
      "note": 69,
      "start": 24.3353,
      "duration": 0.465,
      "velocity": 99,
      "chip": "ym2612"
    },
    {
      "channel": 1,
      "note": 57,
      "start": 24.3363,
      "duration": 0.2315,
      "velocity": 99,
      "chip": "ym2612"
    },
    {
      "channel": 2,
      "note": 76,
      "start": 24.3373,
      "duration": 0.463,
      "velocity": 107,
      "chip": "ym2612"
    },
    {
      "channel": 4,
      "note": 69,
      "start": 24.3854,
      "duration": 0.4149,
      "velocity": 107,
      "chip": "ym2612"
    },
    {
      "channel": 1,
      "note": 61,
      "start": 24.5679,
      "duration": 0.2324,
      "velocity": 99,
      "chip": "ym2612"
    }
  ]
}