{
  "track_name": "10 - Level 3A",
  "duration_sec": 91.63,
  "sample_rate": 44100,
  "note_count": 1873,
  "unique_pitches": 65,
  "pitch_range": 69,
  "avg_note_duration": 0.232,
  "reconstruction_stats": {
    "notes_reconstructed": 1873,
    "keyon_events": 1873,
    "keyoff_events": 1311,
    "orphan_keyons": 4,
    "unique_pitches": 65,
    "pitch_range": 69,
    "avg_duration_sec": 0.232
  },
  "metadata": {
    "source": "R\\ResQ\\10 - Level 3A.vgz"
  },
  "notes": [
    {
      "channel": 0,
      "note": 43,
      "start": 0.0,
      "duration": 0.0,
      "velocity": 117,
      "chip": "ym2612"
    },
    {
      "channel": 0,
      "note": 43,
      "start": 0.0,
      "duration": 2.9954,
      "velocity": 117,
      "chip": "ym2612"
    },
    {
      "channel": 1,
      "note": 55,
      "start": 0.0,
      "duration": 0.0,
      "velocity": 117,
      "chip": "ym2612"
    },
    {
      "channel": 1,
      "note": 55,
      "start": 0.0,
      "duration": 2.9957,
      "velocity": 117,
      "chip": "ym2612"
    },
    {
      "channel": 2,
      "note": 43,
      "start": 0.0,
      "duration": 0.0,
      "velocity": 117,
      "chip": "ym2612"
    },
    {
      "channel": 2,
      "note": 38,
      "start": 0.0,
      "duration": 2.996,
      "velocity": 117,
      "chip": "ym2612"
    },
    {
      "channel": 3,
      "note": 43,
      "start": 0.0,
      "duration": 0.0,
      "velocity": 117,
      "chip": "ym2612"
    },
    {
      "channel": 3,
      "note": 44,
      "start": 0.0,
      "duration": 2.9963,
      "velocity": 117,
      "chip": "ym2612"
    },
    {
      "channel": 0,
      "note": 43,
      "start": 2.9954,
      "duration": 0.0155,
      "velocity": 117,
      "chip": "ym2612"
    },
    {
      "channel": 1,
      "note": 55,
      "start": 2.9957,
      "duration": 0.0156,
      "velocity": 117,
      "chip": "ym2612"
    },
    {
      "channel": 2,
      "note": 38,
      "start": 2.996,
      "duration": 0.0155,
      "velocity": 117,
      "chip": "ym2612"
    },
    {
      "channel": 3,
      "note": 44,
      "start": 2.9963,
      "duration": 0.0156,
      "velocity": 117,
      "chip": "ym2612"
    },
    {
      "channel": 0,
      "note": 43,
      "start": 3.011,
      "duration": 0.0167,
      "velocity": 117,
      "chip": "ym2612"
    },
    {
      "channel": 1,
      "note": 55,
      "start": 3.0113,
      "duration": 0.0167,
      "velocity": 117,
      "chip": "ym2612"
    },
    {
      "channel": 2,
      "note": 37,
      "start": 3.0115,
      "duration": 0.0167,
      "velocity": 117,
      "chip": "ym2612"
    },
    {
      "channel": 3,
      "note": 44,
      "start": 3.0119,
      "duration": 0.0167,
      "velocity": 117,
      "chip": "ym2612"
    },
    {
      "channel": 0,
      "note": 42,
      "start": 3.0276,
      "duration": 0.0333,
      "velocity": 117,
      "chip": "ym2612"
    },
    {
      "channel": 1,
      "note": 54,
      "start": 3.028,
      "duration": 0.0333,
      "velocity": 117,
      "chip": "ym2612"
    },
    {
      "channel": 2,
      "note": 37,
      "start": 3.0282,
      "duration": 0.0333,
      "velocity": 117,
      "chip": "ym2612"
    },
    {
      "channel": 3,
      "note": 43,
      "start": 3.0285,
      "duration": 0.0333,
      "velocity": 117,
      "chip": "ym2612"
    },
    {
      "channel": 0,
      "note": 42,
      "start": 3.061,
      "duration": 0.0334,
      "velocity": 117,
      "chip": "ym2612"
    },
    {
      "channel": 1,
      "note": 54,
      "start": 3.0613,
      "duration": 0.0333,
      "velocity": 117,
      "chip": "ym2612"
    },
    {
      "channel": 2,
      "note": 37,
      "start": 3.0615,
      "duration": 0.0333,
      "velocity": 117,
      "chip": "ym2612"
    },
    {
      "channel": 3,
      "note": 43,
      "start": 3.0619,
      "duration": 0.0333,
      "velocity": 117,
      "chip": "ym2612"
    },
    {
      "channel": 0,
      "note": 42,
      "start": 3.0944,
      "duration": 0.0166,
      "velocity": 117,
      "chip": "ym2612"
    },
    {
      "channel": 1,
      "note": 54,
      "start": 3.0946,
      "duration": 0.0167,
      "velocity": 117,
      "chip": "ym2612"
    },
    {
      "channel": 2,
      "note": 36,
      "start": 3.0949,
      "duration": 0.0167,
      "velocity": 117,
      "chip": "ym2612"
    },
    {
      "channel": 3,
      "note": 43,
      "start": 3.0952,
      "duration": 0.0167,
      "velocity": 117,
      "chip": "ym2612"
    },
    {
      "channel": 0,
      "note": 42,
      "start": 3.111,
      "duration": 0.0167,
      "velocity": 117,
      "chip": "ym2612"
    },
    {
      "channel": 1,
      "note": 54,
      "start": 3.1113,
      "duration": 0.0167,
      "velocity": 117,
      "chip": "ym2612"
    },
    {
      "channel": 2,
      "note": 36,
      "start": 3.1115,
      "duration": 0.0167,
      "velocity": 117,
      "chip": "ym2612"
    },
    {
      "channel": 3,
      "note": 43,
      "start": 3.1119,
      "duration": 0.0167,
      "velocity": 117,
      "chip": "ym2612"
    },
    {
      "channel": 0,
      "note": 41,
      "start": 3.1276,
      "duration": 0.0501,
      "velocity": 117,
      "chip": "ym2612"
    },
    {
      "channel": 1,
      "note": 53,
      "start": 3.128,
      "duration": 0.05,
      "velocity": 117,
      "chip": "ym2612"
    },
    {
      "channel": 2,
      "note": 36,
      "start": 3.1282,
      "duration": 0.05,
      "velocity": 117,
      "chip": "ym2612"
    },
    {
      "channel": 3,
      "note": 42,
      "start": 3.1285,
      "duration": 0.05,
      "velocity": 117,
      "chip": "ym2612"
    },
    {
      "channel": 0,
      "note": 41,
      "start": 3.1777,
      "duration": 0.0166,
      "velocity": 117,
      "chip": "ym2612"
    },
    {
      "channel": 1,
      "note": 53,
      "start": 3.178,
      "duration": 0.0167,
      "velocity": 117,
      "chip": "ym2612"
    },
    {
      "channel": 2,
      "note": 35,
      "start": 3.1782,
      "duration": 0.0167,
      "velocity": 117,
      "chip": "ym2612"
    },
    {
      "channel": 3,
      "note": 42,
      "start": 3.1785,
      "duration": 0.0167,
      "velocity": 117,
      "chip": "ym2612"
    },
    {
      "channel": 0,
      "note": 41,
      "start": 3.1943,
      "duration": 0.0167,
      "velocity": 117,
      "chip": "ym2612"
    },
    {
      "channel": 1,
      "note": 53,
      "start": 3.1946,
      "duration": 0.0167,
      "velocity": 117,
      "chip": "ym2612"
    },
    {
      "channel": 2,
      "note": 35,
      "start": 3.1949,
      "duration": 0.0167,
      "velocity": 117,
      "chip": "ym2612"
    },
    {
      "channel": 3,
      "note": 42,
      "start": 3.1952,
      "duration": 0.0167,
      "velocity": 117,
      "chip": "ym2612"
    },
    {
      "channel": 0,
      "note": 40,
      "start": 3.211,
      "duration": 0.0501,
      "velocity": 117,
      "chip": "ym2612"
    },
    {
      "channel": 1,
      "note": 52,
      "start": 3.2113,
      "duration": 0.05,
      "velocity": 117,
      "chip": "ym2612"
    },
    {
      "channel": 2,
      "note": 34,
      "start": 3.2115,
      "duration": 0.05,
      "velocity": 117,
      "chip": "ym2612"
    },
    {
      "channel": 3,
      "note": 42,
      "start": 3.2119,
      "duration": 0.05,
      "velocity": 117,
      "chip": "ym2612"
    },
    {
      "channel": 0,
      "note": 40,
      "start": 3.261,
      "duration": 0.0166,
      "velocity": 117,
      "chip": "ym2612"
    },
    {
      "channel": 1,
      "note": 52,
      "start": 3.2613,
      "duration": 0.0167,
      "velocity": 117,
      "chip": "ym2612"
    },
    {
      "channel": 2,
      "note": 34,
      "start": 3.2615,
      "duration": 0.0167,
      "velocity": 117,
      "chip": "ym2612"
    },
    {
      "channel": 3,
      "note": 41,
      "start": 3.2619,
      "duration": 0.0167,
      "velocity": 117,
      "chip": "ym2612"
    },
    {
      "channel": 0,
      "note": 40,
      "start": 3.2776,
      "duration": 0.0167,
      "velocity": 117,
      "chip": "ym2612"
    },
    {
      "channel": 1,
      "note": 52,
      "start": 3.278,
      "duration": 0.0167,
      "velocity": 117,
      "chip": "ym2612"
    },
    {
      "channel": 2,
      "note": 34,
      "start": 3.2782,
      "duration": 0.0167,
      "velocity": 117,
      "chip": "ym2612"
    },
    {
      "channel": 3,
      "note": 41,
      "start": 3.2785,
      "duration": 0.0167,
      "velocity": 117,
      "chip": "ym2612"
    },
    {
      "channel": 0,
      "note": 40,
      "start": 3.2943,
      "duration": 0.0333,
      "velocity": 117,
      "chip": "ym2612"
    },
    {
      "channel": 1,
      "note": 52,
      "start": 3.2946,
      "duration": 0.0333,
      "velocity": 117,
      "chip": "ym2612"
    },
    {
      "channel": 2,
      "note": 33,
      "start": 3.2949,
      "duration": 0.0333,
      "velocity": 117,
      "chip": "ym2612"
    },
    {
      "channel": 3,
      "note": 41,
      "start": 3.2952,
      "duration": 0.0333,
      "velocity": 117,
      "chip": "ym2612"
    },
    {
      "channel": 0,
      "note": 39,
      "start": 3.3276,
      "duration": 0.0333,
      "velocity": 117,
      "chip": "ym2612"
    },
    {
      "channel": 1,
      "note": 51,
      "start": 3.328,
      "duration": 0.0333,
      "velocity": 117,
      "chip": "ym2612"
    },
    {
      "channel": 2,
      "note": 33,
      "start": 3.3282,
      "duration": 0.0333,
      "velocity": 117,
      "chip": "ym2612"
    },
    {
      "channel": 3,
      "note": 41,
      "start": 3.3285,
      "duration": 0.0333,
      "velocity": 117,
      "chip": "ym2612"
    },
    {
      "channel": 0,
      "note": 39,
      "start": 3.361,
      "duration": 0.0167,
      "velocity": 117,
      "chip": "ym2612"
    },
    {
      "channel": 1,
      "note": 51,
      "start": 3.3613,
      "duration": 0.0167,
      "velocity": 117,
      "chip": "ym2612"
    },
    {
      "channel": 2,
      "note": 32,
      "start": 3.3615,
      "duration": 0.0167,
      "velocity": 117,
      "chip": "ym2612"
    },
    {
      "channel": 3,
      "note": 40,
      "start": 3.3619,
      "duration": 0.0167,
      "velocity": 117,
      "chip": "ym2612"
    },
    {
      "channel": 0,
      "note": 39,
      "start": 3.3777,
      "duration": 0.0333,
      "velocity": 117,
      "chip": "ym2612"
    },
    {
      "channel": 1,
      "note": 51,
      "start": 3.378,
      "duration": 0.0333,
      "velocity": 117,
      "chip": "ym2612"
    },
    {
      "channel": 2,
      "note": 32,
      "start": 3.3783,
      "duration": 0.0333,
      "velocity": 117,
      "chip": "ym2612"
    },
    {
      "channel": 3,
      "note": 40,
      "start": 3.3785,
      "duration": 0.0333,
      "velocity": 117,
      "chip": "ym2612"
    },
    {
      "channel": 0,
      "note": 38,
      "start": 3.411,
      "duration": 0.0167,
      "velocity": 117,
      "chip": "ym2612"
    },
    {
      "channel": 1,
      "note": 50,
      "start": 3.4113,
      "duration": 0.0167,
      "velocity": 117,
      "chip": "ym2612"
    },
    {
      "channel": 2,
      "note": 32,
      "start": 3.4115,
      "duration": 0.0167,
      "velocity": 117,
      "chip": "ym2612"
    },
    {
      "channel": 3,
      "note": 40,
      "start": 3.4119,
      "duration": 0.0167,
      "velocity": 117,
      "chip": "ym2612"
    },
    {
      "channel": 0,
      "note": 38,
      "start": 3.4277,
      "duration": 0.0333,
      "velocity": 117,
      "chip": "ym2612"
    },
    {
      "channel": 1,
      "note": 50,
      "start": 3.428,
      "duration": 0.0333,
      "velocity": 117,
      "chip": "ym2612"
    },
    {
      "channel": 2,
      "note": 32,
      "start": 3.4282,
      "duration": 0.0333,
      "velocity": 117,
      "chip": "ym2612"
    },
    {
      "channel": 3,
      "note": 39,
      "start": 3.4285,
      "duration": 0.0333,
      "velocity": 117,
      "chip": "ym2612"
    },
    {
      "channel": 0,
      "note": 38,
      "start": 3.461,
      "duration": 0.0333,
      "velocity": 117,
      "chip": "ym2612"
    },
    {
      "channel": 1,
      "note": 50,
      "start": 3.4613,
      "duration": 0.0333,
      "velocity": 117,
      "chip": "ym2612"
    },
    {
      "channel": 2,
      "note": 31,
      "start": 3.4615,
      "duration": 0.0333,
      "velocity": 117,
      "chip": "ym2612"
    },
    {
      "channel": 3,
      "note": 39,
      "start": 3.4619,
      "duration": 0.0333,
      "velocity": 117,
      "chip": "ym2612"
    },
    {
      "channel": 0,
      "note": 37,
      "start": 3.4943,
      "duration": 0.0167,
      "velocity": 117,
      "chip": "ym2612"
    },
    {
      "channel": 1,
      "note": 49,
      "start": 3.4946,
      "duration": 0.0167,
      "velocity": 117,
      "chip": "ym2612"
    },
    {
      "channel": 2,
      "note": 31,
      "start": 3.4949,
      "duration": 0.0167,
      "velocity": 117,
      "chip": "ym2612"
    },
    {
      "channel": 3,
      "note": 39,
      "start": 3.4952,
      "duration": 0.0167,
      "velocity": 117,
      "chip": "ym2612"
    },
    {
      "channel": 0,
      "note": 37,
      "start": 3.511,
      "duration": 0.0167,
      "velocity": 117,
      "chip": "ym2612"
    },
    {
      "channel": 1,
      "note": 49,
      "start": 3.5113,
      "duration": 0.0167,
      "velocity": 117,
      "chip": "ym2612"
    },
    {
      "channel": 2,
      "note": 31,
      "start": 3.5115,
      "duration": 0.0167,
      "velocity": 117,
      "chip": "ym2612"
    },
    {
      "channel": 3,
      "note": 39,
      "start": 3.5119,
      "duration": 0.0167,
      "velocity": 117,
      "chip": "ym2612"
    },
    {
      "channel": 0,
      "note": 37,
      "start": 3.5276,
      "duration": 0.05,
      "velocity": 117,
      "chip": "ym2612"
    },
    {
      "channel": 1,
      "note": 49,
      "start": 3.528,
      "duration": 0.05,
      "velocity": 117,
      "chip": "ym2612"
    },
    {
      "channel": 2,
      "note": 31,
      "start": 3.5282,
      "duration": 0.05,
      "velocity": 117,
      "chip": "ym2612"
    },
    {
      "channel": 3,
      "note": 38,
      "start": 3.5285,
      "duration": 0.05,
      "velocity": 117,
      "chip": "ym2612"
    },
    {
      "channel": 0,
      "note": 36,
      "start": 3.5776,
      "duration": 0.0167,
      "velocity": 117,
      "chip": "ym2612"
    },
    {
      "channel": 1,
      "note": 48,
      "start": 3.578,
      "duration": 0.0167,
      "velocity": 117,
      "chip": "ym2612"
    },
    {
      "channel": 2,
      "note": 30,
      "start": 3.5782,
      "duration": 0.0167,
      "velocity": 117,
      "chip": "ym2612"
    },
    {
      "channel": 3,
      "note": 38,
      "start": 3.5785,
      "duration": 0.0167,
      "velocity": 117,
      "chip": "ym2612"
    },
    {
      "channel": 0,
      "note": 36,
      "start": 3.5943,
      "duration": 0.0167,
      "velocity": 117,
      "chip": "ym2612"
    },
    {
      "channel": 1,
      "note": 48,
      "start": 3.5946,
      "duration": 0.0167,
      "velocity": 117,
      "chip": "ym2612"
    },
    {
      "channel": 2,
      "note": 30,
      "start": 3.5949,
      "duration": 0.0167,
      "velocity": 117,
      "chip": "ym2612"
    },
    {
      "channel": 3,
      "note": 38,
      "start": 3.5952,
      "duration": 0.0167,
      "velocity": 117,
      "chip": "ym2612"
    },
    {
      "channel": 0,
      "note": 36,
      "start": 3.611,
      "duration": 0.05,
      "velocity": 117,
      "chip": "ym2612"
    },
    {
      "channel": 1,
      "note": 48,
      "start": 3.6113,
      "duration": 0.05,
      "velocity": 117,
      "chip": "ym2612"
    },
    {
      "channel": 2,
      "note": 30,
      "start": 3.6115,
      "duration": 0.05,
      "velocity": 117,
      "chip": "ym2612"
    },
    {
      "channel": 3,
      "note": 37,
      "start": 3.6119,
      "duration": 0.05,
      "velocity": 117,
      "chip": "ym2612"
    },
    {
      "channel": 0,
      "note": 35,
      "start": 3.661,
      "duration": 0.0167,
      "velocity": 117,
      "chip": "ym2612"
    },
    {
      "channel": 1,
      "note": 47,
      "start": 3.6613,
      "duration": 0.0167,
      "velocity": 117,
      "chip": "ym2612"
    },
    {
      "channel": 2,
      "note": 30,
      "start": 3.6615,
      "duration": 0.0167,
      "velocity": 117,
      "chip": "ym2612"
    },
    {
      "channel": 3,
      "note": 37,
      "start": 3.6619,
      "duration": 0.0167,
      "velocity": 117,
      "chip": "ym2612"
    },
    {
      "channel": 0,
      "note": 35,
      "start": 3.6776,
      "duration": 0.0167,
      "velocity": 117,
      "chip": "ym2612"
    },
    {
      "channel": 1,
      "note": 47,
      "start": 3.678,
      "duration": 0.0167,
      "velocity": 117,
      "chip": "ym2612"
    },
    {
      "channel": 2,
      "note": 29,
      "start": 3.6782,
      "duration": 0.0167,
      "velocity": 117,
      "chip": "ym2612"
    },
    {
      "channel": 3,
      "note": 37,
      "start": 3.6785,
      "duration": 0.0167,
      "velocity": 117,
      "chip": "ym2612"
    },
    {
      "channel": 0,
      "note": 35,
      "start": 3.6943,
      "duration": 0.0174,
      "velocity": 117,
      "chip": "ym2612"
    },
    {
      "channel": 1,
      "note": 47,
      "start": 3.6946,
      "duration": 0.0173,
      "velocity": 117,
      "chip": "ym2612"
    },
    {
      "channel": 2,
      "note": 29,
      "start": 3.6949,
      "duration": 0.0174,
      "velocity": 117,
      "chip": "ym2612"
    },
    {
      "channel": 3,
      "note": 36,
      "start": 3.6952,
      "duration": 0.0173,
      "velocity": 117,
      "chip": "ym2612"
    },
    {
      "channel": 0,
      "note": 34,
      "start": 3.7117,
      "duration": 0.016,
      "velocity": 117,
      "chip": "ym2612"
    },
    {
      "channel": 1,
      "note": 46,
      "start": 3.7119,
      "duration": 0.016,
      "velocity": 117,
      "chip": "ym2612"
    },
    {
      "channel": 2,
      "note": 29,
      "start": 3.7122,
      "duration": 0.016,
      "velocity": 117,
      "chip": "ym2612"
    },
    {
      "channel": 3,
      "note": 36,
      "start": 3.7125,
      "duration": 0.016,
      "velocity": 117,
      "chip": "ym2612"
    },
    {
      "channel": 0,
      "note": 34,
      "start": 3.7276,
      "duration": 0.0333,
      "velocity": 117,
      "chip": "ym2612"
    },
    {
      "channel": 1,
      "note": 46,
      "start": 3.728,
      "duration": 0.0333,
      "velocity": 117,
      "chip": "ym2612"
    },
    {
      "channel": 2,
      "note": 29,
      "start": 3.7282,
      "duration": 0.0333,
      "velocity": 117,
      "chip": "ym2612"
    },
    {
      "channel": 3,
      "note": 35,
      "start": 3.7285,
      "duration": 0.0333,
      "velocity": 117,
      "chip": "ym2612"
    },
    {
      "channel": 0,
      "note": 33,
      "start": 3.761,
      "duration": 0.0167,
      "velocity": 117,
      "chip": "ym2612"
    },
    {
      "channel": 1,
      "note": 45,
      "start": 3.7613,
      "duration": 0.0167,
      "velocity": 117,
      "chip": "ym2612"
    },
    {
      "channel": 2,
      "note": 28,
      "start": 3.7615,
      "duration": 0.0167,
      "velocity": 117,
      "chip": "ym2612"
    },
    {
      "channel": 3,
      "note": 35,
      "start": 3.7619,
      "duration": 0.0167,
      "velocity": 117,
      "chip": "ym2612"
    },
    {
      "channel": 0,
      "note": 33,
      "start": 3.7776,
      "duration": 0.0188,
      "velocity": 98,
      "chip": "ym2612"
    },
    {
      "channel": 1,
      "note": 45,
      "start": 3.778,
      "duration": 0.0205,
      "velocity": 99,
      "chip": "ym2612"
    },
    {
      "channel": 2,
      "note": 28,
      "start": 3.7782,
      "duration": 0.0224,
      "velocity": 1,
      "chip": "ym2612"
    },
    {
      "channel": 3,
      "note": 35,
      "start": 3.7785,
      "duration": 0.0243,
      "velocity": 1,
      "chip": "ym2612"
    },
    {
      "channel": 0,
      "note": 39,
      "start": 3.7965,
      "duration": 0.122,
      "velocity": 98,
      "chip": "ym2612"
    },
    {
      "channel": 1,
      "note": 51,
      "start": 3.7987,
      "duration": 0.0592,
      "velocity": 99,
      "chip": "ym2612"
    },
    {
      "channel": 2,
      "note": 55,
      "start": 3.8008,
      "duration": 0.6613,
      "velocity": 102,
      "chip": "ym2612"
    },
    {
      "channel": 3,
      "note": 55,
      "start": 3.803,
      "duration": 0.6612,
      "velocity": 102,
      "chip": "ym2612"
    },
    {
      "channel": 4,
      "note": 51,
      "start": 3.8051,
      "duration": 0.1146,
      "velocity": 82,
      "chip": "ym2612"
    },
    {
      "channel": 1,
      "note": 63,
      "start": 3.8581,
      "duration": 0.061,
      "velocity": 99,
      "chip": "ym2612"
    },
    {
      "channel": 0,
      "note": 39,
      "start": 3.9186,
      "duration": 0.2294,
      "velocity": 98,
      "chip": "ym2612"
    },
    {
      "channel": 1,
      "note": 51,
      "start": 3.9192,
      "duration": 0.1083,
      "velocity": 99,
      "chip": "ym2612"
    },
    {
      "channel": 4,
      "note": 51,
      "start": 3.9198,
      "duration": 0.2294,
      "velocity": 82,
      "chip": "ym2612"
    },
    {
      "channel": 1,
      "note": 63,
      "start": 4.0277,
      "duration": 0.1209,
      "velocity": 99,
      "chip": "ym2612"
    },
    {
      "channel": 0,
      "note": 41,
      "start": 4.1482,
      "duration": 0.1428,
      "velocity": 1,
      "chip": "ym2612"
    },
    {
      "channel": 1,
      "note": 53,
      "start": 4.1487,
      "duration": 0.3112,
      "velocity": 102,
      "chip": "ym2612"
    },
    {
      "channel": 4,
      "note": 53,
      "start": 4.1494,
      "duration": 0.1439,
      "velocity": 1,
      "chip": "ym2612"
    },
    {
      "channel": 0,
      "note": 43,
      "start": 4.2912,
      "duration": 0.1666,
      "velocity": 100,
      "chip": "ym2612"
    },
    {
      "channel": 4,
      "note": 43,
      "start": 4.2935,
      "duration": 1.2133,
      "velocity": 82,
      "chip": "ym2612"
    },
    {
      "channel": 0,
      "note": 53,
      "start": 4.4579,
      "duration": 1.0466,
      "velocity": 98,
      "chip": "ym2612"
    },
    {
      "channel": 1,
      "note": 89,
      "start": 4.46,
      "duration": 0.1197,
      "velocity": 102,
      "chip": "ym2612"
    },
    {
      "channel": 2,
      "note": 84,
      "start": 4.4622,
      "duration": 0.1181,
      "velocity": 102,
      "chip": "ym2612"
    },
    {
      "channel": 3,
      "note": 80,
      "start": 4.4644,
      "duration": 0.1165,
      "velocity": 102,
      "chip": "ym2612"
    },
    {
      "channel": 1,
      "note": 87,
      "start": 4.58,
      "duration": 0.1085,
      "velocity": 102,
      "chip": "ym2612"
    },
    {
      "channel": 2,
      "note": 82,
      "start": 4.5805,
      "duration": 0.1086,
      "velocity": 102,
      "chip": "ym2612"
    },
    {
      "channel": 3,
      "note": 79,
      "start": 4.581,
      "duration": 0.1086,
      "velocity": 102,
      "chip": "ym2612"
    },
    {
      "channel": 1,
      "note": 89,
      "start": 4.6886,
      "duration": 0.1543,
      "velocity": 102,
      "chip": "ym2612"
    },
    {
      "channel": 2,
      "note": 84,
      "start": 4.6892,
      "duration": 0.154,
      "velocity": 102,
      "chip": "ym2612"
    },
    {
      "channel": 3,
      "note": 80,
      "start": 4.6898,
      "duration": 0.1538,
      "velocity": 102,
      "chip": "ym2612"
    },
    {
      "channel": 1,
      "note": 88,
      "start": 4.843,
      "duration": 0.0115,
      "velocity": 102,
      "chip": "ym2612"
    },
    {
      "channel": 2,
      "note": 83,
      "start": 4.8432,
      "duration": 0.0115,
      "velocity": 102,
      "chip": "ym2612"
    },
    {
      "channel": 3,
      "note": 80,
      "start": 4.8435,
      "duration": 0.0115,
      "velocity": 102,
      "chip": "ym2612"
    },
    {
      "channel": 1,
      "note": 88,
      "start": 4.8545,
      "duration": 0.0118,
      "velocity": 102,
      "chip": "ym2612"
    },
    {
      "channel": 2,
      "note": 83,
      "start": 4.8547,
      "duration": 0.0119,
      "velocity": 102,
      "chip": "ym2612"
    },
    {
      "channel": 3,
      "note": 79,
      "start": 4.8551,
      "duration": 0.0118,
      "velocity": 102,
      "chip": "ym2612"
    },
    {
      "channel": 1,
      "note": 87,
      "start": 4.8663,
      "duration": 0.0124,
      "velocity": 102,
      "chip": "ym2612"
    },
    {
      "channel": 2,
      "note": 82,
      "start": 4.8666,
      "duration": 0.0124,
      "velocity": 102,
      "chip": "ym2612"
    },
    {
      "channel": 3,
      "note": 79,
      "start": 4.8669,
      "duration": 0.0124,
      "velocity": 102,
      "chip": "ym2612"
    },
    {
      "channel": 1,
      "note": 87,
      "start": 4.8788,
      "duration": 0.0371,
      "velocity": 102,
      "chip": "ym2612"
    },
    {
      "channel": 2,
      "note": 81,
      "start": 4.879,
      "duration": 0.0371,
      "velocity": 102,
      "chip": "ym2612"
    },
    {
      "channel": 3,
      "note": 78,
      "start": 4.8793,
      "duration": 0.0371,
      "velocity": 102,
      "chip": "ym2612"
    },
    {
      "channel": 1,
      "note": 86,
      "start": 4.9159,
      "duration": 0.0124,
      "velocity": 102,
      "chip": "ym2612"
    },
    {
      "channel": 2,
      "note": 80,
      "start": 4.9161,
      "duration": 0.0124,
      "velocity": 102,
      "chip": "ym2612"
    },
    {
      "channel": 3,
      "note": 78,
      "start": 4.9164,
      "duration": 0.0124,
      "velocity": 102,
      "chip": "ym2612"
    },
    {
      "channel": 1,
      "note": 85,
      "start": 4.9282,
      "duration": 0.0122,
      "velocity": 102,
      "chip": "ym2612"
    },
    {
      "channel": 2,
      "note": 80,
      "start": 4.9285,
      "duration": 0.0122,
      "velocity": 102,
      "chip": "ym2612"
    },
    {
      "channel": 3,
      "note": 77,
      "start": 4.9288,
      "duration": 0.0122,
      "velocity": 102,
      "chip": "ym2612"
    },
    {
      "channel": 1,
      "note": 85,
      "start": 4.9405,
      "duration": 0.0126,
      "velocity": 102,
      "chip": "ym2612"
    },
    {
      "channel": 2,
      "note": 79,
      "start": 4.9407,
      "duration": 0.0129,
      "velocity": 102,
      "chip": "ym2612"
    },
    {
      "channel": 3,
      "note": 77,
      "start": 4.941,
      "duration": 0.0131,
      "velocity": 102,
      "chip": "ym2612"
    },
    {
      "channel": 1,
      "note": 77,
      "start": 4.9532,
      "duration": 0.1222,
      "velocity": 1,
      "chip": "ym2612"
    },
    {
      "channel": 2,
      "note": 72,
      "start": 4.9538,
      "duration": 0.1238,
      "velocity": 1,
      "chip": "ym2612"
    },
    {
      "channel": 3,
      "note": 68,
      "start": 4.9544,
      "duration": 0.1254,
      "velocity": 1,
      "chip": "ym2612"
    },
    {
      "channel": 1,
      "note": 67,
      "start": 5.0756,
      "duration": 0.8192,
      "velocity": 99,
      "chip": "ym2612"
    },
    {
      "channel": 2,
      "note": 67,
      "start": 5.0777,
      "duration": 1.4807,
      "velocity": 102,
      "chip": "ym2612"
    },
    {
      "channel": 3,
      "note": 67,
      "start": 5.08,
      "duration": 1.4806,
      "velocity": 102,
      "chip": "ym2612"
    },
    {
      "channel": 0,
      "note": 36,
      "start": 5.5046,
      "duration": 0.1091,
      "velocity": 98,
      "chip": "ym2612"
    },
    {
      "channel": 4,
      "note": 48,
      "start": 5.507,
      "duration": 0.1075,
      "velocity": 82,
      "chip": "ym2612"
    },
    {
      "channel": 0,
      "note": 39,
      "start": 5.6139,
      "duration": 0.1214,
      "velocity": 98,
      "chip": "ym2612"
    },
    {
      "channel": 4,
      "note": 51,
      "start": 5.6147,
      "duration": 0.1213,
      "velocity": 82,
      "chip": "ym2612"
    },
    {
      "channel": 0,
      "note": 36,
      "start": 5.7354,
      "duration": 0.1572,
      "velocity": 98,
      "chip": "ym2612"
    },
    {
      "channel": 4,
      "note": 48,
      "start": 5.7362,
      "duration": 0.1592,
      "velocity": 82,
      "chip": "ym2612"
    },
    {
      "channel": 0,
      "note": 39,
      "start": 5.8928,
      "duration": 0.1101,
      "velocity": 98,
      "chip": "ym2612"
    },
    {
      "channel": 1,
      "note": 51,
      "start": 5.8949,
      "duration": 0.0469,
      "velocity": 99,
      "chip": "ym2612"
    },
    {
      "channel": 4,
      "note": 51,
      "start": 5.8956,
      "duration": 0.1086,
      "velocity": 82,
      "chip": "ym2612"
    },
    {
      "channel": 1,
      "note": 63,
      "start": 5.942,
      "duration": 0.0615,
      "velocity": 99,
      "chip": "ym2612"
    },
    {
      "channel": 0,
      "note": 39,
      "start": 6.0031,
      "duration": 0.2296,
      "velocity": 98,
      "chip": "ym2612"
    },
    {
      "channel": 1,
      "note": 51,
      "start": 6.0037,
      "duration": 0.1204,
      "velocity": 99,
      "chip": "ym2612"
    },
    {
      "channel": 4,
      "note": 51,
      "start": 6.0043,
      "duration": 0.2296,
      "velocity": 82,
      "chip": "ym2612"
    },
    {
      "channel": 1,
      "note": 63,
      "start": 6.1243,
      "duration": 0.109,
      "velocity": 99,
      "chip": "ym2612"
    },
    {
      "channel": 0,
      "note": 41,
      "start": 6.2329,
      "duration": 0.1545,
      "velocity": 1,
      "chip": "ym2612"
    },
    {
      "channel": 1,
      "note": 53,
      "start": 6.2334,
      "duration": 0.3229,
      "velocity": 102,
      "chip": "ym2612"
    },
    {
      "channel": 4,
      "note": 53,
      "start": 6.2341,
      "duration": 0.1556,
      "velocity": 1,
      "chip": "ym2612"
    },
    {
      "channel": 0,
      "note": 43,
      "start": 6.3876,
      "duration": 0.1666,
      "velocity": 100,
      "chip": "ym2612"
    },
    {
      "channel": 4,
      "note": 43,
      "start": 6.3899,
      "duration": 1.5886,
      "velocity": 82,
      "chip": "ym2612"
    },
    {
      "channel": 0,
      "note": 56,
      "start": 6.5543,
      "duration": 1.4156,
      "velocity": 98,
      "chip": "ym2612"
    },
    {
      "channel": 1,
      "note": 89,
      "start": 6.5564,
      "duration": 0.1073,
      "velocity": 102,
      "chip": "ym2612"
    },
    {
      "channel": 2,
      "note": 84,
      "start": 6.5586,
      "duration": 0.1058,
      "velocity": 102,
      "chip": "ym2612"
    },
    {
      "channel": 3,
      "note": 80,
      "start": 6.5607,
      "duration": 0.1042,
      "velocity": 102,
      "chip": "ym2612"
    },
    {
      "channel": 1,
      "note": 87,
      "start": 6.664,
      "duration": 0.1208,
      "velocity": 102,
      "chip": "ym2612"
    },
    {
      "channel": 2,
      "note": 82,
      "start": 6.6645,
      "duration": 0.1208,
      "velocity": 102,
      "chip": "ym2612"
    },
    {
      "channel": 3,
      "note": 79,
      "start": 6.665,
      "duration": 0.1208,
      "velocity": 102,
      "chip": "ym2612"
    },
    {
      "channel": 1,
      "note": 89,
      "start": 6.7849,
      "duration": 0.1413,
      "velocity": 102,
      "chip": "ym2612"
    },
    {
      "channel": 2,
      "note": 84,
      "start": 6.7854,
      "duration": 0.1411,
      "velocity": 102,
      "chip": "ym2612"
    },
    {
      "channel": 3,
      "note": 80,
      "start": 6.786,
      "duration": 0.1408,
      "velocity": 102,
      "chip": "ym2612"
    },
    {
      "channel": 1,
      "note": 88,
      "start": 6.9263,
      "duration": 0.0235,
      "velocity": 102,
      "chip": "ym2612"
    },
    {
      "channel": 2,
      "note": 83,
      "start": 6.9265,
      "duration": 0.0236,
      "velocity": 102,
      "chip": "ym2612"
    },
    {
      "channel": 3,
      "note": 80,
      "start": 6.9268,
      "duration": 0.0235,
      "velocity": 102,
      "chip": "ym2612"
    },
    {
      "channel": 1,
      "note": 88,
      "start": 6.9498,
      "duration": 0.0123,
      "velocity": 102,
      "chip": "ym2612"
    },
    {
      "channel": 2,
      "note": 83,
      "start": 6.9501,
      "duration": 0.0122,
      "velocity": 102,
      "chip": "ym2612"
    },
    {
      "channel": 3,
      "note": 79,
      "start": 6.9503,
      "duration": 0.0123,
      "velocity": 102,
      "chip": "ym2612"
    },
    {
      "channel": 1,
      "note": 87,
      "start": 6.9621,
      "duration": 0.0126,
      "velocity": 102,
      "chip": "ym2612"
    },
    {
      "channel": 2,
      "note": 82,
      "start": 6.9623,
      "duration": 0.0126,
      "velocity": 102,
      "chip": "ym2612"
    },
    {
      "channel": 3,
      "note": 79,
      "start": 6.9626,
      "duration": 0.0126,
      "velocity": 102,
      "chip": "ym2612"
    },
    {
      "channel": 1,
      "note": 87,
      "start": 6.9746,
      "duration": 0.0248,
      "velocity": 102,
      "chip": "ym2612"
    },
    {
      "channel": 2,
      "note": 81,
      "start": 6.9749,
      "duration": 0.0248,
      "velocity": 102,
      "chip": "ym2612"
    },
    {
      "channel": 3,
      "note": 78,
      "start": 6.9752,
      "duration": 0.0248,
      "velocity": 102,
      "chip": "ym2612"
    },
    {
      "channel": 1,
      "note": 86,
      "start": 6.9994,
      "duration": 0.0245,
      "velocity": 102,
      "chip": "ym2612"
    },
    {
      "channel": 2,
      "note": 80,
      "start": 6.9997,
      "duration": 0.0246,
      "velocity": 102,
      "chip": "ym2612"
    },
    {
      "channel": 3,
      "note": 78,
      "start": 7.0,
      "duration": 0.0245,
      "velocity": 102,
      "chip": "ym2612"
    },
    {
      "channel": 1,
      "note": 85,
      "start": 7.0239,
      "duration": 0.0124,
      "velocity": 102,
      "chip": "ym2612"
    },
    {
      "channel": 2,
      "note": 80,
      "start": 7.0243,
      "duration": 0.0123,
      "velocity": 102,
      "chip": "ym2612"
    },
    {
      "channel": 3,
      "note": 77,
      "start": 7.0245,
      "duration": 0.0124,
      "velocity": 102,
      "chip": "ym2612"
    },
    {
      "channel": 1,
      "note": 85,
      "start": 7.0363,
      "duration": 0.0129,
      "velocity": 102,
      "chip": "ym2612"
    },
    {
      "channel": 2,
      "note": 79,
      "start": 7.0366,
      "duration": 0.0133,
      "velocity": 102,
      "chip": "ym2612"
    },
    {
      "channel": 3,
      "note": 77,
      "start": 7.0369,
      "duration": 0.0135,
      "velocity": 102,
      "chip": "ym2612"
    },
    {
      "channel": 1,
      "note": 92,
      "start": 7.0495,
      "duration": 0.123,
      "velocity": 1,
      "chip": "ym2612"
    },
    {
      "channel": 2,
      "note": 87,
      "start": 7.05,
      "duration": 0.1247,
      "velocity": 1,
      "chip": "ym2612"
    },
    {
      "channel": 3,
      "note": 83,
      "start": 7.0505,
      "duration": 0.1263,
      "velocity": 1,
      "chip": "ym2612"
    },
    {
      "channel": 1,
      "note": 91,
      "start": 7.1727,
      "duration": 0.1104,
      "velocity": 102,
      "chip": "ym2612"
    },
    {
      "channel": 2,
      "note": 91,
      "start": 7.1748,
      "duration": 0.1104,
      "velocity": 102,
      "chip": "ym2612"
    },
    {
      "channel": 3,
      "note": 91,
      "start": 7.177,
      "duration": 0.1103,
      "velocity": 102,
      "chip": "ym2612"
    },
    {
      "channel": 1,
      "note": 95,
      "start": 7.2832,
      "duration": 0.6888,
      "velocity": 99,
      "chip": "ym2612"
    },
    {
      "channel": 2,
      "note": 90,
      "start": 7.2853,
      "duration": 0.6889,
      "velocity": 1,
      "chip": "ym2612"
    },
    {
      "channel": 3,
      "note": 86,
      "start": 7.2875,
      "duration": 0.6888,
      "velocity": 1,
      "chip": "ym2612"
    },
    {
      "channel": 0,
      "note": 39,
      "start": 7.9701,
      "duration": 0.1215,
      "velocity": 98,
      "chip": "ym2612"
    },
    {
      "channel": 1,
      "note": 51,
      "start": 7.9722,
      "duration": 0.059,
      "velocity": 99,
      "chip": "ym2612"
    },
    {
      "channel": 2,
      "note": 55,
      "start": 7.9743,
      "duration": 0.6606,
      "velocity": 102,
      "chip": "ym2612"
    },
    {
      "channel": 3,
      "note": 55,
      "start": 7.9766,
      "duration": 0.6605,
      "velocity": 102,
      "chip": "ym2612"
    },
    {
      "channel": 4,
      "note": 51,
      "start": 7.9787,
      "duration": 0.1142,
      "velocity": 82,
      "chip": "ym2612"
    },
    {
      "channel": 1,
      "note": 63,
      "start": 8.0314,
      "duration": 0.0607,
      "velocity": 99,
      "chip": "ym2612"
    },
    {
      "channel": 0,
      "note": 39,
      "start": 8.0918,
      "duration": 0.2299,
      "velocity": 98,
      "chip": "ym2612"
    },
    {
      "channel": 1,
      "note": 51,
      "start": 8.0923,
      "duration": 0.1078,
      "velocity": 99,
      "chip": "ym2612"
    },
    {
      "channel": 4,
      "note": 51,
      "start": 8.093,
      "duration": 0.2299,
      "velocity": 82,
      "chip": "ym2612"
    },
    {
      "channel": 1,
      "note": 63,
      "start": 8.2003,
      "duration": 0.1218,
      "velocity": 99,
      "chip": "ym2612"
    },
    {
      "channel": 0,
      "note": 41,
      "start": 8.3217,
      "duration": 0.1588,
      "velocity": 1,
      "chip": "ym2612"
    },
    {
      "channel": 1,
      "note": 53,
      "start": 8.3223,
      "duration": 0.3105,
      "velocity": 102,
      "chip": "ym2612"
    },
    {
      "channel": 4,
      "note": 53,
      "start": 8.323,
      "duration": 0.1599,
      "velocity": 1,
      "chip": "ym2612"
    },
    {
      "channel": 0,
      "note": 43,
      "start": 8.4808,
      "duration": 0.1499,
      "velocity": 100,
      "chip": "ym2612"
    },
    {
      "channel": 4,
      "note": 43,
      "start": 8.4831,
      "duration": 1.1963,
      "velocity": 82,
      "chip": "ym2612"
    },
    {
      "channel": 0,
      "note": 53,
      "start": 8.6308,
      "duration": 1.0461,
      "velocity": 98,
      "chip": "ym2612"
    },
    {
      "channel": 1,
      "note": 89,
      "start": 8.6329,
      "duration": 0.1194,
      "velocity": 102,
      "chip": "ym2612"
    },
    {
      "channel": 2,
      "note": 84,
      "start": 8.6351,
      "duration": 0.1178,
      "velocity": 102,
      "chip": "ym2612"
    },
    {
      "channel": 3,
      "note": 80,
      "start": 8.6373,
      "duration": 0.1163,
      "velocity": 102,
      "chip": "ym2612"
    },
    {
      "channel": 1,
      "note": 87,
      "start": 8.7526,
      "duration": 0.109,
      "velocity": 102,
      "chip": "ym2612"
    },
    {
      "channel": 2,
      "note": 82,
      "start": 8.7531,
      "duration": 0.109,
      "velocity": 102,
      "chip": "ym2612"
    },
    {
      "channel": 3,
      "note": 79,
      "start": 8.7536,
      "duration": 0.109,
      "velocity": 102,
      "chip": "ym2612"
    },
    {
      "channel": 1,
      "note": 89,
      "start": 8.8617,
      "duration": 0.1533,
      "velocity": 102,
      "chip": "ym2612"
    },
    {
      "channel": 2,
      "note": 84,
      "start": 8.8623,
      "duration": 0.153,
      "velocity": 102,
      "chip": "ym2612"
    },
    {
      "channel": 3,
      "note": 80,
      "start": 8.8629,
      "duration": 0.1528,
      "velocity": 102,
      "chip": "ym2612"
    },
    {
      "channel": 1,
      "note": 88,
      "start": 9.0151,
      "duration": 0.0115,
      "velocity": 102,
      "chip": "ym2612"
    },
    {
      "channel": 2,
      "note": 83,
      "start": 9.0153,
      "duration": 0.0115,
      "velocity": 102,
      "chip": "ym2612"
    },
    {
      "channel": 3,
      "note": 80,
      "start": 9.0156,
      "duration": 0.0115,
      "velocity": 102,
      "chip": "ym2612"
    },
    {
      "channel": 1,
      "note": 88,
      "start": 9.0265,
      "duration": 0.0119,
      "velocity": 102,
      "chip": "ym2612"
    },
    {
      "channel": 2,
      "note": 83,
      "start": 9.0268,
      "duration": 0.012,
      "velocity": 102,
      "chip": "ym2612"
    },
    {
      "channel": 3,
      "note": 79,
      "start": 9.0271,
      "duration": 0.0119,
      "velocity": 102,
      "chip": "ym2612"
    },
    {
      "channel": 1,
      "note": 87,
      "start": 9.0384,
      "duration": 0.0247,
      "velocity": 102,
      "chip": "ym2612"
    },
    {
      "channel": 2,
      "note": 82,
      "start": 9.0387,
      "duration": 0.0246,
      "velocity": 102,
      "chip": "ym2612"
    },
    {
      "channel": 3,
      "note": 79,
      "start": 9.039,
      "duration": 0.0247,
      "velocity": 102,
      "chip": "ym2612"
    },
    {
      "channel": 1,
      "note": 87,
      "start": 9.0631,
      "duration": 0.0249,
      "velocity": 102,
      "chip": "ym2612"
    },
    {
      "channel": 2,
      "note": 81,
      "start": 9.0634,
      "duration": 0.0249,
      "velocity": 102,
      "chip": "ym2612"
    },
    {
      "channel": 3,
      "note": 78,
      "start": 9.0637,
      "duration": 0.0249,
      "velocity": 102,
      "chip": "ym2612"
    },
    {
      "channel": 1,
      "note": 86,
      "start": 9.088,
      "duration": 0.0124,
      "velocity": 102,
      "chip": "ym2612"
    },
    {
      "channel": 2,
      "note": 80,
      "start": 9.0882,
      "duration": 0.0124,
      "velocity": 102,
      "chip": "ym2612"
    },
    {
      "channel": 3,
      "note": 78,
      "start": 9.0885,
      "duration": 0.0124,
      "velocity": 102,
      "chip": "ym2612"
    },
    {
      "channel": 1,
      "note": 85,
      "start": 9.1004,
      "duration": 0.0122,
      "velocity": 102,
      "chip": "ym2612"
    },
    {
      "channel": 2,
      "note": 80,
      "start": 9.1006,
      "duration": 0.0123,
      "velocity": 102,
      "chip": "ym2612"
    },
    {
      "channel": 3,
      "note": 77,
      "start": 9.1009,
      "duration": 0.0122,
      "velocity": 102,
      "chip": "ym2612"
    },
    {
      "channel": 1,
      "note": 85,
      "start": 9.1126,
      "duration": 0.025,
      "velocity": 102,
      "chip": "ym2612"
    },
    {
      "channel": 2,
      "note": 79,
      "start": 9.1129,
      "duration": 0.0252,
      "velocity": 102,
      "chip": "ym2612"
    },
    {
      "channel": 3,
      "note": 77,
      "start": 9.1131,
      "duration": 0.0255,
      "velocity": 102,
      "chip": "ym2612"
    },
    {
      "channel": 1,
      "note": 77,
      "start": 9.1377,
      "duration": 0.1103,
      "velocity": 1,
      "chip": "ym2612"
    },
    {
      "channel": 2,
      "note": 72,
      "start": 9.1383,
      "duration": 0.1119,
      "velocity": 1,
      "chip": "ym2612"
    },
    {
      "channel": 3,
      "note": 68,
      "start": 9.1388,
      "duration": 0.1134,
      "velocity": 1,
      "chip": "ym2612"
    },
    {
      "channel": 1,
      "note": 67,
      "start": 9.2482,
      "duration": 0.8131,
      "velocity": 99,
      "chip": "ym2612"
    },
    {
      "channel": 2,
      "note": 67,
      "start": 9.2503,
      "duration": 1.4747,
      "velocity": 102,
      "chip": "ym2612"
    },
    {
      "channel": 3,
      "note": 67,
      "start": 9.2525,
      "duration": 1.4746,
      "velocity": 102,
      "chip": "ym2612"
    },
    {
      "channel": 0,
      "note": 36,
      "start": 9.6772,
      "duration": 0.1201,
      "velocity": 98,
      "chip": "ym2612"
    },
    {
      "channel": 4,
      "note": 48,
      "start": 9.6795,
      "duration": 0.1185,
      "velocity": 82,
      "chip": "ym2612"
    },
    {
      "channel": 0,
      "note": 39,
      "start": 9.7974,
      "duration": 0.1085,
      "velocity": 98,
      "chip": "ym2612"
    },
    {
      "channel": 4,
      "note": 51,
      "start": 9.7982,
      "duration": 0.1084,
      "velocity": 82,
      "chip": "ym2612"
    },
    {
      "channel": 0,
      "note": 36,
      "start": 9.906,
      "duration": 0.1531,
      "velocity": 98,
      "chip": "ym2612"
    },
    {
      "channel": 4,
      "note": 48,
      "start": 9.9067,
      "duration": 0.1552,
      "velocity": 82,
      "chip": "ym2612"
    },
    {
      "channel": 0,
      "note": 39,
      "start": 10.0593,
      "duration": 0.11,
      "velocity": 98,
      "chip": "ym2612"
    },
    {
      "channel": 1,
      "note": 51,
      "start": 10.0614,
      "duration": 0.059,
      "velocity": 99,
      "chip": "ym2612"
    },
    {
      "channel": 4,
      "note": 51,
      "start": 10.0621,
      "duration": 0.1084,
      "velocity": 82,
      "chip": "ym2612"
    },
    {
      "channel": 1,
      "note": 63,
      "start": 10.1206,
      "duration": 0.0493,
      "velocity": 99,
      "chip": "ym2612"
    },
    {
      "channel": 0,
      "note": 39,
      "start": 10.1695,
      "duration": 0.2422,
      "velocity": 98,
      "chip": "ym2612"
    },
    {
      "channel": 1,
      "note": 51,
      "start": 10.17,
      "duration": 0.1206,
      "velocity": 99,
      "chip": "ym2612"
    },
    {
      "channel": 4,
      "note": 51,
      "start": 10.1707,
      "duration": 0.2422,
      "velocity": 82,
      "chip": "ym2612"
    },
    {
      "channel": 1,
      "note": 63,
      "start": 10.2908,
      "duration": 0.1214,
      "velocity": 99,
      "chip": "ym2612"
    },
    {
      "channel": 0,
      "note": 41,
      "start": 10.4118,
      "duration": 0.1422,
      "velocity": 1,
      "chip": "ym2612"
    },
    {
      "channel": 1,
      "note": 53,
      "start": 10.4124,
      "duration": 0.3105,
      "velocity": 102,
      "chip": "ym2612"
    },
    {
      "channel": 4,
      "note": 53,
      "start": 10.4131,
      "duration": 0.1432,
      "velocity": 1,
      "chip": "ym2612"
    },
    {
      "channel": 0,
      "note": 43,
      "start": 10.5541,
      "duration": 0.1666,
      "velocity": 100,
      "chip": "ym2612"
    },
    {
      "channel": 4,
      "note": 43,
      "start": 10.5564,
      "duration": 1.5959,
      "velocity": 82,
      "chip": "ym2612"
    },
    {
      "channel": 0,
      "note": 56,
      "start": 10.7209,
      "duration": 1.4229,
      "velocity": 98,
      "chip": "ym2612"
    },
    {
      "channel": 1,
      "note": 89,
      "start": 10.723,
      "duration": 0.1075,
      "velocity": 102,
      "chip": "ym2612"
    },
    {
      "channel": 2,
      "note": 84,
      "start": 10.7251,
      "duration": 0.1059,
      "velocity": 102,
      "chip": "ym2612"
    },
    {
      "channel": 3,
      "note": 80,
      "start": 10.7273,
      "duration": 0.1043,
      "velocity": 102,
      "chip": "ym2612"
    },
    {
      "channel": 1,
      "note": 87,
      "start": 10.8307,
      "duration": 0.121,
      "velocity": 102,
      "chip": "ym2612"
    },
    {
      "channel": 2,
      "note": 82,
      "start": 10.8312,
      "duration": 0.121,
      "velocity": 102,
      "chip": "ym2612"
    },
    {
      "channel": 3,
      "note": 79,
      "start": 10.8317,
      "duration": 0.121,
      "velocity": 102,
      "chip": "ym2612"
    },
    {
      "channel": 1,
      "note": 89,
      "start": 10.9518,
      "duration": 0.158,
      "velocity": 102,
      "chip": "ym2612"
    },
    {
      "channel": 2,
      "note": 84,
      "start": 10.9523,
      "duration": 0.1578,
      "velocity": 102,
      "chip": "ym2612"
    },
    {
      "channel": 3,
      "note": 80,
      "start": 10.9529,
      "duration": 0.1575,
      "velocity": 102,
      "chip": "ym2612"
    },
    {
      "channel": 1,
      "note": 88,
      "start": 11.1099,
      "duration": 0.0111,
      "velocity": 102,
      "chip": "ym2612"
    },
    {
      "channel": 2,
      "note": 83,
      "start": 11.1101,
      "duration": 0.0112,
      "velocity": 102,
      "chip": "ym2612"
    },
    {
      "channel": 3,
      "note": 80,
      "start": 11.1104,
      "duration": 0.0111,
      "velocity": 102,
      "chip": "ym2612"
    },
    {
      "channel": 1,
      "note": 88,
      "start": 11.121,
      "duration": 0.0124,
      "velocity": 102,
      "chip": "ym2612"
    },
    {
      "channel": 2,
      "note": 83,
      "start": 11.1213,
      "duration": 0.0123,
      "velocity": 102,
      "chip": "ym2612"
    },
    {
      "channel": 3,
      "note": 79,
      "start": 11.1215,
      "duration": 0.0124,
      "velocity": 102,
      "chip": "ym2612"
    },
    {
      "channel": 1,
      "note": 87,
      "start": 11.1334,
      "duration": 0.0125,
      "velocity": 102,
      "chip": "ym2612"
    },
    {
      "channel": 2,
      "note": 82,
      "start": 11.1336,
      "duration": 0.0125,
      "velocity": 102,
      "chip": "ym2612"
    },
    {
      "channel": 3,
      "note": 79,
      "start": 11.1339,
      "duration": 0.0125,
      "velocity": 102,
      "chip": "ym2612"
    },
    {
      "channel": 1,
      "note": 87,
      "start": 11.1459,
      "duration": 0.0364,
      "velocity": 102,
      "chip": "ym2612"
    },
    {
      "channel": 2,
      "note": 81,
      "start": 11.1462,
      "duration": 0.0364,
      "velocity": 102,
      "chip": "ym2612"
    },
    {
      "channel": 3,
      "note": 78,
      "start": 11.1465,
      "duration": 0.0364,
      "velocity": 102,
      "chip": "ym2612"
    },
    {
      "channel": 1,
      "note": 86,
      "start": 11.1823,
      "duration": 0.012,
      "velocity": 102,
      "chip": "ym2612"
    },
    {
      "channel": 2,
      "note": 80,
      "start": 11.1825,
      "duration": 0.0121,
      "velocity": 102,
      "chip": "ym2612"
    },
    {
      "channel": 3,
      "note": 78,
      "start": 11.1829,
      "duration": 0.012,
      "velocity": 102,
      "chip": "ym2612"
    },
    {
      "channel": 1,
      "note": 85,
      "start": 11.1943,
      "duration": 0.0124,
      "velocity": 102,
      "chip": "ym2612"
    },
    {
      "channel": 2,
      "note": 80,
      "start": 11.1946,
      "duration": 0.0124,
      "velocity": 102,
      "chip": "ym2612"
    },
    {
      "channel": 3,
      "note": 77,
      "start": 11.1949,
      "duration": 0.0124,
      "velocity": 102,
      "chip": "ym2612"
    },
    {
      "channel": 1,
      "note": 85,
      "start": 11.2067,
      "duration": 0.0124,
      "velocity": 102,
      "chip": "ym2612"
    },
    {
      "channel": 2,
      "note": 79,
      "start": 11.207,
      "duration": 0.0127,
      "velocity": 102,
      "chip": "ym2612"
    },
    {
      "channel": 3,
      "note": 77,
      "start": 11.2073,
      "duration": 0.013,
      "velocity": 102,
      "chip": "ym2612"
    },
    {
      "channel": 1,
      "note": 92,
      "start": 11.2193,
      "duration": 0.1227,
      "velocity": 1,
      "chip": "ym2612"
    },
    {
      "channel": 2,
      "note": 87,
      "start": 11.2199,
      "duration": 0.1242,
      "velocity": 1,
      "chip": "ym2612"
    },
    {
      "channel": 3,
      "note": 83,
      "start": 11.2204,
      "duration": 0.1258,
      "velocity": 1,
      "chip": "ym2612"
    },
    {
      "channel": 1,
      "note": 91,
      "start": 11.3421,
      "duration": 0.11,
      "velocity": 102,
      "chip": "ym2612"
    },
    {
      "channel": 2,
      "note": 91,
      "start": 11.3442,
      "duration": 0.11,
      "velocity": 102,
      "chip": "ym2612"
    },
    {
      "channel": 3,
      "note": 91,
      "start": 11.3464,
      "duration": 0.1099,
      "velocity": 102,
      "chip": "ym2612"
    },
    {
      "channel": 1,
      "note": 95,
      "start": 11.4522,
      "duration": 0.6937,
      "velocity": 99,
      "chip": "ym2612"
    },
    {
      "channel": 2,
      "note": 90,
      "start": 11.4544,
      "duration": 0.6937,
      "velocity": 1,
      "chip": "ym2612"
    },
    {
      "channel": 3,
      "note": 86,
      "start": 11.4565,
      "duration": 0.6937,
      "velocity": 1,
      "chip": "ym2612"
    },
    {
      "channel": 0,
      "note": 43,
      "start": 12.1439,
      "duration": 0.1228,
      "velocity": 98,
      "chip": "ym2612"
    },
    {
      "channel": 1,
      "note": 53,
      "start": 12.1461,
      "duration": 0.0607,
      "velocity": 99,
      "chip": "ym2612"
    },
    {
      "channel": 2,
      "note": 57,
      "start": 12.1482,
      "duration": 0.5896,
      "velocity": 102,
      "chip": "ym2612"
    },
    {
      "channel": 3,
      "note": 57,
      "start": 12.1504,
      "duration": 0.5895,
      "velocity": 102,
      "chip": "ym2612"
    },
    {
      "channel": 4,
      "note": 55,
      "start": 12.1525,
      "duration": 0.1154,
      "velocity": 82,
      "chip": "ym2612"
    },
    {
      "channel": 1,
      "note": 65,
      "start": 12.2069,
      "duration": 0.0603,
      "velocity": 99,
      "chip": "ym2612"
    },
    {
      "channel": 0,
      "note": 43,
      "start": 12.2668,
      "duration": 0.2303,
      "velocity": 98,
      "chip": "ym2612"
    },
    {
      "channel": 1,
      "note": 53,
      "start": 12.2674,
      "duration": 0.1205,
      "velocity": 99,
      "chip": "ym2612"
    },
    {
      "channel": 4,
      "note": 55,
      "start": 12.2681,
      "duration": 0.2318,
      "velocity": 82,
      "chip": "ym2612"
    },
    {
      "channel": 1,
      "note": 65,
      "start": 12.3881,
      "duration": 0.1096,
      "velocity": 99,
      "chip": "ym2612"
    },
    {
      "channel": 0,
      "note": 43,
      "start": 12.4973,
      "duration": 0.1218,
      "velocity": 98,
      "chip": "ym2612"
    },
    {
      "channel": 1,
      "note": 55,
      "start": 12.4979,
      "duration": 0.2377,
      "velocity": 102,
      "chip": "ym2612"
    },
    {
      "channel": 4,
      "note": 55,
      "start": 12.5001,
      "duration": 0.1197,
      "velocity": 82,
      "chip": "ym2612"
    },
    {
      "channel": 0,
      "note": 46,
      "start": 12.6193,
      "duration": 0.1141,
      "velocity": 98,
      "chip": "ym2612"
    },
    {
      "channel": 4,
      "note": 58,
      "start": 12.62,
      "duration": 0.1205,
      "velocity": 82,
      "chip": "ym2612"
    },
    {
      "channel": 0,
      "note": 48,
      "start": 12.7337,
      "duration": 0.244,
      "velocity": 98,
      "chip": "ym2612"
    },
    {
      "channel": 1,
      "note": 91,
      "start": 12.7358,
      "duration": 0.12,
      "velocity": 102,
      "chip": "ym2612"
    },
    {
      "channel": 2,
      "note": 86,
      "start": 12.7379,
      "duration": 0.1184,
      "velocity": 102,
      "chip": "ym2612"
    },
    {
      "channel": 3,
      "note": 82,
      "start": 12.7401,
      "duration": 0.1168,
      "velocity": 102,
      "chip": "ym2612"
    },
    {
      "channel": 4,
      "note": 60,
      "start": 12.7407,
      "duration": 0.2408,
      "velocity": 82,
      "chip": "ym2612"
    },
    {
      "channel": 1,
      "note": 89,
      "start": 12.856,
      "duration": 0.1222,
      "velocity": 102,
      "chip": "ym2612"
    },
    {
      "channel": 2,
      "note": 84,
      "start": 12.8565,
      "duration": 0.1222,
      "velocity": 102,
      "chip": "ym2612"
    },
    {
      "channel": 3,
      "note": 81,
      "start": 12.8571,
      "duration": 0.1222,
      "velocity": 102,
      "chip": "ym2612"
    },
    {
      "channel": 0,
      "note": 43,
      "start": 12.9779,
      "duration": 0.2649,
      "velocity": 98,
      "chip": "ym2612"
    },
    {
      "channel": 1,
      "note": 91,
      "start": 12.9784,
      "duration": 0.1428,
      "velocity": 102,
      "chip": "ym2612"
    },
    {
      "channel": 2,
      "note": 86,
      "start": 12.9789,
      "duration": 0.1424,
      "velocity": 102,
      "chip": "ym2612"
    },
    {
      "channel": 3,
      "note": 82,
      "start": 12.9795,
      "duration": 0.1422,
      "velocity": 102,
      "chip": "ym2612"
    },
    {
      "channel": 4,
      "note": 55,
      "start": 12.9816,
      "duration": 0.2649,
      "velocity": 82,
      "chip": "ym2612"
    },
    {
      "channel": 1,
      "note": 91,
      "start": 13.1211,
      "duration": 0.0103,
      "velocity": 102,
      "chip": "ym2612"
    },
    {
      "channel": 2,
      "note": 85,
      "start": 13.1214,
      "duration": 0.0103,
      "velocity": 102,
      "chip": "ym2612"
    },
    {
      "channel": 3,
      "note": 81,
      "start": 13.1217,
      "duration": 0.0103,
      "velocity": 102,
      "chip": "ym2612"
    },
    {
      "channel": 1,
      "note": 90,
      "start": 13.1314,
      "duration": 0.0241,
      "velocity": 102,
      "chip": "ym2612"
    },
    {
      "channel": 2,
      "note": 85,
      "start": 13.1317,
      "duration": 0.0241,
      "velocity": 102,
      "chip": "ym2612"
    },
    {
      "channel": 3,
      "note": 80,
      "start": 13.132,
      "duration": 0.0241,
      "velocity": 102,
      "chip": "ym2612"
    },
    {
      "channel": 1,
      "note": 90,
      "start": 13.1556,
      "duration": 0.0124,
      "velocity": 102,
      "chip": "ym2612"
    },
    {
      "channel": 2,
      "note": 84,
      "start": 13.1558,
      "duration": 0.0124,
      "velocity": 102,
      "chip": "ym2612"
    },
    {
      "channel": 3,
      "note": 80,
      "start": 13.1561,
      "duration": 0.0124,
      "velocity": 102,
      "chip": "ym2612"
    },
    {
      "channel": 1,
      "note": 89,
      "start": 13.1679,
      "duration": 0.0248,
      "velocity": 102,
      "chip": "ym2612"
    },
    {
      "channel": 2,
      "note": 83,
      "start": 13.1682,
      "duration": 0.0248,
      "velocity": 102,
      "chip": "ym2612"
    },
    {
      "channel": 3,
      "note": 79,
      "start": 13.1685,
      "duration": 0.0248,
      "velocity": 102,
      "chip": "ym2612"
    },
    {
      "channel": 1,
      "note": 88,
      "start": 13.1927,
      "duration": 0.0124,
      "velocity": 102,
      "chip": "ym2612"
    },
    {
      "channel": 2,
      "note": 82,
      "start": 13.1929,
      "duration": 0.0124,
      "velocity": 102,
      "chip": "ym2612"
    },
    {
      "channel": 3,
      "note": 79,
      "start": 13.1932,
      "duration": 0.0124,
      "velocity": 102,
      "chip": "ym2612"
    },
    {
      "channel": 1,
      "note": 88,
      "start": 13.2051,
      "duration": 0.0245,
      "velocity": 102,
      "chip": "ym2612"
    },
    {
      "channel": 2,
      "note": 82,
      "start": 13.2053,
      "duration": 0.0245,
      "velocity": 102,
      "chip": "ym2612"
    },
    {
      "channel": 3,
      "note": 78,
      "start": 13.2056,
      "duration": 0.0245,
      "velocity": 102,
      "chip": "ym2612"
    },
    {
      "channel": 1,
      "note": 87,
      "start": 13.2295,
      "duration": 0.0138,
      "velocity": 102,
      "chip": "ym2612"
    },
    {
      "channel": 2,
      "note": 81,
      "start": 13.2298,
      "duration": 0.0141,
      "velocity": 102,
      "chip": "ym2612"
    },
    {
      "channel": 3,
      "note": 78,
      "start": 13.2301,
      "duration": 0.0143,
      "velocity": 102,
      "chip": "ym2612"
    },
    {
      "channel": 0,
      "note": 31,
      "start": 13.2429,
      "duration": 0.1094,
      "velocity": 98,
      "chip": "ym2612"
    },
    {
      "channel": 1,
      "note": 79,
      "start": 13.2435,
      "duration": 0.111,
      "velocity": 1,
      "chip": "ym2612"
    },
    {
      "channel": 2,
      "note": 74,
      "start": 13.244,
      "duration": 0.1126,
      "velocity": 1,
      "chip": "ym2612"
    },
    {
      "channel": 3,
      "note": 70,
      "start": 13.2446,
      "duration": 0.1141,
      "velocity": 1,
      "chip": "ym2612"
    },
    {
      "channel": 4,
      "note": 43,
      "start": 13.2467,
      "duration": 0.1126,
      "velocity": 82,
      "chip": "ym2612"
    },
    {
      "channel": 0,
      "note": 43,
      "start": 13.3525,
      "duration": 0.1231,
      "velocity": 98,
      "chip": "ym2612"
    },
    {
      "channel": 1,
      "note": 69,
      "start": 13.3546,
      "duration": 0.7374,
      "velocity": 99,
      "chip": "ym2612"
    },
    {
      "channel": 2,
      "note": 69,
      "start": 13.3568,
      "duration": 1.3264,
      "velocity": 102,
      "chip": "ym2612"
    },
    {
      "channel": 3,
      "note": 69,
      "start": 13.3589,
      "duration": 1.3264,
      "velocity": 102,
      "chip": "ym2612"
    },
    {
      "channel": 4,
      "note": 55,
      "start": 13.3595,
      "duration": 0.1168,
      "velocity": 82,
      "chip": "ym2612"
    },
    {
      "channel": 0,
      "note": 38,
      "start": 13.4758,
      "duration": 0.121,
      "velocity": 98,
      "chip": "ym2612"
    },
    {
      "channel": 4,
      "note": 50,
      "start": 13.4765,
      "duration": 0.121,
      "velocity": 82,
      "chip": "ym2612"
    },
    {
      "channel": 0,
      "note": 46,
      "start": 13.597,
      "duration": 0.1088,
      "velocity": 98,
      "chip": "ym2612"
    },
    {
      "channel": 4,
      "note": 58,
      "start": 13.5977,
      "duration": 0.1089,
      "velocity": 82,
      "chip": "ym2612"
    },
    {
      "channel": 0,
      "note": 48,
      "start": 13.706,
      "duration": 0.1212,
      "velocity": 98,
      "chip": "ym2612"
    },
    {
      "channel": 4,
      "note": 60,
      "start": 13.7068,
      "duration": 0.1212,
      "velocity": 82,
      "chip": "ym2612"
    },
    {
      "channel": 0,
      "note": 49,
      "start": 13.8274,
      "duration": 0.1087,
      "velocity": 98,
      "chip": "ym2612"
    },
    {
      "channel": 4,
      "note": 61,
      "start": 13.8281,
      "duration": 0.1087,
      "velocity": 82,
      "chip": "ym2612"
    },
    {
      "channel": 0,
      "note": 50,
      "start": 13.9362,
      "duration": 0.1536,
      "velocity": 98,
      "chip": "ym2612"
    },
    {
      "channel": 4,
      "note": 62,
      "start": 13.937,
      "duration": 0.1556,
      "velocity": 82,
      "chip": "ym2612"
    },
    {
      "channel": 0,
      "note": 43,
      "start": 14.09,
      "duration": 0.1228,
      "velocity": 98,
      "chip": "ym2612"
    },
    {
      "channel": 1,
      "note": 53,
      "start": 14.0921,
      "duration": 0.0597,
      "velocity": 99,
      "chip": "ym2612"
    },
    {
      "channel": 4,
      "note": 55,
      "start": 14.0928,
      "duration": 0.1212,
      "velocity": 82,
      "chip": "ym2612"
    },
    {
      "channel": 1,
      "note": 65,
      "start": 14.152,
      "duration": 0.0613,
      "velocity": 99,
      "chip": "ym2612"
    },
    {
      "channel": 0,
      "note": 43,
      "start": 14.213,
      "duration": 0.2304,
      "velocity": 98,
      "chip": "ym2612"
    },
    {
      "channel": 1,
      "note": 53,
      "start": 14.2135,
      "duration": 0.1087,
      "velocity": 99,
      "chip": "ym2612"
    },
    {
      "channel": 4,
      "note": 55,
      "start": 14.2142,
      "duration": 0.232,
      "velocity": 82,
      "chip": "ym2612"
    },
    {
      "channel": 1,
      "note": 65,
      "start": 14.3224,
      "duration": 0.1216,
      "velocity": 99,
      "chip": "ym2612"
    },
    {
      "channel": 0,
      "note": 43,
      "start": 14.4436,
      "duration": 0.109,
      "velocity": 98,
      "chip": "ym2612"
    },
    {
      "channel": 1,
      "note": 55,
      "start": 14.4441,
      "duration": 0.2369,
      "velocity": 102,
      "chip": "ym2612"
    },
    {
      "channel": 4,
      "note": 55,
      "start": 14.4464,
      "duration": 0.1068,
      "velocity": 82,
      "chip": "ym2612"
    },
    {
      "channel": 0,
      "note": 46,
      "start": 14.5527,
      "duration": 0.1262,
      "velocity": 98,
      "chip": "ym2612"
    },
    {
      "channel": 4,
      "note": 58,
      "start": 14.5534,
      "duration": 0.1325,
      "velocity": 82,
      "chip": "ym2612"
    },
    {
      "channel": 0,
      "note": 48,
      "start": 14.6791,
      "duration": 0.2313,
      "velocity": 98,
      "chip": "ym2612"
    },
    {
      "channel": 1,
      "note": 91,
      "start": 14.6812,
      "duration": 0.12,
      "velocity": 102,
      "chip": "ym2612"
    },
    {
      "channel": 2,
      "note": 86,
      "start": 14.6834,
      "duration": 0.1184,
      "velocity": 102,
      "chip": "ym2612"
    },
    {
      "channel": 3,
      "note": 82,
      "start": 14.6855,
      "duration": 0.1168,
      "velocity": 102,
      "chip": "ym2612"
    },
    {
      "channel": 4,
      "note": 60,
      "start": 14.6861,
      "duration": 0.2282,
      "velocity": 82,
      "chip": "ym2612"
    },
    {
      "channel": 1,
      "note": 89,
      "start": 14.8014,
      "duration": 0.1096,
      "velocity": 102,
      "chip": "ym2612"
    },
    {
      "channel": 2,
      "note": 84,
      "start": 14.8019,
      "duration": 0.1097,
      "velocity": 102,
      "chip": "ym2612"
    },
    {
      "channel": 3,
      "note": 81,
      "start": 14.8024,
      "duration": 0.1096,
      "velocity": 102,
      "chip": "ym2612"
    },
    {
      "channel": 0,
      "note": 43,
      "start": 14.9106,
      "duration": 0.2642,
      "velocity": 98,
      "chip": "ym2612"
    },
    {
      "channel": 1,
      "note": 91,
      "start": 14.9112,
      "duration": 0.1543,
      "velocity": 102,
      "chip": "ym2612"
    },
    {
      "channel": 2,
      "note": 86,
      "start": 14.9117,
      "duration": 0.1541,
      "velocity": 102,
      "chip": "ym2612"
    },
    {
      "channel": 3,
      "note": 82,
      "start": 14.9123,
      "duration": 0.1538,
      "velocity": 102,
      "chip": "ym2612"
    },
    {
      "channel": 4,
      "note": 55,
      "start": 14.9144,
      "duration": 0.2643,
      "velocity": 82,
      "chip": "ym2612"
    },
    {
      "channel": 1,
      "note": 91,
      "start": 15.0655,
      "duration": 0.0103,
      "velocity": 102,
      "chip": "ym2612"
    },
    {
      "channel": 2,
      "note": 85,
      "start": 15.0657,
      "duration": 0.0103,
      "velocity": 102,
      "chip": "ym2612"
    },
    {
      "channel": 3,
      "note": 81,
      "start": 15.0661,
      "duration": 0.0103,
      "velocity": 102,
      "chip": "ym2612"
    },
    {
      "channel": 1,
      "note": 90,
      "start": 15.0758,
      "duration": 0.0119,
      "velocity": 102,
      "chip": "ym2612"
    },
    {
      "channel": 2,
      "note": 85,
      "start": 15.076,
      "duration": 0.012,
      "velocity": 102,
      "chip": "ym2612"
    },
    {
      "channel": 3,
      "note": 80,
      "start": 15.0763,
      "duration": 0.0119,
      "velocity": 102,
      "chip": "ym2612"
    },
    {
      "channel": 1,
      "note": 90,
      "start": 15.0877,
      "duration": 0.0124,
      "velocity": 102,
      "chip": "ym2612"
    },
    {
      "channel": 2,
      "note": 84,
      "start": 15.088,
      "duration": 0.0124,
      "velocity": 102,
      "chip": "ym2612"
    },
    {
      "channel": 3,
      "note": 80,
      "start": 15.0883,
      "duration": 0.0124,
      "velocity": 102,
      "chip": "ym2612"
    },
    {
      "channel": 1,
      "note": 89,
      "start": 15.1001,
      "duration": 0.0372,
      "velocity": 102,
      "chip": "ym2612"
    },
    {
      "channel": 2,
      "note": 83,
      "start": 15.1004,
      "duration": 0.0372,
      "velocity": 102,
      "chip": "ym2612"
    },
    {
      "channel": 3,
      "note": 79,
      "start": 15.1007,
      "duration": 0.0372,
      "velocity": 102,
      "chip": "ym2612"
    },
    {
      "channel": 1,
      "note": 88,
      "start": 15.1373,
      "duration": 0.0124,
      "velocity": 102,
      "chip": "ym2612"
    },
    {
      "channel": 2,
      "note": 82,
      "start": 15.1376,
      "duration": 0.0124,
      "velocity": 102,
      "chip": "ym2612"
    },
    {
      "channel": 3,
      "note": 79,
      "start": 15.1379,
      "duration": 0.0124,
      "velocity": 102,
      "chip": "ym2612"
    },
    {
      "channel": 1,
      "note": 88,
      "start": 15.1497,
      "duration": 0.012,
      "velocity": 102,
      "chip": "ym2612"
    },
    {
      "channel": 2,
      "note": 82,
      "start": 15.15,
      "duration": 0.0121,
      "velocity": 102,
      "chip": "ym2612"
    },
    {
      "channel": 3,
      "note": 78,
      "start": 15.1503,
      "duration": 0.012,
      "velocity": 102,
      "chip": "ym2612"
    },
    {
      "channel": 1,
      "note": 87,
      "start": 15.1617,
      "duration": 0.0137,
      "velocity": 102,
      "chip": "ym2612"
    },
    {
      "channel": 2,
      "note": 81,
      "start": 15.1621,
      "duration": 0.0139,
      "velocity": 102,
      "chip": "ym2612"
    },
    {
      "channel": 3,
      "note": 78,
      "start": 15.1623,
      "duration": 0.0143,
      "velocity": 102,
      "chip": "ym2612"
    },
    {
      "channel": 0,
      "note": 31,
      "start": 15.1751,
      "duration": 0.1221,
      "velocity": 98,
      "chip": "ym2612"
    },
    {
      "channel": 1,
      "note": 94,
      "start": 15.1756,
      "duration": 0.1237,
      "velocity": 1,
      "chip": "ym2612"
    },
    {
      "channel": 2,
      "note": 89,
      "start": 15.1761,
      "duration": 0.1254,
      "velocity": 1,
      "chip": "ym2612"
    },
    {
      "channel": 3,
      "note": 85,
      "start": 15.1767,
      "duration": 0.1269,
      "velocity": 1,
      "chip": "ym2612"
    },
    {
      "channel": 4,
      "note": 43,
      "start": 15.1789,
      "duration": 0.1253,
      "velocity": 82,
      "chip": "ym2612"
    },
    {
      "channel": 0,
      "note": 43,
      "start": 15.2974,
      "duration": 0.123,
      "velocity": 98,
      "chip": "ym2612"
    },
    {
      "channel": 1,
      "note": 93,
      "start": 15.2995,
      "duration": 0.1231,
      "velocity": 102,
      "chip": "ym2612"
    },
    {
      "channel": 2,
      "note": 93,
      "start": 15.3017,
      "duration": 0.123,
      "velocity": 102,
      "chip": "ym2612"
    },
    {
      "channel": 3,
      "note": 93,
      "start": 15.3038,
      "duration": 0.123,
      "velocity": 102,
      "chip": "ym2612"
    },
    {
      "channel": 4,
      "note": 55,
      "start": 15.3044,
      "duration": 0.123,
      "velocity": 82,
      "chip": "ym2612"
    },
    {
      "channel": 0,
      "note": 43,
      "start": 15.4206,
      "duration": 0.1109,
      "velocity": 98,
      "chip": "ym2612"
    },
    {
      "channel": 1,
      "note": 97,
      "start": 15.4227,
      "duration": 0.6224,
      "velocity": 99,
      "chip": "ym2612"
    },
    {
      "channel": 2,
      "note": 92,
      "start": 15.4248,
      "duration": 0.6224,
      "velocity": 1,
      "chip": "ym2612"
    },
    {
      "channel": 3,
      "note": 88,
      "start": 15.427,
      "duration": 0.6223,
      "velocity": 1,
      "chip": "ym2612"
    },
    {
      "channel": 4,
      "note": 55,
      "start": 15.4276,
      "duration": 0.1046,
      "velocity": 82,
      "chip": "ym2612"
    },
    {
      "channel": 0,
      "note": 46,
      "start": 15.5316,
      "duration": 0.1214,
      "velocity": 98,
      "chip": "ym2612"
    },
    {
      "channel": 4,
      "note": 58,
      "start": 15.5323,
      "duration": 0.1262,
      "velocity": 82,
      "chip": "ym2612"
    },
    {
      "channel": 0,
      "note": 48,
      "start": 15.6532,
      "duration": 0.1102,
      "velocity": 98,
      "chip": "ym2612"
    },
    {
      "channel": 4,
      "note": 60,
      "start": 15.6587,
      "duration": 0.1055,
      "velocity": 82,
      "chip": "ym2612"
    },
    {
      "channel": 0,
      "note": 49,
      "start": 15.7636,
      "duration": 0.1213,
      "velocity": 98,
      "chip": "ym2612"
    },
    {
      "channel": 4,
      "note": 61,
      "start": 15.7643,
      "duration": 0.1212,
      "velocity": 82,
      "chip": "ym2612"
    },
    {
      "channel": 0,
      "note": 50,
      "start": 15.885,
      "duration": 0.1578,
      "velocity": 98,
      "chip": "ym2612"
    },
    {
      "channel": 4,
      "note": 62,
      "start": 15.8857,
      "duration": 0.1642,
      "velocity": 82,
      "chip": "ym2612"
    },
    {
      "channel": 0,
      "note": 43,
      "start": 16.0431,
      "duration": 0.1113,
      "velocity": 98,
      "chip": "ym2612"
    },
    {
      "channel": 1,
      "note": 53,
      "start": 16.0451,
      "duration": 0.0496,
      "velocity": 99,
      "chip": "ym2612"
    },
    {
      "channel": 2,
      "note": 57,
      "start": 16.0473,
      "duration": 0.5933,
      "velocity": 102,
      "chip": "ym2612"
    },
    {
      "channel": 3,
      "note": 57,
      "start": 16.0495,
      "duration": 0.5933,
      "velocity": 102,
      "chip": "ym2612"
    },
    {
      "channel": 4,
      "note": 55,
      "start": 16.0501,
      "duration": 0.1055,
      "velocity": 82,
      "chip": "ym2612"
    },
    {
      "channel": 1,
      "note": 65,
      "start": 16.095,
      "duration": 0.0599,
      "velocity": 99,
      "chip": "ym2612"
    },
    {
      "channel": 0,
      "note": 43,
      "start": 16.1545,
      "duration": 0.2292,
      "velocity": 98,
      "chip": "ym2612"
    },
    {
      "channel": 1,
      "note": 53,
      "start": 16.1551,
      "duration": 0.1197,
      "velocity": 99,
      "chip": "ym2612"
    },
    {
      "channel": 4,
      "note": 55,
      "start": 16.1558,
      "duration": 0.2307,
      "velocity": 82,
      "chip": "ym2612"
    },
    {
      "channel": 1,
      "note": 65,
      "start": 16.2749,
      "duration": 0.1093,
      "velocity": 99,
      "chip": "ym2612"
    },
    {
      "channel": 0,
      "note": 43,
      "start": 16.3839,
      "duration": 0.1214,
      "velocity": 98,
      "chip": "ym2612"
    },
    {
      "channel": 1,
      "note": 55,
      "start": 16.3844,
      "duration": 0.2541,
      "velocity": 102,
      "chip": "ym2612"
    },
    {
      "channel": 4,
      "note": 55,
      "start": 16.3866,
      "duration": 0.1193,
      "velocity": 82,
      "chip": "ym2612"
    },
    {
      "channel": 0,
      "note": 46,
      "start": 16.5054,
      "duration": 0.1309,
      "velocity": 98,
      "chip": "ym2612"
    },
    {
      "channel": 4,
      "note": 58,
      "start": 16.5061,
      "duration": 0.1372,
      "velocity": 82,
      "chip": "ym2612"
    },
    {
      "channel": 0,
      "note": 48,
      "start": 16.6366,
      "duration": 0.2324,
      "velocity": 98,
      "chip": "ym2612"
    },
    {
      "channel": 1,
      "note": 91,
      "start": 16.6386,
      "duration": 0.1085,
      "velocity": 102,
      "chip": "ym2612"
    },
    {
      "channel": 2,
      "note": 86,
      "start": 16.6408,
      "duration": 0.1069,
      "velocity": 102,
      "chip": "ym2612"
    },
    {
      "channel": 3,
      "note": 82,
      "start": 16.643,
      "duration": 0.1053,
      "velocity": 102,
      "chip": "ym2612"
    },
    {
      "channel": 4,
      "note": 60,
      "start": 16.6435,
      "duration": 0.2292,
      "velocity": 82,
      "chip": "ym2612"
    },
    {
      "channel": 1,
      "note": 89,
      "start": 16.7473,
      "duration": 0.1222,
      "velocity": 102,
      "chip": "ym2612"
    },
    {
      "channel": 2,
      "note": 84,
      "start": 16.7479,
      "duration": 0.1222,
      "velocity": 102,
      "chip": "ym2612"
    },
    {
      "channel": 3,
      "note": 81,
      "start": 16.7485,
      "duration": 0.1221,
      "velocity": 102,
      "chip": "ym2612"
    },
    {
      "channel": 0,
      "note": 43,
      "start": 16.8691,
      "duration": 0.2651,
      "velocity": 98,
      "chip": "ym2612"
    },
    {
      "channel": 1,
      "note": 91,
      "start": 16.8697,
      "duration": 0.1429,
      "velocity": 102,
      "chip": "ym2612"
    },
    {
      "channel": 2,
      "note": 86,
      "start": 16.8702,
      "duration": 0.1426,
      "velocity": 102,
      "chip": "ym2612"
    },
    {
      "channel": 3,
      "note": 82,
      "start": 16.8708,
      "duration": 0.1423,
      "velocity": 102,
      "chip": "ym2612"
    },
    {
      "channel": 4,
      "note": 55,
      "start": 16.8729,
      "duration": 0.2651,
      "velocity": 82,
      "chip": "ym2612"
    },
    {
      "channel": 1,
      "note": 91,
      "start": 17.0125,
      "duration": 0.0225,
      "velocity": 102,
      "chip": "ym2612"
    },
    {
      "channel": 2,
      "note": 85,
      "start": 17.0128,
      "duration": 0.0226,
      "velocity": 102,
      "chip": "ym2612"
    },
    {
      "channel": 3,
      "note": 81,
      "start": 17.0131,
      "duration": 0.0225,
      "velocity": 102,
      "chip": "ym2612"
    },
    {
      "channel": 1,
      "note": 90,
      "start": 17.035,
      "duration": 0.0123,
      "velocity": 102,
      "chip": "ym2612"
    },
    {
      "channel": 2,
      "note": 85,
      "start": 17.0354,
      "duration": 0.0122,
      "velocity": 102,
      "chip": "ym2612"
    },
    {
      "channel": 3,
      "note": 80,
      "start": 17.0356,
      "duration": 0.0123,
      "velocity": 102,
      "chip": "ym2612"
    },
    {
      "channel": 1,
      "note": 90,
      "start": 17.0473,
      "duration": 0.0124,
      "velocity": 102,
      "chip": "ym2612"
    },
    {
      "channel": 2,
      "note": 84,
      "start": 17.0476,
      "duration": 0.0124,
      "velocity": 102,
      "chip": "ym2612"
    },
    {
      "channel": 3,
      "note": 80,
      "start": 17.0479,
      "duration": 0.0124,
      "velocity": 102,
      "chip": "ym2612"
    },
    {
      "channel": 1,
      "note": 89,
      "start": 17.0597,
      "duration": 0.0248,
      "velocity": 102,
      "chip": "ym2612"
    },
    {
      "channel": 2,
      "note": 83,
      "start": 17.0599,
      "duration": 0.0248,
      "velocity": 102,
      "chip": "ym2612"
    },
    {
      "channel": 3,
      "note": 79,
      "start": 17.0602,
      "duration": 0.0248,
      "velocity": 102,
      "chip": "ym2612"
    },
    {
      "channel": 1,
      "note": 88,
      "start": 17.0844,
      "duration": 0.0243,
      "velocity": 102,
      "chip": "ym2612"
    },
    {
      "channel": 2,
      "note": 82,
      "start": 17.0847,
      "duration": 0.0244,
      "velocity": 102,
      "chip": "ym2612"
    },
    {
      "channel": 3,
      "note": 79,
      "start": 17.085,
      "duration": 0.0243,
      "velocity": 102,
      "chip": "ym2612"
    },
    {
      "channel": 1,
      "note": 88,
      "start": 17.1087,
      "duration": 0.0123,
      "velocity": 102,
      "chip": "ym2612"
    },
    {
      "channel": 2,
      "note": 82,
      "start": 17.109,
      "duration": 0.0122,
      "velocity": 102,
      "chip": "ym2612"
    },
    {
      "channel": 3,
      "note": 78,
      "start": 17.1093,
      "duration": 0.0123,
      "velocity": 102,
      "chip": "ym2612"
    },
    {
      "channel": 1,
      "note": 87,
      "start": 17.121,
      "duration": 0.0138,
      "velocity": 102,
      "chip": "ym2612"
    },
    {
      "channel": 2,
      "note": 81,
      "start": 17.1213,
      "duration": 0.014,
      "velocity": 102,
      "chip": "ym2612"
    },
    {
      "channel": 3,
      "note": 78,
      "start": 17.1216,
      "duration": 0.0143,
      "velocity": 102,
      "chip": "ym2612"
    },
    {
      "channel": 0,
      "note": 31,
      "start": 17.1344,
      "duration": 0.1212,
      "velocity": 98,
      "chip": "ym2612"
    },
    {
      "channel": 1,
      "note": 79,
      "start": 17.1349,
      "duration": 0.1229,
      "velocity": 1,
      "chip": "ym2612"
    },
    {
      "channel": 2,
      "note": 74,
      "start": 17.1355,
      "duration": 0.1244,
      "velocity": 1,
      "chip": "ym2612"
    },
    {
      "channel": 3,
      "note": 70,
      "start": 17.1361,
      "duration": 0.126,
      "velocity": 1,
      "chip": "ym2612"
    },
    {
      "channel": 4,
      "note": 43,
      "start": 17.1382,
      "duration": 0.1244,
      "velocity": 82,
      "chip": "ym2612"
    },
    {
      "channel": 0,
      "note": 43,
      "start": 17.2558,
      "duration": 0.11,
      "velocity": 98,
      "chip": "ym2612"
    },
    {
      "channel": 1,
      "note": 69,
      "start": 17.2579,
      "duration": 0.7247,
      "velocity": 99,
      "chip": "ym2612"
    },
    {
      "channel": 2,
      "note": 69,
      "start": 17.26,
      "duration": 1.3134,
      "velocity": 102,
      "chip": "ym2612"
    },
    {
      "channel": 3,
      "note": 69,
      "start": 17.2623,
      "duration": 1.3134,
      "velocity": 102,
      "chip": "ym2612"
    },
    {
      "channel": 4,
      "note": 55,
      "start": 17.2628,
      "duration": 0.1037,
      "velocity": 82,
      "chip": "ym2612"
    },
    {
      "channel": 0,
      "note": 38,
      "start": 17.366,
      "duration": 0.1211,
      "velocity": 98,
      "chip": "ym2612"
    },
    {
      "channel": 4,
      "note": 50,
      "start": 17.3667,
      "duration": 0.1211,
      "velocity": 82,
      "chip": "ym2612"
    },
    {
      "channel": 0,
      "note": 46,
      "start": 17.4872,
      "duration": 0.109,
      "velocity": 98,
      "chip": "ym2612"
    },
    {
      "channel": 4,
      "note": 58,
      "start": 17.4879,
      "duration": 0.1089,
      "velocity": 82,
      "chip": "ym2612"
    },
    {
      "channel": 0,
      "note": 48,
      "start": 17.5964,
      "duration": 0.1216,
      "velocity": 98,
      "chip": "ym2612"
    },
    {
      "channel": 4,
      "note": 60,
      "start": 17.5971,
      "duration": 0.1216,
      "velocity": 82,
      "chip": "ym2612"
    },
    {
      "channel": 0,
      "note": 49,
      "start": 17.7181,
      "duration": 0.1215,
      "velocity": 98,
      "chip": "ym2612"
    },
    {
      "channel": 4,
      "note": 61,
      "start": 17.7189,
      "duration": 0.1214,
      "velocity": 82,
      "chip": "ym2612"
    },
    {
      "channel": 0,
      "note": 50,
      "start": 17.8397,
      "duration": 0.1408,
      "velocity": 98,
      "chip": "ym2612"
    },
    {
      "channel": 4,
      "note": 62,
      "start": 17.8404,
      "duration": 0.1429,
      "velocity": 82,
      "chip": "ym2612"
    },
    {
      "channel": 0,
      "note": 43,
      "start": 17.9807,
      "duration": 0.1227,
      "velocity": 98,
      "chip": "ym2612"
    },
    {
      "channel": 1,
      "note": 53,
      "start": 17.9828,
      "duration": 0.0594,
      "velocity": 99,
      "chip": "ym2612"
    },
    {
      "channel": 4,
      "note": 55,
      "start": 17.9835,
      "duration": 0.1212,
      "velocity": 82,
      "chip": "ym2612"
    },
    {
      "channel": 1,
      "note": 65,
      "start": 18.0424,
      "duration": 0.0615,
      "velocity": 99,
      "chip": "ym2612"
    },
    {
      "channel": 0,
      "note": 43,
      "start": 18.1036,
      "duration": 0.2301,
      "velocity": 98,
      "chip": "ym2612"
    },
    {
      "channel": 1,
      "note": 53,
      "start": 18.1041,
      "duration": 0.1083,
      "velocity": 99,
      "chip": "ym2612"
    },
    {
      "channel": 4,
      "note": 55,
      "start": 18.1048,
      "duration": 0.2316,
      "velocity": 82,
      "chip": "ym2612"
    },
    {
      "channel": 1,
      "note": 65,
      "start": 18.2126,
      "duration": 0.1216,
      "velocity": 99,
      "chip": "ym2612"
    },
    {
      "channel": 0,
      "note": 43,
      "start": 18.3338,
      "duration": 0.1213,
      "velocity": 98,
      "chip": "ym2612"
    },
    {
      "channel": 1,
      "note": 55,
      "start": 18.3344,
      "duration": 0.2369,
      "velocity": 102,
      "chip": "ym2612"
    },
    {
      "channel": 4,
      "note": 55,
      "start": 18.3366,
      "duration": 0.1192,
      "velocity": 82,
      "chip": "ym2612"
    },
    {
      "channel": 0,
      "note": 46,
      "start": 18.4553,
      "duration": 0.1139,
      "velocity": 98,
      "chip": "ym2612"
    },
    {
      "channel": 4,
      "note": 58,
      "start": 18.456,
      "duration": 0.1202,
      "velocity": 82,
      "chip": "ym2612"
    },
    {
      "channel": 0,
      "note": 48,
      "start": 18.5694,
      "duration": 0.2313,
      "velocity": 98,
      "chip": "ym2612"
    },
    {
      "channel": 1,
      "note": 91,
      "start": 18.5715,
      "duration": 0.1202,
      "velocity": 102,
      "chip": "ym2612"
    },
    {
      "channel": 2,
      "note": 86,
      "start": 18.5737,
      "duration": 0.1186,
      "velocity": 102,
      "chip": "ym2612"
    },
    {
      "channel": 3,
      "note": 82,
      "start": 18.5758,
      "duration": 0.1169,
      "velocity": 102,
      "chip": "ym2612"
    },
    {
      "channel": 4,
      "note": 60,
      "start": 18.5764,
      "duration": 0.2282,
      "velocity": 82,
      "chip": "ym2612"
    },
    {
      "channel": 1,
      "note": 89,
      "start": 18.6919,
      "duration": 0.1094,
      "velocity": 102,
      "chip": "ym2612"
    },
    {
      "channel": 2,
      "note": 84,
      "start": 18.6924,
      "duration": 0.1094,
      "velocity": 102,
      "chip": "ym2612"
    },
    {
      "channel": 3,
      "note": 81,
      "start": 18.6929,
      "duration": 0.1094,
      "velocity": 102,
      "chip": "ym2612"
    },
    {
      "channel": 0,
      "note": 43,
      "start": 18.8009,
      "duration": 0.2762,
      "velocity": 98,
      "chip": "ym2612"
    },
    {
      "channel": 1,
      "note": 91,
      "start": 18.8014,
      "duration": 0.1544,
      "velocity": 102,
      "chip": "ym2612"
    },
    {
      "channel": 2,
      "note": 86,
      "start": 18.802,
      "duration": 0.1541,
      "velocity": 102,
      "chip": "ym2612"
    },
    {
      "channel": 3,
      "note": 82,
      "start": 18.8026,
      "duration": 0.1538,
      "velocity": 102,
      "chip": "ym2612"
    },
    {
      "channel": 4,
      "note": 55,
      "start": 18.8047,
      "duration": 0.2762,
      "velocity": 82,
      "chip": "ym2612"
    },
    {
      "channel": 1,
      "note": 91,
      "start": 18.9559,
      "duration": 0.0103,
      "velocity": 102,
      "chip": "ym2612"
    },
    {
      "channel": 2,
      "note": 85,
      "start": 18.9561,
      "duration": 0.0103,
      "velocity": 102,
      "chip": "ym2612"
    },
    {
      "channel": 3,
      "note": 81,
      "start": 18.9564,
      "duration": 0.0103,
      "velocity": 102,
      "chip": "ym2612"
    },
    {
      "channel": 1,
      "note": 90,
      "start": 18.9661,
      "duration": 0.0119,
      "velocity": 102,
      "chip": "ym2612"
    },
    {
      "channel": 2,
      "note": 85,
      "start": 18.9664,
      "duration": 0.012,
      "velocity": 102,
      "chip": "ym2612"
    },
    {
      "channel": 3,
      "note": 80,
      "start": 18.9667,
      "duration": 0.0119,
      "velocity": 102,
      "chip": "ym2612"
    },
    {
      "channel": 1,
      "note": 90,
      "start": 18.9781,
      "duration": 0.0246,
      "velocity": 102,
      "chip": "ym2612"
    },
    {
      "channel": 2,
      "note": 84,
      "start": 18.9784,
      "duration": 0.0246,
      "velocity": 102,
      "chip": "ym2612"
    },
    {
      "channel": 3,
      "note": 80,
      "start": 18.9786,
      "duration": 0.0246,
      "velocity": 102,
      "chip": "ym2612"
    },
    {
      "channel": 1,
      "note": 89,
      "start": 19.0027,
      "duration": 0.0247,
      "velocity": 102,
      "chip": "ym2612"
    },
    {
      "channel": 2,
      "note": 83,
      "start": 19.0029,
      "duration": 0.0247,
      "velocity": 102,
      "chip": "ym2612"
    },
    {
      "channel": 3,
      "note": 79,
      "start": 19.0033,
      "duration": 0.0247,
      "velocity": 102,
      "chip": "ym2612"
    },
    {
      "channel": 1,
      "note": 88,
      "start": 19.0274,
      "duration": 0.0124,
      "velocity": 102,
      "chip": "ym2612"
    },
    {
      "channel": 2,
      "note": 82,
      "start": 19.0277,
      "duration": 0.0124,
      "velocity": 102,
      "chip": "ym2612"
    },
    {
      "channel": 3,
      "note": 79,
      "start": 19.028,
      "duration": 0.0124,
      "velocity": 102,
      "chip": "ym2612"
    },
    {
      "channel": 1,
      "note": 88,
      "start": 19.0398,
      "duration": 0.0121,
      "velocity": 102,
      "chip": "ym2612"
    },
    {
      "channel": 2,
      "note": 82,
      "start": 19.04,
      "duration": 0.0122,
      "velocity": 102,
      "chip": "ym2612"
    },
    {
      "channel": 3,
      "note": 78,
      "start": 19.0404,
      "duration": 0.0121,
      "velocity": 102,
      "chip": "ym2612"
    },
    {
      "channel": 1,
      "note": 87,
      "start": 19.0519,
      "duration": 0.0258,
      "velocity": 102,
      "chip": "ym2612"
    },
    {
      "channel": 2,
      "note": 81,
      "start": 19.0522,
      "duration": 0.0261,
      "velocity": 102,
      "chip": "ym2612"
    },
    {
      "channel": 3,
      "note": 78,
      "start": 19.0525,
      "duration": 0.0263,
      "velocity": 102,
      "chip": "ym2612"
    },
    {
      "channel": 0,
      "note": 31,
      "start": 19.0773,
      "duration": 0.1094,
      "velocity": 98,
      "chip": "ym2612"
    },
    {
      "channel": 1,
      "note": 94,
      "start": 19.0779,
      "duration": 0.111,
      "velocity": 1,
      "chip": "ym2612"
    },
    {
      "channel": 2,
      "note": 89,
      "start": 19.0784,
      "duration": 0.1126,
      "velocity": 1,
      "chip": "ym2612"
    },
    {
      "channel": 3,
      "note": 85,
      "start": 19.079,
      "duration": 0.1141,
      "velocity": 1,
      "chip": "ym2612"
    },
    {
      "channel": 4,
      "note": 43,
      "start": 19.0812,
      "duration": 0.1126,
      "velocity": 82,
      "chip": "ym2612"
    },
    {
      "channel": 0,
      "note": 43,
      "start": 19.1869,
      "duration": 0.1227,
      "velocity": 98,
      "chip": "ym2612"
    },
    {
      "channel": 1,
      "note": 93,
      "start": 19.189,
      "duration": 0.1228,
      "velocity": 102,
      "chip": "ym2612"
    },
    {
      "channel": 2,
      "note": 93,
      "start": 19.1912,
      "duration": 0.1228,
      "velocity": 102,
      "chip": "ym2612"
    },
    {
      "channel": 3,
      "note": 93,
      "start": 19.1933,
      "duration": 0.1227,
      "velocity": 102,
      "chip": "ym2612"
    },
    {
      "channel": 4,
      "note": 55,
      "start": 19.1939,
      "duration": 0.1227,
      "velocity": 82,
      "chip": "ym2612"
    },
    {
      "channel": 0,
      "note": 43,
      "start": 19.3098,
      "duration": 0.1107,
      "velocity": 98,
      "chip": "ym2612"
    },
    {
      "channel": 1,
      "note": 97,
      "start": 19.3119,
      "duration": 0.6182,
      "velocity": 1,
      "chip": "ym2612"
    },
    {
      "channel": 2,
      "note": 92,
      "start": 19.3141,
      "duration": 0.6183,
      "velocity": 102,
      "chip": "ym2612"
    },
    {
      "channel": 3,
      "note": 88,
      "start": 19.3162,
      "duration": 0.6183,
      "velocity": 102,
      "chip": "ym2612"
    },
    {
      "channel": 4,
      "note": 55,
      "start": 19.3168,
      "duration": 0.1044,
      "velocity": 82,
      "chip": "ym2612"
    },
    {
      "channel": 0,
      "note": 46,
      "start": 19.4207,
      "duration": 0.1217,
      "velocity": 98,
      "chip": "ym2612"
    },
    {
      "channel": 4,
      "note": 58,
      "start": 19.4215,
      "duration": 0.1265,
      "velocity": 82,
      "chip": "ym2612"
    },
    {
      "channel": 0,
      "note": 48,
      "start": 19.5426,
      "duration": 0.1222,
      "velocity": 98,
      "chip": "ym2612"
    },
    {
      "channel": 4,
      "note": 60,
      "start": 19.5481,
      "duration": 0.1174,
      "velocity": 82,
      "chip": "ym2612"
    },
    {
      "channel": 0,
      "note": 49,
      "start": 19.6649,
      "duration": 0.1087,
      "velocity": 98,
      "chip": "ym2612"
    },
    {
      "channel": 4,
      "note": 61,
      "start": 19.6656,
      "duration": 0.1087,
      "velocity": 82,
      "chip": "ym2612"
    },
    {
      "channel": 0,
      "note": 50,
      "start": 19.7737,
      "duration": 0.1543,
      "velocity": 98,
      "chip": "ym2612"
    },
    {
      "channel": 4,
      "note": 62,
      "start": 19.7745,
      "duration": 0.1606,
      "velocity": 82,
      "chip": "ym2612"
    },
    {
      "channel": 0,
      "note": 39,
      "start": 19.9282,
      "duration": 0.111,
      "velocity": 98,
      "chip": "ym2612"
    },
    {
      "channel": 1,
      "note": 55,
      "start": 19.9303,
      "duration": 0.0618,
      "velocity": 117,
      "chip": "ym2612"
    },
    {
      "channel": 2,
      "note": 87,
      "start": 19.9325,
      "duration": 0.0601,
      "velocity": 102,
      "chip": "ym2612"
    },
    {
      "channel": 3,
      "note": 82,
      "start": 19.9347,
      "duration": 0.0585,
      "velocity": 102,
      "chip": "ym2612"
    },
    {
      "channel": 4,
      "note": 51,
      "start": 19.9353,
      "duration": 0.1047,
      "velocity": 82,
      "chip": "ym2612"
    },
    {
      "channel": 1,
      "note": 53,
      "start": 19.9922,
      "duration": 7.6918,
      "velocity": 99,
      "chip": "ym2612"
    },
    {
      "channel": 2,
      "note": 89,
      "start": 19.9928,
      "duration": 1.5001,
      "velocity": 102,
      "chip": "ym2612"
    },
    {
      "channel": 3,
      "note": 84,
      "start": 19.9934,
      "duration": 1.5017,
      "velocity": 102,
      "chip": "ym2612"
    },
    {
      "channel": 0,
      "note": 39,
      "start": 20.0394,
      "duration": 0.2439,
      "velocity": 98,
      "chip": "ym2612"
    },
    {
      "channel": 4,
      "note": 51,
      "start": 20.0401,
      "duration": 0.2438,
      "velocity": 82,
      "chip": "ym2612"
    },
    {
      "channel": 0,
      "note": 41,
      "start": 20.2834,
      "duration": 0.1105,
      "velocity": 1,
      "chip": "ym2612"
    },
    {
      "channel": 4,
      "note": 53,
      "start": 20.2841,
      "duration": 0.1121,
      "velocity": 1,
      "chip": "ym2612"
    },
    {
      "channel": 0,
      "note": 43,
      "start": 20.3941,
      "duration": 0.1268,
      "velocity": 100,
      "chip": "ym2612"
    },
    {
      "channel": 4,
      "note": 43,
      "start": 20.3964,
      "duration": 1.1007,
      "velocity": 82,
      "chip": "ym2612"
    },
    {
      "channel": 0,
      "note": 53,
      "start": 20.5211,
      "duration": 0.9695,
      "velocity": 98,
      "chip": "ym2612"
    },
    {
      "channel": 0,
      "note": 36,
      "start": 21.4908,
      "duration": 0.1088,
      "velocity": 98,
      "chip": "ym2612"
    },
    {
      "channel": 2,
      "note": 89,
      "start": 21.4931,
      "duration": 0.1072,
      "velocity": 102,
      "chip": "ym2612"
    },
    {
      "channel": 3,
      "note": 84,
      "start": 21.4952,
      "duration": 0.1055,
      "velocity": 102,
      "chip": "ym2612"
    },
    {
      "channel": 4,
      "note": 48,
      "start": 21.4974,
      "duration": 0.1039,
      "velocity": 82,
      "chip": "ym2612"
    },
    {
      "channel": 0,
      "note": 39,
      "start": 21.5998,
      "duration": 0.1211,
      "velocity": 98,
      "chip": "ym2612"
    },
    {
      "channel": 2,
      "note": 92,
      "start": 21.6004,
      "duration": 0.1211,
      "velocity": 102,
      "chip": "ym2612"
    },
    {
      "channel": 3,
      "note": 87,
      "start": 21.601,
      "duration": 0.1211,
      "velocity": 102,
      "chip": "ym2612"
    },
    {
      "channel": 4,
      "note": 51,
      "start": 21.6015,
      "duration": 0.1211,
      "velocity": 82,
      "chip": "ym2612"
    },
    {
      "channel": 0,
      "note": 36,
      "start": 21.721,
      "duration": 0.1406,
      "velocity": 98,
      "chip": "ym2612"
    },
    {
      "channel": 2,
      "note": 95,
      "start": 21.7217,
      "duration": 0.1406,
      "velocity": 102,
      "chip": "ym2612"
    },
    {
      "channel": 3,
      "note": 90,
      "start": 21.7222,
      "duration": 0.1406,
      "velocity": 102,
      "chip": "ym2612"
    },
    {
      "channel": 4,
      "note": 48,
      "start": 21.7228,
      "duration": 0.1406,
      "velocity": 82,
      "chip": "ym2612"
    },
    {
      "channel": 0,
      "note": 39,
      "start": 21.8618,
      "duration": 0.1211,
      "velocity": 98,
      "chip": "ym2612"
    },
    {
      "channel": 2,
      "note": 94,
      "start": 21.8624,
      "duration": 1.9426,
      "velocity": 102,
      "chip": "ym2612"
    },
    {
      "channel": 3,
      "note": 89,
      "start": 21.863,
      "duration": 1.9442,
      "velocity": 102,
      "chip": "ym2612"
    },
    {
      "channel": 4,
      "note": 51,
      "start": 21.8636,
      "duration": 0.12,
      "velocity": 82,
      "chip": "ym2612"
    },
    {
      "channel": 0,
      "note": 39,
      "start": 21.983,
      "duration": 0.2319,
      "velocity": 98,
      "chip": "ym2612"
    },
    {
      "channel": 4,
      "note": 51,
      "start": 21.9838,
      "duration": 0.2318,
      "velocity": 82,
      "chip": "ym2612"
    },
    {
      "channel": 0,
      "note": 41,
      "start": 22.2151,
      "duration": 0.1226,
      "velocity": 1,
      "chip": "ym2612"
    },
    {
      "channel": 4,
      "note": 53,
      "start": 22.2158,
      "duration": 0.1242,
      "velocity": 1,
      "chip": "ym2612"
    },
    {
      "channel": 0,
      "note": 43,
      "start": 22.3378,
      "duration": 0.1145,
      "velocity": 100,
      "chip": "ym2612"
    },
    {
      "channel": 4,
      "note": 43,
      "start": 22.3401,
      "duration": 1.4692,
      "velocity": 82,
      "chip": "ym2612"
    },
    {
      "channel": 0,
      "note": 56,
      "start": 22.4525,
      "duration": 1.3503,
      "velocity": 98,
      "chip": "ym2612"
    },
    {
      "channel": 0,
      "note": 39,
      "start": 23.803,
      "duration": 0.1222,
      "velocity": 98,
      "chip": "ym2612"
    },
    {
      "channel": 2,
      "note": 87,
      "start": 23.8052,
      "duration": 0.059,
      "velocity": 102,
      "chip": "ym2612"
    },
    {
      "channel": 3,
      "note": 82,
      "start": 23.8074,
      "duration": 0.0574,
      "velocity": 102,
      "chip": "ym2612"
    },
    {
      "channel": 4,
      "note": 51,
      "start": 23.8096,
      "duration": 0.1163,
      "velocity": 82,
      "chip": "ym2612"
    },
    {
      "channel": 2,
      "note": 89,
      "start": 23.8644,
      "duration": 1.4996,
      "velocity": 102,
      "chip": "ym2612"
    },
    {
      "channel": 3,
      "note": 84,
      "start": 23.865,
      "duration": 1.5012,
      "velocity": 102,
      "chip": "ym2612"
    },
    {
      "channel": 0,
      "note": 39,
      "start": 23.9254,
      "duration": 0.2318,
      "velocity": 98,
      "chip": "ym2612"
    },
    {
      "channel": 4,
      "note": 51,
      "start": 23.9261,
      "duration": 0.2318,
      "velocity": 82,
      "chip": "ym2612"
    },
    {
      "channel": 0,
      "note": 41,
      "start": 24.1574,
      "duration": 0.1105,
      "velocity": 1,
      "chip": "ym2612"
    },
    {
      "channel": 4,
      "note": 53,
      "start": 24.1581,
      "duration": 0.1121,
      "velocity": 1,
      "chip": "ym2612"
    },
    {
      "channel": 0,
      "note": 43,
      "start": 24.268,
      "duration": 0.1267,
      "velocity": 100,
      "chip": "ym2612"
    },
    {
      "channel": 4,
      "note": 43,
      "start": 24.2703,
      "duration": 1.098,
      "velocity": 82,
      "chip": "ym2612"
    },
    {
      "channel": 0,
      "note": 53,
      "start": 24.3949,
      "duration": 0.9669,
      "velocity": 98,
      "chip": "ym2612"
    },
    {
      "channel": 0,
      "note": 36,
      "start": 25.3619,
      "duration": 0.109,
      "velocity": 98,
      "chip": "ym2612"
    },
    {
      "channel": 2,
      "note": 89,
      "start": 25.3641,
      "duration": 0.1074,
      "velocity": 102,
      "chip": "ym2612"
    },
    {
      "channel": 3,
      "note": 84,
      "start": 25.3664,
      "duration": 0.1057,
      "velocity": 102,
      "chip": "ym2612"
    },
    {
      "channel": 4,
      "note": 48,
      "start": 25.3685,
      "duration": 0.1042,
      "velocity": 82,
      "chip": "ym2612"
    },
    {
      "channel": 0,
      "note": 39,
      "start": 25.4711,
      "duration": 0.1212,
      "velocity": 98,
      "chip": "ym2612"
    },
    {
      "channel": 2,
      "note": 92,
      "start": 25.4717,
      "duration": 0.1211,
      "velocity": 102,
      "chip": "ym2612"
    },
    {
      "channel": 3,
      "note": 87,
      "start": 25.4723,
      "duration": 0.1211,
      "velocity": 102,
      "chip": "ym2612"
    },
    {
      "channel": 4,
      "note": 51,
      "start": 25.4729,
      "duration": 0.1211,
      "velocity": 82,
      "chip": "ym2612"
    },
    {
      "channel": 0,
      "note": 36,
      "start": 25.5924,
      "duration": 0.1573,
      "velocity": 98,
      "chip": "ym2612"
    },
    {
      "channel": 2,
      "note": 95,
      "start": 25.593,
      "duration": 0.1572,
      "velocity": 102,
      "chip": "ym2612"
    },
    {
      "channel": 3,
      "note": 90,
      "start": 25.5936,
      "duration": 0.1572,
      "velocity": 102,
      "chip": "ym2612"
    },
    {
      "channel": 4,
      "note": 48,
      "start": 25.5942,
      "duration": 0.1572,
      "velocity": 82,
      "chip": "ym2612"
    },
    {
      "channel": 0,
      "note": 39,
      "start": 25.7498,
      "duration": 0.1087,
      "velocity": 98,
      "chip": "ym2612"
    },
    {
      "channel": 2,
      "note": 94,
      "start": 25.7504,
      "duration": 1.9359,
      "velocity": 102,
      "chip": "ym2612"
    },
    {
      "channel": 3,
      "note": 89,
      "start": 25.751,
      "duration": 1.9375,
      "velocity": 102,
      "chip": "ym2612"
    },
    {
      "channel": 4,
      "note": 51,
      "start": 25.7516,
      "duration": 0.1077,
      "velocity": 82,
      "chip": "ym2612"
    },
    {
      "channel": 0,
      "note": 39,
      "start": 25.8587,
      "duration": 0.2313,
      "velocity": 98,
      "chip": "ym2612"
    },
    {
      "channel": 4,
      "note": 51,
      "start": 25.8595,
      "duration": 0.2313,
      "velocity": 82,
      "chip": "ym2612"
    },
    {
      "channel": 0,
      "note": 41,
      "start": 26.0902,
      "duration": 0.1228,
      "velocity": 1,
      "chip": "ym2612"
    },
    {
      "channel": 4,
      "note": 53,
      "start": 26.091,
      "duration": 0.1244,
      "velocity": 1,
      "chip": "ym2612"
    },
    {
      "channel": 0,
      "note": 43,
      "start": 26.2132,
      "duration": 0.1306,
      "velocity": 100,
      "chip": "ym2612"
    },
    {
      "channel": 4,
      "note": 43,
      "start": 26.2155,
      "duration": 1.4751,
      "velocity": 82,
      "chip": "ym2612"
    },
    {
      "channel": 0,
      "note": 56,
      "start": 26.344,
      "duration": 1.338,
      "velocity": 98,
      "chip": "ym2612"
    },
    {
      "channel": 0,
      "note": 39,
      "start": 27.6822,
      "duration": 0.1222,
      "velocity": 98,
      "chip": "ym2612"
    },
    {
      "channel": 1,
      "note": 53,
      "start": 27.6843,
      "duration": 0.0595,
      "velocity": 99,
      "chip": "ym2612"
    },
    {
      "channel": 2,
      "note": 87,
      "start": 27.6864,
      "duration": 0.0579,
      "velocity": 102,
      "chip": "ym2612"
    },
    {
      "channel": 3,
      "note": 82,
      "start": 27.6886,
      "duration": 0.0562,
      "velocity": 102,
      "chip": "ym2612"
    },
    {
      "channel": 4,
      "note": 51,
      "start": 27.6907,
      "duration": 0.1149,
      "velocity": 82,
      "chip": "ym2612"
    },
    {
      "channel": 1,
      "note": 56,
      "start": 27.7439,
      "duration": 0.061,
      "velocity": 99,
      "chip": "ym2612"
    },
    {
      "channel": 2,
      "note": 89,
      "start": 27.7445,
      "duration": 1.4965,
      "velocity": 102,
      "chip": "ym2612"
    },
    {
      "channel": 3,
      "note": 84,
      "start": 27.745,
      "duration": 1.4981,
      "velocity": 102,
      "chip": "ym2612"
    },
    {
      "channel": 0,
      "note": 39,
      "start": 27.8046,
      "duration": 0.2307,
      "velocity": 98,
      "chip": "ym2612"
    },
    {
      "channel": 1,
      "note": 58,
      "start": 27.8051,
      "duration": 0.0597,
      "velocity": 99,
      "chip": "ym2612"
    },
    {
      "channel": 4,
      "note": 51,
      "start": 27.8058,
      "duration": 0.2307,
      "velocity": 82,
      "chip": "ym2612"
    },
    {
      "channel": 1,
      "note": 53,
      "start": 27.865,
      "duration": 0.0483,
      "velocity": 99,
      "chip": "ym2612"
    },
    {
      "channel": 1,
      "note": 56,
      "start": 27.9135,
      "duration": 0.0613,
      "velocity": 99,
      "chip": "ym2612"
    },
    {
      "channel": 1,
      "note": 58,
      "start": 27.975,
      "duration": 0.0608,
      "velocity": 99,
      "chip": "ym2612"
    },
    {
      "channel": 0,
      "note": 41,
      "start": 28.0354,
      "duration": 0.1228,
      "velocity": 1,
      "chip": "ym2612"
    },
    {
      "channel": 1,
      "note": 53,
      "start": 28.0359,
      "duration": 0.0605,
      "velocity": 99,
      "chip": "ym2612"
    },
    {
      "channel": 4,
      "note": 53,
      "start": 28.0366,
      "duration": 0.1244,
      "velocity": 1,
      "chip": "ym2612"
    },
    {
      "channel": 1,
      "note": 56,
      "start": 28.0967,
      "duration": 0.062,
      "velocity": 99,
      "chip": "ym2612"
    },
    {
      "channel": 0,
      "note": 43,
      "start": 28.1583,
      "duration": 0.1138,
      "velocity": 100,
      "chip": "ym2612"
    },
    {
      "channel": 1,
      "note": 58,
      "start": 28.1589,
      "duration": 0.1138,
      "velocity": 99,
      "chip": "ym2612"
    },
    {
      "channel": 4,
      "note": 43,
      "start": 28.1612,
      "duration": 1.084,
      "velocity": 82,
      "chip": "ym2612"
    },
    {
      "channel": 0,
      "note": 53,
      "start": 28.2723,
      "duration": 0.9664,
      "velocity": 98,
      "chip": "ym2612"
    },
    {
      "channel": 1,
      "note": 60,
      "start": 28.2729,
      "duration": 0.1198,
      "velocity": 99,
      "chip": "ym2612"
    },
    {
      "channel": 1,
      "note": 63,
      "start": 28.3928,
      "duration": 0.1088,
      "velocity": 99,
      "chip": "ym2612"
    },
    {
      "channel": 1,
      "note": 66,
      "start": 28.5018,
      "duration": 0.1544,
      "velocity": 99,
      "chip": "ym2612"
    },
    {
      "channel": 1,
      "note": 63,
      "start": 28.6563,
      "duration": 0.0009,
      "velocity": 99,
      "chip": "ym2612"
    },
    {
      "channel": 1,
      "note": 63,
      "start": 28.6572,
      "duration": 0.011,
      "velocity": 99,
      "chip": "ym2612"
    },
    {
      "channel": 1,
      "note": 64,
      "start": 28.6682,
      "duration": 0.0121,
      "velocity": 99,
      "chip": "ym2612"
    },
    {
      "channel": 1,
      "note": 64,
      "start": 28.6803,
      "duration": 0.0241,
      "velocity": 99,
      "chip": "ym2612"
    },
    {
      "channel": 1,
      "note": 65,
      "start": 28.7043,
      "duration": 0.0124,
      "velocity": 99,
      "chip": "ym2612"
    },
    {
      "channel": 1,
      "note": 65,
      "start": 28.717,
      "duration": 2.8402,
      "velocity": 99,
      "chip": "ym2612"
    },
    {
      "channel": 0,
      "note": 36,
      "start": 29.2389,
      "duration": 0.1211,
      "velocity": 98,
      "chip": "ym2612"
    },
    {
      "channel": 2,
      "note": 89,
      "start": 29.2411,
      "duration": 0.1195,
      "velocity": 102,
      "chip": "ym2612"
    },
    {
      "channel": 3,
      "note": 84,
      "start": 29.2433,
      "duration": 0.1178,
      "velocity": 102,
      "chip": "ym2612"
    },
    {
      "channel": 4,
      "note": 48,
      "start": 29.2454,
      "duration": 0.1163,
      "velocity": 82,
      "chip": "ym2612"
    },
    {
      "channel": 0,
      "note": 39,
      "start": 29.3602,
      "duration": 0.1083,
      "velocity": 98,
      "chip": "ym2612"
    },
    {
      "channel": 2,
      "note": 92,
      "start": 29.3607,
      "duration": 0.1084,
      "velocity": 102,
      "chip": "ym2612"
    },
    {
      "channel": 3,
      "note": 87,
      "start": 29.3613,
      "duration": 0.1084,
      "velocity": 102,
      "chip": "ym2612"
    },
    {
      "channel": 4,
      "note": 51,
      "start": 29.3619,
      "duration": 0.1083,
      "velocity": 82,
      "chip": "ym2612"
    },
    {
      "channel": 0,
      "note": 36,
      "start": 29.4687,
      "duration": 0.1533,
      "velocity": 98,
      "chip": "ym2612"
    },
    {
      "channel": 2,
      "note": 95,
      "start": 29.4693,
      "duration": 0.1533,
      "velocity": 102,
      "chip": "ym2612"
    },
    {
      "channel": 3,
      "note": 90,
      "start": 29.4698,
      "duration": 0.1533,
      "velocity": 102,
      "chip": "ym2612"
    },
    {
      "channel": 4,
      "note": 48,
      "start": 29.4704,
      "duration": 0.1533,
      "velocity": 82,
      "chip": "ym2612"
    },
    {
      "channel": 0,
      "note": 39,
      "start": 29.6221,
      "duration": 0.1091,
      "velocity": 98,
      "chip": "ym2612"
    },
    {
      "channel": 2,
      "note": 94,
      "start": 29.6228,
      "duration": 1.9365,
      "velocity": 102,
      "chip": "ym2612"
    },
    {
      "channel": 3,
      "note": 89,
      "start": 29.6233,
      "duration": 1.9381,
      "velocity": 102,
      "chip": "ym2612"
    },
    {
      "channel": 4,
      "note": 51,
      "start": 29.6239,
      "duration": 0.108,
      "velocity": 82,
      "chip": "ym2612"
    },
    {
      "channel": 0,
      "note": 39,
      "start": 29.7314,
      "duration": 0.2438,
      "velocity": 98,
      "chip": "ym2612"
    },
    {
      "channel": 4,
      "note": 51,
      "start": 29.7321,
      "duration": 0.2438,
      "velocity": 82,
      "chip": "ym2612"
    },
    {
      "channel": 0,
      "note": 41,
      "start": 29.9754,
      "duration": 0.1105,
      "velocity": 1,
      "chip": "ym2612"
    },
    {
      "channel": 4,
      "note": 53,
      "start": 29.9761,
      "duration": 0.1121,
      "velocity": 1,
      "chip": "ym2612"
    },
    {
      "channel": 0,
      "note": 43,
      "start": 30.0861,
      "duration": 0.1266,
      "velocity": 100,
      "chip": "ym2612"
    },
    {
      "channel": 4,
      "note": 43,
      "start": 30.0884,
      "duration": 1.4752,
      "velocity": 82,
      "chip": "ym2612"
    },
    {
      "channel": 0,
      "note": 56,
      "start": 30.2129,
      "duration": 1.3421,
      "velocity": 98,
      "chip": "ym2612"
    },
    {
      "channel": 0,
      "note": 39,
      "start": 31.5551,
      "duration": 0.1234,
      "velocity": 98,
      "chip": "ym2612"
    },
    {
      "channel": 1,
      "note": 82,
      "start": 31.5573,
      "duration": 0.0072,
      "velocity": 99,
      "chip": "ym2612"
    },
    {
      "channel": 2,
      "note": 87,
      "start": 31.5595,
      "duration": 0.0588,
      "velocity": 102,
      "chip": "ym2612"
    },
    {
      "channel": 3,
      "note": 82,
      "start": 31.5617,
      "duration": 0.0573,
      "velocity": 102,
      "chip": "ym2612"
    },
    {
      "channel": 4,
      "note": 51,
      "start": 31.5638,
      "duration": 0.1155,
      "velocity": 82,
      "chip": "ym2612"
    },
    {
      "channel": 1,
      "note": 82,
      "start": 31.5645,
      "duration": 0.0161,
      "velocity": 99,
      "chip": "ym2612"
    },
    {
      "channel": 1,
      "note": 83,
      "start": 31.5807,
      "duration": 0.0123,
      "velocity": 99,
      "chip": "ym2612"
    },
    {
      "channel": 1,
      "note": 83,
      "start": 31.5929,
      "duration": 0.0122,
      "velocity": 99,
      "chip": "ym2612"
    },
    {
      "channel": 1,
      "note": 84,
      "start": 31.6052,
      "duration": 0.0126,
      "velocity": 99,
      "chip": "ym2612"
    },
    {
      "channel": 1,
      "note": 84,
      "start": 31.618,
      "duration": 0.1814,
      "velocity": 99,
      "chip": "ym2612"
    },
    {
      "channel": 2,
      "note": 89,
      "start": 31.6185,
      "duration": 1.4973,
      "velocity": 102,
      "chip": "ym2612"
    },
    {
      "channel": 3,
      "note": 84,
      "start": 31.6191,
      "duration": 1.4989,
      "velocity": 102,
      "chip": "ym2612"
    },
    {
      "channel": 0,
      "note": 39,
      "start": 31.6787,
      "duration": 0.2303,
      "velocity": 98,
      "chip": "ym2612"
    },
    {
      "channel": 4,
      "note": 51,
      "start": 31.6795,
      "duration": 0.2308,
      "velocity": 82,
      "chip": "ym2612"
    },
    {
      "channel": 1,
      "note": 87,
      "start": 31.7996,
      "duration": 0.11,
      "velocity": 99,
      "chip": "ym2612"
    },
    {
      "channel": 0,
      "note": 41,
      "start": 31.9092,
      "duration": 0.1239,
      "velocity": 1,
      "chip": "ym2612"
    },
    {
      "channel": 1,
      "note": 82,
      "start": 31.9097,
      "duration": 0.0014,
      "velocity": 99,
      "chip": "ym2612"
    },
    {
      "channel": 4,
      "note": 53,
      "start": 31.9104,
      "duration": 0.1249,
      "velocity": 1,
      "chip": "ym2612"
    },
    {
      "channel": 1,
      "note": 82,
      "start": 31.9111,
      "duration": 0.0105,
      "velocity": 99,
      "chip": "ym2612"
    },
    {
      "channel": 1,
      "note": 83,
      "start": 31.9217,
      "duration": 0.0244,
      "velocity": 99,
      "chip": "ym2612"
    },
    {
      "channel": 1,
      "note": 83,
      "start": 31.9461,
      "duration": 0.0122,
      "velocity": 99,
      "chip": "ym2612"
    },
    {
      "channel": 1,
      "note": 84,
      "start": 31.9583,
      "duration": 0.0124,
      "velocity": 99,
      "chip": "ym2612"
    },
    {
      "channel": 1,
      "note": 84,
      "start": 31.9709,
      "duration": 0.1763,
      "velocity": 99,
      "chip": "ym2612"
    },
    {
      "channel": 0,
      "note": 43,
      "start": 32.0332,
      "duration": 0.1134,
      "velocity": 100,
      "chip": "ym2612"
    },
    {
      "channel": 4,
      "note": 43,
      "start": 32.0355,
      "duration": 1.0846,
      "velocity": 82,
      "chip": "ym2612"
    },
    {
      "channel": 0,
      "note": 53,
      "start": 32.1467,
      "duration": 0.9669,
      "velocity": 98,
      "chip": "ym2612"
    },
    {
      "channel": 1,
      "note": 87,
      "start": 32.1473,
      "duration": 0.1196,
      "velocity": 99,
      "chip": "ym2612"
    },
    {
      "channel": 1,
      "note": 82,
      "start": 32.267,
      "duration": 0.0009,
      "velocity": 99,
      "chip": "ym2612"
    },
    {
      "channel": 1,
      "note": 82,
      "start": 32.2679,
      "duration": 0.011,
      "velocity": 99,
      "chip": "ym2612"
    },
    {
      "channel": 1,
      "note": 83,
      "start": 32.2789,
      "duration": 0.0121,
      "velocity": 99,
      "chip": "ym2612"
    },
    {
      "channel": 1,
      "note": 83,
      "start": 32.291,
      "duration": 0.0241,
      "velocity": 99,
      "chip": "ym2612"
    },
    {
      "channel": 1,
      "note": 84,
      "start": 32.3151,
      "duration": 0.0124,
      "velocity": 99,
      "chip": "ym2612"
    },
    {
      "channel": 1,
      "note": 84,
      "start": 32.3277,
      "duration": 0.2006,
      "velocity": 99,
      "chip": "ym2612"
    },
    {
      "channel": 1,
      "note": 87,
      "start": 32.5284,
      "duration": 0.121,
      "velocity": 99,
      "chip": "ym2612"
    },
    {
      "channel": 1,
      "note": 82,
      "start": 32.6496,
      "duration": 0.0009,
      "velocity": 99,
      "chip": "ym2612"
    },
    {
      "channel": 1,
      "note": 82,
      "start": 32.6505,
      "duration": 0.0112,
      "velocity": 99,
      "chip": "ym2612"
    },
    {
      "channel": 1,
      "note": 83,
      "start": 32.6617,
      "duration": 0.0123,
      "velocity": 99,
      "chip": "ym2612"
    },
    {
      "channel": 1,
      "note": 83,
      "start": 32.674,
      "duration": 0.0123,
      "velocity": 99,
      "chip": "ym2612"
    },
    {
      "channel": 1,
      "note": 84,
      "start": 32.6862,
      "duration": 0.0248,
      "velocity": 99,
      "chip": "ym2612"
    },
    {
      "channel": 1,
      "note": 84,
      "start": 32.7112,
      "duration": 0.1699,
      "velocity": 99,
      "chip": "ym2612"
    },
    {
      "channel": 1,
      "note": 87,
      "start": 32.8812,
      "duration": 0.1211,
      "velocity": 99,
      "chip": "ym2612"
    },
    {
      "channel": 1,
      "note": 82,
      "start": 33.0025,
      "duration": 0.0009,
      "velocity": 99,
      "chip": "ym2612"
    },
    {
      "channel": 1,
      "note": 82,
      "start": 33.0034,
      "duration": 0.0112,
      "velocity": 99,
      "chip": "ym2612"
    },
    {
      "channel": 1,
      "note": 83,
      "start": 33.0146,
      "duration": 0.0123,
      "velocity": 99,
      "chip": "ym2612"
    },
    {
      "channel": 1,
      "note": 83,
      "start": 33.0269,
      "duration": 0.0123,
      "velocity": 99,
      "chip": "ym2612"
    },
    {
      "channel": 1,
      "note": 84,
      "start": 33.0392,
      "duration": 0.0123,
      "velocity": 99,
      "chip": "ym2612"
    },
    {
      "channel": 1,
      "note": 84,
      "start": 33.0517,
      "duration": 0.1842,
      "velocity": 99,
      "chip": "ym2612"
    },
    {
      "channel": 0,
      "note": 36,
      "start": 33.1137,
      "duration": 0.1215,
      "velocity": 98,
      "chip": "ym2612"
    },
    {
      "channel": 2,
      "note": 89,
      "start": 33.116,
      "duration": 0.1205,
      "velocity": 102,
      "chip": "ym2612"
    },
    {
      "channel": 3,
      "note": 84,
      "start": 33.1182,
      "duration": 0.1188,
      "velocity": 102,
      "chip": "ym2612"
    },
    {
      "channel": 4,
      "note": 48,
      "start": 33.1203,
      "duration": 0.1172,
      "velocity": 82,
      "chip": "ym2612"
    },
    {
      "channel": 0,
      "note": 39,
      "start": 33.2355,
      "duration": 0.1087,
      "velocity": 98,
      "chip": "ym2612"
    },
    {
      "channel": 1,
      "note": 87,
      "start": 33.2361,
      "duration": 0.2613,
      "velocity": 99,
      "chip": "ym2612"
    },
    {
      "channel": 2,
      "note": 92,
      "start": 33.2366,
      "duration": 0.1082,
      "velocity": 102,
      "chip": "ym2612"
    },
    {
      "channel": 3,
      "note": 87,
      "start": 33.2371,
      "duration": 0.1082,
      "velocity": 102,
      "chip": "ym2612"
    },
    {
      "channel": 4,
      "note": 51,
      "start": 33.2377,
      "duration": 0.1081,
      "velocity": 82,
      "chip": "ym2612"
    },
    {
      "channel": 0,
      "note": 36,
      "start": 33.3443,
      "duration": 0.1524,
      "velocity": 98,
      "chip": "ym2612"
    },
    {
      "channel": 2,
      "note": 95,
      "start": 33.345,
      "duration": 0.1529,
      "velocity": 102,
      "chip": "ym2612"
    },
    {
      "channel": 3,
      "note": 90,
      "start": 33.3455,
      "duration": 0.1529,
      "velocity": 102,
      "chip": "ym2612"
    },
    {
      "channel": 4,
      "note": 48,
      "start": 33.3461,
      "duration": 0.1529,
      "velocity": 82,
      "chip": "ym2612"
    },
    {
      "channel": 0,
      "note": 39,
      "start": 33.497,
      "duration": 0.1214,
      "velocity": 98,
      "chip": "ym2612"
    },
    {
      "channel": 1,
      "note": 89,
      "start": 33.4975,
      "duration": 0.2307,
      "velocity": 99,
      "chip": "ym2612"
    },
    {
      "channel": 2,
      "note": 94,
      "start": 33.498,
      "duration": 1.9495,
      "velocity": 1,
      "chip": "ym2612"
    },
    {
      "channel": 3,
      "note": 89,
      "start": 33.4986,
      "duration": 1.9511,
      "velocity": 1,
      "chip": "ym2612"
    },
    {
      "channel": 4,
      "note": 51,
      "start": 33.4992,
      "duration": 0.1199,
      "velocity": 82,
      "chip": "ym2612"
    },
    {
      "channel": 0,
      "note": 39,
      "start": 33.6186,
      "duration": 0.2327,
      "velocity": 98,
      "chip": "ym2612"
    },
    {
      "channel": 4,
      "note": 51,
      "start": 33.6193,
      "duration": 0.2328,
      "velocity": 82,
      "chip": "ym2612"
    },
    {
      "channel": 1,
      "note": 87,
      "start": 33.7283,
      "duration": 0.0041,
      "velocity": 99,
      "chip": "ym2612"
    },
    {
      "channel": 1,
      "note": 87,
      "start": 33.7324,
      "duration": 0.0088,
      "velocity": 99,
      "chip": "ym2612"
    },
    {
      "channel": 1,
      "note": 88,
      "start": 33.7412,
      "duration": 0.0243,
      "velocity": 99,
      "chip": "ym2612"
    },
    {
      "channel": 1,
      "note": 88,
      "start": 33.7655,
      "duration": 0.0123,
      "velocity": 99,
      "chip": "ym2612"
    },
    {
      "channel": 1,
      "note": 88,
      "start": 33.7778,
      "duration": 0.0124,
      "velocity": 99,
      "chip": "ym2612"
    },
    {
      "channel": 1,
      "note": 89,
      "start": 33.7903,
      "duration": 0.1722,
      "velocity": 99,
      "chip": "ym2612"
    },
    {
      "channel": 0,
      "note": 41,
      "start": 33.8515,
      "duration": 0.1104,
      "velocity": 1,
      "chip": "ym2612"
    },
    {
      "channel": 4,
      "note": 53,
      "start": 33.8522,
      "duration": 0.1125,
      "velocity": 1,
      "chip": "ym2612"
    },
    {
      "channel": 0,
      "note": 43,
      "start": 33.9621,
      "duration": 0.1259,
      "velocity": 100,
      "chip": "ym2612"
    },
    {
      "channel": 1,
      "note": 87,
      "start": 33.9627,
      "duration": 0.0027,
      "velocity": 99,
      "chip": "ym2612"
    },
    {
      "channel": 4,
      "note": 43,
      "start": 33.9649,
      "duration": 1.4869,
      "velocity": 82,
      "chip": "ym2612"
    },
    {
      "channel": 1,
      "note": 87,
      "start": 33.9653,
      "duration": 0.0203,
      "velocity": 99,
      "chip": "ym2612"
    },
    {
      "channel": 1,
      "note": 88,
      "start": 33.9856,
      "duration": 0.012,
      "velocity": 99,
      "chip": "ym2612"
    },
    {
      "channel": 1,
      "note": 88,
      "start": 33.9976,
      "duration": 0.012,
      "velocity": 99,
      "chip": "ym2612"
    },
    {
      "channel": 1,
      "note": 88,
      "start": 34.0096,
      "duration": 0.0122,
      "velocity": 99,
      "chip": "ym2612"
    },
    {
      "channel": 1,
      "note": 89,
      "start": 34.0221,
      "duration": 1.4233,
      "velocity": 99,
      "chip": "ym2612"
    },
    {
      "channel": 0,
      "note": 56,
      "start": 34.0882,
      "duration": 1.3551,
      "velocity": 98,
      "chip": "ym2612"
    },
    {
      "channel": 0,
      "note": 43,
      "start": 35.4435,
      "duration": 0.1097,
      "velocity": 98,
      "chip": "ym2612"
    },
    {
      "channel": 1,
      "note": 53,
      "start": 35.4456,
      "duration": 0.0485,
      "velocity": 99,
      "chip": "ym2612"
    },
    {
      "channel": 2,
      "note": 57,
      "start": 35.4477,
      "duration": 0.5932,
      "velocity": 102,
      "chip": "ym2612"
    },
    {
      "channel": 3,
      "note": 57,
      "start": 35.4499,
      "duration": 0.5932,
      "velocity": 102,
      "chip": "ym2612"
    },
    {
      "channel": 4,
      "note": 55,
      "start": 35.4521,
      "duration": 0.1024,
      "velocity": 82,
      "chip": "ym2612"
    },
    {
      "channel": 1,
      "note": 65,
      "start": 35.4942,
      "duration": 0.0595,
      "velocity": 99,
      "chip": "ym2612"
    },
    {
      "channel": 0,
      "note": 43,
      "start": 35.5533,
      "duration": 0.2304,
      "velocity": 98,
      "chip": "ym2612"
    },
    {
      "channel": 1,
      "note": 53,
      "start": 35.5539,
      "duration": 0.1209,
      "velocity": 99,
      "chip": "ym2612"
    },
    {
      "channel": 4,
      "note": 55,
      "start": 35.5546,
      "duration": 0.2319,
      "velocity": 82,
      "chip": "ym2612"
    },
    {
      "channel": 1,
      "note": 65,
      "start": 35.6749,
      "duration": 0.1093,
      "velocity": 99,
      "chip": "ym2612"
    },
    {
      "channel": 0,
      "note": 43,
      "start": 35.7839,
      "duration": 0.1217,
      "velocity": 98,
      "chip": "ym2612"
    },
    {
      "channel": 1,
      "note": 55,
      "start": 35.7844,
      "duration": 0.2544,
      "velocity": 102,
      "chip": "ym2612"
    },
    {
      "channel": 4,
      "note": 55,
      "start": 35.7867,
      "duration": 0.1195,
      "velocity": 82,
      "chip": "ym2612"
    },
    {
      "channel": 0,
      "note": 46,
      "start": 35.9057,
      "duration": 0.1309,
      "velocity": 98,
      "chip": "ym2612"
    },
    {
      "channel": 4,
      "note": 58,
      "start": 35.9064,
      "duration": 0.1372,
      "velocity": 82,
      "chip": "ym2612"
    },
    {
      "channel": 0,
      "note": 48,
      "start": 36.0368,
      "duration": 0.2323,
      "velocity": 98,
      "chip": "ym2612"
    },
    {
      "channel": 1,
      "note": 91,
      "start": 36.0389,
      "duration": 0.1086,
      "velocity": 102,
      "chip": "ym2612"
    },
    {
      "channel": 2,
      "note": 86,
      "start": 36.0411,
      "duration": 0.1069,
      "velocity": 102,
      "chip": "ym2612"
    },
    {
      "channel": 3,
      "note": 82,
      "start": 36.0433,
      "duration": 0.1053,
      "velocity": 102,
      "chip": "ym2612"
    },
    {
      "channel": 4,
      "note": 60,
      "start": 36.0438,
      "duration": 0.2292,
      "velocity": 82,
      "chip": "ym2612"
    },
    {
      "channel": 1,
      "note": 89,
      "start": 36.1476,
      "duration": 0.1221,
      "velocity": 102,
      "chip": "ym2612"
    },
    {
      "channel": 2,
      "note": 84,
      "start": 36.1482,
      "duration": 0.1221,
      "velocity": 102,
      "chip": "ym2612"
    },
    {
      "channel": 3,
      "note": 81,
      "start": 36.1488,
      "duration": 0.1221,
      "velocity": 102,
      "chip": "ym2612"
    },
    {
      "channel": 0,
      "note": 43,
      "start": 36.2694,
      "duration": 0.2646,
      "velocity": 98,
      "chip": "ym2612"
    },
    {
      "channel": 1,
      "note": 91,
      "start": 36.2699,
      "duration": 0.1424,
      "velocity": 102,
      "chip": "ym2612"
    },
    {
      "channel": 2,
      "note": 86,
      "start": 36.2705,
      "duration": 0.1421,
      "velocity": 102,
      "chip": "ym2612"
    },
    {
      "channel": 3,
      "note": 82,
      "start": 36.271,
      "duration": 0.1419,
      "velocity": 102,
      "chip": "ym2612"
    },
    {
      "channel": 4,
      "note": 55,
      "start": 36.2732,
      "duration": 0.2647,
      "velocity": 82,
      "chip": "ym2612"
    },
    {
      "channel": 1,
      "note": 91,
      "start": 36.4123,
      "duration": 0.0225,
      "velocity": 102,
      "chip": "ym2612"
    },
    {
      "channel": 2,
      "note": 85,
      "start": 36.4126,
      "duration": 0.0226,
      "velocity": 102,
      "chip": "ym2612"
    },
    {
      "channel": 3,
      "note": 81,
      "start": 36.4129,
      "duration": 0.0225,
      "velocity": 102,
      "chip": "ym2612"
    },
    {
      "channel": 1,
      "note": 90,
      "start": 36.4348,
      "duration": 0.0122,
      "velocity": 102,
      "chip": "ym2612"
    },
    {
      "channel": 2,
      "note": 85,
      "start": 36.4351,
      "duration": 0.0122,
      "velocity": 102,
      "chip": "ym2612"
    },
    {
      "channel": 3,
      "note": 80,
      "start": 36.4354,
      "duration": 0.0122,
      "velocity": 102,
      "chip": "ym2612"
    },
    {
      "channel": 1,
      "note": 90,
      "start": 36.447,
      "duration": 0.0124,
      "velocity": 102,
      "chip": "ym2612"
    },
    {
      "channel": 2,
      "note": 84,
      "start": 36.4473,
      "duration": 0.0124,
      "velocity": 102,
      "chip": "ym2612"
    },
    {
      "channel": 3,
      "note": 80,
      "start": 36.4476,
      "duration": 0.0124,
      "velocity": 102,
      "chip": "ym2612"
    },
    {
      "channel": 1,
      "note": 89,
      "start": 36.4594,
      "duration": 0.0247,
      "velocity": 102,
      "chip": "ym2612"
    },
    {
      "channel": 2,
      "note": 83,
      "start": 36.4597,
      "duration": 0.0247,
      "velocity": 102,
      "chip": "ym2612"
    },
    {
      "channel": 3,
      "note": 79,
      "start": 36.46,
      "duration": 0.0247,
      "velocity": 102,
      "chip": "ym2612"
    },
    {
      "channel": 1,
      "note": 88,
      "start": 36.4842,
      "duration": 0.0244,
      "velocity": 102,
      "chip": "ym2612"
    },
    {
      "channel": 2,
      "note": 82,
      "start": 36.4844,
      "duration": 0.0244,
      "velocity": 102,
      "chip": "ym2612"
    },
    {
      "channel": 3,
      "note": 79,
      "start": 36.4847,
      "duration": 0.0244,
      "velocity": 102,
      "chip": "ym2612"
    },
    {
      "channel": 1,
      "note": 88,
      "start": 36.5085,
      "duration": 0.0123,
      "velocity": 102,
      "chip": "ym2612"
    },
    {
      "channel": 2,
      "note": 82,
      "start": 36.5088,
      "duration": 0.0122,
      "velocity": 102,
      "chip": "ym2612"
    },
    {
      "channel": 3,
      "note": 78,
      "start": 36.5091,
      "duration": 0.0123,
      "velocity": 102,
      "chip": "ym2612"
    },
    {
      "channel": 1,
      "note": 87,
      "start": 36.5208,
      "duration": 0.0138,
      "velocity": 102,
      "chip": "ym2612"
    },
    {
      "channel": 2,
      "note": 81,
      "start": 36.5211,
      "duration": 0.0141,
      "velocity": 102,
      "chip": "ym2612"
    },
    {
      "channel": 3,
      "note": 78,
      "start": 36.5214,
      "duration": 0.0143,
      "velocity": 102,
      "chip": "ym2612"
    },
    {
      "channel": 0,
      "note": 31,
      "start": 36.5342,
      "duration": 0.1212,
      "velocity": 98,
      "chip": "ym2612"
    },
    {
      "channel": 1,
      "note": 79,
      "start": 36.5348,
      "duration": 0.1227,
      "velocity": 1,
      "chip": "ym2612"
    },
    {
      "channel": 2,
      "note": 74,
      "start": 36.5353,
      "duration": 0.1244,
      "velocity": 1,
      "chip": "ym2612"
    },
    {
      "channel": 3,
      "note": 70,
      "start": 36.5359,
      "duration": 0.1259,
      "velocity": 1,
      "chip": "ym2612"
    },
    {
      "channel": 4,
      "note": 43,
      "start": 36.538,
      "duration": 0.1244,
      "velocity": 82,
      "chip": "ym2612"
    },
    {
      "channel": 0,
      "note": 43,
      "start": 36.6555,
      "duration": 0.11,
      "velocity": 98,
      "chip": "ym2612"
    },
    {
      "channel": 1,
      "note": 69,
      "start": 36.6577,
      "duration": 0.7241,
      "velocity": 99,
      "chip": "ym2612"
    },
    {
      "channel": 2,
      "note": 69,
      "start": 36.6598,
      "duration": 1.3126,
      "velocity": 102,
      "chip": "ym2612"
    },
    {
      "channel": 3,
      "note": 69,
      "start": 36.662,
      "duration": 1.3125,
      "velocity": 102,
      "chip": "ym2612"
    },
    {
      "channel": 4,
      "note": 55,
      "start": 36.6625,
      "duration": 0.1037,
      "velocity": 82,
      "chip": "ym2612"
    },
    {
      "channel": 0,
      "note": 38,
      "start": 36.7657,
      "duration": 0.1211,
      "velocity": 98,
      "chip": "ym2612"
    },
    {
      "channel": 4,
      "note": 50,
      "start": 36.7664,
      "duration": 0.1211,
      "velocity": 82,
      "chip": "ym2612"
    },
    {
      "channel": 0,
      "note": 46,
      "start": 36.8869,
      "duration": 0.1086,
      "velocity": 98,
      "chip": "ym2612"
    },
    {
      "channel": 4,
      "note": 58,
      "start": 36.8877,
      "duration": 0.1085,
      "velocity": 82,
      "chip": "ym2612"
    },
    {
      "channel": 0,
      "note": 48,
      "start": 36.9958,
      "duration": 0.1214,
      "velocity": 98,
      "chip": "ym2612"
    },
    {
      "channel": 4,
      "note": 60,
      "start": 36.9965,
      "duration": 0.1214,
      "velocity": 82,
      "chip": "ym2612"
    },
    {
      "channel": 0,
      "note": 49,
      "start": 37.1173,
      "duration": 0.121,
      "velocity": 98,
      "chip": "ym2612"
    },
    {
      "channel": 4,
      "note": 61,
      "start": 37.118,
      "duration": 0.1209,
      "velocity": 82,
      "chip": "ym2612"
    },
    {
      "channel": 0,
      "note": 50,
      "start": 37.2384,
      "duration": 0.1412,
      "velocity": 98,
      "chip": "ym2612"
    },
    {
      "channel": 4,
      "note": 62,
      "start": 37.2391,
      "duration": 0.1433,
      "velocity": 82,
      "chip": "ym2612"
    },
    {
      "channel": 0,
      "note": 43,
      "start": 37.3798,
      "duration": 0.1227,
      "velocity": 98,
      "chip": "ym2612"
    },
    {
      "channel": 1,
      "note": 53,
      "start": 37.3819,
      "duration": 0.0594,
      "velocity": 99,
      "chip": "ym2612"
    },
    {
      "channel": 4,
      "note": 55,
      "start": 37.3826,
      "duration": 0.1211,
      "velocity": 82,
      "chip": "ym2612"
    },
    {
      "channel": 1,
      "note": 65,
      "start": 37.4415,
      "duration": 0.0615,
      "velocity": 99,
      "chip": "ym2612"
    },
    {
      "channel": 0,
      "note": 43,
      "start": 37.5026,
      "duration": 0.2298,
      "velocity": 98,
      "chip": "ym2612"
    },
    {
      "channel": 1,
      "note": 53,
      "start": 37.5032,
      "duration": 0.1078,
      "velocity": 99,
      "chip": "ym2612"
    },
    {
      "channel": 4,
      "note": 55,
      "start": 37.5039,
      "duration": 0.2313,
      "velocity": 82,
      "chip": "ym2612"
    },
    {
      "channel": 1,
      "note": 65,
      "start": 37.6112,
      "duration": 0.1218,
      "velocity": 99,
      "chip": "ym2612"
    },
    {
      "channel": 0,
      "note": 43,
      "start": 37.7326,
      "duration": 0.1214,
      "velocity": 98,
      "chip": "ym2612"
    },
    {
      "channel": 1,
      "note": 55,
      "start": 37.7332,
      "duration": 0.2371,
      "velocity": 102,
      "chip": "ym2612"
    },
    {
      "channel": 4,
      "note": 55,
      "start": 37.7354,
      "duration": 0.1193,
      "velocity": 82,
      "chip": "ym2612"
    },
    {
      "channel": 0,
      "note": 46,
      "start": 37.8542,
      "duration": 0.1139,
      "velocity": 98,
      "chip": "ym2612"
    },
    {
      "channel": 4,
      "note": 58,
      "start": 37.8549,
      "duration": 0.1202,
      "velocity": 82,
      "chip": "ym2612"
    },
    {
      "channel": 0,
      "note": 48,
      "start": 37.9683,
      "duration": 0.2314,
      "velocity": 98,
      "chip": "ym2612"
    },
    {
      "channel": 1,
      "note": 91,
      "start": 37.9704,
      "duration": 0.1202,
      "velocity": 102,
      "chip": "ym2612"
    },
    {
      "channel": 2,
      "note": 86,
      "start": 37.9726,
      "duration": 0.1186,
      "velocity": 102,
      "chip": "ym2612"
    },
    {
      "channel": 3,
      "note": 82,
      "start": 37.9747,
      "duration": 0.117,
      "velocity": 102,
      "chip": "ym2612"
    },
    {
      "channel": 4,
      "note": 60,
      "start": 37.9753,
      "duration": 0.2282,
      "velocity": 82,
      "chip": "ym2612"
    },
    {
      "channel": 1,
      "note": 89,
      "start": 38.0908,
      "duration": 0.1094,
      "velocity": 102,
      "chip": "ym2612"
    },
    {
      "channel": 2,
      "note": 84,
      "start": 38.0913,
      "duration": 0.1095,
      "velocity": 102,
      "chip": "ym2612"
    },
    {
      "channel": 3,
      "note": 81,
      "start": 38.0919,
      "duration": 0.1094,
      "velocity": 102,
      "chip": "ym2612"
    },
    {
      "channel": 0,
      "note": 43,
      "start": 38.1999,
      "duration": 0.2764,
      "velocity": 98,
      "chip": "ym2612"
    },
    {
      "channel": 1,
      "note": 91,
      "start": 38.2004,
      "duration": 0.1547,
      "velocity": 102,
      "chip": "ym2612"
    },
    {
      "channel": 2,
      "note": 86,
      "start": 38.2009,
      "duration": 0.1544,
      "velocity": 102,
      "chip": "ym2612"
    },
    {
      "channel": 3,
      "note": 82,
      "start": 38.2015,
      "duration": 0.1541,
      "velocity": 102,
      "chip": "ym2612"
    },
    {
      "channel": 4,
      "note": 55,
      "start": 38.2037,
      "duration": 0.2765,
      "velocity": 82,
      "chip": "ym2612"
    },
    {
      "channel": 1,
      "note": 91,
      "start": 38.3551,
      "duration": 0.0103,
      "velocity": 102,
      "chip": "ym2612"
    },
    {
      "channel": 2,
      "note": 85,
      "start": 38.3554,
      "duration": 0.0103,
      "velocity": 102,
      "chip": "ym2612"
    },
    {
      "channel": 3,
      "note": 81,
      "start": 38.3557,
      "duration": 0.0103,
      "velocity": 102,
      "chip": "ym2612"
    },
    {
      "channel": 1,
      "note": 90,
      "start": 38.3654,
      "duration": 0.0119,
      "velocity": 102,
      "chip": "ym2612"
    },
    {
      "channel": 2,
      "note": 85,
      "start": 38.3656,
      "duration": 0.012,
      "velocity": 102,
      "chip": "ym2612"
    },
    {
      "channel": 3,
      "note": 80,
      "start": 38.366,
      "duration": 0.0119,
      "velocity": 102,
      "chip": "ym2612"
    },
    {
      "channel": 1,
      "note": 90,
      "start": 38.3773,
      "duration": 0.0246,
      "velocity": 102,
      "chip": "ym2612"
    },
    {
      "channel": 2,
      "note": 84,
      "start": 38.3776,
      "duration": 0.0246,
      "velocity": 102,
      "chip": "ym2612"
    },
    {
      "channel": 3,
      "note": 80,
      "start": 38.3779,
      "duration": 0.0246,
      "velocity": 102,
      "chip": "ym2612"
    },
    {
      "channel": 1,
      "note": 89,
      "start": 38.402,
      "duration": 0.0247,
      "velocity": 102,
      "chip": "ym2612"
    },
    {
      "channel": 2,
      "note": 83,
      "start": 38.4022,
      "duration": 0.0247,
      "velocity": 102,
      "chip": "ym2612"
    },
    {
      "channel": 3,
      "note": 79,
      "start": 38.4025,
      "duration": 0.0247,
      "velocity": 102,
      "chip": "ym2612"
    },
    {
      "channel": 1,
      "note": 88,
      "start": 38.4267,
      "duration": 0.0124,
      "velocity": 102,
      "chip": "ym2612"
    },
    {
      "channel": 2,
      "note": 82,
      "start": 38.4269,
      "duration": 0.0124,
      "velocity": 102,
      "chip": "ym2612"
    },
    {
      "channel": 3,
      "note": 79,
      "start": 38.4272,
      "duration": 0.0124,
      "velocity": 102,
      "chip": "ym2612"
    },
    {
      "channel": 1,
      "note": 88,
      "start": 38.439,
      "duration": 0.012,
      "velocity": 102,
      "chip": "ym2612"
    },
    {
      "channel": 2,
      "note": 82,
      "start": 38.4393,
      "duration": 0.0121,
      "velocity": 102,
      "chip": "ym2612"
    },
    {
      "channel": 3,
      "note": 78,
      "start": 38.4396,
      "duration": 0.012,
      "velocity": 102,
      "chip": "ym2612"
    },
    {
      "channel": 1,
      "note": 87,
      "start": 38.4511,
      "duration": 0.0258,
      "velocity": 102,
      "chip": "ym2612"
    },
    {
      "channel": 2,
      "note": 81,
      "start": 38.4514,
      "duration": 0.026,
      "velocity": 102,
      "chip": "ym2612"
    },
    {
      "channel": 3,
      "note": 78,
      "start": 38.4517,
      "duration": 0.0263,
      "velocity": 102,
      "chip": "ym2612"
    },
    {
      "channel": 0,
      "note": 31,
      "start": 38.4765,
      "duration": 0.1093,
      "velocity": 98,
      "chip": "ym2612"
    },
    {
      "channel": 1,
      "note": 94,
      "start": 38.477,
      "duration": 0.111,
      "velocity": 1,
      "chip": "ym2612"
    },
    {
      "channel": 2,
      "note": 89,
      "start": 38.4776,
      "duration": 0.1126,
      "velocity": 1,
      "chip": "ym2612"
    },
    {
      "channel": 3,
      "note": 85,
      "start": 38.4782,
      "duration": 0.1141,
      "velocity": 1,
      "chip": "ym2612"
    },
    {
      "channel": 4,
      "note": 43,
      "start": 38.4803,
      "duration": 0.1125,
      "velocity": 82,
      "chip": "ym2612"
    },
    {
      "channel": 0,
      "note": 43,
      "start": 38.586,
      "duration": 0.1227,
      "velocity": 98,
      "chip": "ym2612"
    },
    {
      "channel": 1,
      "note": 93,
      "start": 38.5881,
      "duration": 0.1228,
      "velocity": 102,
      "chip": "ym2612"
    },
    {
      "channel": 2,
      "note": 93,
      "start": 38.5903,
      "duration": 0.1227,
      "velocity": 102,
      "chip": "ym2612"
    },
    {
      "channel": 3,
      "note": 93,
      "start": 38.5924,
      "duration": 0.1227,
      "velocity": 102,
      "chip": "ym2612"
    },
    {
      "channel": 4,
      "note": 55,
      "start": 38.593,
      "duration": 0.1227,
      "velocity": 82,
      "chip": "ym2612"
    },
    {
      "channel": 0,
      "note": 43,
      "start": 38.7089,
      "duration": 0.1109,
      "velocity": 98,
      "chip": "ym2612"
    },
    {
      "channel": 1,
      "note": 97,
      "start": 38.711,
      "duration": 0.6181,
      "velocity": 99,
      "chip": "ym2612"
    },
    {
      "channel": 2,
      "note": 92,
      "start": 38.7132,
      "duration": 0.6181,
      "velocity": 1,
      "chip": "ym2612"
    },
    {
      "channel": 3,
      "note": 88,
      "start": 38.7153,
      "duration": 0.6181,
      "velocity": 1,
      "chip": "ym2612"
    },
    {
      "channel": 4,
      "note": 55,
      "start": 38.7159,
      "duration": 0.1046,
      "velocity": 82,
      "chip": "ym2612"
    },
    {
      "channel": 0,
      "note": 46,
      "start": 38.82,
      "duration": 0.1214,
      "velocity": 98,
      "chip": "ym2612"
    },
    {
      "channel": 4,
      "note": 58,
      "start": 38.8207,
      "duration": 0.1262,
      "velocity": 82,
      "chip": "ym2612"
    },
    {
      "channel": 0,
      "note": 48,
      "start": 38.9415,
      "duration": 0.1222,
      "velocity": 98,
      "chip": "ym2612"
    },
    {
      "channel": 4,
      "note": 60,
      "start": 38.947,
      "duration": 0.1174,
      "velocity": 82,
      "chip": "ym2612"
    },
    {
      "channel": 0,
      "note": 49,
      "start": 39.0638,
      "duration": 0.109,
      "velocity": 98,
      "chip": "ym2612"
    },
    {
      "channel": 4,
      "note": 61,
      "start": 39.0645,
      "duration": 0.109,
      "velocity": 82,
      "chip": "ym2612"
    },
    {
      "channel": 0,
      "note": 50,
      "start": 39.1729,
      "duration": 0.1541,
      "velocity": 98,
      "chip": "ym2612"
    },
    {
      "channel": 4,
      "note": 62,
      "start": 39.1737,
      "duration": 0.1604,
      "velocity": 82,
      "chip": "ym2612"
    },
    {
      "channel": 0,
      "note": 43,
      "start": 39.3272,
      "duration": 0.1111,
      "velocity": 98,
      "chip": "ym2612"
    },
    {
      "channel": 1,
      "note": 53,
      "start": 39.3293,
      "duration": 0.0617,
      "velocity": 99,
      "chip": "ym2612"
    },
    {
      "channel": 2,
      "note": 57,
      "start": 39.3315,
      "duration": 0.5887,
      "velocity": 102,
      "chip": "ym2612"
    },
    {
      "channel": 3,
      "note": 57,
      "start": 39.3336,
      "duration": 0.5886,
      "velocity": 102,
      "chip": "ym2612"
    },
    {
      "channel": 4,
      "note": 55,
      "start": 39.3343,
      "duration": 0.1053,
      "velocity": 82,
      "chip": "ym2612"
    },
    {
      "channel": 1,
      "note": 65,
      "start": 39.3911,
      "duration": 0.0478,
      "velocity": 99,
      "chip": "ym2612"
    },
    {
      "channel": 0,
      "note": 43,
      "start": 39.4385,
      "duration": 0.2416,
      "velocity": 98,
      "chip": "ym2612"
    },
    {
      "channel": 1,
      "note": 53,
      "start": 39.4391,
      "duration": 0.1201,
      "velocity": 99,
      "chip": "ym2612"
    },
    {
      "channel": 4,
      "note": 55,
      "start": 39.4397,
      "duration": 0.2432,
      "velocity": 82,
      "chip": "ym2612"
    },
    {
      "channel": 1,
      "note": 65,
      "start": 39.5594,
      "duration": 0.1213,
      "velocity": 99,
      "chip": "ym2612"
    },
    {
      "channel": 0,
      "note": 43,
      "start": 39.6802,
      "duration": 0.1091,
      "velocity": 98,
      "chip": "ym2612"
    },
    {
      "channel": 1,
      "note": 55,
      "start": 39.6808,
      "duration": 0.2372,
      "velocity": 102,
      "chip": "ym2612"
    },
    {
      "channel": 4,
      "note": 55,
      "start": 39.683,
      "duration": 0.1071,
      "velocity": 82,
      "chip": "ym2612"
    },
    {
      "channel": 0,
      "note": 46,
      "start": 39.7896,
      "duration": 0.1262,
      "velocity": 98,
      "chip": "ym2612"
    },
    {
      "channel": 4,
      "note": 58,
      "start": 39.7903,
      "duration": 0.1325,
      "velocity": 82,
      "chip": "ym2612"
    },
    {
      "channel": 0,
      "note": 48,
      "start": 39.916,
      "duration": 0.2324,
      "velocity": 98,
      "chip": "ym2612"
    },
    {
      "channel": 1,
      "note": 91,
      "start": 39.9181,
      "duration": 0.109,
      "velocity": 102,
      "chip": "ym2612"
    },
    {
      "channel": 2,
      "note": 86,
      "start": 39.9203,
      "duration": 0.1073,
      "velocity": 102,
      "chip": "ym2612"
    },
    {
      "channel": 3,
      "note": 82,
      "start": 39.9224,
      "duration": 0.1057,
      "velocity": 102,
      "chip": "ym2612"
    },
    {
      "channel": 4,
      "note": 60,
      "start": 39.923,
      "duration": 0.2293,
      "velocity": 82,
      "chip": "ym2612"
    },
    {
      "channel": 1,
      "note": 89,
      "start": 40.0272,
      "duration": 0.1218,
      "velocity": 102,
      "chip": "ym2612"
    },
    {
      "channel": 2,
      "note": 84,
      "start": 40.0278,
      "duration": 0.1217,
      "velocity": 102,
      "chip": "ym2612"
    },
    {
      "channel": 3,
      "note": 81,
      "start": 40.0283,
      "duration": 0.1217,
      "velocity": 102,
      "chip": "ym2612"
    },
    {
      "channel": 0,
      "note": 43,
      "start": 40.1486,
      "duration": 0.2694,
      "velocity": 98,
      "chip": "ym2612"
    },
    {
      "channel": 1,
      "note": 91,
      "start": 40.1491,
      "duration": 0.1595,
      "velocity": 102,
      "chip": "ym2612"
    },
    {
      "channel": 2,
      "note": 86,
      "start": 40.1497,
      "duration": 0.1592,
      "velocity": 102,
      "chip": "ym2612"
    },
    {
      "channel": 3,
      "note": 82,
      "start": 40.1503,
      "duration": 0.1589,
      "velocity": 102,
      "chip": "ym2612"
    },
    {
      "channel": 4,
      "note": 55,
      "start": 40.1524,
      "duration": 0.2694,
      "velocity": 82,
      "chip": "ym2612"
    },
    {
      "channel": 1,
      "note": 91,
      "start": 40.3086,
      "duration": 0.0103,
      "velocity": 102,
      "chip": "ym2612"
    },
    {
      "channel": 2,
      "note": 85,
      "start": 40.3089,
      "duration": 0.0103,
      "velocity": 102,
      "chip": "ym2612"
    },
    {
      "channel": 3,
      "note": 81,
      "start": 40.3092,
      "duration": 0.0103,
      "velocity": 102,
      "chip": "ym2612"
    },
    {
      "channel": 1,
      "note": 90,
      "start": 40.3189,
      "duration": 0.0119,
      "velocity": 102,
      "chip": "ym2612"
    },
    {
      "channel": 2,
      "note": 85,
      "start": 40.3192,
      "duration": 0.012,
      "velocity": 102,
      "chip": "ym2612"
    },
    {
      "channel": 3,
      "note": 80,
      "start": 40.3195,
      "duration": 0.0119,
      "velocity": 102,
      "chip": "ym2612"
    },
    {
      "channel": 1,
      "note": 90,
      "start": 40.3308,
      "duration": 0.0124,
      "velocity": 102,
      "chip": "ym2612"
    },
    {
      "channel": 2,
      "note": 84,
      "start": 40.3312,
      "duration": 0.0124,
      "velocity": 102,
      "chip": "ym2612"
    },
    {
      "channel": 3,
      "note": 80,
      "start": 40.3314,
      "duration": 0.0124,
      "velocity": 102,
      "chip": "ym2612"
    },
    {
      "channel": 1,
      "note": 89,
      "start": 40.3433,
      "duration": 0.0372,
      "velocity": 102,
      "chip": "ym2612"
    },
    {
      "channel": 2,
      "note": 83,
      "start": 40.3435,
      "duration": 0.0372,
      "velocity": 102,
      "chip": "ym2612"
    },
    {
      "channel": 3,
      "note": 79,
      "start": 40.3438,
      "duration": 0.0372,
      "velocity": 102,
      "chip": "ym2612"
    },
    {
      "channel": 1,
      "note": 88,
      "start": 40.3805,
      "duration": 0.0124,
      "velocity": 102,
      "chip": "ym2612"
    },
    {
      "channel": 2,
      "note": 82,
      "start": 40.3807,
      "duration": 0.0124,
      "velocity": 102,
      "chip": "ym2612"
    },
    {
      "channel": 3,
      "note": 79,
      "start": 40.381,
      "duration": 0.0124,
      "velocity": 102,
      "chip": "ym2612"
    },
    {
      "channel": 1,
      "note": 88,
      "start": 40.3929,
      "duration": 0.012,
      "velocity": 102,
      "chip": "ym2612"
    },
    {
      "channel": 2,
      "note": 82,
      "start": 40.3931,
      "duration": 0.0121,
      "velocity": 102,
      "chip": "ym2612"
    },
    {
      "channel": 3,
      "note": 78,
      "start": 40.3934,
      "duration": 0.012,
      "velocity": 102,
      "chip": "ym2612"
    },
    {
      "channel": 1,
      "note": 87,
      "start": 40.4049,
      "duration": 0.0137,
      "velocity": 102,
      "chip": "ym2612"
    },
    {
      "channel": 2,
      "note": 81,
      "start": 40.4052,
      "duration": 0.0139,
      "velocity": 102,
      "chip": "ym2612"
    },
    {
      "channel": 3,
      "note": 78,
      "start": 40.4055,
      "duration": 0.0143,
      "velocity": 102,
      "chip": "ym2612"
    },
    {
      "channel": 0,
      "note": 31,
      "start": 40.4182,
      "duration": 0.1222,
      "velocity": 98,
      "chip": "ym2612"
    },
    {
      "channel": 1,
      "note": 79,
      "start": 40.4188,
      "duration": 0.1238,
      "velocity": 1,
      "chip": "ym2612"
    },
    {
      "channel": 2,
      "note": 74,
      "start": 40.4193,
      "duration": 0.1255,
      "velocity": 1,
      "chip": "ym2612"
    },
    {
      "channel": 3,
      "note": 70,
      "start": 40.4199,
      "duration": 0.1271,
      "velocity": 1,
      "chip": "ym2612"
    },
    {
      "channel": 4,
      "note": 43,
      "start": 40.422,
      "duration": 0.1255,
      "velocity": 82,
      "chip": "ym2612"
    },
    {
      "channel": 0,
      "note": 43,
      "start": 40.5406,
      "duration": 0.1098,
      "velocity": 98,
      "chip": "ym2612"
    },
    {
      "channel": 1,
      "note": 69,
      "start": 40.5428,
      "duration": 0.7243,
      "velocity": 99,
      "chip": "ym2612"
    },
    {
      "channel": 2,
      "note": 69,
      "start": 40.5449,
      "duration": 1.3135,
      "velocity": 102,
      "chip": "ym2612"
    },
    {
      "channel": 3,
      "note": 69,
      "start": 40.5471,
      "duration": 1.3134,
      "velocity": 102,
      "chip": "ym2612"
    },
    {
      "channel": 4,
      "note": 55,
      "start": 40.5476,
      "duration": 0.1035,
      "velocity": 82,
      "chip": "ym2612"
    },
    {
      "channel": 0,
      "note": 38,
      "start": 40.6506,
      "duration": 0.1214,
      "velocity": 98,
      "chip": "ym2612"
    },
    {
      "channel": 4,
      "note": 50,
      "start": 40.6514,
      "duration": 0.1214,
      "velocity": 82,
      "chip": "ym2612"
    },
    {
      "channel": 0,
      "note": 46,
      "start": 40.7722,
      "duration": 0.1208,
      "velocity": 98,
      "chip": "ym2612"
    },
    {
      "channel": 4,
      "note": 58,
      "start": 40.7729,
      "duration": 0.1208,
      "velocity": 82,
      "chip": "ym2612"
    },
    {
      "channel": 0,
      "note": 48,
      "start": 40.8932,
      "duration": 0.109,
      "velocity": 98,
      "chip": "ym2612"
    },
    {
      "channel": 4,
      "note": 60,
      "start": 40.8939,
      "duration": 0.109,
      "velocity": 82,
      "chip": "ym2612"
    },
    {
      "channel": 0,
      "note": 49,
      "start": 41.0023,
      "duration": 0.1217,
      "velocity": 98,
      "chip": "ym2612"
    },
    {
      "channel": 4,
      "note": 61,
      "start": 41.0031,
      "duration": 0.1216,
      "velocity": 82,
      "chip": "ym2612"
    },
    {
      "channel": 0,
      "note": 50,
      "start": 41.1241,
      "duration": 0.1408,
      "velocity": 98,
      "chip": "ym2612"
    },
    {
      "channel": 4,
      "note": 62,
      "start": 41.1249,
      "duration": 0.1428,
      "velocity": 82,
      "chip": "ym2612"
    },
    {
      "channel": 0,
      "note": 43,
      "start": 41.2651,
      "duration": 0.1224,
      "velocity": 98,
      "chip": "ym2612"
    },
    {
      "channel": 1,
      "note": 53,
      "start": 41.2672,
      "duration": 0.059,
      "velocity": 99,
      "chip": "ym2612"
    },
    {
      "channel": 4,
      "note": 55,
      "start": 41.2679,
      "duration": 0.1208,
      "velocity": 82,
      "chip": "ym2612"
    },
    {
      "channel": 1,
      "note": 65,
      "start": 41.3264,
      "duration": 0.0616,
      "velocity": 99,
      "chip": "ym2612"
    },
    {
      "channel": 0,
      "note": 43,
      "start": 41.3876,
      "duration": 0.2305,
      "velocity": 98,
      "chip": "ym2612"
    },
    {
      "channel": 1,
      "note": 53,
      "start": 41.3882,
      "duration": 0.1205,
      "velocity": 99,
      "chip": "ym2612"
    },
    {
      "channel": 4,
      "note": 55,
      "start": 41.3889,
      "duration": 0.2319,
      "velocity": 82,
      "chip": "ym2612"
    },
    {
      "channel": 1,
      "note": 65,
      "start": 41.5089,
      "duration": 0.1097,
      "velocity": 99,
      "chip": "ym2612"
    },
    {
      "channel": 0,
      "note": 43,
      "start": 41.6182,
      "duration": 0.1218,
      "velocity": 98,
      "chip": "ym2612"
    },
    {
      "channel": 1,
      "note": 55,
      "start": 41.6188,
      "duration": 0.2374,
      "velocity": 102,
      "chip": "ym2612"
    },
    {
      "channel": 4,
      "note": 55,
      "start": 41.621,
      "duration": 0.1197,
      "velocity": 82,
      "chip": "ym2612"
    },
    {
      "channel": 0,
      "note": 46,
      "start": 41.7402,
      "duration": 0.1139,
      "velocity": 98,
      "chip": "ym2612"
    },
    {
      "channel": 4,
      "note": 58,
      "start": 41.7409,
      "duration": 0.1202,
      "velocity": 82,
      "chip": "ym2612"
    },
    {
      "channel": 0,
      "note": 48,
      "start": 41.8543,
      "duration": 0.2441,
      "velocity": 98,
      "chip": "ym2612"
    },
    {
      "channel": 1,
      "note": 91,
      "start": 41.8564,
      "duration": 0.12,
      "velocity": 102,
      "chip": "ym2612"
    },
    {
      "channel": 2,
      "note": 86,
      "start": 41.8586,
      "duration": 0.1184,
      "velocity": 102,
      "chip": "ym2612"
    },
    {
      "channel": 3,
      "note": 82,
      "start": 41.8607,
      "duration": 0.1168,
      "velocity": 102,
      "chip": "ym2612"
    },
    {
      "channel": 4,
      "note": 60,
      "start": 41.8613,
      "duration": 0.2409,
      "velocity": 82,
      "chip": "ym2612"
    },
    {
      "channel": 1,
      "note": 89,
      "start": 41.9766,
      "duration": 0.1224,
      "velocity": 102,
      "chip": "ym2612"
    },
    {
      "channel": 2,
      "note": 84,
      "start": 41.9771,
      "duration": 0.1224,
      "velocity": 102,
      "chip": "ym2612"
    },
    {
      "channel": 3,
      "note": 81,
      "start": 41.9777,
      "duration": 0.1224,
      "velocity": 102,
      "chip": "ym2612"
    },
    {
      "channel": 0,
      "note": 43,
      "start": 42.0986,
      "duration": 0.2645,
      "velocity": 98,
      "chip": "ym2612"
    },
    {
      "channel": 1,
      "note": 91,
      "start": 42.0991,
      "duration": 0.1424,
      "velocity": 102,
      "chip": "ym2612"
    },
    {
      "channel": 2,
      "note": 86,
      "start": 42.0997,
      "duration": 0.142,
      "velocity": 102,
      "chip": "ym2612"
    },
    {
      "channel": 3,
      "note": 82,
      "start": 42.1003,
      "duration": 0.1418,
      "velocity": 102,
      "chip": "ym2612"
    },
    {
      "channel": 4,
      "note": 55,
      "start": 42.1024,
      "duration": 0.2645,
      "velocity": 82,
      "chip": "ym2612"
    },
    {
      "channel": 1,
      "note": 91,
      "start": 42.2415,
      "duration": 0.0103,
      "velocity": 102,
      "chip": "ym2612"
    },
    {
      "channel": 2,
      "note": 85,
      "start": 42.2417,
      "duration": 0.0103,
      "velocity": 102,
      "chip": "ym2612"
    },
    {
      "channel": 3,
      "note": 81,
      "start": 42.2421,
      "duration": 0.0103,
      "velocity": 102,
      "chip": "ym2612"
    },
    {
      "channel": 1,
      "note": 90,
      "start": 42.2518,
      "duration": 0.0241,
      "velocity": 102,
      "chip": "ym2612"
    },
    {
      "channel": 2,
      "note": 85,
      "start": 42.252,
      "duration": 0.0241,
      "velocity": 102,
      "chip": "ym2612"
    },
    {
      "channel": 3,
      "note": 80,
      "start": 42.2524,
      "duration": 0.0241,
      "velocity": 102,
      "chip": "ym2612"
    },
    {
      "channel": 1,
      "note": 90,
      "start": 42.2759,
      "duration": 0.0124,
      "velocity": 102,
      "chip": "ym2612"
    },
    {
      "channel": 2,
      "note": 84,
      "start": 42.2762,
      "duration": 0.0124,
      "velocity": 102,
      "chip": "ym2612"
    },
    {
      "channel": 3,
      "note": 80,
      "start": 42.2765,
      "duration": 0.0124,
      "velocity": 102,
      "chip": "ym2612"
    },
    {
      "channel": 1,
      "note": 89,
      "start": 42.2883,
      "duration": 0.0248,
      "velocity": 102,
      "chip": "ym2612"
    },
    {
      "channel": 2,
      "note": 83,
      "start": 42.2885,
      "duration": 0.0248,
      "velocity": 102,
      "chip": "ym2612"
    },
    {
      "channel": 3,
      "note": 79,
      "start": 42.2889,
      "duration": 0.0248,
      "velocity": 102,
      "chip": "ym2612"
    },
    {
      "channel": 1,
      "note": 88,
      "start": 42.3131,
      "duration": 0.0124,
      "velocity": 102,
      "chip": "ym2612"
    },
    {
      "channel": 2,
      "note": 82,
      "start": 42.3133,
      "duration": 0.0124,
      "velocity": 102,
      "chip": "ym2612"
    },
    {
      "channel": 3,
      "note": 79,
      "start": 42.3136,
      "duration": 0.0124,
      "velocity": 102,
      "chip": "ym2612"
    },
    {
      "channel": 1,
      "note": 88,
      "start": 42.3254,
      "duration": 0.0245,
      "velocity": 102,
      "chip": "ym2612"
    },
    {
      "channel": 2,
      "note": 82,
      "start": 42.3257,
      "duration": 0.0245,
      "velocity": 102,
      "chip": "ym2612"
    },
    {
      "channel": 3,
      "note": 78,
      "start": 42.326,
      "duration": 0.0245,
      "velocity": 102,
      "chip": "ym2612"
    },
    {
      "channel": 1,
      "note": 87,
      "start": 42.3499,
      "duration": 0.0138,
      "velocity": 102,
      "chip": "ym2612"
    },
    {
      "channel": 2,
      "note": 81,
      "start": 42.3501,
      "duration": 0.0141,
      "velocity": 102,
      "chip": "ym2612"
    },
    {
      "channel": 3,
      "note": 78,
      "start": 42.3505,
      "duration": 0.0143,
      "velocity": 102,
      "chip": "ym2612"
    },
    {
      "channel": 0,
      "note": 31,
      "start": 42.3633,
      "duration": 0.1093,
      "velocity": 98,
      "chip": "ym2612"
    },
    {
      "channel": 1,
      "note": 94,
      "start": 42.3639,
      "duration": 0.1109,
      "velocity": 1,
      "chip": "ym2612"
    },
    {
      "channel": 2,
      "note": 89,
      "start": 42.3644,
      "duration": 0.1126,
      "velocity": 1,
      "chip": "ym2612"
    },
    {
      "channel": 3,
      "note": 85,
      "start": 42.3649,
      "duration": 0.1141,
      "velocity": 1,
      "chip": "ym2612"
    },
    {
      "channel": 4,
      "note": 43,
      "start": 42.3671,
      "duration": 0.1125,
      "velocity": 82,
      "chip": "ym2612"
    },
    {
      "channel": 0,
      "note": 43,
      "start": 42.4728,
      "duration": 0.1224,
      "velocity": 98,
      "chip": "ym2612"
    },
    {
      "channel": 1,
      "note": 93,
      "start": 42.4749,
      "duration": 0.1225,
      "velocity": 102,
      "chip": "ym2612"
    },
    {
      "channel": 2,
      "note": 93,
      "start": 42.4771,
      "duration": 0.1224,
      "velocity": 102,
      "chip": "ym2612"
    },
    {
      "channel": 3,
      "note": 93,
      "start": 42.4792,
      "duration": 0.1224,
      "velocity": 102,
      "chip": "ym2612"
    },
    {
      "channel": 4,
      "note": 55,
      "start": 42.4798,
      "duration": 0.1224,
      "velocity": 82,
      "chip": "ym2612"
    },
    {
      "channel": 0,
      "note": 43,
      "start": 42.5954,
      "duration": 0.1226,
      "velocity": 98,
      "chip": "ym2612"
    },
    {
      "channel": 1,
      "note": 97,
      "start": 42.5975,
      "duration": 0.6167,
      "velocity": 121,
      "chip": "ym2612"
    },
    {
      "channel": 2,
      "note": 92,
      "start": 42.5996,
      "duration": 0.6167,
      "velocity": 1,
      "chip": "ym2612"
    },
    {
      "channel": 3,
      "note": 88,
      "start": 42.6018,
      "duration": 0.6166,
      "velocity": 1,
      "chip": "ym2612"
    },
    {
      "channel": 4,
      "note": 55,
      "start": 42.6024,
      "duration": 0.1164,
      "velocity": 82,
      "chip": "ym2612"
    },
    {
      "channel": 0,
      "note": 46,
      "start": 42.7182,
      "duration": 0.1088,
      "velocity": 98,
      "chip": "ym2612"
    },
    {
      "channel": 4,
      "note": 58,
      "start": 42.7189,
      "duration": 0.1134,
      "velocity": 82,
      "chip": "ym2612"
    },
    {
      "channel": 0,
      "note": 48,
      "start": 42.8271,
      "duration": 0.1223,
      "velocity": 98,
      "chip": "ym2612"
    },
    {
      "channel": 4,
      "note": 60,
      "start": 42.8325,
      "duration": 0.1176,
      "velocity": 82,
      "chip": "ym2612"
    },
    {
      "channel": 0,
      "note": 49,
      "start": 42.9495,
      "duration": 0.1086,
      "velocity": 98,
      "chip": "ym2612"
    },
    {
      "channel": 4,
      "note": 61,
      "start": 42.9503,
      "duration": 0.1086,
      "velocity": 82,
      "chip": "ym2612"
    },
    {
      "channel": 0,
      "note": 50,
      "start": 43.0583,
      "duration": 0.1537,
      "velocity": 98,
      "chip": "ym2612"
    },
    {
      "channel": 4,
      "note": 62,
      "start": 43.0591,
      "duration": 0.16,
      "velocity": 82,
      "chip": "ym2612"
    },
    {
      "channel": 0,
      "note": 43,
      "start": 43.2122,
      "duration": 0.1246,
      "velocity": 98,
      "chip": "ym2612"
    },
    {
      "channel": 1,
      "note": 62,
      "start": 43.2143,
      "duration": 0.123,
      "velocity": 121,
      "chip": "ym2612"
    },
    {
      "channel": 2,
      "note": 57,
      "start": 43.2165,
      "duration": 0.5891,
      "velocity": 102,
      "chip": "ym2612"
    },
    {
      "channel": 3,
      "note": 57,
      "start": 43.2186,
      "duration": 0.5891,
      "velocity": 102,
      "chip": "ym2612"
    },
    {
      "channel": 4,
      "note": 55,
      "start": 43.2193,
      "duration": 0.1188,
      "velocity": 82,
      "chip": "ym2612"
    },
    {
      "channel": 0,
      "note": 43,
      "start": 43.3369,
      "duration": 0.2304,
      "velocity": 98,
      "chip": "ym2612"
    },
    {
      "channel": 1,
      "note": 65,
      "start": 43.3375,
      "duration": 0.1083,
      "velocity": 121,
      "chip": "ym2612"
    },
    {
      "channel": 4,
      "note": 55,
      "start": 43.3382,
      "duration": 0.2319,
      "velocity": 82,
      "chip": "ym2612"
    },
    {
      "channel": 1,
      "note": 67,
      "start": 43.446,
      "duration": 0.1219,
      "velocity": 121,
      "chip": "ym2612"
    },
    {
      "channel": 0,
      "note": 43,
      "start": 43.5675,
      "duration": 0.1094,
      "velocity": 98,
      "chip": "ym2612"
    },
    {
      "channel": 1,
      "note": 72,
      "start": 43.568,
      "duration": 0.3584,
      "velocity": 121,
      "chip": "ym2612"
    },
    {
      "channel": 4,
      "note": 55,
      "start": 43.5703,
      "duration": 0.1074,
      "velocity": 82,
      "chip": "ym2612"
    },
    {
      "channel": 0,
      "note": 46,
      "start": 43.6771,
      "duration": 0.1263,
      "velocity": 98,
      "chip": "ym2612"
    },
    {
      "channel": 4,
      "note": 58,
      "start": 43.6778,
      "duration": 0.1304,
      "velocity": 82,
      "chip": "ym2612"
    },
    {
      "channel": 0,
      "note": 48,
      "start": 43.8035,
      "duration": 0.2327,
      "velocity": 98,
      "chip": "ym2612"
    },
    {
      "channel": 2,
      "note": 86,
      "start": 43.8057,
      "duration": 0.1212,
      "velocity": 102,
      "chip": "ym2612"
    },
    {
      "channel": 3,
      "note": 82,
      "start": 43.8079,
      "duration": 0.1196,
      "velocity": 102,
      "chip": "ym2612"
    },
    {
      "channel": 4,
      "note": 60,
      "start": 43.8085,
      "duration": 0.2311,
      "velocity": 82,
      "chip": "ym2612"
    },
    {
      "channel": 1,
      "note": 73,
      "start": 43.9266,
      "duration": 0.0494,
      "velocity": 121,
      "chip": "ym2612"
    },
    {
      "channel": 2,
      "note": 84,
      "start": 43.9271,
      "duration": 0.1097,
      "velocity": 102,
      "chip": "ym2612"
    },
    {
      "channel": 3,
      "note": 81,
      "start": 43.9277,
      "duration": 0.1098,
      "velocity": 102,
      "chip": "ym2612"
    },
    {
      "channel": 1,
      "note": 74,
      "start": 43.9762,
      "duration": 0.3236,
      "velocity": 121,
      "chip": "ym2612"
    },
    {
      "channel": 0,
      "note": 43,
      "start": 44.0364,
      "duration": 0.2628,
      "velocity": 98,
      "chip": "ym2612"
    },
    {
      "channel": 2,
      "note": 86,
      "start": 44.0371,
      "duration": 0.1538,
      "velocity": 102,
      "chip": "ym2612"
    },
    {
      "channel": 3,
      "note": 82,
      "start": 44.0376,
      "duration": 0.1536,
      "velocity": 102,
      "chip": "ym2612"
    },
    {
      "channel": 4,
      "note": 55,
      "start": 44.0397,
      "duration": 0.2633,
      "velocity": 82,
      "chip": "ym2612"
    },
    {
      "channel": 2,
      "note": 85,
      "start": 44.1909,
      "duration": 0.0101,
      "velocity": 102,
      "chip": "ym2612"
    },
    {
      "channel": 3,
      "note": 81,
      "start": 44.1912,
      "duration": 0.01,
      "velocity": 102,
      "chip": "ym2612"
    },
    {
      "channel": 2,
      "note": 85,
      "start": 44.201,
      "duration": 0.0121,
      "velocity": 102,
      "chip": "ym2612"
    },
    {
      "channel": 3,
      "note": 80,
      "start": 44.2012,
      "duration": 0.0121,
      "velocity": 102,
      "chip": "ym2612"
    },
    {
      "channel": 2,
      "note": 84,
      "start": 44.2131,
      "duration": 0.0121,
      "velocity": 102,
      "chip": "ym2612"
    },
    {
      "channel": 3,
      "note": 80,
      "start": 44.2133,
      "duration": 0.0122,
      "velocity": 102,
      "chip": "ym2612"
    },
    {
      "channel": 2,
      "note": 83,
      "start": 44.2252,
      "duration": 0.0368,
      "velocity": 102,
      "chip": "ym2612"
    },
    {
      "channel": 3,
      "note": 79,
      "start": 44.2255,
      "duration": 0.0368,
      "velocity": 102,
      "chip": "ym2612"
    },
    {
      "channel": 2,
      "note": 82,
      "start": 44.262,
      "duration": 0.0124,
      "velocity": 102,
      "chip": "ym2612"
    },
    {
      "channel": 3,
      "note": 79,
      "start": 44.2623,
      "duration": 0.0124,
      "velocity": 102,
      "chip": "ym2612"
    },
    {
      "channel": 2,
      "note": 82,
      "start": 44.2743,
      "duration": 0.0123,
      "velocity": 102,
      "chip": "ym2612"
    },
    {
      "channel": 3,
      "note": 78,
      "start": 44.2746,
      "duration": 0.0122,
      "velocity": 102,
      "chip": "ym2612"
    },
    {
      "channel": 2,
      "note": 81,
      "start": 44.2866,
      "duration": 0.0137,
      "velocity": 102,
      "chip": "ym2612"
    },
    {
      "channel": 3,
      "note": 78,
      "start": 44.2868,
      "duration": 0.014,
      "velocity": 102,
      "chip": "ym2612"
    },
    {
      "channel": 0,
      "note": 31,
      "start": 44.2994,
      "duration": 0.1212,
      "velocity": 98,
      "chip": "ym2612"
    },
    {
      "channel": 1,
      "note": 70,
      "start": 44.3,
      "duration": 0.1212,
      "velocity": 121,
      "chip": "ym2612"
    },
    {
      "channel": 2,
      "note": 74,
      "start": 44.3005,
      "duration": 0.1229,
      "velocity": 1,
      "chip": "ym2612"
    },
    {
      "channel": 3,
      "note": 70,
      "start": 44.301,
      "duration": 0.1244,
      "velocity": 1,
      "chip": "ym2612"
    },
    {
      "channel": 4,
      "note": 43,
      "start": 44.3032,
      "duration": 0.1228,
      "velocity": 82,
      "chip": "ym2612"
    },
    {
      "channel": 0,
      "note": 43,
      "start": 44.4208,
      "duration": 0.122,
      "velocity": 98,
      "chip": "ym2612"
    },
    {
      "channel": 1,
      "note": 67,
      "start": 44.4213,
      "duration": 0.1221,
      "velocity": 121,
      "chip": "ym2612"
    },
    {
      "channel": 2,
      "note": 69,
      "start": 44.4235,
      "duration": 1.3337,
      "velocity": 102,
      "chip": "ym2612"
    },
    {
      "channel": 3,
      "note": 69,
      "start": 44.4256,
      "duration": 1.3337,
      "velocity": 102,
      "chip": "ym2612"
    },
    {
      "channel": 4,
      "note": 55,
      "start": 44.4262,
      "duration": 0.1179,
      "velocity": 82,
      "chip": "ym2612"
    },
    {
      "channel": 0,
      "note": 38,
      "start": 44.543,
      "duration": 0.1092,
      "velocity": 98,
      "chip": "ym2612"
    },
    {
      "channel": 1,
      "note": 65,
      "start": 44.5436,
      "duration": 0.0478,
      "velocity": 121,
      "chip": "ym2612"
    },
    {
      "channel": 4,
      "note": 50,
      "start": 44.5442,
      "duration": 0.1087,
      "velocity": 82,
      "chip": "ym2612"
    },
    {
      "channel": 1,
      "note": 67,
      "start": 44.5915,
      "duration": 0.6815,
      "velocity": 121,
      "chip": "ym2612"
    },
    {
      "channel": 0,
      "note": 46,
      "start": 44.6523,
      "duration": 0.1204,
      "velocity": 98,
      "chip": "ym2612"
    },
    {
      "channel": 4,
      "note": 58,
      "start": 44.6531,
      "duration": 0.1203,
      "velocity": 82,
      "chip": "ym2612"
    },
    {
      "channel": 0,
      "note": 48,
      "start": 44.7729,
      "duration": 0.1093,
      "velocity": 98,
      "chip": "ym2612"
    },
    {
      "channel": 4,
      "note": 60,
      "start": 44.7736,
      "duration": 0.1093,
      "velocity": 82,
      "chip": "ym2612"
    },
    {
      "channel": 0,
      "note": 49,
      "start": 44.8824,
      "duration": 0.1213,
      "velocity": 98,
      "chip": "ym2612"
    },
    {
      "channel": 4,
      "note": 61,
      "start": 44.8831,
      "duration": 0.1212,
      "velocity": 82,
      "chip": "ym2612"
    },
    {
      "channel": 0,
      "note": 50,
      "start": 45.0037,
      "duration": 0.1574,
      "velocity": 98,
      "chip": "ym2612"
    },
    {
      "channel": 4,
      "note": 62,
      "start": 45.0045,
      "duration": 0.1573,
      "velocity": 82,
      "chip": "ym2612"
    },
    {
      "channel": 0,
      "note": 43,
      "start": 45.1613,
      "duration": 0.1095,
      "velocity": 98,
      "chip": "ym2612"
    },
    {
      "channel": 4,
      "note": 55,
      "start": 45.1621,
      "duration": 0.1115,
      "velocity": 82,
      "chip": "ym2612"
    },
    {
      "channel": 0,
      "note": 43,
      "start": 45.2709,
      "duration": 0.2313,
      "velocity": 98,
      "chip": "ym2612"
    },
    {
      "channel": 1,
      "note": 62,
      "start": 45.2731,
      "duration": 0.1202,
      "velocity": 121,
      "chip": "ym2612"
    },
    {
      "channel": 4,
      "note": 55,
      "start": 45.2738,
      "duration": 0.2312,
      "velocity": 82,
      "chip": "ym2612"
    },
    {
      "channel": 1,
      "note": 65,
      "start": 45.3934,
      "duration": 0.1094,
      "velocity": 121,
      "chip": "ym2612"
    },
    {
      "channel": 0,
      "note": 43,
      "start": 45.5024,
      "duration": 0.1213,
      "velocity": 98,
      "chip": "ym2612"
    },
    {
      "channel": 1,
      "note": 73,
      "start": 45.5029,
      "duration": 0.1214,
      "velocity": 121,
      "chip": "ym2612"
    },
    {
      "channel": 4,
      "note": 55,
      "start": 45.5051,
      "duration": 0.1198,
      "velocity": 82,
      "chip": "ym2612"
    },
    {
      "channel": 0,
      "note": 46,
      "start": 45.6239,
      "duration": 0.1306,
      "velocity": 98,
      "chip": "ym2612"
    },
    {
      "channel": 1,
      "note": 72,
      "start": 45.6244,
      "duration": 0.1306,
      "velocity": 121,
      "chip": "ym2612"
    },
    {
      "channel": 4,
      "note": 58,
      "start": 45.6251,
      "duration": 0.1348,
      "velocity": 82,
      "chip": "ym2612"
    },
    {
      "channel": 0,
      "note": 48,
      "start": 45.7547,
      "duration": 0.2321,
      "velocity": 98,
      "chip": "ym2612"
    },
    {
      "channel": 1,
      "note": 70,
      "start": 45.7552,
      "duration": 0.0493,
      "velocity": 121,
      "chip": "ym2612"
    },
    {
      "channel": 2,
      "note": 86,
      "start": 45.7573,
      "duration": 0.1083,
      "velocity": 102,
      "chip": "ym2612"
    },
    {
      "channel": 3,
      "note": 82,
      "start": 45.7595,
      "duration": 0.1067,
      "velocity": 102,
      "chip": "ym2612"
    },
    {
      "channel": 4,
      "note": 60,
      "start": 45.7601,
      "duration": 0.2306,
      "velocity": 82,
      "chip": "ym2612"
    },
    {
      "channel": 1,
      "note": 67,
      "start": 45.8046,
      "duration": 0.0604,
      "velocity": 121,
      "chip": "ym2612"
    },
    {
      "channel": 1,
      "note": 65,
      "start": 45.8653,
      "duration": 0.0611,
      "velocity": 121,
      "chip": "ym2612"
    },
    {
      "channel": 2,
      "note": 84,
      "start": 45.8658,
      "duration": 0.1221,
      "velocity": 102,
      "chip": "ym2612"
    },
    {
      "channel": 3,
      "note": 81,
      "start": 45.8663,
      "duration": 0.1221,
      "velocity": 102,
      "chip": "ym2612"
    },
    {
      "channel": 1,
      "note": 62,
      "start": 45.9266,
      "duration": 0.0608,
      "velocity": 121,
      "chip": "ym2612"
    },
    {
      "channel": 0,
      "note": 43,
      "start": 45.9869,
      "duration": 0.2631,
      "velocity": 98,
      "chip": "ym2612"
    },
    {
      "channel": 1,
      "note": 61,
      "start": 45.9875,
      "duration": 0.0731,
      "velocity": 121,
      "chip": "ym2612"
    },
    {
      "channel": 2,
      "note": 86,
      "start": 45.9881,
      "duration": 0.1422,
      "velocity": 102,
      "chip": "ym2612"
    },
    {
      "channel": 3,
      "note": 82,
      "start": 45.9887,
      "duration": 0.1419,
      "velocity": 102,
      "chip": "ym2612"
    },
    {
      "channel": 4,
      "note": 55,
      "start": 45.9907,
      "duration": 0.2631,
      "velocity": 82,
      "chip": "ym2612"
    },
    {
      "channel": 1,
      "note": 60,
      "start": 46.0608,
      "duration": 0.0665,
      "velocity": 121,
      "chip": "ym2612"
    },
    {
      "channel": 1,
      "note": 58,
      "start": 46.1274,
      "duration": 0.061,
      "velocity": 121,
      "chip": "ym2612"
    },
    {
      "channel": 2,
      "note": 85,
      "start": 46.1302,
      "duration": 0.0219,
      "velocity": 102,
      "chip": "ym2612"
    },
    {
      "channel": 3,
      "note": 81,
      "start": 46.1305,
      "duration": 0.0218,
      "velocity": 102,
      "chip": "ym2612"
    },
    {
      "channel": 2,
      "note": 85,
      "start": 46.1521,
      "duration": 0.012,
      "velocity": 102,
      "chip": "ym2612"
    },
    {
      "channel": 3,
      "note": 80,
      "start": 46.1524,
      "duration": 0.012,
      "velocity": 102,
      "chip": "ym2612"
    },
    {
      "channel": 2,
      "note": 84,
      "start": 46.1641,
      "duration": 0.012,
      "velocity": 102,
      "chip": "ym2612"
    },
    {
      "channel": 3,
      "note": 80,
      "start": 46.1644,
      "duration": 0.0121,
      "velocity": 102,
      "chip": "ym2612"
    },
    {
      "channel": 2,
      "note": 83,
      "start": 46.1762,
      "duration": 0.0131,
      "velocity": 102,
      "chip": "ym2612"
    },
    {
      "channel": 3,
      "note": 79,
      "start": 46.1765,
      "duration": 0.0131,
      "velocity": 102,
      "chip": "ym2612"
    },
    {
      "channel": 1,
      "note": 60,
      "start": 46.1887,
      "duration": 0.0619,
      "velocity": 121,
      "chip": "ym2612"
    },
    {
      "channel": 2,
      "note": 82,
      "start": 46.1893,
      "duration": 0.0112,
      "velocity": 102,
      "chip": "ym2612"
    },
    {
      "channel": 3,
      "note": 79,
      "start": 46.1896,
      "duration": 0.0112,
      "velocity": 102,
      "chip": "ym2612"
    },
    {
      "channel": 2,
      "note": 82,
      "start": 46.2005,
      "duration": 0.0241,
      "velocity": 102,
      "chip": "ym2612"
    },
    {
      "channel": 3,
      "note": 78,
      "start": 46.2007,
      "duration": 0.0242,
      "velocity": 102,
      "chip": "ym2612"
    },
    {
      "channel": 2,
      "note": 81,
      "start": 46.2246,
      "duration": 0.0122,
      "velocity": 102,
      "chip": "ym2612"
    },
    {
      "channel": 3,
      "note": 78,
      "start": 46.225,
      "duration": 0.0122,
      "velocity": 102,
      "chip": "ym2612"
    },
    {
      "channel": 2,
      "note": 80,
      "start": 46.2368,
      "duration": 0.0143,
      "velocity": 102,
      "chip": "ym2612"
    },
    {
      "channel": 3,
      "note": 77,
      "start": 46.2372,
      "duration": 0.0145,
      "velocity": 102,
      "chip": "ym2612"
    },
    {
      "channel": 0,
      "note": 31,
      "start": 46.2502,
      "duration": 0.1215,
      "velocity": 98,
      "chip": "ym2612"
    },
    {
      "channel": 1,
      "note": 61,
      "start": 46.2507,
      "duration": 0.0605,
      "velocity": 121,
      "chip": "ym2612"
    },
    {
      "channel": 2,
      "note": 89,
      "start": 46.2513,
      "duration": 0.1231,
      "velocity": 1,
      "chip": "ym2612"
    },
    {
      "channel": 3,
      "note": 85,
      "start": 46.2519,
      "duration": 0.1247,
      "velocity": 1,
      "chip": "ym2612"
    },
    {
      "channel": 4,
      "note": 43,
      "start": 46.254,
      "duration": 0.1232,
      "velocity": 82,
      "chip": "ym2612"
    },
    {
      "channel": 1,
      "note": 62,
      "start": 46.3115,
      "duration": 0.0608,
      "velocity": 121,
      "chip": "ym2612"
    },
    {
      "channel": 0,
      "note": 43,
      "start": 46.3719,
      "duration": 0.11,
      "velocity": 98,
      "chip": "ym2612"
    },
    {
      "channel": 1,
      "note": 65,
      "start": 46.3725,
      "duration": 0.0487,
      "velocity": 121,
      "chip": "ym2612"
    },
    {
      "channel": 2,
      "note": 93,
      "start": 46.3746,
      "duration": 0.11,
      "velocity": 102,
      "chip": "ym2612"
    },
    {
      "channel": 3,
      "note": 93,
      "start": 46.3768,
      "duration": 0.1099,
      "velocity": 102,
      "chip": "ym2612"
    },
    {
      "channel": 4,
      "note": 55,
      "start": 46.3773,
      "duration": 0.11,
      "velocity": 82,
      "chip": "ym2612"
    },
    {
      "channel": 1,
      "note": 67,
      "start": 46.4214,
      "duration": 0.0611,
      "velocity": 121,
      "chip": "ym2612"
    },
    {
      "channel": 0,
      "note": 43,
      "start": 46.4821,
      "duration": 0.123,
      "velocity": 98,
      "chip": "ym2612"
    },
    {
      "channel": 1,
      "note": 70,
      "start": 46.4826,
      "duration": 0.0616,
      "velocity": 121,
      "chip": "ym2612"
    },
    {
      "channel": 2,
      "note": 92,
      "start": 46.4847,
      "duration": 0.6171,
      "velocity": 1,
      "chip": "ym2612"
    },
    {
      "channel": 3,
      "note": 88,
      "start": 46.4869,
      "duration": 0.617,
      "velocity": 1,
      "chip": "ym2612"
    },
    {
      "channel": 4,
      "note": 55,
      "start": 46.4875,
      "duration": 0.1188,
      "velocity": 82,
      "chip": "ym2612"
    },
    {
      "channel": 1,
      "note": 72,
      "start": 46.5443,
      "duration": 0.0612,
      "velocity": 121,
      "chip": "ym2612"
    },
    {
      "channel": 0,
      "note": 46,
      "start": 46.6052,
      "duration": 0.1092,
      "velocity": 98,
      "chip": "ym2612"
    },
    {
      "channel": 1,
      "note": 73,
      "start": 46.6058,
      "duration": 0.1093,
      "velocity": 121,
      "chip": "ym2612"
    },
    {
      "channel": 4,
      "note": 58,
      "start": 46.6065,
      "duration": 0.1124,
      "velocity": 82,
      "chip": "ym2612"
    },
    {
      "channel": 0,
      "note": 48,
      "start": 46.7146,
      "duration": 0.122,
      "velocity": 98,
      "chip": "ym2612"
    },
    {
      "channel": 1,
      "note": 72,
      "start": 46.7151,
      "duration": 0.1221,
      "velocity": 121,
      "chip": "ym2612"
    },
    {
      "channel": 4,
      "note": 60,
      "start": 46.719,
      "duration": 0.1188,
      "velocity": 82,
      "chip": "ym2612"
    },
    {
      "channel": 0,
      "note": 49,
      "start": 46.8368,
      "duration": 0.1214,
      "velocity": 98,
      "chip": "ym2612"
    },
    {
      "channel": 1,
      "note": 70,
      "start": 46.8373,
      "duration": 0.1215,
      "velocity": 121,
      "chip": "ym2612"
    },
    {
      "channel": 4,
      "note": 61,
      "start": 46.838,
      "duration": 0.1214,
      "velocity": 82,
      "chip": "ym2612"
    },
    {
      "channel": 0,
      "note": 50,
      "start": 46.9584,
      "duration": 0.1406,
      "velocity": 98,
      "chip": "ym2612"
    },
    {
      "channel": 1,
      "note": 65,
      "start": 46.9589,
      "duration": 0.1408,
      "velocity": 121,
      "chip": "ym2612"
    },
    {
      "channel": 4,
      "note": 62,
      "start": 46.9596,
      "duration": 0.145,
      "velocity": 82,
      "chip": "ym2612"
    },
    {
      "channel": 0,
      "note": 43,
      "start": 47.0992,
      "duration": 0.1229,
      "velocity": 98,
      "chip": "ym2612"
    },
    {
      "channel": 1,
      "note": 67,
      "start": 47.0998,
      "duration": 0.0628,
      "velocity": 121,
      "chip": "ym2612"
    },
    {
      "channel": 2,
      "note": 57,
      "start": 47.102,
      "duration": 0.5879,
      "velocity": 102,
      "chip": "ym2612"
    },
    {
      "channel": 3,
      "note": 57,
      "start": 47.1041,
      "duration": 0.5878,
      "velocity": 102,
      "chip": "ym2612"
    },
    {
      "channel": 4,
      "note": 55,
      "start": 47.1048,
      "duration": 0.1187,
      "velocity": 82,
      "chip": "ym2612"
    },
    {
      "channel": 1,
      "note": 70,
      "start": 47.1628,
      "duration": 0.0599,
      "velocity": 121,
      "chip": "ym2612"
    },
    {
      "channel": 0,
      "note": 43,
      "start": 47.2223,
      "duration": 0.23,
      "velocity": 98,
      "chip": "ym2612"
    },
    {
      "channel": 1,
      "note": 72,
      "start": 47.2229,
      "duration": 0.06,
      "velocity": 121,
      "chip": "ym2612"
    },
    {
      "channel": 4,
      "note": 55,
      "start": 47.2235,
      "duration": 0.2316,
      "velocity": 82,
      "chip": "ym2612"
    },
    {
      "channel": 1,
      "note": 67,
      "start": 47.2831,
      "duration": 0.0482,
      "velocity": 121,
      "chip": "ym2612"
    },
    {
      "channel": 1,
      "note": 70,
      "start": 47.3315,
      "duration": 0.0604,
      "velocity": 121,
      "chip": "ym2612"
    },
    {
      "channel": 1,
      "note": 72,
      "start": 47.3921,
      "duration": 0.0608,
      "velocity": 121,
      "chip": "ym2612"
    },
    {
      "channel": 0,
      "note": 43,
      "start": 47.4525,
      "duration": 0.1211,
      "velocity": 98,
      "chip": "ym2612"
    },
    {
      "channel": 1,
      "note": 67,
      "start": 47.453,
      "duration": 0.0606,
      "velocity": 121,
      "chip": "ym2612"
    },
    {
      "channel": 4,
      "note": 55,
      "start": 47.4553,
      "duration": 0.1196,
      "velocity": 82,
      "chip": "ym2612"
    },
    {
      "channel": 1,
      "note": 70,
      "start": 47.5137,
      "duration": 0.0605,
      "velocity": 121,
      "chip": "ym2612"
    },
    {
      "channel": 0,
      "note": 46,
      "start": 47.5738,
      "duration": 0.1133,
      "velocity": 98,
      "chip": "ym2612"
    },
    {
      "channel": 1,
      "note": 72,
      "start": 47.5744,
      "duration": 0.0476,
      "velocity": 121,
      "chip": "ym2612"
    },
    {
      "channel": 4,
      "note": 58,
      "start": 47.575,
      "duration": 0.1175,
      "velocity": 82,
      "chip": "ym2612"
    },
    {
      "channel": 1,
      "note": 73,
      "start": 47.6221,
      "duration": 0.0655,
      "velocity": 121,
      "chip": "ym2612"
    },
    {
      "channel": 0,
      "note": 48,
      "start": 47.6873,
      "duration": 0.2321,
      "velocity": 98,
      "chip": "ym2612"
    },
    {
      "channel": 1,
      "note": 74,
      "start": 47.6878,
      "duration": 0.0615,
      "velocity": 121,
      "chip": "ym2612"
    },
    {
      "channel": 2,
      "note": 86,
      "start": 47.69,
      "duration": 0.1208,
      "velocity": 102,
      "chip": "ym2612"
    },
    {
      "channel": 3,
      "note": 82,
      "start": 47.6921,
      "duration": 0.1192,
      "velocity": 102,
      "chip": "ym2612"
    },
    {
      "channel": 4,
      "note": 60,
      "start": 47.6927,
      "duration": 0.2305,
      "velocity": 82,
      "chip": "ym2612"
    },
    {
      "channel": 1,
      "note": 72,
      "start": 47.7494,
      "duration": 0.0608,
      "velocity": 121,
      "chip": "ym2612"
    },
    {
      "channel": 1,
      "note": 73,
      "start": 47.8104,
      "duration": 0.0609,
      "velocity": 121,
      "chip": "ym2612"
    },
    {
      "channel": 2,
      "note": 84,
      "start": 47.8109,
      "duration": 0.1095,
      "velocity": 102,
      "chip": "ym2612"
    },
    {
      "channel": 3,
      "note": 81,
      "start": 47.8115,
      "duration": 0.1095,
      "velocity": 102,
      "chip": "ym2612"
    },
    {
      "channel": 1,
      "note": 74,
      "start": 47.8714,
      "duration": 0.0485,
      "velocity": 121,
      "chip": "ym2612"
    },
    {
      "channel": 0,
      "note": 43,
      "start": 47.9196,
      "duration": 0.2759,
      "velocity": 98,
      "chip": "ym2612"
    },
    {
      "channel": 1,
      "note": 77,
      "start": 47.9201,
      "duration": 0.0687,
      "velocity": 121,
      "chip": "ym2612"
    },
    {
      "channel": 2,
      "note": 86,
      "start": 47.9206,
      "duration": 0.1547,
      "velocity": 102,
      "chip": "ym2612"
    },
    {
      "channel": 3,
      "note": 82,
      "start": 47.9212,
      "duration": 0.1544,
      "velocity": 102,
      "chip": "ym2612"
    },
    {
      "channel": 4,
      "note": 55,
      "start": 47.9233,
      "duration": 0.2754,
      "velocity": 82,
      "chip": "ym2612"
    },
    {
      "channel": 1,
      "note": 79,
      "start": 47.989,
      "duration": 0.0832,
      "velocity": 121,
      "chip": "ym2612"
    },
    {
      "channel": 1,
      "note": 77,
      "start": 48.0724,
      "duration": 0.0027,
      "velocity": 121,
      "chip": "ym2612"
    },
    {
      "channel": 1,
      "note": 77,
      "start": 48.0751,
      "duration": 0.0098,
      "velocity": 121,
      "chip": "ym2612"
    },
    {
      "channel": 2,
      "note": 85,
      "start": 48.0753,
      "duration": 0.0098,
      "velocity": 102,
      "chip": "ym2612"
    },
    {
      "channel": 3,
      "note": 81,
      "start": 48.0756,
      "duration": 0.0098,
      "velocity": 102,
      "chip": "ym2612"
    },
    {
      "channel": 1,
      "note": 78,
      "start": 48.0849,
      "duration": 0.0121,
      "velocity": 121,
      "chip": "ym2612"
    },
    {
      "channel": 2,
      "note": 85,
      "start": 48.0851,
      "duration": 0.0121,
      "velocity": 102,
      "chip": "ym2612"
    },
    {
      "channel": 3,
      "note": 80,
      "start": 48.0854,
      "duration": 0.0121,
      "velocity": 102,
      "chip": "ym2612"
    },
    {
      "channel": 1,
      "note": 78,
      "start": 48.0969,
      "duration": 0.0249,
      "velocity": 121,
      "chip": "ym2612"
    },
    {
      "channel": 2,
      "note": 84,
      "start": 48.0972,
      "duration": 0.0249,
      "velocity": 102,
      "chip": "ym2612"
    },
    {
      "channel": 3,
      "note": 80,
      "start": 48.0975,
      "duration": 0.0249,
      "velocity": 102,
      "chip": "ym2612"
    },
    {
      "channel": 1,
      "note": 78,
      "start": 48.1218,
      "duration": 0.0124,
      "velocity": 121,
      "chip": "ym2612"
    },
    {
      "channel": 2,
      "note": 83,
      "start": 48.1221,
      "duration": 0.0129,
      "velocity": 102,
      "chip": "ym2612"
    },
    {
      "channel": 3,
      "note": 79,
      "start": 48.1224,
      "duration": 0.0129,
      "velocity": 102,
      "chip": "ym2612"
    },
    {
      "channel": 1,
      "note": 79,
      "start": 48.1344,
      "duration": 0.1715,
      "velocity": 121,
      "chip": "ym2612"
    },
    {
      "channel": 2,
      "note": 82,
      "start": 48.135,
      "duration": 0.0114,
      "velocity": 102,
      "chip": "ym2612"
    },
    {
      "channel": 3,
      "note": 79,
      "start": 48.1353,
      "duration": 0.0114,
      "velocity": 102,
      "chip": "ym2612"
    },
    {
      "channel": 2,
      "note": 82,
      "start": 48.1464,
      "duration": 0.0121,
      "velocity": 102,
      "chip": "ym2612"
    },
    {
      "channel": 3,
      "note": 78,
      "start": 48.1467,
      "duration": 0.0121,
      "velocity": 102,
      "chip": "ym2612"
    },
    {
      "channel": 2,
      "note": 81,
      "start": 48.1585,
      "duration": 0.0121,
      "velocity": 102,
      "chip": "ym2612"
    },
    {
      "channel": 3,
      "note": 78,
      "start": 48.1588,
      "duration": 0.0121,
      "velocity": 102,
      "chip": "ym2612"
    },
    {
      "channel": 2,
      "note": 80,
      "start": 48.1706,
      "duration": 0.0254,
      "velocity": 102,
      "chip": "ym2612"
    },
    {
      "channel": 3,
      "note": 77,
      "start": 48.1709,
      "duration": 0.0257,
      "velocity": 102,
      "chip": "ym2612"
    },
    {
      "channel": 0,
      "note": 31,
      "start": 48.1956,
      "duration": 0.1097,
      "velocity": 98,
      "chip": "ym2612"
    },
    {
      "channel": 2,
      "note": 74,
      "start": 48.1962,
      "duration": 0.1118,
      "velocity": 1,
      "chip": "ym2612"
    },
    {
      "channel": 3,
      "note": 70,
      "start": 48.1968,
      "duration": 0.1134,
      "velocity": 1,
      "chip": "ym2612"
    },
    {
      "channel": 4,
      "note": 43,
      "start": 48.1989,
      "duration": 0.1118,
      "velocity": 82,
      "chip": "ym2612"
    },
    {
      "channel": 0,
      "note": 43,
      "start": 48.3054,
      "duration": 0.1232,
      "velocity": 98,
      "chip": "ym2612"
    },
    {
      "channel": 1,
      "note": 77,
      "start": 48.306,
      "duration": 0.0056,
      "velocity": 121,
      "chip": "ym2612"
    },
    {
      "channel": 2,
      "note": 69,
      "start": 48.3082,
      "duration": 1.3239,
      "velocity": 102,
      "chip": "ym2612"
    },
    {
      "channel": 3,
      "note": 69,
      "start": 48.3103,
      "duration": 1.3239,
      "velocity": 102,
      "chip": "ym2612"
    },
    {
      "channel": 4,
      "note": 55,
      "start": 48.3109,
      "duration": 0.1184,
      "velocity": 82,
      "chip": "ym2612"
    },
    {
      "channel": 1,
      "note": 77,
      "start": 48.3116,
      "duration": 0.0073,
      "velocity": 121,
      "chip": "ym2612"
    },
    {
      "channel": 1,
      "note": 78,
      "start": 48.3189,
      "duration": 0.0244,
      "velocity": 121,
      "chip": "ym2612"
    },
    {
      "channel": 1,
      "note": 78,
      "start": 48.3434,
      "duration": 0.0124,
      "velocity": 121,
      "chip": "ym2612"
    },
    {
      "channel": 1,
      "note": 78,
      "start": 48.3557,
      "duration": 0.0129,
      "velocity": 121,
      "chip": "ym2612"
    },
    {
      "channel": 1,
      "note": 79,
      "start": 48.3688,
      "duration": 0.2922,
      "velocity": 121,
      "chip": "ym2612"
    },
    {
      "channel": 0,
      "note": 38,
      "start": 48.4288,
      "duration": 0.109,
      "velocity": 98,
      "chip": "ym2612"
    },
    {
      "channel": 4,
      "note": 50,
      "start": 48.4295,
      "duration": 0.109,
      "velocity": 82,
      "chip": "ym2612"
    },
    {
      "channel": 0,
      "note": 46,
      "start": 48.538,
      "duration": 0.1209,
      "velocity": 98,
      "chip": "ym2612"
    },
    {
      "channel": 4,
      "note": 58,
      "start": 48.5388,
      "duration": 0.123,
      "velocity": 82,
      "chip": "ym2612"
    },
    {
      "channel": 0,
      "note": 48,
      "start": 48.659,
      "duration": 0.1216,
      "velocity": 98,
      "chip": "ym2612"
    },
    {
      "channel": 1,
      "note": 82,
      "start": 48.6612,
      "duration": 0.12,
      "velocity": 121,
      "chip": "ym2612"
    },
    {
      "channel": 4,
      "note": 60,
      "start": 48.6619,
      "duration": 0.12,
      "velocity": 82,
      "chip": "ym2612"
    },
    {
      "channel": 0,
      "note": 49,
      "start": 48.7808,
      "duration": 0.1086,
      "velocity": 98,
      "chip": "ym2612"
    },
    {
      "channel": 1,
      "note": 77,
      "start": 48.7814,
      "duration": 0.1085,
      "velocity": 121,
      "chip": "ym2612"
    },
    {
      "channel": 4,
      "note": 61,
      "start": 48.782,
      "duration": 0.1086,
      "velocity": 82,
      "chip": "ym2612"
    },
    {
      "channel": 0,
      "note": 50,
      "start": 48.8895,
      "duration": 0.1526,
      "velocity": 98,
      "chip": "ym2612"
    },
    {
      "channel": 1,
      "note": 73,
      "start": 48.8901,
      "duration": 0.1526,
      "velocity": 121,
      "chip": "ym2612"
    },
    {
      "channel": 4,
      "note": 62,
      "start": 48.8908,
      "duration": 0.1526,
      "velocity": 82,
      "chip": "ym2612"
    },
    {
      "channel": 0,
      "note": 43,
      "start": 49.0423,
      "duration": 0.1094,
      "velocity": 98,
      "chip": "ym2612"
    },
    {
      "channel": 1,
      "note": 72,
      "start": 49.0428,
      "duration": 0.6987,
      "velocity": 121,
      "chip": "ym2612"
    },
    {
      "channel": 4,
      "note": 55,
      "start": 49.0435,
      "duration": 0.1089,
      "velocity": 82,
      "chip": "ym2612"
    },
    {
      "channel": 0,
      "note": 43,
      "start": 49.1518,
      "duration": 0.2425,
      "velocity": 98,
      "chip": "ym2612"
    },
    {
      "channel": 4,
      "note": 55,
      "start": 49.1526,
      "duration": 0.2441,
      "velocity": 82,
      "chip": "ym2612"
    },
    {
      "channel": 0,
      "note": 43,
      "start": 49.3946,
      "duration": 0.1091,
      "velocity": 98,
      "chip": "ym2612"
    },
    {
      "channel": 4,
      "note": 55,
      "start": 49.3968,
      "duration": 0.1075,
      "velocity": 82,
      "chip": "ym2612"
    },
    {
      "channel": 0,
      "note": 46,
      "start": 49.5038,
      "duration": 0.1261,
      "velocity": 98,
      "chip": "ym2612"
    },
    {
      "channel": 4,
      "note": 58,
      "start": 49.5046,
      "duration": 0.1302,
      "velocity": 82,
      "chip": "ym2612"
    },
    {
      "channel": 0,
      "note": 48,
      "start": 49.63,
      "duration": 0.2321,
      "velocity": 98,
      "chip": "ym2612"
    },
    {
      "channel": 2,
      "note": 86,
      "start": 49.6322,
      "duration": 0.1099,
      "velocity": 102,
      "chip": "ym2612"
    },
    {
      "channel": 3,
      "note": 82,
      "start": 49.6344,
      "duration": 0.1083,
      "velocity": 102,
      "chip": "ym2612"
    },
    {
      "channel": 4,
      "note": 60,
      "start": 49.635,
      "duration": 0.2309,
      "velocity": 82,
      "chip": "ym2612"
    },
    {
      "channel": 1,
      "note": 70,
      "start": 49.7418,
      "duration": 0.1208,
      "velocity": 121,
      "chip": "ym2612"
    },
    {
      "channel": 2,
      "note": 84,
      "start": 49.7423,
      "duration": 0.1208,
      "velocity": 102,
      "chip": "ym2612"
    },
    {
      "channel": 3,
      "note": 81,
      "start": 49.7429,
      "duration": 0.1208,
      "velocity": 102,
      "chip": "ym2612"
    },
    {
      "channel": 0,
      "note": 43,
      "start": 49.8622,
      "duration": 0.2684,
      "velocity": 98,
      "chip": "ym2612"
    },
    {
      "channel": 1,
      "note": 65,
      "start": 49.8628,
      "duration": 0.1563,
      "velocity": 121,
      "chip": "ym2612"
    },
    {
      "channel": 2,
      "note": 86,
      "start": 49.8633,
      "duration": 0.1587,
      "velocity": 102,
      "chip": "ym2612"
    },
    {
      "channel": 3,
      "note": 82,
      "start": 49.8639,
      "duration": 0.1584,
      "velocity": 102,
      "chip": "ym2612"
    },
    {
      "channel": 4,
      "note": 55,
      "start": 49.866,
      "duration": 0.2679,
      "velocity": 82,
      "chip": "ym2612"
    },
    {
      "channel": 1,
      "note": 67,
      "start": 50.0193,
      "duration": 0.9629,
      "velocity": 121,
      "chip": "ym2612"
    },
    {
      "channel": 2,
      "note": 85,
      "start": 50.022,
      "duration": 0.0096,
      "velocity": 102,
      "chip": "ym2612"
    },
    {
      "channel": 3,
      "note": 81,
      "start": 50.0224,
      "duration": 0.0096,
      "velocity": 102,
      "chip": "ym2612"
    },
    {
      "channel": 2,
      "note": 85,
      "start": 50.0317,
      "duration": 0.012,
      "velocity": 102,
      "chip": "ym2612"
    },
    {
      "channel": 3,
      "note": 80,
      "start": 50.032,
      "duration": 0.012,
      "velocity": 102,
      "chip": "ym2612"
    },
    {
      "channel": 2,
      "note": 84,
      "start": 50.0437,
      "duration": 0.0122,
      "velocity": 102,
      "chip": "ym2612"
    },
    {
      "channel": 3,
      "note": 80,
      "start": 50.0439,
      "duration": 0.0122,
      "velocity": 102,
      "chip": "ym2612"
    },
    {
      "channel": 2,
      "note": 83,
      "start": 50.0559,
      "duration": 0.0368,
      "velocity": 102,
      "chip": "ym2612"
    },
    {
      "channel": 3,
      "note": 79,
      "start": 50.0562,
      "duration": 0.0368,
      "velocity": 102,
      "chip": "ym2612"
    },
    {
      "channel": 2,
      "note": 82,
      "start": 50.0927,
      "duration": 0.0124,
      "velocity": 102,
      "chip": "ym2612"
    },
    {
      "channel": 3,
      "note": 79,
      "start": 50.0929,
      "duration": 0.0124,
      "velocity": 102,
      "chip": "ym2612"
    },
    {
      "channel": 2,
      "note": 82,
      "start": 50.1051,
      "duration": 0.0125,
      "velocity": 102,
      "chip": "ym2612"
    },
    {
      "channel": 3,
      "note": 78,
      "start": 50.1054,
      "duration": 0.0125,
      "velocity": 102,
      "chip": "ym2612"
    },
    {
      "channel": 2,
      "note": 81,
      "start": 50.1175,
      "duration": 0.0137,
      "velocity": 102,
      "chip": "ym2612"
    },
    {
      "channel": 3,
      "note": 78,
      "start": 50.1178,
      "duration": 0.0139,
      "velocity": 102,
      "chip": "ym2612"
    },
    {
      "channel": 0,
      "note": 31,
      "start": 50.1307,
      "duration": 0.122,
      "velocity": 98,
      "chip": "ym2612"
    },
    {
      "channel": 2,
      "note": 89,
      "start": 50.1314,
      "duration": 0.1252,
      "velocity": 1,
      "chip": "ym2612"
    },
    {
      "channel": 3,
      "note": 85,
      "start": 50.132,
      "duration": 0.1268,
      "velocity": 1,
      "chip": "ym2612"
    },
    {
      "channel": 4,
      "note": 43,
      "start": 50.1341,
      "duration": 0.1253,
      "velocity": 82,
      "chip": "ym2612"
    },
    {
      "channel": 0,
      "note": 43,
      "start": 50.253,
      "duration": 0.1107,
      "velocity": 98,
      "chip": "ym2612"
    },
    {
      "channel": 2,
      "note": 93,
      "start": 50.2567,
      "duration": 0.1092,
      "velocity": 102,
      "chip": "ym2612"
    },
    {
      "channel": 3,
      "note": 93,
      "start": 50.259,
      "duration": 0.109,
      "velocity": 102,
      "chip": "ym2612"
    },
    {
      "channel": 4,
      "note": 55,
      "start": 50.2595,
      "duration": 0.1091,
      "velocity": 82,
      "chip": "ym2612"
    },
    {
      "channel": 0,
      "note": 43,
      "start": 50.3638,
      "duration": 0.1221,
      "velocity": 98,
      "chip": "ym2612"
    },
    {
      "channel": 2,
      "note": 92,
      "start": 50.366,
      "duration": 0.6183,
      "velocity": 1,
      "chip": "ym2612"
    },
    {
      "channel": 3,
      "note": 88,
      "start": 50.3682,
      "duration": 0.6182,
      "velocity": 1,
      "chip": "ym2612"
    },
    {
      "channel": 4,
      "note": 55,
      "start": 50.3688,
      "duration": 0.1178,
      "velocity": 82,
      "chip": "ym2612"
    },
    {
      "channel": 0,
      "note": 46,
      "start": 50.486,
      "duration": 0.1215,
      "velocity": 98,
      "chip": "ym2612"
    },
    {
      "channel": 4,
      "note": 58,
      "start": 50.4867,
      "duration": 0.1247,
      "velocity": 82,
      "chip": "ym2612"
    },
    {
      "channel": 0,
      "note": 48,
      "start": 50.6077,
      "duration": 0.11,
      "velocity": 98,
      "chip": "ym2612"
    },
    {
      "channel": 4,
      "note": 60,
      "start": 50.6117,
      "duration": 0.1068,
      "velocity": 82,
      "chip": "ym2612"
    },
    {
      "channel": 0,
      "note": 49,
      "start": 50.7178,
      "duration": 0.1209,
      "velocity": 98,
      "chip": "ym2612"
    },
    {
      "channel": 4,
      "note": 61,
      "start": 50.7186,
      "duration": 0.1209,
      "velocity": 82,
      "chip": "ym2612"
    },
    {
      "channel": 0,
      "note": 50,
      "start": 50.8389,
      "duration": 0.141,
      "velocity": 98,
      "chip": "ym2612"
    },
    {
      "channel": 4,
      "note": 62,
      "start": 50.8397,
      "duration": 0.1488,
      "velocity": 98,
      "chip": "ym2612"
    },
    {
      "channel": 0,
      "note": 43,
      "start": 50.9801,
      "duration": 0.2457,
      "velocity": 121,
      "chip": "ym2612"
    },
    {
      "channel": 1,
      "note": 62,
      "start": 50.9822,
      "duration": 0.1212,
      "velocity": 121,
      "chip": "ym2612"
    },
    {
      "channel": 2,
      "note": 57,
      "start": 50.9844,
      "duration": 0.5869,
      "velocity": 102,
      "chip": "ym2612"
    },
    {
      "channel": 3,
      "note": 57,
      "start": 50.9866,
      "duration": 0.5868,
      "velocity": 102,
      "chip": "ym2612"
    },
    {
      "channel": 4,
      "note": 31,
      "start": 50.9887,
      "duration": 0.4692,
      "velocity": 121,
      "chip": "ym2612"
    },
    {
      "channel": 1,
      "note": 65,
      "start": 51.1037,
      "duration": 0.1227,
      "velocity": 121,
      "chip": "ym2612"
    },
    {
      "channel": 0,
      "note": 62,
      "start": 51.226,
      "duration": 0.108,
      "velocity": 121,
      "chip": "ym2612"
    },
    {
      "channel": 1,
      "note": 67,
      "start": 51.2266,
      "duration": 0.108,
      "velocity": 121,
      "chip": "ym2612"
    },
    {
      "channel": 0,
      "note": 65,
      "start": 51.3342,
      "duration": 0.1214,
      "velocity": 121,
      "chip": "ym2612"
    },
    {
      "channel": 1,
      "note": 72,
      "start": 51.3347,
      "duration": 0.3568,
      "velocity": 121,
      "chip": "ym2612"
    },
    {
      "channel": 0,
      "note": 67,
      "start": 51.4557,
      "duration": 0.1134,
      "velocity": 121,
      "chip": "ym2612"
    },
    {
      "channel": 4,
      "note": 62,
      "start": 51.458,
      "duration": 0.1159,
      "velocity": 121,
      "chip": "ym2612"
    },
    {
      "channel": 0,
      "note": 72,
      "start": 51.5692,
      "duration": 0.3841,
      "velocity": 121,
      "chip": "ym2612"
    },
    {
      "channel": 2,
      "note": 86,
      "start": 51.5714,
      "duration": 0.1207,
      "velocity": 102,
      "chip": "ym2612"
    },
    {
      "channel": 3,
      "note": 82,
      "start": 51.5736,
      "duration": 0.119,
      "velocity": 102,
      "chip": "ym2612"
    },
    {
      "channel": 4,
      "note": 65,
      "start": 51.5741,
      "duration": 0.119,
      "velocity": 121,
      "chip": "ym2612"
    },
    {
      "channel": 1,
      "note": 73,
      "start": 51.6917,
      "duration": 0.0607,
      "velocity": 121,
      "chip": "ym2612"
    },
    {
      "channel": 2,
      "note": 84,
      "start": 51.6922,
      "duration": 0.1211,
      "velocity": 102,
      "chip": "ym2612"
    },
    {
      "channel": 3,
      "note": 81,
      "start": 51.6928,
      "duration": 0.121,
      "velocity": 102,
      "chip": "ym2612"
    },
    {
      "channel": 4,
      "note": 67,
      "start": 51.6934,
      "duration": 0.121,
      "velocity": 121,
      "chip": "ym2612"
    },
    {
      "channel": 1,
      "note": 74,
      "start": 51.7526,
      "duration": 0.3252,
      "velocity": 121,
      "chip": "ym2612"
    },
    {
      "channel": 2,
      "note": 86,
      "start": 51.8134,
      "duration": 0.1412,
      "velocity": 102,
      "chip": "ym2612"
    },
    {
      "channel": 3,
      "note": 82,
      "start": 51.814,
      "duration": 0.1409,
      "velocity": 102,
      "chip": "ym2612"
    },
    {
      "channel": 4,
      "note": 72,
      "start": 51.8146,
      "duration": 0.3778,
      "velocity": 121,
      "chip": "ym2612"
    },
    {
      "channel": 0,
      "note": 73,
      "start": 51.9535,
      "duration": 0.0615,
      "velocity": 121,
      "chip": "ym2612"
    },
    {
      "channel": 2,
      "note": 85,
      "start": 51.9547,
      "duration": 0.0109,
      "velocity": 102,
      "chip": "ym2612"
    },
    {
      "channel": 3,
      "note": 81,
      "start": 51.9549,
      "duration": 0.0109,
      "velocity": 102,
      "chip": "ym2612"
    },
    {
      "channel": 2,
      "note": 85,
      "start": 51.9656,
      "duration": 0.0244,
      "velocity": 102,
      "chip": "ym2612"
    },
    {
      "channel": 3,
      "note": 80,
      "start": 51.9658,
      "duration": 0.0245,
      "velocity": 102,
      "chip": "ym2612"
    },
    {
      "channel": 2,
      "note": 84,
      "start": 51.99,
      "duration": 0.0123,
      "velocity": 102,
      "chip": "ym2612"
    },
    {
      "channel": 3,
      "note": 80,
      "start": 51.9903,
      "duration": 0.0123,
      "velocity": 102,
      "chip": "ym2612"
    },
    {
      "channel": 2,
      "note": 83,
      "start": 52.0023,
      "duration": 0.0134,
      "velocity": 102,
      "chip": "ym2612"
    },
    {
      "channel": 3,
      "note": 79,
      "start": 52.0027,
      "duration": 0.0134,
      "velocity": 102,
      "chip": "ym2612"
    },
    {
      "channel": 0,
      "note": 74,
      "start": 52.0151,
      "duration": 0.2952,
      "velocity": 121,
      "chip": "ym2612"
    },
    {
      "channel": 2,
      "note": 82,
      "start": 52.0158,
      "duration": 0.0114,
      "velocity": 102,
      "chip": "ym2612"
    },
    {
      "channel": 3,
      "note": 79,
      "start": 52.0161,
      "duration": 0.0114,
      "velocity": 102,
      "chip": "ym2612"
    },
    {
      "channel": 2,
      "note": 82,
      "start": 52.0272,
      "duration": 0.0124,
      "velocity": 102,
      "chip": "ym2612"
    },
    {
      "channel": 3,
      "note": 78,
      "start": 52.0274,
      "duration": 0.0124,
      "velocity": 102,
      "chip": "ym2612"
    },
    {
      "channel": 2,
      "note": 81,
      "start": 52.0396,
      "duration": 0.0249,
      "velocity": 102,
      "chip": "ym2612"
    },
    {
      "channel": 3,
      "note": 78,
      "start": 52.0399,
      "duration": 0.0249,
      "velocity": 102,
      "chip": "ym2612"
    },
    {
      "channel": 2,
      "note": 80,
      "start": 52.0645,
      "duration": 0.0139,
      "velocity": 102,
      "chip": "ym2612"
    },
    {
      "channel": 3,
      "note": 77,
      "start": 52.0648,
      "duration": 0.0142,
      "velocity": 102,
      "chip": "ym2612"
    },
    {
      "channel": 1,
      "note": 70,
      "start": 52.078,
      "duration": 0.1094,
      "velocity": 121,
      "chip": "ym2612"
    },
    {
      "channel": 2,
      "note": 74,
      "start": 52.0786,
      "duration": 0.111,
      "velocity": 1,
      "chip": "ym2612"
    },
    {
      "channel": 3,
      "note": 70,
      "start": 52.0791,
      "duration": 0.1127,
      "velocity": 1,
      "chip": "ym2612"
    },
    {
      "channel": 1,
      "note": 67,
      "start": 52.1876,
      "duration": 0.1232,
      "velocity": 121,
      "chip": "ym2612"
    },
    {
      "channel": 2,
      "note": 69,
      "start": 52.1898,
      "duration": 1.3256,
      "velocity": 102,
      "chip": "ym2612"
    },
    {
      "channel": 3,
      "note": 69,
      "start": 52.192,
      "duration": 1.3256,
      "velocity": 102,
      "chip": "ym2612"
    },
    {
      "channel": 4,
      "note": 73,
      "start": 52.1925,
      "duration": 0.0573,
      "velocity": 121,
      "chip": "ym2612"
    },
    {
      "channel": 4,
      "note": 74,
      "start": 52.25,
      "duration": 0.2914,
      "velocity": 121,
      "chip": "ym2612"
    },
    {
      "channel": 0,
      "note": 70,
      "start": 52.3104,
      "duration": 0.1209,
      "velocity": 121,
      "chip": "ym2612"
    },
    {
      "channel": 1,
      "note": 65,
      "start": 52.311,
      "duration": 0.0597,
      "velocity": 121,
      "chip": "ym2612"
    },
    {
      "channel": 1,
      "note": 67,
      "start": 52.3709,
      "duration": 0.6776,
      "velocity": 121,
      "chip": "ym2612"
    },
    {
      "channel": 0,
      "note": 67,
      "start": 52.4314,
      "duration": 0.1093,
      "velocity": 121,
      "chip": "ym2612"
    },
    {
      "channel": 0,
      "note": 65,
      "start": 52.5409,
      "duration": 0.0604,
      "velocity": 121,
      "chip": "ym2612"
    },
    {
      "channel": 4,
      "note": 70,
      "start": 52.5416,
      "duration": 0.1212,
      "velocity": 121,
      "chip": "ym2612"
    },
    {
      "channel": 0,
      "note": 67,
      "start": 52.6014,
      "duration": 0.6759,
      "velocity": 121,
      "chip": "ym2612"
    },
    {
      "channel": 4,
      "note": 67,
      "start": 52.663,
      "duration": 0.109,
      "velocity": 121,
      "chip": "ym2612"
    },
    {
      "channel": 4,
      "note": 65,
      "start": 52.7722,
      "duration": 0.0703,
      "velocity": 121,
      "chip": "ym2612"
    },
    {
      "channel": 4,
      "note": 67,
      "start": 52.8427,
      "duration": 0.6754,
      "velocity": 121,
      "chip": "ym2612"
    },
    {
      "channel": 1,
      "note": 62,
      "start": 53.0485,
      "duration": 0.1076,
      "velocity": 121,
      "chip": "ym2612"
    },
    {
      "channel": 1,
      "note": 65,
      "start": 53.1562,
      "duration": 0.1217,
      "velocity": 121,
      "chip": "ym2612"
    },
    {
      "channel": 0,
      "note": 62,
      "start": 53.2775,
      "duration": 0.1086,
      "velocity": 121,
      "chip": "ym2612"
    },
    {
      "channel": 1,
      "note": 73,
      "start": 53.2781,
      "duration": 0.1086,
      "velocity": 121,
      "chip": "ym2612"
    },
    {
      "channel": 0,
      "note": 65,
      "start": 53.3863,
      "duration": 0.1263,
      "velocity": 121,
      "chip": "ym2612"
    },
    {
      "channel": 1,
      "note": 72,
      "start": 53.3869,
      "duration": 0.1264,
      "velocity": 121,
      "chip": "ym2612"
    },
    {
      "channel": 0,
      "note": 73,
      "start": 53.5129,
      "duration": 0.1232,
      "velocity": 121,
      "chip": "ym2612"
    },
    {
      "channel": 1,
      "note": 70,
      "start": 53.5134,
      "duration": 0.0615,
      "velocity": 121,
      "chip": "ym2612"
    },
    {
      "channel": 2,
      "note": 86,
      "start": 53.5156,
      "duration": 0.1216,
      "velocity": 102,
      "chip": "ym2612"
    },
    {
      "channel": 3,
      "note": 82,
      "start": 53.5177,
      "duration": 0.12,
      "velocity": 102,
      "chip": "ym2612"
    },
    {
      "channel": 4,
      "note": 62,
      "start": 53.5183,
      "duration": 0.12,
      "velocity": 121,
      "chip": "ym2612"
    },
    {
      "channel": 1,
      "note": 67,
      "start": 53.575,
      "duration": 0.0616,
      "velocity": 121,
      "chip": "ym2612"
    },
    {
      "channel": 0,
      "note": 72,
      "start": 53.6362,
      "duration": 0.1097,
      "velocity": 121,
      "chip": "ym2612"
    },
    {
      "channel": 1,
      "note": 65,
      "start": 53.6368,
      "duration": 0.0486,
      "velocity": 121,
      "chip": "ym2612"
    },
    {
      "channel": 2,
      "note": 84,
      "start": 53.6373,
      "duration": 0.1097,
      "velocity": 102,
      "chip": "ym2612"
    },
    {
      "channel": 3,
      "note": 81,
      "start": 53.6379,
      "duration": 0.1097,
      "velocity": 102,
      "chip": "ym2612"
    },
    {
      "channel": 4,
      "note": 65,
      "start": 53.6385,
      "duration": 0.1097,
      "velocity": 121,
      "chip": "ym2612"
    },
    {
      "channel": 1,
      "note": 62,
      "start": 53.6856,
      "duration": 0.0609,
      "velocity": 121,
      "chip": "ym2612"
    },
    {
      "channel": 0,
      "note": 70,
      "start": 53.7461,
      "duration": 0.0688,
      "velocity": 121,
      "chip": "ym2612"
    },
    {
      "channel": 1,
      "note": 61,
      "start": 53.7466,
      "duration": 0.0688,
      "velocity": 121,
      "chip": "ym2612"
    },
    {
      "channel": 2,
      "note": 86,
      "start": 53.7472,
      "duration": 0.1534,
      "velocity": 102,
      "chip": "ym2612"
    },
    {
      "channel": 3,
      "note": 82,
      "start": 53.7478,
      "duration": 0.1531,
      "velocity": 102,
      "chip": "ym2612"
    },
    {
      "channel": 4,
      "note": 73,
      "start": 53.7484,
      "duration": 0.1513,
      "velocity": 121,
      "chip": "ym2612"
    },
    {
      "channel": 0,
      "note": 67,
      "start": 53.815,
      "duration": 0.0832,
      "velocity": 121,
      "chip": "ym2612"
    },
    {
      "channel": 1,
      "note": 60,
      "start": 53.8156,
      "duration": 0.0832,
      "velocity": 121,
      "chip": "ym2612"
    },
    {
      "channel": 0,
      "note": 65,
      "start": 53.8984,
      "duration": 0.0616,
      "velocity": 121,
      "chip": "ym2612"
    },
    {
      "channel": 1,
      "note": 58,
      "start": 53.8989,
      "duration": 0.0617,
      "velocity": 121,
      "chip": "ym2612"
    },
    {
      "channel": 4,
      "note": 72,
      "start": 53.8998,
      "duration": 0.1122,
      "velocity": 121,
      "chip": "ym2612"
    },
    {
      "channel": 2,
      "note": 85,
      "start": 53.9006,
      "duration": 0.0102,
      "velocity": 102,
      "chip": "ym2612"
    },
    {
      "channel": 3,
      "note": 81,
      "start": 53.9009,
      "duration": 0.0102,
      "velocity": 102,
      "chip": "ym2612"
    },
    {
      "channel": 2,
      "note": 85,
      "start": 53.9108,
      "duration": 0.0121,
      "velocity": 102,
      "chip": "ym2612"
    },
    {
      "channel": 3,
      "note": 80,
      "start": 53.9111,
      "duration": 0.0122,
      "velocity": 102,
      "chip": "ym2612"
    },
    {
      "channel": 2,
      "note": 84,
      "start": 53.9229,
      "duration": 0.0123,
      "velocity": 102,
      "chip": "ym2612"
    },
    {
      "channel": 3,
      "note": 80,
      "start": 53.9232,
      "duration": 0.0123,
      "velocity": 102,
      "chip": "ym2612"
    },
    {
      "channel": 2,
      "note": 83,
      "start": 53.9352,
      "duration": 0.0262,
      "velocity": 102,
      "chip": "ym2612"
    },
    {
      "channel": 3,
      "note": 79,
      "start": 53.9355,
      "duration": 0.0262,
      "velocity": 102,
      "chip": "ym2612"
    },
    {
      "channel": 0,
      "note": 62,
      "start": 53.9602,
      "duration": 0.0496,
      "velocity": 121,
      "chip": "ym2612"
    },
    {
      "channel": 1,
      "note": 60,
      "start": 53.9608,
      "duration": 0.0496,
      "velocity": 121,
      "chip": "ym2612"
    },
    {
      "channel": 2,
      "note": 82,
      "start": 53.9614,
      "duration": 0.0112,
      "velocity": 102,
      "chip": "ym2612"
    },
    {
      "channel": 3,
      "note": 79,
      "start": 53.9617,
      "duration": 0.0112,
      "velocity": 102,
      "chip": "ym2612"
    },
    {
      "channel": 2,
      "note": 82,
      "start": 53.9726,
      "duration": 0.0122,
      "velocity": 102,
      "chip": "ym2612"
    },
    {
      "channel": 3,
      "note": 78,
      "start": 53.9729,
      "duration": 0.0121,
      "velocity": 102,
      "chip": "ym2612"
    },
    {
      "channel": 2,
      "note": 81,
      "start": 53.9848,
      "duration": 0.0122,
      "velocity": 102,
      "chip": "ym2612"
    },
    {
      "channel": 3,
      "note": 78,
      "start": 53.985,
      "duration": 0.0122,
      "velocity": 102,
      "chip": "ym2612"
    },
    {
      "channel": 2,
      "note": 80,
      "start": 53.9969,
      "duration": 0.0141,
      "velocity": 102,
      "chip": "ym2612"
    },
    {
      "channel": 3,
      "note": 77,
      "start": 53.9972,
      "duration": 0.0143,
      "velocity": 102,
      "chip": "ym2612"
    },
    {
      "channel": 0,
      "note": 61,
      "start": 54.01,
      "duration": 0.0608,
      "velocity": 121,
      "chip": "ym2612"
    },
    {
      "channel": 1,
      "note": 61,
      "start": 54.0106,
      "duration": 0.0608,
      "velocity": 121,
      "chip": "ym2612"
    },
    {
      "channel": 2,
      "note": 89,
      "start": 54.0111,
      "duration": 0.1234,
      "velocity": 1,
      "chip": "ym2612"
    },
    {
      "channel": 3,
      "note": 85,
      "start": 54.0117,
      "duration": 0.125,
      "velocity": 1,
      "chip": "ym2612"
    },
    {
      "channel": 4,
      "note": 70,
      "start": 54.0122,
      "duration": 0.0598,
      "velocity": 121,
      "chip": "ym2612"
    },
    {
      "channel": 0,
      "note": 60,
      "start": 54.071,
      "duration": 0.0608,
      "velocity": 121,
      "chip": "ym2612"
    },
    {
      "channel": 1,
      "note": 62,
      "start": 54.0715,
      "duration": 0.0608,
      "velocity": 121,
      "chip": "ym2612"
    },
    {
      "channel": 4,
      "note": 67,
      "start": 54.0722,
      "duration": 0.065,
      "velocity": 121,
      "chip": "ym2612"
    },
    {
      "channel": 0,
      "note": 58,
      "start": 54.132,
      "duration": 0.0615,
      "velocity": 121,
      "chip": "ym2612"
    },
    {
      "channel": 1,
      "note": 65,
      "start": 54.1326,
      "duration": 0.0616,
      "velocity": 121,
      "chip": "ym2612"
    },
    {
      "channel": 2,
      "note": 93,
      "start": 54.1347,
      "duration": 0.1226,
      "velocity": 102,
      "chip": "ym2612"
    },
    {
      "channel": 3,
      "note": 93,
      "start": 54.1369,
      "duration": 0.1225,
      "velocity": 102,
      "chip": "ym2612"
    },
    {
      "channel": 4,
      "note": 65,
      "start": 54.1374,
      "duration": 0.0574,
      "velocity": 121,
      "chip": "ym2612"
    },
    {
      "channel": 0,
      "note": 60,
      "start": 54.1937,
      "duration": 0.0608,
      "velocity": 121,
      "chip": "ym2612"
    },
    {
      "channel": 1,
      "note": 67,
      "start": 54.1942,
      "duration": 0.0609,
      "velocity": 121,
      "chip": "ym2612"
    },
    {
      "channel": 4,
      "note": 62,
      "start": 54.1949,
      "duration": 0.0651,
      "velocity": 121,
      "chip": "ym2612"
    },
    {
      "channel": 0,
      "note": 61,
      "start": 54.2547,
      "duration": 0.0492,
      "velocity": 121,
      "chip": "ym2612"
    },
    {
      "channel": 1,
      "note": 70,
      "start": 54.2553,
      "duration": 0.0493,
      "velocity": 121,
      "chip": "ym2612"
    },
    {
      "channel": 2,
      "note": 92,
      "start": 54.2574,
      "duration": 0.6201,
      "velocity": 1,
      "chip": "ym2612"
    },
    {
      "channel": 3,
      "note": 88,
      "start": 54.2596,
      "duration": 0.62,
      "velocity": 1,
      "chip": "ym2612"
    },
    {
      "channel": 4,
      "note": 61,
      "start": 54.2601,
      "duration": 0.0451,
      "velocity": 121,
      "chip": "ym2612"
    },
    {
      "channel": 0,
      "note": 62,
      "start": 54.3042,
      "duration": 0.0607,
      "velocity": 121,
      "chip": "ym2612"
    },
    {
      "channel": 1,
      "note": 72,
      "start": 54.3047,
      "duration": 0.0607,
      "velocity": 121,
      "chip": "ym2612"
    },
    {
      "channel": 4,
      "note": 60,
      "start": 54.3054,
      "duration": 0.0608,
      "velocity": 121,
      "chip": "ym2612"
    },
    {
      "channel": 0,
      "note": 65,
      "start": 54.3651,
      "duration": 0.0602,
      "velocity": 121,
      "chip": "ym2612"
    },
    {
      "channel": 1,
      "note": 73,
      "start": 54.3656,
      "duration": 0.1206,
      "velocity": 121,
      "chip": "ym2612"
    },
    {
      "channel": 4,
      "note": 58,
      "start": 54.3663,
      "duration": 0.0597,
      "velocity": 121,
      "chip": "ym2612"
    },
    {
      "channel": 0,
      "note": 67,
      "start": 54.4254,
      "duration": 0.0602,
      "velocity": 121,
      "chip": "ym2612"
    },
    {
      "channel": 4,
      "note": 60,
      "start": 54.4262,
      "duration": 0.0638,
      "velocity": 121,
      "chip": "ym2612"
    },
    {
      "channel": 0,
      "note": 70,
      "start": 54.4858,
      "duration": 0.0617,
      "velocity": 121,
      "chip": "ym2612"
    },
    {
      "channel": 1,
      "note": 72,
      "start": 54.4864,
      "duration": 0.1104,
      "velocity": 121,
      "chip": "ym2612"
    },
    {
      "channel": 4,
      "note": 61,
      "start": 54.4902,
      "duration": 0.058,
      "velocity": 121,
      "chip": "ym2612"
    },
    {
      "channel": 0,
      "note": 72,
      "start": 54.5477,
      "duration": 0.0485,
      "velocity": 121,
      "chip": "ym2612"
    },
    {
      "channel": 4,
      "note": 62,
      "start": 54.5484,
      "duration": 0.049,
      "velocity": 121,
      "chip": "ym2612"
    },
    {
      "channel": 0,
      "note": 73,
      "start": 54.5963,
      "duration": 0.1211,
      "velocity": 121,
      "chip": "ym2612"
    },
    {
      "channel": 1,
      "note": 70,
      "start": 54.5969,
      "duration": 0.1211,
      "velocity": 121,
      "chip": "ym2612"
    },
    {
      "channel": 4,
      "note": 65,
      "start": 54.5976,
      "duration": 0.0598,
      "velocity": 121,
      "chip": "ym2612"
    },
    {
      "channel": 4,
      "note": 67,
      "start": 54.6575,
      "duration": 0.0612,
      "velocity": 121,
      "chip": "ym2612"
    },
    {
      "channel": 0,
      "note": 72,
      "start": 54.7177,
      "duration": 0.157,
      "velocity": 121,
      "chip": "ym2612"
    },
    {
      "channel": 1,
      "note": 65,
      "start": 54.7182,
      "duration": 0.1572,
      "velocity": 121,
      "chip": "ym2612"
    },
    {
      "channel": 4,
      "note": 70,
      "start": 54.7189,
      "duration": 0.0726,
      "velocity": 121,
      "chip": "ym2612"
    },
    {
      "channel": 4,
      "note": 72,
      "start": 54.7917,
      "duration": 0.0885,
      "velocity": 121,
      "chip": "ym2612"
    },
    {
      "channel": 0,
      "note": 73,
      "start": 54.8749,
      "duration": 0.1101,
      "velocity": 121,
      "chip": "ym2612"
    },
    {
      "channel": 1,
      "note": 67,
      "start": 54.8755,
      "duration": 0.049,
      "velocity": 121,
      "chip": "ym2612"
    },
    {
      "channel": 2,
      "note": 57,
      "start": 54.8776,
      "duration": 0.5941,
      "velocity": 102,
      "chip": "ym2612"
    },
    {
      "channel": 3,
      "note": 57,
      "start": 54.8798,
      "duration": 0.5941,
      "velocity": 102,
      "chip": "ym2612"
    },
    {
      "channel": 4,
      "note": 65,
      "start": 54.8804,
      "duration": 0.0446,
      "velocity": 121,
      "chip": "ym2612"
    },
    {
      "channel": 1,
      "note": 70,
      "start": 54.9246,
      "duration": 0.061,
      "velocity": 121,
      "chip": "ym2612"
    },
    {
      "channel": 4,
      "note": 67,
      "start": 54.9252,
      "duration": 0.061,
      "velocity": 121,
      "chip": "ym2612"
    },
    {
      "channel": 0,
      "note": 72,
      "start": 54.9852,
      "duration": 0.1222,
      "velocity": 121,
      "chip": "ym2612"
    },
    {
      "channel": 1,
      "note": 72,
      "start": 54.9857,
      "duration": 0.0604,
      "velocity": 121,
      "chip": "ym2612"
    },
    {
      "channel": 4,
      "note": 70,
      "start": 54.9864,
      "duration": 0.0604,
      "velocity": 121,
      "chip": "ym2612"
    },
    {
      "channel": 1,
      "note": 67,
      "start": 55.0463,
      "duration": 0.0617,
      "velocity": 121,
      "chip": "ym2612"
    },
    {
      "channel": 4,
      "note": 72,
      "start": 55.047,
      "duration": 0.0616,
      "velocity": 121,
      "chip": "ym2612"
    },
    {
      "channel": 0,
      "note": 67,
      "start": 55.1076,
      "duration": 0.0606,
      "velocity": 121,
      "chip": "ym2612"
    },
    {
      "channel": 1,
      "note": 70,
      "start": 55.1081,
      "duration": 0.0607,
      "velocity": 121,
      "chip": "ym2612"
    },
    {
      "channel": 4,
      "note": 73,
      "start": 55.1088,
      "duration": 0.1098,
      "velocity": 121,
      "chip": "ym2612"
    },
    {
      "channel": 0,
      "note": 70,
      "start": 55.1684,
      "duration": 0.0489,
      "velocity": 121,
      "chip": "ym2612"
    },
    {
      "channel": 1,
      "note": 72,
      "start": 55.1689,
      "duration": 0.049,
      "velocity": 121,
      "chip": "ym2612"
    },
    {
      "channel": 0,
      "note": 72,
      "start": 55.2175,
      "duration": 0.0604,
      "velocity": 121,
      "chip": "ym2612"
    },
    {
      "channel": 1,
      "note": 67,
      "start": 55.218,
      "duration": 0.0604,
      "velocity": 121,
      "chip": "ym2612"
    },
    {
      "channel": 4,
      "note": 72,
      "start": 55.2187,
      "duration": 0.121,
      "velocity": 121,
      "chip": "ym2612"
    },
    {
      "channel": 0,
      "note": 67,
      "start": 55.278,
      "duration": 0.0605,
      "velocity": 121,
      "chip": "ym2612"
    },
    {
      "channel": 1,
      "note": 70,
      "start": 55.2786,
      "duration": 0.0605,
      "velocity": 121,
      "chip": "ym2612"
    },
    {
      "channel": 0,
      "note": 70,
      "start": 55.3387,
      "duration": 0.0607,
      "velocity": 121,
      "chip": "ym2612"
    },
    {
      "channel": 1,
      "note": 72,
      "start": 55.3392,
      "duration": 0.0607,
      "velocity": 121,
      "chip": "ym2612"
    },
    {
      "channel": 4,
      "note": 67,
      "start": 55.3399,
      "duration": 0.0639,
      "velocity": 121,
      "chip": "ym2612"
    },
    {
      "channel": 0,
      "note": 72,
      "start": 55.3996,
      "duration": 0.0694,
      "velocity": 121,
      "chip": "ym2612"
    },
    {
      "channel": 1,
      "note": 73,
      "start": 55.4001,
      "duration": 0.0695,
      "velocity": 121,
      "chip": "ym2612"
    },
    {
      "channel": 4,
      "note": 70,
      "start": 55.4039,
      "duration": 0.0705,
      "velocity": 121,
      "chip": "ym2612"
    },
    {
      "channel": 0,
      "note": 67,
      "start": 55.4692,
      "duration": 0.0498,
      "velocity": 121,
      "chip": "ym2612"
    },
    {
      "channel": 1,
      "note": 74,
      "start": 55.4697,
      "duration": 0.0498,
      "velocity": 121,
      "chip": "ym2612"
    },
    {
      "channel": 2,
      "note": 86,
      "start": 55.4719,
      "duration": 0.1091,
      "velocity": 102,
      "chip": "ym2612"
    },
    {
      "channel": 3,
      "note": 82,
      "start": 55.474,
      "duration": 0.1075,
      "velocity": 102,
      "chip": "ym2612"
    },
    {
      "channel": 4,
      "note": 72,
      "start": 55.4746,
      "duration": 0.0456,
      "velocity": 121,
      "chip": "ym2612"
    },
    {
      "channel": 0,
      "note": 70,
      "start": 55.5192,
      "duration": 0.0607,
      "velocity": 121,
      "chip": "ym2612"
    },
    {
      "channel": 1,
      "note": 72,
      "start": 55.5197,
      "duration": 0.0607,
      "velocity": 121,
      "chip": "ym2612"
    },
    {
      "channel": 4,
      "note": 67,
      "start": 55.5204,
      "duration": 0.0617,
      "velocity": 121,
      "chip": "ym2612"
    },
    {
      "channel": 0,
      "note": 72,
      "start": 55.58,
      "duration": 0.0607,
      "velocity": 121,
      "chip": "ym2612"
    },
    {
      "channel": 1,
      "note": 73,
      "start": 55.5806,
      "duration": 0.0607,
      "velocity": 121,
      "chip": "ym2612"
    },
    {
      "channel": 2,
      "note": 84,
      "start": 55.5811,
      "duration": 0.1211,
      "velocity": 102,
      "chip": "ym2612"
    },
    {
      "channel": 3,
      "note": 81,
      "start": 55.5817,
      "duration": 0.1211,
      "velocity": 102,
      "chip": "ym2612"
    },
    {
      "channel": 4,
      "note": 70,
      "start": 55.5822,
      "duration": 0.0597,
      "velocity": 121,
      "chip": "ym2612"
    },
    {
      "channel": 0,
      "note": 73,
      "start": 55.6409,
      "duration": 0.0603,
      "velocity": 121,
      "chip": "ym2612"
    },
    {
      "channel": 1,
      "note": 74,
      "start": 55.6414,
      "duration": 0.0604,
      "velocity": 121,
      "chip": "ym2612"
    },
    {
      "channel": 4,
      "note": 72,
      "start": 55.6421,
      "duration": 0.0613,
      "velocity": 121,
      "chip": "ym2612"
    },
    {
      "channel": 0,
      "note": 74,
      "start": 55.7014,
      "duration": 0.0734,
      "velocity": 121,
      "chip": "ym2612"
    },
    {
      "channel": 1,
      "note": 77,
      "start": 55.7019,
      "duration": 0.0735,
      "velocity": 121,
      "chip": "ym2612"
    },
    {
      "channel": 2,
      "note": 86,
      "start": 55.7024,
      "duration": 0.1417,
      "velocity": 102,
      "chip": "ym2612"
    },
    {
      "channel": 3,
      "note": 82,
      "start": 55.703,
      "duration": 0.1414,
      "velocity": 102,
      "chip": "ym2612"
    },
    {
      "channel": 4,
      "note": 67,
      "start": 55.7036,
      "duration": 0.0724,
      "velocity": 121,
      "chip": "ym2612"
    },
    {
      "channel": 0,
      "note": 72,
      "start": 55.775,
      "duration": 0.0665,
      "velocity": 121,
      "chip": "ym2612"
    },
    {
      "channel": 1,
      "note": 79,
      "start": 55.7755,
      "duration": 0.0666,
      "velocity": 121,
      "chip": "ym2612"
    },
    {
      "channel": 4,
      "note": 70,
      "start": 55.7762,
      "duration": 0.0668,
      "velocity": 121,
      "chip": "ym2612"
    },
    {
      "channel": 0,
      "note": 73,
      "start": 55.8417,
      "duration": 0.0622,
      "velocity": 121,
      "chip": "ym2612"
    },
    {
      "channel": 1,
      "note": 77,
      "start": 55.8423,
      "duration": 0.0016,
      "velocity": 121,
      "chip": "ym2612"
    },
    {
      "channel": 4,
      "note": 72,
      "start": 55.8432,
      "duration": 0.062,
      "velocity": 121,
      "chip": "ym2612"
    },
    {
      "channel": 1,
      "note": 77,
      "start": 55.8439,
      "duration": 0.0228,
      "velocity": 121,
      "chip": "ym2612"
    },
    {
      "channel": 2,
      "note": 85,
      "start": 55.8441,
      "duration": 0.0228,
      "velocity": 102,
      "chip": "ym2612"
    },
    {
      "channel": 3,
      "note": 81,
      "start": 55.8444,
      "duration": 0.0228,
      "velocity": 102,
      "chip": "ym2612"
    },
    {
      "channel": 1,
      "note": 78,
      "start": 55.8667,
      "duration": 0.0124,
      "velocity": 121,
      "chip": "ym2612"
    },
    {
      "channel": 2,
      "note": 85,
      "start": 55.8669,
      "duration": 0.0124,
      "velocity": 102,
      "chip": "ym2612"
    },
    {
      "channel": 3,
      "note": 80,
      "start": 55.8673,
      "duration": 0.0124,
      "velocity": 102,
      "chip": "ym2612"
    },
    {
      "channel": 1,
      "note": 78,
      "start": 55.8791,
      "duration": 0.0122,
      "velocity": 121,
      "chip": "ym2612"
    },
    {
      "channel": 2,
      "note": 84,
      "start": 55.8793,
      "duration": 0.0122,
      "velocity": 102,
      "chip": "ym2612"
    },
    {
      "channel": 3,
      "note": 80,
      "start": 55.8796,
      "duration": 0.0122,
      "velocity": 102,
      "chip": "ym2612"
    },
    {
      "channel": 1,
      "note": 78,
      "start": 55.8913,
      "duration": 0.0131,
      "velocity": 121,
      "chip": "ym2612"
    },
    {
      "channel": 2,
      "note": 83,
      "start": 55.8916,
      "duration": 0.0142,
      "velocity": 102,
      "chip": "ym2612"
    },
    {
      "channel": 3,
      "note": 79,
      "start": 55.8919,
      "duration": 0.0141,
      "velocity": 102,
      "chip": "ym2612"
    },
    {
      "channel": 0,
      "note": 74,
      "start": 55.9041,
      "duration": 0.0605,
      "velocity": 121,
      "chip": "ym2612"
    },
    {
      "channel": 1,
      "note": 79,
      "start": 55.9046,
      "duration": 0.1821,
      "velocity": 121,
      "chip": "ym2612"
    },
    {
      "channel": 4,
      "note": 73,
      "start": 55.9053,
      "duration": 0.061,
      "velocity": 121,
      "chip": "ym2612"
    },
    {
      "channel": 2,
      "note": 82,
      "start": 55.9058,
      "duration": 0.0104,
      "velocity": 102,
      "chip": "ym2612"
    },
    {
      "channel": 3,
      "note": 79,
      "start": 55.906,
      "duration": 0.0104,
      "velocity": 102,
      "chip": "ym2612"
    },
    {
      "channel": 2,
      "note": 82,
      "start": 55.9162,
      "duration": 0.0239,
      "velocity": 102,
      "chip": "ym2612"
    },
    {
      "channel": 3,
      "note": 78,
      "start": 55.9165,
      "duration": 0.024,
      "velocity": 102,
      "chip": "ym2612"
    },
    {
      "channel": 2,
      "note": 81,
      "start": 55.9402,
      "duration": 0.0121,
      "velocity": 102,
      "chip": "ym2612"
    },
    {
      "channel": 3,
      "note": 78,
      "start": 55.9405,
      "duration": 0.0121,
      "velocity": 102,
      "chip": "ym2612"
    },
    {
      "channel": 2,
      "note": 80,
      "start": 55.9522,
      "duration": 0.0129,
      "velocity": 102,
      "chip": "ym2612"
    },
    {
      "channel": 3,
      "note": 77,
      "start": 55.9526,
      "duration": 0.0132,
      "velocity": 102,
      "chip": "ym2612"
    },
    {
      "channel": 0,
      "note": 77,
      "start": 55.9647,
      "duration": 0.0606,
      "velocity": 121,
      "chip": "ym2612"
    },
    {
      "channel": 2,
      "note": 74,
      "start": 55.9653,
      "duration": 0.1235,
      "velocity": 1,
      "chip": "ym2612"
    },
    {
      "channel": 3,
      "note": 70,
      "start": 55.9659,
      "duration": 0.1251,
      "velocity": 1,
      "chip": "ym2612"
    },
    {
      "channel": 4,
      "note": 74,
      "start": 55.9665,
      "duration": 0.0596,
      "velocity": 121,
      "chip": "ym2612"
    },
    {
      "channel": 0,
      "note": 79,
      "start": 56.0255,
      "duration": 0.0605,
      "velocity": 121,
      "chip": "ym2612"
    },
    {
      "channel": 4,
      "note": 72,
      "start": 56.0262,
      "duration": 0.0653,
      "velocity": 121,
      "chip": "ym2612"
    },
    {
      "channel": 0,
      "note": 77,
      "start": 56.0863,
      "duration": 0.0062,
      "velocity": 121,
      "chip": "ym2612"
    },
    {
      "channel": 1,
      "note": 77,
      "start": 56.0868,
      "duration": 0.0059,
      "velocity": 121,
      "chip": "ym2612"
    },
    {
      "channel": 2,
      "note": 69,
      "start": 56.089,
      "duration": 1.3134,
      "velocity": 102,
      "chip": "ym2612"
    },
    {
      "channel": 3,
      "note": 69,
      "start": 56.0912,
      "duration": 1.3134,
      "velocity": 102,
      "chip": "ym2612"
    },
    {
      "channel": 4,
      "note": 73,
      "start": 56.0917,
      "duration": 0.0466,
      "velocity": 121,
      "chip": "ym2612"
    },
    {
      "channel": 0,
      "note": 77,
      "start": 56.0924,
      "duration": 0.0073,
      "velocity": 121,
      "chip": "ym2612"
    },
    {
      "channel": 1,
      "note": 77,
      "start": 56.0927,
      "duration": 0.0074,
      "velocity": 121,
      "chip": "ym2612"
    },
    {
      "channel": 0,
      "note": 78,
      "start": 56.0997,
      "duration": 0.0126,
      "velocity": 121,
      "chip": "ym2612"
    },
    {
      "channel": 1,
      "note": 78,
      "start": 56.1,
      "duration": 0.0125,
      "velocity": 121,
      "chip": "ym2612"
    },
    {
      "channel": 0,
      "note": 78,
      "start": 56.1123,
      "duration": 0.0124,
      "velocity": 121,
      "chip": "ym2612"
    },
    {
      "channel": 1,
      "note": 78,
      "start": 56.1126,
      "duration": 0.0124,
      "velocity": 121,
      "chip": "ym2612"
    },
    {
      "channel": 0,
      "note": 78,
      "start": 56.1247,
      "duration": 0.0124,
      "velocity": 121,
      "chip": "ym2612"
    },
    {
      "channel": 1,
      "note": 78,
      "start": 56.1249,
      "duration": 0.0127,
      "velocity": 121,
      "chip": "ym2612"
    },
    {
      "channel": 0,
      "note": 79,
      "start": 56.1373,
      "duration": 0.5336,
      "velocity": 121,
      "chip": "ym2612"
    },
    {
      "channel": 1,
      "note": 79,
      "start": 56.1378,
      "duration": 0.2925,
      "velocity": 121,
      "chip": "ym2612"
    },
    {
      "channel": 4,
      "note": 74,
      "start": 56.1385,
      "duration": 0.0597,
      "velocity": 121,
      "chip": "ym2612"
    },
    {
      "channel": 4,
      "note": 77,
      "start": 56.1984,
      "duration": 0.0622,
      "velocity": 121,
      "chip": "ym2612"
    },
    {
      "channel": 4,
      "note": 79,
      "start": 56.2607,
      "duration": 0.0596,
      "velocity": 121,
      "chip": "ym2612"
    },
    {
      "channel": 4,
      "note": 77,
      "start": 56.3205,
      "duration": 0.0008,
      "velocity": 121,
      "chip": "ym2612"
    },
    {
      "channel": 4,
      "note": 77,
      "start": 56.3213,
      "duration": 0.011,
      "velocity": 121,
      "chip": "ym2612"
    },
    {
      "channel": 4,
      "note": 78,
      "start": 56.3323,
      "duration": 0.012,
      "velocity": 121,
      "chip": "ym2612"
    },
    {
      "channel": 4,
      "note": 78,
      "start": 56.3444,
      "duration": 0.0121,
      "velocity": 121,
      "chip": "ym2612"
    },
    {
      "channel": 4,
      "note": 78,
      "start": 56.3564,
      "duration": 0.0246,
      "velocity": 121,
      "chip": "ym2612"
    },
    {
      "channel": 4,
      "note": 79,
      "start": 56.3812,
      "duration": 0.5535,
      "velocity": 121,
      "chip": "ym2612"
    },
    {
      "channel": 1,
      "note": 82,
      "start": 56.4306,
      "duration": 0.1193,
      "velocity": 121,
      "chip": "ym2612"
    },
    {
      "channel": 1,
      "note": 77,
      "start": 56.55,
      "duration": 0.1213,
      "velocity": 121,
      "chip": "ym2612"
    },
    {
      "channel": 0,
      "note": 82,
      "start": 56.671,
      "duration": 0.1413,
      "velocity": 121,
      "chip": "ym2612"
    },
    {
      "channel": 1,
      "note": 73,
      "start": 56.6715,
      "duration": 0.1413,
      "velocity": 121,
      "chip": "ym2612"
    },
    {
      "channel": 0,
      "note": 77,
      "start": 56.8124,
      "duration": 0.1216,
      "velocity": 121,
      "chip": "ym2612"
    },
    {
      "channel": 1,
      "note": 72,
      "start": 56.813,
      "duration": 0.7116,
      "velocity": 121,
      "chip": "ym2612"
    },
    {
      "channel": 0,
      "note": 73,
      "start": 56.9342,
      "duration": 0.1087,
      "velocity": 121,
      "chip": "ym2612"
    },
    {
      "channel": 4,
      "note": 82,
      "start": 56.935,
      "duration": 0.1103,
      "velocity": 121,
      "chip": "ym2612"
    },
    {
      "channel": 0,
      "note": 72,
      "start": 57.0431,
      "duration": 0.7423,
      "velocity": 121,
      "chip": "ym2612"
    },
    {
      "channel": 4,
      "note": 77,
      "start": 57.0454,
      "duration": 0.1196,
      "velocity": 121,
      "chip": "ym2612"
    },
    {
      "channel": 4,
      "note": 73,
      "start": 57.1652,
      "duration": 0.1211,
      "velocity": 121,
      "chip": "ym2612"
    },
    {
      "channel": 4,
      "note": 72,
      "start": 57.2865,
      "duration": 0.7374,
      "velocity": 121,
      "chip": "ym2612"
    },
    {
      "channel": 2,
      "note": 86,
      "start": 57.4025,
      "duration": 0.1226,
      "velocity": 102,
      "chip": "ym2612"
    },
    {
      "channel": 3,
      "note": 82,
      "start": 57.4048,
      "duration": 0.1209,
      "velocity": 102,
      "chip": "ym2612"
    },
    {
      "channel": 1,
      "note": 70,
      "start": 57.5248,
      "duration": 0.1082,
      "velocity": 121,
      "chip": "ym2612"
    },
    {
      "channel": 2,
      "note": 84,
      "start": 57.5253,
      "duration": 0.1083,
      "velocity": 102,
      "chip": "ym2612"
    },
    {
      "channel": 3,
      "note": 81,
      "start": 57.5259,
      "duration": 0.1082,
      "velocity": 102,
      "chip": "ym2612"
    },
    {
      "channel": 1,
      "note": 65,
      "start": 57.6332,
      "duration": 0.1527,
      "velocity": 121,
      "chip": "ym2612"
    },
    {
      "channel": 2,
      "note": 86,
      "start": 57.6337,
      "duration": 0.1535,
      "velocity": 102,
      "chip": "ym2612"
    },
    {
      "channel": 3,
      "note": 82,
      "start": 57.6342,
      "duration": 0.1533,
      "velocity": 102,
      "chip": "ym2612"
    },
    {
      "channel": 0,
      "note": 70,
      "start": 57.7855,
      "duration": 0.1229,
      "velocity": 121,
      "chip": "ym2612"
    },
    {
      "channel": 1,
      "note": 67,
      "start": 57.7861,
      "duration": 4.848,
      "velocity": 1,
      "chip": "ym2612"
    },
    {
      "channel": 2,
      "note": 85,
      "start": 57.7872,
      "duration": 0.0103,
      "velocity": 102,
      "chip": "ym2612"
    },
    {
      "channel": 3,
      "note": 81,
      "start": 57.7875,
      "duration": 0.0104,
      "velocity": 102,
      "chip": "ym2612"
    },
    {
      "channel": 2,
      "note": 85,
      "start": 57.7975,
      "duration": 0.0123,
      "velocity": 102,
      "chip": "ym2612"
    },
    {
      "channel": 3,
      "note": 80,
      "start": 57.7978,
      "duration": 0.0122,
      "velocity": 102,
      "chip": "ym2612"
    },
    {
      "channel": 2,
      "note": 84,
      "start": 57.8098,
      "duration": 0.0246,
      "velocity": 102,
      "chip": "ym2612"
    },
    {
      "channel": 3,
      "note": 80,
      "start": 57.8101,
      "duration": 0.0246,
      "velocity": 102,
      "chip": "ym2612"
    },
    {
      "channel": 2,
      "note": 83,
      "start": 57.8344,
      "duration": 0.0244,
      "velocity": 102,
      "chip": "ym2612"
    },
    {
      "channel": 3,
      "note": 79,
      "start": 57.8347,
      "duration": 0.0244,
      "velocity": 102,
      "chip": "ym2612"
    },
    {
      "channel": 2,
      "note": 82,
      "start": 57.8588,
      "duration": 0.0121,
      "velocity": 102,
      "chip": "ym2612"
    },
    {
      "channel": 3,
      "note": 79,
      "start": 57.8591,
      "duration": 0.0121,
      "velocity": 102,
      "chip": "ym2612"
    },
    {
      "channel": 2,
      "note": 82,
      "start": 57.8709,
      "duration": 0.0121,
      "velocity": 102,
      "chip": "ym2612"
    },
    {
      "channel": 3,
      "note": 78,
      "start": 57.8712,
      "duration": 0.0121,
      "velocity": 102,
      "chip": "ym2612"
    },
    {
      "channel": 2,
      "note": 81,
      "start": 57.883,
      "duration": 0.026,
      "velocity": 102,
      "chip": "ym2612"
    },
    {
      "channel": 3,
      "note": 78,
      "start": 57.8833,
      "duration": 0.0263,
      "velocity": 102,
      "chip": "ym2612"
    },
    {
      "channel": 0,
      "note": 65,
      "start": 57.9085,
      "duration": 0.1088,
      "velocity": 121,
      "chip": "ym2612"
    },
    {
      "channel": 2,
      "note": 89,
      "start": 57.9092,
      "duration": 0.112,
      "velocity": 1,
      "chip": "ym2612"
    },
    {
      "channel": 3,
      "note": 85,
      "start": 57.9097,
      "duration": 0.1136,
      "velocity": 1,
      "chip": "ym2612"
    },
    {
      "channel": 0,
      "note": 67,
      "start": 58.0175,
      "duration": 4.6145,
      "velocity": 1,
      "chip": "ym2612"
    },
    {
      "channel": 2,
      "note": 93,
      "start": 58.0213,
      "duration": 0.1206,
      "velocity": 102,
      "chip": "ym2612"
    },
    {
      "channel": 3,
      "note": 93,
      "start": 58.0235,
      "duration": 0.1206,
      "velocity": 102,
      "chip": "ym2612"
    },
    {
      "channel": 4,
      "note": 70,
      "start": 58.0241,
      "duration": 0.1206,
      "velocity": 121,
      "chip": "ym2612"
    },
    {
      "channel": 2,
      "note": 92,
      "start": 58.1421,
      "duration": 0.6171,
      "velocity": 98,
      "chip": "ym2612"
    },
    {
      "channel": 3,
      "note": 88,
      "start": 58.1443,
      "duration": 0.6171,
      "velocity": 82,
      "chip": "ym2612"
    },
    {
      "channel": 4,
      "note": 65,
      "start": 58.1449,
      "duration": 0.107,
      "velocity": 121,
      "chip": "ym2612"
    },
    {
      "channel": 4,
      "note": 67,
      "start": 58.2521,
      "duration": 4.3854,
      "velocity": 1,
      "chip": "ym2612"
    },
    {
      "channel": 2,
      "note": 43,
      "start": 58.7594,
      "duration": 0.1091,
      "velocity": 98,
      "chip": "ym2612"
    },
    {
      "channel": 3,
      "note": 55,
      "start": 58.7616,
      "duration": 0.1076,
      "velocity": 82,
      "chip": "ym2612"
    },
    {
      "channel": 2,
      "note": 43,
      "start": 58.8688,
      "duration": 0.2425,
      "velocity": 98,
      "chip": "ym2612"
    },
    {
      "channel": 3,
      "note": 55,
      "start": 58.8693,
      "duration": 0.2441,
      "velocity": 82,
      "chip": "ym2612"
    },
    {
      "channel": 2,
      "note": 43,
      "start": 59.1115,
      "duration": 0.1093,
      "velocity": 98,
      "chip": "ym2612"
    },
    {
      "channel": 3,
      "note": 55,
      "start": 59.1137,
      "duration": 0.1077,
      "velocity": 82,
      "chip": "ym2612"
    },
    {
      "channel": 2,
      "note": 46,
      "start": 59.221,
      "duration": 0.1261,
      "velocity": 98,
      "chip": "ym2612"
    },
    {
      "channel": 3,
      "note": 58,
      "start": 59.2216,
      "duration": 0.1261,
      "velocity": 82,
      "chip": "ym2612"
    },
    {
      "channel": 2,
      "note": 48,
      "start": 59.3473,
      "duration": 0.2307,
      "velocity": 98,
      "chip": "ym2612"
    },
    {
      "channel": 3,
      "note": 60,
      "start": 59.3479,
      "duration": 0.2322,
      "velocity": 82,
      "chip": "ym2612"
    },
    {
      "channel": 2,
      "note": 43,
      "start": 59.5781,
      "duration": 0.2663,
      "velocity": 98,
      "chip": "ym2612"
    },
    {
      "channel": 3,
      "note": 55,
      "start": 59.5803,
      "duration": 0.2662,
      "velocity": 82,
      "chip": "ym2612"
    },
    {
      "channel": 2,
      "note": 31,
      "start": 59.8445,
      "duration": 0.1221,
      "velocity": 98,
      "chip": "ym2612"
    },
    {
      "channel": 3,
      "note": 43,
      "start": 59.8467,
      "duration": 0.1205,
      "velocity": 82,
      "chip": "ym2612"
    },
    {
      "channel": 2,
      "note": 43,
      "start": 59.9668,
      "duration": 0.1088,
      "velocity": 98,
      "chip": "ym2612"
    },
    {
      "channel": 3,
      "note": 55,
      "start": 59.9673,
      "duration": 0.1087,
      "velocity": 82,
      "chip": "ym2612"
    },
    {
      "channel": 2,
      "note": 38,
      "start": 60.0757,
      "duration": 0.1218,
      "velocity": 98,
      "chip": "ym2612"
    },
    {
      "channel": 3,
      "note": 50,
      "start": 60.0763,
      "duration": 0.1219,
      "velocity": 82,
      "chip": "ym2612"
    },
    {
      "channel": 2,
      "note": 46,
      "start": 60.1977,
      "duration": 0.1211,
      "velocity": 98,
      "chip": "ym2612"
    },
    {
      "channel": 3,
      "note": 58,
      "start": 60.1983,
      "duration": 0.1211,
      "velocity": 82,
      "chip": "ym2612"
    },
    {
      "channel": 2,
      "note": 48,
      "start": 60.319,
      "duration": 0.1095,
      "velocity": 98,
      "chip": "ym2612"
    },
    {
      "channel": 3,
      "note": 60,
      "start": 60.3196,
      "duration": 0.1095,
      "velocity": 82,
      "chip": "ym2612"
    },
    {
      "channel": 2,
      "note": 49,
      "start": 60.4287,
      "duration": 0.121,
      "velocity": 98,
      "chip": "ym2612"
    },
    {
      "channel": 3,
      "note": 61,
      "start": 60.4293,
      "duration": 0.1211,
      "velocity": 82,
      "chip": "ym2612"
    },
    {
      "channel": 2,
      "note": 50,
      "start": 60.55,
      "duration": 0.1407,
      "velocity": 98,
      "chip": "ym2612"
    },
    {
      "channel": 3,
      "note": 62,
      "start": 60.5505,
      "duration": 0.1407,
      "velocity": 82,
      "chip": "ym2612"
    },
    {
      "channel": 2,
      "note": 43,
      "start": 60.6908,
      "duration": 0.1216,
      "velocity": 98,
      "chip": "ym2612"
    },
    {
      "channel": 3,
      "note": 55,
      "start": 60.6914,
      "duration": 0.1216,
      "velocity": 82,
      "chip": "ym2612"
    },
    {
      "channel": 2,
      "note": 43,
      "start": 60.8127,
      "duration": 0.2298,
      "velocity": 98,
      "chip": "ym2612"
    },
    {
      "channel": 3,
      "note": 55,
      "start": 60.8132,
      "duration": 0.2314,
      "velocity": 82,
      "chip": "ym2612"
    },
    {
      "channel": 2,
      "note": 43,
      "start": 61.0426,
      "duration": 0.1217,
      "velocity": 98,
      "chip": "ym2612"
    },
    {
      "channel": 3,
      "note": 55,
      "start": 61.0448,
      "duration": 0.1201,
      "velocity": 82,
      "chip": "ym2612"
    },
    {
      "channel": 2,
      "note": 46,
      "start": 61.1645,
      "duration": 0.1139,
      "velocity": 98,
      "chip": "ym2612"
    },
    {
      "channel": 3,
      "note": 58,
      "start": 61.1651,
      "duration": 0.1139,
      "velocity": 82,
      "chip": "ym2612"
    },
    {
      "channel": 2,
      "note": 48,
      "start": 61.2786,
      "duration": 0.2427,
      "velocity": 98,
      "chip": "ym2612"
    },
    {
      "channel": 3,
      "note": 60,
      "start": 61.2792,
      "duration": 0.2443,
      "velocity": 82,
      "chip": "ym2612"
    },
    {
      "channel": 2,
      "note": 43,
      "start": 61.5215,
      "duration": 0.2626,
      "velocity": 98,
      "chip": "ym2612"
    },
    {
      "channel": 3,
      "note": 55,
      "start": 61.5236,
      "duration": 0.2625,
      "velocity": 82,
      "chip": "ym2612"
    },
    {
      "channel": 2,
      "note": 31,
      "start": 61.7842,
      "duration": 0.1097,
      "velocity": 98,
      "chip": "ym2612"
    },
    {
      "channel": 3,
      "note": 43,
      "start": 61.7863,
      "duration": 0.108,
      "velocity": 82,
      "chip": "ym2612"
    },
    {
      "channel": 2,
      "note": 43,
      "start": 61.894,
      "duration": 0.1218,
      "velocity": 98,
      "chip": "ym2612"
    },
    {
      "channel": 3,
      "note": 55,
      "start": 61.8946,
      "duration": 0.1219,
      "velocity": 82,
      "chip": "ym2612"
    },
    {
      "channel": 2,
      "note": 43,
      "start": 62.016,
      "duration": 0.1213,
      "velocity": 98,
      "chip": "ym2612"
    },
    {
      "channel": 3,
      "note": 55,
      "start": 62.0166,
      "duration": 0.1213,
      "velocity": 82,
      "chip": "ym2612"
    },
    {
      "channel": 2,
      "note": 46,
      "start": 62.1376,
      "duration": 0.1085,
      "velocity": 98,
      "chip": "ym2612"
    },
    {
      "channel": 3,
      "note": 58,
      "start": 62.1381,
      "duration": 0.1085,
      "velocity": 82,
      "chip": "ym2612"
    },
    {
      "channel": 2,
      "note": 48,
      "start": 62.2463,
      "duration": 0.121,
      "velocity": 98,
      "chip": "ym2612"
    },
    {
      "channel": 3,
      "note": 60,
      "start": 62.2468,
      "duration": 0.121,
      "velocity": 82,
      "chip": "ym2612"
    },
    {
      "channel": 2,
      "note": 49,
      "start": 62.3675,
      "duration": 0.1093,
      "velocity": 98,
      "chip": "ym2612"
    },
    {
      "channel": 3,
      "note": 61,
      "start": 62.368,
      "duration": 0.1094,
      "velocity": 82,
      "chip": "ym2612"
    },
    {
      "channel": 2,
      "note": 50,
      "start": 62.4769,
      "duration": 0.1578,
      "velocity": 98,
      "chip": "ym2612"
    },
    {
      "channel": 3,
      "note": 62,
      "start": 62.4775,
      "duration": 0.1579,
      "velocity": 82,
      "chip": "ym2612"
    },
    {
      "channel": 0,
      "note": 43,
      "start": 62.6322,
      "duration": 0.0622,
      "velocity": 100,
      "chip": "ym2612"
    },
    {
      "channel": 1,
      "note": 79,
      "start": 62.6343,
      "duration": 0.0623,
      "velocity": 100,
      "chip": "ym2612"
    },
    {
      "channel": 2,
      "note": 43,
      "start": 62.6349,
      "duration": 0.1216,
      "velocity": 98,
      "chip": "ym2612"
    },
    {
      "channel": 3,
      "note": 55,
      "start": 62.6355,
      "duration": 0.1215,
      "velocity": 82,
      "chip": "ym2612"
    },
    {
      "channel": 4,
      "note": 79,
      "start": 62.6377,
      "duration": 0.0643,
      "velocity": 117,
      "chip": "ym2612"
    },
    {
      "channel": 0,
      "note": 43,
      "start": 62.6946,
      "duration": 3.8193,
      "velocity": 98,
      "chip": "ym2612"
    },
    {
      "channel": 1,
      "note": 67,
      "start": 62.6967,
      "duration": 3.8193,
      "velocity": 103,
      "chip": "ym2612"
    },
    {
      "channel": 4,
      "note": 43,
      "start": 62.7021,
      "duration": 3.8188,
      "velocity": 1,
      "chip": "ym2612"
    },
    {
      "channel": 2,
      "note": 43,
      "start": 62.7566,
      "duration": 0.2307,
      "velocity": 98,
      "chip": "ym2612"
    },
    {
      "channel": 3,
      "note": 55,
      "start": 62.7572,
      "duration": 0.2323,
      "velocity": 82,
      "chip": "ym2612"
    },
    {
      "channel": 2,
      "note": 43,
      "start": 62.9875,
      "duration": 0.1095,
      "velocity": 98,
      "chip": "ym2612"
    },
    {
      "channel": 3,
      "note": 55,
      "start": 62.9897,
      "duration": 0.108,
      "velocity": 82,
      "chip": "ym2612"
    },
    {
      "channel": 2,
      "note": 46,
      "start": 63.0972,
      "duration": 0.1267,
      "velocity": 98,
      "chip": "ym2612"
    },
    {
      "channel": 3,
      "note": 58,
      "start": 63.0978,
      "duration": 0.1268,
      "velocity": 82,
      "chip": "ym2612"
    },
    {
      "channel": 2,
      "note": 48,
      "start": 63.2242,
      "duration": 0.2307,
      "velocity": 98,
      "chip": "ym2612"
    },
    {
      "channel": 3,
      "note": 60,
      "start": 63.2247,
      "duration": 0.2323,
      "velocity": 82,
      "chip": "ym2612"
    },
    {
      "channel": 2,
      "note": 43,
      "start": 63.455,
      "duration": 0.2614,
      "velocity": 98,
      "chip": "ym2612"
    },
    {
      "channel": 3,
      "note": 55,
      "start": 63.4572,
      "duration": 0.2614,
      "velocity": 82,
      "chip": "ym2612"
    },
    {
      "channel": 2,
      "note": 31,
      "start": 63.7166,
      "duration": 0.1222,
      "velocity": 98,
      "chip": "ym2612"
    },
    {
      "channel": 3,
      "note": 43,
      "start": 63.7187,
      "duration": 0.1206,
      "velocity": 82,
      "chip": "ym2612"
    },
    {
      "channel": 2,
      "note": 43,
      "start": 63.839,
      "duration": 0.1213,
      "velocity": 98,
      "chip": "ym2612"
    },
    {
      "channel": 3,
      "note": 55,
      "start": 63.8395,
      "duration": 0.1213,
      "velocity": 82,
      "chip": "ym2612"
    },
    {
      "channel": 2,
      "note": 38,
      "start": 63.9604,
      "duration": 0.1093,
      "velocity": 98,
      "chip": "ym2612"
    },
    {
      "channel": 3,
      "note": 50,
      "start": 63.961,
      "duration": 0.1093,
      "velocity": 82,
      "chip": "ym2612"
    },
    {
      "channel": 2,
      "note": 46,
      "start": 64.0699,
      "duration": 0.1205,
      "velocity": 98,
      "chip": "ym2612"
    },
    {
      "channel": 3,
      "note": 58,
      "start": 64.0704,
      "duration": 0.1205,
      "velocity": 82,
      "chip": "ym2612"
    },
    {
      "channel": 2,
      "note": 48,
      "start": 64.1906,
      "duration": 0.1096,
      "velocity": 98,
      "chip": "ym2612"
    },
    {
      "channel": 3,
      "note": 60,
      "start": 64.1911,
      "duration": 0.1097,
      "velocity": 82,
      "chip": "ym2612"
    },
    {
      "channel": 2,
      "note": 49,
      "start": 64.3004,
      "duration": 0.1217,
      "velocity": 98,
      "chip": "ym2612"
    },
    {
      "channel": 3,
      "note": 61,
      "start": 64.301,
      "duration": 0.1217,
      "velocity": 82,
      "chip": "ym2612"
    },
    {
      "channel": 2,
      "note": 50,
      "start": 64.4223,
      "duration": 0.1572,
      "velocity": 98,
      "chip": "ym2612"
    },
    {
      "channel": 3,
      "note": 62,
      "start": 64.4229,
      "duration": 0.1573,
      "velocity": 82,
      "chip": "ym2612"
    },
    {
      "channel": 2,
      "note": 43,
      "start": 64.5797,
      "duration": 0.1091,
      "velocity": 98,
      "chip": "ym2612"
    },
    {
      "channel": 3,
      "note": 55,
      "start": 64.5803,
      "duration": 0.1091,
      "velocity": 82,
      "chip": "ym2612"
    },
    {
      "channel": 2,
      "note": 43,
      "start": 64.689,
      "duration": 0.2316,
      "velocity": 98,
      "chip": "ym2612"
    },
    {
      "channel": 3,
      "note": 55,
      "start": 64.6896,
      "duration": 0.2332,
      "velocity": 82,
      "chip": "ym2612"
    },
    {
      "channel": 2,
      "note": 43,
      "start": 64.9208,
      "duration": 0.1215,
      "velocity": 98,
      "chip": "ym2612"
    },
    {
      "channel": 3,
      "note": 55,
      "start": 64.923,
      "duration": 0.1198,
      "velocity": 82,
      "chip": "ym2612"
    },
    {
      "channel": 2,
      "note": 46,
      "start": 65.0424,
      "duration": 0.131,
      "velocity": 98,
      "chip": "ym2612"
    },
    {
      "channel": 3,
      "note": 58,
      "start": 65.043,
      "duration": 0.131,
      "velocity": 82,
      "chip": "ym2612"
    },
    {
      "channel": 2,
      "note": 48,
      "start": 65.1736,
      "duration": 0.2315,
      "velocity": 98,
      "chip": "ym2612"
    },
    {
      "channel": 3,
      "note": 60,
      "start": 65.1741,
      "duration": 0.2331,
      "velocity": 82,
      "chip": "ym2612"
    },
    {
      "channel": 2,
      "note": 43,
      "start": 65.4052,
      "duration": 0.2623,
      "velocity": 98,
      "chip": "ym2612"
    },
    {
      "channel": 3,
      "note": 55,
      "start": 65.4074,
      "duration": 0.2623,
      "velocity": 82,
      "chip": "ym2612"
    },
    {
      "channel": 2,
      "note": 31,
      "start": 65.6677,
      "duration": 0.1216,
      "velocity": 98,
      "chip": "ym2612"
    },
    {
      "channel": 3,
      "note": 43,
      "start": 65.6698,
      "duration": 0.12,
      "velocity": 82,
      "chip": "ym2612"
    },
    {
      "channel": 2,
      "note": 43,
      "start": 65.7894,
      "duration": 0.1088,
      "velocity": 98,
      "chip": "ym2612"
    },
    {
      "channel": 3,
      "note": 55,
      "start": 65.79,
      "duration": 0.1087,
      "velocity": 82,
      "chip": "ym2612"
    },
    {
      "channel": 2,
      "note": 43,
      "start": 65.8983,
      "duration": 0.1217,
      "velocity": 98,
      "chip": "ym2612"
    },
    {
      "channel": 3,
      "note": 55,
      "start": 65.8989,
      "duration": 0.1216,
      "velocity": 82,
      "chip": "ym2612"
    },
    {
      "channel": 2,
      "note": 46,
      "start": 66.0202,
      "duration": 0.109,
      "velocity": 98,
      "chip": "ym2612"
    },
    {
      "channel": 3,
      "note": 58,
      "start": 66.0207,
      "duration": 0.109,
      "velocity": 82,
      "chip": "ym2612"
    },
    {
      "channel": 2,
      "note": 48,
      "start": 66.1294,
      "duration": 0.1213,
      "velocity": 98,
      "chip": "ym2612"
    },
    {
      "channel": 3,
      "note": 60,
      "start": 66.1299,
      "duration": 0.1213,
      "velocity": 82,
      "chip": "ym2612"
    },
    {
      "channel": 2,
      "note": 49,
      "start": 66.2509,
      "duration": 0.1207,
      "velocity": 98,
      "chip": "ym2612"
    },
    {
      "channel": 3,
      "note": 61,
      "start": 66.2515,
      "duration": 0.1207,
      "velocity": 82,
      "chip": "ym2612"
    },
    {
      "channel": 2,
      "note": 50,
      "start": 66.3718,
      "duration": 0.1464,
      "velocity": 82,
      "chip": "ym2612"
    },
    {
      "channel": 3,
      "note": 62,
      "start": 66.3724,
      "duration": 0.1464,
      "velocity": 82,
      "chip": "ym2612"
    },
    {
      "channel": 0,
      "note": 36,
      "start": 66.5141,
      "duration": 0.2312,
      "velocity": 98,
      "chip": "ym2612"
    },
    {
      "channel": 1,
      "note": 77,
      "start": 66.5163,
      "duration": 1.9378,
      "velocity": 103,
      "chip": "ym2612"
    },
    {
      "channel": 2,
      "note": 60,
      "start": 66.5183,
      "duration": 0.3486,
      "velocity": 82,
      "chip": "ym2612"
    },
    {
      "channel": 3,
      "note": 53,
      "start": 66.519,
      "duration": 0.3485,
      "velocity": 82,
      "chip": "ym2612"
    },
    {
      "channel": 4,
      "note": 91,
      "start": 66.5211,
      "duration": 3.8697,
      "velocity": 82,
      "chip": "ym2612"
    },
    {
      "channel": 0,
      "note": 48,
      "start": 66.7454,
      "duration": 0.1209,
      "velocity": 98,
      "chip": "ym2612"
    },
    {
      "channel": 0,
      "note": 38,
      "start": 66.8665,
      "duration": 0.2362,
      "velocity": 98,
      "chip": "ym2612"
    },
    {
      "channel": 2,
      "note": 62,
      "start": 66.8671,
      "duration": 0.3571,
      "velocity": 82,
      "chip": "ym2612"
    },
    {
      "channel": 3,
      "note": 55,
      "start": 66.8676,
      "duration": 0.3571,
      "velocity": 82,
      "chip": "ym2612"
    },
    {
      "channel": 0,
      "note": 50,
      "start": 67.1029,
      "duration": 0.1207,
      "velocity": 98,
      "chip": "ym2612"
    },
    {
      "channel": 0,
      "note": 39,
      "start": 67.2237,
      "duration": 0.2632,
      "velocity": 98,
      "chip": "ym2612"
    },
    {
      "channel": 2,
      "note": 63,
      "start": 67.2244,
      "duration": 0.3841,
      "velocity": 82,
      "chip": "ym2612"
    },
    {
      "channel": 3,
      "note": 56,
      "start": 67.2249,
      "duration": 0.3841,
      "velocity": 82,
      "chip": "ym2612"
    },
    {
      "channel": 0,
      "note": 51,
      "start": 67.4871,
      "duration": 0.1208,
      "velocity": 98,
      "chip": "ym2612"
    },
    {
      "channel": 0,
      "note": 41,
      "start": 67.608,
      "duration": 0.23,
      "velocity": 98,
      "chip": "ym2612"
    },
    {
      "channel": 2,
      "note": 65,
      "start": 67.6086,
      "duration": 0.846,
      "velocity": 82,
      "chip": "ym2612"
    },
    {
      "channel": 3,
      "note": 58,
      "start": 67.6092,
      "duration": 0.846,
      "velocity": 82,
      "chip": "ym2612"
    },
    {
      "channel": 0,
      "note": 53,
      "start": 67.8382,
      "duration": 0.109,
      "velocity": 98,
      "chip": "ym2612"
    },
    {
      "channel": 0,
      "note": 41,
      "start": 67.9473,
      "duration": 0.1213,
      "velocity": 98,
      "chip": "ym2612"
    },
    {
      "channel": 0,
      "note": 53,
      "start": 68.0688,
      "duration": 0.1212,
      "velocity": 98,
      "chip": "ym2612"
    },
    {
      "channel": 0,
      "note": 38,
      "start": 68.1901,
      "duration": 0.1089,
      "velocity": 98,
      "chip": "ym2612"
    },
    {
      "channel": 0,
      "note": 50,
      "start": 68.2992,
      "duration": 0.1544,
      "velocity": 98,
      "chip": "ym2612"
    },
    {
      "channel": 0,
      "note": 43,
      "start": 68.4537,
      "duration": 0.1091,
      "velocity": 98,
      "chip": "ym2612"
    },
    {
      "channel": 1,
      "note": 79,
      "start": 68.4543,
      "duration": 0.8198,
      "velocity": 102,
      "chip": "ym2612"
    },
    {
      "channel": 2,
      "note": 67,
      "start": 68.4548,
      "duration": 0.3513,
      "velocity": 82,
      "chip": "ym2612"
    },
    {
      "channel": 3,
      "note": 60,
      "start": 68.4554,
      "duration": 0.3513,
      "velocity": 82,
      "chip": "ym2612"
    },
    {
      "channel": 0,
      "note": 41,
      "start": 68.5629,
      "duration": 0.1209,
      "velocity": 98,
      "chip": "ym2612"
    },
    {
      "channel": 0,
      "note": 38,
      "start": 68.684,
      "duration": 0.1215,
      "velocity": 98,
      "chip": "ym2612"
    },
    {
      "channel": 0,
      "note": 37,
      "start": 68.8057,
      "duration": 0.1088,
      "velocity": 98,
      "chip": "ym2612"
    },
    {
      "channel": 2,
      "note": 65,
      "start": 68.8063,
      "duration": 0.3448,
      "velocity": 82,
      "chip": "ym2612"
    },
    {
      "channel": 3,
      "note": 58,
      "start": 68.8068,
      "duration": 0.3448,
      "velocity": 82,
      "chip": "ym2612"
    },
    {
      "channel": 0,
      "note": 36,
      "start": 68.9146,
      "duration": 0.1272,
      "velocity": 98,
      "chip": "ym2612"
    },
    {
      "channel": 0,
      "note": 34,
      "start": 69.042,
      "duration": 0.1085,
      "velocity": 98,
      "chip": "ym2612"
    },
    {
      "channel": 0,
      "note": 29,
      "start": 69.1506,
      "duration": 0.1212,
      "velocity": 98,
      "chip": "ym2612"
    },
    {
      "channel": 2,
      "note": 53,
      "start": 69.1513,
      "duration": 0.1233,
      "velocity": 82,
      "chip": "ym2612"
    },
    {
      "channel": 3,
      "note": 46,
      "start": 69.1518,
      "duration": 0.1234,
      "velocity": 82,
      "chip": "ym2612"
    },
    {
      "channel": 0,
      "note": 31,
      "start": 69.2721,
      "duration": 1.1102,
      "velocity": 98,
      "chip": "ym2612"
    },
    {
      "channel": 1,
      "note": 55,
      "start": 69.2742,
      "duration": 1.1102,
      "velocity": 99,
      "chip": "ym2612"
    },
    {
      "channel": 2,
      "note": 55,
      "start": 69.2747,
      "duration": 1.1118,
      "velocity": 1,
      "chip": "ym2612"
    },
    {
      "channel": 3,
      "note": 48,
      "start": 69.2753,
      "duration": 1.1133,
      "velocity": 1,
      "chip": "ym2612"
    },
    {
      "channel": 0,
      "note": 39,
      "start": 70.3824,
      "duration": 0.1229,
      "velocity": 98,
      "chip": "ym2612"
    },
    {
      "channel": 1,
      "note": 51,
      "start": 70.3845,
      "duration": 0.0605,
      "velocity": 99,
      "chip": "ym2612"
    },
    {
      "channel": 2,
      "note": 55,
      "start": 70.3866,
      "duration": 21.2431,
      "velocity": 1,
      "chip": "ym2612"
    },
    {
      "channel": 3,
      "note": 55,
      "start": 70.3888,
      "duration": 21.241,
      "velocity": 1,
      "chip": "ym2612"
    },
    {
      "channel": 4,
      "note": 51,
      "start": 70.391,
      "duration": 0.1156,
      "velocity": 82,
      "chip": "ym2612"
    },
    {
      "channel": 1,
      "note": 63,
      "start": 70.4453,
      "duration": 0.0606,
      "velocity": 99,
      "chip": "ym2612"
    },
    {
      "channel": 0,
      "note": 39,
      "start": 70.5055,
      "duration": 0.2298,
      "velocity": 98,
      "chip": "ym2612"
    },
    {
      "channel": 1,
      "note": 51,
      "start": 70.5061,
      "duration": 0.1205,
      "velocity": 99,
      "chip": "ym2612"
    },
    {
      "channel": 4,
      "note": 51,
      "start": 70.5068,
      "duration": 0.2297,
      "velocity": 82,
      "chip": "ym2612"
    },
    {
      "channel": 1,
      "note": 63,
      "start": 70.6268,
      "duration": 0.1091,
      "velocity": 99,
      "chip": "ym2612"
    },
    {
      "channel": 0,
      "note": 41,
      "start": 70.7355,
      "duration": 0.1547,
      "velocity": 1,
      "chip": "ym2612"
    },
    {
      "channel": 1,
      "note": 53,
      "start": 70.736,
      "duration": 20.8937,
      "velocity": 99,
      "chip": "ym2612"
    },
    {
      "channel": 4,
      "note": 53,
      "start": 70.7367,
      "duration": 0.1558,
      "velocity": 1,
      "chip": "ym2612"
    },
    {
      "channel": 0,
      "note": 43,
      "start": 70.8904,
      "duration": 0.1499,
      "velocity": 100,
      "chip": "ym2612"
    },
    {
      "channel": 4,
      "note": 43,
      "start": 70.8927,
      "duration": 20.737,
      "velocity": 1,
      "chip": "ym2612"
    }
  ]
}