{
  "track_name": "10 - South America ~ 2D Stage",
  "duration_sec": 85.015,
  "sample_rate": 44100,
  "note_count": 1560,
  "unique_pitches": 43,
  "pitch_range": 57,
  "avg_note_duration": 0.2721,
  "reconstruction_stats": {
    "notes_reconstructed": 1560,
    "keyon_events": 1560,
    "keyoff_events": 1555,
    "orphan_keyons": 5,
    "unique_pitches": 43,
    "pitch_range": 57,
    "avg_duration_sec": 0.2721
  },
  "metadata": {
    "source": "G\\Gunship\\10 - South America ~ 2D Stage.vgz"
  },
  "notes": [
    {
      "channel": 0,
      "note": 48,
      "start": 0.052,
      "duration": 0.1148,
      "velocity": 115,
      "chip": "ym2612"
    },
    {
      "channel": 2,
      "note": 48,
      "start": 0.0543,
      "duration": 0.1153,
      "velocity": 115,
      "chip": "ym2612"
    },
    {
      "channel": 3,
      "note": 74,
      "start": 0.0565,
      "duration": 7.6784,
      "velocity": 1,
      "chip": "ym2612"
    },
    {
      "channel": 4,
      "note": 74,
      "start": 0.0587,
      "duration": 7.6768,
      "velocity": 1,
      "chip": "ym2612"
    },
    {
      "channel": 0,
      "note": 48,
      "start": 0.1671,
      "duration": 0.133,
      "velocity": 115,
      "chip": "ym2612"
    },
    {
      "channel": 1,
      "note": 46,
      "start": 0.1693,
      "duration": 0.248,
      "velocity": 109,
      "chip": "ym2612"
    },
    {
      "channel": 2,
      "note": 48,
      "start": 0.1698,
      "duration": 0.1309,
      "velocity": 115,
      "chip": "ym2612"
    },
    {
      "channel": 0,
      "note": 46,
      "start": 0.3002,
      "duration": 0.1165,
      "velocity": 115,
      "chip": "ym2612"
    },
    {
      "channel": 2,
      "note": 48,
      "start": 0.3009,
      "duration": 0.1169,
      "velocity": 115,
      "chip": "ym2612"
    },
    {
      "channel": 0,
      "note": 48,
      "start": 0.4169,
      "duration": 0.2332,
      "velocity": 115,
      "chip": "ym2612"
    },
    {
      "channel": 1,
      "note": 46,
      "start": 0.4174,
      "duration": 0.1161,
      "velocity": 109,
      "chip": "ym2612"
    },
    {
      "channel": 2,
      "note": 48,
      "start": 0.418,
      "duration": 0.1161,
      "velocity": 115,
      "chip": "ym2612"
    },
    {
      "channel": 1,
      "note": 48,
      "start": 0.5337,
      "duration": 0.6003,
      "velocity": 109,
      "chip": "ym2612"
    },
    {
      "channel": 2,
      "note": 60,
      "start": 0.5343,
      "duration": 0.1165,
      "velocity": 115,
      "chip": "ym2612"
    },
    {
      "channel": 0,
      "note": 46,
      "start": 0.6503,
      "duration": 0.2498,
      "velocity": 115,
      "chip": "ym2612"
    },
    {
      "channel": 2,
      "note": 48,
      "start": 0.651,
      "duration": 0.1159,
      "velocity": 115,
      "chip": "ym2612"
    },
    {
      "channel": 2,
      "note": 48,
      "start": 0.7671,
      "duration": 0.1337,
      "velocity": 115,
      "chip": "ym2612"
    },
    {
      "channel": 0,
      "note": 43,
      "start": 0.9002,
      "duration": 0.1165,
      "velocity": 115,
      "chip": "ym2612"
    },
    {
      "channel": 2,
      "note": 46,
      "start": 0.9009,
      "duration": 0.1165,
      "velocity": 115,
      "chip": "ym2612"
    },
    {
      "channel": 0,
      "note": 48,
      "start": 1.0169,
      "duration": 0.1166,
      "velocity": 115,
      "chip": "ym2612"
    },
    {
      "channel": 2,
      "note": 48,
      "start": 1.0175,
      "duration": 0.1171,
      "velocity": 115,
      "chip": "ym2612"
    },
    {
      "channel": 0,
      "note": 48,
      "start": 1.1337,
      "duration": 0.1164,
      "velocity": 115,
      "chip": "ym2612"
    },
    {
      "channel": 1,
      "note": 46,
      "start": 1.1342,
      "duration": 0.2331,
      "velocity": 109,
      "chip": "ym2612"
    },
    {
      "channel": 2,
      "note": 48,
      "start": 1.1347,
      "duration": 0.116,
      "velocity": 115,
      "chip": "ym2612"
    },
    {
      "channel": 0,
      "note": 46,
      "start": 1.2502,
      "duration": 0.1165,
      "velocity": 115,
      "chip": "ym2612"
    },
    {
      "channel": 2,
      "note": 48,
      "start": 1.2509,
      "duration": 0.117,
      "velocity": 115,
      "chip": "ym2612"
    },
    {
      "channel": 0,
      "note": 48,
      "start": 1.3669,
      "duration": 0.2499,
      "velocity": 115,
      "chip": "ym2612"
    },
    {
      "channel": 1,
      "note": 46,
      "start": 1.3675,
      "duration": 0.1327,
      "velocity": 109,
      "chip": "ym2612"
    },
    {
      "channel": 2,
      "note": 48,
      "start": 1.368,
      "duration": 0.1328,
      "velocity": 115,
      "chip": "ym2612"
    },
    {
      "channel": 1,
      "note": 48,
      "start": 1.5004,
      "duration": 0.6003,
      "velocity": 109,
      "chip": "ym2612"
    },
    {
      "channel": 2,
      "note": 60,
      "start": 1.501,
      "duration": 0.1165,
      "velocity": 115,
      "chip": "ym2612"
    },
    {
      "channel": 0,
      "note": 46,
      "start": 1.617,
      "duration": 0.2331,
      "velocity": 115,
      "chip": "ym2612"
    },
    {
      "channel": 2,
      "note": 48,
      "start": 1.6176,
      "duration": 0.1159,
      "velocity": 115,
      "chip": "ym2612"
    },
    {
      "channel": 2,
      "note": 48,
      "start": 1.7337,
      "duration": 0.117,
      "velocity": 115,
      "chip": "ym2612"
    },
    {
      "channel": 0,
      "note": 43,
      "start": 1.8502,
      "duration": 0.1165,
      "velocity": 115,
      "chip": "ym2612"
    },
    {
      "channel": 2,
      "note": 46,
      "start": 1.8508,
      "duration": 0.1166,
      "velocity": 115,
      "chip": "ym2612"
    },
    {
      "channel": 0,
      "note": 48,
      "start": 1.9669,
      "duration": 0.1332,
      "velocity": 115,
      "chip": "ym2612"
    },
    {
      "channel": 2,
      "note": 48,
      "start": 1.9676,
      "duration": 0.1337,
      "velocity": 115,
      "chip": "ym2612"
    },
    {
      "channel": 0,
      "note": 48,
      "start": 2.1003,
      "duration": 0.1164,
      "velocity": 115,
      "chip": "ym2612"
    },
    {
      "channel": 1,
      "note": 46,
      "start": 2.1009,
      "duration": 0.2331,
      "velocity": 109,
      "chip": "ym2612"
    },
    {
      "channel": 2,
      "note": 48,
      "start": 2.1014,
      "duration": 0.116,
      "velocity": 115,
      "chip": "ym2612"
    },
    {
      "channel": 0,
      "note": 46,
      "start": 2.2169,
      "duration": 0.1166,
      "velocity": 115,
      "chip": "ym2612"
    },
    {
      "channel": 2,
      "note": 48,
      "start": 2.2175,
      "duration": 0.1171,
      "velocity": 115,
      "chip": "ym2612"
    },
    {
      "channel": 0,
      "note": 48,
      "start": 2.3336,
      "duration": 0.2332,
      "velocity": 115,
      "chip": "ym2612"
    },
    {
      "channel": 1,
      "note": 46,
      "start": 2.3341,
      "duration": 0.116,
      "velocity": 109,
      "chip": "ym2612"
    },
    {
      "channel": 2,
      "note": 48,
      "start": 2.3347,
      "duration": 0.1161,
      "velocity": 115,
      "chip": "ym2612"
    },
    {
      "channel": 1,
      "note": 48,
      "start": 2.4504,
      "duration": 0.6003,
      "velocity": 109,
      "chip": "ym2612"
    },
    {
      "channel": 2,
      "note": 60,
      "start": 2.451,
      "duration": 0.1165,
      "velocity": 115,
      "chip": "ym2612"
    },
    {
      "channel": 0,
      "note": 46,
      "start": 2.567,
      "duration": 0.2498,
      "velocity": 115,
      "chip": "ym2612"
    },
    {
      "channel": 2,
      "note": 48,
      "start": 2.5676,
      "duration": 0.1326,
      "velocity": 115,
      "chip": "ym2612"
    },
    {
      "channel": 2,
      "note": 48,
      "start": 2.7004,
      "duration": 0.117,
      "velocity": 115,
      "chip": "ym2612"
    },
    {
      "channel": 0,
      "note": 43,
      "start": 2.8169,
      "duration": 0.1166,
      "velocity": 115,
      "chip": "ym2612"
    },
    {
      "channel": 2,
      "note": 46,
      "start": 2.8176,
      "duration": 0.1165,
      "velocity": 115,
      "chip": "ym2612"
    },
    {
      "channel": 0,
      "note": 48,
      "start": 2.9336,
      "duration": 0.1166,
      "velocity": 115,
      "chip": "ym2612"
    },
    {
      "channel": 2,
      "note": 48,
      "start": 2.9342,
      "duration": 0.1171,
      "velocity": 115,
      "chip": "ym2612"
    },
    {
      "channel": 0,
      "note": 48,
      "start": 3.0503,
      "duration": 0.1165,
      "velocity": 115,
      "chip": "ym2612"
    },
    {
      "channel": 1,
      "note": 46,
      "start": 3.0509,
      "duration": 0.2498,
      "velocity": 109,
      "chip": "ym2612"
    },
    {
      "channel": 2,
      "note": 48,
      "start": 3.0514,
      "duration": 0.116,
      "velocity": 115,
      "chip": "ym2612"
    },
    {
      "channel": 0,
      "note": 46,
      "start": 3.167,
      "duration": 0.1332,
      "velocity": 115,
      "chip": "ym2612"
    },
    {
      "channel": 2,
      "note": 48,
      "start": 3.1676,
      "duration": 0.1337,
      "velocity": 115,
      "chip": "ym2612"
    },
    {
      "channel": 0,
      "note": 48,
      "start": 3.3003,
      "duration": 0.2332,
      "velocity": 115,
      "chip": "ym2612"
    },
    {
      "channel": 1,
      "note": 46,
      "start": 3.3009,
      "duration": 0.116,
      "velocity": 109,
      "chip": "ym2612"
    },
    {
      "channel": 2,
      "note": 48,
      "start": 3.3014,
      "duration": 0.116,
      "velocity": 115,
      "chip": "ym2612"
    },
    {
      "channel": 1,
      "note": 48,
      "start": 3.4171,
      "duration": 0.6003,
      "velocity": 109,
      "chip": "ym2612"
    },
    {
      "channel": 2,
      "note": 60,
      "start": 3.4176,
      "duration": 0.1165,
      "velocity": 115,
      "chip": "ym2612"
    },
    {
      "channel": 0,
      "note": 46,
      "start": 3.5337,
      "duration": 0.2331,
      "velocity": 115,
      "chip": "ym2612"
    },
    {
      "channel": 2,
      "note": 58,
      "start": 3.5343,
      "duration": 0.1159,
      "velocity": 115,
      "chip": "ym2612"
    },
    {
      "channel": 2,
      "note": 55,
      "start": 3.6504,
      "duration": 0.117,
      "velocity": 115,
      "chip": "ym2612"
    },
    {
      "channel": 0,
      "note": 43,
      "start": 3.7669,
      "duration": 0.1332,
      "velocity": 115,
      "chip": "ym2612"
    },
    {
      "channel": 2,
      "note": 58,
      "start": 3.7675,
      "duration": 0.1332,
      "velocity": 115,
      "chip": "ym2612"
    },
    {
      "channel": 0,
      "note": 46,
      "start": 3.9002,
      "duration": 0.1166,
      "velocity": 115,
      "chip": "ym2612"
    },
    {
      "channel": 2,
      "note": 53,
      "start": 3.9009,
      "duration": 0.1171,
      "velocity": 115,
      "chip": "ym2612"
    },
    {
      "channel": 0,
      "note": 46,
      "start": 4.017,
      "duration": 0.1165,
      "velocity": 115,
      "chip": "ym2612"
    },
    {
      "channel": 1,
      "note": 46,
      "start": 4.0176,
      "duration": 0.2331,
      "velocity": 109,
      "chip": "ym2612"
    },
    {
      "channel": 2,
      "note": 53,
      "start": 4.0181,
      "duration": 0.116,
      "velocity": 115,
      "chip": "ym2612"
    },
    {
      "channel": 0,
      "note": 44,
      "start": 4.1336,
      "duration": 0.1165,
      "velocity": 115,
      "chip": "ym2612"
    },
    {
      "channel": 2,
      "note": 53,
      "start": 4.1342,
      "duration": 0.117,
      "velocity": 115,
      "chip": "ym2612"
    },
    {
      "channel": 0,
      "note": 46,
      "start": 4.2502,
      "duration": 0.2499,
      "velocity": 115,
      "chip": "ym2612"
    },
    {
      "channel": 1,
      "note": 46,
      "start": 4.2508,
      "duration": 0.116,
      "velocity": 109,
      "chip": "ym2612"
    },
    {
      "channel": 2,
      "note": 53,
      "start": 4.2513,
      "duration": 0.1161,
      "velocity": 115,
      "chip": "ym2612"
    },
    {
      "channel": 1,
      "note": 48,
      "start": 4.3671,
      "duration": 0.6002,
      "velocity": 109,
      "chip": "ym2612"
    },
    {
      "channel": 2,
      "note": 65,
      "start": 4.3676,
      "duration": 0.1332,
      "velocity": 115,
      "chip": "ym2612"
    },
    {
      "channel": 0,
      "note": 44,
      "start": 4.5003,
      "duration": 0.2331,
      "velocity": 115,
      "chip": "ym2612"
    },
    {
      "channel": 2,
      "note": 53,
      "start": 4.5009,
      "duration": 0.116,
      "velocity": 115,
      "chip": "ym2612"
    },
    {
      "channel": 2,
      "note": 53,
      "start": 4.6171,
      "duration": 0.1169,
      "velocity": 115,
      "chip": "ym2612"
    },
    {
      "channel": 0,
      "note": 41,
      "start": 4.7335,
      "duration": 0.1166,
      "velocity": 115,
      "chip": "ym2612"
    },
    {
      "channel": 2,
      "note": 51,
      "start": 4.7341,
      "duration": 0.1166,
      "velocity": 115,
      "chip": "ym2612"
    },
    {
      "channel": 0,
      "note": 46,
      "start": 4.8502,
      "duration": 0.1166,
      "velocity": 115,
      "chip": "ym2612"
    },
    {
      "channel": 2,
      "note": 53,
      "start": 4.8509,
      "duration": 0.117,
      "velocity": 115,
      "chip": "ym2612"
    },
    {
      "channel": 0,
      "note": 46,
      "start": 4.9669,
      "duration": 0.1332,
      "velocity": 115,
      "chip": "ym2612"
    },
    {
      "channel": 1,
      "note": 46,
      "start": 4.9675,
      "duration": 0.2498,
      "velocity": 109,
      "chip": "ym2612"
    },
    {
      "channel": 2,
      "note": 53,
      "start": 4.9681,
      "duration": 0.1326,
      "velocity": 115,
      "chip": "ym2612"
    },
    {
      "channel": 0,
      "note": 44,
      "start": 5.1002,
      "duration": 0.1165,
      "velocity": 115,
      "chip": "ym2612"
    },
    {
      "channel": 2,
      "note": 53,
      "start": 5.1009,
      "duration": 0.117,
      "velocity": 115,
      "chip": "ym2612"
    },
    {
      "channel": 0,
      "note": 46,
      "start": 5.2169,
      "duration": 0.2332,
      "velocity": 115,
      "chip": "ym2612"
    },
    {
      "channel": 1,
      "note": 46,
      "start": 5.2175,
      "duration": 0.116,
      "velocity": 109,
      "chip": "ym2612"
    },
    {
      "channel": 2,
      "note": 53,
      "start": 5.218,
      "duration": 0.116,
      "velocity": 115,
      "chip": "ym2612"
    },
    {
      "channel": 1,
      "note": 48,
      "start": 5.3337,
      "duration": 0.6004,
      "velocity": 109,
      "chip": "ym2612"
    },
    {
      "channel": 2,
      "note": 65,
      "start": 5.3342,
      "duration": 0.1165,
      "velocity": 115,
      "chip": "ym2612"
    },
    {
      "channel": 0,
      "note": 44,
      "start": 5.4503,
      "duration": 0.2498,
      "velocity": 115,
      "chip": "ym2612"
    },
    {
      "channel": 2,
      "note": 53,
      "start": 5.4509,
      "duration": 0.116,
      "velocity": 115,
      "chip": "ym2612"
    },
    {
      "channel": 2,
      "note": 53,
      "start": 5.567,
      "duration": 0.1337,
      "velocity": 115,
      "chip": "ym2612"
    },
    {
      "channel": 0,
      "note": 41,
      "start": 5.7002,
      "duration": 0.1165,
      "velocity": 115,
      "chip": "ym2612"
    },
    {
      "channel": 2,
      "note": 51,
      "start": 5.7008,
      "duration": 0.1166,
      "velocity": 115,
      "chip": "ym2612"
    },
    {
      "channel": 0,
      "note": 46,
      "start": 5.8169,
      "duration": 0.1166,
      "velocity": 115,
      "chip": "ym2612"
    },
    {
      "channel": 2,
      "note": 53,
      "start": 5.8176,
      "duration": 0.1171,
      "velocity": 115,
      "chip": "ym2612"
    },
    {
      "channel": 0,
      "note": 46,
      "start": 5.9337,
      "duration": 0.1164,
      "velocity": 115,
      "chip": "ym2612"
    },
    {
      "channel": 1,
      "note": 46,
      "start": 5.9342,
      "duration": 0.2331,
      "velocity": 109,
      "chip": "ym2612"
    },
    {
      "channel": 2,
      "note": 53,
      "start": 5.9347,
      "duration": 0.116,
      "velocity": 115,
      "chip": "ym2612"
    },
    {
      "channel": 0,
      "note": 44,
      "start": 6.0502,
      "duration": 0.1165,
      "velocity": 115,
      "chip": "ym2612"
    },
    {
      "channel": 2,
      "note": 53,
      "start": 6.0509,
      "duration": 0.117,
      "velocity": 115,
      "chip": "ym2612"
    },
    {
      "channel": 0,
      "note": 46,
      "start": 6.1669,
      "duration": 0.2499,
      "velocity": 115,
      "chip": "ym2612"
    },
    {
      "channel": 1,
      "note": 46,
      "start": 6.1675,
      "duration": 0.1327,
      "velocity": 109,
      "chip": "ym2612"
    },
    {
      "channel": 2,
      "note": 53,
      "start": 6.168,
      "duration": 0.1328,
      "velocity": 115,
      "chip": "ym2612"
    },
    {
      "channel": 1,
      "note": 48,
      "start": 6.3004,
      "duration": 0.6003,
      "velocity": 109,
      "chip": "ym2612"
    },
    {
      "channel": 2,
      "note": 65,
      "start": 6.301,
      "duration": 0.1165,
      "velocity": 115,
      "chip": "ym2612"
    },
    {
      "channel": 0,
      "note": 44,
      "start": 6.417,
      "duration": 0.2331,
      "velocity": 115,
      "chip": "ym2612"
    },
    {
      "channel": 2,
      "note": 53,
      "start": 6.4176,
      "duration": 0.1159,
      "velocity": 115,
      "chip": "ym2612"
    },
    {
      "channel": 2,
      "note": 53,
      "start": 6.5337,
      "duration": 0.117,
      "velocity": 115,
      "chip": "ym2612"
    },
    {
      "channel": 0,
      "note": 41,
      "start": 6.6502,
      "duration": 0.1165,
      "velocity": 115,
      "chip": "ym2612"
    },
    {
      "channel": 2,
      "note": 51,
      "start": 6.6508,
      "duration": 0.1166,
      "velocity": 115,
      "chip": "ym2612"
    },
    {
      "channel": 0,
      "note": 46,
      "start": 6.7669,
      "duration": 0.1332,
      "velocity": 115,
      "chip": "ym2612"
    },
    {
      "channel": 2,
      "note": 53,
      "start": 6.7676,
      "duration": 0.1337,
      "velocity": 115,
      "chip": "ym2612"
    },
    {
      "channel": 0,
      "note": 46,
      "start": 6.9003,
      "duration": 0.1165,
      "velocity": 115,
      "chip": "ym2612"
    },
    {
      "channel": 1,
      "note": 46,
      "start": 6.9009,
      "duration": 0.2332,
      "velocity": 109,
      "chip": "ym2612"
    },
    {
      "channel": 2,
      "note": 53,
      "start": 6.9014,
      "duration": 0.116,
      "velocity": 115,
      "chip": "ym2612"
    },
    {
      "channel": 0,
      "note": 44,
      "start": 7.017,
      "duration": 0.1165,
      "velocity": 115,
      "chip": "ym2612"
    },
    {
      "channel": 2,
      "note": 53,
      "start": 7.0176,
      "duration": 0.117,
      "velocity": 115,
      "chip": "ym2612"
    },
    {
      "channel": 0,
      "note": 46,
      "start": 7.1337,
      "duration": 0.2332,
      "velocity": 115,
      "chip": "ym2612"
    },
    {
      "channel": 1,
      "note": 46,
      "start": 7.1342,
      "duration": 0.116,
      "velocity": 109,
      "chip": "ym2612"
    },
    {
      "channel": 2,
      "note": 53,
      "start": 7.1347,
      "duration": 0.116,
      "velocity": 115,
      "chip": "ym2612"
    },
    {
      "channel": 1,
      "note": 48,
      "start": 7.2504,
      "duration": 0.6004,
      "velocity": 109,
      "chip": "ym2612"
    },
    {
      "channel": 2,
      "note": 65,
      "start": 7.251,
      "duration": 0.1165,
      "velocity": 115,
      "chip": "ym2612"
    },
    {
      "channel": 0,
      "note": 44,
      "start": 7.367,
      "duration": 0.2498,
      "velocity": 115,
      "chip": "ym2612"
    },
    {
      "channel": 2,
      "note": 63,
      "start": 7.3676,
      "duration": 0.1326,
      "velocity": 115,
      "chip": "ym2612"
    },
    {
      "channel": 2,
      "note": 60,
      "start": 7.5004,
      "duration": 0.117,
      "velocity": 115,
      "chip": "ym2612"
    },
    {
      "channel": 0,
      "note": 41,
      "start": 7.6169,
      "duration": 0.1167,
      "velocity": 115,
      "chip": "ym2612"
    },
    {
      "channel": 2,
      "note": 63,
      "start": 7.6176,
      "duration": 0.1167,
      "velocity": 115,
      "chip": "ym2612"
    },
    {
      "channel": 0,
      "note": 48,
      "start": 7.7338,
      "duration": 0.1164,
      "velocity": 115,
      "chip": "ym2612"
    },
    {
      "channel": 2,
      "note": 48,
      "start": 7.7345,
      "duration": 0.1169,
      "velocity": 115,
      "chip": "ym2612"
    },
    {
      "channel": 3,
      "note": 74,
      "start": 7.7351,
      "duration": 7.6847,
      "velocity": 104,
      "chip": "ym2612"
    },
    {
      "channel": 4,
      "note": 74,
      "start": 7.7357,
      "duration": 7.6863,
      "velocity": 104,
      "chip": "ym2612"
    },
    {
      "channel": 0,
      "note": 48,
      "start": 7.8504,
      "duration": 0.1163,
      "velocity": 115,
      "chip": "ym2612"
    },
    {
      "channel": 1,
      "note": 46,
      "start": 7.851,
      "duration": 0.2497,
      "velocity": 109,
      "chip": "ym2612"
    },
    {
      "channel": 2,
      "note": 48,
      "start": 7.8515,
      "duration": 0.1159,
      "velocity": 115,
      "chip": "ym2612"
    },
    {
      "channel": 0,
      "note": 46,
      "start": 7.9669,
      "duration": 0.1332,
      "velocity": 115,
      "chip": "ym2612"
    },
    {
      "channel": 2,
      "note": 48,
      "start": 7.9675,
      "duration": 0.1337,
      "velocity": 115,
      "chip": "ym2612"
    },
    {
      "channel": 0,
      "note": 48,
      "start": 8.1002,
      "duration": 0.2332,
      "velocity": 115,
      "chip": "ym2612"
    },
    {
      "channel": 1,
      "note": 46,
      "start": 8.1008,
      "duration": 0.116,
      "velocity": 109,
      "chip": "ym2612"
    },
    {
      "channel": 2,
      "note": 48,
      "start": 8.1013,
      "duration": 0.1161,
      "velocity": 115,
      "chip": "ym2612"
    },
    {
      "channel": 1,
      "note": 48,
      "start": 8.2171,
      "duration": 0.6003,
      "velocity": 109,
      "chip": "ym2612"
    },
    {
      "channel": 2,
      "note": 60,
      "start": 8.2176,
      "duration": 0.1165,
      "velocity": 115,
      "chip": "ym2612"
    },
    {
      "channel": 0,
      "note": 46,
      "start": 8.3337,
      "duration": 0.2331,
      "velocity": 115,
      "chip": "ym2612"
    },
    {
      "channel": 2,
      "note": 48,
      "start": 8.3343,
      "duration": 0.1159,
      "velocity": 115,
      "chip": "ym2612"
    },
    {
      "channel": 2,
      "note": 48,
      "start": 8.4504,
      "duration": 0.117,
      "velocity": 115,
      "chip": "ym2612"
    },
    {
      "channel": 0,
      "note": 43,
      "start": 8.5669,
      "duration": 0.1332,
      "velocity": 115,
      "chip": "ym2612"
    },
    {
      "channel": 2,
      "note": 46,
      "start": 8.5675,
      "duration": 0.1332,
      "velocity": 115,
      "chip": "ym2612"
    },
    {
      "channel": 0,
      "note": 48,
      "start": 8.7002,
      "duration": 0.1166,
      "velocity": 115,
      "chip": "ym2612"
    },
    {
      "channel": 2,
      "note": 48,
      "start": 8.7009,
      "duration": 0.1171,
      "velocity": 115,
      "chip": "ym2612"
    },
    {
      "channel": 0,
      "note": 48,
      "start": 8.817,
      "duration": 0.1165,
      "velocity": 115,
      "chip": "ym2612"
    },
    {
      "channel": 1,
      "note": 46,
      "start": 8.8176,
      "duration": 0.2331,
      "velocity": 109,
      "chip": "ym2612"
    },
    {
      "channel": 2,
      "note": 48,
      "start": 8.8181,
      "duration": 0.116,
      "velocity": 115,
      "chip": "ym2612"
    },
    {
      "channel": 0,
      "note": 46,
      "start": 8.9336,
      "duration": 0.1165,
      "velocity": 115,
      "chip": "ym2612"
    },
    {
      "channel": 2,
      "note": 48,
      "start": 8.9342,
      "duration": 0.117,
      "velocity": 115,
      "chip": "ym2612"
    },
    {
      "channel": 0,
      "note": 48,
      "start": 9.0502,
      "duration": 0.2499,
      "velocity": 115,
      "chip": "ym2612"
    },
    {
      "channel": 1,
      "note": 46,
      "start": 9.0508,
      "duration": 0.116,
      "velocity": 109,
      "chip": "ym2612"
    },
    {
      "channel": 2,
      "note": 48,
      "start": 9.0513,
      "duration": 0.1161,
      "velocity": 115,
      "chip": "ym2612"
    },
    {
      "channel": 1,
      "note": 48,
      "start": 9.1671,
      "duration": 0.6003,
      "velocity": 109,
      "chip": "ym2612"
    },
    {
      "channel": 2,
      "note": 60,
      "start": 9.1676,
      "duration": 0.1332,
      "velocity": 115,
      "chip": "ym2612"
    },
    {
      "channel": 0,
      "note": 46,
      "start": 9.3003,
      "duration": 0.2331,
      "velocity": 115,
      "chip": "ym2612"
    },
    {
      "channel": 2,
      "note": 48,
      "start": 9.3009,
      "duration": 0.116,
      "velocity": 115,
      "chip": "ym2612"
    },
    {
      "channel": 2,
      "note": 48,
      "start": 9.4171,
      "duration": 0.1169,
      "velocity": 115,
      "chip": "ym2612"
    },
    {
      "channel": 0,
      "note": 43,
      "start": 9.5335,
      "duration": 0.1166,
      "velocity": 115,
      "chip": "ym2612"
    },
    {
      "channel": 2,
      "note": 46,
      "start": 9.5341,
      "duration": 0.1166,
      "velocity": 115,
      "chip": "ym2612"
    },
    {
      "channel": 0,
      "note": 48,
      "start": 9.6502,
      "duration": 0.1166,
      "velocity": 115,
      "chip": "ym2612"
    },
    {
      "channel": 2,
      "note": 48,
      "start": 9.6508,
      "duration": 0.1171,
      "velocity": 115,
      "chip": "ym2612"
    },
    {
      "channel": 0,
      "note": 48,
      "start": 9.767,
      "duration": 0.1331,
      "velocity": 115,
      "chip": "ym2612"
    },
    {
      "channel": 1,
      "note": 46,
      "start": 9.7675,
      "duration": 0.2498,
      "velocity": 109,
      "chip": "ym2612"
    },
    {
      "channel": 2,
      "note": 48,
      "start": 9.7681,
      "duration": 0.1326,
      "velocity": 115,
      "chip": "ym2612"
    },
    {
      "channel": 0,
      "note": 46,
      "start": 9.9002,
      "duration": 0.1165,
      "velocity": 115,
      "chip": "ym2612"
    },
    {
      "channel": 2,
      "note": 48,
      "start": 9.9009,
      "duration": 0.117,
      "velocity": 115,
      "chip": "ym2612"
    },
    {
      "channel": 0,
      "note": 48,
      "start": 10.0169,
      "duration": 0.2332,
      "velocity": 115,
      "chip": "ym2612"
    },
    {
      "channel": 1,
      "note": 46,
      "start": 10.0175,
      "duration": 0.116,
      "velocity": 109,
      "chip": "ym2612"
    },
    {
      "channel": 2,
      "note": 48,
      "start": 10.018,
      "duration": 0.116,
      "velocity": 115,
      "chip": "ym2612"
    },
    {
      "channel": 1,
      "note": 48,
      "start": 10.1337,
      "duration": 0.6003,
      "velocity": 109,
      "chip": "ym2612"
    },
    {
      "channel": 2,
      "note": 60,
      "start": 10.1342,
      "duration": 0.1166,
      "velocity": 115,
      "chip": "ym2612"
    },
    {
      "channel": 0,
      "note": 46,
      "start": 10.2503,
      "duration": 0.2498,
      "velocity": 115,
      "chip": "ym2612"
    },
    {
      "channel": 2,
      "note": 48,
      "start": 10.2509,
      "duration": 0.116,
      "velocity": 115,
      "chip": "ym2612"
    },
    {
      "channel": 2,
      "note": 48,
      "start": 10.367,
      "duration": 0.1337,
      "velocity": 115,
      "chip": "ym2612"
    },
    {
      "channel": 0,
      "note": 43,
      "start": 10.5002,
      "duration": 0.1165,
      "velocity": 115,
      "chip": "ym2612"
    },
    {
      "channel": 2,
      "note": 46,
      "start": 10.5008,
      "duration": 0.1166,
      "velocity": 115,
      "chip": "ym2612"
    },
    {
      "channel": 0,
      "note": 48,
      "start": 10.6169,
      "duration": 0.1166,
      "velocity": 115,
      "chip": "ym2612"
    },
    {
      "channel": 2,
      "note": 48,
      "start": 10.6176,
      "duration": 0.117,
      "velocity": 115,
      "chip": "ym2612"
    },
    {
      "channel": 0,
      "note": 48,
      "start": 10.7336,
      "duration": 0.1166,
      "velocity": 115,
      "chip": "ym2612"
    },
    {
      "channel": 1,
      "note": 46,
      "start": 10.7341,
      "duration": 0.2332,
      "velocity": 109,
      "chip": "ym2612"
    },
    {
      "channel": 2,
      "note": 48,
      "start": 10.7347,
      "duration": 0.116,
      "velocity": 115,
      "chip": "ym2612"
    },
    {
      "channel": 0,
      "note": 46,
      "start": 10.8502,
      "duration": 0.1166,
      "velocity": 115,
      "chip": "ym2612"
    },
    {
      "channel": 2,
      "note": 48,
      "start": 10.8509,
      "duration": 0.117,
      "velocity": 115,
      "chip": "ym2612"
    },
    {
      "channel": 0,
      "note": 48,
      "start": 10.9669,
      "duration": 0.2499,
      "velocity": 115,
      "chip": "ym2612"
    },
    {
      "channel": 1,
      "note": 46,
      "start": 10.9675,
      "duration": 0.1327,
      "velocity": 109,
      "chip": "ym2612"
    },
    {
      "channel": 2,
      "note": 48,
      "start": 10.9681,
      "duration": 0.1326,
      "velocity": 115,
      "chip": "ym2612"
    },
    {
      "channel": 1,
      "note": 48,
      "start": 11.1003,
      "duration": 0.6004,
      "velocity": 109,
      "chip": "ym2612"
    },
    {
      "channel": 2,
      "note": 60,
      "start": 11.1009,
      "duration": 0.1165,
      "velocity": 115,
      "chip": "ym2612"
    },
    {
      "channel": 0,
      "note": 46,
      "start": 11.2169,
      "duration": 0.2332,
      "velocity": 115,
      "chip": "ym2612"
    },
    {
      "channel": 2,
      "note": 58,
      "start": 11.2176,
      "duration": 0.116,
      "velocity": 115,
      "chip": "ym2612"
    },
    {
      "channel": 2,
      "note": 55,
      "start": 11.3337,
      "duration": 0.1171,
      "velocity": 115,
      "chip": "ym2612"
    },
    {
      "channel": 0,
      "note": 43,
      "start": 11.4502,
      "duration": 0.1165,
      "velocity": 115,
      "chip": "ym2612"
    },
    {
      "channel": 2,
      "note": 58,
      "start": 11.4508,
      "duration": 0.1166,
      "velocity": 115,
      "chip": "ym2612"
    },
    {
      "channel": 0,
      "note": 46,
      "start": 11.5669,
      "duration": 0.1332,
      "velocity": 115,
      "chip": "ym2612"
    },
    {
      "channel": 2,
      "note": 53,
      "start": 11.5676,
      "duration": 0.1337,
      "velocity": 115,
      "chip": "ym2612"
    },
    {
      "channel": 0,
      "note": 46,
      "start": 11.7003,
      "duration": 0.1164,
      "velocity": 115,
      "chip": "ym2612"
    },
    {
      "channel": 1,
      "note": 46,
      "start": 11.7009,
      "duration": 0.2331,
      "velocity": 109,
      "chip": "ym2612"
    },
    {
      "channel": 2,
      "note": 53,
      "start": 11.7014,
      "duration": 0.116,
      "velocity": 115,
      "chip": "ym2612"
    },
    {
      "channel": 0,
      "note": 44,
      "start": 11.8169,
      "duration": 0.1166,
      "velocity": 115,
      "chip": "ym2612"
    },
    {
      "channel": 2,
      "note": 53,
      "start": 11.8175,
      "duration": 0.1171,
      "velocity": 115,
      "chip": "ym2612"
    },
    {
      "channel": 0,
      "note": 46,
      "start": 11.9336,
      "duration": 0.2332,
      "velocity": 115,
      "chip": "ym2612"
    },
    {
      "channel": 1,
      "note": 46,
      "start": 11.9341,
      "duration": 0.116,
      "velocity": 109,
      "chip": "ym2612"
    },
    {
      "channel": 2,
      "note": 53,
      "start": 11.9347,
      "duration": 0.1161,
      "velocity": 115,
      "chip": "ym2612"
    },
    {
      "channel": 1,
      "note": 48,
      "start": 12.0504,
      "duration": 0.6003,
      "velocity": 109,
      "chip": "ym2612"
    },
    {
      "channel": 2,
      "note": 65,
      "start": 12.051,
      "duration": 0.1165,
      "velocity": 115,
      "chip": "ym2612"
    },
    {
      "channel": 0,
      "note": 44,
      "start": 12.167,
      "duration": 0.2498,
      "velocity": 115,
      "chip": "ym2612"
    },
    {
      "channel": 2,
      "note": 53,
      "start": 12.1676,
      "duration": 0.1326,
      "velocity": 115,
      "chip": "ym2612"
    },
    {
      "channel": 2,
      "note": 53,
      "start": 12.3004,
      "duration": 0.117,
      "velocity": 115,
      "chip": "ym2612"
    },
    {
      "channel": 0,
      "note": 41,
      "start": 12.4169,
      "duration": 0.1166,
      "velocity": 115,
      "chip": "ym2612"
    },
    {
      "channel": 2,
      "note": 51,
      "start": 12.4176,
      "duration": 0.1165,
      "velocity": 115,
      "chip": "ym2612"
    },
    {
      "channel": 0,
      "note": 46,
      "start": 12.5336,
      "duration": 0.1166,
      "velocity": 115,
      "chip": "ym2612"
    },
    {
      "channel": 2,
      "note": 53,
      "start": 12.5342,
      "duration": 0.1171,
      "velocity": 115,
      "chip": "ym2612"
    },
    {
      "channel": 0,
      "note": 46,
      "start": 12.6503,
      "duration": 0.1164,
      "velocity": 115,
      "chip": "ym2612"
    },
    {
      "channel": 1,
      "note": 46,
      "start": 12.6509,
      "duration": 0.2498,
      "velocity": 109,
      "chip": "ym2612"
    },
    {
      "channel": 2,
      "note": 53,
      "start": 12.6514,
      "duration": 0.116,
      "velocity": 115,
      "chip": "ym2612"
    },
    {
      "channel": 0,
      "note": 44,
      "start": 12.7669,
      "duration": 0.1332,
      "velocity": 115,
      "chip": "ym2612"
    },
    {
      "channel": 2,
      "note": 53,
      "start": 12.7676,
      "duration": 0.1337,
      "velocity": 115,
      "chip": "ym2612"
    },
    {
      "channel": 0,
      "note": 46,
      "start": 12.9002,
      "duration": 0.2332,
      "velocity": 115,
      "chip": "ym2612"
    },
    {
      "channel": 1,
      "note": 46,
      "start": 12.9008,
      "duration": 0.116,
      "velocity": 109,
      "chip": "ym2612"
    },
    {
      "channel": 2,
      "note": 53,
      "start": 12.9013,
      "duration": 0.1161,
      "velocity": 115,
      "chip": "ym2612"
    },
    {
      "channel": 1,
      "note": 48,
      "start": 13.0171,
      "duration": 0.6002,
      "velocity": 109,
      "chip": "ym2612"
    },
    {
      "channel": 2,
      "note": 65,
      "start": 13.0176,
      "duration": 0.1165,
      "velocity": 115,
      "chip": "ym2612"
    },
    {
      "channel": 0,
      "note": 44,
      "start": 13.1337,
      "duration": 0.2331,
      "velocity": 115,
      "chip": "ym2612"
    },
    {
      "channel": 2,
      "note": 53,
      "start": 13.1343,
      "duration": 0.1159,
      "velocity": 115,
      "chip": "ym2612"
    },
    {
      "channel": 2,
      "note": 53,
      "start": 13.2504,
      "duration": 0.117,
      "velocity": 115,
      "chip": "ym2612"
    },
    {
      "channel": 0,
      "note": 41,
      "start": 13.3669,
      "duration": 0.1332,
      "velocity": 115,
      "chip": "ym2612"
    },
    {
      "channel": 2,
      "note": 51,
      "start": 13.3675,
      "duration": 0.1332,
      "velocity": 115,
      "chip": "ym2612"
    },
    {
      "channel": 0,
      "note": 46,
      "start": 13.5002,
      "duration": 0.1166,
      "velocity": 115,
      "chip": "ym2612"
    },
    {
      "channel": 2,
      "note": 53,
      "start": 13.5009,
      "duration": 0.117,
      "velocity": 115,
      "chip": "ym2612"
    },
    {
      "channel": 0,
      "note": 46,
      "start": 13.6169,
      "duration": 0.1165,
      "velocity": 115,
      "chip": "ym2612"
    },
    {
      "channel": 1,
      "note": 46,
      "start": 13.6175,
      "duration": 0.2332,
      "velocity": 109,
      "chip": "ym2612"
    },
    {
      "channel": 2,
      "note": 53,
      "start": 13.6181,
      "duration": 0.116,
      "velocity": 115,
      "chip": "ym2612"
    },
    {
      "channel": 0,
      "note": 44,
      "start": 13.7336,
      "duration": 0.1165,
      "velocity": 115,
      "chip": "ym2612"
    },
    {
      "channel": 2,
      "note": 53,
      "start": 13.7341,
      "duration": 0.117,
      "velocity": 115,
      "chip": "ym2612"
    },
    {
      "channel": 0,
      "note": 46,
      "start": 13.8502,
      "duration": 0.2499,
      "velocity": 115,
      "chip": "ym2612"
    },
    {
      "channel": 1,
      "note": 46,
      "start": 13.8508,
      "duration": 0.1161,
      "velocity": 109,
      "chip": "ym2612"
    },
    {
      "channel": 2,
      "note": 53,
      "start": 13.8513,
      "duration": 0.1161,
      "velocity": 115,
      "chip": "ym2612"
    },
    {
      "channel": 1,
      "note": 48,
      "start": 13.9671,
      "duration": 0.6003,
      "velocity": 109,
      "chip": "ym2612"
    },
    {
      "channel": 2,
      "note": 65,
      "start": 13.9676,
      "duration": 0.1332,
      "velocity": 115,
      "chip": "ym2612"
    },
    {
      "channel": 0,
      "note": 44,
      "start": 14.1003,
      "duration": 0.2331,
      "velocity": 115,
      "chip": "ym2612"
    },
    {
      "channel": 2,
      "note": 53,
      "start": 14.101,
      "duration": 0.1159,
      "velocity": 115,
      "chip": "ym2612"
    },
    {
      "channel": 2,
      "note": 53,
      "start": 14.2171,
      "duration": 0.117,
      "velocity": 115,
      "chip": "ym2612"
    },
    {
      "channel": 0,
      "note": 41,
      "start": 14.3336,
      "duration": 0.1165,
      "velocity": 115,
      "chip": "ym2612"
    },
    {
      "channel": 2,
      "note": 51,
      "start": 14.3342,
      "duration": 0.1165,
      "velocity": 115,
      "chip": "ym2612"
    },
    {
      "channel": 0,
      "note": 46,
      "start": 14.4502,
      "duration": 0.1166,
      "velocity": 115,
      "chip": "ym2612"
    },
    {
      "channel": 2,
      "note": 53,
      "start": 14.4509,
      "duration": 0.1171,
      "velocity": 115,
      "chip": "ym2612"
    },
    {
      "channel": 0,
      "note": 46,
      "start": 14.567,
      "duration": 0.1332,
      "velocity": 115,
      "chip": "ym2612"
    },
    {
      "channel": 1,
      "note": 46,
      "start": 14.5676,
      "duration": 0.2498,
      "velocity": 109,
      "chip": "ym2612"
    },
    {
      "channel": 2,
      "note": 53,
      "start": 14.5681,
      "duration": 0.1327,
      "velocity": 115,
      "chip": "ym2612"
    },
    {
      "channel": 0,
      "note": 44,
      "start": 14.7003,
      "duration": 0.1165,
      "velocity": 115,
      "chip": "ym2612"
    },
    {
      "channel": 2,
      "note": 53,
      "start": 14.701,
      "duration": 0.117,
      "velocity": 115,
      "chip": "ym2612"
    },
    {
      "channel": 0,
      "note": 46,
      "start": 14.817,
      "duration": 0.2332,
      "velocity": 115,
      "chip": "ym2612"
    },
    {
      "channel": 1,
      "note": 46,
      "start": 14.8176,
      "duration": 0.116,
      "velocity": 109,
      "chip": "ym2612"
    },
    {
      "channel": 2,
      "note": 53,
      "start": 14.8181,
      "duration": 0.116,
      "velocity": 115,
      "chip": "ym2612"
    },
    {
      "channel": 1,
      "note": 48,
      "start": 14.9337,
      "duration": 0.6004,
      "velocity": 109,
      "chip": "ym2612"
    },
    {
      "channel": 2,
      "note": 65,
      "start": 14.9343,
      "duration": 0.1165,
      "velocity": 115,
      "chip": "ym2612"
    },
    {
      "channel": 0,
      "note": 44,
      "start": 15.0503,
      "duration": 0.2498,
      "velocity": 115,
      "chip": "ym2612"
    },
    {
      "channel": 2,
      "note": 63,
      "start": 15.051,
      "duration": 0.1159,
      "velocity": 115,
      "chip": "ym2612"
    },
    {
      "channel": 2,
      "note": 60,
      "start": 15.1671,
      "duration": 0.1337,
      "velocity": 115,
      "chip": "ym2612"
    },
    {
      "channel": 0,
      "note": 41,
      "start": 15.3002,
      "duration": 0.1167,
      "velocity": 115,
      "chip": "ym2612"
    },
    {
      "channel": 2,
      "note": 63,
      "start": 15.3009,
      "duration": 0.1167,
      "velocity": 115,
      "chip": "ym2612"
    },
    {
      "channel": 0,
      "note": 48,
      "start": 15.4171,
      "duration": 0.1164,
      "velocity": 115,
      "chip": "ym2612"
    },
    {
      "channel": 2,
      "note": 48,
      "start": 15.4178,
      "duration": 0.1169,
      "velocity": 115,
      "chip": "ym2612"
    },
    {
      "channel": 3,
      "note": 72,
      "start": 15.42,
      "duration": 0.2314,
      "velocity": 104,
      "chip": "ym2612"
    },
    {
      "channel": 4,
      "note": 75,
      "start": 15.4222,
      "duration": 0.2296,
      "velocity": 104,
      "chip": "ym2612"
    },
    {
      "channel": 0,
      "note": 48,
      "start": 15.5337,
      "duration": 0.1165,
      "velocity": 115,
      "chip": "ym2612"
    },
    {
      "channel": 1,
      "note": 46,
      "start": 15.5343,
      "duration": 0.2331,
      "velocity": 109,
      "chip": "ym2612"
    },
    {
      "channel": 2,
      "note": 48,
      "start": 15.5348,
      "duration": 0.116,
      "velocity": 115,
      "chip": "ym2612"
    },
    {
      "channel": 0,
      "note": 46,
      "start": 15.6503,
      "duration": 0.1165,
      "velocity": 115,
      "chip": "ym2612"
    },
    {
      "channel": 2,
      "note": 48,
      "start": 15.651,
      "duration": 0.117,
      "velocity": 115,
      "chip": "ym2612"
    },
    {
      "channel": 3,
      "note": 70,
      "start": 15.6515,
      "duration": 0.117,
      "velocity": 104,
      "chip": "ym2612"
    },
    {
      "channel": 4,
      "note": 72,
      "start": 15.652,
      "duration": 0.2494,
      "velocity": 104,
      "chip": "ym2612"
    },
    {
      "channel": 0,
      "note": 48,
      "start": 15.767,
      "duration": 0.2499,
      "velocity": 115,
      "chip": "ym2612"
    },
    {
      "channel": 1,
      "note": 46,
      "start": 15.7676,
      "duration": 0.1326,
      "velocity": 109,
      "chip": "ym2612"
    },
    {
      "channel": 2,
      "note": 48,
      "start": 15.7681,
      "duration": 0.1327,
      "velocity": 115,
      "chip": "ym2612"
    },
    {
      "channel": 3,
      "note": 72,
      "start": 15.7686,
      "duration": 0.2494,
      "velocity": 104,
      "chip": "ym2612"
    },
    {
      "channel": 1,
      "note": 48,
      "start": 15.9004,
      "duration": 0.6003,
      "velocity": 109,
      "chip": "ym2612"
    },
    {
      "channel": 2,
      "note": 60,
      "start": 15.901,
      "duration": 0.1165,
      "velocity": 115,
      "chip": "ym2612"
    },
    {
      "channel": 4,
      "note": 70,
      "start": 15.9015,
      "duration": 0.1171,
      "velocity": 104,
      "chip": "ym2612"
    },
    {
      "channel": 0,
      "note": 46,
      "start": 16.017,
      "duration": 0.2332,
      "velocity": 115,
      "chip": "ym2612"
    },
    {
      "channel": 2,
      "note": 48,
      "start": 16.0176,
      "duration": 0.116,
      "velocity": 115,
      "chip": "ym2612"
    },
    {
      "channel": 3,
      "note": 79,
      "start": 16.0182,
      "duration": 0.1159,
      "velocity": 104,
      "chip": "ym2612"
    },
    {
      "channel": 4,
      "note": 72,
      "start": 16.0188,
      "duration": 0.2326,
      "velocity": 104,
      "chip": "ym2612"
    },
    {
      "channel": 2,
      "note": 48,
      "start": 16.1337,
      "duration": 0.117,
      "velocity": 115,
      "chip": "ym2612"
    },
    {
      "channel": 3,
      "note": 82,
      "start": 16.1343,
      "duration": 0.2337,
      "velocity": 104,
      "chip": "ym2612"
    },
    {
      "channel": 0,
      "note": 43,
      "start": 16.2502,
      "duration": 0.1166,
      "velocity": 115,
      "chip": "ym2612"
    },
    {
      "channel": 2,
      "note": 46,
      "start": 16.2509,
      "duration": 0.1166,
      "velocity": 115,
      "chip": "ym2612"
    },
    {
      "channel": 4,
      "note": 79,
      "start": 16.2515,
      "duration": 0.117,
      "velocity": 104,
      "chip": "ym2612"
    },
    {
      "channel": 0,
      "note": 48,
      "start": 16.367,
      "duration": 0.1332,
      "velocity": 115,
      "chip": "ym2612"
    },
    {
      "channel": 2,
      "note": 48,
      "start": 16.3676,
      "duration": 0.1337,
      "velocity": 115,
      "chip": "ym2612"
    },
    {
      "channel": 3,
      "note": 87,
      "start": 16.3681,
      "duration": 0.2498,
      "velocity": 104,
      "chip": "ym2612"
    },
    {
      "channel": 4,
      "note": 82,
      "start": 16.3687,
      "duration": 0.2498,
      "velocity": 104,
      "chip": "ym2612"
    },
    {
      "channel": 0,
      "note": 48,
      "start": 16.5003,
      "duration": 0.1165,
      "velocity": 115,
      "chip": "ym2612"
    },
    {
      "channel": 1,
      "note": 46,
      "start": 16.5009,
      "duration": 0.2332,
      "velocity": 109,
      "chip": "ym2612"
    },
    {
      "channel": 2,
      "note": 48,
      "start": 16.5015,
      "duration": 0.116,
      "velocity": 115,
      "chip": "ym2612"
    },
    {
      "channel": 0,
      "note": 46,
      "start": 16.617,
      "duration": 0.1165,
      "velocity": 115,
      "chip": "ym2612"
    },
    {
      "channel": 2,
      "note": 48,
      "start": 16.6176,
      "duration": 0.117,
      "velocity": 115,
      "chip": "ym2612"
    },
    {
      "channel": 3,
      "note": 79,
      "start": 16.6181,
      "duration": 0.117,
      "velocity": 104,
      "chip": "ym2612"
    },
    {
      "channel": 4,
      "note": 87,
      "start": 16.6187,
      "duration": 0.2327,
      "velocity": 104,
      "chip": "ym2612"
    },
    {
      "channel": 0,
      "note": 48,
      "start": 16.7337,
      "duration": 0.2332,
      "velocity": 115,
      "chip": "ym2612"
    },
    {
      "channel": 1,
      "note": 46,
      "start": 16.7341,
      "duration": 0.1161,
      "velocity": 109,
      "chip": "ym2612"
    },
    {
      "channel": 2,
      "note": 48,
      "start": 16.7347,
      "duration": 0.116,
      "velocity": 115,
      "chip": "ym2612"
    },
    {
      "channel": 3,
      "note": 86,
      "start": 16.7353,
      "duration": 0.2327,
      "velocity": 104,
      "chip": "ym2612"
    },
    {
      "channel": 1,
      "note": 48,
      "start": 16.8504,
      "duration": 0.6003,
      "velocity": 109,
      "chip": "ym2612"
    },
    {
      "channel": 2,
      "note": 60,
      "start": 16.851,
      "duration": 0.1165,
      "velocity": 115,
      "chip": "ym2612"
    },
    {
      "channel": 4,
      "note": 79,
      "start": 16.8516,
      "duration": 0.117,
      "velocity": 104,
      "chip": "ym2612"
    },
    {
      "channel": 0,
      "note": 46,
      "start": 16.967,
      "duration": 0.2498,
      "velocity": 115,
      "chip": "ym2612"
    },
    {
      "channel": 2,
      "note": 48,
      "start": 16.9676,
      "duration": 0.1326,
      "velocity": 115,
      "chip": "ym2612"
    },
    {
      "channel": 3,
      "note": 79,
      "start": 16.9682,
      "duration": 0.1326,
      "velocity": 104,
      "chip": "ym2612"
    },
    {
      "channel": 4,
      "note": 86,
      "start": 16.9688,
      "duration": 0.2492,
      "velocity": 104,
      "chip": "ym2612"
    },
    {
      "channel": 2,
      "note": 48,
      "start": 17.1004,
      "duration": 0.117,
      "velocity": 115,
      "chip": "ym2612"
    },
    {
      "channel": 3,
      "note": 82,
      "start": 17.101,
      "duration": 0.2337,
      "velocity": 104,
      "chip": "ym2612"
    },
    {
      "channel": 0,
      "note": 43,
      "start": 17.2169,
      "duration": 0.1166,
      "velocity": 115,
      "chip": "ym2612"
    },
    {
      "channel": 2,
      "note": 46,
      "start": 17.2176,
      "duration": 0.1166,
      "velocity": 115,
      "chip": "ym2612"
    },
    {
      "channel": 4,
      "note": 79,
      "start": 17.2182,
      "duration": 0.117,
      "velocity": 104,
      "chip": "ym2612"
    },
    {
      "channel": 0,
      "note": 48,
      "start": 17.3337,
      "duration": 0.1165,
      "velocity": 115,
      "chip": "ym2612"
    },
    {
      "channel": 2,
      "note": 48,
      "start": 17.3342,
      "duration": 0.1171,
      "velocity": 115,
      "chip": "ym2612"
    },
    {
      "channel": 3,
      "note": 72,
      "start": 17.3348,
      "duration": 0.2332,
      "velocity": 104,
      "chip": "ym2612"
    },
    {
      "channel": 4,
      "note": 82,
      "start": 17.3354,
      "duration": 0.2331,
      "velocity": 104,
      "chip": "ym2612"
    },
    {
      "channel": 0,
      "note": 48,
      "start": 17.4503,
      "duration": 0.1165,
      "velocity": 115,
      "chip": "ym2612"
    },
    {
      "channel": 1,
      "note": 46,
      "start": 17.4509,
      "duration": 0.2498,
      "velocity": 109,
      "chip": "ym2612"
    },
    {
      "channel": 2,
      "note": 48,
      "start": 17.4514,
      "duration": 0.116,
      "velocity": 115,
      "chip": "ym2612"
    },
    {
      "channel": 0,
      "note": 46,
      "start": 17.567,
      "duration": 0.1332,
      "velocity": 115,
      "chip": "ym2612"
    },
    {
      "channel": 2,
      "note": 48,
      "start": 17.5676,
      "duration": 0.1337,
      "velocity": 115,
      "chip": "ym2612"
    },
    {
      "channel": 3,
      "note": 70,
      "start": 17.5681,
      "duration": 0.1337,
      "velocity": 104,
      "chip": "ym2612"
    },
    {
      "channel": 4,
      "note": 72,
      "start": 17.5687,
      "duration": 0.2494,
      "velocity": 104,
      "chip": "ym2612"
    },
    {
      "channel": 0,
      "note": 48,
      "start": 17.7003,
      "duration": 0.2332,
      "velocity": 115,
      "chip": "ym2612"
    },
    {
      "channel": 1,
      "note": 46,
      "start": 17.7009,
      "duration": 0.116,
      "velocity": 109,
      "chip": "ym2612"
    },
    {
      "channel": 2,
      "note": 48,
      "start": 17.7014,
      "duration": 0.116,
      "velocity": 115,
      "chip": "ym2612"
    },
    {
      "channel": 3,
      "note": 72,
      "start": 17.702,
      "duration": 0.2328,
      "velocity": 104,
      "chip": "ym2612"
    },
    {
      "channel": 1,
      "note": 48,
      "start": 17.8171,
      "duration": 0.6003,
      "velocity": 109,
      "chip": "ym2612"
    },
    {
      "channel": 2,
      "note": 60,
      "start": 17.8176,
      "duration": 0.1165,
      "velocity": 115,
      "chip": "ym2612"
    },
    {
      "channel": 4,
      "note": 70,
      "start": 17.8182,
      "duration": 0.1171,
      "velocity": 104,
      "chip": "ym2612"
    },
    {
      "channel": 0,
      "note": 46,
      "start": 17.9337,
      "duration": 0.2331,
      "velocity": 115,
      "chip": "ym2612"
    },
    {
      "channel": 2,
      "note": 48,
      "start": 17.9344,
      "duration": 0.1159,
      "velocity": 115,
      "chip": "ym2612"
    },
    {
      "channel": 3,
      "note": 79,
      "start": 17.9349,
      "duration": 0.1159,
      "velocity": 104,
      "chip": "ym2612"
    },
    {
      "channel": 4,
      "note": 72,
      "start": 17.9354,
      "duration": 0.2326,
      "velocity": 104,
      "chip": "ym2612"
    },
    {
      "channel": 2,
      "note": 48,
      "start": 18.0505,
      "duration": 0.117,
      "velocity": 115,
      "chip": "ym2612"
    },
    {
      "channel": 3,
      "note": 82,
      "start": 18.051,
      "duration": 0.2503,
      "velocity": 104,
      "chip": "ym2612"
    },
    {
      "channel": 0,
      "note": 43,
      "start": 18.167,
      "duration": 0.1332,
      "velocity": 115,
      "chip": "ym2612"
    },
    {
      "channel": 2,
      "note": 46,
      "start": 18.1676,
      "duration": 0.1332,
      "velocity": 115,
      "chip": "ym2612"
    },
    {
      "channel": 4,
      "note": 79,
      "start": 18.1682,
      "duration": 0.1337,
      "velocity": 104,
      "chip": "ym2612"
    },
    {
      "channel": 0,
      "note": 48,
      "start": 18.3003,
      "duration": 0.1165,
      "velocity": 115,
      "chip": "ym2612"
    },
    {
      "channel": 2,
      "note": 48,
      "start": 18.301,
      "duration": 0.117,
      "velocity": 115,
      "chip": "ym2612"
    },
    {
      "channel": 3,
      "note": 87,
      "start": 18.3015,
      "duration": 0.2332,
      "velocity": 104,
      "chip": "ym2612"
    },
    {
      "channel": 4,
      "note": 82,
      "start": 18.302,
      "duration": 0.2332,
      "velocity": 104,
      "chip": "ym2612"
    },
    {
      "channel": 0,
      "note": 48,
      "start": 18.417,
      "duration": 0.1165,
      "velocity": 115,
      "chip": "ym2612"
    },
    {
      "channel": 1,
      "note": 46,
      "start": 18.4176,
      "duration": 0.2332,
      "velocity": 109,
      "chip": "ym2612"
    },
    {
      "channel": 2,
      "note": 48,
      "start": 18.4181,
      "duration": 0.116,
      "velocity": 115,
      "chip": "ym2612"
    },
    {
      "channel": 0,
      "note": 46,
      "start": 18.5337,
      "duration": 0.1165,
      "velocity": 115,
      "chip": "ym2612"
    },
    {
      "channel": 2,
      "note": 48,
      "start": 18.5343,
      "duration": 0.117,
      "velocity": 115,
      "chip": "ym2612"
    },
    {
      "channel": 3,
      "note": 79,
      "start": 18.5349,
      "duration": 0.1169,
      "velocity": 104,
      "chip": "ym2612"
    },
    {
      "channel": 4,
      "note": 87,
      "start": 18.5354,
      "duration": 0.2327,
      "velocity": 104,
      "chip": "ym2612"
    },
    {
      "channel": 0,
      "note": 48,
      "start": 18.6503,
      "duration": 0.2499,
      "velocity": 115,
      "chip": "ym2612"
    },
    {
      "channel": 1,
      "note": 46,
      "start": 18.6509,
      "duration": 0.116,
      "velocity": 109,
      "chip": "ym2612"
    },
    {
      "channel": 2,
      "note": 48,
      "start": 18.6514,
      "duration": 0.116,
      "velocity": 115,
      "chip": "ym2612"
    },
    {
      "channel": 3,
      "note": 86,
      "start": 18.652,
      "duration": 0.2494,
      "velocity": 104,
      "chip": "ym2612"
    },
    {
      "channel": 1,
      "note": 48,
      "start": 18.7671,
      "duration": 0.6003,
      "velocity": 109,
      "chip": "ym2612"
    },
    {
      "channel": 2,
      "note": 60,
      "start": 18.7676,
      "duration": 0.1332,
      "velocity": 115,
      "chip": "ym2612"
    },
    {
      "channel": 4,
      "note": 79,
      "start": 18.7682,
      "duration": 0.1337,
      "velocity": 104,
      "chip": "ym2612"
    },
    {
      "channel": 0,
      "note": 46,
      "start": 18.9004,
      "duration": 0.2331,
      "velocity": 115,
      "chip": "ym2612"
    },
    {
      "channel": 2,
      "note": 58,
      "start": 18.901,
      "duration": 0.116,
      "velocity": 115,
      "chip": "ym2612"
    },
    {
      "channel": 3,
      "note": 79,
      "start": 18.9015,
      "duration": 0.116,
      "velocity": 104,
      "chip": "ym2612"
    },
    {
      "channel": 4,
      "note": 86,
      "start": 18.9021,
      "duration": 0.2326,
      "velocity": 104,
      "chip": "ym2612"
    },
    {
      "channel": 2,
      "note": 55,
      "start": 19.0171,
      "duration": 0.117,
      "velocity": 115,
      "chip": "ym2612"
    },
    {
      "channel": 3,
      "note": 82,
      "start": 19.0177,
      "duration": 0.2337,
      "velocity": 104,
      "chip": "ym2612"
    },
    {
      "channel": 0,
      "note": 43,
      "start": 19.1337,
      "duration": 0.1165,
      "velocity": 115,
      "chip": "ym2612"
    },
    {
      "channel": 2,
      "note": 58,
      "start": 19.1343,
      "duration": 0.1165,
      "velocity": 115,
      "chip": "ym2612"
    },
    {
      "channel": 4,
      "note": 79,
      "start": 19.1349,
      "duration": 0.1171,
      "velocity": 104,
      "chip": "ym2612"
    },
    {
      "channel": 0,
      "note": 46,
      "start": 19.2503,
      "duration": 0.1165,
      "velocity": 115,
      "chip": "ym2612"
    },
    {
      "channel": 2,
      "note": 53,
      "start": 19.251,
      "duration": 0.117,
      "velocity": 115,
      "chip": "ym2612"
    },
    {
      "channel": 3,
      "note": 65,
      "start": 19.2515,
      "duration": 0.2498,
      "velocity": 104,
      "chip": "ym2612"
    },
    {
      "channel": 4,
      "note": 82,
      "start": 19.252,
      "duration": 0.2498,
      "velocity": 104,
      "chip": "ym2612"
    },
    {
      "channel": 0,
      "note": 46,
      "start": 19.367,
      "duration": 0.1332,
      "velocity": 115,
      "chip": "ym2612"
    },
    {
      "channel": 1,
      "note": 46,
      "start": 19.3676,
      "duration": 0.2498,
      "velocity": 109,
      "chip": "ym2612"
    },
    {
      "channel": 2,
      "note": 53,
      "start": 19.3681,
      "duration": 0.1327,
      "velocity": 115,
      "chip": "ym2612"
    },
    {
      "channel": 0,
      "note": 44,
      "start": 19.5003,
      "duration": 0.1165,
      "velocity": 115,
      "chip": "ym2612"
    },
    {
      "channel": 2,
      "note": 53,
      "start": 19.501,
      "duration": 0.117,
      "velocity": 115,
      "chip": "ym2612"
    },
    {
      "channel": 3,
      "note": 63,
      "start": 19.5015,
      "duration": 0.117,
      "velocity": 104,
      "chip": "ym2612"
    },
    {
      "channel": 4,
      "note": 65,
      "start": 19.502,
      "duration": 0.2327,
      "velocity": 104,
      "chip": "ym2612"
    },
    {
      "channel": 0,
      "note": 46,
      "start": 19.617,
      "duration": 0.2332,
      "velocity": 115,
      "chip": "ym2612"
    },
    {
      "channel": 1,
      "note": 46,
      "start": 19.6176,
      "duration": 0.116,
      "velocity": 109,
      "chip": "ym2612"
    },
    {
      "channel": 2,
      "note": 53,
      "start": 19.6181,
      "duration": 0.116,
      "velocity": 115,
      "chip": "ym2612"
    },
    {
      "channel": 3,
      "note": 65,
      "start": 19.6186,
      "duration": 0.2328,
      "velocity": 104,
      "chip": "ym2612"
    },
    {
      "channel": 1,
      "note": 48,
      "start": 19.7337,
      "duration": 0.6003,
      "velocity": 109,
      "chip": "ym2612"
    },
    {
      "channel": 2,
      "note": 65,
      "start": 19.7343,
      "duration": 0.1165,
      "velocity": 115,
      "chip": "ym2612"
    },
    {
      "channel": 4,
      "note": 63,
      "start": 19.7349,
      "duration": 0.1171,
      "velocity": 104,
      "chip": "ym2612"
    },
    {
      "channel": 0,
      "note": 44,
      "start": 19.8504,
      "duration": 0.2498,
      "velocity": 115,
      "chip": "ym2612"
    },
    {
      "channel": 2,
      "note": 53,
      "start": 19.851,
      "duration": 0.116,
      "velocity": 115,
      "chip": "ym2612"
    },
    {
      "channel": 3,
      "note": 72,
      "start": 19.8515,
      "duration": 0.116,
      "velocity": 104,
      "chip": "ym2612"
    },
    {
      "channel": 4,
      "note": 65,
      "start": 19.8521,
      "duration": 0.2493,
      "velocity": 104,
      "chip": "ym2612"
    },
    {
      "channel": 2,
      "note": 53,
      "start": 19.9671,
      "duration": 0.1337,
      "velocity": 115,
      "chip": "ym2612"
    },
    {
      "channel": 3,
      "note": 75,
      "start": 19.9677,
      "duration": 0.2503,
      "velocity": 104,
      "chip": "ym2612"
    },
    {
      "channel": 0,
      "note": 41,
      "start": 20.1003,
      "duration": 0.1165,
      "velocity": 115,
      "chip": "ym2612"
    },
    {
      "channel": 2,
      "note": 51,
      "start": 20.101,
      "duration": 0.1165,
      "velocity": 115,
      "chip": "ym2612"
    },
    {
      "channel": 4,
      "note": 72,
      "start": 20.1015,
      "duration": 0.117,
      "velocity": 104,
      "chip": "ym2612"
    },
    {
      "channel": 0,
      "note": 46,
      "start": 20.217,
      "duration": 0.1165,
      "velocity": 115,
      "chip": "ym2612"
    },
    {
      "channel": 2,
      "note": 53,
      "start": 20.2176,
      "duration": 0.1171,
      "velocity": 115,
      "chip": "ym2612"
    },
    {
      "channel": 3,
      "note": 80,
      "start": 20.2181,
      "duration": 0.2332,
      "velocity": 104,
      "chip": "ym2612"
    },
    {
      "channel": 4,
      "note": 75,
      "start": 20.2187,
      "duration": 0.2332,
      "velocity": 104,
      "chip": "ym2612"
    },
    {
      "channel": 0,
      "note": 46,
      "start": 20.3337,
      "duration": 0.1165,
      "velocity": 115,
      "chip": "ym2612"
    },
    {
      "channel": 1,
      "note": 46,
      "start": 20.3342,
      "duration": 0.2332,
      "velocity": 109,
      "chip": "ym2612"
    },
    {
      "channel": 2,
      "note": 53,
      "start": 20.3347,
      "duration": 0.116,
      "velocity": 115,
      "chip": "ym2612"
    },
    {
      "channel": 0,
      "note": 44,
      "start": 20.4503,
      "duration": 0.1165,
      "velocity": 115,
      "chip": "ym2612"
    },
    {
      "channel": 2,
      "note": 53,
      "start": 20.451,
      "duration": 0.117,
      "velocity": 115,
      "chip": "ym2612"
    },
    {
      "channel": 3,
      "note": 72,
      "start": 20.4515,
      "duration": 0.1169,
      "velocity": 104,
      "chip": "ym2612"
    },
    {
      "channel": 4,
      "note": 80,
      "start": 20.452,
      "duration": 0.2494,
      "velocity": 104,
      "chip": "ym2612"
    },
    {
      "channel": 0,
      "note": 46,
      "start": 20.567,
      "duration": 0.2499,
      "velocity": 115,
      "chip": "ym2612"
    },
    {
      "channel": 1,
      "note": 46,
      "start": 20.5676,
      "duration": 0.1326,
      "velocity": 109,
      "chip": "ym2612"
    },
    {
      "channel": 2,
      "note": 53,
      "start": 20.5681,
      "duration": 0.1327,
      "velocity": 115,
      "chip": "ym2612"
    },
    {
      "channel": 3,
      "note": 79,
      "start": 20.5686,
      "duration": 0.2494,
      "velocity": 104,
      "chip": "ym2612"
    },
    {
      "channel": 1,
      "note": 48,
      "start": 20.7004,
      "duration": 0.6003,
      "velocity": 109,
      "chip": "ym2612"
    },
    {
      "channel": 2,
      "note": 65,
      "start": 20.701,
      "duration": 0.1165,
      "velocity": 115,
      "chip": "ym2612"
    },
    {
      "channel": 4,
      "note": 72,
      "start": 20.7015,
      "duration": 0.1171,
      "velocity": 104,
      "chip": "ym2612"
    },
    {
      "channel": 0,
      "note": 44,
      "start": 20.8171,
      "duration": 0.2331,
      "velocity": 115,
      "chip": "ym2612"
    },
    {
      "channel": 2,
      "note": 53,
      "start": 20.8177,
      "duration": 0.1159,
      "velocity": 115,
      "chip": "ym2612"
    },
    {
      "channel": 3,
      "note": 72,
      "start": 20.8183,
      "duration": 0.1159,
      "velocity": 104,
      "chip": "ym2612"
    },
    {
      "channel": 4,
      "note": 79,
      "start": 20.8188,
      "duration": 0.2326,
      "velocity": 104,
      "chip": "ym2612"
    },
    {
      "channel": 2,
      "note": 53,
      "start": 20.9338,
      "duration": 0.117,
      "velocity": 115,
      "chip": "ym2612"
    },
    {
      "channel": 3,
      "note": 75,
      "start": 20.9344,
      "duration": 0.2337,
      "velocity": 104,
      "chip": "ym2612"
    },
    {
      "channel": 0,
      "note": 41,
      "start": 21.0503,
      "duration": 0.1165,
      "velocity": 115,
      "chip": "ym2612"
    },
    {
      "channel": 2,
      "note": 51,
      "start": 21.0509,
      "duration": 0.1166,
      "velocity": 115,
      "chip": "ym2612"
    },
    {
      "channel": 4,
      "note": 72,
      "start": 21.0515,
      "duration": 0.117,
      "velocity": 104,
      "chip": "ym2612"
    },
    {
      "channel": 0,
      "note": 46,
      "start": 21.167,
      "duration": 0.1332,
      "velocity": 115,
      "chip": "ym2612"
    },
    {
      "channel": 2,
      "note": 53,
      "start": 21.1676,
      "duration": 0.1337,
      "velocity": 115,
      "chip": "ym2612"
    },
    {
      "channel": 3,
      "note": 65,
      "start": 21.1681,
      "duration": 0.2499,
      "velocity": 104,
      "chip": "ym2612"
    },
    {
      "channel": 4,
      "note": 75,
      "start": 21.1687,
      "duration": 0.2498,
      "velocity": 104,
      "chip": "ym2612"
    },
    {
      "channel": 0,
      "note": 46,
      "start": 21.3003,
      "duration": 0.1165,
      "velocity": 115,
      "chip": "ym2612"
    },
    {
      "channel": 1,
      "note": 46,
      "start": 21.3009,
      "duration": 0.2332,
      "velocity": 109,
      "chip": "ym2612"
    },
    {
      "channel": 2,
      "note": 53,
      "start": 21.3014,
      "duration": 0.116,
      "velocity": 115,
      "chip": "ym2612"
    },
    {
      "channel": 0,
      "note": 44,
      "start": 21.417,
      "duration": 0.1165,
      "velocity": 115,
      "chip": "ym2612"
    },
    {
      "channel": 2,
      "note": 53,
      "start": 21.4176,
      "duration": 0.117,
      "velocity": 115,
      "chip": "ym2612"
    },
    {
      "channel": 3,
      "note": 63,
      "start": 21.4181,
      "duration": 0.117,
      "velocity": 104,
      "chip": "ym2612"
    },
    {
      "channel": 4,
      "note": 65,
      "start": 21.4187,
      "duration": 0.2326,
      "velocity": 104,
      "chip": "ym2612"
    },
    {
      "channel": 0,
      "note": 46,
      "start": 21.5337,
      "duration": 0.2332,
      "velocity": 115,
      "chip": "ym2612"
    },
    {
      "channel": 1,
      "note": 46,
      "start": 21.5342,
      "duration": 0.116,
      "velocity": 109,
      "chip": "ym2612"
    },
    {
      "channel": 2,
      "note": 53,
      "start": 21.5347,
      "duration": 0.116,
      "velocity": 115,
      "chip": "ym2612"
    },
    {
      "channel": 3,
      "note": 65,
      "start": 21.5353,
      "duration": 0.2327,
      "velocity": 104,
      "chip": "ym2612"
    },
    {
      "channel": 1,
      "note": 48,
      "start": 21.6504,
      "duration": 0.6003,
      "velocity": 109,
      "chip": "ym2612"
    },
    {
      "channel": 2,
      "note": 65,
      "start": 21.6509,
      "duration": 0.1166,
      "velocity": 115,
      "chip": "ym2612"
    },
    {
      "channel": 4,
      "note": 63,
      "start": 21.6515,
      "duration": 0.1171,
      "velocity": 104,
      "chip": "ym2612"
    },
    {
      "channel": 0,
      "note": 44,
      "start": 21.767,
      "duration": 0.2498,
      "velocity": 115,
      "chip": "ym2612"
    },
    {
      "channel": 2,
      "note": 53,
      "start": 21.7676,
      "duration": 0.1326,
      "velocity": 115,
      "chip": "ym2612"
    },
    {
      "channel": 3,
      "note": 72,
      "start": 21.7682,
      "duration": 0.1326,
      "velocity": 104,
      "chip": "ym2612"
    },
    {
      "channel": 4,
      "note": 65,
      "start": 21.7688,
      "duration": 0.2492,
      "velocity": 104,
      "chip": "ym2612"
    },
    {
      "channel": 2,
      "note": 53,
      "start": 21.9004,
      "duration": 0.117,
      "velocity": 115,
      "chip": "ym2612"
    },
    {
      "channel": 3,
      "note": 75,
      "start": 21.901,
      "duration": 0.2337,
      "velocity": 104,
      "chip": "ym2612"
    },
    {
      "channel": 0,
      "note": 41,
      "start": 22.0169,
      "duration": 0.1166,
      "velocity": 115,
      "chip": "ym2612"
    },
    {
      "channel": 2,
      "note": 51,
      "start": 22.0176,
      "duration": 0.1166,
      "velocity": 115,
      "chip": "ym2612"
    },
    {
      "channel": 4,
      "note": 72,
      "start": 22.0182,
      "duration": 0.117,
      "velocity": 104,
      "chip": "ym2612"
    },
    {
      "channel": 0,
      "note": 46,
      "start": 22.1337,
      "duration": 0.1165,
      "velocity": 115,
      "chip": "ym2612"
    },
    {
      "channel": 2,
      "note": 53,
      "start": 22.1342,
      "duration": 0.1171,
      "velocity": 115,
      "chip": "ym2612"
    },
    {
      "channel": 3,
      "note": 80,
      "start": 22.1348,
      "duration": 0.2332,
      "velocity": 104,
      "chip": "ym2612"
    },
    {
      "channel": 4,
      "note": 75,
      "start": 22.1354,
      "duration": 0.2332,
      "velocity": 104,
      "chip": "ym2612"
    },
    {
      "channel": 0,
      "note": 46,
      "start": 22.2503,
      "duration": 0.1165,
      "velocity": 115,
      "chip": "ym2612"
    },
    {
      "channel": 1,
      "note": 46,
      "start": 22.2509,
      "duration": 0.2498,
      "velocity": 109,
      "chip": "ym2612"
    },
    {
      "channel": 2,
      "note": 53,
      "start": 22.2515,
      "duration": 0.116,
      "velocity": 115,
      "chip": "ym2612"
    },
    {
      "channel": 0,
      "note": 44,
      "start": 22.367,
      "duration": 0.1332,
      "velocity": 115,
      "chip": "ym2612"
    },
    {
      "channel": 2,
      "note": 53,
      "start": 22.3676,
      "duration": 0.1337,
      "velocity": 115,
      "chip": "ym2612"
    },
    {
      "channel": 3,
      "note": 72,
      "start": 22.3682,
      "duration": 0.1337,
      "velocity": 104,
      "chip": "ym2612"
    },
    {
      "channel": 4,
      "note": 80,
      "start": 22.3687,
      "duration": 0.2494,
      "velocity": 104,
      "chip": "ym2612"
    },
    {
      "channel": 0,
      "note": 46,
      "start": 22.5003,
      "duration": 0.2332,
      "velocity": 115,
      "chip": "ym2612"
    },
    {
      "channel": 1,
      "note": 46,
      "start": 22.5009,
      "duration": 0.116,
      "velocity": 109,
      "chip": "ym2612"
    },
    {
      "channel": 2,
      "note": 53,
      "start": 22.5015,
      "duration": 0.116,
      "velocity": 115,
      "chip": "ym2612"
    },
    {
      "channel": 3,
      "note": 79,
      "start": 22.502,
      "duration": 0.2326,
      "velocity": 104,
      "chip": "ym2612"
    },
    {
      "channel": 1,
      "note": 48,
      "start": 22.6171,
      "duration": 0.6004,
      "velocity": 109,
      "chip": "ym2612"
    },
    {
      "channel": 2,
      "note": 65,
      "start": 22.6176,
      "duration": 0.1165,
      "velocity": 115,
      "chip": "ym2612"
    },
    {
      "channel": 4,
      "note": 72,
      "start": 22.6183,
      "duration": 0.117,
      "velocity": 104,
      "chip": "ym2612"
    },
    {
      "channel": 0,
      "note": 44,
      "start": 22.7337,
      "duration": 0.2332,
      "velocity": 115,
      "chip": "ym2612"
    },
    {
      "channel": 2,
      "note": 63,
      "start": 22.7343,
      "duration": 0.116,
      "velocity": 115,
      "chip": "ym2612"
    },
    {
      "channel": 3,
      "note": 72,
      "start": 22.7349,
      "duration": 0.1159,
      "velocity": 104,
      "chip": "ym2612"
    },
    {
      "channel": 4,
      "note": 79,
      "start": 22.7354,
      "duration": 0.2326,
      "velocity": 104,
      "chip": "ym2612"
    },
    {
      "channel": 2,
      "note": 60,
      "start": 22.8504,
      "duration": 0.1171,
      "velocity": 115,
      "chip": "ym2612"
    },
    {
      "channel": 3,
      "note": 75,
      "start": 22.851,
      "duration": 0.2506,
      "velocity": 104,
      "chip": "ym2612"
    },
    {
      "channel": 0,
      "note": 41,
      "start": 22.967,
      "duration": 0.1333,
      "velocity": 115,
      "chip": "ym2612"
    },
    {
      "channel": 2,
      "note": 63,
      "start": 22.9676,
      "duration": 0.1334,
      "velocity": 115,
      "chip": "ym2612"
    },
    {
      "channel": 4,
      "note": 72,
      "start": 22.9682,
      "duration": 0.134,
      "velocity": 104,
      "chip": "ym2612"
    },
    {
      "channel": 0,
      "note": 48,
      "start": 23.1005,
      "duration": 0.1164,
      "velocity": 115,
      "chip": "ym2612"
    },
    {
      "channel": 2,
      "note": 48,
      "start": 23.1011,
      "duration": 0.1169,
      "velocity": 115,
      "chip": "ym2612"
    },
    {
      "channel": 3,
      "note": 72,
      "start": 23.1017,
      "duration": 0.2329,
      "velocity": 104,
      "chip": "ym2612"
    },
    {
      "channel": 4,
      "note": 75,
      "start": 23.1024,
      "duration": 0.2328,
      "velocity": 104,
      "chip": "ym2612"
    },
    {
      "channel": 0,
      "note": 48,
      "start": 23.2171,
      "duration": 0.1164,
      "velocity": 115,
      "chip": "ym2612"
    },
    {
      "channel": 1,
      "note": 46,
      "start": 23.2177,
      "duration": 0.233,
      "velocity": 109,
      "chip": "ym2612"
    },
    {
      "channel": 2,
      "note": 48,
      "start": 23.2182,
      "duration": 0.1159,
      "velocity": 115,
      "chip": "ym2612"
    },
    {
      "channel": 0,
      "note": 46,
      "start": 23.3337,
      "duration": 0.1165,
      "velocity": 115,
      "chip": "ym2612"
    },
    {
      "channel": 2,
      "note": 48,
      "start": 23.3342,
      "duration": 0.1171,
      "velocity": 115,
      "chip": "ym2612"
    },
    {
      "channel": 3,
      "note": 70,
      "start": 23.3348,
      "duration": 0.117,
      "velocity": 104,
      "chip": "ym2612"
    },
    {
      "channel": 4,
      "note": 72,
      "start": 23.3354,
      "duration": 0.2327,
      "velocity": 104,
      "chip": "ym2612"
    },
    {
      "channel": 0,
      "note": 48,
      "start": 23.4503,
      "duration": 0.2499,
      "velocity": 115,
      "chip": "ym2612"
    },
    {
      "channel": 1,
      "note": 46,
      "start": 23.4509,
      "duration": 0.116,
      "velocity": 109,
      "chip": "ym2612"
    },
    {
      "channel": 2,
      "note": 48,
      "start": 23.4514,
      "duration": 0.116,
      "velocity": 115,
      "chip": "ym2612"
    },
    {
      "channel": 3,
      "note": 72,
      "start": 23.452,
      "duration": 0.2494,
      "velocity": 104,
      "chip": "ym2612"
    },
    {
      "channel": 1,
      "note": 48,
      "start": 23.5671,
      "duration": 0.6003,
      "velocity": 109,
      "chip": "ym2612"
    },
    {
      "channel": 2,
      "note": 60,
      "start": 23.5676,
      "duration": 0.1332,
      "velocity": 115,
      "chip": "ym2612"
    },
    {
      "channel": 4,
      "note": 70,
      "start": 23.5682,
      "duration": 0.1337,
      "velocity": 104,
      "chip": "ym2612"
    },
    {
      "channel": 0,
      "note": 46,
      "start": 23.7004,
      "duration": 0.2331,
      "velocity": 115,
      "chip": "ym2612"
    },
    {
      "channel": 2,
      "note": 48,
      "start": 23.701,
      "duration": 0.116,
      "velocity": 115,
      "chip": "ym2612"
    },
    {
      "channel": 3,
      "note": 79,
      "start": 23.7015,
      "duration": 0.116,
      "velocity": 104,
      "chip": "ym2612"
    },
    {
      "channel": 4,
      "note": 72,
      "start": 23.7021,
      "duration": 0.2326,
      "velocity": 104,
      "chip": "ym2612"
    },
    {
      "channel": 2,
      "note": 48,
      "start": 23.8171,
      "duration": 0.117,
      "velocity": 115,
      "chip": "ym2612"
    },
    {
      "channel": 3,
      "note": 82,
      "start": 23.8177,
      "duration": 0.2337,
      "velocity": 104,
      "chip": "ym2612"
    },
    {
      "channel": 0,
      "note": 43,
      "start": 23.9337,
      "duration": 0.1165,
      "velocity": 115,
      "chip": "ym2612"
    },
    {
      "channel": 2,
      "note": 46,
      "start": 23.9343,
      "duration": 0.1165,
      "velocity": 115,
      "chip": "ym2612"
    },
    {
      "channel": 4,
      "note": 79,
      "start": 23.9349,
      "duration": 0.1171,
      "velocity": 104,
      "chip": "ym2612"
    },
    {
      "channel": 0,
      "note": 48,
      "start": 24.0503,
      "duration": 0.1165,
      "velocity": 115,
      "chip": "ym2612"
    },
    {
      "channel": 2,
      "note": 48,
      "start": 24.051,
      "duration": 0.117,
      "velocity": 115,
      "chip": "ym2612"
    },
    {
      "channel": 3,
      "note": 87,
      "start": 24.0515,
      "duration": 0.2498,
      "velocity": 104,
      "chip": "ym2612"
    },
    {
      "channel": 4,
      "note": 82,
      "start": 24.052,
      "duration": 0.2498,
      "velocity": 104,
      "chip": "ym2612"
    },
    {
      "channel": 0,
      "note": 48,
      "start": 24.167,
      "duration": 0.1332,
      "velocity": 115,
      "chip": "ym2612"
    },
    {
      "channel": 1,
      "note": 46,
      "start": 24.1676,
      "duration": 0.2498,
      "velocity": 109,
      "chip": "ym2612"
    },
    {
      "channel": 2,
      "note": 48,
      "start": 24.1681,
      "duration": 0.1327,
      "velocity": 115,
      "chip": "ym2612"
    },
    {
      "channel": 0,
      "note": 46,
      "start": 24.3003,
      "duration": 0.1165,
      "velocity": 115,
      "chip": "ym2612"
    },
    {
      "channel": 2,
      "note": 48,
      "start": 24.301,
      "duration": 0.117,
      "velocity": 115,
      "chip": "ym2612"
    },
    {
      "channel": 3,
      "note": 79,
      "start": 24.3015,
      "duration": 0.117,
      "velocity": 104,
      "chip": "ym2612"
    },
    {
      "channel": 4,
      "note": 87,
      "start": 24.302,
      "duration": 0.2327,
      "velocity": 104,
      "chip": "ym2612"
    },
    {
      "channel": 0,
      "note": 48,
      "start": 24.417,
      "duration": 0.2332,
      "velocity": 115,
      "chip": "ym2612"
    },
    {
      "channel": 1,
      "note": 46,
      "start": 24.4176,
      "duration": 0.116,
      "velocity": 109,
      "chip": "ym2612"
    },
    {
      "channel": 2,
      "note": 48,
      "start": 24.4181,
      "duration": 0.116,
      "velocity": 115,
      "chip": "ym2612"
    },
    {
      "channel": 3,
      "note": 86,
      "start": 24.4186,
      "duration": 0.2328,
      "velocity": 104,
      "chip": "ym2612"
    },
    {
      "channel": 1,
      "note": 48,
      "start": 24.5337,
      "duration": 0.6003,
      "velocity": 109,
      "chip": "ym2612"
    },
    {
      "channel": 2,
      "note": 60,
      "start": 24.5343,
      "duration": 0.1165,
      "velocity": 115,
      "chip": "ym2612"
    },
    {
      "channel": 4,
      "note": 79,
      "start": 24.5349,
      "duration": 0.1171,
      "velocity": 104,
      "chip": "ym2612"
    },
    {
      "channel": 0,
      "note": 46,
      "start": 24.6504,
      "duration": 0.2498,
      "velocity": 115,
      "chip": "ym2612"
    },
    {
      "channel": 2,
      "note": 48,
      "start": 24.651,
      "duration": 0.116,
      "velocity": 115,
      "chip": "ym2612"
    },
    {
      "channel": 3,
      "note": 79,
      "start": 24.6515,
      "duration": 0.116,
      "velocity": 104,
      "chip": "ym2612"
    },
    {
      "channel": 4,
      "note": 86,
      "start": 24.6521,
      "duration": 0.2493,
      "velocity": 104,
      "chip": "ym2612"
    },
    {
      "channel": 2,
      "note": 48,
      "start": 24.7671,
      "duration": 0.1337,
      "velocity": 115,
      "chip": "ym2612"
    },
    {
      "channel": 3,
      "note": 82,
      "start": 24.7677,
      "duration": 0.2503,
      "velocity": 104,
      "chip": "ym2612"
    },
    {
      "channel": 0,
      "note": 43,
      "start": 24.9003,
      "duration": 0.1165,
      "velocity": 115,
      "chip": "ym2612"
    },
    {
      "channel": 2,
      "note": 46,
      "start": 24.901,
      "duration": 0.1165,
      "velocity": 115,
      "chip": "ym2612"
    },
    {
      "channel": 4,
      "note": 79,
      "start": 24.9015,
      "duration": 0.117,
      "velocity": 104,
      "chip": "ym2612"
    },
    {
      "channel": 0,
      "note": 48,
      "start": 25.017,
      "duration": 0.1165,
      "velocity": 115,
      "chip": "ym2612"
    },
    {
      "channel": 2,
      "note": 48,
      "start": 25.0176,
      "duration": 0.1171,
      "velocity": 115,
      "chip": "ym2612"
    },
    {
      "channel": 3,
      "note": 72,
      "start": 25.0181,
      "duration": 0.2332,
      "velocity": 104,
      "chip": "ym2612"
    },
    {
      "channel": 4,
      "note": 82,
      "start": 25.0187,
      "duration": 0.2331,
      "velocity": 104,
      "chip": "ym2612"
    },
    {
      "channel": 0,
      "note": 48,
      "start": 25.1337,
      "duration": 0.1165,
      "velocity": 115,
      "chip": "ym2612"
    },
    {
      "channel": 1,
      "note": 46,
      "start": 25.1342,
      "duration": 0.2332,
      "velocity": 109,
      "chip": "ym2612"
    },
    {
      "channel": 2,
      "note": 48,
      "start": 25.1347,
      "duration": 0.116,
      "velocity": 115,
      "chip": "ym2612"
    },
    {
      "channel": 0,
      "note": 46,
      "start": 25.2503,
      "duration": 0.1165,
      "velocity": 115,
      "chip": "ym2612"
    },
    {
      "channel": 2,
      "note": 48,
      "start": 25.251,
      "duration": 0.117,
      "velocity": 115,
      "chip": "ym2612"
    },
    {
      "channel": 3,
      "note": 70,
      "start": 25.2515,
      "duration": 0.117,
      "velocity": 104,
      "chip": "ym2612"
    },
    {
      "channel": 4,
      "note": 72,
      "start": 25.252,
      "duration": 0.2494,
      "velocity": 104,
      "chip": "ym2612"
    },
    {
      "channel": 0,
      "note": 48,
      "start": 25.367,
      "duration": 0.2499,
      "velocity": 115,
      "chip": "ym2612"
    },
    {
      "channel": 1,
      "note": 46,
      "start": 25.3676,
      "duration": 0.1326,
      "velocity": 109,
      "chip": "ym2612"
    },
    {
      "channel": 2,
      "note": 48,
      "start": 25.3681,
      "duration": 0.1327,
      "velocity": 115,
      "chip": "ym2612"
    },
    {
      "channel": 3,
      "note": 72,
      "start": 25.3686,
      "duration": 0.2494,
      "velocity": 104,
      "chip": "ym2612"
    },
    {
      "channel": 1,
      "note": 48,
      "start": 25.5004,
      "duration": 0.6003,
      "velocity": 109,
      "chip": "ym2612"
    },
    {
      "channel": 2,
      "note": 60,
      "start": 25.501,
      "duration": 0.1165,
      "velocity": 115,
      "chip": "ym2612"
    },
    {
      "channel": 4,
      "note": 70,
      "start": 25.5015,
      "duration": 0.1171,
      "velocity": 104,
      "chip": "ym2612"
    },
    {
      "channel": 0,
      "note": 46,
      "start": 25.6171,
      "duration": 0.2331,
      "velocity": 115,
      "chip": "ym2612"
    },
    {
      "channel": 2,
      "note": 48,
      "start": 25.6177,
      "duration": 0.1159,
      "velocity": 115,
      "chip": "ym2612"
    },
    {
      "channel": 3,
      "note": 79,
      "start": 25.6183,
      "duration": 0.1159,
      "velocity": 104,
      "chip": "ym2612"
    },
    {
      "channel": 4,
      "note": 72,
      "start": 25.6188,
      "duration": 0.2326,
      "velocity": 104,
      "chip": "ym2612"
    },
    {
      "channel": 2,
      "note": 48,
      "start": 25.7338,
      "duration": 0.117,
      "velocity": 115,
      "chip": "ym2612"
    },
    {
      "channel": 3,
      "note": 82,
      "start": 25.7344,
      "duration": 0.2337,
      "velocity": 104,
      "chip": "ym2612"
    },
    {
      "channel": 0,
      "note": 43,
      "start": 25.8503,
      "duration": 0.1165,
      "velocity": 115,
      "chip": "ym2612"
    },
    {
      "channel": 2,
      "note": 46,
      "start": 25.8509,
      "duration": 0.1166,
      "velocity": 115,
      "chip": "ym2612"
    },
    {
      "channel": 4,
      "note": 79,
      "start": 25.8515,
      "duration": 0.117,
      "velocity": 104,
      "chip": "ym2612"
    },
    {
      "channel": 0,
      "note": 48,
      "start": 25.967,
      "duration": 0.1332,
      "velocity": 115,
      "chip": "ym2612"
    },
    {
      "channel": 2,
      "note": 48,
      "start": 25.9676,
      "duration": 0.1337,
      "velocity": 115,
      "chip": "ym2612"
    },
    {
      "channel": 3,
      "note": 87,
      "start": 25.9681,
      "duration": 0.2499,
      "velocity": 104,
      "chip": "ym2612"
    },
    {
      "channel": 4,
      "note": 82,
      "start": 25.9687,
      "duration": 0.2499,
      "velocity": 104,
      "chip": "ym2612"
    },
    {
      "channel": 0,
      "note": 48,
      "start": 26.1003,
      "duration": 0.1165,
      "velocity": 115,
      "chip": "ym2612"
    },
    {
      "channel": 1,
      "note": 46,
      "start": 26.1009,
      "duration": 0.2332,
      "velocity": 109,
      "chip": "ym2612"
    },
    {
      "channel": 2,
      "note": 48,
      "start": 26.1014,
      "duration": 0.116,
      "velocity": 115,
      "chip": "ym2612"
    },
    {
      "channel": 0,
      "note": 46,
      "start": 26.217,
      "duration": 0.1165,
      "velocity": 115,
      "chip": "ym2612"
    },
    {
      "channel": 2,
      "note": 48,
      "start": 26.2176,
      "duration": 0.117,
      "velocity": 115,
      "chip": "ym2612"
    },
    {
      "channel": 3,
      "note": 79,
      "start": 26.2182,
      "duration": 0.117,
      "velocity": 104,
      "chip": "ym2612"
    },
    {
      "channel": 4,
      "note": 87,
      "start": 26.2187,
      "duration": 0.2327,
      "velocity": 104,
      "chip": "ym2612"
    },
    {
      "channel": 0,
      "note": 48,
      "start": 26.3337,
      "duration": 0.2332,
      "velocity": 115,
      "chip": "ym2612"
    },
    {
      "channel": 1,
      "note": 46,
      "start": 26.3342,
      "duration": 0.116,
      "velocity": 109,
      "chip": "ym2612"
    },
    {
      "channel": 2,
      "note": 48,
      "start": 26.3347,
      "duration": 0.116,
      "velocity": 115,
      "chip": "ym2612"
    },
    {
      "channel": 3,
      "note": 86,
      "start": 26.3353,
      "duration": 0.2328,
      "velocity": 104,
      "chip": "ym2612"
    },
    {
      "channel": 1,
      "note": 48,
      "start": 26.4504,
      "duration": 0.6003,
      "velocity": 109,
      "chip": "ym2612"
    },
    {
      "channel": 2,
      "note": 60,
      "start": 26.451,
      "duration": 0.1165,
      "velocity": 115,
      "chip": "ym2612"
    },
    {
      "channel": 4,
      "note": 79,
      "start": 26.4515,
      "duration": 0.1171,
      "velocity": 104,
      "chip": "ym2612"
    },
    {
      "channel": 0,
      "note": 46,
      "start": 26.5671,
      "duration": 0.2498,
      "velocity": 115,
      "chip": "ym2612"
    },
    {
      "channel": 2,
      "note": 58,
      "start": 26.5677,
      "duration": 0.1326,
      "velocity": 115,
      "chip": "ym2612"
    },
    {
      "channel": 3,
      "note": 79,
      "start": 26.5683,
      "duration": 0.1326,
      "velocity": 104,
      "chip": "ym2612"
    },
    {
      "channel": 4,
      "note": 86,
      "start": 26.5688,
      "duration": 0.2493,
      "velocity": 104,
      "chip": "ym2612"
    },
    {
      "channel": 2,
      "note": 55,
      "start": 26.7005,
      "duration": 0.117,
      "velocity": 115,
      "chip": "ym2612"
    },
    {
      "channel": 3,
      "note": 82,
      "start": 26.701,
      "duration": 0.2337,
      "velocity": 104,
      "chip": "ym2612"
    },
    {
      "channel": 0,
      "note": 43,
      "start": 26.817,
      "duration": 0.1165,
      "velocity": 115,
      "chip": "ym2612"
    },
    {
      "channel": 2,
      "note": 58,
      "start": 26.8176,
      "duration": 0.1165,
      "velocity": 115,
      "chip": "ym2612"
    },
    {
      "channel": 4,
      "note": 79,
      "start": 26.8182,
      "duration": 0.117,
      "velocity": 104,
      "chip": "ym2612"
    },
    {
      "channel": 0,
      "note": 46,
      "start": 26.9337,
      "duration": 0.1165,
      "velocity": 115,
      "chip": "ym2612"
    },
    {
      "channel": 2,
      "note": 53,
      "start": 26.9342,
      "duration": 0.1171,
      "velocity": 115,
      "chip": "ym2612"
    },
    {
      "channel": 3,
      "note": 65,
      "start": 26.9348,
      "duration": 0.2332,
      "velocity": 104,
      "chip": "ym2612"
    },
    {
      "channel": 4,
      "note": 82,
      "start": 26.9354,
      "duration": 0.2331,
      "velocity": 104,
      "chip": "ym2612"
    },
    {
      "channel": 0,
      "note": 46,
      "start": 27.0503,
      "duration": 0.1165,
      "velocity": 115,
      "chip": "ym2612"
    },
    {
      "channel": 1,
      "note": 46,
      "start": 27.0509,
      "duration": 0.2498,
      "velocity": 109,
      "chip": "ym2612"
    },
    {
      "channel": 2,
      "note": 53,
      "start": 27.0514,
      "duration": 0.116,
      "velocity": 115,
      "chip": "ym2612"
    },
    {
      "channel": 0,
      "note": 44,
      "start": 27.167,
      "duration": 0.1332,
      "velocity": 115,
      "chip": "ym2612"
    },
    {
      "channel": 2,
      "note": 53,
      "start": 27.1676,
      "duration": 0.1337,
      "velocity": 115,
      "chip": "ym2612"
    },
    {
      "channel": 3,
      "note": 63,
      "start": 27.1681,
      "duration": 0.1337,
      "velocity": 104,
      "chip": "ym2612"
    },
    {
      "channel": 4,
      "note": 65,
      "start": 27.1687,
      "duration": 0.2494,
      "velocity": 104,
      "chip": "ym2612"
    },
    {
      "channel": 0,
      "note": 46,
      "start": 27.3003,
      "duration": 0.2332,
      "velocity": 115,
      "chip": "ym2612"
    },
    {
      "channel": 1,
      "note": 46,
      "start": 27.3009,
      "duration": 0.116,
      "velocity": 109,
      "chip": "ym2612"
    },
    {
      "channel": 2,
      "note": 53,
      "start": 27.3014,
      "duration": 0.116,
      "velocity": 115,
      "chip": "ym2612"
    },
    {
      "channel": 3,
      "note": 65,
      "start": 27.302,
      "duration": 0.2327,
      "velocity": 104,
      "chip": "ym2612"
    },
    {
      "channel": 1,
      "note": 48,
      "start": 27.4171,
      "duration": 0.6003,
      "velocity": 109,
      "chip": "ym2612"
    },
    {
      "channel": 2,
      "note": 65,
      "start": 27.4176,
      "duration": 0.1165,
      "velocity": 115,
      "chip": "ym2612"
    },
    {
      "channel": 4,
      "note": 63,
      "start": 27.4183,
      "duration": 0.117,
      "velocity": 104,
      "chip": "ym2612"
    },
    {
      "channel": 0,
      "note": 44,
      "start": 27.5337,
      "duration": 0.2332,
      "velocity": 115,
      "chip": "ym2612"
    },
    {
      "channel": 2,
      "note": 53,
      "start": 27.5343,
      "duration": 0.116,
      "velocity": 115,
      "chip": "ym2612"
    },
    {
      "channel": 3,
      "note": 72,
      "start": 27.5349,
      "duration": 0.1159,
      "velocity": 104,
      "chip": "ym2612"
    },
    {
      "channel": 4,
      "note": 65,
      "start": 27.5354,
      "duration": 0.2326,
      "velocity": 104,
      "chip": "ym2612"
    },
    {
      "channel": 2,
      "note": 53,
      "start": 27.6504,
      "duration": 0.117,
      "velocity": 115,
      "chip": "ym2612"
    },
    {
      "channel": 3,
      "note": 75,
      "start": 27.651,
      "duration": 0.2503,
      "velocity": 104,
      "chip": "ym2612"
    },
    {
      "channel": 0,
      "note": 41,
      "start": 27.7669,
      "duration": 0.1332,
      "velocity": 115,
      "chip": "ym2612"
    },
    {
      "channel": 2,
      "note": 51,
      "start": 27.7676,
      "duration": 0.1332,
      "velocity": 115,
      "chip": "ym2612"
    },
    {
      "channel": 4,
      "note": 72,
      "start": 27.7682,
      "duration": 0.1337,
      "velocity": 104,
      "chip": "ym2612"
    },
    {
      "channel": 0,
      "note": 46,
      "start": 27.9003,
      "duration": 0.1165,
      "velocity": 115,
      "chip": "ym2612"
    },
    {
      "channel": 2,
      "note": 53,
      "start": 27.9009,
      "duration": 0.1171,
      "velocity": 115,
      "chip": "ym2612"
    },
    {
      "channel": 3,
      "note": 80,
      "start": 27.9015,
      "duration": 0.2332,
      "velocity": 104,
      "chip": "ym2612"
    },
    {
      "channel": 4,
      "note": 75,
      "start": 27.902,
      "duration": 0.2331,
      "velocity": 104,
      "chip": "ym2612"
    },
    {
      "channel": 0,
      "note": 46,
      "start": 28.017,
      "duration": 0.1165,
      "velocity": 115,
      "chip": "ym2612"
    },
    {
      "channel": 1,
      "note": 46,
      "start": 28.0176,
      "duration": 0.2332,
      "velocity": 109,
      "chip": "ym2612"
    },
    {
      "channel": 2,
      "note": 53,
      "start": 28.0181,
      "duration": 0.116,
      "velocity": 115,
      "chip": "ym2612"
    },
    {
      "channel": 0,
      "note": 44,
      "start": 28.1337,
      "duration": 0.1165,
      "velocity": 115,
      "chip": "ym2612"
    },
    {
      "channel": 2,
      "note": 53,
      "start": 28.1342,
      "duration": 0.117,
      "velocity": 115,
      "chip": "ym2612"
    },
    {
      "channel": 3,
      "note": 72,
      "start": 28.1348,
      "duration": 0.117,
      "velocity": 104,
      "chip": "ym2612"
    },
    {
      "channel": 4,
      "note": 80,
      "start": 28.1354,
      "duration": 0.2327,
      "velocity": 104,
      "chip": "ym2612"
    },
    {
      "channel": 0,
      "note": 46,
      "start": 28.2503,
      "duration": 0.2499,
      "velocity": 115,
      "chip": "ym2612"
    },
    {
      "channel": 1,
      "note": 46,
      "start": 28.2508,
      "duration": 0.1161,
      "velocity": 109,
      "chip": "ym2612"
    },
    {
      "channel": 2,
      "note": 53,
      "start": 28.2514,
      "duration": 0.116,
      "velocity": 115,
      "chip": "ym2612"
    },
    {
      "channel": 3,
      "note": 79,
      "start": 28.252,
      "duration": 0.2494,
      "velocity": 104,
      "chip": "ym2612"
    },
    {
      "channel": 1,
      "note": 48,
      "start": 28.3671,
      "duration": 0.6003,
      "velocity": 109,
      "chip": "ym2612"
    },
    {
      "channel": 2,
      "note": 65,
      "start": 28.3676,
      "duration": 0.1332,
      "velocity": 115,
      "chip": "ym2612"
    },
    {
      "channel": 4,
      "note": 72,
      "start": 28.3683,
      "duration": 0.1337,
      "velocity": 104,
      "chip": "ym2612"
    },
    {
      "channel": 0,
      "note": 44,
      "start": 28.5003,
      "duration": 0.2332,
      "velocity": 115,
      "chip": "ym2612"
    },
    {
      "channel": 2,
      "note": 53,
      "start": 28.501,
      "duration": 0.116,
      "velocity": 115,
      "chip": "ym2612"
    },
    {
      "channel": 3,
      "note": 72,
      "start": 28.5015,
      "duration": 0.1159,
      "velocity": 104,
      "chip": "ym2612"
    },
    {
      "channel": 4,
      "note": 79,
      "start": 28.5021,
      "duration": 0.2326,
      "velocity": 104,
      "chip": "ym2612"
    },
    {
      "channel": 2,
      "note": 53,
      "start": 28.6171,
      "duration": 0.117,
      "velocity": 115,
      "chip": "ym2612"
    },
    {
      "channel": 3,
      "note": 75,
      "start": 28.6176,
      "duration": 0.2337,
      "velocity": 104,
      "chip": "ym2612"
    },
    {
      "channel": 0,
      "note": 41,
      "start": 28.7336,
      "duration": 0.1166,
      "velocity": 115,
      "chip": "ym2612"
    },
    {
      "channel": 2,
      "note": 51,
      "start": 28.7342,
      "duration": 0.1166,
      "velocity": 115,
      "chip": "ym2612"
    },
    {
      "channel": 4,
      "note": 72,
      "start": 28.7349,
      "duration": 0.117,
      "velocity": 104,
      "chip": "ym2612"
    },
    {
      "channel": 0,
      "note": 46,
      "start": 28.8503,
      "duration": 0.1165,
      "velocity": 115,
      "chip": "ym2612"
    },
    {
      "channel": 2,
      "note": 53,
      "start": 28.8509,
      "duration": 0.1171,
      "velocity": 115,
      "chip": "ym2612"
    },
    {
      "channel": 3,
      "note": 65,
      "start": 28.8515,
      "duration": 0.2499,
      "velocity": 104,
      "chip": "ym2612"
    },
    {
      "channel": 4,
      "note": 75,
      "start": 28.852,
      "duration": 0.2499,
      "velocity": 104,
      "chip": "ym2612"
    },
    {
      "channel": 0,
      "note": 46,
      "start": 28.967,
      "duration": 0.1332,
      "velocity": 115,
      "chip": "ym2612"
    },
    {
      "channel": 1,
      "note": 46,
      "start": 28.9676,
      "duration": 0.2498,
      "velocity": 109,
      "chip": "ym2612"
    },
    {
      "channel": 2,
      "note": 53,
      "start": 28.9681,
      "duration": 0.1327,
      "velocity": 115,
      "chip": "ym2612"
    },
    {
      "channel": 0,
      "note": 44,
      "start": 29.1003,
      "duration": 0.1165,
      "velocity": 115,
      "chip": "ym2612"
    },
    {
      "channel": 2,
      "note": 53,
      "start": 29.101,
      "duration": 0.117,
      "velocity": 115,
      "chip": "ym2612"
    },
    {
      "channel": 3,
      "note": 63,
      "start": 29.1015,
      "duration": 0.1169,
      "velocity": 104,
      "chip": "ym2612"
    },
    {
      "channel": 4,
      "note": 65,
      "start": 29.102,
      "duration": 0.2327,
      "velocity": 104,
      "chip": "ym2612"
    },
    {
      "channel": 0,
      "note": 46,
      "start": 29.217,
      "duration": 0.2332,
      "velocity": 115,
      "chip": "ym2612"
    },
    {
      "channel": 1,
      "note": 46,
      "start": 29.2176,
      "duration": 0.116,
      "velocity": 109,
      "chip": "ym2612"
    },
    {
      "channel": 2,
      "note": 53,
      "start": 29.2181,
      "duration": 0.116,
      "velocity": 115,
      "chip": "ym2612"
    },
    {
      "channel": 3,
      "note": 65,
      "start": 29.2186,
      "duration": 0.2328,
      "velocity": 104,
      "chip": "ym2612"
    },
    {
      "channel": 1,
      "note": 48,
      "start": 29.3337,
      "duration": 0.6003,
      "velocity": 109,
      "chip": "ym2612"
    },
    {
      "channel": 2,
      "note": 65,
      "start": 29.3343,
      "duration": 0.1165,
      "velocity": 115,
      "chip": "ym2612"
    },
    {
      "channel": 4,
      "note": 63,
      "start": 29.3349,
      "duration": 0.1171,
      "velocity": 104,
      "chip": "ym2612"
    },
    {
      "channel": 0,
      "note": 44,
      "start": 29.4504,
      "duration": 0.2498,
      "velocity": 115,
      "chip": "ym2612"
    },
    {
      "channel": 2,
      "note": 53,
      "start": 29.451,
      "duration": 0.116,
      "velocity": 115,
      "chip": "ym2612"
    },
    {
      "channel": 3,
      "note": 72,
      "start": 29.4515,
      "duration": 0.116,
      "velocity": 104,
      "chip": "ym2612"
    },
    {
      "channel": 4,
      "note": 65,
      "start": 29.4521,
      "duration": 0.2493,
      "velocity": 104,
      "chip": "ym2612"
    },
    {
      "channel": 2,
      "note": 53,
      "start": 29.5671,
      "duration": 0.1337,
      "velocity": 115,
      "chip": "ym2612"
    },
    {
      "channel": 3,
      "note": 75,
      "start": 29.5677,
      "duration": 0.2503,
      "velocity": 104,
      "chip": "ym2612"
    },
    {
      "channel": 0,
      "note": 41,
      "start": 29.7003,
      "duration": 0.1165,
      "velocity": 115,
      "chip": "ym2612"
    },
    {
      "channel": 2,
      "note": 51,
      "start": 29.701,
      "duration": 0.1165,
      "velocity": 115,
      "chip": "ym2612"
    },
    {
      "channel": 4,
      "note": 72,
      "start": 29.7015,
      "duration": 0.117,
      "velocity": 104,
      "chip": "ym2612"
    },
    {
      "channel": 0,
      "note": 46,
      "start": 29.817,
      "duration": 0.1165,
      "velocity": 115,
      "chip": "ym2612"
    },
    {
      "channel": 2,
      "note": 53,
      "start": 29.8176,
      "duration": 0.1171,
      "velocity": 115,
      "chip": "ym2612"
    },
    {
      "channel": 3,
      "note": 80,
      "start": 29.8181,
      "duration": 0.2332,
      "velocity": 104,
      "chip": "ym2612"
    },
    {
      "channel": 4,
      "note": 75,
      "start": 29.8187,
      "duration": 0.2331,
      "velocity": 104,
      "chip": "ym2612"
    },
    {
      "channel": 0,
      "note": 46,
      "start": 29.9337,
      "duration": 0.1165,
      "velocity": 115,
      "chip": "ym2612"
    },
    {
      "channel": 1,
      "note": 46,
      "start": 29.9342,
      "duration": 0.2332,
      "velocity": 109,
      "chip": "ym2612"
    },
    {
      "channel": 2,
      "note": 53,
      "start": 29.9347,
      "duration": 0.116,
      "velocity": 115,
      "chip": "ym2612"
    },
    {
      "channel": 0,
      "note": 44,
      "start": 30.0503,
      "duration": 0.1165,
      "velocity": 115,
      "chip": "ym2612"
    },
    {
      "channel": 2,
      "note": 53,
      "start": 30.051,
      "duration": 0.117,
      "velocity": 115,
      "chip": "ym2612"
    },
    {
      "channel": 3,
      "note": 72,
      "start": 30.0515,
      "duration": 0.1171,
      "velocity": 104,
      "chip": "ym2612"
    },
    {
      "channel": 4,
      "note": 80,
      "start": 30.052,
      "duration": 0.2494,
      "velocity": 104,
      "chip": "ym2612"
    },
    {
      "channel": 0,
      "note": 46,
      "start": 30.167,
      "duration": 0.2499,
      "velocity": 115,
      "chip": "ym2612"
    },
    {
      "channel": 1,
      "note": 46,
      "start": 30.1676,
      "duration": 0.1326,
      "velocity": 109,
      "chip": "ym2612"
    },
    {
      "channel": 2,
      "note": 53,
      "start": 30.1681,
      "duration": 0.1327,
      "velocity": 115,
      "chip": "ym2612"
    },
    {
      "channel": 3,
      "note": 79,
      "start": 30.1686,
      "duration": 0.2494,
      "velocity": 104,
      "chip": "ym2612"
    },
    {
      "channel": 1,
      "note": 48,
      "start": 30.3004,
      "duration": 0.4704,
      "velocity": 115,
      "chip": "ym2612"
    },
    {
      "channel": 2,
      "note": 65,
      "start": 30.301,
      "duration": 0.1165,
      "velocity": 115,
      "chip": "ym2612"
    },
    {
      "channel": 4,
      "note": 72,
      "start": 30.3015,
      "duration": 0.1171,
      "velocity": 104,
      "chip": "ym2612"
    },
    {
      "channel": 0,
      "note": 44,
      "start": 30.4171,
      "duration": 0.2331,
      "velocity": 115,
      "chip": "ym2612"
    },
    {
      "channel": 2,
      "note": 63,
      "start": 30.4177,
      "duration": 0.1159,
      "velocity": 115,
      "chip": "ym2612"
    },
    {
      "channel": 3,
      "note": 72,
      "start": 30.4183,
      "duration": 0.1159,
      "velocity": 104,
      "chip": "ym2612"
    },
    {
      "channel": 4,
      "note": 79,
      "start": 30.4188,
      "duration": 0.2326,
      "velocity": 104,
      "chip": "ym2612"
    },
    {
      "channel": 2,
      "note": 60,
      "start": 30.5338,
      "duration": 0.117,
      "velocity": 115,
      "chip": "ym2612"
    },
    {
      "channel": 3,
      "note": 75,
      "start": 30.5344,
      "duration": 0.2392,
      "velocity": 104,
      "chip": "ym2612"
    },
    {
      "channel": 0,
      "note": 41,
      "start": 30.6503,
      "duration": 0.1182,
      "velocity": 109,
      "chip": "ym2612"
    },
    {
      "channel": 2,
      "note": 63,
      "start": 30.651,
      "duration": 0.122,
      "velocity": 109,
      "chip": "ym2612"
    },
    {
      "channel": 4,
      "note": 72,
      "start": 30.6515,
      "duration": 0.3666,
      "velocity": 104,
      "chip": "ym2612"
    },
    {
      "channel": 0,
      "note": 70,
      "start": 30.7687,
      "duration": 0.9648,
      "velocity": 109,
      "chip": "ym2612"
    },
    {
      "channel": 1,
      "note": 46,
      "start": 30.7709,
      "duration": 0.1293,
      "velocity": 115,
      "chip": "ym2612"
    },
    {
      "channel": 2,
      "note": 66,
      "start": 30.7731,
      "duration": 0.9615,
      "velocity": 109,
      "chip": "ym2612"
    },
    {
      "channel": 3,
      "note": 70,
      "start": 30.7737,
      "duration": 0.2438,
      "velocity": 104,
      "chip": "ym2612"
    },
    {
      "channel": 1,
      "note": 46,
      "start": 30.9004,
      "duration": 0.1165,
      "velocity": 115,
      "chip": "ym2612"
    },
    {
      "channel": 1,
      "note": 46,
      "start": 31.0171,
      "duration": 0.1165,
      "velocity": 115,
      "chip": "ym2612"
    },
    {
      "channel": 3,
      "note": 68,
      "start": 31.0177,
      "duration": 0.1164,
      "velocity": 104,
      "chip": "ym2612"
    },
    {
      "channel": 4,
      "note": 70,
      "start": 31.0183,
      "duration": 0.2326,
      "velocity": 104,
      "chip": "ym2612"
    },
    {
      "channel": 1,
      "note": 46,
      "start": 31.1337,
      "duration": 0.1165,
      "velocity": 115,
      "chip": "ym2612"
    },
    {
      "channel": 3,
      "note": 70,
      "start": 31.1343,
      "duration": 0.2332,
      "velocity": 104,
      "chip": "ym2612"
    },
    {
      "channel": 1,
      "note": 58,
      "start": 31.2504,
      "duration": 0.1165,
      "velocity": 115,
      "chip": "ym2612"
    },
    {
      "channel": 4,
      "note": 68,
      "start": 31.2511,
      "duration": 0.117,
      "velocity": 104,
      "chip": "ym2612"
    },
    {
      "channel": 1,
      "note": 46,
      "start": 31.3671,
      "duration": 0.1331,
      "velocity": 115,
      "chip": "ym2612"
    },
    {
      "channel": 3,
      "note": 77,
      "start": 31.3677,
      "duration": 0.1331,
      "velocity": 104,
      "chip": "ym2612"
    },
    {
      "channel": 4,
      "note": 70,
      "start": 31.3682,
      "duration": 0.2494,
      "velocity": 104,
      "chip": "ym2612"
    },
    {
      "channel": 1,
      "note": 46,
      "start": 31.5004,
      "duration": 0.1165,
      "velocity": 115,
      "chip": "ym2612"
    },
    {
      "channel": 3,
      "note": 80,
      "start": 31.501,
      "duration": 0.2341,
      "velocity": 104,
      "chip": "ym2612"
    },
    {
      "channel": 1,
      "note": 46,
      "start": 31.6171,
      "duration": 0.117,
      "velocity": 115,
      "chip": "ym2612"
    },
    {
      "channel": 4,
      "note": 77,
      "start": 31.6178,
      "duration": 0.1179,
      "velocity": 104,
      "chip": "ym2612"
    },
    {
      "channel": 0,
      "note": 70,
      "start": 31.7337,
      "duration": 0.9665,
      "velocity": 109,
      "chip": "ym2612"
    },
    {
      "channel": 1,
      "note": 48,
      "start": 31.7342,
      "duration": 0.116,
      "velocity": 115,
      "chip": "ym2612"
    },
    {
      "channel": 2,
      "note": 67,
      "start": 31.7347,
      "duration": 0.9665,
      "velocity": 109,
      "chip": "ym2612"
    },
    {
      "channel": 3,
      "note": 72,
      "start": 31.7353,
      "duration": 0.2322,
      "velocity": 104,
      "chip": "ym2612"
    },
    {
      "channel": 4,
      "note": 80,
      "start": 31.7359,
      "duration": 0.2322,
      "velocity": 104,
      "chip": "ym2612"
    },
    {
      "channel": 1,
      "note": 48,
      "start": 31.8505,
      "duration": 0.1164,
      "velocity": 115,
      "chip": "ym2612"
    },
    {
      "channel": 1,
      "note": 48,
      "start": 31.9671,
      "duration": 0.1331,
      "velocity": 115,
      "chip": "ym2612"
    },
    {
      "channel": 3,
      "note": 70,
      "start": 31.9677,
      "duration": 0.1331,
      "velocity": 104,
      "chip": "ym2612"
    },
    {
      "channel": 4,
      "note": 72,
      "start": 31.9682,
      "duration": 0.2494,
      "velocity": 104,
      "chip": "ym2612"
    },
    {
      "channel": 1,
      "note": 48,
      "start": 32.1004,
      "duration": 0.1165,
      "velocity": 115,
      "chip": "ym2612"
    },
    {
      "channel": 3,
      "note": 72,
      "start": 32.101,
      "duration": 0.2331,
      "velocity": 104,
      "chip": "ym2612"
    },
    {
      "channel": 1,
      "note": 60,
      "start": 32.2171,
      "duration": 0.1164,
      "velocity": 115,
      "chip": "ym2612"
    },
    {
      "channel": 4,
      "note": 70,
      "start": 32.2178,
      "duration": 0.1169,
      "velocity": 104,
      "chip": "ym2612"
    },
    {
      "channel": 1,
      "note": 48,
      "start": 32.3337,
      "duration": 0.1165,
      "velocity": 115,
      "chip": "ym2612"
    },
    {
      "channel": 3,
      "note": 79,
      "start": 32.3343,
      "duration": 0.1165,
      "velocity": 104,
      "chip": "ym2612"
    },
    {
      "channel": 4,
      "note": 72,
      "start": 32.3349,
      "duration": 0.2326,
      "velocity": 104,
      "chip": "ym2612"
    },
    {
      "channel": 1,
      "note": 48,
      "start": 32.4503,
      "duration": 0.1165,
      "velocity": 115,
      "chip": "ym2612"
    },
    {
      "channel": 3,
      "note": 82,
      "start": 32.451,
      "duration": 0.2509,
      "velocity": 104,
      "chip": "ym2612"
    },
    {
      "channel": 1,
      "note": 48,
      "start": 32.567,
      "duration": 0.1337,
      "velocity": 115,
      "chip": "ym2612"
    },
    {
      "channel": 4,
      "note": 79,
      "start": 32.5677,
      "duration": 0.1347,
      "velocity": 104,
      "chip": "ym2612"
    },
    {
      "channel": 0,
      "note": 73,
      "start": 32.7003,
      "duration": 0.9499,
      "velocity": 109,
      "chip": "ym2612"
    },
    {
      "channel": 1,
      "note": 49,
      "start": 32.7009,
      "duration": 0.116,
      "velocity": 115,
      "chip": "ym2612"
    },
    {
      "channel": 2,
      "note": 68,
      "start": 32.7015,
      "duration": 0.9498,
      "velocity": 109,
      "chip": "ym2612"
    },
    {
      "channel": 3,
      "note": 73,
      "start": 32.702,
      "duration": 0.2321,
      "velocity": 104,
      "chip": "ym2612"
    },
    {
      "channel": 4,
      "note": 82,
      "start": 32.7025,
      "duration": 0.2321,
      "velocity": 104,
      "chip": "ym2612"
    },
    {
      "channel": 1,
      "note": 49,
      "start": 32.8171,
      "duration": 0.1165,
      "velocity": 115,
      "chip": "ym2612"
    },
    {
      "channel": 1,
      "note": 49,
      "start": 32.9337,
      "duration": 0.1165,
      "velocity": 115,
      "chip": "ym2612"
    },
    {
      "channel": 3,
      "note": 71,
      "start": 32.9343,
      "duration": 0.1165,
      "velocity": 104,
      "chip": "ym2612"
    },
    {
      "channel": 4,
      "note": 73,
      "start": 32.9349,
      "duration": 0.2326,
      "velocity": 104,
      "chip": "ym2612"
    },
    {
      "channel": 1,
      "note": 49,
      "start": 33.0503,
      "duration": 0.1165,
      "velocity": 115,
      "chip": "ym2612"
    },
    {
      "channel": 3,
      "note": 73,
      "start": 33.051,
      "duration": 0.2498,
      "velocity": 104,
      "chip": "ym2612"
    },
    {
      "channel": 1,
      "note": 61,
      "start": 33.167,
      "duration": 0.1332,
      "velocity": 115,
      "chip": "ym2612"
    },
    {
      "channel": 4,
      "note": 71,
      "start": 33.1677,
      "duration": 0.1337,
      "velocity": 104,
      "chip": "ym2612"
    },
    {
      "channel": 1,
      "note": 49,
      "start": 33.3003,
      "duration": 0.1165,
      "velocity": 115,
      "chip": "ym2612"
    },
    {
      "channel": 3,
      "note": 80,
      "start": 33.301,
      "duration": 0.1165,
      "velocity": 104,
      "chip": "ym2612"
    },
    {
      "channel": 4,
      "note": 73,
      "start": 33.3015,
      "duration": 0.2326,
      "velocity": 104,
      "chip": "ym2612"
    },
    {
      "channel": 1,
      "note": 49,
      "start": 33.417,
      "duration": 0.1165,
      "velocity": 115,
      "chip": "ym2612"
    },
    {
      "channel": 3,
      "note": 83,
      "start": 33.4176,
      "duration": 0.2342,
      "velocity": 104,
      "chip": "ym2612"
    },
    {
      "channel": 1,
      "note": 49,
      "start": 33.5337,
      "duration": 0.1171,
      "velocity": 115,
      "chip": "ym2612"
    },
    {
      "channel": 4,
      "note": 80,
      "start": 33.5344,
      "duration": 0.1181,
      "velocity": 104,
      "chip": "ym2612"
    },
    {
      "channel": 0,
      "note": 65,
      "start": 33.6503,
      "duration": 2.8832,
      "velocity": 109,
      "chip": "ym2612"
    },
    {
      "channel": 1,
      "note": 51,
      "start": 33.6509,
      "duration": 0.116,
      "velocity": 115,
      "chip": "ym2612"
    },
    {
      "channel": 2,
      "note": 68,
      "start": 33.6515,
      "duration": 2.8832,
      "velocity": 109,
      "chip": "ym2612"
    },
    {
      "channel": 3,
      "note": 75,
      "start": 33.652,
      "duration": 0.2487,
      "velocity": 104,
      "chip": "ym2612"
    },
    {
      "channel": 4,
      "note": 83,
      "start": 33.6525,
      "duration": 0.2488,
      "velocity": 104,
      "chip": "ym2612"
    },
    {
      "channel": 1,
      "note": 51,
      "start": 33.7671,
      "duration": 0.1331,
      "velocity": 115,
      "chip": "ym2612"
    },
    {
      "channel": 1,
      "note": 51,
      "start": 33.9003,
      "duration": 0.1165,
      "velocity": 115,
      "chip": "ym2612"
    },
    {
      "channel": 3,
      "note": 73,
      "start": 33.901,
      "duration": 0.1165,
      "velocity": 104,
      "chip": "ym2612"
    },
    {
      "channel": 4,
      "note": 75,
      "start": 33.9015,
      "duration": 0.2326,
      "velocity": 104,
      "chip": "ym2612"
    },
    {
      "channel": 1,
      "note": 51,
      "start": 34.017,
      "duration": 0.1165,
      "velocity": 115,
      "chip": "ym2612"
    },
    {
      "channel": 3,
      "note": 75,
      "start": 34.0176,
      "duration": 0.2332,
      "velocity": 104,
      "chip": "ym2612"
    },
    {
      "channel": 1,
      "note": 63,
      "start": 34.1337,
      "duration": 0.1165,
      "velocity": 115,
      "chip": "ym2612"
    },
    {
      "channel": 4,
      "note": 73,
      "start": 34.1344,
      "duration": 0.117,
      "velocity": 104,
      "chip": "ym2612"
    },
    {
      "channel": 1,
      "note": 51,
      "start": 34.2503,
      "duration": 0.1165,
      "velocity": 115,
      "chip": "ym2612"
    },
    {
      "channel": 3,
      "note": 82,
      "start": 34.251,
      "duration": 0.1165,
      "velocity": 104,
      "chip": "ym2612"
    },
    {
      "channel": 4,
      "note": 75,
      "start": 34.2515,
      "duration": 0.2493,
      "velocity": 104,
      "chip": "ym2612"
    },
    {
      "channel": 1,
      "note": 51,
      "start": 34.367,
      "duration": 0.1332,
      "velocity": 115,
      "chip": "ym2612"
    },
    {
      "channel": 3,
      "note": 85,
      "start": 34.3676,
      "duration": 0.2498,
      "velocity": 104,
      "chip": "ym2612"
    },
    {
      "channel": 1,
      "note": 51,
      "start": 34.5003,
      "duration": 0.1165,
      "velocity": 115,
      "chip": "ym2612"
    },
    {
      "channel": 4,
      "note": 82,
      "start": 34.501,
      "duration": 0.117,
      "velocity": 104,
      "chip": "ym2612"
    },
    {
      "channel": 1,
      "note": 53,
      "start": 34.617,
      "duration": 0.1165,
      "velocity": 115,
      "chip": "ym2612"
    },
    {
      "channel": 3,
      "note": 87,
      "start": 34.6176,
      "duration": 3.8377,
      "velocity": 97,
      "chip": "ym2612"
    },
    {
      "channel": 4,
      "note": 85,
      "start": 34.6182,
      "duration": 0.2326,
      "velocity": 104,
      "chip": "ym2612"
    },
    {
      "channel": 1,
      "note": 53,
      "start": 34.7337,
      "duration": 0.1164,
      "velocity": 115,
      "chip": "ym2612"
    },
    {
      "channel": 1,
      "note": 53,
      "start": 34.8503,
      "duration": 0.1165,
      "velocity": 115,
      "chip": "ym2612"
    },
    {
      "channel": 4,
      "note": 87,
      "start": 34.851,
      "duration": 3.6066,
      "velocity": 97,
      "chip": "ym2612"
    },
    {
      "channel": 1,
      "note": 53,
      "start": 34.967,
      "duration": 0.1332,
      "velocity": 115,
      "chip": "ym2612"
    },
    {
      "channel": 1,
      "note": 65,
      "start": 35.1003,
      "duration": 0.1165,
      "velocity": 115,
      "chip": "ym2612"
    },
    {
      "channel": 1,
      "note": 53,
      "start": 35.217,
      "duration": 0.1165,
      "velocity": 115,
      "chip": "ym2612"
    },
    {
      "channel": 1,
      "note": 53,
      "start": 35.3337,
      "duration": 0.1165,
      "velocity": 115,
      "chip": "ym2612"
    },
    {
      "channel": 1,
      "note": 63,
      "start": 35.4503,
      "duration": 0.1165,
      "velocity": 115,
      "chip": "ym2612"
    },
    {
      "channel": 1,
      "note": 53,
      "start": 35.567,
      "duration": 0.1332,
      "velocity": 115,
      "chip": "ym2612"
    },
    {
      "channel": 1,
      "note": 53,
      "start": 35.7003,
      "duration": 0.1165,
      "velocity": 115,
      "chip": "ym2612"
    },
    {
      "channel": 1,
      "note": 53,
      "start": 35.817,
      "duration": 0.1165,
      "velocity": 115,
      "chip": "ym2612"
    },
    {
      "channel": 1,
      "note": 65,
      "start": 35.9337,
      "duration": 0.1165,
      "velocity": 115,
      "chip": "ym2612"
    },
    {
      "channel": 1,
      "note": 53,
      "start": 36.0503,
      "duration": 0.1165,
      "velocity": 115,
      "chip": "ym2612"
    },
    {
      "channel": 1,
      "note": 53,
      "start": 36.167,
      "duration": 0.1332,
      "velocity": 115,
      "chip": "ym2612"
    },
    {
      "channel": 1,
      "note": 61,
      "start": 36.3003,
      "duration": 0.1165,
      "velocity": 115,
      "chip": "ym2612"
    },
    {
      "channel": 1,
      "note": 63,
      "start": 36.417,
      "duration": 0.1171,
      "velocity": 115,
      "chip": "ym2612"
    },
    {
      "channel": 0,
      "note": 67,
      "start": 36.5337,
      "duration": 1.9166,
      "velocity": 109,
      "chip": "ym2612"
    },
    {
      "channel": 1,
      "note": 53,
      "start": 36.5342,
      "duration": 0.116,
      "velocity": 115,
      "chip": "ym2612"
    },
    {
      "channel": 2,
      "note": 63,
      "start": 36.5347,
      "duration": 1.9184,
      "velocity": 115,
      "chip": "ym2612"
    },
    {
      "channel": 1,
      "note": 53,
      "start": 36.6504,
      "duration": 0.1164,
      "velocity": 115,
      "chip": "ym2612"
    },
    {
      "channel": 1,
      "note": 53,
      "start": 36.767,
      "duration": 0.1332,
      "velocity": 115,
      "chip": "ym2612"
    },
    {
      "channel": 1,
      "note": 53,
      "start": 36.9003,
      "duration": 0.1165,
      "velocity": 115,
      "chip": "ym2612"
    },
    {
      "channel": 1,
      "note": 65,
      "start": 37.017,
      "duration": 0.1165,
      "velocity": 115,
      "chip": "ym2612"
    },
    {
      "channel": 1,
      "note": 53,
      "start": 37.1337,
      "duration": 0.1165,
      "velocity": 115,
      "chip": "ym2612"
    },
    {
      "channel": 1,
      "note": 53,
      "start": 37.2503,
      "duration": 0.1165,
      "velocity": 115,
      "chip": "ym2612"
    },
    {
      "channel": 1,
      "note": 63,
      "start": 37.367,
      "duration": 0.1332,
      "velocity": 115,
      "chip": "ym2612"
    },
    {
      "channel": 1,
      "note": 53,
      "start": 37.5003,
      "duration": 0.1165,
      "velocity": 115,
      "chip": "ym2612"
    },
    {
      "channel": 1,
      "note": 53,
      "start": 37.617,
      "duration": 0.1165,
      "velocity": 115,
      "chip": "ym2612"
    },
    {
      "channel": 1,
      "note": 53,
      "start": 37.7337,
      "duration": 0.1165,
      "velocity": 115,
      "chip": "ym2612"
    },
    {
      "channel": 1,
      "note": 53,
      "start": 37.8503,
      "duration": 0.1165,
      "velocity": 115,
      "chip": "ym2612"
    },
    {
      "channel": 1,
      "note": 65,
      "start": 37.967,
      "duration": 0.1332,
      "velocity": 115,
      "chip": "ym2612"
    },
    {
      "channel": 1,
      "note": 53,
      "start": 38.1003,
      "duration": 0.1165,
      "velocity": 115,
      "chip": "ym2612"
    },
    {
      "channel": 1,
      "note": 60,
      "start": 38.217,
      "duration": 0.1165,
      "velocity": 115,
      "chip": "ym2612"
    },
    {
      "channel": 1,
      "note": 63,
      "start": 38.3337,
      "duration": 0.1172,
      "velocity": 115,
      "chip": "ym2612"
    },
    {
      "channel": 0,
      "note": 51,
      "start": 38.4505,
      "duration": 0.2496,
      "velocity": 109,
      "chip": "ym2612"
    },
    {
      "channel": 1,
      "note": 53,
      "start": 38.4511,
      "duration": 0.1158,
      "velocity": 115,
      "chip": "ym2612"
    },
    {
      "channel": 2,
      "note": 56,
      "start": 38.4532,
      "duration": 0.248,
      "velocity": 115,
      "chip": "ym2612"
    },
    {
      "channel": 3,
      "note": 89,
      "start": 38.4555,
      "duration": 0.712,
      "velocity": 97,
      "chip": "ym2612"
    },
    {
      "channel": 4,
      "note": 84,
      "start": 38.4577,
      "duration": 0.7104,
      "velocity": 97,
      "chip": "ym2612"
    },
    {
      "channel": 1,
      "note": 53,
      "start": 38.5671,
      "duration": 0.1335,
      "velocity": 115,
      "chip": "ym2612"
    },
    {
      "channel": 0,
      "note": 51,
      "start": 38.7002,
      "duration": 0.1165,
      "velocity": 109,
      "chip": "ym2612"
    },
    {
      "channel": 1,
      "note": 53,
      "start": 38.7008,
      "duration": 0.1165,
      "velocity": 115,
      "chip": "ym2612"
    },
    {
      "channel": 2,
      "note": 56,
      "start": 38.7013,
      "duration": 0.1165,
      "velocity": 115,
      "chip": "ym2612"
    },
    {
      "channel": 0,
      "note": 50,
      "start": 38.8169,
      "duration": 0.2332,
      "velocity": 109,
      "chip": "ym2612"
    },
    {
      "channel": 1,
      "note": 53,
      "start": 38.8174,
      "duration": 0.116,
      "velocity": 115,
      "chip": "ym2612"
    },
    {
      "channel": 2,
      "note": 55,
      "start": 38.818,
      "duration": 0.2332,
      "velocity": 115,
      "chip": "ym2612"
    },
    {
      "channel": 1,
      "note": 65,
      "start": 38.9337,
      "duration": 0.117,
      "velocity": 115,
      "chip": "ym2612"
    },
    {
      "channel": 0,
      "note": 46,
      "start": 39.0502,
      "duration": 0.2499,
      "velocity": 109,
      "chip": "ym2612"
    },
    {
      "channel": 1,
      "note": 53,
      "start": 39.0508,
      "duration": 0.116,
      "velocity": 115,
      "chip": "ym2612"
    },
    {
      "channel": 2,
      "note": 51,
      "start": 39.0514,
      "duration": 0.2499,
      "velocity": 115,
      "chip": "ym2612"
    },
    {
      "channel": 1,
      "note": 53,
      "start": 39.1671,
      "duration": 0.1337,
      "velocity": 115,
      "chip": "ym2612"
    },
    {
      "channel": 3,
      "note": 87,
      "start": 39.1677,
      "duration": 0.1341,
      "velocity": 97,
      "chip": "ym2612"
    },
    {
      "channel": 4,
      "note": 83,
      "start": 39.1682,
      "duration": 0.1342,
      "velocity": 97,
      "chip": "ym2612"
    },
    {
      "channel": 0,
      "note": 49,
      "start": 39.3003,
      "duration": 0.2332,
      "velocity": 109,
      "chip": "ym2612"
    },
    {
      "channel": 1,
      "note": 63,
      "start": 39.3009,
      "duration": 0.116,
      "velocity": 115,
      "chip": "ym2612"
    },
    {
      "channel": 2,
      "note": 54,
      "start": 39.3014,
      "duration": 0.2332,
      "velocity": 115,
      "chip": "ym2612"
    },
    {
      "channel": 3,
      "note": 89,
      "start": 39.302,
      "duration": 0.1155,
      "velocity": 97,
      "chip": "ym2612"
    },
    {
      "channel": 4,
      "note": 84,
      "start": 39.3025,
      "duration": 0.1155,
      "velocity": 97,
      "chip": "ym2612"
    },
    {
      "channel": 1,
      "note": 53,
      "start": 39.4171,
      "duration": 0.117,
      "velocity": 115,
      "chip": "ym2612"
    },
    {
      "channel": 3,
      "note": 96,
      "start": 39.4177,
      "duration": 2.8841,
      "velocity": 97,
      "chip": "ym2612"
    },
    {
      "channel": 4,
      "note": 92,
      "start": 39.4183,
      "duration": 2.8841,
      "velocity": 97,
      "chip": "ym2612"
    },
    {
      "channel": 0,
      "note": 49,
      "start": 39.5337,
      "duration": 0.1164,
      "velocity": 109,
      "chip": "ym2612"
    },
    {
      "channel": 1,
      "note": 53,
      "start": 39.5342,
      "duration": 0.1164,
      "velocity": 115,
      "chip": "ym2612"
    },
    {
      "channel": 2,
      "note": 54,
      "start": 39.5348,
      "duration": 0.1163,
      "velocity": 115,
      "chip": "ym2612"
    },
    {
      "channel": 0,
      "note": 48,
      "start": 39.6502,
      "duration": 0.2499,
      "velocity": 109,
      "chip": "ym2612"
    },
    {
      "channel": 1,
      "note": 53,
      "start": 39.6508,
      "duration": 0.116,
      "velocity": 115,
      "chip": "ym2612"
    },
    {
      "channel": 2,
      "note": 53,
      "start": 39.6513,
      "duration": 0.2499,
      "velocity": 115,
      "chip": "ym2612"
    },
    {
      "channel": 1,
      "note": 53,
      "start": 39.767,
      "duration": 0.1337,
      "velocity": 115,
      "chip": "ym2612"
    },
    {
      "channel": 0,
      "note": 44,
      "start": 39.9002,
      "duration": 0.2332,
      "velocity": 109,
      "chip": "ym2612"
    },
    {
      "channel": 1,
      "note": 65,
      "start": 39.9008,
      "duration": 0.116,
      "velocity": 115,
      "chip": "ym2612"
    },
    {
      "channel": 2,
      "note": 49,
      "start": 39.9014,
      "duration": 0.2331,
      "velocity": 115,
      "chip": "ym2612"
    },
    {
      "channel": 1,
      "note": 53,
      "start": 40.0171,
      "duration": 0.1169,
      "velocity": 115,
      "chip": "ym2612"
    },
    {
      "channel": 0,
      "note": 41,
      "start": 40.1336,
      "duration": 0.2332,
      "velocity": 109,
      "chip": "ym2612"
    },
    {
      "channel": 1,
      "note": 53,
      "start": 40.1341,
      "duration": 0.116,
      "velocity": 115,
      "chip": "ym2612"
    },
    {
      "channel": 2,
      "note": 46,
      "start": 40.1347,
      "duration": 0.2332,
      "velocity": 115,
      "chip": "ym2612"
    },
    {
      "channel": 1,
      "note": 51,
      "start": 40.2503,
      "duration": 0.117,
      "velocity": 115,
      "chip": "ym2612"
    },
    {
      "channel": 0,
      "note": 43,
      "start": 40.3669,
      "duration": 0.2498,
      "velocity": 109,
      "chip": "ym2612"
    },
    {
      "channel": 1,
      "note": 53,
      "start": 40.3675,
      "duration": 0.1327,
      "velocity": 115,
      "chip": "ym2612"
    },
    {
      "channel": 2,
      "note": 48,
      "start": 40.3681,
      "duration": 0.2497,
      "velocity": 115,
      "chip": "ym2612"
    },
    {
      "channel": 1,
      "note": 53,
      "start": 40.5004,
      "duration": 0.1169,
      "velocity": 115,
      "chip": "ym2612"
    },
    {
      "channel": 0,
      "note": 43,
      "start": 40.6169,
      "duration": 0.1165,
      "velocity": 109,
      "chip": "ym2612"
    },
    {
      "channel": 1,
      "note": 53,
      "start": 40.6174,
      "duration": 0.1165,
      "velocity": 115,
      "chip": "ym2612"
    },
    {
      "channel": 2,
      "note": 48,
      "start": 40.618,
      "duration": 0.1165,
      "velocity": 115,
      "chip": "ym2612"
    },
    {
      "channel": 0,
      "note": 44,
      "start": 40.7336,
      "duration": 0.2332,
      "velocity": 109,
      "chip": "ym2612"
    },
    {
      "channel": 1,
      "note": 53,
      "start": 40.7341,
      "duration": 0.116,
      "velocity": 115,
      "chip": "ym2612"
    },
    {
      "channel": 2,
      "note": 49,
      "start": 40.7347,
      "duration": 0.2333,
      "velocity": 115,
      "chip": "ym2612"
    },
    {
      "channel": 1,
      "note": 65,
      "start": 40.8504,
      "duration": 0.117,
      "velocity": 115,
      "chip": "ym2612"
    },
    {
      "channel": 0,
      "note": 46,
      "start": 40.967,
      "duration": 0.2498,
      "velocity": 109,
      "chip": "ym2612"
    },
    {
      "channel": 1,
      "note": 53,
      "start": 40.9676,
      "duration": 0.1326,
      "velocity": 115,
      "chip": "ym2612"
    },
    {
      "channel": 2,
      "note": 51,
      "start": 40.9681,
      "duration": 0.2498,
      "velocity": 115,
      "chip": "ym2612"
    },
    {
      "channel": 1,
      "note": 53,
      "start": 41.1003,
      "duration": 0.117,
      "velocity": 115,
      "chip": "ym2612"
    },
    {
      "channel": 0,
      "note": 43,
      "start": 41.2169,
      "duration": 0.2332,
      "velocity": 109,
      "chip": "ym2612"
    },
    {
      "channel": 1,
      "note": 63,
      "start": 41.2175,
      "duration": 0.116,
      "velocity": 115,
      "chip": "ym2612"
    },
    {
      "channel": 2,
      "note": 48,
      "start": 41.218,
      "duration": 0.2333,
      "velocity": 115,
      "chip": "ym2612"
    },
    {
      "channel": 1,
      "note": 53,
      "start": 41.3337,
      "duration": 0.117,
      "velocity": 115,
      "chip": "ym2612"
    },
    {
      "channel": 0,
      "note": 43,
      "start": 41.4503,
      "duration": 0.1165,
      "velocity": 109,
      "chip": "ym2612"
    },
    {
      "channel": 1,
      "note": 53,
      "start": 41.4509,
      "duration": 0.1165,
      "velocity": 115,
      "chip": "ym2612"
    },
    {
      "channel": 2,
      "note": 48,
      "start": 41.4514,
      "duration": 0.1165,
      "velocity": 115,
      "chip": "ym2612"
    },
    {
      "channel": 0,
      "note": 44,
      "start": 41.567,
      "duration": 0.2498,
      "velocity": 109,
      "chip": "ym2612"
    },
    {
      "channel": 1,
      "note": 53,
      "start": 41.5676,
      "duration": 0.1326,
      "velocity": 115,
      "chip": "ym2612"
    },
    {
      "channel": 2,
      "note": 49,
      "start": 41.5681,
      "duration": 0.2499,
      "velocity": 115,
      "chip": "ym2612"
    },
    {
      "channel": 1,
      "note": 53,
      "start": 41.7004,
      "duration": 0.117,
      "velocity": 115,
      "chip": "ym2612"
    },
    {
      "channel": 0,
      "note": 46,
      "start": 41.817,
      "duration": 0.2331,
      "velocity": 109,
      "chip": "ym2612"
    },
    {
      "channel": 1,
      "note": 65,
      "start": 41.8176,
      "duration": 0.116,
      "velocity": 115,
      "chip": "ym2612"
    },
    {
      "channel": 2,
      "note": 51,
      "start": 41.8181,
      "duration": 0.2331,
      "velocity": 115,
      "chip": "ym2612"
    },
    {
      "channel": 1,
      "note": 53,
      "start": 41.9337,
      "duration": 0.1169,
      "velocity": 115,
      "chip": "ym2612"
    },
    {
      "channel": 0,
      "note": 48,
      "start": 42.0502,
      "duration": 0.2499,
      "velocity": 109,
      "chip": "ym2612"
    },
    {
      "channel": 1,
      "note": 53,
      "start": 42.0508,
      "duration": 0.116,
      "velocity": 115,
      "chip": "ym2612"
    },
    {
      "channel": 2,
      "note": 53,
      "start": 42.0513,
      "duration": 0.2499,
      "velocity": 115,
      "chip": "ym2612"
    },
    {
      "channel": 1,
      "note": 51,
      "start": 42.167,
      "duration": 0.1337,
      "velocity": 115,
      "chip": "ym2612"
    },
    {
      "channel": 0,
      "note": 49,
      "start": 42.3003,
      "duration": 0.2331,
      "velocity": 109,
      "chip": "ym2612"
    },
    {
      "channel": 1,
      "note": 49,
      "start": 42.3009,
      "duration": 0.116,
      "velocity": 115,
      "chip": "ym2612"
    },
    {
      "channel": 2,
      "note": 54,
      "start": 42.3014,
      "duration": 0.2331,
      "velocity": 115,
      "chip": "ym2612"
    },
    {
      "channel": 3,
      "note": 89,
      "start": 42.302,
      "duration": 0.7155,
      "velocity": 97,
      "chip": "ym2612"
    },
    {
      "channel": 4,
      "note": 84,
      "start": 42.3025,
      "duration": 0.7155,
      "velocity": 97,
      "chip": "ym2612"
    },
    {
      "channel": 1,
      "note": 49,
      "start": 42.4171,
      "duration": 0.1168,
      "velocity": 115,
      "chip": "ym2612"
    },
    {
      "channel": 0,
      "note": 49,
      "start": 42.5336,
      "duration": 0.1165,
      "velocity": 109,
      "chip": "ym2612"
    },
    {
      "channel": 1,
      "note": 49,
      "start": 42.5341,
      "duration": 0.1165,
      "velocity": 115,
      "chip": "ym2612"
    },
    {
      "channel": 2,
      "note": 54,
      "start": 42.5347,
      "duration": 0.1165,
      "velocity": 115,
      "chip": "ym2612"
    },
    {
      "channel": 0,
      "note": 48,
      "start": 42.6502,
      "duration": 0.2499,
      "velocity": 109,
      "chip": "ym2612"
    },
    {
      "channel": 1,
      "note": 49,
      "start": 42.6508,
      "duration": 0.116,
      "velocity": 115,
      "chip": "ym2612"
    },
    {
      "channel": 2,
      "note": 53,
      "start": 42.6513,
      "duration": 0.2499,
      "velocity": 115,
      "chip": "ym2612"
    },
    {
      "channel": 1,
      "note": 61,
      "start": 42.7671,
      "duration": 0.1337,
      "velocity": 115,
      "chip": "ym2612"
    },
    {
      "channel": 0,
      "note": 44,
      "start": 42.9003,
      "duration": 0.2332,
      "velocity": 109,
      "chip": "ym2612"
    },
    {
      "channel": 1,
      "note": 49,
      "start": 42.9009,
      "duration": 0.116,
      "velocity": 115,
      "chip": "ym2612"
    },
    {
      "channel": 2,
      "note": 49,
      "start": 42.9014,
      "duration": 0.2332,
      "velocity": 115,
      "chip": "ym2612"
    },
    {
      "channel": 1,
      "note": 49,
      "start": 43.0171,
      "duration": 0.117,
      "velocity": 115,
      "chip": "ym2612"
    },
    {
      "channel": 3,
      "note": 87,
      "start": 43.0177,
      "duration": 0.1175,
      "velocity": 97,
      "chip": "ym2612"
    },
    {
      "channel": 4,
      "note": 83,
      "start": 43.0182,
      "duration": 0.1175,
      "velocity": 97,
      "chip": "ym2612"
    },
    {
      "channel": 0,
      "note": 47,
      "start": 43.1337,
      "duration": 0.2332,
      "velocity": 109,
      "chip": "ym2612"
    },
    {
      "channel": 1,
      "note": 59,
      "start": 43.1342,
      "duration": 0.116,
      "velocity": 115,
      "chip": "ym2612"
    },
    {
      "channel": 2,
      "note": 52,
      "start": 43.1347,
      "duration": 0.2333,
      "velocity": 115,
      "chip": "ym2612"
    },
    {
      "channel": 3,
      "note": 89,
      "start": 43.1353,
      "duration": 0.1155,
      "velocity": 97,
      "chip": "ym2612"
    },
    {
      "channel": 4,
      "note": 84,
      "start": 43.1359,
      "duration": 0.1155,
      "velocity": 97,
      "chip": "ym2612"
    },
    {
      "channel": 1,
      "note": 49,
      "start": 43.2504,
      "duration": 0.1171,
      "velocity": 115,
      "chip": "ym2612"
    },
    {
      "channel": 3,
      "note": 92,
      "start": 43.251,
      "duration": 2.8844,
      "velocity": 97,
      "chip": "ym2612"
    },
    {
      "channel": 4,
      "note": 87,
      "start": 43.2515,
      "duration": 2.8845,
      "velocity": 97,
      "chip": "ym2612"
    },
    {
      "channel": 0,
      "note": 47,
      "start": 43.3671,
      "duration": 0.133,
      "velocity": 109,
      "chip": "ym2612"
    },
    {
      "channel": 1,
      "note": 49,
      "start": 43.3676,
      "duration": 0.133,
      "velocity": 115,
      "chip": "ym2612"
    },
    {
      "channel": 2,
      "note": 52,
      "start": 43.3681,
      "duration": 0.1331,
      "velocity": 115,
      "chip": "ym2612"
    },
    {
      "channel": 0,
      "note": 46,
      "start": 43.5002,
      "duration": 0.2332,
      "velocity": 109,
      "chip": "ym2612"
    },
    {
      "channel": 1,
      "note": 49,
      "start": 43.5008,
      "duration": 0.116,
      "velocity": 115,
      "chip": "ym2612"
    },
    {
      "channel": 2,
      "note": 51,
      "start": 43.5013,
      "duration": 0.2333,
      "velocity": 115,
      "chip": "ym2612"
    },
    {
      "channel": 1,
      "note": 49,
      "start": 43.617,
      "duration": 0.1171,
      "velocity": 115,
      "chip": "ym2612"
    },
    {
      "channel": 0,
      "note": 42,
      "start": 43.7337,
      "duration": 0.2331,
      "velocity": 109,
      "chip": "ym2612"
    },
    {
      "channel": 1,
      "note": 61,
      "start": 43.7342,
      "duration": 0.116,
      "velocity": 115,
      "chip": "ym2612"
    },
    {
      "channel": 2,
      "note": 47,
      "start": 43.7347,
      "duration": 0.2331,
      "velocity": 115,
      "chip": "ym2612"
    },
    {
      "channel": 1,
      "note": 49,
      "start": 43.8504,
      "duration": 0.1169,
      "velocity": 115,
      "chip": "ym2612"
    },
    {
      "channel": 0,
      "note": 39,
      "start": 43.9669,
      "duration": 0.2499,
      "velocity": 109,
      "chip": "ym2612"
    },
    {
      "channel": 1,
      "note": 49,
      "start": 43.9674,
      "duration": 0.1327,
      "velocity": 115,
      "chip": "ym2612"
    },
    {
      "channel": 2,
      "note": 44,
      "start": 43.968,
      "duration": 0.2499,
      "velocity": 115,
      "chip": "ym2612"
    },
    {
      "channel": 1,
      "note": 47,
      "start": 44.1003,
      "duration": 0.1171,
      "velocity": 115,
      "chip": "ym2612"
    },
    {
      "channel": 0,
      "note": 41,
      "start": 44.217,
      "duration": 0.2331,
      "velocity": 109,
      "chip": "ym2612"
    },
    {
      "channel": 1,
      "note": 49,
      "start": 44.2176,
      "duration": 0.116,
      "velocity": 115,
      "chip": "ym2612"
    },
    {
      "channel": 2,
      "note": 46,
      "start": 44.2181,
      "duration": 0.2331,
      "velocity": 115,
      "chip": "ym2612"
    },
    {
      "channel": 1,
      "note": 49,
      "start": 44.3337,
      "duration": 0.1169,
      "velocity": 115,
      "chip": "ym2612"
    },
    {
      "channel": 0,
      "note": 41,
      "start": 44.4502,
      "duration": 0.1165,
      "velocity": 109,
      "chip": "ym2612"
    },
    {
      "channel": 1,
      "note": 49,
      "start": 44.4508,
      "duration": 0.1165,
      "velocity": 115,
      "chip": "ym2612"
    },
    {
      "channel": 2,
      "note": 46,
      "start": 44.4513,
      "duration": 0.1165,
      "velocity": 115,
      "chip": "ym2612"
    },
    {
      "channel": 0,
      "note": 42,
      "start": 44.5669,
      "duration": 0.2499,
      "velocity": 109,
      "chip": "ym2612"
    },
    {
      "channel": 1,
      "note": 49,
      "start": 44.5675,
      "duration": 0.1327,
      "velocity": 115,
      "chip": "ym2612"
    },
    {
      "channel": 2,
      "note": 47,
      "start": 44.568,
      "duration": 0.2499,
      "velocity": 115,
      "chip": "ym2612"
    },
    {
      "channel": 1,
      "note": 61,
      "start": 44.7004,
      "duration": 0.117,
      "velocity": 115,
      "chip": "ym2612"
    },
    {
      "channel": 0,
      "note": 44,
      "start": 44.817,
      "duration": 0.2331,
      "velocity": 109,
      "chip": "ym2612"
    },
    {
      "channel": 1,
      "note": 49,
      "start": 44.8175,
      "duration": 0.116,
      "velocity": 115,
      "chip": "ym2612"
    },
    {
      "channel": 2,
      "note": 49,
      "start": 44.8181,
      "duration": 0.2331,
      "velocity": 115,
      "chip": "ym2612"
    },
    {
      "channel": 1,
      "note": 49,
      "start": 44.9337,
      "duration": 0.117,
      "velocity": 115,
      "chip": "ym2612"
    },
    {
      "channel": 0,
      "note": 41,
      "start": 45.0502,
      "duration": 0.2499,
      "velocity": 109,
      "chip": "ym2612"
    },
    {
      "channel": 1,
      "note": 59,
      "start": 45.0508,
      "duration": 0.116,
      "velocity": 115,
      "chip": "ym2612"
    },
    {
      "channel": 2,
      "note": 46,
      "start": 45.0513,
      "duration": 0.2499,
      "velocity": 115,
      "chip": "ym2612"
    },
    {
      "channel": 1,
      "note": 49,
      "start": 45.167,
      "duration": 0.1337,
      "velocity": 115,
      "chip": "ym2612"
    },
    {
      "channel": 0,
      "note": 41,
      "start": 45.3002,
      "duration": 0.1166,
      "velocity": 109,
      "chip": "ym2612"
    },
    {
      "channel": 1,
      "note": 49,
      "start": 45.3008,
      "duration": 0.1165,
      "velocity": 115,
      "chip": "ym2612"
    },
    {
      "channel": 2,
      "note": 46,
      "start": 45.3014,
      "duration": 0.1165,
      "velocity": 115,
      "chip": "ym2612"
    },
    {
      "channel": 0,
      "note": 42,
      "start": 45.4169,
      "duration": 0.2332,
      "velocity": 109,
      "chip": "ym2612"
    },
    {
      "channel": 1,
      "note": 49,
      "start": 45.4175,
      "duration": 0.116,
      "velocity": 115,
      "chip": "ym2612"
    },
    {
      "channel": 2,
      "note": 47,
      "start": 45.4181,
      "duration": 0.2331,
      "velocity": 115,
      "chip": "ym2612"
    },
    {
      "channel": 1,
      "note": 49,
      "start": 45.5337,
      "duration": 0.1171,
      "velocity": 115,
      "chip": "ym2612"
    },
    {
      "channel": 0,
      "note": 44,
      "start": 45.6503,
      "duration": 0.2498,
      "velocity": 109,
      "chip": "ym2612"
    },
    {
      "channel": 1,
      "note": 61,
      "start": 45.6508,
      "duration": 0.116,
      "velocity": 115,
      "chip": "ym2612"
    },
    {
      "channel": 2,
      "note": 49,
      "start": 45.6514,
      "duration": 0.2498,
      "velocity": 115,
      "chip": "ym2612"
    },
    {
      "channel": 1,
      "note": 49,
      "start": 45.767,
      "duration": 0.1337,
      "velocity": 115,
      "chip": "ym2612"
    },
    {
      "channel": 0,
      "note": 47,
      "start": 45.9002,
      "duration": 0.2333,
      "velocity": 109,
      "chip": "ym2612"
    },
    {
      "channel": 1,
      "note": 49,
      "start": 45.9008,
      "duration": 0.116,
      "velocity": 115,
      "chip": "ym2612"
    },
    {
      "channel": 2,
      "note": 52,
      "start": 45.9013,
      "duration": 0.2334,
      "velocity": 115,
      "chip": "ym2612"
    },
    {
      "channel": 1,
      "note": 47,
      "start": 46.017,
      "duration": 0.1172,
      "velocity": 115,
      "chip": "ym2612"
    },
    {
      "channel": 0,
      "note": 51,
      "start": 46.1337,
      "duration": 0.233,
      "velocity": 109,
      "chip": "ym2612"
    },
    {
      "channel": 1,
      "note": 53,
      "start": 46.1344,
      "duration": 0.1159,
      "velocity": 115,
      "chip": "ym2612"
    },
    {
      "channel": 2,
      "note": 56,
      "start": 46.135,
      "duration": 0.2329,
      "velocity": 115,
      "chip": "ym2612"
    },
    {
      "channel": 3,
      "note": 89,
      "start": 46.1356,
      "duration": 0.7153,
      "velocity": 97,
      "chip": "ym2612"
    },
    {
      "channel": 4,
      "note": 84,
      "start": 46.1362,
      "duration": 0.7152,
      "velocity": 97,
      "chip": "ym2612"
    },
    {
      "channel": 1,
      "note": 53,
      "start": 46.2505,
      "duration": 0.1168,
      "velocity": 115,
      "chip": "ym2612"
    },
    {
      "channel": 0,
      "note": 51,
      "start": 46.3669,
      "duration": 0.1332,
      "velocity": 109,
      "chip": "ym2612"
    },
    {
      "channel": 1,
      "note": 53,
      "start": 46.3675,
      "duration": 0.1332,
      "velocity": 115,
      "chip": "ym2612"
    },
    {
      "channel": 2,
      "note": 56,
      "start": 46.368,
      "duration": 0.1332,
      "velocity": 115,
      "chip": "ym2612"
    },
    {
      "channel": 0,
      "note": 50,
      "start": 46.5002,
      "duration": 0.2332,
      "velocity": 109,
      "chip": "ym2612"
    },
    {
      "channel": 1,
      "note": 53,
      "start": 46.5008,
      "duration": 0.116,
      "velocity": 115,
      "chip": "ym2612"
    },
    {
      "channel": 2,
      "note": 55,
      "start": 46.5013,
      "duration": 0.2333,
      "velocity": 115,
      "chip": "ym2612"
    },
    {
      "channel": 1,
      "note": 65,
      "start": 46.6171,
      "duration": 0.117,
      "velocity": 115,
      "chip": "ym2612"
    },
    {
      "channel": 0,
      "note": 46,
      "start": 46.7337,
      "duration": 0.2332,
      "velocity": 109,
      "chip": "ym2612"
    },
    {
      "channel": 1,
      "note": 53,
      "start": 46.7342,
      "duration": 0.116,
      "velocity": 115,
      "chip": "ym2612"
    },
    {
      "channel": 2,
      "note": 51,
      "start": 46.7347,
      "duration": 0.2332,
      "velocity": 115,
      "chip": "ym2612"
    },
    {
      "channel": 1,
      "note": 53,
      "start": 46.8504,
      "duration": 0.117,
      "velocity": 115,
      "chip": "ym2612"
    },
    {
      "channel": 3,
      "note": 87,
      "start": 46.851,
      "duration": 0.1174,
      "velocity": 97,
      "chip": "ym2612"
    },
    {
      "channel": 4,
      "note": 83,
      "start": 46.8515,
      "duration": 0.1175,
      "velocity": 97,
      "chip": "ym2612"
    },
    {
      "channel": 0,
      "note": 49,
      "start": 46.967,
      "duration": 0.2499,
      "velocity": 109,
      "chip": "ym2612"
    },
    {
      "channel": 1,
      "note": 63,
      "start": 46.9676,
      "duration": 0.1326,
      "velocity": 115,
      "chip": "ym2612"
    },
    {
      "channel": 2,
      "note": 54,
      "start": 46.9681,
      "duration": 0.2499,
      "velocity": 115,
      "chip": "ym2612"
    },
    {
      "channel": 3,
      "note": 89,
      "start": 46.9686,
      "duration": 0.1322,
      "velocity": 97,
      "chip": "ym2612"
    },
    {
      "channel": 4,
      "note": 84,
      "start": 46.9692,
      "duration": 0.1322,
      "velocity": 97,
      "chip": "ym2612"
    },
    {
      "channel": 1,
      "note": 53,
      "start": 47.1004,
      "duration": 0.1171,
      "velocity": 115,
      "chip": "ym2612"
    },
    {
      "channel": 3,
      "note": 96,
      "start": 47.101,
      "duration": 2.8674,
      "velocity": 97,
      "chip": "ym2612"
    },
    {
      "channel": 4,
      "note": 92,
      "start": 47.1016,
      "duration": 2.8674,
      "velocity": 97,
      "chip": "ym2612"
    },
    {
      "channel": 0,
      "note": 49,
      "start": 47.2171,
      "duration": 0.1163,
      "velocity": 109,
      "chip": "ym2612"
    },
    {
      "channel": 1,
      "note": 53,
      "start": 47.2176,
      "duration": 0.1163,
      "velocity": 115,
      "chip": "ym2612"
    },
    {
      "channel": 2,
      "note": 54,
      "start": 47.2181,
      "duration": 0.1163,
      "velocity": 115,
      "chip": "ym2612"
    },
    {
      "channel": 0,
      "note": 48,
      "start": 47.3336,
      "duration": 0.2332,
      "velocity": 109,
      "chip": "ym2612"
    },
    {
      "channel": 1,
      "note": 53,
      "start": 47.3341,
      "duration": 0.116,
      "velocity": 115,
      "chip": "ym2612"
    },
    {
      "channel": 2,
      "note": 53,
      "start": 47.3347,
      "duration": 0.2333,
      "velocity": 115,
      "chip": "ym2612"
    },
    {
      "channel": 1,
      "note": 53,
      "start": 47.4503,
      "duration": 0.1171,
      "velocity": 115,
      "chip": "ym2612"
    },
    {
      "channel": 0,
      "note": 44,
      "start": 47.567,
      "duration": 0.2498,
      "velocity": 109,
      "chip": "ym2612"
    },
    {
      "channel": 1,
      "note": 65,
      "start": 47.5676,
      "duration": 0.1326,
      "velocity": 115,
      "chip": "ym2612"
    },
    {
      "channel": 2,
      "note": 49,
      "start": 47.5681,
      "duration": 0.2498,
      "velocity": 115,
      "chip": "ym2612"
    },
    {
      "channel": 1,
      "note": 53,
      "start": 47.7004,
      "duration": 0.1169,
      "velocity": 115,
      "chip": "ym2612"
    },
    {
      "channel": 0,
      "note": 41,
      "start": 47.8169,
      "duration": 0.2332,
      "velocity": 109,
      "chip": "ym2612"
    },
    {
      "channel": 1,
      "note": 53,
      "start": 47.8175,
      "duration": 0.116,
      "velocity": 115,
      "chip": "ym2612"
    },
    {
      "channel": 2,
      "note": 46,
      "start": 47.818,
      "duration": 0.2333,
      "velocity": 115,
      "chip": "ym2612"
    },
    {
      "channel": 1,
      "note": 51,
      "start": 47.9337,
      "duration": 0.1171,
      "velocity": 115,
      "chip": "ym2612"
    },
    {
      "channel": 0,
      "note": 43,
      "start": 48.0503,
      "duration": 0.2498,
      "velocity": 109,
      "chip": "ym2612"
    },
    {
      "channel": 1,
      "note": 53,
      "start": 48.0509,
      "duration": 0.116,
      "velocity": 115,
      "chip": "ym2612"
    },
    {
      "channel": 2,
      "note": 48,
      "start": 48.0514,
      "duration": 0.2498,
      "velocity": 115,
      "chip": "ym2612"
    },
    {
      "channel": 1,
      "note": 53,
      "start": 48.1671,
      "duration": 0.1336,
      "velocity": 115,
      "chip": "ym2612"
    },
    {
      "channel": 0,
      "note": 43,
      "start": 48.3002,
      "duration": 0.1165,
      "velocity": 109,
      "chip": "ym2612"
    },
    {
      "channel": 1,
      "note": 53,
      "start": 48.3008,
      "duration": 0.1165,
      "velocity": 115,
      "chip": "ym2612"
    },
    {
      "channel": 2,
      "note": 48,
      "start": 48.3013,
      "duration": 0.1165,
      "velocity": 115,
      "chip": "ym2612"
    },
    {
      "channel": 0,
      "note": 44,
      "start": 48.4169,
      "duration": 0.2332,
      "velocity": 109,
      "chip": "ym2612"
    },
    {
      "channel": 1,
      "note": 53,
      "start": 48.4175,
      "duration": 0.116,
      "velocity": 115,
      "chip": "ym2612"
    },
    {
      "channel": 2,
      "note": 49,
      "start": 48.418,
      "duration": 0.2333,
      "velocity": 115,
      "chip": "ym2612"
    },
    {
      "channel": 1,
      "note": 65,
      "start": 48.5337,
      "duration": 0.1171,
      "velocity": 115,
      "chip": "ym2612"
    },
    {
      "channel": 0,
      "note": 46,
      "start": 48.6503,
      "duration": 0.2498,
      "velocity": 109,
      "chip": "ym2612"
    },
    {
      "channel": 1,
      "note": 53,
      "start": 48.6509,
      "duration": 0.1159,
      "velocity": 115,
      "chip": "ym2612"
    },
    {
      "channel": 2,
      "note": 51,
      "start": 48.6514,
      "duration": 0.2498,
      "velocity": 115,
      "chip": "ym2612"
    },
    {
      "channel": 1,
      "note": 53,
      "start": 48.767,
      "duration": 0.1337,
      "velocity": 115,
      "chip": "ym2612"
    },
    {
      "channel": 0,
      "note": 43,
      "start": 48.9002,
      "duration": 0.2333,
      "velocity": 109,
      "chip": "ym2612"
    },
    {
      "channel": 1,
      "note": 63,
      "start": 48.9008,
      "duration": 0.116,
      "velocity": 115,
      "chip": "ym2612"
    },
    {
      "channel": 2,
      "note": 48,
      "start": 48.9013,
      "duration": 0.2333,
      "velocity": 115,
      "chip": "ym2612"
    },
    {
      "channel": 1,
      "note": 53,
      "start": 49.0171,
      "duration": 0.117,
      "velocity": 115,
      "chip": "ym2612"
    },
    {
      "channel": 0,
      "note": 43,
      "start": 49.1337,
      "duration": 0.1165,
      "velocity": 109,
      "chip": "ym2612"
    },
    {
      "channel": 1,
      "note": 53,
      "start": 49.1342,
      "duration": 0.1165,
      "velocity": 115,
      "chip": "ym2612"
    },
    {
      "channel": 2,
      "note": 48,
      "start": 49.1347,
      "duration": 0.1165,
      "velocity": 115,
      "chip": "ym2612"
    },
    {
      "channel": 0,
      "note": 44,
      "start": 49.2503,
      "duration": 0.2498,
      "velocity": 109,
      "chip": "ym2612"
    },
    {
      "channel": 1,
      "note": 53,
      "start": 49.2509,
      "duration": 0.116,
      "velocity": 115,
      "chip": "ym2612"
    },
    {
      "channel": 2,
      "note": 49,
      "start": 49.2514,
      "duration": 0.2499,
      "velocity": 115,
      "chip": "ym2612"
    },
    {
      "channel": 1,
      "note": 53,
      "start": 49.3671,
      "duration": 0.1337,
      "velocity": 115,
      "chip": "ym2612"
    },
    {
      "channel": 0,
      "note": 46,
      "start": 49.5003,
      "duration": 0.2331,
      "velocity": 109,
      "chip": "ym2612"
    },
    {
      "channel": 1,
      "note": 65,
      "start": 49.5009,
      "duration": 0.116,
      "velocity": 115,
      "chip": "ym2612"
    },
    {
      "channel": 2,
      "note": 51,
      "start": 49.5014,
      "duration": 0.2331,
      "velocity": 115,
      "chip": "ym2612"
    },
    {
      "channel": 1,
      "note": 53,
      "start": 49.6171,
      "duration": 0.1169,
      "velocity": 115,
      "chip": "ym2612"
    },
    {
      "channel": 0,
      "note": 48,
      "start": 49.7336,
      "duration": 0.2332,
      "velocity": 109,
      "chip": "ym2612"
    },
    {
      "channel": 1,
      "note": 53,
      "start": 49.7341,
      "duration": 0.116,
      "velocity": 115,
      "chip": "ym2612"
    },
    {
      "channel": 2,
      "note": 53,
      "start": 49.7347,
      "duration": 0.2333,
      "velocity": 115,
      "chip": "ym2612"
    },
    {
      "channel": 1,
      "note": 51,
      "start": 49.8503,
      "duration": 0.1171,
      "velocity": 115,
      "chip": "ym2612"
    },
    {
      "channel": 0,
      "note": 49,
      "start": 49.967,
      "duration": 0.2498,
      "velocity": 109,
      "chip": "ym2612"
    },
    {
      "channel": 1,
      "note": 49,
      "start": 49.9676,
      "duration": 0.1327,
      "velocity": 115,
      "chip": "ym2612"
    },
    {
      "channel": 2,
      "note": 54,
      "start": 49.9681,
      "duration": 0.2497,
      "velocity": 115,
      "chip": "ym2612"
    },
    {
      "channel": 3,
      "note": 89,
      "start": 49.9686,
      "duration": 0.7322,
      "velocity": 97,
      "chip": "ym2612"
    },
    {
      "channel": 4,
      "note": 84,
      "start": 49.9692,
      "duration": 0.7322,
      "velocity": 97,
      "chip": "ym2612"
    },
    {
      "channel": 1,
      "note": 49,
      "start": 50.1005,
      "duration": 0.1168,
      "velocity": 115,
      "chip": "ym2612"
    },
    {
      "channel": 0,
      "note": 49,
      "start": 50.2169,
      "duration": 0.1165,
      "velocity": 109,
      "chip": "ym2612"
    },
    {
      "channel": 1,
      "note": 49,
      "start": 50.2174,
      "duration": 0.1165,
      "velocity": 115,
      "chip": "ym2612"
    },
    {
      "channel": 2,
      "note": 54,
      "start": 50.218,
      "duration": 0.1165,
      "velocity": 115,
      "chip": "ym2612"
    },
    {
      "channel": 0,
      "note": 48,
      "start": 50.3336,
      "duration": 0.2332,
      "velocity": 109,
      "chip": "ym2612"
    },
    {
      "channel": 1,
      "note": 49,
      "start": 50.3341,
      "duration": 0.116,
      "velocity": 115,
      "chip": "ym2612"
    },
    {
      "channel": 2,
      "note": 53,
      "start": 50.3347,
      "duration": 0.2332,
      "velocity": 115,
      "chip": "ym2612"
    },
    {
      "channel": 1,
      "note": 61,
      "start": 50.4504,
      "duration": 0.1169,
      "velocity": 115,
      "chip": "ym2612"
    },
    {
      "channel": 0,
      "note": 44,
      "start": 50.5669,
      "duration": 0.2499,
      "velocity": 109,
      "chip": "ym2612"
    },
    {
      "channel": 1,
      "note": 49,
      "start": 50.5675,
      "duration": 0.1327,
      "velocity": 115,
      "chip": "ym2612"
    },
    {
      "channel": 2,
      "note": 49,
      "start": 50.5681,
      "duration": 0.2499,
      "velocity": 115,
      "chip": "ym2612"
    },
    {
      "channel": 1,
      "note": 49,
      "start": 50.7004,
      "duration": 0.117,
      "velocity": 115,
      "chip": "ym2612"
    },
    {
      "channel": 3,
      "note": 87,
      "start": 50.701,
      "duration": 0.1174,
      "velocity": 97,
      "chip": "ym2612"
    },
    {
      "channel": 4,
      "note": 83,
      "start": 50.7015,
      "duration": 0.1175,
      "velocity": 97,
      "chip": "ym2612"
    },
    {
      "channel": 0,
      "note": 47,
      "start": 50.817,
      "duration": 0.2332,
      "velocity": 109,
      "chip": "ym2612"
    },
    {
      "channel": 1,
      "note": 59,
      "start": 50.8176,
      "duration": 0.116,
      "velocity": 115,
      "chip": "ym2612"
    },
    {
      "channel": 2,
      "note": 52,
      "start": 50.8181,
      "duration": 0.2332,
      "velocity": 115,
      "chip": "ym2612"
    },
    {
      "channel": 3,
      "note": 89,
      "start": 50.8186,
      "duration": 0.1155,
      "velocity": 97,
      "chip": "ym2612"
    },
    {
      "channel": 4,
      "note": 84,
      "start": 50.8192,
      "duration": 0.1155,
      "velocity": 97,
      "chip": "ym2612"
    },
    {
      "channel": 1,
      "note": 49,
      "start": 50.9337,
      "duration": 0.117,
      "velocity": 115,
      "chip": "ym2612"
    },
    {
      "channel": 3,
      "note": 92,
      "start": 50.9344,
      "duration": 2.8876,
      "velocity": 102,
      "chip": "ym2612"
    },
    {
      "channel": 4,
      "note": 87,
      "start": 50.9349,
      "duration": 2.8892,
      "velocity": 27,
      "chip": "ym2612"
    },
    {
      "channel": 0,
      "note": 47,
      "start": 51.0503,
      "duration": 0.1164,
      "velocity": 109,
      "chip": "ym2612"
    },
    {
      "channel": 1,
      "note": 49,
      "start": 51.0509,
      "duration": 0.1164,
      "velocity": 115,
      "chip": "ym2612"
    },
    {
      "channel": 2,
      "note": 52,
      "start": 51.0515,
      "duration": 0.1164,
      "velocity": 115,
      "chip": "ym2612"
    },
    {
      "channel": 0,
      "note": 46,
      "start": 51.1669,
      "duration": 0.2499,
      "velocity": 109,
      "chip": "ym2612"
    },
    {
      "channel": 1,
      "note": 49,
      "start": 51.1675,
      "duration": 0.1327,
      "velocity": 115,
      "chip": "ym2612"
    },
    {
      "channel": 2,
      "note": 51,
      "start": 51.168,
      "duration": 0.2499,
      "velocity": 115,
      "chip": "ym2612"
    },
    {
      "channel": 1,
      "note": 49,
      "start": 51.3003,
      "duration": 0.117,
      "velocity": 115,
      "chip": "ym2612"
    },
    {
      "channel": 0,
      "note": 42,
      "start": 51.4169,
      "duration": 0.2332,
      "velocity": 109,
      "chip": "ym2612"
    },
    {
      "channel": 1,
      "note": 61,
      "start": 51.4175,
      "duration": 0.116,
      "velocity": 115,
      "chip": "ym2612"
    },
    {
      "channel": 2,
      "note": 47,
      "start": 51.4181,
      "duration": 0.2331,
      "velocity": 115,
      "chip": "ym2612"
    },
    {
      "channel": 1,
      "note": 49,
      "start": 51.5337,
      "duration": 0.117,
      "velocity": 115,
      "chip": "ym2612"
    },
    {
      "channel": 0,
      "note": 39,
      "start": 51.6502,
      "duration": 0.2499,
      "velocity": 109,
      "chip": "ym2612"
    },
    {
      "channel": 1,
      "note": 49,
      "start": 51.6508,
      "duration": 0.116,
      "velocity": 115,
      "chip": "ym2612"
    },
    {
      "channel": 2,
      "note": 44,
      "start": 51.6513,
      "duration": 0.2499,
      "velocity": 115,
      "chip": "ym2612"
    },
    {
      "channel": 1,
      "note": 47,
      "start": 51.767,
      "duration": 0.1337,
      "velocity": 115,
      "chip": "ym2612"
    },
    {
      "channel": 0,
      "note": 41,
      "start": 51.9002,
      "duration": 0.2332,
      "velocity": 109,
      "chip": "ym2612"
    },
    {
      "channel": 1,
      "note": 49,
      "start": 51.9008,
      "duration": 0.116,
      "velocity": 115,
      "chip": "ym2612"
    },
    {
      "channel": 2,
      "note": 46,
      "start": 51.9014,
      "duration": 0.2331,
      "velocity": 115,
      "chip": "ym2612"
    },
    {
      "channel": 1,
      "note": 49,
      "start": 52.0171,
      "duration": 0.1169,
      "velocity": 115,
      "chip": "ym2612"
    },
    {
      "channel": 0,
      "note": 41,
      "start": 52.1336,
      "duration": 0.1165,
      "velocity": 109,
      "chip": "ym2612"
    },
    {
      "channel": 1,
      "note": 49,
      "start": 52.1341,
      "duration": 0.1165,
      "velocity": 115,
      "chip": "ym2612"
    },
    {
      "channel": 2,
      "note": 46,
      "start": 52.1347,
      "duration": 0.1165,
      "velocity": 115,
      "chip": "ym2612"
    },
    {
      "channel": 0,
      "note": 42,
      "start": 52.2502,
      "duration": 0.2499,
      "velocity": 109,
      "chip": "ym2612"
    },
    {
      "channel": 1,
      "note": 49,
      "start": 52.2508,
      "duration": 0.1161,
      "velocity": 115,
      "chip": "ym2612"
    },
    {
      "channel": 2,
      "note": 47,
      "start": 52.2513,
      "duration": 0.2499,
      "velocity": 115,
      "chip": "ym2612"
    },
    {
      "channel": 1,
      "note": 61,
      "start": 52.3671,
      "duration": 0.1337,
      "velocity": 115,
      "chip": "ym2612"
    },
    {
      "channel": 0,
      "note": 44,
      "start": 52.5003,
      "duration": 0.2331,
      "velocity": 109,
      "chip": "ym2612"
    },
    {
      "channel": 1,
      "note": 49,
      "start": 52.5009,
      "duration": 0.1159,
      "velocity": 115,
      "chip": "ym2612"
    },
    {
      "channel": 2,
      "note": 49,
      "start": 52.5014,
      "duration": 0.2331,
      "velocity": 115,
      "chip": "ym2612"
    },
    {
      "channel": 1,
      "note": 49,
      "start": 52.617,
      "duration": 0.117,
      "velocity": 115,
      "chip": "ym2612"
    },
    {
      "channel": 0,
      "note": 41,
      "start": 52.7336,
      "duration": 0.2332,
      "velocity": 109,
      "chip": "ym2612"
    },
    {
      "channel": 1,
      "note": 59,
      "start": 52.7341,
      "duration": 0.1161,
      "velocity": 115,
      "chip": "ym2612"
    },
    {
      "channel": 2,
      "note": 46,
      "start": 52.7347,
      "duration": 0.2333,
      "velocity": 115,
      "chip": "ym2612"
    },
    {
      "channel": 1,
      "note": 49,
      "start": 52.8504,
      "duration": 0.117,
      "velocity": 115,
      "chip": "ym2612"
    },
    {
      "channel": 0,
      "note": 41,
      "start": 52.967,
      "duration": 0.1332,
      "velocity": 109,
      "chip": "ym2612"
    },
    {
      "channel": 1,
      "note": 49,
      "start": 52.9676,
      "duration": 0.1332,
      "velocity": 115,
      "chip": "ym2612"
    },
    {
      "channel": 2,
      "note": 46,
      "start": 52.9681,
      "duration": 0.1332,
      "velocity": 115,
      "chip": "ym2612"
    },
    {
      "channel": 0,
      "note": 42,
      "start": 53.1003,
      "duration": 0.2332,
      "velocity": 109,
      "chip": "ym2612"
    },
    {
      "channel": 1,
      "note": 49,
      "start": 53.1009,
      "duration": 0.116,
      "velocity": 115,
      "chip": "ym2612"
    },
    {
      "channel": 2,
      "note": 47,
      "start": 53.1014,
      "duration": 0.2332,
      "velocity": 115,
      "chip": "ym2612"
    },
    {
      "channel": 1,
      "note": 49,
      "start": 53.2171,
      "duration": 0.117,
      "velocity": 115,
      "chip": "ym2612"
    },
    {
      "channel": 0,
      "note": 44,
      "start": 53.3337,
      "duration": 0.2331,
      "velocity": 109,
      "chip": "ym2612"
    },
    {
      "channel": 1,
      "note": 61,
      "start": 53.3342,
      "duration": 0.116,
      "velocity": 115,
      "chip": "ym2612"
    },
    {
      "channel": 2,
      "note": 49,
      "start": 53.3347,
      "duration": 0.2331,
      "velocity": 115,
      "chip": "ym2612"
    },
    {
      "channel": 1,
      "note": 49,
      "start": 53.4504,
      "duration": 0.1169,
      "velocity": 115,
      "chip": "ym2612"
    },
    {
      "channel": 0,
      "note": 47,
      "start": 53.5669,
      "duration": 0.25,
      "velocity": 109,
      "chip": "ym2612"
    },
    {
      "channel": 1,
      "note": 49,
      "start": 53.5674,
      "duration": 0.1327,
      "velocity": 115,
      "chip": "ym2612"
    },
    {
      "channel": 2,
      "note": 52,
      "start": 53.568,
      "duration": 0.2517,
      "velocity": 115,
      "chip": "ym2612"
    },
    {
      "channel": 1,
      "note": 47,
      "start": 53.7004,
      "duration": 0.1188,
      "velocity": 97,
      "chip": "ym2612"
    },
    {
      "channel": 0,
      "note": 51,
      "start": 53.8171,
      "duration": 0.2329,
      "velocity": 109,
      "chip": "ym2612"
    },
    {
      "channel": 1,
      "note": 41,
      "start": 53.8193,
      "duration": 3.598,
      "velocity": 97,
      "chip": "ym2612"
    },
    {
      "channel": 2,
      "note": 56,
      "start": 53.8199,
      "duration": 0.2308,
      "velocity": 115,
      "chip": "ym2612"
    },
    {
      "channel": 3,
      "note": 53,
      "start": 53.8221,
      "duration": 7.68,
      "velocity": 102,
      "chip": "ym2612"
    },
    {
      "channel": 4,
      "note": 65,
      "start": 53.8243,
      "duration": 0.1095,
      "velocity": 27,
      "chip": "ym2612"
    },
    {
      "channel": 4,
      "note": 77,
      "start": 53.934,
      "duration": 0.1174,
      "velocity": 27,
      "chip": "ym2612"
    },
    {
      "channel": 0,
      "note": 51,
      "start": 54.0502,
      "duration": 0.1165,
      "velocity": 109,
      "chip": "ym2612"
    },
    {
      "channel": 2,
      "note": 56,
      "start": 54.0509,
      "duration": 0.1165,
      "velocity": 115,
      "chip": "ym2612"
    },
    {
      "channel": 4,
      "note": 75,
      "start": 54.0515,
      "duration": 0.1166,
      "velocity": 27,
      "chip": "ym2612"
    },
    {
      "channel": 0,
      "note": 50,
      "start": 54.1669,
      "duration": 0.2499,
      "velocity": 109,
      "chip": "ym2612"
    },
    {
      "channel": 2,
      "note": 55,
      "start": 54.1676,
      "duration": 0.2499,
      "velocity": 115,
      "chip": "ym2612"
    },
    {
      "channel": 4,
      "note": 70,
      "start": 54.1681,
      "duration": 0.1323,
      "velocity": 27,
      "chip": "ym2612"
    },
    {
      "channel": 4,
      "note": 72,
      "start": 54.3006,
      "duration": 0.1175,
      "velocity": 27,
      "chip": "ym2612"
    },
    {
      "channel": 0,
      "note": 46,
      "start": 54.417,
      "duration": 0.2331,
      "velocity": 109,
      "chip": "ym2612"
    },
    {
      "channel": 2,
      "note": 51,
      "start": 54.4176,
      "duration": 0.2331,
      "velocity": 115,
      "chip": "ym2612"
    },
    {
      "channel": 4,
      "note": 65,
      "start": 54.4182,
      "duration": 0.1155,
      "velocity": 27,
      "chip": "ym2612"
    },
    {
      "channel": 4,
      "note": 77,
      "start": 54.5338,
      "duration": 0.1175,
      "velocity": 27,
      "chip": "ym2612"
    },
    {
      "channel": 0,
      "note": 49,
      "start": 54.6502,
      "duration": 0.2499,
      "velocity": 109,
      "chip": "ym2612"
    },
    {
      "channel": 2,
      "note": 54,
      "start": 54.6509,
      "duration": 0.2499,
      "velocity": 115,
      "chip": "ym2612"
    },
    {
      "channel": 4,
      "note": 75,
      "start": 54.6515,
      "duration": 0.1156,
      "velocity": 27,
      "chip": "ym2612"
    },
    {
      "channel": 4,
      "note": 70,
      "start": 54.7672,
      "duration": 0.1342,
      "velocity": 27,
      "chip": "ym2612"
    },
    {
      "channel": 0,
      "note": 49,
      "start": 54.9003,
      "duration": 0.1164,
      "velocity": 109,
      "chip": "ym2612"
    },
    {
      "channel": 2,
      "note": 54,
      "start": 54.901,
      "duration": 0.1164,
      "velocity": 115,
      "chip": "ym2612"
    },
    {
      "channel": 4,
      "note": 72,
      "start": 54.9015,
      "duration": 0.1165,
      "velocity": 27,
      "chip": "ym2612"
    },
    {
      "channel": 0,
      "note": 48,
      "start": 55.0169,
      "duration": 0.2332,
      "velocity": 109,
      "chip": "ym2612"
    },
    {
      "channel": 2,
      "note": 53,
      "start": 55.0176,
      "duration": 0.2332,
      "velocity": 115,
      "chip": "ym2612"
    },
    {
      "channel": 4,
      "note": 65,
      "start": 55.0181,
      "duration": 0.1155,
      "velocity": 27,
      "chip": "ym2612"
    },
    {
      "channel": 4,
      "note": 77,
      "start": 55.1338,
      "duration": 0.1175,
      "velocity": 27,
      "chip": "ym2612"
    },
    {
      "channel": 0,
      "note": 44,
      "start": 55.2503,
      "duration": 0.2498,
      "velocity": 109,
      "chip": "ym2612"
    },
    {
      "channel": 2,
      "note": 49,
      "start": 55.2509,
      "duration": 0.2498,
      "velocity": 115,
      "chip": "ym2612"
    },
    {
      "channel": 4,
      "note": 75,
      "start": 55.2515,
      "duration": 0.1155,
      "velocity": 27,
      "chip": "ym2612"
    },
    {
      "channel": 4,
      "note": 70,
      "start": 55.3672,
      "duration": 0.134,
      "velocity": 27,
      "chip": "ym2612"
    },
    {
      "channel": 0,
      "note": 41,
      "start": 55.5002,
      "duration": 0.2332,
      "velocity": 109,
      "chip": "ym2612"
    },
    {
      "channel": 2,
      "note": 46,
      "start": 55.5008,
      "duration": 0.2333,
      "velocity": 115,
      "chip": "ym2612"
    },
    {
      "channel": 4,
      "note": 72,
      "start": 55.5015,
      "duration": 0.1155,
      "velocity": 27,
      "chip": "ym2612"
    },
    {
      "channel": 4,
      "note": 65,
      "start": 55.6172,
      "duration": 0.1175,
      "velocity": 27,
      "chip": "ym2612"
    },
    {
      "channel": 0,
      "note": 43,
      "start": 55.7337,
      "duration": 0.2331,
      "velocity": 109,
      "chip": "ym2612"
    },
    {
      "channel": 2,
      "note": 48,
      "start": 55.7342,
      "duration": 0.2332,
      "velocity": 115,
      "chip": "ym2612"
    },
    {
      "channel": 4,
      "note": 77,
      "start": 55.7349,
      "duration": 0.1155,
      "velocity": 27,
      "chip": "ym2612"
    },
    {
      "channel": 4,
      "note": 75,
      "start": 55.8506,
      "duration": 0.1174,
      "velocity": 27,
      "chip": "ym2612"
    },
    {
      "channel": 0,
      "note": 43,
      "start": 55.9669,
      "duration": 0.1332,
      "velocity": 109,
      "chip": "ym2612"
    },
    {
      "channel": 2,
      "note": 48,
      "start": 55.9676,
      "duration": 0.1332,
      "velocity": 115,
      "chip": "ym2612"
    },
    {
      "channel": 4,
      "note": 70,
      "start": 55.9681,
      "duration": 0.1332,
      "velocity": 27,
      "chip": "ym2612"
    },
    {
      "channel": 0,
      "note": 44,
      "start": 56.1002,
      "duration": 0.2332,
      "velocity": 109,
      "chip": "ym2612"
    },
    {
      "channel": 2,
      "note": 49,
      "start": 56.1008,
      "duration": 0.2332,
      "velocity": 115,
      "chip": "ym2612"
    },
    {
      "channel": 4,
      "note": 72,
      "start": 56.1015,
      "duration": 0.1155,
      "velocity": 27,
      "chip": "ym2612"
    },
    {
      "channel": 4,
      "note": 65,
      "start": 56.2172,
      "duration": 0.1175,
      "velocity": 27,
      "chip": "ym2612"
    },
    {
      "channel": 0,
      "note": 46,
      "start": 56.3336,
      "duration": 0.2332,
      "velocity": 109,
      "chip": "ym2612"
    },
    {
      "channel": 2,
      "note": 51,
      "start": 56.3342,
      "duration": 0.2332,
      "velocity": 115,
      "chip": "ym2612"
    },
    {
      "channel": 4,
      "note": 77,
      "start": 56.3349,
      "duration": 0.1155,
      "velocity": 27,
      "chip": "ym2612"
    },
    {
      "channel": 4,
      "note": 75,
      "start": 56.4505,
      "duration": 0.1175,
      "velocity": 27,
      "chip": "ym2612"
    },
    {
      "channel": 0,
      "note": 43,
      "start": 56.5669,
      "duration": 0.2499,
      "velocity": 109,
      "chip": "ym2612"
    },
    {
      "channel": 2,
      "note": 48,
      "start": 56.5676,
      "duration": 0.2498,
      "velocity": 115,
      "chip": "ym2612"
    },
    {
      "channel": 4,
      "note": 70,
      "start": 56.5681,
      "duration": 0.1323,
      "velocity": 27,
      "chip": "ym2612"
    },
    {
      "channel": 4,
      "note": 72,
      "start": 56.7005,
      "duration": 0.1175,
      "velocity": 27,
      "chip": "ym2612"
    },
    {
      "channel": 0,
      "note": 43,
      "start": 56.8169,
      "duration": 0.1166,
      "velocity": 109,
      "chip": "ym2612"
    },
    {
      "channel": 2,
      "note": 48,
      "start": 56.8176,
      "duration": 0.1165,
      "velocity": 115,
      "chip": "ym2612"
    },
    {
      "channel": 4,
      "note": 65,
      "start": 56.8182,
      "duration": 0.1165,
      "velocity": 27,
      "chip": "ym2612"
    },
    {
      "channel": 0,
      "note": 44,
      "start": 56.9336,
      "duration": 0.2332,
      "velocity": 109,
      "chip": "ym2612"
    },
    {
      "channel": 2,
      "note": 49,
      "start": 56.9342,
      "duration": 0.2332,
      "velocity": 115,
      "chip": "ym2612"
    },
    {
      "channel": 4,
      "note": 77,
      "start": 56.9349,
      "duration": 0.1155,
      "velocity": 27,
      "chip": "ym2612"
    },
    {
      "channel": 4,
      "note": 75,
      "start": 57.0505,
      "duration": 0.1175,
      "velocity": 27,
      "chip": "ym2612"
    },
    {
      "channel": 0,
      "note": 46,
      "start": 57.1669,
      "duration": 0.2499,
      "velocity": 109,
      "chip": "ym2612"
    },
    {
      "channel": 2,
      "note": 51,
      "start": 57.1676,
      "duration": 0.2503,
      "velocity": 115,
      "chip": "ym2612"
    },
    {
      "channel": 4,
      "note": 70,
      "start": 57.1682,
      "duration": 0.1322,
      "velocity": 27,
      "chip": "ym2612"
    },
    {
      "channel": 4,
      "note": 72,
      "start": 57.3005,
      "duration": 0.118,
      "velocity": 27,
      "chip": "ym2612"
    },
    {
      "channel": 0,
      "note": 48,
      "start": 57.4169,
      "duration": 0.2332,
      "velocity": 109,
      "chip": "ym2612"
    },
    {
      "channel": 1,
      "note": 39,
      "start": 57.4175,
      "duration": 0.2332,
      "velocity": 97,
      "chip": "ym2612"
    },
    {
      "channel": 2,
      "note": 53,
      "start": 57.4181,
      "duration": 0.2331,
      "velocity": 115,
      "chip": "ym2612"
    },
    {
      "channel": 4,
      "note": 65,
      "start": 57.4186,
      "duration": 0.115,
      "velocity": 27,
      "chip": "ym2612"
    },
    {
      "channel": 4,
      "note": 77,
      "start": 57.5338,
      "duration": 0.118,
      "velocity": 27,
      "chip": "ym2612"
    },
    {
      "channel": 0,
      "note": 49,
      "start": 57.6503,
      "duration": 0.2498,
      "velocity": 109,
      "chip": "ym2612"
    },
    {
      "channel": 1,
      "note": 41,
      "start": 57.6508,
      "duration": 3.8501,
      "velocity": 97,
      "chip": "ym2612"
    },
    {
      "channel": 2,
      "note": 54,
      "start": 57.6514,
      "duration": 0.2493,
      "velocity": 115,
      "chip": "ym2612"
    },
    {
      "channel": 4,
      "note": 63,
      "start": 57.652,
      "duration": 0.115,
      "velocity": 27,
      "chip": "ym2612"
    },
    {
      "channel": 4,
      "note": 75,
      "start": 57.7672,
      "duration": 0.134,
      "velocity": 27,
      "chip": "ym2612"
    },
    {
      "channel": 0,
      "note": 49,
      "start": 57.9002,
      "duration": 0.1165,
      "velocity": 109,
      "chip": "ym2612"
    },
    {
      "channel": 2,
      "note": 54,
      "start": 57.9008,
      "duration": 0.1166,
      "velocity": 115,
      "chip": "ym2612"
    },
    {
      "channel": 4,
      "note": 73,
      "start": 57.9015,
      "duration": 0.1166,
      "velocity": 27,
      "chip": "ym2612"
    },
    {
      "channel": 0,
      "note": 48,
      "start": 58.0169,
      "duration": 0.2332,
      "velocity": 109,
      "chip": "ym2612"
    },
    {
      "channel": 2,
      "note": 53,
      "start": 58.0176,
      "duration": 0.2332,
      "velocity": 115,
      "chip": "ym2612"
    },
    {
      "channel": 4,
      "note": 68,
      "start": 58.0181,
      "duration": 0.1156,
      "velocity": 27,
      "chip": "ym2612"
    },
    {
      "channel": 4,
      "note": 70,
      "start": 58.1339,
      "duration": 0.1175,
      "velocity": 27,
      "chip": "ym2612"
    },
    {
      "channel": 0,
      "note": 44,
      "start": 58.2503,
      "duration": 0.2498,
      "velocity": 109,
      "chip": "ym2612"
    },
    {
      "channel": 2,
      "note": 49,
      "start": 58.251,
      "duration": 0.2498,
      "velocity": 115,
      "chip": "ym2612"
    },
    {
      "channel": 4,
      "note": 63,
      "start": 58.2515,
      "duration": 0.1155,
      "velocity": 27,
      "chip": "ym2612"
    },
    {
      "channel": 4,
      "note": 75,
      "start": 58.3672,
      "duration": 0.1341,
      "velocity": 27,
      "chip": "ym2612"
    },
    {
      "channel": 0,
      "note": 47,
      "start": 58.5002,
      "duration": 0.2333,
      "velocity": 109,
      "chip": "ym2612"
    },
    {
      "channel": 2,
      "note": 52,
      "start": 58.5008,
      "duration": 0.2333,
      "velocity": 115,
      "chip": "ym2612"
    },
    {
      "channel": 4,
      "note": 73,
      "start": 58.5015,
      "duration": 0.1156,
      "velocity": 27,
      "chip": "ym2612"
    },
    {
      "channel": 4,
      "note": 68,
      "start": 58.6172,
      "duration": 0.1175,
      "velocity": 27,
      "chip": "ym2612"
    },
    {
      "channel": 0,
      "note": 47,
      "start": 58.7337,
      "duration": 0.1164,
      "velocity": 109,
      "chip": "ym2612"
    },
    {
      "channel": 2,
      "note": 52,
      "start": 58.7343,
      "duration": 0.1164,
      "velocity": 115,
      "chip": "ym2612"
    },
    {
      "channel": 4,
      "note": 70,
      "start": 58.7349,
      "duration": 0.1165,
      "velocity": 27,
      "chip": "ym2612"
    },
    {
      "channel": 0,
      "note": 46,
      "start": 58.8502,
      "duration": 0.2499,
      "velocity": 109,
      "chip": "ym2612"
    },
    {
      "channel": 2,
      "note": 51,
      "start": 58.8509,
      "duration": 0.2499,
      "velocity": 115,
      "chip": "ym2612"
    },
    {
      "channel": 4,
      "note": 63,
      "start": 58.8515,
      "duration": 0.1155,
      "velocity": 27,
      "chip": "ym2612"
    },
    {
      "channel": 4,
      "note": 75,
      "start": 58.9672,
      "duration": 0.1342,
      "velocity": 27,
      "chip": "ym2612"
    },
    {
      "channel": 0,
      "note": 42,
      "start": 59.1003,
      "duration": 0.2331,
      "velocity": 109,
      "chip": "ym2612"
    },
    {
      "channel": 2,
      "note": 47,
      "start": 59.101,
      "duration": 0.2331,
      "velocity": 115,
      "chip": "ym2612"
    },
    {
      "channel": 4,
      "note": 73,
      "start": 59.1015,
      "duration": 0.1155,
      "velocity": 27,
      "chip": "ym2612"
    },
    {
      "channel": 4,
      "note": 68,
      "start": 59.2172,
      "duration": 0.1174,
      "velocity": 27,
      "chip": "ym2612"
    },
    {
      "channel": 0,
      "note": 39,
      "start": 59.3336,
      "duration": 0.2332,
      "velocity": 109,
      "chip": "ym2612"
    },
    {
      "channel": 2,
      "note": 44,
      "start": 59.3342,
      "duration": 0.2332,
      "velocity": 115,
      "chip": "ym2612"
    },
    {
      "channel": 4,
      "note": 70,
      "start": 59.3348,
      "duration": 0.1155,
      "velocity": 27,
      "chip": "ym2612"
    },
    {
      "channel": 4,
      "note": 63,
      "start": 59.4505,
      "duration": 0.1175,
      "velocity": 27,
      "chip": "ym2612"
    },
    {
      "channel": 0,
      "note": 41,
      "start": 59.567,
      "duration": 0.2498,
      "velocity": 109,
      "chip": "ym2612"
    },
    {
      "channel": 2,
      "note": 46,
      "start": 59.5676,
      "duration": 0.2498,
      "velocity": 115,
      "chip": "ym2612"
    },
    {
      "channel": 4,
      "note": 75,
      "start": 59.5682,
      "duration": 0.1322,
      "velocity": 27,
      "chip": "ym2612"
    },
    {
      "channel": 4,
      "note": 73,
      "start": 59.7005,
      "duration": 0.1175,
      "velocity": 27,
      "chip": "ym2612"
    },
    {
      "channel": 0,
      "note": 41,
      "start": 59.8169,
      "duration": 0.1165,
      "velocity": 109,
      "chip": "ym2612"
    },
    {
      "channel": 2,
      "note": 46,
      "start": 59.8176,
      "duration": 0.1165,
      "velocity": 115,
      "chip": "ym2612"
    },
    {
      "channel": 4,
      "note": 68,
      "start": 59.8181,
      "duration": 0.1166,
      "velocity": 27,
      "chip": "ym2612"
    },
    {
      "channel": 0,
      "note": 42,
      "start": 59.9336,
      "duration": 0.2332,
      "velocity": 109,
      "chip": "ym2612"
    },
    {
      "channel": 2,
      "note": 47,
      "start": 59.9342,
      "duration": 0.2332,
      "velocity": 115,
      "chip": "ym2612"
    },
    {
      "channel": 4,
      "note": 70,
      "start": 59.9348,
      "duration": 0.1156,
      "velocity": 27,
      "chip": "ym2612"
    },
    {
      "channel": 4,
      "note": 63,
      "start": 60.0506,
      "duration": 0.1175,
      "velocity": 27,
      "chip": "ym2612"
    },
    {
      "channel": 0,
      "note": 44,
      "start": 60.167,
      "duration": 0.2498,
      "velocity": 109,
      "chip": "ym2612"
    },
    {
      "channel": 2,
      "note": 49,
      "start": 60.1676,
      "duration": 0.2498,
      "velocity": 115,
      "chip": "ym2612"
    },
    {
      "channel": 4,
      "note": 75,
      "start": 60.1682,
      "duration": 0.1321,
      "velocity": 27,
      "chip": "ym2612"
    },
    {
      "channel": 4,
      "note": 73,
      "start": 60.3005,
      "duration": 0.1175,
      "velocity": 27,
      "chip": "ym2612"
    },
    {
      "channel": 0,
      "note": 41,
      "start": 60.4169,
      "duration": 0.2332,
      "velocity": 109,
      "chip": "ym2612"
    },
    {
      "channel": 2,
      "note": 46,
      "start": 60.4176,
      "duration": 0.2332,
      "velocity": 115,
      "chip": "ym2612"
    },
    {
      "channel": 4,
      "note": 68,
      "start": 60.4181,
      "duration": 0.1156,
      "velocity": 27,
      "chip": "ym2612"
    },
    {
      "channel": 4,
      "note": 70,
      "start": 60.5339,
      "duration": 0.1174,
      "velocity": 27,
      "chip": "ym2612"
    },
    {
      "channel": 0,
      "note": 41,
      "start": 60.6503,
      "duration": 0.1165,
      "velocity": 109,
      "chip": "ym2612"
    },
    {
      "channel": 2,
      "note": 46,
      "start": 60.6509,
      "duration": 0.1166,
      "velocity": 115,
      "chip": "ym2612"
    },
    {
      "channel": 4,
      "note": 63,
      "start": 60.6515,
      "duration": 0.1165,
      "velocity": 27,
      "chip": "ym2612"
    },
    {
      "channel": 0,
      "note": 42,
      "start": 60.767,
      "duration": 0.2498,
      "velocity": 109,
      "chip": "ym2612"
    },
    {
      "channel": 2,
      "note": 47,
      "start": 60.7676,
      "duration": 0.2499,
      "velocity": 115,
      "chip": "ym2612"
    },
    {
      "channel": 4,
      "note": 75,
      "start": 60.7682,
      "duration": 0.1322,
      "velocity": 27,
      "chip": "ym2612"
    },
    {
      "channel": 4,
      "note": 73,
      "start": 60.9006,
      "duration": 0.1174,
      "velocity": 27,
      "chip": "ym2612"
    },
    {
      "channel": 0,
      "note": 44,
      "start": 61.017,
      "duration": 0.2331,
      "velocity": 109,
      "chip": "ym2612"
    },
    {
      "channel": 2,
      "note": 49,
      "start": 61.0176,
      "duration": 0.2332,
      "velocity": 115,
      "chip": "ym2612"
    },
    {
      "channel": 4,
      "note": 68,
      "start": 61.0182,
      "duration": 0.1155,
      "velocity": 27,
      "chip": "ym2612"
    },
    {
      "channel": 4,
      "note": 70,
      "start": 61.1339,
      "duration": 0.1174,
      "velocity": 27,
      "chip": "ym2612"
    },
    {
      "channel": 0,
      "note": 47,
      "start": 61.2502,
      "duration": 0.25,
      "velocity": 109,
      "chip": "ym2612"
    },
    {
      "channel": 2,
      "note": 52,
      "start": 61.2509,
      "duration": 0.2506,
      "velocity": 115,
      "chip": "ym2612"
    },
    {
      "channel": 4,
      "note": 63,
      "start": 61.2515,
      "duration": 0.1156,
      "velocity": 27,
      "chip": "ym2612"
    },
    {
      "channel": 4,
      "note": 75,
      "start": 61.3672,
      "duration": 0.1355,
      "velocity": 27,
      "chip": "ym2612"
    },
    {
      "channel": 0,
      "note": 51,
      "start": 61.5005,
      "duration": 0.2329,
      "velocity": 109,
      "chip": "ym2612"
    },
    {
      "channel": 1,
      "note": 41,
      "start": 61.501,
      "duration": 3.5997,
      "velocity": 97,
      "chip": "ym2612"
    },
    {
      "channel": 2,
      "note": 56,
      "start": 61.5017,
      "duration": 0.2324,
      "velocity": 115,
      "chip": "ym2612"
    },
    {
      "channel": 3,
      "note": 53,
      "start": 61.5023,
      "duration": 7.6696,
      "velocity": 102,
      "chip": "ym2612"
    },
    {
      "channel": 4,
      "note": 65,
      "start": 61.5029,
      "duration": 0.1143,
      "velocity": 27,
      "chip": "ym2612"
    },
    {
      "channel": 4,
      "note": 77,
      "start": 61.6173,
      "duration": 0.1174,
      "velocity": 27,
      "chip": "ym2612"
    },
    {
      "channel": 0,
      "note": 51,
      "start": 61.7336,
      "duration": 0.1165,
      "velocity": 109,
      "chip": "ym2612"
    },
    {
      "channel": 2,
      "note": 56,
      "start": 61.7342,
      "duration": 0.1165,
      "velocity": 115,
      "chip": "ym2612"
    },
    {
      "channel": 4,
      "note": 75,
      "start": 61.7348,
      "duration": 0.1166,
      "velocity": 27,
      "chip": "ym2612"
    },
    {
      "channel": 0,
      "note": 50,
      "start": 61.8502,
      "duration": 0.2499,
      "velocity": 109,
      "chip": "ym2612"
    },
    {
      "channel": 2,
      "note": 55,
      "start": 61.8509,
      "duration": 0.2498,
      "velocity": 115,
      "chip": "ym2612"
    },
    {
      "channel": 4,
      "note": 70,
      "start": 61.8515,
      "duration": 0.1155,
      "velocity": 27,
      "chip": "ym2612"
    },
    {
      "channel": 4,
      "note": 72,
      "start": 61.9672,
      "duration": 0.1342,
      "velocity": 27,
      "chip": "ym2612"
    },
    {
      "channel": 0,
      "note": 46,
      "start": 62.1002,
      "duration": 0.2332,
      "velocity": 109,
      "chip": "ym2612"
    },
    {
      "channel": 2,
      "note": 51,
      "start": 62.1009,
      "duration": 0.2332,
      "velocity": 115,
      "chip": "ym2612"
    },
    {
      "channel": 4,
      "note": 65,
      "start": 62.1015,
      "duration": 0.1155,
      "velocity": 27,
      "chip": "ym2612"
    },
    {
      "channel": 4,
      "note": 77,
      "start": 62.2172,
      "duration": 0.1175,
      "velocity": 27,
      "chip": "ym2612"
    },
    {
      "channel": 0,
      "note": 49,
      "start": 62.3336,
      "duration": 0.2332,
      "velocity": 109,
      "chip": "ym2612"
    },
    {
      "channel": 2,
      "note": 54,
      "start": 62.3342,
      "duration": 0.2332,
      "velocity": 115,
      "chip": "ym2612"
    },
    {
      "channel": 4,
      "note": 75,
      "start": 62.3348,
      "duration": 0.1155,
      "velocity": 27,
      "chip": "ym2612"
    },
    {
      "channel": 4,
      "note": 70,
      "start": 62.4505,
      "duration": 0.1175,
      "velocity": 27,
      "chip": "ym2612"
    },
    {
      "channel": 0,
      "note": 49,
      "start": 62.5669,
      "duration": 0.1332,
      "velocity": 109,
      "chip": "ym2612"
    },
    {
      "channel": 2,
      "note": 54,
      "start": 62.5676,
      "duration": 0.1332,
      "velocity": 115,
      "chip": "ym2612"
    },
    {
      "channel": 4,
      "note": 72,
      "start": 62.5682,
      "duration": 0.1332,
      "velocity": 27,
      "chip": "ym2612"
    },
    {
      "channel": 0,
      "note": 48,
      "start": 62.7002,
      "duration": 0.2332,
      "velocity": 109,
      "chip": "ym2612"
    },
    {
      "channel": 2,
      "note": 53,
      "start": 62.7009,
      "duration": 0.2332,
      "velocity": 115,
      "chip": "ym2612"
    },
    {
      "channel": 4,
      "note": 65,
      "start": 62.7015,
      "duration": 0.1155,
      "velocity": 27,
      "chip": "ym2612"
    },
    {
      "channel": 4,
      "note": 77,
      "start": 62.8172,
      "duration": 0.1175,
      "velocity": 27,
      "chip": "ym2612"
    },
    {
      "channel": 0,
      "note": 44,
      "start": 62.9336,
      "duration": 0.2332,
      "velocity": 109,
      "chip": "ym2612"
    },
    {
      "channel": 2,
      "note": 49,
      "start": 62.9342,
      "duration": 0.2332,
      "velocity": 115,
      "chip": "ym2612"
    },
    {
      "channel": 4,
      "note": 75,
      "start": 62.9349,
      "duration": 0.1155,
      "velocity": 27,
      "chip": "ym2612"
    },
    {
      "channel": 4,
      "note": 70,
      "start": 63.0505,
      "duration": 0.1175,
      "velocity": 27,
      "chip": "ym2612"
    },
    {
      "channel": 0,
      "note": 41,
      "start": 63.1669,
      "duration": 0.2499,
      "velocity": 109,
      "chip": "ym2612"
    },
    {
      "channel": 2,
      "note": 46,
      "start": 63.1676,
      "duration": 0.2498,
      "velocity": 115,
      "chip": "ym2612"
    },
    {
      "channel": 4,
      "note": 72,
      "start": 63.1681,
      "duration": 0.1322,
      "velocity": 27,
      "chip": "ym2612"
    },
    {
      "channel": 4,
      "note": 65,
      "start": 63.3005,
      "duration": 0.1175,
      "velocity": 27,
      "chip": "ym2612"
    },
    {
      "channel": 0,
      "note": 43,
      "start": 63.4169,
      "duration": 0.2332,
      "velocity": 109,
      "chip": "ym2612"
    },
    {
      "channel": 2,
      "note": 48,
      "start": 63.4176,
      "duration": 0.2332,
      "velocity": 115,
      "chip": "ym2612"
    },
    {
      "channel": 4,
      "note": 77,
      "start": 63.4182,
      "duration": 0.1155,
      "velocity": 27,
      "chip": "ym2612"
    },
    {
      "channel": 4,
      "note": 75,
      "start": 63.5339,
      "duration": 0.1174,
      "velocity": 27,
      "chip": "ym2612"
    },
    {
      "channel": 0,
      "note": 43,
      "start": 63.6502,
      "duration": 0.1165,
      "velocity": 109,
      "chip": "ym2612"
    },
    {
      "channel": 2,
      "note": 48,
      "start": 63.6509,
      "duration": 0.1165,
      "velocity": 115,
      "chip": "ym2612"
    },
    {
      "channel": 4,
      "note": 70,
      "start": 63.6515,
      "duration": 0.1166,
      "velocity": 27,
      "chip": "ym2612"
    },
    {
      "channel": 0,
      "note": 44,
      "start": 63.7669,
      "duration": 0.2499,
      "velocity": 109,
      "chip": "ym2612"
    },
    {
      "channel": 2,
      "note": 49,
      "start": 63.7676,
      "duration": 0.2499,
      "velocity": 115,
      "chip": "ym2612"
    },
    {
      "channel": 4,
      "note": 72,
      "start": 63.7681,
      "duration": 0.1323,
      "velocity": 27,
      "chip": "ym2612"
    },
    {
      "channel": 4,
      "note": 65,
      "start": 63.9006,
      "duration": 0.1175,
      "velocity": 27,
      "chip": "ym2612"
    },
    {
      "channel": 0,
      "note": 46,
      "start": 64.017,
      "duration": 0.2331,
      "velocity": 109,
      "chip": "ym2612"
    },
    {
      "channel": 2,
      "note": 51,
      "start": 64.0176,
      "duration": 0.2331,
      "velocity": 115,
      "chip": "ym2612"
    },
    {
      "channel": 4,
      "note": 77,
      "start": 64.0182,
      "duration": 0.1155,
      "velocity": 27,
      "chip": "ym2612"
    },
    {
      "channel": 4,
      "note": 75,
      "start": 64.1338,
      "duration": 0.1175,
      "velocity": 27,
      "chip": "ym2612"
    },
    {
      "channel": 0,
      "note": 43,
      "start": 64.2502,
      "duration": 0.2499,
      "velocity": 109,
      "chip": "ym2612"
    },
    {
      "channel": 2,
      "note": 48,
      "start": 64.2509,
      "duration": 0.2499,
      "velocity": 115,
      "chip": "ym2612"
    },
    {
      "channel": 4,
      "note": 70,
      "start": 64.2515,
      "duration": 0.1156,
      "velocity": 27,
      "chip": "ym2612"
    },
    {
      "channel": 4,
      "note": 72,
      "start": 64.3672,
      "duration": 0.1342,
      "velocity": 27,
      "chip": "ym2612"
    },
    {
      "channel": 0,
      "note": 43,
      "start": 64.5003,
      "duration": 0.1165,
      "velocity": 109,
      "chip": "ym2612"
    },
    {
      "channel": 2,
      "note": 48,
      "start": 64.501,
      "duration": 0.1165,
      "velocity": 115,
      "chip": "ym2612"
    },
    {
      "channel": 4,
      "note": 65,
      "start": 64.5015,
      "duration": 0.1165,
      "velocity": 27,
      "chip": "ym2612"
    },
    {
      "channel": 0,
      "note": 44,
      "start": 64.617,
      "duration": 0.2332,
      "velocity": 109,
      "chip": "ym2612"
    },
    {
      "channel": 2,
      "note": 49,
      "start": 64.6176,
      "duration": 0.2332,
      "velocity": 115,
      "chip": "ym2612"
    },
    {
      "channel": 4,
      "note": 77,
      "start": 64.6182,
      "duration": 0.1155,
      "velocity": 27,
      "chip": "ym2612"
    },
    {
      "channel": 4,
      "note": 75,
      "start": 64.7339,
      "duration": 0.1174,
      "velocity": 27,
      "chip": "ym2612"
    },
    {
      "channel": 0,
      "note": 46,
      "start": 64.8503,
      "duration": 0.2498,
      "velocity": 109,
      "chip": "ym2612"
    },
    {
      "channel": 2,
      "note": 51,
      "start": 64.8509,
      "duration": 0.2504,
      "velocity": 115,
      "chip": "ym2612"
    },
    {
      "channel": 4,
      "note": 70,
      "start": 64.8515,
      "duration": 0.1155,
      "velocity": 27,
      "chip": "ym2612"
    },
    {
      "channel": 4,
      "note": 72,
      "start": 64.9672,
      "duration": 0.1346,
      "velocity": 27,
      "chip": "ym2612"
    },
    {
      "channel": 0,
      "note": 48,
      "start": 65.1003,
      "duration": 0.2332,
      "velocity": 109,
      "chip": "ym2612"
    },
    {
      "channel": 1,
      "note": 39,
      "start": 65.1009,
      "duration": 0.2332,
      "velocity": 97,
      "chip": "ym2612"
    },
    {
      "channel": 2,
      "note": 53,
      "start": 65.1014,
      "duration": 0.2332,
      "velocity": 115,
      "chip": "ym2612"
    },
    {
      "channel": 4,
      "note": 65,
      "start": 65.102,
      "duration": 0.115,
      "velocity": 27,
      "chip": "ym2612"
    },
    {
      "channel": 4,
      "note": 77,
      "start": 65.2172,
      "duration": 0.1179,
      "velocity": 27,
      "chip": "ym2612"
    },
    {
      "channel": 0,
      "note": 49,
      "start": 65.3337,
      "duration": 0.2331,
      "velocity": 109,
      "chip": "ym2612"
    },
    {
      "channel": 1,
      "note": 41,
      "start": 65.3342,
      "duration": 3.8349,
      "velocity": 97,
      "chip": "ym2612"
    },
    {
      "channel": 2,
      "note": 54,
      "start": 65.3347,
      "duration": 0.2326,
      "velocity": 115,
      "chip": "ym2612"
    },
    {
      "channel": 4,
      "note": 63,
      "start": 65.3354,
      "duration": 0.115,
      "velocity": 27,
      "chip": "ym2612"
    },
    {
      "channel": 4,
      "note": 75,
      "start": 65.4506,
      "duration": 0.1174,
      "velocity": 27,
      "chip": "ym2612"
    },
    {
      "channel": 0,
      "note": 49,
      "start": 65.5669,
      "duration": 0.1332,
      "velocity": 109,
      "chip": "ym2612"
    },
    {
      "channel": 2,
      "note": 54,
      "start": 65.5676,
      "duration": 0.1332,
      "velocity": 115,
      "chip": "ym2612"
    },
    {
      "channel": 4,
      "note": 73,
      "start": 65.5681,
      "duration": 0.1332,
      "velocity": 27,
      "chip": "ym2612"
    },
    {
      "channel": 0,
      "note": 48,
      "start": 65.7002,
      "duration": 0.2333,
      "velocity": 109,
      "chip": "ym2612"
    },
    {
      "channel": 2,
      "note": 53,
      "start": 65.7008,
      "duration": 0.2333,
      "velocity": 115,
      "chip": "ym2612"
    },
    {
      "channel": 4,
      "note": 68,
      "start": 65.7015,
      "duration": 0.1156,
      "velocity": 27,
      "chip": "ym2612"
    },
    {
      "channel": 4,
      "note": 70,
      "start": 65.8172,
      "duration": 0.1175,
      "velocity": 27,
      "chip": "ym2612"
    },
    {
      "channel": 0,
      "note": 44,
      "start": 65.9337,
      "duration": 0.2331,
      "velocity": 109,
      "chip": "ym2612"
    },
    {
      "channel": 2,
      "note": 49,
      "start": 65.9343,
      "duration": 0.2331,
      "velocity": 115,
      "chip": "ym2612"
    },
    {
      "channel": 4,
      "note": 63,
      "start": 65.9349,
      "duration": 0.1155,
      "velocity": 27,
      "chip": "ym2612"
    },
    {
      "channel": 4,
      "note": 75,
      "start": 66.0505,
      "duration": 0.1175,
      "velocity": 27,
      "chip": "ym2612"
    },
    {
      "channel": 0,
      "note": 47,
      "start": 66.1669,
      "duration": 0.2499,
      "velocity": 109,
      "chip": "ym2612"
    },
    {
      "channel": 2,
      "note": 52,
      "start": 66.1676,
      "duration": 0.2499,
      "velocity": 115,
      "chip": "ym2612"
    },
    {
      "channel": 4,
      "note": 73,
      "start": 66.1681,
      "duration": 0.1323,
      "velocity": 27,
      "chip": "ym2612"
    },
    {
      "channel": 4,
      "note": 68,
      "start": 66.3006,
      "duration": 0.1175,
      "velocity": 27,
      "chip": "ym2612"
    },
    {
      "channel": 0,
      "note": 47,
      "start": 66.417,
      "duration": 0.1164,
      "velocity": 109,
      "chip": "ym2612"
    },
    {
      "channel": 2,
      "note": 52,
      "start": 66.4176,
      "duration": 0.1164,
      "velocity": 115,
      "chip": "ym2612"
    },
    {
      "channel": 4,
      "note": 70,
      "start": 66.4182,
      "duration": 0.1165,
      "velocity": 27,
      "chip": "ym2612"
    },
    {
      "channel": 0,
      "note": 46,
      "start": 66.5336,
      "duration": 0.2332,
      "velocity": 109,
      "chip": "ym2612"
    },
    {
      "channel": 2,
      "note": 51,
      "start": 66.5342,
      "duration": 0.2332,
      "velocity": 115,
      "chip": "ym2612"
    },
    {
      "channel": 4,
      "note": 63,
      "start": 66.5348,
      "duration": 0.1155,
      "velocity": 27,
      "chip": "ym2612"
    },
    {
      "channel": 4,
      "note": 75,
      "start": 66.6505,
      "duration": 0.1175,
      "velocity": 27,
      "chip": "ym2612"
    },
    {
      "channel": 0,
      "note": 42,
      "start": 66.767,
      "duration": 0.2498,
      "velocity": 109,
      "chip": "ym2612"
    },
    {
      "channel": 2,
      "note": 47,
      "start": 66.7676,
      "duration": 0.2498,
      "velocity": 115,
      "chip": "ym2612"
    },
    {
      "channel": 4,
      "note": 73,
      "start": 66.7682,
      "duration": 0.1322,
      "velocity": 27,
      "chip": "ym2612"
    },
    {
      "channel": 4,
      "note": 68,
      "start": 66.9006,
      "duration": 0.1174,
      "velocity": 27,
      "chip": "ym2612"
    },
    {
      "channel": 0,
      "note": 39,
      "start": 67.0169,
      "duration": 0.2332,
      "velocity": 109,
      "chip": "ym2612"
    },
    {
      "channel": 2,
      "note": 44,
      "start": 67.0176,
      "duration": 0.2332,
      "velocity": 115,
      "chip": "ym2612"
    },
    {
      "channel": 4,
      "note": 70,
      "start": 67.0181,
      "duration": 0.1155,
      "velocity": 27,
      "chip": "ym2612"
    },
    {
      "channel": 4,
      "note": 63,
      "start": 67.1338,
      "duration": 0.1175,
      "velocity": 27,
      "chip": "ym2612"
    },
    {
      "channel": 0,
      "note": 41,
      "start": 67.2503,
      "duration": 0.2498,
      "velocity": 109,
      "chip": "ym2612"
    },
    {
      "channel": 2,
      "note": 46,
      "start": 67.2509,
      "duration": 0.2498,
      "velocity": 115,
      "chip": "ym2612"
    },
    {
      "channel": 4,
      "note": 75,
      "start": 67.2515,
      "duration": 0.1155,
      "velocity": 27,
      "chip": "ym2612"
    },
    {
      "channel": 4,
      "note": 73,
      "start": 67.3672,
      "duration": 0.134,
      "velocity": 27,
      "chip": "ym2612"
    },
    {
      "channel": 0,
      "note": 41,
      "start": 67.5002,
      "duration": 0.1165,
      "velocity": 109,
      "chip": "ym2612"
    },
    {
      "channel": 2,
      "note": 46,
      "start": 67.5008,
      "duration": 0.1166,
      "velocity": 115,
      "chip": "ym2612"
    },
    {
      "channel": 4,
      "note": 68,
      "start": 67.5015,
      "duration": 0.1166,
      "velocity": 27,
      "chip": "ym2612"
    },
    {
      "channel": 0,
      "note": 42,
      "start": 67.6169,
      "duration": 0.2332,
      "velocity": 109,
      "chip": "ym2612"
    },
    {
      "channel": 2,
      "note": 47,
      "start": 67.6176,
      "duration": 0.2332,
      "velocity": 115,
      "chip": "ym2612"
    },
    {
      "channel": 4,
      "note": 70,
      "start": 67.6181,
      "duration": 0.1155,
      "velocity": 27,
      "chip": "ym2612"
    },
    {
      "channel": 4,
      "note": 63,
      "start": 67.7338,
      "duration": 0.1175,
      "velocity": 27,
      "chip": "ym2612"
    },
    {
      "channel": 0,
      "note": 44,
      "start": 67.8502,
      "duration": 0.2498,
      "velocity": 109,
      "chip": "ym2612"
    },
    {
      "channel": 2,
      "note": 49,
      "start": 67.8509,
      "duration": 0.2498,
      "velocity": 115,
      "chip": "ym2612"
    },
    {
      "channel": 4,
      "note": 75,
      "start": 67.8515,
      "duration": 0.1155,
      "velocity": 27,
      "chip": "ym2612"
    },
    {
      "channel": 4,
      "note": 73,
      "start": 67.9672,
      "duration": 0.1342,
      "velocity": 27,
      "chip": "ym2612"
    },
    {
      "channel": 0,
      "note": 41,
      "start": 68.1002,
      "duration": 0.2332,
      "velocity": 109,
      "chip": "ym2612"
    },
    {
      "channel": 2,
      "note": 46,
      "start": 68.1009,
      "duration": 0.2332,
      "velocity": 115,
      "chip": "ym2612"
    },
    {
      "channel": 4,
      "note": 68,
      "start": 68.1015,
      "duration": 0.1155,
      "velocity": 27,
      "chip": "ym2612"
    },
    {
      "channel": 4,
      "note": 70,
      "start": 68.2172,
      "duration": 0.1175,
      "velocity": 27,
      "chip": "ym2612"
    },
    {
      "channel": 0,
      "note": 41,
      "start": 68.3336,
      "duration": 0.1166,
      "velocity": 109,
      "chip": "ym2612"
    },
    {
      "channel": 2,
      "note": 46,
      "start": 68.3342,
      "duration": 0.1165,
      "velocity": 115,
      "chip": "ym2612"
    },
    {
      "channel": 4,
      "note": 63,
      "start": 68.3349,
      "duration": 0.1165,
      "velocity": 27,
      "chip": "ym2612"
    },
    {
      "channel": 0,
      "note": 42,
      "start": 68.4502,
      "duration": 0.2499,
      "velocity": 109,
      "chip": "ym2612"
    },
    {
      "channel": 2,
      "note": 47,
      "start": 68.4509,
      "duration": 0.2498,
      "velocity": 115,
      "chip": "ym2612"
    },
    {
      "channel": 4,
      "note": 75,
      "start": 68.4515,
      "duration": 0.1155,
      "velocity": 27,
      "chip": "ym2612"
    },
    {
      "channel": 4,
      "note": 73,
      "start": 68.5672,
      "duration": 0.1342,
      "velocity": 27,
      "chip": "ym2612"
    },
    {
      "channel": 0,
      "note": 44,
      "start": 68.7002,
      "duration": 0.2332,
      "velocity": 109,
      "chip": "ym2612"
    },
    {
      "channel": 2,
      "note": 49,
      "start": 68.7009,
      "duration": 0.2332,
      "velocity": 115,
      "chip": "ym2612"
    },
    {
      "channel": 4,
      "note": 68,
      "start": 68.7015,
      "duration": 0.1155,
      "velocity": 27,
      "chip": "ym2612"
    },
    {
      "channel": 4,
      "note": 70,
      "start": 68.8172,
      "duration": 0.1175,
      "velocity": 27,
      "chip": "ym2612"
    },
    {
      "channel": 0,
      "note": 47,
      "start": 68.9336,
      "duration": 0.2349,
      "velocity": 27,
      "chip": "ym2612"
    },
    {
      "channel": 2,
      "note": 52,
      "start": 68.9342,
      "duration": 0.237,
      "velocity": 1,
      "chip": "ym2612"
    },
    {
      "channel": 4,
      "note": 63,
      "start": 68.9348,
      "duration": 0.1155,
      "velocity": 27,
      "chip": "ym2612"
    },
    {
      "channel": 4,
      "note": 75,
      "start": 69.0505,
      "duration": 0.1235,
      "velocity": 1,
      "chip": "ym2612"
    },
    {
      "channel": 0,
      "note": 65,
      "start": 69.1686,
      "duration": 0.1315,
      "velocity": 27,
      "chip": "ym2612"
    },
    {
      "channel": 1,
      "note": 41,
      "start": 69.1693,
      "duration": 3.598,
      "velocity": 97,
      "chip": "ym2612"
    },
    {
      "channel": 2,
      "note": 74,
      "start": 69.1714,
      "duration": 7.6801,
      "velocity": 1,
      "chip": "ym2612"
    },
    {
      "channel": 3,
      "note": 53,
      "start": 69.172,
      "duration": 7.6801,
      "velocity": 102,
      "chip": "ym2612"
    },
    {
      "channel": 4,
      "note": 74,
      "start": 69.1742,
      "duration": 7.6785,
      "velocity": 1,
      "chip": "ym2612"
    },
    {
      "channel": 0,
      "note": 77,
      "start": 69.3004,
      "duration": 0.1163,
      "velocity": 27,
      "chip": "ym2612"
    },
    {
      "channel": 0,
      "note": 75,
      "start": 69.4168,
      "duration": 0.1165,
      "velocity": 27,
      "chip": "ym2612"
    },
    {
      "channel": 0,
      "note": 70,
      "start": 69.5335,
      "duration": 0.1166,
      "velocity": 27,
      "chip": "ym2612"
    },
    {
      "channel": 0,
      "note": 72,
      "start": 69.6502,
      "duration": 0.1165,
      "velocity": 27,
      "chip": "ym2612"
    },
    {
      "channel": 0,
      "note": 65,
      "start": 69.7669,
      "duration": 0.1331,
      "velocity": 27,
      "chip": "ym2612"
    },
    {
      "channel": 0,
      "note": 77,
      "start": 69.9002,
      "duration": 0.1165,
      "velocity": 27,
      "chip": "ym2612"
    },
    {
      "channel": 0,
      "note": 75,
      "start": 70.0168,
      "duration": 0.1166,
      "velocity": 27,
      "chip": "ym2612"
    },
    {
      "channel": 0,
      "note": 70,
      "start": 70.1336,
      "duration": 0.1165,
      "velocity": 27,
      "chip": "ym2612"
    },
    {
      "channel": 0,
      "note": 72,
      "start": 70.2502,
      "duration": 0.1164,
      "velocity": 27,
      "chip": "ym2612"
    },
    {
      "channel": 0,
      "note": 65,
      "start": 70.3668,
      "duration": 0.1332,
      "velocity": 27,
      "chip": "ym2612"
    },
    {
      "channel": 0,
      "note": 77,
      "start": 70.5002,
      "duration": 0.1166,
      "velocity": 27,
      "chip": "ym2612"
    },
    {
      "channel": 0,
      "note": 75,
      "start": 70.6169,
      "duration": 0.1165,
      "velocity": 27,
      "chip": "ym2612"
    },
    {
      "channel": 0,
      "note": 70,
      "start": 70.7336,
      "duration": 0.1164,
      "velocity": 27,
      "chip": "ym2612"
    },
    {
      "channel": 0,
      "note": 72,
      "start": 70.8502,
      "duration": 0.1165,
      "velocity": 27,
      "chip": "ym2612"
    },
    {
      "channel": 0,
      "note": 65,
      "start": 70.9668,
      "duration": 0.1332,
      "velocity": 27,
      "chip": "ym2612"
    },
    {
      "channel": 0,
      "note": 77,
      "start": 71.1002,
      "duration": 0.1165,
      "velocity": 27,
      "chip": "ym2612"
    },
    {
      "channel": 0,
      "note": 75,
      "start": 71.2169,
      "duration": 0.1164,
      "velocity": 27,
      "chip": "ym2612"
    },
    {
      "channel": 0,
      "note": 70,
      "start": 71.3335,
      "duration": 0.1166,
      "velocity": 27,
      "chip": "ym2612"
    },
    {
      "channel": 0,
      "note": 72,
      "start": 71.4502,
      "duration": 0.1166,
      "velocity": 27,
      "chip": "ym2612"
    },
    {
      "channel": 0,
      "note": 65,
      "start": 71.5669,
      "duration": 0.1332,
      "velocity": 27,
      "chip": "ym2612"
    },
    {
      "channel": 0,
      "note": 77,
      "start": 71.7002,
      "duration": 0.1164,
      "velocity": 27,
      "chip": "ym2612"
    },
    {
      "channel": 0,
      "note": 75,
      "start": 71.8168,
      "duration": 0.1165,
      "velocity": 27,
      "chip": "ym2612"
    },
    {
      "channel": 0,
      "note": 70,
      "start": 71.9335,
      "duration": 0.1166,
      "velocity": 27,
      "chip": "ym2612"
    },
    {
      "channel": 0,
      "note": 72,
      "start": 72.0502,
      "duration": 0.1165,
      "velocity": 27,
      "chip": "ym2612"
    },
    {
      "channel": 0,
      "note": 65,
      "start": 72.1669,
      "duration": 0.1332,
      "velocity": 27,
      "chip": "ym2612"
    },
    {
      "channel": 0,
      "note": 77,
      "start": 72.3002,
      "duration": 0.1165,
      "velocity": 27,
      "chip": "ym2612"
    },
    {
      "channel": 0,
      "note": 75,
      "start": 72.4169,
      "duration": 0.1165,
      "velocity": 27,
      "chip": "ym2612"
    },
    {
      "channel": 0,
      "note": 70,
      "start": 72.5336,
      "duration": 0.1165,
      "velocity": 27,
      "chip": "ym2612"
    },
    {
      "channel": 0,
      "note": 72,
      "start": 72.6502,
      "duration": 0.1165,
      "velocity": 27,
      "chip": "ym2612"
    },
    {
      "channel": 0,
      "note": 65,
      "start": 72.7669,
      "duration": 0.1332,
      "velocity": 27,
      "chip": "ym2612"
    },
    {
      "channel": 1,
      "note": 39,
      "start": 72.7675,
      "duration": 0.2498,
      "velocity": 97,
      "chip": "ym2612"
    },
    {
      "channel": 0,
      "note": 77,
      "start": 72.9002,
      "duration": 0.1165,
      "velocity": 27,
      "chip": "ym2612"
    },
    {
      "channel": 0,
      "note": 63,
      "start": 73.0169,
      "duration": 0.1165,
      "velocity": 27,
      "chip": "ym2612"
    },
    {
      "channel": 1,
      "note": 41,
      "start": 73.0175,
      "duration": 3.8334,
      "velocity": 97,
      "chip": "ym2612"
    },
    {
      "channel": 0,
      "note": 75,
      "start": 73.1336,
      "duration": 0.1164,
      "velocity": 27,
      "chip": "ym2612"
    },
    {
      "channel": 0,
      "note": 73,
      "start": 73.2502,
      "duration": 0.1165,
      "velocity": 27,
      "chip": "ym2612"
    },
    {
      "channel": 0,
      "note": 68,
      "start": 73.3668,
      "duration": 0.1332,
      "velocity": 27,
      "chip": "ym2612"
    },
    {
      "channel": 0,
      "note": 70,
      "start": 73.5002,
      "duration": 0.1165,
      "velocity": 27,
      "chip": "ym2612"
    },
    {
      "channel": 0,
      "note": 63,
      "start": 73.6169,
      "duration": 0.1164,
      "velocity": 27,
      "chip": "ym2612"
    },
    {
      "channel": 0,
      "note": 75,
      "start": 73.7335,
      "duration": 0.1165,
      "velocity": 27,
      "chip": "ym2612"
    },
    {
      "channel": 0,
      "note": 73,
      "start": 73.8502,
      "duration": 0.1166,
      "velocity": 27,
      "chip": "ym2612"
    },
    {
      "channel": 0,
      "note": 68,
      "start": 73.9669,
      "duration": 0.1332,
      "velocity": 27,
      "chip": "ym2612"
    },
    {
      "channel": 0,
      "note": 70,
      "start": 74.1002,
      "duration": 0.1166,
      "velocity": 27,
      "chip": "ym2612"
    },
    {
      "channel": 0,
      "note": 63,
      "start": 74.2168,
      "duration": 0.1165,
      "velocity": 27,
      "chip": "ym2612"
    },
    {
      "channel": 0,
      "note": 75,
      "start": 74.3335,
      "duration": 0.1166,
      "velocity": 27,
      "chip": "ym2612"
    },
    {
      "channel": 0,
      "note": 73,
      "start": 74.4502,
      "duration": 0.1165,
      "velocity": 27,
      "chip": "ym2612"
    },
    {
      "channel": 0,
      "note": 68,
      "start": 74.5669,
      "duration": 0.1331,
      "velocity": 27,
      "chip": "ym2612"
    },
    {
      "channel": 0,
      "note": 70,
      "start": 74.7002,
      "duration": 0.1165,
      "velocity": 27,
      "chip": "ym2612"
    },
    {
      "channel": 0,
      "note": 63,
      "start": 74.8168,
      "duration": 0.1166,
      "velocity": 27,
      "chip": "ym2612"
    },
    {
      "channel": 0,
      "note": 75,
      "start": 74.9336,
      "duration": 0.1165,
      "velocity": 27,
      "chip": "ym2612"
    },
    {
      "channel": 0,
      "note": 73,
      "start": 75.0502,
      "duration": 0.1164,
      "velocity": 27,
      "chip": "ym2612"
    },
    {
      "channel": 0,
      "note": 68,
      "start": 75.1668,
      "duration": 0.1332,
      "velocity": 27,
      "chip": "ym2612"
    },
    {
      "channel": 0,
      "note": 70,
      "start": 75.3002,
      "duration": 0.1166,
      "velocity": 27,
      "chip": "ym2612"
    },
    {
      "channel": 0,
      "note": 63,
      "start": 75.4169,
      "duration": 0.1165,
      "velocity": 27,
      "chip": "ym2612"
    },
    {
      "channel": 0,
      "note": 75,
      "start": 75.5336,
      "duration": 0.1164,
      "velocity": 27,
      "chip": "ym2612"
    },
    {
      "channel": 0,
      "note": 73,
      "start": 75.6502,
      "duration": 0.1165,
      "velocity": 27,
      "chip": "ym2612"
    },
    {
      "channel": 0,
      "note": 68,
      "start": 75.7668,
      "duration": 0.1332,
      "velocity": 27,
      "chip": "ym2612"
    },
    {
      "channel": 0,
      "note": 70,
      "start": 75.9002,
      "duration": 0.1165,
      "velocity": 27,
      "chip": "ym2612"
    },
    {
      "channel": 0,
      "note": 63,
      "start": 76.0169,
      "duration": 0.1165,
      "velocity": 27,
      "chip": "ym2612"
    },
    {
      "channel": 0,
      "note": 75,
      "start": 76.1336,
      "duration": 0.1165,
      "velocity": 27,
      "chip": "ym2612"
    },
    {
      "channel": 0,
      "note": 73,
      "start": 76.2502,
      "duration": 0.1165,
      "velocity": 27,
      "chip": "ym2612"
    },
    {
      "channel": 0,
      "note": 68,
      "start": 76.3669,
      "duration": 0.1332,
      "velocity": 27,
      "chip": "ym2612"
    },
    {
      "channel": 0,
      "note": 70,
      "start": 76.5002,
      "duration": 0.1164,
      "velocity": 27,
      "chip": "ym2612"
    },
    {
      "channel": 0,
      "note": 63,
      "start": 76.6168,
      "duration": 0.1166,
      "velocity": 27,
      "chip": "ym2612"
    },
    {
      "channel": 0,
      "note": 75,
      "start": 76.7336,
      "duration": 0.1167,
      "velocity": 27,
      "chip": "ym2612"
    },
    {
      "channel": 0,
      "note": 65,
      "start": 76.8505,
      "duration": 0.1164,
      "velocity": 27,
      "chip": "ym2612"
    },
    {
      "channel": 1,
      "note": 41,
      "start": 76.8511,
      "duration": 3.5995,
      "velocity": 97,
      "chip": "ym2612"
    },
    {
      "channel": 2,
      "note": 74,
      "start": 76.8517,
      "duration": 7.6858,
      "velocity": 115,
      "chip": "ym2612"
    },
    {
      "channel": 3,
      "note": 53,
      "start": 76.8523,
      "duration": 7.6874,
      "velocity": 1,
      "chip": "ym2612"
    },
    {
      "channel": 4,
      "note": 74,
      "start": 76.8529,
      "duration": 7.6873,
      "velocity": 1,
      "chip": "ym2612"
    },
    {
      "channel": 0,
      "note": 77,
      "start": 76.9671,
      "duration": 0.1329,
      "velocity": 27,
      "chip": "ym2612"
    },
    {
      "channel": 0,
      "note": 75,
      "start": 77.1002,
      "duration": 0.1166,
      "velocity": 27,
      "chip": "ym2612"
    },
    {
      "channel": 0,
      "note": 70,
      "start": 77.2168,
      "duration": 0.1166,
      "velocity": 27,
      "chip": "ym2612"
    },
    {
      "channel": 0,
      "note": 72,
      "start": 77.3336,
      "duration": 0.1165,
      "velocity": 27,
      "chip": "ym2612"
    },
    {
      "channel": 0,
      "note": 65,
      "start": 77.4502,
      "duration": 0.1164,
      "velocity": 27,
      "chip": "ym2612"
    },
    {
      "channel": 0,
      "note": 77,
      "start": 77.5668,
      "duration": 0.1332,
      "velocity": 27,
      "chip": "ym2612"
    },
    {
      "channel": 0,
      "note": 75,
      "start": 77.7002,
      "duration": 0.1166,
      "velocity": 27,
      "chip": "ym2612"
    },
    {
      "channel": 0,
      "note": 70,
      "start": 77.8169,
      "duration": 0.1165,
      "velocity": 27,
      "chip": "ym2612"
    },
    {
      "channel": 0,
      "note": 72,
      "start": 77.9336,
      "duration": 0.1164,
      "velocity": 27,
      "chip": "ym2612"
    },
    {
      "channel": 0,
      "note": 65,
      "start": 78.0502,
      "duration": 0.1165,
      "velocity": 27,
      "chip": "ym2612"
    },
    {
      "channel": 0,
      "note": 77,
      "start": 78.1668,
      "duration": 0.1332,
      "velocity": 27,
      "chip": "ym2612"
    },
    {
      "channel": 0,
      "note": 75,
      "start": 78.3002,
      "duration": 0.1165,
      "velocity": 27,
      "chip": "ym2612"
    },
    {
      "channel": 0,
      "note": 70,
      "start": 78.4169,
      "duration": 0.1164,
      "velocity": 27,
      "chip": "ym2612"
    },
    {
      "channel": 0,
      "note": 72,
      "start": 78.5335,
      "duration": 0.1165,
      "velocity": 27,
      "chip": "ym2612"
    },
    {
      "channel": 0,
      "note": 65,
      "start": 78.6502,
      "duration": 0.1166,
      "velocity": 27,
      "chip": "ym2612"
    },
    {
      "channel": 0,
      "note": 77,
      "start": 78.7669,
      "duration": 0.1332,
      "velocity": 27,
      "chip": "ym2612"
    },
    {
      "channel": 0,
      "note": 75,
      "start": 78.9002,
      "duration": 0.1165,
      "velocity": 27,
      "chip": "ym2612"
    },
    {
      "channel": 0,
      "note": 70,
      "start": 79.0168,
      "duration": 0.1165,
      "velocity": 27,
      "chip": "ym2612"
    },
    {
      "channel": 0,
      "note": 72,
      "start": 79.1335,
      "duration": 0.1166,
      "velocity": 27,
      "chip": "ym2612"
    },
    {
      "channel": 0,
      "note": 65,
      "start": 79.2502,
      "duration": 0.1165,
      "velocity": 27,
      "chip": "ym2612"
    },
    {
      "channel": 0,
      "note": 77,
      "start": 79.3669,
      "duration": 0.1331,
      "velocity": 27,
      "chip": "ym2612"
    },
    {
      "channel": 0,
      "note": 75,
      "start": 79.5002,
      "duration": 0.1165,
      "velocity": 27,
      "chip": "ym2612"
    },
    {
      "channel": 0,
      "note": 70,
      "start": 79.6168,
      "duration": 0.1166,
      "velocity": 27,
      "chip": "ym2612"
    },
    {
      "channel": 0,
      "note": 72,
      "start": 79.7336,
      "duration": 0.1165,
      "velocity": 27,
      "chip": "ym2612"
    },
    {
      "channel": 0,
      "note": 65,
      "start": 79.8502,
      "duration": 0.1166,
      "velocity": 27,
      "chip": "ym2612"
    },
    {
      "channel": 0,
      "note": 77,
      "start": 79.9669,
      "duration": 0.1332,
      "velocity": 27,
      "chip": "ym2612"
    },
    {
      "channel": 0,
      "note": 75,
      "start": 80.1002,
      "duration": 0.1166,
      "velocity": 27,
      "chip": "ym2612"
    },
    {
      "channel": 0,
      "note": 70,
      "start": 80.2169,
      "duration": 0.1165,
      "velocity": 27,
      "chip": "ym2612"
    },
    {
      "channel": 0,
      "note": 72,
      "start": 80.3336,
      "duration": 0.1165,
      "velocity": 27,
      "chip": "ym2612"
    },
    {
      "channel": 0,
      "note": 65,
      "start": 80.4502,
      "duration": 0.1165,
      "velocity": 27,
      "chip": "ym2612"
    },
    {
      "channel": 1,
      "note": 39,
      "start": 80.4508,
      "duration": 0.2499,
      "velocity": 97,
      "chip": "ym2612"
    },
    {
      "channel": 0,
      "note": 77,
      "start": 80.5668,
      "duration": 0.1332,
      "velocity": 27,
      "chip": "ym2612"
    },
    {
      "channel": 0,
      "note": 63,
      "start": 80.7002,
      "duration": 0.1166,
      "velocity": 27,
      "chip": "ym2612"
    },
    {
      "channel": 1,
      "note": 41,
      "start": 80.7008,
      "duration": 3.9516,
      "velocity": 109,
      "chip": "ym2612"
    },
    {
      "channel": 0,
      "note": 75,
      "start": 80.8169,
      "duration": 0.1164,
      "velocity": 27,
      "chip": "ym2612"
    },
    {
      "channel": 0,
      "note": 73,
      "start": 80.9335,
      "duration": 0.1165,
      "velocity": 27,
      "chip": "ym2612"
    },
    {
      "channel": 0,
      "note": 68,
      "start": 81.0502,
      "duration": 0.1166,
      "velocity": 27,
      "chip": "ym2612"
    },
    {
      "channel": 0,
      "note": 70,
      "start": 81.1669,
      "duration": 0.1332,
      "velocity": 27,
      "chip": "ym2612"
    },
    {
      "channel": 0,
      "note": 63,
      "start": 81.3002,
      "duration": 0.1164,
      "velocity": 27,
      "chip": "ym2612"
    },
    {
      "channel": 0,
      "note": 75,
      "start": 81.4168,
      "duration": 0.1165,
      "velocity": 27,
      "chip": "ym2612"
    },
    {
      "channel": 0,
      "note": 73,
      "start": 81.5335,
      "duration": 0.1166,
      "velocity": 27,
      "chip": "ym2612"
    },
    {
      "channel": 0,
      "note": 68,
      "start": 81.6502,
      "duration": 0.1165,
      "velocity": 27,
      "chip": "ym2612"
    },
    {
      "channel": 0,
      "note": 70,
      "start": 81.7669,
      "duration": 0.1331,
      "velocity": 27,
      "chip": "ym2612"
    },
    {
      "channel": 0,
      "note": 63,
      "start": 81.9002,
      "duration": 0.1165,
      "velocity": 27,
      "chip": "ym2612"
    },
    {
      "channel": 0,
      "note": 75,
      "start": 82.0168,
      "duration": 0.1166,
      "velocity": 27,
      "chip": "ym2612"
    },
    {
      "channel": 0,
      "note": 73,
      "start": 82.1336,
      "duration": 0.1165,
      "velocity": 27,
      "chip": "ym2612"
    },
    {
      "channel": 0,
      "note": 68,
      "start": 82.2502,
      "duration": 0.1164,
      "velocity": 27,
      "chip": "ym2612"
    },
    {
      "channel": 0,
      "note": 70,
      "start": 82.3668,
      "duration": 0.1332,
      "velocity": 27,
      "chip": "ym2612"
    },
    {
      "channel": 0,
      "note": 63,
      "start": 82.5002,
      "duration": 0.1166,
      "velocity": 27,
      "chip": "ym2612"
    },
    {
      "channel": 0,
      "note": 75,
      "start": 82.6169,
      "duration": 0.1165,
      "velocity": 27,
      "chip": "ym2612"
    },
    {
      "channel": 0,
      "note": 73,
      "start": 82.7336,
      "duration": 0.1165,
      "velocity": 27,
      "chip": "ym2612"
    },
    {
      "channel": 0,
      "note": 68,
      "start": 82.8502,
      "duration": 0.1165,
      "velocity": 27,
      "chip": "ym2612"
    },
    {
      "channel": 0,
      "note": 70,
      "start": 82.9669,
      "duration": 0.1332,
      "velocity": 27,
      "chip": "ym2612"
    },
    {
      "channel": 0,
      "note": 63,
      "start": 83.1002,
      "duration": 0.1165,
      "velocity": 27,
      "chip": "ym2612"
    },
    {
      "channel": 0,
      "note": 75,
      "start": 83.2169,
      "duration": 0.1165,
      "velocity": 27,
      "chip": "ym2612"
    },
    {
      "channel": 0,
      "note": 73,
      "start": 83.3336,
      "duration": 0.1165,
      "velocity": 27,
      "chip": "ym2612"
    },
    {
      "channel": 0,
      "note": 68,
      "start": 83.4502,
      "duration": 0.1165,
      "velocity": 27,
      "chip": "ym2612"
    },
    {
      "channel": 0,
      "note": 70,
      "start": 83.5669,
      "duration": 0.1332,
      "velocity": 27,
      "chip": "ym2612"
    },
    {
      "channel": 0,
      "note": 63,
      "start": 83.7002,
      "duration": 0.1165,
      "velocity": 27,
      "chip": "ym2612"
    },
    {
      "channel": 0,
      "note": 75,
      "start": 83.8169,
      "duration": 0.1165,
      "velocity": 27,
      "chip": "ym2612"
    },
    {
      "channel": 0,
      "note": 73,
      "start": 83.9336,
      "duration": 0.1165,
      "velocity": 27,
      "chip": "ym2612"
    },
    {
      "channel": 0,
      "note": 68,
      "start": 84.0502,
      "duration": 0.1165,
      "velocity": 27,
      "chip": "ym2612"
    },
    {
      "channel": 0,
      "note": 70,
      "start": 84.1669,
      "duration": 0.1332,
      "velocity": 27,
      "chip": "ym2612"
    },
    {
      "channel": 0,
      "note": 63,
      "start": 84.3002,
      "duration": 0.1165,
      "velocity": 27,
      "chip": "ym2612"
    },
    {
      "channel": 0,
      "note": 75,
      "start": 84.4169,
      "duration": 0.1183,
      "velocity": 115,
      "chip": "ym2612"
    },
    {
      "channel": 0,
      "note": 48,
      "start": 84.5354,
      "duration": 0.1148,
      "velocity": 115,
      "chip": "ym2612"
    },
    {
      "channel": 2,
      "note": 48,
      "start": 84.5377,
      "duration": 0.1153,
      "velocity": 115,
      "chip": "ym2612"
    },
    {
      "channel": 3,
      "note": 74,
      "start": 84.5398,
      "duration": 0.4756,
      "velocity": 1,
      "chip": "ym2612"
    },
    {
      "channel": 4,
      "note": 74,
      "start": 84.5405,
      "duration": 0.475,
      "velocity": 1,
      "chip": "ym2612"
    },
    {
      "channel": 0,
      "note": 48,
      "start": 84.6504,
      "duration": 0.1163,
      "velocity": 115,
      "chip": "ym2612"
    },
    {
      "channel": 1,
      "note": 46,
      "start": 84.6526,
      "duration": 0.248,
      "velocity": 109,
      "chip": "ym2612"
    },
    {
      "channel": 2,
      "note": 48,
      "start": 84.6531,
      "duration": 0.1143,
      "velocity": 115,
      "chip": "ym2612"
    },
    {
      "channel": 0,
      "note": 46,
      "start": 84.7669,
      "duration": 0.1332,
      "velocity": 115,
      "chip": "ym2612"
    },
    {
      "channel": 2,
      "note": 48,
      "start": 84.7676,
      "duration": 0.1337,
      "velocity": 115,
      "chip": "ym2612"
    },
    {
      "channel": 0,
      "note": 48,
      "start": 84.9002,
      "duration": 0.1152,
      "velocity": 115,
      "chip": "ym2612"
    },
    {
      "channel": 1,
      "note": 46,
      "start": 84.9008,
      "duration": 0.1146,
      "velocity": 109,
      "chip": "ym2612"
    },
    {
      "channel": 2,
      "note": 48,
      "start": 84.9013,
      "duration": 0.1141,
      "velocity": 115,
      "chip": "ym2612"
    }
  ]
}