{
  "track_name": "10 - Round 4-1",
  "duration_sec": 127.003,
  "sample_rate": 44100,
  "note_count": 1721,
  "unique_pitches": 52,
  "pitch_range": 82,
  "avg_note_duration": 0.2845,
  "reconstruction_stats": {
    "notes_reconstructed": 1721,
    "keyon_events": 1721,
    "keyoff_events": 1720,
    "orphan_keyons": 1,
    "unique_pitches": 52,
    "pitch_range": 82,
    "avg_duration_sec": 0.2845
  },
  "metadata": {
    "source": "E\\Eliminate Down\\10 - Round 4-1.vgm"
  },
  "notes": [
    {
      "channel": 3,
      "note": 33,
      "start": 0.0,
      "duration": 0.7033,
      "velocity": 127,
      "chip": "ym2612"
    },
    {
      "channel": 4,
      "note": 49,
      "start": 0.0017,
      "duration": 0.1791,
      "velocity": 91,
      "chip": "ym2612"
    },
    {
      "channel": 5,
      "note": 61,
      "start": 0.0034,
      "duration": 0.1775,
      "velocity": 91,
      "chip": "ym2612"
    },
    {
      "channel": 4,
      "note": 49,
      "start": 0.1977,
      "duration": 0.1854,
      "velocity": 91,
      "chip": "ym2612"
    },
    {
      "channel": 5,
      "note": 61,
      "start": 0.1978,
      "duration": 0.1854,
      "velocity": 91,
      "chip": "ym2612"
    },
    {
      "channel": 4,
      "note": 49,
      "start": 0.3999,
      "duration": 0.1854,
      "velocity": 91,
      "chip": "ym2612"
    },
    {
      "channel": 5,
      "note": 61,
      "start": 0.4,
      "duration": 0.1854,
      "velocity": 91,
      "chip": "ym2612"
    },
    {
      "channel": 4,
      "note": 49,
      "start": 0.6022,
      "duration": 0.1853,
      "velocity": 91,
      "chip": "ym2612"
    },
    {
      "channel": 5,
      "note": 61,
      "start": 0.6023,
      "duration": 0.1853,
      "velocity": 91,
      "chip": "ym2612"
    },
    {
      "channel": 3,
      "note": 33,
      "start": 0.8044,
      "duration": 0.7083,
      "velocity": 127,
      "chip": "ym2612"
    },
    {
      "channel": 4,
      "note": 49,
      "start": 0.8044,
      "duration": 0.1854,
      "velocity": 91,
      "chip": "ym2612"
    },
    {
      "channel": 5,
      "note": 61,
      "start": 0.8046,
      "duration": 0.1853,
      "velocity": 91,
      "chip": "ym2612"
    },
    {
      "channel": 4,
      "note": 53,
      "start": 1.0067,
      "duration": 0.1853,
      "velocity": 91,
      "chip": "ym2612"
    },
    {
      "channel": 5,
      "note": 65,
      "start": 1.0069,
      "duration": 0.1852,
      "velocity": 91,
      "chip": "ym2612"
    },
    {
      "channel": 4,
      "note": 56,
      "start": 1.209,
      "duration": 0.1854,
      "velocity": 91,
      "chip": "ym2612"
    },
    {
      "channel": 5,
      "note": 68,
      "start": 1.2091,
      "duration": 0.1853,
      "velocity": 91,
      "chip": "ym2612"
    },
    {
      "channel": 4,
      "note": 55,
      "start": 1.4112,
      "duration": 0.1853,
      "velocity": 91,
      "chip": "ym2612"
    },
    {
      "channel": 5,
      "note": 67,
      "start": 1.4114,
      "duration": 0.1852,
      "velocity": 91,
      "chip": "ym2612"
    },
    {
      "channel": 3,
      "note": 33,
      "start": 1.6133,
      "duration": 0.7078,
      "velocity": 127,
      "chip": "ym2612"
    },
    {
      "channel": 4,
      "note": 80,
      "start": 1.615,
      "duration": 0.1837,
      "velocity": 127,
      "chip": "ym2612"
    },
    {
      "channel": 4,
      "note": 80,
      "start": 1.8156,
      "duration": 0.1854,
      "velocity": 127,
      "chip": "ym2612"
    },
    {
      "channel": 4,
      "note": 80,
      "start": 2.0193,
      "duration": 0.3524,
      "velocity": 127,
      "chip": "ym2612"
    },
    {
      "channel": 3,
      "note": 33,
      "start": 2.4223,
      "duration": 0.7078,
      "velocity": 127,
      "chip": "ym2612"
    },
    {
      "channel": 4,
      "note": 80,
      "start": 2.4239,
      "duration": 0.1838,
      "velocity": 127,
      "chip": "ym2612"
    },
    {
      "channel": 4,
      "note": 80,
      "start": 2.6245,
      "duration": 0.1854,
      "velocity": 127,
      "chip": "ym2612"
    },
    {
      "channel": 4,
      "note": 80,
      "start": 2.8283,
      "duration": 0.3525,
      "velocity": 127,
      "chip": "ym2612"
    },
    {
      "channel": 3,
      "note": 33,
      "start": 3.2313,
      "duration": 0.7078,
      "velocity": 127,
      "chip": "ym2612"
    },
    {
      "channel": 4,
      "note": 49,
      "start": 3.2329,
      "duration": 0.1838,
      "velocity": 91,
      "chip": "ym2612"
    },
    {
      "channel": 5,
      "note": 61,
      "start": 3.2331,
      "duration": 0.1837,
      "velocity": 91,
      "chip": "ym2612"
    },
    {
      "channel": 4,
      "note": 49,
      "start": 3.4335,
      "duration": 0.1854,
      "velocity": 91,
      "chip": "ym2612"
    },
    {
      "channel": 5,
      "note": 61,
      "start": 3.4336,
      "duration": 0.1854,
      "velocity": 91,
      "chip": "ym2612"
    },
    {
      "channel": 4,
      "note": 49,
      "start": 3.6358,
      "duration": 0.1854,
      "velocity": 91,
      "chip": "ym2612"
    },
    {
      "channel": 5,
      "note": 61,
      "start": 3.6359,
      "duration": 0.1854,
      "velocity": 91,
      "chip": "ym2612"
    },
    {
      "channel": 4,
      "note": 49,
      "start": 3.838,
      "duration": 0.1854,
      "velocity": 91,
      "chip": "ym2612"
    },
    {
      "channel": 5,
      "note": 61,
      "start": 3.8381,
      "duration": 0.1854,
      "velocity": 91,
      "chip": "ym2612"
    },
    {
      "channel": 3,
      "note": 33,
      "start": 4.0402,
      "duration": 0.7078,
      "velocity": 127,
      "chip": "ym2612"
    },
    {
      "channel": 4,
      "note": 49,
      "start": 4.0404,
      "duration": 0.1853,
      "velocity": 91,
      "chip": "ym2612"
    },
    {
      "channel": 5,
      "note": 61,
      "start": 4.0405,
      "duration": 0.1853,
      "velocity": 91,
      "chip": "ym2612"
    },
    {
      "channel": 4,
      "note": 53,
      "start": 4.2425,
      "duration": 0.1854,
      "velocity": 91,
      "chip": "ym2612"
    },
    {
      "channel": 5,
      "note": 65,
      "start": 4.2427,
      "duration": 0.1853,
      "velocity": 91,
      "chip": "ym2612"
    },
    {
      "channel": 4,
      "note": 56,
      "start": 4.4448,
      "duration": 0.1853,
      "velocity": 91,
      "chip": "ym2612"
    },
    {
      "channel": 5,
      "note": 68,
      "start": 4.445,
      "duration": 0.1852,
      "velocity": 91,
      "chip": "ym2612"
    },
    {
      "channel": 4,
      "note": 55,
      "start": 4.6471,
      "duration": 0.1854,
      "velocity": 91,
      "chip": "ym2612"
    },
    {
      "channel": 5,
      "note": 67,
      "start": 4.6472,
      "duration": 0.1853,
      "velocity": 91,
      "chip": "ym2612"
    },
    {
      "channel": 1,
      "note": 109,
      "start": 4.8496,
      "duration": 0.0839,
      "velocity": 97,
      "chip": "ym2612"
    },
    {
      "channel": 3,
      "note": 33,
      "start": 4.8497,
      "duration": 0.7077,
      "velocity": 127,
      "chip": "ym2612"
    },
    {
      "channel": 4,
      "note": 80,
      "start": 4.8515,
      "duration": 0.1833,
      "velocity": 127,
      "chip": "ym2612"
    },
    {
      "channel": 1,
      "note": 107,
      "start": 4.9504,
      "duration": 0.0842,
      "velocity": 97,
      "chip": "ym2612"
    },
    {
      "channel": 1,
      "note": 105,
      "start": 5.0515,
      "duration": 0.0842,
      "velocity": 97,
      "chip": "ym2612"
    },
    {
      "channel": 2,
      "note": 106,
      "start": 5.052,
      "duration": 0.0838,
      "velocity": 97,
      "chip": "ym2612"
    },
    {
      "channel": 4,
      "note": 80,
      "start": 5.0521,
      "duration": 0.1849,
      "velocity": 127,
      "chip": "ym2612"
    },
    {
      "channel": 1,
      "note": 104,
      "start": 5.1526,
      "duration": 0.0842,
      "velocity": 97,
      "chip": "ym2612"
    },
    {
      "channel": 2,
      "note": 104,
      "start": 5.1528,
      "duration": 0.0841,
      "velocity": 97,
      "chip": "ym2612"
    },
    {
      "channel": 1,
      "note": 85,
      "start": 5.2537,
      "duration": 0.0841,
      "velocity": 97,
      "chip": "ym2612"
    },
    {
      "channel": 2,
      "note": 102,
      "start": 5.2539,
      "duration": 0.0841,
      "velocity": 97,
      "chip": "ym2612"
    },
    {
      "channel": 4,
      "note": 80,
      "start": 5.2555,
      "duration": 0.3521,
      "velocity": 127,
      "chip": "ym2612"
    },
    {
      "channel": 1,
      "note": 83,
      "start": 5.3548,
      "duration": 0.0843,
      "velocity": 97,
      "chip": "ym2612"
    },
    {
      "channel": 2,
      "note": 101,
      "start": 5.355,
      "duration": 0.0842,
      "velocity": 97,
      "chip": "ym2612"
    },
    {
      "channel": 1,
      "note": 81,
      "start": 5.456,
      "duration": 0.0842,
      "velocity": 97,
      "chip": "ym2612"
    },
    {
      "channel": 2,
      "note": 82,
      "start": 5.4561,
      "duration": 0.0842,
      "velocity": 97,
      "chip": "ym2612"
    },
    {
      "channel": 1,
      "note": 80,
      "start": 5.5571,
      "duration": 0.0842,
      "velocity": 97,
      "chip": "ym2612"
    },
    {
      "channel": 2,
      "note": 80,
      "start": 5.5573,
      "duration": 0.0841,
      "velocity": 97,
      "chip": "ym2612"
    },
    {
      "channel": 1,
      "note": 107,
      "start": 5.6583,
      "duration": 0.0841,
      "velocity": 97,
      "chip": "ym2612"
    },
    {
      "channel": 2,
      "note": 78,
      "start": 5.6584,
      "duration": 0.0841,
      "velocity": 97,
      "chip": "ym2612"
    },
    {
      "channel": 3,
      "note": 33,
      "start": 5.6586,
      "duration": 0.7078,
      "velocity": 127,
      "chip": "ym2612"
    },
    {
      "channel": 4,
      "note": 80,
      "start": 5.6602,
      "duration": 0.1837,
      "velocity": 127,
      "chip": "ym2612"
    },
    {
      "channel": 1,
      "note": 105,
      "start": 5.7593,
      "duration": 0.0842,
      "velocity": 97,
      "chip": "ym2612"
    },
    {
      "channel": 2,
      "note": 77,
      "start": 5.7595,
      "duration": 0.0841,
      "velocity": 97,
      "chip": "ym2612"
    },
    {
      "channel": 1,
      "note": 104,
      "start": 5.8604,
      "duration": 0.0842,
      "velocity": 97,
      "chip": "ym2612"
    },
    {
      "channel": 2,
      "note": 104,
      "start": 5.8606,
      "duration": 0.0841,
      "velocity": 97,
      "chip": "ym2612"
    },
    {
      "channel": 4,
      "note": 80,
      "start": 5.8608,
      "duration": 0.1855,
      "velocity": 127,
      "chip": "ym2612"
    },
    {
      "channel": 1,
      "note": 102,
      "start": 5.9616,
      "duration": 0.0844,
      "velocity": 97,
      "chip": "ym2612"
    },
    {
      "channel": 2,
      "note": 102,
      "start": 5.9617,
      "duration": 0.0844,
      "velocity": 97,
      "chip": "ym2612"
    },
    {
      "channel": 1,
      "note": 83,
      "start": 6.0628,
      "duration": 0.0841,
      "velocity": 97,
      "chip": "ym2612"
    },
    {
      "channel": 2,
      "note": 101,
      "start": 6.0629,
      "duration": 0.0841,
      "velocity": 97,
      "chip": "ym2612"
    },
    {
      "channel": 4,
      "note": 80,
      "start": 6.0645,
      "duration": 0.3522,
      "velocity": 127,
      "chip": "ym2612"
    },
    {
      "channel": 1,
      "note": 81,
      "start": 6.1639,
      "duration": 0.0841,
      "velocity": 97,
      "chip": "ym2612"
    },
    {
      "channel": 2,
      "note": 99,
      "start": 6.164,
      "duration": 0.0841,
      "velocity": 97,
      "chip": "ym2612"
    },
    {
      "channel": 1,
      "note": 80,
      "start": 6.2649,
      "duration": 0.0842,
      "velocity": 97,
      "chip": "ym2612"
    },
    {
      "channel": 2,
      "note": 80,
      "start": 6.2651,
      "duration": 0.0841,
      "velocity": 97,
      "chip": "ym2612"
    },
    {
      "channel": 1,
      "note": 78,
      "start": 6.3661,
      "duration": 4.7526,
      "velocity": 97,
      "chip": "ym2612"
    },
    {
      "channel": 2,
      "note": 78,
      "start": 6.3663,
      "duration": 0.084,
      "velocity": 97,
      "chip": "ym2612"
    },
    {
      "channel": 2,
      "note": 77,
      "start": 6.4672,
      "duration": 0.0842,
      "velocity": 97,
      "chip": "ym2612"
    },
    {
      "channel": 3,
      "note": 33,
      "start": 6.4673,
      "duration": 0.7076,
      "velocity": 127,
      "chip": "ym2612"
    },
    {
      "channel": 4,
      "note": 49,
      "start": 6.4689,
      "duration": 0.1836,
      "velocity": 91,
      "chip": "ym2612"
    },
    {
      "channel": 5,
      "note": 61,
      "start": 6.4692,
      "duration": 0.1835,
      "velocity": 91,
      "chip": "ym2612"
    },
    {
      "channel": 2,
      "note": 75,
      "start": 6.5683,
      "duration": 4.7528,
      "velocity": 97,
      "chip": "ym2612"
    },
    {
      "channel": 4,
      "note": 49,
      "start": 6.6694,
      "duration": 0.1854,
      "velocity": 91,
      "chip": "ym2612"
    },
    {
      "channel": 5,
      "note": 61,
      "start": 6.6695,
      "duration": 0.1854,
      "velocity": 91,
      "chip": "ym2612"
    },
    {
      "channel": 4,
      "note": 49,
      "start": 6.8717,
      "duration": 0.1853,
      "velocity": 91,
      "chip": "ym2612"
    },
    {
      "channel": 5,
      "note": 61,
      "start": 6.8718,
      "duration": 0.1853,
      "velocity": 91,
      "chip": "ym2612"
    },
    {
      "channel": 4,
      "note": 49,
      "start": 7.0739,
      "duration": 0.1854,
      "velocity": 91,
      "chip": "ym2612"
    },
    {
      "channel": 5,
      "note": 61,
      "start": 7.074,
      "duration": 0.1854,
      "velocity": 91,
      "chip": "ym2612"
    },
    {
      "channel": 3,
      "note": 33,
      "start": 7.2761,
      "duration": 0.7078,
      "velocity": 127,
      "chip": "ym2612"
    },
    {
      "channel": 4,
      "note": 49,
      "start": 7.2763,
      "duration": 0.1852,
      "velocity": 91,
      "chip": "ym2612"
    },
    {
      "channel": 5,
      "note": 61,
      "start": 7.2764,
      "duration": 0.1852,
      "velocity": 91,
      "chip": "ym2612"
    },
    {
      "channel": 4,
      "note": 53,
      "start": 7.4784,
      "duration": 0.1853,
      "velocity": 91,
      "chip": "ym2612"
    },
    {
      "channel": 5,
      "note": 65,
      "start": 7.4787,
      "duration": 0.1852,
      "velocity": 91,
      "chip": "ym2612"
    },
    {
      "channel": 4,
      "note": 56,
      "start": 7.6807,
      "duration": 0.1853,
      "velocity": 91,
      "chip": "ym2612"
    },
    {
      "channel": 5,
      "note": 68,
      "start": 7.6809,
      "duration": 0.1853,
      "velocity": 91,
      "chip": "ym2612"
    },
    {
      "channel": 4,
      "note": 55,
      "start": 7.8829,
      "duration": 0.1853,
      "velocity": 91,
      "chip": "ym2612"
    },
    {
      "channel": 5,
      "note": 67,
      "start": 7.8831,
      "duration": 0.1852,
      "velocity": 91,
      "chip": "ym2612"
    },
    {
      "channel": 3,
      "note": 33,
      "start": 8.0851,
      "duration": 0.7078,
      "velocity": 127,
      "chip": "ym2612"
    },
    {
      "channel": 4,
      "note": 80,
      "start": 8.0868,
      "duration": 0.1837,
      "velocity": 127,
      "chip": "ym2612"
    },
    {
      "channel": 4,
      "note": 80,
      "start": 8.2873,
      "duration": 0.1854,
      "velocity": 127,
      "chip": "ym2612"
    },
    {
      "channel": 4,
      "note": 80,
      "start": 8.4911,
      "duration": 0.3524,
      "velocity": 127,
      "chip": "ym2612"
    },
    {
      "channel": 3,
      "note": 33,
      "start": 8.8941,
      "duration": 0.7078,
      "velocity": 127,
      "chip": "ym2612"
    },
    {
      "channel": 4,
      "note": 80,
      "start": 8.896,
      "duration": 0.1834,
      "velocity": 127,
      "chip": "ym2612"
    },
    {
      "channel": 4,
      "note": 80,
      "start": 9.0963,
      "duration": 0.1854,
      "velocity": 127,
      "chip": "ym2612"
    },
    {
      "channel": 4,
      "note": 80,
      "start": 9.3,
      "duration": 0.3525,
      "velocity": 127,
      "chip": "ym2612"
    },
    {
      "channel": 3,
      "note": 33,
      "start": 9.703,
      "duration": 0.7078,
      "velocity": 127,
      "chip": "ym2612"
    },
    {
      "channel": 4,
      "note": 49,
      "start": 9.7047,
      "duration": 0.1837,
      "velocity": 91,
      "chip": "ym2612"
    },
    {
      "channel": 5,
      "note": 61,
      "start": 9.7049,
      "duration": 0.1837,
      "velocity": 91,
      "chip": "ym2612"
    },
    {
      "channel": 4,
      "note": 49,
      "start": 9.9053,
      "duration": 0.1854,
      "velocity": 91,
      "chip": "ym2612"
    },
    {
      "channel": 5,
      "note": 61,
      "start": 9.9054,
      "duration": 0.1854,
      "velocity": 91,
      "chip": "ym2612"
    },
    {
      "channel": 4,
      "note": 49,
      "start": 10.1076,
      "duration": 0.1853,
      "velocity": 91,
      "chip": "ym2612"
    },
    {
      "channel": 5,
      "note": 61,
      "start": 10.1077,
      "duration": 0.1853,
      "velocity": 91,
      "chip": "ym2612"
    },
    {
      "channel": 4,
      "note": 49,
      "start": 10.3098,
      "duration": 0.1854,
      "velocity": 91,
      "chip": "ym2612"
    },
    {
      "channel": 5,
      "note": 61,
      "start": 10.3099,
      "duration": 0.1854,
      "velocity": 91,
      "chip": "ym2612"
    },
    {
      "channel": 3,
      "note": 33,
      "start": 10.512,
      "duration": 0.7078,
      "velocity": 127,
      "chip": "ym2612"
    },
    {
      "channel": 4,
      "note": 49,
      "start": 10.5124,
      "duration": 0.1849,
      "velocity": 91,
      "chip": "ym2612"
    },
    {
      "channel": 5,
      "note": 61,
      "start": 10.5126,
      "duration": 0.1849,
      "velocity": 91,
      "chip": "ym2612"
    },
    {
      "channel": 4,
      "note": 53,
      "start": 10.7143,
      "duration": 0.1853,
      "velocity": 91,
      "chip": "ym2612"
    },
    {
      "channel": 5,
      "note": 65,
      "start": 10.7145,
      "duration": 0.1852,
      "velocity": 91,
      "chip": "ym2612"
    },
    {
      "channel": 4,
      "note": 56,
      "start": 10.9165,
      "duration": 0.1854,
      "velocity": 91,
      "chip": "ym2612"
    },
    {
      "channel": 5,
      "note": 68,
      "start": 10.9167,
      "duration": 0.1853,
      "velocity": 91,
      "chip": "ym2612"
    },
    {
      "channel": 4,
      "note": 55,
      "start": 11.1189,
      "duration": 0.1852,
      "velocity": 91,
      "chip": "ym2612"
    },
    {
      "channel": 5,
      "note": 67,
      "start": 11.1191,
      "duration": 0.1851,
      "velocity": 91,
      "chip": "ym2612"
    },
    {
      "channel": 1,
      "note": 73,
      "start": 11.321,
      "duration": 0.1852,
      "velocity": 97,
      "chip": "ym2612"
    },
    {
      "channel": 3,
      "note": 33,
      "start": 11.3212,
      "duration": 0.7081,
      "velocity": 127,
      "chip": "ym2612"
    },
    {
      "channel": 4,
      "note": 80,
      "start": 11.3229,
      "duration": 0.1835,
      "velocity": 127,
      "chip": "ym2612"
    },
    {
      "channel": 1,
      "note": 97,
      "start": 11.5232,
      "duration": 0.1854,
      "velocity": 97,
      "chip": "ym2612"
    },
    {
      "channel": 2,
      "note": 70,
      "start": 11.5234,
      "duration": 0.1853,
      "velocity": 97,
      "chip": "ym2612"
    },
    {
      "channel": 4,
      "note": 80,
      "start": 11.5235,
      "duration": 0.1853,
      "velocity": 127,
      "chip": "ym2612"
    },
    {
      "channel": 1,
      "note": 75,
      "start": 11.7254,
      "duration": 0.1854,
      "velocity": 97,
      "chip": "ym2612"
    },
    {
      "channel": 2,
      "note": 94,
      "start": 11.7256,
      "duration": 0.1853,
      "velocity": 97,
      "chip": "ym2612"
    },
    {
      "channel": 4,
      "note": 80,
      "start": 11.7272,
      "duration": 0.3522,
      "velocity": 127,
      "chip": "ym2612"
    },
    {
      "channel": 1,
      "note": 99,
      "start": 11.9277,
      "duration": 0.1854,
      "velocity": 97,
      "chip": "ym2612"
    },
    {
      "channel": 2,
      "note": 72,
      "start": 11.9279,
      "duration": 0.1853,
      "velocity": 97,
      "chip": "ym2612"
    },
    {
      "channel": 1,
      "note": 76,
      "start": 12.13,
      "duration": 0.1853,
      "velocity": 97,
      "chip": "ym2612"
    },
    {
      "channel": 2,
      "note": 96,
      "start": 12.1301,
      "duration": 0.1853,
      "velocity": 97,
      "chip": "ym2612"
    },
    {
      "channel": 3,
      "note": 33,
      "start": 12.1302,
      "duration": 0.7075,
      "velocity": 127,
      "chip": "ym2612"
    },
    {
      "channel": 4,
      "note": 80,
      "start": 12.1319,
      "duration": 0.1837,
      "velocity": 127,
      "chip": "ym2612"
    },
    {
      "channel": 1,
      "note": 100,
      "start": 12.3322,
      "duration": 0.1853,
      "velocity": 97,
      "chip": "ym2612"
    },
    {
      "channel": 2,
      "note": 73,
      "start": 12.3324,
      "duration": 0.1852,
      "velocity": 97,
      "chip": "ym2612"
    },
    {
      "channel": 4,
      "note": 80,
      "start": 12.3325,
      "duration": 0.1853,
      "velocity": 127,
      "chip": "ym2612"
    },
    {
      "channel": 1,
      "note": 78,
      "start": 12.5345,
      "duration": 0.1852,
      "velocity": 97,
      "chip": "ym2612"
    },
    {
      "channel": 2,
      "note": 97,
      "start": 12.5346,
      "duration": 0.1852,
      "velocity": 97,
      "chip": "ym2612"
    },
    {
      "channel": 4,
      "note": 80,
      "start": 12.5362,
      "duration": 0.3521,
      "velocity": 127,
      "chip": "ym2612"
    },
    {
      "channel": 1,
      "note": 102,
      "start": 12.7367,
      "duration": 4.8537,
      "velocity": 97,
      "chip": "ym2612"
    },
    {
      "channel": 2,
      "note": 75,
      "start": 12.7369,
      "duration": 0.1851,
      "velocity": 97,
      "chip": "ym2612"
    },
    {
      "channel": 2,
      "note": 99,
      "start": 12.9389,
      "duration": 4.8539,
      "velocity": 97,
      "chip": "ym2612"
    },
    {
      "channel": 3,
      "note": 33,
      "start": 12.939,
      "duration": 0.7077,
      "velocity": 127,
      "chip": "ym2612"
    },
    {
      "channel": 4,
      "note": 49,
      "start": 12.9407,
      "duration": 0.1836,
      "velocity": 91,
      "chip": "ym2612"
    },
    {
      "channel": 5,
      "note": 61,
      "start": 12.9409,
      "duration": 0.1835,
      "velocity": 91,
      "chip": "ym2612"
    },
    {
      "channel": 4,
      "note": 49,
      "start": 13.1411,
      "duration": 0.1854,
      "velocity": 91,
      "chip": "ym2612"
    },
    {
      "channel": 5,
      "note": 61,
      "start": 13.1413,
      "duration": 0.1854,
      "velocity": 91,
      "chip": "ym2612"
    },
    {
      "channel": 4,
      "note": 49,
      "start": 13.3434,
      "duration": 0.1857,
      "velocity": 91,
      "chip": "ym2612"
    },
    {
      "channel": 5,
      "note": 61,
      "start": 13.3436,
      "duration": 0.1857,
      "velocity": 91,
      "chip": "ym2612"
    },
    {
      "channel": 4,
      "note": 49,
      "start": 13.546,
      "duration": 0.1849,
      "velocity": 91,
      "chip": "ym2612"
    },
    {
      "channel": 5,
      "note": 61,
      "start": 13.5462,
      "duration": 0.1849,
      "velocity": 91,
      "chip": "ym2612"
    },
    {
      "channel": 3,
      "note": 33,
      "start": 13.7478,
      "duration": 0.7079,
      "velocity": 127,
      "chip": "ym2612"
    },
    {
      "channel": 4,
      "note": 49,
      "start": 13.7479,
      "duration": 0.1853,
      "velocity": 91,
      "chip": "ym2612"
    },
    {
      "channel": 5,
      "note": 61,
      "start": 13.7481,
      "duration": 0.1853,
      "velocity": 91,
      "chip": "ym2612"
    },
    {
      "channel": 4,
      "note": 53,
      "start": 13.9502,
      "duration": 0.1854,
      "velocity": 91,
      "chip": "ym2612"
    },
    {
      "channel": 5,
      "note": 65,
      "start": 13.9504,
      "duration": 0.1853,
      "velocity": 91,
      "chip": "ym2612"
    },
    {
      "channel": 4,
      "note": 56,
      "start": 14.1524,
      "duration": 0.1854,
      "velocity": 91,
      "chip": "ym2612"
    },
    {
      "channel": 5,
      "note": 68,
      "start": 14.1526,
      "duration": 0.1853,
      "velocity": 91,
      "chip": "ym2612"
    },
    {
      "channel": 4,
      "note": 55,
      "start": 14.3546,
      "duration": 0.1853,
      "velocity": 91,
      "chip": "ym2612"
    },
    {
      "channel": 5,
      "note": 67,
      "start": 14.3548,
      "duration": 0.1852,
      "velocity": 91,
      "chip": "ym2612"
    },
    {
      "channel": 3,
      "note": 33,
      "start": 14.5568,
      "duration": 0.7079,
      "velocity": 127,
      "chip": "ym2612"
    },
    {
      "channel": 4,
      "note": 80,
      "start": 14.5585,
      "duration": 0.1837,
      "velocity": 127,
      "chip": "ym2612"
    },
    {
      "channel": 4,
      "note": 80,
      "start": 14.7591,
      "duration": 0.1854,
      "velocity": 127,
      "chip": "ym2612"
    },
    {
      "channel": 4,
      "note": 80,
      "start": 14.9632,
      "duration": 0.352,
      "velocity": 127,
      "chip": "ym2612"
    },
    {
      "channel": 3,
      "note": 33,
      "start": 15.3658,
      "duration": 0.7078,
      "velocity": 127,
      "chip": "ym2612"
    },
    {
      "channel": 4,
      "note": 80,
      "start": 15.3674,
      "duration": 0.1838,
      "velocity": 127,
      "chip": "ym2612"
    },
    {
      "channel": 4,
      "note": 80,
      "start": 15.568,
      "duration": 0.1854,
      "velocity": 127,
      "chip": "ym2612"
    },
    {
      "channel": 4,
      "note": 80,
      "start": 15.7717,
      "duration": 0.3525,
      "velocity": 127,
      "chip": "ym2612"
    },
    {
      "channel": 3,
      "note": 33,
      "start": 16.1747,
      "duration": 0.7078,
      "velocity": 127,
      "chip": "ym2612"
    },
    {
      "channel": 4,
      "note": 49,
      "start": 16.1764,
      "duration": 0.1838,
      "velocity": 91,
      "chip": "ym2612"
    },
    {
      "channel": 5,
      "note": 61,
      "start": 16.1766,
      "duration": 0.1837,
      "velocity": 91,
      "chip": "ym2612"
    },
    {
      "channel": 4,
      "note": 49,
      "start": 16.377,
      "duration": 0.1857,
      "velocity": 91,
      "chip": "ym2612"
    },
    {
      "channel": 5,
      "note": 61,
      "start": 16.3771,
      "duration": 0.1857,
      "velocity": 91,
      "chip": "ym2612"
    },
    {
      "channel": 4,
      "note": 49,
      "start": 16.5794,
      "duration": 0.1852,
      "velocity": 91,
      "chip": "ym2612"
    },
    {
      "channel": 5,
      "note": 61,
      "start": 16.5795,
      "duration": 0.1852,
      "velocity": 91,
      "chip": "ym2612"
    },
    {
      "channel": 4,
      "note": 49,
      "start": 16.7815,
      "duration": 0.1854,
      "velocity": 91,
      "chip": "ym2612"
    },
    {
      "channel": 5,
      "note": 61,
      "start": 16.7816,
      "duration": 0.1854,
      "velocity": 91,
      "chip": "ym2612"
    },
    {
      "channel": 3,
      "note": 33,
      "start": 16.9837,
      "duration": 0.7079,
      "velocity": 127,
      "chip": "ym2612"
    },
    {
      "channel": 4,
      "note": 49,
      "start": 16.9838,
      "duration": 0.1853,
      "velocity": 91,
      "chip": "ym2612"
    },
    {
      "channel": 5,
      "note": 61,
      "start": 16.9839,
      "duration": 0.1853,
      "velocity": 91,
      "chip": "ym2612"
    },
    {
      "channel": 4,
      "note": 53,
      "start": 17.1861,
      "duration": 0.1853,
      "velocity": 91,
      "chip": "ym2612"
    },
    {
      "channel": 5,
      "note": 65,
      "start": 17.1862,
      "duration": 0.1852,
      "velocity": 91,
      "chip": "ym2612"
    },
    {
      "channel": 4,
      "note": 56,
      "start": 17.3883,
      "duration": 0.1853,
      "velocity": 91,
      "chip": "ym2612"
    },
    {
      "channel": 5,
      "note": 68,
      "start": 17.3885,
      "duration": 0.1852,
      "velocity": 91,
      "chip": "ym2612"
    },
    {
      "channel": 4,
      "note": 55,
      "start": 17.5906,
      "duration": 0.1852,
      "velocity": 91,
      "chip": "ym2612"
    },
    {
      "channel": 5,
      "note": 67,
      "start": 17.5908,
      "duration": 0.1852,
      "velocity": 91,
      "chip": "ym2612"
    },
    {
      "channel": 1,
      "note": 97,
      "start": 17.7927,
      "duration": 0.0842,
      "velocity": 97,
      "chip": "ym2612"
    },
    {
      "channel": 3,
      "note": 33,
      "start": 17.7929,
      "duration": 0.7079,
      "velocity": 127,
      "chip": "ym2612"
    },
    {
      "channel": 4,
      "note": 80,
      "start": 17.7946,
      "duration": 0.1835,
      "velocity": 127,
      "chip": "ym2612"
    },
    {
      "channel": 1,
      "note": 95,
      "start": 17.8939,
      "duration": 0.0841,
      "velocity": 97,
      "chip": "ym2612"
    },
    {
      "channel": 1,
      "note": 93,
      "start": 17.9949,
      "duration": 0.0844,
      "velocity": 97,
      "chip": "ym2612"
    },
    {
      "channel": 2,
      "note": 94,
      "start": 17.9951,
      "duration": 0.0843,
      "velocity": 97,
      "chip": "ym2612"
    },
    {
      "channel": 4,
      "note": 80,
      "start": 17.9953,
      "duration": 0.1852,
      "velocity": 127,
      "chip": "ym2612"
    },
    {
      "channel": 1,
      "note": 92,
      "start": 18.096,
      "duration": 0.0842,
      "velocity": 97,
      "chip": "ym2612"
    },
    {
      "channel": 2,
      "note": 92,
      "start": 18.0962,
      "duration": 0.0841,
      "velocity": 97,
      "chip": "ym2612"
    },
    {
      "channel": 1,
      "note": 97,
      "start": 18.1972,
      "duration": 0.0842,
      "velocity": 97,
      "chip": "ym2612"
    },
    {
      "channel": 2,
      "note": 90,
      "start": 18.1974,
      "duration": 0.0842,
      "velocity": 97,
      "chip": "ym2612"
    },
    {
      "channel": 4,
      "note": 80,
      "start": 18.199,
      "duration": 0.3521,
      "velocity": 127,
      "chip": "ym2612"
    },
    {
      "channel": 1,
      "note": 95,
      "start": 18.2983,
      "duration": 0.0842,
      "velocity": 97,
      "chip": "ym2612"
    },
    {
      "channel": 2,
      "note": 89,
      "start": 18.2985,
      "duration": 0.0841,
      "velocity": 97,
      "chip": "ym2612"
    },
    {
      "channel": 1,
      "note": 93,
      "start": 18.3995,
      "duration": 0.0841,
      "velocity": 97,
      "chip": "ym2612"
    },
    {
      "channel": 2,
      "note": 94,
      "start": 18.3997,
      "duration": 0.0841,
      "velocity": 97,
      "chip": "ym2612"
    },
    {
      "channel": 1,
      "note": 92,
      "start": 18.5005,
      "duration": 0.0842,
      "velocity": 97,
      "chip": "ym2612"
    },
    {
      "channel": 2,
      "note": 92,
      "start": 18.5007,
      "duration": 0.0841,
      "velocity": 97,
      "chip": "ym2612"
    },
    {
      "channel": 1,
      "note": 97,
      "start": 18.6017,
      "duration": 0.0841,
      "velocity": 97,
      "chip": "ym2612"
    },
    {
      "channel": 2,
      "note": 90,
      "start": 18.6019,
      "duration": 0.0841,
      "velocity": 97,
      "chip": "ym2612"
    },
    {
      "channel": 3,
      "note": 33,
      "start": 18.602,
      "duration": 0.7078,
      "velocity": 127,
      "chip": "ym2612"
    },
    {
      "channel": 4,
      "note": 80,
      "start": 18.6036,
      "duration": 0.1837,
      "velocity": 127,
      "chip": "ym2612"
    },
    {
      "channel": 1,
      "note": 95,
      "start": 18.7028,
      "duration": 0.0842,
      "velocity": 97,
      "chip": "ym2612"
    },
    {
      "channel": 2,
      "note": 89,
      "start": 18.703,
      "duration": 0.0841,
      "velocity": 97,
      "chip": "ym2612"
    },
    {
      "channel": 1,
      "note": 93,
      "start": 18.8039,
      "duration": 0.0841,
      "velocity": 97,
      "chip": "ym2612"
    },
    {
      "channel": 2,
      "note": 94,
      "start": 18.8041,
      "duration": 0.0841,
      "velocity": 97,
      "chip": "ym2612"
    },
    {
      "channel": 4,
      "note": 80,
      "start": 18.8043,
      "duration": 0.1852,
      "velocity": 127,
      "chip": "ym2612"
    },
    {
      "channel": 1,
      "note": 92,
      "start": 18.905,
      "duration": 0.0842,
      "velocity": 97,
      "chip": "ym2612"
    },
    {
      "channel": 2,
      "note": 92,
      "start": 18.9052,
      "duration": 0.0842,
      "velocity": 97,
      "chip": "ym2612"
    },
    {
      "channel": 1,
      "note": 97,
      "start": 19.0061,
      "duration": 0.0842,
      "velocity": 97,
      "chip": "ym2612"
    },
    {
      "channel": 2,
      "note": 90,
      "start": 19.0063,
      "duration": 0.0841,
      "velocity": 97,
      "chip": "ym2612"
    },
    {
      "channel": 4,
      "note": 80,
      "start": 19.0079,
      "duration": 0.3521,
      "velocity": 127,
      "chip": "ym2612"
    },
    {
      "channel": 1,
      "note": 95,
      "start": 19.1072,
      "duration": 0.0843,
      "velocity": 97,
      "chip": "ym2612"
    },
    {
      "channel": 2,
      "note": 89,
      "start": 19.1074,
      "duration": 0.0842,
      "velocity": 97,
      "chip": "ym2612"
    },
    {
      "channel": 1,
      "note": 93,
      "start": 19.2084,
      "duration": 0.0842,
      "velocity": 97,
      "chip": "ym2612"
    },
    {
      "channel": 2,
      "note": 94,
      "start": 19.2086,
      "duration": 0.0841,
      "velocity": 97,
      "chip": "ym2612"
    },
    {
      "channel": 1,
      "note": 92,
      "start": 19.3095,
      "duration": 0.1011,
      "velocity": 97,
      "chip": "ym2612"
    },
    {
      "channel": 2,
      "note": 92,
      "start": 19.3097,
      "duration": 0.084,
      "velocity": 97,
      "chip": "ym2612"
    },
    {
      "channel": 1,
      "note": 97,
      "start": 19.4107,
      "duration": 1.4156,
      "velocity": 97,
      "chip": "ym2612"
    },
    {
      "channel": 2,
      "note": 90,
      "start": 19.4109,
      "duration": 0.084,
      "velocity": 97,
      "chip": "ym2612"
    },
    {
      "channel": 3,
      "note": 33,
      "start": 19.411,
      "duration": 0.7075,
      "velocity": 127,
      "chip": "ym2612"
    },
    {
      "channel": 4,
      "note": 49,
      "start": 19.4131,
      "duration": 0.1829,
      "velocity": 91,
      "chip": "ym2612"
    },
    {
      "channel": 5,
      "note": 61,
      "start": 19.4133,
      "duration": 0.1829,
      "velocity": 91,
      "chip": "ym2612"
    },
    {
      "channel": 2,
      "note": 89,
      "start": 19.5118,
      "duration": 1.5173,
      "velocity": 97,
      "chip": "ym2612"
    },
    {
      "channel": 4,
      "note": 49,
      "start": 19.6128,
      "duration": 0.1854,
      "velocity": 91,
      "chip": "ym2612"
    },
    {
      "channel": 5,
      "note": 61,
      "start": 19.6129,
      "duration": 0.1854,
      "velocity": 91,
      "chip": "ym2612"
    },
    {
      "channel": 4,
      "note": 49,
      "start": 19.8151,
      "duration": 0.1853,
      "velocity": 91,
      "chip": "ym2612"
    },
    {
      "channel": 5,
      "note": 61,
      "start": 19.8152,
      "duration": 0.1853,
      "velocity": 91,
      "chip": "ym2612"
    },
    {
      "channel": 4,
      "note": 49,
      "start": 20.0173,
      "duration": 0.1854,
      "velocity": 91,
      "chip": "ym2612"
    },
    {
      "channel": 5,
      "note": 61,
      "start": 20.0175,
      "duration": 0.1854,
      "velocity": 91,
      "chip": "ym2612"
    },
    {
      "channel": 3,
      "note": 33,
      "start": 20.2196,
      "duration": 0.7079,
      "velocity": 127,
      "chip": "ym2612"
    },
    {
      "channel": 4,
      "note": 49,
      "start": 20.2197,
      "duration": 0.1852,
      "velocity": 91,
      "chip": "ym2612"
    },
    {
      "channel": 5,
      "note": 61,
      "start": 20.2198,
      "duration": 0.1853,
      "velocity": 91,
      "chip": "ym2612"
    },
    {
      "channel": 4,
      "note": 53,
      "start": 20.4219,
      "duration": 0.1854,
      "velocity": 91,
      "chip": "ym2612"
    },
    {
      "channel": 5,
      "note": 65,
      "start": 20.4221,
      "duration": 0.1853,
      "velocity": 91,
      "chip": "ym2612"
    },
    {
      "channel": 4,
      "note": 56,
      "start": 20.6241,
      "duration": 0.1853,
      "velocity": 91,
      "chip": "ym2612"
    },
    {
      "channel": 5,
      "note": 68,
      "start": 20.6244,
      "duration": 0.1852,
      "velocity": 91,
      "chip": "ym2612"
    },
    {
      "channel": 4,
      "note": 55,
      "start": 20.8265,
      "duration": 0.1852,
      "velocity": 91,
      "chip": "ym2612"
    },
    {
      "channel": 5,
      "note": 67,
      "start": 20.8267,
      "duration": 0.1851,
      "velocity": 91,
      "chip": "ym2612"
    },
    {
      "channel": 1,
      "note": 109,
      "start": 21.0287,
      "duration": 0.0841,
      "velocity": 97,
      "chip": "ym2612"
    },
    {
      "channel": 3,
      "note": 33,
      "start": 21.0293,
      "duration": 0.3532,
      "velocity": 127,
      "chip": "ym2612"
    },
    {
      "channel": 1,
      "note": 104,
      "start": 21.1297,
      "duration": 0.0842,
      "velocity": 97,
      "chip": "ym2612"
    },
    {
      "channel": 1,
      "note": 100,
      "start": 21.2308,
      "duration": 0.0841,
      "velocity": 97,
      "chip": "ym2612"
    },
    {
      "channel": 2,
      "note": 106,
      "start": 21.231,
      "duration": 0.0841,
      "velocity": 97,
      "chip": "ym2612"
    },
    {
      "channel": 1,
      "note": 97,
      "start": 21.332,
      "duration": 0.0841,
      "velocity": 97,
      "chip": "ym2612"
    },
    {
      "channel": 2,
      "note": 101,
      "start": 21.3322,
      "duration": 0.084,
      "velocity": 97,
      "chip": "ym2612"
    },
    {
      "channel": 1,
      "note": 92,
      "start": 21.4331,
      "duration": 0.0841,
      "velocity": 97,
      "chip": "ym2612"
    },
    {
      "channel": 2,
      "note": 97,
      "start": 21.4332,
      "duration": 0.0842,
      "velocity": 97,
      "chip": "ym2612"
    },
    {
      "channel": 3,
      "note": 33,
      "start": 21.4333,
      "duration": 0.1853,
      "velocity": 127,
      "chip": "ym2612"
    },
    {
      "channel": 4,
      "note": 49,
      "start": 21.4336,
      "duration": 0.1852,
      "velocity": 91,
      "chip": "ym2612"
    },
    {
      "channel": 5,
      "note": 61,
      "start": 21.4338,
      "duration": 0.1851,
      "velocity": 91,
      "chip": "ym2612"
    },
    {
      "channel": 1,
      "note": 88,
      "start": 21.5341,
      "duration": 0.0842,
      "velocity": 97,
      "chip": "ym2612"
    },
    {
      "channel": 2,
      "note": 94,
      "start": 21.5343,
      "duration": 0.0841,
      "velocity": 97,
      "chip": "ym2612"
    },
    {
      "channel": 1,
      "note": 85,
      "start": 21.6354,
      "duration": 0.0841,
      "velocity": 97,
      "chip": "ym2612"
    },
    {
      "channel": 2,
      "note": 89,
      "start": 21.6355,
      "duration": 0.0841,
      "velocity": 97,
      "chip": "ym2612"
    },
    {
      "channel": 3,
      "note": 33,
      "start": 21.6357,
      "duration": 0.1852,
      "velocity": 127,
      "chip": "ym2612"
    },
    {
      "channel": 4,
      "note": 49,
      "start": 21.6358,
      "duration": 0.1852,
      "velocity": 91,
      "chip": "ym2612"
    },
    {
      "channel": 5,
      "note": 61,
      "start": 21.6359,
      "duration": 0.1852,
      "velocity": 91,
      "chip": "ym2612"
    },
    {
      "channel": 1,
      "note": 80,
      "start": 21.7364,
      "duration": 0.0841,
      "velocity": 97,
      "chip": "ym2612"
    },
    {
      "channel": 2,
      "note": 85,
      "start": 21.7366,
      "duration": 0.0841,
      "velocity": 97,
      "chip": "ym2612"
    },
    {
      "channel": 1,
      "note": 85,
      "start": 21.8375,
      "duration": 0.0842,
      "velocity": 97,
      "chip": "ym2612"
    },
    {
      "channel": 2,
      "note": 82,
      "start": 21.8377,
      "duration": 0.0841,
      "velocity": 97,
      "chip": "ym2612"
    },
    {
      "channel": 3,
      "note": 45,
      "start": 21.8394,
      "duration": 0.7066,
      "velocity": 127,
      "chip": "ym2612"
    },
    {
      "channel": 4,
      "note": 61,
      "start": 21.8396,
      "duration": 0.7066,
      "velocity": 91,
      "chip": "ym2612"
    },
    {
      "channel": 5,
      "note": 73,
      "start": 21.8398,
      "duration": 0.7065,
      "velocity": 91,
      "chip": "ym2612"
    },
    {
      "channel": 1,
      "note": 88,
      "start": 21.9387,
      "duration": 0.0841,
      "velocity": 97,
      "chip": "ym2612"
    },
    {
      "channel": 2,
      "note": 77,
      "start": 21.9388,
      "duration": 0.0842,
      "velocity": 97,
      "chip": "ym2612"
    },
    {
      "channel": 1,
      "note": 92,
      "start": 22.0398,
      "duration": 0.0842,
      "velocity": 97,
      "chip": "ym2612"
    },
    {
      "channel": 2,
      "note": 82,
      "start": 22.04,
      "duration": 0.0841,
      "velocity": 97,
      "chip": "ym2612"
    },
    {
      "channel": 1,
      "note": 97,
      "start": 22.1409,
      "duration": 0.0842,
      "velocity": 97,
      "chip": "ym2612"
    },
    {
      "channel": 2,
      "note": 85,
      "start": 22.1411,
      "duration": 0.0842,
      "velocity": 97,
      "chip": "ym2612"
    },
    {
      "channel": 1,
      "note": 100,
      "start": 22.242,
      "duration": 0.0842,
      "velocity": 97,
      "chip": "ym2612"
    },
    {
      "channel": 2,
      "note": 89,
      "start": 22.2422,
      "duration": 0.0841,
      "velocity": 97,
      "chip": "ym2612"
    },
    {
      "channel": 1,
      "note": 104,
      "start": 22.3432,
      "duration": 0.0841,
      "velocity": 97,
      "chip": "ym2612"
    },
    {
      "channel": 2,
      "note": 94,
      "start": 22.3434,
      "duration": 0.0841,
      "velocity": 97,
      "chip": "ym2612"
    },
    {
      "channel": 1,
      "note": 100,
      "start": 22.4443,
      "duration": 0.0842,
      "velocity": 97,
      "chip": "ym2612"
    },
    {
      "channel": 2,
      "note": 97,
      "start": 22.4444,
      "duration": 0.0842,
      "velocity": 97,
      "chip": "ym2612"
    },
    {
      "channel": 1,
      "note": 109,
      "start": 22.5454,
      "duration": 1.5172,
      "velocity": 97,
      "chip": "ym2612"
    },
    {
      "channel": 2,
      "note": 101,
      "start": 22.5459,
      "duration": 0.0837,
      "velocity": 97,
      "chip": "ym2612"
    },
    {
      "channel": 2,
      "note": 97,
      "start": 22.6465,
      "duration": 0.0843,
      "velocity": 97,
      "chip": "ym2612"
    },
    {
      "channel": 3,
      "note": 33,
      "start": 22.6482,
      "duration": 0.7061,
      "velocity": 127,
      "chip": "ym2612"
    },
    {
      "channel": 4,
      "note": 49,
      "start": 22.6484,
      "duration": 0.1835,
      "velocity": 91,
      "chip": "ym2612"
    },
    {
      "channel": 5,
      "note": 61,
      "start": 22.6485,
      "duration": 0.1834,
      "velocity": 91,
      "chip": "ym2612"
    },
    {
      "channel": 2,
      "note": 106,
      "start": 22.7476,
      "duration": 1.5169,
      "velocity": 97,
      "chip": "ym2612"
    },
    {
      "channel": 4,
      "note": 49,
      "start": 22.8487,
      "duration": 0.1854,
      "velocity": 91,
      "chip": "ym2612"
    },
    {
      "channel": 5,
      "note": 61,
      "start": 22.8488,
      "duration": 0.1854,
      "velocity": 91,
      "chip": "ym2612"
    },
    {
      "channel": 4,
      "note": 49,
      "start": 23.0509,
      "duration": 0.1854,
      "velocity": 91,
      "chip": "ym2612"
    },
    {
      "channel": 5,
      "note": 61,
      "start": 23.0511,
      "duration": 0.1854,
      "velocity": 91,
      "chip": "ym2612"
    },
    {
      "channel": 4,
      "note": 49,
      "start": 23.2532,
      "duration": 0.1854,
      "velocity": 91,
      "chip": "ym2612"
    },
    {
      "channel": 5,
      "note": 61,
      "start": 23.2534,
      "duration": 0.1854,
      "velocity": 91,
      "chip": "ym2612"
    },
    {
      "channel": 3,
      "note": 33,
      "start": 23.4554,
      "duration": 0.7079,
      "velocity": 127,
      "chip": "ym2612"
    },
    {
      "channel": 4,
      "note": 49,
      "start": 23.4555,
      "duration": 0.1853,
      "velocity": 91,
      "chip": "ym2612"
    },
    {
      "channel": 5,
      "note": 61,
      "start": 23.4556,
      "duration": 0.1853,
      "velocity": 91,
      "chip": "ym2612"
    },
    {
      "channel": 4,
      "note": 53,
      "start": 23.6577,
      "duration": 0.1853,
      "velocity": 91,
      "chip": "ym2612"
    },
    {
      "channel": 5,
      "note": 65,
      "start": 23.6579,
      "duration": 0.1852,
      "velocity": 91,
      "chip": "ym2612"
    },
    {
      "channel": 4,
      "note": 56,
      "start": 23.86,
      "duration": 0.1853,
      "velocity": 91,
      "chip": "ym2612"
    },
    {
      "channel": 5,
      "note": 68,
      "start": 23.8602,
      "duration": 0.1856,
      "velocity": 91,
      "chip": "ym2612"
    },
    {
      "channel": 4,
      "note": 55,
      "start": 24.0629,
      "duration": 0.1846,
      "velocity": 91,
      "chip": "ym2612"
    },
    {
      "channel": 5,
      "note": 67,
      "start": 24.0631,
      "duration": 0.1846,
      "velocity": 91,
      "chip": "ym2612"
    },
    {
      "channel": 1,
      "note": 110,
      "start": 24.2644,
      "duration": 0.0842,
      "velocity": 97,
      "chip": "ym2612"
    },
    {
      "channel": 3,
      "note": 33,
      "start": 24.2647,
      "duration": 0.708,
      "velocity": 127,
      "chip": "ym2612"
    },
    {
      "channel": 4,
      "note": 80,
      "start": 24.2663,
      "duration": 0.1835,
      "velocity": 127,
      "chip": "ym2612"
    },
    {
      "channel": 1,
      "note": 115,
      "start": 24.3656,
      "duration": 0.0842,
      "velocity": 97,
      "chip": "ym2612"
    },
    {
      "channel": 1,
      "note": 110,
      "start": 24.4667,
      "duration": 0.0841,
      "velocity": 97,
      "chip": "ym2612"
    },
    {
      "channel": 2,
      "note": 107,
      "start": 24.4669,
      "duration": 0.0841,
      "velocity": 97,
      "chip": "ym2612"
    },
    {
      "channel": 4,
      "note": 80,
      "start": 24.467,
      "duration": 0.1852,
      "velocity": 127,
      "chip": "ym2612"
    },
    {
      "channel": 1,
      "note": 115,
      "start": 24.5678,
      "duration": 0.0841,
      "velocity": 97,
      "chip": "ym2612"
    },
    {
      "channel": 2,
      "note": 112,
      "start": 24.568,
      "duration": 0.0841,
      "velocity": 97,
      "chip": "ym2612"
    },
    {
      "channel": 1,
      "note": 110,
      "start": 24.6689,
      "duration": 0.0842,
      "velocity": 97,
      "chip": "ym2612"
    },
    {
      "channel": 2,
      "note": 107,
      "start": 24.6691,
      "duration": 0.0841,
      "velocity": 97,
      "chip": "ym2612"
    },
    {
      "channel": 4,
      "note": 80,
      "start": 24.6707,
      "duration": 0.3521,
      "velocity": 127,
      "chip": "ym2612"
    },
    {
      "channel": 1,
      "note": 115,
      "start": 24.77,
      "duration": 0.0842,
      "velocity": 97,
      "chip": "ym2612"
    },
    {
      "channel": 2,
      "note": 112,
      "start": 24.7702,
      "duration": 0.0842,
      "velocity": 97,
      "chip": "ym2612"
    },
    {
      "channel": 1,
      "note": 110,
      "start": 24.8712,
      "duration": 0.0842,
      "velocity": 97,
      "chip": "ym2612"
    },
    {
      "channel": 2,
      "note": 107,
      "start": 24.8714,
      "duration": 0.0841,
      "velocity": 97,
      "chip": "ym2612"
    },
    {
      "channel": 1,
      "note": 115,
      "start": 24.9723,
      "duration": 0.0842,
      "velocity": 97,
      "chip": "ym2612"
    },
    {
      "channel": 2,
      "note": 112,
      "start": 24.9725,
      "duration": 0.0842,
      "velocity": 97,
      "chip": "ym2612"
    },
    {
      "channel": 1,
      "note": 110,
      "start": 25.0734,
      "duration": 0.0841,
      "velocity": 97,
      "chip": "ym2612"
    },
    {
      "channel": 2,
      "note": 107,
      "start": 25.0736,
      "duration": 0.0841,
      "velocity": 97,
      "chip": "ym2612"
    },
    {
      "channel": 3,
      "note": 33,
      "start": 25.0737,
      "duration": 0.7078,
      "velocity": 127,
      "chip": "ym2612"
    },
    {
      "channel": 4,
      "note": 80,
      "start": 25.0754,
      "duration": 0.1837,
      "velocity": 127,
      "chip": "ym2612"
    },
    {
      "channel": 1,
      "note": 115,
      "start": 25.1745,
      "duration": 0.0842,
      "velocity": 97,
      "chip": "ym2612"
    },
    {
      "channel": 2,
      "note": 112,
      "start": 25.1747,
      "duration": 0.0842,
      "velocity": 97,
      "chip": "ym2612"
    },
    {
      "channel": 1,
      "note": 110,
      "start": 25.2756,
      "duration": 0.0842,
      "velocity": 97,
      "chip": "ym2612"
    },
    {
      "channel": 2,
      "note": 107,
      "start": 25.2758,
      "duration": 0.0842,
      "velocity": 97,
      "chip": "ym2612"
    },
    {
      "channel": 4,
      "note": 80,
      "start": 25.2759,
      "duration": 0.1853,
      "velocity": 127,
      "chip": "ym2612"
    },
    {
      "channel": 1,
      "note": 115,
      "start": 25.3768,
      "duration": 0.0842,
      "velocity": 97,
      "chip": "ym2612"
    },
    {
      "channel": 2,
      "note": 112,
      "start": 25.377,
      "duration": 0.0841,
      "velocity": 97,
      "chip": "ym2612"
    },
    {
      "channel": 1,
      "note": 110,
      "start": 25.4779,
      "duration": 0.0847,
      "velocity": 97,
      "chip": "ym2612"
    },
    {
      "channel": 2,
      "note": 107,
      "start": 25.4781,
      "duration": 0.0847,
      "velocity": 97,
      "chip": "ym2612"
    },
    {
      "channel": 4,
      "note": 80,
      "start": 25.4801,
      "duration": 0.3517,
      "velocity": 127,
      "chip": "ym2612"
    },
    {
      "channel": 1,
      "note": 115,
      "start": 25.5794,
      "duration": 0.0839,
      "velocity": 97,
      "chip": "ym2612"
    },
    {
      "channel": 2,
      "note": 112,
      "start": 25.5796,
      "duration": 0.0838,
      "velocity": 97,
      "chip": "ym2612"
    },
    {
      "channel": 1,
      "note": 110,
      "start": 25.6801,
      "duration": 0.0841,
      "velocity": 97,
      "chip": "ym2612"
    },
    {
      "channel": 2,
      "note": 107,
      "start": 25.6803,
      "duration": 0.0841,
      "velocity": 97,
      "chip": "ym2612"
    },
    {
      "channel": 1,
      "note": 115,
      "start": 25.7813,
      "duration": 4.7526,
      "velocity": 97,
      "chip": "ym2612"
    },
    {
      "channel": 2,
      "note": 112,
      "start": 25.7814,
      "duration": 0.084,
      "velocity": 97,
      "chip": "ym2612"
    },
    {
      "channel": 2,
      "note": 107,
      "start": 25.8824,
      "duration": 0.0842,
      "velocity": 97,
      "chip": "ym2612"
    },
    {
      "channel": 3,
      "note": 33,
      "start": 25.8825,
      "duration": 0.7077,
      "velocity": 127,
      "chip": "ym2612"
    },
    {
      "channel": 4,
      "note": 49,
      "start": 25.8841,
      "duration": 0.1836,
      "velocity": 91,
      "chip": "ym2612"
    },
    {
      "channel": 5,
      "note": 61,
      "start": 25.8843,
      "duration": 0.1835,
      "velocity": 91,
      "chip": "ym2612"
    },
    {
      "channel": 2,
      "note": 112,
      "start": 25.9835,
      "duration": 4.7527,
      "velocity": 97,
      "chip": "ym2612"
    },
    {
      "channel": 4,
      "note": 49,
      "start": 26.0846,
      "duration": 0.1854,
      "velocity": 91,
      "chip": "ym2612"
    },
    {
      "channel": 5,
      "note": 61,
      "start": 26.0847,
      "duration": 0.1854,
      "velocity": 91,
      "chip": "ym2612"
    },
    {
      "channel": 4,
      "note": 49,
      "start": 26.2869,
      "duration": 0.1853,
      "velocity": 91,
      "chip": "ym2612"
    },
    {
      "channel": 5,
      "note": 61,
      "start": 26.287,
      "duration": 0.1853,
      "velocity": 91,
      "chip": "ym2612"
    },
    {
      "channel": 4,
      "note": 49,
      "start": 26.4891,
      "duration": 0.1854,
      "velocity": 91,
      "chip": "ym2612"
    },
    {
      "channel": 5,
      "note": 61,
      "start": 26.4892,
      "duration": 0.1854,
      "velocity": 91,
      "chip": "ym2612"
    },
    {
      "channel": 3,
      "note": 33,
      "start": 26.6913,
      "duration": 0.7079,
      "velocity": 127,
      "chip": "ym2612"
    },
    {
      "channel": 4,
      "note": 49,
      "start": 26.6914,
      "duration": 0.1853,
      "velocity": 91,
      "chip": "ym2612"
    },
    {
      "channel": 5,
      "note": 61,
      "start": 26.6915,
      "duration": 0.1853,
      "velocity": 91,
      "chip": "ym2612"
    },
    {
      "channel": 4,
      "note": 53,
      "start": 26.8936,
      "duration": 0.1857,
      "velocity": 91,
      "chip": "ym2612"
    },
    {
      "channel": 5,
      "note": 65,
      "start": 26.8938,
      "duration": 0.1857,
      "velocity": 91,
      "chip": "ym2612"
    },
    {
      "channel": 4,
      "note": 56,
      "start": 27.0961,
      "duration": 0.1851,
      "velocity": 91,
      "chip": "ym2612"
    },
    {
      "channel": 5,
      "note": 68,
      "start": 27.0963,
      "duration": 0.1851,
      "velocity": 91,
      "chip": "ym2612"
    },
    {
      "channel": 4,
      "note": 55,
      "start": 27.2981,
      "duration": 0.1854,
      "velocity": 91,
      "chip": "ym2612"
    },
    {
      "channel": 5,
      "note": 67,
      "start": 27.2983,
      "duration": 0.1853,
      "velocity": 91,
      "chip": "ym2612"
    },
    {
      "channel": 3,
      "note": 64,
      "start": 27.5018,
      "duration": 0.0828,
      "velocity": 127,
      "chip": "ym2612"
    },
    {
      "channel": 4,
      "note": 80,
      "start": 27.5035,
      "duration": 0.1823,
      "velocity": 127,
      "chip": "ym2612"
    },
    {
      "channel": 3,
      "note": 64,
      "start": 27.6014,
      "duration": 0.0843,
      "velocity": 127,
      "chip": "ym2612"
    },
    {
      "channel": 3,
      "note": 61,
      "start": 27.7026,
      "duration": 0.0842,
      "velocity": 127,
      "chip": "ym2612"
    },
    {
      "channel": 4,
      "note": 80,
      "start": 27.7027,
      "duration": 0.1853,
      "velocity": 127,
      "chip": "ym2612"
    },
    {
      "channel": 3,
      "note": 61,
      "start": 27.8036,
      "duration": 0.0843,
      "velocity": 127,
      "chip": "ym2612"
    },
    {
      "channel": 3,
      "note": 57,
      "start": 27.9049,
      "duration": 0.1852,
      "velocity": 127,
      "chip": "ym2612"
    },
    {
      "channel": 4,
      "note": 80,
      "start": 27.9064,
      "duration": 0.3522,
      "velocity": 127,
      "chip": "ym2612"
    },
    {
      "channel": 3,
      "note": 57,
      "start": 28.107,
      "duration": 0.1854,
      "velocity": 127,
      "chip": "ym2612"
    },
    {
      "channel": 3,
      "note": 64,
      "start": 28.3093,
      "duration": 0.0841,
      "velocity": 127,
      "chip": "ym2612"
    },
    {
      "channel": 4,
      "note": 80,
      "start": 28.311,
      "duration": 0.1838,
      "velocity": 127,
      "chip": "ym2612"
    },
    {
      "channel": 3,
      "note": 64,
      "start": 28.4103,
      "duration": 0.0843,
      "velocity": 127,
      "chip": "ym2612"
    },
    {
      "channel": 3,
      "note": 61,
      "start": 28.5115,
      "duration": 0.0845,
      "velocity": 127,
      "chip": "ym2612"
    },
    {
      "channel": 4,
      "note": 80,
      "start": 28.5116,
      "duration": 0.1853,
      "velocity": 127,
      "chip": "ym2612"
    },
    {
      "channel": 3,
      "note": 61,
      "start": 28.6127,
      "duration": 0.0841,
      "velocity": 127,
      "chip": "ym2612"
    },
    {
      "channel": 3,
      "note": 57,
      "start": 28.7139,
      "duration": 0.1853,
      "velocity": 127,
      "chip": "ym2612"
    },
    {
      "channel": 4,
      "note": 80,
      "start": 28.7154,
      "duration": 0.3522,
      "velocity": 127,
      "chip": "ym2612"
    },
    {
      "channel": 3,
      "note": 57,
      "start": 28.9159,
      "duration": 0.1854,
      "velocity": 127,
      "chip": "ym2612"
    },
    {
      "channel": 3,
      "note": 33,
      "start": 29.1198,
      "duration": 0.7062,
      "velocity": 127,
      "chip": "ym2612"
    },
    {
      "channel": 4,
      "note": 49,
      "start": 29.1214,
      "duration": 0.1822,
      "velocity": 91,
      "chip": "ym2612"
    },
    {
      "channel": 5,
      "note": 61,
      "start": 29.1216,
      "duration": 0.1821,
      "velocity": 91,
      "chip": "ym2612"
    },
    {
      "channel": 4,
      "note": 49,
      "start": 29.3204,
      "duration": 0.1854,
      "velocity": 91,
      "chip": "ym2612"
    },
    {
      "channel": 5,
      "note": 61,
      "start": 29.3205,
      "duration": 0.1854,
      "velocity": 91,
      "chip": "ym2612"
    },
    {
      "channel": 4,
      "note": 49,
      "start": 29.5227,
      "duration": 0.1854,
      "velocity": 91,
      "chip": "ym2612"
    },
    {
      "channel": 5,
      "note": 61,
      "start": 29.5228,
      "duration": 0.1854,
      "velocity": 91,
      "chip": "ym2612"
    },
    {
      "channel": 4,
      "note": 49,
      "start": 29.7249,
      "duration": 0.1854,
      "velocity": 91,
      "chip": "ym2612"
    },
    {
      "channel": 5,
      "note": 61,
      "start": 29.725,
      "duration": 0.1854,
      "velocity": 91,
      "chip": "ym2612"
    },
    {
      "channel": 3,
      "note": 33,
      "start": 29.9271,
      "duration": 0.7078,
      "velocity": 127,
      "chip": "ym2612"
    },
    {
      "channel": 4,
      "note": 49,
      "start": 29.9273,
      "duration": 0.1854,
      "velocity": 91,
      "chip": "ym2612"
    },
    {
      "channel": 5,
      "note": 61,
      "start": 29.9274,
      "duration": 0.1854,
      "velocity": 91,
      "chip": "ym2612"
    },
    {
      "channel": 4,
      "note": 53,
      "start": 30.1295,
      "duration": 0.1853,
      "velocity": 91,
      "chip": "ym2612"
    },
    {
      "channel": 5,
      "note": 65,
      "start": 30.1297,
      "duration": 0.1852,
      "velocity": 91,
      "chip": "ym2612"
    },
    {
      "channel": 4,
      "note": 56,
      "start": 30.3317,
      "duration": 0.1853,
      "velocity": 91,
      "chip": "ym2612"
    },
    {
      "channel": 5,
      "note": 68,
      "start": 30.3319,
      "duration": 0.1853,
      "velocity": 91,
      "chip": "ym2612"
    },
    {
      "channel": 4,
      "note": 55,
      "start": 30.5341,
      "duration": 0.1851,
      "velocity": 91,
      "chip": "ym2612"
    },
    {
      "channel": 5,
      "note": 67,
      "start": 30.5343,
      "duration": 0.1851,
      "velocity": 91,
      "chip": "ym2612"
    },
    {
      "channel": 1,
      "note": 82,
      "start": 30.7362,
      "duration": 0.0842,
      "velocity": 97,
      "chip": "ym2612"
    },
    {
      "channel": 3,
      "note": 33,
      "start": 30.7364,
      "duration": 0.7079,
      "velocity": 127,
      "chip": "ym2612"
    },
    {
      "channel": 4,
      "note": 80,
      "start": 30.7381,
      "duration": 0.1835,
      "velocity": 127,
      "chip": "ym2612"
    },
    {
      "channel": 1,
      "note": 86,
      "start": 30.8373,
      "duration": 0.0841,
      "velocity": 97,
      "chip": "ym2612"
    },
    {
      "channel": 1,
      "note": 89,
      "start": 30.9384,
      "duration": 0.0842,
      "velocity": 97,
      "chip": "ym2612"
    },
    {
      "channel": 2,
      "note": 79,
      "start": 30.9385,
      "duration": 0.0842,
      "velocity": 97,
      "chip": "ym2612"
    },
    {
      "channel": 4,
      "note": 80,
      "start": 30.9387,
      "duration": 0.1853,
      "velocity": 127,
      "chip": "ym2612"
    },
    {
      "channel": 1,
      "note": 94,
      "start": 31.0395,
      "duration": 0.0842,
      "velocity": 97,
      "chip": "ym2612"
    },
    {
      "channel": 2,
      "note": 83,
      "start": 31.0397,
      "duration": 0.0842,
      "velocity": 97,
      "chip": "ym2612"
    },
    {
      "channel": 1,
      "note": 98,
      "start": 31.1406,
      "duration": 0.0842,
      "velocity": 97,
      "chip": "ym2612"
    },
    {
      "channel": 2,
      "note": 86,
      "start": 31.1408,
      "duration": 0.0842,
      "velocity": 97,
      "chip": "ym2612"
    },
    {
      "channel": 4,
      "note": 80,
      "start": 31.1424,
      "duration": 0.3522,
      "velocity": 127,
      "chip": "ym2612"
    },
    {
      "channel": 1,
      "note": 101,
      "start": 31.2418,
      "duration": 0.0842,
      "velocity": 97,
      "chip": "ym2612"
    },
    {
      "channel": 2,
      "note": 91,
      "start": 31.242,
      "duration": 0.0841,
      "velocity": 97,
      "chip": "ym2612"
    },
    {
      "channel": 1,
      "note": 106,
      "start": 31.3429,
      "duration": 0.0842,
      "velocity": 97,
      "chip": "ym2612"
    },
    {
      "channel": 2,
      "note": 95,
      "start": 31.343,
      "duration": 0.0842,
      "velocity": 97,
      "chip": "ym2612"
    },
    {
      "channel": 1,
      "note": 110,
      "start": 31.444,
      "duration": 0.0842,
      "velocity": 97,
      "chip": "ym2612"
    },
    {
      "channel": 2,
      "note": 98,
      "start": 31.4442,
      "duration": 0.0841,
      "velocity": 97,
      "chip": "ym2612"
    },
    {
      "channel": 1,
      "note": 106,
      "start": 31.5451,
      "duration": 0.0841,
      "velocity": 97,
      "chip": "ym2612"
    },
    {
      "channel": 2,
      "note": 103,
      "start": 31.5453,
      "duration": 0.0841,
      "velocity": 97,
      "chip": "ym2612"
    },
    {
      "channel": 3,
      "note": 33,
      "start": 31.5458,
      "duration": 0.7075,
      "velocity": 127,
      "chip": "ym2612"
    },
    {
      "channel": 4,
      "note": 80,
      "start": 31.5474,
      "duration": 0.1833,
      "velocity": 127,
      "chip": "ym2612"
    },
    {
      "channel": 1,
      "note": 110,
      "start": 31.6462,
      "duration": 0.0842,
      "velocity": 97,
      "chip": "ym2612"
    },
    {
      "channel": 2,
      "note": 107,
      "start": 31.6464,
      "duration": 0.0841,
      "velocity": 97,
      "chip": "ym2612"
    },
    {
      "channel": 1,
      "note": 101,
      "start": 31.7474,
      "duration": 0.0842,
      "velocity": 97,
      "chip": "ym2612"
    },
    {
      "channel": 2,
      "note": 103,
      "start": 31.7476,
      "duration": 0.0842,
      "velocity": 97,
      "chip": "ym2612"
    },
    {
      "channel": 4,
      "note": 80,
      "start": 31.7478,
      "duration": 0.1852,
      "velocity": 127,
      "chip": "ym2612"
    },
    {
      "channel": 1,
      "note": 110,
      "start": 31.8485,
      "duration": 0.0842,
      "velocity": 97,
      "chip": "ym2612"
    },
    {
      "channel": 2,
      "note": 107,
      "start": 31.8486,
      "duration": 0.0842,
      "velocity": 97,
      "chip": "ym2612"
    },
    {
      "channel": 1,
      "note": 98,
      "start": 31.9497,
      "duration": 0.0841,
      "velocity": 97,
      "chip": "ym2612"
    },
    {
      "channel": 2,
      "note": 98,
      "start": 31.9498,
      "duration": 0.084,
      "velocity": 97,
      "chip": "ym2612"
    },
    {
      "channel": 4,
      "note": 80,
      "start": 31.9515,
      "duration": 0.3521,
      "velocity": 127,
      "chip": "ym2612"
    },
    {
      "channel": 1,
      "note": 110,
      "start": 32.0507,
      "duration": 0.0841,
      "velocity": 97,
      "chip": "ym2612"
    },
    {
      "channel": 2,
      "note": 107,
      "start": 32.0509,
      "duration": 0.0841,
      "velocity": 97,
      "chip": "ym2612"
    },
    {
      "channel": 1,
      "note": 94,
      "start": 32.1518,
      "duration": 0.0842,
      "velocity": 97,
      "chip": "ym2612"
    },
    {
      "channel": 2,
      "note": 95,
      "start": 32.152,
      "duration": 0.0841,
      "velocity": 97,
      "chip": "ym2612"
    },
    {
      "channel": 1,
      "note": 110,
      "start": 32.253,
      "duration": 4.7526,
      "velocity": 97,
      "chip": "ym2612"
    },
    {
      "channel": 2,
      "note": 107,
      "start": 32.2532,
      "duration": 0.084,
      "velocity": 97,
      "chip": "ym2612"
    },
    {
      "channel": 2,
      "note": 91,
      "start": 32.3541,
      "duration": 0.0842,
      "velocity": 97,
      "chip": "ym2612"
    },
    {
      "channel": 3,
      "note": 33,
      "start": 32.3542,
      "duration": 0.7077,
      "velocity": 127,
      "chip": "ym2612"
    },
    {
      "channel": 4,
      "note": 49,
      "start": 32.3559,
      "duration": 0.1836,
      "velocity": 91,
      "chip": "ym2612"
    },
    {
      "channel": 5,
      "note": 61,
      "start": 32.3561,
      "duration": 0.1835,
      "velocity": 91,
      "chip": "ym2612"
    },
    {
      "channel": 2,
      "note": 107,
      "start": 32.4552,
      "duration": 4.7527,
      "velocity": 97,
      "chip": "ym2612"
    },
    {
      "channel": 4,
      "note": 49,
      "start": 32.5563,
      "duration": 0.1854,
      "velocity": 91,
      "chip": "ym2612"
    },
    {
      "channel": 5,
      "note": 61,
      "start": 32.5564,
      "duration": 0.1854,
      "velocity": 91,
      "chip": "ym2612"
    },
    {
      "channel": 4,
      "note": 49,
      "start": 32.7586,
      "duration": 0.1854,
      "velocity": 91,
      "chip": "ym2612"
    },
    {
      "channel": 5,
      "note": 61,
      "start": 32.7587,
      "duration": 0.1854,
      "velocity": 91,
      "chip": "ym2612"
    },
    {
      "channel": 4,
      "note": 49,
      "start": 32.9608,
      "duration": 0.1854,
      "velocity": 91,
      "chip": "ym2612"
    },
    {
      "channel": 5,
      "note": 61,
      "start": 32.9609,
      "duration": 0.1854,
      "velocity": 91,
      "chip": "ym2612"
    },
    {
      "channel": 3,
      "note": 33,
      "start": 33.1631,
      "duration": 0.7078,
      "velocity": 127,
      "chip": "ym2612"
    },
    {
      "channel": 4,
      "note": 49,
      "start": 33.1632,
      "duration": 0.1852,
      "velocity": 91,
      "chip": "ym2612"
    },
    {
      "channel": 5,
      "note": 61,
      "start": 33.1633,
      "duration": 0.1852,
      "velocity": 91,
      "chip": "ym2612"
    },
    {
      "channel": 4,
      "note": 53,
      "start": 33.3653,
      "duration": 0.1854,
      "velocity": 91,
      "chip": "ym2612"
    },
    {
      "channel": 5,
      "note": 65,
      "start": 33.3655,
      "duration": 0.1853,
      "velocity": 91,
      "chip": "ym2612"
    },
    {
      "channel": 4,
      "note": 56,
      "start": 33.5676,
      "duration": 0.1852,
      "velocity": 91,
      "chip": "ym2612"
    },
    {
      "channel": 5,
      "note": 68,
      "start": 33.5678,
      "duration": 0.1852,
      "velocity": 91,
      "chip": "ym2612"
    },
    {
      "channel": 4,
      "note": 55,
      "start": 33.7698,
      "duration": 0.1854,
      "velocity": 91,
      "chip": "ym2612"
    },
    {
      "channel": 5,
      "note": 67,
      "start": 33.77,
      "duration": 0.1853,
      "velocity": 91,
      "chip": "ym2612"
    },
    {
      "channel": 3,
      "note": 33,
      "start": 33.972,
      "duration": 0.118,
      "velocity": 127,
      "chip": "ym2612"
    },
    {
      "channel": 4,
      "note": 80,
      "start": 33.9737,
      "duration": 0.1837,
      "velocity": 127,
      "chip": "ym2612"
    },
    {
      "channel": 3,
      "note": 33,
      "start": 34.1068,
      "duration": 0.118,
      "velocity": 127,
      "chip": "ym2612"
    },
    {
      "channel": 4,
      "note": 80,
      "start": 34.1743,
      "duration": 0.1855,
      "velocity": 127,
      "chip": "ym2612"
    },
    {
      "channel": 3,
      "note": 33,
      "start": 34.2417,
      "duration": 0.118,
      "velocity": 127,
      "chip": "ym2612"
    },
    {
      "channel": 3,
      "note": 33,
      "start": 34.3764,
      "duration": 0.3539,
      "velocity": 127,
      "chip": "ym2612"
    },
    {
      "channel": 4,
      "note": 80,
      "start": 34.378,
      "duration": 0.3525,
      "velocity": 127,
      "chip": "ym2612"
    },
    {
      "channel": 3,
      "note": 33,
      "start": 34.781,
      "duration": 0.1179,
      "velocity": 127,
      "chip": "ym2612"
    },
    {
      "channel": 4,
      "note": 80,
      "start": 34.7826,
      "duration": 0.1837,
      "velocity": 127,
      "chip": "ym2612"
    },
    {
      "channel": 3,
      "note": 33,
      "start": 34.9158,
      "duration": 0.118,
      "velocity": 127,
      "chip": "ym2612"
    },
    {
      "channel": 4,
      "note": 80,
      "start": 34.9832,
      "duration": 0.1855,
      "velocity": 127,
      "chip": "ym2612"
    },
    {
      "channel": 3,
      "note": 33,
      "start": 35.0506,
      "duration": 0.118,
      "velocity": 127,
      "chip": "ym2612"
    },
    {
      "channel": 3,
      "note": 33,
      "start": 35.1854,
      "duration": 0.3539,
      "velocity": 127,
      "chip": "ym2612"
    },
    {
      "channel": 4,
      "note": 80,
      "start": 35.187,
      "duration": 0.3525,
      "velocity": 127,
      "chip": "ym2612"
    },
    {
      "channel": 3,
      "note": 33,
      "start": 35.5899,
      "duration": 0.7078,
      "velocity": 127,
      "chip": "ym2612"
    },
    {
      "channel": 4,
      "note": 49,
      "start": 35.5916,
      "duration": 0.1837,
      "velocity": 91,
      "chip": "ym2612"
    },
    {
      "channel": 5,
      "note": 61,
      "start": 35.5918,
      "duration": 0.1837,
      "velocity": 91,
      "chip": "ym2612"
    },
    {
      "channel": 4,
      "note": 49,
      "start": 35.7922,
      "duration": 0.1853,
      "velocity": 91,
      "chip": "ym2612"
    },
    {
      "channel": 5,
      "note": 61,
      "start": 35.7923,
      "duration": 0.1853,
      "velocity": 91,
      "chip": "ym2612"
    },
    {
      "channel": 4,
      "note": 49,
      "start": 35.9944,
      "duration": 0.1854,
      "velocity": 91,
      "chip": "ym2612"
    },
    {
      "channel": 5,
      "note": 61,
      "start": 35.9945,
      "duration": 0.1854,
      "velocity": 91,
      "chip": "ym2612"
    },
    {
      "channel": 4,
      "note": 49,
      "start": 36.1966,
      "duration": 0.1854,
      "velocity": 91,
      "chip": "ym2612"
    },
    {
      "channel": 5,
      "note": 61,
      "start": 36.1967,
      "duration": 0.1854,
      "velocity": 91,
      "chip": "ym2612"
    },
    {
      "channel": 3,
      "note": 33,
      "start": 36.3989,
      "duration": 0.7078,
      "velocity": 127,
      "chip": "ym2612"
    },
    {
      "channel": 4,
      "note": 49,
      "start": 36.399,
      "duration": 0.1852,
      "velocity": 91,
      "chip": "ym2612"
    },
    {
      "channel": 5,
      "note": 61,
      "start": 36.3992,
      "duration": 0.1852,
      "velocity": 91,
      "chip": "ym2612"
    },
    {
      "channel": 4,
      "note": 53,
      "start": 36.6012,
      "duration": 0.1853,
      "velocity": 91,
      "chip": "ym2612"
    },
    {
      "channel": 5,
      "note": 65,
      "start": 36.6014,
      "duration": 0.1852,
      "velocity": 91,
      "chip": "ym2612"
    },
    {
      "channel": 4,
      "note": 56,
      "start": 36.8034,
      "duration": 0.1853,
      "velocity": 91,
      "chip": "ym2612"
    },
    {
      "channel": 5,
      "note": 68,
      "start": 36.8036,
      "duration": 0.1852,
      "velocity": 91,
      "chip": "ym2612"
    },
    {
      "channel": 4,
      "note": 55,
      "start": 37.0058,
      "duration": 0.1852,
      "velocity": 91,
      "chip": "ym2612"
    },
    {
      "channel": 5,
      "note": 67,
      "start": 37.006,
      "duration": 0.1851,
      "velocity": 91,
      "chip": "ym2612"
    },
    {
      "channel": 3,
      "note": 33,
      "start": 37.208,
      "duration": 0.7077,
      "velocity": 127,
      "chip": "ym2612"
    },
    {
      "channel": 4,
      "note": 80,
      "start": 37.2097,
      "duration": 0.1835,
      "velocity": 127,
      "chip": "ym2612"
    },
    {
      "channel": 4,
      "note": 80,
      "start": 37.4101,
      "duration": 0.1859,
      "velocity": 127,
      "chip": "ym2612"
    },
    {
      "channel": 1,
      "note": 91,
      "start": 37.6127,
      "duration": 0.185,
      "velocity": 97,
      "chip": "ym2612"
    },
    {
      "channel": 4,
      "note": 80,
      "start": 37.6143,
      "duration": 0.352,
      "velocity": 127,
      "chip": "ym2612"
    },
    {
      "channel": 1,
      "note": 90,
      "start": 37.8146,
      "duration": 0.1854,
      "velocity": 97,
      "chip": "ym2612"
    },
    {
      "channel": 2,
      "note": 88,
      "start": 37.8149,
      "duration": 0.1852,
      "velocity": 97,
      "chip": "ym2612"
    },
    {
      "channel": 1,
      "note": 88,
      "start": 38.0168,
      "duration": 2.2246,
      "velocity": 97,
      "chip": "ym2612"
    },
    {
      "channel": 2,
      "note": 87,
      "start": 38.017,
      "duration": 0.1852,
      "velocity": 97,
      "chip": "ym2612"
    },
    {
      "channel": 3,
      "note": 33,
      "start": 38.0172,
      "duration": 0.7075,
      "velocity": 127,
      "chip": "ym2612"
    },
    {
      "channel": 4,
      "note": 80,
      "start": 38.0188,
      "duration": 0.1836,
      "velocity": 127,
      "chip": "ym2612"
    },
    {
      "channel": 2,
      "note": 86,
      "start": 38.2191,
      "duration": 2.2247,
      "velocity": 97,
      "chip": "ym2612"
    },
    {
      "channel": 4,
      "note": 80,
      "start": 38.2193,
      "duration": 0.1852,
      "velocity": 127,
      "chip": "ym2612"
    },
    {
      "channel": 4,
      "note": 80,
      "start": 38.4228,
      "duration": 0.3524,
      "velocity": 127,
      "chip": "ym2612"
    },
    {
      "channel": 3,
      "note": 33,
      "start": 38.8258,
      "duration": 0.7078,
      "velocity": 127,
      "chip": "ym2612"
    },
    {
      "channel": 4,
      "note": 49,
      "start": 38.8274,
      "duration": 0.1838,
      "velocity": 91,
      "chip": "ym2612"
    },
    {
      "channel": 5,
      "note": 61,
      "start": 38.8276,
      "duration": 0.1837,
      "velocity": 91,
      "chip": "ym2612"
    },
    {
      "channel": 4,
      "note": 49,
      "start": 39.028,
      "duration": 0.1854,
      "velocity": 91,
      "chip": "ym2612"
    },
    {
      "channel": 5,
      "note": 61,
      "start": 39.0282,
      "duration": 0.1854,
      "velocity": 91,
      "chip": "ym2612"
    },
    {
      "channel": 4,
      "note": 49,
      "start": 39.2302,
      "duration": 0.1854,
      "velocity": 91,
      "chip": "ym2612"
    },
    {
      "channel": 5,
      "note": 61,
      "start": 39.2304,
      "duration": 0.1854,
      "velocity": 91,
      "chip": "ym2612"
    },
    {
      "channel": 4,
      "note": 49,
      "start": 39.4325,
      "duration": 0.1854,
      "velocity": 91,
      "chip": "ym2612"
    },
    {
      "channel": 5,
      "note": 61,
      "start": 39.4327,
      "duration": 0.1854,
      "velocity": 91,
      "chip": "ym2612"
    },
    {
      "channel": 3,
      "note": 33,
      "start": 39.6348,
      "duration": 0.7078,
      "velocity": 127,
      "chip": "ym2612"
    },
    {
      "channel": 4,
      "note": 49,
      "start": 39.6349,
      "duration": 0.1852,
      "velocity": 91,
      "chip": "ym2612"
    },
    {
      "channel": 5,
      "note": 61,
      "start": 39.635,
      "duration": 0.1852,
      "velocity": 91,
      "chip": "ym2612"
    },
    {
      "channel": 4,
      "note": 53,
      "start": 39.8371,
      "duration": 0.1853,
      "velocity": 91,
      "chip": "ym2612"
    },
    {
      "channel": 5,
      "note": 65,
      "start": 39.8373,
      "duration": 0.1852,
      "velocity": 91,
      "chip": "ym2612"
    },
    {
      "channel": 4,
      "note": 56,
      "start": 40.0393,
      "duration": 0.1853,
      "velocity": 91,
      "chip": "ym2612"
    },
    {
      "channel": 5,
      "note": 68,
      "start": 40.0395,
      "duration": 0.1852,
      "velocity": 91,
      "chip": "ym2612"
    },
    {
      "channel": 4,
      "note": 55,
      "start": 40.2417,
      "duration": 0.1852,
      "velocity": 91,
      "chip": "ym2612"
    },
    {
      "channel": 5,
      "note": 67,
      "start": 40.2419,
      "duration": 0.1851,
      "velocity": 91,
      "chip": "ym2612"
    },
    {
      "channel": 1,
      "note": 109,
      "start": 40.4437,
      "duration": 0.0842,
      "velocity": 97,
      "chip": "ym2612"
    },
    {
      "channel": 3,
      "note": 33,
      "start": 40.444,
      "duration": 0.708,
      "velocity": 127,
      "chip": "ym2612"
    },
    {
      "channel": 4,
      "note": 80,
      "start": 40.4461,
      "duration": 0.1833,
      "velocity": 127,
      "chip": "ym2612"
    },
    {
      "channel": 1,
      "note": 108,
      "start": 40.5449,
      "duration": 0.0844,
      "velocity": 97,
      "chip": "ym2612"
    },
    {
      "channel": 1,
      "note": 107,
      "start": 40.646,
      "duration": 0.0841,
      "velocity": 97,
      "chip": "ym2612"
    },
    {
      "channel": 2,
      "note": 106,
      "start": 40.6462,
      "duration": 0.084,
      "velocity": 97,
      "chip": "ym2612"
    },
    {
      "channel": 4,
      "note": 80,
      "start": 40.6464,
      "duration": 0.1851,
      "velocity": 127,
      "chip": "ym2612"
    },
    {
      "channel": 1,
      "note": 106,
      "start": 40.7471,
      "duration": 0.0841,
      "velocity": 97,
      "chip": "ym2612"
    },
    {
      "channel": 2,
      "note": 105,
      "start": 40.7473,
      "duration": 0.0841,
      "velocity": 97,
      "chip": "ym2612"
    },
    {
      "channel": 1,
      "note": 105,
      "start": 40.8483,
      "duration": 0.0842,
      "velocity": 97,
      "chip": "ym2612"
    },
    {
      "channel": 2,
      "note": 104,
      "start": 40.8485,
      "duration": 0.0841,
      "velocity": 97,
      "chip": "ym2612"
    },
    {
      "channel": 4,
      "note": 80,
      "start": 40.85,
      "duration": 0.3521,
      "velocity": 127,
      "chip": "ym2612"
    },
    {
      "channel": 1,
      "note": 104,
      "start": 40.9493,
      "duration": 0.0842,
      "velocity": 97,
      "chip": "ym2612"
    },
    {
      "channel": 2,
      "note": 103,
      "start": 40.9495,
      "duration": 0.0842,
      "velocity": 97,
      "chip": "ym2612"
    },
    {
      "channel": 1,
      "note": 103,
      "start": 41.0505,
      "duration": 0.0841,
      "velocity": 97,
      "chip": "ym2612"
    },
    {
      "channel": 2,
      "note": 102,
      "start": 41.0507,
      "duration": 0.0841,
      "velocity": 97,
      "chip": "ym2612"
    },
    {
      "channel": 1,
      "note": 102,
      "start": 41.1516,
      "duration": 0.0842,
      "velocity": 97,
      "chip": "ym2612"
    },
    {
      "channel": 2,
      "note": 101,
      "start": 41.1518,
      "duration": 0.0841,
      "velocity": 97,
      "chip": "ym2612"
    },
    {
      "channel": 1,
      "note": 101,
      "start": 41.2528,
      "duration": 0.0841,
      "velocity": 97,
      "chip": "ym2612"
    },
    {
      "channel": 2,
      "note": 100,
      "start": 41.253,
      "duration": 0.084,
      "velocity": 97,
      "chip": "ym2612"
    },
    {
      "channel": 3,
      "note": 33,
      "start": 41.253,
      "duration": 0.7078,
      "velocity": 127,
      "chip": "ym2612"
    },
    {
      "channel": 4,
      "note": 80,
      "start": 41.2547,
      "duration": 0.1837,
      "velocity": 127,
      "chip": "ym2612"
    },
    {
      "channel": 1,
      "note": 100,
      "start": 41.3538,
      "duration": 0.0842,
      "velocity": 97,
      "chip": "ym2612"
    },
    {
      "channel": 2,
      "note": 99,
      "start": 41.354,
      "duration": 0.0841,
      "velocity": 97,
      "chip": "ym2612"
    },
    {
      "channel": 1,
      "note": 99,
      "start": 41.455,
      "duration": 0.0841,
      "velocity": 97,
      "chip": "ym2612"
    },
    {
      "channel": 2,
      "note": 98,
      "start": 41.4552,
      "duration": 0.0841,
      "velocity": 97,
      "chip": "ym2612"
    },
    {
      "channel": 4,
      "note": 80,
      "start": 41.4553,
      "duration": 0.1852,
      "velocity": 127,
      "chip": "ym2612"
    },
    {
      "channel": 1,
      "note": 98,
      "start": 41.5561,
      "duration": 0.0842,
      "velocity": 97,
      "chip": "ym2612"
    },
    {
      "channel": 2,
      "note": 97,
      "start": 41.5563,
      "duration": 0.0841,
      "velocity": 97,
      "chip": "ym2612"
    },
    {
      "channel": 1,
      "note": 97,
      "start": 41.6572,
      "duration": 0.0841,
      "velocity": 97,
      "chip": "ym2612"
    },
    {
      "channel": 2,
      "note": 96,
      "start": 41.6574,
      "duration": 0.0841,
      "velocity": 97,
      "chip": "ym2612"
    },
    {
      "channel": 4,
      "note": 80,
      "start": 41.659,
      "duration": 0.3521,
      "velocity": 127,
      "chip": "ym2612"
    },
    {
      "channel": 1,
      "note": 96,
      "start": 41.7583,
      "duration": 0.0842,
      "velocity": 97,
      "chip": "ym2612"
    },
    {
      "channel": 2,
      "note": 95,
      "start": 41.7585,
      "duration": 0.0841,
      "velocity": 97,
      "chip": "ym2612"
    },
    {
      "channel": 1,
      "note": 95,
      "start": 41.8595,
      "duration": 0.0842,
      "velocity": 97,
      "chip": "ym2612"
    },
    {
      "channel": 2,
      "note": 94,
      "start": 41.8597,
      "duration": 0.0841,
      "velocity": 97,
      "chip": "ym2612"
    },
    {
      "channel": 1,
      "note": 94,
      "start": 41.9605,
      "duration": 0.0841,
      "velocity": 97,
      "chip": "ym2612"
    },
    {
      "channel": 2,
      "note": 93,
      "start": 41.9607,
      "duration": 0.0841,
      "velocity": 97,
      "chip": "ym2612"
    },
    {
      "channel": 3,
      "note": 33,
      "start": 42.0617,
      "duration": 0.7078,
      "velocity": 127,
      "chip": "ym2612"
    },
    {
      "channel": 4,
      "note": 49,
      "start": 42.0637,
      "duration": 0.1833,
      "velocity": 91,
      "chip": "ym2612"
    },
    {
      "channel": 5,
      "note": 61,
      "start": 42.064,
      "duration": 0.1832,
      "velocity": 91,
      "chip": "ym2612"
    },
    {
      "channel": 4,
      "note": 49,
      "start": 42.2639,
      "duration": 0.1854,
      "velocity": 91,
      "chip": "ym2612"
    },
    {
      "channel": 5,
      "note": 61,
      "start": 42.264,
      "duration": 0.1854,
      "velocity": 91,
      "chip": "ym2612"
    },
    {
      "channel": 4,
      "note": 49,
      "start": 42.4662,
      "duration": 0.1853,
      "velocity": 91,
      "chip": "ym2612"
    },
    {
      "channel": 5,
      "note": 61,
      "start": 42.4663,
      "duration": 0.1853,
      "velocity": 91,
      "chip": "ym2612"
    },
    {
      "channel": 4,
      "note": 49,
      "start": 42.6684,
      "duration": 0.1853,
      "velocity": 91,
      "chip": "ym2612"
    },
    {
      "channel": 5,
      "note": 61,
      "start": 42.6685,
      "duration": 0.1853,
      "velocity": 91,
      "chip": "ym2612"
    },
    {
      "channel": 3,
      "note": 33,
      "start": 42.8706,
      "duration": 0.7079,
      "velocity": 127,
      "chip": "ym2612"
    },
    {
      "channel": 4,
      "note": 49,
      "start": 42.8707,
      "duration": 0.1853,
      "velocity": 91,
      "chip": "ym2612"
    },
    {
      "channel": 5,
      "note": 61,
      "start": 42.8708,
      "duration": 0.1853,
      "velocity": 91,
      "chip": "ym2612"
    },
    {
      "channel": 4,
      "note": 53,
      "start": 43.0729,
      "duration": 0.1853,
      "velocity": 91,
      "chip": "ym2612"
    },
    {
      "channel": 5,
      "note": 65,
      "start": 43.0731,
      "duration": 0.1852,
      "velocity": 91,
      "chip": "ym2612"
    },
    {
      "channel": 4,
      "note": 56,
      "start": 43.2752,
      "duration": 0.1854,
      "velocity": 91,
      "chip": "ym2612"
    },
    {
      "channel": 5,
      "note": 68,
      "start": 43.2754,
      "duration": 0.1853,
      "velocity": 91,
      "chip": "ym2612"
    },
    {
      "channel": 4,
      "note": 55,
      "start": 43.4774,
      "duration": 0.1854,
      "velocity": 91,
      "chip": "ym2612"
    },
    {
      "channel": 5,
      "note": 67,
      "start": 43.4776,
      "duration": 0.1853,
      "velocity": 91,
      "chip": "ym2612"
    },
    {
      "channel": 3,
      "note": 33,
      "start": 43.6796,
      "duration": 0.3539,
      "velocity": 127,
      "chip": "ym2612"
    },
    {
      "channel": 3,
      "note": 33,
      "start": 44.0841,
      "duration": 0.1854,
      "velocity": 127,
      "chip": "ym2612"
    },
    {
      "channel": 4,
      "note": 49,
      "start": 44.0843,
      "duration": 0.1853,
      "velocity": 91,
      "chip": "ym2612"
    },
    {
      "channel": 5,
      "note": 61,
      "start": 44.0845,
      "duration": 0.1852,
      "velocity": 91,
      "chip": "ym2612"
    },
    {
      "channel": 3,
      "note": 33,
      "start": 44.2863,
      "duration": 0.1854,
      "velocity": 127,
      "chip": "ym2612"
    },
    {
      "channel": 4,
      "note": 49,
      "start": 44.2864,
      "duration": 0.1854,
      "velocity": 91,
      "chip": "ym2612"
    },
    {
      "channel": 5,
      "note": 61,
      "start": 44.2866,
      "duration": 0.1854,
      "velocity": 91,
      "chip": "ym2612"
    },
    {
      "channel": 3,
      "note": 45,
      "start": 44.4901,
      "duration": 0.7063,
      "velocity": 127,
      "chip": "ym2612"
    },
    {
      "channel": 4,
      "note": 61,
      "start": 44.4903,
      "duration": 0.7062,
      "velocity": 91,
      "chip": "ym2612"
    },
    {
      "channel": 5,
      "note": 73,
      "start": 44.4904,
      "duration": 0.7062,
      "velocity": 91,
      "chip": "ym2612"
    },
    {
      "channel": 3,
      "note": 33,
      "start": 45.2991,
      "duration": 0.7062,
      "velocity": 127,
      "chip": "ym2612"
    },
    {
      "channel": 4,
      "note": 49,
      "start": 45.2993,
      "duration": 0.1836,
      "velocity": 91,
      "chip": "ym2612"
    },
    {
      "channel": 5,
      "note": 61,
      "start": 45.2994,
      "duration": 0.1836,
      "velocity": 91,
      "chip": "ym2612"
    },
    {
      "channel": 4,
      "note": 49,
      "start": 45.4998,
      "duration": 0.1854,
      "velocity": 91,
      "chip": "ym2612"
    },
    {
      "channel": 5,
      "note": 61,
      "start": 45.4999,
      "duration": 0.1854,
      "velocity": 91,
      "chip": "ym2612"
    },
    {
      "channel": 4,
      "note": 49,
      "start": 45.702,
      "duration": 0.1854,
      "velocity": 91,
      "chip": "ym2612"
    },
    {
      "channel": 5,
      "note": 61,
      "start": 45.7021,
      "duration": 0.1854,
      "velocity": 91,
      "chip": "ym2612"
    },
    {
      "channel": 4,
      "note": 49,
      "start": 45.9042,
      "duration": 0.1854,
      "velocity": 91,
      "chip": "ym2612"
    },
    {
      "channel": 5,
      "note": 61,
      "start": 45.9044,
      "duration": 0.1854,
      "velocity": 91,
      "chip": "ym2612"
    },
    {
      "channel": 3,
      "note": 33,
      "start": 46.1065,
      "duration": 0.7079,
      "velocity": 127,
      "chip": "ym2612"
    },
    {
      "channel": 4,
      "note": 49,
      "start": 46.1066,
      "duration": 0.1852,
      "velocity": 91,
      "chip": "ym2612"
    },
    {
      "channel": 5,
      "note": 61,
      "start": 46.1067,
      "duration": 0.1853,
      "velocity": 91,
      "chip": "ym2612"
    },
    {
      "channel": 4,
      "note": 53,
      "start": 46.3088,
      "duration": 0.1853,
      "velocity": 91,
      "chip": "ym2612"
    },
    {
      "channel": 5,
      "note": 65,
      "start": 46.309,
      "duration": 0.1853,
      "velocity": 91,
      "chip": "ym2612"
    },
    {
      "channel": 4,
      "note": 56,
      "start": 46.511,
      "duration": 0.1853,
      "velocity": 91,
      "chip": "ym2612"
    },
    {
      "channel": 5,
      "note": 68,
      "start": 46.5112,
      "duration": 0.1852,
      "velocity": 91,
      "chip": "ym2612"
    },
    {
      "channel": 4,
      "note": 55,
      "start": 46.7133,
      "duration": 0.1854,
      "velocity": 91,
      "chip": "ym2612"
    },
    {
      "channel": 5,
      "note": 67,
      "start": 46.7135,
      "duration": 0.1853,
      "velocity": 91,
      "chip": "ym2612"
    },
    {
      "channel": 1,
      "note": 109,
      "start": 46.9155,
      "duration": 0.0842,
      "velocity": 97,
      "chip": "ym2612"
    },
    {
      "channel": 3,
      "note": 33,
      "start": 46.9156,
      "duration": 0.708,
      "velocity": 127,
      "chip": "ym2612"
    },
    {
      "channel": 4,
      "note": 80,
      "start": 46.9173,
      "duration": 0.1837,
      "velocity": 127,
      "chip": "ym2612"
    },
    {
      "channel": 1,
      "note": 107,
      "start": 47.0166,
      "duration": 0.0842,
      "velocity": 97,
      "chip": "ym2612"
    },
    {
      "channel": 1,
      "note": 105,
      "start": 47.1177,
      "duration": 0.0841,
      "velocity": 97,
      "chip": "ym2612"
    },
    {
      "channel": 2,
      "note": 106,
      "start": 47.1179,
      "duration": 0.0841,
      "velocity": 97,
      "chip": "ym2612"
    },
    {
      "channel": 4,
      "note": 80,
      "start": 47.1181,
      "duration": 0.1852,
      "velocity": 127,
      "chip": "ym2612"
    },
    {
      "channel": 1,
      "note": 104,
      "start": 47.2188,
      "duration": 0.0842,
      "velocity": 97,
      "chip": "ym2612"
    },
    {
      "channel": 2,
      "note": 104,
      "start": 47.219,
      "duration": 0.0841,
      "velocity": 97,
      "chip": "ym2612"
    },
    {
      "channel": 1,
      "note": 85,
      "start": 47.32,
      "duration": 0.0842,
      "velocity": 97,
      "chip": "ym2612"
    },
    {
      "channel": 2,
      "note": 102,
      "start": 47.3201,
      "duration": 0.0842,
      "velocity": 97,
      "chip": "ym2612"
    },
    {
      "channel": 4,
      "note": 80,
      "start": 47.3217,
      "duration": 0.3521,
      "velocity": 127,
      "chip": "ym2612"
    },
    {
      "channel": 1,
      "note": 83,
      "start": 47.4211,
      "duration": 0.0842,
      "velocity": 97,
      "chip": "ym2612"
    },
    {
      "channel": 2,
      "note": 101,
      "start": 47.4213,
      "duration": 0.0841,
      "velocity": 97,
      "chip": "ym2612"
    },
    {
      "channel": 1,
      "note": 81,
      "start": 47.5222,
      "duration": 0.0842,
      "velocity": 97,
      "chip": "ym2612"
    },
    {
      "channel": 2,
      "note": 82,
      "start": 47.5224,
      "duration": 0.0841,
      "velocity": 97,
      "chip": "ym2612"
    },
    {
      "channel": 1,
      "note": 80,
      "start": 47.6233,
      "duration": 0.0842,
      "velocity": 97,
      "chip": "ym2612"
    },
    {
      "channel": 2,
      "note": 80,
      "start": 47.6235,
      "duration": 0.0842,
      "velocity": 97,
      "chip": "ym2612"
    },
    {
      "channel": 1,
      "note": 107,
      "start": 47.7245,
      "duration": 0.0842,
      "velocity": 97,
      "chip": "ym2612"
    },
    {
      "channel": 2,
      "note": 78,
      "start": 47.7247,
      "duration": 0.0841,
      "velocity": 97,
      "chip": "ym2612"
    },
    {
      "channel": 3,
      "note": 33,
      "start": 47.7248,
      "duration": 0.7078,
      "velocity": 127,
      "chip": "ym2612"
    },
    {
      "channel": 4,
      "note": 80,
      "start": 47.7264,
      "duration": 0.1836,
      "velocity": 127,
      "chip": "ym2612"
    },
    {
      "channel": 1,
      "note": 105,
      "start": 47.8256,
      "duration": 0.0842,
      "velocity": 97,
      "chip": "ym2612"
    },
    {
      "channel": 2,
      "note": 77,
      "start": 47.8257,
      "duration": 0.0842,
      "velocity": 97,
      "chip": "ym2612"
    },
    {
      "channel": 1,
      "note": 104,
      "start": 47.9266,
      "duration": 0.0842,
      "velocity": 97,
      "chip": "ym2612"
    },
    {
      "channel": 2,
      "note": 104,
      "start": 47.9268,
      "duration": 0.0841,
      "velocity": 97,
      "chip": "ym2612"
    },
    {
      "channel": 4,
      "note": 80,
      "start": 47.927,
      "duration": 0.1856,
      "velocity": 127,
      "chip": "ym2612"
    },
    {
      "channel": 1,
      "note": 102,
      "start": 48.0278,
      "duration": 0.0843,
      "velocity": 97,
      "chip": "ym2612"
    },
    {
      "channel": 2,
      "note": 102,
      "start": 48.028,
      "duration": 0.0846,
      "velocity": 97,
      "chip": "ym2612"
    },
    {
      "channel": 1,
      "note": 83,
      "start": 48.1294,
      "duration": 0.0838,
      "velocity": 97,
      "chip": "ym2612"
    },
    {
      "channel": 2,
      "note": 101,
      "start": 48.1296,
      "duration": 0.0837,
      "velocity": 97,
      "chip": "ym2612"
    },
    {
      "channel": 4,
      "note": 80,
      "start": 48.1312,
      "duration": 0.3517,
      "velocity": 127,
      "chip": "ym2612"
    },
    {
      "channel": 1,
      "note": 81,
      "start": 48.2301,
      "duration": 0.0842,
      "velocity": 97,
      "chip": "ym2612"
    },
    {
      "channel": 2,
      "note": 99,
      "start": 48.2302,
      "duration": 0.0842,
      "velocity": 97,
      "chip": "ym2612"
    },
    {
      "channel": 1,
      "note": 80,
      "start": 48.3312,
      "duration": 0.0841,
      "velocity": 97,
      "chip": "ym2612"
    },
    {
      "channel": 2,
      "note": 80,
      "start": 48.3313,
      "duration": 0.0841,
      "velocity": 97,
      "chip": "ym2612"
    },
    {
      "channel": 1,
      "note": 78,
      "start": 48.4323,
      "duration": 4.7526,
      "velocity": 97,
      "chip": "ym2612"
    },
    {
      "channel": 2,
      "note": 78,
      "start": 48.4325,
      "duration": 0.084,
      "velocity": 97,
      "chip": "ym2612"
    },
    {
      "channel": 2,
      "note": 77,
      "start": 48.5334,
      "duration": 0.0842,
      "velocity": 97,
      "chip": "ym2612"
    },
    {
      "channel": 3,
      "note": 33,
      "start": 48.5336,
      "duration": 0.7076,
      "velocity": 127,
      "chip": "ym2612"
    },
    {
      "channel": 4,
      "note": 49,
      "start": 48.5351,
      "duration": 0.1837,
      "velocity": 91,
      "chip": "ym2612"
    },
    {
      "channel": 5,
      "note": 61,
      "start": 48.5354,
      "duration": 0.1835,
      "velocity": 91,
      "chip": "ym2612"
    },
    {
      "channel": 2,
      "note": 75,
      "start": 48.6345,
      "duration": 4.7528,
      "velocity": 97,
      "chip": "ym2612"
    },
    {
      "channel": 4,
      "note": 49,
      "start": 48.7356,
      "duration": 0.1854,
      "velocity": 91,
      "chip": "ym2612"
    },
    {
      "channel": 5,
      "note": 61,
      "start": 48.7357,
      "duration": 0.1854,
      "velocity": 91,
      "chip": "ym2612"
    },
    {
      "channel": 4,
      "note": 49,
      "start": 48.9379,
      "duration": 0.1854,
      "velocity": 91,
      "chip": "ym2612"
    },
    {
      "channel": 5,
      "note": 61,
      "start": 48.938,
      "duration": 0.1854,
      "velocity": 91,
      "chip": "ym2612"
    },
    {
      "channel": 4,
      "note": 49,
      "start": 49.1401,
      "duration": 0.1854,
      "velocity": 91,
      "chip": "ym2612"
    },
    {
      "channel": 5,
      "note": 61,
      "start": 49.1402,
      "duration": 0.1854,
      "velocity": 91,
      "chip": "ym2612"
    },
    {
      "channel": 3,
      "note": 33,
      "start": 49.3423,
      "duration": 0.7078,
      "velocity": 127,
      "chip": "ym2612"
    },
    {
      "channel": 4,
      "note": 49,
      "start": 49.3425,
      "duration": 0.1852,
      "velocity": 91,
      "chip": "ym2612"
    },
    {
      "channel": 5,
      "note": 61,
      "start": 49.3426,
      "duration": 0.1852,
      "velocity": 91,
      "chip": "ym2612"
    },
    {
      "channel": 4,
      "note": 53,
      "start": 49.5447,
      "duration": 0.1853,
      "velocity": 91,
      "chip": "ym2612"
    },
    {
      "channel": 5,
      "note": 65,
      "start": 49.5449,
      "duration": 0.1852,
      "velocity": 91,
      "chip": "ym2612"
    },
    {
      "channel": 4,
      "note": 56,
      "start": 49.7469,
      "duration": 0.1853,
      "velocity": 91,
      "chip": "ym2612"
    },
    {
      "channel": 5,
      "note": 68,
      "start": 49.7471,
      "duration": 0.1852,
      "velocity": 91,
      "chip": "ym2612"
    },
    {
      "channel": 4,
      "note": 55,
      "start": 49.9492,
      "duration": 0.1853,
      "velocity": 91,
      "chip": "ym2612"
    },
    {
      "channel": 5,
      "note": 67,
      "start": 49.9493,
      "duration": 0.1852,
      "velocity": 91,
      "chip": "ym2612"
    },
    {
      "channel": 3,
      "note": 33,
      "start": 50.1513,
      "duration": 0.7079,
      "velocity": 127,
      "chip": "ym2612"
    },
    {
      "channel": 4,
      "note": 80,
      "start": 50.153,
      "duration": 0.1837,
      "velocity": 127,
      "chip": "ym2612"
    },
    {
      "channel": 4,
      "note": 80,
      "start": 50.3535,
      "duration": 0.1854,
      "velocity": 127,
      "chip": "ym2612"
    },
    {
      "channel": 4,
      "note": 80,
      "start": 50.5573,
      "duration": 0.3524,
      "velocity": 127,
      "chip": "ym2612"
    },
    {
      "channel": 3,
      "note": 33,
      "start": 50.9603,
      "duration": 0.7078,
      "velocity": 127,
      "chip": "ym2612"
    },
    {
      "channel": 4,
      "note": 80,
      "start": 50.962,
      "duration": 0.184,
      "velocity": 127,
      "chip": "ym2612"
    },
    {
      "channel": 4,
      "note": 80,
      "start": 51.1627,
      "duration": 0.1852,
      "velocity": 127,
      "chip": "ym2612"
    },
    {
      "channel": 4,
      "note": 80,
      "start": 51.3662,
      "duration": 0.3525,
      "velocity": 127,
      "chip": "ym2612"
    },
    {
      "channel": 3,
      "note": 33,
      "start": 51.7693,
      "duration": 0.7078,
      "velocity": 127,
      "chip": "ym2612"
    },
    {
      "channel": 4,
      "note": 49,
      "start": 51.7708,
      "duration": 0.1838,
      "velocity": 91,
      "chip": "ym2612"
    },
    {
      "channel": 5,
      "note": 61,
      "start": 51.7711,
      "duration": 0.1837,
      "velocity": 91,
      "chip": "ym2612"
    },
    {
      "channel": 4,
      "note": 49,
      "start": 51.9715,
      "duration": 0.1854,
      "velocity": 91,
      "chip": "ym2612"
    },
    {
      "channel": 5,
      "note": 61,
      "start": 51.9717,
      "duration": 0.1854,
      "velocity": 91,
      "chip": "ym2612"
    },
    {
      "channel": 4,
      "note": 49,
      "start": 52.1737,
      "duration": 0.1854,
      "velocity": 91,
      "chip": "ym2612"
    },
    {
      "channel": 5,
      "note": 61,
      "start": 52.1738,
      "duration": 0.1854,
      "velocity": 91,
      "chip": "ym2612"
    },
    {
      "channel": 4,
      "note": 49,
      "start": 52.376,
      "duration": 0.1854,
      "velocity": 91,
      "chip": "ym2612"
    },
    {
      "channel": 5,
      "note": 61,
      "start": 52.3761,
      "duration": 0.1854,
      "velocity": 91,
      "chip": "ym2612"
    },
    {
      "channel": 3,
      "note": 33,
      "start": 52.5782,
      "duration": 0.7079,
      "velocity": 127,
      "chip": "ym2612"
    },
    {
      "channel": 4,
      "note": 49,
      "start": 52.5783,
      "duration": 0.1853,
      "velocity": 91,
      "chip": "ym2612"
    },
    {
      "channel": 5,
      "note": 61,
      "start": 52.5784,
      "duration": 0.1853,
      "velocity": 91,
      "chip": "ym2612"
    },
    {
      "channel": 4,
      "note": 53,
      "start": 52.7805,
      "duration": 0.1853,
      "velocity": 91,
      "chip": "ym2612"
    },
    {
      "channel": 5,
      "note": 65,
      "start": 52.7807,
      "duration": 0.1852,
      "velocity": 91,
      "chip": "ym2612"
    },
    {
      "channel": 4,
      "note": 56,
      "start": 52.9827,
      "duration": 0.1853,
      "velocity": 91,
      "chip": "ym2612"
    },
    {
      "channel": 5,
      "note": 68,
      "start": 52.9829,
      "duration": 0.1852,
      "velocity": 91,
      "chip": "ym2612"
    },
    {
      "channel": 4,
      "note": 55,
      "start": 53.1851,
      "duration": 0.1852,
      "velocity": 91,
      "chip": "ym2612"
    },
    {
      "channel": 5,
      "note": 67,
      "start": 53.1854,
      "duration": 0.1851,
      "velocity": 91,
      "chip": "ym2612"
    },
    {
      "channel": 1,
      "note": 73,
      "start": 53.3872,
      "duration": 0.1853,
      "velocity": 97,
      "chip": "ym2612"
    },
    {
      "channel": 3,
      "note": 33,
      "start": 53.3874,
      "duration": 0.7076,
      "velocity": 127,
      "chip": "ym2612"
    },
    {
      "channel": 4,
      "note": 80,
      "start": 53.3891,
      "duration": 0.1836,
      "velocity": 127,
      "chip": "ym2612"
    },
    {
      "channel": 1,
      "note": 97,
      "start": 53.5894,
      "duration": 0.1854,
      "velocity": 97,
      "chip": "ym2612"
    },
    {
      "channel": 2,
      "note": 70,
      "start": 53.5896,
      "duration": 0.1853,
      "velocity": 97,
      "chip": "ym2612"
    },
    {
      "channel": 4,
      "note": 80,
      "start": 53.5897,
      "duration": 0.1853,
      "velocity": 127,
      "chip": "ym2612"
    },
    {
      "channel": 1,
      "note": 75,
      "start": 53.7917,
      "duration": 0.1853,
      "velocity": 97,
      "chip": "ym2612"
    },
    {
      "channel": 2,
      "note": 94,
      "start": 53.7918,
      "duration": 0.1852,
      "velocity": 97,
      "chip": "ym2612"
    },
    {
      "channel": 4,
      "note": 80,
      "start": 53.7934,
      "duration": 0.3526,
      "velocity": 127,
      "chip": "ym2612"
    },
    {
      "channel": 1,
      "note": 99,
      "start": 53.9939,
      "duration": 0.1854,
      "velocity": 97,
      "chip": "ym2612"
    },
    {
      "channel": 2,
      "note": 72,
      "start": 53.9941,
      "duration": 0.1853,
      "velocity": 97,
      "chip": "ym2612"
    },
    {
      "channel": 1,
      "note": 76,
      "start": 54.1962,
      "duration": 0.1853,
      "velocity": 97,
      "chip": "ym2612"
    },
    {
      "channel": 2,
      "note": 96,
      "start": 54.1964,
      "duration": 0.1852,
      "velocity": 97,
      "chip": "ym2612"
    },
    {
      "channel": 3,
      "note": 33,
      "start": 54.1966,
      "duration": 0.7074,
      "velocity": 127,
      "chip": "ym2612"
    },
    {
      "channel": 4,
      "note": 80,
      "start": 54.1981,
      "duration": 0.1837,
      "velocity": 127,
      "chip": "ym2612"
    },
    {
      "channel": 1,
      "note": 100,
      "start": 54.3984,
      "duration": 0.1854,
      "velocity": 97,
      "chip": "ym2612"
    },
    {
      "channel": 2,
      "note": 73,
      "start": 54.3986,
      "duration": 0.1853,
      "velocity": 97,
      "chip": "ym2612"
    },
    {
      "channel": 4,
      "note": 80,
      "start": 54.3987,
      "duration": 0.1853,
      "velocity": 127,
      "chip": "ym2612"
    },
    {
      "channel": 1,
      "note": 78,
      "start": 54.6006,
      "duration": 0.1854,
      "velocity": 97,
      "chip": "ym2612"
    },
    {
      "channel": 2,
      "note": 97,
      "start": 54.6008,
      "duration": 0.1853,
      "velocity": 97,
      "chip": "ym2612"
    },
    {
      "channel": 4,
      "note": 80,
      "start": 54.6024,
      "duration": 0.3521,
      "velocity": 127,
      "chip": "ym2612"
    },
    {
      "channel": 1,
      "note": 102,
      "start": 54.8029,
      "duration": 4.8537,
      "velocity": 97,
      "chip": "ym2612"
    },
    {
      "channel": 2,
      "note": 75,
      "start": 54.8031,
      "duration": 0.1852,
      "velocity": 97,
      "chip": "ym2612"
    },
    {
      "channel": 2,
      "note": 99,
      "start": 55.0051,
      "duration": 4.8539,
      "velocity": 97,
      "chip": "ym2612"
    },
    {
      "channel": 3,
      "note": 33,
      "start": 55.0053,
      "duration": 0.7077,
      "velocity": 127,
      "chip": "ym2612"
    },
    {
      "channel": 4,
      "note": 49,
      "start": 55.0069,
      "duration": 0.1835,
      "velocity": 91,
      "chip": "ym2612"
    },
    {
      "channel": 5,
      "note": 61,
      "start": 55.0071,
      "duration": 0.1835,
      "velocity": 91,
      "chip": "ym2612"
    },
    {
      "channel": 4,
      "note": 49,
      "start": 55.2074,
      "duration": 0.1854,
      "velocity": 91,
      "chip": "ym2612"
    },
    {
      "channel": 5,
      "note": 61,
      "start": 55.2075,
      "duration": 0.1854,
      "velocity": 91,
      "chip": "ym2612"
    },
    {
      "channel": 4,
      "note": 49,
      "start": 55.4097,
      "duration": 0.1853,
      "velocity": 91,
      "chip": "ym2612"
    },
    {
      "channel": 5,
      "note": 61,
      "start": 55.4098,
      "duration": 0.1853,
      "velocity": 91,
      "chip": "ym2612"
    },
    {
      "channel": 4,
      "note": 49,
      "start": 55.6118,
      "duration": 0.1854,
      "velocity": 91,
      "chip": "ym2612"
    },
    {
      "channel": 5,
      "note": 61,
      "start": 55.612,
      "duration": 0.1854,
      "velocity": 91,
      "chip": "ym2612"
    },
    {
      "channel": 3,
      "note": 33,
      "start": 55.8141,
      "duration": 0.7078,
      "velocity": 127,
      "chip": "ym2612"
    },
    {
      "channel": 4,
      "note": 49,
      "start": 55.8142,
      "duration": 0.1852,
      "velocity": 91,
      "chip": "ym2612"
    },
    {
      "channel": 5,
      "note": 61,
      "start": 55.8144,
      "duration": 0.1852,
      "velocity": 91,
      "chip": "ym2612"
    },
    {
      "channel": 4,
      "note": 53,
      "start": 56.0164,
      "duration": 0.1853,
      "velocity": 91,
      "chip": "ym2612"
    },
    {
      "channel": 5,
      "note": 65,
      "start": 56.0166,
      "duration": 0.1852,
      "velocity": 91,
      "chip": "ym2612"
    },
    {
      "channel": 4,
      "note": 56,
      "start": 56.2186,
      "duration": 0.1854,
      "velocity": 91,
      "chip": "ym2612"
    },
    {
      "channel": 5,
      "note": 68,
      "start": 56.2188,
      "duration": 0.1853,
      "velocity": 91,
      "chip": "ym2612"
    },
    {
      "channel": 4,
      "note": 55,
      "start": 56.4208,
      "duration": 0.1854,
      "velocity": 91,
      "chip": "ym2612"
    },
    {
      "channel": 5,
      "note": 67,
      "start": 56.421,
      "duration": 0.1853,
      "velocity": 91,
      "chip": "ym2612"
    },
    {
      "channel": 3,
      "note": 33,
      "start": 56.6231,
      "duration": 0.7078,
      "velocity": 127,
      "chip": "ym2612"
    },
    {
      "channel": 4,
      "note": 80,
      "start": 56.6247,
      "duration": 0.1837,
      "velocity": 127,
      "chip": "ym2612"
    },
    {
      "channel": 4,
      "note": 80,
      "start": 56.8253,
      "duration": 0.1854,
      "velocity": 127,
      "chip": "ym2612"
    },
    {
      "channel": 4,
      "note": 80,
      "start": 57.0294,
      "duration": 0.3521,
      "velocity": 127,
      "chip": "ym2612"
    },
    {
      "channel": 3,
      "note": 33,
      "start": 57.432,
      "duration": 0.7078,
      "velocity": 127,
      "chip": "ym2612"
    },
    {
      "channel": 4,
      "note": 80,
      "start": 57.4336,
      "duration": 0.1838,
      "velocity": 127,
      "chip": "ym2612"
    },
    {
      "channel": 4,
      "note": 80,
      "start": 57.6343,
      "duration": 0.1854,
      "velocity": 127,
      "chip": "ym2612"
    },
    {
      "channel": 4,
      "note": 80,
      "start": 57.8379,
      "duration": 0.3525,
      "velocity": 127,
      "chip": "ym2612"
    },
    {
      "channel": 3,
      "note": 33,
      "start": 58.241,
      "duration": 0.7078,
      "velocity": 127,
      "chip": "ym2612"
    },
    {
      "channel": 4,
      "note": 49,
      "start": 58.2426,
      "duration": 0.1838,
      "velocity": 91,
      "chip": "ym2612"
    },
    {
      "channel": 5,
      "note": 61,
      "start": 58.2428,
      "duration": 0.1837,
      "velocity": 91,
      "chip": "ym2612"
    },
    {
      "channel": 4,
      "note": 49,
      "start": 58.4432,
      "duration": 0.1854,
      "velocity": 91,
      "chip": "ym2612"
    },
    {
      "channel": 5,
      "note": 61,
      "start": 58.4433,
      "duration": 0.1858,
      "velocity": 91,
      "chip": "ym2612"
    },
    {
      "channel": 4,
      "note": 49,
      "start": 58.646,
      "duration": 0.1849,
      "velocity": 91,
      "chip": "ym2612"
    },
    {
      "channel": 5,
      "note": 61,
      "start": 58.6462,
      "duration": 0.1849,
      "velocity": 91,
      "chip": "ym2612"
    },
    {
      "channel": 4,
      "note": 49,
      "start": 58.8477,
      "duration": 0.1854,
      "velocity": 91,
      "chip": "ym2612"
    },
    {
      "channel": 5,
      "note": 61,
      "start": 58.8478,
      "duration": 0.1854,
      "velocity": 91,
      "chip": "ym2612"
    },
    {
      "channel": 3,
      "note": 33,
      "start": 59.0499,
      "duration": 0.7079,
      "velocity": 127,
      "chip": "ym2612"
    },
    {
      "channel": 4,
      "note": 49,
      "start": 59.05,
      "duration": 0.1853,
      "velocity": 91,
      "chip": "ym2612"
    },
    {
      "channel": 5,
      "note": 61,
      "start": 59.0502,
      "duration": 0.1853,
      "velocity": 91,
      "chip": "ym2612"
    },
    {
      "channel": 4,
      "note": 53,
      "start": 59.2523,
      "duration": 0.1853,
      "velocity": 91,
      "chip": "ym2612"
    },
    {
      "channel": 5,
      "note": 65,
      "start": 59.2525,
      "duration": 0.1852,
      "velocity": 91,
      "chip": "ym2612"
    },
    {
      "channel": 4,
      "note": 56,
      "start": 59.4545,
      "duration": 0.1853,
      "velocity": 91,
      "chip": "ym2612"
    },
    {
      "channel": 5,
      "note": 68,
      "start": 59.4547,
      "duration": 0.1852,
      "velocity": 91,
      "chip": "ym2612"
    },
    {
      "channel": 4,
      "note": 55,
      "start": 59.6568,
      "duration": 0.1852,
      "velocity": 91,
      "chip": "ym2612"
    },
    {
      "channel": 5,
      "note": 67,
      "start": 59.657,
      "duration": 0.1851,
      "velocity": 91,
      "chip": "ym2612"
    },
    {
      "channel": 1,
      "note": 97,
      "start": 59.859,
      "duration": 0.0841,
      "velocity": 97,
      "chip": "ym2612"
    },
    {
      "channel": 3,
      "note": 33,
      "start": 59.8592,
      "duration": 0.7079,
      "velocity": 127,
      "chip": "ym2612"
    },
    {
      "channel": 4,
      "note": 80,
      "start": 59.8609,
      "duration": 0.1836,
      "velocity": 127,
      "chip": "ym2612"
    },
    {
      "channel": 1,
      "note": 95,
      "start": 59.9601,
      "duration": 0.0842,
      "velocity": 97,
      "chip": "ym2612"
    },
    {
      "channel": 1,
      "note": 93,
      "start": 60.0612,
      "duration": 0.0848,
      "velocity": 97,
      "chip": "ym2612"
    },
    {
      "channel": 2,
      "note": 94,
      "start": 60.0614,
      "duration": 0.0847,
      "velocity": 97,
      "chip": "ym2612"
    },
    {
      "channel": 4,
      "note": 80,
      "start": 60.0615,
      "duration": 0.1853,
      "velocity": 127,
      "chip": "ym2612"
    },
    {
      "channel": 1,
      "note": 92,
      "start": 60.1628,
      "duration": 0.0838,
      "velocity": 97,
      "chip": "ym2612"
    },
    {
      "channel": 2,
      "note": 92,
      "start": 60.1629,
      "duration": 0.0838,
      "velocity": 97,
      "chip": "ym2612"
    },
    {
      "channel": 1,
      "note": 97,
      "start": 60.2634,
      "duration": 0.0842,
      "velocity": 97,
      "chip": "ym2612"
    },
    {
      "channel": 2,
      "note": 90,
      "start": 60.2636,
      "duration": 0.0842,
      "velocity": 97,
      "chip": "ym2612"
    },
    {
      "channel": 4,
      "note": 80,
      "start": 60.2652,
      "duration": 0.3521,
      "velocity": 127,
      "chip": "ym2612"
    },
    {
      "channel": 1,
      "note": 95,
      "start": 60.3646,
      "duration": 0.0841,
      "velocity": 97,
      "chip": "ym2612"
    },
    {
      "channel": 2,
      "note": 89,
      "start": 60.3647,
      "duration": 0.0841,
      "velocity": 97,
      "chip": "ym2612"
    },
    {
      "channel": 1,
      "note": 93,
      "start": 60.4656,
      "duration": 0.0842,
      "velocity": 97,
      "chip": "ym2612"
    },
    {
      "channel": 2,
      "note": 94,
      "start": 60.4658,
      "duration": 0.0841,
      "velocity": 97,
      "chip": "ym2612"
    },
    {
      "channel": 1,
      "note": 92,
      "start": 60.5668,
      "duration": 0.0842,
      "velocity": 97,
      "chip": "ym2612"
    },
    {
      "channel": 2,
      "note": 92,
      "start": 60.567,
      "duration": 0.0842,
      "velocity": 97,
      "chip": "ym2612"
    },
    {
      "channel": 1,
      "note": 97,
      "start": 60.6679,
      "duration": 0.0842,
      "velocity": 97,
      "chip": "ym2612"
    },
    {
      "channel": 2,
      "note": 90,
      "start": 60.6681,
      "duration": 0.0841,
      "velocity": 97,
      "chip": "ym2612"
    },
    {
      "channel": 3,
      "note": 33,
      "start": 60.6682,
      "duration": 0.7078,
      "velocity": 127,
      "chip": "ym2612"
    },
    {
      "channel": 4,
      "note": 80,
      "start": 60.6699,
      "duration": 0.1836,
      "velocity": 127,
      "chip": "ym2612"
    },
    {
      "channel": 1,
      "note": 95,
      "start": 60.7691,
      "duration": 0.0841,
      "velocity": 97,
      "chip": "ym2612"
    },
    {
      "channel": 2,
      "note": 89,
      "start": 60.7693,
      "duration": 0.0841,
      "velocity": 97,
      "chip": "ym2612"
    },
    {
      "channel": 1,
      "note": 93,
      "start": 60.8701,
      "duration": 0.0842,
      "velocity": 97,
      "chip": "ym2612"
    },
    {
      "channel": 2,
      "note": 94,
      "start": 60.8703,
      "duration": 0.0841,
      "velocity": 97,
      "chip": "ym2612"
    },
    {
      "channel": 4,
      "note": 80,
      "start": 60.8705,
      "duration": 0.1853,
      "velocity": 127,
      "chip": "ym2612"
    },
    {
      "channel": 1,
      "note": 92,
      "start": 60.9712,
      "duration": 0.0842,
      "velocity": 97,
      "chip": "ym2612"
    },
    {
      "channel": 2,
      "note": 92,
      "start": 60.9714,
      "duration": 0.0842,
      "velocity": 97,
      "chip": "ym2612"
    },
    {
      "channel": 1,
      "note": 97,
      "start": 61.0724,
      "duration": 0.0842,
      "velocity": 97,
      "chip": "ym2612"
    },
    {
      "channel": 2,
      "note": 90,
      "start": 61.0726,
      "duration": 0.0841,
      "velocity": 97,
      "chip": "ym2612"
    },
    {
      "channel": 4,
      "note": 80,
      "start": 61.0742,
      "duration": 0.352,
      "velocity": 127,
      "chip": "ym2612"
    },
    {
      "channel": 1,
      "note": 95,
      "start": 61.1735,
      "duration": 0.0842,
      "velocity": 97,
      "chip": "ym2612"
    },
    {
      "channel": 2,
      "note": 89,
      "start": 61.1737,
      "duration": 0.0842,
      "velocity": 97,
      "chip": "ym2612"
    },
    {
      "channel": 1,
      "note": 93,
      "start": 61.2746,
      "duration": 0.0843,
      "velocity": 97,
      "chip": "ym2612"
    },
    {
      "channel": 2,
      "note": 94,
      "start": 61.2748,
      "duration": 0.0842,
      "velocity": 97,
      "chip": "ym2612"
    },
    {
      "channel": 1,
      "note": 92,
      "start": 61.3757,
      "duration": 0.1011,
      "velocity": 97,
      "chip": "ym2612"
    },
    {
      "channel": 2,
      "note": 92,
      "start": 61.3759,
      "duration": 0.084,
      "velocity": 97,
      "chip": "ym2612"
    },
    {
      "channel": 1,
      "note": 97,
      "start": 61.4769,
      "duration": 1.4156,
      "velocity": 97,
      "chip": "ym2612"
    },
    {
      "channel": 2,
      "note": 90,
      "start": 61.4771,
      "duration": 0.084,
      "velocity": 97,
      "chip": "ym2612"
    },
    {
      "channel": 3,
      "note": 33,
      "start": 61.4772,
      "duration": 0.7075,
      "velocity": 127,
      "chip": "ym2612"
    },
    {
      "channel": 4,
      "note": 49,
      "start": 61.4793,
      "duration": 0.1834,
      "velocity": 91,
      "chip": "ym2612"
    },
    {
      "channel": 5,
      "note": 61,
      "start": 61.4794,
      "duration": 0.1834,
      "velocity": 91,
      "chip": "ym2612"
    },
    {
      "channel": 2,
      "note": 89,
      "start": 61.578,
      "duration": 1.5169,
      "velocity": 97,
      "chip": "ym2612"
    },
    {
      "channel": 4,
      "note": 49,
      "start": 61.6793,
      "duration": 0.1852,
      "velocity": 91,
      "chip": "ym2612"
    },
    {
      "channel": 5,
      "note": 61,
      "start": 61.6794,
      "duration": 0.1852,
      "velocity": 91,
      "chip": "ym2612"
    },
    {
      "channel": 4,
      "note": 49,
      "start": 61.8813,
      "duration": 0.1854,
      "velocity": 91,
      "chip": "ym2612"
    },
    {
      "channel": 5,
      "note": 61,
      "start": 61.8815,
      "duration": 0.1854,
      "velocity": 91,
      "chip": "ym2612"
    },
    {
      "channel": 4,
      "note": 49,
      "start": 62.0836,
      "duration": 0.1854,
      "velocity": 91,
      "chip": "ym2612"
    },
    {
      "channel": 5,
      "note": 61,
      "start": 62.0837,
      "duration": 0.1854,
      "velocity": 91,
      "chip": "ym2612"
    },
    {
      "channel": 3,
      "note": 33,
      "start": 62.2858,
      "duration": 0.7078,
      "velocity": 127,
      "chip": "ym2612"
    },
    {
      "channel": 4,
      "note": 49,
      "start": 62.2859,
      "duration": 0.1852,
      "velocity": 91,
      "chip": "ym2612"
    },
    {
      "channel": 5,
      "note": 61,
      "start": 62.2861,
      "duration": 0.1852,
      "velocity": 91,
      "chip": "ym2612"
    },
    {
      "channel": 4,
      "note": 53,
      "start": 62.4881,
      "duration": 0.1853,
      "velocity": 91,
      "chip": "ym2612"
    },
    {
      "channel": 5,
      "note": 65,
      "start": 62.4883,
      "duration": 0.1852,
      "velocity": 91,
      "chip": "ym2612"
    },
    {
      "channel": 4,
      "note": 56,
      "start": 62.6904,
      "duration": 0.1853,
      "velocity": 91,
      "chip": "ym2612"
    },
    {
      "channel": 5,
      "note": 68,
      "start": 62.6906,
      "duration": 0.1852,
      "velocity": 91,
      "chip": "ym2612"
    },
    {
      "channel": 4,
      "note": 55,
      "start": 62.8927,
      "duration": 0.1852,
      "velocity": 91,
      "chip": "ym2612"
    },
    {
      "channel": 5,
      "note": 67,
      "start": 62.8929,
      "duration": 0.1851,
      "velocity": 91,
      "chip": "ym2612"
    },
    {
      "channel": 1,
      "note": 109,
      "start": 63.0948,
      "duration": 0.0845,
      "velocity": 97,
      "chip": "ym2612"
    },
    {
      "channel": 3,
      "note": 33,
      "start": 63.0951,
      "duration": 0.7079,
      "velocity": 127,
      "chip": "ym2612"
    },
    {
      "channel": 4,
      "note": 80,
      "start": 63.0971,
      "duration": 0.1831,
      "velocity": 127,
      "chip": "ym2612"
    },
    {
      "channel": 1,
      "note": 104,
      "start": 63.196,
      "duration": 0.0841,
      "velocity": 97,
      "chip": "ym2612"
    },
    {
      "channel": 1,
      "note": 100,
      "start": 63.2971,
      "duration": 0.0842,
      "velocity": 97,
      "chip": "ym2612"
    },
    {
      "channel": 2,
      "note": 106,
      "start": 63.2972,
      "duration": 0.0842,
      "velocity": 97,
      "chip": "ym2612"
    },
    {
      "channel": 4,
      "note": 80,
      "start": 63.2974,
      "duration": 0.1852,
      "velocity": 127,
      "chip": "ym2612"
    },
    {
      "channel": 1,
      "note": 97,
      "start": 63.3981,
      "duration": 0.0842,
      "velocity": 97,
      "chip": "ym2612"
    },
    {
      "channel": 2,
      "note": 101,
      "start": 63.3983,
      "duration": 0.0842,
      "velocity": 97,
      "chip": "ym2612"
    },
    {
      "channel": 1,
      "note": 92,
      "start": 63.4993,
      "duration": 0.0842,
      "velocity": 97,
      "chip": "ym2612"
    },
    {
      "channel": 2,
      "note": 97,
      "start": 63.4995,
      "duration": 0.0841,
      "velocity": 97,
      "chip": "ym2612"
    },
    {
      "channel": 4,
      "note": 80,
      "start": 63.5011,
      "duration": 0.3521,
      "velocity": 127,
      "chip": "ym2612"
    },
    {
      "channel": 1,
      "note": 88,
      "start": 63.6004,
      "duration": 0.0843,
      "velocity": 97,
      "chip": "ym2612"
    },
    {
      "channel": 2,
      "note": 94,
      "start": 63.6005,
      "duration": 0.0842,
      "velocity": 97,
      "chip": "ym2612"
    },
    {
      "channel": 1,
      "note": 85,
      "start": 63.7015,
      "duration": 0.0842,
      "velocity": 97,
      "chip": "ym2612"
    },
    {
      "channel": 2,
      "note": 89,
      "start": 63.7017,
      "duration": 0.0841,
      "velocity": 97,
      "chip": "ym2612"
    },
    {
      "channel": 1,
      "note": 80,
      "start": 63.8027,
      "duration": 0.0841,
      "velocity": 97,
      "chip": "ym2612"
    },
    {
      "channel": 2,
      "note": 85,
      "start": 63.8028,
      "duration": 0.0841,
      "velocity": 97,
      "chip": "ym2612"
    },
    {
      "channel": 1,
      "note": 85,
      "start": 63.9038,
      "duration": 0.0842,
      "velocity": 97,
      "chip": "ym2612"
    },
    {
      "channel": 2,
      "note": 82,
      "start": 63.904,
      "duration": 0.0841,
      "velocity": 97,
      "chip": "ym2612"
    },
    {
      "channel": 3,
      "note": 33,
      "start": 63.9041,
      "duration": 0.7078,
      "velocity": 127,
      "chip": "ym2612"
    },
    {
      "channel": 4,
      "note": 80,
      "start": 63.9057,
      "duration": 0.1837,
      "velocity": 127,
      "chip": "ym2612"
    },
    {
      "channel": 1,
      "note": 88,
      "start": 64.0049,
      "duration": 0.0841,
      "velocity": 97,
      "chip": "ym2612"
    },
    {
      "channel": 2,
      "note": 77,
      "start": 64.0051,
      "duration": 0.0841,
      "velocity": 97,
      "chip": "ym2612"
    },
    {
      "channel": 1,
      "note": 92,
      "start": 64.106,
      "duration": 0.0841,
      "velocity": 97,
      "chip": "ym2612"
    },
    {
      "channel": 2,
      "note": 82,
      "start": 64.1062,
      "duration": 0.0841,
      "velocity": 97,
      "chip": "ym2612"
    },
    {
      "channel": 4,
      "note": 80,
      "start": 64.1063,
      "duration": 0.1852,
      "velocity": 127,
      "chip": "ym2612"
    },
    {
      "channel": 1,
      "note": 97,
      "start": 64.2071,
      "duration": 0.0842,
      "velocity": 97,
      "chip": "ym2612"
    },
    {
      "channel": 2,
      "note": 85,
      "start": 64.2073,
      "duration": 0.0841,
      "velocity": 97,
      "chip": "ym2612"
    },
    {
      "channel": 1,
      "note": 100,
      "start": 64.3083,
      "duration": 0.0841,
      "velocity": 97,
      "chip": "ym2612"
    },
    {
      "channel": 2,
      "note": 89,
      "start": 64.3084,
      "duration": 0.0841,
      "velocity": 97,
      "chip": "ym2612"
    },
    {
      "channel": 4,
      "note": 80,
      "start": 64.31,
      "duration": 0.3527,
      "velocity": 127,
      "chip": "ym2612"
    },
    {
      "channel": 1,
      "note": 104,
      "start": 64.4093,
      "duration": 0.0842,
      "velocity": 97,
      "chip": "ym2612"
    },
    {
      "channel": 2,
      "note": 94,
      "start": 64.4095,
      "duration": 0.0841,
      "velocity": 97,
      "chip": "ym2612"
    },
    {
      "channel": 1,
      "note": 100,
      "start": 64.5105,
      "duration": 0.0841,
      "velocity": 97,
      "chip": "ym2612"
    },
    {
      "channel": 2,
      "note": 97,
      "start": 64.5107,
      "duration": 0.0841,
      "velocity": 97,
      "chip": "ym2612"
    },
    {
      "channel": 1,
      "note": 109,
      "start": 64.6116,
      "duration": 1.5168,
      "velocity": 97,
      "chip": "ym2612"
    },
    {
      "channel": 2,
      "note": 101,
      "start": 64.6117,
      "duration": 0.0842,
      "velocity": 97,
      "chip": "ym2612"
    },
    {
      "channel": 2,
      "note": 97,
      "start": 64.7127,
      "duration": 0.0842,
      "velocity": 97,
      "chip": "ym2612"
    },
    {
      "channel": 3,
      "note": 33,
      "start": 64.7128,
      "duration": 0.7078,
      "velocity": 127,
      "chip": "ym2612"
    },
    {
      "channel": 4,
      "note": 49,
      "start": 64.7146,
      "duration": 0.1836,
      "velocity": 91,
      "chip": "ym2612"
    },
    {
      "channel": 5,
      "note": 61,
      "start": 64.7147,
      "duration": 0.1835,
      "velocity": 91,
      "chip": "ym2612"
    },
    {
      "channel": 2,
      "note": 106,
      "start": 64.8139,
      "duration": 1.5169,
      "velocity": 97,
      "chip": "ym2612"
    },
    {
      "channel": 4,
      "note": 49,
      "start": 64.9149,
      "duration": 0.1854,
      "velocity": 91,
      "chip": "ym2612"
    },
    {
      "channel": 5,
      "note": 61,
      "start": 64.9151,
      "duration": 0.1854,
      "velocity": 91,
      "chip": "ym2612"
    },
    {
      "channel": 4,
      "note": 49,
      "start": 65.1172,
      "duration": 0.1853,
      "velocity": 91,
      "chip": "ym2612"
    },
    {
      "channel": 5,
      "note": 61,
      "start": 65.1173,
      "duration": 0.1853,
      "velocity": 91,
      "chip": "ym2612"
    },
    {
      "channel": 4,
      "note": 49,
      "start": 65.3195,
      "duration": 0.1854,
      "velocity": 91,
      "chip": "ym2612"
    },
    {
      "channel": 5,
      "note": 61,
      "start": 65.3196,
      "duration": 0.1854,
      "velocity": 91,
      "chip": "ym2612"
    },
    {
      "channel": 3,
      "note": 33,
      "start": 65.5217,
      "duration": 0.7079,
      "velocity": 127,
      "chip": "ym2612"
    },
    {
      "channel": 4,
      "note": 49,
      "start": 65.5218,
      "duration": 0.1852,
      "velocity": 91,
      "chip": "ym2612"
    },
    {
      "channel": 5,
      "note": 61,
      "start": 65.5219,
      "duration": 0.1852,
      "velocity": 91,
      "chip": "ym2612"
    },
    {
      "channel": 4,
      "note": 53,
      "start": 65.724,
      "duration": 0.1854,
      "velocity": 91,
      "chip": "ym2612"
    },
    {
      "channel": 5,
      "note": 65,
      "start": 65.7241,
      "duration": 0.1853,
      "velocity": 91,
      "chip": "ym2612"
    },
    {
      "channel": 4,
      "note": 56,
      "start": 65.9263,
      "duration": 0.1853,
      "velocity": 91,
      "chip": "ym2612"
    },
    {
      "channel": 5,
      "note": 68,
      "start": 65.9264,
      "duration": 0.1852,
      "velocity": 91,
      "chip": "ym2612"
    },
    {
      "channel": 4,
      "note": 55,
      "start": 66.1287,
      "duration": 0.1851,
      "velocity": 91,
      "chip": "ym2612"
    },
    {
      "channel": 5,
      "note": 67,
      "start": 66.1292,
      "duration": 0.1847,
      "velocity": 91,
      "chip": "ym2612"
    },
    {
      "channel": 1,
      "note": 110,
      "start": 66.3306,
      "duration": 0.0842,
      "velocity": 97,
      "chip": "ym2612"
    },
    {
      "channel": 3,
      "note": 33,
      "start": 66.3309,
      "duration": 0.3536,
      "velocity": 127,
      "chip": "ym2612"
    },
    {
      "channel": 1,
      "note": 115,
      "start": 66.4319,
      "duration": 0.0841,
      "velocity": 97,
      "chip": "ym2612"
    },
    {
      "channel": 1,
      "note": 110,
      "start": 66.5329,
      "duration": 0.0842,
      "velocity": 97,
      "chip": "ym2612"
    },
    {
      "channel": 2,
      "note": 107,
      "start": 66.5331,
      "duration": 0.0841,
      "velocity": 97,
      "chip": "ym2612"
    },
    {
      "channel": 1,
      "note": 115,
      "start": 66.634,
      "duration": 0.0842,
      "velocity": 97,
      "chip": "ym2612"
    },
    {
      "channel": 2,
      "note": 112,
      "start": 66.6342,
      "duration": 0.0842,
      "velocity": 97,
      "chip": "ym2612"
    },
    {
      "channel": 1,
      "note": 110,
      "start": 66.7351,
      "duration": 0.0842,
      "velocity": 97,
      "chip": "ym2612"
    },
    {
      "channel": 2,
      "note": 107,
      "start": 66.7354,
      "duration": 0.0841,
      "velocity": 97,
      "chip": "ym2612"
    },
    {
      "channel": 3,
      "note": 33,
      "start": 66.7355,
      "duration": 0.1853,
      "velocity": 127,
      "chip": "ym2612"
    },
    {
      "channel": 4,
      "note": 49,
      "start": 66.7357,
      "duration": 0.1851,
      "velocity": 91,
      "chip": "ym2612"
    },
    {
      "channel": 5,
      "note": 61,
      "start": 66.7359,
      "duration": 0.1851,
      "velocity": 91,
      "chip": "ym2612"
    },
    {
      "channel": 1,
      "note": 115,
      "start": 66.8362,
      "duration": 0.0842,
      "velocity": 97,
      "chip": "ym2612"
    },
    {
      "channel": 2,
      "note": 112,
      "start": 66.8364,
      "duration": 0.0841,
      "velocity": 97,
      "chip": "ym2612"
    },
    {
      "channel": 1,
      "note": 110,
      "start": 66.9374,
      "duration": 0.0842,
      "velocity": 97,
      "chip": "ym2612"
    },
    {
      "channel": 2,
      "note": 107,
      "start": 66.9376,
      "duration": 0.0842,
      "velocity": 97,
      "chip": "ym2612"
    },
    {
      "channel": 3,
      "note": 33,
      "start": 66.9377,
      "duration": 0.1853,
      "velocity": 127,
      "chip": "ym2612"
    },
    {
      "channel": 4,
      "note": 49,
      "start": 66.9378,
      "duration": 0.1853,
      "velocity": 91,
      "chip": "ym2612"
    },
    {
      "channel": 5,
      "note": 61,
      "start": 66.938,
      "duration": 0.1853,
      "velocity": 91,
      "chip": "ym2612"
    },
    {
      "channel": 1,
      "note": 115,
      "start": 67.0385,
      "duration": 0.0842,
      "velocity": 97,
      "chip": "ym2612"
    },
    {
      "channel": 2,
      "note": 112,
      "start": 67.0387,
      "duration": 0.0841,
      "velocity": 97,
      "chip": "ym2612"
    },
    {
      "channel": 1,
      "note": 110,
      "start": 67.1396,
      "duration": 0.0842,
      "velocity": 97,
      "chip": "ym2612"
    },
    {
      "channel": 2,
      "note": 107,
      "start": 67.1398,
      "duration": 0.0842,
      "velocity": 97,
      "chip": "ym2612"
    },
    {
      "channel": 3,
      "note": 45,
      "start": 67.1415,
      "duration": 0.7062,
      "velocity": 127,
      "chip": "ym2612"
    },
    {
      "channel": 4,
      "note": 61,
      "start": 67.1417,
      "duration": 0.7062,
      "velocity": 91,
      "chip": "ym2612"
    },
    {
      "channel": 5,
      "note": 73,
      "start": 67.1418,
      "duration": 0.7062,
      "velocity": 91,
      "chip": "ym2612"
    },
    {
      "channel": 1,
      "note": 115,
      "start": 67.2407,
      "duration": 0.0842,
      "velocity": 97,
      "chip": "ym2612"
    },
    {
      "channel": 2,
      "note": 112,
      "start": 67.241,
      "duration": 0.0841,
      "velocity": 97,
      "chip": "ym2612"
    },
    {
      "channel": 1,
      "note": 110,
      "start": 67.3419,
      "duration": 0.0841,
      "velocity": 97,
      "chip": "ym2612"
    },
    {
      "channel": 2,
      "note": 107,
      "start": 67.342,
      "duration": 0.0842,
      "velocity": 97,
      "chip": "ym2612"
    },
    {
      "channel": 1,
      "note": 115,
      "start": 67.443,
      "duration": 0.0842,
      "velocity": 97,
      "chip": "ym2612"
    },
    {
      "channel": 2,
      "note": 112,
      "start": 67.4432,
      "duration": 0.0841,
      "velocity": 97,
      "chip": "ym2612"
    },
    {
      "channel": 1,
      "note": 110,
      "start": 67.5441,
      "duration": 0.0841,
      "velocity": 97,
      "chip": "ym2612"
    },
    {
      "channel": 2,
      "note": 107,
      "start": 67.5443,
      "duration": 0.0841,
      "velocity": 97,
      "chip": "ym2612"
    },
    {
      "channel": 1,
      "note": 115,
      "start": 67.6452,
      "duration": 0.0842,
      "velocity": 97,
      "chip": "ym2612"
    },
    {
      "channel": 2,
      "note": 112,
      "start": 67.6458,
      "duration": 0.0838,
      "velocity": 97,
      "chip": "ym2612"
    },
    {
      "channel": 1,
      "note": 110,
      "start": 67.7463,
      "duration": 0.0842,
      "velocity": 97,
      "chip": "ym2612"
    },
    {
      "channel": 2,
      "note": 107,
      "start": 67.7466,
      "duration": 0.0841,
      "velocity": 97,
      "chip": "ym2612"
    },
    {
      "channel": 1,
      "note": 115,
      "start": 67.8475,
      "duration": 4.7525,
      "velocity": 97,
      "chip": "ym2612"
    },
    {
      "channel": 2,
      "note": 112,
      "start": 67.8477,
      "duration": 0.084,
      "velocity": 97,
      "chip": "ym2612"
    },
    {
      "channel": 2,
      "note": 107,
      "start": 67.9486,
      "duration": 0.0842,
      "velocity": 97,
      "chip": "ym2612"
    },
    {
      "channel": 3,
      "note": 33,
      "start": 67.9503,
      "duration": 0.7061,
      "velocity": 127,
      "chip": "ym2612"
    },
    {
      "channel": 4,
      "note": 49,
      "start": 67.9505,
      "duration": 0.1834,
      "velocity": 91,
      "chip": "ym2612"
    },
    {
      "channel": 5,
      "note": 61,
      "start": 67.9506,
      "duration": 0.1835,
      "velocity": 91,
      "chip": "ym2612"
    },
    {
      "channel": 2,
      "note": 112,
      "start": 68.0498,
      "duration": 4.7527,
      "velocity": 97,
      "chip": "ym2612"
    },
    {
      "channel": 4,
      "note": 49,
      "start": 68.1508,
      "duration": 0.1854,
      "velocity": 91,
      "chip": "ym2612"
    },
    {
      "channel": 5,
      "note": 61,
      "start": 68.1509,
      "duration": 0.1854,
      "velocity": 91,
      "chip": "ym2612"
    },
    {
      "channel": 4,
      "note": 49,
      "start": 68.353,
      "duration": 0.1854,
      "velocity": 91,
      "chip": "ym2612"
    },
    {
      "channel": 5,
      "note": 61,
      "start": 68.3532,
      "duration": 0.1854,
      "velocity": 91,
      "chip": "ym2612"
    },
    {
      "channel": 4,
      "note": 49,
      "start": 68.5553,
      "duration": 0.1854,
      "velocity": 91,
      "chip": "ym2612"
    },
    {
      "channel": 5,
      "note": 61,
      "start": 68.5554,
      "duration": 0.1854,
      "velocity": 91,
      "chip": "ym2612"
    },
    {
      "channel": 3,
      "note": 33,
      "start": 68.7576,
      "duration": 0.7078,
      "velocity": 127,
      "chip": "ym2612"
    },
    {
      "channel": 4,
      "note": 49,
      "start": 68.7577,
      "duration": 0.1852,
      "velocity": 91,
      "chip": "ym2612"
    },
    {
      "channel": 5,
      "note": 61,
      "start": 68.7578,
      "duration": 0.1852,
      "velocity": 91,
      "chip": "ym2612"
    },
    {
      "channel": 4,
      "note": 53,
      "start": 68.9598,
      "duration": 0.1853,
      "velocity": 91,
      "chip": "ym2612"
    },
    {
      "channel": 5,
      "note": 65,
      "start": 68.96,
      "duration": 0.1853,
      "velocity": 91,
      "chip": "ym2612"
    },
    {
      "channel": 4,
      "note": 56,
      "start": 69.1624,
      "duration": 0.185,
      "velocity": 91,
      "chip": "ym2612"
    },
    {
      "channel": 5,
      "note": 68,
      "start": 69.1626,
      "duration": 0.1849,
      "velocity": 91,
      "chip": "ym2612"
    },
    {
      "channel": 4,
      "note": 55,
      "start": 69.3643,
      "duration": 0.1854,
      "velocity": 91,
      "chip": "ym2612"
    },
    {
      "channel": 5,
      "note": 67,
      "start": 69.3645,
      "duration": 0.1853,
      "velocity": 91,
      "chip": "ym2612"
    },
    {
      "channel": 3,
      "note": 33,
      "start": 69.5665,
      "duration": 0.7079,
      "velocity": 127,
      "chip": "ym2612"
    },
    {
      "channel": 4,
      "note": 80,
      "start": 69.5681,
      "duration": 0.1838,
      "velocity": 127,
      "chip": "ym2612"
    },
    {
      "channel": 4,
      "note": 80,
      "start": 69.7688,
      "duration": 0.1854,
      "velocity": 127,
      "chip": "ym2612"
    },
    {
      "channel": 4,
      "note": 80,
      "start": 69.9725,
      "duration": 0.3524,
      "velocity": 127,
      "chip": "ym2612"
    },
    {
      "channel": 3,
      "note": 33,
      "start": 70.3755,
      "duration": 0.7078,
      "velocity": 127,
      "chip": "ym2612"
    },
    {
      "channel": 4,
      "note": 80,
      "start": 70.3771,
      "duration": 0.1838,
      "velocity": 127,
      "chip": "ym2612"
    },
    {
      "channel": 4,
      "note": 80,
      "start": 70.5777,
      "duration": 0.1854,
      "velocity": 127,
      "chip": "ym2612"
    },
    {
      "channel": 4,
      "note": 80,
      "start": 70.7815,
      "duration": 0.3524,
      "velocity": 127,
      "chip": "ym2612"
    },
    {
      "channel": 3,
      "note": 33,
      "start": 71.1844,
      "duration": 0.7079,
      "velocity": 127,
      "chip": "ym2612"
    },
    {
      "channel": 4,
      "note": 49,
      "start": 71.1861,
      "duration": 0.1838,
      "velocity": 91,
      "chip": "ym2612"
    },
    {
      "channel": 5,
      "note": 61,
      "start": 71.1862,
      "duration": 0.1837,
      "velocity": 91,
      "chip": "ym2612"
    },
    {
      "channel": 4,
      "note": 49,
      "start": 71.3867,
      "duration": 0.1854,
      "velocity": 91,
      "chip": "ym2612"
    },
    {
      "channel": 5,
      "note": 61,
      "start": 71.3868,
      "duration": 0.1854,
      "velocity": 91,
      "chip": "ym2612"
    },
    {
      "channel": 4,
      "note": 49,
      "start": 71.589,
      "duration": 0.1853,
      "velocity": 91,
      "chip": "ym2612"
    },
    {
      "channel": 5,
      "note": 61,
      "start": 71.5891,
      "duration": 0.1853,
      "velocity": 91,
      "chip": "ym2612"
    },
    {
      "channel": 4,
      "note": 49,
      "start": 71.7912,
      "duration": 0.1854,
      "velocity": 91,
      "chip": "ym2612"
    },
    {
      "channel": 5,
      "note": 61,
      "start": 71.7913,
      "duration": 0.1854,
      "velocity": 91,
      "chip": "ym2612"
    },
    {
      "channel": 3,
      "note": 33,
      "start": 71.9934,
      "duration": 0.7079,
      "velocity": 127,
      "chip": "ym2612"
    },
    {
      "channel": 4,
      "note": 49,
      "start": 71.9935,
      "duration": 0.1859,
      "velocity": 91,
      "chip": "ym2612"
    },
    {
      "channel": 5,
      "note": 61,
      "start": 71.9936,
      "duration": 0.1859,
      "velocity": 91,
      "chip": "ym2612"
    },
    {
      "channel": 4,
      "note": 53,
      "start": 72.1961,
      "duration": 0.1849,
      "velocity": 91,
      "chip": "ym2612"
    },
    {
      "channel": 5,
      "note": 65,
      "start": 72.1963,
      "duration": 0.1849,
      "velocity": 91,
      "chip": "ym2612"
    },
    {
      "channel": 4,
      "note": 56,
      "start": 72.3979,
      "duration": 0.1854,
      "velocity": 91,
      "chip": "ym2612"
    },
    {
      "channel": 5,
      "note": 68,
      "start": 72.3981,
      "duration": 0.1853,
      "velocity": 91,
      "chip": "ym2612"
    },
    {
      "channel": 4,
      "note": 55,
      "start": 72.6003,
      "duration": 0.1852,
      "velocity": 91,
      "chip": "ym2612"
    },
    {
      "channel": 5,
      "note": 67,
      "start": 72.6005,
      "duration": 0.1851,
      "velocity": 91,
      "chip": "ym2612"
    },
    {
      "channel": 1,
      "note": 82,
      "start": 72.8024,
      "duration": 0.0842,
      "velocity": 97,
      "chip": "ym2612"
    },
    {
      "channel": 3,
      "note": 64,
      "start": 72.8042,
      "duration": 0.0825,
      "velocity": 127,
      "chip": "ym2612"
    },
    {
      "channel": 4,
      "note": 80,
      "start": 72.8059,
      "duration": 0.1821,
      "velocity": 127,
      "chip": "ym2612"
    },
    {
      "channel": 1,
      "note": 86,
      "start": 72.9035,
      "duration": 0.0842,
      "velocity": 97,
      "chip": "ym2612"
    },
    {
      "channel": 3,
      "note": 64,
      "start": 72.9036,
      "duration": 0.0842,
      "velocity": 127,
      "chip": "ym2612"
    },
    {
      "channel": 1,
      "note": 89,
      "start": 73.0047,
      "duration": 0.0841,
      "velocity": 97,
      "chip": "ym2612"
    },
    {
      "channel": 2,
      "note": 79,
      "start": 73.0048,
      "duration": 0.0841,
      "velocity": 97,
      "chip": "ym2612"
    },
    {
      "channel": 3,
      "note": 61,
      "start": 73.005,
      "duration": 0.084,
      "velocity": 127,
      "chip": "ym2612"
    },
    {
      "channel": 4,
      "note": 80,
      "start": 73.0051,
      "duration": 0.1852,
      "velocity": 127,
      "chip": "ym2612"
    },
    {
      "channel": 1,
      "note": 94,
      "start": 73.1058,
      "duration": 0.0842,
      "velocity": 97,
      "chip": "ym2612"
    },
    {
      "channel": 2,
      "note": 83,
      "start": 73.106,
      "duration": 0.0841,
      "velocity": 97,
      "chip": "ym2612"
    },
    {
      "channel": 3,
      "note": 61,
      "start": 73.1061,
      "duration": 0.0841,
      "velocity": 127,
      "chip": "ym2612"
    },
    {
      "channel": 1,
      "note": 98,
      "start": 73.2068,
      "duration": 0.0842,
      "velocity": 97,
      "chip": "ym2612"
    },
    {
      "channel": 2,
      "note": 86,
      "start": 73.207,
      "duration": 0.0842,
      "velocity": 97,
      "chip": "ym2612"
    },
    {
      "channel": 3,
      "note": 57,
      "start": 73.2073,
      "duration": 0.1852,
      "velocity": 127,
      "chip": "ym2612"
    },
    {
      "channel": 4,
      "note": 80,
      "start": 73.2089,
      "duration": 0.3518,
      "velocity": 127,
      "chip": "ym2612"
    },
    {
      "channel": 1,
      "note": 101,
      "start": 73.308,
      "duration": 0.0842,
      "velocity": 97,
      "chip": "ym2612"
    },
    {
      "channel": 2,
      "note": 91,
      "start": 73.3082,
      "duration": 0.0841,
      "velocity": 97,
      "chip": "ym2612"
    },
    {
      "channel": 1,
      "note": 106,
      "start": 73.4091,
      "duration": 0.0842,
      "velocity": 97,
      "chip": "ym2612"
    },
    {
      "channel": 2,
      "note": 95,
      "start": 73.4093,
      "duration": 0.0841,
      "velocity": 97,
      "chip": "ym2612"
    },
    {
      "channel": 3,
      "note": 57,
      "start": 73.4094,
      "duration": 0.1853,
      "velocity": 127,
      "chip": "ym2612"
    },
    {
      "channel": 1,
      "note": 110,
      "start": 73.5102,
      "duration": 0.0842,
      "velocity": 97,
      "chip": "ym2612"
    },
    {
      "channel": 2,
      "note": 98,
      "start": 73.5104,
      "duration": 0.0842,
      "velocity": 97,
      "chip": "ym2612"
    },
    {
      "channel": 1,
      "note": 106,
      "start": 73.6113,
      "duration": 0.0847,
      "velocity": 97,
      "chip": "ym2612"
    },
    {
      "channel": 2,
      "note": 103,
      "start": 73.6115,
      "duration": 0.0846,
      "velocity": 97,
      "chip": "ym2612"
    },
    {
      "channel": 3,
      "note": 64,
      "start": 73.6117,
      "duration": 0.0845,
      "velocity": 127,
      "chip": "ym2612"
    },
    {
      "channel": 4,
      "note": 80,
      "start": 73.6137,
      "duration": 0.1834,
      "velocity": 127,
      "chip": "ym2612"
    },
    {
      "channel": 1,
      "note": 110,
      "start": 73.7127,
      "duration": 0.084,
      "velocity": 97,
      "chip": "ym2612"
    },
    {
      "channel": 2,
      "note": 107,
      "start": 73.7129,
      "duration": 0.084,
      "velocity": 97,
      "chip": "ym2612"
    },
    {
      "channel": 3,
      "note": 64,
      "start": 73.713,
      "duration": 0.084,
      "velocity": 127,
      "chip": "ym2612"
    },
    {
      "channel": 1,
      "note": 101,
      "start": 73.8136,
      "duration": 0.0842,
      "velocity": 97,
      "chip": "ym2612"
    },
    {
      "channel": 2,
      "note": 103,
      "start": 73.8138,
      "duration": 0.0841,
      "velocity": 97,
      "chip": "ym2612"
    },
    {
      "channel": 3,
      "note": 61,
      "start": 73.8139,
      "duration": 0.0841,
      "velocity": 127,
      "chip": "ym2612"
    },
    {
      "channel": 4,
      "note": 80,
      "start": 73.814,
      "duration": 0.1853,
      "velocity": 127,
      "chip": "ym2612"
    },
    {
      "channel": 1,
      "note": 110,
      "start": 73.9147,
      "duration": 0.0842,
      "velocity": 97,
      "chip": "ym2612"
    },
    {
      "channel": 2,
      "note": 107,
      "start": 73.9149,
      "duration": 0.0842,
      "velocity": 97,
      "chip": "ym2612"
    },
    {
      "channel": 3,
      "note": 61,
      "start": 73.9151,
      "duration": 0.0841,
      "velocity": 127,
      "chip": "ym2612"
    },
    {
      "channel": 1,
      "note": 98,
      "start": 74.0158,
      "duration": 0.0842,
      "velocity": 97,
      "chip": "ym2612"
    },
    {
      "channel": 2,
      "note": 98,
      "start": 74.016,
      "duration": 0.0842,
      "velocity": 97,
      "chip": "ym2612"
    },
    {
      "channel": 3,
      "note": 57,
      "start": 74.0163,
      "duration": 0.1852,
      "velocity": 127,
      "chip": "ym2612"
    },
    {
      "channel": 4,
      "note": 80,
      "start": 74.0178,
      "duration": 0.3519,
      "velocity": 127,
      "chip": "ym2612"
    },
    {
      "channel": 1,
      "note": 110,
      "start": 74.117,
      "duration": 0.0842,
      "velocity": 97,
      "chip": "ym2612"
    },
    {
      "channel": 2,
      "note": 107,
      "start": 74.1172,
      "duration": 0.0841,
      "velocity": 97,
      "chip": "ym2612"
    },
    {
      "channel": 1,
      "note": 94,
      "start": 74.2181,
      "duration": 0.0841,
      "velocity": 97,
      "chip": "ym2612"
    },
    {
      "channel": 2,
      "note": 95,
      "start": 74.2183,
      "duration": 0.0841,
      "velocity": 97,
      "chip": "ym2612"
    },
    {
      "channel": 3,
      "note": 57,
      "start": 74.2184,
      "duration": 0.1851,
      "velocity": 127,
      "chip": "ym2612"
    },
    {
      "channel": 1,
      "note": 110,
      "start": 74.3192,
      "duration": 4.7526,
      "velocity": 97,
      "chip": "ym2612"
    },
    {
      "channel": 2,
      "note": 107,
      "start": 74.3194,
      "duration": 0.084,
      "velocity": 97,
      "chip": "ym2612"
    },
    {
      "channel": 2,
      "note": 91,
      "start": 74.4203,
      "duration": 0.0841,
      "velocity": 97,
      "chip": "ym2612"
    },
    {
      "channel": 3,
      "note": 33,
      "start": 74.4221,
      "duration": 0.706,
      "velocity": 127,
      "chip": "ym2612"
    },
    {
      "channel": 4,
      "note": 49,
      "start": 74.4237,
      "duration": 0.182,
      "velocity": 91,
      "chip": "ym2612"
    },
    {
      "channel": 5,
      "note": 61,
      "start": 74.4239,
      "duration": 0.1819,
      "velocity": 91,
      "chip": "ym2612"
    },
    {
      "channel": 2,
      "note": 107,
      "start": 74.5215,
      "duration": 4.7526,
      "velocity": 97,
      "chip": "ym2612"
    },
    {
      "channel": 4,
      "note": 49,
      "start": 74.6225,
      "duration": 0.1854,
      "velocity": 91,
      "chip": "ym2612"
    },
    {
      "channel": 5,
      "note": 61,
      "start": 74.6226,
      "duration": 0.1854,
      "velocity": 91,
      "chip": "ym2612"
    },
    {
      "channel": 4,
      "note": 49,
      "start": 74.8248,
      "duration": 0.1854,
      "velocity": 91,
      "chip": "ym2612"
    },
    {
      "channel": 5,
      "note": 61,
      "start": 74.8249,
      "duration": 0.1854,
      "velocity": 91,
      "chip": "ym2612"
    },
    {
      "channel": 4,
      "note": 49,
      "start": 75.027,
      "duration": 0.1857,
      "velocity": 91,
      "chip": "ym2612"
    },
    {
      "channel": 5,
      "note": 61,
      "start": 75.0271,
      "duration": 0.1857,
      "velocity": 91,
      "chip": "ym2612"
    },
    {
      "channel": 3,
      "note": 33,
      "start": 75.2294,
      "duration": 0.7078,
      "velocity": 127,
      "chip": "ym2612"
    },
    {
      "channel": 4,
      "note": 49,
      "start": 75.2295,
      "duration": 0.1851,
      "velocity": 91,
      "chip": "ym2612"
    },
    {
      "channel": 5,
      "note": 61,
      "start": 75.2296,
      "duration": 0.1851,
      "velocity": 91,
      "chip": "ym2612"
    },
    {
      "channel": 4,
      "note": 53,
      "start": 75.4316,
      "duration": 0.1853,
      "velocity": 91,
      "chip": "ym2612"
    },
    {
      "channel": 5,
      "note": 65,
      "start": 75.4318,
      "duration": 0.1852,
      "velocity": 91,
      "chip": "ym2612"
    },
    {
      "channel": 4,
      "note": 56,
      "start": 75.6338,
      "duration": 0.1853,
      "velocity": 91,
      "chip": "ym2612"
    },
    {
      "channel": 5,
      "note": 68,
      "start": 75.634,
      "duration": 0.1852,
      "velocity": 91,
      "chip": "ym2612"
    },
    {
      "channel": 4,
      "note": 55,
      "start": 75.8361,
      "duration": 0.1854,
      "velocity": 91,
      "chip": "ym2612"
    },
    {
      "channel": 5,
      "note": 67,
      "start": 75.8362,
      "duration": 0.1853,
      "velocity": 91,
      "chip": "ym2612"
    },
    {
      "channel": 3,
      "note": 33,
      "start": 76.0382,
      "duration": 0.7078,
      "velocity": 127,
      "chip": "ym2612"
    },
    {
      "channel": 4,
      "note": 80,
      "start": 76.0399,
      "duration": 0.1837,
      "velocity": 127,
      "chip": "ym2612"
    },
    {
      "channel": 4,
      "note": 80,
      "start": 76.2404,
      "duration": 0.1854,
      "velocity": 127,
      "chip": "ym2612"
    },
    {
      "channel": 4,
      "note": 80,
      "start": 76.4442,
      "duration": 0.3525,
      "velocity": 127,
      "chip": "ym2612"
    },
    {
      "channel": 3,
      "note": 33,
      "start": 76.8472,
      "duration": 0.7079,
      "velocity": 127,
      "chip": "ym2612"
    },
    {
      "channel": 4,
      "note": 80,
      "start": 76.8488,
      "duration": 0.1838,
      "velocity": 127,
      "chip": "ym2612"
    },
    {
      "channel": 4,
      "note": 80,
      "start": 77.0495,
      "duration": 0.1854,
      "velocity": 127,
      "chip": "ym2612"
    },
    {
      "channel": 4,
      "note": 80,
      "start": 77.2532,
      "duration": 0.3524,
      "velocity": 127,
      "chip": "ym2612"
    },
    {
      "channel": 3,
      "note": 33,
      "start": 77.6561,
      "duration": 0.7078,
      "velocity": 127,
      "chip": "ym2612"
    },
    {
      "channel": 4,
      "note": 49,
      "start": 77.6578,
      "duration": 0.1837,
      "velocity": 91,
      "chip": "ym2612"
    },
    {
      "channel": 5,
      "note": 61,
      "start": 77.658,
      "duration": 0.1837,
      "velocity": 91,
      "chip": "ym2612"
    },
    {
      "channel": 4,
      "note": 49,
      "start": 77.8584,
      "duration": 0.1854,
      "velocity": 91,
      "chip": "ym2612"
    },
    {
      "channel": 5,
      "note": 61,
      "start": 77.8586,
      "duration": 0.1854,
      "velocity": 91,
      "chip": "ym2612"
    },
    {
      "channel": 4,
      "note": 49,
      "start": 78.0606,
      "duration": 0.1854,
      "velocity": 91,
      "chip": "ym2612"
    },
    {
      "channel": 5,
      "note": 61,
      "start": 78.0607,
      "duration": 0.1854,
      "velocity": 91,
      "chip": "ym2612"
    },
    {
      "channel": 4,
      "note": 49,
      "start": 78.2629,
      "duration": 0.1854,
      "velocity": 91,
      "chip": "ym2612"
    },
    {
      "channel": 5,
      "note": 61,
      "start": 78.263,
      "duration": 0.1854,
      "velocity": 91,
      "chip": "ym2612"
    },
    {
      "channel": 3,
      "note": 33,
      "start": 78.4651,
      "duration": 0.7079,
      "velocity": 127,
      "chip": "ym2612"
    },
    {
      "channel": 4,
      "note": 49,
      "start": 78.4652,
      "duration": 0.1853,
      "velocity": 91,
      "chip": "ym2612"
    },
    {
      "channel": 5,
      "note": 61,
      "start": 78.4654,
      "duration": 0.1852,
      "velocity": 91,
      "chip": "ym2612"
    },
    {
      "channel": 4,
      "note": 53,
      "start": 78.6674,
      "duration": 0.1854,
      "velocity": 91,
      "chip": "ym2612"
    },
    {
      "channel": 5,
      "note": 65,
      "start": 78.6676,
      "duration": 0.1853,
      "velocity": 91,
      "chip": "ym2612"
    },
    {
      "channel": 4,
      "note": 56,
      "start": 78.8697,
      "duration": 0.1853,
      "velocity": 91,
      "chip": "ym2612"
    },
    {
      "channel": 5,
      "note": 68,
      "start": 78.8699,
      "duration": 0.1852,
      "velocity": 91,
      "chip": "ym2612"
    },
    {
      "channel": 4,
      "note": 55,
      "start": 79.0721,
      "duration": 0.1852,
      "velocity": 91,
      "chip": "ym2612"
    },
    {
      "channel": 5,
      "note": 67,
      "start": 79.0722,
      "duration": 0.1852,
      "velocity": 91,
      "chip": "ym2612"
    },
    {
      "channel": 3,
      "note": 33,
      "start": 79.2742,
      "duration": 0.1178,
      "velocity": 127,
      "chip": "ym2612"
    },
    {
      "channel": 4,
      "note": 80,
      "start": 79.2759,
      "duration": 0.1835,
      "velocity": 127,
      "chip": "ym2612"
    },
    {
      "channel": 3,
      "note": 33,
      "start": 79.4089,
      "duration": 0.118,
      "velocity": 127,
      "chip": "ym2612"
    },
    {
      "channel": 4,
      "note": 80,
      "start": 79.4763,
      "duration": 0.1855,
      "velocity": 127,
      "chip": "ym2612"
    },
    {
      "channel": 3,
      "note": 33,
      "start": 79.5437,
      "duration": 0.1179,
      "velocity": 127,
      "chip": "ym2612"
    },
    {
      "channel": 1,
      "note": 91,
      "start": 79.6787,
      "duration": 0.1852,
      "velocity": 97,
      "chip": "ym2612"
    },
    {
      "channel": 3,
      "note": 33,
      "start": 79.6792,
      "duration": 0.3533,
      "velocity": 127,
      "chip": "ym2612"
    },
    {
      "channel": 4,
      "note": 80,
      "start": 79.6808,
      "duration": 0.3518,
      "velocity": 127,
      "chip": "ym2612"
    },
    {
      "channel": 1,
      "note": 90,
      "start": 79.8809,
      "duration": 0.1853,
      "velocity": 97,
      "chip": "ym2612"
    },
    {
      "channel": 2,
      "note": 88,
      "start": 79.8811,
      "duration": 0.1852,
      "velocity": 97,
      "chip": "ym2612"
    },
    {
      "channel": 1,
      "note": 88,
      "start": 80.0831,
      "duration": 2.2246,
      "velocity": 97,
      "chip": "ym2612"
    },
    {
      "channel": 2,
      "note": 87,
      "start": 80.0832,
      "duration": 0.1852,
      "velocity": 97,
      "chip": "ym2612"
    },
    {
      "channel": 3,
      "note": 33,
      "start": 80.0834,
      "duration": 0.1176,
      "velocity": 127,
      "chip": "ym2612"
    },
    {
      "channel": 4,
      "note": 80,
      "start": 80.085,
      "duration": 0.1835,
      "velocity": 127,
      "chip": "ym2612"
    },
    {
      "channel": 3,
      "note": 33,
      "start": 80.2178,
      "duration": 0.118,
      "velocity": 127,
      "chip": "ym2612"
    },
    {
      "channel": 2,
      "note": 86,
      "start": 80.2854,
      "duration": 2.2248,
      "velocity": 97,
      "chip": "ym2612"
    },
    {
      "channel": 4,
      "note": 80,
      "start": 80.2855,
      "duration": 0.1854,
      "velocity": 127,
      "chip": "ym2612"
    },
    {
      "channel": 3,
      "note": 33,
      "start": 80.3527,
      "duration": 0.1181,
      "velocity": 127,
      "chip": "ym2612"
    },
    {
      "channel": 3,
      "note": 33,
      "start": 80.4875,
      "duration": 0.3539,
      "velocity": 127,
      "chip": "ym2612"
    },
    {
      "channel": 4,
      "note": 80,
      "start": 80.4891,
      "duration": 0.3525,
      "velocity": 127,
      "chip": "ym2612"
    },
    {
      "channel": 3,
      "note": 33,
      "start": 80.892,
      "duration": 0.7078,
      "velocity": 127,
      "chip": "ym2612"
    },
    {
      "channel": 4,
      "note": 49,
      "start": 80.8937,
      "duration": 0.1838,
      "velocity": 91,
      "chip": "ym2612"
    },
    {
      "channel": 5,
      "note": 61,
      "start": 80.8939,
      "duration": 0.1837,
      "velocity": 91,
      "chip": "ym2612"
    },
    {
      "channel": 4,
      "note": 49,
      "start": 81.0943,
      "duration": 0.1854,
      "velocity": 91,
      "chip": "ym2612"
    },
    {
      "channel": 5,
      "note": 61,
      "start": 81.0944,
      "duration": 0.1854,
      "velocity": 91,
      "chip": "ym2612"
    },
    {
      "channel": 4,
      "note": 49,
      "start": 81.2966,
      "duration": 0.1853,
      "velocity": 91,
      "chip": "ym2612"
    },
    {
      "channel": 5,
      "note": 61,
      "start": 81.2967,
      "duration": 0.1853,
      "velocity": 91,
      "chip": "ym2612"
    },
    {
      "channel": 4,
      "note": 49,
      "start": 81.4988,
      "duration": 0.1854,
      "velocity": 91,
      "chip": "ym2612"
    },
    {
      "channel": 5,
      "note": 61,
      "start": 81.4989,
      "duration": 0.1854,
      "velocity": 91,
      "chip": "ym2612"
    },
    {
      "channel": 3,
      "note": 33,
      "start": 81.7009,
      "duration": 0.7079,
      "velocity": 127,
      "chip": "ym2612"
    },
    {
      "channel": 4,
      "note": 49,
      "start": 81.7011,
      "duration": 0.1853,
      "velocity": 91,
      "chip": "ym2612"
    },
    {
      "channel": 5,
      "note": 61,
      "start": 81.7012,
      "duration": 0.1853,
      "velocity": 91,
      "chip": "ym2612"
    },
    {
      "channel": 4,
      "note": 53,
      "start": 81.9033,
      "duration": 0.1853,
      "velocity": 91,
      "chip": "ym2612"
    },
    {
      "channel": 5,
      "note": 65,
      "start": 81.9035,
      "duration": 0.1853,
      "velocity": 91,
      "chip": "ym2612"
    },
    {
      "channel": 4,
      "note": 56,
      "start": 82.1055,
      "duration": 0.1854,
      "velocity": 91,
      "chip": "ym2612"
    },
    {
      "channel": 5,
      "note": 68,
      "start": 82.1057,
      "duration": 0.1853,
      "velocity": 91,
      "chip": "ym2612"
    },
    {
      "channel": 4,
      "note": 55,
      "start": 82.3079,
      "duration": 0.1852,
      "velocity": 91,
      "chip": "ym2612"
    },
    {
      "channel": 5,
      "note": 67,
      "start": 82.308,
      "duration": 0.1851,
      "velocity": 91,
      "chip": "ym2612"
    },
    {
      "channel": 1,
      "note": 109,
      "start": 82.51,
      "duration": 0.0842,
      "velocity": 97,
      "chip": "ym2612"
    },
    {
      "channel": 3,
      "note": 33,
      "start": 82.5103,
      "duration": 0.7079,
      "velocity": 127,
      "chip": "ym2612"
    },
    {
      "channel": 4,
      "note": 80,
      "start": 82.512,
      "duration": 0.1839,
      "velocity": 127,
      "chip": "ym2612"
    },
    {
      "channel": 1,
      "note": 108,
      "start": 82.611,
      "duration": 0.0844,
      "velocity": 97,
      "chip": "ym2612"
    },
    {
      "channel": 1,
      "note": 107,
      "start": 82.7127,
      "duration": 0.0837,
      "velocity": 97,
      "chip": "ym2612"
    },
    {
      "channel": 2,
      "note": 106,
      "start": 82.7129,
      "duration": 0.0837,
      "velocity": 97,
      "chip": "ym2612"
    },
    {
      "channel": 4,
      "note": 80,
      "start": 82.7131,
      "duration": 0.1847,
      "velocity": 127,
      "chip": "ym2612"
    },
    {
      "channel": 1,
      "note": 106,
      "start": 82.8133,
      "duration": 0.0842,
      "velocity": 97,
      "chip": "ym2612"
    },
    {
      "channel": 2,
      "note": 105,
      "start": 82.8135,
      "duration": 0.0841,
      "velocity": 97,
      "chip": "ym2612"
    },
    {
      "channel": 1,
      "note": 105,
      "start": 82.9144,
      "duration": 0.0842,
      "velocity": 97,
      "chip": "ym2612"
    },
    {
      "channel": 2,
      "note": 104,
      "start": 82.9146,
      "duration": 0.0842,
      "velocity": 97,
      "chip": "ym2612"
    },
    {
      "channel": 4,
      "note": 80,
      "start": 82.9162,
      "duration": 0.3522,
      "velocity": 127,
      "chip": "ym2612"
    },
    {
      "channel": 1,
      "note": 104,
      "start": 83.0156,
      "duration": 0.0841,
      "velocity": 97,
      "chip": "ym2612"
    },
    {
      "channel": 2,
      "note": 103,
      "start": 83.0158,
      "duration": 0.084,
      "velocity": 97,
      "chip": "ym2612"
    },
    {
      "channel": 1,
      "note": 103,
      "start": 83.1167,
      "duration": 0.0841,
      "velocity": 97,
      "chip": "ym2612"
    },
    {
      "channel": 2,
      "note": 102,
      "start": 83.1169,
      "duration": 0.0841,
      "velocity": 97,
      "chip": "ym2612"
    },
    {
      "channel": 1,
      "note": 102,
      "start": 83.2178,
      "duration": 0.0842,
      "velocity": 97,
      "chip": "ym2612"
    },
    {
      "channel": 2,
      "note": 101,
      "start": 83.218,
      "duration": 0.0841,
      "velocity": 97,
      "chip": "ym2612"
    },
    {
      "channel": 1,
      "note": 101,
      "start": 83.319,
      "duration": 0.0841,
      "velocity": 97,
      "chip": "ym2612"
    },
    {
      "channel": 2,
      "note": 100,
      "start": 83.3192,
      "duration": 0.0841,
      "velocity": 97,
      "chip": "ym2612"
    },
    {
      "channel": 3,
      "note": 33,
      "start": 83.3193,
      "duration": 0.7078,
      "velocity": 127,
      "chip": "ym2612"
    },
    {
      "channel": 4,
      "note": 80,
      "start": 83.3209,
      "duration": 0.1837,
      "velocity": 127,
      "chip": "ym2612"
    },
    {
      "channel": 1,
      "note": 100,
      "start": 83.42,
      "duration": 0.0842,
      "velocity": 97,
      "chip": "ym2612"
    },
    {
      "channel": 2,
      "note": 99,
      "start": 83.4202,
      "duration": 0.0842,
      "velocity": 97,
      "chip": "ym2612"
    },
    {
      "channel": 1,
      "note": 99,
      "start": 83.5212,
      "duration": 0.0842,
      "velocity": 97,
      "chip": "ym2612"
    },
    {
      "channel": 2,
      "note": 98,
      "start": 83.5214,
      "duration": 0.0841,
      "velocity": 97,
      "chip": "ym2612"
    },
    {
      "channel": 4,
      "note": 80,
      "start": 83.5215,
      "duration": 0.1852,
      "velocity": 127,
      "chip": "ym2612"
    },
    {
      "channel": 1,
      "note": 98,
      "start": 83.6223,
      "duration": 0.0841,
      "velocity": 97,
      "chip": "ym2612"
    },
    {
      "channel": 2,
      "note": 97,
      "start": 83.6225,
      "duration": 0.0841,
      "velocity": 97,
      "chip": "ym2612"
    },
    {
      "channel": 1,
      "note": 97,
      "start": 83.7234,
      "duration": 0.0842,
      "velocity": 97,
      "chip": "ym2612"
    },
    {
      "channel": 2,
      "note": 96,
      "start": 83.7237,
      "duration": 0.0841,
      "velocity": 97,
      "chip": "ym2612"
    },
    {
      "channel": 4,
      "note": 80,
      "start": 83.7252,
      "duration": 0.3521,
      "velocity": 127,
      "chip": "ym2612"
    },
    {
      "channel": 1,
      "note": 96,
      "start": 83.8245,
      "duration": 0.0841,
      "velocity": 97,
      "chip": "ym2612"
    },
    {
      "channel": 2,
      "note": 95,
      "start": 83.8247,
      "duration": 0.0841,
      "velocity": 97,
      "chip": "ym2612"
    },
    {
      "channel": 1,
      "note": 95,
      "start": 83.9257,
      "duration": 0.0842,
      "velocity": 97,
      "chip": "ym2612"
    },
    {
      "channel": 2,
      "note": 94,
      "start": 83.9259,
      "duration": 0.0841,
      "velocity": 97,
      "chip": "ym2612"
    },
    {
      "channel": 1,
      "note": 94,
      "start": 84.0268,
      "duration": 0.0842,
      "velocity": 97,
      "chip": "ym2612"
    },
    {
      "channel": 2,
      "note": 93,
      "start": 84.027,
      "duration": 0.0842,
      "velocity": 97,
      "chip": "ym2612"
    },
    {
      "channel": 3,
      "note": 33,
      "start": 84.1279,
      "duration": 0.7078,
      "velocity": 127,
      "chip": "ym2612"
    },
    {
      "channel": 4,
      "note": 49,
      "start": 84.1299,
      "duration": 0.1833,
      "velocity": 91,
      "chip": "ym2612"
    },
    {
      "channel": 5,
      "note": 61,
      "start": 84.1301,
      "duration": 0.1833,
      "velocity": 91,
      "chip": "ym2612"
    },
    {
      "channel": 4,
      "note": 49,
      "start": 84.3302,
      "duration": 0.1853,
      "velocity": 91,
      "chip": "ym2612"
    },
    {
      "channel": 5,
      "note": 61,
      "start": 84.3303,
      "duration": 0.1853,
      "velocity": 91,
      "chip": "ym2612"
    },
    {
      "channel": 4,
      "note": 49,
      "start": 84.5324,
      "duration": 0.1853,
      "velocity": 91,
      "chip": "ym2612"
    },
    {
      "channel": 5,
      "note": 61,
      "start": 84.5325,
      "duration": 0.1853,
      "velocity": 91,
      "chip": "ym2612"
    },
    {
      "channel": 4,
      "note": 49,
      "start": 84.7346,
      "duration": 0.1854,
      "velocity": 91,
      "chip": "ym2612"
    },
    {
      "channel": 5,
      "note": 61,
      "start": 84.7348,
      "duration": 0.1854,
      "velocity": 91,
      "chip": "ym2612"
    },
    {
      "channel": 3,
      "note": 33,
      "start": 84.9368,
      "duration": 0.7079,
      "velocity": 127,
      "chip": "ym2612"
    },
    {
      "channel": 4,
      "note": 49,
      "start": 84.9369,
      "duration": 0.1853,
      "velocity": 91,
      "chip": "ym2612"
    },
    {
      "channel": 5,
      "note": 61,
      "start": 84.9371,
      "duration": 0.1853,
      "velocity": 91,
      "chip": "ym2612"
    },
    {
      "channel": 4,
      "note": 53,
      "start": 85.1392,
      "duration": 0.1853,
      "velocity": 91,
      "chip": "ym2612"
    },
    {
      "channel": 5,
      "note": 65,
      "start": 85.1394,
      "duration": 0.1852,
      "velocity": 91,
      "chip": "ym2612"
    },
    {
      "channel": 4,
      "note": 56,
      "start": 85.3414,
      "duration": 0.1853,
      "velocity": 91,
      "chip": "ym2612"
    },
    {
      "channel": 5,
      "note": 68,
      "start": 85.3416,
      "duration": 0.1852,
      "velocity": 91,
      "chip": "ym2612"
    },
    {
      "channel": 4,
      "note": 55,
      "start": 85.5436,
      "duration": 0.1857,
      "velocity": 91,
      "chip": "ym2612"
    },
    {
      "channel": 5,
      "note": 67,
      "start": 85.5438,
      "duration": 0.1856,
      "velocity": 91,
      "chip": "ym2612"
    },
    {
      "channel": 3,
      "note": 33,
      "start": 85.746,
      "duration": 0.7076,
      "velocity": 127,
      "chip": "ym2612"
    },
    {
      "channel": 4,
      "note": 80,
      "start": 85.7477,
      "duration": 0.1835,
      "velocity": 127,
      "chip": "ym2612"
    },
    {
      "channel": 4,
      "note": 80,
      "start": 85.9481,
      "duration": 0.1854,
      "velocity": 127,
      "chip": "ym2612"
    },
    {
      "channel": 4,
      "note": 80,
      "start": 86.1518,
      "duration": 0.3524,
      "velocity": 127,
      "chip": "ym2612"
    },
    {
      "channel": 3,
      "note": 33,
      "start": 86.5548,
      "duration": 0.7078,
      "velocity": 127,
      "chip": "ym2612"
    },
    {
      "channel": 4,
      "note": 80,
      "start": 86.5564,
      "duration": 0.1838,
      "velocity": 127,
      "chip": "ym2612"
    },
    {
      "channel": 4,
      "note": 80,
      "start": 86.757,
      "duration": 0.1854,
      "velocity": 127,
      "chip": "ym2612"
    },
    {
      "channel": 4,
      "note": 80,
      "start": 86.9607,
      "duration": 0.3526,
      "velocity": 127,
      "chip": "ym2612"
    },
    {
      "channel": 3,
      "note": 33,
      "start": 87.3638,
      "duration": 0.7078,
      "velocity": 127,
      "chip": "ym2612"
    },
    {
      "channel": 4,
      "note": 49,
      "start": 87.3654,
      "duration": 0.1837,
      "velocity": 91,
      "chip": "ym2612"
    },
    {
      "channel": 5,
      "note": 61,
      "start": 87.3656,
      "duration": 0.1836,
      "velocity": 91,
      "chip": "ym2612"
    },
    {
      "channel": 4,
      "note": 49,
      "start": 87.566,
      "duration": 0.1854,
      "velocity": 91,
      "chip": "ym2612"
    },
    {
      "channel": 5,
      "note": 61,
      "start": 87.5661,
      "duration": 0.1854,
      "velocity": 91,
      "chip": "ym2612"
    },
    {
      "channel": 4,
      "note": 49,
      "start": 87.7682,
      "duration": 0.1854,
      "velocity": 91,
      "chip": "ym2612"
    },
    {
      "channel": 5,
      "note": 61,
      "start": 87.7684,
      "duration": 0.1854,
      "velocity": 91,
      "chip": "ym2612"
    },
    {
      "channel": 4,
      "note": 49,
      "start": 87.9705,
      "duration": 0.1854,
      "velocity": 91,
      "chip": "ym2612"
    },
    {
      "channel": 5,
      "note": 61,
      "start": 87.9706,
      "duration": 0.1854,
      "velocity": 91,
      "chip": "ym2612"
    },
    {
      "channel": 3,
      "note": 33,
      "start": 88.1727,
      "duration": 0.7078,
      "velocity": 127,
      "chip": "ym2612"
    },
    {
      "channel": 4,
      "note": 49,
      "start": 88.1728,
      "duration": 0.1853,
      "velocity": 91,
      "chip": "ym2612"
    },
    {
      "channel": 5,
      "note": 61,
      "start": 88.1729,
      "duration": 0.1853,
      "velocity": 91,
      "chip": "ym2612"
    },
    {
      "channel": 4,
      "note": 53,
      "start": 88.375,
      "duration": 0.1853,
      "velocity": 91,
      "chip": "ym2612"
    },
    {
      "channel": 5,
      "note": 65,
      "start": 88.3752,
      "duration": 0.1852,
      "velocity": 91,
      "chip": "ym2612"
    },
    {
      "channel": 4,
      "note": 56,
      "start": 88.5773,
      "duration": 0.1854,
      "velocity": 91,
      "chip": "ym2612"
    },
    {
      "channel": 5,
      "note": 68,
      "start": 88.5775,
      "duration": 0.1853,
      "velocity": 91,
      "chip": "ym2612"
    },
    {
      "channel": 4,
      "note": 55,
      "start": 88.7795,
      "duration": 0.1853,
      "velocity": 91,
      "chip": "ym2612"
    },
    {
      "channel": 5,
      "note": 67,
      "start": 88.7797,
      "duration": 0.1852,
      "velocity": 91,
      "chip": "ym2612"
    },
    {
      "channel": 1,
      "note": 109,
      "start": 88.9818,
      "duration": 0.0841,
      "velocity": 97,
      "chip": "ym2612"
    },
    {
      "channel": 3,
      "note": 33,
      "start": 88.9819,
      "duration": 0.3537,
      "velocity": 127,
      "chip": "ym2612"
    },
    {
      "channel": 1,
      "note": 107,
      "start": 89.0829,
      "duration": 0.0842,
      "velocity": 97,
      "chip": "ym2612"
    },
    {
      "channel": 1,
      "note": 105,
      "start": 89.184,
      "duration": 0.0841,
      "velocity": 97,
      "chip": "ym2612"
    },
    {
      "channel": 2,
      "note": 106,
      "start": 89.1842,
      "duration": 0.084,
      "velocity": 97,
      "chip": "ym2612"
    },
    {
      "channel": 1,
      "note": 104,
      "start": 89.285,
      "duration": 0.0842,
      "velocity": 97,
      "chip": "ym2612"
    },
    {
      "channel": 2,
      "note": 104,
      "start": 89.2852,
      "duration": 0.0842,
      "velocity": 97,
      "chip": "ym2612"
    },
    {
      "channel": 1,
      "note": 85,
      "start": 89.3862,
      "duration": 0.0842,
      "velocity": 97,
      "chip": "ym2612"
    },
    {
      "channel": 2,
      "note": 102,
      "start": 89.3864,
      "duration": 0.0841,
      "velocity": 97,
      "chip": "ym2612"
    },
    {
      "channel": 3,
      "note": 33,
      "start": 89.3865,
      "duration": 0.1853,
      "velocity": 127,
      "chip": "ym2612"
    },
    {
      "channel": 4,
      "note": 49,
      "start": 89.3868,
      "duration": 0.1852,
      "velocity": 91,
      "chip": "ym2612"
    },
    {
      "channel": 5,
      "note": 61,
      "start": 89.3869,
      "duration": 0.1851,
      "velocity": 91,
      "chip": "ym2612"
    },
    {
      "channel": 1,
      "note": 83,
      "start": 89.4873,
      "duration": 0.0842,
      "velocity": 97,
      "chip": "ym2612"
    },
    {
      "channel": 2,
      "note": 101,
      "start": 89.4875,
      "duration": 0.0842,
      "velocity": 97,
      "chip": "ym2612"
    },
    {
      "channel": 1,
      "note": 81,
      "start": 89.5884,
      "duration": 0.0843,
      "velocity": 97,
      "chip": "ym2612"
    },
    {
      "channel": 2,
      "note": 82,
      "start": 89.5886,
      "duration": 0.0842,
      "velocity": 97,
      "chip": "ym2612"
    },
    {
      "channel": 3,
      "note": 33,
      "start": 89.5887,
      "duration": 0.1853,
      "velocity": 127,
      "chip": "ym2612"
    },
    {
      "channel": 4,
      "note": 49,
      "start": 89.5888,
      "duration": 0.1853,
      "velocity": 91,
      "chip": "ym2612"
    },
    {
      "channel": 5,
      "note": 61,
      "start": 89.589,
      "duration": 0.1853,
      "velocity": 91,
      "chip": "ym2612"
    },
    {
      "channel": 1,
      "note": 80,
      "start": 89.6896,
      "duration": 0.0841,
      "velocity": 97,
      "chip": "ym2612"
    },
    {
      "channel": 2,
      "note": 80,
      "start": 89.6898,
      "duration": 0.0841,
      "velocity": 97,
      "chip": "ym2612"
    },
    {
      "channel": 1,
      "note": 107,
      "start": 89.7906,
      "duration": 0.0842,
      "velocity": 97,
      "chip": "ym2612"
    },
    {
      "channel": 2,
      "note": 78,
      "start": 89.7908,
      "duration": 0.0842,
      "velocity": 97,
      "chip": "ym2612"
    },
    {
      "channel": 3,
      "note": 45,
      "start": 89.7925,
      "duration": 0.7063,
      "velocity": 127,
      "chip": "ym2612"
    },
    {
      "channel": 4,
      "note": 61,
      "start": 89.7927,
      "duration": 0.7062,
      "velocity": 91,
      "chip": "ym2612"
    },
    {
      "channel": 5,
      "note": 73,
      "start": 89.7929,
      "duration": 0.7062,
      "velocity": 91,
      "chip": "ym2612"
    },
    {
      "channel": 1,
      "note": 105,
      "start": 89.8918,
      "duration": 0.0841,
      "velocity": 97,
      "chip": "ym2612"
    },
    {
      "channel": 2,
      "note": 77,
      "start": 89.892,
      "duration": 0.0841,
      "velocity": 97,
      "chip": "ym2612"
    },
    {
      "channel": 1,
      "note": 104,
      "start": 89.9929,
      "duration": 0.0841,
      "velocity": 97,
      "chip": "ym2612"
    },
    {
      "channel": 2,
      "note": 104,
      "start": 89.9931,
      "duration": 0.0841,
      "velocity": 97,
      "chip": "ym2612"
    },
    {
      "channel": 1,
      "note": 102,
      "start": 90.094,
      "duration": 0.0843,
      "velocity": 97,
      "chip": "ym2612"
    },
    {
      "channel": 2,
      "note": 102,
      "start": 90.0942,
      "duration": 0.0842,
      "velocity": 97,
      "chip": "ym2612"
    },
    {
      "channel": 1,
      "note": 83,
      "start": 90.1952,
      "duration": 0.0841,
      "velocity": 97,
      "chip": "ym2612"
    },
    {
      "channel": 2,
      "note": 101,
      "start": 90.1958,
      "duration": 0.0837,
      "velocity": 97,
      "chip": "ym2612"
    },
    {
      "channel": 1,
      "note": 81,
      "start": 90.2963,
      "duration": 0.0842,
      "velocity": 97,
      "chip": "ym2612"
    },
    {
      "channel": 2,
      "note": 99,
      "start": 90.2965,
      "duration": 0.0841,
      "velocity": 97,
      "chip": "ym2612"
    },
    {
      "channel": 1,
      "note": 80,
      "start": 90.3974,
      "duration": 0.0842,
      "velocity": 97,
      "chip": "ym2612"
    },
    {
      "channel": 2,
      "note": 80,
      "start": 90.3976,
      "duration": 0.0842,
      "velocity": 97,
      "chip": "ym2612"
    },
    {
      "channel": 1,
      "note": 78,
      "start": 90.4986,
      "duration": 4.7526,
      "velocity": 97,
      "chip": "ym2612"
    },
    {
      "channel": 2,
      "note": 78,
      "start": 90.4988,
      "duration": 0.084,
      "velocity": 97,
      "chip": "ym2612"
    },
    {
      "channel": 2,
      "note": 77,
      "start": 90.5997,
      "duration": 0.0842,
      "velocity": 97,
      "chip": "ym2612"
    },
    {
      "channel": 3,
      "note": 33,
      "start": 90.6013,
      "duration": 0.7061,
      "velocity": 127,
      "chip": "ym2612"
    },
    {
      "channel": 4,
      "note": 49,
      "start": 90.6015,
      "duration": 0.1835,
      "velocity": 91,
      "chip": "ym2612"
    },
    {
      "channel": 5,
      "note": 61,
      "start": 90.6017,
      "duration": 0.1834,
      "velocity": 91,
      "chip": "ym2612"
    },
    {
      "channel": 2,
      "note": 75,
      "start": 90.7007,
      "duration": 4.7528,
      "velocity": 97,
      "chip": "ym2612"
    },
    {
      "channel": 4,
      "note": 49,
      "start": 90.8018,
      "duration": 0.1854,
      "velocity": 91,
      "chip": "ym2612"
    },
    {
      "channel": 5,
      "note": 61,
      "start": 90.802,
      "duration": 0.1854,
      "velocity": 91,
      "chip": "ym2612"
    },
    {
      "channel": 4,
      "note": 49,
      "start": 91.0041,
      "duration": 0.1854,
      "velocity": 91,
      "chip": "ym2612"
    },
    {
      "channel": 5,
      "note": 61,
      "start": 91.0042,
      "duration": 0.1854,
      "velocity": 91,
      "chip": "ym2612"
    },
    {
      "channel": 4,
      "note": 49,
      "start": 91.2063,
      "duration": 0.1854,
      "velocity": 91,
      "chip": "ym2612"
    },
    {
      "channel": 5,
      "note": 61,
      "start": 91.2065,
      "duration": 0.1854,
      "velocity": 91,
      "chip": "ym2612"
    },
    {
      "channel": 3,
      "note": 33,
      "start": 91.4086,
      "duration": 0.7079,
      "velocity": 127,
      "chip": "ym2612"
    },
    {
      "channel": 4,
      "note": 49,
      "start": 91.4087,
      "duration": 0.1853,
      "velocity": 91,
      "chip": "ym2612"
    },
    {
      "channel": 5,
      "note": 61,
      "start": 91.4088,
      "duration": 0.1853,
      "velocity": 91,
      "chip": "ym2612"
    },
    {
      "channel": 4,
      "note": 53,
      "start": 91.6109,
      "duration": 0.1853,
      "velocity": 91,
      "chip": "ym2612"
    },
    {
      "channel": 5,
      "note": 65,
      "start": 91.611,
      "duration": 0.1852,
      "velocity": 91,
      "chip": "ym2612"
    },
    {
      "channel": 4,
      "note": 56,
      "start": 91.8132,
      "duration": 0.1852,
      "velocity": 91,
      "chip": "ym2612"
    },
    {
      "channel": 5,
      "note": 68,
      "start": 91.8133,
      "duration": 0.1852,
      "velocity": 91,
      "chip": "ym2612"
    },
    {
      "channel": 4,
      "note": 55,
      "start": 92.0154,
      "duration": 0.1853,
      "velocity": 91,
      "chip": "ym2612"
    },
    {
      "channel": 5,
      "note": 67,
      "start": 92.0156,
      "duration": 0.1853,
      "velocity": 91,
      "chip": "ym2612"
    },
    {
      "channel": 3,
      "note": 33,
      "start": 92.2175,
      "duration": 0.7078,
      "velocity": 127,
      "chip": "ym2612"
    },
    {
      "channel": 4,
      "note": 80,
      "start": 92.2192,
      "duration": 0.1838,
      "velocity": 127,
      "chip": "ym2612"
    },
    {
      "channel": 4,
      "note": 80,
      "start": 92.4198,
      "duration": 0.1854,
      "velocity": 127,
      "chip": "ym2612"
    },
    {
      "channel": 4,
      "note": 80,
      "start": 92.6235,
      "duration": 0.3525,
      "velocity": 127,
      "chip": "ym2612"
    },
    {
      "channel": 3,
      "note": 33,
      "start": 93.0265,
      "duration": 0.7079,
      "velocity": 127,
      "chip": "ym2612"
    },
    {
      "channel": 4,
      "note": 80,
      "start": 93.0281,
      "duration": 0.1838,
      "velocity": 127,
      "chip": "ym2612"
    },
    {
      "channel": 4,
      "note": 80,
      "start": 93.2293,
      "duration": 0.1849,
      "velocity": 127,
      "chip": "ym2612"
    },
    {
      "channel": 4,
      "note": 80,
      "start": 93.4325,
      "duration": 0.3524,
      "velocity": 127,
      "chip": "ym2612"
    },
    {
      "channel": 3,
      "note": 33,
      "start": 93.8355,
      "duration": 0.7078,
      "velocity": 127,
      "chip": "ym2612"
    },
    {
      "channel": 4,
      "note": 49,
      "start": 93.8371,
      "duration": 0.1838,
      "velocity": 91,
      "chip": "ym2612"
    },
    {
      "channel": 5,
      "note": 61,
      "start": 93.8373,
      "duration": 0.1837,
      "velocity": 91,
      "chip": "ym2612"
    },
    {
      "channel": 4,
      "note": 49,
      "start": 94.0378,
      "duration": 0.1853,
      "velocity": 91,
      "chip": "ym2612"
    },
    {
      "channel": 5,
      "note": 61,
      "start": 94.0379,
      "duration": 0.1853,
      "velocity": 91,
      "chip": "ym2612"
    },
    {
      "channel": 4,
      "note": 49,
      "start": 94.24,
      "duration": 0.1854,
      "velocity": 91,
      "chip": "ym2612"
    },
    {
      "channel": 5,
      "note": 61,
      "start": 94.2401,
      "duration": 0.1854,
      "velocity": 91,
      "chip": "ym2612"
    },
    {
      "channel": 4,
      "note": 49,
      "start": 94.4422,
      "duration": 0.1854,
      "velocity": 91,
      "chip": "ym2612"
    },
    {
      "channel": 5,
      "note": 61,
      "start": 94.4423,
      "duration": 0.1854,
      "velocity": 91,
      "chip": "ym2612"
    },
    {
      "channel": 3,
      "note": 33,
      "start": 94.6444,
      "duration": 0.7078,
      "velocity": 127,
      "chip": "ym2612"
    },
    {
      "channel": 4,
      "note": 49,
      "start": 94.6446,
      "duration": 0.1852,
      "velocity": 91,
      "chip": "ym2612"
    },
    {
      "channel": 5,
      "note": 61,
      "start": 94.6447,
      "duration": 0.1852,
      "velocity": 91,
      "chip": "ym2612"
    },
    {
      "channel": 4,
      "note": 53,
      "start": 94.8467,
      "duration": 0.1853,
      "velocity": 91,
      "chip": "ym2612"
    },
    {
      "channel": 5,
      "note": 65,
      "start": 94.8469,
      "duration": 0.1853,
      "velocity": 91,
      "chip": "ym2612"
    },
    {
      "channel": 4,
      "note": 56,
      "start": 95.049,
      "duration": 0.1854,
      "velocity": 91,
      "chip": "ym2612"
    },
    {
      "channel": 5,
      "note": 68,
      "start": 95.0492,
      "duration": 0.1853,
      "velocity": 91,
      "chip": "ym2612"
    },
    {
      "channel": 4,
      "note": 55,
      "start": 95.2514,
      "duration": 0.1852,
      "velocity": 91,
      "chip": "ym2612"
    },
    {
      "channel": 5,
      "note": 67,
      "start": 95.2516,
      "duration": 0.1851,
      "velocity": 91,
      "chip": "ym2612"
    },
    {
      "channel": 1,
      "note": 73,
      "start": 95.4534,
      "duration": 0.1853,
      "velocity": 97,
      "chip": "ym2612"
    },
    {
      "channel": 3,
      "note": 33,
      "start": 95.4537,
      "duration": 0.7076,
      "velocity": 127,
      "chip": "ym2612"
    },
    {
      "channel": 4,
      "note": 80,
      "start": 95.4554,
      "duration": 0.1834,
      "velocity": 127,
      "chip": "ym2612"
    },
    {
      "channel": 1,
      "note": 97,
      "start": 95.6557,
      "duration": 0.1853,
      "velocity": 97,
      "chip": "ym2612"
    },
    {
      "channel": 2,
      "note": 70,
      "start": 95.6559,
      "duration": 0.1852,
      "velocity": 97,
      "chip": "ym2612"
    },
    {
      "channel": 4,
      "note": 80,
      "start": 95.656,
      "duration": 0.1852,
      "velocity": 127,
      "chip": "ym2612"
    },
    {
      "channel": 1,
      "note": 75,
      "start": 95.8579,
      "duration": 0.1853,
      "velocity": 97,
      "chip": "ym2612"
    },
    {
      "channel": 2,
      "note": 94,
      "start": 95.8581,
      "duration": 0.1852,
      "velocity": 97,
      "chip": "ym2612"
    },
    {
      "channel": 4,
      "note": 80,
      "start": 95.8597,
      "duration": 0.3521,
      "velocity": 127,
      "chip": "ym2612"
    },
    {
      "channel": 1,
      "note": 99,
      "start": 96.0602,
      "duration": 0.1858,
      "velocity": 97,
      "chip": "ym2612"
    },
    {
      "channel": 2,
      "note": 72,
      "start": 96.0603,
      "duration": 0.1858,
      "velocity": 97,
      "chip": "ym2612"
    },
    {
      "channel": 1,
      "note": 76,
      "start": 96.2627,
      "duration": 0.185,
      "velocity": 97,
      "chip": "ym2612"
    },
    {
      "channel": 2,
      "note": 96,
      "start": 96.2629,
      "duration": 0.1849,
      "velocity": 97,
      "chip": "ym2612"
    },
    {
      "channel": 3,
      "note": 33,
      "start": 96.263,
      "duration": 0.7072,
      "velocity": 127,
      "chip": "ym2612"
    },
    {
      "channel": 4,
      "note": 80,
      "start": 96.2647,
      "duration": 0.1833,
      "velocity": 127,
      "chip": "ym2612"
    },
    {
      "channel": 1,
      "note": 100,
      "start": 96.4647,
      "duration": 0.1852,
      "velocity": 97,
      "chip": "ym2612"
    },
    {
      "channel": 2,
      "note": 73,
      "start": 96.4649,
      "duration": 0.1852,
      "velocity": 97,
      "chip": "ym2612"
    },
    {
      "channel": 4,
      "note": 80,
      "start": 96.465,
      "duration": 0.1852,
      "velocity": 127,
      "chip": "ym2612"
    },
    {
      "channel": 1,
      "note": 78,
      "start": 96.6669,
      "duration": 0.1853,
      "velocity": 97,
      "chip": "ym2612"
    },
    {
      "channel": 2,
      "note": 97,
      "start": 96.6671,
      "duration": 0.1852,
      "velocity": 97,
      "chip": "ym2612"
    },
    {
      "channel": 4,
      "note": 80,
      "start": 96.6687,
      "duration": 0.3521,
      "velocity": 127,
      "chip": "ym2612"
    },
    {
      "channel": 1,
      "note": 102,
      "start": 96.8691,
      "duration": 4.8537,
      "velocity": 97,
      "chip": "ym2612"
    },
    {
      "channel": 2,
      "note": 75,
      "start": 96.8693,
      "duration": 0.1852,
      "velocity": 97,
      "chip": "ym2612"
    },
    {
      "channel": 2,
      "note": 99,
      "start": 97.0714,
      "duration": 4.8539,
      "velocity": 97,
      "chip": "ym2612"
    },
    {
      "channel": 3,
      "note": 33,
      "start": 97.0715,
      "duration": 0.7078,
      "velocity": 127,
      "chip": "ym2612"
    },
    {
      "channel": 4,
      "note": 49,
      "start": 97.0732,
      "duration": 0.1835,
      "velocity": 91,
      "chip": "ym2612"
    },
    {
      "channel": 5,
      "note": 61,
      "start": 97.0734,
      "duration": 0.1835,
      "velocity": 91,
      "chip": "ym2612"
    },
    {
      "channel": 4,
      "note": 49,
      "start": 97.2736,
      "duration": 0.1854,
      "velocity": 91,
      "chip": "ym2612"
    },
    {
      "channel": 5,
      "note": 61,
      "start": 97.2737,
      "duration": 0.1854,
      "velocity": 91,
      "chip": "ym2612"
    },
    {
      "channel": 4,
      "note": 49,
      "start": 97.4758,
      "duration": 0.1854,
      "velocity": 91,
      "chip": "ym2612"
    },
    {
      "channel": 5,
      "note": 61,
      "start": 97.4759,
      "duration": 0.1854,
      "velocity": 91,
      "chip": "ym2612"
    },
    {
      "channel": 4,
      "note": 49,
      "start": 97.6781,
      "duration": 0.1854,
      "velocity": 91,
      "chip": "ym2612"
    },
    {
      "channel": 5,
      "note": 61,
      "start": 97.6782,
      "duration": 0.1854,
      "velocity": 91,
      "chip": "ym2612"
    },
    {
      "channel": 3,
      "note": 33,
      "start": 97.8802,
      "duration": 0.7079,
      "velocity": 127,
      "chip": "ym2612"
    },
    {
      "channel": 4,
      "note": 49,
      "start": 97.8804,
      "duration": 0.1853,
      "velocity": 91,
      "chip": "ym2612"
    },
    {
      "channel": 5,
      "note": 61,
      "start": 97.8805,
      "duration": 0.1853,
      "velocity": 91,
      "chip": "ym2612"
    },
    {
      "channel": 4,
      "note": 53,
      "start": 98.0826,
      "duration": 0.1854,
      "velocity": 91,
      "chip": "ym2612"
    },
    {
      "channel": 5,
      "note": 65,
      "start": 98.0828,
      "duration": 0.1853,
      "velocity": 91,
      "chip": "ym2612"
    },
    {
      "channel": 4,
      "note": 56,
      "start": 98.2848,
      "duration": 0.1854,
      "velocity": 91,
      "chip": "ym2612"
    },
    {
      "channel": 5,
      "note": 68,
      "start": 98.285,
      "duration": 0.1853,
      "velocity": 91,
      "chip": "ym2612"
    },
    {
      "channel": 4,
      "note": 55,
      "start": 98.4871,
      "duration": 0.1853,
      "velocity": 91,
      "chip": "ym2612"
    },
    {
      "channel": 5,
      "note": 67,
      "start": 98.4873,
      "duration": 0.1852,
      "velocity": 91,
      "chip": "ym2612"
    },
    {
      "channel": 3,
      "note": 33,
      "start": 98.6892,
      "duration": 0.7078,
      "velocity": 127,
      "chip": "ym2612"
    },
    {
      "channel": 4,
      "note": 80,
      "start": 98.691,
      "duration": 0.1837,
      "velocity": 127,
      "chip": "ym2612"
    },
    {
      "channel": 4,
      "note": 80,
      "start": 98.8915,
      "duration": 0.1854,
      "velocity": 127,
      "chip": "ym2612"
    },
    {
      "channel": 4,
      "note": 80,
      "start": 99.0953,
      "duration": 0.3524,
      "velocity": 127,
      "chip": "ym2612"
    },
    {
      "channel": 3,
      "note": 33,
      "start": 99.4982,
      "duration": 0.7079,
      "velocity": 127,
      "chip": "ym2612"
    },
    {
      "channel": 4,
      "note": 80,
      "start": 99.4998,
      "duration": 0.1838,
      "velocity": 127,
      "chip": "ym2612"
    },
    {
      "channel": 4,
      "note": 80,
      "start": 99.7005,
      "duration": 0.1854,
      "velocity": 127,
      "chip": "ym2612"
    },
    {
      "channel": 4,
      "note": 80,
      "start": 99.9042,
      "duration": 0.3524,
      "velocity": 127,
      "chip": "ym2612"
    },
    {
      "channel": 3,
      "note": 33,
      "start": 100.3072,
      "duration": 0.7079,
      "velocity": 127,
      "chip": "ym2612"
    },
    {
      "channel": 4,
      "note": 49,
      "start": 100.3088,
      "duration": 0.1838,
      "velocity": 91,
      "chip": "ym2612"
    },
    {
      "channel": 5,
      "note": 61,
      "start": 100.309,
      "duration": 0.1837,
      "velocity": 91,
      "chip": "ym2612"
    },
    {
      "channel": 4,
      "note": 49,
      "start": 100.5095,
      "duration": 0.1854,
      "velocity": 91,
      "chip": "ym2612"
    },
    {
      "channel": 5,
      "note": 61,
      "start": 100.5096,
      "duration": 0.1854,
      "velocity": 91,
      "chip": "ym2612"
    },
    {
      "channel": 4,
      "note": 49,
      "start": 100.7117,
      "duration": 0.1854,
      "velocity": 91,
      "chip": "ym2612"
    },
    {
      "channel": 5,
      "note": 61,
      "start": 100.7118,
      "duration": 0.1854,
      "velocity": 91,
      "chip": "ym2612"
    },
    {
      "channel": 4,
      "note": 49,
      "start": 100.9139,
      "duration": 0.1854,
      "velocity": 91,
      "chip": "ym2612"
    },
    {
      "channel": 5,
      "note": 61,
      "start": 100.914,
      "duration": 0.1854,
      "velocity": 91,
      "chip": "ym2612"
    },
    {
      "channel": 3,
      "note": 33,
      "start": 101.1162,
      "duration": 0.7078,
      "velocity": 127,
      "chip": "ym2612"
    },
    {
      "channel": 4,
      "note": 49,
      "start": 101.1163,
      "duration": 0.1852,
      "velocity": 91,
      "chip": "ym2612"
    },
    {
      "channel": 5,
      "note": 61,
      "start": 101.1165,
      "duration": 0.1852,
      "velocity": 91,
      "chip": "ym2612"
    },
    {
      "channel": 4,
      "note": 53,
      "start": 101.3185,
      "duration": 0.1853,
      "velocity": 91,
      "chip": "ym2612"
    },
    {
      "channel": 5,
      "note": 65,
      "start": 101.3187,
      "duration": 0.1852,
      "velocity": 91,
      "chip": "ym2612"
    },
    {
      "channel": 4,
      "note": 56,
      "start": 101.5207,
      "duration": 0.1853,
      "velocity": 91,
      "chip": "ym2612"
    },
    {
      "channel": 5,
      "note": 68,
      "start": 101.5209,
      "duration": 0.1852,
      "velocity": 91,
      "chip": "ym2612"
    },
    {
      "channel": 4,
      "note": 55,
      "start": 101.7231,
      "duration": 0.1852,
      "velocity": 91,
      "chip": "ym2612"
    },
    {
      "channel": 5,
      "note": 67,
      "start": 101.7233,
      "duration": 0.1851,
      "velocity": 91,
      "chip": "ym2612"
    },
    {
      "channel": 1,
      "note": 97,
      "start": 101.9252,
      "duration": 0.0842,
      "velocity": 97,
      "chip": "ym2612"
    },
    {
      "channel": 3,
      "note": 33,
      "start": 101.9254,
      "duration": 0.7079,
      "velocity": 127,
      "chip": "ym2612"
    },
    {
      "channel": 4,
      "note": 80,
      "start": 101.9271,
      "duration": 0.1835,
      "velocity": 127,
      "chip": "ym2612"
    },
    {
      "channel": 1,
      "note": 95,
      "start": 102.0263,
      "duration": 0.0842,
      "velocity": 97,
      "chip": "ym2612"
    },
    {
      "channel": 1,
      "note": 93,
      "start": 102.1274,
      "duration": 0.0842,
      "velocity": 97,
      "chip": "ym2612"
    },
    {
      "channel": 2,
      "note": 94,
      "start": 102.1276,
      "duration": 0.0841,
      "velocity": 97,
      "chip": "ym2612"
    },
    {
      "channel": 4,
      "note": 80,
      "start": 102.1278,
      "duration": 0.1852,
      "velocity": 127,
      "chip": "ym2612"
    },
    {
      "channel": 1,
      "note": 92,
      "start": 102.2285,
      "duration": 0.0842,
      "velocity": 97,
      "chip": "ym2612"
    },
    {
      "channel": 2,
      "note": 92,
      "start": 102.2291,
      "duration": 0.0838,
      "velocity": 97,
      "chip": "ym2612"
    },
    {
      "channel": 1,
      "note": 97,
      "start": 102.3296,
      "duration": 0.0842,
      "velocity": 97,
      "chip": "ym2612"
    },
    {
      "channel": 2,
      "note": 90,
      "start": 102.3298,
      "duration": 0.0841,
      "velocity": 97,
      "chip": "ym2612"
    },
    {
      "channel": 4,
      "note": 80,
      "start": 102.3314,
      "duration": 0.3522,
      "velocity": 127,
      "chip": "ym2612"
    },
    {
      "channel": 1,
      "note": 95,
      "start": 102.4308,
      "duration": 0.0842,
      "velocity": 97,
      "chip": "ym2612"
    },
    {
      "channel": 2,
      "note": 89,
      "start": 102.431,
      "duration": 0.0842,
      "velocity": 97,
      "chip": "ym2612"
    },
    {
      "channel": 1,
      "note": 93,
      "start": 102.5319,
      "duration": 0.0842,
      "velocity": 97,
      "chip": "ym2612"
    },
    {
      "channel": 2,
      "note": 94,
      "start": 102.5321,
      "duration": 0.0841,
      "velocity": 97,
      "chip": "ym2612"
    },
    {
      "channel": 1,
      "note": 92,
      "start": 102.6331,
      "duration": 0.0841,
      "velocity": 97,
      "chip": "ym2612"
    },
    {
      "channel": 2,
      "note": 92,
      "start": 102.6332,
      "duration": 0.0841,
      "velocity": 97,
      "chip": "ym2612"
    },
    {
      "channel": 1,
      "note": 97,
      "start": 102.7341,
      "duration": 0.0842,
      "velocity": 97,
      "chip": "ym2612"
    },
    {
      "channel": 2,
      "note": 90,
      "start": 102.7343,
      "duration": 0.0842,
      "velocity": 97,
      "chip": "ym2612"
    },
    {
      "channel": 3,
      "note": 33,
      "start": 102.7344,
      "duration": 0.7079,
      "velocity": 127,
      "chip": "ym2612"
    },
    {
      "channel": 4,
      "note": 80,
      "start": 102.7361,
      "duration": 0.1837,
      "velocity": 127,
      "chip": "ym2612"
    },
    {
      "channel": 1,
      "note": 95,
      "start": 102.8352,
      "duration": 0.0842,
      "velocity": 97,
      "chip": "ym2612"
    },
    {
      "channel": 2,
      "note": 89,
      "start": 102.8354,
      "duration": 0.0841,
      "velocity": 97,
      "chip": "ym2612"
    },
    {
      "channel": 1,
      "note": 93,
      "start": 102.9364,
      "duration": 0.0841,
      "velocity": 97,
      "chip": "ym2612"
    },
    {
      "channel": 2,
      "note": 94,
      "start": 102.9366,
      "duration": 0.0841,
      "velocity": 97,
      "chip": "ym2612"
    },
    {
      "channel": 4,
      "note": 80,
      "start": 102.9368,
      "duration": 0.1852,
      "velocity": 127,
      "chip": "ym2612"
    },
    {
      "channel": 1,
      "note": 92,
      "start": 103.0374,
      "duration": 0.0843,
      "velocity": 97,
      "chip": "ym2612"
    },
    {
      "channel": 2,
      "note": 92,
      "start": 103.0376,
      "duration": 0.0842,
      "velocity": 97,
      "chip": "ym2612"
    },
    {
      "channel": 1,
      "note": 97,
      "start": 103.1386,
      "duration": 0.0841,
      "velocity": 97,
      "chip": "ym2612"
    },
    {
      "channel": 2,
      "note": 90,
      "start": 103.1388,
      "duration": 0.0841,
      "velocity": 97,
      "chip": "ym2612"
    },
    {
      "channel": 4,
      "note": 80,
      "start": 103.1404,
      "duration": 0.3521,
      "velocity": 127,
      "chip": "ym2612"
    },
    {
      "channel": 1,
      "note": 95,
      "start": 103.2397,
      "duration": 0.0842,
      "velocity": 97,
      "chip": "ym2612"
    },
    {
      "channel": 2,
      "note": 89,
      "start": 103.2399,
      "duration": 0.0841,
      "velocity": 97,
      "chip": "ym2612"
    },
    {
      "channel": 1,
      "note": 93,
      "start": 103.3409,
      "duration": 0.0841,
      "velocity": 97,
      "chip": "ym2612"
    },
    {
      "channel": 2,
      "note": 94,
      "start": 103.3411,
      "duration": 0.0841,
      "velocity": 97,
      "chip": "ym2612"
    },
    {
      "channel": 1,
      "note": 92,
      "start": 103.442,
      "duration": 0.1011,
      "velocity": 97,
      "chip": "ym2612"
    },
    {
      "channel": 2,
      "note": 92,
      "start": 103.4422,
      "duration": 0.084,
      "velocity": 97,
      "chip": "ym2612"
    },
    {
      "channel": 1,
      "note": 97,
      "start": 103.5431,
      "duration": 1.4156,
      "velocity": 97,
      "chip": "ym2612"
    },
    {
      "channel": 2,
      "note": 90,
      "start": 103.5433,
      "duration": 0.084,
      "velocity": 97,
      "chip": "ym2612"
    },
    {
      "channel": 3,
      "note": 33,
      "start": 103.5434,
      "duration": 0.7074,
      "velocity": 127,
      "chip": "ym2612"
    },
    {
      "channel": 4,
      "note": 49,
      "start": 103.5451,
      "duration": 0.1834,
      "velocity": 91,
      "chip": "ym2612"
    },
    {
      "channel": 5,
      "note": 61,
      "start": 103.5453,
      "duration": 0.1833,
      "velocity": 91,
      "chip": "ym2612"
    },
    {
      "channel": 2,
      "note": 89,
      "start": 103.6443,
      "duration": 1.5169,
      "velocity": 97,
      "chip": "ym2612"
    },
    {
      "channel": 4,
      "note": 49,
      "start": 103.7453,
      "duration": 0.1854,
      "velocity": 91,
      "chip": "ym2612"
    },
    {
      "channel": 5,
      "note": 61,
      "start": 103.7458,
      "duration": 0.1851,
      "velocity": 91,
      "chip": "ym2612"
    },
    {
      "channel": 4,
      "note": 49,
      "start": 103.9476,
      "duration": 0.1854,
      "velocity": 91,
      "chip": "ym2612"
    },
    {
      "channel": 5,
      "note": 61,
      "start": 103.9477,
      "duration": 0.1854,
      "velocity": 91,
      "chip": "ym2612"
    },
    {
      "channel": 4,
      "note": 49,
      "start": 104.1498,
      "duration": 0.1854,
      "velocity": 91,
      "chip": "ym2612"
    },
    {
      "channel": 5,
      "note": 61,
      "start": 104.1499,
      "duration": 0.1854,
      "velocity": 91,
      "chip": "ym2612"
    },
    {
      "channel": 3,
      "note": 33,
      "start": 104.352,
      "duration": 0.7078,
      "velocity": 127,
      "chip": "ym2612"
    },
    {
      "channel": 4,
      "note": 49,
      "start": 104.3521,
      "duration": 0.1853,
      "velocity": 91,
      "chip": "ym2612"
    },
    {
      "channel": 5,
      "note": 61,
      "start": 104.3523,
      "duration": 0.1852,
      "velocity": 91,
      "chip": "ym2612"
    },
    {
      "channel": 4,
      "note": 53,
      "start": 104.5544,
      "duration": 0.1853,
      "velocity": 91,
      "chip": "ym2612"
    },
    {
      "channel": 5,
      "note": 65,
      "start": 104.5546,
      "duration": 0.1852,
      "velocity": 91,
      "chip": "ym2612"
    },
    {
      "channel": 4,
      "note": 56,
      "start": 104.7566,
      "duration": 0.1853,
      "velocity": 91,
      "chip": "ym2612"
    },
    {
      "channel": 5,
      "note": 68,
      "start": 104.7568,
      "duration": 0.1852,
      "velocity": 91,
      "chip": "ym2612"
    },
    {
      "channel": 4,
      "note": 55,
      "start": 104.959,
      "duration": 0.1852,
      "velocity": 91,
      "chip": "ym2612"
    },
    {
      "channel": 5,
      "note": 67,
      "start": 104.9591,
      "duration": 0.1851,
      "velocity": 91,
      "chip": "ym2612"
    },
    {
      "channel": 1,
      "note": 109,
      "start": 105.161,
      "duration": 0.0842,
      "velocity": 97,
      "chip": "ym2612"
    },
    {
      "channel": 3,
      "note": 33,
      "start": 105.1613,
      "duration": 0.7079,
      "velocity": 127,
      "chip": "ym2612"
    },
    {
      "channel": 4,
      "note": 80,
      "start": 105.1634,
      "duration": 0.1831,
      "velocity": 127,
      "chip": "ym2612"
    },
    {
      "channel": 1,
      "note": 104,
      "start": 105.2627,
      "duration": 0.0837,
      "velocity": 97,
      "chip": "ym2612"
    },
    {
      "channel": 1,
      "note": 100,
      "start": 105.3633,
      "duration": 0.0842,
      "velocity": 97,
      "chip": "ym2612"
    },
    {
      "channel": 2,
      "note": 106,
      "start": 105.3635,
      "duration": 0.0841,
      "velocity": 97,
      "chip": "ym2612"
    },
    {
      "channel": 4,
      "note": 80,
      "start": 105.3636,
      "duration": 0.1853,
      "velocity": 127,
      "chip": "ym2612"
    },
    {
      "channel": 1,
      "note": 97,
      "start": 105.4644,
      "duration": 0.0842,
      "velocity": 97,
      "chip": "ym2612"
    },
    {
      "channel": 2,
      "note": 101,
      "start": 105.4646,
      "duration": 0.0841,
      "velocity": 97,
      "chip": "ym2612"
    },
    {
      "channel": 1,
      "note": 92,
      "start": 105.5655,
      "duration": 0.0841,
      "velocity": 97,
      "chip": "ym2612"
    },
    {
      "channel": 2,
      "note": 97,
      "start": 105.5657,
      "duration": 0.0841,
      "velocity": 97,
      "chip": "ym2612"
    },
    {
      "channel": 4,
      "note": 80,
      "start": 105.5673,
      "duration": 0.3521,
      "velocity": 127,
      "chip": "ym2612"
    },
    {
      "channel": 1,
      "note": 88,
      "start": 105.6666,
      "duration": 0.0842,
      "velocity": 97,
      "chip": "ym2612"
    },
    {
      "channel": 2,
      "note": 94,
      "start": 105.6668,
      "duration": 0.0841,
      "velocity": 97,
      "chip": "ym2612"
    },
    {
      "channel": 1,
      "note": 85,
      "start": 105.7678,
      "duration": 0.0841,
      "velocity": 97,
      "chip": "ym2612"
    },
    {
      "channel": 2,
      "note": 89,
      "start": 105.768,
      "duration": 0.0841,
      "velocity": 97,
      "chip": "ym2612"
    },
    {
      "channel": 1,
      "note": 80,
      "start": 105.8689,
      "duration": 0.0842,
      "velocity": 97,
      "chip": "ym2612"
    },
    {
      "channel": 2,
      "note": 85,
      "start": 105.8691,
      "duration": 0.0841,
      "velocity": 97,
      "chip": "ym2612"
    },
    {
      "channel": 1,
      "note": 85,
      "start": 105.97,
      "duration": 0.0841,
      "velocity": 97,
      "chip": "ym2612"
    },
    {
      "channel": 2,
      "note": 82,
      "start": 105.9702,
      "duration": 0.0841,
      "velocity": 97,
      "chip": "ym2612"
    },
    {
      "channel": 3,
      "note": 33,
      "start": 105.9703,
      "duration": 0.7078,
      "velocity": 127,
      "chip": "ym2612"
    },
    {
      "channel": 4,
      "note": 80,
      "start": 105.972,
      "duration": 0.1836,
      "velocity": 127,
      "chip": "ym2612"
    },
    {
      "channel": 1,
      "note": 88,
      "start": 106.0711,
      "duration": 0.0842,
      "velocity": 97,
      "chip": "ym2612"
    },
    {
      "channel": 2,
      "note": 77,
      "start": 106.0713,
      "duration": 0.0841,
      "velocity": 97,
      "chip": "ym2612"
    },
    {
      "channel": 1,
      "note": 92,
      "start": 106.1722,
      "duration": 0.0842,
      "velocity": 97,
      "chip": "ym2612"
    },
    {
      "channel": 2,
      "note": 82,
      "start": 106.1724,
      "duration": 0.0842,
      "velocity": 97,
      "chip": "ym2612"
    },
    {
      "channel": 4,
      "note": 80,
      "start": 106.1726,
      "duration": 0.1852,
      "velocity": 127,
      "chip": "ym2612"
    },
    {
      "channel": 1,
      "note": 97,
      "start": 106.2734,
      "duration": 0.0842,
      "velocity": 97,
      "chip": "ym2612"
    },
    {
      "channel": 2,
      "note": 85,
      "start": 106.2736,
      "duration": 0.0841,
      "velocity": 97,
      "chip": "ym2612"
    },
    {
      "channel": 1,
      "note": 100,
      "start": 106.3745,
      "duration": 0.0842,
      "velocity": 97,
      "chip": "ym2612"
    },
    {
      "channel": 2,
      "note": 89,
      "start": 106.3747,
      "duration": 0.0841,
      "velocity": 97,
      "chip": "ym2612"
    },
    {
      "channel": 4,
      "note": 80,
      "start": 106.3763,
      "duration": 0.3522,
      "velocity": 127,
      "chip": "ym2612"
    },
    {
      "channel": 1,
      "note": 104,
      "start": 106.4756,
      "duration": 0.0842,
      "velocity": 97,
      "chip": "ym2612"
    },
    {
      "channel": 2,
      "note": 94,
      "start": 106.4758,
      "duration": 0.0842,
      "velocity": 97,
      "chip": "ym2612"
    },
    {
      "channel": 1,
      "note": 100,
      "start": 106.5768,
      "duration": 0.0842,
      "velocity": 97,
      "chip": "ym2612"
    },
    {
      "channel": 2,
      "note": 97,
      "start": 106.577,
      "duration": 0.0841,
      "velocity": 97,
      "chip": "ym2612"
    },
    {
      "channel": 1,
      "note": 109,
      "start": 106.6778,
      "duration": 1.5167,
      "velocity": 97,
      "chip": "ym2612"
    },
    {
      "channel": 2,
      "note": 101,
      "start": 106.678,
      "duration": 0.0844,
      "velocity": 97,
      "chip": "ym2612"
    },
    {
      "channel": 2,
      "note": 97,
      "start": 106.7794,
      "duration": 0.0838,
      "velocity": 97,
      "chip": "ym2612"
    },
    {
      "channel": 3,
      "note": 33,
      "start": 106.7796,
      "duration": 0.7072,
      "velocity": 127,
      "chip": "ym2612"
    },
    {
      "channel": 4,
      "note": 49,
      "start": 106.7812,
      "duration": 0.1831,
      "velocity": 91,
      "chip": "ym2612"
    },
    {
      "channel": 5,
      "note": 61,
      "start": 106.7814,
      "duration": 0.183,
      "velocity": 91,
      "chip": "ym2612"
    },
    {
      "channel": 2,
      "note": 106,
      "start": 106.8801,
      "duration": 1.5169,
      "velocity": 97,
      "chip": "ym2612"
    },
    {
      "channel": 4,
      "note": 49,
      "start": 106.9812,
      "duration": 0.1854,
      "velocity": 91,
      "chip": "ym2612"
    },
    {
      "channel": 5,
      "note": 61,
      "start": 106.9813,
      "duration": 0.1854,
      "velocity": 91,
      "chip": "ym2612"
    },
    {
      "channel": 4,
      "note": 49,
      "start": 107.1834,
      "duration": 0.1854,
      "velocity": 91,
      "chip": "ym2612"
    },
    {
      "channel": 5,
      "note": 61,
      "start": 107.1836,
      "duration": 0.1854,
      "velocity": 91,
      "chip": "ym2612"
    },
    {
      "channel": 4,
      "note": 49,
      "start": 107.3857,
      "duration": 0.1854,
      "velocity": 91,
      "chip": "ym2612"
    },
    {
      "channel": 5,
      "note": 61,
      "start": 107.3858,
      "duration": 0.1854,
      "velocity": 91,
      "chip": "ym2612"
    },
    {
      "channel": 3,
      "note": 33,
      "start": 107.5878,
      "duration": 0.7081,
      "velocity": 127,
      "chip": "ym2612"
    },
    {
      "channel": 4,
      "note": 49,
      "start": 107.588,
      "duration": 0.1853,
      "velocity": 91,
      "chip": "ym2612"
    },
    {
      "channel": 5,
      "note": 61,
      "start": 107.5881,
      "duration": 0.1853,
      "velocity": 91,
      "chip": "ym2612"
    },
    {
      "channel": 4,
      "note": 53,
      "start": 107.7902,
      "duration": 0.1853,
      "velocity": 91,
      "chip": "ym2612"
    },
    {
      "channel": 5,
      "note": 65,
      "start": 107.7904,
      "duration": 0.1853,
      "velocity": 91,
      "chip": "ym2612"
    },
    {
      "channel": 4,
      "note": 56,
      "start": 107.9924,
      "duration": 0.1854,
      "velocity": 91,
      "chip": "ym2612"
    },
    {
      "channel": 5,
      "note": 68,
      "start": 107.9926,
      "duration": 0.1853,
      "velocity": 91,
      "chip": "ym2612"
    },
    {
      "channel": 4,
      "note": 55,
      "start": 108.1948,
      "duration": 0.1852,
      "velocity": 91,
      "chip": "ym2612"
    },
    {
      "channel": 5,
      "note": 67,
      "start": 108.1949,
      "duration": 0.1852,
      "velocity": 91,
      "chip": "ym2612"
    },
    {
      "channel": 1,
      "note": 110,
      "start": 108.3969,
      "duration": 0.0842,
      "velocity": 97,
      "chip": "ym2612"
    },
    {
      "channel": 3,
      "note": 33,
      "start": 108.3972,
      "duration": 0.7079,
      "velocity": 127,
      "chip": "ym2612"
    },
    {
      "channel": 4,
      "note": 80,
      "start": 108.3989,
      "duration": 0.1835,
      "velocity": 127,
      "chip": "ym2612"
    },
    {
      "channel": 1,
      "note": 115,
      "start": 108.498,
      "duration": 0.0842,
      "velocity": 97,
      "chip": "ym2612"
    },
    {
      "channel": 1,
      "note": 110,
      "start": 108.5992,
      "duration": 0.0842,
      "velocity": 97,
      "chip": "ym2612"
    },
    {
      "channel": 2,
      "note": 107,
      "start": 108.5993,
      "duration": 0.0842,
      "velocity": 97,
      "chip": "ym2612"
    },
    {
      "channel": 4,
      "note": 80,
      "start": 108.5995,
      "duration": 0.1852,
      "velocity": 127,
      "chip": "ym2612"
    },
    {
      "channel": 1,
      "note": 115,
      "start": 108.7002,
      "duration": 0.0842,
      "velocity": 97,
      "chip": "ym2612"
    },
    {
      "channel": 2,
      "note": 112,
      "start": 108.7004,
      "duration": 0.0841,
      "velocity": 97,
      "chip": "ym2612"
    },
    {
      "channel": 1,
      "note": 110,
      "start": 108.8014,
      "duration": 0.0841,
      "velocity": 97,
      "chip": "ym2612"
    },
    {
      "channel": 2,
      "note": 107,
      "start": 108.8016,
      "duration": 0.0841,
      "velocity": 97,
      "chip": "ym2612"
    },
    {
      "channel": 4,
      "note": 80,
      "start": 108.8032,
      "duration": 0.3521,
      "velocity": 127,
      "chip": "ym2612"
    },
    {
      "channel": 1,
      "note": 115,
      "start": 108.9025,
      "duration": 0.0842,
      "velocity": 97,
      "chip": "ym2612"
    },
    {
      "channel": 2,
      "note": 112,
      "start": 108.9027,
      "duration": 0.0841,
      "velocity": 97,
      "chip": "ym2612"
    },
    {
      "channel": 1,
      "note": 110,
      "start": 109.0036,
      "duration": 0.0841,
      "velocity": 97,
      "chip": "ym2612"
    },
    {
      "channel": 2,
      "note": 107,
      "start": 109.0038,
      "duration": 0.0841,
      "velocity": 97,
      "chip": "ym2612"
    },
    {
      "channel": 1,
      "note": 115,
      "start": 109.1047,
      "duration": 0.0842,
      "velocity": 97,
      "chip": "ym2612"
    },
    {
      "channel": 2,
      "note": 112,
      "start": 109.1049,
      "duration": 0.0841,
      "velocity": 97,
      "chip": "ym2612"
    },
    {
      "channel": 1,
      "note": 110,
      "start": 109.2058,
      "duration": 0.0842,
      "velocity": 97,
      "chip": "ym2612"
    },
    {
      "channel": 2,
      "note": 107,
      "start": 109.206,
      "duration": 0.0841,
      "velocity": 97,
      "chip": "ym2612"
    },
    {
      "channel": 3,
      "note": 33,
      "start": 109.2061,
      "duration": 0.7078,
      "velocity": 127,
      "chip": "ym2612"
    },
    {
      "channel": 4,
      "note": 80,
      "start": 109.2078,
      "duration": 0.1837,
      "velocity": 127,
      "chip": "ym2612"
    },
    {
      "channel": 1,
      "note": 115,
      "start": 109.307,
      "duration": 0.0841,
      "velocity": 97,
      "chip": "ym2612"
    },
    {
      "channel": 2,
      "note": 112,
      "start": 109.3072,
      "duration": 0.0841,
      "velocity": 97,
      "chip": "ym2612"
    },
    {
      "channel": 1,
      "note": 110,
      "start": 109.4081,
      "duration": 0.0842,
      "velocity": 97,
      "chip": "ym2612"
    },
    {
      "channel": 2,
      "note": 107,
      "start": 109.4083,
      "duration": 0.0841,
      "velocity": 97,
      "chip": "ym2612"
    },
    {
      "channel": 4,
      "note": 80,
      "start": 109.4084,
      "duration": 0.1852,
      "velocity": 127,
      "chip": "ym2612"
    },
    {
      "channel": 1,
      "note": 115,
      "start": 109.5092,
      "duration": 0.0842,
      "velocity": 97,
      "chip": "ym2612"
    },
    {
      "channel": 2,
      "note": 112,
      "start": 109.5094,
      "duration": 0.0842,
      "velocity": 97,
      "chip": "ym2612"
    },
    {
      "channel": 1,
      "note": 110,
      "start": 109.6103,
      "duration": 0.0842,
      "velocity": 97,
      "chip": "ym2612"
    },
    {
      "channel": 2,
      "note": 107,
      "start": 109.6105,
      "duration": 0.0841,
      "velocity": 97,
      "chip": "ym2612"
    },
    {
      "channel": 4,
      "note": 80,
      "start": 109.6125,
      "duration": 0.3517,
      "velocity": 127,
      "chip": "ym2612"
    },
    {
      "channel": 1,
      "note": 115,
      "start": 109.7114,
      "duration": 0.0845,
      "velocity": 97,
      "chip": "ym2612"
    },
    {
      "channel": 2,
      "note": 112,
      "start": 109.7116,
      "duration": 0.0845,
      "velocity": 97,
      "chip": "ym2612"
    },
    {
      "channel": 1,
      "note": 110,
      "start": 109.8127,
      "duration": 0.0841,
      "velocity": 97,
      "chip": "ym2612"
    },
    {
      "channel": 2,
      "note": 107,
      "start": 109.8129,
      "duration": 0.084,
      "velocity": 97,
      "chip": "ym2612"
    },
    {
      "channel": 1,
      "note": 115,
      "start": 109.9137,
      "duration": 4.7525,
      "velocity": 97,
      "chip": "ym2612"
    },
    {
      "channel": 2,
      "note": 112,
      "start": 109.9139,
      "duration": 0.084,
      "velocity": 97,
      "chip": "ym2612"
    },
    {
      "channel": 2,
      "note": 107,
      "start": 110.0149,
      "duration": 0.0841,
      "velocity": 97,
      "chip": "ym2612"
    },
    {
      "channel": 3,
      "note": 33,
      "start": 110.015,
      "duration": 0.7076,
      "velocity": 127,
      "chip": "ym2612"
    },
    {
      "channel": 4,
      "note": 49,
      "start": 110.0166,
      "duration": 0.1836,
      "velocity": 91,
      "chip": "ym2612"
    },
    {
      "channel": 5,
      "note": 61,
      "start": 110.0168,
      "duration": 0.1835,
      "velocity": 91,
      "chip": "ym2612"
    },
    {
      "channel": 2,
      "note": 112,
      "start": 110.1159,
      "duration": 4.7528,
      "velocity": 97,
      "chip": "ym2612"
    },
    {
      "channel": 4,
      "note": 49,
      "start": 110.217,
      "duration": 0.1854,
      "velocity": 91,
      "chip": "ym2612"
    },
    {
      "channel": 5,
      "note": 61,
      "start": 110.2172,
      "duration": 0.1854,
      "velocity": 91,
      "chip": "ym2612"
    },
    {
      "channel": 4,
      "note": 49,
      "start": 110.4193,
      "duration": 0.1854,
      "velocity": 91,
      "chip": "ym2612"
    },
    {
      "channel": 5,
      "note": 61,
      "start": 110.4194,
      "duration": 0.1854,
      "velocity": 91,
      "chip": "ym2612"
    },
    {
      "channel": 4,
      "note": 49,
      "start": 110.6215,
      "duration": 0.1854,
      "velocity": 91,
      "chip": "ym2612"
    },
    {
      "channel": 5,
      "note": 61,
      "start": 110.6216,
      "duration": 0.1854,
      "velocity": 91,
      "chip": "ym2612"
    },
    {
      "channel": 3,
      "note": 33,
      "start": 110.8238,
      "duration": 0.7078,
      "velocity": 127,
      "chip": "ym2612"
    },
    {
      "channel": 4,
      "note": 49,
      "start": 110.8239,
      "duration": 0.1852,
      "velocity": 91,
      "chip": "ym2612"
    },
    {
      "channel": 5,
      "note": 61,
      "start": 110.824,
      "duration": 0.1852,
      "velocity": 91,
      "chip": "ym2612"
    },
    {
      "channel": 4,
      "note": 53,
      "start": 111.0261,
      "duration": 0.1854,
      "velocity": 91,
      "chip": "ym2612"
    },
    {
      "channel": 5,
      "note": 65,
      "start": 111.0263,
      "duration": 0.1853,
      "velocity": 91,
      "chip": "ym2612"
    },
    {
      "channel": 4,
      "note": 56,
      "start": 111.2283,
      "duration": 0.1852,
      "velocity": 91,
      "chip": "ym2612"
    },
    {
      "channel": 5,
      "note": 68,
      "start": 111.2285,
      "duration": 0.1852,
      "velocity": 91,
      "chip": "ym2612"
    },
    {
      "channel": 4,
      "note": 55,
      "start": 111.4306,
      "duration": 0.1853,
      "velocity": 91,
      "chip": "ym2612"
    },
    {
      "channel": 5,
      "note": 67,
      "start": 111.4308,
      "duration": 0.1852,
      "velocity": 91,
      "chip": "ym2612"
    },
    {
      "channel": 3,
      "note": 33,
      "start": 111.6327,
      "duration": 0.3539,
      "velocity": 127,
      "chip": "ym2612"
    },
    {
      "channel": 3,
      "note": 33,
      "start": 112.0372,
      "duration": 0.1854,
      "velocity": 127,
      "chip": "ym2612"
    },
    {
      "channel": 4,
      "note": 49,
      "start": 112.0374,
      "duration": 0.1854,
      "velocity": 91,
      "chip": "ym2612"
    },
    {
      "channel": 5,
      "note": 61,
      "start": 112.0376,
      "duration": 0.1852,
      "velocity": 91,
      "chip": "ym2612"
    },
    {
      "channel": 3,
      "note": 33,
      "start": 112.2395,
      "duration": 0.1853,
      "velocity": 127,
      "chip": "ym2612"
    },
    {
      "channel": 4,
      "note": 49,
      "start": 112.2396,
      "duration": 0.1853,
      "velocity": 91,
      "chip": "ym2612"
    },
    {
      "channel": 5,
      "note": 61,
      "start": 112.2397,
      "duration": 0.1853,
      "velocity": 91,
      "chip": "ym2612"
    },
    {
      "channel": 3,
      "note": 45,
      "start": 112.4433,
      "duration": 0.7062,
      "velocity": 127,
      "chip": "ym2612"
    },
    {
      "channel": 4,
      "note": 61,
      "start": 112.4435,
      "duration": 0.7062,
      "velocity": 91,
      "chip": "ym2612"
    },
    {
      "channel": 5,
      "note": 73,
      "start": 112.4437,
      "duration": 0.7061,
      "velocity": 91,
      "chip": "ym2612"
    },
    {
      "channel": 3,
      "note": 33,
      "start": 113.2522,
      "duration": 0.7063,
      "velocity": 127,
      "chip": "ym2612"
    },
    {
      "channel": 4,
      "note": 49,
      "start": 113.2524,
      "duration": 0.1837,
      "velocity": 91,
      "chip": "ym2612"
    },
    {
      "channel": 5,
      "note": 61,
      "start": 113.2526,
      "duration": 0.1836,
      "velocity": 91,
      "chip": "ym2612"
    },
    {
      "channel": 4,
      "note": 49,
      "start": 113.453,
      "duration": 0.1853,
      "velocity": 91,
      "chip": "ym2612"
    },
    {
      "channel": 5,
      "note": 61,
      "start": 113.4531,
      "duration": 0.1853,
      "velocity": 91,
      "chip": "ym2612"
    },
    {
      "channel": 4,
      "note": 49,
      "start": 113.6551,
      "duration": 0.1854,
      "velocity": 91,
      "chip": "ym2612"
    },
    {
      "channel": 5,
      "note": 61,
      "start": 113.6553,
      "duration": 0.1854,
      "velocity": 91,
      "chip": "ym2612"
    },
    {
      "channel": 4,
      "note": 49,
      "start": 113.8574,
      "duration": 0.1854,
      "velocity": 91,
      "chip": "ym2612"
    },
    {
      "channel": 5,
      "note": 61,
      "start": 113.8576,
      "duration": 0.1854,
      "velocity": 91,
      "chip": "ym2612"
    },
    {
      "channel": 3,
      "note": 33,
      "start": 114.0596,
      "duration": 0.7079,
      "velocity": 127,
      "chip": "ym2612"
    },
    {
      "channel": 4,
      "note": 49,
      "start": 114.0597,
      "duration": 0.1853,
      "velocity": 91,
      "chip": "ym2612"
    },
    {
      "channel": 5,
      "note": 61,
      "start": 114.0598,
      "duration": 0.1853,
      "velocity": 91,
      "chip": "ym2612"
    },
    {
      "channel": 4,
      "note": 53,
      "start": 114.262,
      "duration": 0.1852,
      "velocity": 91,
      "chip": "ym2612"
    },
    {
      "channel": 5,
      "note": 65,
      "start": 114.2625,
      "duration": 0.1849,
      "velocity": 91,
      "chip": "ym2612"
    },
    {
      "channel": 4,
      "note": 56,
      "start": 114.4642,
      "duration": 0.1853,
      "velocity": 91,
      "chip": "ym2612"
    },
    {
      "channel": 5,
      "note": 68,
      "start": 114.4644,
      "duration": 0.1852,
      "velocity": 91,
      "chip": "ym2612"
    },
    {
      "channel": 4,
      "note": 55,
      "start": 114.6665,
      "duration": 0.1853,
      "velocity": 91,
      "chip": "ym2612"
    },
    {
      "channel": 5,
      "note": 67,
      "start": 114.6667,
      "duration": 0.1852,
      "velocity": 91,
      "chip": "ym2612"
    },
    {
      "channel": 1,
      "note": 82,
      "start": 114.8686,
      "duration": 0.0842,
      "velocity": 97,
      "chip": "ym2612"
    },
    {
      "channel": 3,
      "note": 33,
      "start": 114.8689,
      "duration": 0.7079,
      "velocity": 127,
      "chip": "ym2612"
    },
    {
      "channel": 4,
      "note": 80,
      "start": 114.8705,
      "duration": 0.1836,
      "velocity": 127,
      "chip": "ym2612"
    },
    {
      "channel": 1,
      "note": 86,
      "start": 114.9698,
      "duration": 0.0842,
      "velocity": 97,
      "chip": "ym2612"
    },
    {
      "channel": 1,
      "note": 89,
      "start": 115.0709,
      "duration": 0.0842,
      "velocity": 97,
      "chip": "ym2612"
    },
    {
      "channel": 2,
      "note": 79,
      "start": 115.0711,
      "duration": 0.0841,
      "velocity": 97,
      "chip": "ym2612"
    },
    {
      "channel": 4,
      "note": 80,
      "start": 115.0712,
      "duration": 0.1852,
      "velocity": 127,
      "chip": "ym2612"
    },
    {
      "channel": 1,
      "note": 94,
      "start": 115.1719,
      "duration": 0.0842,
      "velocity": 97,
      "chip": "ym2612"
    },
    {
      "channel": 2,
      "note": 83,
      "start": 115.1721,
      "duration": 0.0842,
      "velocity": 97,
      "chip": "ym2612"
    },
    {
      "channel": 1,
      "note": 98,
      "start": 115.2731,
      "duration": 0.0842,
      "velocity": 97,
      "chip": "ym2612"
    },
    {
      "channel": 2,
      "note": 86,
      "start": 115.2733,
      "duration": 0.0841,
      "velocity": 97,
      "chip": "ym2612"
    },
    {
      "channel": 4,
      "note": 80,
      "start": 115.2749,
      "duration": 0.3521,
      "velocity": 127,
      "chip": "ym2612"
    },
    {
      "channel": 1,
      "note": 101,
      "start": 115.3742,
      "duration": 0.0842,
      "velocity": 97,
      "chip": "ym2612"
    },
    {
      "channel": 2,
      "note": 91,
      "start": 115.3744,
      "duration": 0.0842,
      "velocity": 97,
      "chip": "ym2612"
    },
    {
      "channel": 1,
      "note": 106,
      "start": 115.4754,
      "duration": 0.0842,
      "velocity": 97,
      "chip": "ym2612"
    },
    {
      "channel": 2,
      "note": 95,
      "start": 115.4756,
      "duration": 0.0841,
      "velocity": 97,
      "chip": "ym2612"
    },
    {
      "channel": 1,
      "note": 110,
      "start": 115.5764,
      "duration": 0.0842,
      "velocity": 97,
      "chip": "ym2612"
    },
    {
      "channel": 2,
      "note": 98,
      "start": 115.5766,
      "duration": 0.0841,
      "velocity": 97,
      "chip": "ym2612"
    },
    {
      "channel": 1,
      "note": 106,
      "start": 115.6776,
      "duration": 0.0841,
      "velocity": 97,
      "chip": "ym2612"
    },
    {
      "channel": 2,
      "note": 103,
      "start": 115.6778,
      "duration": 0.0841,
      "velocity": 97,
      "chip": "ym2612"
    },
    {
      "channel": 3,
      "note": 33,
      "start": 115.6779,
      "duration": 0.7078,
      "velocity": 127,
      "chip": "ym2612"
    },
    {
      "channel": 4,
      "note": 80,
      "start": 115.6799,
      "duration": 0.1833,
      "velocity": 127,
      "chip": "ym2612"
    },
    {
      "channel": 1,
      "note": 110,
      "start": 115.7791,
      "duration": 0.0838,
      "velocity": 97,
      "chip": "ym2612"
    },
    {
      "channel": 2,
      "note": 107,
      "start": 115.7793,
      "duration": 0.0838,
      "velocity": 97,
      "chip": "ym2612"
    },
    {
      "channel": 1,
      "note": 101,
      "start": 115.8798,
      "duration": 0.0842,
      "velocity": 97,
      "chip": "ym2612"
    },
    {
      "channel": 2,
      "note": 103,
      "start": 115.88,
      "duration": 0.0842,
      "velocity": 97,
      "chip": "ym2612"
    },
    {
      "channel": 4,
      "note": 80,
      "start": 115.8801,
      "duration": 0.1853,
      "velocity": 127,
      "chip": "ym2612"
    },
    {
      "channel": 1,
      "note": 110,
      "start": 115.981,
      "duration": 0.0842,
      "velocity": 97,
      "chip": "ym2612"
    },
    {
      "channel": 2,
      "note": 107,
      "start": 115.9812,
      "duration": 0.0841,
      "velocity": 97,
      "chip": "ym2612"
    },
    {
      "channel": 1,
      "note": 98,
      "start": 116.0821,
      "duration": 0.0841,
      "velocity": 97,
      "chip": "ym2612"
    },
    {
      "channel": 2,
      "note": 98,
      "start": 116.0822,
      "duration": 0.0842,
      "velocity": 97,
      "chip": "ym2612"
    },
    {
      "channel": 4,
      "note": 80,
      "start": 116.0838,
      "duration": 0.3521,
      "velocity": 127,
      "chip": "ym2612"
    },
    {
      "channel": 1,
      "note": 110,
      "start": 116.1832,
      "duration": 0.0842,
      "velocity": 97,
      "chip": "ym2612"
    },
    {
      "channel": 2,
      "note": 107,
      "start": 116.1834,
      "duration": 0.0841,
      "velocity": 97,
      "chip": "ym2612"
    },
    {
      "channel": 1,
      "note": 94,
      "start": 116.2843,
      "duration": 0.0842,
      "velocity": 97,
      "chip": "ym2612"
    },
    {
      "channel": 2,
      "note": 95,
      "start": 116.2845,
      "duration": 0.0842,
      "velocity": 97,
      "chip": "ym2612"
    },
    {
      "channel": 1,
      "note": 110,
      "start": 116.3855,
      "duration": 4.7526,
      "velocity": 97,
      "chip": "ym2612"
    },
    {
      "channel": 2,
      "note": 107,
      "start": 116.3857,
      "duration": 0.084,
      "velocity": 97,
      "chip": "ym2612"
    },
    {
      "channel": 2,
      "note": 91,
      "start": 116.4866,
      "duration": 0.0841,
      "velocity": 97,
      "chip": "ym2612"
    },
    {
      "channel": 3,
      "note": 33,
      "start": 116.4868,
      "duration": 0.7076,
      "velocity": 127,
      "chip": "ym2612"
    },
    {
      "channel": 4,
      "note": 49,
      "start": 116.4883,
      "duration": 0.1835,
      "velocity": 91,
      "chip": "ym2612"
    },
    {
      "channel": 5,
      "note": 61,
      "start": 116.4886,
      "duration": 0.1834,
      "velocity": 91,
      "chip": "ym2612"
    },
    {
      "channel": 2,
      "note": 107,
      "start": 116.5876,
      "duration": 4.7527,
      "velocity": 97,
      "chip": "ym2612"
    },
    {
      "channel": 4,
      "note": 49,
      "start": 116.6888,
      "duration": 0.1854,
      "velocity": 91,
      "chip": "ym2612"
    },
    {
      "channel": 5,
      "note": 61,
      "start": 116.6889,
      "duration": 0.1854,
      "velocity": 91,
      "chip": "ym2612"
    },
    {
      "channel": 4,
      "note": 49,
      "start": 116.891,
      "duration": 0.1854,
      "velocity": 91,
      "chip": "ym2612"
    },
    {
      "channel": 5,
      "note": 61,
      "start": 116.8911,
      "duration": 0.1854,
      "velocity": 91,
      "chip": "ym2612"
    },
    {
      "channel": 4,
      "note": 49,
      "start": 117.0932,
      "duration": 0.1854,
      "velocity": 91,
      "chip": "ym2612"
    },
    {
      "channel": 5,
      "note": 61,
      "start": 117.0934,
      "duration": 0.1858,
      "velocity": 91,
      "chip": "ym2612"
    },
    {
      "channel": 3,
      "note": 33,
      "start": 117.296,
      "duration": 0.7073,
      "velocity": 127,
      "chip": "ym2612"
    },
    {
      "channel": 4,
      "note": 49,
      "start": 117.2962,
      "duration": 0.1847,
      "velocity": 91,
      "chip": "ym2612"
    },
    {
      "channel": 5,
      "note": 61,
      "start": 117.2963,
      "duration": 0.1847,
      "velocity": 91,
      "chip": "ym2612"
    },
    {
      "channel": 4,
      "note": 53,
      "start": 117.4978,
      "duration": 0.1853,
      "velocity": 91,
      "chip": "ym2612"
    },
    {
      "channel": 5,
      "note": 65,
      "start": 117.498,
      "duration": 0.1852,
      "velocity": 91,
      "chip": "ym2612"
    },
    {
      "channel": 4,
      "note": 56,
      "start": 117.7,
      "duration": 0.1854,
      "velocity": 91,
      "chip": "ym2612"
    },
    {
      "channel": 5,
      "note": 68,
      "start": 117.7002,
      "duration": 0.1853,
      "velocity": 91,
      "chip": "ym2612"
    },
    {
      "channel": 4,
      "note": 55,
      "start": 117.9023,
      "duration": 0.1854,
      "velocity": 91,
      "chip": "ym2612"
    },
    {
      "channel": 5,
      "note": 67,
      "start": 117.9025,
      "duration": 0.1853,
      "velocity": 91,
      "chip": "ym2612"
    },
    {
      "channel": 3,
      "note": 64,
      "start": 118.106,
      "duration": 0.0826,
      "velocity": 127,
      "chip": "ym2612"
    },
    {
      "channel": 4,
      "note": 80,
      "start": 118.1077,
      "duration": 0.1822,
      "velocity": 127,
      "chip": "ym2612"
    },
    {
      "channel": 3,
      "note": 64,
      "start": 118.2056,
      "duration": 0.0842,
      "velocity": 127,
      "chip": "ym2612"
    },
    {
      "channel": 3,
      "note": 61,
      "start": 118.3068,
      "duration": 0.0842,
      "velocity": 127,
      "chip": "ym2612"
    },
    {
      "channel": 4,
      "note": 80,
      "start": 118.3069,
      "duration": 0.1853,
      "velocity": 127,
      "chip": "ym2612"
    },
    {
      "channel": 3,
      "note": 61,
      "start": 118.4078,
      "duration": 0.0843,
      "velocity": 127,
      "chip": "ym2612"
    },
    {
      "channel": 3,
      "note": 57,
      "start": 118.509,
      "duration": 0.1853,
      "velocity": 127,
      "chip": "ym2612"
    },
    {
      "channel": 4,
      "note": 80,
      "start": 118.5106,
      "duration": 0.3523,
      "velocity": 127,
      "chip": "ym2612"
    },
    {
      "channel": 3,
      "note": 57,
      "start": 118.7112,
      "duration": 0.1854,
      "velocity": 127,
      "chip": "ym2612"
    },
    {
      "channel": 3,
      "note": 64,
      "start": 118.9135,
      "duration": 0.0841,
      "velocity": 127,
      "chip": "ym2612"
    },
    {
      "channel": 4,
      "note": 80,
      "start": 118.9151,
      "duration": 0.1838,
      "velocity": 127,
      "chip": "ym2612"
    },
    {
      "channel": 3,
      "note": 64,
      "start": 119.0146,
      "duration": 0.0843,
      "velocity": 127,
      "chip": "ym2612"
    },
    {
      "channel": 3,
      "note": 61,
      "start": 119.1157,
      "duration": 0.0842,
      "velocity": 127,
      "chip": "ym2612"
    },
    {
      "channel": 4,
      "note": 80,
      "start": 119.1158,
      "duration": 0.1854,
      "velocity": 127,
      "chip": "ym2612"
    },
    {
      "channel": 3,
      "note": 61,
      "start": 119.2168,
      "duration": 0.0843,
      "velocity": 127,
      "chip": "ym2612"
    },
    {
      "channel": 3,
      "note": 57,
      "start": 119.318,
      "duration": 0.1852,
      "velocity": 127,
      "chip": "ym2612"
    },
    {
      "channel": 4,
      "note": 80,
      "start": 119.3196,
      "duration": 0.3522,
      "velocity": 127,
      "chip": "ym2612"
    },
    {
      "channel": 3,
      "note": 57,
      "start": 119.5201,
      "duration": 0.1854,
      "velocity": 127,
      "chip": "ym2612"
    },
    {
      "channel": 3,
      "note": 33,
      "start": 119.724,
      "duration": 0.7063,
      "velocity": 127,
      "chip": "ym2612"
    },
    {
      "channel": 4,
      "note": 49,
      "start": 119.7256,
      "duration": 0.1822,
      "velocity": 91,
      "chip": "ym2612"
    },
    {
      "channel": 5,
      "note": 61,
      "start": 119.7258,
      "duration": 0.1821,
      "velocity": 91,
      "chip": "ym2612"
    },
    {
      "channel": 4,
      "note": 49,
      "start": 119.9247,
      "duration": 0.1854,
      "velocity": 91,
      "chip": "ym2612"
    },
    {
      "channel": 5,
      "note": 61,
      "start": 119.9248,
      "duration": 0.1854,
      "velocity": 91,
      "chip": "ym2612"
    },
    {
      "channel": 4,
      "note": 49,
      "start": 120.1268,
      "duration": 0.1858,
      "velocity": 91,
      "chip": "ym2612"
    },
    {
      "channel": 5,
      "note": 61,
      "start": 120.127,
      "duration": 0.1858,
      "velocity": 91,
      "chip": "ym2612"
    },
    {
      "channel": 4,
      "note": 49,
      "start": 120.3294,
      "duration": 0.1851,
      "velocity": 91,
      "chip": "ym2612"
    },
    {
      "channel": 5,
      "note": 61,
      "start": 120.3295,
      "duration": 0.1851,
      "velocity": 91,
      "chip": "ym2612"
    },
    {
      "channel": 3,
      "note": 33,
      "start": 120.5313,
      "duration": 0.7078,
      "velocity": 127,
      "chip": "ym2612"
    },
    {
      "channel": 4,
      "note": 49,
      "start": 120.5315,
      "duration": 0.1852,
      "velocity": 91,
      "chip": "ym2612"
    },
    {
      "channel": 5,
      "note": 61,
      "start": 120.5316,
      "duration": 0.1853,
      "velocity": 91,
      "chip": "ym2612"
    },
    {
      "channel": 4,
      "note": 53,
      "start": 120.7337,
      "duration": 0.1853,
      "velocity": 91,
      "chip": "ym2612"
    },
    {
      "channel": 5,
      "note": 65,
      "start": 120.7339,
      "duration": 0.1853,
      "velocity": 91,
      "chip": "ym2612"
    },
    {
      "channel": 4,
      "note": 56,
      "start": 120.9359,
      "duration": 0.1852,
      "velocity": 91,
      "chip": "ym2612"
    },
    {
      "channel": 5,
      "note": 68,
      "start": 120.9361,
      "duration": 0.1852,
      "velocity": 91,
      "chip": "ym2612"
    },
    {
      "channel": 4,
      "note": 55,
      "start": 121.1383,
      "duration": 0.1852,
      "velocity": 91,
      "chip": "ym2612"
    },
    {
      "channel": 5,
      "note": 67,
      "start": 121.1385,
      "duration": 0.1851,
      "velocity": 91,
      "chip": "ym2612"
    },
    {
      "channel": 3,
      "note": 33,
      "start": 121.3404,
      "duration": 0.7077,
      "velocity": 127,
      "chip": "ym2612"
    },
    {
      "channel": 4,
      "note": 80,
      "start": 121.3421,
      "duration": 0.1837,
      "velocity": 127,
      "chip": "ym2612"
    },
    {
      "channel": 4,
      "note": 80,
      "start": 121.5426,
      "duration": 0.1854,
      "velocity": 127,
      "chip": "ym2612"
    },
    {
      "channel": 1,
      "note": 91,
      "start": 121.7449,
      "duration": 0.1852,
      "velocity": 97,
      "chip": "ym2612"
    },
    {
      "channel": 4,
      "note": 80,
      "start": 121.7469,
      "duration": 0.3518,
      "velocity": 127,
      "chip": "ym2612"
    },
    {
      "channel": 1,
      "note": 90,
      "start": 121.9471,
      "duration": 0.1852,
      "velocity": 97,
      "chip": "ym2612"
    },
    {
      "channel": 2,
      "note": 88,
      "start": 121.9473,
      "duration": 0.1852,
      "velocity": 97,
      "chip": "ym2612"
    },
    {
      "channel": 1,
      "note": 88,
      "start": 122.1493,
      "duration": 2.2246,
      "velocity": 97,
      "chip": "ym2612"
    },
    {
      "channel": 2,
      "note": 87,
      "start": 122.1495,
      "duration": 0.1852,
      "velocity": 97,
      "chip": "ym2612"
    },
    {
      "channel": 3,
      "note": 33,
      "start": 122.1496,
      "duration": 0.7075,
      "velocity": 127,
      "chip": "ym2612"
    },
    {
      "channel": 4,
      "note": 80,
      "start": 122.1512,
      "duration": 0.1835,
      "velocity": 127,
      "chip": "ym2612"
    },
    {
      "channel": 2,
      "note": 86,
      "start": 122.3516,
      "duration": 2.2248,
      "velocity": 97,
      "chip": "ym2612"
    },
    {
      "channel": 4,
      "note": 80,
      "start": 122.3517,
      "duration": 0.1852,
      "velocity": 127,
      "chip": "ym2612"
    },
    {
      "channel": 4,
      "note": 80,
      "start": 122.5553,
      "duration": 0.3524,
      "velocity": 127,
      "chip": "ym2612"
    },
    {
      "channel": 3,
      "note": 33,
      "start": 122.9582,
      "duration": 0.7079,
      "velocity": 127,
      "chip": "ym2612"
    },
    {
      "channel": 4,
      "note": 49,
      "start": 122.9598,
      "duration": 0.1838,
      "velocity": 91,
      "chip": "ym2612"
    },
    {
      "channel": 5,
      "note": 61,
      "start": 122.96,
      "duration": 0.1837,
      "velocity": 91,
      "chip": "ym2612"
    },
    {
      "channel": 4,
      "note": 49,
      "start": 123.1605,
      "duration": 0.1854,
      "velocity": 91,
      "chip": "ym2612"
    },
    {
      "channel": 5,
      "note": 61,
      "start": 123.1607,
      "duration": 0.1854,
      "velocity": 91,
      "chip": "ym2612"
    },
    {
      "channel": 4,
      "note": 49,
      "start": 123.3628,
      "duration": 0.1854,
      "velocity": 91,
      "chip": "ym2612"
    },
    {
      "channel": 5,
      "note": 61,
      "start": 123.3629,
      "duration": 0.1854,
      "velocity": 91,
      "chip": "ym2612"
    },
    {
      "channel": 4,
      "note": 49,
      "start": 123.565,
      "duration": 0.1854,
      "velocity": 91,
      "chip": "ym2612"
    },
    {
      "channel": 5,
      "note": 61,
      "start": 123.5651,
      "duration": 0.1854,
      "velocity": 91,
      "chip": "ym2612"
    },
    {
      "channel": 3,
      "note": 33,
      "start": 123.7672,
      "duration": 0.7078,
      "velocity": 127,
      "chip": "ym2612"
    },
    {
      "channel": 4,
      "note": 49,
      "start": 123.7673,
      "duration": 0.1852,
      "velocity": 91,
      "chip": "ym2612"
    },
    {
      "channel": 5,
      "note": 61,
      "start": 123.7675,
      "duration": 0.1852,
      "velocity": 91,
      "chip": "ym2612"
    },
    {
      "channel": 4,
      "note": 53,
      "start": 123.9696,
      "duration": 0.1853,
      "velocity": 91,
      "chip": "ym2612"
    },
    {
      "channel": 5,
      "note": 65,
      "start": 123.9698,
      "duration": 0.1852,
      "velocity": 91,
      "chip": "ym2612"
    },
    {
      "channel": 4,
      "note": 56,
      "start": 124.1717,
      "duration": 0.1853,
      "velocity": 91,
      "chip": "ym2612"
    },
    {
      "channel": 5,
      "note": 68,
      "start": 124.1719,
      "duration": 0.1852,
      "velocity": 91,
      "chip": "ym2612"
    },
    {
      "channel": 4,
      "note": 55,
      "start": 124.3741,
      "duration": 0.1852,
      "velocity": 91,
      "chip": "ym2612"
    },
    {
      "channel": 5,
      "note": 67,
      "start": 124.3744,
      "duration": 0.1851,
      "velocity": 91,
      "chip": "ym2612"
    },
    {
      "channel": 1,
      "note": 109,
      "start": 124.5762,
      "duration": 0.0842,
      "velocity": 97,
      "chip": "ym2612"
    },
    {
      "channel": 3,
      "note": 33,
      "start": 124.5764,
      "duration": 0.1177,
      "velocity": 127,
      "chip": "ym2612"
    },
    {
      "channel": 4,
      "note": 80,
      "start": 124.5782,
      "duration": 0.1835,
      "velocity": 127,
      "chip": "ym2612"
    },
    {
      "channel": 1,
      "note": 108,
      "start": 124.6773,
      "duration": 0.0842,
      "velocity": 97,
      "chip": "ym2612"
    },
    {
      "channel": 3,
      "note": 33,
      "start": 124.711,
      "duration": 0.1183,
      "velocity": 127,
      "chip": "ym2612"
    },
    {
      "channel": 1,
      "note": 107,
      "start": 124.7785,
      "duration": 0.0842,
      "velocity": 97,
      "chip": "ym2612"
    },
    {
      "channel": 2,
      "note": 106,
      "start": 124.7787,
      "duration": 0.0842,
      "velocity": 97,
      "chip": "ym2612"
    },
    {
      "channel": 4,
      "note": 80,
      "start": 124.7792,
      "duration": 0.185,
      "velocity": 127,
      "chip": "ym2612"
    },
    {
      "channel": 3,
      "note": 33,
      "start": 124.846,
      "duration": 0.1181,
      "velocity": 127,
      "chip": "ym2612"
    },
    {
      "channel": 1,
      "note": 106,
      "start": 124.8796,
      "duration": 0.0842,
      "velocity": 97,
      "chip": "ym2612"
    },
    {
      "channel": 2,
      "note": 105,
      "start": 124.8798,
      "duration": 0.0841,
      "velocity": 97,
      "chip": "ym2612"
    },
    {
      "channel": 1,
      "note": 105,
      "start": 124.9807,
      "duration": 0.0842,
      "velocity": 97,
      "chip": "ym2612"
    },
    {
      "channel": 2,
      "note": 104,
      "start": 124.9809,
      "duration": 0.0841,
      "velocity": 97,
      "chip": "ym2612"
    },
    {
      "channel": 3,
      "note": 33,
      "start": 124.981,
      "duration": 0.3535,
      "velocity": 127,
      "chip": "ym2612"
    },
    {
      "channel": 4,
      "note": 80,
      "start": 124.9826,
      "duration": 0.352,
      "velocity": 127,
      "chip": "ym2612"
    },
    {
      "channel": 1,
      "note": 104,
      "start": 125.0818,
      "duration": 0.0842,
      "velocity": 97,
      "chip": "ym2612"
    },
    {
      "channel": 2,
      "note": 103,
      "start": 125.082,
      "duration": 0.0842,
      "velocity": 97,
      "chip": "ym2612"
    },
    {
      "channel": 1,
      "note": 103,
      "start": 125.183,
      "duration": 0.0842,
      "velocity": 97,
      "chip": "ym2612"
    },
    {
      "channel": 2,
      "note": 102,
      "start": 125.1831,
      "duration": 0.0841,
      "velocity": 97,
      "chip": "ym2612"
    },
    {
      "channel": 1,
      "note": 102,
      "start": 125.2841,
      "duration": 0.0841,
      "velocity": 97,
      "chip": "ym2612"
    },
    {
      "channel": 2,
      "note": 101,
      "start": 125.2843,
      "duration": 0.0841,
      "velocity": 97,
      "chip": "ym2612"
    },
    {
      "channel": 1,
      "note": 101,
      "start": 125.3851,
      "duration": 0.0842,
      "velocity": 97,
      "chip": "ym2612"
    },
    {
      "channel": 2,
      "note": 100,
      "start": 125.3854,
      "duration": 0.0841,
      "velocity": 97,
      "chip": "ym2612"
    },
    {
      "channel": 3,
      "note": 33,
      "start": 125.3855,
      "duration": 0.1176,
      "velocity": 127,
      "chip": "ym2612"
    },
    {
      "channel": 4,
      "note": 80,
      "start": 125.3871,
      "duration": 0.1837,
      "velocity": 127,
      "chip": "ym2612"
    },
    {
      "channel": 1,
      "note": 100,
      "start": 125.4863,
      "duration": 0.0842,
      "velocity": 97,
      "chip": "ym2612"
    },
    {
      "channel": 2,
      "note": 99,
      "start": 125.4865,
      "duration": 0.0842,
      "velocity": 97,
      "chip": "ym2612"
    },
    {
      "channel": 3,
      "note": 33,
      "start": 125.52,
      "duration": 0.118,
      "velocity": 127,
      "chip": "ym2612"
    },
    {
      "channel": 1,
      "note": 99,
      "start": 125.5874,
      "duration": 0.0842,
      "velocity": 97,
      "chip": "ym2612"
    },
    {
      "channel": 2,
      "note": 98,
      "start": 125.5876,
      "duration": 0.0841,
      "velocity": 97,
      "chip": "ym2612"
    },
    {
      "channel": 4,
      "note": 80,
      "start": 125.5878,
      "duration": 0.1854,
      "velocity": 127,
      "chip": "ym2612"
    },
    {
      "channel": 3,
      "note": 33,
      "start": 125.6548,
      "duration": 0.1182,
      "velocity": 127,
      "chip": "ym2612"
    },
    {
      "channel": 1,
      "note": 98,
      "start": 125.6885,
      "duration": 0.0842,
      "velocity": 97,
      "chip": "ym2612"
    },
    {
      "channel": 2,
      "note": 97,
      "start": 125.6887,
      "duration": 0.0841,
      "velocity": 97,
      "chip": "ym2612"
    },
    {
      "channel": 1,
      "note": 97,
      "start": 125.7897,
      "duration": 0.0841,
      "velocity": 97,
      "chip": "ym2612"
    },
    {
      "channel": 2,
      "note": 96,
      "start": 125.7899,
      "duration": 0.0841,
      "velocity": 97,
      "chip": "ym2612"
    },
    {
      "channel": 3,
      "note": 33,
      "start": 125.79,
      "duration": 0.3536,
      "velocity": 127,
      "chip": "ym2612"
    },
    {
      "channel": 4,
      "note": 80,
      "start": 125.7916,
      "duration": 0.3521,
      "velocity": 127,
      "chip": "ym2612"
    },
    {
      "channel": 1,
      "note": 96,
      "start": 125.8908,
      "duration": 0.0842,
      "velocity": 97,
      "chip": "ym2612"
    },
    {
      "channel": 2,
      "note": 95,
      "start": 125.891,
      "duration": 0.0841,
      "velocity": 97,
      "chip": "ym2612"
    },
    {
      "channel": 1,
      "note": 95,
      "start": 125.9919,
      "duration": 0.0841,
      "velocity": 97,
      "chip": "ym2612"
    },
    {
      "channel": 2,
      "note": 94,
      "start": 125.9921,
      "duration": 0.0841,
      "velocity": 97,
      "chip": "ym2612"
    },
    {
      "channel": 1,
      "note": 94,
      "start": 126.093,
      "duration": 0.0842,
      "velocity": 97,
      "chip": "ym2612"
    },
    {
      "channel": 2,
      "note": 93,
      "start": 126.0932,
      "duration": 0.0841,
      "velocity": 97,
      "chip": "ym2612"
    },
    {
      "channel": 3,
      "note": 33,
      "start": 126.1941,
      "duration": 0.7078,
      "velocity": 127,
      "chip": "ym2612"
    },
    {
      "channel": 4,
      "note": 49,
      "start": 126.1962,
      "duration": 0.1833,
      "velocity": 91,
      "chip": "ym2612"
    },
    {
      "channel": 5,
      "note": 61,
      "start": 126.1963,
      "duration": 0.1833,
      "velocity": 91,
      "chip": "ym2612"
    },
    {
      "channel": 4,
      "note": 49,
      "start": 126.3964,
      "duration": 0.1853,
      "velocity": 91,
      "chip": "ym2612"
    },
    {
      "channel": 5,
      "note": 61,
      "start": 126.3966,
      "duration": 0.1853,
      "velocity": 91,
      "chip": "ym2612"
    },
    {
      "channel": 4,
      "note": 49,
      "start": 126.5986,
      "duration": 0.1853,
      "velocity": 91,
      "chip": "ym2612"
    },
    {
      "channel": 5,
      "note": 61,
      "start": 126.5988,
      "duration": 0.1853,
      "velocity": 91,
      "chip": "ym2612"
    },
    {
      "channel": 4,
      "note": 49,
      "start": 126.8009,
      "duration": 0.1854,
      "velocity": 91,
      "chip": "ym2612"
    },
    {
      "channel": 5,
      "note": 61,
      "start": 126.801,
      "duration": 0.1854,
      "velocity": 91,
      "chip": "ym2612"
    },
    {
      "channel": 3,
      "note": 33,
      "start": 127.0031,
      "duration": 0.0001,
      "velocity": 127,
      "chip": "ym2612"
    }
  ]
}