{
  "track_name": "10 - Newslink - Loading Screen",
  "duration_sec": 60.637,
  "sample_rate": 44100,
  "note_count": 783,
  "unique_pitches": 29,
  "pitch_range": 56,
  "avg_note_duration": 0.0923,
  "reconstruction_stats": {
    "notes_reconstructed": 783,
    "keyon_events": 783,
    "keyoff_events": 783,
    "orphan_keyons": 0,
    "unique_pitches": 29,
    "pitch_range": 56,
    "avg_duration_sec": 0.0923
  },
  "metadata": {
    "source": "S\\Sega Channel\\10 - Newslink - Loading Screen.vgm"
  },
  "notes": [
    {
      "channel": 0,
      "note": 45,
      "start": 0.059,
      "duration": 0.0078,
      "velocity": 119,
      "chip": "ym2612"
    },
    {
      "channel": 3,
      "note": 78,
      "start": 0.2883,
      "duration": 0.0629,
      "velocity": 127,
      "chip": "ym2612"
    },
    {
      "channel": 0,
      "note": 45,
      "start": 0.291,
      "duration": 0.0767,
      "velocity": 119,
      "chip": "ym2612"
    },
    {
      "channel": 3,
      "note": 78,
      "start": 0.4548,
      "duration": 0.063,
      "velocity": 127,
      "chip": "ym2612"
    },
    {
      "channel": 0,
      "note": 45,
      "start": 0.4574,
      "duration": 0.0936,
      "velocity": 119,
      "chip": "ym2612"
    },
    {
      "channel": 3,
      "note": 78,
      "start": 0.5714,
      "duration": 0.0631,
      "velocity": 127,
      "chip": "ym2612"
    },
    {
      "channel": 3,
      "note": 78,
      "start": 0.738,
      "duration": 0.0631,
      "velocity": 127,
      "chip": "ym2612"
    },
    {
      "channel": 3,
      "note": 78,
      "start": 0.8218,
      "duration": 0.0628,
      "velocity": 127,
      "chip": "ym2612"
    },
    {
      "channel": 0,
      "note": 45,
      "start": 0.825,
      "duration": 0.0594,
      "velocity": 119,
      "chip": "ym2612"
    },
    {
      "channel": 3,
      "note": 78,
      "start": 1.1048,
      "duration": 0.0631,
      "velocity": 127,
      "chip": "ym2612"
    },
    {
      "channel": 0,
      "note": 45,
      "start": 1.1076,
      "duration": 0.0936,
      "velocity": 119,
      "chip": "ym2612"
    },
    {
      "channel": 3,
      "note": 78,
      "start": 1.3548,
      "duration": 0.0632,
      "velocity": 127,
      "chip": "ym2612"
    },
    {
      "channel": 0,
      "note": 45,
      "start": 1.3576,
      "duration": 0.1101,
      "velocity": 119,
      "chip": "ym2612"
    },
    {
      "channel": 2,
      "note": 84,
      "start": 1.6049,
      "duration": 0.1799,
      "velocity": 112,
      "chip": "ym2612"
    },
    {
      "channel": 3,
      "note": 78,
      "start": 1.6548,
      "duration": 0.0631,
      "velocity": 127,
      "chip": "ym2612"
    },
    {
      "channel": 1,
      "note": 82,
      "start": 1.7216,
      "duration": 0.1795,
      "velocity": 112,
      "chip": "ym2612"
    },
    {
      "channel": 2,
      "note": 79,
      "start": 1.8049,
      "duration": 0.1131,
      "velocity": 112,
      "chip": "ym2612"
    },
    {
      "channel": 3,
      "note": 78,
      "start": 1.8077,
      "duration": 0.0602,
      "velocity": 127,
      "chip": "ym2612"
    },
    {
      "channel": 1,
      "note": 77,
      "start": 1.9051,
      "duration": 0.1293,
      "velocity": 112,
      "chip": "ym2612"
    },
    {
      "channel": 3,
      "note": 78,
      "start": 1.9079,
      "duration": 0.06,
      "velocity": 127,
      "chip": "ym2612"
    },
    {
      "channel": 0,
      "note": 45,
      "start": 1.9107,
      "duration": 0.0737,
      "velocity": 119,
      "chip": "ym2612"
    },
    {
      "channel": 2,
      "note": 79,
      "start": 2.0049,
      "duration": 0.1299,
      "velocity": 112,
      "chip": "ym2612"
    },
    {
      "channel": 1,
      "note": 82,
      "start": 2.0713,
      "duration": 0.13,
      "velocity": 112,
      "chip": "ym2612"
    },
    {
      "channel": 3,
      "note": 78,
      "start": 2.0742,
      "duration": 0.0604,
      "velocity": 127,
      "chip": "ym2612"
    },
    {
      "channel": 4,
      "note": 48,
      "start": 2.1879,
      "duration": 0.1632,
      "velocity": 87,
      "chip": "ym2612"
    },
    {
      "channel": 2,
      "note": 84,
      "start": 2.1915,
      "duration": 0.26,
      "velocity": 112,
      "chip": "ym2612"
    },
    {
      "channel": 0,
      "note": 45,
      "start": 2.1945,
      "duration": 0.0067,
      "velocity": 119,
      "chip": "ym2612"
    },
    {
      "channel": 4,
      "note": 48,
      "start": 2.4377,
      "duration": 0.1969,
      "velocity": 87,
      "chip": "ym2612"
    },
    {
      "channel": 0,
      "note": 45,
      "start": 2.4412,
      "duration": 0.0433,
      "velocity": 119,
      "chip": "ym2612"
    },
    {
      "channel": 5,
      "note": 77,
      "start": 2.6215,
      "duration": 0.0798,
      "velocity": 116,
      "chip": "ym2612"
    },
    {
      "channel": 0,
      "note": 45,
      "start": 2.625,
      "duration": 0.0761,
      "velocity": 119,
      "chip": "ym2612"
    },
    {
      "channel": 4,
      "note": 53,
      "start": 2.7213,
      "duration": 0.1466,
      "velocity": 87,
      "chip": "ym2612"
    },
    {
      "channel": 5,
      "note": 79,
      "start": 2.7244,
      "duration": 0.0602,
      "velocity": 116,
      "chip": "ym2612"
    },
    {
      "channel": 4,
      "note": 55,
      "start": 2.8877,
      "duration": 0.1137,
      "velocity": 87,
      "chip": "ym2612"
    },
    {
      "channel": 0,
      "note": 45,
      "start": 2.8911,
      "duration": 0.06,
      "velocity": 119,
      "chip": "ym2612"
    },
    {
      "channel": 3,
      "note": 58,
      "start": 2.9709,
      "duration": 0.1137,
      "velocity": 87,
      "chip": "ym2612"
    },
    {
      "channel": 5,
      "note": 77,
      "start": 2.9744,
      "duration": 0.0435,
      "velocity": 116,
      "chip": "ym2612"
    },
    {
      "channel": 3,
      "note": 58,
      "start": 3.2709,
      "duration": 0.0802,
      "velocity": 87,
      "chip": "ym2612"
    },
    {
      "channel": 5,
      "note": 77,
      "start": 3.2741,
      "duration": 0.0606,
      "velocity": 116,
      "chip": "ym2612"
    },
    {
      "channel": 0,
      "note": 45,
      "start": 3.277,
      "duration": 0.0573,
      "velocity": 119,
      "chip": "ym2612"
    },
    {
      "channel": 5,
      "note": 77,
      "start": 3.5212,
      "duration": 0.0635,
      "velocity": 116,
      "chip": "ym2612"
    },
    {
      "channel": 0,
      "note": 45,
      "start": 3.5243,
      "duration": 0.0934,
      "velocity": 119,
      "chip": "ym2612"
    },
    {
      "channel": 3,
      "note": 57,
      "start": 3.6874,
      "duration": 0.0971,
      "velocity": 87,
      "chip": "ym2612"
    },
    {
      "channel": 5,
      "note": 79,
      "start": 3.6905,
      "duration": 0.0441,
      "velocity": 116,
      "chip": "ym2612"
    },
    {
      "channel": 3,
      "note": 57,
      "start": 3.971,
      "duration": 0.0635,
      "velocity": 87,
      "chip": "ym2612"
    },
    {
      "channel": 3,
      "note": 53,
      "start": 4.0547,
      "duration": 0.2632,
      "velocity": 87,
      "chip": "ym2612"
    },
    {
      "channel": 0,
      "note": 45,
      "start": 4.0581,
      "duration": 0.0596,
      "velocity": 119,
      "chip": "ym2612"
    },
    {
      "channel": 3,
      "note": 48,
      "start": 4.3376,
      "duration": 0.1636,
      "velocity": 87,
      "chip": "ym2612"
    },
    {
      "channel": 1,
      "note": 70,
      "start": 4.3407,
      "duration": 0.1438,
      "velocity": 115,
      "chip": "ym2612"
    },
    {
      "channel": 0,
      "note": 45,
      "start": 4.3444,
      "duration": 0.0402,
      "velocity": 119,
      "chip": "ym2612"
    },
    {
      "channel": 1,
      "note": 72,
      "start": 4.5044,
      "duration": 0.0801,
      "velocity": 115,
      "chip": "ym2612"
    },
    {
      "channel": 3,
      "note": 48,
      "start": 4.5878,
      "duration": 0.23,
      "velocity": 87,
      "chip": "ym2612"
    },
    {
      "channel": 0,
      "note": 45,
      "start": 4.5913,
      "duration": 0.0932,
      "velocity": 119,
      "chip": "ym2612"
    },
    {
      "channel": 1,
      "note": 75,
      "start": 4.771,
      "duration": 0.1302,
      "velocity": 115,
      "chip": "ym2612"
    },
    {
      "channel": 5,
      "note": 77,
      "start": 4.7739,
      "duration": 0.0607,
      "velocity": 116,
      "chip": "ym2612"
    },
    {
      "channel": 0,
      "note": 45,
      "start": 4.7771,
      "duration": 0.0573,
      "velocity": 119,
      "chip": "ym2612"
    },
    {
      "channel": 3,
      "note": 53,
      "start": 4.8877,
      "duration": 0.1303,
      "velocity": 87,
      "chip": "ym2612"
    },
    {
      "channel": 5,
      "note": 79,
      "start": 4.8906,
      "duration": 0.0607,
      "velocity": 116,
      "chip": "ym2612"
    },
    {
      "channel": 3,
      "note": 55,
      "start": 5.0377,
      "duration": 0.1135,
      "velocity": 87,
      "chip": "ym2612"
    },
    {
      "channel": 1,
      "note": 70,
      "start": 5.0409,
      "duration": 0.0601,
      "velocity": 115,
      "chip": "ym2612"
    },
    {
      "channel": 4,
      "note": 58,
      "start": 5.138,
      "duration": 0.0799,
      "velocity": 87,
      "chip": "ym2612"
    },
    {
      "channel": 1,
      "note": 72,
      "start": 5.1408,
      "duration": 0.6104,
      "velocity": 115,
      "chip": "ym2612"
    },
    {
      "channel": 5,
      "note": 77,
      "start": 5.1441,
      "duration": 0.0238,
      "velocity": 116,
      "chip": "ym2612"
    },
    {
      "channel": 0,
      "note": 45,
      "start": 5.1471,
      "duration": 0.054,
      "velocity": 119,
      "chip": "ym2612"
    },
    {
      "channel": 3,
      "note": 58,
      "start": 5.421,
      "duration": 0.0637,
      "velocity": 87,
      "chip": "ym2612"
    },
    {
      "channel": 5,
      "note": 77,
      "start": 5.4241,
      "duration": 0.0106,
      "velocity": 116,
      "chip": "ym2612"
    },
    {
      "channel": 0,
      "note": 45,
      "start": 5.427,
      "duration": 0.0574,
      "velocity": 119,
      "chip": "ym2612"
    },
    {
      "channel": 5,
      "note": 77,
      "start": 5.6714,
      "duration": 0.0633,
      "velocity": 116,
      "chip": "ym2612"
    },
    {
      "channel": 0,
      "note": 45,
      "start": 5.6745,
      "duration": 0.0765,
      "velocity": 119,
      "chip": "ym2612"
    },
    {
      "channel": 2,
      "note": 70,
      "start": 5.688,
      "duration": 0.1132,
      "velocity": 115,
      "chip": "ym2612"
    },
    {
      "channel": 3,
      "note": 58,
      "start": 5.8542,
      "duration": 0.0303,
      "velocity": 87,
      "chip": "ym2612"
    },
    {
      "channel": 5,
      "note": 79,
      "start": 5.8573,
      "duration": 0.0274,
      "velocity": 116,
      "chip": "ym2612"
    },
    {
      "channel": 3,
      "note": 55,
      "start": 5.9542,
      "duration": 0.1137,
      "velocity": 87,
      "chip": "ym2612"
    },
    {
      "channel": 1,
      "note": 77,
      "start": 5.9876,
      "duration": 0.1136,
      "velocity": 115,
      "chip": "ym2612"
    },
    {
      "channel": 3,
      "note": 53,
      "start": 6.1209,
      "duration": 0.3137,
      "velocity": 87,
      "chip": "ym2612"
    },
    {
      "channel": 1,
      "note": 75,
      "start": 6.1237,
      "duration": 0.1108,
      "velocity": 115,
      "chip": "ym2612"
    },
    {
      "channel": 0,
      "note": 45,
      "start": 6.2054,
      "duration": 0.0624,
      "velocity": 119,
      "chip": "ym2612"
    },
    {
      "channel": 4,
      "note": 87,
      "start": 6.3884,
      "duration": 0.1963,
      "velocity": 112,
      "chip": "ym2612"
    },
    {
      "channel": 3,
      "note": 48,
      "start": 6.5047,
      "duration": 0.1465,
      "velocity": 87,
      "chip": "ym2612"
    },
    {
      "channel": 0,
      "note": 45,
      "start": 6.5082,
      "duration": 0.0763,
      "velocity": 119,
      "chip": "ym2612"
    },
    {
      "channel": 3,
      "note": 48,
      "start": 6.7543,
      "duration": 0.1969,
      "velocity": 87,
      "chip": "ym2612"
    },
    {
      "channel": 0,
      "note": 45,
      "start": 6.7578,
      "duration": 0.0599,
      "velocity": 119,
      "chip": "ym2612"
    },
    {
      "channel": 5,
      "note": 77,
      "start": 6.9213,
      "duration": 0.0633,
      "velocity": 116,
      "chip": "ym2612"
    },
    {
      "channel": 0,
      "note": 45,
      "start": 6.9243,
      "duration": 0.0601,
      "velocity": 119,
      "chip": "ym2612"
    },
    {
      "channel": 3,
      "note": 53,
      "start": 7.0376,
      "duration": 0.1302,
      "velocity": 87,
      "chip": "ym2612"
    },
    {
      "channel": 5,
      "note": 79,
      "start": 7.0406,
      "duration": 0.0607,
      "velocity": 116,
      "chip": "ym2612"
    },
    {
      "channel": 3,
      "note": 55,
      "start": 7.2042,
      "duration": 0.0971,
      "velocity": 87,
      "chip": "ym2612"
    },
    {
      "channel": 0,
      "note": 45,
      "start": 7.2077,
      "duration": 0.0767,
      "velocity": 119,
      "chip": "ym2612"
    },
    {
      "channel": 2,
      "note": 58,
      "start": 7.2879,
      "duration": 0.0802,
      "velocity": 87,
      "chip": "ym2612"
    },
    {
      "channel": 5,
      "note": 77,
      "start": 7.2914,
      "duration": 0.0432,
      "velocity": 116,
      "chip": "ym2612"
    },
    {
      "channel": 3,
      "note": 58,
      "start": 7.571,
      "duration": 0.0802,
      "velocity": 87,
      "chip": "ym2612"
    },
    {
      "channel": 5,
      "note": 77,
      "start": 7.5741,
      "duration": 0.0272,
      "velocity": 116,
      "chip": "ym2612"
    },
    {
      "channel": 0,
      "note": 45,
      "start": 7.5773,
      "duration": 0.0738,
      "velocity": 119,
      "chip": "ym2612"
    },
    {
      "channel": 5,
      "note": 77,
      "start": 7.8213,
      "duration": 0.0633,
      "velocity": 116,
      "chip": "ym2612"
    },
    {
      "channel": 0,
      "note": 45,
      "start": 7.8249,
      "duration": 0.1096,
      "velocity": 119,
      "chip": "ym2612"
    },
    {
      "channel": 3,
      "note": 57,
      "start": 8.0047,
      "duration": 0.0798,
      "velocity": 87,
      "chip": "ym2612"
    },
    {
      "channel": 5,
      "note": 79,
      "start": 8.0078,
      "duration": 0.0435,
      "velocity": 116,
      "chip": "ym2612"
    },
    {
      "channel": 3,
      "note": 57,
      "start": 8.2709,
      "duration": 0.097,
      "velocity": 87,
      "chip": "ym2612"
    },
    {
      "channel": 3,
      "note": 53,
      "start": 8.371,
      "duration": 0.2803,
      "velocity": 87,
      "chip": "ym2612"
    },
    {
      "channel": 0,
      "note": 45,
      "start": 8.3744,
      "duration": 0.0267,
      "velocity": 119,
      "chip": "ym2612"
    },
    {
      "channel": 3,
      "note": 48,
      "start": 8.6544,
      "duration": 0.1634,
      "velocity": 87,
      "chip": "ym2612"
    },
    {
      "channel": 0,
      "note": 45,
      "start": 8.6579,
      "duration": 0.01,
      "velocity": 119,
      "chip": "ym2612"
    },
    {
      "channel": 3,
      "note": 48,
      "start": 8.9042,
      "duration": 0.197,
      "velocity": 87,
      "chip": "ym2612"
    },
    {
      "channel": 0,
      "note": 45,
      "start": 8.9077,
      "duration": 0.0767,
      "velocity": 119,
      "chip": "ym2612"
    },
    {
      "channel": 5,
      "note": 77,
      "start": 9.088,
      "duration": 0.0633,
      "velocity": 116,
      "chip": "ym2612"
    },
    {
      "channel": 0,
      "note": 45,
      "start": 9.0909,
      "duration": 0.0768,
      "velocity": 119,
      "chip": "ym2612"
    },
    {
      "channel": 3,
      "note": 53,
      "start": 9.1879,
      "duration": 0.1134,
      "velocity": 87,
      "chip": "ym2612"
    },
    {
      "channel": 5,
      "note": 79,
      "start": 9.1914,
      "duration": 0.0433,
      "velocity": 116,
      "chip": "ym2612"
    },
    {
      "channel": 3,
      "note": 55,
      "start": 9.3541,
      "duration": 0.1138,
      "velocity": 87,
      "chip": "ym2612"
    },
    {
      "channel": 2,
      "note": 58,
      "start": 9.4378,
      "duration": 0.0969,
      "velocity": 87,
      "chip": "ym2612"
    },
    {
      "channel": 5,
      "note": 77,
      "start": 9.4408,
      "duration": 0.0439,
      "velocity": 116,
      "chip": "ym2612"
    },
    {
      "channel": 0,
      "note": 45,
      "start": 9.4439,
      "duration": 0.0572,
      "velocity": 119,
      "chip": "ym2612"
    },
    {
      "channel": 3,
      "note": 58,
      "start": 9.7376,
      "duration": 0.0635,
      "velocity": 87,
      "chip": "ym2612"
    },
    {
      "channel": 5,
      "note": 79,
      "start": 9.7407,
      "duration": 0.0606,
      "velocity": 116,
      "chip": "ym2612"
    },
    {
      "channel": 0,
      "note": 45,
      "start": 9.7442,
      "duration": 0.0734,
      "velocity": 119,
      "chip": "ym2612"
    },
    {
      "channel": 5,
      "note": 77,
      "start": 9.988,
      "duration": 0.08,
      "velocity": 116,
      "chip": "ym2612"
    },
    {
      "channel": 0,
      "note": 45,
      "start": 9.9911,
      "duration": 0.0933,
      "velocity": 119,
      "chip": "ym2612"
    },
    {
      "channel": 3,
      "note": 58,
      "start": 10.1542,
      "duration": 0.047,
      "velocity": 87,
      "chip": "ym2612"
    },
    {
      "channel": 5,
      "note": 79,
      "start": 10.1573,
      "duration": 0.044,
      "velocity": 116,
      "chip": "ym2612"
    },
    {
      "channel": 3,
      "note": 51,
      "start": 10.2709,
      "duration": 0.0137,
      "velocity": 87,
      "chip": "ym2612"
    },
    {
      "channel": 3,
      "note": 50,
      "start": 10.4379,
      "duration": 0.33,
      "velocity": 87,
      "chip": "ym2612"
    },
    {
      "channel": 5,
      "note": 77,
      "start": 10.4409,
      "duration": 0.0105,
      "velocity": 116,
      "chip": "ym2612"
    },
    {
      "channel": 4,
      "note": 84,
      "start": 10.4442,
      "duration": 0.057,
      "velocity": 112,
      "chip": "ym2612"
    },
    {
      "channel": 4,
      "note": 82,
      "start": 10.5214,
      "duration": 0.0632,
      "velocity": 112,
      "chip": "ym2612"
    },
    {
      "channel": 0,
      "note": 45,
      "start": 10.5244,
      "duration": 0.0766,
      "velocity": 119,
      "chip": "ym2612"
    },
    {
      "channel": 5,
      "note": 75,
      "start": 10.705,
      "duration": 0.0296,
      "velocity": 116,
      "chip": "ym2612"
    },
    {
      "channel": 4,
      "note": 80,
      "start": 10.7081,
      "duration": 0.1765,
      "velocity": 112,
      "chip": "ym2612"
    },
    {
      "channel": 3,
      "note": 53,
      "start": 10.8043,
      "duration": 0.1636,
      "velocity": 87,
      "chip": "ym2612"
    },
    {
      "channel": 0,
      "note": 45,
      "start": 10.8078,
      "duration": 0.0267,
      "velocity": 119,
      "chip": "ym2612"
    },
    {
      "channel": 3,
      "note": 53,
      "start": 11.0543,
      "duration": 0.1969,
      "velocity": 87,
      "chip": "ym2612"
    },
    {
      "channel": 0,
      "note": 45,
      "start": 11.0578,
      "duration": 0.0434,
      "velocity": 119,
      "chip": "ym2612"
    },
    {
      "channel": 5,
      "note": 82,
      "start": 11.238,
      "duration": 0.08,
      "velocity": 116,
      "chip": "ym2612"
    },
    {
      "channel": 0,
      "note": 45,
      "start": 11.2415,
      "duration": 0.0762,
      "velocity": 119,
      "chip": "ym2612"
    },
    {
      "channel": 3,
      "note": 58,
      "start": 11.3543,
      "duration": 0.1303,
      "velocity": 87,
      "chip": "ym2612"
    },
    {
      "channel": 5,
      "note": 84,
      "start": 11.3575,
      "duration": 0.0606,
      "velocity": 116,
      "chip": "ym2612"
    },
    {
      "channel": 3,
      "note": 60,
      "start": 11.5044,
      "duration": 0.1137,
      "velocity": 87,
      "chip": "ym2612"
    },
    {
      "channel": 0,
      "note": 45,
      "start": 11.5078,
      "duration": 0.0599,
      "velocity": 119,
      "chip": "ym2612"
    },
    {
      "channel": 2,
      "note": 63,
      "start": 11.6043,
      "duration": 0.0971,
      "velocity": 87,
      "chip": "ym2612"
    },
    {
      "channel": 5,
      "note": 82,
      "start": 11.6074,
      "duration": 0.0273,
      "velocity": 116,
      "chip": "ym2612"
    },
    {
      "channel": 3,
      "note": 63,
      "start": 11.8881,
      "duration": 0.0964,
      "velocity": 87,
      "chip": "ym2612"
    },
    {
      "channel": 5,
      "note": 82,
      "start": 11.8912,
      "duration": 0.0602,
      "velocity": 116,
      "chip": "ym2612"
    },
    {
      "channel": 0,
      "note": 45,
      "start": 11.8942,
      "duration": 0.0569,
      "velocity": 119,
      "chip": "ym2612"
    },
    {
      "channel": 5,
      "note": 82,
      "start": 12.1379,
      "duration": 0.0635,
      "velocity": 116,
      "chip": "ym2612"
    },
    {
      "channel": 0,
      "note": 45,
      "start": 12.141,
      "duration": 0.11,
      "velocity": 119,
      "chip": "ym2612"
    },
    {
      "channel": 3,
      "note": 62,
      "start": 12.3207,
      "duration": 0.0805,
      "velocity": 87,
      "chip": "ym2612"
    },
    {
      "channel": 5,
      "note": 84,
      "start": 12.3242,
      "duration": 0.027,
      "velocity": 116,
      "chip": "ym2612"
    },
    {
      "channel": 3,
      "note": 62,
      "start": 12.5877,
      "duration": 0.0635,
      "velocity": 87,
      "chip": "ym2612"
    },
    {
      "channel": 3,
      "note": 58,
      "start": 12.6708,
      "duration": 0.2638,
      "velocity": 87,
      "chip": "ym2612"
    },
    {
      "channel": 0,
      "note": 45,
      "start": 12.6743,
      "duration": 0.0602,
      "velocity": 119,
      "chip": "ym2612"
    },
    {
      "channel": 3,
      "note": 53,
      "start": 12.971,
      "duration": 0.1469,
      "velocity": 87,
      "chip": "ym2612"
    },
    {
      "channel": 1,
      "note": 70,
      "start": 12.9742,
      "duration": 0.1269,
      "velocity": 115,
      "chip": "ym2612"
    },
    {
      "channel": 0,
      "note": 45,
      "start": 12.9776,
      "duration": 0.0402,
      "velocity": 119,
      "chip": "ym2612"
    },
    {
      "channel": 1,
      "note": 72,
      "start": 13.1545,
      "duration": 0.0967,
      "velocity": 115,
      "chip": "ym2612"
    },
    {
      "channel": 3,
      "note": 53,
      "start": 13.2214,
      "duration": 0.2131,
      "velocity": 87,
      "chip": "ym2612"
    },
    {
      "channel": 0,
      "note": 45,
      "start": 13.2253,
      "duration": 0.0759,
      "velocity": 119,
      "chip": "ym2612"
    },
    {
      "channel": 5,
      "note": 82,
      "start": 13.388,
      "duration": 0.0468,
      "velocity": 116,
      "chip": "ym2612"
    },
    {
      "channel": 0,
      "note": 45,
      "start": 13.3911,
      "duration": 0.06,
      "velocity": 119,
      "chip": "ym2612"
    },
    {
      "channel": 1,
      "note": 77,
      "start": 13.4208,
      "duration": 0.1138,
      "velocity": 115,
      "chip": "ym2612"
    },
    {
      "channel": 3,
      "note": 58,
      "start": 13.5042,
      "duration": 0.1303,
      "velocity": 87,
      "chip": "ym2612"
    },
    {
      "channel": 5,
      "note": 84,
      "start": 13.5071,
      "duration": 0.0442,
      "velocity": 116,
      "chip": "ym2612"
    },
    {
      "channel": 3,
      "note": 60,
      "start": 13.6709,
      "duration": 0.0971,
      "velocity": 87,
      "chip": "ym2612"
    },
    {
      "channel": 1,
      "note": 75,
      "start": 13.6877,
      "duration": 1.0801,
      "velocity": 115,
      "chip": "ym2612"
    },
    {
      "channel": 2,
      "note": 63,
      "start": 13.7544,
      "duration": 0.0803,
      "velocity": 87,
      "chip": "ym2612"
    },
    {
      "channel": 5,
      "note": 82,
      "start": 13.7573,
      "duration": 0.0439,
      "velocity": 116,
      "chip": "ym2612"
    },
    {
      "channel": 0,
      "note": 45,
      "start": 13.7603,
      "duration": 0.0574,
      "velocity": 119,
      "chip": "ym2612"
    },
    {
      "channel": 3,
      "note": 63,
      "start": 14.0543,
      "duration": 0.0636,
      "velocity": 87,
      "chip": "ym2612"
    },
    {
      "channel": 5,
      "note": 84,
      "start": 14.0574,
      "duration": 0.0607,
      "velocity": 116,
      "chip": "ym2612"
    },
    {
      "channel": 0,
      "note": 45,
      "start": 14.0604,
      "duration": 0.0573,
      "velocity": 119,
      "chip": "ym2612"
    },
    {
      "channel": 5,
      "note": 84,
      "start": 14.2878,
      "duration": 0.0635,
      "velocity": 116,
      "chip": "ym2612"
    },
    {
      "channel": 0,
      "note": 45,
      "start": 14.291,
      "duration": 0.0934,
      "velocity": 119,
      "chip": "ym2612"
    },
    {
      "channel": 3,
      "note": 63,
      "start": 14.471,
      "duration": 0.0468,
      "velocity": 87,
      "chip": "ym2612"
    },
    {
      "channel": 5,
      "note": 82,
      "start": 14.4741,
      "duration": 0.0439,
      "velocity": 116,
      "chip": "ym2612"
    },
    {
      "channel": 3,
      "note": 60,
      "start": 14.588,
      "duration": 0.1132,
      "velocity": 87,
      "chip": "ym2612"
    },
    {
      "channel": 3,
      "note": 58,
      "start": 14.7377,
      "duration": 0.3135,
      "velocity": 87,
      "chip": "ym2612"
    },
    {
      "channel": 5,
      "note": 82,
      "start": 14.741,
      "duration": 0.027,
      "velocity": 116,
      "chip": "ym2612"
    },
    {
      "channel": 1,
      "note": 72,
      "start": 14.8377,
      "duration": 0.0802,
      "velocity": 115,
      "chip": "ym2612"
    },
    {
      "channel": 0,
      "note": 45,
      "start": 14.841,
      "duration": 0.06,
      "velocity": 119,
      "chip": "ym2612"
    },
    {
      "channel": 5,
      "note": 84,
      "start": 15.0046,
      "duration": 0.0468,
      "velocity": 116,
      "chip": "ym2612"
    },
    {
      "channel": 1,
      "note": 79,
      "start": 15.1044,
      "duration": 0.1467,
      "velocity": 115,
      "chip": "ym2612"
    },
    {
      "channel": 3,
      "note": 53,
      "start": 15.121,
      "duration": 0.1635,
      "velocity": 87,
      "chip": "ym2612"
    },
    {
      "channel": 0,
      "note": 45,
      "start": 15.1263,
      "duration": 0.0915,
      "velocity": 119,
      "chip": "ym2612"
    },
    {
      "channel": 3,
      "note": 53,
      "start": 15.371,
      "duration": 0.1969,
      "velocity": 87,
      "chip": "ym2612"
    },
    {
      "channel": 4,
      "note": 78,
      "start": 15.3745,
      "duration": 0.0602,
      "velocity": 127,
      "chip": "ym2612"
    },
    {
      "channel": 0,
      "note": 45,
      "start": 15.3773,
      "duration": 0.0572,
      "velocity": 119,
      "chip": "ym2612"
    },
    {
      "channel": 1,
      "note": 77,
      "start": 15.4876,
      "duration": 0.0968,
      "velocity": 115,
      "chip": "ym2612"
    },
    {
      "channel": 5,
      "note": 82,
      "start": 15.5547,
      "duration": 0.0634,
      "velocity": 116,
      "chip": "ym2612"
    },
    {
      "channel": 4,
      "note": 78,
      "start": 15.5576,
      "duration": 0.0604,
      "velocity": 127,
      "chip": "ym2612"
    },
    {
      "channel": 0,
      "note": 45,
      "start": 15.5602,
      "duration": 0.0575,
      "velocity": 119,
      "chip": "ym2612"
    },
    {
      "channel": 3,
      "note": 58,
      "start": 15.671,
      "duration": 0.1302,
      "velocity": 87,
      "chip": "ym2612"
    },
    {
      "channel": 5,
      "note": 84,
      "start": 15.6739,
      "duration": 0.0609,
      "velocity": 116,
      "chip": "ym2612"
    },
    {
      "channel": 4,
      "note": 78,
      "start": 15.6768,
      "duration": 0.0578,
      "velocity": 127,
      "chip": "ym2612"
    },
    {
      "channel": 3,
      "note": 60,
      "start": 15.8213,
      "duration": 0.1133,
      "velocity": 87,
      "chip": "ym2612"
    },
    {
      "channel": 4,
      "note": 78,
      "start": 15.8246,
      "duration": 0.06,
      "velocity": 127,
      "chip": "ym2612"
    },
    {
      "channel": 0,
      "note": 45,
      "start": 15.8274,
      "duration": 0.0737,
      "velocity": 119,
      "chip": "ym2612"
    },
    {
      "channel": 1,
      "note": 75,
      "start": 15.8714,
      "duration": 0.1298,
      "velocity": 115,
      "chip": "ym2612"
    },
    {
      "channel": 2,
      "note": 63,
      "start": 15.9044,
      "duration": 0.0971,
      "velocity": 87,
      "chip": "ym2612"
    },
    {
      "channel": 5,
      "note": 82,
      "start": 15.9076,
      "duration": 0.0438,
      "velocity": 116,
      "chip": "ym2612"
    },
    {
      "channel": 4,
      "note": 78,
      "start": 15.9105,
      "duration": 0.0575,
      "velocity": 127,
      "chip": "ym2612"
    },
    {
      "channel": 3,
      "note": 63,
      "start": 16.2043,
      "duration": 0.0637,
      "velocity": 87,
      "chip": "ym2612"
    },
    {
      "channel": 1,
      "note": 77,
      "start": 16.2071,
      "duration": 0.144,
      "velocity": 115,
      "chip": "ym2612"
    },
    {
      "channel": 5,
      "note": 82,
      "start": 16.2101,
      "duration": 0.0079,
      "velocity": 116,
      "chip": "ym2612"
    },
    {
      "channel": 4,
      "note": 78,
      "start": 16.213,
      "duration": 0.055,
      "velocity": 127,
      "chip": "ym2612"
    },
    {
      "channel": 0,
      "note": 45,
      "start": 16.2158,
      "duration": 0.0519,
      "velocity": 119,
      "chip": "ym2612"
    },
    {
      "channel": 5,
      "note": 82,
      "start": 16.455,
      "duration": 0.0631,
      "velocity": 116,
      "chip": "ym2612"
    },
    {
      "channel": 4,
      "note": 78,
      "start": 16.4583,
      "duration": 0.0597,
      "velocity": 127,
      "chip": "ym2612"
    },
    {
      "channel": 0,
      "note": 45,
      "start": 16.4615,
      "duration": 0.0895,
      "velocity": 119,
      "chip": "ym2612"
    },
    {
      "channel": 1,
      "note": 75,
      "start": 16.6045,
      "duration": 0.6466,
      "velocity": 115,
      "chip": "ym2612"
    },
    {
      "channel": 3,
      "note": 62,
      "start": 16.6209,
      "duration": 0.097,
      "velocity": 87,
      "chip": "ym2612"
    },
    {
      "channel": 5,
      "note": 84,
      "start": 16.624,
      "duration": 0.044,
      "velocity": 116,
      "chip": "ym2612"
    },
    {
      "channel": 4,
      "note": 78,
      "start": 16.7381,
      "duration": 0.0632,
      "velocity": 127,
      "chip": "ym2612"
    },
    {
      "channel": 3,
      "note": 62,
      "start": 16.9041,
      "duration": 0.0805,
      "velocity": 87,
      "chip": "ym2612"
    },
    {
      "channel": 2,
      "note": 91,
      "start": 16.9075,
      "duration": 0.0606,
      "velocity": 112,
      "chip": "ym2612"
    },
    {
      "channel": 4,
      "note": 78,
      "start": 16.9103,
      "duration": 0.0576,
      "velocity": 127,
      "chip": "ym2612"
    },
    {
      "channel": 3,
      "note": 58,
      "start": 16.9877,
      "duration": 0.2635,
      "velocity": 87,
      "chip": "ym2612"
    },
    {
      "channel": 2,
      "note": 89,
      "start": 16.9909,
      "duration": 0.0605,
      "velocity": 112,
      "chip": "ym2612"
    },
    {
      "channel": 4,
      "note": 78,
      "start": 16.9937,
      "duration": 0.0576,
      "velocity": 127,
      "chip": "ym2612"
    },
    {
      "channel": 0,
      "note": 45,
      "start": 16.9965,
      "duration": 0.0378,
      "velocity": 119,
      "chip": "ym2612"
    },
    {
      "channel": 4,
      "note": 78,
      "start": 17.1716,
      "duration": 0.063,
      "velocity": 127,
      "chip": "ym2612"
    },
    {
      "channel": 2,
      "note": 87,
      "start": 17.1885,
      "duration": 0.0962,
      "velocity": 112,
      "chip": "ym2612"
    },
    {
      "channel": 3,
      "note": 48,
      "start": 17.2881,
      "duration": 0.1465,
      "velocity": 87,
      "chip": "ym2612"
    },
    {
      "channel": 0,
      "note": 45,
      "start": 17.2915,
      "duration": 0.0095,
      "velocity": 119,
      "chip": "ym2612"
    },
    {
      "channel": 3,
      "note": 48,
      "start": 17.521,
      "duration": 0.1802,
      "velocity": 87,
      "chip": "ym2612"
    },
    {
      "channel": 0,
      "note": 45,
      "start": 17.5244,
      "duration": 0.0434,
      "velocity": 119,
      "chip": "ym2612"
    },
    {
      "channel": 5,
      "note": 77,
      "start": 17.7048,
      "duration": 0.0632,
      "velocity": 116,
      "chip": "ym2612"
    },
    {
      "channel": 0,
      "note": 45,
      "start": 17.7079,
      "duration": 0.0932,
      "velocity": 119,
      "chip": "ym2612"
    },
    {
      "channel": 3,
      "note": 53,
      "start": 17.8209,
      "duration": 0.1137,
      "velocity": 87,
      "chip": "ym2612"
    },
    {
      "channel": 5,
      "note": 79,
      "start": 17.8239,
      "duration": 0.0608,
      "velocity": 116,
      "chip": "ym2612"
    },
    {
      "channel": 0,
      "note": 45,
      "start": 17.9718,
      "duration": 0.0626,
      "velocity": 119,
      "chip": "ym2612"
    },
    {
      "channel": 3,
      "note": 55,
      "start": 18.0709,
      "duration": 0.1304,
      "velocity": 87,
      "chip": "ym2612"
    },
    {
      "channel": 5,
      "note": 77,
      "start": 18.0739,
      "duration": 0.0609,
      "velocity": 116,
      "chip": "ym2612"
    },
    {
      "channel": 3,
      "note": 58,
      "start": 18.3543,
      "duration": 0.0637,
      "velocity": 87,
      "chip": "ym2612"
    },
    {
      "channel": 5,
      "note": 77,
      "start": 18.3575,
      "duration": 0.0438,
      "velocity": 116,
      "chip": "ym2612"
    },
    {
      "channel": 0,
      "note": 45,
      "start": 18.3608,
      "duration": 0.057,
      "velocity": 119,
      "chip": "ym2612"
    },
    {
      "channel": 5,
      "note": 77,
      "start": 18.6051,
      "duration": 0.0629,
      "velocity": 116,
      "chip": "ym2612"
    },
    {
      "channel": 0,
      "note": 45,
      "start": 18.6082,
      "duration": 0.1096,
      "velocity": 119,
      "chip": "ym2612"
    },
    {
      "channel": 3,
      "note": 57,
      "start": 18.7879,
      "duration": 0.0633,
      "velocity": 87,
      "chip": "ym2612"
    },
    {
      "channel": 5,
      "note": 79,
      "start": 18.791,
      "duration": 0.0269,
      "velocity": 116,
      "chip": "ym2612"
    },
    {
      "channel": 3,
      "note": 57,
      "start": 19.0542,
      "duration": 0.0637,
      "velocity": 87,
      "chip": "ym2612"
    },
    {
      "channel": 3,
      "note": 53,
      "start": 19.1376,
      "duration": 0.2804,
      "velocity": 87,
      "chip": "ym2612"
    },
    {
      "channel": 4,
      "note": 58,
      "start": 19.1404,
      "duration": 0.0609,
      "velocity": 87,
      "chip": "ym2612"
    },
    {
      "channel": 0,
      "note": 45,
      "start": 19.1439,
      "duration": 0.0572,
      "velocity": 119,
      "chip": "ym2612"
    },
    {
      "channel": 3,
      "note": 48,
      "start": 19.4376,
      "duration": 0.1469,
      "velocity": 87,
      "chip": "ym2612"
    },
    {
      "channel": 1,
      "note": 70,
      "start": 19.4405,
      "duration": 0.1273,
      "velocity": 115,
      "chip": "ym2612"
    },
    {
      "channel": 0,
      "note": 45,
      "start": 19.4438,
      "duration": 0.0407,
      "velocity": 119,
      "chip": "ym2612"
    },
    {
      "channel": 1,
      "note": 72,
      "start": 19.5879,
      "duration": 0.0966,
      "velocity": 115,
      "chip": "ym2612"
    },
    {
      "channel": 3,
      "note": 48,
      "start": 19.6878,
      "duration": 0.1634,
      "velocity": 87,
      "chip": "ym2612"
    },
    {
      "channel": 0,
      "note": 45,
      "start": 19.6913,
      "duration": 0.0765,
      "velocity": 119,
      "chip": "ym2612"
    },
    {
      "channel": 1,
      "note": 75,
      "start": 19.8547,
      "duration": 0.1464,
      "velocity": 115,
      "chip": "ym2612"
    },
    {
      "channel": 5,
      "note": 77,
      "start": 19.8576,
      "duration": 0.0437,
      "velocity": 116,
      "chip": "ym2612"
    },
    {
      "channel": 0,
      "note": 45,
      "start": 19.8611,
      "duration": 0.0733,
      "velocity": 119,
      "chip": "ym2612"
    },
    {
      "channel": 3,
      "note": 53,
      "start": 19.9713,
      "duration": 0.1132,
      "velocity": 87,
      "chip": "ym2612"
    },
    {
      "channel": 5,
      "note": 79,
      "start": 19.9743,
      "duration": 0.0437,
      "velocity": 116,
      "chip": "ym2612"
    },
    {
      "channel": 3,
      "note": 55,
      "start": 20.1374,
      "duration": 0.0972,
      "velocity": 87,
      "chip": "ym2612"
    },
    {
      "channel": 1,
      "note": 70,
      "start": 20.1402,
      "duration": 0.061,
      "velocity": 115,
      "chip": "ym2612"
    },
    {
      "channel": 4,
      "note": 58,
      "start": 20.221,
      "duration": 0.0803,
      "velocity": 87,
      "chip": "ym2612"
    },
    {
      "channel": 1,
      "note": 72,
      "start": 20.2238,
      "duration": 0.6274,
      "velocity": 115,
      "chip": "ym2612"
    },
    {
      "channel": 5,
      "note": 77,
      "start": 20.2268,
      "duration": 0.0746,
      "velocity": 116,
      "chip": "ym2612"
    },
    {
      "channel": 0,
      "note": 45,
      "start": 20.2298,
      "duration": 0.0546,
      "velocity": 119,
      "chip": "ym2612"
    },
    {
      "channel": 3,
      "note": 58,
      "start": 20.5209,
      "duration": 0.0638,
      "velocity": 87,
      "chip": "ym2612"
    },
    {
      "channel": 5,
      "note": 79,
      "start": 20.524,
      "duration": 0.0608,
      "velocity": 116,
      "chip": "ym2612"
    },
    {
      "channel": 0,
      "note": 45,
      "start": 20.527,
      "duration": 0.0575,
      "velocity": 119,
      "chip": "ym2612"
    },
    {
      "channel": 5,
      "note": 77,
      "start": 20.7551,
      "duration": 0.0461,
      "velocity": 116,
      "chip": "ym2612"
    },
    {
      "channel": 0,
      "note": 45,
      "start": 20.7583,
      "duration": 0.0928,
      "velocity": 119,
      "chip": "ym2612"
    },
    {
      "channel": 2,
      "note": 70,
      "start": 20.7881,
      "duration": 0.0966,
      "velocity": 115,
      "chip": "ym2612"
    },
    {
      "channel": 3,
      "note": 58,
      "start": 20.9376,
      "duration": 0.1135,
      "velocity": 87,
      "chip": "ym2612"
    },
    {
      "channel": 5,
      "note": 79,
      "start": 20.9406,
      "duration": 0.0441,
      "velocity": 116,
      "chip": "ym2612"
    },
    {
      "channel": 3,
      "note": 60,
      "start": 21.0543,
      "duration": 0.0802,
      "velocity": 87,
      "chip": "ym2612"
    },
    {
      "channel": 1,
      "note": 77,
      "start": 21.071,
      "duration": 0.1136,
      "velocity": 115,
      "chip": "ym2612"
    },
    {
      "channel": 3,
      "note": 51,
      "start": 21.2047,
      "duration": 0.3132,
      "velocity": 87,
      "chip": "ym2612"
    },
    {
      "channel": 1,
      "note": 75,
      "start": 21.2076,
      "duration": 0.1103,
      "velocity": 115,
      "chip": "ym2612"
    },
    {
      "channel": 5,
      "note": 77,
      "start": 21.2102,
      "duration": 0.041,
      "velocity": 116,
      "chip": "ym2612"
    },
    {
      "channel": 0,
      "note": 45,
      "start": 21.305,
      "duration": 0.0627,
      "velocity": 119,
      "chip": "ym2612"
    },
    {
      "channel": 5,
      "note": 75,
      "start": 21.4712,
      "duration": 0.047,
      "velocity": 116,
      "chip": "ym2612"
    },
    {
      "channel": 4,
      "note": 87,
      "start": 21.4748,
      "duration": 0.2264,
      "velocity": 112,
      "chip": "ym2612"
    },
    {
      "channel": 3,
      "note": 48,
      "start": 21.5876,
      "duration": 0.1302,
      "velocity": 87,
      "chip": "ym2612"
    },
    {
      "channel": 0,
      "note": 45,
      "start": 21.5911,
      "duration": 0.0933,
      "velocity": 119,
      "chip": "ym2612"
    },
    {
      "channel": 3,
      "note": 48,
      "start": 21.8377,
      "duration": 0.1968,
      "velocity": 87,
      "chip": "ym2612"
    },
    {
      "channel": 0,
      "note": 45,
      "start": 21.8415,
      "duration": 0.0597,
      "velocity": 119,
      "chip": "ym2612"
    },
    {
      "channel": 5,
      "note": 77,
      "start": 22.0213,
      "duration": 0.0633,
      "velocity": 116,
      "chip": "ym2612"
    },
    {
      "channel": 0,
      "note": 45,
      "start": 22.0243,
      "duration": 0.0601,
      "velocity": 119,
      "chip": "ym2612"
    },
    {
      "channel": 3,
      "note": 53,
      "start": 22.1375,
      "duration": 0.1304,
      "velocity": 87,
      "chip": "ym2612"
    },
    {
      "channel": 5,
      "note": 79,
      "start": 22.1405,
      "duration": 0.0609,
      "velocity": 116,
      "chip": "ym2612"
    },
    {
      "channel": 3,
      "note": 55,
      "start": 22.2877,
      "duration": 0.1136,
      "velocity": 87,
      "chip": "ym2612"
    },
    {
      "channel": 0,
      "note": 45,
      "start": 22.2911,
      "duration": 0.0766,
      "velocity": 119,
      "chip": "ym2612"
    },
    {
      "channel": 2,
      "note": 58,
      "start": 22.3714,
      "duration": 0.1133,
      "velocity": 87,
      "chip": "ym2612"
    },
    {
      "channel": 5,
      "note": 77,
      "start": 22.3745,
      "duration": 0.0435,
      "velocity": 116,
      "chip": "ym2612"
    },
    {
      "channel": 3,
      "note": 58,
      "start": 22.671,
      "duration": 0.0636,
      "velocity": 87,
      "chip": "ym2612"
    },
    {
      "channel": 5,
      "note": 77,
      "start": 22.6745,
      "duration": 0.0603,
      "velocity": 116,
      "chip": "ym2612"
    },
    {
      "channel": 0,
      "note": 45,
      "start": 22.6776,
      "duration": 0.0568,
      "velocity": 119,
      "chip": "ym2612"
    },
    {
      "channel": 5,
      "note": 77,
      "start": 22.9212,
      "duration": 0.0635,
      "velocity": 116,
      "chip": "ym2612"
    },
    {
      "channel": 0,
      "note": 45,
      "start": 22.9243,
      "duration": 0.0934,
      "velocity": 119,
      "chip": "ym2612"
    },
    {
      "channel": 3,
      "note": 57,
      "start": 23.0874,
      "duration": 0.0805,
      "velocity": 87,
      "chip": "ym2612"
    },
    {
      "channel": 5,
      "note": 79,
      "start": 23.0905,
      "duration": 0.0441,
      "velocity": 116,
      "chip": "ym2612"
    },
    {
      "channel": 3,
      "note": 57,
      "start": 23.371,
      "duration": 0.0136,
      "velocity": 87,
      "chip": "ym2612"
    },
    {
      "channel": 3,
      "note": 53,
      "start": 23.4543,
      "duration": 0.2636,
      "velocity": 87,
      "chip": "ym2612"
    },
    {
      "channel": 0,
      "note": 45,
      "start": 23.4577,
      "duration": 0.0434,
      "velocity": 119,
      "chip": "ym2612"
    },
    {
      "channel": 4,
      "note": 96,
      "start": 23.6381,
      "duration": 0.2799,
      "velocity": 112,
      "chip": "ym2612"
    },
    {
      "channel": 3,
      "note": 48,
      "start": 23.7544,
      "duration": 0.1468,
      "velocity": 87,
      "chip": "ym2612"
    },
    {
      "channel": 5,
      "note": 75,
      "start": 23.7575,
      "duration": 0.0938,
      "velocity": 116,
      "chip": "ym2612"
    },
    {
      "channel": 0,
      "note": 45,
      "start": 23.761,
      "duration": 0.0068,
      "velocity": 119,
      "chip": "ym2612"
    },
    {
      "channel": 5,
      "note": 77,
      "start": 23.9046,
      "duration": 0.1134,
      "velocity": 116,
      "chip": "ym2612"
    },
    {
      "channel": 3,
      "note": 48,
      "start": 23.988,
      "duration": 0.2132,
      "velocity": 87,
      "chip": "ym2612"
    },
    {
      "channel": 1,
      "note": 75,
      "start": 23.9912,
      "duration": 0.1266,
      "velocity": 116,
      "chip": "ym2612"
    },
    {
      "channel": 0,
      "note": 45,
      "start": 23.9943,
      "duration": 0.0901,
      "velocity": 119,
      "chip": "ym2612"
    },
    {
      "channel": 1,
      "note": 77,
      "start": 24.1716,
      "duration": 0.0964,
      "velocity": 116,
      "chip": "ym2612"
    },
    {
      "channel": 0,
      "note": 45,
      "start": 24.1745,
      "duration": 0.0933,
      "velocity": 119,
      "chip": "ym2612"
    },
    {
      "channel": 3,
      "note": 50,
      "start": 24.2875,
      "duration": 0.197,
      "velocity": 87,
      "chip": "ym2612"
    },
    {
      "channel": 1,
      "note": 75,
      "start": 24.2903,
      "duration": 0.0776,
      "velocity": 116,
      "chip": "ym2612"
    },
    {
      "channel": 1,
      "note": 77,
      "start": 24.4378,
      "duration": 0.0967,
      "velocity": 116,
      "chip": "ym2612"
    },
    {
      "channel": 3,
      "note": 50,
      "start": 24.5375,
      "duration": 0.1971,
      "velocity": 87,
      "chip": "ym2612"
    },
    {
      "channel": 1,
      "note": 75,
      "start": 24.5405,
      "duration": 0.0939,
      "velocity": 116,
      "chip": "ym2612"
    },
    {
      "channel": 0,
      "note": 45,
      "start": 24.5436,
      "duration": 0.0575,
      "velocity": 119,
      "chip": "ym2612"
    },
    {
      "channel": 1,
      "note": 77,
      "start": 24.721,
      "duration": 0.0969,
      "velocity": 116,
      "chip": "ym2612"
    },
    {
      "channel": 3,
      "note": 51,
      "start": 24.821,
      "duration": 0.1969,
      "velocity": 87,
      "chip": "ym2612"
    },
    {
      "channel": 1,
      "note": 75,
      "start": 24.8239,
      "duration": 0.0606,
      "velocity": 116,
      "chip": "ym2612"
    },
    {
      "channel": 0,
      "note": 45,
      "start": 24.827,
      "duration": 0.0908,
      "velocity": 119,
      "chip": "ym2612"
    },
    {
      "channel": 2,
      "note": 53,
      "start": 24.9877,
      "duration": 0.0802,
      "velocity": 87,
      "chip": "ym2612"
    },
    {
      "channel": 1,
      "note": 77,
      "start": 24.9909,
      "duration": 0.0602,
      "velocity": 116,
      "chip": "ym2612"
    },
    {
      "channel": 4,
      "note": 89,
      "start": 24.9939,
      "duration": 0.0241,
      "velocity": 112,
      "chip": "ym2612"
    },
    {
      "channel": 3,
      "note": 53,
      "start": 25.0709,
      "duration": 0.1136,
      "velocity": 87,
      "chip": "ym2612"
    },
    {
      "channel": 1,
      "note": 77,
      "start": 25.0739,
      "duration": 0.0772,
      "velocity": 116,
      "chip": "ym2612"
    },
    {
      "channel": 4,
      "note": 89,
      "start": 25.0768,
      "duration": 0.0744,
      "velocity": 112,
      "chip": "ym2612"
    },
    {
      "channel": 0,
      "note": 45,
      "start": 25.0798,
      "duration": 0.1045,
      "velocity": 119,
      "chip": "ym2612"
    },
    {
      "channel": 3,
      "note": 53,
      "start": 25.3713,
      "duration": 0.08,
      "velocity": 87,
      "chip": "ym2612"
    },
    {
      "channel": 1,
      "note": 77,
      "start": 25.3743,
      "duration": 0.0602,
      "velocity": 116,
      "chip": "ym2612"
    },
    {
      "channel": 4,
      "note": 89,
      "start": 25.3772,
      "duration": 0.0575,
      "velocity": 112,
      "chip": "ym2612"
    },
    {
      "channel": 3,
      "note": 51,
      "start": 25.6042,
      "duration": 0.1304,
      "velocity": 87,
      "chip": "ym2612"
    },
    {
      "channel": 1,
      "note": 75,
      "start": 25.6073,
      "duration": 0.0939,
      "velocity": 116,
      "chip": "ym2612"
    },
    {
      "channel": 4,
      "note": 96,
      "start": 25.6105,
      "duration": 0.0575,
      "velocity": 112,
      "chip": "ym2612"
    },
    {
      "channel": 5,
      "note": 87,
      "start": 25.6134,
      "duration": 0.088,
      "velocity": 112,
      "chip": "ym2612"
    },
    {
      "channel": 0,
      "note": 45,
      "start": 25.6169,
      "duration": 0.0841,
      "velocity": 119,
      "chip": "ym2612"
    },
    {
      "channel": 3,
      "note": 60,
      "start": 25.7878,
      "duration": 0.0968,
      "velocity": 87,
      "chip": "ym2612"
    },
    {
      "channel": 4,
      "note": 96,
      "start": 25.7911,
      "duration": 0.0937,
      "velocity": 112,
      "chip": "ym2612"
    },
    {
      "channel": 2,
      "note": 59,
      "start": 26.055,
      "duration": 0.0463,
      "velocity": 127,
      "chip": "ym2612"
    },
    {
      "channel": 2,
      "note": 59,
      "start": 26.155,
      "duration": 0.0796,
      "velocity": 127,
      "chip": "ym2612"
    },
    {
      "channel": 2,
      "note": 59,
      "start": 26.4381,
      "duration": 0.0966,
      "velocity": 127,
      "chip": "ym2612"
    },
    {
      "channel": 2,
      "note": 59,
      "start": 26.6886,
      "duration": 0.046,
      "velocity": 127,
      "chip": "ym2612"
    },
    {
      "channel": 2,
      "note": 59,
      "start": 26.8717,
      "duration": 0.063,
      "velocity": 127,
      "chip": "ym2612"
    },
    {
      "channel": 0,
      "note": 45,
      "start": 27.2216,
      "duration": 0.1128,
      "velocity": 119,
      "chip": "ym2612"
    },
    {
      "channel": 0,
      "note": 45,
      "start": 27.7716,
      "duration": 0.0629,
      "velocity": 119,
      "chip": "ym2612"
    },
    {
      "channel": 0,
      "note": 45,
      "start": 28.0551,
      "duration": 0.0293,
      "velocity": 119,
      "chip": "ym2612"
    },
    {
      "channel": 0,
      "note": 45,
      "start": 28.3051,
      "duration": 0.0793,
      "velocity": 119,
      "chip": "ym2612"
    },
    {
      "channel": 0,
      "note": 45,
      "start": 28.4885,
      "duration": 0.0792,
      "velocity": 119,
      "chip": "ym2612"
    },
    {
      "channel": 0,
      "note": 45,
      "start": 28.8384,
      "duration": 0.0627,
      "velocity": 119,
      "chip": "ym2612"
    },
    {
      "channel": 0,
      "note": 45,
      "start": 29.1384,
      "duration": 0.0794,
      "velocity": 119,
      "chip": "ym2612"
    },
    {
      "channel": 0,
      "note": 45,
      "start": 29.3883,
      "duration": 0.096,
      "velocity": 119,
      "chip": "ym2612"
    },
    {
      "channel": 4,
      "note": 84,
      "start": 29.6381,
      "duration": 0.1632,
      "velocity": 112,
      "chip": "ym2612"
    },
    {
      "channel": 5,
      "note": 82,
      "start": 29.7381,
      "duration": 0.1799,
      "velocity": 112,
      "chip": "ym2612"
    },
    {
      "channel": 4,
      "note": 79,
      "start": 29.838,
      "duration": 0.0966,
      "velocity": 112,
      "chip": "ym2612"
    },
    {
      "channel": 5,
      "note": 77,
      "start": 29.9221,
      "duration": 0.1292,
      "velocity": 112,
      "chip": "ym2612"
    },
    {
      "channel": 0,
      "note": 45,
      "start": 29.9251,
      "duration": 0.0759,
      "velocity": 119,
      "chip": "ym2612"
    },
    {
      "channel": 4,
      "note": 79,
      "start": 30.038,
      "duration": 0.13,
      "velocity": 112,
      "chip": "ym2612"
    },
    {
      "channel": 5,
      "note": 82,
      "start": 30.1047,
      "duration": 0.1306,
      "velocity": 112,
      "chip": "ym2612"
    },
    {
      "channel": 3,
      "note": 48,
      "start": 30.221,
      "duration": 0.147,
      "velocity": 87,
      "chip": "ym2612"
    },
    {
      "channel": 4,
      "note": 84,
      "start": 30.2244,
      "duration": 0.2602,
      "velocity": 112,
      "chip": "ym2612"
    },
    {
      "channel": 0,
      "note": 45,
      "start": 30.2333,
      "duration": 0.0017,
      "velocity": 119,
      "chip": "ym2612"
    },
    {
      "channel": 1,
      "note": 96,
      "start": 30.2388,
      "duration": 0.0791,
      "velocity": 95,
      "chip": "ym2612"
    },
    {
      "channel": 1,
      "note": 96,
      "start": 30.3711,
      "duration": 0.0801,
      "velocity": 95,
      "chip": "ym2612"
    },
    {
      "channel": 3,
      "note": 48,
      "start": 30.4544,
      "duration": 0.2134,
      "velocity": 87,
      "chip": "ym2612"
    },
    {
      "channel": 2,
      "note": 78,
      "start": 30.458,
      "duration": 0.0601,
      "velocity": 127,
      "chip": "ym2612"
    },
    {
      "channel": 0,
      "note": 45,
      "start": 30.4607,
      "duration": 0.0903,
      "velocity": 119,
      "chip": "ym2612"
    },
    {
      "channel": 1,
      "note": 96,
      "start": 30.4877,
      "duration": 0.0801,
      "velocity": 95,
      "chip": "ym2612"
    },
    {
      "channel": 5,
      "note": 77,
      "start": 30.6379,
      "duration": 0.0968,
      "velocity": 116,
      "chip": "ym2612"
    },
    {
      "channel": 2,
      "note": 78,
      "start": 30.6409,
      "duration": 0.0605,
      "velocity": 127,
      "chip": "ym2612"
    },
    {
      "channel": 0,
      "note": 45,
      "start": 30.6436,
      "duration": 0.0908,
      "velocity": 119,
      "chip": "ym2612"
    },
    {
      "channel": 3,
      "note": 53,
      "start": 30.7546,
      "duration": 0.1299,
      "velocity": 87,
      "chip": "ym2612"
    },
    {
      "channel": 5,
      "note": 79,
      "start": 30.7577,
      "duration": 0.0603,
      "velocity": 116,
      "chip": "ym2612"
    },
    {
      "channel": 2,
      "note": 78,
      "start": 30.7608,
      "duration": 0.0573,
      "velocity": 127,
      "chip": "ym2612"
    },
    {
      "channel": 1,
      "note": 96,
      "start": 30.7714,
      "duration": 0.0964,
      "velocity": 95,
      "chip": "ym2612"
    },
    {
      "channel": 3,
      "note": 55,
      "start": 30.9043,
      "duration": 0.1135,
      "velocity": 87,
      "chip": "ym2612"
    },
    {
      "channel": 2,
      "note": 78,
      "start": 30.9077,
      "duration": 0.0604,
      "velocity": 127,
      "chip": "ym2612"
    },
    {
      "channel": 4,
      "note": 58,
      "start": 31.0043,
      "duration": 0.1136,
      "velocity": 87,
      "chip": "ym2612"
    },
    {
      "channel": 5,
      "note": 77,
      "start": 31.0078,
      "duration": 0.0268,
      "velocity": 116,
      "chip": "ym2612"
    },
    {
      "channel": 2,
      "note": 78,
      "start": 31.0108,
      "duration": 0.0573,
      "velocity": 127,
      "chip": "ym2612"
    },
    {
      "channel": 0,
      "note": 45,
      "start": 31.0136,
      "duration": 0.0542,
      "velocity": 119,
      "chip": "ym2612"
    },
    {
      "channel": 1,
      "note": 96,
      "start": 31.0375,
      "duration": 0.097,
      "velocity": 95,
      "chip": "ym2612"
    },
    {
      "channel": 3,
      "note": 58,
      "start": 31.2877,
      "duration": 0.0969,
      "velocity": 87,
      "chip": "ym2612"
    },
    {
      "channel": 5,
      "note": 77,
      "start": 31.2908,
      "duration": 0.0605,
      "velocity": 116,
      "chip": "ym2612"
    },
    {
      "channel": 2,
      "note": 78,
      "start": 31.2938,
      "duration": 0.0576,
      "velocity": 127,
      "chip": "ym2612"
    },
    {
      "channel": 0,
      "note": 45,
      "start": 31.297,
      "duration": 0.0874,
      "velocity": 119,
      "chip": "ym2612"
    },
    {
      "channel": 1,
      "note": 96,
      "start": 31.3209,
      "duration": 0.0802,
      "velocity": 95,
      "chip": "ym2612"
    },
    {
      "channel": 5,
      "note": 77,
      "start": 31.5379,
      "duration": 0.0634,
      "velocity": 116,
      "chip": "ym2612"
    },
    {
      "channel": 2,
      "note": 78,
      "start": 31.5413,
      "duration": 0.0601,
      "velocity": 127,
      "chip": "ym2612"
    },
    {
      "channel": 0,
      "note": 45,
      "start": 31.5441,
      "duration": 0.107,
      "velocity": 119,
      "chip": "ym2612"
    },
    {
      "channel": 1,
      "note": 101,
      "start": 31.5876,
      "duration": 0.0802,
      "velocity": 95,
      "chip": "ym2612"
    },
    {
      "channel": 3,
      "note": 57,
      "start": 31.7208,
      "duration": 0.0804,
      "velocity": 87,
      "chip": "ym2612"
    },
    {
      "channel": 1,
      "note": 99,
      "start": 31.7235,
      "duration": 0.0776,
      "velocity": 95,
      "chip": "ym2612"
    },
    {
      "channel": 5,
      "note": 79,
      "start": 31.7264,
      "duration": 0.0415,
      "velocity": 116,
      "chip": "ym2612"
    },
    {
      "channel": 2,
      "note": 78,
      "start": 31.8383,
      "duration": 0.063,
      "velocity": 127,
      "chip": "ym2612"
    },
    {
      "channel": 3,
      "note": 57,
      "start": 31.9876,
      "duration": 0.0636,
      "velocity": 87,
      "chip": "ym2612"
    },
    {
      "channel": 2,
      "note": 78,
      "start": 31.991,
      "duration": 0.0604,
      "velocity": 127,
      "chip": "ym2612"
    },
    {
      "channel": 3,
      "note": 53,
      "start": 32.0713,
      "duration": 0.2799,
      "velocity": 87,
      "chip": "ym2612"
    },
    {
      "channel": 2,
      "note": 78,
      "start": 32.0747,
      "duration": 0.06,
      "velocity": 127,
      "chip": "ym2612"
    },
    {
      "channel": 0,
      "note": 45,
      "start": 32.0775,
      "duration": 0.0903,
      "velocity": 119,
      "chip": "ym2612"
    },
    {
      "channel": 2,
      "note": 78,
      "start": 32.2551,
      "duration": 0.0629,
      "velocity": 127,
      "chip": "ym2612"
    },
    {
      "channel": 3,
      "note": 48,
      "start": 32.3709,
      "duration": 0.1469,
      "velocity": 87,
      "chip": "ym2612"
    },
    {
      "channel": 0,
      "note": 45,
      "start": 32.3744,
      "duration": 0.0101,
      "velocity": 119,
      "chip": "ym2612"
    },
    {
      "channel": 1,
      "note": 96,
      "start": 32.3878,
      "duration": 0.0966,
      "velocity": 95,
      "chip": "ym2612"
    },
    {
      "channel": 1,
      "note": 96,
      "start": 32.521,
      "duration": 0.0968,
      "velocity": 95,
      "chip": "ym2612"
    },
    {
      "channel": 3,
      "note": 48,
      "start": 32.6211,
      "duration": 0.2134,
      "velocity": 87,
      "chip": "ym2612"
    },
    {
      "channel": 0,
      "note": 45,
      "start": 32.6245,
      "duration": 0.0266,
      "velocity": 119,
      "chip": "ym2612"
    },
    {
      "channel": 1,
      "note": 96,
      "start": 32.6377,
      "duration": 0.0968,
      "velocity": 95,
      "chip": "ym2612"
    },
    {
      "channel": 5,
      "note": 77,
      "start": 32.8047,
      "duration": 0.0632,
      "velocity": 116,
      "chip": "ym2612"
    },
    {
      "channel": 0,
      "note": 45,
      "start": 32.8082,
      "duration": 0.0761,
      "velocity": 119,
      "chip": "ym2612"
    },
    {
      "channel": 3,
      "note": 53,
      "start": 32.9043,
      "duration": 0.1303,
      "velocity": 87,
      "chip": "ym2612"
    },
    {
      "channel": 5,
      "note": 79,
      "start": 32.9073,
      "duration": 0.0607,
      "velocity": 116,
      "chip": "ym2612"
    },
    {
      "channel": 1,
      "note": 96,
      "start": 32.9377,
      "duration": 0.0802,
      "velocity": 95,
      "chip": "ym2612"
    },
    {
      "channel": 3,
      "note": 55,
      "start": 33.0708,
      "duration": 0.0971,
      "velocity": 87,
      "chip": "ym2612"
    },
    {
      "channel": 0,
      "note": 45,
      "start": 33.0743,
      "duration": 0.0602,
      "velocity": 119,
      "chip": "ym2612"
    },
    {
      "channel": 4,
      "note": 58,
      "start": 33.1543,
      "duration": 0.097,
      "velocity": 87,
      "chip": "ym2612"
    },
    {
      "channel": 5,
      "note": 77,
      "start": 33.1578,
      "duration": 0.0435,
      "velocity": 116,
      "chip": "ym2612"
    },
    {
      "channel": 1,
      "note": 96,
      "start": 33.2042,
      "duration": 0.0803,
      "velocity": 95,
      "chip": "ym2612"
    },
    {
      "channel": 3,
      "note": 58,
      "start": 33.4547,
      "duration": 0.0633,
      "velocity": 87,
      "chip": "ym2612"
    },
    {
      "channel": 5,
      "note": 77,
      "start": 33.4578,
      "duration": 0.0102,
      "velocity": 116,
      "chip": "ym2612"
    },
    {
      "channel": 0,
      "note": 45,
      "start": 33.4607,
      "duration": 0.057,
      "velocity": 119,
      "chip": "ym2612"
    },
    {
      "channel": 1,
      "note": 96,
      "start": 33.4712,
      "duration": 0.0799,
      "velocity": 95,
      "chip": "ym2612"
    },
    {
      "channel": 5,
      "note": 77,
      "start": 33.6881,
      "duration": 0.0632,
      "velocity": 116,
      "chip": "ym2612"
    },
    {
      "channel": 0,
      "note": 45,
      "start": 33.6912,
      "duration": 0.1099,
      "velocity": 119,
      "chip": "ym2612"
    },
    {
      "channel": 1,
      "note": 101,
      "start": 33.7376,
      "duration": 0.0969,
      "velocity": 95,
      "chip": "ym2612"
    },
    {
      "channel": 3,
      "note": 58,
      "start": 33.8708,
      "duration": 0.047,
      "velocity": 87,
      "chip": "ym2612"
    },
    {
      "channel": 1,
      "note": 99,
      "start": 33.8735,
      "duration": 0.0943,
      "velocity": 95,
      "chip": "ym2612"
    },
    {
      "channel": 5,
      "note": 79,
      "start": 33.8764,
      "duration": 0.0416,
      "velocity": 116,
      "chip": "ym2612"
    },
    {
      "channel": 3,
      "note": 55,
      "start": 33.9877,
      "duration": 0.1136,
      "velocity": 87,
      "chip": "ym2612"
    },
    {
      "channel": 3,
      "note": 53,
      "start": 34.1376,
      "duration": 0.3136,
      "velocity": 87,
      "chip": "ym2612"
    },
    {
      "channel": 0,
      "note": 45,
      "start": 34.2384,
      "duration": 0.0627,
      "velocity": 119,
      "chip": "ym2612"
    },
    {
      "channel": 2,
      "note": 87,
      "start": 34.4218,
      "duration": 0.1962,
      "velocity": 112,
      "chip": "ym2612"
    },
    {
      "channel": 3,
      "note": 48,
      "start": 34.5211,
      "duration": 0.1634,
      "velocity": 87,
      "chip": "ym2612"
    },
    {
      "channel": 0,
      "note": 45,
      "start": 34.5246,
      "duration": 0.0433,
      "velocity": 119,
      "chip": "ym2612"
    },
    {
      "channel": 1,
      "note": 96,
      "start": 34.5544,
      "duration": 0.0801,
      "velocity": 95,
      "chip": "ym2612"
    },
    {
      "channel": 1,
      "note": 96,
      "start": 34.6877,
      "duration": 0.0801,
      "velocity": 95,
      "chip": "ym2612"
    },
    {
      "channel": 3,
      "note": 48,
      "start": 34.7715,
      "duration": 0.1963,
      "velocity": 87,
      "chip": "ym2612"
    },
    {
      "channel": 0,
      "note": 45,
      "start": 34.7753,
      "duration": 0.0924,
      "velocity": 119,
      "chip": "ym2612"
    },
    {
      "channel": 1,
      "note": 96,
      "start": 34.7877,
      "duration": 0.0969,
      "velocity": 95,
      "chip": "ym2612"
    },
    {
      "channel": 5,
      "note": 77,
      "start": 34.9546,
      "duration": 0.0633,
      "velocity": 116,
      "chip": "ym2612"
    },
    {
      "channel": 0,
      "note": 45,
      "start": 34.9578,
      "duration": 0.06,
      "velocity": 119,
      "chip": "ym2612"
    },
    {
      "channel": 3,
      "note": 53,
      "start": 35.0708,
      "duration": 0.1304,
      "velocity": 87,
      "chip": "ym2612"
    },
    {
      "channel": 5,
      "note": 79,
      "start": 35.0742,
      "duration": 0.0604,
      "velocity": 116,
      "chip": "ym2612"
    },
    {
      "channel": 1,
      "note": 96,
      "start": 35.0878,
      "duration": 0.0801,
      "velocity": 95,
      "chip": "ym2612"
    },
    {
      "channel": 3,
      "note": 55,
      "start": 35.221,
      "duration": 0.1135,
      "velocity": 87,
      "chip": "ym2612"
    },
    {
      "channel": 4,
      "note": 58,
      "start": 35.3043,
      "duration": 0.0969,
      "velocity": 87,
      "chip": "ym2612"
    },
    {
      "channel": 5,
      "note": 77,
      "start": 35.3074,
      "duration": 0.0439,
      "velocity": 116,
      "chip": "ym2612"
    },
    {
      "channel": 0,
      "note": 45,
      "start": 35.3104,
      "duration": 0.074,
      "velocity": 119,
      "chip": "ym2612"
    },
    {
      "channel": 1,
      "note": 96,
      "start": 35.3542,
      "duration": 0.0968,
      "velocity": 95,
      "chip": "ym2612"
    },
    {
      "channel": 3,
      "note": 58,
      "start": 35.6043,
      "duration": 0.0636,
      "velocity": 87,
      "chip": "ym2612"
    },
    {
      "channel": 5,
      "note": 77,
      "start": 35.6075,
      "duration": 0.0106,
      "velocity": 116,
      "chip": "ym2612"
    },
    {
      "channel": 0,
      "note": 45,
      "start": 35.6104,
      "duration": 0.0573,
      "velocity": 119,
      "chip": "ym2612"
    },
    {
      "channel": 1,
      "note": 96,
      "start": 35.621,
      "duration": 0.0968,
      "velocity": 95,
      "chip": "ym2612"
    },
    {
      "channel": 5,
      "note": 77,
      "start": 35.8547,
      "duration": 0.0632,
      "velocity": 116,
      "chip": "ym2612"
    },
    {
      "channel": 0,
      "note": 45,
      "start": 35.8578,
      "duration": 0.0765,
      "velocity": 119,
      "chip": "ym2612"
    },
    {
      "channel": 1,
      "note": 101,
      "start": 35.888,
      "duration": 0.0964,
      "velocity": 95,
      "chip": "ym2612"
    },
    {
      "channel": 3,
      "note": 57,
      "start": 36.0379,
      "duration": 0.08,
      "velocity": 87,
      "chip": "ym2612"
    },
    {
      "channel": 1,
      "note": 99,
      "start": 36.0406,
      "duration": 0.0772,
      "velocity": 95,
      "chip": "ym2612"
    },
    {
      "channel": 5,
      "note": 79,
      "start": 36.0435,
      "duration": 0.0244,
      "velocity": 116,
      "chip": "ym2612"
    },
    {
      "channel": 3,
      "note": 57,
      "start": 36.3041,
      "duration": 0.0803,
      "velocity": 87,
      "chip": "ym2612"
    },
    {
      "channel": 3,
      "note": 53,
      "start": 36.3876,
      "duration": 0.2969,
      "velocity": 87,
      "chip": "ym2612"
    },
    {
      "channel": 0,
      "note": 45,
      "start": 36.3911,
      "duration": 0.06,
      "velocity": 119,
      "chip": "ym2612"
    },
    {
      "channel": 3,
      "note": 48,
      "start": 36.6877,
      "duration": 0.1468,
      "velocity": 87,
      "chip": "ym2612"
    },
    {
      "channel": 0,
      "note": 45,
      "start": 36.6915,
      "duration": 0.0762,
      "velocity": 119,
      "chip": "ym2612"
    },
    {
      "channel": 1,
      "note": 96,
      "start": 36.7044,
      "duration": 0.0801,
      "velocity": 95,
      "chip": "ym2612"
    },
    {
      "channel": 1,
      "note": 96,
      "start": 36.8376,
      "duration": 0.0802,
      "velocity": 95,
      "chip": "ym2612"
    },
    {
      "channel": 3,
      "note": 48,
      "start": 36.921,
      "duration": 0.2135,
      "velocity": 87,
      "chip": "ym2612"
    },
    {
      "channel": 0,
      "note": 45,
      "start": 36.9245,
      "duration": 0.0766,
      "velocity": 119,
      "chip": "ym2612"
    },
    {
      "channel": 1,
      "note": 96,
      "start": 36.9543,
      "duration": 0.0802,
      "velocity": 95,
      "chip": "ym2612"
    },
    {
      "channel": 5,
      "note": 77,
      "start": 37.1047,
      "duration": 0.0634,
      "velocity": 116,
      "chip": "ym2612"
    },
    {
      "channel": 0,
      "note": 45,
      "start": 37.1077,
      "duration": 0.0601,
      "velocity": 119,
      "chip": "ym2612"
    },
    {
      "channel": 3,
      "note": 53,
      "start": 37.2209,
      "duration": 0.1137,
      "velocity": 87,
      "chip": "ym2612"
    },
    {
      "channel": 5,
      "note": 79,
      "start": 37.2244,
      "duration": 0.0435,
      "velocity": 116,
      "chip": "ym2612"
    },
    {
      "channel": 1,
      "note": 96,
      "start": 37.2377,
      "duration": 0.0968,
      "velocity": 95,
      "chip": "ym2612"
    },
    {
      "channel": 3,
      "note": 55,
      "start": 37.3712,
      "duration": 0.1134,
      "velocity": 87,
      "chip": "ym2612"
    },
    {
      "channel": 0,
      "note": 45,
      "start": 37.3746,
      "duration": 0.0931,
      "velocity": 119,
      "chip": "ym2612"
    },
    {
      "channel": 4,
      "note": 58,
      "start": 37.471,
      "duration": 0.0804,
      "velocity": 87,
      "chip": "ym2612"
    },
    {
      "channel": 5,
      "note": 77,
      "start": 37.4739,
      "duration": 0.0441,
      "velocity": 116,
      "chip": "ym2612"
    },
    {
      "channel": 1,
      "note": 96,
      "start": 37.521,
      "duration": 0.0802,
      "velocity": 95,
      "chip": "ym2612"
    },
    {
      "channel": 3,
      "note": 58,
      "start": 37.7543,
      "duration": 0.0636,
      "velocity": 87,
      "chip": "ym2612"
    },
    {
      "channel": 5,
      "note": 79,
      "start": 37.7574,
      "duration": 0.0607,
      "velocity": 116,
      "chip": "ym2612"
    },
    {
      "channel": 0,
      "note": 45,
      "start": 37.7605,
      "duration": 0.0572,
      "velocity": 119,
      "chip": "ym2612"
    },
    {
      "channel": 1,
      "note": 96,
      "start": 37.7875,
      "duration": 0.0803,
      "velocity": 95,
      "chip": "ym2612"
    },
    {
      "channel": 5,
      "note": 77,
      "start": 38.0047,
      "duration": 0.0966,
      "velocity": 116,
      "chip": "ym2612"
    },
    {
      "channel": 0,
      "note": 45,
      "start": 38.0079,
      "duration": 0.1098,
      "velocity": 119,
      "chip": "ym2612"
    },
    {
      "channel": 1,
      "note": 101,
      "start": 38.0542,
      "duration": 0.0803,
      "velocity": 95,
      "chip": "ym2612"
    },
    {
      "channel": 3,
      "note": 58,
      "start": 38.1876,
      "duration": 0.0468,
      "velocity": 87,
      "chip": "ym2612"
    },
    {
      "channel": 1,
      "note": 99,
      "start": 38.1907,
      "duration": 0.0771,
      "velocity": 95,
      "chip": "ym2612"
    },
    {
      "channel": 5,
      "note": 79,
      "start": 38.1936,
      "duration": 0.0411,
      "velocity": 116,
      "chip": "ym2612"
    },
    {
      "channel": 3,
      "note": 51,
      "start": 38.3042,
      "duration": 0.0137,
      "velocity": 87,
      "chip": "ym2612"
    },
    {
      "channel": 3,
      "note": 50,
      "start": 38.4543,
      "duration": 0.3303,
      "velocity": 87,
      "chip": "ym2612"
    },
    {
      "channel": 5,
      "note": 77,
      "start": 38.4573,
      "duration": 0.0107,
      "velocity": 116,
      "chip": "ym2612"
    },
    {
      "channel": 2,
      "note": 84,
      "start": 38.4607,
      "duration": 0.0572,
      "velocity": 112,
      "chip": "ym2612"
    },
    {
      "channel": 2,
      "note": 82,
      "start": 38.5382,
      "duration": 0.0798,
      "velocity": 112,
      "chip": "ym2612"
    },
    {
      "channel": 0,
      "note": 45,
      "start": 38.5416,
      "duration": 0.0428,
      "velocity": 119,
      "chip": "ym2612"
    },
    {
      "channel": 5,
      "note": 75,
      "start": 38.7217,
      "duration": 0.0463,
      "velocity": 116,
      "chip": "ym2612"
    },
    {
      "channel": 2,
      "note": 80,
      "start": 38.725,
      "duration": 0.1763,
      "velocity": 112,
      "chip": "ym2612"
    },
    {
      "channel": 3,
      "note": 53,
      "start": 38.838,
      "duration": 0.1466,
      "velocity": 87,
      "chip": "ym2612"
    },
    {
      "channel": 0,
      "note": 45,
      "start": 38.8414,
      "duration": 0.0097,
      "velocity": 119,
      "chip": "ym2612"
    },
    {
      "channel": 1,
      "note": 96,
      "start": 38.8544,
      "duration": 0.0967,
      "velocity": 95,
      "chip": "ym2612"
    },
    {
      "channel": 1,
      "note": 96,
      "start": 38.9878,
      "duration": 0.0968,
      "velocity": 95,
      "chip": "ym2612"
    },
    {
      "channel": 3,
      "note": 53,
      "start": 39.0877,
      "duration": 0.1968,
      "velocity": 87,
      "chip": "ym2612"
    },
    {
      "channel": 0,
      "note": 45,
      "start": 39.0912,
      "duration": 0.0765,
      "velocity": 119,
      "chip": "ym2612"
    },
    {
      "channel": 1,
      "note": 96,
      "start": 39.1043,
      "duration": 0.0968,
      "velocity": 95,
      "chip": "ym2612"
    },
    {
      "channel": 5,
      "note": 82,
      "start": 39.2714,
      "duration": 0.08,
      "velocity": 116,
      "chip": "ym2612"
    },
    {
      "channel": 0,
      "note": 45,
      "start": 39.2744,
      "duration": 0.0768,
      "velocity": 119,
      "chip": "ym2612"
    },
    {
      "channel": 3,
      "note": 58,
      "start": 39.371,
      "duration": 0.1303,
      "velocity": 87,
      "chip": "ym2612"
    },
    {
      "channel": 5,
      "note": 84,
      "start": 39.3741,
      "duration": 0.0606,
      "velocity": 116,
      "chip": "ym2612"
    },
    {
      "channel": 1,
      "note": 96,
      "start": 39.4044,
      "duration": 0.0802,
      "velocity": 95,
      "chip": "ym2612"
    },
    {
      "channel": 3,
      "note": 60,
      "start": 39.5375,
      "duration": 0.1136,
      "velocity": 87,
      "chip": "ym2612"
    },
    {
      "channel": 4,
      "note": 63,
      "start": 39.6208,
      "duration": 0.1137,
      "velocity": 87,
      "chip": "ym2612"
    },
    {
      "channel": 5,
      "note": 82,
      "start": 39.6239,
      "duration": 0.0441,
      "velocity": 116,
      "chip": "ym2612"
    },
    {
      "channel": 0,
      "note": 45,
      "start": 39.6271,
      "duration": 0.0574,
      "velocity": 119,
      "chip": "ym2612"
    },
    {
      "channel": 1,
      "note": 96,
      "start": 39.6709,
      "duration": 0.0802,
      "velocity": 95,
      "chip": "ym2612"
    },
    {
      "channel": 3,
      "note": 63,
      "start": 39.9213,
      "duration": 0.08,
      "velocity": 87,
      "chip": "ym2612"
    },
    {
      "channel": 5,
      "note": 82,
      "start": 39.9244,
      "duration": 0.0602,
      "velocity": 116,
      "chip": "ym2612"
    },
    {
      "channel": 0,
      "note": 45,
      "start": 39.9279,
      "duration": 0.0732,
      "velocity": 119,
      "chip": "ym2612"
    },
    {
      "channel": 1,
      "note": 96,
      "start": 39.9375,
      "duration": 0.0803,
      "velocity": 95,
      "chip": "ym2612"
    },
    {
      "channel": 5,
      "note": 82,
      "start": 40.1549,
      "duration": 0.0798,
      "velocity": 116,
      "chip": "ym2612"
    },
    {
      "channel": 0,
      "note": 45,
      "start": 40.158,
      "duration": 0.1097,
      "velocity": 119,
      "chip": "ym2612"
    },
    {
      "channel": 1,
      "note": 101,
      "start": 40.2042,
      "duration": 0.0969,
      "velocity": 95,
      "chip": "ym2612"
    },
    {
      "channel": 3,
      "note": 62,
      "start": 40.3375,
      "duration": 0.0972,
      "velocity": 87,
      "chip": "ym2612"
    },
    {
      "channel": 1,
      "note": 99,
      "start": 40.3402,
      "duration": 0.0944,
      "velocity": 95,
      "chip": "ym2612"
    },
    {
      "channel": 5,
      "note": 84,
      "start": 40.3431,
      "duration": 0.0415,
      "velocity": 116,
      "chip": "ym2612"
    },
    {
      "channel": 3,
      "note": 62,
      "start": 40.6043,
      "duration": 0.0635,
      "velocity": 87,
      "chip": "ym2612"
    },
    {
      "channel": 3,
      "note": 58,
      "start": 40.7042,
      "duration": 0.2637,
      "velocity": 87,
      "chip": "ym2612"
    },
    {
      "channel": 0,
      "note": 45,
      "start": 40.7077,
      "duration": 0.0767,
      "velocity": 119,
      "chip": "ym2612"
    },
    {
      "channel": 3,
      "note": 53,
      "start": 40.9877,
      "duration": 0.1634,
      "velocity": 87,
      "chip": "ym2612"
    },
    {
      "channel": 0,
      "note": 45,
      "start": 40.9912,
      "duration": 0.0266,
      "velocity": 119,
      "chip": "ym2612"
    },
    {
      "channel": 1,
      "note": 96,
      "start": 41.0215,
      "duration": 0.0796,
      "velocity": 95,
      "chip": "ym2612"
    },
    {
      "channel": 1,
      "note": 96,
      "start": 41.1543,
      "duration": 0.0802,
      "velocity": 95,
      "chip": "ym2612"
    },
    {
      "channel": 3,
      "note": 53,
      "start": 41.2377,
      "duration": 0.2302,
      "velocity": 87,
      "chip": "ym2612"
    },
    {
      "channel": 0,
      "note": 45,
      "start": 41.2412,
      "duration": 0.0433,
      "velocity": 119,
      "chip": "ym2612"
    },
    {
      "channel": 1,
      "note": 96,
      "start": 41.271,
      "duration": 0.08,
      "velocity": 95,
      "chip": "ym2612"
    },
    {
      "channel": 5,
      "note": 82,
      "start": 41.4212,
      "duration": 0.0469,
      "velocity": 116,
      "chip": "ym2612"
    },
    {
      "channel": 0,
      "note": 45,
      "start": 41.4243,
      "duration": 0.0768,
      "velocity": 119,
      "chip": "ym2612"
    },
    {
      "channel": 3,
      "note": 58,
      "start": 41.5379,
      "duration": 0.13,
      "velocity": 87,
      "chip": "ym2612"
    },
    {
      "channel": 5,
      "note": 84,
      "start": 41.5409,
      "duration": 0.0271,
      "velocity": 116,
      "chip": "ym2612"
    },
    {
      "channel": 1,
      "note": 96,
      "start": 41.5544,
      "duration": 0.0801,
      "velocity": 95,
      "chip": "ym2612"
    },
    {
      "channel": 3,
      "note": 60,
      "start": 41.6877,
      "duration": 0.1136,
      "velocity": 87,
      "chip": "ym2612"
    },
    {
      "channel": 0,
      "note": 45,
      "start": 41.6915,
      "duration": 0.0596,
      "velocity": 119,
      "chip": "ym2612"
    },
    {
      "channel": 4,
      "note": 63,
      "start": 41.7877,
      "duration": 0.0802,
      "velocity": 87,
      "chip": "ym2612"
    },
    {
      "channel": 5,
      "note": 82,
      "start": 41.7906,
      "duration": 0.0274,
      "velocity": 116,
      "chip": "ym2612"
    },
    {
      "channel": 1,
      "note": 96,
      "start": 41.821,
      "duration": 0.0968,
      "velocity": 95,
      "chip": "ym2612"
    },
    {
      "channel": 3,
      "note": 63,
      "start": 42.071,
      "duration": 0.0637,
      "velocity": 87,
      "chip": "ym2612"
    },
    {
      "channel": 5,
      "note": 84,
      "start": 42.0741,
      "duration": 0.0607,
      "velocity": 116,
      "chip": "ym2612"
    },
    {
      "channel": 0,
      "note": 45,
      "start": 42.077,
      "duration": 0.0574,
      "velocity": 119,
      "chip": "ym2612"
    },
    {
      "channel": 1,
      "note": 96,
      "start": 42.0875,
      "duration": 0.0969,
      "velocity": 95,
      "chip": "ym2612"
    },
    {
      "channel": 5,
      "note": 84,
      "start": 42.3212,
      "duration": 0.0634,
      "velocity": 116,
      "chip": "ym2612"
    },
    {
      "channel": 0,
      "note": 45,
      "start": 42.3243,
      "duration": 0.1101,
      "velocity": 119,
      "chip": "ym2612"
    },
    {
      "channel": 1,
      "note": 101,
      "start": 42.3708,
      "duration": 0.0803,
      "velocity": 95,
      "chip": "ym2612"
    },
    {
      "channel": 3,
      "note": 63,
      "start": 42.5042,
      "duration": 0.0302,
      "velocity": 87,
      "chip": "ym2612"
    },
    {
      "channel": 1,
      "note": 99,
      "start": 42.5069,
      "duration": 0.0776,
      "velocity": 95,
      "chip": "ym2612"
    },
    {
      "channel": 5,
      "note": 82,
      "start": 42.5102,
      "duration": 0.0244,
      "velocity": 116,
      "chip": "ym2612"
    },
    {
      "channel": 3,
      "note": 60,
      "start": 42.6046,
      "duration": 0.1134,
      "velocity": 87,
      "chip": "ym2612"
    },
    {
      "channel": 3,
      "note": 58,
      "start": 42.7709,
      "duration": 0.3136,
      "velocity": 87,
      "chip": "ym2612"
    },
    {
      "channel": 5,
      "note": 82,
      "start": 42.7739,
      "duration": 0.0108,
      "velocity": 116,
      "chip": "ym2612"
    },
    {
      "channel": 0,
      "note": 45,
      "start": 42.855,
      "duration": 0.0629,
      "velocity": 119,
      "chip": "ym2612"
    },
    {
      "channel": 5,
      "note": 84,
      "start": 43.0381,
      "duration": 0.0466,
      "velocity": 116,
      "chip": "ym2612"
    },
    {
      "channel": 3,
      "note": 53,
      "start": 43.1544,
      "duration": 0.1468,
      "velocity": 87,
      "chip": "ym2612"
    },
    {
      "channel": 0,
      "note": 45,
      "start": 43.1578,
      "duration": 0.0266,
      "velocity": 119,
      "chip": "ym2612"
    },
    {
      "channel": 1,
      "note": 96,
      "start": 43.171,
      "duration": 0.0801,
      "velocity": 95,
      "chip": "ym2612"
    },
    {
      "channel": 1,
      "note": 96,
      "start": 43.3047,
      "duration": 0.0966,
      "velocity": 95,
      "chip": "ym2612"
    },
    {
      "channel": 3,
      "note": 53,
      "start": 43.4045,
      "duration": 0.1966,
      "velocity": 87,
      "chip": "ym2612"
    },
    {
      "channel": 0,
      "note": 45,
      "start": 43.4083,
      "duration": 0.076,
      "velocity": 119,
      "chip": "ym2612"
    },
    {
      "channel": 1,
      "note": 96,
      "start": 43.421,
      "duration": 0.0802,
      "velocity": 95,
      "chip": "ym2612"
    },
    {
      "channel": 5,
      "note": 82,
      "start": 43.5714,
      "duration": 0.0632,
      "velocity": 116,
      "chip": "ym2612"
    },
    {
      "channel": 0,
      "note": 45,
      "start": 43.5745,
      "duration": 0.0598,
      "velocity": 119,
      "chip": "ym2612"
    },
    {
      "channel": 3,
      "note": 58,
      "start": 43.6876,
      "duration": 0.1302,
      "velocity": 87,
      "chip": "ym2612"
    },
    {
      "channel": 5,
      "note": 84,
      "start": 43.6906,
      "duration": 0.0608,
      "velocity": 116,
      "chip": "ym2612"
    },
    {
      "channel": 1,
      "note": 96,
      "start": 43.7044,
      "duration": 0.0968,
      "velocity": 95,
      "chip": "ym2612"
    },
    {
      "channel": 3,
      "note": 60,
      "start": 43.8376,
      "duration": 0.1136,
      "velocity": 87,
      "chip": "ym2612"
    },
    {
      "channel": 4,
      "note": 63,
      "start": 43.9381,
      "duration": 0.0798,
      "velocity": 87,
      "chip": "ym2612"
    },
    {
      "channel": 5,
      "note": 82,
      "start": 43.9412,
      "duration": 0.0435,
      "velocity": 116,
      "chip": "ym2612"
    },
    {
      "channel": 0,
      "note": 45,
      "start": 43.9441,
      "duration": 0.057,
      "velocity": 119,
      "chip": "ym2612"
    },
    {
      "channel": 1,
      "note": 96,
      "start": 43.9876,
      "duration": 0.0802,
      "velocity": 95,
      "chip": "ym2612"
    },
    {
      "channel": 3,
      "note": 63,
      "start": 44.2209,
      "duration": 0.0636,
      "velocity": 87,
      "chip": "ym2612"
    },
    {
      "channel": 5,
      "note": 82,
      "start": 44.2244,
      "duration": 0.027,
      "velocity": 116,
      "chip": "ym2612"
    },
    {
      "channel": 0,
      "note": 45,
      "start": 44.2274,
      "duration": 0.057,
      "velocity": 119,
      "chip": "ym2612"
    },
    {
      "channel": 1,
      "note": 96,
      "start": 44.2543,
      "duration": 0.0802,
      "velocity": 95,
      "chip": "ym2612"
    },
    {
      "channel": 5,
      "note": 82,
      "start": 44.4713,
      "duration": 0.0633,
      "velocity": 116,
      "chip": "ym2612"
    },
    {
      "channel": 0,
      "note": 45,
      "start": 44.4744,
      "duration": 0.0933,
      "velocity": 119,
      "chip": "ym2612"
    },
    {
      "channel": 1,
      "note": 101,
      "start": 44.521,
      "duration": 0.0801,
      "velocity": 95,
      "chip": "ym2612"
    },
    {
      "channel": 3,
      "note": 62,
      "start": 44.6542,
      "duration": 0.0804,
      "velocity": 87,
      "chip": "ym2612"
    },
    {
      "channel": 1,
      "note": 99,
      "start": 44.6569,
      "duration": 0.0776,
      "velocity": 95,
      "chip": "ym2612"
    },
    {
      "channel": 5,
      "note": 84,
      "start": 44.6598,
      "duration": 0.0414,
      "velocity": 116,
      "chip": "ym2612"
    },
    {
      "channel": 3,
      "note": 62,
      "start": 44.9208,
      "duration": 0.0969,
      "velocity": 87,
      "chip": "ym2612"
    },
    {
      "channel": 3,
      "note": 58,
      "start": 45.0209,
      "duration": 0.2803,
      "velocity": 87,
      "chip": "ym2612"
    },
    {
      "channel": 0,
      "note": 45,
      "start": 45.0244,
      "duration": 0.06,
      "velocity": 119,
      "chip": "ym2612"
    },
    {
      "channel": 2,
      "note": 92,
      "start": 45.1885,
      "duration": 0.1962,
      "velocity": 112,
      "chip": "ym2612"
    },
    {
      "channel": 3,
      "note": 53,
      "start": 45.3048,
      "duration": 0.1464,
      "velocity": 87,
      "chip": "ym2612"
    },
    {
      "channel": 0,
      "note": 45,
      "start": 45.3097,
      "duration": 0.0746,
      "velocity": 119,
      "chip": "ym2612"
    },
    {
      "channel": 1,
      "note": 96,
      "start": 45.321,
      "duration": 0.0967,
      "velocity": 95,
      "chip": "ym2612"
    },
    {
      "channel": 1,
      "note": 96,
      "start": 45.4544,
      "duration": 0.0969,
      "velocity": 95,
      "chip": "ym2612"
    },
    {
      "channel": 3,
      "note": 53,
      "start": 45.5545,
      "duration": 0.1968,
      "velocity": 87,
      "chip": "ym2612"
    },
    {
      "channel": 4,
      "note": 78,
      "start": 45.558,
      "duration": 0.06,
      "velocity": 127,
      "chip": "ym2612"
    },
    {
      "channel": 0,
      "note": 45,
      "start": 45.5608,
      "duration": 0.057,
      "velocity": 119,
      "chip": "ym2612"
    },
    {
      "channel": 1,
      "note": 96,
      "start": 45.5713,
      "duration": 0.0965,
      "velocity": 95,
      "chip": "ym2612"
    },
    {
      "channel": 5,
      "note": 82,
      "start": 45.7381,
      "duration": 0.0633,
      "velocity": 116,
      "chip": "ym2612"
    },
    {
      "channel": 4,
      "note": 78,
      "start": 45.741,
      "duration": 0.0603,
      "velocity": 127,
      "chip": "ym2612"
    },
    {
      "channel": 0,
      "note": 45,
      "start": 45.7436,
      "duration": 0.0574,
      "velocity": 119,
      "chip": "ym2612"
    },
    {
      "channel": 3,
      "note": 58,
      "start": 45.8376,
      "duration": 0.1137,
      "velocity": 87,
      "chip": "ym2612"
    },
    {
      "channel": 5,
      "note": 84,
      "start": 45.8407,
      "duration": 0.044,
      "velocity": 116,
      "chip": "ym2612"
    },
    {
      "channel": 4,
      "note": 78,
      "start": 45.8437,
      "duration": 0.0576,
      "velocity": 127,
      "chip": "ym2612"
    },
    {
      "channel": 1,
      "note": 96,
      "start": 45.8711,
      "duration": 0.0802,
      "velocity": 95,
      "chip": "ym2612"
    },
    {
      "channel": 3,
      "note": 60,
      "start": 46.0041,
      "duration": 0.1138,
      "velocity": 87,
      "chip": "ym2612"
    },
    {
      "channel": 4,
      "note": 78,
      "start": 46.0074,
      "duration": 0.0606,
      "velocity": 127,
      "chip": "ym2612"
    },
    {
      "channel": 0,
      "note": 45,
      "start": 46.0102,
      "duration": 0.0742,
      "velocity": 119,
      "chip": "ym2612"
    },
    {
      "channel": 2,
      "note": 63,
      "start": 46.0879,
      "duration": 0.0969,
      "velocity": 87,
      "chip": "ym2612"
    },
    {
      "channel": 5,
      "note": 82,
      "start": 46.0909,
      "duration": 0.0439,
      "velocity": 116,
      "chip": "ym2612"
    },
    {
      "channel": 4,
      "note": 78,
      "start": 46.0938,
      "duration": 0.0575,
      "velocity": 127,
      "chip": "ym2612"
    },
    {
      "channel": 1,
      "note": 96,
      "start": 46.1377,
      "duration": 0.0801,
      "velocity": 95,
      "chip": "ym2612"
    },
    {
      "channel": 3,
      "note": 63,
      "start": 46.3876,
      "duration": 0.0637,
      "velocity": 87,
      "chip": "ym2612"
    },
    {
      "channel": 5,
      "note": 84,
      "start": 46.3911,
      "duration": 0.0605,
      "velocity": 116,
      "chip": "ym2612"
    },
    {
      "channel": 4,
      "note": 78,
      "start": 46.394,
      "duration": 0.0574,
      "velocity": 127,
      "chip": "ym2612"
    },
    {
      "channel": 0,
      "note": 45,
      "start": 46.3968,
      "duration": 0.0543,
      "velocity": 119,
      "chip": "ym2612"
    },
    {
      "channel": 1,
      "note": 96,
      "start": 46.4041,
      "duration": 0.0802,
      "velocity": 95,
      "chip": "ym2612"
    },
    {
      "channel": 5,
      "note": 82,
      "start": 46.638,
      "duration": 0.08,
      "velocity": 116,
      "chip": "ym2612"
    },
    {
      "channel": 4,
      "note": 78,
      "start": 46.6412,
      "duration": 0.0599,
      "velocity": 127,
      "chip": "ym2612"
    },
    {
      "channel": 0,
      "note": 45,
      "start": 46.644,
      "duration": 0.0904,
      "velocity": 119,
      "chip": "ym2612"
    },
    {
      "channel": 1,
      "note": 101,
      "start": 46.671,
      "duration": 0.0968,
      "velocity": 95,
      "chip": "ym2612"
    },
    {
      "channel": 3,
      "note": 63,
      "start": 46.8045,
      "duration": 0.0466,
      "velocity": 87,
      "chip": "ym2612"
    },
    {
      "channel": 1,
      "note": 99,
      "start": 46.8072,
      "duration": 0.0939,
      "velocity": 95,
      "chip": "ym2612"
    },
    {
      "channel": 5,
      "note": 84,
      "start": 46.8101,
      "duration": 0.0412,
      "velocity": 116,
      "chip": "ym2612"
    },
    {
      "channel": 3,
      "note": 56,
      "start": 46.9209,
      "duration": 0.0137,
      "velocity": 87,
      "chip": "ym2612"
    },
    {
      "channel": 4,
      "note": 78,
      "start": 46.9242,
      "duration": 0.0604,
      "velocity": 127,
      "chip": "ym2612"
    },
    {
      "channel": 3,
      "note": 55,
      "start": 47.071,
      "duration": 0.3469,
      "velocity": 87,
      "chip": "ym2612"
    },
    {
      "channel": 5,
      "note": 82,
      "start": 47.0739,
      "duration": 0.0273,
      "velocity": 116,
      "chip": "ym2612"
    },
    {
      "channel": 2,
      "note": 79,
      "start": 47.077,
      "duration": 0.0744,
      "velocity": 112,
      "chip": "ym2612"
    },
    {
      "channel": 4,
      "note": 78,
      "start": 47.0798,
      "duration": 0.0714,
      "velocity": 127,
      "chip": "ym2612"
    },
    {
      "channel": 2,
      "note": 77,
      "start": 47.1715,
      "duration": 0.0632,
      "velocity": 112,
      "chip": "ym2612"
    },
    {
      "channel": 4,
      "note": 78,
      "start": 47.1743,
      "duration": 0.0602,
      "velocity": 127,
      "chip": "ym2612"
    },
    {
      "channel": 0,
      "note": 45,
      "start": 47.1775,
      "duration": 0.0402,
      "velocity": 119,
      "chip": "ym2612"
    },
    {
      "channel": 5,
      "note": 80,
      "start": 47.3547,
      "duration": 0.0299,
      "velocity": 116,
      "chip": "ym2612"
    },
    {
      "channel": 2,
      "note": 75,
      "start": 47.3583,
      "duration": 0.2765,
      "velocity": 112,
      "chip": "ym2612"
    },
    {
      "channel": 4,
      "note": 78,
      "start": 47.3612,
      "duration": 0.0567,
      "velocity": 127,
      "chip": "ym2612"
    },
    {
      "channel": 3,
      "note": 48,
      "start": 47.4543,
      "duration": 0.1636,
      "velocity": 87,
      "chip": "ym2612"
    },
    {
      "channel": 0,
      "note": 45,
      "start": 47.4577,
      "duration": 0.0267,
      "velocity": 119,
      "chip": "ym2612"
    },
    {
      "channel": 1,
      "note": 96,
      "start": 47.4877,
      "duration": 0.0801,
      "velocity": 95,
      "chip": "ym2612"
    },
    {
      "channel": 1,
      "note": 96,
      "start": 47.6211,
      "duration": 0.0802,
      "velocity": 95,
      "chip": "ym2612"
    },
    {
      "channel": 3,
      "note": 48,
      "start": 47.7044,
      "duration": 0.1801,
      "velocity": 87,
      "chip": "ym2612"
    },
    {
      "channel": 0,
      "note": 45,
      "start": 47.7079,
      "duration": 0.0433,
      "velocity": 119,
      "chip": "ym2612"
    },
    {
      "channel": 1,
      "note": 96,
      "start": 47.7377,
      "duration": 0.08,
      "velocity": 95,
      "chip": "ym2612"
    },
    {
      "channel": 5,
      "note": 77,
      "start": 47.8885,
      "duration": 0.0628,
      "velocity": 116,
      "chip": "ym2612"
    },
    {
      "channel": 0,
      "note": 45,
      "start": 47.8916,
      "duration": 0.0762,
      "velocity": 119,
      "chip": "ym2612"
    },
    {
      "channel": 3,
      "note": 53,
      "start": 48.0047,
      "duration": 0.0967,
      "velocity": 87,
      "chip": "ym2612"
    },
    {
      "channel": 5,
      "note": 79,
      "start": 48.0076,
      "duration": 0.0604,
      "velocity": 116,
      "chip": "ym2612"
    },
    {
      "channel": 1,
      "note": 96,
      "start": 48.0215,
      "duration": 0.0798,
      "velocity": 95,
      "chip": "ym2612"
    },
    {
      "channel": 0,
      "note": 45,
      "start": 48.1552,
      "duration": 0.0625,
      "velocity": 119,
      "chip": "ym2612"
    },
    {
      "channel": 3,
      "note": 55,
      "start": 48.2542,
      "duration": 0.1305,
      "velocity": 87,
      "chip": "ym2612"
    },
    {
      "channel": 5,
      "note": 77,
      "start": 48.2572,
      "duration": 0.0608,
      "velocity": 116,
      "chip": "ym2612"
    },
    {
      "channel": 1,
      "note": 96,
      "start": 48.2876,
      "duration": 0.097,
      "velocity": 95,
      "chip": "ym2612"
    },
    {
      "channel": 3,
      "note": 58,
      "start": 48.5376,
      "duration": 0.0636,
      "velocity": 87,
      "chip": "ym2612"
    },
    {
      "channel": 5,
      "note": 77,
      "start": 48.5407,
      "duration": 0.0439,
      "velocity": 116,
      "chip": "ym2612"
    },
    {
      "channel": 0,
      "note": 45,
      "start": 48.5437,
      "duration": 0.0573,
      "velocity": 119,
      "chip": "ym2612"
    },
    {
      "channel": 1,
      "note": 96,
      "start": 48.5542,
      "duration": 0.0969,
      "velocity": 95,
      "chip": "ym2612"
    },
    {
      "channel": 5,
      "note": 77,
      "start": 48.788,
      "duration": 0.0632,
      "velocity": 116,
      "chip": "ym2612"
    },
    {
      "channel": 0,
      "note": 45,
      "start": 48.7915,
      "duration": 0.1096,
      "velocity": 119,
      "chip": "ym2612"
    },
    {
      "channel": 1,
      "note": 101,
      "start": 48.8376,
      "duration": 0.0802,
      "velocity": 95,
      "chip": "ym2612"
    },
    {
      "channel": 3,
      "note": 57,
      "start": 48.9707,
      "duration": 0.0638,
      "velocity": 87,
      "chip": "ym2612"
    },
    {
      "channel": 1,
      "note": 99,
      "start": 48.9735,
      "duration": 0.0776,
      "velocity": 95,
      "chip": "ym2612"
    },
    {
      "channel": 5,
      "note": 79,
      "start": 48.9763,
      "duration": 0.0249,
      "velocity": 116,
      "chip": "ym2612"
    },
    {
      "channel": 3,
      "note": 57,
      "start": 49.2374,
      "duration": 0.0638,
      "velocity": 87,
      "chip": "ym2612"
    },
    {
      "channel": 3,
      "note": 53,
      "start": 49.3209,
      "duration": 0.2637,
      "velocity": 87,
      "chip": "ym2612"
    },
    {
      "channel": 4,
      "note": 58,
      "start": 49.3241,
      "duration": 0.0605,
      "velocity": 87,
      "chip": "ym2612"
    },
    {
      "channel": 0,
      "note": 45,
      "start": 49.3276,
      "duration": 0.0568,
      "velocity": 119,
      "chip": "ym2612"
    },
    {
      "channel": 3,
      "note": 48,
      "start": 49.621,
      "duration": 0.1468,
      "velocity": 87,
      "chip": "ym2612"
    },
    {
      "channel": 0,
      "note": 45,
      "start": 49.6244,
      "duration": 0.0268,
      "velocity": 119,
      "chip": "ym2612"
    },
    {
      "channel": 1,
      "note": 96,
      "start": 49.6376,
      "duration": 0.0803,
      "velocity": 95,
      "chip": "ym2612"
    },
    {
      "channel": 1,
      "note": 96,
      "start": 49.771,
      "duration": 0.097,
      "velocity": 95,
      "chip": "ym2612"
    },
    {
      "channel": 3,
      "note": 48,
      "start": 49.8712,
      "duration": 0.1633,
      "velocity": 87,
      "chip": "ym2612"
    },
    {
      "channel": 0,
      "note": 45,
      "start": 49.8746,
      "duration": 0.0764,
      "velocity": 119,
      "chip": "ym2612"
    },
    {
      "channel": 1,
      "note": 96,
      "start": 49.8877,
      "duration": 0.08,
      "velocity": 95,
      "chip": "ym2612"
    },
    {
      "channel": 5,
      "note": 77,
      "start": 50.0379,
      "duration": 0.0467,
      "velocity": 116,
      "chip": "ym2612"
    },
    {
      "channel": 0,
      "note": 45,
      "start": 50.041,
      "duration": 0.0601,
      "velocity": 119,
      "chip": "ym2612"
    },
    {
      "channel": 3,
      "note": 53,
      "start": 50.1543,
      "duration": 0.1137,
      "velocity": 87,
      "chip": "ym2612"
    },
    {
      "channel": 5,
      "note": 79,
      "start": 50.1577,
      "duration": 0.0437,
      "velocity": 116,
      "chip": "ym2612"
    },
    {
      "channel": 1,
      "note": 96,
      "start": 50.1711,
      "duration": 0.0968,
      "velocity": 95,
      "chip": "ym2612"
    },
    {
      "channel": 3,
      "note": 55,
      "start": 50.3207,
      "duration": 0.0971,
      "velocity": 87,
      "chip": "ym2612"
    },
    {
      "channel": 4,
      "note": 58,
      "start": 50.4043,
      "duration": 0.0803,
      "velocity": 87,
      "chip": "ym2612"
    },
    {
      "channel": 5,
      "note": 77,
      "start": 50.4074,
      "duration": 0.0773,
      "velocity": 116,
      "chip": "ym2612"
    },
    {
      "channel": 0,
      "note": 45,
      "start": 50.4108,
      "duration": 0.0569,
      "velocity": 119,
      "chip": "ym2612"
    },
    {
      "channel": 1,
      "note": 96,
      "start": 50.4541,
      "duration": 0.0803,
      "velocity": 95,
      "chip": "ym2612"
    },
    {
      "channel": 3,
      "note": 58,
      "start": 50.688,
      "duration": 0.0632,
      "velocity": 87,
      "chip": "ym2612"
    },
    {
      "channel": 5,
      "note": 79,
      "start": 50.6911,
      "duration": 0.0603,
      "velocity": 116,
      "chip": "ym2612"
    },
    {
      "channel": 0,
      "note": 45,
      "start": 50.6941,
      "duration": 0.057,
      "velocity": 119,
      "chip": "ym2612"
    },
    {
      "channel": 1,
      "note": 96,
      "start": 50.7213,
      "duration": 0.0799,
      "velocity": 95,
      "chip": "ym2612"
    },
    {
      "channel": 5,
      "note": 77,
      "start": 50.938,
      "duration": 0.0466,
      "velocity": 116,
      "chip": "ym2612"
    },
    {
      "channel": 0,
      "note": 45,
      "start": 50.9411,
      "duration": 0.0933,
      "velocity": 119,
      "chip": "ym2612"
    },
    {
      "channel": 1,
      "note": 101,
      "start": 50.9877,
      "duration": 0.0802,
      "velocity": 95,
      "chip": "ym2612"
    },
    {
      "channel": 3,
      "note": 58,
      "start": 51.121,
      "duration": 0.1135,
      "velocity": 87,
      "chip": "ym2612"
    },
    {
      "channel": 1,
      "note": 99,
      "start": 51.1237,
      "duration": 0.0774,
      "velocity": 95,
      "chip": "ym2612"
    },
    {
      "channel": 5,
      "note": 79,
      "start": 51.1264,
      "duration": 0.0415,
      "velocity": 116,
      "chip": "ym2612"
    },
    {
      "channel": 3,
      "note": 60,
      "start": 51.2377,
      "duration": 0.0802,
      "velocity": 87,
      "chip": "ym2612"
    },
    {
      "channel": 3,
      "note": 51,
      "start": 51.3877,
      "duration": 0.3135,
      "velocity": 87,
      "chip": "ym2612"
    },
    {
      "channel": 5,
      "note": 77,
      "start": 51.3905,
      "duration": 0.0441,
      "velocity": 116,
      "chip": "ym2612"
    },
    {
      "channel": 0,
      "note": 45,
      "start": 51.4884,
      "duration": 0.0627,
      "velocity": 119,
      "chip": "ym2612"
    },
    {
      "channel": 5,
      "note": 75,
      "start": 51.6546,
      "duration": 0.0468,
      "velocity": 116,
      "chip": "ym2612"
    },
    {
      "channel": 2,
      "note": 87,
      "start": 51.6578,
      "duration": 0.227,
      "velocity": 112,
      "chip": "ym2612"
    },
    {
      "channel": 3,
      "note": 48,
      "start": 51.771,
      "duration": 0.1301,
      "velocity": 87,
      "chip": "ym2612"
    },
    {
      "channel": 0,
      "note": 45,
      "start": 51.7744,
      "duration": 0.0766,
      "velocity": 119,
      "chip": "ym2612"
    },
    {
      "channel": 1,
      "note": 96,
      "start": 51.7876,
      "duration": 0.0969,
      "velocity": 95,
      "chip": "ym2612"
    },
    {
      "channel": 1,
      "note": 96,
      "start": 51.9376,
      "duration": 0.0804,
      "velocity": 95,
      "chip": "ym2612"
    },
    {
      "channel": 3,
      "note": 48,
      "start": 52.0215,
      "duration": 0.1963,
      "velocity": 87,
      "chip": "ym2612"
    },
    {
      "channel": 0,
      "note": 45,
      "start": 52.0249,
      "duration": 0.0595,
      "velocity": 119,
      "chip": "ym2612"
    },
    {
      "channel": 1,
      "note": 96,
      "start": 52.0377,
      "duration": 0.0968,
      "velocity": 95,
      "chip": "ym2612"
    },
    {
      "channel": 5,
      "note": 77,
      "start": 52.205,
      "duration": 0.063,
      "velocity": 116,
      "chip": "ym2612"
    },
    {
      "channel": 0,
      "note": 45,
      "start": 52.2084,
      "duration": 0.0594,
      "velocity": 119,
      "chip": "ym2612"
    },
    {
      "channel": 3,
      "note": 53,
      "start": 52.3043,
      "duration": 0.147,
      "velocity": 87,
      "chip": "ym2612"
    },
    {
      "channel": 5,
      "note": 79,
      "start": 52.3073,
      "duration": 0.0608,
      "velocity": 116,
      "chip": "ym2612"
    },
    {
      "channel": 1,
      "note": 96,
      "start": 52.3376,
      "duration": 0.0802,
      "velocity": 95,
      "chip": "ym2612"
    },
    {
      "channel": 3,
      "note": 55,
      "start": 52.4709,
      "duration": 0.1137,
      "velocity": 87,
      "chip": "ym2612"
    },
    {
      "channel": 0,
      "note": 45,
      "start": 52.4744,
      "duration": 0.0767,
      "velocity": 119,
      "chip": "ym2612"
    },
    {
      "channel": 4,
      "note": 58,
      "start": 52.5542,
      "duration": 0.1138,
      "velocity": 87,
      "chip": "ym2612"
    },
    {
      "channel": 5,
      "note": 77,
      "start": 52.5573,
      "duration": 0.0441,
      "velocity": 116,
      "chip": "ym2612"
    },
    {
      "channel": 1,
      "note": 96,
      "start": 52.6043,
      "duration": 0.0802,
      "velocity": 95,
      "chip": "ym2612"
    },
    {
      "channel": 3,
      "note": 58,
      "start": 52.8543,
      "duration": 0.0637,
      "velocity": 87,
      "chip": "ym2612"
    },
    {
      "channel": 5,
      "note": 77,
      "start": 52.8574,
      "duration": 0.0607,
      "velocity": 116,
      "chip": "ym2612"
    },
    {
      "channel": 0,
      "note": 45,
      "start": 52.8605,
      "duration": 0.0572,
      "velocity": 119,
      "chip": "ym2612"
    },
    {
      "channel": 1,
      "note": 96,
      "start": 52.8708,
      "duration": 0.0803,
      "velocity": 95,
      "chip": "ym2612"
    },
    {
      "channel": 5,
      "note": 77,
      "start": 53.1045,
      "duration": 0.0635,
      "velocity": 116,
      "chip": "ym2612"
    },
    {
      "channel": 0,
      "note": 45,
      "start": 53.1076,
      "duration": 0.0935,
      "velocity": 119,
      "chip": "ym2612"
    },
    {
      "channel": 1,
      "note": 101,
      "start": 53.1379,
      "duration": 0.0966,
      "velocity": 95,
      "chip": "ym2612"
    },
    {
      "channel": 3,
      "note": 57,
      "start": 53.2707,
      "duration": 0.0638,
      "velocity": 87,
      "chip": "ym2612"
    },
    {
      "channel": 1,
      "note": 99,
      "start": 53.2734,
      "duration": 0.0944,
      "velocity": 95,
      "chip": "ym2612"
    },
    {
      "channel": 5,
      "note": 79,
      "start": 53.2763,
      "duration": 0.0417,
      "velocity": 116,
      "chip": "ym2612"
    },
    {
      "channel": 3,
      "note": 57,
      "start": 53.5546,
      "duration": 0.0132,
      "velocity": 87,
      "chip": "ym2612"
    },
    {
      "channel": 3,
      "note": 53,
      "start": 53.6375,
      "duration": 0.2637,
      "velocity": 87,
      "chip": "ym2612"
    },
    {
      "channel": 0,
      "note": 45,
      "start": 53.641,
      "duration": 0.0435,
      "velocity": 119,
      "chip": "ym2612"
    },
    {
      "channel": 2,
      "note": 96,
      "start": 53.8217,
      "duration": 0.2798,
      "velocity": 112,
      "chip": "ym2612"
    },
    {
      "channel": 3,
      "note": 48,
      "start": 53.921,
      "duration": 0.1636,
      "velocity": 87,
      "chip": "ym2612"
    },
    {
      "channel": 5,
      "note": 75,
      "start": 53.9244,
      "duration": 0.1103,
      "velocity": 116,
      "chip": "ym2612"
    },
    {
      "channel": 0,
      "note": 45,
      "start": 53.9276,
      "duration": 0.0235,
      "velocity": 119,
      "chip": "ym2612"
    },
    {
      "channel": 1,
      "note": 96,
      "start": 53.9544,
      "duration": 0.0801,
      "velocity": 95,
      "chip": "ym2612"
    },
    {
      "channel": 1,
      "note": 96,
      "start": 54.0877,
      "duration": 0.0801,
      "velocity": 95,
      "chip": "ym2612"
    },
    {
      "channel": 5,
      "note": 77,
      "start": 54.0905,
      "duration": 0.1109,
      "velocity": 116,
      "chip": "ym2612"
    },
    {
      "channel": 3,
      "note": 48,
      "start": 54.171,
      "duration": 0.1969,
      "velocity": 87,
      "chip": "ym2612"
    },
    {
      "channel": 4,
      "note": 75,
      "start": 54.1742,
      "duration": 0.127,
      "velocity": 116,
      "chip": "ym2612"
    },
    {
      "channel": 0,
      "note": 45,
      "start": 54.1777,
      "duration": 0.0901,
      "velocity": 119,
      "chip": "ym2612"
    },
    {
      "channel": 1,
      "note": 96,
      "start": 54.2044,
      "duration": 0.0801,
      "velocity": 95,
      "chip": "ym2612"
    },
    {
      "channel": 4,
      "note": 77,
      "start": 54.3546,
      "duration": 0.08,
      "velocity": 116,
      "chip": "ym2612"
    },
    {
      "channel": 0,
      "note": 45,
      "start": 54.3576,
      "duration": 0.0768,
      "velocity": 119,
      "chip": "ym2612"
    },
    {
      "channel": 3,
      "note": 50,
      "start": 54.4708,
      "duration": 0.197,
      "velocity": 87,
      "chip": "ym2612"
    },
    {
      "channel": 4,
      "note": 75,
      "start": 54.4737,
      "duration": 0.0776,
      "velocity": 116,
      "chip": "ym2612"
    },
    {
      "channel": 1,
      "note": 96,
      "start": 54.4877,
      "duration": 0.0967,
      "velocity": 95,
      "chip": "ym2612"
    },
    {
      "channel": 4,
      "note": 77,
      "start": 54.6213,
      "duration": 0.0966,
      "velocity": 116,
      "chip": "ym2612"
    },
    {
      "channel": 3,
      "note": 50,
      "start": 54.7209,
      "duration": 0.1971,
      "velocity": 87,
      "chip": "ym2612"
    },
    {
      "channel": 4,
      "note": 75,
      "start": 54.7243,
      "duration": 0.0935,
      "velocity": 116,
      "chip": "ym2612"
    },
    {
      "channel": 0,
      "note": 45,
      "start": 54.7274,
      "duration": 0.057,
      "velocity": 119,
      "chip": "ym2612"
    },
    {
      "channel": 1,
      "note": 96,
      "start": 54.7541,
      "duration": 0.097,
      "velocity": 95,
      "chip": "ym2612"
    },
    {
      "channel": 4,
      "note": 77,
      "start": 54.8879,
      "duration": 0.1134,
      "velocity": 116,
      "chip": "ym2612"
    },
    {
      "channel": 3,
      "note": 51,
      "start": 55.0042,
      "duration": 0.197,
      "velocity": 87,
      "chip": "ym2612"
    },
    {
      "channel": 4,
      "note": 75,
      "start": 55.0072,
      "duration": 0.0607,
      "velocity": 116,
      "chip": "ym2612"
    },
    {
      "channel": 0,
      "note": 45,
      "start": 55.0104,
      "duration": 0.074,
      "velocity": 119,
      "chip": "ym2612"
    },
    {
      "channel": 1,
      "note": 96,
      "start": 55.0208,
      "duration": 0.097,
      "velocity": 95,
      "chip": "ym2612"
    },
    {
      "channel": 2,
      "note": 53,
      "start": 55.1716,
      "duration": 0.0798,
      "velocity": 87,
      "chip": "ym2612"
    },
    {
      "channel": 4,
      "note": 77,
      "start": 55.1745,
      "duration": 0.06,
      "velocity": 116,
      "chip": "ym2612"
    },
    {
      "channel": 5,
      "note": 89,
      "start": 55.1776,
      "duration": 0.0238,
      "velocity": 112,
      "chip": "ym2612"
    },
    {
      "channel": 3,
      "note": 53,
      "start": 55.2544,
      "duration": 0.1135,
      "velocity": 87,
      "chip": "ym2612"
    },
    {
      "channel": 4,
      "note": 77,
      "start": 55.2574,
      "duration": 0.0771,
      "velocity": 116,
      "chip": "ym2612"
    },
    {
      "channel": 5,
      "note": 89,
      "start": 55.2608,
      "duration": 0.0739,
      "velocity": 112,
      "chip": "ym2612"
    },
    {
      "channel": 0,
      "note": 45,
      "start": 55.2638,
      "duration": 0.1039,
      "velocity": 119,
      "chip": "ym2612"
    },
    {
      "channel": 1,
      "note": 101,
      "start": 55.3042,
      "duration": 0.0802,
      "velocity": 95,
      "chip": "ym2612"
    },
    {
      "channel": 1,
      "note": 99,
      "start": 55.4381,
      "duration": 0.0798,
      "velocity": 95,
      "chip": "ym2612"
    },
    {
      "channel": 3,
      "note": 53,
      "start": 55.5376,
      "duration": 0.097,
      "velocity": 87,
      "chip": "ym2612"
    },
    {
      "channel": 4,
      "note": 77,
      "start": 55.5406,
      "duration": 0.0606,
      "velocity": 116,
      "chip": "ym2612"
    },
    {
      "channel": 5,
      "note": 89,
      "start": 55.5436,
      "duration": 0.0578,
      "velocity": 112,
      "chip": "ym2612"
    },
    {
      "channel": 3,
      "note": 51,
      "start": 55.7875,
      "duration": 0.1302,
      "velocity": 87,
      "chip": "ym2612"
    },
    {
      "channel": 4,
      "note": 75,
      "start": 55.7911,
      "duration": 0.0935,
      "velocity": 116,
      "chip": "ym2612"
    },
    {
      "channel": 5,
      "note": 96,
      "start": 55.7939,
      "duration": 0.0574,
      "velocity": 112,
      "chip": "ym2612"
    },
    {
      "channel": 2,
      "note": 87,
      "start": 55.7969,
      "duration": 0.0879,
      "velocity": 112,
      "chip": "ym2612"
    },
    {
      "channel": 0,
      "note": 45,
      "start": 55.8005,
      "duration": 0.0839,
      "velocity": 119,
      "chip": "ym2612"
    },
    {
      "channel": 3,
      "note": 60,
      "start": 55.971,
      "duration": 0.0803,
      "velocity": 87,
      "chip": "ym2612"
    },
    {
      "channel": 5,
      "note": 96,
      "start": 55.9744,
      "duration": 0.0771,
      "velocity": 112,
      "chip": "ym2612"
    },
    {
      "channel": 1,
      "note": 59,
      "start": 56.2384,
      "duration": 0.0461,
      "velocity": 127,
      "chip": "ym2612"
    },
    {
      "channel": 1,
      "note": 59,
      "start": 56.3381,
      "duration": 0.0798,
      "velocity": 127,
      "chip": "ym2612"
    },
    {
      "channel": 1,
      "note": 59,
      "start": 56.6213,
      "duration": 0.0965,
      "velocity": 127,
      "chip": "ym2612"
    },
    {
      "channel": 1,
      "note": 59,
      "start": 56.8715,
      "duration": 0.0464,
      "velocity": 127,
      "chip": "ym2612"
    },
    {
      "channel": 1,
      "note": 59,
      "start": 57.0552,
      "duration": 0.0625,
      "velocity": 127,
      "chip": "ym2612"
    },
    {
      "channel": 0,
      "note": 45,
      "start": 57.405,
      "duration": 0.1128,
      "velocity": 119,
      "chip": "ym2612"
    },
    {
      "channel": 0,
      "note": 45,
      "start": 57.955,
      "duration": 0.0627,
      "velocity": 119,
      "chip": "ym2612"
    },
    {
      "channel": 0,
      "note": 45,
      "start": 58.2384,
      "duration": 0.0127,
      "velocity": 119,
      "chip": "ym2612"
    },
    {
      "channel": 0,
      "note": 45,
      "start": 58.4884,
      "duration": 0.0793,
      "velocity": 119,
      "chip": "ym2612"
    },
    {
      "channel": 0,
      "note": 45,
      "start": 58.6715,
      "duration": 0.0796,
      "velocity": 119,
      "chip": "ym2612"
    },
    {
      "channel": 0,
      "note": 45,
      "start": 59.022,
      "duration": 0.0624,
      "velocity": 119,
      "chip": "ym2612"
    },
    {
      "channel": 0,
      "note": 45,
      "start": 59.3218,
      "duration": 0.0794,
      "velocity": 119,
      "chip": "ym2612"
    },
    {
      "channel": 0,
      "note": 45,
      "start": 59.5717,
      "duration": 0.096,
      "velocity": 119,
      "chip": "ym2612"
    },
    {
      "channel": 0,
      "note": 45,
      "start": 60.105,
      "duration": 0.0795,
      "velocity": 119,
      "chip": "ym2612"
    },
    {
      "channel": 0,
      "note": 45,
      "start": 60.4009,
      "duration": 0.0169,
      "velocity": 119,
      "chip": "ym2612"
    }
  ]
}