{
  "track_name": "10 - Thrashin' Tundra",
  "duration_sec": 114.334,
  "sample_rate": 44100,
  "note_count": 3122,
  "unique_pitches": 42,
  "pitch_range": 92,
  "avg_note_duration": 0.1218,
  "reconstruction_stats": {
    "notes_reconstructed": 3122,
    "keyon_events": 3122,
    "keyoff_events": 3121,
    "orphan_keyons": 1,
    "unique_pitches": 42,
    "pitch_range": 92,
    "avg_duration_sec": 0.1218
  },
  "metadata": {
    "source": "M\\Mega Bomberman\\10 - Thrashin' Tundra.vgz"
  },
  "notes": [
    {
      "channel": 0,
      "note": 46,
      "start": 0.0,
      "duration": 0.0,
      "velocity": 101,
      "chip": "ym2612"
    },
    {
      "channel": 0,
      "note": 34,
      "start": 0.0,
      "duration": 0.0,
      "velocity": 101,
      "chip": "ym2612"
    },
    {
      "channel": 0,
      "note": 46,
      "start": 0.0,
      "duration": 0.0,
      "velocity": 101,
      "chip": "ym2612"
    },
    {
      "channel": 0,
      "note": 46,
      "start": 0.0,
      "duration": 0.0,
      "velocity": 101,
      "chip": "ym2612"
    },
    {
      "channel": 0,
      "note": 34,
      "start": 0.0,
      "duration": 0.0,
      "velocity": 101,
      "chip": "ym2612"
    },
    {
      "channel": 0,
      "note": 46,
      "start": 0.0,
      "duration": 0.0,
      "velocity": 101,
      "chip": "ym2612"
    },
    {
      "channel": 0,
      "note": 46,
      "start": 0.0,
      "duration": 0.0,
      "velocity": 101,
      "chip": "ym2612"
    },
    {
      "channel": 0,
      "note": 34,
      "start": 0.0,
      "duration": 0.0,
      "velocity": 101,
      "chip": "ym2612"
    },
    {
      "channel": 0,
      "note": 46,
      "start": 0.0,
      "duration": 0.0,
      "velocity": 101,
      "chip": "ym2612"
    },
    {
      "channel": 0,
      "note": 46,
      "start": 0.0,
      "duration": 0.0,
      "velocity": 101,
      "chip": "ym2612"
    },
    {
      "channel": 0,
      "note": 34,
      "start": 0.0,
      "duration": 0.0,
      "velocity": 101,
      "chip": "ym2612"
    },
    {
      "channel": 0,
      "note": 46,
      "start": 0.0,
      "duration": 0.0,
      "velocity": 101,
      "chip": "ym2612"
    },
    {
      "channel": 0,
      "note": 46,
      "start": 0.0,
      "duration": 0.314,
      "velocity": 107,
      "chip": "ym2612"
    },
    {
      "channel": 1,
      "note": 71,
      "start": 0.0,
      "duration": 0.0,
      "velocity": 91,
      "chip": "ym2612"
    },
    {
      "channel": 1,
      "note": 93,
      "start": 0.0,
      "duration": 0.0,
      "velocity": 91,
      "chip": "ym2612"
    },
    {
      "channel": 1,
      "note": 93,
      "start": 0.0,
      "duration": 0.0,
      "velocity": 91,
      "chip": "ym2612"
    },
    {
      "channel": 1,
      "note": 93,
      "start": 0.0,
      "duration": 0.0,
      "velocity": 91,
      "chip": "ym2612"
    },
    {
      "channel": 1,
      "note": 93,
      "start": 0.0,
      "duration": 0.0,
      "velocity": 91,
      "chip": "ym2612"
    },
    {
      "channel": 1,
      "note": 93,
      "start": 0.0,
      "duration": 0.0,
      "velocity": 91,
      "chip": "ym2612"
    },
    {
      "channel": 1,
      "note": 93,
      "start": 0.0,
      "duration": 0.0,
      "velocity": 91,
      "chip": "ym2612"
    },
    {
      "channel": 1,
      "note": 93,
      "start": 0.0,
      "duration": 0.0,
      "velocity": 91,
      "chip": "ym2612"
    },
    {
      "channel": 1,
      "note": 93,
      "start": 0.0,
      "duration": 0.0,
      "velocity": 91,
      "chip": "ym2612"
    },
    {
      "channel": 2,
      "note": 74,
      "start": 0.0,
      "duration": 0.0,
      "velocity": 127,
      "chip": "ym2612"
    },
    {
      "channel": 2,
      "note": 74,
      "start": 0.0,
      "duration": 0.0,
      "velocity": 127,
      "chip": "ym2612"
    },
    {
      "channel": 2,
      "note": 74,
      "start": 0.0,
      "duration": 0.0,
      "velocity": 127,
      "chip": "ym2612"
    },
    {
      "channel": 2,
      "note": 74,
      "start": 0.0,
      "duration": 0.0,
      "velocity": 127,
      "chip": "ym2612"
    },
    {
      "channel": 2,
      "note": 74,
      "start": 0.0,
      "duration": 0.0,
      "velocity": 127,
      "chip": "ym2612"
    },
    {
      "channel": 2,
      "note": 74,
      "start": 0.0,
      "duration": 0.0,
      "velocity": 127,
      "chip": "ym2612"
    },
    {
      "channel": 2,
      "note": 74,
      "start": 0.0,
      "duration": 0.0,
      "velocity": 127,
      "chip": "ym2612"
    },
    {
      "channel": 2,
      "note": 74,
      "start": 0.0,
      "duration": 0.0,
      "velocity": 127,
      "chip": "ym2612"
    },
    {
      "channel": 2,
      "note": 74,
      "start": 0.0,
      "duration": 0.0,
      "velocity": 127,
      "chip": "ym2612"
    },
    {
      "channel": 2,
      "note": 74,
      "start": 0.0,
      "duration": 0.0,
      "velocity": 127,
      "chip": "ym2612"
    },
    {
      "channel": 2,
      "note": 74,
      "start": 0.0,
      "duration": 0.0,
      "velocity": 127,
      "chip": "ym2612"
    },
    {
      "channel": 2,
      "note": 74,
      "start": 0.0,
      "duration": 0.0,
      "velocity": 127,
      "chip": "ym2612"
    },
    {
      "channel": 2,
      "note": 74,
      "start": 0.0,
      "duration": 0.0,
      "velocity": 127,
      "chip": "ym2612"
    },
    {
      "channel": 2,
      "note": 74,
      "start": 0.0,
      "duration": 0.0,
      "velocity": 127,
      "chip": "ym2612"
    },
    {
      "channel": 2,
      "note": 74,
      "start": 0.0,
      "duration": 0.0,
      "velocity": 127,
      "chip": "ym2612"
    },
    {
      "channel": 2,
      "note": 74,
      "start": 0.0,
      "duration": 0.0,
      "velocity": 127,
      "chip": "ym2612"
    },
    {
      "channel": 3,
      "note": 33,
      "start": 0.0,
      "duration": 0.0,
      "velocity": 91,
      "chip": "ym2612"
    },
    {
      "channel": 3,
      "note": 86,
      "start": 0.0,
      "duration": 0.0,
      "velocity": 91,
      "chip": "ym2612"
    },
    {
      "channel": 3,
      "note": 86,
      "start": 0.0,
      "duration": 0.0,
      "velocity": 91,
      "chip": "ym2612"
    },
    {
      "channel": 3,
      "note": 86,
      "start": 0.0,
      "duration": 0.0,
      "velocity": 91,
      "chip": "ym2612"
    },
    {
      "channel": 3,
      "note": 86,
      "start": 0.0,
      "duration": 0.0,
      "velocity": 91,
      "chip": "ym2612"
    },
    {
      "channel": 3,
      "note": 86,
      "start": 0.0,
      "duration": 0.0,
      "velocity": 91,
      "chip": "ym2612"
    },
    {
      "channel": 3,
      "note": 86,
      "start": 0.0,
      "duration": 0.0,
      "velocity": 91,
      "chip": "ym2612"
    },
    {
      "channel": 3,
      "note": 86,
      "start": 0.0,
      "duration": 0.0,
      "velocity": 91,
      "chip": "ym2612"
    },
    {
      "channel": 3,
      "note": 86,
      "start": 0.0,
      "duration": 0.0,
      "velocity": 91,
      "chip": "ym2612"
    },
    {
      "channel": 4,
      "note": 95,
      "start": 0.0,
      "duration": 0.0,
      "velocity": 91,
      "chip": "ym2612"
    },
    {
      "channel": 4,
      "note": 89,
      "start": 0.0,
      "duration": 0.0,
      "velocity": 91,
      "chip": "ym2612"
    },
    {
      "channel": 4,
      "note": 89,
      "start": 0.0,
      "duration": 0.0,
      "velocity": 91,
      "chip": "ym2612"
    },
    {
      "channel": 4,
      "note": 89,
      "start": 0.0,
      "duration": 0.0,
      "velocity": 91,
      "chip": "ym2612"
    },
    {
      "channel": 4,
      "note": 89,
      "start": 0.0,
      "duration": 0.0,
      "velocity": 91,
      "chip": "ym2612"
    },
    {
      "channel": 4,
      "note": 89,
      "start": 0.0,
      "duration": 0.0,
      "velocity": 91,
      "chip": "ym2612"
    },
    {
      "channel": 4,
      "note": 89,
      "start": 0.0,
      "duration": 0.0,
      "velocity": 91,
      "chip": "ym2612"
    },
    {
      "channel": 4,
      "note": 89,
      "start": 0.0,
      "duration": 0.0,
      "velocity": 91,
      "chip": "ym2612"
    },
    {
      "channel": 4,
      "note": 89,
      "start": 0.0,
      "duration": 0.0,
      "velocity": 91,
      "chip": "ym2612"
    },
    {
      "channel": 5,
      "note": 42,
      "start": 0.0,
      "duration": 0.0,
      "velocity": 127,
      "chip": "ym2612"
    },
    {
      "channel": 5,
      "note": 25,
      "start": 0.0,
      "duration": 0.0,
      "velocity": 127,
      "chip": "ym2612"
    },
    {
      "channel": 5,
      "note": 25,
      "start": 0.0,
      "duration": 0.0,
      "velocity": 127,
      "chip": "ym2612"
    },
    {
      "channel": 5,
      "note": 25,
      "start": 0.0,
      "duration": 0.0,
      "velocity": 127,
      "chip": "ym2612"
    },
    {
      "channel": 5,
      "note": 42,
      "start": 0.0,
      "duration": 0.0,
      "velocity": 127,
      "chip": "ym2612"
    },
    {
      "channel": 5,
      "note": 25,
      "start": 0.0,
      "duration": 0.0,
      "velocity": 127,
      "chip": "ym2612"
    },
    {
      "channel": 5,
      "note": 25,
      "start": 0.0,
      "duration": 0.0,
      "velocity": 127,
      "chip": "ym2612"
    },
    {
      "channel": 5,
      "note": 25,
      "start": 0.0,
      "duration": 0.0,
      "velocity": 127,
      "chip": "ym2612"
    },
    {
      "channel": 5,
      "note": 25,
      "start": 0.0,
      "duration": 0.0,
      "velocity": 127,
      "chip": "ym2612"
    },
    {
      "channel": 5,
      "note": 42,
      "start": 0.0,
      "duration": 0.0,
      "velocity": 127,
      "chip": "ym2612"
    },
    {
      "channel": 4,
      "note": 89,
      "start": 0.0024,
      "duration": 0.2492,
      "velocity": 99,
      "chip": "ym2612"
    },
    {
      "channel": 2,
      "note": 74,
      "start": 0.0041,
      "duration": 0.0708,
      "velocity": 127,
      "chip": "ym2612"
    },
    {
      "channel": 5,
      "note": 42,
      "start": 0.0072,
      "duration": 0.0968,
      "velocity": 127,
      "chip": "ym2612"
    },
    {
      "channel": 2,
      "note": 74,
      "start": 0.1221,
      "duration": 0.0728,
      "velocity": 127,
      "chip": "ym2612"
    },
    {
      "channel": 2,
      "note": 74,
      "start": 0.2244,
      "duration": 0.0735,
      "velocity": 127,
      "chip": "ym2612"
    },
    {
      "channel": 0,
      "note": 45,
      "start": 0.3279,
      "duration": 0.312,
      "velocity": 107,
      "chip": "ym2612"
    },
    {
      "channel": 4,
      "note": 81,
      "start": 0.3295,
      "duration": 0.2481,
      "velocity": 99,
      "chip": "ym2612"
    },
    {
      "channel": 2,
      "note": 74,
      "start": 0.331,
      "duration": 0.0698,
      "velocity": 127,
      "chip": "ym2612"
    },
    {
      "channel": 5,
      "note": 25,
      "start": 0.3333,
      "duration": 0.0677,
      "velocity": 127,
      "chip": "ym2612"
    },
    {
      "channel": 2,
      "note": 74,
      "start": 0.4303,
      "duration": 0.0735,
      "velocity": 127,
      "chip": "ym2612"
    },
    {
      "channel": 5,
      "note": 42,
      "start": 0.4326,
      "duration": 0.1012,
      "velocity": 127,
      "chip": "ym2612"
    },
    {
      "channel": 2,
      "note": 74,
      "start": 0.5332,
      "duration": 0.0735,
      "velocity": 127,
      "chip": "ym2612"
    },
    {
      "channel": 0,
      "note": 45,
      "start": 0.6525,
      "duration": 0.2021,
      "velocity": 107,
      "chip": "ym2612"
    },
    {
      "channel": 4,
      "note": 81,
      "start": 0.6544,
      "duration": 0.1633,
      "velocity": 99,
      "chip": "ym2612"
    },
    {
      "channel": 2,
      "note": 74,
      "start": 0.6565,
      "duration": 0.0702,
      "velocity": 127,
      "chip": "ym2612"
    },
    {
      "channel": 2,
      "note": 74,
      "start": 0.7568,
      "duration": 0.0729,
      "velocity": 127,
      "chip": "ym2612"
    },
    {
      "channel": 5,
      "note": 25,
      "start": 0.7593,
      "duration": 0.0706,
      "velocity": 127,
      "chip": "ym2612"
    },
    {
      "channel": 0,
      "note": 42,
      "start": 0.8599,
      "duration": 0.312,
      "velocity": 107,
      "chip": "ym2612"
    },
    {
      "channel": 4,
      "note": 78,
      "start": 0.8616,
      "duration": 0.2478,
      "velocity": 99,
      "chip": "ym2612"
    },
    {
      "channel": 2,
      "note": 74,
      "start": 0.8633,
      "duration": 0.0693,
      "velocity": 127,
      "chip": "ym2612"
    },
    {
      "channel": 5,
      "note": 42,
      "start": 0.8658,
      "duration": 0.0924,
      "velocity": 127,
      "chip": "ym2612"
    },
    {
      "channel": 2,
      "note": 74,
      "start": 0.962,
      "duration": 0.0735,
      "velocity": 127,
      "chip": "ym2612"
    },
    {
      "channel": 5,
      "note": 25,
      "start": 0.9644,
      "duration": 0.0714,
      "velocity": 127,
      "chip": "ym2612"
    },
    {
      "channel": 2,
      "note": 74,
      "start": 1.0821,
      "duration": 0.0741,
      "velocity": 127,
      "chip": "ym2612"
    },
    {
      "channel": 0,
      "note": 40,
      "start": 1.185,
      "duration": 0.3046,
      "velocity": 107,
      "chip": "ym2612"
    },
    {
      "channel": 4,
      "note": 76,
      "start": 1.1866,
      "duration": 0.2487,
      "velocity": 99,
      "chip": "ym2612"
    },
    {
      "channel": 2,
      "note": 74,
      "start": 1.1887,
      "duration": 0.0698,
      "velocity": 127,
      "chip": "ym2612"
    },
    {
      "channel": 5,
      "note": 42,
      "start": 1.1903,
      "duration": 0.0684,
      "velocity": 127,
      "chip": "ym2612"
    },
    {
      "channel": 2,
      "note": 74,
      "start": 1.2886,
      "duration": 0.0729,
      "velocity": 127,
      "chip": "ym2612"
    },
    {
      "channel": 5,
      "note": 42,
      "start": 1.2911,
      "duration": 0.1005,
      "velocity": 127,
      "chip": "ym2612"
    },
    {
      "channel": 2,
      "note": 74,
      "start": 1.3909,
      "duration": 0.0735,
      "velocity": 127,
      "chip": "ym2612"
    },
    {
      "channel": 0,
      "note": 40,
      "start": 1.4946,
      "duration": 0.2089,
      "velocity": 107,
      "chip": "ym2612"
    },
    {
      "channel": 4,
      "note": 76,
      "start": 1.4963,
      "duration": 0.162,
      "velocity": 99,
      "chip": "ym2612"
    },
    {
      "channel": 2,
      "note": 74,
      "start": 1.498,
      "duration": 0.0693,
      "velocity": 127,
      "chip": "ym2612"
    },
    {
      "channel": 5,
      "note": 25,
      "start": 1.5004,
      "duration": 0.0671,
      "velocity": 127,
      "chip": "ym2612"
    },
    {
      "channel": 2,
      "note": 74,
      "start": 1.6139,
      "duration": 0.0735,
      "velocity": 127,
      "chip": "ym2612"
    },
    {
      "channel": 5,
      "note": 42,
      "start": 1.6163,
      "duration": 0.099,
      "velocity": 127,
      "chip": "ym2612"
    },
    {
      "channel": 0,
      "note": 42,
      "start": 1.7179,
      "duration": 0.3029,
      "velocity": 107,
      "chip": "ym2612"
    },
    {
      "channel": 4,
      "note": 78,
      "start": 1.7196,
      "duration": 0.2475,
      "velocity": 99,
      "chip": "ym2612"
    },
    {
      "channel": 2,
      "note": 74,
      "start": 1.722,
      "duration": 0.0683,
      "velocity": 127,
      "chip": "ym2612"
    },
    {
      "channel": 5,
      "note": 25,
      "start": 1.7236,
      "duration": 0.0968,
      "velocity": 127,
      "chip": "ym2612"
    },
    {
      "channel": 2,
      "note": 74,
      "start": 1.8198,
      "duration": 0.0735,
      "velocity": 127,
      "chip": "ym2612"
    },
    {
      "channel": 2,
      "note": 74,
      "start": 1.9233,
      "duration": 0.0728,
      "velocity": 127,
      "chip": "ym2612"
    },
    {
      "channel": 0,
      "note": 45,
      "start": 2.0262,
      "duration": 0.3123,
      "velocity": 107,
      "chip": "ym2612"
    },
    {
      "channel": 4,
      "note": 81,
      "start": 2.0278,
      "duration": 0.2538,
      "velocity": 99,
      "chip": "ym2612"
    },
    {
      "channel": 2,
      "note": 74,
      "start": 2.0293,
      "duration": 0.0698,
      "velocity": 127,
      "chip": "ym2612"
    },
    {
      "channel": 5,
      "note": 25,
      "start": 2.0316,
      "duration": 0.0677,
      "velocity": 127,
      "chip": "ym2612"
    },
    {
      "channel": 2,
      "note": 74,
      "start": 2.1457,
      "duration": 0.0735,
      "velocity": 127,
      "chip": "ym2612"
    },
    {
      "channel": 5,
      "note": 42,
      "start": 2.148,
      "duration": 0.1013,
      "velocity": 127,
      "chip": "ym2612"
    },
    {
      "channel": 2,
      "note": 74,
      "start": 2.2486,
      "duration": 0.0741,
      "velocity": 127,
      "chip": "ym2612"
    },
    {
      "channel": 0,
      "note": 45,
      "start": 2.3507,
      "duration": 0.2105,
      "velocity": 107,
      "chip": "ym2612"
    },
    {
      "channel": 4,
      "note": 81,
      "start": 2.3525,
      "duration": 0.1698,
      "velocity": 99,
      "chip": "ym2612"
    },
    {
      "channel": 2,
      "note": 74,
      "start": 2.3544,
      "duration": 0.0706,
      "velocity": 127,
      "chip": "ym2612"
    },
    {
      "channel": 2,
      "note": 74,
      "start": 2.4551,
      "duration": 0.0729,
      "velocity": 127,
      "chip": "ym2612"
    },
    {
      "channel": 5,
      "note": 25,
      "start": 2.4576,
      "duration": 0.0705,
      "velocity": 127,
      "chip": "ym2612"
    },
    {
      "channel": 0,
      "note": 42,
      "start": 2.5752,
      "duration": 0.2003,
      "velocity": 107,
      "chip": "ym2612"
    },
    {
      "channel": 4,
      "note": 78,
      "start": 2.577,
      "duration": 0.1622,
      "velocity": 99,
      "chip": "ym2612"
    },
    {
      "channel": 2,
      "note": 74,
      "start": 2.5787,
      "duration": 0.0694,
      "velocity": 127,
      "chip": "ym2612"
    },
    {
      "channel": 5,
      "note": 42,
      "start": 2.5811,
      "duration": 0.0926,
      "velocity": 127,
      "chip": "ym2612"
    },
    {
      "channel": 2,
      "note": 74,
      "start": 2.6775,
      "duration": 0.0735,
      "velocity": 127,
      "chip": "ym2612"
    },
    {
      "channel": 5,
      "note": 25,
      "start": 2.6798,
      "duration": 0.0713,
      "velocity": 127,
      "chip": "ym2612"
    },
    {
      "channel": 0,
      "note": 40,
      "start": 2.7795,
      "duration": 0.2018,
      "velocity": 107,
      "chip": "ym2612"
    },
    {
      "channel": 4,
      "note": 76,
      "start": 2.781,
      "duration": 0.1639,
      "velocity": 99,
      "chip": "ym2612"
    },
    {
      "channel": 2,
      "note": 74,
      "start": 2.7826,
      "duration": 0.0714,
      "velocity": 127,
      "chip": "ym2612"
    },
    {
      "channel": 2,
      "note": 74,
      "start": 2.8833,
      "duration": 0.0735,
      "velocity": 127,
      "chip": "ym2612"
    },
    {
      "channel": 5,
      "note": 42,
      "start": 2.8849,
      "duration": 0.0721,
      "velocity": 127,
      "chip": "ym2612"
    },
    {
      "channel": 0,
      "note": 40,
      "start": 2.9859,
      "duration": 0.2157,
      "velocity": 107,
      "chip": "ym2612"
    },
    {
      "channel": 3,
      "note": 86,
      "start": 2.9892,
      "duration": 0.2127,
      "velocity": 97,
      "chip": "ym2612"
    },
    {
      "channel": 1,
      "note": 93,
      "start": 2.9919,
      "duration": 0.21,
      "velocity": 97,
      "chip": "ym2612"
    },
    {
      "channel": 4,
      "note": 76,
      "start": 2.9937,
      "duration": 0.1637,
      "velocity": 99,
      "chip": "ym2612"
    },
    {
      "channel": 0,
      "note": 42,
      "start": 3.4259,
      "duration": 0.319,
      "velocity": 107,
      "chip": "ym2612"
    },
    {
      "channel": 3,
      "note": 85,
      "start": 3.4276,
      "duration": 0.2092,
      "velocity": 97,
      "chip": "ym2612"
    },
    {
      "channel": 1,
      "note": 88,
      "start": 3.4293,
      "duration": 0.2076,
      "velocity": 97,
      "chip": "ym2612"
    },
    {
      "channel": 4,
      "note": 78,
      "start": 3.431,
      "duration": 0.0466,
      "velocity": 99,
      "chip": "ym2612"
    },
    {
      "channel": 2,
      "note": 74,
      "start": 3.4327,
      "duration": 0.0744,
      "velocity": 127,
      "chip": "ym2612"
    },
    {
      "channel": 5,
      "note": 42,
      "start": 3.4352,
      "duration": 0.1006,
      "velocity": 127,
      "chip": "ym2612"
    },
    {
      "channel": 2,
      "note": 74,
      "start": 3.5533,
      "duration": 0.0735,
      "velocity": 127,
      "chip": "ym2612"
    },
    {
      "channel": 3,
      "note": 85,
      "start": 3.6574,
      "duration": 0.2006,
      "velocity": 97,
      "chip": "ym2612"
    },
    {
      "channel": 1,
      "note": 90,
      "start": 3.6591,
      "duration": 0.1999,
      "velocity": 97,
      "chip": "ym2612"
    },
    {
      "channel": 4,
      "note": 117,
      "start": 3.6608,
      "duration": 0.0459,
      "velocity": 99,
      "chip": "ym2612"
    },
    {
      "channel": 2,
      "note": 74,
      "start": 3.6623,
      "duration": 0.0674,
      "velocity": 127,
      "chip": "ym2612"
    },
    {
      "channel": 0,
      "note": 45,
      "start": 3.7588,
      "duration": 0.3177,
      "velocity": 107,
      "chip": "ym2612"
    },
    {
      "channel": 2,
      "note": 74,
      "start": 3.7618,
      "duration": 0.0709,
      "velocity": 127,
      "chip": "ym2612"
    },
    {
      "channel": 5,
      "note": 25,
      "start": 3.7642,
      "duration": 0.0686,
      "velocity": 127,
      "chip": "ym2612"
    },
    {
      "channel": 3,
      "note": 81,
      "start": 3.8641,
      "duration": 0.2078,
      "velocity": 97,
      "chip": "ym2612"
    },
    {
      "channel": 1,
      "note": 88,
      "start": 3.8658,
      "duration": 0.2063,
      "velocity": 97,
      "chip": "ym2612"
    },
    {
      "channel": 4,
      "note": 117,
      "start": 3.8676,
      "duration": 0.0446,
      "velocity": 99,
      "chip": "ym2612"
    },
    {
      "channel": 2,
      "note": 74,
      "start": 3.869,
      "duration": 0.0723,
      "velocity": 127,
      "chip": "ym2612"
    },
    {
      "channel": 5,
      "note": 42,
      "start": 3.872,
      "duration": 0.1,
      "velocity": 127,
      "chip": "ym2612"
    },
    {
      "channel": 2,
      "note": 74,
      "start": 3.9707,
      "duration": 0.0735,
      "velocity": 127,
      "chip": "ym2612"
    },
    {
      "channel": 0,
      "note": 45,
      "start": 4.0926,
      "duration": 0.2049,
      "velocity": 107,
      "chip": "ym2612"
    },
    {
      "channel": 3,
      "note": 78,
      "start": 4.0943,
      "duration": 0.2043,
      "velocity": 97,
      "chip": "ym2612"
    },
    {
      "channel": 1,
      "note": 85,
      "start": 4.096,
      "duration": 0.2036,
      "velocity": 97,
      "chip": "ym2612"
    },
    {
      "channel": 4,
      "note": 117,
      "start": 4.0978,
      "duration": 0.0432,
      "velocity": 99,
      "chip": "ym2612"
    },
    {
      "channel": 2,
      "note": 74,
      "start": 4.0992,
      "duration": 0.0708,
      "velocity": 127,
      "chip": "ym2612"
    },
    {
      "channel": 4,
      "note": 117,
      "start": 4.2002,
      "duration": 0.0437,
      "velocity": 99,
      "chip": "ym2612"
    },
    {
      "channel": 2,
      "note": 74,
      "start": 4.2016,
      "duration": 0.072,
      "velocity": 127,
      "chip": "ym2612"
    },
    {
      "channel": 5,
      "note": 25,
      "start": 4.2041,
      "duration": 0.0696,
      "velocity": 127,
      "chip": "ym2612"
    },
    {
      "channel": 0,
      "note": 42,
      "start": 4.3034,
      "duration": 0.3164,
      "velocity": 107,
      "chip": "ym2612"
    },
    {
      "channel": 3,
      "note": 76,
      "start": 4.3056,
      "duration": 0.2117,
      "velocity": 97,
      "chip": "ym2612"
    },
    {
      "channel": 1,
      "note": 81,
      "start": 4.3074,
      "duration": 0.21,
      "velocity": 97,
      "chip": "ym2612"
    },
    {
      "channel": 2,
      "note": 74,
      "start": 4.3097,
      "duration": 0.072,
      "velocity": 127,
      "chip": "ym2612"
    },
    {
      "channel": 5,
      "note": 42,
      "start": 4.3121,
      "duration": 0.0961,
      "velocity": 127,
      "chip": "ym2612"
    },
    {
      "channel": 4,
      "note": 117,
      "start": 4.4122,
      "duration": 0.049,
      "velocity": 99,
      "chip": "ym2612"
    },
    {
      "channel": 2,
      "note": 74,
      "start": 4.4137,
      "duration": 0.0708,
      "velocity": 127,
      "chip": "ym2612"
    },
    {
      "channel": 5,
      "note": 25,
      "start": 4.4161,
      "duration": 0.0686,
      "velocity": 127,
      "chip": "ym2612"
    },
    {
      "channel": 2,
      "note": 74,
      "start": 4.5311,
      "duration": 0.0742,
      "velocity": 127,
      "chip": "ym2612"
    },
    {
      "channel": 0,
      "note": 40,
      "start": 4.6342,
      "duration": 0.3095,
      "velocity": 107,
      "chip": "ym2612"
    },
    {
      "channel": 4,
      "note": 117,
      "start": 4.6368,
      "duration": 0.0474,
      "velocity": 99,
      "chip": "ym2612"
    },
    {
      "channel": 2,
      "note": 74,
      "start": 4.6388,
      "duration": 0.0687,
      "velocity": 127,
      "chip": "ym2612"
    },
    {
      "channel": 5,
      "note": 42,
      "start": 4.6405,
      "duration": 0.0672,
      "velocity": 127,
      "chip": "ym2612"
    },
    {
      "channel": 3,
      "note": 73,
      "start": 4.7395,
      "duration": 0.2052,
      "velocity": 97,
      "chip": "ym2612"
    },
    {
      "channel": 1,
      "note": 78,
      "start": 4.7413,
      "duration": 0.2044,
      "velocity": 97,
      "chip": "ym2612"
    },
    {
      "channel": 4,
      "note": 117,
      "start": 4.743,
      "duration": 0.0498,
      "velocity": 99,
      "chip": "ym2612"
    },
    {
      "channel": 2,
      "note": 74,
      "start": 4.7444,
      "duration": 0.0718,
      "velocity": 127,
      "chip": "ym2612"
    },
    {
      "channel": 5,
      "note": 42,
      "start": 4.7469,
      "duration": 0.0993,
      "velocity": 127,
      "chip": "ym2612"
    },
    {
      "channel": 2,
      "note": 74,
      "start": 4.8456,
      "duration": 0.0735,
      "velocity": 127,
      "chip": "ym2612"
    },
    {
      "channel": 0,
      "note": 40,
      "start": 4.9504,
      "duration": 0.2069,
      "velocity": 107,
      "chip": "ym2612"
    },
    {
      "channel": 3,
      "note": 73,
      "start": 4.9521,
      "duration": 0.2054,
      "velocity": 97,
      "chip": "ym2612"
    },
    {
      "channel": 1,
      "note": 78,
      "start": 4.9538,
      "duration": 0.2037,
      "velocity": 97,
      "chip": "ym2612"
    },
    {
      "channel": 4,
      "note": 117,
      "start": 4.9561,
      "duration": 0.0489,
      "velocity": 99,
      "chip": "ym2612"
    },
    {
      "channel": 2,
      "note": 74,
      "start": 4.9576,
      "duration": 0.0702,
      "velocity": 127,
      "chip": "ym2612"
    },
    {
      "channel": 5,
      "note": 25,
      "start": 4.96,
      "duration": 0.0679,
      "velocity": 127,
      "chip": "ym2612"
    },
    {
      "channel": 2,
      "note": 74,
      "start": 5.0751,
      "duration": 0.0727,
      "velocity": 127,
      "chip": "ym2612"
    },
    {
      "channel": 5,
      "note": 42,
      "start": 5.0776,
      "duration": 0.1006,
      "velocity": 127,
      "chip": "ym2612"
    },
    {
      "channel": 0,
      "note": 42,
      "start": 5.1807,
      "duration": 0.3061,
      "velocity": 107,
      "chip": "ym2612"
    },
    {
      "channel": 3,
      "note": 69,
      "start": 5.1824,
      "duration": 0.2045,
      "velocity": 97,
      "chip": "ym2612"
    },
    {
      "channel": 1,
      "note": 76,
      "start": 5.1841,
      "duration": 0.2029,
      "velocity": 97,
      "chip": "ym2612"
    },
    {
      "channel": 4,
      "note": 117,
      "start": 5.1859,
      "duration": 0.0415,
      "velocity": 99,
      "chip": "ym2612"
    },
    {
      "channel": 2,
      "note": 74,
      "start": 5.1873,
      "duration": 0.0698,
      "velocity": 127,
      "chip": "ym2612"
    },
    {
      "channel": 5,
      "note": 25,
      "start": 5.1895,
      "duration": 0.097,
      "velocity": 127,
      "chip": "ym2612"
    },
    {
      "channel": 2,
      "note": 74,
      "start": 5.2859,
      "duration": 0.0735,
      "velocity": 127,
      "chip": "ym2612"
    },
    {
      "channel": 4,
      "note": 117,
      "start": 5.3887,
      "duration": 0.051,
      "velocity": 99,
      "chip": "ym2612"
    },
    {
      "channel": 2,
      "note": 74,
      "start": 5.3902,
      "duration": 0.0722,
      "velocity": 127,
      "chip": "ym2612"
    },
    {
      "channel": 0,
      "note": 45,
      "start": 5.4914,
      "duration": 0.3177,
      "velocity": 107,
      "chip": "ym2612"
    },
    {
      "channel": 2,
      "note": 74,
      "start": 5.4944,
      "duration": 0.0712,
      "velocity": 127,
      "chip": "ym2612"
    },
    {
      "channel": 5,
      "note": 25,
      "start": 5.4967,
      "duration": 0.069,
      "velocity": 127,
      "chip": "ym2612"
    },
    {
      "channel": 3,
      "note": 73,
      "start": 5.6143,
      "duration": 0.2053,
      "velocity": 97,
      "chip": "ym2612"
    },
    {
      "channel": 1,
      "note": 78,
      "start": 5.616,
      "duration": 0.2046,
      "velocity": 97,
      "chip": "ym2612"
    },
    {
      "channel": 4,
      "note": 117,
      "start": 5.6177,
      "duration": 0.0499,
      "velocity": 99,
      "chip": "ym2612"
    },
    {
      "channel": 2,
      "note": 74,
      "start": 5.6192,
      "duration": 0.0719,
      "velocity": 127,
      "chip": "ym2612"
    },
    {
      "channel": 5,
      "note": 42,
      "start": 5.6222,
      "duration": 0.0996,
      "velocity": 127,
      "chip": "ym2612"
    },
    {
      "channel": 2,
      "note": 74,
      "start": 5.7205,
      "duration": 0.0735,
      "velocity": 127,
      "chip": "ym2612"
    },
    {
      "channel": 0,
      "note": 45,
      "start": 5.8252,
      "duration": 0.2133,
      "velocity": 107,
      "chip": "ym2612"
    },
    {
      "channel": 3,
      "note": 73,
      "start": 5.8269,
      "duration": 0.2117,
      "velocity": 97,
      "chip": "ym2612"
    },
    {
      "channel": 1,
      "note": 78,
      "start": 5.8286,
      "duration": 0.2102,
      "velocity": 97,
      "chip": "ym2612"
    },
    {
      "channel": 4,
      "note": 117,
      "start": 5.8303,
      "duration": 0.0489,
      "velocity": 99,
      "chip": "ym2612"
    },
    {
      "channel": 2,
      "note": 74,
      "start": 5.8318,
      "duration": 0.0709,
      "velocity": 127,
      "chip": "ym2612"
    },
    {
      "channel": 4,
      "note": 117,
      "start": 5.9327,
      "duration": 0.0437,
      "velocity": 99,
      "chip": "ym2612"
    },
    {
      "channel": 2,
      "note": 74,
      "start": 5.9343,
      "duration": 0.0719,
      "velocity": 127,
      "chip": "ym2612"
    },
    {
      "channel": 5,
      "note": 25,
      "start": 5.9367,
      "duration": 0.0697,
      "velocity": 127,
      "chip": "ym2612"
    },
    {
      "channel": 0,
      "note": 42,
      "start": 6.053,
      "duration": 0.2059,
      "velocity": 107,
      "chip": "ym2612"
    },
    {
      "channel": 3,
      "note": 69,
      "start": 6.0553,
      "duration": 0.2046,
      "velocity": 97,
      "chip": "ym2612"
    },
    {
      "channel": 1,
      "note": 76,
      "start": 6.0571,
      "duration": 0.2038,
      "velocity": 97,
      "chip": "ym2612"
    },
    {
      "channel": 2,
      "note": 74,
      "start": 6.0593,
      "duration": 0.072,
      "velocity": 127,
      "chip": "ym2612"
    },
    {
      "channel": 5,
      "note": 42,
      "start": 6.0617,
      "duration": 0.0962,
      "velocity": 127,
      "chip": "ym2612"
    },
    {
      "channel": 4,
      "note": 117,
      "start": 6.162,
      "duration": 0.0489,
      "velocity": 99,
      "chip": "ym2612"
    },
    {
      "channel": 2,
      "note": 74,
      "start": 6.1635,
      "duration": 0.0708,
      "velocity": 127,
      "chip": "ym2612"
    },
    {
      "channel": 5,
      "note": 25,
      "start": 6.1659,
      "duration": 0.0685,
      "velocity": 127,
      "chip": "ym2612"
    },
    {
      "channel": 0,
      "note": 40,
      "start": 6.2638,
      "duration": 0.2008,
      "velocity": 107,
      "chip": "ym2612"
    },
    {
      "channel": 3,
      "note": 73,
      "start": 6.2653,
      "duration": 0.2004,
      "velocity": 97,
      "chip": "ym2612"
    },
    {
      "channel": 1,
      "note": 78,
      "start": 6.267,
      "duration": 0.1998,
      "velocity": 97,
      "chip": "ym2612"
    },
    {
      "channel": 2,
      "note": 74,
      "start": 6.2692,
      "duration": 0.068,
      "velocity": 127,
      "chip": "ym2612"
    },
    {
      "channel": 4,
      "note": 117,
      "start": 6.3674,
      "duration": 0.0494,
      "velocity": 99,
      "chip": "ym2612"
    },
    {
      "channel": 2,
      "note": 74,
      "start": 6.3689,
      "duration": 0.0716,
      "velocity": 127,
      "chip": "ym2612"
    },
    {
      "channel": 5,
      "note": 42,
      "start": 6.3705,
      "duration": 0.0701,
      "velocity": 127,
      "chip": "ym2612"
    },
    {
      "channel": 0,
      "note": 40,
      "start": 6.4722,
      "duration": 0.2118,
      "velocity": 107,
      "chip": "ym2612"
    },
    {
      "channel": 3,
      "note": 76,
      "start": 6.4738,
      "duration": 0.2103,
      "velocity": 97,
      "chip": "ym2612"
    },
    {
      "channel": 1,
      "note": 81,
      "start": 6.4756,
      "duration": 0.2088,
      "velocity": 97,
      "chip": "ym2612"
    },
    {
      "channel": 4,
      "note": 117,
      "start": 6.4773,
      "duration": 0.0481,
      "velocity": 99,
      "chip": "ym2612"
    },
    {
      "channel": 2,
      "note": 74,
      "start": 6.4788,
      "duration": 0.07,
      "velocity": 127,
      "chip": "ym2612"
    },
    {
      "channel": 5,
      "note": 42,
      "start": 6.4813,
      "duration": 0.0966,
      "velocity": 127,
      "chip": "ym2612"
    },
    {
      "channel": 2,
      "note": 74,
      "start": 6.5954,
      "duration": 0.0735,
      "velocity": 127,
      "chip": "ym2612"
    },
    {
      "channel": 3,
      "note": 78,
      "start": 6.6998,
      "duration": 0.2073,
      "velocity": 97,
      "chip": "ym2612"
    },
    {
      "channel": 1,
      "note": 85,
      "start": 6.7015,
      "duration": 0.2068,
      "velocity": 97,
      "chip": "ym2612"
    },
    {
      "channel": 4,
      "note": 117,
      "start": 6.7032,
      "duration": 0.0509,
      "velocity": 99,
      "chip": "ym2612"
    },
    {
      "channel": 2,
      "note": 74,
      "start": 6.7054,
      "duration": 0.0721,
      "velocity": 127,
      "chip": "ym2612"
    },
    {
      "channel": 5,
      "note": 25,
      "start": 6.7078,
      "duration": 0.0699,
      "velocity": 127,
      "chip": "ym2612"
    },
    {
      "channel": 2,
      "note": 74,
      "start": 6.8077,
      "duration": 0.0728,
      "velocity": 127,
      "chip": "ym2612"
    },
    {
      "channel": 5,
      "note": 42,
      "start": 6.8102,
      "duration": 0.1008,
      "velocity": 127,
      "chip": "ym2612"
    },
    {
      "channel": 0,
      "note": 42,
      "start": 6.9135,
      "duration": 0.3137,
      "velocity": 107,
      "chip": "ym2612"
    },
    {
      "channel": 3,
      "note": 81,
      "start": 6.9151,
      "duration": 0.2039,
      "velocity": 97,
      "chip": "ym2612"
    },
    {
      "channel": 1,
      "note": 88,
      "start": 6.9168,
      "duration": 0.2024,
      "velocity": 97,
      "chip": "ym2612"
    },
    {
      "channel": 4,
      "note": 117,
      "start": 6.9186,
      "duration": 0.0414,
      "velocity": 99,
      "chip": "ym2612"
    },
    {
      "channel": 2,
      "note": 74,
      "start": 6.9201,
      "duration": 0.0697,
      "velocity": 127,
      "chip": "ym2612"
    },
    {
      "channel": 5,
      "note": 25,
      "start": 6.9223,
      "duration": 0.0959,
      "velocity": 127,
      "chip": "ym2612"
    },
    {
      "channel": 2,
      "note": 74,
      "start": 7.0357,
      "duration": 0.0735,
      "velocity": 127,
      "chip": "ym2612"
    },
    {
      "channel": 3,
      "note": 86,
      "start": 7.1398,
      "duration": 0.2005,
      "velocity": 97,
      "chip": "ym2612"
    },
    {
      "channel": 1,
      "note": 90,
      "start": 7.1415,
      "duration": 0.1998,
      "velocity": 97,
      "chip": "ym2612"
    },
    {
      "channel": 4,
      "note": 117,
      "start": 7.1432,
      "duration": 0.0462,
      "velocity": 99,
      "chip": "ym2612"
    },
    {
      "channel": 2,
      "note": 74,
      "start": 7.1447,
      "duration": 0.0673,
      "velocity": 127,
      "chip": "ym2612"
    },
    {
      "channel": 0,
      "note": 47,
      "start": 7.2411,
      "duration": 0.3178,
      "velocity": 107,
      "chip": "ym2612"
    },
    {
      "channel": 2,
      "note": 74,
      "start": 7.2442,
      "duration": 0.0708,
      "velocity": 127,
      "chip": "ym2612"
    },
    {
      "channel": 5,
      "note": 25,
      "start": 7.2466,
      "duration": 0.0686,
      "velocity": 127,
      "chip": "ym2612"
    },
    {
      "channel": 3,
      "note": 85,
      "start": 7.3465,
      "duration": 0.2072,
      "velocity": 97,
      "chip": "ym2612"
    },
    {
      "channel": 1,
      "note": 88,
      "start": 7.3482,
      "duration": 0.2056,
      "velocity": 97,
      "chip": "ym2612"
    },
    {
      "channel": 4,
      "note": 117,
      "start": 7.3499,
      "duration": 0.0446,
      "velocity": 99,
      "chip": "ym2612"
    },
    {
      "channel": 2,
      "note": 74,
      "start": 7.3515,
      "duration": 0.0724,
      "velocity": 127,
      "chip": "ym2612"
    },
    {
      "channel": 5,
      "note": 42,
      "start": 7.3538,
      "duration": 0.0999,
      "velocity": 127,
      "chip": "ym2612"
    },
    {
      "channel": 2,
      "note": 74,
      "start": 7.453,
      "duration": 0.0735,
      "velocity": 127,
      "chip": "ym2612"
    },
    {
      "channel": 0,
      "note": 47,
      "start": 7.575,
      "duration": 0.2049,
      "velocity": 107,
      "chip": "ym2612"
    },
    {
      "channel": 3,
      "note": 83,
      "start": 7.5766,
      "duration": 0.2043,
      "velocity": 97,
      "chip": "ym2612"
    },
    {
      "channel": 1,
      "note": 86,
      "start": 7.5784,
      "duration": 0.2037,
      "velocity": 97,
      "chip": "ym2612"
    },
    {
      "channel": 4,
      "note": 117,
      "start": 7.5801,
      "duration": 0.0433,
      "velocity": 99,
      "chip": "ym2612"
    },
    {
      "channel": 2,
      "note": 74,
      "start": 7.5816,
      "duration": 0.0708,
      "velocity": 127,
      "chip": "ym2612"
    },
    {
      "channel": 4,
      "note": 117,
      "start": 7.6825,
      "duration": 0.0437,
      "velocity": 99,
      "chip": "ym2612"
    },
    {
      "channel": 2,
      "note": 74,
      "start": 7.684,
      "duration": 0.0719,
      "velocity": 127,
      "chip": "ym2612"
    },
    {
      "channel": 5,
      "note": 25,
      "start": 7.6864,
      "duration": 0.0697,
      "velocity": 127,
      "chip": "ym2612"
    },
    {
      "channel": 0,
      "note": 42,
      "start": 7.7858,
      "duration": 0.3163,
      "velocity": 107,
      "chip": "ym2612"
    },
    {
      "channel": 3,
      "note": 78,
      "start": 7.7875,
      "duration": 0.2121,
      "velocity": 97,
      "chip": "ym2612"
    },
    {
      "channel": 1,
      "note": 83,
      "start": 7.7899,
      "duration": 0.21,
      "velocity": 97,
      "chip": "ym2612"
    },
    {
      "channel": 2,
      "note": 74,
      "start": 7.7921,
      "duration": 0.0719,
      "velocity": 127,
      "chip": "ym2612"
    },
    {
      "channel": 5,
      "note": 42,
      "start": 7.7945,
      "duration": 0.096,
      "velocity": 127,
      "chip": "ym2612"
    },
    {
      "channel": 4,
      "note": 117,
      "start": 7.8946,
      "duration": 0.0489,
      "velocity": 99,
      "chip": "ym2612"
    },
    {
      "channel": 2,
      "note": 74,
      "start": 7.896,
      "duration": 0.0709,
      "velocity": 127,
      "chip": "ym2612"
    },
    {
      "channel": 5,
      "note": 25,
      "start": 7.8985,
      "duration": 0.0686,
      "velocity": 127,
      "chip": "ym2612"
    },
    {
      "channel": 2,
      "note": 74,
      "start": 8.0135,
      "duration": 0.0735,
      "velocity": 127,
      "chip": "ym2612"
    },
    {
      "channel": 0,
      "note": 40,
      "start": 8.1166,
      "duration": 0.3095,
      "velocity": 107,
      "chip": "ym2612"
    },
    {
      "channel": 4,
      "note": 117,
      "start": 8.1191,
      "duration": 0.0475,
      "velocity": 99,
      "chip": "ym2612"
    },
    {
      "channel": 2,
      "note": 74,
      "start": 8.1206,
      "duration": 0.0699,
      "velocity": 127,
      "chip": "ym2612"
    },
    {
      "channel": 5,
      "note": 42,
      "start": 8.1228,
      "duration": 0.0678,
      "velocity": 127,
      "chip": "ym2612"
    },
    {
      "channel": 3,
      "note": 74,
      "start": 8.2219,
      "duration": 0.2051,
      "velocity": 97,
      "chip": "ym2612"
    },
    {
      "channel": 1,
      "note": 78,
      "start": 8.2237,
      "duration": 0.2044,
      "velocity": 97,
      "chip": "ym2612"
    },
    {
      "channel": 4,
      "note": 117,
      "start": 8.2254,
      "duration": 0.0498,
      "velocity": 99,
      "chip": "ym2612"
    },
    {
      "channel": 2,
      "note": 74,
      "start": 8.2268,
      "duration": 0.0717,
      "velocity": 127,
      "chip": "ym2612"
    },
    {
      "channel": 5,
      "note": 42,
      "start": 8.2293,
      "duration": 0.0993,
      "velocity": 127,
      "chip": "ym2612"
    },
    {
      "channel": 2,
      "note": 74,
      "start": 8.3279,
      "duration": 0.0735,
      "velocity": 127,
      "chip": "ym2612"
    },
    {
      "channel": 0,
      "note": 40,
      "start": 8.4327,
      "duration": 0.2069,
      "velocity": 107,
      "chip": "ym2612"
    },
    {
      "channel": 3,
      "note": 74,
      "start": 8.4345,
      "duration": 0.2053,
      "velocity": 97,
      "chip": "ym2612"
    },
    {
      "channel": 1,
      "note": 78,
      "start": 8.4362,
      "duration": 0.2037,
      "velocity": 97,
      "chip": "ym2612"
    },
    {
      "channel": 4,
      "note": 117,
      "start": 8.4385,
      "duration": 0.0482,
      "velocity": 99,
      "chip": "ym2612"
    },
    {
      "channel": 2,
      "note": 74,
      "start": 8.44,
      "duration": 0.0701,
      "velocity": 127,
      "chip": "ym2612"
    },
    {
      "channel": 5,
      "note": 25,
      "start": 8.4424,
      "duration": 0.0679,
      "velocity": 127,
      "chip": "ym2612"
    },
    {
      "channel": 2,
      "note": 74,
      "start": 8.5575,
      "duration": 0.0727,
      "velocity": 127,
      "chip": "ym2612"
    },
    {
      "channel": 5,
      "note": 42,
      "start": 8.5599,
      "duration": 0.1003,
      "velocity": 127,
      "chip": "ym2612"
    },
    {
      "channel": 0,
      "note": 42,
      "start": 8.6627,
      "duration": 0.3065,
      "velocity": 107,
      "chip": "ym2612"
    },
    {
      "channel": 3,
      "note": 71,
      "start": 8.6644,
      "duration": 0.2048,
      "velocity": 97,
      "chip": "ym2612"
    },
    {
      "channel": 1,
      "note": 76,
      "start": 8.6661,
      "duration": 0.2032,
      "velocity": 97,
      "chip": "ym2612"
    },
    {
      "channel": 4,
      "note": 117,
      "start": 8.6679,
      "duration": 0.0419,
      "velocity": 99,
      "chip": "ym2612"
    },
    {
      "channel": 2,
      "note": 74,
      "start": 8.6693,
      "duration": 0.0702,
      "velocity": 127,
      "chip": "ym2612"
    },
    {
      "channel": 5,
      "note": 25,
      "start": 8.6712,
      "duration": 0.0977,
      "velocity": 127,
      "chip": "ym2612"
    },
    {
      "channel": 2,
      "note": 74,
      "start": 8.7682,
      "duration": 0.0735,
      "velocity": 127,
      "chip": "ym2612"
    },
    {
      "channel": 4,
      "note": 117,
      "start": 8.8704,
      "duration": 0.0515,
      "velocity": 99,
      "chip": "ym2612"
    },
    {
      "channel": 2,
      "note": 74,
      "start": 8.8725,
      "duration": 0.0722,
      "velocity": 127,
      "chip": "ym2612"
    },
    {
      "channel": 0,
      "note": 47,
      "start": 8.9737,
      "duration": 0.3177,
      "velocity": 107,
      "chip": "ym2612"
    },
    {
      "channel": 2,
      "note": 74,
      "start": 8.9768,
      "duration": 0.0712,
      "velocity": 127,
      "chip": "ym2612"
    },
    {
      "channel": 5,
      "note": 25,
      "start": 8.9791,
      "duration": 0.069,
      "velocity": 127,
      "chip": "ym2612"
    },
    {
      "channel": 3,
      "note": 74,
      "start": 9.0966,
      "duration": 0.2053,
      "velocity": 97,
      "chip": "ym2612"
    },
    {
      "channel": 1,
      "note": 78,
      "start": 9.0983,
      "duration": 0.2046,
      "velocity": 97,
      "chip": "ym2612"
    },
    {
      "channel": 4,
      "note": 117,
      "start": 9.1,
      "duration": 0.05,
      "velocity": 99,
      "chip": "ym2612"
    },
    {
      "channel": 2,
      "note": 74,
      "start": 9.1015,
      "duration": 0.0723,
      "velocity": 127,
      "chip": "ym2612"
    },
    {
      "channel": 5,
      "note": 42,
      "start": 9.1039,
      "duration": 0.0996,
      "velocity": 127,
      "chip": "ym2612"
    },
    {
      "channel": 2,
      "note": 74,
      "start": 9.2029,
      "duration": 0.0735,
      "velocity": 127,
      "chip": "ym2612"
    },
    {
      "channel": 0,
      "note": 47,
      "start": 9.3076,
      "duration": 0.2127,
      "velocity": 107,
      "chip": "ym2612"
    },
    {
      "channel": 3,
      "note": 74,
      "start": 9.3093,
      "duration": 0.2111,
      "velocity": 97,
      "chip": "ym2612"
    },
    {
      "channel": 1,
      "note": 78,
      "start": 9.311,
      "duration": 0.2095,
      "velocity": 97,
      "chip": "ym2612"
    },
    {
      "channel": 4,
      "note": 117,
      "start": 9.3127,
      "duration": 0.0489,
      "velocity": 99,
      "chip": "ym2612"
    },
    {
      "channel": 2,
      "note": 74,
      "start": 9.3142,
      "duration": 0.0708,
      "velocity": 127,
      "chip": "ym2612"
    },
    {
      "channel": 4,
      "note": 117,
      "start": 9.4151,
      "duration": 0.0437,
      "velocity": 99,
      "chip": "ym2612"
    },
    {
      "channel": 2,
      "note": 74,
      "start": 9.4166,
      "duration": 0.0719,
      "velocity": 127,
      "chip": "ym2612"
    },
    {
      "channel": 5,
      "note": 25,
      "start": 9.4191,
      "duration": 0.0696,
      "velocity": 127,
      "chip": "ym2612"
    },
    {
      "channel": 0,
      "note": 42,
      "start": 9.5355,
      "duration": 0.2063,
      "velocity": 107,
      "chip": "ym2612"
    },
    {
      "channel": 3,
      "note": 71,
      "start": 9.5372,
      "duration": 0.2056,
      "velocity": 97,
      "chip": "ym2612"
    },
    {
      "channel": 1,
      "note": 76,
      "start": 9.5395,
      "duration": 0.2043,
      "velocity": 97,
      "chip": "ym2612"
    },
    {
      "channel": 2,
      "note": 74,
      "start": 9.5418,
      "duration": 0.072,
      "velocity": 127,
      "chip": "ym2612"
    },
    {
      "channel": 5,
      "note": 42,
      "start": 9.5443,
      "duration": 0.096,
      "velocity": 127,
      "chip": "ym2612"
    },
    {
      "channel": 4,
      "note": 117,
      "start": 9.6443,
      "duration": 0.0489,
      "velocity": 99,
      "chip": "ym2612"
    },
    {
      "channel": 2,
      "note": 74,
      "start": 9.6458,
      "duration": 0.0709,
      "velocity": 127,
      "chip": "ym2612"
    },
    {
      "channel": 5,
      "note": 25,
      "start": 9.6482,
      "duration": 0.0686,
      "velocity": 127,
      "chip": "ym2612"
    },
    {
      "channel": 0,
      "note": 40,
      "start": 9.7467,
      "duration": 0.2003,
      "velocity": 107,
      "chip": "ym2612"
    },
    {
      "channel": 3,
      "note": 74,
      "start": 9.7481,
      "duration": 0.1999,
      "velocity": 97,
      "chip": "ym2612"
    },
    {
      "channel": 1,
      "note": 78,
      "start": 9.7499,
      "duration": 0.1992,
      "velocity": 97,
      "chip": "ym2612"
    },
    {
      "channel": 2,
      "note": 74,
      "start": 9.7521,
      "duration": 0.0675,
      "velocity": 127,
      "chip": "ym2612"
    },
    {
      "channel": 4,
      "note": 117,
      "start": 9.8497,
      "duration": 0.0494,
      "velocity": 99,
      "chip": "ym2612"
    },
    {
      "channel": 2,
      "note": 74,
      "start": 9.8512,
      "duration": 0.0718,
      "velocity": 127,
      "chip": "ym2612"
    },
    {
      "channel": 5,
      "note": 42,
      "start": 9.8529,
      "duration": 0.0704,
      "velocity": 127,
      "chip": "ym2612"
    },
    {
      "channel": 0,
      "note": 40,
      "start": 9.9539,
      "duration": 0.2125,
      "velocity": 107,
      "chip": "ym2612"
    },
    {
      "channel": 3,
      "note": 78,
      "start": 9.9561,
      "duration": 0.2104,
      "velocity": 97,
      "chip": "ym2612"
    },
    {
      "channel": 1,
      "note": 80,
      "start": 9.9579,
      "duration": 0.2087,
      "velocity": 97,
      "chip": "ym2612"
    },
    {
      "channel": 4,
      "note": 117,
      "start": 9.9597,
      "duration": 0.0481,
      "velocity": 99,
      "chip": "ym2612"
    },
    {
      "channel": 2,
      "note": 74,
      "start": 9.9611,
      "duration": 0.07,
      "velocity": 127,
      "chip": "ym2612"
    },
    {
      "channel": 5,
      "note": 42,
      "start": 9.9636,
      "duration": 0.0966,
      "velocity": 127,
      "chip": "ym2612"
    },
    {
      "channel": 2,
      "note": 74,
      "start": 10.0777,
      "duration": 0.0735,
      "velocity": 127,
      "chip": "ym2612"
    },
    {
      "channel": 3,
      "note": 80,
      "start": 10.1822,
      "duration": 0.2071,
      "velocity": 97,
      "chip": "ym2612"
    },
    {
      "channel": 1,
      "note": 83,
      "start": 10.1839,
      "duration": 0.2066,
      "velocity": 97,
      "chip": "ym2612"
    },
    {
      "channel": 4,
      "note": 117,
      "start": 10.1856,
      "duration": 0.0509,
      "velocity": 99,
      "chip": "ym2612"
    },
    {
      "channel": 2,
      "note": 74,
      "start": 10.1871,
      "duration": 0.0727,
      "velocity": 127,
      "chip": "ym2612"
    },
    {
      "channel": 5,
      "note": 25,
      "start": 10.1901,
      "duration": 0.0698,
      "velocity": 127,
      "chip": "ym2612"
    },
    {
      "channel": 2,
      "note": 74,
      "start": 10.2901,
      "duration": 0.0727,
      "velocity": 127,
      "chip": "ym2612"
    },
    {
      "channel": 5,
      "note": 42,
      "start": 10.2925,
      "duration": 0.1006,
      "velocity": 127,
      "chip": "ym2612"
    },
    {
      "channel": 0,
      "note": 42,
      "start": 10.3957,
      "duration": 0.3139,
      "velocity": 107,
      "chip": "ym2612"
    },
    {
      "channel": 3,
      "note": 83,
      "start": 10.3973,
      "duration": 0.2098,
      "velocity": 97,
      "chip": "ym2612"
    },
    {
      "channel": 1,
      "note": 86,
      "start": 10.399,
      "duration": 0.2083,
      "velocity": 97,
      "chip": "ym2612"
    },
    {
      "channel": 4,
      "note": 117,
      "start": 10.4007,
      "duration": 0.0473,
      "velocity": 99,
      "chip": "ym2612"
    },
    {
      "channel": 2,
      "note": 74,
      "start": 10.4023,
      "duration": 0.0698,
      "velocity": 127,
      "chip": "ym2612"
    },
    {
      "channel": 5,
      "note": 25,
      "start": 10.4039,
      "duration": 0.0966,
      "velocity": 127,
      "chip": "ym2612"
    },
    {
      "channel": 2,
      "note": 74,
      "start": 10.518,
      "duration": 0.0735,
      "velocity": 127,
      "chip": "ym2612"
    },
    {
      "channel": 3,
      "note": 86,
      "start": 10.6221,
      "duration": 0.2005,
      "velocity": 97,
      "chip": "ym2612"
    },
    {
      "channel": 1,
      "note": 90,
      "start": 10.6238,
      "duration": 0.1999,
      "velocity": 97,
      "chip": "ym2612"
    },
    {
      "channel": 4,
      "note": 117,
      "start": 10.6255,
      "duration": 0.0462,
      "velocity": 99,
      "chip": "ym2612"
    },
    {
      "channel": 2,
      "note": 74,
      "start": 10.627,
      "duration": 0.0674,
      "velocity": 127,
      "chip": "ym2612"
    },
    {
      "channel": 0,
      "note": 47,
      "start": 10.7235,
      "duration": 0.3177,
      "velocity": 107,
      "chip": "ym2612"
    },
    {
      "channel": 2,
      "note": 74,
      "start": 10.7265,
      "duration": 0.0709,
      "velocity": 127,
      "chip": "ym2612"
    },
    {
      "channel": 5,
      "note": 25,
      "start": 10.7289,
      "duration": 0.0686,
      "velocity": 127,
      "chip": "ym2612"
    },
    {
      "channel": 3,
      "note": 85,
      "start": 10.8288,
      "duration": 0.2072,
      "velocity": 97,
      "chip": "ym2612"
    },
    {
      "channel": 1,
      "note": 88,
      "start": 10.8305,
      "duration": 0.2057,
      "velocity": 97,
      "chip": "ym2612"
    },
    {
      "channel": 4,
      "note": 117,
      "start": 10.8322,
      "duration": 0.0446,
      "velocity": 99,
      "chip": "ym2612"
    },
    {
      "channel": 2,
      "note": 74,
      "start": 10.8338,
      "duration": 0.0729,
      "velocity": 127,
      "chip": "ym2612"
    },
    {
      "channel": 5,
      "note": 42,
      "start": 10.8361,
      "duration": 0.0999,
      "velocity": 127,
      "chip": "ym2612"
    },
    {
      "channel": 2,
      "note": 74,
      "start": 10.9354,
      "duration": 0.0735,
      "velocity": 127,
      "chip": "ym2612"
    },
    {
      "channel": 0,
      "note": 47,
      "start": 11.0573,
      "duration": 0.2049,
      "velocity": 107,
      "chip": "ym2612"
    },
    {
      "channel": 3,
      "note": 83,
      "start": 11.059,
      "duration": 0.2043,
      "velocity": 97,
      "chip": "ym2612"
    },
    {
      "channel": 1,
      "note": 86,
      "start": 11.0607,
      "duration": 0.2037,
      "velocity": 97,
      "chip": "ym2612"
    },
    {
      "channel": 4,
      "note": 117,
      "start": 11.0624,
      "duration": 0.0438,
      "velocity": 99,
      "chip": "ym2612"
    },
    {
      "channel": 2,
      "note": 74,
      "start": 11.0639,
      "duration": 0.0708,
      "velocity": 127,
      "chip": "ym2612"
    },
    {
      "channel": 4,
      "note": 117,
      "start": 11.1649,
      "duration": 0.0437,
      "velocity": 99,
      "chip": "ym2612"
    },
    {
      "channel": 2,
      "note": 74,
      "start": 11.1663,
      "duration": 0.072,
      "velocity": 127,
      "chip": "ym2612"
    },
    {
      "channel": 5,
      "note": 25,
      "start": 11.1688,
      "duration": 0.0696,
      "velocity": 127,
      "chip": "ym2612"
    },
    {
      "channel": 0,
      "note": 42,
      "start": 11.2682,
      "duration": 0.3163,
      "velocity": 107,
      "chip": "ym2612"
    },
    {
      "channel": 3,
      "note": 78,
      "start": 11.2698,
      "duration": 0.2122,
      "velocity": 97,
      "chip": "ym2612"
    },
    {
      "channel": 1,
      "note": 83,
      "start": 11.2722,
      "duration": 0.2099,
      "velocity": 97,
      "chip": "ym2612"
    },
    {
      "channel": 2,
      "note": 74,
      "start": 11.2745,
      "duration": 0.0718,
      "velocity": 127,
      "chip": "ym2612"
    },
    {
      "channel": 5,
      "note": 42,
      "start": 11.2769,
      "duration": 0.0959,
      "velocity": 127,
      "chip": "ym2612"
    },
    {
      "channel": 4,
      "note": 117,
      "start": 11.3769,
      "duration": 0.049,
      "velocity": 99,
      "chip": "ym2612"
    },
    {
      "channel": 2,
      "note": 74,
      "start": 11.3784,
      "duration": 0.0709,
      "velocity": 127,
      "chip": "ym2612"
    },
    {
      "channel": 5,
      "note": 25,
      "start": 11.3808,
      "duration": 0.0686,
      "velocity": 127,
      "chip": "ym2612"
    },
    {
      "channel": 2,
      "note": 74,
      "start": 11.4959,
      "duration": 0.0734,
      "velocity": 127,
      "chip": "ym2612"
    },
    {
      "channel": 0,
      "note": 40,
      "start": 11.5989,
      "duration": 0.3099,
      "velocity": 107,
      "chip": "ym2612"
    },
    {
      "channel": 4,
      "note": 117,
      "start": 11.6015,
      "duration": 0.0474,
      "velocity": 99,
      "chip": "ym2612"
    },
    {
      "channel": 2,
      "note": 74,
      "start": 11.6029,
      "duration": 0.07,
      "velocity": 127,
      "chip": "ym2612"
    },
    {
      "channel": 5,
      "note": 42,
      "start": 11.6051,
      "duration": 0.0679,
      "velocity": 127,
      "chip": "ym2612"
    },
    {
      "channel": 3,
      "note": 74,
      "start": 11.7036,
      "duration": 0.2063,
      "velocity": 97,
      "chip": "ym2612"
    },
    {
      "channel": 1,
      "note": 78,
      "start": 11.706,
      "duration": 0.205,
      "velocity": 97,
      "chip": "ym2612"
    },
    {
      "channel": 4,
      "note": 117,
      "start": 11.7077,
      "duration": 0.0498,
      "velocity": 99,
      "chip": "ym2612"
    },
    {
      "channel": 2,
      "note": 74,
      "start": 11.7091,
      "duration": 0.0718,
      "velocity": 127,
      "chip": "ym2612"
    },
    {
      "channel": 5,
      "note": 42,
      "start": 11.7116,
      "duration": 0.0993,
      "velocity": 127,
      "chip": "ym2612"
    },
    {
      "channel": 2,
      "note": 74,
      "start": 11.8103,
      "duration": 0.0735,
      "velocity": 127,
      "chip": "ym2612"
    },
    {
      "channel": 0,
      "note": 40,
      "start": 11.9156,
      "duration": 0.2063,
      "velocity": 107,
      "chip": "ym2612"
    },
    {
      "channel": 3,
      "note": 74,
      "start": 11.9172,
      "duration": 0.2049,
      "velocity": 97,
      "chip": "ym2612"
    },
    {
      "channel": 1,
      "note": 78,
      "start": 11.919,
      "duration": 0.2032,
      "velocity": 97,
      "chip": "ym2612"
    },
    {
      "channel": 4,
      "note": 117,
      "start": 11.9207,
      "duration": 0.0426,
      "velocity": 99,
      "chip": "ym2612"
    },
    {
      "channel": 2,
      "note": 74,
      "start": 11.9228,
      "duration": 0.0696,
      "velocity": 127,
      "chip": "ym2612"
    },
    {
      "channel": 5,
      "note": 25,
      "start": 11.9252,
      "duration": 0.0674,
      "velocity": 127,
      "chip": "ym2612"
    },
    {
      "channel": 2,
      "note": 74,
      "start": 12.0398,
      "duration": 0.0727,
      "velocity": 127,
      "chip": "ym2612"
    },
    {
      "channel": 5,
      "note": 42,
      "start": 12.0423,
      "duration": 0.1002,
      "velocity": 127,
      "chip": "ym2612"
    },
    {
      "channel": 0,
      "note": 42,
      "start": 12.1451,
      "duration": 0.3064,
      "velocity": 107,
      "chip": "ym2612"
    },
    {
      "channel": 3,
      "note": 71,
      "start": 12.1467,
      "duration": 0.2048,
      "velocity": 97,
      "chip": "ym2612"
    },
    {
      "channel": 1,
      "note": 76,
      "start": 12.1485,
      "duration": 0.2032,
      "velocity": 97,
      "chip": "ym2612"
    },
    {
      "channel": 4,
      "note": 117,
      "start": 12.1502,
      "duration": 0.0418,
      "velocity": 99,
      "chip": "ym2612"
    },
    {
      "channel": 2,
      "note": 74,
      "start": 12.1517,
      "duration": 0.0701,
      "velocity": 127,
      "chip": "ym2612"
    },
    {
      "channel": 5,
      "note": 25,
      "start": 12.1533,
      "duration": 0.0979,
      "velocity": 127,
      "chip": "ym2612"
    },
    {
      "channel": 2,
      "note": 74,
      "start": 12.2506,
      "duration": 0.0735,
      "velocity": 127,
      "chip": "ym2612"
    },
    {
      "channel": 4,
      "note": 117,
      "start": 12.3527,
      "duration": 0.051,
      "velocity": 99,
      "chip": "ym2612"
    },
    {
      "channel": 2,
      "note": 74,
      "start": 12.3544,
      "duration": 0.0726,
      "velocity": 127,
      "chip": "ym2612"
    },
    {
      "channel": 0,
      "note": 47,
      "start": 12.4561,
      "duration": 0.3177,
      "velocity": 107,
      "chip": "ym2612"
    },
    {
      "channel": 2,
      "note": 74,
      "start": 12.4591,
      "duration": 0.0712,
      "velocity": 127,
      "chip": "ym2612"
    },
    {
      "channel": 5,
      "note": 25,
      "start": 12.4614,
      "duration": 0.069,
      "velocity": 127,
      "chip": "ym2612"
    },
    {
      "channel": 3,
      "note": 74,
      "start": 12.579,
      "duration": 0.2053,
      "velocity": 97,
      "chip": "ym2612"
    },
    {
      "channel": 1,
      "note": 78,
      "start": 12.5807,
      "duration": 0.2046,
      "velocity": 97,
      "chip": "ym2612"
    },
    {
      "channel": 4,
      "note": 117,
      "start": 12.5824,
      "duration": 0.0442,
      "velocity": 99,
      "chip": "ym2612"
    },
    {
      "channel": 2,
      "note": 74,
      "start": 12.5839,
      "duration": 0.0725,
      "velocity": 127,
      "chip": "ym2612"
    },
    {
      "channel": 5,
      "note": 42,
      "start": 12.5862,
      "duration": 0.0996,
      "velocity": 127,
      "chip": "ym2612"
    },
    {
      "channel": 2,
      "note": 74,
      "start": 12.6852,
      "duration": 0.0735,
      "velocity": 127,
      "chip": "ym2612"
    },
    {
      "channel": 0,
      "note": 47,
      "start": 12.7899,
      "duration": 0.2127,
      "velocity": 107,
      "chip": "ym2612"
    },
    {
      "channel": 3,
      "note": 74,
      "start": 12.7916,
      "duration": 0.2111,
      "velocity": 97,
      "chip": "ym2612"
    },
    {
      "channel": 1,
      "note": 78,
      "start": 12.7933,
      "duration": 0.2095,
      "velocity": 97,
      "chip": "ym2612"
    },
    {
      "channel": 4,
      "note": 117,
      "start": 12.795,
      "duration": 0.0489,
      "velocity": 99,
      "chip": "ym2612"
    },
    {
      "channel": 2,
      "note": 74,
      "start": 12.7965,
      "duration": 0.0709,
      "velocity": 127,
      "chip": "ym2612"
    },
    {
      "channel": 4,
      "note": 117,
      "start": 12.8978,
      "duration": 0.0433,
      "velocity": 99,
      "chip": "ym2612"
    },
    {
      "channel": 2,
      "note": 74,
      "start": 12.8993,
      "duration": 0.0709,
      "velocity": 127,
      "chip": "ym2612"
    },
    {
      "channel": 5,
      "note": 25,
      "start": 12.9018,
      "duration": 0.0686,
      "velocity": 127,
      "chip": "ym2612"
    },
    {
      "channel": 0,
      "note": 42,
      "start": 13.0179,
      "duration": 0.2062,
      "velocity": 107,
      "chip": "ym2612"
    },
    {
      "channel": 3,
      "note": 71,
      "start": 13.0196,
      "duration": 0.2056,
      "velocity": 97,
      "chip": "ym2612"
    },
    {
      "channel": 1,
      "note": 76,
      "start": 13.0219,
      "duration": 0.2043,
      "velocity": 97,
      "chip": "ym2612"
    },
    {
      "channel": 2,
      "note": 74,
      "start": 13.0241,
      "duration": 0.0719,
      "velocity": 127,
      "chip": "ym2612"
    },
    {
      "channel": 5,
      "note": 42,
      "start": 13.0266,
      "duration": 0.096,
      "velocity": 127,
      "chip": "ym2612"
    },
    {
      "channel": 4,
      "note": 117,
      "start": 13.1266,
      "duration": 0.049,
      "velocity": 99,
      "chip": "ym2612"
    },
    {
      "channel": 2,
      "note": 74,
      "start": 13.1281,
      "duration": 0.0709,
      "velocity": 127,
      "chip": "ym2612"
    },
    {
      "channel": 5,
      "note": 25,
      "start": 13.1305,
      "duration": 0.0686,
      "velocity": 127,
      "chip": "ym2612"
    },
    {
      "channel": 0,
      "note": 40,
      "start": 13.229,
      "duration": 0.2003,
      "velocity": 107,
      "chip": "ym2612"
    },
    {
      "channel": 3,
      "note": 74,
      "start": 13.2305,
      "duration": 0.1999,
      "velocity": 97,
      "chip": "ym2612"
    },
    {
      "channel": 1,
      "note": 78,
      "start": 13.2322,
      "duration": 0.1992,
      "velocity": 97,
      "chip": "ym2612"
    },
    {
      "channel": 2,
      "note": 74,
      "start": 13.2345,
      "duration": 0.0674,
      "velocity": 127,
      "chip": "ym2612"
    },
    {
      "channel": 4,
      "note": 117,
      "start": 13.3321,
      "duration": 0.0494,
      "velocity": 99,
      "chip": "ym2612"
    },
    {
      "channel": 2,
      "note": 74,
      "start": 13.3336,
      "duration": 0.0718,
      "velocity": 127,
      "chip": "ym2612"
    },
    {
      "channel": 5,
      "note": 42,
      "start": 13.3352,
      "duration": 0.0703,
      "velocity": 127,
      "chip": "ym2612"
    },
    {
      "channel": 0,
      "note": 40,
      "start": 13.4362,
      "duration": 0.2125,
      "velocity": 107,
      "chip": "ym2612"
    },
    {
      "channel": 3,
      "note": 78,
      "start": 13.4385,
      "duration": 0.2103,
      "velocity": 97,
      "chip": "ym2612"
    },
    {
      "channel": 1,
      "note": 80,
      "start": 13.4402,
      "duration": 0.2088,
      "velocity": 97,
      "chip": "ym2612"
    },
    {
      "channel": 4,
      "note": 117,
      "start": 13.442,
      "duration": 0.0481,
      "velocity": 99,
      "chip": "ym2612"
    },
    {
      "channel": 2,
      "note": 74,
      "start": 13.4435,
      "duration": 0.07,
      "velocity": 127,
      "chip": "ym2612"
    },
    {
      "channel": 5,
      "note": 42,
      "start": 13.446,
      "duration": 0.0966,
      "velocity": 127,
      "chip": "ym2612"
    },
    {
      "channel": 2,
      "note": 74,
      "start": 13.56,
      "duration": 0.0735,
      "velocity": 127,
      "chip": "ym2612"
    },
    {
      "channel": 3,
      "note": 80,
      "start": 13.6652,
      "duration": 0.2066,
      "velocity": 97,
      "chip": "ym2612"
    },
    {
      "channel": 1,
      "note": 83,
      "start": 13.6669,
      "duration": 0.2061,
      "velocity": 97,
      "chip": "ym2612"
    },
    {
      "channel": 4,
      "note": 117,
      "start": 13.6686,
      "duration": 0.0502,
      "velocity": 99,
      "chip": "ym2612"
    },
    {
      "channel": 2,
      "note": 74,
      "start": 13.6702,
      "duration": 0.0721,
      "velocity": 127,
      "chip": "ym2612"
    },
    {
      "channel": 5,
      "note": 25,
      "start": 13.6731,
      "duration": 0.0692,
      "velocity": 127,
      "chip": "ym2612"
    },
    {
      "channel": 2,
      "note": 74,
      "start": 13.7724,
      "duration": 0.0727,
      "velocity": 127,
      "chip": "ym2612"
    },
    {
      "channel": 5,
      "note": 42,
      "start": 13.7749,
      "duration": 0.1008,
      "velocity": 127,
      "chip": "ym2612"
    },
    {
      "channel": 0,
      "note": 42,
      "start": 13.8782,
      "duration": 0.3137,
      "velocity": 107,
      "chip": "ym2612"
    },
    {
      "channel": 3,
      "note": 83,
      "start": 13.8798,
      "duration": 0.2097,
      "velocity": 97,
      "chip": "ym2612"
    },
    {
      "channel": 1,
      "note": 86,
      "start": 13.8815,
      "duration": 0.2081,
      "velocity": 97,
      "chip": "ym2612"
    },
    {
      "channel": 4,
      "note": 117,
      "start": 13.8833,
      "duration": 0.0471,
      "velocity": 99,
      "chip": "ym2612"
    },
    {
      "channel": 2,
      "note": 74,
      "start": 13.8848,
      "duration": 0.069,
      "velocity": 127,
      "chip": "ym2612"
    },
    {
      "channel": 5,
      "note": 25,
      "start": 13.8864,
      "duration": 0.0965,
      "velocity": 127,
      "chip": "ym2612"
    },
    {
      "channel": 2,
      "note": 74,
      "start": 14.0003,
      "duration": 0.0736,
      "velocity": 127,
      "chip": "ym2612"
    },
    {
      "channel": 3,
      "note": 85,
      "start": 14.1038,
      "duration": 0.2011,
      "velocity": 97,
      "chip": "ym2612"
    },
    {
      "channel": 1,
      "note": 90,
      "start": 14.1061,
      "duration": 0.1998,
      "velocity": 97,
      "chip": "ym2612"
    },
    {
      "channel": 4,
      "note": 117,
      "start": 14.1079,
      "duration": 0.0456,
      "velocity": 99,
      "chip": "ym2612"
    },
    {
      "channel": 2,
      "note": 74,
      "start": 14.1094,
      "duration": 0.0673,
      "velocity": 127,
      "chip": "ym2612"
    },
    {
      "channel": 0,
      "note": 45,
      "start": 14.2058,
      "duration": 0.3178,
      "velocity": 107,
      "chip": "ym2612"
    },
    {
      "channel": 2,
      "note": 74,
      "start": 14.2089,
      "duration": 0.0708,
      "velocity": 127,
      "chip": "ym2612"
    },
    {
      "channel": 5,
      "note": 25,
      "start": 14.2112,
      "duration": 0.0686,
      "velocity": 127,
      "chip": "ym2612"
    },
    {
      "channel": 3,
      "note": 81,
      "start": 14.3112,
      "duration": 0.2072,
      "velocity": 97,
      "chip": "ym2612"
    },
    {
      "channel": 1,
      "note": 88,
      "start": 14.3129,
      "duration": 0.2056,
      "velocity": 97,
      "chip": "ym2612"
    },
    {
      "channel": 4,
      "note": 117,
      "start": 14.3146,
      "duration": 0.0446,
      "velocity": 99,
      "chip": "ym2612"
    },
    {
      "channel": 2,
      "note": 74,
      "start": 14.3161,
      "duration": 0.0729,
      "velocity": 127,
      "chip": "ym2612"
    },
    {
      "channel": 5,
      "note": 42,
      "start": 14.3184,
      "duration": 0.0999,
      "velocity": 127,
      "chip": "ym2612"
    },
    {
      "channel": 2,
      "note": 74,
      "start": 14.4177,
      "duration": 0.0735,
      "velocity": 127,
      "chip": "ym2612"
    },
    {
      "channel": 0,
      "note": 45,
      "start": 14.5397,
      "duration": 0.2049,
      "velocity": 107,
      "chip": "ym2612"
    },
    {
      "channel": 3,
      "note": 78,
      "start": 14.5413,
      "duration": 0.2043,
      "velocity": 97,
      "chip": "ym2612"
    },
    {
      "channel": 1,
      "note": 85,
      "start": 14.5431,
      "duration": 0.2035,
      "velocity": 97,
      "chip": "ym2612"
    },
    {
      "channel": 4,
      "note": 117,
      "start": 14.5448,
      "duration": 0.0489,
      "velocity": 99,
      "chip": "ym2612"
    },
    {
      "channel": 2,
      "note": 74,
      "start": 14.5463,
      "duration": 0.0708,
      "velocity": 127,
      "chip": "ym2612"
    },
    {
      "channel": 4,
      "note": 117,
      "start": 14.6478,
      "duration": 0.0431,
      "velocity": 99,
      "chip": "ym2612"
    },
    {
      "channel": 2,
      "note": 74,
      "start": 14.6493,
      "duration": 0.0707,
      "velocity": 127,
      "chip": "ym2612"
    },
    {
      "channel": 5,
      "note": 25,
      "start": 14.6517,
      "duration": 0.0685,
      "velocity": 127,
      "chip": "ym2612"
    },
    {
      "channel": 0,
      "note": 42,
      "start": 14.7504,
      "duration": 0.3164,
      "velocity": 107,
      "chip": "ym2612"
    },
    {
      "channel": 3,
      "note": 76,
      "start": 14.7521,
      "duration": 0.2123,
      "velocity": 97,
      "chip": "ym2612"
    },
    {
      "channel": 1,
      "note": 81,
      "start": 14.7538,
      "duration": 0.2107,
      "velocity": 97,
      "chip": "ym2612"
    },
    {
      "channel": 2,
      "note": 74,
      "start": 14.7567,
      "duration": 0.072,
      "velocity": 127,
      "chip": "ym2612"
    },
    {
      "channel": 5,
      "note": 42,
      "start": 14.7591,
      "duration": 0.0961,
      "velocity": 127,
      "chip": "ym2612"
    },
    {
      "channel": 4,
      "note": 117,
      "start": 14.8593,
      "duration": 0.0489,
      "velocity": 99,
      "chip": "ym2612"
    },
    {
      "channel": 2,
      "note": 74,
      "start": 14.8607,
      "duration": 0.0709,
      "velocity": 127,
      "chip": "ym2612"
    },
    {
      "channel": 5,
      "note": 25,
      "start": 14.8632,
      "duration": 0.0686,
      "velocity": 127,
      "chip": "ym2612"
    },
    {
      "channel": 2,
      "note": 74,
      "start": 14.9783,
      "duration": 0.0733,
      "velocity": 127,
      "chip": "ym2612"
    },
    {
      "channel": 0,
      "note": 40,
      "start": 15.0812,
      "duration": 0.3101,
      "velocity": 107,
      "chip": "ym2612"
    },
    {
      "channel": 4,
      "note": 117,
      "start": 15.0838,
      "duration": 0.0475,
      "velocity": 99,
      "chip": "ym2612"
    },
    {
      "channel": 2,
      "note": 74,
      "start": 15.0852,
      "duration": 0.07,
      "velocity": 127,
      "chip": "ym2612"
    },
    {
      "channel": 5,
      "note": 42,
      "start": 15.0868,
      "duration": 0.0685,
      "velocity": 127,
      "chip": "ym2612"
    },
    {
      "channel": 3,
      "note": 73,
      "start": 15.186,
      "duration": 0.2064,
      "velocity": 97,
      "chip": "ym2612"
    },
    {
      "channel": 1,
      "note": 78,
      "start": 15.1883,
      "duration": 0.2051,
      "velocity": 97,
      "chip": "ym2612"
    },
    {
      "channel": 4,
      "note": 117,
      "start": 15.1901,
      "duration": 0.05,
      "velocity": 99,
      "chip": "ym2612"
    },
    {
      "channel": 2,
      "note": 74,
      "start": 15.1915,
      "duration": 0.0717,
      "velocity": 127,
      "chip": "ym2612"
    },
    {
      "channel": 5,
      "note": 42,
      "start": 15.194,
      "duration": 0.0993,
      "velocity": 127,
      "chip": "ym2612"
    },
    {
      "channel": 2,
      "note": 74,
      "start": 15.2926,
      "duration": 0.0735,
      "velocity": 127,
      "chip": "ym2612"
    },
    {
      "channel": 0,
      "note": 40,
      "start": 15.3981,
      "duration": 0.2069,
      "velocity": 107,
      "chip": "ym2612"
    },
    {
      "channel": 3,
      "note": 73,
      "start": 15.3997,
      "duration": 0.2054,
      "velocity": 97,
      "chip": "ym2612"
    },
    {
      "channel": 1,
      "note": 78,
      "start": 15.4015,
      "duration": 0.2037,
      "velocity": 97,
      "chip": "ym2612"
    },
    {
      "channel": 4,
      "note": 117,
      "start": 15.4032,
      "duration": 0.0425,
      "velocity": 99,
      "chip": "ym2612"
    },
    {
      "channel": 2,
      "note": 74,
      "start": 15.4053,
      "duration": 0.0695,
      "velocity": 127,
      "chip": "ym2612"
    },
    {
      "channel": 5,
      "note": 25,
      "start": 15.4077,
      "duration": 0.0672,
      "velocity": 127,
      "chip": "ym2612"
    },
    {
      "channel": 2,
      "note": 74,
      "start": 15.5222,
      "duration": 0.0727,
      "velocity": 127,
      "chip": "ym2612"
    },
    {
      "channel": 5,
      "note": 42,
      "start": 15.5246,
      "duration": 0.1006,
      "velocity": 127,
      "chip": "ym2612"
    },
    {
      "channel": 0,
      "note": 42,
      "start": 15.6277,
      "duration": 0.3062,
      "velocity": 107,
      "chip": "ym2612"
    },
    {
      "channel": 3,
      "note": 69,
      "start": 15.6294,
      "duration": 0.2017,
      "velocity": 97,
      "chip": "ym2612"
    },
    {
      "channel": 1,
      "note": 76,
      "start": 15.6312,
      "duration": 0.201,
      "velocity": 97,
      "chip": "ym2612"
    },
    {
      "channel": 4,
      "note": 117,
      "start": 15.6329,
      "duration": 0.0415,
      "velocity": 99,
      "chip": "ym2612"
    },
    {
      "channel": 2,
      "note": 74,
      "start": 15.6343,
      "duration": 0.0692,
      "velocity": 127,
      "chip": "ym2612"
    },
    {
      "channel": 5,
      "note": 25,
      "start": 15.6359,
      "duration": 0.0977,
      "velocity": 127,
      "chip": "ym2612"
    },
    {
      "channel": 2,
      "note": 74,
      "start": 15.7329,
      "duration": 0.0741,
      "velocity": 127,
      "chip": "ym2612"
    },
    {
      "channel": 3,
      "note": 81,
      "start": 15.8364,
      "duration": 0.2087,
      "velocity": 97,
      "chip": "ym2612"
    },
    {
      "channel": 1,
      "note": 78,
      "start": 15.8387,
      "duration": 0.2066,
      "velocity": 97,
      "chip": "ym2612"
    },
    {
      "channel": 4,
      "note": 117,
      "start": 15.8405,
      "duration": 0.0455,
      "velocity": 99,
      "chip": "ym2612"
    },
    {
      "channel": 2,
      "note": 74,
      "start": 15.842,
      "duration": 0.0674,
      "velocity": 127,
      "chip": "ym2612"
    },
    {
      "channel": 0,
      "note": 45,
      "start": 15.9384,
      "duration": 0.3177,
      "velocity": 107,
      "chip": "ym2612"
    },
    {
      "channel": 2,
      "note": 74,
      "start": 15.9415,
      "duration": 0.0709,
      "velocity": 127,
      "chip": "ym2612"
    },
    {
      "channel": 5,
      "note": 25,
      "start": 15.9438,
      "duration": 0.0686,
      "velocity": 127,
      "chip": "ym2612"
    },
    {
      "channel": 3,
      "note": 78,
      "start": 16.0609,
      "duration": 0.2057,
      "velocity": 97,
      "chip": "ym2612"
    },
    {
      "channel": 1,
      "note": 76,
      "start": 16.0627,
      "duration": 0.205,
      "velocity": 97,
      "chip": "ym2612"
    },
    {
      "channel": 4,
      "note": 117,
      "start": 16.0644,
      "duration": 0.0447,
      "velocity": 99,
      "chip": "ym2612"
    },
    {
      "channel": 2,
      "note": 74,
      "start": 16.0658,
      "duration": 0.0729,
      "velocity": 127,
      "chip": "ym2612"
    },
    {
      "channel": 5,
      "note": 42,
      "start": 16.0682,
      "duration": 0.0999,
      "velocity": 127,
      "chip": "ym2612"
    },
    {
      "channel": 2,
      "note": 74,
      "start": 16.1675,
      "duration": 0.0735,
      "velocity": 127,
      "chip": "ym2612"
    },
    {
      "channel": 0,
      "note": 45,
      "start": 16.2722,
      "duration": 0.2127,
      "velocity": 107,
      "chip": "ym2612"
    },
    {
      "channel": 3,
      "note": 76,
      "start": 16.274,
      "duration": 0.2111,
      "velocity": 97,
      "chip": "ym2612"
    },
    {
      "channel": 1,
      "note": 73,
      "start": 16.2757,
      "duration": 0.2095,
      "velocity": 97,
      "chip": "ym2612"
    },
    {
      "channel": 4,
      "note": 117,
      "start": 16.2774,
      "duration": 0.0489,
      "velocity": 99,
      "chip": "ym2612"
    },
    {
      "channel": 2,
      "note": 74,
      "start": 16.2789,
      "duration": 0.0708,
      "velocity": 127,
      "chip": "ym2612"
    },
    {
      "channel": 4,
      "note": 117,
      "start": 16.3805,
      "duration": 0.0431,
      "velocity": 99,
      "chip": "ym2612"
    },
    {
      "channel": 2,
      "note": 74,
      "start": 16.3819,
      "duration": 0.0707,
      "velocity": 127,
      "chip": "ym2612"
    },
    {
      "channel": 5,
      "note": 25,
      "start": 16.3844,
      "duration": 0.0683,
      "velocity": 127,
      "chip": "ym2612"
    },
    {
      "channel": 0,
      "note": 42,
      "start": 16.5,
      "duration": 0.2064,
      "velocity": 107,
      "chip": "ym2612"
    },
    {
      "channel": 3,
      "note": 73,
      "start": 16.5018,
      "duration": 0.213,
      "velocity": 97,
      "chip": "ym2612"
    },
    {
      "channel": 1,
      "note": 69,
      "start": 16.5035,
      "duration": 0.2115,
      "velocity": 97,
      "chip": "ym2612"
    },
    {
      "channel": 2,
      "note": 74,
      "start": 16.5063,
      "duration": 0.0721,
      "velocity": 127,
      "chip": "ym2612"
    },
    {
      "channel": 5,
      "note": 42,
      "start": 16.5088,
      "duration": 0.0962,
      "velocity": 127,
      "chip": "ym2612"
    },
    {
      "channel": 4,
      "note": 117,
      "start": 16.609,
      "duration": 0.0489,
      "velocity": 99,
      "chip": "ym2612"
    },
    {
      "channel": 2,
      "note": 74,
      "start": 16.6105,
      "duration": 0.0709,
      "velocity": 127,
      "chip": "ym2612"
    },
    {
      "channel": 5,
      "note": 25,
      "start": 16.6129,
      "duration": 0.0686,
      "velocity": 127,
      "chip": "ym2612"
    },
    {
      "channel": 0,
      "note": 40,
      "start": 16.7098,
      "duration": 0.2023,
      "velocity": 107,
      "chip": "ym2612"
    },
    {
      "channel": 2,
      "note": 74,
      "start": 16.7128,
      "duration": 0.0714,
      "velocity": 127,
      "chip": "ym2612"
    },
    {
      "channel": 4,
      "note": 117,
      "start": 16.8146,
      "duration": 0.0492,
      "velocity": 99,
      "chip": "ym2612"
    },
    {
      "channel": 2,
      "note": 74,
      "start": 16.8161,
      "duration": 0.0717,
      "velocity": 127,
      "chip": "ym2612"
    },
    {
      "channel": 5,
      "note": 42,
      "start": 16.8177,
      "duration": 0.0707,
      "velocity": 127,
      "chip": "ym2612"
    },
    {
      "channel": 0,
      "note": 40,
      "start": 16.9182,
      "duration": 0.2128,
      "velocity": 107,
      "chip": "ym2612"
    },
    {
      "channel": 1,
      "note": 66,
      "start": 16.9204,
      "duration": 0.2113,
      "velocity": 97,
      "chip": "ym2612"
    },
    {
      "channel": 4,
      "note": 117,
      "start": 16.9228,
      "duration": 0.0503,
      "velocity": 99,
      "chip": "ym2612"
    },
    {
      "channel": 2,
      "note": 74,
      "start": 16.9243,
      "duration": 0.0715,
      "velocity": 127,
      "chip": "ym2612"
    },
    {
      "channel": 5,
      "note": 42,
      "start": 16.9267,
      "duration": 0.0982,
      "velocity": 127,
      "chip": "ym2612"
    },
    {
      "channel": 2,
      "note": 74,
      "start": 17.0426,
      "duration": 0.0735,
      "velocity": 127,
      "chip": "ym2612"
    },
    {
      "channel": 4,
      "note": 117,
      "start": 17.1469,
      "duration": 0.0487,
      "velocity": 99,
      "chip": "ym2612"
    },
    {
      "channel": 2,
      "note": 74,
      "start": 17.1485,
      "duration": 0.0704,
      "velocity": 127,
      "chip": "ym2612"
    },
    {
      "channel": 5,
      "note": 25,
      "start": 17.1508,
      "duration": 0.0681,
      "velocity": 127,
      "chip": "ym2612"
    },
    {
      "channel": 2,
      "note": 74,
      "start": 17.2486,
      "duration": 0.0739,
      "velocity": 127,
      "chip": "ym2612"
    },
    {
      "channel": 5,
      "note": 42,
      "start": 17.2511,
      "duration": 0.1013,
      "velocity": 127,
      "chip": "ym2612"
    },
    {
      "channel": 0,
      "note": 42,
      "start": 17.3555,
      "duration": 0.3131,
      "velocity": 107,
      "chip": "ym2612"
    },
    {
      "channel": 3,
      "note": 69,
      "start": 17.3572,
      "duration": 0.2088,
      "velocity": 97,
      "chip": "ym2612"
    },
    {
      "channel": 1,
      "note": 100,
      "start": 17.359,
      "duration": 0.2073,
      "velocity": 97,
      "chip": "ym2612"
    },
    {
      "channel": 4,
      "note": 117,
      "start": 17.3607,
      "duration": 0.0464,
      "velocity": 99,
      "chip": "ym2612"
    },
    {
      "channel": 2,
      "note": 74,
      "start": 17.3622,
      "duration": 0.0682,
      "velocity": 127,
      "chip": "ym2612"
    },
    {
      "channel": 5,
      "note": 25,
      "start": 17.3638,
      "duration": 0.0957,
      "velocity": 127,
      "chip": "ym2612"
    },
    {
      "channel": 2,
      "note": 74,
      "start": 17.477,
      "duration": 0.0735,
      "velocity": 127,
      "chip": "ym2612"
    },
    {
      "channel": 3,
      "note": 97,
      "start": 17.5809,
      "duration": 0.2001,
      "velocity": 97,
      "chip": "ym2612"
    },
    {
      "channel": 1,
      "note": 102,
      "start": 17.5826,
      "duration": 0.1994,
      "velocity": 97,
      "chip": "ym2612"
    },
    {
      "channel": 4,
      "note": 117,
      "start": 17.5843,
      "duration": 0.0457,
      "velocity": 99,
      "chip": "ym2612"
    },
    {
      "channel": 2,
      "note": 74,
      "start": 17.5859,
      "duration": 0.0676,
      "velocity": 127,
      "chip": "ym2612"
    },
    {
      "channel": 0,
      "note": 45,
      "start": 17.6818,
      "duration": 0.3184,
      "velocity": 107,
      "chip": "ym2612"
    },
    {
      "channel": 2,
      "note": 74,
      "start": 17.6849,
      "duration": 0.0721,
      "velocity": 127,
      "chip": "ym2612"
    },
    {
      "channel": 5,
      "note": 25,
      "start": 17.6872,
      "duration": 0.0699,
      "velocity": 127,
      "chip": "ym2612"
    },
    {
      "channel": 3,
      "note": 93,
      "start": 17.7871,
      "duration": 0.2078,
      "velocity": 97,
      "chip": "ym2612"
    },
    {
      "channel": 1,
      "note": 100,
      "start": 17.7895,
      "duration": 0.2057,
      "velocity": 97,
      "chip": "ym2612"
    },
    {
      "channel": 4,
      "note": 117,
      "start": 17.7912,
      "duration": 0.0447,
      "velocity": 99,
      "chip": "ym2612"
    },
    {
      "channel": 2,
      "note": 74,
      "start": 17.7927,
      "duration": 0.0722,
      "velocity": 127,
      "chip": "ym2612"
    },
    {
      "channel": 5,
      "note": 42,
      "start": 17.7951,
      "duration": 0.1,
      "velocity": 127,
      "chip": "ym2612"
    },
    {
      "channel": 2,
      "note": 74,
      "start": 17.8944,
      "duration": 0.0735,
      "velocity": 127,
      "chip": "ym2612"
    },
    {
      "channel": 0,
      "note": 45,
      "start": 18.0156,
      "duration": 0.2062,
      "velocity": 107,
      "chip": "ym2612"
    },
    {
      "channel": 3,
      "note": 90,
      "start": 18.0173,
      "duration": 0.2055,
      "velocity": 97,
      "chip": "ym2612"
    },
    {
      "channel": 1,
      "note": 97,
      "start": 18.0191,
      "duration": 0.2048,
      "velocity": 97,
      "chip": "ym2612"
    },
    {
      "channel": 4,
      "note": 117,
      "start": 18.0208,
      "duration": 0.0495,
      "velocity": 99,
      "chip": "ym2612"
    },
    {
      "channel": 2,
      "note": 74,
      "start": 18.0229,
      "duration": 0.0707,
      "velocity": 127,
      "chip": "ym2612"
    },
    {
      "channel": 4,
      "note": 117,
      "start": 18.1245,
      "duration": 0.0431,
      "velocity": 99,
      "chip": "ym2612"
    },
    {
      "channel": 2,
      "note": 74,
      "start": 18.1259,
      "duration": 0.0707,
      "velocity": 127,
      "chip": "ym2612"
    },
    {
      "channel": 5,
      "note": 25,
      "start": 18.1284,
      "duration": 0.0683,
      "velocity": 127,
      "chip": "ym2612"
    },
    {
      "channel": 0,
      "note": 42,
      "start": 18.2276,
      "duration": 0.3158,
      "velocity": 107,
      "chip": "ym2612"
    },
    {
      "channel": 3,
      "note": 88,
      "start": 18.2293,
      "duration": 0.2116,
      "velocity": 97,
      "chip": "ym2612"
    },
    {
      "channel": 1,
      "note": 93,
      "start": 18.231,
      "duration": 0.2101,
      "velocity": 97,
      "chip": "ym2612"
    },
    {
      "channel": 2,
      "note": 74,
      "start": 18.2333,
      "duration": 0.0726,
      "velocity": 127,
      "chip": "ym2612"
    },
    {
      "channel": 5,
      "note": 42,
      "start": 18.2357,
      "duration": 0.0955,
      "velocity": 127,
      "chip": "ym2612"
    },
    {
      "channel": 4,
      "note": 117,
      "start": 18.3353,
      "duration": 0.0496,
      "velocity": 99,
      "chip": "ym2612"
    },
    {
      "channel": 2,
      "note": 74,
      "start": 18.3368,
      "duration": 0.0714,
      "velocity": 127,
      "chip": "ym2612"
    },
    {
      "channel": 5,
      "note": 25,
      "start": 18.3398,
      "duration": 0.0685,
      "velocity": 127,
      "chip": "ym2612"
    },
    {
      "channel": 2,
      "note": 74,
      "start": 18.4554,
      "duration": 0.0729,
      "velocity": 127,
      "chip": "ym2612"
    },
    {
      "channel": 0,
      "note": 40,
      "start": 18.5585,
      "duration": 0.3088,
      "velocity": 107,
      "chip": "ym2612"
    },
    {
      "channel": 4,
      "note": 117,
      "start": 18.561,
      "duration": 0.0468,
      "velocity": 99,
      "chip": "ym2612"
    },
    {
      "channel": 2,
      "note": 74,
      "start": 18.5625,
      "duration": 0.0687,
      "velocity": 127,
      "chip": "ym2612"
    },
    {
      "channel": 5,
      "note": 42,
      "start": 18.5641,
      "duration": 0.0672,
      "velocity": 127,
      "chip": "ym2612"
    },
    {
      "channel": 3,
      "note": 85,
      "start": 18.6632,
      "duration": 0.2051,
      "velocity": 97,
      "chip": "ym2612"
    },
    {
      "channel": 1,
      "note": 90,
      "start": 18.665,
      "duration": 0.2044,
      "velocity": 97,
      "chip": "ym2612"
    },
    {
      "channel": 4,
      "note": 117,
      "start": 18.6667,
      "duration": 0.0498,
      "velocity": 99,
      "chip": "ym2612"
    },
    {
      "channel": 2,
      "note": 74,
      "start": 18.6682,
      "duration": 0.0723,
      "velocity": 127,
      "chip": "ym2612"
    },
    {
      "channel": 5,
      "note": 42,
      "start": 18.6707,
      "duration": 0.0992,
      "velocity": 127,
      "chip": "ym2612"
    },
    {
      "channel": 2,
      "note": 74,
      "start": 18.7693,
      "duration": 0.0735,
      "velocity": 127,
      "chip": "ym2612"
    },
    {
      "channel": 0,
      "note": 40,
      "start": 18.8747,
      "duration": 0.2063,
      "velocity": 107,
      "chip": "ym2612"
    },
    {
      "channel": 3,
      "note": 85,
      "start": 18.8764,
      "duration": 0.2047,
      "velocity": 97,
      "chip": "ym2612"
    },
    {
      "channel": 1,
      "note": 90,
      "start": 18.8781,
      "duration": 0.2031,
      "velocity": 97,
      "chip": "ym2612"
    },
    {
      "channel": 4,
      "note": 117,
      "start": 18.8798,
      "duration": 0.0431,
      "velocity": 99,
      "chip": "ym2612"
    },
    {
      "channel": 2,
      "note": 74,
      "start": 18.8813,
      "duration": 0.0701,
      "velocity": 127,
      "chip": "ym2612"
    },
    {
      "channel": 5,
      "note": 25,
      "start": 18.8837,
      "duration": 0.0679,
      "velocity": 127,
      "chip": "ym2612"
    },
    {
      "channel": 2,
      "note": 74,
      "start": 18.9982,
      "duration": 0.0739,
      "velocity": 127,
      "chip": "ym2612"
    },
    {
      "channel": 5,
      "note": 42,
      "start": 19.0006,
      "duration": 0.1006,
      "velocity": 127,
      "chip": "ym2612"
    },
    {
      "channel": 0,
      "note": 42,
      "start": 19.1037,
      "duration": 0.3067,
      "velocity": 107,
      "chip": "ym2612"
    },
    {
      "channel": 3,
      "note": 81,
      "start": 19.106,
      "duration": 0.2051,
      "velocity": 97,
      "chip": "ym2612"
    },
    {
      "channel": 1,
      "note": 88,
      "start": 19.1078,
      "duration": 0.2036,
      "velocity": 97,
      "chip": "ym2612"
    },
    {
      "channel": 4,
      "note": 117,
      "start": 19.1095,
      "duration": 0.0415,
      "velocity": 99,
      "chip": "ym2612"
    },
    {
      "channel": 2,
      "note": 74,
      "start": 19.111,
      "duration": 0.0691,
      "velocity": 127,
      "chip": "ym2612"
    },
    {
      "channel": 5,
      "note": 25,
      "start": 19.1126,
      "duration": 0.0976,
      "velocity": 127,
      "chip": "ym2612"
    },
    {
      "channel": 2,
      "note": 74,
      "start": 19.2095,
      "duration": 0.0735,
      "velocity": 127,
      "chip": "ym2612"
    },
    {
      "channel": 4,
      "note": 117,
      "start": 19.3123,
      "duration": 0.0503,
      "velocity": 99,
      "chip": "ym2612"
    },
    {
      "channel": 2,
      "note": 74,
      "start": 19.3139,
      "duration": 0.0721,
      "velocity": 127,
      "chip": "ym2612"
    },
    {
      "channel": 0,
      "note": 45,
      "start": 19.4144,
      "duration": 0.3184,
      "velocity": 107,
      "chip": "ym2612"
    },
    {
      "channel": 2,
      "note": 74,
      "start": 19.4174,
      "duration": 0.0725,
      "velocity": 127,
      "chip": "ym2612"
    },
    {
      "channel": 5,
      "note": 25,
      "start": 19.4198,
      "duration": 0.0703,
      "velocity": 127,
      "chip": "ym2612"
    },
    {
      "channel": 3,
      "note": 85,
      "start": 19.5373,
      "duration": 0.206,
      "velocity": 97,
      "chip": "ym2612"
    },
    {
      "channel": 1,
      "note": 90,
      "start": 19.5397,
      "duration": 0.2046,
      "velocity": 97,
      "chip": "ym2612"
    },
    {
      "channel": 4,
      "note": 117,
      "start": 19.5414,
      "duration": 0.0442,
      "velocity": 99,
      "chip": "ym2612"
    },
    {
      "channel": 2,
      "note": 74,
      "start": 19.5429,
      "duration": 0.0718,
      "velocity": 127,
      "chip": "ym2612"
    },
    {
      "channel": 5,
      "note": 42,
      "start": 19.5453,
      "duration": 0.0995,
      "velocity": 127,
      "chip": "ym2612"
    },
    {
      "channel": 2,
      "note": 74,
      "start": 19.6441,
      "duration": 0.0735,
      "velocity": 127,
      "chip": "ym2612"
    },
    {
      "channel": 0,
      "note": 45,
      "start": 19.7483,
      "duration": 0.2132,
      "velocity": 107,
      "chip": "ym2612"
    },
    {
      "channel": 3,
      "note": 85,
      "start": 19.7499,
      "duration": 0.2118,
      "velocity": 97,
      "chip": "ym2612"
    },
    {
      "channel": 1,
      "note": 90,
      "start": 19.7517,
      "duration": 0.2101,
      "velocity": 97,
      "chip": "ym2612"
    },
    {
      "channel": 4,
      "note": 117,
      "start": 19.7534,
      "duration": 0.0495,
      "velocity": 99,
      "chip": "ym2612"
    },
    {
      "channel": 2,
      "note": 74,
      "start": 19.7555,
      "duration": 0.0708,
      "velocity": 127,
      "chip": "ym2612"
    },
    {
      "channel": 4,
      "note": 117,
      "start": 19.8571,
      "duration": 0.0431,
      "velocity": 99,
      "chip": "ym2612"
    },
    {
      "channel": 2,
      "note": 74,
      "start": 19.8586,
      "duration": 0.0707,
      "velocity": 127,
      "chip": "ym2612"
    },
    {
      "channel": 5,
      "note": 25,
      "start": 19.861,
      "duration": 0.0684,
      "velocity": 127,
      "chip": "ym2612"
    },
    {
      "channel": 0,
      "note": 42,
      "start": 19.9773,
      "duration": 0.2051,
      "velocity": 107,
      "chip": "ym2612"
    },
    {
      "channel": 3,
      "note": 81,
      "start": 19.979,
      "duration": 0.2045,
      "velocity": 97,
      "chip": "ym2612"
    },
    {
      "channel": 1,
      "note": 88,
      "start": 19.9808,
      "duration": 0.2038,
      "velocity": 97,
      "chip": "ym2612"
    },
    {
      "channel": 2,
      "note": 74,
      "start": 19.983,
      "duration": 0.0727,
      "velocity": 127,
      "chip": "ym2612"
    },
    {
      "channel": 5,
      "note": 42,
      "start": 19.9855,
      "duration": 0.0955,
      "velocity": 127,
      "chip": "ym2612"
    },
    {
      "channel": 4,
      "note": 117,
      "start": 20.085,
      "duration": 0.0495,
      "velocity": 99,
      "chip": "ym2612"
    },
    {
      "channel": 2,
      "note": 74,
      "start": 20.0865,
      "duration": 0.0714,
      "velocity": 127,
      "chip": "ym2612"
    },
    {
      "channel": 5,
      "note": 25,
      "start": 20.0895,
      "duration": 0.0686,
      "velocity": 127,
      "chip": "ym2612"
    },
    {
      "channel": 0,
      "note": 40,
      "start": 20.1873,
      "duration": 0.2016,
      "velocity": 107,
      "chip": "ym2612"
    },
    {
      "channel": 3,
      "note": 85,
      "start": 20.1895,
      "duration": 0.2005,
      "velocity": 97,
      "chip": "ym2612"
    },
    {
      "channel": 1,
      "note": 90,
      "start": 20.1912,
      "duration": 0.1998,
      "velocity": 97,
      "chip": "ym2612"
    },
    {
      "channel": 2,
      "note": 74,
      "start": 20.1934,
      "duration": 0.0674,
      "velocity": 127,
      "chip": "ym2612"
    },
    {
      "channel": 4,
      "note": 117,
      "start": 20.2917,
      "duration": 0.0487,
      "velocity": 99,
      "chip": "ym2612"
    },
    {
      "channel": 2,
      "note": 74,
      "start": 20.2932,
      "duration": 0.0706,
      "velocity": 127,
      "chip": "ym2612"
    },
    {
      "channel": 5,
      "note": 42,
      "start": 20.2948,
      "duration": 0.0692,
      "velocity": 127,
      "chip": "ym2612"
    },
    {
      "channel": 0,
      "note": 40,
      "start": 20.3958,
      "duration": 0.2118,
      "velocity": 107,
      "chip": "ym2612"
    },
    {
      "channel": 3,
      "note": 88,
      "start": 20.3975,
      "duration": 0.2103,
      "velocity": 97,
      "chip": "ym2612"
    },
    {
      "channel": 1,
      "note": 93,
      "start": 20.3992,
      "duration": 0.2087,
      "velocity": 97,
      "chip": "ym2612"
    },
    {
      "channel": 4,
      "note": 117,
      "start": 20.4009,
      "duration": 0.0482,
      "velocity": 99,
      "chip": "ym2612"
    },
    {
      "channel": 2,
      "note": 74,
      "start": 20.4025,
      "duration": 0.0706,
      "velocity": 127,
      "chip": "ym2612"
    },
    {
      "channel": 5,
      "note": 42,
      "start": 20.4056,
      "duration": 0.0959,
      "velocity": 127,
      "chip": "ym2612"
    },
    {
      "channel": 2,
      "note": 74,
      "start": 20.519,
      "duration": 0.0735,
      "velocity": 127,
      "chip": "ym2612"
    },
    {
      "channel": 3,
      "note": 90,
      "start": 20.6241,
      "duration": 0.206,
      "velocity": 97,
      "chip": "ym2612"
    },
    {
      "channel": 1,
      "note": 97,
      "start": 20.6258,
      "duration": 0.2055,
      "velocity": 97,
      "chip": "ym2612"
    },
    {
      "channel": 4,
      "note": 117,
      "start": 20.6275,
      "duration": 0.0502,
      "velocity": 99,
      "chip": "ym2612"
    },
    {
      "channel": 2,
      "note": 74,
      "start": 20.629,
      "duration": 0.0722,
      "velocity": 127,
      "chip": "ym2612"
    },
    {
      "channel": 5,
      "note": 25,
      "start": 20.6314,
      "duration": 0.0699,
      "velocity": 127,
      "chip": "ym2612"
    },
    {
      "channel": 2,
      "note": 74,
      "start": 20.7308,
      "duration": 0.0734,
      "velocity": 127,
      "chip": "ym2612"
    },
    {
      "channel": 5,
      "note": 42,
      "start": 20.7332,
      "duration": 0.1007,
      "velocity": 127,
      "chip": "ym2612"
    },
    {
      "channel": 0,
      "note": 42,
      "start": 20.8365,
      "duration": 0.3144,
      "velocity": 107,
      "chip": "ym2612"
    },
    {
      "channel": 3,
      "note": 93,
      "start": 20.8388,
      "duration": 0.2097,
      "velocity": 97,
      "chip": "ym2612"
    },
    {
      "channel": 1,
      "note": 100,
      "start": 20.8405,
      "duration": 0.2081,
      "velocity": 97,
      "chip": "ym2612"
    },
    {
      "channel": 4,
      "note": 117,
      "start": 20.8422,
      "duration": 0.0478,
      "velocity": 99,
      "chip": "ym2612"
    },
    {
      "channel": 2,
      "note": 74,
      "start": 20.8437,
      "duration": 0.069,
      "velocity": 127,
      "chip": "ym2612"
    },
    {
      "channel": 5,
      "note": 25,
      "start": 20.8454,
      "duration": 0.0965,
      "velocity": 127,
      "chip": "ym2612"
    },
    {
      "channel": 2,
      "note": 74,
      "start": 20.9593,
      "duration": 0.0735,
      "velocity": 127,
      "chip": "ym2612"
    },
    {
      "channel": 3,
      "note": 98,
      "start": 21.0634,
      "duration": 0.1999,
      "velocity": 97,
      "chip": "ym2612"
    },
    {
      "channel": 1,
      "note": 102,
      "start": 21.0651,
      "duration": 0.1992,
      "velocity": 97,
      "chip": "ym2612"
    },
    {
      "channel": 4,
      "note": 117,
      "start": 21.0668,
      "duration": 0.0455,
      "velocity": 99,
      "chip": "ym2612"
    },
    {
      "channel": 2,
      "note": 74,
      "start": 21.0684,
      "duration": 0.0674,
      "velocity": 127,
      "chip": "ym2612"
    },
    {
      "channel": 0,
      "note": 47,
      "start": 21.1642,
      "duration": 0.3184,
      "velocity": 107,
      "chip": "ym2612"
    },
    {
      "channel": 2,
      "note": 74,
      "start": 21.1672,
      "duration": 0.0721,
      "velocity": 127,
      "chip": "ym2612"
    },
    {
      "channel": 5,
      "note": 25,
      "start": 21.1695,
      "duration": 0.0699,
      "velocity": 127,
      "chip": "ym2612"
    },
    {
      "channel": 3,
      "note": 97,
      "start": 21.2695,
      "duration": 0.2078,
      "velocity": 97,
      "chip": "ym2612"
    },
    {
      "channel": 1,
      "note": 100,
      "start": 21.2719,
      "duration": 0.2056,
      "velocity": 97,
      "chip": "ym2612"
    },
    {
      "channel": 4,
      "note": 117,
      "start": 21.2736,
      "duration": 0.0446,
      "velocity": 99,
      "chip": "ym2612"
    },
    {
      "channel": 2,
      "note": 74,
      "start": 21.2751,
      "duration": 0.0722,
      "velocity": 127,
      "chip": "ym2612"
    },
    {
      "channel": 5,
      "note": 42,
      "start": 21.2775,
      "duration": 0.0999,
      "velocity": 127,
      "chip": "ym2612"
    },
    {
      "channel": 2,
      "note": 74,
      "start": 21.3767,
      "duration": 0.0735,
      "velocity": 127,
      "chip": "ym2612"
    },
    {
      "channel": 0,
      "note": 47,
      "start": 21.4983,
      "duration": 0.2053,
      "velocity": 107,
      "chip": "ym2612"
    },
    {
      "channel": 3,
      "note": 95,
      "start": 21.5,
      "duration": 0.2053,
      "velocity": 97,
      "chip": "ym2612"
    },
    {
      "channel": 1,
      "note": 98,
      "start": 21.5017,
      "duration": 0.2047,
      "velocity": 97,
      "chip": "ym2612"
    },
    {
      "channel": 4,
      "note": 117,
      "start": 21.5034,
      "duration": 0.0492,
      "velocity": 99,
      "chip": "ym2612"
    },
    {
      "channel": 2,
      "note": 74,
      "start": 21.5056,
      "duration": 0.0705,
      "velocity": 127,
      "chip": "ym2612"
    },
    {
      "channel": 4,
      "note": 117,
      "start": 21.6068,
      "duration": 0.0431,
      "velocity": 99,
      "chip": "ym2612"
    },
    {
      "channel": 2,
      "note": 74,
      "start": 21.6083,
      "duration": 0.0707,
      "velocity": 127,
      "chip": "ym2612"
    },
    {
      "channel": 5,
      "note": 25,
      "start": 21.6107,
      "duration": 0.0684,
      "velocity": 127,
      "chip": "ym2612"
    },
    {
      "channel": 0,
      "note": 42,
      "start": 21.7101,
      "duration": 0.3157,
      "velocity": 107,
      "chip": "ym2612"
    },
    {
      "channel": 3,
      "note": 90,
      "start": 21.7118,
      "duration": 0.2115,
      "velocity": 97,
      "chip": "ym2612"
    },
    {
      "channel": 1,
      "note": 95,
      "start": 21.7135,
      "duration": 0.21,
      "velocity": 97,
      "chip": "ym2612"
    },
    {
      "channel": 2,
      "note": 74,
      "start": 21.7158,
      "duration": 0.0721,
      "velocity": 127,
      "chip": "ym2612"
    },
    {
      "channel": 5,
      "note": 42,
      "start": 21.7182,
      "duration": 0.0953,
      "velocity": 127,
      "chip": "ym2612"
    },
    {
      "channel": 4,
      "note": 117,
      "start": 21.8176,
      "duration": 0.0496,
      "velocity": 99,
      "chip": "ym2612"
    },
    {
      "channel": 2,
      "note": 74,
      "start": 21.8191,
      "duration": 0.0715,
      "velocity": 127,
      "chip": "ym2612"
    },
    {
      "channel": 5,
      "note": 25,
      "start": 21.8221,
      "duration": 0.0686,
      "velocity": 127,
      "chip": "ym2612"
    },
    {
      "channel": 2,
      "note": 74,
      "start": 21.9371,
      "duration": 0.0735,
      "velocity": 127,
      "chip": "ym2612"
    },
    {
      "channel": 0,
      "note": 40,
      "start": 22.0409,
      "duration": 0.3088,
      "velocity": 107,
      "chip": "ym2612"
    },
    {
      "channel": 4,
      "note": 117,
      "start": 22.0434,
      "duration": 0.0468,
      "velocity": 99,
      "chip": "ym2612"
    },
    {
      "channel": 2,
      "note": 74,
      "start": 22.0449,
      "duration": 0.0686,
      "velocity": 127,
      "chip": "ym2612"
    },
    {
      "channel": 5,
      "note": 42,
      "start": 22.0465,
      "duration": 0.0672,
      "velocity": 127,
      "chip": "ym2612"
    },
    {
      "channel": 3,
      "note": 86,
      "start": 22.1456,
      "duration": 0.2051,
      "velocity": 97,
      "chip": "ym2612"
    },
    {
      "channel": 1,
      "note": 90,
      "start": 22.1473,
      "duration": 0.2044,
      "velocity": 97,
      "chip": "ym2612"
    },
    {
      "channel": 4,
      "note": 117,
      "start": 22.149,
      "duration": 0.0498,
      "velocity": 99,
      "chip": "ym2612"
    },
    {
      "channel": 2,
      "note": 74,
      "start": 22.1506,
      "duration": 0.0722,
      "velocity": 127,
      "chip": "ym2612"
    },
    {
      "channel": 5,
      "note": 42,
      "start": 22.153,
      "duration": 0.0993,
      "velocity": 127,
      "chip": "ym2612"
    },
    {
      "channel": 2,
      "note": 74,
      "start": 22.2516,
      "duration": 0.0735,
      "velocity": 127,
      "chip": "ym2612"
    },
    {
      "channel": 0,
      "note": 40,
      "start": 22.3571,
      "duration": 0.2062,
      "velocity": 107,
      "chip": "ym2612"
    },
    {
      "channel": 3,
      "note": 86,
      "start": 22.3587,
      "duration": 0.2047,
      "velocity": 97,
      "chip": "ym2612"
    },
    {
      "channel": 1,
      "note": 90,
      "start": 22.3605,
      "duration": 0.2031,
      "velocity": 97,
      "chip": "ym2612"
    },
    {
      "channel": 4,
      "note": 117,
      "start": 22.3622,
      "duration": 0.0431,
      "velocity": 99,
      "chip": "ym2612"
    },
    {
      "channel": 2,
      "note": 74,
      "start": 22.3637,
      "duration": 0.0701,
      "velocity": 127,
      "chip": "ym2612"
    },
    {
      "channel": 5,
      "note": 25,
      "start": 22.366,
      "duration": 0.0679,
      "velocity": 127,
      "chip": "ym2612"
    },
    {
      "channel": 2,
      "note": 74,
      "start": 22.4807,
      "duration": 0.0732,
      "velocity": 127,
      "chip": "ym2612"
    },
    {
      "channel": 5,
      "note": 42,
      "start": 22.4831,
      "duration": 0.1002,
      "velocity": 127,
      "chip": "ym2612"
    },
    {
      "channel": 0,
      "note": 42,
      "start": 22.5857,
      "duration": 0.3071,
      "velocity": 107,
      "chip": "ym2612"
    },
    {
      "channel": 3,
      "note": 83,
      "start": 22.5875,
      "duration": 0.2061,
      "velocity": 97,
      "chip": "ym2612"
    },
    {
      "channel": 1,
      "note": 88,
      "start": 22.5898,
      "duration": 0.2039,
      "velocity": 97,
      "chip": "ym2612"
    },
    {
      "channel": 4,
      "note": 117,
      "start": 22.5915,
      "duration": 0.0419,
      "velocity": 99,
      "chip": "ym2612"
    },
    {
      "channel": 2,
      "note": 74,
      "start": 22.593,
      "duration": 0.0695,
      "velocity": 127,
      "chip": "ym2612"
    },
    {
      "channel": 5,
      "note": 25,
      "start": 22.5946,
      "duration": 0.098,
      "velocity": 127,
      "chip": "ym2612"
    },
    {
      "channel": 2,
      "note": 74,
      "start": 22.6919,
      "duration": 0.0735,
      "velocity": 127,
      "chip": "ym2612"
    },
    {
      "channel": 4,
      "note": 117,
      "start": 22.7947,
      "duration": 0.0502,
      "velocity": 99,
      "chip": "ym2612"
    },
    {
      "channel": 2,
      "note": 74,
      "start": 22.7962,
      "duration": 0.0722,
      "velocity": 127,
      "chip": "ym2612"
    },
    {
      "channel": 0,
      "note": 47,
      "start": 22.8967,
      "duration": 0.3184,
      "velocity": 107,
      "chip": "ym2612"
    },
    {
      "channel": 2,
      "note": 74,
      "start": 22.8998,
      "duration": 0.0725,
      "velocity": 127,
      "chip": "ym2612"
    },
    {
      "channel": 5,
      "note": 25,
      "start": 22.9022,
      "duration": 0.0703,
      "velocity": 127,
      "chip": "ym2612"
    },
    {
      "channel": 3,
      "note": 86,
      "start": 23.0196,
      "duration": 0.2066,
      "velocity": 97,
      "chip": "ym2612"
    },
    {
      "channel": 1,
      "note": 90,
      "start": 23.022,
      "duration": 0.2053,
      "velocity": 97,
      "chip": "ym2612"
    },
    {
      "channel": 4,
      "note": 117,
      "start": 23.0237,
      "duration": 0.0443,
      "velocity": 99,
      "chip": "ym2612"
    },
    {
      "channel": 2,
      "note": 74,
      "start": 23.0252,
      "duration": 0.0718,
      "velocity": 127,
      "chip": "ym2612"
    },
    {
      "channel": 5,
      "note": 42,
      "start": 23.0276,
      "duration": 0.0995,
      "velocity": 127,
      "chip": "ym2612"
    },
    {
      "channel": 2,
      "note": 74,
      "start": 23.1265,
      "duration": 0.0735,
      "velocity": 127,
      "chip": "ym2612"
    },
    {
      "channel": 0,
      "note": 47,
      "start": 23.2312,
      "duration": 0.2127,
      "velocity": 107,
      "chip": "ym2612"
    },
    {
      "channel": 3,
      "note": 86,
      "start": 23.2329,
      "duration": 0.2111,
      "velocity": 97,
      "chip": "ym2612"
    },
    {
      "channel": 1,
      "note": 90,
      "start": 23.2346,
      "duration": 0.2095,
      "velocity": 97,
      "chip": "ym2612"
    },
    {
      "channel": 4,
      "note": 117,
      "start": 23.2364,
      "duration": 0.0489,
      "velocity": 99,
      "chip": "ym2612"
    },
    {
      "channel": 2,
      "note": 74,
      "start": 23.2385,
      "duration": 0.0701,
      "velocity": 127,
      "chip": "ym2612"
    },
    {
      "channel": 4,
      "note": 117,
      "start": 23.3394,
      "duration": 0.0431,
      "velocity": 99,
      "chip": "ym2612"
    },
    {
      "channel": 2,
      "note": 74,
      "start": 23.3409,
      "duration": 0.0707,
      "velocity": 127,
      "chip": "ym2612"
    },
    {
      "channel": 5,
      "note": 25,
      "start": 23.3434,
      "duration": 0.0683,
      "velocity": 127,
      "chip": "ym2612"
    },
    {
      "channel": 0,
      "note": 42,
      "start": 23.4598,
      "duration": 0.205,
      "velocity": 107,
      "chip": "ym2612"
    },
    {
      "channel": 3,
      "note": 83,
      "start": 23.4615,
      "duration": 0.2043,
      "velocity": 97,
      "chip": "ym2612"
    },
    {
      "channel": 1,
      "note": 88,
      "start": 23.4632,
      "duration": 0.2036,
      "velocity": 97,
      "chip": "ym2612"
    },
    {
      "channel": 2,
      "note": 74,
      "start": 23.4654,
      "duration": 0.072,
      "velocity": 127,
      "chip": "ym2612"
    },
    {
      "channel": 5,
      "note": 42,
      "start": 23.4679,
      "duration": 0.0954,
      "velocity": 127,
      "chip": "ym2612"
    },
    {
      "channel": 4,
      "note": 117,
      "start": 23.5673,
      "duration": 0.0496,
      "velocity": 99,
      "chip": "ym2612"
    },
    {
      "channel": 2,
      "note": 74,
      "start": 23.5689,
      "duration": 0.0717,
      "velocity": 127,
      "chip": "ym2612"
    },
    {
      "channel": 5,
      "note": 25,
      "start": 23.5719,
      "duration": 0.0688,
      "velocity": 127,
      "chip": "ym2612"
    },
    {
      "channel": 0,
      "note": 40,
      "start": 23.6697,
      "duration": 0.201,
      "velocity": 107,
      "chip": "ym2612"
    },
    {
      "channel": 3,
      "note": 86,
      "start": 23.6718,
      "duration": 0.2005,
      "velocity": 97,
      "chip": "ym2612"
    },
    {
      "channel": 1,
      "note": 90,
      "start": 23.6735,
      "duration": 0.1998,
      "velocity": 97,
      "chip": "ym2612"
    },
    {
      "channel": 2,
      "note": 74,
      "start": 23.6758,
      "duration": 0.0675,
      "velocity": 127,
      "chip": "ym2612"
    },
    {
      "channel": 4,
      "note": 117,
      "start": 23.774,
      "duration": 0.043,
      "velocity": 99,
      "chip": "ym2612"
    },
    {
      "channel": 2,
      "note": 74,
      "start": 23.7756,
      "duration": 0.0706,
      "velocity": 127,
      "chip": "ym2612"
    },
    {
      "channel": 5,
      "note": 42,
      "start": 23.7771,
      "duration": 0.0692,
      "velocity": 127,
      "chip": "ym2612"
    },
    {
      "channel": 0,
      "note": 40,
      "start": 23.8782,
      "duration": 0.2118,
      "velocity": 107,
      "chip": "ym2612"
    },
    {
      "channel": 3,
      "note": 90,
      "start": 23.8798,
      "duration": 0.2103,
      "velocity": 97,
      "chip": "ym2612"
    },
    {
      "channel": 1,
      "note": 92,
      "start": 23.8816,
      "duration": 0.2087,
      "velocity": 97,
      "chip": "ym2612"
    },
    {
      "channel": 4,
      "note": 117,
      "start": 23.8833,
      "duration": 0.0481,
      "velocity": 99,
      "chip": "ym2612"
    },
    {
      "channel": 2,
      "note": 74,
      "start": 23.8848,
      "duration": 0.0707,
      "velocity": 127,
      "chip": "ym2612"
    },
    {
      "channel": 5,
      "note": 42,
      "start": 23.8873,
      "duration": 0.0966,
      "velocity": 127,
      "chip": "ym2612"
    },
    {
      "channel": 2,
      "note": 74,
      "start": 24.0014,
      "duration": 0.0735,
      "velocity": 127,
      "chip": "ym2612"
    },
    {
      "channel": 3,
      "note": 92,
      "start": 24.1065,
      "duration": 0.2059,
      "velocity": 97,
      "chip": "ym2612"
    },
    {
      "channel": 1,
      "note": 95,
      "start": 24.1082,
      "duration": 0.2054,
      "velocity": 97,
      "chip": "ym2612"
    },
    {
      "channel": 4,
      "note": 117,
      "start": 24.1099,
      "duration": 0.0502,
      "velocity": 99,
      "chip": "ym2612"
    },
    {
      "channel": 2,
      "note": 74,
      "start": 24.1114,
      "duration": 0.0721,
      "velocity": 127,
      "chip": "ym2612"
    },
    {
      "channel": 5,
      "note": 25,
      "start": 24.1138,
      "duration": 0.0698,
      "velocity": 127,
      "chip": "ym2612"
    },
    {
      "channel": 2,
      "note": 74,
      "start": 24.2137,
      "duration": 0.0727,
      "velocity": 127,
      "chip": "ym2612"
    },
    {
      "channel": 5,
      "note": 42,
      "start": 24.2162,
      "duration": 0.0999,
      "velocity": 127,
      "chip": "ym2612"
    },
    {
      "channel": 0,
      "note": 42,
      "start": 24.3187,
      "duration": 0.3145,
      "velocity": 107,
      "chip": "ym2612"
    },
    {
      "channel": 3,
      "note": 95,
      "start": 24.3204,
      "duration": 0.2104,
      "velocity": 97,
      "chip": "ym2612"
    },
    {
      "channel": 1,
      "note": 98,
      "start": 24.3228,
      "duration": 0.2082,
      "velocity": 97,
      "chip": "ym2612"
    },
    {
      "channel": 4,
      "note": 117,
      "start": 24.3245,
      "duration": 0.0479,
      "velocity": 99,
      "chip": "ym2612"
    },
    {
      "channel": 2,
      "note": 74,
      "start": 24.3259,
      "duration": 0.0691,
      "velocity": 127,
      "chip": "ym2612"
    },
    {
      "channel": 5,
      "note": 25,
      "start": 24.3275,
      "duration": 0.0969,
      "velocity": 127,
      "chip": "ym2612"
    },
    {
      "channel": 2,
      "note": 74,
      "start": 24.4417,
      "duration": 0.0735,
      "velocity": 127,
      "chip": "ym2612"
    },
    {
      "channel": 3,
      "note": 98,
      "start": 24.5457,
      "duration": 0.2,
      "velocity": 97,
      "chip": "ym2612"
    },
    {
      "channel": 1,
      "note": 102,
      "start": 24.5474,
      "duration": 0.1992,
      "velocity": 97,
      "chip": "ym2612"
    },
    {
      "channel": 4,
      "note": 117,
      "start": 24.5492,
      "duration": 0.0456,
      "velocity": 99,
      "chip": "ym2612"
    },
    {
      "channel": 2,
      "note": 74,
      "start": 24.5507,
      "duration": 0.0674,
      "velocity": 127,
      "chip": "ym2612"
    },
    {
      "channel": 0,
      "note": 47,
      "start": 24.6465,
      "duration": 0.3184,
      "velocity": 107,
      "chip": "ym2612"
    },
    {
      "channel": 2,
      "note": 74,
      "start": 24.6495,
      "duration": 0.0721,
      "velocity": 127,
      "chip": "ym2612"
    },
    {
      "channel": 5,
      "note": 25,
      "start": 24.6519,
      "duration": 0.0699,
      "velocity": 127,
      "chip": "ym2612"
    },
    {
      "channel": 3,
      "note": 97,
      "start": 24.7518,
      "duration": 0.2078,
      "velocity": 97,
      "chip": "ym2612"
    },
    {
      "channel": 1,
      "note": 100,
      "start": 24.7535,
      "duration": 0.2062,
      "velocity": 97,
      "chip": "ym2612"
    },
    {
      "channel": 4,
      "note": 117,
      "start": 24.7559,
      "duration": 0.0447,
      "velocity": 99,
      "chip": "ym2612"
    },
    {
      "channel": 2,
      "note": 74,
      "start": 24.7574,
      "duration": 0.0722,
      "velocity": 127,
      "chip": "ym2612"
    },
    {
      "channel": 5,
      "note": 42,
      "start": 24.7598,
      "duration": 0.1,
      "velocity": 127,
      "chip": "ym2612"
    },
    {
      "channel": 2,
      "note": 74,
      "start": 24.8591,
      "duration": 0.0735,
      "velocity": 127,
      "chip": "ym2612"
    },
    {
      "channel": 0,
      "note": 47,
      "start": 24.981,
      "duration": 0.2049,
      "velocity": 107,
      "chip": "ym2612"
    },
    {
      "channel": 3,
      "note": 95,
      "start": 24.9827,
      "duration": 0.2043,
      "velocity": 97,
      "chip": "ym2612"
    },
    {
      "channel": 1,
      "note": 98,
      "start": 24.9844,
      "duration": 0.2043,
      "velocity": 97,
      "chip": "ym2612"
    },
    {
      "channel": 4,
      "note": 117,
      "start": 24.9861,
      "duration": 0.0489,
      "velocity": 99,
      "chip": "ym2612"
    },
    {
      "channel": 2,
      "note": 74,
      "start": 24.9883,
      "duration": 0.0701,
      "velocity": 127,
      "chip": "ym2612"
    },
    {
      "channel": 4,
      "note": 117,
      "start": 25.0892,
      "duration": 0.0431,
      "velocity": 99,
      "chip": "ym2612"
    },
    {
      "channel": 2,
      "note": 74,
      "start": 25.0906,
      "duration": 0.0707,
      "velocity": 127,
      "chip": "ym2612"
    },
    {
      "channel": 5,
      "note": 25,
      "start": 25.0931,
      "duration": 0.0683,
      "velocity": 127,
      "chip": "ym2612"
    },
    {
      "channel": 0,
      "note": 42,
      "start": 25.1925,
      "duration": 0.3156,
      "velocity": 107,
      "chip": "ym2612"
    },
    {
      "channel": 3,
      "note": 90,
      "start": 25.1941,
      "duration": 0.2116,
      "velocity": 97,
      "chip": "ym2612"
    },
    {
      "channel": 1,
      "note": 95,
      "start": 25.1959,
      "duration": 0.2099,
      "velocity": 97,
      "chip": "ym2612"
    },
    {
      "channel": 2,
      "note": 74,
      "start": 25.1981,
      "duration": 0.0718,
      "velocity": 127,
      "chip": "ym2612"
    },
    {
      "channel": 5,
      "note": 42,
      "start": 25.2006,
      "duration": 0.0954,
      "velocity": 127,
      "chip": "ym2612"
    },
    {
      "channel": 4,
      "note": 117,
      "start": 25.3,
      "duration": 0.0496,
      "velocity": 99,
      "chip": "ym2612"
    },
    {
      "channel": 2,
      "note": 74,
      "start": 25.3015,
      "duration": 0.0721,
      "velocity": 127,
      "chip": "ym2612"
    },
    {
      "channel": 5,
      "note": 25,
      "start": 25.3039,
      "duration": 0.0698,
      "velocity": 127,
      "chip": "ym2612"
    },
    {
      "channel": 2,
      "note": 74,
      "start": 25.4023,
      "duration": 0.0735,
      "velocity": 127,
      "chip": "ym2612"
    },
    {
      "channel": 0,
      "note": 40,
      "start": 25.5232,
      "duration": 0.3088,
      "velocity": 107,
      "chip": "ym2612"
    },
    {
      "channel": 4,
      "note": 117,
      "start": 25.5258,
      "duration": 0.0474,
      "velocity": 99,
      "chip": "ym2612"
    },
    {
      "channel": 2,
      "note": 74,
      "start": 25.5272,
      "duration": 0.0687,
      "velocity": 127,
      "chip": "ym2612"
    },
    {
      "channel": 5,
      "note": 42,
      "start": 25.5288,
      "duration": 0.0672,
      "velocity": 127,
      "chip": "ym2612"
    },
    {
      "channel": 3,
      "note": 86,
      "start": 25.6279,
      "duration": 0.2051,
      "velocity": 97,
      "chip": "ym2612"
    },
    {
      "channel": 1,
      "note": 90,
      "start": 25.6297,
      "duration": 0.2044,
      "velocity": 97,
      "chip": "ym2612"
    },
    {
      "channel": 4,
      "note": 117,
      "start": 25.6314,
      "duration": 0.0498,
      "velocity": 99,
      "chip": "ym2612"
    },
    {
      "channel": 2,
      "note": 74,
      "start": 25.6329,
      "duration": 0.0723,
      "velocity": 127,
      "chip": "ym2612"
    },
    {
      "channel": 5,
      "note": 42,
      "start": 25.6354,
      "duration": 0.0992,
      "velocity": 127,
      "chip": "ym2612"
    },
    {
      "channel": 2,
      "note": 74,
      "start": 25.7339,
      "duration": 0.0735,
      "velocity": 127,
      "chip": "ym2612"
    },
    {
      "channel": 0,
      "note": 40,
      "start": 25.8394,
      "duration": 0.2062,
      "velocity": 107,
      "chip": "ym2612"
    },
    {
      "channel": 3,
      "note": 86,
      "start": 25.8411,
      "duration": 0.2046,
      "velocity": 97,
      "chip": "ym2612"
    },
    {
      "channel": 1,
      "note": 90,
      "start": 25.8428,
      "duration": 0.2031,
      "velocity": 97,
      "chip": "ym2612"
    },
    {
      "channel": 4,
      "note": 117,
      "start": 25.8445,
      "duration": 0.0425,
      "velocity": 99,
      "chip": "ym2612"
    },
    {
      "channel": 2,
      "note": 74,
      "start": 25.846,
      "duration": 0.0701,
      "velocity": 127,
      "chip": "ym2612"
    },
    {
      "channel": 5,
      "note": 25,
      "start": 25.8484,
      "duration": 0.0679,
      "velocity": 127,
      "chip": "ym2612"
    },
    {
      "channel": 2,
      "note": 74,
      "start": 25.9635,
      "duration": 0.0727,
      "velocity": 127,
      "chip": "ym2612"
    },
    {
      "channel": 5,
      "note": 42,
      "start": 25.9659,
      "duration": 0.0997,
      "velocity": 127,
      "chip": "ym2612"
    },
    {
      "channel": 0,
      "note": 42,
      "start": 26.0681,
      "duration": 0.3074,
      "velocity": 107,
      "chip": "ym2612"
    },
    {
      "channel": 3,
      "note": 83,
      "start": 26.0698,
      "duration": 0.2113,
      "velocity": 97,
      "chip": "ym2612"
    },
    {
      "channel": 1,
      "note": 88,
      "start": 26.0722,
      "duration": 0.2092,
      "velocity": 97,
      "chip": "ym2612"
    },
    {
      "channel": 4,
      "note": 117,
      "start": 26.0739,
      "duration": 0.0482,
      "velocity": 99,
      "chip": "ym2612"
    },
    {
      "channel": 2,
      "note": 74,
      "start": 26.0754,
      "duration": 0.0694,
      "velocity": 127,
      "chip": "ym2612"
    },
    {
      "channel": 5,
      "note": 25,
      "start": 26.077,
      "duration": 0.0983,
      "velocity": 127,
      "chip": "ym2612"
    },
    {
      "channel": 2,
      "note": 74,
      "start": 26.1747,
      "duration": 0.0731,
      "velocity": 127,
      "chip": "ym2612"
    },
    {
      "channel": 4,
      "note": 117,
      "start": 26.2777,
      "duration": 0.0496,
      "velocity": 99,
      "chip": "ym2612"
    },
    {
      "channel": 2,
      "note": 74,
      "start": 26.2793,
      "duration": 0.0714,
      "velocity": 127,
      "chip": "ym2612"
    },
    {
      "channel": 0,
      "note": 47,
      "start": 26.3794,
      "duration": 0.318,
      "velocity": 107,
      "chip": "ym2612"
    },
    {
      "channel": 2,
      "note": 74,
      "start": 26.3824,
      "duration": 0.0716,
      "velocity": 127,
      "chip": "ym2612"
    },
    {
      "channel": 5,
      "note": 25,
      "start": 26.3848,
      "duration": 0.0693,
      "velocity": 127,
      "chip": "ym2612"
    },
    {
      "channel": 3,
      "note": 86,
      "start": 26.502,
      "duration": 0.2066,
      "velocity": 97,
      "chip": "ym2612"
    },
    {
      "channel": 1,
      "note": 90,
      "start": 26.5037,
      "duration": 0.2059,
      "velocity": 97,
      "chip": "ym2612"
    },
    {
      "channel": 4,
      "note": 117,
      "start": 26.5061,
      "duration": 0.0442,
      "velocity": 99,
      "chip": "ym2612"
    },
    {
      "channel": 2,
      "note": 74,
      "start": 26.5076,
      "duration": 0.0718,
      "velocity": 127,
      "chip": "ym2612"
    },
    {
      "channel": 5,
      "note": 42,
      "start": 26.51,
      "duration": 0.0995,
      "velocity": 127,
      "chip": "ym2612"
    },
    {
      "channel": 2,
      "note": 74,
      "start": 26.6088,
      "duration": 0.0735,
      "velocity": 127,
      "chip": "ym2612"
    },
    {
      "channel": 0,
      "note": 47,
      "start": 26.7135,
      "duration": 0.2127,
      "velocity": 107,
      "chip": "ym2612"
    },
    {
      "channel": 3,
      "note": 86,
      "start": 26.7153,
      "duration": 0.2111,
      "velocity": 97,
      "chip": "ym2612"
    },
    {
      "channel": 1,
      "note": 90,
      "start": 26.717,
      "duration": 0.2095,
      "velocity": 97,
      "chip": "ym2612"
    },
    {
      "channel": 4,
      "note": 117,
      "start": 26.7187,
      "duration": 0.0489,
      "velocity": 99,
      "chip": "ym2612"
    },
    {
      "channel": 2,
      "note": 74,
      "start": 26.7202,
      "duration": 0.0708,
      "velocity": 127,
      "chip": "ym2612"
    },
    {
      "channel": 4,
      "note": 117,
      "start": 26.8217,
      "duration": 0.0431,
      "velocity": 99,
      "chip": "ym2612"
    },
    {
      "channel": 2,
      "note": 74,
      "start": 26.8233,
      "duration": 0.0706,
      "velocity": 127,
      "chip": "ym2612"
    },
    {
      "channel": 5,
      "note": 25,
      "start": 26.8257,
      "duration": 0.0683,
      "velocity": 127,
      "chip": "ym2612"
    },
    {
      "channel": 0,
      "note": 42,
      "start": 26.9422,
      "duration": 0.205,
      "velocity": 107,
      "chip": "ym2612"
    },
    {
      "channel": 3,
      "note": 83,
      "start": 26.9439,
      "duration": 0.2043,
      "velocity": 97,
      "chip": "ym2612"
    },
    {
      "channel": 1,
      "note": 88,
      "start": 26.9456,
      "duration": 0.2036,
      "velocity": 97,
      "chip": "ym2612"
    },
    {
      "channel": 2,
      "note": 74,
      "start": 26.9478,
      "duration": 0.0719,
      "velocity": 127,
      "chip": "ym2612"
    },
    {
      "channel": 5,
      "note": 42,
      "start": 26.9503,
      "duration": 0.0954,
      "velocity": 127,
      "chip": "ym2612"
    },
    {
      "channel": 4,
      "note": 117,
      "start": 27.0497,
      "duration": 0.0495,
      "velocity": 99,
      "chip": "ym2612"
    },
    {
      "channel": 2,
      "note": 74,
      "start": 27.0512,
      "duration": 0.0721,
      "velocity": 127,
      "chip": "ym2612"
    },
    {
      "channel": 5,
      "note": 25,
      "start": 27.0536,
      "duration": 0.0698,
      "velocity": 127,
      "chip": "ym2612"
    },
    {
      "channel": 0,
      "note": 40,
      "start": 27.152,
      "duration": 0.201,
      "velocity": 107,
      "chip": "ym2612"
    },
    {
      "channel": 3,
      "note": 86,
      "start": 27.1535,
      "duration": 0.2005,
      "velocity": 97,
      "chip": "ym2612"
    },
    {
      "channel": 1,
      "note": 90,
      "start": 27.1559,
      "duration": 0.1998,
      "velocity": 97,
      "chip": "ym2612"
    },
    {
      "channel": 2,
      "note": 74,
      "start": 27.1581,
      "duration": 0.0674,
      "velocity": 127,
      "chip": "ym2612"
    },
    {
      "channel": 4,
      "note": 117,
      "start": 27.2564,
      "duration": 0.043,
      "velocity": 99,
      "chip": "ym2612"
    },
    {
      "channel": 2,
      "note": 74,
      "start": 27.2579,
      "duration": 0.0706,
      "velocity": 127,
      "chip": "ym2612"
    },
    {
      "channel": 5,
      "note": 42,
      "start": 27.2595,
      "duration": 0.0692,
      "velocity": 127,
      "chip": "ym2612"
    },
    {
      "channel": 0,
      "note": 40,
      "start": 27.3605,
      "duration": 0.2118,
      "velocity": 107,
      "chip": "ym2612"
    },
    {
      "channel": 3,
      "note": 90,
      "start": 27.3622,
      "duration": 0.2103,
      "velocity": 97,
      "chip": "ym2612"
    },
    {
      "channel": 1,
      "note": 92,
      "start": 27.3639,
      "duration": 0.2087,
      "velocity": 97,
      "chip": "ym2612"
    },
    {
      "channel": 4,
      "note": 117,
      "start": 27.3656,
      "duration": 0.0482,
      "velocity": 99,
      "chip": "ym2612"
    },
    {
      "channel": 2,
      "note": 74,
      "start": 27.3672,
      "duration": 0.07,
      "velocity": 127,
      "chip": "ym2612"
    },
    {
      "channel": 5,
      "note": 42,
      "start": 27.3696,
      "duration": 0.0966,
      "velocity": 127,
      "chip": "ym2612"
    },
    {
      "channel": 2,
      "note": 74,
      "start": 27.4837,
      "duration": 0.0735,
      "velocity": 127,
      "chip": "ym2612"
    },
    {
      "channel": 3,
      "note": 92,
      "start": 27.5888,
      "duration": 0.206,
      "velocity": 97,
      "chip": "ym2612"
    },
    {
      "channel": 1,
      "note": 95,
      "start": 27.5905,
      "duration": 0.2055,
      "velocity": 97,
      "chip": "ym2612"
    },
    {
      "channel": 4,
      "note": 117,
      "start": 27.5922,
      "duration": 0.0445,
      "velocity": 99,
      "chip": "ym2612"
    },
    {
      "channel": 2,
      "note": 74,
      "start": 27.5937,
      "duration": 0.0722,
      "velocity": 127,
      "chip": "ym2612"
    },
    {
      "channel": 5,
      "note": 25,
      "start": 27.5961,
      "duration": 0.0699,
      "velocity": 127,
      "chip": "ym2612"
    },
    {
      "channel": 2,
      "note": 74,
      "start": 27.6961,
      "duration": 0.0727,
      "velocity": 127,
      "chip": "ym2612"
    },
    {
      "channel": 5,
      "note": 42,
      "start": 27.6985,
      "duration": 0.1001,
      "velocity": 127,
      "chip": "ym2612"
    },
    {
      "channel": 0,
      "note": 42,
      "start": 27.8012,
      "duration": 0.3144,
      "velocity": 107,
      "chip": "ym2612"
    },
    {
      "channel": 3,
      "note": 95,
      "start": 27.8029,
      "duration": 0.2103,
      "velocity": 97,
      "chip": "ym2612"
    },
    {
      "channel": 1,
      "note": 98,
      "start": 27.8052,
      "duration": 0.2081,
      "velocity": 97,
      "chip": "ym2612"
    },
    {
      "channel": 4,
      "note": 117,
      "start": 27.8069,
      "duration": 0.0471,
      "velocity": 99,
      "chip": "ym2612"
    },
    {
      "channel": 2,
      "note": 74,
      "start": 27.8084,
      "duration": 0.069,
      "velocity": 127,
      "chip": "ym2612"
    },
    {
      "channel": 5,
      "note": 25,
      "start": 27.81,
      "duration": 0.0971,
      "velocity": 127,
      "chip": "ym2612"
    },
    {
      "channel": 2,
      "note": 74,
      "start": 27.9247,
      "duration": 0.0728,
      "velocity": 127,
      "chip": "ym2612"
    },
    {
      "channel": 3,
      "note": 97,
      "start": 28.028,
      "duration": 0.2,
      "velocity": 97,
      "chip": "ym2612"
    },
    {
      "channel": 1,
      "note": 102,
      "start": 28.0298,
      "duration": 0.1992,
      "velocity": 97,
      "chip": "ym2612"
    },
    {
      "channel": 4,
      "note": 117,
      "start": 28.0315,
      "duration": 0.0455,
      "velocity": 99,
      "chip": "ym2612"
    },
    {
      "channel": 2,
      "note": 74,
      "start": 28.033,
      "duration": 0.0674,
      "velocity": 127,
      "chip": "ym2612"
    },
    {
      "channel": 0,
      "note": 45,
      "start": 28.1294,
      "duration": 0.3179,
      "velocity": 107,
      "chip": "ym2612"
    },
    {
      "channel": 2,
      "note": 74,
      "start": 28.1324,
      "duration": 0.0709,
      "velocity": 127,
      "chip": "ym2612"
    },
    {
      "channel": 5,
      "note": 25,
      "start": 28.1348,
      "duration": 0.0687,
      "velocity": 127,
      "chip": "ym2612"
    },
    {
      "channel": 3,
      "note": 93,
      "start": 28.2342,
      "duration": 0.2078,
      "velocity": 97,
      "chip": "ym2612"
    },
    {
      "channel": 1,
      "note": 100,
      "start": 28.2359,
      "duration": 0.2062,
      "velocity": 97,
      "chip": "ym2612"
    },
    {
      "channel": 4,
      "note": 117,
      "start": 28.2383,
      "duration": 0.0447,
      "velocity": 99,
      "chip": "ym2612"
    },
    {
      "channel": 2,
      "note": 74,
      "start": 28.2398,
      "duration": 0.0722,
      "velocity": 127,
      "chip": "ym2612"
    },
    {
      "channel": 5,
      "note": 42,
      "start": 28.2422,
      "duration": 0.0999,
      "velocity": 127,
      "chip": "ym2612"
    },
    {
      "channel": 2,
      "note": 74,
      "start": 28.3414,
      "duration": 0.0735,
      "velocity": 127,
      "chip": "ym2612"
    },
    {
      "channel": 0,
      "note": 45,
      "start": 28.4633,
      "duration": 0.2049,
      "velocity": 107,
      "chip": "ym2612"
    },
    {
      "channel": 3,
      "note": 90,
      "start": 28.465,
      "duration": 0.2043,
      "velocity": 97,
      "chip": "ym2612"
    },
    {
      "channel": 1,
      "note": 97,
      "start": 28.4668,
      "duration": 0.2035,
      "velocity": 97,
      "chip": "ym2612"
    },
    {
      "channel": 4,
      "note": 117,
      "start": 28.4685,
      "duration": 0.0488,
      "velocity": 99,
      "chip": "ym2612"
    },
    {
      "channel": 2,
      "note": 74,
      "start": 28.47,
      "duration": 0.0708,
      "velocity": 127,
      "chip": "ym2612"
    },
    {
      "channel": 4,
      "note": 117,
      "start": 28.5709,
      "duration": 0.0437,
      "velocity": 99,
      "chip": "ym2612"
    },
    {
      "channel": 2,
      "note": 74,
      "start": 28.5729,
      "duration": 0.0707,
      "velocity": 127,
      "chip": "ym2612"
    },
    {
      "channel": 5,
      "note": 25,
      "start": 28.5754,
      "duration": 0.0684,
      "velocity": 127,
      "chip": "ym2612"
    },
    {
      "channel": 0,
      "note": 42,
      "start": 28.6747,
      "duration": 0.3158,
      "velocity": 107,
      "chip": "ym2612"
    },
    {
      "channel": 3,
      "note": 88,
      "start": 28.6764,
      "duration": 0.2123,
      "velocity": 97,
      "chip": "ym2612"
    },
    {
      "channel": 1,
      "note": 93,
      "start": 28.6781,
      "duration": 0.2107,
      "velocity": 97,
      "chip": "ym2612"
    },
    {
      "channel": 2,
      "note": 74,
      "start": 28.6803,
      "duration": 0.072,
      "velocity": 127,
      "chip": "ym2612"
    },
    {
      "channel": 5,
      "note": 42,
      "start": 28.6828,
      "duration": 0.0954,
      "velocity": 127,
      "chip": "ym2612"
    },
    {
      "channel": 4,
      "note": 117,
      "start": 28.7823,
      "duration": 0.0496,
      "velocity": 99,
      "chip": "ym2612"
    },
    {
      "channel": 2,
      "note": 74,
      "start": 28.7838,
      "duration": 0.0721,
      "velocity": 127,
      "chip": "ym2612"
    },
    {
      "channel": 5,
      "note": 25,
      "start": 28.7862,
      "duration": 0.0698,
      "velocity": 127,
      "chip": "ym2612"
    },
    {
      "channel": 2,
      "note": 74,
      "start": 28.8846,
      "duration": 0.0735,
      "velocity": 127,
      "chip": "ym2612"
    },
    {
      "channel": 0,
      "note": 40,
      "start": 29.0056,
      "duration": 0.3088,
      "velocity": 107,
      "chip": "ym2612"
    },
    {
      "channel": 4,
      "note": 117,
      "start": 29.0081,
      "duration": 0.0474,
      "velocity": 99,
      "chip": "ym2612"
    },
    {
      "channel": 2,
      "note": 74,
      "start": 29.0096,
      "duration": 0.0686,
      "velocity": 127,
      "chip": "ym2612"
    },
    {
      "channel": 5,
      "note": 42,
      "start": 29.0112,
      "duration": 0.0672,
      "velocity": 127,
      "chip": "ym2612"
    },
    {
      "channel": 3,
      "note": 85,
      "start": 29.1102,
      "duration": 0.2052,
      "velocity": 97,
      "chip": "ym2612"
    },
    {
      "channel": 1,
      "note": 90,
      "start": 29.112,
      "duration": 0.2044,
      "velocity": 97,
      "chip": "ym2612"
    },
    {
      "channel": 4,
      "note": 117,
      "start": 29.1137,
      "duration": 0.0498,
      "velocity": 99,
      "chip": "ym2612"
    },
    {
      "channel": 2,
      "note": 74,
      "start": 29.1152,
      "duration": 0.0717,
      "velocity": 127,
      "chip": "ym2612"
    },
    {
      "channel": 5,
      "note": 42,
      "start": 29.1177,
      "duration": 0.0993,
      "velocity": 127,
      "chip": "ym2612"
    },
    {
      "channel": 2,
      "note": 74,
      "start": 29.2163,
      "duration": 0.0742,
      "velocity": 127,
      "chip": "ym2612"
    },
    {
      "channel": 0,
      "note": 40,
      "start": 29.3217,
      "duration": 0.2062,
      "velocity": 107,
      "chip": "ym2612"
    },
    {
      "channel": 3,
      "note": 85,
      "start": 29.3235,
      "duration": 0.2046,
      "velocity": 97,
      "chip": "ym2612"
    },
    {
      "channel": 1,
      "note": 90,
      "start": 29.3252,
      "duration": 0.2031,
      "velocity": 97,
      "chip": "ym2612"
    },
    {
      "channel": 4,
      "note": 117,
      "start": 29.3269,
      "duration": 0.0425,
      "velocity": 99,
      "chip": "ym2612"
    },
    {
      "channel": 2,
      "note": 74,
      "start": 29.3284,
      "duration": 0.07,
      "velocity": 127,
      "chip": "ym2612"
    },
    {
      "channel": 5,
      "note": 25,
      "start": 29.3308,
      "duration": 0.0678,
      "velocity": 127,
      "chip": "ym2612"
    },
    {
      "channel": 2,
      "note": 74,
      "start": 29.4459,
      "duration": 0.0727,
      "velocity": 127,
      "chip": "ym2612"
    },
    {
      "channel": 5,
      "note": 42,
      "start": 29.4483,
      "duration": 0.0999,
      "velocity": 127,
      "chip": "ym2612"
    },
    {
      "channel": 0,
      "note": 42,
      "start": 29.5507,
      "duration": 0.3074,
      "velocity": 107,
      "chip": "ym2612"
    },
    {
      "channel": 3,
      "note": 81,
      "start": 29.5524,
      "duration": 0.203,
      "velocity": 97,
      "chip": "ym2612"
    },
    {
      "channel": 1,
      "note": 88,
      "start": 29.5542,
      "duration": 0.2022,
      "velocity": 97,
      "chip": "ym2612"
    },
    {
      "channel": 4,
      "note": 117,
      "start": 29.5565,
      "duration": 0.0473,
      "velocity": 99,
      "chip": "ym2612"
    },
    {
      "channel": 2,
      "note": 74,
      "start": 29.558,
      "duration": 0.0691,
      "velocity": 127,
      "chip": "ym2612"
    },
    {
      "channel": 5,
      "note": 25,
      "start": 29.5596,
      "duration": 0.0983,
      "velocity": 127,
      "chip": "ym2612"
    },
    {
      "channel": 2,
      "note": 74,
      "start": 29.6572,
      "duration": 0.0729,
      "velocity": 127,
      "chip": "ym2612"
    },
    {
      "channel": 3,
      "note": 93,
      "start": 29.7607,
      "duration": 0.2081,
      "velocity": 97,
      "chip": "ym2612"
    },
    {
      "channel": 1,
      "note": 90,
      "start": 29.7624,
      "duration": 0.2066,
      "velocity": 97,
      "chip": "ym2612"
    },
    {
      "channel": 4,
      "note": 117,
      "start": 29.7641,
      "duration": 0.0456,
      "velocity": 99,
      "chip": "ym2612"
    },
    {
      "channel": 2,
      "note": 74,
      "start": 29.7656,
      "duration": 0.0674,
      "velocity": 127,
      "chip": "ym2612"
    },
    {
      "channel": 0,
      "note": 45,
      "start": 29.8621,
      "duration": 0.3178,
      "velocity": 107,
      "chip": "ym2612"
    },
    {
      "channel": 2,
      "note": 74,
      "start": 29.8651,
      "duration": 0.0709,
      "velocity": 127,
      "chip": "ym2612"
    },
    {
      "channel": 5,
      "note": 25,
      "start": 29.8675,
      "duration": 0.0686,
      "velocity": 127,
      "chip": "ym2612"
    },
    {
      "channel": 3,
      "note": 90,
      "start": 29.9839,
      "duration": 0.207,
      "velocity": 97,
      "chip": "ym2612"
    },
    {
      "channel": 1,
      "note": 88,
      "start": 29.9857,
      "duration": 0.2063,
      "velocity": 97,
      "chip": "ym2612"
    },
    {
      "channel": 4,
      "note": 117,
      "start": 29.9874,
      "duration": 0.0453,
      "velocity": 99,
      "chip": "ym2612"
    },
    {
      "channel": 2,
      "note": 74,
      "start": 29.9895,
      "duration": 0.0722,
      "velocity": 127,
      "chip": "ym2612"
    },
    {
      "channel": 5,
      "note": 42,
      "start": 29.9919,
      "duration": 0.1001,
      "velocity": 127,
      "chip": "ym2612"
    },
    {
      "channel": 2,
      "note": 74,
      "start": 30.0914,
      "duration": 0.0733,
      "velocity": 127,
      "chip": "ym2612"
    },
    {
      "channel": 0,
      "note": 45,
      "start": 30.1959,
      "duration": 0.2127,
      "velocity": 107,
      "chip": "ym2612"
    },
    {
      "channel": 3,
      "note": 88,
      "start": 30.1976,
      "duration": 0.2111,
      "velocity": 97,
      "chip": "ym2612"
    },
    {
      "channel": 1,
      "note": 85,
      "start": 30.1993,
      "duration": 0.2095,
      "velocity": 97,
      "chip": "ym2612"
    },
    {
      "channel": 4,
      "note": 117,
      "start": 30.2011,
      "duration": 0.0489,
      "velocity": 99,
      "chip": "ym2612"
    },
    {
      "channel": 2,
      "note": 74,
      "start": 30.2025,
      "duration": 0.0713,
      "velocity": 127,
      "chip": "ym2612"
    },
    {
      "channel": 4,
      "note": 117,
      "start": 30.3035,
      "duration": 0.0437,
      "velocity": 99,
      "chip": "ym2612"
    },
    {
      "channel": 2,
      "note": 74,
      "start": 30.3056,
      "duration": 0.0707,
      "velocity": 127,
      "chip": "ym2612"
    },
    {
      "channel": 5,
      "note": 25,
      "start": 30.3081,
      "duration": 0.0683,
      "velocity": 127,
      "chip": "ym2612"
    },
    {
      "channel": 0,
      "note": 42,
      "start": 30.4244,
      "duration": 0.2051,
      "velocity": 107,
      "chip": "ym2612"
    },
    {
      "channel": 3,
      "note": 85,
      "start": 30.426,
      "duration": 0.2124,
      "velocity": 97,
      "chip": "ym2612"
    },
    {
      "channel": 1,
      "note": 81,
      "start": 30.4278,
      "duration": 0.2108,
      "velocity": 97,
      "chip": "ym2612"
    },
    {
      "channel": 2,
      "note": 74,
      "start": 30.43,
      "duration": 0.0721,
      "velocity": 127,
      "chip": "ym2612"
    },
    {
      "channel": 5,
      "note": 42,
      "start": 30.4324,
      "duration": 0.0956,
      "velocity": 127,
      "chip": "ym2612"
    },
    {
      "channel": 4,
      "note": 117,
      "start": 30.532,
      "duration": 0.0496,
      "velocity": 99,
      "chip": "ym2612"
    },
    {
      "channel": 2,
      "note": 74,
      "start": 30.5335,
      "duration": 0.0721,
      "velocity": 127,
      "chip": "ym2612"
    },
    {
      "channel": 5,
      "note": 25,
      "start": 30.5359,
      "duration": 0.0699,
      "velocity": 127,
      "chip": "ym2612"
    },
    {
      "channel": 0,
      "note": 40,
      "start": 30.6328,
      "duration": 0.2029,
      "velocity": 107,
      "chip": "ym2612"
    },
    {
      "channel": 2,
      "note": 74,
      "start": 30.6359,
      "duration": 0.0721,
      "velocity": 127,
      "chip": "ym2612"
    },
    {
      "channel": 4,
      "note": 117,
      "start": 30.7388,
      "duration": 0.0429,
      "velocity": 99,
      "chip": "ym2612"
    },
    {
      "channel": 2,
      "note": 74,
      "start": 30.7402,
      "duration": 0.071,
      "velocity": 127,
      "chip": "ym2612"
    },
    {
      "channel": 5,
      "note": 42,
      "start": 30.7418,
      "duration": 0.0695,
      "velocity": 127,
      "chip": "ym2612"
    },
    {
      "channel": 0,
      "note": 40,
      "start": 30.8417,
      "duration": 0.2134,
      "velocity": 107,
      "chip": "ym2612"
    },
    {
      "channel": 4,
      "note": 117,
      "start": 30.8444,
      "duration": 0.0517,
      "velocity": 99,
      "chip": "ym2612"
    },
    {
      "channel": 2,
      "note": 74,
      "start": 30.8459,
      "duration": 0.0735,
      "velocity": 127,
      "chip": "ym2612"
    },
    {
      "channel": 5,
      "note": 42,
      "start": 30.8483,
      "duration": 0.1003,
      "velocity": 127,
      "chip": "ym2612"
    },
    {
      "channel": 2,
      "note": 74,
      "start": 30.9665,
      "duration": 0.0741,
      "velocity": 127,
      "chip": "ym2612"
    },
    {
      "channel": 4,
      "note": 117,
      "start": 31.0701,
      "duration": 0.0433,
      "velocity": 99,
      "chip": "ym2612"
    },
    {
      "channel": 2,
      "note": 74,
      "start": 31.0722,
      "duration": 0.0703,
      "velocity": 127,
      "chip": "ym2612"
    },
    {
      "channel": 5,
      "note": 25,
      "start": 31.0746,
      "duration": 0.068,
      "velocity": 127,
      "chip": "ym2612"
    },
    {
      "channel": 2,
      "note": 74,
      "start": 31.1731,
      "duration": 0.0727,
      "velocity": 127,
      "chip": "ym2612"
    },
    {
      "channel": 5,
      "note": 42,
      "start": 31.1756,
      "duration": 0.1005,
      "velocity": 127,
      "chip": "ym2612"
    },
    {
      "channel": 0,
      "note": 42,
      "start": 31.2786,
      "duration": 0.3193,
      "velocity": 107,
      "chip": "ym2612"
    },
    {
      "channel": 3,
      "note": 81,
      "start": 31.2813,
      "duration": 0.2142,
      "velocity": 123,
      "chip": "ym2612"
    },
    {
      "channel": 1,
      "note": 78,
      "start": 31.2841,
      "duration": 0.2116,
      "velocity": 123,
      "chip": "ym2612"
    },
    {
      "channel": 2,
      "note": 74,
      "start": 31.2863,
      "duration": 0.0734,
      "velocity": 127,
      "chip": "ym2612"
    },
    {
      "channel": 5,
      "note": 25,
      "start": 31.2885,
      "duration": 0.101,
      "velocity": 127,
      "chip": "ym2612"
    },
    {
      "channel": 2,
      "note": 74,
      "start": 31.4069,
      "duration": 0.0729,
      "velocity": 127,
      "chip": "ym2612"
    },
    {
      "channel": 3,
      "note": 83,
      "start": 31.5094,
      "duration": 0.2009,
      "velocity": 123,
      "chip": "ym2612"
    },
    {
      "channel": 1,
      "note": 88,
      "start": 31.5111,
      "duration": 0.2002,
      "velocity": 123,
      "chip": "ym2612"
    },
    {
      "channel": 2,
      "note": 74,
      "start": 31.5133,
      "duration": 0.0695,
      "velocity": 127,
      "chip": "ym2612"
    },
    {
      "channel": 0,
      "note": 45,
      "start": 31.6118,
      "duration": 0.312,
      "velocity": 107,
      "chip": "ym2612"
    },
    {
      "channel": 2,
      "note": 74,
      "start": 31.6148,
      "duration": 0.0709,
      "velocity": 127,
      "chip": "ym2612"
    },
    {
      "channel": 5,
      "note": 25,
      "start": 31.6172,
      "duration": 0.0686,
      "velocity": 127,
      "chip": "ym2612"
    },
    {
      "channel": 3,
      "note": 85,
      "start": 31.7155,
      "duration": 0.2031,
      "velocity": 123,
      "chip": "ym2612"
    },
    {
      "channel": 1,
      "note": 90,
      "start": 31.7172,
      "duration": 0.2016,
      "velocity": 123,
      "chip": "ym2612"
    },
    {
      "channel": 2,
      "note": 74,
      "start": 31.7194,
      "duration": 0.0698,
      "velocity": 127,
      "chip": "ym2612"
    },
    {
      "channel": 5,
      "note": 42,
      "start": 31.7224,
      "duration": 0.0963,
      "velocity": 127,
      "chip": "ym2612"
    },
    {
      "channel": 2,
      "note": 74,
      "start": 31.818,
      "duration": 0.0735,
      "velocity": 127,
      "chip": "ym2612"
    },
    {
      "channel": 0,
      "note": 45,
      "start": 31.9389,
      "duration": 0.2008,
      "velocity": 107,
      "chip": "ym2612"
    },
    {
      "channel": 3,
      "note": 88,
      "start": 31.9406,
      "duration": 0.0613,
      "velocity": 123,
      "chip": "ym2612"
    },
    {
      "channel": 1,
      "note": 93,
      "start": 31.9423,
      "duration": 0.0607,
      "velocity": 123,
      "chip": "ym2612"
    },
    {
      "channel": 2,
      "note": 74,
      "start": 31.9444,
      "duration": 0.0678,
      "velocity": 127,
      "chip": "ym2612"
    },
    {
      "channel": 3,
      "note": 85,
      "start": 32.006,
      "duration": 0.0646,
      "velocity": 123,
      "chip": "ym2612"
    },
    {
      "channel": 1,
      "note": 90,
      "start": 32.0077,
      "duration": 0.0645,
      "velocity": 123,
      "chip": "ym2612"
    },
    {
      "channel": 2,
      "note": 74,
      "start": 32.0418,
      "duration": 0.0727,
      "velocity": 127,
      "chip": "ym2612"
    },
    {
      "channel": 5,
      "note": 25,
      "start": 32.0442,
      "duration": 0.0705,
      "velocity": 127,
      "chip": "ym2612"
    },
    {
      "channel": 3,
      "note": 88,
      "start": 32.0745,
      "duration": 0.0663,
      "velocity": 123,
      "chip": "ym2612"
    },
    {
      "channel": 1,
      "note": 93,
      "start": 32.0763,
      "duration": 0.0656,
      "velocity": 123,
      "chip": "ym2612"
    },
    {
      "channel": 0,
      "note": 42,
      "start": 32.1457,
      "duration": 0.3157,
      "velocity": 107,
      "chip": "ym2612"
    },
    {
      "channel": 3,
      "note": 85,
      "start": 32.1474,
      "duration": 0.2034,
      "velocity": 123,
      "chip": "ym2612"
    },
    {
      "channel": 1,
      "note": 90,
      "start": 32.149,
      "duration": 0.2027,
      "velocity": 123,
      "chip": "ym2612"
    },
    {
      "channel": 2,
      "note": 74,
      "start": 32.1512,
      "duration": 0.0725,
      "velocity": 127,
      "chip": "ym2612"
    },
    {
      "channel": 5,
      "note": 42,
      "start": 32.1537,
      "duration": 0.0945,
      "velocity": 127,
      "chip": "ym2612"
    },
    {
      "channel": 2,
      "note": 74,
      "start": 32.2527,
      "duration": 0.0735,
      "velocity": 127,
      "chip": "ym2612"
    },
    {
      "channel": 5,
      "note": 25,
      "start": 32.2557,
      "duration": 0.0705,
      "velocity": 127,
      "chip": "ym2612"
    },
    {
      "channel": 3,
      "note": 83,
      "start": 32.3557,
      "duration": 0.209,
      "velocity": 123,
      "chip": "ym2612"
    },
    {
      "channel": 1,
      "note": 88,
      "start": 32.3574,
      "duration": 0.2075,
      "velocity": 123,
      "chip": "ym2612"
    },
    {
      "channel": 2,
      "note": 74,
      "start": 32.3596,
      "duration": 0.0694,
      "velocity": 127,
      "chip": "ym2612"
    },
    {
      "channel": 0,
      "note": 40,
      "start": 32.4753,
      "duration": 0.3099,
      "velocity": 107,
      "chip": "ym2612"
    },
    {
      "channel": 2,
      "note": 74,
      "start": 32.4783,
      "duration": 0.0708,
      "velocity": 127,
      "chip": "ym2612"
    },
    {
      "channel": 5,
      "note": 42,
      "start": 32.4799,
      "duration": 0.0693,
      "velocity": 127,
      "chip": "ym2612"
    },
    {
      "channel": 3,
      "note": 80,
      "start": 32.5797,
      "duration": 0.2066,
      "velocity": 123,
      "chip": "ym2612"
    },
    {
      "channel": 1,
      "note": 85,
      "start": 32.5813,
      "duration": 0.206,
      "velocity": 123,
      "chip": "ym2612"
    },
    {
      "channel": 2,
      "note": 74,
      "start": 32.5835,
      "duration": 0.0742,
      "velocity": 127,
      "chip": "ym2612"
    },
    {
      "channel": 5,
      "note": 42,
      "start": 32.586,
      "duration": 0.1025,
      "velocity": 127,
      "chip": "ym2612"
    },
    {
      "channel": 2,
      "note": 74,
      "start": 32.6871,
      "duration": 0.0735,
      "velocity": 127,
      "chip": "ym2612"
    },
    {
      "channel": 0,
      "note": 40,
      "start": 32.7917,
      "duration": 0.2072,
      "velocity": 107,
      "chip": "ym2612"
    },
    {
      "channel": 3,
      "note": 78,
      "start": 32.7933,
      "duration": 0.2057,
      "velocity": 123,
      "chip": "ym2612"
    },
    {
      "channel": 1,
      "note": 83,
      "start": 32.795,
      "duration": 0.2041,
      "velocity": 123,
      "chip": "ym2612"
    },
    {
      "channel": 2,
      "note": 74,
      "start": 32.7972,
      "duration": 0.0721,
      "velocity": 127,
      "chip": "ym2612"
    },
    {
      "channel": 5,
      "note": 25,
      "start": 32.7995,
      "duration": 0.0699,
      "velocity": 127,
      "chip": "ym2612"
    },
    {
      "channel": 2,
      "note": 74,
      "start": 32.916,
      "duration": 0.074,
      "velocity": 127,
      "chip": "ym2612"
    },
    {
      "channel": 5,
      "note": 42,
      "start": 32.9185,
      "duration": 0.0994,
      "velocity": 127,
      "chip": "ym2612"
    },
    {
      "channel": 0,
      "note": 42,
      "start": 33.0204,
      "duration": 0.308,
      "velocity": 107,
      "chip": "ym2612"
    },
    {
      "channel": 3,
      "note": 76,
      "start": 33.0227,
      "duration": 0.2029,
      "velocity": 123,
      "chip": "ym2612"
    },
    {
      "channel": 1,
      "note": 81,
      "start": 33.0244,
      "duration": 0.2022,
      "velocity": 123,
      "chip": "ym2612"
    },
    {
      "channel": 2,
      "note": 74,
      "start": 33.0266,
      "duration": 0.0714,
      "velocity": 127,
      "chip": "ym2612"
    },
    {
      "channel": 5,
      "note": 25,
      "start": 33.0282,
      "duration": 0.1,
      "velocity": 127,
      "chip": "ym2612"
    },
    {
      "channel": 2,
      "note": 74,
      "start": 33.1275,
      "duration": 0.0735,
      "velocity": 127,
      "chip": "ym2612"
    },
    {
      "channel": 3,
      "note": 78,
      "start": 33.23,
      "duration": 0.2097,
      "velocity": 123,
      "chip": "ym2612"
    },
    {
      "channel": 1,
      "note": 83,
      "start": 33.2317,
      "duration": 0.2081,
      "velocity": 123,
      "chip": "ym2612"
    },
    {
      "channel": 2,
      "note": 74,
      "start": 33.2338,
      "duration": 0.07,
      "velocity": 127,
      "chip": "ym2612"
    },
    {
      "channel": 0,
      "note": 45,
      "start": 33.3323,
      "duration": 0.3185,
      "velocity": 107,
      "chip": "ym2612"
    },
    {
      "channel": 2,
      "note": 74,
      "start": 33.3353,
      "duration": 0.0719,
      "velocity": 127,
      "chip": "ym2612"
    },
    {
      "channel": 5,
      "note": 25,
      "start": 33.3383,
      "duration": 0.069,
      "velocity": 127,
      "chip": "ym2612"
    },
    {
      "channel": 3,
      "note": 80,
      "start": 33.4539,
      "duration": 0.2074,
      "velocity": 123,
      "chip": "ym2612"
    },
    {
      "channel": 1,
      "note": 85,
      "start": 33.4562,
      "duration": 0.2061,
      "velocity": 123,
      "chip": "ym2612"
    },
    {
      "channel": 2,
      "note": 74,
      "start": 33.4584,
      "duration": 0.0742,
      "velocity": 127,
      "chip": "ym2612"
    },
    {
      "channel": 5,
      "note": 42,
      "start": 33.4607,
      "duration": 0.102,
      "velocity": 127,
      "chip": "ym2612"
    },
    {
      "channel": 2,
      "note": 74,
      "start": 33.562,
      "duration": 0.0735,
      "velocity": 127,
      "chip": "ym2612"
    },
    {
      "channel": 0,
      "note": 45,
      "start": 33.6652,
      "duration": 0.2085,
      "velocity": 107,
      "chip": "ym2612"
    },
    {
      "channel": 3,
      "note": 83,
      "start": 33.6668,
      "duration": 0.062,
      "velocity": 123,
      "chip": "ym2612"
    },
    {
      "channel": 1,
      "note": 88,
      "start": 33.6686,
      "duration": 0.0612,
      "velocity": 123,
      "chip": "ym2612"
    },
    {
      "channel": 2,
      "note": 74,
      "start": 33.6707,
      "duration": 0.0684,
      "velocity": 127,
      "chip": "ym2612"
    },
    {
      "channel": 3,
      "note": 80,
      "start": 33.7322,
      "duration": 0.0653,
      "velocity": 123,
      "chip": "ym2612"
    },
    {
      "channel": 1,
      "note": 85,
      "start": 33.7339,
      "duration": 0.0646,
      "velocity": 123,
      "chip": "ym2612"
    },
    {
      "channel": 2,
      "note": 74,
      "start": 33.768,
      "duration": 0.0734,
      "velocity": 127,
      "chip": "ym2612"
    },
    {
      "channel": 5,
      "note": 25,
      "start": 33.7705,
      "duration": 0.071,
      "velocity": 127,
      "chip": "ym2612"
    },
    {
      "channel": 3,
      "note": 83,
      "start": 33.8008,
      "duration": 0.0677,
      "velocity": 123,
      "chip": "ym2612"
    },
    {
      "channel": 1,
      "note": 88,
      "start": 33.8025,
      "duration": 0.0661,
      "velocity": 123,
      "chip": "ym2612"
    },
    {
      "channel": 0,
      "note": 42,
      "start": 33.8896,
      "duration": 0.205,
      "velocity": 107,
      "chip": "ym2612"
    },
    {
      "channel": 3,
      "note": 80,
      "start": 33.8913,
      "duration": 0.2043,
      "velocity": 123,
      "chip": "ym2612"
    },
    {
      "channel": 1,
      "note": 85,
      "start": 33.893,
      "duration": 0.2037,
      "velocity": 123,
      "chip": "ym2612"
    },
    {
      "channel": 2,
      "note": 74,
      "start": 33.8951,
      "duration": 0.0721,
      "velocity": 127,
      "chip": "ym2612"
    },
    {
      "channel": 5,
      "note": 42,
      "start": 33.8976,
      "duration": 0.095,
      "velocity": 127,
      "chip": "ym2612"
    },
    {
      "channel": 2,
      "note": 74,
      "start": 33.9971,
      "duration": 0.073,
      "velocity": 127,
      "chip": "ym2612"
    },
    {
      "channel": 5,
      "note": 25,
      "start": 33.9995,
      "duration": 0.0708,
      "velocity": 127,
      "chip": "ym2612"
    },
    {
      "channel": 0,
      "note": 40,
      "start": 34.0995,
      "duration": 0.201,
      "velocity": 107,
      "chip": "ym2612"
    },
    {
      "channel": 3,
      "note": 78,
      "start": 34.101,
      "duration": 0.2005,
      "velocity": 123,
      "chip": "ym2612"
    },
    {
      "channel": 1,
      "note": 83,
      "start": 34.1027,
      "duration": 0.1998,
      "velocity": 123,
      "chip": "ym2612"
    },
    {
      "channel": 2,
      "note": 74,
      "start": 34.1055,
      "duration": 0.0681,
      "velocity": 127,
      "chip": "ym2612"
    },
    {
      "channel": 2,
      "note": 74,
      "start": 34.2026,
      "duration": 0.0734,
      "velocity": 127,
      "chip": "ym2612"
    },
    {
      "channel": 5,
      "note": 42,
      "start": 34.2042,
      "duration": 0.0719,
      "velocity": 127,
      "chip": "ym2612"
    },
    {
      "channel": 0,
      "note": 40,
      "start": 34.3069,
      "duration": 0.213,
      "velocity": 107,
      "chip": "ym2612"
    },
    {
      "channel": 3,
      "note": 76,
      "start": 34.3086,
      "duration": 0.2114,
      "velocity": 123,
      "chip": "ym2612"
    },
    {
      "channel": 1,
      "note": 81,
      "start": 34.3103,
      "duration": 0.2099,
      "velocity": 123,
      "chip": "ym2612"
    },
    {
      "channel": 2,
      "note": 74,
      "start": 34.3124,
      "duration": 0.0721,
      "velocity": 127,
      "chip": "ym2612"
    },
    {
      "channel": 5,
      "note": 42,
      "start": 34.3149,
      "duration": 0.0988,
      "velocity": 127,
      "chip": "ym2612"
    },
    {
      "channel": 2,
      "note": 74,
      "start": 34.4312,
      "duration": 0.0742,
      "velocity": 127,
      "chip": "ym2612"
    },
    {
      "channel": 3,
      "note": 73,
      "start": 34.5347,
      "duration": 0.2083,
      "velocity": 123,
      "chip": "ym2612"
    },
    {
      "channel": 1,
      "note": 78,
      "start": 34.5364,
      "duration": 0.2081,
      "velocity": 123,
      "chip": "ym2612"
    },
    {
      "channel": 2,
      "note": 74,
      "start": 34.5392,
      "duration": 0.0741,
      "velocity": 127,
      "chip": "ym2612"
    },
    {
      "channel": 5,
      "note": 25,
      "start": 34.5416,
      "duration": 0.0719,
      "velocity": 127,
      "chip": "ym2612"
    },
    {
      "channel": 2,
      "note": 74,
      "start": 34.6435,
      "duration": 0.0728,
      "velocity": 127,
      "chip": "ym2612"
    },
    {
      "channel": 5,
      "note": 42,
      "start": 34.646,
      "duration": 0.1002,
      "velocity": 127,
      "chip": "ym2612"
    },
    {
      "channel": 0,
      "note": 42,
      "start": 34.7487,
      "duration": 0.3144,
      "velocity": 107,
      "chip": "ym2612"
    },
    {
      "channel": 3,
      "note": 71,
      "start": 34.7514,
      "duration": 0.1006,
      "velocity": 96,
      "chip": "ym2612"
    },
    {
      "channel": 1,
      "note": 76,
      "start": 34.7541,
      "duration": 0.098,
      "velocity": 96,
      "chip": "ym2612"
    },
    {
      "channel": 2,
      "note": 74,
      "start": 34.757,
      "duration": 0.0679,
      "velocity": 127,
      "chip": "ym2612"
    },
    {
      "channel": 5,
      "note": 25,
      "start": 34.7586,
      "duration": 0.0948,
      "velocity": 127,
      "chip": "ym2612"
    },
    {
      "channel": 2,
      "note": 74,
      "start": 34.8722,
      "duration": 0.0729,
      "velocity": 127,
      "chip": "ym2612"
    },
    {
      "channel": 3,
      "note": 83,
      "start": 34.9747,
      "duration": 0.103,
      "velocity": 96,
      "chip": "ym2612"
    },
    {
      "channel": 1,
      "note": 88,
      "start": 34.9762,
      "duration": 0.1017,
      "velocity": 96,
      "chip": "ym2612"
    },
    {
      "channel": 2,
      "note": 74,
      "start": 34.9782,
      "duration": 0.0698,
      "velocity": 127,
      "chip": "ym2612"
    },
    {
      "channel": 0,
      "note": 45,
      "start": 35.077,
      "duration": 0.3177,
      "velocity": 107,
      "chip": "ym2612"
    },
    {
      "channel": 2,
      "note": 74,
      "start": 35.0793,
      "duration": 0.0716,
      "velocity": 127,
      "chip": "ym2612"
    },
    {
      "channel": 5,
      "note": 25,
      "start": 35.0817,
      "duration": 0.0693,
      "velocity": 127,
      "chip": "ym2612"
    },
    {
      "channel": 3,
      "note": 83,
      "start": 35.1811,
      "duration": 0.1055,
      "velocity": 96,
      "chip": "ym2612"
    },
    {
      "channel": 1,
      "note": 88,
      "start": 35.1827,
      "duration": 0.104,
      "velocity": 96,
      "chip": "ym2612"
    },
    {
      "channel": 2,
      "note": 74,
      "start": 35.185,
      "duration": 0.0746,
      "velocity": 127,
      "chip": "ym2612"
    },
    {
      "channel": 5,
      "note": 42,
      "start": 35.1873,
      "duration": 0.1022,
      "velocity": 127,
      "chip": "ym2612"
    },
    {
      "channel": 2,
      "note": 74,
      "start": 35.2888,
      "duration": 0.0736,
      "velocity": 127,
      "chip": "ym2612"
    },
    {
      "channel": 0,
      "note": 45,
      "start": 35.4078,
      "duration": 0.2022,
      "velocity": 107,
      "chip": "ym2612"
    },
    {
      "channel": 2,
      "note": 74,
      "start": 35.411,
      "duration": 0.0716,
      "velocity": 127,
      "chip": "ym2612"
    },
    {
      "channel": 2,
      "note": 74,
      "start": 35.5127,
      "duration": 0.0728,
      "velocity": 127,
      "chip": "ym2612"
    },
    {
      "channel": 5,
      "note": 25,
      "start": 35.5152,
      "duration": 0.0704,
      "velocity": 127,
      "chip": "ym2612"
    },
    {
      "channel": 0,
      "note": 42,
      "start": 35.6162,
      "duration": 0.3161,
      "velocity": 107,
      "chip": "ym2612"
    },
    {
      "channel": 3,
      "note": 85,
      "start": 35.6179,
      "duration": 0.104,
      "velocity": 96,
      "chip": "ym2612"
    },
    {
      "channel": 1,
      "note": 90,
      "start": 35.6196,
      "duration": 0.1026,
      "velocity": 96,
      "chip": "ym2612"
    },
    {
      "channel": 2,
      "note": 74,
      "start": 35.6224,
      "duration": 0.0716,
      "velocity": 127,
      "chip": "ym2612"
    },
    {
      "channel": 5,
      "note": 42,
      "start": 35.6249,
      "duration": 0.0943,
      "velocity": 127,
      "chip": "ym2612"
    },
    {
      "channel": 2,
      "note": 74,
      "start": 35.7236,
      "duration": 0.0735,
      "velocity": 127,
      "chip": "ym2612"
    },
    {
      "channel": 5,
      "note": 25,
      "start": 35.7259,
      "duration": 0.0712,
      "velocity": 127,
      "chip": "ym2612"
    },
    {
      "channel": 3,
      "note": 83,
      "start": 35.8266,
      "duration": 0.1004,
      "velocity": 96,
      "chip": "ym2612"
    },
    {
      "channel": 1,
      "note": 88,
      "start": 35.8282,
      "duration": 0.099,
      "velocity": 96,
      "chip": "ym2612"
    },
    {
      "channel": 2,
      "note": 74,
      "start": 35.8301,
      "duration": 0.0698,
      "velocity": 127,
      "chip": "ym2612"
    },
    {
      "channel": 0,
      "note": 40,
      "start": 35.946,
      "duration": 0.3108,
      "velocity": 107,
      "chip": "ym2612"
    },
    {
      "channel": 2,
      "note": 74,
      "start": 35.949,
      "duration": 0.071,
      "velocity": 127,
      "chip": "ym2612"
    },
    {
      "channel": 5,
      "note": 42,
      "start": 35.9506,
      "duration": 0.0695,
      "velocity": 127,
      "chip": "ym2612"
    },
    {
      "channel": 3,
      "note": 83,
      "start": 36.0502,
      "duration": 0.1056,
      "velocity": 96,
      "chip": "ym2612"
    },
    {
      "channel": 1,
      "note": 88,
      "start": 36.0519,
      "duration": 0.104,
      "velocity": 96,
      "chip": "ym2612"
    },
    {
      "channel": 2,
      "note": 74,
      "start": 36.0541,
      "duration": 0.0746,
      "velocity": 127,
      "chip": "ym2612"
    },
    {
      "channel": 5,
      "note": 42,
      "start": 36.0572,
      "duration": 0.1009,
      "velocity": 127,
      "chip": "ym2612"
    },
    {
      "channel": 2,
      "note": 74,
      "start": 36.1574,
      "duration": 0.0742,
      "velocity": 127,
      "chip": "ym2612"
    },
    {
      "channel": 0,
      "note": 40,
      "start": 36.2607,
      "duration": 0.2033,
      "velocity": 107,
      "chip": "ym2612"
    },
    {
      "channel": 2,
      "note": 74,
      "start": 36.2639,
      "duration": 0.0706,
      "velocity": 127,
      "chip": "ym2612"
    },
    {
      "channel": 5,
      "note": 25,
      "start": 36.2663,
      "duration": 0.0684,
      "velocity": 127,
      "chip": "ym2612"
    },
    {
      "channel": 2,
      "note": 74,
      "start": 36.3812,
      "duration": 0.074,
      "velocity": 127,
      "chip": "ym2612"
    },
    {
      "channel": 5,
      "note": 42,
      "start": 36.3837,
      "duration": 0.0996,
      "velocity": 127,
      "chip": "ym2612"
    },
    {
      "channel": 0,
      "note": 42,
      "start": 36.4858,
      "duration": 0.3078,
      "velocity": 107,
      "chip": "ym2612"
    },
    {
      "channel": 3,
      "note": 85,
      "start": 36.4875,
      "duration": 0.1028,
      "velocity": 96,
      "chip": "ym2612"
    },
    {
      "channel": 1,
      "note": 90,
      "start": 36.4898,
      "duration": 0.1007,
      "velocity": 96,
      "chip": "ym2612"
    },
    {
      "channel": 2,
      "note": 74,
      "start": 36.492,
      "duration": 0.0713,
      "velocity": 127,
      "chip": "ym2612"
    },
    {
      "channel": 5,
      "note": 25,
      "start": 36.4936,
      "duration": 0.0991,
      "velocity": 127,
      "chip": "ym2612"
    },
    {
      "channel": 2,
      "note": 74,
      "start": 36.592,
      "duration": 0.0742,
      "velocity": 127,
      "chip": "ym2612"
    },
    {
      "channel": 3,
      "note": 83,
      "start": 36.6958,
      "duration": 0.1024,
      "velocity": 96,
      "chip": "ym2612"
    },
    {
      "channel": 1,
      "note": 88,
      "start": 36.6975,
      "duration": 0.1008,
      "velocity": 96,
      "chip": "ym2612"
    },
    {
      "channel": 2,
      "note": 74,
      "start": 36.6997,
      "duration": 0.0695,
      "velocity": 127,
      "chip": "ym2612"
    },
    {
      "channel": 0,
      "note": 45,
      "start": 36.7975,
      "duration": 0.3127,
      "velocity": 107,
      "chip": "ym2612"
    },
    {
      "channel": 2,
      "note": 74,
      "start": 36.7998,
      "duration": 0.0729,
      "velocity": 127,
      "chip": "ym2612"
    },
    {
      "channel": 5,
      "note": 25,
      "start": 36.8022,
      "duration": 0.0707,
      "velocity": 127,
      "chip": "ym2612"
    },
    {
      "channel": 3,
      "note": 85,
      "start": 36.9191,
      "duration": 0.1001,
      "velocity": 96,
      "chip": "ym2612"
    },
    {
      "channel": 1,
      "note": 90,
      "start": 36.9207,
      "duration": 0.0986,
      "velocity": 96,
      "chip": "ym2612"
    },
    {
      "channel": 2,
      "note": 74,
      "start": 36.9236,
      "duration": 0.0685,
      "velocity": 127,
      "chip": "ym2612"
    },
    {
      "channel": 5,
      "note": 42,
      "start": 36.9259,
      "duration": 0.0962,
      "velocity": 127,
      "chip": "ym2612"
    },
    {
      "channel": 2,
      "note": 74,
      "start": 37.0209,
      "duration": 0.0742,
      "velocity": 127,
      "chip": "ym2612"
    },
    {
      "channel": 0,
      "note": 45,
      "start": 37.1252,
      "duration": 0.208,
      "velocity": 107,
      "chip": "ym2612"
    },
    {
      "channel": 3,
      "note": 83,
      "start": 37.1268,
      "duration": 0.099,
      "velocity": 96,
      "chip": "ym2612"
    },
    {
      "channel": 1,
      "note": 88,
      "start": 37.1285,
      "duration": 0.0975,
      "velocity": 96,
      "chip": "ym2612"
    },
    {
      "channel": 2,
      "note": 74,
      "start": 37.1307,
      "duration": 0.0673,
      "velocity": 127,
      "chip": "ym2612"
    },
    {
      "channel": 2,
      "note": 74,
      "start": 37.2275,
      "duration": 0.0734,
      "velocity": 127,
      "chip": "ym2612"
    },
    {
      "channel": 5,
      "note": 25,
      "start": 37.23,
      "duration": 0.071,
      "velocity": 127,
      "chip": "ym2612"
    },
    {
      "channel": 0,
      "note": 42,
      "start": 37.3484,
      "duration": 0.2058,
      "velocity": 107,
      "chip": "ym2612"
    },
    {
      "channel": 3,
      "note": 85,
      "start": 37.3501,
      "duration": 0.1038,
      "velocity": 96,
      "chip": "ym2612"
    },
    {
      "channel": 1,
      "note": 90,
      "start": 37.3518,
      "duration": 0.1023,
      "velocity": 96,
      "chip": "ym2612"
    },
    {
      "channel": 2,
      "note": 74,
      "start": 37.354,
      "duration": 0.0727,
      "velocity": 127,
      "chip": "ym2612"
    },
    {
      "channel": 5,
      "note": 42,
      "start": 37.3571,
      "duration": 0.0946,
      "velocity": 127,
      "chip": "ym2612"
    },
    {
      "channel": 2,
      "note": 74,
      "start": 37.4561,
      "duration": 0.0735,
      "velocity": 127,
      "chip": "ym2612"
    },
    {
      "channel": 5,
      "note": 25,
      "start": 37.4586,
      "duration": 0.0712,
      "velocity": 127,
      "chip": "ym2612"
    },
    {
      "channel": 0,
      "note": 40,
      "start": 37.5582,
      "duration": 0.2018,
      "velocity": 107,
      "chip": "ym2612"
    },
    {
      "channel": 2,
      "note": 74,
      "start": 37.5612,
      "duration": 0.0714,
      "velocity": 127,
      "chip": "ym2612"
    },
    {
      "channel": 2,
      "note": 74,
      "start": 37.6628,
      "duration": 0.0727,
      "velocity": 127,
      "chip": "ym2612"
    },
    {
      "channel": 5,
      "note": 42,
      "start": 37.6644,
      "duration": 0.0712,
      "velocity": 127,
      "chip": "ym2612"
    },
    {
      "channel": 0,
      "note": 40,
      "start": 37.7639,
      "duration": 0.2097,
      "velocity": 107,
      "chip": "ym2612"
    },
    {
      "channel": 2,
      "note": 74,
      "start": 37.7671,
      "duration": 0.072,
      "velocity": 127,
      "chip": "ym2612"
    },
    {
      "channel": 5,
      "note": 42,
      "start": 37.7696,
      "duration": 0.0979,
      "velocity": 127,
      "chip": "ym2612"
    },
    {
      "channel": 2,
      "note": 74,
      "start": 37.885,
      "duration": 0.0735,
      "velocity": 127,
      "chip": "ym2612"
    },
    {
      "channel": 2,
      "note": 74,
      "start": 37.9888,
      "duration": 0.0726,
      "velocity": 127,
      "chip": "ym2612"
    },
    {
      "channel": 5,
      "note": 25,
      "start": 37.9911,
      "duration": 0.0704,
      "velocity": 127,
      "chip": "ym2612"
    },
    {
      "channel": 2,
      "note": 74,
      "start": 38.0916,
      "duration": 0.0728,
      "velocity": 127,
      "chip": "ym2612"
    },
    {
      "channel": 5,
      "note": 42,
      "start": 38.0941,
      "duration": 0.1,
      "velocity": 127,
      "chip": "ym2612"
    },
    {
      "channel": 0,
      "note": 42,
      "start": 38.1966,
      "duration": 0.3146,
      "velocity": 107,
      "chip": "ym2612"
    },
    {
      "channel": 3,
      "note": 88,
      "start": 38.1993,
      "duration": 0.1008,
      "velocity": 123,
      "chip": "ym2612"
    },
    {
      "channel": 1,
      "note": 93,
      "start": 38.202,
      "duration": 0.0982,
      "velocity": 123,
      "chip": "ym2612"
    },
    {
      "channel": 2,
      "note": 74,
      "start": 38.2042,
      "duration": 0.0694,
      "velocity": 127,
      "chip": "ym2612"
    },
    {
      "channel": 5,
      "note": 25,
      "start": 38.2064,
      "duration": 0.095,
      "velocity": 127,
      "chip": "ym2612"
    },
    {
      "channel": 2,
      "note": 74,
      "start": 38.3195,
      "duration": 0.0735,
      "velocity": 127,
      "chip": "ym2612"
    },
    {
      "channel": 3,
      "note": 83,
      "start": 38.4226,
      "duration": 0.1031,
      "velocity": 123,
      "chip": "ym2612"
    },
    {
      "channel": 1,
      "note": 88,
      "start": 38.4244,
      "duration": 0.1015,
      "velocity": 123,
      "chip": "ym2612"
    },
    {
      "channel": 2,
      "note": 74,
      "start": 38.4265,
      "duration": 0.0695,
      "velocity": 127,
      "chip": "ym2612"
    },
    {
      "channel": 0,
      "note": 45,
      "start": 38.525,
      "duration": 0.3121,
      "velocity": 107,
      "chip": "ym2612"
    },
    {
      "channel": 2,
      "note": 74,
      "start": 38.5273,
      "duration": 0.0716,
      "velocity": 127,
      "chip": "ym2612"
    },
    {
      "channel": 5,
      "note": 25,
      "start": 38.5296,
      "duration": 0.0694,
      "velocity": 127,
      "chip": "ym2612"
    },
    {
      "channel": 3,
      "note": 85,
      "start": 38.6294,
      "duration": 0.0996,
      "velocity": 123,
      "chip": "ym2612"
    },
    {
      "channel": 1,
      "note": 90,
      "start": 38.6311,
      "duration": 0.098,
      "velocity": 123,
      "chip": "ym2612"
    },
    {
      "channel": 2,
      "note": 74,
      "start": 38.6333,
      "duration": 0.0686,
      "velocity": 127,
      "chip": "ym2612"
    },
    {
      "channel": 5,
      "note": 42,
      "start": 38.6356,
      "duration": 0.0956,
      "velocity": 127,
      "chip": "ym2612"
    },
    {
      "channel": 2,
      "note": 74,
      "start": 38.7305,
      "duration": 0.0749,
      "velocity": 127,
      "chip": "ym2612"
    },
    {
      "channel": 0,
      "note": 45,
      "start": 38.8515,
      "duration": 0.2008,
      "velocity": 107,
      "chip": "ym2612"
    },
    {
      "channel": 3,
      "note": 88,
      "start": 38.8532,
      "duration": 0.0301,
      "velocity": 123,
      "chip": "ym2612"
    },
    {
      "channel": 1,
      "note": 93,
      "start": 38.8555,
      "duration": 0.028,
      "velocity": 123,
      "chip": "ym2612"
    },
    {
      "channel": 2,
      "note": 74,
      "start": 38.8578,
      "duration": 0.0677,
      "velocity": 127,
      "chip": "ym2612"
    },
    {
      "channel": 3,
      "note": 85,
      "start": 38.9186,
      "duration": 0.0335,
      "velocity": 123,
      "chip": "ym2612"
    },
    {
      "channel": 1,
      "note": 90,
      "start": 38.9203,
      "duration": 0.032,
      "velocity": 123,
      "chip": "ym2612"
    },
    {
      "channel": 2,
      "note": 74,
      "start": 38.9537,
      "duration": 0.074,
      "velocity": 127,
      "chip": "ym2612"
    },
    {
      "channel": 5,
      "note": 25,
      "start": 38.9568,
      "duration": 0.0711,
      "velocity": 127,
      "chip": "ym2612"
    },
    {
      "channel": 3,
      "note": 88,
      "start": 38.9871,
      "duration": 0.0277,
      "velocity": 123,
      "chip": "ym2612"
    },
    {
      "channel": 1,
      "note": 93,
      "start": 38.9895,
      "duration": 0.0255,
      "velocity": 123,
      "chip": "ym2612"
    },
    {
      "channel": 0,
      "note": 42,
      "start": 39.0589,
      "duration": 0.3157,
      "velocity": 107,
      "chip": "ym2612"
    },
    {
      "channel": 3,
      "note": 85,
      "start": 39.0606,
      "duration": 0.103,
      "velocity": 123,
      "chip": "ym2612"
    },
    {
      "channel": 1,
      "note": 90,
      "start": 39.0623,
      "duration": 0.1015,
      "velocity": 123,
      "chip": "ym2612"
    },
    {
      "channel": 2,
      "note": 74,
      "start": 39.0645,
      "duration": 0.0719,
      "velocity": 127,
      "chip": "ym2612"
    },
    {
      "channel": 5,
      "note": 42,
      "start": 39.0669,
      "duration": 0.0945,
      "velocity": 127,
      "chip": "ym2612"
    },
    {
      "channel": 2,
      "note": 74,
      "start": 39.1653,
      "duration": 0.0747,
      "velocity": 127,
      "chip": "ym2612"
    },
    {
      "channel": 5,
      "note": 25,
      "start": 39.1676,
      "duration": 0.0725,
      "velocity": 127,
      "chip": "ym2612"
    },
    {
      "channel": 3,
      "note": 83,
      "start": 39.2683,
      "duration": 0.1011,
      "velocity": 123,
      "chip": "ym2612"
    },
    {
      "channel": 1,
      "note": 88,
      "start": 39.27,
      "duration": 0.0995,
      "velocity": 123,
      "chip": "ym2612"
    },
    {
      "channel": 2,
      "note": 74,
      "start": 39.2728,
      "duration": 0.0694,
      "velocity": 127,
      "chip": "ym2612"
    },
    {
      "channel": 0,
      "note": 40,
      "start": 39.3885,
      "duration": 0.3099,
      "velocity": 107,
      "chip": "ym2612"
    },
    {
      "channel": 2,
      "note": 74,
      "start": 39.3915,
      "duration": 0.0708,
      "velocity": 127,
      "chip": "ym2612"
    },
    {
      "channel": 5,
      "note": 42,
      "start": 39.3931,
      "duration": 0.0693,
      "velocity": 127,
      "chip": "ym2612"
    },
    {
      "channel": 3,
      "note": 80,
      "start": 39.4929,
      "duration": 0.1052,
      "velocity": 123,
      "chip": "ym2612"
    },
    {
      "channel": 1,
      "note": 85,
      "start": 39.4946,
      "duration": 0.1037,
      "velocity": 123,
      "chip": "ym2612"
    },
    {
      "channel": 2,
      "note": 74,
      "start": 39.4967,
      "duration": 0.0749,
      "velocity": 127,
      "chip": "ym2612"
    },
    {
      "channel": 5,
      "note": 42,
      "start": 39.4992,
      "duration": 0.1011,
      "velocity": 127,
      "chip": "ym2612"
    },
    {
      "channel": 2,
      "note": 74,
      "start": 39.5997,
      "duration": 0.0742,
      "velocity": 127,
      "chip": "ym2612"
    },
    {
      "channel": 0,
      "note": 40,
      "start": 39.7045,
      "duration": 0.2076,
      "velocity": 107,
      "chip": "ym2612"
    },
    {
      "channel": 3,
      "note": 78,
      "start": 39.7065,
      "duration": 0.1031,
      "velocity": 123,
      "chip": "ym2612"
    },
    {
      "channel": 1,
      "note": 83,
      "start": 39.7083,
      "duration": 0.1016,
      "velocity": 123,
      "chip": "ym2612"
    },
    {
      "channel": 2,
      "note": 74,
      "start": 39.7104,
      "duration": 0.0722,
      "velocity": 127,
      "chip": "ym2612"
    },
    {
      "channel": 5,
      "note": 25,
      "start": 39.7128,
      "duration": 0.0699,
      "velocity": 127,
      "chip": "ym2612"
    },
    {
      "channel": 2,
      "note": 74,
      "start": 39.8299,
      "duration": 0.0727,
      "velocity": 127,
      "chip": "ym2612"
    },
    {
      "channel": 5,
      "note": 42,
      "start": 39.8324,
      "duration": 0.0987,
      "velocity": 127,
      "chip": "ym2612"
    },
    {
      "channel": 0,
      "note": 42,
      "start": 39.9336,
      "duration": 0.3085,
      "velocity": 107,
      "chip": "ym2612"
    },
    {
      "channel": 3,
      "note": 76,
      "start": 39.9353,
      "duration": 0.1037,
      "velocity": 123,
      "chip": "ym2612"
    },
    {
      "channel": 1,
      "note": 81,
      "start": 39.9369,
      "duration": 0.1022,
      "velocity": 123,
      "chip": "ym2612"
    },
    {
      "channel": 2,
      "note": 74,
      "start": 39.9398,
      "duration": 0.0716,
      "velocity": 127,
      "chip": "ym2612"
    },
    {
      "channel": 5,
      "note": 25,
      "start": 39.9413,
      "duration": 0.0999,
      "velocity": 127,
      "chip": "ym2612"
    },
    {
      "channel": 2,
      "note": 74,
      "start": 40.0406,
      "duration": 0.0736,
      "velocity": 127,
      "chip": "ym2612"
    },
    {
      "channel": 3,
      "note": 78,
      "start": 40.1438,
      "duration": 0.1028,
      "velocity": 123,
      "chip": "ym2612"
    },
    {
      "channel": 1,
      "note": 83,
      "start": 40.1455,
      "duration": 0.1013,
      "velocity": 123,
      "chip": "ym2612"
    },
    {
      "channel": 2,
      "note": 74,
      "start": 40.1477,
      "duration": 0.0694,
      "velocity": 127,
      "chip": "ym2612"
    },
    {
      "channel": 0,
      "note": 45,
      "start": 40.246,
      "duration": 0.3123,
      "velocity": 107,
      "chip": "ym2612"
    },
    {
      "channel": 2,
      "note": 74,
      "start": 40.2483,
      "duration": 0.0717,
      "velocity": 127,
      "chip": "ym2612"
    },
    {
      "channel": 5,
      "note": 25,
      "start": 40.2506,
      "duration": 0.0696,
      "velocity": 127,
      "chip": "ym2612"
    },
    {
      "channel": 3,
      "note": 80,
      "start": 40.367,
      "duration": 0.1002,
      "velocity": 123,
      "chip": "ym2612"
    },
    {
      "channel": 1,
      "note": 85,
      "start": 40.3688,
      "duration": 0.0987,
      "velocity": 123,
      "chip": "ym2612"
    },
    {
      "channel": 2,
      "note": 74,
      "start": 40.3712,
      "duration": 0.0693,
      "velocity": 127,
      "chip": "ym2612"
    },
    {
      "channel": 5,
      "note": 42,
      "start": 40.3739,
      "duration": 0.0956,
      "velocity": 127,
      "chip": "ym2612"
    },
    {
      "channel": 2,
      "note": 74,
      "start": 40.4689,
      "duration": 0.0742,
      "velocity": 127,
      "chip": "ym2612"
    },
    {
      "channel": 0,
      "note": 45,
      "start": 40.5733,
      "duration": 0.2079,
      "velocity": 107,
      "chip": "ym2612"
    },
    {
      "channel": 3,
      "note": 83,
      "start": 40.575,
      "duration": 0.0302,
      "velocity": 123,
      "chip": "ym2612"
    },
    {
      "channel": 1,
      "note": 88,
      "start": 40.5767,
      "duration": 0.0285,
      "velocity": 123,
      "chip": "ym2612"
    },
    {
      "channel": 2,
      "note": 74,
      "start": 40.5789,
      "duration": 0.0678,
      "velocity": 127,
      "chip": "ym2612"
    },
    {
      "channel": 3,
      "note": 80,
      "start": 40.6403,
      "duration": 0.027,
      "velocity": 123,
      "chip": "ym2612"
    },
    {
      "channel": 1,
      "note": 85,
      "start": 40.642,
      "duration": 0.0255,
      "velocity": 123,
      "chip": "ym2612"
    },
    {
      "channel": 2,
      "note": 74,
      "start": 40.6755,
      "duration": 0.0734,
      "velocity": 127,
      "chip": "ym2612"
    },
    {
      "channel": 5,
      "note": 25,
      "start": 40.678,
      "duration": 0.071,
      "velocity": 127,
      "chip": "ym2612"
    },
    {
      "channel": 3,
      "note": 83,
      "start": 40.709,
      "duration": 0.027,
      "velocity": 123,
      "chip": "ym2612"
    },
    {
      "channel": 1,
      "note": 88,
      "start": 40.7107,
      "duration": 0.0255,
      "velocity": 123,
      "chip": "ym2612"
    },
    {
      "channel": 0,
      "note": 42,
      "start": 40.7971,
      "duration": 0.205,
      "velocity": 107,
      "chip": "ym2612"
    },
    {
      "channel": 3,
      "note": 80,
      "start": 40.7988,
      "duration": 0.1031,
      "velocity": 123,
      "chip": "ym2612"
    },
    {
      "channel": 1,
      "note": 85,
      "start": 40.8005,
      "duration": 0.1016,
      "velocity": 123,
      "chip": "ym2612"
    },
    {
      "channel": 2,
      "note": 74,
      "start": 40.8027,
      "duration": 0.0721,
      "velocity": 127,
      "chip": "ym2612"
    },
    {
      "channel": 5,
      "note": 42,
      "start": 40.8058,
      "duration": 0.0939,
      "velocity": 127,
      "chip": "ym2612"
    },
    {
      "channel": 2,
      "note": 74,
      "start": 40.9035,
      "duration": 0.0741,
      "velocity": 127,
      "chip": "ym2612"
    },
    {
      "channel": 5,
      "note": 25,
      "start": 40.9065,
      "duration": 0.0712,
      "velocity": 127,
      "chip": "ym2612"
    },
    {
      "channel": 0,
      "note": 40,
      "start": 41.0077,
      "duration": 0.201,
      "velocity": 107,
      "chip": "ym2612"
    },
    {
      "channel": 3,
      "note": 78,
      "start": 41.0092,
      "duration": 0.0992,
      "velocity": 123,
      "chip": "ym2612"
    },
    {
      "channel": 1,
      "note": 83,
      "start": 41.0109,
      "duration": 0.0977,
      "velocity": 123,
      "chip": "ym2612"
    },
    {
      "channel": 2,
      "note": 74,
      "start": 41.013,
      "duration": 0.0675,
      "velocity": 127,
      "chip": "ym2612"
    },
    {
      "channel": 2,
      "note": 74,
      "start": 41.11,
      "duration": 0.0735,
      "velocity": 127,
      "chip": "ym2612"
    },
    {
      "channel": 5,
      "note": 42,
      "start": 41.1116,
      "duration": 0.072,
      "velocity": 127,
      "chip": "ym2612"
    },
    {
      "channel": 0,
      "note": 40,
      "start": 41.2145,
      "duration": 0.2129,
      "velocity": 107,
      "chip": "ym2612"
    },
    {
      "channel": 3,
      "note": 76,
      "start": 41.2161,
      "duration": 0.1031,
      "velocity": 123,
      "chip": "ym2612"
    },
    {
      "channel": 1,
      "note": 81,
      "start": 41.2179,
      "duration": 0.1015,
      "velocity": 123,
      "chip": "ym2612"
    },
    {
      "channel": 2,
      "note": 74,
      "start": 41.22,
      "duration": 0.0721,
      "velocity": 127,
      "chip": "ym2612"
    },
    {
      "channel": 5,
      "note": 42,
      "start": 41.2231,
      "duration": 0.0974,
      "velocity": 127,
      "chip": "ym2612"
    },
    {
      "channel": 2,
      "note": 74,
      "start": 41.3394,
      "duration": 0.0728,
      "velocity": 127,
      "chip": "ym2612"
    },
    {
      "channel": 3,
      "note": 73,
      "start": 41.4428,
      "duration": 0.1053,
      "velocity": 123,
      "chip": "ym2612"
    },
    {
      "channel": 1,
      "note": 78,
      "start": 41.4445,
      "duration": 0.1038,
      "velocity": 123,
      "chip": "ym2612"
    },
    {
      "channel": 2,
      "note": 74,
      "start": 41.4467,
      "duration": 0.0742,
      "velocity": 127,
      "chip": "ym2612"
    },
    {
      "channel": 5,
      "note": 25,
      "start": 41.449,
      "duration": 0.0727,
      "velocity": 127,
      "chip": "ym2612"
    },
    {
      "channel": 2,
      "note": 74,
      "start": 41.5497,
      "duration": 0.0741,
      "velocity": 127,
      "chip": "ym2612"
    },
    {
      "channel": 5,
      "note": 42,
      "start": 41.5522,
      "duration": 0.0998,
      "velocity": 127,
      "chip": "ym2612"
    },
    {
      "channel": 0,
      "note": 42,
      "start": 41.6552,
      "duration": 0.3154,
      "velocity": 107,
      "chip": "ym2612"
    },
    {
      "channel": 4,
      "note": 117,
      "start": 41.6579,
      "duration": 0.4229,
      "velocity": 99,
      "chip": "ym2612"
    },
    {
      "channel": 2,
      "note": 74,
      "start": 41.6596,
      "duration": 0.0728,
      "velocity": 127,
      "chip": "ym2612"
    },
    {
      "channel": 5,
      "note": 25,
      "start": 41.6612,
      "duration": 0.1003,
      "velocity": 127,
      "chip": "ym2612"
    },
    {
      "channel": 2,
      "note": 74,
      "start": 41.779,
      "duration": 0.0735,
      "velocity": 127,
      "chip": "ym2612"
    },
    {
      "channel": 2,
      "note": 74,
      "start": 41.8819,
      "duration": 0.0741,
      "velocity": 127,
      "chip": "ym2612"
    },
    {
      "channel": 0,
      "note": 45,
      "start": 41.9839,
      "duration": 0.3127,
      "velocity": 107,
      "chip": "ym2612"
    },
    {
      "channel": 2,
      "note": 74,
      "start": 41.9868,
      "duration": 0.0716,
      "velocity": 127,
      "chip": "ym2612"
    },
    {
      "channel": 5,
      "note": 25,
      "start": 41.9898,
      "duration": 0.0687,
      "velocity": 127,
      "chip": "ym2612"
    },
    {
      "channel": 2,
      "note": 74,
      "start": 42.0884,
      "duration": 0.0729,
      "velocity": 127,
      "chip": "ym2612"
    },
    {
      "channel": 5,
      "note": 42,
      "start": 42.0908,
      "duration": 0.1012,
      "velocity": 127,
      "chip": "ym2612"
    },
    {
      "channel": 2,
      "note": 74,
      "start": 42.1913,
      "duration": 0.073,
      "velocity": 127,
      "chip": "ym2612"
    },
    {
      "channel": 0,
      "note": 45,
      "start": 42.3105,
      "duration": 0.2013,
      "velocity": 107,
      "chip": "ym2612"
    },
    {
      "channel": 4,
      "note": 105,
      "start": 42.3132,
      "duration": 0.0993,
      "velocity": 99,
      "chip": "ym2612"
    },
    {
      "channel": 2,
      "note": 74,
      "start": 42.3149,
      "duration": 0.0693,
      "velocity": 127,
      "chip": "ym2612"
    },
    {
      "channel": 2,
      "note": 74,
      "start": 42.4135,
      "duration": 0.0737,
      "velocity": 127,
      "chip": "ym2612"
    },
    {
      "channel": 5,
      "note": 25,
      "start": 42.4159,
      "duration": 0.0715,
      "velocity": 127,
      "chip": "ym2612"
    },
    {
      "channel": 0,
      "note": 42,
      "start": 42.5169,
      "duration": 0.3172,
      "velocity": 107,
      "chip": "ym2612"
    },
    {
      "channel": 4,
      "note": 100,
      "start": 42.5196,
      "duration": 0.4246,
      "velocity": 99,
      "chip": "ym2612"
    },
    {
      "channel": 2,
      "note": 74,
      "start": 42.5219,
      "duration": 0.0739,
      "velocity": 127,
      "chip": "ym2612"
    },
    {
      "channel": 5,
      "note": 42,
      "start": 42.5244,
      "duration": 0.0964,
      "velocity": 127,
      "chip": "ym2612"
    },
    {
      "channel": 2,
      "note": 74,
      "start": 42.626,
      "duration": 0.0728,
      "velocity": 127,
      "chip": "ym2612"
    },
    {
      "channel": 5,
      "note": 25,
      "start": 42.6284,
      "duration": 0.0706,
      "velocity": 127,
      "chip": "ym2612"
    },
    {
      "channel": 2,
      "note": 74,
      "start": 42.7282,
      "duration": 0.0735,
      "velocity": 127,
      "chip": "ym2612"
    },
    {
      "channel": 0,
      "note": 40,
      "start": 42.8473,
      "duration": 0.3049,
      "velocity": 107,
      "chip": "ym2612"
    },
    {
      "channel": 2,
      "note": 74,
      "start": 42.8503,
      "duration": 0.0722,
      "velocity": 127,
      "chip": "ym2612"
    },
    {
      "channel": 5,
      "note": 42,
      "start": 42.8519,
      "duration": 0.0707,
      "velocity": 127,
      "chip": "ym2612"
    },
    {
      "channel": 2,
      "note": 74,
      "start": 42.9512,
      "duration": 0.0735,
      "velocity": 127,
      "chip": "ym2612"
    },
    {
      "channel": 5,
      "note": 42,
      "start": 42.9537,
      "duration": 0.1017,
      "velocity": 127,
      "chip": "ym2612"
    },
    {
      "channel": 2,
      "note": 74,
      "start": 43.0541,
      "duration": 0.0735,
      "velocity": 127,
      "chip": "ym2612"
    },
    {
      "channel": 0,
      "note": 40,
      "start": 43.1578,
      "duration": 0.2081,
      "velocity": 107,
      "chip": "ym2612"
    },
    {
      "channel": 4,
      "note": 105,
      "start": 43.1604,
      "duration": 0.104,
      "velocity": 99,
      "chip": "ym2612"
    },
    {
      "channel": 2,
      "note": 74,
      "start": 43.1621,
      "duration": 0.0742,
      "velocity": 127,
      "chip": "ym2612"
    },
    {
      "channel": 5,
      "note": 25,
      "start": 43.1645,
      "duration": 0.072,
      "velocity": 127,
      "chip": "ym2612"
    },
    {
      "channel": 2,
      "note": 74,
      "start": 43.283,
      "duration": 0.074,
      "velocity": 127,
      "chip": "ym2612"
    },
    {
      "channel": 5,
      "note": 42,
      "start": 43.2855,
      "duration": 0.0996,
      "velocity": 127,
      "chip": "ym2612"
    },
    {
      "channel": 0,
      "note": 42,
      "start": 43.3883,
      "duration": 0.3071,
      "velocity": 107,
      "chip": "ym2612"
    },
    {
      "channel": 3,
      "note": 71,
      "start": 43.391,
      "duration": 0.1012,
      "velocity": 96,
      "chip": "ym2612"
    },
    {
      "channel": 4,
      "note": 100,
      "start": 43.3932,
      "duration": 0.0995,
      "velocity": 99,
      "chip": "ym2612"
    },
    {
      "channel": 2,
      "note": 74,
      "start": 43.3949,
      "duration": 0.0702,
      "velocity": 127,
      "chip": "ym2612"
    },
    {
      "channel": 5,
      "note": 25,
      "start": 43.3965,
      "duration": 0.098,
      "velocity": 127,
      "chip": "ym2612"
    },
    {
      "channel": 2,
      "note": 74,
      "start": 43.4937,
      "duration": 0.0742,
      "velocity": 127,
      "chip": "ym2612"
    },
    {
      "channel": 3,
      "note": 81,
      "start": 43.597,
      "duration": 0.103,
      "velocity": 96,
      "chip": "ym2612"
    },
    {
      "channel": 4,
      "note": 105,
      "start": 43.5992,
      "duration": 0.1015,
      "velocity": 99,
      "chip": "ym2612"
    },
    {
      "channel": 2,
      "note": 74,
      "start": 43.6008,
      "duration": 0.0703,
      "velocity": 127,
      "chip": "ym2612"
    },
    {
      "channel": 0,
      "note": 45,
      "start": 43.6993,
      "duration": 0.3127,
      "velocity": 107,
      "chip": "ym2612"
    },
    {
      "channel": 2,
      "note": 74,
      "start": 43.7016,
      "duration": 0.0722,
      "velocity": 127,
      "chip": "ym2612"
    },
    {
      "channel": 5,
      "note": 25,
      "start": 43.704,
      "duration": 0.07,
      "velocity": 127,
      "chip": "ym2612"
    },
    {
      "channel": 3,
      "note": 76,
      "start": 43.8209,
      "duration": 0.1007,
      "velocity": 96,
      "chip": "ym2612"
    },
    {
      "channel": 4,
      "note": 100,
      "start": 43.8237,
      "duration": 0.0986,
      "velocity": 99,
      "chip": "ym2612"
    },
    {
      "channel": 2,
      "note": 74,
      "start": 43.8253,
      "duration": 0.0686,
      "velocity": 127,
      "chip": "ym2612"
    },
    {
      "channel": 5,
      "note": 42,
      "start": 43.8277,
      "duration": 0.0962,
      "velocity": 127,
      "chip": "ym2612"
    },
    {
      "channel": 2,
      "note": 74,
      "start": 43.9233,
      "duration": 0.0736,
      "velocity": 127,
      "chip": "ym2612"
    },
    {
      "channel": 0,
      "note": 45,
      "start": 44.027,
      "duration": 0.208,
      "velocity": 107,
      "chip": "ym2612"
    },
    {
      "channel": 3,
      "note": 81,
      "start": 44.0286,
      "duration": 0.099,
      "velocity": 96,
      "chip": "ym2612"
    },
    {
      "channel": 4,
      "note": 105,
      "start": 44.0308,
      "duration": 0.0974,
      "velocity": 99,
      "chip": "ym2612"
    },
    {
      "channel": 2,
      "note": 74,
      "start": 44.0325,
      "duration": 0.0673,
      "velocity": 127,
      "chip": "ym2612"
    },
    {
      "channel": 2,
      "note": 74,
      "start": 44.1292,
      "duration": 0.0735,
      "velocity": 127,
      "chip": "ym2612"
    },
    {
      "channel": 5,
      "note": 25,
      "start": 44.1317,
      "duration": 0.0712,
      "velocity": 127,
      "chip": "ym2612"
    },
    {
      "channel": 0,
      "note": 42,
      "start": 44.2503,
      "duration": 0.2062,
      "velocity": 107,
      "chip": "ym2612"
    },
    {
      "channel": 3,
      "note": 85,
      "start": 44.252,
      "duration": 0.84,
      "velocity": 96,
      "chip": "ym2612"
    },
    {
      "channel": 4,
      "note": 109,
      "start": 44.2542,
      "duration": 0.6359,
      "velocity": 99,
      "chip": "ym2612"
    },
    {
      "channel": 2,
      "note": 74,
      "start": 44.2565,
      "duration": 0.072,
      "velocity": 127,
      "chip": "ym2612"
    },
    {
      "channel": 5,
      "note": 42,
      "start": 44.259,
      "duration": 0.0945,
      "velocity": 127,
      "chip": "ym2612"
    },
    {
      "channel": 2,
      "note": 74,
      "start": 44.3586,
      "duration": 0.0728,
      "velocity": 127,
      "chip": "ym2612"
    },
    {
      "channel": 5,
      "note": 25,
      "start": 44.361,
      "duration": 0.0705,
      "velocity": 127,
      "chip": "ym2612"
    },
    {
      "channel": 0,
      "note": 40,
      "start": 44.4596,
      "duration": 0.2022,
      "velocity": 107,
      "chip": "ym2612"
    },
    {
      "channel": 2,
      "note": 74,
      "start": 44.4626,
      "duration": 0.0717,
      "velocity": 127,
      "chip": "ym2612"
    },
    {
      "channel": 2,
      "note": 74,
      "start": 44.5637,
      "duration": 0.0735,
      "velocity": 127,
      "chip": "ym2612"
    },
    {
      "channel": 0,
      "note": 40,
      "start": 44.6661,
      "duration": 0.2093,
      "velocity": 107,
      "chip": "ym2612"
    },
    {
      "channel": 2,
      "note": 74,
      "start": 44.6704,
      "duration": 0.0701,
      "velocity": 127,
      "chip": "ym2612"
    },
    {
      "channel": 5,
      "note": 42,
      "start": 44.6737,
      "duration": 0.0955,
      "velocity": 127,
      "chip": "ym2612"
    },
    {
      "channel": 2,
      "note": 42,
      "start": 44.789,
      "duration": 0.0713,
      "velocity": 127,
      "chip": "ym2612"
    },
    {
      "channel": 5,
      "note": 25,
      "start": 44.7917,
      "duration": 0.0688,
      "velocity": 127,
      "chip": "ym2612"
    },
    {
      "channel": 2,
      "note": 74,
      "start": 44.891,
      "duration": 0.0722,
      "velocity": 127,
      "chip": "ym2612"
    },
    {
      "channel": 5,
      "note": 42,
      "start": 44.8925,
      "duration": 0.0709,
      "velocity": 127,
      "chip": "ym2612"
    },
    {
      "channel": 2,
      "note": 74,
      "start": 44.993,
      "duration": 0.0732,
      "velocity": 127,
      "chip": "ym2612"
    },
    {
      "channel": 3,
      "note": 88,
      "start": 45.0982,
      "duration": 0.1037,
      "velocity": 96,
      "chip": "ym2612"
    },
    {
      "channel": 1,
      "note": 76,
      "start": 45.1009,
      "duration": 0.1011,
      "velocity": 96,
      "chip": "ym2612"
    },
    {
      "channel": 2,
      "note": 74,
      "start": 45.1044,
      "duration": 0.151,
      "velocity": 107,
      "chip": "ym2612"
    },
    {
      "channel": 5,
      "note": 42,
      "start": 45.1075,
      "duration": 0.2052,
      "velocity": 127,
      "chip": "ym2612"
    },
    {
      "channel": 3,
      "note": 73,
      "start": 45.3256,
      "duration": 0.0993,
      "velocity": 96,
      "chip": "ym2612"
    },
    {
      "channel": 1,
      "note": 85,
      "start": 45.3272,
      "duration": 0.0978,
      "velocity": 96,
      "chip": "ym2612"
    },
    {
      "channel": 2,
      "note": 39,
      "start": 45.3294,
      "duration": 0.1484,
      "velocity": 107,
      "chip": "ym2612"
    },
    {
      "channel": 5,
      "note": 25,
      "start": 45.3311,
      "duration": 0.197,
      "velocity": 127,
      "chip": "ym2612"
    },
    {
      "channel": 3,
      "note": 74,
      "start": 45.5302,
      "duration": 0.1005,
      "velocity": 96,
      "chip": "ym2612"
    },
    {
      "channel": 1,
      "note": 86,
      "start": 45.5319,
      "duration": 0.0989,
      "velocity": 96,
      "chip": "ym2612"
    },
    {
      "channel": 5,
      "note": 25,
      "start": 45.5356,
      "duration": 0.1487,
      "velocity": 127,
      "chip": "ym2612"
    },
    {
      "channel": 3,
      "note": 76,
      "start": 45.7529,
      "duration": 0.1008,
      "velocity": 96,
      "chip": "ym2612"
    },
    {
      "channel": 1,
      "note": 88,
      "start": 45.7552,
      "duration": 0.0987,
      "velocity": 96,
      "chip": "ym2612"
    },
    {
      "channel": 5,
      "note": 42,
      "start": 45.759,
      "duration": 0.1983,
      "velocity": 127,
      "chip": "ym2612"
    },
    {
      "channel": 3,
      "note": 69,
      "start": 45.9602,
      "duration": 0.0994,
      "velocity": 96,
      "chip": "ym2612"
    },
    {
      "channel": 1,
      "note": 81,
      "start": 45.962,
      "duration": 0.0978,
      "velocity": 96,
      "chip": "ym2612"
    },
    {
      "channel": 2,
      "note": 117,
      "start": 45.9641,
      "duration": 0.1485,
      "velocity": 107,
      "chip": "ym2612"
    },
    {
      "channel": 5,
      "note": 25,
      "start": 45.9658,
      "duration": 0.1988,
      "velocity": 127,
      "chip": "ym2612"
    },
    {
      "channel": 3,
      "note": 81,
      "start": 46.3883,
      "duration": 0.2015,
      "velocity": 96,
      "chip": "ym2612"
    },
    {
      "channel": 1,
      "note": 93,
      "start": 46.3899,
      "duration": 0.201,
      "velocity": 96,
      "chip": "ym2612"
    },
    {
      "channel": 5,
      "note": 25,
      "start": 46.3934,
      "duration": 0.1487,
      "velocity": 127,
      "chip": "ym2612"
    },
    {
      "channel": 3,
      "note": 82,
      "start": 46.5934,
      "duration": 0.1009,
      "velocity": 96,
      "chip": "ym2612"
    },
    {
      "channel": 1,
      "note": 94,
      "start": 46.5951,
      "duration": 0.0994,
      "velocity": 96,
      "chip": "ym2612"
    },
    {
      "channel": 3,
      "note": 80,
      "start": 46.8185,
      "duration": 0.1045,
      "velocity": 96,
      "chip": "ym2612"
    },
    {
      "channel": 1,
      "note": 92,
      "start": 46.8202,
      "duration": 0.1029,
      "velocity": 96,
      "chip": "ym2612"
    },
    {
      "channel": 2,
      "note": 117,
      "start": 46.823,
      "duration": 0.153,
      "velocity": 107,
      "chip": "ym2612"
    },
    {
      "channel": 5,
      "note": 42,
      "start": 46.8256,
      "duration": 0.1993,
      "velocity": 127,
      "chip": "ym2612"
    },
    {
      "channel": 2,
      "note": 42,
      "start": 47.0294,
      "duration": 0.1524,
      "velocity": 107,
      "chip": "ym2612"
    },
    {
      "channel": 5,
      "note": 25,
      "start": 47.0312,
      "duration": 0.2028,
      "velocity": 127,
      "chip": "ym2612"
    },
    {
      "channel": 3,
      "note": 81,
      "start": 47.2511,
      "duration": 0.2015,
      "velocity": 96,
      "chip": "ym2612"
    },
    {
      "channel": 1,
      "note": 93,
      "start": 47.2527,
      "duration": 0.201,
      "velocity": 96,
      "chip": "ym2612"
    },
    {
      "channel": 5,
      "note": 25,
      "start": 47.2568,
      "duration": 0.1493,
      "velocity": 127,
      "chip": "ym2612"
    },
    {
      "channel": 3,
      "note": 82,
      "start": 47.4577,
      "duration": 0.1001,
      "velocity": 96,
      "chip": "ym2612"
    },
    {
      "channel": 1,
      "note": 94,
      "start": 47.4593,
      "duration": 0.0985,
      "velocity": 96,
      "chip": "ym2612"
    },
    {
      "channel": 5,
      "note": 42,
      "start": 47.4631,
      "duration": 0.2055,
      "velocity": 127,
      "chip": "ym2612"
    },
    {
      "channel": 3,
      "note": 80,
      "start": 47.6812,
      "duration": 0.0995,
      "velocity": 96,
      "chip": "ym2612"
    },
    {
      "channel": 1,
      "note": 92,
      "start": 47.6829,
      "duration": 0.098,
      "velocity": 96,
      "chip": "ym2612"
    },
    {
      "channel": 2,
      "note": 117,
      "start": 47.685,
      "duration": 0.1487,
      "velocity": 107,
      "chip": "ym2612"
    },
    {
      "channel": 5,
      "note": 25,
      "start": 47.6868,
      "duration": 0.206,
      "velocity": 127,
      "chip": "ym2612"
    },
    {
      "channel": 3,
      "note": 81,
      "start": 47.8849,
      "duration": 0.1017,
      "velocity": 96,
      "chip": "ym2612"
    },
    {
      "channel": 1,
      "note": 93,
      "start": 47.8866,
      "duration": 0.1001,
      "velocity": 96,
      "chip": "ym2612"
    },
    {
      "channel": 3,
      "note": 80,
      "start": 48.0922,
      "duration": 0.1002,
      "velocity": 96,
      "chip": "ym2612"
    },
    {
      "channel": 1,
      "note": 92,
      "start": 48.0939,
      "duration": 0.0987,
      "velocity": 96,
      "chip": "ym2612"
    },
    {
      "channel": 5,
      "note": 25,
      "start": 48.0976,
      "duration": 0.1485,
      "velocity": 127,
      "chip": "ym2612"
    },
    {
      "channel": 3,
      "note": 76,
      "start": 48.3137,
      "duration": 0.1017,
      "velocity": 96,
      "chip": "ym2612"
    },
    {
      "channel": 1,
      "note": 88,
      "start": 48.3154,
      "duration": 0.1002,
      "velocity": 96,
      "chip": "ym2612"
    },
    {
      "channel": 3,
      "note": 74,
      "start": 48.5233,
      "duration": 0.1037,
      "velocity": 96,
      "chip": "ym2612"
    },
    {
      "channel": 1,
      "note": 86,
      "start": 48.5251,
      "duration": 0.1021,
      "velocity": 96,
      "chip": "ym2612"
    },
    {
      "channel": 2,
      "note": 117,
      "start": 48.5272,
      "duration": 0.1528,
      "velocity": 107,
      "chip": "ym2612"
    },
    {
      "channel": 5,
      "note": 42,
      "start": 48.5298,
      "duration": 0.2087,
      "velocity": 127,
      "chip": "ym2612"
    },
    {
      "channel": 3,
      "note": 73,
      "start": 48.75,
      "duration": 0.1,
      "velocity": 96,
      "chip": "ym2612"
    },
    {
      "channel": 1,
      "note": 85,
      "start": 48.7518,
      "duration": 0.0984,
      "velocity": 96,
      "chip": "ym2612"
    },
    {
      "channel": 2,
      "note": 39,
      "start": 48.7539,
      "duration": 0.149,
      "velocity": 107,
      "chip": "ym2612"
    },
    {
      "channel": 5,
      "note": 25,
      "start": 48.7563,
      "duration": 0.1966,
      "velocity": 127,
      "chip": "ym2612"
    },
    {
      "channel": 3,
      "note": 74,
      "start": 48.9557,
      "duration": 0.1002,
      "velocity": 96,
      "chip": "ym2612"
    },
    {
      "channel": 1,
      "note": 86,
      "start": 48.9574,
      "duration": 0.0987,
      "velocity": 96,
      "chip": "ym2612"
    },
    {
      "channel": 5,
      "note": 25,
      "start": 48.9611,
      "duration": 0.1484,
      "velocity": 127,
      "chip": "ym2612"
    },
    {
      "channel": 3,
      "note": 76,
      "start": 49.1787,
      "duration": 0.1002,
      "velocity": 96,
      "chip": "ym2612"
    },
    {
      "channel": 1,
      "note": 88,
      "start": 49.1803,
      "duration": 0.0987,
      "velocity": 96,
      "chip": "ym2612"
    },
    {
      "channel": 5,
      "note": 42,
      "start": 49.1841,
      "duration": 0.1976,
      "velocity": 127,
      "chip": "ym2612"
    },
    {
      "channel": 3,
      "note": 69,
      "start": 49.3848,
      "duration": 0.0999,
      "velocity": 96,
      "chip": "ym2612"
    },
    {
      "channel": 1,
      "note": 81,
      "start": 49.3864,
      "duration": 0.0985,
      "velocity": 96,
      "chip": "ym2612"
    },
    {
      "channel": 2,
      "note": 117,
      "start": 49.3893,
      "duration": 0.149,
      "velocity": 107,
      "chip": "ym2612"
    },
    {
      "channel": 5,
      "note": 25,
      "start": 49.391,
      "duration": 0.1995,
      "velocity": 127,
      "chip": "ym2612"
    },
    {
      "channel": 3,
      "note": 81,
      "start": 49.8135,
      "duration": 0.2008,
      "velocity": 96,
      "chip": "ym2612"
    },
    {
      "channel": 1,
      "note": 93,
      "start": 49.815,
      "duration": 0.2004,
      "velocity": 96,
      "chip": "ym2612"
    },
    {
      "channel": 5,
      "note": 25,
      "start": 49.8185,
      "duration": 0.1487,
      "velocity": 127,
      "chip": "ym2612"
    },
    {
      "channel": 3,
      "note": 82,
      "start": 50.0179,
      "duration": 0.1016,
      "velocity": 96,
      "chip": "ym2612"
    },
    {
      "channel": 1,
      "note": 94,
      "start": 50.0196,
      "duration": 0.1,
      "velocity": 96,
      "chip": "ym2612"
    },
    {
      "channel": 3,
      "note": 80,
      "start": 50.2443,
      "duration": 0.1039,
      "velocity": 96,
      "chip": "ym2612"
    },
    {
      "channel": 1,
      "note": 92,
      "start": 50.246,
      "duration": 0.1023,
      "velocity": 96,
      "chip": "ym2612"
    },
    {
      "channel": 2,
      "note": 117,
      "start": 50.2482,
      "duration": 0.1529,
      "velocity": 107,
      "chip": "ym2612"
    },
    {
      "channel": 5,
      "note": 42,
      "start": 50.2507,
      "duration": 0.1987,
      "velocity": 127,
      "chip": "ym2612"
    },
    {
      "channel": 2,
      "note": 42,
      "start": 50.454,
      "duration": 0.1532,
      "velocity": 107,
      "chip": "ym2612"
    },
    {
      "channel": 5,
      "note": 25,
      "start": 50.4563,
      "duration": 0.2028,
      "velocity": 127,
      "chip": "ym2612"
    },
    {
      "channel": 3,
      "note": 81,
      "start": 50.677,
      "duration": 0.2008,
      "velocity": 96,
      "chip": "ym2612"
    },
    {
      "channel": 1,
      "note": 93,
      "start": 50.6784,
      "duration": 0.2005,
      "velocity": 96,
      "chip": "ym2612"
    },
    {
      "channel": 5,
      "note": 25,
      "start": 50.682,
      "duration": 0.1487,
      "velocity": 127,
      "chip": "ym2612"
    },
    {
      "channel": 3,
      "note": 82,
      "start": 50.8822,
      "duration": 0.1008,
      "velocity": 96,
      "chip": "ym2612"
    },
    {
      "channel": 1,
      "note": 94,
      "start": 50.8839,
      "duration": 0.0992,
      "velocity": 96,
      "chip": "ym2612"
    },
    {
      "channel": 5,
      "note": 42,
      "start": 50.8878,
      "duration": 0.2059,
      "velocity": 127,
      "chip": "ym2612"
    },
    {
      "channel": 3,
      "note": 80,
      "start": 51.1067,
      "duration": 0.0992,
      "velocity": 96,
      "chip": "ym2612"
    },
    {
      "channel": 1,
      "note": 92,
      "start": 51.1084,
      "duration": 0.0977,
      "velocity": 96,
      "chip": "ym2612"
    },
    {
      "channel": 2,
      "note": 117,
      "start": 51.1105,
      "duration": 0.1483,
      "velocity": 107,
      "chip": "ym2612"
    },
    {
      "channel": 5,
      "note": 25,
      "start": 51.1123,
      "duration": 0.2022,
      "velocity": 127,
      "chip": "ym2612"
    },
    {
      "channel": 3,
      "note": 81,
      "start": 51.3107,
      "duration": 0.1011,
      "velocity": 96,
      "chip": "ym2612"
    },
    {
      "channel": 1,
      "note": 93,
      "start": 51.3124,
      "duration": 0.0996,
      "velocity": 96,
      "chip": "ym2612"
    },
    {
      "channel": 3,
      "note": 80,
      "start": 51.5168,
      "duration": 0.1008,
      "velocity": 96,
      "chip": "ym2612"
    },
    {
      "channel": 1,
      "note": 92,
      "start": 51.5184,
      "duration": 0.0993,
      "velocity": 96,
      "chip": "ym2612"
    },
    {
      "channel": 5,
      "note": 25,
      "start": 51.5228,
      "duration": 0.149,
      "velocity": 127,
      "chip": "ym2612"
    },
    {
      "channel": 3,
      "note": 76,
      "start": 51.7395,
      "duration": 0.1011,
      "velocity": 96,
      "chip": "ym2612"
    },
    {
      "channel": 1,
      "note": 88,
      "start": 51.7413,
      "duration": 0.0995,
      "velocity": 96,
      "chip": "ym2612"
    },
    {
      "channel": 3,
      "note": 74,
      "start": 51.9485,
      "duration": 0.1038,
      "velocity": 96,
      "chip": "ym2612"
    },
    {
      "channel": 1,
      "note": 86,
      "start": 51.9502,
      "duration": 0.1022,
      "velocity": 96,
      "chip": "ym2612"
    },
    {
      "channel": 2,
      "note": 117,
      "start": 51.9523,
      "duration": 0.1534,
      "velocity": 107,
      "chip": "ym2612"
    },
    {
      "channel": 5,
      "note": 42,
      "start": 51.9556,
      "duration": 0.2074,
      "velocity": 127,
      "chip": "ym2612"
    },
    {
      "channel": 3,
      "note": 73,
      "start": 52.1759,
      "duration": 0.0993,
      "velocity": 96,
      "chip": "ym2612"
    },
    {
      "channel": 1,
      "note": 85,
      "start": 52.1775,
      "duration": 0.0978,
      "velocity": 96,
      "chip": "ym2612"
    },
    {
      "channel": 2,
      "note": 39,
      "start": 52.1798,
      "duration": 0.1484,
      "velocity": 107,
      "chip": "ym2612"
    },
    {
      "channel": 5,
      "note": 25,
      "start": 52.1814,
      "duration": 0.1966,
      "velocity": 127,
      "chip": "ym2612"
    },
    {
      "channel": 3,
      "note": 74,
      "start": 52.3802,
      "duration": 0.1008,
      "velocity": 96,
      "chip": "ym2612"
    },
    {
      "channel": 1,
      "note": 86,
      "start": 52.3819,
      "duration": 0.0993,
      "velocity": 96,
      "chip": "ym2612"
    },
    {
      "channel": 5,
      "note": 25,
      "start": 52.3856,
      "duration": 0.1491,
      "velocity": 127,
      "chip": "ym2612"
    },
    {
      "channel": 3,
      "note": 76,
      "start": 52.6032,
      "duration": 0.1008,
      "velocity": 96,
      "chip": "ym2612"
    },
    {
      "channel": 1,
      "note": 88,
      "start": 52.6055,
      "duration": 0.0987,
      "velocity": 96,
      "chip": "ym2612"
    },
    {
      "channel": 5,
      "note": 42,
      "start": 52.6093,
      "duration": 0.1983,
      "velocity": 127,
      "chip": "ym2612"
    },
    {
      "channel": 3,
      "note": 69,
      "start": 52.8105,
      "duration": 0.0994,
      "velocity": 96,
      "chip": "ym2612"
    },
    {
      "channel": 1,
      "note": 81,
      "start": 52.8123,
      "duration": 0.0978,
      "velocity": 96,
      "chip": "ym2612"
    },
    {
      "channel": 2,
      "note": 117,
      "start": 52.8144,
      "duration": 0.1485,
      "velocity": 107,
      "chip": "ym2612"
    },
    {
      "channel": 5,
      "note": 25,
      "start": 52.8161,
      "duration": 0.1988,
      "velocity": 127,
      "chip": "ym2612"
    },
    {
      "channel": 3,
      "note": 81,
      "start": 53.2387,
      "duration": 0.2015,
      "velocity": 96,
      "chip": "ym2612"
    },
    {
      "channel": 1,
      "note": 93,
      "start": 53.2402,
      "duration": 0.201,
      "velocity": 96,
      "chip": "ym2612"
    },
    {
      "channel": 5,
      "note": 25,
      "start": 53.2437,
      "duration": 0.1487,
      "velocity": 127,
      "chip": "ym2612"
    },
    {
      "channel": 3,
      "note": 82,
      "start": 53.4437,
      "duration": 0.101,
      "velocity": 96,
      "chip": "ym2612"
    },
    {
      "channel": 1,
      "note": 94,
      "start": 53.4454,
      "duration": 0.0994,
      "velocity": 96,
      "chip": "ym2612"
    },
    {
      "channel": 3,
      "note": 80,
      "start": 53.6688,
      "duration": 0.1045,
      "velocity": 96,
      "chip": "ym2612"
    },
    {
      "channel": 1,
      "note": 92,
      "start": 53.6705,
      "duration": 0.103,
      "velocity": 96,
      "chip": "ym2612"
    },
    {
      "channel": 2,
      "note": 117,
      "start": 53.6733,
      "duration": 0.153,
      "velocity": 107,
      "chip": "ym2612"
    },
    {
      "channel": 5,
      "note": 42,
      "start": 53.6759,
      "duration": 0.1993,
      "velocity": 127,
      "chip": "ym2612"
    },
    {
      "channel": 2,
      "note": 42,
      "start": 53.8798,
      "duration": 0.1524,
      "velocity": 107,
      "chip": "ym2612"
    },
    {
      "channel": 5,
      "note": 25,
      "start": 53.8815,
      "duration": 0.2028,
      "velocity": 127,
      "chip": "ym2612"
    },
    {
      "channel": 3,
      "note": 81,
      "start": 54.1015,
      "duration": 0.2015,
      "velocity": 96,
      "chip": "ym2612"
    },
    {
      "channel": 1,
      "note": 93,
      "start": 54.103,
      "duration": 0.201,
      "velocity": 96,
      "chip": "ym2612"
    },
    {
      "channel": 5,
      "note": 25,
      "start": 54.1071,
      "duration": 0.1493,
      "velocity": 127,
      "chip": "ym2612"
    },
    {
      "channel": 3,
      "note": 82,
      "start": 54.308,
      "duration": 0.1001,
      "velocity": 96,
      "chip": "ym2612"
    },
    {
      "channel": 1,
      "note": 94,
      "start": 54.3097,
      "duration": 0.0985,
      "velocity": 96,
      "chip": "ym2612"
    },
    {
      "channel": 5,
      "note": 42,
      "start": 54.3134,
      "duration": 0.2055,
      "velocity": 127,
      "chip": "ym2612"
    },
    {
      "channel": 3,
      "note": 80,
      "start": 54.5312,
      "duration": 0.0999,
      "velocity": 96,
      "chip": "ym2612"
    },
    {
      "channel": 1,
      "note": 92,
      "start": 54.5329,
      "duration": 0.0983,
      "velocity": 96,
      "chip": "ym2612"
    },
    {
      "channel": 2,
      "note": 117,
      "start": 54.5351,
      "duration": 0.1489,
      "velocity": 107,
      "chip": "ym2612"
    },
    {
      "channel": 5,
      "note": 25,
      "start": 54.5368,
      "duration": 0.2028,
      "velocity": 127,
      "chip": "ym2612"
    },
    {
      "channel": 3,
      "note": 81,
      "start": 54.7352,
      "duration": 0.1017,
      "velocity": 96,
      "chip": "ym2612"
    },
    {
      "channel": 1,
      "note": 93,
      "start": 54.7369,
      "duration": 0.1001,
      "velocity": 96,
      "chip": "ym2612"
    },
    {
      "channel": 3,
      "note": 80,
      "start": 54.9426,
      "duration": 0.1002,
      "velocity": 96,
      "chip": "ym2612"
    },
    {
      "channel": 1,
      "note": 92,
      "start": 54.9443,
      "duration": 0.0987,
      "velocity": 96,
      "chip": "ym2612"
    },
    {
      "channel": 5,
      "note": 25,
      "start": 54.948,
      "duration": 0.1484,
      "velocity": 127,
      "chip": "ym2612"
    },
    {
      "channel": 3,
      "note": 76,
      "start": 55.1641,
      "duration": 0.1017,
      "velocity": 96,
      "chip": "ym2612"
    },
    {
      "channel": 1,
      "note": 88,
      "start": 55.1658,
      "duration": 0.1001,
      "velocity": 96,
      "chip": "ym2612"
    },
    {
      "channel": 3,
      "note": 74,
      "start": 55.3737,
      "duration": 0.1037,
      "velocity": 96,
      "chip": "ym2612"
    },
    {
      "channel": 1,
      "note": 86,
      "start": 55.3754,
      "duration": 0.1022,
      "velocity": 96,
      "chip": "ym2612"
    },
    {
      "channel": 2,
      "note": 117,
      "start": 55.3775,
      "duration": 0.1528,
      "velocity": 107,
      "chip": "ym2612"
    },
    {
      "channel": 5,
      "note": 42,
      "start": 55.3801,
      "duration": 0.2087,
      "velocity": 127,
      "chip": "ym2612"
    },
    {
      "channel": 3,
      "note": 73,
      "start": 55.6004,
      "duration": 0.0999,
      "velocity": 96,
      "chip": "ym2612"
    },
    {
      "channel": 1,
      "note": 85,
      "start": 55.6021,
      "duration": 0.0984,
      "velocity": 96,
      "chip": "ym2612"
    },
    {
      "channel": 2,
      "note": 39,
      "start": 55.6049,
      "duration": 0.1483,
      "velocity": 107,
      "chip": "ym2612"
    },
    {
      "channel": 5,
      "note": 25,
      "start": 55.6066,
      "duration": 0.1966,
      "velocity": 127,
      "chip": "ym2612"
    },
    {
      "channel": 3,
      "note": 74,
      "start": 55.806,
      "duration": 0.1002,
      "velocity": 96,
      "chip": "ym2612"
    },
    {
      "channel": 1,
      "note": 86,
      "start": 55.8078,
      "duration": 0.0986,
      "velocity": 96,
      "chip": "ym2612"
    },
    {
      "channel": 5,
      "note": 25,
      "start": 55.8114,
      "duration": 0.1484,
      "velocity": 127,
      "chip": "ym2612"
    },
    {
      "channel": 3,
      "note": 76,
      "start": 56.029,
      "duration": 0.1002,
      "velocity": 96,
      "chip": "ym2612"
    },
    {
      "channel": 1,
      "note": 88,
      "start": 56.0307,
      "duration": 0.0987,
      "velocity": 96,
      "chip": "ym2612"
    },
    {
      "channel": 5,
      "note": 42,
      "start": 56.0345,
      "duration": 0.1976,
      "velocity": 127,
      "chip": "ym2612"
    },
    {
      "channel": 3,
      "note": 69,
      "start": 56.2351,
      "duration": 0.1,
      "velocity": 96,
      "chip": "ym2612"
    },
    {
      "channel": 1,
      "note": 81,
      "start": 56.2368,
      "duration": 0.0985,
      "velocity": 96,
      "chip": "ym2612"
    },
    {
      "channel": 2,
      "note": 117,
      "start": 56.2396,
      "duration": 0.149,
      "velocity": 107,
      "chip": "ym2612"
    },
    {
      "channel": 5,
      "note": 25,
      "start": 56.2413,
      "duration": 0.1995,
      "velocity": 127,
      "chip": "ym2612"
    },
    {
      "channel": 3,
      "note": 81,
      "start": 56.6635,
      "duration": 0.2011,
      "velocity": 96,
      "chip": "ym2612"
    },
    {
      "channel": 1,
      "note": 93,
      "start": 56.6651,
      "duration": 0.2007,
      "velocity": 96,
      "chip": "ym2612"
    },
    {
      "channel": 5,
      "note": 25,
      "start": 56.6686,
      "duration": 0.149,
      "velocity": 127,
      "chip": "ym2612"
    },
    {
      "channel": 3,
      "note": 82,
      "start": 56.8682,
      "duration": 0.1016,
      "velocity": 96,
      "chip": "ym2612"
    },
    {
      "channel": 1,
      "note": 94,
      "start": 56.87,
      "duration": 0.1,
      "velocity": 96,
      "chip": "ym2612"
    },
    {
      "channel": 3,
      "note": 80,
      "start": 57.0946,
      "duration": 0.1039,
      "velocity": 96,
      "chip": "ym2612"
    },
    {
      "channel": 1,
      "note": 92,
      "start": 57.0963,
      "duration": 0.1023,
      "velocity": 96,
      "chip": "ym2612"
    },
    {
      "channel": 2,
      "note": 117,
      "start": 57.0985,
      "duration": 0.1529,
      "velocity": 107,
      "chip": "ym2612"
    },
    {
      "channel": 5,
      "note": 42,
      "start": 57.1011,
      "duration": 0.2003,
      "velocity": 127,
      "chip": "ym2612"
    },
    {
      "channel": 3,
      "note": 81,
      "start": 57.3051,
      "duration": 0.0999,
      "velocity": 96,
      "chip": "ym2612"
    },
    {
      "channel": 1,
      "note": 93,
      "start": 57.3067,
      "duration": 0.0984,
      "velocity": 96,
      "chip": "ym2612"
    },
    {
      "channel": 2,
      "note": 42,
      "start": 57.309,
      "duration": 0.1484,
      "velocity": 107,
      "chip": "ym2612"
    },
    {
      "channel": 5,
      "note": 25,
      "start": 57.3106,
      "duration": 0.1988,
      "velocity": 127,
      "chip": "ym2612"
    },
    {
      "channel": 3,
      "note": 80,
      "start": 57.5272,
      "duration": 0.1001,
      "velocity": 96,
      "chip": "ym2612"
    },
    {
      "channel": 1,
      "note": 92,
      "start": 57.5289,
      "duration": 0.0987,
      "velocity": 96,
      "chip": "ym2612"
    },
    {
      "channel": 5,
      "note": 25,
      "start": 57.5326,
      "duration": 0.1484,
      "velocity": 127,
      "chip": "ym2612"
    },
    {
      "channel": 3,
      "note": 76,
      "start": 57.7324,
      "duration": 0.1008,
      "velocity": 96,
      "chip": "ym2612"
    },
    {
      "channel": 1,
      "note": 88,
      "start": 57.7341,
      "duration": 0.0993,
      "velocity": 96,
      "chip": "ym2612"
    },
    {
      "channel": 5,
      "note": 42,
      "start": 57.7384,
      "duration": 0.2056,
      "velocity": 127,
      "chip": "ym2612"
    },
    {
      "channel": 3,
      "note": 74,
      "start": 57.957,
      "duration": 14.2837,
      "velocity": 96,
      "chip": "ym2612"
    },
    {
      "channel": 1,
      "note": 86,
      "start": 57.9587,
      "duration": 0.8354,
      "velocity": 96,
      "chip": "ym2612"
    },
    {
      "channel": 2,
      "note": 117,
      "start": 57.9609,
      "duration": 0.1483,
      "velocity": 107,
      "chip": "ym2612"
    },
    {
      "channel": 5,
      "note": 25,
      "start": 57.9626,
      "duration": 0.1987,
      "velocity": 127,
      "chip": "ym2612"
    },
    {
      "channel": 5,
      "note": 25,
      "start": 58.3689,
      "duration": 0.1533,
      "velocity": 127,
      "chip": "ym2612"
    },
    {
      "channel": 0,
      "note": 42,
      "start": 58.7994,
      "duration": 0.2058,
      "velocity": 107,
      "chip": "ym2612"
    },
    {
      "channel": 1,
      "note": 85,
      "start": 58.8016,
      "duration": 0.1015,
      "velocity": 96,
      "chip": "ym2612"
    },
    {
      "channel": 4,
      "note": 112,
      "start": 58.8032,
      "duration": 0.2032,
      "velocity": 99,
      "chip": "ym2612"
    },
    {
      "channel": 2,
      "note": 117,
      "start": 58.8065,
      "duration": 0.069,
      "velocity": 95,
      "chip": "ym2612"
    },
    {
      "channel": 5,
      "note": 42,
      "start": 58.809,
      "duration": 0.0968,
      "velocity": 127,
      "chip": "ym2612"
    },
    {
      "channel": 2,
      "note": 93,
      "start": 58.9051,
      "duration": 0.0732,
      "velocity": 95,
      "chip": "ym2612"
    },
    {
      "channel": 0,
      "note": 37,
      "start": 59.0264,
      "duration": 0.2052,
      "velocity": 107,
      "chip": "ym2612"
    },
    {
      "channel": 1,
      "note": 85,
      "start": 59.0287,
      "duration": 0.1031,
      "velocity": 96,
      "chip": "ym2612"
    },
    {
      "channel": 4,
      "note": 109,
      "start": 59.0303,
      "duration": 0.2035,
      "velocity": 99,
      "chip": "ym2612"
    },
    {
      "channel": 2,
      "note": 93,
      "start": 59.033,
      "duration": 0.0994,
      "velocity": 127,
      "chip": "ym2612"
    },
    {
      "channel": 5,
      "note": 25,
      "start": 59.0347,
      "duration": 0.0944,
      "velocity": 127,
      "chip": "ym2612"
    },
    {
      "channel": 5,
      "note": 25,
      "start": 59.1334,
      "duration": 0.1015,
      "velocity": 127,
      "chip": "ym2612"
    },
    {
      "channel": 0,
      "note": 38,
      "start": 59.2374,
      "duration": 0.2058,
      "velocity": 107,
      "chip": "ym2612"
    },
    {
      "channel": 1,
      "note": 86,
      "start": 59.2402,
      "duration": 0.1032,
      "velocity": 96,
      "chip": "ym2612"
    },
    {
      "channel": 4,
      "note": 110,
      "start": 59.2419,
      "duration": 0.2035,
      "velocity": 99,
      "chip": "ym2612"
    },
    {
      "channel": 2,
      "note": 90,
      "start": 59.2446,
      "duration": 0.0711,
      "velocity": 95,
      "chip": "ym2612"
    },
    {
      "channel": 5,
      "note": 25,
      "start": 59.2472,
      "duration": 0.0686,
      "velocity": 127,
      "chip": "ym2612"
    },
    {
      "channel": 2,
      "note": 93,
      "start": 59.3448,
      "duration": 0.0739,
      "velocity": 95,
      "chip": "ym2612"
    },
    {
      "channel": 0,
      "note": 40,
      "start": 59.449,
      "duration": 0.2078,
      "velocity": 107,
      "chip": "ym2612"
    },
    {
      "channel": 1,
      "note": 88,
      "start": 59.4511,
      "duration": 0.1044,
      "velocity": 96,
      "chip": "ym2612"
    },
    {
      "channel": 4,
      "note": 112,
      "start": 59.4529,
      "duration": 0.2051,
      "velocity": 99,
      "chip": "ym2612"
    },
    {
      "channel": 2,
      "note": 93,
      "start": 59.4561,
      "duration": 0.1,
      "velocity": 127,
      "chip": "ym2612"
    },
    {
      "channel": 5,
      "note": 42,
      "start": 59.4588,
      "duration": 0.0975,
      "velocity": 127,
      "chip": "ym2612"
    },
    {
      "channel": 5,
      "note": 25,
      "start": 59.575,
      "duration": 0.11,
      "velocity": 127,
      "chip": "ym2612"
    },
    {
      "channel": 0,
      "note": 33,
      "start": 59.6776,
      "duration": 0.2085,
      "velocity": 107,
      "chip": "ym2612"
    },
    {
      "channel": 1,
      "note": 81,
      "start": 59.6798,
      "duration": 0.1039,
      "velocity": 96,
      "chip": "ym2612"
    },
    {
      "channel": 4,
      "note": 105,
      "start": 59.6815,
      "duration": 0.2057,
      "velocity": 99,
      "chip": "ym2612"
    },
    {
      "channel": 2,
      "note": 90,
      "start": 59.6841,
      "duration": 0.0726,
      "velocity": 95,
      "chip": "ym2612"
    },
    {
      "channel": 2,
      "note": 93,
      "start": 59.7852,
      "duration": 0.0738,
      "velocity": 95,
      "chip": "ym2612"
    },
    {
      "channel": 5,
      "note": 25,
      "start": 59.7875,
      "duration": 0.0716,
      "velocity": 127,
      "chip": "ym2612"
    },
    {
      "channel": 2,
      "note": 93,
      "start": 59.8898,
      "duration": 0.2036,
      "velocity": 127,
      "chip": "ym2612"
    },
    {
      "channel": 5,
      "note": 42,
      "start": 59.8924,
      "duration": 0.2011,
      "velocity": 127,
      "chip": "ym2612"
    },
    {
      "channel": 0,
      "note": 45,
      "start": 60.113,
      "duration": 0.205,
      "velocity": 107,
      "chip": "ym2612"
    },
    {
      "channel": 1,
      "note": 93,
      "start": 60.115,
      "duration": 0.2043,
      "velocity": 96,
      "chip": "ym2612"
    },
    {
      "channel": 4,
      "note": 117,
      "start": 60.1165,
      "duration": 0.2039,
      "velocity": 99,
      "chip": "ym2612"
    },
    {
      "channel": 2,
      "note": 90,
      "start": 60.1189,
      "duration": 0.0716,
      "velocity": 95,
      "chip": "ym2612"
    },
    {
      "channel": 5,
      "note": 25,
      "start": 60.1222,
      "duration": 0.0686,
      "velocity": 127,
      "chip": "ym2612"
    },
    {
      "channel": 2,
      "note": 93,
      "start": 60.22,
      "duration": 0.0735,
      "velocity": 95,
      "chip": "ym2612"
    },
    {
      "channel": 0,
      "note": 45,
      "start": 60.3246,
      "duration": 0.2051,
      "velocity": 107,
      "chip": "ym2612"
    },
    {
      "channel": 1,
      "note": 94,
      "start": 60.3268,
      "duration": 0.103,
      "velocity": 96,
      "chip": "ym2612"
    },
    {
      "channel": 4,
      "note": 117,
      "start": 60.3285,
      "duration": 0.204,
      "velocity": 99,
      "chip": "ym2612"
    },
    {
      "channel": 2,
      "note": 93,
      "start": 60.3312,
      "duration": 0.2034,
      "velocity": 127,
      "chip": "ym2612"
    },
    {
      "channel": 5,
      "note": 42,
      "start": 60.3338,
      "duration": 0.1999,
      "velocity": 127,
      "chip": "ym2612"
    },
    {
      "channel": 0,
      "note": 44,
      "start": 60.5362,
      "duration": 0.2071,
      "velocity": 107,
      "chip": "ym2612"
    },
    {
      "channel": 1,
      "note": 92,
      "start": 60.539,
      "duration": 0.1023,
      "velocity": 96,
      "chip": "ym2612"
    },
    {
      "channel": 4,
      "note": 116,
      "start": 60.5408,
      "duration": 0.2037,
      "velocity": 99,
      "chip": "ym2612"
    },
    {
      "channel": 2,
      "note": 90,
      "start": 60.5434,
      "duration": 0.0703,
      "velocity": 95,
      "chip": "ym2612"
    },
    {
      "channel": 5,
      "note": 25,
      "start": 60.5451,
      "duration": 0.0973,
      "velocity": 127,
      "chip": "ym2612"
    },
    {
      "channel": 2,
      "note": 93,
      "start": 60.6604,
      "duration": 0.0735,
      "velocity": 95,
      "chip": "ym2612"
    },
    {
      "channel": 2,
      "note": 93,
      "start": 60.7651,
      "duration": 0.1002,
      "velocity": 127,
      "chip": "ym2612"
    },
    {
      "channel": 5,
      "note": 25,
      "start": 60.7668,
      "duration": 0.0949,
      "velocity": 127,
      "chip": "ym2612"
    },
    {
      "channel": 5,
      "note": 25,
      "start": 60.8663,
      "duration": 0.1012,
      "velocity": 127,
      "chip": "ym2612"
    },
    {
      "channel": 0,
      "note": 45,
      "start": 60.97,
      "duration": 0.2136,
      "velocity": 107,
      "chip": "ym2612"
    },
    {
      "channel": 1,
      "note": 93,
      "start": 60.9726,
      "duration": 0.2215,
      "velocity": 96,
      "chip": "ym2612"
    },
    {
      "channel": 4,
      "note": 117,
      "start": 60.9741,
      "duration": 0.2106,
      "velocity": 99,
      "chip": "ym2612"
    },
    {
      "channel": 2,
      "note": 90,
      "start": 60.9766,
      "duration": 0.0717,
      "velocity": 95,
      "chip": "ym2612"
    },
    {
      "channel": 5,
      "note": 25,
      "start": 60.9793,
      "duration": 0.0692,
      "velocity": 127,
      "chip": "ym2612"
    },
    {
      "channel": 2,
      "note": 93,
      "start": 61.0777,
      "duration": 0.0735,
      "velocity": 95,
      "chip": "ym2612"
    },
    {
      "channel": 0,
      "note": 45,
      "start": 61.1988,
      "duration": 0.2064,
      "velocity": 107,
      "chip": "ym2612"
    },
    {
      "channel": 1,
      "note": 94,
      "start": 61.2009,
      "duration": 0.1043,
      "velocity": 96,
      "chip": "ym2612"
    },
    {
      "channel": 4,
      "note": 117,
      "start": 61.2027,
      "duration": 0.2049,
      "velocity": 99,
      "chip": "ym2612"
    },
    {
      "channel": 2,
      "note": 93,
      "start": 61.206,
      "duration": 0.0999,
      "velocity": 127,
      "chip": "ym2612"
    },
    {
      "channel": 5,
      "note": 42,
      "start": 61.2086,
      "duration": 0.0934,
      "velocity": 127,
      "chip": "ym2612"
    },
    {
      "channel": 5,
      "note": 25,
      "start": 61.3068,
      "duration": 0.1108,
      "velocity": 127,
      "chip": "ym2612"
    },
    {
      "channel": 0,
      "note": 44,
      "start": 61.4102,
      "duration": 0.2059,
      "velocity": 107,
      "chip": "ym2612"
    },
    {
      "channel": 1,
      "note": 92,
      "start": 61.4124,
      "duration": 0.1039,
      "velocity": 96,
      "chip": "ym2612"
    },
    {
      "channel": 4,
      "note": 116,
      "start": 61.4141,
      "duration": 0.2041,
      "velocity": 99,
      "chip": "ym2612"
    },
    {
      "channel": 2,
      "note": 90,
      "start": 61.4168,
      "duration": 0.0725,
      "velocity": 95,
      "chip": "ym2612"
    },
    {
      "channel": 2,
      "note": 93,
      "start": 61.5178,
      "duration": 0.0737,
      "velocity": 95,
      "chip": "ym2612"
    },
    {
      "channel": 5,
      "note": 25,
      "start": 61.5202,
      "duration": 0.0716,
      "velocity": 127,
      "chip": "ym2612"
    },
    {
      "channel": 0,
      "note": 45,
      "start": 61.6226,
      "duration": 0.2129,
      "velocity": 107,
      "chip": "ym2612"
    },
    {
      "channel": 1,
      "note": 93,
      "start": 61.6247,
      "duration": 0.103,
      "velocity": 96,
      "chip": "ym2612"
    },
    {
      "channel": 4,
      "note": 117,
      "start": 61.6264,
      "duration": 0.2102,
      "velocity": 99,
      "chip": "ym2612"
    },
    {
      "channel": 2,
      "note": 93,
      "start": 61.6291,
      "duration": 0.2076,
      "velocity": 127,
      "chip": "ym2612"
    },
    {
      "channel": 5,
      "note": 42,
      "start": 61.6317,
      "duration": 0.2052,
      "velocity": 127,
      "chip": "ym2612"
    },
    {
      "channel": 0,
      "note": 44,
      "start": 61.8506,
      "duration": 0.2064,
      "velocity": 107,
      "chip": "ym2612"
    },
    {
      "channel": 1,
      "note": 92,
      "start": 61.8528,
      "duration": 0.1037,
      "velocity": 96,
      "chip": "ym2612"
    },
    {
      "channel": 4,
      "note": 116,
      "start": 61.8551,
      "duration": 0.2041,
      "velocity": 99,
      "chip": "ym2612"
    },
    {
      "channel": 2,
      "note": 90,
      "start": 61.8578,
      "duration": 0.0711,
      "velocity": 95,
      "chip": "ym2612"
    },
    {
      "channel": 5,
      "note": 25,
      "start": 61.8604,
      "duration": 0.0686,
      "velocity": 127,
      "chip": "ym2612"
    },
    {
      "channel": 2,
      "note": 93,
      "start": 61.958,
      "duration": 0.0739,
      "velocity": 95,
      "chip": "ym2612"
    },
    {
      "channel": 0,
      "note": 40,
      "start": 62.0628,
      "duration": 0.2052,
      "velocity": 107,
      "chip": "ym2612"
    },
    {
      "channel": 1,
      "note": 88,
      "start": 62.0651,
      "duration": 0.103,
      "velocity": 96,
      "chip": "ym2612"
    },
    {
      "channel": 4,
      "note": 112,
      "start": 62.0667,
      "duration": 0.2049,
      "velocity": 99,
      "chip": "ym2612"
    },
    {
      "channel": 2,
      "note": 93,
      "start": 62.0694,
      "duration": 0.2043,
      "velocity": 127,
      "chip": "ym2612"
    },
    {
      "channel": 5,
      "note": 42,
      "start": 62.0726,
      "duration": 0.2002,
      "velocity": 127,
      "chip": "ym2612"
    },
    {
      "channel": 0,
      "note": 38,
      "start": 62.2754,
      "duration": 0.212,
      "velocity": 107,
      "chip": "ym2612"
    },
    {
      "channel": 1,
      "note": 86,
      "start": 62.2775,
      "duration": 0.1022,
      "velocity": 96,
      "chip": "ym2612"
    },
    {
      "channel": 4,
      "note": 110,
      "start": 62.2793,
      "duration": 0.2099,
      "velocity": 99,
      "chip": "ym2612"
    },
    {
      "channel": 2,
      "note": 90,
      "start": 62.2819,
      "duration": 0.0702,
      "velocity": 95,
      "chip": "ym2612"
    },
    {
      "channel": 5,
      "note": 25,
      "start": 62.2836,
      "duration": 0.0971,
      "velocity": 127,
      "chip": "ym2612"
    },
    {
      "channel": 2,
      "note": 93,
      "start": 62.3986,
      "duration": 0.0741,
      "velocity": 95,
      "chip": "ym2612"
    },
    {
      "channel": 0,
      "note": 37,
      "start": 62.5025,
      "duration": 0.2063,
      "velocity": 107,
      "chip": "ym2612"
    },
    {
      "channel": 1,
      "note": 85,
      "start": 62.5053,
      "duration": 0.1031,
      "velocity": 96,
      "chip": "ym2612"
    },
    {
      "channel": 4,
      "note": 109,
      "start": 62.507,
      "duration": 0.204,
      "velocity": 99,
      "chip": "ym2612"
    },
    {
      "channel": 2,
      "note": 93,
      "start": 62.5097,
      "duration": 0.0994,
      "velocity": 127,
      "chip": "ym2612"
    },
    {
      "channel": 5,
      "note": 25,
      "start": 62.5114,
      "duration": 0.095,
      "velocity": 127,
      "chip": "ym2612"
    },
    {
      "channel": 5,
      "note": 25,
      "start": 62.61,
      "duration": 0.102,
      "velocity": 127,
      "chip": "ym2612"
    },
    {
      "channel": 0,
      "note": 38,
      "start": 62.7146,
      "duration": 0.2073,
      "velocity": 107,
      "chip": "ym2612"
    },
    {
      "channel": 1,
      "note": 86,
      "start": 62.7167,
      "duration": 0.1032,
      "velocity": 96,
      "chip": "ym2612"
    },
    {
      "channel": 4,
      "note": 110,
      "start": 62.7184,
      "duration": 0.2046,
      "velocity": 99,
      "chip": "ym2612"
    },
    {
      "channel": 2,
      "note": 90,
      "start": 62.7217,
      "duration": 0.0706,
      "velocity": 95,
      "chip": "ym2612"
    },
    {
      "channel": 5,
      "note": 25,
      "start": 62.7244,
      "duration": 0.0681,
      "velocity": 127,
      "chip": "ym2612"
    },
    {
      "channel": 2,
      "note": 93,
      "start": 62.8221,
      "duration": 0.0732,
      "velocity": 95,
      "chip": "ym2612"
    },
    {
      "channel": 0,
      "note": 40,
      "start": 62.9434,
      "duration": 0.2052,
      "velocity": 107,
      "chip": "ym2612"
    },
    {
      "channel": 1,
      "note": 88,
      "start": 62.9456,
      "duration": 0.1031,
      "velocity": 96,
      "chip": "ym2612"
    },
    {
      "channel": 4,
      "note": 112,
      "start": 62.9473,
      "duration": 0.2036,
      "velocity": 99,
      "chip": "ym2612"
    },
    {
      "channel": 2,
      "note": 93,
      "start": 62.9499,
      "duration": 0.0994,
      "velocity": 127,
      "chip": "ym2612"
    },
    {
      "channel": 5,
      "note": 42,
      "start": 62.9525,
      "duration": 0.0935,
      "velocity": 127,
      "chip": "ym2612"
    },
    {
      "channel": 5,
      "note": 25,
      "start": 63.0503,
      "duration": 0.1113,
      "velocity": 127,
      "chip": "ym2612"
    },
    {
      "channel": 0,
      "note": 33,
      "start": 63.1535,
      "duration": 0.2092,
      "velocity": 107,
      "chip": "ym2612"
    },
    {
      "channel": 1,
      "note": 81,
      "start": 63.1564,
      "duration": 0.1046,
      "velocity": 96,
      "chip": "ym2612"
    },
    {
      "channel": 4,
      "note": 105,
      "start": 63.1581,
      "duration": 0.2058,
      "velocity": 99,
      "chip": "ym2612"
    },
    {
      "channel": 2,
      "note": 90,
      "start": 63.1607,
      "duration": 0.0719,
      "velocity": 95,
      "chip": "ym2612"
    },
    {
      "channel": 2,
      "note": 93,
      "start": 63.2624,
      "duration": 0.0731,
      "velocity": 95,
      "chip": "ym2612"
    },
    {
      "channel": 5,
      "note": 25,
      "start": 63.2648,
      "duration": 0.0709,
      "velocity": 127,
      "chip": "ym2612"
    },
    {
      "channel": 2,
      "note": 93,
      "start": 63.3658,
      "duration": 0.2042,
      "velocity": 127,
      "chip": "ym2612"
    },
    {
      "channel": 5,
      "note": 42,
      "start": 63.3684,
      "duration": 0.2017,
      "velocity": 127,
      "chip": "ym2612"
    },
    {
      "channel": 0,
      "note": 45,
      "start": 63.5896,
      "duration": 0.205,
      "velocity": 107,
      "chip": "ym2612"
    },
    {
      "channel": 1,
      "note": 93,
      "start": 63.5917,
      "duration": 0.2042,
      "velocity": 96,
      "chip": "ym2612"
    },
    {
      "channel": 4,
      "note": 117,
      "start": 63.5931,
      "duration": 0.2038,
      "velocity": 99,
      "chip": "ym2612"
    },
    {
      "channel": 2,
      "note": 90,
      "start": 63.5956,
      "duration": 0.0716,
      "velocity": 95,
      "chip": "ym2612"
    },
    {
      "channel": 5,
      "note": 25,
      "start": 63.5982,
      "duration": 0.0691,
      "velocity": 127,
      "chip": "ym2612"
    },
    {
      "channel": 2,
      "note": 93,
      "start": 63.6966,
      "duration": 0.0735,
      "velocity": 95,
      "chip": "ym2612"
    },
    {
      "channel": 0,
      "note": 45,
      "start": 63.8006,
      "duration": 0.2078,
      "velocity": 107,
      "chip": "ym2612"
    },
    {
      "channel": 1,
      "note": 94,
      "start": 63.8028,
      "duration": 0.1036,
      "velocity": 96,
      "chip": "ym2612"
    },
    {
      "channel": 4,
      "note": 117,
      "start": 63.8051,
      "duration": 0.2044,
      "velocity": 99,
      "chip": "ym2612"
    },
    {
      "channel": 2,
      "note": 93,
      "start": 63.8078,
      "duration": 0.2019,
      "velocity": 127,
      "chip": "ym2612"
    },
    {
      "channel": 5,
      "note": 42,
      "start": 63.8104,
      "duration": 0.1994,
      "velocity": 127,
      "chip": "ym2612"
    },
    {
      "channel": 0,
      "note": 44,
      "start": 64.0307,
      "duration": 0.2069,
      "velocity": 107,
      "chip": "ym2612"
    },
    {
      "channel": 1,
      "note": 92,
      "start": 64.0328,
      "duration": 0.1023,
      "velocity": 96,
      "chip": "ym2612"
    },
    {
      "channel": 4,
      "note": 116,
      "start": 64.0345,
      "duration": 0.2048,
      "velocity": 99,
      "chip": "ym2612"
    },
    {
      "channel": 2,
      "note": 90,
      "start": 64.0372,
      "duration": 0.0704,
      "velocity": 95,
      "chip": "ym2612"
    },
    {
      "channel": 5,
      "note": 25,
      "start": 64.0395,
      "duration": 0.0977,
      "velocity": 127,
      "chip": "ym2612"
    },
    {
      "channel": 2,
      "note": 93,
      "start": 64.1366,
      "duration": 0.0739,
      "velocity": 95,
      "chip": "ym2612"
    },
    {
      "channel": 2,
      "note": 93,
      "start": 64.2413,
      "duration": 0.1007,
      "velocity": 127,
      "chip": "ym2612"
    },
    {
      "channel": 5,
      "note": 25,
      "start": 64.243,
      "duration": 0.096,
      "velocity": 127,
      "chip": "ym2612"
    },
    {
      "channel": 5,
      "note": 25,
      "start": 64.3429,
      "duration": 0.1018,
      "velocity": 127,
      "chip": "ym2612"
    },
    {
      "channel": 0,
      "note": 45,
      "start": 64.4473,
      "duration": 0.2079,
      "velocity": 107,
      "chip": "ym2612"
    },
    {
      "channel": 1,
      "note": 93,
      "start": 64.4492,
      "duration": 0.2215,
      "velocity": 96,
      "chip": "ym2612"
    },
    {
      "channel": 4,
      "note": 117,
      "start": 64.4507,
      "duration": 0.2055,
      "velocity": 99,
      "chip": "ym2612"
    },
    {
      "channel": 2,
      "note": 90,
      "start": 64.4532,
      "duration": 0.0718,
      "velocity": 95,
      "chip": "ym2612"
    },
    {
      "channel": 5,
      "note": 25,
      "start": 64.4565,
      "duration": 0.0686,
      "velocity": 127,
      "chip": "ym2612"
    },
    {
      "channel": 2,
      "note": 93,
      "start": 64.5721,
      "duration": 0.0729,
      "velocity": 95,
      "chip": "ym2612"
    },
    {
      "channel": 0,
      "note": 45,
      "start": 64.676,
      "duration": 0.2052,
      "velocity": 107,
      "chip": "ym2612"
    },
    {
      "channel": 1,
      "note": 94,
      "start": 64.6782,
      "duration": 0.1031,
      "velocity": 96,
      "chip": "ym2612"
    },
    {
      "channel": 4,
      "note": 117,
      "start": 64.6799,
      "duration": 0.2037,
      "velocity": 99,
      "chip": "ym2612"
    },
    {
      "channel": 2,
      "note": 93,
      "start": 64.6826,
      "duration": 0.0994,
      "velocity": 127,
      "chip": "ym2612"
    },
    {
      "channel": 5,
      "note": 42,
      "start": 64.6852,
      "duration": 0.0934,
      "velocity": 127,
      "chip": "ym2612"
    },
    {
      "channel": 5,
      "note": 25,
      "start": 64.7829,
      "duration": 0.1114,
      "velocity": 127,
      "chip": "ym2612"
    },
    {
      "channel": 0,
      "note": 44,
      "start": 64.8862,
      "duration": 0.2065,
      "velocity": 107,
      "chip": "ym2612"
    },
    {
      "channel": 1,
      "note": 92,
      "start": 64.8891,
      "duration": 0.1044,
      "velocity": 96,
      "chip": "ym2612"
    },
    {
      "channel": 4,
      "note": 116,
      "start": 64.8908,
      "duration": 0.2041,
      "velocity": 99,
      "chip": "ym2612"
    },
    {
      "channel": 2,
      "note": 90,
      "start": 64.8934,
      "duration": 0.0718,
      "velocity": 95,
      "chip": "ym2612"
    },
    {
      "channel": 2,
      "note": 93,
      "start": 64.995,
      "duration": 0.0732,
      "velocity": 95,
      "chip": "ym2612"
    },
    {
      "channel": 5,
      "note": 25,
      "start": 64.9974,
      "duration": 0.0709,
      "velocity": 127,
      "chip": "ym2612"
    },
    {
      "channel": 0,
      "note": 45,
      "start": 65.0986,
      "duration": 0.2135,
      "velocity": 107,
      "chip": "ym2612"
    },
    {
      "channel": 1,
      "note": 93,
      "start": 65.1007,
      "duration": 0.1043,
      "velocity": 96,
      "chip": "ym2612"
    },
    {
      "channel": 4,
      "note": 117,
      "start": 65.1025,
      "duration": 0.2107,
      "velocity": 99,
      "chip": "ym2612"
    },
    {
      "channel": 2,
      "note": 93,
      "start": 65.1058,
      "duration": 0.2076,
      "velocity": 127,
      "chip": "ym2612"
    },
    {
      "channel": 5,
      "note": 42,
      "start": 65.1084,
      "duration": 0.2051,
      "velocity": 127,
      "chip": "ym2612"
    },
    {
      "channel": 0,
      "note": 44,
      "start": 65.3279,
      "duration": 0.2051,
      "velocity": 107,
      "chip": "ym2612"
    },
    {
      "channel": 1,
      "note": 92,
      "start": 65.3301,
      "duration": 0.1031,
      "velocity": 96,
      "chip": "ym2612"
    },
    {
      "channel": 4,
      "note": 116,
      "start": 65.3318,
      "duration": 0.2034,
      "velocity": 99,
      "chip": "ym2612"
    },
    {
      "channel": 2,
      "note": 90,
      "start": 65.3345,
      "duration": 0.0717,
      "velocity": 95,
      "chip": "ym2612"
    },
    {
      "channel": 5,
      "note": 25,
      "start": 65.3371,
      "duration": 0.0693,
      "velocity": 127,
      "chip": "ym2612"
    },
    {
      "channel": 2,
      "note": 93,
      "start": 65.4346,
      "duration": 0.0738,
      "velocity": 95,
      "chip": "ym2612"
    },
    {
      "channel": 0,
      "note": 40,
      "start": 65.5395,
      "duration": 0.2072,
      "velocity": 107,
      "chip": "ym2612"
    },
    {
      "channel": 1,
      "note": 88,
      "start": 65.5417,
      "duration": 0.1031,
      "velocity": 96,
      "chip": "ym2612"
    },
    {
      "channel": 4,
      "note": 112,
      "start": 65.5434,
      "duration": 0.2044,
      "velocity": 99,
      "chip": "ym2612"
    },
    {
      "channel": 2,
      "note": 93,
      "start": 65.546,
      "duration": 0.2019,
      "velocity": 127,
      "chip": "ym2612"
    },
    {
      "channel": 5,
      "note": 42,
      "start": 65.5486,
      "duration": 0.1995,
      "velocity": 127,
      "chip": "ym2612"
    },
    {
      "channel": 0,
      "note": 38,
      "start": 65.7685,
      "duration": 0.2054,
      "velocity": 107,
      "chip": "ym2612"
    },
    {
      "channel": 1,
      "note": 86,
      "start": 65.7707,
      "duration": 0.1027,
      "velocity": 96,
      "chip": "ym2612"
    },
    {
      "channel": 4,
      "note": 110,
      "start": 65.773,
      "duration": 0.2031,
      "velocity": 99,
      "chip": "ym2612"
    },
    {
      "channel": 2,
      "note": 90,
      "start": 65.7757,
      "duration": 0.0702,
      "velocity": 95,
      "chip": "ym2612"
    },
    {
      "channel": 5,
      "note": 25,
      "start": 65.7774,
      "duration": 0.0982,
      "velocity": 127,
      "chip": "ym2612"
    },
    {
      "channel": 2,
      "note": 93,
      "start": 65.8749,
      "duration": 0.0739,
      "velocity": 95,
      "chip": "ym2612"
    },
    {
      "channel": 0,
      "note": 37,
      "start": 65.9797,
      "duration": 0.2052,
      "velocity": 107,
      "chip": "ym2612"
    },
    {
      "channel": 1,
      "note": 85,
      "start": 65.9819,
      "duration": 0.1031,
      "velocity": 96,
      "chip": "ym2612"
    },
    {
      "channel": 4,
      "note": 109,
      "start": 65.9836,
      "duration": 0.2035,
      "velocity": 99,
      "chip": "ym2612"
    },
    {
      "channel": 2,
      "note": 93,
      "start": 65.9862,
      "duration": 0.0994,
      "velocity": 127,
      "chip": "ym2612"
    },
    {
      "channel": 5,
      "note": 25,
      "start": 65.9886,
      "duration": 0.0938,
      "velocity": 127,
      "chip": "ym2612"
    },
    {
      "channel": 5,
      "note": 25,
      "start": 66.0866,
      "duration": 0.1021,
      "velocity": 127,
      "chip": "ym2612"
    },
    {
      "channel": 0,
      "note": 38,
      "start": 66.1913,
      "duration": 0.2073,
      "velocity": 107,
      "chip": "ym2612"
    },
    {
      "channel": 1,
      "note": 86,
      "start": 66.1934,
      "duration": 0.1032,
      "velocity": 96,
      "chip": "ym2612"
    },
    {
      "channel": 4,
      "note": 110,
      "start": 66.1951,
      "duration": 0.2045,
      "velocity": 99,
      "chip": "ym2612"
    },
    {
      "channel": 2,
      "note": 90,
      "start": 66.1978,
      "duration": 0.0712,
      "velocity": 95,
      "chip": "ym2612"
    },
    {
      "channel": 5,
      "note": 25,
      "start": 66.2004,
      "duration": 0.0687,
      "velocity": 127,
      "chip": "ym2612"
    },
    {
      "channel": 2,
      "note": 93,
      "start": 66.3156,
      "duration": 0.0741,
      "velocity": 95,
      "chip": "ym2612"
    },
    {
      "channel": 0,
      "note": 40,
      "start": 66.4194,
      "duration": 0.2062,
      "velocity": 107,
      "chip": "ym2612"
    },
    {
      "channel": 1,
      "note": 88,
      "start": 66.4222,
      "duration": 0.1031,
      "velocity": 96,
      "chip": "ym2612"
    },
    {
      "channel": 4,
      "note": 112,
      "start": 66.4239,
      "duration": 0.2039,
      "velocity": 99,
      "chip": "ym2612"
    },
    {
      "channel": 2,
      "note": 93,
      "start": 66.4266,
      "duration": 0.0994,
      "velocity": 127,
      "chip": "ym2612"
    },
    {
      "channel": 5,
      "note": 42,
      "start": 66.4292,
      "duration": 0.0941,
      "velocity": 127,
      "chip": "ym2612"
    },
    {
      "channel": 5,
      "note": 25,
      "start": 66.527,
      "duration": 0.1116,
      "velocity": 127,
      "chip": "ym2612"
    },
    {
      "channel": 0,
      "note": 33,
      "start": 66.6306,
      "duration": 0.2082,
      "velocity": 107,
      "chip": "ym2612"
    },
    {
      "channel": 1,
      "note": 81,
      "start": 66.6327,
      "duration": 0.1042,
      "velocity": 96,
      "chip": "ym2612"
    },
    {
      "channel": 4,
      "note": 105,
      "start": 66.6345,
      "duration": 0.2055,
      "velocity": 99,
      "chip": "ym2612"
    },
    {
      "channel": 2,
      "note": 90,
      "start": 66.6371,
      "duration": 0.0722,
      "velocity": 95,
      "chip": "ym2612"
    },
    {
      "channel": 2,
      "note": 93,
      "start": 66.739,
      "duration": 0.0732,
      "velocity": 95,
      "chip": "ym2612"
    },
    {
      "channel": 5,
      "note": 25,
      "start": 66.7414,
      "duration": 0.0709,
      "velocity": 127,
      "chip": "ym2612"
    },
    {
      "channel": 2,
      "note": 93,
      "start": 66.8609,
      "duration": 0.2031,
      "velocity": 127,
      "chip": "ym2612"
    },
    {
      "channel": 5,
      "note": 42,
      "start": 66.8635,
      "duration": 0.1995,
      "velocity": 127,
      "chip": "ym2612"
    },
    {
      "channel": 0,
      "note": 45,
      "start": 67.0656,
      "duration": 0.2063,
      "velocity": 107,
      "chip": "ym2612"
    },
    {
      "channel": 1,
      "note": 93,
      "start": 67.0676,
      "duration": 0.2055,
      "velocity": 96,
      "chip": "ym2612"
    },
    {
      "channel": 4,
      "note": 117,
      "start": 67.0691,
      "duration": 0.2051,
      "velocity": 99,
      "chip": "ym2612"
    },
    {
      "channel": 2,
      "note": 90,
      "start": 67.0722,
      "duration": 0.0716,
      "velocity": 95,
      "chip": "ym2612"
    },
    {
      "channel": 5,
      "note": 25,
      "start": 67.0749,
      "duration": 0.0692,
      "velocity": 127,
      "chip": "ym2612"
    },
    {
      "channel": 2,
      "note": 93,
      "start": 67.1739,
      "duration": 0.0729,
      "velocity": 95,
      "chip": "ym2612"
    },
    {
      "channel": 0,
      "note": 45,
      "start": 67.2778,
      "duration": 0.2071,
      "velocity": 107,
      "chip": "ym2612"
    },
    {
      "channel": 1,
      "note": 94,
      "start": 67.28,
      "duration": 0.103,
      "velocity": 96,
      "chip": "ym2612"
    },
    {
      "channel": 4,
      "note": 117,
      "start": 67.2817,
      "duration": 0.2044,
      "velocity": 99,
      "chip": "ym2612"
    },
    {
      "channel": 2,
      "note": 93,
      "start": 67.2844,
      "duration": 0.2018,
      "velocity": 127,
      "chip": "ym2612"
    },
    {
      "channel": 5,
      "note": 42,
      "start": 67.287,
      "duration": 0.1994,
      "velocity": 127,
      "chip": "ym2612"
    },
    {
      "channel": 0,
      "note": 44,
      "start": 67.5072,
      "duration": 0.2069,
      "velocity": 107,
      "chip": "ym2612"
    },
    {
      "channel": 1,
      "note": 92,
      "start": 67.5095,
      "duration": 0.1023,
      "velocity": 96,
      "chip": "ym2612"
    },
    {
      "channel": 4,
      "note": 116,
      "start": 67.5111,
      "duration": 0.2042,
      "velocity": 99,
      "chip": "ym2612"
    },
    {
      "channel": 2,
      "note": 90,
      "start": 67.5138,
      "duration": 0.0704,
      "velocity": 95,
      "chip": "ym2612"
    },
    {
      "channel": 5,
      "note": 25,
      "start": 67.5155,
      "duration": 0.0984,
      "velocity": 127,
      "chip": "ym2612"
    },
    {
      "channel": 2,
      "note": 93,
      "start": 67.6132,
      "duration": 0.0739,
      "velocity": 95,
      "chip": "ym2612"
    },
    {
      "channel": 2,
      "note": 93,
      "start": 67.7173,
      "duration": 0.1013,
      "velocity": 127,
      "chip": "ym2612"
    },
    {
      "channel": 5,
      "note": 25,
      "start": 67.719,
      "duration": 0.096,
      "velocity": 127,
      "chip": "ym2612"
    },
    {
      "channel": 5,
      "note": 25,
      "start": 67.8196,
      "duration": 0.1031,
      "velocity": 127,
      "chip": "ym2612"
    },
    {
      "channel": 0,
      "note": 45,
      "start": 67.9411,
      "duration": 0.2051,
      "velocity": 107,
      "chip": "ym2612"
    },
    {
      "channel": 1,
      "note": 93,
      "start": 67.9431,
      "duration": 0.2043,
      "velocity": 96,
      "chip": "ym2612"
    },
    {
      "channel": 4,
      "note": 117,
      "start": 67.9446,
      "duration": 0.2039,
      "velocity": 99,
      "chip": "ym2612"
    },
    {
      "channel": 2,
      "note": 90,
      "start": 67.9471,
      "duration": 0.0717,
      "velocity": 95,
      "chip": "ym2612"
    },
    {
      "channel": 5,
      "note": 25,
      "start": 67.9497,
      "duration": 0.0692,
      "velocity": 127,
      "chip": "ym2612"
    },
    {
      "channel": 2,
      "note": 93,
      "start": 68.0481,
      "duration": 0.0742,
      "velocity": 95,
      "chip": "ym2612"
    },
    {
      "channel": 0,
      "note": 45,
      "start": 68.152,
      "duration": 0.2064,
      "velocity": 107,
      "chip": "ym2612"
    },
    {
      "channel": 1,
      "note": 94,
      "start": 68.1544,
      "duration": 0.1034,
      "velocity": 96,
      "chip": "ym2612"
    },
    {
      "channel": 4,
      "note": 117,
      "start": 68.1565,
      "duration": 0.2043,
      "velocity": 99,
      "chip": "ym2612"
    },
    {
      "channel": 2,
      "note": 93,
      "start": 68.1592,
      "duration": 0.0993,
      "velocity": 127,
      "chip": "ym2612"
    },
    {
      "channel": 5,
      "note": 42,
      "start": 68.1618,
      "duration": 0.0941,
      "velocity": 127,
      "chip": "ym2612"
    },
    {
      "channel": 5,
      "note": 25,
      "start": 68.2595,
      "duration": 0.1117,
      "velocity": 127,
      "chip": "ym2612"
    },
    {
      "channel": 0,
      "note": 44,
      "start": 68.3635,
      "duration": 0.2137,
      "velocity": 107,
      "chip": "ym2612"
    },
    {
      "channel": 1,
      "note": 92,
      "start": 68.3657,
      "duration": 0.1039,
      "velocity": 96,
      "chip": "ym2612"
    },
    {
      "channel": 4,
      "note": 116,
      "start": 68.3673,
      "duration": 0.211,
      "velocity": 99,
      "chip": "ym2612"
    },
    {
      "channel": 2,
      "note": 90,
      "start": 68.37,
      "duration": 0.0718,
      "velocity": 95,
      "chip": "ym2612"
    },
    {
      "channel": 2,
      "note": 93,
      "start": 68.4717,
      "duration": 0.0731,
      "velocity": 95,
      "chip": "ym2612"
    },
    {
      "channel": 5,
      "note": 25,
      "start": 68.474,
      "duration": 0.0709,
      "velocity": 127,
      "chip": "ym2612"
    },
    {
      "channel": 0,
      "note": 45,
      "start": 68.593,
      "duration": 0.205,
      "velocity": 107,
      "chip": "ym2612"
    },
    {
      "channel": 1,
      "note": 93,
      "start": 68.5951,
      "duration": 0.1031,
      "velocity": 96,
      "chip": "ym2612"
    },
    {
      "channel": 4,
      "note": 117,
      "start": 68.5969,
      "duration": 0.2034,
      "velocity": 99,
      "chip": "ym2612"
    },
    {
      "channel": 2,
      "note": 93,
      "start": 68.5995,
      "duration": 0.2027,
      "velocity": 127,
      "chip": "ym2612"
    },
    {
      "channel": 5,
      "note": 42,
      "start": 68.6022,
      "duration": 0.1992,
      "velocity": 127,
      "chip": "ym2612"
    },
    {
      "channel": 0,
      "note": 44,
      "start": 68.8039,
      "duration": 0.2057,
      "velocity": 107,
      "chip": "ym2612"
    },
    {
      "channel": 1,
      "note": 92,
      "start": 68.8067,
      "duration": 0.103,
      "velocity": 96,
      "chip": "ym2612"
    },
    {
      "channel": 4,
      "note": 116,
      "start": 68.8084,
      "duration": 0.2034,
      "velocity": 99,
      "chip": "ym2612"
    },
    {
      "channel": 2,
      "note": 90,
      "start": 68.811,
      "duration": 0.0711,
      "velocity": 95,
      "chip": "ym2612"
    },
    {
      "channel": 5,
      "note": 25,
      "start": 68.8137,
      "duration": 0.0686,
      "velocity": 127,
      "chip": "ym2612"
    },
    {
      "channel": 2,
      "note": 93,
      "start": 68.9112,
      "duration": 0.0739,
      "velocity": 95,
      "chip": "ym2612"
    },
    {
      "channel": 0,
      "note": 40,
      "start": 69.0154,
      "duration": 0.2136,
      "velocity": 107,
      "chip": "ym2612"
    },
    {
      "channel": 1,
      "note": 88,
      "start": 69.0177,
      "duration": 0.1043,
      "velocity": 96,
      "chip": "ym2612"
    },
    {
      "channel": 4,
      "note": 112,
      "start": 69.0193,
      "duration": 0.2108,
      "velocity": 99,
      "chip": "ym2612"
    },
    {
      "channel": 2,
      "note": 93,
      "start": 69.0226,
      "duration": 0.2077,
      "velocity": 127,
      "chip": "ym2612"
    },
    {
      "channel": 5,
      "note": 42,
      "start": 69.0252,
      "duration": 0.2052,
      "velocity": 127,
      "chip": "ym2612"
    },
    {
      "channel": 0,
      "note": 38,
      "start": 69.2457,
      "duration": 0.2043,
      "velocity": 107,
      "chip": "ym2612"
    },
    {
      "channel": 1,
      "note": 86,
      "start": 69.2478,
      "duration": 0.1022,
      "velocity": 96,
      "chip": "ym2612"
    },
    {
      "channel": 4,
      "note": 110,
      "start": 69.2495,
      "duration": 0.2026,
      "velocity": 99,
      "chip": "ym2612"
    },
    {
      "channel": 2,
      "note": 90,
      "start": 69.2522,
      "duration": 0.0709,
      "velocity": 95,
      "chip": "ym2612"
    },
    {
      "channel": 5,
      "note": 25,
      "start": 69.2539,
      "duration": 0.0983,
      "velocity": 127,
      "chip": "ym2612"
    },
    {
      "channel": 2,
      "note": 93,
      "start": 69.3516,
      "duration": 0.0739,
      "velocity": 95,
      "chip": "ym2612"
    },
    {
      "channel": 0,
      "note": 37,
      "start": 69.4563,
      "duration": 0.2072,
      "velocity": 107,
      "chip": "ym2612"
    },
    {
      "channel": 1,
      "note": 85,
      "start": 69.4585,
      "duration": 0.1031,
      "velocity": 96,
      "chip": "ym2612"
    },
    {
      "channel": 4,
      "note": 109,
      "start": 69.4602,
      "duration": 0.2044,
      "velocity": 99,
      "chip": "ym2612"
    },
    {
      "channel": 2,
      "note": 93,
      "start": 69.4629,
      "duration": 0.0994,
      "velocity": 127,
      "chip": "ym2612"
    },
    {
      "channel": 5,
      "note": 25,
      "start": 69.4646,
      "duration": 0.0946,
      "velocity": 127,
      "chip": "ym2612"
    },
    {
      "channel": 5,
      "note": 25,
      "start": 69.5633,
      "duration": 0.1021,
      "velocity": 127,
      "chip": "ym2612"
    },
    {
      "channel": 0,
      "note": 38,
      "start": 69.6844,
      "duration": 0.2064,
      "velocity": 107,
      "chip": "ym2612"
    },
    {
      "channel": 1,
      "note": 86,
      "start": 69.6866,
      "duration": 0.1038,
      "velocity": 96,
      "chip": "ym2612"
    },
    {
      "channel": 4,
      "note": 110,
      "start": 69.6889,
      "duration": 0.2041,
      "velocity": 99,
      "chip": "ym2612"
    },
    {
      "channel": 2,
      "note": 90,
      "start": 69.6916,
      "duration": 0.0712,
      "velocity": 95,
      "chip": "ym2612"
    },
    {
      "channel": 5,
      "note": 25,
      "start": 69.6942,
      "duration": 0.0687,
      "velocity": 127,
      "chip": "ym2612"
    },
    {
      "channel": 2,
      "note": 93,
      "start": 69.7918,
      "duration": 0.0739,
      "velocity": 95,
      "chip": "ym2612"
    },
    {
      "channel": 0,
      "note": 40,
      "start": 69.8966,
      "duration": 0.2051,
      "velocity": 107,
      "chip": "ym2612"
    },
    {
      "channel": 1,
      "note": 88,
      "start": 69.8988,
      "duration": 0.1032,
      "velocity": 96,
      "chip": "ym2612"
    },
    {
      "channel": 4,
      "note": 112,
      "start": 69.9005,
      "duration": 0.2035,
      "velocity": 99,
      "chip": "ym2612"
    },
    {
      "channel": 2,
      "note": 93,
      "start": 69.9032,
      "duration": 0.0994,
      "velocity": 127,
      "chip": "ym2612"
    },
    {
      "channel": 5,
      "note": 42,
      "start": 69.9064,
      "duration": 0.0929,
      "velocity": 127,
      "chip": "ym2612"
    },
    {
      "channel": 5,
      "note": 25,
      "start": 70.0035,
      "duration": 0.1112,
      "velocity": 127,
      "chip": "ym2612"
    },
    {
      "channel": 0,
      "note": 33,
      "start": 70.1073,
      "duration": 0.2024,
      "velocity": 107,
      "chip": "ym2612"
    },
    {
      "channel": 1,
      "note": 81,
      "start": 70.1095,
      "duration": 0.0983,
      "velocity": 96,
      "chip": "ym2612"
    },
    {
      "channel": 4,
      "note": 105,
      "start": 70.1112,
      "duration": 0.1997,
      "velocity": 99,
      "chip": "ym2612"
    },
    {
      "channel": 2,
      "note": 90,
      "start": 70.1139,
      "duration": 0.0663,
      "velocity": 95,
      "chip": "ym2612"
    },
    {
      "channel": 2,
      "note": 93,
      "start": 70.2275,
      "duration": 0.0728,
      "velocity": 95,
      "chip": "ym2612"
    },
    {
      "channel": 5,
      "note": 25,
      "start": 70.2298,
      "duration": 0.0705,
      "velocity": 127,
      "chip": "ym2612"
    },
    {
      "channel": 2,
      "note": 93,
      "start": 70.3319,
      "duration": 0.203,
      "velocity": 127,
      "chip": "ym2612"
    },
    {
      "channel": 5,
      "note": 42,
      "start": 70.3345,
      "duration": 0.1995,
      "velocity": 127,
      "chip": "ym2612"
    },
    {
      "channel": 0,
      "note": 45,
      "start": 70.5366,
      "duration": 0.2077,
      "velocity": 107,
      "chip": "ym2612"
    },
    {
      "channel": 1,
      "note": 93,
      "start": 70.5392,
      "duration": 0.2214,
      "velocity": 96,
      "chip": "ym2612"
    },
    {
      "channel": 4,
      "note": 117,
      "start": 70.5406,
      "duration": 0.2048,
      "velocity": 99,
      "chip": "ym2612"
    },
    {
      "channel": 2,
      "note": 90,
      "start": 70.5431,
      "duration": 0.0716,
      "velocity": 95,
      "chip": "ym2612"
    },
    {
      "channel": 5,
      "note": 25,
      "start": 70.5457,
      "duration": 0.0692,
      "velocity": 127,
      "chip": "ym2612"
    },
    {
      "channel": 2,
      "note": 93,
      "start": 70.6442,
      "duration": 0.0735,
      "velocity": 95,
      "chip": "ym2612"
    },
    {
      "channel": 0,
      "note": 45,
      "start": 70.7653,
      "duration": 0.2059,
      "velocity": 107,
      "chip": "ym2612"
    },
    {
      "channel": 1,
      "note": 94,
      "start": 70.7675,
      "duration": 0.1043,
      "velocity": 96,
      "chip": "ym2612"
    },
    {
      "channel": 4,
      "note": 117,
      "start": 70.7691,
      "duration": 0.2053,
      "velocity": 99,
      "chip": "ym2612"
    },
    {
      "channel": 2,
      "note": 93,
      "start": 70.7724,
      "duration": 0.2088,
      "velocity": 127,
      "chip": "ym2612"
    },
    {
      "channel": 5,
      "note": 42,
      "start": 70.7751,
      "duration": 0.2064,
      "velocity": 127,
      "chip": "ym2612"
    },
    {
      "channel": 0,
      "note": 44,
      "start": 70.9766,
      "duration": 0.2002,
      "velocity": 107,
      "chip": "ym2612"
    },
    {
      "channel": 1,
      "note": 92,
      "start": 70.9787,
      "duration": 0.0982,
      "velocity": 96,
      "chip": "ym2612"
    },
    {
      "channel": 4,
      "note": 116,
      "start": 70.9805,
      "duration": 0.1985,
      "velocity": 99,
      "chip": "ym2612"
    },
    {
      "channel": 0,
      "note": 45,
      "start": 71.1808,
      "duration": 0.2039,
      "velocity": 107,
      "chip": "ym2612"
    },
    {
      "channel": 1,
      "note": 93,
      "start": 71.1829,
      "duration": 0.0999,
      "velocity": 96,
      "chip": "ym2612"
    },
    {
      "channel": 4,
      "note": 117,
      "start": 71.1846,
      "duration": 0.2012,
      "velocity": 99,
      "chip": "ym2612"
    },
    {
      "channel": 0,
      "note": 44,
      "start": 71.4037,
      "duration": 0.2025,
      "velocity": 107,
      "chip": "ym2612"
    },
    {
      "channel": 1,
      "note": 92,
      "start": 71.4066,
      "duration": 0.0995,
      "velocity": 96,
      "chip": "ym2612"
    },
    {
      "channel": 4,
      "note": 116,
      "start": 71.4083,
      "duration": 0.2002,
      "velocity": 99,
      "chip": "ym2612"
    },
    {
      "channel": 0,
      "note": 40,
      "start": 71.6102,
      "duration": 0.2013,
      "velocity": 107,
      "chip": "ym2612"
    },
    {
      "channel": 1,
      "note": 88,
      "start": 71.6124,
      "duration": 0.0993,
      "velocity": 96,
      "chip": "ym2612"
    },
    {
      "channel": 4,
      "note": 112,
      "start": 71.6141,
      "duration": 0.1998,
      "velocity": 99,
      "chip": "ym2612"
    },
    {
      "channel": 0,
      "note": 38,
      "start": 71.8156,
      "duration": 0.4212,
      "velocity": 107,
      "chip": "ym2612"
    },
    {
      "channel": 1,
      "note": 86,
      "start": 71.8178,
      "duration": 0.4242,
      "velocity": 96,
      "chip": "ym2612"
    },
    {
      "channel": 4,
      "note": 110,
      "start": 71.8195,
      "duration": 0.4191,
      "velocity": 99,
      "chip": "ym2612"
    },
    {
      "channel": 3,
      "note": 73,
      "start": 72.2455,
      "duration": 0.1004,
      "velocity": 97,
      "chip": "ym2612"
    },
    {
      "channel": 1,
      "note": 85,
      "start": 72.2483,
      "duration": 0.0977,
      "velocity": 97,
      "chip": "ym2612"
    },
    {
      "channel": 0,
      "note": 37,
      "start": 72.6784,
      "duration": 0.3188,
      "velocity": 107,
      "chip": "ym2612"
    },
    {
      "channel": 3,
      "note": 85,
      "start": 72.6801,
      "duration": 0.1061,
      "velocity": 97,
      "chip": "ym2612"
    },
    {
      "channel": 1,
      "note": 88,
      "start": 72.6819,
      "duration": 0.1044,
      "velocity": 97,
      "chip": "ym2612"
    },
    {
      "channel": 4,
      "note": 109,
      "start": 72.6836,
      "duration": 0.0464,
      "velocity": 99,
      "chip": "ym2612"
    },
    {
      "channel": 2,
      "note": 90,
      "start": 72.6862,
      "duration": 0.0729,
      "velocity": 127,
      "chip": "ym2612"
    },
    {
      "channel": 5,
      "note": 25,
      "start": 72.6887,
      "duration": 0.1005,
      "velocity": 127,
      "chip": "ym2612"
    },
    {
      "channel": 2,
      "note": 74,
      "start": 72.7884,
      "duration": 0.0736,
      "velocity": 127,
      "chip": "ym2612"
    },
    {
      "channel": 3,
      "note": 85,
      "start": 72.8926,
      "duration": 0.0994,
      "velocity": 97,
      "chip": "ym2612"
    },
    {
      "channel": 1,
      "note": 90,
      "start": 72.8943,
      "duration": 0.0978,
      "velocity": 97,
      "chip": "ym2612"
    },
    {
      "channel": 4,
      "note": 117,
      "start": 72.896,
      "duration": 0.0456,
      "velocity": 99,
      "chip": "ym2612"
    },
    {
      "channel": 2,
      "note": 74,
      "start": 72.8976,
      "duration": 0.0674,
      "velocity": 127,
      "chip": "ym2612"
    },
    {
      "channel": 0,
      "note": 45,
      "start": 73.0112,
      "duration": 0.3106,
      "velocity": 107,
      "chip": "ym2612"
    },
    {
      "channel": 2,
      "note": 74,
      "start": 73.0142,
      "duration": 0.0709,
      "velocity": 127,
      "chip": "ym2612"
    },
    {
      "channel": 5,
      "note": 25,
      "start": 73.0165,
      "duration": 0.0686,
      "velocity": 127,
      "chip": "ym2612"
    },
    {
      "channel": 3,
      "note": 81,
      "start": 73.1158,
      "duration": 0.1049,
      "velocity": 97,
      "chip": "ym2612"
    },
    {
      "channel": 1,
      "note": 88,
      "start": 73.1176,
      "duration": 0.1033,
      "velocity": 97,
      "chip": "ym2612"
    },
    {
      "channel": 4,
      "note": 117,
      "start": 73.1193,
      "duration": 0.051,
      "velocity": 99,
      "chip": "ym2612"
    },
    {
      "channel": 2,
      "note": 74,
      "start": 73.1207,
      "duration": 0.073,
      "velocity": 127,
      "chip": "ym2612"
    },
    {
      "channel": 5,
      "note": 42,
      "start": 73.1237,
      "duration": 0.0999,
      "velocity": 127,
      "chip": "ym2612"
    },
    {
      "channel": 2,
      "note": 74,
      "start": 73.223,
      "duration": 0.0736,
      "velocity": 127,
      "chip": "ym2612"
    },
    {
      "channel": 0,
      "note": 45,
      "start": 73.3278,
      "duration": 0.2069,
      "velocity": 107,
      "chip": "ym2612"
    },
    {
      "channel": 3,
      "note": 78,
      "start": 73.3295,
      "duration": 0.1028,
      "velocity": 97,
      "chip": "ym2612"
    },
    {
      "channel": 1,
      "note": 85,
      "start": 73.3312,
      "duration": 0.1012,
      "velocity": 97,
      "chip": "ym2612"
    },
    {
      "channel": 4,
      "note": 117,
      "start": 73.3329,
      "duration": 0.0432,
      "velocity": 99,
      "chip": "ym2612"
    },
    {
      "channel": 2,
      "note": 74,
      "start": 73.3345,
      "duration": 0.0714,
      "velocity": 127,
      "chip": "ym2612"
    },
    {
      "channel": 4,
      "note": 117,
      "start": 73.4525,
      "duration": 0.0494,
      "velocity": 99,
      "chip": "ym2612"
    },
    {
      "channel": 2,
      "note": 74,
      "start": 73.4541,
      "duration": 0.0712,
      "velocity": 127,
      "chip": "ym2612"
    },
    {
      "channel": 5,
      "note": 25,
      "start": 73.4571,
      "duration": 0.0683,
      "velocity": 127,
      "chip": "ym2612"
    },
    {
      "channel": 0,
      "note": 42,
      "start": 73.5563,
      "duration": 0.308,
      "velocity": 107,
      "chip": "ym2612"
    },
    {
      "channel": 3,
      "note": 76,
      "start": 73.5581,
      "duration": 0.1044,
      "velocity": 97,
      "chip": "ym2612"
    },
    {
      "channel": 1,
      "note": 81,
      "start": 73.5598,
      "duration": 0.1029,
      "velocity": 97,
      "chip": "ym2612"
    },
    {
      "channel": 2,
      "note": 74,
      "start": 73.562,
      "duration": 0.0719,
      "velocity": 127,
      "chip": "ym2612"
    },
    {
      "channel": 5,
      "note": 42,
      "start": 73.5644,
      "duration": 0.0958,
      "velocity": 127,
      "chip": "ym2612"
    },
    {
      "channel": 4,
      "note": 117,
      "start": 73.6636,
      "duration": 0.0442,
      "velocity": 99,
      "chip": "ym2612"
    },
    {
      "channel": 2,
      "note": 74,
      "start": 73.6651,
      "duration": 0.0717,
      "velocity": 127,
      "chip": "ym2612"
    },
    {
      "channel": 5,
      "note": 25,
      "start": 73.6675,
      "duration": 0.0695,
      "velocity": 127,
      "chip": "ym2612"
    },
    {
      "channel": 2,
      "note": 74,
      "start": 73.7663,
      "duration": 0.0741,
      "velocity": 127,
      "chip": "ym2612"
    },
    {
      "channel": 0,
      "note": 40,
      "start": 73.8695,
      "duration": 0.3172,
      "velocity": 107,
      "chip": "ym2612"
    },
    {
      "channel": 4,
      "note": 117,
      "start": 73.8726,
      "duration": 0.0468,
      "velocity": 99,
      "chip": "ym2612"
    },
    {
      "channel": 2,
      "note": 74,
      "start": 73.8741,
      "duration": 0.069,
      "velocity": 127,
      "chip": "ym2612"
    },
    {
      "channel": 5,
      "note": 42,
      "start": 73.8757,
      "duration": 0.0676,
      "velocity": 127,
      "chip": "ym2612"
    },
    {
      "channel": 3,
      "note": 73,
      "start": 73.9919,
      "duration": 0.1037,
      "velocity": 97,
      "chip": "ym2612"
    },
    {
      "channel": 1,
      "note": 78,
      "start": 73.9936,
      "duration": 0.1022,
      "velocity": 97,
      "chip": "ym2612"
    },
    {
      "channel": 4,
      "note": 117,
      "start": 73.9954,
      "duration": 0.0446,
      "velocity": 99,
      "chip": "ym2612"
    },
    {
      "channel": 2,
      "note": 74,
      "start": 73.9969,
      "duration": 0.0717,
      "velocity": 127,
      "chip": "ym2612"
    },
    {
      "channel": 5,
      "note": 42,
      "start": 73.9993,
      "duration": 0.0986,
      "velocity": 127,
      "chip": "ym2612"
    },
    {
      "channel": 2,
      "note": 74,
      "start": 74.0973,
      "duration": 0.0749,
      "velocity": 127,
      "chip": "ym2612"
    },
    {
      "channel": 0,
      "note": 40,
      "start": 74.2028,
      "duration": 0.2125,
      "velocity": 107,
      "chip": "ym2612"
    },
    {
      "channel": 3,
      "note": 73,
      "start": 74.2051,
      "duration": 0.1029,
      "velocity": 97,
      "chip": "ym2612"
    },
    {
      "channel": 1,
      "note": 78,
      "start": 74.2068,
      "duration": 0.1013,
      "velocity": 97,
      "chip": "ym2612"
    },
    {
      "channel": 4,
      "note": 117,
      "start": 74.2086,
      "duration": 0.0482,
      "velocity": 99,
      "chip": "ym2612"
    },
    {
      "channel": 2,
      "note": 74,
      "start": 74.21,
      "duration": 0.0701,
      "velocity": 127,
      "chip": "ym2612"
    },
    {
      "channel": 5,
      "note": 25,
      "start": 74.2124,
      "duration": 0.0679,
      "velocity": 127,
      "chip": "ym2612"
    },
    {
      "channel": 2,
      "note": 74,
      "start": 74.3096,
      "duration": 0.0735,
      "velocity": 127,
      "chip": "ym2612"
    },
    {
      "channel": 5,
      "note": 42,
      "start": 74.3121,
      "duration": 0.1001,
      "velocity": 127,
      "chip": "ym2612"
    },
    {
      "channel": 0,
      "note": 42,
      "start": 74.4331,
      "duration": 0.3068,
      "velocity": 107,
      "chip": "ym2612"
    },
    {
      "channel": 3,
      "note": 69,
      "start": 74.4347,
      "duration": 0.1012,
      "velocity": 97,
      "chip": "ym2612"
    },
    {
      "channel": 1,
      "note": 76,
      "start": 74.4365,
      "duration": 0.0995,
      "velocity": 97,
      "chip": "ym2612"
    },
    {
      "channel": 4,
      "note": 117,
      "start": 74.4388,
      "duration": 0.0466,
      "velocity": 99,
      "chip": "ym2612"
    },
    {
      "channel": 2,
      "note": 74,
      "start": 74.4403,
      "duration": 0.0685,
      "velocity": 127,
      "chip": "ym2612"
    },
    {
      "channel": 5,
      "note": 25,
      "start": 74.4419,
      "duration": 0.0969,
      "velocity": 127,
      "chip": "ym2612"
    },
    {
      "channel": 2,
      "note": 74,
      "start": 74.5375,
      "duration": 0.0742,
      "velocity": 127,
      "chip": "ym2612"
    },
    {
      "channel": 4,
      "note": 117,
      "start": 74.6417,
      "duration": 0.0496,
      "velocity": 99,
      "chip": "ym2612"
    },
    {
      "channel": 2,
      "note": 74,
      "start": 74.6432,
      "duration": 0.0714,
      "velocity": 127,
      "chip": "ym2612"
    },
    {
      "channel": 0,
      "note": 45,
      "start": 74.7437,
      "duration": 0.3178,
      "velocity": 107,
      "chip": "ym2612"
    },
    {
      "channel": 2,
      "note": 74,
      "start": 74.7467,
      "duration": 0.0712,
      "velocity": 127,
      "chip": "ym2612"
    },
    {
      "channel": 5,
      "note": 25,
      "start": 74.7491,
      "duration": 0.069,
      "velocity": 127,
      "chip": "ym2612"
    },
    {
      "channel": 3,
      "note": 73,
      "start": 74.8489,
      "duration": 0.1044,
      "velocity": 97,
      "chip": "ym2612"
    },
    {
      "channel": 1,
      "note": 78,
      "start": 74.8506,
      "duration": 0.1029,
      "velocity": 97,
      "chip": "ym2612"
    },
    {
      "channel": 4,
      "note": 117,
      "start": 74.8523,
      "duration": 0.0506,
      "velocity": 99,
      "chip": "ym2612"
    },
    {
      "channel": 2,
      "note": 74,
      "start": 74.8539,
      "duration": 0.0724,
      "velocity": 127,
      "chip": "ym2612"
    },
    {
      "channel": 5,
      "note": 42,
      "start": 74.8568,
      "duration": 0.0984,
      "velocity": 127,
      "chip": "ym2612"
    },
    {
      "channel": 2,
      "note": 74,
      "start": 74.9735,
      "duration": 0.0729,
      "velocity": 127,
      "chip": "ym2612"
    },
    {
      "channel": 0,
      "note": 45,
      "start": 75.0775,
      "duration": 0.2049,
      "velocity": 107,
      "chip": "ym2612"
    },
    {
      "channel": 3,
      "note": 73,
      "start": 75.0793,
      "duration": 0.104,
      "velocity": 97,
      "chip": "ym2612"
    },
    {
      "channel": 1,
      "note": 78,
      "start": 75.081,
      "duration": 0.1025,
      "velocity": 97,
      "chip": "ym2612"
    },
    {
      "channel": 4,
      "note": 117,
      "start": 75.0827,
      "duration": 0.0432,
      "velocity": 99,
      "chip": "ym2612"
    },
    {
      "channel": 2,
      "note": 74,
      "start": 75.0841,
      "duration": 0.0715,
      "velocity": 127,
      "chip": "ym2612"
    },
    {
      "channel": 4,
      "note": 117,
      "start": 75.1844,
      "duration": 0.0501,
      "velocity": 99,
      "chip": "ym2612"
    },
    {
      "channel": 2,
      "note": 74,
      "start": 75.1859,
      "duration": 0.072,
      "velocity": 127,
      "chip": "ym2612"
    },
    {
      "channel": 5,
      "note": 25,
      "start": 75.189,
      "duration": 0.0691,
      "velocity": 127,
      "chip": "ym2612"
    },
    {
      "channel": 0,
      "note": 42,
      "start": 75.2888,
      "duration": 0.2129,
      "velocity": 107,
      "chip": "ym2612"
    },
    {
      "channel": 3,
      "note": 69,
      "start": 75.2906,
      "duration": 0.1031,
      "velocity": 97,
      "chip": "ym2612"
    },
    {
      "channel": 1,
      "note": 76,
      "start": 75.2923,
      "duration": 0.1015,
      "velocity": 97,
      "chip": "ym2612"
    },
    {
      "channel": 2,
      "note": 74,
      "start": 75.2945,
      "duration": 0.0721,
      "velocity": 127,
      "chip": "ym2612"
    },
    {
      "channel": 5,
      "note": 42,
      "start": 75.2969,
      "duration": 0.098,
      "velocity": 127,
      "chip": "ym2612"
    },
    {
      "channel": 4,
      "note": 117,
      "start": 75.4142,
      "duration": 0.0433,
      "velocity": 99,
      "chip": "ym2612"
    },
    {
      "channel": 2,
      "note": 74,
      "start": 75.4158,
      "duration": 0.0709,
      "velocity": 127,
      "chip": "ym2612"
    },
    {
      "channel": 5,
      "note": 25,
      "start": 75.4181,
      "duration": 0.0686,
      "velocity": 127,
      "chip": "ym2612"
    },
    {
      "channel": 0,
      "note": 40,
      "start": 75.5161,
      "duration": 0.201,
      "velocity": 107,
      "chip": "ym2612"
    },
    {
      "channel": 3,
      "note": 73,
      "start": 75.5176,
      "duration": 0.1004,
      "velocity": 97,
      "chip": "ym2612"
    },
    {
      "channel": 1,
      "note": 78,
      "start": 75.5193,
      "duration": 0.0989,
      "velocity": 97,
      "chip": "ym2612"
    },
    {
      "channel": 2,
      "note": 74,
      "start": 75.5221,
      "duration": 0.068,
      "velocity": 127,
      "chip": "ym2612"
    },
    {
      "channel": 4,
      "note": 117,
      "start": 75.6191,
      "duration": 0.0501,
      "velocity": 99,
      "chip": "ym2612"
    },
    {
      "channel": 2,
      "note": 74,
      "start": 75.6206,
      "duration": 0.0719,
      "velocity": 127,
      "chip": "ym2612"
    },
    {
      "channel": 5,
      "note": 42,
      "start": 75.6228,
      "duration": 0.0698,
      "velocity": 127,
      "chip": "ym2612"
    },
    {
      "channel": 0,
      "note": 40,
      "start": 75.7245,
      "duration": 0.2061,
      "velocity": 107,
      "chip": "ym2612"
    },
    {
      "channel": 3,
      "note": 76,
      "start": 75.7262,
      "duration": 0.102,
      "velocity": 97,
      "chip": "ym2612"
    },
    {
      "channel": 1,
      "note": 81,
      "start": 75.728,
      "duration": 0.1004,
      "velocity": 97,
      "chip": "ym2612"
    },
    {
      "channel": 4,
      "note": 117,
      "start": 75.7297,
      "duration": 0.043,
      "velocity": 99,
      "chip": "ym2612"
    },
    {
      "channel": 2,
      "note": 74,
      "start": 75.7312,
      "duration": 0.07,
      "velocity": 127,
      "chip": "ym2612"
    },
    {
      "channel": 5,
      "note": 42,
      "start": 75.7336,
      "duration": 0.0969,
      "velocity": 127,
      "chip": "ym2612"
    },
    {
      "channel": 2,
      "note": 74,
      "start": 75.8298,
      "duration": 0.0742,
      "velocity": 127,
      "chip": "ym2612"
    },
    {
      "channel": 3,
      "note": 78,
      "start": 75.9522,
      "duration": 0.1055,
      "velocity": 97,
      "chip": "ym2612"
    },
    {
      "channel": 1,
      "note": 85,
      "start": 75.9539,
      "duration": 0.104,
      "velocity": 97,
      "chip": "ym2612"
    },
    {
      "channel": 4,
      "note": 117,
      "start": 75.9562,
      "duration": 0.0505,
      "velocity": 99,
      "chip": "ym2612"
    },
    {
      "channel": 2,
      "note": 74,
      "start": 75.9578,
      "duration": 0.0721,
      "velocity": 127,
      "chip": "ym2612"
    },
    {
      "channel": 5,
      "note": 25,
      "start": 75.9601,
      "duration": 0.0699,
      "velocity": 127,
      "chip": "ym2612"
    },
    {
      "channel": 2,
      "note": 74,
      "start": 76.0593,
      "duration": 0.0735,
      "velocity": 127,
      "chip": "ym2612"
    },
    {
      "channel": 5,
      "note": 42,
      "start": 76.0618,
      "duration": 0.1015,
      "velocity": 127,
      "chip": "ym2612"
    },
    {
      "channel": 0,
      "note": 42,
      "start": 76.1658,
      "duration": 0.3137,
      "velocity": 107,
      "chip": "ym2612"
    },
    {
      "channel": 3,
      "note": 81,
      "start": 76.1675,
      "duration": 0.101,
      "velocity": 97,
      "chip": "ym2612"
    },
    {
      "channel": 1,
      "note": 88,
      "start": 76.1693,
      "duration": 0.0994,
      "velocity": 97,
      "chip": "ym2612"
    },
    {
      "channel": 4,
      "note": 117,
      "start": 76.1716,
      "duration": 0.0408,
      "velocity": 99,
      "chip": "ym2612"
    },
    {
      "channel": 2,
      "note": 74,
      "start": 76.1731,
      "duration": 0.0684,
      "velocity": 127,
      "chip": "ym2612"
    },
    {
      "channel": 5,
      "note": 25,
      "start": 76.1747,
      "duration": 0.0961,
      "velocity": 127,
      "chip": "ym2612"
    },
    {
      "channel": 2,
      "note": 74,
      "start": 76.2702,
      "duration": 0.0742,
      "velocity": 127,
      "chip": "ym2612"
    },
    {
      "channel": 3,
      "note": 86,
      "start": 76.3749,
      "duration": 0.0994,
      "velocity": 97,
      "chip": "ym2612"
    },
    {
      "channel": 1,
      "note": 90,
      "start": 76.3766,
      "duration": 0.0979,
      "velocity": 97,
      "chip": "ym2612"
    },
    {
      "channel": 4,
      "note": 117,
      "start": 76.3784,
      "duration": 0.0455,
      "velocity": 99,
      "chip": "ym2612"
    },
    {
      "channel": 2,
      "note": 74,
      "start": 76.3799,
      "duration": 0.0674,
      "velocity": 127,
      "chip": "ym2612"
    },
    {
      "channel": 0,
      "note": 47,
      "start": 76.4935,
      "duration": 0.31,
      "velocity": 107,
      "chip": "ym2612"
    },
    {
      "channel": 2,
      "note": 74,
      "start": 76.4966,
      "duration": 0.0708,
      "velocity": 127,
      "chip": "ym2612"
    },
    {
      "channel": 5,
      "note": 25,
      "start": 76.4989,
      "duration": 0.0686,
      "velocity": 127,
      "chip": "ym2612"
    },
    {
      "channel": 3,
      "note": 85,
      "start": 76.5985,
      "duration": 0.1046,
      "velocity": 97,
      "chip": "ym2612"
    },
    {
      "channel": 1,
      "note": 88,
      "start": 76.6002,
      "duration": 0.103,
      "velocity": 97,
      "chip": "ym2612"
    },
    {
      "channel": 4,
      "note": 117,
      "start": 76.602,
      "duration": 0.0507,
      "velocity": 99,
      "chip": "ym2612"
    },
    {
      "channel": 2,
      "note": 74,
      "start": 76.6035,
      "duration": 0.0725,
      "velocity": 127,
      "chip": "ym2612"
    },
    {
      "channel": 5,
      "note": 42,
      "start": 76.6065,
      "duration": 0.0996,
      "velocity": 127,
      "chip": "ym2612"
    },
    {
      "channel": 2,
      "note": 74,
      "start": 76.7053,
      "duration": 0.0736,
      "velocity": 127,
      "chip": "ym2612"
    },
    {
      "channel": 0,
      "note": 47,
      "start": 76.8102,
      "duration": 0.2069,
      "velocity": 107,
      "chip": "ym2612"
    },
    {
      "channel": 3,
      "note": 83,
      "start": 76.8118,
      "duration": 0.1029,
      "velocity": 97,
      "chip": "ym2612"
    },
    {
      "channel": 1,
      "note": 86,
      "start": 76.8136,
      "duration": 0.1012,
      "velocity": 97,
      "chip": "ym2612"
    },
    {
      "channel": 4,
      "note": 117,
      "start": 76.8153,
      "duration": 0.0432,
      "velocity": 99,
      "chip": "ym2612"
    },
    {
      "channel": 2,
      "note": 74,
      "start": 76.8168,
      "duration": 0.071,
      "velocity": 127,
      "chip": "ym2612"
    },
    {
      "channel": 4,
      "note": 117,
      "start": 76.9349,
      "duration": 0.0494,
      "velocity": 99,
      "chip": "ym2612"
    },
    {
      "channel": 2,
      "note": 74,
      "start": 76.9364,
      "duration": 0.0713,
      "velocity": 127,
      "chip": "ym2612"
    },
    {
      "channel": 5,
      "note": 25,
      "start": 76.9394,
      "duration": 0.0684,
      "velocity": 127,
      "chip": "ym2612"
    },
    {
      "channel": 0,
      "note": 42,
      "start": 77.0388,
      "duration": 0.3079,
      "velocity": 107,
      "chip": "ym2612"
    },
    {
      "channel": 3,
      "note": 78,
      "start": 77.0405,
      "duration": 0.1046,
      "velocity": 97,
      "chip": "ym2612"
    },
    {
      "channel": 1,
      "note": 83,
      "start": 77.0422,
      "duration": 0.1031,
      "velocity": 97,
      "chip": "ym2612"
    },
    {
      "channel": 2,
      "note": 74,
      "start": 77.0444,
      "duration": 0.0719,
      "velocity": 127,
      "chip": "ym2612"
    },
    {
      "channel": 5,
      "note": 42,
      "start": 77.0469,
      "duration": 0.096,
      "velocity": 127,
      "chip": "ym2612"
    },
    {
      "channel": 4,
      "note": 117,
      "start": 77.1462,
      "duration": 0.0439,
      "velocity": 99,
      "chip": "ym2612"
    },
    {
      "channel": 2,
      "note": 74,
      "start": 77.1478,
      "duration": 0.0715,
      "velocity": 127,
      "chip": "ym2612"
    },
    {
      "channel": 5,
      "note": 25,
      "start": 77.1501,
      "duration": 0.0693,
      "velocity": 127,
      "chip": "ym2612"
    },
    {
      "channel": 2,
      "note": 74,
      "start": 77.2486,
      "duration": 0.0742,
      "velocity": 127,
      "chip": "ym2612"
    },
    {
      "channel": 0,
      "note": 40,
      "start": 77.3518,
      "duration": 0.3172,
      "velocity": 107,
      "chip": "ym2612"
    },
    {
      "channel": 4,
      "note": 117,
      "start": 77.3546,
      "duration": 0.0471,
      "velocity": 99,
      "chip": "ym2612"
    },
    {
      "channel": 2,
      "note": 74,
      "start": 77.3564,
      "duration": 0.0691,
      "velocity": 127,
      "chip": "ym2612"
    },
    {
      "channel": 5,
      "note": 42,
      "start": 77.358,
      "duration": 0.0676,
      "velocity": 127,
      "chip": "ym2612"
    },
    {
      "channel": 3,
      "note": 74,
      "start": 77.4742,
      "duration": 0.1038,
      "velocity": 97,
      "chip": "ym2612"
    },
    {
      "channel": 1,
      "note": 78,
      "start": 77.476,
      "duration": 0.1021,
      "velocity": 97,
      "chip": "ym2612"
    },
    {
      "channel": 4,
      "note": 117,
      "start": 77.4777,
      "duration": 0.0447,
      "velocity": 99,
      "chip": "ym2612"
    },
    {
      "channel": 2,
      "note": 74,
      "start": 77.4792,
      "duration": 0.0717,
      "velocity": 127,
      "chip": "ym2612"
    },
    {
      "channel": 5,
      "note": 42,
      "start": 77.4817,
      "duration": 0.0986,
      "velocity": 127,
      "chip": "ym2612"
    },
    {
      "channel": 2,
      "note": 74,
      "start": 77.5796,
      "duration": 0.0742,
      "velocity": 127,
      "chip": "ym2612"
    },
    {
      "channel": 0,
      "note": 40,
      "start": 77.6851,
      "duration": 0.2126,
      "velocity": 107,
      "chip": "ym2612"
    },
    {
      "channel": 3,
      "note": 74,
      "start": 77.6868,
      "duration": 0.1036,
      "velocity": 97,
      "chip": "ym2612"
    },
    {
      "channel": 1,
      "note": 78,
      "start": 77.6892,
      "duration": 0.1013,
      "velocity": 97,
      "chip": "ym2612"
    },
    {
      "channel": 4,
      "note": 117,
      "start": 77.6909,
      "duration": 0.0489,
      "velocity": 99,
      "chip": "ym2612"
    },
    {
      "channel": 2,
      "note": 74,
      "start": 77.6924,
      "duration": 0.0701,
      "velocity": 127,
      "chip": "ym2612"
    },
    {
      "channel": 5,
      "note": 25,
      "start": 77.6947,
      "duration": 0.0679,
      "velocity": 127,
      "chip": "ym2612"
    },
    {
      "channel": 2,
      "note": 74,
      "start": 77.7919,
      "duration": 0.0735,
      "velocity": 127,
      "chip": "ym2612"
    },
    {
      "channel": 5,
      "note": 42,
      "start": 77.7944,
      "duration": 0.1001,
      "velocity": 127,
      "chip": "ym2612"
    },
    {
      "channel": 0,
      "note": 42,
      "start": 77.9151,
      "duration": 0.3071,
      "velocity": 107,
      "chip": "ym2612"
    },
    {
      "channel": 3,
      "note": 71,
      "start": 77.9168,
      "duration": 0.1015,
      "velocity": 97,
      "chip": "ym2612"
    },
    {
      "channel": 1,
      "note": 76,
      "start": 77.9186,
      "duration": 0.0998,
      "velocity": 97,
      "chip": "ym2612"
    },
    {
      "channel": 4,
      "note": 117,
      "start": 77.9203,
      "duration": 0.0475,
      "velocity": 99,
      "chip": "ym2612"
    },
    {
      "channel": 2,
      "note": 74,
      "start": 77.9224,
      "duration": 0.0688,
      "velocity": 127,
      "chip": "ym2612"
    },
    {
      "channel": 5,
      "note": 25,
      "start": 77.924,
      "duration": 0.0966,
      "velocity": 127,
      "chip": "ym2612"
    },
    {
      "channel": 2,
      "note": 74,
      "start": 78.0199,
      "duration": 0.0742,
      "velocity": 127,
      "chip": "ym2612"
    },
    {
      "channel": 4,
      "note": 117,
      "start": 78.1241,
      "duration": 0.0495,
      "velocity": 99,
      "chip": "ym2612"
    },
    {
      "channel": 2,
      "note": 74,
      "start": 78.1256,
      "duration": 0.0715,
      "velocity": 127,
      "chip": "ym2612"
    },
    {
      "channel": 0,
      "note": 47,
      "start": 78.2261,
      "duration": 0.3177,
      "velocity": 107,
      "chip": "ym2612"
    },
    {
      "channel": 2,
      "note": 74,
      "start": 78.229,
      "duration": 0.0713,
      "velocity": 127,
      "chip": "ym2612"
    },
    {
      "channel": 5,
      "note": 25,
      "start": 78.2314,
      "duration": 0.0691,
      "velocity": 127,
      "chip": "ym2612"
    },
    {
      "channel": 3,
      "note": 74,
      "start": 78.3319,
      "duration": 0.1038,
      "velocity": 97,
      "chip": "ym2612"
    },
    {
      "channel": 1,
      "note": 78,
      "start": 78.3336,
      "duration": 0.1023,
      "velocity": 97,
      "chip": "ym2612"
    },
    {
      "channel": 4,
      "note": 117,
      "start": 78.3353,
      "duration": 0.05,
      "velocity": 99,
      "chip": "ym2612"
    },
    {
      "channel": 2,
      "note": 74,
      "start": 78.3368,
      "duration": 0.0719,
      "velocity": 127,
      "chip": "ym2612"
    },
    {
      "channel": 5,
      "note": 42,
      "start": 78.3398,
      "duration": 0.0973,
      "velocity": 127,
      "chip": "ym2612"
    },
    {
      "channel": 2,
      "note": 74,
      "start": 78.4558,
      "duration": 0.0729,
      "velocity": 127,
      "chip": "ym2612"
    },
    {
      "channel": 0,
      "note": 47,
      "start": 78.5599,
      "duration": 0.2048,
      "velocity": 107,
      "chip": "ym2612"
    },
    {
      "channel": 3,
      "note": 74,
      "start": 78.5616,
      "duration": 0.104,
      "velocity": 97,
      "chip": "ym2612"
    },
    {
      "channel": 1,
      "note": 78,
      "start": 78.5633,
      "duration": 0.1025,
      "velocity": 97,
      "chip": "ym2612"
    },
    {
      "channel": 4,
      "note": 117,
      "start": 78.5651,
      "duration": 0.0432,
      "velocity": 99,
      "chip": "ym2612"
    },
    {
      "channel": 2,
      "note": 74,
      "start": 78.5665,
      "duration": 0.0708,
      "velocity": 127,
      "chip": "ym2612"
    },
    {
      "channel": 4,
      "note": 117,
      "start": 78.6668,
      "duration": 0.0501,
      "velocity": 99,
      "chip": "ym2612"
    },
    {
      "channel": 2,
      "note": 74,
      "start": 78.6683,
      "duration": 0.0723,
      "velocity": 127,
      "chip": "ym2612"
    },
    {
      "channel": 5,
      "note": 25,
      "start": 78.6707,
      "duration": 0.07,
      "velocity": 127,
      "chip": "ym2612"
    },
    {
      "channel": 0,
      "note": 42,
      "start": 78.7707,
      "duration": 0.2134,
      "velocity": 107,
      "chip": "ym2612"
    },
    {
      "channel": 3,
      "note": 71,
      "start": 78.7731,
      "duration": 0.1029,
      "velocity": 97,
      "chip": "ym2612"
    },
    {
      "channel": 1,
      "note": 76,
      "start": 78.7748,
      "duration": 0.1013,
      "velocity": 97,
      "chip": "ym2612"
    },
    {
      "channel": 2,
      "note": 74,
      "start": 78.777,
      "duration": 0.0719,
      "velocity": 127,
      "chip": "ym2612"
    },
    {
      "channel": 5,
      "note": 42,
      "start": 78.7794,
      "duration": 0.0978,
      "velocity": 127,
      "chip": "ym2612"
    },
    {
      "channel": 4,
      "note": 117,
      "start": 78.8967,
      "duration": 0.0434,
      "velocity": 99,
      "chip": "ym2612"
    },
    {
      "channel": 2,
      "note": 74,
      "start": 78.8981,
      "duration": 0.0709,
      "velocity": 127,
      "chip": "ym2612"
    },
    {
      "channel": 5,
      "note": 25,
      "start": 78.9006,
      "duration": 0.0686,
      "velocity": 127,
      "chip": "ym2612"
    },
    {
      "channel": 0,
      "note": 40,
      "start": 78.9984,
      "duration": 0.201,
      "velocity": 107,
      "chip": "ym2612"
    },
    {
      "channel": 3,
      "note": 74,
      "start": 78.9999,
      "duration": 0.1003,
      "velocity": 97,
      "chip": "ym2612"
    },
    {
      "channel": 1,
      "note": 78,
      "start": 79.0016,
      "duration": 0.0988,
      "velocity": 97,
      "chip": "ym2612"
    },
    {
      "channel": 2,
      "note": 74,
      "start": 79.0039,
      "duration": 0.0686,
      "velocity": 127,
      "chip": "ym2612"
    },
    {
      "channel": 4,
      "note": 117,
      "start": 79.1014,
      "duration": 0.0501,
      "velocity": 99,
      "chip": "ym2612"
    },
    {
      "channel": 2,
      "note": 74,
      "start": 79.1029,
      "duration": 0.072,
      "velocity": 127,
      "chip": "ym2612"
    },
    {
      "channel": 5,
      "note": 42,
      "start": 79.1051,
      "duration": 0.0698,
      "velocity": 127,
      "chip": "ym2612"
    },
    {
      "channel": 0,
      "note": 40,
      "start": 79.2068,
      "duration": 0.2062,
      "velocity": 107,
      "chip": "ym2612"
    },
    {
      "channel": 3,
      "note": 78,
      "start": 79.2085,
      "duration": 0.102,
      "velocity": 97,
      "chip": "ym2612"
    },
    {
      "channel": 1,
      "note": 80,
      "start": 79.2102,
      "duration": 0.1005,
      "velocity": 97,
      "chip": "ym2612"
    },
    {
      "channel": 4,
      "note": 117,
      "start": 79.212,
      "duration": 0.0431,
      "velocity": 99,
      "chip": "ym2612"
    },
    {
      "channel": 2,
      "note": 74,
      "start": 79.2135,
      "duration": 0.07,
      "velocity": 127,
      "chip": "ym2612"
    },
    {
      "channel": 5,
      "note": 42,
      "start": 79.2159,
      "duration": 0.0969,
      "velocity": 127,
      "chip": "ym2612"
    },
    {
      "channel": 2,
      "note": 74,
      "start": 79.3122,
      "duration": 0.0742,
      "velocity": 127,
      "chip": "ym2612"
    },
    {
      "channel": 3,
      "note": 80,
      "start": 79.4345,
      "duration": 0.1055,
      "velocity": 97,
      "chip": "ym2612"
    },
    {
      "channel": 1,
      "note": 83,
      "start": 79.4362,
      "duration": 0.1039,
      "velocity": 97,
      "chip": "ym2612"
    },
    {
      "channel": 4,
      "note": 117,
      "start": 79.4386,
      "duration": 0.0509,
      "velocity": 99,
      "chip": "ym2612"
    },
    {
      "channel": 2,
      "note": 74,
      "start": 79.4401,
      "duration": 0.0721,
      "velocity": 127,
      "chip": "ym2612"
    },
    {
      "channel": 5,
      "note": 25,
      "start": 79.4425,
      "duration": 0.0699,
      "velocity": 127,
      "chip": "ym2612"
    },
    {
      "channel": 2,
      "note": 74,
      "start": 79.5417,
      "duration": 0.0735,
      "velocity": 127,
      "chip": "ym2612"
    },
    {
      "channel": 5,
      "note": 42,
      "start": 79.5441,
      "duration": 0.1013,
      "velocity": 127,
      "chip": "ym2612"
    },
    {
      "channel": 0,
      "note": 42,
      "start": 79.648,
      "duration": 0.3139,
      "velocity": 107,
      "chip": "ym2612"
    },
    {
      "channel": 3,
      "note": 83,
      "start": 79.6497,
      "duration": 0.1012,
      "velocity": 97,
      "chip": "ym2612"
    },
    {
      "channel": 1,
      "note": 86,
      "start": 79.6514,
      "duration": 0.0996,
      "velocity": 97,
      "chip": "ym2612"
    },
    {
      "channel": 4,
      "note": 117,
      "start": 79.6531,
      "duration": 0.0416,
      "velocity": 99,
      "chip": "ym2612"
    },
    {
      "channel": 2,
      "note": 74,
      "start": 79.6553,
      "duration": 0.0686,
      "velocity": 127,
      "chip": "ym2612"
    },
    {
      "channel": 5,
      "note": 25,
      "start": 79.6568,
      "duration": 0.0963,
      "velocity": 127,
      "chip": "ym2612"
    },
    {
      "channel": 2,
      "note": 74,
      "start": 79.7525,
      "duration": 0.0742,
      "velocity": 127,
      "chip": "ym2612"
    },
    {
      "channel": 3,
      "note": 86,
      "start": 79.8573,
      "duration": 0.0994,
      "velocity": 97,
      "chip": "ym2612"
    },
    {
      "channel": 1,
      "note": 90,
      "start": 79.859,
      "duration": 0.0978,
      "velocity": 97,
      "chip": "ym2612"
    },
    {
      "channel": 4,
      "note": 117,
      "start": 79.8607,
      "duration": 0.0459,
      "velocity": 99,
      "chip": "ym2612"
    },
    {
      "channel": 2,
      "note": 74,
      "start": 79.8623,
      "duration": 0.0674,
      "velocity": 127,
      "chip": "ym2612"
    },
    {
      "channel": 0,
      "note": 47,
      "start": 79.9759,
      "duration": 0.31,
      "velocity": 107,
      "chip": "ym2612"
    },
    {
      "channel": 2,
      "note": 74,
      "start": 79.9789,
      "duration": 0.0709,
      "velocity": 127,
      "chip": "ym2612"
    },
    {
      "channel": 5,
      "note": 25,
      "start": 79.9812,
      "duration": 0.0686,
      "velocity": 127,
      "chip": "ym2612"
    },
    {
      "channel": 3,
      "note": 85,
      "start": 80.0812,
      "duration": 0.1043,
      "velocity": 97,
      "chip": "ym2612"
    },
    {
      "channel": 1,
      "note": 88,
      "start": 80.0829,
      "duration": 0.1027,
      "velocity": 97,
      "chip": "ym2612"
    },
    {
      "channel": 4,
      "note": 117,
      "start": 80.0846,
      "duration": 0.0504,
      "velocity": 99,
      "chip": "ym2612"
    },
    {
      "channel": 2,
      "note": 74,
      "start": 80.0861,
      "duration": 0.0723,
      "velocity": 127,
      "chip": "ym2612"
    },
    {
      "channel": 5,
      "note": 42,
      "start": 80.0891,
      "duration": 0.0992,
      "velocity": 127,
      "chip": "ym2612"
    },
    {
      "channel": 2,
      "note": 74,
      "start": 80.1871,
      "duration": 0.0742,
      "velocity": 127,
      "chip": "ym2612"
    },
    {
      "channel": 0,
      "note": 47,
      "start": 80.2925,
      "duration": 0.207,
      "velocity": 107,
      "chip": "ym2612"
    },
    {
      "channel": 3,
      "note": 83,
      "start": 80.2942,
      "duration": 0.1028,
      "velocity": 97,
      "chip": "ym2612"
    },
    {
      "channel": 1,
      "note": 86,
      "start": 80.2959,
      "duration": 0.1013,
      "velocity": 97,
      "chip": "ym2612"
    },
    {
      "channel": 4,
      "note": 117,
      "start": 80.2976,
      "duration": 0.0432,
      "velocity": 99,
      "chip": "ym2612"
    },
    {
      "channel": 2,
      "note": 74,
      "start": 80.2991,
      "duration": 0.0709,
      "velocity": 127,
      "chip": "ym2612"
    },
    {
      "channel": 4,
      "note": 117,
      "start": 80.4172,
      "duration": 0.0494,
      "velocity": 99,
      "chip": "ym2612"
    },
    {
      "channel": 2,
      "note": 74,
      "start": 80.4188,
      "duration": 0.0717,
      "velocity": 127,
      "chip": "ym2612"
    },
    {
      "channel": 5,
      "note": 25,
      "start": 80.4218,
      "duration": 0.0688,
      "velocity": 127,
      "chip": "ym2612"
    },
    {
      "channel": 0,
      "note": 42,
      "start": 80.5205,
      "duration": 0.3085,
      "velocity": 107,
      "chip": "ym2612"
    },
    {
      "channel": 3,
      "note": 78,
      "start": 80.5229,
      "duration": 0.1045,
      "velocity": 97,
      "chip": "ym2612"
    },
    {
      "channel": 1,
      "note": 83,
      "start": 80.5246,
      "duration": 0.103,
      "velocity": 97,
      "chip": "ym2612"
    },
    {
      "channel": 2,
      "note": 74,
      "start": 80.5268,
      "duration": 0.0718,
      "velocity": 127,
      "chip": "ym2612"
    },
    {
      "channel": 5,
      "note": 42,
      "start": 80.5293,
      "duration": 0.0959,
      "velocity": 127,
      "chip": "ym2612"
    },
    {
      "channel": 4,
      "note": 117,
      "start": 80.6285,
      "duration": 0.0446,
      "velocity": 99,
      "chip": "ym2612"
    },
    {
      "channel": 2,
      "note": 74,
      "start": 80.6301,
      "duration": 0.0715,
      "velocity": 127,
      "chip": "ym2612"
    },
    {
      "channel": 5,
      "note": 25,
      "start": 80.6324,
      "duration": 0.0693,
      "velocity": 127,
      "chip": "ym2612"
    },
    {
      "channel": 2,
      "note": 74,
      "start": 80.731,
      "duration": 0.0742,
      "velocity": 127,
      "chip": "ym2612"
    },
    {
      "channel": 0,
      "note": 40,
      "start": 80.8341,
      "duration": 0.3172,
      "velocity": 107,
      "chip": "ym2612"
    },
    {
      "channel": 4,
      "note": 117,
      "start": 80.8366,
      "duration": 0.0475,
      "velocity": 99,
      "chip": "ym2612"
    },
    {
      "channel": 2,
      "note": 74,
      "start": 80.8388,
      "duration": 0.069,
      "velocity": 127,
      "chip": "ym2612"
    },
    {
      "channel": 5,
      "note": 42,
      "start": 80.8404,
      "duration": 0.0676,
      "velocity": 127,
      "chip": "ym2612"
    },
    {
      "channel": 3,
      "note": 74,
      "start": 80.9566,
      "duration": 0.1037,
      "velocity": 97,
      "chip": "ym2612"
    },
    {
      "channel": 1,
      "note": 78,
      "start": 80.9584,
      "duration": 0.102,
      "velocity": 97,
      "chip": "ym2612"
    },
    {
      "channel": 4,
      "note": 117,
      "start": 80.9601,
      "duration": 0.044,
      "velocity": 99,
      "chip": "ym2612"
    },
    {
      "channel": 2,
      "note": 74,
      "start": 80.9616,
      "duration": 0.0717,
      "velocity": 127,
      "chip": "ym2612"
    },
    {
      "channel": 5,
      "note": 42,
      "start": 80.964,
      "duration": 0.0985,
      "velocity": 127,
      "chip": "ym2612"
    },
    {
      "channel": 2,
      "note": 74,
      "start": 81.062,
      "duration": 0.0742,
      "velocity": 127,
      "chip": "ym2612"
    },
    {
      "channel": 0,
      "note": 40,
      "start": 81.1675,
      "duration": 0.2125,
      "velocity": 107,
      "chip": "ym2612"
    },
    {
      "channel": 3,
      "note": 74,
      "start": 81.1691,
      "duration": 0.1035,
      "velocity": 97,
      "chip": "ym2612"
    },
    {
      "channel": 1,
      "note": 78,
      "start": 81.1711,
      "duration": 0.1017,
      "velocity": 97,
      "chip": "ym2612"
    },
    {
      "channel": 4,
      "note": 117,
      "start": 81.1733,
      "duration": 0.0488,
      "velocity": 99,
      "chip": "ym2612"
    },
    {
      "channel": 2,
      "note": 74,
      "start": 81.1747,
      "duration": 0.0701,
      "velocity": 127,
      "chip": "ym2612"
    },
    {
      "channel": 5,
      "note": 25,
      "start": 81.1771,
      "duration": 0.0679,
      "velocity": 127,
      "chip": "ym2612"
    },
    {
      "channel": 2,
      "note": 74,
      "start": 81.2743,
      "duration": 0.0735,
      "velocity": 127,
      "chip": "ym2612"
    },
    {
      "channel": 5,
      "note": 42,
      "start": 81.2768,
      "duration": 0.1001,
      "velocity": 127,
      "chip": "ym2612"
    },
    {
      "channel": 0,
      "note": 42,
      "start": 81.3974,
      "duration": 0.3064,
      "velocity": 107,
      "chip": "ym2612"
    },
    {
      "channel": 3,
      "note": 71,
      "start": 81.3992,
      "duration": 0.1015,
      "velocity": 97,
      "chip": "ym2612"
    },
    {
      "channel": 1,
      "note": 76,
      "start": 81.4009,
      "duration": 0.0999,
      "velocity": 97,
      "chip": "ym2612"
    },
    {
      "channel": 4,
      "note": 117,
      "start": 81.4026,
      "duration": 0.0476,
      "velocity": 99,
      "chip": "ym2612"
    },
    {
      "channel": 2,
      "note": 74,
      "start": 81.4041,
      "duration": 0.0698,
      "velocity": 127,
      "chip": "ym2612"
    },
    {
      "channel": 5,
      "note": 25,
      "start": 81.4063,
      "duration": 0.0966,
      "velocity": 127,
      "chip": "ym2612"
    },
    {
      "channel": 2,
      "note": 74,
      "start": 81.5022,
      "duration": 0.0742,
      "velocity": 127,
      "chip": "ym2612"
    },
    {
      "channel": 4,
      "note": 117,
      "start": 81.6064,
      "duration": 0.0502,
      "velocity": 99,
      "chip": "ym2612"
    },
    {
      "channel": 2,
      "note": 74,
      "start": 81.6079,
      "duration": 0.0714,
      "velocity": 127,
      "chip": "ym2612"
    },
    {
      "channel": 0,
      "note": 47,
      "start": 81.7084,
      "duration": 0.3178,
      "velocity": 107,
      "chip": "ym2612"
    },
    {
      "channel": 2,
      "note": 74,
      "start": 81.7114,
      "duration": 0.0712,
      "velocity": 127,
      "chip": "ym2612"
    },
    {
      "channel": 5,
      "note": 25,
      "start": 81.7138,
      "duration": 0.069,
      "velocity": 127,
      "chip": "ym2612"
    },
    {
      "channel": 3,
      "note": 74,
      "start": 81.8142,
      "duration": 0.1039,
      "velocity": 97,
      "chip": "ym2612"
    },
    {
      "channel": 1,
      "note": 78,
      "start": 81.8159,
      "duration": 0.1023,
      "velocity": 97,
      "chip": "ym2612"
    },
    {
      "channel": 4,
      "note": 117,
      "start": 81.8176,
      "duration": 0.05,
      "velocity": 99,
      "chip": "ym2612"
    },
    {
      "channel": 2,
      "note": 74,
      "start": 81.8191,
      "duration": 0.0719,
      "velocity": 127,
      "chip": "ym2612"
    },
    {
      "channel": 5,
      "note": 42,
      "start": 81.8221,
      "duration": 0.0973,
      "velocity": 127,
      "chip": "ym2612"
    },
    {
      "channel": 2,
      "note": 74,
      "start": 81.9375,
      "duration": 0.0735,
      "velocity": 127,
      "chip": "ym2612"
    },
    {
      "channel": 0,
      "note": 47,
      "start": 82.0422,
      "duration": 0.2049,
      "velocity": 107,
      "chip": "ym2612"
    },
    {
      "channel": 3,
      "note": 74,
      "start": 82.0439,
      "duration": 0.104,
      "velocity": 97,
      "chip": "ym2612"
    },
    {
      "channel": 1,
      "note": 78,
      "start": 82.0457,
      "duration": 0.1025,
      "velocity": 97,
      "chip": "ym2612"
    },
    {
      "channel": 4,
      "note": 117,
      "start": 82.0474,
      "duration": 0.0432,
      "velocity": 99,
      "chip": "ym2612"
    },
    {
      "channel": 2,
      "note": 74,
      "start": 82.0488,
      "duration": 0.0709,
      "velocity": 127,
      "chip": "ym2612"
    },
    {
      "channel": 4,
      "note": 117,
      "start": 82.1491,
      "duration": 0.0501,
      "velocity": 99,
      "chip": "ym2612"
    },
    {
      "channel": 2,
      "note": 74,
      "start": 82.1506,
      "duration": 0.0726,
      "velocity": 127,
      "chip": "ym2612"
    },
    {
      "channel": 5,
      "note": 25,
      "start": 82.153,
      "duration": 0.0704,
      "velocity": 127,
      "chip": "ym2612"
    },
    {
      "channel": 0,
      "note": 42,
      "start": 82.253,
      "duration": 0.2134,
      "velocity": 107,
      "chip": "ym2612"
    },
    {
      "channel": 3,
      "note": 71,
      "start": 82.2554,
      "duration": 0.1029,
      "velocity": 97,
      "chip": "ym2612"
    },
    {
      "channel": 1,
      "note": 76,
      "start": 82.2571,
      "duration": 0.1014,
      "velocity": 97,
      "chip": "ym2612"
    },
    {
      "channel": 2,
      "note": 74,
      "start": 82.2593,
      "duration": 0.072,
      "velocity": 127,
      "chip": "ym2612"
    },
    {
      "channel": 5,
      "note": 42,
      "start": 82.2617,
      "duration": 0.0979,
      "velocity": 127,
      "chip": "ym2612"
    },
    {
      "channel": 4,
      "note": 117,
      "start": 82.379,
      "duration": 0.0439,
      "velocity": 99,
      "chip": "ym2612"
    },
    {
      "channel": 2,
      "note": 74,
      "start": 82.3805,
      "duration": 0.0708,
      "velocity": 127,
      "chip": "ym2612"
    },
    {
      "channel": 5,
      "note": 25,
      "start": 82.3829,
      "duration": 0.0686,
      "velocity": 127,
      "chip": "ym2612"
    },
    {
      "channel": 0,
      "note": 40,
      "start": 82.4807,
      "duration": 0.201,
      "velocity": 107,
      "chip": "ym2612"
    },
    {
      "channel": 3,
      "note": 74,
      "start": 82.4822,
      "duration": 0.1004,
      "velocity": 97,
      "chip": "ym2612"
    },
    {
      "channel": 1,
      "note": 78,
      "start": 82.4839,
      "duration": 0.0989,
      "velocity": 97,
      "chip": "ym2612"
    },
    {
      "channel": 2,
      "note": 74,
      "start": 82.4862,
      "duration": 0.0683,
      "velocity": 127,
      "chip": "ym2612"
    },
    {
      "channel": 4,
      "note": 117,
      "start": 82.5838,
      "duration": 0.0501,
      "velocity": 99,
      "chip": "ym2612"
    },
    {
      "channel": 2,
      "note": 74,
      "start": 82.5853,
      "duration": 0.072,
      "velocity": 127,
      "chip": "ym2612"
    },
    {
      "channel": 5,
      "note": 42,
      "start": 82.5869,
      "duration": 0.0705,
      "velocity": 127,
      "chip": "ym2612"
    },
    {
      "channel": 0,
      "note": 40,
      "start": 82.6892,
      "duration": 0.2061,
      "velocity": 107,
      "chip": "ym2612"
    },
    {
      "channel": 3,
      "note": 78,
      "start": 82.6909,
      "duration": 0.102,
      "velocity": 97,
      "chip": "ym2612"
    },
    {
      "channel": 1,
      "note": 80,
      "start": 82.6926,
      "duration": 0.1005,
      "velocity": 97,
      "chip": "ym2612"
    },
    {
      "channel": 4,
      "note": 117,
      "start": 82.6943,
      "duration": 0.0424,
      "velocity": 99,
      "chip": "ym2612"
    },
    {
      "channel": 2,
      "note": 74,
      "start": 82.6959,
      "duration": 0.07,
      "velocity": 127,
      "chip": "ym2612"
    },
    {
      "channel": 5,
      "note": 42,
      "start": 82.6983,
      "duration": 0.0969,
      "velocity": 127,
      "chip": "ym2612"
    },
    {
      "channel": 2,
      "note": 74,
      "start": 82.7945,
      "duration": 0.0742,
      "velocity": 127,
      "chip": "ym2612"
    },
    {
      "channel": 3,
      "note": 80,
      "start": 82.9168,
      "duration": 0.1056,
      "velocity": 97,
      "chip": "ym2612"
    },
    {
      "channel": 1,
      "note": 83,
      "start": 82.9186,
      "duration": 0.104,
      "velocity": 97,
      "chip": "ym2612"
    },
    {
      "channel": 4,
      "note": 117,
      "start": 82.9203,
      "duration": 0.0515,
      "velocity": 99,
      "chip": "ym2612"
    },
    {
      "channel": 2,
      "note": 74,
      "start": 82.9224,
      "duration": 0.0721,
      "velocity": 127,
      "chip": "ym2612"
    },
    {
      "channel": 5,
      "note": 25,
      "start": 82.9248,
      "duration": 0.0699,
      "velocity": 127,
      "chip": "ym2612"
    },
    {
      "channel": 2,
      "note": 74,
      "start": 83.024,
      "duration": 0.0735,
      "velocity": 127,
      "chip": "ym2612"
    },
    {
      "channel": 5,
      "note": 42,
      "start": 83.0265,
      "duration": 0.1015,
      "velocity": 127,
      "chip": "ym2612"
    },
    {
      "channel": 0,
      "note": 42,
      "start": 83.1305,
      "duration": 0.3137,
      "velocity": 107,
      "chip": "ym2612"
    },
    {
      "channel": 3,
      "note": 83,
      "start": 83.1322,
      "duration": 0.101,
      "velocity": 97,
      "chip": "ym2612"
    },
    {
      "channel": 1,
      "note": 86,
      "start": 83.1339,
      "duration": 0.0994,
      "velocity": 97,
      "chip": "ym2612"
    },
    {
      "channel": 4,
      "note": 117,
      "start": 83.1356,
      "duration": 0.0414,
      "velocity": 99,
      "chip": "ym2612"
    },
    {
      "channel": 2,
      "note": 74,
      "start": 83.1371,
      "duration": 0.0697,
      "velocity": 127,
      "chip": "ym2612"
    },
    {
      "channel": 5,
      "note": 25,
      "start": 83.1394,
      "duration": 0.0961,
      "velocity": 127,
      "chip": "ym2612"
    },
    {
      "channel": 2,
      "note": 74,
      "start": 83.2349,
      "duration": 0.0742,
      "velocity": 127,
      "chip": "ym2612"
    },
    {
      "channel": 3,
      "note": 85,
      "start": 83.3396,
      "duration": 0.0994,
      "velocity": 97,
      "chip": "ym2612"
    },
    {
      "channel": 1,
      "note": 90,
      "start": 83.3413,
      "duration": 0.0978,
      "velocity": 97,
      "chip": "ym2612"
    },
    {
      "channel": 4,
      "note": 117,
      "start": 83.3431,
      "duration": 0.0462,
      "velocity": 99,
      "chip": "ym2612"
    },
    {
      "channel": 2,
      "note": 74,
      "start": 83.3446,
      "duration": 0.0674,
      "velocity": 127,
      "chip": "ym2612"
    },
    {
      "channel": 0,
      "note": 45,
      "start": 83.4582,
      "duration": 0.31,
      "velocity": 107,
      "chip": "ym2612"
    },
    {
      "channel": 2,
      "note": 74,
      "start": 83.4612,
      "duration": 0.0708,
      "velocity": 127,
      "chip": "ym2612"
    },
    {
      "channel": 5,
      "note": 25,
      "start": 83.4636,
      "duration": 0.0686,
      "velocity": 127,
      "chip": "ym2612"
    },
    {
      "channel": 3,
      "note": 81,
      "start": 83.5635,
      "duration": 0.1043,
      "velocity": 97,
      "chip": "ym2612"
    },
    {
      "channel": 1,
      "note": 88,
      "start": 83.5653,
      "duration": 0.1027,
      "velocity": 97,
      "chip": "ym2612"
    },
    {
      "channel": 4,
      "note": 117,
      "start": 83.567,
      "duration": 0.0504,
      "velocity": 99,
      "chip": "ym2612"
    },
    {
      "channel": 2,
      "note": 74,
      "start": 83.5684,
      "duration": 0.0723,
      "velocity": 127,
      "chip": "ym2612"
    },
    {
      "channel": 5,
      "note": 42,
      "start": 83.5708,
      "duration": 0.0993,
      "velocity": 127,
      "chip": "ym2612"
    },
    {
      "channel": 2,
      "note": 74,
      "start": 83.6694,
      "duration": 0.0742,
      "velocity": 127,
      "chip": "ym2612"
    },
    {
      "channel": 0,
      "note": 45,
      "start": 83.7749,
      "duration": 0.2069,
      "velocity": 107,
      "chip": "ym2612"
    },
    {
      "channel": 3,
      "note": 78,
      "start": 83.7765,
      "duration": 0.1029,
      "velocity": 97,
      "chip": "ym2612"
    },
    {
      "channel": 1,
      "note": 85,
      "start": 83.7783,
      "duration": 0.1012,
      "velocity": 97,
      "chip": "ym2612"
    },
    {
      "channel": 4,
      "note": 117,
      "start": 83.78,
      "duration": 0.0434,
      "velocity": 99,
      "chip": "ym2612"
    },
    {
      "channel": 2,
      "note": 74,
      "start": 83.7815,
      "duration": 0.0708,
      "velocity": 127,
      "chip": "ym2612"
    },
    {
      "channel": 4,
      "note": 117,
      "start": 83.8995,
      "duration": 0.0494,
      "velocity": 99,
      "chip": "ym2612"
    },
    {
      "channel": 2,
      "note": 74,
      "start": 83.9011,
      "duration": 0.0719,
      "velocity": 127,
      "chip": "ym2612"
    },
    {
      "channel": 5,
      "note": 25,
      "start": 83.9035,
      "duration": 0.0696,
      "velocity": 127,
      "chip": "ym2612"
    },
    {
      "channel": 0,
      "note": 42,
      "start": 84.0027,
      "duration": 0.3087,
      "velocity": 107,
      "chip": "ym2612"
    },
    {
      "channel": 3,
      "note": 76,
      "start": 84.0051,
      "duration": 0.1047,
      "velocity": 97,
      "chip": "ym2612"
    },
    {
      "channel": 1,
      "note": 81,
      "start": 84.0068,
      "duration": 0.1031,
      "velocity": 97,
      "chip": "ym2612"
    },
    {
      "channel": 2,
      "note": 74,
      "start": 84.009,
      "duration": 0.072,
      "velocity": 127,
      "chip": "ym2612"
    },
    {
      "channel": 5,
      "note": 42,
      "start": 84.0114,
      "duration": 0.0961,
      "velocity": 127,
      "chip": "ym2612"
    },
    {
      "channel": 4,
      "note": 117,
      "start": 84.1109,
      "duration": 0.0445,
      "velocity": 99,
      "chip": "ym2612"
    },
    {
      "channel": 2,
      "note": 74,
      "start": 84.1124,
      "duration": 0.0716,
      "velocity": 127,
      "chip": "ym2612"
    },
    {
      "channel": 5,
      "note": 25,
      "start": 84.1147,
      "duration": 0.0693,
      "velocity": 127,
      "chip": "ym2612"
    },
    {
      "channel": 2,
      "note": 74,
      "start": 84.2133,
      "duration": 0.0735,
      "velocity": 127,
      "chip": "ym2612"
    },
    {
      "channel": 0,
      "note": 40,
      "start": 84.3165,
      "duration": 0.3172,
      "velocity": 107,
      "chip": "ym2612"
    },
    {
      "channel": 4,
      "note": 117,
      "start": 84.3189,
      "duration": 0.0475,
      "velocity": 99,
      "chip": "ym2612"
    },
    {
      "channel": 2,
      "note": 74,
      "start": 84.3205,
      "duration": 0.0703,
      "velocity": 127,
      "chip": "ym2612"
    },
    {
      "channel": 5,
      "note": 42,
      "start": 84.3227,
      "duration": 0.0683,
      "velocity": 127,
      "chip": "ym2612"
    },
    {
      "channel": 3,
      "note": 73,
      "start": 84.439,
      "duration": 0.1036,
      "velocity": 97,
      "chip": "ym2612"
    },
    {
      "channel": 1,
      "note": 78,
      "start": 84.4407,
      "duration": 0.1021,
      "velocity": 97,
      "chip": "ym2612"
    },
    {
      "channel": 4,
      "note": 117,
      "start": 84.4424,
      "duration": 0.0441,
      "velocity": 99,
      "chip": "ym2612"
    },
    {
      "channel": 2,
      "note": 74,
      "start": 84.4439,
      "duration": 0.0717,
      "velocity": 127,
      "chip": "ym2612"
    },
    {
      "channel": 5,
      "note": 42,
      "start": 84.4463,
      "duration": 0.0986,
      "velocity": 127,
      "chip": "ym2612"
    },
    {
      "channel": 2,
      "note": 74,
      "start": 84.5443,
      "duration": 0.0742,
      "velocity": 127,
      "chip": "ym2612"
    },
    {
      "channel": 0,
      "note": 40,
      "start": 84.6498,
      "duration": 0.2126,
      "velocity": 107,
      "chip": "ym2612"
    },
    {
      "channel": 3,
      "note": 73,
      "start": 84.6515,
      "duration": 0.1036,
      "velocity": 97,
      "chip": "ym2612"
    },
    {
      "channel": 1,
      "note": 78,
      "start": 84.6532,
      "duration": 0.1019,
      "velocity": 97,
      "chip": "ym2612"
    },
    {
      "channel": 4,
      "note": 117,
      "start": 84.6556,
      "duration": 0.0482,
      "velocity": 99,
      "chip": "ym2612"
    },
    {
      "channel": 2,
      "note": 74,
      "start": 84.6571,
      "duration": 0.0701,
      "velocity": 127,
      "chip": "ym2612"
    },
    {
      "channel": 5,
      "note": 25,
      "start": 84.6594,
      "duration": 0.0679,
      "velocity": 127,
      "chip": "ym2612"
    },
    {
      "channel": 2,
      "note": 74,
      "start": 84.7566,
      "duration": 0.0735,
      "velocity": 127,
      "chip": "ym2612"
    },
    {
      "channel": 5,
      "note": 42,
      "start": 84.7591,
      "duration": 0.1001,
      "velocity": 127,
      "chip": "ym2612"
    },
    {
      "channel": 0,
      "note": 42,
      "start": 84.8801,
      "duration": 0.3061,
      "velocity": 107,
      "chip": "ym2612"
    },
    {
      "channel": 3,
      "note": 69,
      "start": 84.8818,
      "duration": 0.1012,
      "velocity": 97,
      "chip": "ym2612"
    },
    {
      "channel": 1,
      "note": 76,
      "start": 84.8835,
      "duration": 0.0995,
      "velocity": 97,
      "chip": "ym2612"
    },
    {
      "channel": 4,
      "note": 117,
      "start": 84.8852,
      "duration": 0.0473,
      "velocity": 99,
      "chip": "ym2612"
    },
    {
      "channel": 2,
      "note": 74,
      "start": 84.8868,
      "duration": 0.0697,
      "velocity": 127,
      "chip": "ym2612"
    },
    {
      "channel": 5,
      "note": 25,
      "start": 84.889,
      "duration": 0.0963,
      "velocity": 127,
      "chip": "ym2612"
    },
    {
      "channel": 2,
      "note": 74,
      "start": 84.9846,
      "duration": 0.0742,
      "velocity": 127,
      "chip": "ym2612"
    },
    {
      "channel": 3,
      "note": 81,
      "start": 85.0894,
      "duration": 0.1021,
      "velocity": 97,
      "chip": "ym2612"
    },
    {
      "channel": 1,
      "note": 78,
      "start": 85.0911,
      "duration": 0.1005,
      "velocity": 97,
      "chip": "ym2612"
    },
    {
      "channel": 4,
      "note": 117,
      "start": 85.0928,
      "duration": 0.0462,
      "velocity": 99,
      "chip": "ym2612"
    },
    {
      "channel": 2,
      "note": 74,
      "start": 85.0943,
      "duration": 0.0674,
      "velocity": 127,
      "chip": "ym2612"
    },
    {
      "channel": 0,
      "note": 45,
      "start": 85.1908,
      "duration": 0.3177,
      "velocity": 107,
      "chip": "ym2612"
    },
    {
      "channel": 2,
      "note": 74,
      "start": 85.1931,
      "duration": 0.0716,
      "velocity": 127,
      "chip": "ym2612"
    },
    {
      "channel": 5,
      "note": 25,
      "start": 85.1954,
      "duration": 0.0694,
      "velocity": 127,
      "chip": "ym2612"
    },
    {
      "channel": 3,
      "note": 78,
      "start": 85.2962,
      "duration": 0.1042,
      "velocity": 97,
      "chip": "ym2612"
    },
    {
      "channel": 1,
      "note": 76,
      "start": 85.2979,
      "duration": 0.1026,
      "velocity": 97,
      "chip": "ym2612"
    },
    {
      "channel": 4,
      "note": 117,
      "start": 85.2996,
      "duration": 0.0503,
      "velocity": 99,
      "chip": "ym2612"
    },
    {
      "channel": 2,
      "note": 74,
      "start": 85.3011,
      "duration": 0.0728,
      "velocity": 127,
      "chip": "ym2612"
    },
    {
      "channel": 5,
      "note": 42,
      "start": 85.3034,
      "duration": 0.0982,
      "velocity": 127,
      "chip": "ym2612"
    },
    {
      "channel": 2,
      "note": 74,
      "start": 85.4199,
      "duration": 0.0735,
      "velocity": 127,
      "chip": "ym2612"
    },
    {
      "channel": 0,
      "note": 45,
      "start": 85.5246,
      "duration": 0.2049,
      "velocity": 107,
      "chip": "ym2612"
    },
    {
      "channel": 3,
      "note": 76,
      "start": 85.5263,
      "duration": 0.104,
      "velocity": 97,
      "chip": "ym2612"
    },
    {
      "channel": 1,
      "note": 73,
      "start": 85.528,
      "duration": 0.1025,
      "velocity": 97,
      "chip": "ym2612"
    },
    {
      "channel": 4,
      "note": 117,
      "start": 85.5298,
      "duration": 0.0436,
      "velocity": 99,
      "chip": "ym2612"
    },
    {
      "channel": 2,
      "note": 74,
      "start": 85.5312,
      "duration": 0.0708,
      "velocity": 127,
      "chip": "ym2612"
    },
    {
      "channel": 4,
      "note": 117,
      "start": 85.6315,
      "duration": 0.0501,
      "velocity": 99,
      "chip": "ym2612"
    },
    {
      "channel": 2,
      "note": 74,
      "start": 85.633,
      "duration": 0.0726,
      "velocity": 127,
      "chip": "ym2612"
    },
    {
      "channel": 5,
      "note": 25,
      "start": 85.6354,
      "duration": 0.0703,
      "velocity": 127,
      "chip": "ym2612"
    },
    {
      "channel": 0,
      "note": 42,
      "start": 85.7353,
      "duration": 0.2136,
      "velocity": 107,
      "chip": "ym2612"
    },
    {
      "channel": 3,
      "note": 73,
      "start": 85.737,
      "duration": 0.1054,
      "velocity": 97,
      "chip": "ym2612"
    },
    {
      "channel": 1,
      "note": 69,
      "start": 85.7394,
      "duration": 0.1032,
      "velocity": 97,
      "chip": "ym2612"
    },
    {
      "channel": 2,
      "note": 74,
      "start": 85.7416,
      "duration": 0.072,
      "velocity": 127,
      "chip": "ym2612"
    },
    {
      "channel": 5,
      "note": 42,
      "start": 85.744,
      "duration": 0.0962,
      "velocity": 127,
      "chip": "ym2612"
    },
    {
      "channel": 4,
      "note": 117,
      "start": 85.8435,
      "duration": 0.0497,
      "velocity": 99,
      "chip": "ym2612"
    },
    {
      "channel": 2,
      "note": 74,
      "start": 85.845,
      "duration": 0.0715,
      "velocity": 127,
      "chip": "ym2612"
    },
    {
      "channel": 5,
      "note": 25,
      "start": 85.8474,
      "duration": 0.0693,
      "velocity": 127,
      "chip": "ym2612"
    },
    {
      "channel": 0,
      "note": 40,
      "start": 85.9621,
      "duration": 0.2023,
      "velocity": 107,
      "chip": "ym2612"
    },
    {
      "channel": 2,
      "note": 74,
      "start": 85.9651,
      "duration": 0.0715,
      "velocity": 127,
      "chip": "ym2612"
    },
    {
      "channel": 4,
      "note": 117,
      "start": 86.0668,
      "duration": 0.0494,
      "velocity": 99,
      "chip": "ym2612"
    },
    {
      "channel": 2,
      "note": 74,
      "start": 86.0683,
      "duration": 0.0719,
      "velocity": 127,
      "chip": "ym2612"
    },
    {
      "channel": 5,
      "note": 42,
      "start": 86.0699,
      "duration": 0.0704,
      "velocity": 127,
      "chip": "ym2612"
    },
    {
      "channel": 0,
      "note": 40,
      "start": 86.1705,
      "duration": 0.2129,
      "velocity": 107,
      "chip": "ym2612"
    },
    {
      "channel": 1,
      "note": 66,
      "start": 86.1734,
      "duration": 0.1025,
      "velocity": 97,
      "chip": "ym2612"
    },
    {
      "channel": 4,
      "note": 117,
      "start": 86.1751,
      "duration": 0.0499,
      "velocity": 99,
      "chip": "ym2612"
    },
    {
      "channel": 2,
      "note": 74,
      "start": 86.1766,
      "duration": 0.0718,
      "velocity": 127,
      "chip": "ym2612"
    },
    {
      "channel": 5,
      "note": 42,
      "start": 86.179,
      "duration": 0.099,
      "velocity": 127,
      "chip": "ym2612"
    },
    {
      "channel": 2,
      "note": 74,
      "start": 86.2774,
      "duration": 0.0739,
      "velocity": 127,
      "chip": "ym2612"
    },
    {
      "channel": 4,
      "note": 117,
      "start": 86.3987,
      "duration": 0.0493,
      "velocity": 99,
      "chip": "ym2612"
    },
    {
      "channel": 2,
      "note": 74,
      "start": 86.4002,
      "duration": 0.0717,
      "velocity": 127,
      "chip": "ym2612"
    },
    {
      "channel": 5,
      "note": 25,
      "start": 86.4026,
      "duration": 0.0696,
      "velocity": 127,
      "chip": "ym2612"
    },
    {
      "channel": 2,
      "note": 74,
      "start": 86.501,
      "duration": 0.0732,
      "velocity": 127,
      "chip": "ym2612"
    },
    {
      "channel": 5,
      "note": 42,
      "start": 86.5034,
      "duration": 0.102,
      "velocity": 127,
      "chip": "ym2612"
    },
    {
      "channel": 0,
      "note": 42,
      "start": 86.6079,
      "duration": 0.3132,
      "velocity": 107,
      "chip": "ym2612"
    },
    {
      "channel": 3,
      "note": 69,
      "start": 86.6096,
      "duration": 0.1002,
      "velocity": 97,
      "chip": "ym2612"
    },
    {
      "channel": 1,
      "note": 100,
      "start": 86.6113,
      "duration": 0.0987,
      "velocity": 97,
      "chip": "ym2612"
    },
    {
      "channel": 4,
      "note": 117,
      "start": 86.613,
      "duration": 0.0407,
      "velocity": 99,
      "chip": "ym2612"
    },
    {
      "channel": 2,
      "note": 74,
      "start": 86.6146,
      "duration": 0.0682,
      "velocity": 127,
      "chip": "ym2612"
    },
    {
      "channel": 5,
      "note": 25,
      "start": 86.6161,
      "duration": 0.096,
      "velocity": 127,
      "chip": "ym2612"
    },
    {
      "channel": 2,
      "note": 74,
      "start": 86.7114,
      "duration": 0.0742,
      "velocity": 127,
      "chip": "ym2612"
    },
    {
      "channel": 3,
      "note": 97,
      "start": 86.8156,
      "duration": 0.1001,
      "velocity": 97,
      "chip": "ym2612"
    },
    {
      "channel": 1,
      "note": 102,
      "start": 86.8173,
      "duration": 0.0985,
      "velocity": 97,
      "chip": "ym2612"
    },
    {
      "channel": 4,
      "note": 117,
      "start": 86.8191,
      "duration": 0.0462,
      "velocity": 99,
      "chip": "ym2612"
    },
    {
      "channel": 2,
      "note": 74,
      "start": 86.8206,
      "duration": 0.0686,
      "velocity": 127,
      "chip": "ym2612"
    },
    {
      "channel": 0,
      "note": 45,
      "start": 86.9341,
      "duration": 0.3107,
      "velocity": 107,
      "chip": "ym2612"
    },
    {
      "channel": 2,
      "note": 74,
      "start": 86.9372,
      "duration": 0.0715,
      "velocity": 127,
      "chip": "ym2612"
    },
    {
      "channel": 5,
      "note": 25,
      "start": 86.9402,
      "duration": 0.0686,
      "velocity": 127,
      "chip": "ym2612"
    },
    {
      "channel": 3,
      "note": 93,
      "start": 87.0402,
      "duration": 0.1042,
      "velocity": 97,
      "chip": "ym2612"
    },
    {
      "channel": 1,
      "note": 100,
      "start": 87.0419,
      "duration": 0.1026,
      "velocity": 97,
      "chip": "ym2612"
    },
    {
      "channel": 4,
      "note": 117,
      "start": 87.0436,
      "duration": 0.0503,
      "velocity": 99,
      "chip": "ym2612"
    },
    {
      "channel": 2,
      "note": 74,
      "start": 87.0451,
      "duration": 0.0722,
      "velocity": 127,
      "chip": "ym2612"
    },
    {
      "channel": 5,
      "note": 42,
      "start": 87.0475,
      "duration": 0.0992,
      "velocity": 127,
      "chip": "ym2612"
    },
    {
      "channel": 2,
      "note": 74,
      "start": 87.146,
      "duration": 0.0742,
      "velocity": 127,
      "chip": "ym2612"
    },
    {
      "channel": 0,
      "note": 45,
      "start": 87.2508,
      "duration": 0.2076,
      "velocity": 107,
      "chip": "ym2612"
    },
    {
      "channel": 3,
      "note": 90,
      "start": 87.2525,
      "duration": 0.1034,
      "velocity": 97,
      "chip": "ym2612"
    },
    {
      "channel": 1,
      "note": 97,
      "start": 87.2545,
      "duration": 0.1016,
      "velocity": 97,
      "chip": "ym2612"
    },
    {
      "channel": 4,
      "note": 117,
      "start": 87.2566,
      "duration": 0.0432,
      "velocity": 99,
      "chip": "ym2612"
    },
    {
      "channel": 2,
      "note": 74,
      "start": 87.2581,
      "duration": 0.0708,
      "velocity": 127,
      "chip": "ym2612"
    },
    {
      "channel": 4,
      "note": 117,
      "start": 87.3768,
      "duration": 0.0488,
      "velocity": 99,
      "chip": "ym2612"
    },
    {
      "channel": 2,
      "note": 74,
      "start": 87.3784,
      "duration": 0.0706,
      "velocity": 127,
      "chip": "ym2612"
    },
    {
      "channel": 5,
      "note": 25,
      "start": 87.3808,
      "duration": 0.0683,
      "velocity": 127,
      "chip": "ym2612"
    },
    {
      "channel": 0,
      "note": 42,
      "start": 87.48,
      "duration": 0.3086,
      "velocity": 107,
      "chip": "ym2612"
    },
    {
      "channel": 3,
      "note": 88,
      "start": 87.4817,
      "duration": 0.104,
      "velocity": 97,
      "chip": "ym2612"
    },
    {
      "channel": 1,
      "note": 93,
      "start": 87.4834,
      "duration": 0.1025,
      "velocity": 97,
      "chip": "ym2612"
    },
    {
      "channel": 2,
      "note": 74,
      "start": 87.4857,
      "duration": 0.072,
      "velocity": 127,
      "chip": "ym2612"
    },
    {
      "channel": 5,
      "note": 42,
      "start": 87.4888,
      "duration": 0.0947,
      "velocity": 127,
      "chip": "ym2612"
    },
    {
      "channel": 4,
      "note": 117,
      "start": 87.5869,
      "duration": 0.0446,
      "velocity": 99,
      "chip": "ym2612"
    },
    {
      "channel": 2,
      "note": 74,
      "start": 87.589,
      "duration": 0.0715,
      "velocity": 127,
      "chip": "ym2612"
    },
    {
      "channel": 5,
      "note": 25,
      "start": 87.5914,
      "duration": 0.0693,
      "velocity": 127,
      "chip": "ym2612"
    },
    {
      "channel": 2,
      "note": 74,
      "start": 87.6906,
      "duration": 0.0729,
      "velocity": 127,
      "chip": "ym2612"
    },
    {
      "channel": 0,
      "note": 40,
      "start": 87.7937,
      "duration": 0.3166,
      "velocity": 107,
      "chip": "ym2612"
    },
    {
      "channel": 4,
      "note": 117,
      "start": 87.7962,
      "duration": 0.0468,
      "velocity": 99,
      "chip": "ym2612"
    },
    {
      "channel": 2,
      "note": 74,
      "start": 87.7977,
      "duration": 0.0691,
      "velocity": 127,
      "chip": "ym2612"
    },
    {
      "channel": 5,
      "note": 42,
      "start": 87.7993,
      "duration": 0.0676,
      "velocity": 127,
      "chip": "ym2612"
    },
    {
      "channel": 3,
      "note": 85,
      "start": 87.9156,
      "duration": 0.1037,
      "velocity": 97,
      "chip": "ym2612"
    },
    {
      "channel": 1,
      "note": 90,
      "start": 87.9173,
      "duration": 0.1021,
      "velocity": 97,
      "chip": "ym2612"
    },
    {
      "channel": 4,
      "note": 117,
      "start": 87.9191,
      "duration": 0.044,
      "velocity": 99,
      "chip": "ym2612"
    },
    {
      "channel": 2,
      "note": 74,
      "start": 87.9205,
      "duration": 0.0717,
      "velocity": 127,
      "chip": "ym2612"
    },
    {
      "channel": 5,
      "note": 42,
      "start": 87.9237,
      "duration": 0.0986,
      "velocity": 127,
      "chip": "ym2612"
    },
    {
      "channel": 2,
      "note": 74,
      "start": 88.0212,
      "duration": 0.074,
      "velocity": 127,
      "chip": "ym2612"
    },
    {
      "channel": 0,
      "note": 40,
      "start": 88.1271,
      "duration": 0.2119,
      "velocity": 107,
      "chip": "ym2612"
    },
    {
      "channel": 3,
      "note": 85,
      "start": 88.1287,
      "duration": 0.1023,
      "velocity": 97,
      "chip": "ym2612"
    },
    {
      "channel": 1,
      "note": 90,
      "start": 88.1305,
      "duration": 0.1006,
      "velocity": 97,
      "chip": "ym2612"
    },
    {
      "channel": 4,
      "note": 117,
      "start": 88.1322,
      "duration": 0.0481,
      "velocity": 99,
      "chip": "ym2612"
    },
    {
      "channel": 2,
      "note": 74,
      "start": 88.1337,
      "duration": 0.0701,
      "velocity": 127,
      "chip": "ym2612"
    },
    {
      "channel": 5,
      "note": 25,
      "start": 88.1361,
      "duration": 0.0679,
      "velocity": 127,
      "chip": "ym2612"
    },
    {
      "channel": 2,
      "note": 74,
      "start": 88.2326,
      "duration": 0.0746,
      "velocity": 127,
      "chip": "ym2612"
    },
    {
      "channel": 5,
      "note": 42,
      "start": 88.2351,
      "duration": 0.1007,
      "velocity": 127,
      "chip": "ym2612"
    },
    {
      "channel": 0,
      "note": 42,
      "start": 88.3567,
      "duration": 0.3062,
      "velocity": 107,
      "chip": "ym2612"
    },
    {
      "channel": 3,
      "note": 81,
      "start": 88.3584,
      "duration": 0.1011,
      "velocity": 97,
      "chip": "ym2612"
    },
    {
      "channel": 1,
      "note": 88,
      "start": 88.3602,
      "duration": 0.0996,
      "velocity": 97,
      "chip": "ym2612"
    },
    {
      "channel": 4,
      "note": 117,
      "start": 88.3619,
      "duration": 0.0415,
      "velocity": 99,
      "chip": "ym2612"
    },
    {
      "channel": 2,
      "note": 74,
      "start": 88.3633,
      "duration": 0.0692,
      "velocity": 127,
      "chip": "ym2612"
    },
    {
      "channel": 5,
      "note": 25,
      "start": 88.3649,
      "duration": 0.0969,
      "velocity": 127,
      "chip": "ym2612"
    },
    {
      "channel": 2,
      "note": 74,
      "start": 88.4612,
      "duration": 0.0742,
      "velocity": 127,
      "chip": "ym2612"
    },
    {
      "channel": 4,
      "note": 117,
      "start": 88.5648,
      "duration": 0.0502,
      "velocity": 99,
      "chip": "ym2612"
    },
    {
      "channel": 2,
      "note": 74,
      "start": 88.5663,
      "duration": 0.0727,
      "velocity": 127,
      "chip": "ym2612"
    },
    {
      "channel": 0,
      "note": 45,
      "start": 88.6668,
      "duration": 0.3184,
      "velocity": 107,
      "chip": "ym2612"
    },
    {
      "channel": 2,
      "note": 74,
      "start": 88.6698,
      "duration": 0.0718,
      "velocity": 127,
      "chip": "ym2612"
    },
    {
      "channel": 5,
      "note": 25,
      "start": 88.6728,
      "duration": 0.069,
      "velocity": 127,
      "chip": "ym2612"
    },
    {
      "channel": 3,
      "note": 85,
      "start": 88.7732,
      "duration": 0.1038,
      "velocity": 97,
      "chip": "ym2612"
    },
    {
      "channel": 1,
      "note": 90,
      "start": 88.7749,
      "duration": 0.1022,
      "velocity": 97,
      "chip": "ym2612"
    },
    {
      "channel": 4,
      "note": 117,
      "start": 88.7766,
      "duration": 0.0499,
      "velocity": 99,
      "chip": "ym2612"
    },
    {
      "channel": 2,
      "note": 74,
      "start": 88.7782,
      "duration": 0.0718,
      "velocity": 127,
      "chip": "ym2612"
    },
    {
      "channel": 5,
      "note": 42,
      "start": 88.7805,
      "duration": 0.0978,
      "velocity": 127,
      "chip": "ym2612"
    },
    {
      "channel": 2,
      "note": 74,
      "start": 88.8965,
      "duration": 0.0735,
      "velocity": 127,
      "chip": "ym2612"
    },
    {
      "channel": 0,
      "note": 45,
      "start": 89.0006,
      "duration": 0.2061,
      "velocity": 107,
      "chip": "ym2612"
    },
    {
      "channel": 3,
      "note": 85,
      "start": 89.0023,
      "duration": 0.1053,
      "velocity": 97,
      "chip": "ym2612"
    },
    {
      "channel": 1,
      "note": 90,
      "start": 89.0041,
      "duration": 0.1037,
      "velocity": 97,
      "chip": "ym2612"
    },
    {
      "channel": 4,
      "note": 117,
      "start": 89.0064,
      "duration": 0.0431,
      "velocity": 99,
      "chip": "ym2612"
    },
    {
      "channel": 2,
      "note": 74,
      "start": 89.0079,
      "duration": 0.0708,
      "velocity": 127,
      "chip": "ym2612"
    },
    {
      "channel": 4,
      "note": 117,
      "start": 89.1087,
      "duration": 0.0495,
      "velocity": 99,
      "chip": "ym2612"
    },
    {
      "channel": 2,
      "note": 74,
      "start": 89.1102,
      "duration": 0.0714,
      "velocity": 127,
      "chip": "ym2612"
    },
    {
      "channel": 5,
      "note": 25,
      "start": 89.1127,
      "duration": 0.0691,
      "velocity": 127,
      "chip": "ym2612"
    },
    {
      "channel": 0,
      "note": 42,
      "start": 89.2125,
      "duration": 0.2129,
      "velocity": 107,
      "chip": "ym2612"
    },
    {
      "channel": 3,
      "note": 81,
      "start": 89.2142,
      "duration": 0.1041,
      "velocity": 97,
      "chip": "ym2612"
    },
    {
      "channel": 1,
      "note": 88,
      "start": 89.2159,
      "duration": 0.1026,
      "velocity": 97,
      "chip": "ym2612"
    },
    {
      "channel": 2,
      "note": 74,
      "start": 89.2182,
      "duration": 0.0724,
      "velocity": 127,
      "chip": "ym2612"
    },
    {
      "channel": 5,
      "note": 42,
      "start": 89.2207,
      "duration": 0.0955,
      "velocity": 127,
      "chip": "ym2612"
    },
    {
      "channel": 4,
      "note": 117,
      "start": 89.3195,
      "duration": 0.0502,
      "velocity": 99,
      "chip": "ym2612"
    },
    {
      "channel": 2,
      "note": 74,
      "start": 89.3216,
      "duration": 0.0716,
      "velocity": 127,
      "chip": "ym2612"
    },
    {
      "channel": 5,
      "note": 25,
      "start": 89.324,
      "duration": 0.0693,
      "velocity": 127,
      "chip": "ym2612"
    },
    {
      "channel": 0,
      "note": 40,
      "start": 89.4404,
      "duration": 0.201,
      "velocity": 107,
      "chip": "ym2612"
    },
    {
      "channel": 3,
      "note": 85,
      "start": 89.4418,
      "duration": 0.1004,
      "velocity": 97,
      "chip": "ym2612"
    },
    {
      "channel": 1,
      "note": 90,
      "start": 89.4436,
      "duration": 0.0989,
      "velocity": 97,
      "chip": "ym2612"
    },
    {
      "channel": 2,
      "note": 74,
      "start": 89.4458,
      "duration": 0.0674,
      "velocity": 127,
      "chip": "ym2612"
    },
    {
      "channel": 4,
      "note": 117,
      "start": 89.5434,
      "duration": 0.0494,
      "velocity": 99,
      "chip": "ym2612"
    },
    {
      "channel": 2,
      "note": 74,
      "start": 89.5449,
      "duration": 0.0712,
      "velocity": 127,
      "chip": "ym2612"
    },
    {
      "channel": 5,
      "note": 42,
      "start": 89.5465,
      "duration": 0.0698,
      "velocity": 127,
      "chip": "ym2612"
    },
    {
      "channel": 0,
      "note": 40,
      "start": 89.6482,
      "duration": 0.2118,
      "velocity": 107,
      "chip": "ym2612"
    },
    {
      "channel": 3,
      "note": 88,
      "start": 89.6499,
      "duration": 0.102,
      "velocity": 97,
      "chip": "ym2612"
    },
    {
      "channel": 1,
      "note": 93,
      "start": 89.6516,
      "duration": 0.1004,
      "velocity": 97,
      "chip": "ym2612"
    },
    {
      "channel": 4,
      "note": 117,
      "start": 89.6534,
      "duration": 0.0481,
      "velocity": 99,
      "chip": "ym2612"
    },
    {
      "channel": 2,
      "note": 74,
      "start": 89.6555,
      "duration": 0.0693,
      "velocity": 127,
      "chip": "ym2612"
    },
    {
      "channel": 5,
      "note": 42,
      "start": 89.6579,
      "duration": 0.0963,
      "velocity": 127,
      "chip": "ym2612"
    },
    {
      "channel": 2,
      "note": 74,
      "start": 89.7535,
      "duration": 0.0742,
      "velocity": 127,
      "chip": "ym2612"
    },
    {
      "channel": 3,
      "note": 90,
      "start": 89.8764,
      "duration": 0.1043,
      "velocity": 97,
      "chip": "ym2612"
    },
    {
      "channel": 1,
      "note": 97,
      "start": 89.8782,
      "duration": 0.1027,
      "velocity": 97,
      "chip": "ym2612"
    },
    {
      "channel": 4,
      "note": 117,
      "start": 89.8799,
      "duration": 0.0502,
      "velocity": 99,
      "chip": "ym2612"
    },
    {
      "channel": 2,
      "note": 74,
      "start": 89.8814,
      "duration": 0.0721,
      "velocity": 127,
      "chip": "ym2612"
    },
    {
      "channel": 5,
      "note": 25,
      "start": 89.8838,
      "duration": 0.0699,
      "velocity": 127,
      "chip": "ym2612"
    },
    {
      "channel": 2,
      "note": 74,
      "start": 89.9824,
      "duration": 0.0747,
      "velocity": 127,
      "chip": "ym2612"
    },
    {
      "channel": 5,
      "note": 42,
      "start": 89.9849,
      "duration": 0.1015,
      "velocity": 127,
      "chip": "ym2612"
    },
    {
      "channel": 0,
      "note": 42,
      "start": 90.0895,
      "duration": 0.3137,
      "velocity": 107,
      "chip": "ym2612"
    },
    {
      "channel": 3,
      "note": 93,
      "start": 90.0911,
      "duration": 0.101,
      "velocity": 97,
      "chip": "ym2612"
    },
    {
      "channel": 1,
      "note": 100,
      "start": 90.0929,
      "duration": 0.0994,
      "velocity": 97,
      "chip": "ym2612"
    },
    {
      "channel": 4,
      "note": 117,
      "start": 90.0946,
      "duration": 0.0413,
      "velocity": 99,
      "chip": "ym2612"
    },
    {
      "channel": 2,
      "note": 74,
      "start": 90.0961,
      "duration": 0.069,
      "velocity": 127,
      "chip": "ym2612"
    },
    {
      "channel": 5,
      "note": 25,
      "start": 90.0977,
      "duration": 0.0968,
      "velocity": 127,
      "chip": "ym2612"
    },
    {
      "channel": 2,
      "note": 74,
      "start": 90.1938,
      "duration": 0.0742,
      "velocity": 127,
      "chip": "ym2612"
    },
    {
      "channel": 3,
      "note": 98,
      "start": 90.298,
      "duration": 0.1,
      "velocity": 97,
      "chip": "ym2612"
    },
    {
      "channel": 1,
      "note": 102,
      "start": 90.2997,
      "duration": 0.0985,
      "velocity": 97,
      "chip": "ym2612"
    },
    {
      "channel": 4,
      "note": 117,
      "start": 90.3014,
      "duration": 0.0462,
      "velocity": 99,
      "chip": "ym2612"
    },
    {
      "channel": 2,
      "note": 74,
      "start": 90.3029,
      "duration": 0.0683,
      "velocity": 127,
      "chip": "ym2612"
    },
    {
      "channel": 0,
      "note": 47,
      "start": 90.4165,
      "duration": 0.3106,
      "velocity": 107,
      "chip": "ym2612"
    },
    {
      "channel": 2,
      "note": 74,
      "start": 90.4196,
      "duration": 0.0715,
      "velocity": 127,
      "chip": "ym2612"
    },
    {
      "channel": 5,
      "note": 25,
      "start": 90.4226,
      "duration": 0.0686,
      "velocity": 127,
      "chip": "ym2612"
    },
    {
      "channel": 3,
      "note": 97,
      "start": 90.5225,
      "duration": 0.1042,
      "velocity": 97,
      "chip": "ym2612"
    },
    {
      "channel": 1,
      "note": 100,
      "start": 90.5242,
      "duration": 0.1027,
      "velocity": 97,
      "chip": "ym2612"
    },
    {
      "channel": 4,
      "note": 117,
      "start": 90.5259,
      "duration": 0.0504,
      "velocity": 99,
      "chip": "ym2612"
    },
    {
      "channel": 2,
      "note": 74,
      "start": 90.5275,
      "duration": 0.0722,
      "velocity": 127,
      "chip": "ym2612"
    },
    {
      "channel": 5,
      "note": 42,
      "start": 90.5298,
      "duration": 0.0992,
      "velocity": 127,
      "chip": "ym2612"
    },
    {
      "channel": 2,
      "note": 74,
      "start": 90.6284,
      "duration": 0.0742,
      "velocity": 127,
      "chip": "ym2612"
    },
    {
      "channel": 0,
      "note": 47,
      "start": 90.7332,
      "duration": 0.2076,
      "velocity": 107,
      "chip": "ym2612"
    },
    {
      "channel": 3,
      "note": 95,
      "start": 90.7349,
      "duration": 0.1041,
      "velocity": 97,
      "chip": "ym2612"
    },
    {
      "channel": 1,
      "note": 98,
      "start": 90.7366,
      "duration": 0.1025,
      "velocity": 97,
      "chip": "ym2612"
    },
    {
      "channel": 4,
      "note": 117,
      "start": 90.739,
      "duration": 0.0432,
      "velocity": 99,
      "chip": "ym2612"
    },
    {
      "channel": 2,
      "note": 74,
      "start": 90.7405,
      "duration": 0.0708,
      "velocity": 127,
      "chip": "ym2612"
    },
    {
      "channel": 4,
      "note": 117,
      "start": 90.8591,
      "duration": 0.0488,
      "velocity": 99,
      "chip": "ym2612"
    },
    {
      "channel": 2,
      "note": 74,
      "start": 90.8607,
      "duration": 0.0707,
      "velocity": 127,
      "chip": "ym2612"
    },
    {
      "channel": 5,
      "note": 25,
      "start": 90.8631,
      "duration": 0.0684,
      "velocity": 127,
      "chip": "ym2612"
    },
    {
      "channel": 0,
      "note": 42,
      "start": 90.9624,
      "duration": 0.3079,
      "velocity": 107,
      "chip": "ym2612"
    },
    {
      "channel": 3,
      "note": 90,
      "start": 90.9642,
      "duration": 0.1039,
      "velocity": 97,
      "chip": "ym2612"
    },
    {
      "channel": 1,
      "note": 95,
      "start": 90.9659,
      "duration": 0.1024,
      "velocity": 97,
      "chip": "ym2612"
    },
    {
      "channel": 2,
      "note": 74,
      "start": 90.9681,
      "duration": 0.0724,
      "velocity": 127,
      "chip": "ym2612"
    },
    {
      "channel": 5,
      "note": 42,
      "start": 90.9706,
      "duration": 0.0953,
      "velocity": 127,
      "chip": "ym2612"
    },
    {
      "channel": 4,
      "note": 117,
      "start": 91.0693,
      "duration": 0.0445,
      "velocity": 99,
      "chip": "ym2612"
    },
    {
      "channel": 2,
      "note": 74,
      "start": 91.0708,
      "duration": 0.0721,
      "velocity": 127,
      "chip": "ym2612"
    },
    {
      "channel": 5,
      "note": 25,
      "start": 91.0738,
      "duration": 0.0693,
      "velocity": 127,
      "chip": "ym2612"
    },
    {
      "channel": 2,
      "note": 74,
      "start": 91.1729,
      "duration": 0.0729,
      "velocity": 127,
      "chip": "ym2612"
    },
    {
      "channel": 0,
      "note": 40,
      "start": 91.2761,
      "duration": 0.3165,
      "velocity": 107,
      "chip": "ym2612"
    },
    {
      "channel": 4,
      "note": 117,
      "start": 91.2785,
      "duration": 0.0468,
      "velocity": 99,
      "chip": "ym2612"
    },
    {
      "channel": 2,
      "note": 74,
      "start": 91.2801,
      "duration": 0.0691,
      "velocity": 127,
      "chip": "ym2612"
    },
    {
      "channel": 5,
      "note": 42,
      "start": 91.2817,
      "duration": 0.0676,
      "velocity": 127,
      "chip": "ym2612"
    },
    {
      "channel": 3,
      "note": 86,
      "start": 91.398,
      "duration": 0.1037,
      "velocity": 97,
      "chip": "ym2612"
    },
    {
      "channel": 1,
      "note": 90,
      "start": 91.3997,
      "duration": 0.1021,
      "velocity": 97,
      "chip": "ym2612"
    },
    {
      "channel": 4,
      "note": 117,
      "start": 91.4014,
      "duration": 0.0441,
      "velocity": 99,
      "chip": "ym2612"
    },
    {
      "channel": 2,
      "note": 74,
      "start": 91.4029,
      "duration": 0.0716,
      "velocity": 127,
      "chip": "ym2612"
    },
    {
      "channel": 5,
      "note": 42,
      "start": 91.406,
      "duration": 0.098,
      "velocity": 127,
      "chip": "ym2612"
    },
    {
      "channel": 2,
      "note": 74,
      "start": 91.5033,
      "duration": 0.0742,
      "velocity": 127,
      "chip": "ym2612"
    },
    {
      "channel": 0,
      "note": 40,
      "start": 91.6094,
      "duration": 0.2124,
      "velocity": 107,
      "chip": "ym2612"
    },
    {
      "channel": 3,
      "note": 86,
      "start": 91.6111,
      "duration": 0.1022,
      "velocity": 97,
      "chip": "ym2612"
    },
    {
      "channel": 1,
      "note": 90,
      "start": 91.6128,
      "duration": 0.1006,
      "velocity": 97,
      "chip": "ym2612"
    },
    {
      "channel": 4,
      "note": 117,
      "start": 91.6146,
      "duration": 0.0482,
      "velocity": 99,
      "chip": "ym2612"
    },
    {
      "channel": 2,
      "note": 74,
      "start": 91.6161,
      "duration": 0.07,
      "velocity": 127,
      "chip": "ym2612"
    },
    {
      "channel": 5,
      "note": 25,
      "start": 91.6184,
      "duration": 0.0678,
      "velocity": 127,
      "chip": "ym2612"
    },
    {
      "channel": 2,
      "note": 74,
      "start": 91.7149,
      "duration": 0.0747,
      "velocity": 127,
      "chip": "ym2612"
    },
    {
      "channel": 5,
      "note": 42,
      "start": 91.7174,
      "duration": 0.1008,
      "velocity": 127,
      "chip": "ym2612"
    },
    {
      "channel": 0,
      "note": 42,
      "start": 91.8388,
      "duration": 0.3064,
      "velocity": 107,
      "chip": "ym2612"
    },
    {
      "channel": 3,
      "note": 83,
      "start": 91.8405,
      "duration": 0.1015,
      "velocity": 97,
      "chip": "ym2612"
    },
    {
      "channel": 1,
      "note": 88,
      "start": 91.8422,
      "duration": 0.0999,
      "velocity": 97,
      "chip": "ym2612"
    },
    {
      "channel": 4,
      "note": 117,
      "start": 91.8439,
      "duration": 0.0419,
      "velocity": 99,
      "chip": "ym2612"
    },
    {
      "channel": 2,
      "note": 74,
      "start": 91.8454,
      "duration": 0.0695,
      "velocity": 127,
      "chip": "ym2612"
    },
    {
      "channel": 5,
      "note": 25,
      "start": 91.847,
      "duration": 0.0972,
      "velocity": 127,
      "chip": "ym2612"
    },
    {
      "channel": 2,
      "note": 74,
      "start": 91.9436,
      "duration": 0.0742,
      "velocity": 127,
      "chip": "ym2612"
    },
    {
      "channel": 4,
      "note": 117,
      "start": 92.0471,
      "duration": 0.0502,
      "velocity": 99,
      "chip": "ym2612"
    },
    {
      "channel": 2,
      "note": 74,
      "start": 92.0486,
      "duration": 0.0721,
      "velocity": 127,
      "chip": "ym2612"
    },
    {
      "channel": 0,
      "note": 47,
      "start": 92.1491,
      "duration": 0.3184,
      "velocity": 107,
      "chip": "ym2612"
    },
    {
      "channel": 2,
      "note": 74,
      "start": 92.1522,
      "duration": 0.0721,
      "velocity": 127,
      "chip": "ym2612"
    },
    {
      "channel": 5,
      "note": 25,
      "start": 92.1551,
      "duration": 0.0693,
      "velocity": 127,
      "chip": "ym2612"
    },
    {
      "channel": 3,
      "note": 86,
      "start": 92.2555,
      "duration": 0.1038,
      "velocity": 97,
      "chip": "ym2612"
    },
    {
      "channel": 1,
      "note": 90,
      "start": 92.2572,
      "duration": 0.1022,
      "velocity": 97,
      "chip": "ym2612"
    },
    {
      "channel": 4,
      "note": 117,
      "start": 92.259,
      "duration": 0.0499,
      "velocity": 99,
      "chip": "ym2612"
    },
    {
      "channel": 2,
      "note": 74,
      "start": 92.2605,
      "duration": 0.0718,
      "velocity": 127,
      "chip": "ym2612"
    },
    {
      "channel": 5,
      "note": 42,
      "start": 92.2628,
      "duration": 0.0978,
      "velocity": 127,
      "chip": "ym2612"
    },
    {
      "channel": 2,
      "note": 74,
      "start": 92.3788,
      "duration": 0.0735,
      "velocity": 127,
      "chip": "ym2612"
    },
    {
      "channel": 0,
      "note": 47,
      "start": 92.4829,
      "duration": 0.2061,
      "velocity": 107,
      "chip": "ym2612"
    },
    {
      "channel": 3,
      "note": 86,
      "start": 92.4846,
      "duration": 0.1054,
      "velocity": 97,
      "chip": "ym2612"
    },
    {
      "channel": 1,
      "note": 90,
      "start": 92.4864,
      "duration": 0.1037,
      "velocity": 97,
      "chip": "ym2612"
    },
    {
      "channel": 4,
      "note": 117,
      "start": 92.4887,
      "duration": 0.0432,
      "velocity": 99,
      "chip": "ym2612"
    },
    {
      "channel": 2,
      "note": 74,
      "start": 92.4902,
      "duration": 0.0708,
      "velocity": 127,
      "chip": "ym2612"
    },
    {
      "channel": 4,
      "note": 117,
      "start": 92.591,
      "duration": 0.0495,
      "velocity": 99,
      "chip": "ym2612"
    },
    {
      "channel": 2,
      "note": 74,
      "start": 92.5925,
      "duration": 0.0714,
      "velocity": 127,
      "chip": "ym2612"
    },
    {
      "channel": 5,
      "note": 25,
      "start": 92.595,
      "duration": 0.069,
      "velocity": 127,
      "chip": "ym2612"
    },
    {
      "channel": 0,
      "note": 42,
      "start": 92.695,
      "duration": 0.2128,
      "velocity": 107,
      "chip": "ym2612"
    },
    {
      "channel": 3,
      "note": 83,
      "start": 92.6967,
      "duration": 0.1039,
      "velocity": 97,
      "chip": "ym2612"
    },
    {
      "channel": 1,
      "note": 88,
      "start": 92.6985,
      "duration": 0.1024,
      "velocity": 97,
      "chip": "ym2612"
    },
    {
      "channel": 2,
      "note": 74,
      "start": 92.7007,
      "duration": 0.0725,
      "velocity": 127,
      "chip": "ym2612"
    },
    {
      "channel": 5,
      "note": 42,
      "start": 92.7032,
      "duration": 0.0953,
      "velocity": 127,
      "chip": "ym2612"
    },
    {
      "channel": 4,
      "note": 117,
      "start": 92.8018,
      "duration": 0.0503,
      "velocity": 99,
      "chip": "ym2612"
    },
    {
      "channel": 2,
      "note": 74,
      "start": 92.8034,
      "duration": 0.0721,
      "velocity": 127,
      "chip": "ym2612"
    },
    {
      "channel": 5,
      "note": 25,
      "start": 92.8063,
      "duration": 0.0693,
      "velocity": 127,
      "chip": "ym2612"
    },
    {
      "channel": 0,
      "note": 40,
      "start": 92.9227,
      "duration": 0.201,
      "velocity": 107,
      "chip": "ym2612"
    },
    {
      "channel": 3,
      "note": 86,
      "start": 92.9242,
      "duration": 0.1003,
      "velocity": 97,
      "chip": "ym2612"
    },
    {
      "channel": 1,
      "note": 90,
      "start": 92.9259,
      "duration": 0.0988,
      "velocity": 97,
      "chip": "ym2612"
    },
    {
      "channel": 2,
      "note": 74,
      "start": 92.9282,
      "duration": 0.0674,
      "velocity": 127,
      "chip": "ym2612"
    },
    {
      "channel": 4,
      "note": 117,
      "start": 93.0257,
      "duration": 0.0494,
      "velocity": 99,
      "chip": "ym2612"
    },
    {
      "channel": 2,
      "note": 74,
      "start": 93.0272,
      "duration": 0.0713,
      "velocity": 127,
      "chip": "ym2612"
    },
    {
      "channel": 5,
      "note": 42,
      "start": 93.0288,
      "duration": 0.0698,
      "velocity": 127,
      "chip": "ym2612"
    },
    {
      "channel": 0,
      "note": 40,
      "start": 93.1305,
      "duration": 0.2118,
      "velocity": 107,
      "chip": "ym2612"
    },
    {
      "channel": 3,
      "note": 90,
      "start": 93.1322,
      "duration": 0.102,
      "velocity": 97,
      "chip": "ym2612"
    },
    {
      "channel": 1,
      "note": 92,
      "start": 93.1339,
      "duration": 0.1004,
      "velocity": 97,
      "chip": "ym2612"
    },
    {
      "channel": 4,
      "note": 117,
      "start": 93.1356,
      "duration": 0.0482,
      "velocity": 99,
      "chip": "ym2612"
    },
    {
      "channel": 2,
      "note": 74,
      "start": 93.1371,
      "duration": 0.0701,
      "velocity": 127,
      "chip": "ym2612"
    },
    {
      "channel": 5,
      "note": 42,
      "start": 93.1402,
      "duration": 0.0963,
      "velocity": 127,
      "chip": "ym2612"
    },
    {
      "channel": 2,
      "note": 74,
      "start": 93.2359,
      "duration": 0.0742,
      "velocity": 127,
      "chip": "ym2612"
    },
    {
      "channel": 3,
      "note": 92,
      "start": 93.3588,
      "duration": 0.1043,
      "velocity": 97,
      "chip": "ym2612"
    },
    {
      "channel": 1,
      "note": 95,
      "start": 93.3605,
      "duration": 0.1027,
      "velocity": 97,
      "chip": "ym2612"
    },
    {
      "channel": 4,
      "note": 117,
      "start": 93.3623,
      "duration": 0.0502,
      "velocity": 99,
      "chip": "ym2612"
    },
    {
      "channel": 2,
      "note": 74,
      "start": 93.3638,
      "duration": 0.0721,
      "velocity": 127,
      "chip": "ym2612"
    },
    {
      "channel": 5,
      "note": 25,
      "start": 93.3661,
      "duration": 0.0698,
      "velocity": 127,
      "chip": "ym2612"
    },
    {
      "channel": 2,
      "note": 74,
      "start": 93.4647,
      "duration": 0.0747,
      "velocity": 127,
      "chip": "ym2612"
    },
    {
      "channel": 5,
      "note": 42,
      "start": 93.4672,
      "duration": 0.1013,
      "velocity": 127,
      "chip": "ym2612"
    },
    {
      "channel": 0,
      "note": 42,
      "start": 93.5717,
      "duration": 0.3139,
      "velocity": 107,
      "chip": "ym2612"
    },
    {
      "channel": 3,
      "note": 95,
      "start": 93.5734,
      "duration": 0.1011,
      "velocity": 97,
      "chip": "ym2612"
    },
    {
      "channel": 1,
      "note": 98,
      "start": 93.5751,
      "duration": 0.0996,
      "velocity": 97,
      "chip": "ym2612"
    },
    {
      "channel": 4,
      "note": 117,
      "start": 93.5768,
      "duration": 0.0415,
      "velocity": 99,
      "chip": "ym2612"
    },
    {
      "channel": 2,
      "note": 74,
      "start": 93.5784,
      "duration": 0.0691,
      "velocity": 127,
      "chip": "ym2612"
    },
    {
      "channel": 5,
      "note": 25,
      "start": 93.58,
      "duration": 0.0969,
      "velocity": 127,
      "chip": "ym2612"
    },
    {
      "channel": 2,
      "note": 74,
      "start": 93.6761,
      "duration": 0.0742,
      "velocity": 127,
      "chip": "ym2612"
    },
    {
      "channel": 3,
      "note": 98,
      "start": 93.7808,
      "duration": 0.0995,
      "velocity": 97,
      "chip": "ym2612"
    },
    {
      "channel": 1,
      "note": 102,
      "start": 93.7826,
      "duration": 0.0979,
      "velocity": 97,
      "chip": "ym2612"
    },
    {
      "channel": 4,
      "note": 117,
      "start": 93.7843,
      "duration": 0.0456,
      "velocity": 99,
      "chip": "ym2612"
    },
    {
      "channel": 2,
      "note": 74,
      "start": 93.7858,
      "duration": 0.0675,
      "velocity": 127,
      "chip": "ym2612"
    },
    {
      "channel": 0,
      "note": 47,
      "start": 93.8988,
      "duration": 0.3107,
      "velocity": 107,
      "chip": "ym2612"
    },
    {
      "channel": 2,
      "note": 74,
      "start": 93.9019,
      "duration": 0.0719,
      "velocity": 127,
      "chip": "ym2612"
    },
    {
      "channel": 5,
      "note": 25,
      "start": 93.9044,
      "duration": 0.0695,
      "velocity": 127,
      "chip": "ym2612"
    },
    {
      "channel": 3,
      "note": 97,
      "start": 94.0044,
      "duration": 0.1046,
      "velocity": 97,
      "chip": "ym2612"
    },
    {
      "channel": 1,
      "note": 100,
      "start": 94.0066,
      "duration": 0.1026,
      "velocity": 97,
      "chip": "ym2612"
    },
    {
      "channel": 4,
      "note": 117,
      "start": 94.0083,
      "duration": 0.0503,
      "velocity": 99,
      "chip": "ym2612"
    },
    {
      "channel": 2,
      "note": 74,
      "start": 94.0098,
      "duration": 0.0722,
      "velocity": 127,
      "chip": "ym2612"
    },
    {
      "channel": 5,
      "note": 42,
      "start": 94.0122,
      "duration": 0.0992,
      "velocity": 127,
      "chip": "ym2612"
    },
    {
      "channel": 2,
      "note": 74,
      "start": 94.1107,
      "duration": 0.0742,
      "velocity": 127,
      "chip": "ym2612"
    },
    {
      "channel": 0,
      "note": 47,
      "start": 94.2155,
      "duration": 0.2076,
      "velocity": 107,
      "chip": "ym2612"
    },
    {
      "channel": 3,
      "note": 95,
      "start": 94.2172,
      "duration": 0.1034,
      "velocity": 97,
      "chip": "ym2612"
    },
    {
      "channel": 1,
      "note": 98,
      "start": 94.2189,
      "duration": 0.1019,
      "velocity": 97,
      "chip": "ym2612"
    },
    {
      "channel": 4,
      "note": 117,
      "start": 94.2207,
      "duration": 0.0438,
      "velocity": 99,
      "chip": "ym2612"
    },
    {
      "channel": 2,
      "note": 74,
      "start": 94.2228,
      "duration": 0.0708,
      "velocity": 127,
      "chip": "ym2612"
    },
    {
      "channel": 4,
      "note": 117,
      "start": 94.3415,
      "duration": 0.0488,
      "velocity": 99,
      "chip": "ym2612"
    },
    {
      "channel": 2,
      "note": 74,
      "start": 94.3431,
      "duration": 0.0706,
      "velocity": 127,
      "chip": "ym2612"
    },
    {
      "channel": 5,
      "note": 25,
      "start": 94.3455,
      "duration": 0.0683,
      "velocity": 127,
      "chip": "ym2612"
    },
    {
      "channel": 0,
      "note": 42,
      "start": 94.4448,
      "duration": 0.3078,
      "velocity": 107,
      "chip": "ym2612"
    },
    {
      "channel": 3,
      "note": 90,
      "start": 94.4466,
      "duration": 0.1039,
      "velocity": 97,
      "chip": "ym2612"
    },
    {
      "channel": 1,
      "note": 95,
      "start": 94.4483,
      "duration": 0.1023,
      "velocity": 97,
      "chip": "ym2612"
    },
    {
      "channel": 2,
      "note": 74,
      "start": 94.4505,
      "duration": 0.0724,
      "velocity": 127,
      "chip": "ym2612"
    },
    {
      "channel": 5,
      "note": 42,
      "start": 94.453,
      "duration": 0.0953,
      "velocity": 127,
      "chip": "ym2612"
    },
    {
      "channel": 4,
      "note": 117,
      "start": 94.5516,
      "duration": 0.0445,
      "velocity": 99,
      "chip": "ym2612"
    },
    {
      "channel": 2,
      "note": 74,
      "start": 94.5531,
      "duration": 0.0721,
      "velocity": 127,
      "chip": "ym2612"
    },
    {
      "channel": 5,
      "note": 25,
      "start": 94.5561,
      "duration": 0.0693,
      "velocity": 127,
      "chip": "ym2612"
    },
    {
      "channel": 2,
      "note": 74,
      "start": 94.6553,
      "duration": 0.0729,
      "velocity": 127,
      "chip": "ym2612"
    },
    {
      "channel": 0,
      "note": 40,
      "start": 94.7584,
      "duration": 0.3166,
      "velocity": 107,
      "chip": "ym2612"
    },
    {
      "channel": 4,
      "note": 117,
      "start": 94.7609,
      "duration": 0.0468,
      "velocity": 99,
      "chip": "ym2612"
    },
    {
      "channel": 2,
      "note": 74,
      "start": 94.7624,
      "duration": 0.0691,
      "velocity": 127,
      "chip": "ym2612"
    },
    {
      "channel": 5,
      "note": 42,
      "start": 94.764,
      "duration": 0.0676,
      "velocity": 127,
      "chip": "ym2612"
    },
    {
      "channel": 3,
      "note": 86,
      "start": 94.8803,
      "duration": 0.1037,
      "velocity": 97,
      "chip": "ym2612"
    },
    {
      "channel": 1,
      "note": 90,
      "start": 94.882,
      "duration": 0.102,
      "velocity": 97,
      "chip": "ym2612"
    },
    {
      "channel": 4,
      "note": 117,
      "start": 94.8838,
      "duration": 0.044,
      "velocity": 99,
      "chip": "ym2612"
    },
    {
      "channel": 2,
      "note": 74,
      "start": 94.8852,
      "duration": 0.072,
      "velocity": 127,
      "chip": "ym2612"
    },
    {
      "channel": 5,
      "note": 42,
      "start": 94.8883,
      "duration": 0.0979,
      "velocity": 127,
      "chip": "ym2612"
    },
    {
      "channel": 2,
      "note": 74,
      "start": 94.9856,
      "duration": 0.0742,
      "velocity": 127,
      "chip": "ym2612"
    },
    {
      "channel": 0,
      "note": 40,
      "start": 95.0918,
      "duration": 0.2119,
      "velocity": 107,
      "chip": "ym2612"
    },
    {
      "channel": 3,
      "note": 86,
      "start": 95.0934,
      "duration": 0.1023,
      "velocity": 97,
      "chip": "ym2612"
    },
    {
      "channel": 1,
      "note": 90,
      "start": 95.0952,
      "duration": 0.1006,
      "velocity": 97,
      "chip": "ym2612"
    },
    {
      "channel": 4,
      "note": 117,
      "start": 95.0969,
      "duration": 0.0481,
      "velocity": 99,
      "chip": "ym2612"
    },
    {
      "channel": 2,
      "note": 74,
      "start": 95.0984,
      "duration": 0.0701,
      "velocity": 127,
      "chip": "ym2612"
    },
    {
      "channel": 5,
      "note": 25,
      "start": 95.1007,
      "duration": 0.0679,
      "velocity": 127,
      "chip": "ym2612"
    },
    {
      "channel": 2,
      "note": 74,
      "start": 95.1973,
      "duration": 0.0747,
      "velocity": 127,
      "chip": "ym2612"
    },
    {
      "channel": 5,
      "note": 42,
      "start": 95.1998,
      "duration": 0.1007,
      "velocity": 127,
      "chip": "ym2612"
    },
    {
      "channel": 0,
      "note": 42,
      "start": 95.3205,
      "duration": 0.3071,
      "velocity": 107,
      "chip": "ym2612"
    },
    {
      "channel": 3,
      "note": 83,
      "start": 95.3228,
      "duration": 0.1015,
      "velocity": 97,
      "chip": "ym2612"
    },
    {
      "channel": 1,
      "note": 88,
      "start": 95.3245,
      "duration": 0.0999,
      "velocity": 97,
      "chip": "ym2612"
    },
    {
      "channel": 4,
      "note": 117,
      "start": 95.3263,
      "duration": 0.0419,
      "velocity": 99,
      "chip": "ym2612"
    },
    {
      "channel": 2,
      "note": 74,
      "start": 95.3278,
      "duration": 0.0694,
      "velocity": 127,
      "chip": "ym2612"
    },
    {
      "channel": 5,
      "note": 25,
      "start": 95.3294,
      "duration": 0.0972,
      "velocity": 127,
      "chip": "ym2612"
    },
    {
      "channel": 2,
      "note": 74,
      "start": 95.4259,
      "duration": 0.0742,
      "velocity": 127,
      "chip": "ym2612"
    },
    {
      "channel": 4,
      "note": 117,
      "start": 95.5301,
      "duration": 0.0496,
      "velocity": 99,
      "chip": "ym2612"
    },
    {
      "channel": 2,
      "note": 74,
      "start": 95.5316,
      "duration": 0.0714,
      "velocity": 127,
      "chip": "ym2612"
    },
    {
      "channel": 0,
      "note": 47,
      "start": 95.6315,
      "duration": 0.3184,
      "velocity": 107,
      "chip": "ym2612"
    },
    {
      "channel": 2,
      "note": 74,
      "start": 95.6345,
      "duration": 0.0725,
      "velocity": 127,
      "chip": "ym2612"
    },
    {
      "channel": 5,
      "note": 25,
      "start": 95.6368,
      "duration": 0.0703,
      "velocity": 127,
      "chip": "ym2612"
    },
    {
      "channel": 3,
      "note": 86,
      "start": 95.7372,
      "duration": 0.1045,
      "velocity": 97,
      "chip": "ym2612"
    },
    {
      "channel": 1,
      "note": 90,
      "start": 95.7395,
      "duration": 0.1023,
      "velocity": 97,
      "chip": "ym2612"
    },
    {
      "channel": 4,
      "note": 117,
      "start": 95.7413,
      "duration": 0.05,
      "velocity": 99,
      "chip": "ym2612"
    },
    {
      "channel": 2,
      "note": 74,
      "start": 95.7428,
      "duration": 0.0718,
      "velocity": 127,
      "chip": "ym2612"
    },
    {
      "channel": 5,
      "note": 42,
      "start": 95.7451,
      "duration": 0.0978,
      "velocity": 127,
      "chip": "ym2612"
    },
    {
      "channel": 2,
      "note": 74,
      "start": 95.8612,
      "duration": 0.0735,
      "velocity": 127,
      "chip": "ym2612"
    },
    {
      "channel": 0,
      "note": 47,
      "start": 95.9653,
      "duration": 0.2055,
      "velocity": 107,
      "chip": "ym2612"
    },
    {
      "channel": 3,
      "note": 86,
      "start": 95.967,
      "duration": 0.1053,
      "velocity": 97,
      "chip": "ym2612"
    },
    {
      "channel": 1,
      "note": 90,
      "start": 95.9688,
      "duration": 0.1037,
      "velocity": 97,
      "chip": "ym2612"
    },
    {
      "channel": 4,
      "note": 117,
      "start": 95.9705,
      "duration": 0.0438,
      "velocity": 99,
      "chip": "ym2612"
    },
    {
      "channel": 2,
      "note": 74,
      "start": 95.9726,
      "duration": 0.0708,
      "velocity": 127,
      "chip": "ym2612"
    },
    {
      "channel": 4,
      "note": 117,
      "start": 96.0734,
      "duration": 0.0499,
      "velocity": 99,
      "chip": "ym2612"
    },
    {
      "channel": 2,
      "note": 74,
      "start": 96.0749,
      "duration": 0.0714,
      "velocity": 127,
      "chip": "ym2612"
    },
    {
      "channel": 5,
      "note": 25,
      "start": 96.0773,
      "duration": 0.0691,
      "velocity": 127,
      "chip": "ym2612"
    },
    {
      "channel": 0,
      "note": 42,
      "start": 96.1773,
      "duration": 0.2128,
      "velocity": 107,
      "chip": "ym2612"
    },
    {
      "channel": 3,
      "note": 83,
      "start": 96.179,
      "duration": 0.104,
      "velocity": 97,
      "chip": "ym2612"
    },
    {
      "channel": 1,
      "note": 88,
      "start": 96.1808,
      "duration": 0.1024,
      "velocity": 97,
      "chip": "ym2612"
    },
    {
      "channel": 2,
      "note": 74,
      "start": 96.183,
      "duration": 0.0726,
      "velocity": 127,
      "chip": "ym2612"
    },
    {
      "channel": 5,
      "note": 42,
      "start": 96.1855,
      "duration": 0.0954,
      "velocity": 127,
      "chip": "ym2612"
    },
    {
      "channel": 4,
      "note": 117,
      "start": 96.2842,
      "duration": 0.0502,
      "velocity": 99,
      "chip": "ym2612"
    },
    {
      "channel": 2,
      "note": 74,
      "start": 96.2857,
      "duration": 0.0721,
      "velocity": 127,
      "chip": "ym2612"
    },
    {
      "channel": 5,
      "note": 25,
      "start": 96.2887,
      "duration": 0.0693,
      "velocity": 127,
      "chip": "ym2612"
    },
    {
      "channel": 0,
      "note": 40,
      "start": 96.4051,
      "duration": 0.2009,
      "velocity": 107,
      "chip": "ym2612"
    },
    {
      "channel": 3,
      "note": 86,
      "start": 96.4065,
      "duration": 0.1004,
      "velocity": 97,
      "chip": "ym2612"
    },
    {
      "channel": 1,
      "note": 90,
      "start": 96.4083,
      "duration": 0.0988,
      "velocity": 97,
      "chip": "ym2612"
    },
    {
      "channel": 2,
      "note": 74,
      "start": 96.4105,
      "duration": 0.0674,
      "velocity": 127,
      "chip": "ym2612"
    },
    {
      "channel": 4,
      "note": 117,
      "start": 96.5081,
      "duration": 0.0494,
      "velocity": 99,
      "chip": "ym2612"
    },
    {
      "channel": 2,
      "note": 74,
      "start": 96.5095,
      "duration": 0.0713,
      "velocity": 127,
      "chip": "ym2612"
    },
    {
      "channel": 5,
      "note": 42,
      "start": 96.5111,
      "duration": 0.0699,
      "velocity": 127,
      "chip": "ym2612"
    },
    {
      "channel": 0,
      "note": 40,
      "start": 96.6129,
      "duration": 0.2118,
      "velocity": 107,
      "chip": "ym2612"
    },
    {
      "channel": 3,
      "note": 90,
      "start": 96.6146,
      "duration": 0.102,
      "velocity": 97,
      "chip": "ym2612"
    },
    {
      "channel": 1,
      "note": 92,
      "start": 96.6163,
      "duration": 0.1004,
      "velocity": 97,
      "chip": "ym2612"
    },
    {
      "channel": 4,
      "note": 117,
      "start": 96.618,
      "duration": 0.0482,
      "velocity": 99,
      "chip": "ym2612"
    },
    {
      "channel": 2,
      "note": 74,
      "start": 96.6195,
      "duration": 0.0706,
      "velocity": 127,
      "chip": "ym2612"
    },
    {
      "channel": 5,
      "note": 42,
      "start": 96.6226,
      "duration": 0.0963,
      "velocity": 127,
      "chip": "ym2612"
    },
    {
      "channel": 2,
      "note": 74,
      "start": 96.7182,
      "duration": 0.0742,
      "velocity": 127,
      "chip": "ym2612"
    },
    {
      "channel": 3,
      "note": 92,
      "start": 96.8412,
      "duration": 0.1043,
      "velocity": 97,
      "chip": "ym2612"
    },
    {
      "channel": 1,
      "note": 95,
      "start": 96.8429,
      "duration": 0.1027,
      "velocity": 97,
      "chip": "ym2612"
    },
    {
      "channel": 4,
      "note": 117,
      "start": 96.8446,
      "duration": 0.0502,
      "velocity": 99,
      "chip": "ym2612"
    },
    {
      "channel": 2,
      "note": 74,
      "start": 96.8462,
      "duration": 0.0721,
      "velocity": 127,
      "chip": "ym2612"
    },
    {
      "channel": 5,
      "note": 25,
      "start": 96.8485,
      "duration": 0.0698,
      "velocity": 127,
      "chip": "ym2612"
    },
    {
      "channel": 2,
      "note": 74,
      "start": 96.9471,
      "duration": 0.0748,
      "velocity": 127,
      "chip": "ym2612"
    },
    {
      "channel": 5,
      "note": 42,
      "start": 96.9495,
      "duration": 0.1015,
      "velocity": 127,
      "chip": "ym2612"
    },
    {
      "channel": 0,
      "note": 42,
      "start": 97.0535,
      "duration": 0.3144,
      "velocity": 107,
      "chip": "ym2612"
    },
    {
      "channel": 3,
      "note": 95,
      "start": 97.0558,
      "duration": 0.101,
      "velocity": 97,
      "chip": "ym2612"
    },
    {
      "channel": 1,
      "note": 98,
      "start": 97.0576,
      "duration": 0.0995,
      "velocity": 97,
      "chip": "ym2612"
    },
    {
      "channel": 4,
      "note": 117,
      "start": 97.0593,
      "duration": 0.0414,
      "velocity": 99,
      "chip": "ym2612"
    },
    {
      "channel": 2,
      "note": 74,
      "start": 97.0608,
      "duration": 0.069,
      "velocity": 127,
      "chip": "ym2612"
    },
    {
      "channel": 5,
      "note": 25,
      "start": 97.0624,
      "duration": 0.0968,
      "velocity": 127,
      "chip": "ym2612"
    },
    {
      "channel": 2,
      "note": 74,
      "start": 97.1585,
      "duration": 0.0742,
      "velocity": 127,
      "chip": "ym2612"
    },
    {
      "channel": 3,
      "note": 97,
      "start": 97.2633,
      "duration": 0.0994,
      "velocity": 97,
      "chip": "ym2612"
    },
    {
      "channel": 1,
      "note": 102,
      "start": 97.265,
      "duration": 0.0979,
      "velocity": 97,
      "chip": "ym2612"
    },
    {
      "channel": 4,
      "note": 117,
      "start": 97.2667,
      "duration": 0.0456,
      "velocity": 99,
      "chip": "ym2612"
    },
    {
      "channel": 2,
      "note": 74,
      "start": 97.2682,
      "duration": 0.0674,
      "velocity": 127,
      "chip": "ym2612"
    },
    {
      "channel": 0,
      "note": 45,
      "start": 97.3812,
      "duration": 0.311,
      "velocity": 107,
      "chip": "ym2612"
    },
    {
      "channel": 2,
      "note": 74,
      "start": 97.3843,
      "duration": 0.0721,
      "velocity": 127,
      "chip": "ym2612"
    },
    {
      "channel": 5,
      "note": 25,
      "start": 97.3866,
      "duration": 0.0698,
      "velocity": 127,
      "chip": "ym2612"
    },
    {
      "channel": 3,
      "note": 93,
      "start": 97.4866,
      "duration": 0.1049,
      "velocity": 97,
      "chip": "ym2612"
    },
    {
      "channel": 1,
      "note": 100,
      "start": 97.4889,
      "duration": 0.1027,
      "velocity": 97,
      "chip": "ym2612"
    },
    {
      "channel": 4,
      "note": 117,
      "start": 97.4906,
      "duration": 0.0504,
      "velocity": 99,
      "chip": "ym2612"
    },
    {
      "channel": 2,
      "note": 74,
      "start": 97.4922,
      "duration": 0.0722,
      "velocity": 127,
      "chip": "ym2612"
    },
    {
      "channel": 5,
      "note": 42,
      "start": 97.4945,
      "duration": 0.0992,
      "velocity": 127,
      "chip": "ym2612"
    },
    {
      "channel": 2,
      "note": 74,
      "start": 97.5931,
      "duration": 0.0742,
      "velocity": 127,
      "chip": "ym2612"
    },
    {
      "channel": 0,
      "note": 45,
      "start": 97.6983,
      "duration": 0.2129,
      "velocity": 107,
      "chip": "ym2612"
    },
    {
      "channel": 3,
      "note": 90,
      "start": 97.6999,
      "duration": 0.1031,
      "velocity": 97,
      "chip": "ym2612"
    },
    {
      "channel": 1,
      "note": 97,
      "start": 97.7017,
      "duration": 0.1015,
      "velocity": 97,
      "chip": "ym2612"
    },
    {
      "channel": 4,
      "note": 117,
      "start": 97.7034,
      "duration": 0.0492,
      "velocity": 99,
      "chip": "ym2612"
    },
    {
      "channel": 2,
      "note": 74,
      "start": 97.7055,
      "duration": 0.0704,
      "velocity": 127,
      "chip": "ym2612"
    },
    {
      "channel": 4,
      "note": 117,
      "start": 97.8239,
      "duration": 0.0494,
      "velocity": 99,
      "chip": "ym2612"
    },
    {
      "channel": 2,
      "note": 74,
      "start": 97.8254,
      "duration": 0.0707,
      "velocity": 127,
      "chip": "ym2612"
    },
    {
      "channel": 5,
      "note": 25,
      "start": 97.8278,
      "duration": 0.0683,
      "velocity": 127,
      "chip": "ym2612"
    },
    {
      "channel": 0,
      "note": 42,
      "start": 97.9271,
      "duration": 0.308,
      "velocity": 107,
      "chip": "ym2612"
    },
    {
      "channel": 3,
      "note": 88,
      "start": 97.9287,
      "duration": 0.1041,
      "velocity": 97,
      "chip": "ym2612"
    },
    {
      "channel": 1,
      "note": 93,
      "start": 97.9305,
      "duration": 0.1024,
      "velocity": 97,
      "chip": "ym2612"
    },
    {
      "channel": 2,
      "note": 74,
      "start": 97.9327,
      "duration": 0.0725,
      "velocity": 127,
      "chip": "ym2612"
    },
    {
      "channel": 5,
      "note": 42,
      "start": 97.9352,
      "duration": 0.0954,
      "velocity": 127,
      "chip": "ym2612"
    },
    {
      "channel": 4,
      "note": 117,
      "start": 98.0339,
      "duration": 0.0445,
      "velocity": 99,
      "chip": "ym2612"
    },
    {
      "channel": 2,
      "note": 74,
      "start": 98.0354,
      "duration": 0.0722,
      "velocity": 127,
      "chip": "ym2612"
    },
    {
      "channel": 5,
      "note": 25,
      "start": 98.0384,
      "duration": 0.0693,
      "velocity": 127,
      "chip": "ym2612"
    },
    {
      "channel": 2,
      "note": 74,
      "start": 98.137,
      "duration": 0.0735,
      "velocity": 127,
      "chip": "ym2612"
    },
    {
      "channel": 0,
      "note": 40,
      "start": 98.2408,
      "duration": 0.3165,
      "velocity": 107,
      "chip": "ym2612"
    },
    {
      "channel": 4,
      "note": 117,
      "start": 98.2432,
      "duration": 0.0468,
      "velocity": 99,
      "chip": "ym2612"
    },
    {
      "channel": 2,
      "note": 74,
      "start": 98.2448,
      "duration": 0.0691,
      "velocity": 127,
      "chip": "ym2612"
    },
    {
      "channel": 5,
      "note": 42,
      "start": 98.2463,
      "duration": 0.0676,
      "velocity": 127,
      "chip": "ym2612"
    },
    {
      "channel": 3,
      "note": 85,
      "start": 98.3627,
      "duration": 0.1037,
      "velocity": 97,
      "chip": "ym2612"
    },
    {
      "channel": 1,
      "note": 90,
      "start": 98.3644,
      "duration": 0.1021,
      "velocity": 97,
      "chip": "ym2612"
    },
    {
      "channel": 4,
      "note": 117,
      "start": 98.3661,
      "duration": 0.0441,
      "velocity": 99,
      "chip": "ym2612"
    },
    {
      "channel": 2,
      "note": 74,
      "start": 98.3676,
      "duration": 0.0723,
      "velocity": 127,
      "chip": "ym2612"
    },
    {
      "channel": 5,
      "note": 42,
      "start": 98.37,
      "duration": 0.0986,
      "velocity": 127,
      "chip": "ym2612"
    },
    {
      "channel": 2,
      "note": 74,
      "start": 98.468,
      "duration": 0.0742,
      "velocity": 127,
      "chip": "ym2612"
    },
    {
      "channel": 0,
      "note": 40,
      "start": 98.5741,
      "duration": 0.2118,
      "velocity": 107,
      "chip": "ym2612"
    },
    {
      "channel": 3,
      "note": 85,
      "start": 98.5758,
      "duration": 0.1025,
      "velocity": 97,
      "chip": "ym2612"
    },
    {
      "channel": 1,
      "note": 90,
      "start": 98.5775,
      "duration": 0.1009,
      "velocity": 97,
      "chip": "ym2612"
    },
    {
      "channel": 4,
      "note": 117,
      "start": 98.5793,
      "duration": 0.0482,
      "velocity": 99,
      "chip": "ym2612"
    },
    {
      "channel": 2,
      "note": 74,
      "start": 98.5808,
      "duration": 0.07,
      "velocity": 127,
      "chip": "ym2612"
    },
    {
      "channel": 5,
      "note": 25,
      "start": 98.5831,
      "duration": 0.0678,
      "velocity": 127,
      "chip": "ym2612"
    },
    {
      "channel": 2,
      "note": 74,
      "start": 98.6799,
      "duration": 0.0739,
      "velocity": 127,
      "chip": "ym2612"
    },
    {
      "channel": 5,
      "note": 42,
      "start": 98.6824,
      "duration": 0.1005,
      "velocity": 127,
      "chip": "ym2612"
    },
    {
      "channel": 0,
      "note": 42,
      "start": 98.8031,
      "duration": 0.3068,
      "velocity": 107,
      "chip": "ym2612"
    },
    {
      "channel": 3,
      "note": 81,
      "start": 98.8054,
      "duration": 0.1012,
      "velocity": 97,
      "chip": "ym2612"
    },
    {
      "channel": 1,
      "note": 88,
      "start": 98.8072,
      "duration": 0.0996,
      "velocity": 97,
      "chip": "ym2612"
    },
    {
      "channel": 4,
      "note": 117,
      "start": 98.8089,
      "duration": 0.0415,
      "velocity": 99,
      "chip": "ym2612"
    },
    {
      "channel": 2,
      "note": 74,
      "start": 98.8104,
      "duration": 0.0691,
      "velocity": 127,
      "chip": "ym2612"
    },
    {
      "channel": 5,
      "note": 25,
      "start": 98.812,
      "duration": 0.0969,
      "velocity": 127,
      "chip": "ym2612"
    },
    {
      "channel": 2,
      "note": 74,
      "start": 98.9083,
      "duration": 0.0742,
      "velocity": 127,
      "chip": "ym2612"
    },
    {
      "channel": 3,
      "note": 93,
      "start": 99.013,
      "duration": 0.1015,
      "velocity": 97,
      "chip": "ym2612"
    },
    {
      "channel": 1,
      "note": 90,
      "start": 99.0148,
      "duration": 0.0998,
      "velocity": 97,
      "chip": "ym2612"
    },
    {
      "channel": 4,
      "note": 117,
      "start": 99.0165,
      "duration": 0.0455,
      "velocity": 99,
      "chip": "ym2612"
    },
    {
      "channel": 2,
      "note": 74,
      "start": 99.018,
      "duration": 0.0674,
      "velocity": 127,
      "chip": "ym2612"
    },
    {
      "channel": 0,
      "note": 45,
      "start": 99.1138,
      "duration": 0.3184,
      "velocity": 107,
      "chip": "ym2612"
    },
    {
      "channel": 2,
      "note": 74,
      "start": 99.1161,
      "duration": 0.0729,
      "velocity": 127,
      "chip": "ym2612"
    },
    {
      "channel": 5,
      "note": 25,
      "start": 99.1184,
      "duration": 0.0707,
      "velocity": 127,
      "chip": "ym2612"
    },
    {
      "channel": 3,
      "note": 90,
      "start": 99.2191,
      "duration": 0.1049,
      "velocity": 97,
      "chip": "ym2612"
    },
    {
      "channel": 1,
      "note": 88,
      "start": 99.2209,
      "duration": 0.1034,
      "velocity": 97,
      "chip": "ym2612"
    },
    {
      "channel": 4,
      "note": 117,
      "start": 99.2232,
      "duration": 0.0447,
      "velocity": 99,
      "chip": "ym2612"
    },
    {
      "channel": 2,
      "note": 74,
      "start": 99.2247,
      "duration": 0.0722,
      "velocity": 127,
      "chip": "ym2612"
    },
    {
      "channel": 5,
      "note": 42,
      "start": 99.2271,
      "duration": 0.0983,
      "velocity": 127,
      "chip": "ym2612"
    },
    {
      "channel": 2,
      "note": 74,
      "start": 99.3435,
      "duration": 0.0735,
      "velocity": 127,
      "chip": "ym2612"
    },
    {
      "channel": 0,
      "note": 45,
      "start": 99.4482,
      "duration": 0.2049,
      "velocity": 107,
      "chip": "ym2612"
    },
    {
      "channel": 3,
      "note": 88,
      "start": 99.4499,
      "duration": 0.1041,
      "velocity": 97,
      "chip": "ym2612"
    },
    {
      "channel": 1,
      "note": 85,
      "start": 99.4516,
      "duration": 0.1025,
      "velocity": 97,
      "chip": "ym2612"
    },
    {
      "channel": 4,
      "note": 117,
      "start": 99.4534,
      "duration": 0.0433,
      "velocity": 99,
      "chip": "ym2612"
    },
    {
      "channel": 2,
      "note": 74,
      "start": 99.4555,
      "duration": 0.0702,
      "velocity": 127,
      "chip": "ym2612"
    },
    {
      "channel": 4,
      "note": 117,
      "start": 99.5558,
      "duration": 0.0438,
      "velocity": 99,
      "chip": "ym2612"
    },
    {
      "channel": 2,
      "note": 74,
      "start": 99.5572,
      "duration": 0.0714,
      "velocity": 127,
      "chip": "ym2612"
    },
    {
      "channel": 5,
      "note": 25,
      "start": 99.5597,
      "duration": 0.069,
      "velocity": 127,
      "chip": "ym2612"
    },
    {
      "channel": 0,
      "note": 42,
      "start": 99.6596,
      "duration": 0.2129,
      "velocity": 107,
      "chip": "ym2612"
    },
    {
      "channel": 3,
      "note": 85,
      "start": 99.6612,
      "duration": 0.1042,
      "velocity": 97,
      "chip": "ym2612"
    },
    {
      "channel": 1,
      "note": 81,
      "start": 99.663,
      "duration": 0.1026,
      "velocity": 97,
      "chip": "ym2612"
    },
    {
      "channel": 2,
      "note": 74,
      "start": 99.6653,
      "duration": 0.072,
      "velocity": 127,
      "chip": "ym2612"
    },
    {
      "channel": 5,
      "note": 42,
      "start": 99.6677,
      "duration": 0.0956,
      "velocity": 127,
      "chip": "ym2612"
    },
    {
      "channel": 4,
      "note": 117,
      "start": 99.7666,
      "duration": 0.0502,
      "velocity": 99,
      "chip": "ym2612"
    },
    {
      "channel": 2,
      "note": 74,
      "start": 99.768,
      "duration": 0.0725,
      "velocity": 127,
      "chip": "ym2612"
    },
    {
      "channel": 5,
      "note": 25,
      "start": 99.7704,
      "duration": 0.0703,
      "velocity": 127,
      "chip": "ym2612"
    },
    {
      "channel": 0,
      "note": 40,
      "start": 99.8852,
      "duration": 0.2036,
      "velocity": 107,
      "chip": "ym2612"
    },
    {
      "channel": 2,
      "note": 74,
      "start": 99.8888,
      "duration": 0.0715,
      "velocity": 127,
      "chip": "ym2612"
    },
    {
      "channel": 4,
      "note": 117,
      "start": 99.9911,
      "duration": 0.049,
      "velocity": 99,
      "chip": "ym2612"
    },
    {
      "channel": 2,
      "note": 74,
      "start": 99.9926,
      "duration": 0.0706,
      "velocity": 127,
      "chip": "ym2612"
    },
    {
      "channel": 5,
      "note": 42,
      "start": 99.9942,
      "duration": 0.0691,
      "velocity": 127,
      "chip": "ym2612"
    },
    {
      "channel": 0,
      "note": 40,
      "start": 100.0941,
      "duration": 0.213,
      "velocity": 107,
      "chip": "ym2612"
    },
    {
      "channel": 4,
      "note": 117,
      "start": 100.0967,
      "duration": 0.0521,
      "velocity": 99,
      "chip": "ym2612"
    },
    {
      "channel": 2,
      "note": 74,
      "start": 100.0983,
      "duration": 0.0745,
      "velocity": 127,
      "chip": "ym2612"
    },
    {
      "channel": 5,
      "note": 42,
      "start": 100.1007,
      "duration": 0.1016,
      "velocity": 127,
      "chip": "ym2612"
    },
    {
      "channel": 2,
      "note": 74,
      "start": 100.2016,
      "duration": 0.0735,
      "velocity": 127,
      "chip": "ym2612"
    },
    {
      "channel": 4,
      "note": 117,
      "start": 100.3231,
      "duration": 0.0494,
      "velocity": 99,
      "chip": "ym2612"
    },
    {
      "channel": 2,
      "note": 74,
      "start": 100.3246,
      "duration": 0.0706,
      "velocity": 127,
      "chip": "ym2612"
    },
    {
      "channel": 5,
      "note": 25,
      "start": 100.327,
      "duration": 0.0684,
      "velocity": 127,
      "chip": "ym2612"
    },
    {
      "channel": 2,
      "note": 74,
      "start": 100.4255,
      "duration": 0.0724,
      "velocity": 127,
      "chip": "ym2612"
    },
    {
      "channel": 5,
      "note": 42,
      "start": 100.428,
      "duration": 0.1004,
      "velocity": 127,
      "chip": "ym2612"
    },
    {
      "channel": 0,
      "note": 42,
      "start": 100.5309,
      "duration": 0.3194,
      "velocity": 107,
      "chip": "ym2612"
    },
    {
      "channel": 3,
      "note": 81,
      "start": 100.5336,
      "duration": 0.1055,
      "velocity": 123,
      "chip": "ym2612"
    },
    {
      "channel": 1,
      "note": 78,
      "start": 100.5364,
      "duration": 0.1029,
      "velocity": 123,
      "chip": "ym2612"
    },
    {
      "channel": 2,
      "note": 74,
      "start": 100.5392,
      "duration": 0.0728,
      "velocity": 127,
      "chip": "ym2612"
    },
    {
      "channel": 5,
      "note": 25,
      "start": 100.5408,
      "duration": 0.1007,
      "velocity": 127,
      "chip": "ym2612"
    },
    {
      "channel": 2,
      "note": 74,
      "start": 100.6408,
      "duration": 0.0742,
      "velocity": 127,
      "chip": "ym2612"
    },
    {
      "channel": 3,
      "note": 83,
      "start": 100.7446,
      "duration": 0.1004,
      "velocity": 123,
      "chip": "ym2612"
    },
    {
      "channel": 1,
      "note": 88,
      "start": 100.7463,
      "duration": 0.0989,
      "velocity": 123,
      "chip": "ym2612"
    },
    {
      "channel": 2,
      "note": 74,
      "start": 100.7485,
      "duration": 0.0694,
      "velocity": 127,
      "chip": "ym2612"
    },
    {
      "channel": 0,
      "note": 45,
      "start": 100.8635,
      "duration": 0.3049,
      "velocity": 107,
      "chip": "ym2612"
    },
    {
      "channel": 2,
      "note": 74,
      "start": 100.8665,
      "duration": 0.0721,
      "velocity": 127,
      "chip": "ym2612"
    },
    {
      "channel": 5,
      "note": 25,
      "start": 100.8689,
      "duration": 0.0699,
      "velocity": 127,
      "chip": "ym2612"
    },
    {
      "channel": 3,
      "note": 85,
      "start": 100.9679,
      "duration": 0.1002,
      "velocity": 123,
      "chip": "ym2612"
    },
    {
      "channel": 1,
      "note": 90,
      "start": 100.9696,
      "duration": 0.0987,
      "velocity": 123,
      "chip": "ym2612"
    },
    {
      "channel": 2,
      "note": 74,
      "start": 100.9724,
      "duration": 0.0686,
      "velocity": 127,
      "chip": "ym2612"
    },
    {
      "channel": 5,
      "note": 42,
      "start": 100.9747,
      "duration": 0.0956,
      "velocity": 127,
      "chip": "ym2612"
    },
    {
      "channel": 2,
      "note": 74,
      "start": 101.0697,
      "duration": 0.0742,
      "velocity": 127,
      "chip": "ym2612"
    },
    {
      "channel": 0,
      "note": 45,
      "start": 101.1741,
      "duration": 0.2079,
      "velocity": 107,
      "chip": "ym2612"
    },
    {
      "channel": 3,
      "note": 88,
      "start": 101.1758,
      "duration": 0.0298,
      "velocity": 123,
      "chip": "ym2612"
    },
    {
      "channel": 1,
      "note": 93,
      "start": 101.1775,
      "duration": 0.0284,
      "velocity": 123,
      "chip": "ym2612"
    },
    {
      "channel": 2,
      "note": 74,
      "start": 101.1797,
      "duration": 0.0678,
      "velocity": 127,
      "chip": "ym2612"
    },
    {
      "channel": 3,
      "note": 85,
      "start": 101.2411,
      "duration": 0.0328,
      "velocity": 123,
      "chip": "ym2612"
    },
    {
      "channel": 1,
      "note": 90,
      "start": 101.2429,
      "duration": 0.0312,
      "velocity": 123,
      "chip": "ym2612"
    },
    {
      "channel": 2,
      "note": 74,
      "start": 101.2941,
      "duration": 0.0727,
      "velocity": 127,
      "chip": "ym2612"
    },
    {
      "channel": 5,
      "note": 25,
      "start": 101.2966,
      "duration": 0.0704,
      "velocity": 127,
      "chip": "ym2612"
    },
    {
      "channel": 3,
      "note": 88,
      "start": 101.327,
      "duration": 0.0327,
      "velocity": 123,
      "chip": "ym2612"
    },
    {
      "channel": 1,
      "note": 93,
      "start": 101.3287,
      "duration": 0.0312,
      "velocity": 123,
      "chip": "ym2612"
    },
    {
      "channel": 0,
      "note": 42,
      "start": 101.398,
      "duration": 0.3085,
      "velocity": 107,
      "chip": "ym2612"
    },
    {
      "channel": 3,
      "note": 85,
      "start": 101.3997,
      "duration": 0.103,
      "velocity": 123,
      "chip": "ym2612"
    },
    {
      "channel": 1,
      "note": 90,
      "start": 101.4014,
      "duration": 0.1015,
      "velocity": 123,
      "chip": "ym2612"
    },
    {
      "channel": 2,
      "note": 74,
      "start": 101.4036,
      "duration": 0.072,
      "velocity": 127,
      "chip": "ym2612"
    },
    {
      "channel": 5,
      "note": 42,
      "start": 101.4067,
      "duration": 0.0938,
      "velocity": 127,
      "chip": "ym2612"
    },
    {
      "channel": 2,
      "note": 74,
      "start": 101.5049,
      "duration": 0.0735,
      "velocity": 127,
      "chip": "ym2612"
    },
    {
      "channel": 5,
      "note": 25,
      "start": 101.5074,
      "duration": 0.0712,
      "velocity": 127,
      "chip": "ym2612"
    },
    {
      "channel": 3,
      "note": 83,
      "start": 101.6081,
      "duration": 0.103,
      "velocity": 123,
      "chip": "ym2612"
    },
    {
      "channel": 1,
      "note": 88,
      "start": 101.6098,
      "duration": 0.1015,
      "velocity": 123,
      "chip": "ym2612"
    },
    {
      "channel": 2,
      "note": 74,
      "start": 101.612,
      "duration": 0.0694,
      "velocity": 127,
      "chip": "ym2612"
    },
    {
      "channel": 0,
      "note": 40,
      "start": 101.7105,
      "duration": 0.3178,
      "velocity": 107,
      "chip": "ym2612"
    },
    {
      "channel": 2,
      "note": 74,
      "start": 101.7128,
      "duration": 0.0715,
      "velocity": 127,
      "chip": "ym2612"
    },
    {
      "channel": 5,
      "note": 42,
      "start": 101.7144,
      "duration": 0.0701,
      "velocity": 127,
      "chip": "ym2612"
    },
    {
      "channel": 3,
      "note": 80,
      "start": 101.8314,
      "duration": 0.1058,
      "velocity": 123,
      "chip": "ym2612"
    },
    {
      "channel": 1,
      "note": 85,
      "start": 101.8331,
      "duration": 0.1043,
      "velocity": 123,
      "chip": "ym2612"
    },
    {
      "channel": 2,
      "note": 74,
      "start": 101.8352,
      "duration": 0.0749,
      "velocity": 127,
      "chip": "ym2612"
    },
    {
      "channel": 5,
      "note": 42,
      "start": 101.8383,
      "duration": 0.1018,
      "velocity": 127,
      "chip": "ym2612"
    },
    {
      "channel": 2,
      "note": 74,
      "start": 101.9395,
      "duration": 0.0735,
      "velocity": 127,
      "chip": "ym2612"
    },
    {
      "channel": 0,
      "note": 40,
      "start": 102.044,
      "duration": 0.2129,
      "velocity": 107,
      "chip": "ym2612"
    },
    {
      "channel": 3,
      "note": 78,
      "start": 102.0457,
      "duration": 0.1032,
      "velocity": 123,
      "chip": "ym2612"
    },
    {
      "channel": 1,
      "note": 83,
      "start": 102.0474,
      "duration": 0.1017,
      "velocity": 123,
      "chip": "ym2612"
    },
    {
      "channel": 2,
      "note": 74,
      "start": 102.0495,
      "duration": 0.0728,
      "velocity": 127,
      "chip": "ym2612"
    },
    {
      "channel": 5,
      "note": 25,
      "start": 102.052,
      "duration": 0.0705,
      "velocity": 127,
      "chip": "ym2612"
    },
    {
      "channel": 2,
      "note": 74,
      "start": 102.1505,
      "duration": 0.0741,
      "velocity": 127,
      "chip": "ym2612"
    },
    {
      "channel": 5,
      "note": 42,
      "start": 102.153,
      "duration": 0.1007,
      "velocity": 127,
      "chip": "ym2612"
    },
    {
      "channel": 0,
      "note": 42,
      "start": 102.2733,
      "duration": 0.3074,
      "velocity": 107,
      "chip": "ym2612"
    },
    {
      "channel": 3,
      "note": 76,
      "start": 102.2751,
      "duration": 0.1025,
      "velocity": 123,
      "chip": "ym2612"
    },
    {
      "channel": 1,
      "note": 81,
      "start": 102.2767,
      "duration": 0.101,
      "velocity": 123,
      "chip": "ym2612"
    },
    {
      "channel": 2,
      "note": 74,
      "start": 102.2789,
      "duration": 0.0715,
      "velocity": 127,
      "chip": "ym2612"
    },
    {
      "channel": 5,
      "note": 25,
      "start": 102.2805,
      "duration": 0.0994,
      "velocity": 127,
      "chip": "ym2612"
    },
    {
      "channel": 2,
      "note": 74,
      "start": 102.3791,
      "duration": 0.0742,
      "velocity": 127,
      "chip": "ym2612"
    },
    {
      "channel": 3,
      "note": 78,
      "start": 102.4823,
      "duration": 0.1031,
      "velocity": 123,
      "chip": "ym2612"
    },
    {
      "channel": 1,
      "note": 83,
      "start": 102.484,
      "duration": 0.1015,
      "velocity": 123,
      "chip": "ym2612"
    },
    {
      "channel": 2,
      "note": 74,
      "start": 102.4862,
      "duration": 0.0707,
      "velocity": 127,
      "chip": "ym2612"
    },
    {
      "channel": 0,
      "note": 45,
      "start": 102.5847,
      "duration": 0.3127,
      "velocity": 107,
      "chip": "ym2612"
    },
    {
      "channel": 2,
      "note": 74,
      "start": 102.587,
      "duration": 0.0721,
      "velocity": 127,
      "chip": "ym2612"
    },
    {
      "channel": 5,
      "note": 25,
      "start": 102.59,
      "duration": 0.0693,
      "velocity": 127,
      "chip": "ym2612"
    },
    {
      "channel": 3,
      "note": 80,
      "start": 102.6897,
      "duration": 0.0995,
      "velocity": 123,
      "chip": "ym2612"
    },
    {
      "channel": 1,
      "note": 85,
      "start": 102.6914,
      "duration": 0.098,
      "velocity": 123,
      "chip": "ym2612"
    },
    {
      "channel": 2,
      "note": 74,
      "start": 102.6936,
      "duration": 0.0685,
      "velocity": 127,
      "chip": "ym2612"
    },
    {
      "channel": 5,
      "note": 42,
      "start": 102.6959,
      "duration": 0.0946,
      "velocity": 127,
      "chip": "ym2612"
    },
    {
      "channel": 2,
      "note": 74,
      "start": 102.8087,
      "duration": 0.0735,
      "velocity": 127,
      "chip": "ym2612"
    },
    {
      "channel": 0,
      "note": 45,
      "start": 102.9124,
      "duration": 0.2002,
      "velocity": 107,
      "chip": "ym2612"
    },
    {
      "channel": 3,
      "note": 83,
      "start": 102.9141,
      "duration": 0.0244,
      "velocity": 123,
      "chip": "ym2612"
    },
    {
      "channel": 1,
      "note": 88,
      "start": 102.9158,
      "duration": 0.023,
      "velocity": 123,
      "chip": "ym2612"
    },
    {
      "channel": 2,
      "note": 74,
      "start": 102.9179,
      "duration": 0.0674,
      "velocity": 127,
      "chip": "ym2612"
    },
    {
      "channel": 3,
      "note": 80,
      "start": 102.979,
      "duration": 0.0333,
      "velocity": 123,
      "chip": "ym2612"
    },
    {
      "channel": 1,
      "note": 85,
      "start": 102.9807,
      "duration": 0.0318,
      "velocity": 123,
      "chip": "ym2612"
    },
    {
      "channel": 2,
      "note": 74,
      "start": 103.014,
      "duration": 0.0747,
      "velocity": 127,
      "chip": "ym2612"
    },
    {
      "channel": 5,
      "note": 25,
      "start": 103.0165,
      "duration": 0.0724,
      "velocity": 127,
      "chip": "ym2612"
    },
    {
      "channel": 3,
      "note": 83,
      "start": 103.0474,
      "duration": 0.0334,
      "velocity": 123,
      "chip": "ym2612"
    },
    {
      "channel": 1,
      "note": 88,
      "start": 103.0492,
      "duration": 0.0319,
      "velocity": 123,
      "chip": "ym2612"
    },
    {
      "channel": 0,
      "note": 42,
      "start": 103.1185,
      "duration": 0.2134,
      "velocity": 107,
      "chip": "ym2612"
    },
    {
      "channel": 3,
      "note": 80,
      "start": 103.1202,
      "duration": 0.1043,
      "velocity": 123,
      "chip": "ym2612"
    },
    {
      "channel": 1,
      "note": 85,
      "start": 103.1225,
      "duration": 0.1022,
      "velocity": 123,
      "chip": "ym2612"
    },
    {
      "channel": 2,
      "note": 74,
      "start": 103.1247,
      "duration": 0.072,
      "velocity": 127,
      "chip": "ym2612"
    },
    {
      "channel": 5,
      "note": 42,
      "start": 103.1271,
      "duration": 0.0952,
      "velocity": 127,
      "chip": "ym2612"
    },
    {
      "channel": 2,
      "note": 74,
      "start": 103.2261,
      "duration": 0.0735,
      "velocity": 127,
      "chip": "ym2612"
    },
    {
      "channel": 5,
      "note": 25,
      "start": 103.2285,
      "duration": 0.0713,
      "velocity": 127,
      "chip": "ym2612"
    },
    {
      "channel": 0,
      "note": 40,
      "start": 103.3468,
      "duration": 0.2003,
      "velocity": 107,
      "chip": "ym2612"
    },
    {
      "channel": 3,
      "note": 78,
      "start": 103.3483,
      "duration": 0.0987,
      "velocity": 123,
      "chip": "ym2612"
    },
    {
      "channel": 1,
      "note": 83,
      "start": 103.35,
      "duration": 0.0971,
      "velocity": 123,
      "chip": "ym2612"
    },
    {
      "channel": 2,
      "note": 74,
      "start": 103.3522,
      "duration": 0.0676,
      "velocity": 127,
      "chip": "ym2612"
    },
    {
      "channel": 2,
      "note": 74,
      "start": 103.4485,
      "duration": 0.0747,
      "velocity": 127,
      "chip": "ym2612"
    },
    {
      "channel": 5,
      "note": 42,
      "start": 103.4501,
      "duration": 0.0733,
      "velocity": 127,
      "chip": "ym2612"
    },
    {
      "channel": 0,
      "note": 40,
      "start": 103.553,
      "duration": 0.2136,
      "velocity": 107,
      "chip": "ym2612"
    },
    {
      "channel": 3,
      "note": 76,
      "start": 103.5553,
      "duration": 0.1031,
      "velocity": 123,
      "chip": "ym2612"
    },
    {
      "channel": 1,
      "note": 81,
      "start": 103.557,
      "duration": 0.1015,
      "velocity": 123,
      "chip": "ym2612"
    },
    {
      "channel": 2,
      "note": 74,
      "start": 103.5591,
      "duration": 0.0722,
      "velocity": 127,
      "chip": "ym2612"
    },
    {
      "channel": 5,
      "note": 42,
      "start": 103.5616,
      "duration": 0.099,
      "velocity": 127,
      "chip": "ym2612"
    },
    {
      "channel": 2,
      "note": 74,
      "start": 103.66,
      "duration": 0.0742,
      "velocity": 127,
      "chip": "ym2612"
    },
    {
      "channel": 3,
      "note": 73,
      "start": 103.7813,
      "duration": 0.1059,
      "velocity": 123,
      "chip": "ym2612"
    },
    {
      "channel": 1,
      "note": 78,
      "start": 103.7831,
      "duration": 0.1043,
      "velocity": 123,
      "chip": "ym2612"
    },
    {
      "channel": 2,
      "note": 74,
      "start": 103.7852,
      "duration": 0.0747,
      "velocity": 127,
      "chip": "ym2612"
    },
    {
      "channel": 5,
      "note": 25,
      "start": 103.7878,
      "duration": 0.0723,
      "velocity": 127,
      "chip": "ym2612"
    },
    {
      "channel": 2,
      "note": 74,
      "start": 103.8895,
      "duration": 0.0734,
      "velocity": 127,
      "chip": "ym2612"
    },
    {
      "channel": 5,
      "note": 42,
      "start": 103.892,
      "duration": 0.1008,
      "velocity": 127,
      "chip": "ym2612"
    },
    {
      "channel": 0,
      "note": 42,
      "start": 103.9954,
      "duration": 0.3144,
      "velocity": 107,
      "chip": "ym2612"
    },
    {
      "channel": 3,
      "note": 71,
      "start": 103.998,
      "duration": 0.1006,
      "velocity": 96,
      "chip": "ym2612"
    },
    {
      "channel": 1,
      "note": 76,
      "start": 104.0007,
      "duration": 0.0981,
      "velocity": 96,
      "chip": "ym2612"
    },
    {
      "channel": 2,
      "note": 74,
      "start": 104.003,
      "duration": 0.0693,
      "velocity": 127,
      "chip": "ym2612"
    },
    {
      "channel": 5,
      "note": 25,
      "start": 104.0052,
      "duration": 0.0957,
      "velocity": 127,
      "chip": "ym2612"
    },
    {
      "channel": 2,
      "note": 74,
      "start": 104.1003,
      "duration": 0.0742,
      "velocity": 127,
      "chip": "ym2612"
    },
    {
      "channel": 3,
      "note": 83,
      "start": 104.2035,
      "duration": 0.1017,
      "velocity": 96,
      "chip": "ym2612"
    },
    {
      "channel": 1,
      "note": 88,
      "start": 104.2056,
      "duration": 0.0997,
      "velocity": 96,
      "chip": "ym2612"
    },
    {
      "channel": 2,
      "note": 74,
      "start": 104.2076,
      "duration": 0.0698,
      "velocity": 127,
      "chip": "ym2612"
    },
    {
      "channel": 0,
      "note": 45,
      "start": 104.3237,
      "duration": 0.31,
      "velocity": 107,
      "chip": "ym2612"
    },
    {
      "channel": 2,
      "note": 74,
      "start": 104.3266,
      "duration": 0.0709,
      "velocity": 127,
      "chip": "ym2612"
    },
    {
      "channel": 5,
      "note": 25,
      "start": 104.329,
      "duration": 0.0686,
      "velocity": 127,
      "chip": "ym2612"
    },
    {
      "channel": 3,
      "note": 83,
      "start": 104.4282,
      "duration": 0.105,
      "velocity": 96,
      "chip": "ym2612"
    },
    {
      "channel": 1,
      "note": 88,
      "start": 104.43,
      "duration": 0.1034,
      "velocity": 96,
      "chip": "ym2612"
    },
    {
      "channel": 2,
      "note": 74,
      "start": 104.4321,
      "duration": 0.0747,
      "velocity": 127,
      "chip": "ym2612"
    },
    {
      "channel": 5,
      "note": 42,
      "start": 104.4345,
      "duration": 0.1011,
      "velocity": 127,
      "chip": "ym2612"
    },
    {
      "channel": 2,
      "note": 74,
      "start": 104.5349,
      "duration": 0.0742,
      "velocity": 127,
      "chip": "ym2612"
    },
    {
      "channel": 0,
      "note": 45,
      "start": 104.6367,
      "duration": 0.2106,
      "velocity": 107,
      "chip": "ym2612"
    },
    {
      "channel": 2,
      "note": 74,
      "start": 104.6405,
      "duration": 0.0715,
      "velocity": 127,
      "chip": "ym2612"
    },
    {
      "channel": 2,
      "note": 74,
      "start": 104.7593,
      "duration": 0.0728,
      "velocity": 127,
      "chip": "ym2612"
    },
    {
      "channel": 5,
      "note": 25,
      "start": 104.7618,
      "duration": 0.0704,
      "velocity": 127,
      "chip": "ym2612"
    },
    {
      "channel": 0,
      "note": 42,
      "start": 104.8635,
      "duration": 0.3083,
      "velocity": 107,
      "chip": "ym2612"
    },
    {
      "channel": 3,
      "note": 85,
      "start": 104.8652,
      "duration": 0.1027,
      "velocity": 96,
      "chip": "ym2612"
    },
    {
      "channel": 1,
      "note": 90,
      "start": 104.8668,
      "duration": 0.1013,
      "velocity": 96,
      "chip": "ym2612"
    },
    {
      "channel": 2,
      "note": 74,
      "start": 104.8691,
      "duration": 0.0717,
      "velocity": 127,
      "chip": "ym2612"
    },
    {
      "channel": 5,
      "note": 42,
      "start": 104.8721,
      "duration": 0.0936,
      "velocity": 127,
      "chip": "ym2612"
    },
    {
      "channel": 2,
      "note": 74,
      "start": 104.9696,
      "duration": 0.0741,
      "velocity": 127,
      "chip": "ym2612"
    },
    {
      "channel": 5,
      "note": 25,
      "start": 104.9726,
      "duration": 0.0712,
      "velocity": 127,
      "chip": "ym2612"
    },
    {
      "channel": 3,
      "note": 83,
      "start": 105.0733,
      "duration": 0.1031,
      "velocity": 96,
      "chip": "ym2612"
    },
    {
      "channel": 1,
      "note": 88,
      "start": 105.0748,
      "duration": 0.1017,
      "velocity": 96,
      "chip": "ym2612"
    },
    {
      "channel": 2,
      "note": 74,
      "start": 105.0768,
      "duration": 0.0699,
      "velocity": 127,
      "chip": "ym2612"
    },
    {
      "channel": 0,
      "note": 40,
      "start": 105.1757,
      "duration": 0.3177,
      "velocity": 107,
      "chip": "ym2612"
    },
    {
      "channel": 2,
      "note": 74,
      "start": 105.178,
      "duration": 0.0716,
      "velocity": 127,
      "chip": "ym2612"
    },
    {
      "channel": 5,
      "note": 42,
      "start": 105.1796,
      "duration": 0.0701,
      "velocity": 127,
      "chip": "ym2612"
    },
    {
      "channel": 3,
      "note": 83,
      "start": 105.2974,
      "duration": 0.105,
      "velocity": 96,
      "chip": "ym2612"
    },
    {
      "channel": 1,
      "note": 88,
      "start": 105.2992,
      "duration": 0.1034,
      "velocity": 96,
      "chip": "ym2612"
    },
    {
      "channel": 2,
      "note": 74,
      "start": 105.3013,
      "duration": 0.074,
      "velocity": 127,
      "chip": "ym2612"
    },
    {
      "channel": 5,
      "note": 42,
      "start": 105.3038,
      "duration": 0.1015,
      "velocity": 127,
      "chip": "ym2612"
    },
    {
      "channel": 2,
      "note": 74,
      "start": 105.4041,
      "duration": 0.0742,
      "velocity": 127,
      "chip": "ym2612"
    },
    {
      "channel": 0,
      "note": 40,
      "start": 105.5074,
      "duration": 0.209,
      "velocity": 107,
      "chip": "ym2612"
    },
    {
      "channel": 2,
      "note": 74,
      "start": 105.5105,
      "duration": 0.0706,
      "velocity": 127,
      "chip": "ym2612"
    },
    {
      "channel": 5,
      "note": 25,
      "start": 105.5129,
      "duration": 0.0684,
      "velocity": 127,
      "chip": "ym2612"
    },
    {
      "channel": 2,
      "note": 74,
      "start": 105.6114,
      "duration": 0.0727,
      "velocity": 127,
      "chip": "ym2612"
    },
    {
      "channel": 5,
      "note": 42,
      "start": 105.6139,
      "duration": 0.0994,
      "velocity": 127,
      "chip": "ym2612"
    },
    {
      "channel": 0,
      "note": 42,
      "start": 105.7325,
      "duration": 0.3085,
      "velocity": 107,
      "chip": "ym2612"
    },
    {
      "channel": 3,
      "note": 85,
      "start": 105.7341,
      "duration": 0.1029,
      "velocity": 96,
      "chip": "ym2612"
    },
    {
      "channel": 1,
      "note": 90,
      "start": 105.7359,
      "duration": 0.1013,
      "velocity": 96,
      "chip": "ym2612"
    },
    {
      "channel": 2,
      "note": 74,
      "start": 105.7387,
      "duration": 0.0712,
      "velocity": 127,
      "chip": "ym2612"
    },
    {
      "channel": 5,
      "note": 25,
      "start": 105.7402,
      "duration": 0.0997,
      "velocity": 127,
      "chip": "ym2612"
    },
    {
      "channel": 2,
      "note": 74,
      "start": 105.8393,
      "duration": 0.0735,
      "velocity": 127,
      "chip": "ym2612"
    },
    {
      "channel": 3,
      "note": 83,
      "start": 105.9425,
      "duration": 0.1031,
      "velocity": 96,
      "chip": "ym2612"
    },
    {
      "channel": 1,
      "note": 88,
      "start": 105.9442,
      "duration": 0.1015,
      "velocity": 96,
      "chip": "ym2612"
    },
    {
      "channel": 2,
      "note": 74,
      "start": 105.9463,
      "duration": 0.0694,
      "velocity": 127,
      "chip": "ym2612"
    },
    {
      "channel": 0,
      "note": 45,
      "start": 106.0448,
      "duration": 0.3178,
      "velocity": 107,
      "chip": "ym2612"
    },
    {
      "channel": 2,
      "note": 74,
      "start": 106.0471,
      "duration": 0.0716,
      "velocity": 127,
      "chip": "ym2612"
    },
    {
      "channel": 5,
      "note": 25,
      "start": 106.0495,
      "duration": 0.0693,
      "velocity": 127,
      "chip": "ym2612"
    },
    {
      "channel": 3,
      "note": 85,
      "start": 106.1485,
      "duration": 0.1065,
      "velocity": 96,
      "chip": "ym2612"
    },
    {
      "channel": 1,
      "note": 90,
      "start": 106.1502,
      "duration": 0.1049,
      "velocity": 96,
      "chip": "ym2612"
    },
    {
      "channel": 2,
      "note": 74,
      "start": 106.1524,
      "duration": 0.0749,
      "velocity": 127,
      "chip": "ym2612"
    },
    {
      "channel": 5,
      "note": 42,
      "start": 106.1554,
      "duration": 0.101,
      "velocity": 127,
      "chip": "ym2612"
    },
    {
      "channel": 2,
      "note": 74,
      "start": 106.2745,
      "duration": 0.0728,
      "velocity": 127,
      "chip": "ym2612"
    },
    {
      "channel": 0,
      "note": 45,
      "start": 106.3775,
      "duration": 0.2002,
      "velocity": 107,
      "chip": "ym2612"
    },
    {
      "channel": 3,
      "note": 83,
      "start": 106.3792,
      "duration": 0.099,
      "velocity": 96,
      "chip": "ym2612"
    },
    {
      "channel": 1,
      "note": 88,
      "start": 106.3809,
      "duration": 0.0974,
      "velocity": 96,
      "chip": "ym2612"
    },
    {
      "channel": 2,
      "note": 74,
      "start": 106.3831,
      "duration": 0.0672,
      "velocity": 127,
      "chip": "ym2612"
    },
    {
      "channel": 2,
      "note": 74,
      "start": 106.4798,
      "duration": 0.0735,
      "velocity": 127,
      "chip": "ym2612"
    },
    {
      "channel": 5,
      "note": 25,
      "start": 106.4822,
      "duration": 0.0711,
      "velocity": 127,
      "chip": "ym2612"
    },
    {
      "channel": 0,
      "note": 42,
      "start": 106.5836,
      "duration": 0.2135,
      "velocity": 107,
      "chip": "ym2612"
    },
    {
      "channel": 3,
      "note": 85,
      "start": 106.5853,
      "duration": 0.1045,
      "velocity": 96,
      "chip": "ym2612"
    },
    {
      "channel": 1,
      "note": 90,
      "start": 106.5869,
      "duration": 0.103,
      "velocity": 96,
      "chip": "ym2612"
    },
    {
      "channel": 2,
      "note": 74,
      "start": 106.5898,
      "duration": 0.0721,
      "velocity": 127,
      "chip": "ym2612"
    },
    {
      "channel": 5,
      "note": 42,
      "start": 106.5922,
      "duration": 0.0947,
      "velocity": 127,
      "chip": "ym2612"
    },
    {
      "channel": 2,
      "note": 74,
      "start": 106.6914,
      "duration": 0.0735,
      "velocity": 127,
      "chip": "ym2612"
    },
    {
      "channel": 5,
      "note": 25,
      "start": 106.6937,
      "duration": 0.0712,
      "velocity": 127,
      "chip": "ym2612"
    },
    {
      "channel": 0,
      "note": 40,
      "start": 106.8105,
      "duration": 0.2018,
      "velocity": 107,
      "chip": "ym2612"
    },
    {
      "channel": 2,
      "note": 74,
      "start": 106.8135,
      "duration": 0.0714,
      "velocity": 127,
      "chip": "ym2612"
    },
    {
      "channel": 2,
      "note": 74,
      "start": 106.9145,
      "duration": 0.074,
      "velocity": 127,
      "chip": "ym2612"
    },
    {
      "channel": 5,
      "note": 42,
      "start": 106.9161,
      "duration": 0.0725,
      "velocity": 127,
      "chip": "ym2612"
    },
    {
      "channel": 0,
      "note": 40,
      "start": 107.0163,
      "duration": 0.2097,
      "velocity": 107,
      "chip": "ym2612"
    },
    {
      "channel": 2,
      "note": 74,
      "start": 107.0195,
      "duration": 0.0713,
      "velocity": 127,
      "chip": "ym2612"
    },
    {
      "channel": 5,
      "note": 42,
      "start": 107.0226,
      "duration": 0.0983,
      "velocity": 127,
      "chip": "ym2612"
    },
    {
      "channel": 2,
      "note": 74,
      "start": 107.1202,
      "duration": 0.0735,
      "velocity": 127,
      "chip": "ym2612"
    },
    {
      "channel": 2,
      "note": 74,
      "start": 107.2411,
      "duration": 0.0727,
      "velocity": 127,
      "chip": "ym2612"
    },
    {
      "channel": 5,
      "note": 25,
      "start": 107.2435,
      "duration": 0.0704,
      "velocity": 127,
      "chip": "ym2612"
    },
    {
      "channel": 2,
      "note": 74,
      "start": 107.3439,
      "duration": 0.0728,
      "velocity": 127,
      "chip": "ym2612"
    },
    {
      "channel": 5,
      "note": 42,
      "start": 107.3464,
      "duration": 0.0999,
      "velocity": 127,
      "chip": "ym2612"
    },
    {
      "channel": 0,
      "note": 42,
      "start": 107.4488,
      "duration": 0.3147,
      "velocity": 107,
      "chip": "ym2612"
    },
    {
      "channel": 3,
      "note": 88,
      "start": 107.4516,
      "duration": 0.1008,
      "velocity": 123,
      "chip": "ym2612"
    },
    {
      "channel": 1,
      "note": 93,
      "start": 107.4546,
      "duration": 0.098,
      "velocity": 123,
      "chip": "ym2612"
    },
    {
      "channel": 2,
      "note": 74,
      "start": 107.4571,
      "duration": 0.0682,
      "velocity": 127,
      "chip": "ym2612"
    },
    {
      "channel": 5,
      "note": 25,
      "start": 107.4587,
      "duration": 0.0966,
      "velocity": 127,
      "chip": "ym2612"
    },
    {
      "channel": 2,
      "note": 74,
      "start": 107.5541,
      "duration": 0.0742,
      "velocity": 127,
      "chip": "ym2612"
    },
    {
      "channel": 3,
      "note": 83,
      "start": 107.6579,
      "duration": 0.1004,
      "velocity": 123,
      "chip": "ym2612"
    },
    {
      "channel": 1,
      "note": 88,
      "start": 107.6596,
      "duration": 0.0988,
      "velocity": 123,
      "chip": "ym2612"
    },
    {
      "channel": 2,
      "note": 74,
      "start": 107.6617,
      "duration": 0.0694,
      "velocity": 127,
      "chip": "ym2612"
    },
    {
      "channel": 0,
      "note": 45,
      "start": 107.7773,
      "duration": 0.3043,
      "velocity": 107,
      "chip": "ym2612"
    },
    {
      "channel": 2,
      "note": 74,
      "start": 107.7803,
      "duration": 0.0709,
      "velocity": 127,
      "chip": "ym2612"
    },
    {
      "channel": 5,
      "note": 25,
      "start": 107.7827,
      "duration": 0.0687,
      "velocity": 127,
      "chip": "ym2612"
    },
    {
      "channel": 3,
      "note": 85,
      "start": 107.8811,
      "duration": 0.1002,
      "velocity": 123,
      "chip": "ym2612"
    },
    {
      "channel": 1,
      "note": 90,
      "start": 107.8828,
      "duration": 0.0987,
      "velocity": 123,
      "chip": "ym2612"
    },
    {
      "channel": 2,
      "note": 74,
      "start": 107.885,
      "duration": 0.0692,
      "velocity": 127,
      "chip": "ym2612"
    },
    {
      "channel": 5,
      "note": 42,
      "start": 107.8873,
      "duration": 0.0963,
      "velocity": 127,
      "chip": "ym2612"
    },
    {
      "channel": 2,
      "note": 74,
      "start": 107.9829,
      "duration": 0.0742,
      "velocity": 127,
      "chip": "ym2612"
    },
    {
      "channel": 0,
      "note": 45,
      "start": 108.0867,
      "duration": 0.2086,
      "velocity": 107,
      "chip": "ym2612"
    },
    {
      "channel": 3,
      "note": 88,
      "start": 108.089,
      "duration": 0.0295,
      "velocity": 123,
      "chip": "ym2612"
    },
    {
      "channel": 1,
      "note": 93,
      "start": 108.0907,
      "duration": 0.028,
      "velocity": 123,
      "chip": "ym2612"
    },
    {
      "channel": 2,
      "note": 74,
      "start": 108.0929,
      "duration": 0.0678,
      "velocity": 127,
      "chip": "ym2612"
    },
    {
      "channel": 3,
      "note": 85,
      "start": 108.1537,
      "duration": 0.0334,
      "velocity": 123,
      "chip": "ym2612"
    },
    {
      "channel": 1,
      "note": 90,
      "start": 108.1561,
      "duration": 0.0312,
      "velocity": 123,
      "chip": "ym2612"
    },
    {
      "channel": 2,
      "note": 74,
      "start": 108.2074,
      "duration": 0.0728,
      "velocity": 127,
      "chip": "ym2612"
    },
    {
      "channel": 5,
      "note": 25,
      "start": 108.2098,
      "duration": 0.0704,
      "velocity": 127,
      "chip": "ym2612"
    },
    {
      "channel": 3,
      "note": 88,
      "start": 108.2401,
      "duration": 0.0328,
      "velocity": 123,
      "chip": "ym2612"
    },
    {
      "channel": 1,
      "note": 93,
      "start": 108.2418,
      "duration": 0.0312,
      "velocity": 123,
      "chip": "ym2612"
    },
    {
      "channel": 0,
      "note": 42,
      "start": 108.3112,
      "duration": 0.3079,
      "velocity": 107,
      "chip": "ym2612"
    },
    {
      "channel": 3,
      "note": 85,
      "start": 108.313,
      "duration": 0.103,
      "velocity": 123,
      "chip": "ym2612"
    },
    {
      "channel": 1,
      "note": 90,
      "start": 108.3146,
      "duration": 0.1015,
      "velocity": 123,
      "chip": "ym2612"
    },
    {
      "channel": 2,
      "note": 74,
      "start": 108.3168,
      "duration": 0.0725,
      "velocity": 127,
      "chip": "ym2612"
    },
    {
      "channel": 5,
      "note": 42,
      "start": 108.3193,
      "duration": 0.0945,
      "velocity": 127,
      "chip": "ym2612"
    },
    {
      "channel": 2,
      "note": 74,
      "start": 108.4176,
      "duration": 0.0741,
      "velocity": 127,
      "chip": "ym2612"
    },
    {
      "channel": 5,
      "note": 25,
      "start": 108.42,
      "duration": 0.0719,
      "velocity": 127,
      "chip": "ym2612"
    },
    {
      "channel": 3,
      "note": 83,
      "start": 108.5207,
      "duration": 0.1038,
      "velocity": 123,
      "chip": "ym2612"
    },
    {
      "channel": 1,
      "note": 88,
      "start": 108.523,
      "duration": 0.1015,
      "velocity": 123,
      "chip": "ym2612"
    },
    {
      "channel": 2,
      "note": 74,
      "start": 108.5252,
      "duration": 0.0695,
      "velocity": 127,
      "chip": "ym2612"
    },
    {
      "channel": 0,
      "note": 40,
      "start": 108.6237,
      "duration": 0.3177,
      "velocity": 107,
      "chip": "ym2612"
    },
    {
      "channel": 2,
      "note": 74,
      "start": 108.626,
      "duration": 0.0715,
      "velocity": 127,
      "chip": "ym2612"
    },
    {
      "channel": 5,
      "note": 42,
      "start": 108.6276,
      "duration": 0.0701,
      "velocity": 127,
      "chip": "ym2612"
    },
    {
      "channel": 3,
      "note": 80,
      "start": 108.7453,
      "duration": 0.1051,
      "velocity": 123,
      "chip": "ym2612"
    },
    {
      "channel": 1,
      "note": 85,
      "start": 108.7469,
      "duration": 0.1037,
      "velocity": 123,
      "chip": "ym2612"
    },
    {
      "channel": 2,
      "note": 74,
      "start": 108.7491,
      "duration": 0.0747,
      "velocity": 127,
      "chip": "ym2612"
    },
    {
      "channel": 5,
      "note": 42,
      "start": 108.7516,
      "duration": 0.1012,
      "velocity": 127,
      "chip": "ym2612"
    },
    {
      "channel": 2,
      "note": 74,
      "start": 108.8521,
      "duration": 0.0742,
      "velocity": 127,
      "chip": "ym2612"
    },
    {
      "channel": 0,
      "note": 40,
      "start": 108.9573,
      "duration": 0.2129,
      "velocity": 107,
      "chip": "ym2612"
    },
    {
      "channel": 3,
      "note": 78,
      "start": 108.959,
      "duration": 0.1032,
      "velocity": 123,
      "chip": "ym2612"
    },
    {
      "channel": 1,
      "note": 83,
      "start": 108.9607,
      "duration": 0.1016,
      "velocity": 123,
      "chip": "ym2612"
    },
    {
      "channel": 2,
      "note": 74,
      "start": 108.9628,
      "duration": 0.0721,
      "velocity": 127,
      "chip": "ym2612"
    },
    {
      "channel": 5,
      "note": 25,
      "start": 108.9652,
      "duration": 0.0698,
      "velocity": 127,
      "chip": "ym2612"
    },
    {
      "channel": 2,
      "note": 74,
      "start": 109.0637,
      "duration": 0.0748,
      "velocity": 127,
      "chip": "ym2612"
    },
    {
      "channel": 5,
      "note": 42,
      "start": 109.0662,
      "duration": 0.1007,
      "velocity": 127,
      "chip": "ym2612"
    },
    {
      "channel": 0,
      "note": 42,
      "start": 109.186,
      "duration": 0.308,
      "velocity": 107,
      "chip": "ym2612"
    },
    {
      "channel": 3,
      "note": 76,
      "start": 109.1883,
      "duration": 0.1025,
      "velocity": 123,
      "chip": "ym2612"
    },
    {
      "channel": 1,
      "note": 81,
      "start": 109.19,
      "duration": 0.1009,
      "velocity": 123,
      "chip": "ym2612"
    },
    {
      "channel": 2,
      "note": 74,
      "start": 109.1922,
      "duration": 0.0715,
      "velocity": 127,
      "chip": "ym2612"
    },
    {
      "channel": 5,
      "note": 25,
      "start": 109.1937,
      "duration": 0.0993,
      "velocity": 127,
      "chip": "ym2612"
    },
    {
      "channel": 2,
      "note": 74,
      "start": 109.2924,
      "duration": 0.0741,
      "velocity": 127,
      "chip": "ym2612"
    },
    {
      "channel": 3,
      "note": 78,
      "start": 109.3962,
      "duration": 0.1024,
      "velocity": 123,
      "chip": "ym2612"
    },
    {
      "channel": 1,
      "note": 83,
      "start": 109.3979,
      "duration": 0.1008,
      "velocity": 123,
      "chip": "ym2612"
    },
    {
      "channel": 2,
      "note": 74,
      "start": 109.4,
      "duration": 0.0694,
      "velocity": 127,
      "chip": "ym2612"
    },
    {
      "channel": 0,
      "note": 45,
      "start": 109.4979,
      "duration": 0.3127,
      "velocity": 107,
      "chip": "ym2612"
    },
    {
      "channel": 2,
      "note": 74,
      "start": 109.5002,
      "duration": 0.0728,
      "velocity": 127,
      "chip": "ym2612"
    },
    {
      "channel": 5,
      "note": 25,
      "start": 109.5025,
      "duration": 0.0707,
      "velocity": 127,
      "chip": "ym2612"
    },
    {
      "channel": 3,
      "note": 80,
      "start": 109.6023,
      "duration": 0.1002,
      "velocity": 123,
      "chip": "ym2612"
    },
    {
      "channel": 1,
      "note": 85,
      "start": 109.604,
      "duration": 0.0986,
      "velocity": 123,
      "chip": "ym2612"
    },
    {
      "channel": 2,
      "note": 74,
      "start": 109.6068,
      "duration": 0.0686,
      "velocity": 127,
      "chip": "ym2612"
    },
    {
      "channel": 5,
      "note": 42,
      "start": 109.6091,
      "duration": 0.0946,
      "velocity": 127,
      "chip": "ym2612"
    },
    {
      "channel": 2,
      "note": 74,
      "start": 109.7225,
      "duration": 0.0729,
      "velocity": 127,
      "chip": "ym2612"
    },
    {
      "channel": 0,
      "note": 45,
      "start": 109.8257,
      "duration": 0.2001,
      "velocity": 107,
      "chip": "ym2612"
    },
    {
      "channel": 3,
      "note": 83,
      "start": 109.8273,
      "duration": 0.0238,
      "velocity": 123,
      "chip": "ym2612"
    },
    {
      "channel": 1,
      "note": 88,
      "start": 109.829,
      "duration": 0.0222,
      "velocity": 123,
      "chip": "ym2612"
    },
    {
      "channel": 2,
      "note": 74,
      "start": 109.8312,
      "duration": 0.0677,
      "velocity": 127,
      "chip": "ym2612"
    },
    {
      "channel": 3,
      "note": 80,
      "start": 109.8927,
      "duration": 0.0335,
      "velocity": 123,
      "chip": "ym2612"
    },
    {
      "channel": 1,
      "note": 85,
      "start": 109.8944,
      "duration": 0.032,
      "velocity": 123,
      "chip": "ym2612"
    },
    {
      "channel": 2,
      "note": 74,
      "start": 109.9278,
      "duration": 0.0735,
      "velocity": 127,
      "chip": "ym2612"
    },
    {
      "channel": 5,
      "note": 25,
      "start": 109.9303,
      "duration": 0.0711,
      "velocity": 127,
      "chip": "ym2612"
    },
    {
      "channel": 3,
      "note": 83,
      "start": 109.9613,
      "duration": 0.0327,
      "velocity": 123,
      "chip": "ym2612"
    },
    {
      "channel": 1,
      "note": 88,
      "start": 109.963,
      "duration": 0.0312,
      "velocity": 123,
      "chip": "ym2612"
    },
    {
      "channel": 0,
      "note": 42,
      "start": 110.0317,
      "duration": 0.2134,
      "velocity": 107,
      "chip": "ym2612"
    },
    {
      "channel": 3,
      "note": 80,
      "start": 110.0334,
      "duration": 0.1038,
      "velocity": 123,
      "chip": "ym2612"
    },
    {
      "channel": 1,
      "note": 85,
      "start": 110.0351,
      "duration": 0.1022,
      "velocity": 123,
      "chip": "ym2612"
    },
    {
      "channel": 2,
      "note": 74,
      "start": 110.0373,
      "duration": 0.0727,
      "velocity": 127,
      "chip": "ym2612"
    },
    {
      "channel": 5,
      "note": 42,
      "start": 110.0404,
      "duration": 0.0945,
      "velocity": 127,
      "chip": "ym2612"
    },
    {
      "channel": 2,
      "note": 74,
      "start": 110.1394,
      "duration": 0.0735,
      "velocity": 127,
      "chip": "ym2612"
    },
    {
      "channel": 5,
      "note": 25,
      "start": 110.1417,
      "duration": 0.0712,
      "velocity": 127,
      "chip": "ym2612"
    },
    {
      "channel": 0,
      "note": 40,
      "start": 110.26,
      "duration": 0.2003,
      "velocity": 107,
      "chip": "ym2612"
    },
    {
      "channel": 3,
      "note": 78,
      "start": 110.2615,
      "duration": 0.0993,
      "velocity": 123,
      "chip": "ym2612"
    },
    {
      "channel": 1,
      "note": 83,
      "start": 110.2632,
      "duration": 0.0977,
      "velocity": 123,
      "chip": "ym2612"
    },
    {
      "channel": 2,
      "note": 74,
      "start": 110.2654,
      "duration": 0.0675,
      "velocity": 127,
      "chip": "ym2612"
    },
    {
      "channel": 2,
      "note": 74,
      "start": 110.3624,
      "duration": 0.0734,
      "velocity": 127,
      "chip": "ym2612"
    },
    {
      "channel": 5,
      "note": 42,
      "start": 110.364,
      "duration": 0.072,
      "velocity": 127,
      "chip": "ym2612"
    },
    {
      "channel": 0,
      "note": 40,
      "start": 110.4662,
      "duration": 0.2135,
      "velocity": 107,
      "chip": "ym2612"
    },
    {
      "channel": 3,
      "note": 76,
      "start": 110.4679,
      "duration": 0.1044,
      "velocity": 123,
      "chip": "ym2612"
    },
    {
      "channel": 1,
      "note": 81,
      "start": 110.4696,
      "duration": 0.1028,
      "velocity": 123,
      "chip": "ym2612"
    },
    {
      "channel": 2,
      "note": 74,
      "start": 110.4724,
      "duration": 0.0721,
      "velocity": 127,
      "chip": "ym2612"
    },
    {
      "channel": 5,
      "note": 42,
      "start": 110.4749,
      "duration": 0.0997,
      "velocity": 127,
      "chip": "ym2612"
    },
    {
      "channel": 2,
      "note": 74,
      "start": 110.5738,
      "duration": 0.0735,
      "velocity": 127,
      "chip": "ym2612"
    },
    {
      "channel": 3,
      "note": 73,
      "start": 110.6952,
      "duration": 0.1053,
      "velocity": 123,
      "chip": "ym2612"
    },
    {
      "channel": 1,
      "note": 78,
      "start": 110.6969,
      "duration": 0.1037,
      "velocity": 123,
      "chip": "ym2612"
    },
    {
      "channel": 2,
      "note": 74,
      "start": 110.6991,
      "duration": 0.0747,
      "velocity": 127,
      "chip": "ym2612"
    },
    {
      "channel": 5,
      "note": 25,
      "start": 110.7015,
      "duration": 0.0724,
      "velocity": 127,
      "chip": "ym2612"
    },
    {
      "channel": 2,
      "note": 74,
      "start": 110.8021,
      "duration": 0.074,
      "velocity": 127,
      "chip": "ym2612"
    },
    {
      "channel": 5,
      "note": 42,
      "start": 110.8052,
      "duration": 0.0998,
      "velocity": 127,
      "chip": "ym2612"
    },
    {
      "channel": 0,
      "note": 42,
      "start": 110.9076,
      "duration": 0.3155,
      "velocity": 107,
      "chip": "ym2612"
    },
    {
      "channel": 4,
      "note": 117,
      "start": 110.9102,
      "duration": 0.4229,
      "velocity": 99,
      "chip": "ym2612"
    },
    {
      "channel": 2,
      "note": 74,
      "start": 110.912,
      "duration": 0.0728,
      "velocity": 127,
      "chip": "ym2612"
    },
    {
      "channel": 5,
      "note": 25,
      "start": 110.9136,
      "duration": 0.1013,
      "velocity": 127,
      "chip": "ym2612"
    },
    {
      "channel": 2,
      "note": 74,
      "start": 111.0142,
      "duration": 0.0742,
      "velocity": 127,
      "chip": "ym2612"
    },
    {
      "channel": 2,
      "note": 74,
      "start": 111.1171,
      "duration": 0.0735,
      "velocity": 127,
      "chip": "ym2612"
    },
    {
      "channel": 0,
      "note": 45,
      "start": 111.2362,
      "duration": 0.3056,
      "velocity": 107,
      "chip": "ym2612"
    },
    {
      "channel": 2,
      "note": 74,
      "start": 111.2398,
      "duration": 0.0709,
      "velocity": 127,
      "chip": "ym2612"
    },
    {
      "channel": 5,
      "note": 25,
      "start": 111.2422,
      "duration": 0.0687,
      "velocity": 127,
      "chip": "ym2612"
    },
    {
      "channel": 2,
      "note": 74,
      "start": 111.3408,
      "duration": 0.0729,
      "velocity": 127,
      "chip": "ym2612"
    },
    {
      "channel": 5,
      "note": 42,
      "start": 111.3431,
      "duration": 0.1006,
      "velocity": 127,
      "chip": "ym2612"
    },
    {
      "channel": 2,
      "note": 74,
      "start": 111.4431,
      "duration": 0.0735,
      "velocity": 127,
      "chip": "ym2612"
    },
    {
      "channel": 0,
      "note": 45,
      "start": 111.5458,
      "duration": 0.2094,
      "velocity": 107,
      "chip": "ym2612"
    },
    {
      "channel": 4,
      "note": 105,
      "start": 111.5485,
      "duration": 0.0992,
      "velocity": 99,
      "chip": "ym2612"
    },
    {
      "channel": 2,
      "note": 74,
      "start": 111.5501,
      "duration": 0.0694,
      "velocity": 127,
      "chip": "ym2612"
    },
    {
      "channel": 2,
      "note": 74,
      "start": 111.6662,
      "duration": 0.074,
      "velocity": 127,
      "chip": "ym2612"
    },
    {
      "channel": 5,
      "note": 25,
      "start": 111.6687,
      "duration": 0.0717,
      "velocity": 127,
      "chip": "ym2612"
    },
    {
      "channel": 0,
      "note": 42,
      "start": 111.7693,
      "duration": 0.3094,
      "velocity": 107,
      "chip": "ym2612"
    },
    {
      "channel": 4,
      "note": 100,
      "start": 111.7726,
      "duration": 0.424,
      "velocity": 99,
      "chip": "ym2612"
    },
    {
      "channel": 2,
      "note": 74,
      "start": 111.7743,
      "duration": 0.0739,
      "velocity": 127,
      "chip": "ym2612"
    },
    {
      "channel": 5,
      "note": 42,
      "start": 111.7768,
      "duration": 0.0971,
      "velocity": 127,
      "chip": "ym2612"
    },
    {
      "channel": 2,
      "note": 74,
      "start": 111.8784,
      "duration": 0.0728,
      "velocity": 127,
      "chip": "ym2612"
    },
    {
      "channel": 5,
      "note": 25,
      "start": 111.8807,
      "duration": 0.0706,
      "velocity": 127,
      "chip": "ym2612"
    },
    {
      "channel": 2,
      "note": 74,
      "start": 111.9806,
      "duration": 0.0735,
      "velocity": 127,
      "chip": "ym2612"
    },
    {
      "channel": 0,
      "note": 40,
      "start": 112.0826,
      "duration": 0.3127,
      "velocity": 107,
      "chip": "ym2612"
    },
    {
      "channel": 2,
      "note": 74,
      "start": 112.0856,
      "duration": 0.0716,
      "velocity": 127,
      "chip": "ym2612"
    },
    {
      "channel": 5,
      "note": 42,
      "start": 112.0871,
      "duration": 0.0702,
      "velocity": 127,
      "chip": "ym2612"
    },
    {
      "channel": 2,
      "note": 74,
      "start": 112.2036,
      "duration": 0.0735,
      "velocity": 127,
      "chip": "ym2612"
    },
    {
      "channel": 5,
      "note": 42,
      "start": 112.2067,
      "duration": 0.1011,
      "velocity": 127,
      "chip": "ym2612"
    },
    {
      "channel": 2,
      "note": 74,
      "start": 112.3071,
      "duration": 0.0729,
      "velocity": 127,
      "chip": "ym2612"
    },
    {
      "channel": 0,
      "note": 40,
      "start": 112.4101,
      "duration": 0.2061,
      "velocity": 107,
      "chip": "ym2612"
    },
    {
      "channel": 4,
      "note": 105,
      "start": 112.4128,
      "duration": 0.1041,
      "velocity": 99,
      "chip": "ym2612"
    },
    {
      "channel": 2,
      "note": 74,
      "start": 112.4145,
      "duration": 0.0748,
      "velocity": 127,
      "chip": "ym2612"
    },
    {
      "channel": 5,
      "note": 25,
      "start": 112.4168,
      "duration": 0.0726,
      "velocity": 127,
      "chip": "ym2612"
    },
    {
      "channel": 2,
      "note": 74,
      "start": 112.5179,
      "duration": 0.0737,
      "velocity": 127,
      "chip": "ym2612"
    },
    {
      "channel": 5,
      "note": 42,
      "start": 112.5203,
      "duration": 0.1001,
      "velocity": 127,
      "chip": "ym2612"
    },
    {
      "channel": 0,
      "note": 42,
      "start": 112.6235,
      "duration": 0.3151,
      "velocity": 107,
      "chip": "ym2612"
    },
    {
      "channel": 3,
      "note": 71,
      "start": 112.6261,
      "duration": 0.1012,
      "velocity": 96,
      "chip": "ym2612"
    },
    {
      "channel": 4,
      "note": 100,
      "start": 112.6284,
      "duration": 0.0996,
      "velocity": 99,
      "chip": "ym2612"
    },
    {
      "channel": 2,
      "note": 74,
      "start": 112.6301,
      "duration": 0.0701,
      "velocity": 127,
      "chip": "ym2612"
    },
    {
      "channel": 5,
      "note": 25,
      "start": 112.6317,
      "duration": 0.097,
      "velocity": 127,
      "chip": "ym2612"
    },
    {
      "channel": 2,
      "note": 74,
      "start": 112.7468,
      "duration": 0.0735,
      "velocity": 127,
      "chip": "ym2612"
    },
    {
      "channel": 3,
      "note": 81,
      "start": 112.8493,
      "duration": 0.103,
      "velocity": 96,
      "chip": "ym2612"
    },
    {
      "channel": 4,
      "note": 105,
      "start": 112.8515,
      "duration": 0.1015,
      "velocity": 99,
      "chip": "ym2612"
    },
    {
      "channel": 2,
      "note": 74,
      "start": 112.8532,
      "duration": 0.0706,
      "velocity": 127,
      "chip": "ym2612"
    },
    {
      "channel": 0,
      "note": 45,
      "start": 112.9517,
      "duration": 0.3184,
      "velocity": 107,
      "chip": "ym2612"
    },
    {
      "channel": 2,
      "note": 74,
      "start": 112.954,
      "duration": 0.0722,
      "velocity": 127,
      "chip": "ym2612"
    },
    {
      "channel": 5,
      "note": 25,
      "start": 112.957,
      "duration": 0.0693,
      "velocity": 127,
      "chip": "ym2612"
    },
    {
      "channel": 3,
      "note": 76,
      "start": 113.0567,
      "duration": 0.1052,
      "velocity": 96,
      "chip": "ym2612"
    },
    {
      "channel": 4,
      "note": 100,
      "start": 113.0589,
      "duration": 0.1037,
      "velocity": 99,
      "chip": "ym2612"
    },
    {
      "channel": 2,
      "note": 74,
      "start": 113.0606,
      "duration": 0.0742,
      "velocity": 127,
      "chip": "ym2612"
    },
    {
      "channel": 5,
      "note": 42,
      "start": 113.063,
      "duration": 0.1002,
      "velocity": 127,
      "chip": "ym2612"
    },
    {
      "channel": 2,
      "note": 74,
      "start": 113.1814,
      "duration": 0.0741,
      "velocity": 127,
      "chip": "ym2612"
    },
    {
      "channel": 0,
      "note": 45,
      "start": 113.2844,
      "duration": 0.2008,
      "velocity": 107,
      "chip": "ym2612"
    },
    {
      "channel": 3,
      "note": 81,
      "start": 113.2861,
      "duration": 0.099,
      "velocity": 96,
      "chip": "ym2612"
    },
    {
      "channel": 4,
      "note": 105,
      "start": 113.2888,
      "duration": 0.0968,
      "velocity": 99,
      "chip": "ym2612"
    },
    {
      "channel": 2,
      "note": 74,
      "start": 113.2906,
      "duration": 0.0672,
      "velocity": 127,
      "chip": "ym2612"
    },
    {
      "channel": 2,
      "note": 74,
      "start": 113.3866,
      "duration": 0.0741,
      "velocity": 127,
      "chip": "ym2612"
    },
    {
      "channel": 5,
      "note": 25,
      "start": 113.3898,
      "duration": 0.0712,
      "velocity": 127,
      "chip": "ym2612"
    },
    {
      "channel": 0,
      "note": 42,
      "start": 113.4918,
      "duration": 0.2133,
      "velocity": 107,
      "chip": "ym2612"
    },
    {
      "channel": 3,
      "note": 85,
      "start": 113.4936,
      "duration": 0.8402,
      "velocity": 96,
      "chip": "ym2612"
    },
    {
      "channel": 4,
      "note": 109,
      "start": 113.4957,
      "duration": 0.6336,
      "velocity": 99,
      "chip": "ym2612"
    },
    {
      "channel": 2,
      "note": 74,
      "start": 113.4974,
      "duration": 0.072,
      "velocity": 127,
      "chip": "ym2612"
    },
    {
      "channel": 5,
      "note": 42,
      "start": 113.4999,
      "duration": 0.0945,
      "velocity": 127,
      "chip": "ym2612"
    },
    {
      "channel": 2,
      "note": 74,
      "start": 113.5989,
      "duration": 0.074,
      "velocity": 127,
      "chip": "ym2612"
    },
    {
      "channel": 5,
      "note": 25,
      "start": 113.6012,
      "duration": 0.0718,
      "velocity": 127,
      "chip": "ym2612"
    },
    {
      "channel": 0,
      "note": 40,
      "start": 113.717,
      "duration": 0.2028,
      "velocity": 107,
      "chip": "ym2612"
    },
    {
      "channel": 2,
      "note": 74,
      "start": 113.72,
      "duration": 0.0724,
      "velocity": 127,
      "chip": "ym2612"
    },
    {
      "channel": 2,
      "note": 74,
      "start": 113.8224,
      "duration": 0.0729,
      "velocity": 127,
      "chip": "ym2612"
    },
    {
      "channel": 0,
      "note": 40,
      "start": 113.9249,
      "duration": 0.2087,
      "velocity": 107,
      "chip": "ym2612"
    },
    {
      "channel": 2,
      "note": 74,
      "start": 113.9292,
      "duration": 0.0691,
      "velocity": 127,
      "chip": "ym2612"
    },
    {
      "channel": 5,
      "note": 42,
      "start": 113.9319,
      "duration": 0.0924,
      "velocity": 127,
      "chip": "ym2612"
    },
    {
      "channel": 2,
      "note": 42,
      "start": 114.0299,
      "duration": 0.0713,
      "velocity": 127,
      "chip": "ym2612"
    },
    {
      "channel": 5,
      "note": 25,
      "start": 114.0326,
      "duration": 0.0688,
      "velocity": 127,
      "chip": "ym2612"
    },
    {
      "channel": 2,
      "note": 74,
      "start": 114.1488,
      "duration": 0.0732,
      "velocity": 127,
      "chip": "ym2612"
    },
    {
      "channel": 5,
      "note": 42,
      "start": 114.1503,
      "duration": 0.0718,
      "velocity": 127,
      "chip": "ym2612"
    },
    {
      "channel": 2,
      "note": 74,
      "start": 114.2509,
      "duration": 0.0733,
      "velocity": 127,
      "chip": "ym2612"
    }
  ]
}