{
  "track_name": "10 - Aloha 'Oe",
  "duration_sec": 115.505,
  "sample_rate": 44100,
  "note_count": 875,
  "unique_pitches": 38,
  "pitch_range": 48,
  "avg_note_duration": 0.6561,
  "reconstruction_stats": {
    "notes_reconstructed": 875,
    "keyon_events": 875,
    "keyoff_events": 875,
    "orphan_keyons": 0,
    "unique_pitches": 38,
    "pitch_range": 48,
    "avg_duration_sec": 0.6561
  },
  "metadata": {
    "source": "W\\Waialae no Kiseki\\10 - Aloha 'Oe.vgz"
  },
  "notes": [
    {
      "channel": 0,
      "note": 46,
      "start": 0.0,
      "duration": 0.7756,
      "velocity": 104,
      "chip": "ym2612"
    },
    {
      "channel": 1,
      "note": 43,
      "start": 0.0045,
      "duration": 0.7723,
      "velocity": 104,
      "chip": "ym2612"
    },
    {
      "channel": 0,
      "note": 46,
      "start": 0.7762,
      "duration": 0.7794,
      "velocity": 104,
      "chip": "ym2612"
    },
    {
      "channel": 1,
      "note": 43,
      "start": 0.7772,
      "duration": 0.7791,
      "velocity": 104,
      "chip": "ym2612"
    },
    {
      "channel": 0,
      "note": 55,
      "start": 1.5559,
      "duration": 0.7894,
      "velocity": 104,
      "chip": "ym2612"
    },
    {
      "channel": 1,
      "note": 51,
      "start": 1.5567,
      "duration": 0.7895,
      "velocity": 104,
      "chip": "ym2612"
    },
    {
      "channel": 2,
      "note": 63,
      "start": 1.5611,
      "duration": 1.5644,
      "velocity": 95,
      "chip": "ym2612"
    },
    {
      "channel": 3,
      "note": 51,
      "start": 1.5663,
      "duration": 0.0665,
      "velocity": 127,
      "chip": "ym2612"
    },
    {
      "channel": 4,
      "note": 87,
      "start": 1.5708,
      "duration": 0.777,
      "velocity": 92,
      "chip": "ym2612"
    },
    {
      "channel": 5,
      "note": 82,
      "start": 1.5751,
      "duration": 0.7734,
      "velocity": 92,
      "chip": "ym2612"
    },
    {
      "channel": 0,
      "note": 54,
      "start": 2.3457,
      "duration": 1.5597,
      "velocity": 104,
      "chip": "ym2612"
    },
    {
      "channel": 1,
      "note": 50,
      "start": 2.3464,
      "duration": 1.5598,
      "velocity": 104,
      "chip": "ym2612"
    },
    {
      "channel": 3,
      "note": 51,
      "start": 2.3473,
      "duration": 0.0271,
      "velocity": 127,
      "chip": "ym2612"
    },
    {
      "channel": 4,
      "note": 87,
      "start": 2.3481,
      "duration": 0.5183,
      "velocity": 92,
      "chip": "ym2612"
    },
    {
      "channel": 5,
      "note": 82,
      "start": 2.3489,
      "duration": 0.7793,
      "velocity": 92,
      "chip": "ym2612"
    },
    {
      "channel": 3,
      "note": 51,
      "start": 2.866,
      "duration": 0.0285,
      "velocity": 127,
      "chip": "ym2612"
    },
    {
      "channel": 4,
      "note": 79,
      "start": 2.8668,
      "duration": 0.1242,
      "velocity": 92,
      "chip": "ym2612"
    },
    {
      "channel": 4,
      "note": 82,
      "start": 2.9914,
      "duration": 0.136,
      "velocity": 92,
      "chip": "ym2612"
    },
    {
      "channel": 2,
      "note": 63,
      "start": 3.1261,
      "duration": 1.561,
      "velocity": 95,
      "chip": "ym2612"
    },
    {
      "channel": 3,
      "note": 51,
      "start": 3.127,
      "duration": 0.0662,
      "velocity": 127,
      "chip": "ym2612"
    },
    {
      "channel": 4,
      "note": 87,
      "start": 3.1278,
      "duration": 0.7801,
      "velocity": 92,
      "chip": "ym2612"
    },
    {
      "channel": 5,
      "note": 82,
      "start": 3.1285,
      "duration": 0.7801,
      "velocity": 92,
      "chip": "ym2612"
    },
    {
      "channel": 0,
      "note": 53,
      "start": 3.9058,
      "duration": 0.7797,
      "velocity": 104,
      "chip": "ym2612"
    },
    {
      "channel": 1,
      "note": 50,
      "start": 3.9066,
      "duration": 0.7798,
      "velocity": 104,
      "chip": "ym2612"
    },
    {
      "channel": 3,
      "note": 51,
      "start": 3.9074,
      "duration": 0.0271,
      "velocity": 127,
      "chip": "ym2612"
    },
    {
      "channel": 4,
      "note": 87,
      "start": 3.9082,
      "duration": 0.7806,
      "velocity": 92,
      "chip": "ym2612"
    },
    {
      "channel": 5,
      "note": 82,
      "start": 3.909,
      "duration": 0.7805,
      "velocity": 92,
      "chip": "ym2612"
    },
    {
      "channel": 3,
      "note": 51,
      "start": 4.4263,
      "duration": 0.0284,
      "velocity": 127,
      "chip": "ym2612"
    },
    {
      "channel": 0,
      "note": 50,
      "start": 4.6859,
      "duration": 1.2903,
      "velocity": 104,
      "chip": "ym2612"
    },
    {
      "channel": 1,
      "note": 47,
      "start": 4.6866,
      "duration": 1.2903,
      "velocity": 104,
      "chip": "ym2612"
    },
    {
      "channel": 2,
      "note": 56,
      "start": 4.6875,
      "duration": 1.5502,
      "velocity": 95,
      "chip": "ym2612"
    },
    {
      "channel": 3,
      "note": 51,
      "start": 4.6883,
      "duration": 0.0552,
      "velocity": 127,
      "chip": "ym2612"
    },
    {
      "channel": 4,
      "note": 87,
      "start": 4.6891,
      "duration": 0.7679,
      "velocity": 92,
      "chip": "ym2612"
    },
    {
      "channel": 5,
      "note": 84,
      "start": 4.6899,
      "duration": 0.7679,
      "velocity": 92,
      "chip": "ym2612"
    },
    {
      "channel": 3,
      "note": 51,
      "start": 5.4566,
      "duration": 0.0381,
      "velocity": 127,
      "chip": "ym2612"
    },
    {
      "channel": 4,
      "note": 87,
      "start": 5.4574,
      "duration": 0.5212,
      "velocity": 92,
      "chip": "ym2612"
    },
    {
      "channel": 5,
      "note": 84,
      "start": 5.4581,
      "duration": 0.7821,
      "velocity": 92,
      "chip": "ym2612"
    },
    {
      "channel": 0,
      "note": 50,
      "start": 5.9765,
      "duration": 1.0395,
      "velocity": 104,
      "chip": "ym2612"
    },
    {
      "channel": 1,
      "note": 47,
      "start": 5.9773,
      "duration": 1.0396,
      "velocity": 104,
      "chip": "ym2612"
    },
    {
      "channel": 3,
      "note": 51,
      "start": 5.9782,
      "duration": 0.0366,
      "velocity": 127,
      "chip": "ym2612"
    },
    {
      "channel": 4,
      "note": 80,
      "start": 5.9789,
      "duration": 0.1322,
      "velocity": 92,
      "chip": "ym2612"
    },
    {
      "channel": 4,
      "note": 84,
      "start": 6.1116,
      "duration": 0.1279,
      "velocity": 92,
      "chip": "ym2612"
    },
    {
      "channel": 2,
      "note": 56,
      "start": 6.2381,
      "duration": 1.56,
      "velocity": 95,
      "chip": "ym2612"
    },
    {
      "channel": 3,
      "note": 51,
      "start": 6.239,
      "duration": 0.0653,
      "velocity": 127,
      "chip": "ym2612"
    },
    {
      "channel": 4,
      "note": 87,
      "start": 6.2398,
      "duration": 0.7787,
      "velocity": 92,
      "chip": "ym2612"
    },
    {
      "channel": 5,
      "note": 84,
      "start": 6.2406,
      "duration": 0.7788,
      "velocity": 92,
      "chip": "ym2612"
    },
    {
      "channel": 0,
      "note": 48,
      "start": 7.0165,
      "duration": 0.7798,
      "velocity": 104,
      "chip": "ym2612"
    },
    {
      "channel": 1,
      "note": 44,
      "start": 7.0172,
      "duration": 0.7801,
      "velocity": 104,
      "chip": "ym2612"
    },
    {
      "channel": 3,
      "note": 51,
      "start": 7.0181,
      "duration": 0.0271,
      "velocity": 127,
      "chip": "ym2612"
    },
    {
      "channel": 4,
      "note": 87,
      "start": 7.0189,
      "duration": 0.7811,
      "velocity": 92,
      "chip": "ym2612"
    },
    {
      "channel": 5,
      "note": 84,
      "start": 7.0197,
      "duration": 0.7812,
      "velocity": 92,
      "chip": "ym2612"
    },
    {
      "channel": 3,
      "note": 51,
      "start": 7.5368,
      "duration": 0.0284,
      "velocity": 127,
      "chip": "ym2612"
    },
    {
      "channel": 0,
      "note": 46,
      "start": 7.7967,
      "duration": 4.6703,
      "velocity": 104,
      "chip": "ym2612"
    },
    {
      "channel": 1,
      "note": 43,
      "start": 7.7977,
      "duration": 4.6702,
      "velocity": 104,
      "chip": "ym2612"
    },
    {
      "channel": 2,
      "note": 63,
      "start": 7.7985,
      "duration": 1.5581,
      "velocity": 95,
      "chip": "ym2612"
    },
    {
      "channel": 3,
      "note": 51,
      "start": 7.7994,
      "duration": 0.0644,
      "velocity": 127,
      "chip": "ym2612"
    },
    {
      "channel": 4,
      "note": 87,
      "start": 7.8004,
      "duration": 0.7771,
      "velocity": 92,
      "chip": "ym2612"
    },
    {
      "channel": 5,
      "note": 82,
      "start": 7.8011,
      "duration": 0.7771,
      "velocity": 92,
      "chip": "ym2612"
    },
    {
      "channel": 3,
      "note": 51,
      "start": 8.5771,
      "duration": 0.0283,
      "velocity": 127,
      "chip": "ym2612"
    },
    {
      "channel": 4,
      "note": 87,
      "start": 8.5778,
      "duration": 0.5196,
      "velocity": 92,
      "chip": "ym2612"
    },
    {
      "channel": 5,
      "note": 82,
      "start": 8.5786,
      "duration": 0.7804,
      "velocity": 92,
      "chip": "ym2612"
    },
    {
      "channel": 3,
      "note": 51,
      "start": 9.0969,
      "duration": 0.0285,
      "velocity": 127,
      "chip": "ym2612"
    },
    {
      "channel": 4,
      "note": 79,
      "start": 9.0978,
      "duration": 0.1242,
      "velocity": 92,
      "chip": "ym2612"
    },
    {
      "channel": 4,
      "note": 82,
      "start": 9.2223,
      "duration": 0.1359,
      "velocity": 92,
      "chip": "ym2612"
    },
    {
      "channel": 2,
      "note": 58,
      "start": 9.3569,
      "duration": 1.5502,
      "velocity": 95,
      "chip": "ym2612"
    },
    {
      "channel": 3,
      "note": 51,
      "start": 9.3578,
      "duration": 0.0566,
      "velocity": 127,
      "chip": "ym2612"
    },
    {
      "channel": 4,
      "note": 87,
      "start": 9.3586,
      "duration": 0.7693,
      "velocity": 92,
      "chip": "ym2612"
    },
    {
      "channel": 5,
      "note": 82,
      "start": 9.3595,
      "duration": 0.7691,
      "velocity": 92,
      "chip": "ym2612"
    },
    {
      "channel": 3,
      "note": 51,
      "start": 10.1274,
      "duration": 0.0381,
      "velocity": 127,
      "chip": "ym2612"
    },
    {
      "channel": 4,
      "note": 87,
      "start": 10.1282,
      "duration": 0.7807,
      "velocity": 92,
      "chip": "ym2612"
    },
    {
      "channel": 5,
      "note": 82,
      "start": 10.129,
      "duration": 0.7808,
      "velocity": 92,
      "chip": "ym2612"
    },
    {
      "channel": 3,
      "note": 51,
      "start": 10.6475,
      "duration": 0.0381,
      "velocity": 127,
      "chip": "ym2612"
    },
    {
      "channel": 2,
      "note": 63,
      "start": 10.9074,
      "duration": 1.5613,
      "velocity": 95,
      "chip": "ym2612"
    },
    {
      "channel": 3,
      "note": 51,
      "start": 10.9083,
      "duration": 0.0662,
      "velocity": 127,
      "chip": "ym2612"
    },
    {
      "channel": 4,
      "note": 87,
      "start": 10.9094,
      "duration": 0.7786,
      "velocity": 92,
      "chip": "ym2612"
    },
    {
      "channel": 5,
      "note": 82,
      "start": 10.9102,
      "duration": 0.7785,
      "velocity": 92,
      "chip": "ym2612"
    },
    {
      "channel": 3,
      "note": 51,
      "start": 11.6876,
      "duration": 0.0285,
      "velocity": 127,
      "chip": "ym2612"
    },
    {
      "channel": 4,
      "note": 87,
      "start": 11.6883,
      "duration": 0.5198,
      "velocity": 92,
      "chip": "ym2612"
    },
    {
      "channel": 5,
      "note": 82,
      "start": 11.6891,
      "duration": 0.7821,
      "velocity": 92,
      "chip": "ym2612"
    },
    {
      "channel": 3,
      "note": 51,
      "start": 12.2076,
      "duration": 0.0285,
      "velocity": 127,
      "chip": "ym2612"
    },
    {
      "channel": 4,
      "note": 79,
      "start": 12.2085,
      "duration": 0.1241,
      "velocity": 92,
      "chip": "ym2612"
    },
    {
      "channel": 4,
      "note": 82,
      "start": 12.333,
      "duration": 0.1373,
      "velocity": 92,
      "chip": "ym2612"
    },
    {
      "channel": 0,
      "note": 54,
      "start": 12.4674,
      "duration": 1.5598,
      "velocity": 104,
      "chip": "ym2612"
    },
    {
      "channel": 1,
      "note": 50,
      "start": 12.4683,
      "duration": 1.5597,
      "velocity": 104,
      "chip": "ym2612"
    },
    {
      "channel": 2,
      "note": 63,
      "start": 12.469,
      "duration": 1.5597,
      "velocity": 95,
      "chip": "ym2612"
    },
    {
      "channel": 3,
      "note": 51,
      "start": 12.47,
      "duration": 0.0647,
      "velocity": 127,
      "chip": "ym2612"
    },
    {
      "channel": 4,
      "note": 87,
      "start": 12.4707,
      "duration": 0.7774,
      "velocity": 92,
      "chip": "ym2612"
    },
    {
      "channel": 5,
      "note": 82,
      "start": 12.4715,
      "duration": 0.7774,
      "velocity": 92,
      "chip": "ym2612"
    },
    {
      "channel": 3,
      "note": 51,
      "start": 13.2478,
      "duration": 0.0285,
      "velocity": 127,
      "chip": "ym2612"
    },
    {
      "channel": 4,
      "note": 87,
      "start": 13.2485,
      "duration": 0.7824,
      "velocity": 92,
      "chip": "ym2612"
    },
    {
      "channel": 5,
      "note": 82,
      "start": 13.2493,
      "duration": 0.7826,
      "velocity": 92,
      "chip": "ym2612"
    },
    {
      "channel": 3,
      "note": 51,
      "start": 13.7677,
      "duration": 0.0285,
      "velocity": 127,
      "chip": "ym2612"
    },
    {
      "channel": 0,
      "note": 53,
      "start": 14.0275,
      "duration": 0.7701,
      "velocity": 104,
      "chip": "ym2612"
    },
    {
      "channel": 1,
      "note": 50,
      "start": 14.0282,
      "duration": 0.7702,
      "velocity": 104,
      "chip": "ym2612"
    },
    {
      "channel": 2,
      "note": 58,
      "start": 14.029,
      "duration": 1.5488,
      "velocity": 95,
      "chip": "ym2612"
    },
    {
      "channel": 3,
      "note": 51,
      "start": 14.03,
      "duration": 0.0552,
      "velocity": 127,
      "chip": "ym2612"
    },
    {
      "channel": 4,
      "note": 86,
      "start": 14.0313,
      "duration": 0.7688,
      "velocity": 92,
      "chip": "ym2612"
    },
    {
      "channel": 5,
      "note": 82,
      "start": 14.0323,
      "duration": 0.7686,
      "velocity": 92,
      "chip": "ym2612"
    },
    {
      "channel": 0,
      "note": 52,
      "start": 14.798,
      "duration": 1.5598,
      "velocity": 104,
      "chip": "ym2612"
    },
    {
      "channel": 1,
      "note": 49,
      "start": 14.7988,
      "duration": 1.5598,
      "velocity": 104,
      "chip": "ym2612"
    },
    {
      "channel": 3,
      "note": 51,
      "start": 14.7997,
      "duration": 0.0367,
      "velocity": 127,
      "chip": "ym2612"
    },
    {
      "channel": 4,
      "note": 86,
      "start": 14.8004,
      "duration": 0.5186,
      "velocity": 92,
      "chip": "ym2612"
    },
    {
      "channel": 5,
      "note": 82,
      "start": 14.8013,
      "duration": 0.7791,
      "velocity": 92,
      "chip": "ym2612"
    },
    {
      "channel": 3,
      "note": 51,
      "start": 15.3183,
      "duration": 0.0381,
      "velocity": 127,
      "chip": "ym2612"
    },
    {
      "channel": 4,
      "note": 77,
      "start": 15.3194,
      "duration": 0.1335,
      "velocity": 92,
      "chip": "ym2612"
    },
    {
      "channel": 4,
      "note": 82,
      "start": 15.4533,
      "duration": 0.1263,
      "velocity": 92,
      "chip": "ym2612"
    },
    {
      "channel": 2,
      "note": 65,
      "start": 15.5782,
      "duration": 1.5611,
      "velocity": 95,
      "chip": "ym2612"
    },
    {
      "channel": 3,
      "note": 51,
      "start": 15.5791,
      "duration": 0.0661,
      "velocity": 127,
      "chip": "ym2612"
    },
    {
      "channel": 4,
      "note": 86,
      "start": 15.58,
      "duration": 0.7803,
      "velocity": 92,
      "chip": "ym2612"
    },
    {
      "channel": 5,
      "note": 82,
      "start": 15.5808,
      "duration": 0.7803,
      "velocity": 92,
      "chip": "ym2612"
    },
    {
      "channel": 0,
      "note": 52,
      "start": 16.3581,
      "duration": 0.7797,
      "velocity": 104,
      "chip": "ym2612"
    },
    {
      "channel": 1,
      "note": 49,
      "start": 16.3588,
      "duration": 0.7798,
      "velocity": 104,
      "chip": "ym2612"
    },
    {
      "channel": 3,
      "note": 51,
      "start": 16.3599,
      "duration": 0.0366,
      "velocity": 127,
      "chip": "ym2612"
    },
    {
      "channel": 4,
      "note": 86,
      "start": 16.3607,
      "duration": 0.7805,
      "velocity": 92,
      "chip": "ym2612"
    },
    {
      "channel": 5,
      "note": 82,
      "start": 16.3616,
      "duration": 0.7805,
      "velocity": 92,
      "chip": "ym2612"
    },
    {
      "channel": 3,
      "note": 51,
      "start": 16.8784,
      "duration": 0.0285,
      "velocity": 127,
      "chip": "ym2612"
    },
    {
      "channel": 0,
      "note": 53,
      "start": 17.1382,
      "duration": 0.7797,
      "velocity": 104,
      "chip": "ym2612"
    },
    {
      "channel": 1,
      "note": 50,
      "start": 17.1389,
      "duration": 0.7797,
      "velocity": 104,
      "chip": "ym2612"
    },
    {
      "channel": 2,
      "note": 58,
      "start": 17.1397,
      "duration": 1.5599,
      "velocity": 95,
      "chip": "ym2612"
    },
    {
      "channel": 3,
      "note": 51,
      "start": 17.1406,
      "duration": 0.0648,
      "velocity": 127,
      "chip": "ym2612"
    },
    {
      "channel": 4,
      "note": 86,
      "start": 17.1415,
      "duration": 0.7788,
      "velocity": 92,
      "chip": "ym2612"
    },
    {
      "channel": 5,
      "note": 82,
      "start": 17.1425,
      "duration": 0.7787,
      "velocity": 92,
      "chip": "ym2612"
    },
    {
      "channel": 0,
      "note": 53,
      "start": 17.9183,
      "duration": 0.7798,
      "velocity": 104,
      "chip": "ym2612"
    },
    {
      "channel": 1,
      "note": 50,
      "start": 17.919,
      "duration": 0.7798,
      "velocity": 104,
      "chip": "ym2612"
    },
    {
      "channel": 3,
      "note": 51,
      "start": 17.9198,
      "duration": 0.0272,
      "velocity": 127,
      "chip": "ym2612"
    },
    {
      "channel": 4,
      "note": 86,
      "start": 17.9207,
      "duration": 0.5186,
      "velocity": 92,
      "chip": "ym2612"
    },
    {
      "channel": 5,
      "note": 82,
      "start": 17.9216,
      "duration": 0.7807,
      "velocity": 92,
      "chip": "ym2612"
    },
    {
      "channel": 3,
      "note": 51,
      "start": 18.4386,
      "duration": 0.0284,
      "velocity": 127,
      "chip": "ym2612"
    },
    {
      "channel": 4,
      "note": 77,
      "start": 18.4397,
      "duration": 0.1239,
      "velocity": 92,
      "chip": "ym2612"
    },
    {
      "channel": 4,
      "note": 82,
      "start": 18.564,
      "duration": 0.1373,
      "velocity": 92,
      "chip": "ym2612"
    },
    {
      "channel": 0,
      "note": 56,
      "start": 18.6984,
      "duration": 0.7797,
      "velocity": 104,
      "chip": "ym2612"
    },
    {
      "channel": 1,
      "note": 53,
      "start": 18.6992,
      "duration": 0.7797,
      "velocity": 104,
      "chip": "ym2612"
    },
    {
      "channel": 2,
      "note": 58,
      "start": 18.6999,
      "duration": 1.5501,
      "velocity": 95,
      "chip": "ym2612"
    },
    {
      "channel": 3,
      "note": 51,
      "start": 18.7009,
      "duration": 0.0551,
      "velocity": 127,
      "chip": "ym2612"
    },
    {
      "channel": 4,
      "note": 86,
      "start": 18.7017,
      "duration": 0.7789,
      "velocity": 92,
      "chip": "ym2612"
    },
    {
      "channel": 5,
      "note": 82,
      "start": 18.7026,
      "duration": 0.7789,
      "velocity": 92,
      "chip": "ym2612"
    },
    {
      "channel": 0,
      "note": 55,
      "start": 19.4785,
      "duration": 0.77,
      "velocity": 104,
      "chip": "ym2612"
    },
    {
      "channel": 1,
      "note": 51,
      "start": 19.4793,
      "duration": 0.77,
      "velocity": 104,
      "chip": "ym2612"
    },
    {
      "channel": 3,
      "note": 51,
      "start": 19.4801,
      "duration": 0.0271,
      "velocity": 127,
      "chip": "ym2612"
    },
    {
      "channel": 4,
      "note": 86,
      "start": 19.4809,
      "duration": 0.771,
      "velocity": 92,
      "chip": "ym2612"
    },
    {
      "channel": 5,
      "note": 82,
      "start": 19.4818,
      "duration": 0.771,
      "velocity": 92,
      "chip": "ym2612"
    },
    {
      "channel": 3,
      "note": 51,
      "start": 19.9891,
      "duration": 0.0381,
      "velocity": 127,
      "chip": "ym2612"
    },
    {
      "channel": 0,
      "note": 53,
      "start": 20.2488,
      "duration": 0.7123,
      "velocity": 104,
      "chip": "ym2612"
    },
    {
      "channel": 1,
      "note": 50,
      "start": 20.2496,
      "duration": 0.7119,
      "velocity": 104,
      "chip": "ym2612"
    },
    {
      "channel": 2,
      "note": 58,
      "start": 20.2504,
      "duration": 1.5599,
      "velocity": 95,
      "chip": "ym2612"
    },
    {
      "channel": 3,
      "note": 51,
      "start": 20.2513,
      "duration": 0.0648,
      "velocity": 127,
      "chip": "ym2612"
    },
    {
      "channel": 4,
      "note": 86,
      "start": 20.2523,
      "duration": 0.7858,
      "velocity": 92,
      "chip": "ym2612"
    },
    {
      "channel": 5,
      "note": 82,
      "start": 20.2532,
      "duration": 0.7858,
      "velocity": 92,
      "chip": "ym2612"
    },
    {
      "channel": 0,
      "note": 70,
      "start": 21.0321,
      "duration": 0.1891,
      "velocity": 90,
      "chip": "ym2612"
    },
    {
      "channel": 1,
      "note": 65,
      "start": 21.0368,
      "duration": 0.1852,
      "velocity": 90,
      "chip": "ym2612"
    },
    {
      "channel": 3,
      "note": 51,
      "start": 21.0376,
      "duration": 0.0297,
      "velocity": 127,
      "chip": "ym2612"
    },
    {
      "channel": 4,
      "note": 86,
      "start": 21.0384,
      "duration": 0.5116,
      "velocity": 92,
      "chip": "ym2612"
    },
    {
      "channel": 5,
      "note": 82,
      "start": 21.0394,
      "duration": 0.7736,
      "velocity": 92,
      "chip": "ym2612"
    },
    {
      "channel": 0,
      "note": 74,
      "start": 21.2215,
      "duration": 0.2019,
      "velocity": 90,
      "chip": "ym2612"
    },
    {
      "channel": 1,
      "note": 70,
      "start": 21.2224,
      "duration": 0.2018,
      "velocity": 90,
      "chip": "ym2612"
    },
    {
      "channel": 0,
      "note": 77,
      "start": 21.4237,
      "duration": 0.1924,
      "velocity": 90,
      "chip": "ym2612"
    },
    {
      "channel": 1,
      "note": 74,
      "start": 21.4245,
      "duration": 0.1924,
      "velocity": 90,
      "chip": "ym2612"
    },
    {
      "channel": 3,
      "note": 51,
      "start": 21.5492,
      "duration": 0.0285,
      "velocity": 127,
      "chip": "ym2612"
    },
    {
      "channel": 4,
      "note": 77,
      "start": 21.5503,
      "duration": 0.1336,
      "velocity": 92,
      "chip": "ym2612"
    },
    {
      "channel": 0,
      "note": 82,
      "start": 21.6165,
      "duration": 0.1922,
      "velocity": 90,
      "chip": "ym2612"
    },
    {
      "channel": 1,
      "note": 79,
      "start": 21.6172,
      "duration": 0.1923,
      "velocity": 90,
      "chip": "ym2612"
    },
    {
      "channel": 4,
      "note": 82,
      "start": 21.6843,
      "duration": 0.1277,
      "velocity": 92,
      "chip": "ym2612"
    },
    {
      "channel": 0,
      "note": 80,
      "start": 21.809,
      "duration": 0.7798,
      "velocity": 90,
      "chip": "ym2612"
    },
    {
      "channel": 1,
      "note": 77,
      "start": 21.8099,
      "duration": 0.7798,
      "velocity": 90,
      "chip": "ym2612"
    },
    {
      "channel": 2,
      "note": 58,
      "start": 21.8107,
      "duration": 1.5597,
      "velocity": 95,
      "chip": "ym2612"
    },
    {
      "channel": 3,
      "note": 51,
      "start": 21.8116,
      "duration": 0.0648,
      "velocity": 127,
      "chip": "ym2612"
    },
    {
      "channel": 4,
      "note": 86,
      "start": 21.8124,
      "duration": 0.7789,
      "velocity": 92,
      "chip": "ym2612"
    },
    {
      "channel": 5,
      "note": 82,
      "start": 21.8134,
      "duration": 0.7789,
      "velocity": 92,
      "chip": "ym2612"
    },
    {
      "channel": 0,
      "note": 70,
      "start": 22.5892,
      "duration": 0.1921,
      "velocity": 90,
      "chip": "ym2612"
    },
    {
      "channel": 1,
      "note": 65,
      "start": 22.59,
      "duration": 0.1922,
      "velocity": 90,
      "chip": "ym2612"
    },
    {
      "channel": 3,
      "note": 51,
      "start": 22.5909,
      "duration": 0.027,
      "velocity": 127,
      "chip": "ym2612"
    },
    {
      "channel": 4,
      "note": 86,
      "start": 22.5917,
      "duration": 0.7806,
      "velocity": 92,
      "chip": "ym2612"
    },
    {
      "channel": 5,
      "note": 82,
      "start": 22.5927,
      "duration": 0.7804,
      "velocity": 92,
      "chip": "ym2612"
    },
    {
      "channel": 0,
      "note": 74,
      "start": 22.7817,
      "duration": 0.1922,
      "velocity": 90,
      "chip": "ym2612"
    },
    {
      "channel": 1,
      "note": 70,
      "start": 22.7826,
      "duration": 0.1921,
      "velocity": 90,
      "chip": "ym2612"
    },
    {
      "channel": 0,
      "note": 77,
      "start": 22.9743,
      "duration": 0.2021,
      "velocity": 90,
      "chip": "ym2612"
    },
    {
      "channel": 1,
      "note": 74,
      "start": 22.9751,
      "duration": 0.2021,
      "velocity": 90,
      "chip": "ym2612"
    },
    {
      "channel": 3,
      "note": 51,
      "start": 23.1095,
      "duration": 0.0284,
      "velocity": 127,
      "chip": "ym2612"
    },
    {
      "channel": 0,
      "note": 80,
      "start": 23.1768,
      "duration": 0.1921,
      "velocity": 90,
      "chip": "ym2612"
    },
    {
      "channel": 1,
      "note": 77,
      "start": 23.1775,
      "duration": 0.1921,
      "velocity": 90,
      "chip": "ym2612"
    },
    {
      "channel": 0,
      "note": 79,
      "start": 23.3692,
      "duration": 0.1923,
      "velocity": 90,
      "chip": "ym2612"
    },
    {
      "channel": 1,
      "note": 75,
      "start": 23.37,
      "duration": 0.1923,
      "velocity": 90,
      "chip": "ym2612"
    },
    {
      "channel": 2,
      "note": 60,
      "start": 23.3707,
      "duration": 1.5575,
      "velocity": 95,
      "chip": "ym2612"
    },
    {
      "channel": 3,
      "note": 51,
      "start": 23.3717,
      "duration": 0.0552,
      "velocity": 127,
      "chip": "ym2612"
    },
    {
      "channel": 4,
      "note": 86,
      "start": 23.3726,
      "duration": 0.7788,
      "velocity": 92,
      "chip": "ym2612"
    },
    {
      "channel": 5,
      "note": 82,
      "start": 23.3735,
      "duration": 0.7787,
      "velocity": 92,
      "chip": "ym2612"
    },
    {
      "channel": 0,
      "note": 80,
      "start": 23.5618,
      "duration": 0.1922,
      "velocity": 90,
      "chip": "ym2612"
    },
    {
      "channel": 1,
      "note": 77,
      "start": 23.5626,
      "duration": 0.1923,
      "velocity": 90,
      "chip": "ym2612"
    },
    {
      "channel": 0,
      "note": 79,
      "start": 23.7544,
      "duration": 0.1922,
      "velocity": 90,
      "chip": "ym2612"
    },
    {
      "channel": 1,
      "note": 75,
      "start": 23.7552,
      "duration": 0.1922,
      "velocity": 90,
      "chip": "ym2612"
    },
    {
      "channel": 0,
      "note": 78,
      "start": 23.9469,
      "duration": 0.2019,
      "velocity": 90,
      "chip": "ym2612"
    },
    {
      "channel": 1,
      "note": 73,
      "start": 23.9477,
      "duration": 0.2019,
      "velocity": 90,
      "chip": "ym2612"
    },
    {
      "channel": 0,
      "note": 77,
      "start": 24.1492,
      "duration": 0.7123,
      "velocity": 90,
      "chip": "ym2612"
    },
    {
      "channel": 1,
      "note": 74,
      "start": 24.15,
      "duration": 0.7119,
      "velocity": 90,
      "chip": "ym2612"
    },
    {
      "channel": 3,
      "note": 51,
      "start": 24.1509,
      "duration": 0.0271,
      "velocity": 127,
      "chip": "ym2612"
    },
    {
      "channel": 4,
      "note": 86,
      "start": 24.1517,
      "duration": 0.5092,
      "velocity": 92,
      "chip": "ym2612"
    },
    {
      "channel": 5,
      "note": 82,
      "start": 24.1526,
      "duration": 0.7783,
      "velocity": 92,
      "chip": "ym2612"
    },
    {
      "channel": 3,
      "note": 51,
      "start": 24.66,
      "duration": 0.038,
      "velocity": 127,
      "chip": "ym2612"
    },
    {
      "channel": 4,
      "note": 77,
      "start": 24.6611,
      "duration": 0.1334,
      "velocity": 92,
      "chip": "ym2612"
    },
    {
      "channel": 4,
      "note": 82,
      "start": 24.795,
      "duration": 0.135,
      "velocity": 92,
      "chip": "ym2612"
    },
    {
      "channel": 0,
      "note": 46,
      "start": 24.923,
      "duration": 0.7765,
      "velocity": 104,
      "chip": "ym2612"
    },
    {
      "channel": 1,
      "note": 43,
      "start": 24.9278,
      "duration": 0.7727,
      "velocity": 104,
      "chip": "ym2612"
    },
    {
      "channel": 2,
      "note": 62,
      "start": 24.9286,
      "duration": 1.5524,
      "velocity": 95,
      "chip": "ym2612"
    },
    {
      "channel": 3,
      "note": 51,
      "start": 24.9295,
      "duration": 0.0575,
      "velocity": 127,
      "chip": "ym2612"
    },
    {
      "channel": 4,
      "note": 86,
      "start": 24.9303,
      "duration": 0.7719,
      "velocity": 92,
      "chip": "ym2612"
    },
    {
      "channel": 5,
      "note": 82,
      "start": 24.9312,
      "duration": 0.772,
      "velocity": 92,
      "chip": "ym2612"
    },
    {
      "channel": 0,
      "note": 46,
      "start": 25.6999,
      "duration": 0.7796,
      "velocity": 104,
      "chip": "ym2612"
    },
    {
      "channel": 1,
      "note": 43,
      "start": 25.701,
      "duration": 0.7793,
      "velocity": 104,
      "chip": "ym2612"
    },
    {
      "channel": 3,
      "note": 51,
      "start": 25.7018,
      "duration": 0.0369,
      "velocity": 127,
      "chip": "ym2612"
    },
    {
      "channel": 4,
      "note": 86,
      "start": 25.7026,
      "duration": 0.7806,
      "velocity": 92,
      "chip": "ym2612"
    },
    {
      "channel": 5,
      "note": 82,
      "start": 25.7035,
      "duration": 0.7806,
      "velocity": 92,
      "chip": "ym2612"
    },
    {
      "channel": 3,
      "note": 51,
      "start": 26.2201,
      "duration": 0.0381,
      "velocity": 127,
      "chip": "ym2612"
    },
    {
      "channel": 0,
      "note": 55,
      "start": 26.4798,
      "duration": 0.7799,
      "velocity": 104,
      "chip": "ym2612"
    },
    {
      "channel": 1,
      "note": 51,
      "start": 26.4805,
      "duration": 0.7799,
      "velocity": 104,
      "chip": "ym2612"
    },
    {
      "channel": 2,
      "note": 63,
      "start": 26.4813,
      "duration": 1.5585,
      "velocity": 95,
      "chip": "ym2612"
    },
    {
      "channel": 3,
      "note": 51,
      "start": 26.4822,
      "duration": 0.0648,
      "velocity": 127,
      "chip": "ym2612"
    },
    {
      "channel": 4,
      "note": 87,
      "start": 26.4836,
      "duration": 0.7786,
      "velocity": 92,
      "chip": "ym2612"
    },
    {
      "channel": 5,
      "note": 82,
      "start": 26.4845,
      "duration": 0.7786,
      "velocity": 92,
      "chip": "ym2612"
    },
    {
      "channel": 0,
      "note": 54,
      "start": 27.26,
      "duration": 1.5596,
      "velocity": 104,
      "chip": "ym2612"
    },
    {
      "channel": 1,
      "note": 50,
      "start": 27.2608,
      "duration": 1.5596,
      "velocity": 104,
      "chip": "ym2612"
    },
    {
      "channel": 3,
      "note": 51,
      "start": 27.2617,
      "duration": 0.0269,
      "velocity": 127,
      "chip": "ym2612"
    },
    {
      "channel": 4,
      "note": 87,
      "start": 27.2625,
      "duration": 0.5183,
      "velocity": 92,
      "chip": "ym2612"
    },
    {
      "channel": 5,
      "note": 82,
      "start": 27.2634,
      "duration": 0.779,
      "velocity": 92,
      "chip": "ym2612"
    },
    {
      "channel": 3,
      "note": 51,
      "start": 27.7802,
      "duration": 0.0285,
      "velocity": 127,
      "chip": "ym2612"
    },
    {
      "channel": 4,
      "note": 79,
      "start": 27.7811,
      "duration": 0.1242,
      "velocity": 92,
      "chip": "ym2612"
    },
    {
      "channel": 4,
      "note": 82,
      "start": 27.9056,
      "duration": 0.1359,
      "velocity": 92,
      "chip": "ym2612"
    },
    {
      "channel": 2,
      "note": 63,
      "start": 28.0401,
      "duration": 1.5516,
      "velocity": 95,
      "chip": "ym2612"
    },
    {
      "channel": 3,
      "note": 51,
      "start": 28.0411,
      "duration": 0.0662,
      "velocity": 127,
      "chip": "ym2612"
    },
    {
      "channel": 4,
      "note": 87,
      "start": 28.0419,
      "duration": 0.7802,
      "velocity": 92,
      "chip": "ym2612"
    },
    {
      "channel": 5,
      "note": 82,
      "start": 28.0429,
      "duration": 0.78,
      "velocity": 92,
      "chip": "ym2612"
    },
    {
      "channel": 0,
      "note": 53,
      "start": 28.82,
      "duration": 0.7701,
      "velocity": 104,
      "chip": "ym2612"
    },
    {
      "channel": 1,
      "note": 50,
      "start": 28.8208,
      "duration": 0.7701,
      "velocity": 104,
      "chip": "ym2612"
    },
    {
      "channel": 3,
      "note": 51,
      "start": 28.8216,
      "duration": 0.0271,
      "velocity": 127,
      "chip": "ym2612"
    },
    {
      "channel": 4,
      "note": 87,
      "start": 28.8224,
      "duration": 0.7711,
      "velocity": 92,
      "chip": "ym2612"
    },
    {
      "channel": 5,
      "note": 82,
      "start": 28.8233,
      "duration": 0.7712,
      "velocity": 92,
      "chip": "ym2612"
    },
    {
      "channel": 3,
      "note": 51,
      "start": 29.3404,
      "duration": 0.0284,
      "velocity": 127,
      "chip": "ym2612"
    },
    {
      "channel": 0,
      "note": 50,
      "start": 29.5905,
      "duration": 1.2998,
      "velocity": 104,
      "chip": "ym2612"
    },
    {
      "channel": 1,
      "note": 47,
      "start": 29.5913,
      "duration": 1.2998,
      "velocity": 104,
      "chip": "ym2612"
    },
    {
      "channel": 2,
      "note": 56,
      "start": 29.592,
      "duration": 1.5599,
      "velocity": 95,
      "chip": "ym2612"
    },
    {
      "channel": 3,
      "note": 51,
      "start": 29.5931,
      "duration": 0.0646,
      "velocity": 127,
      "chip": "ym2612"
    },
    {
      "channel": 4,
      "note": 87,
      "start": 29.5939,
      "duration": 0.7774,
      "velocity": 92,
      "chip": "ym2612"
    },
    {
      "channel": 5,
      "note": 84,
      "start": 29.5949,
      "duration": 0.7772,
      "velocity": 92,
      "chip": "ym2612"
    },
    {
      "channel": 3,
      "note": 51,
      "start": 30.3709,
      "duration": 0.0381,
      "velocity": 127,
      "chip": "ym2612"
    },
    {
      "channel": 4,
      "note": 87,
      "start": 30.3716,
      "duration": 0.5212,
      "velocity": 92,
      "chip": "ym2612"
    },
    {
      "channel": 5,
      "note": 84,
      "start": 30.3724,
      "duration": 0.7821,
      "velocity": 92,
      "chip": "ym2612"
    },
    {
      "channel": 0,
      "note": 50,
      "start": 30.8906,
      "duration": 1.0398,
      "velocity": 104,
      "chip": "ym2612"
    },
    {
      "channel": 1,
      "note": 47,
      "start": 30.8914,
      "duration": 1.0397,
      "velocity": 104,
      "chip": "ym2612"
    },
    {
      "channel": 3,
      "note": 51,
      "start": 30.8923,
      "duration": 0.0367,
      "velocity": 127,
      "chip": "ym2612"
    },
    {
      "channel": 4,
      "note": 80,
      "start": 30.8932,
      "duration": 0.1322,
      "velocity": 92,
      "chip": "ym2612"
    },
    {
      "channel": 4,
      "note": 84,
      "start": 31.0258,
      "duration": 0.1278,
      "velocity": 92,
      "chip": "ym2612"
    },
    {
      "channel": 2,
      "note": 56,
      "start": 31.1524,
      "duration": 1.56,
      "velocity": 95,
      "chip": "ym2612"
    },
    {
      "channel": 3,
      "note": 51,
      "start": 31.1532,
      "duration": 0.0653,
      "velocity": 127,
      "chip": "ym2612"
    },
    {
      "channel": 4,
      "note": 87,
      "start": 31.1541,
      "duration": 0.7787,
      "velocity": 92,
      "chip": "ym2612"
    },
    {
      "channel": 5,
      "note": 84,
      "start": 31.1548,
      "duration": 0.7787,
      "velocity": 92,
      "chip": "ym2612"
    },
    {
      "channel": 0,
      "note": 48,
      "start": 31.9307,
      "duration": 0.7798,
      "velocity": 104,
      "chip": "ym2612"
    },
    {
      "channel": 1,
      "note": 44,
      "start": 31.9315,
      "duration": 0.7801,
      "velocity": 104,
      "chip": "ym2612"
    },
    {
      "channel": 3,
      "note": 51,
      "start": 31.9323,
      "duration": 0.0273,
      "velocity": 127,
      "chip": "ym2612"
    },
    {
      "channel": 4,
      "note": 87,
      "start": 31.9331,
      "duration": 0.7811,
      "velocity": 92,
      "chip": "ym2612"
    },
    {
      "channel": 5,
      "note": 84,
      "start": 31.9339,
      "duration": 0.7812,
      "velocity": 92,
      "chip": "ym2612"
    },
    {
      "channel": 3,
      "note": 51,
      "start": 32.451,
      "duration": 0.0285,
      "velocity": 127,
      "chip": "ym2612"
    },
    {
      "channel": 0,
      "note": 46,
      "start": 32.7109,
      "duration": 0.7122,
      "velocity": 104,
      "chip": "ym2612"
    },
    {
      "channel": 1,
      "note": 43,
      "start": 32.712,
      "duration": 0.7115,
      "velocity": 104,
      "chip": "ym2612"
    },
    {
      "channel": 2,
      "note": 63,
      "start": 32.7127,
      "duration": 1.5594,
      "velocity": 95,
      "chip": "ym2612"
    },
    {
      "channel": 3,
      "note": 51,
      "start": 32.7136,
      "duration": 0.0644,
      "velocity": 127,
      "chip": "ym2612"
    },
    {
      "channel": 4,
      "note": 87,
      "start": 32.7146,
      "duration": 0.7854,
      "velocity": 92,
      "chip": "ym2612"
    },
    {
      "channel": 5,
      "note": 82,
      "start": 32.7154,
      "duration": 0.7854,
      "velocity": 92,
      "chip": "ym2612"
    },
    {
      "channel": 0,
      "note": 82,
      "start": 33.4941,
      "duration": 0.2563,
      "velocity": 90,
      "chip": "ym2612"
    },
    {
      "channel": 1,
      "note": 79,
      "start": 33.4987,
      "duration": 0.2525,
      "velocity": 90,
      "chip": "ym2612"
    },
    {
      "channel": 3,
      "note": 51,
      "start": 33.4996,
      "duration": 0.02,
      "velocity": 127,
      "chip": "ym2612"
    },
    {
      "channel": 4,
      "note": 87,
      "start": 33.5004,
      "duration": 0.5127,
      "velocity": 92,
      "chip": "ym2612"
    },
    {
      "channel": 5,
      "note": 82,
      "start": 33.5012,
      "duration": 0.7734,
      "velocity": 92,
      "chip": "ym2612"
    },
    {
      "channel": 0,
      "note": 80,
      "start": 33.7509,
      "duration": 0.2597,
      "velocity": 90,
      "chip": "ym2612"
    },
    {
      "channel": 1,
      "note": 77,
      "start": 33.7517,
      "duration": 0.2597,
      "velocity": 90,
      "chip": "ym2612"
    },
    {
      "channel": 0,
      "note": 79,
      "start": 34.011,
      "duration": 0.2595,
      "velocity": 90,
      "chip": "ym2612"
    },
    {
      "channel": 1,
      "note": 75,
      "start": 34.0118,
      "duration": 0.2596,
      "velocity": 90,
      "chip": "ym2612"
    },
    {
      "channel": 3,
      "note": 51,
      "start": 34.0126,
      "duration": 0.027,
      "velocity": 127,
      "chip": "ym2612"
    },
    {
      "channel": 4,
      "note": 79,
      "start": 34.0135,
      "duration": 0.1227,
      "velocity": 92,
      "chip": "ym2612"
    },
    {
      "channel": 4,
      "note": 82,
      "start": 34.1366,
      "duration": 0.1373,
      "velocity": 92,
      "chip": "ym2612"
    },
    {
      "channel": 0,
      "note": 77,
      "start": 34.2709,
      "duration": 0.51,
      "velocity": 90,
      "chip": "ym2612"
    },
    {
      "channel": 1,
      "note": 74,
      "start": 34.2717,
      "duration": 0.5101,
      "velocity": 90,
      "chip": "ym2612"
    },
    {
      "channel": 2,
      "note": 58,
      "start": 34.2725,
      "duration": 1.5502,
      "velocity": 95,
      "chip": "ym2612"
    },
    {
      "channel": 3,
      "note": 51,
      "start": 34.2734,
      "duration": 0.0551,
      "velocity": 127,
      "chip": "ym2612"
    },
    {
      "channel": 4,
      "note": 87,
      "start": 34.2742,
      "duration": 0.7679,
      "velocity": 92,
      "chip": "ym2612"
    },
    {
      "channel": 5,
      "note": 82,
      "start": 34.275,
      "duration": 0.768,
      "velocity": 92,
      "chip": "ym2612"
    },
    {
      "channel": 0,
      "note": 79,
      "start": 34.7814,
      "duration": 0.5198,
      "velocity": 90,
      "chip": "ym2612"
    },
    {
      "channel": 1,
      "note": 75,
      "start": 34.7821,
      "duration": 0.5198,
      "velocity": 90,
      "chip": "ym2612"
    },
    {
      "channel": 3,
      "note": 51,
      "start": 35.0417,
      "duration": 0.0381,
      "velocity": 127,
      "chip": "ym2612"
    },
    {
      "channel": 4,
      "note": 87,
      "start": 35.0424,
      "duration": 0.7821,
      "velocity": 92,
      "chip": "ym2612"
    },
    {
      "channel": 5,
      "note": 82,
      "start": 35.0434,
      "duration": 0.7819,
      "velocity": 92,
      "chip": "ym2612"
    },
    {
      "channel": 0,
      "note": 80,
      "start": 35.3015,
      "duration": 0.5196,
      "velocity": 90,
      "chip": "ym2612"
    },
    {
      "channel": 1,
      "note": 77,
      "start": 35.3023,
      "duration": 0.5196,
      "velocity": 90,
      "chip": "ym2612"
    },
    {
      "channel": 3,
      "note": 51,
      "start": 35.5617,
      "duration": 0.0381,
      "velocity": 127,
      "chip": "ym2612"
    },
    {
      "channel": 0,
      "note": 82,
      "start": 35.8214,
      "duration": 1.4924,
      "velocity": 90,
      "chip": "ym2612"
    },
    {
      "channel": 1,
      "note": 79,
      "start": 35.8223,
      "duration": 1.4919,
      "velocity": 90,
      "chip": "ym2612"
    },
    {
      "channel": 2,
      "note": 63,
      "start": 35.823,
      "duration": 1.5667,
      "velocity": 95,
      "chip": "ym2612"
    },
    {
      "channel": 3,
      "note": 51,
      "start": 35.824,
      "duration": 0.0648,
      "velocity": 127,
      "chip": "ym2612"
    },
    {
      "channel": 4,
      "note": 87,
      "start": 35.8249,
      "duration": 0.7773,
      "velocity": 92,
      "chip": "ym2612"
    },
    {
      "channel": 5,
      "note": 82,
      "start": 35.8256,
      "duration": 0.7774,
      "velocity": 92,
      "chip": "ym2612"
    },
    {
      "channel": 3,
      "note": 51,
      "start": 36.6018,
      "duration": 0.0285,
      "velocity": 127,
      "chip": "ym2612"
    },
    {
      "channel": 4,
      "note": 87,
      "start": 36.6026,
      "duration": 0.5198,
      "velocity": 92,
      "chip": "ym2612"
    },
    {
      "channel": 5,
      "note": 82,
      "start": 36.6034,
      "duration": 0.7889,
      "velocity": 92,
      "chip": "ym2612"
    },
    {
      "channel": 3,
      "note": 51,
      "start": 37.1219,
      "duration": 0.0284,
      "velocity": 127,
      "chip": "ym2612"
    },
    {
      "channel": 4,
      "note": 79,
      "start": 37.1227,
      "duration": 0.1242,
      "velocity": 92,
      "chip": "ym2612"
    },
    {
      "channel": 4,
      "note": 82,
      "start": 37.2473,
      "duration": 0.1442,
      "velocity": 92,
      "chip": "ym2612"
    },
    {
      "channel": 0,
      "note": 51,
      "start": 37.3849,
      "duration": 0.7764,
      "velocity": 104,
      "chip": "ym2612"
    },
    {
      "channel": 1,
      "note": 43,
      "start": 37.3894,
      "duration": 0.7728,
      "velocity": 104,
      "chip": "ym2612"
    },
    {
      "channel": 2,
      "note": 63,
      "start": 37.3901,
      "duration": 1.553,
      "velocity": 95,
      "chip": "ym2612"
    },
    {
      "channel": 3,
      "note": 51,
      "start": 37.391,
      "duration": 0.0578,
      "velocity": 127,
      "chip": "ym2612"
    },
    {
      "channel": 4,
      "note": 87,
      "start": 37.3919,
      "duration": 0.7719,
      "velocity": 92,
      "chip": "ym2612"
    },
    {
      "channel": 5,
      "note": 82,
      "start": 37.3927,
      "duration": 0.7718,
      "velocity": 92,
      "chip": "ym2612"
    },
    {
      "channel": 0,
      "note": 50,
      "start": 38.1616,
      "duration": 0.7798,
      "velocity": 104,
      "chip": "ym2612"
    },
    {
      "channel": 1,
      "note": 46,
      "start": 38.1625,
      "duration": 0.7797,
      "velocity": 104,
      "chip": "ym2612"
    },
    {
      "channel": 3,
      "note": 51,
      "start": 38.1634,
      "duration": 0.027,
      "velocity": 127,
      "chip": "ym2612"
    },
    {
      "channel": 4,
      "note": 87,
      "start": 38.1642,
      "duration": 0.781,
      "velocity": 92,
      "chip": "ym2612"
    },
    {
      "channel": 5,
      "note": 82,
      "start": 38.1649,
      "duration": 0.781,
      "velocity": 92,
      "chip": "ym2612"
    },
    {
      "channel": 3,
      "note": 51,
      "start": 38.682,
      "duration": 0.0285,
      "velocity": 127,
      "chip": "ym2612"
    },
    {
      "channel": 0,
      "note": 48,
      "start": 38.9417,
      "duration": 1.5501,
      "velocity": 104,
      "chip": "ym2612"
    },
    {
      "channel": 1,
      "note": 45,
      "start": 38.9426,
      "duration": 1.5502,
      "velocity": 104,
      "chip": "ym2612"
    },
    {
      "channel": 2,
      "note": 57,
      "start": 38.9434,
      "duration": 1.5501,
      "velocity": 95,
      "chip": "ym2612"
    },
    {
      "channel": 3,
      "note": 51,
      "start": 38.9444,
      "duration": 0.055,
      "velocity": 127,
      "chip": "ym2612"
    },
    {
      "channel": 4,
      "note": 84,
      "start": 38.9455,
      "duration": 0.7673,
      "velocity": 92,
      "chip": "ym2612"
    },
    {
      "channel": 5,
      "note": 81,
      "start": 38.9463,
      "duration": 0.7674,
      "velocity": 92,
      "chip": "ym2612"
    },
    {
      "channel": 3,
      "note": 51,
      "start": 39.7125,
      "duration": 0.0381,
      "velocity": 127,
      "chip": "ym2612"
    },
    {
      "channel": 4,
      "note": 84,
      "start": 39.7132,
      "duration": 0.5198,
      "velocity": 92,
      "chip": "ym2612"
    },
    {
      "channel": 5,
      "note": 81,
      "start": 39.714,
      "duration": 0.7821,
      "velocity": 92,
      "chip": "ym2612"
    },
    {
      "channel": 3,
      "note": 51,
      "start": 40.2325,
      "duration": 0.0381,
      "velocity": 127,
      "chip": "ym2612"
    },
    {
      "channel": 4,
      "note": 77,
      "start": 40.2334,
      "duration": 0.1338,
      "velocity": 92,
      "chip": "ym2612"
    },
    {
      "channel": 4,
      "note": 81,
      "start": 40.3676,
      "duration": 0.1277,
      "velocity": 92,
      "chip": "ym2612"
    },
    {
      "channel": 0,
      "note": 53,
      "start": 40.4922,
      "duration": 0.7797,
      "velocity": 104,
      "chip": "ym2612"
    },
    {
      "channel": 1,
      "note": 45,
      "start": 40.4931,
      "duration": 0.7796,
      "velocity": 104,
      "chip": "ym2612"
    },
    {
      "channel": 2,
      "note": 57,
      "start": 40.4939,
      "duration": 1.5598,
      "velocity": 95,
      "chip": "ym2612"
    },
    {
      "channel": 3,
      "note": 51,
      "start": 40.4948,
      "duration": 0.0648,
      "velocity": 127,
      "chip": "ym2612"
    },
    {
      "channel": 4,
      "note": 84,
      "start": 40.4956,
      "duration": 0.7788,
      "velocity": 92,
      "chip": "ym2612"
    },
    {
      "channel": 5,
      "note": 81,
      "start": 40.4964,
      "duration": 0.7788,
      "velocity": 92,
      "chip": "ym2612"
    },
    {
      "channel": 0,
      "note": 51,
      "start": 41.2723,
      "duration": 0.7797,
      "velocity": 104,
      "chip": "ym2612"
    },
    {
      "channel": 1,
      "note": 48,
      "start": 41.2731,
      "duration": 0.7797,
      "velocity": 104,
      "chip": "ym2612"
    },
    {
      "channel": 3,
      "note": 51,
      "start": 41.274,
      "duration": 0.0271,
      "velocity": 127,
      "chip": "ym2612"
    },
    {
      "channel": 4,
      "note": 84,
      "start": 41.2747,
      "duration": 0.7805,
      "velocity": 92,
      "chip": "ym2612"
    },
    {
      "channel": 5,
      "note": 81,
      "start": 41.2755,
      "duration": 0.7806,
      "velocity": 92,
      "chip": "ym2612"
    },
    {
      "channel": 3,
      "note": 51,
      "start": 41.7928,
      "duration": 0.0284,
      "velocity": 127,
      "chip": "ym2612"
    },
    {
      "channel": 0,
      "note": 50,
      "start": 42.0524,
      "duration": 1.5599,
      "velocity": 104,
      "chip": "ym2612"
    },
    {
      "channel": 1,
      "note": 46,
      "start": 42.0532,
      "duration": 1.5599,
      "velocity": 104,
      "chip": "ym2612"
    },
    {
      "channel": 2,
      "note": 58,
      "start": 42.0539,
      "duration": 1.5599,
      "velocity": 95,
      "chip": "ym2612"
    },
    {
      "channel": 3,
      "note": 51,
      "start": 42.0549,
      "duration": 0.0648,
      "velocity": 127,
      "chip": "ym2612"
    },
    {
      "channel": 4,
      "note": 86,
      "start": 42.0556,
      "duration": 0.7776,
      "velocity": 92,
      "chip": "ym2612"
    },
    {
      "channel": 5,
      "note": 82,
      "start": 42.0564,
      "duration": 0.7776,
      "velocity": 92,
      "chip": "ym2612"
    },
    {
      "channel": 3,
      "note": 51,
      "start": 42.8327,
      "duration": 0.0285,
      "velocity": 127,
      "chip": "ym2612"
    },
    {
      "channel": 4,
      "note": 86,
      "start": 42.8336,
      "duration": 0.52,
      "velocity": 92,
      "chip": "ym2612"
    },
    {
      "channel": 5,
      "note": 82,
      "start": 42.8344,
      "duration": 0.7821,
      "velocity": 92,
      "chip": "ym2612"
    },
    {
      "channel": 3,
      "note": 51,
      "start": 43.3529,
      "duration": 0.0284,
      "velocity": 127,
      "chip": "ym2612"
    },
    {
      "channel": 4,
      "note": 77,
      "start": 43.3539,
      "duration": 0.124,
      "velocity": 92,
      "chip": "ym2612"
    },
    {
      "channel": 4,
      "note": 82,
      "start": 43.4782,
      "duration": 0.1374,
      "velocity": 92,
      "chip": "ym2612"
    },
    {
      "channel": 0,
      "note": 50,
      "start": 43.6127,
      "duration": 0.7699,
      "velocity": 104,
      "chip": "ym2612"
    },
    {
      "channel": 1,
      "note": 46,
      "start": 43.6135,
      "duration": 0.7699,
      "velocity": 104,
      "chip": "ym2612"
    },
    {
      "channel": 2,
      "note": 58,
      "start": 43.6142,
      "duration": 1.5501,
      "velocity": 95,
      "chip": "ym2612"
    },
    {
      "channel": 3,
      "note": 51,
      "start": 43.6151,
      "duration": 0.0554,
      "velocity": 127,
      "chip": "ym2612"
    },
    {
      "channel": 4,
      "note": 86,
      "start": 43.616,
      "duration": 0.7691,
      "velocity": 92,
      "chip": "ym2612"
    },
    {
      "channel": 5,
      "note": 82,
      "start": 43.6167,
      "duration": 0.7691,
      "velocity": 92,
      "chip": "ym2612"
    },
    {
      "channel": 0,
      "note": 53,
      "start": 44.3829,
      "duration": 0.7798,
      "velocity": 104,
      "chip": "ym2612"
    },
    {
      "channel": 1,
      "note": 44,
      "start": 44.3837,
      "duration": 0.7799,
      "velocity": 104,
      "chip": "ym2612"
    },
    {
      "channel": 3,
      "note": 51,
      "start": 44.3846,
      "duration": 0.0368,
      "velocity": 127,
      "chip": "ym2612"
    },
    {
      "channel": 4,
      "note": 86,
      "start": 44.3854,
      "duration": 0.7807,
      "velocity": 92,
      "chip": "ym2612"
    },
    {
      "channel": 5,
      "note": 82,
      "start": 44.3862,
      "duration": 0.7807,
      "velocity": 92,
      "chip": "ym2612"
    },
    {
      "channel": 3,
      "note": 51,
      "start": 44.9034,
      "duration": 0.038,
      "velocity": 127,
      "chip": "ym2612"
    },
    {
      "channel": 0,
      "note": 51,
      "start": 45.163,
      "duration": 0.7123,
      "velocity": 104,
      "chip": "ym2612"
    },
    {
      "channel": 1,
      "note": 43,
      "start": 45.164,
      "duration": 0.7118,
      "velocity": 104,
      "chip": "ym2612"
    },
    {
      "channel": 2,
      "note": 63,
      "start": 45.1648,
      "duration": 1.5598,
      "velocity": 95,
      "chip": "ym2612"
    },
    {
      "channel": 3,
      "note": 51,
      "start": 45.1656,
      "duration": 0.0647,
      "velocity": 127,
      "chip": "ym2612"
    },
    {
      "channel": 4,
      "note": 87,
      "start": 45.1665,
      "duration": 0.7859,
      "velocity": 92,
      "chip": "ym2612"
    },
    {
      "channel": 5,
      "note": 82,
      "start": 45.1672,
      "duration": 0.7859,
      "velocity": 92,
      "chip": "ym2612"
    },
    {
      "channel": 0,
      "note": 79,
      "start": 45.9465,
      "duration": 0.2564,
      "velocity": 90,
      "chip": "ym2612"
    },
    {
      "channel": 1,
      "note": 75,
      "start": 45.9511,
      "duration": 0.2526,
      "velocity": 90,
      "chip": "ym2612"
    },
    {
      "channel": 3,
      "note": 51,
      "start": 45.9519,
      "duration": 0.0296,
      "velocity": 127,
      "chip": "ym2612"
    },
    {
      "channel": 4,
      "note": 87,
      "start": 45.9527,
      "duration": 0.5126,
      "velocity": 92,
      "chip": "ym2612"
    },
    {
      "channel": 5,
      "note": 82,
      "start": 45.9535,
      "duration": 0.7737,
      "velocity": 92,
      "chip": "ym2612"
    },
    {
      "channel": 0,
      "note": 80,
      "start": 46.2032,
      "duration": 0.2596,
      "velocity": 90,
      "chip": "ym2612"
    },
    {
      "channel": 1,
      "note": 77,
      "start": 46.204,
      "duration": 0.2596,
      "velocity": 90,
      "chip": "ym2612"
    },
    {
      "channel": 0,
      "note": 82,
      "start": 46.4632,
      "duration": 0.2598,
      "velocity": 90,
      "chip": "ym2612"
    },
    {
      "channel": 1,
      "note": 79,
      "start": 46.4639,
      "duration": 0.2599,
      "velocity": 90,
      "chip": "ym2612"
    },
    {
      "channel": 3,
      "note": 51,
      "start": 46.4648,
      "duration": 0.0272,
      "velocity": 127,
      "chip": "ym2612"
    },
    {
      "channel": 4,
      "note": 79,
      "start": 46.4657,
      "duration": 0.1324,
      "velocity": 92,
      "chip": "ym2612"
    },
    {
      "channel": 4,
      "note": 82,
      "start": 46.5985,
      "duration": 0.1279,
      "velocity": 92,
      "chip": "ym2612"
    },
    {
      "channel": 0,
      "note": 83,
      "start": 46.7232,
      "duration": 0.5198,
      "velocity": 90,
      "chip": "ym2612"
    },
    {
      "channel": 1,
      "note": 80,
      "start": 46.7242,
      "duration": 0.5198,
      "velocity": 90,
      "chip": "ym2612"
    },
    {
      "channel": 2,
      "note": 58,
      "start": 46.7249,
      "duration": 1.56,
      "velocity": 95,
      "chip": "ym2612"
    },
    {
      "channel": 3,
      "note": 51,
      "start": 46.7258,
      "duration": 0.0647,
      "velocity": 127,
      "chip": "ym2612"
    },
    {
      "channel": 4,
      "note": 87,
      "start": 46.7268,
      "duration": 0.7772,
      "velocity": 92,
      "chip": "ym2612"
    },
    {
      "channel": 5,
      "note": 83,
      "start": 46.7275,
      "duration": 0.7772,
      "velocity": 92,
      "chip": "ym2612"
    },
    {
      "channel": 0,
      "note": 82,
      "start": 47.2434,
      "duration": 0.5195,
      "velocity": 90,
      "chip": "ym2612"
    },
    {
      "channel": 1,
      "note": 79,
      "start": 47.2443,
      "duration": 0.5194,
      "velocity": 90,
      "chip": "ym2612"
    },
    {
      "channel": 3,
      "note": 51,
      "start": 47.5036,
      "duration": 0.0285,
      "velocity": 127,
      "chip": "ym2612"
    },
    {
      "channel": 4,
      "note": 87,
      "start": 47.5044,
      "duration": 0.7822,
      "velocity": 92,
      "chip": "ym2612"
    },
    {
      "channel": 5,
      "note": 83,
      "start": 47.5051,
      "duration": 0.7822,
      "velocity": 92,
      "chip": "ym2612"
    },
    {
      "channel": 0,
      "note": 80,
      "start": 47.7633,
      "duration": 0.5198,
      "velocity": 90,
      "chip": "ym2612"
    },
    {
      "channel": 1,
      "note": 77,
      "start": 47.7641,
      "duration": 0.5198,
      "velocity": 90,
      "chip": "ym2612"
    },
    {
      "channel": 3,
      "note": 51,
      "start": 48.0236,
      "duration": 0.0285,
      "velocity": 127,
      "chip": "ym2612"
    },
    {
      "channel": 0,
      "note": 79,
      "start": 48.2834,
      "duration": 1.4922,
      "velocity": 90,
      "chip": "ym2612"
    },
    {
      "channel": 1,
      "note": 75,
      "start": 48.2843,
      "duration": 1.492,
      "velocity": 90,
      "chip": "ym2612"
    },
    {
      "channel": 2,
      "note": 63,
      "start": 48.2852,
      "duration": 0.778,
      "velocity": 95,
      "chip": "ym2612"
    },
    {
      "channel": 3,
      "note": 51,
      "start": 48.2862,
      "duration": 0.0548,
      "velocity": 127,
      "chip": "ym2612"
    },
    {
      "channel": 4,
      "note": 87,
      "start": 48.287,
      "duration": 0.7778,
      "velocity": 92,
      "chip": "ym2612"
    },
    {
      "channel": 5,
      "note": 82,
      "start": 48.2877,
      "duration": 0.7779,
      "velocity": 92,
      "chip": "ym2612"
    },
    {
      "channel": 2,
      "note": 63,
      "start": 49.0636,
      "duration": 0.7788,
      "velocity": 95,
      "chip": "ym2612"
    },
    {
      "channel": 3,
      "note": 51,
      "start": 49.0644,
      "duration": 0.0277,
      "velocity": 127,
      "chip": "ym2612"
    },
    {
      "channel": 4,
      "note": 87,
      "start": 49.0652,
      "duration": 0.7791,
      "velocity": 92,
      "chip": "ym2612"
    },
    {
      "channel": 5,
      "note": 82,
      "start": 49.066,
      "duration": 0.7787,
      "velocity": 92,
      "chip": "ym2612"
    },
    {
      "channel": 3,
      "note": 51,
      "start": 49.5742,
      "duration": 0.0381,
      "velocity": 127,
      "chip": "ym2612"
    },
    {
      "channel": 0,
      "note": 46,
      "start": 49.8373,
      "duration": 0.7763,
      "velocity": 104,
      "chip": "ym2612"
    },
    {
      "channel": 1,
      "note": 43,
      "start": 49.842,
      "duration": 1.5526,
      "velocity": 104,
      "chip": "ym2612"
    },
    {
      "channel": 2,
      "note": 65,
      "start": 49.8429,
      "duration": 0.7715,
      "velocity": 95,
      "chip": "ym2612"
    },
    {
      "channel": 3,
      "note": 51,
      "start": 49.8438,
      "duration": 0.0573,
      "velocity": 127,
      "chip": "ym2612"
    },
    {
      "channel": 0,
      "note": 47,
      "start": 50.6139,
      "duration": 0.7797,
      "velocity": 104,
      "chip": "ym2612"
    },
    {
      "channel": 2,
      "note": 67,
      "start": 50.6148,
      "duration": 0.7809,
      "velocity": 95,
      "chip": "ym2612"
    },
    {
      "channel": 3,
      "note": 51,
      "start": 50.6156,
      "duration": 0.0368,
      "velocity": 127,
      "chip": "ym2612"
    },
    {
      "channel": 3,
      "note": 51,
      "start": 51.1343,
      "duration": 0.0285,
      "velocity": 127,
      "chip": "ym2612"
    },
    {
      "channel": 0,
      "note": 48,
      "start": 51.394,
      "duration": 1.5598,
      "velocity": 104,
      "chip": "ym2612"
    },
    {
      "channel": 1,
      "note": 44,
      "start": 51.3949,
      "duration": 1.5597,
      "velocity": 104,
      "chip": "ym2612"
    },
    {
      "channel": 2,
      "note": 68,
      "start": 51.396,
      "duration": 1.5595,
      "velocity": 95,
      "chip": "ym2612"
    },
    {
      "channel": 3,
      "note": 51,
      "start": 51.3969,
      "duration": 0.0644,
      "velocity": 127,
      "chip": "ym2612"
    },
    {
      "channel": 4,
      "note": 87,
      "start": 51.398,
      "duration": 0.7768,
      "velocity": 92,
      "chip": "ym2612"
    },
    {
      "channel": 5,
      "note": 84,
      "start": 51.3987,
      "duration": 0.7769,
      "velocity": 92,
      "chip": "ym2612"
    },
    {
      "channel": 3,
      "note": 51,
      "start": 52.1744,
      "duration": 0.0284,
      "velocity": 127,
      "chip": "ym2612"
    },
    {
      "channel": 4,
      "note": 87,
      "start": 52.1752,
      "duration": 0.5196,
      "velocity": 92,
      "chip": "ym2612"
    },
    {
      "channel": 5,
      "note": 84,
      "start": 52.1761,
      "duration": 0.7819,
      "velocity": 92,
      "chip": "ym2612"
    },
    {
      "channel": 3,
      "note": 51,
      "start": 52.6945,
      "duration": 0.0284,
      "velocity": 127,
      "chip": "ym2612"
    },
    {
      "channel": 4,
      "note": 80,
      "start": 52.6952,
      "duration": 0.1241,
      "velocity": 92,
      "chip": "ym2612"
    },
    {
      "channel": 4,
      "note": 84,
      "start": 52.8197,
      "duration": 0.1375,
      "velocity": 92,
      "chip": "ym2612"
    },
    {
      "channel": 0,
      "note": 51,
      "start": 52.9542,
      "duration": 1.5504,
      "velocity": 104,
      "chip": "ym2612"
    },
    {
      "channel": 1,
      "note": 48,
      "start": 52.955,
      "duration": 1.5506,
      "velocity": 104,
      "chip": "ym2612"
    },
    {
      "channel": 2,
      "note": 63,
      "start": 52.9559,
      "duration": 1.5506,
      "velocity": 95,
      "chip": "ym2612"
    },
    {
      "channel": 3,
      "note": 51,
      "start": 52.9568,
      "duration": 0.055,
      "velocity": 127,
      "chip": "ym2612"
    },
    {
      "channel": 4,
      "note": 87,
      "start": 52.9576,
      "duration": 0.7774,
      "velocity": 92,
      "chip": "ym2612"
    },
    {
      "channel": 5,
      "note": 84,
      "start": 52.9583,
      "duration": 0.7774,
      "velocity": 92,
      "chip": "ym2612"
    },
    {
      "channel": 3,
      "note": 51,
      "start": 53.7345,
      "duration": 0.0285,
      "velocity": 127,
      "chip": "ym2612"
    },
    {
      "channel": 4,
      "note": 87,
      "start": 53.7354,
      "duration": 0.773,
      "velocity": 92,
      "chip": "ym2612"
    },
    {
      "channel": 5,
      "note": 84,
      "start": 53.7361,
      "duration": 0.773,
      "velocity": 92,
      "chip": "ym2612"
    },
    {
      "channel": 3,
      "note": 51,
      "start": 54.245,
      "duration": 0.0381,
      "velocity": 127,
      "chip": "ym2612"
    },
    {
      "channel": 0,
      "note": 51,
      "start": 54.505,
      "duration": 2.3396,
      "velocity": 104,
      "chip": "ym2612"
    },
    {
      "channel": 1,
      "note": 48,
      "start": 54.506,
      "duration": 2.3395,
      "velocity": 104,
      "chip": "ym2612"
    },
    {
      "channel": 2,
      "note": 68,
      "start": 54.5069,
      "duration": 1.5578,
      "velocity": 95,
      "chip": "ym2612"
    },
    {
      "channel": 3,
      "note": 51,
      "start": 54.5078,
      "duration": 0.0648,
      "velocity": 127,
      "chip": "ym2612"
    },
    {
      "channel": 4,
      "note": 87,
      "start": 54.5087,
      "duration": 0.7768,
      "velocity": 92,
      "chip": "ym2612"
    },
    {
      "channel": 5,
      "note": 84,
      "start": 54.5097,
      "duration": 0.7766,
      "velocity": 92,
      "chip": "ym2612"
    },
    {
      "channel": 3,
      "note": 51,
      "start": 55.285,
      "duration": 0.0381,
      "velocity": 127,
      "chip": "ym2612"
    },
    {
      "channel": 4,
      "note": 87,
      "start": 55.2859,
      "duration": 0.5197,
      "velocity": 92,
      "chip": "ym2612"
    },
    {
      "channel": 5,
      "note": 84,
      "start": 55.2866,
      "duration": 0.7805,
      "velocity": 92,
      "chip": "ym2612"
    },
    {
      "channel": 3,
      "note": 51,
      "start": 55.8051,
      "duration": 0.0382,
      "velocity": 127,
      "chip": "ym2612"
    },
    {
      "channel": 4,
      "note": 80,
      "start": 55.8059,
      "duration": 0.1337,
      "velocity": 92,
      "chip": "ym2612"
    },
    {
      "channel": 4,
      "note": 84,
      "start": 55.94,
      "duration": 0.1263,
      "velocity": 92,
      "chip": "ym2612"
    },
    {
      "channel": 2,
      "note": 68,
      "start": 56.065,
      "duration": 1.562,
      "velocity": 95,
      "chip": "ym2612"
    },
    {
      "channel": 3,
      "note": 51,
      "start": 56.066,
      "duration": 0.0661,
      "velocity": 127,
      "chip": "ym2612"
    },
    {
      "channel": 4,
      "note": 87,
      "start": 56.0667,
      "duration": 0.7803,
      "velocity": 92,
      "chip": "ym2612"
    },
    {
      "channel": 5,
      "note": 84,
      "start": 56.0675,
      "duration": 0.7803,
      "velocity": 92,
      "chip": "ym2612"
    },
    {
      "channel": 0,
      "note": 48,
      "start": 56.845,
      "duration": 0.7798,
      "velocity": 104,
      "chip": "ym2612"
    },
    {
      "channel": 1,
      "note": 44,
      "start": 56.8457,
      "duration": 0.7802,
      "velocity": 104,
      "chip": "ym2612"
    },
    {
      "channel": 3,
      "note": 51,
      "start": 56.8466,
      "duration": 0.027,
      "velocity": 127,
      "chip": "ym2612"
    },
    {
      "channel": 4,
      "note": 87,
      "start": 56.8474,
      "duration": 0.7817,
      "velocity": 92,
      "chip": "ym2612"
    },
    {
      "channel": 5,
      "note": 84,
      "start": 56.8482,
      "duration": 0.7819,
      "velocity": 92,
      "chip": "ym2612"
    },
    {
      "channel": 3,
      "note": 51,
      "start": 57.3653,
      "duration": 0.0285,
      "velocity": 127,
      "chip": "ym2612"
    },
    {
      "channel": 0,
      "note": 48,
      "start": 57.6252,
      "duration": 1.5499,
      "velocity": 104,
      "chip": "ym2612"
    },
    {
      "channel": 1,
      "note": 44,
      "start": 57.6265,
      "duration": 1.5498,
      "velocity": 104,
      "chip": "ym2612"
    },
    {
      "channel": 2,
      "note": 63,
      "start": 57.6273,
      "duration": 1.5497,
      "velocity": 95,
      "chip": "ym2612"
    },
    {
      "channel": 3,
      "note": 51,
      "start": 57.6282,
      "duration": 0.0648,
      "velocity": 127,
      "chip": "ym2612"
    },
    {
      "channel": 4,
      "note": 87,
      "start": 57.6295,
      "duration": 0.7763,
      "velocity": 92,
      "chip": "ym2612"
    },
    {
      "channel": 5,
      "note": 82,
      "start": 57.6305,
      "duration": 0.7762,
      "velocity": 92,
      "chip": "ym2612"
    },
    {
      "channel": 3,
      "note": 51,
      "start": 58.4053,
      "duration": 0.0285,
      "velocity": 127,
      "chip": "ym2612"
    },
    {
      "channel": 4,
      "note": 87,
      "start": 58.4062,
      "duration": 0.5199,
      "velocity": 92,
      "chip": "ym2612"
    },
    {
      "channel": 5,
      "note": 82,
      "start": 58.4071,
      "duration": 0.7726,
      "velocity": 92,
      "chip": "ym2612"
    },
    {
      "channel": 3,
      "note": 51,
      "start": 58.9254,
      "duration": 0.0285,
      "velocity": 127,
      "chip": "ym2612"
    },
    {
      "channel": 4,
      "note": 79,
      "start": 58.9265,
      "duration": 0.124,
      "velocity": 92,
      "chip": "ym2612"
    },
    {
      "channel": 4,
      "note": 82,
      "start": 59.0508,
      "duration": 0.1279,
      "velocity": 92,
      "chip": "ym2612"
    },
    {
      "channel": 0,
      "note": 51,
      "start": 59.1755,
      "duration": 1.5599,
      "velocity": 104,
      "chip": "ym2612"
    },
    {
      "channel": 1,
      "note": 46,
      "start": 59.1766,
      "duration": 1.5599,
      "velocity": 104,
      "chip": "ym2612"
    },
    {
      "channel": 2,
      "note": 58,
      "start": 59.1773,
      "duration": 1.5599,
      "velocity": 95,
      "chip": "ym2612"
    },
    {
      "channel": 3,
      "note": 51,
      "start": 59.1782,
      "duration": 0.0647,
      "velocity": 127,
      "chip": "ym2612"
    },
    {
      "channel": 4,
      "note": 87,
      "start": 59.1791,
      "duration": 0.7772,
      "velocity": 92,
      "chip": "ym2612"
    },
    {
      "channel": 5,
      "note": 82,
      "start": 59.18,
      "duration": 0.7772,
      "velocity": 92,
      "chip": "ym2612"
    },
    {
      "channel": 3,
      "note": 51,
      "start": 59.9559,
      "duration": 0.0381,
      "velocity": 127,
      "chip": "ym2612"
    },
    {
      "channel": 4,
      "note": 87,
      "start": 59.9567,
      "duration": 0.7824,
      "velocity": 92,
      "chip": "ym2612"
    },
    {
      "channel": 5,
      "note": 82,
      "start": 59.9576,
      "duration": 0.7824,
      "velocity": 92,
      "chip": "ym2612"
    },
    {
      "channel": 3,
      "note": 51,
      "start": 60.4761,
      "duration": 0.038,
      "velocity": 127,
      "chip": "ym2612"
    },
    {
      "channel": 0,
      "note": 51,
      "start": 60.7359,
      "duration": 2.3396,
      "velocity": 104,
      "chip": "ym2612"
    },
    {
      "channel": 1,
      "note": 46,
      "start": 60.7368,
      "duration": 2.3397,
      "velocity": 104,
      "chip": "ym2612"
    },
    {
      "channel": 2,
      "note": 63,
      "start": 60.7376,
      "duration": 1.558,
      "velocity": 95,
      "chip": "ym2612"
    },
    {
      "channel": 3,
      "note": 51,
      "start": 60.7385,
      "duration": 0.065,
      "velocity": 127,
      "chip": "ym2612"
    },
    {
      "channel": 4,
      "note": 87,
      "start": 60.7394,
      "duration": 0.777,
      "velocity": 92,
      "chip": "ym2612"
    },
    {
      "channel": 5,
      "note": 82,
      "start": 60.7404,
      "duration": 0.777,
      "velocity": 92,
      "chip": "ym2612"
    },
    {
      "channel": 3,
      "note": 51,
      "start": 61.516,
      "duration": 0.0285,
      "velocity": 127,
      "chip": "ym2612"
    },
    {
      "channel": 4,
      "note": 87,
      "start": 61.5168,
      "duration": 0.5198,
      "velocity": 92,
      "chip": "ym2612"
    },
    {
      "channel": 5,
      "note": 82,
      "start": 61.5177,
      "duration": 0.7805,
      "velocity": 92,
      "chip": "ym2612"
    },
    {
      "channel": 3,
      "note": 51,
      "start": 62.0361,
      "duration": 0.0285,
      "velocity": 127,
      "chip": "ym2612"
    },
    {
      "channel": 4,
      "note": 79,
      "start": 62.037,
      "duration": 0.1242,
      "velocity": 92,
      "chip": "ym2612"
    },
    {
      "channel": 4,
      "note": 82,
      "start": 62.1615,
      "duration": 0.1359,
      "velocity": 92,
      "chip": "ym2612"
    },
    {
      "channel": 2,
      "note": 63,
      "start": 62.296,
      "duration": 1.5615,
      "velocity": 95,
      "chip": "ym2612"
    },
    {
      "channel": 3,
      "note": 51,
      "start": 62.2969,
      "duration": 0.0662,
      "velocity": 127,
      "chip": "ym2612"
    },
    {
      "channel": 4,
      "note": 87,
      "start": 62.2977,
      "duration": 0.7805,
      "velocity": 92,
      "chip": "ym2612"
    },
    {
      "channel": 5,
      "note": 82,
      "start": 62.2987,
      "duration": 0.7804,
      "velocity": 92,
      "chip": "ym2612"
    },
    {
      "channel": 0,
      "note": 51,
      "start": 63.0759,
      "duration": 0.7797,
      "velocity": 104,
      "chip": "ym2612"
    },
    {
      "channel": 1,
      "note": 43,
      "start": 63.0769,
      "duration": 0.7798,
      "velocity": 104,
      "chip": "ym2612"
    },
    {
      "channel": 3,
      "note": 51,
      "start": 63.0777,
      "duration": 0.0269,
      "velocity": 127,
      "chip": "ym2612"
    },
    {
      "channel": 4,
      "note": 87,
      "start": 63.0785,
      "duration": 0.7812,
      "velocity": 92,
      "chip": "ym2612"
    },
    {
      "channel": 5,
      "note": 82,
      "start": 63.0795,
      "duration": 0.7812,
      "velocity": 92,
      "chip": "ym2612"
    },
    {
      "channel": 3,
      "note": 51,
      "start": 63.5962,
      "duration": 0.0284,
      "velocity": 127,
      "chip": "ym2612"
    },
    {
      "channel": 0,
      "note": 50,
      "start": 63.856,
      "duration": 1.2902,
      "velocity": 104,
      "chip": "ym2612"
    },
    {
      "channel": 1,
      "note": 43,
      "start": 63.8571,
      "duration": 1.2898,
      "velocity": 104,
      "chip": "ym2612"
    },
    {
      "channel": 2,
      "note": 58,
      "start": 63.8578,
      "duration": 1.5498,
      "velocity": 95,
      "chip": "ym2612"
    },
    {
      "channel": 3,
      "note": 51,
      "start": 63.8588,
      "duration": 0.0551,
      "velocity": 127,
      "chip": "ym2612"
    },
    {
      "channel": 4,
      "note": 86,
      "start": 63.8601,
      "duration": 0.7671,
      "velocity": 92,
      "chip": "ym2612"
    },
    {
      "channel": 5,
      "note": 82,
      "start": 63.861,
      "duration": 0.7672,
      "velocity": 92,
      "chip": "ym2612"
    },
    {
      "channel": 3,
      "note": 51,
      "start": 64.6268,
      "duration": 0.038,
      "velocity": 127,
      "chip": "ym2612"
    },
    {
      "channel": 4,
      "note": 86,
      "start": 64.6276,
      "duration": 0.5212,
      "velocity": 92,
      "chip": "ym2612"
    },
    {
      "channel": 5,
      "note": 82,
      "start": 64.6285,
      "duration": 0.7818,
      "velocity": 92,
      "chip": "ym2612"
    },
    {
      "channel": 0,
      "note": 49,
      "start": 65.1464,
      "duration": 0.2597,
      "velocity": 104,
      "chip": "ym2612"
    },
    {
      "channel": 1,
      "note": 45,
      "start": 65.1473,
      "duration": 0.2596,
      "velocity": 104,
      "chip": "ym2612"
    },
    {
      "channel": 3,
      "note": 51,
      "start": 65.1481,
      "duration": 0.0367,
      "velocity": 127,
      "chip": "ym2612"
    },
    {
      "channel": 4,
      "note": 77,
      "start": 65.1492,
      "duration": 0.1322,
      "velocity": 92,
      "chip": "ym2612"
    },
    {
      "channel": 4,
      "note": 82,
      "start": 65.2817,
      "duration": 0.1277,
      "velocity": 92,
      "chip": "ym2612"
    },
    {
      "channel": 0,
      "note": 50,
      "start": 65.4065,
      "duration": 0.7797,
      "velocity": 104,
      "chip": "ym2612"
    },
    {
      "channel": 1,
      "note": 46,
      "start": 65.4073,
      "duration": 0.7797,
      "velocity": 104,
      "chip": "ym2612"
    },
    {
      "channel": 2,
      "note": 65,
      "start": 65.408,
      "duration": 1.5602,
      "velocity": 95,
      "chip": "ym2612"
    },
    {
      "channel": 3,
      "note": 51,
      "start": 65.4089,
      "duration": 0.0649,
      "velocity": 127,
      "chip": "ym2612"
    },
    {
      "channel": 4,
      "note": 86,
      "start": 65.4099,
      "duration": 0.7788,
      "velocity": 92,
      "chip": "ym2612"
    },
    {
      "channel": 5,
      "note": 82,
      "start": 65.4107,
      "duration": 0.7788,
      "velocity": 92,
      "chip": "ym2612"
    },
    {
      "channel": 0,
      "note": 51,
      "start": 66.1866,
      "duration": 0.7798,
      "velocity": 104,
      "chip": "ym2612"
    },
    {
      "channel": 1,
      "note": 48,
      "start": 66.1873,
      "duration": 0.7799,
      "velocity": 104,
      "chip": "ym2612"
    },
    {
      "channel": 3,
      "note": 51,
      "start": 66.1882,
      "duration": 0.0272,
      "velocity": 127,
      "chip": "ym2612"
    },
    {
      "channel": 4,
      "note": 86,
      "start": 66.189,
      "duration": 0.7811,
      "velocity": 92,
      "chip": "ym2612"
    },
    {
      "channel": 5,
      "note": 82,
      "start": 66.1899,
      "duration": 0.7811,
      "velocity": 92,
      "chip": "ym2612"
    },
    {
      "channel": 3,
      "note": 51,
      "start": 66.7069,
      "duration": 0.0285,
      "velocity": 127,
      "chip": "ym2612"
    },
    {
      "channel": 0,
      "note": 53,
      "start": 66.9667,
      "duration": 0.7796,
      "velocity": 104,
      "chip": "ym2612"
    },
    {
      "channel": 1,
      "note": 50,
      "start": 66.9676,
      "duration": 0.7795,
      "velocity": 104,
      "chip": "ym2612"
    },
    {
      "channel": 2,
      "note": 58,
      "start": 66.9686,
      "duration": 0.7793,
      "velocity": 95,
      "chip": "ym2612"
    },
    {
      "channel": 3,
      "note": 51,
      "start": 66.9695,
      "duration": 0.0644,
      "velocity": 127,
      "chip": "ym2612"
    },
    {
      "channel": 4,
      "note": 86,
      "start": 66.9704,
      "duration": 0.779,
      "velocity": 92,
      "chip": "ym2612"
    },
    {
      "channel": 5,
      "note": 82,
      "start": 66.9714,
      "duration": 0.779,
      "velocity": 92,
      "chip": "ym2612"
    },
    {
      "channel": 0,
      "note": 53,
      "start": 67.7467,
      "duration": 0.78,
      "velocity": 104,
      "chip": "ym2612"
    },
    {
      "channel": 1,
      "note": 50,
      "start": 67.7475,
      "duration": 0.78,
      "velocity": 104,
      "chip": "ym2612"
    },
    {
      "channel": 2,
      "note": 58,
      "start": 67.7482,
      "duration": 0.78,
      "velocity": 95,
      "chip": "ym2612"
    },
    {
      "channel": 3,
      "note": 51,
      "start": 67.749,
      "duration": 0.0265,
      "velocity": 127,
      "chip": "ym2612"
    },
    {
      "channel": 4,
      "note": 86,
      "start": 67.7498,
      "duration": 0.5179,
      "velocity": 92,
      "chip": "ym2612"
    },
    {
      "channel": 5,
      "note": 82,
      "start": 67.7507,
      "duration": 0.7801,
      "velocity": 92,
      "chip": "ym2612"
    },
    {
      "channel": 3,
      "note": 51,
      "start": 68.2671,
      "duration": 0.0285,
      "velocity": 127,
      "chip": "ym2612"
    },
    {
      "channel": 4,
      "note": 77,
      "start": 68.2681,
      "duration": 0.1239,
      "velocity": 92,
      "chip": "ym2612"
    },
    {
      "channel": 4,
      "note": 82,
      "start": 68.3924,
      "duration": 0.1375,
      "velocity": 92,
      "chip": "ym2612"
    },
    {
      "channel": 0,
      "note": 56,
      "start": 68.527,
      "duration": 0.7698,
      "velocity": 104,
      "chip": "ym2612"
    },
    {
      "channel": 1,
      "note": 53,
      "start": 68.5278,
      "duration": 0.7698,
      "velocity": 104,
      "chip": "ym2612"
    },
    {
      "channel": 2,
      "note": 60,
      "start": 68.5285,
      "duration": 0.7699,
      "velocity": 95,
      "chip": "ym2612"
    },
    {
      "channel": 3,
      "note": 51,
      "start": 68.5295,
      "duration": 0.0549,
      "velocity": 127,
      "chip": "ym2612"
    },
    {
      "channel": 4,
      "note": 86,
      "start": 68.5303,
      "duration": 0.7697,
      "velocity": 92,
      "chip": "ym2612"
    },
    {
      "channel": 5,
      "note": 82,
      "start": 68.5312,
      "duration": 0.7697,
      "velocity": 92,
      "chip": "ym2612"
    },
    {
      "channel": 0,
      "note": 56,
      "start": 69.2972,
      "duration": 0.7798,
      "velocity": 104,
      "chip": "ym2612"
    },
    {
      "channel": 1,
      "note": 53,
      "start": 69.298,
      "duration": 0.7799,
      "velocity": 104,
      "chip": "ym2612"
    },
    {
      "channel": 2,
      "note": 62,
      "start": 69.2987,
      "duration": 0.7801,
      "velocity": 95,
      "chip": "ym2612"
    },
    {
      "channel": 3,
      "note": 51,
      "start": 69.2995,
      "duration": 0.0361,
      "velocity": 127,
      "chip": "ym2612"
    },
    {
      "channel": 4,
      "note": 86,
      "start": 69.3003,
      "duration": 0.7806,
      "velocity": 92,
      "chip": "ym2612"
    },
    {
      "channel": 5,
      "note": 82,
      "start": 69.3012,
      "duration": 0.7807,
      "velocity": 92,
      "chip": "ym2612"
    },
    {
      "channel": 3,
      "note": 51,
      "start": 69.8176,
      "duration": 0.0381,
      "velocity": 127,
      "chip": "ym2612"
    },
    {
      "channel": 0,
      "note": 55,
      "start": 70.0774,
      "duration": 3.12,
      "velocity": 104,
      "chip": "ym2612"
    },
    {
      "channel": 1,
      "note": 51,
      "start": 70.0782,
      "duration": 3.1202,
      "velocity": 104,
      "chip": "ym2612"
    },
    {
      "channel": 2,
      "note": 63,
      "start": 70.0792,
      "duration": 1.5581,
      "velocity": 95,
      "chip": "ym2612"
    },
    {
      "channel": 3,
      "note": 51,
      "start": 70.0801,
      "duration": 0.0645,
      "velocity": 127,
      "chip": "ym2612"
    },
    {
      "channel": 4,
      "note": 87,
      "start": 70.0813,
      "duration": 0.7768,
      "velocity": 92,
      "chip": "ym2612"
    },
    {
      "channel": 5,
      "note": 82,
      "start": 70.0822,
      "duration": 0.7768,
      "velocity": 92,
      "chip": "ym2612"
    },
    {
      "channel": 3,
      "note": 51,
      "start": 70.8577,
      "duration": 0.0284,
      "velocity": 127,
      "chip": "ym2612"
    },
    {
      "channel": 4,
      "note": 87,
      "start": 70.8585,
      "duration": 0.5198,
      "velocity": 92,
      "chip": "ym2612"
    },
    {
      "channel": 5,
      "note": 82,
      "start": 70.8595,
      "duration": 0.7803,
      "velocity": 92,
      "chip": "ym2612"
    },
    {
      "channel": 3,
      "note": 51,
      "start": 71.3777,
      "duration": 0.0284,
      "velocity": 127,
      "chip": "ym2612"
    },
    {
      "channel": 4,
      "note": 79,
      "start": 71.3785,
      "duration": 0.1242,
      "velocity": 92,
      "chip": "ym2612"
    },
    {
      "channel": 4,
      "note": 82,
      "start": 71.5031,
      "duration": 0.1359,
      "velocity": 92,
      "chip": "ym2612"
    },
    {
      "channel": 2,
      "note": 58,
      "start": 71.6376,
      "duration": 1.5616,
      "velocity": 95,
      "chip": "ym2612"
    },
    {
      "channel": 3,
      "note": 51,
      "start": 71.6385,
      "duration": 0.0662,
      "velocity": 127,
      "chip": "ym2612"
    },
    {
      "channel": 4,
      "note": 87,
      "start": 71.6394,
      "duration": 0.7788,
      "velocity": 92,
      "chip": "ym2612"
    },
    {
      "channel": 5,
      "note": 82,
      "start": 71.6403,
      "duration": 0.7789,
      "velocity": 92,
      "chip": "ym2612"
    },
    {
      "channel": 3,
      "note": 51,
      "start": 72.4178,
      "duration": 0.0285,
      "velocity": 127,
      "chip": "ym2612"
    },
    {
      "channel": 4,
      "note": 87,
      "start": 72.4186,
      "duration": 0.7824,
      "velocity": 92,
      "chip": "ym2612"
    },
    {
      "channel": 5,
      "note": 82,
      "start": 72.4195,
      "duration": 0.7824,
      "velocity": 92,
      "chip": "ym2612"
    },
    {
      "channel": 3,
      "note": 51,
      "start": 72.9378,
      "duration": 0.0285,
      "velocity": 127,
      "chip": "ym2612"
    },
    {
      "channel": 0,
      "note": 55,
      "start": 73.1978,
      "duration": 1.5501,
      "velocity": 104,
      "chip": "ym2612"
    },
    {
      "channel": 1,
      "note": 51,
      "start": 73.1988,
      "duration": 1.5501,
      "velocity": 104,
      "chip": "ym2612"
    },
    {
      "channel": 2,
      "note": 63,
      "start": 73.1995,
      "duration": 1.5501,
      "velocity": 95,
      "chip": "ym2612"
    },
    {
      "channel": 3,
      "note": 51,
      "start": 73.2005,
      "duration": 0.0554,
      "velocity": 127,
      "chip": "ym2612"
    },
    {
      "channel": 4,
      "note": 87,
      "start": 73.2014,
      "duration": 0.7674,
      "velocity": 92,
      "chip": "ym2612"
    },
    {
      "channel": 5,
      "note": 82,
      "start": 73.2024,
      "duration": 0.7673,
      "velocity": 92,
      "chip": "ym2612"
    },
    {
      "channel": 3,
      "note": 51,
      "start": 73.9683,
      "duration": 0.0381,
      "velocity": 127,
      "chip": "ym2612"
    },
    {
      "channel": 4,
      "note": 87,
      "start": 73.9691,
      "duration": 0.5197,
      "velocity": 92,
      "chip": "ym2612"
    },
    {
      "channel": 5,
      "note": 82,
      "start": 73.97,
      "duration": 0.7823,
      "velocity": 92,
      "chip": "ym2612"
    },
    {
      "channel": 3,
      "note": 51,
      "start": 74.4883,
      "duration": 0.0382,
      "velocity": 127,
      "chip": "ym2612"
    },
    {
      "channel": 4,
      "note": 79,
      "start": 74.4893,
      "duration": 0.1338,
      "velocity": 92,
      "chip": "ym2612"
    },
    {
      "channel": 4,
      "note": 82,
      "start": 74.6234,
      "duration": 0.128,
      "velocity": 92,
      "chip": "ym2612"
    },
    {
      "channel": 0,
      "note": 46,
      "start": 74.7482,
      "duration": 0.7796,
      "velocity": 104,
      "chip": "ym2612"
    },
    {
      "channel": 1,
      "note": 43,
      "start": 74.7493,
      "duration": 1.5595,
      "velocity": 104,
      "chip": "ym2612"
    },
    {
      "channel": 2,
      "note": 63,
      "start": 74.7501,
      "duration": 1.5597,
      "velocity": 95,
      "chip": "ym2612"
    },
    {
      "channel": 3,
      "note": 51,
      "start": 74.751,
      "duration": 0.0644,
      "velocity": 127,
      "chip": "ym2612"
    },
    {
      "channel": 4,
      "note": 87,
      "start": 74.7518,
      "duration": 0.7778,
      "velocity": 92,
      "chip": "ym2612"
    },
    {
      "channel": 5,
      "note": 82,
      "start": 74.7527,
      "duration": 0.7778,
      "velocity": 92,
      "chip": "ym2612"
    },
    {
      "channel": 0,
      "note": 47,
      "start": 75.5282,
      "duration": 0.7797,
      "velocity": 104,
      "chip": "ym2612"
    },
    {
      "channel": 3,
      "note": 51,
      "start": 75.5291,
      "duration": 0.0375,
      "velocity": 127,
      "chip": "ym2612"
    },
    {
      "channel": 4,
      "note": 87,
      "start": 75.53,
      "duration": 0.7819,
      "velocity": 92,
      "chip": "ym2612"
    },
    {
      "channel": 5,
      "note": 82,
      "start": 75.5308,
      "duration": 0.782,
      "velocity": 92,
      "chip": "ym2612"
    },
    {
      "channel": 3,
      "note": 51,
      "start": 76.0485,
      "duration": 0.0284,
      "velocity": 127,
      "chip": "ym2612"
    },
    {
      "channel": 0,
      "note": 48,
      "start": 76.3083,
      "duration": 1.5598,
      "velocity": 104,
      "chip": "ym2612"
    },
    {
      "channel": 1,
      "note": 44,
      "start": 76.3092,
      "duration": 1.5597,
      "velocity": 104,
      "chip": "ym2612"
    },
    {
      "channel": 2,
      "note": 56,
      "start": 76.3101,
      "duration": 1.5595,
      "velocity": 95,
      "chip": "ym2612"
    },
    {
      "channel": 3,
      "note": 51,
      "start": 76.311,
      "duration": 0.0646,
      "velocity": 127,
      "chip": "ym2612"
    },
    {
      "channel": 4,
      "note": 87,
      "start": 76.3122,
      "duration": 0.7768,
      "velocity": 92,
      "chip": "ym2612"
    },
    {
      "channel": 5,
      "note": 84,
      "start": 76.3132,
      "duration": 0.7766,
      "velocity": 92,
      "chip": "ym2612"
    },
    {
      "channel": 3,
      "note": 51,
      "start": 77.0886,
      "duration": 0.0285,
      "velocity": 127,
      "chip": "ym2612"
    },
    {
      "channel": 4,
      "note": 87,
      "start": 77.0894,
      "duration": 0.5197,
      "velocity": 92,
      "chip": "ym2612"
    },
    {
      "channel": 5,
      "note": 84,
      "start": 77.0902,
      "duration": 0.7819,
      "velocity": 92,
      "chip": "ym2612"
    },
    {
      "channel": 3,
      "note": 51,
      "start": 77.6086,
      "duration": 0.0285,
      "velocity": 127,
      "chip": "ym2612"
    },
    {
      "channel": 4,
      "note": 80,
      "start": 77.6096,
      "duration": 0.124,
      "velocity": 92,
      "chip": "ym2612"
    },
    {
      "channel": 4,
      "note": 84,
      "start": 77.734,
      "duration": 0.1373,
      "velocity": 92,
      "chip": "ym2612"
    },
    {
      "channel": 0,
      "note": 51,
      "start": 77.8684,
      "duration": 1.5504,
      "velocity": 104,
      "chip": "ym2612"
    },
    {
      "channel": 1,
      "note": 48,
      "start": 77.8692,
      "duration": 1.5506,
      "velocity": 104,
      "chip": "ym2612"
    },
    {
      "channel": 2,
      "note": 63,
      "start": 77.87,
      "duration": 1.5506,
      "velocity": 95,
      "chip": "ym2612"
    },
    {
      "channel": 3,
      "note": 51,
      "start": 77.8709,
      "duration": 0.0553,
      "velocity": 127,
      "chip": "ym2612"
    },
    {
      "channel": 4,
      "note": 87,
      "start": 77.8717,
      "duration": 0.7775,
      "velocity": 92,
      "chip": "ym2612"
    },
    {
      "channel": 5,
      "note": 84,
      "start": 77.8724,
      "duration": 0.7776,
      "velocity": 92,
      "chip": "ym2612"
    },
    {
      "channel": 3,
      "note": 51,
      "start": 78.6488,
      "duration": 0.0284,
      "velocity": 127,
      "chip": "ym2612"
    },
    {
      "channel": 4,
      "note": 87,
      "start": 78.6495,
      "duration": 0.7729,
      "velocity": 92,
      "chip": "ym2612"
    },
    {
      "channel": 5,
      "note": 84,
      "start": 78.6503,
      "duration": 0.7729,
      "velocity": 92,
      "chip": "ym2612"
    },
    {
      "channel": 3,
      "note": 51,
      "start": 79.1592,
      "duration": 0.0381,
      "velocity": 127,
      "chip": "ym2612"
    },
    {
      "channel": 0,
      "note": 51,
      "start": 79.4192,
      "duration": 2.3396,
      "velocity": 104,
      "chip": "ym2612"
    },
    {
      "channel": 1,
      "note": 48,
      "start": 79.4202,
      "duration": 2.3396,
      "velocity": 104,
      "chip": "ym2612"
    },
    {
      "channel": 2,
      "note": 56,
      "start": 79.421,
      "duration": 1.558,
      "velocity": 95,
      "chip": "ym2612"
    },
    {
      "channel": 3,
      "note": 51,
      "start": 79.4219,
      "duration": 0.0649,
      "velocity": 127,
      "chip": "ym2612"
    },
    {
      "channel": 4,
      "note": 87,
      "start": 79.4228,
      "duration": 0.7768,
      "velocity": 92,
      "chip": "ym2612"
    },
    {
      "channel": 5,
      "note": 84,
      "start": 79.4236,
      "duration": 0.7769,
      "velocity": 92,
      "chip": "ym2612"
    },
    {
      "channel": 3,
      "note": 51,
      "start": 80.1993,
      "duration": 0.0381,
      "velocity": 127,
      "chip": "ym2612"
    },
    {
      "channel": 4,
      "note": 87,
      "start": 80.2001,
      "duration": 0.5196,
      "velocity": 92,
      "chip": "ym2612"
    },
    {
      "channel": 5,
      "note": 84,
      "start": 80.2008,
      "duration": 0.7806,
      "velocity": 92,
      "chip": "ym2612"
    },
    {
      "channel": 3,
      "note": 51,
      "start": 80.7193,
      "duration": 0.0285,
      "velocity": 127,
      "chip": "ym2612"
    },
    {
      "channel": 4,
      "note": 80,
      "start": 80.7201,
      "duration": 0.1338,
      "velocity": 92,
      "chip": "ym2612"
    },
    {
      "channel": 4,
      "note": 84,
      "start": 80.8543,
      "duration": 0.1263,
      "velocity": 92,
      "chip": "ym2612"
    },
    {
      "channel": 2,
      "note": 56,
      "start": 80.9793,
      "duration": 1.5617,
      "velocity": 95,
      "chip": "ym2612"
    },
    {
      "channel": 3,
      "note": 51,
      "start": 80.9802,
      "duration": 0.0662,
      "velocity": 127,
      "chip": "ym2612"
    },
    {
      "channel": 4,
      "note": 87,
      "start": 80.981,
      "duration": 0.7805,
      "velocity": 92,
      "chip": "ym2612"
    },
    {
      "channel": 5,
      "note": 84,
      "start": 80.9817,
      "duration": 0.7805,
      "velocity": 92,
      "chip": "ym2612"
    },
    {
      "channel": 0,
      "note": 48,
      "start": 81.7594,
      "duration": 0.7796,
      "velocity": 104,
      "chip": "ym2612"
    },
    {
      "channel": 1,
      "note": 44,
      "start": 81.7601,
      "duration": 0.78,
      "velocity": 104,
      "chip": "ym2612"
    },
    {
      "channel": 3,
      "note": 51,
      "start": 81.761,
      "duration": 0.0269,
      "velocity": 127,
      "chip": "ym2612"
    },
    {
      "channel": 4,
      "note": 87,
      "start": 81.7618,
      "duration": 0.7812,
      "velocity": 92,
      "chip": "ym2612"
    },
    {
      "channel": 5,
      "note": 84,
      "start": 81.7626,
      "duration": 0.7812,
      "velocity": 92,
      "chip": "ym2612"
    },
    {
      "channel": 3,
      "note": 51,
      "start": 82.2795,
      "duration": 0.0284,
      "velocity": 127,
      "chip": "ym2612"
    },
    {
      "channel": 0,
      "note": 48,
      "start": 82.5394,
      "duration": 1.5499,
      "velocity": 104,
      "chip": "ym2612"
    },
    {
      "channel": 1,
      "note": 44,
      "start": 82.5405,
      "duration": 1.5498,
      "velocity": 104,
      "chip": "ym2612"
    },
    {
      "channel": 2,
      "note": 63,
      "start": 82.5413,
      "duration": 1.5498,
      "velocity": 95,
      "chip": "ym2612"
    },
    {
      "channel": 3,
      "note": 51,
      "start": 82.5422,
      "duration": 0.0553,
      "velocity": 127,
      "chip": "ym2612"
    },
    {
      "channel": 4,
      "note": 87,
      "start": 82.5434,
      "duration": 0.7766,
      "velocity": 92,
      "chip": "ym2612"
    },
    {
      "channel": 5,
      "note": 82,
      "start": 82.5441,
      "duration": 0.7766,
      "velocity": 92,
      "chip": "ym2612"
    },
    {
      "channel": 3,
      "note": 51,
      "start": 83.3196,
      "duration": 0.0285,
      "velocity": 127,
      "chip": "ym2612"
    },
    {
      "channel": 4,
      "note": 87,
      "start": 83.3204,
      "duration": 0.5101,
      "velocity": 92,
      "chip": "ym2612"
    },
    {
      "channel": 5,
      "note": 82,
      "start": 83.3212,
      "duration": 0.7725,
      "velocity": 92,
      "chip": "ym2612"
    },
    {
      "channel": 3,
      "note": 51,
      "start": 83.83,
      "duration": 0.0381,
      "velocity": 127,
      "chip": "ym2612"
    },
    {
      "channel": 4,
      "note": 79,
      "start": 83.8308,
      "duration": 0.1339,
      "velocity": 92,
      "chip": "ym2612"
    },
    {
      "channel": 4,
      "note": 82,
      "start": 83.965,
      "duration": 0.1279,
      "velocity": 92,
      "chip": "ym2612"
    },
    {
      "channel": 0,
      "note": 51,
      "start": 84.0898,
      "duration": 1.5599,
      "velocity": 104,
      "chip": "ym2612"
    },
    {
      "channel": 1,
      "note": 46,
      "start": 84.0906,
      "duration": 1.56,
      "velocity": 104,
      "chip": "ym2612"
    },
    {
      "channel": 2,
      "note": 58,
      "start": 84.0914,
      "duration": 1.56,
      "velocity": 95,
      "chip": "ym2612"
    },
    {
      "channel": 3,
      "note": 51,
      "start": 84.0924,
      "duration": 0.0646,
      "velocity": 127,
      "chip": "ym2612"
    },
    {
      "channel": 4,
      "note": 87,
      "start": 84.0932,
      "duration": 0.7772,
      "velocity": 92,
      "chip": "ym2612"
    },
    {
      "channel": 5,
      "note": 82,
      "start": 84.0941,
      "duration": 0.7772,
      "velocity": 92,
      "chip": "ym2612"
    },
    {
      "channel": 3,
      "note": 51,
      "start": 84.8701,
      "duration": 0.0381,
      "velocity": 127,
      "chip": "ym2612"
    },
    {
      "channel": 4,
      "note": 87,
      "start": 84.8709,
      "duration": 0.7823,
      "velocity": 92,
      "chip": "ym2612"
    },
    {
      "channel": 5,
      "note": 82,
      "start": 84.8716,
      "duration": 0.7824,
      "velocity": 92,
      "chip": "ym2612"
    },
    {
      "channel": 3,
      "note": 51,
      "start": 85.3901,
      "duration": 0.0381,
      "velocity": 127,
      "chip": "ym2612"
    },
    {
      "channel": 0,
      "note": 51,
      "start": 85.6501,
      "duration": 2.3397,
      "velocity": 104,
      "chip": "ym2612"
    },
    {
      "channel": 1,
      "note": 46,
      "start": 85.6511,
      "duration": 2.3395,
      "velocity": 104,
      "chip": "ym2612"
    },
    {
      "channel": 2,
      "note": 57,
      "start": 85.6518,
      "duration": 1.5581,
      "velocity": 95,
      "chip": "ym2612"
    },
    {
      "channel": 3,
      "note": 51,
      "start": 85.6527,
      "duration": 0.0651,
      "velocity": 127,
      "chip": "ym2612"
    },
    {
      "channel": 4,
      "note": 84,
      "start": 85.6536,
      "duration": 0.7771,
      "velocity": 92,
      "chip": "ym2612"
    },
    {
      "channel": 5,
      "note": 81,
      "start": 85.6543,
      "duration": 0.7772,
      "velocity": 92,
      "chip": "ym2612"
    },
    {
      "channel": 3,
      "note": 51,
      "start": 86.4303,
      "duration": 0.0284,
      "velocity": 127,
      "chip": "ym2612"
    },
    {
      "channel": 4,
      "note": 84,
      "start": 86.431,
      "duration": 0.5198,
      "velocity": 92,
      "chip": "ym2612"
    },
    {
      "channel": 5,
      "note": 81,
      "start": 86.4318,
      "duration": 0.7807,
      "velocity": 92,
      "chip": "ym2612"
    },
    {
      "channel": 3,
      "note": 51,
      "start": 86.9503,
      "duration": 0.0284,
      "velocity": 127,
      "chip": "ym2612"
    },
    {
      "channel": 4,
      "note": 77,
      "start": 86.9511,
      "duration": 0.1242,
      "velocity": 92,
      "chip": "ym2612"
    },
    {
      "channel": 4,
      "note": 81,
      "start": 87.0757,
      "duration": 0.136,
      "velocity": 92,
      "chip": "ym2612"
    },
    {
      "channel": 2,
      "note": 60,
      "start": 87.2104,
      "duration": 1.5517,
      "velocity": 95,
      "chip": "ym2612"
    },
    {
      "channel": 3,
      "note": 51,
      "start": 87.2112,
      "duration": 0.0661,
      "velocity": 127,
      "chip": "ym2612"
    },
    {
      "channel": 4,
      "note": 84,
      "start": 87.2121,
      "duration": 0.7801,
      "velocity": 92,
      "chip": "ym2612"
    },
    {
      "channel": 5,
      "note": 81,
      "start": 87.2128,
      "duration": 0.7804,
      "velocity": 92,
      "chip": "ym2612"
    },
    {
      "channel": 0,
      "note": 51,
      "start": 87.9901,
      "duration": 0.7701,
      "velocity": 104,
      "chip": "ym2612"
    },
    {
      "channel": 1,
      "note": 43,
      "start": 87.991,
      "duration": 0.7703,
      "velocity": 104,
      "chip": "ym2612"
    },
    {
      "channel": 3,
      "note": 51,
      "start": 87.9919,
      "duration": 0.027,
      "velocity": 127,
      "chip": "ym2612"
    },
    {
      "channel": 4,
      "note": 84,
      "start": 87.9927,
      "duration": 0.7712,
      "velocity": 92,
      "chip": "ym2612"
    },
    {
      "channel": 5,
      "note": 81,
      "start": 87.9935,
      "duration": 0.7712,
      "velocity": 92,
      "chip": "ym2612"
    },
    {
      "channel": 3,
      "note": 51,
      "start": 88.5105,
      "duration": 0.0284,
      "velocity": 127,
      "chip": "ym2612"
    },
    {
      "channel": 0,
      "note": 50,
      "start": 88.7605,
      "duration": 1.2998,
      "velocity": 104,
      "chip": "ym2612"
    },
    {
      "channel": 1,
      "note": 43,
      "start": 88.7616,
      "duration": 1.2995,
      "velocity": 104,
      "chip": "ym2612"
    },
    {
      "channel": 2,
      "note": 58,
      "start": 88.7624,
      "duration": 1.5595,
      "velocity": 95,
      "chip": "ym2612"
    },
    {
      "channel": 3,
      "note": 51,
      "start": 88.7634,
      "duration": 0.0648,
      "velocity": 127,
      "chip": "ym2612"
    },
    {
      "channel": 4,
      "note": 86,
      "start": 88.7644,
      "duration": 0.777,
      "velocity": 92,
      "chip": "ym2612"
    },
    {
      "channel": 5,
      "note": 82,
      "start": 88.7651,
      "duration": 0.777,
      "velocity": 92,
      "chip": "ym2612"
    },
    {
      "channel": 3,
      "note": 51,
      "start": 89.5409,
      "duration": 0.0381,
      "velocity": 127,
      "chip": "ym2612"
    },
    {
      "channel": 4,
      "note": 86,
      "start": 89.5417,
      "duration": 0.5214,
      "velocity": 92,
      "chip": "ym2612"
    },
    {
      "channel": 5,
      "note": 82,
      "start": 89.5425,
      "duration": 0.7819,
      "velocity": 92,
      "chip": "ym2612"
    },
    {
      "channel": 0,
      "note": 49,
      "start": 90.0607,
      "duration": 0.2597,
      "velocity": 104,
      "chip": "ym2612"
    },
    {
      "channel": 1,
      "note": 45,
      "start": 90.0615,
      "duration": 0.2597,
      "velocity": 104,
      "chip": "ym2612"
    },
    {
      "channel": 3,
      "note": 51,
      "start": 90.0623,
      "duration": 0.0367,
      "velocity": 127,
      "chip": "ym2612"
    },
    {
      "channel": 4,
      "note": 77,
      "start": 90.0634,
      "duration": 0.1322,
      "velocity": 92,
      "chip": "ym2612"
    },
    {
      "channel": 4,
      "note": 82,
      "start": 90.196,
      "duration": 0.1276,
      "velocity": 92,
      "chip": "ym2612"
    },
    {
      "channel": 0,
      "note": 50,
      "start": 90.3207,
      "duration": 0.7797,
      "velocity": 104,
      "chip": "ym2612"
    },
    {
      "channel": 1,
      "note": 46,
      "start": 90.3214,
      "duration": 0.7798,
      "velocity": 104,
      "chip": "ym2612"
    },
    {
      "channel": 2,
      "note": 65,
      "start": 90.3222,
      "duration": 1.5606,
      "velocity": 95,
      "chip": "ym2612"
    },
    {
      "channel": 3,
      "note": 51,
      "start": 90.3232,
      "duration": 0.0648,
      "velocity": 127,
      "chip": "ym2612"
    },
    {
      "channel": 4,
      "note": 86,
      "start": 90.3239,
      "duration": 0.7789,
      "velocity": 92,
      "chip": "ym2612"
    },
    {
      "channel": 5,
      "note": 82,
      "start": 90.3247,
      "duration": 0.779,
      "velocity": 92,
      "chip": "ym2612"
    },
    {
      "channel": 0,
      "note": 51,
      "start": 91.1007,
      "duration": 0.78,
      "velocity": 104,
      "chip": "ym2612"
    },
    {
      "channel": 1,
      "note": 48,
      "start": 91.1015,
      "duration": 0.7803,
      "velocity": 104,
      "chip": "ym2612"
    },
    {
      "channel": 3,
      "note": 51,
      "start": 91.1024,
      "duration": 0.0271,
      "velocity": 127,
      "chip": "ym2612"
    },
    {
      "channel": 4,
      "note": 86,
      "start": 91.1032,
      "duration": 0.7815,
      "velocity": 92,
      "chip": "ym2612"
    },
    {
      "channel": 5,
      "note": 82,
      "start": 91.104,
      "duration": 0.7815,
      "velocity": 92,
      "chip": "ym2612"
    },
    {
      "channel": 3,
      "note": 51,
      "start": 91.6211,
      "duration": 0.0285,
      "velocity": 127,
      "chip": "ym2612"
    },
    {
      "channel": 0,
      "note": 51,
      "start": 91.8812,
      "duration": 0.7794,
      "velocity": 104,
      "chip": "ym2612"
    },
    {
      "channel": 1,
      "note": 48,
      "start": 91.8822,
      "duration": 0.7791,
      "velocity": 104,
      "chip": "ym2612"
    },
    {
      "channel": 2,
      "note": 58,
      "start": 91.8832,
      "duration": 0.779,
      "velocity": 95,
      "chip": "ym2612"
    },
    {
      "channel": 3,
      "note": 51,
      "start": 91.8841,
      "duration": 0.0646,
      "velocity": 127,
      "chip": "ym2612"
    },
    {
      "channel": 4,
      "note": 86,
      "start": 91.885,
      "duration": 0.7786,
      "velocity": 92,
      "chip": "ym2612"
    },
    {
      "channel": 5,
      "note": 82,
      "start": 91.8858,
      "duration": 0.7786,
      "velocity": 92,
      "chip": "ym2612"
    },
    {
      "channel": 0,
      "note": 53,
      "start": 92.6609,
      "duration": 1.5501,
      "velocity": 104,
      "chip": "ym2612"
    },
    {
      "channel": 1,
      "note": 50,
      "start": 92.6617,
      "duration": 1.5501,
      "velocity": 104,
      "chip": "ym2612"
    },
    {
      "channel": 2,
      "note": 58,
      "start": 92.6625,
      "duration": 0.7784,
      "velocity": 95,
      "chip": "ym2612"
    },
    {
      "channel": 3,
      "note": 51,
      "start": 92.6633,
      "duration": 0.0264,
      "velocity": 127,
      "chip": "ym2612"
    },
    {
      "channel": 4,
      "note": 86,
      "start": 92.6641,
      "duration": 0.5179,
      "velocity": 92,
      "chip": "ym2612"
    },
    {
      "channel": 5,
      "note": 82,
      "start": 92.6648,
      "duration": 0.7786,
      "velocity": 92,
      "chip": "ym2612"
    },
    {
      "channel": 3,
      "note": 51,
      "start": 93.1813,
      "duration": 0.0286,
      "velocity": 127,
      "chip": "ym2612"
    },
    {
      "channel": 4,
      "note": 77,
      "start": 93.1823,
      "duration": 0.124,
      "velocity": 92,
      "chip": "ym2612"
    },
    {
      "channel": 4,
      "note": 82,
      "start": 93.3067,
      "duration": 0.1359,
      "velocity": 92,
      "chip": "ym2612"
    },
    {
      "channel": 2,
      "note": 60,
      "start": 93.4412,
      "duration": 0.7714,
      "velocity": 95,
      "chip": "ym2612"
    },
    {
      "channel": 3,
      "note": 51,
      "start": 93.4421,
      "duration": 0.0566,
      "velocity": 127,
      "chip": "ym2612"
    },
    {
      "channel": 4,
      "note": 86,
      "start": 93.4431,
      "duration": 0.7711,
      "velocity": 92,
      "chip": "ym2612"
    },
    {
      "channel": 5,
      "note": 82,
      "start": 93.4438,
      "duration": 0.771,
      "velocity": 92,
      "chip": "ym2612"
    },
    {
      "channel": 0,
      "note": 50,
      "start": 94.2115,
      "duration": 0.7797,
      "velocity": 104,
      "chip": "ym2612"
    },
    {
      "channel": 1,
      "note": 44,
      "start": 94.2122,
      "duration": 0.7798,
      "velocity": 104,
      "chip": "ym2612"
    },
    {
      "channel": 2,
      "note": 62,
      "start": 94.213,
      "duration": 0.7802,
      "velocity": 95,
      "chip": "ym2612"
    },
    {
      "channel": 3,
      "note": 51,
      "start": 94.2137,
      "duration": 0.0361,
      "velocity": 127,
      "chip": "ym2612"
    },
    {
      "channel": 4,
      "note": 86,
      "start": 94.2145,
      "duration": 0.7806,
      "velocity": 92,
      "chip": "ym2612"
    },
    {
      "channel": 5,
      "note": 82,
      "start": 94.2153,
      "duration": 0.7807,
      "velocity": 92,
      "chip": "ym2612"
    },
    {
      "channel": 3,
      "note": 51,
      "start": 94.7318,
      "duration": 0.0381,
      "velocity": 127,
      "chip": "ym2612"
    },
    {
      "channel": 0,
      "note": 51,
      "start": 94.9915,
      "duration": 0.7123,
      "velocity": 104,
      "chip": "ym2612"
    },
    {
      "channel": 1,
      "note": 43,
      "start": 94.9924,
      "duration": 0.7118,
      "velocity": 104,
      "chip": "ym2612"
    },
    {
      "channel": 2,
      "note": 63,
      "start": 94.9936,
      "duration": 1.5594,
      "velocity": 95,
      "chip": "ym2612"
    },
    {
      "channel": 3,
      "note": 51,
      "start": 94.9945,
      "duration": 0.0644,
      "velocity": 127,
      "chip": "ym2612"
    },
    {
      "channel": 4,
      "note": 87,
      "start": 94.9955,
      "duration": 0.7853,
      "velocity": 92,
      "chip": "ym2612"
    },
    {
      "channel": 5,
      "note": 82,
      "start": 94.9962,
      "duration": 0.7853,
      "velocity": 92,
      "chip": "ym2612"
    },
    {
      "channel": 0,
      "note": 79,
      "start": 95.7748,
      "duration": 0.2566,
      "velocity": 90,
      "chip": "ym2612"
    },
    {
      "channel": 1,
      "note": 75,
      "start": 95.7795,
      "duration": 0.2526,
      "velocity": 90,
      "chip": "ym2612"
    },
    {
      "channel": 3,
      "note": 51,
      "start": 95.7803,
      "duration": 0.02,
      "velocity": 127,
      "chip": "ym2612"
    },
    {
      "channel": 4,
      "note": 87,
      "start": 95.7812,
      "duration": 0.5127,
      "velocity": 92,
      "chip": "ym2612"
    },
    {
      "channel": 5,
      "note": 82,
      "start": 95.7819,
      "duration": 0.7736,
      "velocity": 92,
      "chip": "ym2612"
    },
    {
      "channel": 0,
      "note": 80,
      "start": 96.0317,
      "duration": 0.2595,
      "velocity": 90,
      "chip": "ym2612"
    },
    {
      "channel": 1,
      "note": 77,
      "start": 96.0325,
      "duration": 0.2595,
      "velocity": 90,
      "chip": "ym2612"
    },
    {
      "channel": 0,
      "note": 82,
      "start": 96.2916,
      "duration": 0.2598,
      "velocity": 90,
      "chip": "ym2612"
    },
    {
      "channel": 1,
      "note": 79,
      "start": 96.2924,
      "duration": 0.2599,
      "velocity": 90,
      "chip": "ym2612"
    },
    {
      "channel": 3,
      "note": 51,
      "start": 96.2934,
      "duration": 0.027,
      "velocity": 127,
      "chip": "ym2612"
    },
    {
      "channel": 4,
      "note": 79,
      "start": 96.2943,
      "duration": 0.1227,
      "velocity": 92,
      "chip": "ym2612"
    },
    {
      "channel": 4,
      "note": 82,
      "start": 96.4174,
      "duration": 0.1373,
      "velocity": 92,
      "chip": "ym2612"
    },
    {
      "channel": 0,
      "note": 83,
      "start": 96.5517,
      "duration": 0.5197,
      "velocity": 90,
      "chip": "ym2612"
    },
    {
      "channel": 1,
      "note": 80,
      "start": 96.5526,
      "duration": 0.5197,
      "velocity": 90,
      "chip": "ym2612"
    },
    {
      "channel": 2,
      "note": 58,
      "start": 96.5534,
      "duration": 1.5598,
      "velocity": 95,
      "chip": "ym2612"
    },
    {
      "channel": 3,
      "note": 51,
      "start": 96.5543,
      "duration": 0.0647,
      "velocity": 127,
      "chip": "ym2612"
    },
    {
      "channel": 4,
      "note": 87,
      "start": 96.5551,
      "duration": 0.7773,
      "velocity": 92,
      "chip": "ym2612"
    },
    {
      "channel": 5,
      "note": 83,
      "start": 96.5559,
      "duration": 0.7774,
      "velocity": 92,
      "chip": "ym2612"
    },
    {
      "channel": 0,
      "note": 82,
      "start": 97.0717,
      "duration": 0.5197,
      "velocity": 90,
      "chip": "ym2612"
    },
    {
      "channel": 1,
      "note": 79,
      "start": 97.0726,
      "duration": 0.5195,
      "velocity": 90,
      "chip": "ym2612"
    },
    {
      "channel": 3,
      "note": 51,
      "start": 97.3321,
      "duration": 0.0284,
      "velocity": 127,
      "chip": "ym2612"
    },
    {
      "channel": 4,
      "note": 87,
      "start": 97.3328,
      "duration": 0.782,
      "velocity": 92,
      "chip": "ym2612"
    },
    {
      "channel": 5,
      "note": 83,
      "start": 97.3336,
      "duration": 0.7821,
      "velocity": 92,
      "chip": "ym2612"
    },
    {
      "channel": 0,
      "note": 80,
      "start": 97.5918,
      "duration": 0.5198,
      "velocity": 90,
      "chip": "ym2612"
    },
    {
      "channel": 1,
      "note": 77,
      "start": 97.5927,
      "duration": 0.5196,
      "velocity": 90,
      "chip": "ym2612"
    },
    {
      "channel": 3,
      "note": 51,
      "start": 97.8521,
      "duration": 0.0284,
      "velocity": 127,
      "chip": "ym2612"
    },
    {
      "channel": 0,
      "note": 79,
      "start": 98.1119,
      "duration": 1.4923,
      "velocity": 90,
      "chip": "ym2612"
    },
    {
      "channel": 1,
      "note": 75,
      "start": 98.1127,
      "duration": 1.4919,
      "velocity": 90,
      "chip": "ym2612"
    },
    {
      "channel": 2,
      "note": 63,
      "start": 98.1135,
      "duration": 1.5572,
      "velocity": 95,
      "chip": "ym2612"
    },
    {
      "channel": 3,
      "note": 51,
      "start": 98.1144,
      "duration": 0.055,
      "velocity": 127,
      "chip": "ym2612"
    },
    {
      "channel": 4,
      "note": 87,
      "start": 98.1152,
      "duration": 0.7678,
      "velocity": 92,
      "chip": "ym2612"
    },
    {
      "channel": 5,
      "note": 82,
      "start": 98.116,
      "duration": 0.7678,
      "velocity": 92,
      "chip": "ym2612"
    },
    {
      "channel": 3,
      "note": 51,
      "start": 98.8826,
      "duration": 0.0381,
      "velocity": 127,
      "chip": "ym2612"
    },
    {
      "channel": 4,
      "note": 87,
      "start": 98.8833,
      "duration": 0.5197,
      "velocity": 92,
      "chip": "ym2612"
    },
    {
      "channel": 5,
      "note": 82,
      "start": 98.8841,
      "duration": 0.7891,
      "velocity": 92,
      "chip": "ym2612"
    },
    {
      "channel": 3,
      "note": 51,
      "start": 99.4026,
      "duration": 0.0381,
      "velocity": 127,
      "chip": "ym2612"
    },
    {
      "channel": 4,
      "note": 81,
      "start": 99.4034,
      "duration": 0.1338,
      "velocity": 92,
      "chip": "ym2612"
    },
    {
      "channel": 4,
      "note": 84,
      "start": 99.5375,
      "duration": 0.1349,
      "velocity": 92,
      "chip": "ym2612"
    },
    {
      "channel": 0,
      "note": 50,
      "start": 99.6656,
      "duration": 1.5565,
      "velocity": 104,
      "chip": "ym2612"
    },
    {
      "channel": 1,
      "note": 42,
      "start": 99.6703,
      "duration": 1.5527,
      "velocity": 104,
      "chip": "ym2612"
    },
    {
      "channel": 2,
      "note": 57,
      "start": 99.671,
      "duration": 1.5527,
      "velocity": 95,
      "chip": "ym2612"
    },
    {
      "channel": 3,
      "note": 51,
      "start": 99.672,
      "duration": 0.0577,
      "velocity": 127,
      "chip": "ym2612"
    },
    {
      "channel": 4,
      "note": 87,
      "start": 99.6728,
      "duration": 0.7705,
      "velocity": 92,
      "chip": "ym2612"
    },
    {
      "channel": 5,
      "note": 84,
      "start": 99.6735,
      "duration": 0.7705,
      "velocity": 92,
      "chip": "ym2612"
    },
    {
      "channel": 3,
      "note": 51,
      "start": 100.4429,
      "duration": 0.0283,
      "velocity": 127,
      "chip": "ym2612"
    },
    {
      "channel": 4,
      "note": 87,
      "start": 100.4436,
      "duration": 0.7821,
      "velocity": 92,
      "chip": "ym2612"
    },
    {
      "channel": 5,
      "note": 84,
      "start": 100.4444,
      "duration": 0.7822,
      "velocity": 92,
      "chip": "ym2612"
    },
    {
      "channel": 3,
      "note": 51,
      "start": 100.9628,
      "duration": 0.0284,
      "velocity": 127,
      "chip": "ym2612"
    },
    {
      "channel": 0,
      "note": 50,
      "start": 101.2224,
      "duration": 1.2998,
      "velocity": 104,
      "chip": "ym2612"
    },
    {
      "channel": 1,
      "note": 46,
      "start": 101.2234,
      "duration": 1.2996,
      "velocity": 104,
      "chip": "ym2612"
    },
    {
      "channel": 2,
      "note": 58,
      "start": 101.2242,
      "duration": 1.5597,
      "velocity": 95,
      "chip": "ym2612"
    },
    {
      "channel": 3,
      "note": 51,
      "start": 101.2251,
      "duration": 0.0647,
      "velocity": 127,
      "chip": "ym2612"
    },
    {
      "channel": 4,
      "note": 86,
      "start": 101.2263,
      "duration": 0.777,
      "velocity": 92,
      "chip": "ym2612"
    },
    {
      "channel": 5,
      "note": 82,
      "start": 101.227,
      "duration": 0.777,
      "velocity": 92,
      "chip": "ym2612"
    },
    {
      "channel": 3,
      "note": 51,
      "start": 102.0029,
      "duration": 0.0284,
      "velocity": 127,
      "chip": "ym2612"
    },
    {
      "channel": 4,
      "note": 86,
      "start": 102.0036,
      "duration": 0.5214,
      "velocity": 92,
      "chip": "ym2612"
    },
    {
      "channel": 5,
      "note": 82,
      "start": 102.0044,
      "duration": 0.782,
      "velocity": 92,
      "chip": "ym2612"
    },
    {
      "channel": 0,
      "note": 49,
      "start": 102.5226,
      "duration": 0.2597,
      "velocity": 104,
      "chip": "ym2612"
    },
    {
      "channel": 1,
      "note": 45,
      "start": 102.5234,
      "duration": 0.2596,
      "velocity": 104,
      "chip": "ym2612"
    },
    {
      "channel": 3,
      "note": 51,
      "start": 102.5243,
      "duration": 0.0271,
      "velocity": 127,
      "chip": "ym2612"
    },
    {
      "channel": 4,
      "note": 77,
      "start": 102.5254,
      "duration": 0.1226,
      "velocity": 92,
      "chip": "ym2612"
    },
    {
      "channel": 4,
      "note": 82,
      "start": 102.6483,
      "duration": 0.1372,
      "velocity": 92,
      "chip": "ym2612"
    },
    {
      "channel": 0,
      "note": 50,
      "start": 102.7826,
      "duration": 0.7701,
      "velocity": 104,
      "chip": "ym2612"
    },
    {
      "channel": 1,
      "note": 46,
      "start": 102.7834,
      "duration": 0.7701,
      "velocity": 104,
      "chip": "ym2612"
    },
    {
      "channel": 2,
      "note": 65,
      "start": 102.7841,
      "duration": 1.5507,
      "velocity": 95,
      "chip": "ym2612"
    },
    {
      "channel": 3,
      "note": 51,
      "start": 102.7851,
      "duration": 0.0552,
      "velocity": 127,
      "chip": "ym2612"
    },
    {
      "channel": 4,
      "note": 86,
      "start": 102.7859,
      "duration": 0.7693,
      "velocity": 92,
      "chip": "ym2612"
    },
    {
      "channel": 5,
      "note": 82,
      "start": 102.7866,
      "duration": 0.7693,
      "velocity": 92,
      "chip": "ym2612"
    },
    {
      "channel": 0,
      "note": 51,
      "start": 103.553,
      "duration": 0.7798,
      "velocity": 104,
      "chip": "ym2612"
    },
    {
      "channel": 1,
      "note": 48,
      "start": 103.5538,
      "duration": 0.78,
      "velocity": 104,
      "chip": "ym2612"
    },
    {
      "channel": 3,
      "note": 51,
      "start": 103.5547,
      "duration": 0.0368,
      "velocity": 127,
      "chip": "ym2612"
    },
    {
      "channel": 4,
      "note": 86,
      "start": 103.5555,
      "duration": 0.7812,
      "velocity": 92,
      "chip": "ym2612"
    },
    {
      "channel": 5,
      "note": 82,
      "start": 103.5563,
      "duration": 0.7812,
      "velocity": 92,
      "chip": "ym2612"
    },
    {
      "channel": 3,
      "note": 51,
      "start": 104.0734,
      "duration": 0.0381,
      "velocity": 127,
      "chip": "ym2612"
    },
    {
      "channel": 0,
      "note": 51,
      "start": 104.3333,
      "duration": 0.7795,
      "velocity": 104,
      "chip": "ym2612"
    },
    {
      "channel": 1,
      "note": 48,
      "start": 104.3343,
      "duration": 0.7794,
      "velocity": 104,
      "chip": "ym2612"
    },
    {
      "channel": 2,
      "note": 58,
      "start": 104.3352,
      "duration": 0.7792,
      "velocity": 95,
      "chip": "ym2612"
    },
    {
      "channel": 3,
      "note": 51,
      "start": 104.3361,
      "duration": 0.0649,
      "velocity": 127,
      "chip": "ym2612"
    },
    {
      "channel": 4,
      "note": 86,
      "start": 104.3371,
      "duration": 0.7789,
      "velocity": 92,
      "chip": "ym2612"
    },
    {
      "channel": 5,
      "note": 82,
      "start": 104.3378,
      "duration": 0.7789,
      "velocity": 92,
      "chip": "ym2612"
    },
    {
      "channel": 0,
      "note": 53,
      "start": 105.1132,
      "duration": 1.56,
      "velocity": 104,
      "chip": "ym2612"
    },
    {
      "channel": 1,
      "note": 50,
      "start": 105.114,
      "duration": 1.5602,
      "velocity": 104,
      "chip": "ym2612"
    },
    {
      "channel": 2,
      "note": 58,
      "start": 105.1148,
      "duration": 0.7784,
      "velocity": 95,
      "chip": "ym2612"
    },
    {
      "channel": 3,
      "note": 51,
      "start": 105.1156,
      "duration": 0.036,
      "velocity": 127,
      "chip": "ym2612"
    },
    {
      "channel": 4,
      "note": 86,
      "start": 105.1163,
      "duration": 0.5179,
      "velocity": 92,
      "chip": "ym2612"
    },
    {
      "channel": 5,
      "note": 82,
      "start": 105.1171,
      "duration": 0.7787,
      "velocity": 92,
      "chip": "ym2612"
    },
    {
      "channel": 3,
      "note": 51,
      "start": 105.6336,
      "duration": 0.0284,
      "velocity": 127,
      "chip": "ym2612"
    },
    {
      "channel": 4,
      "note": 77,
      "start": 105.6347,
      "duration": 0.1336,
      "velocity": 92,
      "chip": "ym2612"
    },
    {
      "channel": 4,
      "note": 82,
      "start": 105.7686,
      "duration": 0.1264,
      "velocity": 92,
      "chip": "ym2612"
    },
    {
      "channel": 2,
      "note": 60,
      "start": 105.8936,
      "duration": 0.7814,
      "velocity": 95,
      "chip": "ym2612"
    },
    {
      "channel": 3,
      "note": 51,
      "start": 105.8946,
      "duration": 0.066,
      "velocity": 127,
      "chip": "ym2612"
    },
    {
      "channel": 4,
      "note": 86,
      "start": 105.8954,
      "duration": 0.7814,
      "velocity": 92,
      "chip": "ym2612"
    },
    {
      "channel": 5,
      "note": 82,
      "start": 105.8961,
      "duration": 0.7814,
      "velocity": 92,
      "chip": "ym2612"
    },
    {
      "channel": 0,
      "note": 53,
      "start": 106.6737,
      "duration": 0.7795,
      "velocity": 104,
      "chip": "ym2612"
    },
    {
      "channel": 1,
      "note": 50,
      "start": 106.6746,
      "duration": 0.7793,
      "velocity": 104,
      "chip": "ym2612"
    },
    {
      "channel": 2,
      "note": 62,
      "start": 106.6754,
      "duration": 0.7795,
      "velocity": 95,
      "chip": "ym2612"
    },
    {
      "channel": 3,
      "note": 51,
      "start": 106.6763,
      "duration": 0.0265,
      "velocity": 127,
      "chip": "ym2612"
    },
    {
      "channel": 4,
      "note": 86,
      "start": 106.677,
      "duration": 0.7798,
      "velocity": 92,
      "chip": "ym2612"
    },
    {
      "channel": 5,
      "note": 82,
      "start": 106.6778,
      "duration": 0.7797,
      "velocity": 92,
      "chip": "ym2612"
    },
    {
      "channel": 3,
      "note": 51,
      "start": 107.1939,
      "duration": 0.0283,
      "velocity": 127,
      "chip": "ym2612"
    },
    {
      "channel": 0,
      "note": 58,
      "start": 107.4534,
      "duration": 3.8904,
      "velocity": 104,
      "chip": "ym2612"
    },
    {
      "channel": 1,
      "note": 55,
      "start": 107.4543,
      "duration": 3.8899,
      "velocity": 104,
      "chip": "ym2612"
    },
    {
      "channel": 2,
      "note": 63,
      "start": 107.4552,
      "duration": 1.5486,
      "velocity": 95,
      "chip": "ym2612"
    },
    {
      "channel": 3,
      "note": 51,
      "start": 107.4562,
      "duration": 0.055,
      "velocity": 127,
      "chip": "ym2612"
    },
    {
      "channel": 4,
      "note": 87,
      "start": 107.4571,
      "duration": 0.7771,
      "velocity": 92,
      "chip": "ym2612"
    },
    {
      "channel": 5,
      "note": 82,
      "start": 107.4579,
      "duration": 0.7771,
      "velocity": 92,
      "chip": "ym2612"
    },
    {
      "channel": 3,
      "note": 51,
      "start": 108.2338,
      "duration": 0.0285,
      "velocity": 127,
      "chip": "ym2612"
    },
    {
      "channel": 4,
      "note": 87,
      "start": 108.2346,
      "duration": 0.5101,
      "velocity": 92,
      "chip": "ym2612"
    },
    {
      "channel": 5,
      "note": 82,
      "start": 108.2354,
      "duration": 0.7709,
      "velocity": 92,
      "chip": "ym2612"
    },
    {
      "channel": 3,
      "note": 51,
      "start": 108.7442,
      "duration": 0.0381,
      "velocity": 127,
      "chip": "ym2612"
    },
    {
      "channel": 4,
      "note": 79,
      "start": 108.7451,
      "duration": 0.1338,
      "velocity": 92,
      "chip": "ym2612"
    },
    {
      "channel": 4,
      "note": 82,
      "start": 108.8793,
      "duration": 0.1262,
      "velocity": 92,
      "chip": "ym2612"
    },
    {
      "channel": 2,
      "note": 58,
      "start": 109.0041,
      "duration": 1.5598,
      "velocity": 95,
      "chip": "ym2612"
    },
    {
      "channel": 3,
      "note": 51,
      "start": 109.0051,
      "duration": 0.0662,
      "velocity": 127,
      "chip": "ym2612"
    },
    {
      "channel": 4,
      "note": 87,
      "start": 109.0059,
      "duration": 0.7789,
      "velocity": 92,
      "chip": "ym2612"
    },
    {
      "channel": 5,
      "note": 82,
      "start": 109.0066,
      "duration": 0.779,
      "velocity": 92,
      "chip": "ym2612"
    },
    {
      "channel": 3,
      "note": 51,
      "start": 109.7844,
      "duration": 0.0381,
      "velocity": 127,
      "chip": "ym2612"
    },
    {
      "channel": 4,
      "note": 87,
      "start": 109.7851,
      "duration": 0.7806,
      "velocity": 92,
      "chip": "ym2612"
    },
    {
      "channel": 5,
      "note": 82,
      "start": 109.7859,
      "duration": 0.7806,
      "velocity": 92,
      "chip": "ym2612"
    },
    {
      "channel": 3,
      "note": 51,
      "start": 110.3044,
      "duration": 0.0284,
      "velocity": 127,
      "chip": "ym2612"
    },
    {
      "channel": 2,
      "note": 63,
      "start": 110.5643,
      "duration": 1.5612,
      "velocity": 95,
      "chip": "ym2612"
    },
    {
      "channel": 3,
      "note": 51,
      "start": 110.5653,
      "duration": 0.0662,
      "velocity": 127,
      "chip": "ym2612"
    },
    {
      "channel": 4,
      "note": 87,
      "start": 110.5661,
      "duration": 1.4908,
      "velocity": 92,
      "chip": "ym2612"
    },
    {
      "channel": 5,
      "note": 82,
      "start": 110.5668,
      "duration": 1.4904,
      "velocity": 92,
      "chip": "ym2612"
    },
    {
      "channel": 0,
      "note": 51,
      "start": 112.1244,
      "duration": 3.1103,
      "velocity": 104,
      "chip": "ym2612"
    },
    {
      "channel": 1,
      "note": 46,
      "start": 112.1252,
      "duration": 3.1098,
      "velocity": 104,
      "chip": "ym2612"
    },
    {
      "channel": 2,
      "note": 63,
      "start": 112.1261,
      "duration": 3.1092,
      "velocity": 95,
      "chip": "ym2612"
    },
    {
      "channel": 4,
      "note": 43,
      "start": 112.1308,
      "duration": 3.1047,
      "velocity": 104,
      "chip": "ym2612"
    },
    {
      "channel": 5,
      "note": 39,
      "start": 112.1354,
      "duration": 3.1004,
      "velocity": 104,
      "chip": "ym2612"
    }
  ]
}