{
  "track_name": "10 - The Mutate-o-Matic",
  "duration_sec": 56.954,
  "sample_rate": 44100,
  "note_count": 431,
  "unique_pitches": 38,
  "pitch_range": 56,
  "avg_note_duration": 0.0937,
  "reconstruction_stats": {
    "notes_reconstructed": 431,
    "keyon_events": 431,
    "keyoff_events": 431,
    "orphan_keyons": 0,
    "unique_pitches": 38,
    "pitch_range": 56,
    "avg_duration_sec": 0.0937
  },
  "metadata": {
    "source": "R\\Ren & Stimpy - Stimpy's Invention\\10 - The Mutate-o-Matic.vgz"
  },
  "notes": [
    {
      "channel": 3,
      "note": 57,
      "start": 0.0076,
      "duration": 0.0604,
      "velocity": 88,
      "chip": "ym2612"
    },
    {
      "channel": 0,
      "note": 69,
      "start": 0.0126,
      "duration": 0.0551,
      "velocity": 90,
      "chip": "ym2612"
    },
    {
      "channel": 0,
      "note": 76,
      "start": 0.2875,
      "duration": 0.0637,
      "velocity": 90,
      "chip": "ym2612"
    },
    {
      "channel": 1,
      "note": 45,
      "start": 0.5565,
      "duration": 0.128,
      "velocity": 104,
      "chip": "ym2612"
    },
    {
      "channel": 4,
      "note": 86,
      "start": 0.6896,
      "duration": 0.0616,
      "velocity": 121,
      "chip": "ym2612"
    },
    {
      "channel": 0,
      "note": 76,
      "start": 0.8209,
      "duration": 0.0802,
      "velocity": 90,
      "chip": "ym2612"
    },
    {
      "channel": 3,
      "note": 52,
      "start": 0.971,
      "duration": 0.0636,
      "velocity": 88,
      "chip": "ym2612"
    },
    {
      "channel": 3,
      "note": 57,
      "start": 1.1046,
      "duration": 0.0634,
      "velocity": 88,
      "chip": "ym2612"
    },
    {
      "channel": 0,
      "note": 69,
      "start": 1.1073,
      "duration": 0.0604,
      "velocity": 90,
      "chip": "ym2612"
    },
    {
      "channel": 0,
      "note": 76,
      "start": 1.3709,
      "duration": 0.0637,
      "velocity": 90,
      "chip": "ym2612"
    },
    {
      "channel": 1,
      "note": 45,
      "start": 1.6544,
      "duration": 0.1301,
      "velocity": 104,
      "chip": "ym2612"
    },
    {
      "channel": 4,
      "note": 86,
      "start": 1.7878,
      "duration": 0.0636,
      "velocity": 121,
      "chip": "ym2612"
    },
    {
      "channel": 0,
      "note": 76,
      "start": 1.9208,
      "duration": 0.0637,
      "velocity": 90,
      "chip": "ym2612"
    },
    {
      "channel": 3,
      "note": 52,
      "start": 2.0542,
      "duration": 0.0637,
      "velocity": 88,
      "chip": "ym2612"
    },
    {
      "channel": 3,
      "note": 57,
      "start": 2.2042,
      "duration": 0.0637,
      "velocity": 88,
      "chip": "ym2612"
    },
    {
      "channel": 0,
      "note": 69,
      "start": 2.2066,
      "duration": 0.0612,
      "velocity": 90,
      "chip": "ym2612"
    },
    {
      "channel": 0,
      "note": 76,
      "start": 2.4708,
      "duration": 0.0636,
      "velocity": 90,
      "chip": "ym2612"
    },
    {
      "channel": 1,
      "note": 45,
      "start": 2.7377,
      "duration": 0.1468,
      "velocity": 104,
      "chip": "ym2612"
    },
    {
      "channel": 4,
      "note": 86,
      "start": 2.8878,
      "duration": 0.0636,
      "velocity": 121,
      "chip": "ym2612"
    },
    {
      "channel": 0,
      "note": 76,
      "start": 3.0208,
      "duration": 0.0637,
      "velocity": 90,
      "chip": "ym2612"
    },
    {
      "channel": 3,
      "note": 52,
      "start": 3.1541,
      "duration": 0.0637,
      "velocity": 88,
      "chip": "ym2612"
    },
    {
      "channel": 3,
      "note": 57,
      "start": 3.2875,
      "duration": 0.0638,
      "velocity": 88,
      "chip": "ym2612"
    },
    {
      "channel": 0,
      "note": 69,
      "start": 3.2899,
      "duration": 0.0612,
      "velocity": 90,
      "chip": "ym2612"
    },
    {
      "channel": 0,
      "note": 76,
      "start": 3.5708,
      "duration": 0.0637,
      "velocity": 90,
      "chip": "ym2612"
    },
    {
      "channel": 1,
      "note": 45,
      "start": 3.8378,
      "duration": 0.13,
      "velocity": 104,
      "chip": "ym2612"
    },
    {
      "channel": 4,
      "note": 86,
      "start": 3.9711,
      "duration": 0.0636,
      "velocity": 121,
      "chip": "ym2612"
    },
    {
      "channel": 0,
      "note": 76,
      "start": 4.1208,
      "duration": 0.0637,
      "velocity": 90,
      "chip": "ym2612"
    },
    {
      "channel": 3,
      "note": 52,
      "start": 4.2541,
      "duration": 0.0637,
      "velocity": 88,
      "chip": "ym2612"
    },
    {
      "channel": 3,
      "note": 57,
      "start": 4.3876,
      "duration": 0.0638,
      "velocity": 88,
      "chip": "ym2612"
    },
    {
      "channel": 0,
      "note": 69,
      "start": 4.39,
      "duration": 0.0612,
      "velocity": 90,
      "chip": "ym2612"
    },
    {
      "channel": 0,
      "note": 76,
      "start": 4.6545,
      "duration": 0.08,
      "velocity": 90,
      "chip": "ym2612"
    },
    {
      "channel": 3,
      "note": 59,
      "start": 4.8041,
      "duration": 0.0637,
      "velocity": 88,
      "chip": "ym2612"
    },
    {
      "channel": 3,
      "note": 60,
      "start": 4.938,
      "duration": 0.0633,
      "velocity": 88,
      "chip": "ym2612"
    },
    {
      "channel": 1,
      "note": 45,
      "start": 4.941,
      "duration": 0.1268,
      "velocity": 104,
      "chip": "ym2612"
    },
    {
      "channel": 4,
      "note": 86,
      "start": 5.0714,
      "duration": 0.0632,
      "velocity": 121,
      "chip": "ym2612"
    },
    {
      "channel": 0,
      "note": 76,
      "start": 5.2042,
      "duration": 0.0636,
      "velocity": 90,
      "chip": "ym2612"
    },
    {
      "channel": 3,
      "note": 63,
      "start": 5.3376,
      "duration": 0.0803,
      "velocity": 88,
      "chip": "ym2612"
    },
    {
      "channel": 3,
      "note": 64,
      "start": 5.4875,
      "duration": 0.0639,
      "velocity": 88,
      "chip": "ym2612"
    },
    {
      "channel": 0,
      "note": 69,
      "start": 5.4898,
      "duration": 0.0613,
      "velocity": 90,
      "chip": "ym2612"
    },
    {
      "channel": 0,
      "note": 76,
      "start": 5.7543,
      "duration": 0.0635,
      "velocity": 90,
      "chip": "ym2612"
    },
    {
      "channel": 3,
      "note": 60,
      "start": 5.8876,
      "duration": 0.0637,
      "velocity": 88,
      "chip": "ym2612"
    },
    {
      "channel": 3,
      "note": 57,
      "start": 6.0376,
      "duration": 0.0637,
      "velocity": 88,
      "chip": "ym2612"
    },
    {
      "channel": 1,
      "note": 45,
      "start": 6.0405,
      "duration": 0.1274,
      "velocity": 104,
      "chip": "ym2612"
    },
    {
      "channel": 4,
      "note": 86,
      "start": 6.1713,
      "duration": 0.0634,
      "velocity": 121,
      "chip": "ym2612"
    },
    {
      "channel": 3,
      "note": 52,
      "start": 6.304,
      "duration": 0.0639,
      "velocity": 88,
      "chip": "ym2612"
    },
    {
      "channel": 0,
      "note": 76,
      "start": 6.3066,
      "duration": 0.0612,
      "velocity": 90,
      "chip": "ym2612"
    },
    {
      "channel": 3,
      "note": 53,
      "start": 6.5708,
      "duration": 0.0805,
      "velocity": 88,
      "chip": "ym2612"
    },
    {
      "channel": 0,
      "note": 65,
      "start": 6.5732,
      "duration": 0.0779,
      "velocity": 90,
      "chip": "ym2612"
    },
    {
      "channel": 0,
      "note": 72,
      "start": 6.8541,
      "duration": 0.0637,
      "velocity": 90,
      "chip": "ym2612"
    },
    {
      "channel": 0,
      "note": 65,
      "start": 7.1208,
      "duration": 0.0637,
      "velocity": 90,
      "chip": "ym2612"
    },
    {
      "channel": 0,
      "note": 72,
      "start": 7.404,
      "duration": 0.0639,
      "velocity": 90,
      "chip": "ym2612"
    },
    {
      "channel": 3,
      "note": 46,
      "start": 7.5376,
      "duration": 0.0637,
      "velocity": 88,
      "chip": "ym2612"
    },
    {
      "channel": 5,
      "note": 86,
      "start": 7.5427,
      "duration": 0.1086,
      "velocity": 125,
      "chip": "ym2612"
    },
    {
      "channel": 3,
      "note": 53,
      "start": 7.6713,
      "duration": 0.0634,
      "velocity": 88,
      "chip": "ym2612"
    },
    {
      "channel": 0,
      "note": 65,
      "start": 7.6736,
      "duration": 0.0609,
      "velocity": 90,
      "chip": "ym2612"
    },
    {
      "channel": 2,
      "note": 89,
      "start": 7.6787,
      "duration": 0.2727,
      "velocity": 106,
      "chip": "ym2612"
    },
    {
      "channel": 0,
      "note": 72,
      "start": 7.9541,
      "duration": 0.0637,
      "velocity": 90,
      "chip": "ym2612"
    },
    {
      "channel": 0,
      "note": 65,
      "start": 8.2208,
      "duration": 0.0637,
      "velocity": 90,
      "chip": "ym2612"
    },
    {
      "channel": 0,
      "note": 72,
      "start": 8.4878,
      "duration": 0.08,
      "velocity": 90,
      "chip": "ym2612"
    },
    {
      "channel": 3,
      "note": 57,
      "start": 8.7708,
      "duration": 0.0639,
      "velocity": 88,
      "chip": "ym2612"
    },
    {
      "channel": 0,
      "note": 69,
      "start": 8.7732,
      "duration": 0.0613,
      "velocity": 90,
      "chip": "ym2612"
    },
    {
      "channel": 0,
      "note": 76,
      "start": 9.0374,
      "duration": 0.0638,
      "velocity": 90,
      "chip": "ym2612"
    },
    {
      "channel": 3,
      "note": 59,
      "start": 9.1709,
      "duration": 0.0803,
      "velocity": 88,
      "chip": "ym2612"
    },
    {
      "channel": 3,
      "note": 60,
      "start": 9.3208,
      "duration": 0.0639,
      "velocity": 88,
      "chip": "ym2612"
    },
    {
      "channel": 0,
      "note": 69,
      "start": 9.3232,
      "duration": 0.0613,
      "velocity": 90,
      "chip": "ym2612"
    },
    {
      "channel": 1,
      "note": 45,
      "start": 9.3259,
      "duration": 0.1253,
      "velocity": 104,
      "chip": "ym2612"
    },
    {
      "channel": 4,
      "note": 86,
      "start": 9.4545,
      "duration": 0.0635,
      "velocity": 121,
      "chip": "ym2612"
    },
    {
      "channel": 0,
      "note": 76,
      "start": 9.5874,
      "duration": 0.0637,
      "velocity": 90,
      "chip": "ym2612"
    },
    {
      "channel": 3,
      "note": 63,
      "start": 9.7209,
      "duration": 0.0637,
      "velocity": 88,
      "chip": "ym2612"
    },
    {
      "channel": 3,
      "note": 64,
      "start": 9.871,
      "duration": 0.0637,
      "velocity": 88,
      "chip": "ym2612"
    },
    {
      "channel": 0,
      "note": 69,
      "start": 9.8733,
      "duration": 0.0611,
      "velocity": 90,
      "chip": "ym2612"
    },
    {
      "channel": 0,
      "note": 76,
      "start": 10.1374,
      "duration": 0.0637,
      "velocity": 90,
      "chip": "ym2612"
    },
    {
      "channel": 3,
      "note": 60,
      "start": 10.2709,
      "duration": 0.0637,
      "velocity": 88,
      "chip": "ym2612"
    },
    {
      "channel": 3,
      "note": 57,
      "start": 10.4043,
      "duration": 0.0805,
      "velocity": 88,
      "chip": "ym2612"
    },
    {
      "channel": 0,
      "note": 69,
      "start": 10.4066,
      "duration": 0.0779,
      "velocity": 90,
      "chip": "ym2612"
    },
    {
      "channel": 1,
      "note": 45,
      "start": 10.4094,
      "duration": 0.1417,
      "velocity": 104,
      "chip": "ym2612"
    },
    {
      "channel": 4,
      "note": 86,
      "start": 10.5547,
      "duration": 0.0634,
      "velocity": 121,
      "chip": "ym2612"
    },
    {
      "channel": 0,
      "note": 76,
      "start": 10.6874,
      "duration": 0.0637,
      "velocity": 90,
      "chip": "ym2612"
    },
    {
      "channel": 3,
      "note": 67,
      "start": 10.8212,
      "duration": 0.0634,
      "velocity": 88,
      "chip": "ym2612"
    },
    {
      "channel": 3,
      "note": 65,
      "start": 10.9543,
      "duration": 0.0637,
      "velocity": 88,
      "chip": "ym2612"
    },
    {
      "channel": 0,
      "note": 65,
      "start": 10.9566,
      "duration": 0.0611,
      "velocity": 90,
      "chip": "ym2612"
    },
    {
      "channel": 3,
      "note": 64,
      "start": 11.2374,
      "duration": 0.0641,
      "velocity": 88,
      "chip": "ym2612"
    },
    {
      "channel": 0,
      "note": 72,
      "start": 11.2397,
      "duration": 0.0615,
      "velocity": 90,
      "chip": "ym2612"
    },
    {
      "channel": 3,
      "note": 63,
      "start": 11.5042,
      "duration": 0.0637,
      "velocity": 88,
      "chip": "ym2612"
    },
    {
      "channel": 0,
      "note": 65,
      "start": 11.5066,
      "duration": 0.0611,
      "velocity": 90,
      "chip": "ym2612"
    },
    {
      "channel": 0,
      "note": 72,
      "start": 11.7874,
      "duration": 0.0639,
      "velocity": 90,
      "chip": "ym2612"
    },
    {
      "channel": 3,
      "note": 55,
      "start": 11.921,
      "duration": 0.0636,
      "velocity": 88,
      "chip": "ym2612"
    },
    {
      "channel": 5,
      "note": 86,
      "start": 11.9239,
      "duration": 0.1107,
      "velocity": 125,
      "chip": "ym2612"
    },
    {
      "channel": 3,
      "note": 53,
      "start": 12.0543,
      "duration": 0.0637,
      "velocity": 88,
      "chip": "ym2612"
    },
    {
      "channel": 0,
      "note": 65,
      "start": 12.0566,
      "duration": 0.0612,
      "velocity": 90,
      "chip": "ym2612"
    },
    {
      "channel": 2,
      "note": 77,
      "start": 12.0597,
      "duration": 0.2585,
      "velocity": 106,
      "chip": "ym2612"
    },
    {
      "channel": 3,
      "note": 52,
      "start": 12.3209,
      "duration": 0.0805,
      "velocity": 88,
      "chip": "ym2612"
    },
    {
      "channel": 0,
      "note": 72,
      "start": 12.3232,
      "duration": 0.0779,
      "velocity": 90,
      "chip": "ym2612"
    },
    {
      "channel": 3,
      "note": 51,
      "start": 12.6042,
      "duration": 0.0637,
      "velocity": 88,
      "chip": "ym2612"
    },
    {
      "channel": 0,
      "note": 65,
      "start": 12.6066,
      "duration": 0.0612,
      "velocity": 90,
      "chip": "ym2612"
    },
    {
      "channel": 0,
      "note": 72,
      "start": 12.8711,
      "duration": 0.0633,
      "velocity": 90,
      "chip": "ym2612"
    },
    {
      "channel": 3,
      "note": 57,
      "start": 13.1542,
      "duration": 0.0637,
      "velocity": 88,
      "chip": "ym2612"
    },
    {
      "channel": 0,
      "note": 69,
      "start": 13.1566,
      "duration": 0.0612,
      "velocity": 90,
      "chip": "ym2612"
    },
    {
      "channel": 0,
      "note": 76,
      "start": 13.421,
      "duration": 0.0636,
      "velocity": 90,
      "chip": "ym2612"
    },
    {
      "channel": 3,
      "note": 59,
      "start": 13.5547,
      "duration": 0.0633,
      "velocity": 88,
      "chip": "ym2612"
    },
    {
      "channel": 3,
      "note": 60,
      "start": 13.7041,
      "duration": 0.0638,
      "velocity": 88,
      "chip": "ym2612"
    },
    {
      "channel": 1,
      "note": 45,
      "start": 13.707,
      "duration": 0.1275,
      "velocity": 104,
      "chip": "ym2612"
    },
    {
      "channel": 4,
      "note": 86,
      "start": 13.8379,
      "duration": 0.0634,
      "velocity": 121,
      "chip": "ym2612"
    },
    {
      "channel": 0,
      "note": 76,
      "start": 13.971,
      "duration": 0.0635,
      "velocity": 90,
      "chip": "ym2612"
    },
    {
      "channel": 3,
      "note": 63,
      "start": 14.1043,
      "duration": 0.0636,
      "velocity": 88,
      "chip": "ym2612"
    },
    {
      "channel": 3,
      "note": 64,
      "start": 14.2376,
      "duration": 0.0804,
      "velocity": 88,
      "chip": "ym2612"
    },
    {
      "channel": 0,
      "note": 69,
      "start": 14.2399,
      "duration": 0.0779,
      "velocity": 90,
      "chip": "ym2612"
    },
    {
      "channel": 0,
      "note": 76,
      "start": 14.5208,
      "duration": 0.0637,
      "velocity": 90,
      "chip": "ym2612"
    },
    {
      "channel": 3,
      "note": 60,
      "start": 14.6543,
      "duration": 0.0636,
      "velocity": 88,
      "chip": "ym2612"
    },
    {
      "channel": 3,
      "note": 57,
      "start": 14.7876,
      "duration": 0.0637,
      "velocity": 88,
      "chip": "ym2612"
    },
    {
      "channel": 1,
      "note": 45,
      "start": 14.7905,
      "duration": 0.1274,
      "velocity": 104,
      "chip": "ym2612"
    },
    {
      "channel": 4,
      "note": 86,
      "start": 14.9214,
      "duration": 0.08,
      "velocity": 121,
      "chip": "ym2612"
    },
    {
      "channel": 3,
      "note": 52,
      "start": 15.0708,
      "duration": 0.0639,
      "velocity": 88,
      "chip": "ym2612"
    },
    {
      "channel": 0,
      "note": 76,
      "start": 15.0733,
      "duration": 0.0611,
      "velocity": 90,
      "chip": "ym2612"
    },
    {
      "channel": 3,
      "note": 53,
      "start": 15.3376,
      "duration": 0.0637,
      "velocity": 88,
      "chip": "ym2612"
    },
    {
      "channel": 0,
      "note": 65,
      "start": 15.34,
      "duration": 0.0612,
      "velocity": 90,
      "chip": "ym2612"
    },
    {
      "channel": 0,
      "note": 72,
      "start": 15.6207,
      "duration": 0.0638,
      "velocity": 90,
      "chip": "ym2612"
    },
    {
      "channel": 0,
      "note": 65,
      "start": 15.8874,
      "duration": 0.0638,
      "velocity": 90,
      "chip": "ym2612"
    },
    {
      "channel": 0,
      "note": 72,
      "start": 16.154,
      "duration": 0.0805,
      "velocity": 90,
      "chip": "ym2612"
    },
    {
      "channel": 3,
      "note": 46,
      "start": 16.3043,
      "duration": 0.0636,
      "velocity": 88,
      "chip": "ym2612"
    },
    {
      "channel": 5,
      "note": 86,
      "start": 16.308,
      "duration": 0.0934,
      "velocity": 125,
      "chip": "ym2612"
    },
    {
      "channel": 3,
      "note": 53,
      "start": 16.438,
      "duration": 0.0634,
      "velocity": 88,
      "chip": "ym2612"
    },
    {
      "channel": 0,
      "note": 65,
      "start": 16.4404,
      "duration": 0.0609,
      "velocity": 90,
      "chip": "ym2612"
    },
    {
      "channel": 2,
      "note": 89,
      "start": 16.444,
      "duration": 0.2573,
      "velocity": 106,
      "chip": "ym2612"
    },
    {
      "channel": 0,
      "note": 72,
      "start": 16.7045,
      "duration": 0.0633,
      "velocity": 90,
      "chip": "ym2612"
    },
    {
      "channel": 0,
      "note": 65,
      "start": 16.9874,
      "duration": 0.0637,
      "velocity": 90,
      "chip": "ym2612"
    },
    {
      "channel": 0,
      "note": 72,
      "start": 17.254,
      "duration": 0.0639,
      "velocity": 90,
      "chip": "ym2612"
    },
    {
      "channel": 3,
      "note": 57,
      "start": 17.5375,
      "duration": 0.0639,
      "velocity": 88,
      "chip": "ym2612"
    },
    {
      "channel": 0,
      "note": 69,
      "start": 17.5398,
      "duration": 0.0613,
      "velocity": 90,
      "chip": "ym2612"
    },
    {
      "channel": 0,
      "note": 76,
      "start": 17.8041,
      "duration": 0.0637,
      "velocity": 90,
      "chip": "ym2612"
    },
    {
      "channel": 1,
      "note": 45,
      "start": 18.0712,
      "duration": 0.1467,
      "velocity": 104,
      "chip": "ym2612"
    },
    {
      "channel": 4,
      "note": 86,
      "start": 18.2213,
      "duration": 0.0633,
      "velocity": 121,
      "chip": "ym2612"
    },
    {
      "channel": 0,
      "note": 76,
      "start": 18.3541,
      "duration": 0.0637,
      "velocity": 90,
      "chip": "ym2612"
    },
    {
      "channel": 3,
      "note": 52,
      "start": 18.4876,
      "duration": 0.0636,
      "velocity": 88,
      "chip": "ym2612"
    },
    {
      "channel": 3,
      "note": 57,
      "start": 18.621,
      "duration": 0.0637,
      "velocity": 88,
      "chip": "ym2612"
    },
    {
      "channel": 0,
      "note": 69,
      "start": 18.6233,
      "duration": 0.0612,
      "velocity": 90,
      "chip": "ym2612"
    },
    {
      "channel": 0,
      "note": 76,
      "start": 18.9041,
      "duration": 0.0637,
      "velocity": 90,
      "chip": "ym2612"
    },
    {
      "channel": 1,
      "note": 45,
      "start": 19.1715,
      "duration": 0.1297,
      "velocity": 104,
      "chip": "ym2612"
    },
    {
      "channel": 4,
      "note": 86,
      "start": 19.3048,
      "duration": 0.0632,
      "velocity": 121,
      "chip": "ym2612"
    },
    {
      "channel": 0,
      "note": 76,
      "start": 19.4541,
      "duration": 0.0637,
      "velocity": 90,
      "chip": "ym2612"
    },
    {
      "channel": 3,
      "note": 52,
      "start": 19.5875,
      "duration": 0.0637,
      "velocity": 88,
      "chip": "ym2612"
    },
    {
      "channel": 3,
      "note": 57,
      "start": 19.7209,
      "duration": 0.0637,
      "velocity": 88,
      "chip": "ym2612"
    },
    {
      "channel": 0,
      "note": 69,
      "start": 19.7232,
      "duration": 0.0612,
      "velocity": 90,
      "chip": "ym2612"
    },
    {
      "channel": 0,
      "note": 76,
      "start": 19.9876,
      "duration": 0.0636,
      "velocity": 90,
      "chip": "ym2612"
    },
    {
      "channel": 1,
      "note": 45,
      "start": 20.2711,
      "duration": 0.1301,
      "velocity": 104,
      "chip": "ym2612"
    },
    {
      "channel": 4,
      "note": 86,
      "start": 20.4044,
      "duration": 0.0636,
      "velocity": 121,
      "chip": "ym2612"
    },
    {
      "channel": 0,
      "note": 76,
      "start": 20.5379,
      "duration": 0.0632,
      "velocity": 90,
      "chip": "ym2612"
    },
    {
      "channel": 3,
      "note": 52,
      "start": 20.6709,
      "duration": 0.0804,
      "velocity": 88,
      "chip": "ym2612"
    },
    {
      "channel": 3,
      "note": 57,
      "start": 20.821,
      "duration": 0.0637,
      "velocity": 88,
      "chip": "ym2612"
    },
    {
      "channel": 0,
      "note": 69,
      "start": 20.8233,
      "duration": 0.0612,
      "velocity": 90,
      "chip": "ym2612"
    },
    {
      "channel": 0,
      "note": 76,
      "start": 21.0876,
      "duration": 0.0636,
      "velocity": 90,
      "chip": "ym2612"
    },
    {
      "channel": 1,
      "note": 45,
      "start": 21.371,
      "duration": 0.1303,
      "velocity": 104,
      "chip": "ym2612"
    },
    {
      "channel": 4,
      "note": 86,
      "start": 21.5045,
      "duration": 0.0634,
      "velocity": 121,
      "chip": "ym2612"
    },
    {
      "channel": 0,
      "note": 76,
      "start": 21.6376,
      "duration": 0.0636,
      "velocity": 90,
      "chip": "ym2612"
    },
    {
      "channel": 3,
      "note": 52,
      "start": 21.7715,
      "duration": 0.0631,
      "velocity": 88,
      "chip": "ym2612"
    },
    {
      "channel": 0,
      "note": 69,
      "start": 21.9041,
      "duration": 0.0637,
      "velocity": 90,
      "chip": "ym2612"
    },
    {
      "channel": 5,
      "note": 57,
      "start": 21.909,
      "duration": 0.059,
      "velocity": 104,
      "chip": "ym2612"
    },
    {
      "channel": 0,
      "note": 76,
      "start": 22.1875,
      "duration": 0.0637,
      "velocity": 90,
      "chip": "ym2612"
    },
    {
      "channel": 5,
      "note": 59,
      "start": 22.3217,
      "duration": 0.0631,
      "velocity": 104,
      "chip": "ym2612"
    },
    {
      "channel": 1,
      "note": 45,
      "start": 22.4544,
      "duration": 0.1301,
      "velocity": 104,
      "chip": "ym2612"
    },
    {
      "channel": 5,
      "note": 60,
      "start": 22.4577,
      "duration": 0.0604,
      "velocity": 104,
      "chip": "ym2612"
    },
    {
      "channel": 4,
      "note": 86,
      "start": 22.5878,
      "duration": 0.0802,
      "velocity": 121,
      "chip": "ym2612"
    },
    {
      "channel": 0,
      "note": 76,
      "start": 22.7376,
      "duration": 0.0636,
      "velocity": 90,
      "chip": "ym2612"
    },
    {
      "channel": 5,
      "note": 63,
      "start": 22.8717,
      "duration": 0.0629,
      "velocity": 104,
      "chip": "ym2612"
    },
    {
      "channel": 0,
      "note": 69,
      "start": 23.0041,
      "duration": 0.0637,
      "velocity": 90,
      "chip": "ym2612"
    },
    {
      "channel": 5,
      "note": 64,
      "start": 23.0073,
      "duration": 0.0608,
      "velocity": 104,
      "chip": "ym2612"
    },
    {
      "channel": 0,
      "note": 76,
      "start": 23.2876,
      "duration": 0.0636,
      "velocity": 90,
      "chip": "ym2612"
    },
    {
      "channel": 5,
      "note": 60,
      "start": 23.4217,
      "duration": 0.0631,
      "velocity": 104,
      "chip": "ym2612"
    },
    {
      "channel": 1,
      "note": 45,
      "start": 23.5547,
      "duration": 0.1298,
      "velocity": 104,
      "chip": "ym2612"
    },
    {
      "channel": 5,
      "note": 57,
      "start": 23.5577,
      "duration": 0.0603,
      "velocity": 104,
      "chip": "ym2612"
    },
    {
      "channel": 4,
      "note": 86,
      "start": 23.688,
      "duration": 0.0634,
      "velocity": 121,
      "chip": "ym2612"
    },
    {
      "channel": 0,
      "note": 76,
      "start": 23.8213,
      "duration": 0.0632,
      "velocity": 90,
      "chip": "ym2612"
    },
    {
      "channel": 5,
      "note": 52,
      "start": 23.8243,
      "duration": 0.0606,
      "velocity": 104,
      "chip": "ym2612"
    },
    {
      "channel": 0,
      "note": 65,
      "start": 24.1041,
      "duration": 0.0637,
      "velocity": 90,
      "chip": "ym2612"
    },
    {
      "channel": 5,
      "note": 53,
      "start": 24.1072,
      "duration": 0.0609,
      "velocity": 104,
      "chip": "ym2612"
    },
    {
      "channel": 0,
      "note": 72,
      "start": 24.3707,
      "duration": 0.0639,
      "velocity": 90,
      "chip": "ym2612"
    },
    {
      "channel": 0,
      "note": 65,
      "start": 24.6541,
      "duration": 0.0637,
      "velocity": 90,
      "chip": "ym2612"
    },
    {
      "channel": 0,
      "note": 72,
      "start": 24.9207,
      "duration": 0.0638,
      "velocity": 90,
      "chip": "ym2612"
    },
    {
      "channel": 2,
      "note": 86,
      "start": 25.0551,
      "duration": 0.1129,
      "velocity": 125,
      "chip": "ym2612"
    },
    {
      "channel": 5,
      "note": 46,
      "start": 25.0578,
      "duration": 0.0602,
      "velocity": 104,
      "chip": "ym2612"
    },
    {
      "channel": 0,
      "note": 65,
      "start": 25.204,
      "duration": 0.0638,
      "velocity": 90,
      "chip": "ym2612"
    },
    {
      "channel": 3,
      "note": 89,
      "start": 25.2074,
      "duration": 0.2605,
      "velocity": 106,
      "chip": "ym2612"
    },
    {
      "channel": 5,
      "note": 53,
      "start": 25.2106,
      "duration": 0.0575,
      "velocity": 104,
      "chip": "ym2612"
    },
    {
      "channel": 0,
      "note": 72,
      "start": 25.4708,
      "duration": 0.0637,
      "velocity": 90,
      "chip": "ym2612"
    },
    {
      "channel": 0,
      "note": 65,
      "start": 25.7374,
      "duration": 0.0637,
      "velocity": 90,
      "chip": "ym2612"
    },
    {
      "channel": 0,
      "note": 72,
      "start": 26.0206,
      "duration": 0.0639,
      "velocity": 90,
      "chip": "ym2612"
    },
    {
      "channel": 0,
      "note": 69,
      "start": 26.2874,
      "duration": 0.0639,
      "velocity": 90,
      "chip": "ym2612"
    },
    {
      "channel": 5,
      "note": 57,
      "start": 26.2905,
      "duration": 0.061,
      "velocity": 104,
      "chip": "ym2612"
    },
    {
      "channel": 0,
      "note": 76,
      "start": 26.5707,
      "duration": 0.0638,
      "velocity": 90,
      "chip": "ym2612"
    },
    {
      "channel": 5,
      "note": 59,
      "start": 26.705,
      "duration": 0.063,
      "velocity": 104,
      "chip": "ym2612"
    },
    {
      "channel": 0,
      "note": 69,
      "start": 26.8374,
      "duration": 0.0637,
      "velocity": 90,
      "chip": "ym2612"
    },
    {
      "channel": 1,
      "note": 45,
      "start": 26.8402,
      "duration": 0.1277,
      "velocity": 104,
      "chip": "ym2612"
    },
    {
      "channel": 5,
      "note": 60,
      "start": 26.8431,
      "duration": 0.0584,
      "velocity": 104,
      "chip": "ym2612"
    },
    {
      "channel": 4,
      "note": 86,
      "start": 26.9712,
      "duration": 0.0635,
      "velocity": 121,
      "chip": "ym2612"
    },
    {
      "channel": 0,
      "note": 76,
      "start": 27.1206,
      "duration": 0.0639,
      "velocity": 90,
      "chip": "ym2612"
    },
    {
      "channel": 5,
      "note": 63,
      "start": 27.2551,
      "duration": 0.063,
      "velocity": 104,
      "chip": "ym2612"
    },
    {
      "channel": 0,
      "note": 69,
      "start": 27.3874,
      "duration": 0.0637,
      "velocity": 90,
      "chip": "ym2612"
    },
    {
      "channel": 5,
      "note": 64,
      "start": 27.3906,
      "duration": 0.0608,
      "velocity": 104,
      "chip": "ym2612"
    },
    {
      "channel": 0,
      "note": 76,
      "start": 27.6541,
      "duration": 0.0637,
      "velocity": 90,
      "chip": "ym2612"
    },
    {
      "channel": 5,
      "note": 60,
      "start": 27.8049,
      "duration": 0.0631,
      "velocity": 104,
      "chip": "ym2612"
    },
    {
      "channel": 0,
      "note": 69,
      "start": 27.9373,
      "duration": 0.0639,
      "velocity": 90,
      "chip": "ym2612"
    },
    {
      "channel": 1,
      "note": 45,
      "start": 27.9402,
      "duration": 0.1277,
      "velocity": 104,
      "chip": "ym2612"
    },
    {
      "channel": 5,
      "note": 57,
      "start": 27.9431,
      "duration": 0.0584,
      "velocity": 104,
      "chip": "ym2612"
    },
    {
      "channel": 4,
      "note": 86,
      "start": 28.0714,
      "duration": 0.0632,
      "velocity": 121,
      "chip": "ym2612"
    },
    {
      "channel": 0,
      "note": 76,
      "start": 28.2045,
      "duration": 0.0633,
      "velocity": 90,
      "chip": "ym2612"
    },
    {
      "channel": 5,
      "note": 67,
      "start": 28.3387,
      "duration": 0.0793,
      "velocity": 104,
      "chip": "ym2612"
    },
    {
      "channel": 0,
      "note": 65,
      "start": 28.4874,
      "duration": 0.0637,
      "velocity": 90,
      "chip": "ym2612"
    },
    {
      "channel": 5,
      "note": 65,
      "start": 28.4906,
      "duration": 0.0608,
      "velocity": 104,
      "chip": "ym2612"
    },
    {
      "channel": 0,
      "note": 72,
      "start": 28.7541,
      "duration": 0.0637,
      "velocity": 90,
      "chip": "ym2612"
    },
    {
      "channel": 5,
      "note": 64,
      "start": 28.7571,
      "duration": 0.061,
      "velocity": 104,
      "chip": "ym2612"
    },
    {
      "channel": 0,
      "note": 65,
      "start": 29.0373,
      "duration": 0.0638,
      "velocity": 90,
      "chip": "ym2612"
    },
    {
      "channel": 5,
      "note": 63,
      "start": 29.0405,
      "duration": 0.061,
      "velocity": 104,
      "chip": "ym2612"
    },
    {
      "channel": 0,
      "note": 72,
      "start": 29.3041,
      "duration": 0.0637,
      "velocity": 90,
      "chip": "ym2612"
    },
    {
      "channel": 2,
      "note": 86,
      "start": 29.4381,
      "duration": 0.1132,
      "velocity": 125,
      "chip": "ym2612"
    },
    {
      "channel": 5,
      "note": 55,
      "start": 29.4409,
      "duration": 0.0604,
      "velocity": 104,
      "chip": "ym2612"
    },
    {
      "channel": 0,
      "note": 65,
      "start": 29.5708,
      "duration": 0.0637,
      "velocity": 90,
      "chip": "ym2612"
    },
    {
      "channel": 3,
      "note": 77,
      "start": 29.5736,
      "duration": 0.2777,
      "velocity": 106,
      "chip": "ym2612"
    },
    {
      "channel": 5,
      "note": 53,
      "start": 29.5764,
      "duration": 0.0583,
      "velocity": 104,
      "chip": "ym2612"
    },
    {
      "channel": 0,
      "note": 72,
      "start": 29.8542,
      "duration": 0.0636,
      "velocity": 90,
      "chip": "ym2612"
    },
    {
      "channel": 5,
      "note": 52,
      "start": 29.8572,
      "duration": 0.061,
      "velocity": 104,
      "chip": "ym2612"
    },
    {
      "channel": 0,
      "note": 65,
      "start": 30.1208,
      "duration": 0.0637,
      "velocity": 90,
      "chip": "ym2612"
    },
    {
      "channel": 5,
      "note": 51,
      "start": 30.1239,
      "duration": 0.0608,
      "velocity": 104,
      "chip": "ym2612"
    },
    {
      "channel": 0,
      "note": 72,
      "start": 30.4041,
      "duration": 0.0637,
      "velocity": 90,
      "chip": "ym2612"
    },
    {
      "channel": 0,
      "note": 69,
      "start": 30.6708,
      "duration": 0.0637,
      "velocity": 90,
      "chip": "ym2612"
    },
    {
      "channel": 5,
      "note": 57,
      "start": 30.6739,
      "duration": 0.0608,
      "velocity": 104,
      "chip": "ym2612"
    },
    {
      "channel": 0,
      "note": 76,
      "start": 30.9376,
      "duration": 0.0803,
      "velocity": 90,
      "chip": "ym2612"
    },
    {
      "channel": 5,
      "note": 59,
      "start": 31.0887,
      "duration": 0.0627,
      "velocity": 104,
      "chip": "ym2612"
    },
    {
      "channel": 1,
      "note": 45,
      "start": 31.2213,
      "duration": 0.1299,
      "velocity": 104,
      "chip": "ym2612"
    },
    {
      "channel": 5,
      "note": 60,
      "start": 31.2242,
      "duration": 0.0605,
      "velocity": 104,
      "chip": "ym2612"
    },
    {
      "channel": 4,
      "note": 86,
      "start": 31.3545,
      "duration": 0.0635,
      "velocity": 121,
      "chip": "ym2612"
    },
    {
      "channel": 0,
      "note": 76,
      "start": 31.4876,
      "duration": 0.0636,
      "velocity": 90,
      "chip": "ym2612"
    },
    {
      "channel": 5,
      "note": 63,
      "start": 31.6383,
      "duration": 0.0631,
      "velocity": 104,
      "chip": "ym2612"
    },
    {
      "channel": 0,
      "note": 69,
      "start": 31.7706,
      "duration": 0.0638,
      "velocity": 90,
      "chip": "ym2612"
    },
    {
      "channel": 5,
      "note": 64,
      "start": 31.7738,
      "duration": 0.061,
      "velocity": 104,
      "chip": "ym2612"
    },
    {
      "channel": 0,
      "note": 76,
      "start": 32.0379,
      "duration": 0.0632,
      "velocity": 90,
      "chip": "ym2612"
    },
    {
      "channel": 5,
      "note": 60,
      "start": 32.1717,
      "duration": 0.0796,
      "velocity": 104,
      "chip": "ym2612"
    },
    {
      "channel": 1,
      "note": 45,
      "start": 32.3217,
      "duration": 0.1295,
      "velocity": 104,
      "chip": "ym2612"
    },
    {
      "channel": 5,
      "note": 57,
      "start": 32.3246,
      "duration": 0.06,
      "velocity": 104,
      "chip": "ym2612"
    },
    {
      "channel": 4,
      "note": 86,
      "start": 32.4551,
      "duration": 0.0629,
      "velocity": 121,
      "chip": "ym2612"
    },
    {
      "channel": 0,
      "note": 76,
      "start": 32.5876,
      "duration": 0.0636,
      "velocity": 90,
      "chip": "ym2612"
    },
    {
      "channel": 5,
      "note": 52,
      "start": 32.5906,
      "duration": 0.0608,
      "velocity": 104,
      "chip": "ym2612"
    },
    {
      "channel": 0,
      "note": 65,
      "start": 32.8541,
      "duration": 0.0804,
      "velocity": 90,
      "chip": "ym2612"
    },
    {
      "channel": 5,
      "note": 53,
      "start": 32.8573,
      "duration": 0.0775,
      "velocity": 104,
      "chip": "ym2612"
    },
    {
      "channel": 0,
      "note": 72,
      "start": 33.1375,
      "duration": 0.0637,
      "velocity": 90,
      "chip": "ym2612"
    },
    {
      "channel": 0,
      "note": 65,
      "start": 33.4041,
      "duration": 0.0637,
      "velocity": 90,
      "chip": "ym2612"
    },
    {
      "channel": 0,
      "note": 72,
      "start": 33.6873,
      "duration": 0.0639,
      "velocity": 90,
      "chip": "ym2612"
    },
    {
      "channel": 2,
      "note": 86,
      "start": 33.8218,
      "duration": 0.1129,
      "velocity": 125,
      "chip": "ym2612"
    },
    {
      "channel": 5,
      "note": 46,
      "start": 33.8245,
      "duration": 0.0602,
      "velocity": 104,
      "chip": "ym2612"
    },
    {
      "channel": 0,
      "note": 65,
      "start": 33.9541,
      "duration": 0.0637,
      "velocity": 90,
      "chip": "ym2612"
    },
    {
      "channel": 3,
      "note": 89,
      "start": 33.9573,
      "duration": 0.2773,
      "velocity": 106,
      "chip": "ym2612"
    },
    {
      "channel": 5,
      "note": 53,
      "start": 33.9607,
      "duration": 0.0574,
      "velocity": 104,
      "chip": "ym2612"
    },
    {
      "channel": 0,
      "note": 72,
      "start": 34.2374,
      "duration": 0.0637,
      "velocity": 90,
      "chip": "ym2612"
    },
    {
      "channel": 0,
      "note": 65,
      "start": 34.5041,
      "duration": 0.0637,
      "velocity": 90,
      "chip": "ym2612"
    },
    {
      "channel": 0,
      "note": 72,
      "start": 34.7708,
      "duration": 0.0804,
      "velocity": 90,
      "chip": "ym2612"
    },
    {
      "channel": 1,
      "note": 57,
      "start": 35.0545,
      "duration": 0.0636,
      "velocity": 88,
      "chip": "ym2612"
    },
    {
      "channel": 0,
      "note": 69,
      "start": 35.0568,
      "duration": 0.0611,
      "velocity": 90,
      "chip": "ym2612"
    },
    {
      "channel": 0,
      "note": 76,
      "start": 35.3209,
      "duration": 0.0636,
      "velocity": 90,
      "chip": "ym2612"
    },
    {
      "channel": 4,
      "note": 45,
      "start": 35.6047,
      "duration": 0.13,
      "velocity": 104,
      "chip": "ym2612"
    },
    {
      "channel": 2,
      "note": 86,
      "start": 35.7381,
      "duration": 0.0633,
      "velocity": 121,
      "chip": "ym2612"
    },
    {
      "channel": 0,
      "note": 76,
      "start": 35.871,
      "duration": 0.0636,
      "velocity": 90,
      "chip": "ym2612"
    },
    {
      "channel": 1,
      "note": 52,
      "start": 36.0041,
      "duration": 0.0804,
      "velocity": 88,
      "chip": "ym2612"
    },
    {
      "channel": 1,
      "note": 57,
      "start": 36.1541,
      "duration": 0.0637,
      "velocity": 88,
      "chip": "ym2612"
    },
    {
      "channel": 0,
      "note": 69,
      "start": 36.1569,
      "duration": 0.0609,
      "velocity": 90,
      "chip": "ym2612"
    },
    {
      "channel": 0,
      "note": 76,
      "start": 36.421,
      "duration": 0.0636,
      "velocity": 90,
      "chip": "ym2612"
    },
    {
      "channel": 4,
      "note": 45,
      "start": 36.6879,
      "duration": 0.1468,
      "velocity": 104,
      "chip": "ym2612"
    },
    {
      "channel": 2,
      "note": 86,
      "start": 36.838,
      "duration": 0.0634,
      "velocity": 121,
      "chip": "ym2612"
    },
    {
      "channel": 0,
      "note": 76,
      "start": 36.9708,
      "duration": 0.0637,
      "velocity": 90,
      "chip": "ym2612"
    },
    {
      "channel": 1,
      "note": 52,
      "start": 37.1042,
      "duration": 0.0637,
      "velocity": 88,
      "chip": "ym2612"
    },
    {
      "channel": 1,
      "note": 57,
      "start": 37.2375,
      "duration": 0.0639,
      "velocity": 88,
      "chip": "ym2612"
    },
    {
      "channel": 0,
      "note": 69,
      "start": 37.2399,
      "duration": 0.0613,
      "velocity": 90,
      "chip": "ym2612"
    },
    {
      "channel": 0,
      "note": 76,
      "start": 37.5208,
      "duration": 0.0637,
      "velocity": 90,
      "chip": "ym2612"
    },
    {
      "channel": 4,
      "note": 45,
      "start": 37.7879,
      "duration": 0.1301,
      "velocity": 104,
      "chip": "ym2612"
    },
    {
      "channel": 2,
      "note": 86,
      "start": 37.9213,
      "duration": 0.0801,
      "velocity": 121,
      "chip": "ym2612"
    },
    {
      "channel": 0,
      "note": 76,
      "start": 38.0708,
      "duration": 0.0637,
      "velocity": 90,
      "chip": "ym2612"
    },
    {
      "channel": 1,
      "note": 52,
      "start": 38.2041,
      "duration": 0.0637,
      "velocity": 88,
      "chip": "ym2612"
    },
    {
      "channel": 1,
      "note": 57,
      "start": 38.3379,
      "duration": 0.0634,
      "velocity": 88,
      "chip": "ym2612"
    },
    {
      "channel": 0,
      "note": 69,
      "start": 38.3403,
      "duration": 0.0609,
      "velocity": 90,
      "chip": "ym2612"
    },
    {
      "channel": 0,
      "note": 76,
      "start": 38.6042,
      "duration": 0.0803,
      "velocity": 90,
      "chip": "ym2612"
    },
    {
      "channel": 4,
      "note": 45,
      "start": 38.8879,
      "duration": 0.1301,
      "velocity": 104,
      "chip": "ym2612"
    },
    {
      "channel": 2,
      "note": 86,
      "start": 39.0213,
      "duration": 0.0634,
      "velocity": 121,
      "chip": "ym2612"
    },
    {
      "channel": 0,
      "note": 76,
      "start": 39.1542,
      "duration": 0.0636,
      "velocity": 90,
      "chip": "ym2612"
    },
    {
      "channel": 1,
      "note": 52,
      "start": 39.3041,
      "duration": 0.0636,
      "velocity": 88,
      "chip": "ym2612"
    },
    {
      "channel": 1,
      "note": 62,
      "start": 39.4376,
      "duration": 0.0637,
      "velocity": 88,
      "chip": "ym2612"
    },
    {
      "channel": 0,
      "note": 74,
      "start": 39.4399,
      "duration": 0.0613,
      "velocity": 90,
      "chip": "ym2612"
    },
    {
      "channel": 5,
      "note": 101,
      "start": 39.444,
      "duration": 0.0575,
      "velocity": 88,
      "chip": "ym2612"
    },
    {
      "channel": 5,
      "note": 98,
      "start": 39.5056,
      "duration": 0.0625,
      "velocity": 88,
      "chip": "ym2612"
    },
    {
      "channel": 5,
      "note": 96,
      "start": 39.5717,
      "duration": 0.063,
      "velocity": 88,
      "chip": "ym2612"
    },
    {
      "channel": 5,
      "note": 93,
      "start": 39.6386,
      "duration": 0.0627,
      "velocity": 88,
      "chip": "ym2612"
    },
    {
      "channel": 0,
      "note": 81,
      "start": 39.7047,
      "duration": 0.0631,
      "velocity": 90,
      "chip": "ym2612"
    },
    {
      "channel": 4,
      "note": 50,
      "start": 39.9879,
      "duration": 0.1301,
      "velocity": 104,
      "chip": "ym2612"
    },
    {
      "channel": 3,
      "note": 66,
      "start": 39.9935,
      "duration": 1.6077,
      "velocity": 104,
      "chip": "ym2612"
    },
    {
      "channel": 2,
      "note": 91,
      "start": 40.1212,
      "duration": 0.0636,
      "velocity": 121,
      "chip": "ym2612"
    },
    {
      "channel": 0,
      "note": 81,
      "start": 40.2543,
      "duration": 0.0636,
      "velocity": 90,
      "chip": "ym2612"
    },
    {
      "channel": 1,
      "note": 57,
      "start": 40.3875,
      "duration": 0.0637,
      "velocity": 88,
      "chip": "ym2612"
    },
    {
      "channel": 1,
      "note": 62,
      "start": 40.5209,
      "duration": 0.0805,
      "velocity": 88,
      "chip": "ym2612"
    },
    {
      "channel": 0,
      "note": 74,
      "start": 40.5232,
      "duration": 0.0779,
      "velocity": 90,
      "chip": "ym2612"
    },
    {
      "channel": 0,
      "note": 81,
      "start": 40.8043,
      "duration": 0.0635,
      "velocity": 90,
      "chip": "ym2612"
    },
    {
      "channel": 4,
      "note": 50,
      "start": 41.0711,
      "duration": 0.1468,
      "velocity": 104,
      "chip": "ym2612"
    },
    {
      "channel": 5,
      "note": 50,
      "start": 41.0761,
      "duration": 0.2753,
      "velocity": 88,
      "chip": "ym2612"
    },
    {
      "channel": 2,
      "note": 91,
      "start": 41.2212,
      "duration": 0.0636,
      "velocity": 121,
      "chip": "ym2612"
    },
    {
      "channel": 0,
      "note": 81,
      "start": 41.3543,
      "duration": 0.0636,
      "velocity": 90,
      "chip": "ym2612"
    },
    {
      "channel": 5,
      "note": 56,
      "start": 41.3578,
      "duration": 0.2602,
      "velocity": 88,
      "chip": "ym2612"
    },
    {
      "channel": 1,
      "note": 57,
      "start": 41.4876,
      "duration": 0.0636,
      "velocity": 88,
      "chip": "ym2612"
    },
    {
      "channel": 1,
      "note": 62,
      "start": 41.6209,
      "duration": 0.0638,
      "velocity": 88,
      "chip": "ym2612"
    },
    {
      "channel": 0,
      "note": 74,
      "start": 41.6232,
      "duration": 0.0613,
      "velocity": 90,
      "chip": "ym2612"
    },
    {
      "channel": 5,
      "note": 50,
      "start": 41.6266,
      "duration": 0.2747,
      "velocity": 88,
      "chip": "ym2612"
    },
    {
      "channel": 0,
      "note": 81,
      "start": 41.9043,
      "duration": 0.0636,
      "velocity": 90,
      "chip": "ym2612"
    },
    {
      "channel": 5,
      "note": 54,
      "start": 41.9089,
      "duration": 0.2591,
      "velocity": 88,
      "chip": "ym2612"
    },
    {
      "channel": 4,
      "note": 50,
      "start": 42.1712,
      "duration": 0.1302,
      "velocity": 104,
      "chip": "ym2612"
    },
    {
      "channel": 5,
      "note": 50,
      "start": 42.1749,
      "duration": 0.2597,
      "velocity": 88,
      "chip": "ym2612"
    },
    {
      "channel": 2,
      "note": 91,
      "start": 42.3046,
      "duration": 0.0634,
      "velocity": 121,
      "chip": "ym2612"
    },
    {
      "channel": 0,
      "note": 81,
      "start": 42.4376,
      "duration": 0.0802,
      "velocity": 90,
      "chip": "ym2612"
    },
    {
      "channel": 5,
      "note": 55,
      "start": 42.4411,
      "duration": 0.277,
      "velocity": 88,
      "chip": "ym2612"
    },
    {
      "channel": 1,
      "note": 57,
      "start": 42.5875,
      "duration": 0.0637,
      "velocity": 88,
      "chip": "ym2612"
    },
    {
      "channel": 1,
      "note": 62,
      "start": 42.7213,
      "duration": 0.0634,
      "velocity": 88,
      "chip": "ym2612"
    },
    {
      "channel": 0,
      "note": 74,
      "start": 42.7237,
      "duration": 0.0608,
      "velocity": 90,
      "chip": "ym2612"
    },
    {
      "channel": 0,
      "note": 81,
      "start": 42.9879,
      "duration": 0.0632,
      "velocity": 90,
      "chip": "ym2612"
    },
    {
      "channel": 4,
      "note": 50,
      "start": 43.2711,
      "duration": 0.1302,
      "velocity": 104,
      "chip": "ym2612"
    },
    {
      "channel": 2,
      "note": 91,
      "start": 43.4045,
      "duration": 0.0636,
      "velocity": 121,
      "chip": "ym2612"
    },
    {
      "channel": 0,
      "note": 81,
      "start": 43.5376,
      "duration": 0.0636,
      "velocity": 90,
      "chip": "ym2612"
    },
    {
      "channel": 1,
      "note": 57,
      "start": 43.6709,
      "duration": 0.0637,
      "velocity": 88,
      "chip": "ym2612"
    },
    {
      "channel": 1,
      "note": 57,
      "start": 43.8208,
      "duration": 0.0639,
      "velocity": 88,
      "chip": "ym2612"
    },
    {
      "channel": 0,
      "note": 69,
      "start": 43.8231,
      "duration": 0.0614,
      "velocity": 90,
      "chip": "ym2612"
    },
    {
      "channel": 3,
      "note": 101,
      "start": 43.8265,
      "duration": 0.0583,
      "velocity": 88,
      "chip": "ym2612"
    },
    {
      "channel": 3,
      "note": 98,
      "start": 43.8885,
      "duration": 0.0628,
      "velocity": 88,
      "chip": "ym2612"
    },
    {
      "channel": 3,
      "note": 96,
      "start": 43.955,
      "duration": 0.063,
      "velocity": 88,
      "chip": "ym2612"
    },
    {
      "channel": 3,
      "note": 93,
      "start": 44.0219,
      "duration": 0.0627,
      "velocity": 88,
      "chip": "ym2612"
    },
    {
      "channel": 0,
      "note": 76,
      "start": 44.0876,
      "duration": 0.0635,
      "velocity": 90,
      "chip": "ym2612"
    },
    {
      "channel": 4,
      "note": 45,
      "start": 44.3544,
      "duration": 0.1469,
      "velocity": 104,
      "chip": "ym2612"
    },
    {
      "channel": 5,
      "note": 73,
      "start": 44.3583,
      "duration": 1.6264,
      "velocity": 104,
      "chip": "ym2612"
    },
    {
      "channel": 2,
      "note": 86,
      "start": 44.5046,
      "duration": 0.0634,
      "velocity": 121,
      "chip": "ym2612"
    },
    {
      "channel": 0,
      "note": 76,
      "start": 44.6376,
      "duration": 0.0636,
      "velocity": 90,
      "chip": "ym2612"
    },
    {
      "channel": 1,
      "note": 52,
      "start": 44.7708,
      "duration": 0.0637,
      "velocity": 88,
      "chip": "ym2612"
    },
    {
      "channel": 1,
      "note": 57,
      "start": 44.9042,
      "duration": 0.0637,
      "velocity": 88,
      "chip": "ym2612"
    },
    {
      "channel": 0,
      "note": 69,
      "start": 44.9066,
      "duration": 0.0612,
      "velocity": 90,
      "chip": "ym2612"
    },
    {
      "channel": 0,
      "note": 76,
      "start": 45.1876,
      "duration": 0.0636,
      "velocity": 90,
      "chip": "ym2612"
    },
    {
      "channel": 4,
      "note": 45,
      "start": 45.4545,
      "duration": 0.1302,
      "velocity": 104,
      "chip": "ym2612"
    },
    {
      "channel": 3,
      "note": 57,
      "start": 45.4577,
      "duration": 0.2769,
      "velocity": 88,
      "chip": "ym2612"
    },
    {
      "channel": 2,
      "note": 86,
      "start": 45.588,
      "duration": 0.0634,
      "velocity": 121,
      "chip": "ym2612"
    },
    {
      "channel": 0,
      "note": 76,
      "start": 45.7377,
      "duration": 0.0635,
      "velocity": 90,
      "chip": "ym2612"
    },
    {
      "channel": 3,
      "note": 62,
      "start": 45.7411,
      "duration": 0.2602,
      "velocity": 88,
      "chip": "ym2612"
    },
    {
      "channel": 1,
      "note": 52,
      "start": 45.8708,
      "duration": 0.0637,
      "velocity": 88,
      "chip": "ym2612"
    },
    {
      "channel": 1,
      "note": 57,
      "start": 46.0042,
      "duration": 0.0638,
      "velocity": 88,
      "chip": "ym2612"
    },
    {
      "channel": 0,
      "note": 69,
      "start": 46.0066,
      "duration": 0.0613,
      "velocity": 90,
      "chip": "ym2612"
    },
    {
      "channel": 3,
      "note": 57,
      "start": 46.0098,
      "duration": 0.2581,
      "velocity": 88,
      "chip": "ym2612"
    },
    {
      "channel": 0,
      "note": 76,
      "start": 46.271,
      "duration": 0.0802,
      "velocity": 90,
      "chip": "ym2612"
    },
    {
      "channel": 3,
      "note": 61,
      "start": 46.2755,
      "duration": 0.2757,
      "velocity": 88,
      "chip": "ym2612"
    },
    {
      "channel": 4,
      "note": 45,
      "start": 46.5545,
      "duration": 0.13,
      "velocity": 104,
      "chip": "ym2612"
    },
    {
      "channel": 3,
      "note": 57,
      "start": 46.5585,
      "duration": 0.2594,
      "velocity": 88,
      "chip": "ym2612"
    },
    {
      "channel": 2,
      "note": 86,
      "start": 46.6879,
      "duration": 0.0636,
      "velocity": 121,
      "chip": "ym2612"
    },
    {
      "channel": 0,
      "note": 76,
      "start": 46.8213,
      "duration": 0.0632,
      "velocity": 90,
      "chip": "ym2612"
    },
    {
      "channel": 3,
      "note": 62,
      "start": 46.8247,
      "duration": 0.2765,
      "velocity": 88,
      "chip": "ym2612"
    },
    {
      "channel": 1,
      "note": 52,
      "start": 46.9709,
      "duration": 0.0636,
      "velocity": 88,
      "chip": "ym2612"
    },
    {
      "channel": 1,
      "note": 57,
      "start": 47.1045,
      "duration": 0.0635,
      "velocity": 88,
      "chip": "ym2612"
    },
    {
      "channel": 0,
      "note": 69,
      "start": 47.107,
      "duration": 0.0609,
      "velocity": 90,
      "chip": "ym2612"
    },
    {
      "channel": 0,
      "note": 76,
      "start": 47.3709,
      "duration": 0.0636,
      "velocity": 90,
      "chip": "ym2612"
    },
    {
      "channel": 4,
      "note": 45,
      "start": 47.6544,
      "duration": 0.1302,
      "velocity": 104,
      "chip": "ym2612"
    },
    {
      "channel": 2,
      "note": 86,
      "start": 47.7879,
      "duration": 0.0634,
      "velocity": 121,
      "chip": "ym2612"
    },
    {
      "channel": 0,
      "note": 76,
      "start": 47.9209,
      "duration": 0.0636,
      "velocity": 90,
      "chip": "ym2612"
    },
    {
      "channel": 1,
      "note": 52,
      "start": 48.0541,
      "duration": 0.0637,
      "velocity": 88,
      "chip": "ym2612"
    },
    {
      "channel": 1,
      "note": 62,
      "start": 48.1875,
      "duration": 0.0804,
      "velocity": 88,
      "chip": "ym2612"
    },
    {
      "channel": 0,
      "note": 74,
      "start": 48.1898,
      "duration": 0.0779,
      "velocity": 90,
      "chip": "ym2612"
    },
    {
      "channel": 5,
      "note": 101,
      "start": 48.1932,
      "duration": 0.075,
      "velocity": 88,
      "chip": "ym2612"
    },
    {
      "channel": 5,
      "note": 98,
      "start": 48.2718,
      "duration": 0.0629,
      "velocity": 88,
      "chip": "ym2612"
    },
    {
      "channel": 5,
      "note": 96,
      "start": 48.3383,
      "duration": 0.063,
      "velocity": 88,
      "chip": "ym2612"
    },
    {
      "channel": 5,
      "note": 93,
      "start": 48.4057,
      "duration": 0.0624,
      "velocity": 88,
      "chip": "ym2612"
    },
    {
      "channel": 0,
      "note": 81,
      "start": 48.471,
      "duration": 0.0634,
      "velocity": 90,
      "chip": "ym2612"
    },
    {
      "channel": 4,
      "note": 50,
      "start": 48.7379,
      "duration": 0.1468,
      "velocity": 104,
      "chip": "ym2612"
    },
    {
      "channel": 3,
      "note": 66,
      "start": 48.7416,
      "duration": 1.6263,
      "velocity": 104,
      "chip": "ym2612"
    },
    {
      "channel": 2,
      "note": 91,
      "start": 48.8879,
      "duration": 0.0634,
      "velocity": 121,
      "chip": "ym2612"
    },
    {
      "channel": 0,
      "note": 81,
      "start": 49.0208,
      "duration": 0.0636,
      "velocity": 90,
      "chip": "ym2612"
    },
    {
      "channel": 1,
      "note": 57,
      "start": 49.1541,
      "duration": 0.0637,
      "velocity": 88,
      "chip": "ym2612"
    },
    {
      "channel": 1,
      "note": 62,
      "start": 49.2876,
      "duration": 0.0637,
      "velocity": 88,
      "chip": "ym2612"
    },
    {
      "channel": 0,
      "note": 74,
      "start": 49.2899,
      "duration": 0.0613,
      "velocity": 90,
      "chip": "ym2612"
    },
    {
      "channel": 0,
      "note": 81,
      "start": 49.5708,
      "duration": 0.0637,
      "velocity": 90,
      "chip": "ym2612"
    },
    {
      "channel": 4,
      "note": 50,
      "start": 49.8378,
      "duration": 0.1302,
      "velocity": 104,
      "chip": "ym2612"
    },
    {
      "channel": 5,
      "note": 50,
      "start": 49.8414,
      "duration": 0.26,
      "velocity": 88,
      "chip": "ym2612"
    },
    {
      "channel": 2,
      "note": 91,
      "start": 49.9713,
      "duration": 0.0634,
      "velocity": 121,
      "chip": "ym2612"
    },
    {
      "channel": 0,
      "note": 81,
      "start": 50.1047,
      "duration": 0.0797,
      "velocity": 90,
      "chip": "ym2612"
    },
    {
      "channel": 5,
      "note": 56,
      "start": 50.1085,
      "duration": 0.2761,
      "velocity": 88,
      "chip": "ym2612"
    },
    {
      "channel": 1,
      "note": 57,
      "start": 50.2541,
      "duration": 0.0637,
      "velocity": 88,
      "chip": "ym2612"
    },
    {
      "channel": 1,
      "note": 62,
      "start": 50.3876,
      "duration": 0.0637,
      "velocity": 88,
      "chip": "ym2612"
    },
    {
      "channel": 0,
      "note": 74,
      "start": 50.39,
      "duration": 0.0612,
      "velocity": 90,
      "chip": "ym2612"
    },
    {
      "channel": 5,
      "note": 50,
      "start": 50.3934,
      "duration": 0.258,
      "velocity": 88,
      "chip": "ym2612"
    },
    {
      "channel": 0,
      "note": 81,
      "start": 50.6543,
      "duration": 0.0635,
      "velocity": 90,
      "chip": "ym2612"
    },
    {
      "channel": 5,
      "note": 54,
      "start": 50.6586,
      "duration": 0.276,
      "velocity": 88,
      "chip": "ym2612"
    },
    {
      "channel": 4,
      "note": 50,
      "start": 50.9382,
      "duration": 0.1298,
      "velocity": 104,
      "chip": "ym2612"
    },
    {
      "channel": 5,
      "note": 50,
      "start": 50.9423,
      "duration": 0.2591,
      "velocity": 88,
      "chip": "ym2612"
    },
    {
      "channel": 2,
      "note": 91,
      "start": 51.0717,
      "duration": 0.0631,
      "velocity": 121,
      "chip": "ym2612"
    },
    {
      "channel": 0,
      "note": 81,
      "start": 51.2043,
      "duration": 0.0636,
      "velocity": 90,
      "chip": "ym2612"
    },
    {
      "channel": 5,
      "note": 55,
      "start": 51.2078,
      "duration": 0.2768,
      "velocity": 88,
      "chip": "ym2612"
    },
    {
      "channel": 1,
      "note": 57,
      "start": 51.3376,
      "duration": 0.0636,
      "velocity": 88,
      "chip": "ym2612"
    },
    {
      "channel": 1,
      "note": 62,
      "start": 51.4879,
      "duration": 0.0633,
      "velocity": 88,
      "chip": "ym2612"
    },
    {
      "channel": 0,
      "note": 74,
      "start": 51.4903,
      "duration": 0.0608,
      "velocity": 90,
      "chip": "ym2612"
    },
    {
      "channel": 0,
      "note": 81,
      "start": 51.7543,
      "duration": 0.0636,
      "velocity": 90,
      "chip": "ym2612"
    },
    {
      "channel": 4,
      "note": 50,
      "start": 52.0212,
      "duration": 0.1468,
      "velocity": 104,
      "chip": "ym2612"
    },
    {
      "channel": 2,
      "note": 91,
      "start": 52.1712,
      "duration": 0.0636,
      "velocity": 121,
      "chip": "ym2612"
    },
    {
      "channel": 0,
      "note": 81,
      "start": 52.3042,
      "duration": 0.0636,
      "velocity": 90,
      "chip": "ym2612"
    },
    {
      "channel": 1,
      "note": 57,
      "start": 52.4376,
      "duration": 0.0637,
      "velocity": 88,
      "chip": "ym2612"
    },
    {
      "channel": 1,
      "note": 64,
      "start": 52.5709,
      "duration": 0.0637,
      "velocity": 88,
      "chip": "ym2612"
    },
    {
      "channel": 0,
      "note": 76,
      "start": 52.5732,
      "duration": 0.0613,
      "velocity": 90,
      "chip": "ym2612"
    },
    {
      "channel": 3,
      "note": 100,
      "start": 52.5766,
      "duration": 0.0582,
      "velocity": 88,
      "chip": "ym2612"
    },
    {
      "channel": 3,
      "note": 95,
      "start": 52.6385,
      "duration": 0.0794,
      "velocity": 88,
      "chip": "ym2612"
    },
    {
      "channel": 3,
      "note": 92,
      "start": 52.7215,
      "duration": 0.063,
      "velocity": 88,
      "chip": "ym2612"
    },
    {
      "channel": 3,
      "note": 88,
      "start": 52.7885,
      "duration": 0.0628,
      "velocity": 88,
      "chip": "ym2612"
    },
    {
      "channel": 0,
      "note": 83,
      "start": 52.8544,
      "duration": 0.0634,
      "velocity": 90,
      "chip": "ym2612"
    },
    {
      "channel": 4,
      "note": 52,
      "start": 53.1211,
      "duration": 0.1302,
      "velocity": 104,
      "chip": "ym2612"
    },
    {
      "channel": 2,
      "note": 93,
      "start": 53.2546,
      "duration": 0.0634,
      "velocity": 121,
      "chip": "ym2612"
    },
    {
      "channel": 0,
      "note": 83,
      "start": 53.4042,
      "duration": 0.0636,
      "velocity": 90,
      "chip": "ym2612"
    },
    {
      "channel": 1,
      "note": 59,
      "start": 53.5374,
      "duration": 0.0637,
      "velocity": 88,
      "chip": "ym2612"
    },
    {
      "channel": 1,
      "note": 64,
      "start": 53.6709,
      "duration": 0.0637,
      "velocity": 88,
      "chip": "ym2612"
    },
    {
      "channel": 0,
      "note": 76,
      "start": 53.6736,
      "duration": 0.0608,
      "velocity": 90,
      "chip": "ym2612"
    },
    {
      "channel": 0,
      "note": 83,
      "start": 53.9376,
      "duration": 0.0802,
      "velocity": 90,
      "chip": "ym2612"
    },
    {
      "channel": 4,
      "note": 52,
      "start": 54.2211,
      "duration": 0.1302,
      "velocity": 104,
      "chip": "ym2612"
    },
    {
      "channel": 2,
      "note": 93,
      "start": 54.3546,
      "duration": 0.0634,
      "velocity": 121,
      "chip": "ym2612"
    },
    {
      "channel": 0,
      "note": 83,
      "start": 54.4876,
      "duration": 0.0636,
      "velocity": 90,
      "chip": "ym2612"
    },
    {
      "channel": 1,
      "note": 59,
      "start": 54.6375,
      "duration": 0.0636,
      "velocity": 88,
      "chip": "ym2612"
    },
    {
      "channel": 1,
      "note": 64,
      "start": 54.7709,
      "duration": 0.0637,
      "velocity": 88,
      "chip": "ym2612"
    },
    {
      "channel": 0,
      "note": 76,
      "start": 54.7732,
      "duration": 0.0612,
      "velocity": 90,
      "chip": "ym2612"
    },
    {
      "channel": 0,
      "note": 83,
      "start": 55.0376,
      "duration": 0.0636,
      "velocity": 90,
      "chip": "ym2612"
    },
    {
      "channel": 4,
      "note": 52,
      "start": 55.3211,
      "duration": 0.1302,
      "velocity": 104,
      "chip": "ym2612"
    },
    {
      "channel": 2,
      "note": 93,
      "start": 55.4547,
      "duration": 0.0634,
      "velocity": 121,
      "chip": "ym2612"
    },
    {
      "channel": 0,
      "note": 83,
      "start": 55.5876,
      "duration": 0.0635,
      "velocity": 90,
      "chip": "ym2612"
    },
    {
      "channel": 1,
      "note": 59,
      "start": 55.7209,
      "duration": 0.0637,
      "velocity": 88,
      "chip": "ym2612"
    },
    {
      "channel": 1,
      "note": 64,
      "start": 55.8545,
      "duration": 0.0802,
      "velocity": 88,
      "chip": "ym2612"
    },
    {
      "channel": 0,
      "note": 76,
      "start": 55.8569,
      "duration": 0.0776,
      "velocity": 90,
      "chip": "ym2612"
    },
    {
      "channel": 0,
      "note": 83,
      "start": 56.1375,
      "duration": 0.0637,
      "velocity": 90,
      "chip": "ym2612"
    },
    {
      "channel": 4,
      "note": 52,
      "start": 56.4046,
      "duration": 0.1301,
      "velocity": 104,
      "chip": "ym2612"
    },
    {
      "channel": 2,
      "note": 93,
      "start": 56.5381,
      "duration": 0.0799,
      "velocity": 121,
      "chip": "ym2612"
    },
    {
      "channel": 0,
      "note": 83,
      "start": 56.6876,
      "duration": 0.0636,
      "velocity": 90,
      "chip": "ym2612"
    },
    {
      "channel": 1,
      "note": 59,
      "start": 56.8208,
      "duration": 0.0637,
      "velocity": 88,
      "chip": "ym2612"
    }
  ]
}