{
  "track_name": "10 - DataRum",
  "duration_sec": 356.446,
  "sample_rate": 44100,
  "note_count": 10051,
  "unique_pitches": 48,
  "pitch_range": 87,
  "avg_note_duration": 0.1651,
  "reconstruction_stats": {
    "notes_reconstructed": 10051,
    "keyon_events": 10051,
    "keyoff_events": 10047,
    "orphan_keyons": 4,
    "unique_pitches": 48,
    "pitch_range": 87,
    "avg_duration_sec": 0.1651
  },
  "metadata": {
    "source": "R\\Red Zone\\10 - DataRum.vgz"
  },
  "notes": [
    {
      "channel": 0,
      "note": -1,
      "start": 0.0,
      "duration": 0.0,
      "velocity": 1,
      "chip": "ym2612"
    },
    {
      "channel": 1,
      "note": -1,
      "start": 0.0,
      "duration": 0.0,
      "velocity": 1,
      "chip": "ym2612"
    },
    {
      "channel": 2,
      "note": -1,
      "start": 0.0,
      "duration": 0.0,
      "velocity": 1,
      "chip": "ym2612"
    },
    {
      "channel": 3,
      "note": -1,
      "start": 0.0,
      "duration": 0.0,
      "velocity": 1,
      "chip": "ym2612"
    },
    {
      "channel": 4,
      "note": -1,
      "start": 0.0,
      "duration": 0.0,
      "velocity": 1,
      "chip": "ym2612"
    },
    {
      "channel": 5,
      "note": -1,
      "start": 0.0,
      "duration": 0.0,
      "velocity": 1,
      "chip": "ym2612"
    },
    {
      "channel": 0,
      "note": 53,
      "start": 0.0023,
      "duration": 0.0329,
      "velocity": 105,
      "chip": "ym2612"
    },
    {
      "channel": 2,
      "note": 7,
      "start": 0.0036,
      "duration": 2.4253,
      "velocity": 1,
      "chip": "ym2612"
    },
    {
      "channel": 3,
      "note": 7,
      "start": 0.0049,
      "duration": 2.4247,
      "velocity": 1,
      "chip": "ym2612"
    },
    {
      "channel": 4,
      "note": 7,
      "start": 0.0103,
      "duration": 2.4259,
      "velocity": 1,
      "chip": "ym2612"
    },
    {
      "channel": 5,
      "note": 7,
      "start": 0.0116,
      "duration": 2.4253,
      "velocity": 1,
      "chip": "ym2612"
    },
    {
      "channel": 0,
      "note": 53,
      "start": 1.2152,
      "duration": 0.0334,
      "velocity": 105,
      "chip": "ym2612"
    },
    {
      "channel": 0,
      "note": 53,
      "start": 2.4286,
      "duration": 0.0335,
      "velocity": 105,
      "chip": "ym2612"
    },
    {
      "channel": 2,
      "note": 7,
      "start": 2.4294,
      "duration": 2.428,
      "velocity": 1,
      "chip": "ym2612"
    },
    {
      "channel": 3,
      "note": 7,
      "start": 2.4301,
      "duration": 2.7307,
      "velocity": 1,
      "chip": "ym2612"
    },
    {
      "channel": 4,
      "note": 7,
      "start": 2.4366,
      "duration": 2.4264,
      "velocity": 1,
      "chip": "ym2612"
    },
    {
      "channel": 5,
      "note": 7,
      "start": 2.4373,
      "duration": 2.4272,
      "velocity": 1,
      "chip": "ym2612"
    },
    {
      "channel": 0,
      "note": 53,
      "start": 3.642,
      "duration": 0.0335,
      "velocity": 105,
      "chip": "ym2612"
    },
    {
      "channel": 1,
      "note": 53,
      "start": 4.5533,
      "duration": 0.1505,
      "velocity": 110,
      "chip": "ym2612"
    },
    {
      "channel": 1,
      "note": 55,
      "start": 4.7044,
      "duration": 0.1518,
      "velocity": 110,
      "chip": "ym2612"
    },
    {
      "channel": 0,
      "note": 65,
      "start": 4.856,
      "duration": 0.1505,
      "velocity": 112,
      "chip": "ym2612"
    },
    {
      "channel": 1,
      "note": 41,
      "start": 4.8572,
      "duration": 0.1507,
      "velocity": 127,
      "chip": "ym2612"
    },
    {
      "channel": 2,
      "note": 56,
      "start": 4.8586,
      "duration": 1.2278,
      "velocity": 110,
      "chip": "ym2612"
    },
    {
      "channel": 4,
      "note": 53,
      "start": 4.8643,
      "duration": 0.033,
      "velocity": 105,
      "chip": "ym2612"
    },
    {
      "channel": 5,
      "note": 7,
      "start": 4.865,
      "duration": 2.4259,
      "velocity": 1,
      "chip": "ym2612"
    },
    {
      "channel": 0,
      "note": 65,
      "start": 5.0077,
      "duration": 0.1505,
      "velocity": 112,
      "chip": "ym2612"
    },
    {
      "channel": 1,
      "note": 41,
      "start": 5.0084,
      "duration": 0.1512,
      "velocity": 126,
      "chip": "ym2612"
    },
    {
      "channel": 0,
      "note": 65,
      "start": 5.1593,
      "duration": 0.1505,
      "velocity": 112,
      "chip": "ym2612"
    },
    {
      "channel": 1,
      "note": 41,
      "start": 5.16,
      "duration": 0.1513,
      "velocity": 125,
      "chip": "ym2612"
    },
    {
      "channel": 3,
      "note": 53,
      "start": 5.162,
      "duration": 0.1505,
      "velocity": 110,
      "chip": "ym2612"
    },
    {
      "channel": 0,
      "note": 65,
      "start": 5.311,
      "duration": 0.1505,
      "velocity": 112,
      "chip": "ym2612"
    },
    {
      "channel": 1,
      "note": 41,
      "start": 5.3117,
      "duration": 0.1512,
      "velocity": 124,
      "chip": "ym2612"
    },
    {
      "channel": 3,
      "note": 55,
      "start": 5.3131,
      "duration": 0.1511,
      "velocity": 110,
      "chip": "ym2612"
    },
    {
      "channel": 0,
      "note": 65,
      "start": 5.4627,
      "duration": 0.1505,
      "velocity": 112,
      "chip": "ym2612"
    },
    {
      "channel": 1,
      "note": 41,
      "start": 5.4633,
      "duration": 0.1513,
      "velocity": 123,
      "chip": "ym2612"
    },
    {
      "channel": 3,
      "note": 56,
      "start": 5.4647,
      "duration": 0.3028,
      "velocity": 110,
      "chip": "ym2612"
    },
    {
      "channel": 0,
      "note": 65,
      "start": 5.6144,
      "duration": 0.1505,
      "velocity": 112,
      "chip": "ym2612"
    },
    {
      "channel": 1,
      "note": 42,
      "start": 5.6151,
      "duration": 0.1512,
      "velocity": 122,
      "chip": "ym2612"
    },
    {
      "channel": 0,
      "note": 65,
      "start": 5.766,
      "duration": 0.1506,
      "velocity": 112,
      "chip": "ym2612"
    },
    {
      "channel": 1,
      "note": 41,
      "start": 5.7667,
      "duration": 0.1512,
      "velocity": 121,
      "chip": "ym2612"
    },
    {
      "channel": 3,
      "note": 53,
      "start": 5.7681,
      "duration": 0.1511,
      "velocity": 110,
      "chip": "ym2612"
    },
    {
      "channel": 0,
      "note": 65,
      "start": 5.9177,
      "duration": 0.1505,
      "velocity": 112,
      "chip": "ym2612"
    },
    {
      "channel": 1,
      "note": 41,
      "start": 5.9184,
      "duration": 0.1513,
      "velocity": 120,
      "chip": "ym2612"
    },
    {
      "channel": 3,
      "note": 55,
      "start": 5.9198,
      "duration": 0.1511,
      "velocity": 110,
      "chip": "ym2612"
    },
    {
      "channel": 0,
      "note": 65,
      "start": 6.0694,
      "duration": 0.1505,
      "velocity": 112,
      "chip": "ym2612"
    },
    {
      "channel": 1,
      "note": 42,
      "start": 6.0701,
      "duration": 0.1512,
      "velocity": 119,
      "chip": "ym2612"
    },
    {
      "channel": 3,
      "note": 56,
      "start": 6.0715,
      "duration": 0.3022,
      "velocity": 110,
      "chip": "ym2612"
    },
    {
      "channel": 4,
      "note": 53,
      "start": 6.0772,
      "duration": 0.0334,
      "velocity": 105,
      "chip": "ym2612"
    },
    {
      "channel": 0,
      "note": 65,
      "start": 6.2211,
      "duration": 0.1506,
      "velocity": 112,
      "chip": "ym2612"
    },
    {
      "channel": 1,
      "note": 41,
      "start": 6.2217,
      "duration": 0.1507,
      "velocity": 118,
      "chip": "ym2612"
    },
    {
      "channel": 0,
      "note": 65,
      "start": 6.3722,
      "duration": 0.1511,
      "velocity": 112,
      "chip": "ym2612"
    },
    {
      "channel": 1,
      "note": 41,
      "start": 6.3729,
      "duration": 0.1518,
      "velocity": 117,
      "chip": "ym2612"
    },
    {
      "channel": 3,
      "note": 53,
      "start": 6.3743,
      "duration": 0.1517,
      "velocity": 110,
      "chip": "ym2612"
    },
    {
      "channel": 0,
      "note": 65,
      "start": 6.5245,
      "duration": 0.1505,
      "velocity": 112,
      "chip": "ym2612"
    },
    {
      "channel": 1,
      "note": 41,
      "start": 6.5252,
      "duration": 0.1512,
      "velocity": 116,
      "chip": "ym2612"
    },
    {
      "channel": 3,
      "note": 55,
      "start": 6.5266,
      "duration": 0.151,
      "velocity": 110,
      "chip": "ym2612"
    },
    {
      "channel": 0,
      "note": 65,
      "start": 6.6761,
      "duration": 0.1505,
      "velocity": 112,
      "chip": "ym2612"
    },
    {
      "channel": 1,
      "note": 41,
      "start": 6.6768,
      "duration": 0.1513,
      "velocity": 115,
      "chip": "ym2612"
    },
    {
      "channel": 3,
      "note": 56,
      "start": 6.6782,
      "duration": 0.3031,
      "velocity": 110,
      "chip": "ym2612"
    },
    {
      "channel": 0,
      "note": 65,
      "start": 6.8278,
      "duration": 0.1506,
      "velocity": 112,
      "chip": "ym2612"
    },
    {
      "channel": 1,
      "note": 41,
      "start": 6.8285,
      "duration": 0.1512,
      "velocity": 114,
      "chip": "ym2612"
    },
    {
      "channel": 0,
      "note": 65,
      "start": 6.9795,
      "duration": 0.1505,
      "velocity": 112,
      "chip": "ym2612"
    },
    {
      "channel": 1,
      "note": 29,
      "start": 6.9801,
      "duration": 0.1513,
      "velocity": 113,
      "chip": "ym2612"
    },
    {
      "channel": 2,
      "note": 55,
      "start": 6.981,
      "duration": 0.1512,
      "velocity": 110,
      "chip": "ym2612"
    },
    {
      "channel": 3,
      "note": 53,
      "start": 6.9818,
      "duration": 0.1511,
      "velocity": 110,
      "chip": "ym2612"
    },
    {
      "channel": 0,
      "note": 65,
      "start": 7.1312,
      "duration": 0.1505,
      "velocity": 112,
      "chip": "ym2612"
    },
    {
      "channel": 1,
      "note": 41,
      "start": 7.1319,
      "duration": 0.1512,
      "velocity": 112,
      "chip": "ym2612"
    },
    {
      "channel": 2,
      "note": 53,
      "start": 7.1327,
      "duration": 0.1511,
      "velocity": 110,
      "chip": "ym2612"
    },
    {
      "channel": 3,
      "note": 55,
      "start": 7.1335,
      "duration": 0.1511,
      "velocity": 110,
      "chip": "ym2612"
    },
    {
      "channel": 0,
      "note": 65,
      "start": 7.2829,
      "duration": 0.1505,
      "velocity": 112,
      "chip": "ym2612"
    },
    {
      "channel": 1,
      "note": 41,
      "start": 7.2835,
      "duration": 0.1513,
      "velocity": 127,
      "chip": "ym2612"
    },
    {
      "channel": 2,
      "note": 48,
      "start": 7.2843,
      "duration": 1.2291,
      "velocity": 110,
      "chip": "ym2612"
    },
    {
      "channel": 3,
      "note": 56,
      "start": 7.2852,
      "duration": 0.3025,
      "velocity": 110,
      "chip": "ym2612"
    },
    {
      "channel": 4,
      "note": 53,
      "start": 7.2906,
      "duration": 0.0335,
      "velocity": 105,
      "chip": "ym2612"
    },
    {
      "channel": 5,
      "note": 7,
      "start": 7.2914,
      "duration": 2.4263,
      "velocity": 1,
      "chip": "ym2612"
    },
    {
      "channel": 0,
      "note": 65,
      "start": 7.4345,
      "duration": 0.1505,
      "velocity": 112,
      "chip": "ym2612"
    },
    {
      "channel": 1,
      "note": 41,
      "start": 7.4352,
      "duration": 0.1512,
      "velocity": 126,
      "chip": "ym2612"
    },
    {
      "channel": 0,
      "note": 65,
      "start": 7.5862,
      "duration": 0.1505,
      "velocity": 112,
      "chip": "ym2612"
    },
    {
      "channel": 1,
      "note": 41,
      "start": 7.5869,
      "duration": 0.1513,
      "velocity": 125,
      "chip": "ym2612"
    },
    {
      "channel": 3,
      "note": 55,
      "start": 7.5883,
      "duration": 0.1512,
      "velocity": 110,
      "chip": "ym2612"
    },
    {
      "channel": 0,
      "note": 65,
      "start": 7.7379,
      "duration": 0.1506,
      "velocity": 112,
      "chip": "ym2612"
    },
    {
      "channel": 1,
      "note": 41,
      "start": 7.7386,
      "duration": 0.1506,
      "velocity": 124,
      "chip": "ym2612"
    },
    {
      "channel": 3,
      "note": 53,
      "start": 7.74,
      "duration": 0.1506,
      "velocity": 110,
      "chip": "ym2612"
    },
    {
      "channel": 0,
      "note": 65,
      "start": 7.889,
      "duration": 0.1511,
      "velocity": 112,
      "chip": "ym2612"
    },
    {
      "channel": 1,
      "note": 41,
      "start": 7.8897,
      "duration": 0.1518,
      "velocity": 123,
      "chip": "ym2612"
    },
    {
      "channel": 3,
      "note": 48,
      "start": 7.8911,
      "duration": 0.3033,
      "velocity": 110,
      "chip": "ym2612"
    },
    {
      "channel": 0,
      "note": 65,
      "start": 8.0413,
      "duration": 0.1504,
      "velocity": 112,
      "chip": "ym2612"
    },
    {
      "channel": 1,
      "note": 42,
      "start": 8.042,
      "duration": 0.1512,
      "velocity": 122,
      "chip": "ym2612"
    },
    {
      "channel": 0,
      "note": 65,
      "start": 8.1929,
      "duration": 0.1505,
      "velocity": 112,
      "chip": "ym2612"
    },
    {
      "channel": 1,
      "note": 41,
      "start": 8.1936,
      "duration": 0.1512,
      "velocity": 121,
      "chip": "ym2612"
    },
    {
      "channel": 3,
      "note": 55,
      "start": 8.195,
      "duration": 0.1511,
      "velocity": 110,
      "chip": "ym2612"
    },
    {
      "channel": 0,
      "note": 65,
      "start": 8.3446,
      "duration": 0.1505,
      "velocity": 112,
      "chip": "ym2612"
    },
    {
      "channel": 1,
      "note": 41,
      "start": 8.3453,
      "duration": 0.1513,
      "velocity": 120,
      "chip": "ym2612"
    },
    {
      "channel": 3,
      "note": 53,
      "start": 8.3467,
      "duration": 0.1512,
      "velocity": 110,
      "chip": "ym2612"
    },
    {
      "channel": 0,
      "note": 65,
      "start": 8.4963,
      "duration": 0.1505,
      "velocity": 112,
      "chip": "ym2612"
    },
    {
      "channel": 1,
      "note": 42,
      "start": 8.497,
      "duration": 0.1512,
      "velocity": 119,
      "chip": "ym2612"
    },
    {
      "channel": 3,
      "note": 48,
      "start": 8.4984,
      "duration": 0.3027,
      "velocity": 110,
      "chip": "ym2612"
    },
    {
      "channel": 4,
      "note": 53,
      "start": 8.5041,
      "duration": 0.0335,
      "velocity": 105,
      "chip": "ym2612"
    },
    {
      "channel": 0,
      "note": 65,
      "start": 8.648,
      "duration": 0.1505,
      "velocity": 112,
      "chip": "ym2612"
    },
    {
      "channel": 1,
      "note": 41,
      "start": 8.6486,
      "duration": 0.1513,
      "velocity": 118,
      "chip": "ym2612"
    },
    {
      "channel": 0,
      "note": 65,
      "start": 8.7997,
      "duration": 0.1505,
      "velocity": 112,
      "chip": "ym2612"
    },
    {
      "channel": 1,
      "note": 41,
      "start": 8.8004,
      "duration": 0.1512,
      "velocity": 117,
      "chip": "ym2612"
    },
    {
      "channel": 3,
      "note": 55,
      "start": 8.8018,
      "duration": 0.1511,
      "velocity": 110,
      "chip": "ym2612"
    },
    {
      "channel": 0,
      "note": 65,
      "start": 8.9513,
      "duration": 0.1506,
      "velocity": 112,
      "chip": "ym2612"
    },
    {
      "channel": 1,
      "note": 41,
      "start": 8.952,
      "duration": 0.1512,
      "velocity": 116,
      "chip": "ym2612"
    },
    {
      "channel": 3,
      "note": 53,
      "start": 8.9534,
      "duration": 0.1511,
      "velocity": 110,
      "chip": "ym2612"
    },
    {
      "channel": 0,
      "note": 65,
      "start": 9.103,
      "duration": 0.1506,
      "velocity": 112,
      "chip": "ym2612"
    },
    {
      "channel": 1,
      "note": 41,
      "start": 9.1037,
      "duration": 0.1507,
      "velocity": 115,
      "chip": "ym2612"
    },
    {
      "channel": 3,
      "note": 48,
      "start": 9.1051,
      "duration": 0.303,
      "velocity": 110,
      "chip": "ym2612"
    },
    {
      "channel": 0,
      "note": 65,
      "start": 9.2541,
      "duration": 0.1511,
      "velocity": 112,
      "chip": "ym2612"
    },
    {
      "channel": 1,
      "note": 41,
      "start": 9.2548,
      "duration": 0.1518,
      "velocity": 114,
      "chip": "ym2612"
    },
    {
      "channel": 0,
      "note": 65,
      "start": 9.4064,
      "duration": 0.1506,
      "velocity": 112,
      "chip": "ym2612"
    },
    {
      "channel": 1,
      "note": 29,
      "start": 9.4071,
      "duration": 0.1512,
      "velocity": 113,
      "chip": "ym2612"
    },
    {
      "channel": 2,
      "note": 48,
      "start": 9.4079,
      "duration": 0.1512,
      "velocity": 110,
      "chip": "ym2612"
    },
    {
      "channel": 3,
      "note": 55,
      "start": 9.4087,
      "duration": 0.1511,
      "velocity": 110,
      "chip": "ym2612"
    },
    {
      "channel": 0,
      "note": 65,
      "start": 9.5581,
      "duration": 0.1505,
      "velocity": 112,
      "chip": "ym2612"
    },
    {
      "channel": 1,
      "note": 41,
      "start": 9.5588,
      "duration": 0.1512,
      "velocity": 112,
      "chip": "ym2612"
    },
    {
      "channel": 2,
      "note": 53,
      "start": 9.5596,
      "duration": 0.1511,
      "velocity": 110,
      "chip": "ym2612"
    },
    {
      "channel": 3,
      "note": 53,
      "start": 9.5604,
      "duration": 0.4542,
      "velocity": 110,
      "chip": "ym2612"
    },
    {
      "channel": 0,
      "note": 65,
      "start": 9.7097,
      "duration": 0.1506,
      "velocity": 112,
      "chip": "ym2612"
    },
    {
      "channel": 1,
      "note": 41,
      "start": 9.7104,
      "duration": 0.1512,
      "velocity": 127,
      "chip": "ym2612"
    },
    {
      "channel": 2,
      "note": 47,
      "start": 9.7112,
      "duration": 0.0999,
      "velocity": 110,
      "chip": "ym2612"
    },
    {
      "channel": 4,
      "note": 53,
      "start": 9.7175,
      "duration": 0.0335,
      "velocity": 105,
      "chip": "ym2612"
    },
    {
      "channel": 5,
      "note": 7,
      "start": 9.7182,
      "duration": 2.4264,
      "velocity": 1,
      "chip": "ym2612"
    },
    {
      "channel": 0,
      "note": 65,
      "start": 9.8614,
      "duration": 0.1505,
      "velocity": 112,
      "chip": "ym2612"
    },
    {
      "channel": 1,
      "note": 41,
      "start": 9.8621,
      "duration": 0.1513,
      "velocity": 126,
      "chip": "ym2612"
    },
    {
      "channel": 0,
      "note": 65,
      "start": 10.0131,
      "duration": 0.1506,
      "velocity": 112,
      "chip": "ym2612"
    },
    {
      "channel": 1,
      "note": 41,
      "start": 10.0138,
      "duration": 0.1512,
      "velocity": 125,
      "chip": "ym2612"
    },
    {
      "channel": 3,
      "note": 48,
      "start": 10.0152,
      "duration": 0.1511,
      "velocity": 110,
      "chip": "ym2612"
    },
    {
      "channel": 0,
      "note": 65,
      "start": 10.1648,
      "duration": 0.1505,
      "velocity": 112,
      "chip": "ym2612"
    },
    {
      "channel": 1,
      "note": 41,
      "start": 10.1654,
      "duration": 0.1513,
      "velocity": 124,
      "chip": "ym2612"
    },
    {
      "channel": 3,
      "note": 53,
      "start": 10.1668,
      "duration": 0.1511,
      "velocity": 110,
      "chip": "ym2612"
    },
    {
      "channel": 0,
      "note": 65,
      "start": 10.3165,
      "duration": 0.1505,
      "velocity": 112,
      "chip": "ym2612"
    },
    {
      "channel": 1,
      "note": 41,
      "start": 10.3172,
      "duration": 0.1512,
      "velocity": 123,
      "chip": "ym2612"
    },
    {
      "channel": 3,
      "note": 47,
      "start": 10.3185,
      "duration": 0.3027,
      "velocity": 110,
      "chip": "ym2612"
    },
    {
      "channel": 0,
      "note": 65,
      "start": 10.4682,
      "duration": 0.1505,
      "velocity": 112,
      "chip": "ym2612"
    },
    {
      "channel": 1,
      "note": 42,
      "start": 10.4688,
      "duration": 0.1513,
      "velocity": 122,
      "chip": "ym2612"
    },
    {
      "channel": 0,
      "note": 65,
      "start": 10.6198,
      "duration": 0.1505,
      "velocity": 112,
      "chip": "ym2612"
    },
    {
      "channel": 1,
      "note": 41,
      "start": 10.6205,
      "duration": 0.1512,
      "velocity": 121,
      "chip": "ym2612"
    },
    {
      "channel": 3,
      "note": 48,
      "start": 10.6219,
      "duration": 0.1511,
      "velocity": 110,
      "chip": "ym2612"
    },
    {
      "channel": 0,
      "note": 65,
      "start": 10.7715,
      "duration": 0.1506,
      "velocity": 112,
      "chip": "ym2612"
    },
    {
      "channel": 1,
      "note": 41,
      "start": 10.7722,
      "duration": 0.1513,
      "velocity": 120,
      "chip": "ym2612"
    },
    {
      "channel": 3,
      "note": 53,
      "start": 10.7737,
      "duration": 0.1511,
      "velocity": 110,
      "chip": "ym2612"
    },
    {
      "channel": 0,
      "note": 65,
      "start": 10.9232,
      "duration": 0.1506,
      "velocity": 112,
      "chip": "ym2612"
    },
    {
      "channel": 1,
      "note": 42,
      "start": 10.9239,
      "duration": 0.1513,
      "velocity": 119,
      "chip": "ym2612"
    },
    {
      "channel": 3,
      "note": 47,
      "start": 10.9253,
      "duration": 0.3022,
      "velocity": 110,
      "chip": "ym2612"
    },
    {
      "channel": 4,
      "note": 53,
      "start": 10.931,
      "duration": 0.0335,
      "velocity": 105,
      "chip": "ym2612"
    },
    {
      "channel": 0,
      "note": 65,
      "start": 11.0749,
      "duration": 0.1505,
      "velocity": 112,
      "chip": "ym2612"
    },
    {
      "channel": 1,
      "note": 41,
      "start": 11.0756,
      "duration": 0.1506,
      "velocity": 118,
      "chip": "ym2612"
    },
    {
      "channel": 0,
      "note": 65,
      "start": 11.226,
      "duration": 0.1511,
      "velocity": 112,
      "chip": "ym2612"
    },
    {
      "channel": 1,
      "note": 41,
      "start": 11.2266,
      "duration": 0.1518,
      "velocity": 117,
      "chip": "ym2612"
    },
    {
      "channel": 3,
      "note": 48,
      "start": 11.228,
      "duration": 0.1517,
      "velocity": 110,
      "chip": "ym2612"
    },
    {
      "channel": 0,
      "note": 65,
      "start": 11.3782,
      "duration": 0.1505,
      "velocity": 112,
      "chip": "ym2612"
    },
    {
      "channel": 1,
      "note": 41,
      "start": 11.3789,
      "duration": 0.1512,
      "velocity": 116,
      "chip": "ym2612"
    },
    {
      "channel": 3,
      "note": 53,
      "start": 11.3803,
      "duration": 0.1511,
      "velocity": 110,
      "chip": "ym2612"
    },
    {
      "channel": 0,
      "note": 65,
      "start": 11.53,
      "duration": 0.1505,
      "velocity": 112,
      "chip": "ym2612"
    },
    {
      "channel": 1,
      "note": 41,
      "start": 11.5306,
      "duration": 0.1513,
      "velocity": 115,
      "chip": "ym2612"
    },
    {
      "channel": 3,
      "note": 47,
      "start": 11.532,
      "duration": 0.3031,
      "velocity": 110,
      "chip": "ym2612"
    },
    {
      "channel": 0,
      "note": 65,
      "start": 11.6816,
      "duration": 0.1505,
      "velocity": 112,
      "chip": "ym2612"
    },
    {
      "channel": 1,
      "note": 41,
      "start": 11.6823,
      "duration": 0.1512,
      "velocity": 114,
      "chip": "ym2612"
    },
    {
      "channel": 0,
      "note": 65,
      "start": 11.8332,
      "duration": 0.1506,
      "velocity": 112,
      "chip": "ym2612"
    },
    {
      "channel": 1,
      "note": 29,
      "start": 11.8339,
      "duration": 0.1513,
      "velocity": 113,
      "chip": "ym2612"
    },
    {
      "channel": 2,
      "note": 46,
      "start": 11.8348,
      "duration": 0.1511,
      "velocity": 110,
      "chip": "ym2612"
    },
    {
      "channel": 3,
      "note": 48,
      "start": 11.8356,
      "duration": 0.1511,
      "velocity": 110,
      "chip": "ym2612"
    },
    {
      "channel": 0,
      "note": 65,
      "start": 11.985,
      "duration": 0.1505,
      "velocity": 112,
      "chip": "ym2612"
    },
    {
      "channel": 1,
      "note": 41,
      "start": 11.9857,
      "duration": 0.1512,
      "velocity": 112,
      "chip": "ym2612"
    },
    {
      "channel": 2,
      "note": 44,
      "start": 11.9864,
      "duration": 0.1511,
      "velocity": 110,
      "chip": "ym2612"
    },
    {
      "channel": 3,
      "note": 53,
      "start": 11.9873,
      "duration": 0.1512,
      "velocity": 110,
      "chip": "ym2612"
    },
    {
      "channel": 0,
      "note": 65,
      "start": 12.1366,
      "duration": 0.1506,
      "velocity": 112,
      "chip": "ym2612"
    },
    {
      "channel": 1,
      "note": 41,
      "start": 12.1373,
      "duration": 0.1512,
      "velocity": 127,
      "chip": "ym2612"
    },
    {
      "channel": 2,
      "note": 46,
      "start": 12.1381,
      "duration": 0.0999,
      "velocity": 110,
      "chip": "ym2612"
    },
    {
      "channel": 3,
      "note": 47,
      "start": 12.139,
      "duration": 0.3025,
      "velocity": 110,
      "chip": "ym2612"
    },
    {
      "channel": 4,
      "note": 53,
      "start": 12.1444,
      "duration": 0.0335,
      "velocity": 105,
      "chip": "ym2612"
    },
    {
      "channel": 5,
      "note": 7,
      "start": 12.1451,
      "duration": 2.4264,
      "velocity": 1,
      "chip": "ym2612"
    },
    {
      "channel": 0,
      "note": 65,
      "start": 12.2883,
      "duration": 0.1505,
      "velocity": 112,
      "chip": "ym2612"
    },
    {
      "channel": 1,
      "note": 41,
      "start": 12.289,
      "duration": 0.1513,
      "velocity": 126,
      "chip": "ym2612"
    },
    {
      "channel": 0,
      "note": 65,
      "start": 12.44,
      "duration": 0.1506,
      "velocity": 112,
      "chip": "ym2612"
    },
    {
      "channel": 1,
      "note": 41,
      "start": 12.4407,
      "duration": 0.1512,
      "velocity": 125,
      "chip": "ym2612"
    },
    {
      "channel": 3,
      "note": 46,
      "start": 12.4422,
      "duration": 0.151,
      "velocity": 110,
      "chip": "ym2612"
    },
    {
      "channel": 0,
      "note": 65,
      "start": 12.5917,
      "duration": 0.1506,
      "velocity": 112,
      "chip": "ym2612"
    },
    {
      "channel": 1,
      "note": 41,
      "start": 12.5924,
      "duration": 0.1506,
      "velocity": 124,
      "chip": "ym2612"
    },
    {
      "channel": 3,
      "note": 44,
      "start": 12.5938,
      "duration": 0.1505,
      "velocity": 110,
      "chip": "ym2612"
    },
    {
      "channel": 0,
      "note": 65,
      "start": 12.7428,
      "duration": 0.1511,
      "velocity": 112,
      "chip": "ym2612"
    },
    {
      "channel": 1,
      "note": 41,
      "start": 12.7435,
      "duration": 0.1518,
      "velocity": 123,
      "chip": "ym2612"
    },
    {
      "channel": 3,
      "note": 46,
      "start": 12.7449,
      "duration": 0.3033,
      "velocity": 110,
      "chip": "ym2612"
    },
    {
      "channel": 0,
      "note": 65,
      "start": 12.895,
      "duration": 0.1506,
      "velocity": 112,
      "chip": "ym2612"
    },
    {
      "channel": 1,
      "note": 42,
      "start": 12.8957,
      "duration": 0.1513,
      "velocity": 122,
      "chip": "ym2612"
    },
    {
      "channel": 0,
      "note": 65,
      "start": 13.0467,
      "duration": 0.1505,
      "velocity": 112,
      "chip": "ym2612"
    },
    {
      "channel": 1,
      "note": 41,
      "start": 13.0474,
      "duration": 0.1512,
      "velocity": 121,
      "chip": "ym2612"
    },
    {
      "channel": 3,
      "note": 46,
      "start": 13.0488,
      "duration": 0.1511,
      "velocity": 110,
      "chip": "ym2612"
    },
    {
      "channel": 0,
      "note": 65,
      "start": 13.1984,
      "duration": 0.1506,
      "velocity": 112,
      "chip": "ym2612"
    },
    {
      "channel": 1,
      "note": 41,
      "start": 13.1991,
      "duration": 0.1512,
      "velocity": 120,
      "chip": "ym2612"
    },
    {
      "channel": 3,
      "note": 44,
      "start": 13.2005,
      "duration": 0.1511,
      "velocity": 110,
      "chip": "ym2612"
    },
    {
      "channel": 0,
      "note": 65,
      "start": 13.3501,
      "duration": 0.1505,
      "velocity": 112,
      "chip": "ym2612"
    },
    {
      "channel": 1,
      "note": 42,
      "start": 13.3507,
      "duration": 0.1513,
      "velocity": 119,
      "chip": "ym2612"
    },
    {
      "channel": 3,
      "note": 46,
      "start": 13.3522,
      "duration": 0.3028,
      "velocity": 110,
      "chip": "ym2612"
    },
    {
      "channel": 4,
      "note": 53,
      "start": 13.3579,
      "duration": 0.0335,
      "velocity": 105,
      "chip": "ym2612"
    },
    {
      "channel": 0,
      "note": 65,
      "start": 13.5018,
      "duration": 0.1505,
      "velocity": 112,
      "chip": "ym2612"
    },
    {
      "channel": 1,
      "note": 41,
      "start": 13.5025,
      "duration": 0.1512,
      "velocity": 118,
      "chip": "ym2612"
    },
    {
      "channel": 0,
      "note": 65,
      "start": 13.6535,
      "duration": 0.1505,
      "velocity": 112,
      "chip": "ym2612"
    },
    {
      "channel": 1,
      "note": 41,
      "start": 13.6541,
      "duration": 0.1513,
      "velocity": 117,
      "chip": "ym2612"
    },
    {
      "channel": 3,
      "note": 46,
      "start": 13.6555,
      "duration": 0.1511,
      "velocity": 110,
      "chip": "ym2612"
    },
    {
      "channel": 0,
      "note": 65,
      "start": 13.8051,
      "duration": 0.1505,
      "velocity": 112,
      "chip": "ym2612"
    },
    {
      "channel": 1,
      "note": 41,
      "start": 13.8058,
      "duration": 0.1513,
      "velocity": 116,
      "chip": "ym2612"
    },
    {
      "channel": 3,
      "note": 44,
      "start": 13.8072,
      "duration": 0.1511,
      "velocity": 110,
      "chip": "ym2612"
    },
    {
      "channel": 0,
      "note": 65,
      "start": 13.9568,
      "duration": 0.1505,
      "velocity": 112,
      "chip": "ym2612"
    },
    {
      "channel": 1,
      "note": 41,
      "start": 13.9576,
      "duration": 0.1506,
      "velocity": 115,
      "chip": "ym2612"
    },
    {
      "channel": 3,
      "note": 46,
      "start": 13.959,
      "duration": 0.303,
      "velocity": 110,
      "chip": "ym2612"
    },
    {
      "channel": 0,
      "note": 65,
      "start": 14.1079,
      "duration": 0.1511,
      "velocity": 112,
      "chip": "ym2612"
    },
    {
      "channel": 1,
      "note": 41,
      "start": 14.1086,
      "duration": 0.1518,
      "velocity": 114,
      "chip": "ym2612"
    },
    {
      "channel": 0,
      "note": 65,
      "start": 14.2602,
      "duration": 0.1506,
      "velocity": 112,
      "chip": "ym2612"
    },
    {
      "channel": 1,
      "note": 29,
      "start": 14.2609,
      "duration": 0.1512,
      "velocity": 113,
      "chip": "ym2612"
    },
    {
      "channel": 2,
      "note": 44,
      "start": 14.2617,
      "duration": 0.1511,
      "velocity": 110,
      "chip": "ym2612"
    },
    {
      "channel": 3,
      "note": 46,
      "start": 14.2625,
      "duration": 0.1511,
      "velocity": 110,
      "chip": "ym2612"
    },
    {
      "channel": 0,
      "note": 65,
      "start": 14.4119,
      "duration": 0.1505,
      "velocity": 112,
      "chip": "ym2612"
    },
    {
      "channel": 1,
      "note": 41,
      "start": 14.4125,
      "duration": 0.1513,
      "velocity": 112,
      "chip": "ym2612"
    },
    {
      "channel": 2,
      "note": 43,
      "start": 14.4133,
      "duration": 0.1511,
      "velocity": 110,
      "chip": "ym2612"
    },
    {
      "channel": 3,
      "note": 44,
      "start": 14.4142,
      "duration": 0.4543,
      "velocity": 110,
      "chip": "ym2612"
    },
    {
      "channel": 0,
      "note": 65,
      "start": 14.5635,
      "duration": 0.1505,
      "velocity": 112,
      "chip": "ym2612"
    },
    {
      "channel": 1,
      "note": 41,
      "start": 14.5642,
      "duration": 0.1512,
      "velocity": 127,
      "chip": "ym2612"
    },
    {
      "channel": 2,
      "note": 41,
      "start": 14.565,
      "duration": 0.0999,
      "velocity": 110,
      "chip": "ym2612"
    },
    {
      "channel": 4,
      "note": 53,
      "start": 14.5713,
      "duration": 0.0335,
      "velocity": 105,
      "chip": "ym2612"
    },
    {
      "channel": 5,
      "note": 7,
      "start": 14.572,
      "duration": 2.4265,
      "velocity": 1,
      "chip": "ym2612"
    },
    {
      "channel": 0,
      "note": 65,
      "start": 14.7152,
      "duration": 0.1505,
      "velocity": 112,
      "chip": "ym2612"
    },
    {
      "channel": 1,
      "note": 41,
      "start": 14.7159,
      "duration": 0.1513,
      "velocity": 126,
      "chip": "ym2612"
    },
    {
      "channel": 0,
      "note": 65,
      "start": 14.8669,
      "duration": 0.1505,
      "velocity": 112,
      "chip": "ym2612"
    },
    {
      "channel": 1,
      "note": 41,
      "start": 14.8676,
      "duration": 0.1512,
      "velocity": 125,
      "chip": "ym2612"
    },
    {
      "channel": 3,
      "note": 44,
      "start": 14.869,
      "duration": 0.1511,
      "velocity": 110,
      "chip": "ym2612"
    },
    {
      "channel": 0,
      "note": 65,
      "start": 15.0185,
      "duration": 0.1506,
      "velocity": 112,
      "chip": "ym2612"
    },
    {
      "channel": 1,
      "note": 41,
      "start": 15.0193,
      "duration": 0.1513,
      "velocity": 124,
      "chip": "ym2612"
    },
    {
      "channel": 3,
      "note": 43,
      "start": 15.0207,
      "duration": 0.1511,
      "velocity": 110,
      "chip": "ym2612"
    },
    {
      "channel": 0,
      "note": 65,
      "start": 15.1703,
      "duration": 0.1505,
      "velocity": 112,
      "chip": "ym2612"
    },
    {
      "channel": 1,
      "note": 41,
      "start": 15.171,
      "duration": 0.1512,
      "velocity": 123,
      "chip": "ym2612"
    },
    {
      "channel": 3,
      "note": 41,
      "start": 15.1724,
      "duration": 0.3028,
      "velocity": 110,
      "chip": "ym2612"
    },
    {
      "channel": 0,
      "note": 65,
      "start": 15.3219,
      "duration": 0.1506,
      "velocity": 112,
      "chip": "ym2612"
    },
    {
      "channel": 1,
      "note": 42,
      "start": 15.3226,
      "duration": 0.1513,
      "velocity": 122,
      "chip": "ym2612"
    },
    {
      "channel": 0,
      "note": 65,
      "start": 15.4737,
      "duration": 0.1504,
      "velocity": 112,
      "chip": "ym2612"
    },
    {
      "channel": 1,
      "note": 41,
      "start": 15.4744,
      "duration": 0.1512,
      "velocity": 121,
      "chip": "ym2612"
    },
    {
      "channel": 3,
      "note": 44,
      "start": 15.4757,
      "duration": 0.151,
      "velocity": 110,
      "chip": "ym2612"
    },
    {
      "channel": 0,
      "note": 65,
      "start": 15.6253,
      "duration": 0.1505,
      "velocity": 112,
      "chip": "ym2612"
    },
    {
      "channel": 1,
      "note": 41,
      "start": 15.626,
      "duration": 0.1512,
      "velocity": 120,
      "chip": "ym2612"
    },
    {
      "channel": 3,
      "note": 43,
      "start": 15.6274,
      "duration": 0.1511,
      "velocity": 110,
      "chip": "ym2612"
    },
    {
      "channel": 0,
      "note": 65,
      "start": 15.777,
      "duration": 0.1505,
      "velocity": 112,
      "chip": "ym2612"
    },
    {
      "channel": 1,
      "note": 42,
      "start": 15.7777,
      "duration": 0.1513,
      "velocity": 119,
      "chip": "ym2612"
    },
    {
      "channel": 3,
      "note": 41,
      "start": 15.779,
      "duration": 0.3022,
      "velocity": 110,
      "chip": "ym2612"
    },
    {
      "channel": 4,
      "note": 53,
      "start": 15.7848,
      "duration": 0.0335,
      "velocity": 105,
      "chip": "ym2612"
    },
    {
      "channel": 0,
      "note": 65,
      "start": 15.9287,
      "duration": 0.1506,
      "velocity": 112,
      "chip": "ym2612"
    },
    {
      "channel": 1,
      "note": 41,
      "start": 15.9294,
      "duration": 0.1506,
      "velocity": 118,
      "chip": "ym2612"
    },
    {
      "channel": 0,
      "note": 65,
      "start": 16.0798,
      "duration": 0.1512,
      "velocity": 112,
      "chip": "ym2612"
    },
    {
      "channel": 1,
      "note": 41,
      "start": 16.0805,
      "duration": 0.1518,
      "velocity": 117,
      "chip": "ym2612"
    },
    {
      "channel": 3,
      "note": 44,
      "start": 16.0819,
      "duration": 0.1517,
      "velocity": 110,
      "chip": "ym2612"
    },
    {
      "channel": 0,
      "note": 65,
      "start": 16.232,
      "duration": 0.1505,
      "velocity": 112,
      "chip": "ym2612"
    },
    {
      "channel": 1,
      "note": 41,
      "start": 16.2327,
      "duration": 0.1513,
      "velocity": 116,
      "chip": "ym2612"
    },
    {
      "channel": 3,
      "note": 43,
      "start": 16.2341,
      "duration": 0.1511,
      "velocity": 110,
      "chip": "ym2612"
    },
    {
      "channel": 0,
      "note": 65,
      "start": 16.3837,
      "duration": 0.1506,
      "velocity": 112,
      "chip": "ym2612"
    },
    {
      "channel": 1,
      "note": 41,
      "start": 16.3844,
      "duration": 0.1512,
      "velocity": 115,
      "chip": "ym2612"
    },
    {
      "channel": 3,
      "note": 41,
      "start": 16.3858,
      "duration": 0.3027,
      "velocity": 110,
      "chip": "ym2612"
    },
    {
      "channel": 0,
      "note": 65,
      "start": 16.5354,
      "duration": 0.1505,
      "velocity": 112,
      "chip": "ym2612"
    },
    {
      "channel": 1,
      "note": 41,
      "start": 16.5361,
      "duration": 0.1513,
      "velocity": 114,
      "chip": "ym2612"
    },
    {
      "channel": 0,
      "note": 65,
      "start": 16.6871,
      "duration": 0.1505,
      "velocity": 112,
      "chip": "ym2612"
    },
    {
      "channel": 1,
      "note": 29,
      "start": 16.6878,
      "duration": 0.1512,
      "velocity": 113,
      "chip": "ym2612"
    },
    {
      "channel": 3,
      "note": 44,
      "start": 16.6892,
      "duration": 0.1512,
      "velocity": 110,
      "chip": "ym2612"
    },
    {
      "channel": 0,
      "note": 65,
      "start": 16.8388,
      "duration": 0.1505,
      "velocity": 112,
      "chip": "ym2612"
    },
    {
      "channel": 1,
      "note": 41,
      "start": 16.8394,
      "duration": 0.1513,
      "velocity": 112,
      "chip": "ym2612"
    },
    {
      "channel": 3,
      "note": 43,
      "start": 16.8409,
      "duration": 0.1511,
      "velocity": 110,
      "chip": "ym2612"
    },
    {
      "channel": 0,
      "note": 65,
      "start": 16.9905,
      "duration": 0.1505,
      "velocity": 112,
      "chip": "ym2612"
    },
    {
      "channel": 1,
      "note": 41,
      "start": 16.9911,
      "duration": 0.1512,
      "velocity": 127,
      "chip": "ym2612"
    },
    {
      "channel": 3,
      "note": 41,
      "start": 16.9925,
      "duration": 0.3027,
      "velocity": 110,
      "chip": "ym2612"
    },
    {
      "channel": 4,
      "note": 53,
      "start": 16.9982,
      "duration": 0.0335,
      "velocity": 105,
      "chip": "ym2612"
    },
    {
      "channel": 5,
      "note": 7,
      "start": 16.9989,
      "duration": 2.4268,
      "velocity": 1,
      "chip": "ym2612"
    },
    {
      "channel": 0,
      "note": 65,
      "start": 17.1421,
      "duration": 0.1506,
      "velocity": 112,
      "chip": "ym2612"
    },
    {
      "channel": 1,
      "note": 41,
      "start": 17.1428,
      "duration": 0.1512,
      "velocity": 126,
      "chip": "ym2612"
    },
    {
      "channel": 0,
      "note": 65,
      "start": 17.2938,
      "duration": 0.1505,
      "velocity": 112,
      "chip": "ym2612"
    },
    {
      "channel": 1,
      "note": 41,
      "start": 17.2944,
      "duration": 0.1513,
      "velocity": 125,
      "chip": "ym2612"
    },
    {
      "channel": 3,
      "note": 44,
      "start": 17.2959,
      "duration": 0.1511,
      "velocity": 110,
      "chip": "ym2612"
    },
    {
      "channel": 0,
      "note": 65,
      "start": 17.4455,
      "duration": 0.1506,
      "velocity": 112,
      "chip": "ym2612"
    },
    {
      "channel": 1,
      "note": 41,
      "start": 17.4462,
      "duration": 0.1506,
      "velocity": 124,
      "chip": "ym2612"
    },
    {
      "channel": 3,
      "note": 43,
      "start": 17.4476,
      "duration": 0.1505,
      "velocity": 110,
      "chip": "ym2612"
    },
    {
      "channel": 0,
      "note": 65,
      "start": 17.5966,
      "duration": 0.1511,
      "velocity": 112,
      "chip": "ym2612"
    },
    {
      "channel": 1,
      "note": 41,
      "start": 17.5973,
      "duration": 0.1518,
      "velocity": 123,
      "chip": "ym2612"
    },
    {
      "channel": 3,
      "note": 41,
      "start": 17.5986,
      "duration": 0.3034,
      "velocity": 110,
      "chip": "ym2612"
    },
    {
      "channel": 0,
      "note": 65,
      "start": 17.7488,
      "duration": 0.1505,
      "velocity": 112,
      "chip": "ym2612"
    },
    {
      "channel": 1,
      "note": 42,
      "start": 17.7495,
      "duration": 0.1512,
      "velocity": 122,
      "chip": "ym2612"
    },
    {
      "channel": 0,
      "note": 65,
      "start": 17.9005,
      "duration": 0.1505,
      "velocity": 112,
      "chip": "ym2612"
    },
    {
      "channel": 1,
      "note": 41,
      "start": 17.9012,
      "duration": 0.1513,
      "velocity": 121,
      "chip": "ym2612"
    },
    {
      "channel": 3,
      "note": 44,
      "start": 17.9026,
      "duration": 0.1511,
      "velocity": 110,
      "chip": "ym2612"
    },
    {
      "channel": 0,
      "note": 65,
      "start": 18.0522,
      "duration": 0.1505,
      "velocity": 112,
      "chip": "ym2612"
    },
    {
      "channel": 1,
      "note": 41,
      "start": 18.0529,
      "duration": 0.1512,
      "velocity": 120,
      "chip": "ym2612"
    },
    {
      "channel": 3,
      "note": 43,
      "start": 18.0543,
      "duration": 0.1511,
      "velocity": 110,
      "chip": "ym2612"
    },
    {
      "channel": 0,
      "note": 65,
      "start": 18.2039,
      "duration": 0.1506,
      "velocity": 112,
      "chip": "ym2612"
    },
    {
      "channel": 1,
      "note": 42,
      "start": 18.2046,
      "duration": 0.1512,
      "velocity": 119,
      "chip": "ym2612"
    },
    {
      "channel": 3,
      "note": 41,
      "start": 18.206,
      "duration": 0.3028,
      "velocity": 110,
      "chip": "ym2612"
    },
    {
      "channel": 4,
      "note": 53,
      "start": 18.2117,
      "duration": 0.0335,
      "velocity": 105,
      "chip": "ym2612"
    },
    {
      "channel": 0,
      "note": 65,
      "start": 18.3556,
      "duration": 0.1505,
      "velocity": 112,
      "chip": "ym2612"
    },
    {
      "channel": 1,
      "note": 41,
      "start": 18.3562,
      "duration": 0.1513,
      "velocity": 118,
      "chip": "ym2612"
    },
    {
      "channel": 0,
      "note": 65,
      "start": 18.5073,
      "duration": 0.1505,
      "velocity": 112,
      "chip": "ym2612"
    },
    {
      "channel": 1,
      "note": 41,
      "start": 18.508,
      "duration": 0.1511,
      "velocity": 117,
      "chip": "ym2612"
    },
    {
      "channel": 3,
      "note": 44,
      "start": 18.5094,
      "duration": 0.151,
      "velocity": 110,
      "chip": "ym2612"
    },
    {
      "channel": 0,
      "note": 65,
      "start": 18.659,
      "duration": 0.1505,
      "velocity": 112,
      "chip": "ym2612"
    },
    {
      "channel": 1,
      "note": 41,
      "start": 18.6596,
      "duration": 0.1513,
      "velocity": 116,
      "chip": "ym2612"
    },
    {
      "channel": 3,
      "note": 43,
      "start": 18.661,
      "duration": 0.1511,
      "velocity": 110,
      "chip": "ym2612"
    },
    {
      "channel": 0,
      "note": 65,
      "start": 18.8106,
      "duration": 0.1506,
      "velocity": 112,
      "chip": "ym2612"
    },
    {
      "channel": 1,
      "note": 41,
      "start": 18.8113,
      "duration": 0.1506,
      "velocity": 115,
      "chip": "ym2612"
    },
    {
      "channel": 3,
      "note": 41,
      "start": 18.8127,
      "duration": 0.303,
      "velocity": 110,
      "chip": "ym2612"
    },
    {
      "channel": 0,
      "note": 65,
      "start": 18.9617,
      "duration": 0.1511,
      "velocity": 112,
      "chip": "ym2612"
    },
    {
      "channel": 1,
      "note": 41,
      "start": 18.9624,
      "duration": 0.1519,
      "velocity": 114,
      "chip": "ym2612"
    },
    {
      "channel": 0,
      "note": 65,
      "start": 19.114,
      "duration": 0.1505,
      "velocity": 112,
      "chip": "ym2612"
    },
    {
      "channel": 1,
      "note": 29,
      "start": 19.1147,
      "duration": 0.1512,
      "velocity": 113,
      "chip": "ym2612"
    },
    {
      "channel": 2,
      "note": 53,
      "start": 19.1154,
      "duration": 0.1511,
      "velocity": 110,
      "chip": "ym2612"
    },
    {
      "channel": 3,
      "note": 44,
      "start": 19.1163,
      "duration": 0.1512,
      "velocity": 110,
      "chip": "ym2612"
    },
    {
      "channel": 0,
      "note": 65,
      "start": 19.2656,
      "duration": 0.1506,
      "velocity": 112,
      "chip": "ym2612"
    },
    {
      "channel": 1,
      "note": 41,
      "start": 19.2663,
      "duration": 0.1512,
      "velocity": 112,
      "chip": "ym2612"
    },
    {
      "channel": 2,
      "note": 55,
      "start": 19.2672,
      "duration": 0.1517,
      "velocity": 110,
      "chip": "ym2612"
    },
    {
      "channel": 3,
      "note": 43,
      "start": 19.268,
      "duration": 0.4543,
      "velocity": 110,
      "chip": "ym2612"
    },
    {
      "channel": 0,
      "note": 92,
      "start": 19.4173,
      "duration": 0.1505,
      "velocity": 112,
      "chip": "ym2612"
    },
    {
      "channel": 1,
      "note": 53,
      "start": 19.4187,
      "duration": 0.049,
      "velocity": 120,
      "chip": "ym2612"
    },
    {
      "channel": 2,
      "note": 56,
      "start": 19.4195,
      "duration": 1.2285,
      "velocity": 110,
      "chip": "ym2612"
    },
    {
      "channel": 4,
      "note": 65,
      "start": 19.4256,
      "duration": 0.1505,
      "velocity": 112,
      "chip": "ym2612"
    },
    {
      "channel": 5,
      "note": 41,
      "start": 19.4268,
      "duration": 0.1507,
      "velocity": 127,
      "chip": "ym2612"
    },
    {
      "channel": 0,
      "note": 92,
      "start": 19.569,
      "duration": 0.1505,
      "velocity": 112,
      "chip": "ym2612"
    },
    {
      "channel": 1,
      "note": 65,
      "start": 19.5698,
      "duration": 0.0495,
      "velocity": 120,
      "chip": "ym2612"
    },
    {
      "channel": 4,
      "note": 65,
      "start": 19.5773,
      "duration": 0.1505,
      "velocity": 112,
      "chip": "ym2612"
    },
    {
      "channel": 5,
      "note": 41,
      "start": 19.578,
      "duration": 0.1512,
      "velocity": 126,
      "chip": "ym2612"
    },
    {
      "channel": 0,
      "note": 92,
      "start": 19.7207,
      "duration": 0.1505,
      "velocity": 112,
      "chip": "ym2612"
    },
    {
      "channel": 1,
      "note": 53,
      "start": 19.7214,
      "duration": 0.0496,
      "velocity": 120,
      "chip": "ym2612"
    },
    {
      "channel": 3,
      "note": 53,
      "start": 19.7228,
      "duration": 0.1512,
      "velocity": 110,
      "chip": "ym2612"
    },
    {
      "channel": 4,
      "note": 65,
      "start": 19.7289,
      "duration": 0.1505,
      "velocity": 112,
      "chip": "ym2612"
    },
    {
      "channel": 5,
      "note": 41,
      "start": 19.7296,
      "duration": 0.1512,
      "velocity": 125,
      "chip": "ym2612"
    },
    {
      "channel": 0,
      "note": 92,
      "start": 19.8724,
      "duration": 0.1505,
      "velocity": 112,
      "chip": "ym2612"
    },
    {
      "channel": 1,
      "note": 53,
      "start": 19.8731,
      "duration": 0.0496,
      "velocity": 120,
      "chip": "ym2612"
    },
    {
      "channel": 3,
      "note": 55,
      "start": 19.8746,
      "duration": 0.1511,
      "velocity": 110,
      "chip": "ym2612"
    },
    {
      "channel": 4,
      "note": 65,
      "start": 19.8806,
      "duration": 0.1505,
      "velocity": 112,
      "chip": "ym2612"
    },
    {
      "channel": 5,
      "note": 41,
      "start": 19.8813,
      "duration": 0.1513,
      "velocity": 124,
      "chip": "ym2612"
    },
    {
      "channel": 0,
      "note": 92,
      "start": 20.0241,
      "duration": 0.1505,
      "velocity": 112,
      "chip": "ym2612"
    },
    {
      "channel": 1,
      "note": 65,
      "start": 20.0249,
      "duration": 0.0495,
      "velocity": 120,
      "chip": "ym2612"
    },
    {
      "channel": 3,
      "note": 56,
      "start": 20.0263,
      "duration": 0.3027,
      "velocity": 110,
      "chip": "ym2612"
    },
    {
      "channel": 4,
      "note": 65,
      "start": 20.0323,
      "duration": 0.1505,
      "velocity": 112,
      "chip": "ym2612"
    },
    {
      "channel": 5,
      "note": 41,
      "start": 20.033,
      "duration": 0.1512,
      "velocity": 123,
      "chip": "ym2612"
    },
    {
      "channel": 0,
      "note": 92,
      "start": 20.1757,
      "duration": 0.1505,
      "velocity": 112,
      "chip": "ym2612"
    },
    {
      "channel": 1,
      "note": 53,
      "start": 20.1765,
      "duration": 0.0495,
      "velocity": 120,
      "chip": "ym2612"
    },
    {
      "channel": 4,
      "note": 65,
      "start": 20.1839,
      "duration": 0.1505,
      "velocity": 112,
      "chip": "ym2612"
    },
    {
      "channel": 5,
      "note": 42,
      "start": 20.1846,
      "duration": 0.1513,
      "velocity": 122,
      "chip": "ym2612"
    },
    {
      "channel": 0,
      "note": 92,
      "start": 20.3274,
      "duration": 0.1506,
      "velocity": 112,
      "chip": "ym2612"
    },
    {
      "channel": 1,
      "note": 53,
      "start": 20.3282,
      "duration": 0.0495,
      "velocity": 120,
      "chip": "ym2612"
    },
    {
      "channel": 3,
      "note": 53,
      "start": 20.3296,
      "duration": 0.1511,
      "velocity": 110,
      "chip": "ym2612"
    },
    {
      "channel": 4,
      "note": 65,
      "start": 20.3357,
      "duration": 0.1505,
      "velocity": 112,
      "chip": "ym2612"
    },
    {
      "channel": 5,
      "note": 41,
      "start": 20.3364,
      "duration": 0.1512,
      "velocity": 121,
      "chip": "ym2612"
    },
    {
      "channel": 0,
      "note": 92,
      "start": 20.4791,
      "duration": 0.1505,
      "velocity": 112,
      "chip": "ym2612"
    },
    {
      "channel": 1,
      "note": 65,
      "start": 20.4799,
      "duration": 0.0495,
      "velocity": 120,
      "chip": "ym2612"
    },
    {
      "channel": 3,
      "note": 55,
      "start": 20.4813,
      "duration": 0.1511,
      "velocity": 110,
      "chip": "ym2612"
    },
    {
      "channel": 4,
      "note": 65,
      "start": 20.4873,
      "duration": 0.1505,
      "velocity": 112,
      "chip": "ym2612"
    },
    {
      "channel": 5,
      "note": 41,
      "start": 20.488,
      "duration": 0.1512,
      "velocity": 120,
      "chip": "ym2612"
    },
    {
      "channel": 0,
      "note": 92,
      "start": 20.6308,
      "duration": 0.1505,
      "velocity": 112,
      "chip": "ym2612"
    },
    {
      "channel": 1,
      "note": 53,
      "start": 20.6315,
      "duration": 0.0495,
      "velocity": 120,
      "chip": "ym2612"
    },
    {
      "channel": 3,
      "note": 56,
      "start": 20.6329,
      "duration": 0.3022,
      "velocity": 110,
      "chip": "ym2612"
    },
    {
      "channel": 4,
      "note": 65,
      "start": 20.639,
      "duration": 0.1505,
      "velocity": 112,
      "chip": "ym2612"
    },
    {
      "channel": 5,
      "note": 42,
      "start": 20.6397,
      "duration": 0.1513,
      "velocity": 119,
      "chip": "ym2612"
    },
    {
      "channel": 0,
      "note": 92,
      "start": 20.7825,
      "duration": 0.1506,
      "velocity": 112,
      "chip": "ym2612"
    },
    {
      "channel": 1,
      "note": 65,
      "start": 20.7832,
      "duration": 0.0495,
      "velocity": 120,
      "chip": "ym2612"
    },
    {
      "channel": 4,
      "note": 65,
      "start": 20.7907,
      "duration": 0.1505,
      "velocity": 112,
      "chip": "ym2612"
    },
    {
      "channel": 5,
      "note": 41,
      "start": 20.7915,
      "duration": 0.1506,
      "velocity": 118,
      "chip": "ym2612"
    },
    {
      "channel": 0,
      "note": 92,
      "start": 20.9336,
      "duration": 0.1511,
      "velocity": 112,
      "chip": "ym2612"
    },
    {
      "channel": 1,
      "note": 53,
      "start": 20.9343,
      "duration": 0.0501,
      "velocity": 120,
      "chip": "ym2612"
    },
    {
      "channel": 3,
      "note": 53,
      "start": 20.9357,
      "duration": 0.1517,
      "velocity": 110,
      "chip": "ym2612"
    },
    {
      "channel": 4,
      "note": 65,
      "start": 20.9418,
      "duration": 0.1512,
      "velocity": 112,
      "chip": "ym2612"
    },
    {
      "channel": 5,
      "note": 41,
      "start": 20.9425,
      "duration": 0.1519,
      "velocity": 117,
      "chip": "ym2612"
    },
    {
      "channel": 0,
      "note": 92,
      "start": 21.0859,
      "duration": 0.1505,
      "velocity": 112,
      "chip": "ym2612"
    },
    {
      "channel": 1,
      "note": 53,
      "start": 21.0866,
      "duration": 0.0496,
      "velocity": 120,
      "chip": "ym2612"
    },
    {
      "channel": 3,
      "note": 55,
      "start": 21.088,
      "duration": 0.1511,
      "velocity": 110,
      "chip": "ym2612"
    },
    {
      "channel": 4,
      "note": 65,
      "start": 21.0941,
      "duration": 0.1505,
      "velocity": 112,
      "chip": "ym2612"
    },
    {
      "channel": 5,
      "note": 41,
      "start": 21.0948,
      "duration": 0.1512,
      "velocity": 116,
      "chip": "ym2612"
    },
    {
      "channel": 0,
      "note": 92,
      "start": 21.2375,
      "duration": 0.1505,
      "velocity": 112,
      "chip": "ym2612"
    },
    {
      "channel": 1,
      "note": 65,
      "start": 21.2383,
      "duration": 0.0495,
      "velocity": 120,
      "chip": "ym2612"
    },
    {
      "channel": 3,
      "note": 56,
      "start": 21.2397,
      "duration": 0.303,
      "velocity": 110,
      "chip": "ym2612"
    },
    {
      "channel": 4,
      "note": 65,
      "start": 21.2457,
      "duration": 0.1505,
      "velocity": 112,
      "chip": "ym2612"
    },
    {
      "channel": 5,
      "note": 41,
      "start": 21.2464,
      "duration": 0.1513,
      "velocity": 115,
      "chip": "ym2612"
    },
    {
      "channel": 0,
      "note": 92,
      "start": 21.3892,
      "duration": 0.1506,
      "velocity": 112,
      "chip": "ym2612"
    },
    {
      "channel": 1,
      "note": 53,
      "start": 21.3899,
      "duration": 0.0495,
      "velocity": 120,
      "chip": "ym2612"
    },
    {
      "channel": 4,
      "note": 65,
      "start": 21.3974,
      "duration": 0.1505,
      "velocity": 112,
      "chip": "ym2612"
    },
    {
      "channel": 5,
      "note": 41,
      "start": 21.3981,
      "duration": 0.1512,
      "velocity": 114,
      "chip": "ym2612"
    },
    {
      "channel": 0,
      "note": 92,
      "start": 21.541,
      "duration": 0.1504,
      "velocity": 112,
      "chip": "ym2612"
    },
    {
      "channel": 1,
      "note": 53,
      "start": 21.5417,
      "duration": 0.0495,
      "velocity": 120,
      "chip": "ym2612"
    },
    {
      "channel": 2,
      "note": 55,
      "start": 21.5425,
      "duration": 0.1511,
      "velocity": 110,
      "chip": "ym2612"
    },
    {
      "channel": 3,
      "note": 53,
      "start": 21.5433,
      "duration": 0.1511,
      "velocity": 110,
      "chip": "ym2612"
    },
    {
      "channel": 4,
      "note": 65,
      "start": 21.5491,
      "duration": 0.1505,
      "velocity": 112,
      "chip": "ym2612"
    },
    {
      "channel": 5,
      "note": 29,
      "start": 21.5498,
      "duration": 0.1512,
      "velocity": 113,
      "chip": "ym2612"
    },
    {
      "channel": 0,
      "note": 92,
      "start": 21.6925,
      "duration": 0.1505,
      "velocity": 112,
      "chip": "ym2612"
    },
    {
      "channel": 1,
      "note": 65,
      "start": 21.6933,
      "duration": 0.0495,
      "velocity": 120,
      "chip": "ym2612"
    },
    {
      "channel": 2,
      "note": 53,
      "start": 21.6941,
      "duration": 0.1511,
      "velocity": 110,
      "chip": "ym2612"
    },
    {
      "channel": 3,
      "note": 55,
      "start": 21.695,
      "duration": 0.1511,
      "velocity": 110,
      "chip": "ym2612"
    },
    {
      "channel": 4,
      "note": 65,
      "start": 21.7008,
      "duration": 0.1505,
      "velocity": 112,
      "chip": "ym2612"
    },
    {
      "channel": 5,
      "note": 41,
      "start": 21.7015,
      "duration": 0.1513,
      "velocity": 112,
      "chip": "ym2612"
    },
    {
      "channel": 0,
      "note": 94,
      "start": 21.8443,
      "duration": 0.1505,
      "velocity": 112,
      "chip": "ym2612"
    },
    {
      "channel": 1,
      "note": 53,
      "start": 21.845,
      "duration": 0.0495,
      "velocity": 120,
      "chip": "ym2612"
    },
    {
      "channel": 2,
      "note": 48,
      "start": 21.8458,
      "duration": 1.2291,
      "velocity": 110,
      "chip": "ym2612"
    },
    {
      "channel": 3,
      "note": 56,
      "start": 21.8466,
      "duration": 0.3025,
      "velocity": 110,
      "chip": "ym2612"
    },
    {
      "channel": 4,
      "note": 65,
      "start": 21.8525,
      "duration": 0.1505,
      "velocity": 112,
      "chip": "ym2612"
    },
    {
      "channel": 5,
      "note": 41,
      "start": 21.8532,
      "duration": 0.1512,
      "velocity": 127,
      "chip": "ym2612"
    },
    {
      "channel": 0,
      "note": 94,
      "start": 21.9959,
      "duration": 0.1505,
      "velocity": 112,
      "chip": "ym2612"
    },
    {
      "channel": 1,
      "note": 65,
      "start": 21.9967,
      "duration": 0.0496,
      "velocity": 120,
      "chip": "ym2612"
    },
    {
      "channel": 4,
      "note": 65,
      "start": 22.0042,
      "duration": 0.1505,
      "velocity": 112,
      "chip": "ym2612"
    },
    {
      "channel": 5,
      "note": 41,
      "start": 22.0048,
      "duration": 0.1513,
      "velocity": 126,
      "chip": "ym2612"
    },
    {
      "channel": 0,
      "note": 94,
      "start": 22.1476,
      "duration": 0.1506,
      "velocity": 112,
      "chip": "ym2612"
    },
    {
      "channel": 1,
      "note": 53,
      "start": 22.1483,
      "duration": 0.0496,
      "velocity": 120,
      "chip": "ym2612"
    },
    {
      "channel": 3,
      "note": 55,
      "start": 22.1497,
      "duration": 0.1511,
      "velocity": 110,
      "chip": "ym2612"
    },
    {
      "channel": 4,
      "note": 65,
      "start": 22.1558,
      "duration": 0.1505,
      "velocity": 112,
      "chip": "ym2612"
    },
    {
      "channel": 5,
      "note": 41,
      "start": 22.1565,
      "duration": 0.1513,
      "velocity": 125,
      "chip": "ym2612"
    },
    {
      "channel": 0,
      "note": 94,
      "start": 22.2993,
      "duration": 0.1505,
      "velocity": 112,
      "chip": "ym2612"
    },
    {
      "channel": 1,
      "note": 53,
      "start": 22.3,
      "duration": 0.0495,
      "velocity": 120,
      "chip": "ym2612"
    },
    {
      "channel": 3,
      "note": 53,
      "start": 22.3015,
      "duration": 0.1511,
      "velocity": 110,
      "chip": "ym2612"
    },
    {
      "channel": 4,
      "note": 65,
      "start": 22.3076,
      "duration": 0.1505,
      "velocity": 112,
      "chip": "ym2612"
    },
    {
      "channel": 5,
      "note": 41,
      "start": 22.3083,
      "duration": 0.1506,
      "velocity": 124,
      "chip": "ym2612"
    },
    {
      "channel": 0,
      "note": 94,
      "start": 22.4509,
      "duration": 0.1506,
      "velocity": 112,
      "chip": "ym2612"
    },
    {
      "channel": 1,
      "note": 65,
      "start": 22.4517,
      "duration": 0.0495,
      "velocity": 120,
      "chip": "ym2612"
    },
    {
      "channel": 3,
      "note": 48,
      "start": 22.4531,
      "duration": 0.3028,
      "velocity": 110,
      "chip": "ym2612"
    },
    {
      "channel": 4,
      "note": 65,
      "start": 22.4586,
      "duration": 0.1511,
      "velocity": 112,
      "chip": "ym2612"
    },
    {
      "channel": 5,
      "note": 41,
      "start": 22.4593,
      "duration": 0.1518,
      "velocity": 123,
      "chip": "ym2612"
    },
    {
      "channel": 0,
      "note": 94,
      "start": 22.6027,
      "duration": 0.1505,
      "velocity": 112,
      "chip": "ym2612"
    },
    {
      "channel": 1,
      "note": 53,
      "start": 22.6034,
      "duration": 0.0495,
      "velocity": 120,
      "chip": "ym2612"
    },
    {
      "channel": 4,
      "note": 65,
      "start": 22.6109,
      "duration": 0.1505,
      "velocity": 112,
      "chip": "ym2612"
    },
    {
      "channel": 5,
      "note": 42,
      "start": 22.6116,
      "duration": 0.1512,
      "velocity": 122,
      "chip": "ym2612"
    },
    {
      "channel": 0,
      "note": 94,
      "start": 22.7543,
      "duration": 0.1506,
      "velocity": 112,
      "chip": "ym2612"
    },
    {
      "channel": 1,
      "note": 53,
      "start": 22.7551,
      "duration": 0.0495,
      "velocity": 120,
      "chip": "ym2612"
    },
    {
      "channel": 3,
      "note": 55,
      "start": 22.7565,
      "duration": 0.1512,
      "velocity": 110,
      "chip": "ym2612"
    },
    {
      "channel": 4,
      "note": 65,
      "start": 22.7626,
      "duration": 0.1505,
      "velocity": 112,
      "chip": "ym2612"
    },
    {
      "channel": 5,
      "note": 41,
      "start": 22.7632,
      "duration": 0.1513,
      "velocity": 121,
      "chip": "ym2612"
    },
    {
      "channel": 0,
      "note": 94,
      "start": 22.906,
      "duration": 0.1505,
      "velocity": 112,
      "chip": "ym2612"
    },
    {
      "channel": 1,
      "note": 65,
      "start": 22.9068,
      "duration": 0.0495,
      "velocity": 120,
      "chip": "ym2612"
    },
    {
      "channel": 3,
      "note": 53,
      "start": 22.9083,
      "duration": 0.151,
      "velocity": 110,
      "chip": "ym2612"
    },
    {
      "channel": 4,
      "note": 65,
      "start": 22.9142,
      "duration": 0.1505,
      "velocity": 112,
      "chip": "ym2612"
    },
    {
      "channel": 5,
      "note": 41,
      "start": 22.9149,
      "duration": 0.1512,
      "velocity": 120,
      "chip": "ym2612"
    },
    {
      "channel": 0,
      "note": 94,
      "start": 23.0577,
      "duration": 0.1505,
      "velocity": 112,
      "chip": "ym2612"
    },
    {
      "channel": 1,
      "note": 53,
      "start": 23.0584,
      "duration": 0.0496,
      "velocity": 120,
      "chip": "ym2612"
    },
    {
      "channel": 3,
      "note": 48,
      "start": 23.0599,
      "duration": 0.3021,
      "velocity": 110,
      "chip": "ym2612"
    },
    {
      "channel": 4,
      "note": 65,
      "start": 23.0659,
      "duration": 0.1505,
      "velocity": 112,
      "chip": "ym2612"
    },
    {
      "channel": 5,
      "note": 42,
      "start": 23.0666,
      "duration": 0.1513,
      "velocity": 119,
      "chip": "ym2612"
    },
    {
      "channel": 0,
      "note": 94,
      "start": 23.2094,
      "duration": 0.1505,
      "velocity": 112,
      "chip": "ym2612"
    },
    {
      "channel": 1,
      "note": 65,
      "start": 23.2101,
      "duration": 0.0496,
      "velocity": 120,
      "chip": "ym2612"
    },
    {
      "channel": 4,
      "note": 65,
      "start": 23.2176,
      "duration": 0.1505,
      "velocity": 112,
      "chip": "ym2612"
    },
    {
      "channel": 5,
      "note": 41,
      "start": 23.2183,
      "duration": 0.1512,
      "velocity": 118,
      "chip": "ym2612"
    },
    {
      "channel": 0,
      "note": 94,
      "start": 23.3605,
      "duration": 0.1511,
      "velocity": 112,
      "chip": "ym2612"
    },
    {
      "channel": 1,
      "note": 53,
      "start": 23.3612,
      "duration": 0.0502,
      "velocity": 120,
      "chip": "ym2612"
    },
    {
      "channel": 3,
      "note": 55,
      "start": 23.3626,
      "duration": 0.1517,
      "velocity": 110,
      "chip": "ym2612"
    },
    {
      "channel": 4,
      "note": 65,
      "start": 23.3693,
      "duration": 0.1505,
      "velocity": 112,
      "chip": "ym2612"
    },
    {
      "channel": 5,
      "note": 41,
      "start": 23.37,
      "duration": 0.1513,
      "velocity": 117,
      "chip": "ym2612"
    },
    {
      "channel": 0,
      "note": 94,
      "start": 23.5127,
      "duration": 0.1506,
      "velocity": 112,
      "chip": "ym2612"
    },
    {
      "channel": 1,
      "note": 53,
      "start": 23.5135,
      "duration": 0.0495,
      "velocity": 120,
      "chip": "ym2612"
    },
    {
      "channel": 3,
      "note": 53,
      "start": 23.5149,
      "duration": 0.1511,
      "velocity": 110,
      "chip": "ym2612"
    },
    {
      "channel": 4,
      "note": 65,
      "start": 23.521,
      "duration": 0.1505,
      "velocity": 112,
      "chip": "ym2612"
    },
    {
      "channel": 5,
      "note": 41,
      "start": 23.5217,
      "duration": 0.1512,
      "velocity": 116,
      "chip": "ym2612"
    },
    {
      "channel": 0,
      "note": 94,
      "start": 23.6644,
      "duration": 0.1505,
      "velocity": 112,
      "chip": "ym2612"
    },
    {
      "channel": 1,
      "note": 65,
      "start": 23.6652,
      "duration": 0.0495,
      "velocity": 120,
      "chip": "ym2612"
    },
    {
      "channel": 3,
      "note": 48,
      "start": 23.6665,
      "duration": 0.303,
      "velocity": 110,
      "chip": "ym2612"
    },
    {
      "channel": 4,
      "note": 65,
      "start": 23.6726,
      "duration": 0.1506,
      "velocity": 112,
      "chip": "ym2612"
    },
    {
      "channel": 5,
      "note": 41,
      "start": 23.6733,
      "duration": 0.1507,
      "velocity": 115,
      "chip": "ym2612"
    },
    {
      "channel": 0,
      "note": 94,
      "start": 23.8161,
      "duration": 0.1506,
      "velocity": 112,
      "chip": "ym2612"
    },
    {
      "channel": 1,
      "note": 53,
      "start": 23.8168,
      "duration": 0.0495,
      "velocity": 120,
      "chip": "ym2612"
    },
    {
      "channel": 4,
      "note": 65,
      "start": 23.8238,
      "duration": 0.1511,
      "velocity": 112,
      "chip": "ym2612"
    },
    {
      "channel": 5,
      "note": 41,
      "start": 23.8245,
      "duration": 0.1518,
      "velocity": 114,
      "chip": "ym2612"
    },
    {
      "channel": 0,
      "note": 94,
      "start": 23.9678,
      "duration": 0.1505,
      "velocity": 112,
      "chip": "ym2612"
    },
    {
      "channel": 1,
      "note": 65,
      "start": 23.9685,
      "duration": 0.0495,
      "velocity": 120,
      "chip": "ym2612"
    },
    {
      "channel": 2,
      "note": 48,
      "start": 23.9693,
      "duration": 0.1511,
      "velocity": 110,
      "chip": "ym2612"
    },
    {
      "channel": 3,
      "note": 55,
      "start": 23.9701,
      "duration": 0.1511,
      "velocity": 110,
      "chip": "ym2612"
    },
    {
      "channel": 4,
      "note": 65,
      "start": 23.976,
      "duration": 0.1505,
      "velocity": 112,
      "chip": "ym2612"
    },
    {
      "channel": 5,
      "note": 29,
      "start": 23.9767,
      "duration": 0.1512,
      "velocity": 113,
      "chip": "ym2612"
    },
    {
      "channel": 0,
      "note": 94,
      "start": 24.1195,
      "duration": 0.1505,
      "velocity": 112,
      "chip": "ym2612"
    },
    {
      "channel": 1,
      "note": 65,
      "start": 24.1202,
      "duration": 0.0496,
      "velocity": 120,
      "chip": "ym2612"
    },
    {
      "channel": 2,
      "note": 53,
      "start": 24.121,
      "duration": 0.1511,
      "velocity": 110,
      "chip": "ym2612"
    },
    {
      "channel": 3,
      "note": 53,
      "start": 24.1218,
      "duration": 0.4543,
      "velocity": 110,
      "chip": "ym2612"
    },
    {
      "channel": 4,
      "note": 65,
      "start": 24.1277,
      "duration": 0.1505,
      "velocity": 112,
      "chip": "ym2612"
    },
    {
      "channel": 5,
      "note": 41,
      "start": 24.1283,
      "duration": 0.1513,
      "velocity": 112,
      "chip": "ym2612"
    },
    {
      "channel": 0,
      "note": 91,
      "start": 24.2712,
      "duration": 0.1505,
      "velocity": 112,
      "chip": "ym2612"
    },
    {
      "channel": 1,
      "note": 53,
      "start": 24.2719,
      "duration": 0.0496,
      "velocity": 120,
      "chip": "ym2612"
    },
    {
      "channel": 2,
      "note": 47,
      "start": 24.2727,
      "duration": 0.0999,
      "velocity": 110,
      "chip": "ym2612"
    },
    {
      "channel": 4,
      "note": 65,
      "start": 24.2794,
      "duration": 0.1505,
      "velocity": 112,
      "chip": "ym2612"
    },
    {
      "channel": 5,
      "note": 41,
      "start": 24.2801,
      "duration": 0.1512,
      "velocity": 127,
      "chip": "ym2612"
    },
    {
      "channel": 0,
      "note": 91,
      "start": 24.4228,
      "duration": 0.1505,
      "velocity": 112,
      "chip": "ym2612"
    },
    {
      "channel": 1,
      "note": 65,
      "start": 24.4236,
      "duration": 0.0495,
      "velocity": 120,
      "chip": "ym2612"
    },
    {
      "channel": 4,
      "note": 65,
      "start": 24.431,
      "duration": 0.1505,
      "velocity": 112,
      "chip": "ym2612"
    },
    {
      "channel": 5,
      "note": 41,
      "start": 24.4317,
      "duration": 0.1513,
      "velocity": 126,
      "chip": "ym2612"
    },
    {
      "channel": 0,
      "note": 91,
      "start": 24.5745,
      "duration": 0.1505,
      "velocity": 112,
      "chip": "ym2612"
    },
    {
      "channel": 1,
      "note": 53,
      "start": 24.5753,
      "duration": 0.0495,
      "velocity": 120,
      "chip": "ym2612"
    },
    {
      "channel": 3,
      "note": 48,
      "start": 24.5767,
      "duration": 0.151,
      "velocity": 110,
      "chip": "ym2612"
    },
    {
      "channel": 4,
      "note": 65,
      "start": 24.5827,
      "duration": 0.1505,
      "velocity": 112,
      "chip": "ym2612"
    },
    {
      "channel": 5,
      "note": 41,
      "start": 24.5834,
      "duration": 0.1512,
      "velocity": 125,
      "chip": "ym2612"
    },
    {
      "channel": 0,
      "note": 91,
      "start": 24.7262,
      "duration": 0.1505,
      "velocity": 112,
      "chip": "ym2612"
    },
    {
      "channel": 1,
      "note": 53,
      "start": 24.727,
      "duration": 0.0495,
      "velocity": 120,
      "chip": "ym2612"
    },
    {
      "channel": 3,
      "note": 53,
      "start": 24.7283,
      "duration": 0.1511,
      "velocity": 110,
      "chip": "ym2612"
    },
    {
      "channel": 4,
      "note": 65,
      "start": 24.7344,
      "duration": 0.1505,
      "velocity": 112,
      "chip": "ym2612"
    },
    {
      "channel": 5,
      "note": 41,
      "start": 24.7351,
      "duration": 0.1512,
      "velocity": 124,
      "chip": "ym2612"
    },
    {
      "channel": 0,
      "note": 91,
      "start": 24.8778,
      "duration": 0.1505,
      "velocity": 112,
      "chip": "ym2612"
    },
    {
      "channel": 1,
      "note": 65,
      "start": 24.8786,
      "duration": 0.0495,
      "velocity": 120,
      "chip": "ym2612"
    },
    {
      "channel": 3,
      "note": 47,
      "start": 24.88,
      "duration": 0.3027,
      "velocity": 110,
      "chip": "ym2612"
    },
    {
      "channel": 4,
      "note": 65,
      "start": 24.8861,
      "duration": 0.1505,
      "velocity": 112,
      "chip": "ym2612"
    },
    {
      "channel": 5,
      "note": 41,
      "start": 24.8868,
      "duration": 0.1513,
      "velocity": 123,
      "chip": "ym2612"
    },
    {
      "channel": 0,
      "note": 91,
      "start": 25.0296,
      "duration": 0.1505,
      "velocity": 112,
      "chip": "ym2612"
    },
    {
      "channel": 1,
      "note": 53,
      "start": 25.0303,
      "duration": 0.0495,
      "velocity": 120,
      "chip": "ym2612"
    },
    {
      "channel": 4,
      "note": 65,
      "start": 25.0378,
      "duration": 0.1505,
      "velocity": 112,
      "chip": "ym2612"
    },
    {
      "channel": 5,
      "note": 42,
      "start": 25.0385,
      "duration": 0.1512,
      "velocity": 122,
      "chip": "ym2612"
    },
    {
      "channel": 0,
      "note": 91,
      "start": 25.1812,
      "duration": 0.1505,
      "velocity": 112,
      "chip": "ym2612"
    },
    {
      "channel": 1,
      "note": 53,
      "start": 25.182,
      "duration": 0.0496,
      "velocity": 120,
      "chip": "ym2612"
    },
    {
      "channel": 3,
      "note": 48,
      "start": 25.1834,
      "duration": 0.1511,
      "velocity": 110,
      "chip": "ym2612"
    },
    {
      "channel": 4,
      "note": 65,
      "start": 25.1894,
      "duration": 0.1505,
      "velocity": 112,
      "chip": "ym2612"
    },
    {
      "channel": 5,
      "note": 41,
      "start": 25.1902,
      "duration": 0.1512,
      "velocity": 121,
      "chip": "ym2612"
    },
    {
      "channel": 0,
      "note": 91,
      "start": 25.3329,
      "duration": 0.1506,
      "velocity": 112,
      "chip": "ym2612"
    },
    {
      "channel": 1,
      "note": 65,
      "start": 25.3336,
      "duration": 0.0496,
      "velocity": 120,
      "chip": "ym2612"
    },
    {
      "channel": 3,
      "note": 53,
      "start": 25.335,
      "duration": 0.1511,
      "velocity": 110,
      "chip": "ym2612"
    },
    {
      "channel": 4,
      "note": 65,
      "start": 25.3411,
      "duration": 0.1505,
      "velocity": 112,
      "chip": "ym2612"
    },
    {
      "channel": 5,
      "note": 41,
      "start": 25.3418,
      "duration": 0.1512,
      "velocity": 120,
      "chip": "ym2612"
    },
    {
      "channel": 0,
      "note": 91,
      "start": 25.4846,
      "duration": 0.1505,
      "velocity": 112,
      "chip": "ym2612"
    },
    {
      "channel": 1,
      "note": 53,
      "start": 25.4854,
      "duration": 0.0495,
      "velocity": 120,
      "chip": "ym2612"
    },
    {
      "channel": 3,
      "note": 47,
      "start": 25.4868,
      "duration": 0.3022,
      "velocity": 110,
      "chip": "ym2612"
    },
    {
      "channel": 4,
      "note": 65,
      "start": 25.4928,
      "duration": 0.1505,
      "velocity": 112,
      "chip": "ym2612"
    },
    {
      "channel": 5,
      "note": 42,
      "start": 25.4935,
      "duration": 0.1513,
      "velocity": 119,
      "chip": "ym2612"
    },
    {
      "channel": 0,
      "note": 91,
      "start": 25.6362,
      "duration": 0.1506,
      "velocity": 112,
      "chip": "ym2612"
    },
    {
      "channel": 1,
      "note": 65,
      "start": 25.637,
      "duration": 0.0495,
      "velocity": 120,
      "chip": "ym2612"
    },
    {
      "channel": 4,
      "note": 65,
      "start": 25.6445,
      "duration": 0.1505,
      "velocity": 112,
      "chip": "ym2612"
    },
    {
      "channel": 5,
      "note": 41,
      "start": 25.6452,
      "duration": 0.1506,
      "velocity": 118,
      "chip": "ym2612"
    },
    {
      "channel": 0,
      "note": 91,
      "start": 25.7874,
      "duration": 0.1511,
      "velocity": 112,
      "chip": "ym2612"
    },
    {
      "channel": 1,
      "note": 53,
      "start": 25.7881,
      "duration": 0.0502,
      "velocity": 120,
      "chip": "ym2612"
    },
    {
      "channel": 3,
      "note": 48,
      "start": 25.7895,
      "duration": 0.1518,
      "velocity": 110,
      "chip": "ym2612"
    },
    {
      "channel": 4,
      "note": 65,
      "start": 25.7956,
      "duration": 0.1511,
      "velocity": 112,
      "chip": "ym2612"
    },
    {
      "channel": 5,
      "note": 41,
      "start": 25.7963,
      "duration": 0.1518,
      "velocity": 117,
      "chip": "ym2612"
    },
    {
      "channel": 0,
      "note": 91,
      "start": 25.9396,
      "duration": 0.1506,
      "velocity": 112,
      "chip": "ym2612"
    },
    {
      "channel": 1,
      "note": 53,
      "start": 25.9404,
      "duration": 0.0495,
      "velocity": 120,
      "chip": "ym2612"
    },
    {
      "channel": 3,
      "note": 53,
      "start": 25.9418,
      "duration": 0.1511,
      "velocity": 110,
      "chip": "ym2612"
    },
    {
      "channel": 4,
      "note": 65,
      "start": 25.9479,
      "duration": 0.1505,
      "velocity": 112,
      "chip": "ym2612"
    },
    {
      "channel": 5,
      "note": 41,
      "start": 25.9485,
      "duration": 0.1513,
      "velocity": 116,
      "chip": "ym2612"
    },
    {
      "channel": 0,
      "note": 91,
      "start": 26.0913,
      "duration": 0.1505,
      "velocity": 112,
      "chip": "ym2612"
    },
    {
      "channel": 1,
      "note": 65,
      "start": 26.0921,
      "duration": 0.0495,
      "velocity": 120,
      "chip": "ym2612"
    },
    {
      "channel": 3,
      "note": 47,
      "start": 26.0935,
      "duration": 0.303,
      "velocity": 110,
      "chip": "ym2612"
    },
    {
      "channel": 4,
      "note": 65,
      "start": 26.0995,
      "duration": 0.1505,
      "velocity": 112,
      "chip": "ym2612"
    },
    {
      "channel": 5,
      "note": 41,
      "start": 26.1002,
      "duration": 0.1512,
      "velocity": 115,
      "chip": "ym2612"
    },
    {
      "channel": 0,
      "note": 91,
      "start": 26.243,
      "duration": 0.1505,
      "velocity": 112,
      "chip": "ym2612"
    },
    {
      "channel": 1,
      "note": 53,
      "start": 26.2437,
      "duration": 0.0496,
      "velocity": 120,
      "chip": "ym2612"
    },
    {
      "channel": 4,
      "note": 65,
      "start": 26.2512,
      "duration": 0.1505,
      "velocity": 112,
      "chip": "ym2612"
    },
    {
      "channel": 5,
      "note": 41,
      "start": 26.2519,
      "duration": 0.1513,
      "velocity": 114,
      "chip": "ym2612"
    },
    {
      "channel": 0,
      "note": 91,
      "start": 26.3946,
      "duration": 0.1506,
      "velocity": 112,
      "chip": "ym2612"
    },
    {
      "channel": 1,
      "note": 53,
      "start": 26.3954,
      "duration": 0.0496,
      "velocity": 120,
      "chip": "ym2612"
    },
    {
      "channel": 2,
      "note": 46,
      "start": 26.3962,
      "duration": 0.1511,
      "velocity": 110,
      "chip": "ym2612"
    },
    {
      "channel": 3,
      "note": 48,
      "start": 26.3971,
      "duration": 0.1511,
      "velocity": 110,
      "chip": "ym2612"
    },
    {
      "channel": 4,
      "note": 65,
      "start": 26.4029,
      "duration": 0.1505,
      "velocity": 112,
      "chip": "ym2612"
    },
    {
      "channel": 5,
      "note": 29,
      "start": 26.4036,
      "duration": 0.1512,
      "velocity": 113,
      "chip": "ym2612"
    },
    {
      "channel": 0,
      "note": 91,
      "start": 26.5463,
      "duration": 0.1505,
      "velocity": 112,
      "chip": "ym2612"
    },
    {
      "channel": 1,
      "note": 65,
      "start": 26.5471,
      "duration": 0.0495,
      "velocity": 120,
      "chip": "ym2612"
    },
    {
      "channel": 2,
      "note": 44,
      "start": 26.5479,
      "duration": 0.1511,
      "velocity": 110,
      "chip": "ym2612"
    },
    {
      "channel": 3,
      "note": 53,
      "start": 26.5487,
      "duration": 0.1512,
      "velocity": 110,
      "chip": "ym2612"
    },
    {
      "channel": 4,
      "note": 65,
      "start": 26.5546,
      "duration": 0.1505,
      "velocity": 112,
      "chip": "ym2612"
    },
    {
      "channel": 5,
      "note": 41,
      "start": 26.5553,
      "duration": 0.1512,
      "velocity": 112,
      "chip": "ym2612"
    },
    {
      "channel": 0,
      "note": 92,
      "start": 26.698,
      "duration": 0.1506,
      "velocity": 112,
      "chip": "ym2612"
    },
    {
      "channel": 1,
      "note": 53,
      "start": 26.6988,
      "duration": 0.0495,
      "velocity": 120,
      "chip": "ym2612"
    },
    {
      "channel": 2,
      "note": 46,
      "start": 26.6996,
      "duration": 0.0999,
      "velocity": 110,
      "chip": "ym2612"
    },
    {
      "channel": 3,
      "note": 47,
      "start": 26.7004,
      "duration": 0.3025,
      "velocity": 110,
      "chip": "ym2612"
    },
    {
      "channel": 4,
      "note": 65,
      "start": 26.7063,
      "duration": 0.1506,
      "velocity": 112,
      "chip": "ym2612"
    },
    {
      "channel": 5,
      "note": 41,
      "start": 26.707,
      "duration": 0.1513,
      "velocity": 127,
      "chip": "ym2612"
    },
    {
      "channel": 0,
      "note": 92,
      "start": 26.8497,
      "duration": 0.1505,
      "velocity": 112,
      "chip": "ym2612"
    },
    {
      "channel": 1,
      "note": 65,
      "start": 26.8505,
      "duration": 0.0495,
      "velocity": 120,
      "chip": "ym2612"
    },
    {
      "channel": 4,
      "note": 65,
      "start": 26.858,
      "duration": 0.1504,
      "velocity": 112,
      "chip": "ym2612"
    },
    {
      "channel": 5,
      "note": 41,
      "start": 26.8587,
      "duration": 0.1511,
      "velocity": 126,
      "chip": "ym2612"
    },
    {
      "channel": 0,
      "note": 92,
      "start": 27.0014,
      "duration": 0.1505,
      "velocity": 112,
      "chip": "ym2612"
    },
    {
      "channel": 1,
      "note": 53,
      "start": 27.0022,
      "duration": 0.0495,
      "velocity": 120,
      "chip": "ym2612"
    },
    {
      "channel": 3,
      "note": 46,
      "start": 27.0035,
      "duration": 0.1511,
      "velocity": 110,
      "chip": "ym2612"
    },
    {
      "channel": 4,
      "note": 65,
      "start": 27.0097,
      "duration": 0.1505,
      "velocity": 112,
      "chip": "ym2612"
    },
    {
      "channel": 5,
      "note": 41,
      "start": 27.0103,
      "duration": 0.1513,
      "velocity": 125,
      "chip": "ym2612"
    },
    {
      "channel": 0,
      "note": 92,
      "start": 27.1531,
      "duration": 0.1505,
      "velocity": 112,
      "chip": "ym2612"
    },
    {
      "channel": 1,
      "note": 53,
      "start": 27.1538,
      "duration": 0.0495,
      "velocity": 120,
      "chip": "ym2612"
    },
    {
      "channel": 3,
      "note": 44,
      "start": 27.1552,
      "duration": 0.1511,
      "velocity": 110,
      "chip": "ym2612"
    },
    {
      "channel": 4,
      "note": 65,
      "start": 27.1613,
      "duration": 0.1506,
      "velocity": 112,
      "chip": "ym2612"
    },
    {
      "channel": 5,
      "note": 41,
      "start": 27.162,
      "duration": 0.1506,
      "velocity": 124,
      "chip": "ym2612"
    },
    {
      "channel": 0,
      "note": 92,
      "start": 27.3048,
      "duration": 0.1505,
      "velocity": 112,
      "chip": "ym2612"
    },
    {
      "channel": 1,
      "note": 65,
      "start": 27.3055,
      "duration": 0.0496,
      "velocity": 120,
      "chip": "ym2612"
    },
    {
      "channel": 3,
      "note": 46,
      "start": 27.3069,
      "duration": 0.3028,
      "velocity": 110,
      "chip": "ym2612"
    },
    {
      "channel": 4,
      "note": 65,
      "start": 27.3124,
      "duration": 0.1511,
      "velocity": 112,
      "chip": "ym2612"
    },
    {
      "channel": 5,
      "note": 41,
      "start": 27.3131,
      "duration": 0.1518,
      "velocity": 123,
      "chip": "ym2612"
    },
    {
      "channel": 0,
      "note": 92,
      "start": 27.4564,
      "duration": 0.1506,
      "velocity": 112,
      "chip": "ym2612"
    },
    {
      "channel": 1,
      "note": 53,
      "start": 27.4572,
      "duration": 0.0495,
      "velocity": 120,
      "chip": "ym2612"
    },
    {
      "channel": 4,
      "note": 65,
      "start": 27.4647,
      "duration": 0.1505,
      "velocity": 112,
      "chip": "ym2612"
    },
    {
      "channel": 5,
      "note": 42,
      "start": 27.4654,
      "duration": 0.1512,
      "velocity": 122,
      "chip": "ym2612"
    },
    {
      "channel": 0,
      "note": 92,
      "start": 27.6082,
      "duration": 0.1505,
      "velocity": 112,
      "chip": "ym2612"
    },
    {
      "channel": 1,
      "note": 53,
      "start": 27.6089,
      "duration": 0.0495,
      "velocity": 120,
      "chip": "ym2612"
    },
    {
      "channel": 3,
      "note": 46,
      "start": 27.6103,
      "duration": 0.1511,
      "velocity": 110,
      "chip": "ym2612"
    },
    {
      "channel": 4,
      "note": 65,
      "start": 27.6163,
      "duration": 0.1505,
      "velocity": 112,
      "chip": "ym2612"
    },
    {
      "channel": 5,
      "note": 41,
      "start": 27.617,
      "duration": 0.1512,
      "velocity": 121,
      "chip": "ym2612"
    },
    {
      "channel": 0,
      "note": 92,
      "start": 27.7598,
      "duration": 0.1506,
      "velocity": 112,
      "chip": "ym2612"
    },
    {
      "channel": 1,
      "note": 65,
      "start": 27.7605,
      "duration": 0.0495,
      "velocity": 120,
      "chip": "ym2612"
    },
    {
      "channel": 3,
      "note": 44,
      "start": 27.762,
      "duration": 0.1511,
      "velocity": 110,
      "chip": "ym2612"
    },
    {
      "channel": 4,
      "note": 65,
      "start": 27.768,
      "duration": 0.1505,
      "velocity": 112,
      "chip": "ym2612"
    },
    {
      "channel": 5,
      "note": 41,
      "start": 27.7687,
      "duration": 0.1513,
      "velocity": 120,
      "chip": "ym2612"
    },
    {
      "channel": 0,
      "note": 92,
      "start": 27.9115,
      "duration": 0.1505,
      "velocity": 112,
      "chip": "ym2612"
    },
    {
      "channel": 1,
      "note": 53,
      "start": 27.9123,
      "duration": 0.0495,
      "velocity": 120,
      "chip": "ym2612"
    },
    {
      "channel": 3,
      "note": 46,
      "start": 27.9136,
      "duration": 0.3022,
      "velocity": 110,
      "chip": "ym2612"
    },
    {
      "channel": 4,
      "note": 65,
      "start": 27.9197,
      "duration": 0.1505,
      "velocity": 112,
      "chip": "ym2612"
    },
    {
      "channel": 5,
      "note": 42,
      "start": 27.9204,
      "duration": 0.1512,
      "velocity": 119,
      "chip": "ym2612"
    },
    {
      "channel": 0,
      "note": 92,
      "start": 28.0632,
      "duration": 0.1506,
      "velocity": 112,
      "chip": "ym2612"
    },
    {
      "channel": 1,
      "note": 65,
      "start": 28.0639,
      "duration": 0.0495,
      "velocity": 120,
      "chip": "ym2612"
    },
    {
      "channel": 4,
      "note": 65,
      "start": 28.0714,
      "duration": 0.1505,
      "velocity": 112,
      "chip": "ym2612"
    },
    {
      "channel": 5,
      "note": 41,
      "start": 28.0721,
      "duration": 0.1513,
      "velocity": 118,
      "chip": "ym2612"
    },
    {
      "channel": 0,
      "note": 92,
      "start": 28.2143,
      "duration": 0.1511,
      "velocity": 112,
      "chip": "ym2612"
    },
    {
      "channel": 1,
      "note": 53,
      "start": 28.215,
      "duration": 0.0501,
      "velocity": 120,
      "chip": "ym2612"
    },
    {
      "channel": 3,
      "note": 46,
      "start": 28.2164,
      "duration": 0.1517,
      "velocity": 110,
      "chip": "ym2612"
    },
    {
      "channel": 4,
      "note": 65,
      "start": 28.2231,
      "duration": 0.1506,
      "velocity": 112,
      "chip": "ym2612"
    },
    {
      "channel": 5,
      "note": 41,
      "start": 28.2238,
      "duration": 0.1512,
      "velocity": 117,
      "chip": "ym2612"
    },
    {
      "channel": 0,
      "note": 92,
      "start": 28.3665,
      "duration": 0.1505,
      "velocity": 112,
      "chip": "ym2612"
    },
    {
      "channel": 1,
      "note": 53,
      "start": 28.3673,
      "duration": 0.0496,
      "velocity": 120,
      "chip": "ym2612"
    },
    {
      "channel": 3,
      "note": 44,
      "start": 28.3687,
      "duration": 0.1511,
      "velocity": 110,
      "chip": "ym2612"
    },
    {
      "channel": 4,
      "note": 65,
      "start": 28.3748,
      "duration": 0.1505,
      "velocity": 112,
      "chip": "ym2612"
    },
    {
      "channel": 5,
      "note": 41,
      "start": 28.3755,
      "duration": 0.1512,
      "velocity": 116,
      "chip": "ym2612"
    },
    {
      "channel": 0,
      "note": 92,
      "start": 28.5182,
      "duration": 0.1506,
      "velocity": 112,
      "chip": "ym2612"
    },
    {
      "channel": 1,
      "note": 65,
      "start": 28.5189,
      "duration": 0.0496,
      "velocity": 120,
      "chip": "ym2612"
    },
    {
      "channel": 3,
      "note": 46,
      "start": 28.5203,
      "duration": 0.3031,
      "velocity": 110,
      "chip": "ym2612"
    },
    {
      "channel": 4,
      "note": 65,
      "start": 28.5264,
      "duration": 0.1505,
      "velocity": 112,
      "chip": "ym2612"
    },
    {
      "channel": 5,
      "note": 41,
      "start": 28.5271,
      "duration": 0.1506,
      "velocity": 115,
      "chip": "ym2612"
    },
    {
      "channel": 0,
      "note": 92,
      "start": 28.6699,
      "duration": 0.1505,
      "velocity": 112,
      "chip": "ym2612"
    },
    {
      "channel": 1,
      "note": 53,
      "start": 28.6707,
      "duration": 0.0495,
      "velocity": 120,
      "chip": "ym2612"
    },
    {
      "channel": 4,
      "note": 65,
      "start": 28.6775,
      "duration": 0.1511,
      "velocity": 112,
      "chip": "ym2612"
    },
    {
      "channel": 5,
      "note": 41,
      "start": 28.6782,
      "duration": 0.1518,
      "velocity": 114,
      "chip": "ym2612"
    },
    {
      "channel": 0,
      "note": 92,
      "start": 28.8215,
      "duration": 0.1506,
      "velocity": 112,
      "chip": "ym2612"
    },
    {
      "channel": 1,
      "note": 65,
      "start": 28.8223,
      "duration": 0.0495,
      "velocity": 120,
      "chip": "ym2612"
    },
    {
      "channel": 2,
      "note": 44,
      "start": 28.8231,
      "duration": 0.1512,
      "velocity": 110,
      "chip": "ym2612"
    },
    {
      "channel": 3,
      "note": 46,
      "start": 28.824,
      "duration": 0.1511,
      "velocity": 110,
      "chip": "ym2612"
    },
    {
      "channel": 4,
      "note": 65,
      "start": 28.8298,
      "duration": 0.1505,
      "velocity": 112,
      "chip": "ym2612"
    },
    {
      "channel": 5,
      "note": 29,
      "start": 28.8305,
      "duration": 0.1513,
      "velocity": 113,
      "chip": "ym2612"
    },
    {
      "channel": 0,
      "note": 92,
      "start": 28.9733,
      "duration": 0.1506,
      "velocity": 112,
      "chip": "ym2612"
    },
    {
      "channel": 1,
      "note": 65,
      "start": 28.974,
      "duration": 0.0495,
      "velocity": 120,
      "chip": "ym2612"
    },
    {
      "channel": 2,
      "note": 43,
      "start": 28.9749,
      "duration": 0.1517,
      "velocity": 110,
      "chip": "ym2612"
    },
    {
      "channel": 3,
      "note": 44,
      "start": 28.9757,
      "duration": 0.4541,
      "velocity": 110,
      "chip": "ym2612"
    },
    {
      "channel": 4,
      "note": 65,
      "start": 28.9815,
      "duration": 0.1505,
      "velocity": 112,
      "chip": "ym2612"
    },
    {
      "channel": 5,
      "note": 41,
      "start": 28.9822,
      "duration": 0.1512,
      "velocity": 112,
      "chip": "ym2612"
    },
    {
      "channel": 0,
      "note": 89,
      "start": 29.125,
      "duration": 0.1504,
      "velocity": 112,
      "chip": "ym2612"
    },
    {
      "channel": 1,
      "note": 65,
      "start": 29.1263,
      "duration": 0.0826,
      "velocity": 112,
      "chip": "ym2612"
    },
    {
      "channel": 2,
      "note": 41,
      "start": 29.1271,
      "duration": 0.0993,
      "velocity": 110,
      "chip": "ym2612"
    },
    {
      "channel": 4,
      "note": 65,
      "start": 29.1331,
      "duration": 0.1506,
      "velocity": 112,
      "chip": "ym2612"
    },
    {
      "channel": 5,
      "note": 53,
      "start": 29.1346,
      "duration": 0.0321,
      "velocity": 105,
      "chip": "ym2612"
    },
    {
      "channel": 0,
      "note": 89,
      "start": 29.2766,
      "duration": 0.1505,
      "velocity": 112,
      "chip": "ym2612"
    },
    {
      "channel": 1,
      "note": 65,
      "start": 29.2773,
      "duration": 0.0833,
      "velocity": 112,
      "chip": "ym2612"
    },
    {
      "channel": 4,
      "note": 65,
      "start": 29.2849,
      "duration": 0.1505,
      "velocity": 112,
      "chip": "ym2612"
    },
    {
      "channel": 0,
      "note": 89,
      "start": 29.4283,
      "duration": 0.1505,
      "velocity": 112,
      "chip": "ym2612"
    },
    {
      "channel": 1,
      "note": 65,
      "start": 29.429,
      "duration": 0.0832,
      "velocity": 112,
      "chip": "ym2612"
    },
    {
      "channel": 3,
      "note": 44,
      "start": 29.4304,
      "duration": 0.1511,
      "velocity": 110,
      "chip": "ym2612"
    },
    {
      "channel": 4,
      "note": 65,
      "start": 29.4365,
      "duration": 0.1506,
      "velocity": 112,
      "chip": "ym2612"
    },
    {
      "channel": 0,
      "note": 89,
      "start": 29.58,
      "duration": 0.1506,
      "velocity": 112,
      "chip": "ym2612"
    },
    {
      "channel": 1,
      "note": 65,
      "start": 29.5806,
      "duration": 0.0833,
      "velocity": 112,
      "chip": "ym2612"
    },
    {
      "channel": 3,
      "note": 43,
      "start": 29.582,
      "duration": 0.1511,
      "velocity": 110,
      "chip": "ym2612"
    },
    {
      "channel": 4,
      "note": 65,
      "start": 29.5882,
      "duration": 0.1505,
      "velocity": 112,
      "chip": "ym2612"
    },
    {
      "channel": 0,
      "note": 89,
      "start": 29.7317,
      "duration": 0.1505,
      "velocity": 112,
      "chip": "ym2612"
    },
    {
      "channel": 1,
      "note": 65,
      "start": 29.7324,
      "duration": 0.0832,
      "velocity": 112,
      "chip": "ym2612"
    },
    {
      "channel": 3,
      "note": 41,
      "start": 29.7338,
      "duration": 0.3027,
      "velocity": 110,
      "chip": "ym2612"
    },
    {
      "channel": 4,
      "note": 65,
      "start": 29.7399,
      "duration": 0.1505,
      "velocity": 112,
      "chip": "ym2612"
    },
    {
      "channel": 0,
      "note": 89,
      "start": 29.8833,
      "duration": 0.1506,
      "velocity": 112,
      "chip": "ym2612"
    },
    {
      "channel": 1,
      "note": 65,
      "start": 29.884,
      "duration": 0.0833,
      "velocity": 112,
      "chip": "ym2612"
    },
    {
      "channel": 4,
      "note": 65,
      "start": 29.8916,
      "duration": 0.1505,
      "velocity": 112,
      "chip": "ym2612"
    },
    {
      "channel": 0,
      "note": 89,
      "start": 30.035,
      "duration": 0.1505,
      "velocity": 112,
      "chip": "ym2612"
    },
    {
      "channel": 1,
      "note": 65,
      "start": 30.0357,
      "duration": 0.0832,
      "velocity": 112,
      "chip": "ym2612"
    },
    {
      "channel": 3,
      "note": 44,
      "start": 30.0371,
      "duration": 0.151,
      "velocity": 110,
      "chip": "ym2612"
    },
    {
      "channel": 4,
      "note": 65,
      "start": 30.0432,
      "duration": 0.1505,
      "velocity": 112,
      "chip": "ym2612"
    },
    {
      "channel": 0,
      "note": 89,
      "start": 30.1867,
      "duration": 0.1505,
      "velocity": 112,
      "chip": "ym2612"
    },
    {
      "channel": 1,
      "note": 65,
      "start": 30.1874,
      "duration": 0.0832,
      "velocity": 112,
      "chip": "ym2612"
    },
    {
      "channel": 3,
      "note": 43,
      "start": 30.1888,
      "duration": 0.1511,
      "velocity": 110,
      "chip": "ym2612"
    },
    {
      "channel": 4,
      "note": 65,
      "start": 30.195,
      "duration": 0.1505,
      "velocity": 112,
      "chip": "ym2612"
    },
    {
      "channel": 0,
      "note": 89,
      "start": 30.3384,
      "duration": 0.1505,
      "velocity": 112,
      "chip": "ym2612"
    },
    {
      "channel": 1,
      "note": 65,
      "start": 30.339,
      "duration": 0.0833,
      "velocity": 112,
      "chip": "ym2612"
    },
    {
      "channel": 3,
      "note": 41,
      "start": 30.3405,
      "duration": 0.3022,
      "velocity": 110,
      "chip": "ym2612"
    },
    {
      "channel": 4,
      "note": 65,
      "start": 30.3466,
      "duration": 0.1505,
      "velocity": 112,
      "chip": "ym2612"
    },
    {
      "channel": 5,
      "note": 53,
      "start": 30.3475,
      "duration": 0.0327,
      "velocity": 105,
      "chip": "ym2612"
    },
    {
      "channel": 0,
      "note": 89,
      "start": 30.4901,
      "duration": 0.1505,
      "velocity": 112,
      "chip": "ym2612"
    },
    {
      "channel": 1,
      "note": 65,
      "start": 30.4908,
      "duration": 0.0832,
      "velocity": 112,
      "chip": "ym2612"
    },
    {
      "channel": 4,
      "note": 65,
      "start": 30.4983,
      "duration": 0.1506,
      "velocity": 112,
      "chip": "ym2612"
    },
    {
      "channel": 0,
      "note": 89,
      "start": 30.6411,
      "duration": 0.1512,
      "velocity": 112,
      "chip": "ym2612"
    },
    {
      "channel": 1,
      "note": 65,
      "start": 30.6418,
      "duration": 0.0839,
      "velocity": 112,
      "chip": "ym2612"
    },
    {
      "channel": 3,
      "note": 44,
      "start": 30.6432,
      "duration": 0.1517,
      "velocity": 110,
      "chip": "ym2612"
    },
    {
      "channel": 4,
      "note": 65,
      "start": 30.6494,
      "duration": 0.1511,
      "velocity": 112,
      "chip": "ym2612"
    },
    {
      "channel": 0,
      "note": 89,
      "start": 30.7934,
      "duration": 0.1505,
      "velocity": 112,
      "chip": "ym2612"
    },
    {
      "channel": 1,
      "note": 65,
      "start": 30.7941,
      "duration": 0.0832,
      "velocity": 112,
      "chip": "ym2612"
    },
    {
      "channel": 3,
      "note": 43,
      "start": 30.7955,
      "duration": 0.1511,
      "velocity": 110,
      "chip": "ym2612"
    },
    {
      "channel": 4,
      "note": 65,
      "start": 30.8016,
      "duration": 0.1505,
      "velocity": 112,
      "chip": "ym2612"
    },
    {
      "channel": 0,
      "note": 89,
      "start": 30.9451,
      "duration": 0.1506,
      "velocity": 112,
      "chip": "ym2612"
    },
    {
      "channel": 1,
      "note": 65,
      "start": 30.9458,
      "duration": 0.0833,
      "velocity": 112,
      "chip": "ym2612"
    },
    {
      "channel": 3,
      "note": 41,
      "start": 30.9472,
      "duration": 0.3027,
      "velocity": 110,
      "chip": "ym2612"
    },
    {
      "channel": 4,
      "note": 65,
      "start": 30.9534,
      "duration": 0.1505,
      "velocity": 112,
      "chip": "ym2612"
    },
    {
      "channel": 0,
      "note": 89,
      "start": 31.0968,
      "duration": 0.1505,
      "velocity": 112,
      "chip": "ym2612"
    },
    {
      "channel": 1,
      "note": 65,
      "start": 31.0975,
      "duration": 0.0832,
      "velocity": 112,
      "chip": "ym2612"
    },
    {
      "channel": 4,
      "note": 65,
      "start": 31.105,
      "duration": 0.1505,
      "velocity": 112,
      "chip": "ym2612"
    },
    {
      "channel": 0,
      "note": 89,
      "start": 31.2485,
      "duration": 0.1505,
      "velocity": 112,
      "chip": "ym2612"
    },
    {
      "channel": 1,
      "note": 65,
      "start": 31.2492,
      "duration": 0.0833,
      "velocity": 112,
      "chip": "ym2612"
    },
    {
      "channel": 3,
      "note": 44,
      "start": 31.2505,
      "duration": 0.1511,
      "velocity": 110,
      "chip": "ym2612"
    },
    {
      "channel": 4,
      "note": 65,
      "start": 31.2567,
      "duration": 0.1505,
      "velocity": 112,
      "chip": "ym2612"
    },
    {
      "channel": 0,
      "note": 89,
      "start": 31.4002,
      "duration": 0.1505,
      "velocity": 112,
      "chip": "ym2612"
    },
    {
      "channel": 1,
      "note": 65,
      "start": 31.4008,
      "duration": 0.0833,
      "velocity": 112,
      "chip": "ym2612"
    },
    {
      "channel": 3,
      "note": 43,
      "start": 31.4022,
      "duration": 0.1511,
      "velocity": 110,
      "chip": "ym2612"
    },
    {
      "channel": 4,
      "note": 65,
      "start": 31.4084,
      "duration": 0.1505,
      "velocity": 112,
      "chip": "ym2612"
    },
    {
      "channel": 0,
      "note": 89,
      "start": 31.5518,
      "duration": 0.1505,
      "velocity": 112,
      "chip": "ym2612"
    },
    {
      "channel": 1,
      "note": 65,
      "start": 31.5525,
      "duration": 0.0832,
      "velocity": 112,
      "chip": "ym2612"
    },
    {
      "channel": 3,
      "note": 41,
      "start": 31.5539,
      "duration": 0.3027,
      "velocity": 110,
      "chip": "ym2612"
    },
    {
      "channel": 4,
      "note": 65,
      "start": 31.56,
      "duration": 0.1505,
      "velocity": 112,
      "chip": "ym2612"
    },
    {
      "channel": 5,
      "note": 53,
      "start": 31.561,
      "duration": 0.0327,
      "velocity": 105,
      "chip": "ym2612"
    },
    {
      "channel": 0,
      "note": 89,
      "start": 31.7035,
      "duration": 0.1506,
      "velocity": 112,
      "chip": "ym2612"
    },
    {
      "channel": 1,
      "note": 65,
      "start": 31.7042,
      "duration": 0.0833,
      "velocity": 112,
      "chip": "ym2612"
    },
    {
      "channel": 4,
      "note": 65,
      "start": 31.7117,
      "duration": 0.1505,
      "velocity": 112,
      "chip": "ym2612"
    },
    {
      "channel": 0,
      "note": 89,
      "start": 31.8552,
      "duration": 0.1505,
      "velocity": 112,
      "chip": "ym2612"
    },
    {
      "channel": 1,
      "note": 65,
      "start": 31.8559,
      "duration": 0.0832,
      "velocity": 112,
      "chip": "ym2612"
    },
    {
      "channel": 3,
      "note": 44,
      "start": 31.8573,
      "duration": 0.1511,
      "velocity": 110,
      "chip": "ym2612"
    },
    {
      "channel": 4,
      "note": 65,
      "start": 31.8634,
      "duration": 0.1505,
      "velocity": 112,
      "chip": "ym2612"
    },
    {
      "channel": 0,
      "note": 89,
      "start": 32.0069,
      "duration": 0.1505,
      "velocity": 112,
      "chip": "ym2612"
    },
    {
      "channel": 1,
      "note": 65,
      "start": 32.0076,
      "duration": 0.0832,
      "velocity": 112,
      "chip": "ym2612"
    },
    {
      "channel": 3,
      "note": 43,
      "start": 32.009,
      "duration": 0.151,
      "velocity": 110,
      "chip": "ym2612"
    },
    {
      "channel": 4,
      "note": 65,
      "start": 32.0151,
      "duration": 0.1505,
      "velocity": 112,
      "chip": "ym2612"
    },
    {
      "channel": 0,
      "note": 89,
      "start": 32.1586,
      "duration": 0.1505,
      "velocity": 112,
      "chip": "ym2612"
    },
    {
      "channel": 1,
      "note": 65,
      "start": 32.1593,
      "duration": 0.0832,
      "velocity": 112,
      "chip": "ym2612"
    },
    {
      "channel": 3,
      "note": 41,
      "start": 32.1607,
      "duration": 0.3027,
      "velocity": 110,
      "chip": "ym2612"
    },
    {
      "channel": 4,
      "note": 65,
      "start": 32.1662,
      "duration": 0.1511,
      "velocity": 112,
      "chip": "ym2612"
    },
    {
      "channel": 0,
      "note": 89,
      "start": 32.3102,
      "duration": 0.1505,
      "velocity": 112,
      "chip": "ym2612"
    },
    {
      "channel": 1,
      "note": 65,
      "start": 32.3109,
      "duration": 0.0832,
      "velocity": 112,
      "chip": "ym2612"
    },
    {
      "channel": 4,
      "note": 65,
      "start": 32.3184,
      "duration": 0.1506,
      "velocity": 112,
      "chip": "ym2612"
    },
    {
      "channel": 0,
      "note": 89,
      "start": 32.462,
      "duration": 0.1505,
      "velocity": 112,
      "chip": "ym2612"
    },
    {
      "channel": 1,
      "note": 65,
      "start": 32.4626,
      "duration": 0.0833,
      "velocity": 112,
      "chip": "ym2612"
    },
    {
      "channel": 3,
      "note": 44,
      "start": 32.464,
      "duration": 0.1511,
      "velocity": 110,
      "chip": "ym2612"
    },
    {
      "channel": 4,
      "note": 65,
      "start": 32.4701,
      "duration": 0.1505,
      "velocity": 112,
      "chip": "ym2612"
    },
    {
      "channel": 0,
      "note": 89,
      "start": 32.6136,
      "duration": 0.1505,
      "velocity": 112,
      "chip": "ym2612"
    },
    {
      "channel": 1,
      "note": 65,
      "start": 32.6143,
      "duration": 0.0832,
      "velocity": 112,
      "chip": "ym2612"
    },
    {
      "channel": 3,
      "note": 43,
      "start": 32.6157,
      "duration": 0.1511,
      "velocity": 110,
      "chip": "ym2612"
    },
    {
      "channel": 4,
      "note": 65,
      "start": 32.6218,
      "duration": 0.1506,
      "velocity": 112,
      "chip": "ym2612"
    },
    {
      "channel": 0,
      "note": 89,
      "start": 32.7652,
      "duration": 0.1506,
      "velocity": 112,
      "chip": "ym2612"
    },
    {
      "channel": 1,
      "note": 65,
      "start": 32.7659,
      "duration": 0.0833,
      "velocity": 112,
      "chip": "ym2612"
    },
    {
      "channel": 3,
      "note": 41,
      "start": 32.7673,
      "duration": 0.3022,
      "velocity": 110,
      "chip": "ym2612"
    },
    {
      "channel": 4,
      "note": 65,
      "start": 32.7736,
      "duration": 0.1505,
      "velocity": 112,
      "chip": "ym2612"
    },
    {
      "channel": 5,
      "note": 53,
      "start": 32.7745,
      "duration": 0.0327,
      "velocity": 105,
      "chip": "ym2612"
    },
    {
      "channel": 0,
      "note": 89,
      "start": 32.917,
      "duration": 0.1506,
      "velocity": 112,
      "chip": "ym2612"
    },
    {
      "channel": 1,
      "note": 65,
      "start": 32.9177,
      "duration": 0.0832,
      "velocity": 112,
      "chip": "ym2612"
    },
    {
      "channel": 4,
      "note": 65,
      "start": 32.9252,
      "duration": 0.1505,
      "velocity": 112,
      "chip": "ym2612"
    },
    {
      "channel": 0,
      "note": 89,
      "start": 33.068,
      "duration": 0.1511,
      "velocity": 112,
      "chip": "ym2612"
    },
    {
      "channel": 1,
      "note": 65,
      "start": 33.0688,
      "duration": 0.0838,
      "velocity": 112,
      "chip": "ym2612"
    },
    {
      "channel": 3,
      "note": 44,
      "start": 33.0701,
      "duration": 0.1517,
      "velocity": 110,
      "chip": "ym2612"
    },
    {
      "channel": 4,
      "note": 65,
      "start": 33.0769,
      "duration": 0.1505,
      "velocity": 112,
      "chip": "ym2612"
    },
    {
      "channel": 0,
      "note": 89,
      "start": 33.2203,
      "duration": 0.1505,
      "velocity": 112,
      "chip": "ym2612"
    },
    {
      "channel": 1,
      "note": 65,
      "start": 33.221,
      "duration": 0.0832,
      "velocity": 112,
      "chip": "ym2612"
    },
    {
      "channel": 3,
      "note": 43,
      "start": 33.2224,
      "duration": 0.1511,
      "velocity": 110,
      "chip": "ym2612"
    },
    {
      "channel": 4,
      "note": 65,
      "start": 33.2285,
      "duration": 0.1505,
      "velocity": 112,
      "chip": "ym2612"
    },
    {
      "channel": 0,
      "note": 89,
      "start": 33.372,
      "duration": 0.1505,
      "velocity": 112,
      "chip": "ym2612"
    },
    {
      "channel": 1,
      "note": 65,
      "start": 33.3727,
      "duration": 0.0832,
      "velocity": 112,
      "chip": "ym2612"
    },
    {
      "channel": 3,
      "note": 41,
      "start": 33.3741,
      "duration": 0.3027,
      "velocity": 110,
      "chip": "ym2612"
    },
    {
      "channel": 4,
      "note": 65,
      "start": 33.3803,
      "duration": 0.1505,
      "velocity": 112,
      "chip": "ym2612"
    },
    {
      "channel": 0,
      "note": 89,
      "start": 33.5237,
      "duration": 0.1505,
      "velocity": 112,
      "chip": "ym2612"
    },
    {
      "channel": 1,
      "note": 65,
      "start": 33.5244,
      "duration": 0.0833,
      "velocity": 112,
      "chip": "ym2612"
    },
    {
      "channel": 4,
      "note": 65,
      "start": 33.5313,
      "duration": 0.1511,
      "velocity": 112,
      "chip": "ym2612"
    },
    {
      "channel": 0,
      "note": 89,
      "start": 33.6754,
      "duration": 0.1505,
      "velocity": 112,
      "chip": "ym2612"
    },
    {
      "channel": 1,
      "note": 65,
      "start": 33.6761,
      "duration": 0.0832,
      "velocity": 112,
      "chip": "ym2612"
    },
    {
      "channel": 3,
      "note": 44,
      "start": 33.6775,
      "duration": 0.1511,
      "velocity": 110,
      "chip": "ym2612"
    },
    {
      "channel": 4,
      "note": 65,
      "start": 33.6836,
      "duration": 0.1506,
      "velocity": 112,
      "chip": "ym2612"
    },
    {
      "channel": 0,
      "note": 89,
      "start": 33.827,
      "duration": 0.1506,
      "velocity": 112,
      "chip": "ym2612"
    },
    {
      "channel": 1,
      "note": 65,
      "start": 33.8277,
      "duration": 0.0833,
      "velocity": 112,
      "chip": "ym2612"
    },
    {
      "channel": 3,
      "note": 43,
      "start": 33.8291,
      "duration": 0.1525,
      "velocity": 110,
      "chip": "ym2612"
    },
    {
      "channel": 4,
      "note": 65,
      "start": 33.8353,
      "duration": 0.1505,
      "velocity": 112,
      "chip": "ym2612"
    },
    {
      "channel": 0,
      "note": 53,
      "start": 33.9787,
      "duration": 0.1506,
      "velocity": 110,
      "chip": "ym2612"
    },
    {
      "channel": 1,
      "note": 60,
      "start": 33.9801,
      "duration": 0.15,
      "velocity": 110,
      "chip": "ym2612"
    },
    {
      "channel": 2,
      "note": 65,
      "start": 33.9814,
      "duration": 0.0819,
      "velocity": 112,
      "chip": "ym2612"
    },
    {
      "channel": 3,
      "note": 56,
      "start": 33.9827,
      "duration": 0.0475,
      "velocity": 120,
      "chip": "ym2612"
    },
    {
      "channel": 4,
      "note": 72,
      "start": 33.9869,
      "duration": 0.1172,
      "velocity": 108,
      "chip": "ym2612"
    },
    {
      "channel": 5,
      "note": 53,
      "start": 34.0717,
      "duration": 0.1505,
      "velocity": 110,
      "chip": "ym2612"
    },
    {
      "channel": 0,
      "note": 55,
      "start": 34.1299,
      "duration": 0.1511,
      "velocity": 109,
      "chip": "ym2612"
    },
    {
      "channel": 1,
      "note": 62,
      "start": 34.1307,
      "duration": 0.1511,
      "velocity": 109,
      "chip": "ym2612"
    },
    {
      "channel": 2,
      "note": 65,
      "start": 34.1314,
      "duration": 0.0836,
      "velocity": 112,
      "chip": "ym2612"
    },
    {
      "channel": 3,
      "note": 68,
      "start": 34.1322,
      "duration": 0.0497,
      "velocity": 120,
      "chip": "ym2612"
    },
    {
      "channel": 4,
      "note": 84,
      "start": 34.138,
      "duration": 0.1178,
      "velocity": 108,
      "chip": "ym2612"
    },
    {
      "channel": 5,
      "note": 55,
      "start": 34.2228,
      "duration": 0.1512,
      "velocity": 109,
      "chip": "ym2612"
    },
    {
      "channel": 0,
      "note": 56,
      "start": 34.2815,
      "duration": 0.1511,
      "velocity": 108,
      "chip": "ym2612"
    },
    {
      "channel": 1,
      "note": 63,
      "start": 34.2824,
      "duration": 0.1511,
      "velocity": 108,
      "chip": "ym2612"
    },
    {
      "channel": 2,
      "note": 65,
      "start": 34.2831,
      "duration": 0.0837,
      "velocity": 112,
      "chip": "ym2612"
    },
    {
      "channel": 3,
      "note": 56,
      "start": 34.2838,
      "duration": 0.0497,
      "velocity": 120,
      "chip": "ym2612"
    },
    {
      "channel": 4,
      "note": 84,
      "start": 34.2896,
      "duration": 0.1178,
      "velocity": 112,
      "chip": "ym2612"
    },
    {
      "channel": 5,
      "note": 56,
      "start": 34.3746,
      "duration": 0.151,
      "velocity": 108,
      "chip": "ym2612"
    },
    {
      "channel": 0,
      "note": 60,
      "start": 34.4332,
      "duration": 0.1511,
      "velocity": 107,
      "chip": "ym2612"
    },
    {
      "channel": 1,
      "note": 67,
      "start": 34.434,
      "duration": 0.1512,
      "velocity": 107,
      "chip": "ym2612"
    },
    {
      "channel": 2,
      "note": 65,
      "start": 34.4347,
      "duration": 0.0837,
      "velocity": 112,
      "chip": "ym2612"
    },
    {
      "channel": 3,
      "note": 56,
      "start": 34.4355,
      "duration": 0.0497,
      "velocity": 120,
      "chip": "ym2612"
    },
    {
      "channel": 4,
      "note": 72,
      "start": 34.4413,
      "duration": 0.1177,
      "velocity": 109,
      "chip": "ym2612"
    },
    {
      "channel": 5,
      "note": 60,
      "start": 34.5262,
      "duration": 0.1511,
      "velocity": 107,
      "chip": "ym2612"
    },
    {
      "channel": 0,
      "note": 53,
      "start": 34.5849,
      "duration": 0.1511,
      "velocity": 106,
      "chip": "ym2612"
    },
    {
      "channel": 1,
      "note": 60,
      "start": 34.5857,
      "duration": 0.1511,
      "velocity": 106,
      "chip": "ym2612"
    },
    {
      "channel": 2,
      "note": 65,
      "start": 34.5864,
      "duration": 0.0837,
      "velocity": 112,
      "chip": "ym2612"
    },
    {
      "channel": 3,
      "note": 68,
      "start": 34.5872,
      "duration": 0.0498,
      "velocity": 120,
      "chip": "ym2612"
    },
    {
      "channel": 4,
      "note": 84,
      "start": 34.593,
      "duration": 0.1178,
      "velocity": 108,
      "chip": "ym2612"
    },
    {
      "channel": 5,
      "note": 53,
      "start": 34.6779,
      "duration": 0.1511,
      "velocity": 106,
      "chip": "ym2612"
    },
    {
      "channel": 0,
      "note": 55,
      "start": 34.7366,
      "duration": 0.1512,
      "velocity": 105,
      "chip": "ym2612"
    },
    {
      "channel": 1,
      "note": 62,
      "start": 34.7374,
      "duration": 0.1511,
      "velocity": 105,
      "chip": "ym2612"
    },
    {
      "channel": 2,
      "note": 65,
      "start": 34.7381,
      "duration": 0.0837,
      "velocity": 112,
      "chip": "ym2612"
    },
    {
      "channel": 3,
      "note": 56,
      "start": 34.7388,
      "duration": 0.0498,
      "velocity": 120,
      "chip": "ym2612"
    },
    {
      "channel": 4,
      "note": 72,
      "start": 34.7447,
      "duration": 0.1178,
      "velocity": 110,
      "chip": "ym2612"
    },
    {
      "channel": 5,
      "note": 55,
      "start": 34.8296,
      "duration": 0.1511,
      "velocity": 105,
      "chip": "ym2612"
    },
    {
      "channel": 0,
      "note": 56,
      "start": 34.8883,
      "duration": 0.1511,
      "velocity": 104,
      "chip": "ym2612"
    },
    {
      "channel": 1,
      "note": 63,
      "start": 34.8891,
      "duration": 0.1512,
      "velocity": 104,
      "chip": "ym2612"
    },
    {
      "channel": 2,
      "note": 65,
      "start": 34.8898,
      "duration": 0.0837,
      "velocity": 112,
      "chip": "ym2612"
    },
    {
      "channel": 3,
      "note": 56,
      "start": 34.8906,
      "duration": 0.0498,
      "velocity": 120,
      "chip": "ym2612"
    },
    {
      "channel": 4,
      "note": 72,
      "start": 34.8963,
      "duration": 0.1178,
      "velocity": 109,
      "chip": "ym2612"
    },
    {
      "channel": 5,
      "note": 56,
      "start": 34.9813,
      "duration": 0.1511,
      "velocity": 104,
      "chip": "ym2612"
    },
    {
      "channel": 0,
      "note": 60,
      "start": 35.0399,
      "duration": 0.1511,
      "velocity": 103,
      "chip": "ym2612"
    },
    {
      "channel": 1,
      "note": 67,
      "start": 35.0408,
      "duration": 0.1511,
      "velocity": 103,
      "chip": "ym2612"
    },
    {
      "channel": 2,
      "note": 65,
      "start": 35.0415,
      "duration": 0.0837,
      "velocity": 112,
      "chip": "ym2612"
    },
    {
      "channel": 3,
      "note": 68,
      "start": 35.0423,
      "duration": 0.0498,
      "velocity": 120,
      "chip": "ym2612"
    },
    {
      "channel": 4,
      "note": 84,
      "start": 35.0481,
      "duration": 0.1178,
      "velocity": 111,
      "chip": "ym2612"
    },
    {
      "channel": 5,
      "note": 60,
      "start": 35.1329,
      "duration": 0.1511,
      "velocity": 103,
      "chip": "ym2612"
    },
    {
      "channel": 0,
      "note": 53,
      "start": 35.1917,
      "duration": 0.1511,
      "velocity": 102,
      "chip": "ym2612"
    },
    {
      "channel": 1,
      "note": 60,
      "start": 35.1925,
      "duration": 0.1511,
      "velocity": 102,
      "chip": "ym2612"
    },
    {
      "channel": 2,
      "note": 65,
      "start": 35.1932,
      "duration": 0.0836,
      "velocity": 112,
      "chip": "ym2612"
    },
    {
      "channel": 3,
      "note": 56,
      "start": 35.1939,
      "duration": 0.0497,
      "velocity": 120,
      "chip": "ym2612"
    },
    {
      "channel": 4,
      "note": 84,
      "start": 35.1997,
      "duration": 0.1178,
      "velocity": 112,
      "chip": "ym2612"
    },
    {
      "channel": 5,
      "note": 53,
      "start": 35.2846,
      "duration": 0.1512,
      "velocity": 102,
      "chip": "ym2612"
    },
    {
      "channel": 0,
      "note": 55,
      "start": 35.3433,
      "duration": 0.1511,
      "velocity": 101,
      "chip": "ym2612"
    },
    {
      "channel": 1,
      "note": 62,
      "start": 35.3441,
      "duration": 0.1511,
      "velocity": 101,
      "chip": "ym2612"
    },
    {
      "channel": 2,
      "note": 65,
      "start": 35.3448,
      "duration": 0.0837,
      "velocity": 112,
      "chip": "ym2612"
    },
    {
      "channel": 3,
      "note": 68,
      "start": 35.3456,
      "duration": 0.0497,
      "velocity": 120,
      "chip": "ym2612"
    },
    {
      "channel": 4,
      "note": 72,
      "start": 35.3514,
      "duration": 0.1178,
      "velocity": 109,
      "chip": "ym2612"
    },
    {
      "channel": 5,
      "note": 55,
      "start": 35.4363,
      "duration": 0.1511,
      "velocity": 101,
      "chip": "ym2612"
    },
    {
      "channel": 0,
      "note": 56,
      "start": 35.495,
      "duration": 0.1511,
      "velocity": 100,
      "chip": "ym2612"
    },
    {
      "channel": 1,
      "note": 63,
      "start": 35.4958,
      "duration": 0.1512,
      "velocity": 100,
      "chip": "ym2612"
    },
    {
      "channel": 2,
      "note": 65,
      "start": 35.4965,
      "duration": 0.0837,
      "velocity": 112,
      "chip": "ym2612"
    },
    {
      "channel": 3,
      "note": 56,
      "start": 35.4973,
      "duration": 0.0497,
      "velocity": 120,
      "chip": "ym2612"
    },
    {
      "channel": 4,
      "note": 84,
      "start": 35.5031,
      "duration": 0.1177,
      "velocity": 108,
      "chip": "ym2612"
    },
    {
      "channel": 5,
      "note": 56,
      "start": 35.588,
      "duration": 0.1511,
      "velocity": 100,
      "chip": "ym2612"
    },
    {
      "channel": 0,
      "note": 60,
      "start": 35.6467,
      "duration": 0.1511,
      "velocity": 99,
      "chip": "ym2612"
    },
    {
      "channel": 1,
      "note": 67,
      "start": 35.6475,
      "duration": 0.1511,
      "velocity": 99,
      "chip": "ym2612"
    },
    {
      "channel": 2,
      "note": 65,
      "start": 35.6482,
      "duration": 0.0836,
      "velocity": 112,
      "chip": "ym2612"
    },
    {
      "channel": 3,
      "note": 56,
      "start": 35.649,
      "duration": 0.0498,
      "velocity": 120,
      "chip": "ym2612"
    },
    {
      "channel": 4,
      "note": 72,
      "start": 35.6548,
      "duration": 0.1178,
      "velocity": 112,
      "chip": "ym2612"
    },
    {
      "channel": 5,
      "note": 60,
      "start": 35.7397,
      "duration": 0.1511,
      "velocity": 99,
      "chip": "ym2612"
    },
    {
      "channel": 0,
      "note": 53,
      "start": 35.7983,
      "duration": 0.1512,
      "velocity": 98,
      "chip": "ym2612"
    },
    {
      "channel": 1,
      "note": 60,
      "start": 35.7992,
      "duration": 0.1511,
      "velocity": 98,
      "chip": "ym2612"
    },
    {
      "channel": 2,
      "note": 65,
      "start": 35.7999,
      "duration": 0.0837,
      "velocity": 112,
      "chip": "ym2612"
    },
    {
      "channel": 3,
      "note": 68,
      "start": 35.8006,
      "duration": 0.0498,
      "velocity": 120,
      "chip": "ym2612"
    },
    {
      "channel": 4,
      "note": 72,
      "start": 35.8065,
      "duration": 0.1178,
      "velocity": 111,
      "chip": "ym2612"
    },
    {
      "channel": 5,
      "note": 53,
      "start": 35.8914,
      "duration": 0.151,
      "velocity": 98,
      "chip": "ym2612"
    },
    {
      "channel": 0,
      "note": 55,
      "start": 35.95,
      "duration": 0.1511,
      "velocity": 97,
      "chip": "ym2612"
    },
    {
      "channel": 1,
      "note": 62,
      "start": 35.9509,
      "duration": 0.1511,
      "velocity": 97,
      "chip": "ym2612"
    },
    {
      "channel": 2,
      "note": 65,
      "start": 35.9516,
      "duration": 0.0836,
      "velocity": 112,
      "chip": "ym2612"
    },
    {
      "channel": 3,
      "note": 56,
      "start": 35.9523,
      "duration": 0.0497,
      "velocity": 120,
      "chip": "ym2612"
    },
    {
      "channel": 4,
      "note": 84,
      "start": 35.9581,
      "duration": 0.1178,
      "velocity": 109,
      "chip": "ym2612"
    },
    {
      "channel": 5,
      "note": 55,
      "start": 36.043,
      "duration": 0.1511,
      "velocity": 97,
      "chip": "ym2612"
    },
    {
      "channel": 0,
      "note": 56,
      "start": 36.1017,
      "duration": 0.1511,
      "velocity": 96,
      "chip": "ym2612"
    },
    {
      "channel": 1,
      "note": 63,
      "start": 36.1025,
      "duration": 0.1512,
      "velocity": 96,
      "chip": "ym2612"
    },
    {
      "channel": 2,
      "note": 65,
      "start": 36.1032,
      "duration": 0.0837,
      "velocity": 112,
      "chip": "ym2612"
    },
    {
      "channel": 3,
      "note": 56,
      "start": 36.104,
      "duration": 0.0498,
      "velocity": 120,
      "chip": "ym2612"
    },
    {
      "channel": 4,
      "note": 72,
      "start": 36.1098,
      "duration": 0.1178,
      "velocity": 111,
      "chip": "ym2612"
    },
    {
      "channel": 5,
      "note": 56,
      "start": 36.1947,
      "duration": 0.1511,
      "velocity": 96,
      "chip": "ym2612"
    },
    {
      "channel": 0,
      "note": 60,
      "start": 36.2534,
      "duration": 0.1511,
      "velocity": 95,
      "chip": "ym2612"
    },
    {
      "channel": 1,
      "note": 67,
      "start": 36.2542,
      "duration": 0.1511,
      "velocity": 95,
      "chip": "ym2612"
    },
    {
      "channel": 2,
      "note": 65,
      "start": 36.2549,
      "duration": 0.0836,
      "velocity": 112,
      "chip": "ym2612"
    },
    {
      "channel": 3,
      "note": 68,
      "start": 36.2557,
      "duration": 0.0497,
      "velocity": 120,
      "chip": "ym2612"
    },
    {
      "channel": 4,
      "note": 72,
      "start": 36.2615,
      "duration": 0.1178,
      "velocity": 112,
      "chip": "ym2612"
    },
    {
      "channel": 5,
      "note": 60,
      "start": 36.3463,
      "duration": 0.1512,
      "velocity": 95,
      "chip": "ym2612"
    },
    {
      "channel": 0,
      "note": 53,
      "start": 36.4051,
      "duration": 0.1511,
      "velocity": 96,
      "chip": "ym2612"
    },
    {
      "channel": 1,
      "note": 60,
      "start": 36.4059,
      "duration": 0.1512,
      "velocity": 96,
      "chip": "ym2612"
    },
    {
      "channel": 2,
      "note": 65,
      "start": 36.4066,
      "duration": 0.0837,
      "velocity": 112,
      "chip": "ym2612"
    },
    {
      "channel": 3,
      "note": 56,
      "start": 36.4074,
      "duration": 0.0498,
      "velocity": 120,
      "chip": "ym2612"
    },
    {
      "channel": 4,
      "note": 72,
      "start": 36.4132,
      "duration": 0.1178,
      "velocity": 108,
      "chip": "ym2612"
    },
    {
      "channel": 5,
      "note": 53,
      "start": 36.4981,
      "duration": 0.1511,
      "velocity": 96,
      "chip": "ym2612"
    },
    {
      "channel": 0,
      "note": 55,
      "start": 36.5568,
      "duration": 0.1511,
      "velocity": 97,
      "chip": "ym2612"
    },
    {
      "channel": 1,
      "note": 62,
      "start": 36.5576,
      "duration": 0.1511,
      "velocity": 97,
      "chip": "ym2612"
    },
    {
      "channel": 2,
      "note": 65,
      "start": 36.5583,
      "duration": 0.0837,
      "velocity": 112,
      "chip": "ym2612"
    },
    {
      "channel": 3,
      "note": 68,
      "start": 36.5591,
      "duration": 0.0498,
      "velocity": 120,
      "chip": "ym2612"
    },
    {
      "channel": 4,
      "note": 84,
      "start": 36.5649,
      "duration": 0.1177,
      "velocity": 109,
      "chip": "ym2612"
    },
    {
      "channel": 5,
      "note": 55,
      "start": 36.6497,
      "duration": 0.1511,
      "velocity": 97,
      "chip": "ym2612"
    },
    {
      "channel": 0,
      "note": 56,
      "start": 36.7084,
      "duration": 0.1511,
      "velocity": 98,
      "chip": "ym2612"
    },
    {
      "channel": 1,
      "note": 63,
      "start": 36.7093,
      "duration": 0.1511,
      "velocity": 98,
      "chip": "ym2612"
    },
    {
      "channel": 2,
      "note": 65,
      "start": 36.71,
      "duration": 0.0837,
      "velocity": 112,
      "chip": "ym2612"
    },
    {
      "channel": 3,
      "note": 56,
      "start": 36.7107,
      "duration": 0.0498,
      "velocity": 120,
      "chip": "ym2612"
    },
    {
      "channel": 4,
      "note": 84,
      "start": 36.7165,
      "duration": 0.1178,
      "velocity": 110,
      "chip": "ym2612"
    },
    {
      "channel": 5,
      "note": 56,
      "start": 36.8015,
      "duration": 0.1511,
      "velocity": 98,
      "chip": "ym2612"
    },
    {
      "channel": 0,
      "note": 60,
      "start": 36.8601,
      "duration": 0.1512,
      "velocity": 99,
      "chip": "ym2612"
    },
    {
      "channel": 1,
      "note": 67,
      "start": 36.8609,
      "duration": 0.1511,
      "velocity": 99,
      "chip": "ym2612"
    },
    {
      "channel": 2,
      "note": 65,
      "start": 36.8616,
      "duration": 0.0837,
      "velocity": 112,
      "chip": "ym2612"
    },
    {
      "channel": 3,
      "note": 56,
      "start": 36.8624,
      "duration": 0.0498,
      "velocity": 120,
      "chip": "ym2612"
    },
    {
      "channel": 4,
      "note": 72,
      "start": 36.8682,
      "duration": 0.1178,
      "velocity": 111,
      "chip": "ym2612"
    },
    {
      "channel": 5,
      "note": 60,
      "start": 36.9531,
      "duration": 0.1511,
      "velocity": 99,
      "chip": "ym2612"
    },
    {
      "channel": 0,
      "note": 53,
      "start": 37.0118,
      "duration": 0.1511,
      "velocity": 100,
      "chip": "ym2612"
    },
    {
      "channel": 1,
      "note": 60,
      "start": 37.0126,
      "duration": 0.1511,
      "velocity": 100,
      "chip": "ym2612"
    },
    {
      "channel": 2,
      "note": 65,
      "start": 37.0133,
      "duration": 0.0836,
      "velocity": 112,
      "chip": "ym2612"
    },
    {
      "channel": 3,
      "note": 68,
      "start": 37.0141,
      "duration": 0.0497,
      "velocity": 120,
      "chip": "ym2612"
    },
    {
      "channel": 4,
      "note": 84,
      "start": 37.0199,
      "duration": 0.1178,
      "velocity": 108,
      "chip": "ym2612"
    },
    {
      "channel": 5,
      "note": 53,
      "start": 37.1048,
      "duration": 0.1511,
      "velocity": 100,
      "chip": "ym2612"
    },
    {
      "channel": 0,
      "note": 55,
      "start": 37.1635,
      "duration": 0.1511,
      "velocity": 101,
      "chip": "ym2612"
    },
    {
      "channel": 1,
      "note": 62,
      "start": 37.1643,
      "duration": 0.1512,
      "velocity": 101,
      "chip": "ym2612"
    },
    {
      "channel": 2,
      "note": 65,
      "start": 37.165,
      "duration": 0.0837,
      "velocity": 112,
      "chip": "ym2612"
    },
    {
      "channel": 3,
      "note": 56,
      "start": 37.1658,
      "duration": 0.0498,
      "velocity": 120,
      "chip": "ym2612"
    },
    {
      "channel": 4,
      "note": 72,
      "start": 37.1716,
      "duration": 0.1178,
      "velocity": 109,
      "chip": "ym2612"
    },
    {
      "channel": 5,
      "note": 55,
      "start": 37.2565,
      "duration": 0.1511,
      "velocity": 101,
      "chip": "ym2612"
    },
    {
      "channel": 0,
      "note": 56,
      "start": 37.3152,
      "duration": 0.1511,
      "velocity": 102,
      "chip": "ym2612"
    },
    {
      "channel": 1,
      "note": 63,
      "start": 37.316,
      "duration": 0.1511,
      "velocity": 102,
      "chip": "ym2612"
    },
    {
      "channel": 2,
      "note": 65,
      "start": 37.3167,
      "duration": 0.0836,
      "velocity": 112,
      "chip": "ym2612"
    },
    {
      "channel": 3,
      "note": 56,
      "start": 37.3175,
      "duration": 0.0497,
      "velocity": 120,
      "chip": "ym2612"
    },
    {
      "channel": 4,
      "note": 72,
      "start": 37.3233,
      "duration": 0.1178,
      "velocity": 112,
      "chip": "ym2612"
    },
    {
      "channel": 5,
      "note": 56,
      "start": 37.4081,
      "duration": 0.1512,
      "velocity": 102,
      "chip": "ym2612"
    },
    {
      "channel": 0,
      "note": 60,
      "start": 37.4668,
      "duration": 0.1511,
      "velocity": 103,
      "chip": "ym2612"
    },
    {
      "channel": 1,
      "note": 67,
      "start": 37.4677,
      "duration": 0.1511,
      "velocity": 103,
      "chip": "ym2612"
    },
    {
      "channel": 2,
      "note": 65,
      "start": 37.4684,
      "duration": 0.0837,
      "velocity": 112,
      "chip": "ym2612"
    },
    {
      "channel": 3,
      "note": 68,
      "start": 37.4691,
      "duration": 0.0497,
      "velocity": 120,
      "chip": "ym2612"
    },
    {
      "channel": 4,
      "note": 84,
      "start": 37.4749,
      "duration": 0.1178,
      "velocity": 110,
      "chip": "ym2612"
    },
    {
      "channel": 5,
      "note": 60,
      "start": 37.5598,
      "duration": 0.1511,
      "velocity": 103,
      "chip": "ym2612"
    },
    {
      "channel": 0,
      "note": 53,
      "start": 37.6185,
      "duration": 0.1511,
      "velocity": 104,
      "chip": "ym2612"
    },
    {
      "channel": 1,
      "note": 60,
      "start": 37.6193,
      "duration": 0.1512,
      "velocity": 104,
      "chip": "ym2612"
    },
    {
      "channel": 2,
      "note": 65,
      "start": 37.62,
      "duration": 0.0837,
      "velocity": 112,
      "chip": "ym2612"
    },
    {
      "channel": 3,
      "note": 56,
      "start": 37.6208,
      "duration": 0.0497,
      "velocity": 120,
      "chip": "ym2612"
    },
    {
      "channel": 4,
      "note": 84,
      "start": 37.6266,
      "duration": 0.1177,
      "velocity": 111,
      "chip": "ym2612"
    },
    {
      "channel": 5,
      "note": 53,
      "start": 37.7115,
      "duration": 0.1511,
      "velocity": 104,
      "chip": "ym2612"
    },
    {
      "channel": 0,
      "note": 55,
      "start": 37.7702,
      "duration": 0.1511,
      "velocity": 105,
      "chip": "ym2612"
    },
    {
      "channel": 1,
      "note": 62,
      "start": 37.771,
      "duration": 0.1511,
      "velocity": 105,
      "chip": "ym2612"
    },
    {
      "channel": 2,
      "note": 65,
      "start": 37.7717,
      "duration": 0.0837,
      "velocity": 112,
      "chip": "ym2612"
    },
    {
      "channel": 3,
      "note": 68,
      "start": 37.7725,
      "duration": 0.0498,
      "velocity": 120,
      "chip": "ym2612"
    },
    {
      "channel": 4,
      "note": 72,
      "start": 37.7783,
      "duration": 0.1178,
      "velocity": 108,
      "chip": "ym2612"
    },
    {
      "channel": 5,
      "note": 55,
      "start": 37.8632,
      "duration": 0.1511,
      "velocity": 105,
      "chip": "ym2612"
    },
    {
      "channel": 0,
      "note": 56,
      "start": 37.9219,
      "duration": 0.1512,
      "velocity": 106,
      "chip": "ym2612"
    },
    {
      "channel": 1,
      "note": 63,
      "start": 37.9227,
      "duration": 0.1511,
      "velocity": 106,
      "chip": "ym2612"
    },
    {
      "channel": 2,
      "note": 65,
      "start": 37.9234,
      "duration": 0.0837,
      "velocity": 112,
      "chip": "ym2612"
    },
    {
      "channel": 3,
      "note": 56,
      "start": 37.9242,
      "duration": 0.0498,
      "velocity": 120,
      "chip": "ym2612"
    },
    {
      "channel": 4,
      "note": 84,
      "start": 37.93,
      "duration": 0.1178,
      "velocity": 109,
      "chip": "ym2612"
    },
    {
      "channel": 5,
      "note": 56,
      "start": 38.0149,
      "duration": 0.1511,
      "velocity": 106,
      "chip": "ym2612"
    },
    {
      "channel": 0,
      "note": 60,
      "start": 38.0737,
      "duration": 0.151,
      "velocity": 107,
      "chip": "ym2612"
    },
    {
      "channel": 1,
      "note": 67,
      "start": 38.0744,
      "duration": 0.1511,
      "velocity": 107,
      "chip": "ym2612"
    },
    {
      "channel": 2,
      "note": 65,
      "start": 38.0751,
      "duration": 0.0836,
      "velocity": 112,
      "chip": "ym2612"
    },
    {
      "channel": 3,
      "note": 56,
      "start": 38.0759,
      "duration": 0.0498,
      "velocity": 120,
      "chip": "ym2612"
    },
    {
      "channel": 4,
      "note": 72,
      "start": 38.0817,
      "duration": 0.1178,
      "velocity": 112,
      "chip": "ym2612"
    },
    {
      "channel": 5,
      "note": 60,
      "start": 38.1665,
      "duration": 0.1511,
      "velocity": 107,
      "chip": "ym2612"
    },
    {
      "channel": 0,
      "note": 53,
      "start": 38.2252,
      "duration": 0.1511,
      "velocity": 108,
      "chip": "ym2612"
    },
    {
      "channel": 1,
      "note": 60,
      "start": 38.2261,
      "duration": 0.1511,
      "velocity": 108,
      "chip": "ym2612"
    },
    {
      "channel": 2,
      "note": 65,
      "start": 38.2268,
      "duration": 0.0837,
      "velocity": 112,
      "chip": "ym2612"
    },
    {
      "channel": 3,
      "note": 68,
      "start": 38.2275,
      "duration": 0.0498,
      "velocity": 120,
      "chip": "ym2612"
    },
    {
      "channel": 4,
      "note": 84,
      "start": 38.2334,
      "duration": 0.1178,
      "velocity": 110,
      "chip": "ym2612"
    },
    {
      "channel": 5,
      "note": 53,
      "start": 38.3182,
      "duration": 0.1511,
      "velocity": 108,
      "chip": "ym2612"
    },
    {
      "channel": 0,
      "note": 55,
      "start": 38.377,
      "duration": 0.1511,
      "velocity": 109,
      "chip": "ym2612"
    },
    {
      "channel": 1,
      "note": 62,
      "start": 38.3777,
      "duration": 0.1512,
      "velocity": 109,
      "chip": "ym2612"
    },
    {
      "channel": 2,
      "note": 65,
      "start": 38.3784,
      "duration": 0.0837,
      "velocity": 112,
      "chip": "ym2612"
    },
    {
      "channel": 3,
      "note": 56,
      "start": 38.3792,
      "duration": 0.0498,
      "velocity": 120,
      "chip": "ym2612"
    },
    {
      "channel": 4,
      "note": 72,
      "start": 38.385,
      "duration": 0.1178,
      "velocity": 108,
      "chip": "ym2612"
    },
    {
      "channel": 5,
      "note": 55,
      "start": 38.4699,
      "duration": 0.1512,
      "velocity": 109,
      "chip": "ym2612"
    },
    {
      "channel": 0,
      "note": 56,
      "start": 38.5286,
      "duration": 0.1511,
      "velocity": 110,
      "chip": "ym2612"
    },
    {
      "channel": 1,
      "note": 63,
      "start": 38.5294,
      "duration": 0.1511,
      "velocity": 110,
      "chip": "ym2612"
    },
    {
      "channel": 2,
      "note": 65,
      "start": 38.5301,
      "duration": 0.0837,
      "velocity": 112,
      "chip": "ym2612"
    },
    {
      "channel": 3,
      "note": 68,
      "start": 38.5309,
      "duration": 0.0497,
      "velocity": 120,
      "chip": "ym2612"
    },
    {
      "channel": 4,
      "note": 72,
      "start": 38.5367,
      "duration": 0.1178,
      "velocity": 109,
      "chip": "ym2612"
    },
    {
      "channel": 5,
      "note": 56,
      "start": 38.6216,
      "duration": 0.1511,
      "velocity": 110,
      "chip": "ym2612"
    },
    {
      "channel": 0,
      "note": 60,
      "start": 38.6803,
      "duration": 0.1511,
      "velocity": 110,
      "chip": "ym2612"
    },
    {
      "channel": 1,
      "note": 67,
      "start": 38.6811,
      "duration": 0.1511,
      "velocity": 110,
      "chip": "ym2612"
    },
    {
      "channel": 2,
      "note": 65,
      "start": 38.6818,
      "duration": 0.0837,
      "velocity": 112,
      "chip": "ym2612"
    },
    {
      "channel": 3,
      "note": 68,
      "start": 38.6826,
      "duration": 0.0497,
      "velocity": 120,
      "chip": "ym2612"
    },
    {
      "channel": 4,
      "note": 84,
      "start": 38.6884,
      "duration": 0.1177,
      "velocity": 112,
      "chip": "ym2612"
    },
    {
      "channel": 5,
      "note": 60,
      "start": 38.7733,
      "duration": 0.1511,
      "velocity": 110,
      "chip": "ym2612"
    },
    {
      "channel": 0,
      "note": 51,
      "start": 38.832,
      "duration": 0.1511,
      "velocity": 110,
      "chip": "ym2612"
    },
    {
      "channel": 1,
      "note": 58,
      "start": 38.8328,
      "duration": 0.1511,
      "velocity": 110,
      "chip": "ym2612"
    },
    {
      "channel": 2,
      "note": 65,
      "start": 38.8335,
      "duration": 0.0837,
      "velocity": 112,
      "chip": "ym2612"
    },
    {
      "channel": 3,
      "note": 54,
      "start": 38.8343,
      "duration": 0.0498,
      "velocity": 120,
      "chip": "ym2612"
    },
    {
      "channel": 4,
      "note": 70,
      "start": 38.8401,
      "duration": 0.1178,
      "velocity": 108,
      "chip": "ym2612"
    },
    {
      "channel": 5,
      "note": 51,
      "start": 38.925,
      "duration": 0.1511,
      "velocity": 110,
      "chip": "ym2612"
    },
    {
      "channel": 0,
      "note": 53,
      "start": 38.9836,
      "duration": 0.1512,
      "velocity": 109,
      "chip": "ym2612"
    },
    {
      "channel": 1,
      "note": 60,
      "start": 38.9845,
      "duration": 0.1511,
      "velocity": 109,
      "chip": "ym2612"
    },
    {
      "channel": 2,
      "note": 65,
      "start": 38.9852,
      "duration": 0.0837,
      "velocity": 112,
      "chip": "ym2612"
    },
    {
      "channel": 3,
      "note": 66,
      "start": 38.9859,
      "duration": 0.0498,
      "velocity": 120,
      "chip": "ym2612"
    },
    {
      "channel": 4,
      "note": 82,
      "start": 38.9918,
      "duration": 0.1178,
      "velocity": 108,
      "chip": "ym2612"
    },
    {
      "channel": 5,
      "note": 53,
      "start": 39.0766,
      "duration": 0.1511,
      "velocity": 109,
      "chip": "ym2612"
    },
    {
      "channel": 0,
      "note": 54,
      "start": 39.1354,
      "duration": 0.1511,
      "velocity": 108,
      "chip": "ym2612"
    },
    {
      "channel": 1,
      "note": 61,
      "start": 39.1362,
      "duration": 0.1511,
      "velocity": 108,
      "chip": "ym2612"
    },
    {
      "channel": 2,
      "note": 65,
      "start": 39.1369,
      "duration": 0.0836,
      "velocity": 112,
      "chip": "ym2612"
    },
    {
      "channel": 3,
      "note": 54,
      "start": 39.1376,
      "duration": 0.0497,
      "velocity": 120,
      "chip": "ym2612"
    },
    {
      "channel": 4,
      "note": 82,
      "start": 39.1434,
      "duration": 0.1178,
      "velocity": 112,
      "chip": "ym2612"
    },
    {
      "channel": 5,
      "note": 54,
      "start": 39.2283,
      "duration": 0.1511,
      "velocity": 108,
      "chip": "ym2612"
    },
    {
      "channel": 0,
      "note": 58,
      "start": 39.287,
      "duration": 0.1511,
      "velocity": 107,
      "chip": "ym2612"
    },
    {
      "channel": 1,
      "note": 65,
      "start": 39.2878,
      "duration": 0.1511,
      "velocity": 107,
      "chip": "ym2612"
    },
    {
      "channel": 2,
      "note": 65,
      "start": 39.2885,
      "duration": 0.0837,
      "velocity": 112,
      "chip": "ym2612"
    },
    {
      "channel": 3,
      "note": 54,
      "start": 39.2893,
      "duration": 0.0498,
      "velocity": 120,
      "chip": "ym2612"
    },
    {
      "channel": 4,
      "note": 70,
      "start": 39.2951,
      "duration": 0.1178,
      "velocity": 109,
      "chip": "ym2612"
    },
    {
      "channel": 5,
      "note": 58,
      "start": 39.38,
      "duration": 0.1511,
      "velocity": 107,
      "chip": "ym2612"
    },
    {
      "channel": 0,
      "note": 51,
      "start": 39.4387,
      "duration": 0.1511,
      "velocity": 106,
      "chip": "ym2612"
    },
    {
      "channel": 1,
      "note": 58,
      "start": 39.4395,
      "duration": 0.1512,
      "velocity": 106,
      "chip": "ym2612"
    },
    {
      "channel": 2,
      "note": 65,
      "start": 39.4402,
      "duration": 0.0837,
      "velocity": 112,
      "chip": "ym2612"
    },
    {
      "channel": 3,
      "note": 66,
      "start": 39.441,
      "duration": 0.0497,
      "velocity": 120,
      "chip": "ym2612"
    },
    {
      "channel": 4,
      "note": 82,
      "start": 39.4468,
      "duration": 0.1178,
      "velocity": 108,
      "chip": "ym2612"
    },
    {
      "channel": 5,
      "note": 51,
      "start": 39.5317,
      "duration": 0.1512,
      "velocity": 106,
      "chip": "ym2612"
    },
    {
      "channel": 0,
      "note": 53,
      "start": 39.5904,
      "duration": 0.1511,
      "velocity": 105,
      "chip": "ym2612"
    },
    {
      "channel": 1,
      "note": 60,
      "start": 39.5913,
      "duration": 0.151,
      "velocity": 105,
      "chip": "ym2612"
    },
    {
      "channel": 2,
      "note": 65,
      "start": 39.592,
      "duration": 0.0836,
      "velocity": 112,
      "chip": "ym2612"
    },
    {
      "channel": 3,
      "note": 54,
      "start": 39.5927,
      "duration": 0.0497,
      "velocity": 120,
      "chip": "ym2612"
    },
    {
      "channel": 4,
      "note": 70,
      "start": 39.5985,
      "duration": 0.1178,
      "velocity": 110,
      "chip": "ym2612"
    },
    {
      "channel": 5,
      "note": 53,
      "start": 39.6834,
      "duration": 0.1511,
      "velocity": 105,
      "chip": "ym2612"
    },
    {
      "channel": 0,
      "note": 54,
      "start": 39.7421,
      "duration": 0.1511,
      "velocity": 104,
      "chip": "ym2612"
    },
    {
      "channel": 1,
      "note": 61,
      "start": 39.7429,
      "duration": 0.1511,
      "velocity": 104,
      "chip": "ym2612"
    },
    {
      "channel": 2,
      "note": 65,
      "start": 39.7436,
      "duration": 0.0837,
      "velocity": 112,
      "chip": "ym2612"
    },
    {
      "channel": 3,
      "note": 54,
      "start": 39.7443,
      "duration": 0.0497,
      "velocity": 120,
      "chip": "ym2612"
    },
    {
      "channel": 4,
      "note": 70,
      "start": 39.7502,
      "duration": 0.1177,
      "velocity": 109,
      "chip": "ym2612"
    },
    {
      "channel": 5,
      "note": 54,
      "start": 39.835,
      "duration": 0.1511,
      "velocity": 104,
      "chip": "ym2612"
    },
    {
      "channel": 0,
      "note": 58,
      "start": 39.8937,
      "duration": 0.1511,
      "velocity": 103,
      "chip": "ym2612"
    },
    {
      "channel": 1,
      "note": 65,
      "start": 39.8946,
      "duration": 0.1511,
      "velocity": 103,
      "chip": "ym2612"
    },
    {
      "channel": 2,
      "note": 65,
      "start": 39.8953,
      "duration": 0.0837,
      "velocity": 112,
      "chip": "ym2612"
    },
    {
      "channel": 3,
      "note": 66,
      "start": 39.896,
      "duration": 0.0498,
      "velocity": 120,
      "chip": "ym2612"
    },
    {
      "channel": 4,
      "note": 82,
      "start": 39.9018,
      "duration": 0.1178,
      "velocity": 111,
      "chip": "ym2612"
    },
    {
      "channel": 5,
      "note": 58,
      "start": 39.9868,
      "duration": 0.1511,
      "velocity": 103,
      "chip": "ym2612"
    },
    {
      "channel": 0,
      "note": 51,
      "start": 40.0454,
      "duration": 0.1512,
      "velocity": 102,
      "chip": "ym2612"
    },
    {
      "channel": 1,
      "note": 58,
      "start": 40.0462,
      "duration": 0.1511,
      "velocity": 102,
      "chip": "ym2612"
    },
    {
      "channel": 2,
      "note": 65,
      "start": 40.0469,
      "duration": 0.0837,
      "velocity": 112,
      "chip": "ym2612"
    },
    {
      "channel": 3,
      "note": 54,
      "start": 40.0477,
      "duration": 0.0498,
      "velocity": 120,
      "chip": "ym2612"
    },
    {
      "channel": 4,
      "note": 82,
      "start": 40.0535,
      "duration": 0.1178,
      "velocity": 112,
      "chip": "ym2612"
    },
    {
      "channel": 5,
      "note": 51,
      "start": 40.1384,
      "duration": 0.1511,
      "velocity": 102,
      "chip": "ym2612"
    },
    {
      "channel": 0,
      "note": 53,
      "start": 40.1971,
      "duration": 0.1511,
      "velocity": 101,
      "chip": "ym2612"
    },
    {
      "channel": 1,
      "note": 60,
      "start": 40.1979,
      "duration": 0.1511,
      "velocity": 101,
      "chip": "ym2612"
    },
    {
      "channel": 2,
      "note": 65,
      "start": 40.1986,
      "duration": 0.0836,
      "velocity": 112,
      "chip": "ym2612"
    },
    {
      "channel": 3,
      "note": 66,
      "start": 40.1994,
      "duration": 0.0497,
      "velocity": 120,
      "chip": "ym2612"
    },
    {
      "channel": 4,
      "note": 70,
      "start": 40.2052,
      "duration": 0.1178,
      "velocity": 109,
      "chip": "ym2612"
    },
    {
      "channel": 5,
      "note": 53,
      "start": 40.2901,
      "duration": 0.1511,
      "velocity": 101,
      "chip": "ym2612"
    },
    {
      "channel": 0,
      "note": 54,
      "start": 40.3488,
      "duration": 0.1511,
      "velocity": 100,
      "chip": "ym2612"
    },
    {
      "channel": 1,
      "note": 61,
      "start": 40.3496,
      "duration": 0.1511,
      "velocity": 100,
      "chip": "ym2612"
    },
    {
      "channel": 2,
      "note": 65,
      "start": 40.3503,
      "duration": 0.0837,
      "velocity": 112,
      "chip": "ym2612"
    },
    {
      "channel": 3,
      "note": 54,
      "start": 40.3511,
      "duration": 0.0498,
      "velocity": 120,
      "chip": "ym2612"
    },
    {
      "channel": 4,
      "note": 82,
      "start": 40.3569,
      "duration": 0.1178,
      "velocity": 108,
      "chip": "ym2612"
    },
    {
      "channel": 5,
      "note": 54,
      "start": 40.4418,
      "duration": 0.1511,
      "velocity": 100,
      "chip": "ym2612"
    },
    {
      "channel": 0,
      "note": 58,
      "start": 40.5005,
      "duration": 0.1511,
      "velocity": 99,
      "chip": "ym2612"
    },
    {
      "channel": 1,
      "note": 65,
      "start": 40.5012,
      "duration": 0.1512,
      "velocity": 99,
      "chip": "ym2612"
    },
    {
      "channel": 2,
      "note": 65,
      "start": 40.502,
      "duration": 0.0837,
      "velocity": 112,
      "chip": "ym2612"
    },
    {
      "channel": 3,
      "note": 54,
      "start": 40.5027,
      "duration": 0.0498,
      "velocity": 120,
      "chip": "ym2612"
    },
    {
      "channel": 4,
      "note": 70,
      "start": 40.5086,
      "duration": 0.1178,
      "velocity": 112,
      "chip": "ym2612"
    },
    {
      "channel": 5,
      "note": 58,
      "start": 40.5934,
      "duration": 0.1512,
      "velocity": 99,
      "chip": "ym2612"
    },
    {
      "channel": 0,
      "note": 51,
      "start": 40.6522,
      "duration": 0.1511,
      "velocity": 98,
      "chip": "ym2612"
    },
    {
      "channel": 1,
      "note": 58,
      "start": 40.653,
      "duration": 0.1511,
      "velocity": 98,
      "chip": "ym2612"
    },
    {
      "channel": 2,
      "note": 65,
      "start": 40.6537,
      "duration": 0.0837,
      "velocity": 112,
      "chip": "ym2612"
    },
    {
      "channel": 3,
      "note": 66,
      "start": 40.6544,
      "duration": 0.0497,
      "velocity": 120,
      "chip": "ym2612"
    },
    {
      "channel": 4,
      "note": 70,
      "start": 40.6602,
      "duration": 0.1178,
      "velocity": 111,
      "chip": "ym2612"
    },
    {
      "channel": 5,
      "note": 51,
      "start": 40.7451,
      "duration": 0.1511,
      "velocity": 98,
      "chip": "ym2612"
    },
    {
      "channel": 0,
      "note": 53,
      "start": 40.8038,
      "duration": 0.1511,
      "velocity": 97,
      "chip": "ym2612"
    },
    {
      "channel": 1,
      "note": 60,
      "start": 40.8046,
      "duration": 0.1511,
      "velocity": 97,
      "chip": "ym2612"
    },
    {
      "channel": 2,
      "note": 65,
      "start": 40.8053,
      "duration": 0.0837,
      "velocity": 112,
      "chip": "ym2612"
    },
    {
      "channel": 3,
      "note": 54,
      "start": 40.8061,
      "duration": 0.0497,
      "velocity": 120,
      "chip": "ym2612"
    },
    {
      "channel": 4,
      "note": 82,
      "start": 40.812,
      "duration": 0.1177,
      "velocity": 109,
      "chip": "ym2612"
    },
    {
      "channel": 5,
      "note": 53,
      "start": 40.8968,
      "duration": 0.1511,
      "velocity": 97,
      "chip": "ym2612"
    },
    {
      "channel": 0,
      "note": 54,
      "start": 40.9555,
      "duration": 0.1511,
      "velocity": 96,
      "chip": "ym2612"
    },
    {
      "channel": 1,
      "note": 61,
      "start": 40.9563,
      "duration": 0.1511,
      "velocity": 96,
      "chip": "ym2612"
    },
    {
      "channel": 2,
      "note": 65,
      "start": 40.9571,
      "duration": 0.0837,
      "velocity": 112,
      "chip": "ym2612"
    },
    {
      "channel": 3,
      "note": 54,
      "start": 40.9578,
      "duration": 0.0498,
      "velocity": 120,
      "chip": "ym2612"
    },
    {
      "channel": 4,
      "note": 70,
      "start": 40.9636,
      "duration": 0.1178,
      "velocity": 111,
      "chip": "ym2612"
    },
    {
      "channel": 5,
      "note": 54,
      "start": 41.0485,
      "duration": 0.1511,
      "velocity": 96,
      "chip": "ym2612"
    },
    {
      "channel": 0,
      "note": 58,
      "start": 41.1072,
      "duration": 0.1511,
      "velocity": 95,
      "chip": "ym2612"
    },
    {
      "channel": 1,
      "note": 65,
      "start": 41.108,
      "duration": 0.1511,
      "velocity": 95,
      "chip": "ym2612"
    },
    {
      "channel": 2,
      "note": 65,
      "start": 41.1088,
      "duration": 0.0836,
      "velocity": 112,
      "chip": "ym2612"
    },
    {
      "channel": 3,
      "note": 66,
      "start": 41.1095,
      "duration": 0.0498,
      "velocity": 120,
      "chip": "ym2612"
    },
    {
      "channel": 4,
      "note": 70,
      "start": 41.1153,
      "duration": 0.1178,
      "velocity": 112,
      "chip": "ym2612"
    },
    {
      "channel": 5,
      "note": 58,
      "start": 41.2002,
      "duration": 0.1511,
      "velocity": 95,
      "chip": "ym2612"
    },
    {
      "channel": 0,
      "note": 51,
      "start": 41.2589,
      "duration": 0.1511,
      "velocity": 96,
      "chip": "ym2612"
    },
    {
      "channel": 1,
      "note": 58,
      "start": 41.2597,
      "duration": 0.1511,
      "velocity": 96,
      "chip": "ym2612"
    },
    {
      "channel": 2,
      "note": 65,
      "start": 41.2604,
      "duration": 0.0836,
      "velocity": 112,
      "chip": "ym2612"
    },
    {
      "channel": 3,
      "note": 54,
      "start": 41.2612,
      "duration": 0.0497,
      "velocity": 120,
      "chip": "ym2612"
    },
    {
      "channel": 4,
      "note": 70,
      "start": 41.267,
      "duration": 0.1178,
      "velocity": 108,
      "chip": "ym2612"
    },
    {
      "channel": 5,
      "note": 51,
      "start": 41.3518,
      "duration": 0.1511,
      "velocity": 96,
      "chip": "ym2612"
    },
    {
      "channel": 0,
      "note": 53,
      "start": 41.4105,
      "duration": 0.1511,
      "velocity": 97,
      "chip": "ym2612"
    },
    {
      "channel": 1,
      "note": 60,
      "start": 41.4114,
      "duration": 0.1511,
      "velocity": 97,
      "chip": "ym2612"
    },
    {
      "channel": 2,
      "note": 65,
      "start": 41.4121,
      "duration": 0.0837,
      "velocity": 112,
      "chip": "ym2612"
    },
    {
      "channel": 3,
      "note": 66,
      "start": 41.4128,
      "duration": 0.0498,
      "velocity": 120,
      "chip": "ym2612"
    },
    {
      "channel": 4,
      "note": 82,
      "start": 41.4187,
      "duration": 0.1178,
      "velocity": 109,
      "chip": "ym2612"
    },
    {
      "channel": 5,
      "note": 53,
      "start": 41.5035,
      "duration": 0.1511,
      "velocity": 97,
      "chip": "ym2612"
    },
    {
      "channel": 0,
      "note": 54,
      "start": 41.5623,
      "duration": 0.1511,
      "velocity": 98,
      "chip": "ym2612"
    },
    {
      "channel": 1,
      "note": 61,
      "start": 41.563,
      "duration": 0.1512,
      "velocity": 98,
      "chip": "ym2612"
    },
    {
      "channel": 2,
      "note": 65,
      "start": 41.5637,
      "duration": 0.0837,
      "velocity": 112,
      "chip": "ym2612"
    },
    {
      "channel": 3,
      "note": 54,
      "start": 41.5645,
      "duration": 0.0498,
      "velocity": 120,
      "chip": "ym2612"
    },
    {
      "channel": 4,
      "note": 82,
      "start": 41.5703,
      "duration": 0.1178,
      "velocity": 110,
      "chip": "ym2612"
    },
    {
      "channel": 5,
      "note": 54,
      "start": 41.6552,
      "duration": 0.1512,
      "velocity": 98,
      "chip": "ym2612"
    },
    {
      "channel": 0,
      "note": 58,
      "start": 41.7139,
      "duration": 0.1511,
      "velocity": 99,
      "chip": "ym2612"
    },
    {
      "channel": 1,
      "note": 65,
      "start": 41.7147,
      "duration": 0.1511,
      "velocity": 99,
      "chip": "ym2612"
    },
    {
      "channel": 2,
      "note": 65,
      "start": 41.7154,
      "duration": 0.0837,
      "velocity": 112,
      "chip": "ym2612"
    },
    {
      "channel": 3,
      "note": 54,
      "start": 41.7162,
      "duration": 0.0497,
      "velocity": 120,
      "chip": "ym2612"
    },
    {
      "channel": 4,
      "note": 70,
      "start": 41.722,
      "duration": 0.1178,
      "velocity": 111,
      "chip": "ym2612"
    },
    {
      "channel": 5,
      "note": 58,
      "start": 41.807,
      "duration": 0.151,
      "velocity": 99,
      "chip": "ym2612"
    },
    {
      "channel": 0,
      "note": 51,
      "start": 41.8656,
      "duration": 0.1512,
      "velocity": 100,
      "chip": "ym2612"
    },
    {
      "channel": 1,
      "note": 58,
      "start": 41.8664,
      "duration": 0.1511,
      "velocity": 100,
      "chip": "ym2612"
    },
    {
      "channel": 2,
      "note": 65,
      "start": 41.8671,
      "duration": 0.0837,
      "velocity": 112,
      "chip": "ym2612"
    },
    {
      "channel": 3,
      "note": 66,
      "start": 41.8678,
      "duration": 0.0498,
      "velocity": 120,
      "chip": "ym2612"
    },
    {
      "channel": 4,
      "note": 82,
      "start": 41.8738,
      "duration": 0.1177,
      "velocity": 108,
      "chip": "ym2612"
    },
    {
      "channel": 5,
      "note": 51,
      "start": 41.9586,
      "duration": 0.1511,
      "velocity": 100,
      "chip": "ym2612"
    },
    {
      "channel": 0,
      "note": 53,
      "start": 42.0173,
      "duration": 0.1511,
      "velocity": 101,
      "chip": "ym2612"
    },
    {
      "channel": 1,
      "note": 60,
      "start": 42.0181,
      "duration": 0.1511,
      "velocity": 101,
      "chip": "ym2612"
    },
    {
      "channel": 2,
      "note": 65,
      "start": 42.0188,
      "duration": 0.0836,
      "velocity": 112,
      "chip": "ym2612"
    },
    {
      "channel": 3,
      "note": 54,
      "start": 42.0196,
      "duration": 0.0498,
      "velocity": 120,
      "chip": "ym2612"
    },
    {
      "channel": 4,
      "note": 70,
      "start": 42.0254,
      "duration": 0.1178,
      "velocity": 109,
      "chip": "ym2612"
    },
    {
      "channel": 5,
      "note": 53,
      "start": 42.1103,
      "duration": 0.1511,
      "velocity": 101,
      "chip": "ym2612"
    },
    {
      "channel": 0,
      "note": 54,
      "start": 42.1689,
      "duration": 0.1512,
      "velocity": 102,
      "chip": "ym2612"
    },
    {
      "channel": 1,
      "note": 61,
      "start": 42.1698,
      "duration": 0.1511,
      "velocity": 102,
      "chip": "ym2612"
    },
    {
      "channel": 2,
      "note": 65,
      "start": 42.1705,
      "duration": 0.0837,
      "velocity": 112,
      "chip": "ym2612"
    },
    {
      "channel": 3,
      "note": 54,
      "start": 42.1712,
      "duration": 0.0498,
      "velocity": 120,
      "chip": "ym2612"
    },
    {
      "channel": 4,
      "note": 70,
      "start": 42.1771,
      "duration": 0.1178,
      "velocity": 112,
      "chip": "ym2612"
    },
    {
      "channel": 5,
      "note": 54,
      "start": 42.262,
      "duration": 0.1511,
      "velocity": 102,
      "chip": "ym2612"
    },
    {
      "channel": 0,
      "note": 58,
      "start": 42.3207,
      "duration": 0.1511,
      "velocity": 103,
      "chip": "ym2612"
    },
    {
      "channel": 1,
      "note": 65,
      "start": 42.3215,
      "duration": 0.1511,
      "velocity": 103,
      "chip": "ym2612"
    },
    {
      "channel": 2,
      "note": 65,
      "start": 42.3222,
      "duration": 0.0836,
      "velocity": 112,
      "chip": "ym2612"
    },
    {
      "channel": 3,
      "note": 66,
      "start": 42.3229,
      "duration": 0.0497,
      "velocity": 120,
      "chip": "ym2612"
    },
    {
      "channel": 4,
      "note": 82,
      "start": 42.3287,
      "duration": 0.1178,
      "velocity": 110,
      "chip": "ym2612"
    },
    {
      "channel": 5,
      "note": 58,
      "start": 42.4136,
      "duration": 0.1511,
      "velocity": 103,
      "chip": "ym2612"
    },
    {
      "channel": 0,
      "note": 51,
      "start": 42.4723,
      "duration": 0.1511,
      "velocity": 104,
      "chip": "ym2612"
    },
    {
      "channel": 1,
      "note": 58,
      "start": 42.4731,
      "duration": 0.1512,
      "velocity": 104,
      "chip": "ym2612"
    },
    {
      "channel": 2,
      "note": 65,
      "start": 42.4739,
      "duration": 0.0836,
      "velocity": 112,
      "chip": "ym2612"
    },
    {
      "channel": 3,
      "note": 54,
      "start": 42.4747,
      "duration": 0.0497,
      "velocity": 120,
      "chip": "ym2612"
    },
    {
      "channel": 4,
      "note": 82,
      "start": 42.4804,
      "duration": 0.1178,
      "velocity": 111,
      "chip": "ym2612"
    },
    {
      "channel": 5,
      "note": 51,
      "start": 42.5653,
      "duration": 0.1511,
      "velocity": 104,
      "chip": "ym2612"
    },
    {
      "channel": 0,
      "note": 53,
      "start": 42.624,
      "duration": 0.1511,
      "velocity": 105,
      "chip": "ym2612"
    },
    {
      "channel": 1,
      "note": 60,
      "start": 42.6249,
      "duration": 0.1511,
      "velocity": 105,
      "chip": "ym2612"
    },
    {
      "channel": 2,
      "note": 65,
      "start": 42.6256,
      "duration": 0.0836,
      "velocity": 112,
      "chip": "ym2612"
    },
    {
      "channel": 3,
      "note": 66,
      "start": 42.6263,
      "duration": 0.0497,
      "velocity": 120,
      "chip": "ym2612"
    },
    {
      "channel": 4,
      "note": 70,
      "start": 42.6321,
      "duration": 0.1178,
      "velocity": 108,
      "chip": "ym2612"
    },
    {
      "channel": 5,
      "note": 53,
      "start": 42.717,
      "duration": 0.1512,
      "velocity": 105,
      "chip": "ym2612"
    },
    {
      "channel": 0,
      "note": 54,
      "start": 42.7757,
      "duration": 0.1511,
      "velocity": 106,
      "chip": "ym2612"
    },
    {
      "channel": 1,
      "note": 61,
      "start": 42.7765,
      "duration": 0.1511,
      "velocity": 106,
      "chip": "ym2612"
    },
    {
      "channel": 2,
      "note": 65,
      "start": 42.7772,
      "duration": 0.0837,
      "velocity": 112,
      "chip": "ym2612"
    },
    {
      "channel": 3,
      "note": 54,
      "start": 42.778,
      "duration": 0.0497,
      "velocity": 120,
      "chip": "ym2612"
    },
    {
      "channel": 4,
      "note": 82,
      "start": 42.7838,
      "duration": 0.1178,
      "velocity": 109,
      "chip": "ym2612"
    },
    {
      "channel": 5,
      "note": 54,
      "start": 42.8687,
      "duration": 0.1511,
      "velocity": 106,
      "chip": "ym2612"
    },
    {
      "channel": 0,
      "note": 58,
      "start": 42.9273,
      "duration": 0.1512,
      "velocity": 107,
      "chip": "ym2612"
    },
    {
      "channel": 1,
      "note": 65,
      "start": 42.9282,
      "duration": 0.1511,
      "velocity": 107,
      "chip": "ym2612"
    },
    {
      "channel": 2,
      "note": 65,
      "start": 42.9289,
      "duration": 0.0837,
      "velocity": 112,
      "chip": "ym2612"
    },
    {
      "channel": 3,
      "note": 54,
      "start": 42.9296,
      "duration": 0.0498,
      "velocity": 120,
      "chip": "ym2612"
    },
    {
      "channel": 4,
      "note": 70,
      "start": 42.9355,
      "duration": 0.1177,
      "velocity": 112,
      "chip": "ym2612"
    },
    {
      "channel": 5,
      "note": 58,
      "start": 43.0203,
      "duration": 0.1511,
      "velocity": 107,
      "chip": "ym2612"
    },
    {
      "channel": 0,
      "note": 51,
      "start": 43.079,
      "duration": 0.1511,
      "velocity": 108,
      "chip": "ym2612"
    },
    {
      "channel": 1,
      "note": 58,
      "start": 43.0799,
      "duration": 0.1511,
      "velocity": 108,
      "chip": "ym2612"
    },
    {
      "channel": 2,
      "note": 65,
      "start": 43.0806,
      "duration": 0.0836,
      "velocity": 112,
      "chip": "ym2612"
    },
    {
      "channel": 3,
      "note": 66,
      "start": 43.0813,
      "duration": 0.0498,
      "velocity": 120,
      "chip": "ym2612"
    },
    {
      "channel": 4,
      "note": 82,
      "start": 43.0871,
      "duration": 0.1178,
      "velocity": 110,
      "chip": "ym2612"
    },
    {
      "channel": 5,
      "note": 51,
      "start": 43.1721,
      "duration": 0.1511,
      "velocity": 108,
      "chip": "ym2612"
    },
    {
      "channel": 0,
      "note": 53,
      "start": 43.2307,
      "duration": 0.1512,
      "velocity": 109,
      "chip": "ym2612"
    },
    {
      "channel": 1,
      "note": 60,
      "start": 43.2315,
      "duration": 0.1511,
      "velocity": 109,
      "chip": "ym2612"
    },
    {
      "channel": 2,
      "note": 65,
      "start": 43.2322,
      "duration": 0.0837,
      "velocity": 112,
      "chip": "ym2612"
    },
    {
      "channel": 3,
      "note": 54,
      "start": 43.233,
      "duration": 0.0498,
      "velocity": 120,
      "chip": "ym2612"
    },
    {
      "channel": 4,
      "note": 70,
      "start": 43.2388,
      "duration": 0.1178,
      "velocity": 108,
      "chip": "ym2612"
    },
    {
      "channel": 5,
      "note": 53,
      "start": 43.3238,
      "duration": 0.151,
      "velocity": 109,
      "chip": "ym2612"
    },
    {
      "channel": 0,
      "note": 54,
      "start": 43.3824,
      "duration": 0.1511,
      "velocity": 110,
      "chip": "ym2612"
    },
    {
      "channel": 1,
      "note": 61,
      "start": 43.3832,
      "duration": 0.1511,
      "velocity": 110,
      "chip": "ym2612"
    },
    {
      "channel": 2,
      "note": 65,
      "start": 43.3839,
      "duration": 0.0837,
      "velocity": 112,
      "chip": "ym2612"
    },
    {
      "channel": 3,
      "note": 66,
      "start": 43.3846,
      "duration": 0.0498,
      "velocity": 120,
      "chip": "ym2612"
    },
    {
      "channel": 4,
      "note": 70,
      "start": 43.3906,
      "duration": 0.1178,
      "velocity": 109,
      "chip": "ym2612"
    },
    {
      "channel": 5,
      "note": 54,
      "start": 43.4754,
      "duration": 0.1511,
      "velocity": 110,
      "chip": "ym2612"
    },
    {
      "channel": 0,
      "note": 58,
      "start": 43.5341,
      "duration": 0.1511,
      "velocity": 110,
      "chip": "ym2612"
    },
    {
      "channel": 1,
      "note": 65,
      "start": 43.5349,
      "duration": 0.1511,
      "velocity": 110,
      "chip": "ym2612"
    },
    {
      "channel": 2,
      "note": 65,
      "start": 43.5356,
      "duration": 0.0837,
      "velocity": 112,
      "chip": "ym2612"
    },
    {
      "channel": 3,
      "note": 66,
      "start": 43.5364,
      "duration": 0.0498,
      "velocity": 120,
      "chip": "ym2612"
    },
    {
      "channel": 4,
      "note": 82,
      "start": 43.5422,
      "duration": 0.1178,
      "velocity": 112,
      "chip": "ym2612"
    },
    {
      "channel": 5,
      "note": 58,
      "start": 43.6271,
      "duration": 0.1511,
      "velocity": 110,
      "chip": "ym2612"
    },
    {
      "channel": 0,
      "note": 50,
      "start": 43.6858,
      "duration": 0.1511,
      "velocity": 110,
      "chip": "ym2612"
    },
    {
      "channel": 1,
      "note": 57,
      "start": 43.6866,
      "duration": 0.1512,
      "velocity": 110,
      "chip": "ym2612"
    },
    {
      "channel": 2,
      "note": 65,
      "start": 43.6873,
      "duration": 0.0837,
      "velocity": 112,
      "chip": "ym2612"
    },
    {
      "channel": 3,
      "note": 53,
      "start": 43.688,
      "duration": 0.0498,
      "velocity": 120,
      "chip": "ym2612"
    },
    {
      "channel": 4,
      "note": 69,
      "start": 43.6939,
      "duration": 0.1178,
      "velocity": 108,
      "chip": "ym2612"
    },
    {
      "channel": 5,
      "note": 50,
      "start": 43.7787,
      "duration": 0.1512,
      "velocity": 110,
      "chip": "ym2612"
    },
    {
      "channel": 0,
      "note": 52,
      "start": 43.8375,
      "duration": 0.1511,
      "velocity": 109,
      "chip": "ym2612"
    },
    {
      "channel": 1,
      "note": 59,
      "start": 43.8383,
      "duration": 0.1511,
      "velocity": 109,
      "chip": "ym2612"
    },
    {
      "channel": 2,
      "note": 65,
      "start": 43.839,
      "duration": 0.0837,
      "velocity": 112,
      "chip": "ym2612"
    },
    {
      "channel": 3,
      "note": 65,
      "start": 43.8398,
      "duration": 0.0497,
      "velocity": 120,
      "chip": "ym2612"
    },
    {
      "channel": 4,
      "note": 81,
      "start": 43.8455,
      "duration": 0.1178,
      "velocity": 108,
      "chip": "ym2612"
    },
    {
      "channel": 5,
      "note": 52,
      "start": 43.9305,
      "duration": 0.1511,
      "velocity": 109,
      "chip": "ym2612"
    },
    {
      "channel": 0,
      "note": 53,
      "start": 43.9891,
      "duration": 0.1512,
      "velocity": 108,
      "chip": "ym2612"
    },
    {
      "channel": 1,
      "note": 60,
      "start": 43.9899,
      "duration": 0.1511,
      "velocity": 108,
      "chip": "ym2612"
    },
    {
      "channel": 2,
      "note": 65,
      "start": 43.9907,
      "duration": 0.0837,
      "velocity": 112,
      "chip": "ym2612"
    },
    {
      "channel": 3,
      "note": 53,
      "start": 43.9915,
      "duration": 0.0498,
      "velocity": 120,
      "chip": "ym2612"
    },
    {
      "channel": 4,
      "note": 81,
      "start": 43.9973,
      "duration": 0.1177,
      "velocity": 112,
      "chip": "ym2612"
    },
    {
      "channel": 5,
      "note": 53,
      "start": 44.0821,
      "duration": 0.1511,
      "velocity": 108,
      "chip": "ym2612"
    },
    {
      "channel": 0,
      "note": 57,
      "start": 44.1409,
      "duration": 0.151,
      "velocity": 107,
      "chip": "ym2612"
    },
    {
      "channel": 1,
      "note": 64,
      "start": 44.1417,
      "duration": 0.1511,
      "velocity": 107,
      "chip": "ym2612"
    },
    {
      "channel": 2,
      "note": 65,
      "start": 44.1424,
      "duration": 0.0836,
      "velocity": 112,
      "chip": "ym2612"
    },
    {
      "channel": 3,
      "note": 53,
      "start": 44.1431,
      "duration": 0.0498,
      "velocity": 120,
      "chip": "ym2612"
    },
    {
      "channel": 4,
      "note": 69,
      "start": 44.1489,
      "duration": 0.1178,
      "velocity": 109,
      "chip": "ym2612"
    },
    {
      "channel": 5,
      "note": 57,
      "start": 44.2338,
      "duration": 0.1511,
      "velocity": 107,
      "chip": "ym2612"
    },
    {
      "channel": 0,
      "note": 50,
      "start": 44.2925,
      "duration": 0.1512,
      "velocity": 106,
      "chip": "ym2612"
    },
    {
      "channel": 1,
      "note": 57,
      "start": 44.2933,
      "duration": 0.1511,
      "velocity": 106,
      "chip": "ym2612"
    },
    {
      "channel": 2,
      "note": 65,
      "start": 44.294,
      "duration": 0.0837,
      "velocity": 112,
      "chip": "ym2612"
    },
    {
      "channel": 3,
      "note": 65,
      "start": 44.2948,
      "duration": 0.0498,
      "velocity": 120,
      "chip": "ym2612"
    },
    {
      "channel": 4,
      "note": 81,
      "start": 44.3006,
      "duration": 0.1178,
      "velocity": 108,
      "chip": "ym2612"
    },
    {
      "channel": 5,
      "note": 50,
      "start": 44.3855,
      "duration": 0.1511,
      "velocity": 106,
      "chip": "ym2612"
    },
    {
      "channel": 0,
      "note": 52,
      "start": 44.4442,
      "duration": 0.1511,
      "velocity": 105,
      "chip": "ym2612"
    },
    {
      "channel": 1,
      "note": 59,
      "start": 44.445,
      "duration": 0.1511,
      "velocity": 105,
      "chip": "ym2612"
    },
    {
      "channel": 2,
      "note": 65,
      "start": 44.4457,
      "duration": 0.0836,
      "velocity": 112,
      "chip": "ym2612"
    },
    {
      "channel": 3,
      "note": 53,
      "start": 44.4465,
      "duration": 0.0497,
      "velocity": 120,
      "chip": "ym2612"
    },
    {
      "channel": 4,
      "note": 69,
      "start": 44.4523,
      "duration": 0.1178,
      "velocity": 110,
      "chip": "ym2612"
    },
    {
      "channel": 5,
      "note": 52,
      "start": 44.5371,
      "duration": 0.1511,
      "velocity": 105,
      "chip": "ym2612"
    },
    {
      "channel": 0,
      "note": 53,
      "start": 44.5959,
      "duration": 0.1511,
      "velocity": 104,
      "chip": "ym2612"
    },
    {
      "channel": 1,
      "note": 60,
      "start": 44.5967,
      "duration": 0.1511,
      "velocity": 104,
      "chip": "ym2612"
    },
    {
      "channel": 2,
      "note": 65,
      "start": 44.5974,
      "duration": 0.0837,
      "velocity": 112,
      "chip": "ym2612"
    },
    {
      "channel": 3,
      "note": 53,
      "start": 44.5981,
      "duration": 0.0498,
      "velocity": 120,
      "chip": "ym2612"
    },
    {
      "channel": 4,
      "note": 69,
      "start": 44.604,
      "duration": 0.1178,
      "velocity": 109,
      "chip": "ym2612"
    },
    {
      "channel": 5,
      "note": 53,
      "start": 44.6888,
      "duration": 0.1511,
      "velocity": 104,
      "chip": "ym2612"
    },
    {
      "channel": 0,
      "note": 57,
      "start": 44.7476,
      "duration": 0.1511,
      "velocity": 103,
      "chip": "ym2612"
    },
    {
      "channel": 1,
      "note": 64,
      "start": 44.7483,
      "duration": 0.1512,
      "velocity": 103,
      "chip": "ym2612"
    },
    {
      "channel": 2,
      "note": 65,
      "start": 44.749,
      "duration": 0.0837,
      "velocity": 112,
      "chip": "ym2612"
    },
    {
      "channel": 3,
      "note": 65,
      "start": 44.7498,
      "duration": 0.0498,
      "velocity": 120,
      "chip": "ym2612"
    },
    {
      "channel": 4,
      "note": 81,
      "start": 44.7556,
      "duration": 0.1178,
      "velocity": 111,
      "chip": "ym2612"
    },
    {
      "channel": 5,
      "note": 57,
      "start": 44.8406,
      "duration": 0.1511,
      "velocity": 103,
      "chip": "ym2612"
    },
    {
      "channel": 0,
      "note": 50,
      "start": 44.8992,
      "duration": 0.1511,
      "velocity": 102,
      "chip": "ym2612"
    },
    {
      "channel": 1,
      "note": 57,
      "start": 44.9,
      "duration": 0.1511,
      "velocity": 102,
      "chip": "ym2612"
    },
    {
      "channel": 2,
      "note": 65,
      "start": 44.9007,
      "duration": 0.0837,
      "velocity": 112,
      "chip": "ym2612"
    },
    {
      "channel": 3,
      "note": 53,
      "start": 44.9015,
      "duration": 0.0497,
      "velocity": 120,
      "chip": "ym2612"
    },
    {
      "channel": 4,
      "note": 81,
      "start": 44.9074,
      "duration": 0.1177,
      "velocity": 112,
      "chip": "ym2612"
    },
    {
      "channel": 5,
      "note": 50,
      "start": 44.9922,
      "duration": 0.1511,
      "velocity": 102,
      "chip": "ym2612"
    },
    {
      "channel": 0,
      "note": 52,
      "start": 45.0509,
      "duration": 0.1512,
      "velocity": 101,
      "chip": "ym2612"
    },
    {
      "channel": 1,
      "note": 59,
      "start": 45.0517,
      "duration": 0.1511,
      "velocity": 101,
      "chip": "ym2612"
    },
    {
      "channel": 2,
      "note": 65,
      "start": 45.0524,
      "duration": 0.0837,
      "velocity": 112,
      "chip": "ym2612"
    },
    {
      "channel": 3,
      "note": 65,
      "start": 45.0532,
      "duration": 0.0498,
      "velocity": 120,
      "chip": "ym2612"
    },
    {
      "channel": 4,
      "note": 69,
      "start": 45.059,
      "duration": 0.1177,
      "velocity": 109,
      "chip": "ym2612"
    },
    {
      "channel": 5,
      "note": 52,
      "start": 45.1439,
      "duration": 0.1511,
      "velocity": 101,
      "chip": "ym2612"
    },
    {
      "channel": 0,
      "note": 53,
      "start": 45.2026,
      "duration": 0.1511,
      "velocity": 100,
      "chip": "ym2612"
    },
    {
      "channel": 1,
      "note": 60,
      "start": 45.2034,
      "duration": 0.1511,
      "velocity": 100,
      "chip": "ym2612"
    },
    {
      "channel": 2,
      "note": 65,
      "start": 45.2041,
      "duration": 0.0836,
      "velocity": 112,
      "chip": "ym2612"
    },
    {
      "channel": 3,
      "note": 53,
      "start": 45.2049,
      "duration": 0.0498,
      "velocity": 120,
      "chip": "ym2612"
    },
    {
      "channel": 4,
      "note": 81,
      "start": 45.2107,
      "duration": 0.1178,
      "velocity": 108,
      "chip": "ym2612"
    },
    {
      "channel": 5,
      "note": 53,
      "start": 45.2956,
      "duration": 0.1511,
      "velocity": 100,
      "chip": "ym2612"
    },
    {
      "channel": 0,
      "note": 57,
      "start": 45.3542,
      "duration": 0.1512,
      "velocity": 99,
      "chip": "ym2612"
    },
    {
      "channel": 1,
      "note": 64,
      "start": 45.3551,
      "duration": 0.1511,
      "velocity": 99,
      "chip": "ym2612"
    },
    {
      "channel": 2,
      "note": 65,
      "start": 45.3558,
      "duration": 0.0837,
      "velocity": 112,
      "chip": "ym2612"
    },
    {
      "channel": 3,
      "note": 53,
      "start": 45.3565,
      "duration": 0.0498,
      "velocity": 120,
      "chip": "ym2612"
    },
    {
      "channel": 4,
      "note": 69,
      "start": 45.3624,
      "duration": 0.1178,
      "velocity": 112,
      "chip": "ym2612"
    },
    {
      "channel": 5,
      "note": 57,
      "start": 45.4473,
      "duration": 0.1511,
      "velocity": 99,
      "chip": "ym2612"
    },
    {
      "channel": 0,
      "note": 50,
      "start": 45.506,
      "duration": 0.1511,
      "velocity": 98,
      "chip": "ym2612"
    },
    {
      "channel": 1,
      "note": 57,
      "start": 45.5068,
      "duration": 0.1512,
      "velocity": 98,
      "chip": "ym2612"
    },
    {
      "channel": 2,
      "note": 65,
      "start": 45.5075,
      "duration": 0.0837,
      "velocity": 112,
      "chip": "ym2612"
    },
    {
      "channel": 3,
      "note": 65,
      "start": 45.5083,
      "duration": 0.0498,
      "velocity": 120,
      "chip": "ym2612"
    },
    {
      "channel": 4,
      "note": 69,
      "start": 45.514,
      "duration": 0.1178,
      "velocity": 111,
      "chip": "ym2612"
    },
    {
      "channel": 5,
      "note": 50,
      "start": 45.5989,
      "duration": 0.1512,
      "velocity": 98,
      "chip": "ym2612"
    },
    {
      "channel": 0,
      "note": 52,
      "start": 45.6577,
      "duration": 0.1511,
      "velocity": 97,
      "chip": "ym2612"
    },
    {
      "channel": 1,
      "note": 59,
      "start": 45.6585,
      "duration": 0.151,
      "velocity": 97,
      "chip": "ym2612"
    },
    {
      "channel": 2,
      "note": 65,
      "start": 45.6592,
      "duration": 0.0836,
      "velocity": 112,
      "chip": "ym2612"
    },
    {
      "channel": 3,
      "note": 53,
      "start": 45.66,
      "duration": 0.0497,
      "velocity": 120,
      "chip": "ym2612"
    },
    {
      "channel": 4,
      "note": 81,
      "start": 45.6657,
      "duration": 0.1178,
      "velocity": 109,
      "chip": "ym2612"
    },
    {
      "channel": 5,
      "note": 52,
      "start": 45.7506,
      "duration": 0.1511,
      "velocity": 97,
      "chip": "ym2612"
    },
    {
      "channel": 0,
      "note": 53,
      "start": 45.8093,
      "duration": 0.1511,
      "velocity": 96,
      "chip": "ym2612"
    },
    {
      "channel": 1,
      "note": 60,
      "start": 45.8101,
      "duration": 0.1512,
      "velocity": 96,
      "chip": "ym2612"
    },
    {
      "channel": 2,
      "note": 65,
      "start": 45.8108,
      "duration": 0.0837,
      "velocity": 112,
      "chip": "ym2612"
    },
    {
      "channel": 3,
      "note": 53,
      "start": 45.8116,
      "duration": 0.0498,
      "velocity": 120,
      "chip": "ym2612"
    },
    {
      "channel": 4,
      "note": 69,
      "start": 45.8174,
      "duration": 0.1178,
      "velocity": 111,
      "chip": "ym2612"
    },
    {
      "channel": 5,
      "note": 53,
      "start": 45.9023,
      "duration": 0.1512,
      "velocity": 96,
      "chip": "ym2612"
    },
    {
      "channel": 0,
      "note": 57,
      "start": 45.961,
      "duration": 0.1511,
      "velocity": 95,
      "chip": "ym2612"
    },
    {
      "channel": 1,
      "note": 64,
      "start": 45.9618,
      "duration": 0.1511,
      "velocity": 95,
      "chip": "ym2612"
    },
    {
      "channel": 2,
      "note": 65,
      "start": 45.9625,
      "duration": 0.0837,
      "velocity": 112,
      "chip": "ym2612"
    },
    {
      "channel": 3,
      "note": 65,
      "start": 45.9633,
      "duration": 0.0497,
      "velocity": 120,
      "chip": "ym2612"
    },
    {
      "channel": 4,
      "note": 69,
      "start": 45.9691,
      "duration": 0.1178,
      "velocity": 112,
      "chip": "ym2612"
    },
    {
      "channel": 5,
      "note": 57,
      "start": 46.054,
      "duration": 0.1511,
      "velocity": 95,
      "chip": "ym2612"
    },
    {
      "channel": 0,
      "note": 50,
      "start": 46.1126,
      "duration": 0.1512,
      "velocity": 96,
      "chip": "ym2612"
    },
    {
      "channel": 1,
      "note": 57,
      "start": 46.1135,
      "duration": 0.1511,
      "velocity": 96,
      "chip": "ym2612"
    },
    {
      "channel": 2,
      "note": 65,
      "start": 46.1142,
      "duration": 0.0837,
      "velocity": 112,
      "chip": "ym2612"
    },
    {
      "channel": 3,
      "note": 53,
      "start": 46.1149,
      "duration": 0.0498,
      "velocity": 120,
      "chip": "ym2612"
    },
    {
      "channel": 4,
      "note": 69,
      "start": 46.1208,
      "duration": 0.1177,
      "velocity": 108,
      "chip": "ym2612"
    },
    {
      "channel": 5,
      "note": 50,
      "start": 46.2056,
      "duration": 0.1511,
      "velocity": 96,
      "chip": "ym2612"
    },
    {
      "channel": 0,
      "note": 52,
      "start": 46.2644,
      "duration": 0.1511,
      "velocity": 97,
      "chip": "ym2612"
    },
    {
      "channel": 1,
      "note": 59,
      "start": 46.2652,
      "duration": 0.1511,
      "velocity": 97,
      "chip": "ym2612"
    },
    {
      "channel": 2,
      "note": 65,
      "start": 46.2659,
      "duration": 0.0836,
      "velocity": 112,
      "chip": "ym2612"
    },
    {
      "channel": 3,
      "note": 65,
      "start": 46.2666,
      "duration": 0.0498,
      "velocity": 120,
      "chip": "ym2612"
    },
    {
      "channel": 4,
      "note": 81,
      "start": 46.2724,
      "duration": 0.1178,
      "velocity": 109,
      "chip": "ym2612"
    },
    {
      "channel": 5,
      "note": 52,
      "start": 46.3574,
      "duration": 0.1511,
      "velocity": 97,
      "chip": "ym2612"
    },
    {
      "channel": 0,
      "note": 53,
      "start": 46.416,
      "duration": 0.1512,
      "velocity": 98,
      "chip": "ym2612"
    },
    {
      "channel": 1,
      "note": 60,
      "start": 46.4168,
      "duration": 0.1511,
      "velocity": 98,
      "chip": "ym2612"
    },
    {
      "channel": 2,
      "note": 65,
      "start": 46.4175,
      "duration": 0.0837,
      "velocity": 112,
      "chip": "ym2612"
    },
    {
      "channel": 3,
      "note": 53,
      "start": 46.4183,
      "duration": 0.0498,
      "velocity": 120,
      "chip": "ym2612"
    },
    {
      "channel": 4,
      "note": 81,
      "start": 46.4241,
      "duration": 0.1178,
      "velocity": 110,
      "chip": "ym2612"
    },
    {
      "channel": 5,
      "note": 53,
      "start": 46.509,
      "duration": 0.1511,
      "velocity": 98,
      "chip": "ym2612"
    },
    {
      "channel": 0,
      "note": 57,
      "start": 46.5677,
      "duration": 0.1511,
      "velocity": 99,
      "chip": "ym2612"
    },
    {
      "channel": 1,
      "note": 64,
      "start": 46.5685,
      "duration": 0.1511,
      "velocity": 99,
      "chip": "ym2612"
    },
    {
      "channel": 2,
      "note": 65,
      "start": 46.5693,
      "duration": 0.0836,
      "velocity": 112,
      "chip": "ym2612"
    },
    {
      "channel": 3,
      "note": 53,
      "start": 46.57,
      "duration": 0.0497,
      "velocity": 120,
      "chip": "ym2612"
    },
    {
      "channel": 4,
      "note": 69,
      "start": 46.5758,
      "duration": 0.1178,
      "velocity": 111,
      "chip": "ym2612"
    },
    {
      "channel": 5,
      "note": 57,
      "start": 46.6607,
      "duration": 0.1512,
      "velocity": 99,
      "chip": "ym2612"
    },
    {
      "channel": 0,
      "note": 50,
      "start": 46.7194,
      "duration": 0.1511,
      "velocity": 100,
      "chip": "ym2612"
    },
    {
      "channel": 1,
      "note": 57,
      "start": 46.7202,
      "duration": 0.1511,
      "velocity": 100,
      "chip": "ym2612"
    },
    {
      "channel": 2,
      "note": 65,
      "start": 46.7209,
      "duration": 0.0837,
      "velocity": 112,
      "chip": "ym2612"
    },
    {
      "channel": 3,
      "note": 65,
      "start": 46.7217,
      "duration": 0.0498,
      "velocity": 120,
      "chip": "ym2612"
    },
    {
      "channel": 4,
      "note": 81,
      "start": 46.7275,
      "duration": 0.1178,
      "velocity": 108,
      "chip": "ym2612"
    },
    {
      "channel": 5,
      "note": 50,
      "start": 46.8124,
      "duration": 0.1511,
      "velocity": 100,
      "chip": "ym2612"
    },
    {
      "channel": 0,
      "note": 52,
      "start": 46.8711,
      "duration": 0.1511,
      "velocity": 101,
      "chip": "ym2612"
    },
    {
      "channel": 1,
      "note": 59,
      "start": 46.8719,
      "duration": 0.1512,
      "velocity": 101,
      "chip": "ym2612"
    },
    {
      "channel": 2,
      "note": 65,
      "start": 46.8726,
      "duration": 0.0837,
      "velocity": 112,
      "chip": "ym2612"
    },
    {
      "channel": 3,
      "note": 53,
      "start": 46.8733,
      "duration": 0.0498,
      "velocity": 120,
      "chip": "ym2612"
    },
    {
      "channel": 4,
      "note": 69,
      "start": 46.8792,
      "duration": 0.1178,
      "velocity": 109,
      "chip": "ym2612"
    },
    {
      "channel": 5,
      "note": 52,
      "start": 46.964,
      "duration": 0.1512,
      "velocity": 101,
      "chip": "ym2612"
    },
    {
      "channel": 0,
      "note": 53,
      "start": 47.0228,
      "duration": 0.1511,
      "velocity": 102,
      "chip": "ym2612"
    },
    {
      "channel": 1,
      "note": 60,
      "start": 47.0237,
      "duration": 0.1511,
      "velocity": 102,
      "chip": "ym2612"
    },
    {
      "channel": 2,
      "note": 65,
      "start": 47.0244,
      "duration": 0.0836,
      "velocity": 112,
      "chip": "ym2612"
    },
    {
      "channel": 3,
      "note": 53,
      "start": 47.0251,
      "duration": 0.0497,
      "velocity": 120,
      "chip": "ym2612"
    },
    {
      "channel": 4,
      "note": 69,
      "start": 47.0308,
      "duration": 0.1178,
      "velocity": 112,
      "chip": "ym2612"
    },
    {
      "channel": 5,
      "note": 53,
      "start": 47.1158,
      "duration": 0.1511,
      "velocity": 102,
      "chip": "ym2612"
    },
    {
      "channel": 0,
      "note": 57,
      "start": 47.1745,
      "duration": 0.1511,
      "velocity": 103,
      "chip": "ym2612"
    },
    {
      "channel": 1,
      "note": 64,
      "start": 47.1753,
      "duration": 0.1511,
      "velocity": 103,
      "chip": "ym2612"
    },
    {
      "channel": 2,
      "note": 65,
      "start": 47.176,
      "duration": 0.0836,
      "velocity": 112,
      "chip": "ym2612"
    },
    {
      "channel": 3,
      "note": 65,
      "start": 47.1768,
      "duration": 0.0497,
      "velocity": 120,
      "chip": "ym2612"
    },
    {
      "channel": 4,
      "note": 81,
      "start": 47.1826,
      "duration": 0.1177,
      "velocity": 110,
      "chip": "ym2612"
    },
    {
      "channel": 5,
      "note": 57,
      "start": 47.2674,
      "duration": 0.1511,
      "velocity": 103,
      "chip": "ym2612"
    },
    {
      "channel": 0,
      "note": 50,
      "start": 47.3261,
      "duration": 0.1511,
      "velocity": 104,
      "chip": "ym2612"
    },
    {
      "channel": 1,
      "note": 57,
      "start": 47.327,
      "duration": 0.1511,
      "velocity": 104,
      "chip": "ym2612"
    },
    {
      "channel": 2,
      "note": 65,
      "start": 47.3277,
      "duration": 0.0836,
      "velocity": 112,
      "chip": "ym2612"
    },
    {
      "channel": 3,
      "note": 53,
      "start": 47.3284,
      "duration": 0.0498,
      "velocity": 120,
      "chip": "ym2612"
    },
    {
      "channel": 4,
      "note": 81,
      "start": 47.3342,
      "duration": 0.1178,
      "velocity": 111,
      "chip": "ym2612"
    },
    {
      "channel": 5,
      "note": 50,
      "start": 47.4191,
      "duration": 0.1511,
      "velocity": 104,
      "chip": "ym2612"
    },
    {
      "channel": 0,
      "note": 52,
      "start": 47.4778,
      "duration": 0.1512,
      "velocity": 105,
      "chip": "ym2612"
    },
    {
      "channel": 1,
      "note": 59,
      "start": 47.4786,
      "duration": 0.1511,
      "velocity": 105,
      "chip": "ym2612"
    },
    {
      "channel": 2,
      "note": 65,
      "start": 47.4793,
      "duration": 0.0837,
      "velocity": 112,
      "chip": "ym2612"
    },
    {
      "channel": 3,
      "note": 65,
      "start": 47.4801,
      "duration": 0.0498,
      "velocity": 120,
      "chip": "ym2612"
    },
    {
      "channel": 4,
      "note": 69,
      "start": 47.4859,
      "duration": 0.1178,
      "velocity": 108,
      "chip": "ym2612"
    },
    {
      "channel": 5,
      "note": 52,
      "start": 47.5708,
      "duration": 0.1511,
      "velocity": 105,
      "chip": "ym2612"
    },
    {
      "channel": 0,
      "note": 53,
      "start": 47.6295,
      "duration": 0.1511,
      "velocity": 106,
      "chip": "ym2612"
    },
    {
      "channel": 1,
      "note": 60,
      "start": 47.6303,
      "duration": 0.1511,
      "velocity": 106,
      "chip": "ym2612"
    },
    {
      "channel": 2,
      "note": 65,
      "start": 47.631,
      "duration": 0.0836,
      "velocity": 112,
      "chip": "ym2612"
    },
    {
      "channel": 3,
      "note": 53,
      "start": 47.6318,
      "duration": 0.0497,
      "velocity": 120,
      "chip": "ym2612"
    },
    {
      "channel": 4,
      "note": 81,
      "start": 47.6376,
      "duration": 0.1178,
      "velocity": 109,
      "chip": "ym2612"
    },
    {
      "channel": 5,
      "note": 53,
      "start": 47.7224,
      "duration": 0.1512,
      "velocity": 106,
      "chip": "ym2612"
    },
    {
      "channel": 0,
      "note": 57,
      "start": 47.7812,
      "duration": 0.1511,
      "velocity": 107,
      "chip": "ym2612"
    },
    {
      "channel": 1,
      "note": 64,
      "start": 47.782,
      "duration": 0.1511,
      "velocity": 107,
      "chip": "ym2612"
    },
    {
      "channel": 2,
      "note": 65,
      "start": 47.7827,
      "duration": 0.0837,
      "velocity": 112,
      "chip": "ym2612"
    },
    {
      "channel": 3,
      "note": 53,
      "start": 47.7834,
      "duration": 0.0498,
      "velocity": 120,
      "chip": "ym2612"
    },
    {
      "channel": 4,
      "note": 69,
      "start": 47.7892,
      "duration": 0.1179,
      "velocity": 112,
      "chip": "ym2612"
    },
    {
      "channel": 5,
      "note": 57,
      "start": 47.8742,
      "duration": 0.151,
      "velocity": 107,
      "chip": "ym2612"
    },
    {
      "channel": 0,
      "note": 50,
      "start": 47.9329,
      "duration": 0.1511,
      "velocity": 108,
      "chip": "ym2612"
    },
    {
      "channel": 1,
      "note": 57,
      "start": 47.9336,
      "duration": 0.1512,
      "velocity": 108,
      "chip": "ym2612"
    },
    {
      "channel": 2,
      "note": 65,
      "start": 47.9343,
      "duration": 0.0837,
      "velocity": 112,
      "chip": "ym2612"
    },
    {
      "channel": 3,
      "note": 65,
      "start": 47.9351,
      "duration": 0.0498,
      "velocity": 120,
      "chip": "ym2612"
    },
    {
      "channel": 4,
      "note": 81,
      "start": 47.941,
      "duration": 0.1178,
      "velocity": 110,
      "chip": "ym2612"
    },
    {
      "channel": 5,
      "note": 50,
      "start": 48.0258,
      "duration": 0.1512,
      "velocity": 108,
      "chip": "ym2612"
    },
    {
      "channel": 0,
      "note": 52,
      "start": 48.0845,
      "duration": 0.1511,
      "velocity": 109,
      "chip": "ym2612"
    },
    {
      "channel": 1,
      "note": 59,
      "start": 48.0854,
      "duration": 0.1511,
      "velocity": 109,
      "chip": "ym2612"
    },
    {
      "channel": 2,
      "note": 65,
      "start": 48.0861,
      "duration": 0.0837,
      "velocity": 112,
      "chip": "ym2612"
    },
    {
      "channel": 3,
      "note": 53,
      "start": 48.0868,
      "duration": 0.0498,
      "velocity": 120,
      "chip": "ym2612"
    },
    {
      "channel": 4,
      "note": 69,
      "start": 48.0926,
      "duration": 0.1178,
      "velocity": 108,
      "chip": "ym2612"
    },
    {
      "channel": 5,
      "note": 52,
      "start": 48.1775,
      "duration": 0.1511,
      "velocity": 109,
      "chip": "ym2612"
    },
    {
      "channel": 0,
      "note": 53,
      "start": 48.2362,
      "duration": 0.1512,
      "velocity": 110,
      "chip": "ym2612"
    },
    {
      "channel": 1,
      "note": 60,
      "start": 48.237,
      "duration": 0.1511,
      "velocity": 110,
      "chip": "ym2612"
    },
    {
      "channel": 2,
      "note": 65,
      "start": 48.2377,
      "duration": 0.0837,
      "velocity": 112,
      "chip": "ym2612"
    },
    {
      "channel": 3,
      "note": 65,
      "start": 48.2385,
      "duration": 0.0498,
      "velocity": 120,
      "chip": "ym2612"
    },
    {
      "channel": 4,
      "note": 69,
      "start": 48.2443,
      "duration": 0.1177,
      "velocity": 109,
      "chip": "ym2612"
    },
    {
      "channel": 5,
      "note": 53,
      "start": 48.3292,
      "duration": 0.1511,
      "velocity": 110,
      "chip": "ym2612"
    },
    {
      "channel": 0,
      "note": 57,
      "start": 48.3879,
      "duration": 0.1511,
      "velocity": 110,
      "chip": "ym2612"
    },
    {
      "channel": 1,
      "note": 64,
      "start": 48.3887,
      "duration": 0.1511,
      "velocity": 110,
      "chip": "ym2612"
    },
    {
      "channel": 2,
      "note": 65,
      "start": 48.3894,
      "duration": 0.0836,
      "velocity": 112,
      "chip": "ym2612"
    },
    {
      "channel": 3,
      "note": 65,
      "start": 48.3902,
      "duration": 0.0497,
      "velocity": 120,
      "chip": "ym2612"
    },
    {
      "channel": 4,
      "note": 81,
      "start": 48.396,
      "duration": 0.1178,
      "velocity": 112,
      "chip": "ym2612"
    },
    {
      "channel": 5,
      "note": 57,
      "start": 48.4809,
      "duration": 0.1511,
      "velocity": 110,
      "chip": "ym2612"
    },
    {
      "channel": 0,
      "note": 49,
      "start": 48.5395,
      "duration": 0.1512,
      "velocity": 110,
      "chip": "ym2612"
    },
    {
      "channel": 1,
      "note": 56,
      "start": 48.5404,
      "duration": 0.1511,
      "velocity": 110,
      "chip": "ym2612"
    },
    {
      "channel": 2,
      "note": 65,
      "start": 48.5411,
      "duration": 0.0837,
      "velocity": 112,
      "chip": "ym2612"
    },
    {
      "channel": 3,
      "note": 52,
      "start": 48.5419,
      "duration": 0.0498,
      "velocity": 120,
      "chip": "ym2612"
    },
    {
      "channel": 4,
      "note": 68,
      "start": 48.5477,
      "duration": 0.1178,
      "velocity": 108,
      "chip": "ym2612"
    },
    {
      "channel": 5,
      "note": 49,
      "start": 48.6326,
      "duration": 0.1511,
      "velocity": 110,
      "chip": "ym2612"
    },
    {
      "channel": 0,
      "note": 51,
      "start": 48.6913,
      "duration": 0.1511,
      "velocity": 109,
      "chip": "ym2612"
    },
    {
      "channel": 1,
      "note": 58,
      "start": 48.6921,
      "duration": 0.1511,
      "velocity": 109,
      "chip": "ym2612"
    },
    {
      "channel": 2,
      "note": 65,
      "start": 48.6928,
      "duration": 0.0836,
      "velocity": 112,
      "chip": "ym2612"
    },
    {
      "channel": 3,
      "note": 64,
      "start": 48.6936,
      "duration": 0.0497,
      "velocity": 120,
      "chip": "ym2612"
    },
    {
      "channel": 4,
      "note": 80,
      "start": 48.6993,
      "duration": 0.1178,
      "velocity": 108,
      "chip": "ym2612"
    },
    {
      "channel": 5,
      "note": 51,
      "start": 48.7842,
      "duration": 0.1512,
      "velocity": 109,
      "chip": "ym2612"
    },
    {
      "channel": 0,
      "note": 52,
      "start": 48.8429,
      "duration": 0.1511,
      "velocity": 108,
      "chip": "ym2612"
    },
    {
      "channel": 1,
      "note": 59,
      "start": 48.8437,
      "duration": 0.1511,
      "velocity": 108,
      "chip": "ym2612"
    },
    {
      "channel": 2,
      "note": 65,
      "start": 48.8444,
      "duration": 0.0837,
      "velocity": 112,
      "chip": "ym2612"
    },
    {
      "channel": 3,
      "note": 52,
      "start": 48.8452,
      "duration": 0.0498,
      "velocity": 120,
      "chip": "ym2612"
    },
    {
      "channel": 4,
      "note": 80,
      "start": 48.851,
      "duration": 0.1178,
      "velocity": 112,
      "chip": "ym2612"
    },
    {
      "channel": 5,
      "note": 52,
      "start": 48.9359,
      "duration": 0.1511,
      "velocity": 108,
      "chip": "ym2612"
    },
    {
      "channel": 0,
      "note": 56,
      "start": 48.9946,
      "duration": 0.1511,
      "velocity": 107,
      "chip": "ym2612"
    },
    {
      "channel": 1,
      "note": 63,
      "start": 48.9954,
      "duration": 0.1512,
      "velocity": 107,
      "chip": "ym2612"
    },
    {
      "channel": 2,
      "note": 65,
      "start": 48.9961,
      "duration": 0.0837,
      "velocity": 112,
      "chip": "ym2612"
    },
    {
      "channel": 3,
      "note": 52,
      "start": 48.9969,
      "duration": 0.0498,
      "velocity": 120,
      "chip": "ym2612"
    },
    {
      "channel": 4,
      "note": 68,
      "start": 49.0027,
      "duration": 0.1178,
      "velocity": 109,
      "chip": "ym2612"
    },
    {
      "channel": 5,
      "note": 56,
      "start": 49.0876,
      "duration": 0.1512,
      "velocity": 107,
      "chip": "ym2612"
    },
    {
      "channel": 0,
      "note": 49,
      "start": 49.1463,
      "duration": 0.1511,
      "velocity": 106,
      "chip": "ym2612"
    },
    {
      "channel": 1,
      "note": 56,
      "start": 49.1471,
      "duration": 0.1511,
      "velocity": 106,
      "chip": "ym2612"
    },
    {
      "channel": 2,
      "note": 65,
      "start": 49.1478,
      "duration": 0.0837,
      "velocity": 112,
      "chip": "ym2612"
    },
    {
      "channel": 3,
      "note": 64,
      "start": 49.1486,
      "duration": 0.0498,
      "velocity": 120,
      "chip": "ym2612"
    },
    {
      "channel": 4,
      "note": 80,
      "start": 49.1544,
      "duration": 0.1178,
      "velocity": 108,
      "chip": "ym2612"
    },
    {
      "channel": 5,
      "note": 49,
      "start": 49.2393,
      "duration": 0.1511,
      "velocity": 106,
      "chip": "ym2612"
    },
    {
      "channel": 0,
      "note": 51,
      "start": 49.2979,
      "duration": 0.1512,
      "velocity": 105,
      "chip": "ym2612"
    },
    {
      "channel": 1,
      "note": 58,
      "start": 49.2988,
      "duration": 0.1511,
      "velocity": 105,
      "chip": "ym2612"
    },
    {
      "channel": 2,
      "note": 65,
      "start": 49.2995,
      "duration": 0.0837,
      "velocity": 112,
      "chip": "ym2612"
    },
    {
      "channel": 3,
      "note": 52,
      "start": 49.3002,
      "duration": 0.0498,
      "velocity": 120,
      "chip": "ym2612"
    },
    {
      "channel": 4,
      "note": 68,
      "start": 49.3061,
      "duration": 0.1178,
      "velocity": 110,
      "chip": "ym2612"
    },
    {
      "channel": 5,
      "note": 51,
      "start": 49.391,
      "duration": 0.1511,
      "velocity": 105,
      "chip": "ym2612"
    },
    {
      "channel": 0,
      "note": 52,
      "start": 49.4497,
      "duration": 0.1511,
      "velocity": 104,
      "chip": "ym2612"
    },
    {
      "channel": 1,
      "note": 59,
      "start": 49.4505,
      "duration": 0.1511,
      "velocity": 104,
      "chip": "ym2612"
    },
    {
      "channel": 2,
      "note": 65,
      "start": 49.4512,
      "duration": 0.0836,
      "velocity": 112,
      "chip": "ym2612"
    },
    {
      "channel": 3,
      "note": 52,
      "start": 49.452,
      "duration": 0.0497,
      "velocity": 120,
      "chip": "ym2612"
    },
    {
      "channel": 4,
      "note": 68,
      "start": 49.4577,
      "duration": 0.1178,
      "velocity": 109,
      "chip": "ym2612"
    },
    {
      "channel": 5,
      "note": 52,
      "start": 49.5427,
      "duration": 0.1511,
      "velocity": 104,
      "chip": "ym2612"
    },
    {
      "channel": 0,
      "note": 56,
      "start": 49.6013,
      "duration": 0.1512,
      "velocity": 103,
      "chip": "ym2612"
    },
    {
      "channel": 1,
      "note": 63,
      "start": 49.6022,
      "duration": 0.1511,
      "velocity": 103,
      "chip": "ym2612"
    },
    {
      "channel": 2,
      "note": 65,
      "start": 49.6028,
      "duration": 0.0837,
      "velocity": 112,
      "chip": "ym2612"
    },
    {
      "channel": 3,
      "note": 64,
      "start": 49.6036,
      "duration": 0.0498,
      "velocity": 120,
      "chip": "ym2612"
    },
    {
      "channel": 4,
      "note": 80,
      "start": 49.6095,
      "duration": 0.1178,
      "velocity": 111,
      "chip": "ym2612"
    },
    {
      "channel": 5,
      "note": 56,
      "start": 49.6943,
      "duration": 0.1511,
      "velocity": 103,
      "chip": "ym2612"
    },
    {
      "channel": 0,
      "note": 49,
      "start": 49.753,
      "duration": 0.1511,
      "velocity": 102,
      "chip": "ym2612"
    },
    {
      "channel": 1,
      "note": 56,
      "start": 49.7539,
      "duration": 0.1511,
      "velocity": 102,
      "chip": "ym2612"
    },
    {
      "channel": 2,
      "note": 65,
      "start": 49.7546,
      "duration": 0.0836,
      "velocity": 112,
      "chip": "ym2612"
    },
    {
      "channel": 3,
      "note": 52,
      "start": 49.7553,
      "duration": 0.0497,
      "velocity": 120,
      "chip": "ym2612"
    },
    {
      "channel": 4,
      "note": 80,
      "start": 49.7611,
      "duration": 0.1178,
      "velocity": 112,
      "chip": "ym2612"
    },
    {
      "channel": 5,
      "note": 49,
      "start": 49.846,
      "duration": 0.1512,
      "velocity": 102,
      "chip": "ym2612"
    },
    {
      "channel": 0,
      "note": 51,
      "start": 49.9047,
      "duration": 0.1511,
      "velocity": 101,
      "chip": "ym2612"
    },
    {
      "channel": 1,
      "note": 58,
      "start": 49.9055,
      "duration": 0.1511,
      "velocity": 101,
      "chip": "ym2612"
    },
    {
      "channel": 2,
      "note": 65,
      "start": 49.9062,
      "duration": 0.0837,
      "velocity": 112,
      "chip": "ym2612"
    },
    {
      "channel": 3,
      "note": 64,
      "start": 49.9071,
      "duration": 0.0497,
      "velocity": 120,
      "chip": "ym2612"
    },
    {
      "channel": 4,
      "note": 68,
      "start": 49.9128,
      "duration": 0.1178,
      "velocity": 109,
      "chip": "ym2612"
    },
    {
      "channel": 5,
      "note": 51,
      "start": 49.9977,
      "duration": 0.1511,
      "velocity": 101,
      "chip": "ym2612"
    },
    {
      "channel": 0,
      "note": 52,
      "start": 50.0564,
      "duration": 0.1511,
      "velocity": 100,
      "chip": "ym2612"
    },
    {
      "channel": 1,
      "note": 59,
      "start": 50.0572,
      "duration": 0.1511,
      "velocity": 100,
      "chip": "ym2612"
    },
    {
      "channel": 2,
      "note": 65,
      "start": 50.0579,
      "duration": 0.0837,
      "velocity": 112,
      "chip": "ym2612"
    },
    {
      "channel": 3,
      "note": 52,
      "start": 50.0587,
      "duration": 0.0497,
      "velocity": 120,
      "chip": "ym2612"
    },
    {
      "channel": 4,
      "note": 80,
      "start": 50.0645,
      "duration": 0.1177,
      "velocity": 108,
      "chip": "ym2612"
    },
    {
      "channel": 5,
      "note": 52,
      "start": 50.1493,
      "duration": 0.1512,
      "velocity": 100,
      "chip": "ym2612"
    },
    {
      "channel": 0,
      "note": 56,
      "start": 50.208,
      "duration": 0.1511,
      "velocity": 99,
      "chip": "ym2612"
    },
    {
      "channel": 1,
      "note": 63,
      "start": 50.2089,
      "duration": 0.1511,
      "velocity": 99,
      "chip": "ym2612"
    },
    {
      "channel": 2,
      "note": 65,
      "start": 50.2096,
      "duration": 0.0837,
      "velocity": 112,
      "chip": "ym2612"
    },
    {
      "channel": 3,
      "note": 52,
      "start": 50.2103,
      "duration": 0.0498,
      "velocity": 120,
      "chip": "ym2612"
    },
    {
      "channel": 4,
      "note": 68,
      "start": 50.2161,
      "duration": 0.1178,
      "velocity": 112,
      "chip": "ym2612"
    },
    {
      "channel": 5,
      "note": 56,
      "start": 50.3011,
      "duration": 0.1511,
      "velocity": 99,
      "chip": "ym2612"
    },
    {
      "channel": 0,
      "note": 49,
      "start": 50.3597,
      "duration": 0.1512,
      "velocity": 98,
      "chip": "ym2612"
    },
    {
      "channel": 1,
      "note": 56,
      "start": 50.3605,
      "duration": 0.1511,
      "velocity": 98,
      "chip": "ym2612"
    },
    {
      "channel": 2,
      "note": 65,
      "start": 50.3612,
      "duration": 0.0837,
      "velocity": 112,
      "chip": "ym2612"
    },
    {
      "channel": 3,
      "note": 64,
      "start": 50.362,
      "duration": 0.0498,
      "velocity": 120,
      "chip": "ym2612"
    },
    {
      "channel": 4,
      "note": 68,
      "start": 50.3678,
      "duration": 0.1178,
      "velocity": 111,
      "chip": "ym2612"
    },
    {
      "channel": 5,
      "note": 49,
      "start": 50.4527,
      "duration": 0.1511,
      "velocity": 98,
      "chip": "ym2612"
    },
    {
      "channel": 0,
      "note": 51,
      "start": 50.5114,
      "duration": 0.1511,
      "velocity": 97,
      "chip": "ym2612"
    },
    {
      "channel": 1,
      "note": 58,
      "start": 50.5123,
      "duration": 0.1511,
      "velocity": 97,
      "chip": "ym2612"
    },
    {
      "channel": 2,
      "note": 65,
      "start": 50.5129,
      "duration": 0.0836,
      "velocity": 112,
      "chip": "ym2612"
    },
    {
      "channel": 3,
      "note": 52,
      "start": 50.5137,
      "duration": 0.0497,
      "velocity": 120,
      "chip": "ym2612"
    },
    {
      "channel": 4,
      "note": 80,
      "start": 50.5195,
      "duration": 0.1178,
      "velocity": 109,
      "chip": "ym2612"
    },
    {
      "channel": 5,
      "note": 51,
      "start": 50.6044,
      "duration": 0.1511,
      "velocity": 97,
      "chip": "ym2612"
    },
    {
      "channel": 0,
      "note": 52,
      "start": 50.6631,
      "duration": 0.1512,
      "velocity": 96,
      "chip": "ym2612"
    },
    {
      "channel": 1,
      "note": 59,
      "start": 50.6639,
      "duration": 0.1511,
      "velocity": 96,
      "chip": "ym2612"
    },
    {
      "channel": 2,
      "note": 65,
      "start": 50.6646,
      "duration": 0.0837,
      "velocity": 112,
      "chip": "ym2612"
    },
    {
      "channel": 3,
      "note": 52,
      "start": 50.6654,
      "duration": 0.0498,
      "velocity": 120,
      "chip": "ym2612"
    },
    {
      "channel": 4,
      "note": 68,
      "start": 50.6712,
      "duration": 0.1178,
      "velocity": 111,
      "chip": "ym2612"
    },
    {
      "channel": 5,
      "note": 52,
      "start": 50.7561,
      "duration": 0.1511,
      "velocity": 96,
      "chip": "ym2612"
    },
    {
      "channel": 0,
      "note": 56,
      "start": 50.8148,
      "duration": 0.1511,
      "velocity": 95,
      "chip": "ym2612"
    },
    {
      "channel": 1,
      "note": 63,
      "start": 50.8156,
      "duration": 0.1512,
      "velocity": 95,
      "chip": "ym2612"
    },
    {
      "channel": 2,
      "note": 65,
      "start": 50.8163,
      "duration": 0.0837,
      "velocity": 112,
      "chip": "ym2612"
    },
    {
      "channel": 3,
      "note": 64,
      "start": 50.817,
      "duration": 0.0498,
      "velocity": 120,
      "chip": "ym2612"
    },
    {
      "channel": 4,
      "note": 68,
      "start": 50.8229,
      "duration": 0.1178,
      "velocity": 112,
      "chip": "ym2612"
    },
    {
      "channel": 5,
      "note": 56,
      "start": 50.9078,
      "duration": 0.1511,
      "velocity": 95,
      "chip": "ym2612"
    },
    {
      "channel": 0,
      "note": 49,
      "start": 50.9665,
      "duration": 0.1511,
      "velocity": 96,
      "chip": "ym2612"
    },
    {
      "channel": 1,
      "note": 56,
      "start": 50.9673,
      "duration": 0.1511,
      "velocity": 96,
      "chip": "ym2612"
    },
    {
      "channel": 2,
      "note": 65,
      "start": 50.968,
      "duration": 0.0837,
      "velocity": 112,
      "chip": "ym2612"
    },
    {
      "channel": 3,
      "note": 52,
      "start": 50.9688,
      "duration": 0.0498,
      "velocity": 120,
      "chip": "ym2612"
    },
    {
      "channel": 4,
      "note": 68,
      "start": 50.9745,
      "duration": 0.1178,
      "velocity": 108,
      "chip": "ym2612"
    },
    {
      "channel": 5,
      "note": 49,
      "start": 51.0595,
      "duration": 0.1511,
      "velocity": 96,
      "chip": "ym2612"
    },
    {
      "channel": 0,
      "note": 51,
      "start": 51.1182,
      "duration": 0.1511,
      "velocity": 97,
      "chip": "ym2612"
    },
    {
      "channel": 1,
      "note": 58,
      "start": 51.1189,
      "duration": 0.1512,
      "velocity": 97,
      "chip": "ym2612"
    },
    {
      "channel": 2,
      "note": 65,
      "start": 51.1196,
      "duration": 0.0837,
      "velocity": 112,
      "chip": "ym2612"
    },
    {
      "channel": 3,
      "note": 64,
      "start": 51.1204,
      "duration": 0.0497,
      "velocity": 120,
      "chip": "ym2612"
    },
    {
      "channel": 4,
      "note": 80,
      "start": 51.1263,
      "duration": 0.1177,
      "velocity": 109,
      "chip": "ym2612"
    },
    {
      "channel": 5,
      "note": 51,
      "start": 51.2111,
      "duration": 0.1512,
      "velocity": 97,
      "chip": "ym2612"
    },
    {
      "channel": 0,
      "note": 52,
      "start": 51.2698,
      "duration": 0.1511,
      "velocity": 98,
      "chip": "ym2612"
    },
    {
      "channel": 1,
      "note": 59,
      "start": 51.2707,
      "duration": 0.1511,
      "velocity": 98,
      "chip": "ym2612"
    },
    {
      "channel": 2,
      "note": 65,
      "start": 51.2714,
      "duration": 0.0837,
      "velocity": 112,
      "chip": "ym2612"
    },
    {
      "channel": 3,
      "note": 52,
      "start": 51.2721,
      "duration": 0.0498,
      "velocity": 120,
      "chip": "ym2612"
    },
    {
      "channel": 4,
      "note": 80,
      "start": 51.2779,
      "duration": 0.1178,
      "velocity": 110,
      "chip": "ym2612"
    },
    {
      "channel": 5,
      "note": 52,
      "start": 51.3628,
      "duration": 0.1511,
      "velocity": 98,
      "chip": "ym2612"
    },
    {
      "channel": 0,
      "note": 56,
      "start": 51.4215,
      "duration": 0.1512,
      "velocity": 99,
      "chip": "ym2612"
    },
    {
      "channel": 1,
      "note": 63,
      "start": 51.4223,
      "duration": 0.1511,
      "velocity": 99,
      "chip": "ym2612"
    },
    {
      "channel": 2,
      "note": 65,
      "start": 51.423,
      "duration": 0.0837,
      "velocity": 112,
      "chip": "ym2612"
    },
    {
      "channel": 3,
      "note": 52,
      "start": 51.4238,
      "duration": 0.0498,
      "velocity": 120,
      "chip": "ym2612"
    },
    {
      "channel": 4,
      "note": 68,
      "start": 51.4296,
      "duration": 0.1178,
      "velocity": 111,
      "chip": "ym2612"
    },
    {
      "channel": 5,
      "note": 56,
      "start": 51.5145,
      "duration": 0.1511,
      "velocity": 99,
      "chip": "ym2612"
    },
    {
      "channel": 0,
      "note": 49,
      "start": 51.5732,
      "duration": 0.1511,
      "velocity": 100,
      "chip": "ym2612"
    },
    {
      "channel": 1,
      "note": 56,
      "start": 51.574,
      "duration": 0.1511,
      "velocity": 100,
      "chip": "ym2612"
    },
    {
      "channel": 2,
      "note": 65,
      "start": 51.5747,
      "duration": 0.0837,
      "velocity": 112,
      "chip": "ym2612"
    },
    {
      "channel": 3,
      "note": 64,
      "start": 51.5755,
      "duration": 0.0498,
      "velocity": 120,
      "chip": "ym2612"
    },
    {
      "channel": 4,
      "note": 80,
      "start": 51.5813,
      "duration": 0.1178,
      "velocity": 108,
      "chip": "ym2612"
    },
    {
      "channel": 5,
      "note": 49,
      "start": 51.6661,
      "duration": 0.1511,
      "velocity": 100,
      "chip": "ym2612"
    },
    {
      "channel": 0,
      "note": 51,
      "start": 51.7249,
      "duration": 0.1512,
      "velocity": 101,
      "chip": "ym2612"
    },
    {
      "channel": 1,
      "note": 58,
      "start": 51.7257,
      "duration": 0.1511,
      "velocity": 101,
      "chip": "ym2612"
    },
    {
      "channel": 2,
      "note": 65,
      "start": 51.7264,
      "duration": 0.0837,
      "velocity": 112,
      "chip": "ym2612"
    },
    {
      "channel": 3,
      "note": 52,
      "start": 51.7271,
      "duration": 0.0498,
      "velocity": 120,
      "chip": "ym2612"
    },
    {
      "channel": 4,
      "note": 68,
      "start": 51.733,
      "duration": 0.1178,
      "velocity": 109,
      "chip": "ym2612"
    },
    {
      "channel": 5,
      "note": 51,
      "start": 51.8178,
      "duration": 0.1511,
      "velocity": 101,
      "chip": "ym2612"
    },
    {
      "channel": 0,
      "note": 52,
      "start": 51.8766,
      "duration": 0.1511,
      "velocity": 102,
      "chip": "ym2612"
    },
    {
      "channel": 1,
      "note": 59,
      "start": 51.8774,
      "duration": 0.1511,
      "velocity": 102,
      "chip": "ym2612"
    },
    {
      "channel": 2,
      "note": 65,
      "start": 51.8781,
      "duration": 0.0836,
      "velocity": 112,
      "chip": "ym2612"
    },
    {
      "channel": 3,
      "note": 52,
      "start": 51.8789,
      "duration": 0.0497,
      "velocity": 120,
      "chip": "ym2612"
    },
    {
      "channel": 4,
      "note": 68,
      "start": 51.8846,
      "duration": 0.1178,
      "velocity": 112,
      "chip": "ym2612"
    },
    {
      "channel": 5,
      "note": 52,
      "start": 51.9695,
      "duration": 0.1512,
      "velocity": 102,
      "chip": "ym2612"
    },
    {
      "channel": 0,
      "note": 56,
      "start": 52.0282,
      "duration": 0.1511,
      "velocity": 103,
      "chip": "ym2612"
    },
    {
      "channel": 1,
      "note": 63,
      "start": 52.029,
      "duration": 0.1511,
      "velocity": 103,
      "chip": "ym2612"
    },
    {
      "channel": 2,
      "note": 65,
      "start": 52.0298,
      "duration": 0.0837,
      "velocity": 112,
      "chip": "ym2612"
    },
    {
      "channel": 3,
      "note": 64,
      "start": 52.0305,
      "duration": 0.0498,
      "velocity": 120,
      "chip": "ym2612"
    },
    {
      "channel": 4,
      "note": 80,
      "start": 52.0363,
      "duration": 0.1178,
      "velocity": 110,
      "chip": "ym2612"
    },
    {
      "channel": 5,
      "note": 56,
      "start": 52.1212,
      "duration": 0.1511,
      "velocity": 103,
      "chip": "ym2612"
    },
    {
      "channel": 0,
      "note": 49,
      "start": 52.18,
      "duration": 0.1511,
      "velocity": 104,
      "chip": "ym2612"
    },
    {
      "channel": 1,
      "note": 56,
      "start": 52.1807,
      "duration": 0.1512,
      "velocity": 104,
      "chip": "ym2612"
    },
    {
      "channel": 2,
      "note": 65,
      "start": 52.1814,
      "duration": 0.0837,
      "velocity": 112,
      "chip": "ym2612"
    },
    {
      "channel": 3,
      "note": 52,
      "start": 52.1822,
      "duration": 0.0497,
      "velocity": 120,
      "chip": "ym2612"
    },
    {
      "channel": 4,
      "note": 80,
      "start": 52.188,
      "duration": 0.1177,
      "velocity": 111,
      "chip": "ym2612"
    },
    {
      "channel": 5,
      "note": 49,
      "start": 52.2729,
      "duration": 0.1512,
      "velocity": 104,
      "chip": "ym2612"
    },
    {
      "channel": 0,
      "note": 51,
      "start": 52.3316,
      "duration": 0.1511,
      "velocity": 105,
      "chip": "ym2612"
    },
    {
      "channel": 1,
      "note": 58,
      "start": 52.3324,
      "duration": 0.1511,
      "velocity": 105,
      "chip": "ym2612"
    },
    {
      "channel": 2,
      "note": 65,
      "start": 52.3331,
      "duration": 0.0837,
      "velocity": 112,
      "chip": "ym2612"
    },
    {
      "channel": 3,
      "note": 64,
      "start": 52.3339,
      "duration": 0.0498,
      "velocity": 120,
      "chip": "ym2612"
    },
    {
      "channel": 4,
      "note": 68,
      "start": 52.3397,
      "duration": 0.1178,
      "velocity": 108,
      "chip": "ym2612"
    },
    {
      "channel": 5,
      "note": 51,
      "start": 52.4246,
      "duration": 0.1511,
      "velocity": 105,
      "chip": "ym2612"
    },
    {
      "channel": 0,
      "note": 52,
      "start": 52.4832,
      "duration": 0.1512,
      "velocity": 106,
      "chip": "ym2612"
    },
    {
      "channel": 1,
      "note": 59,
      "start": 52.4841,
      "duration": 0.1511,
      "velocity": 106,
      "chip": "ym2612"
    },
    {
      "channel": 2,
      "note": 65,
      "start": 52.4848,
      "duration": 0.0837,
      "velocity": 112,
      "chip": "ym2612"
    },
    {
      "channel": 3,
      "note": 52,
      "start": 52.4855,
      "duration": 0.0498,
      "velocity": 120,
      "chip": "ym2612"
    },
    {
      "channel": 4,
      "note": 80,
      "start": 52.4914,
      "duration": 0.1178,
      "velocity": 109,
      "chip": "ym2612"
    },
    {
      "channel": 5,
      "note": 52,
      "start": 52.5763,
      "duration": 0.1511,
      "velocity": 106,
      "chip": "ym2612"
    },
    {
      "channel": 0,
      "note": 56,
      "start": 52.635,
      "duration": 0.1511,
      "velocity": 107,
      "chip": "ym2612"
    },
    {
      "channel": 1,
      "note": 63,
      "start": 52.6358,
      "duration": 0.1511,
      "velocity": 107,
      "chip": "ym2612"
    },
    {
      "channel": 2,
      "note": 65,
      "start": 52.6365,
      "duration": 0.0836,
      "velocity": 112,
      "chip": "ym2612"
    },
    {
      "channel": 3,
      "note": 52,
      "start": 52.6373,
      "duration": 0.0497,
      "velocity": 120,
      "chip": "ym2612"
    },
    {
      "channel": 4,
      "note": 68,
      "start": 52.643,
      "duration": 0.1178,
      "velocity": 112,
      "chip": "ym2612"
    },
    {
      "channel": 5,
      "note": 56,
      "start": 52.7279,
      "duration": 0.1511,
      "velocity": 107,
      "chip": "ym2612"
    },
    {
      "channel": 0,
      "note": 49,
      "start": 52.7866,
      "duration": 0.1512,
      "velocity": 108,
      "chip": "ym2612"
    },
    {
      "channel": 1,
      "note": 56,
      "start": 52.7875,
      "duration": 0.1511,
      "velocity": 108,
      "chip": "ym2612"
    },
    {
      "channel": 2,
      "note": 65,
      "start": 52.7881,
      "duration": 0.0837,
      "velocity": 112,
      "chip": "ym2612"
    },
    {
      "channel": 3,
      "note": 64,
      "start": 52.7889,
      "duration": 0.0498,
      "velocity": 120,
      "chip": "ym2612"
    },
    {
      "channel": 4,
      "note": 80,
      "start": 52.7948,
      "duration": 0.1178,
      "velocity": 110,
      "chip": "ym2612"
    },
    {
      "channel": 5,
      "note": 49,
      "start": 52.8796,
      "duration": 0.1511,
      "velocity": 108,
      "chip": "ym2612"
    },
    {
      "channel": 0,
      "note": 51,
      "start": 52.9383,
      "duration": 0.1511,
      "velocity": 109,
      "chip": "ym2612"
    },
    {
      "channel": 1,
      "note": 58,
      "start": 52.9391,
      "duration": 0.1512,
      "velocity": 109,
      "chip": "ym2612"
    },
    {
      "channel": 2,
      "note": 65,
      "start": 52.9398,
      "duration": 0.0837,
      "velocity": 112,
      "chip": "ym2612"
    },
    {
      "channel": 3,
      "note": 52,
      "start": 52.9406,
      "duration": 0.0498,
      "velocity": 120,
      "chip": "ym2612"
    },
    {
      "channel": 4,
      "note": 68,
      "start": 52.9464,
      "duration": 0.1178,
      "velocity": 108,
      "chip": "ym2612"
    },
    {
      "channel": 5,
      "note": 51,
      "start": 53.0313,
      "duration": 0.1512,
      "velocity": 109,
      "chip": "ym2612"
    },
    {
      "channel": 0,
      "note": 52,
      "start": 53.09,
      "duration": 0.1511,
      "velocity": 110,
      "chip": "ym2612"
    },
    {
      "channel": 1,
      "note": 59,
      "start": 53.0909,
      "duration": 0.151,
      "velocity": 110,
      "chip": "ym2612"
    },
    {
      "channel": 2,
      "note": 65,
      "start": 53.0916,
      "duration": 0.0837,
      "velocity": 112,
      "chip": "ym2612"
    },
    {
      "channel": 3,
      "note": 64,
      "start": 53.0924,
      "duration": 0.0497,
      "velocity": 120,
      "chip": "ym2612"
    },
    {
      "channel": 4,
      "note": 68,
      "start": 53.0981,
      "duration": 0.1178,
      "velocity": 109,
      "chip": "ym2612"
    },
    {
      "channel": 5,
      "note": 52,
      "start": 53.183,
      "duration": 0.1511,
      "velocity": 110,
      "chip": "ym2612"
    },
    {
      "channel": 0,
      "note": 56,
      "start": 53.2417,
      "duration": 0.1511,
      "velocity": 110,
      "chip": "ym2612"
    },
    {
      "channel": 1,
      "note": 63,
      "start": 53.2425,
      "duration": 0.1512,
      "velocity": 110,
      "chip": "ym2612"
    },
    {
      "channel": 2,
      "note": 65,
      "start": 53.2432,
      "duration": 0.0837,
      "velocity": 112,
      "chip": "ym2612"
    },
    {
      "channel": 3,
      "note": 64,
      "start": 53.2439,
      "duration": 0.0497,
      "velocity": 120,
      "chip": "ym2612"
    },
    {
      "channel": 4,
      "note": 80,
      "start": 53.2498,
      "duration": 0.1177,
      "velocity": 112,
      "chip": "ym2612"
    },
    {
      "channel": 5,
      "note": 56,
      "start": 53.3346,
      "duration": 0.1512,
      "velocity": 110,
      "chip": "ym2612"
    },
    {
      "channel": 0,
      "note": 53,
      "start": 53.3934,
      "duration": 0.1511,
      "velocity": 110,
      "chip": "ym2612"
    },
    {
      "channel": 1,
      "note": 60,
      "start": 53.3942,
      "duration": 0.1511,
      "velocity": 110,
      "chip": "ym2612"
    },
    {
      "channel": 2,
      "note": 65,
      "start": 53.3949,
      "duration": 0.0837,
      "velocity": 112,
      "chip": "ym2612"
    },
    {
      "channel": 3,
      "note": 56,
      "start": 53.3956,
      "duration": 0.0498,
      "velocity": 120,
      "chip": "ym2612"
    },
    {
      "channel": 4,
      "note": 72,
      "start": 53.4015,
      "duration": 0.1178,
      "velocity": 108,
      "chip": "ym2612"
    },
    {
      "channel": 5,
      "note": 53,
      "start": 53.4864,
      "duration": 0.1511,
      "velocity": 110,
      "chip": "ym2612"
    },
    {
      "channel": 0,
      "note": 55,
      "start": 53.545,
      "duration": 0.1512,
      "velocity": 109,
      "chip": "ym2612"
    },
    {
      "channel": 1,
      "note": 62,
      "start": 53.5459,
      "duration": 0.1511,
      "velocity": 109,
      "chip": "ym2612"
    },
    {
      "channel": 2,
      "note": 65,
      "start": 53.5466,
      "duration": 0.0837,
      "velocity": 112,
      "chip": "ym2612"
    },
    {
      "channel": 3,
      "note": 68,
      "start": 53.5473,
      "duration": 0.0498,
      "velocity": 120,
      "chip": "ym2612"
    },
    {
      "channel": 4,
      "note": 84,
      "start": 53.5532,
      "duration": 0.1178,
      "velocity": 108,
      "chip": "ym2612"
    },
    {
      "channel": 5,
      "note": 55,
      "start": 53.638,
      "duration": 0.1511,
      "velocity": 109,
      "chip": "ym2612"
    },
    {
      "channel": 0,
      "note": 56,
      "start": 53.6967,
      "duration": 0.1511,
      "velocity": 108,
      "chip": "ym2612"
    },
    {
      "channel": 1,
      "note": 63,
      "start": 53.6976,
      "duration": 0.1511,
      "velocity": 108,
      "chip": "ym2612"
    },
    {
      "channel": 2,
      "note": 65,
      "start": 53.6983,
      "duration": 0.0836,
      "velocity": 112,
      "chip": "ym2612"
    },
    {
      "channel": 3,
      "note": 56,
      "start": 53.699,
      "duration": 0.0497,
      "velocity": 120,
      "chip": "ym2612"
    },
    {
      "channel": 4,
      "note": 84,
      "start": 53.7048,
      "duration": 0.1178,
      "velocity": 112,
      "chip": "ym2612"
    },
    {
      "channel": 5,
      "note": 56,
      "start": 53.7897,
      "duration": 0.1512,
      "velocity": 108,
      "chip": "ym2612"
    },
    {
      "channel": 0,
      "note": 60,
      "start": 53.8484,
      "duration": 0.1512,
      "velocity": 107,
      "chip": "ym2612"
    },
    {
      "channel": 1,
      "note": 67,
      "start": 53.8492,
      "duration": 0.1511,
      "velocity": 107,
      "chip": "ym2612"
    },
    {
      "channel": 2,
      "note": 65,
      "start": 53.8499,
      "duration": 0.0837,
      "velocity": 112,
      "chip": "ym2612"
    },
    {
      "channel": 3,
      "note": 56,
      "start": 53.8507,
      "duration": 0.0498,
      "velocity": 120,
      "chip": "ym2612"
    },
    {
      "channel": 4,
      "note": 72,
      "start": 53.8565,
      "duration": 0.1178,
      "velocity": 109,
      "chip": "ym2612"
    },
    {
      "channel": 5,
      "note": 60,
      "start": 53.9415,
      "duration": 0.151,
      "velocity": 107,
      "chip": "ym2612"
    },
    {
      "channel": 0,
      "note": 53,
      "start": 54.0001,
      "duration": 0.1511,
      "velocity": 106,
      "chip": "ym2612"
    },
    {
      "channel": 1,
      "note": 60,
      "start": 54.0009,
      "duration": 0.1512,
      "velocity": 106,
      "chip": "ym2612"
    },
    {
      "channel": 2,
      "note": 65,
      "start": 54.0016,
      "duration": 0.0837,
      "velocity": 112,
      "chip": "ym2612"
    },
    {
      "channel": 3,
      "note": 68,
      "start": 54.0023,
      "duration": 0.0498,
      "velocity": 120,
      "chip": "ym2612"
    },
    {
      "channel": 4,
      "note": 84,
      "start": 54.0082,
      "duration": 0.1178,
      "velocity": 108,
      "chip": "ym2612"
    },
    {
      "channel": 5,
      "note": 53,
      "start": 54.093,
      "duration": 0.1512,
      "velocity": 106,
      "chip": "ym2612"
    },
    {
      "channel": 0,
      "note": 55,
      "start": 54.1518,
      "duration": 0.1511,
      "velocity": 105,
      "chip": "ym2612"
    },
    {
      "channel": 1,
      "note": 62,
      "start": 54.1526,
      "duration": 0.1511,
      "velocity": 105,
      "chip": "ym2612"
    },
    {
      "channel": 2,
      "note": 65,
      "start": 54.1533,
      "duration": 0.0837,
      "velocity": 112,
      "chip": "ym2612"
    },
    {
      "channel": 3,
      "note": 56,
      "start": 54.1541,
      "duration": 0.0498,
      "velocity": 120,
      "chip": "ym2612"
    },
    {
      "channel": 4,
      "note": 72,
      "start": 54.1598,
      "duration": 0.1178,
      "velocity": 110,
      "chip": "ym2612"
    },
    {
      "channel": 5,
      "note": 55,
      "start": 54.2448,
      "duration": 0.1511,
      "velocity": 105,
      "chip": "ym2612"
    },
    {
      "channel": 0,
      "note": 56,
      "start": 54.3035,
      "duration": 0.1511,
      "velocity": 104,
      "chip": "ym2612"
    },
    {
      "channel": 1,
      "note": 63,
      "start": 54.3042,
      "duration": 0.1512,
      "velocity": 104,
      "chip": "ym2612"
    },
    {
      "channel": 2,
      "note": 65,
      "start": 54.3049,
      "duration": 0.0837,
      "velocity": 112,
      "chip": "ym2612"
    },
    {
      "channel": 3,
      "note": 56,
      "start": 54.3057,
      "duration": 0.0497,
      "velocity": 120,
      "chip": "ym2612"
    },
    {
      "channel": 4,
      "note": 72,
      "start": 54.3116,
      "duration": 0.1177,
      "velocity": 109,
      "chip": "ym2612"
    },
    {
      "channel": 5,
      "note": 56,
      "start": 54.3964,
      "duration": 0.1512,
      "velocity": 104,
      "chip": "ym2612"
    },
    {
      "channel": 0,
      "note": 60,
      "start": 54.4551,
      "duration": 0.1511,
      "velocity": 103,
      "chip": "ym2612"
    },
    {
      "channel": 1,
      "note": 67,
      "start": 54.456,
      "duration": 0.1511,
      "velocity": 103,
      "chip": "ym2612"
    },
    {
      "channel": 2,
      "note": 65,
      "start": 54.4567,
      "duration": 0.0837,
      "velocity": 112,
      "chip": "ym2612"
    },
    {
      "channel": 3,
      "note": 68,
      "start": 54.4575,
      "duration": 0.0497,
      "velocity": 120,
      "chip": "ym2612"
    },
    {
      "channel": 4,
      "note": 84,
      "start": 54.4632,
      "duration": 0.1178,
      "velocity": 111,
      "chip": "ym2612"
    },
    {
      "channel": 5,
      "note": 60,
      "start": 54.5481,
      "duration": 0.1511,
      "velocity": 103,
      "chip": "ym2612"
    },
    {
      "channel": 0,
      "note": 53,
      "start": 54.6068,
      "duration": 0.1511,
      "velocity": 102,
      "chip": "ym2612"
    },
    {
      "channel": 1,
      "note": 60,
      "start": 54.6077,
      "duration": 0.1511,
      "velocity": 102,
      "chip": "ym2612"
    },
    {
      "channel": 2,
      "note": 65,
      "start": 54.6084,
      "duration": 0.0837,
      "velocity": 112,
      "chip": "ym2612"
    },
    {
      "channel": 3,
      "note": 56,
      "start": 54.6091,
      "duration": 0.0498,
      "velocity": 120,
      "chip": "ym2612"
    },
    {
      "channel": 4,
      "note": 84,
      "start": 54.6149,
      "duration": 0.1178,
      "velocity": 112,
      "chip": "ym2612"
    },
    {
      "channel": 5,
      "note": 53,
      "start": 54.6998,
      "duration": 0.1511,
      "velocity": 102,
      "chip": "ym2612"
    },
    {
      "channel": 0,
      "note": 55,
      "start": 54.7585,
      "duration": 0.1511,
      "velocity": 101,
      "chip": "ym2612"
    },
    {
      "channel": 1,
      "note": 62,
      "start": 54.7593,
      "duration": 0.1511,
      "velocity": 101,
      "chip": "ym2612"
    },
    {
      "channel": 2,
      "note": 65,
      "start": 54.76,
      "duration": 0.0836,
      "velocity": 112,
      "chip": "ym2612"
    },
    {
      "channel": 3,
      "note": 68,
      "start": 54.7608,
      "duration": 0.0497,
      "velocity": 120,
      "chip": "ym2612"
    },
    {
      "channel": 4,
      "note": 72,
      "start": 54.7666,
      "duration": 0.1178,
      "velocity": 109,
      "chip": "ym2612"
    },
    {
      "channel": 5,
      "note": 55,
      "start": 54.8515,
      "duration": 0.1511,
      "velocity": 101,
      "chip": "ym2612"
    },
    {
      "channel": 0,
      "note": 56,
      "start": 54.9102,
      "duration": 0.1512,
      "velocity": 100,
      "chip": "ym2612"
    },
    {
      "channel": 1,
      "note": 63,
      "start": 54.911,
      "duration": 0.1511,
      "velocity": 100,
      "chip": "ym2612"
    },
    {
      "channel": 2,
      "note": 65,
      "start": 54.9117,
      "duration": 0.0837,
      "velocity": 112,
      "chip": "ym2612"
    },
    {
      "channel": 3,
      "note": 56,
      "start": 54.9124,
      "duration": 0.0498,
      "velocity": 120,
      "chip": "ym2612"
    },
    {
      "channel": 4,
      "note": 84,
      "start": 54.9183,
      "duration": 0.1178,
      "velocity": 108,
      "chip": "ym2612"
    },
    {
      "channel": 5,
      "note": 56,
      "start": 55.0032,
      "duration": 0.1511,
      "velocity": 100,
      "chip": "ym2612"
    },
    {
      "channel": 0,
      "note": 60,
      "start": 55.0619,
      "duration": 0.1511,
      "velocity": 99,
      "chip": "ym2612"
    },
    {
      "channel": 1,
      "note": 67,
      "start": 55.0626,
      "duration": 0.1512,
      "velocity": 99,
      "chip": "ym2612"
    },
    {
      "channel": 2,
      "note": 65,
      "start": 55.0633,
      "duration": 0.0837,
      "velocity": 112,
      "chip": "ym2612"
    },
    {
      "channel": 3,
      "note": 56,
      "start": 55.0641,
      "duration": 0.0498,
      "velocity": 120,
      "chip": "ym2612"
    },
    {
      "channel": 4,
      "note": 72,
      "start": 55.07,
      "duration": 0.1178,
      "velocity": 112,
      "chip": "ym2612"
    },
    {
      "channel": 5,
      "note": 60,
      "start": 55.1548,
      "duration": 0.1512,
      "velocity": 99,
      "chip": "ym2612"
    },
    {
      "channel": 0,
      "note": 53,
      "start": 55.2135,
      "duration": 0.1511,
      "velocity": 98,
      "chip": "ym2612"
    },
    {
      "channel": 1,
      "note": 60,
      "start": 55.2144,
      "duration": 0.1511,
      "velocity": 98,
      "chip": "ym2612"
    },
    {
      "channel": 2,
      "note": 65,
      "start": 55.2151,
      "duration": 0.0837,
      "velocity": 112,
      "chip": "ym2612"
    },
    {
      "channel": 3,
      "note": 68,
      "start": 55.2158,
      "duration": 0.0497,
      "velocity": 120,
      "chip": "ym2612"
    },
    {
      "channel": 4,
      "note": 72,
      "start": 55.2216,
      "duration": 0.1178,
      "velocity": 111,
      "chip": "ym2612"
    },
    {
      "channel": 5,
      "note": 53,
      "start": 55.3065,
      "duration": 0.1511,
      "velocity": 98,
      "chip": "ym2612"
    },
    {
      "channel": 0,
      "note": 55,
      "start": 55.3652,
      "duration": 0.1511,
      "velocity": 97,
      "chip": "ym2612"
    },
    {
      "channel": 1,
      "note": 62,
      "start": 55.366,
      "duration": 0.1512,
      "velocity": 97,
      "chip": "ym2612"
    },
    {
      "channel": 2,
      "note": 65,
      "start": 55.3667,
      "duration": 0.0837,
      "velocity": 112,
      "chip": "ym2612"
    },
    {
      "channel": 3,
      "note": 56,
      "start": 55.3675,
      "duration": 0.0497,
      "velocity": 120,
      "chip": "ym2612"
    },
    {
      "channel": 4,
      "note": 84,
      "start": 55.3733,
      "duration": 0.1177,
      "velocity": 109,
      "chip": "ym2612"
    },
    {
      "channel": 5,
      "note": 55,
      "start": 55.4582,
      "duration": 0.1512,
      "velocity": 97,
      "chip": "ym2612"
    },
    {
      "channel": 0,
      "note": 56,
      "start": 55.5169,
      "duration": 0.1511,
      "velocity": 96,
      "chip": "ym2612"
    },
    {
      "channel": 1,
      "note": 63,
      "start": 55.5177,
      "duration": 0.1511,
      "velocity": 96,
      "chip": "ym2612"
    },
    {
      "channel": 2,
      "note": 65,
      "start": 55.5184,
      "duration": 0.0836,
      "velocity": 112,
      "chip": "ym2612"
    },
    {
      "channel": 3,
      "note": 56,
      "start": 55.5192,
      "duration": 0.0498,
      "velocity": 120,
      "chip": "ym2612"
    },
    {
      "channel": 4,
      "note": 72,
      "start": 55.525,
      "duration": 0.1178,
      "velocity": 111,
      "chip": "ym2612"
    },
    {
      "channel": 5,
      "note": 56,
      "start": 55.6099,
      "duration": 0.1511,
      "velocity": 96,
      "chip": "ym2612"
    },
    {
      "channel": 0,
      "note": 60,
      "start": 55.6685,
      "duration": 0.1512,
      "velocity": 95,
      "chip": "ym2612"
    },
    {
      "channel": 1,
      "note": 67,
      "start": 55.6694,
      "duration": 0.1511,
      "velocity": 95,
      "chip": "ym2612"
    },
    {
      "channel": 2,
      "note": 65,
      "start": 55.6701,
      "duration": 0.0837,
      "velocity": 112,
      "chip": "ym2612"
    },
    {
      "channel": 3,
      "note": 68,
      "start": 55.6708,
      "duration": 0.0498,
      "velocity": 120,
      "chip": "ym2612"
    },
    {
      "channel": 4,
      "note": 72,
      "start": 55.6767,
      "duration": 0.1178,
      "velocity": 112,
      "chip": "ym2612"
    },
    {
      "channel": 5,
      "note": 60,
      "start": 55.7616,
      "duration": 0.1511,
      "velocity": 95,
      "chip": "ym2612"
    },
    {
      "channel": 0,
      "note": 53,
      "start": 55.8203,
      "duration": 0.1511,
      "velocity": 96,
      "chip": "ym2612"
    },
    {
      "channel": 1,
      "note": 60,
      "start": 55.8211,
      "duration": 0.1511,
      "velocity": 96,
      "chip": "ym2612"
    },
    {
      "channel": 2,
      "note": 65,
      "start": 55.8218,
      "duration": 0.0836,
      "velocity": 112,
      "chip": "ym2612"
    },
    {
      "channel": 3,
      "note": 56,
      "start": 55.8226,
      "duration": 0.0497,
      "velocity": 120,
      "chip": "ym2612"
    },
    {
      "channel": 4,
      "note": 72,
      "start": 55.8283,
      "duration": 0.1178,
      "velocity": 108,
      "chip": "ym2612"
    },
    {
      "channel": 5,
      "note": 53,
      "start": 55.9133,
      "duration": 0.1511,
      "velocity": 96,
      "chip": "ym2612"
    },
    {
      "channel": 0,
      "note": 55,
      "start": 55.9719,
      "duration": 0.1512,
      "velocity": 97,
      "chip": "ym2612"
    },
    {
      "channel": 1,
      "note": 62,
      "start": 55.9728,
      "duration": 0.1511,
      "velocity": 97,
      "chip": "ym2612"
    },
    {
      "channel": 2,
      "note": 65,
      "start": 55.9735,
      "duration": 0.0837,
      "velocity": 112,
      "chip": "ym2612"
    },
    {
      "channel": 3,
      "note": 68,
      "start": 55.9743,
      "duration": 0.0498,
      "velocity": 120,
      "chip": "ym2612"
    },
    {
      "channel": 4,
      "note": 84,
      "start": 55.9801,
      "duration": 0.1178,
      "velocity": 109,
      "chip": "ym2612"
    },
    {
      "channel": 5,
      "note": 55,
      "start": 56.0649,
      "duration": 0.1511,
      "velocity": 97,
      "chip": "ym2612"
    },
    {
      "channel": 0,
      "note": 56,
      "start": 56.1237,
      "duration": 0.1511,
      "velocity": 98,
      "chip": "ym2612"
    },
    {
      "channel": 1,
      "note": 63,
      "start": 56.1245,
      "duration": 0.1511,
      "velocity": 98,
      "chip": "ym2612"
    },
    {
      "channel": 2,
      "note": 65,
      "start": 56.1252,
      "duration": 0.0836,
      "velocity": 112,
      "chip": "ym2612"
    },
    {
      "channel": 3,
      "note": 56,
      "start": 56.1259,
      "duration": 0.0498,
      "velocity": 120,
      "chip": "ym2612"
    },
    {
      "channel": 4,
      "note": 84,
      "start": 56.1317,
      "duration": 0.1178,
      "velocity": 110,
      "chip": "ym2612"
    },
    {
      "channel": 5,
      "note": 56,
      "start": 56.2166,
      "duration": 0.1512,
      "velocity": 98,
      "chip": "ym2612"
    },
    {
      "channel": 0,
      "note": 60,
      "start": 56.2753,
      "duration": 0.1511,
      "velocity": 99,
      "chip": "ym2612"
    },
    {
      "channel": 1,
      "note": 67,
      "start": 56.2761,
      "duration": 0.1511,
      "velocity": 99,
      "chip": "ym2612"
    },
    {
      "channel": 2,
      "note": 65,
      "start": 56.2768,
      "duration": 0.0837,
      "velocity": 112,
      "chip": "ym2612"
    },
    {
      "channel": 3,
      "note": 56,
      "start": 56.2776,
      "duration": 0.0497,
      "velocity": 120,
      "chip": "ym2612"
    },
    {
      "channel": 4,
      "note": 72,
      "start": 56.2834,
      "duration": 0.1178,
      "velocity": 111,
      "chip": "ym2612"
    },
    {
      "channel": 5,
      "note": 60,
      "start": 56.3683,
      "duration": 0.1511,
      "velocity": 99,
      "chip": "ym2612"
    },
    {
      "channel": 0,
      "note": 53,
      "start": 56.427,
      "duration": 0.1511,
      "velocity": 100,
      "chip": "ym2612"
    },
    {
      "channel": 1,
      "note": 60,
      "start": 56.4278,
      "duration": 0.1512,
      "velocity": 100,
      "chip": "ym2612"
    },
    {
      "channel": 2,
      "note": 65,
      "start": 56.4285,
      "duration": 0.0837,
      "velocity": 112,
      "chip": "ym2612"
    },
    {
      "channel": 3,
      "note": 68,
      "start": 56.4293,
      "duration": 0.0497,
      "velocity": 120,
      "chip": "ym2612"
    },
    {
      "channel": 4,
      "note": 84,
      "start": 56.4351,
      "duration": 0.1177,
      "velocity": 108,
      "chip": "ym2612"
    },
    {
      "channel": 5,
      "note": 53,
      "start": 56.52,
      "duration": 0.1512,
      "velocity": 100,
      "chip": "ym2612"
    },
    {
      "channel": 0,
      "note": 55,
      "start": 56.5787,
      "duration": 0.1511,
      "velocity": 101,
      "chip": "ym2612"
    },
    {
      "channel": 1,
      "note": 62,
      "start": 56.5795,
      "duration": 0.1511,
      "velocity": 101,
      "chip": "ym2612"
    },
    {
      "channel": 2,
      "note": 65,
      "start": 56.5802,
      "duration": 0.0836,
      "velocity": 112,
      "chip": "ym2612"
    },
    {
      "channel": 3,
      "note": 56,
      "start": 56.581,
      "duration": 0.0498,
      "velocity": 120,
      "chip": "ym2612"
    },
    {
      "channel": 4,
      "note": 72,
      "start": 56.5868,
      "duration": 0.1178,
      "velocity": 109,
      "chip": "ym2612"
    },
    {
      "channel": 5,
      "note": 55,
      "start": 56.6717,
      "duration": 0.1511,
      "velocity": 101,
      "chip": "ym2612"
    },
    {
      "channel": 0,
      "note": 56,
      "start": 56.7303,
      "duration": 0.1512,
      "velocity": 102,
      "chip": "ym2612"
    },
    {
      "channel": 1,
      "note": 63,
      "start": 56.7312,
      "duration": 0.1511,
      "velocity": 102,
      "chip": "ym2612"
    },
    {
      "channel": 2,
      "note": 65,
      "start": 56.7319,
      "duration": 0.0837,
      "velocity": 112,
      "chip": "ym2612"
    },
    {
      "channel": 3,
      "note": 56,
      "start": 56.7326,
      "duration": 0.0498,
      "velocity": 120,
      "chip": "ym2612"
    },
    {
      "channel": 4,
      "note": 72,
      "start": 56.7385,
      "duration": 0.1178,
      "velocity": 112,
      "chip": "ym2612"
    },
    {
      "channel": 5,
      "note": 56,
      "start": 56.8233,
      "duration": 0.1511,
      "velocity": 102,
      "chip": "ym2612"
    },
    {
      "channel": 0,
      "note": 60,
      "start": 56.882,
      "duration": 0.1511,
      "velocity": 103,
      "chip": "ym2612"
    },
    {
      "channel": 1,
      "note": 67,
      "start": 56.8829,
      "duration": 0.1511,
      "velocity": 103,
      "chip": "ym2612"
    },
    {
      "channel": 2,
      "note": 65,
      "start": 56.8836,
      "duration": 0.0836,
      "velocity": 112,
      "chip": "ym2612"
    },
    {
      "channel": 3,
      "note": 68,
      "start": 56.8843,
      "duration": 0.0497,
      "velocity": 120,
      "chip": "ym2612"
    },
    {
      "channel": 4,
      "note": 84,
      "start": 56.8902,
      "duration": 0.1178,
      "velocity": 110,
      "chip": "ym2612"
    },
    {
      "channel": 5,
      "note": 60,
      "start": 56.975,
      "duration": 0.1511,
      "velocity": 103,
      "chip": "ym2612"
    },
    {
      "channel": 0,
      "note": 53,
      "start": 57.0337,
      "duration": 0.1512,
      "velocity": 104,
      "chip": "ym2612"
    },
    {
      "channel": 1,
      "note": 60,
      "start": 57.0345,
      "duration": 0.1511,
      "velocity": 104,
      "chip": "ym2612"
    },
    {
      "channel": 2,
      "note": 65,
      "start": 57.0352,
      "duration": 0.0837,
      "velocity": 112,
      "chip": "ym2612"
    },
    {
      "channel": 3,
      "note": 56,
      "start": 57.036,
      "duration": 0.0498,
      "velocity": 120,
      "chip": "ym2612"
    },
    {
      "channel": 4,
      "note": 84,
      "start": 57.0418,
      "duration": 0.1178,
      "velocity": 111,
      "chip": "ym2612"
    },
    {
      "channel": 5,
      "note": 53,
      "start": 57.1267,
      "duration": 0.1511,
      "velocity": 104,
      "chip": "ym2612"
    },
    {
      "channel": 0,
      "note": 55,
      "start": 57.1854,
      "duration": 0.1511,
      "velocity": 105,
      "chip": "ym2612"
    },
    {
      "channel": 1,
      "note": 62,
      "start": 57.1862,
      "duration": 0.1512,
      "velocity": 105,
      "chip": "ym2612"
    },
    {
      "channel": 2,
      "note": 65,
      "start": 57.1869,
      "duration": 0.0837,
      "velocity": 112,
      "chip": "ym2612"
    },
    {
      "channel": 3,
      "note": 68,
      "start": 57.1876,
      "duration": 0.0498,
      "velocity": 120,
      "chip": "ym2612"
    },
    {
      "channel": 4,
      "note": 72,
      "start": 57.1935,
      "duration": 0.1178,
      "velocity": 108,
      "chip": "ym2612"
    },
    {
      "channel": 5,
      "note": 55,
      "start": 57.2783,
      "duration": 0.1512,
      "velocity": 105,
      "chip": "ym2612"
    },
    {
      "channel": 0,
      "note": 56,
      "start": 57.3371,
      "duration": 0.1511,
      "velocity": 106,
      "chip": "ym2612"
    },
    {
      "channel": 1,
      "note": 63,
      "start": 57.3379,
      "duration": 0.1511,
      "velocity": 106,
      "chip": "ym2612"
    },
    {
      "channel": 2,
      "note": 65,
      "start": 57.3386,
      "duration": 0.0837,
      "velocity": 112,
      "chip": "ym2612"
    },
    {
      "channel": 3,
      "note": 56,
      "start": 57.3394,
      "duration": 0.0497,
      "velocity": 120,
      "chip": "ym2612"
    },
    {
      "channel": 4,
      "note": 84,
      "start": 57.3451,
      "duration": 0.1178,
      "velocity": 109,
      "chip": "ym2612"
    },
    {
      "channel": 5,
      "note": 56,
      "start": 57.4301,
      "duration": 0.1511,
      "velocity": 106,
      "chip": "ym2612"
    },
    {
      "channel": 0,
      "note": 60,
      "start": 57.4887,
      "duration": 0.1511,
      "velocity": 107,
      "chip": "ym2612"
    },
    {
      "channel": 1,
      "note": 67,
      "start": 57.4895,
      "duration": 0.1512,
      "velocity": 107,
      "chip": "ym2612"
    },
    {
      "channel": 2,
      "note": 65,
      "start": 57.4903,
      "duration": 0.0837,
      "velocity": 112,
      "chip": "ym2612"
    },
    {
      "channel": 3,
      "note": 56,
      "start": 57.4911,
      "duration": 0.0498,
      "velocity": 120,
      "chip": "ym2612"
    },
    {
      "channel": 4,
      "note": 72,
      "start": 57.4969,
      "duration": 0.1177,
      "velocity": 112,
      "chip": "ym2612"
    },
    {
      "channel": 5,
      "note": 60,
      "start": 57.5817,
      "duration": 0.1512,
      "velocity": 107,
      "chip": "ym2612"
    },
    {
      "channel": 0,
      "note": 53,
      "start": 57.6405,
      "duration": 0.151,
      "velocity": 108,
      "chip": "ym2612"
    },
    {
      "channel": 1,
      "note": 60,
      "start": 57.6413,
      "duration": 0.1511,
      "velocity": 108,
      "chip": "ym2612"
    },
    {
      "channel": 2,
      "note": 65,
      "start": 57.642,
      "duration": 0.0836,
      "velocity": 112,
      "chip": "ym2612"
    },
    {
      "channel": 3,
      "note": 68,
      "start": 57.6427,
      "duration": 0.0498,
      "velocity": 120,
      "chip": "ym2612"
    },
    {
      "channel": 4,
      "note": 84,
      "start": 57.6485,
      "duration": 0.1178,
      "velocity": 110,
      "chip": "ym2612"
    },
    {
      "channel": 5,
      "note": 53,
      "start": 57.7334,
      "duration": 0.1511,
      "velocity": 108,
      "chip": "ym2612"
    },
    {
      "channel": 0,
      "note": 55,
      "start": 57.7921,
      "duration": 0.1512,
      "velocity": 109,
      "chip": "ym2612"
    },
    {
      "channel": 1,
      "note": 62,
      "start": 57.7929,
      "duration": 0.1511,
      "velocity": 109,
      "chip": "ym2612"
    },
    {
      "channel": 2,
      "note": 65,
      "start": 57.7936,
      "duration": 0.0837,
      "velocity": 112,
      "chip": "ym2612"
    },
    {
      "channel": 3,
      "note": 56,
      "start": 57.7944,
      "duration": 0.0498,
      "velocity": 120,
      "chip": "ym2612"
    },
    {
      "channel": 4,
      "note": 72,
      "start": 57.8002,
      "duration": 0.1178,
      "velocity": 108,
      "chip": "ym2612"
    },
    {
      "channel": 5,
      "note": 55,
      "start": 57.8851,
      "duration": 0.1511,
      "velocity": 109,
      "chip": "ym2612"
    },
    {
      "channel": 0,
      "note": 56,
      "start": 57.9438,
      "duration": 0.1511,
      "velocity": 110,
      "chip": "ym2612"
    },
    {
      "channel": 1,
      "note": 63,
      "start": 57.9446,
      "duration": 0.1511,
      "velocity": 110,
      "chip": "ym2612"
    },
    {
      "channel": 2,
      "note": 65,
      "start": 57.9453,
      "duration": 0.0837,
      "velocity": 112,
      "chip": "ym2612"
    },
    {
      "channel": 3,
      "note": 68,
      "start": 57.946,
      "duration": 0.0498,
      "velocity": 120,
      "chip": "ym2612"
    },
    {
      "channel": 4,
      "note": 72,
      "start": 57.9519,
      "duration": 0.1178,
      "velocity": 109,
      "chip": "ym2612"
    },
    {
      "channel": 5,
      "note": 56,
      "start": 58.0368,
      "duration": 0.1511,
      "velocity": 110,
      "chip": "ym2612"
    },
    {
      "channel": 0,
      "note": 60,
      "start": 58.0955,
      "duration": 0.1512,
      "velocity": 110,
      "chip": "ym2612"
    },
    {
      "channel": 1,
      "note": 67,
      "start": 58.0963,
      "duration": 0.1511,
      "velocity": 110,
      "chip": "ym2612"
    },
    {
      "channel": 2,
      "note": 65,
      "start": 58.097,
      "duration": 0.0837,
      "velocity": 112,
      "chip": "ym2612"
    },
    {
      "channel": 3,
      "note": 68,
      "start": 58.0978,
      "duration": 0.0498,
      "velocity": 120,
      "chip": "ym2612"
    },
    {
      "channel": 4,
      "note": 84,
      "start": 58.1036,
      "duration": 0.1178,
      "velocity": 112,
      "chip": "ym2612"
    },
    {
      "channel": 5,
      "note": 60,
      "start": 58.1885,
      "duration": 0.1511,
      "velocity": 110,
      "chip": "ym2612"
    },
    {
      "channel": 0,
      "note": 51,
      "start": 58.2472,
      "duration": 0.1511,
      "velocity": 110,
      "chip": "ym2612"
    },
    {
      "channel": 1,
      "note": 58,
      "start": 58.2479,
      "duration": 0.1512,
      "velocity": 110,
      "chip": "ym2612"
    },
    {
      "channel": 2,
      "note": 65,
      "start": 58.2486,
      "duration": 0.0837,
      "velocity": 112,
      "chip": "ym2612"
    },
    {
      "channel": 3,
      "note": 54,
      "start": 58.2494,
      "duration": 0.0498,
      "velocity": 120,
      "chip": "ym2612"
    },
    {
      "channel": 4,
      "note": 70,
      "start": 58.2553,
      "duration": 0.1178,
      "velocity": 108,
      "chip": "ym2612"
    },
    {
      "channel": 5,
      "note": 51,
      "start": 58.3402,
      "duration": 0.1511,
      "velocity": 110,
      "chip": "ym2612"
    },
    {
      "channel": 0,
      "note": 53,
      "start": 58.3988,
      "duration": 0.1511,
      "velocity": 109,
      "chip": "ym2612"
    },
    {
      "channel": 1,
      "note": 60,
      "start": 58.3997,
      "duration": 0.1511,
      "velocity": 109,
      "chip": "ym2612"
    },
    {
      "channel": 2,
      "note": 65,
      "start": 58.4004,
      "duration": 0.0837,
      "velocity": 112,
      "chip": "ym2612"
    },
    {
      "channel": 3,
      "note": 66,
      "start": 58.4011,
      "duration": 0.0497,
      "velocity": 120,
      "chip": "ym2612"
    },
    {
      "channel": 4,
      "note": 82,
      "start": 58.407,
      "duration": 0.1177,
      "velocity": 108,
      "chip": "ym2612"
    },
    {
      "channel": 5,
      "note": 53,
      "start": 58.4918,
      "duration": 0.1511,
      "velocity": 109,
      "chip": "ym2612"
    },
    {
      "channel": 0,
      "note": 54,
      "start": 58.5505,
      "duration": 0.1511,
      "velocity": 108,
      "chip": "ym2612"
    },
    {
      "channel": 1,
      "note": 61,
      "start": 58.5513,
      "duration": 0.1512,
      "velocity": 108,
      "chip": "ym2612"
    },
    {
      "channel": 2,
      "note": 65,
      "start": 58.552,
      "duration": 0.0837,
      "velocity": 112,
      "chip": "ym2612"
    },
    {
      "channel": 3,
      "note": 54,
      "start": 58.5528,
      "duration": 0.0497,
      "velocity": 120,
      "chip": "ym2612"
    },
    {
      "channel": 4,
      "note": 82,
      "start": 58.5586,
      "duration": 0.1177,
      "velocity": 112,
      "chip": "ym2612"
    },
    {
      "channel": 5,
      "note": 54,
      "start": 58.6435,
      "duration": 0.1512,
      "velocity": 108,
      "chip": "ym2612"
    },
    {
      "channel": 0,
      "note": 58,
      "start": 58.7022,
      "duration": 0.1511,
      "velocity": 107,
      "chip": "ym2612"
    },
    {
      "channel": 1,
      "note": 65,
      "start": 58.703,
      "duration": 0.1511,
      "velocity": 107,
      "chip": "ym2612"
    },
    {
      "channel": 2,
      "note": 65,
      "start": 58.7037,
      "duration": 0.0836,
      "velocity": 112,
      "chip": "ym2612"
    },
    {
      "channel": 3,
      "note": 54,
      "start": 58.7045,
      "duration": 0.0498,
      "velocity": 120,
      "chip": "ym2612"
    },
    {
      "channel": 4,
      "note": 70,
      "start": 58.7103,
      "duration": 0.1178,
      "velocity": 109,
      "chip": "ym2612"
    },
    {
      "channel": 5,
      "note": 58,
      "start": 58.7952,
      "duration": 0.1511,
      "velocity": 107,
      "chip": "ym2612"
    },
    {
      "channel": 0,
      "note": 51,
      "start": 58.8539,
      "duration": 0.1512,
      "velocity": 106,
      "chip": "ym2612"
    },
    {
      "channel": 1,
      "note": 58,
      "start": 58.8547,
      "duration": 0.1511,
      "velocity": 106,
      "chip": "ym2612"
    },
    {
      "channel": 2,
      "note": 65,
      "start": 58.8554,
      "duration": 0.0837,
      "velocity": 112,
      "chip": "ym2612"
    },
    {
      "channel": 3,
      "note": 66,
      "start": 58.8561,
      "duration": 0.0498,
      "velocity": 120,
      "chip": "ym2612"
    },
    {
      "channel": 4,
      "note": 82,
      "start": 58.862,
      "duration": 0.1178,
      "velocity": 108,
      "chip": "ym2612"
    },
    {
      "channel": 5,
      "note": 51,
      "start": 58.9469,
      "duration": 0.1511,
      "velocity": 106,
      "chip": "ym2612"
    },
    {
      "channel": 0,
      "note": 53,
      "start": 59.0056,
      "duration": 0.1511,
      "velocity": 105,
      "chip": "ym2612"
    },
    {
      "channel": 1,
      "note": 60,
      "start": 59.0064,
      "duration": 0.1511,
      "velocity": 105,
      "chip": "ym2612"
    },
    {
      "channel": 2,
      "note": 65,
      "start": 59.0071,
      "duration": 0.0837,
      "velocity": 112,
      "chip": "ym2612"
    },
    {
      "channel": 3,
      "note": 54,
      "start": 59.0079,
      "duration": 0.0498,
      "velocity": 120,
      "chip": "ym2612"
    },
    {
      "channel": 4,
      "note": 70,
      "start": 59.0137,
      "duration": 0.1178,
      "velocity": 110,
      "chip": "ym2612"
    },
    {
      "channel": 5,
      "note": 53,
      "start": 59.0985,
      "duration": 0.1511,
      "velocity": 105,
      "chip": "ym2612"
    },
    {
      "channel": 0,
      "note": 54,
      "start": 59.1573,
      "duration": 0.1511,
      "velocity": 104,
      "chip": "ym2612"
    },
    {
      "channel": 1,
      "note": 61,
      "start": 59.1581,
      "duration": 0.151,
      "velocity": 104,
      "chip": "ym2612"
    },
    {
      "channel": 2,
      "note": 65,
      "start": 59.1588,
      "duration": 0.0836,
      "velocity": 112,
      "chip": "ym2612"
    },
    {
      "channel": 3,
      "note": 54,
      "start": 59.1596,
      "duration": 0.0497,
      "velocity": 120,
      "chip": "ym2612"
    },
    {
      "channel": 4,
      "note": 70,
      "start": 59.1653,
      "duration": 0.1178,
      "velocity": 109,
      "chip": "ym2612"
    },
    {
      "channel": 5,
      "note": 54,
      "start": 59.2502,
      "duration": 0.1511,
      "velocity": 104,
      "chip": "ym2612"
    },
    {
      "channel": 0,
      "note": 58,
      "start": 59.309,
      "duration": 0.1511,
      "velocity": 103,
      "chip": "ym2612"
    },
    {
      "channel": 1,
      "note": 65,
      "start": 59.3097,
      "duration": 0.1512,
      "velocity": 103,
      "chip": "ym2612"
    },
    {
      "channel": 2,
      "note": 65,
      "start": 59.3104,
      "duration": 0.0837,
      "velocity": 112,
      "chip": "ym2612"
    },
    {
      "channel": 3,
      "note": 66,
      "start": 59.3112,
      "duration": 0.0498,
      "velocity": 120,
      "chip": "ym2612"
    },
    {
      "channel": 4,
      "note": 82,
      "start": 59.317,
      "duration": 0.1178,
      "velocity": 111,
      "chip": "ym2612"
    },
    {
      "channel": 5,
      "note": 58,
      "start": 59.4019,
      "duration": 0.1512,
      "velocity": 103,
      "chip": "ym2612"
    },
    {
      "channel": 0,
      "note": 51,
      "start": 59.4606,
      "duration": 0.1511,
      "velocity": 102,
      "chip": "ym2612"
    },
    {
      "channel": 1,
      "note": 58,
      "start": 59.4614,
      "duration": 0.1511,
      "velocity": 102,
      "chip": "ym2612"
    },
    {
      "channel": 2,
      "note": 65,
      "start": 59.4621,
      "duration": 0.0837,
      "velocity": 112,
      "chip": "ym2612"
    },
    {
      "channel": 3,
      "note": 54,
      "start": 59.4629,
      "duration": 0.0497,
      "velocity": 120,
      "chip": "ym2612"
    },
    {
      "channel": 4,
      "note": 82,
      "start": 59.4687,
      "duration": 0.1178,
      "velocity": 112,
      "chip": "ym2612"
    },
    {
      "channel": 5,
      "note": 51,
      "start": 59.5536,
      "duration": 0.1511,
      "velocity": 102,
      "chip": "ym2612"
    },
    {
      "channel": 0,
      "note": 53,
      "start": 59.6123,
      "duration": 0.1511,
      "velocity": 101,
      "chip": "ym2612"
    },
    {
      "channel": 1,
      "note": 60,
      "start": 59.6131,
      "duration": 0.1512,
      "velocity": 101,
      "chip": "ym2612"
    },
    {
      "channel": 2,
      "note": 65,
      "start": 59.6138,
      "duration": 0.0837,
      "velocity": 112,
      "chip": "ym2612"
    },
    {
      "channel": 3,
      "note": 66,
      "start": 59.6146,
      "duration": 0.0497,
      "velocity": 120,
      "chip": "ym2612"
    },
    {
      "channel": 4,
      "note": 70,
      "start": 59.6204,
      "duration": 0.1177,
      "velocity": 109,
      "chip": "ym2612"
    },
    {
      "channel": 5,
      "note": 53,
      "start": 59.7053,
      "duration": 0.1512,
      "velocity": 101,
      "chip": "ym2612"
    },
    {
      "channel": 0,
      "note": 54,
      "start": 59.764,
      "duration": 0.1511,
      "velocity": 100,
      "chip": "ym2612"
    },
    {
      "channel": 1,
      "note": 61,
      "start": 59.7648,
      "duration": 0.1511,
      "velocity": 100,
      "chip": "ym2612"
    },
    {
      "channel": 2,
      "note": 65,
      "start": 59.7655,
      "duration": 0.0836,
      "velocity": 112,
      "chip": "ym2612"
    },
    {
      "channel": 3,
      "note": 54,
      "start": 59.7663,
      "duration": 0.0498,
      "velocity": 120,
      "chip": "ym2612"
    },
    {
      "channel": 4,
      "note": 82,
      "start": 59.7721,
      "duration": 0.1178,
      "velocity": 108,
      "chip": "ym2612"
    },
    {
      "channel": 5,
      "note": 54,
      "start": 59.857,
      "duration": 0.1511,
      "velocity": 100,
      "chip": "ym2612"
    },
    {
      "channel": 0,
      "note": 58,
      "start": 59.9156,
      "duration": 0.1512,
      "velocity": 99,
      "chip": "ym2612"
    },
    {
      "channel": 1,
      "note": 65,
      "start": 59.9165,
      "duration": 0.1511,
      "velocity": 99,
      "chip": "ym2612"
    },
    {
      "channel": 2,
      "note": 65,
      "start": 59.9172,
      "duration": 0.0837,
      "velocity": 112,
      "chip": "ym2612"
    },
    {
      "channel": 3,
      "note": 54,
      "start": 59.9179,
      "duration": 0.0498,
      "velocity": 120,
      "chip": "ym2612"
    },
    {
      "channel": 4,
      "note": 70,
      "start": 59.9238,
      "duration": 0.1178,
      "velocity": 112,
      "chip": "ym2612"
    },
    {
      "channel": 5,
      "note": 58,
      "start": 60.0086,
      "duration": 0.1511,
      "velocity": 99,
      "chip": "ym2612"
    },
    {
      "channel": 0,
      "note": 51,
      "start": 60.0673,
      "duration": 0.1511,
      "velocity": 98,
      "chip": "ym2612"
    },
    {
      "channel": 1,
      "note": 58,
      "start": 60.0682,
      "duration": 0.1511,
      "velocity": 98,
      "chip": "ym2612"
    },
    {
      "channel": 2,
      "note": 65,
      "start": 60.0689,
      "duration": 0.0836,
      "velocity": 112,
      "chip": "ym2612"
    },
    {
      "channel": 3,
      "note": 66,
      "start": 60.0696,
      "duration": 0.0497,
      "velocity": 120,
      "chip": "ym2612"
    },
    {
      "channel": 4,
      "note": 70,
      "start": 60.0754,
      "duration": 0.1178,
      "velocity": 111,
      "chip": "ym2612"
    },
    {
      "channel": 5,
      "note": 51,
      "start": 60.1603,
      "duration": 0.1511,
      "velocity": 98,
      "chip": "ym2612"
    },
    {
      "channel": 0,
      "note": 53,
      "start": 60.219,
      "duration": 0.1511,
      "velocity": 97,
      "chip": "ym2612"
    },
    {
      "channel": 1,
      "note": 60,
      "start": 60.2198,
      "duration": 0.1511,
      "velocity": 97,
      "chip": "ym2612"
    },
    {
      "channel": 2,
      "note": 65,
      "start": 60.2205,
      "duration": 0.0837,
      "velocity": 112,
      "chip": "ym2612"
    },
    {
      "channel": 3,
      "note": 54,
      "start": 60.2213,
      "duration": 0.0498,
      "velocity": 120,
      "chip": "ym2612"
    },
    {
      "channel": 4,
      "note": 82,
      "start": 60.2271,
      "duration": 0.1178,
      "velocity": 109,
      "chip": "ym2612"
    },
    {
      "channel": 5,
      "note": 53,
      "start": 60.312,
      "duration": 0.1511,
      "velocity": 97,
      "chip": "ym2612"
    },
    {
      "channel": 0,
      "note": 54,
      "start": 60.3707,
      "duration": 0.1511,
      "velocity": 96,
      "chip": "ym2612"
    },
    {
      "channel": 1,
      "note": 61,
      "start": 60.3715,
      "duration": 0.1512,
      "velocity": 96,
      "chip": "ym2612"
    },
    {
      "channel": 2,
      "note": 65,
      "start": 60.3722,
      "duration": 0.0837,
      "velocity": 112,
      "chip": "ym2612"
    },
    {
      "channel": 3,
      "note": 54,
      "start": 60.3729,
      "duration": 0.0498,
      "velocity": 120,
      "chip": "ym2612"
    },
    {
      "channel": 4,
      "note": 70,
      "start": 60.3788,
      "duration": 0.1178,
      "velocity": 111,
      "chip": "ym2612"
    },
    {
      "channel": 5,
      "note": 54,
      "start": 60.4637,
      "duration": 0.1512,
      "velocity": 96,
      "chip": "ym2612"
    },
    {
      "channel": 0,
      "note": 58,
      "start": 60.5224,
      "duration": 0.1511,
      "velocity": 95,
      "chip": "ym2612"
    },
    {
      "channel": 1,
      "note": 65,
      "start": 60.5232,
      "duration": 0.1512,
      "velocity": 95,
      "chip": "ym2612"
    },
    {
      "channel": 2,
      "note": 65,
      "start": 60.524,
      "duration": 0.0836,
      "velocity": 112,
      "chip": "ym2612"
    },
    {
      "channel": 3,
      "note": 66,
      "start": 60.5247,
      "duration": 0.0497,
      "velocity": 120,
      "chip": "ym2612"
    },
    {
      "channel": 4,
      "note": 70,
      "start": 60.5305,
      "duration": 0.1178,
      "velocity": 112,
      "chip": "ym2612"
    },
    {
      "channel": 5,
      "note": 58,
      "start": 60.6154,
      "duration": 0.1511,
      "velocity": 95,
      "chip": "ym2612"
    },
    {
      "channel": 0,
      "note": 51,
      "start": 60.6741,
      "duration": 0.1511,
      "velocity": 96,
      "chip": "ym2612"
    },
    {
      "channel": 1,
      "note": 58,
      "start": 60.6749,
      "duration": 0.1511,
      "velocity": 96,
      "chip": "ym2612"
    },
    {
      "channel": 2,
      "note": 65,
      "start": 60.6756,
      "duration": 0.0836,
      "velocity": 112,
      "chip": "ym2612"
    },
    {
      "channel": 3,
      "note": 54,
      "start": 60.6764,
      "duration": 0.0497,
      "velocity": 120,
      "chip": "ym2612"
    },
    {
      "channel": 4,
      "note": 70,
      "start": 60.6822,
      "duration": 0.1177,
      "velocity": 108,
      "chip": "ym2612"
    },
    {
      "channel": 5,
      "note": 51,
      "start": 60.767,
      "duration": 0.1512,
      "velocity": 96,
      "chip": "ym2612"
    },
    {
      "channel": 0,
      "note": 53,
      "start": 60.8257,
      "duration": 0.1511,
      "velocity": 97,
      "chip": "ym2612"
    },
    {
      "channel": 1,
      "note": 60,
      "start": 60.8266,
      "duration": 0.1511,
      "velocity": 97,
      "chip": "ym2612"
    },
    {
      "channel": 2,
      "note": 65,
      "start": 60.8273,
      "duration": 0.0836,
      "velocity": 112,
      "chip": "ym2612"
    },
    {
      "channel": 3,
      "note": 66,
      "start": 60.828,
      "duration": 0.0498,
      "velocity": 120,
      "chip": "ym2612"
    },
    {
      "channel": 4,
      "note": 82,
      "start": 60.8338,
      "duration": 0.1178,
      "velocity": 109,
      "chip": "ym2612"
    },
    {
      "channel": 5,
      "note": 53,
      "start": 60.9188,
      "duration": 0.1511,
      "velocity": 97,
      "chip": "ym2612"
    },
    {
      "channel": 0,
      "note": 54,
      "start": 60.9774,
      "duration": 0.1512,
      "velocity": 98,
      "chip": "ym2612"
    },
    {
      "channel": 1,
      "note": 61,
      "start": 60.9782,
      "duration": 0.1511,
      "velocity": 98,
      "chip": "ym2612"
    },
    {
      "channel": 2,
      "note": 65,
      "start": 60.9789,
      "duration": 0.0837,
      "velocity": 112,
      "chip": "ym2612"
    },
    {
      "channel": 3,
      "note": 54,
      "start": 60.9797,
      "duration": 0.0498,
      "velocity": 120,
      "chip": "ym2612"
    },
    {
      "channel": 4,
      "note": 82,
      "start": 60.9855,
      "duration": 0.1178,
      "velocity": 110,
      "chip": "ym2612"
    },
    {
      "channel": 5,
      "note": 54,
      "start": 61.0704,
      "duration": 0.1511,
      "velocity": 98,
      "chip": "ym2612"
    },
    {
      "channel": 0,
      "note": 58,
      "start": 61.1291,
      "duration": 0.1511,
      "velocity": 99,
      "chip": "ym2612"
    },
    {
      "channel": 1,
      "note": 65,
      "start": 61.13,
      "duration": 0.1511,
      "velocity": 99,
      "chip": "ym2612"
    },
    {
      "channel": 2,
      "note": 65,
      "start": 61.1306,
      "duration": 0.0836,
      "velocity": 112,
      "chip": "ym2612"
    },
    {
      "channel": 3,
      "note": 54,
      "start": 61.1314,
      "duration": 0.0497,
      "velocity": 120,
      "chip": "ym2612"
    },
    {
      "channel": 4,
      "note": 70,
      "start": 61.1372,
      "duration": 0.1178,
      "velocity": 111,
      "chip": "ym2612"
    },
    {
      "channel": 5,
      "note": 58,
      "start": 61.2221,
      "duration": 0.1511,
      "velocity": 99,
      "chip": "ym2612"
    },
    {
      "channel": 0,
      "note": 51,
      "start": 61.2808,
      "duration": 0.1511,
      "velocity": 100,
      "chip": "ym2612"
    },
    {
      "channel": 1,
      "note": 58,
      "start": 61.2816,
      "duration": 0.1511,
      "velocity": 100,
      "chip": "ym2612"
    },
    {
      "channel": 2,
      "note": 65,
      "start": 61.2823,
      "duration": 0.0837,
      "velocity": 112,
      "chip": "ym2612"
    },
    {
      "channel": 3,
      "note": 66,
      "start": 61.2831,
      "duration": 0.0498,
      "velocity": 120,
      "chip": "ym2612"
    },
    {
      "channel": 4,
      "note": 82,
      "start": 61.2889,
      "duration": 0.1178,
      "velocity": 108,
      "chip": "ym2612"
    },
    {
      "channel": 5,
      "note": 51,
      "start": 61.3738,
      "duration": 0.151,
      "velocity": 100,
      "chip": "ym2612"
    },
    {
      "channel": 0,
      "note": 53,
      "start": 61.4325,
      "duration": 0.1511,
      "velocity": 101,
      "chip": "ym2612"
    },
    {
      "channel": 1,
      "note": 60,
      "start": 61.4332,
      "duration": 0.1512,
      "velocity": 101,
      "chip": "ym2612"
    },
    {
      "channel": 2,
      "note": 65,
      "start": 61.4339,
      "duration": 0.0837,
      "velocity": 112,
      "chip": "ym2612"
    },
    {
      "channel": 3,
      "note": 54,
      "start": 61.4347,
      "duration": 0.0498,
      "velocity": 120,
      "chip": "ym2612"
    },
    {
      "channel": 4,
      "note": 70,
      "start": 61.4406,
      "duration": 0.1177,
      "velocity": 109,
      "chip": "ym2612"
    },
    {
      "channel": 5,
      "note": 53,
      "start": 61.5254,
      "duration": 0.1512,
      "velocity": 101,
      "chip": "ym2612"
    },
    {
      "channel": 0,
      "note": 54,
      "start": 61.5841,
      "duration": 0.1511,
      "velocity": 102,
      "chip": "ym2612"
    },
    {
      "channel": 1,
      "note": 61,
      "start": 61.585,
      "duration": 0.1511,
      "velocity": 102,
      "chip": "ym2612"
    },
    {
      "channel": 2,
      "note": 65,
      "start": 61.5857,
      "duration": 0.0837,
      "velocity": 112,
      "chip": "ym2612"
    },
    {
      "channel": 3,
      "note": 54,
      "start": 61.5864,
      "duration": 0.0497,
      "velocity": 120,
      "chip": "ym2612"
    },
    {
      "channel": 4,
      "note": 70,
      "start": 61.5922,
      "duration": 0.1178,
      "velocity": 112,
      "chip": "ym2612"
    },
    {
      "channel": 5,
      "note": 54,
      "start": 61.6771,
      "duration": 0.1511,
      "velocity": 102,
      "chip": "ym2612"
    },
    {
      "channel": 0,
      "note": 58,
      "start": 61.7358,
      "duration": 0.1511,
      "velocity": 103,
      "chip": "ym2612"
    },
    {
      "channel": 1,
      "note": 65,
      "start": 61.7366,
      "duration": 0.1512,
      "velocity": 103,
      "chip": "ym2612"
    },
    {
      "channel": 2,
      "note": 65,
      "start": 61.7373,
      "duration": 0.0837,
      "velocity": 112,
      "chip": "ym2612"
    },
    {
      "channel": 3,
      "note": 66,
      "start": 61.7381,
      "duration": 0.0497,
      "velocity": 120,
      "chip": "ym2612"
    },
    {
      "channel": 4,
      "note": 82,
      "start": 61.7439,
      "duration": 0.1177,
      "velocity": 110,
      "chip": "ym2612"
    },
    {
      "channel": 5,
      "note": 58,
      "start": 61.8288,
      "duration": 0.1512,
      "velocity": 103,
      "chip": "ym2612"
    },
    {
      "channel": 0,
      "note": 51,
      "start": 61.8875,
      "duration": 0.1511,
      "velocity": 104,
      "chip": "ym2612"
    },
    {
      "channel": 1,
      "note": 58,
      "start": 61.8883,
      "duration": 0.1511,
      "velocity": 104,
      "chip": "ym2612"
    },
    {
      "channel": 2,
      "note": 65,
      "start": 61.889,
      "duration": 0.0836,
      "velocity": 112,
      "chip": "ym2612"
    },
    {
      "channel": 3,
      "note": 54,
      "start": 61.8898,
      "duration": 0.0498,
      "velocity": 120,
      "chip": "ym2612"
    },
    {
      "channel": 4,
      "note": 82,
      "start": 61.8956,
      "duration": 0.1178,
      "velocity": 111,
      "chip": "ym2612"
    },
    {
      "channel": 5,
      "note": 51,
      "start": 61.9805,
      "duration": 0.1511,
      "velocity": 104,
      "chip": "ym2612"
    },
    {
      "channel": 0,
      "note": 53,
      "start": 62.0392,
      "duration": 0.1512,
      "velocity": 105,
      "chip": "ym2612"
    },
    {
      "channel": 1,
      "note": 60,
      "start": 62.04,
      "duration": 0.1511,
      "velocity": 105,
      "chip": "ym2612"
    },
    {
      "channel": 2,
      "note": 65,
      "start": 62.0407,
      "duration": 0.0837,
      "velocity": 112,
      "chip": "ym2612"
    },
    {
      "channel": 3,
      "note": 66,
      "start": 62.0415,
      "duration": 0.0498,
      "velocity": 120,
      "chip": "ym2612"
    },
    {
      "channel": 4,
      "note": 70,
      "start": 62.0473,
      "duration": 0.1178,
      "velocity": 108,
      "chip": "ym2612"
    },
    {
      "channel": 5,
      "note": 53,
      "start": 62.1322,
      "duration": 0.1511,
      "velocity": 105,
      "chip": "ym2612"
    },
    {
      "channel": 0,
      "note": 54,
      "start": 62.191,
      "duration": 0.151,
      "velocity": 106,
      "chip": "ym2612"
    },
    {
      "channel": 1,
      "note": 61,
      "start": 62.1917,
      "duration": 0.1511,
      "velocity": 106,
      "chip": "ym2612"
    },
    {
      "channel": 2,
      "note": 65,
      "start": 62.1924,
      "duration": 0.0836,
      "velocity": 112,
      "chip": "ym2612"
    },
    {
      "channel": 3,
      "note": 54,
      "start": 62.1932,
      "duration": 0.0497,
      "velocity": 120,
      "chip": "ym2612"
    },
    {
      "channel": 4,
      "note": 82,
      "start": 62.199,
      "duration": 0.1178,
      "velocity": 109,
      "chip": "ym2612"
    },
    {
      "channel": 5,
      "note": 54,
      "start": 62.2838,
      "duration": 0.1511,
      "velocity": 106,
      "chip": "ym2612"
    },
    {
      "channel": 0,
      "note": 58,
      "start": 62.3425,
      "duration": 0.1511,
      "velocity": 107,
      "chip": "ym2612"
    },
    {
      "channel": 1,
      "note": 65,
      "start": 62.3434,
      "duration": 0.1511,
      "velocity": 107,
      "chip": "ym2612"
    },
    {
      "channel": 2,
      "note": 65,
      "start": 62.3441,
      "duration": 0.0837,
      "velocity": 112,
      "chip": "ym2612"
    },
    {
      "channel": 3,
      "note": 54,
      "start": 62.3448,
      "duration": 0.0498,
      "velocity": 120,
      "chip": "ym2612"
    },
    {
      "channel": 4,
      "note": 70,
      "start": 62.3507,
      "duration": 0.1178,
      "velocity": 112,
      "chip": "ym2612"
    },
    {
      "channel": 5,
      "note": 58,
      "start": 62.4355,
      "duration": 0.1511,
      "velocity": 107,
      "chip": "ym2612"
    },
    {
      "channel": 0,
      "note": 51,
      "start": 62.4943,
      "duration": 0.1511,
      "velocity": 108,
      "chip": "ym2612"
    },
    {
      "channel": 1,
      "note": 58,
      "start": 62.495,
      "duration": 0.1512,
      "velocity": 108,
      "chip": "ym2612"
    },
    {
      "channel": 2,
      "note": 65,
      "start": 62.4957,
      "duration": 0.0837,
      "velocity": 112,
      "chip": "ym2612"
    },
    {
      "channel": 3,
      "note": 66,
      "start": 62.4965,
      "duration": 0.0498,
      "velocity": 120,
      "chip": "ym2612"
    },
    {
      "channel": 4,
      "note": 82,
      "start": 62.5023,
      "duration": 0.1178,
      "velocity": 110,
      "chip": "ym2612"
    },
    {
      "channel": 5,
      "note": 51,
      "start": 62.5872,
      "duration": 0.1512,
      "velocity": 108,
      "chip": "ym2612"
    },
    {
      "channel": 0,
      "note": 53,
      "start": 62.6459,
      "duration": 0.1511,
      "velocity": 109,
      "chip": "ym2612"
    },
    {
      "channel": 1,
      "note": 60,
      "start": 62.6467,
      "duration": 0.1511,
      "velocity": 109,
      "chip": "ym2612"
    },
    {
      "channel": 2,
      "note": 65,
      "start": 62.6474,
      "duration": 0.0837,
      "velocity": 112,
      "chip": "ym2612"
    },
    {
      "channel": 3,
      "note": 54,
      "start": 62.6482,
      "duration": 0.0497,
      "velocity": 120,
      "chip": "ym2612"
    },
    {
      "channel": 4,
      "note": 70,
      "start": 62.654,
      "duration": 0.1178,
      "velocity": 108,
      "chip": "ym2612"
    },
    {
      "channel": 5,
      "note": 53,
      "start": 62.7389,
      "duration": 0.1511,
      "velocity": 109,
      "chip": "ym2612"
    },
    {
      "channel": 0,
      "note": 54,
      "start": 62.7976,
      "duration": 0.1511,
      "velocity": 110,
      "chip": "ym2612"
    },
    {
      "channel": 1,
      "note": 61,
      "start": 62.7984,
      "duration": 0.1512,
      "velocity": 110,
      "chip": "ym2612"
    },
    {
      "channel": 2,
      "note": 65,
      "start": 62.7991,
      "duration": 0.0837,
      "velocity": 112,
      "chip": "ym2612"
    },
    {
      "channel": 3,
      "note": 66,
      "start": 62.7999,
      "duration": 0.0497,
      "velocity": 120,
      "chip": "ym2612"
    },
    {
      "channel": 4,
      "note": 70,
      "start": 62.8057,
      "duration": 0.1178,
      "velocity": 109,
      "chip": "ym2612"
    },
    {
      "channel": 5,
      "note": 54,
      "start": 62.8906,
      "duration": 0.1511,
      "velocity": 110,
      "chip": "ym2612"
    },
    {
      "channel": 0,
      "note": 58,
      "start": 62.9493,
      "duration": 0.1511,
      "velocity": 110,
      "chip": "ym2612"
    },
    {
      "channel": 1,
      "note": 65,
      "start": 62.9501,
      "duration": 0.1511,
      "velocity": 110,
      "chip": "ym2612"
    },
    {
      "channel": 2,
      "note": 65,
      "start": 62.9508,
      "duration": 0.0836,
      "velocity": 112,
      "chip": "ym2612"
    },
    {
      "channel": 3,
      "note": 66,
      "start": 62.9516,
      "duration": 0.0497,
      "velocity": 120,
      "chip": "ym2612"
    },
    {
      "channel": 4,
      "note": 82,
      "start": 62.9574,
      "duration": 0.1178,
      "velocity": 112,
      "chip": "ym2612"
    },
    {
      "channel": 5,
      "note": 58,
      "start": 63.0423,
      "duration": 0.1511,
      "velocity": 110,
      "chip": "ym2612"
    },
    {
      "channel": 0,
      "note": 50,
      "start": 63.1009,
      "duration": 0.1512,
      "velocity": 110,
      "chip": "ym2612"
    },
    {
      "channel": 1,
      "note": 57,
      "start": 63.1018,
      "duration": 0.1511,
      "velocity": 110,
      "chip": "ym2612"
    },
    {
      "channel": 2,
      "note": 65,
      "start": 63.1025,
      "duration": 0.0837,
      "velocity": 112,
      "chip": "ym2612"
    },
    {
      "channel": 3,
      "note": 53,
      "start": 63.1032,
      "duration": 0.0498,
      "velocity": 120,
      "chip": "ym2612"
    },
    {
      "channel": 4,
      "note": 69,
      "start": 63.1091,
      "duration": 0.1178,
      "velocity": 108,
      "chip": "ym2612"
    },
    {
      "channel": 5,
      "note": 50,
      "start": 63.1939,
      "duration": 0.1511,
      "velocity": 110,
      "chip": "ym2612"
    },
    {
      "channel": 0,
      "note": 52,
      "start": 63.2527,
      "duration": 0.1511,
      "velocity": 109,
      "chip": "ym2612"
    },
    {
      "channel": 1,
      "note": 59,
      "start": 63.2535,
      "duration": 0.1511,
      "velocity": 109,
      "chip": "ym2612"
    },
    {
      "channel": 2,
      "note": 65,
      "start": 63.2542,
      "duration": 0.0836,
      "velocity": 112,
      "chip": "ym2612"
    },
    {
      "channel": 3,
      "note": 65,
      "start": 63.2549,
      "duration": 0.0497,
      "velocity": 120,
      "chip": "ym2612"
    },
    {
      "channel": 4,
      "note": 81,
      "start": 63.2607,
      "duration": 0.1178,
      "velocity": 108,
      "chip": "ym2612"
    },
    {
      "channel": 5,
      "note": 52,
      "start": 63.3456,
      "duration": 0.1511,
      "velocity": 109,
      "chip": "ym2612"
    },
    {
      "channel": 0,
      "note": 53,
      "start": 63.4043,
      "duration": 0.1511,
      "velocity": 108,
      "chip": "ym2612"
    },
    {
      "channel": 1,
      "note": 60,
      "start": 63.4051,
      "duration": 0.1511,
      "velocity": 108,
      "chip": "ym2612"
    },
    {
      "channel": 2,
      "note": 65,
      "start": 63.4058,
      "duration": 0.0837,
      "velocity": 112,
      "chip": "ym2612"
    },
    {
      "channel": 3,
      "note": 53,
      "start": 63.4066,
      "duration": 0.0498,
      "velocity": 120,
      "chip": "ym2612"
    },
    {
      "channel": 4,
      "note": 81,
      "start": 63.4124,
      "duration": 0.1178,
      "velocity": 112,
      "chip": "ym2612"
    },
    {
      "channel": 5,
      "note": 53,
      "start": 63.4973,
      "duration": 0.1511,
      "velocity": 108,
      "chip": "ym2612"
    },
    {
      "channel": 0,
      "note": 57,
      "start": 63.556,
      "duration": 0.1511,
      "velocity": 107,
      "chip": "ym2612"
    },
    {
      "channel": 1,
      "note": 64,
      "start": 63.5568,
      "duration": 0.1512,
      "velocity": 107,
      "chip": "ym2612"
    },
    {
      "channel": 2,
      "note": 65,
      "start": 63.5576,
      "duration": 0.0837,
      "velocity": 112,
      "chip": "ym2612"
    },
    {
      "channel": 3,
      "note": 53,
      "start": 63.5583,
      "duration": 0.0497,
      "velocity": 120,
      "chip": "ym2612"
    },
    {
      "channel": 4,
      "note": 69,
      "start": 63.5641,
      "duration": 0.1178,
      "velocity": 109,
      "chip": "ym2612"
    },
    {
      "channel": 5,
      "note": 57,
      "start": 63.649,
      "duration": 0.1512,
      "velocity": 107,
      "chip": "ym2612"
    },
    {
      "channel": 0,
      "note": 50,
      "start": 63.7077,
      "duration": 0.151,
      "velocity": 106,
      "chip": "ym2612"
    },
    {
      "channel": 1,
      "note": 57,
      "start": 63.7086,
      "duration": 0.151,
      "velocity": 106,
      "chip": "ym2612"
    },
    {
      "channel": 2,
      "note": 65,
      "start": 63.7093,
      "duration": 0.0836,
      "velocity": 112,
      "chip": "ym2612"
    },
    {
      "channel": 3,
      "note": 65,
      "start": 63.71,
      "duration": 0.0497,
      "velocity": 120,
      "chip": "ym2612"
    },
    {
      "channel": 4,
      "note": 81,
      "start": 63.7158,
      "duration": 0.1178,
      "velocity": 108,
      "chip": "ym2612"
    },
    {
      "channel": 5,
      "note": 50,
      "start": 63.8007,
      "duration": 0.1511,
      "velocity": 106,
      "chip": "ym2612"
    },
    {
      "channel": 0,
      "note": 52,
      "start": 63.8593,
      "duration": 0.1511,
      "velocity": 105,
      "chip": "ym2612"
    },
    {
      "channel": 1,
      "note": 59,
      "start": 63.8602,
      "duration": 0.1512,
      "velocity": 105,
      "chip": "ym2612"
    },
    {
      "channel": 2,
      "note": 65,
      "start": 63.8609,
      "duration": 0.0837,
      "velocity": 112,
      "chip": "ym2612"
    },
    {
      "channel": 3,
      "note": 53,
      "start": 63.8616,
      "duration": 0.0497,
      "velocity": 120,
      "chip": "ym2612"
    },
    {
      "channel": 4,
      "note": 69,
      "start": 63.8675,
      "duration": 0.1177,
      "velocity": 110,
      "chip": "ym2612"
    },
    {
      "channel": 5,
      "note": 52,
      "start": 63.9523,
      "duration": 0.1511,
      "velocity": 105,
      "chip": "ym2612"
    },
    {
      "channel": 0,
      "note": 53,
      "start": 64.011,
      "duration": 0.1511,
      "velocity": 104,
      "chip": "ym2612"
    },
    {
      "channel": 1,
      "note": 60,
      "start": 64.0119,
      "duration": 0.1511,
      "velocity": 104,
      "chip": "ym2612"
    },
    {
      "channel": 2,
      "note": 65,
      "start": 64.0126,
      "duration": 0.0836,
      "velocity": 112,
      "chip": "ym2612"
    },
    {
      "channel": 3,
      "note": 53,
      "start": 64.0133,
      "duration": 0.0497,
      "velocity": 120,
      "chip": "ym2612"
    },
    {
      "channel": 4,
      "note": 69,
      "start": 64.0191,
      "duration": 0.1178,
      "velocity": 109,
      "chip": "ym2612"
    },
    {
      "channel": 5,
      "note": 53,
      "start": 64.1041,
      "duration": 0.1511,
      "velocity": 104,
      "chip": "ym2612"
    },
    {
      "channel": 0,
      "note": 57,
      "start": 64.1627,
      "duration": 0.1512,
      "velocity": 103,
      "chip": "ym2612"
    },
    {
      "channel": 1,
      "note": 64,
      "start": 64.1635,
      "duration": 0.1511,
      "velocity": 103,
      "chip": "ym2612"
    },
    {
      "channel": 2,
      "note": 65,
      "start": 64.1642,
      "duration": 0.0837,
      "velocity": 112,
      "chip": "ym2612"
    },
    {
      "channel": 3,
      "note": 65,
      "start": 64.165,
      "duration": 0.0498,
      "velocity": 120,
      "chip": "ym2612"
    },
    {
      "channel": 4,
      "note": 81,
      "start": 64.1708,
      "duration": 0.1178,
      "velocity": 111,
      "chip": "ym2612"
    },
    {
      "channel": 5,
      "note": 57,
      "start": 64.2557,
      "duration": 0.1511,
      "velocity": 103,
      "chip": "ym2612"
    },
    {
      "channel": 0,
      "note": 50,
      "start": 64.3144,
      "duration": 0.1511,
      "velocity": 102,
      "chip": "ym2612"
    },
    {
      "channel": 1,
      "note": 57,
      "start": 64.3152,
      "duration": 0.1511,
      "velocity": 102,
      "chip": "ym2612"
    },
    {
      "channel": 2,
      "note": 65,
      "start": 64.3159,
      "duration": 0.0836,
      "velocity": 112,
      "chip": "ym2612"
    },
    {
      "channel": 3,
      "note": 53,
      "start": 64.3167,
      "duration": 0.0497,
      "velocity": 120,
      "chip": "ym2612"
    },
    {
      "channel": 4,
      "note": 81,
      "start": 64.3225,
      "duration": 0.1178,
      "velocity": 112,
      "chip": "ym2612"
    },
    {
      "channel": 5,
      "note": 50,
      "start": 64.4074,
      "duration": 0.1511,
      "velocity": 102,
      "chip": "ym2612"
    },
    {
      "channel": 0,
      "note": 52,
      "start": 64.4661,
      "duration": 0.1511,
      "velocity": 101,
      "chip": "ym2612"
    },
    {
      "channel": 1,
      "note": 59,
      "start": 64.4669,
      "duration": 0.1511,
      "velocity": 101,
      "chip": "ym2612"
    },
    {
      "channel": 2,
      "note": 65,
      "start": 64.4676,
      "duration": 0.0837,
      "velocity": 112,
      "chip": "ym2612"
    },
    {
      "channel": 3,
      "note": 65,
      "start": 64.4684,
      "duration": 0.0498,
      "velocity": 120,
      "chip": "ym2612"
    },
    {
      "channel": 4,
      "note": 69,
      "start": 64.4741,
      "duration": 0.1178,
      "velocity": 109,
      "chip": "ym2612"
    },
    {
      "channel": 5,
      "note": 52,
      "start": 64.5591,
      "duration": 0.1511,
      "velocity": 101,
      "chip": "ym2612"
    },
    {
      "channel": 0,
      "note": 53,
      "start": 64.6178,
      "duration": 0.1511,
      "velocity": 100,
      "chip": "ym2612"
    },
    {
      "channel": 1,
      "note": 60,
      "start": 64.6185,
      "duration": 0.1512,
      "velocity": 100,
      "chip": "ym2612"
    },
    {
      "channel": 2,
      "note": 65,
      "start": 64.6193,
      "duration": 0.0837,
      "velocity": 112,
      "chip": "ym2612"
    },
    {
      "channel": 3,
      "note": 53,
      "start": 64.62,
      "duration": 0.0498,
      "velocity": 120,
      "chip": "ym2612"
    },
    {
      "channel": 4,
      "note": 81,
      "start": 64.6259,
      "duration": 0.1178,
      "velocity": 108,
      "chip": "ym2612"
    },
    {
      "channel": 5,
      "note": 53,
      "start": 64.7107,
      "duration": 0.1512,
      "velocity": 100,
      "chip": "ym2612"
    },
    {
      "channel": 0,
      "note": 57,
      "start": 64.7695,
      "duration": 0.1511,
      "velocity": 99,
      "chip": "ym2612"
    },
    {
      "channel": 1,
      "note": 64,
      "start": 64.7703,
      "duration": 0.1511,
      "velocity": 99,
      "chip": "ym2612"
    },
    {
      "channel": 2,
      "note": 65,
      "start": 64.771,
      "duration": 0.0837,
      "velocity": 112,
      "chip": "ym2612"
    },
    {
      "channel": 3,
      "note": 53,
      "start": 64.7717,
      "duration": 0.0497,
      "velocity": 120,
      "chip": "ym2612"
    },
    {
      "channel": 4,
      "note": 69,
      "start": 64.7775,
      "duration": 0.1178,
      "velocity": 112,
      "chip": "ym2612"
    },
    {
      "channel": 5,
      "note": 57,
      "start": 64.8624,
      "duration": 0.1511,
      "velocity": 99,
      "chip": "ym2612"
    },
    {
      "channel": 0,
      "note": 50,
      "start": 64.9211,
      "duration": 0.1511,
      "velocity": 98,
      "chip": "ym2612"
    },
    {
      "channel": 1,
      "note": 57,
      "start": 64.9219,
      "duration": 0.1512,
      "velocity": 98,
      "chip": "ym2612"
    },
    {
      "channel": 2,
      "note": 65,
      "start": 64.9226,
      "duration": 0.0837,
      "velocity": 112,
      "chip": "ym2612"
    },
    {
      "channel": 3,
      "note": 65,
      "start": 64.9234,
      "duration": 0.0497,
      "velocity": 120,
      "chip": "ym2612"
    },
    {
      "channel": 4,
      "note": 69,
      "start": 64.9293,
      "duration": 0.1177,
      "velocity": 111,
      "chip": "ym2612"
    },
    {
      "channel": 5,
      "note": 50,
      "start": 65.0141,
      "duration": 0.1511,
      "velocity": 98,
      "chip": "ym2612"
    },
    {
      "channel": 0,
      "note": 52,
      "start": 65.0728,
      "duration": 0.1512,
      "velocity": 97,
      "chip": "ym2612"
    },
    {
      "channel": 1,
      "note": 59,
      "start": 65.0737,
      "duration": 0.1511,
      "velocity": 97,
      "chip": "ym2612"
    },
    {
      "channel": 2,
      "note": 65,
      "start": 65.0744,
      "duration": 0.0837,
      "velocity": 112,
      "chip": "ym2612"
    },
    {
      "channel": 3,
      "note": 53,
      "start": 65.0751,
      "duration": 0.0498,
      "velocity": 120,
      "chip": "ym2612"
    },
    {
      "channel": 4,
      "note": 81,
      "start": 65.0809,
      "duration": 0.1178,
      "velocity": 109,
      "chip": "ym2612"
    },
    {
      "channel": 5,
      "note": 52,
      "start": 65.1658,
      "duration": 0.1511,
      "velocity": 97,
      "chip": "ym2612"
    },
    {
      "channel": 0,
      "note": 53,
      "start": 65.2245,
      "duration": 0.1511,
      "velocity": 96,
      "chip": "ym2612"
    },
    {
      "channel": 1,
      "note": 60,
      "start": 65.2253,
      "duration": 0.1511,
      "velocity": 96,
      "chip": "ym2612"
    },
    {
      "channel": 2,
      "note": 65,
      "start": 65.226,
      "duration": 0.0837,
      "velocity": 112,
      "chip": "ym2612"
    },
    {
      "channel": 3,
      "note": 53,
      "start": 65.2268,
      "duration": 0.0498,
      "velocity": 120,
      "chip": "ym2612"
    },
    {
      "channel": 4,
      "note": 69,
      "start": 65.2326,
      "duration": 0.1178,
      "velocity": 111,
      "chip": "ym2612"
    },
    {
      "channel": 5,
      "note": 53,
      "start": 65.3175,
      "duration": 0.1511,
      "velocity": 96,
      "chip": "ym2612"
    },
    {
      "channel": 0,
      "note": 57,
      "start": 65.3762,
      "duration": 0.1511,
      "velocity": 95,
      "chip": "ym2612"
    },
    {
      "channel": 1,
      "note": 64,
      "start": 65.377,
      "duration": 0.1511,
      "velocity": 95,
      "chip": "ym2612"
    },
    {
      "channel": 2,
      "note": 65,
      "start": 65.3777,
      "duration": 0.0836,
      "velocity": 112,
      "chip": "ym2612"
    },
    {
      "channel": 3,
      "note": 65,
      "start": 65.3785,
      "duration": 0.0497,
      "velocity": 120,
      "chip": "ym2612"
    },
    {
      "channel": 4,
      "note": 69,
      "start": 65.3843,
      "duration": 0.1178,
      "velocity": 112,
      "chip": "ym2612"
    },
    {
      "channel": 5,
      "note": 57,
      "start": 65.4691,
      "duration": 0.1511,
      "velocity": 95,
      "chip": "ym2612"
    },
    {
      "channel": 0,
      "note": 50,
      "start": 65.5278,
      "duration": 0.1511,
      "velocity": 96,
      "chip": "ym2612"
    },
    {
      "channel": 1,
      "note": 57,
      "start": 65.5287,
      "duration": 0.1511,
      "velocity": 96,
      "chip": "ym2612"
    },
    {
      "channel": 2,
      "note": 65,
      "start": 65.5294,
      "duration": 0.0837,
      "velocity": 112,
      "chip": "ym2612"
    },
    {
      "channel": 3,
      "note": 53,
      "start": 65.5301,
      "duration": 0.0498,
      "velocity": 120,
      "chip": "ym2612"
    },
    {
      "channel": 4,
      "note": 69,
      "start": 65.5359,
      "duration": 0.1178,
      "velocity": 108,
      "chip": "ym2612"
    },
    {
      "channel": 5,
      "note": 50,
      "start": 65.6208,
      "duration": 0.1511,
      "velocity": 96,
      "chip": "ym2612"
    },
    {
      "channel": 0,
      "note": 52,
      "start": 65.6796,
      "duration": 0.1511,
      "velocity": 97,
      "chip": "ym2612"
    },
    {
      "channel": 1,
      "note": 59,
      "start": 65.6803,
      "duration": 0.1512,
      "velocity": 97,
      "chip": "ym2612"
    },
    {
      "channel": 2,
      "note": 65,
      "start": 65.681,
      "duration": 0.0837,
      "velocity": 112,
      "chip": "ym2612"
    },
    {
      "channel": 3,
      "note": 65,
      "start": 65.6818,
      "duration": 0.0498,
      "velocity": 120,
      "chip": "ym2612"
    },
    {
      "channel": 4,
      "note": 81,
      "start": 65.6876,
      "duration": 0.1178,
      "velocity": 109,
      "chip": "ym2612"
    },
    {
      "channel": 5,
      "note": 52,
      "start": 65.7725,
      "duration": 0.1512,
      "velocity": 97,
      "chip": "ym2612"
    },
    {
      "channel": 0,
      "note": 53,
      "start": 65.8312,
      "duration": 0.1511,
      "velocity": 98,
      "chip": "ym2612"
    },
    {
      "channel": 1,
      "note": 60,
      "start": 65.832,
      "duration": 0.1511,
      "velocity": 98,
      "chip": "ym2612"
    },
    {
      "channel": 2,
      "note": 65,
      "start": 65.8327,
      "duration": 0.0837,
      "velocity": 112,
      "chip": "ym2612"
    },
    {
      "channel": 3,
      "note": 53,
      "start": 65.8335,
      "duration": 0.0497,
      "velocity": 120,
      "chip": "ym2612"
    },
    {
      "channel": 4,
      "note": 81,
      "start": 65.8393,
      "duration": 0.1179,
      "velocity": 110,
      "chip": "ym2612"
    },
    {
      "channel": 5,
      "note": 53,
      "start": 65.9242,
      "duration": 0.1511,
      "velocity": 98,
      "chip": "ym2612"
    },
    {
      "channel": 0,
      "note": 57,
      "start": 65.9829,
      "duration": 0.1511,
      "velocity": 99,
      "chip": "ym2612"
    },
    {
      "channel": 1,
      "note": 64,
      "start": 65.9837,
      "duration": 0.1512,
      "velocity": 99,
      "chip": "ym2612"
    },
    {
      "channel": 2,
      "note": 65,
      "start": 65.9844,
      "duration": 0.0837,
      "velocity": 112,
      "chip": "ym2612"
    },
    {
      "channel": 3,
      "note": 53,
      "start": 65.9852,
      "duration": 0.0497,
      "velocity": 120,
      "chip": "ym2612"
    },
    {
      "channel": 4,
      "note": 69,
      "start": 65.991,
      "duration": 0.1177,
      "velocity": 111,
      "chip": "ym2612"
    },
    {
      "channel": 5,
      "note": 57,
      "start": 66.0759,
      "duration": 0.1511,
      "velocity": 99,
      "chip": "ym2612"
    },
    {
      "channel": 0,
      "note": 50,
      "start": 66.1346,
      "duration": 0.1511,
      "velocity": 100,
      "chip": "ym2612"
    },
    {
      "channel": 1,
      "note": 57,
      "start": 66.1354,
      "duration": 0.1511,
      "velocity": 100,
      "chip": "ym2612"
    },
    {
      "channel": 2,
      "note": 65,
      "start": 66.1361,
      "duration": 0.0836,
      "velocity": 112,
      "chip": "ym2612"
    },
    {
      "channel": 3,
      "note": 65,
      "start": 66.1369,
      "duration": 0.0497,
      "velocity": 120,
      "chip": "ym2612"
    },
    {
      "channel": 4,
      "note": 81,
      "start": 66.1427,
      "duration": 0.1178,
      "velocity": 108,
      "chip": "ym2612"
    },
    {
      "channel": 5,
      "note": 50,
      "start": 66.2275,
      "duration": 0.1511,
      "velocity": 100,
      "chip": "ym2612"
    },
    {
      "channel": 0,
      "note": 52,
      "start": 66.2862,
      "duration": 0.1512,
      "velocity": 101,
      "chip": "ym2612"
    },
    {
      "channel": 1,
      "note": 59,
      "start": 66.2871,
      "duration": 0.1511,
      "velocity": 101,
      "chip": "ym2612"
    },
    {
      "channel": 2,
      "note": 65,
      "start": 66.2878,
      "duration": 0.0837,
      "velocity": 112,
      "chip": "ym2612"
    },
    {
      "channel": 3,
      "note": 53,
      "start": 66.2885,
      "duration": 0.0498,
      "velocity": 120,
      "chip": "ym2612"
    },
    {
      "channel": 4,
      "note": 69,
      "start": 66.2944,
      "duration": 0.1178,
      "velocity": 109,
      "chip": "ym2612"
    },
    {
      "channel": 5,
      "note": 52,
      "start": 66.3793,
      "duration": 0.1511,
      "velocity": 101,
      "chip": "ym2612"
    },
    {
      "channel": 0,
      "note": 53,
      "start": 66.438,
      "duration": 0.1511,
      "velocity": 102,
      "chip": "ym2612"
    },
    {
      "channel": 1,
      "note": 60,
      "start": 66.4388,
      "duration": 0.1511,
      "velocity": 102,
      "chip": "ym2612"
    },
    {
      "channel": 2,
      "note": 65,
      "start": 66.4395,
      "duration": 0.0836,
      "velocity": 112,
      "chip": "ym2612"
    },
    {
      "channel": 3,
      "note": 53,
      "start": 66.4402,
      "duration": 0.0497,
      "velocity": 120,
      "chip": "ym2612"
    },
    {
      "channel": 4,
      "note": 69,
      "start": 66.446,
      "duration": 0.1178,
      "velocity": 112,
      "chip": "ym2612"
    },
    {
      "channel": 5,
      "note": 53,
      "start": 66.5309,
      "duration": 0.1511,
      "velocity": 102,
      "chip": "ym2612"
    },
    {
      "channel": 0,
      "note": 57,
      "start": 66.5896,
      "duration": 0.1511,
      "velocity": 103,
      "chip": "ym2612"
    },
    {
      "channel": 1,
      "note": 64,
      "start": 66.5905,
      "duration": 0.151,
      "velocity": 103,
      "chip": "ym2612"
    },
    {
      "channel": 2,
      "note": 65,
      "start": 66.5912,
      "duration": 0.0837,
      "velocity": 112,
      "chip": "ym2612"
    },
    {
      "channel": 3,
      "note": 65,
      "start": 66.592,
      "duration": 0.0497,
      "velocity": 120,
      "chip": "ym2612"
    },
    {
      "channel": 4,
      "note": 81,
      "start": 66.5977,
      "duration": 0.1178,
      "velocity": 110,
      "chip": "ym2612"
    },
    {
      "channel": 5,
      "note": 57,
      "start": 66.6826,
      "duration": 0.1511,
      "velocity": 103,
      "chip": "ym2612"
    },
    {
      "channel": 0,
      "note": 50,
      "start": 66.7413,
      "duration": 0.1511,
      "velocity": 104,
      "chip": "ym2612"
    },
    {
      "channel": 1,
      "note": 57,
      "start": 66.7421,
      "duration": 0.1512,
      "velocity": 104,
      "chip": "ym2612"
    },
    {
      "channel": 2,
      "note": 65,
      "start": 66.7428,
      "duration": 0.0837,
      "velocity": 112,
      "chip": "ym2612"
    },
    {
      "channel": 3,
      "note": 53,
      "start": 66.7436,
      "duration": 0.0498,
      "velocity": 120,
      "chip": "ym2612"
    },
    {
      "channel": 4,
      "note": 81,
      "start": 66.7494,
      "duration": 0.1178,
      "velocity": 111,
      "chip": "ym2612"
    },
    {
      "channel": 5,
      "note": 50,
      "start": 66.8343,
      "duration": 0.1512,
      "velocity": 104,
      "chip": "ym2612"
    },
    {
      "channel": 0,
      "note": 52,
      "start": 66.893,
      "duration": 0.1511,
      "velocity": 105,
      "chip": "ym2612"
    },
    {
      "channel": 1,
      "note": 59,
      "start": 66.8938,
      "duration": 0.1511,
      "velocity": 105,
      "chip": "ym2612"
    },
    {
      "channel": 2,
      "note": 65,
      "start": 66.8945,
      "duration": 0.0837,
      "velocity": 112,
      "chip": "ym2612"
    },
    {
      "channel": 3,
      "note": 65,
      "start": 66.8953,
      "duration": 0.0497,
      "velocity": 120,
      "chip": "ym2612"
    },
    {
      "channel": 4,
      "note": 69,
      "start": 66.9011,
      "duration": 0.1178,
      "velocity": 108,
      "chip": "ym2612"
    },
    {
      "channel": 5,
      "note": 52,
      "start": 66.986,
      "duration": 0.1511,
      "velocity": 105,
      "chip": "ym2612"
    },
    {
      "channel": 0,
      "note": 53,
      "start": 67.0446,
      "duration": 0.1511,
      "velocity": 106,
      "chip": "ym2612"
    },
    {
      "channel": 1,
      "note": 60,
      "start": 67.0455,
      "duration": 0.1512,
      "velocity": 106,
      "chip": "ym2612"
    },
    {
      "channel": 2,
      "note": 65,
      "start": 67.0462,
      "duration": 0.0837,
      "velocity": 112,
      "chip": "ym2612"
    },
    {
      "channel": 3,
      "note": 53,
      "start": 67.0469,
      "duration": 0.0497,
      "velocity": 120,
      "chip": "ym2612"
    },
    {
      "channel": 4,
      "note": 81,
      "start": 67.0528,
      "duration": 0.1177,
      "velocity": 109,
      "chip": "ym2612"
    },
    {
      "channel": 5,
      "note": 53,
      "start": 67.1376,
      "duration": 0.1511,
      "velocity": 106,
      "chip": "ym2612"
    },
    {
      "channel": 0,
      "note": 57,
      "start": 67.1963,
      "duration": 0.1511,
      "velocity": 107,
      "chip": "ym2612"
    },
    {
      "channel": 1,
      "note": 64,
      "start": 67.1972,
      "duration": 0.1511,
      "velocity": 107,
      "chip": "ym2612"
    },
    {
      "channel": 2,
      "note": 65,
      "start": 67.1979,
      "duration": 0.0836,
      "velocity": 112,
      "chip": "ym2612"
    },
    {
      "channel": 3,
      "note": 53,
      "start": 67.1986,
      "duration": 0.0498,
      "velocity": 120,
      "chip": "ym2612"
    },
    {
      "channel": 4,
      "note": 69,
      "start": 67.2044,
      "duration": 0.1178,
      "velocity": 112,
      "chip": "ym2612"
    },
    {
      "channel": 5,
      "note": 57,
      "start": 67.2893,
      "duration": 0.1512,
      "velocity": 107,
      "chip": "ym2612"
    },
    {
      "channel": 0,
      "note": 50,
      "start": 67.348,
      "duration": 0.1512,
      "velocity": 108,
      "chip": "ym2612"
    },
    {
      "channel": 1,
      "note": 57,
      "start": 67.3488,
      "duration": 0.1511,
      "velocity": 108,
      "chip": "ym2612"
    },
    {
      "channel": 2,
      "note": 65,
      "start": 67.3495,
      "duration": 0.0837,
      "velocity": 112,
      "chip": "ym2612"
    },
    {
      "channel": 3,
      "note": 65,
      "start": 67.3503,
      "duration": 0.0498,
      "velocity": 120,
      "chip": "ym2612"
    },
    {
      "channel": 4,
      "note": 81,
      "start": 67.3561,
      "duration": 0.1178,
      "velocity": 110,
      "chip": "ym2612"
    },
    {
      "channel": 5,
      "note": 50,
      "start": 67.4411,
      "duration": 0.151,
      "velocity": 108,
      "chip": "ym2612"
    },
    {
      "channel": 0,
      "note": 52,
      "start": 67.4997,
      "duration": 0.1511,
      "velocity": 109,
      "chip": "ym2612"
    },
    {
      "channel": 1,
      "note": 59,
      "start": 67.5005,
      "duration": 0.1511,
      "velocity": 109,
      "chip": "ym2612"
    },
    {
      "channel": 2,
      "note": 65,
      "start": 67.5012,
      "duration": 0.0836,
      "velocity": 112,
      "chip": "ym2612"
    },
    {
      "channel": 3,
      "note": 53,
      "start": 67.502,
      "duration": 0.0497,
      "velocity": 120,
      "chip": "ym2612"
    },
    {
      "channel": 4,
      "note": 69,
      "start": 67.5078,
      "duration": 0.1178,
      "velocity": 108,
      "chip": "ym2612"
    },
    {
      "channel": 5,
      "note": 52,
      "start": 67.5927,
      "duration": 0.1511,
      "velocity": 109,
      "chip": "ym2612"
    },
    {
      "channel": 0,
      "note": 53,
      "start": 67.6514,
      "duration": 0.1511,
      "velocity": 110,
      "chip": "ym2612"
    },
    {
      "channel": 1,
      "note": 60,
      "start": 67.6522,
      "duration": 0.1511,
      "velocity": 110,
      "chip": "ym2612"
    },
    {
      "channel": 2,
      "note": 65,
      "start": 67.6529,
      "duration": 0.0837,
      "velocity": 112,
      "chip": "ym2612"
    },
    {
      "channel": 3,
      "note": 65,
      "start": 67.6537,
      "duration": 0.0498,
      "velocity": 120,
      "chip": "ym2612"
    },
    {
      "channel": 4,
      "note": 69,
      "start": 67.6595,
      "duration": 0.1178,
      "velocity": 109,
      "chip": "ym2612"
    },
    {
      "channel": 5,
      "note": 53,
      "start": 67.7444,
      "duration": 0.1511,
      "velocity": 110,
      "chip": "ym2612"
    },
    {
      "channel": 0,
      "note": 57,
      "start": 67.8031,
      "duration": 0.1511,
      "velocity": 110,
      "chip": "ym2612"
    },
    {
      "channel": 1,
      "note": 64,
      "start": 67.8039,
      "duration": 0.1512,
      "velocity": 110,
      "chip": "ym2612"
    },
    {
      "channel": 2,
      "note": 65,
      "start": 67.8046,
      "duration": 0.0837,
      "velocity": 112,
      "chip": "ym2612"
    },
    {
      "channel": 3,
      "note": 65,
      "start": 67.8053,
      "duration": 0.0498,
      "velocity": 120,
      "chip": "ym2612"
    },
    {
      "channel": 4,
      "note": 81,
      "start": 67.8112,
      "duration": 0.1178,
      "velocity": 112,
      "chip": "ym2612"
    },
    {
      "channel": 5,
      "note": 57,
      "start": 67.896,
      "duration": 0.1512,
      "velocity": 110,
      "chip": "ym2612"
    },
    {
      "channel": 0,
      "note": 49,
      "start": 67.9548,
      "duration": 0.1511,
      "velocity": 110,
      "chip": "ym2612"
    },
    {
      "channel": 1,
      "note": 56,
      "start": 67.9556,
      "duration": 0.1511,
      "velocity": 110,
      "chip": "ym2612"
    },
    {
      "channel": 2,
      "note": 65,
      "start": 67.9563,
      "duration": 0.0837,
      "velocity": 112,
      "chip": "ym2612"
    },
    {
      "channel": 3,
      "note": 52,
      "start": 67.9571,
      "duration": 0.0497,
      "velocity": 120,
      "chip": "ym2612"
    },
    {
      "channel": 4,
      "note": 68,
      "start": 67.9628,
      "duration": 0.1178,
      "velocity": 108,
      "chip": "ym2612"
    },
    {
      "channel": 5,
      "note": 49,
      "start": 68.0478,
      "duration": 0.1511,
      "velocity": 110,
      "chip": "ym2612"
    },
    {
      "channel": 0,
      "note": 51,
      "start": 68.1064,
      "duration": 0.1511,
      "velocity": 109,
      "chip": "ym2612"
    },
    {
      "channel": 1,
      "note": 58,
      "start": 68.1073,
      "duration": 0.1511,
      "velocity": 109,
      "chip": "ym2612"
    },
    {
      "channel": 2,
      "note": 65,
      "start": 68.108,
      "duration": 0.0837,
      "velocity": 112,
      "chip": "ym2612"
    },
    {
      "channel": 3,
      "note": 64,
      "start": 68.1088,
      "duration": 0.0498,
      "velocity": 120,
      "chip": "ym2612"
    },
    {
      "channel": 4,
      "note": 80,
      "start": 68.1146,
      "duration": 0.1177,
      "velocity": 108,
      "chip": "ym2612"
    },
    {
      "channel": 5,
      "note": 51,
      "start": 68.1994,
      "duration": 0.1511,
      "velocity": 109,
      "chip": "ym2612"
    },
    {
      "channel": 0,
      "note": 52,
      "start": 68.2581,
      "duration": 0.1511,
      "velocity": 108,
      "chip": "ym2612"
    },
    {
      "channel": 1,
      "note": 59,
      "start": 68.259,
      "duration": 0.1511,
      "velocity": 108,
      "chip": "ym2612"
    },
    {
      "channel": 2,
      "note": 65,
      "start": 68.2597,
      "duration": 0.0836,
      "velocity": 112,
      "chip": "ym2612"
    },
    {
      "channel": 3,
      "note": 52,
      "start": 68.2604,
      "duration": 0.0497,
      "velocity": 120,
      "chip": "ym2612"
    },
    {
      "channel": 4,
      "note": 80,
      "start": 68.2662,
      "duration": 0.1178,
      "velocity": 112,
      "chip": "ym2612"
    },
    {
      "channel": 5,
      "note": 52,
      "start": 68.3511,
      "duration": 0.1511,
      "velocity": 108,
      "chip": "ym2612"
    },
    {
      "channel": 0,
      "note": 56,
      "start": 68.4098,
      "duration": 0.1512,
      "velocity": 107,
      "chip": "ym2612"
    },
    {
      "channel": 1,
      "note": 63,
      "start": 68.4106,
      "duration": 0.1511,
      "velocity": 107,
      "chip": "ym2612"
    },
    {
      "channel": 2,
      "note": 65,
      "start": 68.4113,
      "duration": 0.0837,
      "velocity": 112,
      "chip": "ym2612"
    },
    {
      "channel": 3,
      "note": 52,
      "start": 68.4121,
      "duration": 0.0498,
      "velocity": 120,
      "chip": "ym2612"
    },
    {
      "channel": 4,
      "note": 68,
      "start": 68.4179,
      "duration": 0.1178,
      "velocity": 109,
      "chip": "ym2612"
    },
    {
      "channel": 5,
      "note": 56,
      "start": 68.5028,
      "duration": 0.1511,
      "velocity": 107,
      "chip": "ym2612"
    },
    {
      "channel": 0,
      "note": 49,
      "start": 68.5615,
      "duration": 0.1511,
      "velocity": 106,
      "chip": "ym2612"
    },
    {
      "channel": 1,
      "note": 56,
      "start": 68.5623,
      "duration": 0.1511,
      "velocity": 106,
      "chip": "ym2612"
    },
    {
      "channel": 2,
      "note": 65,
      "start": 68.5629,
      "duration": 0.0837,
      "velocity": 112,
      "chip": "ym2612"
    },
    {
      "channel": 3,
      "note": 64,
      "start": 68.5637,
      "duration": 0.0498,
      "velocity": 120,
      "chip": "ym2612"
    },
    {
      "channel": 4,
      "note": 80,
      "start": 68.5696,
      "duration": 0.1178,
      "velocity": 108,
      "chip": "ym2612"
    },
    {
      "channel": 5,
      "note": 49,
      "start": 68.6544,
      "duration": 0.1511,
      "velocity": 106,
      "chip": "ym2612"
    },
    {
      "channel": 0,
      "note": 51,
      "start": 68.7132,
      "duration": 0.1511,
      "velocity": 105,
      "chip": "ym2612"
    },
    {
      "channel": 1,
      "note": 58,
      "start": 68.714,
      "duration": 0.1511,
      "velocity": 105,
      "chip": "ym2612"
    },
    {
      "channel": 2,
      "note": 65,
      "start": 68.7147,
      "duration": 0.0837,
      "velocity": 112,
      "chip": "ym2612"
    },
    {
      "channel": 3,
      "note": 52,
      "start": 68.7154,
      "duration": 0.0498,
      "velocity": 120,
      "chip": "ym2612"
    },
    {
      "channel": 4,
      "note": 68,
      "start": 68.7212,
      "duration": 0.1178,
      "velocity": 110,
      "chip": "ym2612"
    },
    {
      "channel": 5,
      "note": 51,
      "start": 68.8061,
      "duration": 0.1512,
      "velocity": 105,
      "chip": "ym2612"
    },
    {
      "channel": 0,
      "note": 52,
      "start": 68.8649,
      "duration": 0.1511,
      "velocity": 104,
      "chip": "ym2612"
    },
    {
      "channel": 1,
      "note": 59,
      "start": 68.8656,
      "duration": 0.1512,
      "velocity": 104,
      "chip": "ym2612"
    },
    {
      "channel": 2,
      "note": 65,
      "start": 68.8663,
      "duration": 0.0837,
      "velocity": 112,
      "chip": "ym2612"
    },
    {
      "channel": 3,
      "note": 52,
      "start": 68.8671,
      "duration": 0.0498,
      "velocity": 120,
      "chip": "ym2612"
    },
    {
      "channel": 4,
      "note": 68,
      "start": 68.8729,
      "duration": 0.1178,
      "velocity": 109,
      "chip": "ym2612"
    },
    {
      "channel": 5,
      "note": 52,
      "start": 68.9579,
      "duration": 0.1511,
      "velocity": 104,
      "chip": "ym2612"
    },
    {
      "channel": 0,
      "note": 56,
      "start": 69.0165,
      "duration": 0.1511,
      "velocity": 103,
      "chip": "ym2612"
    },
    {
      "channel": 1,
      "note": 63,
      "start": 69.0173,
      "duration": 0.1511,
      "velocity": 103,
      "chip": "ym2612"
    },
    {
      "channel": 2,
      "note": 65,
      "start": 69.018,
      "duration": 0.0837,
      "velocity": 112,
      "chip": "ym2612"
    },
    {
      "channel": 3,
      "note": 64,
      "start": 69.0188,
      "duration": 0.0497,
      "velocity": 120,
      "chip": "ym2612"
    },
    {
      "channel": 4,
      "note": 80,
      "start": 69.0246,
      "duration": 0.1178,
      "velocity": 111,
      "chip": "ym2612"
    },
    {
      "channel": 5,
      "note": 56,
      "start": 69.1095,
      "duration": 0.1511,
      "velocity": 103,
      "chip": "ym2612"
    },
    {
      "channel": 0,
      "note": 49,
      "start": 69.1682,
      "duration": 0.1511,
      "velocity": 102,
      "chip": "ym2612"
    },
    {
      "channel": 1,
      "note": 56,
      "start": 69.169,
      "duration": 0.1511,
      "velocity": 102,
      "chip": "ym2612"
    },
    {
      "channel": 2,
      "note": 65,
      "start": 69.1697,
      "duration": 0.0837,
      "velocity": 112,
      "chip": "ym2612"
    },
    {
      "channel": 3,
      "note": 52,
      "start": 69.1705,
      "duration": 0.0497,
      "velocity": 120,
      "chip": "ym2612"
    },
    {
      "channel": 4,
      "note": 80,
      "start": 69.1763,
      "duration": 0.1177,
      "velocity": 112,
      "chip": "ym2612"
    },
    {
      "channel": 5,
      "note": 49,
      "start": 69.2612,
      "duration": 0.1511,
      "velocity": 102,
      "chip": "ym2612"
    },
    {
      "channel": 0,
      "note": 51,
      "start": 69.3199,
      "duration": 0.1511,
      "velocity": 101,
      "chip": "ym2612"
    },
    {
      "channel": 1,
      "note": 58,
      "start": 69.3207,
      "duration": 0.1511,
      "velocity": 101,
      "chip": "ym2612"
    },
    {
      "channel": 2,
      "note": 65,
      "start": 69.3214,
      "duration": 0.0836,
      "velocity": 112,
      "chip": "ym2612"
    },
    {
      "channel": 3,
      "note": 64,
      "start": 69.3222,
      "duration": 0.0497,
      "velocity": 120,
      "chip": "ym2612"
    },
    {
      "channel": 4,
      "note": 68,
      "start": 69.328,
      "duration": 0.1178,
      "velocity": 109,
      "chip": "ym2612"
    },
    {
      "channel": 5,
      "note": 51,
      "start": 69.4129,
      "duration": 0.1511,
      "velocity": 101,
      "chip": "ym2612"
    },
    {
      "channel": 0,
      "note": 52,
      "start": 69.4715,
      "duration": 0.1512,
      "velocity": 100,
      "chip": "ym2612"
    },
    {
      "channel": 1,
      "note": 59,
      "start": 69.4724,
      "duration": 0.1511,
      "velocity": 100,
      "chip": "ym2612"
    },
    {
      "channel": 2,
      "note": 65,
      "start": 69.4731,
      "duration": 0.0837,
      "velocity": 112,
      "chip": "ym2612"
    },
    {
      "channel": 3,
      "note": 52,
      "start": 69.4739,
      "duration": 0.0498,
      "velocity": 120,
      "chip": "ym2612"
    },
    {
      "channel": 4,
      "note": 80,
      "start": 69.4797,
      "duration": 0.1178,
      "velocity": 108,
      "chip": "ym2612"
    },
    {
      "channel": 5,
      "note": 52,
      "start": 69.5646,
      "duration": 0.1511,
      "velocity": 100,
      "chip": "ym2612"
    },
    {
      "channel": 0,
      "note": 56,
      "start": 69.6233,
      "duration": 0.1511,
      "velocity": 99,
      "chip": "ym2612"
    },
    {
      "channel": 1,
      "note": 63,
      "start": 69.6241,
      "duration": 0.1511,
      "velocity": 99,
      "chip": "ym2612"
    },
    {
      "channel": 2,
      "note": 65,
      "start": 69.6248,
      "duration": 0.0837,
      "velocity": 112,
      "chip": "ym2612"
    },
    {
      "channel": 3,
      "note": 52,
      "start": 69.6256,
      "duration": 0.0498,
      "velocity": 120,
      "chip": "ym2612"
    },
    {
      "channel": 4,
      "note": 68,
      "start": 69.6313,
      "duration": 0.1178,
      "velocity": 112,
      "chip": "ym2612"
    },
    {
      "channel": 5,
      "note": 56,
      "start": 69.7162,
      "duration": 0.1511,
      "velocity": 99,
      "chip": "ym2612"
    },
    {
      "channel": 0,
      "note": 49,
      "start": 69.7749,
      "duration": 0.1511,
      "velocity": 98,
      "chip": "ym2612"
    },
    {
      "channel": 1,
      "note": 56,
      "start": 69.7757,
      "duration": 0.1511,
      "velocity": 98,
      "chip": "ym2612"
    },
    {
      "channel": 2,
      "note": 65,
      "start": 69.7764,
      "duration": 0.0837,
      "velocity": 112,
      "chip": "ym2612"
    },
    {
      "channel": 3,
      "note": 64,
      "start": 69.7772,
      "duration": 0.0498,
      "velocity": 120,
      "chip": "ym2612"
    },
    {
      "channel": 4,
      "note": 68,
      "start": 69.783,
      "duration": 0.1178,
      "velocity": 111,
      "chip": "ym2612"
    },
    {
      "channel": 5,
      "note": 49,
      "start": 69.8679,
      "duration": 0.1511,
      "velocity": 98,
      "chip": "ym2612"
    },
    {
      "channel": 0,
      "note": 51,
      "start": 69.9266,
      "duration": 0.1511,
      "velocity": 97,
      "chip": "ym2612"
    },
    {
      "channel": 1,
      "note": 58,
      "start": 69.9274,
      "duration": 0.1512,
      "velocity": 97,
      "chip": "ym2612"
    },
    {
      "channel": 2,
      "note": 65,
      "start": 69.9281,
      "duration": 0.0837,
      "velocity": 112,
      "chip": "ym2612"
    },
    {
      "channel": 3,
      "note": 52,
      "start": 69.9289,
      "duration": 0.0498,
      "velocity": 120,
      "chip": "ym2612"
    },
    {
      "channel": 4,
      "note": 80,
      "start": 69.9347,
      "duration": 0.1178,
      "velocity": 109,
      "chip": "ym2612"
    },
    {
      "channel": 5,
      "note": 51,
      "start": 70.0196,
      "duration": 0.1512,
      "velocity": 97,
      "chip": "ym2612"
    },
    {
      "channel": 0,
      "note": 52,
      "start": 70.0783,
      "duration": 0.1511,
      "velocity": 96,
      "chip": "ym2612"
    },
    {
      "channel": 1,
      "note": 59,
      "start": 70.0791,
      "duration": 0.1511,
      "velocity": 96,
      "chip": "ym2612"
    },
    {
      "channel": 2,
      "note": 65,
      "start": 70.0798,
      "duration": 0.0836,
      "velocity": 112,
      "chip": "ym2612"
    },
    {
      "channel": 3,
      "note": 52,
      "start": 70.0806,
      "duration": 0.0497,
      "velocity": 120,
      "chip": "ym2612"
    },
    {
      "channel": 4,
      "note": 68,
      "start": 70.0864,
      "duration": 0.1178,
      "velocity": 111,
      "chip": "ym2612"
    },
    {
      "channel": 5,
      "note": 52,
      "start": 70.1713,
      "duration": 0.1511,
      "velocity": 96,
      "chip": "ym2612"
    },
    {
      "channel": 0,
      "note": 56,
      "start": 70.23,
      "duration": 0.1511,
      "velocity": 95,
      "chip": "ym2612"
    },
    {
      "channel": 1,
      "note": 63,
      "start": 70.2308,
      "duration": 0.1511,
      "velocity": 95,
      "chip": "ym2612"
    },
    {
      "channel": 2,
      "note": 65,
      "start": 70.2315,
      "duration": 0.0837,
      "velocity": 112,
      "chip": "ym2612"
    },
    {
      "channel": 3,
      "note": 64,
      "start": 70.2322,
      "duration": 0.0498,
      "velocity": 120,
      "chip": "ym2612"
    },
    {
      "channel": 4,
      "note": 68,
      "start": 70.2381,
      "duration": 0.1177,
      "velocity": 112,
      "chip": "ym2612"
    },
    {
      "channel": 5,
      "note": 56,
      "start": 70.3229,
      "duration": 0.1511,
      "velocity": 95,
      "chip": "ym2612"
    },
    {
      "channel": 0,
      "note": 49,
      "start": 70.3817,
      "duration": 0.1511,
      "velocity": 96,
      "chip": "ym2612"
    },
    {
      "channel": 1,
      "note": 56,
      "start": 70.3825,
      "duration": 0.1511,
      "velocity": 96,
      "chip": "ym2612"
    },
    {
      "channel": 2,
      "note": 65,
      "start": 70.3832,
      "duration": 0.0836,
      "velocity": 112,
      "chip": "ym2612"
    },
    {
      "channel": 3,
      "note": 52,
      "start": 70.3839,
      "duration": 0.0497,
      "velocity": 120,
      "chip": "ym2612"
    },
    {
      "channel": 4,
      "note": 68,
      "start": 70.3898,
      "duration": 0.1178,
      "velocity": 108,
      "chip": "ym2612"
    },
    {
      "channel": 5,
      "note": 49,
      "start": 70.4747,
      "duration": 0.1511,
      "velocity": 96,
      "chip": "ym2612"
    },
    {
      "channel": 0,
      "note": 51,
      "start": 70.5333,
      "duration": 0.1512,
      "velocity": 97,
      "chip": "ym2612"
    },
    {
      "channel": 1,
      "note": 58,
      "start": 70.5341,
      "duration": 0.1511,
      "velocity": 97,
      "chip": "ym2612"
    },
    {
      "channel": 2,
      "note": 65,
      "start": 70.5349,
      "duration": 0.0837,
      "velocity": 112,
      "chip": "ym2612"
    },
    {
      "channel": 3,
      "note": 64,
      "start": 70.5356,
      "duration": 0.0498,
      "velocity": 120,
      "chip": "ym2612"
    },
    {
      "channel": 4,
      "note": 80,
      "start": 70.5415,
      "duration": 0.1178,
      "velocity": 109,
      "chip": "ym2612"
    },
    {
      "channel": 5,
      "note": 51,
      "start": 70.6263,
      "duration": 0.1511,
      "velocity": 97,
      "chip": "ym2612"
    },
    {
      "channel": 0,
      "note": 52,
      "start": 70.685,
      "duration": 0.1511,
      "velocity": 98,
      "chip": "ym2612"
    },
    {
      "channel": 1,
      "note": 59,
      "start": 70.6858,
      "duration": 0.1511,
      "velocity": 98,
      "chip": "ym2612"
    },
    {
      "channel": 2,
      "note": 65,
      "start": 70.6865,
      "duration": 0.0837,
      "velocity": 112,
      "chip": "ym2612"
    },
    {
      "channel": 3,
      "note": 52,
      "start": 70.6873,
      "duration": 0.0498,
      "velocity": 120,
      "chip": "ym2612"
    },
    {
      "channel": 4,
      "note": 80,
      "start": 70.6931,
      "duration": 0.1178,
      "velocity": 110,
      "chip": "ym2612"
    },
    {
      "channel": 5,
      "note": 52,
      "start": 70.778,
      "duration": 0.1511,
      "velocity": 98,
      "chip": "ym2612"
    },
    {
      "channel": 0,
      "note": 56,
      "start": 70.8367,
      "duration": 0.1511,
      "velocity": 99,
      "chip": "ym2612"
    },
    {
      "channel": 1,
      "note": 63,
      "start": 70.8375,
      "duration": 0.1511,
      "velocity": 99,
      "chip": "ym2612"
    },
    {
      "channel": 2,
      "note": 65,
      "start": 70.8382,
      "duration": 0.0837,
      "velocity": 112,
      "chip": "ym2612"
    },
    {
      "channel": 3,
      "note": 52,
      "start": 70.839,
      "duration": 0.0498,
      "velocity": 120,
      "chip": "ym2612"
    },
    {
      "channel": 4,
      "note": 68,
      "start": 70.8448,
      "duration": 0.1178,
      "velocity": 111,
      "chip": "ym2612"
    },
    {
      "channel": 5,
      "note": 56,
      "start": 70.9297,
      "duration": 0.1511,
      "velocity": 99,
      "chip": "ym2612"
    },
    {
      "channel": 0,
      "note": 49,
      "start": 70.9883,
      "duration": 0.1511,
      "velocity": 100,
      "chip": "ym2612"
    },
    {
      "channel": 1,
      "note": 56,
      "start": 70.9892,
      "duration": 0.1512,
      "velocity": 100,
      "chip": "ym2612"
    },
    {
      "channel": 2,
      "note": 65,
      "start": 70.9899,
      "duration": 0.0837,
      "velocity": 112,
      "chip": "ym2612"
    },
    {
      "channel": 3,
      "note": 64,
      "start": 70.9907,
      "duration": 0.0497,
      "velocity": 120,
      "chip": "ym2612"
    },
    {
      "channel": 4,
      "note": 80,
      "start": 70.9965,
      "duration": 0.1178,
      "velocity": 108,
      "chip": "ym2612"
    },
    {
      "channel": 5,
      "note": 49,
      "start": 71.0813,
      "duration": 0.1512,
      "velocity": 100,
      "chip": "ym2612"
    },
    {
      "channel": 0,
      "note": 51,
      "start": 71.1401,
      "duration": 0.151,
      "velocity": 101,
      "chip": "ym2612"
    },
    {
      "channel": 1,
      "note": 58,
      "start": 71.1409,
      "duration": 0.1511,
      "velocity": 101,
      "chip": "ym2612"
    },
    {
      "channel": 2,
      "note": 65,
      "start": 71.1416,
      "duration": 0.0837,
      "velocity": 112,
      "chip": "ym2612"
    },
    {
      "channel": 3,
      "note": 52,
      "start": 71.1424,
      "duration": 0.0497,
      "velocity": 120,
      "chip": "ym2612"
    },
    {
      "channel": 4,
      "note": 68,
      "start": 71.1481,
      "duration": 0.1178,
      "velocity": 109,
      "chip": "ym2612"
    },
    {
      "channel": 5,
      "note": 51,
      "start": 71.2331,
      "duration": 0.1511,
      "velocity": 101,
      "chip": "ym2612"
    },
    {
      "channel": 0,
      "note": 52,
      "start": 71.2917,
      "duration": 0.1512,
      "velocity": 102,
      "chip": "ym2612"
    },
    {
      "channel": 1,
      "note": 59,
      "start": 71.2925,
      "duration": 0.1511,
      "velocity": 102,
      "chip": "ym2612"
    },
    {
      "channel": 2,
      "note": 65,
      "start": 71.2932,
      "duration": 0.0837,
      "velocity": 112,
      "chip": "ym2612"
    },
    {
      "channel": 3,
      "note": 52,
      "start": 71.294,
      "duration": 0.0498,
      "velocity": 120,
      "chip": "ym2612"
    },
    {
      "channel": 4,
      "note": 68,
      "start": 71.2999,
      "duration": 0.1177,
      "velocity": 112,
      "chip": "ym2612"
    },
    {
      "channel": 5,
      "note": 52,
      "start": 71.3847,
      "duration": 0.1511,
      "velocity": 102,
      "chip": "ym2612"
    },
    {
      "channel": 0,
      "note": 56,
      "start": 71.4434,
      "duration": 0.1511,
      "velocity": 103,
      "chip": "ym2612"
    },
    {
      "channel": 1,
      "note": 63,
      "start": 71.4443,
      "duration": 0.1511,
      "velocity": 103,
      "chip": "ym2612"
    },
    {
      "channel": 2,
      "note": 65,
      "start": 71.445,
      "duration": 0.0836,
      "velocity": 112,
      "chip": "ym2612"
    },
    {
      "channel": 3,
      "note": 64,
      "start": 71.4457,
      "duration": 0.0497,
      "velocity": 120,
      "chip": "ym2612"
    },
    {
      "channel": 4,
      "note": 80,
      "start": 71.4515,
      "duration": 0.1178,
      "velocity": 110,
      "chip": "ym2612"
    },
    {
      "channel": 5,
      "note": 56,
      "start": 71.5364,
      "duration": 0.1511,
      "velocity": 103,
      "chip": "ym2612"
    },
    {
      "channel": 0,
      "note": 49,
      "start": 71.5951,
      "duration": 0.1512,
      "velocity": 104,
      "chip": "ym2612"
    },
    {
      "channel": 1,
      "note": 56,
      "start": 71.5959,
      "duration": 0.1511,
      "velocity": 104,
      "chip": "ym2612"
    },
    {
      "channel": 2,
      "note": 65,
      "start": 71.5966,
      "duration": 0.0837,
      "velocity": 112,
      "chip": "ym2612"
    },
    {
      "channel": 3,
      "note": 52,
      "start": 71.5974,
      "duration": 0.0498,
      "velocity": 120,
      "chip": "ym2612"
    },
    {
      "channel": 4,
      "note": 80,
      "start": 71.6032,
      "duration": 0.1178,
      "velocity": 111,
      "chip": "ym2612"
    },
    {
      "channel": 5,
      "note": 49,
      "start": 71.6881,
      "duration": 0.1511,
      "velocity": 104,
      "chip": "ym2612"
    },
    {
      "channel": 0,
      "note": 51,
      "start": 71.7468,
      "duration": 0.1511,
      "velocity": 105,
      "chip": "ym2612"
    },
    {
      "channel": 1,
      "note": 58,
      "start": 71.7476,
      "duration": 0.1511,
      "velocity": 105,
      "chip": "ym2612"
    },
    {
      "channel": 2,
      "note": 65,
      "start": 71.7483,
      "duration": 0.0837,
      "velocity": 112,
      "chip": "ym2612"
    },
    {
      "channel": 3,
      "note": 64,
      "start": 71.749,
      "duration": 0.0498,
      "velocity": 120,
      "chip": "ym2612"
    },
    {
      "channel": 4,
      "note": 68,
      "start": 71.7549,
      "duration": 0.1178,
      "velocity": 108,
      "chip": "ym2612"
    },
    {
      "channel": 5,
      "note": 51,
      "start": 71.8398,
      "duration": 0.1511,
      "velocity": 105,
      "chip": "ym2612"
    },
    {
      "channel": 0,
      "note": 52,
      "start": 71.8985,
      "duration": 0.1511,
      "velocity": 106,
      "chip": "ym2612"
    },
    {
      "channel": 1,
      "note": 59,
      "start": 71.8993,
      "duration": 0.1511,
      "velocity": 106,
      "chip": "ym2612"
    },
    {
      "channel": 2,
      "note": 65,
      "start": 71.9,
      "duration": 0.0837,
      "velocity": 112,
      "chip": "ym2612"
    },
    {
      "channel": 3,
      "note": 52,
      "start": 71.9007,
      "duration": 0.0498,
      "velocity": 120,
      "chip": "ym2612"
    },
    {
      "channel": 4,
      "note": 80,
      "start": 71.9065,
      "duration": 0.1178,
      "velocity": 109,
      "chip": "ym2612"
    },
    {
      "channel": 5,
      "note": 52,
      "start": 71.9915,
      "duration": 0.1511,
      "velocity": 106,
      "chip": "ym2612"
    },
    {
      "channel": 0,
      "note": 56,
      "start": 72.0501,
      "duration": 0.1511,
      "velocity": 107,
      "chip": "ym2612"
    },
    {
      "channel": 1,
      "note": 63,
      "start": 72.0509,
      "duration": 0.1512,
      "velocity": 107,
      "chip": "ym2612"
    },
    {
      "channel": 2,
      "note": 65,
      "start": 72.0516,
      "duration": 0.0837,
      "velocity": 112,
      "chip": "ym2612"
    },
    {
      "channel": 3,
      "note": 52,
      "start": 72.0524,
      "duration": 0.0498,
      "velocity": 120,
      "chip": "ym2612"
    },
    {
      "channel": 4,
      "note": 68,
      "start": 72.0583,
      "duration": 0.1178,
      "velocity": 112,
      "chip": "ym2612"
    },
    {
      "channel": 5,
      "note": 56,
      "start": 72.1431,
      "duration": 0.1512,
      "velocity": 107,
      "chip": "ym2612"
    },
    {
      "channel": 0,
      "note": 49,
      "start": 72.2018,
      "duration": 0.1511,
      "velocity": 108,
      "chip": "ym2612"
    },
    {
      "channel": 1,
      "note": 56,
      "start": 72.2027,
      "duration": 0.1511,
      "velocity": 108,
      "chip": "ym2612"
    },
    {
      "channel": 2,
      "note": 65,
      "start": 72.2034,
      "duration": 0.0836,
      "velocity": 112,
      "chip": "ym2612"
    },
    {
      "channel": 3,
      "note": 64,
      "start": 72.2041,
      "duration": 0.0497,
      "velocity": 120,
      "chip": "ym2612"
    },
    {
      "channel": 4,
      "note": 80,
      "start": 72.2099,
      "duration": 0.1178,
      "velocity": 110,
      "chip": "ym2612"
    },
    {
      "channel": 5,
      "note": 49,
      "start": 72.2948,
      "duration": 0.1511,
      "velocity": 108,
      "chip": "ym2612"
    },
    {
      "channel": 0,
      "note": 51,
      "start": 72.3535,
      "duration": 0.1512,
      "velocity": 109,
      "chip": "ym2612"
    },
    {
      "channel": 1,
      "note": 58,
      "start": 72.3543,
      "duration": 0.1511,
      "velocity": 109,
      "chip": "ym2612"
    },
    {
      "channel": 2,
      "note": 65,
      "start": 72.355,
      "duration": 0.0837,
      "velocity": 112,
      "chip": "ym2612"
    },
    {
      "channel": 3,
      "note": 52,
      "start": 72.3558,
      "duration": 0.0498,
      "velocity": 120,
      "chip": "ym2612"
    },
    {
      "channel": 4,
      "note": 68,
      "start": 72.3616,
      "duration": 0.1177,
      "velocity": 108,
      "chip": "ym2612"
    },
    {
      "channel": 5,
      "note": 51,
      "start": 72.4465,
      "duration": 0.1511,
      "velocity": 109,
      "chip": "ym2612"
    },
    {
      "channel": 0,
      "note": 52,
      "start": 72.5052,
      "duration": 0.1511,
      "velocity": 110,
      "chip": "ym2612"
    },
    {
      "channel": 1,
      "note": 59,
      "start": 72.506,
      "duration": 0.1511,
      "velocity": 110,
      "chip": "ym2612"
    },
    {
      "channel": 2,
      "note": 65,
      "start": 72.5067,
      "duration": 0.0837,
      "velocity": 112,
      "chip": "ym2612"
    },
    {
      "channel": 3,
      "note": 64,
      "start": 72.5075,
      "duration": 0.0498,
      "velocity": 120,
      "chip": "ym2612"
    },
    {
      "channel": 4,
      "note": 68,
      "start": 72.5133,
      "duration": 0.1178,
      "velocity": 109,
      "chip": "ym2612"
    },
    {
      "channel": 5,
      "note": 52,
      "start": 72.5981,
      "duration": 0.1511,
      "velocity": 110,
      "chip": "ym2612"
    },
    {
      "channel": 0,
      "note": 56,
      "start": 72.6569,
      "duration": 0.1511,
      "velocity": 110,
      "chip": "ym2612"
    },
    {
      "channel": 1,
      "note": 63,
      "start": 72.6577,
      "duration": 0.151,
      "velocity": 110,
      "chip": "ym2612"
    },
    {
      "channel": 2,
      "note": 65,
      "start": 72.6584,
      "duration": 0.0836,
      "velocity": 112,
      "chip": "ym2612"
    },
    {
      "channel": 3,
      "note": 64,
      "start": 72.6592,
      "duration": 0.0498,
      "velocity": 120,
      "chip": "ym2612"
    },
    {
      "channel": 4,
      "note": 80,
      "start": 72.6649,
      "duration": 0.1178,
      "velocity": 112,
      "chip": "ym2612"
    },
    {
      "channel": 5,
      "note": 56,
      "start": 72.7499,
      "duration": 0.0668,
      "velocity": 110,
      "chip": "ym2612"
    },
    {
      "channel": 0,
      "note": 41,
      "start": 72.8086,
      "duration": 0.1511,
      "velocity": 110,
      "chip": "ym2612"
    },
    {
      "channel": 1,
      "note": 65,
      "start": 72.8098,
      "duration": 0.0833,
      "velocity": 112,
      "chip": "ym2612"
    },
    {
      "channel": 3,
      "note": 53,
      "start": 72.811,
      "duration": 0.0494,
      "velocity": 120,
      "chip": "ym2612"
    },
    {
      "channel": 5,
      "note": 7,
      "start": 72.8177,
      "duration": 2.4259,
      "velocity": 1,
      "chip": "ym2612"
    },
    {
      "channel": 4,
      "note": 41,
      "start": 72.9016,
      "duration": 0.1505,
      "velocity": 110,
      "chip": "ym2612"
    },
    {
      "channel": 0,
      "note": 43,
      "start": 72.9602,
      "duration": 0.1511,
      "velocity": 109,
      "chip": "ym2612"
    },
    {
      "channel": 1,
      "note": 65,
      "start": 72.9609,
      "duration": 0.0838,
      "velocity": 112,
      "chip": "ym2612"
    },
    {
      "channel": 3,
      "note": 65,
      "start": 72.9621,
      "duration": 0.05,
      "velocity": 120,
      "chip": "ym2612"
    },
    {
      "channel": 4,
      "note": 43,
      "start": 73.0527,
      "duration": 0.1511,
      "velocity": 109,
      "chip": "ym2612"
    },
    {
      "channel": 0,
      "note": 44,
      "start": 73.112,
      "duration": 0.1511,
      "velocity": 108,
      "chip": "ym2612"
    },
    {
      "channel": 1,
      "note": 65,
      "start": 73.1126,
      "duration": 0.0838,
      "velocity": 112,
      "chip": "ym2612"
    },
    {
      "channel": 2,
      "note": 56,
      "start": 73.114,
      "duration": 0.1505,
      "velocity": 110,
      "chip": "ym2612"
    },
    {
      "channel": 3,
      "note": 53,
      "start": 73.1147,
      "duration": 0.0492,
      "velocity": 120,
      "chip": "ym2612"
    },
    {
      "channel": 4,
      "note": 44,
      "start": 73.2044,
      "duration": 0.1511,
      "velocity": 108,
      "chip": "ym2612"
    },
    {
      "channel": 0,
      "note": 48,
      "start": 73.2636,
      "duration": 0.1511,
      "velocity": 107,
      "chip": "ym2612"
    },
    {
      "channel": 1,
      "note": 65,
      "start": 73.2643,
      "duration": 0.0839,
      "velocity": 112,
      "chip": "ym2612"
    },
    {
      "channel": 2,
      "note": 55,
      "start": 73.2651,
      "duration": 0.1512,
      "velocity": 110,
      "chip": "ym2612"
    },
    {
      "channel": 3,
      "note": 53,
      "start": 73.2658,
      "duration": 0.0498,
      "velocity": 120,
      "chip": "ym2612"
    },
    {
      "channel": 4,
      "note": 48,
      "start": 73.3561,
      "duration": 0.1511,
      "velocity": 107,
      "chip": "ym2612"
    },
    {
      "channel": 0,
      "note": 41,
      "start": 73.4152,
      "duration": 0.1512,
      "velocity": 106,
      "chip": "ym2612"
    },
    {
      "channel": 1,
      "note": 65,
      "start": 73.4159,
      "duration": 0.0839,
      "velocity": 112,
      "chip": "ym2612"
    },
    {
      "channel": 2,
      "note": 53,
      "start": 73.4168,
      "duration": 0.3028,
      "velocity": 110,
      "chip": "ym2612"
    },
    {
      "channel": 3,
      "note": 65,
      "start": 73.4175,
      "duration": 0.0498,
      "velocity": 120,
      "chip": "ym2612"
    },
    {
      "channel": 4,
      "note": 41,
      "start": 73.5077,
      "duration": 0.1512,
      "velocity": 106,
      "chip": "ym2612"
    },
    {
      "channel": 0,
      "note": 43,
      "start": 73.567,
      "duration": 0.1511,
      "velocity": 105,
      "chip": "ym2612"
    },
    {
      "channel": 1,
      "note": 65,
      "start": 73.5677,
      "duration": 0.0839,
      "velocity": 112,
      "chip": "ym2612"
    },
    {
      "channel": 3,
      "note": 53,
      "start": 73.569,
      "duration": 0.0499,
      "velocity": 120,
      "chip": "ym2612"
    },
    {
      "channel": 4,
      "note": 43,
      "start": 73.6595,
      "duration": 0.1511,
      "velocity": 105,
      "chip": "ym2612"
    },
    {
      "channel": 0,
      "note": 44,
      "start": 73.7186,
      "duration": 0.1512,
      "velocity": 104,
      "chip": "ym2612"
    },
    {
      "channel": 1,
      "note": 65,
      "start": 73.7193,
      "duration": 0.0838,
      "velocity": 112,
      "chip": "ym2612"
    },
    {
      "channel": 2,
      "note": 56,
      "start": 73.7201,
      "duration": 0.1511,
      "velocity": 110,
      "chip": "ym2612"
    },
    {
      "channel": 3,
      "note": 53,
      "start": 73.7209,
      "duration": 0.0498,
      "velocity": 120,
      "chip": "ym2612"
    },
    {
      "channel": 4,
      "note": 44,
      "start": 73.8111,
      "duration": 0.1511,
      "velocity": 104,
      "chip": "ym2612"
    },
    {
      "channel": 0,
      "note": 48,
      "start": 73.8703,
      "duration": 0.1511,
      "velocity": 103,
      "chip": "ym2612"
    },
    {
      "channel": 1,
      "note": 65,
      "start": 73.871,
      "duration": 0.0838,
      "velocity": 112,
      "chip": "ym2612"
    },
    {
      "channel": 2,
      "note": 55,
      "start": 73.8718,
      "duration": 0.1512,
      "velocity": 110,
      "chip": "ym2612"
    },
    {
      "channel": 3,
      "note": 65,
      "start": 73.8726,
      "duration": 0.0498,
      "velocity": 120,
      "chip": "ym2612"
    },
    {
      "channel": 4,
      "note": 48,
      "start": 73.9628,
      "duration": 0.1511,
      "velocity": 103,
      "chip": "ym2612"
    },
    {
      "channel": 0,
      "note": 41,
      "start": 74.022,
      "duration": 0.1511,
      "velocity": 102,
      "chip": "ym2612"
    },
    {
      "channel": 1,
      "note": 65,
      "start": 74.0227,
      "duration": 0.0838,
      "velocity": 112,
      "chip": "ym2612"
    },
    {
      "channel": 2,
      "note": 53,
      "start": 74.0236,
      "duration": 0.3027,
      "velocity": 110,
      "chip": "ym2612"
    },
    {
      "channel": 3,
      "note": 53,
      "start": 74.0244,
      "duration": 0.0497,
      "velocity": 120,
      "chip": "ym2612"
    },
    {
      "channel": 4,
      "note": 41,
      "start": 74.1145,
      "duration": 0.1511,
      "velocity": 102,
      "chip": "ym2612"
    },
    {
      "channel": 0,
      "note": 43,
      "start": 74.1737,
      "duration": 0.1511,
      "velocity": 101,
      "chip": "ym2612"
    },
    {
      "channel": 1,
      "note": 65,
      "start": 74.1744,
      "duration": 0.0838,
      "velocity": 112,
      "chip": "ym2612"
    },
    {
      "channel": 3,
      "note": 65,
      "start": 74.1758,
      "duration": 0.0499,
      "velocity": 120,
      "chip": "ym2612"
    },
    {
      "channel": 4,
      "note": 43,
      "start": 74.2661,
      "duration": 0.1511,
      "velocity": 101,
      "chip": "ym2612"
    },
    {
      "channel": 0,
      "note": 44,
      "start": 74.3254,
      "duration": 0.1511,
      "velocity": 100,
      "chip": "ym2612"
    },
    {
      "channel": 1,
      "note": 65,
      "start": 74.3261,
      "duration": 0.0839,
      "velocity": 112,
      "chip": "ym2612"
    },
    {
      "channel": 2,
      "note": 56,
      "start": 74.3268,
      "duration": 0.1512,
      "velocity": 110,
      "chip": "ym2612"
    },
    {
      "channel": 3,
      "note": 53,
      "start": 74.3276,
      "duration": 0.0498,
      "velocity": 120,
      "chip": "ym2612"
    },
    {
      "channel": 4,
      "note": 44,
      "start": 74.4178,
      "duration": 0.1511,
      "velocity": 100,
      "chip": "ym2612"
    },
    {
      "channel": 0,
      "note": 48,
      "start": 74.477,
      "duration": 0.1512,
      "velocity": 99,
      "chip": "ym2612"
    },
    {
      "channel": 1,
      "note": 65,
      "start": 74.4777,
      "duration": 0.0839,
      "velocity": 112,
      "chip": "ym2612"
    },
    {
      "channel": 2,
      "note": 55,
      "start": 74.4785,
      "duration": 0.1511,
      "velocity": 110,
      "chip": "ym2612"
    },
    {
      "channel": 3,
      "note": 53,
      "start": 74.4793,
      "duration": 0.0498,
      "velocity": 120,
      "chip": "ym2612"
    },
    {
      "channel": 4,
      "note": 48,
      "start": 74.5695,
      "duration": 0.1512,
      "velocity": 99,
      "chip": "ym2612"
    },
    {
      "channel": 0,
      "note": 41,
      "start": 74.6287,
      "duration": 0.1511,
      "velocity": 98,
      "chip": "ym2612"
    },
    {
      "channel": 1,
      "note": 65,
      "start": 74.6294,
      "duration": 0.0839,
      "velocity": 112,
      "chip": "ym2612"
    },
    {
      "channel": 2,
      "note": 53,
      "start": 74.6302,
      "duration": 0.3028,
      "velocity": 110,
      "chip": "ym2612"
    },
    {
      "channel": 3,
      "note": 65,
      "start": 74.631,
      "duration": 0.0498,
      "velocity": 120,
      "chip": "ym2612"
    },
    {
      "channel": 4,
      "note": 41,
      "start": 74.7212,
      "duration": 0.1511,
      "velocity": 98,
      "chip": "ym2612"
    },
    {
      "channel": 0,
      "note": 43,
      "start": 74.7804,
      "duration": 0.1512,
      "velocity": 97,
      "chip": "ym2612"
    },
    {
      "channel": 1,
      "note": 65,
      "start": 74.7811,
      "duration": 0.0838,
      "velocity": 112,
      "chip": "ym2612"
    },
    {
      "channel": 3,
      "note": 53,
      "start": 74.7825,
      "duration": 0.0499,
      "velocity": 120,
      "chip": "ym2612"
    },
    {
      "channel": 4,
      "note": 43,
      "start": 74.8729,
      "duration": 0.1511,
      "velocity": 97,
      "chip": "ym2612"
    },
    {
      "channel": 0,
      "note": 44,
      "start": 74.9321,
      "duration": 0.1511,
      "velocity": 96,
      "chip": "ym2612"
    },
    {
      "channel": 1,
      "note": 65,
      "start": 74.9328,
      "duration": 0.0838,
      "velocity": 112,
      "chip": "ym2612"
    },
    {
      "channel": 2,
      "note": 56,
      "start": 74.9336,
      "duration": 0.1512,
      "velocity": 110,
      "chip": "ym2612"
    },
    {
      "channel": 3,
      "note": 53,
      "start": 74.9343,
      "duration": 0.0498,
      "velocity": 120,
      "chip": "ym2612"
    },
    {
      "channel": 4,
      "note": 44,
      "start": 75.0246,
      "duration": 0.1511,
      "velocity": 96,
      "chip": "ym2612"
    },
    {
      "channel": 0,
      "note": 48,
      "start": 75.0838,
      "duration": 0.1511,
      "velocity": 95,
      "chip": "ym2612"
    },
    {
      "channel": 1,
      "note": 65,
      "start": 75.0845,
      "duration": 0.0838,
      "velocity": 112,
      "chip": "ym2612"
    },
    {
      "channel": 2,
      "note": 55,
      "start": 75.0853,
      "duration": 0.1511,
      "velocity": 110,
      "chip": "ym2612"
    },
    {
      "channel": 3,
      "note": 65,
      "start": 75.0861,
      "duration": 0.0498,
      "velocity": 120,
      "chip": "ym2612"
    },
    {
      "channel": 4,
      "note": 48,
      "start": 75.1763,
      "duration": 0.1511,
      "velocity": 95,
      "chip": "ym2612"
    },
    {
      "channel": 0,
      "note": 41,
      "start": 75.2354,
      "duration": 0.1511,
      "velocity": 96,
      "chip": "ym2612"
    },
    {
      "channel": 1,
      "note": 65,
      "start": 75.2361,
      "duration": 0.0838,
      "velocity": 112,
      "chip": "ym2612"
    },
    {
      "channel": 2,
      "note": 53,
      "start": 75.2369,
      "duration": 0.3028,
      "velocity": 110,
      "chip": "ym2612"
    },
    {
      "channel": 3,
      "note": 53,
      "start": 75.2377,
      "duration": 0.0498,
      "velocity": 120,
      "chip": "ym2612"
    },
    {
      "channel": 5,
      "note": 7,
      "start": 75.2442,
      "duration": 2.4264,
      "velocity": 1,
      "chip": "ym2612"
    },
    {
      "channel": 4,
      "note": 41,
      "start": 75.3279,
      "duration": 0.1511,
      "velocity": 96,
      "chip": "ym2612"
    },
    {
      "channel": 0,
      "note": 43,
      "start": 75.3871,
      "duration": 0.1511,
      "velocity": 97,
      "chip": "ym2612"
    },
    {
      "channel": 1,
      "note": 65,
      "start": 75.3878,
      "duration": 0.0839,
      "velocity": 112,
      "chip": "ym2612"
    },
    {
      "channel": 3,
      "note": 65,
      "start": 75.3892,
      "duration": 0.0499,
      "velocity": 120,
      "chip": "ym2612"
    },
    {
      "channel": 4,
      "note": 43,
      "start": 75.4796,
      "duration": 0.1511,
      "velocity": 97,
      "chip": "ym2612"
    },
    {
      "channel": 0,
      "note": 44,
      "start": 75.5388,
      "duration": 0.1512,
      "velocity": 98,
      "chip": "ym2612"
    },
    {
      "channel": 1,
      "note": 65,
      "start": 75.5395,
      "duration": 0.0839,
      "velocity": 112,
      "chip": "ym2612"
    },
    {
      "channel": 2,
      "note": 56,
      "start": 75.5404,
      "duration": 0.1511,
      "velocity": 110,
      "chip": "ym2612"
    },
    {
      "channel": 3,
      "note": 53,
      "start": 75.5411,
      "duration": 0.0497,
      "velocity": 120,
      "chip": "ym2612"
    },
    {
      "channel": 4,
      "note": 44,
      "start": 75.6313,
      "duration": 0.1512,
      "velocity": 98,
      "chip": "ym2612"
    },
    {
      "channel": 0,
      "note": 48,
      "start": 75.6906,
      "duration": 0.151,
      "velocity": 99,
      "chip": "ym2612"
    },
    {
      "channel": 1,
      "note": 65,
      "start": 75.6913,
      "duration": 0.0838,
      "velocity": 112,
      "chip": "ym2612"
    },
    {
      "channel": 2,
      "note": 55,
      "start": 75.692,
      "duration": 0.1511,
      "velocity": 110,
      "chip": "ym2612"
    },
    {
      "channel": 3,
      "note": 53,
      "start": 75.6928,
      "duration": 0.0498,
      "velocity": 120,
      "chip": "ym2612"
    },
    {
      "channel": 4,
      "note": 48,
      "start": 75.783,
      "duration": 0.1511,
      "velocity": 99,
      "chip": "ym2612"
    },
    {
      "channel": 0,
      "note": 41,
      "start": 75.8422,
      "duration": 0.1512,
      "velocity": 100,
      "chip": "ym2612"
    },
    {
      "channel": 1,
      "note": 65,
      "start": 75.8429,
      "duration": 0.0838,
      "velocity": 112,
      "chip": "ym2612"
    },
    {
      "channel": 2,
      "note": 53,
      "start": 75.8437,
      "duration": 0.3028,
      "velocity": 110,
      "chip": "ym2612"
    },
    {
      "channel": 3,
      "note": 65,
      "start": 75.8444,
      "duration": 0.0498,
      "velocity": 120,
      "chip": "ym2612"
    },
    {
      "channel": 4,
      "note": 41,
      "start": 75.9346,
      "duration": 0.1511,
      "velocity": 100,
      "chip": "ym2612"
    },
    {
      "channel": 0,
      "note": 43,
      "start": 75.9939,
      "duration": 0.1511,
      "velocity": 101,
      "chip": "ym2612"
    },
    {
      "channel": 1,
      "note": 65,
      "start": 75.9946,
      "duration": 0.0838,
      "velocity": 112,
      "chip": "ym2612"
    },
    {
      "channel": 3,
      "note": 53,
      "start": 75.9959,
      "duration": 0.0499,
      "velocity": 120,
      "chip": "ym2612"
    },
    {
      "channel": 4,
      "note": 43,
      "start": 76.0864,
      "duration": 0.1511,
      "velocity": 101,
      "chip": "ym2612"
    },
    {
      "channel": 0,
      "note": 44,
      "start": 76.1455,
      "duration": 0.1511,
      "velocity": 102,
      "chip": "ym2612"
    },
    {
      "channel": 1,
      "note": 65,
      "start": 76.1462,
      "duration": 0.0838,
      "velocity": 112,
      "chip": "ym2612"
    },
    {
      "channel": 2,
      "note": 56,
      "start": 76.1471,
      "duration": 0.1511,
      "velocity": 110,
      "chip": "ym2612"
    },
    {
      "channel": 3,
      "note": 53,
      "start": 76.1478,
      "duration": 0.0498,
      "velocity": 120,
      "chip": "ym2612"
    },
    {
      "channel": 4,
      "note": 44,
      "start": 76.238,
      "duration": 0.1511,
      "velocity": 102,
      "chip": "ym2612"
    },
    {
      "channel": 0,
      "note": 48,
      "start": 76.2972,
      "duration": 0.1511,
      "velocity": 103,
      "chip": "ym2612"
    },
    {
      "channel": 1,
      "note": 65,
      "start": 76.2979,
      "duration": 0.0838,
      "velocity": 112,
      "chip": "ym2612"
    },
    {
      "channel": 2,
      "note": 55,
      "start": 76.2987,
      "duration": 0.1511,
      "velocity": 110,
      "chip": "ym2612"
    },
    {
      "channel": 3,
      "note": 65,
      "start": 76.2995,
      "duration": 0.0498,
      "velocity": 120,
      "chip": "ym2612"
    },
    {
      "channel": 4,
      "note": 48,
      "start": 76.3897,
      "duration": 0.1511,
      "velocity": 103,
      "chip": "ym2612"
    },
    {
      "channel": 0,
      "note": 41,
      "start": 76.4489,
      "duration": 0.1511,
      "velocity": 104,
      "chip": "ym2612"
    },
    {
      "channel": 1,
      "note": 65,
      "start": 76.4496,
      "duration": 0.0839,
      "velocity": 112,
      "chip": "ym2612"
    },
    {
      "channel": 2,
      "note": 53,
      "start": 76.4504,
      "duration": 0.3028,
      "velocity": 110,
      "chip": "ym2612"
    },
    {
      "channel": 3,
      "note": 53,
      "start": 76.4511,
      "duration": 0.0498,
      "velocity": 120,
      "chip": "ym2612"
    },
    {
      "channel": 4,
      "note": 41,
      "start": 76.5414,
      "duration": 0.1511,
      "velocity": 104,
      "chip": "ym2612"
    },
    {
      "channel": 0,
      "note": 43,
      "start": 76.6005,
      "duration": 0.1512,
      "velocity": 105,
      "chip": "ym2612"
    },
    {
      "channel": 1,
      "note": 65,
      "start": 76.6012,
      "duration": 0.0839,
      "velocity": 112,
      "chip": "ym2612"
    },
    {
      "channel": 3,
      "note": 65,
      "start": 76.6027,
      "duration": 0.0499,
      "velocity": 120,
      "chip": "ym2612"
    },
    {
      "channel": 4,
      "note": 43,
      "start": 76.693,
      "duration": 0.1512,
      "velocity": 105,
      "chip": "ym2612"
    },
    {
      "channel": 0,
      "note": 44,
      "start": 76.7523,
      "duration": 0.1511,
      "velocity": 106,
      "chip": "ym2612"
    },
    {
      "channel": 1,
      "note": 65,
      "start": 76.753,
      "duration": 0.0838,
      "velocity": 112,
      "chip": "ym2612"
    },
    {
      "channel": 2,
      "note": 56,
      "start": 76.7537,
      "duration": 0.1511,
      "velocity": 110,
      "chip": "ym2612"
    },
    {
      "channel": 3,
      "note": 53,
      "start": 76.7545,
      "duration": 0.0498,
      "velocity": 120,
      "chip": "ym2612"
    },
    {
      "channel": 4,
      "note": 44,
      "start": 76.8448,
      "duration": 0.1511,
      "velocity": 106,
      "chip": "ym2612"
    },
    {
      "channel": 0,
      "note": 48,
      "start": 76.9039,
      "duration": 0.1512,
      "velocity": 107,
      "chip": "ym2612"
    },
    {
      "channel": 1,
      "note": 65,
      "start": 76.9046,
      "duration": 0.0838,
      "velocity": 112,
      "chip": "ym2612"
    },
    {
      "channel": 2,
      "note": 55,
      "start": 76.9054,
      "duration": 0.1511,
      "velocity": 110,
      "chip": "ym2612"
    },
    {
      "channel": 3,
      "note": 53,
      "start": 76.9062,
      "duration": 0.0498,
      "velocity": 120,
      "chip": "ym2612"
    },
    {
      "channel": 4,
      "note": 48,
      "start": 76.9964,
      "duration": 0.1511,
      "velocity": 107,
      "chip": "ym2612"
    },
    {
      "channel": 0,
      "note": 41,
      "start": 77.0556,
      "duration": 0.1511,
      "velocity": 108,
      "chip": "ym2612"
    },
    {
      "channel": 1,
      "note": 65,
      "start": 77.0563,
      "duration": 0.0839,
      "velocity": 112,
      "chip": "ym2612"
    },
    {
      "channel": 2,
      "note": 53,
      "start": 77.0572,
      "duration": 0.3027,
      "velocity": 110,
      "chip": "ym2612"
    },
    {
      "channel": 3,
      "note": 65,
      "start": 77.0579,
      "duration": 0.0498,
      "velocity": 120,
      "chip": "ym2612"
    },
    {
      "channel": 4,
      "note": 41,
      "start": 77.1481,
      "duration": 0.1511,
      "velocity": 108,
      "chip": "ym2612"
    },
    {
      "channel": 0,
      "note": 43,
      "start": 77.2074,
      "duration": 0.151,
      "velocity": 109,
      "chip": "ym2612"
    },
    {
      "channel": 1,
      "note": 65,
      "start": 77.208,
      "duration": 0.0838,
      "velocity": 112,
      "chip": "ym2612"
    },
    {
      "channel": 3,
      "note": 53,
      "start": 77.2094,
      "duration": 0.0499,
      "velocity": 120,
      "chip": "ym2612"
    },
    {
      "channel": 4,
      "note": 43,
      "start": 77.2998,
      "duration": 0.1511,
      "velocity": 109,
      "chip": "ym2612"
    },
    {
      "channel": 0,
      "note": 44,
      "start": 77.359,
      "duration": 0.1511,
      "velocity": 110,
      "chip": "ym2612"
    },
    {
      "channel": 1,
      "note": 65,
      "start": 77.3597,
      "duration": 0.0838,
      "velocity": 112,
      "chip": "ym2612"
    },
    {
      "channel": 2,
      "note": 56,
      "start": 77.3605,
      "duration": 0.1511,
      "velocity": 110,
      "chip": "ym2612"
    },
    {
      "channel": 3,
      "note": 65,
      "start": 77.3612,
      "duration": 0.0498,
      "velocity": 120,
      "chip": "ym2612"
    },
    {
      "channel": 4,
      "note": 44,
      "start": 77.4515,
      "duration": 0.1511,
      "velocity": 110,
      "chip": "ym2612"
    },
    {
      "channel": 0,
      "note": 48,
      "start": 77.5107,
      "duration": 0.1511,
      "velocity": 110,
      "chip": "ym2612"
    },
    {
      "channel": 1,
      "note": 65,
      "start": 77.5114,
      "duration": 0.0839,
      "velocity": 112,
      "chip": "ym2612"
    },
    {
      "channel": 2,
      "note": 55,
      "start": 77.5121,
      "duration": 0.1679,
      "velocity": 110,
      "chip": "ym2612"
    },
    {
      "channel": 3,
      "note": 65,
      "start": 77.5129,
      "duration": 0.0498,
      "velocity": 120,
      "chip": "ym2612"
    },
    {
      "channel": 4,
      "note": 48,
      "start": 77.6032,
      "duration": 0.1511,
      "velocity": 110,
      "chip": "ym2612"
    },
    {
      "channel": 0,
      "note": 41,
      "start": 77.6623,
      "duration": 0.1512,
      "velocity": 110,
      "chip": "ym2612"
    },
    {
      "channel": 1,
      "note": 65,
      "start": 77.663,
      "duration": 0.0839,
      "velocity": 112,
      "chip": "ym2612"
    },
    {
      "channel": 3,
      "note": 53,
      "start": 77.6644,
      "duration": 0.0499,
      "velocity": 120,
      "chip": "ym2612"
    },
    {
      "channel": 5,
      "note": 7,
      "start": 77.6711,
      "duration": 2.4264,
      "velocity": 1,
      "chip": "ym2612"
    },
    {
      "channel": 4,
      "note": 41,
      "start": 77.7548,
      "duration": 0.1512,
      "velocity": 110,
      "chip": "ym2612"
    },
    {
      "channel": 0,
      "note": 43,
      "start": 77.814,
      "duration": 0.1511,
      "velocity": 109,
      "chip": "ym2612"
    },
    {
      "channel": 1,
      "note": 65,
      "start": 77.8147,
      "duration": 0.0838,
      "velocity": 112,
      "chip": "ym2612"
    },
    {
      "channel": 3,
      "note": 65,
      "start": 77.8161,
      "duration": 0.0499,
      "velocity": 120,
      "chip": "ym2612"
    },
    {
      "channel": 4,
      "note": 43,
      "start": 77.9065,
      "duration": 0.1511,
      "velocity": 109,
      "chip": "ym2612"
    },
    {
      "channel": 0,
      "note": 44,
      "start": 77.9657,
      "duration": 0.1512,
      "velocity": 108,
      "chip": "ym2612"
    },
    {
      "channel": 1,
      "note": 65,
      "start": 77.9664,
      "duration": 0.0838,
      "velocity": 112,
      "chip": "ym2612"
    },
    {
      "channel": 3,
      "note": 53,
      "start": 77.9677,
      "duration": 0.0499,
      "velocity": 120,
      "chip": "ym2612"
    },
    {
      "channel": 4,
      "note": 44,
      "start": 78.0582,
      "duration": 0.1511,
      "velocity": 108,
      "chip": "ym2612"
    },
    {
      "channel": 0,
      "note": 48,
      "start": 78.1174,
      "duration": 0.1511,
      "velocity": 107,
      "chip": "ym2612"
    },
    {
      "channel": 1,
      "note": 65,
      "start": 78.1181,
      "duration": 0.0838,
      "velocity": 112,
      "chip": "ym2612"
    },
    {
      "channel": 3,
      "note": 53,
      "start": 78.1195,
      "duration": 0.0499,
      "velocity": 120,
      "chip": "ym2612"
    },
    {
      "channel": 4,
      "note": 48,
      "start": 78.2099,
      "duration": 0.1511,
      "velocity": 107,
      "chip": "ym2612"
    },
    {
      "channel": 0,
      "note": 41,
      "start": 78.2691,
      "duration": 0.1511,
      "velocity": 106,
      "chip": "ym2612"
    },
    {
      "channel": 1,
      "note": 65,
      "start": 78.2698,
      "duration": 0.0838,
      "velocity": 112,
      "chip": "ym2612"
    },
    {
      "channel": 3,
      "note": 65,
      "start": 78.2711,
      "duration": 0.0499,
      "velocity": 120,
      "chip": "ym2612"
    },
    {
      "channel": 4,
      "note": 41,
      "start": 78.3616,
      "duration": 0.1511,
      "velocity": 106,
      "chip": "ym2612"
    },
    {
      "channel": 0,
      "note": 43,
      "start": 78.4207,
      "duration": 0.1511,
      "velocity": 105,
      "chip": "ym2612"
    },
    {
      "channel": 1,
      "note": 65,
      "start": 78.4214,
      "duration": 0.0838,
      "velocity": 112,
      "chip": "ym2612"
    },
    {
      "channel": 3,
      "note": 53,
      "start": 78.4228,
      "duration": 0.0499,
      "velocity": 120,
      "chip": "ym2612"
    },
    {
      "channel": 4,
      "note": 43,
      "start": 78.5132,
      "duration": 0.1511,
      "velocity": 105,
      "chip": "ym2612"
    },
    {
      "channel": 0,
      "note": 44,
      "start": 78.5724,
      "duration": 0.1512,
      "velocity": 104,
      "chip": "ym2612"
    },
    {
      "channel": 1,
      "note": 65,
      "start": 78.5731,
      "duration": 0.0839,
      "velocity": 112,
      "chip": "ym2612"
    },
    {
      "channel": 3,
      "note": 53,
      "start": 78.5745,
      "duration": 0.05,
      "velocity": 120,
      "chip": "ym2612"
    },
    {
      "channel": 4,
      "note": 44,
      "start": 78.6649,
      "duration": 0.1511,
      "velocity": 104,
      "chip": "ym2612"
    },
    {
      "channel": 0,
      "note": 48,
      "start": 78.7241,
      "duration": 0.1511,
      "velocity": 103,
      "chip": "ym2612"
    },
    {
      "channel": 1,
      "note": 65,
      "start": 78.7249,
      "duration": 0.0838,
      "velocity": 112,
      "chip": "ym2612"
    },
    {
      "channel": 3,
      "note": 65,
      "start": 78.7262,
      "duration": 0.0499,
      "velocity": 120,
      "chip": "ym2612"
    },
    {
      "channel": 4,
      "note": 48,
      "start": 78.8166,
      "duration": 0.1512,
      "velocity": 103,
      "chip": "ym2612"
    },
    {
      "channel": 0,
      "note": 41,
      "start": 78.8758,
      "duration": 0.1511,
      "velocity": 102,
      "chip": "ym2612"
    },
    {
      "channel": 1,
      "note": 65,
      "start": 78.8765,
      "duration": 0.0838,
      "velocity": 112,
      "chip": "ym2612"
    },
    {
      "channel": 3,
      "note": 53,
      "start": 78.8778,
      "duration": 0.0499,
      "velocity": 120,
      "chip": "ym2612"
    },
    {
      "channel": 4,
      "note": 41,
      "start": 78.9683,
      "duration": 0.1511,
      "velocity": 102,
      "chip": "ym2612"
    },
    {
      "channel": 0,
      "note": 43,
      "start": 79.0275,
      "duration": 0.1512,
      "velocity": 101,
      "chip": "ym2612"
    },
    {
      "channel": 1,
      "note": 65,
      "start": 79.0282,
      "duration": 0.0838,
      "velocity": 112,
      "chip": "ym2612"
    },
    {
      "channel": 3,
      "note": 65,
      "start": 79.0295,
      "duration": 0.0499,
      "velocity": 120,
      "chip": "ym2612"
    },
    {
      "channel": 4,
      "note": 43,
      "start": 79.12,
      "duration": 0.1511,
      "velocity": 101,
      "chip": "ym2612"
    },
    {
      "channel": 0,
      "note": 44,
      "start": 79.1792,
      "duration": 0.1511,
      "velocity": 100,
      "chip": "ym2612"
    },
    {
      "channel": 1,
      "note": 65,
      "start": 79.1799,
      "duration": 0.0838,
      "velocity": 112,
      "chip": "ym2612"
    },
    {
      "channel": 3,
      "note": 53,
      "start": 79.1812,
      "duration": 0.0499,
      "velocity": 120,
      "chip": "ym2612"
    },
    {
      "channel": 4,
      "note": 44,
      "start": 79.2717,
      "duration": 0.1511,
      "velocity": 100,
      "chip": "ym2612"
    },
    {
      "channel": 0,
      "note": 48,
      "start": 79.3308,
      "duration": 0.1511,
      "velocity": 99,
      "chip": "ym2612"
    },
    {
      "channel": 1,
      "note": 65,
      "start": 79.3315,
      "duration": 0.0838,
      "velocity": 112,
      "chip": "ym2612"
    },
    {
      "channel": 3,
      "note": 53,
      "start": 79.3329,
      "duration": 0.0499,
      "velocity": 120,
      "chip": "ym2612"
    },
    {
      "channel": 4,
      "note": 48,
      "start": 79.4233,
      "duration": 0.1511,
      "velocity": 99,
      "chip": "ym2612"
    },
    {
      "channel": 0,
      "note": 41,
      "start": 79.4825,
      "duration": 0.1511,
      "velocity": 98,
      "chip": "ym2612"
    },
    {
      "channel": 1,
      "note": 65,
      "start": 79.4832,
      "duration": 0.0838,
      "velocity": 112,
      "chip": "ym2612"
    },
    {
      "channel": 3,
      "note": 65,
      "start": 79.4845,
      "duration": 0.05,
      "velocity": 120,
      "chip": "ym2612"
    },
    {
      "channel": 4,
      "note": 41,
      "start": 79.575,
      "duration": 0.1511,
      "velocity": 98,
      "chip": "ym2612"
    },
    {
      "channel": 0,
      "note": 43,
      "start": 79.6342,
      "duration": 0.1511,
      "velocity": 97,
      "chip": "ym2612"
    },
    {
      "channel": 1,
      "note": 65,
      "start": 79.6349,
      "duration": 0.0839,
      "velocity": 112,
      "chip": "ym2612"
    },
    {
      "channel": 3,
      "note": 53,
      "start": 79.6362,
      "duration": 0.0499,
      "velocity": 120,
      "chip": "ym2612"
    },
    {
      "channel": 4,
      "note": 43,
      "start": 79.7267,
      "duration": 0.1511,
      "velocity": 97,
      "chip": "ym2612"
    },
    {
      "channel": 0,
      "note": 44,
      "start": 79.7859,
      "duration": 0.1512,
      "velocity": 96,
      "chip": "ym2612"
    },
    {
      "channel": 1,
      "note": 65,
      "start": 79.7866,
      "duration": 0.0839,
      "velocity": 112,
      "chip": "ym2612"
    },
    {
      "channel": 3,
      "note": 53,
      "start": 79.7879,
      "duration": 0.0499,
      "velocity": 120,
      "chip": "ym2612"
    },
    {
      "channel": 4,
      "note": 44,
      "start": 79.8783,
      "duration": 0.1512,
      "velocity": 96,
      "chip": "ym2612"
    },
    {
      "channel": 0,
      "note": 48,
      "start": 79.9376,
      "duration": 0.1511,
      "velocity": 95,
      "chip": "ym2612"
    },
    {
      "channel": 1,
      "note": 65,
      "start": 79.9383,
      "duration": 0.0838,
      "velocity": 112,
      "chip": "ym2612"
    },
    {
      "channel": 3,
      "note": 65,
      "start": 79.9396,
      "duration": 0.0499,
      "velocity": 120,
      "chip": "ym2612"
    },
    {
      "channel": 4,
      "note": 48,
      "start": 80.0301,
      "duration": 0.1511,
      "velocity": 95,
      "chip": "ym2612"
    },
    {
      "channel": 0,
      "note": 41,
      "start": 80.0892,
      "duration": 0.1512,
      "velocity": 96,
      "chip": "ym2612"
    },
    {
      "channel": 1,
      "note": 65,
      "start": 80.0899,
      "duration": 0.0839,
      "velocity": 112,
      "chip": "ym2612"
    },
    {
      "channel": 3,
      "note": 53,
      "start": 80.0913,
      "duration": 0.0499,
      "velocity": 120,
      "chip": "ym2612"
    },
    {
      "channel": 5,
      "note": 7,
      "start": 80.098,
      "duration": 2.427,
      "velocity": 1,
      "chip": "ym2612"
    },
    {
      "channel": 4,
      "note": 41,
      "start": 80.1817,
      "duration": 0.1511,
      "velocity": 96,
      "chip": "ym2612"
    },
    {
      "channel": 0,
      "note": 43,
      "start": 80.241,
      "duration": 0.1511,
      "velocity": 97,
      "chip": "ym2612"
    },
    {
      "channel": 1,
      "note": 65,
      "start": 80.2417,
      "duration": 0.0838,
      "velocity": 112,
      "chip": "ym2612"
    },
    {
      "channel": 3,
      "note": 65,
      "start": 80.243,
      "duration": 0.0499,
      "velocity": 120,
      "chip": "ym2612"
    },
    {
      "channel": 4,
      "note": 43,
      "start": 80.3334,
      "duration": 0.1511,
      "velocity": 97,
      "chip": "ym2612"
    },
    {
      "channel": 0,
      "note": 44,
      "start": 80.3926,
      "duration": 0.1511,
      "velocity": 98,
      "chip": "ym2612"
    },
    {
      "channel": 1,
      "note": 65,
      "start": 80.3933,
      "duration": 0.0838,
      "velocity": 112,
      "chip": "ym2612"
    },
    {
      "channel": 3,
      "note": 53,
      "start": 80.3946,
      "duration": 0.0499,
      "velocity": 120,
      "chip": "ym2612"
    },
    {
      "channel": 4,
      "note": 44,
      "start": 80.4851,
      "duration": 0.1511,
      "velocity": 98,
      "chip": "ym2612"
    },
    {
      "channel": 0,
      "note": 48,
      "start": 80.5443,
      "duration": 0.1511,
      "velocity": 99,
      "chip": "ym2612"
    },
    {
      "channel": 1,
      "note": 65,
      "start": 80.545,
      "duration": 0.0838,
      "velocity": 112,
      "chip": "ym2612"
    },
    {
      "channel": 3,
      "note": 53,
      "start": 80.5463,
      "duration": 0.05,
      "velocity": 120,
      "chip": "ym2612"
    },
    {
      "channel": 4,
      "note": 48,
      "start": 80.6368,
      "duration": 0.1511,
      "velocity": 99,
      "chip": "ym2612"
    },
    {
      "channel": 0,
      "note": 41,
      "start": 80.696,
      "duration": 0.1511,
      "velocity": 100,
      "chip": "ym2612"
    },
    {
      "channel": 1,
      "note": 65,
      "start": 80.6967,
      "duration": 0.0839,
      "velocity": 112,
      "chip": "ym2612"
    },
    {
      "channel": 3,
      "note": 65,
      "start": 80.698,
      "duration": 0.0499,
      "velocity": 120,
      "chip": "ym2612"
    },
    {
      "channel": 4,
      "note": 41,
      "start": 80.7885,
      "duration": 0.1511,
      "velocity": 100,
      "chip": "ym2612"
    },
    {
      "channel": 0,
      "note": 43,
      "start": 80.8476,
      "duration": 0.1512,
      "velocity": 101,
      "chip": "ym2612"
    },
    {
      "channel": 1,
      "note": 65,
      "start": 80.8483,
      "duration": 0.0839,
      "velocity": 112,
      "chip": "ym2612"
    },
    {
      "channel": 3,
      "note": 53,
      "start": 80.8497,
      "duration": 0.0499,
      "velocity": 120,
      "chip": "ym2612"
    },
    {
      "channel": 4,
      "note": 43,
      "start": 80.9402,
      "duration": 0.1511,
      "velocity": 101,
      "chip": "ym2612"
    },
    {
      "channel": 0,
      "note": 44,
      "start": 80.9993,
      "duration": 0.1511,
      "velocity": 102,
      "chip": "ym2612"
    },
    {
      "channel": 1,
      "note": 65,
      "start": 81.0,
      "duration": 0.0838,
      "velocity": 112,
      "chip": "ym2612"
    },
    {
      "channel": 3,
      "note": 53,
      "start": 81.0014,
      "duration": 0.0499,
      "velocity": 120,
      "chip": "ym2612"
    },
    {
      "channel": 4,
      "note": 44,
      "start": 81.0918,
      "duration": 0.1511,
      "velocity": 102,
      "chip": "ym2612"
    },
    {
      "channel": 0,
      "note": 48,
      "start": 81.151,
      "duration": 0.1512,
      "velocity": 103,
      "chip": "ym2612"
    },
    {
      "channel": 1,
      "note": 65,
      "start": 81.1517,
      "duration": 0.0838,
      "velocity": 112,
      "chip": "ym2612"
    },
    {
      "channel": 3,
      "note": 65,
      "start": 81.153,
      "duration": 0.0499,
      "velocity": 120,
      "chip": "ym2612"
    },
    {
      "channel": 4,
      "note": 48,
      "start": 81.2435,
      "duration": 0.1511,
      "velocity": 103,
      "chip": "ym2612"
    },
    {
      "channel": 0,
      "note": 41,
      "start": 81.3027,
      "duration": 0.1511,
      "velocity": 104,
      "chip": "ym2612"
    },
    {
      "channel": 1,
      "note": 65,
      "start": 81.3034,
      "duration": 0.0838,
      "velocity": 112,
      "chip": "ym2612"
    },
    {
      "channel": 3,
      "note": 53,
      "start": 81.3048,
      "duration": 0.0499,
      "velocity": 120,
      "chip": "ym2612"
    },
    {
      "channel": 4,
      "note": 41,
      "start": 81.3952,
      "duration": 0.1511,
      "velocity": 104,
      "chip": "ym2612"
    },
    {
      "channel": 0,
      "note": 43,
      "start": 81.4544,
      "duration": 0.1511,
      "velocity": 105,
      "chip": "ym2612"
    },
    {
      "channel": 1,
      "note": 65,
      "start": 81.4551,
      "duration": 0.0838,
      "velocity": 112,
      "chip": "ym2612"
    },
    {
      "channel": 3,
      "note": 65,
      "start": 81.4564,
      "duration": 0.0499,
      "velocity": 120,
      "chip": "ym2612"
    },
    {
      "channel": 4,
      "note": 43,
      "start": 81.5469,
      "duration": 0.1511,
      "velocity": 105,
      "chip": "ym2612"
    },
    {
      "channel": 0,
      "note": 44,
      "start": 81.606,
      "duration": 0.1512,
      "velocity": 106,
      "chip": "ym2612"
    },
    {
      "channel": 1,
      "note": 65,
      "start": 81.6068,
      "duration": 0.0839,
      "velocity": 112,
      "chip": "ym2612"
    },
    {
      "channel": 3,
      "note": 53,
      "start": 81.6081,
      "duration": 0.0499,
      "velocity": 120,
      "chip": "ym2612"
    },
    {
      "channel": 4,
      "note": 44,
      "start": 81.6985,
      "duration": 0.1511,
      "velocity": 106,
      "chip": "ym2612"
    },
    {
      "channel": 0,
      "note": 48,
      "start": 81.7578,
      "duration": 0.151,
      "velocity": 107,
      "chip": "ym2612"
    },
    {
      "channel": 1,
      "note": 65,
      "start": 81.7585,
      "duration": 0.0838,
      "velocity": 112,
      "chip": "ym2612"
    },
    {
      "channel": 3,
      "note": 53,
      "start": 81.7598,
      "duration": 0.0499,
      "velocity": 120,
      "chip": "ym2612"
    },
    {
      "channel": 4,
      "note": 48,
      "start": 81.8502,
      "duration": 0.1511,
      "velocity": 107,
      "chip": "ym2612"
    },
    {
      "channel": 0,
      "note": 41,
      "start": 81.9094,
      "duration": 0.1512,
      "velocity": 108,
      "chip": "ym2612"
    },
    {
      "channel": 1,
      "note": 65,
      "start": 81.9101,
      "duration": 0.0839,
      "velocity": 112,
      "chip": "ym2612"
    },
    {
      "channel": 2,
      "note": 41,
      "start": 81.9109,
      "duration": 0.1511,
      "velocity": 110,
      "chip": "ym2612"
    },
    {
      "channel": 3,
      "note": 65,
      "start": 81.9117,
      "duration": 0.0498,
      "velocity": 120,
      "chip": "ym2612"
    },
    {
      "channel": 4,
      "note": 41,
      "start": 82.0019,
      "duration": 0.1511,
      "velocity": 108,
      "chip": "ym2612"
    },
    {
      "channel": 0,
      "note": 43,
      "start": 82.0611,
      "duration": 0.1511,
      "velocity": 109,
      "chip": "ym2612"
    },
    {
      "channel": 1,
      "note": 65,
      "start": 82.0618,
      "duration": 0.0838,
      "velocity": 112,
      "chip": "ym2612"
    },
    {
      "channel": 2,
      "note": 43,
      "start": 82.0626,
      "duration": 0.1511,
      "velocity": 110,
      "chip": "ym2612"
    },
    {
      "channel": 3,
      "note": 53,
      "start": 82.0633,
      "duration": 0.0498,
      "velocity": 120,
      "chip": "ym2612"
    },
    {
      "channel": 4,
      "note": 43,
      "start": 82.1536,
      "duration": 0.1511,
      "velocity": 109,
      "chip": "ym2612"
    },
    {
      "channel": 0,
      "note": 44,
      "start": 82.2128,
      "duration": 0.1512,
      "velocity": 110,
      "chip": "ym2612"
    },
    {
      "channel": 1,
      "note": 65,
      "start": 82.2135,
      "duration": 0.0838,
      "velocity": 112,
      "chip": "ym2612"
    },
    {
      "channel": 2,
      "note": 44,
      "start": 82.2143,
      "duration": 0.1511,
      "velocity": 110,
      "chip": "ym2612"
    },
    {
      "channel": 3,
      "note": 65,
      "start": 82.2151,
      "duration": 0.0498,
      "velocity": 120,
      "chip": "ym2612"
    },
    {
      "channel": 4,
      "note": 44,
      "start": 82.3053,
      "duration": 0.1511,
      "velocity": 110,
      "chip": "ym2612"
    },
    {
      "channel": 0,
      "note": 48,
      "start": 82.3645,
      "duration": 0.151,
      "velocity": 110,
      "chip": "ym2612"
    },
    {
      "channel": 1,
      "note": 65,
      "start": 82.3652,
      "duration": 0.0838,
      "velocity": 112,
      "chip": "ym2612"
    },
    {
      "channel": 2,
      "note": 46,
      "start": 82.3659,
      "duration": 0.1516,
      "velocity": 110,
      "chip": "ym2612"
    },
    {
      "channel": 3,
      "note": 65,
      "start": 82.3667,
      "duration": 0.0498,
      "velocity": 120,
      "chip": "ym2612"
    },
    {
      "channel": 4,
      "note": 48,
      "start": 82.457,
      "duration": 0.0668,
      "velocity": 110,
      "chip": "ym2612"
    },
    {
      "channel": 0,
      "note": 65,
      "start": 82.5166,
      "duration": 0.1172,
      "velocity": 108,
      "chip": "ym2612"
    },
    {
      "channel": 1,
      "note": 65,
      "start": 82.5173,
      "duration": 0.0833,
      "velocity": 112,
      "chip": "ym2612"
    },
    {
      "channel": 2,
      "note": 48,
      "start": 82.5181,
      "duration": 1.5156,
      "velocity": 110,
      "chip": "ym2612"
    },
    {
      "channel": 3,
      "note": 53,
      "start": 82.5189,
      "duration": 0.0491,
      "velocity": 120,
      "chip": "ym2612"
    },
    {
      "channel": 4,
      "note": 7,
      "start": 82.5249,
      "duration": 2.4258,
      "velocity": 1,
      "chip": "ym2612"
    },
    {
      "channel": 5,
      "note": 7,
      "start": 82.5256,
      "duration": 2.4258,
      "velocity": 1,
      "chip": "ym2612"
    },
    {
      "channel": 0,
      "note": 77,
      "start": 82.6677,
      "duration": 0.1178,
      "velocity": 108,
      "chip": "ym2612"
    },
    {
      "channel": 1,
      "note": 65,
      "start": 82.6684,
      "duration": 0.0838,
      "velocity": 112,
      "chip": "ym2612"
    },
    {
      "channel": 3,
      "note": 65,
      "start": 82.6698,
      "duration": 0.0499,
      "velocity": 120,
      "chip": "ym2612"
    },
    {
      "channel": 0,
      "note": 77,
      "start": 82.8194,
      "duration": 0.1178,
      "velocity": 112,
      "chip": "ym2612"
    },
    {
      "channel": 1,
      "note": 65,
      "start": 82.8201,
      "duration": 0.0838,
      "velocity": 112,
      "chip": "ym2612"
    },
    {
      "channel": 3,
      "note": 53,
      "start": 82.8214,
      "duration": 0.0499,
      "velocity": 120,
      "chip": "ym2612"
    },
    {
      "channel": 0,
      "note": 65,
      "start": 82.971,
      "duration": 0.1178,
      "velocity": 109,
      "chip": "ym2612"
    },
    {
      "channel": 1,
      "note": 65,
      "start": 82.9717,
      "duration": 0.0838,
      "velocity": 112,
      "chip": "ym2612"
    },
    {
      "channel": 3,
      "note": 53,
      "start": 82.9731,
      "duration": 0.05,
      "velocity": 120,
      "chip": "ym2612"
    },
    {
      "channel": 0,
      "note": 77,
      "start": 83.1228,
      "duration": 0.1178,
      "velocity": 108,
      "chip": "ym2612"
    },
    {
      "channel": 1,
      "note": 65,
      "start": 83.1235,
      "duration": 0.0838,
      "velocity": 112,
      "chip": "ym2612"
    },
    {
      "channel": 3,
      "note": 65,
      "start": 83.1249,
      "duration": 0.0499,
      "velocity": 120,
      "chip": "ym2612"
    },
    {
      "channel": 0,
      "note": 65,
      "start": 83.2744,
      "duration": 0.1178,
      "velocity": 110,
      "chip": "ym2612"
    },
    {
      "channel": 1,
      "note": 65,
      "start": 83.2751,
      "duration": 0.0839,
      "velocity": 112,
      "chip": "ym2612"
    },
    {
      "channel": 3,
      "note": 53,
      "start": 83.2765,
      "duration": 0.0499,
      "velocity": 120,
      "chip": "ym2612"
    },
    {
      "channel": 0,
      "note": 65,
      "start": 83.4261,
      "duration": 0.1178,
      "velocity": 109,
      "chip": "ym2612"
    },
    {
      "channel": 1,
      "note": 65,
      "start": 83.4268,
      "duration": 0.0838,
      "velocity": 112,
      "chip": "ym2612"
    },
    {
      "channel": 3,
      "note": 53,
      "start": 83.4282,
      "duration": 0.0499,
      "velocity": 120,
      "chip": "ym2612"
    },
    {
      "channel": 0,
      "note": 77,
      "start": 83.5778,
      "duration": 0.1178,
      "velocity": 111,
      "chip": "ym2612"
    },
    {
      "channel": 1,
      "note": 65,
      "start": 83.5785,
      "duration": 0.0838,
      "velocity": 112,
      "chip": "ym2612"
    },
    {
      "channel": 3,
      "note": 65,
      "start": 83.5798,
      "duration": 0.0499,
      "velocity": 120,
      "chip": "ym2612"
    },
    {
      "channel": 0,
      "note": 77,
      "start": 83.7294,
      "duration": 0.1178,
      "velocity": 112,
      "chip": "ym2612"
    },
    {
      "channel": 1,
      "note": 65,
      "start": 83.7301,
      "duration": 0.0838,
      "velocity": 112,
      "chip": "ym2612"
    },
    {
      "channel": 3,
      "note": 53,
      "start": 83.7315,
      "duration": 0.0499,
      "velocity": 120,
      "chip": "ym2612"
    },
    {
      "channel": 0,
      "note": 65,
      "start": 83.8812,
      "duration": 0.1177,
      "velocity": 109,
      "chip": "ym2612"
    },
    {
      "channel": 1,
      "note": 65,
      "start": 83.8819,
      "duration": 0.0838,
      "velocity": 112,
      "chip": "ym2612"
    },
    {
      "channel": 3,
      "note": 65,
      "start": 83.8832,
      "duration": 0.0499,
      "velocity": 120,
      "chip": "ym2612"
    },
    {
      "channel": 0,
      "note": 77,
      "start": 84.0328,
      "duration": 0.1178,
      "velocity": 108,
      "chip": "ym2612"
    },
    {
      "channel": 1,
      "note": 65,
      "start": 84.0335,
      "duration": 0.0838,
      "velocity": 112,
      "chip": "ym2612"
    },
    {
      "channel": 2,
      "note": 46,
      "start": 84.0343,
      "duration": 0.4544,
      "velocity": 110,
      "chip": "ym2612"
    },
    {
      "channel": 3,
      "note": 53,
      "start": 84.0351,
      "duration": 0.0498,
      "velocity": 120,
      "chip": "ym2612"
    },
    {
      "channel": 0,
      "note": 65,
      "start": 84.1845,
      "duration": 0.1178,
      "velocity": 112,
      "chip": "ym2612"
    },
    {
      "channel": 1,
      "note": 65,
      "start": 84.1852,
      "duration": 0.0839,
      "velocity": 112,
      "chip": "ym2612"
    },
    {
      "channel": 3,
      "note": 53,
      "start": 84.1866,
      "duration": 0.0499,
      "velocity": 120,
      "chip": "ym2612"
    },
    {
      "channel": 0,
      "note": 65,
      "start": 84.3362,
      "duration": 0.1178,
      "velocity": 111,
      "chip": "ym2612"
    },
    {
      "channel": 1,
      "note": 65,
      "start": 84.3369,
      "duration": 0.0839,
      "velocity": 112,
      "chip": "ym2612"
    },
    {
      "channel": 3,
      "note": 65,
      "start": 84.3383,
      "duration": 0.0499,
      "velocity": 120,
      "chip": "ym2612"
    },
    {
      "channel": 0,
      "note": 77,
      "start": 84.4879,
      "duration": 0.1178,
      "velocity": 109,
      "chip": "ym2612"
    },
    {
      "channel": 1,
      "note": 65,
      "start": 84.4886,
      "duration": 0.0838,
      "velocity": 112,
      "chip": "ym2612"
    },
    {
      "channel": 2,
      "note": 48,
      "start": 84.4894,
      "duration": 0.4544,
      "velocity": 110,
      "chip": "ym2612"
    },
    {
      "channel": 3,
      "note": 53,
      "start": 84.4902,
      "duration": 0.0497,
      "velocity": 120,
      "chip": "ym2612"
    },
    {
      "channel": 0,
      "note": 65,
      "start": 84.6395,
      "duration": 0.1178,
      "velocity": 111,
      "chip": "ym2612"
    },
    {
      "channel": 1,
      "note": 65,
      "start": 84.6403,
      "duration": 0.0838,
      "velocity": 112,
      "chip": "ym2612"
    },
    {
      "channel": 3,
      "note": 53,
      "start": 84.6417,
      "duration": 0.0499,
      "velocity": 120,
      "chip": "ym2612"
    },
    {
      "channel": 0,
      "note": 65,
      "start": 84.7913,
      "duration": 0.1178,
      "velocity": 112,
      "chip": "ym2612"
    },
    {
      "channel": 1,
      "note": 65,
      "start": 84.792,
      "duration": 0.0838,
      "velocity": 112,
      "chip": "ym2612"
    },
    {
      "channel": 3,
      "note": 65,
      "start": 84.7933,
      "duration": 0.0499,
      "velocity": 120,
      "chip": "ym2612"
    },
    {
      "channel": 0,
      "note": 65,
      "start": 84.9429,
      "duration": 0.1177,
      "velocity": 108,
      "chip": "ym2612"
    },
    {
      "channel": 1,
      "note": 65,
      "start": 84.9436,
      "duration": 0.0838,
      "velocity": 112,
      "chip": "ym2612"
    },
    {
      "channel": 2,
      "note": 48,
      "start": 84.9444,
      "duration": 1.5163,
      "velocity": 110,
      "chip": "ym2612"
    },
    {
      "channel": 3,
      "note": 53,
      "start": 84.9451,
      "duration": 0.0498,
      "velocity": 120,
      "chip": "ym2612"
    },
    {
      "channel": 4,
      "note": 7,
      "start": 84.9512,
      "duration": 2.4264,
      "velocity": 1,
      "chip": "ym2612"
    },
    {
      "channel": 5,
      "note": 7,
      "start": 84.9519,
      "duration": 2.4264,
      "velocity": 1,
      "chip": "ym2612"
    },
    {
      "channel": 0,
      "note": 77,
      "start": 85.0946,
      "duration": 0.1178,
      "velocity": 108,
      "chip": "ym2612"
    },
    {
      "channel": 1,
      "note": 65,
      "start": 85.0953,
      "duration": 0.0838,
      "velocity": 112,
      "chip": "ym2612"
    },
    {
      "channel": 3,
      "note": 65,
      "start": 85.0967,
      "duration": 0.05,
      "velocity": 120,
      "chip": "ym2612"
    },
    {
      "channel": 0,
      "note": 77,
      "start": 85.2463,
      "duration": 0.1178,
      "velocity": 112,
      "chip": "ym2612"
    },
    {
      "channel": 1,
      "note": 65,
      "start": 85.247,
      "duration": 0.0839,
      "velocity": 112,
      "chip": "ym2612"
    },
    {
      "channel": 3,
      "note": 53,
      "start": 85.2483,
      "duration": 0.0499,
      "velocity": 120,
      "chip": "ym2612"
    },
    {
      "channel": 0,
      "note": 65,
      "start": 85.3979,
      "duration": 0.1178,
      "velocity": 109,
      "chip": "ym2612"
    },
    {
      "channel": 1,
      "note": 65,
      "start": 85.3986,
      "duration": 0.0839,
      "velocity": 112,
      "chip": "ym2612"
    },
    {
      "channel": 3,
      "note": 53,
      "start": 85.4,
      "duration": 0.0499,
      "velocity": 120,
      "chip": "ym2612"
    },
    {
      "channel": 0,
      "note": 77,
      "start": 85.5497,
      "duration": 0.1178,
      "velocity": 108,
      "chip": "ym2612"
    },
    {
      "channel": 1,
      "note": 65,
      "start": 85.5504,
      "duration": 0.0838,
      "velocity": 112,
      "chip": "ym2612"
    },
    {
      "channel": 3,
      "note": 65,
      "start": 85.5517,
      "duration": 0.0499,
      "velocity": 120,
      "chip": "ym2612"
    },
    {
      "channel": 0,
      "note": 65,
      "start": 85.7013,
      "duration": 0.1178,
      "velocity": 110,
      "chip": "ym2612"
    },
    {
      "channel": 1,
      "note": 65,
      "start": 85.702,
      "duration": 0.0838,
      "velocity": 112,
      "chip": "ym2612"
    },
    {
      "channel": 3,
      "note": 53,
      "start": 85.7034,
      "duration": 0.0499,
      "velocity": 120,
      "chip": "ym2612"
    },
    {
      "channel": 0,
      "note": 65,
      "start": 85.853,
      "duration": 0.1178,
      "velocity": 109,
      "chip": "ym2612"
    },
    {
      "channel": 1,
      "note": 65,
      "start": 85.8537,
      "duration": 0.0838,
      "velocity": 112,
      "chip": "ym2612"
    },
    {
      "channel": 3,
      "note": 53,
      "start": 85.8551,
      "duration": 0.0499,
      "velocity": 120,
      "chip": "ym2612"
    },
    {
      "channel": 0,
      "note": 77,
      "start": 86.0047,
      "duration": 0.1177,
      "velocity": 111,
      "chip": "ym2612"
    },
    {
      "channel": 1,
      "note": 65,
      "start": 86.0054,
      "duration": 0.0838,
      "velocity": 112,
      "chip": "ym2612"
    },
    {
      "channel": 3,
      "note": 65,
      "start": 86.0068,
      "duration": 0.0499,
      "velocity": 120,
      "chip": "ym2612"
    },
    {
      "channel": 0,
      "note": 77,
      "start": 86.1563,
      "duration": 0.1178,
      "velocity": 112,
      "chip": "ym2612"
    },
    {
      "channel": 1,
      "note": 65,
      "start": 86.1571,
      "duration": 0.0839,
      "velocity": 112,
      "chip": "ym2612"
    },
    {
      "channel": 3,
      "note": 53,
      "start": 86.1584,
      "duration": 0.0499,
      "velocity": 120,
      "chip": "ym2612"
    },
    {
      "channel": 0,
      "note": 65,
      "start": 86.308,
      "duration": 0.1178,
      "velocity": 109,
      "chip": "ym2612"
    },
    {
      "channel": 1,
      "note": 65,
      "start": 86.3088,
      "duration": 0.0839,
      "velocity": 112,
      "chip": "ym2612"
    },
    {
      "channel": 3,
      "note": 65,
      "start": 86.3101,
      "duration": 0.0499,
      "velocity": 120,
      "chip": "ym2612"
    },
    {
      "channel": 0,
      "note": 77,
      "start": 86.4597,
      "duration": 0.1178,
      "velocity": 108,
      "chip": "ym2612"
    },
    {
      "channel": 1,
      "note": 65,
      "start": 86.4604,
      "duration": 0.0839,
      "velocity": 112,
      "chip": "ym2612"
    },
    {
      "channel": 2,
      "note": 41,
      "start": 86.4612,
      "duration": 0.3028,
      "velocity": 110,
      "chip": "ym2612"
    },
    {
      "channel": 3,
      "note": 53,
      "start": 86.462,
      "duration": 0.0498,
      "velocity": 120,
      "chip": "ym2612"
    },
    {
      "channel": 0,
      "note": 65,
      "start": 86.6114,
      "duration": 0.1178,
      "velocity": 112,
      "chip": "ym2612"
    },
    {
      "channel": 1,
      "note": 65,
      "start": 86.6121,
      "duration": 0.0838,
      "velocity": 112,
      "chip": "ym2612"
    },
    {
      "channel": 3,
      "note": 53,
      "start": 86.6135,
      "duration": 0.0499,
      "velocity": 120,
      "chip": "ym2612"
    },
    {
      "channel": 0,
      "note": 65,
      "start": 86.7631,
      "duration": 0.1178,
      "velocity": 111,
      "chip": "ym2612"
    },
    {
      "channel": 1,
      "note": 65,
      "start": 86.7638,
      "duration": 0.0838,
      "velocity": 112,
      "chip": "ym2612"
    },
    {
      "channel": 2,
      "note": 44,
      "start": 86.7646,
      "duration": 0.3027,
      "velocity": 110,
      "chip": "ym2612"
    },
    {
      "channel": 3,
      "note": 65,
      "start": 86.7654,
      "duration": 0.0497,
      "velocity": 120,
      "chip": "ym2612"
    },
    {
      "channel": 0,
      "note": 77,
      "start": 86.9148,
      "duration": 0.1178,
      "velocity": 109,
      "chip": "ym2612"
    },
    {
      "channel": 1,
      "note": 65,
      "start": 86.9155,
      "duration": 0.0838,
      "velocity": 112,
      "chip": "ym2612"
    },
    {
      "channel": 3,
      "note": 53,
      "start": 86.9168,
      "duration": 0.0499,
      "velocity": 120,
      "chip": "ym2612"
    },
    {
      "channel": 0,
      "note": 65,
      "start": 87.0665,
      "duration": 0.1177,
      "velocity": 111,
      "chip": "ym2612"
    },
    {
      "channel": 1,
      "note": 65,
      "start": 87.0672,
      "duration": 0.0838,
      "velocity": 112,
      "chip": "ym2612"
    },
    {
      "channel": 2,
      "note": 46,
      "start": 87.0679,
      "duration": 0.3028,
      "velocity": 110,
      "chip": "ym2612"
    },
    {
      "channel": 3,
      "note": 65,
      "start": 87.0687,
      "duration": 0.0498,
      "velocity": 120,
      "chip": "ym2612"
    },
    {
      "channel": 0,
      "note": 65,
      "start": 87.2181,
      "duration": 0.1178,
      "velocity": 112,
      "chip": "ym2612"
    },
    {
      "channel": 1,
      "note": 65,
      "start": 87.2188,
      "duration": 0.0838,
      "velocity": 112,
      "chip": "ym2612"
    },
    {
      "channel": 3,
      "note": 65,
      "start": 87.2202,
      "duration": 0.0499,
      "velocity": 120,
      "chip": "ym2612"
    },
    {
      "channel": 0,
      "note": 63,
      "start": 87.3698,
      "duration": 0.1178,
      "velocity": 108,
      "chip": "ym2612"
    },
    {
      "channel": 1,
      "note": 65,
      "start": 87.3705,
      "duration": 0.0839,
      "velocity": 112,
      "chip": "ym2612"
    },
    {
      "channel": 2,
      "note": 46,
      "start": 87.3713,
      "duration": 1.5163,
      "velocity": 110,
      "chip": "ym2612"
    },
    {
      "channel": 3,
      "note": 51,
      "start": 87.3721,
      "duration": 0.0497,
      "velocity": 120,
      "chip": "ym2612"
    },
    {
      "channel": 4,
      "note": 7,
      "start": 87.378,
      "duration": 2.4265,
      "velocity": 1,
      "chip": "ym2612"
    },
    {
      "channel": 5,
      "note": 7,
      "start": 87.3787,
      "duration": 2.4265,
      "velocity": 1,
      "chip": "ym2612"
    },
    {
      "channel": 0,
      "note": 75,
      "start": 87.5215,
      "duration": 0.1178,
      "velocity": 108,
      "chip": "ym2612"
    },
    {
      "channel": 1,
      "note": 65,
      "start": 87.5222,
      "duration": 0.0839,
      "velocity": 112,
      "chip": "ym2612"
    },
    {
      "channel": 3,
      "note": 63,
      "start": 87.5237,
      "duration": 0.0499,
      "velocity": 120,
      "chip": "ym2612"
    },
    {
      "channel": 0,
      "note": 75,
      "start": 87.6732,
      "duration": 0.1178,
      "velocity": 112,
      "chip": "ym2612"
    },
    {
      "channel": 1,
      "note": 65,
      "start": 87.6739,
      "duration": 0.0838,
      "velocity": 112,
      "chip": "ym2612"
    },
    {
      "channel": 3,
      "note": 51,
      "start": 87.6753,
      "duration": 0.0499,
      "velocity": 120,
      "chip": "ym2612"
    },
    {
      "channel": 0,
      "note": 63,
      "start": 87.8249,
      "duration": 0.1178,
      "velocity": 109,
      "chip": "ym2612"
    },
    {
      "channel": 1,
      "note": 65,
      "start": 87.8256,
      "duration": 0.0838,
      "velocity": 112,
      "chip": "ym2612"
    },
    {
      "channel": 3,
      "note": 51,
      "start": 87.8269,
      "duration": 0.0499,
      "velocity": 120,
      "chip": "ym2612"
    },
    {
      "channel": 0,
      "note": 75,
      "start": 87.9765,
      "duration": 0.1178,
      "velocity": 108,
      "chip": "ym2612"
    },
    {
      "channel": 1,
      "note": 65,
      "start": 87.9772,
      "duration": 0.0838,
      "velocity": 112,
      "chip": "ym2612"
    },
    {
      "channel": 3,
      "note": 63,
      "start": 87.9786,
      "duration": 0.0499,
      "velocity": 120,
      "chip": "ym2612"
    },
    {
      "channel": 0,
      "note": 63,
      "start": 88.1282,
      "duration": 0.1177,
      "velocity": 110,
      "chip": "ym2612"
    },
    {
      "channel": 1,
      "note": 65,
      "start": 88.1289,
      "duration": 0.0838,
      "velocity": 112,
      "chip": "ym2612"
    },
    {
      "channel": 3,
      "note": 51,
      "start": 88.1303,
      "duration": 0.0499,
      "velocity": 120,
      "chip": "ym2612"
    },
    {
      "channel": 0,
      "note": 63,
      "start": 88.2799,
      "duration": 0.1178,
      "velocity": 109,
      "chip": "ym2612"
    },
    {
      "channel": 1,
      "note": 65,
      "start": 88.2806,
      "duration": 0.0838,
      "velocity": 112,
      "chip": "ym2612"
    },
    {
      "channel": 3,
      "note": 51,
      "start": 88.282,
      "duration": 0.0499,
      "velocity": 120,
      "chip": "ym2612"
    },
    {
      "channel": 0,
      "note": 75,
      "start": 88.4316,
      "duration": 0.1178,
      "velocity": 111,
      "chip": "ym2612"
    },
    {
      "channel": 1,
      "note": 65,
      "start": 88.4323,
      "duration": 0.0839,
      "velocity": 112,
      "chip": "ym2612"
    },
    {
      "channel": 3,
      "note": 63,
      "start": 88.4336,
      "duration": 0.0499,
      "velocity": 120,
      "chip": "ym2612"
    },
    {
      "channel": 0,
      "note": 75,
      "start": 88.5832,
      "duration": 0.1178,
      "velocity": 112,
      "chip": "ym2612"
    },
    {
      "channel": 1,
      "note": 65,
      "start": 88.5839,
      "duration": 0.0839,
      "velocity": 112,
      "chip": "ym2612"
    },
    {
      "channel": 3,
      "note": 51,
      "start": 88.5854,
      "duration": 0.0499,
      "velocity": 120,
      "chip": "ym2612"
    },
    {
      "channel": 0,
      "note": 63,
      "start": 88.735,
      "duration": 0.1178,
      "velocity": 109,
      "chip": "ym2612"
    },
    {
      "channel": 1,
      "note": 65,
      "start": 88.7357,
      "duration": 0.0838,
      "velocity": 112,
      "chip": "ym2612"
    },
    {
      "channel": 3,
      "note": 63,
      "start": 88.737,
      "duration": 0.0499,
      "velocity": 120,
      "chip": "ym2612"
    },
    {
      "channel": 0,
      "note": 75,
      "start": 88.8866,
      "duration": 0.1178,
      "velocity": 108,
      "chip": "ym2612"
    },
    {
      "channel": 1,
      "note": 65,
      "start": 88.8873,
      "duration": 0.0838,
      "velocity": 112,
      "chip": "ym2612"
    },
    {
      "channel": 2,
      "note": 44,
      "start": 88.8881,
      "duration": 0.4545,
      "velocity": 110,
      "chip": "ym2612"
    },
    {
      "channel": 3,
      "note": 51,
      "start": 88.8889,
      "duration": 0.0498,
      "velocity": 120,
      "chip": "ym2612"
    },
    {
      "channel": 0,
      "note": 63,
      "start": 89.0383,
      "duration": 0.1178,
      "velocity": 112,
      "chip": "ym2612"
    },
    {
      "channel": 1,
      "note": 65,
      "start": 89.039,
      "duration": 0.0838,
      "velocity": 112,
      "chip": "ym2612"
    },
    {
      "channel": 3,
      "note": 51,
      "start": 89.0404,
      "duration": 0.0499,
      "velocity": 120,
      "chip": "ym2612"
    },
    {
      "channel": 0,
      "note": 63,
      "start": 89.19,
      "duration": 0.1177,
      "velocity": 111,
      "chip": "ym2612"
    },
    {
      "channel": 1,
      "note": 65,
      "start": 89.1907,
      "duration": 0.0838,
      "velocity": 112,
      "chip": "ym2612"
    },
    {
      "channel": 3,
      "note": 63,
      "start": 89.1921,
      "duration": 0.05,
      "velocity": 120,
      "chip": "ym2612"
    },
    {
      "channel": 0,
      "note": 75,
      "start": 89.3417,
      "duration": 0.1178,
      "velocity": 109,
      "chip": "ym2612"
    },
    {
      "channel": 1,
      "note": 65,
      "start": 89.3424,
      "duration": 0.0838,
      "velocity": 112,
      "chip": "ym2612"
    },
    {
      "channel": 2,
      "note": 45,
      "start": 89.3432,
      "duration": 0.4544,
      "velocity": 110,
      "chip": "ym2612"
    },
    {
      "channel": 3,
      "note": 51,
      "start": 89.3439,
      "duration": 0.0497,
      "velocity": 120,
      "chip": "ym2612"
    },
    {
      "channel": 0,
      "note": 63,
      "start": 89.4934,
      "duration": 0.1178,
      "velocity": 111,
      "chip": "ym2612"
    },
    {
      "channel": 1,
      "note": 65,
      "start": 89.4941,
      "duration": 0.0839,
      "velocity": 112,
      "chip": "ym2612"
    },
    {
      "channel": 3,
      "note": 51,
      "start": 89.4954,
      "duration": 0.0499,
      "velocity": 120,
      "chip": "ym2612"
    },
    {
      "channel": 0,
      "note": 63,
      "start": 89.645,
      "duration": 0.1178,
      "velocity": 112,
      "chip": "ym2612"
    },
    {
      "channel": 1,
      "note": 65,
      "start": 89.6457,
      "duration": 0.0839,
      "velocity": 112,
      "chip": "ym2612"
    },
    {
      "channel": 3,
      "note": 63,
      "start": 89.6471,
      "duration": 0.0499,
      "velocity": 120,
      "chip": "ym2612"
    },
    {
      "channel": 0,
      "note": 65,
      "start": 89.7967,
      "duration": 0.1178,
      "velocity": 108,
      "chip": "ym2612"
    },
    {
      "channel": 1,
      "note": 65,
      "start": 89.7974,
      "duration": 0.0838,
      "velocity": 112,
      "chip": "ym2612"
    },
    {
      "channel": 2,
      "note": 44,
      "start": 89.7982,
      "duration": 1.8196,
      "velocity": 110,
      "chip": "ym2612"
    },
    {
      "channel": 3,
      "note": 53,
      "start": 89.799,
      "duration": 0.0498,
      "velocity": 120,
      "chip": "ym2612"
    },
    {
      "channel": 4,
      "note": 7,
      "start": 89.8049,
      "duration": 2.4264,
      "velocity": 1,
      "chip": "ym2612"
    },
    {
      "channel": 5,
      "note": 7,
      "start": 89.8056,
      "duration": 2.4264,
      "velocity": 1,
      "chip": "ym2612"
    },
    {
      "channel": 0,
      "note": 77,
      "start": 89.9484,
      "duration": 0.1178,
      "velocity": 108,
      "chip": "ym2612"
    },
    {
      "channel": 1,
      "note": 65,
      "start": 89.9491,
      "duration": 0.0838,
      "velocity": 112,
      "chip": "ym2612"
    },
    {
      "channel": 3,
      "note": 65,
      "start": 89.9505,
      "duration": 0.0499,
      "velocity": 120,
      "chip": "ym2612"
    },
    {
      "channel": 0,
      "note": 77,
      "start": 90.1,
      "duration": 0.1178,
      "velocity": 112,
      "chip": "ym2612"
    },
    {
      "channel": 1,
      "note": 65,
      "start": 90.1007,
      "duration": 0.0838,
      "velocity": 112,
      "chip": "ym2612"
    },
    {
      "channel": 3,
      "note": 53,
      "start": 90.1022,
      "duration": 0.0499,
      "velocity": 120,
      "chip": "ym2612"
    },
    {
      "channel": 0,
      "note": 65,
      "start": 90.2518,
      "duration": 0.1177,
      "velocity": 109,
      "chip": "ym2612"
    },
    {
      "channel": 1,
      "note": 65,
      "start": 90.2525,
      "duration": 0.0838,
      "velocity": 112,
      "chip": "ym2612"
    },
    {
      "channel": 3,
      "note": 53,
      "start": 90.2538,
      "duration": 0.0499,
      "velocity": 120,
      "chip": "ym2612"
    },
    {
      "channel": 0,
      "note": 77,
      "start": 90.4034,
      "duration": 0.1178,
      "velocity": 108,
      "chip": "ym2612"
    },
    {
      "channel": 1,
      "note": 65,
      "start": 90.4041,
      "duration": 0.0838,
      "velocity": 112,
      "chip": "ym2612"
    },
    {
      "channel": 3,
      "note": 65,
      "start": 90.4055,
      "duration": 0.0499,
      "velocity": 120,
      "chip": "ym2612"
    },
    {
      "channel": 0,
      "note": 65,
      "start": 90.5551,
      "duration": 0.1178,
      "velocity": 110,
      "chip": "ym2612"
    },
    {
      "channel": 1,
      "note": 65,
      "start": 90.5558,
      "duration": 0.0838,
      "velocity": 112,
      "chip": "ym2612"
    },
    {
      "channel": 3,
      "note": 53,
      "start": 90.5572,
      "duration": 0.0499,
      "velocity": 120,
      "chip": "ym2612"
    },
    {
      "channel": 0,
      "note": 65,
      "start": 90.7068,
      "duration": 0.1177,
      "velocity": 109,
      "chip": "ym2612"
    },
    {
      "channel": 1,
      "note": 65,
      "start": 90.7076,
      "duration": 0.0838,
      "velocity": 112,
      "chip": "ym2612"
    },
    {
      "channel": 3,
      "note": 53,
      "start": 90.7089,
      "duration": 0.0499,
      "velocity": 120,
      "chip": "ym2612"
    },
    {
      "channel": 0,
      "note": 77,
      "start": 90.8585,
      "duration": 0.1178,
      "velocity": 111,
      "chip": "ym2612"
    },
    {
      "channel": 1,
      "note": 65,
      "start": 90.8592,
      "duration": 0.0838,
      "velocity": 112,
      "chip": "ym2612"
    },
    {
      "channel": 3,
      "note": 65,
      "start": 90.8605,
      "duration": 0.0499,
      "velocity": 120,
      "chip": "ym2612"
    },
    {
      "channel": 0,
      "note": 77,
      "start": 91.0102,
      "duration": 0.1178,
      "velocity": 112,
      "chip": "ym2612"
    },
    {
      "channel": 1,
      "note": 65,
      "start": 91.0109,
      "duration": 0.0838,
      "velocity": 112,
      "chip": "ym2612"
    },
    {
      "channel": 3,
      "note": 53,
      "start": 91.0122,
      "duration": 0.0499,
      "velocity": 120,
      "chip": "ym2612"
    },
    {
      "channel": 0,
      "note": 65,
      "start": 91.1618,
      "duration": 0.1178,
      "velocity": 109,
      "chip": "ym2612"
    },
    {
      "channel": 1,
      "note": 65,
      "start": 91.1625,
      "duration": 0.0838,
      "velocity": 112,
      "chip": "ym2612"
    },
    {
      "channel": 3,
      "note": 65,
      "start": 91.1639,
      "duration": 0.0499,
      "velocity": 120,
      "chip": "ym2612"
    },
    {
      "channel": 0,
      "note": 77,
      "start": 91.3135,
      "duration": 0.1177,
      "velocity": 108,
      "chip": "ym2612"
    },
    {
      "channel": 1,
      "note": 65,
      "start": 91.3142,
      "duration": 0.0838,
      "velocity": 112,
      "chip": "ym2612"
    },
    {
      "channel": 3,
      "note": 53,
      "start": 91.3156,
      "duration": 0.05,
      "velocity": 120,
      "chip": "ym2612"
    },
    {
      "channel": 0,
      "note": 65,
      "start": 91.4652,
      "duration": 0.1178,
      "velocity": 112,
      "chip": "ym2612"
    },
    {
      "channel": 1,
      "note": 65,
      "start": 91.4659,
      "duration": 0.0838,
      "velocity": 112,
      "chip": "ym2612"
    },
    {
      "channel": 3,
      "note": 53,
      "start": 91.4673,
      "duration": 0.0499,
      "velocity": 120,
      "chip": "ym2612"
    },
    {
      "channel": 0,
      "note": 65,
      "start": 91.6169,
      "duration": 0.1178,
      "velocity": 111,
      "chip": "ym2612"
    },
    {
      "channel": 1,
      "note": 65,
      "start": 91.6176,
      "duration": 0.0838,
      "velocity": 112,
      "chip": "ym2612"
    },
    {
      "channel": 2,
      "note": 41,
      "start": 91.6184,
      "duration": 0.1511,
      "velocity": 110,
      "chip": "ym2612"
    },
    {
      "channel": 3,
      "note": 65,
      "start": 91.6191,
      "duration": 0.0497,
      "velocity": 120,
      "chip": "ym2612"
    },
    {
      "channel": 0,
      "note": 77,
      "start": 91.7685,
      "duration": 0.1178,
      "velocity": 109,
      "chip": "ym2612"
    },
    {
      "channel": 1,
      "note": 65,
      "start": 91.7693,
      "duration": 0.0839,
      "velocity": 112,
      "chip": "ym2612"
    },
    {
      "channel": 2,
      "note": 43,
      "start": 91.7701,
      "duration": 0.1511,
      "velocity": 110,
      "chip": "ym2612"
    },
    {
      "channel": 3,
      "note": 53,
      "start": 91.7708,
      "duration": 0.0498,
      "velocity": 120,
      "chip": "ym2612"
    },
    {
      "channel": 0,
      "note": 65,
      "start": 91.9203,
      "duration": 0.1178,
      "velocity": 111,
      "chip": "ym2612"
    },
    {
      "channel": 1,
      "note": 65,
      "start": 91.921,
      "duration": 0.0838,
      "velocity": 112,
      "chip": "ym2612"
    },
    {
      "channel": 2,
      "note": 44,
      "start": 91.9217,
      "duration": 0.1511,
      "velocity": 110,
      "chip": "ym2612"
    },
    {
      "channel": 3,
      "note": 53,
      "start": 91.9225,
      "duration": 0.0498,
      "velocity": 120,
      "chip": "ym2612"
    },
    {
      "channel": 0,
      "note": 65,
      "start": 92.0719,
      "duration": 0.1178,
      "velocity": 112,
      "chip": "ym2612"
    },
    {
      "channel": 1,
      "note": 65,
      "start": 92.0726,
      "duration": 0.0838,
      "velocity": 112,
      "chip": "ym2612"
    },
    {
      "channel": 2,
      "note": 44,
      "start": 92.0735,
      "duration": 0.1511,
      "velocity": 110,
      "chip": "ym2612"
    },
    {
      "channel": 3,
      "note": 65,
      "start": 92.0743,
      "duration": 0.0497,
      "velocity": 120,
      "chip": "ym2612"
    },
    {
      "channel": 0,
      "note": 65,
      "start": 92.2237,
      "duration": 0.1177,
      "velocity": 108,
      "chip": "ym2612"
    },
    {
      "channel": 1,
      "note": 65,
      "start": 92.2244,
      "duration": 0.0838,
      "velocity": 112,
      "chip": "ym2612"
    },
    {
      "channel": 2,
      "note": 48,
      "start": 92.2252,
      "duration": 1.5162,
      "velocity": 110,
      "chip": "ym2612"
    },
    {
      "channel": 3,
      "note": 53,
      "start": 92.2259,
      "duration": 0.0498,
      "velocity": 120,
      "chip": "ym2612"
    },
    {
      "channel": 4,
      "note": 7,
      "start": 92.2319,
      "duration": 2.4264,
      "velocity": 1,
      "chip": "ym2612"
    },
    {
      "channel": 5,
      "note": 7,
      "start": 92.2326,
      "duration": 2.4264,
      "velocity": 1,
      "chip": "ym2612"
    },
    {
      "channel": 0,
      "note": 77,
      "start": 92.3753,
      "duration": 0.1177,
      "velocity": 108,
      "chip": "ym2612"
    },
    {
      "channel": 1,
      "note": 65,
      "start": 92.376,
      "duration": 0.0838,
      "velocity": 112,
      "chip": "ym2612"
    },
    {
      "channel": 3,
      "note": 65,
      "start": 92.3773,
      "duration": 0.05,
      "velocity": 120,
      "chip": "ym2612"
    },
    {
      "channel": 0,
      "note": 77,
      "start": 92.527,
      "duration": 0.1178,
      "velocity": 112,
      "chip": "ym2612"
    },
    {
      "channel": 1,
      "note": 65,
      "start": 92.5277,
      "duration": 0.0838,
      "velocity": 112,
      "chip": "ym2612"
    },
    {
      "channel": 3,
      "note": 53,
      "start": 92.529,
      "duration": 0.0499,
      "velocity": 120,
      "chip": "ym2612"
    },
    {
      "channel": 0,
      "note": 65,
      "start": 92.6787,
      "duration": 0.1178,
      "velocity": 109,
      "chip": "ym2612"
    },
    {
      "channel": 1,
      "note": 65,
      "start": 92.6794,
      "duration": 0.0838,
      "velocity": 112,
      "chip": "ym2612"
    },
    {
      "channel": 3,
      "note": 53,
      "start": 92.6807,
      "duration": 0.0499,
      "velocity": 120,
      "chip": "ym2612"
    },
    {
      "channel": 0,
      "note": 77,
      "start": 92.8303,
      "duration": 0.1178,
      "velocity": 108,
      "chip": "ym2612"
    },
    {
      "channel": 1,
      "note": 65,
      "start": 92.831,
      "duration": 0.0839,
      "velocity": 112,
      "chip": "ym2612"
    },
    {
      "channel": 3,
      "note": 65,
      "start": 92.8324,
      "duration": 0.0499,
      "velocity": 120,
      "chip": "ym2612"
    },
    {
      "channel": 0,
      "note": 65,
      "start": 92.982,
      "duration": 0.1178,
      "velocity": 110,
      "chip": "ym2612"
    },
    {
      "channel": 1,
      "note": 65,
      "start": 92.9827,
      "duration": 0.0838,
      "velocity": 112,
      "chip": "ym2612"
    },
    {
      "channel": 3,
      "note": 53,
      "start": 92.9841,
      "duration": 0.0499,
      "velocity": 120,
      "chip": "ym2612"
    },
    {
      "channel": 0,
      "note": 65,
      "start": 93.1337,
      "duration": 0.1178,
      "velocity": 109,
      "chip": "ym2612"
    },
    {
      "channel": 1,
      "note": 65,
      "start": 93.1344,
      "duration": 0.0838,
      "velocity": 112,
      "chip": "ym2612"
    },
    {
      "channel": 3,
      "note": 53,
      "start": 93.1357,
      "duration": 0.0499,
      "velocity": 120,
      "chip": "ym2612"
    },
    {
      "channel": 0,
      "note": 77,
      "start": 93.2854,
      "duration": 0.1178,
      "velocity": 111,
      "chip": "ym2612"
    },
    {
      "channel": 1,
      "note": 65,
      "start": 93.2861,
      "duration": 0.0838,
      "velocity": 112,
      "chip": "ym2612"
    },
    {
      "channel": 3,
      "note": 65,
      "start": 93.2875,
      "duration": 0.0499,
      "velocity": 120,
      "chip": "ym2612"
    },
    {
      "channel": 0,
      "note": 77,
      "start": 93.4371,
      "duration": 0.1177,
      "velocity": 112,
      "chip": "ym2612"
    },
    {
      "channel": 1,
      "note": 65,
      "start": 93.4378,
      "duration": 0.0838,
      "velocity": 112,
      "chip": "ym2612"
    },
    {
      "channel": 3,
      "note": 53,
      "start": 93.4391,
      "duration": 0.05,
      "velocity": 120,
      "chip": "ym2612"
    },
    {
      "channel": 0,
      "note": 65,
      "start": 93.5887,
      "duration": 0.1178,
      "velocity": 109,
      "chip": "ym2612"
    },
    {
      "channel": 1,
      "note": 65,
      "start": 93.5894,
      "duration": 0.0838,
      "velocity": 112,
      "chip": "ym2612"
    },
    {
      "channel": 3,
      "note": 65,
      "start": 93.5908,
      "duration": 0.0499,
      "velocity": 120,
      "chip": "ym2612"
    },
    {
      "channel": 0,
      "note": 77,
      "start": 93.7404,
      "duration": 0.1178,
      "velocity": 108,
      "chip": "ym2612"
    },
    {
      "channel": 1,
      "note": 65,
      "start": 93.7411,
      "duration": 0.0838,
      "velocity": 112,
      "chip": "ym2612"
    },
    {
      "channel": 2,
      "note": 46,
      "start": 93.742,
      "duration": 0.4544,
      "velocity": 110,
      "chip": "ym2612"
    },
    {
      "channel": 3,
      "note": 53,
      "start": 93.7427,
      "duration": 0.0498,
      "velocity": 120,
      "chip": "ym2612"
    },
    {
      "channel": 0,
      "note": 65,
      "start": 93.8921,
      "duration": 0.1178,
      "velocity": 112,
      "chip": "ym2612"
    },
    {
      "channel": 1,
      "note": 65,
      "start": 93.8928,
      "duration": 0.0839,
      "velocity": 112,
      "chip": "ym2612"
    },
    {
      "channel": 3,
      "note": 53,
      "start": 93.8942,
      "duration": 0.0499,
      "velocity": 120,
      "chip": "ym2612"
    },
    {
      "channel": 0,
      "note": 65,
      "start": 94.0438,
      "duration": 0.1178,
      "velocity": 111,
      "chip": "ym2612"
    },
    {
      "channel": 1,
      "note": 65,
      "start": 94.0445,
      "duration": 0.0838,
      "velocity": 112,
      "chip": "ym2612"
    },
    {
      "channel": 3,
      "note": 65,
      "start": 94.0459,
      "duration": 0.0499,
      "velocity": 120,
      "chip": "ym2612"
    },
    {
      "channel": 0,
      "note": 77,
      "start": 94.1955,
      "duration": 0.1178,
      "velocity": 109,
      "chip": "ym2612"
    },
    {
      "channel": 1,
      "note": 65,
      "start": 94.1962,
      "duration": 0.0838,
      "velocity": 112,
      "chip": "ym2612"
    },
    {
      "channel": 2,
      "note": 48,
      "start": 94.197,
      "duration": 0.4545,
      "velocity": 110,
      "chip": "ym2612"
    },
    {
      "channel": 3,
      "note": 53,
      "start": 94.1978,
      "duration": 0.0497,
      "velocity": 120,
      "chip": "ym2612"
    },
    {
      "channel": 0,
      "note": 65,
      "start": 94.3471,
      "duration": 0.1178,
      "velocity": 111,
      "chip": "ym2612"
    },
    {
      "channel": 1,
      "note": 65,
      "start": 94.3478,
      "duration": 0.0838,
      "velocity": 112,
      "chip": "ym2612"
    },
    {
      "channel": 3,
      "note": 53,
      "start": 94.3492,
      "duration": 0.0499,
      "velocity": 120,
      "chip": "ym2612"
    },
    {
      "channel": 0,
      "note": 65,
      "start": 94.4988,
      "duration": 0.1177,
      "velocity": 112,
      "chip": "ym2612"
    },
    {
      "channel": 1,
      "note": 65,
      "start": 94.4995,
      "duration": 0.0838,
      "velocity": 112,
      "chip": "ym2612"
    },
    {
      "channel": 3,
      "note": 65,
      "start": 94.5009,
      "duration": 0.05,
      "velocity": 120,
      "chip": "ym2612"
    },
    {
      "channel": 0,
      "note": 65,
      "start": 94.6505,
      "duration": 0.1178,
      "velocity": 108,
      "chip": "ym2612"
    },
    {
      "channel": 1,
      "note": 65,
      "start": 94.6512,
      "duration": 0.0839,
      "velocity": 112,
      "chip": "ym2612"
    },
    {
      "channel": 2,
      "note": 53,
      "start": 94.652,
      "duration": 1.5162,
      "velocity": 110,
      "chip": "ym2612"
    },
    {
      "channel": 3,
      "note": 53,
      "start": 94.6528,
      "duration": 0.0497,
      "velocity": 120,
      "chip": "ym2612"
    },
    {
      "channel": 4,
      "note": 7,
      "start": 94.6588,
      "duration": 2.4264,
      "velocity": 1,
      "chip": "ym2612"
    },
    {
      "channel": 5,
      "note": 7,
      "start": 94.6595,
      "duration": 2.4264,
      "velocity": 1,
      "chip": "ym2612"
    },
    {
      "channel": 0,
      "note": 77,
      "start": 94.8022,
      "duration": 0.1178,
      "velocity": 108,
      "chip": "ym2612"
    },
    {
      "channel": 1,
      "note": 65,
      "start": 94.8029,
      "duration": 0.0838,
      "velocity": 112,
      "chip": "ym2612"
    },
    {
      "channel": 3,
      "note": 65,
      "start": 94.8042,
      "duration": 0.0499,
      "velocity": 120,
      "chip": "ym2612"
    },
    {
      "channel": 0,
      "note": 77,
      "start": 94.9539,
      "duration": 0.1178,
      "velocity": 112,
      "chip": "ym2612"
    },
    {
      "channel": 1,
      "note": 65,
      "start": 94.9546,
      "duration": 0.0839,
      "velocity": 112,
      "chip": "ym2612"
    },
    {
      "channel": 3,
      "note": 53,
      "start": 94.956,
      "duration": 0.0499,
      "velocity": 120,
      "chip": "ym2612"
    },
    {
      "channel": 0,
      "note": 65,
      "start": 95.1055,
      "duration": 0.1178,
      "velocity": 109,
      "chip": "ym2612"
    },
    {
      "channel": 1,
      "note": 65,
      "start": 95.1062,
      "duration": 0.0839,
      "velocity": 112,
      "chip": "ym2612"
    },
    {
      "channel": 3,
      "note": 53,
      "start": 95.1076,
      "duration": 0.0499,
      "velocity": 120,
      "chip": "ym2612"
    },
    {
      "channel": 0,
      "note": 77,
      "start": 95.2573,
      "duration": 0.1177,
      "velocity": 108,
      "chip": "ym2612"
    },
    {
      "channel": 1,
      "note": 65,
      "start": 95.258,
      "duration": 0.0838,
      "velocity": 112,
      "chip": "ym2612"
    },
    {
      "channel": 3,
      "note": 65,
      "start": 95.2593,
      "duration": 0.0499,
      "velocity": 120,
      "chip": "ym2612"
    },
    {
      "channel": 0,
      "note": 65,
      "start": 95.4089,
      "duration": 0.1178,
      "velocity": 110,
      "chip": "ym2612"
    },
    {
      "channel": 1,
      "note": 65,
      "start": 95.4096,
      "duration": 0.0838,
      "velocity": 112,
      "chip": "ym2612"
    },
    {
      "channel": 3,
      "note": 53,
      "start": 95.411,
      "duration": 0.0499,
      "velocity": 120,
      "chip": "ym2612"
    },
    {
      "channel": 0,
      "note": 65,
      "start": 95.5606,
      "duration": 0.1177,
      "velocity": 109,
      "chip": "ym2612"
    },
    {
      "channel": 1,
      "note": 65,
      "start": 95.5613,
      "duration": 0.0838,
      "velocity": 112,
      "chip": "ym2612"
    },
    {
      "channel": 3,
      "note": 53,
      "start": 95.5626,
      "duration": 0.05,
      "velocity": 120,
      "chip": "ym2612"
    },
    {
      "channel": 0,
      "note": 77,
      "start": 95.7123,
      "duration": 0.1178,
      "velocity": 111,
      "chip": "ym2612"
    },
    {
      "channel": 1,
      "note": 65,
      "start": 95.7129,
      "duration": 0.0839,
      "velocity": 112,
      "chip": "ym2612"
    },
    {
      "channel": 3,
      "note": 65,
      "start": 95.7144,
      "duration": 0.0499,
      "velocity": 120,
      "chip": "ym2612"
    },
    {
      "channel": 0,
      "note": 77,
      "start": 95.864,
      "duration": 0.1178,
      "velocity": 112,
      "chip": "ym2612"
    },
    {
      "channel": 1,
      "note": 65,
      "start": 95.8647,
      "duration": 0.0838,
      "velocity": 112,
      "chip": "ym2612"
    },
    {
      "channel": 3,
      "note": 53,
      "start": 95.866,
      "duration": 0.0499,
      "velocity": 120,
      "chip": "ym2612"
    },
    {
      "channel": 0,
      "note": 65,
      "start": 96.0156,
      "duration": 0.1178,
      "velocity": 109,
      "chip": "ym2612"
    },
    {
      "channel": 1,
      "note": 65,
      "start": 96.0163,
      "duration": 0.0839,
      "velocity": 112,
      "chip": "ym2612"
    },
    {
      "channel": 3,
      "note": 65,
      "start": 96.0177,
      "duration": 0.05,
      "velocity": 120,
      "chip": "ym2612"
    },
    {
      "channel": 0,
      "note": 77,
      "start": 96.1673,
      "duration": 0.1178,
      "velocity": 108,
      "chip": "ym2612"
    },
    {
      "channel": 1,
      "note": 65,
      "start": 96.168,
      "duration": 0.0839,
      "velocity": 112,
      "chip": "ym2612"
    },
    {
      "channel": 2,
      "note": 53,
      "start": 96.1688,
      "duration": 0.3028,
      "velocity": 110,
      "chip": "ym2612"
    },
    {
      "channel": 3,
      "note": 53,
      "start": 96.1696,
      "duration": 0.0498,
      "velocity": 120,
      "chip": "ym2612"
    },
    {
      "channel": 0,
      "note": 65,
      "start": 96.319,
      "duration": 0.1178,
      "velocity": 112,
      "chip": "ym2612"
    },
    {
      "channel": 1,
      "note": 65,
      "start": 96.3197,
      "duration": 0.0838,
      "velocity": 112,
      "chip": "ym2612"
    },
    {
      "channel": 3,
      "note": 53,
      "start": 96.3211,
      "duration": 0.0499,
      "velocity": 120,
      "chip": "ym2612"
    },
    {
      "channel": 0,
      "note": 65,
      "start": 96.4707,
      "duration": 0.1178,
      "velocity": 111,
      "chip": "ym2612"
    },
    {
      "channel": 1,
      "note": 65,
      "start": 96.4714,
      "duration": 0.0838,
      "velocity": 112,
      "chip": "ym2612"
    },
    {
      "channel": 2,
      "note": 51,
      "start": 96.4722,
      "duration": 0.3029,
      "velocity": 110,
      "chip": "ym2612"
    },
    {
      "channel": 3,
      "note": 65,
      "start": 96.4729,
      "duration": 0.0498,
      "velocity": 120,
      "chip": "ym2612"
    },
    {
      "channel": 0,
      "note": 77,
      "start": 96.6224,
      "duration": 0.1178,
      "velocity": 109,
      "chip": "ym2612"
    },
    {
      "channel": 1,
      "note": 65,
      "start": 96.6231,
      "duration": 0.0839,
      "velocity": 112,
      "chip": "ym2612"
    },
    {
      "channel": 3,
      "note": 53,
      "start": 96.6245,
      "duration": 0.0499,
      "velocity": 120,
      "chip": "ym2612"
    },
    {
      "channel": 0,
      "note": 65,
      "start": 96.7741,
      "duration": 0.1177,
      "velocity": 111,
      "chip": "ym2612"
    },
    {
      "channel": 1,
      "note": 65,
      "start": 96.7748,
      "duration": 0.0838,
      "velocity": 112,
      "chip": "ym2612"
    },
    {
      "channel": 2,
      "note": 46,
      "start": 96.7756,
      "duration": 0.3027,
      "velocity": 110,
      "chip": "ym2612"
    },
    {
      "channel": 3,
      "note": 53,
      "start": 96.7764,
      "duration": 0.0497,
      "velocity": 120,
      "chip": "ym2612"
    },
    {
      "channel": 0,
      "note": 65,
      "start": 96.9257,
      "duration": 0.1178,
      "velocity": 112,
      "chip": "ym2612"
    },
    {
      "channel": 1,
      "note": 65,
      "start": 96.9264,
      "duration": 0.0838,
      "velocity": 112,
      "chip": "ym2612"
    },
    {
      "channel": 3,
      "note": 65,
      "start": 96.9278,
      "duration": 0.0499,
      "velocity": 120,
      "chip": "ym2612"
    },
    {
      "channel": 0,
      "note": 63,
      "start": 97.0774,
      "duration": 0.1178,
      "velocity": 108,
      "chip": "ym2612"
    },
    {
      "channel": 1,
      "note": 65,
      "start": 97.0781,
      "duration": 0.0839,
      "velocity": 112,
      "chip": "ym2612"
    },
    {
      "channel": 2,
      "note": 46,
      "start": 97.0789,
      "duration": 1.5162,
      "velocity": 110,
      "chip": "ym2612"
    },
    {
      "channel": 3,
      "note": 51,
      "start": 97.0797,
      "duration": 0.0497,
      "velocity": 120,
      "chip": "ym2612"
    },
    {
      "channel": 4,
      "note": 7,
      "start": 97.0857,
      "duration": 2.4264,
      "velocity": 1,
      "chip": "ym2612"
    },
    {
      "channel": 5,
      "note": 7,
      "start": 97.0864,
      "duration": 2.4264,
      "velocity": 1,
      "chip": "ym2612"
    },
    {
      "channel": 0,
      "note": 75,
      "start": 97.2291,
      "duration": 0.1178,
      "velocity": 108,
      "chip": "ym2612"
    },
    {
      "channel": 1,
      "note": 65,
      "start": 97.2298,
      "duration": 0.0838,
      "velocity": 112,
      "chip": "ym2612"
    },
    {
      "channel": 3,
      "note": 63,
      "start": 97.2312,
      "duration": 0.0499,
      "velocity": 120,
      "chip": "ym2612"
    },
    {
      "channel": 0,
      "note": 75,
      "start": 97.3808,
      "duration": 0.1178,
      "velocity": 112,
      "chip": "ym2612"
    },
    {
      "channel": 1,
      "note": 65,
      "start": 97.3815,
      "duration": 0.0838,
      "velocity": 112,
      "chip": "ym2612"
    },
    {
      "channel": 3,
      "note": 51,
      "start": 97.3828,
      "duration": 0.0499,
      "velocity": 120,
      "chip": "ym2612"
    },
    {
      "channel": 0,
      "note": 63,
      "start": 97.5324,
      "duration": 0.1178,
      "velocity": 109,
      "chip": "ym2612"
    },
    {
      "channel": 1,
      "note": 65,
      "start": 97.5331,
      "duration": 0.0838,
      "velocity": 112,
      "chip": "ym2612"
    },
    {
      "channel": 3,
      "note": 51,
      "start": 97.5345,
      "duration": 0.05,
      "velocity": 120,
      "chip": "ym2612"
    },
    {
      "channel": 0,
      "note": 75,
      "start": 97.6841,
      "duration": 0.1177,
      "velocity": 108,
      "chip": "ym2612"
    },
    {
      "channel": 1,
      "note": 65,
      "start": 97.6849,
      "duration": 0.0838,
      "velocity": 112,
      "chip": "ym2612"
    },
    {
      "channel": 3,
      "note": 63,
      "start": 97.6862,
      "duration": 0.05,
      "velocity": 120,
      "chip": "ym2612"
    },
    {
      "channel": 0,
      "note": 63,
      "start": 97.8358,
      "duration": 0.1178,
      "velocity": 110,
      "chip": "ym2612"
    },
    {
      "channel": 1,
      "note": 65,
      "start": 97.8365,
      "duration": 0.0839,
      "velocity": 112,
      "chip": "ym2612"
    },
    {
      "channel": 3,
      "note": 51,
      "start": 97.8379,
      "duration": 0.0499,
      "velocity": 120,
      "chip": "ym2612"
    },
    {
      "channel": 0,
      "note": 63,
      "start": 97.9875,
      "duration": 0.1178,
      "velocity": 109,
      "chip": "ym2612"
    },
    {
      "channel": 1,
      "note": 65,
      "start": 97.9882,
      "duration": 0.0838,
      "velocity": 112,
      "chip": "ym2612"
    },
    {
      "channel": 3,
      "note": 51,
      "start": 97.9895,
      "duration": 0.0499,
      "velocity": 120,
      "chip": "ym2612"
    },
    {
      "channel": 0,
      "note": 75,
      "start": 98.1392,
      "duration": 0.1178,
      "velocity": 111,
      "chip": "ym2612"
    },
    {
      "channel": 1,
      "note": 65,
      "start": 98.1399,
      "duration": 0.0839,
      "velocity": 112,
      "chip": "ym2612"
    },
    {
      "channel": 3,
      "note": 63,
      "start": 98.1413,
      "duration": 0.0499,
      "velocity": 120,
      "chip": "ym2612"
    },
    {
      "channel": 0,
      "note": 75,
      "start": 98.2909,
      "duration": 0.1178,
      "velocity": 112,
      "chip": "ym2612"
    },
    {
      "channel": 1,
      "note": 65,
      "start": 98.2916,
      "duration": 0.0838,
      "velocity": 112,
      "chip": "ym2612"
    },
    {
      "channel": 3,
      "note": 51,
      "start": 98.293,
      "duration": 0.0499,
      "velocity": 120,
      "chip": "ym2612"
    },
    {
      "channel": 0,
      "note": 63,
      "start": 98.4425,
      "duration": 0.1178,
      "velocity": 109,
      "chip": "ym2612"
    },
    {
      "channel": 1,
      "note": 65,
      "start": 98.4432,
      "duration": 0.0838,
      "velocity": 112,
      "chip": "ym2612"
    },
    {
      "channel": 3,
      "note": 63,
      "start": 98.4446,
      "duration": 0.0499,
      "velocity": 120,
      "chip": "ym2612"
    },
    {
      "channel": 0,
      "note": 75,
      "start": 98.5942,
      "duration": 0.1178,
      "velocity": 108,
      "chip": "ym2612"
    },
    {
      "channel": 1,
      "note": 65,
      "start": 98.5949,
      "duration": 0.0838,
      "velocity": 112,
      "chip": "ym2612"
    },
    {
      "channel": 2,
      "note": 44,
      "start": 98.5957,
      "duration": 0.4545,
      "velocity": 110,
      "chip": "ym2612"
    },
    {
      "channel": 3,
      "note": 51,
      "start": 98.5965,
      "duration": 0.0498,
      "velocity": 120,
      "chip": "ym2612"
    },
    {
      "channel": 0,
      "note": 63,
      "start": 98.7459,
      "duration": 0.1177,
      "velocity": 112,
      "chip": "ym2612"
    },
    {
      "channel": 1,
      "note": 65,
      "start": 98.7466,
      "duration": 0.0838,
      "velocity": 112,
      "chip": "ym2612"
    },
    {
      "channel": 3,
      "note": 51,
      "start": 98.7479,
      "duration": 0.05,
      "velocity": 120,
      "chip": "ym2612"
    },
    {
      "channel": 0,
      "note": 63,
      "start": 98.8976,
      "duration": 0.1177,
      "velocity": 111,
      "chip": "ym2612"
    },
    {
      "channel": 1,
      "note": 65,
      "start": 98.8983,
      "duration": 0.0839,
      "velocity": 112,
      "chip": "ym2612"
    },
    {
      "channel": 3,
      "note": 63,
      "start": 98.8997,
      "duration": 0.0499,
      "velocity": 120,
      "chip": "ym2612"
    },
    {
      "channel": 0,
      "note": 75,
      "start": 99.0493,
      "duration": 0.1178,
      "velocity": 109,
      "chip": "ym2612"
    },
    {
      "channel": 1,
      "note": 65,
      "start": 99.05,
      "duration": 0.0838,
      "velocity": 112,
      "chip": "ym2612"
    },
    {
      "channel": 2,
      "note": 43,
      "start": 99.0507,
      "duration": 0.4544,
      "velocity": 110,
      "chip": "ym2612"
    },
    {
      "channel": 3,
      "note": 51,
      "start": 99.0515,
      "duration": 0.0497,
      "velocity": 120,
      "chip": "ym2612"
    },
    {
      "channel": 0,
      "note": 63,
      "start": 99.2009,
      "duration": 0.1178,
      "velocity": 111,
      "chip": "ym2612"
    },
    {
      "channel": 1,
      "note": 65,
      "start": 99.2016,
      "duration": 0.0839,
      "velocity": 112,
      "chip": "ym2612"
    },
    {
      "channel": 3,
      "note": 51,
      "start": 99.203,
      "duration": 0.0499,
      "velocity": 120,
      "chip": "ym2612"
    },
    {
      "channel": 0,
      "note": 63,
      "start": 99.3527,
      "duration": 0.1178,
      "velocity": 112,
      "chip": "ym2612"
    },
    {
      "channel": 1,
      "note": 65,
      "start": 99.3534,
      "duration": 0.0838,
      "velocity": 112,
      "chip": "ym2612"
    },
    {
      "channel": 3,
      "note": 63,
      "start": 99.3547,
      "duration": 0.0499,
      "velocity": 120,
      "chip": "ym2612"
    },
    {
      "channel": 0,
      "note": 65,
      "start": 99.5043,
      "duration": 0.1178,
      "velocity": 108,
      "chip": "ym2612"
    },
    {
      "channel": 1,
      "note": 65,
      "start": 99.505,
      "duration": 0.0838,
      "velocity": 112,
      "chip": "ym2612"
    },
    {
      "channel": 2,
      "note": 39,
      "start": 99.5058,
      "duration": 2.427,
      "velocity": 110,
      "chip": "ym2612"
    },
    {
      "channel": 3,
      "note": 53,
      "start": 99.5065,
      "duration": 0.0498,
      "velocity": 120,
      "chip": "ym2612"
    },
    {
      "channel": 4,
      "note": 7,
      "start": 99.5126,
      "duration": 2.4263,
      "velocity": 1,
      "chip": "ym2612"
    },
    {
      "channel": 5,
      "note": 7,
      "start": 99.5133,
      "duration": 2.427,
      "velocity": 1,
      "chip": "ym2612"
    },
    {
      "channel": 0,
      "note": 77,
      "start": 99.656,
      "duration": 0.1178,
      "velocity": 108,
      "chip": "ym2612"
    },
    {
      "channel": 1,
      "note": 65,
      "start": 99.6567,
      "duration": 0.0839,
      "velocity": 112,
      "chip": "ym2612"
    },
    {
      "channel": 3,
      "note": 65,
      "start": 99.6581,
      "duration": 0.0499,
      "velocity": 120,
      "chip": "ym2612"
    },
    {
      "channel": 0,
      "note": 77,
      "start": 99.8077,
      "duration": 0.1177,
      "velocity": 112,
      "chip": "ym2612"
    },
    {
      "channel": 1,
      "note": 65,
      "start": 99.8084,
      "duration": 0.0838,
      "velocity": 112,
      "chip": "ym2612"
    },
    {
      "channel": 3,
      "note": 53,
      "start": 99.8098,
      "duration": 0.0499,
      "velocity": 120,
      "chip": "ym2612"
    },
    {
      "channel": 0,
      "note": 65,
      "start": 99.9593,
      "duration": 0.1178,
      "velocity": 109,
      "chip": "ym2612"
    },
    {
      "channel": 1,
      "note": 65,
      "start": 99.96,
      "duration": 0.0839,
      "velocity": 112,
      "chip": "ym2612"
    },
    {
      "channel": 3,
      "note": 53,
      "start": 99.9614,
      "duration": 0.0499,
      "velocity": 120,
      "chip": "ym2612"
    },
    {
      "channel": 0,
      "note": 77,
      "start": 100.111,
      "duration": 0.1178,
      "velocity": 108,
      "chip": "ym2612"
    },
    {
      "channel": 1,
      "note": 65,
      "start": 100.1117,
      "duration": 0.0838,
      "velocity": 112,
      "chip": "ym2612"
    },
    {
      "channel": 3,
      "note": 65,
      "start": 100.1131,
      "duration": 0.0499,
      "velocity": 120,
      "chip": "ym2612"
    },
    {
      "channel": 0,
      "note": 65,
      "start": 100.2627,
      "duration": 0.1178,
      "velocity": 110,
      "chip": "ym2612"
    },
    {
      "channel": 1,
      "note": 65,
      "start": 100.2634,
      "duration": 0.0839,
      "velocity": 112,
      "chip": "ym2612"
    },
    {
      "channel": 3,
      "note": 53,
      "start": 100.2647,
      "duration": 0.0499,
      "velocity": 120,
      "chip": "ym2612"
    },
    {
      "channel": 0,
      "note": 65,
      "start": 100.4144,
      "duration": 0.1178,
      "velocity": 109,
      "chip": "ym2612"
    },
    {
      "channel": 1,
      "note": 65,
      "start": 100.4151,
      "duration": 0.0838,
      "velocity": 112,
      "chip": "ym2612"
    },
    {
      "channel": 3,
      "note": 53,
      "start": 100.4165,
      "duration": 0.0499,
      "velocity": 120,
      "chip": "ym2612"
    },
    {
      "channel": 0,
      "note": 77,
      "start": 100.5661,
      "duration": 0.1178,
      "velocity": 111,
      "chip": "ym2612"
    },
    {
      "channel": 1,
      "note": 65,
      "start": 100.5668,
      "duration": 0.0838,
      "velocity": 112,
      "chip": "ym2612"
    },
    {
      "channel": 3,
      "note": 65,
      "start": 100.5681,
      "duration": 0.0499,
      "velocity": 120,
      "chip": "ym2612"
    },
    {
      "channel": 0,
      "note": 77,
      "start": 100.7177,
      "duration": 0.1178,
      "velocity": 112,
      "chip": "ym2612"
    },
    {
      "channel": 1,
      "note": 65,
      "start": 100.7184,
      "duration": 0.0838,
      "velocity": 112,
      "chip": "ym2612"
    },
    {
      "channel": 3,
      "note": 53,
      "start": 100.7198,
      "duration": 0.05,
      "velocity": 120,
      "chip": "ym2612"
    },
    {
      "channel": 0,
      "note": 65,
      "start": 100.8695,
      "duration": 0.1177,
      "velocity": 109,
      "chip": "ym2612"
    },
    {
      "channel": 1,
      "note": 65,
      "start": 100.8701,
      "duration": 0.0839,
      "velocity": 112,
      "chip": "ym2612"
    },
    {
      "channel": 3,
      "note": 65,
      "start": 100.8715,
      "duration": 0.05,
      "velocity": 120,
      "chip": "ym2612"
    },
    {
      "channel": 0,
      "note": 77,
      "start": 101.0211,
      "duration": 0.1177,
      "velocity": 108,
      "chip": "ym2612"
    },
    {
      "channel": 1,
      "note": 65,
      "start": 101.0218,
      "duration": 0.0839,
      "velocity": 112,
      "chip": "ym2612"
    },
    {
      "channel": 3,
      "note": 53,
      "start": 101.0232,
      "duration": 0.0499,
      "velocity": 120,
      "chip": "ym2612"
    },
    {
      "channel": 0,
      "note": 65,
      "start": 101.1728,
      "duration": 0.1178,
      "velocity": 112,
      "chip": "ym2612"
    },
    {
      "channel": 1,
      "note": 65,
      "start": 101.1735,
      "duration": 0.0839,
      "velocity": 112,
      "chip": "ym2612"
    },
    {
      "channel": 3,
      "note": 53,
      "start": 101.1749,
      "duration": 0.0499,
      "velocity": 120,
      "chip": "ym2612"
    },
    {
      "channel": 0,
      "note": 65,
      "start": 101.3245,
      "duration": 0.1178,
      "velocity": 111,
      "chip": "ym2612"
    },
    {
      "channel": 1,
      "note": 65,
      "start": 101.3252,
      "duration": 0.0839,
      "velocity": 112,
      "chip": "ym2612"
    },
    {
      "channel": 3,
      "note": 65,
      "start": 101.3265,
      "duration": 0.0499,
      "velocity": 120,
      "chip": "ym2612"
    },
    {
      "channel": 0,
      "note": 77,
      "start": 101.4761,
      "duration": 0.1178,
      "velocity": 109,
      "chip": "ym2612"
    },
    {
      "channel": 1,
      "note": 65,
      "start": 101.4768,
      "duration": 0.0838,
      "velocity": 112,
      "chip": "ym2612"
    },
    {
      "channel": 3,
      "note": 53,
      "start": 101.4782,
      "duration": 0.0499,
      "velocity": 120,
      "chip": "ym2612"
    },
    {
      "channel": 0,
      "note": 65,
      "start": 101.6278,
      "duration": 0.1178,
      "velocity": 111,
      "chip": "ym2612"
    },
    {
      "channel": 1,
      "note": 65,
      "start": 101.6285,
      "duration": 0.0838,
      "velocity": 112,
      "chip": "ym2612"
    },
    {
      "channel": 3,
      "note": 53,
      "start": 101.6299,
      "duration": 0.0499,
      "velocity": 120,
      "chip": "ym2612"
    },
    {
      "channel": 0,
      "note": 65,
      "start": 101.7795,
      "duration": 0.1178,
      "velocity": 112,
      "chip": "ym2612"
    },
    {
      "channel": 1,
      "note": 65,
      "start": 101.7802,
      "duration": 0.0838,
      "velocity": 112,
      "chip": "ym2612"
    },
    {
      "channel": 3,
      "note": 65,
      "start": 101.7816,
      "duration": 0.05,
      "velocity": 120,
      "chip": "ym2612"
    },
    {
      "channel": 0,
      "note": 65,
      "start": 101.9312,
      "duration": 0.1177,
      "velocity": 108,
      "chip": "ym2612"
    },
    {
      "channel": 1,
      "note": 40,
      "start": 101.9325,
      "duration": 0.3023,
      "velocity": 127,
      "chip": "ym2612"
    },
    {
      "channel": 2,
      "note": 48,
      "start": 101.9333,
      "duration": 1.5154,
      "velocity": 110,
      "chip": "ym2612"
    },
    {
      "channel": 3,
      "note": 53,
      "start": 101.934,
      "duration": 0.0492,
      "velocity": 120,
      "chip": "ym2612"
    },
    {
      "channel": 4,
      "note": 65,
      "start": 101.9401,
      "duration": 0.0834,
      "velocity": 112,
      "chip": "ym2612"
    },
    {
      "channel": 5,
      "note": 7,
      "start": 101.9408,
      "duration": 2.4258,
      "velocity": 1,
      "chip": "ym2612"
    },
    {
      "channel": 0,
      "note": 77,
      "start": 102.0829,
      "duration": 0.1177,
      "velocity": 108,
      "chip": "ym2612"
    },
    {
      "channel": 3,
      "note": 65,
      "start": 102.0847,
      "duration": 0.0501,
      "velocity": 120,
      "chip": "ym2612"
    },
    {
      "channel": 4,
      "note": 65,
      "start": 102.0911,
      "duration": 0.084,
      "velocity": 112,
      "chip": "ym2612"
    },
    {
      "channel": 0,
      "note": 77,
      "start": 102.2346,
      "duration": 0.1178,
      "velocity": 112,
      "chip": "ym2612"
    },
    {
      "channel": 1,
      "note": 41,
      "start": 102.2359,
      "duration": 0.3023,
      "velocity": 123,
      "chip": "ym2612"
    },
    {
      "channel": 3,
      "note": 53,
      "start": 102.2372,
      "duration": 0.0493,
      "velocity": 120,
      "chip": "ym2612"
    },
    {
      "channel": 4,
      "note": 65,
      "start": 102.2428,
      "duration": 0.084,
      "velocity": 112,
      "chip": "ym2612"
    },
    {
      "channel": 0,
      "note": 65,
      "start": 102.3862,
      "duration": 0.1178,
      "velocity": 109,
      "chip": "ym2612"
    },
    {
      "channel": 3,
      "note": 53,
      "start": 102.3881,
      "duration": 0.0501,
      "velocity": 120,
      "chip": "ym2612"
    },
    {
      "channel": 4,
      "note": 65,
      "start": 102.3945,
      "duration": 0.084,
      "velocity": 112,
      "chip": "ym2612"
    },
    {
      "channel": 0,
      "note": 77,
      "start": 102.538,
      "duration": 0.1178,
      "velocity": 108,
      "chip": "ym2612"
    },
    {
      "channel": 1,
      "note": 40,
      "start": 102.5392,
      "duration": 0.3022,
      "velocity": 127,
      "chip": "ym2612"
    },
    {
      "channel": 3,
      "note": 65,
      "start": 102.5406,
      "duration": 0.0492,
      "velocity": 120,
      "chip": "ym2612"
    },
    {
      "channel": 4,
      "note": 65,
      "start": 102.5462,
      "duration": 0.084,
      "velocity": 112,
      "chip": "ym2612"
    },
    {
      "channel": 0,
      "note": 65,
      "start": 102.6896,
      "duration": 0.1178,
      "velocity": 110,
      "chip": "ym2612"
    },
    {
      "channel": 3,
      "note": 53,
      "start": 102.6915,
      "duration": 0.0502,
      "velocity": 120,
      "chip": "ym2612"
    },
    {
      "channel": 4,
      "note": 65,
      "start": 102.6978,
      "duration": 0.0841,
      "velocity": 112,
      "chip": "ym2612"
    },
    {
      "channel": 0,
      "note": 65,
      "start": 102.8413,
      "duration": 0.1178,
      "velocity": 109,
      "chip": "ym2612"
    },
    {
      "channel": 1,
      "note": 41,
      "start": 102.8426,
      "duration": 0.3022,
      "velocity": 123,
      "chip": "ym2612"
    },
    {
      "channel": 3,
      "note": 53,
      "start": 102.8439,
      "duration": 0.0493,
      "velocity": 120,
      "chip": "ym2612"
    },
    {
      "channel": 4,
      "note": 65,
      "start": 102.8495,
      "duration": 0.084,
      "velocity": 112,
      "chip": "ym2612"
    },
    {
      "channel": 0,
      "note": 77,
      "start": 102.993,
      "duration": 0.1177,
      "velocity": 111,
      "chip": "ym2612"
    },
    {
      "channel": 3,
      "note": 65,
      "start": 102.9948,
      "duration": 0.0502,
      "velocity": 120,
      "chip": "ym2612"
    },
    {
      "channel": 4,
      "note": 65,
      "start": 103.0012,
      "duration": 0.084,
      "velocity": 112,
      "chip": "ym2612"
    },
    {
      "channel": 0,
      "note": 77,
      "start": 103.1446,
      "duration": 0.1177,
      "velocity": 112,
      "chip": "ym2612"
    },
    {
      "channel": 1,
      "note": 40,
      "start": 103.146,
      "duration": 0.6056,
      "velocity": 127,
      "chip": "ym2612"
    },
    {
      "channel": 3,
      "note": 53,
      "start": 103.1473,
      "duration": 0.0493,
      "velocity": 120,
      "chip": "ym2612"
    },
    {
      "channel": 4,
      "note": 65,
      "start": 103.1529,
      "duration": 0.084,
      "velocity": 112,
      "chip": "ym2612"
    },
    {
      "channel": 0,
      "note": 65,
      "start": 103.2963,
      "duration": 0.1178,
      "velocity": 109,
      "chip": "ym2612"
    },
    {
      "channel": 3,
      "note": 65,
      "start": 103.2981,
      "duration": 0.0501,
      "velocity": 120,
      "chip": "ym2612"
    },
    {
      "channel": 4,
      "note": 65,
      "start": 103.3046,
      "duration": 0.084,
      "velocity": 112,
      "chip": "ym2612"
    },
    {
      "channel": 0,
      "note": 77,
      "start": 103.448,
      "duration": 0.1178,
      "velocity": 108,
      "chip": "ym2612"
    },
    {
      "channel": 2,
      "note": 46,
      "start": 103.4493,
      "duration": 0.4545,
      "velocity": 110,
      "chip": "ym2612"
    },
    {
      "channel": 3,
      "note": 53,
      "start": 103.45,
      "duration": 0.0499,
      "velocity": 120,
      "chip": "ym2612"
    },
    {
      "channel": 4,
      "note": 65,
      "start": 103.4563,
      "duration": 0.0841,
      "velocity": 112,
      "chip": "ym2612"
    },
    {
      "channel": 0,
      "note": 65,
      "start": 103.5997,
      "duration": 0.1178,
      "velocity": 112,
      "chip": "ym2612"
    },
    {
      "channel": 3,
      "note": 53,
      "start": 103.6015,
      "duration": 0.0501,
      "velocity": 120,
      "chip": "ym2612"
    },
    {
      "channel": 4,
      "note": 65,
      "start": 103.6079,
      "duration": 0.084,
      "velocity": 112,
      "chip": "ym2612"
    },
    {
      "channel": 0,
      "note": 65,
      "start": 103.7514,
      "duration": 0.1178,
      "velocity": 111,
      "chip": "ym2612"
    },
    {
      "channel": 1,
      "note": 40,
      "start": 103.7521,
      "duration": 0.3029,
      "velocity": 127,
      "chip": "ym2612"
    },
    {
      "channel": 3,
      "note": 65,
      "start": 103.7534,
      "duration": 0.0499,
      "velocity": 120,
      "chip": "ym2612"
    },
    {
      "channel": 4,
      "note": 65,
      "start": 103.7596,
      "duration": 0.0841,
      "velocity": 112,
      "chip": "ym2612"
    },
    {
      "channel": 0,
      "note": 77,
      "start": 103.903,
      "duration": 0.1178,
      "velocity": 109,
      "chip": "ym2612"
    },
    {
      "channel": 2,
      "note": 48,
      "start": 103.9043,
      "duration": 0.4553,
      "velocity": 110,
      "chip": "ym2612"
    },
    {
      "channel": 3,
      "note": 53,
      "start": 103.9051,
      "duration": 0.05,
      "velocity": 120,
      "chip": "ym2612"
    },
    {
      "channel": 4,
      "note": 65,
      "start": 103.9113,
      "duration": 0.084,
      "velocity": 112,
      "chip": "ym2612"
    },
    {
      "channel": 0,
      "note": 65,
      "start": 104.0548,
      "duration": 0.1177,
      "velocity": 111,
      "chip": "ym2612"
    },
    {
      "channel": 1,
      "note": 41,
      "start": 104.056,
      "duration": 0.3023,
      "velocity": 123,
      "chip": "ym2612"
    },
    {
      "channel": 3,
      "note": 53,
      "start": 104.0574,
      "duration": 0.0494,
      "velocity": 120,
      "chip": "ym2612"
    },
    {
      "channel": 4,
      "note": 65,
      "start": 104.0629,
      "duration": 0.084,
      "velocity": 112,
      "chip": "ym2612"
    },
    {
      "channel": 0,
      "note": 65,
      "start": 104.2064,
      "duration": 0.1178,
      "velocity": 112,
      "chip": "ym2612"
    },
    {
      "channel": 3,
      "note": 65,
      "start": 104.2083,
      "duration": 0.0501,
      "velocity": 120,
      "chip": "ym2612"
    },
    {
      "channel": 4,
      "note": 65,
      "start": 104.2147,
      "duration": 0.084,
      "velocity": 112,
      "chip": "ym2612"
    },
    {
      "channel": 0,
      "note": 65,
      "start": 104.3581,
      "duration": 0.1178,
      "velocity": 108,
      "chip": "ym2612"
    },
    {
      "channel": 1,
      "note": 40,
      "start": 104.3594,
      "duration": 0.3022,
      "velocity": 127,
      "chip": "ym2612"
    },
    {
      "channel": 2,
      "note": 48,
      "start": 104.3602,
      "duration": 1.5163,
      "velocity": 110,
      "chip": "ym2612"
    },
    {
      "channel": 3,
      "note": 53,
      "start": 104.3609,
      "duration": 0.0492,
      "velocity": 120,
      "chip": "ym2612"
    },
    {
      "channel": 4,
      "note": 65,
      "start": 104.3663,
      "duration": 0.084,
      "velocity": 112,
      "chip": "ym2612"
    },
    {
      "channel": 5,
      "note": 7,
      "start": 104.367,
      "duration": 2.4264,
      "velocity": 1,
      "chip": "ym2612"
    },
    {
      "channel": 0,
      "note": 77,
      "start": 104.5098,
      "duration": 0.1178,
      "velocity": 108,
      "chip": "ym2612"
    },
    {
      "channel": 3,
      "note": 65,
      "start": 104.5116,
      "duration": 0.0501,
      "velocity": 120,
      "chip": "ym2612"
    },
    {
      "channel": 4,
      "note": 65,
      "start": 104.518,
      "duration": 0.084,
      "velocity": 112,
      "chip": "ym2612"
    },
    {
      "channel": 0,
      "note": 77,
      "start": 104.6614,
      "duration": 0.1178,
      "velocity": 112,
      "chip": "ym2612"
    },
    {
      "channel": 1,
      "note": 41,
      "start": 104.6628,
      "duration": 0.3022,
      "velocity": 123,
      "chip": "ym2612"
    },
    {
      "channel": 3,
      "note": 53,
      "start": 104.6641,
      "duration": 0.0493,
      "velocity": 120,
      "chip": "ym2612"
    },
    {
      "channel": 4,
      "note": 65,
      "start": 104.6697,
      "duration": 0.084,
      "velocity": 112,
      "chip": "ym2612"
    },
    {
      "channel": 0,
      "note": 65,
      "start": 104.8132,
      "duration": 0.1178,
      "velocity": 109,
      "chip": "ym2612"
    },
    {
      "channel": 3,
      "note": 53,
      "start": 104.8149,
      "duration": 0.0502,
      "velocity": 120,
      "chip": "ym2612"
    },
    {
      "channel": 4,
      "note": 65,
      "start": 104.8214,
      "duration": 0.0841,
      "velocity": 112,
      "chip": "ym2612"
    },
    {
      "channel": 0,
      "note": 77,
      "start": 104.9648,
      "duration": 0.1178,
      "velocity": 108,
      "chip": "ym2612"
    },
    {
      "channel": 1,
      "note": 40,
      "start": 104.9661,
      "duration": 0.6056,
      "velocity": 127,
      "chip": "ym2612"
    },
    {
      "channel": 3,
      "note": 65,
      "start": 104.9675,
      "duration": 0.0493,
      "velocity": 120,
      "chip": "ym2612"
    },
    {
      "channel": 4,
      "note": 65,
      "start": 104.9731,
      "duration": 0.0841,
      "velocity": 112,
      "chip": "ym2612"
    },
    {
      "channel": 0,
      "note": 65,
      "start": 105.1165,
      "duration": 0.1177,
      "velocity": 110,
      "chip": "ym2612"
    },
    {
      "channel": 3,
      "note": 53,
      "start": 105.1183,
      "duration": 0.0502,
      "velocity": 120,
      "chip": "ym2612"
    },
    {
      "channel": 4,
      "note": 65,
      "start": 105.1247,
      "duration": 0.084,
      "velocity": 112,
      "chip": "ym2612"
    },
    {
      "channel": 0,
      "note": 65,
      "start": 105.2682,
      "duration": 0.1177,
      "velocity": 109,
      "chip": "ym2612"
    },
    {
      "channel": 3,
      "note": 53,
      "start": 105.27,
      "duration": 0.0501,
      "velocity": 120,
      "chip": "ym2612"
    },
    {
      "channel": 4,
      "note": 65,
      "start": 105.2764,
      "duration": 0.084,
      "velocity": 112,
      "chip": "ym2612"
    },
    {
      "channel": 0,
      "note": 77,
      "start": 105.4199,
      "duration": 0.1178,
      "velocity": 111,
      "chip": "ym2612"
    },
    {
      "channel": 3,
      "note": 65,
      "start": 105.4217,
      "duration": 0.0501,
      "velocity": 120,
      "chip": "ym2612"
    },
    {
      "channel": 4,
      "note": 65,
      "start": 105.4281,
      "duration": 0.084,
      "velocity": 112,
      "chip": "ym2612"
    },
    {
      "channel": 0,
      "note": 77,
      "start": 105.5715,
      "duration": 0.1178,
      "velocity": 112,
      "chip": "ym2612"
    },
    {
      "channel": 1,
      "note": 40,
      "start": 105.5722,
      "duration": 0.3029,
      "velocity": 127,
      "chip": "ym2612"
    },
    {
      "channel": 3,
      "note": 53,
      "start": 105.5737,
      "duration": 0.0499,
      "velocity": 120,
      "chip": "ym2612"
    },
    {
      "channel": 4,
      "note": 65,
      "start": 105.5798,
      "duration": 0.084,
      "velocity": 112,
      "chip": "ym2612"
    },
    {
      "channel": 0,
      "note": 65,
      "start": 105.7232,
      "duration": 0.1178,
      "velocity": 109,
      "chip": "ym2612"
    },
    {
      "channel": 3,
      "note": 65,
      "start": 105.7251,
      "duration": 0.0501,
      "velocity": 120,
      "chip": "ym2612"
    },
    {
      "channel": 4,
      "note": 65,
      "start": 105.7315,
      "duration": 0.084,
      "velocity": 112,
      "chip": "ym2612"
    },
    {
      "channel": 0,
      "note": 77,
      "start": 105.8749,
      "duration": 0.1178,
      "velocity": 108,
      "chip": "ym2612"
    },
    {
      "channel": 1,
      "note": 41,
      "start": 105.8762,
      "duration": 0.3023,
      "velocity": 123,
      "chip": "ym2612"
    },
    {
      "channel": 2,
      "note": 41,
      "start": 105.877,
      "duration": 0.3028,
      "velocity": 110,
      "chip": "ym2612"
    },
    {
      "channel": 3,
      "note": 53,
      "start": 105.8777,
      "duration": 0.0492,
      "velocity": 120,
      "chip": "ym2612"
    },
    {
      "channel": 4,
      "note": 65,
      "start": 105.8831,
      "duration": 0.0841,
      "velocity": 112,
      "chip": "ym2612"
    },
    {
      "channel": 0,
      "note": 65,
      "start": 106.0266,
      "duration": 0.1178,
      "velocity": 112,
      "chip": "ym2612"
    },
    {
      "channel": 3,
      "note": 53,
      "start": 106.0284,
      "duration": 0.0501,
      "velocity": 120,
      "chip": "ym2612"
    },
    {
      "channel": 4,
      "note": 65,
      "start": 106.0349,
      "duration": 0.084,
      "velocity": 112,
      "chip": "ym2612"
    },
    {
      "channel": 0,
      "note": 65,
      "start": 106.1783,
      "duration": 0.1177,
      "velocity": 111,
      "chip": "ym2612"
    },
    {
      "channel": 1,
      "note": 40,
      "start": 106.1796,
      "duration": 0.6056,
      "velocity": 127,
      "chip": "ym2612"
    },
    {
      "channel": 2,
      "note": 44,
      "start": 106.1804,
      "duration": 0.302,
      "velocity": 110,
      "chip": "ym2612"
    },
    {
      "channel": 3,
      "note": 65,
      "start": 106.1811,
      "duration": 0.0492,
      "velocity": 120,
      "chip": "ym2612"
    },
    {
      "channel": 4,
      "note": 65,
      "start": 106.1865,
      "duration": 0.0841,
      "velocity": 112,
      "chip": "ym2612"
    },
    {
      "channel": 0,
      "note": 77,
      "start": 106.33,
      "duration": 0.1177,
      "velocity": 109,
      "chip": "ym2612"
    },
    {
      "channel": 3,
      "note": 53,
      "start": 106.3318,
      "duration": 0.0501,
      "velocity": 120,
      "chip": "ym2612"
    },
    {
      "channel": 4,
      "note": 65,
      "start": 106.3382,
      "duration": 0.084,
      "velocity": 112,
      "chip": "ym2612"
    },
    {
      "channel": 0,
      "note": 65,
      "start": 106.4817,
      "duration": 0.1178,
      "velocity": 111,
      "chip": "ym2612"
    },
    {
      "channel": 2,
      "note": 46,
      "start": 106.4829,
      "duration": 0.303,
      "velocity": 110,
      "chip": "ym2612"
    },
    {
      "channel": 3,
      "note": 65,
      "start": 106.4837,
      "duration": 0.0499,
      "velocity": 120,
      "chip": "ym2612"
    },
    {
      "channel": 4,
      "note": 65,
      "start": 106.4899,
      "duration": 0.0841,
      "velocity": 112,
      "chip": "ym2612"
    },
    {
      "channel": 0,
      "note": 65,
      "start": 106.6333,
      "duration": 0.1178,
      "velocity": 112,
      "chip": "ym2612"
    },
    {
      "channel": 3,
      "note": 65,
      "start": 106.6352,
      "duration": 0.0501,
      "velocity": 120,
      "chip": "ym2612"
    },
    {
      "channel": 4,
      "note": 65,
      "start": 106.6416,
      "duration": 0.084,
      "velocity": 112,
      "chip": "ym2612"
    },
    {
      "channel": 0,
      "note": 63,
      "start": 106.785,
      "duration": 0.1178,
      "velocity": 108,
      "chip": "ym2612"
    },
    {
      "channel": 1,
      "note": 40,
      "start": 106.7857,
      "duration": 0.3028,
      "velocity": 127,
      "chip": "ym2612"
    },
    {
      "channel": 2,
      "note": 46,
      "start": 106.7865,
      "duration": 1.516,
      "velocity": 110,
      "chip": "ym2612"
    },
    {
      "channel": 3,
      "note": 51,
      "start": 106.7873,
      "duration": 0.0498,
      "velocity": 120,
      "chip": "ym2612"
    },
    {
      "channel": 4,
      "note": 65,
      "start": 106.7932,
      "duration": 0.084,
      "velocity": 112,
      "chip": "ym2612"
    },
    {
      "channel": 5,
      "note": 7,
      "start": 106.7939,
      "duration": 2.4264,
      "velocity": 1,
      "chip": "ym2612"
    },
    {
      "channel": 0,
      "note": 75,
      "start": 106.9367,
      "duration": 0.1178,
      "velocity": 108,
      "chip": "ym2612"
    },
    {
      "channel": 3,
      "note": 63,
      "start": 106.9385,
      "duration": 0.0501,
      "velocity": 120,
      "chip": "ym2612"
    },
    {
      "channel": 4,
      "note": 65,
      "start": 106.9449,
      "duration": 0.0841,
      "velocity": 112,
      "chip": "ym2612"
    },
    {
      "channel": 0,
      "note": 75,
      "start": 107.0883,
      "duration": 0.1178,
      "velocity": 112,
      "chip": "ym2612"
    },
    {
      "channel": 1,
      "note": 41,
      "start": 107.0897,
      "duration": 0.3022,
      "velocity": 123,
      "chip": "ym2612"
    },
    {
      "channel": 3,
      "note": 51,
      "start": 107.0911,
      "duration": 0.0493,
      "velocity": 120,
      "chip": "ym2612"
    },
    {
      "channel": 4,
      "note": 65,
      "start": 107.0966,
      "duration": 0.084,
      "velocity": 112,
      "chip": "ym2612"
    },
    {
      "channel": 0,
      "note": 63,
      "start": 107.2401,
      "duration": 0.1177,
      "velocity": 109,
      "chip": "ym2612"
    },
    {
      "channel": 3,
      "note": 51,
      "start": 107.2419,
      "duration": 0.0501,
      "velocity": 120,
      "chip": "ym2612"
    },
    {
      "channel": 4,
      "note": 65,
      "start": 107.2483,
      "duration": 0.0841,
      "velocity": 112,
      "chip": "ym2612"
    },
    {
      "channel": 0,
      "note": 75,
      "start": 107.3917,
      "duration": 0.1178,
      "velocity": 108,
      "chip": "ym2612"
    },
    {
      "channel": 1,
      "note": 40,
      "start": 107.393,
      "duration": 0.3022,
      "velocity": 127,
      "chip": "ym2612"
    },
    {
      "channel": 3,
      "note": 63,
      "start": 107.3944,
      "duration": 0.0493,
      "velocity": 120,
      "chip": "ym2612"
    },
    {
      "channel": 4,
      "note": 65,
      "start": 107.4,
      "duration": 0.084,
      "velocity": 112,
      "chip": "ym2612"
    },
    {
      "channel": 0,
      "note": 63,
      "start": 107.5434,
      "duration": 0.1178,
      "velocity": 110,
      "chip": "ym2612"
    },
    {
      "channel": 3,
      "note": 51,
      "start": 107.5452,
      "duration": 0.0501,
      "velocity": 120,
      "chip": "ym2612"
    },
    {
      "channel": 4,
      "note": 65,
      "start": 107.5516,
      "duration": 0.084,
      "velocity": 112,
      "chip": "ym2612"
    },
    {
      "channel": 0,
      "note": 63,
      "start": 107.6951,
      "duration": 0.1178,
      "velocity": 109,
      "chip": "ym2612"
    },
    {
      "channel": 1,
      "note": 41,
      "start": 107.6963,
      "duration": 0.3023,
      "velocity": 123,
      "chip": "ym2612"
    },
    {
      "channel": 3,
      "note": 51,
      "start": 107.6978,
      "duration": 0.0493,
      "velocity": 120,
      "chip": "ym2612"
    },
    {
      "channel": 4,
      "note": 65,
      "start": 107.7034,
      "duration": 0.084,
      "velocity": 112,
      "chip": "ym2612"
    },
    {
      "channel": 0,
      "note": 75,
      "start": 107.8467,
      "duration": 0.1178,
      "velocity": 111,
      "chip": "ym2612"
    },
    {
      "channel": 3,
      "note": 63,
      "start": 107.8486,
      "duration": 0.0501,
      "velocity": 120,
      "chip": "ym2612"
    },
    {
      "channel": 4,
      "note": 65,
      "start": 107.855,
      "duration": 0.084,
      "velocity": 112,
      "chip": "ym2612"
    },
    {
      "channel": 0,
      "note": 75,
      "start": 107.9985,
      "duration": 0.1178,
      "velocity": 112,
      "chip": "ym2612"
    },
    {
      "channel": 1,
      "note": 40,
      "start": 107.9997,
      "duration": 0.6057,
      "velocity": 127,
      "chip": "ym2612"
    },
    {
      "channel": 3,
      "note": 51,
      "start": 108.0011,
      "duration": 0.0494,
      "velocity": 120,
      "chip": "ym2612"
    },
    {
      "channel": 4,
      "note": 65,
      "start": 108.0067,
      "duration": 0.0841,
      "velocity": 112,
      "chip": "ym2612"
    },
    {
      "channel": 0,
      "note": 63,
      "start": 108.1501,
      "duration": 0.1178,
      "velocity": 109,
      "chip": "ym2612"
    },
    {
      "channel": 3,
      "note": 63,
      "start": 108.152,
      "duration": 0.0501,
      "velocity": 120,
      "chip": "ym2612"
    },
    {
      "channel": 4,
      "note": 65,
      "start": 108.1584,
      "duration": 0.084,
      "velocity": 112,
      "chip": "ym2612"
    },
    {
      "channel": 0,
      "note": 75,
      "start": 108.3018,
      "duration": 0.1177,
      "velocity": 108,
      "chip": "ym2612"
    },
    {
      "channel": 2,
      "note": 44,
      "start": 108.3031,
      "duration": 0.4545,
      "velocity": 110,
      "chip": "ym2612"
    },
    {
      "channel": 3,
      "note": 51,
      "start": 108.3039,
      "duration": 0.05,
      "velocity": 120,
      "chip": "ym2612"
    },
    {
      "channel": 4,
      "note": 65,
      "start": 108.31,
      "duration": 0.0841,
      "velocity": 112,
      "chip": "ym2612"
    },
    {
      "channel": 0,
      "note": 63,
      "start": 108.4535,
      "duration": 0.1178,
      "velocity": 112,
      "chip": "ym2612"
    },
    {
      "channel": 3,
      "note": 51,
      "start": 108.4553,
      "duration": 0.0501,
      "velocity": 120,
      "chip": "ym2612"
    },
    {
      "channel": 4,
      "note": 65,
      "start": 108.4617,
      "duration": 0.084,
      "velocity": 112,
      "chip": "ym2612"
    },
    {
      "channel": 0,
      "note": 63,
      "start": 108.6052,
      "duration": 0.1178,
      "velocity": 111,
      "chip": "ym2612"
    },
    {
      "channel": 1,
      "note": 40,
      "start": 108.6059,
      "duration": 0.3028,
      "velocity": 127,
      "chip": "ym2612"
    },
    {
      "channel": 3,
      "note": 63,
      "start": 108.6073,
      "duration": 0.0499,
      "velocity": 120,
      "chip": "ym2612"
    },
    {
      "channel": 4,
      "note": 65,
      "start": 108.6134,
      "duration": 0.084,
      "velocity": 112,
      "chip": "ym2612"
    },
    {
      "channel": 0,
      "note": 75,
      "start": 108.7569,
      "duration": 0.1177,
      "velocity": 109,
      "chip": "ym2612"
    },
    {
      "channel": 2,
      "note": 45,
      "start": 108.7582,
      "duration": 0.4552,
      "velocity": 110,
      "chip": "ym2612"
    },
    {
      "channel": 3,
      "note": 51,
      "start": 108.759,
      "duration": 0.0499,
      "velocity": 120,
      "chip": "ym2612"
    },
    {
      "channel": 4,
      "note": 65,
      "start": 108.7651,
      "duration": 0.084,
      "velocity": 112,
      "chip": "ym2612"
    },
    {
      "channel": 0,
      "note": 63,
      "start": 108.9085,
      "duration": 0.1178,
      "velocity": 111,
      "chip": "ym2612"
    },
    {
      "channel": 1,
      "note": 41,
      "start": 108.9098,
      "duration": 0.3022,
      "velocity": 123,
      "chip": "ym2612"
    },
    {
      "channel": 3,
      "note": 51,
      "start": 108.9112,
      "duration": 0.0493,
      "velocity": 120,
      "chip": "ym2612"
    },
    {
      "channel": 4,
      "note": 65,
      "start": 108.9168,
      "duration": 0.084,
      "velocity": 112,
      "chip": "ym2612"
    },
    {
      "channel": 0,
      "note": 63,
      "start": 109.0602,
      "duration": 0.1178,
      "velocity": 112,
      "chip": "ym2612"
    },
    {
      "channel": 3,
      "note": 63,
      "start": 109.062,
      "duration": 0.0502,
      "velocity": 120,
      "chip": "ym2612"
    },
    {
      "channel": 4,
      "note": 65,
      "start": 109.0684,
      "duration": 0.0841,
      "velocity": 112,
      "chip": "ym2612"
    },
    {
      "channel": 0,
      "note": 65,
      "start": 109.2119,
      "duration": 0.1178,
      "velocity": 108,
      "chip": "ym2612"
    },
    {
      "channel": 1,
      "note": 40,
      "start": 109.2132,
      "duration": 0.3022,
      "velocity": 127,
      "chip": "ym2612"
    },
    {
      "channel": 2,
      "note": 44,
      "start": 109.214,
      "duration": 1.8196,
      "velocity": 110,
      "chip": "ym2612"
    },
    {
      "channel": 3,
      "note": 53,
      "start": 109.2147,
      "duration": 0.0492,
      "velocity": 120,
      "chip": "ym2612"
    },
    {
      "channel": 4,
      "note": 65,
      "start": 109.2201,
      "duration": 0.084,
      "velocity": 112,
      "chip": "ym2612"
    },
    {
      "channel": 5,
      "note": 7,
      "start": 109.2208,
      "duration": 2.4264,
      "velocity": 1,
      "chip": "ym2612"
    },
    {
      "channel": 0,
      "note": 77,
      "start": 109.3636,
      "duration": 0.1177,
      "velocity": 108,
      "chip": "ym2612"
    },
    {
      "channel": 3,
      "note": 65,
      "start": 109.3654,
      "duration": 0.0501,
      "velocity": 120,
      "chip": "ym2612"
    },
    {
      "channel": 4,
      "note": 65,
      "start": 109.3718,
      "duration": 0.084,
      "velocity": 112,
      "chip": "ym2612"
    },
    {
      "channel": 0,
      "note": 77,
      "start": 109.5152,
      "duration": 0.1178,
      "velocity": 112,
      "chip": "ym2612"
    },
    {
      "channel": 1,
      "note": 41,
      "start": 109.5166,
      "duration": 0.3022,
      "velocity": 123,
      "chip": "ym2612"
    },
    {
      "channel": 3,
      "note": 53,
      "start": 109.5179,
      "duration": 0.0493,
      "velocity": 120,
      "chip": "ym2612"
    },
    {
      "channel": 4,
      "note": 65,
      "start": 109.5235,
      "duration": 0.084,
      "velocity": 112,
      "chip": "ym2612"
    },
    {
      "channel": 0,
      "note": 65,
      "start": 109.6669,
      "duration": 0.1178,
      "velocity": 109,
      "chip": "ym2612"
    },
    {
      "channel": 3,
      "note": 53,
      "start": 109.6688,
      "duration": 0.0501,
      "velocity": 120,
      "chip": "ym2612"
    },
    {
      "channel": 4,
      "note": 65,
      "start": 109.6752,
      "duration": 0.084,
      "velocity": 112,
      "chip": "ym2612"
    },
    {
      "channel": 0,
      "note": 77,
      "start": 109.8186,
      "duration": 0.1178,
      "velocity": 108,
      "chip": "ym2612"
    },
    {
      "channel": 1,
      "note": 40,
      "start": 109.8199,
      "duration": 0.6057,
      "velocity": 127,
      "chip": "ym2612"
    },
    {
      "channel": 3,
      "note": 65,
      "start": 109.8213,
      "duration": 0.0493,
      "velocity": 120,
      "chip": "ym2612"
    },
    {
      "channel": 4,
      "note": 65,
      "start": 109.8269,
      "duration": 0.084,
      "velocity": 112,
      "chip": "ym2612"
    },
    {
      "channel": 0,
      "note": 65,
      "start": 109.9703,
      "duration": 0.1178,
      "velocity": 110,
      "chip": "ym2612"
    },
    {
      "channel": 3,
      "note": 53,
      "start": 109.9721,
      "duration": 0.0501,
      "velocity": 120,
      "chip": "ym2612"
    },
    {
      "channel": 4,
      "note": 65,
      "start": 109.9785,
      "duration": 0.084,
      "velocity": 112,
      "chip": "ym2612"
    },
    {
      "channel": 0,
      "note": 65,
      "start": 110.122,
      "duration": 0.1178,
      "velocity": 109,
      "chip": "ym2612"
    },
    {
      "channel": 3,
      "note": 53,
      "start": 110.1238,
      "duration": 0.0502,
      "velocity": 120,
      "chip": "ym2612"
    },
    {
      "channel": 4,
      "note": 65,
      "start": 110.1302,
      "duration": 0.0841,
      "velocity": 112,
      "chip": "ym2612"
    },
    {
      "channel": 0,
      "note": 77,
      "start": 110.2737,
      "duration": 0.1177,
      "velocity": 111,
      "chip": "ym2612"
    },
    {
      "channel": 3,
      "note": 65,
      "start": 110.2756,
      "duration": 0.0501,
      "velocity": 120,
      "chip": "ym2612"
    },
    {
      "channel": 4,
      "note": 65,
      "start": 110.2819,
      "duration": 0.084,
      "velocity": 112,
      "chip": "ym2612"
    },
    {
      "channel": 0,
      "note": 77,
      "start": 110.4254,
      "duration": 0.1177,
      "velocity": 112,
      "chip": "ym2612"
    },
    {
      "channel": 1,
      "note": 40,
      "start": 110.4261,
      "duration": 0.3029,
      "velocity": 127,
      "chip": "ym2612"
    },
    {
      "channel": 3,
      "note": 53,
      "start": 110.4274,
      "duration": 0.0499,
      "velocity": 120,
      "chip": "ym2612"
    },
    {
      "channel": 4,
      "note": 65,
      "start": 110.4336,
      "duration": 0.084,
      "velocity": 112,
      "chip": "ym2612"
    },
    {
      "channel": 0,
      "note": 65,
      "start": 110.577,
      "duration": 0.1178,
      "velocity": 109,
      "chip": "ym2612"
    },
    {
      "channel": 3,
      "note": 65,
      "start": 110.5789,
      "duration": 0.0501,
      "velocity": 120,
      "chip": "ym2612"
    },
    {
      "channel": 4,
      "note": 65,
      "start": 110.5853,
      "duration": 0.084,
      "velocity": 112,
      "chip": "ym2612"
    },
    {
      "channel": 0,
      "note": 77,
      "start": 110.7287,
      "duration": 0.1178,
      "velocity": 108,
      "chip": "ym2612"
    },
    {
      "channel": 1,
      "note": 41,
      "start": 110.73,
      "duration": 0.3022,
      "velocity": 123,
      "chip": "ym2612"
    },
    {
      "channel": 3,
      "note": 53,
      "start": 110.7313,
      "duration": 0.0493,
      "velocity": 120,
      "chip": "ym2612"
    },
    {
      "channel": 4,
      "note": 65,
      "start": 110.7369,
      "duration": 0.084,
      "velocity": 112,
      "chip": "ym2612"
    },
    {
      "channel": 0,
      "note": 65,
      "start": 110.8804,
      "duration": 0.1178,
      "velocity": 112,
      "chip": "ym2612"
    },
    {
      "channel": 3,
      "note": 53,
      "start": 110.8822,
      "duration": 0.0501,
      "velocity": 120,
      "chip": "ym2612"
    },
    {
      "channel": 4,
      "note": 65,
      "start": 110.8887,
      "duration": 0.084,
      "velocity": 112,
      "chip": "ym2612"
    },
    {
      "channel": 0,
      "note": 65,
      "start": 111.032,
      "duration": 0.1178,
      "velocity": 111,
      "chip": "ym2612"
    },
    {
      "channel": 1,
      "note": 40,
      "start": 111.0334,
      "duration": 0.6057,
      "velocity": 127,
      "chip": "ym2612"
    },
    {
      "channel": 2,
      "note": 41,
      "start": 111.0341,
      "duration": 0.1503,
      "velocity": 110,
      "chip": "ym2612"
    },
    {
      "channel": 3,
      "note": 65,
      "start": 111.0349,
      "duration": 0.0492,
      "velocity": 120,
      "chip": "ym2612"
    },
    {
      "channel": 4,
      "note": 65,
      "start": 111.0404,
      "duration": 0.084,
      "velocity": 112,
      "chip": "ym2612"
    },
    {
      "channel": 0,
      "note": 77,
      "start": 111.1838,
      "duration": 0.1178,
      "velocity": 109,
      "chip": "ym2612"
    },
    {
      "channel": 2,
      "note": 43,
      "start": 111.185,
      "duration": 0.1511,
      "velocity": 110,
      "chip": "ym2612"
    },
    {
      "channel": 3,
      "note": 53,
      "start": 111.1858,
      "duration": 0.0499,
      "velocity": 120,
      "chip": "ym2612"
    },
    {
      "channel": 4,
      "note": 65,
      "start": 111.192,
      "duration": 0.0841,
      "velocity": 112,
      "chip": "ym2612"
    },
    {
      "channel": 0,
      "note": 65,
      "start": 111.3354,
      "duration": 0.1177,
      "velocity": 111,
      "chip": "ym2612"
    },
    {
      "channel": 2,
      "note": 44,
      "start": 111.3367,
      "duration": 0.1511,
      "velocity": 110,
      "chip": "ym2612"
    },
    {
      "channel": 3,
      "note": 53,
      "start": 111.3375,
      "duration": 0.0499,
      "velocity": 120,
      "chip": "ym2612"
    },
    {
      "channel": 4,
      "note": 65,
      "start": 111.3437,
      "duration": 0.084,
      "velocity": 112,
      "chip": "ym2612"
    },
    {
      "channel": 0,
      "note": 65,
      "start": 111.4871,
      "duration": 0.1177,
      "velocity": 112,
      "chip": "ym2612"
    },
    {
      "channel": 2,
      "note": 44,
      "start": 111.4884,
      "duration": 0.1513,
      "velocity": 110,
      "chip": "ym2612"
    },
    {
      "channel": 3,
      "note": 65,
      "start": 111.4892,
      "duration": 0.0499,
      "velocity": 120,
      "chip": "ym2612"
    },
    {
      "channel": 4,
      "note": 65,
      "start": 111.4953,
      "duration": 0.0841,
      "velocity": 112,
      "chip": "ym2612"
    },
    {
      "channel": 0,
      "note": 65,
      "start": 111.6388,
      "duration": 0.1178,
      "velocity": 108,
      "chip": "ym2612"
    },
    {
      "channel": 1,
      "note": 40,
      "start": 111.6395,
      "duration": 0.3029,
      "velocity": 127,
      "chip": "ym2612"
    },
    {
      "channel": 2,
      "note": 48,
      "start": 111.6404,
      "duration": 1.5159,
      "velocity": 110,
      "chip": "ym2612"
    },
    {
      "channel": 3,
      "note": 53,
      "start": 111.6411,
      "duration": 0.0497,
      "velocity": 120,
      "chip": "ym2612"
    },
    {
      "channel": 4,
      "note": 65,
      "start": 111.6471,
      "duration": 0.084,
      "velocity": 112,
      "chip": "ym2612"
    },
    {
      "channel": 5,
      "note": 7,
      "start": 111.6478,
      "duration": 2.4265,
      "velocity": 1,
      "chip": "ym2612"
    },
    {
      "channel": 0,
      "note": 77,
      "start": 111.7905,
      "duration": 0.1178,
      "velocity": 108,
      "chip": "ym2612"
    },
    {
      "channel": 3,
      "note": 65,
      "start": 111.7924,
      "duration": 0.0501,
      "velocity": 120,
      "chip": "ym2612"
    },
    {
      "channel": 4,
      "note": 65,
      "start": 111.7987,
      "duration": 0.084,
      "velocity": 112,
      "chip": "ym2612"
    },
    {
      "channel": 0,
      "note": 77,
      "start": 111.9422,
      "duration": 0.1178,
      "velocity": 112,
      "chip": "ym2612"
    },
    {
      "channel": 1,
      "note": 41,
      "start": 111.9434,
      "duration": 0.3023,
      "velocity": 123,
      "chip": "ym2612"
    },
    {
      "channel": 3,
      "note": 53,
      "start": 111.9448,
      "duration": 0.0493,
      "velocity": 120,
      "chip": "ym2612"
    },
    {
      "channel": 4,
      "note": 65,
      "start": 111.9504,
      "duration": 0.0841,
      "velocity": 112,
      "chip": "ym2612"
    },
    {
      "channel": 0,
      "note": 65,
      "start": 112.0938,
      "duration": 0.1178,
      "velocity": 109,
      "chip": "ym2612"
    },
    {
      "channel": 3,
      "note": 53,
      "start": 112.0956,
      "duration": 0.0501,
      "velocity": 120,
      "chip": "ym2612"
    },
    {
      "channel": 4,
      "note": 65,
      "start": 112.1021,
      "duration": 0.084,
      "velocity": 112,
      "chip": "ym2612"
    },
    {
      "channel": 0,
      "note": 77,
      "start": 112.2455,
      "duration": 0.1178,
      "velocity": 108,
      "chip": "ym2612"
    },
    {
      "channel": 1,
      "note": 40,
      "start": 112.2468,
      "duration": 0.3023,
      "velocity": 127,
      "chip": "ym2612"
    },
    {
      "channel": 3,
      "note": 65,
      "start": 112.2481,
      "duration": 0.0494,
      "velocity": 120,
      "chip": "ym2612"
    },
    {
      "channel": 4,
      "note": 65,
      "start": 112.2537,
      "duration": 0.0841,
      "velocity": 112,
      "chip": "ym2612"
    },
    {
      "channel": 0,
      "note": 65,
      "start": 112.3972,
      "duration": 0.1178,
      "velocity": 110,
      "chip": "ym2612"
    },
    {
      "channel": 3,
      "note": 53,
      "start": 112.399,
      "duration": 0.0501,
      "velocity": 120,
      "chip": "ym2612"
    },
    {
      "channel": 4,
      "note": 65,
      "start": 112.4054,
      "duration": 0.084,
      "velocity": 112,
      "chip": "ym2612"
    },
    {
      "channel": 0,
      "note": 65,
      "start": 112.5489,
      "duration": 0.1178,
      "velocity": 109,
      "chip": "ym2612"
    },
    {
      "channel": 1,
      "note": 41,
      "start": 112.5502,
      "duration": 0.3023,
      "velocity": 123,
      "chip": "ym2612"
    },
    {
      "channel": 3,
      "note": 53,
      "start": 112.5515,
      "duration": 0.0493,
      "velocity": 120,
      "chip": "ym2612"
    },
    {
      "channel": 4,
      "note": 65,
      "start": 112.5572,
      "duration": 0.084,
      "velocity": 112,
      "chip": "ym2612"
    },
    {
      "channel": 0,
      "note": 77,
      "start": 112.7005,
      "duration": 0.1178,
      "velocity": 111,
      "chip": "ym2612"
    },
    {
      "channel": 3,
      "note": 65,
      "start": 112.7024,
      "duration": 0.0501,
      "velocity": 120,
      "chip": "ym2612"
    },
    {
      "channel": 4,
      "note": 65,
      "start": 112.7088,
      "duration": 0.084,
      "velocity": 112,
      "chip": "ym2612"
    },
    {
      "channel": 0,
      "note": 77,
      "start": 112.8523,
      "duration": 0.1178,
      "velocity": 112,
      "chip": "ym2612"
    },
    {
      "channel": 1,
      "note": 40,
      "start": 112.8535,
      "duration": 0.6057,
      "velocity": 127,
      "chip": "ym2612"
    },
    {
      "channel": 3,
      "note": 53,
      "start": 112.8549,
      "duration": 0.0493,
      "velocity": 120,
      "chip": "ym2612"
    },
    {
      "channel": 4,
      "note": 65,
      "start": 112.8605,
      "duration": 0.084,
      "velocity": 112,
      "chip": "ym2612"
    },
    {
      "channel": 0,
      "note": 65,
      "start": 113.0039,
      "duration": 0.1178,
      "velocity": 109,
      "chip": "ym2612"
    },
    {
      "channel": 3,
      "note": 65,
      "start": 113.0058,
      "duration": 0.0501,
      "velocity": 120,
      "chip": "ym2612"
    },
    {
      "channel": 4,
      "note": 65,
      "start": 113.0122,
      "duration": 0.084,
      "velocity": 112,
      "chip": "ym2612"
    },
    {
      "channel": 0,
      "note": 77,
      "start": 113.1556,
      "duration": 0.1179,
      "velocity": 108,
      "chip": "ym2612"
    },
    {
      "channel": 2,
      "note": 46,
      "start": 113.1569,
      "duration": 0.4544,
      "velocity": 110,
      "chip": "ym2612"
    },
    {
      "channel": 3,
      "note": 53,
      "start": 113.1577,
      "duration": 0.0499,
      "velocity": 120,
      "chip": "ym2612"
    },
    {
      "channel": 4,
      "note": 65,
      "start": 113.1639,
      "duration": 0.084,
      "velocity": 112,
      "chip": "ym2612"
    },
    {
      "channel": 0,
      "note": 65,
      "start": 113.3073,
      "duration": 0.1177,
      "velocity": 112,
      "chip": "ym2612"
    },
    {
      "channel": 3,
      "note": 53,
      "start": 113.3091,
      "duration": 0.0501,
      "velocity": 120,
      "chip": "ym2612"
    },
    {
      "channel": 4,
      "note": 65,
      "start": 113.3155,
      "duration": 0.0841,
      "velocity": 112,
      "chip": "ym2612"
    },
    {
      "channel": 0,
      "note": 65,
      "start": 113.459,
      "duration": 0.1178,
      "velocity": 111,
      "chip": "ym2612"
    },
    {
      "channel": 1,
      "note": 40,
      "start": 113.4597,
      "duration": 0.3029,
      "velocity": 127,
      "chip": "ym2612"
    },
    {
      "channel": 3,
      "note": 65,
      "start": 113.461,
      "duration": 0.0499,
      "velocity": 120,
      "chip": "ym2612"
    },
    {
      "channel": 4,
      "note": 65,
      "start": 113.4672,
      "duration": 0.084,
      "velocity": 112,
      "chip": "ym2612"
    },
    {
      "channel": 0,
      "note": 77,
      "start": 113.6107,
      "duration": 0.1178,
      "velocity": 109,
      "chip": "ym2612"
    },
    {
      "channel": 2,
      "note": 48,
      "start": 113.612,
      "duration": 0.4553,
      "velocity": 110,
      "chip": "ym2612"
    },
    {
      "channel": 3,
      "note": 53,
      "start": 113.6127,
      "duration": 0.0499,
      "velocity": 120,
      "chip": "ym2612"
    },
    {
      "channel": 4,
      "note": 65,
      "start": 113.6189,
      "duration": 0.084,
      "velocity": 112,
      "chip": "ym2612"
    },
    {
      "channel": 0,
      "note": 65,
      "start": 113.7623,
      "duration": 0.1178,
      "velocity": 111,
      "chip": "ym2612"
    },
    {
      "channel": 1,
      "note": 41,
      "start": 113.7637,
      "duration": 0.3022,
      "velocity": 123,
      "chip": "ym2612"
    },
    {
      "channel": 3,
      "note": 53,
      "start": 113.765,
      "duration": 0.0493,
      "velocity": 120,
      "chip": "ym2612"
    },
    {
      "channel": 4,
      "note": 65,
      "start": 113.7706,
      "duration": 0.084,
      "velocity": 112,
      "chip": "ym2612"
    },
    {
      "channel": 0,
      "note": 65,
      "start": 113.914,
      "duration": 0.1178,
      "velocity": 112,
      "chip": "ym2612"
    },
    {
      "channel": 3,
      "note": 65,
      "start": 113.9158,
      "duration": 0.0501,
      "velocity": 120,
      "chip": "ym2612"
    },
    {
      "channel": 4,
      "note": 65,
      "start": 113.9222,
      "duration": 0.084,
      "velocity": 112,
      "chip": "ym2612"
    },
    {
      "channel": 0,
      "note": 65,
      "start": 114.0657,
      "duration": 0.1178,
      "velocity": 108,
      "chip": "ym2612"
    },
    {
      "channel": 1,
      "note": 40,
      "start": 114.067,
      "duration": 0.3023,
      "velocity": 127,
      "chip": "ym2612"
    },
    {
      "channel": 2,
      "note": 53,
      "start": 114.0678,
      "duration": 1.5162,
      "velocity": 110,
      "chip": "ym2612"
    },
    {
      "channel": 3,
      "note": 53,
      "start": 114.0685,
      "duration": 0.0491,
      "velocity": 120,
      "chip": "ym2612"
    },
    {
      "channel": 4,
      "note": 65,
      "start": 114.074,
      "duration": 0.084,
      "velocity": 112,
      "chip": "ym2612"
    },
    {
      "channel": 5,
      "note": 7,
      "start": 114.0747,
      "duration": 2.4264,
      "velocity": 1,
      "chip": "ym2612"
    },
    {
      "channel": 0,
      "note": 77,
      "start": 114.2173,
      "duration": 0.1178,
      "velocity": 108,
      "chip": "ym2612"
    },
    {
      "channel": 3,
      "note": 65,
      "start": 114.2192,
      "duration": 0.0501,
      "velocity": 120,
      "chip": "ym2612"
    },
    {
      "channel": 4,
      "note": 65,
      "start": 114.2256,
      "duration": 0.084,
      "velocity": 112,
      "chip": "ym2612"
    },
    {
      "channel": 0,
      "note": 77,
      "start": 114.3691,
      "duration": 0.1177,
      "velocity": 112,
      "chip": "ym2612"
    },
    {
      "channel": 1,
      "note": 41,
      "start": 114.3703,
      "duration": 0.3023,
      "velocity": 123,
      "chip": "ym2612"
    },
    {
      "channel": 3,
      "note": 53,
      "start": 114.3717,
      "duration": 0.0494,
      "velocity": 120,
      "chip": "ym2612"
    },
    {
      "channel": 4,
      "note": 65,
      "start": 114.3773,
      "duration": 0.0841,
      "velocity": 112,
      "chip": "ym2612"
    },
    {
      "channel": 0,
      "note": 65,
      "start": 114.5207,
      "duration": 0.1178,
      "velocity": 109,
      "chip": "ym2612"
    },
    {
      "channel": 3,
      "note": 53,
      "start": 114.5226,
      "duration": 0.0501,
      "velocity": 120,
      "chip": "ym2612"
    },
    {
      "channel": 4,
      "note": 65,
      "start": 114.529,
      "duration": 0.084,
      "velocity": 112,
      "chip": "ym2612"
    },
    {
      "channel": 0,
      "note": 77,
      "start": 114.6724,
      "duration": 0.1178,
      "velocity": 108,
      "chip": "ym2612"
    },
    {
      "channel": 1,
      "note": 40,
      "start": 114.6738,
      "duration": 0.6056,
      "velocity": 127,
      "chip": "ym2612"
    },
    {
      "channel": 3,
      "note": 65,
      "start": 114.6751,
      "duration": 0.0494,
      "velocity": 120,
      "chip": "ym2612"
    },
    {
      "channel": 4,
      "note": 65,
      "start": 114.6806,
      "duration": 0.084,
      "velocity": 112,
      "chip": "ym2612"
    },
    {
      "channel": 0,
      "note": 65,
      "start": 114.8241,
      "duration": 0.1177,
      "velocity": 110,
      "chip": "ym2612"
    },
    {
      "channel": 3,
      "note": 53,
      "start": 114.8259,
      "duration": 0.0501,
      "velocity": 120,
      "chip": "ym2612"
    },
    {
      "channel": 4,
      "note": 65,
      "start": 114.8324,
      "duration": 0.084,
      "velocity": 112,
      "chip": "ym2612"
    },
    {
      "channel": 0,
      "note": 65,
      "start": 114.9757,
      "duration": 0.1178,
      "velocity": 109,
      "chip": "ym2612"
    },
    {
      "channel": 3,
      "note": 53,
      "start": 114.9776,
      "duration": 0.0501,
      "velocity": 120,
      "chip": "ym2612"
    },
    {
      "channel": 4,
      "note": 65,
      "start": 114.984,
      "duration": 0.084,
      "velocity": 112,
      "chip": "ym2612"
    },
    {
      "channel": 0,
      "note": 77,
      "start": 115.1275,
      "duration": 0.1178,
      "velocity": 111,
      "chip": "ym2612"
    },
    {
      "channel": 3,
      "note": 65,
      "start": 115.1293,
      "duration": 0.0501,
      "velocity": 120,
      "chip": "ym2612"
    },
    {
      "channel": 4,
      "note": 65,
      "start": 115.1357,
      "duration": 0.0841,
      "velocity": 112,
      "chip": "ym2612"
    },
    {
      "channel": 0,
      "note": 77,
      "start": 115.2791,
      "duration": 0.1178,
      "velocity": 112,
      "chip": "ym2612"
    },
    {
      "channel": 1,
      "note": 40,
      "start": 115.2799,
      "duration": 0.3028,
      "velocity": 127,
      "chip": "ym2612"
    },
    {
      "channel": 3,
      "note": 53,
      "start": 115.2812,
      "duration": 0.0499,
      "velocity": 120,
      "chip": "ym2612"
    },
    {
      "channel": 4,
      "note": 65,
      "start": 115.2874,
      "duration": 0.084,
      "velocity": 112,
      "chip": "ym2612"
    },
    {
      "channel": 0,
      "note": 65,
      "start": 115.4308,
      "duration": 0.1177,
      "velocity": 109,
      "chip": "ym2612"
    },
    {
      "channel": 3,
      "note": 65,
      "start": 115.4326,
      "duration": 0.0502,
      "velocity": 120,
      "chip": "ym2612"
    },
    {
      "channel": 4,
      "note": 65,
      "start": 115.439,
      "duration": 0.0841,
      "velocity": 112,
      "chip": "ym2612"
    },
    {
      "channel": 0,
      "note": 77,
      "start": 115.5825,
      "duration": 0.1178,
      "velocity": 108,
      "chip": "ym2612"
    },
    {
      "channel": 1,
      "note": 41,
      "start": 115.5838,
      "duration": 0.3022,
      "velocity": 123,
      "chip": "ym2612"
    },
    {
      "channel": 2,
      "note": 53,
      "start": 115.5846,
      "duration": 0.3028,
      "velocity": 110,
      "chip": "ym2612"
    },
    {
      "channel": 3,
      "note": 53,
      "start": 115.5854,
      "duration": 0.0491,
      "velocity": 120,
      "chip": "ym2612"
    },
    {
      "channel": 4,
      "note": 65,
      "start": 115.5908,
      "duration": 0.084,
      "velocity": 112,
      "chip": "ym2612"
    },
    {
      "channel": 0,
      "note": 65,
      "start": 115.7342,
      "duration": 0.1178,
      "velocity": 112,
      "chip": "ym2612"
    },
    {
      "channel": 3,
      "note": 53,
      "start": 115.7361,
      "duration": 0.0501,
      "velocity": 120,
      "chip": "ym2612"
    },
    {
      "channel": 4,
      "note": 65,
      "start": 115.7424,
      "duration": 0.084,
      "velocity": 112,
      "chip": "ym2612"
    },
    {
      "channel": 0,
      "note": 65,
      "start": 115.8859,
      "duration": 0.1178,
      "velocity": 111,
      "chip": "ym2612"
    },
    {
      "channel": 1,
      "note": 40,
      "start": 115.8871,
      "duration": 0.6056,
      "velocity": 127,
      "chip": "ym2612"
    },
    {
      "channel": 2,
      "note": 51,
      "start": 115.888,
      "duration": 0.302,
      "velocity": 110,
      "chip": "ym2612"
    },
    {
      "channel": 3,
      "note": 65,
      "start": 115.8887,
      "duration": 0.0491,
      "velocity": 120,
      "chip": "ym2612"
    },
    {
      "channel": 4,
      "note": 65,
      "start": 115.8941,
      "duration": 0.084,
      "velocity": 112,
      "chip": "ym2612"
    },
    {
      "channel": 0,
      "note": 77,
      "start": 116.0375,
      "duration": 0.1178,
      "velocity": 109,
      "chip": "ym2612"
    },
    {
      "channel": 3,
      "note": 53,
      "start": 116.0394,
      "duration": 0.0501,
      "velocity": 120,
      "chip": "ym2612"
    },
    {
      "channel": 4,
      "note": 65,
      "start": 116.0458,
      "duration": 0.084,
      "velocity": 112,
      "chip": "ym2612"
    },
    {
      "channel": 0,
      "note": 65,
      "start": 116.1892,
      "duration": 0.1178,
      "velocity": 111,
      "chip": "ym2612"
    },
    {
      "channel": 2,
      "note": 46,
      "start": 116.1906,
      "duration": 0.3029,
      "velocity": 110,
      "chip": "ym2612"
    },
    {
      "channel": 3,
      "note": 53,
      "start": 116.1913,
      "duration": 0.05,
      "velocity": 120,
      "chip": "ym2612"
    },
    {
      "channel": 4,
      "note": 65,
      "start": 116.1974,
      "duration": 0.0841,
      "velocity": 112,
      "chip": "ym2612"
    },
    {
      "channel": 0,
      "note": 65,
      "start": 116.341,
      "duration": 0.1178,
      "velocity": 112,
      "chip": "ym2612"
    },
    {
      "channel": 3,
      "note": 65,
      "start": 116.3428,
      "duration": 0.0501,
      "velocity": 120,
      "chip": "ym2612"
    },
    {
      "channel": 4,
      "note": 65,
      "start": 116.3492,
      "duration": 0.084,
      "velocity": 112,
      "chip": "ym2612"
    },
    {
      "channel": 0,
      "note": 63,
      "start": 116.4926,
      "duration": 0.1177,
      "velocity": 108,
      "chip": "ym2612"
    },
    {
      "channel": 1,
      "note": 40,
      "start": 116.4933,
      "duration": 0.3029,
      "velocity": 127,
      "chip": "ym2612"
    },
    {
      "channel": 2,
      "note": 46,
      "start": 116.4941,
      "duration": 1.516,
      "velocity": 110,
      "chip": "ym2612"
    },
    {
      "channel": 3,
      "note": 51,
      "start": 116.4948,
      "duration": 0.0498,
      "velocity": 120,
      "chip": "ym2612"
    },
    {
      "channel": 4,
      "note": 65,
      "start": 116.5008,
      "duration": 0.0841,
      "velocity": 112,
      "chip": "ym2612"
    },
    {
      "channel": 5,
      "note": 7,
      "start": 116.5016,
      "duration": 2.4264,
      "velocity": 1,
      "chip": "ym2612"
    },
    {
      "channel": 0,
      "note": 75,
      "start": 116.6443,
      "duration": 0.1177,
      "velocity": 108,
      "chip": "ym2612"
    },
    {
      "channel": 3,
      "note": 63,
      "start": 116.6461,
      "duration": 0.0501,
      "velocity": 120,
      "chip": "ym2612"
    },
    {
      "channel": 4,
      "note": 65,
      "start": 116.6525,
      "duration": 0.084,
      "velocity": 112,
      "chip": "ym2612"
    },
    {
      "channel": 0,
      "note": 75,
      "start": 116.796,
      "duration": 0.1178,
      "velocity": 112,
      "chip": "ym2612"
    },
    {
      "channel": 1,
      "note": 41,
      "start": 116.7973,
      "duration": 0.3022,
      "velocity": 123,
      "chip": "ym2612"
    },
    {
      "channel": 3,
      "note": 51,
      "start": 116.7986,
      "duration": 0.0493,
      "velocity": 120,
      "chip": "ym2612"
    },
    {
      "channel": 4,
      "note": 65,
      "start": 116.8042,
      "duration": 0.084,
      "velocity": 112,
      "chip": "ym2612"
    },
    {
      "channel": 0,
      "note": 63,
      "start": 116.9476,
      "duration": 0.1178,
      "velocity": 109,
      "chip": "ym2612"
    },
    {
      "channel": 3,
      "note": 51,
      "start": 116.9495,
      "duration": 0.0501,
      "velocity": 120,
      "chip": "ym2612"
    },
    {
      "channel": 4,
      "note": 65,
      "start": 116.9559,
      "duration": 0.084,
      "velocity": 112,
      "chip": "ym2612"
    },
    {
      "channel": 0,
      "note": 75,
      "start": 117.0993,
      "duration": 0.1178,
      "velocity": 108,
      "chip": "ym2612"
    },
    {
      "channel": 1,
      "note": 40,
      "start": 117.1006,
      "duration": 0.3022,
      "velocity": 127,
      "chip": "ym2612"
    },
    {
      "channel": 3,
      "note": 63,
      "start": 117.102,
      "duration": 0.0493,
      "velocity": 120,
      "chip": "ym2612"
    },
    {
      "channel": 4,
      "note": 65,
      "start": 117.1076,
      "duration": 0.084,
      "velocity": 112,
      "chip": "ym2612"
    },
    {
      "channel": 0,
      "note": 63,
      "start": 117.251,
      "duration": 0.1178,
      "velocity": 110,
      "chip": "ym2612"
    },
    {
      "channel": 3,
      "note": 51,
      "start": 117.2528,
      "duration": 0.0502,
      "velocity": 120,
      "chip": "ym2612"
    },
    {
      "channel": 4,
      "note": 65,
      "start": 117.2592,
      "duration": 0.0841,
      "velocity": 112,
      "chip": "ym2612"
    },
    {
      "channel": 0,
      "note": 63,
      "start": 117.4027,
      "duration": 0.1178,
      "velocity": 109,
      "chip": "ym2612"
    },
    {
      "channel": 1,
      "note": 41,
      "start": 117.404,
      "duration": 0.3022,
      "velocity": 123,
      "chip": "ym2612"
    },
    {
      "channel": 3,
      "note": 51,
      "start": 117.4053,
      "duration": 0.0493,
      "velocity": 120,
      "chip": "ym2612"
    },
    {
      "channel": 4,
      "note": 65,
      "start": 117.4109,
      "duration": 0.084,
      "velocity": 112,
      "chip": "ym2612"
    },
    {
      "channel": 0,
      "note": 75,
      "start": 117.5544,
      "duration": 0.1177,
      "velocity": 111,
      "chip": "ym2612"
    },
    {
      "channel": 3,
      "note": 63,
      "start": 117.5561,
      "duration": 0.0502,
      "velocity": 120,
      "chip": "ym2612"
    },
    {
      "channel": 4,
      "note": 65,
      "start": 117.5626,
      "duration": 0.084,
      "velocity": 112,
      "chip": "ym2612"
    },
    {
      "channel": 0,
      "note": 75,
      "start": 117.706,
      "duration": 0.1178,
      "velocity": 112,
      "chip": "ym2612"
    },
    {
      "channel": 1,
      "note": 40,
      "start": 117.7074,
      "duration": 0.6056,
      "velocity": 127,
      "chip": "ym2612"
    },
    {
      "channel": 3,
      "note": 51,
      "start": 117.7087,
      "duration": 0.0493,
      "velocity": 120,
      "chip": "ym2612"
    },
    {
      "channel": 4,
      "note": 65,
      "start": 117.7143,
      "duration": 0.084,
      "velocity": 112,
      "chip": "ym2612"
    },
    {
      "channel": 0,
      "note": 63,
      "start": 117.8577,
      "duration": 0.1178,
      "velocity": 109,
      "chip": "ym2612"
    },
    {
      "channel": 3,
      "note": 63,
      "start": 117.8595,
      "duration": 0.0502,
      "velocity": 120,
      "chip": "ym2612"
    },
    {
      "channel": 4,
      "note": 65,
      "start": 117.8659,
      "duration": 0.084,
      "velocity": 112,
      "chip": "ym2612"
    },
    {
      "channel": 0,
      "note": 75,
      "start": 118.0094,
      "duration": 0.1178,
      "velocity": 108,
      "chip": "ym2612"
    },
    {
      "channel": 2,
      "note": 44,
      "start": 118.0107,
      "duration": 0.4545,
      "velocity": 110,
      "chip": "ym2612"
    },
    {
      "channel": 3,
      "note": 51,
      "start": 118.0114,
      "duration": 0.0499,
      "velocity": 120,
      "chip": "ym2612"
    },
    {
      "channel": 4,
      "note": 65,
      "start": 118.0177,
      "duration": 0.084,
      "velocity": 112,
      "chip": "ym2612"
    },
    {
      "channel": 0,
      "note": 63,
      "start": 118.161,
      "duration": 0.1178,
      "velocity": 112,
      "chip": "ym2612"
    },
    {
      "channel": 3,
      "note": 51,
      "start": 118.1629,
      "duration": 0.0501,
      "velocity": 120,
      "chip": "ym2612"
    },
    {
      "channel": 4,
      "note": 65,
      "start": 118.1693,
      "duration": 0.084,
      "velocity": 112,
      "chip": "ym2612"
    },
    {
      "channel": 0,
      "note": 63,
      "start": 118.3128,
      "duration": 0.1178,
      "velocity": 111,
      "chip": "ym2612"
    },
    {
      "channel": 1,
      "note": 40,
      "start": 118.3135,
      "duration": 0.3029,
      "velocity": 127,
      "chip": "ym2612"
    },
    {
      "channel": 3,
      "note": 63,
      "start": 118.3148,
      "duration": 0.0499,
      "velocity": 120,
      "chip": "ym2612"
    },
    {
      "channel": 4,
      "note": 65,
      "start": 118.321,
      "duration": 0.0841,
      "velocity": 112,
      "chip": "ym2612"
    },
    {
      "channel": 0,
      "note": 75,
      "start": 118.4644,
      "duration": 0.1178,
      "velocity": 109,
      "chip": "ym2612"
    },
    {
      "channel": 2,
      "note": 43,
      "start": 118.4657,
      "duration": 0.4553,
      "velocity": 110,
      "chip": "ym2612"
    },
    {
      "channel": 3,
      "note": 51,
      "start": 118.4665,
      "duration": 0.05,
      "velocity": 120,
      "chip": "ym2612"
    },
    {
      "channel": 4,
      "note": 65,
      "start": 118.4727,
      "duration": 0.0841,
      "velocity": 112,
      "chip": "ym2612"
    },
    {
      "channel": 0,
      "note": 63,
      "start": 118.6161,
      "duration": 0.1177,
      "velocity": 111,
      "chip": "ym2612"
    },
    {
      "channel": 1,
      "note": 41,
      "start": 118.6174,
      "duration": 0.3023,
      "velocity": 123,
      "chip": "ym2612"
    },
    {
      "channel": 3,
      "note": 51,
      "start": 118.6188,
      "duration": 0.0494,
      "velocity": 120,
      "chip": "ym2612"
    },
    {
      "channel": 4,
      "note": 65,
      "start": 118.6244,
      "duration": 0.084,
      "velocity": 112,
      "chip": "ym2612"
    },
    {
      "channel": 0,
      "note": 63,
      "start": 118.7678,
      "duration": 0.1177,
      "velocity": 112,
      "chip": "ym2612"
    },
    {
      "channel": 3,
      "note": 63,
      "start": 118.7696,
      "duration": 0.0501,
      "velocity": 120,
      "chip": "ym2612"
    },
    {
      "channel": 4,
      "note": 65,
      "start": 118.7761,
      "duration": 0.084,
      "velocity": 112,
      "chip": "ym2612"
    },
    {
      "channel": 0,
      "note": 65,
      "start": 118.9195,
      "duration": 0.1178,
      "velocity": 108,
      "chip": "ym2612"
    },
    {
      "channel": 1,
      "note": 40,
      "start": 118.9208,
      "duration": 0.3023,
      "velocity": 127,
      "chip": "ym2612"
    },
    {
      "channel": 2,
      "note": 39,
      "start": 118.9215,
      "duration": 2.1222,
      "velocity": 110,
      "chip": "ym2612"
    },
    {
      "channel": 3,
      "note": 53,
      "start": 118.9223,
      "duration": 0.0492,
      "velocity": 120,
      "chip": "ym2612"
    },
    {
      "channel": 4,
      "note": 65,
      "start": 118.9277,
      "duration": 0.084,
      "velocity": 112,
      "chip": "ym2612"
    },
    {
      "channel": 5,
      "note": 7,
      "start": 118.9284,
      "duration": 2.4264,
      "velocity": 1,
      "chip": "ym2612"
    },
    {
      "channel": 0,
      "note": 77,
      "start": 119.0712,
      "duration": 0.1178,
      "velocity": 108,
      "chip": "ym2612"
    },
    {
      "channel": 3,
      "note": 65,
      "start": 119.073,
      "duration": 0.0501,
      "velocity": 120,
      "chip": "ym2612"
    },
    {
      "channel": 4,
      "note": 65,
      "start": 119.0794,
      "duration": 0.084,
      "velocity": 112,
      "chip": "ym2612"
    },
    {
      "channel": 0,
      "note": 77,
      "start": 119.2229,
      "duration": 0.1178,
      "velocity": 112,
      "chip": "ym2612"
    },
    {
      "channel": 1,
      "note": 41,
      "start": 119.2242,
      "duration": 0.3022,
      "velocity": 123,
      "chip": "ym2612"
    },
    {
      "channel": 3,
      "note": 53,
      "start": 119.2256,
      "duration": 0.0493,
      "velocity": 120,
      "chip": "ym2612"
    },
    {
      "channel": 4,
      "note": 65,
      "start": 119.2311,
      "duration": 0.084,
      "velocity": 112,
      "chip": "ym2612"
    },
    {
      "channel": 0,
      "note": 65,
      "start": 119.3745,
      "duration": 0.1178,
      "velocity": 109,
      "chip": "ym2612"
    },
    {
      "channel": 3,
      "note": 53,
      "start": 119.3763,
      "duration": 0.0502,
      "velocity": 120,
      "chip": "ym2612"
    },
    {
      "channel": 4,
      "note": 65,
      "start": 119.3827,
      "duration": 0.0841,
      "velocity": 112,
      "chip": "ym2612"
    },
    {
      "channel": 0,
      "note": 77,
      "start": 119.5262,
      "duration": 0.1178,
      "velocity": 108,
      "chip": "ym2612"
    },
    {
      "channel": 1,
      "note": 40,
      "start": 119.5275,
      "duration": 0.6057,
      "velocity": 127,
      "chip": "ym2612"
    },
    {
      "channel": 3,
      "note": 65,
      "start": 119.5289,
      "duration": 0.0493,
      "velocity": 120,
      "chip": "ym2612"
    },
    {
      "channel": 4,
      "note": 65,
      "start": 119.5345,
      "duration": 0.084,
      "velocity": 112,
      "chip": "ym2612"
    },
    {
      "channel": 0,
      "note": 65,
      "start": 119.6779,
      "duration": 0.1177,
      "velocity": 110,
      "chip": "ym2612"
    },
    {
      "channel": 3,
      "note": 53,
      "start": 119.6797,
      "duration": 0.0502,
      "velocity": 120,
      "chip": "ym2612"
    },
    {
      "channel": 4,
      "note": 65,
      "start": 119.6861,
      "duration": 0.084,
      "velocity": 112,
      "chip": "ym2612"
    },
    {
      "channel": 0,
      "note": 65,
      "start": 119.8296,
      "duration": 0.1177,
      "velocity": 109,
      "chip": "ym2612"
    },
    {
      "channel": 3,
      "note": 53,
      "start": 119.8314,
      "duration": 0.0501,
      "velocity": 120,
      "chip": "ym2612"
    },
    {
      "channel": 4,
      "note": 65,
      "start": 119.8378,
      "duration": 0.084,
      "velocity": 112,
      "chip": "ym2612"
    },
    {
      "channel": 0,
      "note": 77,
      "start": 119.9813,
      "duration": 0.1178,
      "velocity": 111,
      "chip": "ym2612"
    },
    {
      "channel": 3,
      "note": 65,
      "start": 119.9831,
      "duration": 0.0501,
      "velocity": 120,
      "chip": "ym2612"
    },
    {
      "channel": 4,
      "note": 65,
      "start": 119.9895,
      "duration": 0.0841,
      "velocity": 112,
      "chip": "ym2612"
    },
    {
      "channel": 0,
      "note": 77,
      "start": 120.1329,
      "duration": 0.1178,
      "velocity": 112,
      "chip": "ym2612"
    },
    {
      "channel": 1,
      "note": 40,
      "start": 120.1336,
      "duration": 0.3029,
      "velocity": 127,
      "chip": "ym2612"
    },
    {
      "channel": 3,
      "note": 53,
      "start": 120.135,
      "duration": 0.0499,
      "velocity": 120,
      "chip": "ym2612"
    },
    {
      "channel": 4,
      "note": 65,
      "start": 120.1412,
      "duration": 0.084,
      "velocity": 112,
      "chip": "ym2612"
    },
    {
      "channel": 0,
      "note": 65,
      "start": 120.2846,
      "duration": 0.1178,
      "velocity": 109,
      "chip": "ym2612"
    },
    {
      "channel": 3,
      "note": 65,
      "start": 120.2864,
      "duration": 0.0501,
      "velocity": 120,
      "chip": "ym2612"
    },
    {
      "channel": 4,
      "note": 65,
      "start": 120.2929,
      "duration": 0.084,
      "velocity": 112,
      "chip": "ym2612"
    },
    {
      "channel": 0,
      "note": 77,
      "start": 120.4363,
      "duration": 0.1178,
      "velocity": 108,
      "chip": "ym2612"
    },
    {
      "channel": 1,
      "note": 41,
      "start": 120.4376,
      "duration": 0.3023,
      "velocity": 123,
      "chip": "ym2612"
    },
    {
      "channel": 3,
      "note": 53,
      "start": 120.4389,
      "duration": 0.0494,
      "velocity": 120,
      "chip": "ym2612"
    },
    {
      "channel": 4,
      "note": 65,
      "start": 120.4445,
      "duration": 0.0841,
      "velocity": 112,
      "chip": "ym2612"
    },
    {
      "channel": 0,
      "note": 65,
      "start": 120.588,
      "duration": 0.1178,
      "velocity": 112,
      "chip": "ym2612"
    },
    {
      "channel": 3,
      "note": 53,
      "start": 120.5898,
      "duration": 0.0501,
      "velocity": 120,
      "chip": "ym2612"
    },
    {
      "channel": 4,
      "note": 65,
      "start": 120.5962,
      "duration": 0.084,
      "velocity": 112,
      "chip": "ym2612"
    },
    {
      "channel": 0,
      "note": 65,
      "start": 120.7397,
      "duration": 0.1178,
      "velocity": 111,
      "chip": "ym2612"
    },
    {
      "channel": 1,
      "note": 40,
      "start": 120.741,
      "duration": 0.6056,
      "velocity": 127,
      "chip": "ym2612"
    },
    {
      "channel": 3,
      "note": 65,
      "start": 120.7424,
      "duration": 0.0493,
      "velocity": 120,
      "chip": "ym2612"
    },
    {
      "channel": 4,
      "note": 65,
      "start": 120.7479,
      "duration": 0.0841,
      "velocity": 112,
      "chip": "ym2612"
    },
    {
      "channel": 0,
      "note": 77,
      "start": 120.8913,
      "duration": 0.1177,
      "velocity": 109,
      "chip": "ym2612"
    },
    {
      "channel": 3,
      "note": 53,
      "start": 120.8932,
      "duration": 0.0501,
      "velocity": 120,
      "chip": "ym2612"
    },
    {
      "channel": 4,
      "note": 65,
      "start": 120.8996,
      "duration": 0.084,
      "velocity": 112,
      "chip": "ym2612"
    },
    {
      "channel": 0,
      "note": 65,
      "start": 121.043,
      "duration": 0.1178,
      "velocity": 111,
      "chip": "ym2612"
    },
    {
      "channel": 2,
      "note": 48,
      "start": 121.0443,
      "duration": 0.1511,
      "velocity": 110,
      "chip": "ym2612"
    },
    {
      "channel": 3,
      "note": 53,
      "start": 121.0451,
      "duration": 0.0499,
      "velocity": 120,
      "chip": "ym2612"
    },
    {
      "channel": 4,
      "note": 65,
      "start": 121.0512,
      "duration": 0.084,
      "velocity": 112,
      "chip": "ym2612"
    },
    {
      "channel": 0,
      "note": 65,
      "start": 121.1947,
      "duration": 0.1178,
      "velocity": 112,
      "chip": "ym2612"
    },
    {
      "channel": 2,
      "note": 53,
      "start": 121.196,
      "duration": 0.1513,
      "velocity": 110,
      "chip": "ym2612"
    },
    {
      "channel": 3,
      "note": 65,
      "start": 121.1967,
      "duration": 0.0499,
      "velocity": 120,
      "chip": "ym2612"
    },
    {
      "channel": 4,
      "note": 65,
      "start": 121.203,
      "duration": 0.084,
      "velocity": 112,
      "chip": "ym2612"
    },
    {
      "channel": 0,
      "note": 63,
      "start": 121.3463,
      "duration": 0.1178,
      "velocity": 108,
      "chip": "ym2612"
    },
    {
      "channel": 1,
      "note": 40,
      "start": 121.3471,
      "duration": 0.3028,
      "velocity": 127,
      "chip": "ym2612"
    },
    {
      "channel": 2,
      "note": 55,
      "start": 121.3479,
      "duration": 0.1509,
      "velocity": 110,
      "chip": "ym2612"
    },
    {
      "channel": 3,
      "note": 51,
      "start": 121.3486,
      "duration": 0.0498,
      "velocity": 120,
      "chip": "ym2612"
    },
    {
      "channel": 4,
      "note": 65,
      "start": 121.3546,
      "duration": 0.084,
      "velocity": 112,
      "chip": "ym2612"
    },
    {
      "channel": 5,
      "note": 7,
      "start": 121.3553,
      "duration": 2.4264,
      "velocity": 1,
      "chip": "ym2612"
    },
    {
      "channel": 0,
      "note": 75,
      "start": 121.4981,
      "duration": 0.1178,
      "velocity": 108,
      "chip": "ym2612"
    },
    {
      "channel": 2,
      "note": 53,
      "start": 121.4993,
      "duration": 0.1519,
      "velocity": 110,
      "chip": "ym2612"
    },
    {
      "channel": 3,
      "note": 63,
      "start": 121.5001,
      "duration": 0.0499,
      "velocity": 120,
      "chip": "ym2612"
    },
    {
      "channel": 4,
      "note": 65,
      "start": 121.5063,
      "duration": 0.0841,
      "velocity": 112,
      "chip": "ym2612"
    },
    {
      "channel": 0,
      "note": 75,
      "start": 121.6497,
      "duration": 0.1178,
      "velocity": 112,
      "chip": "ym2612"
    },
    {
      "channel": 1,
      "note": 41,
      "start": 121.6511,
      "duration": 0.3022,
      "velocity": 123,
      "chip": "ym2612"
    },
    {
      "channel": 2,
      "note": 55,
      "start": 121.6518,
      "duration": 0.1503,
      "velocity": 110,
      "chip": "ym2612"
    },
    {
      "channel": 3,
      "note": 51,
      "start": 121.6526,
      "duration": 0.0492,
      "velocity": 120,
      "chip": "ym2612"
    },
    {
      "channel": 4,
      "note": 65,
      "start": 121.658,
      "duration": 0.084,
      "velocity": 112,
      "chip": "ym2612"
    },
    {
      "channel": 0,
      "note": 63,
      "start": 121.8015,
      "duration": 0.1177,
      "velocity": 109,
      "chip": "ym2612"
    },
    {
      "channel": 2,
      "note": 53,
      "start": 121.8027,
      "duration": 0.1519,
      "velocity": 110,
      "chip": "ym2612"
    },
    {
      "channel": 3,
      "note": 51,
      "start": 121.8035,
      "duration": 0.05,
      "velocity": 120,
      "chip": "ym2612"
    },
    {
      "channel": 4,
      "note": 65,
      "start": 121.8097,
      "duration": 0.0841,
      "velocity": 112,
      "chip": "ym2612"
    },
    {
      "channel": 0,
      "note": 75,
      "start": 121.9531,
      "duration": 0.1177,
      "velocity": 108,
      "chip": "ym2612"
    },
    {
      "channel": 1,
      "note": 40,
      "start": 121.9544,
      "duration": 0.3022,
      "velocity": 127,
      "chip": "ym2612"
    },
    {
      "channel": 2,
      "note": 55,
      "start": 121.9552,
      "duration": 0.3029,
      "velocity": 110,
      "chip": "ym2612"
    },
    {
      "channel": 3,
      "note": 63,
      "start": 121.956,
      "duration": 0.0491,
      "velocity": 120,
      "chip": "ym2612"
    },
    {
      "channel": 4,
      "note": 65,
      "start": 121.9614,
      "duration": 0.084,
      "velocity": 112,
      "chip": "ym2612"
    },
    {
      "channel": 0,
      "note": 63,
      "start": 122.1048,
      "duration": 0.1178,
      "velocity": 110,
      "chip": "ym2612"
    },
    {
      "channel": 3,
      "note": 51,
      "start": 122.1067,
      "duration": 0.0501,
      "velocity": 120,
      "chip": "ym2612"
    },
    {
      "channel": 4,
      "note": 65,
      "start": 122.113,
      "duration": 0.084,
      "velocity": 112,
      "chip": "ym2612"
    },
    {
      "channel": 0,
      "note": 63,
      "start": 122.2565,
      "duration": 0.1178,
      "velocity": 109,
      "chip": "ym2612"
    },
    {
      "channel": 1,
      "note": 41,
      "start": 122.2578,
      "duration": 0.3022,
      "velocity": 123,
      "chip": "ym2612"
    },
    {
      "channel": 2,
      "note": 56,
      "start": 122.2586,
      "duration": 0.1502,
      "velocity": 110,
      "chip": "ym2612"
    },
    {
      "channel": 3,
      "note": 51,
      "start": 122.2593,
      "duration": 0.0492,
      "velocity": 120,
      "chip": "ym2612"
    },
    {
      "channel": 4,
      "note": 65,
      "start": 122.2647,
      "duration": 0.084,
      "velocity": 112,
      "chip": "ym2612"
    },
    {
      "channel": 0,
      "note": 75,
      "start": 122.4081,
      "duration": 0.1178,
      "velocity": 111,
      "chip": "ym2612"
    },
    {
      "channel": 2,
      "note": 58,
      "start": 122.4094,
      "duration": 0.4545,
      "velocity": 110,
      "chip": "ym2612"
    },
    {
      "channel": 3,
      "note": 63,
      "start": 122.4102,
      "duration": 0.05,
      "velocity": 120,
      "chip": "ym2612"
    },
    {
      "channel": 4,
      "note": 65,
      "start": 122.4164,
      "duration": 0.084,
      "velocity": 112,
      "chip": "ym2612"
    },
    {
      "channel": 0,
      "note": 75,
      "start": 122.5598,
      "duration": 0.1178,
      "velocity": 112,
      "chip": "ym2612"
    },
    {
      "channel": 1,
      "note": 40,
      "start": 122.5611,
      "duration": 0.6057,
      "velocity": 127,
      "chip": "ym2612"
    },
    {
      "channel": 3,
      "note": 51,
      "start": 122.5624,
      "duration": 0.0494,
      "velocity": 120,
      "chip": "ym2612"
    },
    {
      "channel": 4,
      "note": 65,
      "start": 122.568,
      "duration": 0.0841,
      "velocity": 112,
      "chip": "ym2612"
    },
    {
      "channel": 0,
      "note": 63,
      "start": 122.7115,
      "duration": 0.1178,
      "velocity": 109,
      "chip": "ym2612"
    },
    {
      "channel": 3,
      "note": 63,
      "start": 122.7133,
      "duration": 0.0501,
      "velocity": 120,
      "chip": "ym2612"
    },
    {
      "channel": 4,
      "note": 65,
      "start": 122.7198,
      "duration": 0.084,
      "velocity": 112,
      "chip": "ym2612"
    },
    {
      "channel": 0,
      "note": 75,
      "start": 122.8632,
      "duration": 0.1177,
      "velocity": 108,
      "chip": "ym2612"
    },
    {
      "channel": 2,
      "note": 56,
      "start": 122.8645,
      "duration": 0.4544,
      "velocity": 110,
      "chip": "ym2612"
    },
    {
      "channel": 3,
      "note": 51,
      "start": 122.8652,
      "duration": 0.05,
      "velocity": 120,
      "chip": "ym2612"
    },
    {
      "channel": 4,
      "note": 65,
      "start": 122.8714,
      "duration": 0.0841,
      "velocity": 112,
      "chip": "ym2612"
    },
    {
      "channel": 0,
      "note": 63,
      "start": 123.0149,
      "duration": 0.1177,
      "velocity": 112,
      "chip": "ym2612"
    },
    {
      "channel": 3,
      "note": 51,
      "start": 123.0167,
      "duration": 0.0501,
      "velocity": 120,
      "chip": "ym2612"
    },
    {
      "channel": 4,
      "note": 65,
      "start": 123.0231,
      "duration": 0.0841,
      "velocity": 112,
      "chip": "ym2612"
    },
    {
      "channel": 0,
      "note": 63,
      "start": 123.1666,
      "duration": 0.1178,
      "velocity": 111,
      "chip": "ym2612"
    },
    {
      "channel": 1,
      "note": 40,
      "start": 123.1673,
      "duration": 0.3028,
      "velocity": 127,
      "chip": "ym2612"
    },
    {
      "channel": 3,
      "note": 63,
      "start": 123.1686,
      "duration": 0.0499,
      "velocity": 120,
      "chip": "ym2612"
    },
    {
      "channel": 4,
      "note": 65,
      "start": 123.1748,
      "duration": 0.084,
      "velocity": 112,
      "chip": "ym2612"
    },
    {
      "channel": 0,
      "note": 75,
      "start": 123.3182,
      "duration": 0.1178,
      "velocity": 109,
      "chip": "ym2612"
    },
    {
      "channel": 2,
      "note": 55,
      "start": 123.3195,
      "duration": 0.4554,
      "velocity": 110,
      "chip": "ym2612"
    },
    {
      "channel": 3,
      "note": 51,
      "start": 123.3203,
      "duration": 0.0499,
      "velocity": 120,
      "chip": "ym2612"
    },
    {
      "channel": 4,
      "note": 65,
      "start": 123.3265,
      "duration": 0.084,
      "velocity": 112,
      "chip": "ym2612"
    },
    {
      "channel": 0,
      "note": 63,
      "start": 123.4699,
      "duration": 0.1178,
      "velocity": 111,
      "chip": "ym2612"
    },
    {
      "channel": 1,
      "note": 41,
      "start": 123.4712,
      "duration": 0.3023,
      "velocity": 123,
      "chip": "ym2612"
    },
    {
      "channel": 3,
      "note": 51,
      "start": 123.4726,
      "duration": 0.0493,
      "velocity": 120,
      "chip": "ym2612"
    },
    {
      "channel": 4,
      "note": 65,
      "start": 123.4782,
      "duration": 0.084,
      "velocity": 112,
      "chip": "ym2612"
    },
    {
      "channel": 0,
      "note": 63,
      "start": 123.6216,
      "duration": 0.1178,
      "velocity": 112,
      "chip": "ym2612"
    },
    {
      "channel": 3,
      "note": 63,
      "start": 123.6234,
      "duration": 0.0502,
      "velocity": 120,
      "chip": "ym2612"
    },
    {
      "channel": 4,
      "note": 65,
      "start": 123.6298,
      "duration": 0.0841,
      "velocity": 112,
      "chip": "ym2612"
    },
    {
      "channel": 0,
      "note": 61,
      "start": 123.7733,
      "duration": 0.1178,
      "velocity": 108,
      "chip": "ym2612"
    },
    {
      "channel": 1,
      "note": 40,
      "start": 123.7746,
      "duration": 0.3022,
      "velocity": 127,
      "chip": "ym2612"
    },
    {
      "channel": 2,
      "note": 55,
      "start": 123.7754,
      "duration": 0.3027,
      "velocity": 110,
      "chip": "ym2612"
    },
    {
      "channel": 3,
      "note": 49,
      "start": 123.7762,
      "duration": 0.0491,
      "velocity": 120,
      "chip": "ym2612"
    },
    {
      "channel": 4,
      "note": 65,
      "start": 123.7815,
      "duration": 0.084,
      "velocity": 112,
      "chip": "ym2612"
    },
    {
      "channel": 5,
      "note": 7,
      "start": 123.7822,
      "duration": 2.4264,
      "velocity": 1,
      "chip": "ym2612"
    },
    {
      "channel": 0,
      "note": 73,
      "start": 123.925,
      "duration": 0.1177,
      "velocity": 108,
      "chip": "ym2612"
    },
    {
      "channel": 3,
      "note": 61,
      "start": 123.9268,
      "duration": 0.0501,
      "velocity": 120,
      "chip": "ym2612"
    },
    {
      "channel": 4,
      "note": 65,
      "start": 123.9332,
      "duration": 0.084,
      "velocity": 112,
      "chip": "ym2612"
    },
    {
      "channel": 0,
      "note": 73,
      "start": 124.0766,
      "duration": 0.1177,
      "velocity": 112,
      "chip": "ym2612"
    },
    {
      "channel": 1,
      "note": 41,
      "start": 124.0779,
      "duration": 0.3023,
      "velocity": 123,
      "chip": "ym2612"
    },
    {
      "channel": 2,
      "note": 56,
      "start": 124.0787,
      "duration": 0.1503,
      "velocity": 110,
      "chip": "ym2612"
    },
    {
      "channel": 3,
      "note": 49,
      "start": 124.0795,
      "duration": 0.0491,
      "velocity": 120,
      "chip": "ym2612"
    },
    {
      "channel": 4,
      "note": 65,
      "start": 124.0849,
      "duration": 0.084,
      "velocity": 112,
      "chip": "ym2612"
    },
    {
      "channel": 0,
      "note": 61,
      "start": 124.2283,
      "duration": 0.1178,
      "velocity": 109,
      "chip": "ym2612"
    },
    {
      "channel": 2,
      "note": 53,
      "start": 124.2296,
      "duration": 1.8196,
      "velocity": 110,
      "chip": "ym2612"
    },
    {
      "channel": 3,
      "note": 49,
      "start": 124.2304,
      "duration": 0.0499,
      "velocity": 120,
      "chip": "ym2612"
    },
    {
      "channel": 4,
      "note": 65,
      "start": 124.2366,
      "duration": 0.084,
      "velocity": 112,
      "chip": "ym2612"
    },
    {
      "channel": 0,
      "note": 73,
      "start": 124.38,
      "duration": 0.1178,
      "velocity": 108,
      "chip": "ym2612"
    },
    {
      "channel": 1,
      "note": 40,
      "start": 124.3813,
      "duration": 0.6057,
      "velocity": 127,
      "chip": "ym2612"
    },
    {
      "channel": 3,
      "note": 61,
      "start": 124.3827,
      "duration": 0.0493,
      "velocity": 120,
      "chip": "ym2612"
    },
    {
      "channel": 4,
      "note": 65,
      "start": 124.3883,
      "duration": 0.084,
      "velocity": 112,
      "chip": "ym2612"
    },
    {
      "channel": 0,
      "note": 61,
      "start": 124.5317,
      "duration": 0.1178,
      "velocity": 110,
      "chip": "ym2612"
    },
    {
      "channel": 3,
      "note": 49,
      "start": 124.5335,
      "duration": 0.0501,
      "velocity": 120,
      "chip": "ym2612"
    },
    {
      "channel": 4,
      "note": 65,
      "start": 124.5399,
      "duration": 0.084,
      "velocity": 112,
      "chip": "ym2612"
    },
    {
      "channel": 0,
      "note": 61,
      "start": 124.6834,
      "duration": 0.1178,
      "velocity": 109,
      "chip": "ym2612"
    },
    {
      "channel": 3,
      "note": 49,
      "start": 124.6852,
      "duration": 0.0502,
      "velocity": 120,
      "chip": "ym2612"
    },
    {
      "channel": 4,
      "note": 65,
      "start": 124.6916,
      "duration": 0.0841,
      "velocity": 112,
      "chip": "ym2612"
    },
    {
      "channel": 0,
      "note": 73,
      "start": 124.835,
      "duration": 0.1178,
      "velocity": 111,
      "chip": "ym2612"
    },
    {
      "channel": 3,
      "note": 61,
      "start": 124.8369,
      "duration": 0.0501,
      "velocity": 120,
      "chip": "ym2612"
    },
    {
      "channel": 4,
      "note": 65,
      "start": 124.8433,
      "duration": 0.084,
      "velocity": 112,
      "chip": "ym2612"
    },
    {
      "channel": 0,
      "note": 73,
      "start": 124.9868,
      "duration": 0.1177,
      "velocity": 112,
      "chip": "ym2612"
    },
    {
      "channel": 1,
      "note": 40,
      "start": 124.9875,
      "duration": 0.3029,
      "velocity": 127,
      "chip": "ym2612"
    },
    {
      "channel": 3,
      "note": 49,
      "start": 124.9888,
      "duration": 0.05,
      "velocity": 120,
      "chip": "ym2612"
    },
    {
      "channel": 4,
      "note": 65,
      "start": 124.995,
      "duration": 0.0841,
      "velocity": 112,
      "chip": "ym2612"
    },
    {
      "channel": 0,
      "note": 61,
      "start": 125.1384,
      "duration": 0.1177,
      "velocity": 109,
      "chip": "ym2612"
    },
    {
      "channel": 3,
      "note": 61,
      "start": 125.1403,
      "duration": 0.0501,
      "velocity": 120,
      "chip": "ym2612"
    },
    {
      "channel": 4,
      "note": 65,
      "start": 125.1467,
      "duration": 0.084,
      "velocity": 112,
      "chip": "ym2612"
    },
    {
      "channel": 0,
      "note": 73,
      "start": 125.2901,
      "duration": 0.1178,
      "velocity": 108,
      "chip": "ym2612"
    },
    {
      "channel": 1,
      "note": 41,
      "start": 125.2915,
      "duration": 0.3022,
      "velocity": 123,
      "chip": "ym2612"
    },
    {
      "channel": 3,
      "note": 49,
      "start": 125.2928,
      "duration": 0.0493,
      "velocity": 120,
      "chip": "ym2612"
    },
    {
      "channel": 4,
      "note": 65,
      "start": 125.2983,
      "duration": 0.084,
      "velocity": 112,
      "chip": "ym2612"
    },
    {
      "channel": 0,
      "note": 61,
      "start": 125.4418,
      "duration": 0.1178,
      "velocity": 112,
      "chip": "ym2612"
    },
    {
      "channel": 3,
      "note": 49,
      "start": 125.4436,
      "duration": 0.0501,
      "velocity": 120,
      "chip": "ym2612"
    },
    {
      "channel": 4,
      "note": 65,
      "start": 125.45,
      "duration": 0.084,
      "velocity": 112,
      "chip": "ym2612"
    },
    {
      "channel": 0,
      "note": 61,
      "start": 125.5934,
      "duration": 0.1178,
      "velocity": 111,
      "chip": "ym2612"
    },
    {
      "channel": 1,
      "note": 40,
      "start": 125.5948,
      "duration": 0.6057,
      "velocity": 127,
      "chip": "ym2612"
    },
    {
      "channel": 3,
      "note": 61,
      "start": 125.5961,
      "duration": 0.0493,
      "velocity": 120,
      "chip": "ym2612"
    },
    {
      "channel": 4,
      "note": 65,
      "start": 125.6017,
      "duration": 0.084,
      "velocity": 112,
      "chip": "ym2612"
    },
    {
      "channel": 0,
      "note": 73,
      "start": 125.7451,
      "duration": 0.1178,
      "velocity": 109,
      "chip": "ym2612"
    },
    {
      "channel": 3,
      "note": 49,
      "start": 125.7469,
      "duration": 0.0502,
      "velocity": 120,
      "chip": "ym2612"
    },
    {
      "channel": 4,
      "note": 65,
      "start": 125.7534,
      "duration": 0.0841,
      "velocity": 112,
      "chip": "ym2612"
    },
    {
      "channel": 0,
      "note": 61,
      "start": 125.8968,
      "duration": 0.1178,
      "velocity": 111,
      "chip": "ym2612"
    },
    {
      "channel": 3,
      "note": 49,
      "start": 125.8986,
      "duration": 0.0501,
      "velocity": 120,
      "chip": "ym2612"
    },
    {
      "channel": 4,
      "note": 65,
      "start": 125.9051,
      "duration": 0.084,
      "velocity": 112,
      "chip": "ym2612"
    },
    {
      "channel": 0,
      "note": 61,
      "start": 126.0485,
      "duration": 0.1177,
      "velocity": 112,
      "chip": "ym2612"
    },
    {
      "channel": 2,
      "note": 53,
      "start": 126.0498,
      "duration": 0.1513,
      "velocity": 110,
      "chip": "ym2612"
    },
    {
      "channel": 3,
      "note": 61,
      "start": 126.0505,
      "duration": 0.05,
      "velocity": 120,
      "chip": "ym2612"
    },
    {
      "channel": 4,
      "note": 65,
      "start": 126.0568,
      "duration": 0.084,
      "velocity": 112,
      "chip": "ym2612"
    },
    {
      "channel": 0,
      "note": 63,
      "start": 126.2002,
      "duration": 0.1177,
      "velocity": 108,
      "chip": "ym2612"
    },
    {
      "channel": 1,
      "note": 40,
      "start": 126.2009,
      "duration": 0.3029,
      "velocity": 127,
      "chip": "ym2612"
    },
    {
      "channel": 2,
      "note": 55,
      "start": 126.2017,
      "duration": 0.1508,
      "velocity": 110,
      "chip": "ym2612"
    },
    {
      "channel": 3,
      "note": 51,
      "start": 126.2025,
      "duration": 0.0497,
      "velocity": 120,
      "chip": "ym2612"
    },
    {
      "channel": 4,
      "note": 65,
      "start": 126.2084,
      "duration": 0.084,
      "velocity": 112,
      "chip": "ym2612"
    },
    {
      "channel": 5,
      "note": 7,
      "start": 126.2091,
      "duration": 2.4264,
      "velocity": 1,
      "chip": "ym2612"
    },
    {
      "channel": 0,
      "note": 75,
      "start": 126.3518,
      "duration": 0.1178,
      "velocity": 108,
      "chip": "ym2612"
    },
    {
      "channel": 2,
      "note": 53,
      "start": 126.3531,
      "duration": 0.152,
      "velocity": 110,
      "chip": "ym2612"
    },
    {
      "channel": 3,
      "note": 63,
      "start": 126.3539,
      "duration": 0.05,
      "velocity": 120,
      "chip": "ym2612"
    },
    {
      "channel": 4,
      "note": 65,
      "start": 126.3601,
      "duration": 0.084,
      "velocity": 112,
      "chip": "ym2612"
    },
    {
      "channel": 0,
      "note": 75,
      "start": 126.5035,
      "duration": 0.1178,
      "velocity": 112,
      "chip": "ym2612"
    },
    {
      "channel": 1,
      "note": 41,
      "start": 126.5048,
      "duration": 0.3024,
      "velocity": 123,
      "chip": "ym2612"
    },
    {
      "channel": 2,
      "note": 55,
      "start": 126.5056,
      "duration": 0.1502,
      "velocity": 110,
      "chip": "ym2612"
    },
    {
      "channel": 3,
      "note": 51,
      "start": 126.5063,
      "duration": 0.0492,
      "velocity": 120,
      "chip": "ym2612"
    },
    {
      "channel": 4,
      "note": 65,
      "start": 126.5118,
      "duration": 0.084,
      "velocity": 112,
      "chip": "ym2612"
    },
    {
      "channel": 0,
      "note": 63,
      "start": 126.6552,
      "duration": 0.1178,
      "velocity": 109,
      "chip": "ym2612"
    },
    {
      "channel": 2,
      "note": 53,
      "start": 126.6565,
      "duration": 0.152,
      "velocity": 110,
      "chip": "ym2612"
    },
    {
      "channel": 3,
      "note": 51,
      "start": 126.6573,
      "duration": 0.0499,
      "velocity": 120,
      "chip": "ym2612"
    },
    {
      "channel": 4,
      "note": 65,
      "start": 126.6635,
      "duration": 0.084,
      "velocity": 112,
      "chip": "ym2612"
    },
    {
      "channel": 0,
      "note": 75,
      "start": 126.807,
      "duration": 0.1177,
      "velocity": 108,
      "chip": "ym2612"
    },
    {
      "channel": 1,
      "note": 40,
      "start": 126.8083,
      "duration": 0.3022,
      "velocity": 127,
      "chip": "ym2612"
    },
    {
      "channel": 2,
      "note": 55,
      "start": 126.809,
      "duration": 0.3028,
      "velocity": 110,
      "chip": "ym2612"
    },
    {
      "channel": 3,
      "note": 63,
      "start": 126.8098,
      "duration": 0.0492,
      "velocity": 120,
      "chip": "ym2612"
    },
    {
      "channel": 4,
      "note": 65,
      "start": 126.8151,
      "duration": 0.0841,
      "velocity": 112,
      "chip": "ym2612"
    },
    {
      "channel": 0,
      "note": 63,
      "start": 126.9586,
      "duration": 0.1178,
      "velocity": 110,
      "chip": "ym2612"
    },
    {
      "channel": 3,
      "note": 51,
      "start": 126.9604,
      "duration": 0.0501,
      "velocity": 120,
      "chip": "ym2612"
    },
    {
      "channel": 4,
      "note": 65,
      "start": 126.9668,
      "duration": 0.084,
      "velocity": 112,
      "chip": "ym2612"
    },
    {
      "channel": 0,
      "note": 63,
      "start": 127.1103,
      "duration": 0.1177,
      "velocity": 109,
      "chip": "ym2612"
    },
    {
      "channel": 1,
      "note": 41,
      "start": 127.1116,
      "duration": 0.3023,
      "velocity": 123,
      "chip": "ym2612"
    },
    {
      "channel": 2,
      "note": 56,
      "start": 127.1124,
      "duration": 0.1502,
      "velocity": 110,
      "chip": "ym2612"
    },
    {
      "channel": 3,
      "note": 51,
      "start": 127.1131,
      "duration": 0.0492,
      "velocity": 120,
      "chip": "ym2612"
    },
    {
      "channel": 4,
      "note": 65,
      "start": 127.1185,
      "duration": 0.0841,
      "velocity": 112,
      "chip": "ym2612"
    },
    {
      "channel": 0,
      "note": 75,
      "start": 127.262,
      "duration": 0.1177,
      "velocity": 111,
      "chip": "ym2612"
    },
    {
      "channel": 2,
      "note": 58,
      "start": 127.2632,
      "duration": 0.4544,
      "velocity": 110,
      "chip": "ym2612"
    },
    {
      "channel": 3,
      "note": 63,
      "start": 127.264,
      "duration": 0.05,
      "velocity": 120,
      "chip": "ym2612"
    },
    {
      "channel": 4,
      "note": 65,
      "start": 127.2702,
      "duration": 0.084,
      "velocity": 112,
      "chip": "ym2612"
    },
    {
      "channel": 0,
      "note": 75,
      "start": 127.4137,
      "duration": 0.1178,
      "velocity": 112,
      "chip": "ym2612"
    },
    {
      "channel": 1,
      "note": 40,
      "start": 127.4149,
      "duration": 0.6057,
      "velocity": 127,
      "chip": "ym2612"
    },
    {
      "channel": 3,
      "note": 51,
      "start": 127.4163,
      "duration": 0.0493,
      "velocity": 120,
      "chip": "ym2612"
    },
    {
      "channel": 4,
      "note": 65,
      "start": 127.4219,
      "duration": 0.084,
      "velocity": 112,
      "chip": "ym2612"
    },
    {
      "channel": 0,
      "note": 63,
      "start": 127.5653,
      "duration": 0.1178,
      "velocity": 109,
      "chip": "ym2612"
    },
    {
      "channel": 3,
      "note": 63,
      "start": 127.5672,
      "duration": 0.0501,
      "velocity": 120,
      "chip": "ym2612"
    },
    {
      "channel": 4,
      "note": 65,
      "start": 127.5736,
      "duration": 0.084,
      "velocity": 112,
      "chip": "ym2612"
    },
    {
      "channel": 0,
      "note": 75,
      "start": 127.717,
      "duration": 0.1178,
      "velocity": 108,
      "chip": "ym2612"
    },
    {
      "channel": 2,
      "note": 56,
      "start": 127.7182,
      "duration": 0.4545,
      "velocity": 110,
      "chip": "ym2612"
    },
    {
      "channel": 3,
      "note": 51,
      "start": 127.719,
      "duration": 0.05,
      "velocity": 120,
      "chip": "ym2612"
    },
    {
      "channel": 4,
      "note": 65,
      "start": 127.7252,
      "duration": 0.084,
      "velocity": 112,
      "chip": "ym2612"
    },
    {
      "channel": 0,
      "note": 63,
      "start": 127.8687,
      "duration": 0.1178,
      "velocity": 112,
      "chip": "ym2612"
    },
    {
      "channel": 3,
      "note": 51,
      "start": 127.8705,
      "duration": 0.0501,
      "velocity": 120,
      "chip": "ym2612"
    },
    {
      "channel": 4,
      "note": 65,
      "start": 127.8769,
      "duration": 0.0841,
      "velocity": 112,
      "chip": "ym2612"
    },
    {
      "channel": 0,
      "note": 63,
      "start": 128.0203,
      "duration": 0.1178,
      "velocity": 111,
      "chip": "ym2612"
    },
    {
      "channel": 1,
      "note": 40,
      "start": 128.021,
      "duration": 0.3029,
      "velocity": 127,
      "chip": "ym2612"
    },
    {
      "channel": 3,
      "note": 63,
      "start": 128.0224,
      "duration": 0.0499,
      "velocity": 120,
      "chip": "ym2612"
    },
    {
      "channel": 4,
      "note": 65,
      "start": 128.0286,
      "duration": 0.084,
      "velocity": 112,
      "chip": "ym2612"
    },
    {
      "channel": 0,
      "note": 75,
      "start": 128.1721,
      "duration": 0.1177,
      "velocity": 109,
      "chip": "ym2612"
    },
    {
      "channel": 2,
      "note": 58,
      "start": 128.1733,
      "duration": 0.4553,
      "velocity": 110,
      "chip": "ym2612"
    },
    {
      "channel": 3,
      "note": 51,
      "start": 128.1741,
      "duration": 0.05,
      "velocity": 120,
      "chip": "ym2612"
    },
    {
      "channel": 4,
      "note": 65,
      "start": 128.1803,
      "duration": 0.084,
      "velocity": 112,
      "chip": "ym2612"
    },
    {
      "channel": 0,
      "note": 63,
      "start": 128.3238,
      "duration": 0.1177,
      "velocity": 111,
      "chip": "ym2612"
    },
    {
      "channel": 1,
      "note": 41,
      "start": 128.325,
      "duration": 0.3022,
      "velocity": 123,
      "chip": "ym2612"
    },
    {
      "channel": 3,
      "note": 51,
      "start": 128.3264,
      "duration": 0.0494,
      "velocity": 120,
      "chip": "ym2612"
    },
    {
      "channel": 4,
      "note": 65,
      "start": 128.332,
      "duration": 0.084,
      "velocity": 112,
      "chip": "ym2612"
    },
    {
      "channel": 0,
      "note": 63,
      "start": 128.4754,
      "duration": 0.1178,
      "velocity": 112,
      "chip": "ym2612"
    },
    {
      "channel": 3,
      "note": 63,
      "start": 128.4772,
      "duration": 0.0501,
      "velocity": 120,
      "chip": "ym2612"
    },
    {
      "channel": 4,
      "note": 65,
      "start": 128.4836,
      "duration": 0.084,
      "velocity": 112,
      "chip": "ym2612"
    },
    {
      "channel": 0,
      "note": 61,
      "start": 128.6271,
      "duration": 0.1178,
      "velocity": 108,
      "chip": "ym2612"
    },
    {
      "channel": 1,
      "note": 40,
      "start": 128.6283,
      "duration": 0.3023,
      "velocity": 127,
      "chip": "ym2612"
    },
    {
      "channel": 2,
      "note": 58,
      "start": 128.6292,
      "duration": 0.3028,
      "velocity": 110,
      "chip": "ym2612"
    },
    {
      "channel": 3,
      "note": 49,
      "start": 128.6299,
      "duration": 0.0492,
      "velocity": 120,
      "chip": "ym2612"
    },
    {
      "channel": 4,
      "note": 65,
      "start": 128.6353,
      "duration": 0.0841,
      "velocity": 112,
      "chip": "ym2612"
    },
    {
      "channel": 5,
      "note": 7,
      "start": 128.6361,
      "duration": 2.4264,
      "velocity": 1,
      "chip": "ym2612"
    },
    {
      "channel": 0,
      "note": 73,
      "start": 128.7787,
      "duration": 0.1178,
      "velocity": 108,
      "chip": "ym2612"
    },
    {
      "channel": 3,
      "note": 61,
      "start": 128.7806,
      "duration": 0.0501,
      "velocity": 120,
      "chip": "ym2612"
    },
    {
      "channel": 4,
      "note": 65,
      "start": 128.787,
      "duration": 0.084,
      "velocity": 112,
      "chip": "ym2612"
    },
    {
      "channel": 0,
      "note": 73,
      "start": 128.9305,
      "duration": 0.1178,
      "velocity": 112,
      "chip": "ym2612"
    },
    {
      "channel": 1,
      "note": 41,
      "start": 128.9317,
      "duration": 0.3023,
      "velocity": 123,
      "chip": "ym2612"
    },
    {
      "channel": 2,
      "note": 60,
      "start": 128.9326,
      "duration": 0.1502,
      "velocity": 110,
      "chip": "ym2612"
    },
    {
      "channel": 3,
      "note": 49,
      "start": 128.9332,
      "duration": 0.0492,
      "velocity": 120,
      "chip": "ym2612"
    },
    {
      "channel": 4,
      "note": 65,
      "start": 128.9387,
      "duration": 0.0841,
      "velocity": 112,
      "chip": "ym2612"
    },
    {
      "channel": 0,
      "note": 61,
      "start": 129.0821,
      "duration": 0.1178,
      "velocity": 109,
      "chip": "ym2612"
    },
    {
      "channel": 2,
      "note": 56,
      "start": 129.0834,
      "duration": 1.8196,
      "velocity": 110,
      "chip": "ym2612"
    },
    {
      "channel": 3,
      "note": 49,
      "start": 129.0841,
      "duration": 0.0499,
      "velocity": 120,
      "chip": "ym2612"
    },
    {
      "channel": 4,
      "note": 65,
      "start": 129.0904,
      "duration": 0.084,
      "velocity": 112,
      "chip": "ym2612"
    },
    {
      "channel": 0,
      "note": 73,
      "start": 129.2338,
      "duration": 0.1177,
      "velocity": 108,
      "chip": "ym2612"
    },
    {
      "channel": 1,
      "note": 40,
      "start": 129.2351,
      "duration": 0.6057,
      "velocity": 127,
      "chip": "ym2612"
    },
    {
      "channel": 3,
      "note": 61,
      "start": 129.2364,
      "duration": 0.0494,
      "velocity": 120,
      "chip": "ym2612"
    },
    {
      "channel": 4,
      "note": 65,
      "start": 129.242,
      "duration": 0.084,
      "velocity": 112,
      "chip": "ym2612"
    },
    {
      "channel": 0,
      "note": 61,
      "start": 129.3855,
      "duration": 0.1177,
      "velocity": 110,
      "chip": "ym2612"
    },
    {
      "channel": 3,
      "note": 49,
      "start": 129.3873,
      "duration": 0.0501,
      "velocity": 120,
      "chip": "ym2612"
    },
    {
      "channel": 4,
      "note": 65,
      "start": 129.3937,
      "duration": 0.084,
      "velocity": 112,
      "chip": "ym2612"
    },
    {
      "channel": 0,
      "note": 61,
      "start": 129.5371,
      "duration": 0.1178,
      "velocity": 109,
      "chip": "ym2612"
    },
    {
      "channel": 3,
      "note": 49,
      "start": 129.539,
      "duration": 0.0501,
      "velocity": 120,
      "chip": "ym2612"
    },
    {
      "channel": 4,
      "note": 65,
      "start": 129.5454,
      "duration": 0.084,
      "velocity": 112,
      "chip": "ym2612"
    },
    {
      "channel": 0,
      "note": 73,
      "start": 129.6888,
      "duration": 0.1178,
      "velocity": 111,
      "chip": "ym2612"
    },
    {
      "channel": 3,
      "note": 61,
      "start": 129.6907,
      "duration": 0.0502,
      "velocity": 120,
      "chip": "ym2612"
    },
    {
      "channel": 4,
      "note": 65,
      "start": 129.6971,
      "duration": 0.084,
      "velocity": 112,
      "chip": "ym2612"
    },
    {
      "channel": 0,
      "note": 73,
      "start": 129.8406,
      "duration": 0.1178,
      "velocity": 112,
      "chip": "ym2612"
    },
    {
      "channel": 1,
      "note": 40,
      "start": 129.8413,
      "duration": 0.3028,
      "velocity": 127,
      "chip": "ym2612"
    },
    {
      "channel": 3,
      "note": 49,
      "start": 129.8427,
      "duration": 0.0498,
      "velocity": 120,
      "chip": "ym2612"
    },
    {
      "channel": 4,
      "note": 65,
      "start": 129.8488,
      "duration": 0.084,
      "velocity": 112,
      "chip": "ym2612"
    },
    {
      "channel": 0,
      "note": 61,
      "start": 129.9922,
      "duration": 0.1178,
      "velocity": 109,
      "chip": "ym2612"
    },
    {
      "channel": 3,
      "note": 61,
      "start": 129.994,
      "duration": 0.0502,
      "velocity": 120,
      "chip": "ym2612"
    },
    {
      "channel": 4,
      "note": 65,
      "start": 130.0004,
      "duration": 0.0841,
      "velocity": 112,
      "chip": "ym2612"
    },
    {
      "channel": 0,
      "note": 73,
      "start": 130.1439,
      "duration": 0.1178,
      "velocity": 108,
      "chip": "ym2612"
    },
    {
      "channel": 1,
      "note": 41,
      "start": 130.1452,
      "duration": 0.3022,
      "velocity": 123,
      "chip": "ym2612"
    },
    {
      "channel": 3,
      "note": 49,
      "start": 130.1466,
      "duration": 0.0493,
      "velocity": 120,
      "chip": "ym2612"
    },
    {
      "channel": 4,
      "note": 65,
      "start": 130.1522,
      "duration": 0.084,
      "velocity": 112,
      "chip": "ym2612"
    },
    {
      "channel": 0,
      "note": 61,
      "start": 130.2956,
      "duration": 0.1177,
      "velocity": 112,
      "chip": "ym2612"
    },
    {
      "channel": 3,
      "note": 49,
      "start": 130.2974,
      "duration": 0.0502,
      "velocity": 120,
      "chip": "ym2612"
    },
    {
      "channel": 4,
      "note": 65,
      "start": 130.3038,
      "duration": 0.084,
      "velocity": 112,
      "chip": "ym2612"
    },
    {
      "channel": 0,
      "note": 61,
      "start": 130.4473,
      "duration": 0.1177,
      "velocity": 111,
      "chip": "ym2612"
    },
    {
      "channel": 1,
      "note": 40,
      "start": 130.4485,
      "duration": 0.6056,
      "velocity": 127,
      "chip": "ym2612"
    },
    {
      "channel": 3,
      "note": 61,
      "start": 130.4499,
      "duration": 0.0493,
      "velocity": 120,
      "chip": "ym2612"
    },
    {
      "channel": 4,
      "note": 65,
      "start": 130.4555,
      "duration": 0.084,
      "velocity": 112,
      "chip": "ym2612"
    },
    {
      "channel": 0,
      "note": 73,
      "start": 130.599,
      "duration": 0.1178,
      "velocity": 109,
      "chip": "ym2612"
    },
    {
      "channel": 3,
      "note": 49,
      "start": 130.6007,
      "duration": 0.0501,
      "velocity": 120,
      "chip": "ym2612"
    },
    {
      "channel": 4,
      "note": 65,
      "start": 130.6072,
      "duration": 0.084,
      "velocity": 112,
      "chip": "ym2612"
    },
    {
      "channel": 0,
      "note": 61,
      "start": 130.7506,
      "duration": 0.1178,
      "velocity": 111,
      "chip": "ym2612"
    },
    {
      "channel": 3,
      "note": 49,
      "start": 130.7524,
      "duration": 0.0502,
      "velocity": 120,
      "chip": "ym2612"
    },
    {
      "channel": 4,
      "note": 65,
      "start": 130.7588,
      "duration": 0.0841,
      "velocity": 112,
      "chip": "ym2612"
    },
    {
      "channel": 0,
      "note": 61,
      "start": 130.9023,
      "duration": 0.1178,
      "velocity": 112,
      "chip": "ym2612"
    },
    {
      "channel": 2,
      "note": 53,
      "start": 130.9035,
      "duration": 0.1513,
      "velocity": 110,
      "chip": "ym2612"
    },
    {
      "channel": 3,
      "note": 61,
      "start": 130.9043,
      "duration": 0.05,
      "velocity": 120,
      "chip": "ym2612"
    },
    {
      "channel": 4,
      "note": 65,
      "start": 130.9105,
      "duration": 0.084,
      "velocity": 112,
      "chip": "ym2612"
    },
    {
      "channel": 0,
      "note": 63,
      "start": 131.054,
      "duration": 0.1178,
      "velocity": 108,
      "chip": "ym2612"
    },
    {
      "channel": 1,
      "note": 40,
      "start": 131.0547,
      "duration": 0.3029,
      "velocity": 127,
      "chip": "ym2612"
    },
    {
      "channel": 2,
      "note": 55,
      "start": 131.0554,
      "duration": 0.1509,
      "velocity": 110,
      "chip": "ym2612"
    },
    {
      "channel": 3,
      "note": 51,
      "start": 131.0562,
      "duration": 0.0498,
      "velocity": 120,
      "chip": "ym2612"
    },
    {
      "channel": 4,
      "note": 65,
      "start": 131.0622,
      "duration": 0.0841,
      "velocity": 112,
      "chip": "ym2612"
    },
    {
      "channel": 5,
      "note": 7,
      "start": 131.0629,
      "duration": 2.4264,
      "velocity": 1,
      "chip": "ym2612"
    },
    {
      "channel": 0,
      "note": 75,
      "start": 131.2056,
      "duration": 0.1178,
      "velocity": 108,
      "chip": "ym2612"
    },
    {
      "channel": 2,
      "note": 53,
      "start": 131.207,
      "duration": 0.1519,
      "velocity": 110,
      "chip": "ym2612"
    },
    {
      "channel": 3,
      "note": 63,
      "start": 131.2077,
      "duration": 0.05,
      "velocity": 120,
      "chip": "ym2612"
    },
    {
      "channel": 4,
      "note": 65,
      "start": 131.2139,
      "duration": 0.084,
      "velocity": 112,
      "chip": "ym2612"
    },
    {
      "channel": 0,
      "note": 75,
      "start": 131.3574,
      "duration": 0.1177,
      "velocity": 112,
      "chip": "ym2612"
    },
    {
      "channel": 1,
      "note": 41,
      "start": 131.3587,
      "duration": 0.3022,
      "velocity": 123,
      "chip": "ym2612"
    },
    {
      "channel": 2,
      "note": 55,
      "start": 131.3595,
      "duration": 0.1502,
      "velocity": 110,
      "chip": "ym2612"
    },
    {
      "channel": 3,
      "note": 51,
      "start": 131.3602,
      "duration": 0.0491,
      "velocity": 120,
      "chip": "ym2612"
    },
    {
      "channel": 4,
      "note": 65,
      "start": 131.3656,
      "duration": 0.084,
      "velocity": 112,
      "chip": "ym2612"
    },
    {
      "channel": 0,
      "note": 63,
      "start": 131.509,
      "duration": 0.1177,
      "velocity": 109,
      "chip": "ym2612"
    },
    {
      "channel": 2,
      "note": 53,
      "start": 131.5103,
      "duration": 0.1519,
      "velocity": 110,
      "chip": "ym2612"
    },
    {
      "channel": 3,
      "note": 51,
      "start": 131.511,
      "duration": 0.05,
      "velocity": 120,
      "chip": "ym2612"
    },
    {
      "channel": 4,
      "note": 65,
      "start": 131.5173,
      "duration": 0.084,
      "velocity": 112,
      "chip": "ym2612"
    },
    {
      "channel": 0,
      "note": 75,
      "start": 131.6607,
      "duration": 0.1178,
      "velocity": 108,
      "chip": "ym2612"
    },
    {
      "channel": 1,
      "note": 40,
      "start": 131.662,
      "duration": 0.3022,
      "velocity": 127,
      "chip": "ym2612"
    },
    {
      "channel": 2,
      "note": 55,
      "start": 131.6628,
      "duration": 0.3028,
      "velocity": 110,
      "chip": "ym2612"
    },
    {
      "channel": 3,
      "note": 63,
      "start": 131.6635,
      "duration": 0.0492,
      "velocity": 120,
      "chip": "ym2612"
    },
    {
      "channel": 4,
      "note": 65,
      "start": 131.6689,
      "duration": 0.084,
      "velocity": 112,
      "chip": "ym2612"
    },
    {
      "channel": 0,
      "note": 63,
      "start": 131.8124,
      "duration": 0.1178,
      "velocity": 110,
      "chip": "ym2612"
    },
    {
      "channel": 3,
      "note": 51,
      "start": 131.8142,
      "duration": 0.0501,
      "velocity": 120,
      "chip": "ym2612"
    },
    {
      "channel": 4,
      "note": 65,
      "start": 131.8206,
      "duration": 0.0841,
      "velocity": 112,
      "chip": "ym2612"
    },
    {
      "channel": 0,
      "note": 63,
      "start": 131.964,
      "duration": 0.1178,
      "velocity": 109,
      "chip": "ym2612"
    },
    {
      "channel": 1,
      "note": 41,
      "start": 131.9654,
      "duration": 0.3022,
      "velocity": 123,
      "chip": "ym2612"
    },
    {
      "channel": 2,
      "note": 56,
      "start": 131.9661,
      "duration": 0.1503,
      "velocity": 110,
      "chip": "ym2612"
    },
    {
      "channel": 3,
      "note": 51,
      "start": 131.9669,
      "duration": 0.0492,
      "velocity": 120,
      "chip": "ym2612"
    },
    {
      "channel": 4,
      "note": 65,
      "start": 131.9723,
      "duration": 0.084,
      "velocity": 112,
      "chip": "ym2612"
    },
    {
      "channel": 0,
      "note": 75,
      "start": 132.1158,
      "duration": 0.1178,
      "velocity": 111,
      "chip": "ym2612"
    },
    {
      "channel": 2,
      "note": 58,
      "start": 132.117,
      "duration": 0.4544,
      "velocity": 110,
      "chip": "ym2612"
    },
    {
      "channel": 3,
      "note": 63,
      "start": 132.1178,
      "duration": 0.0499,
      "velocity": 120,
      "chip": "ym2612"
    },
    {
      "channel": 4,
      "note": 65,
      "start": 132.124,
      "duration": 0.084,
      "velocity": 112,
      "chip": "ym2612"
    },
    {
      "channel": 0,
      "note": 75,
      "start": 132.2674,
      "duration": 0.1178,
      "velocity": 112,
      "chip": "ym2612"
    },
    {
      "channel": 1,
      "note": 40,
      "start": 132.2688,
      "duration": 0.6056,
      "velocity": 127,
      "chip": "ym2612"
    },
    {
      "channel": 3,
      "note": 51,
      "start": 132.2701,
      "duration": 0.0493,
      "velocity": 120,
      "chip": "ym2612"
    },
    {
      "channel": 4,
      "note": 65,
      "start": 132.2757,
      "duration": 0.084,
      "velocity": 112,
      "chip": "ym2612"
    },
    {
      "channel": 0,
      "note": 63,
      "start": 132.4191,
      "duration": 0.1177,
      "velocity": 109,
      "chip": "ym2612"
    },
    {
      "channel": 3,
      "note": 63,
      "start": 132.4209,
      "duration": 0.0501,
      "velocity": 120,
      "chip": "ym2612"
    },
    {
      "channel": 4,
      "note": 65,
      "start": 132.4273,
      "duration": 0.084,
      "velocity": 112,
      "chip": "ym2612"
    },
    {
      "channel": 0,
      "note": 75,
      "start": 132.5708,
      "duration": 0.1177,
      "velocity": 108,
      "chip": "ym2612"
    },
    {
      "channel": 2,
      "note": 56,
      "start": 132.5721,
      "duration": 0.4544,
      "velocity": 110,
      "chip": "ym2612"
    },
    {
      "channel": 3,
      "note": 51,
      "start": 132.5728,
      "duration": 0.05,
      "velocity": 120,
      "chip": "ym2612"
    },
    {
      "channel": 4,
      "note": 65,
      "start": 132.579,
      "duration": 0.084,
      "velocity": 112,
      "chip": "ym2612"
    },
    {
      "channel": 0,
      "note": 63,
      "start": 132.7224,
      "duration": 0.1179,
      "velocity": 112,
      "chip": "ym2612"
    },
    {
      "channel": 3,
      "note": 51,
      "start": 132.7244,
      "duration": 0.0501,
      "velocity": 120,
      "chip": "ym2612"
    },
    {
      "channel": 4,
      "note": 65,
      "start": 132.7307,
      "duration": 0.084,
      "velocity": 112,
      "chip": "ym2612"
    },
    {
      "channel": 0,
      "note": 63,
      "start": 132.8742,
      "duration": 0.1177,
      "velocity": 111,
      "chip": "ym2612"
    },
    {
      "channel": 1,
      "note": 40,
      "start": 132.8749,
      "duration": 0.3028,
      "velocity": 127,
      "chip": "ym2612"
    },
    {
      "channel": 3,
      "note": 63,
      "start": 132.8763,
      "duration": 0.0499,
      "velocity": 120,
      "chip": "ym2612"
    },
    {
      "channel": 4,
      "note": 65,
      "start": 132.8824,
      "duration": 0.0841,
      "velocity": 112,
      "chip": "ym2612"
    },
    {
      "channel": 0,
      "note": 75,
      "start": 133.0258,
      "duration": 0.1178,
      "velocity": 109,
      "chip": "ym2612"
    },
    {
      "channel": 2,
      "note": 55,
      "start": 133.0271,
      "duration": 0.4553,
      "velocity": 110,
      "chip": "ym2612"
    },
    {
      "channel": 3,
      "note": 51,
      "start": 133.0278,
      "duration": 0.05,
      "velocity": 120,
      "chip": "ym2612"
    },
    {
      "channel": 4,
      "note": 65,
      "start": 133.0341,
      "duration": 0.084,
      "velocity": 112,
      "chip": "ym2612"
    },
    {
      "channel": 0,
      "note": 63,
      "start": 133.1775,
      "duration": 0.1178,
      "velocity": 111,
      "chip": "ym2612"
    },
    {
      "channel": 1,
      "note": 41,
      "start": 133.1788,
      "duration": 0.3023,
      "velocity": 123,
      "chip": "ym2612"
    },
    {
      "channel": 3,
      "note": 51,
      "start": 133.1801,
      "duration": 0.0494,
      "velocity": 120,
      "chip": "ym2612"
    },
    {
      "channel": 4,
      "note": 65,
      "start": 133.1857,
      "duration": 0.084,
      "velocity": 112,
      "chip": "ym2612"
    },
    {
      "channel": 0,
      "note": 63,
      "start": 133.3292,
      "duration": 0.1178,
      "velocity": 112,
      "chip": "ym2612"
    },
    {
      "channel": 3,
      "note": 63,
      "start": 133.331,
      "duration": 0.0501,
      "velocity": 120,
      "chip": "ym2612"
    },
    {
      "channel": 4,
      "note": 65,
      "start": 133.3375,
      "duration": 0.084,
      "velocity": 112,
      "chip": "ym2612"
    },
    {
      "channel": 0,
      "note": 61,
      "start": 133.4809,
      "duration": 0.1177,
      "velocity": 108,
      "chip": "ym2612"
    },
    {
      "channel": 1,
      "note": 40,
      "start": 133.4822,
      "duration": 0.3023,
      "velocity": 127,
      "chip": "ym2612"
    },
    {
      "channel": 2,
      "note": 55,
      "start": 133.4829,
      "duration": 0.3028,
      "velocity": 110,
      "chip": "ym2612"
    },
    {
      "channel": 3,
      "note": 49,
      "start": 133.4837,
      "duration": 0.0492,
      "velocity": 120,
      "chip": "ym2612"
    },
    {
      "channel": 4,
      "note": 65,
      "start": 133.4891,
      "duration": 0.084,
      "velocity": 112,
      "chip": "ym2612"
    },
    {
      "channel": 5,
      "note": 7,
      "start": 133.4898,
      "duration": 2.4264,
      "velocity": 1,
      "chip": "ym2612"
    },
    {
      "channel": 0,
      "note": 73,
      "start": 133.6326,
      "duration": 0.1177,
      "velocity": 108,
      "chip": "ym2612"
    },
    {
      "channel": 3,
      "note": 61,
      "start": 133.6344,
      "duration": 0.0501,
      "velocity": 120,
      "chip": "ym2612"
    },
    {
      "channel": 4,
      "note": 65,
      "start": 133.6408,
      "duration": 0.084,
      "velocity": 112,
      "chip": "ym2612"
    },
    {
      "channel": 0,
      "note": 73,
      "start": 133.7843,
      "duration": 0.1178,
      "velocity": 112,
      "chip": "ym2612"
    },
    {
      "channel": 1,
      "note": 41,
      "start": 133.7855,
      "duration": 0.3022,
      "velocity": 123,
      "chip": "ym2612"
    },
    {
      "channel": 2,
      "note": 56,
      "start": 133.7863,
      "duration": 0.1503,
      "velocity": 110,
      "chip": "ym2612"
    },
    {
      "channel": 3,
      "note": 49,
      "start": 133.7871,
      "duration": 0.0492,
      "velocity": 120,
      "chip": "ym2612"
    },
    {
      "channel": 4,
      "note": 65,
      "start": 133.7925,
      "duration": 0.084,
      "velocity": 112,
      "chip": "ym2612"
    },
    {
      "channel": 0,
      "note": 61,
      "start": 133.9359,
      "duration": 0.1178,
      "velocity": 109,
      "chip": "ym2612"
    },
    {
      "channel": 2,
      "note": 53,
      "start": 133.9372,
      "duration": 1.8197,
      "velocity": 110,
      "chip": "ym2612"
    },
    {
      "channel": 3,
      "note": 49,
      "start": 133.938,
      "duration": 0.0499,
      "velocity": 120,
      "chip": "ym2612"
    },
    {
      "channel": 4,
      "note": 65,
      "start": 133.9441,
      "duration": 0.0841,
      "velocity": 112,
      "chip": "ym2612"
    },
    {
      "channel": 0,
      "note": 73,
      "start": 134.0876,
      "duration": 0.1178,
      "velocity": 108,
      "chip": "ym2612"
    },
    {
      "channel": 1,
      "note": 40,
      "start": 134.0889,
      "duration": 0.6057,
      "velocity": 127,
      "chip": "ym2612"
    },
    {
      "channel": 3,
      "note": 61,
      "start": 134.0903,
      "duration": 0.0492,
      "velocity": 120,
      "chip": "ym2612"
    },
    {
      "channel": 4,
      "note": 65,
      "start": 134.0959,
      "duration": 0.084,
      "velocity": 112,
      "chip": "ym2612"
    },
    {
      "channel": 0,
      "note": 61,
      "start": 134.2393,
      "duration": 0.1178,
      "velocity": 110,
      "chip": "ym2612"
    },
    {
      "channel": 3,
      "note": 49,
      "start": 134.2411,
      "duration": 0.0502,
      "velocity": 120,
      "chip": "ym2612"
    },
    {
      "channel": 4,
      "note": 65,
      "start": 134.2475,
      "duration": 0.0841,
      "velocity": 112,
      "chip": "ym2612"
    },
    {
      "channel": 0,
      "note": 61,
      "start": 134.391,
      "duration": 0.1177,
      "velocity": 109,
      "chip": "ym2612"
    },
    {
      "channel": 3,
      "note": 49,
      "start": 134.3928,
      "duration": 0.0501,
      "velocity": 120,
      "chip": "ym2612"
    },
    {
      "channel": 4,
      "note": 65,
      "start": 134.3992,
      "duration": 0.084,
      "velocity": 112,
      "chip": "ym2612"
    },
    {
      "channel": 0,
      "note": 73,
      "start": 134.5427,
      "duration": 0.1177,
      "velocity": 111,
      "chip": "ym2612"
    },
    {
      "channel": 3,
      "note": 61,
      "start": 134.5444,
      "duration": 0.0501,
      "velocity": 120,
      "chip": "ym2612"
    },
    {
      "channel": 4,
      "note": 65,
      "start": 134.5509,
      "duration": 0.084,
      "velocity": 112,
      "chip": "ym2612"
    },
    {
      "channel": 0,
      "note": 73,
      "start": 134.6943,
      "duration": 0.1177,
      "velocity": 112,
      "chip": "ym2612"
    },
    {
      "channel": 1,
      "note": 40,
      "start": 134.695,
      "duration": 0.3029,
      "velocity": 127,
      "chip": "ym2612"
    },
    {
      "channel": 3,
      "note": 49,
      "start": 134.6963,
      "duration": 0.0499,
      "velocity": 120,
      "chip": "ym2612"
    },
    {
      "channel": 4,
      "note": 65,
      "start": 134.7026,
      "duration": 0.084,
      "velocity": 112,
      "chip": "ym2612"
    },
    {
      "channel": 0,
      "note": 61,
      "start": 134.846,
      "duration": 0.1178,
      "velocity": 109,
      "chip": "ym2612"
    },
    {
      "channel": 3,
      "note": 61,
      "start": 134.8478,
      "duration": 0.0501,
      "velocity": 120,
      "chip": "ym2612"
    },
    {
      "channel": 4,
      "note": 65,
      "start": 134.8542,
      "duration": 0.084,
      "velocity": 112,
      "chip": "ym2612"
    },
    {
      "channel": 0,
      "note": 73,
      "start": 134.9977,
      "duration": 0.1178,
      "velocity": 108,
      "chip": "ym2612"
    },
    {
      "channel": 1,
      "note": 41,
      "start": 134.999,
      "duration": 0.3023,
      "velocity": 123,
      "chip": "ym2612"
    },
    {
      "channel": 3,
      "note": 49,
      "start": 135.0003,
      "duration": 0.0494,
      "velocity": 120,
      "chip": "ym2612"
    },
    {
      "channel": 4,
      "note": 65,
      "start": 135.0059,
      "duration": 0.0841,
      "velocity": 112,
      "chip": "ym2612"
    },
    {
      "channel": 0,
      "note": 61,
      "start": 135.1493,
      "duration": 0.1178,
      "velocity": 112,
      "chip": "ym2612"
    },
    {
      "channel": 3,
      "note": 49,
      "start": 135.1512,
      "duration": 0.0501,
      "velocity": 120,
      "chip": "ym2612"
    },
    {
      "channel": 4,
      "note": 65,
      "start": 135.1576,
      "duration": 0.084,
      "velocity": 112,
      "chip": "ym2612"
    },
    {
      "channel": 0,
      "note": 61,
      "start": 135.3011,
      "duration": 0.1178,
      "velocity": 111,
      "chip": "ym2612"
    },
    {
      "channel": 1,
      "note": 40,
      "start": 135.3023,
      "duration": 0.6057,
      "velocity": 127,
      "chip": "ym2612"
    },
    {
      "channel": 3,
      "note": 61,
      "start": 135.3037,
      "duration": 0.0494,
      "velocity": 120,
      "chip": "ym2612"
    },
    {
      "channel": 4,
      "note": 65,
      "start": 135.3093,
      "duration": 0.084,
      "velocity": 112,
      "chip": "ym2612"
    },
    {
      "channel": 0,
      "note": 73,
      "start": 135.4527,
      "duration": 0.1178,
      "velocity": 109,
      "chip": "ym2612"
    },
    {
      "channel": 3,
      "note": 49,
      "start": 135.4546,
      "duration": 0.0501,
      "velocity": 120,
      "chip": "ym2612"
    },
    {
      "channel": 4,
      "note": 65,
      "start": 135.461,
      "duration": 0.084,
      "velocity": 112,
      "chip": "ym2612"
    },
    {
      "channel": 0,
      "note": 61,
      "start": 135.6044,
      "duration": 0.1177,
      "velocity": 111,
      "chip": "ym2612"
    },
    {
      "channel": 3,
      "note": 49,
      "start": 135.6062,
      "duration": 0.0501,
      "velocity": 120,
      "chip": "ym2612"
    },
    {
      "channel": 4,
      "note": 65,
      "start": 135.6126,
      "duration": 0.084,
      "velocity": 112,
      "chip": "ym2612"
    },
    {
      "channel": 0,
      "note": 61,
      "start": 135.7561,
      "duration": 0.1178,
      "velocity": 112,
      "chip": "ym2612"
    },
    {
      "channel": 2,
      "note": 53,
      "start": 135.7574,
      "duration": 0.1513,
      "velocity": 110,
      "chip": "ym2612"
    },
    {
      "channel": 3,
      "note": 61,
      "start": 135.7582,
      "duration": 0.0499,
      "velocity": 120,
      "chip": "ym2612"
    },
    {
      "channel": 4,
      "note": 65,
      "start": 135.7644,
      "duration": 0.084,
      "velocity": 112,
      "chip": "ym2612"
    },
    {
      "channel": 0,
      "note": 60,
      "start": 135.9077,
      "duration": 0.1178,
      "velocity": 108,
      "chip": "ym2612"
    },
    {
      "channel": 1,
      "note": 40,
      "start": 135.9085,
      "duration": 0.3028,
      "velocity": 127,
      "chip": "ym2612"
    },
    {
      "channel": 2,
      "note": 53,
      "start": 135.9093,
      "duration": 0.3034,
      "velocity": 110,
      "chip": "ym2612"
    },
    {
      "channel": 3,
      "note": 48,
      "start": 135.91,
      "duration": 0.0498,
      "velocity": 120,
      "chip": "ym2612"
    },
    {
      "channel": 4,
      "note": 65,
      "start": 135.916,
      "duration": 0.084,
      "velocity": 112,
      "chip": "ym2612"
    },
    {
      "channel": 5,
      "note": 7,
      "start": 135.9167,
      "duration": 2.4264,
      "velocity": 1,
      "chip": "ym2612"
    },
    {
      "channel": 0,
      "note": 72,
      "start": 136.0595,
      "duration": 0.1178,
      "velocity": 108,
      "chip": "ym2612"
    },
    {
      "channel": 3,
      "note": 60,
      "start": 136.0613,
      "duration": 0.0501,
      "velocity": 120,
      "chip": "ym2612"
    },
    {
      "channel": 4,
      "note": 65,
      "start": 136.0677,
      "duration": 0.0841,
      "velocity": 112,
      "chip": "ym2612"
    },
    {
      "channel": 0,
      "note": 72,
      "start": 136.2111,
      "duration": 0.1178,
      "velocity": 112,
      "chip": "ym2612"
    },
    {
      "channel": 1,
      "note": 41,
      "start": 136.2124,
      "duration": 0.3022,
      "velocity": 123,
      "chip": "ym2612"
    },
    {
      "channel": 2,
      "note": 55,
      "start": 136.2132,
      "duration": 0.1503,
      "velocity": 110,
      "chip": "ym2612"
    },
    {
      "channel": 3,
      "note": 48,
      "start": 136.214,
      "duration": 0.0492,
      "velocity": 120,
      "chip": "ym2612"
    },
    {
      "channel": 4,
      "note": 65,
      "start": 136.2194,
      "duration": 0.084,
      "velocity": 112,
      "chip": "ym2612"
    },
    {
      "channel": 0,
      "note": 60,
      "start": 136.3628,
      "duration": 0.1178,
      "velocity": 109,
      "chip": "ym2612"
    },
    {
      "channel": 2,
      "note": 52,
      "start": 136.3641,
      "duration": 1.0612,
      "velocity": 110,
      "chip": "ym2612"
    },
    {
      "channel": 3,
      "note": 48,
      "start": 136.3649,
      "duration": 0.0499,
      "velocity": 120,
      "chip": "ym2612"
    },
    {
      "channel": 4,
      "note": 65,
      "start": 136.371,
      "duration": 0.0841,
      "velocity": 112,
      "chip": "ym2612"
    },
    {
      "channel": 0,
      "note": 72,
      "start": 136.5145,
      "duration": 0.1177,
      "velocity": 108,
      "chip": "ym2612"
    },
    {
      "channel": 1,
      "note": 40,
      "start": 136.5158,
      "duration": 0.3022,
      "velocity": 127,
      "chip": "ym2612"
    },
    {
      "channel": 3,
      "note": 60,
      "start": 136.5172,
      "duration": 0.0493,
      "velocity": 120,
      "chip": "ym2612"
    },
    {
      "channel": 4,
      "note": 65,
      "start": 136.5228,
      "duration": 0.0841,
      "velocity": 112,
      "chip": "ym2612"
    },
    {
      "channel": 0,
      "note": 60,
      "start": 136.6662,
      "duration": 0.1177,
      "velocity": 110,
      "chip": "ym2612"
    },
    {
      "channel": 3,
      "note": 48,
      "start": 136.668,
      "duration": 0.0501,
      "velocity": 120,
      "chip": "ym2612"
    },
    {
      "channel": 4,
      "note": 65,
      "start": 136.6744,
      "duration": 0.084,
      "velocity": 112,
      "chip": "ym2612"
    },
    {
      "channel": 0,
      "note": 60,
      "start": 136.8178,
      "duration": 0.1178,
      "velocity": 109,
      "chip": "ym2612"
    },
    {
      "channel": 1,
      "note": 41,
      "start": 136.8191,
      "duration": 0.3023,
      "velocity": 123,
      "chip": "ym2612"
    },
    {
      "channel": 3,
      "note": 48,
      "start": 136.8205,
      "duration": 0.0493,
      "velocity": 120,
      "chip": "ym2612"
    },
    {
      "channel": 4,
      "note": 65,
      "start": 136.8261,
      "duration": 0.084,
      "velocity": 112,
      "chip": "ym2612"
    },
    {
      "channel": 0,
      "note": 72,
      "start": 136.9695,
      "duration": 0.1178,
      "velocity": 111,
      "chip": "ym2612"
    },
    {
      "channel": 3,
      "note": 60,
      "start": 136.9714,
      "duration": 0.0501,
      "velocity": 120,
      "chip": "ym2612"
    },
    {
      "channel": 4,
      "note": 65,
      "start": 136.9778,
      "duration": 0.084,
      "velocity": 112,
      "chip": "ym2612"
    },
    {
      "channel": 0,
      "note": 72,
      "start": 137.1212,
      "duration": 0.1178,
      "velocity": 112,
      "chip": "ym2612"
    },
    {
      "channel": 1,
      "note": 40,
      "start": 137.1225,
      "duration": 0.6057,
      "velocity": 127,
      "chip": "ym2612"
    },
    {
      "channel": 3,
      "note": 48,
      "start": 137.1239,
      "duration": 0.0493,
      "velocity": 120,
      "chip": "ym2612"
    },
    {
      "channel": 4,
      "note": 65,
      "start": 137.1294,
      "duration": 0.0841,
      "velocity": 112,
      "chip": "ym2612"
    },
    {
      "channel": 0,
      "note": 60,
      "start": 137.2729,
      "duration": 0.1178,
      "velocity": 109,
      "chip": "ym2612"
    },
    {
      "channel": 3,
      "note": 60,
      "start": 137.2748,
      "duration": 0.0501,
      "velocity": 120,
      "chip": "ym2612"
    },
    {
      "channel": 4,
      "note": 65,
      "start": 137.2812,
      "duration": 0.084,
      "velocity": 112,
      "chip": "ym2612"
    },
    {
      "channel": 0,
      "note": 72,
      "start": 137.4246,
      "duration": 0.1178,
      "velocity": 108,
      "chip": "ym2612"
    },
    {
      "channel": 2,
      "note": 48,
      "start": 137.4259,
      "duration": 0.4544,
      "velocity": 110,
      "chip": "ym2612"
    },
    {
      "channel": 3,
      "note": 48,
      "start": 137.4266,
      "duration": 0.0499,
      "velocity": 120,
      "chip": "ym2612"
    },
    {
      "channel": 4,
      "note": 65,
      "start": 137.4328,
      "duration": 0.0841,
      "velocity": 112,
      "chip": "ym2612"
    },
    {
      "channel": 0,
      "note": 60,
      "start": 137.5763,
      "duration": 0.1177,
      "velocity": 112,
      "chip": "ym2612"
    },
    {
      "channel": 3,
      "note": 48,
      "start": 137.5781,
      "duration": 0.0501,
      "velocity": 120,
      "chip": "ym2612"
    },
    {
      "channel": 4,
      "note": 65,
      "start": 137.5845,
      "duration": 0.084,
      "velocity": 112,
      "chip": "ym2612"
    },
    {
      "channel": 0,
      "note": 60,
      "start": 137.728,
      "duration": 0.1177,
      "velocity": 111,
      "chip": "ym2612"
    },
    {
      "channel": 1,
      "note": 40,
      "start": 137.7287,
      "duration": 0.3028,
      "velocity": 127,
      "chip": "ym2612"
    },
    {
      "channel": 3,
      "note": 60,
      "start": 137.73,
      "duration": 0.0499,
      "velocity": 120,
      "chip": "ym2612"
    },
    {
      "channel": 4,
      "note": 65,
      "start": 137.7362,
      "duration": 0.084,
      "velocity": 112,
      "chip": "ym2612"
    },
    {
      "channel": 0,
      "note": 72,
      "start": 137.8796,
      "duration": 0.1178,
      "velocity": 109,
      "chip": "ym2612"
    },
    {
      "channel": 2,
      "note": 52,
      "start": 137.8809,
      "duration": 0.4553,
      "velocity": 110,
      "chip": "ym2612"
    },
    {
      "channel": 3,
      "note": 48,
      "start": 137.8817,
      "duration": 0.0499,
      "velocity": 120,
      "chip": "ym2612"
    },
    {
      "channel": 4,
      "note": 65,
      "start": 137.8879,
      "duration": 0.084,
      "velocity": 112,
      "chip": "ym2612"
    },
    {
      "channel": 0,
      "note": 60,
      "start": 138.0313,
      "duration": 0.1178,
      "velocity": 111,
      "chip": "ym2612"
    },
    {
      "channel": 1,
      "note": 41,
      "start": 138.0326,
      "duration": 0.3022,
      "velocity": 123,
      "chip": "ym2612"
    },
    {
      "channel": 3,
      "note": 48,
      "start": 138.0339,
      "duration": 0.0493,
      "velocity": 120,
      "chip": "ym2612"
    },
    {
      "channel": 4,
      "note": 65,
      "start": 138.0395,
      "duration": 0.0841,
      "velocity": 112,
      "chip": "ym2612"
    },
    {
      "channel": 0,
      "note": 60,
      "start": 138.183,
      "duration": 0.1178,
      "velocity": 112,
      "chip": "ym2612"
    },
    {
      "channel": 3,
      "note": 60,
      "start": 138.1848,
      "duration": 0.0502,
      "velocity": 120,
      "chip": "ym2612"
    },
    {
      "channel": 4,
      "note": 65,
      "start": 138.1912,
      "duration": 0.0841,
      "velocity": 112,
      "chip": "ym2612"
    },
    {
      "channel": 0,
      "note": 65,
      "start": 138.3346,
      "duration": 0.1178,
      "velocity": 108,
      "chip": "ym2612"
    },
    {
      "channel": 1,
      "note": 40,
      "start": 138.336,
      "duration": 0.3022,
      "velocity": 127,
      "chip": "ym2612"
    },
    {
      "channel": 2,
      "note": 52,
      "start": 138.3368,
      "duration": 2.4263,
      "velocity": 110,
      "chip": "ym2612"
    },
    {
      "channel": 3,
      "note": 53,
      "start": 138.3375,
      "duration": 0.0492,
      "velocity": 120,
      "chip": "ym2612"
    },
    {
      "channel": 4,
      "note": 65,
      "start": 138.3429,
      "duration": 0.084,
      "velocity": 112,
      "chip": "ym2612"
    },
    {
      "channel": 5,
      "note": 7,
      "start": 138.3436,
      "duration": 2.427,
      "velocity": 1,
      "chip": "ym2612"
    },
    {
      "channel": 0,
      "note": 77,
      "start": 138.4864,
      "duration": 0.1178,
      "velocity": 108,
      "chip": "ym2612"
    },
    {
      "channel": 3,
      "note": 65,
      "start": 138.4882,
      "duration": 0.0501,
      "velocity": 120,
      "chip": "ym2612"
    },
    {
      "channel": 4,
      "note": 65,
      "start": 138.4946,
      "duration": 0.0841,
      "velocity": 112,
      "chip": "ym2612"
    },
    {
      "channel": 0,
      "note": 77,
      "start": 138.638,
      "duration": 0.1177,
      "velocity": 112,
      "chip": "ym2612"
    },
    {
      "channel": 1,
      "note": 41,
      "start": 138.6393,
      "duration": 0.3023,
      "velocity": 123,
      "chip": "ym2612"
    },
    {
      "channel": 3,
      "note": 53,
      "start": 138.6407,
      "duration": 0.0493,
      "velocity": 120,
      "chip": "ym2612"
    },
    {
      "channel": 4,
      "note": 65,
      "start": 138.6463,
      "duration": 0.084,
      "velocity": 112,
      "chip": "ym2612"
    },
    {
      "channel": 0,
      "note": 65,
      "start": 138.7898,
      "duration": 0.1177,
      "velocity": 109,
      "chip": "ym2612"
    },
    {
      "channel": 3,
      "note": 53,
      "start": 138.7916,
      "duration": 0.0501,
      "velocity": 120,
      "chip": "ym2612"
    },
    {
      "channel": 4,
      "note": 65,
      "start": 138.7979,
      "duration": 0.084,
      "velocity": 112,
      "chip": "ym2612"
    },
    {
      "channel": 0,
      "note": 77,
      "start": 138.9414,
      "duration": 0.1178,
      "velocity": 108,
      "chip": "ym2612"
    },
    {
      "channel": 1,
      "note": 40,
      "start": 138.9427,
      "duration": 0.6056,
      "velocity": 127,
      "chip": "ym2612"
    },
    {
      "channel": 3,
      "note": 65,
      "start": 138.9441,
      "duration": 0.0493,
      "velocity": 120,
      "chip": "ym2612"
    },
    {
      "channel": 4,
      "note": 65,
      "start": 138.9497,
      "duration": 0.084,
      "velocity": 112,
      "chip": "ym2612"
    },
    {
      "channel": 0,
      "note": 65,
      "start": 139.093,
      "duration": 0.1178,
      "velocity": 110,
      "chip": "ym2612"
    },
    {
      "channel": 3,
      "note": 53,
      "start": 139.0949,
      "duration": 0.0501,
      "velocity": 120,
      "chip": "ym2612"
    },
    {
      "channel": 4,
      "note": 65,
      "start": 139.1013,
      "duration": 0.084,
      "velocity": 112,
      "chip": "ym2612"
    },
    {
      "channel": 0,
      "note": 65,
      "start": 139.2448,
      "duration": 0.1178,
      "velocity": 109,
      "chip": "ym2612"
    },
    {
      "channel": 3,
      "note": 53,
      "start": 139.2466,
      "duration": 0.0502,
      "velocity": 120,
      "chip": "ym2612"
    },
    {
      "channel": 4,
      "note": 65,
      "start": 139.253,
      "duration": 0.0841,
      "velocity": 112,
      "chip": "ym2612"
    },
    {
      "channel": 0,
      "note": 77,
      "start": 139.3964,
      "duration": 0.1178,
      "velocity": 111,
      "chip": "ym2612"
    },
    {
      "channel": 3,
      "note": 65,
      "start": 139.3983,
      "duration": 0.0501,
      "velocity": 120,
      "chip": "ym2612"
    },
    {
      "channel": 4,
      "note": 65,
      "start": 139.4047,
      "duration": 0.084,
      "velocity": 112,
      "chip": "ym2612"
    },
    {
      "channel": 0,
      "note": 77,
      "start": 139.5481,
      "duration": 0.1178,
      "velocity": 112,
      "chip": "ym2612"
    },
    {
      "channel": 1,
      "note": 40,
      "start": 139.5488,
      "duration": 0.3029,
      "velocity": 127,
      "chip": "ym2612"
    },
    {
      "channel": 3,
      "note": 53,
      "start": 139.5502,
      "duration": 0.0499,
      "velocity": 120,
      "chip": "ym2612"
    },
    {
      "channel": 4,
      "note": 65,
      "start": 139.5563,
      "duration": 0.0841,
      "velocity": 112,
      "chip": "ym2612"
    },
    {
      "channel": 0,
      "note": 65,
      "start": 139.6998,
      "duration": 0.1177,
      "velocity": 109,
      "chip": "ym2612"
    },
    {
      "channel": 3,
      "note": 65,
      "start": 139.7016,
      "duration": 0.0501,
      "velocity": 120,
      "chip": "ym2612"
    },
    {
      "channel": 4,
      "note": 65,
      "start": 139.708,
      "duration": 0.084,
      "velocity": 112,
      "chip": "ym2612"
    },
    {
      "channel": 0,
      "note": 77,
      "start": 139.8515,
      "duration": 0.1177,
      "velocity": 108,
      "chip": "ym2612"
    },
    {
      "channel": 1,
      "note": 41,
      "start": 139.8528,
      "duration": 0.3022,
      "velocity": 123,
      "chip": "ym2612"
    },
    {
      "channel": 3,
      "note": 53,
      "start": 139.8541,
      "duration": 0.0493,
      "velocity": 120,
      "chip": "ym2612"
    },
    {
      "channel": 4,
      "note": 65,
      "start": 139.8597,
      "duration": 0.084,
      "velocity": 112,
      "chip": "ym2612"
    },
    {
      "channel": 0,
      "note": 65,
      "start": 140.0032,
      "duration": 0.1178,
      "velocity": 112,
      "chip": "ym2612"
    },
    {
      "channel": 3,
      "note": 53,
      "start": 140.005,
      "duration": 0.0501,
      "velocity": 120,
      "chip": "ym2612"
    },
    {
      "channel": 4,
      "note": 65,
      "start": 140.0114,
      "duration": 0.084,
      "velocity": 112,
      "chip": "ym2612"
    },
    {
      "channel": 0,
      "note": 65,
      "start": 140.1548,
      "duration": 0.1178,
      "velocity": 111,
      "chip": "ym2612"
    },
    {
      "channel": 1,
      "note": 40,
      "start": 140.1561,
      "duration": 0.6056,
      "velocity": 127,
      "chip": "ym2612"
    },
    {
      "channel": 3,
      "note": 65,
      "start": 140.1576,
      "duration": 0.0493,
      "velocity": 120,
      "chip": "ym2612"
    },
    {
      "channel": 4,
      "note": 65,
      "start": 140.1631,
      "duration": 0.084,
      "velocity": 112,
      "chip": "ym2612"
    },
    {
      "channel": 0,
      "note": 77,
      "start": 140.3065,
      "duration": 0.1178,
      "velocity": 109,
      "chip": "ym2612"
    },
    {
      "channel": 3,
      "note": 53,
      "start": 140.3084,
      "duration": 0.0502,
      "velocity": 120,
      "chip": "ym2612"
    },
    {
      "channel": 4,
      "note": 65,
      "start": 140.3147,
      "duration": 0.0841,
      "velocity": 112,
      "chip": "ym2612"
    },
    {
      "channel": 0,
      "note": 65,
      "start": 140.4582,
      "duration": 0.1178,
      "velocity": 111,
      "chip": "ym2612"
    },
    {
      "channel": 3,
      "note": 53,
      "start": 140.46,
      "duration": 0.0501,
      "velocity": 120,
      "chip": "ym2612"
    },
    {
      "channel": 4,
      "note": 65,
      "start": 140.4665,
      "duration": 0.084,
      "velocity": 112,
      "chip": "ym2612"
    },
    {
      "channel": 0,
      "note": 65,
      "start": 140.6099,
      "duration": 0.1178,
      "velocity": 112,
      "chip": "ym2612"
    },
    {
      "channel": 3,
      "note": 65,
      "start": 140.6117,
      "duration": 0.0502,
      "velocity": 120,
      "chip": "ym2612"
    },
    {
      "channel": 4,
      "note": 65,
      "start": 140.6181,
      "duration": 0.084,
      "velocity": 112,
      "chip": "ym2612"
    },
    {
      "channel": 0,
      "note": 65,
      "start": 140.7616,
      "duration": 0.1177,
      "velocity": 108,
      "chip": "ym2612"
    },
    {
      "channel": 1,
      "note": 65,
      "start": 140.7628,
      "duration": 0.0833,
      "velocity": 112,
      "chip": "ym2612"
    },
    {
      "channel": 2,
      "note": 53,
      "start": 140.7642,
      "duration": 0.0488,
      "velocity": 120,
      "chip": "ym2612"
    },
    {
      "channel": 3,
      "note": 7,
      "start": 140.7655,
      "duration": 2.4247,
      "velocity": 1,
      "chip": "ym2612"
    },
    {
      "channel": 4,
      "note": 7,
      "start": 140.7704,
      "duration": 2.4258,
      "velocity": 1,
      "chip": "ym2612"
    },
    {
      "channel": 5,
      "note": 7,
      "start": 140.7711,
      "duration": 2.4258,
      "velocity": 1,
      "chip": "ym2612"
    },
    {
      "channel": 0,
      "note": 77,
      "start": 140.9132,
      "duration": 0.1178,
      "velocity": 108,
      "chip": "ym2612"
    },
    {
      "channel": 1,
      "note": 65,
      "start": 140.9139,
      "duration": 0.0838,
      "velocity": 112,
      "chip": "ym2612"
    },
    {
      "channel": 2,
      "note": 65,
      "start": 140.9147,
      "duration": 0.0499,
      "velocity": 120,
      "chip": "ym2612"
    },
    {
      "channel": 0,
      "note": 77,
      "start": 141.0649,
      "duration": 0.1178,
      "velocity": 112,
      "chip": "ym2612"
    },
    {
      "channel": 1,
      "note": 65,
      "start": 141.0656,
      "duration": 0.0839,
      "velocity": 112,
      "chip": "ym2612"
    },
    {
      "channel": 2,
      "note": 53,
      "start": 141.0664,
      "duration": 0.0499,
      "velocity": 120,
      "chip": "ym2612"
    },
    {
      "channel": 0,
      "note": 65,
      "start": 141.2166,
      "duration": 0.1178,
      "velocity": 109,
      "chip": "ym2612"
    },
    {
      "channel": 1,
      "note": 65,
      "start": 141.2173,
      "duration": 0.0839,
      "velocity": 112,
      "chip": "ym2612"
    },
    {
      "channel": 2,
      "note": 53,
      "start": 141.218,
      "duration": 0.0499,
      "velocity": 120,
      "chip": "ym2612"
    },
    {
      "channel": 0,
      "note": 77,
      "start": 141.3683,
      "duration": 0.1178,
      "velocity": 108,
      "chip": "ym2612"
    },
    {
      "channel": 1,
      "note": 65,
      "start": 141.369,
      "duration": 0.0838,
      "velocity": 112,
      "chip": "ym2612"
    },
    {
      "channel": 2,
      "note": 65,
      "start": 141.3698,
      "duration": 0.0499,
      "velocity": 120,
      "chip": "ym2612"
    },
    {
      "channel": 0,
      "note": 65,
      "start": 141.52,
      "duration": 0.1178,
      "velocity": 110,
      "chip": "ym2612"
    },
    {
      "channel": 1,
      "note": 65,
      "start": 141.5207,
      "duration": 0.0838,
      "velocity": 112,
      "chip": "ym2612"
    },
    {
      "channel": 2,
      "note": 53,
      "start": 141.5214,
      "duration": 0.0499,
      "velocity": 120,
      "chip": "ym2612"
    },
    {
      "channel": 0,
      "note": 65,
      "start": 141.6717,
      "duration": 0.1178,
      "velocity": 109,
      "chip": "ym2612"
    },
    {
      "channel": 1,
      "note": 65,
      "start": 141.6724,
      "duration": 0.0838,
      "velocity": 112,
      "chip": "ym2612"
    },
    {
      "channel": 2,
      "note": 53,
      "start": 141.6731,
      "duration": 0.05,
      "velocity": 120,
      "chip": "ym2612"
    },
    {
      "channel": 0,
      "note": 77,
      "start": 141.8233,
      "duration": 0.1177,
      "velocity": 111,
      "chip": "ym2612"
    },
    {
      "channel": 1,
      "note": 65,
      "start": 141.8241,
      "duration": 0.0839,
      "velocity": 112,
      "chip": "ym2612"
    },
    {
      "channel": 2,
      "note": 65,
      "start": 141.8249,
      "duration": 0.0499,
      "velocity": 120,
      "chip": "ym2612"
    },
    {
      "channel": 0,
      "note": 77,
      "start": 141.975,
      "duration": 0.1178,
      "velocity": 112,
      "chip": "ym2612"
    },
    {
      "channel": 1,
      "note": 65,
      "start": 141.9757,
      "duration": 0.0838,
      "velocity": 112,
      "chip": "ym2612"
    },
    {
      "channel": 2,
      "note": 53,
      "start": 141.9764,
      "duration": 0.0499,
      "velocity": 120,
      "chip": "ym2612"
    },
    {
      "channel": 0,
      "note": 65,
      "start": 142.1267,
      "duration": 0.1178,
      "velocity": 109,
      "chip": "ym2612"
    },
    {
      "channel": 1,
      "note": 65,
      "start": 142.1274,
      "duration": 0.0839,
      "velocity": 112,
      "chip": "ym2612"
    },
    {
      "channel": 2,
      "note": 65,
      "start": 142.1282,
      "duration": 0.0499,
      "velocity": 120,
      "chip": "ym2612"
    },
    {
      "channel": 0,
      "note": 77,
      "start": 142.2783,
      "duration": 0.1178,
      "velocity": 108,
      "chip": "ym2612"
    },
    {
      "channel": 1,
      "note": 65,
      "start": 142.279,
      "duration": 0.0839,
      "velocity": 112,
      "chip": "ym2612"
    },
    {
      "channel": 2,
      "note": 53,
      "start": 142.2798,
      "duration": 0.0499,
      "velocity": 120,
      "chip": "ym2612"
    },
    {
      "channel": 0,
      "note": 65,
      "start": 142.4301,
      "duration": 0.1178,
      "velocity": 112,
      "chip": "ym2612"
    },
    {
      "channel": 1,
      "note": 65,
      "start": 142.4308,
      "duration": 0.0838,
      "velocity": 112,
      "chip": "ym2612"
    },
    {
      "channel": 2,
      "note": 53,
      "start": 142.4315,
      "duration": 0.0499,
      "velocity": 120,
      "chip": "ym2612"
    },
    {
      "channel": 0,
      "note": 65,
      "start": 142.5817,
      "duration": 0.1178,
      "velocity": 111,
      "chip": "ym2612"
    },
    {
      "channel": 1,
      "note": 65,
      "start": 142.5824,
      "duration": 0.0838,
      "velocity": 112,
      "chip": "ym2612"
    },
    {
      "channel": 2,
      "note": 65,
      "start": 142.5832,
      "duration": 0.0499,
      "velocity": 120,
      "chip": "ym2612"
    },
    {
      "channel": 0,
      "note": 77,
      "start": 142.7334,
      "duration": 0.1177,
      "velocity": 109,
      "chip": "ym2612"
    },
    {
      "channel": 1,
      "note": 65,
      "start": 142.7341,
      "duration": 0.0838,
      "velocity": 112,
      "chip": "ym2612"
    },
    {
      "channel": 2,
      "note": 53,
      "start": 142.7349,
      "duration": 0.05,
      "velocity": 120,
      "chip": "ym2612"
    },
    {
      "channel": 0,
      "note": 65,
      "start": 142.8851,
      "duration": 0.1177,
      "velocity": 111,
      "chip": "ym2612"
    },
    {
      "channel": 1,
      "note": 65,
      "start": 142.8858,
      "duration": 0.0838,
      "velocity": 112,
      "chip": "ym2612"
    },
    {
      "channel": 2,
      "note": 53,
      "start": 142.8866,
      "duration": 0.0499,
      "velocity": 120,
      "chip": "ym2612"
    },
    {
      "channel": 0,
      "note": 65,
      "start": 143.0368,
      "duration": 0.1178,
      "velocity": 112,
      "chip": "ym2612"
    },
    {
      "channel": 1,
      "note": 65,
      "start": 143.0375,
      "duration": 0.0838,
      "velocity": 112,
      "chip": "ym2612"
    },
    {
      "channel": 2,
      "note": 65,
      "start": 143.0383,
      "duration": 0.0499,
      "velocity": 120,
      "chip": "ym2612"
    },
    {
      "channel": 0,
      "note": 65,
      "start": 143.1885,
      "duration": 0.1178,
      "velocity": 108,
      "chip": "ym2612"
    },
    {
      "channel": 1,
      "note": 65,
      "start": 143.1892,
      "duration": 0.0839,
      "velocity": 112,
      "chip": "ym2612"
    },
    {
      "channel": 2,
      "note": 53,
      "start": 143.1899,
      "duration": 0.0499,
      "velocity": 120,
      "chip": "ym2612"
    },
    {
      "channel": 3,
      "note": 7,
      "start": 143.1907,
      "duration": 2.4275,
      "velocity": 1,
      "chip": "ym2612"
    },
    {
      "channel": 4,
      "note": 7,
      "start": 143.1967,
      "duration": 2.4265,
      "velocity": 1,
      "chip": "ym2612"
    },
    {
      "channel": 5,
      "note": 7,
      "start": 143.1974,
      "duration": 2.4265,
      "velocity": 1,
      "chip": "ym2612"
    },
    {
      "channel": 0,
      "note": 77,
      "start": 143.3402,
      "duration": 0.1178,
      "velocity": 108,
      "chip": "ym2612"
    },
    {
      "channel": 1,
      "note": 65,
      "start": 143.3409,
      "duration": 0.0838,
      "velocity": 112,
      "chip": "ym2612"
    },
    {
      "channel": 2,
      "note": 65,
      "start": 143.3417,
      "duration": 0.0499,
      "velocity": 120,
      "chip": "ym2612"
    },
    {
      "channel": 0,
      "note": 77,
      "start": 143.4918,
      "duration": 0.1178,
      "velocity": 112,
      "chip": "ym2612"
    },
    {
      "channel": 1,
      "note": 65,
      "start": 143.4925,
      "duration": 0.0838,
      "velocity": 112,
      "chip": "ym2612"
    },
    {
      "channel": 2,
      "note": 53,
      "start": 143.4933,
      "duration": 0.0499,
      "velocity": 120,
      "chip": "ym2612"
    },
    {
      "channel": 0,
      "note": 65,
      "start": 143.6435,
      "duration": 0.1178,
      "velocity": 109,
      "chip": "ym2612"
    },
    {
      "channel": 1,
      "note": 65,
      "start": 143.6442,
      "duration": 0.0838,
      "velocity": 112,
      "chip": "ym2612"
    },
    {
      "channel": 2,
      "note": 53,
      "start": 143.645,
      "duration": 0.0499,
      "velocity": 120,
      "chip": "ym2612"
    },
    {
      "channel": 0,
      "note": 77,
      "start": 143.7952,
      "duration": 0.1177,
      "velocity": 108,
      "chip": "ym2612"
    },
    {
      "channel": 1,
      "note": 65,
      "start": 143.7959,
      "duration": 0.0838,
      "velocity": 112,
      "chip": "ym2612"
    },
    {
      "channel": 2,
      "note": 65,
      "start": 143.7967,
      "duration": 0.05,
      "velocity": 120,
      "chip": "ym2612"
    },
    {
      "channel": 0,
      "note": 65,
      "start": 143.9469,
      "duration": 0.1177,
      "velocity": 110,
      "chip": "ym2612"
    },
    {
      "channel": 1,
      "note": 65,
      "start": 143.9476,
      "duration": 0.0838,
      "velocity": 112,
      "chip": "ym2612"
    },
    {
      "channel": 2,
      "note": 53,
      "start": 143.9483,
      "duration": 0.0499,
      "velocity": 120,
      "chip": "ym2612"
    },
    {
      "channel": 0,
      "note": 65,
      "start": 144.0986,
      "duration": 0.1178,
      "velocity": 109,
      "chip": "ym2612"
    },
    {
      "channel": 1,
      "note": 65,
      "start": 144.0993,
      "duration": 0.0838,
      "velocity": 112,
      "chip": "ym2612"
    },
    {
      "channel": 2,
      "note": 53,
      "start": 144.1,
      "duration": 0.0499,
      "velocity": 120,
      "chip": "ym2612"
    },
    {
      "channel": 0,
      "note": 77,
      "start": 144.2502,
      "duration": 0.1178,
      "velocity": 111,
      "chip": "ym2612"
    },
    {
      "channel": 1,
      "note": 65,
      "start": 144.2509,
      "duration": 0.0839,
      "velocity": 112,
      "chip": "ym2612"
    },
    {
      "channel": 2,
      "note": 65,
      "start": 144.2517,
      "duration": 0.0499,
      "velocity": 120,
      "chip": "ym2612"
    },
    {
      "channel": 0,
      "note": 77,
      "start": 144.4019,
      "duration": 0.1178,
      "velocity": 112,
      "chip": "ym2612"
    },
    {
      "channel": 1,
      "note": 65,
      "start": 144.4026,
      "duration": 0.0839,
      "velocity": 112,
      "chip": "ym2612"
    },
    {
      "channel": 2,
      "note": 53,
      "start": 144.4034,
      "duration": 0.0499,
      "velocity": 120,
      "chip": "ym2612"
    },
    {
      "channel": 0,
      "note": 65,
      "start": 144.5536,
      "duration": 0.1178,
      "velocity": 109,
      "chip": "ym2612"
    },
    {
      "channel": 1,
      "note": 65,
      "start": 144.5543,
      "duration": 0.0838,
      "velocity": 112,
      "chip": "ym2612"
    },
    {
      "channel": 2,
      "note": 65,
      "start": 144.5551,
      "duration": 0.0499,
      "velocity": 120,
      "chip": "ym2612"
    },
    {
      "channel": 0,
      "note": 77,
      "start": 144.7053,
      "duration": 0.1178,
      "velocity": 108,
      "chip": "ym2612"
    },
    {
      "channel": 1,
      "note": 65,
      "start": 144.706,
      "duration": 0.0838,
      "velocity": 112,
      "chip": "ym2612"
    },
    {
      "channel": 2,
      "note": 53,
      "start": 144.7068,
      "duration": 0.0499,
      "velocity": 120,
      "chip": "ym2612"
    },
    {
      "channel": 0,
      "note": 65,
      "start": 144.857,
      "duration": 0.1177,
      "velocity": 112,
      "chip": "ym2612"
    },
    {
      "channel": 1,
      "note": 65,
      "start": 144.8577,
      "duration": 0.0838,
      "velocity": 112,
      "chip": "ym2612"
    },
    {
      "channel": 2,
      "note": 53,
      "start": 144.8584,
      "duration": 0.0499,
      "velocity": 120,
      "chip": "ym2612"
    },
    {
      "channel": 0,
      "note": 65,
      "start": 145.0086,
      "duration": 0.1177,
      "velocity": 111,
      "chip": "ym2612"
    },
    {
      "channel": 1,
      "note": 65,
      "start": 145.0093,
      "duration": 0.0838,
      "velocity": 112,
      "chip": "ym2612"
    },
    {
      "channel": 2,
      "note": 65,
      "start": 145.0101,
      "duration": 0.0499,
      "velocity": 120,
      "chip": "ym2612"
    },
    {
      "channel": 0,
      "note": 77,
      "start": 145.1603,
      "duration": 0.1178,
      "velocity": 109,
      "chip": "ym2612"
    },
    {
      "channel": 1,
      "note": 65,
      "start": 145.161,
      "duration": 0.0838,
      "velocity": 112,
      "chip": "ym2612"
    },
    {
      "channel": 2,
      "note": 53,
      "start": 145.1617,
      "duration": 0.0499,
      "velocity": 120,
      "chip": "ym2612"
    },
    {
      "channel": 0,
      "note": 65,
      "start": 145.312,
      "duration": 0.1178,
      "velocity": 111,
      "chip": "ym2612"
    },
    {
      "channel": 1,
      "note": 65,
      "start": 145.3127,
      "duration": 0.0839,
      "velocity": 112,
      "chip": "ym2612"
    },
    {
      "channel": 2,
      "note": 53,
      "start": 145.3135,
      "duration": 0.0499,
      "velocity": 120,
      "chip": "ym2612"
    },
    {
      "channel": 0,
      "note": 65,
      "start": 145.4637,
      "duration": 0.1178,
      "velocity": 112,
      "chip": "ym2612"
    },
    {
      "channel": 1,
      "note": 65,
      "start": 145.4644,
      "duration": 0.0839,
      "velocity": 112,
      "chip": "ym2612"
    },
    {
      "channel": 2,
      "note": 65,
      "start": 145.4651,
      "duration": 0.0499,
      "velocity": 120,
      "chip": "ym2612"
    },
    {
      "channel": 0,
      "note": 65,
      "start": 145.616,
      "duration": 0.1505,
      "velocity": 112,
      "chip": "ym2612"
    },
    {
      "channel": 1,
      "note": 65,
      "start": 145.6167,
      "duration": 0.0833,
      "velocity": 112,
      "chip": "ym2612"
    },
    {
      "channel": 2,
      "note": 41,
      "start": 145.618,
      "duration": 0.1506,
      "velocity": 127,
      "chip": "ym2612"
    },
    {
      "channel": 3,
      "note": 7,
      "start": 145.6187,
      "duration": 2.4258,
      "velocity": 1,
      "chip": "ym2612"
    },
    {
      "channel": 4,
      "note": 7,
      "start": 145.6237,
      "duration": 2.4264,
      "velocity": 1,
      "chip": "ym2612"
    },
    {
      "channel": 5,
      "note": 7,
      "start": 145.6244,
      "duration": 2.4264,
      "velocity": 1,
      "chip": "ym2612"
    },
    {
      "channel": 0,
      "note": 65,
      "start": 145.7677,
      "duration": 0.1505,
      "velocity": 112,
      "chip": "ym2612"
    },
    {
      "channel": 1,
      "note": 65,
      "start": 145.7684,
      "duration": 0.0833,
      "velocity": 112,
      "chip": "ym2612"
    },
    {
      "channel": 2,
      "note": 41,
      "start": 145.7691,
      "duration": 0.1512,
      "velocity": 126,
      "chip": "ym2612"
    },
    {
      "channel": 0,
      "note": 65,
      "start": 145.9194,
      "duration": 0.1505,
      "velocity": 112,
      "chip": "ym2612"
    },
    {
      "channel": 1,
      "note": 65,
      "start": 145.9201,
      "duration": 0.0832,
      "velocity": 112,
      "chip": "ym2612"
    },
    {
      "channel": 2,
      "note": 41,
      "start": 145.9207,
      "duration": 0.1513,
      "velocity": 125,
      "chip": "ym2612"
    },
    {
      "channel": 0,
      "note": 65,
      "start": 146.071,
      "duration": 0.1506,
      "velocity": 112,
      "chip": "ym2612"
    },
    {
      "channel": 1,
      "note": 65,
      "start": 146.0717,
      "duration": 0.0833,
      "velocity": 112,
      "chip": "ym2612"
    },
    {
      "channel": 2,
      "note": 41,
      "start": 146.0724,
      "duration": 0.1513,
      "velocity": 124,
      "chip": "ym2612"
    },
    {
      "channel": 0,
      "note": 65,
      "start": 146.2228,
      "duration": 0.1505,
      "velocity": 112,
      "chip": "ym2612"
    },
    {
      "channel": 1,
      "note": 65,
      "start": 146.2235,
      "duration": 0.0832,
      "velocity": 112,
      "chip": "ym2612"
    },
    {
      "channel": 2,
      "note": 41,
      "start": 146.2241,
      "duration": 0.1512,
      "velocity": 123,
      "chip": "ym2612"
    },
    {
      "channel": 0,
      "note": 65,
      "start": 146.3745,
      "duration": 0.1505,
      "velocity": 112,
      "chip": "ym2612"
    },
    {
      "channel": 1,
      "note": 65,
      "start": 146.3752,
      "duration": 0.0832,
      "velocity": 112,
      "chip": "ym2612"
    },
    {
      "channel": 2,
      "note": 42,
      "start": 146.3758,
      "duration": 0.1512,
      "velocity": 122,
      "chip": "ym2612"
    },
    {
      "channel": 0,
      "note": 65,
      "start": 146.5261,
      "duration": 0.1505,
      "velocity": 112,
      "chip": "ym2612"
    },
    {
      "channel": 1,
      "note": 65,
      "start": 146.5268,
      "duration": 0.0832,
      "velocity": 112,
      "chip": "ym2612"
    },
    {
      "channel": 2,
      "note": 41,
      "start": 146.5275,
      "duration": 0.1512,
      "velocity": 121,
      "chip": "ym2612"
    },
    {
      "channel": 0,
      "note": 65,
      "start": 146.6778,
      "duration": 0.1505,
      "velocity": 112,
      "chip": "ym2612"
    },
    {
      "channel": 1,
      "note": 65,
      "start": 146.6785,
      "duration": 0.0833,
      "velocity": 112,
      "chip": "ym2612"
    },
    {
      "channel": 2,
      "note": 41,
      "start": 146.6791,
      "duration": 0.1513,
      "velocity": 120,
      "chip": "ym2612"
    },
    {
      "channel": 0,
      "note": 65,
      "start": 146.8295,
      "duration": 0.1505,
      "velocity": 112,
      "chip": "ym2612"
    },
    {
      "channel": 1,
      "note": 65,
      "start": 146.8301,
      "duration": 0.0833,
      "velocity": 112,
      "chip": "ym2612"
    },
    {
      "channel": 2,
      "note": 42,
      "start": 146.8308,
      "duration": 0.1512,
      "velocity": 119,
      "chip": "ym2612"
    },
    {
      "channel": 0,
      "note": 65,
      "start": 146.9812,
      "duration": 0.1506,
      "velocity": 112,
      "chip": "ym2612"
    },
    {
      "channel": 1,
      "note": 65,
      "start": 146.9819,
      "duration": 0.0832,
      "velocity": 112,
      "chip": "ym2612"
    },
    {
      "channel": 2,
      "note": 41,
      "start": 146.9825,
      "duration": 0.1507,
      "velocity": 118,
      "chip": "ym2612"
    },
    {
      "channel": 0,
      "note": 65,
      "start": 147.1322,
      "duration": 0.1512,
      "velocity": 112,
      "chip": "ym2612"
    },
    {
      "channel": 1,
      "note": 65,
      "start": 147.1329,
      "duration": 0.0839,
      "velocity": 112,
      "chip": "ym2612"
    },
    {
      "channel": 2,
      "note": 41,
      "start": 147.1336,
      "duration": 0.1518,
      "velocity": 117,
      "chip": "ym2612"
    },
    {
      "channel": 0,
      "note": 65,
      "start": 147.2845,
      "duration": 0.1505,
      "velocity": 112,
      "chip": "ym2612"
    },
    {
      "channel": 1,
      "note": 65,
      "start": 147.2852,
      "duration": 0.0832,
      "velocity": 112,
      "chip": "ym2612"
    },
    {
      "channel": 2,
      "note": 41,
      "start": 147.2859,
      "duration": 0.1513,
      "velocity": 116,
      "chip": "ym2612"
    },
    {
      "channel": 0,
      "note": 65,
      "start": 147.4362,
      "duration": 0.1506,
      "velocity": 112,
      "chip": "ym2612"
    },
    {
      "channel": 1,
      "note": 65,
      "start": 147.4369,
      "duration": 0.0833,
      "velocity": 112,
      "chip": "ym2612"
    },
    {
      "channel": 2,
      "note": 41,
      "start": 147.4376,
      "duration": 0.1512,
      "velocity": 115,
      "chip": "ym2612"
    },
    {
      "channel": 0,
      "note": 65,
      "start": 147.5879,
      "duration": 0.1505,
      "velocity": 112,
      "chip": "ym2612"
    },
    {
      "channel": 1,
      "note": 65,
      "start": 147.5886,
      "duration": 0.0832,
      "velocity": 112,
      "chip": "ym2612"
    },
    {
      "channel": 2,
      "note": 41,
      "start": 147.5892,
      "duration": 0.1513,
      "velocity": 114,
      "chip": "ym2612"
    },
    {
      "channel": 0,
      "note": 65,
      "start": 147.7395,
      "duration": 0.1506,
      "velocity": 112,
      "chip": "ym2612"
    },
    {
      "channel": 1,
      "note": 65,
      "start": 147.7403,
      "duration": 0.0832,
      "velocity": 112,
      "chip": "ym2612"
    },
    {
      "channel": 2,
      "note": 29,
      "start": 147.741,
      "duration": 0.1513,
      "velocity": 113,
      "chip": "ym2612"
    },
    {
      "channel": 0,
      "note": 65,
      "start": 147.8913,
      "duration": 0.1505,
      "velocity": 112,
      "chip": "ym2612"
    },
    {
      "channel": 1,
      "note": 65,
      "start": 147.892,
      "duration": 0.0832,
      "velocity": 112,
      "chip": "ym2612"
    },
    {
      "channel": 2,
      "note": 41,
      "start": 147.8927,
      "duration": 0.1511,
      "velocity": 112,
      "chip": "ym2612"
    },
    {
      "channel": 0,
      "note": 65,
      "start": 148.0429,
      "duration": 0.1505,
      "velocity": 112,
      "chip": "ym2612"
    },
    {
      "channel": 1,
      "note": 65,
      "start": 148.0436,
      "duration": 0.0832,
      "velocity": 112,
      "chip": "ym2612"
    },
    {
      "channel": 2,
      "note": 41,
      "start": 148.0443,
      "duration": 0.1513,
      "velocity": 127,
      "chip": "ym2612"
    },
    {
      "channel": 3,
      "note": 7,
      "start": 148.045,
      "duration": 2.427,
      "velocity": 1,
      "chip": "ym2612"
    },
    {
      "channel": 4,
      "note": 7,
      "start": 148.0505,
      "duration": 2.4264,
      "velocity": 1,
      "chip": "ym2612"
    },
    {
      "channel": 5,
      "note": 7,
      "start": 148.0512,
      "duration": 2.4271,
      "velocity": 1,
      "chip": "ym2612"
    },
    {
      "channel": 0,
      "note": 65,
      "start": 148.1946,
      "duration": 0.1506,
      "velocity": 112,
      "chip": "ym2612"
    },
    {
      "channel": 1,
      "note": 65,
      "start": 148.1953,
      "duration": 0.0833,
      "velocity": 112,
      "chip": "ym2612"
    },
    {
      "channel": 2,
      "note": 41,
      "start": 148.196,
      "duration": 0.1512,
      "velocity": 126,
      "chip": "ym2612"
    },
    {
      "channel": 0,
      "note": 65,
      "start": 148.3463,
      "duration": 0.1505,
      "velocity": 112,
      "chip": "ym2612"
    },
    {
      "channel": 1,
      "note": 65,
      "start": 148.347,
      "duration": 0.0832,
      "velocity": 112,
      "chip": "ym2612"
    },
    {
      "channel": 2,
      "note": 41,
      "start": 148.3476,
      "duration": 0.1513,
      "velocity": 125,
      "chip": "ym2612"
    },
    {
      "channel": 0,
      "note": 65,
      "start": 148.4979,
      "duration": 0.1506,
      "velocity": 112,
      "chip": "ym2612"
    },
    {
      "channel": 1,
      "note": 65,
      "start": 148.4986,
      "duration": 0.0833,
      "velocity": 112,
      "chip": "ym2612"
    },
    {
      "channel": 2,
      "note": 41,
      "start": 148.4993,
      "duration": 0.1506,
      "velocity": 124,
      "chip": "ym2612"
    },
    {
      "channel": 0,
      "note": 65,
      "start": 148.6491,
      "duration": 0.1511,
      "velocity": 112,
      "chip": "ym2612"
    },
    {
      "channel": 1,
      "note": 65,
      "start": 148.6498,
      "duration": 0.0838,
      "velocity": 112,
      "chip": "ym2612"
    },
    {
      "channel": 2,
      "note": 41,
      "start": 148.6504,
      "duration": 0.1518,
      "velocity": 123,
      "chip": "ym2612"
    },
    {
      "channel": 0,
      "note": 65,
      "start": 148.8013,
      "duration": 0.1505,
      "velocity": 112,
      "chip": "ym2612"
    },
    {
      "channel": 1,
      "note": 65,
      "start": 148.802,
      "duration": 0.0832,
      "velocity": 112,
      "chip": "ym2612"
    },
    {
      "channel": 2,
      "note": 42,
      "start": 148.8027,
      "duration": 0.1513,
      "velocity": 122,
      "chip": "ym2612"
    },
    {
      "channel": 0,
      "note": 65,
      "start": 148.953,
      "duration": 0.1505,
      "velocity": 112,
      "chip": "ym2612"
    },
    {
      "channel": 1,
      "note": 65,
      "start": 148.9537,
      "duration": 0.0833,
      "velocity": 112,
      "chip": "ym2612"
    },
    {
      "channel": 2,
      "note": 41,
      "start": 148.9544,
      "duration": 0.1512,
      "velocity": 121,
      "chip": "ym2612"
    },
    {
      "channel": 0,
      "note": 65,
      "start": 149.1047,
      "duration": 0.1505,
      "velocity": 112,
      "chip": "ym2612"
    },
    {
      "channel": 1,
      "note": 65,
      "start": 149.1054,
      "duration": 0.0832,
      "velocity": 112,
      "chip": "ym2612"
    },
    {
      "channel": 2,
      "note": 41,
      "start": 149.106,
      "duration": 0.1513,
      "velocity": 120,
      "chip": "ym2612"
    },
    {
      "channel": 0,
      "note": 65,
      "start": 149.2563,
      "duration": 0.1506,
      "velocity": 112,
      "chip": "ym2612"
    },
    {
      "channel": 1,
      "note": 65,
      "start": 149.2571,
      "duration": 0.0833,
      "velocity": 112,
      "chip": "ym2612"
    },
    {
      "channel": 2,
      "note": 42,
      "start": 149.2578,
      "duration": 0.1512,
      "velocity": 119,
      "chip": "ym2612"
    },
    {
      "channel": 0,
      "note": 65,
      "start": 149.4081,
      "duration": 0.1505,
      "velocity": 112,
      "chip": "ym2612"
    },
    {
      "channel": 1,
      "note": 65,
      "start": 149.4088,
      "duration": 0.0832,
      "velocity": 112,
      "chip": "ym2612"
    },
    {
      "channel": 2,
      "note": 41,
      "start": 149.4095,
      "duration": 0.1512,
      "velocity": 118,
      "chip": "ym2612"
    },
    {
      "channel": 0,
      "note": 65,
      "start": 149.5597,
      "duration": 0.1506,
      "velocity": 112,
      "chip": "ym2612"
    },
    {
      "channel": 1,
      "note": 65,
      "start": 149.5604,
      "duration": 0.0833,
      "velocity": 112,
      "chip": "ym2612"
    },
    {
      "channel": 2,
      "note": 41,
      "start": 149.5611,
      "duration": 0.1512,
      "velocity": 117,
      "chip": "ym2612"
    },
    {
      "channel": 0,
      "note": 65,
      "start": 149.7114,
      "duration": 0.1505,
      "velocity": 112,
      "chip": "ym2612"
    },
    {
      "channel": 1,
      "note": 65,
      "start": 149.7121,
      "duration": 0.0832,
      "velocity": 112,
      "chip": "ym2612"
    },
    {
      "channel": 2,
      "note": 41,
      "start": 149.7128,
      "duration": 0.1512,
      "velocity": 116,
      "chip": "ym2612"
    },
    {
      "channel": 0,
      "note": 65,
      "start": 149.8631,
      "duration": 0.1506,
      "velocity": 112,
      "chip": "ym2612"
    },
    {
      "channel": 1,
      "note": 65,
      "start": 149.8638,
      "duration": 0.0832,
      "velocity": 112,
      "chip": "ym2612"
    },
    {
      "channel": 2,
      "note": 41,
      "start": 149.8644,
      "duration": 0.1507,
      "velocity": 115,
      "chip": "ym2612"
    },
    {
      "channel": 0,
      "note": 65,
      "start": 150.0142,
      "duration": 0.1511,
      "velocity": 112,
      "chip": "ym2612"
    },
    {
      "channel": 1,
      "note": 65,
      "start": 150.0149,
      "duration": 0.0838,
      "velocity": 112,
      "chip": "ym2612"
    },
    {
      "channel": 2,
      "note": 41,
      "start": 150.0156,
      "duration": 0.1518,
      "velocity": 114,
      "chip": "ym2612"
    },
    {
      "channel": 0,
      "note": 65,
      "start": 150.1665,
      "duration": 0.1505,
      "velocity": 112,
      "chip": "ym2612"
    },
    {
      "channel": 1,
      "note": 65,
      "start": 150.1672,
      "duration": 0.0832,
      "velocity": 112,
      "chip": "ym2612"
    },
    {
      "channel": 2,
      "note": 29,
      "start": 150.1678,
      "duration": 0.1513,
      "velocity": 113,
      "chip": "ym2612"
    },
    {
      "channel": 0,
      "note": 65,
      "start": 150.3181,
      "duration": 0.1506,
      "velocity": 112,
      "chip": "ym2612"
    },
    {
      "channel": 1,
      "note": 65,
      "start": 150.3188,
      "duration": 0.0833,
      "velocity": 112,
      "chip": "ym2612"
    },
    {
      "channel": 2,
      "note": 41,
      "start": 150.3195,
      "duration": 0.1519,
      "velocity": 112,
      "chip": "ym2612"
    },
    {
      "channel": 0,
      "note": 65,
      "start": 150.4698,
      "duration": 0.1505,
      "velocity": 112,
      "chip": "ym2612"
    },
    {
      "channel": 1,
      "note": 53,
      "start": 150.4712,
      "duration": 0.049,
      "velocity": 120,
      "chip": "ym2612"
    },
    {
      "channel": 2,
      "note": 41,
      "start": 150.4718,
      "duration": 0.1507,
      "velocity": 127,
      "chip": "ym2612"
    },
    {
      "channel": 3,
      "note": 92,
      "start": 150.4732,
      "duration": 0.1499,
      "velocity": 112,
      "chip": "ym2612"
    },
    {
      "channel": 4,
      "note": 65,
      "start": 150.478,
      "duration": 0.0834,
      "velocity": 112,
      "chip": "ym2612"
    },
    {
      "channel": 5,
      "note": 7,
      "start": 150.4787,
      "duration": 2.4258,
      "velocity": 1,
      "chip": "ym2612"
    },
    {
      "channel": 0,
      "note": 65,
      "start": 150.6215,
      "duration": 0.1506,
      "velocity": 112,
      "chip": "ym2612"
    },
    {
      "channel": 1,
      "note": 65,
      "start": 150.6222,
      "duration": 0.0495,
      "velocity": 120,
      "chip": "ym2612"
    },
    {
      "channel": 2,
      "note": 41,
      "start": 150.6229,
      "duration": 0.1513,
      "velocity": 126,
      "chip": "ym2612"
    },
    {
      "channel": 3,
      "note": 92,
      "start": 150.6244,
      "duration": 0.1505,
      "velocity": 112,
      "chip": "ym2612"
    },
    {
      "channel": 4,
      "note": 65,
      "start": 150.629,
      "duration": 0.0841,
      "velocity": 112,
      "chip": "ym2612"
    },
    {
      "channel": 0,
      "note": 65,
      "start": 150.7732,
      "duration": 0.1506,
      "velocity": 112,
      "chip": "ym2612"
    },
    {
      "channel": 1,
      "note": 53,
      "start": 150.774,
      "duration": 0.0495,
      "velocity": 120,
      "chip": "ym2612"
    },
    {
      "channel": 2,
      "note": 41,
      "start": 150.7747,
      "duration": 0.1512,
      "velocity": 125,
      "chip": "ym2612"
    },
    {
      "channel": 3,
      "note": 92,
      "start": 150.776,
      "duration": 0.1505,
      "velocity": 112,
      "chip": "ym2612"
    },
    {
      "channel": 4,
      "note": 65,
      "start": 150.7808,
      "duration": 0.084,
      "velocity": 112,
      "chip": "ym2612"
    },
    {
      "channel": 0,
      "note": 65,
      "start": 150.9249,
      "duration": 0.1505,
      "velocity": 112,
      "chip": "ym2612"
    },
    {
      "channel": 1,
      "note": 53,
      "start": 150.9257,
      "duration": 0.0495,
      "velocity": 120,
      "chip": "ym2612"
    },
    {
      "channel": 2,
      "note": 41,
      "start": 150.9263,
      "duration": 0.1512,
      "velocity": 124,
      "chip": "ym2612"
    },
    {
      "channel": 3,
      "note": 92,
      "start": 150.9277,
      "duration": 0.1505,
      "velocity": 112,
      "chip": "ym2612"
    },
    {
      "channel": 4,
      "note": 65,
      "start": 150.9324,
      "duration": 0.0841,
      "velocity": 112,
      "chip": "ym2612"
    },
    {
      "channel": 0,
      "note": 65,
      "start": 151.0766,
      "duration": 0.1505,
      "velocity": 112,
      "chip": "ym2612"
    },
    {
      "channel": 1,
      "note": 65,
      "start": 151.0773,
      "duration": 0.0495,
      "velocity": 120,
      "chip": "ym2612"
    },
    {
      "channel": 2,
      "note": 41,
      "start": 151.078,
      "duration": 0.1512,
      "velocity": 123,
      "chip": "ym2612"
    },
    {
      "channel": 3,
      "note": 92,
      "start": 151.0793,
      "duration": 0.1505,
      "velocity": 112,
      "chip": "ym2612"
    },
    {
      "channel": 4,
      "note": 65,
      "start": 151.0841,
      "duration": 0.084,
      "velocity": 112,
      "chip": "ym2612"
    },
    {
      "channel": 0,
      "note": 65,
      "start": 151.2282,
      "duration": 0.1505,
      "velocity": 112,
      "chip": "ym2612"
    },
    {
      "channel": 1,
      "note": 53,
      "start": 151.229,
      "duration": 0.0496,
      "velocity": 120,
      "chip": "ym2612"
    },
    {
      "channel": 2,
      "note": 42,
      "start": 151.2296,
      "duration": 0.1513,
      "velocity": 122,
      "chip": "ym2612"
    },
    {
      "channel": 3,
      "note": 92,
      "start": 151.231,
      "duration": 0.1505,
      "velocity": 112,
      "chip": "ym2612"
    },
    {
      "channel": 4,
      "note": 65,
      "start": 151.2358,
      "duration": 0.084,
      "velocity": 112,
      "chip": "ym2612"
    },
    {
      "channel": 0,
      "note": 65,
      "start": 151.3799,
      "duration": 0.1506,
      "velocity": 112,
      "chip": "ym2612"
    },
    {
      "channel": 1,
      "note": 53,
      "start": 151.3806,
      "duration": 0.0496,
      "velocity": 120,
      "chip": "ym2612"
    },
    {
      "channel": 2,
      "note": 41,
      "start": 151.3813,
      "duration": 0.1512,
      "velocity": 121,
      "chip": "ym2612"
    },
    {
      "channel": 3,
      "note": 92,
      "start": 151.3827,
      "duration": 0.1505,
      "velocity": 112,
      "chip": "ym2612"
    },
    {
      "channel": 4,
      "note": 65,
      "start": 151.3875,
      "duration": 0.084,
      "velocity": 112,
      "chip": "ym2612"
    },
    {
      "channel": 0,
      "note": 65,
      "start": 151.5316,
      "duration": 0.1505,
      "velocity": 112,
      "chip": "ym2612"
    },
    {
      "channel": 1,
      "note": 65,
      "start": 151.5324,
      "duration": 0.0495,
      "velocity": 120,
      "chip": "ym2612"
    },
    {
      "channel": 2,
      "note": 41,
      "start": 151.533,
      "duration": 0.1513,
      "velocity": 120,
      "chip": "ym2612"
    },
    {
      "channel": 3,
      "note": 92,
      "start": 151.5343,
      "duration": 0.1506,
      "velocity": 112,
      "chip": "ym2612"
    },
    {
      "channel": 4,
      "note": 65,
      "start": 151.5392,
      "duration": 0.084,
      "velocity": 112,
      "chip": "ym2612"
    },
    {
      "channel": 0,
      "note": 65,
      "start": 151.6832,
      "duration": 0.1506,
      "velocity": 112,
      "chip": "ym2612"
    },
    {
      "channel": 1,
      "note": 53,
      "start": 151.684,
      "duration": 0.0495,
      "velocity": 120,
      "chip": "ym2612"
    },
    {
      "channel": 2,
      "note": 42,
      "start": 151.6847,
      "duration": 0.1512,
      "velocity": 119,
      "chip": "ym2612"
    },
    {
      "channel": 3,
      "note": 92,
      "start": 151.6861,
      "duration": 0.1505,
      "velocity": 112,
      "chip": "ym2612"
    },
    {
      "channel": 4,
      "note": 65,
      "start": 151.6909,
      "duration": 0.084,
      "velocity": 112,
      "chip": "ym2612"
    },
    {
      "channel": 0,
      "note": 65,
      "start": 151.835,
      "duration": 0.1506,
      "velocity": 112,
      "chip": "ym2612"
    },
    {
      "channel": 1,
      "note": 65,
      "start": 151.8357,
      "duration": 0.0495,
      "velocity": 120,
      "chip": "ym2612"
    },
    {
      "channel": 2,
      "note": 41,
      "start": 151.8364,
      "duration": 0.1506,
      "velocity": 118,
      "chip": "ym2612"
    },
    {
      "channel": 3,
      "note": 92,
      "start": 151.8377,
      "duration": 0.15,
      "velocity": 112,
      "chip": "ym2612"
    },
    {
      "channel": 4,
      "note": 65,
      "start": 151.8425,
      "duration": 0.084,
      "velocity": 112,
      "chip": "ym2612"
    },
    {
      "channel": 0,
      "note": 65,
      "start": 151.9861,
      "duration": 0.1511,
      "velocity": 112,
      "chip": "ym2612"
    },
    {
      "channel": 1,
      "note": 53,
      "start": 151.9868,
      "duration": 0.0501,
      "velocity": 120,
      "chip": "ym2612"
    },
    {
      "channel": 2,
      "note": 41,
      "start": 151.9875,
      "duration": 0.1518,
      "velocity": 117,
      "chip": "ym2612"
    },
    {
      "channel": 3,
      "note": 92,
      "start": 151.9883,
      "duration": 0.1517,
      "velocity": 112,
      "chip": "ym2612"
    },
    {
      "channel": 4,
      "note": 65,
      "start": 151.9942,
      "duration": 0.0841,
      "velocity": 112,
      "chip": "ym2612"
    },
    {
      "channel": 0,
      "note": 65,
      "start": 152.1383,
      "duration": 0.1505,
      "velocity": 112,
      "chip": "ym2612"
    },
    {
      "channel": 1,
      "note": 53,
      "start": 152.139,
      "duration": 0.0495,
      "velocity": 120,
      "chip": "ym2612"
    },
    {
      "channel": 2,
      "note": 41,
      "start": 152.1398,
      "duration": 0.1513,
      "velocity": 116,
      "chip": "ym2612"
    },
    {
      "channel": 3,
      "note": 92,
      "start": 152.1411,
      "duration": 0.1505,
      "velocity": 112,
      "chip": "ym2612"
    },
    {
      "channel": 4,
      "note": 65,
      "start": 152.1459,
      "duration": 0.084,
      "velocity": 112,
      "chip": "ym2612"
    },
    {
      "channel": 0,
      "note": 65,
      "start": 152.29,
      "duration": 0.1506,
      "velocity": 112,
      "chip": "ym2612"
    },
    {
      "channel": 1,
      "note": 65,
      "start": 152.2907,
      "duration": 0.0496,
      "velocity": 120,
      "chip": "ym2612"
    },
    {
      "channel": 2,
      "note": 41,
      "start": 152.2915,
      "duration": 0.1512,
      "velocity": 115,
      "chip": "ym2612"
    },
    {
      "channel": 3,
      "note": 92,
      "start": 152.2928,
      "duration": 0.1505,
      "velocity": 112,
      "chip": "ym2612"
    },
    {
      "channel": 4,
      "note": 65,
      "start": 152.2976,
      "duration": 0.084,
      "velocity": 112,
      "chip": "ym2612"
    },
    {
      "channel": 0,
      "note": 65,
      "start": 152.4417,
      "duration": 0.1505,
      "velocity": 112,
      "chip": "ym2612"
    },
    {
      "channel": 1,
      "note": 53,
      "start": 152.4425,
      "duration": 0.0495,
      "velocity": 120,
      "chip": "ym2612"
    },
    {
      "channel": 2,
      "note": 41,
      "start": 152.4431,
      "duration": 0.1512,
      "velocity": 114,
      "chip": "ym2612"
    },
    {
      "channel": 3,
      "note": 92,
      "start": 152.4445,
      "duration": 0.1505,
      "velocity": 112,
      "chip": "ym2612"
    },
    {
      "channel": 4,
      "note": 65,
      "start": 152.4493,
      "duration": 0.084,
      "velocity": 112,
      "chip": "ym2612"
    },
    {
      "channel": 0,
      "note": 65,
      "start": 152.5934,
      "duration": 0.1505,
      "velocity": 112,
      "chip": "ym2612"
    },
    {
      "channel": 1,
      "note": 53,
      "start": 152.5941,
      "duration": 0.0495,
      "velocity": 120,
      "chip": "ym2612"
    },
    {
      "channel": 2,
      "note": 29,
      "start": 152.5948,
      "duration": 0.1513,
      "velocity": 113,
      "chip": "ym2612"
    },
    {
      "channel": 3,
      "note": 92,
      "start": 152.5961,
      "duration": 0.1506,
      "velocity": 112,
      "chip": "ym2612"
    },
    {
      "channel": 4,
      "note": 65,
      "start": 152.6009,
      "duration": 0.084,
      "velocity": 112,
      "chip": "ym2612"
    },
    {
      "channel": 0,
      "note": 65,
      "start": 152.745,
      "duration": 0.1506,
      "velocity": 112,
      "chip": "ym2612"
    },
    {
      "channel": 1,
      "note": 65,
      "start": 152.7458,
      "duration": 0.0495,
      "velocity": 120,
      "chip": "ym2612"
    },
    {
      "channel": 2,
      "note": 41,
      "start": 152.7465,
      "duration": 0.1512,
      "velocity": 112,
      "chip": "ym2612"
    },
    {
      "channel": 3,
      "note": 92,
      "start": 152.7478,
      "duration": 0.1505,
      "velocity": 112,
      "chip": "ym2612"
    },
    {
      "channel": 4,
      "note": 65,
      "start": 152.7526,
      "duration": 0.0841,
      "velocity": 112,
      "chip": "ym2612"
    },
    {
      "channel": 0,
      "note": 65,
      "start": 152.8967,
      "duration": 0.1505,
      "velocity": 112,
      "chip": "ym2612"
    },
    {
      "channel": 1,
      "note": 53,
      "start": 152.8975,
      "duration": 0.0495,
      "velocity": 120,
      "chip": "ym2612"
    },
    {
      "channel": 2,
      "note": 41,
      "start": 152.8981,
      "duration": 0.1512,
      "velocity": 127,
      "chip": "ym2612"
    },
    {
      "channel": 3,
      "note": 94,
      "start": 152.8995,
      "duration": 0.1505,
      "velocity": 112,
      "chip": "ym2612"
    },
    {
      "channel": 4,
      "note": 65,
      "start": 152.9043,
      "duration": 0.084,
      "velocity": 112,
      "chip": "ym2612"
    },
    {
      "channel": 5,
      "note": 7,
      "start": 152.905,
      "duration": 2.4264,
      "velocity": 1,
      "chip": "ym2612"
    },
    {
      "channel": 0,
      "note": 65,
      "start": 153.0484,
      "duration": 0.1505,
      "velocity": 112,
      "chip": "ym2612"
    },
    {
      "channel": 1,
      "note": 65,
      "start": 153.0492,
      "duration": 0.0495,
      "velocity": 120,
      "chip": "ym2612"
    },
    {
      "channel": 2,
      "note": 41,
      "start": 153.0498,
      "duration": 0.1513,
      "velocity": 126,
      "chip": "ym2612"
    },
    {
      "channel": 3,
      "note": 94,
      "start": 153.0512,
      "duration": 0.1505,
      "velocity": 112,
      "chip": "ym2612"
    },
    {
      "channel": 4,
      "note": 65,
      "start": 153.056,
      "duration": 0.0841,
      "velocity": 112,
      "chip": "ym2612"
    },
    {
      "channel": 0,
      "note": 65,
      "start": 153.2001,
      "duration": 0.1505,
      "velocity": 112,
      "chip": "ym2612"
    },
    {
      "channel": 1,
      "note": 53,
      "start": 153.2008,
      "duration": 0.0495,
      "velocity": 120,
      "chip": "ym2612"
    },
    {
      "channel": 2,
      "note": 41,
      "start": 153.2015,
      "duration": 0.1512,
      "velocity": 125,
      "chip": "ym2612"
    },
    {
      "channel": 3,
      "note": 94,
      "start": 153.2028,
      "duration": 0.1505,
      "velocity": 112,
      "chip": "ym2612"
    },
    {
      "channel": 4,
      "note": 65,
      "start": 153.2077,
      "duration": 0.084,
      "velocity": 112,
      "chip": "ym2612"
    },
    {
      "channel": 0,
      "note": 65,
      "start": 153.3518,
      "duration": 0.1506,
      "velocity": 112,
      "chip": "ym2612"
    },
    {
      "channel": 1,
      "note": 53,
      "start": 153.3525,
      "duration": 0.0496,
      "velocity": 120,
      "chip": "ym2612"
    },
    {
      "channel": 2,
      "note": 41,
      "start": 153.3532,
      "duration": 0.1507,
      "velocity": 124,
      "chip": "ym2612"
    },
    {
      "channel": 3,
      "note": 94,
      "start": 153.3546,
      "duration": 0.1499,
      "velocity": 112,
      "chip": "ym2612"
    },
    {
      "channel": 4,
      "note": 65,
      "start": 153.3593,
      "duration": 0.084,
      "velocity": 112,
      "chip": "ym2612"
    },
    {
      "channel": 0,
      "note": 65,
      "start": 153.5028,
      "duration": 0.1512,
      "velocity": 112,
      "chip": "ym2612"
    },
    {
      "channel": 1,
      "note": 65,
      "start": 153.5036,
      "duration": 0.0501,
      "velocity": 120,
      "chip": "ym2612"
    },
    {
      "channel": 2,
      "note": 41,
      "start": 153.5043,
      "duration": 0.1518,
      "velocity": 123,
      "chip": "ym2612"
    },
    {
      "channel": 3,
      "note": 94,
      "start": 153.5056,
      "duration": 0.1511,
      "velocity": 112,
      "chip": "ym2612"
    },
    {
      "channel": 4,
      "note": 65,
      "start": 153.511,
      "duration": 0.084,
      "velocity": 112,
      "chip": "ym2612"
    },
    {
      "channel": 0,
      "note": 65,
      "start": 153.6551,
      "duration": 0.1505,
      "velocity": 112,
      "chip": "ym2612"
    },
    {
      "channel": 1,
      "note": 53,
      "start": 153.6559,
      "duration": 0.0495,
      "velocity": 120,
      "chip": "ym2612"
    },
    {
      "channel": 2,
      "note": 42,
      "start": 153.6565,
      "duration": 0.1513,
      "velocity": 122,
      "chip": "ym2612"
    },
    {
      "channel": 3,
      "note": 94,
      "start": 153.6579,
      "duration": 0.1505,
      "velocity": 112,
      "chip": "ym2612"
    },
    {
      "channel": 4,
      "note": 65,
      "start": 153.6627,
      "duration": 0.084,
      "velocity": 112,
      "chip": "ym2612"
    },
    {
      "channel": 0,
      "note": 65,
      "start": 153.8068,
      "duration": 0.1505,
      "velocity": 112,
      "chip": "ym2612"
    },
    {
      "channel": 1,
      "note": 53,
      "start": 153.8076,
      "duration": 0.0495,
      "velocity": 120,
      "chip": "ym2612"
    },
    {
      "channel": 2,
      "note": 41,
      "start": 153.8083,
      "duration": 0.1512,
      "velocity": 121,
      "chip": "ym2612"
    },
    {
      "channel": 3,
      "note": 94,
      "start": 153.8097,
      "duration": 0.1504,
      "velocity": 112,
      "chip": "ym2612"
    },
    {
      "channel": 4,
      "note": 65,
      "start": 153.8144,
      "duration": 0.0841,
      "velocity": 112,
      "chip": "ym2612"
    },
    {
      "channel": 0,
      "note": 65,
      "start": 153.9585,
      "duration": 0.1505,
      "velocity": 112,
      "chip": "ym2612"
    },
    {
      "channel": 1,
      "note": 65,
      "start": 153.9593,
      "duration": 0.0495,
      "velocity": 120,
      "chip": "ym2612"
    },
    {
      "channel": 2,
      "note": 41,
      "start": 153.9599,
      "duration": 0.1512,
      "velocity": 120,
      "chip": "ym2612"
    },
    {
      "channel": 3,
      "note": 94,
      "start": 153.9612,
      "duration": 0.1505,
      "velocity": 112,
      "chip": "ym2612"
    },
    {
      "channel": 4,
      "note": 65,
      "start": 153.9661,
      "duration": 0.084,
      "velocity": 112,
      "chip": "ym2612"
    },
    {
      "channel": 0,
      "note": 65,
      "start": 154.1102,
      "duration": 0.1505,
      "velocity": 112,
      "chip": "ym2612"
    },
    {
      "channel": 1,
      "note": 53,
      "start": 154.1109,
      "duration": 0.0495,
      "velocity": 120,
      "chip": "ym2612"
    },
    {
      "channel": 2,
      "note": 42,
      "start": 154.1116,
      "duration": 0.1513,
      "velocity": 119,
      "chip": "ym2612"
    },
    {
      "channel": 3,
      "note": 94,
      "start": 154.1129,
      "duration": 0.1505,
      "velocity": 112,
      "chip": "ym2612"
    },
    {
      "channel": 4,
      "note": 65,
      "start": 154.1177,
      "duration": 0.0841,
      "velocity": 112,
      "chip": "ym2612"
    },
    {
      "channel": 0,
      "note": 65,
      "start": 154.2619,
      "duration": 0.1505,
      "velocity": 112,
      "chip": "ym2612"
    },
    {
      "channel": 1,
      "note": 65,
      "start": 154.2626,
      "duration": 0.0495,
      "velocity": 120,
      "chip": "ym2612"
    },
    {
      "channel": 2,
      "note": 41,
      "start": 154.2633,
      "duration": 0.1512,
      "velocity": 118,
      "chip": "ym2612"
    },
    {
      "channel": 3,
      "note": 94,
      "start": 154.2646,
      "duration": 0.1506,
      "velocity": 112,
      "chip": "ym2612"
    },
    {
      "channel": 4,
      "note": 65,
      "start": 154.2695,
      "duration": 0.084,
      "velocity": 112,
      "chip": "ym2612"
    },
    {
      "channel": 0,
      "note": 65,
      "start": 154.4135,
      "duration": 0.1505,
      "velocity": 112,
      "chip": "ym2612"
    },
    {
      "channel": 1,
      "note": 53,
      "start": 154.4143,
      "duration": 0.0496,
      "velocity": 120,
      "chip": "ym2612"
    },
    {
      "channel": 2,
      "note": 41,
      "start": 154.4149,
      "duration": 0.1513,
      "velocity": 117,
      "chip": "ym2612"
    },
    {
      "channel": 3,
      "note": 94,
      "start": 154.4157,
      "duration": 0.1512,
      "velocity": 112,
      "chip": "ym2612"
    },
    {
      "channel": 4,
      "note": 65,
      "start": 154.4211,
      "duration": 0.084,
      "velocity": 112,
      "chip": "ym2612"
    },
    {
      "channel": 0,
      "note": 65,
      "start": 154.5652,
      "duration": 0.1506,
      "velocity": 112,
      "chip": "ym2612"
    },
    {
      "channel": 1,
      "note": 53,
      "start": 154.5659,
      "duration": 0.0496,
      "velocity": 120,
      "chip": "ym2612"
    },
    {
      "channel": 2,
      "note": 41,
      "start": 154.5666,
      "duration": 0.1512,
      "velocity": 116,
      "chip": "ym2612"
    },
    {
      "channel": 3,
      "note": 94,
      "start": 154.568,
      "duration": 0.1505,
      "velocity": 112,
      "chip": "ym2612"
    },
    {
      "channel": 4,
      "note": 65,
      "start": 154.5728,
      "duration": 0.0841,
      "velocity": 112,
      "chip": "ym2612"
    },
    {
      "channel": 0,
      "note": 65,
      "start": 154.7169,
      "duration": 0.1506,
      "velocity": 112,
      "chip": "ym2612"
    },
    {
      "channel": 1,
      "note": 65,
      "start": 154.7177,
      "duration": 0.0495,
      "velocity": 120,
      "chip": "ym2612"
    },
    {
      "channel": 2,
      "note": 41,
      "start": 154.7183,
      "duration": 0.1506,
      "velocity": 115,
      "chip": "ym2612"
    },
    {
      "channel": 3,
      "note": 94,
      "start": 154.7196,
      "duration": 0.1499,
      "velocity": 112,
      "chip": "ym2612"
    },
    {
      "channel": 4,
      "note": 65,
      "start": 154.7245,
      "duration": 0.084,
      "velocity": 112,
      "chip": "ym2612"
    },
    {
      "channel": 0,
      "note": 65,
      "start": 154.868,
      "duration": 0.1512,
      "velocity": 112,
      "chip": "ym2612"
    },
    {
      "channel": 1,
      "note": 53,
      "start": 154.8688,
      "duration": 0.0501,
      "velocity": 120,
      "chip": "ym2612"
    },
    {
      "channel": 2,
      "note": 41,
      "start": 154.8694,
      "duration": 0.1518,
      "velocity": 114,
      "chip": "ym2612"
    },
    {
      "channel": 3,
      "note": 94,
      "start": 154.8708,
      "duration": 0.1511,
      "velocity": 112,
      "chip": "ym2612"
    },
    {
      "channel": 4,
      "note": 65,
      "start": 154.8761,
      "duration": 0.0841,
      "velocity": 112,
      "chip": "ym2612"
    },
    {
      "channel": 0,
      "note": 65,
      "start": 155.0203,
      "duration": 0.1505,
      "velocity": 112,
      "chip": "ym2612"
    },
    {
      "channel": 1,
      "note": 65,
      "start": 155.021,
      "duration": 0.0495,
      "velocity": 120,
      "chip": "ym2612"
    },
    {
      "channel": 2,
      "note": 29,
      "start": 155.0217,
      "duration": 0.1512,
      "velocity": 113,
      "chip": "ym2612"
    },
    {
      "channel": 3,
      "note": 94,
      "start": 155.023,
      "duration": 0.1506,
      "velocity": 112,
      "chip": "ym2612"
    },
    {
      "channel": 4,
      "note": 65,
      "start": 155.0278,
      "duration": 0.084,
      "velocity": 112,
      "chip": "ym2612"
    },
    {
      "channel": 0,
      "note": 65,
      "start": 155.1719,
      "duration": 0.1505,
      "velocity": 112,
      "chip": "ym2612"
    },
    {
      "channel": 1,
      "note": 65,
      "start": 155.1727,
      "duration": 0.0495,
      "velocity": 120,
      "chip": "ym2612"
    },
    {
      "channel": 2,
      "note": 41,
      "start": 155.1733,
      "duration": 0.1513,
      "velocity": 112,
      "chip": "ym2612"
    },
    {
      "channel": 3,
      "note": 94,
      "start": 155.1747,
      "duration": 0.1506,
      "velocity": 112,
      "chip": "ym2612"
    },
    {
      "channel": 4,
      "note": 65,
      "start": 155.1795,
      "duration": 0.084,
      "velocity": 112,
      "chip": "ym2612"
    },
    {
      "channel": 0,
      "note": 65,
      "start": 155.3237,
      "duration": 0.1505,
      "velocity": 112,
      "chip": "ym2612"
    },
    {
      "channel": 1,
      "note": 53,
      "start": 155.3244,
      "duration": 0.0496,
      "velocity": 120,
      "chip": "ym2612"
    },
    {
      "channel": 2,
      "note": 41,
      "start": 155.3251,
      "duration": 0.1512,
      "velocity": 127,
      "chip": "ym2612"
    },
    {
      "channel": 3,
      "note": 91,
      "start": 155.3264,
      "duration": 0.1505,
      "velocity": 112,
      "chip": "ym2612"
    },
    {
      "channel": 4,
      "note": 65,
      "start": 155.3312,
      "duration": 0.084,
      "velocity": 112,
      "chip": "ym2612"
    },
    {
      "channel": 5,
      "note": 7,
      "start": 155.3319,
      "duration": 2.4264,
      "velocity": 1,
      "chip": "ym2612"
    },
    {
      "channel": 0,
      "note": 65,
      "start": 155.4753,
      "duration": 0.1505,
      "velocity": 112,
      "chip": "ym2612"
    },
    {
      "channel": 1,
      "note": 65,
      "start": 155.4761,
      "duration": 0.0496,
      "velocity": 120,
      "chip": "ym2612"
    },
    {
      "channel": 2,
      "note": 41,
      "start": 155.4767,
      "duration": 0.1513,
      "velocity": 126,
      "chip": "ym2612"
    },
    {
      "channel": 3,
      "note": 91,
      "start": 155.478,
      "duration": 0.1506,
      "velocity": 112,
      "chip": "ym2612"
    },
    {
      "channel": 4,
      "note": 65,
      "start": 155.4829,
      "duration": 0.084,
      "velocity": 112,
      "chip": "ym2612"
    },
    {
      "channel": 0,
      "note": 65,
      "start": 155.627,
      "duration": 0.1506,
      "velocity": 112,
      "chip": "ym2612"
    },
    {
      "channel": 1,
      "note": 53,
      "start": 155.6277,
      "duration": 0.0496,
      "velocity": 120,
      "chip": "ym2612"
    },
    {
      "channel": 2,
      "note": 41,
      "start": 155.6284,
      "duration": 0.1512,
      "velocity": 125,
      "chip": "ym2612"
    },
    {
      "channel": 3,
      "note": 91,
      "start": 155.6298,
      "duration": 0.1505,
      "velocity": 112,
      "chip": "ym2612"
    },
    {
      "channel": 4,
      "note": 65,
      "start": 155.6346,
      "duration": 0.084,
      "velocity": 112,
      "chip": "ym2612"
    },
    {
      "channel": 0,
      "note": 65,
      "start": 155.7787,
      "duration": 0.1505,
      "velocity": 112,
      "chip": "ym2612"
    },
    {
      "channel": 1,
      "note": 53,
      "start": 155.7794,
      "duration": 0.0495,
      "velocity": 120,
      "chip": "ym2612"
    },
    {
      "channel": 2,
      "note": 41,
      "start": 155.7801,
      "duration": 0.1513,
      "velocity": 124,
      "chip": "ym2612"
    },
    {
      "channel": 3,
      "note": 91,
      "start": 155.7814,
      "duration": 0.1506,
      "velocity": 112,
      "chip": "ym2612"
    },
    {
      "channel": 4,
      "note": 65,
      "start": 155.7862,
      "duration": 0.084,
      "velocity": 112,
      "chip": "ym2612"
    },
    {
      "channel": 0,
      "note": 65,
      "start": 155.9303,
      "duration": 0.1506,
      "velocity": 112,
      "chip": "ym2612"
    },
    {
      "channel": 1,
      "note": 65,
      "start": 155.9311,
      "duration": 0.0495,
      "velocity": 120,
      "chip": "ym2612"
    },
    {
      "channel": 2,
      "note": 41,
      "start": 155.9318,
      "duration": 0.1512,
      "velocity": 123,
      "chip": "ym2612"
    },
    {
      "channel": 3,
      "note": 91,
      "start": 155.9331,
      "duration": 0.1505,
      "velocity": 112,
      "chip": "ym2612"
    },
    {
      "channel": 4,
      "note": 65,
      "start": 155.9379,
      "duration": 0.0841,
      "velocity": 112,
      "chip": "ym2612"
    },
    {
      "channel": 0,
      "note": 65,
      "start": 156.082,
      "duration": 0.1505,
      "velocity": 112,
      "chip": "ym2612"
    },
    {
      "channel": 1,
      "note": 53,
      "start": 156.0828,
      "duration": 0.0495,
      "velocity": 120,
      "chip": "ym2612"
    },
    {
      "channel": 2,
      "note": 42,
      "start": 156.0834,
      "duration": 0.1512,
      "velocity": 122,
      "chip": "ym2612"
    },
    {
      "channel": 3,
      "note": 91,
      "start": 156.0848,
      "duration": 0.1505,
      "velocity": 112,
      "chip": "ym2612"
    },
    {
      "channel": 4,
      "note": 65,
      "start": 156.0896,
      "duration": 0.0841,
      "velocity": 112,
      "chip": "ym2612"
    },
    {
      "channel": 0,
      "note": 65,
      "start": 156.2337,
      "duration": 0.1505,
      "velocity": 112,
      "chip": "ym2612"
    },
    {
      "channel": 1,
      "note": 53,
      "start": 156.2345,
      "duration": 0.0495,
      "velocity": 120,
      "chip": "ym2612"
    },
    {
      "channel": 2,
      "note": 41,
      "start": 156.2351,
      "duration": 0.1513,
      "velocity": 121,
      "chip": "ym2612"
    },
    {
      "channel": 3,
      "note": 91,
      "start": 156.2365,
      "duration": 0.1505,
      "velocity": 112,
      "chip": "ym2612"
    },
    {
      "channel": 4,
      "note": 65,
      "start": 156.2413,
      "duration": 0.0841,
      "velocity": 112,
      "chip": "ym2612"
    },
    {
      "channel": 0,
      "note": 65,
      "start": 156.3854,
      "duration": 0.1505,
      "velocity": 112,
      "chip": "ym2612"
    },
    {
      "channel": 1,
      "note": 65,
      "start": 156.3861,
      "duration": 0.0495,
      "velocity": 120,
      "chip": "ym2612"
    },
    {
      "channel": 2,
      "note": 41,
      "start": 156.3868,
      "duration": 0.1512,
      "velocity": 120,
      "chip": "ym2612"
    },
    {
      "channel": 3,
      "note": 91,
      "start": 156.3881,
      "duration": 0.1505,
      "velocity": 112,
      "chip": "ym2612"
    },
    {
      "channel": 4,
      "note": 65,
      "start": 156.393,
      "duration": 0.084,
      "velocity": 112,
      "chip": "ym2612"
    },
    {
      "channel": 0,
      "note": 65,
      "start": 156.5371,
      "duration": 0.1505,
      "velocity": 112,
      "chip": "ym2612"
    },
    {
      "channel": 1,
      "note": 53,
      "start": 156.5378,
      "duration": 0.0496,
      "velocity": 120,
      "chip": "ym2612"
    },
    {
      "channel": 2,
      "note": 42,
      "start": 156.5385,
      "duration": 0.1513,
      "velocity": 119,
      "chip": "ym2612"
    },
    {
      "channel": 3,
      "note": 91,
      "start": 156.5398,
      "duration": 0.1506,
      "velocity": 112,
      "chip": "ym2612"
    },
    {
      "channel": 4,
      "note": 65,
      "start": 156.5446,
      "duration": 0.084,
      "velocity": 112,
      "chip": "ym2612"
    },
    {
      "channel": 0,
      "note": 65,
      "start": 156.6887,
      "duration": 0.1506,
      "velocity": 112,
      "chip": "ym2612"
    },
    {
      "channel": 1,
      "note": 65,
      "start": 156.6895,
      "duration": 0.0496,
      "velocity": 120,
      "chip": "ym2612"
    },
    {
      "channel": 2,
      "note": 41,
      "start": 156.6902,
      "duration": 0.1506,
      "velocity": 118,
      "chip": "ym2612"
    },
    {
      "channel": 3,
      "note": 91,
      "start": 156.6916,
      "duration": 0.1499,
      "velocity": 112,
      "chip": "ym2612"
    },
    {
      "channel": 4,
      "note": 65,
      "start": 156.6963,
      "duration": 0.0841,
      "velocity": 112,
      "chip": "ym2612"
    },
    {
      "channel": 0,
      "note": 65,
      "start": 156.8399,
      "duration": 0.1511,
      "velocity": 112,
      "chip": "ym2612"
    },
    {
      "channel": 1,
      "note": 53,
      "start": 156.8406,
      "duration": 0.0501,
      "velocity": 120,
      "chip": "ym2612"
    },
    {
      "channel": 2,
      "note": 41,
      "start": 156.8413,
      "duration": 0.1518,
      "velocity": 117,
      "chip": "ym2612"
    },
    {
      "channel": 3,
      "note": 91,
      "start": 156.8421,
      "duration": 0.1517,
      "velocity": 112,
      "chip": "ym2612"
    },
    {
      "channel": 4,
      "note": 65,
      "start": 156.848,
      "duration": 0.084,
      "velocity": 112,
      "chip": "ym2612"
    },
    {
      "channel": 0,
      "note": 65,
      "start": 156.9921,
      "duration": 0.1505,
      "velocity": 112,
      "chip": "ym2612"
    },
    {
      "channel": 1,
      "note": 53,
      "start": 156.9929,
      "duration": 0.0495,
      "velocity": 120,
      "chip": "ym2612"
    },
    {
      "channel": 2,
      "note": 41,
      "start": 156.9936,
      "duration": 0.1512,
      "velocity": 116,
      "chip": "ym2612"
    },
    {
      "channel": 3,
      "note": 91,
      "start": 156.9949,
      "duration": 0.1505,
      "velocity": 112,
      "chip": "ym2612"
    },
    {
      "channel": 4,
      "note": 65,
      "start": 156.9997,
      "duration": 0.0841,
      "velocity": 112,
      "chip": "ym2612"
    },
    {
      "channel": 0,
      "note": 65,
      "start": 157.1438,
      "duration": 0.1505,
      "velocity": 112,
      "chip": "ym2612"
    },
    {
      "channel": 1,
      "note": 65,
      "start": 157.1445,
      "duration": 0.0495,
      "velocity": 120,
      "chip": "ym2612"
    },
    {
      "channel": 2,
      "note": 41,
      "start": 157.1452,
      "duration": 0.1512,
      "velocity": 115,
      "chip": "ym2612"
    },
    {
      "channel": 3,
      "note": 91,
      "start": 157.1466,
      "duration": 0.1505,
      "velocity": 112,
      "chip": "ym2612"
    },
    {
      "channel": 4,
      "note": 65,
      "start": 157.1514,
      "duration": 0.084,
      "velocity": 112,
      "chip": "ym2612"
    },
    {
      "channel": 0,
      "note": 65,
      "start": 157.2955,
      "duration": 0.1505,
      "velocity": 112,
      "chip": "ym2612"
    },
    {
      "channel": 1,
      "note": 53,
      "start": 157.2962,
      "duration": 0.0495,
      "velocity": 120,
      "chip": "ym2612"
    },
    {
      "channel": 2,
      "note": 41,
      "start": 157.2969,
      "duration": 0.1513,
      "velocity": 114,
      "chip": "ym2612"
    },
    {
      "channel": 3,
      "note": 91,
      "start": 157.2983,
      "duration": 0.1505,
      "velocity": 112,
      "chip": "ym2612"
    },
    {
      "channel": 4,
      "note": 65,
      "start": 157.303,
      "duration": 0.084,
      "velocity": 112,
      "chip": "ym2612"
    },
    {
      "channel": 0,
      "note": 65,
      "start": 157.4472,
      "duration": 0.1505,
      "velocity": 112,
      "chip": "ym2612"
    },
    {
      "channel": 1,
      "note": 53,
      "start": 157.4479,
      "duration": 0.0495,
      "velocity": 120,
      "chip": "ym2612"
    },
    {
      "channel": 2,
      "note": 29,
      "start": 157.4486,
      "duration": 0.1512,
      "velocity": 113,
      "chip": "ym2612"
    },
    {
      "channel": 3,
      "note": 91,
      "start": 157.4499,
      "duration": 0.1505,
      "velocity": 112,
      "chip": "ym2612"
    },
    {
      "channel": 4,
      "note": 65,
      "start": 157.4548,
      "duration": 0.084,
      "velocity": 112,
      "chip": "ym2612"
    },
    {
      "channel": 0,
      "note": 65,
      "start": 157.5988,
      "duration": 0.1505,
      "velocity": 112,
      "chip": "ym2612"
    },
    {
      "channel": 1,
      "note": 65,
      "start": 157.5996,
      "duration": 0.0496,
      "velocity": 120,
      "chip": "ym2612"
    },
    {
      "channel": 2,
      "note": 41,
      "start": 157.6002,
      "duration": 0.1513,
      "velocity": 112,
      "chip": "ym2612"
    },
    {
      "channel": 3,
      "note": 91,
      "start": 157.6016,
      "duration": 0.1506,
      "velocity": 112,
      "chip": "ym2612"
    },
    {
      "channel": 4,
      "note": 65,
      "start": 157.6064,
      "duration": 0.0841,
      "velocity": 112,
      "chip": "ym2612"
    },
    {
      "channel": 0,
      "note": 65,
      "start": 157.7505,
      "duration": 0.1506,
      "velocity": 112,
      "chip": "ym2612"
    },
    {
      "channel": 1,
      "note": 53,
      "start": 157.7512,
      "duration": 0.0496,
      "velocity": 120,
      "chip": "ym2612"
    },
    {
      "channel": 2,
      "note": 41,
      "start": 157.752,
      "duration": 0.1512,
      "velocity": 127,
      "chip": "ym2612"
    },
    {
      "channel": 3,
      "note": 92,
      "start": 157.7533,
      "duration": 0.1505,
      "velocity": 112,
      "chip": "ym2612"
    },
    {
      "channel": 4,
      "note": 65,
      "start": 157.7581,
      "duration": 0.084,
      "velocity": 112,
      "chip": "ym2612"
    },
    {
      "channel": 5,
      "note": 7,
      "start": 157.7588,
      "duration": 2.427,
      "velocity": 1,
      "chip": "ym2612"
    },
    {
      "channel": 0,
      "note": 65,
      "start": 157.9022,
      "duration": 0.1505,
      "velocity": 112,
      "chip": "ym2612"
    },
    {
      "channel": 1,
      "note": 65,
      "start": 157.903,
      "duration": 0.0495,
      "velocity": 120,
      "chip": "ym2612"
    },
    {
      "channel": 2,
      "note": 41,
      "start": 157.9036,
      "duration": 0.1512,
      "velocity": 126,
      "chip": "ym2612"
    },
    {
      "channel": 3,
      "note": 92,
      "start": 157.9049,
      "duration": 0.1505,
      "velocity": 112,
      "chip": "ym2612"
    },
    {
      "channel": 4,
      "note": 65,
      "start": 157.9098,
      "duration": 0.084,
      "velocity": 112,
      "chip": "ym2612"
    },
    {
      "channel": 0,
      "note": 65,
      "start": 158.0539,
      "duration": 0.1505,
      "velocity": 112,
      "chip": "ym2612"
    },
    {
      "channel": 1,
      "note": 53,
      "start": 158.0546,
      "duration": 0.0495,
      "velocity": 120,
      "chip": "ym2612"
    },
    {
      "channel": 2,
      "note": 41,
      "start": 158.0553,
      "duration": 0.1513,
      "velocity": 125,
      "chip": "ym2612"
    },
    {
      "channel": 3,
      "note": 92,
      "start": 158.0567,
      "duration": 0.1506,
      "velocity": 112,
      "chip": "ym2612"
    },
    {
      "channel": 4,
      "note": 65,
      "start": 158.0614,
      "duration": 0.0841,
      "velocity": 112,
      "chip": "ym2612"
    },
    {
      "channel": 0,
      "note": 65,
      "start": 158.2056,
      "duration": 0.1505,
      "velocity": 112,
      "chip": "ym2612"
    },
    {
      "channel": 1,
      "note": 53,
      "start": 158.2063,
      "duration": 0.0495,
      "velocity": 120,
      "chip": "ym2612"
    },
    {
      "channel": 2,
      "note": 41,
      "start": 158.2071,
      "duration": 0.1506,
      "velocity": 124,
      "chip": "ym2612"
    },
    {
      "channel": 3,
      "note": 92,
      "start": 158.2084,
      "duration": 0.15,
      "velocity": 112,
      "chip": "ym2612"
    },
    {
      "channel": 4,
      "note": 65,
      "start": 158.2132,
      "duration": 0.084,
      "velocity": 112,
      "chip": "ym2612"
    },
    {
      "channel": 0,
      "note": 65,
      "start": 158.3567,
      "duration": 0.1511,
      "velocity": 112,
      "chip": "ym2612"
    },
    {
      "channel": 1,
      "note": 65,
      "start": 158.3574,
      "duration": 0.0502,
      "velocity": 120,
      "chip": "ym2612"
    },
    {
      "channel": 2,
      "note": 41,
      "start": 158.3581,
      "duration": 0.1518,
      "velocity": 123,
      "chip": "ym2612"
    },
    {
      "channel": 3,
      "note": 92,
      "start": 158.3595,
      "duration": 0.1511,
      "velocity": 112,
      "chip": "ym2612"
    },
    {
      "channel": 4,
      "note": 65,
      "start": 158.3648,
      "duration": 0.084,
      "velocity": 112,
      "chip": "ym2612"
    },
    {
      "channel": 0,
      "note": 65,
      "start": 158.509,
      "duration": 0.1505,
      "velocity": 112,
      "chip": "ym2612"
    },
    {
      "channel": 1,
      "note": 53,
      "start": 158.5097,
      "duration": 0.0495,
      "velocity": 120,
      "chip": "ym2612"
    },
    {
      "channel": 2,
      "note": 42,
      "start": 158.5103,
      "duration": 0.1512,
      "velocity": 122,
      "chip": "ym2612"
    },
    {
      "channel": 3,
      "note": 92,
      "start": 158.5117,
      "duration": 0.1505,
      "velocity": 112,
      "chip": "ym2612"
    },
    {
      "channel": 4,
      "note": 65,
      "start": 158.5165,
      "duration": 0.084,
      "velocity": 112,
      "chip": "ym2612"
    },
    {
      "channel": 0,
      "note": 65,
      "start": 158.6606,
      "duration": 0.1505,
      "velocity": 112,
      "chip": "ym2612"
    },
    {
      "channel": 1,
      "note": 53,
      "start": 158.6614,
      "duration": 0.0496,
      "velocity": 120,
      "chip": "ym2612"
    },
    {
      "channel": 2,
      "note": 41,
      "start": 158.662,
      "duration": 0.1513,
      "velocity": 121,
      "chip": "ym2612"
    },
    {
      "channel": 3,
      "note": 92,
      "start": 158.6633,
      "duration": 0.1506,
      "velocity": 112,
      "chip": "ym2612"
    },
    {
      "channel": 4,
      "note": 65,
      "start": 158.6682,
      "duration": 0.084,
      "velocity": 112,
      "chip": "ym2612"
    },
    {
      "channel": 0,
      "note": 65,
      "start": 158.8123,
      "duration": 0.1506,
      "velocity": 112,
      "chip": "ym2612"
    },
    {
      "channel": 1,
      "note": 65,
      "start": 158.813,
      "duration": 0.0496,
      "velocity": 120,
      "chip": "ym2612"
    },
    {
      "channel": 2,
      "note": 41,
      "start": 158.8137,
      "duration": 0.1512,
      "velocity": 120,
      "chip": "ym2612"
    },
    {
      "channel": 3,
      "note": 92,
      "start": 158.8151,
      "duration": 0.1505,
      "velocity": 112,
      "chip": "ym2612"
    },
    {
      "channel": 4,
      "note": 65,
      "start": 158.8199,
      "duration": 0.084,
      "velocity": 112,
      "chip": "ym2612"
    },
    {
      "channel": 0,
      "note": 65,
      "start": 158.964,
      "duration": 0.1505,
      "velocity": 112,
      "chip": "ym2612"
    },
    {
      "channel": 1,
      "note": 53,
      "start": 158.9647,
      "duration": 0.0495,
      "velocity": 120,
      "chip": "ym2612"
    },
    {
      "channel": 2,
      "note": 42,
      "start": 158.9654,
      "duration": 0.1513,
      "velocity": 119,
      "chip": "ym2612"
    },
    {
      "channel": 3,
      "note": 92,
      "start": 158.9667,
      "duration": 0.1506,
      "velocity": 112,
      "chip": "ym2612"
    },
    {
      "channel": 4,
      "note": 65,
      "start": 158.9715,
      "duration": 0.084,
      "velocity": 112,
      "chip": "ym2612"
    },
    {
      "channel": 0,
      "note": 65,
      "start": 159.1156,
      "duration": 0.1505,
      "velocity": 112,
      "chip": "ym2612"
    },
    {
      "channel": 1,
      "note": 65,
      "start": 159.1164,
      "duration": 0.0495,
      "velocity": 120,
      "chip": "ym2612"
    },
    {
      "channel": 2,
      "note": 41,
      "start": 159.1171,
      "duration": 0.1512,
      "velocity": 118,
      "chip": "ym2612"
    },
    {
      "channel": 3,
      "note": 92,
      "start": 159.1184,
      "duration": 0.1505,
      "velocity": 112,
      "chip": "ym2612"
    },
    {
      "channel": 4,
      "note": 65,
      "start": 159.1232,
      "duration": 0.0841,
      "velocity": 112,
      "chip": "ym2612"
    },
    {
      "channel": 0,
      "note": 65,
      "start": 159.2673,
      "duration": 0.1505,
      "velocity": 112,
      "chip": "ym2612"
    },
    {
      "channel": 1,
      "note": 53,
      "start": 159.268,
      "duration": 0.0495,
      "velocity": 120,
      "chip": "ym2612"
    },
    {
      "channel": 2,
      "note": 41,
      "start": 159.2688,
      "duration": 0.1512,
      "velocity": 117,
      "chip": "ym2612"
    },
    {
      "channel": 3,
      "note": 92,
      "start": 159.2695,
      "duration": 0.1511,
      "velocity": 112,
      "chip": "ym2612"
    },
    {
      "channel": 4,
      "note": 65,
      "start": 159.2749,
      "duration": 0.084,
      "velocity": 112,
      "chip": "ym2612"
    },
    {
      "channel": 0,
      "note": 65,
      "start": 159.419,
      "duration": 0.1505,
      "velocity": 112,
      "chip": "ym2612"
    },
    {
      "channel": 1,
      "note": 53,
      "start": 159.4198,
      "duration": 0.0495,
      "velocity": 120,
      "chip": "ym2612"
    },
    {
      "channel": 2,
      "note": 41,
      "start": 159.4204,
      "duration": 0.1513,
      "velocity": 116,
      "chip": "ym2612"
    },
    {
      "channel": 3,
      "note": 92,
      "start": 159.4218,
      "duration": 0.1505,
      "velocity": 112,
      "chip": "ym2612"
    },
    {
      "channel": 4,
      "note": 65,
      "start": 159.4266,
      "duration": 0.084,
      "velocity": 112,
      "chip": "ym2612"
    },
    {
      "channel": 0,
      "note": 65,
      "start": 159.5707,
      "duration": 0.1506,
      "velocity": 112,
      "chip": "ym2612"
    },
    {
      "channel": 1,
      "note": 65,
      "start": 159.5714,
      "duration": 0.0495,
      "velocity": 120,
      "chip": "ym2612"
    },
    {
      "channel": 2,
      "note": 41,
      "start": 159.5721,
      "duration": 0.1507,
      "velocity": 115,
      "chip": "ym2612"
    },
    {
      "channel": 3,
      "note": 92,
      "start": 159.5735,
      "duration": 0.1499,
      "velocity": 112,
      "chip": "ym2612"
    },
    {
      "channel": 4,
      "note": 65,
      "start": 159.5783,
      "duration": 0.084,
      "velocity": 112,
      "chip": "ym2612"
    },
    {
      "channel": 0,
      "note": 65,
      "start": 159.7218,
      "duration": 0.1511,
      "velocity": 112,
      "chip": "ym2612"
    },
    {
      "channel": 1,
      "note": 53,
      "start": 159.7226,
      "duration": 0.0501,
      "velocity": 120,
      "chip": "ym2612"
    },
    {
      "channel": 2,
      "note": 41,
      "start": 159.7232,
      "duration": 0.1519,
      "velocity": 114,
      "chip": "ym2612"
    },
    {
      "channel": 3,
      "note": 92,
      "start": 159.7246,
      "duration": 0.1511,
      "velocity": 112,
      "chip": "ym2612"
    },
    {
      "channel": 4,
      "note": 65,
      "start": 159.73,
      "duration": 0.084,
      "velocity": 112,
      "chip": "ym2612"
    },
    {
      "channel": 0,
      "note": 65,
      "start": 159.8741,
      "duration": 0.1505,
      "velocity": 112,
      "chip": "ym2612"
    },
    {
      "channel": 1,
      "note": 65,
      "start": 159.8749,
      "duration": 0.0495,
      "velocity": 120,
      "chip": "ym2612"
    },
    {
      "channel": 2,
      "note": 29,
      "start": 159.8756,
      "duration": 0.1511,
      "velocity": 113,
      "chip": "ym2612"
    },
    {
      "channel": 3,
      "note": 92,
      "start": 159.8769,
      "duration": 0.1504,
      "velocity": 112,
      "chip": "ym2612"
    },
    {
      "channel": 4,
      "note": 65,
      "start": 159.8816,
      "duration": 0.0841,
      "velocity": 112,
      "chip": "ym2612"
    },
    {
      "channel": 0,
      "note": 65,
      "start": 160.0257,
      "duration": 0.1505,
      "velocity": 112,
      "chip": "ym2612"
    },
    {
      "channel": 1,
      "note": 65,
      "start": 160.0265,
      "duration": 0.0495,
      "velocity": 120,
      "chip": "ym2612"
    },
    {
      "channel": 2,
      "note": 41,
      "start": 160.0271,
      "duration": 0.1518,
      "velocity": 112,
      "chip": "ym2612"
    },
    {
      "channel": 3,
      "note": 92,
      "start": 160.0285,
      "duration": 0.1519,
      "velocity": 112,
      "chip": "ym2612"
    },
    {
      "channel": 4,
      "note": 65,
      "start": 160.0333,
      "duration": 0.084,
      "velocity": 112,
      "chip": "ym2612"
    },
    {
      "channel": 0,
      "note": 65,
      "start": 160.1774,
      "duration": 0.1505,
      "velocity": 112,
      "chip": "ym2612"
    },
    {
      "channel": 1,
      "note": 65,
      "start": 160.1787,
      "duration": 0.0826,
      "velocity": 112,
      "chip": "ym2612"
    },
    {
      "channel": 2,
      "note": 53,
      "start": 160.1802,
      "duration": 0.0313,
      "velocity": 105,
      "chip": "ym2612"
    },
    {
      "channel": 3,
      "note": 89,
      "start": 160.1815,
      "duration": 0.1491,
      "velocity": 112,
      "chip": "ym2612"
    },
    {
      "channel": 4,
      "note": 7,
      "start": 160.1855,
      "duration": 2.4259,
      "velocity": 1,
      "chip": "ym2612"
    },
    {
      "channel": 5,
      "note": 7,
      "start": 160.1863,
      "duration": 2.4258,
      "velocity": 1,
      "chip": "ym2612"
    },
    {
      "channel": 0,
      "note": 65,
      "start": 160.3291,
      "duration": 0.1505,
      "velocity": 112,
      "chip": "ym2612"
    },
    {
      "channel": 1,
      "note": 65,
      "start": 160.3298,
      "duration": 0.0833,
      "velocity": 112,
      "chip": "ym2612"
    },
    {
      "channel": 3,
      "note": 89,
      "start": 160.3319,
      "duration": 0.1504,
      "velocity": 112,
      "chip": "ym2612"
    },
    {
      "channel": 0,
      "note": 65,
      "start": 160.4808,
      "duration": 0.1505,
      "velocity": 112,
      "chip": "ym2612"
    },
    {
      "channel": 1,
      "note": 65,
      "start": 160.4815,
      "duration": 0.0832,
      "velocity": 112,
      "chip": "ym2612"
    },
    {
      "channel": 3,
      "note": 89,
      "start": 160.4835,
      "duration": 0.1505,
      "velocity": 112,
      "chip": "ym2612"
    },
    {
      "channel": 0,
      "note": 65,
      "start": 160.6324,
      "duration": 0.1506,
      "velocity": 112,
      "chip": "ym2612"
    },
    {
      "channel": 1,
      "note": 65,
      "start": 160.6331,
      "duration": 0.0833,
      "velocity": 112,
      "chip": "ym2612"
    },
    {
      "channel": 3,
      "note": 89,
      "start": 160.6352,
      "duration": 0.1505,
      "velocity": 112,
      "chip": "ym2612"
    },
    {
      "channel": 0,
      "note": 65,
      "start": 160.7841,
      "duration": 0.1505,
      "velocity": 112,
      "chip": "ym2612"
    },
    {
      "channel": 1,
      "note": 65,
      "start": 160.7849,
      "duration": 0.0832,
      "velocity": 112,
      "chip": "ym2612"
    },
    {
      "channel": 3,
      "note": 89,
      "start": 160.7869,
      "duration": 0.1505,
      "velocity": 112,
      "chip": "ym2612"
    },
    {
      "channel": 0,
      "note": 65,
      "start": 160.9358,
      "duration": 0.1506,
      "velocity": 112,
      "chip": "ym2612"
    },
    {
      "channel": 1,
      "note": 65,
      "start": 160.9365,
      "duration": 0.0833,
      "velocity": 112,
      "chip": "ym2612"
    },
    {
      "channel": 3,
      "note": 89,
      "start": 160.9385,
      "duration": 0.1505,
      "velocity": 112,
      "chip": "ym2612"
    },
    {
      "channel": 0,
      "note": 65,
      "start": 161.0875,
      "duration": 0.1505,
      "velocity": 112,
      "chip": "ym2612"
    },
    {
      "channel": 1,
      "note": 65,
      "start": 161.0882,
      "duration": 0.0832,
      "velocity": 112,
      "chip": "ym2612"
    },
    {
      "channel": 3,
      "note": 89,
      "start": 161.0902,
      "duration": 0.1505,
      "velocity": 112,
      "chip": "ym2612"
    },
    {
      "channel": 0,
      "note": 65,
      "start": 161.2392,
      "duration": 0.1505,
      "velocity": 112,
      "chip": "ym2612"
    },
    {
      "channel": 1,
      "note": 65,
      "start": 161.2399,
      "duration": 0.0833,
      "velocity": 112,
      "chip": "ym2612"
    },
    {
      "channel": 3,
      "note": 89,
      "start": 161.2419,
      "duration": 0.1508,
      "velocity": 112,
      "chip": "ym2612"
    },
    {
      "channel": 0,
      "note": 65,
      "start": 161.3909,
      "duration": 0.1505,
      "velocity": 112,
      "chip": "ym2612"
    },
    {
      "channel": 1,
      "note": 65,
      "start": 161.3916,
      "duration": 0.0832,
      "velocity": 112,
      "chip": "ym2612"
    },
    {
      "channel": 2,
      "note": 53,
      "start": 161.3925,
      "duration": 0.0324,
      "velocity": 105,
      "chip": "ym2612"
    },
    {
      "channel": 3,
      "note": 89,
      "start": 161.3939,
      "duration": 0.1502,
      "velocity": 112,
      "chip": "ym2612"
    },
    {
      "channel": 0,
      "note": 65,
      "start": 161.5425,
      "duration": 0.1506,
      "velocity": 112,
      "chip": "ym2612"
    },
    {
      "channel": 1,
      "note": 65,
      "start": 161.5432,
      "duration": 0.0832,
      "velocity": 112,
      "chip": "ym2612"
    },
    {
      "channel": 3,
      "note": 89,
      "start": 161.5453,
      "duration": 0.15,
      "velocity": 112,
      "chip": "ym2612"
    },
    {
      "channel": 0,
      "note": 65,
      "start": 161.6936,
      "duration": 0.1511,
      "velocity": 112,
      "chip": "ym2612"
    },
    {
      "channel": 1,
      "note": 65,
      "start": 161.6943,
      "duration": 0.0838,
      "velocity": 112,
      "chip": "ym2612"
    },
    {
      "channel": 3,
      "note": 89,
      "start": 161.6958,
      "duration": 0.1517,
      "velocity": 112,
      "chip": "ym2612"
    },
    {
      "channel": 0,
      "note": 65,
      "start": 161.8459,
      "duration": 0.1505,
      "velocity": 112,
      "chip": "ym2612"
    },
    {
      "channel": 1,
      "note": 65,
      "start": 161.8466,
      "duration": 0.0832,
      "velocity": 112,
      "chip": "ym2612"
    },
    {
      "channel": 3,
      "note": 89,
      "start": 161.8486,
      "duration": 0.1505,
      "velocity": 112,
      "chip": "ym2612"
    },
    {
      "channel": 0,
      "note": 65,
      "start": 161.9976,
      "duration": 0.1506,
      "velocity": 112,
      "chip": "ym2612"
    },
    {
      "channel": 1,
      "note": 65,
      "start": 161.9983,
      "duration": 0.0833,
      "velocity": 112,
      "chip": "ym2612"
    },
    {
      "channel": 3,
      "note": 89,
      "start": 162.0003,
      "duration": 0.1505,
      "velocity": 112,
      "chip": "ym2612"
    },
    {
      "channel": 0,
      "note": 65,
      "start": 162.1493,
      "duration": 0.1505,
      "velocity": 112,
      "chip": "ym2612"
    },
    {
      "channel": 1,
      "note": 65,
      "start": 162.15,
      "duration": 0.0832,
      "velocity": 112,
      "chip": "ym2612"
    },
    {
      "channel": 3,
      "note": 89,
      "start": 162.152,
      "duration": 0.1505,
      "velocity": 112,
      "chip": "ym2612"
    },
    {
      "channel": 0,
      "note": 65,
      "start": 162.3009,
      "duration": 0.1505,
      "velocity": 112,
      "chip": "ym2612"
    },
    {
      "channel": 1,
      "note": 65,
      "start": 162.3016,
      "duration": 0.0832,
      "velocity": 112,
      "chip": "ym2612"
    },
    {
      "channel": 3,
      "note": 89,
      "start": 162.3037,
      "duration": 0.1505,
      "velocity": 112,
      "chip": "ym2612"
    },
    {
      "channel": 0,
      "note": 65,
      "start": 162.4527,
      "duration": 0.1505,
      "velocity": 112,
      "chip": "ym2612"
    },
    {
      "channel": 1,
      "note": 65,
      "start": 162.4533,
      "duration": 0.0833,
      "velocity": 112,
      "chip": "ym2612"
    },
    {
      "channel": 3,
      "note": 89,
      "start": 162.4553,
      "duration": 0.1508,
      "velocity": 112,
      "chip": "ym2612"
    },
    {
      "channel": 0,
      "note": 65,
      "start": 162.6043,
      "duration": 0.1505,
      "velocity": 112,
      "chip": "ym2612"
    },
    {
      "channel": 1,
      "note": 65,
      "start": 162.605,
      "duration": 0.0832,
      "velocity": 112,
      "chip": "ym2612"
    },
    {
      "channel": 2,
      "note": 53,
      "start": 162.6059,
      "duration": 0.0325,
      "velocity": 105,
      "chip": "ym2612"
    },
    {
      "channel": 3,
      "note": 89,
      "start": 162.6073,
      "duration": 0.1503,
      "velocity": 112,
      "chip": "ym2612"
    },
    {
      "channel": 4,
      "note": 7,
      "start": 162.6119,
      "duration": 2.4264,
      "velocity": 1,
      "chip": "ym2612"
    },
    {
      "channel": 5,
      "note": 7,
      "start": 162.6126,
      "duration": 2.5104,
      "velocity": 1,
      "chip": "ym2612"
    },
    {
      "channel": 0,
      "note": 65,
      "start": 162.756,
      "duration": 0.1506,
      "velocity": 112,
      "chip": "ym2612"
    },
    {
      "channel": 1,
      "note": 65,
      "start": 162.7567,
      "duration": 0.0833,
      "velocity": 112,
      "chip": "ym2612"
    },
    {
      "channel": 3,
      "note": 89,
      "start": 162.7588,
      "duration": 0.1505,
      "velocity": 112,
      "chip": "ym2612"
    },
    {
      "channel": 0,
      "note": 65,
      "start": 162.9077,
      "duration": 0.1505,
      "velocity": 112,
      "chip": "ym2612"
    },
    {
      "channel": 1,
      "note": 65,
      "start": 162.9084,
      "duration": 0.0832,
      "velocity": 112,
      "chip": "ym2612"
    },
    {
      "channel": 3,
      "note": 89,
      "start": 162.9105,
      "duration": 0.1505,
      "velocity": 112,
      "chip": "ym2612"
    },
    {
      "channel": 0,
      "note": 65,
      "start": 163.0593,
      "duration": 0.1506,
      "velocity": 112,
      "chip": "ym2612"
    },
    {
      "channel": 1,
      "note": 65,
      "start": 163.06,
      "duration": 0.0833,
      "velocity": 112,
      "chip": "ym2612"
    },
    {
      "channel": 3,
      "note": 89,
      "start": 163.0621,
      "duration": 0.1499,
      "velocity": 112,
      "chip": "ym2612"
    },
    {
      "channel": 0,
      "note": 65,
      "start": 163.2105,
      "duration": 0.1511,
      "velocity": 112,
      "chip": "ym2612"
    },
    {
      "channel": 1,
      "note": 65,
      "start": 163.2112,
      "duration": 0.0838,
      "velocity": 112,
      "chip": "ym2612"
    },
    {
      "channel": 3,
      "note": 89,
      "start": 163.2132,
      "duration": 0.151,
      "velocity": 112,
      "chip": "ym2612"
    },
    {
      "channel": 0,
      "note": 65,
      "start": 163.3627,
      "duration": 0.1505,
      "velocity": 112,
      "chip": "ym2612"
    },
    {
      "channel": 1,
      "note": 65,
      "start": 163.3634,
      "duration": 0.0832,
      "velocity": 112,
      "chip": "ym2612"
    },
    {
      "channel": 3,
      "note": 89,
      "start": 163.3654,
      "duration": 0.1505,
      "velocity": 112,
      "chip": "ym2612"
    },
    {
      "channel": 0,
      "note": 65,
      "start": 163.5144,
      "duration": 0.1505,
      "velocity": 112,
      "chip": "ym2612"
    },
    {
      "channel": 1,
      "note": 65,
      "start": 163.5151,
      "duration": 0.0833,
      "velocity": 112,
      "chip": "ym2612"
    },
    {
      "channel": 3,
      "note": 89,
      "start": 163.5171,
      "duration": 0.1505,
      "velocity": 112,
      "chip": "ym2612"
    },
    {
      "channel": 0,
      "note": 65,
      "start": 163.6661,
      "duration": 0.1505,
      "velocity": 112,
      "chip": "ym2612"
    },
    {
      "channel": 1,
      "note": 65,
      "start": 163.6668,
      "duration": 0.0832,
      "velocity": 112,
      "chip": "ym2612"
    },
    {
      "channel": 3,
      "note": 89,
      "start": 163.6688,
      "duration": 0.1507,
      "velocity": 112,
      "chip": "ym2612"
    },
    {
      "channel": 0,
      "note": 65,
      "start": 163.8177,
      "duration": 0.1506,
      "velocity": 112,
      "chip": "ym2612"
    },
    {
      "channel": 1,
      "note": 65,
      "start": 163.8184,
      "duration": 0.0833,
      "velocity": 112,
      "chip": "ym2612"
    },
    {
      "channel": 2,
      "note": 53,
      "start": 163.8194,
      "duration": 0.0324,
      "velocity": 105,
      "chip": "ym2612"
    },
    {
      "channel": 3,
      "note": 89,
      "start": 163.8207,
      "duration": 0.1503,
      "velocity": 112,
      "chip": "ym2612"
    },
    {
      "channel": 0,
      "note": 65,
      "start": 163.9695,
      "duration": 0.1505,
      "velocity": 112,
      "chip": "ym2612"
    },
    {
      "channel": 1,
      "note": 65,
      "start": 163.9701,
      "duration": 0.0832,
      "velocity": 112,
      "chip": "ym2612"
    },
    {
      "channel": 3,
      "note": 89,
      "start": 163.9722,
      "duration": 0.1506,
      "velocity": 112,
      "chip": "ym2612"
    },
    {
      "channel": 0,
      "note": 65,
      "start": 164.1211,
      "duration": 0.1506,
      "velocity": 112,
      "chip": "ym2612"
    },
    {
      "channel": 1,
      "note": 65,
      "start": 164.1218,
      "duration": 0.0833,
      "velocity": 112,
      "chip": "ym2612"
    },
    {
      "channel": 3,
      "note": 89,
      "start": 164.1233,
      "duration": 0.1511,
      "velocity": 112,
      "chip": "ym2612"
    },
    {
      "channel": 0,
      "note": 65,
      "start": 164.2728,
      "duration": 0.1505,
      "velocity": 112,
      "chip": "ym2612"
    },
    {
      "channel": 1,
      "note": 65,
      "start": 164.2735,
      "duration": 0.0833,
      "velocity": 112,
      "chip": "ym2612"
    },
    {
      "channel": 3,
      "note": 89,
      "start": 164.2756,
      "duration": 0.1505,
      "velocity": 112,
      "chip": "ym2612"
    },
    {
      "channel": 0,
      "note": 65,
      "start": 164.4245,
      "duration": 0.1505,
      "velocity": 112,
      "chip": "ym2612"
    },
    {
      "channel": 1,
      "note": 65,
      "start": 164.4252,
      "duration": 0.0831,
      "velocity": 112,
      "chip": "ym2612"
    },
    {
      "channel": 3,
      "note": 89,
      "start": 164.4273,
      "duration": 0.1499,
      "velocity": 112,
      "chip": "ym2612"
    },
    {
      "channel": 0,
      "note": 65,
      "start": 164.5756,
      "duration": 0.1511,
      "velocity": 112,
      "chip": "ym2612"
    },
    {
      "channel": 1,
      "note": 65,
      "start": 164.5763,
      "duration": 0.0838,
      "velocity": 112,
      "chip": "ym2612"
    },
    {
      "channel": 3,
      "note": 89,
      "start": 164.5783,
      "duration": 0.151,
      "velocity": 112,
      "chip": "ym2612"
    },
    {
      "channel": 0,
      "note": 65,
      "start": 164.7278,
      "duration": 0.1505,
      "velocity": 112,
      "chip": "ym2612"
    },
    {
      "channel": 1,
      "note": 65,
      "start": 164.7285,
      "duration": 0.0832,
      "velocity": 112,
      "chip": "ym2612"
    },
    {
      "channel": 3,
      "note": 89,
      "start": 164.7306,
      "duration": 0.1505,
      "velocity": 112,
      "chip": "ym2612"
    },
    {
      "channel": 0,
      "note": 65,
      "start": 164.8795,
      "duration": 0.1506,
      "velocity": 112,
      "chip": "ym2612"
    },
    {
      "channel": 1,
      "note": 65,
      "start": 164.8802,
      "duration": 0.0833,
      "velocity": 112,
      "chip": "ym2612"
    },
    {
      "channel": 3,
      "note": 89,
      "start": 164.8822,
      "duration": 0.1519,
      "velocity": 112,
      "chip": "ym2612"
    },
    {
      "channel": 0,
      "note": 53,
      "start": 165.0312,
      "duration": 0.1506,
      "velocity": 110,
      "chip": "ym2612"
    },
    {
      "channel": 1,
      "note": 60,
      "start": 165.0326,
      "duration": 0.15,
      "velocity": 110,
      "chip": "ym2612"
    },
    {
      "channel": 2,
      "note": 65,
      "start": 165.0339,
      "duration": 0.082,
      "velocity": 112,
      "chip": "ym2612"
    },
    {
      "channel": 3,
      "note": 56,
      "start": 165.0352,
      "duration": 0.0475,
      "velocity": 120,
      "chip": "ym2612"
    },
    {
      "channel": 4,
      "note": 72,
      "start": 165.0394,
      "duration": 0.1172,
      "velocity": 108,
      "chip": "ym2612"
    },
    {
      "channel": 5,
      "note": 53,
      "start": 165.1243,
      "duration": 0.1504,
      "velocity": 110,
      "chip": "ym2612"
    },
    {
      "channel": 0,
      "note": 55,
      "start": 165.1824,
      "duration": 0.1511,
      "velocity": 109,
      "chip": "ym2612"
    },
    {
      "channel": 1,
      "note": 62,
      "start": 165.1831,
      "duration": 0.1511,
      "velocity": 109,
      "chip": "ym2612"
    },
    {
      "channel": 2,
      "note": 65,
      "start": 165.1838,
      "duration": 0.0837,
      "velocity": 112,
      "chip": "ym2612"
    },
    {
      "channel": 3,
      "note": 68,
      "start": 165.1846,
      "duration": 0.0498,
      "velocity": 120,
      "chip": "ym2612"
    },
    {
      "channel": 4,
      "note": 84,
      "start": 165.1905,
      "duration": 0.1178,
      "velocity": 108,
      "chip": "ym2612"
    },
    {
      "channel": 5,
      "note": 55,
      "start": 165.2753,
      "duration": 0.1511,
      "velocity": 109,
      "chip": "ym2612"
    },
    {
      "channel": 0,
      "note": 56,
      "start": 165.334,
      "duration": 0.1512,
      "velocity": 108,
      "chip": "ym2612"
    },
    {
      "channel": 1,
      "note": 63,
      "start": 165.3349,
      "duration": 0.1511,
      "velocity": 108,
      "chip": "ym2612"
    },
    {
      "channel": 2,
      "note": 65,
      "start": 165.3355,
      "duration": 0.0837,
      "velocity": 112,
      "chip": "ym2612"
    },
    {
      "channel": 3,
      "note": 56,
      "start": 165.3363,
      "duration": 0.0498,
      "velocity": 120,
      "chip": "ym2612"
    },
    {
      "channel": 4,
      "note": 84,
      "start": 165.3422,
      "duration": 0.1178,
      "velocity": 112,
      "chip": "ym2612"
    },
    {
      "channel": 5,
      "note": 56,
      "start": 165.427,
      "duration": 0.1511,
      "velocity": 108,
      "chip": "ym2612"
    },
    {
      "channel": 0,
      "note": 60,
      "start": 165.4857,
      "duration": 0.1511,
      "velocity": 107,
      "chip": "ym2612"
    },
    {
      "channel": 1,
      "note": 67,
      "start": 165.4865,
      "duration": 0.1512,
      "velocity": 107,
      "chip": "ym2612"
    },
    {
      "channel": 2,
      "note": 65,
      "start": 165.4872,
      "duration": 0.0837,
      "velocity": 112,
      "chip": "ym2612"
    },
    {
      "channel": 3,
      "note": 56,
      "start": 165.488,
      "duration": 0.0498,
      "velocity": 120,
      "chip": "ym2612"
    },
    {
      "channel": 4,
      "note": 72,
      "start": 165.4938,
      "duration": 0.1178,
      "velocity": 109,
      "chip": "ym2612"
    },
    {
      "channel": 5,
      "note": 60,
      "start": 165.5787,
      "duration": 0.1512,
      "velocity": 107,
      "chip": "ym2612"
    },
    {
      "channel": 0,
      "note": 53,
      "start": 165.6374,
      "duration": 0.1511,
      "velocity": 106,
      "chip": "ym2612"
    },
    {
      "channel": 1,
      "note": 60,
      "start": 165.6382,
      "duration": 0.1511,
      "velocity": 106,
      "chip": "ym2612"
    },
    {
      "channel": 2,
      "note": 65,
      "start": 165.6389,
      "duration": 0.0837,
      "velocity": 112,
      "chip": "ym2612"
    },
    {
      "channel": 3,
      "note": 68,
      "start": 165.6397,
      "duration": 0.0498,
      "velocity": 120,
      "chip": "ym2612"
    },
    {
      "channel": 4,
      "note": 84,
      "start": 165.6455,
      "duration": 0.1178,
      "velocity": 108,
      "chip": "ym2612"
    },
    {
      "channel": 5,
      "note": 53,
      "start": 165.7304,
      "duration": 0.1511,
      "velocity": 106,
      "chip": "ym2612"
    },
    {
      "channel": 0,
      "note": 55,
      "start": 165.789,
      "duration": 0.1512,
      "velocity": 105,
      "chip": "ym2612"
    },
    {
      "channel": 1,
      "note": 62,
      "start": 165.7899,
      "duration": 0.1512,
      "velocity": 105,
      "chip": "ym2612"
    },
    {
      "channel": 2,
      "note": 65,
      "start": 165.7906,
      "duration": 0.0837,
      "velocity": 112,
      "chip": "ym2612"
    },
    {
      "channel": 3,
      "note": 56,
      "start": 165.7914,
      "duration": 0.0498,
      "velocity": 120,
      "chip": "ym2612"
    },
    {
      "channel": 4,
      "note": 72,
      "start": 165.7972,
      "duration": 0.1177,
      "velocity": 110,
      "chip": "ym2612"
    },
    {
      "channel": 5,
      "note": 55,
      "start": 165.882,
      "duration": 0.1512,
      "velocity": 105,
      "chip": "ym2612"
    },
    {
      "channel": 0,
      "note": 56,
      "start": 165.9408,
      "duration": 0.151,
      "velocity": 104,
      "chip": "ym2612"
    },
    {
      "channel": 1,
      "note": 63,
      "start": 165.9416,
      "duration": 0.1511,
      "velocity": 104,
      "chip": "ym2612"
    },
    {
      "channel": 2,
      "note": 65,
      "start": 165.9423,
      "duration": 0.0836,
      "velocity": 112,
      "chip": "ym2612"
    },
    {
      "channel": 3,
      "note": 56,
      "start": 165.943,
      "duration": 0.0498,
      "velocity": 120,
      "chip": "ym2612"
    },
    {
      "channel": 4,
      "note": 72,
      "start": 165.9488,
      "duration": 0.1178,
      "velocity": 109,
      "chip": "ym2612"
    },
    {
      "channel": 5,
      "note": 56,
      "start": 166.0338,
      "duration": 0.1511,
      "velocity": 104,
      "chip": "ym2612"
    },
    {
      "channel": 0,
      "note": 60,
      "start": 166.0924,
      "duration": 0.1512,
      "velocity": 103,
      "chip": "ym2612"
    },
    {
      "channel": 1,
      "note": 67,
      "start": 166.0932,
      "duration": 0.1511,
      "velocity": 103,
      "chip": "ym2612"
    },
    {
      "channel": 2,
      "note": 65,
      "start": 166.0939,
      "duration": 0.0837,
      "velocity": 112,
      "chip": "ym2612"
    },
    {
      "channel": 3,
      "note": 68,
      "start": 166.0947,
      "duration": 0.0498,
      "velocity": 120,
      "chip": "ym2612"
    },
    {
      "channel": 4,
      "note": 84,
      "start": 166.1005,
      "duration": 0.1178,
      "velocity": 111,
      "chip": "ym2612"
    },
    {
      "channel": 5,
      "note": 60,
      "start": 166.1854,
      "duration": 0.1511,
      "velocity": 103,
      "chip": "ym2612"
    },
    {
      "channel": 0,
      "note": 53,
      "start": 166.2441,
      "duration": 0.1511,
      "velocity": 102,
      "chip": "ym2612"
    },
    {
      "channel": 1,
      "note": 60,
      "start": 166.2449,
      "duration": 0.1511,
      "velocity": 102,
      "chip": "ym2612"
    },
    {
      "channel": 2,
      "note": 65,
      "start": 166.2456,
      "duration": 0.0837,
      "velocity": 112,
      "chip": "ym2612"
    },
    {
      "channel": 3,
      "note": 56,
      "start": 166.2463,
      "duration": 0.0498,
      "velocity": 120,
      "chip": "ym2612"
    },
    {
      "channel": 4,
      "note": 84,
      "start": 166.2522,
      "duration": 0.1178,
      "velocity": 112,
      "chip": "ym2612"
    },
    {
      "channel": 5,
      "note": 53,
      "start": 166.3371,
      "duration": 0.1511,
      "velocity": 102,
      "chip": "ym2612"
    },
    {
      "channel": 0,
      "note": 55,
      "start": 166.3958,
      "duration": 0.1512,
      "velocity": 101,
      "chip": "ym2612"
    },
    {
      "channel": 1,
      "note": 62,
      "start": 166.3966,
      "duration": 0.1511,
      "velocity": 101,
      "chip": "ym2612"
    },
    {
      "channel": 2,
      "note": 65,
      "start": 166.3973,
      "duration": 0.0837,
      "velocity": 112,
      "chip": "ym2612"
    },
    {
      "channel": 3,
      "note": 68,
      "start": 166.3981,
      "duration": 0.0498,
      "velocity": 120,
      "chip": "ym2612"
    },
    {
      "channel": 4,
      "note": 72,
      "start": 166.4039,
      "duration": 0.1178,
      "velocity": 109,
      "chip": "ym2612"
    },
    {
      "channel": 5,
      "note": 55,
      "start": 166.4888,
      "duration": 0.1511,
      "velocity": 101,
      "chip": "ym2612"
    },
    {
      "channel": 0,
      "note": 56,
      "start": 166.5475,
      "duration": 0.1511,
      "velocity": 100,
      "chip": "ym2612"
    },
    {
      "channel": 1,
      "note": 63,
      "start": 166.5483,
      "duration": 0.1512,
      "velocity": 100,
      "chip": "ym2612"
    },
    {
      "channel": 2,
      "note": 65,
      "start": 166.549,
      "duration": 0.0837,
      "velocity": 112,
      "chip": "ym2612"
    },
    {
      "channel": 3,
      "note": 56,
      "start": 166.5497,
      "duration": 0.0498,
      "velocity": 120,
      "chip": "ym2612"
    },
    {
      "channel": 4,
      "note": 84,
      "start": 166.5556,
      "duration": 0.1178,
      "velocity": 108,
      "chip": "ym2612"
    },
    {
      "channel": 5,
      "note": 56,
      "start": 166.6405,
      "duration": 0.1511,
      "velocity": 100,
      "chip": "ym2612"
    },
    {
      "channel": 0,
      "note": 60,
      "start": 166.6992,
      "duration": 0.1511,
      "velocity": 99,
      "chip": "ym2612"
    },
    {
      "channel": 1,
      "note": 67,
      "start": 166.7,
      "duration": 0.1511,
      "velocity": 99,
      "chip": "ym2612"
    },
    {
      "channel": 2,
      "note": 65,
      "start": 166.7007,
      "duration": 0.0837,
      "velocity": 112,
      "chip": "ym2612"
    },
    {
      "channel": 3,
      "note": 56,
      "start": 166.7015,
      "duration": 0.0497,
      "velocity": 120,
      "chip": "ym2612"
    },
    {
      "channel": 4,
      "note": 72,
      "start": 166.7073,
      "duration": 0.1177,
      "velocity": 112,
      "chip": "ym2612"
    },
    {
      "channel": 5,
      "note": 60,
      "start": 166.7922,
      "duration": 0.1511,
      "velocity": 99,
      "chip": "ym2612"
    },
    {
      "channel": 0,
      "note": 53,
      "start": 166.8508,
      "duration": 0.1511,
      "velocity": 98,
      "chip": "ym2612"
    },
    {
      "channel": 1,
      "note": 60,
      "start": 166.8516,
      "duration": 0.1512,
      "velocity": 98,
      "chip": "ym2612"
    },
    {
      "channel": 2,
      "note": 65,
      "start": 166.8523,
      "duration": 0.0837,
      "velocity": 112,
      "chip": "ym2612"
    },
    {
      "channel": 3,
      "note": 68,
      "start": 166.8531,
      "duration": 0.0497,
      "velocity": 120,
      "chip": "ym2612"
    },
    {
      "channel": 4,
      "note": 72,
      "start": 166.859,
      "duration": 0.1177,
      "velocity": 111,
      "chip": "ym2612"
    },
    {
      "channel": 5,
      "note": 53,
      "start": 166.9438,
      "duration": 0.1512,
      "velocity": 98,
      "chip": "ym2612"
    },
    {
      "channel": 0,
      "note": 55,
      "start": 167.0025,
      "duration": 0.1511,
      "velocity": 97,
      "chip": "ym2612"
    },
    {
      "channel": 1,
      "note": 62,
      "start": 167.0034,
      "duration": 0.1511,
      "velocity": 97,
      "chip": "ym2612"
    },
    {
      "channel": 2,
      "note": 65,
      "start": 167.0041,
      "duration": 0.0836,
      "velocity": 112,
      "chip": "ym2612"
    },
    {
      "channel": 3,
      "note": 56,
      "start": 167.0048,
      "duration": 0.0497,
      "velocity": 120,
      "chip": "ym2612"
    },
    {
      "channel": 4,
      "note": 84,
      "start": 167.0106,
      "duration": 0.1178,
      "velocity": 109,
      "chip": "ym2612"
    },
    {
      "channel": 5,
      "note": 55,
      "start": 167.0955,
      "duration": 0.1511,
      "velocity": 97,
      "chip": "ym2612"
    },
    {
      "channel": 0,
      "note": 56,
      "start": 167.1542,
      "duration": 0.1512,
      "velocity": 96,
      "chip": "ym2612"
    },
    {
      "channel": 1,
      "note": 63,
      "start": 167.155,
      "duration": 0.1511,
      "velocity": 96,
      "chip": "ym2612"
    },
    {
      "channel": 2,
      "note": 65,
      "start": 167.1557,
      "duration": 0.0837,
      "velocity": 112,
      "chip": "ym2612"
    },
    {
      "channel": 3,
      "note": 56,
      "start": 167.1565,
      "duration": 0.0498,
      "velocity": 120,
      "chip": "ym2612"
    },
    {
      "channel": 4,
      "note": 72,
      "start": 167.1623,
      "duration": 0.1178,
      "velocity": 111,
      "chip": "ym2612"
    },
    {
      "channel": 5,
      "note": 56,
      "start": 167.2472,
      "duration": 0.1511,
      "velocity": 96,
      "chip": "ym2612"
    },
    {
      "channel": 0,
      "note": 60,
      "start": 167.3059,
      "duration": 0.1512,
      "velocity": 95,
      "chip": "ym2612"
    },
    {
      "channel": 1,
      "note": 67,
      "start": 167.3067,
      "duration": 0.1511,
      "velocity": 95,
      "chip": "ym2612"
    },
    {
      "channel": 2,
      "note": 65,
      "start": 167.3074,
      "duration": 0.0837,
      "velocity": 112,
      "chip": "ym2612"
    },
    {
      "channel": 3,
      "note": 68,
      "start": 167.3082,
      "duration": 0.0498,
      "velocity": 120,
      "chip": "ym2612"
    },
    {
      "channel": 4,
      "note": 72,
      "start": 167.314,
      "duration": 0.1178,
      "velocity": 112,
      "chip": "ym2612"
    },
    {
      "channel": 5,
      "note": 60,
      "start": 167.3988,
      "duration": 0.1511,
      "velocity": 95,
      "chip": "ym2612"
    },
    {
      "channel": 0,
      "note": 53,
      "start": 167.4576,
      "duration": 0.1511,
      "velocity": 96,
      "chip": "ym2612"
    },
    {
      "channel": 1,
      "note": 60,
      "start": 167.4584,
      "duration": 0.151,
      "velocity": 96,
      "chip": "ym2612"
    },
    {
      "channel": 2,
      "note": 65,
      "start": 167.4591,
      "duration": 0.0836,
      "velocity": 112,
      "chip": "ym2612"
    },
    {
      "channel": 3,
      "note": 56,
      "start": 167.4599,
      "duration": 0.0497,
      "velocity": 120,
      "chip": "ym2612"
    },
    {
      "channel": 4,
      "note": 72,
      "start": 167.4656,
      "duration": 0.1178,
      "velocity": 108,
      "chip": "ym2612"
    },
    {
      "channel": 5,
      "note": 53,
      "start": 167.5505,
      "duration": 0.1511,
      "velocity": 96,
      "chip": "ym2612"
    },
    {
      "channel": 0,
      "note": 55,
      "start": 167.6093,
      "duration": 0.1511,
      "velocity": 97,
      "chip": "ym2612"
    },
    {
      "channel": 1,
      "note": 62,
      "start": 167.61,
      "duration": 0.1512,
      "velocity": 97,
      "chip": "ym2612"
    },
    {
      "channel": 2,
      "note": 65,
      "start": 167.6107,
      "duration": 0.0837,
      "velocity": 112,
      "chip": "ym2612"
    },
    {
      "channel": 3,
      "note": 68,
      "start": 167.6115,
      "duration": 0.0498,
      "velocity": 120,
      "chip": "ym2612"
    },
    {
      "channel": 4,
      "note": 84,
      "start": 167.6173,
      "duration": 0.1178,
      "velocity": 109,
      "chip": "ym2612"
    },
    {
      "channel": 5,
      "note": 55,
      "start": 167.7022,
      "duration": 0.1512,
      "velocity": 97,
      "chip": "ym2612"
    },
    {
      "channel": 0,
      "note": 56,
      "start": 167.7609,
      "duration": 0.1511,
      "velocity": 98,
      "chip": "ym2612"
    },
    {
      "channel": 1,
      "note": 63,
      "start": 167.7617,
      "duration": 0.1511,
      "velocity": 98,
      "chip": "ym2612"
    },
    {
      "channel": 2,
      "note": 65,
      "start": 167.7624,
      "duration": 0.0836,
      "velocity": 112,
      "chip": "ym2612"
    },
    {
      "channel": 3,
      "note": 56,
      "start": 167.7632,
      "duration": 0.0497,
      "velocity": 120,
      "chip": "ym2612"
    },
    {
      "channel": 4,
      "note": 84,
      "start": 167.769,
      "duration": 0.1178,
      "velocity": 110,
      "chip": "ym2612"
    },
    {
      "channel": 5,
      "note": 56,
      "start": 167.8539,
      "duration": 0.1511,
      "velocity": 98,
      "chip": "ym2612"
    },
    {
      "channel": 0,
      "note": 60,
      "start": 167.9126,
      "duration": 0.1511,
      "velocity": 99,
      "chip": "ym2612"
    },
    {
      "channel": 1,
      "note": 67,
      "start": 167.9134,
      "duration": 0.1512,
      "velocity": 99,
      "chip": "ym2612"
    },
    {
      "channel": 2,
      "note": 65,
      "start": 167.9141,
      "duration": 0.0837,
      "velocity": 112,
      "chip": "ym2612"
    },
    {
      "channel": 3,
      "note": 56,
      "start": 167.9149,
      "duration": 0.0497,
      "velocity": 120,
      "chip": "ym2612"
    },
    {
      "channel": 4,
      "note": 72,
      "start": 167.9207,
      "duration": 0.1177,
      "velocity": 111,
      "chip": "ym2612"
    },
    {
      "channel": 5,
      "note": 60,
      "start": 168.0056,
      "duration": 0.1512,
      "velocity": 99,
      "chip": "ym2612"
    },
    {
      "channel": 0,
      "note": 53,
      "start": 168.0643,
      "duration": 0.1511,
      "velocity": 100,
      "chip": "ym2612"
    },
    {
      "channel": 1,
      "note": 60,
      "start": 168.0651,
      "duration": 0.1511,
      "velocity": 100,
      "chip": "ym2612"
    },
    {
      "channel": 2,
      "note": 65,
      "start": 168.0658,
      "duration": 0.0836,
      "velocity": 112,
      "chip": "ym2612"
    },
    {
      "channel": 3,
      "note": 68,
      "start": 168.0666,
      "duration": 0.0497,
      "velocity": 120,
      "chip": "ym2612"
    },
    {
      "channel": 4,
      "note": 84,
      "start": 168.0724,
      "duration": 0.1178,
      "velocity": 108,
      "chip": "ym2612"
    },
    {
      "channel": 5,
      "note": 53,
      "start": 168.1573,
      "duration": 0.1511,
      "velocity": 100,
      "chip": "ym2612"
    },
    {
      "channel": 0,
      "note": 55,
      "start": 168.2159,
      "duration": 0.1512,
      "velocity": 101,
      "chip": "ym2612"
    },
    {
      "channel": 1,
      "note": 62,
      "start": 168.2168,
      "duration": 0.1511,
      "velocity": 101,
      "chip": "ym2612"
    },
    {
      "channel": 2,
      "note": 65,
      "start": 168.2175,
      "duration": 0.0837,
      "velocity": 112,
      "chip": "ym2612"
    },
    {
      "channel": 3,
      "note": 56,
      "start": 168.2182,
      "duration": 0.0498,
      "velocity": 120,
      "chip": "ym2612"
    },
    {
      "channel": 4,
      "note": 72,
      "start": 168.2241,
      "duration": 0.1178,
      "velocity": 109,
      "chip": "ym2612"
    },
    {
      "channel": 5,
      "note": 55,
      "start": 168.309,
      "duration": 0.1511,
      "velocity": 101,
      "chip": "ym2612"
    },
    {
      "channel": 0,
      "note": 56,
      "start": 168.3677,
      "duration": 0.1511,
      "velocity": 102,
      "chip": "ym2612"
    },
    {
      "channel": 1,
      "note": 63,
      "start": 168.3685,
      "duration": 0.1511,
      "velocity": 102,
      "chip": "ym2612"
    },
    {
      "channel": 2,
      "note": 65,
      "start": 168.3692,
      "duration": 0.0836,
      "velocity": 112,
      "chip": "ym2612"
    },
    {
      "channel": 3,
      "note": 56,
      "start": 168.37,
      "duration": 0.0497,
      "velocity": 120,
      "chip": "ym2612"
    },
    {
      "channel": 4,
      "note": 72,
      "start": 168.3757,
      "duration": 0.1178,
      "velocity": 112,
      "chip": "ym2612"
    },
    {
      "channel": 5,
      "note": 56,
      "start": 168.4606,
      "duration": 0.1511,
      "velocity": 102,
      "chip": "ym2612"
    },
    {
      "channel": 0,
      "note": 60,
      "start": 168.5193,
      "duration": 0.1512,
      "velocity": 103,
      "chip": "ym2612"
    },
    {
      "channel": 1,
      "note": 67,
      "start": 168.5201,
      "duration": 0.1511,
      "velocity": 103,
      "chip": "ym2612"
    },
    {
      "channel": 2,
      "note": 65,
      "start": 168.5208,
      "duration": 0.0837,
      "velocity": 112,
      "chip": "ym2612"
    },
    {
      "channel": 3,
      "note": 68,
      "start": 168.5216,
      "duration": 0.0498,
      "velocity": 120,
      "chip": "ym2612"
    },
    {
      "channel": 4,
      "note": 84,
      "start": 168.5274,
      "duration": 0.1178,
      "velocity": 110,
      "chip": "ym2612"
    },
    {
      "channel": 5,
      "note": 60,
      "start": 168.6123,
      "duration": 0.1511,
      "velocity": 103,
      "chip": "ym2612"
    },
    {
      "channel": 0,
      "note": 53,
      "start": 168.671,
      "duration": 0.1511,
      "velocity": 104,
      "chip": "ym2612"
    },
    {
      "channel": 1,
      "note": 60,
      "start": 168.6718,
      "duration": 0.1512,
      "velocity": 104,
      "chip": "ym2612"
    },
    {
      "channel": 2,
      "note": 65,
      "start": 168.6725,
      "duration": 0.0837,
      "velocity": 112,
      "chip": "ym2612"
    },
    {
      "channel": 3,
      "note": 56,
      "start": 168.6733,
      "duration": 0.0498,
      "velocity": 120,
      "chip": "ym2612"
    },
    {
      "channel": 4,
      "note": 84,
      "start": 168.6791,
      "duration": 0.1178,
      "velocity": 111,
      "chip": "ym2612"
    },
    {
      "channel": 5,
      "note": 53,
      "start": 168.764,
      "duration": 0.1512,
      "velocity": 104,
      "chip": "ym2612"
    },
    {
      "channel": 0,
      "note": 55,
      "start": 168.8227,
      "duration": 0.1511,
      "velocity": 105,
      "chip": "ym2612"
    },
    {
      "channel": 1,
      "note": 62,
      "start": 168.8236,
      "duration": 0.1511,
      "velocity": 105,
      "chip": "ym2612"
    },
    {
      "channel": 2,
      "note": 65,
      "start": 168.8243,
      "duration": 0.0836,
      "velocity": 112,
      "chip": "ym2612"
    },
    {
      "channel": 3,
      "note": 68,
      "start": 168.825,
      "duration": 0.0497,
      "velocity": 120,
      "chip": "ym2612"
    },
    {
      "channel": 4,
      "note": 72,
      "start": 168.8308,
      "duration": 0.1178,
      "velocity": 108,
      "chip": "ym2612"
    },
    {
      "channel": 5,
      "note": 55,
      "start": 168.9157,
      "duration": 0.1511,
      "velocity": 105,
      "chip": "ym2612"
    },
    {
      "channel": 0,
      "note": 56,
      "start": 168.9744,
      "duration": 0.1511,
      "velocity": 106,
      "chip": "ym2612"
    },
    {
      "channel": 1,
      "note": 63,
      "start": 168.9752,
      "duration": 0.1511,
      "velocity": 106,
      "chip": "ym2612"
    },
    {
      "channel": 2,
      "note": 65,
      "start": 168.9759,
      "duration": 0.0836,
      "velocity": 112,
      "chip": "ym2612"
    },
    {
      "channel": 3,
      "note": 56,
      "start": 168.9767,
      "duration": 0.0497,
      "velocity": 120,
      "chip": "ym2612"
    },
    {
      "channel": 4,
      "note": 84,
      "start": 168.9825,
      "duration": 0.1177,
      "velocity": 109,
      "chip": "ym2612"
    },
    {
      "channel": 5,
      "note": 56,
      "start": 169.0673,
      "duration": 0.1511,
      "velocity": 106,
      "chip": "ym2612"
    },
    {
      "channel": 0,
      "note": 60,
      "start": 169.1261,
      "duration": 0.1511,
      "velocity": 107,
      "chip": "ym2612"
    },
    {
      "channel": 1,
      "note": 67,
      "start": 169.1269,
      "duration": 0.1511,
      "velocity": 107,
      "chip": "ym2612"
    },
    {
      "channel": 2,
      "note": 65,
      "start": 169.1276,
      "duration": 0.0836,
      "velocity": 112,
      "chip": "ym2612"
    },
    {
      "channel": 3,
      "note": 56,
      "start": 169.1283,
      "duration": 0.0497,
      "velocity": 120,
      "chip": "ym2612"
    },
    {
      "channel": 4,
      "note": 72,
      "start": 169.1341,
      "duration": 0.1178,
      "velocity": 112,
      "chip": "ym2612"
    },
    {
      "channel": 5,
      "note": 60,
      "start": 169.219,
      "duration": 0.1511,
      "velocity": 107,
      "chip": "ym2612"
    },
    {
      "channel": 0,
      "note": 53,
      "start": 169.2777,
      "duration": 0.1512,
      "velocity": 108,
      "chip": "ym2612"
    },
    {
      "channel": 1,
      "note": 60,
      "start": 169.2785,
      "duration": 0.1511,
      "velocity": 108,
      "chip": "ym2612"
    },
    {
      "channel": 2,
      "note": 65,
      "start": 169.2793,
      "duration": 0.0837,
      "velocity": 112,
      "chip": "ym2612"
    },
    {
      "channel": 3,
      "note": 68,
      "start": 169.28,
      "duration": 0.0498,
      "velocity": 120,
      "chip": "ym2612"
    },
    {
      "channel": 4,
      "note": 84,
      "start": 169.2859,
      "duration": 0.1178,
      "velocity": 110,
      "chip": "ym2612"
    },
    {
      "channel": 5,
      "note": 53,
      "start": 169.3707,
      "duration": 0.1511,
      "velocity": 108,
      "chip": "ym2612"
    },
    {
      "channel": 0,
      "note": 55,
      "start": 169.4294,
      "duration": 0.1511,
      "velocity": 109,
      "chip": "ym2612"
    },
    {
      "channel": 1,
      "note": 62,
      "start": 169.4303,
      "duration": 0.1511,
      "velocity": 109,
      "chip": "ym2612"
    },
    {
      "channel": 2,
      "note": 65,
      "start": 169.431,
      "duration": 0.0836,
      "velocity": 112,
      "chip": "ym2612"
    },
    {
      "channel": 3,
      "note": 56,
      "start": 169.4317,
      "duration": 0.0497,
      "velocity": 120,
      "chip": "ym2612"
    },
    {
      "channel": 4,
      "note": 72,
      "start": 169.4375,
      "duration": 0.1178,
      "velocity": 108,
      "chip": "ym2612"
    },
    {
      "channel": 5,
      "note": 55,
      "start": 169.5224,
      "duration": 0.1511,
      "velocity": 109,
      "chip": "ym2612"
    },
    {
      "channel": 0,
      "note": 56,
      "start": 169.5811,
      "duration": 0.1511,
      "velocity": 110,
      "chip": "ym2612"
    },
    {
      "channel": 1,
      "note": 63,
      "start": 169.5819,
      "duration": 0.1511,
      "velocity": 110,
      "chip": "ym2612"
    },
    {
      "channel": 2,
      "note": 65,
      "start": 169.5826,
      "duration": 0.0837,
      "velocity": 112,
      "chip": "ym2612"
    },
    {
      "channel": 3,
      "note": 68,
      "start": 169.5834,
      "duration": 0.0498,
      "velocity": 120,
      "chip": "ym2612"
    },
    {
      "channel": 4,
      "note": 72,
      "start": 169.5892,
      "duration": 0.1179,
      "velocity": 109,
      "chip": "ym2612"
    },
    {
      "channel": 5,
      "note": 56,
      "start": 169.6741,
      "duration": 0.151,
      "velocity": 110,
      "chip": "ym2612"
    },
    {
      "channel": 0,
      "note": 60,
      "start": 169.7328,
      "duration": 0.1511,
      "velocity": 110,
      "chip": "ym2612"
    },
    {
      "channel": 1,
      "note": 67,
      "start": 169.7336,
      "duration": 0.1512,
      "velocity": 110,
      "chip": "ym2612"
    },
    {
      "channel": 2,
      "note": 65,
      "start": 169.7343,
      "duration": 0.0837,
      "velocity": 112,
      "chip": "ym2612"
    },
    {
      "channel": 3,
      "note": 68,
      "start": 169.735,
      "duration": 0.0498,
      "velocity": 120,
      "chip": "ym2612"
    },
    {
      "channel": 4,
      "note": 84,
      "start": 169.7409,
      "duration": 0.1178,
      "velocity": 112,
      "chip": "ym2612"
    },
    {
      "channel": 5,
      "note": 60,
      "start": 169.8257,
      "duration": 0.1512,
      "velocity": 110,
      "chip": "ym2612"
    },
    {
      "channel": 0,
      "note": 51,
      "start": 169.8845,
      "duration": 0.1511,
      "velocity": 110,
      "chip": "ym2612"
    },
    {
      "channel": 1,
      "note": 58,
      "start": 169.8853,
      "duration": 0.1511,
      "velocity": 110,
      "chip": "ym2612"
    },
    {
      "channel": 2,
      "note": 65,
      "start": 169.886,
      "duration": 0.0837,
      "velocity": 112,
      "chip": "ym2612"
    },
    {
      "channel": 3,
      "note": 54,
      "start": 169.8868,
      "duration": 0.0497,
      "velocity": 120,
      "chip": "ym2612"
    },
    {
      "channel": 4,
      "note": 70,
      "start": 169.8925,
      "duration": 0.1178,
      "velocity": 108,
      "chip": "ym2612"
    },
    {
      "channel": 5,
      "note": 51,
      "start": 169.9775,
      "duration": 0.1511,
      "velocity": 110,
      "chip": "ym2612"
    },
    {
      "channel": 0,
      "note": 53,
      "start": 170.0361,
      "duration": 0.1511,
      "velocity": 109,
      "chip": "ym2612"
    },
    {
      "channel": 1,
      "note": 60,
      "start": 170.0369,
      "duration": 0.1512,
      "velocity": 109,
      "chip": "ym2612"
    },
    {
      "channel": 2,
      "note": 65,
      "start": 170.0376,
      "duration": 0.0837,
      "velocity": 112,
      "chip": "ym2612"
    },
    {
      "channel": 3,
      "note": 66,
      "start": 170.0384,
      "duration": 0.0497,
      "velocity": 120,
      "chip": "ym2612"
    },
    {
      "channel": 4,
      "note": 82,
      "start": 170.0443,
      "duration": 0.1177,
      "velocity": 108,
      "chip": "ym2612"
    },
    {
      "channel": 5,
      "note": 53,
      "start": 170.1291,
      "duration": 0.1511,
      "velocity": 109,
      "chip": "ym2612"
    },
    {
      "channel": 0,
      "note": 54,
      "start": 170.1878,
      "duration": 0.1511,
      "velocity": 108,
      "chip": "ym2612"
    },
    {
      "channel": 1,
      "note": 61,
      "start": 170.1887,
      "duration": 0.1511,
      "velocity": 108,
      "chip": "ym2612"
    },
    {
      "channel": 2,
      "note": 65,
      "start": 170.1894,
      "duration": 0.0836,
      "velocity": 112,
      "chip": "ym2612"
    },
    {
      "channel": 3,
      "note": 54,
      "start": 170.1901,
      "duration": 0.0497,
      "velocity": 120,
      "chip": "ym2612"
    },
    {
      "channel": 4,
      "note": 82,
      "start": 170.1959,
      "duration": 0.1178,
      "velocity": 112,
      "chip": "ym2612"
    },
    {
      "channel": 5,
      "note": 54,
      "start": 170.2808,
      "duration": 0.1511,
      "velocity": 108,
      "chip": "ym2612"
    },
    {
      "channel": 0,
      "note": 58,
      "start": 170.3395,
      "duration": 0.1512,
      "velocity": 107,
      "chip": "ym2612"
    },
    {
      "channel": 1,
      "note": 65,
      "start": 170.3404,
      "duration": 0.1511,
      "velocity": 107,
      "chip": "ym2612"
    },
    {
      "channel": 2,
      "note": 65,
      "start": 170.3411,
      "duration": 0.0837,
      "velocity": 112,
      "chip": "ym2612"
    },
    {
      "channel": 3,
      "note": 54,
      "start": 170.3418,
      "duration": 0.0498,
      "velocity": 120,
      "chip": "ym2612"
    },
    {
      "channel": 4,
      "note": 70,
      "start": 170.3476,
      "duration": 0.1178,
      "velocity": 109,
      "chip": "ym2612"
    },
    {
      "channel": 5,
      "note": 58,
      "start": 170.4325,
      "duration": 0.1511,
      "velocity": 107,
      "chip": "ym2612"
    },
    {
      "channel": 0,
      "note": 51,
      "start": 170.4912,
      "duration": 0.1511,
      "velocity": 106,
      "chip": "ym2612"
    },
    {
      "channel": 1,
      "note": 58,
      "start": 170.492,
      "duration": 0.1511,
      "velocity": 106,
      "chip": "ym2612"
    },
    {
      "channel": 2,
      "note": 65,
      "start": 170.4927,
      "duration": 0.0836,
      "velocity": 112,
      "chip": "ym2612"
    },
    {
      "channel": 3,
      "note": 66,
      "start": 170.4935,
      "duration": 0.0497,
      "velocity": 120,
      "chip": "ym2612"
    },
    {
      "channel": 4,
      "note": 82,
      "start": 170.4993,
      "duration": 0.1178,
      "velocity": 108,
      "chip": "ym2612"
    },
    {
      "channel": 5,
      "note": 51,
      "start": 170.5841,
      "duration": 0.1511,
      "velocity": 106,
      "chip": "ym2612"
    },
    {
      "channel": 0,
      "note": 53,
      "start": 170.6429,
      "duration": 0.1511,
      "velocity": 105,
      "chip": "ym2612"
    },
    {
      "channel": 1,
      "note": 60,
      "start": 170.6437,
      "duration": 0.1511,
      "velocity": 105,
      "chip": "ym2612"
    },
    {
      "channel": 2,
      "note": 65,
      "start": 170.6444,
      "duration": 0.0837,
      "velocity": 112,
      "chip": "ym2612"
    },
    {
      "channel": 3,
      "note": 54,
      "start": 170.6451,
      "duration": 0.0498,
      "velocity": 120,
      "chip": "ym2612"
    },
    {
      "channel": 4,
      "note": 70,
      "start": 170.6509,
      "duration": 0.1178,
      "velocity": 110,
      "chip": "ym2612"
    },
    {
      "channel": 5,
      "note": 53,
      "start": 170.7359,
      "duration": 0.1511,
      "velocity": 105,
      "chip": "ym2612"
    },
    {
      "channel": 0,
      "note": 54,
      "start": 170.7946,
      "duration": 0.1511,
      "velocity": 104,
      "chip": "ym2612"
    },
    {
      "channel": 1,
      "note": 61,
      "start": 170.7953,
      "duration": 0.1512,
      "velocity": 104,
      "chip": "ym2612"
    },
    {
      "channel": 2,
      "note": 65,
      "start": 170.796,
      "duration": 0.0837,
      "velocity": 112,
      "chip": "ym2612"
    },
    {
      "channel": 3,
      "note": 54,
      "start": 170.7968,
      "duration": 0.0498,
      "velocity": 120,
      "chip": "ym2612"
    },
    {
      "channel": 4,
      "note": 70,
      "start": 170.8027,
      "duration": 0.1178,
      "velocity": 109,
      "chip": "ym2612"
    },
    {
      "channel": 5,
      "note": 54,
      "start": 170.8875,
      "duration": 0.1512,
      "velocity": 104,
      "chip": "ym2612"
    },
    {
      "channel": 0,
      "note": 58,
      "start": 170.9462,
      "duration": 0.1511,
      "velocity": 103,
      "chip": "ym2612"
    },
    {
      "channel": 1,
      "note": 65,
      "start": 170.9471,
      "duration": 0.1511,
      "velocity": 103,
      "chip": "ym2612"
    },
    {
      "channel": 2,
      "note": 65,
      "start": 170.9478,
      "duration": 0.0836,
      "velocity": 112,
      "chip": "ym2612"
    },
    {
      "channel": 3,
      "note": 66,
      "start": 170.9485,
      "duration": 0.0497,
      "velocity": 120,
      "chip": "ym2612"
    },
    {
      "channel": 4,
      "note": 82,
      "start": 170.9543,
      "duration": 0.1178,
      "velocity": 111,
      "chip": "ym2612"
    },
    {
      "channel": 5,
      "note": 58,
      "start": 171.0392,
      "duration": 0.1512,
      "velocity": 103,
      "chip": "ym2612"
    },
    {
      "channel": 0,
      "note": 51,
      "start": 171.0979,
      "duration": 0.1511,
      "velocity": 102,
      "chip": "ym2612"
    },
    {
      "channel": 1,
      "note": 58,
      "start": 171.0987,
      "duration": 0.1512,
      "velocity": 102,
      "chip": "ym2612"
    },
    {
      "channel": 2,
      "note": 65,
      "start": 171.0994,
      "duration": 0.0837,
      "velocity": 112,
      "chip": "ym2612"
    },
    {
      "channel": 3,
      "note": 54,
      "start": 171.1002,
      "duration": 0.0497,
      "velocity": 120,
      "chip": "ym2612"
    },
    {
      "channel": 4,
      "note": 82,
      "start": 171.106,
      "duration": 0.1178,
      "velocity": 112,
      "chip": "ym2612"
    },
    {
      "channel": 5,
      "note": 51,
      "start": 171.191,
      "duration": 0.151,
      "velocity": 102,
      "chip": "ym2612"
    },
    {
      "channel": 0,
      "note": 53,
      "start": 171.2496,
      "duration": 0.1511,
      "velocity": 101,
      "chip": "ym2612"
    },
    {
      "channel": 1,
      "note": 60,
      "start": 171.2504,
      "duration": 0.1511,
      "velocity": 101,
      "chip": "ym2612"
    },
    {
      "channel": 2,
      "note": 65,
      "start": 171.2511,
      "duration": 0.0836,
      "velocity": 112,
      "chip": "ym2612"
    },
    {
      "channel": 3,
      "note": 66,
      "start": 171.2519,
      "duration": 0.0497,
      "velocity": 120,
      "chip": "ym2612"
    },
    {
      "channel": 4,
      "note": 70,
      "start": 171.2577,
      "duration": 0.1178,
      "velocity": 109,
      "chip": "ym2612"
    },
    {
      "channel": 5,
      "note": 53,
      "start": 171.3425,
      "duration": 0.1511,
      "velocity": 101,
      "chip": "ym2612"
    },
    {
      "channel": 0,
      "note": 54,
      "start": 171.4012,
      "duration": 0.1512,
      "velocity": 100,
      "chip": "ym2612"
    },
    {
      "channel": 1,
      "note": 61,
      "start": 171.4021,
      "duration": 0.1511,
      "velocity": 100,
      "chip": "ym2612"
    },
    {
      "channel": 2,
      "note": 65,
      "start": 171.4028,
      "duration": 0.0837,
      "velocity": 112,
      "chip": "ym2612"
    },
    {
      "channel": 3,
      "note": 54,
      "start": 171.4035,
      "duration": 0.0498,
      "velocity": 120,
      "chip": "ym2612"
    },
    {
      "channel": 4,
      "note": 82,
      "start": 171.4094,
      "duration": 0.1178,
      "velocity": 108,
      "chip": "ym2612"
    },
    {
      "channel": 5,
      "note": 54,
      "start": 171.4943,
      "duration": 0.1511,
      "velocity": 100,
      "chip": "ym2612"
    },
    {
      "channel": 0,
      "note": 58,
      "start": 171.553,
      "duration": 0.1511,
      "velocity": 99,
      "chip": "ym2612"
    },
    {
      "channel": 1,
      "note": 65,
      "start": 171.5537,
      "duration": 0.1511,
      "velocity": 99,
      "chip": "ym2612"
    },
    {
      "channel": 2,
      "note": 65,
      "start": 171.5544,
      "duration": 0.0837,
      "velocity": 112,
      "chip": "ym2612"
    },
    {
      "channel": 3,
      "note": 54,
      "start": 171.5552,
      "duration": 0.0498,
      "velocity": 120,
      "chip": "ym2612"
    },
    {
      "channel": 4,
      "note": 70,
      "start": 171.561,
      "duration": 0.1178,
      "velocity": 112,
      "chip": "ym2612"
    },
    {
      "channel": 5,
      "note": 58,
      "start": 171.6459,
      "duration": 0.1511,
      "velocity": 99,
      "chip": "ym2612"
    },
    {
      "channel": 0,
      "note": 51,
      "start": 171.7046,
      "duration": 0.1511,
      "velocity": 98,
      "chip": "ym2612"
    },
    {
      "channel": 1,
      "note": 58,
      "start": 171.7054,
      "duration": 0.1511,
      "velocity": 98,
      "chip": "ym2612"
    },
    {
      "channel": 2,
      "note": 65,
      "start": 171.7061,
      "duration": 0.0837,
      "velocity": 112,
      "chip": "ym2612"
    },
    {
      "channel": 3,
      "note": 66,
      "start": 171.707,
      "duration": 0.0497,
      "velocity": 120,
      "chip": "ym2612"
    },
    {
      "channel": 4,
      "note": 70,
      "start": 171.7127,
      "duration": 0.1178,
      "velocity": 111,
      "chip": "ym2612"
    },
    {
      "channel": 5,
      "note": 51,
      "start": 171.7976,
      "duration": 0.1511,
      "velocity": 98,
      "chip": "ym2612"
    },
    {
      "channel": 0,
      "note": 53,
      "start": 171.8563,
      "duration": 0.1511,
      "velocity": 97,
      "chip": "ym2612"
    },
    {
      "channel": 1,
      "note": 60,
      "start": 171.8572,
      "duration": 0.1511,
      "velocity": 97,
      "chip": "ym2612"
    },
    {
      "channel": 2,
      "note": 65,
      "start": 171.8579,
      "duration": 0.0837,
      "velocity": 112,
      "chip": "ym2612"
    },
    {
      "channel": 3,
      "note": 54,
      "start": 171.8586,
      "duration": 0.0497,
      "velocity": 120,
      "chip": "ym2612"
    },
    {
      "channel": 4,
      "note": 82,
      "start": 171.8644,
      "duration": 0.1178,
      "velocity": 109,
      "chip": "ym2612"
    },
    {
      "channel": 5,
      "note": 53,
      "start": 171.9493,
      "duration": 0.1512,
      "velocity": 97,
      "chip": "ym2612"
    },
    {
      "channel": 0,
      "note": 54,
      "start": 172.008,
      "duration": 0.1511,
      "velocity": 96,
      "chip": "ym2612"
    },
    {
      "channel": 1,
      "note": 61,
      "start": 172.0088,
      "duration": 0.1511,
      "velocity": 96,
      "chip": "ym2612"
    },
    {
      "channel": 2,
      "note": 65,
      "start": 172.0095,
      "duration": 0.0836,
      "velocity": 112,
      "chip": "ym2612"
    },
    {
      "channel": 3,
      "note": 54,
      "start": 172.0103,
      "duration": 0.0497,
      "velocity": 120,
      "chip": "ym2612"
    },
    {
      "channel": 4,
      "note": 70,
      "start": 172.0161,
      "duration": 0.1178,
      "velocity": 111,
      "chip": "ym2612"
    },
    {
      "channel": 5,
      "note": 54,
      "start": 172.101,
      "duration": 0.1511,
      "velocity": 96,
      "chip": "ym2612"
    },
    {
      "channel": 0,
      "note": 58,
      "start": 172.1597,
      "duration": 0.1511,
      "velocity": 95,
      "chip": "ym2612"
    },
    {
      "channel": 1,
      "note": 65,
      "start": 172.1605,
      "duration": 0.1512,
      "velocity": 95,
      "chip": "ym2612"
    },
    {
      "channel": 2,
      "note": 65,
      "start": 172.1612,
      "duration": 0.0837,
      "velocity": 112,
      "chip": "ym2612"
    },
    {
      "channel": 3,
      "note": 66,
      "start": 172.162,
      "duration": 0.0497,
      "velocity": 120,
      "chip": "ym2612"
    },
    {
      "channel": 4,
      "note": 70,
      "start": 172.1678,
      "duration": 0.1177,
      "velocity": 112,
      "chip": "ym2612"
    },
    {
      "channel": 5,
      "note": 58,
      "start": 172.2527,
      "duration": 0.1511,
      "velocity": 95,
      "chip": "ym2612"
    },
    {
      "channel": 0,
      "note": 51,
      "start": 172.3114,
      "duration": 0.1511,
      "velocity": 96,
      "chip": "ym2612"
    },
    {
      "channel": 1,
      "note": 58,
      "start": 172.3122,
      "duration": 0.1511,
      "velocity": 96,
      "chip": "ym2612"
    },
    {
      "channel": 2,
      "note": 65,
      "start": 172.3129,
      "duration": 0.0836,
      "velocity": 112,
      "chip": "ym2612"
    },
    {
      "channel": 3,
      "note": 54,
      "start": 172.3137,
      "duration": 0.0497,
      "velocity": 120,
      "chip": "ym2612"
    },
    {
      "channel": 4,
      "note": 70,
      "start": 172.3195,
      "duration": 0.1178,
      "velocity": 108,
      "chip": "ym2612"
    },
    {
      "channel": 5,
      "note": 51,
      "start": 172.4043,
      "duration": 0.1511,
      "velocity": 96,
      "chip": "ym2612"
    },
    {
      "channel": 0,
      "note": 53,
      "start": 172.463,
      "duration": 0.1512,
      "velocity": 97,
      "chip": "ym2612"
    },
    {
      "channel": 1,
      "note": 60,
      "start": 172.4639,
      "duration": 0.1511,
      "velocity": 97,
      "chip": "ym2612"
    },
    {
      "channel": 2,
      "note": 65,
      "start": 172.4646,
      "duration": 0.0837,
      "velocity": 112,
      "chip": "ym2612"
    },
    {
      "channel": 3,
      "note": 66,
      "start": 172.4653,
      "duration": 0.0498,
      "velocity": 120,
      "chip": "ym2612"
    },
    {
      "channel": 4,
      "note": 82,
      "start": 172.4712,
      "duration": 0.1178,
      "velocity": 109,
      "chip": "ym2612"
    },
    {
      "channel": 5,
      "note": 53,
      "start": 172.556,
      "duration": 0.1511,
      "velocity": 97,
      "chip": "ym2612"
    },
    {
      "channel": 0,
      "note": 54,
      "start": 172.6147,
      "duration": 0.1511,
      "velocity": 98,
      "chip": "ym2612"
    },
    {
      "channel": 1,
      "note": 61,
      "start": 172.6155,
      "duration": 0.1511,
      "velocity": 98,
      "chip": "ym2612"
    },
    {
      "channel": 2,
      "note": 65,
      "start": 172.6162,
      "duration": 0.0837,
      "velocity": 112,
      "chip": "ym2612"
    },
    {
      "channel": 3,
      "note": 54,
      "start": 172.617,
      "duration": 0.0498,
      "velocity": 120,
      "chip": "ym2612"
    },
    {
      "channel": 4,
      "note": 82,
      "start": 172.6228,
      "duration": 0.1178,
      "velocity": 110,
      "chip": "ym2612"
    },
    {
      "channel": 5,
      "note": 54,
      "start": 172.7077,
      "duration": 0.1511,
      "velocity": 98,
      "chip": "ym2612"
    },
    {
      "channel": 0,
      "note": 58,
      "start": 172.7664,
      "duration": 0.1511,
      "velocity": 99,
      "chip": "ym2612"
    },
    {
      "channel": 1,
      "note": 65,
      "start": 172.7672,
      "duration": 0.1511,
      "velocity": 99,
      "chip": "ym2612"
    },
    {
      "channel": 2,
      "note": 65,
      "start": 172.7679,
      "duration": 0.0837,
      "velocity": 112,
      "chip": "ym2612"
    },
    {
      "channel": 3,
      "note": 54,
      "start": 172.7687,
      "duration": 0.0498,
      "velocity": 120,
      "chip": "ym2612"
    },
    {
      "channel": 4,
      "note": 70,
      "start": 172.7745,
      "duration": 0.1178,
      "velocity": 111,
      "chip": "ym2612"
    },
    {
      "channel": 5,
      "note": 58,
      "start": 172.8594,
      "duration": 0.1511,
      "velocity": 99,
      "chip": "ym2612"
    },
    {
      "channel": 0,
      "note": 51,
      "start": 172.918,
      "duration": 0.1511,
      "velocity": 100,
      "chip": "ym2612"
    },
    {
      "channel": 1,
      "note": 58,
      "start": 172.9189,
      "duration": 0.1512,
      "velocity": 100,
      "chip": "ym2612"
    },
    {
      "channel": 2,
      "note": 65,
      "start": 172.9196,
      "duration": 0.0837,
      "velocity": 112,
      "chip": "ym2612"
    },
    {
      "channel": 3,
      "note": 66,
      "start": 172.9203,
      "duration": 0.0498,
      "velocity": 120,
      "chip": "ym2612"
    },
    {
      "channel": 4,
      "note": 82,
      "start": 172.9262,
      "duration": 0.1178,
      "velocity": 108,
      "chip": "ym2612"
    },
    {
      "channel": 5,
      "note": 51,
      "start": 173.011,
      "duration": 0.1512,
      "velocity": 100,
      "chip": "ym2612"
    },
    {
      "channel": 0,
      "note": 53,
      "start": 173.0698,
      "duration": 0.1511,
      "velocity": 101,
      "chip": "ym2612"
    },
    {
      "channel": 1,
      "note": 60,
      "start": 173.0706,
      "duration": 0.1511,
      "velocity": 101,
      "chip": "ym2612"
    },
    {
      "channel": 2,
      "note": 65,
      "start": 173.0713,
      "duration": 0.0837,
      "velocity": 112,
      "chip": "ym2612"
    },
    {
      "channel": 3,
      "note": 54,
      "start": 173.0721,
      "duration": 0.0497,
      "velocity": 120,
      "chip": "ym2612"
    },
    {
      "channel": 4,
      "note": 70,
      "start": 173.0778,
      "duration": 0.1178,
      "velocity": 109,
      "chip": "ym2612"
    },
    {
      "channel": 5,
      "note": 53,
      "start": 173.1628,
      "duration": 0.1511,
      "velocity": 101,
      "chip": "ym2612"
    },
    {
      "channel": 0,
      "note": 54,
      "start": 173.2214,
      "duration": 0.1511,
      "velocity": 102,
      "chip": "ym2612"
    },
    {
      "channel": 1,
      "note": 61,
      "start": 173.2222,
      "duration": 0.1512,
      "velocity": 102,
      "chip": "ym2612"
    },
    {
      "channel": 2,
      "note": 65,
      "start": 173.2229,
      "duration": 0.0837,
      "velocity": 112,
      "chip": "ym2612"
    },
    {
      "channel": 3,
      "note": 54,
      "start": 173.2238,
      "duration": 0.0498,
      "velocity": 120,
      "chip": "ym2612"
    },
    {
      "channel": 4,
      "note": 70,
      "start": 173.2296,
      "duration": 0.1177,
      "velocity": 112,
      "chip": "ym2612"
    },
    {
      "channel": 5,
      "note": 54,
      "start": 173.3144,
      "duration": 0.1511,
      "velocity": 102,
      "chip": "ym2612"
    },
    {
      "channel": 0,
      "note": 58,
      "start": 173.3731,
      "duration": 0.1511,
      "velocity": 103,
      "chip": "ym2612"
    },
    {
      "channel": 1,
      "note": 65,
      "start": 173.374,
      "duration": 0.1511,
      "velocity": 103,
      "chip": "ym2612"
    },
    {
      "channel": 2,
      "note": 65,
      "start": 173.3747,
      "duration": 0.0837,
      "velocity": 112,
      "chip": "ym2612"
    },
    {
      "channel": 3,
      "note": 66,
      "start": 173.3754,
      "duration": 0.0498,
      "velocity": 120,
      "chip": "ym2612"
    },
    {
      "channel": 4,
      "note": 82,
      "start": 173.3812,
      "duration": 0.1178,
      "velocity": 110,
      "chip": "ym2612"
    },
    {
      "channel": 5,
      "note": 58,
      "start": 173.4661,
      "duration": 0.1511,
      "velocity": 103,
      "chip": "ym2612"
    },
    {
      "channel": 0,
      "note": 51,
      "start": 173.5248,
      "duration": 0.1512,
      "velocity": 104,
      "chip": "ym2612"
    },
    {
      "channel": 1,
      "note": 58,
      "start": 173.5256,
      "duration": 0.1511,
      "velocity": 104,
      "chip": "ym2612"
    },
    {
      "channel": 2,
      "note": 65,
      "start": 173.5263,
      "duration": 0.0837,
      "velocity": 112,
      "chip": "ym2612"
    },
    {
      "channel": 3,
      "note": 54,
      "start": 173.5271,
      "duration": 0.0498,
      "velocity": 120,
      "chip": "ym2612"
    },
    {
      "channel": 4,
      "note": 82,
      "start": 173.5329,
      "duration": 0.1178,
      "velocity": 111,
      "chip": "ym2612"
    },
    {
      "channel": 5,
      "note": 51,
      "start": 173.6178,
      "duration": 0.1511,
      "velocity": 104,
      "chip": "ym2612"
    },
    {
      "channel": 0,
      "note": 53,
      "start": 173.6765,
      "duration": 0.1511,
      "velocity": 105,
      "chip": "ym2612"
    },
    {
      "channel": 1,
      "note": 60,
      "start": 173.6773,
      "duration": 0.1511,
      "velocity": 105,
      "chip": "ym2612"
    },
    {
      "channel": 2,
      "note": 65,
      "start": 173.678,
      "duration": 0.0837,
      "velocity": 112,
      "chip": "ym2612"
    },
    {
      "channel": 3,
      "note": 66,
      "start": 173.6787,
      "duration": 0.0498,
      "velocity": 120,
      "chip": "ym2612"
    },
    {
      "channel": 4,
      "note": 70,
      "start": 173.6846,
      "duration": 0.1178,
      "velocity": 108,
      "chip": "ym2612"
    },
    {
      "channel": 5,
      "note": 53,
      "start": 173.7695,
      "duration": 0.1511,
      "velocity": 105,
      "chip": "ym2612"
    },
    {
      "channel": 0,
      "note": 54,
      "start": 173.8282,
      "duration": 0.1511,
      "velocity": 106,
      "chip": "ym2612"
    },
    {
      "channel": 1,
      "note": 61,
      "start": 173.829,
      "duration": 0.1511,
      "velocity": 106,
      "chip": "ym2612"
    },
    {
      "channel": 2,
      "note": 65,
      "start": 173.8297,
      "duration": 0.0837,
      "velocity": 112,
      "chip": "ym2612"
    },
    {
      "channel": 3,
      "note": 54,
      "start": 173.8305,
      "duration": 0.0498,
      "velocity": 120,
      "chip": "ym2612"
    },
    {
      "channel": 4,
      "note": 82,
      "start": 173.8362,
      "duration": 0.1178,
      "velocity": 109,
      "chip": "ym2612"
    },
    {
      "channel": 5,
      "note": 54,
      "start": 173.9212,
      "duration": 0.1511,
      "velocity": 106,
      "chip": "ym2612"
    },
    {
      "channel": 0,
      "note": 58,
      "start": 173.9798,
      "duration": 0.1511,
      "velocity": 107,
      "chip": "ym2612"
    },
    {
      "channel": 1,
      "note": 65,
      "start": 173.9806,
      "duration": 0.1512,
      "velocity": 107,
      "chip": "ym2612"
    },
    {
      "channel": 2,
      "note": 65,
      "start": 173.9813,
      "duration": 0.0837,
      "velocity": 112,
      "chip": "ym2612"
    },
    {
      "channel": 3,
      "note": 54,
      "start": 173.9821,
      "duration": 0.0498,
      "velocity": 120,
      "chip": "ym2612"
    },
    {
      "channel": 4,
      "note": 70,
      "start": 173.988,
      "duration": 0.1178,
      "velocity": 112,
      "chip": "ym2612"
    },
    {
      "channel": 5,
      "note": 58,
      "start": 174.0728,
      "duration": 0.1512,
      "velocity": 107,
      "chip": "ym2612"
    },
    {
      "channel": 0,
      "note": 51,
      "start": 174.1315,
      "duration": 0.1511,
      "velocity": 108,
      "chip": "ym2612"
    },
    {
      "channel": 1,
      "note": 58,
      "start": 174.1324,
      "duration": 0.1511,
      "velocity": 108,
      "chip": "ym2612"
    },
    {
      "channel": 2,
      "note": 65,
      "start": 174.1331,
      "duration": 0.0836,
      "velocity": 112,
      "chip": "ym2612"
    },
    {
      "channel": 3,
      "note": 66,
      "start": 174.1338,
      "duration": 0.0497,
      "velocity": 120,
      "chip": "ym2612"
    },
    {
      "channel": 4,
      "note": 82,
      "start": 174.1396,
      "duration": 0.1178,
      "velocity": 110,
      "chip": "ym2612"
    },
    {
      "channel": 5,
      "note": 51,
      "start": 174.2246,
      "duration": 0.151,
      "velocity": 108,
      "chip": "ym2612"
    },
    {
      "channel": 0,
      "note": 53,
      "start": 174.2832,
      "duration": 0.1511,
      "velocity": 109,
      "chip": "ym2612"
    },
    {
      "channel": 1,
      "note": 60,
      "start": 174.284,
      "duration": 0.1512,
      "velocity": 109,
      "chip": "ym2612"
    },
    {
      "channel": 2,
      "note": 65,
      "start": 174.2847,
      "duration": 0.0837,
      "velocity": 112,
      "chip": "ym2612"
    },
    {
      "channel": 3,
      "note": 54,
      "start": 174.2855,
      "duration": 0.0497,
      "velocity": 120,
      "chip": "ym2612"
    },
    {
      "channel": 4,
      "note": 70,
      "start": 174.2913,
      "duration": 0.1177,
      "velocity": 108,
      "chip": "ym2612"
    },
    {
      "channel": 5,
      "note": 53,
      "start": 174.3762,
      "duration": 0.1511,
      "velocity": 109,
      "chip": "ym2612"
    },
    {
      "channel": 0,
      "note": 54,
      "start": 174.4349,
      "duration": 0.1511,
      "velocity": 110,
      "chip": "ym2612"
    },
    {
      "channel": 1,
      "note": 61,
      "start": 174.4357,
      "duration": 0.1511,
      "velocity": 110,
      "chip": "ym2612"
    },
    {
      "channel": 2,
      "note": 65,
      "start": 174.4364,
      "duration": 0.0836,
      "velocity": 112,
      "chip": "ym2612"
    },
    {
      "channel": 3,
      "note": 66,
      "start": 174.4372,
      "duration": 0.0497,
      "velocity": 120,
      "chip": "ym2612"
    },
    {
      "channel": 4,
      "note": 70,
      "start": 174.443,
      "duration": 0.1178,
      "velocity": 109,
      "chip": "ym2612"
    },
    {
      "channel": 5,
      "note": 54,
      "start": 174.5278,
      "duration": 0.1511,
      "velocity": 110,
      "chip": "ym2612"
    },
    {
      "channel": 0,
      "note": 58,
      "start": 174.5866,
      "duration": 0.1512,
      "velocity": 110,
      "chip": "ym2612"
    },
    {
      "channel": 1,
      "note": 65,
      "start": 174.5874,
      "duration": 0.1511,
      "velocity": 110,
      "chip": "ym2612"
    },
    {
      "channel": 2,
      "note": 65,
      "start": 174.5881,
      "duration": 0.0837,
      "velocity": 112,
      "chip": "ym2612"
    },
    {
      "channel": 3,
      "note": 66,
      "start": 174.5888,
      "duration": 0.0498,
      "velocity": 120,
      "chip": "ym2612"
    },
    {
      "channel": 4,
      "note": 82,
      "start": 174.5947,
      "duration": 0.1178,
      "velocity": 112,
      "chip": "ym2612"
    },
    {
      "channel": 5,
      "note": 58,
      "start": 174.6796,
      "duration": 0.1511,
      "velocity": 110,
      "chip": "ym2612"
    },
    {
      "channel": 0,
      "note": 50,
      "start": 174.7383,
      "duration": 0.1511,
      "velocity": 110,
      "chip": "ym2612"
    },
    {
      "channel": 1,
      "note": 57,
      "start": 174.739,
      "duration": 0.1512,
      "velocity": 110,
      "chip": "ym2612"
    },
    {
      "channel": 2,
      "note": 65,
      "start": 174.7398,
      "duration": 0.0837,
      "velocity": 112,
      "chip": "ym2612"
    },
    {
      "channel": 3,
      "note": 53,
      "start": 174.7406,
      "duration": 0.0498,
      "velocity": 120,
      "chip": "ym2612"
    },
    {
      "channel": 4,
      "note": 69,
      "start": 174.7463,
      "duration": 0.1178,
      "velocity": 108,
      "chip": "ym2612"
    },
    {
      "channel": 5,
      "note": 50,
      "start": 174.8312,
      "duration": 0.1511,
      "velocity": 110,
      "chip": "ym2612"
    },
    {
      "channel": 0,
      "note": 52,
      "start": 174.8899,
      "duration": 0.1511,
      "velocity": 109,
      "chip": "ym2612"
    },
    {
      "channel": 1,
      "note": 59,
      "start": 174.8908,
      "duration": 0.151,
      "velocity": 109,
      "chip": "ym2612"
    },
    {
      "channel": 2,
      "note": 65,
      "start": 174.8915,
      "duration": 0.0836,
      "velocity": 112,
      "chip": "ym2612"
    },
    {
      "channel": 3,
      "note": 65,
      "start": 174.8923,
      "duration": 0.0498,
      "velocity": 120,
      "chip": "ym2612"
    },
    {
      "channel": 4,
      "note": 81,
      "start": 174.898,
      "duration": 0.1178,
      "velocity": 108,
      "chip": "ym2612"
    },
    {
      "channel": 5,
      "note": 52,
      "start": 174.9829,
      "duration": 0.1511,
      "velocity": 109,
      "chip": "ym2612"
    },
    {
      "channel": 0,
      "note": 53,
      "start": 175.0416,
      "duration": 0.1511,
      "velocity": 108,
      "chip": "ym2612"
    },
    {
      "channel": 1,
      "note": 60,
      "start": 175.0424,
      "duration": 0.1512,
      "velocity": 108,
      "chip": "ym2612"
    },
    {
      "channel": 2,
      "note": 65,
      "start": 175.0431,
      "duration": 0.0837,
      "velocity": 112,
      "chip": "ym2612"
    },
    {
      "channel": 3,
      "note": 53,
      "start": 175.0439,
      "duration": 0.0498,
      "velocity": 120,
      "chip": "ym2612"
    },
    {
      "channel": 4,
      "note": 81,
      "start": 175.0497,
      "duration": 0.1178,
      "velocity": 112,
      "chip": "ym2612"
    },
    {
      "channel": 5,
      "note": 53,
      "start": 175.1346,
      "duration": 0.1512,
      "velocity": 108,
      "chip": "ym2612"
    },
    {
      "channel": 0,
      "note": 57,
      "start": 175.1933,
      "duration": 0.1511,
      "velocity": 107,
      "chip": "ym2612"
    },
    {
      "channel": 1,
      "note": 64,
      "start": 175.1941,
      "duration": 0.1511,
      "velocity": 107,
      "chip": "ym2612"
    },
    {
      "channel": 2,
      "note": 65,
      "start": 175.1948,
      "duration": 0.0836,
      "velocity": 112,
      "chip": "ym2612"
    },
    {
      "channel": 3,
      "note": 53,
      "start": 175.1956,
      "duration": 0.0497,
      "velocity": 120,
      "chip": "ym2612"
    },
    {
      "channel": 4,
      "note": 69,
      "start": 175.2014,
      "duration": 0.1178,
      "velocity": 109,
      "chip": "ym2612"
    },
    {
      "channel": 5,
      "note": 57,
      "start": 175.2863,
      "duration": 0.1511,
      "velocity": 107,
      "chip": "ym2612"
    },
    {
      "channel": 0,
      "note": 50,
      "start": 175.345,
      "duration": 0.1511,
      "velocity": 106,
      "chip": "ym2612"
    },
    {
      "channel": 1,
      "note": 57,
      "start": 175.3458,
      "duration": 0.1512,
      "velocity": 106,
      "chip": "ym2612"
    },
    {
      "channel": 2,
      "note": 65,
      "start": 175.3465,
      "duration": 0.0837,
      "velocity": 112,
      "chip": "ym2612"
    },
    {
      "channel": 3,
      "note": 65,
      "start": 175.3473,
      "duration": 0.0497,
      "velocity": 120,
      "chip": "ym2612"
    },
    {
      "channel": 4,
      "note": 81,
      "start": 175.3531,
      "duration": 0.1177,
      "velocity": 108,
      "chip": "ym2612"
    },
    {
      "channel": 5,
      "note": 50,
      "start": 175.438,
      "duration": 0.1511,
      "velocity": 106,
      "chip": "ym2612"
    },
    {
      "channel": 0,
      "note": 52,
      "start": 175.4967,
      "duration": 0.1511,
      "velocity": 105,
      "chip": "ym2612"
    },
    {
      "channel": 1,
      "note": 59,
      "start": 175.4975,
      "duration": 0.1511,
      "velocity": 105,
      "chip": "ym2612"
    },
    {
      "channel": 2,
      "note": 65,
      "start": 175.4982,
      "duration": 0.0836,
      "velocity": 112,
      "chip": "ym2612"
    },
    {
      "channel": 3,
      "note": 53,
      "start": 175.499,
      "duration": 0.0497,
      "velocity": 120,
      "chip": "ym2612"
    },
    {
      "channel": 4,
      "note": 69,
      "start": 175.5048,
      "duration": 0.1178,
      "velocity": 110,
      "chip": "ym2612"
    },
    {
      "channel": 5,
      "note": 52,
      "start": 175.5896,
      "duration": 0.1512,
      "velocity": 105,
      "chip": "ym2612"
    },
    {
      "channel": 0,
      "note": 53,
      "start": 175.6483,
      "duration": 0.1512,
      "velocity": 104,
      "chip": "ym2612"
    },
    {
      "channel": 1,
      "note": 60,
      "start": 175.6492,
      "duration": 0.1511,
      "velocity": 104,
      "chip": "ym2612"
    },
    {
      "channel": 2,
      "note": 65,
      "start": 175.6499,
      "duration": 0.0837,
      "velocity": 112,
      "chip": "ym2612"
    },
    {
      "channel": 3,
      "note": 53,
      "start": 175.6506,
      "duration": 0.0498,
      "velocity": 120,
      "chip": "ym2612"
    },
    {
      "channel": 4,
      "note": 69,
      "start": 175.6565,
      "duration": 0.1178,
      "velocity": 109,
      "chip": "ym2612"
    },
    {
      "channel": 5,
      "note": 53,
      "start": 175.7414,
      "duration": 0.151,
      "velocity": 104,
      "chip": "ym2612"
    },
    {
      "channel": 0,
      "note": 57,
      "start": 175.8,
      "duration": 0.1511,
      "velocity": 103,
      "chip": "ym2612"
    },
    {
      "channel": 1,
      "note": 64,
      "start": 175.8008,
      "duration": 0.1511,
      "velocity": 103,
      "chip": "ym2612"
    },
    {
      "channel": 2,
      "note": 65,
      "start": 175.8015,
      "duration": 0.0837,
      "velocity": 112,
      "chip": "ym2612"
    },
    {
      "channel": 3,
      "note": 65,
      "start": 175.8023,
      "duration": 0.0498,
      "velocity": 120,
      "chip": "ym2612"
    },
    {
      "channel": 4,
      "note": 81,
      "start": 175.8081,
      "duration": 0.1178,
      "velocity": 111,
      "chip": "ym2612"
    },
    {
      "channel": 5,
      "note": 57,
      "start": 175.893,
      "duration": 0.1511,
      "velocity": 103,
      "chip": "ym2612"
    },
    {
      "channel": 0,
      "note": 50,
      "start": 175.9517,
      "duration": 0.1511,
      "velocity": 102,
      "chip": "ym2612"
    },
    {
      "channel": 1,
      "note": 57,
      "start": 175.9525,
      "duration": 0.1511,
      "velocity": 102,
      "chip": "ym2612"
    },
    {
      "channel": 2,
      "note": 65,
      "start": 175.9532,
      "duration": 0.0837,
      "velocity": 112,
      "chip": "ym2612"
    },
    {
      "channel": 3,
      "note": 53,
      "start": 175.954,
      "duration": 0.0498,
      "velocity": 120,
      "chip": "ym2612"
    },
    {
      "channel": 4,
      "note": 81,
      "start": 175.9598,
      "duration": 0.1178,
      "velocity": 112,
      "chip": "ym2612"
    },
    {
      "channel": 5,
      "note": 50,
      "start": 176.0447,
      "duration": 0.1511,
      "velocity": 102,
      "chip": "ym2612"
    },
    {
      "channel": 0,
      "note": 52,
      "start": 176.1034,
      "duration": 0.1511,
      "velocity": 101,
      "chip": "ym2612"
    },
    {
      "channel": 1,
      "note": 59,
      "start": 176.1042,
      "duration": 0.1512,
      "velocity": 101,
      "chip": "ym2612"
    },
    {
      "channel": 2,
      "note": 65,
      "start": 176.1049,
      "duration": 0.0837,
      "velocity": 112,
      "chip": "ym2612"
    },
    {
      "channel": 3,
      "note": 65,
      "start": 176.1056,
      "duration": 0.0498,
      "velocity": 120,
      "chip": "ym2612"
    },
    {
      "channel": 4,
      "note": 69,
      "start": 176.1115,
      "duration": 0.1178,
      "velocity": 109,
      "chip": "ym2612"
    },
    {
      "channel": 5,
      "note": 52,
      "start": 176.1963,
      "duration": 0.1512,
      "velocity": 101,
      "chip": "ym2612"
    },
    {
      "channel": 0,
      "note": 53,
      "start": 176.2551,
      "duration": 0.1511,
      "velocity": 100,
      "chip": "ym2612"
    },
    {
      "channel": 1,
      "note": 60,
      "start": 176.2559,
      "duration": 0.1512,
      "velocity": 100,
      "chip": "ym2612"
    },
    {
      "channel": 2,
      "note": 65,
      "start": 176.2566,
      "duration": 0.0837,
      "velocity": 112,
      "chip": "ym2612"
    },
    {
      "channel": 3,
      "note": 53,
      "start": 176.2574,
      "duration": 0.0497,
      "velocity": 120,
      "chip": "ym2612"
    },
    {
      "channel": 4,
      "note": 81,
      "start": 176.2632,
      "duration": 0.1178,
      "velocity": 108,
      "chip": "ym2612"
    },
    {
      "channel": 5,
      "note": 53,
      "start": 176.3481,
      "duration": 0.1511,
      "velocity": 100,
      "chip": "ym2612"
    },
    {
      "channel": 0,
      "note": 57,
      "start": 176.4068,
      "duration": 0.1511,
      "velocity": 99,
      "chip": "ym2612"
    },
    {
      "channel": 1,
      "note": 64,
      "start": 176.4076,
      "duration": 0.1511,
      "velocity": 99,
      "chip": "ym2612"
    },
    {
      "channel": 2,
      "note": 65,
      "start": 176.4083,
      "duration": 0.0837,
      "velocity": 112,
      "chip": "ym2612"
    },
    {
      "channel": 3,
      "note": 53,
      "start": 176.4091,
      "duration": 0.0498,
      "velocity": 120,
      "chip": "ym2612"
    },
    {
      "channel": 4,
      "note": 69,
      "start": 176.4149,
      "duration": 0.1177,
      "velocity": 112,
      "chip": "ym2612"
    },
    {
      "channel": 5,
      "note": 57,
      "start": 176.4997,
      "duration": 0.1511,
      "velocity": 99,
      "chip": "ym2612"
    },
    {
      "channel": 0,
      "note": 50,
      "start": 176.5584,
      "duration": 0.1511,
      "velocity": 98,
      "chip": "ym2612"
    },
    {
      "channel": 1,
      "note": 57,
      "start": 176.5593,
      "duration": 0.1511,
      "velocity": 98,
      "chip": "ym2612"
    },
    {
      "channel": 2,
      "note": 65,
      "start": 176.56,
      "duration": 0.0836,
      "velocity": 112,
      "chip": "ym2612"
    },
    {
      "channel": 3,
      "note": 65,
      "start": 176.5607,
      "duration": 0.0497,
      "velocity": 120,
      "chip": "ym2612"
    },
    {
      "channel": 4,
      "note": 69,
      "start": 176.5665,
      "duration": 0.1178,
      "velocity": 111,
      "chip": "ym2612"
    },
    {
      "channel": 5,
      "note": 50,
      "start": 176.6514,
      "duration": 0.1511,
      "velocity": 98,
      "chip": "ym2612"
    },
    {
      "channel": 0,
      "note": 52,
      "start": 176.7101,
      "duration": 0.1512,
      "velocity": 97,
      "chip": "ym2612"
    },
    {
      "channel": 1,
      "note": 59,
      "start": 176.7109,
      "duration": 0.1511,
      "velocity": 97,
      "chip": "ym2612"
    },
    {
      "channel": 2,
      "note": 65,
      "start": 176.7116,
      "duration": 0.0837,
      "velocity": 112,
      "chip": "ym2612"
    },
    {
      "channel": 3,
      "note": 53,
      "start": 176.7124,
      "duration": 0.0498,
      "velocity": 120,
      "chip": "ym2612"
    },
    {
      "channel": 4,
      "note": 81,
      "start": 176.7182,
      "duration": 0.1178,
      "velocity": 109,
      "chip": "ym2612"
    },
    {
      "channel": 5,
      "note": 52,
      "start": 176.8031,
      "duration": 0.1511,
      "velocity": 97,
      "chip": "ym2612"
    },
    {
      "channel": 0,
      "note": 53,
      "start": 176.8618,
      "duration": 0.1511,
      "velocity": 96,
      "chip": "ym2612"
    },
    {
      "channel": 1,
      "note": 60,
      "start": 176.8626,
      "duration": 0.1511,
      "velocity": 96,
      "chip": "ym2612"
    },
    {
      "channel": 2,
      "note": 65,
      "start": 176.8633,
      "duration": 0.0837,
      "velocity": 112,
      "chip": "ym2612"
    },
    {
      "channel": 3,
      "note": 53,
      "start": 176.864,
      "duration": 0.0498,
      "velocity": 120,
      "chip": "ym2612"
    },
    {
      "channel": 4,
      "note": 69,
      "start": 176.8699,
      "duration": 0.1178,
      "velocity": 111,
      "chip": "ym2612"
    },
    {
      "channel": 5,
      "note": 53,
      "start": 176.9548,
      "duration": 0.1511,
      "velocity": 96,
      "chip": "ym2612"
    },
    {
      "channel": 0,
      "note": 57,
      "start": 177.0135,
      "duration": 0.1511,
      "velocity": 95,
      "chip": "ym2612"
    },
    {
      "channel": 1,
      "note": 64,
      "start": 177.0143,
      "duration": 0.1511,
      "velocity": 95,
      "chip": "ym2612"
    },
    {
      "channel": 2,
      "note": 65,
      "start": 177.015,
      "duration": 0.0837,
      "velocity": 112,
      "chip": "ym2612"
    },
    {
      "channel": 3,
      "note": 65,
      "start": 177.0158,
      "duration": 0.0498,
      "velocity": 120,
      "chip": "ym2612"
    },
    {
      "channel": 4,
      "note": 69,
      "start": 177.0215,
      "duration": 0.1178,
      "velocity": 112,
      "chip": "ym2612"
    },
    {
      "channel": 5,
      "note": 57,
      "start": 177.1065,
      "duration": 0.1511,
      "velocity": 95,
      "chip": "ym2612"
    },
    {
      "channel": 0,
      "note": 50,
      "start": 177.1651,
      "duration": 0.1511,
      "velocity": 96,
      "chip": "ym2612"
    },
    {
      "channel": 1,
      "note": 57,
      "start": 177.1659,
      "duration": 0.1512,
      "velocity": 96,
      "chip": "ym2612"
    },
    {
      "channel": 2,
      "note": 65,
      "start": 177.1666,
      "duration": 0.0837,
      "velocity": 112,
      "chip": "ym2612"
    },
    {
      "channel": 3,
      "note": 53,
      "start": 177.1674,
      "duration": 0.0498,
      "velocity": 120,
      "chip": "ym2612"
    },
    {
      "channel": 4,
      "note": 69,
      "start": 177.1733,
      "duration": 0.1178,
      "velocity": 108,
      "chip": "ym2612"
    },
    {
      "channel": 5,
      "note": 50,
      "start": 177.2581,
      "duration": 0.1512,
      "velocity": 96,
      "chip": "ym2612"
    },
    {
      "channel": 0,
      "note": 52,
      "start": 177.3168,
      "duration": 0.1511,
      "velocity": 97,
      "chip": "ym2612"
    },
    {
      "channel": 1,
      "note": 59,
      "start": 177.3177,
      "duration": 0.1511,
      "velocity": 97,
      "chip": "ym2612"
    },
    {
      "channel": 2,
      "note": 65,
      "start": 177.3184,
      "duration": 0.0836,
      "velocity": 112,
      "chip": "ym2612"
    },
    {
      "channel": 3,
      "note": 65,
      "start": 177.3191,
      "duration": 0.0497,
      "velocity": 120,
      "chip": "ym2612"
    },
    {
      "channel": 4,
      "note": 81,
      "start": 177.3249,
      "duration": 0.1178,
      "velocity": 109,
      "chip": "ym2612"
    },
    {
      "channel": 5,
      "note": 52,
      "start": 177.4098,
      "duration": 0.1511,
      "velocity": 97,
      "chip": "ym2612"
    },
    {
      "channel": 0,
      "note": 53,
      "start": 177.4685,
      "duration": 0.1511,
      "velocity": 98,
      "chip": "ym2612"
    },
    {
      "channel": 1,
      "note": 60,
      "start": 177.4693,
      "duration": 0.1512,
      "velocity": 98,
      "chip": "ym2612"
    },
    {
      "channel": 2,
      "note": 65,
      "start": 177.47,
      "duration": 0.0837,
      "velocity": 112,
      "chip": "ym2612"
    },
    {
      "channel": 3,
      "note": 53,
      "start": 177.4708,
      "duration": 0.0497,
      "velocity": 120,
      "chip": "ym2612"
    },
    {
      "channel": 4,
      "note": 81,
      "start": 177.4766,
      "duration": 0.1177,
      "velocity": 110,
      "chip": "ym2612"
    },
    {
      "channel": 5,
      "note": 53,
      "start": 177.5615,
      "duration": 0.1511,
      "velocity": 98,
      "chip": "ym2612"
    },
    {
      "channel": 0,
      "note": 57,
      "start": 177.6202,
      "duration": 0.1511,
      "velocity": 99,
      "chip": "ym2612"
    },
    {
      "channel": 1,
      "note": 64,
      "start": 177.621,
      "duration": 0.1511,
      "velocity": 99,
      "chip": "ym2612"
    },
    {
      "channel": 2,
      "note": 65,
      "start": 177.6217,
      "duration": 0.0836,
      "velocity": 112,
      "chip": "ym2612"
    },
    {
      "channel": 3,
      "note": 53,
      "start": 177.6225,
      "duration": 0.0497,
      "velocity": 120,
      "chip": "ym2612"
    },
    {
      "channel": 4,
      "note": 69,
      "start": 177.6283,
      "duration": 0.1178,
      "velocity": 111,
      "chip": "ym2612"
    },
    {
      "channel": 5,
      "note": 57,
      "start": 177.7132,
      "duration": 0.1511,
      "velocity": 99,
      "chip": "ym2612"
    },
    {
      "channel": 0,
      "note": 50,
      "start": 177.7719,
      "duration": 0.1512,
      "velocity": 100,
      "chip": "ym2612"
    },
    {
      "channel": 1,
      "note": 57,
      "start": 177.7727,
      "duration": 0.1511,
      "velocity": 100,
      "chip": "ym2612"
    },
    {
      "channel": 2,
      "note": 65,
      "start": 177.7734,
      "duration": 0.0837,
      "velocity": 112,
      "chip": "ym2612"
    },
    {
      "channel": 3,
      "note": 65,
      "start": 177.7742,
      "duration": 0.0498,
      "velocity": 120,
      "chip": "ym2612"
    },
    {
      "channel": 4,
      "note": 81,
      "start": 177.78,
      "duration": 0.1178,
      "velocity": 108,
      "chip": "ym2612"
    },
    {
      "channel": 5,
      "note": 50,
      "start": 177.8649,
      "duration": 0.1511,
      "velocity": 100,
      "chip": "ym2612"
    },
    {
      "channel": 0,
      "note": 52,
      "start": 177.9236,
      "duration": 0.1511,
      "velocity": 101,
      "chip": "ym2612"
    },
    {
      "channel": 1,
      "note": 59,
      "start": 177.9244,
      "duration": 0.1511,
      "velocity": 101,
      "chip": "ym2612"
    },
    {
      "channel": 2,
      "note": 65,
      "start": 177.9251,
      "duration": 0.0836,
      "velocity": 112,
      "chip": "ym2612"
    },
    {
      "channel": 3,
      "note": 53,
      "start": 177.9259,
      "duration": 0.0498,
      "velocity": 120,
      "chip": "ym2612"
    },
    {
      "channel": 4,
      "note": 69,
      "start": 177.9317,
      "duration": 0.1178,
      "velocity": 109,
      "chip": "ym2612"
    },
    {
      "channel": 5,
      "note": 52,
      "start": 178.0165,
      "duration": 0.1511,
      "velocity": 101,
      "chip": "ym2612"
    },
    {
      "channel": 0,
      "note": 53,
      "start": 178.0752,
      "duration": 0.1511,
      "velocity": 102,
      "chip": "ym2612"
    },
    {
      "channel": 1,
      "note": 60,
      "start": 178.0761,
      "duration": 0.1511,
      "velocity": 102,
      "chip": "ym2612"
    },
    {
      "channel": 2,
      "note": 65,
      "start": 178.0768,
      "duration": 0.0837,
      "velocity": 112,
      "chip": "ym2612"
    },
    {
      "channel": 3,
      "note": 53,
      "start": 178.0775,
      "duration": 0.0498,
      "velocity": 120,
      "chip": "ym2612"
    },
    {
      "channel": 4,
      "note": 69,
      "start": 178.0833,
      "duration": 0.1178,
      "velocity": 112,
      "chip": "ym2612"
    },
    {
      "channel": 5,
      "note": 53,
      "start": 178.1682,
      "duration": 0.1511,
      "velocity": 102,
      "chip": "ym2612"
    },
    {
      "channel": 0,
      "note": 57,
      "start": 178.2269,
      "duration": 0.1511,
      "velocity": 103,
      "chip": "ym2612"
    },
    {
      "channel": 1,
      "note": 64,
      "start": 178.2277,
      "duration": 0.1512,
      "velocity": 103,
      "chip": "ym2612"
    },
    {
      "channel": 2,
      "note": 65,
      "start": 178.2284,
      "duration": 0.0837,
      "velocity": 112,
      "chip": "ym2612"
    },
    {
      "channel": 3,
      "note": 65,
      "start": 178.2292,
      "duration": 0.0498,
      "velocity": 120,
      "chip": "ym2612"
    },
    {
      "channel": 4,
      "note": 81,
      "start": 178.235,
      "duration": 0.1178,
      "velocity": 110,
      "chip": "ym2612"
    },
    {
      "channel": 5,
      "note": 57,
      "start": 178.3199,
      "duration": 0.1512,
      "velocity": 103,
      "chip": "ym2612"
    },
    {
      "channel": 0,
      "note": 50,
      "start": 178.3786,
      "duration": 0.1511,
      "velocity": 104,
      "chip": "ym2612"
    },
    {
      "channel": 1,
      "note": 57,
      "start": 178.3794,
      "duration": 0.1511,
      "velocity": 104,
      "chip": "ym2612"
    },
    {
      "channel": 2,
      "note": 65,
      "start": 178.3801,
      "duration": 0.0836,
      "velocity": 112,
      "chip": "ym2612"
    },
    {
      "channel": 3,
      "note": 53,
      "start": 178.3809,
      "duration": 0.0497,
      "velocity": 120,
      "chip": "ym2612"
    },
    {
      "channel": 4,
      "note": 81,
      "start": 178.3867,
      "duration": 0.1178,
      "velocity": 111,
      "chip": "ym2612"
    },
    {
      "channel": 5,
      "note": 50,
      "start": 178.4716,
      "duration": 0.1511,
      "velocity": 104,
      "chip": "ym2612"
    },
    {
      "channel": 0,
      "note": 52,
      "start": 178.5303,
      "duration": 0.1511,
      "velocity": 105,
      "chip": "ym2612"
    },
    {
      "channel": 1,
      "note": 59,
      "start": 178.5311,
      "duration": 0.1511,
      "velocity": 105,
      "chip": "ym2612"
    },
    {
      "channel": 2,
      "note": 65,
      "start": 178.5318,
      "duration": 0.0837,
      "velocity": 112,
      "chip": "ym2612"
    },
    {
      "channel": 3,
      "note": 65,
      "start": 178.5326,
      "duration": 0.0497,
      "velocity": 120,
      "chip": "ym2612"
    },
    {
      "channel": 4,
      "note": 69,
      "start": 178.5384,
      "duration": 0.1177,
      "velocity": 108,
      "chip": "ym2612"
    },
    {
      "channel": 5,
      "note": 52,
      "start": 178.6233,
      "duration": 0.1511,
      "velocity": 105,
      "chip": "ym2612"
    },
    {
      "channel": 0,
      "note": 53,
      "start": 178.682,
      "duration": 0.1511,
      "velocity": 106,
      "chip": "ym2612"
    },
    {
      "channel": 1,
      "note": 60,
      "start": 178.6828,
      "duration": 0.1511,
      "velocity": 106,
      "chip": "ym2612"
    },
    {
      "channel": 2,
      "note": 65,
      "start": 178.6835,
      "duration": 0.0836,
      "velocity": 112,
      "chip": "ym2612"
    },
    {
      "channel": 3,
      "note": 53,
      "start": 178.6843,
      "duration": 0.0497,
      "velocity": 120,
      "chip": "ym2612"
    },
    {
      "channel": 4,
      "note": 81,
      "start": 178.6901,
      "duration": 0.1178,
      "velocity": 109,
      "chip": "ym2612"
    },
    {
      "channel": 5,
      "note": 53,
      "start": 178.7749,
      "duration": 0.1511,
      "velocity": 106,
      "chip": "ym2612"
    },
    {
      "channel": 0,
      "note": 57,
      "start": 178.8336,
      "duration": 0.1512,
      "velocity": 107,
      "chip": "ym2612"
    },
    {
      "channel": 1,
      "note": 64,
      "start": 178.8345,
      "duration": 0.1511,
      "velocity": 107,
      "chip": "ym2612"
    },
    {
      "channel": 2,
      "note": 65,
      "start": 178.8352,
      "duration": 0.0837,
      "velocity": 112,
      "chip": "ym2612"
    },
    {
      "channel": 3,
      "note": 53,
      "start": 178.8359,
      "duration": 0.0498,
      "velocity": 120,
      "chip": "ym2612"
    },
    {
      "channel": 4,
      "note": 69,
      "start": 178.8418,
      "duration": 0.1178,
      "velocity": 112,
      "chip": "ym2612"
    },
    {
      "channel": 5,
      "note": 57,
      "start": 178.9266,
      "duration": 0.1511,
      "velocity": 107,
      "chip": "ym2612"
    },
    {
      "channel": 0,
      "note": 50,
      "start": 178.9854,
      "duration": 0.1511,
      "velocity": 108,
      "chip": "ym2612"
    },
    {
      "channel": 1,
      "note": 57,
      "start": 178.9861,
      "duration": 0.1511,
      "velocity": 108,
      "chip": "ym2612"
    },
    {
      "channel": 2,
      "note": 65,
      "start": 178.9868,
      "duration": 0.0837,
      "velocity": 112,
      "chip": "ym2612"
    },
    {
      "channel": 3,
      "note": 65,
      "start": 178.9876,
      "duration": 0.0498,
      "velocity": 120,
      "chip": "ym2612"
    },
    {
      "channel": 4,
      "note": 81,
      "start": 178.9934,
      "duration": 0.1178,
      "velocity": 110,
      "chip": "ym2612"
    },
    {
      "channel": 5,
      "note": 50,
      "start": 179.0783,
      "duration": 0.1511,
      "velocity": 108,
      "chip": "ym2612"
    },
    {
      "channel": 0,
      "note": 52,
      "start": 179.137,
      "duration": 0.1511,
      "velocity": 109,
      "chip": "ym2612"
    },
    {
      "channel": 1,
      "note": 59,
      "start": 179.1378,
      "duration": 0.1511,
      "velocity": 109,
      "chip": "ym2612"
    },
    {
      "channel": 2,
      "note": 65,
      "start": 179.1385,
      "duration": 0.0837,
      "velocity": 112,
      "chip": "ym2612"
    },
    {
      "channel": 3,
      "note": 53,
      "start": 179.1393,
      "duration": 0.0498,
      "velocity": 120,
      "chip": "ym2612"
    },
    {
      "channel": 4,
      "note": 69,
      "start": 179.1451,
      "duration": 0.1178,
      "velocity": 108,
      "chip": "ym2612"
    },
    {
      "channel": 5,
      "note": 52,
      "start": 179.23,
      "duration": 0.1511,
      "velocity": 109,
      "chip": "ym2612"
    },
    {
      "channel": 0,
      "note": 53,
      "start": 179.2887,
      "duration": 0.1511,
      "velocity": 110,
      "chip": "ym2612"
    },
    {
      "channel": 1,
      "note": 60,
      "start": 179.2895,
      "duration": 0.1512,
      "velocity": 110,
      "chip": "ym2612"
    },
    {
      "channel": 2,
      "note": 65,
      "start": 179.2902,
      "duration": 0.0837,
      "velocity": 112,
      "chip": "ym2612"
    },
    {
      "channel": 3,
      "note": 65,
      "start": 179.291,
      "duration": 0.0497,
      "velocity": 120,
      "chip": "ym2612"
    },
    {
      "channel": 4,
      "note": 69,
      "start": 179.2968,
      "duration": 0.1178,
      "velocity": 109,
      "chip": "ym2612"
    },
    {
      "channel": 5,
      "note": 53,
      "start": 179.3817,
      "duration": 0.1512,
      "velocity": 110,
      "chip": "ym2612"
    },
    {
      "channel": 0,
      "note": 57,
      "start": 179.4404,
      "duration": 0.151,
      "velocity": 110,
      "chip": "ym2612"
    },
    {
      "channel": 1,
      "note": 64,
      "start": 179.4412,
      "duration": 0.1511,
      "velocity": 110,
      "chip": "ym2612"
    },
    {
      "channel": 2,
      "note": 65,
      "start": 179.4419,
      "duration": 0.0836,
      "velocity": 112,
      "chip": "ym2612"
    },
    {
      "channel": 3,
      "note": 65,
      "start": 179.4427,
      "duration": 0.0497,
      "velocity": 120,
      "chip": "ym2612"
    },
    {
      "channel": 4,
      "note": 81,
      "start": 179.4485,
      "duration": 0.1178,
      "velocity": 112,
      "chip": "ym2612"
    },
    {
      "channel": 5,
      "note": 57,
      "start": 179.5334,
      "duration": 0.1511,
      "velocity": 110,
      "chip": "ym2612"
    },
    {
      "channel": 0,
      "note": 49,
      "start": 179.592,
      "duration": 0.1511,
      "velocity": 110,
      "chip": "ym2612"
    },
    {
      "channel": 1,
      "note": 56,
      "start": 179.5929,
      "duration": 0.1511,
      "velocity": 110,
      "chip": "ym2612"
    },
    {
      "channel": 2,
      "note": 65,
      "start": 179.5936,
      "duration": 0.0837,
      "velocity": 112,
      "chip": "ym2612"
    },
    {
      "channel": 3,
      "note": 52,
      "start": 179.5943,
      "duration": 0.0497,
      "velocity": 120,
      "chip": "ym2612"
    },
    {
      "channel": 4,
      "note": 68,
      "start": 179.6002,
      "duration": 0.1177,
      "velocity": 108,
      "chip": "ym2612"
    },
    {
      "channel": 5,
      "note": 49,
      "start": 179.685,
      "duration": 0.1511,
      "velocity": 110,
      "chip": "ym2612"
    },
    {
      "channel": 0,
      "note": 51,
      "start": 179.7437,
      "duration": 0.1511,
      "velocity": 109,
      "chip": "ym2612"
    },
    {
      "channel": 1,
      "note": 58,
      "start": 179.7445,
      "duration": 0.1511,
      "velocity": 109,
      "chip": "ym2612"
    },
    {
      "channel": 2,
      "note": 65,
      "start": 179.7452,
      "duration": 0.0837,
      "velocity": 112,
      "chip": "ym2612"
    },
    {
      "channel": 3,
      "note": 64,
      "start": 179.746,
      "duration": 0.0498,
      "velocity": 120,
      "chip": "ym2612"
    },
    {
      "channel": 4,
      "note": 80,
      "start": 179.7518,
      "duration": 0.1178,
      "velocity": 108,
      "chip": "ym2612"
    },
    {
      "channel": 5,
      "note": 51,
      "start": 179.8367,
      "duration": 0.1511,
      "velocity": 109,
      "chip": "ym2612"
    },
    {
      "channel": 0,
      "note": 52,
      "start": 179.8954,
      "duration": 0.1512,
      "velocity": 108,
      "chip": "ym2612"
    },
    {
      "channel": 1,
      "note": 59,
      "start": 179.8962,
      "duration": 0.1511,
      "velocity": 108,
      "chip": "ym2612"
    },
    {
      "channel": 2,
      "note": 65,
      "start": 179.8969,
      "duration": 0.0837,
      "velocity": 112,
      "chip": "ym2612"
    },
    {
      "channel": 3,
      "note": 52,
      "start": 179.8977,
      "duration": 0.0498,
      "velocity": 120,
      "chip": "ym2612"
    },
    {
      "channel": 4,
      "note": 80,
      "start": 179.9035,
      "duration": 0.1178,
      "velocity": 112,
      "chip": "ym2612"
    },
    {
      "channel": 5,
      "note": 52,
      "start": 179.9884,
      "duration": 0.1511,
      "velocity": 108,
      "chip": "ym2612"
    },
    {
      "channel": 0,
      "note": 56,
      "start": 180.0471,
      "duration": 0.1511,
      "velocity": 107,
      "chip": "ym2612"
    },
    {
      "channel": 1,
      "note": 63,
      "start": 180.0479,
      "duration": 0.1511,
      "velocity": 107,
      "chip": "ym2612"
    },
    {
      "channel": 2,
      "note": 65,
      "start": 180.0486,
      "duration": 0.0837,
      "velocity": 112,
      "chip": "ym2612"
    },
    {
      "channel": 3,
      "note": 52,
      "start": 180.0493,
      "duration": 0.0498,
      "velocity": 120,
      "chip": "ym2612"
    },
    {
      "channel": 4,
      "note": 68,
      "start": 180.0552,
      "duration": 0.1178,
      "velocity": 109,
      "chip": "ym2612"
    },
    {
      "channel": 5,
      "note": 56,
      "start": 180.1401,
      "duration": 0.1511,
      "velocity": 107,
      "chip": "ym2612"
    },
    {
      "channel": 0,
      "note": 49,
      "start": 180.1988,
      "duration": 0.1511,
      "velocity": 106,
      "chip": "ym2612"
    },
    {
      "channel": 1,
      "note": 56,
      "start": 180.1996,
      "duration": 0.1511,
      "velocity": 106,
      "chip": "ym2612"
    },
    {
      "channel": 2,
      "note": 65,
      "start": 180.2003,
      "duration": 0.0837,
      "velocity": 112,
      "chip": "ym2612"
    },
    {
      "channel": 3,
      "note": 64,
      "start": 180.2011,
      "duration": 0.0498,
      "velocity": 120,
      "chip": "ym2612"
    },
    {
      "channel": 4,
      "note": 80,
      "start": 180.2069,
      "duration": 0.1178,
      "velocity": 108,
      "chip": "ym2612"
    },
    {
      "channel": 5,
      "note": 49,
      "start": 180.2918,
      "duration": 0.1511,
      "velocity": 106,
      "chip": "ym2612"
    },
    {
      "channel": 0,
      "note": 51,
      "start": 180.3504,
      "duration": 0.1511,
      "velocity": 105,
      "chip": "ym2612"
    },
    {
      "channel": 1,
      "note": 58,
      "start": 180.3512,
      "duration": 0.1512,
      "velocity": 105,
      "chip": "ym2612"
    },
    {
      "channel": 2,
      "note": 65,
      "start": 180.352,
      "duration": 0.0837,
      "velocity": 112,
      "chip": "ym2612"
    },
    {
      "channel": 3,
      "note": 52,
      "start": 180.3527,
      "duration": 0.0498,
      "velocity": 120,
      "chip": "ym2612"
    },
    {
      "channel": 4,
      "note": 68,
      "start": 180.3586,
      "duration": 0.1178,
      "velocity": 110,
      "chip": "ym2612"
    },
    {
      "channel": 5,
      "note": 51,
      "start": 180.4434,
      "duration": 0.1512,
      "velocity": 105,
      "chip": "ym2612"
    },
    {
      "channel": 0,
      "note": 52,
      "start": 180.5022,
      "duration": 0.1511,
      "velocity": 104,
      "chip": "ym2612"
    },
    {
      "channel": 1,
      "note": 59,
      "start": 180.503,
      "duration": 0.1511,
      "velocity": 104,
      "chip": "ym2612"
    },
    {
      "channel": 2,
      "note": 65,
      "start": 180.5037,
      "duration": 0.0836,
      "velocity": 112,
      "chip": "ym2612"
    },
    {
      "channel": 3,
      "note": 52,
      "start": 180.5044,
      "duration": 0.0497,
      "velocity": 120,
      "chip": "ym2612"
    },
    {
      "channel": 4,
      "note": 68,
      "start": 180.5102,
      "duration": 0.1178,
      "velocity": 109,
      "chip": "ym2612"
    },
    {
      "channel": 5,
      "note": 52,
      "start": 180.5951,
      "duration": 0.1511,
      "velocity": 104,
      "chip": "ym2612"
    },
    {
      "channel": 0,
      "note": 56,
      "start": 180.6538,
      "duration": 0.1511,
      "velocity": 103,
      "chip": "ym2612"
    },
    {
      "channel": 1,
      "note": 63,
      "start": 180.6546,
      "duration": 0.1511,
      "velocity": 103,
      "chip": "ym2612"
    },
    {
      "channel": 2,
      "note": 65,
      "start": 180.6553,
      "duration": 0.0837,
      "velocity": 112,
      "chip": "ym2612"
    },
    {
      "channel": 3,
      "note": 64,
      "start": 180.6561,
      "duration": 0.0497,
      "velocity": 120,
      "chip": "ym2612"
    },
    {
      "channel": 4,
      "note": 80,
      "start": 180.662,
      "duration": 0.1177,
      "velocity": 111,
      "chip": "ym2612"
    },
    {
      "channel": 5,
      "note": 56,
      "start": 180.7468,
      "duration": 0.1511,
      "velocity": 103,
      "chip": "ym2612"
    },
    {
      "channel": 0,
      "note": 49,
      "start": 180.8055,
      "duration": 0.1511,
      "velocity": 102,
      "chip": "ym2612"
    },
    {
      "channel": 1,
      "note": 56,
      "start": 180.8063,
      "duration": 0.1511,
      "velocity": 102,
      "chip": "ym2612"
    },
    {
      "channel": 2,
      "note": 65,
      "start": 180.8071,
      "duration": 0.0837,
      "velocity": 112,
      "chip": "ym2612"
    },
    {
      "channel": 3,
      "note": 52,
      "start": 180.8078,
      "duration": 0.0498,
      "velocity": 120,
      "chip": "ym2612"
    },
    {
      "channel": 4,
      "note": 80,
      "start": 180.8136,
      "duration": 0.1177,
      "velocity": 112,
      "chip": "ym2612"
    },
    {
      "channel": 5,
      "note": 49,
      "start": 180.8985,
      "duration": 0.1511,
      "velocity": 102,
      "chip": "ym2612"
    },
    {
      "channel": 0,
      "note": 51,
      "start": 180.9572,
      "duration": 0.1511,
      "velocity": 101,
      "chip": "ym2612"
    },
    {
      "channel": 1,
      "note": 58,
      "start": 180.958,
      "duration": 0.151,
      "velocity": 101,
      "chip": "ym2612"
    },
    {
      "channel": 2,
      "note": 65,
      "start": 180.9588,
      "duration": 0.0836,
      "velocity": 112,
      "chip": "ym2612"
    },
    {
      "channel": 3,
      "note": 64,
      "start": 180.9595,
      "duration": 0.0498,
      "velocity": 120,
      "chip": "ym2612"
    },
    {
      "channel": 4,
      "note": 68,
      "start": 180.9652,
      "duration": 0.1178,
      "velocity": 109,
      "chip": "ym2612"
    },
    {
      "channel": 5,
      "note": 51,
      "start": 181.0502,
      "duration": 0.1511,
      "velocity": 101,
      "chip": "ym2612"
    },
    {
      "channel": 0,
      "note": 52,
      "start": 181.1089,
      "duration": 0.1511,
      "velocity": 100,
      "chip": "ym2612"
    },
    {
      "channel": 1,
      "note": 59,
      "start": 181.1097,
      "duration": 0.1511,
      "velocity": 100,
      "chip": "ym2612"
    },
    {
      "channel": 2,
      "note": 65,
      "start": 181.1103,
      "duration": 0.0837,
      "velocity": 112,
      "chip": "ym2612"
    },
    {
      "channel": 3,
      "note": 52,
      "start": 181.1111,
      "duration": 0.0498,
      "velocity": 120,
      "chip": "ym2612"
    },
    {
      "channel": 4,
      "note": 80,
      "start": 181.117,
      "duration": 0.1178,
      "velocity": 108,
      "chip": "ym2612"
    },
    {
      "channel": 5,
      "note": 52,
      "start": 181.2018,
      "duration": 0.1511,
      "velocity": 100,
      "chip": "ym2612"
    },
    {
      "channel": 0,
      "note": 56,
      "start": 181.2605,
      "duration": 0.1511,
      "velocity": 99,
      "chip": "ym2612"
    },
    {
      "channel": 1,
      "note": 63,
      "start": 181.2614,
      "duration": 0.1511,
      "velocity": 99,
      "chip": "ym2612"
    },
    {
      "channel": 2,
      "note": 65,
      "start": 181.2621,
      "duration": 0.0837,
      "velocity": 112,
      "chip": "ym2612"
    },
    {
      "channel": 3,
      "note": 52,
      "start": 181.2628,
      "duration": 0.0498,
      "velocity": 120,
      "chip": "ym2612"
    },
    {
      "channel": 4,
      "note": 68,
      "start": 181.2686,
      "duration": 0.1178,
      "velocity": 112,
      "chip": "ym2612"
    },
    {
      "channel": 5,
      "note": 56,
      "start": 181.3535,
      "duration": 0.1511,
      "velocity": 99,
      "chip": "ym2612"
    },
    {
      "channel": 0,
      "note": 49,
      "start": 181.4122,
      "duration": 0.1511,
      "velocity": 98,
      "chip": "ym2612"
    },
    {
      "channel": 1,
      "note": 56,
      "start": 181.413,
      "duration": 0.1512,
      "velocity": 98,
      "chip": "ym2612"
    },
    {
      "channel": 2,
      "note": 65,
      "start": 181.4137,
      "duration": 0.0837,
      "velocity": 112,
      "chip": "ym2612"
    },
    {
      "channel": 3,
      "note": 64,
      "start": 181.4145,
      "duration": 0.0498,
      "velocity": 120,
      "chip": "ym2612"
    },
    {
      "channel": 4,
      "note": 68,
      "start": 181.4203,
      "duration": 0.1178,
      "velocity": 111,
      "chip": "ym2612"
    },
    {
      "channel": 5,
      "note": 49,
      "start": 181.5052,
      "duration": 0.1512,
      "velocity": 98,
      "chip": "ym2612"
    },
    {
      "channel": 0,
      "note": 51,
      "start": 181.5639,
      "duration": 0.1511,
      "velocity": 97,
      "chip": "ym2612"
    },
    {
      "channel": 1,
      "note": 58,
      "start": 181.5647,
      "duration": 0.1511,
      "velocity": 97,
      "chip": "ym2612"
    },
    {
      "channel": 2,
      "note": 65,
      "start": 181.5654,
      "duration": 0.0836,
      "velocity": 112,
      "chip": "ym2612"
    },
    {
      "channel": 3,
      "note": 52,
      "start": 181.5662,
      "duration": 0.0497,
      "velocity": 120,
      "chip": "ym2612"
    },
    {
      "channel": 4,
      "note": 80,
      "start": 181.572,
      "duration": 0.1178,
      "velocity": 109,
      "chip": "ym2612"
    },
    {
      "channel": 5,
      "note": 51,
      "start": 181.6569,
      "duration": 0.1511,
      "velocity": 97,
      "chip": "ym2612"
    },
    {
      "channel": 0,
      "note": 52,
      "start": 181.7156,
      "duration": 0.1512,
      "velocity": 96,
      "chip": "ym2612"
    },
    {
      "channel": 1,
      "note": 59,
      "start": 181.7164,
      "duration": 0.1511,
      "velocity": 96,
      "chip": "ym2612"
    },
    {
      "channel": 2,
      "note": 65,
      "start": 181.7171,
      "duration": 0.0837,
      "velocity": 112,
      "chip": "ym2612"
    },
    {
      "channel": 3,
      "note": 52,
      "start": 181.7178,
      "duration": 0.0498,
      "velocity": 120,
      "chip": "ym2612"
    },
    {
      "channel": 4,
      "note": 68,
      "start": 181.7237,
      "duration": 0.1177,
      "velocity": 111,
      "chip": "ym2612"
    },
    {
      "channel": 5,
      "note": 52,
      "start": 181.8086,
      "duration": 0.1511,
      "velocity": 96,
      "chip": "ym2612"
    },
    {
      "channel": 0,
      "note": 56,
      "start": 181.8673,
      "duration": 0.1511,
      "velocity": 95,
      "chip": "ym2612"
    },
    {
      "channel": 1,
      "note": 63,
      "start": 181.8681,
      "duration": 0.1511,
      "velocity": 95,
      "chip": "ym2612"
    },
    {
      "channel": 2,
      "note": 65,
      "start": 181.8688,
      "duration": 0.0836,
      "velocity": 112,
      "chip": "ym2612"
    },
    {
      "channel": 3,
      "note": 64,
      "start": 181.8696,
      "duration": 0.0497,
      "velocity": 120,
      "chip": "ym2612"
    },
    {
      "channel": 4,
      "note": 68,
      "start": 181.8754,
      "duration": 0.1178,
      "velocity": 112,
      "chip": "ym2612"
    },
    {
      "channel": 5,
      "note": 56,
      "start": 181.9602,
      "duration": 0.1511,
      "velocity": 95,
      "chip": "ym2612"
    },
    {
      "channel": 0,
      "note": 49,
      "start": 182.0189,
      "duration": 0.1512,
      "velocity": 96,
      "chip": "ym2612"
    },
    {
      "channel": 1,
      "note": 56,
      "start": 182.0198,
      "duration": 0.1511,
      "velocity": 96,
      "chip": "ym2612"
    },
    {
      "channel": 2,
      "note": 65,
      "start": 182.0205,
      "duration": 0.0837,
      "velocity": 112,
      "chip": "ym2612"
    },
    {
      "channel": 3,
      "note": 52,
      "start": 182.0212,
      "duration": 0.0498,
      "velocity": 120,
      "chip": "ym2612"
    },
    {
      "channel": 4,
      "note": 68,
      "start": 182.027,
      "duration": 0.1178,
      "velocity": 108,
      "chip": "ym2612"
    },
    {
      "channel": 5,
      "note": 49,
      "start": 182.112,
      "duration": 0.1511,
      "velocity": 96,
      "chip": "ym2612"
    },
    {
      "channel": 0,
      "note": 51,
      "start": 182.1707,
      "duration": 0.1511,
      "velocity": 97,
      "chip": "ym2612"
    },
    {
      "channel": 1,
      "note": 58,
      "start": 182.1714,
      "duration": 0.1511,
      "velocity": 97,
      "chip": "ym2612"
    },
    {
      "channel": 2,
      "note": 65,
      "start": 182.1721,
      "duration": 0.0837,
      "velocity": 112,
      "chip": "ym2612"
    },
    {
      "channel": 3,
      "note": 64,
      "start": 182.1729,
      "duration": 0.0498,
      "velocity": 120,
      "chip": "ym2612"
    },
    {
      "channel": 4,
      "note": 80,
      "start": 182.1787,
      "duration": 0.1178,
      "velocity": 109,
      "chip": "ym2612"
    },
    {
      "channel": 5,
      "note": 51,
      "start": 182.2636,
      "duration": 0.1511,
      "velocity": 97,
      "chip": "ym2612"
    },
    {
      "channel": 0,
      "note": 52,
      "start": 182.3223,
      "duration": 0.1511,
      "velocity": 98,
      "chip": "ym2612"
    },
    {
      "channel": 1,
      "note": 59,
      "start": 182.3231,
      "duration": 0.1512,
      "velocity": 98,
      "chip": "ym2612"
    },
    {
      "channel": 2,
      "note": 65,
      "start": 182.3239,
      "duration": 0.0836,
      "velocity": 112,
      "chip": "ym2612"
    },
    {
      "channel": 3,
      "note": 52,
      "start": 182.3247,
      "duration": 0.0497,
      "velocity": 120,
      "chip": "ym2612"
    },
    {
      "channel": 4,
      "note": 80,
      "start": 182.3304,
      "duration": 0.1178,
      "velocity": 110,
      "chip": "ym2612"
    },
    {
      "channel": 5,
      "note": 52,
      "start": 182.4153,
      "duration": 0.1511,
      "velocity": 98,
      "chip": "ym2612"
    },
    {
      "channel": 0,
      "note": 56,
      "start": 182.474,
      "duration": 0.1511,
      "velocity": 99,
      "chip": "ym2612"
    },
    {
      "channel": 1,
      "note": 63,
      "start": 182.4749,
      "duration": 0.1511,
      "velocity": 99,
      "chip": "ym2612"
    },
    {
      "channel": 2,
      "note": 65,
      "start": 182.4756,
      "duration": 0.0836,
      "velocity": 112,
      "chip": "ym2612"
    },
    {
      "channel": 3,
      "note": 52,
      "start": 182.4763,
      "duration": 0.0497,
      "velocity": 120,
      "chip": "ym2612"
    },
    {
      "channel": 4,
      "note": 68,
      "start": 182.4821,
      "duration": 0.1178,
      "velocity": 111,
      "chip": "ym2612"
    },
    {
      "channel": 5,
      "note": 56,
      "start": 182.567,
      "duration": 0.1512,
      "velocity": 99,
      "chip": "ym2612"
    },
    {
      "channel": 0,
      "note": 49,
      "start": 182.6257,
      "duration": 0.1511,
      "velocity": 100,
      "chip": "ym2612"
    },
    {
      "channel": 1,
      "note": 56,
      "start": 182.6265,
      "duration": 0.1511,
      "velocity": 100,
      "chip": "ym2612"
    },
    {
      "channel": 2,
      "note": 65,
      "start": 182.6272,
      "duration": 0.0836,
      "velocity": 112,
      "chip": "ym2612"
    },
    {
      "channel": 3,
      "note": 64,
      "start": 182.628,
      "duration": 0.0497,
      "velocity": 120,
      "chip": "ym2612"
    },
    {
      "channel": 4,
      "note": 80,
      "start": 182.6338,
      "duration": 0.1178,
      "velocity": 108,
      "chip": "ym2612"
    },
    {
      "channel": 5,
      "note": 49,
      "start": 182.7187,
      "duration": 0.1511,
      "velocity": 100,
      "chip": "ym2612"
    },
    {
      "channel": 0,
      "note": 51,
      "start": 182.7773,
      "duration": 0.1512,
      "velocity": 101,
      "chip": "ym2612"
    },
    {
      "channel": 1,
      "note": 58,
      "start": 182.7782,
      "duration": 0.1511,
      "velocity": 101,
      "chip": "ym2612"
    },
    {
      "channel": 2,
      "note": 65,
      "start": 182.7789,
      "duration": 0.0837,
      "velocity": 112,
      "chip": "ym2612"
    },
    {
      "channel": 3,
      "note": 52,
      "start": 182.7796,
      "duration": 0.0498,
      "velocity": 120,
      "chip": "ym2612"
    },
    {
      "channel": 4,
      "note": 68,
      "start": 182.7855,
      "duration": 0.1177,
      "velocity": 109,
      "chip": "ym2612"
    },
    {
      "channel": 5,
      "note": 51,
      "start": 182.8703,
      "duration": 0.1511,
      "velocity": 101,
      "chip": "ym2612"
    },
    {
      "channel": 0,
      "note": 52,
      "start": 182.929,
      "duration": 0.1511,
      "velocity": 102,
      "chip": "ym2612"
    },
    {
      "channel": 1,
      "note": 59,
      "start": 182.9299,
      "duration": 0.1511,
      "velocity": 102,
      "chip": "ym2612"
    },
    {
      "channel": 2,
      "note": 65,
      "start": 182.9306,
      "duration": 0.0836,
      "velocity": 112,
      "chip": "ym2612"
    },
    {
      "channel": 3,
      "note": 52,
      "start": 182.9313,
      "duration": 0.0497,
      "velocity": 120,
      "chip": "ym2612"
    },
    {
      "channel": 4,
      "note": 68,
      "start": 182.9371,
      "duration": 0.1178,
      "velocity": 112,
      "chip": "ym2612"
    },
    {
      "channel": 5,
      "note": 52,
      "start": 183.022,
      "duration": 0.1511,
      "velocity": 102,
      "chip": "ym2612"
    },
    {
      "channel": 0,
      "note": 56,
      "start": 183.0807,
      "duration": 0.1512,
      "velocity": 103,
      "chip": "ym2612"
    },
    {
      "channel": 1,
      "note": 63,
      "start": 183.0815,
      "duration": 0.1511,
      "velocity": 103,
      "chip": "ym2612"
    },
    {
      "channel": 2,
      "note": 65,
      "start": 183.0822,
      "duration": 0.0837,
      "velocity": 112,
      "chip": "ym2612"
    },
    {
      "channel": 3,
      "note": 64,
      "start": 183.083,
      "duration": 0.0498,
      "velocity": 120,
      "chip": "ym2612"
    },
    {
      "channel": 4,
      "note": 80,
      "start": 183.0888,
      "duration": 0.1178,
      "velocity": 110,
      "chip": "ym2612"
    },
    {
      "channel": 5,
      "note": 56,
      "start": 183.1738,
      "duration": 0.151,
      "velocity": 103,
      "chip": "ym2612"
    },
    {
      "channel": 0,
      "note": 49,
      "start": 183.2324,
      "duration": 0.1511,
      "velocity": 104,
      "chip": "ym2612"
    },
    {
      "channel": 1,
      "note": 56,
      "start": 183.2332,
      "duration": 0.1511,
      "velocity": 104,
      "chip": "ym2612"
    },
    {
      "channel": 2,
      "note": 65,
      "start": 183.2339,
      "duration": 0.0837,
      "velocity": 112,
      "chip": "ym2612"
    },
    {
      "channel": 3,
      "note": 52,
      "start": 183.2346,
      "duration": 0.0498,
      "velocity": 120,
      "chip": "ym2612"
    },
    {
      "channel": 4,
      "note": 80,
      "start": 183.2406,
      "duration": 0.1177,
      "velocity": 111,
      "chip": "ym2612"
    },
    {
      "channel": 5,
      "note": 49,
      "start": 183.3254,
      "duration": 0.1511,
      "velocity": 104,
      "chip": "ym2612"
    },
    {
      "channel": 0,
      "note": 51,
      "start": 183.3841,
      "duration": 0.1511,
      "velocity": 105,
      "chip": "ym2612"
    },
    {
      "channel": 1,
      "note": 58,
      "start": 183.3849,
      "duration": 0.1511,
      "velocity": 105,
      "chip": "ym2612"
    },
    {
      "channel": 2,
      "note": 65,
      "start": 183.3856,
      "duration": 0.0837,
      "velocity": 112,
      "chip": "ym2612"
    },
    {
      "channel": 3,
      "note": 64,
      "start": 183.3864,
      "duration": 0.0498,
      "velocity": 120,
      "chip": "ym2612"
    },
    {
      "channel": 4,
      "note": 68,
      "start": 183.3922,
      "duration": 0.1178,
      "velocity": 108,
      "chip": "ym2612"
    },
    {
      "channel": 5,
      "note": 51,
      "start": 183.4771,
      "duration": 0.1511,
      "velocity": 105,
      "chip": "ym2612"
    },
    {
      "channel": 0,
      "note": 52,
      "start": 183.5357,
      "duration": 0.1511,
      "velocity": 106,
      "chip": "ym2612"
    },
    {
      "channel": 1,
      "note": 59,
      "start": 183.5366,
      "duration": 0.1512,
      "velocity": 106,
      "chip": "ym2612"
    },
    {
      "channel": 2,
      "note": 65,
      "start": 183.5373,
      "duration": 0.0837,
      "velocity": 112,
      "chip": "ym2612"
    },
    {
      "channel": 3,
      "note": 52,
      "start": 183.538,
      "duration": 0.0498,
      "velocity": 120,
      "chip": "ym2612"
    },
    {
      "channel": 4,
      "note": 80,
      "start": 183.5439,
      "duration": 0.1178,
      "velocity": 109,
      "chip": "ym2612"
    },
    {
      "channel": 5,
      "note": 52,
      "start": 183.6287,
      "duration": 0.1511,
      "velocity": 106,
      "chip": "ym2612"
    },
    {
      "channel": 0,
      "note": 56,
      "start": 183.6875,
      "duration": 0.1511,
      "velocity": 107,
      "chip": "ym2612"
    },
    {
      "channel": 1,
      "note": 63,
      "start": 183.6883,
      "duration": 0.1511,
      "velocity": 107,
      "chip": "ym2612"
    },
    {
      "channel": 2,
      "note": 65,
      "start": 183.689,
      "duration": 0.0836,
      "velocity": 112,
      "chip": "ym2612"
    },
    {
      "channel": 3,
      "note": 52,
      "start": 183.6898,
      "duration": 0.0497,
      "velocity": 120,
      "chip": "ym2612"
    },
    {
      "channel": 4,
      "note": 68,
      "start": 183.6955,
      "duration": 0.1178,
      "velocity": 112,
      "chip": "ym2612"
    },
    {
      "channel": 5,
      "note": 56,
      "start": 183.7804,
      "duration": 0.1512,
      "velocity": 107,
      "chip": "ym2612"
    },
    {
      "channel": 0,
      "note": 49,
      "start": 183.8391,
      "duration": 0.1512,
      "velocity": 108,
      "chip": "ym2612"
    },
    {
      "channel": 1,
      "note": 56,
      "start": 183.8399,
      "duration": 0.1511,
      "velocity": 108,
      "chip": "ym2612"
    },
    {
      "channel": 2,
      "note": 65,
      "start": 183.8407,
      "duration": 0.0837,
      "velocity": 112,
      "chip": "ym2612"
    },
    {
      "channel": 3,
      "note": 64,
      "start": 183.8415,
      "duration": 0.0498,
      "velocity": 120,
      "chip": "ym2612"
    },
    {
      "channel": 4,
      "note": 80,
      "start": 183.8473,
      "duration": 0.1177,
      "velocity": 110,
      "chip": "ym2612"
    },
    {
      "channel": 5,
      "note": 49,
      "start": 183.9321,
      "duration": 0.1511,
      "velocity": 108,
      "chip": "ym2612"
    },
    {
      "channel": 0,
      "note": 51,
      "start": 183.9909,
      "duration": 0.151,
      "velocity": 109,
      "chip": "ym2612"
    },
    {
      "channel": 1,
      "note": 58,
      "start": 183.9917,
      "duration": 0.1511,
      "velocity": 109,
      "chip": "ym2612"
    },
    {
      "channel": 2,
      "note": 65,
      "start": 183.9924,
      "duration": 0.0836,
      "velocity": 112,
      "chip": "ym2612"
    },
    {
      "channel": 3,
      "note": 52,
      "start": 183.9931,
      "duration": 0.0497,
      "velocity": 120,
      "chip": "ym2612"
    },
    {
      "channel": 4,
      "note": 68,
      "start": 183.9989,
      "duration": 0.1178,
      "velocity": 108,
      "chip": "ym2612"
    },
    {
      "channel": 5,
      "note": 51,
      "start": 184.0838,
      "duration": 0.1511,
      "velocity": 109,
      "chip": "ym2612"
    },
    {
      "channel": 0,
      "note": 52,
      "start": 184.1425,
      "duration": 0.1512,
      "velocity": 110,
      "chip": "ym2612"
    },
    {
      "channel": 1,
      "note": 59,
      "start": 184.1433,
      "duration": 0.1511,
      "velocity": 110,
      "chip": "ym2612"
    },
    {
      "channel": 2,
      "note": 65,
      "start": 184.144,
      "duration": 0.0837,
      "velocity": 112,
      "chip": "ym2612"
    },
    {
      "channel": 3,
      "note": 64,
      "start": 184.1448,
      "duration": 0.0498,
      "velocity": 120,
      "chip": "ym2612"
    },
    {
      "channel": 4,
      "note": 68,
      "start": 184.1505,
      "duration": 0.1178,
      "velocity": 109,
      "chip": "ym2612"
    },
    {
      "channel": 5,
      "note": 52,
      "start": 184.2355,
      "duration": 0.1511,
      "velocity": 110,
      "chip": "ym2612"
    },
    {
      "channel": 0,
      "note": 56,
      "start": 184.2942,
      "duration": 0.1511,
      "velocity": 110,
      "chip": "ym2612"
    },
    {
      "channel": 1,
      "note": 63,
      "start": 184.295,
      "duration": 0.1511,
      "velocity": 110,
      "chip": "ym2612"
    },
    {
      "channel": 2,
      "note": 65,
      "start": 184.2956,
      "duration": 0.0837,
      "velocity": 112,
      "chip": "ym2612"
    },
    {
      "channel": 3,
      "note": 64,
      "start": 184.2964,
      "duration": 0.0498,
      "velocity": 120,
      "chip": "ym2612"
    },
    {
      "channel": 4,
      "note": 80,
      "start": 184.3023,
      "duration": 0.1178,
      "velocity": 112,
      "chip": "ym2612"
    },
    {
      "channel": 5,
      "note": 56,
      "start": 184.3871,
      "duration": 0.1511,
      "velocity": 110,
      "chip": "ym2612"
    },
    {
      "channel": 0,
      "note": 53,
      "start": 184.4459,
      "duration": 0.1511,
      "velocity": 110,
      "chip": "ym2612"
    },
    {
      "channel": 1,
      "note": 60,
      "start": 184.4467,
      "duration": 0.1511,
      "velocity": 110,
      "chip": "ym2612"
    },
    {
      "channel": 2,
      "note": 65,
      "start": 184.4474,
      "duration": 0.0837,
      "velocity": 112,
      "chip": "ym2612"
    },
    {
      "channel": 3,
      "note": 56,
      "start": 184.4481,
      "duration": 0.0498,
      "velocity": 120,
      "chip": "ym2612"
    },
    {
      "channel": 4,
      "note": 72,
      "start": 184.4539,
      "duration": 0.1178,
      "velocity": 108,
      "chip": "ym2612"
    },
    {
      "channel": 5,
      "note": 53,
      "start": 184.5388,
      "duration": 0.1511,
      "velocity": 110,
      "chip": "ym2612"
    },
    {
      "channel": 0,
      "note": 55,
      "start": 184.5975,
      "duration": 0.1511,
      "velocity": 109,
      "chip": "ym2612"
    },
    {
      "channel": 1,
      "note": 62,
      "start": 184.5983,
      "duration": 0.1512,
      "velocity": 109,
      "chip": "ym2612"
    },
    {
      "channel": 2,
      "note": 65,
      "start": 184.599,
      "duration": 0.0837,
      "velocity": 112,
      "chip": "ym2612"
    },
    {
      "channel": 3,
      "note": 68,
      "start": 184.5998,
      "duration": 0.0498,
      "velocity": 120,
      "chip": "ym2612"
    },
    {
      "channel": 4,
      "note": 84,
      "start": 184.6056,
      "duration": 0.1178,
      "velocity": 108,
      "chip": "ym2612"
    },
    {
      "channel": 5,
      "note": 55,
      "start": 184.6906,
      "duration": 0.151,
      "velocity": 109,
      "chip": "ym2612"
    },
    {
      "channel": 0,
      "note": 56,
      "start": 184.7492,
      "duration": 0.1511,
      "velocity": 108,
      "chip": "ym2612"
    },
    {
      "channel": 1,
      "note": 63,
      "start": 184.75,
      "duration": 0.1511,
      "velocity": 108,
      "chip": "ym2612"
    },
    {
      "channel": 2,
      "note": 65,
      "start": 184.7507,
      "duration": 0.0836,
      "velocity": 112,
      "chip": "ym2612"
    },
    {
      "channel": 3,
      "note": 56,
      "start": 184.7515,
      "duration": 0.0497,
      "velocity": 120,
      "chip": "ym2612"
    },
    {
      "channel": 4,
      "note": 84,
      "start": 184.7574,
      "duration": 0.1177,
      "velocity": 112,
      "chip": "ym2612"
    },
    {
      "channel": 5,
      "note": 56,
      "start": 184.8422,
      "duration": 0.1512,
      "velocity": 108,
      "chip": "ym2612"
    },
    {
      "channel": 0,
      "note": 60,
      "start": 184.9009,
      "duration": 0.1512,
      "velocity": 107,
      "chip": "ym2612"
    },
    {
      "channel": 1,
      "note": 67,
      "start": 184.9017,
      "duration": 0.1511,
      "velocity": 107,
      "chip": "ym2612"
    },
    {
      "channel": 2,
      "note": 65,
      "start": 184.9024,
      "duration": 0.0837,
      "velocity": 112,
      "chip": "ym2612"
    },
    {
      "channel": 3,
      "note": 56,
      "start": 184.9032,
      "duration": 0.0498,
      "velocity": 120,
      "chip": "ym2612"
    },
    {
      "channel": 4,
      "note": 72,
      "start": 184.909,
      "duration": 0.1177,
      "velocity": 109,
      "chip": "ym2612"
    },
    {
      "channel": 5,
      "note": 60,
      "start": 184.9939,
      "duration": 0.1511,
      "velocity": 107,
      "chip": "ym2612"
    },
    {
      "channel": 0,
      "note": 53,
      "start": 185.0526,
      "duration": 0.1511,
      "velocity": 106,
      "chip": "ym2612"
    },
    {
      "channel": 1,
      "note": 60,
      "start": 185.0534,
      "duration": 0.1511,
      "velocity": 106,
      "chip": "ym2612"
    },
    {
      "channel": 2,
      "note": 65,
      "start": 185.0541,
      "duration": 0.0836,
      "velocity": 112,
      "chip": "ym2612"
    },
    {
      "channel": 3,
      "note": 68,
      "start": 185.0549,
      "duration": 0.0497,
      "velocity": 120,
      "chip": "ym2612"
    },
    {
      "channel": 4,
      "note": 84,
      "start": 185.0607,
      "duration": 0.1178,
      "velocity": 108,
      "chip": "ym2612"
    },
    {
      "channel": 5,
      "note": 53,
      "start": 185.1455,
      "duration": 0.1511,
      "velocity": 106,
      "chip": "ym2612"
    },
    {
      "channel": 0,
      "note": 55,
      "start": 185.2042,
      "duration": 0.1512,
      "velocity": 105,
      "chip": "ym2612"
    },
    {
      "channel": 1,
      "note": 62,
      "start": 185.2051,
      "duration": 0.1511,
      "velocity": 105,
      "chip": "ym2612"
    },
    {
      "channel": 2,
      "note": 65,
      "start": 185.2058,
      "duration": 0.0837,
      "velocity": 112,
      "chip": "ym2612"
    },
    {
      "channel": 3,
      "note": 56,
      "start": 185.2065,
      "duration": 0.0498,
      "velocity": 120,
      "chip": "ym2612"
    },
    {
      "channel": 4,
      "note": 72,
      "start": 185.2123,
      "duration": 0.1178,
      "velocity": 110,
      "chip": "ym2612"
    },
    {
      "channel": 5,
      "note": 55,
      "start": 185.2973,
      "duration": 0.1511,
      "velocity": 105,
      "chip": "ym2612"
    },
    {
      "channel": 0,
      "note": 56,
      "start": 185.356,
      "duration": 0.1511,
      "velocity": 104,
      "chip": "ym2612"
    },
    {
      "channel": 1,
      "note": 63,
      "start": 185.3568,
      "duration": 0.1512,
      "velocity": 104,
      "chip": "ym2612"
    },
    {
      "channel": 2,
      "note": 65,
      "start": 185.3575,
      "duration": 0.0837,
      "velocity": 112,
      "chip": "ym2612"
    },
    {
      "channel": 3,
      "note": 56,
      "start": 185.3583,
      "duration": 0.0498,
      "velocity": 120,
      "chip": "ym2612"
    },
    {
      "channel": 4,
      "note": 72,
      "start": 185.364,
      "duration": 0.1178,
      "velocity": 109,
      "chip": "ym2612"
    },
    {
      "channel": 5,
      "note": 56,
      "start": 185.4489,
      "duration": 0.1512,
      "velocity": 104,
      "chip": "ym2612"
    },
    {
      "channel": 0,
      "note": 60,
      "start": 185.5077,
      "duration": 0.151,
      "velocity": 103,
      "chip": "ym2612"
    },
    {
      "channel": 1,
      "note": 67,
      "start": 185.5085,
      "duration": 0.151,
      "velocity": 103,
      "chip": "ym2612"
    },
    {
      "channel": 2,
      "note": 65,
      "start": 185.5092,
      "duration": 0.0835,
      "velocity": 112,
      "chip": "ym2612"
    },
    {
      "channel": 3,
      "note": 68,
      "start": 185.51,
      "duration": 0.0497,
      "velocity": 120,
      "chip": "ym2612"
    },
    {
      "channel": 4,
      "note": 84,
      "start": 185.5157,
      "duration": 0.1178,
      "velocity": 111,
      "chip": "ym2612"
    },
    {
      "channel": 5,
      "note": 60,
      "start": 185.6006,
      "duration": 0.1511,
      "velocity": 103,
      "chip": "ym2612"
    },
    {
      "channel": 0,
      "note": 53,
      "start": 185.6593,
      "duration": 0.1511,
      "velocity": 102,
      "chip": "ym2612"
    },
    {
      "channel": 1,
      "note": 60,
      "start": 185.6601,
      "duration": 0.1512,
      "velocity": 102,
      "chip": "ym2612"
    },
    {
      "channel": 2,
      "note": 65,
      "start": 185.6608,
      "duration": 0.0837,
      "velocity": 112,
      "chip": "ym2612"
    },
    {
      "channel": 3,
      "note": 56,
      "start": 185.6616,
      "duration": 0.0498,
      "velocity": 120,
      "chip": "ym2612"
    },
    {
      "channel": 4,
      "note": 84,
      "start": 185.6674,
      "duration": 0.1178,
      "velocity": 112,
      "chip": "ym2612"
    },
    {
      "channel": 5,
      "note": 53,
      "start": 185.7523,
      "duration": 0.1511,
      "velocity": 102,
      "chip": "ym2612"
    },
    {
      "channel": 0,
      "note": 55,
      "start": 185.811,
      "duration": 0.1511,
      "velocity": 101,
      "chip": "ym2612"
    },
    {
      "channel": 1,
      "note": 62,
      "start": 185.8118,
      "duration": 0.1511,
      "velocity": 101,
      "chip": "ym2612"
    },
    {
      "channel": 2,
      "note": 65,
      "start": 185.8125,
      "duration": 0.0836,
      "velocity": 112,
      "chip": "ym2612"
    },
    {
      "channel": 3,
      "note": 68,
      "start": 185.8133,
      "duration": 0.0497,
      "velocity": 120,
      "chip": "ym2612"
    },
    {
      "channel": 4,
      "note": 72,
      "start": 185.8191,
      "duration": 0.1178,
      "velocity": 109,
      "chip": "ym2612"
    },
    {
      "channel": 5,
      "note": 55,
      "start": 185.9039,
      "duration": 0.1512,
      "velocity": 101,
      "chip": "ym2612"
    },
    {
      "channel": 0,
      "note": 56,
      "start": 185.9626,
      "duration": 0.1512,
      "velocity": 100,
      "chip": "ym2612"
    },
    {
      "channel": 1,
      "note": 63,
      "start": 185.9635,
      "duration": 0.1511,
      "velocity": 100,
      "chip": "ym2612"
    },
    {
      "channel": 2,
      "note": 65,
      "start": 185.9642,
      "duration": 0.0837,
      "velocity": 112,
      "chip": "ym2612"
    },
    {
      "channel": 3,
      "note": 56,
      "start": 185.9649,
      "duration": 0.0498,
      "velocity": 120,
      "chip": "ym2612"
    },
    {
      "channel": 4,
      "note": 84,
      "start": 185.9708,
      "duration": 0.1177,
      "velocity": 108,
      "chip": "ym2612"
    },
    {
      "channel": 5,
      "note": 56,
      "start": 186.0556,
      "duration": 0.1511,
      "velocity": 100,
      "chip": "ym2612"
    },
    {
      "channel": 0,
      "note": 60,
      "start": 186.1144,
      "duration": 0.1511,
      "velocity": 99,
      "chip": "ym2612"
    },
    {
      "channel": 1,
      "note": 67,
      "start": 186.1151,
      "duration": 0.1511,
      "velocity": 99,
      "chip": "ym2612"
    },
    {
      "channel": 2,
      "note": 65,
      "start": 186.1158,
      "duration": 0.0837,
      "velocity": 112,
      "chip": "ym2612"
    },
    {
      "channel": 3,
      "note": 56,
      "start": 186.1166,
      "duration": 0.0498,
      "velocity": 120,
      "chip": "ym2612"
    },
    {
      "channel": 4,
      "note": 72,
      "start": 186.1224,
      "duration": 0.1178,
      "velocity": 112,
      "chip": "ym2612"
    },
    {
      "channel": 5,
      "note": 60,
      "start": 186.2074,
      "duration": 0.1511,
      "velocity": 99,
      "chip": "ym2612"
    },
    {
      "channel": 0,
      "note": 53,
      "start": 186.266,
      "duration": 0.1512,
      "velocity": 98,
      "chip": "ym2612"
    },
    {
      "channel": 1,
      "note": 60,
      "start": 186.2668,
      "duration": 0.1511,
      "velocity": 98,
      "chip": "ym2612"
    },
    {
      "channel": 2,
      "note": 65,
      "start": 186.2675,
      "duration": 0.0837,
      "velocity": 112,
      "chip": "ym2612"
    },
    {
      "channel": 3,
      "note": 68,
      "start": 186.2683,
      "duration": 0.0498,
      "velocity": 120,
      "chip": "ym2612"
    },
    {
      "channel": 4,
      "note": 72,
      "start": 186.2741,
      "duration": 0.1178,
      "velocity": 111,
      "chip": "ym2612"
    },
    {
      "channel": 5,
      "note": 53,
      "start": 186.359,
      "duration": 0.1511,
      "velocity": 98,
      "chip": "ym2612"
    },
    {
      "channel": 0,
      "note": 55,
      "start": 186.4177,
      "duration": 0.1511,
      "velocity": 97,
      "chip": "ym2612"
    },
    {
      "channel": 1,
      "note": 62,
      "start": 186.4185,
      "duration": 0.1511,
      "velocity": 97,
      "chip": "ym2612"
    },
    {
      "channel": 2,
      "note": 65,
      "start": 186.4192,
      "duration": 0.0837,
      "velocity": 112,
      "chip": "ym2612"
    },
    {
      "channel": 3,
      "note": 56,
      "start": 186.42,
      "duration": 0.0498,
      "velocity": 120,
      "chip": "ym2612"
    },
    {
      "channel": 4,
      "note": 84,
      "start": 186.4258,
      "duration": 0.1178,
      "velocity": 109,
      "chip": "ym2612"
    },
    {
      "channel": 5,
      "note": 55,
      "start": 186.5107,
      "duration": 0.1512,
      "velocity": 97,
      "chip": "ym2612"
    },
    {
      "channel": 0,
      "note": 56,
      "start": 186.5694,
      "duration": 0.1511,
      "velocity": 96,
      "chip": "ym2612"
    },
    {
      "channel": 1,
      "note": 63,
      "start": 186.5702,
      "duration": 0.1511,
      "velocity": 96,
      "chip": "ym2612"
    },
    {
      "channel": 2,
      "note": 65,
      "start": 186.5709,
      "duration": 0.0837,
      "velocity": 112,
      "chip": "ym2612"
    },
    {
      "channel": 3,
      "note": 56,
      "start": 186.5717,
      "duration": 0.0498,
      "velocity": 120,
      "chip": "ym2612"
    },
    {
      "channel": 4,
      "note": 72,
      "start": 186.5775,
      "duration": 0.1178,
      "velocity": 111,
      "chip": "ym2612"
    },
    {
      "channel": 5,
      "note": 56,
      "start": 186.6624,
      "duration": 0.1511,
      "velocity": 96,
      "chip": "ym2612"
    },
    {
      "channel": 0,
      "note": 60,
      "start": 186.721,
      "duration": 0.1511,
      "velocity": 95,
      "chip": "ym2612"
    },
    {
      "channel": 1,
      "note": 67,
      "start": 186.7219,
      "duration": 0.1512,
      "velocity": 95,
      "chip": "ym2612"
    },
    {
      "channel": 2,
      "note": 65,
      "start": 186.7226,
      "duration": 0.0837,
      "velocity": 112,
      "chip": "ym2612"
    },
    {
      "channel": 3,
      "note": 68,
      "start": 186.7233,
      "duration": 0.0498,
      "velocity": 120,
      "chip": "ym2612"
    },
    {
      "channel": 4,
      "note": 72,
      "start": 186.7292,
      "duration": 0.1178,
      "velocity": 112,
      "chip": "ym2612"
    },
    {
      "channel": 5,
      "note": 60,
      "start": 186.814,
      "duration": 0.1512,
      "velocity": 95,
      "chip": "ym2612"
    },
    {
      "channel": 0,
      "note": 53,
      "start": 186.8728,
      "duration": 0.1511,
      "velocity": 96,
      "chip": "ym2612"
    },
    {
      "channel": 1,
      "note": 60,
      "start": 186.8736,
      "duration": 0.1511,
      "velocity": 96,
      "chip": "ym2612"
    },
    {
      "channel": 2,
      "note": 65,
      "start": 186.8743,
      "duration": 0.0837,
      "velocity": 112,
      "chip": "ym2612"
    },
    {
      "channel": 3,
      "note": 56,
      "start": 186.875,
      "duration": 0.0498,
      "velocity": 120,
      "chip": "ym2612"
    },
    {
      "channel": 4,
      "note": 72,
      "start": 186.8808,
      "duration": 0.1178,
      "velocity": 108,
      "chip": "ym2612"
    },
    {
      "channel": 5,
      "note": 53,
      "start": 186.9658,
      "duration": 0.1511,
      "velocity": 96,
      "chip": "ym2612"
    },
    {
      "channel": 0,
      "note": 55,
      "start": 187.0245,
      "duration": 0.1511,
      "velocity": 97,
      "chip": "ym2612"
    },
    {
      "channel": 1,
      "note": 62,
      "start": 187.0253,
      "duration": 0.151,
      "velocity": 97,
      "chip": "ym2612"
    },
    {
      "channel": 2,
      "note": 65,
      "start": 187.026,
      "duration": 0.0836,
      "velocity": 112,
      "chip": "ym2612"
    },
    {
      "channel": 3,
      "note": 68,
      "start": 187.0268,
      "duration": 0.0497,
      "velocity": 120,
      "chip": "ym2612"
    },
    {
      "channel": 4,
      "note": 84,
      "start": 187.0326,
      "duration": 0.1177,
      "velocity": 109,
      "chip": "ym2612"
    },
    {
      "channel": 5,
      "note": 55,
      "start": 187.1174,
      "duration": 0.1511,
      "velocity": 97,
      "chip": "ym2612"
    },
    {
      "channel": 0,
      "note": 56,
      "start": 187.1761,
      "duration": 0.1511,
      "velocity": 98,
      "chip": "ym2612"
    },
    {
      "channel": 1,
      "note": 63,
      "start": 187.1769,
      "duration": 0.1511,
      "velocity": 98,
      "chip": "ym2612"
    },
    {
      "channel": 2,
      "note": 65,
      "start": 187.1776,
      "duration": 0.0837,
      "velocity": 112,
      "chip": "ym2612"
    },
    {
      "channel": 3,
      "note": 56,
      "start": 187.1783,
      "duration": 0.0498,
      "velocity": 120,
      "chip": "ym2612"
    },
    {
      "channel": 4,
      "note": 84,
      "start": 187.1842,
      "duration": 0.1178,
      "velocity": 110,
      "chip": "ym2612"
    },
    {
      "channel": 5,
      "note": 56,
      "start": 187.2691,
      "duration": 0.1511,
      "velocity": 98,
      "chip": "ym2612"
    },
    {
      "channel": 0,
      "note": 60,
      "start": 187.3278,
      "duration": 0.1511,
      "velocity": 99,
      "chip": "ym2612"
    },
    {
      "channel": 1,
      "note": 67,
      "start": 187.3286,
      "duration": 0.1511,
      "velocity": 99,
      "chip": "ym2612"
    },
    {
      "channel": 2,
      "note": 65,
      "start": 187.3293,
      "duration": 0.0837,
      "velocity": 112,
      "chip": "ym2612"
    },
    {
      "channel": 3,
      "note": 56,
      "start": 187.3301,
      "duration": 0.0498,
      "velocity": 120,
      "chip": "ym2612"
    },
    {
      "channel": 4,
      "note": 72,
      "start": 187.3359,
      "duration": 0.1178,
      "velocity": 111,
      "chip": "ym2612"
    },
    {
      "channel": 5,
      "note": 60,
      "start": 187.4208,
      "duration": 0.1511,
      "velocity": 99,
      "chip": "ym2612"
    },
    {
      "channel": 0,
      "note": 53,
      "start": 187.4794,
      "duration": 0.1512,
      "velocity": 100,
      "chip": "ym2612"
    },
    {
      "channel": 1,
      "note": 60,
      "start": 187.4803,
      "duration": 0.1511,
      "velocity": 100,
      "chip": "ym2612"
    },
    {
      "channel": 2,
      "note": 65,
      "start": 187.481,
      "duration": 0.0837,
      "velocity": 112,
      "chip": "ym2612"
    },
    {
      "channel": 3,
      "note": 68,
      "start": 187.4817,
      "duration": 0.0498,
      "velocity": 120,
      "chip": "ym2612"
    },
    {
      "channel": 4,
      "note": 84,
      "start": 187.4876,
      "duration": 0.1178,
      "velocity": 108,
      "chip": "ym2612"
    },
    {
      "channel": 5,
      "note": 53,
      "start": 187.5724,
      "duration": 0.1512,
      "velocity": 100,
      "chip": "ym2612"
    },
    {
      "channel": 0,
      "note": 55,
      "start": 187.6312,
      "duration": 0.1511,
      "velocity": 101,
      "chip": "ym2612"
    },
    {
      "channel": 1,
      "note": 62,
      "start": 187.632,
      "duration": 0.1511,
      "velocity": 101,
      "chip": "ym2612"
    },
    {
      "channel": 2,
      "note": 65,
      "start": 187.6327,
      "duration": 0.0836,
      "velocity": 112,
      "chip": "ym2612"
    },
    {
      "channel": 3,
      "note": 56,
      "start": 187.6334,
      "duration": 0.0498,
      "velocity": 120,
      "chip": "ym2612"
    },
    {
      "channel": 4,
      "note": 72,
      "start": 187.6392,
      "duration": 0.1179,
      "velocity": 109,
      "chip": "ym2612"
    },
    {
      "channel": 5,
      "note": 55,
      "start": 187.7241,
      "duration": 0.1511,
      "velocity": 101,
      "chip": "ym2612"
    },
    {
      "channel": 0,
      "note": 56,
      "start": 187.7828,
      "duration": 0.1511,
      "velocity": 102,
      "chip": "ym2612"
    },
    {
      "channel": 1,
      "note": 63,
      "start": 187.7836,
      "duration": 0.1512,
      "velocity": 102,
      "chip": "ym2612"
    },
    {
      "channel": 2,
      "note": 65,
      "start": 187.7843,
      "duration": 0.0837,
      "velocity": 112,
      "chip": "ym2612"
    },
    {
      "channel": 3,
      "note": 56,
      "start": 187.7851,
      "duration": 0.0498,
      "velocity": 120,
      "chip": "ym2612"
    },
    {
      "channel": 4,
      "note": 72,
      "start": 187.791,
      "duration": 0.1178,
      "velocity": 112,
      "chip": "ym2612"
    },
    {
      "channel": 5,
      "note": 56,
      "start": 187.8758,
      "duration": 0.1511,
      "velocity": 102,
      "chip": "ym2612"
    },
    {
      "channel": 0,
      "note": 60,
      "start": 187.9345,
      "duration": 0.1511,
      "velocity": 103,
      "chip": "ym2612"
    },
    {
      "channel": 1,
      "note": 67,
      "start": 187.9354,
      "duration": 0.1511,
      "velocity": 103,
      "chip": "ym2612"
    },
    {
      "channel": 2,
      "note": 65,
      "start": 187.9361,
      "duration": 0.0836,
      "velocity": 112,
      "chip": "ym2612"
    },
    {
      "channel": 3,
      "note": 68,
      "start": 187.9368,
      "duration": 0.0497,
      "velocity": 120,
      "chip": "ym2612"
    },
    {
      "channel": 4,
      "note": 84,
      "start": 187.9426,
      "duration": 0.1178,
      "velocity": 110,
      "chip": "ym2612"
    },
    {
      "channel": 5,
      "note": 60,
      "start": 188.0275,
      "duration": 0.1512,
      "velocity": 103,
      "chip": "ym2612"
    },
    {
      "channel": 0,
      "note": 53,
      "start": 188.0862,
      "duration": 0.1512,
      "velocity": 104,
      "chip": "ym2612"
    },
    {
      "channel": 1,
      "note": 60,
      "start": 188.087,
      "duration": 0.1511,
      "velocity": 104,
      "chip": "ym2612"
    },
    {
      "channel": 2,
      "note": 65,
      "start": 188.0877,
      "duration": 0.0837,
      "velocity": 112,
      "chip": "ym2612"
    },
    {
      "channel": 3,
      "note": 56,
      "start": 188.0885,
      "duration": 0.0498,
      "velocity": 120,
      "chip": "ym2612"
    },
    {
      "channel": 4,
      "note": 84,
      "start": 188.0943,
      "duration": 0.1177,
      "velocity": 111,
      "chip": "ym2612"
    },
    {
      "channel": 5,
      "note": 53,
      "start": 188.1792,
      "duration": 0.1511,
      "velocity": 104,
      "chip": "ym2612"
    },
    {
      "channel": 0,
      "note": 55,
      "start": 188.2379,
      "duration": 0.1511,
      "velocity": 105,
      "chip": "ym2612"
    },
    {
      "channel": 1,
      "note": 62,
      "start": 188.2387,
      "duration": 0.1511,
      "velocity": 105,
      "chip": "ym2612"
    },
    {
      "channel": 2,
      "note": 65,
      "start": 188.2394,
      "duration": 0.0837,
      "velocity": 112,
      "chip": "ym2612"
    },
    {
      "channel": 3,
      "note": 68,
      "start": 188.2402,
      "duration": 0.0497,
      "velocity": 120,
      "chip": "ym2612"
    },
    {
      "channel": 4,
      "note": 72,
      "start": 188.246,
      "duration": 0.1178,
      "velocity": 108,
      "chip": "ym2612"
    },
    {
      "channel": 5,
      "note": 55,
      "start": 188.3308,
      "duration": 0.1511,
      "velocity": 105,
      "chip": "ym2612"
    },
    {
      "channel": 0,
      "note": 56,
      "start": 188.3895,
      "duration": 0.1511,
      "velocity": 106,
      "chip": "ym2612"
    },
    {
      "channel": 1,
      "note": 63,
      "start": 188.3904,
      "duration": 0.151,
      "velocity": 106,
      "chip": "ym2612"
    },
    {
      "channel": 2,
      "note": 65,
      "start": 188.3911,
      "duration": 0.0836,
      "velocity": 112,
      "chip": "ym2612"
    },
    {
      "channel": 3,
      "note": 56,
      "start": 188.3919,
      "duration": 0.0497,
      "velocity": 120,
      "chip": "ym2612"
    },
    {
      "channel": 4,
      "note": 84,
      "start": 188.3976,
      "duration": 0.1178,
      "velocity": 109,
      "chip": "ym2612"
    },
    {
      "channel": 5,
      "note": 56,
      "start": 188.4826,
      "duration": 0.1511,
      "velocity": 106,
      "chip": "ym2612"
    },
    {
      "channel": 0,
      "note": 60,
      "start": 188.5412,
      "duration": 0.1512,
      "velocity": 107,
      "chip": "ym2612"
    },
    {
      "channel": 1,
      "note": 67,
      "start": 188.542,
      "duration": 0.1511,
      "velocity": 107,
      "chip": "ym2612"
    },
    {
      "channel": 2,
      "note": 65,
      "start": 188.5427,
      "duration": 0.0837,
      "velocity": 112,
      "chip": "ym2612"
    },
    {
      "channel": 3,
      "note": 56,
      "start": 188.5435,
      "duration": 0.0498,
      "velocity": 120,
      "chip": "ym2612"
    },
    {
      "channel": 4,
      "note": 72,
      "start": 188.5493,
      "duration": 0.1178,
      "velocity": 112,
      "chip": "ym2612"
    },
    {
      "channel": 5,
      "note": 60,
      "start": 188.6342,
      "duration": 0.1512,
      "velocity": 107,
      "chip": "ym2612"
    },
    {
      "channel": 0,
      "note": 53,
      "start": 188.6929,
      "duration": 0.1511,
      "velocity": 108,
      "chip": "ym2612"
    },
    {
      "channel": 1,
      "note": 60,
      "start": 188.6937,
      "duration": 0.1511,
      "velocity": 108,
      "chip": "ym2612"
    },
    {
      "channel": 2,
      "note": 65,
      "start": 188.6944,
      "duration": 0.0836,
      "velocity": 112,
      "chip": "ym2612"
    },
    {
      "channel": 3,
      "note": 68,
      "start": 188.6952,
      "duration": 0.0498,
      "velocity": 120,
      "chip": "ym2612"
    },
    {
      "channel": 4,
      "note": 84,
      "start": 188.701,
      "duration": 0.1178,
      "velocity": 110,
      "chip": "ym2612"
    },
    {
      "channel": 5,
      "note": 53,
      "start": 188.7859,
      "duration": 0.1511,
      "velocity": 108,
      "chip": "ym2612"
    },
    {
      "channel": 0,
      "note": 55,
      "start": 188.8446,
      "duration": 0.1511,
      "velocity": 109,
      "chip": "ym2612"
    },
    {
      "channel": 1,
      "note": 62,
      "start": 188.8454,
      "duration": 0.1512,
      "velocity": 109,
      "chip": "ym2612"
    },
    {
      "channel": 2,
      "note": 65,
      "start": 188.8461,
      "duration": 0.0837,
      "velocity": 112,
      "chip": "ym2612"
    },
    {
      "channel": 3,
      "note": 56,
      "start": 188.8469,
      "duration": 0.0498,
      "velocity": 120,
      "chip": "ym2612"
    },
    {
      "channel": 4,
      "note": 72,
      "start": 188.8527,
      "duration": 0.1178,
      "velocity": 108,
      "chip": "ym2612"
    },
    {
      "channel": 5,
      "note": 55,
      "start": 188.9376,
      "duration": 0.1511,
      "velocity": 109,
      "chip": "ym2612"
    },
    {
      "channel": 0,
      "note": 56,
      "start": 188.9963,
      "duration": 0.1511,
      "velocity": 110,
      "chip": "ym2612"
    },
    {
      "channel": 1,
      "note": 63,
      "start": 188.9971,
      "duration": 0.1511,
      "velocity": 110,
      "chip": "ym2612"
    },
    {
      "channel": 2,
      "note": 65,
      "start": 188.9978,
      "duration": 0.0836,
      "velocity": 112,
      "chip": "ym2612"
    },
    {
      "channel": 3,
      "note": 68,
      "start": 188.9986,
      "duration": 0.0497,
      "velocity": 120,
      "chip": "ym2612"
    },
    {
      "channel": 4,
      "note": 72,
      "start": 189.0044,
      "duration": 0.1178,
      "velocity": 109,
      "chip": "ym2612"
    },
    {
      "channel": 5,
      "note": 56,
      "start": 189.0892,
      "duration": 0.1512,
      "velocity": 110,
      "chip": "ym2612"
    },
    {
      "channel": 0,
      "note": 60,
      "start": 189.1479,
      "duration": 0.1512,
      "velocity": 110,
      "chip": "ym2612"
    },
    {
      "channel": 1,
      "note": 67,
      "start": 189.1488,
      "duration": 0.1511,
      "velocity": 110,
      "chip": "ym2612"
    },
    {
      "channel": 2,
      "note": 65,
      "start": 189.1495,
      "duration": 0.0837,
      "velocity": 112,
      "chip": "ym2612"
    },
    {
      "channel": 3,
      "note": 68,
      "start": 189.1502,
      "duration": 0.0498,
      "velocity": 120,
      "chip": "ym2612"
    },
    {
      "channel": 4,
      "note": 84,
      "start": 189.1561,
      "duration": 0.1178,
      "velocity": 112,
      "chip": "ym2612"
    },
    {
      "channel": 5,
      "note": 60,
      "start": 189.241,
      "duration": 0.151,
      "velocity": 110,
      "chip": "ym2612"
    },
    {
      "channel": 0,
      "note": 51,
      "start": 189.2997,
      "duration": 0.1511,
      "velocity": 110,
      "chip": "ym2612"
    },
    {
      "channel": 1,
      "note": 58,
      "start": 189.3004,
      "duration": 0.1511,
      "velocity": 110,
      "chip": "ym2612"
    },
    {
      "channel": 2,
      "note": 65,
      "start": 189.3011,
      "duration": 0.0837,
      "velocity": 112,
      "chip": "ym2612"
    },
    {
      "channel": 3,
      "note": 54,
      "start": 189.3019,
      "duration": 0.0498,
      "velocity": 120,
      "chip": "ym2612"
    },
    {
      "channel": 4,
      "note": 70,
      "start": 189.3077,
      "duration": 0.1178,
      "velocity": 108,
      "chip": "ym2612"
    },
    {
      "channel": 5,
      "note": 51,
      "start": 189.3926,
      "duration": 0.1511,
      "velocity": 110,
      "chip": "ym2612"
    },
    {
      "channel": 0,
      "note": 53,
      "start": 189.4513,
      "duration": 0.1511,
      "velocity": 109,
      "chip": "ym2612"
    },
    {
      "channel": 1,
      "note": 60,
      "start": 189.4522,
      "duration": 0.1511,
      "velocity": 109,
      "chip": "ym2612"
    },
    {
      "channel": 2,
      "note": 65,
      "start": 189.4528,
      "duration": 0.0837,
      "velocity": 112,
      "chip": "ym2612"
    },
    {
      "channel": 3,
      "note": 66,
      "start": 189.4536,
      "duration": 0.0498,
      "velocity": 120,
      "chip": "ym2612"
    },
    {
      "channel": 4,
      "note": 82,
      "start": 189.4594,
      "duration": 0.1178,
      "velocity": 108,
      "chip": "ym2612"
    },
    {
      "channel": 5,
      "note": 53,
      "start": 189.5443,
      "duration": 0.1511,
      "velocity": 109,
      "chip": "ym2612"
    },
    {
      "channel": 0,
      "note": 54,
      "start": 189.603,
      "duration": 0.1512,
      "velocity": 108,
      "chip": "ym2612"
    },
    {
      "channel": 1,
      "note": 61,
      "start": 189.6038,
      "duration": 0.1511,
      "velocity": 108,
      "chip": "ym2612"
    },
    {
      "channel": 2,
      "note": 65,
      "start": 189.6045,
      "duration": 0.0837,
      "velocity": 112,
      "chip": "ym2612"
    },
    {
      "channel": 3,
      "note": 54,
      "start": 189.6053,
      "duration": 0.0498,
      "velocity": 120,
      "chip": "ym2612"
    },
    {
      "channel": 4,
      "note": 82,
      "start": 189.6111,
      "duration": 0.1178,
      "velocity": 112,
      "chip": "ym2612"
    },
    {
      "channel": 5,
      "note": 54,
      "start": 189.696,
      "duration": 0.1512,
      "velocity": 108,
      "chip": "ym2612"
    },
    {
      "channel": 0,
      "note": 58,
      "start": 189.7547,
      "duration": 0.1511,
      "velocity": 107,
      "chip": "ym2612"
    },
    {
      "channel": 1,
      "note": 65,
      "start": 189.7555,
      "duration": 0.1511,
      "velocity": 107,
      "chip": "ym2612"
    },
    {
      "channel": 2,
      "note": 65,
      "start": 189.7562,
      "duration": 0.0836,
      "velocity": 112,
      "chip": "ym2612"
    },
    {
      "channel": 3,
      "note": 54,
      "start": 189.757,
      "duration": 0.0498,
      "velocity": 120,
      "chip": "ym2612"
    },
    {
      "channel": 4,
      "note": 70,
      "start": 189.7628,
      "duration": 0.1178,
      "velocity": 109,
      "chip": "ym2612"
    },
    {
      "channel": 5,
      "note": 58,
      "start": 189.8477,
      "duration": 0.1511,
      "velocity": 107,
      "chip": "ym2612"
    },
    {
      "channel": 0,
      "note": 51,
      "start": 189.9063,
      "duration": 0.1511,
      "velocity": 106,
      "chip": "ym2612"
    },
    {
      "channel": 1,
      "note": 58,
      "start": 189.9072,
      "duration": 0.1511,
      "velocity": 106,
      "chip": "ym2612"
    },
    {
      "channel": 2,
      "note": 65,
      "start": 189.9079,
      "duration": 0.0837,
      "velocity": 112,
      "chip": "ym2612"
    },
    {
      "channel": 3,
      "note": 66,
      "start": 189.9087,
      "duration": 0.0497,
      "velocity": 120,
      "chip": "ym2612"
    },
    {
      "channel": 4,
      "note": 82,
      "start": 189.9145,
      "duration": 0.1177,
      "velocity": 108,
      "chip": "ym2612"
    },
    {
      "channel": 5,
      "note": 51,
      "start": 189.9993,
      "duration": 0.1511,
      "velocity": 106,
      "chip": "ym2612"
    },
    {
      "channel": 0,
      "note": 53,
      "start": 190.058,
      "duration": 0.1511,
      "velocity": 105,
      "chip": "ym2612"
    },
    {
      "channel": 1,
      "note": 60,
      "start": 190.0589,
      "duration": 0.1511,
      "velocity": 105,
      "chip": "ym2612"
    },
    {
      "channel": 2,
      "note": 65,
      "start": 190.0596,
      "duration": 0.0836,
      "velocity": 112,
      "chip": "ym2612"
    },
    {
      "channel": 3,
      "note": 54,
      "start": 190.0603,
      "duration": 0.0497,
      "velocity": 120,
      "chip": "ym2612"
    },
    {
      "channel": 4,
      "note": 70,
      "start": 190.0661,
      "duration": 0.1178,
      "velocity": 110,
      "chip": "ym2612"
    },
    {
      "channel": 5,
      "note": 53,
      "start": 190.151,
      "duration": 0.1512,
      "velocity": 105,
      "chip": "ym2612"
    },
    {
      "channel": 0,
      "note": 54,
      "start": 190.2097,
      "duration": 0.1512,
      "velocity": 104,
      "chip": "ym2612"
    },
    {
      "channel": 1,
      "note": 61,
      "start": 190.2105,
      "duration": 0.1511,
      "velocity": 104,
      "chip": "ym2612"
    },
    {
      "channel": 2,
      "note": 65,
      "start": 190.2112,
      "duration": 0.0837,
      "velocity": 112,
      "chip": "ym2612"
    },
    {
      "channel": 3,
      "note": 54,
      "start": 190.212,
      "duration": 0.0498,
      "velocity": 120,
      "chip": "ym2612"
    },
    {
      "channel": 4,
      "note": 70,
      "start": 190.2178,
      "duration": 0.1178,
      "velocity": 109,
      "chip": "ym2612"
    },
    {
      "channel": 5,
      "note": 54,
      "start": 190.3027,
      "duration": 0.1511,
      "velocity": 104,
      "chip": "ym2612"
    },
    {
      "channel": 0,
      "note": 58,
      "start": 190.3614,
      "duration": 0.1511,
      "velocity": 103,
      "chip": "ym2612"
    },
    {
      "channel": 1,
      "note": 65,
      "start": 190.3622,
      "duration": 0.1511,
      "velocity": 103,
      "chip": "ym2612"
    },
    {
      "channel": 2,
      "note": 65,
      "start": 190.3629,
      "duration": 0.0837,
      "velocity": 112,
      "chip": "ym2612"
    },
    {
      "channel": 3,
      "note": 66,
      "start": 190.3637,
      "duration": 0.0498,
      "velocity": 120,
      "chip": "ym2612"
    },
    {
      "channel": 4,
      "note": 82,
      "start": 190.3695,
      "duration": 0.1178,
      "velocity": 111,
      "chip": "ym2612"
    },
    {
      "channel": 5,
      "note": 58,
      "start": 190.4544,
      "duration": 0.1511,
      "velocity": 103,
      "chip": "ym2612"
    },
    {
      "channel": 0,
      "note": 51,
      "start": 190.5131,
      "duration": 0.1511,
      "velocity": 102,
      "chip": "ym2612"
    },
    {
      "channel": 1,
      "note": 58,
      "start": 190.5139,
      "duration": 0.1511,
      "velocity": 102,
      "chip": "ym2612"
    },
    {
      "channel": 2,
      "note": 65,
      "start": 190.5146,
      "duration": 0.0837,
      "velocity": 112,
      "chip": "ym2612"
    },
    {
      "channel": 3,
      "note": 54,
      "start": 190.5154,
      "duration": 0.0498,
      "velocity": 120,
      "chip": "ym2612"
    },
    {
      "channel": 4,
      "note": 82,
      "start": 190.5212,
      "duration": 0.1178,
      "velocity": 112,
      "chip": "ym2612"
    },
    {
      "channel": 5,
      "note": 51,
      "start": 190.6061,
      "duration": 0.1511,
      "velocity": 102,
      "chip": "ym2612"
    },
    {
      "channel": 0,
      "note": 53,
      "start": 190.6647,
      "duration": 0.1512,
      "velocity": 101,
      "chip": "ym2612"
    },
    {
      "channel": 1,
      "note": 60,
      "start": 190.6656,
      "duration": 0.1512,
      "velocity": 101,
      "chip": "ym2612"
    },
    {
      "channel": 2,
      "note": 65,
      "start": 190.6663,
      "duration": 0.0837,
      "velocity": 112,
      "chip": "ym2612"
    },
    {
      "channel": 3,
      "note": 66,
      "start": 190.667,
      "duration": 0.0498,
      "velocity": 120,
      "chip": "ym2612"
    },
    {
      "channel": 4,
      "note": 70,
      "start": 190.6729,
      "duration": 0.1178,
      "velocity": 109,
      "chip": "ym2612"
    },
    {
      "channel": 5,
      "note": 53,
      "start": 190.7578,
      "duration": 0.1511,
      "velocity": 101,
      "chip": "ym2612"
    },
    {
      "channel": 0,
      "note": 54,
      "start": 190.8165,
      "duration": 0.1511,
      "velocity": 100,
      "chip": "ym2612"
    },
    {
      "channel": 1,
      "note": 61,
      "start": 190.8173,
      "duration": 0.1511,
      "velocity": 100,
      "chip": "ym2612"
    },
    {
      "channel": 2,
      "note": 65,
      "start": 190.818,
      "duration": 0.0836,
      "velocity": 112,
      "chip": "ym2612"
    },
    {
      "channel": 3,
      "note": 54,
      "start": 190.8188,
      "duration": 0.0498,
      "velocity": 120,
      "chip": "ym2612"
    },
    {
      "channel": 4,
      "note": 82,
      "start": 190.8245,
      "duration": 0.1178,
      "velocity": 108,
      "chip": "ym2612"
    },
    {
      "channel": 5,
      "note": 54,
      "start": 190.9095,
      "duration": 0.1511,
      "velocity": 100,
      "chip": "ym2612"
    },
    {
      "channel": 0,
      "note": 58,
      "start": 190.9681,
      "duration": 0.1511,
      "velocity": 99,
      "chip": "ym2612"
    },
    {
      "channel": 1,
      "note": 65,
      "start": 190.9689,
      "duration": 0.1512,
      "velocity": 99,
      "chip": "ym2612"
    },
    {
      "channel": 2,
      "note": 65,
      "start": 190.9696,
      "duration": 0.0837,
      "velocity": 112,
      "chip": "ym2612"
    },
    {
      "channel": 3,
      "note": 54,
      "start": 190.9704,
      "duration": 0.0497,
      "velocity": 120,
      "chip": "ym2612"
    },
    {
      "channel": 4,
      "note": 70,
      "start": 190.9763,
      "duration": 0.1177,
      "velocity": 112,
      "chip": "ym2612"
    },
    {
      "channel": 5,
      "note": 58,
      "start": 191.0611,
      "duration": 0.1511,
      "velocity": 99,
      "chip": "ym2612"
    },
    {
      "channel": 0,
      "note": 51,
      "start": 191.1198,
      "duration": 0.1511,
      "velocity": 98,
      "chip": "ym2612"
    },
    {
      "channel": 1,
      "note": 58,
      "start": 191.1207,
      "duration": 0.1511,
      "velocity": 98,
      "chip": "ym2612"
    },
    {
      "channel": 2,
      "note": 65,
      "start": 191.1214,
      "duration": 0.0836,
      "velocity": 112,
      "chip": "ym2612"
    },
    {
      "channel": 3,
      "note": 66,
      "start": 191.1221,
      "duration": 0.0497,
      "velocity": 120,
      "chip": "ym2612"
    },
    {
      "channel": 4,
      "note": 70,
      "start": 191.1279,
      "duration": 0.1178,
      "velocity": 111,
      "chip": "ym2612"
    },
    {
      "channel": 5,
      "note": 51,
      "start": 191.2128,
      "duration": 0.1512,
      "velocity": 98,
      "chip": "ym2612"
    },
    {
      "channel": 0,
      "note": 53,
      "start": 191.2715,
      "duration": 0.1512,
      "velocity": 97,
      "chip": "ym2612"
    },
    {
      "channel": 1,
      "note": 60,
      "start": 191.2723,
      "duration": 0.1511,
      "velocity": 97,
      "chip": "ym2612"
    },
    {
      "channel": 2,
      "note": 65,
      "start": 191.273,
      "duration": 0.0837,
      "velocity": 112,
      "chip": "ym2612"
    },
    {
      "channel": 3,
      "note": 54,
      "start": 191.2738,
      "duration": 0.0498,
      "velocity": 120,
      "chip": "ym2612"
    },
    {
      "channel": 4,
      "note": 82,
      "start": 191.2796,
      "duration": 0.1178,
      "velocity": 109,
      "chip": "ym2612"
    },
    {
      "channel": 5,
      "note": 53,
      "start": 191.3645,
      "duration": 0.1511,
      "velocity": 97,
      "chip": "ym2612"
    },
    {
      "channel": 0,
      "note": 54,
      "start": 191.4232,
      "duration": 0.1511,
      "velocity": 96,
      "chip": "ym2612"
    },
    {
      "channel": 1,
      "note": 61,
      "start": 191.424,
      "duration": 0.1511,
      "velocity": 96,
      "chip": "ym2612"
    },
    {
      "channel": 2,
      "note": 65,
      "start": 191.4247,
      "duration": 0.0837,
      "velocity": 112,
      "chip": "ym2612"
    },
    {
      "channel": 3,
      "note": 54,
      "start": 191.4255,
      "duration": 0.0498,
      "velocity": 120,
      "chip": "ym2612"
    },
    {
      "channel": 4,
      "note": 70,
      "start": 191.4313,
      "duration": 0.1178,
      "velocity": 111,
      "chip": "ym2612"
    },
    {
      "channel": 5,
      "note": 54,
      "start": 191.5161,
      "duration": 0.1511,
      "velocity": 96,
      "chip": "ym2612"
    },
    {
      "channel": 0,
      "note": 58,
      "start": 191.5749,
      "duration": 0.1511,
      "velocity": 95,
      "chip": "ym2612"
    },
    {
      "channel": 1,
      "note": 65,
      "start": 191.5757,
      "duration": 0.1511,
      "velocity": 95,
      "chip": "ym2612"
    },
    {
      "channel": 2,
      "note": 65,
      "start": 191.5764,
      "duration": 0.0837,
      "velocity": 112,
      "chip": "ym2612"
    },
    {
      "channel": 3,
      "note": 66,
      "start": 191.5771,
      "duration": 0.0498,
      "velocity": 120,
      "chip": "ym2612"
    },
    {
      "channel": 4,
      "note": 70,
      "start": 191.5829,
      "duration": 0.1178,
      "velocity": 112,
      "chip": "ym2612"
    },
    {
      "channel": 5,
      "note": 58,
      "start": 191.6678,
      "duration": 0.1511,
      "velocity": 95,
      "chip": "ym2612"
    },
    {
      "channel": 0,
      "note": 51,
      "start": 191.7265,
      "duration": 0.1512,
      "velocity": 96,
      "chip": "ym2612"
    },
    {
      "channel": 1,
      "note": 58,
      "start": 191.7273,
      "duration": 0.1512,
      "velocity": 96,
      "chip": "ym2612"
    },
    {
      "channel": 2,
      "note": 65,
      "start": 191.728,
      "duration": 0.0837,
      "velocity": 112,
      "chip": "ym2612"
    },
    {
      "channel": 3,
      "note": 54,
      "start": 191.7288,
      "duration": 0.0498,
      "velocity": 120,
      "chip": "ym2612"
    },
    {
      "channel": 4,
      "note": 70,
      "start": 191.7346,
      "duration": 0.1178,
      "velocity": 108,
      "chip": "ym2612"
    },
    {
      "channel": 5,
      "note": 51,
      "start": 191.8195,
      "duration": 0.1512,
      "velocity": 96,
      "chip": "ym2612"
    },
    {
      "channel": 0,
      "note": 53,
      "start": 191.8782,
      "duration": 0.1511,
      "velocity": 97,
      "chip": "ym2612"
    },
    {
      "channel": 1,
      "note": 60,
      "start": 191.879,
      "duration": 0.1511,
      "velocity": 97,
      "chip": "ym2612"
    },
    {
      "channel": 2,
      "note": 65,
      "start": 191.8798,
      "duration": 0.0836,
      "velocity": 112,
      "chip": "ym2612"
    },
    {
      "channel": 3,
      "note": 66,
      "start": 191.8805,
      "duration": 0.0498,
      "velocity": 120,
      "chip": "ym2612"
    },
    {
      "channel": 4,
      "note": 82,
      "start": 191.8863,
      "duration": 0.1178,
      "velocity": 109,
      "chip": "ym2612"
    },
    {
      "channel": 5,
      "note": 53,
      "start": 191.9712,
      "duration": 0.1511,
      "velocity": 97,
      "chip": "ym2612"
    },
    {
      "channel": 0,
      "note": 54,
      "start": 192.0299,
      "duration": 0.1511,
      "velocity": 98,
      "chip": "ym2612"
    },
    {
      "channel": 1,
      "note": 61,
      "start": 192.0307,
      "duration": 0.1512,
      "velocity": 98,
      "chip": "ym2612"
    },
    {
      "channel": 2,
      "note": 65,
      "start": 192.0314,
      "duration": 0.0837,
      "velocity": 112,
      "chip": "ym2612"
    },
    {
      "channel": 3,
      "note": 54,
      "start": 192.0322,
      "duration": 0.0497,
      "velocity": 120,
      "chip": "ym2612"
    },
    {
      "channel": 4,
      "note": 82,
      "start": 192.038,
      "duration": 0.1177,
      "velocity": 110,
      "chip": "ym2612"
    },
    {
      "channel": 5,
      "note": 54,
      "start": 192.1229,
      "duration": 0.1512,
      "velocity": 98,
      "chip": "ym2612"
    },
    {
      "channel": 0,
      "note": 58,
      "start": 192.1816,
      "duration": 0.1511,
      "velocity": 99,
      "chip": "ym2612"
    },
    {
      "channel": 1,
      "note": 65,
      "start": 192.1824,
      "duration": 0.1511,
      "velocity": 99,
      "chip": "ym2612"
    },
    {
      "channel": 2,
      "note": 65,
      "start": 192.1831,
      "duration": 0.0836,
      "velocity": 112,
      "chip": "ym2612"
    },
    {
      "channel": 3,
      "note": 54,
      "start": 192.1839,
      "duration": 0.0497,
      "velocity": 120,
      "chip": "ym2612"
    },
    {
      "channel": 4,
      "note": 70,
      "start": 192.1897,
      "duration": 0.1177,
      "velocity": 111,
      "chip": "ym2612"
    },
    {
      "channel": 5,
      "note": 58,
      "start": 192.2746,
      "duration": 0.1511,
      "velocity": 99,
      "chip": "ym2612"
    },
    {
      "channel": 0,
      "note": 51,
      "start": 192.3332,
      "duration": 0.1512,
      "velocity": 100,
      "chip": "ym2612"
    },
    {
      "channel": 1,
      "note": 58,
      "start": 192.3341,
      "duration": 0.1511,
      "velocity": 100,
      "chip": "ym2612"
    },
    {
      "channel": 2,
      "note": 65,
      "start": 192.3348,
      "duration": 0.0837,
      "velocity": 112,
      "chip": "ym2612"
    },
    {
      "channel": 3,
      "note": 66,
      "start": 192.3355,
      "duration": 0.0498,
      "velocity": 120,
      "chip": "ym2612"
    },
    {
      "channel": 4,
      "note": 82,
      "start": 192.3414,
      "duration": 0.1178,
      "velocity": 108,
      "chip": "ym2612"
    },
    {
      "channel": 5,
      "note": 51,
      "start": 192.4263,
      "duration": 0.1511,
      "velocity": 100,
      "chip": "ym2612"
    },
    {
      "channel": 0,
      "note": 53,
      "start": 192.485,
      "duration": 0.1511,
      "velocity": 101,
      "chip": "ym2612"
    },
    {
      "channel": 1,
      "note": 60,
      "start": 192.4857,
      "duration": 0.1511,
      "velocity": 101,
      "chip": "ym2612"
    },
    {
      "channel": 2,
      "note": 65,
      "start": 192.4864,
      "duration": 0.0837,
      "velocity": 112,
      "chip": "ym2612"
    },
    {
      "channel": 3,
      "note": 54,
      "start": 192.4872,
      "duration": 0.0498,
      "velocity": 120,
      "chip": "ym2612"
    },
    {
      "channel": 4,
      "note": 70,
      "start": 192.493,
      "duration": 0.1178,
      "velocity": 109,
      "chip": "ym2612"
    },
    {
      "channel": 5,
      "note": 53,
      "start": 192.5779,
      "duration": 0.1511,
      "velocity": 101,
      "chip": "ym2612"
    },
    {
      "channel": 0,
      "note": 54,
      "start": 192.6366,
      "duration": 0.1511,
      "velocity": 102,
      "chip": "ym2612"
    },
    {
      "channel": 1,
      "note": 61,
      "start": 192.6375,
      "duration": 0.1511,
      "velocity": 102,
      "chip": "ym2612"
    },
    {
      "channel": 2,
      "note": 65,
      "start": 192.6381,
      "duration": 0.0837,
      "velocity": 112,
      "chip": "ym2612"
    },
    {
      "channel": 3,
      "note": 54,
      "start": 192.6389,
      "duration": 0.0498,
      "velocity": 120,
      "chip": "ym2612"
    },
    {
      "channel": 4,
      "note": 70,
      "start": 192.6447,
      "duration": 0.1178,
      "velocity": 112,
      "chip": "ym2612"
    },
    {
      "channel": 5,
      "note": 54,
      "start": 192.7296,
      "duration": 0.1511,
      "velocity": 102,
      "chip": "ym2612"
    },
    {
      "channel": 0,
      "note": 58,
      "start": 192.7883,
      "duration": 0.1512,
      "velocity": 103,
      "chip": "ym2612"
    },
    {
      "channel": 1,
      "note": 65,
      "start": 192.7891,
      "duration": 0.1512,
      "velocity": 103,
      "chip": "ym2612"
    },
    {
      "channel": 2,
      "note": 65,
      "start": 192.7898,
      "duration": 0.0837,
      "velocity": 112,
      "chip": "ym2612"
    },
    {
      "channel": 3,
      "note": 66,
      "start": 192.7906,
      "duration": 0.0498,
      "velocity": 120,
      "chip": "ym2612"
    },
    {
      "channel": 4,
      "note": 82,
      "start": 192.7964,
      "duration": 0.1178,
      "velocity": 110,
      "chip": "ym2612"
    },
    {
      "channel": 5,
      "note": 58,
      "start": 192.8813,
      "duration": 0.1512,
      "velocity": 103,
      "chip": "ym2612"
    },
    {
      "channel": 0,
      "note": 51,
      "start": 192.94,
      "duration": 0.1511,
      "velocity": 104,
      "chip": "ym2612"
    },
    {
      "channel": 1,
      "note": 58,
      "start": 192.9408,
      "duration": 0.1511,
      "velocity": 104,
      "chip": "ym2612"
    },
    {
      "channel": 2,
      "note": 65,
      "start": 192.9415,
      "duration": 0.0837,
      "velocity": 112,
      "chip": "ym2612"
    },
    {
      "channel": 3,
      "note": 54,
      "start": 192.9423,
      "duration": 0.0498,
      "velocity": 120,
      "chip": "ym2612"
    },
    {
      "channel": 4,
      "note": 82,
      "start": 192.9481,
      "duration": 0.1178,
      "velocity": 111,
      "chip": "ym2612"
    },
    {
      "channel": 5,
      "note": 51,
      "start": 193.033,
      "duration": 0.1511,
      "velocity": 104,
      "chip": "ym2612"
    },
    {
      "channel": 0,
      "note": 53,
      "start": 193.0917,
      "duration": 0.1511,
      "velocity": 105,
      "chip": "ym2612"
    },
    {
      "channel": 1,
      "note": 60,
      "start": 193.0925,
      "duration": 0.1511,
      "velocity": 105,
      "chip": "ym2612"
    },
    {
      "channel": 2,
      "note": 65,
      "start": 193.0932,
      "duration": 0.0837,
      "velocity": 112,
      "chip": "ym2612"
    },
    {
      "channel": 3,
      "note": 66,
      "start": 193.0939,
      "duration": 0.0497,
      "velocity": 120,
      "chip": "ym2612"
    },
    {
      "channel": 4,
      "note": 70,
      "start": 193.0998,
      "duration": 0.1177,
      "velocity": 108,
      "chip": "ym2612"
    },
    {
      "channel": 5,
      "note": 53,
      "start": 193.1846,
      "duration": 0.1511,
      "velocity": 105,
      "chip": "ym2612"
    },
    {
      "channel": 0,
      "note": 54,
      "start": 193.2434,
      "duration": 0.1511,
      "velocity": 106,
      "chip": "ym2612"
    },
    {
      "channel": 1,
      "note": 61,
      "start": 193.2441,
      "duration": 0.1512,
      "velocity": 106,
      "chip": "ym2612"
    },
    {
      "channel": 2,
      "note": 65,
      "start": 193.2448,
      "duration": 0.0837,
      "velocity": 112,
      "chip": "ym2612"
    },
    {
      "channel": 3,
      "note": 54,
      "start": 193.2456,
      "duration": 0.0497,
      "velocity": 120,
      "chip": "ym2612"
    },
    {
      "channel": 4,
      "note": 82,
      "start": 193.2515,
      "duration": 0.1178,
      "velocity": 109,
      "chip": "ym2612"
    },
    {
      "channel": 5,
      "note": 54,
      "start": 193.3363,
      "duration": 0.1512,
      "velocity": 106,
      "chip": "ym2612"
    },
    {
      "channel": 0,
      "note": 58,
      "start": 193.395,
      "duration": 0.1512,
      "velocity": 107,
      "chip": "ym2612"
    },
    {
      "channel": 1,
      "note": 65,
      "start": 193.3959,
      "duration": 0.1511,
      "velocity": 107,
      "chip": "ym2612"
    },
    {
      "channel": 2,
      "note": 65,
      "start": 193.3966,
      "duration": 0.0837,
      "velocity": 112,
      "chip": "ym2612"
    },
    {
      "channel": 3,
      "note": 54,
      "start": 193.3973,
      "duration": 0.0498,
      "velocity": 120,
      "chip": "ym2612"
    },
    {
      "channel": 4,
      "note": 70,
      "start": 193.4032,
      "duration": 0.1178,
      "velocity": 112,
      "chip": "ym2612"
    },
    {
      "channel": 5,
      "note": 58,
      "start": 193.488,
      "duration": 0.1511,
      "velocity": 107,
      "chip": "ym2612"
    },
    {
      "channel": 0,
      "note": 51,
      "start": 193.5467,
      "duration": 0.1511,
      "velocity": 108,
      "chip": "ym2612"
    },
    {
      "channel": 1,
      "note": 58,
      "start": 193.5475,
      "duration": 0.1511,
      "velocity": 108,
      "chip": "ym2612"
    },
    {
      "channel": 2,
      "note": 65,
      "start": 193.5482,
      "duration": 0.0837,
      "velocity": 112,
      "chip": "ym2612"
    },
    {
      "channel": 3,
      "note": 66,
      "start": 193.549,
      "duration": 0.0498,
      "velocity": 120,
      "chip": "ym2612"
    },
    {
      "channel": 4,
      "note": 82,
      "start": 193.5548,
      "duration": 0.1178,
      "velocity": 110,
      "chip": "ym2612"
    },
    {
      "channel": 5,
      "note": 51,
      "start": 193.6397,
      "duration": 0.1512,
      "velocity": 108,
      "chip": "ym2612"
    },
    {
      "channel": 0,
      "note": 53,
      "start": 193.6984,
      "duration": 0.1511,
      "velocity": 109,
      "chip": "ym2612"
    },
    {
      "channel": 1,
      "note": 60,
      "start": 193.6992,
      "duration": 0.1511,
      "velocity": 109,
      "chip": "ym2612"
    },
    {
      "channel": 2,
      "note": 65,
      "start": 193.6999,
      "duration": 0.0837,
      "velocity": 112,
      "chip": "ym2612"
    },
    {
      "channel": 3,
      "note": 54,
      "start": 193.7007,
      "duration": 0.0498,
      "velocity": 120,
      "chip": "ym2612"
    },
    {
      "channel": 4,
      "note": 70,
      "start": 193.7065,
      "duration": 0.1178,
      "velocity": 108,
      "chip": "ym2612"
    },
    {
      "channel": 5,
      "note": 53,
      "start": 193.7915,
      "duration": 0.151,
      "velocity": 109,
      "chip": "ym2612"
    },
    {
      "channel": 0,
      "note": 54,
      "start": 193.85,
      "duration": 0.1511,
      "velocity": 110,
      "chip": "ym2612"
    },
    {
      "channel": 1,
      "note": 61,
      "start": 193.8509,
      "duration": 0.1512,
      "velocity": 110,
      "chip": "ym2612"
    },
    {
      "channel": 2,
      "note": 65,
      "start": 193.8516,
      "duration": 0.0837,
      "velocity": 112,
      "chip": "ym2612"
    },
    {
      "channel": 3,
      "note": 66,
      "start": 193.8523,
      "duration": 0.0498,
      "velocity": 120,
      "chip": "ym2612"
    },
    {
      "channel": 4,
      "note": 70,
      "start": 193.8582,
      "duration": 0.1178,
      "velocity": 109,
      "chip": "ym2612"
    },
    {
      "channel": 5,
      "note": 54,
      "start": 193.943,
      "duration": 0.1512,
      "velocity": 110,
      "chip": "ym2612"
    },
    {
      "channel": 0,
      "note": 58,
      "start": 194.0018,
      "duration": 0.1511,
      "velocity": 110,
      "chip": "ym2612"
    },
    {
      "channel": 1,
      "note": 65,
      "start": 194.0026,
      "duration": 0.1511,
      "velocity": 110,
      "chip": "ym2612"
    },
    {
      "channel": 2,
      "note": 65,
      "start": 194.0033,
      "duration": 0.0836,
      "velocity": 112,
      "chip": "ym2612"
    },
    {
      "channel": 3,
      "note": 66,
      "start": 194.0041,
      "duration": 0.0498,
      "velocity": 120,
      "chip": "ym2612"
    },
    {
      "channel": 4,
      "note": 82,
      "start": 194.0098,
      "duration": 0.1178,
      "velocity": 112,
      "chip": "ym2612"
    },
    {
      "channel": 5,
      "note": 58,
      "start": 194.0948,
      "duration": 0.1511,
      "velocity": 110,
      "chip": "ym2612"
    },
    {
      "channel": 0,
      "note": 50,
      "start": 194.1534,
      "duration": 0.1511,
      "velocity": 110,
      "chip": "ym2612"
    },
    {
      "channel": 1,
      "note": 57,
      "start": 194.1542,
      "duration": 0.1512,
      "velocity": 110,
      "chip": "ym2612"
    },
    {
      "channel": 2,
      "note": 65,
      "start": 194.1549,
      "duration": 0.0837,
      "velocity": 112,
      "chip": "ym2612"
    },
    {
      "channel": 3,
      "note": 53,
      "start": 194.1557,
      "duration": 0.0497,
      "velocity": 120,
      "chip": "ym2612"
    },
    {
      "channel": 4,
      "note": 69,
      "start": 194.1616,
      "duration": 0.1177,
      "velocity": 108,
      "chip": "ym2612"
    },
    {
      "channel": 5,
      "note": 50,
      "start": 194.2464,
      "duration": 0.1511,
      "velocity": 110,
      "chip": "ym2612"
    },
    {
      "channel": 0,
      "note": 52,
      "start": 194.3051,
      "duration": 0.1511,
      "velocity": 109,
      "chip": "ym2612"
    },
    {
      "channel": 1,
      "note": 59,
      "start": 194.306,
      "duration": 0.1511,
      "velocity": 109,
      "chip": "ym2612"
    },
    {
      "channel": 2,
      "note": 65,
      "start": 194.3067,
      "duration": 0.0837,
      "velocity": 112,
      "chip": "ym2612"
    },
    {
      "channel": 3,
      "note": 65,
      "start": 194.3074,
      "duration": 0.0498,
      "velocity": 120,
      "chip": "ym2612"
    },
    {
      "channel": 4,
      "note": 81,
      "start": 194.3132,
      "duration": 0.1177,
      "velocity": 108,
      "chip": "ym2612"
    },
    {
      "channel": 5,
      "note": 52,
      "start": 194.3981,
      "duration": 0.1512,
      "velocity": 109,
      "chip": "ym2612"
    },
    {
      "channel": 0,
      "note": 53,
      "start": 194.4568,
      "duration": 0.1511,
      "velocity": 108,
      "chip": "ym2612"
    },
    {
      "channel": 1,
      "note": 60,
      "start": 194.4577,
      "duration": 0.151,
      "velocity": 108,
      "chip": "ym2612"
    },
    {
      "channel": 2,
      "note": 65,
      "start": 194.4584,
      "duration": 0.0837,
      "velocity": 112,
      "chip": "ym2612"
    },
    {
      "channel": 3,
      "note": 53,
      "start": 194.4591,
      "duration": 0.0497,
      "velocity": 120,
      "chip": "ym2612"
    },
    {
      "channel": 4,
      "note": 81,
      "start": 194.4649,
      "duration": 0.1178,
      "velocity": 112,
      "chip": "ym2612"
    },
    {
      "channel": 5,
      "note": 53,
      "start": 194.5498,
      "duration": 0.1511,
      "velocity": 108,
      "chip": "ym2612"
    },
    {
      "channel": 0,
      "note": 57,
      "start": 194.6085,
      "duration": 0.1511,
      "velocity": 107,
      "chip": "ym2612"
    },
    {
      "channel": 1,
      "note": 64,
      "start": 194.6093,
      "duration": 0.1511,
      "velocity": 107,
      "chip": "ym2612"
    },
    {
      "channel": 2,
      "note": 65,
      "start": 194.61,
      "duration": 0.0837,
      "velocity": 112,
      "chip": "ym2612"
    },
    {
      "channel": 3,
      "note": 53,
      "start": 194.6107,
      "duration": 0.0498,
      "velocity": 120,
      "chip": "ym2612"
    },
    {
      "channel": 4,
      "note": 69,
      "start": 194.6166,
      "duration": 0.1178,
      "velocity": 109,
      "chip": "ym2612"
    },
    {
      "channel": 5,
      "note": 57,
      "start": 194.7015,
      "duration": 0.1511,
      "velocity": 107,
      "chip": "ym2612"
    },
    {
      "channel": 0,
      "note": 50,
      "start": 194.7602,
      "duration": 0.1511,
      "velocity": 106,
      "chip": "ym2612"
    },
    {
      "channel": 1,
      "note": 57,
      "start": 194.761,
      "duration": 0.1511,
      "velocity": 106,
      "chip": "ym2612"
    },
    {
      "channel": 2,
      "note": 65,
      "start": 194.7617,
      "duration": 0.0837,
      "velocity": 112,
      "chip": "ym2612"
    },
    {
      "channel": 3,
      "note": 65,
      "start": 194.7624,
      "duration": 0.0498,
      "velocity": 120,
      "chip": "ym2612"
    },
    {
      "channel": 4,
      "note": 81,
      "start": 194.7682,
      "duration": 0.1178,
      "velocity": 108,
      "chip": "ym2612"
    },
    {
      "channel": 5,
      "note": 50,
      "start": 194.8532,
      "duration": 0.1511,
      "velocity": 106,
      "chip": "ym2612"
    },
    {
      "channel": 0,
      "note": 52,
      "start": 194.9118,
      "duration": 0.1511,
      "velocity": 105,
      "chip": "ym2612"
    },
    {
      "channel": 1,
      "note": 59,
      "start": 194.9126,
      "duration": 0.1512,
      "velocity": 105,
      "chip": "ym2612"
    },
    {
      "channel": 2,
      "note": 65,
      "start": 194.9133,
      "duration": 0.0837,
      "velocity": 112,
      "chip": "ym2612"
    },
    {
      "channel": 3,
      "note": 53,
      "start": 194.9141,
      "duration": 0.0498,
      "velocity": 120,
      "chip": "ym2612"
    },
    {
      "channel": 4,
      "note": 69,
      "start": 194.92,
      "duration": 0.1178,
      "velocity": 110,
      "chip": "ym2612"
    },
    {
      "channel": 5,
      "note": 52,
      "start": 195.0048,
      "duration": 0.1512,
      "velocity": 105,
      "chip": "ym2612"
    },
    {
      "channel": 0,
      "note": 53,
      "start": 195.0635,
      "duration": 0.1511,
      "velocity": 104,
      "chip": "ym2612"
    },
    {
      "channel": 1,
      "note": 60,
      "start": 195.0644,
      "duration": 0.1511,
      "velocity": 104,
      "chip": "ym2612"
    },
    {
      "channel": 2,
      "note": 65,
      "start": 195.0651,
      "duration": 0.0836,
      "velocity": 112,
      "chip": "ym2612"
    },
    {
      "channel": 3,
      "note": 53,
      "start": 195.0658,
      "duration": 0.0497,
      "velocity": 120,
      "chip": "ym2612"
    },
    {
      "channel": 4,
      "note": 69,
      "start": 195.0716,
      "duration": 0.1178,
      "velocity": 109,
      "chip": "ym2612"
    },
    {
      "channel": 5,
      "note": 53,
      "start": 195.1565,
      "duration": 0.1511,
      "velocity": 104,
      "chip": "ym2612"
    },
    {
      "channel": 0,
      "note": 57,
      "start": 195.2152,
      "duration": 0.1511,
      "velocity": 103,
      "chip": "ym2612"
    },
    {
      "channel": 1,
      "note": 64,
      "start": 195.216,
      "duration": 0.1512,
      "velocity": 103,
      "chip": "ym2612"
    },
    {
      "channel": 2,
      "note": 65,
      "start": 195.2167,
      "duration": 0.0837,
      "velocity": 112,
      "chip": "ym2612"
    },
    {
      "channel": 3,
      "note": 65,
      "start": 195.2175,
      "duration": 0.0497,
      "velocity": 120,
      "chip": "ym2612"
    },
    {
      "channel": 4,
      "note": 81,
      "start": 195.2233,
      "duration": 0.1177,
      "velocity": 111,
      "chip": "ym2612"
    },
    {
      "channel": 5,
      "note": 57,
      "start": 195.3082,
      "duration": 0.1511,
      "velocity": 103,
      "chip": "ym2612"
    },
    {
      "channel": 0,
      "note": 50,
      "start": 195.3669,
      "duration": 0.1511,
      "velocity": 102,
      "chip": "ym2612"
    },
    {
      "channel": 1,
      "note": 57,
      "start": 195.3677,
      "duration": 0.1511,
      "velocity": 102,
      "chip": "ym2612"
    },
    {
      "channel": 2,
      "note": 65,
      "start": 195.3684,
      "duration": 0.0836,
      "velocity": 112,
      "chip": "ym2612"
    },
    {
      "channel": 3,
      "note": 53,
      "start": 195.3692,
      "duration": 0.0497,
      "velocity": 120,
      "chip": "ym2612"
    },
    {
      "channel": 4,
      "note": 81,
      "start": 195.375,
      "duration": 0.1178,
      "velocity": 112,
      "chip": "ym2612"
    },
    {
      "channel": 5,
      "note": 50,
      "start": 195.4598,
      "duration": 0.1512,
      "velocity": 102,
      "chip": "ym2612"
    },
    {
      "channel": 0,
      "note": 52,
      "start": 195.5185,
      "duration": 0.1512,
      "velocity": 101,
      "chip": "ym2612"
    },
    {
      "channel": 1,
      "note": 59,
      "start": 195.5194,
      "duration": 0.1511,
      "velocity": 101,
      "chip": "ym2612"
    },
    {
      "channel": 2,
      "note": 65,
      "start": 195.5201,
      "duration": 0.0837,
      "velocity": 112,
      "chip": "ym2612"
    },
    {
      "channel": 3,
      "note": 65,
      "start": 195.5208,
      "duration": 0.0498,
      "velocity": 120,
      "chip": "ym2612"
    },
    {
      "channel": 4,
      "note": 69,
      "start": 195.5266,
      "duration": 0.1178,
      "velocity": 109,
      "chip": "ym2612"
    },
    {
      "channel": 5,
      "note": 52,
      "start": 195.6116,
      "duration": 0.1511,
      "velocity": 101,
      "chip": "ym2612"
    },
    {
      "channel": 0,
      "note": 53,
      "start": 195.6703,
      "duration": 0.1511,
      "velocity": 100,
      "chip": "ym2612"
    },
    {
      "channel": 1,
      "note": 60,
      "start": 195.671,
      "duration": 0.1511,
      "velocity": 100,
      "chip": "ym2612"
    },
    {
      "channel": 2,
      "note": 65,
      "start": 195.6717,
      "duration": 0.0837,
      "velocity": 112,
      "chip": "ym2612"
    },
    {
      "channel": 3,
      "note": 53,
      "start": 195.6725,
      "duration": 0.0498,
      "velocity": 120,
      "chip": "ym2612"
    },
    {
      "channel": 4,
      "note": 81,
      "start": 195.6783,
      "duration": 0.1178,
      "velocity": 108,
      "chip": "ym2612"
    },
    {
      "channel": 5,
      "note": 53,
      "start": 195.7632,
      "duration": 0.1511,
      "velocity": 100,
      "chip": "ym2612"
    },
    {
      "channel": 0,
      "note": 57,
      "start": 195.8219,
      "duration": 0.1511,
      "velocity": 99,
      "chip": "ym2612"
    },
    {
      "channel": 1,
      "note": 64,
      "start": 195.8228,
      "duration": 0.1511,
      "velocity": 99,
      "chip": "ym2612"
    },
    {
      "channel": 2,
      "note": 65,
      "start": 195.8235,
      "duration": 0.0837,
      "velocity": 112,
      "chip": "ym2612"
    },
    {
      "channel": 3,
      "note": 53,
      "start": 195.8243,
      "duration": 0.0497,
      "velocity": 120,
      "chip": "ym2612"
    },
    {
      "channel": 4,
      "note": 69,
      "start": 195.83,
      "duration": 0.1178,
      "velocity": 112,
      "chip": "ym2612"
    },
    {
      "channel": 5,
      "note": 57,
      "start": 195.9149,
      "duration": 0.1511,
      "velocity": 99,
      "chip": "ym2612"
    },
    {
      "channel": 0,
      "note": 50,
      "start": 195.9737,
      "duration": 0.1511,
      "velocity": 98,
      "chip": "ym2612"
    },
    {
      "channel": 1,
      "note": 57,
      "start": 195.9745,
      "duration": 0.1511,
      "velocity": 98,
      "chip": "ym2612"
    },
    {
      "channel": 2,
      "note": 65,
      "start": 195.9752,
      "duration": 0.0836,
      "velocity": 112,
      "chip": "ym2612"
    },
    {
      "channel": 3,
      "note": 65,
      "start": 195.9759,
      "duration": 0.0498,
      "velocity": 120,
      "chip": "ym2612"
    },
    {
      "channel": 4,
      "note": 69,
      "start": 195.9817,
      "duration": 0.1178,
      "velocity": 111,
      "chip": "ym2612"
    },
    {
      "channel": 5,
      "note": 50,
      "start": 196.0666,
      "duration": 0.1512,
      "velocity": 98,
      "chip": "ym2612"
    },
    {
      "channel": 0,
      "note": 52,
      "start": 196.1253,
      "duration": 0.1511,
      "velocity": 97,
      "chip": "ym2612"
    },
    {
      "channel": 1,
      "note": 59,
      "start": 196.1261,
      "duration": 0.1511,
      "velocity": 97,
      "chip": "ym2612"
    },
    {
      "channel": 2,
      "note": 65,
      "start": 196.1268,
      "duration": 0.0836,
      "velocity": 112,
      "chip": "ym2612"
    },
    {
      "channel": 3,
      "note": 53,
      "start": 196.1276,
      "duration": 0.0497,
      "velocity": 120,
      "chip": "ym2612"
    },
    {
      "channel": 4,
      "note": 81,
      "start": 196.1334,
      "duration": 0.1178,
      "velocity": 109,
      "chip": "ym2612"
    },
    {
      "channel": 5,
      "note": 52,
      "start": 196.2183,
      "duration": 0.1511,
      "velocity": 97,
      "chip": "ym2612"
    },
    {
      "channel": 0,
      "note": 53,
      "start": 196.277,
      "duration": 0.1511,
      "velocity": 96,
      "chip": "ym2612"
    },
    {
      "channel": 1,
      "note": 60,
      "start": 196.2778,
      "duration": 0.1512,
      "velocity": 96,
      "chip": "ym2612"
    },
    {
      "channel": 2,
      "note": 65,
      "start": 196.2785,
      "duration": 0.0837,
      "velocity": 112,
      "chip": "ym2612"
    },
    {
      "channel": 3,
      "note": 53,
      "start": 196.2793,
      "duration": 0.0497,
      "velocity": 120,
      "chip": "ym2612"
    },
    {
      "channel": 4,
      "note": 69,
      "start": 196.2851,
      "duration": 0.1177,
      "velocity": 111,
      "chip": "ym2612"
    },
    {
      "channel": 5,
      "note": 53,
      "start": 196.37,
      "duration": 0.1511,
      "velocity": 96,
      "chip": "ym2612"
    },
    {
      "channel": 0,
      "note": 57,
      "start": 196.4287,
      "duration": 0.1511,
      "velocity": 95,
      "chip": "ym2612"
    },
    {
      "channel": 1,
      "note": 64,
      "start": 196.4295,
      "duration": 0.1511,
      "velocity": 95,
      "chip": "ym2612"
    },
    {
      "channel": 2,
      "note": 65,
      "start": 196.4302,
      "duration": 0.0836,
      "velocity": 112,
      "chip": "ym2612"
    },
    {
      "channel": 3,
      "note": 65,
      "start": 196.431,
      "duration": 0.0497,
      "velocity": 120,
      "chip": "ym2612"
    },
    {
      "channel": 4,
      "note": 69,
      "start": 196.4368,
      "duration": 0.1178,
      "velocity": 112,
      "chip": "ym2612"
    },
    {
      "channel": 5,
      "note": 57,
      "start": 196.5216,
      "duration": 0.1512,
      "velocity": 95,
      "chip": "ym2612"
    },
    {
      "channel": 0,
      "note": 50,
      "start": 196.5803,
      "duration": 0.1512,
      "velocity": 96,
      "chip": "ym2612"
    },
    {
      "channel": 1,
      "note": 57,
      "start": 196.5812,
      "duration": 0.1511,
      "velocity": 96,
      "chip": "ym2612"
    },
    {
      "channel": 2,
      "note": 65,
      "start": 196.5819,
      "duration": 0.0837,
      "velocity": 112,
      "chip": "ym2612"
    },
    {
      "channel": 3,
      "note": 53,
      "start": 196.5826,
      "duration": 0.0498,
      "velocity": 120,
      "chip": "ym2612"
    },
    {
      "channel": 4,
      "note": 69,
      "start": 196.5884,
      "duration": 0.1178,
      "velocity": 108,
      "chip": "ym2612"
    },
    {
      "channel": 5,
      "note": 50,
      "start": 196.6733,
      "duration": 0.1511,
      "velocity": 96,
      "chip": "ym2612"
    },
    {
      "channel": 0,
      "note": 52,
      "start": 196.732,
      "duration": 0.1511,
      "velocity": 97,
      "chip": "ym2612"
    },
    {
      "channel": 1,
      "note": 59,
      "start": 196.7328,
      "duration": 0.1511,
      "velocity": 97,
      "chip": "ym2612"
    },
    {
      "channel": 2,
      "note": 65,
      "start": 196.7335,
      "duration": 0.0837,
      "velocity": 112,
      "chip": "ym2612"
    },
    {
      "channel": 3,
      "note": 65,
      "start": 196.7343,
      "duration": 0.0498,
      "velocity": 120,
      "chip": "ym2612"
    },
    {
      "channel": 4,
      "note": 81,
      "start": 196.7402,
      "duration": 0.1177,
      "velocity": 109,
      "chip": "ym2612"
    },
    {
      "channel": 5,
      "note": 52,
      "start": 196.825,
      "duration": 0.1511,
      "velocity": 97,
      "chip": "ym2612"
    },
    {
      "channel": 0,
      "note": 53,
      "start": 196.8837,
      "duration": 0.1511,
      "velocity": 98,
      "chip": "ym2612"
    },
    {
      "channel": 1,
      "note": 60,
      "start": 196.8845,
      "duration": 0.1511,
      "velocity": 98,
      "chip": "ym2612"
    },
    {
      "channel": 2,
      "note": 65,
      "start": 196.8852,
      "duration": 0.0837,
      "velocity": 112,
      "chip": "ym2612"
    },
    {
      "channel": 3,
      "note": 53,
      "start": 196.886,
      "duration": 0.0498,
      "velocity": 120,
      "chip": "ym2612"
    },
    {
      "channel": 4,
      "note": 81,
      "start": 196.8918,
      "duration": 0.1178,
      "velocity": 110,
      "chip": "ym2612"
    },
    {
      "channel": 5,
      "note": 53,
      "start": 196.9767,
      "duration": 0.1511,
      "velocity": 98,
      "chip": "ym2612"
    },
    {
      "channel": 0,
      "note": 57,
      "start": 197.0354,
      "duration": 0.1511,
      "velocity": 99,
      "chip": "ym2612"
    },
    {
      "channel": 1,
      "note": 64,
      "start": 197.0362,
      "duration": 0.1512,
      "velocity": 99,
      "chip": "ym2612"
    },
    {
      "channel": 2,
      "note": 65,
      "start": 197.0369,
      "duration": 0.0837,
      "velocity": 112,
      "chip": "ym2612"
    },
    {
      "channel": 3,
      "note": 53,
      "start": 197.0376,
      "duration": 0.0498,
      "velocity": 120,
      "chip": "ym2612"
    },
    {
      "channel": 4,
      "note": 69,
      "start": 197.0435,
      "duration": 0.1178,
      "velocity": 111,
      "chip": "ym2612"
    },
    {
      "channel": 5,
      "note": 57,
      "start": 197.1283,
      "duration": 0.1512,
      "velocity": 99,
      "chip": "ym2612"
    },
    {
      "channel": 0,
      "note": 50,
      "start": 197.1871,
      "duration": 0.1511,
      "velocity": 100,
      "chip": "ym2612"
    },
    {
      "channel": 1,
      "note": 57,
      "start": 197.1879,
      "duration": 0.1511,
      "velocity": 100,
      "chip": "ym2612"
    },
    {
      "channel": 2,
      "note": 65,
      "start": 197.1886,
      "duration": 0.0836,
      "velocity": 112,
      "chip": "ym2612"
    },
    {
      "channel": 3,
      "note": 65,
      "start": 197.1894,
      "duration": 0.0497,
      "velocity": 120,
      "chip": "ym2612"
    },
    {
      "channel": 4,
      "note": 81,
      "start": 197.1951,
      "duration": 0.1178,
      "velocity": 108,
      "chip": "ym2612"
    },
    {
      "channel": 5,
      "note": 50,
      "start": 197.2801,
      "duration": 0.1511,
      "velocity": 100,
      "chip": "ym2612"
    },
    {
      "channel": 0,
      "note": 52,
      "start": 197.3387,
      "duration": 0.1511,
      "velocity": 101,
      "chip": "ym2612"
    },
    {
      "channel": 1,
      "note": 59,
      "start": 197.3395,
      "duration": 0.1512,
      "velocity": 101,
      "chip": "ym2612"
    },
    {
      "channel": 2,
      "note": 65,
      "start": 197.3403,
      "duration": 0.0837,
      "velocity": 112,
      "chip": "ym2612"
    },
    {
      "channel": 3,
      "note": 53,
      "start": 197.3411,
      "duration": 0.0498,
      "velocity": 120,
      "chip": "ym2612"
    },
    {
      "channel": 4,
      "note": 69,
      "start": 197.3469,
      "duration": 0.1177,
      "velocity": 109,
      "chip": "ym2612"
    },
    {
      "channel": 5,
      "note": 52,
      "start": 197.4317,
      "duration": 0.1511,
      "velocity": 101,
      "chip": "ym2612"
    },
    {
      "channel": 0,
      "note": 53,
      "start": 197.4905,
      "duration": 0.151,
      "velocity": 102,
      "chip": "ym2612"
    },
    {
      "channel": 1,
      "note": 60,
      "start": 197.4913,
      "duration": 0.1511,
      "velocity": 102,
      "chip": "ym2612"
    },
    {
      "channel": 2,
      "note": 65,
      "start": 197.492,
      "duration": 0.0836,
      "velocity": 112,
      "chip": "ym2612"
    },
    {
      "channel": 3,
      "note": 53,
      "start": 197.4927,
      "duration": 0.0498,
      "velocity": 120,
      "chip": "ym2612"
    },
    {
      "channel": 4,
      "note": 69,
      "start": 197.4985,
      "duration": 0.1178,
      "velocity": 112,
      "chip": "ym2612"
    },
    {
      "channel": 5,
      "note": 53,
      "start": 197.5834,
      "duration": 0.1511,
      "velocity": 102,
      "chip": "ym2612"
    },
    {
      "channel": 0,
      "note": 57,
      "start": 197.6421,
      "duration": 0.1512,
      "velocity": 103,
      "chip": "ym2612"
    },
    {
      "channel": 1,
      "note": 64,
      "start": 197.6429,
      "duration": 0.1511,
      "velocity": 103,
      "chip": "ym2612"
    },
    {
      "channel": 2,
      "note": 65,
      "start": 197.6436,
      "duration": 0.0837,
      "velocity": 112,
      "chip": "ym2612"
    },
    {
      "channel": 3,
      "note": 65,
      "start": 197.6444,
      "duration": 0.0498,
      "velocity": 120,
      "chip": "ym2612"
    },
    {
      "channel": 4,
      "note": 81,
      "start": 197.6502,
      "duration": 0.1178,
      "velocity": 110,
      "chip": "ym2612"
    },
    {
      "channel": 5,
      "note": 57,
      "start": 197.7351,
      "duration": 0.1511,
      "velocity": 103,
      "chip": "ym2612"
    },
    {
      "channel": 0,
      "note": 50,
      "start": 197.7938,
      "duration": 0.1511,
      "velocity": 104,
      "chip": "ym2612"
    },
    {
      "channel": 1,
      "note": 57,
      "start": 197.7946,
      "duration": 0.1511,
      "velocity": 104,
      "chip": "ym2612"
    },
    {
      "channel": 2,
      "note": 65,
      "start": 197.7953,
      "duration": 0.0837,
      "velocity": 112,
      "chip": "ym2612"
    },
    {
      "channel": 3,
      "note": 53,
      "start": 197.796,
      "duration": 0.0498,
      "velocity": 120,
      "chip": "ym2612"
    },
    {
      "channel": 4,
      "note": 81,
      "start": 197.8019,
      "duration": 0.1178,
      "velocity": 111,
      "chip": "ym2612"
    },
    {
      "channel": 5,
      "note": 50,
      "start": 197.8868,
      "duration": 0.1511,
      "velocity": 104,
      "chip": "ym2612"
    },
    {
      "channel": 0,
      "note": 52,
      "start": 197.9455,
      "duration": 0.1511,
      "velocity": 105,
      "chip": "ym2612"
    },
    {
      "channel": 1,
      "note": 59,
      "start": 197.9463,
      "duration": 0.1511,
      "velocity": 105,
      "chip": "ym2612"
    },
    {
      "channel": 2,
      "note": 65,
      "start": 197.947,
      "duration": 0.0837,
      "velocity": 112,
      "chip": "ym2612"
    },
    {
      "channel": 3,
      "note": 65,
      "start": 197.9478,
      "duration": 0.0498,
      "velocity": 120,
      "chip": "ym2612"
    },
    {
      "channel": 4,
      "note": 69,
      "start": 197.9535,
      "duration": 0.1178,
      "velocity": 108,
      "chip": "ym2612"
    },
    {
      "channel": 5,
      "note": 52,
      "start": 198.0385,
      "duration": 0.1511,
      "velocity": 105,
      "chip": "ym2612"
    },
    {
      "channel": 0,
      "note": 53,
      "start": 198.0971,
      "duration": 0.1511,
      "velocity": 106,
      "chip": "ym2612"
    },
    {
      "channel": 1,
      "note": 60,
      "start": 198.0979,
      "duration": 0.1512,
      "velocity": 106,
      "chip": "ym2612"
    },
    {
      "channel": 2,
      "note": 65,
      "start": 198.0986,
      "duration": 0.0837,
      "velocity": 112,
      "chip": "ym2612"
    },
    {
      "channel": 3,
      "note": 53,
      "start": 198.0994,
      "duration": 0.0498,
      "velocity": 120,
      "chip": "ym2612"
    },
    {
      "channel": 4,
      "note": 81,
      "start": 198.1053,
      "duration": 0.1178,
      "velocity": 109,
      "chip": "ym2612"
    },
    {
      "channel": 5,
      "note": 53,
      "start": 198.1902,
      "duration": 0.1511,
      "velocity": 106,
      "chip": "ym2612"
    },
    {
      "channel": 0,
      "note": 57,
      "start": 198.2488,
      "duration": 0.1511,
      "velocity": 107,
      "chip": "ym2612"
    },
    {
      "channel": 1,
      "note": 64,
      "start": 198.2497,
      "duration": 0.1511,
      "velocity": 107,
      "chip": "ym2612"
    },
    {
      "channel": 2,
      "note": 65,
      "start": 198.2504,
      "duration": 0.0836,
      "velocity": 112,
      "chip": "ym2612"
    },
    {
      "channel": 3,
      "note": 53,
      "start": 198.2511,
      "duration": 0.0497,
      "velocity": 120,
      "chip": "ym2612"
    },
    {
      "channel": 4,
      "note": 69,
      "start": 198.257,
      "duration": 0.1177,
      "velocity": 112,
      "chip": "ym2612"
    },
    {
      "channel": 5,
      "note": 57,
      "start": 198.3418,
      "duration": 0.1511,
      "velocity": 107,
      "chip": "ym2612"
    },
    {
      "channel": 0,
      "note": 50,
      "start": 198.4005,
      "duration": 0.1511,
      "velocity": 108,
      "chip": "ym2612"
    },
    {
      "channel": 1,
      "note": 57,
      "start": 198.4013,
      "duration": 0.1512,
      "velocity": 108,
      "chip": "ym2612"
    },
    {
      "channel": 2,
      "note": 65,
      "start": 198.402,
      "duration": 0.0837,
      "velocity": 112,
      "chip": "ym2612"
    },
    {
      "channel": 3,
      "note": 65,
      "start": 198.4028,
      "duration": 0.0497,
      "velocity": 120,
      "chip": "ym2612"
    },
    {
      "channel": 4,
      "note": 81,
      "start": 198.4086,
      "duration": 0.1177,
      "velocity": 110,
      "chip": "ym2612"
    },
    {
      "channel": 5,
      "note": 50,
      "start": 198.4935,
      "duration": 0.1511,
      "velocity": 108,
      "chip": "ym2612"
    },
    {
      "channel": 0,
      "note": 52,
      "start": 198.5522,
      "duration": 0.1511,
      "velocity": 109,
      "chip": "ym2612"
    },
    {
      "channel": 1,
      "note": 59,
      "start": 198.553,
      "duration": 0.1511,
      "velocity": 109,
      "chip": "ym2612"
    },
    {
      "channel": 2,
      "note": 65,
      "start": 198.5537,
      "duration": 0.0836,
      "velocity": 112,
      "chip": "ym2612"
    },
    {
      "channel": 3,
      "note": 53,
      "start": 198.5545,
      "duration": 0.0497,
      "velocity": 120,
      "chip": "ym2612"
    },
    {
      "channel": 4,
      "note": 69,
      "start": 198.5603,
      "duration": 0.1177,
      "velocity": 108,
      "chip": "ym2612"
    },
    {
      "channel": 5,
      "note": 52,
      "start": 198.6451,
      "duration": 0.1511,
      "velocity": 109,
      "chip": "ym2612"
    },
    {
      "channel": 0,
      "note": 53,
      "start": 198.7039,
      "duration": 0.1512,
      "velocity": 110,
      "chip": "ym2612"
    },
    {
      "channel": 1,
      "note": 60,
      "start": 198.7047,
      "duration": 0.1511,
      "velocity": 110,
      "chip": "ym2612"
    },
    {
      "channel": 2,
      "note": 65,
      "start": 198.7054,
      "duration": 0.0837,
      "velocity": 112,
      "chip": "ym2612"
    },
    {
      "channel": 3,
      "note": 65,
      "start": 198.7061,
      "duration": 0.0498,
      "velocity": 120,
      "chip": "ym2612"
    },
    {
      "channel": 4,
      "note": 69,
      "start": 198.712,
      "duration": 0.1178,
      "velocity": 109,
      "chip": "ym2612"
    },
    {
      "channel": 5,
      "note": 53,
      "start": 198.7969,
      "duration": 0.1511,
      "velocity": 110,
      "chip": "ym2612"
    },
    {
      "channel": 0,
      "note": 57,
      "start": 198.8556,
      "duration": 0.1511,
      "velocity": 110,
      "chip": "ym2612"
    },
    {
      "channel": 1,
      "note": 64,
      "start": 198.8563,
      "duration": 0.1511,
      "velocity": 110,
      "chip": "ym2612"
    },
    {
      "channel": 2,
      "note": 65,
      "start": 198.8571,
      "duration": 0.0837,
      "velocity": 112,
      "chip": "ym2612"
    },
    {
      "channel": 3,
      "note": 65,
      "start": 198.8579,
      "duration": 0.0498,
      "velocity": 120,
      "chip": "ym2612"
    },
    {
      "channel": 4,
      "note": 81,
      "start": 198.8637,
      "duration": 0.1178,
      "velocity": 112,
      "chip": "ym2612"
    },
    {
      "channel": 5,
      "note": 57,
      "start": 198.9485,
      "duration": 0.1511,
      "velocity": 110,
      "chip": "ym2612"
    },
    {
      "channel": 0,
      "note": 49,
      "start": 199.0073,
      "duration": 0.151,
      "velocity": 110,
      "chip": "ym2612"
    },
    {
      "channel": 1,
      "note": 56,
      "start": 199.008,
      "duration": 0.1511,
      "velocity": 110,
      "chip": "ym2612"
    },
    {
      "channel": 2,
      "note": 65,
      "start": 199.0088,
      "duration": 0.0836,
      "velocity": 112,
      "chip": "ym2612"
    },
    {
      "channel": 3,
      "note": 52,
      "start": 199.0095,
      "duration": 0.0498,
      "velocity": 120,
      "chip": "ym2612"
    },
    {
      "channel": 4,
      "note": 68,
      "start": 199.0153,
      "duration": 0.1178,
      "velocity": 108,
      "chip": "ym2612"
    },
    {
      "channel": 5,
      "note": 49,
      "start": 199.1002,
      "duration": 0.1511,
      "velocity": 110,
      "chip": "ym2612"
    },
    {
      "channel": 0,
      "note": 51,
      "start": 199.1589,
      "duration": 0.1511,
      "velocity": 109,
      "chip": "ym2612"
    },
    {
      "channel": 1,
      "note": 58,
      "start": 199.1597,
      "duration": 0.1512,
      "velocity": 109,
      "chip": "ym2612"
    },
    {
      "channel": 2,
      "note": 65,
      "start": 199.1604,
      "duration": 0.0837,
      "velocity": 112,
      "chip": "ym2612"
    },
    {
      "channel": 3,
      "note": 64,
      "start": 199.1612,
      "duration": 0.0498,
      "velocity": 120,
      "chip": "ym2612"
    },
    {
      "channel": 4,
      "note": 80,
      "start": 199.167,
      "duration": 0.1178,
      "velocity": 108,
      "chip": "ym2612"
    },
    {
      "channel": 5,
      "note": 51,
      "start": 199.2519,
      "duration": 0.1511,
      "velocity": 109,
      "chip": "ym2612"
    },
    {
      "channel": 0,
      "note": 52,
      "start": 199.3106,
      "duration": 0.1511,
      "velocity": 108,
      "chip": "ym2612"
    },
    {
      "channel": 1,
      "note": 59,
      "start": 199.3114,
      "duration": 0.1511,
      "velocity": 108,
      "chip": "ym2612"
    },
    {
      "channel": 2,
      "note": 65,
      "start": 199.3121,
      "duration": 0.0836,
      "velocity": 112,
      "chip": "ym2612"
    },
    {
      "channel": 3,
      "note": 52,
      "start": 199.3129,
      "duration": 0.0497,
      "velocity": 120,
      "chip": "ym2612"
    },
    {
      "channel": 4,
      "note": 80,
      "start": 199.3187,
      "duration": 0.1178,
      "velocity": 112,
      "chip": "ym2612"
    },
    {
      "channel": 5,
      "note": 52,
      "start": 199.4035,
      "duration": 0.1512,
      "velocity": 108,
      "chip": "ym2612"
    },
    {
      "channel": 0,
      "note": 56,
      "start": 199.4623,
      "duration": 0.1511,
      "velocity": 107,
      "chip": "ym2612"
    },
    {
      "channel": 1,
      "note": 63,
      "start": 199.4631,
      "duration": 0.1512,
      "velocity": 107,
      "chip": "ym2612"
    },
    {
      "channel": 2,
      "note": 65,
      "start": 199.4638,
      "duration": 0.0837,
      "velocity": 112,
      "chip": "ym2612"
    },
    {
      "channel": 3,
      "note": 52,
      "start": 199.4646,
      "duration": 0.0497,
      "velocity": 120,
      "chip": "ym2612"
    },
    {
      "channel": 4,
      "note": 68,
      "start": 199.4704,
      "duration": 0.1177,
      "velocity": 109,
      "chip": "ym2612"
    },
    {
      "channel": 5,
      "note": 56,
      "start": 199.5553,
      "duration": 0.1511,
      "velocity": 107,
      "chip": "ym2612"
    },
    {
      "channel": 0,
      "note": 49,
      "start": 199.614,
      "duration": 0.1511,
      "velocity": 106,
      "chip": "ym2612"
    },
    {
      "channel": 1,
      "note": 56,
      "start": 199.6148,
      "duration": 0.1511,
      "velocity": 106,
      "chip": "ym2612"
    },
    {
      "channel": 2,
      "note": 65,
      "start": 199.6155,
      "duration": 0.0836,
      "velocity": 112,
      "chip": "ym2612"
    },
    {
      "channel": 3,
      "note": 64,
      "start": 199.6163,
      "duration": 0.0497,
      "velocity": 120,
      "chip": "ym2612"
    },
    {
      "channel": 4,
      "note": 80,
      "start": 199.6221,
      "duration": 0.1178,
      "velocity": 108,
      "chip": "ym2612"
    },
    {
      "channel": 5,
      "note": 49,
      "start": 199.707,
      "duration": 0.1511,
      "velocity": 106,
      "chip": "ym2612"
    },
    {
      "channel": 0,
      "note": 51,
      "start": 199.7656,
      "duration": 0.1512,
      "velocity": 105,
      "chip": "ym2612"
    },
    {
      "channel": 1,
      "note": 58,
      "start": 199.7665,
      "duration": 0.1511,
      "velocity": 105,
      "chip": "ym2612"
    },
    {
      "channel": 2,
      "note": 65,
      "start": 199.7672,
      "duration": 0.0837,
      "velocity": 112,
      "chip": "ym2612"
    },
    {
      "channel": 3,
      "note": 52,
      "start": 199.7679,
      "duration": 0.0498,
      "velocity": 120,
      "chip": "ym2612"
    },
    {
      "channel": 4,
      "note": 68,
      "start": 199.7738,
      "duration": 0.1178,
      "velocity": 110,
      "chip": "ym2612"
    },
    {
      "channel": 5,
      "note": 51,
      "start": 199.8586,
      "duration": 0.1511,
      "velocity": 105,
      "chip": "ym2612"
    },
    {
      "channel": 0,
      "note": 52,
      "start": 199.9173,
      "duration": 0.1511,
      "velocity": 104,
      "chip": "ym2612"
    },
    {
      "channel": 1,
      "note": 59,
      "start": 199.9181,
      "duration": 0.1511,
      "velocity": 104,
      "chip": "ym2612"
    },
    {
      "channel": 2,
      "note": 65,
      "start": 199.9188,
      "duration": 0.0837,
      "velocity": 112,
      "chip": "ym2612"
    },
    {
      "channel": 3,
      "note": 52,
      "start": 199.9196,
      "duration": 0.0498,
      "velocity": 120,
      "chip": "ym2612"
    },
    {
      "channel": 4,
      "note": 68,
      "start": 199.9254,
      "duration": 0.1178,
      "velocity": 109,
      "chip": "ym2612"
    },
    {
      "channel": 5,
      "note": 52,
      "start": 200.0103,
      "duration": 0.1511,
      "velocity": 104,
      "chip": "ym2612"
    },
    {
      "channel": 0,
      "note": 56,
      "start": 200.069,
      "duration": 0.1511,
      "velocity": 103,
      "chip": "ym2612"
    },
    {
      "channel": 1,
      "note": 63,
      "start": 200.0698,
      "duration": 0.1511,
      "velocity": 103,
      "chip": "ym2612"
    },
    {
      "channel": 2,
      "note": 65,
      "start": 200.0705,
      "duration": 0.0837,
      "velocity": 112,
      "chip": "ym2612"
    },
    {
      "channel": 3,
      "note": 64,
      "start": 200.0713,
      "duration": 0.0498,
      "velocity": 120,
      "chip": "ym2612"
    },
    {
      "channel": 4,
      "note": 80,
      "start": 200.0771,
      "duration": 0.1178,
      "velocity": 111,
      "chip": "ym2612"
    },
    {
      "channel": 5,
      "note": 56,
      "start": 200.162,
      "duration": 0.1511,
      "velocity": 103,
      "chip": "ym2612"
    },
    {
      "channel": 0,
      "note": 49,
      "start": 200.2207,
      "duration": 0.1511,
      "velocity": 102,
      "chip": "ym2612"
    },
    {
      "channel": 1,
      "note": 56,
      "start": 200.2215,
      "duration": 0.1512,
      "velocity": 102,
      "chip": "ym2612"
    },
    {
      "channel": 2,
      "note": 65,
      "start": 200.2222,
      "duration": 0.0837,
      "velocity": 112,
      "chip": "ym2612"
    },
    {
      "channel": 3,
      "note": 52,
      "start": 200.2229,
      "duration": 0.0498,
      "velocity": 120,
      "chip": "ym2612"
    },
    {
      "channel": 4,
      "note": 80,
      "start": 200.2288,
      "duration": 0.1178,
      "velocity": 112,
      "chip": "ym2612"
    },
    {
      "channel": 5,
      "note": 49,
      "start": 200.3137,
      "duration": 0.1512,
      "velocity": 102,
      "chip": "ym2612"
    },
    {
      "channel": 0,
      "note": 51,
      "start": 200.3724,
      "duration": 0.1511,
      "velocity": 101,
      "chip": "ym2612"
    },
    {
      "channel": 1,
      "note": 58,
      "start": 200.3732,
      "duration": 0.1512,
      "velocity": 101,
      "chip": "ym2612"
    },
    {
      "channel": 2,
      "note": 65,
      "start": 200.3739,
      "duration": 0.0837,
      "velocity": 112,
      "chip": "ym2612"
    },
    {
      "channel": 3,
      "note": 64,
      "start": 200.3747,
      "duration": 0.0497,
      "velocity": 120,
      "chip": "ym2612"
    },
    {
      "channel": 4,
      "note": 68,
      "start": 200.3805,
      "duration": 0.1178,
      "velocity": 109,
      "chip": "ym2612"
    },
    {
      "channel": 5,
      "note": 51,
      "start": 200.4654,
      "duration": 0.1511,
      "velocity": 101,
      "chip": "ym2612"
    },
    {
      "channel": 0,
      "note": 52,
      "start": 200.5241,
      "duration": 0.1511,
      "velocity": 100,
      "chip": "ym2612"
    },
    {
      "channel": 1,
      "note": 59,
      "start": 200.5249,
      "duration": 0.151,
      "velocity": 100,
      "chip": "ym2612"
    },
    {
      "channel": 2,
      "note": 65,
      "start": 200.5256,
      "duration": 0.0836,
      "velocity": 112,
      "chip": "ym2612"
    },
    {
      "channel": 3,
      "note": 52,
      "start": 200.5264,
      "duration": 0.0497,
      "velocity": 120,
      "chip": "ym2612"
    },
    {
      "channel": 4,
      "note": 80,
      "start": 200.5322,
      "duration": 0.1177,
      "velocity": 108,
      "chip": "ym2612"
    },
    {
      "channel": 5,
      "note": 52,
      "start": 200.617,
      "duration": 0.1511,
      "velocity": 100,
      "chip": "ym2612"
    },
    {
      "channel": 0,
      "note": 56,
      "start": 200.6757,
      "duration": 0.1511,
      "velocity": 99,
      "chip": "ym2612"
    },
    {
      "channel": 1,
      "note": 63,
      "start": 200.6765,
      "duration": 0.1512,
      "velocity": 99,
      "chip": "ym2612"
    },
    {
      "channel": 2,
      "note": 65,
      "start": 200.6772,
      "duration": 0.0837,
      "velocity": 112,
      "chip": "ym2612"
    },
    {
      "channel": 3,
      "note": 52,
      "start": 200.678,
      "duration": 0.0497,
      "velocity": 120,
      "chip": "ym2612"
    },
    {
      "channel": 4,
      "note": 68,
      "start": 200.6838,
      "duration": 0.1178,
      "velocity": 112,
      "chip": "ym2612"
    },
    {
      "channel": 5,
      "note": 56,
      "start": 200.7687,
      "duration": 0.1511,
      "velocity": 99,
      "chip": "ym2612"
    },
    {
      "channel": 0,
      "note": 49,
      "start": 200.8274,
      "duration": 0.1512,
      "velocity": 98,
      "chip": "ym2612"
    },
    {
      "channel": 1,
      "note": 56,
      "start": 200.8282,
      "duration": 0.1511,
      "velocity": 98,
      "chip": "ym2612"
    },
    {
      "channel": 2,
      "note": 65,
      "start": 200.8289,
      "duration": 0.0837,
      "velocity": 112,
      "chip": "ym2612"
    },
    {
      "channel": 3,
      "note": 64,
      "start": 200.8297,
      "duration": 0.0498,
      "velocity": 120,
      "chip": "ym2612"
    },
    {
      "channel": 4,
      "note": 68,
      "start": 200.8355,
      "duration": 0.1178,
      "velocity": 111,
      "chip": "ym2612"
    },
    {
      "channel": 5,
      "note": 49,
      "start": 200.9204,
      "duration": 0.1511,
      "velocity": 98,
      "chip": "ym2612"
    },
    {
      "channel": 0,
      "note": 51,
      "start": 200.9791,
      "duration": 0.1511,
      "velocity": 97,
      "chip": "ym2612"
    },
    {
      "channel": 1,
      "note": 58,
      "start": 200.9799,
      "duration": 0.1511,
      "velocity": 97,
      "chip": "ym2612"
    },
    {
      "channel": 2,
      "note": 65,
      "start": 200.9806,
      "duration": 0.0837,
      "velocity": 112,
      "chip": "ym2612"
    },
    {
      "channel": 3,
      "note": 52,
      "start": 200.9813,
      "duration": 0.0498,
      "velocity": 120,
      "chip": "ym2612"
    },
    {
      "channel": 4,
      "note": 80,
      "start": 200.9872,
      "duration": 0.1178,
      "velocity": 109,
      "chip": "ym2612"
    },
    {
      "channel": 5,
      "note": 51,
      "start": 201.0721,
      "duration": 0.1511,
      "velocity": 97,
      "chip": "ym2612"
    },
    {
      "channel": 0,
      "note": 52,
      "start": 201.1308,
      "duration": 0.1511,
      "velocity": 96,
      "chip": "ym2612"
    },
    {
      "channel": 1,
      "note": 59,
      "start": 201.1316,
      "duration": 0.1511,
      "velocity": 96,
      "chip": "ym2612"
    },
    {
      "channel": 2,
      "note": 65,
      "start": 201.1323,
      "duration": 0.0837,
      "velocity": 112,
      "chip": "ym2612"
    },
    {
      "channel": 3,
      "note": 52,
      "start": 201.1331,
      "duration": 0.0498,
      "velocity": 120,
      "chip": "ym2612"
    },
    {
      "channel": 4,
      "note": 68,
      "start": 201.1388,
      "duration": 0.1178,
      "velocity": 111,
      "chip": "ym2612"
    },
    {
      "channel": 5,
      "note": 52,
      "start": 201.2238,
      "duration": 0.1511,
      "velocity": 96,
      "chip": "ym2612"
    },
    {
      "channel": 0,
      "note": 56,
      "start": 201.2824,
      "duration": 0.1511,
      "velocity": 95,
      "chip": "ym2612"
    },
    {
      "channel": 1,
      "note": 63,
      "start": 201.2832,
      "duration": 0.1512,
      "velocity": 95,
      "chip": "ym2612"
    },
    {
      "channel": 2,
      "note": 65,
      "start": 201.2839,
      "duration": 0.0837,
      "velocity": 112,
      "chip": "ym2612"
    },
    {
      "channel": 3,
      "note": 64,
      "start": 201.2847,
      "duration": 0.0498,
      "velocity": 120,
      "chip": "ym2612"
    },
    {
      "channel": 4,
      "note": 68,
      "start": 201.2906,
      "duration": 0.1178,
      "velocity": 112,
      "chip": "ym2612"
    },
    {
      "channel": 5,
      "note": 56,
      "start": 201.3754,
      "duration": 0.1511,
      "velocity": 95,
      "chip": "ym2612"
    },
    {
      "channel": 0,
      "note": 49,
      "start": 201.4341,
      "duration": 0.1511,
      "velocity": 96,
      "chip": "ym2612"
    },
    {
      "channel": 1,
      "note": 56,
      "start": 201.435,
      "duration": 0.1511,
      "velocity": 96,
      "chip": "ym2612"
    },
    {
      "channel": 2,
      "note": 65,
      "start": 201.4357,
      "duration": 0.0836,
      "velocity": 112,
      "chip": "ym2612"
    },
    {
      "channel": 3,
      "note": 52,
      "start": 201.4364,
      "duration": 0.0497,
      "velocity": 120,
      "chip": "ym2612"
    },
    {
      "channel": 4,
      "note": 68,
      "start": 201.4422,
      "duration": 0.1178,
      "velocity": 108,
      "chip": "ym2612"
    },
    {
      "channel": 5,
      "note": 49,
      "start": 201.5271,
      "duration": 0.1512,
      "velocity": 96,
      "chip": "ym2612"
    },
    {
      "channel": 0,
      "note": 51,
      "start": 201.5858,
      "duration": 0.1511,
      "velocity": 97,
      "chip": "ym2612"
    },
    {
      "channel": 1,
      "note": 58,
      "start": 201.5866,
      "duration": 0.1511,
      "velocity": 97,
      "chip": "ym2612"
    },
    {
      "channel": 2,
      "note": 65,
      "start": 201.5873,
      "duration": 0.0837,
      "velocity": 112,
      "chip": "ym2612"
    },
    {
      "channel": 3,
      "note": 64,
      "start": 201.5881,
      "duration": 0.0497,
      "velocity": 120,
      "chip": "ym2612"
    },
    {
      "channel": 4,
      "note": 80,
      "start": 201.5939,
      "duration": 0.1177,
      "velocity": 109,
      "chip": "ym2612"
    },
    {
      "channel": 5,
      "note": 51,
      "start": 201.6788,
      "duration": 0.1511,
      "velocity": 97,
      "chip": "ym2612"
    },
    {
      "channel": 0,
      "note": 52,
      "start": 201.7375,
      "duration": 0.1511,
      "velocity": 98,
      "chip": "ym2612"
    },
    {
      "channel": 1,
      "note": 59,
      "start": 201.7383,
      "duration": 0.1512,
      "velocity": 98,
      "chip": "ym2612"
    },
    {
      "channel": 2,
      "note": 65,
      "start": 201.739,
      "duration": 0.0837,
      "velocity": 112,
      "chip": "ym2612"
    },
    {
      "channel": 3,
      "note": 52,
      "start": 201.7398,
      "duration": 0.0497,
      "velocity": 120,
      "chip": "ym2612"
    },
    {
      "channel": 4,
      "note": 80,
      "start": 201.7456,
      "duration": 0.1178,
      "velocity": 110,
      "chip": "ym2612"
    },
    {
      "channel": 5,
      "note": 52,
      "start": 201.8305,
      "duration": 0.1511,
      "velocity": 98,
      "chip": "ym2612"
    },
    {
      "channel": 0,
      "note": 56,
      "start": 201.8892,
      "duration": 0.1512,
      "velocity": 99,
      "chip": "ym2612"
    },
    {
      "channel": 1,
      "note": 63,
      "start": 201.89,
      "duration": 0.1511,
      "velocity": 99,
      "chip": "ym2612"
    },
    {
      "channel": 2,
      "note": 65,
      "start": 201.8907,
      "duration": 0.0836,
      "velocity": 112,
      "chip": "ym2612"
    },
    {
      "channel": 3,
      "note": 52,
      "start": 201.8915,
      "duration": 0.0497,
      "velocity": 120,
      "chip": "ym2612"
    },
    {
      "channel": 4,
      "note": 68,
      "start": 201.8973,
      "duration": 0.1178,
      "velocity": 111,
      "chip": "ym2612"
    },
    {
      "channel": 5,
      "note": 56,
      "start": 201.9822,
      "duration": 0.1511,
      "velocity": 99,
      "chip": "ym2612"
    },
    {
      "channel": 0,
      "note": 49,
      "start": 202.0409,
      "duration": 0.1511,
      "velocity": 100,
      "chip": "ym2612"
    },
    {
      "channel": 1,
      "note": 56,
      "start": 202.0417,
      "duration": 0.1511,
      "velocity": 100,
      "chip": "ym2612"
    },
    {
      "channel": 2,
      "note": 65,
      "start": 202.0424,
      "duration": 0.0836,
      "velocity": 112,
      "chip": "ym2612"
    },
    {
      "channel": 3,
      "note": 64,
      "start": 202.0432,
      "duration": 0.0497,
      "velocity": 120,
      "chip": "ym2612"
    },
    {
      "channel": 4,
      "note": 80,
      "start": 202.049,
      "duration": 0.1178,
      "velocity": 108,
      "chip": "ym2612"
    },
    {
      "channel": 5,
      "note": 49,
      "start": 202.1338,
      "duration": 0.1511,
      "velocity": 100,
      "chip": "ym2612"
    },
    {
      "channel": 0,
      "note": 51,
      "start": 202.1925,
      "duration": 0.1511,
      "velocity": 101,
      "chip": "ym2612"
    },
    {
      "channel": 1,
      "note": 58,
      "start": 202.1934,
      "duration": 0.1511,
      "velocity": 101,
      "chip": "ym2612"
    },
    {
      "channel": 2,
      "note": 65,
      "start": 202.1941,
      "duration": 0.0837,
      "velocity": 112,
      "chip": "ym2612"
    },
    {
      "channel": 3,
      "note": 52,
      "start": 202.1948,
      "duration": 0.0498,
      "velocity": 120,
      "chip": "ym2612"
    },
    {
      "channel": 4,
      "note": 68,
      "start": 202.2006,
      "duration": 0.1178,
      "velocity": 109,
      "chip": "ym2612"
    },
    {
      "channel": 5,
      "note": 51,
      "start": 202.2855,
      "duration": 0.1511,
      "velocity": 101,
      "chip": "ym2612"
    },
    {
      "channel": 0,
      "note": 52,
      "start": 202.3442,
      "duration": 0.1511,
      "velocity": 102,
      "chip": "ym2612"
    },
    {
      "channel": 1,
      "note": 59,
      "start": 202.345,
      "duration": 0.1512,
      "velocity": 102,
      "chip": "ym2612"
    },
    {
      "channel": 2,
      "note": 65,
      "start": 202.3457,
      "duration": 0.0837,
      "velocity": 112,
      "chip": "ym2612"
    },
    {
      "channel": 3,
      "note": 52,
      "start": 202.3465,
      "duration": 0.0498,
      "velocity": 120,
      "chip": "ym2612"
    },
    {
      "channel": 4,
      "note": 68,
      "start": 202.3523,
      "duration": 0.1178,
      "velocity": 112,
      "chip": "ym2612"
    },
    {
      "channel": 5,
      "note": 52,
      "start": 202.4372,
      "duration": 0.1511,
      "velocity": 102,
      "chip": "ym2612"
    },
    {
      "channel": 0,
      "note": 56,
      "start": 202.4959,
      "duration": 0.1511,
      "velocity": 103,
      "chip": "ym2612"
    },
    {
      "channel": 1,
      "note": 63,
      "start": 202.4967,
      "duration": 0.1511,
      "velocity": 103,
      "chip": "ym2612"
    },
    {
      "channel": 2,
      "note": 65,
      "start": 202.4974,
      "duration": 0.0836,
      "velocity": 112,
      "chip": "ym2612"
    },
    {
      "channel": 3,
      "note": 64,
      "start": 202.4982,
      "duration": 0.0497,
      "velocity": 120,
      "chip": "ym2612"
    },
    {
      "channel": 4,
      "note": 80,
      "start": 202.504,
      "duration": 0.1178,
      "velocity": 110,
      "chip": "ym2612"
    },
    {
      "channel": 5,
      "note": 56,
      "start": 202.5888,
      "duration": 0.1512,
      "velocity": 103,
      "chip": "ym2612"
    },
    {
      "channel": 0,
      "note": 49,
      "start": 202.6476,
      "duration": 0.1511,
      "velocity": 104,
      "chip": "ym2612"
    },
    {
      "channel": 1,
      "note": 56,
      "start": 202.6484,
      "duration": 0.1511,
      "velocity": 104,
      "chip": "ym2612"
    },
    {
      "channel": 2,
      "note": 65,
      "start": 202.6491,
      "duration": 0.0837,
      "velocity": 112,
      "chip": "ym2612"
    },
    {
      "channel": 3,
      "note": 52,
      "start": 202.6499,
      "duration": 0.0497,
      "velocity": 120,
      "chip": "ym2612"
    },
    {
      "channel": 4,
      "note": 80,
      "start": 202.6557,
      "duration": 0.1178,
      "velocity": 111,
      "chip": "ym2612"
    },
    {
      "channel": 5,
      "note": 49,
      "start": 202.7406,
      "duration": 0.151,
      "velocity": 104,
      "chip": "ym2612"
    },
    {
      "channel": 0,
      "note": 51,
      "start": 202.7993,
      "duration": 0.1511,
      "velocity": 105,
      "chip": "ym2612"
    },
    {
      "channel": 1,
      "note": 58,
      "start": 202.8,
      "duration": 0.1511,
      "velocity": 105,
      "chip": "ym2612"
    },
    {
      "channel": 2,
      "note": 65,
      "start": 202.8007,
      "duration": 0.0837,
      "velocity": 112,
      "chip": "ym2612"
    },
    {
      "channel": 3,
      "note": 64,
      "start": 202.8015,
      "duration": 0.0497,
      "velocity": 120,
      "chip": "ym2612"
    },
    {
      "channel": 4,
      "note": 68,
      "start": 202.8074,
      "duration": 0.1177,
      "velocity": 108,
      "chip": "ym2612"
    },
    {
      "channel": 5,
      "note": 51,
      "start": 202.8922,
      "duration": 0.1511,
      "velocity": 105,
      "chip": "ym2612"
    },
    {
      "channel": 0,
      "note": 52,
      "start": 202.9509,
      "duration": 0.1511,
      "velocity": 106,
      "chip": "ym2612"
    },
    {
      "channel": 1,
      "note": 59,
      "start": 202.9518,
      "duration": 0.1511,
      "velocity": 106,
      "chip": "ym2612"
    },
    {
      "channel": 2,
      "note": 65,
      "start": 202.9525,
      "duration": 0.0837,
      "velocity": 112,
      "chip": "ym2612"
    },
    {
      "channel": 3,
      "note": 52,
      "start": 202.9532,
      "duration": 0.0498,
      "velocity": 120,
      "chip": "ym2612"
    },
    {
      "channel": 4,
      "note": 80,
      "start": 202.959,
      "duration": 0.1178,
      "velocity": 109,
      "chip": "ym2612"
    },
    {
      "channel": 5,
      "note": 52,
      "start": 203.0439,
      "duration": 0.1511,
      "velocity": 106,
      "chip": "ym2612"
    },
    {
      "channel": 0,
      "note": 56,
      "start": 203.1026,
      "duration": 0.1512,
      "velocity": 107,
      "chip": "ym2612"
    },
    {
      "channel": 1,
      "note": 63,
      "start": 203.1034,
      "duration": 0.1511,
      "velocity": 107,
      "chip": "ym2612"
    },
    {
      "channel": 2,
      "note": 65,
      "start": 203.1041,
      "duration": 0.0837,
      "velocity": 112,
      "chip": "ym2612"
    },
    {
      "channel": 3,
      "note": 52,
      "start": 203.1049,
      "duration": 0.0498,
      "velocity": 120,
      "chip": "ym2612"
    },
    {
      "channel": 4,
      "note": 68,
      "start": 203.1107,
      "duration": 0.1178,
      "velocity": 112,
      "chip": "ym2612"
    },
    {
      "channel": 5,
      "note": 56,
      "start": 203.1956,
      "duration": 0.1511,
      "velocity": 107,
      "chip": "ym2612"
    },
    {
      "channel": 0,
      "note": 49,
      "start": 203.2543,
      "duration": 0.1511,
      "velocity": 108,
      "chip": "ym2612"
    },
    {
      "channel": 1,
      "note": 56,
      "start": 203.2551,
      "duration": 0.1511,
      "velocity": 108,
      "chip": "ym2612"
    },
    {
      "channel": 2,
      "note": 65,
      "start": 203.2558,
      "duration": 0.0836,
      "velocity": 112,
      "chip": "ym2612"
    },
    {
      "channel": 3,
      "note": 64,
      "start": 203.2566,
      "duration": 0.0498,
      "velocity": 120,
      "chip": "ym2612"
    },
    {
      "channel": 4,
      "note": 80,
      "start": 203.2624,
      "duration": 0.1178,
      "velocity": 110,
      "chip": "ym2612"
    },
    {
      "channel": 5,
      "note": 49,
      "start": 203.3473,
      "duration": 0.1511,
      "velocity": 108,
      "chip": "ym2612"
    },
    {
      "channel": 0,
      "note": 51,
      "start": 203.406,
      "duration": 0.1512,
      "velocity": 109,
      "chip": "ym2612"
    },
    {
      "channel": 1,
      "note": 58,
      "start": 203.4068,
      "duration": 0.1511,
      "velocity": 109,
      "chip": "ym2612"
    },
    {
      "channel": 2,
      "note": 65,
      "start": 203.4076,
      "duration": 0.0837,
      "velocity": 112,
      "chip": "ym2612"
    },
    {
      "channel": 3,
      "note": 52,
      "start": 203.4083,
      "duration": 0.0497,
      "velocity": 120,
      "chip": "ym2612"
    },
    {
      "channel": 4,
      "note": 68,
      "start": 203.4141,
      "duration": 0.1178,
      "velocity": 108,
      "chip": "ym2612"
    },
    {
      "channel": 5,
      "note": 51,
      "start": 203.499,
      "duration": 0.1511,
      "velocity": 109,
      "chip": "ym2612"
    },
    {
      "channel": 0,
      "note": 52,
      "start": 203.5577,
      "duration": 0.151,
      "velocity": 110,
      "chip": "ym2612"
    },
    {
      "channel": 1,
      "note": 59,
      "start": 203.5585,
      "duration": 0.1511,
      "velocity": 110,
      "chip": "ym2612"
    },
    {
      "channel": 2,
      "note": 65,
      "start": 203.5592,
      "duration": 0.0836,
      "velocity": 112,
      "chip": "ym2612"
    },
    {
      "channel": 3,
      "note": 64,
      "start": 203.56,
      "duration": 0.0497,
      "velocity": 120,
      "chip": "ym2612"
    },
    {
      "channel": 4,
      "note": 68,
      "start": 203.5658,
      "duration": 0.1178,
      "velocity": 109,
      "chip": "ym2612"
    },
    {
      "channel": 5,
      "note": 52,
      "start": 203.6506,
      "duration": 0.1512,
      "velocity": 110,
      "chip": "ym2612"
    },
    {
      "channel": 0,
      "note": 56,
      "start": 203.7093,
      "duration": 0.1511,
      "velocity": 110,
      "chip": "ym2612"
    },
    {
      "channel": 1,
      "note": 63,
      "start": 203.7102,
      "duration": 0.1515,
      "velocity": 110,
      "chip": "ym2612"
    },
    {
      "channel": 2,
      "note": 65,
      "start": 203.7109,
      "duration": 0.0837,
      "velocity": 112,
      "chip": "ym2612"
    },
    {
      "channel": 3,
      "note": 64,
      "start": 203.7116,
      "duration": 0.0497,
      "velocity": 120,
      "chip": "ym2612"
    },
    {
      "channel": 4,
      "note": 80,
      "start": 203.7175,
      "duration": 0.1177,
      "velocity": 112,
      "chip": "ym2612"
    },
    {
      "channel": 5,
      "note": 56,
      "start": 203.8023,
      "duration": 0.0677,
      "velocity": 110,
      "chip": "ym2612"
    },
    {
      "channel": 0,
      "note": 40,
      "start": 203.8615,
      "duration": 0.3023,
      "velocity": 127,
      "chip": "ym2612"
    },
    {
      "channel": 1,
      "note": 65,
      "start": 203.8628,
      "duration": 0.1163,
      "velocity": 108,
      "chip": "ym2612"
    },
    {
      "channel": 2,
      "note": 65,
      "start": 203.8635,
      "duration": 0.0824,
      "velocity": 112,
      "chip": "ym2612"
    },
    {
      "channel": 3,
      "note": 53,
      "start": 203.8642,
      "duration": 0.0485,
      "velocity": 120,
      "chip": "ym2612"
    },
    {
      "channel": 4,
      "note": 65,
      "start": 203.8698,
      "duration": 0.1505,
      "velocity": 112,
      "chip": "ym2612"
    },
    {
      "channel": 5,
      "note": 7,
      "start": 203.8711,
      "duration": 2.4258,
      "velocity": 1,
      "chip": "ym2612"
    },
    {
      "channel": 1,
      "note": 77,
      "start": 204.0131,
      "duration": 0.1178,
      "velocity": 108,
      "chip": "ym2612"
    },
    {
      "channel": 2,
      "note": 65,
      "start": 204.0138,
      "duration": 0.0838,
      "velocity": 112,
      "chip": "ym2612"
    },
    {
      "channel": 3,
      "note": 65,
      "start": 204.0146,
      "duration": 0.0499,
      "velocity": 120,
      "chip": "ym2612"
    },
    {
      "channel": 4,
      "note": 65,
      "start": 204.0215,
      "duration": 0.1505,
      "velocity": 112,
      "chip": "ym2612"
    },
    {
      "channel": 0,
      "note": 41,
      "start": 204.1649,
      "duration": 0.3023,
      "velocity": 123,
      "chip": "ym2612"
    },
    {
      "channel": 1,
      "note": 77,
      "start": 204.1656,
      "duration": 0.1169,
      "velocity": 112,
      "chip": "ym2612"
    },
    {
      "channel": 2,
      "note": 65,
      "start": 204.1663,
      "duration": 0.083,
      "velocity": 112,
      "chip": "ym2612"
    },
    {
      "channel": 3,
      "note": 53,
      "start": 204.167,
      "duration": 0.0491,
      "velocity": 120,
      "chip": "ym2612"
    },
    {
      "channel": 4,
      "note": 65,
      "start": 204.1731,
      "duration": 0.1506,
      "velocity": 112,
      "chip": "ym2612"
    },
    {
      "channel": 1,
      "note": 65,
      "start": 204.3164,
      "duration": 0.1178,
      "velocity": 109,
      "chip": "ym2612"
    },
    {
      "channel": 2,
      "note": 65,
      "start": 204.3171,
      "duration": 0.0838,
      "velocity": 112,
      "chip": "ym2612"
    },
    {
      "channel": 3,
      "note": 53,
      "start": 204.3178,
      "duration": 0.05,
      "velocity": 120,
      "chip": "ym2612"
    },
    {
      "channel": 4,
      "note": 65,
      "start": 204.3249,
      "duration": 0.1505,
      "velocity": 112,
      "chip": "ym2612"
    },
    {
      "channel": 0,
      "note": 40,
      "start": 204.4682,
      "duration": 0.3023,
      "velocity": 127,
      "chip": "ym2612"
    },
    {
      "channel": 1,
      "note": 77,
      "start": 204.4689,
      "duration": 0.1169,
      "velocity": 108,
      "chip": "ym2612"
    },
    {
      "channel": 2,
      "note": 65,
      "start": 204.4696,
      "duration": 0.083,
      "velocity": 112,
      "chip": "ym2612"
    },
    {
      "channel": 3,
      "note": 65,
      "start": 204.4704,
      "duration": 0.0491,
      "velocity": 120,
      "chip": "ym2612"
    },
    {
      "channel": 4,
      "note": 65,
      "start": 204.4765,
      "duration": 0.1505,
      "velocity": 112,
      "chip": "ym2612"
    },
    {
      "channel": 1,
      "note": 65,
      "start": 204.6198,
      "duration": 0.1178,
      "velocity": 110,
      "chip": "ym2612"
    },
    {
      "channel": 2,
      "note": 65,
      "start": 204.6205,
      "duration": 0.0838,
      "velocity": 112,
      "chip": "ym2612"
    },
    {
      "channel": 3,
      "note": 53,
      "start": 204.6212,
      "duration": 0.0499,
      "velocity": 120,
      "chip": "ym2612"
    },
    {
      "channel": 4,
      "note": 65,
      "start": 204.6282,
      "duration": 0.1505,
      "velocity": 112,
      "chip": "ym2612"
    },
    {
      "channel": 0,
      "note": 41,
      "start": 204.7716,
      "duration": 0.3023,
      "velocity": 123,
      "chip": "ym2612"
    },
    {
      "channel": 1,
      "note": 65,
      "start": 204.7723,
      "duration": 0.1169,
      "velocity": 109,
      "chip": "ym2612"
    },
    {
      "channel": 2,
      "note": 65,
      "start": 204.773,
      "duration": 0.083,
      "velocity": 112,
      "chip": "ym2612"
    },
    {
      "channel": 3,
      "note": 53,
      "start": 204.7738,
      "duration": 0.0491,
      "velocity": 120,
      "chip": "ym2612"
    },
    {
      "channel": 4,
      "note": 65,
      "start": 204.7799,
      "duration": 0.1505,
      "velocity": 112,
      "chip": "ym2612"
    },
    {
      "channel": 1,
      "note": 77,
      "start": 204.9231,
      "duration": 0.1178,
      "velocity": 111,
      "chip": "ym2612"
    },
    {
      "channel": 2,
      "note": 65,
      "start": 204.9239,
      "duration": 0.0838,
      "velocity": 112,
      "chip": "ym2612"
    },
    {
      "channel": 3,
      "note": 65,
      "start": 204.9247,
      "duration": 0.0499,
      "velocity": 120,
      "chip": "ym2612"
    },
    {
      "channel": 4,
      "note": 65,
      "start": 204.9316,
      "duration": 0.1505,
      "velocity": 112,
      "chip": "ym2612"
    },
    {
      "channel": 0,
      "note": 40,
      "start": 205.075,
      "duration": 0.6056,
      "velocity": 127,
      "chip": "ym2612"
    },
    {
      "channel": 1,
      "note": 77,
      "start": 205.0757,
      "duration": 0.1169,
      "velocity": 112,
      "chip": "ym2612"
    },
    {
      "channel": 2,
      "note": 65,
      "start": 205.0764,
      "duration": 0.083,
      "velocity": 112,
      "chip": "ym2612"
    },
    {
      "channel": 3,
      "note": 53,
      "start": 205.0771,
      "duration": 0.0491,
      "velocity": 120,
      "chip": "ym2612"
    },
    {
      "channel": 4,
      "note": 65,
      "start": 205.0832,
      "duration": 0.1505,
      "velocity": 112,
      "chip": "ym2612"
    },
    {
      "channel": 1,
      "note": 65,
      "start": 205.2265,
      "duration": 0.1178,
      "velocity": 109,
      "chip": "ym2612"
    },
    {
      "channel": 2,
      "note": 65,
      "start": 205.2272,
      "duration": 0.0838,
      "velocity": 112,
      "chip": "ym2612"
    },
    {
      "channel": 3,
      "note": 65,
      "start": 205.228,
      "duration": 0.0499,
      "velocity": 120,
      "chip": "ym2612"
    },
    {
      "channel": 4,
      "note": 65,
      "start": 205.2349,
      "duration": 0.1506,
      "velocity": 112,
      "chip": "ym2612"
    },
    {
      "channel": 1,
      "note": 77,
      "start": 205.3782,
      "duration": 0.1178,
      "velocity": 108,
      "chip": "ym2612"
    },
    {
      "channel": 2,
      "note": 65,
      "start": 205.3789,
      "duration": 0.0838,
      "velocity": 112,
      "chip": "ym2612"
    },
    {
      "channel": 3,
      "note": 53,
      "start": 205.3796,
      "duration": 0.05,
      "velocity": 120,
      "chip": "ym2612"
    },
    {
      "channel": 4,
      "note": 65,
      "start": 205.3861,
      "duration": 0.1511,
      "velocity": 112,
      "chip": "ym2612"
    },
    {
      "channel": 1,
      "note": 65,
      "start": 205.5299,
      "duration": 0.1177,
      "velocity": 112,
      "chip": "ym2612"
    },
    {
      "channel": 2,
      "note": 65,
      "start": 205.5306,
      "duration": 0.0838,
      "velocity": 112,
      "chip": "ym2612"
    },
    {
      "channel": 3,
      "note": 53,
      "start": 205.5313,
      "duration": 0.0499,
      "velocity": 120,
      "chip": "ym2612"
    },
    {
      "channel": 4,
      "note": 65,
      "start": 205.5383,
      "duration": 0.1505,
      "velocity": 112,
      "chip": "ym2612"
    },
    {
      "channel": 0,
      "note": 40,
      "start": 205.6811,
      "duration": 0.3029,
      "velocity": 127,
      "chip": "ym2612"
    },
    {
      "channel": 1,
      "note": 65,
      "start": 205.6818,
      "duration": 0.1176,
      "velocity": 111,
      "chip": "ym2612"
    },
    {
      "channel": 2,
      "note": 65,
      "start": 205.6825,
      "duration": 0.0836,
      "velocity": 112,
      "chip": "ym2612"
    },
    {
      "channel": 3,
      "note": 65,
      "start": 205.6832,
      "duration": 0.0497,
      "velocity": 120,
      "chip": "ym2612"
    },
    {
      "channel": 4,
      "note": 65,
      "start": 205.69,
      "duration": 0.1505,
      "velocity": 112,
      "chip": "ym2612"
    },
    {
      "channel": 1,
      "note": 77,
      "start": 205.8332,
      "duration": 0.1178,
      "velocity": 109,
      "chip": "ym2612"
    },
    {
      "channel": 2,
      "note": 65,
      "start": 205.8339,
      "duration": 0.0839,
      "velocity": 112,
      "chip": "ym2612"
    },
    {
      "channel": 3,
      "note": 53,
      "start": 205.8347,
      "duration": 0.0499,
      "velocity": 120,
      "chip": "ym2612"
    },
    {
      "channel": 4,
      "note": 65,
      "start": 205.8417,
      "duration": 0.1505,
      "velocity": 112,
      "chip": "ym2612"
    },
    {
      "channel": 0,
      "note": 41,
      "start": 205.985,
      "duration": 0.3023,
      "velocity": 123,
      "chip": "ym2612"
    },
    {
      "channel": 1,
      "note": 65,
      "start": 205.9857,
      "duration": 0.1169,
      "velocity": 111,
      "chip": "ym2612"
    },
    {
      "channel": 2,
      "note": 65,
      "start": 205.9864,
      "duration": 0.083,
      "velocity": 112,
      "chip": "ym2612"
    },
    {
      "channel": 3,
      "note": 53,
      "start": 205.9872,
      "duration": 0.0491,
      "velocity": 120,
      "chip": "ym2612"
    },
    {
      "channel": 4,
      "note": 65,
      "start": 205.9933,
      "duration": 0.1506,
      "velocity": 112,
      "chip": "ym2612"
    },
    {
      "channel": 1,
      "note": 65,
      "start": 206.1366,
      "duration": 0.1178,
      "velocity": 112,
      "chip": "ym2612"
    },
    {
      "channel": 2,
      "note": 65,
      "start": 206.1373,
      "duration": 0.0838,
      "velocity": 112,
      "chip": "ym2612"
    },
    {
      "channel": 3,
      "note": 65,
      "start": 206.1381,
      "duration": 0.0499,
      "velocity": 120,
      "chip": "ym2612"
    },
    {
      "channel": 4,
      "note": 65,
      "start": 206.145,
      "duration": 0.1505,
      "velocity": 112,
      "chip": "ym2612"
    },
    {
      "channel": 0,
      "note": 40,
      "start": 206.2884,
      "duration": 0.3023,
      "velocity": 127,
      "chip": "ym2612"
    },
    {
      "channel": 1,
      "note": 65,
      "start": 206.2891,
      "duration": 0.1169,
      "velocity": 108,
      "chip": "ym2612"
    },
    {
      "channel": 2,
      "note": 65,
      "start": 206.2898,
      "duration": 0.083,
      "velocity": 112,
      "chip": "ym2612"
    },
    {
      "channel": 3,
      "note": 53,
      "start": 206.2906,
      "duration": 0.0491,
      "velocity": 120,
      "chip": "ym2612"
    },
    {
      "channel": 4,
      "note": 65,
      "start": 206.2967,
      "duration": 0.1505,
      "velocity": 112,
      "chip": "ym2612"
    },
    {
      "channel": 5,
      "note": 7,
      "start": 206.2974,
      "duration": 2.4265,
      "velocity": 1,
      "chip": "ym2612"
    },
    {
      "channel": 1,
      "note": 77,
      "start": 206.4399,
      "duration": 0.1178,
      "velocity": 109,
      "chip": "ym2612"
    },
    {
      "channel": 2,
      "note": 65,
      "start": 206.4407,
      "duration": 0.0838,
      "velocity": 112,
      "chip": "ym2612"
    },
    {
      "channel": 3,
      "note": 65,
      "start": 206.4415,
      "duration": 0.0499,
      "velocity": 120,
      "chip": "ym2612"
    },
    {
      "channel": 4,
      "note": 65,
      "start": 206.4484,
      "duration": 0.1505,
      "velocity": 112,
      "chip": "ym2612"
    },
    {
      "channel": 0,
      "note": 41,
      "start": 206.5918,
      "duration": 0.3023,
      "velocity": 123,
      "chip": "ym2612"
    },
    {
      "channel": 1,
      "note": 77,
      "start": 206.5925,
      "duration": 0.1169,
      "velocity": 110,
      "chip": "ym2612"
    },
    {
      "channel": 2,
      "note": 65,
      "start": 206.5932,
      "duration": 0.083,
      "velocity": 112,
      "chip": "ym2612"
    },
    {
      "channel": 3,
      "note": 53,
      "start": 206.5939,
      "duration": 0.0491,
      "velocity": 120,
      "chip": "ym2612"
    },
    {
      "channel": 4,
      "note": 65,
      "start": 206.6,
      "duration": 0.1505,
      "velocity": 112,
      "chip": "ym2612"
    },
    {
      "channel": 1,
      "note": 65,
      "start": 206.7433,
      "duration": 0.1178,
      "velocity": 111,
      "chip": "ym2612"
    },
    {
      "channel": 2,
      "note": 65,
      "start": 206.744,
      "duration": 0.0839,
      "velocity": 112,
      "chip": "ym2612"
    },
    {
      "channel": 3,
      "note": 53,
      "start": 206.7448,
      "duration": 0.0499,
      "velocity": 120,
      "chip": "ym2612"
    },
    {
      "channel": 4,
      "note": 65,
      "start": 206.7518,
      "duration": 0.1505,
      "velocity": 112,
      "chip": "ym2612"
    },
    {
      "channel": 0,
      "note": 40,
      "start": 206.8951,
      "duration": 0.6057,
      "velocity": 127,
      "chip": "ym2612"
    },
    {
      "channel": 1,
      "note": 77,
      "start": 206.8959,
      "duration": 0.1169,
      "velocity": 108,
      "chip": "ym2612"
    },
    {
      "channel": 2,
      "note": 65,
      "start": 206.8966,
      "duration": 0.083,
      "velocity": 112,
      "chip": "ym2612"
    },
    {
      "channel": 3,
      "note": 65,
      "start": 206.8973,
      "duration": 0.0491,
      "velocity": 120,
      "chip": "ym2612"
    },
    {
      "channel": 4,
      "note": 65,
      "start": 206.9028,
      "duration": 0.1511,
      "velocity": 112,
      "chip": "ym2612"
    },
    {
      "channel": 1,
      "note": 65,
      "start": 207.0467,
      "duration": 0.1178,
      "velocity": 109,
      "chip": "ym2612"
    },
    {
      "channel": 2,
      "note": 65,
      "start": 207.0474,
      "duration": 0.0839,
      "velocity": 112,
      "chip": "ym2612"
    },
    {
      "channel": 3,
      "note": 53,
      "start": 207.0481,
      "duration": 0.0499,
      "velocity": 120,
      "chip": "ym2612"
    },
    {
      "channel": 4,
      "note": 65,
      "start": 207.0551,
      "duration": 0.1506,
      "velocity": 112,
      "chip": "ym2612"
    },
    {
      "channel": 1,
      "note": 65,
      "start": 207.1984,
      "duration": 0.1178,
      "velocity": 112,
      "chip": "ym2612"
    },
    {
      "channel": 2,
      "note": 65,
      "start": 207.1991,
      "duration": 0.0838,
      "velocity": 112,
      "chip": "ym2612"
    },
    {
      "channel": 3,
      "note": 53,
      "start": 207.1999,
      "duration": 0.0499,
      "velocity": 120,
      "chip": "ym2612"
    },
    {
      "channel": 4,
      "note": 65,
      "start": 207.2068,
      "duration": 0.1505,
      "velocity": 112,
      "chip": "ym2612"
    },
    {
      "channel": 1,
      "note": 77,
      "start": 207.35,
      "duration": 0.1178,
      "velocity": 110,
      "chip": "ym2612"
    },
    {
      "channel": 2,
      "note": 65,
      "start": 207.3507,
      "duration": 0.0838,
      "velocity": 112,
      "chip": "ym2612"
    },
    {
      "channel": 3,
      "note": 65,
      "start": 207.3515,
      "duration": 0.0499,
      "velocity": 120,
      "chip": "ym2612"
    },
    {
      "channel": 4,
      "note": 65,
      "start": 207.3584,
      "duration": 0.1505,
      "velocity": 112,
      "chip": "ym2612"
    },
    {
      "channel": 0,
      "note": 40,
      "start": 207.5012,
      "duration": 0.3029,
      "velocity": 127,
      "chip": "ym2612"
    },
    {
      "channel": 1,
      "note": 77,
      "start": 207.502,
      "duration": 0.1176,
      "velocity": 111,
      "chip": "ym2612"
    },
    {
      "channel": 2,
      "note": 65,
      "start": 207.5027,
      "duration": 0.0836,
      "velocity": 112,
      "chip": "ym2612"
    },
    {
      "channel": 3,
      "note": 53,
      "start": 207.5034,
      "duration": 0.0497,
      "velocity": 120,
      "chip": "ym2612"
    },
    {
      "channel": 4,
      "note": 65,
      "start": 207.5102,
      "duration": 0.1505,
      "velocity": 112,
      "chip": "ym2612"
    },
    {
      "channel": 1,
      "note": 65,
      "start": 207.6534,
      "duration": 0.1177,
      "velocity": 108,
      "chip": "ym2612"
    },
    {
      "channel": 2,
      "note": 65,
      "start": 207.6541,
      "duration": 0.0838,
      "velocity": 112,
      "chip": "ym2612"
    },
    {
      "channel": 3,
      "note": 65,
      "start": 207.6549,
      "duration": 0.0499,
      "velocity": 120,
      "chip": "ym2612"
    },
    {
      "channel": 4,
      "note": 65,
      "start": 207.6618,
      "duration": 0.1505,
      "velocity": 112,
      "chip": "ym2612"
    },
    {
      "channel": 0,
      "note": 41,
      "start": 207.8052,
      "duration": 0.3023,
      "velocity": 123,
      "chip": "ym2612"
    },
    {
      "channel": 1,
      "note": 77,
      "start": 207.8059,
      "duration": 0.117,
      "velocity": 109,
      "chip": "ym2612"
    },
    {
      "channel": 2,
      "note": 65,
      "start": 207.8066,
      "duration": 0.083,
      "velocity": 112,
      "chip": "ym2612"
    },
    {
      "channel": 3,
      "note": 53,
      "start": 207.8074,
      "duration": 0.0491,
      "velocity": 120,
      "chip": "ym2612"
    },
    {
      "channel": 4,
      "note": 65,
      "start": 207.8135,
      "duration": 0.1505,
      "velocity": 112,
      "chip": "ym2612"
    },
    {
      "channel": 1,
      "note": 65,
      "start": 207.9568,
      "duration": 0.1178,
      "velocity": 112,
      "chip": "ym2612"
    },
    {
      "channel": 2,
      "note": 65,
      "start": 207.9575,
      "duration": 0.0839,
      "velocity": 112,
      "chip": "ym2612"
    },
    {
      "channel": 3,
      "note": 53,
      "start": 207.9583,
      "duration": 0.0499,
      "velocity": 120,
      "chip": "ym2612"
    },
    {
      "channel": 4,
      "note": 65,
      "start": 207.9652,
      "duration": 0.1505,
      "velocity": 112,
      "chip": "ym2612"
    },
    {
      "channel": 0,
      "note": 40,
      "start": 208.1086,
      "duration": 0.6057,
      "velocity": 127,
      "chip": "ym2612"
    },
    {
      "channel": 1,
      "note": 77,
      "start": 208.1093,
      "duration": 0.1169,
      "velocity": 110,
      "chip": "ym2612"
    },
    {
      "channel": 2,
      "note": 65,
      "start": 208.11,
      "duration": 0.083,
      "velocity": 112,
      "chip": "ym2612"
    },
    {
      "channel": 3,
      "note": 65,
      "start": 208.1107,
      "duration": 0.0491,
      "velocity": 120,
      "chip": "ym2612"
    },
    {
      "channel": 4,
      "note": 65,
      "start": 208.1168,
      "duration": 0.1506,
      "velocity": 112,
      "chip": "ym2612"
    },
    {
      "channel": 1,
      "note": 65,
      "start": 208.2602,
      "duration": 0.1178,
      "velocity": 108,
      "chip": "ym2612"
    },
    {
      "channel": 2,
      "note": 65,
      "start": 208.2609,
      "duration": 0.0838,
      "velocity": 112,
      "chip": "ym2612"
    },
    {
      "channel": 3,
      "note": 53,
      "start": 208.2616,
      "duration": 0.0499,
      "velocity": 120,
      "chip": "ym2612"
    },
    {
      "channel": 4,
      "note": 65,
      "start": 208.268,
      "duration": 0.1511,
      "velocity": 112,
      "chip": "ym2612"
    },
    {
      "channel": 1,
      "note": 65,
      "start": 208.4118,
      "duration": 0.1178,
      "velocity": 109,
      "chip": "ym2612"
    },
    {
      "channel": 2,
      "note": 65,
      "start": 208.4125,
      "duration": 0.0838,
      "velocity": 112,
      "chip": "ym2612"
    },
    {
      "channel": 3,
      "note": 65,
      "start": 208.4133,
      "duration": 0.0499,
      "velocity": 120,
      "chip": "ym2612"
    },
    {
      "channel": 4,
      "note": 65,
      "start": 208.4202,
      "duration": 0.1506,
      "velocity": 112,
      "chip": "ym2612"
    },
    {
      "channel": 1,
      "note": 77,
      "start": 208.5635,
      "duration": 0.1178,
      "velocity": 112,
      "chip": "ym2612"
    },
    {
      "channel": 2,
      "note": 65,
      "start": 208.5642,
      "duration": 0.0838,
      "velocity": 112,
      "chip": "ym2612"
    },
    {
      "channel": 3,
      "note": 65,
      "start": 208.5649,
      "duration": 0.05,
      "velocity": 120,
      "chip": "ym2612"
    },
    {
      "channel": 4,
      "note": 65,
      "start": 208.5719,
      "duration": 0.1505,
      "velocity": 112,
      "chip": "ym2612"
    },
    {
      "channel": 0,
      "note": 40,
      "start": 208.7147,
      "duration": 0.3029,
      "velocity": 127,
      "chip": "ym2612"
    },
    {
      "channel": 1,
      "note": 65,
      "start": 208.7154,
      "duration": 0.1176,
      "velocity": 108,
      "chip": "ym2612"
    },
    {
      "channel": 2,
      "note": 65,
      "start": 208.7161,
      "duration": 0.0837,
      "velocity": 112,
      "chip": "ym2612"
    },
    {
      "channel": 3,
      "note": 53,
      "start": 208.7168,
      "duration": 0.0497,
      "velocity": 120,
      "chip": "ym2612"
    },
    {
      "channel": 4,
      "note": 65,
      "start": 208.7237,
      "duration": 0.1504,
      "velocity": 112,
      "chip": "ym2612"
    },
    {
      "channel": 5,
      "note": 7,
      "start": 208.7244,
      "duration": 2.4264,
      "velocity": 1,
      "chip": "ym2612"
    },
    {
      "channel": 1,
      "note": 77,
      "start": 208.8668,
      "duration": 0.1178,
      "velocity": 108,
      "chip": "ym2612"
    },
    {
      "channel": 2,
      "note": 65,
      "start": 208.8675,
      "duration": 0.0839,
      "velocity": 112,
      "chip": "ym2612"
    },
    {
      "channel": 3,
      "note": 65,
      "start": 208.8683,
      "duration": 0.0499,
      "velocity": 120,
      "chip": "ym2612"
    },
    {
      "channel": 4,
      "note": 65,
      "start": 208.8753,
      "duration": 0.1505,
      "velocity": 112,
      "chip": "ym2612"
    },
    {
      "channel": 0,
      "note": 41,
      "start": 209.0187,
      "duration": 0.3022,
      "velocity": 123,
      "chip": "ym2612"
    },
    {
      "channel": 1,
      "note": 77,
      "start": 209.0194,
      "duration": 0.1169,
      "velocity": 112,
      "chip": "ym2612"
    },
    {
      "channel": 2,
      "note": 65,
      "start": 209.0201,
      "duration": 0.083,
      "velocity": 112,
      "chip": "ym2612"
    },
    {
      "channel": 3,
      "note": 53,
      "start": 209.0208,
      "duration": 0.0491,
      "velocity": 120,
      "chip": "ym2612"
    },
    {
      "channel": 4,
      "note": 65,
      "start": 209.027,
      "duration": 0.1505,
      "velocity": 112,
      "chip": "ym2612"
    },
    {
      "channel": 1,
      "note": 65,
      "start": 209.1702,
      "duration": 0.1178,
      "velocity": 109,
      "chip": "ym2612"
    },
    {
      "channel": 2,
      "note": 65,
      "start": 209.1709,
      "duration": 0.0839,
      "velocity": 112,
      "chip": "ym2612"
    },
    {
      "channel": 3,
      "note": 53,
      "start": 209.1717,
      "duration": 0.0499,
      "velocity": 120,
      "chip": "ym2612"
    },
    {
      "channel": 4,
      "note": 65,
      "start": 209.1787,
      "duration": 0.1505,
      "velocity": 112,
      "chip": "ym2612"
    },
    {
      "channel": 0,
      "note": 40,
      "start": 209.3221,
      "duration": 0.3022,
      "velocity": 127,
      "chip": "ym2612"
    },
    {
      "channel": 1,
      "note": 77,
      "start": 209.3227,
      "duration": 0.117,
      "velocity": 108,
      "chip": "ym2612"
    },
    {
      "channel": 2,
      "note": 65,
      "start": 209.3234,
      "duration": 0.083,
      "velocity": 112,
      "chip": "ym2612"
    },
    {
      "channel": 3,
      "note": 65,
      "start": 209.3242,
      "duration": 0.049,
      "velocity": 120,
      "chip": "ym2612"
    },
    {
      "channel": 4,
      "note": 65,
      "start": 209.3303,
      "duration": 0.1505,
      "velocity": 112,
      "chip": "ym2612"
    },
    {
      "channel": 1,
      "note": 65,
      "start": 209.4737,
      "duration": 0.1177,
      "velocity": 110,
      "chip": "ym2612"
    },
    {
      "channel": 2,
      "note": 65,
      "start": 209.4744,
      "duration": 0.0838,
      "velocity": 112,
      "chip": "ym2612"
    },
    {
      "channel": 3,
      "note": 53,
      "start": 209.4751,
      "duration": 0.0499,
      "velocity": 120,
      "chip": "ym2612"
    },
    {
      "channel": 4,
      "note": 65,
      "start": 209.482,
      "duration": 0.1506,
      "velocity": 112,
      "chip": "ym2612"
    },
    {
      "channel": 0,
      "note": 41,
      "start": 209.6254,
      "duration": 0.3023,
      "velocity": 123,
      "chip": "ym2612"
    },
    {
      "channel": 1,
      "note": 65,
      "start": 209.6261,
      "duration": 0.117,
      "velocity": 109,
      "chip": "ym2612"
    },
    {
      "channel": 2,
      "note": 65,
      "start": 209.6268,
      "duration": 0.083,
      "velocity": 112,
      "chip": "ym2612"
    },
    {
      "channel": 3,
      "note": 53,
      "start": 209.6275,
      "duration": 0.0491,
      "velocity": 120,
      "chip": "ym2612"
    },
    {
      "channel": 4,
      "note": 65,
      "start": 209.6337,
      "duration": 0.1505,
      "velocity": 112,
      "chip": "ym2612"
    },
    {
      "channel": 1,
      "note": 77,
      "start": 209.777,
      "duration": 0.1177,
      "velocity": 111,
      "chip": "ym2612"
    },
    {
      "channel": 2,
      "note": 65,
      "start": 209.7777,
      "duration": 0.0838,
      "velocity": 112,
      "chip": "ym2612"
    },
    {
      "channel": 3,
      "note": 65,
      "start": 209.7784,
      "duration": 0.0499,
      "velocity": 120,
      "chip": "ym2612"
    },
    {
      "channel": 4,
      "note": 65,
      "start": 209.7854,
      "duration": 0.1505,
      "velocity": 112,
      "chip": "ym2612"
    },
    {
      "channel": 0,
      "note": 40,
      "start": 209.9287,
      "duration": 0.6057,
      "velocity": 127,
      "chip": "ym2612"
    },
    {
      "channel": 1,
      "note": 77,
      "start": 209.9294,
      "duration": 0.117,
      "velocity": 112,
      "chip": "ym2612"
    },
    {
      "channel": 2,
      "note": 65,
      "start": 209.9301,
      "duration": 0.083,
      "velocity": 112,
      "chip": "ym2612"
    },
    {
      "channel": 3,
      "note": 53,
      "start": 209.9309,
      "duration": 0.0491,
      "velocity": 120,
      "chip": "ym2612"
    },
    {
      "channel": 4,
      "note": 65,
      "start": 209.9371,
      "duration": 0.1505,
      "velocity": 112,
      "chip": "ym2612"
    },
    {
      "channel": 1,
      "note": 65,
      "start": 210.0803,
      "duration": 0.1178,
      "velocity": 109,
      "chip": "ym2612"
    },
    {
      "channel": 2,
      "note": 65,
      "start": 210.081,
      "duration": 0.0839,
      "velocity": 112,
      "chip": "ym2612"
    },
    {
      "channel": 3,
      "note": 65,
      "start": 210.0818,
      "duration": 0.0499,
      "velocity": 120,
      "chip": "ym2612"
    },
    {
      "channel": 4,
      "note": 65,
      "start": 210.0887,
      "duration": 0.1506,
      "velocity": 112,
      "chip": "ym2612"
    },
    {
      "channel": 1,
      "note": 77,
      "start": 210.232,
      "duration": 0.1178,
      "velocity": 108,
      "chip": "ym2612"
    },
    {
      "channel": 2,
      "note": 65,
      "start": 210.2327,
      "duration": 0.0839,
      "velocity": 112,
      "chip": "ym2612"
    },
    {
      "channel": 3,
      "note": 53,
      "start": 210.2334,
      "duration": 0.0499,
      "velocity": 120,
      "chip": "ym2612"
    },
    {
      "channel": 4,
      "note": 65,
      "start": 210.2398,
      "duration": 0.1512,
      "velocity": 112,
      "chip": "ym2612"
    },
    {
      "channel": 1,
      "note": 65,
      "start": 210.3837,
      "duration": 0.1178,
      "velocity": 112,
      "chip": "ym2612"
    },
    {
      "channel": 2,
      "note": 65,
      "start": 210.3844,
      "duration": 0.0838,
      "velocity": 112,
      "chip": "ym2612"
    },
    {
      "channel": 3,
      "note": 53,
      "start": 210.3852,
      "duration": 0.0499,
      "velocity": 120,
      "chip": "ym2612"
    },
    {
      "channel": 4,
      "note": 65,
      "start": 210.3921,
      "duration": 0.1505,
      "velocity": 112,
      "chip": "ym2612"
    },
    {
      "channel": 0,
      "note": 40,
      "start": 210.5349,
      "duration": 0.3029,
      "velocity": 127,
      "chip": "ym2612"
    },
    {
      "channel": 1,
      "note": 65,
      "start": 210.5356,
      "duration": 0.1175,
      "velocity": 111,
      "chip": "ym2612"
    },
    {
      "channel": 2,
      "note": 65,
      "start": 210.5363,
      "duration": 0.0836,
      "velocity": 112,
      "chip": "ym2612"
    },
    {
      "channel": 3,
      "note": 65,
      "start": 210.5371,
      "duration": 0.0497,
      "velocity": 120,
      "chip": "ym2612"
    },
    {
      "channel": 4,
      "note": 65,
      "start": 210.5437,
      "duration": 0.1506,
      "velocity": 112,
      "chip": "ym2612"
    },
    {
      "channel": 1,
      "note": 77,
      "start": 210.687,
      "duration": 0.1178,
      "velocity": 109,
      "chip": "ym2612"
    },
    {
      "channel": 2,
      "note": 65,
      "start": 210.6877,
      "duration": 0.0838,
      "velocity": 112,
      "chip": "ym2612"
    },
    {
      "channel": 3,
      "note": 53,
      "start": 210.6885,
      "duration": 0.05,
      "velocity": 120,
      "chip": "ym2612"
    },
    {
      "channel": 4,
      "note": 65,
      "start": 210.6955,
      "duration": 0.1505,
      "velocity": 112,
      "chip": "ym2612"
    },
    {
      "channel": 0,
      "note": 41,
      "start": 210.8388,
      "duration": 0.3022,
      "velocity": 123,
      "chip": "ym2612"
    },
    {
      "channel": 1,
      "note": 65,
      "start": 210.8395,
      "duration": 0.1169,
      "velocity": 111,
      "chip": "ym2612"
    },
    {
      "channel": 2,
      "note": 65,
      "start": 210.8402,
      "duration": 0.083,
      "velocity": 112,
      "chip": "ym2612"
    },
    {
      "channel": 3,
      "note": 53,
      "start": 210.841,
      "duration": 0.0492,
      "velocity": 120,
      "chip": "ym2612"
    },
    {
      "channel": 4,
      "note": 65,
      "start": 210.8471,
      "duration": 0.1505,
      "velocity": 112,
      "chip": "ym2612"
    },
    {
      "channel": 1,
      "note": 65,
      "start": 210.9904,
      "duration": 0.1178,
      "velocity": 112,
      "chip": "ym2612"
    },
    {
      "channel": 2,
      "note": 65,
      "start": 210.9911,
      "duration": 0.0839,
      "velocity": 112,
      "chip": "ym2612"
    },
    {
      "channel": 3,
      "note": 65,
      "start": 210.9919,
      "duration": 0.0499,
      "velocity": 120,
      "chip": "ym2612"
    },
    {
      "channel": 4,
      "note": 65,
      "start": 210.9988,
      "duration": 0.1505,
      "velocity": 112,
      "chip": "ym2612"
    },
    {
      "channel": 0,
      "note": 40,
      "start": 211.1422,
      "duration": 0.3022,
      "velocity": 127,
      "chip": "ym2612"
    },
    {
      "channel": 1,
      "note": 65,
      "start": 211.1429,
      "duration": 0.117,
      "velocity": 108,
      "chip": "ym2612"
    },
    {
      "channel": 2,
      "note": 65,
      "start": 211.1436,
      "duration": 0.0831,
      "velocity": 112,
      "chip": "ym2612"
    },
    {
      "channel": 3,
      "note": 53,
      "start": 211.1443,
      "duration": 0.0492,
      "velocity": 120,
      "chip": "ym2612"
    },
    {
      "channel": 4,
      "note": 65,
      "start": 211.1505,
      "duration": 0.1505,
      "velocity": 112,
      "chip": "ym2612"
    },
    {
      "channel": 5,
      "note": 7,
      "start": 211.1512,
      "duration": 2.4265,
      "velocity": 1,
      "chip": "ym2612"
    },
    {
      "channel": 1,
      "note": 77,
      "start": 211.2937,
      "duration": 0.1178,
      "velocity": 109,
      "chip": "ym2612"
    },
    {
      "channel": 2,
      "note": 65,
      "start": 211.2944,
      "duration": 0.0839,
      "velocity": 112,
      "chip": "ym2612"
    },
    {
      "channel": 3,
      "note": 65,
      "start": 211.2952,
      "duration": 0.0499,
      "velocity": 120,
      "chip": "ym2612"
    },
    {
      "channel": 4,
      "note": 65,
      "start": 211.3022,
      "duration": 0.1506,
      "velocity": 112,
      "chip": "ym2612"
    },
    {
      "channel": 0,
      "note": 41,
      "start": 211.4456,
      "duration": 0.3022,
      "velocity": 123,
      "chip": "ym2612"
    },
    {
      "channel": 1,
      "note": 77,
      "start": 211.4462,
      "duration": 0.117,
      "velocity": 110,
      "chip": "ym2612"
    },
    {
      "channel": 2,
      "note": 65,
      "start": 211.4469,
      "duration": 0.083,
      "velocity": 112,
      "chip": "ym2612"
    },
    {
      "channel": 3,
      "note": 53,
      "start": 211.4477,
      "duration": 0.0492,
      "velocity": 120,
      "chip": "ym2612"
    },
    {
      "channel": 4,
      "note": 65,
      "start": 211.4539,
      "duration": 0.1505,
      "velocity": 112,
      "chip": "ym2612"
    },
    {
      "channel": 1,
      "note": 65,
      "start": 211.5971,
      "duration": 0.1178,
      "velocity": 111,
      "chip": "ym2612"
    },
    {
      "channel": 2,
      "note": 65,
      "start": 211.5978,
      "duration": 0.0838,
      "velocity": 112,
      "chip": "ym2612"
    },
    {
      "channel": 3,
      "note": 53,
      "start": 211.5986,
      "duration": 0.05,
      "velocity": 120,
      "chip": "ym2612"
    },
    {
      "channel": 4,
      "note": 65,
      "start": 211.6055,
      "duration": 0.1506,
      "velocity": 112,
      "chip": "ym2612"
    },
    {
      "channel": 0,
      "note": 40,
      "start": 211.7489,
      "duration": 0.6057,
      "velocity": 127,
      "chip": "ym2612"
    },
    {
      "channel": 1,
      "note": 77,
      "start": 211.7496,
      "duration": 0.117,
      "velocity": 108,
      "chip": "ym2612"
    },
    {
      "channel": 2,
      "note": 65,
      "start": 211.7503,
      "duration": 0.083,
      "velocity": 112,
      "chip": "ym2612"
    },
    {
      "channel": 3,
      "note": 65,
      "start": 211.7511,
      "duration": 0.0491,
      "velocity": 120,
      "chip": "ym2612"
    },
    {
      "channel": 4,
      "note": 65,
      "start": 211.7567,
      "duration": 0.1511,
      "velocity": 112,
      "chip": "ym2612"
    },
    {
      "channel": 1,
      "note": 65,
      "start": 211.9005,
      "duration": 0.1177,
      "velocity": 109,
      "chip": "ym2612"
    },
    {
      "channel": 2,
      "note": 65,
      "start": 211.9012,
      "duration": 0.0839,
      "velocity": 112,
      "chip": "ym2612"
    },
    {
      "channel": 3,
      "note": 53,
      "start": 211.902,
      "duration": 0.0499,
      "velocity": 120,
      "chip": "ym2612"
    },
    {
      "channel": 4,
      "note": 65,
      "start": 211.9089,
      "duration": 0.1505,
      "velocity": 112,
      "chip": "ym2612"
    },
    {
      "channel": 1,
      "note": 65,
      "start": 212.0522,
      "duration": 0.1178,
      "velocity": 112,
      "chip": "ym2612"
    },
    {
      "channel": 2,
      "note": 65,
      "start": 212.0528,
      "duration": 0.0839,
      "velocity": 112,
      "chip": "ym2612"
    },
    {
      "channel": 3,
      "note": 53,
      "start": 212.0536,
      "duration": 0.0499,
      "velocity": 120,
      "chip": "ym2612"
    },
    {
      "channel": 4,
      "note": 65,
      "start": 212.0606,
      "duration": 0.1505,
      "velocity": 112,
      "chip": "ym2612"
    },
    {
      "channel": 1,
      "note": 77,
      "start": 212.2039,
      "duration": 0.1178,
      "velocity": 110,
      "chip": "ym2612"
    },
    {
      "channel": 2,
      "note": 65,
      "start": 212.2046,
      "duration": 0.0839,
      "velocity": 112,
      "chip": "ym2612"
    },
    {
      "channel": 3,
      "note": 65,
      "start": 212.2053,
      "duration": 0.0499,
      "velocity": 120,
      "chip": "ym2612"
    },
    {
      "channel": 4,
      "note": 65,
      "start": 212.2123,
      "duration": 0.1505,
      "velocity": 112,
      "chip": "ym2612"
    },
    {
      "channel": 0,
      "note": 40,
      "start": 212.3551,
      "duration": 0.3029,
      "velocity": 127,
      "chip": "ym2612"
    },
    {
      "channel": 1,
      "note": 77,
      "start": 212.3558,
      "duration": 0.1175,
      "velocity": 111,
      "chip": "ym2612"
    },
    {
      "channel": 2,
      "note": 65,
      "start": 212.3565,
      "duration": 0.0837,
      "velocity": 112,
      "chip": "ym2612"
    },
    {
      "channel": 3,
      "note": 53,
      "start": 212.3572,
      "duration": 0.0498,
      "velocity": 120,
      "chip": "ym2612"
    },
    {
      "channel": 4,
      "note": 65,
      "start": 212.364,
      "duration": 0.1505,
      "velocity": 112,
      "chip": "ym2612"
    },
    {
      "channel": 1,
      "note": 65,
      "start": 212.5072,
      "duration": 0.1178,
      "velocity": 108,
      "chip": "ym2612"
    },
    {
      "channel": 2,
      "note": 65,
      "start": 212.5079,
      "duration": 0.0838,
      "velocity": 112,
      "chip": "ym2612"
    },
    {
      "channel": 3,
      "note": 65,
      "start": 212.5087,
      "duration": 0.0499,
      "velocity": 120,
      "chip": "ym2612"
    },
    {
      "channel": 4,
      "note": 65,
      "start": 212.5156,
      "duration": 0.1505,
      "velocity": 112,
      "chip": "ym2612"
    },
    {
      "channel": 0,
      "note": 41,
      "start": 212.659,
      "duration": 0.3023,
      "velocity": 123,
      "chip": "ym2612"
    },
    {
      "channel": 1,
      "note": 77,
      "start": 212.6597,
      "duration": 0.1169,
      "velocity": 109,
      "chip": "ym2612"
    },
    {
      "channel": 2,
      "note": 65,
      "start": 212.6604,
      "duration": 0.083,
      "velocity": 112,
      "chip": "ym2612"
    },
    {
      "channel": 3,
      "note": 53,
      "start": 212.6612,
      "duration": 0.0491,
      "velocity": 120,
      "chip": "ym2612"
    },
    {
      "channel": 4,
      "note": 65,
      "start": 212.6673,
      "duration": 0.1506,
      "velocity": 112,
      "chip": "ym2612"
    },
    {
      "channel": 1,
      "note": 65,
      "start": 212.8105,
      "duration": 0.1178,
      "velocity": 112,
      "chip": "ym2612"
    },
    {
      "channel": 2,
      "note": 65,
      "start": 212.8112,
      "duration": 0.0838,
      "velocity": 112,
      "chip": "ym2612"
    },
    {
      "channel": 3,
      "note": 53,
      "start": 212.812,
      "duration": 0.05,
      "velocity": 120,
      "chip": "ym2612"
    },
    {
      "channel": 4,
      "note": 65,
      "start": 212.819,
      "duration": 0.1505,
      "velocity": 112,
      "chip": "ym2612"
    },
    {
      "channel": 0,
      "note": 40,
      "start": 212.9624,
      "duration": 0.6057,
      "velocity": 127,
      "chip": "ym2612"
    },
    {
      "channel": 1,
      "note": 77,
      "start": 212.9631,
      "duration": 0.1169,
      "velocity": 110,
      "chip": "ym2612"
    },
    {
      "channel": 2,
      "note": 65,
      "start": 212.9638,
      "duration": 0.083,
      "velocity": 112,
      "chip": "ym2612"
    },
    {
      "channel": 3,
      "note": 65,
      "start": 212.9646,
      "duration": 0.0491,
      "velocity": 120,
      "chip": "ym2612"
    },
    {
      "channel": 4,
      "note": 65,
      "start": 212.9707,
      "duration": 0.1506,
      "velocity": 112,
      "chip": "ym2612"
    },
    {
      "channel": 1,
      "note": 65,
      "start": 213.1139,
      "duration": 0.1177,
      "velocity": 108,
      "chip": "ym2612"
    },
    {
      "channel": 2,
      "note": 65,
      "start": 213.1146,
      "duration": 0.0839,
      "velocity": 112,
      "chip": "ym2612"
    },
    {
      "channel": 3,
      "note": 53,
      "start": 213.1154,
      "duration": 0.0499,
      "velocity": 120,
      "chip": "ym2612"
    },
    {
      "channel": 4,
      "note": 65,
      "start": 213.1218,
      "duration": 0.1511,
      "velocity": 112,
      "chip": "ym2612"
    },
    {
      "channel": 1,
      "note": 65,
      "start": 213.2656,
      "duration": 0.1178,
      "velocity": 109,
      "chip": "ym2612"
    },
    {
      "channel": 2,
      "note": 65,
      "start": 213.2663,
      "duration": 0.0839,
      "velocity": 112,
      "chip": "ym2612"
    },
    {
      "channel": 3,
      "note": 65,
      "start": 213.2671,
      "duration": 0.0499,
      "velocity": 120,
      "chip": "ym2612"
    },
    {
      "channel": 4,
      "note": 65,
      "start": 213.2741,
      "duration": 0.1505,
      "velocity": 112,
      "chip": "ym2612"
    },
    {
      "channel": 1,
      "note": 77,
      "start": 213.4173,
      "duration": 0.1178,
      "velocity": 112,
      "chip": "ym2612"
    },
    {
      "channel": 2,
      "note": 65,
      "start": 213.418,
      "duration": 0.0839,
      "velocity": 112,
      "chip": "ym2612"
    },
    {
      "channel": 3,
      "note": 65,
      "start": 213.4188,
      "duration": 0.0499,
      "velocity": 120,
      "chip": "ym2612"
    },
    {
      "channel": 4,
      "note": 65,
      "start": 213.4257,
      "duration": 0.1505,
      "velocity": 112,
      "chip": "ym2612"
    },
    {
      "channel": 0,
      "note": 40,
      "start": 213.5685,
      "duration": 0.3028,
      "velocity": 127,
      "chip": "ym2612"
    },
    {
      "channel": 1,
      "note": 70,
      "start": 213.5692,
      "duration": 0.1176,
      "velocity": 108,
      "chip": "ym2612"
    },
    {
      "channel": 2,
      "note": 65,
      "start": 213.5699,
      "duration": 0.0836,
      "velocity": 112,
      "chip": "ym2612"
    },
    {
      "channel": 3,
      "note": 50,
      "start": 213.5707,
      "duration": 0.0497,
      "velocity": 120,
      "chip": "ym2612"
    },
    {
      "channel": 4,
      "note": 62,
      "start": 213.5774,
      "duration": 0.1505,
      "velocity": 112,
      "chip": "ym2612"
    },
    {
      "channel": 5,
      "note": 7,
      "start": 213.5781,
      "duration": 2.4265,
      "velocity": 1,
      "chip": "ym2612"
    },
    {
      "channel": 1,
      "note": 82,
      "start": 213.7207,
      "duration": 0.1178,
      "velocity": 108,
      "chip": "ym2612"
    },
    {
      "channel": 2,
      "note": 65,
      "start": 213.7214,
      "duration": 0.0838,
      "velocity": 112,
      "chip": "ym2612"
    },
    {
      "channel": 3,
      "note": 62,
      "start": 213.7221,
      "duration": 0.05,
      "velocity": 120,
      "chip": "ym2612"
    },
    {
      "channel": 4,
      "note": 62,
      "start": 213.729,
      "duration": 0.1505,
      "velocity": 112,
      "chip": "ym2612"
    },
    {
      "channel": 0,
      "note": 41,
      "start": 213.8724,
      "duration": 0.3023,
      "velocity": 123,
      "chip": "ym2612"
    },
    {
      "channel": 1,
      "note": 82,
      "start": 213.8731,
      "duration": 0.117,
      "velocity": 112,
      "chip": "ym2612"
    },
    {
      "channel": 2,
      "note": 65,
      "start": 213.8739,
      "duration": 0.083,
      "velocity": 112,
      "chip": "ym2612"
    },
    {
      "channel": 3,
      "note": 50,
      "start": 213.8747,
      "duration": 0.0491,
      "velocity": 120,
      "chip": "ym2612"
    },
    {
      "channel": 4,
      "note": 62,
      "start": 213.8808,
      "duration": 0.1505,
      "velocity": 112,
      "chip": "ym2612"
    },
    {
      "channel": 1,
      "note": 70,
      "start": 214.024,
      "duration": 0.1177,
      "velocity": 109,
      "chip": "ym2612"
    },
    {
      "channel": 2,
      "note": 65,
      "start": 214.0247,
      "duration": 0.0839,
      "velocity": 112,
      "chip": "ym2612"
    },
    {
      "channel": 3,
      "note": 50,
      "start": 214.0255,
      "duration": 0.05,
      "velocity": 120,
      "chip": "ym2612"
    },
    {
      "channel": 4,
      "note": 62,
      "start": 214.0324,
      "duration": 0.1505,
      "velocity": 112,
      "chip": "ym2612"
    },
    {
      "channel": 0,
      "note": 40,
      "start": 214.1758,
      "duration": 0.3023,
      "velocity": 127,
      "chip": "ym2612"
    },
    {
      "channel": 1,
      "note": 82,
      "start": 214.1765,
      "duration": 0.1169,
      "velocity": 108,
      "chip": "ym2612"
    },
    {
      "channel": 2,
      "note": 65,
      "start": 214.1772,
      "duration": 0.083,
      "velocity": 112,
      "chip": "ym2612"
    },
    {
      "channel": 3,
      "note": 62,
      "start": 214.178,
      "duration": 0.0491,
      "velocity": 120,
      "chip": "ym2612"
    },
    {
      "channel": 4,
      "note": 62,
      "start": 214.1841,
      "duration": 0.1505,
      "velocity": 112,
      "chip": "ym2612"
    },
    {
      "channel": 1,
      "note": 70,
      "start": 214.3274,
      "duration": 0.1178,
      "velocity": 110,
      "chip": "ym2612"
    },
    {
      "channel": 2,
      "note": 65,
      "start": 214.3281,
      "duration": 0.0839,
      "velocity": 112,
      "chip": "ym2612"
    },
    {
      "channel": 3,
      "note": 50,
      "start": 214.3289,
      "duration": 0.0499,
      "velocity": 120,
      "chip": "ym2612"
    },
    {
      "channel": 4,
      "note": 62,
      "start": 214.3358,
      "duration": 0.1505,
      "velocity": 112,
      "chip": "ym2612"
    },
    {
      "channel": 0,
      "note": 41,
      "start": 214.4792,
      "duration": 0.3023,
      "velocity": 123,
      "chip": "ym2612"
    },
    {
      "channel": 1,
      "note": 70,
      "start": 214.4799,
      "duration": 0.1169,
      "velocity": 109,
      "chip": "ym2612"
    },
    {
      "channel": 2,
      "note": 65,
      "start": 214.4806,
      "duration": 0.083,
      "velocity": 112,
      "chip": "ym2612"
    },
    {
      "channel": 3,
      "note": 50,
      "start": 214.4813,
      "duration": 0.0491,
      "velocity": 120,
      "chip": "ym2612"
    },
    {
      "channel": 4,
      "note": 62,
      "start": 214.4875,
      "duration": 0.1506,
      "velocity": 112,
      "chip": "ym2612"
    },
    {
      "channel": 1,
      "note": 82,
      "start": 214.6307,
      "duration": 0.1178,
      "velocity": 111,
      "chip": "ym2612"
    },
    {
      "channel": 2,
      "note": 65,
      "start": 214.6314,
      "duration": 0.0838,
      "velocity": 112,
      "chip": "ym2612"
    },
    {
      "channel": 3,
      "note": 62,
      "start": 214.6322,
      "duration": 0.0499,
      "velocity": 120,
      "chip": "ym2612"
    },
    {
      "channel": 4,
      "note": 62,
      "start": 214.6392,
      "duration": 0.1505,
      "velocity": 112,
      "chip": "ym2612"
    },
    {
      "channel": 0,
      "note": 40,
      "start": 214.7826,
      "duration": 0.6056,
      "velocity": 127,
      "chip": "ym2612"
    },
    {
      "channel": 1,
      "note": 82,
      "start": 214.7832,
      "duration": 0.1169,
      "velocity": 112,
      "chip": "ym2612"
    },
    {
      "channel": 2,
      "note": 65,
      "start": 214.7839,
      "duration": 0.083,
      "velocity": 112,
      "chip": "ym2612"
    },
    {
      "channel": 3,
      "note": 50,
      "start": 214.7847,
      "duration": 0.0491,
      "velocity": 120,
      "chip": "ym2612"
    },
    {
      "channel": 4,
      "note": 62,
      "start": 214.7909,
      "duration": 0.1505,
      "velocity": 112,
      "chip": "ym2612"
    },
    {
      "channel": 1,
      "note": 70,
      "start": 214.9341,
      "duration": 0.1178,
      "velocity": 109,
      "chip": "ym2612"
    },
    {
      "channel": 2,
      "note": 65,
      "start": 214.9348,
      "duration": 0.0838,
      "velocity": 112,
      "chip": "ym2612"
    },
    {
      "channel": 3,
      "note": 62,
      "start": 214.9355,
      "duration": 0.05,
      "velocity": 120,
      "chip": "ym2612"
    },
    {
      "channel": 4,
      "note": 62,
      "start": 214.9425,
      "duration": 0.1505,
      "velocity": 112,
      "chip": "ym2612"
    },
    {
      "channel": 1,
      "note": 82,
      "start": 215.0858,
      "duration": 0.1177,
      "velocity": 108,
      "chip": "ym2612"
    },
    {
      "channel": 2,
      "note": 65,
      "start": 215.0865,
      "duration": 0.0839,
      "velocity": 112,
      "chip": "ym2612"
    },
    {
      "channel": 3,
      "note": 50,
      "start": 215.0873,
      "duration": 0.0499,
      "velocity": 120,
      "chip": "ym2612"
    },
    {
      "channel": 4,
      "note": 62,
      "start": 215.0936,
      "duration": 0.1511,
      "velocity": 112,
      "chip": "ym2612"
    },
    {
      "channel": 1,
      "note": 70,
      "start": 215.2375,
      "duration": 0.1177,
      "velocity": 112,
      "chip": "ym2612"
    },
    {
      "channel": 2,
      "note": 65,
      "start": 215.2381,
      "duration": 0.0839,
      "velocity": 112,
      "chip": "ym2612"
    },
    {
      "channel": 3,
      "note": 50,
      "start": 215.2389,
      "duration": 0.0499,
      "velocity": 120,
      "chip": "ym2612"
    },
    {
      "channel": 4,
      "note": 62,
      "start": 215.2459,
      "duration": 0.1505,
      "velocity": 112,
      "chip": "ym2612"
    },
    {
      "channel": 0,
      "note": 40,
      "start": 215.3887,
      "duration": 0.3028,
      "velocity": 127,
      "chip": "ym2612"
    },
    {
      "channel": 1,
      "note": 70,
      "start": 215.3894,
      "duration": 0.1176,
      "velocity": 111,
      "chip": "ym2612"
    },
    {
      "channel": 2,
      "note": 65,
      "start": 215.3901,
      "duration": 0.0837,
      "velocity": 112,
      "chip": "ym2612"
    },
    {
      "channel": 3,
      "note": 62,
      "start": 215.3909,
      "duration": 0.0497,
      "velocity": 120,
      "chip": "ym2612"
    },
    {
      "channel": 4,
      "note": 62,
      "start": 215.3976,
      "duration": 0.1505,
      "velocity": 112,
      "chip": "ym2612"
    },
    {
      "channel": 1,
      "note": 82,
      "start": 215.5409,
      "duration": 0.1177,
      "velocity": 109,
      "chip": "ym2612"
    },
    {
      "channel": 2,
      "note": 65,
      "start": 215.5416,
      "duration": 0.0838,
      "velocity": 112,
      "chip": "ym2612"
    },
    {
      "channel": 3,
      "note": 50,
      "start": 215.5424,
      "duration": 0.0499,
      "velocity": 120,
      "chip": "ym2612"
    },
    {
      "channel": 4,
      "note": 62,
      "start": 215.5492,
      "duration": 0.1506,
      "velocity": 112,
      "chip": "ym2612"
    },
    {
      "channel": 0,
      "note": 41,
      "start": 215.6926,
      "duration": 0.3023,
      "velocity": 123,
      "chip": "ym2612"
    },
    {
      "channel": 1,
      "note": 70,
      "start": 215.6933,
      "duration": 0.117,
      "velocity": 111,
      "chip": "ym2612"
    },
    {
      "channel": 2,
      "note": 65,
      "start": 215.694,
      "duration": 0.083,
      "velocity": 112,
      "chip": "ym2612"
    },
    {
      "channel": 3,
      "note": 50,
      "start": 215.6948,
      "duration": 0.0491,
      "velocity": 120,
      "chip": "ym2612"
    },
    {
      "channel": 4,
      "note": 62,
      "start": 215.7009,
      "duration": 0.1505,
      "velocity": 112,
      "chip": "ym2612"
    },
    {
      "channel": 1,
      "note": 70,
      "start": 215.8442,
      "duration": 0.1178,
      "velocity": 112,
      "chip": "ym2612"
    },
    {
      "channel": 2,
      "note": 65,
      "start": 215.8449,
      "duration": 0.0838,
      "velocity": 112,
      "chip": "ym2612"
    },
    {
      "channel": 3,
      "note": 62,
      "start": 215.8456,
      "duration": 0.05,
      "velocity": 120,
      "chip": "ym2612"
    },
    {
      "channel": 4,
      "note": 62,
      "start": 215.8526,
      "duration": 0.1505,
      "velocity": 112,
      "chip": "ym2612"
    },
    {
      "channel": 0,
      "note": 40,
      "start": 215.996,
      "duration": 0.3023,
      "velocity": 127,
      "chip": "ym2612"
    },
    {
      "channel": 1,
      "note": 70,
      "start": 215.9967,
      "duration": 0.117,
      "velocity": 108,
      "chip": "ym2612"
    },
    {
      "channel": 2,
      "note": 65,
      "start": 215.9974,
      "duration": 0.083,
      "velocity": 112,
      "chip": "ym2612"
    },
    {
      "channel": 3,
      "note": 50,
      "start": 215.9981,
      "duration": 0.0491,
      "velocity": 120,
      "chip": "ym2612"
    },
    {
      "channel": 4,
      "note": 62,
      "start": 216.0043,
      "duration": 0.1505,
      "velocity": 112,
      "chip": "ym2612"
    },
    {
      "channel": 5,
      "note": 7,
      "start": 216.005,
      "duration": 2.4264,
      "velocity": 1,
      "chip": "ym2612"
    },
    {
      "channel": 1,
      "note": 82,
      "start": 216.1476,
      "duration": 0.1177,
      "velocity": 109,
      "chip": "ym2612"
    },
    {
      "channel": 2,
      "note": 65,
      "start": 216.1483,
      "duration": 0.0839,
      "velocity": 112,
      "chip": "ym2612"
    },
    {
      "channel": 3,
      "note": 62,
      "start": 216.149,
      "duration": 0.0499,
      "velocity": 120,
      "chip": "ym2612"
    },
    {
      "channel": 4,
      "note": 62,
      "start": 216.156,
      "duration": 0.1505,
      "velocity": 112,
      "chip": "ym2612"
    },
    {
      "channel": 0,
      "note": 41,
      "start": 216.2993,
      "duration": 0.3023,
      "velocity": 123,
      "chip": "ym2612"
    },
    {
      "channel": 1,
      "note": 82,
      "start": 216.3,
      "duration": 0.1169,
      "velocity": 110,
      "chip": "ym2612"
    },
    {
      "channel": 2,
      "note": 65,
      "start": 216.3007,
      "duration": 0.083,
      "velocity": 112,
      "chip": "ym2612"
    },
    {
      "channel": 3,
      "note": 50,
      "start": 216.3015,
      "duration": 0.0491,
      "velocity": 120,
      "chip": "ym2612"
    },
    {
      "channel": 4,
      "note": 62,
      "start": 216.3077,
      "duration": 0.1505,
      "velocity": 112,
      "chip": "ym2612"
    },
    {
      "channel": 1,
      "note": 70,
      "start": 216.4509,
      "duration": 0.1178,
      "velocity": 111,
      "chip": "ym2612"
    },
    {
      "channel": 2,
      "note": 65,
      "start": 216.4516,
      "duration": 0.0838,
      "velocity": 112,
      "chip": "ym2612"
    },
    {
      "channel": 3,
      "note": 50,
      "start": 216.4524,
      "duration": 0.0499,
      "velocity": 120,
      "chip": "ym2612"
    },
    {
      "channel": 4,
      "note": 62,
      "start": 216.4593,
      "duration": 0.1506,
      "velocity": 112,
      "chip": "ym2612"
    },
    {
      "channel": 0,
      "note": 40,
      "start": 216.6027,
      "duration": 0.6056,
      "velocity": 127,
      "chip": "ym2612"
    },
    {
      "channel": 1,
      "note": 82,
      "start": 216.6034,
      "duration": 0.1169,
      "velocity": 108,
      "chip": "ym2612"
    },
    {
      "channel": 2,
      "note": 65,
      "start": 216.6041,
      "duration": 0.083,
      "velocity": 112,
      "chip": "ym2612"
    },
    {
      "channel": 3,
      "note": 62,
      "start": 216.6049,
      "duration": 0.0491,
      "velocity": 120,
      "chip": "ym2612"
    },
    {
      "channel": 4,
      "note": 62,
      "start": 216.6104,
      "duration": 0.1512,
      "velocity": 112,
      "chip": "ym2612"
    },
    {
      "channel": 1,
      "note": 70,
      "start": 216.7543,
      "duration": 0.1178,
      "velocity": 109,
      "chip": "ym2612"
    },
    {
      "channel": 2,
      "note": 65,
      "start": 216.755,
      "duration": 0.0838,
      "velocity": 112,
      "chip": "ym2612"
    },
    {
      "channel": 3,
      "note": 50,
      "start": 216.7558,
      "duration": 0.0499,
      "velocity": 120,
      "chip": "ym2612"
    },
    {
      "channel": 4,
      "note": 62,
      "start": 216.7627,
      "duration": 0.1505,
      "velocity": 112,
      "chip": "ym2612"
    },
    {
      "channel": 1,
      "note": 70,
      "start": 216.906,
      "duration": 0.1178,
      "velocity": 112,
      "chip": "ym2612"
    },
    {
      "channel": 2,
      "note": 65,
      "start": 216.9067,
      "duration": 0.0839,
      "velocity": 112,
      "chip": "ym2612"
    },
    {
      "channel": 3,
      "note": 50,
      "start": 216.9074,
      "duration": 0.05,
      "velocity": 120,
      "chip": "ym2612"
    },
    {
      "channel": 4,
      "note": 62,
      "start": 216.9144,
      "duration": 0.1505,
      "velocity": 112,
      "chip": "ym2612"
    },
    {
      "channel": 1,
      "note": 82,
      "start": 217.0577,
      "duration": 0.1177,
      "velocity": 110,
      "chip": "ym2612"
    },
    {
      "channel": 2,
      "note": 65,
      "start": 217.0584,
      "duration": 0.0838,
      "velocity": 112,
      "chip": "ym2612"
    },
    {
      "channel": 3,
      "note": 62,
      "start": 217.0591,
      "duration": 0.0499,
      "velocity": 120,
      "chip": "ym2612"
    },
    {
      "channel": 4,
      "note": 62,
      "start": 217.0661,
      "duration": 0.1505,
      "velocity": 112,
      "chip": "ym2612"
    },
    {
      "channel": 0,
      "note": 40,
      "start": 217.2089,
      "duration": 0.3028,
      "velocity": 127,
      "chip": "ym2612"
    },
    {
      "channel": 1,
      "note": 82,
      "start": 217.2095,
      "duration": 0.1176,
      "velocity": 111,
      "chip": "ym2612"
    },
    {
      "channel": 2,
      "note": 65,
      "start": 217.2102,
      "duration": 0.0837,
      "velocity": 112,
      "chip": "ym2612"
    },
    {
      "channel": 3,
      "note": 50,
      "start": 217.211,
      "duration": 0.0497,
      "velocity": 120,
      "chip": "ym2612"
    },
    {
      "channel": 4,
      "note": 62,
      "start": 217.2177,
      "duration": 0.1505,
      "velocity": 112,
      "chip": "ym2612"
    },
    {
      "channel": 1,
      "note": 70,
      "start": 217.361,
      "duration": 0.1177,
      "velocity": 108,
      "chip": "ym2612"
    },
    {
      "channel": 2,
      "note": 65,
      "start": 217.3617,
      "duration": 0.0839,
      "velocity": 112,
      "chip": "ym2612"
    },
    {
      "channel": 3,
      "note": 62,
      "start": 217.3624,
      "duration": 0.0499,
      "velocity": 120,
      "chip": "ym2612"
    },
    {
      "channel": 4,
      "note": 62,
      "start": 217.3695,
      "duration": 0.1505,
      "velocity": 112,
      "chip": "ym2612"
    },
    {
      "channel": 0,
      "note": 41,
      "start": 217.5128,
      "duration": 0.3022,
      "velocity": 123,
      "chip": "ym2612"
    },
    {
      "channel": 1,
      "note": 82,
      "start": 217.5135,
      "duration": 0.117,
      "velocity": 109,
      "chip": "ym2612"
    },
    {
      "channel": 2,
      "note": 65,
      "start": 217.5142,
      "duration": 0.083,
      "velocity": 112,
      "chip": "ym2612"
    },
    {
      "channel": 3,
      "note": 50,
      "start": 217.5149,
      "duration": 0.0492,
      "velocity": 120,
      "chip": "ym2612"
    },
    {
      "channel": 4,
      "note": 62,
      "start": 217.5211,
      "duration": 0.1505,
      "velocity": 112,
      "chip": "ym2612"
    },
    {
      "channel": 1,
      "note": 70,
      "start": 217.6644,
      "duration": 0.1178,
      "velocity": 112,
      "chip": "ym2612"
    },
    {
      "channel": 2,
      "note": 65,
      "start": 217.6651,
      "duration": 0.0838,
      "velocity": 112,
      "chip": "ym2612"
    },
    {
      "channel": 3,
      "note": 50,
      "start": 217.6658,
      "duration": 0.0499,
      "velocity": 120,
      "chip": "ym2612"
    },
    {
      "channel": 4,
      "note": 62,
      "start": 217.6728,
      "duration": 0.1506,
      "velocity": 112,
      "chip": "ym2612"
    },
    {
      "channel": 0,
      "note": 40,
      "start": 217.8161,
      "duration": 0.6057,
      "velocity": 127,
      "chip": "ym2612"
    },
    {
      "channel": 1,
      "note": 82,
      "start": 217.8168,
      "duration": 0.117,
      "velocity": 110,
      "chip": "ym2612"
    },
    {
      "channel": 2,
      "note": 65,
      "start": 217.8175,
      "duration": 0.083,
      "velocity": 112,
      "chip": "ym2612"
    },
    {
      "channel": 3,
      "note": 62,
      "start": 217.8183,
      "duration": 0.0491,
      "velocity": 120,
      "chip": "ym2612"
    },
    {
      "channel": 4,
      "note": 62,
      "start": 217.8245,
      "duration": 0.1505,
      "velocity": 112,
      "chip": "ym2612"
    },
    {
      "channel": 1,
      "note": 70,
      "start": 217.9677,
      "duration": 0.1178,
      "velocity": 108,
      "chip": "ym2612"
    },
    {
      "channel": 2,
      "note": 65,
      "start": 217.9684,
      "duration": 0.0838,
      "velocity": 112,
      "chip": "ym2612"
    },
    {
      "channel": 3,
      "note": 50,
      "start": 217.9692,
      "duration": 0.05,
      "velocity": 120,
      "chip": "ym2612"
    },
    {
      "channel": 4,
      "note": 62,
      "start": 217.9756,
      "duration": 0.1511,
      "velocity": 112,
      "chip": "ym2612"
    },
    {
      "channel": 1,
      "note": 70,
      "start": 218.1194,
      "duration": 0.1178,
      "velocity": 109,
      "chip": "ym2612"
    },
    {
      "channel": 2,
      "note": 65,
      "start": 218.1201,
      "duration": 0.0838,
      "velocity": 112,
      "chip": "ym2612"
    },
    {
      "channel": 3,
      "note": 62,
      "start": 218.1208,
      "duration": 0.05,
      "velocity": 120,
      "chip": "ym2612"
    },
    {
      "channel": 4,
      "note": 62,
      "start": 218.1278,
      "duration": 0.1505,
      "velocity": 112,
      "chip": "ym2612"
    },
    {
      "channel": 1,
      "note": 82,
      "start": 218.2711,
      "duration": 0.1177,
      "velocity": 112,
      "chip": "ym2612"
    },
    {
      "channel": 2,
      "note": 65,
      "start": 218.2718,
      "duration": 0.0839,
      "velocity": 112,
      "chip": "ym2612"
    },
    {
      "channel": 3,
      "note": 62,
      "start": 218.2726,
      "duration": 0.0499,
      "velocity": 120,
      "chip": "ym2612"
    },
    {
      "channel": 4,
      "note": 62,
      "start": 218.2795,
      "duration": 0.1505,
      "velocity": 112,
      "chip": "ym2612"
    },
    {
      "channel": 0,
      "note": 40,
      "start": 218.4223,
      "duration": 0.3029,
      "velocity": 127,
      "chip": "ym2612"
    },
    {
      "channel": 1,
      "note": 68,
      "start": 218.423,
      "duration": 0.1176,
      "velocity": 108,
      "chip": "ym2612"
    },
    {
      "channel": 2,
      "note": 65,
      "start": 218.4238,
      "duration": 0.0836,
      "velocity": 112,
      "chip": "ym2612"
    },
    {
      "channel": 3,
      "note": 49,
      "start": 218.4245,
      "duration": 0.0498,
      "velocity": 120,
      "chip": "ym2612"
    },
    {
      "channel": 4,
      "note": 61,
      "start": 218.4312,
      "duration": 0.1505,
      "velocity": 112,
      "chip": "ym2612"
    },
    {
      "channel": 5,
      "note": 7,
      "start": 218.4319,
      "duration": 2.4265,
      "velocity": 1,
      "chip": "ym2612"
    },
    {
      "channel": 1,
      "note": 80,
      "start": 218.5745,
      "duration": 0.1178,
      "velocity": 108,
      "chip": "ym2612"
    },
    {
      "channel": 2,
      "note": 65,
      "start": 218.5752,
      "duration": 0.0838,
      "velocity": 112,
      "chip": "ym2612"
    },
    {
      "channel": 3,
      "note": 61,
      "start": 218.5759,
      "duration": 0.0499,
      "velocity": 120,
      "chip": "ym2612"
    },
    {
      "channel": 4,
      "note": 61,
      "start": 218.5829,
      "duration": 0.1505,
      "velocity": 112,
      "chip": "ym2612"
    },
    {
      "channel": 0,
      "note": 41,
      "start": 218.7263,
      "duration": 0.3023,
      "velocity": 123,
      "chip": "ym2612"
    },
    {
      "channel": 1,
      "note": 80,
      "start": 218.727,
      "duration": 0.1169,
      "velocity": 112,
      "chip": "ym2612"
    },
    {
      "channel": 2,
      "note": 65,
      "start": 218.7277,
      "duration": 0.083,
      "velocity": 112,
      "chip": "ym2612"
    },
    {
      "channel": 3,
      "note": 49,
      "start": 218.7284,
      "duration": 0.0491,
      "velocity": 120,
      "chip": "ym2612"
    },
    {
      "channel": 4,
      "note": 61,
      "start": 218.7345,
      "duration": 0.1506,
      "velocity": 112,
      "chip": "ym2612"
    },
    {
      "channel": 1,
      "note": 68,
      "start": 218.8778,
      "duration": 0.1178,
      "velocity": 109,
      "chip": "ym2612"
    },
    {
      "channel": 2,
      "note": 65,
      "start": 218.8785,
      "duration": 0.0838,
      "velocity": 112,
      "chip": "ym2612"
    },
    {
      "channel": 3,
      "note": 49,
      "start": 218.8793,
      "duration": 0.0499,
      "velocity": 120,
      "chip": "ym2612"
    },
    {
      "channel": 4,
      "note": 61,
      "start": 218.8862,
      "duration": 0.1505,
      "velocity": 112,
      "chip": "ym2612"
    },
    {
      "channel": 0,
      "note": 40,
      "start": 219.0296,
      "duration": 0.3023,
      "velocity": 127,
      "chip": "ym2612"
    },
    {
      "channel": 1,
      "note": 80,
      "start": 219.0303,
      "duration": 0.1169,
      "velocity": 108,
      "chip": "ym2612"
    },
    {
      "channel": 2,
      "note": 65,
      "start": 219.031,
      "duration": 0.083,
      "velocity": 112,
      "chip": "ym2612"
    },
    {
      "channel": 3,
      "note": 61,
      "start": 219.0318,
      "duration": 0.0491,
      "velocity": 120,
      "chip": "ym2612"
    },
    {
      "channel": 4,
      "note": 61,
      "start": 219.0379,
      "duration": 0.1505,
      "velocity": 112,
      "chip": "ym2612"
    },
    {
      "channel": 1,
      "note": 68,
      "start": 219.1812,
      "duration": 0.1178,
      "velocity": 110,
      "chip": "ym2612"
    },
    {
      "channel": 2,
      "note": 65,
      "start": 219.1819,
      "duration": 0.0838,
      "velocity": 112,
      "chip": "ym2612"
    },
    {
      "channel": 3,
      "note": 49,
      "start": 219.1826,
      "duration": 0.05,
      "velocity": 120,
      "chip": "ym2612"
    },
    {
      "channel": 4,
      "note": 61,
      "start": 219.1896,
      "duration": 0.1506,
      "velocity": 112,
      "chip": "ym2612"
    },
    {
      "channel": 0,
      "note": 41,
      "start": 219.333,
      "duration": 0.3022,
      "velocity": 123,
      "chip": "ym2612"
    },
    {
      "channel": 1,
      "note": 68,
      "start": 219.3337,
      "duration": 0.1169,
      "velocity": 109,
      "chip": "ym2612"
    },
    {
      "channel": 2,
      "note": 65,
      "start": 219.3344,
      "duration": 0.083,
      "velocity": 112,
      "chip": "ym2612"
    },
    {
      "channel": 3,
      "note": 49,
      "start": 219.3352,
      "duration": 0.0491,
      "velocity": 120,
      "chip": "ym2612"
    },
    {
      "channel": 4,
      "note": 61,
      "start": 219.3413,
      "duration": 0.1504,
      "velocity": 112,
      "chip": "ym2612"
    },
    {
      "channel": 1,
      "note": 80,
      "start": 219.4845,
      "duration": 0.1178,
      "velocity": 111,
      "chip": "ym2612"
    },
    {
      "channel": 2,
      "note": 65,
      "start": 219.4852,
      "duration": 0.0839,
      "velocity": 112,
      "chip": "ym2612"
    },
    {
      "channel": 3,
      "note": 61,
      "start": 219.486,
      "duration": 0.0499,
      "velocity": 120,
      "chip": "ym2612"
    },
    {
      "channel": 4,
      "note": 61,
      "start": 219.493,
      "duration": 0.1505,
      "velocity": 112,
      "chip": "ym2612"
    },
    {
      "channel": 0,
      "note": 40,
      "start": 219.6364,
      "duration": 0.6057,
      "velocity": 127,
      "chip": "ym2612"
    },
    {
      "channel": 1,
      "note": 80,
      "start": 219.637,
      "duration": 0.117,
      "velocity": 112,
      "chip": "ym2612"
    },
    {
      "channel": 2,
      "note": 65,
      "start": 219.6377,
      "duration": 0.083,
      "velocity": 112,
      "chip": "ym2612"
    },
    {
      "channel": 3,
      "note": 49,
      "start": 219.6385,
      "duration": 0.0492,
      "velocity": 120,
      "chip": "ym2612"
    },
    {
      "channel": 4,
      "note": 61,
      "start": 219.6446,
      "duration": 0.1505,
      "velocity": 112,
      "chip": "ym2612"
    },
    {
      "channel": 1,
      "note": 68,
      "start": 219.7879,
      "duration": 0.1178,
      "velocity": 109,
      "chip": "ym2612"
    },
    {
      "channel": 2,
      "note": 65,
      "start": 219.7886,
      "duration": 0.0838,
      "velocity": 112,
      "chip": "ym2612"
    },
    {
      "channel": 3,
      "note": 61,
      "start": 219.7894,
      "duration": 0.0499,
      "velocity": 120,
      "chip": "ym2612"
    },
    {
      "channel": 4,
      "note": 61,
      "start": 219.7963,
      "duration": 0.1506,
      "velocity": 112,
      "chip": "ym2612"
    },
    {
      "channel": 1,
      "note": 80,
      "start": 219.9395,
      "duration": 0.1178,
      "velocity": 108,
      "chip": "ym2612"
    },
    {
      "channel": 2,
      "note": 65,
      "start": 219.9403,
      "duration": 0.0838,
      "velocity": 112,
      "chip": "ym2612"
    },
    {
      "channel": 3,
      "note": 49,
      "start": 219.9411,
      "duration": 0.05,
      "velocity": 120,
      "chip": "ym2612"
    },
    {
      "channel": 4,
      "note": 61,
      "start": 219.9474,
      "duration": 0.1511,
      "velocity": 112,
      "chip": "ym2612"
    },
    {
      "channel": 1,
      "note": 68,
      "start": 220.0913,
      "duration": 0.1177,
      "velocity": 112,
      "chip": "ym2612"
    },
    {
      "channel": 2,
      "note": 65,
      "start": 220.092,
      "duration": 0.0838,
      "velocity": 112,
      "chip": "ym2612"
    },
    {
      "channel": 3,
      "note": 49,
      "start": 220.0928,
      "duration": 0.0499,
      "velocity": 120,
      "chip": "ym2612"
    },
    {
      "channel": 4,
      "note": 61,
      "start": 220.0997,
      "duration": 0.1505,
      "velocity": 112,
      "chip": "ym2612"
    },
    {
      "channel": 0,
      "note": 40,
      "start": 220.2425,
      "duration": 0.3029,
      "velocity": 127,
      "chip": "ym2612"
    },
    {
      "channel": 1,
      "note": 68,
      "start": 220.2432,
      "duration": 0.1176,
      "velocity": 111,
      "chip": "ym2612"
    },
    {
      "channel": 2,
      "note": 65,
      "start": 220.2439,
      "duration": 0.0836,
      "velocity": 112,
      "chip": "ym2612"
    },
    {
      "channel": 3,
      "note": 61,
      "start": 220.2446,
      "duration": 0.0497,
      "velocity": 120,
      "chip": "ym2612"
    },
    {
      "channel": 4,
      "note": 61,
      "start": 220.2514,
      "duration": 0.1505,
      "velocity": 112,
      "chip": "ym2612"
    },
    {
      "channel": 1,
      "note": 80,
      "start": 220.3946,
      "duration": 0.1177,
      "velocity": 109,
      "chip": "ym2612"
    },
    {
      "channel": 2,
      "note": 65,
      "start": 220.3953,
      "duration": 0.0839,
      "velocity": 112,
      "chip": "ym2612"
    },
    {
      "channel": 3,
      "note": 49,
      "start": 220.3961,
      "duration": 0.0499,
      "velocity": 120,
      "chip": "ym2612"
    },
    {
      "channel": 4,
      "note": 61,
      "start": 220.403,
      "duration": 0.1505,
      "velocity": 112,
      "chip": "ym2612"
    },
    {
      "channel": 0,
      "note": 41,
      "start": 220.5464,
      "duration": 0.3023,
      "velocity": 123,
      "chip": "ym2612"
    },
    {
      "channel": 1,
      "note": 68,
      "start": 220.5471,
      "duration": 0.1169,
      "velocity": 111,
      "chip": "ym2612"
    },
    {
      "channel": 2,
      "note": 65,
      "start": 220.5478,
      "duration": 0.083,
      "velocity": 112,
      "chip": "ym2612"
    },
    {
      "channel": 3,
      "note": 49,
      "start": 220.5486,
      "duration": 0.0491,
      "velocity": 120,
      "chip": "ym2612"
    },
    {
      "channel": 4,
      "note": 61,
      "start": 220.5547,
      "duration": 0.1506,
      "velocity": 112,
      "chip": "ym2612"
    },
    {
      "channel": 1,
      "note": 68,
      "start": 220.698,
      "duration": 0.1178,
      "velocity": 112,
      "chip": "ym2612"
    },
    {
      "channel": 2,
      "note": 65,
      "start": 220.6987,
      "duration": 0.0838,
      "velocity": 112,
      "chip": "ym2612"
    },
    {
      "channel": 3,
      "note": 61,
      "start": 220.6995,
      "duration": 0.0499,
      "velocity": 120,
      "chip": "ym2612"
    },
    {
      "channel": 4,
      "note": 61,
      "start": 220.7064,
      "duration": 0.1506,
      "velocity": 112,
      "chip": "ym2612"
    },
    {
      "channel": 0,
      "note": 40,
      "start": 220.8498,
      "duration": 0.3023,
      "velocity": 127,
      "chip": "ym2612"
    },
    {
      "channel": 1,
      "note": 67,
      "start": 220.8505,
      "duration": 0.1169,
      "velocity": 108,
      "chip": "ym2612"
    },
    {
      "channel": 2,
      "note": 65,
      "start": 220.8512,
      "duration": 0.083,
      "velocity": 112,
      "chip": "ym2612"
    },
    {
      "channel": 3,
      "note": 51,
      "start": 220.852,
      "duration": 0.0491,
      "velocity": 120,
      "chip": "ym2612"
    },
    {
      "channel": 4,
      "note": 63,
      "start": 220.8581,
      "duration": 0.1505,
      "velocity": 112,
      "chip": "ym2612"
    },
    {
      "channel": 5,
      "note": 7,
      "start": 220.8589,
      "duration": 2.4263,
      "velocity": 1,
      "chip": "ym2612"
    },
    {
      "channel": 1,
      "note": 79,
      "start": 221.0013,
      "duration": 0.1178,
      "velocity": 108,
      "chip": "ym2612"
    },
    {
      "channel": 2,
      "note": 65,
      "start": 221.002,
      "duration": 0.0838,
      "velocity": 112,
      "chip": "ym2612"
    },
    {
      "channel": 3,
      "note": 63,
      "start": 221.0028,
      "duration": 0.0499,
      "velocity": 120,
      "chip": "ym2612"
    },
    {
      "channel": 4,
      "note": 63,
      "start": 221.0098,
      "duration": 0.1505,
      "velocity": 112,
      "chip": "ym2612"
    },
    {
      "channel": 0,
      "note": 41,
      "start": 221.1532,
      "duration": 0.3023,
      "velocity": 123,
      "chip": "ym2612"
    },
    {
      "channel": 1,
      "note": 79,
      "start": 221.1539,
      "duration": 0.1169,
      "velocity": 112,
      "chip": "ym2612"
    },
    {
      "channel": 2,
      "note": 65,
      "start": 221.1546,
      "duration": 0.083,
      "velocity": 112,
      "chip": "ym2612"
    },
    {
      "channel": 3,
      "note": 51,
      "start": 221.1553,
      "duration": 0.0491,
      "velocity": 120,
      "chip": "ym2612"
    },
    {
      "channel": 4,
      "note": 63,
      "start": 221.1614,
      "duration": 0.1505,
      "velocity": 112,
      "chip": "ym2612"
    },
    {
      "channel": 1,
      "note": 67,
      "start": 221.3047,
      "duration": 0.1178,
      "velocity": 109,
      "chip": "ym2612"
    },
    {
      "channel": 2,
      "note": 65,
      "start": 221.3054,
      "duration": 0.0838,
      "velocity": 112,
      "chip": "ym2612"
    },
    {
      "channel": 3,
      "note": 51,
      "start": 221.3061,
      "duration": 0.05,
      "velocity": 120,
      "chip": "ym2612"
    },
    {
      "channel": 4,
      "note": 63,
      "start": 221.3132,
      "duration": 0.1505,
      "velocity": 112,
      "chip": "ym2612"
    },
    {
      "channel": 0,
      "note": 40,
      "start": 221.4565,
      "duration": 0.6057,
      "velocity": 127,
      "chip": "ym2612"
    },
    {
      "channel": 1,
      "note": 79,
      "start": 221.4572,
      "duration": 0.117,
      "velocity": 108,
      "chip": "ym2612"
    },
    {
      "channel": 2,
      "note": 65,
      "start": 221.4579,
      "duration": 0.083,
      "velocity": 112,
      "chip": "ym2612"
    },
    {
      "channel": 3,
      "note": 63,
      "start": 221.4587,
      "duration": 0.0491,
      "velocity": 120,
      "chip": "ym2612"
    },
    {
      "channel": 4,
      "note": 63,
      "start": 221.4648,
      "duration": 0.1505,
      "velocity": 112,
      "chip": "ym2612"
    },
    {
      "channel": 1,
      "note": 67,
      "start": 221.6081,
      "duration": 0.1177,
      "velocity": 110,
      "chip": "ym2612"
    },
    {
      "channel": 2,
      "note": 65,
      "start": 221.6088,
      "duration": 0.0838,
      "velocity": 112,
      "chip": "ym2612"
    },
    {
      "channel": 3,
      "note": 51,
      "start": 221.6096,
      "duration": 0.0499,
      "velocity": 120,
      "chip": "ym2612"
    },
    {
      "channel": 4,
      "note": 63,
      "start": 221.6165,
      "duration": 0.1506,
      "velocity": 112,
      "chip": "ym2612"
    },
    {
      "channel": 1,
      "note": 67,
      "start": 221.7598,
      "duration": 0.1178,
      "velocity": 109,
      "chip": "ym2612"
    },
    {
      "channel": 2,
      "note": 65,
      "start": 221.7605,
      "duration": 0.0838,
      "velocity": 112,
      "chip": "ym2612"
    },
    {
      "channel": 3,
      "note": 51,
      "start": 221.7612,
      "duration": 0.0499,
      "velocity": 120,
      "chip": "ym2612"
    },
    {
      "channel": 4,
      "note": 63,
      "start": 221.7682,
      "duration": 0.1505,
      "velocity": 112,
      "chip": "ym2612"
    },
    {
      "channel": 1,
      "note": 79,
      "start": 221.9114,
      "duration": 0.1178,
      "velocity": 111,
      "chip": "ym2612"
    },
    {
      "channel": 2,
      "note": 65,
      "start": 221.9121,
      "duration": 0.0838,
      "velocity": 112,
      "chip": "ym2612"
    },
    {
      "channel": 3,
      "note": 63,
      "start": 221.9129,
      "duration": 0.0499,
      "velocity": 120,
      "chip": "ym2612"
    },
    {
      "channel": 4,
      "note": 63,
      "start": 221.9198,
      "duration": 0.1506,
      "velocity": 112,
      "chip": "ym2612"
    },
    {
      "channel": 0,
      "note": 40,
      "start": 222.0626,
      "duration": 0.3029,
      "velocity": 127,
      "chip": "ym2612"
    },
    {
      "channel": 1,
      "note": 79,
      "start": 222.0633,
      "duration": 0.1176,
      "velocity": 112,
      "chip": "ym2612"
    },
    {
      "channel": 2,
      "note": 65,
      "start": 222.064,
      "duration": 0.0836,
      "velocity": 112,
      "chip": "ym2612"
    },
    {
      "channel": 3,
      "note": 51,
      "start": 222.0648,
      "duration": 0.0497,
      "velocity": 120,
      "chip": "ym2612"
    },
    {
      "channel": 4,
      "note": 63,
      "start": 222.0715,
      "duration": 0.1505,
      "velocity": 112,
      "chip": "ym2612"
    },
    {
      "channel": 1,
      "note": 67,
      "start": 222.2148,
      "duration": 0.1178,
      "velocity": 109,
      "chip": "ym2612"
    },
    {
      "channel": 2,
      "note": 65,
      "start": 222.2155,
      "duration": 0.0838,
      "velocity": 112,
      "chip": "ym2612"
    },
    {
      "channel": 3,
      "note": 63,
      "start": 222.2163,
      "duration": 0.05,
      "velocity": 120,
      "chip": "ym2612"
    },
    {
      "channel": 4,
      "note": 63,
      "start": 222.2232,
      "duration": 0.1506,
      "velocity": 112,
      "chip": "ym2612"
    },
    {
      "channel": 0,
      "note": 41,
      "start": 222.3666,
      "duration": 0.3023,
      "velocity": 123,
      "chip": "ym2612"
    },
    {
      "channel": 1,
      "note": 79,
      "start": 222.3673,
      "duration": 0.117,
      "velocity": 108,
      "chip": "ym2612"
    },
    {
      "channel": 2,
      "note": 65,
      "start": 222.368,
      "duration": 0.083,
      "velocity": 112,
      "chip": "ym2612"
    },
    {
      "channel": 3,
      "note": 51,
      "start": 222.3688,
      "duration": 0.0491,
      "velocity": 120,
      "chip": "ym2612"
    },
    {
      "channel": 4,
      "note": 63,
      "start": 222.3744,
      "duration": 0.1511,
      "velocity": 112,
      "chip": "ym2612"
    },
    {
      "channel": 1,
      "note": 67,
      "start": 222.5182,
      "duration": 0.1177,
      "velocity": 112,
      "chip": "ym2612"
    },
    {
      "channel": 2,
      "note": 65,
      "start": 222.5189,
      "duration": 0.0839,
      "velocity": 112,
      "chip": "ym2612"
    },
    {
      "channel": 3,
      "note": 51,
      "start": 222.5196,
      "duration": 0.0499,
      "velocity": 120,
      "chip": "ym2612"
    },
    {
      "channel": 4,
      "note": 63,
      "start": 222.5266,
      "duration": 0.1505,
      "velocity": 112,
      "chip": "ym2612"
    },
    {
      "channel": 0,
      "note": 40,
      "start": 222.67,
      "duration": 0.6057,
      "velocity": 127,
      "chip": "ym2612"
    },
    {
      "channel": 1,
      "note": 67,
      "start": 222.6707,
      "duration": 0.1169,
      "velocity": 111,
      "chip": "ym2612"
    },
    {
      "channel": 2,
      "note": 65,
      "start": 222.6714,
      "duration": 0.083,
      "velocity": 112,
      "chip": "ym2612"
    },
    {
      "channel": 3,
      "note": 63,
      "start": 222.6721,
      "duration": 0.0491,
      "velocity": 120,
      "chip": "ym2612"
    },
    {
      "channel": 4,
      "note": 63,
      "start": 222.6783,
      "duration": 0.1505,
      "velocity": 112,
      "chip": "ym2612"
    },
    {
      "channel": 1,
      "note": 79,
      "start": 222.8215,
      "duration": 0.1178,
      "velocity": 109,
      "chip": "ym2612"
    },
    {
      "channel": 2,
      "note": 65,
      "start": 222.8222,
      "duration": 0.0838,
      "velocity": 112,
      "chip": "ym2612"
    },
    {
      "channel": 3,
      "note": 51,
      "start": 222.823,
      "duration": 0.0499,
      "velocity": 120,
      "chip": "ym2612"
    },
    {
      "channel": 4,
      "note": 63,
      "start": 222.83,
      "duration": 0.1505,
      "velocity": 112,
      "chip": "ym2612"
    },
    {
      "channel": 1,
      "note": 67,
      "start": 222.9732,
      "duration": 0.1178,
      "velocity": 111,
      "chip": "ym2612"
    },
    {
      "channel": 2,
      "note": 65,
      "start": 222.9739,
      "duration": 0.0839,
      "velocity": 112,
      "chip": "ym2612"
    },
    {
      "channel": 3,
      "note": 51,
      "start": 222.9747,
      "duration": 0.05,
      "velocity": 120,
      "chip": "ym2612"
    },
    {
      "channel": 4,
      "note": 63,
      "start": 222.9816,
      "duration": 0.1506,
      "velocity": 112,
      "chip": "ym2612"
    },
    {
      "channel": 1,
      "note": 67,
      "start": 223.1249,
      "duration": 0.1178,
      "velocity": 112,
      "chip": "ym2612"
    },
    {
      "channel": 2,
      "note": 65,
      "start": 223.1256,
      "duration": 0.0838,
      "velocity": 112,
      "chip": "ym2612"
    },
    {
      "channel": 3,
      "note": 63,
      "start": 223.1263,
      "duration": 0.0499,
      "velocity": 120,
      "chip": "ym2612"
    },
    {
      "channel": 4,
      "note": 63,
      "start": 223.1333,
      "duration": 0.1505,
      "velocity": 112,
      "chip": "ym2612"
    },
    {
      "channel": 0,
      "note": 40,
      "start": 223.2761,
      "duration": 0.3029,
      "velocity": 127,
      "chip": "ym2612"
    },
    {
      "channel": 1,
      "note": 65,
      "start": 223.2768,
      "duration": 0.1176,
      "velocity": 108,
      "chip": "ym2612"
    },
    {
      "channel": 2,
      "note": 65,
      "start": 223.2775,
      "duration": 0.0837,
      "velocity": 112,
      "chip": "ym2612"
    },
    {
      "channel": 3,
      "note": 53,
      "start": 223.2782,
      "duration": 0.0498,
      "velocity": 120,
      "chip": "ym2612"
    },
    {
      "channel": 4,
      "note": 65,
      "start": 223.285,
      "duration": 0.1505,
      "velocity": 112,
      "chip": "ym2612"
    },
    {
      "channel": 5,
      "note": 7,
      "start": 223.2857,
      "duration": 2.4264,
      "velocity": 1,
      "chip": "ym2612"
    },
    {
      "channel": 1,
      "note": 77,
      "start": 223.4282,
      "duration": 0.1178,
      "velocity": 108,
      "chip": "ym2612"
    },
    {
      "channel": 2,
      "note": 65,
      "start": 223.4289,
      "duration": 0.0838,
      "velocity": 112,
      "chip": "ym2612"
    },
    {
      "channel": 3,
      "note": 65,
      "start": 223.4297,
      "duration": 0.0499,
      "velocity": 120,
      "chip": "ym2612"
    },
    {
      "channel": 4,
      "note": 65,
      "start": 223.4367,
      "duration": 0.1505,
      "velocity": 112,
      "chip": "ym2612"
    },
    {
      "channel": 0,
      "note": 41,
      "start": 223.5801,
      "duration": 0.3022,
      "velocity": 123,
      "chip": "ym2612"
    },
    {
      "channel": 1,
      "note": 77,
      "start": 223.5808,
      "duration": 0.1169,
      "velocity": 112,
      "chip": "ym2612"
    },
    {
      "channel": 2,
      "note": 65,
      "start": 223.5815,
      "duration": 0.083,
      "velocity": 112,
      "chip": "ym2612"
    },
    {
      "channel": 3,
      "note": 53,
      "start": 223.5822,
      "duration": 0.0491,
      "velocity": 120,
      "chip": "ym2612"
    },
    {
      "channel": 4,
      "note": 65,
      "start": 223.5883,
      "duration": 0.1505,
      "velocity": 112,
      "chip": "ym2612"
    },
    {
      "channel": 1,
      "note": 65,
      "start": 223.7316,
      "duration": 0.1178,
      "velocity": 109,
      "chip": "ym2612"
    },
    {
      "channel": 2,
      "note": 65,
      "start": 223.7323,
      "duration": 0.0839,
      "velocity": 112,
      "chip": "ym2612"
    },
    {
      "channel": 3,
      "note": 53,
      "start": 223.7331,
      "duration": 0.0499,
      "velocity": 120,
      "chip": "ym2612"
    },
    {
      "channel": 4,
      "note": 65,
      "start": 223.7401,
      "duration": 0.1505,
      "velocity": 112,
      "chip": "ym2612"
    },
    {
      "channel": 0,
      "note": 40,
      "start": 223.8834,
      "duration": 0.3022,
      "velocity": 127,
      "chip": "ym2612"
    },
    {
      "channel": 1,
      "note": 77,
      "start": 223.8841,
      "duration": 0.117,
      "velocity": 108,
      "chip": "ym2612"
    },
    {
      "channel": 2,
      "note": 65,
      "start": 223.8848,
      "duration": 0.083,
      "velocity": 112,
      "chip": "ym2612"
    },
    {
      "channel": 3,
      "note": 65,
      "start": 223.8855,
      "duration": 0.0491,
      "velocity": 120,
      "chip": "ym2612"
    },
    {
      "channel": 4,
      "note": 65,
      "start": 223.8917,
      "duration": 0.1505,
      "velocity": 112,
      "chip": "ym2612"
    },
    {
      "channel": 1,
      "note": 65,
      "start": 224.035,
      "duration": 0.1178,
      "velocity": 110,
      "chip": "ym2612"
    },
    {
      "channel": 2,
      "note": 65,
      "start": 224.0357,
      "duration": 0.0838,
      "velocity": 112,
      "chip": "ym2612"
    },
    {
      "channel": 3,
      "note": 53,
      "start": 224.0364,
      "duration": 0.0499,
      "velocity": 120,
      "chip": "ym2612"
    },
    {
      "channel": 4,
      "note": 65,
      "start": 224.0434,
      "duration": 0.1506,
      "velocity": 112,
      "chip": "ym2612"
    },
    {
      "channel": 0,
      "note": 41,
      "start": 224.1868,
      "duration": 0.3023,
      "velocity": 123,
      "chip": "ym2612"
    },
    {
      "channel": 1,
      "note": 65,
      "start": 224.1875,
      "duration": 0.117,
      "velocity": 109,
      "chip": "ym2612"
    },
    {
      "channel": 2,
      "note": 65,
      "start": 224.1881,
      "duration": 0.083,
      "velocity": 112,
      "chip": "ym2612"
    },
    {
      "channel": 3,
      "note": 53,
      "start": 224.1889,
      "duration": 0.0491,
      "velocity": 120,
      "chip": "ym2612"
    },
    {
      "channel": 4,
      "note": 65,
      "start": 224.1951,
      "duration": 0.1505,
      "velocity": 112,
      "chip": "ym2612"
    },
    {
      "channel": 1,
      "note": 77,
      "start": 224.3383,
      "duration": 0.1178,
      "velocity": 111,
      "chip": "ym2612"
    },
    {
      "channel": 2,
      "note": 65,
      "start": 224.339,
      "duration": 0.0838,
      "velocity": 112,
      "chip": "ym2612"
    },
    {
      "channel": 3,
      "note": 65,
      "start": 224.3398,
      "duration": 0.05,
      "velocity": 120,
      "chip": "ym2612"
    },
    {
      "channel": 4,
      "note": 65,
      "start": 224.3467,
      "duration": 0.1505,
      "velocity": 112,
      "chip": "ym2612"
    },
    {
      "channel": 0,
      "note": 40,
      "start": 224.4902,
      "duration": 0.6056,
      "velocity": 127,
      "chip": "ym2612"
    },
    {
      "channel": 1,
      "note": 77,
      "start": 224.4909,
      "duration": 0.1169,
      "velocity": 112,
      "chip": "ym2612"
    },
    {
      "channel": 2,
      "note": 65,
      "start": 224.4916,
      "duration": 0.083,
      "velocity": 112,
      "chip": "ym2612"
    },
    {
      "channel": 3,
      "note": 53,
      "start": 224.4924,
      "duration": 0.0491,
      "velocity": 120,
      "chip": "ym2612"
    },
    {
      "channel": 4,
      "note": 65,
      "start": 224.4985,
      "duration": 0.1505,
      "velocity": 112,
      "chip": "ym2612"
    },
    {
      "channel": 1,
      "note": 65,
      "start": 224.6417,
      "duration": 0.1178,
      "velocity": 109,
      "chip": "ym2612"
    },
    {
      "channel": 2,
      "note": 65,
      "start": 224.6424,
      "duration": 0.0839,
      "velocity": 112,
      "chip": "ym2612"
    },
    {
      "channel": 3,
      "note": 65,
      "start": 224.6432,
      "duration": 0.0499,
      "velocity": 120,
      "chip": "ym2612"
    },
    {
      "channel": 4,
      "note": 65,
      "start": 224.6501,
      "duration": 0.1506,
      "velocity": 112,
      "chip": "ym2612"
    },
    {
      "channel": 1,
      "note": 77,
      "start": 224.7934,
      "duration": 0.1178,
      "velocity": 108,
      "chip": "ym2612"
    },
    {
      "channel": 2,
      "note": 65,
      "start": 224.7941,
      "duration": 0.0839,
      "velocity": 112,
      "chip": "ym2612"
    },
    {
      "channel": 3,
      "note": 53,
      "start": 224.7948,
      "duration": 0.0499,
      "velocity": 120,
      "chip": "ym2612"
    },
    {
      "channel": 4,
      "note": 65,
      "start": 224.8012,
      "duration": 0.1512,
      "velocity": 112,
      "chip": "ym2612"
    },
    {
      "channel": 1,
      "note": 65,
      "start": 224.9451,
      "duration": 0.1178,
      "velocity": 112,
      "chip": "ym2612"
    },
    {
      "channel": 2,
      "note": 65,
      "start": 224.9458,
      "duration": 0.0838,
      "velocity": 112,
      "chip": "ym2612"
    },
    {
      "channel": 3,
      "note": 53,
      "start": 224.9466,
      "duration": 0.0499,
      "velocity": 120,
      "chip": "ym2612"
    },
    {
      "channel": 4,
      "note": 65,
      "start": 224.9535,
      "duration": 0.1505,
      "velocity": 112,
      "chip": "ym2612"
    },
    {
      "channel": 0,
      "note": 40,
      "start": 225.0963,
      "duration": 0.3029,
      "velocity": 127,
      "chip": "ym2612"
    },
    {
      "channel": 1,
      "note": 65,
      "start": 225.097,
      "duration": 0.1175,
      "velocity": 111,
      "chip": "ym2612"
    },
    {
      "channel": 2,
      "note": 65,
      "start": 225.0977,
      "duration": 0.0836,
      "velocity": 112,
      "chip": "ym2612"
    },
    {
      "channel": 3,
      "note": 65,
      "start": 225.0985,
      "duration": 0.0497,
      "velocity": 120,
      "chip": "ym2612"
    },
    {
      "channel": 4,
      "note": 65,
      "start": 225.1051,
      "duration": 0.1506,
      "velocity": 112,
      "chip": "ym2612"
    },
    {
      "channel": 1,
      "note": 77,
      "start": 225.2484,
      "duration": 0.1178,
      "velocity": 109,
      "chip": "ym2612"
    },
    {
      "channel": 2,
      "note": 65,
      "start": 225.2491,
      "duration": 0.0838,
      "velocity": 112,
      "chip": "ym2612"
    },
    {
      "channel": 3,
      "note": 53,
      "start": 225.2499,
      "duration": 0.0499,
      "velocity": 120,
      "chip": "ym2612"
    },
    {
      "channel": 4,
      "note": 65,
      "start": 225.2569,
      "duration": 0.1505,
      "velocity": 112,
      "chip": "ym2612"
    },
    {
      "channel": 0,
      "note": 41,
      "start": 225.4002,
      "duration": 0.3022,
      "velocity": 123,
      "chip": "ym2612"
    },
    {
      "channel": 1,
      "note": 65,
      "start": 225.4009,
      "duration": 0.1169,
      "velocity": 111,
      "chip": "ym2612"
    },
    {
      "channel": 2,
      "note": 65,
      "start": 225.4016,
      "duration": 0.083,
      "velocity": 112,
      "chip": "ym2612"
    },
    {
      "channel": 3,
      "note": 53,
      "start": 225.4024,
      "duration": 0.0491,
      "velocity": 120,
      "chip": "ym2612"
    },
    {
      "channel": 4,
      "note": 65,
      "start": 225.4085,
      "duration": 0.1505,
      "velocity": 112,
      "chip": "ym2612"
    },
    {
      "channel": 1,
      "note": 65,
      "start": 225.5518,
      "duration": 0.1178,
      "velocity": 112,
      "chip": "ym2612"
    },
    {
      "channel": 2,
      "note": 65,
      "start": 225.5525,
      "duration": 0.0838,
      "velocity": 112,
      "chip": "ym2612"
    },
    {
      "channel": 3,
      "note": 65,
      "start": 225.5532,
      "duration": 0.0499,
      "velocity": 120,
      "chip": "ym2612"
    },
    {
      "channel": 4,
      "note": 65,
      "start": 225.5602,
      "duration": 0.1505,
      "velocity": 112,
      "chip": "ym2612"
    },
    {
      "channel": 0,
      "note": 40,
      "start": 225.7036,
      "duration": 0.3022,
      "velocity": 127,
      "chip": "ym2612"
    },
    {
      "channel": 1,
      "note": 65,
      "start": 225.7042,
      "duration": 0.117,
      "velocity": 108,
      "chip": "ym2612"
    },
    {
      "channel": 2,
      "note": 65,
      "start": 225.7049,
      "duration": 0.0831,
      "velocity": 112,
      "chip": "ym2612"
    },
    {
      "channel": 3,
      "note": 53,
      "start": 225.7057,
      "duration": 0.0492,
      "velocity": 120,
      "chip": "ym2612"
    },
    {
      "channel": 4,
      "note": 65,
      "start": 225.7119,
      "duration": 0.1505,
      "velocity": 112,
      "chip": "ym2612"
    },
    {
      "channel": 5,
      "note": 7,
      "start": 225.7126,
      "duration": 2.4265,
      "velocity": 1,
      "chip": "ym2612"
    },
    {
      "channel": 1,
      "note": 77,
      "start": 225.8551,
      "duration": 0.1178,
      "velocity": 109,
      "chip": "ym2612"
    },
    {
      "channel": 2,
      "note": 65,
      "start": 225.8558,
      "duration": 0.0839,
      "velocity": 112,
      "chip": "ym2612"
    },
    {
      "channel": 3,
      "note": 65,
      "start": 225.8566,
      "duration": 0.0499,
      "velocity": 120,
      "chip": "ym2612"
    },
    {
      "channel": 4,
      "note": 65,
      "start": 225.8635,
      "duration": 0.1506,
      "velocity": 112,
      "chip": "ym2612"
    },
    {
      "channel": 0,
      "note": 41,
      "start": 226.007,
      "duration": 0.3022,
      "velocity": 123,
      "chip": "ym2612"
    },
    {
      "channel": 1,
      "note": 77,
      "start": 226.0077,
      "duration": 0.117,
      "velocity": 110,
      "chip": "ym2612"
    },
    {
      "channel": 2,
      "note": 65,
      "start": 226.0084,
      "duration": 0.083,
      "velocity": 112,
      "chip": "ym2612"
    },
    {
      "channel": 3,
      "note": 53,
      "start": 226.0091,
      "duration": 0.0491,
      "velocity": 120,
      "chip": "ym2612"
    },
    {
      "channel": 4,
      "note": 65,
      "start": 226.0152,
      "duration": 0.1505,
      "velocity": 112,
      "chip": "ym2612"
    },
    {
      "channel": 1,
      "note": 65,
      "start": 226.1585,
      "duration": 0.1178,
      "velocity": 111,
      "chip": "ym2612"
    },
    {
      "channel": 2,
      "note": 65,
      "start": 226.1592,
      "duration": 0.0838,
      "velocity": 112,
      "chip": "ym2612"
    },
    {
      "channel": 3,
      "note": 53,
      "start": 226.16,
      "duration": 0.0499,
      "velocity": 120,
      "chip": "ym2612"
    },
    {
      "channel": 4,
      "note": 65,
      "start": 226.1669,
      "duration": 0.1506,
      "velocity": 112,
      "chip": "ym2612"
    },
    {
      "channel": 0,
      "note": 40,
      "start": 226.3103,
      "duration": 0.6057,
      "velocity": 127,
      "chip": "ym2612"
    },
    {
      "channel": 1,
      "note": 77,
      "start": 226.311,
      "duration": 0.117,
      "velocity": 108,
      "chip": "ym2612"
    },
    {
      "channel": 2,
      "note": 65,
      "start": 226.3117,
      "duration": 0.083,
      "velocity": 112,
      "chip": "ym2612"
    },
    {
      "channel": 3,
      "note": 65,
      "start": 226.3124,
      "duration": 0.0491,
      "velocity": 120,
      "chip": "ym2612"
    },
    {
      "channel": 4,
      "note": 65,
      "start": 226.318,
      "duration": 0.1511,
      "velocity": 112,
      "chip": "ym2612"
    },
    {
      "channel": 1,
      "note": 65,
      "start": 226.4619,
      "duration": 0.1177,
      "velocity": 109,
      "chip": "ym2612"
    },
    {
      "channel": 2,
      "note": 65,
      "start": 226.4626,
      "duration": 0.0838,
      "velocity": 112,
      "chip": "ym2612"
    },
    {
      "channel": 3,
      "note": 53,
      "start": 226.4633,
      "duration": 0.05,
      "velocity": 120,
      "chip": "ym2612"
    },
    {
      "channel": 4,
      "note": 65,
      "start": 226.4703,
      "duration": 0.1505,
      "velocity": 112,
      "chip": "ym2612"
    },
    {
      "channel": 1,
      "note": 65,
      "start": 226.6135,
      "duration": 0.1177,
      "velocity": 112,
      "chip": "ym2612"
    },
    {
      "channel": 2,
      "note": 65,
      "start": 226.6142,
      "duration": 0.0838,
      "velocity": 112,
      "chip": "ym2612"
    },
    {
      "channel": 3,
      "note": 53,
      "start": 226.615,
      "duration": 0.0499,
      "velocity": 120,
      "chip": "ym2612"
    },
    {
      "channel": 4,
      "note": 65,
      "start": 226.622,
      "duration": 0.1505,
      "velocity": 112,
      "chip": "ym2612"
    },
    {
      "channel": 1,
      "note": 77,
      "start": 226.7652,
      "duration": 0.1178,
      "velocity": 110,
      "chip": "ym2612"
    },
    {
      "channel": 2,
      "note": 65,
      "start": 226.7659,
      "duration": 0.0839,
      "velocity": 112,
      "chip": "ym2612"
    },
    {
      "channel": 3,
      "note": 65,
      "start": 226.7667,
      "duration": 0.0499,
      "velocity": 120,
      "chip": "ym2612"
    },
    {
      "channel": 4,
      "note": 65,
      "start": 226.7737,
      "duration": 0.1504,
      "velocity": 112,
      "chip": "ym2612"
    },
    {
      "channel": 0,
      "note": 40,
      "start": 226.9165,
      "duration": 0.3029,
      "velocity": 127,
      "chip": "ym2612"
    },
    {
      "channel": 1,
      "note": 77,
      "start": 226.9172,
      "duration": 0.1175,
      "velocity": 111,
      "chip": "ym2612"
    },
    {
      "channel": 2,
      "note": 65,
      "start": 226.9178,
      "duration": 0.0836,
      "velocity": 112,
      "chip": "ym2612"
    },
    {
      "channel": 3,
      "note": 53,
      "start": 226.9186,
      "duration": 0.0497,
      "velocity": 120,
      "chip": "ym2612"
    },
    {
      "channel": 4,
      "note": 65,
      "start": 226.9254,
      "duration": 0.1505,
      "velocity": 112,
      "chip": "ym2612"
    },
    {
      "channel": 1,
      "note": 65,
      "start": 227.0686,
      "duration": 0.1178,
      "velocity": 108,
      "chip": "ym2612"
    },
    {
      "channel": 2,
      "note": 65,
      "start": 227.0693,
      "duration": 0.0838,
      "velocity": 112,
      "chip": "ym2612"
    },
    {
      "channel": 3,
      "note": 65,
      "start": 227.0701,
      "duration": 0.0499,
      "velocity": 120,
      "chip": "ym2612"
    },
    {
      "channel": 4,
      "note": 65,
      "start": 227.077,
      "duration": 0.1505,
      "velocity": 112,
      "chip": "ym2612"
    },
    {
      "channel": 0,
      "note": 41,
      "start": 227.2204,
      "duration": 0.3023,
      "velocity": 123,
      "chip": "ym2612"
    },
    {
      "channel": 1,
      "note": 77,
      "start": 227.2211,
      "duration": 0.1169,
      "velocity": 109,
      "chip": "ym2612"
    },
    {
      "channel": 2,
      "note": 65,
      "start": 227.2218,
      "duration": 0.083,
      "velocity": 112,
      "chip": "ym2612"
    },
    {
      "channel": 3,
      "note": 53,
      "start": 227.2226,
      "duration": 0.0491,
      "velocity": 120,
      "chip": "ym2612"
    },
    {
      "channel": 4,
      "note": 65,
      "start": 227.2287,
      "duration": 0.1506,
      "velocity": 112,
      "chip": "ym2612"
    },
    {
      "channel": 1,
      "note": 65,
      "start": 227.3719,
      "duration": 0.1178,
      "velocity": 112,
      "chip": "ym2612"
    },
    {
      "channel": 2,
      "note": 65,
      "start": 227.3726,
      "duration": 0.0838,
      "velocity": 112,
      "chip": "ym2612"
    },
    {
      "channel": 3,
      "note": 53,
      "start": 227.3734,
      "duration": 0.0499,
      "velocity": 120,
      "chip": "ym2612"
    },
    {
      "channel": 4,
      "note": 65,
      "start": 227.3804,
      "duration": 0.1505,
      "velocity": 112,
      "chip": "ym2612"
    },
    {
      "channel": 0,
      "note": 40,
      "start": 227.5238,
      "duration": 0.6056,
      "velocity": 127,
      "chip": "ym2612"
    },
    {
      "channel": 1,
      "note": 77,
      "start": 227.5245,
      "duration": 0.1169,
      "velocity": 110,
      "chip": "ym2612"
    },
    {
      "channel": 2,
      "note": 65,
      "start": 227.5252,
      "duration": 0.083,
      "velocity": 112,
      "chip": "ym2612"
    },
    {
      "channel": 3,
      "note": 65,
      "start": 227.5259,
      "duration": 0.0491,
      "velocity": 120,
      "chip": "ym2612"
    },
    {
      "channel": 4,
      "note": 65,
      "start": 227.532,
      "duration": 0.1506,
      "velocity": 112,
      "chip": "ym2612"
    },
    {
      "channel": 1,
      "note": 65,
      "start": 227.6753,
      "duration": 0.1177,
      "velocity": 108,
      "chip": "ym2612"
    },
    {
      "channel": 2,
      "note": 65,
      "start": 227.676,
      "duration": 0.0838,
      "velocity": 112,
      "chip": "ym2612"
    },
    {
      "channel": 3,
      "note": 53,
      "start": 227.6768,
      "duration": 0.0499,
      "velocity": 120,
      "chip": "ym2612"
    },
    {
      "channel": 4,
      "note": 65,
      "start": 227.6832,
      "duration": 0.1511,
      "velocity": 112,
      "chip": "ym2612"
    },
    {
      "channel": 1,
      "note": 65,
      "start": 227.827,
      "duration": 0.1178,
      "velocity": 109,
      "chip": "ym2612"
    },
    {
      "channel": 2,
      "note": 65,
      "start": 227.8277,
      "duration": 0.0839,
      "velocity": 112,
      "chip": "ym2612"
    },
    {
      "channel": 3,
      "note": 65,
      "start": 227.8285,
      "duration": 0.0499,
      "velocity": 120,
      "chip": "ym2612"
    },
    {
      "channel": 4,
      "note": 65,
      "start": 227.8354,
      "duration": 0.1505,
      "velocity": 112,
      "chip": "ym2612"
    },
    {
      "channel": 1,
      "note": 77,
      "start": 227.9787,
      "duration": 0.1178,
      "velocity": 112,
      "chip": "ym2612"
    },
    {
      "channel": 2,
      "note": 65,
      "start": 227.9794,
      "duration": 0.0839,
      "velocity": 112,
      "chip": "ym2612"
    },
    {
      "channel": 3,
      "note": 65,
      "start": 227.9801,
      "duration": 0.0499,
      "velocity": 120,
      "chip": "ym2612"
    },
    {
      "channel": 4,
      "note": 65,
      "start": 227.9871,
      "duration": 0.1506,
      "velocity": 112,
      "chip": "ym2612"
    },
    {
      "channel": 0,
      "note": 40,
      "start": 228.13,
      "duration": 0.3028,
      "velocity": 127,
      "chip": "ym2612"
    },
    {
      "channel": 1,
      "note": 70,
      "start": 228.1306,
      "duration": 0.1176,
      "velocity": 108,
      "chip": "ym2612"
    },
    {
      "channel": 2,
      "note": 7,
      "start": 228.1319,
      "duration": 2.4265,
      "velocity": 1,
      "chip": "ym2612"
    },
    {
      "channel": 3,
      "note": 50,
      "start": 228.1326,
      "duration": 0.0491,
      "velocity": 120,
      "chip": "ym2612"
    },
    {
      "channel": 4,
      "note": 62,
      "start": 228.1388,
      "duration": 0.1505,
      "velocity": 112,
      "chip": "ym2612"
    },
    {
      "channel": 5,
      "note": 7,
      "start": 228.1395,
      "duration": 2.4265,
      "velocity": 1,
      "chip": "ym2612"
    },
    {
      "channel": 1,
      "note": 82,
      "start": 228.282,
      "duration": 0.1178,
      "velocity": 108,
      "chip": "ym2612"
    },
    {
      "channel": 3,
      "note": 62,
      "start": 228.2832,
      "duration": 0.0501,
      "velocity": 120,
      "chip": "ym2612"
    },
    {
      "channel": 4,
      "note": 62,
      "start": 228.2905,
      "duration": 0.1505,
      "velocity": 112,
      "chip": "ym2612"
    },
    {
      "channel": 0,
      "note": 41,
      "start": 228.4338,
      "duration": 0.3023,
      "velocity": 123,
      "chip": "ym2612"
    },
    {
      "channel": 1,
      "note": 82,
      "start": 228.4345,
      "duration": 0.117,
      "velocity": 112,
      "chip": "ym2612"
    },
    {
      "channel": 3,
      "note": 50,
      "start": 228.4357,
      "duration": 0.0494,
      "velocity": 120,
      "chip": "ym2612"
    },
    {
      "channel": 4,
      "note": 62,
      "start": 228.4422,
      "duration": 0.1505,
      "velocity": 112,
      "chip": "ym2612"
    },
    {
      "channel": 1,
      "note": 70,
      "start": 228.5854,
      "duration": 0.1177,
      "velocity": 109,
      "chip": "ym2612"
    },
    {
      "channel": 3,
      "note": 50,
      "start": 228.5866,
      "duration": 0.0501,
      "velocity": 120,
      "chip": "ym2612"
    },
    {
      "channel": 4,
      "note": 62,
      "start": 228.5938,
      "duration": 0.1505,
      "velocity": 112,
      "chip": "ym2612"
    },
    {
      "channel": 0,
      "note": 40,
      "start": 228.7372,
      "duration": 0.3023,
      "velocity": 127,
      "chip": "ym2612"
    },
    {
      "channel": 1,
      "note": 82,
      "start": 228.7379,
      "duration": 0.1169,
      "velocity": 108,
      "chip": "ym2612"
    },
    {
      "channel": 3,
      "note": 62,
      "start": 228.7391,
      "duration": 0.0494,
      "velocity": 120,
      "chip": "ym2612"
    },
    {
      "channel": 4,
      "note": 62,
      "start": 228.7455,
      "duration": 0.1505,
      "velocity": 112,
      "chip": "ym2612"
    },
    {
      "channel": 1,
      "note": 70,
      "start": 228.8888,
      "duration": 0.1178,
      "velocity": 110,
      "chip": "ym2612"
    },
    {
      "channel": 3,
      "note": 50,
      "start": 228.89,
      "duration": 0.0502,
      "velocity": 120,
      "chip": "ym2612"
    },
    {
      "channel": 4,
      "note": 62,
      "start": 228.8972,
      "duration": 0.1505,
      "velocity": 112,
      "chip": "ym2612"
    },
    {
      "channel": 0,
      "note": 41,
      "start": 229.0406,
      "duration": 0.3022,
      "velocity": 123,
      "chip": "ym2612"
    },
    {
      "channel": 1,
      "note": 70,
      "start": 229.0413,
      "duration": 0.1168,
      "velocity": 109,
      "chip": "ym2612"
    },
    {
      "channel": 3,
      "note": 50,
      "start": 229.0425,
      "duration": 0.0493,
      "velocity": 120,
      "chip": "ym2612"
    },
    {
      "channel": 4,
      "note": 62,
      "start": 229.0488,
      "duration": 0.1506,
      "velocity": 112,
      "chip": "ym2612"
    },
    {
      "channel": 1,
      "note": 82,
      "start": 229.1921,
      "duration": 0.1178,
      "velocity": 111,
      "chip": "ym2612"
    },
    {
      "channel": 3,
      "note": 62,
      "start": 229.1933,
      "duration": 0.0502,
      "velocity": 120,
      "chip": "ym2612"
    },
    {
      "channel": 4,
      "note": 62,
      "start": 229.2005,
      "duration": 0.1505,
      "velocity": 112,
      "chip": "ym2612"
    },
    {
      "channel": 0,
      "note": 40,
      "start": 229.3439,
      "duration": 0.6056,
      "velocity": 127,
      "chip": "ym2612"
    },
    {
      "channel": 1,
      "note": 82,
      "start": 229.3446,
      "duration": 0.1169,
      "velocity": 112,
      "chip": "ym2612"
    },
    {
      "channel": 3,
      "note": 50,
      "start": 229.3459,
      "duration": 0.0493,
      "velocity": 120,
      "chip": "ym2612"
    },
    {
      "channel": 4,
      "note": 62,
      "start": 229.3522,
      "duration": 0.1505,
      "velocity": 112,
      "chip": "ym2612"
    },
    {
      "channel": 1,
      "note": 70,
      "start": 229.4955,
      "duration": 0.1178,
      "velocity": 109,
      "chip": "ym2612"
    },
    {
      "channel": 3,
      "note": 62,
      "start": 229.4967,
      "duration": 0.0502,
      "velocity": 120,
      "chip": "ym2612"
    },
    {
      "channel": 4,
      "note": 62,
      "start": 229.5039,
      "duration": 0.1505,
      "velocity": 112,
      "chip": "ym2612"
    },
    {
      "channel": 1,
      "note": 82,
      "start": 229.6472,
      "duration": 0.1177,
      "velocity": 108,
      "chip": "ym2612"
    },
    {
      "channel": 3,
      "note": 50,
      "start": 229.6484,
      "duration": 0.0501,
      "velocity": 120,
      "chip": "ym2612"
    },
    {
      "channel": 4,
      "note": 62,
      "start": 229.655,
      "duration": 0.1511,
      "velocity": 112,
      "chip": "ym2612"
    },
    {
      "channel": 1,
      "note": 70,
      "start": 229.7988,
      "duration": 0.1177,
      "velocity": 112,
      "chip": "ym2612"
    },
    {
      "channel": 3,
      "note": 50,
      "start": 229.8,
      "duration": 0.0502,
      "velocity": 120,
      "chip": "ym2612"
    },
    {
      "channel": 4,
      "note": 62,
      "start": 229.8073,
      "duration": 0.1505,
      "velocity": 112,
      "chip": "ym2612"
    },
    {
      "channel": 0,
      "note": 40,
      "start": 229.9501,
      "duration": 0.3028,
      "velocity": 127,
      "chip": "ym2612"
    },
    {
      "channel": 1,
      "note": 70,
      "start": 229.9507,
      "duration": 0.1176,
      "velocity": 111,
      "chip": "ym2612"
    },
    {
      "channel": 3,
      "note": 62,
      "start": 229.952,
      "duration": 0.0499,
      "velocity": 120,
      "chip": "ym2612"
    },
    {
      "channel": 4,
      "note": 62,
      "start": 229.959,
      "duration": 0.1505,
      "velocity": 112,
      "chip": "ym2612"
    },
    {
      "channel": 1,
      "note": 82,
      "start": 230.1022,
      "duration": 0.1178,
      "velocity": 109,
      "chip": "ym2612"
    },
    {
      "channel": 3,
      "note": 50,
      "start": 230.1034,
      "duration": 0.0502,
      "velocity": 120,
      "chip": "ym2612"
    },
    {
      "channel": 4,
      "note": 62,
      "start": 230.1107,
      "duration": 0.1505,
      "velocity": 112,
      "chip": "ym2612"
    },
    {
      "channel": 0,
      "note": 41,
      "start": 230.254,
      "duration": 0.3023,
      "velocity": 123,
      "chip": "ym2612"
    },
    {
      "channel": 1,
      "note": 70,
      "start": 230.2547,
      "duration": 0.117,
      "velocity": 111,
      "chip": "ym2612"
    },
    {
      "channel": 3,
      "note": 50,
      "start": 230.2559,
      "duration": 0.0494,
      "velocity": 120,
      "chip": "ym2612"
    },
    {
      "channel": 4,
      "note": 62,
      "start": 230.2623,
      "duration": 0.1505,
      "velocity": 112,
      "chip": "ym2612"
    },
    {
      "channel": 1,
      "note": 70,
      "start": 230.4056,
      "duration": 0.1178,
      "velocity": 112,
      "chip": "ym2612"
    },
    {
      "channel": 3,
      "note": 62,
      "start": 230.4068,
      "duration": 0.0502,
      "velocity": 120,
      "chip": "ym2612"
    },
    {
      "channel": 4,
      "note": 62,
      "start": 230.414,
      "duration": 0.1505,
      "velocity": 112,
      "chip": "ym2612"
    },
    {
      "channel": 0,
      "note": 40,
      "start": 230.5574,
      "duration": 0.3022,
      "velocity": 127,
      "chip": "ym2612"
    },
    {
      "channel": 1,
      "note": 70,
      "start": 230.5581,
      "duration": 0.1169,
      "velocity": 108,
      "chip": "ym2612"
    },
    {
      "channel": 2,
      "note": 7,
      "start": 230.5588,
      "duration": 2.4258,
      "velocity": 1,
      "chip": "ym2612"
    },
    {
      "channel": 3,
      "note": 50,
      "start": 230.5595,
      "duration": 0.0492,
      "velocity": 120,
      "chip": "ym2612"
    },
    {
      "channel": 4,
      "note": 62,
      "start": 230.5657,
      "duration": 0.1505,
      "velocity": 112,
      "chip": "ym2612"
    },
    {
      "channel": 5,
      "note": 7,
      "start": 230.5664,
      "duration": 2.4264,
      "velocity": 1,
      "chip": "ym2612"
    },
    {
      "channel": 1,
      "note": 82,
      "start": 230.709,
      "duration": 0.1177,
      "velocity": 108,
      "chip": "ym2612"
    },
    {
      "channel": 3,
      "note": 62,
      "start": 230.7102,
      "duration": 0.0501,
      "velocity": 120,
      "chip": "ym2612"
    },
    {
      "channel": 4,
      "note": 62,
      "start": 230.7173,
      "duration": 0.1505,
      "velocity": 112,
      "chip": "ym2612"
    },
    {
      "channel": 0,
      "note": 41,
      "start": 230.8607,
      "duration": 0.3023,
      "velocity": 123,
      "chip": "ym2612"
    },
    {
      "channel": 1,
      "note": 82,
      "start": 230.8614,
      "duration": 0.1169,
      "velocity": 112,
      "chip": "ym2612"
    },
    {
      "channel": 3,
      "note": 50,
      "start": 230.8626,
      "duration": 0.0494,
      "velocity": 120,
      "chip": "ym2612"
    },
    {
      "channel": 4,
      "note": 62,
      "start": 230.8691,
      "duration": 0.1505,
      "velocity": 112,
      "chip": "ym2612"
    },
    {
      "channel": 1,
      "note": 70,
      "start": 231.0123,
      "duration": 0.1178,
      "velocity": 109,
      "chip": "ym2612"
    },
    {
      "channel": 3,
      "note": 50,
      "start": 231.0135,
      "duration": 0.0501,
      "velocity": 120,
      "chip": "ym2612"
    },
    {
      "channel": 4,
      "note": 62,
      "start": 231.0207,
      "duration": 0.1505,
      "velocity": 112,
      "chip": "ym2612"
    },
    {
      "channel": 0,
      "note": 40,
      "start": 231.1641,
      "duration": 0.6057,
      "velocity": 127,
      "chip": "ym2612"
    },
    {
      "channel": 1,
      "note": 82,
      "start": 231.1648,
      "duration": 0.1169,
      "velocity": 108,
      "chip": "ym2612"
    },
    {
      "channel": 3,
      "note": 62,
      "start": 231.166,
      "duration": 0.0494,
      "velocity": 120,
      "chip": "ym2612"
    },
    {
      "channel": 4,
      "note": 62,
      "start": 231.1724,
      "duration": 0.1505,
      "velocity": 112,
      "chip": "ym2612"
    },
    {
      "channel": 1,
      "note": 70,
      "start": 231.3157,
      "duration": 0.1178,
      "velocity": 110,
      "chip": "ym2612"
    },
    {
      "channel": 3,
      "note": 50,
      "start": 231.3169,
      "duration": 0.0501,
      "velocity": 120,
      "chip": "ym2612"
    },
    {
      "channel": 4,
      "note": 62,
      "start": 231.3241,
      "duration": 0.1505,
      "velocity": 112,
      "chip": "ym2612"
    },
    {
      "channel": 1,
      "note": 70,
      "start": 231.4673,
      "duration": 0.1178,
      "velocity": 109,
      "chip": "ym2612"
    },
    {
      "channel": 3,
      "note": 50,
      "start": 231.4685,
      "duration": 0.0501,
      "velocity": 120,
      "chip": "ym2612"
    },
    {
      "channel": 4,
      "note": 62,
      "start": 231.4757,
      "duration": 0.1505,
      "velocity": 112,
      "chip": "ym2612"
    },
    {
      "channel": 1,
      "note": 82,
      "start": 231.619,
      "duration": 0.1178,
      "velocity": 111,
      "chip": "ym2612"
    },
    {
      "channel": 3,
      "note": 62,
      "start": 231.6202,
      "duration": 0.0502,
      "velocity": 120,
      "chip": "ym2612"
    },
    {
      "channel": 4,
      "note": 62,
      "start": 231.6275,
      "duration": 0.1505,
      "velocity": 112,
      "chip": "ym2612"
    },
    {
      "channel": 0,
      "note": 40,
      "start": 231.7703,
      "duration": 0.3028,
      "velocity": 127,
      "chip": "ym2612"
    },
    {
      "channel": 1,
      "note": 82,
      "start": 231.7709,
      "duration": 0.1176,
      "velocity": 112,
      "chip": "ym2612"
    },
    {
      "channel": 3,
      "note": 50,
      "start": 231.7721,
      "duration": 0.05,
      "velocity": 120,
      "chip": "ym2612"
    },
    {
      "channel": 4,
      "note": 62,
      "start": 231.7791,
      "duration": 0.1505,
      "velocity": 112,
      "chip": "ym2612"
    },
    {
      "channel": 1,
      "note": 70,
      "start": 231.9224,
      "duration": 0.1178,
      "velocity": 109,
      "chip": "ym2612"
    },
    {
      "channel": 3,
      "note": 62,
      "start": 231.9237,
      "duration": 0.0502,
      "velocity": 120,
      "chip": "ym2612"
    },
    {
      "channel": 4,
      "note": 62,
      "start": 231.9308,
      "duration": 0.1505,
      "velocity": 112,
      "chip": "ym2612"
    },
    {
      "channel": 0,
      "note": 41,
      "start": 232.0742,
      "duration": 0.3022,
      "velocity": 123,
      "chip": "ym2612"
    },
    {
      "channel": 1,
      "note": 82,
      "start": 232.0749,
      "duration": 0.1169,
      "velocity": 108,
      "chip": "ym2612"
    },
    {
      "channel": 3,
      "note": 50,
      "start": 232.0761,
      "duration": 0.0494,
      "velocity": 120,
      "chip": "ym2612"
    },
    {
      "channel": 4,
      "note": 62,
      "start": 232.0819,
      "duration": 0.1511,
      "velocity": 112,
      "chip": "ym2612"
    },
    {
      "channel": 1,
      "note": 70,
      "start": 232.2257,
      "duration": 0.1178,
      "velocity": 112,
      "chip": "ym2612"
    },
    {
      "channel": 3,
      "note": 50,
      "start": 232.227,
      "duration": 0.0501,
      "velocity": 120,
      "chip": "ym2612"
    },
    {
      "channel": 4,
      "note": 62,
      "start": 232.2341,
      "duration": 0.1505,
      "velocity": 112,
      "chip": "ym2612"
    },
    {
      "channel": 0,
      "note": 40,
      "start": 232.3775,
      "duration": 0.6057,
      "velocity": 127,
      "chip": "ym2612"
    },
    {
      "channel": 1,
      "note": 70,
      "start": 232.3782,
      "duration": 0.117,
      "velocity": 111,
      "chip": "ym2612"
    },
    {
      "channel": 3,
      "note": 62,
      "start": 232.3794,
      "duration": 0.0494,
      "velocity": 120,
      "chip": "ym2612"
    },
    {
      "channel": 4,
      "note": 62,
      "start": 232.3859,
      "duration": 0.1505,
      "velocity": 112,
      "chip": "ym2612"
    },
    {
      "channel": 1,
      "note": 82,
      "start": 232.5291,
      "duration": 0.1178,
      "velocity": 109,
      "chip": "ym2612"
    },
    {
      "channel": 3,
      "note": 50,
      "start": 232.5303,
      "duration": 0.0501,
      "velocity": 120,
      "chip": "ym2612"
    },
    {
      "channel": 4,
      "note": 62,
      "start": 232.5375,
      "duration": 0.1505,
      "velocity": 112,
      "chip": "ym2612"
    },
    {
      "channel": 1,
      "note": 70,
      "start": 232.6808,
      "duration": 0.1178,
      "velocity": 111,
      "chip": "ym2612"
    },
    {
      "channel": 3,
      "note": 50,
      "start": 232.682,
      "duration": 0.0502,
      "velocity": 120,
      "chip": "ym2612"
    },
    {
      "channel": 4,
      "note": 62,
      "start": 232.6892,
      "duration": 0.1505,
      "velocity": 112,
      "chip": "ym2612"
    },
    {
      "channel": 1,
      "note": 70,
      "start": 232.8325,
      "duration": 0.1177,
      "velocity": 112,
      "chip": "ym2612"
    },
    {
      "channel": 3,
      "note": 62,
      "start": 232.8337,
      "duration": 0.0501,
      "velocity": 120,
      "chip": "ym2612"
    },
    {
      "channel": 4,
      "note": 62,
      "start": 232.841,
      "duration": 0.1504,
      "velocity": 112,
      "chip": "ym2612"
    },
    {
      "channel": 0,
      "note": 40,
      "start": 232.9837,
      "duration": 0.3029,
      "velocity": 127,
      "chip": "ym2612"
    },
    {
      "channel": 1,
      "note": 68,
      "start": 232.9844,
      "duration": 0.1175,
      "velocity": 108,
      "chip": "ym2612"
    },
    {
      "channel": 2,
      "note": 7,
      "start": 232.9851,
      "duration": 2.427,
      "velocity": 1,
      "chip": "ym2612"
    },
    {
      "channel": 3,
      "note": 49,
      "start": 232.9858,
      "duration": 0.0497,
      "velocity": 120,
      "chip": "ym2612"
    },
    {
      "channel": 4,
      "note": 61,
      "start": 232.9926,
      "duration": 0.1505,
      "velocity": 112,
      "chip": "ym2612"
    },
    {
      "channel": 5,
      "note": 7,
      "start": 232.9933,
      "duration": 2.4264,
      "velocity": 1,
      "chip": "ym2612"
    },
    {
      "channel": 1,
      "note": 80,
      "start": 233.1359,
      "duration": 0.1178,
      "velocity": 108,
      "chip": "ym2612"
    },
    {
      "channel": 3,
      "note": 61,
      "start": 233.1371,
      "duration": 0.0501,
      "velocity": 120,
      "chip": "ym2612"
    },
    {
      "channel": 4,
      "note": 61,
      "start": 233.1443,
      "duration": 0.1505,
      "velocity": 112,
      "chip": "ym2612"
    },
    {
      "channel": 0,
      "note": 41,
      "start": 233.2876,
      "duration": 0.3023,
      "velocity": 123,
      "chip": "ym2612"
    },
    {
      "channel": 1,
      "note": 80,
      "start": 233.2883,
      "duration": 0.1169,
      "velocity": 112,
      "chip": "ym2612"
    },
    {
      "channel": 3,
      "note": 49,
      "start": 233.2895,
      "duration": 0.0493,
      "velocity": 120,
      "chip": "ym2612"
    },
    {
      "channel": 4,
      "note": 61,
      "start": 233.2959,
      "duration": 0.1506,
      "velocity": 112,
      "chip": "ym2612"
    },
    {
      "channel": 1,
      "note": 68,
      "start": 233.4392,
      "duration": 0.1179,
      "velocity": 109,
      "chip": "ym2612"
    },
    {
      "channel": 3,
      "note": 49,
      "start": 233.4404,
      "duration": 0.0502,
      "velocity": 120,
      "chip": "ym2612"
    },
    {
      "channel": 4,
      "note": 61,
      "start": 233.4476,
      "duration": 0.1505,
      "velocity": 112,
      "chip": "ym2612"
    },
    {
      "channel": 0,
      "note": 40,
      "start": 233.5911,
      "duration": 0.3022,
      "velocity": 127,
      "chip": "ym2612"
    },
    {
      "channel": 1,
      "note": 80,
      "start": 233.5917,
      "duration": 0.1169,
      "velocity": 108,
      "chip": "ym2612"
    },
    {
      "channel": 3,
      "note": 61,
      "start": 233.5929,
      "duration": 0.0494,
      "velocity": 120,
      "chip": "ym2612"
    },
    {
      "channel": 4,
      "note": 61,
      "start": 233.5993,
      "duration": 0.1505,
      "velocity": 112,
      "chip": "ym2612"
    },
    {
      "channel": 1,
      "note": 68,
      "start": 233.7425,
      "duration": 0.1178,
      "velocity": 110,
      "chip": "ym2612"
    },
    {
      "channel": 3,
      "note": 49,
      "start": 233.7437,
      "duration": 0.0502,
      "velocity": 120,
      "chip": "ym2612"
    },
    {
      "channel": 4,
      "note": 61,
      "start": 233.751,
      "duration": 0.1505,
      "velocity": 112,
      "chip": "ym2612"
    },
    {
      "channel": 0,
      "note": 41,
      "start": 233.8944,
      "duration": 0.3022,
      "velocity": 123,
      "chip": "ym2612"
    },
    {
      "channel": 1,
      "note": 68,
      "start": 233.8951,
      "duration": 0.1169,
      "velocity": 109,
      "chip": "ym2612"
    },
    {
      "channel": 3,
      "note": 49,
      "start": 233.8963,
      "duration": 0.0493,
      "velocity": 120,
      "chip": "ym2612"
    },
    {
      "channel": 4,
      "note": 61,
      "start": 233.9027,
      "duration": 0.1505,
      "velocity": 112,
      "chip": "ym2612"
    },
    {
      "channel": 1,
      "note": 80,
      "start": 234.0459,
      "duration": 0.1177,
      "velocity": 111,
      "chip": "ym2612"
    },
    {
      "channel": 3,
      "note": 61,
      "start": 234.0471,
      "duration": 0.0501,
      "velocity": 120,
      "chip": "ym2612"
    },
    {
      "channel": 4,
      "note": 61,
      "start": 234.0544,
      "duration": 0.1505,
      "velocity": 112,
      "chip": "ym2612"
    },
    {
      "channel": 0,
      "note": 40,
      "start": 234.1978,
      "duration": 0.6057,
      "velocity": 127,
      "chip": "ym2612"
    },
    {
      "channel": 1,
      "note": 80,
      "start": 234.1984,
      "duration": 0.117,
      "velocity": 112,
      "chip": "ym2612"
    },
    {
      "channel": 3,
      "note": 49,
      "start": 234.1996,
      "duration": 0.0494,
      "velocity": 120,
      "chip": "ym2612"
    },
    {
      "channel": 4,
      "note": 61,
      "start": 234.206,
      "duration": 0.1505,
      "velocity": 112,
      "chip": "ym2612"
    },
    {
      "channel": 1,
      "note": 68,
      "start": 234.3493,
      "duration": 0.1178,
      "velocity": 109,
      "chip": "ym2612"
    },
    {
      "channel": 3,
      "note": 61,
      "start": 234.3505,
      "duration": 0.0502,
      "velocity": 120,
      "chip": "ym2612"
    },
    {
      "channel": 4,
      "note": 61,
      "start": 234.3577,
      "duration": 0.1505,
      "velocity": 112,
      "chip": "ym2612"
    },
    {
      "channel": 1,
      "note": 80,
      "start": 234.5009,
      "duration": 0.1178,
      "velocity": 108,
      "chip": "ym2612"
    },
    {
      "channel": 3,
      "note": 49,
      "start": 234.5022,
      "duration": 0.0502,
      "velocity": 120,
      "chip": "ym2612"
    },
    {
      "channel": 4,
      "note": 61,
      "start": 234.5088,
      "duration": 0.1511,
      "velocity": 112,
      "chip": "ym2612"
    },
    {
      "channel": 1,
      "note": 68,
      "start": 234.6527,
      "duration": 0.1178,
      "velocity": 112,
      "chip": "ym2612"
    },
    {
      "channel": 3,
      "note": 49,
      "start": 234.6539,
      "duration": 0.0501,
      "velocity": 120,
      "chip": "ym2612"
    },
    {
      "channel": 4,
      "note": 61,
      "start": 234.661,
      "duration": 0.1505,
      "velocity": 112,
      "chip": "ym2612"
    },
    {
      "channel": 0,
      "note": 40,
      "start": 234.8039,
      "duration": 0.3029,
      "velocity": 127,
      "chip": "ym2612"
    },
    {
      "channel": 1,
      "note": 68,
      "start": 234.8046,
      "duration": 0.1176,
      "velocity": 111,
      "chip": "ym2612"
    },
    {
      "channel": 3,
      "note": 61,
      "start": 234.8058,
      "duration": 0.05,
      "velocity": 120,
      "chip": "ym2612"
    },
    {
      "channel": 4,
      "note": 61,
      "start": 234.8128,
      "duration": 0.1505,
      "velocity": 112,
      "chip": "ym2612"
    },
    {
      "channel": 1,
      "note": 80,
      "start": 234.956,
      "duration": 0.1178,
      "velocity": 109,
      "chip": "ym2612"
    },
    {
      "channel": 3,
      "note": 49,
      "start": 234.9572,
      "duration": 0.0502,
      "velocity": 120,
      "chip": "ym2612"
    },
    {
      "channel": 4,
      "note": 61,
      "start": 234.9644,
      "duration": 0.1505,
      "velocity": 112,
      "chip": "ym2612"
    },
    {
      "channel": 0,
      "note": 41,
      "start": 235.1079,
      "duration": 0.3022,
      "velocity": 123,
      "chip": "ym2612"
    },
    {
      "channel": 1,
      "note": 68,
      "start": 235.1086,
      "duration": 0.1168,
      "velocity": 111,
      "chip": "ym2612"
    },
    {
      "channel": 3,
      "note": 49,
      "start": 235.1098,
      "duration": 0.0493,
      "velocity": 120,
      "chip": "ym2612"
    },
    {
      "channel": 4,
      "note": 61,
      "start": 235.1161,
      "duration": 0.1506,
      "velocity": 112,
      "chip": "ym2612"
    },
    {
      "channel": 1,
      "note": 68,
      "start": 235.2594,
      "duration": 0.1178,
      "velocity": 112,
      "chip": "ym2612"
    },
    {
      "channel": 3,
      "note": 61,
      "start": 235.2606,
      "duration": 0.0501,
      "velocity": 120,
      "chip": "ym2612"
    },
    {
      "channel": 4,
      "note": 61,
      "start": 235.2678,
      "duration": 0.1505,
      "velocity": 112,
      "chip": "ym2612"
    },
    {
      "channel": 0,
      "note": 40,
      "start": 235.4112,
      "duration": 0.3023,
      "velocity": 127,
      "chip": "ym2612"
    },
    {
      "channel": 1,
      "note": 67,
      "start": 235.4119,
      "duration": 0.1169,
      "velocity": 108,
      "chip": "ym2612"
    },
    {
      "channel": 2,
      "note": 7,
      "start": 235.4126,
      "duration": 2.427,
      "velocity": 1,
      "chip": "ym2612"
    },
    {
      "channel": 3,
      "note": 51,
      "start": 235.4133,
      "duration": 0.0492,
      "velocity": 120,
      "chip": "ym2612"
    },
    {
      "channel": 4,
      "note": 63,
      "start": 235.4195,
      "duration": 0.1506,
      "velocity": 112,
      "chip": "ym2612"
    },
    {
      "channel": 5,
      "note": 7,
      "start": 235.4202,
      "duration": 2.4265,
      "velocity": 1,
      "chip": "ym2612"
    },
    {
      "channel": 1,
      "note": 79,
      "start": 235.5627,
      "duration": 0.1178,
      "velocity": 108,
      "chip": "ym2612"
    },
    {
      "channel": 3,
      "note": 63,
      "start": 235.5639,
      "duration": 0.0502,
      "velocity": 120,
      "chip": "ym2612"
    },
    {
      "channel": 4,
      "note": 63,
      "start": 235.5712,
      "duration": 0.1505,
      "velocity": 112,
      "chip": "ym2612"
    },
    {
      "channel": 0,
      "note": 41,
      "start": 235.7146,
      "duration": 0.3023,
      "velocity": 123,
      "chip": "ym2612"
    },
    {
      "channel": 1,
      "note": 79,
      "start": 235.7152,
      "duration": 0.1169,
      "velocity": 112,
      "chip": "ym2612"
    },
    {
      "channel": 3,
      "note": 51,
      "start": 235.7165,
      "duration": 0.0493,
      "velocity": 120,
      "chip": "ym2612"
    },
    {
      "channel": 4,
      "note": 63,
      "start": 235.7228,
      "duration": 0.1505,
      "velocity": 112,
      "chip": "ym2612"
    },
    {
      "channel": 1,
      "note": 67,
      "start": 235.8661,
      "duration": 0.1178,
      "velocity": 109,
      "chip": "ym2612"
    },
    {
      "channel": 3,
      "note": 51,
      "start": 235.8673,
      "duration": 0.0502,
      "velocity": 120,
      "chip": "ym2612"
    },
    {
      "channel": 4,
      "note": 63,
      "start": 235.8745,
      "duration": 0.1505,
      "velocity": 112,
      "chip": "ym2612"
    },
    {
      "channel": 0,
      "note": 40,
      "start": 236.0179,
      "duration": 0.6057,
      "velocity": 127,
      "chip": "ym2612"
    },
    {
      "channel": 1,
      "note": 79,
      "start": 236.0186,
      "duration": 0.1169,
      "velocity": 108,
      "chip": "ym2612"
    },
    {
      "channel": 3,
      "note": 63,
      "start": 236.0198,
      "duration": 0.0493,
      "velocity": 120,
      "chip": "ym2612"
    },
    {
      "channel": 4,
      "note": 63,
      "start": 236.0262,
      "duration": 0.1505,
      "velocity": 112,
      "chip": "ym2612"
    },
    {
      "channel": 1,
      "note": 67,
      "start": 236.1695,
      "duration": 0.1177,
      "velocity": 110,
      "chip": "ym2612"
    },
    {
      "channel": 3,
      "note": 51,
      "start": 236.1707,
      "duration": 0.0502,
      "velocity": 120,
      "chip": "ym2612"
    },
    {
      "channel": 4,
      "note": 63,
      "start": 236.1779,
      "duration": 0.1505,
      "velocity": 112,
      "chip": "ym2612"
    },
    {
      "channel": 1,
      "note": 67,
      "start": 236.3212,
      "duration": 0.1178,
      "velocity": 109,
      "chip": "ym2612"
    },
    {
      "channel": 3,
      "note": 51,
      "start": 236.3224,
      "duration": 0.0501,
      "velocity": 120,
      "chip": "ym2612"
    },
    {
      "channel": 4,
      "note": 63,
      "start": 236.3296,
      "duration": 0.1505,
      "velocity": 112,
      "chip": "ym2612"
    },
    {
      "channel": 1,
      "note": 79,
      "start": 236.4728,
      "duration": 0.1178,
      "velocity": 111,
      "chip": "ym2612"
    },
    {
      "channel": 3,
      "note": 63,
      "start": 236.474,
      "duration": 0.0502,
      "velocity": 120,
      "chip": "ym2612"
    },
    {
      "channel": 4,
      "note": 63,
      "start": 236.4812,
      "duration": 0.1506,
      "velocity": 112,
      "chip": "ym2612"
    },
    {
      "channel": 0,
      "note": 40,
      "start": 236.6241,
      "duration": 0.3028,
      "velocity": 127,
      "chip": "ym2612"
    },
    {
      "channel": 1,
      "note": 79,
      "start": 236.6248,
      "duration": 0.1175,
      "velocity": 112,
      "chip": "ym2612"
    },
    {
      "channel": 3,
      "note": 51,
      "start": 236.626,
      "duration": 0.0499,
      "velocity": 120,
      "chip": "ym2612"
    },
    {
      "channel": 4,
      "note": 63,
      "start": 236.6329,
      "duration": 0.1505,
      "velocity": 112,
      "chip": "ym2612"
    },
    {
      "channel": 1,
      "note": 67,
      "start": 236.7762,
      "duration": 0.1178,
      "velocity": 109,
      "chip": "ym2612"
    },
    {
      "channel": 3,
      "note": 63,
      "start": 236.7774,
      "duration": 0.0501,
      "velocity": 120,
      "chip": "ym2612"
    },
    {
      "channel": 4,
      "note": 63,
      "start": 236.7846,
      "duration": 0.1506,
      "velocity": 112,
      "chip": "ym2612"
    },
    {
      "channel": 0,
      "note": 41,
      "start": 236.928,
      "duration": 0.3023,
      "velocity": 123,
      "chip": "ym2612"
    },
    {
      "channel": 1,
      "note": 79,
      "start": 236.9287,
      "duration": 0.117,
      "velocity": 108,
      "chip": "ym2612"
    },
    {
      "channel": 3,
      "note": 51,
      "start": 236.9299,
      "duration": 0.0494,
      "velocity": 120,
      "chip": "ym2612"
    },
    {
      "channel": 4,
      "note": 63,
      "start": 236.9357,
      "duration": 0.1511,
      "velocity": 112,
      "chip": "ym2612"
    },
    {
      "channel": 1,
      "note": 67,
      "start": 237.0796,
      "duration": 0.1177,
      "velocity": 112,
      "chip": "ym2612"
    },
    {
      "channel": 3,
      "note": 51,
      "start": 237.0808,
      "duration": 0.0501,
      "velocity": 120,
      "chip": "ym2612"
    },
    {
      "channel": 4,
      "note": 63,
      "start": 237.088,
      "duration": 0.1505,
      "velocity": 112,
      "chip": "ym2612"
    },
    {
      "channel": 0,
      "note": 40,
      "start": 237.2313,
      "duration": 0.6057,
      "velocity": 127,
      "chip": "ym2612"
    },
    {
      "channel": 1,
      "note": 67,
      "start": 237.232,
      "duration": 0.1169,
      "velocity": 111,
      "chip": "ym2612"
    },
    {
      "channel": 3,
      "note": 63,
      "start": 237.2332,
      "duration": 0.0494,
      "velocity": 120,
      "chip": "ym2612"
    },
    {
      "channel": 4,
      "note": 63,
      "start": 237.2397,
      "duration": 0.1505,
      "velocity": 112,
      "chip": "ym2612"
    },
    {
      "channel": 1,
      "note": 79,
      "start": 237.3829,
      "duration": 0.1178,
      "velocity": 109,
      "chip": "ym2612"
    },
    {
      "channel": 3,
      "note": 51,
      "start": 237.3841,
      "duration": 0.0501,
      "velocity": 120,
      "chip": "ym2612"
    },
    {
      "channel": 4,
      "note": 63,
      "start": 237.3914,
      "duration": 0.1505,
      "velocity": 112,
      "chip": "ym2612"
    },
    {
      "channel": 1,
      "note": 67,
      "start": 237.5346,
      "duration": 0.1178,
      "velocity": 111,
      "chip": "ym2612"
    },
    {
      "channel": 3,
      "note": 51,
      "start": 237.5358,
      "duration": 0.0502,
      "velocity": 120,
      "chip": "ym2612"
    },
    {
      "channel": 4,
      "note": 63,
      "start": 237.543,
      "duration": 0.1506,
      "velocity": 112,
      "chip": "ym2612"
    },
    {
      "channel": 1,
      "note": 67,
      "start": 237.6862,
      "duration": 0.1178,
      "velocity": 112,
      "chip": "ym2612"
    },
    {
      "channel": 3,
      "note": 63,
      "start": 237.6875,
      "duration": 0.0502,
      "velocity": 120,
      "chip": "ym2612"
    },
    {
      "channel": 4,
      "note": 63,
      "start": 237.6947,
      "duration": 0.1505,
      "velocity": 112,
      "chip": "ym2612"
    },
    {
      "channel": 0,
      "note": 65,
      "start": 237.8381,
      "duration": 0.0834,
      "velocity": 112,
      "chip": "ym2612"
    },
    {
      "channel": 1,
      "note": 7,
      "start": 237.8394,
      "duration": 2.4252,
      "velocity": 1,
      "chip": "ym2612"
    },
    {
      "channel": 2,
      "note": 65,
      "start": 237.8407,
      "duration": 0.149,
      "velocity": 112,
      "chip": "ym2612"
    },
    {
      "channel": 3,
      "note": 65,
      "start": 237.842,
      "duration": 0.1147,
      "velocity": 108,
      "chip": "ym2612"
    },
    {
      "channel": 4,
      "note": 53,
      "start": 237.8465,
      "duration": 0.0329,
      "velocity": 105,
      "chip": "ym2612"
    },
    {
      "channel": 5,
      "note": 7,
      "start": 237.8472,
      "duration": 2.4258,
      "velocity": 1,
      "chip": "ym2612"
    },
    {
      "channel": 0,
      "note": 65,
      "start": 237.9892,
      "duration": 0.084,
      "velocity": 112,
      "chip": "ym2612"
    },
    {
      "channel": 2,
      "note": 65,
      "start": 237.991,
      "duration": 0.1506,
      "velocity": 112,
      "chip": "ym2612"
    },
    {
      "channel": 3,
      "note": 77,
      "start": 237.9917,
      "duration": 0.1167,
      "velocity": 108,
      "chip": "ym2612"
    },
    {
      "channel": 0,
      "note": 65,
      "start": 238.1409,
      "duration": 0.084,
      "velocity": 112,
      "chip": "ym2612"
    },
    {
      "channel": 2,
      "note": 65,
      "start": 238.1427,
      "duration": 0.1505,
      "velocity": 112,
      "chip": "ym2612"
    },
    {
      "channel": 3,
      "note": 77,
      "start": 238.1434,
      "duration": 0.1167,
      "velocity": 112,
      "chip": "ym2612"
    },
    {
      "channel": 0,
      "note": 65,
      "start": 238.2925,
      "duration": 0.084,
      "velocity": 112,
      "chip": "ym2612"
    },
    {
      "channel": 2,
      "note": 65,
      "start": 238.2943,
      "duration": 0.1506,
      "velocity": 112,
      "chip": "ym2612"
    },
    {
      "channel": 3,
      "note": 65,
      "start": 238.295,
      "duration": 0.1167,
      "velocity": 109,
      "chip": "ym2612"
    },
    {
      "channel": 0,
      "note": 65,
      "start": 238.4442,
      "duration": 0.0841,
      "velocity": 112,
      "chip": "ym2612"
    },
    {
      "channel": 2,
      "note": 65,
      "start": 238.446,
      "duration": 0.1505,
      "velocity": 112,
      "chip": "ym2612"
    },
    {
      "channel": 3,
      "note": 77,
      "start": 238.4467,
      "duration": 0.1167,
      "velocity": 108,
      "chip": "ym2612"
    },
    {
      "channel": 0,
      "note": 65,
      "start": 238.5959,
      "duration": 0.084,
      "velocity": 112,
      "chip": "ym2612"
    },
    {
      "channel": 2,
      "note": 65,
      "start": 238.5977,
      "duration": 0.1505,
      "velocity": 112,
      "chip": "ym2612"
    },
    {
      "channel": 3,
      "note": 65,
      "start": 238.5984,
      "duration": 0.1167,
      "velocity": 110,
      "chip": "ym2612"
    },
    {
      "channel": 0,
      "note": 65,
      "start": 238.7476,
      "duration": 0.084,
      "velocity": 112,
      "chip": "ym2612"
    },
    {
      "channel": 2,
      "note": 65,
      "start": 238.7494,
      "duration": 0.1505,
      "velocity": 112,
      "chip": "ym2612"
    },
    {
      "channel": 3,
      "note": 65,
      "start": 238.75,
      "duration": 0.1167,
      "velocity": 109,
      "chip": "ym2612"
    },
    {
      "channel": 0,
      "note": 65,
      "start": 238.8993,
      "duration": 0.084,
      "velocity": 112,
      "chip": "ym2612"
    },
    {
      "channel": 2,
      "note": 65,
      "start": 238.9011,
      "duration": 0.1505,
      "velocity": 112,
      "chip": "ym2612"
    },
    {
      "channel": 3,
      "note": 77,
      "start": 238.9018,
      "duration": 0.1167,
      "velocity": 111,
      "chip": "ym2612"
    },
    {
      "channel": 0,
      "note": 65,
      "start": 239.0509,
      "duration": 0.084,
      "velocity": 112,
      "chip": "ym2612"
    },
    {
      "channel": 2,
      "note": 65,
      "start": 239.0527,
      "duration": 0.1506,
      "velocity": 112,
      "chip": "ym2612"
    },
    {
      "channel": 3,
      "note": 77,
      "start": 239.0534,
      "duration": 0.1167,
      "velocity": 112,
      "chip": "ym2612"
    },
    {
      "channel": 4,
      "note": 53,
      "start": 239.0594,
      "duration": 0.0335,
      "velocity": 105,
      "chip": "ym2612"
    },
    {
      "channel": 0,
      "note": 65,
      "start": 239.2027,
      "duration": 0.084,
      "velocity": 112,
      "chip": "ym2612"
    },
    {
      "channel": 2,
      "note": 65,
      "start": 239.2044,
      "duration": 0.1506,
      "velocity": 112,
      "chip": "ym2612"
    },
    {
      "channel": 3,
      "note": 65,
      "start": 239.2051,
      "duration": 0.1167,
      "velocity": 109,
      "chip": "ym2612"
    },
    {
      "channel": 0,
      "note": 65,
      "start": 239.3543,
      "duration": 0.084,
      "velocity": 112,
      "chip": "ym2612"
    },
    {
      "channel": 2,
      "note": 65,
      "start": 239.3555,
      "duration": 0.1512,
      "velocity": 112,
      "chip": "ym2612"
    },
    {
      "channel": 3,
      "note": 77,
      "start": 239.3562,
      "duration": 0.1174,
      "velocity": 108,
      "chip": "ym2612"
    },
    {
      "channel": 0,
      "note": 65,
      "start": 239.506,
      "duration": 0.0841,
      "velocity": 112,
      "chip": "ym2612"
    },
    {
      "channel": 2,
      "note": 65,
      "start": 239.5079,
      "duration": 0.1505,
      "velocity": 112,
      "chip": "ym2612"
    },
    {
      "channel": 3,
      "note": 65,
      "start": 239.5085,
      "duration": 0.1167,
      "velocity": 112,
      "chip": "ym2612"
    },
    {
      "channel": 0,
      "note": 65,
      "start": 239.6577,
      "duration": 0.084,
      "velocity": 112,
      "chip": "ym2612"
    },
    {
      "channel": 2,
      "note": 65,
      "start": 239.6595,
      "duration": 0.1505,
      "velocity": 112,
      "chip": "ym2612"
    },
    {
      "channel": 3,
      "note": 65,
      "start": 239.6602,
      "duration": 0.1167,
      "velocity": 111,
      "chip": "ym2612"
    },
    {
      "channel": 0,
      "note": 65,
      "start": 239.8093,
      "duration": 0.084,
      "velocity": 112,
      "chip": "ym2612"
    },
    {
      "channel": 2,
      "note": 65,
      "start": 239.8112,
      "duration": 0.1505,
      "velocity": 112,
      "chip": "ym2612"
    },
    {
      "channel": 3,
      "note": 77,
      "start": 239.8118,
      "duration": 0.1167,
      "velocity": 109,
      "chip": "ym2612"
    },
    {
      "channel": 0,
      "note": 65,
      "start": 239.961,
      "duration": 0.084,
      "velocity": 112,
      "chip": "ym2612"
    },
    {
      "channel": 2,
      "note": 65,
      "start": 239.9628,
      "duration": 0.1505,
      "velocity": 112,
      "chip": "ym2612"
    },
    {
      "channel": 3,
      "note": 65,
      "start": 239.9635,
      "duration": 0.1167,
      "velocity": 111,
      "chip": "ym2612"
    },
    {
      "channel": 0,
      "note": 65,
      "start": 240.1127,
      "duration": 0.084,
      "velocity": 112,
      "chip": "ym2612"
    },
    {
      "channel": 2,
      "note": 65,
      "start": 240.1146,
      "duration": 0.1507,
      "velocity": 112,
      "chip": "ym2612"
    },
    {
      "channel": 3,
      "note": 65,
      "start": 240.1152,
      "duration": 0.1167,
      "velocity": 112,
      "chip": "ym2612"
    },
    {
      "channel": 0,
      "note": 65,
      "start": 240.2644,
      "duration": 0.084,
      "velocity": 112,
      "chip": "ym2612"
    },
    {
      "channel": 1,
      "note": 7,
      "start": 240.2651,
      "duration": 2.4264,
      "velocity": 1,
      "chip": "ym2612"
    },
    {
      "channel": 2,
      "note": 65,
      "start": 240.2665,
      "duration": 0.1502,
      "velocity": 112,
      "chip": "ym2612"
    },
    {
      "channel": 3,
      "note": 65,
      "start": 240.2671,
      "duration": 0.1165,
      "velocity": 108,
      "chip": "ym2612"
    },
    {
      "channel": 4,
      "note": 53,
      "start": 240.2728,
      "duration": 0.0335,
      "velocity": 105,
      "chip": "ym2612"
    },
    {
      "channel": 5,
      "note": 7,
      "start": 240.2736,
      "duration": 2.4263,
      "velocity": 1,
      "chip": "ym2612"
    },
    {
      "channel": 0,
      "note": 65,
      "start": 240.4161,
      "duration": 0.084,
      "velocity": 112,
      "chip": "ym2612"
    },
    {
      "channel": 2,
      "note": 65,
      "start": 240.4178,
      "duration": 0.1506,
      "velocity": 112,
      "chip": "ym2612"
    },
    {
      "channel": 3,
      "note": 77,
      "start": 240.4185,
      "duration": 0.1167,
      "velocity": 109,
      "chip": "ym2612"
    },
    {
      "channel": 0,
      "note": 65,
      "start": 240.5677,
      "duration": 0.0841,
      "velocity": 112,
      "chip": "ym2612"
    },
    {
      "channel": 2,
      "note": 65,
      "start": 240.5696,
      "duration": 0.1505,
      "velocity": 112,
      "chip": "ym2612"
    },
    {
      "channel": 3,
      "note": 77,
      "start": 240.5703,
      "duration": 0.1167,
      "velocity": 110,
      "chip": "ym2612"
    },
    {
      "channel": 0,
      "note": 65,
      "start": 240.7195,
      "duration": 0.084,
      "velocity": 112,
      "chip": "ym2612"
    },
    {
      "channel": 2,
      "note": 65,
      "start": 240.7212,
      "duration": 0.1506,
      "velocity": 112,
      "chip": "ym2612"
    },
    {
      "channel": 3,
      "note": 65,
      "start": 240.7219,
      "duration": 0.1167,
      "velocity": 111,
      "chip": "ym2612"
    },
    {
      "channel": 0,
      "note": 65,
      "start": 240.8711,
      "duration": 0.084,
      "velocity": 112,
      "chip": "ym2612"
    },
    {
      "channel": 2,
      "note": 65,
      "start": 240.8724,
      "duration": 0.1511,
      "velocity": 112,
      "chip": "ym2612"
    },
    {
      "channel": 3,
      "note": 77,
      "start": 240.873,
      "duration": 0.1174,
      "velocity": 108,
      "chip": "ym2612"
    },
    {
      "channel": 0,
      "note": 65,
      "start": 241.0228,
      "duration": 0.0841,
      "velocity": 112,
      "chip": "ym2612"
    },
    {
      "channel": 2,
      "note": 65,
      "start": 241.0247,
      "duration": 0.1504,
      "velocity": 112,
      "chip": "ym2612"
    },
    {
      "channel": 3,
      "note": 65,
      "start": 241.0254,
      "duration": 0.1167,
      "velocity": 109,
      "chip": "ym2612"
    },
    {
      "channel": 0,
      "note": 65,
      "start": 241.1745,
      "duration": 0.084,
      "velocity": 112,
      "chip": "ym2612"
    },
    {
      "channel": 2,
      "note": 65,
      "start": 241.1763,
      "duration": 0.1505,
      "velocity": 112,
      "chip": "ym2612"
    },
    {
      "channel": 3,
      "note": 65,
      "start": 241.177,
      "duration": 0.1167,
      "velocity": 112,
      "chip": "ym2612"
    },
    {
      "channel": 0,
      "note": 65,
      "start": 241.3261,
      "duration": 0.0841,
      "velocity": 112,
      "chip": "ym2612"
    },
    {
      "channel": 2,
      "note": 65,
      "start": 241.328,
      "duration": 0.1505,
      "velocity": 112,
      "chip": "ym2612"
    },
    {
      "channel": 3,
      "note": 77,
      "start": 241.3287,
      "duration": 0.1167,
      "velocity": 110,
      "chip": "ym2612"
    },
    {
      "channel": 0,
      "note": 65,
      "start": 241.4778,
      "duration": 0.084,
      "velocity": 112,
      "chip": "ym2612"
    },
    {
      "channel": 2,
      "note": 65,
      "start": 241.4796,
      "duration": 0.1506,
      "velocity": 112,
      "chip": "ym2612"
    },
    {
      "channel": 3,
      "note": 77,
      "start": 241.4803,
      "duration": 0.1167,
      "velocity": 111,
      "chip": "ym2612"
    },
    {
      "channel": 4,
      "note": 53,
      "start": 241.4862,
      "duration": 0.0335,
      "velocity": 105,
      "chip": "ym2612"
    },
    {
      "channel": 0,
      "note": 65,
      "start": 241.6295,
      "duration": 0.0841,
      "velocity": 112,
      "chip": "ym2612"
    },
    {
      "channel": 2,
      "note": 65,
      "start": 241.6313,
      "duration": 0.1505,
      "velocity": 112,
      "chip": "ym2612"
    },
    {
      "channel": 3,
      "note": 65,
      "start": 241.632,
      "duration": 0.1167,
      "velocity": 108,
      "chip": "ym2612"
    },
    {
      "channel": 0,
      "note": 65,
      "start": 241.7812,
      "duration": 0.084,
      "velocity": 112,
      "chip": "ym2612"
    },
    {
      "channel": 2,
      "note": 65,
      "start": 241.783,
      "duration": 0.1505,
      "velocity": 112,
      "chip": "ym2612"
    },
    {
      "channel": 3,
      "note": 77,
      "start": 241.7837,
      "duration": 0.1167,
      "velocity": 109,
      "chip": "ym2612"
    },
    {
      "channel": 0,
      "note": 65,
      "start": 241.9329,
      "duration": 0.084,
      "velocity": 112,
      "chip": "ym2612"
    },
    {
      "channel": 2,
      "note": 65,
      "start": 241.9347,
      "duration": 0.1505,
      "velocity": 112,
      "chip": "ym2612"
    },
    {
      "channel": 3,
      "note": 65,
      "start": 241.9354,
      "duration": 0.1167,
      "velocity": 112,
      "chip": "ym2612"
    },
    {
      "channel": 0,
      "note": 65,
      "start": 242.0846,
      "duration": 0.084,
      "velocity": 112,
      "chip": "ym2612"
    },
    {
      "channel": 2,
      "note": 65,
      "start": 242.0864,
      "duration": 0.1506,
      "velocity": 112,
      "chip": "ym2612"
    },
    {
      "channel": 3,
      "note": 77,
      "start": 242.0871,
      "duration": 0.1167,
      "velocity": 110,
      "chip": "ym2612"
    },
    {
      "channel": 0,
      "note": 65,
      "start": 242.2362,
      "duration": 0.084,
      "velocity": 112,
      "chip": "ym2612"
    },
    {
      "channel": 2,
      "note": 65,
      "start": 242.2375,
      "duration": 0.1511,
      "velocity": 112,
      "chip": "ym2612"
    },
    {
      "channel": 3,
      "note": 65,
      "start": 242.2381,
      "duration": 0.1173,
      "velocity": 108,
      "chip": "ym2612"
    },
    {
      "channel": 0,
      "note": 65,
      "start": 242.388,
      "duration": 0.084,
      "velocity": 112,
      "chip": "ym2612"
    },
    {
      "channel": 2,
      "note": 65,
      "start": 242.3898,
      "duration": 0.1506,
      "velocity": 112,
      "chip": "ym2612"
    },
    {
      "channel": 3,
      "note": 65,
      "start": 242.3905,
      "duration": 0.1167,
      "velocity": 109,
      "chip": "ym2612"
    },
    {
      "channel": 0,
      "note": 65,
      "start": 242.5396,
      "duration": 0.0841,
      "velocity": 112,
      "chip": "ym2612"
    },
    {
      "channel": 2,
      "note": 65,
      "start": 242.5415,
      "duration": 0.1507,
      "velocity": 112,
      "chip": "ym2612"
    },
    {
      "channel": 3,
      "note": 77,
      "start": 242.5422,
      "duration": 0.1167,
      "velocity": 112,
      "chip": "ym2612"
    },
    {
      "channel": 0,
      "note": 65,
      "start": 242.6913,
      "duration": 0.0841,
      "velocity": 112,
      "chip": "ym2612"
    },
    {
      "channel": 1,
      "note": 7,
      "start": 242.692,
      "duration": 2.4265,
      "velocity": 1,
      "chip": "ym2612"
    },
    {
      "channel": 2,
      "note": 65,
      "start": 242.6934,
      "duration": 0.1503,
      "velocity": 112,
      "chip": "ym2612"
    },
    {
      "channel": 3,
      "note": 65,
      "start": 242.694,
      "duration": 0.1165,
      "velocity": 108,
      "chip": "ym2612"
    },
    {
      "channel": 4,
      "note": 53,
      "start": 242.6997,
      "duration": 0.0335,
      "velocity": 105,
      "chip": "ym2612"
    },
    {
      "channel": 5,
      "note": 7,
      "start": 242.7004,
      "duration": 2.4264,
      "velocity": 1,
      "chip": "ym2612"
    },
    {
      "channel": 0,
      "note": 65,
      "start": 242.843,
      "duration": 0.084,
      "velocity": 112,
      "chip": "ym2612"
    },
    {
      "channel": 2,
      "note": 65,
      "start": 242.8448,
      "duration": 0.1505,
      "velocity": 112,
      "chip": "ym2612"
    },
    {
      "channel": 3,
      "note": 77,
      "start": 242.8455,
      "duration": 0.1167,
      "velocity": 108,
      "chip": "ym2612"
    },
    {
      "channel": 0,
      "note": 65,
      "start": 242.9946,
      "duration": 0.084,
      "velocity": 112,
      "chip": "ym2612"
    },
    {
      "channel": 2,
      "note": 65,
      "start": 242.9965,
      "duration": 0.1505,
      "velocity": 112,
      "chip": "ym2612"
    },
    {
      "channel": 3,
      "note": 77,
      "start": 242.9971,
      "duration": 0.1167,
      "velocity": 112,
      "chip": "ym2612"
    },
    {
      "channel": 0,
      "note": 65,
      "start": 243.1463,
      "duration": 0.084,
      "velocity": 112,
      "chip": "ym2612"
    },
    {
      "channel": 2,
      "note": 65,
      "start": 243.1481,
      "duration": 0.1505,
      "velocity": 112,
      "chip": "ym2612"
    },
    {
      "channel": 3,
      "note": 65,
      "start": 243.1488,
      "duration": 0.1167,
      "velocity": 109,
      "chip": "ym2612"
    },
    {
      "channel": 0,
      "note": 65,
      "start": 243.298,
      "duration": 0.084,
      "velocity": 112,
      "chip": "ym2612"
    },
    {
      "channel": 2,
      "note": 65,
      "start": 243.2998,
      "duration": 0.1506,
      "velocity": 112,
      "chip": "ym2612"
    },
    {
      "channel": 3,
      "note": 77,
      "start": 243.3005,
      "duration": 0.1167,
      "velocity": 108,
      "chip": "ym2612"
    },
    {
      "channel": 0,
      "note": 65,
      "start": 243.4497,
      "duration": 0.084,
      "velocity": 112,
      "chip": "ym2612"
    },
    {
      "channel": 2,
      "note": 65,
      "start": 243.4515,
      "duration": 0.1505,
      "velocity": 112,
      "chip": "ym2612"
    },
    {
      "channel": 3,
      "note": 65,
      "start": 243.4522,
      "duration": 0.1167,
      "velocity": 110,
      "chip": "ym2612"
    },
    {
      "channel": 0,
      "note": 65,
      "start": 243.6014,
      "duration": 0.084,
      "velocity": 112,
      "chip": "ym2612"
    },
    {
      "channel": 2,
      "note": 65,
      "start": 243.6032,
      "duration": 0.1506,
      "velocity": 112,
      "chip": "ym2612"
    },
    {
      "channel": 3,
      "note": 65,
      "start": 243.6039,
      "duration": 0.1167,
      "velocity": 109,
      "chip": "ym2612"
    },
    {
      "channel": 0,
      "note": 65,
      "start": 243.753,
      "duration": 0.0841,
      "velocity": 112,
      "chip": "ym2612"
    },
    {
      "channel": 2,
      "note": 65,
      "start": 243.7549,
      "duration": 0.1505,
      "velocity": 112,
      "chip": "ym2612"
    },
    {
      "channel": 3,
      "note": 77,
      "start": 243.7556,
      "duration": 0.1167,
      "velocity": 111,
      "chip": "ym2612"
    },
    {
      "channel": 0,
      "note": 65,
      "start": 243.9048,
      "duration": 0.084,
      "velocity": 112,
      "chip": "ym2612"
    },
    {
      "channel": 2,
      "note": 65,
      "start": 243.9065,
      "duration": 0.1506,
      "velocity": 112,
      "chip": "ym2612"
    },
    {
      "channel": 3,
      "note": 77,
      "start": 243.9072,
      "duration": 0.1168,
      "velocity": 112,
      "chip": "ym2612"
    },
    {
      "channel": 4,
      "note": 53,
      "start": 243.9132,
      "duration": 0.0335,
      "velocity": 105,
      "chip": "ym2612"
    },
    {
      "channel": 0,
      "note": 65,
      "start": 244.0564,
      "duration": 0.0841,
      "velocity": 112,
      "chip": "ym2612"
    },
    {
      "channel": 2,
      "note": 65,
      "start": 244.0583,
      "duration": 0.1506,
      "velocity": 112,
      "chip": "ym2612"
    },
    {
      "channel": 3,
      "note": 65,
      "start": 244.059,
      "duration": 0.1167,
      "velocity": 109,
      "chip": "ym2612"
    },
    {
      "channel": 0,
      "note": 65,
      "start": 244.2081,
      "duration": 0.084,
      "velocity": 112,
      "chip": "ym2612"
    },
    {
      "channel": 2,
      "note": 65,
      "start": 244.2093,
      "duration": 0.1511,
      "velocity": 112,
      "chip": "ym2612"
    },
    {
      "channel": 3,
      "note": 77,
      "start": 244.21,
      "duration": 0.1173,
      "velocity": 108,
      "chip": "ym2612"
    },
    {
      "channel": 0,
      "note": 65,
      "start": 244.3598,
      "duration": 0.084,
      "velocity": 112,
      "chip": "ym2612"
    },
    {
      "channel": 2,
      "note": 65,
      "start": 244.3616,
      "duration": 0.1505,
      "velocity": 112,
      "chip": "ym2612"
    },
    {
      "channel": 3,
      "note": 65,
      "start": 244.3623,
      "duration": 0.1167,
      "velocity": 112,
      "chip": "ym2612"
    },
    {
      "channel": 0,
      "note": 65,
      "start": 244.5115,
      "duration": 0.084,
      "velocity": 112,
      "chip": "ym2612"
    },
    {
      "channel": 2,
      "note": 65,
      "start": 244.5133,
      "duration": 0.1505,
      "velocity": 112,
      "chip": "ym2612"
    },
    {
      "channel": 3,
      "note": 65,
      "start": 244.514,
      "duration": 0.1167,
      "velocity": 111,
      "chip": "ym2612"
    },
    {
      "channel": 0,
      "note": 65,
      "start": 244.6632,
      "duration": 0.084,
      "velocity": 112,
      "chip": "ym2612"
    },
    {
      "channel": 2,
      "note": 65,
      "start": 244.6649,
      "duration": 0.1506,
      "velocity": 112,
      "chip": "ym2612"
    },
    {
      "channel": 3,
      "note": 77,
      "start": 244.6656,
      "duration": 0.1167,
      "velocity": 109,
      "chip": "ym2612"
    },
    {
      "channel": 0,
      "note": 65,
      "start": 244.8148,
      "duration": 0.0841,
      "velocity": 112,
      "chip": "ym2612"
    },
    {
      "channel": 2,
      "note": 65,
      "start": 244.8166,
      "duration": 0.1505,
      "velocity": 112,
      "chip": "ym2612"
    },
    {
      "channel": 3,
      "note": 65,
      "start": 244.8173,
      "duration": 0.1167,
      "velocity": 111,
      "chip": "ym2612"
    },
    {
      "channel": 0,
      "note": 65,
      "start": 244.9665,
      "duration": 0.084,
      "velocity": 112,
      "chip": "ym2612"
    },
    {
      "channel": 2,
      "note": 65,
      "start": 244.9683,
      "duration": 0.1508,
      "velocity": 112,
      "chip": "ym2612"
    },
    {
      "channel": 3,
      "note": 65,
      "start": 244.969,
      "duration": 0.1167,
      "velocity": 112,
      "chip": "ym2612"
    },
    {
      "channel": 0,
      "note": 65,
      "start": 245.1182,
      "duration": 0.084,
      "velocity": 112,
      "chip": "ym2612"
    },
    {
      "channel": 1,
      "note": 7,
      "start": 245.1189,
      "duration": 2.7297,
      "velocity": 1,
      "chip": "ym2612"
    },
    {
      "channel": 2,
      "note": 65,
      "start": 245.1202,
      "duration": 0.1503,
      "velocity": 112,
      "chip": "ym2612"
    },
    {
      "channel": 3,
      "note": 65,
      "start": 245.1209,
      "duration": 0.1165,
      "velocity": 108,
      "chip": "ym2612"
    },
    {
      "channel": 4,
      "note": 53,
      "start": 245.1266,
      "duration": 0.0334,
      "velocity": 105,
      "chip": "ym2612"
    },
    {
      "channel": 5,
      "note": 7,
      "start": 245.1273,
      "duration": 2.4268,
      "velocity": 1,
      "chip": "ym2612"
    },
    {
      "channel": 0,
      "note": 65,
      "start": 245.2699,
      "duration": 0.084,
      "velocity": 112,
      "chip": "ym2612"
    },
    {
      "channel": 2,
      "note": 65,
      "start": 245.2717,
      "duration": 0.1505,
      "velocity": 112,
      "chip": "ym2612"
    },
    {
      "channel": 3,
      "note": 77,
      "start": 245.2724,
      "duration": 0.1167,
      "velocity": 109,
      "chip": "ym2612"
    },
    {
      "channel": 0,
      "note": 65,
      "start": 245.4215,
      "duration": 0.084,
      "velocity": 112,
      "chip": "ym2612"
    },
    {
      "channel": 2,
      "note": 65,
      "start": 245.4233,
      "duration": 0.1506,
      "velocity": 112,
      "chip": "ym2612"
    },
    {
      "channel": 3,
      "note": 77,
      "start": 245.424,
      "duration": 0.1168,
      "velocity": 110,
      "chip": "ym2612"
    },
    {
      "channel": 0,
      "note": 65,
      "start": 245.5733,
      "duration": 0.084,
      "velocity": 112,
      "chip": "ym2612"
    },
    {
      "channel": 2,
      "note": 65,
      "start": 245.5751,
      "duration": 0.1505,
      "velocity": 112,
      "chip": "ym2612"
    },
    {
      "channel": 3,
      "note": 65,
      "start": 245.5758,
      "duration": 0.1166,
      "velocity": 111,
      "chip": "ym2612"
    },
    {
      "channel": 0,
      "note": 65,
      "start": 245.7249,
      "duration": 0.084,
      "velocity": 112,
      "chip": "ym2612"
    },
    {
      "channel": 2,
      "note": 65,
      "start": 245.7261,
      "duration": 0.1511,
      "velocity": 112,
      "chip": "ym2612"
    },
    {
      "channel": 3,
      "note": 77,
      "start": 245.7268,
      "duration": 0.1173,
      "velocity": 108,
      "chip": "ym2612"
    },
    {
      "channel": 0,
      "note": 65,
      "start": 245.8766,
      "duration": 0.0841,
      "velocity": 112,
      "chip": "ym2612"
    },
    {
      "channel": 2,
      "note": 65,
      "start": 245.8784,
      "duration": 0.1505,
      "velocity": 112,
      "chip": "ym2612"
    },
    {
      "channel": 3,
      "note": 65,
      "start": 245.879,
      "duration": 0.1167,
      "velocity": 109,
      "chip": "ym2612"
    },
    {
      "channel": 0,
      "note": 65,
      "start": 246.0283,
      "duration": 0.084,
      "velocity": 112,
      "chip": "ym2612"
    },
    {
      "channel": 2,
      "note": 65,
      "start": 246.0301,
      "duration": 0.1505,
      "velocity": 112,
      "chip": "ym2612"
    },
    {
      "channel": 3,
      "note": 65,
      "start": 246.0308,
      "duration": 0.1167,
      "velocity": 112,
      "chip": "ym2612"
    },
    {
      "channel": 0,
      "note": 65,
      "start": 246.18,
      "duration": 0.084,
      "velocity": 112,
      "chip": "ym2612"
    },
    {
      "channel": 2,
      "note": 65,
      "start": 246.1818,
      "duration": 0.1505,
      "velocity": 112,
      "chip": "ym2612"
    },
    {
      "channel": 3,
      "note": 77,
      "start": 246.1824,
      "duration": 0.1167,
      "velocity": 110,
      "chip": "ym2612"
    },
    {
      "channel": 0,
      "note": 65,
      "start": 246.3317,
      "duration": 0.084,
      "velocity": 112,
      "chip": "ym2612"
    },
    {
      "channel": 2,
      "note": 65,
      "start": 246.3334,
      "duration": 0.1505,
      "velocity": 112,
      "chip": "ym2612"
    },
    {
      "channel": 3,
      "note": 77,
      "start": 246.3341,
      "duration": 0.1167,
      "velocity": 111,
      "chip": "ym2612"
    },
    {
      "channel": 4,
      "note": 53,
      "start": 246.3401,
      "duration": 0.0335,
      "velocity": 105,
      "chip": "ym2612"
    },
    {
      "channel": 0,
      "note": 65,
      "start": 246.4833,
      "duration": 0.084,
      "velocity": 112,
      "chip": "ym2612"
    },
    {
      "channel": 2,
      "note": 65,
      "start": 246.4851,
      "duration": 0.1506,
      "velocity": 112,
      "chip": "ym2612"
    },
    {
      "channel": 3,
      "note": 65,
      "start": 246.4858,
      "duration": 0.1167,
      "velocity": 108,
      "chip": "ym2612"
    },
    {
      "channel": 0,
      "note": 65,
      "start": 246.635,
      "duration": 0.0841,
      "velocity": 112,
      "chip": "ym2612"
    },
    {
      "channel": 2,
      "note": 65,
      "start": 246.6368,
      "duration": 0.1505,
      "velocity": 112,
      "chip": "ym2612"
    },
    {
      "channel": 3,
      "note": 77,
      "start": 246.6375,
      "duration": 0.1167,
      "velocity": 109,
      "chip": "ym2612"
    },
    {
      "channel": 0,
      "note": 65,
      "start": 246.7867,
      "duration": 0.084,
      "velocity": 112,
      "chip": "ym2612"
    },
    {
      "channel": 2,
      "note": 65,
      "start": 246.7885,
      "duration": 0.1505,
      "velocity": 112,
      "chip": "ym2612"
    },
    {
      "channel": 3,
      "note": 65,
      "start": 246.7892,
      "duration": 0.1167,
      "velocity": 112,
      "chip": "ym2612"
    },
    {
      "channel": 0,
      "note": 65,
      "start": 246.9383,
      "duration": 0.0841,
      "velocity": 112,
      "chip": "ym2612"
    },
    {
      "channel": 2,
      "note": 65,
      "start": 246.9402,
      "duration": 0.1506,
      "velocity": 112,
      "chip": "ym2612"
    },
    {
      "channel": 3,
      "note": 77,
      "start": 246.9409,
      "duration": 0.1167,
      "velocity": 110,
      "chip": "ym2612"
    },
    {
      "channel": 0,
      "note": 65,
      "start": 247.0901,
      "duration": 0.0841,
      "velocity": 112,
      "chip": "ym2612"
    },
    {
      "channel": 2,
      "note": 65,
      "start": 247.0913,
      "duration": 0.151,
      "velocity": 112,
      "chip": "ym2612"
    },
    {
      "channel": 3,
      "note": 65,
      "start": 247.092,
      "duration": 0.1172,
      "velocity": 108,
      "chip": "ym2612"
    },
    {
      "channel": 0,
      "note": 65,
      "start": 247.2417,
      "duration": 0.084,
      "velocity": 112,
      "chip": "ym2612"
    },
    {
      "channel": 2,
      "note": 65,
      "start": 247.2436,
      "duration": 0.1505,
      "velocity": 112,
      "chip": "ym2612"
    },
    {
      "channel": 3,
      "note": 65,
      "start": 247.2442,
      "duration": 0.1167,
      "velocity": 109,
      "chip": "ym2612"
    },
    {
      "channel": 0,
      "note": 65,
      "start": 247.3934,
      "duration": 0.084,
      "velocity": 112,
      "chip": "ym2612"
    },
    {
      "channel": 2,
      "note": 65,
      "start": 247.3952,
      "duration": 0.1513,
      "velocity": 112,
      "chip": "ym2612"
    },
    {
      "channel": 3,
      "note": 77,
      "start": 247.3959,
      "duration": 0.1167,
      "velocity": 112,
      "chip": "ym2612"
    },
    {
      "channel": 0,
      "note": 53,
      "start": 247.5459,
      "duration": 0.0329,
      "velocity": 105,
      "chip": "ym2612"
    },
    {
      "channel": 2,
      "note": 53,
      "start": 247.5476,
      "duration": 0.049,
      "velocity": 120,
      "chip": "ym2612"
    },
    {
      "channel": 3,
      "note": 53,
      "start": 247.549,
      "duration": 0.1493,
      "velocity": 127,
      "chip": "ym2612"
    },
    {
      "channel": 4,
      "note": 7,
      "start": 247.5539,
      "duration": 2.4259,
      "velocity": 1,
      "chip": "ym2612"
    },
    {
      "channel": 5,
      "note": 7,
      "start": 247.5546,
      "duration": 2.4258,
      "velocity": 1,
      "chip": "ym2612"
    },
    {
      "channel": 2,
      "note": 65,
      "start": 247.6979,
      "duration": 0.0504,
      "velocity": 120,
      "chip": "ym2612"
    },
    {
      "channel": 3,
      "note": 53,
      "start": 247.6988,
      "duration": 0.3027,
      "velocity": 127,
      "chip": "ym2612"
    },
    {
      "channel": 1,
      "note": 40,
      "start": 247.8497,
      "duration": 0.6057,
      "velocity": 127,
      "chip": "ym2612"
    },
    {
      "channel": 2,
      "note": 53,
      "start": 247.8504,
      "duration": 0.0495,
      "velocity": 120,
      "chip": "ym2612"
    },
    {
      "channel": 2,
      "note": 53,
      "start": 248.0013,
      "duration": 0.0504,
      "velocity": 120,
      "chip": "ym2612"
    },
    {
      "channel": 3,
      "note": 53,
      "start": 248.0021,
      "duration": 0.1511,
      "velocity": 127,
      "chip": "ym2612"
    },
    {
      "channel": 2,
      "note": 65,
      "start": 248.153,
      "duration": 0.0504,
      "velocity": 120,
      "chip": "ym2612"
    },
    {
      "channel": 3,
      "note": 53,
      "start": 248.1538,
      "duration": 0.303,
      "velocity": 127,
      "chip": "ym2612"
    },
    {
      "channel": 2,
      "note": 53,
      "start": 248.3047,
      "duration": 0.0504,
      "velocity": 120,
      "chip": "ym2612"
    },
    {
      "channel": 1,
      "note": 40,
      "start": 248.4558,
      "duration": 0.3031,
      "velocity": 127,
      "chip": "ym2612"
    },
    {
      "channel": 2,
      "note": 53,
      "start": 248.4566,
      "duration": 0.0502,
      "velocity": 120,
      "chip": "ym2612"
    },
    {
      "channel": 3,
      "note": 53,
      "start": 248.4574,
      "duration": 0.1509,
      "velocity": 127,
      "chip": "ym2612"
    },
    {
      "channel": 2,
      "note": 65,
      "start": 248.608,
      "duration": 0.0504,
      "velocity": 120,
      "chip": "ym2612"
    },
    {
      "channel": 3,
      "note": 53,
      "start": 248.6089,
      "duration": 0.3027,
      "velocity": 127,
      "chip": "ym2612"
    },
    {
      "channel": 0,
      "note": 53,
      "start": 248.7588,
      "duration": 0.0335,
      "velocity": 105,
      "chip": "ym2612"
    },
    {
      "channel": 1,
      "note": 41,
      "start": 248.76,
      "duration": 0.9088,
      "velocity": 75,
      "chip": "ym2612"
    },
    {
      "channel": 2,
      "note": 53,
      "start": 248.7607,
      "duration": 0.0494,
      "velocity": 120,
      "chip": "ym2612"
    },
    {
      "channel": 2,
      "note": 65,
      "start": 248.9114,
      "duration": 0.0503,
      "velocity": 120,
      "chip": "ym2612"
    },
    {
      "channel": 3,
      "note": 53,
      "start": 248.9122,
      "duration": 0.1511,
      "velocity": 127,
      "chip": "ym2612"
    },
    {
      "channel": 2,
      "note": 53,
      "start": 249.0631,
      "duration": 0.0504,
      "velocity": 120,
      "chip": "ym2612"
    },
    {
      "channel": 3,
      "note": 53,
      "start": 249.0639,
      "duration": 0.3028,
      "velocity": 127,
      "chip": "ym2612"
    },
    {
      "channel": 2,
      "note": 53,
      "start": 249.2147,
      "duration": 0.0504,
      "velocity": 120,
      "chip": "ym2612"
    },
    {
      "channel": 2,
      "note": 65,
      "start": 249.3665,
      "duration": 0.0503,
      "velocity": 120,
      "chip": "ym2612"
    },
    {
      "channel": 3,
      "note": 53,
      "start": 249.3672,
      "duration": 0.1512,
      "velocity": 127,
      "chip": "ym2612"
    },
    {
      "channel": 2,
      "note": 53,
      "start": 249.5181,
      "duration": 0.0504,
      "velocity": 120,
      "chip": "ym2612"
    },
    {
      "channel": 3,
      "note": 53,
      "start": 249.5189,
      "duration": 0.3028,
      "velocity": 127,
      "chip": "ym2612"
    },
    {
      "channel": 1,
      "note": 40,
      "start": 249.6699,
      "duration": 0.6057,
      "velocity": 127,
      "chip": "ym2612"
    },
    {
      "channel": 2,
      "note": 53,
      "start": 249.6706,
      "duration": 0.0496,
      "velocity": 120,
      "chip": "ym2612"
    },
    {
      "channel": 2,
      "note": 65,
      "start": 249.8215,
      "duration": 0.0504,
      "velocity": 120,
      "chip": "ym2612"
    },
    {
      "channel": 3,
      "note": 53,
      "start": 249.8222,
      "duration": 0.1514,
      "velocity": 127,
      "chip": "ym2612"
    },
    {
      "channel": 0,
      "note": 53,
      "start": 249.9722,
      "duration": 0.0335,
      "velocity": 105,
      "chip": "ym2612"
    },
    {
      "channel": 2,
      "note": 53,
      "start": 249.9734,
      "duration": 0.0502,
      "velocity": 120,
      "chip": "ym2612"
    },
    {
      "channel": 3,
      "note": 53,
      "start": 249.9742,
      "duration": 0.3028,
      "velocity": 127,
      "chip": "ym2612"
    },
    {
      "channel": 4,
      "note": 7,
      "start": 249.9802,
      "duration": 2.4265,
      "velocity": 1,
      "chip": "ym2612"
    },
    {
      "channel": 5,
      "note": 7,
      "start": 249.9809,
      "duration": 2.4265,
      "velocity": 1,
      "chip": "ym2612"
    },
    {
      "channel": 2,
      "note": 65,
      "start": 250.1249,
      "duration": 0.0504,
      "velocity": 120,
      "chip": "ym2612"
    },
    {
      "channel": 1,
      "note": 40,
      "start": 250.276,
      "duration": 0.6063,
      "velocity": 127,
      "chip": "ym2612"
    },
    {
      "channel": 2,
      "note": 53,
      "start": 250.2768,
      "duration": 0.0501,
      "velocity": 120,
      "chip": "ym2612"
    },
    {
      "channel": 3,
      "note": 53,
      "start": 250.2775,
      "duration": 0.1509,
      "velocity": 127,
      "chip": "ym2612"
    },
    {
      "channel": 2,
      "note": 53,
      "start": 250.4282,
      "duration": 0.0504,
      "velocity": 120,
      "chip": "ym2612"
    },
    {
      "channel": 3,
      "note": 53,
      "start": 250.429,
      "duration": 0.3028,
      "velocity": 127,
      "chip": "ym2612"
    },
    {
      "channel": 2,
      "note": 65,
      "start": 250.5799,
      "duration": 0.0504,
      "velocity": 120,
      "chip": "ym2612"
    },
    {
      "channel": 2,
      "note": 53,
      "start": 250.7316,
      "duration": 0.0504,
      "velocity": 120,
      "chip": "ym2612"
    },
    {
      "channel": 3,
      "note": 53,
      "start": 250.7324,
      "duration": 0.1513,
      "velocity": 127,
      "chip": "ym2612"
    },
    {
      "channel": 1,
      "note": 40,
      "start": 250.8827,
      "duration": 0.3031,
      "velocity": 127,
      "chip": "ym2612"
    },
    {
      "channel": 2,
      "note": 53,
      "start": 250.8835,
      "duration": 0.0501,
      "velocity": 120,
      "chip": "ym2612"
    },
    {
      "channel": 3,
      "note": 53,
      "start": 250.8843,
      "duration": 0.3036,
      "velocity": 127,
      "chip": "ym2612"
    },
    {
      "channel": 2,
      "note": 65,
      "start": 251.035,
      "duration": 0.0503,
      "velocity": 120,
      "chip": "ym2612"
    },
    {
      "channel": 0,
      "note": 53,
      "start": 251.1856,
      "duration": 0.0335,
      "velocity": 105,
      "chip": "ym2612"
    },
    {
      "channel": 1,
      "note": 41,
      "start": 251.1869,
      "duration": 0.6054,
      "velocity": 75,
      "chip": "ym2612"
    },
    {
      "channel": 2,
      "note": 53,
      "start": 251.1876,
      "duration": 0.0494,
      "velocity": 120,
      "chip": "ym2612"
    },
    {
      "channel": 3,
      "note": 53,
      "start": 251.1884,
      "duration": 0.1501,
      "velocity": 127,
      "chip": "ym2612"
    },
    {
      "channel": 2,
      "note": 65,
      "start": 251.3383,
      "duration": 0.0504,
      "velocity": 120,
      "chip": "ym2612"
    },
    {
      "channel": 3,
      "note": 53,
      "start": 251.3391,
      "duration": 0.3028,
      "velocity": 127,
      "chip": "ym2612"
    },
    {
      "channel": 2,
      "note": 53,
      "start": 251.49,
      "duration": 0.0504,
      "velocity": 120,
      "chip": "ym2612"
    },
    {
      "channel": 2,
      "note": 53,
      "start": 251.6417,
      "duration": 0.0503,
      "velocity": 120,
      "chip": "ym2612"
    },
    {
      "channel": 3,
      "note": 53,
      "start": 251.6425,
      "duration": 0.1519,
      "velocity": 127,
      "chip": "ym2612"
    },
    {
      "channel": 1,
      "note": 40,
      "start": 251.7934,
      "duration": 0.3023,
      "velocity": 127,
      "chip": "ym2612"
    },
    {
      "channel": 2,
      "note": 65,
      "start": 251.7941,
      "duration": 0.0495,
      "velocity": 120,
      "chip": "ym2612"
    },
    {
      "channel": 3,
      "note": 53,
      "start": 251.795,
      "duration": 0.3022,
      "velocity": 127,
      "chip": "ym2612"
    },
    {
      "channel": 2,
      "note": 53,
      "start": 251.945,
      "duration": 0.0504,
      "velocity": 120,
      "chip": "ym2612"
    },
    {
      "channel": 1,
      "note": 40,
      "start": 252.0962,
      "duration": 0.6063,
      "velocity": 127,
      "chip": "ym2612"
    },
    {
      "channel": 2,
      "note": 65,
      "start": 252.0969,
      "duration": 0.0501,
      "velocity": 120,
      "chip": "ym2612"
    },
    {
      "channel": 3,
      "note": 53,
      "start": 252.0977,
      "duration": 0.1509,
      "velocity": 127,
      "chip": "ym2612"
    },
    {
      "channel": 2,
      "note": 65,
      "start": 252.2484,
      "duration": 0.0504,
      "velocity": 120,
      "chip": "ym2612"
    },
    {
      "channel": 3,
      "note": 53,
      "start": 252.2492,
      "duration": 0.1513,
      "velocity": 127,
      "chip": "ym2612"
    },
    {
      "channel": 0,
      "note": 53,
      "start": 252.3991,
      "duration": 0.0335,
      "velocity": 105,
      "chip": "ym2612"
    },
    {
      "channel": 2,
      "note": 53,
      "start": 252.4003,
      "duration": 0.0501,
      "velocity": 120,
      "chip": "ym2612"
    },
    {
      "channel": 3,
      "note": 53,
      "start": 252.4011,
      "duration": 0.151,
      "velocity": 127,
      "chip": "ym2612"
    },
    {
      "channel": 4,
      "note": 7,
      "start": 252.4072,
      "duration": 2.4263,
      "velocity": 1,
      "chip": "ym2612"
    },
    {
      "channel": 5,
      "note": 7,
      "start": 252.4079,
      "duration": 2.4263,
      "velocity": 1,
      "chip": "ym2612"
    },
    {
      "channel": 2,
      "note": 65,
      "start": 252.5518,
      "duration": 0.0504,
      "velocity": 120,
      "chip": "ym2612"
    },
    {
      "channel": 3,
      "note": 53,
      "start": 252.5525,
      "duration": 0.3028,
      "velocity": 127,
      "chip": "ym2612"
    },
    {
      "channel": 1,
      "note": 40,
      "start": 252.7029,
      "duration": 0.6062,
      "velocity": 127,
      "chip": "ym2612"
    },
    {
      "channel": 2,
      "note": 53,
      "start": 252.7037,
      "duration": 0.0501,
      "velocity": 120,
      "chip": "ym2612"
    },
    {
      "channel": 2,
      "note": 53,
      "start": 252.8551,
      "duration": 0.0503,
      "velocity": 120,
      "chip": "ym2612"
    },
    {
      "channel": 3,
      "note": 53,
      "start": 252.8559,
      "duration": 0.1512,
      "velocity": 127,
      "chip": "ym2612"
    },
    {
      "channel": 2,
      "note": 65,
      "start": 253.0068,
      "duration": 0.0504,
      "velocity": 120,
      "chip": "ym2612"
    },
    {
      "channel": 3,
      "note": 53,
      "start": 253.0076,
      "duration": 0.303,
      "velocity": 127,
      "chip": "ym2612"
    },
    {
      "channel": 2,
      "note": 53,
      "start": 253.1585,
      "duration": 0.0503,
      "velocity": 120,
      "chip": "ym2612"
    },
    {
      "channel": 1,
      "note": 40,
      "start": 253.3097,
      "duration": 0.303,
      "velocity": 127,
      "chip": "ym2612"
    },
    {
      "channel": 2,
      "note": 53,
      "start": 253.3103,
      "duration": 0.0502,
      "velocity": 120,
      "chip": "ym2612"
    },
    {
      "channel": 3,
      "note": 53,
      "start": 253.3112,
      "duration": 0.1509,
      "velocity": 127,
      "chip": "ym2612"
    },
    {
      "channel": 2,
      "note": 65,
      "start": 253.4618,
      "duration": 0.0504,
      "velocity": 120,
      "chip": "ym2612"
    },
    {
      "channel": 3,
      "note": 53,
      "start": 253.4626,
      "duration": 0.3028,
      "velocity": 127,
      "chip": "ym2612"
    },
    {
      "channel": 0,
      "note": 53,
      "start": 253.6125,
      "duration": 0.0335,
      "velocity": 105,
      "chip": "ym2612"
    },
    {
      "channel": 1,
      "note": 41,
      "start": 253.6138,
      "duration": 0.9088,
      "velocity": 75,
      "chip": "ym2612"
    },
    {
      "channel": 2,
      "note": 53,
      "start": 253.6146,
      "duration": 0.0494,
      "velocity": 120,
      "chip": "ym2612"
    },
    {
      "channel": 2,
      "note": 65,
      "start": 253.7652,
      "duration": 0.0504,
      "velocity": 120,
      "chip": "ym2612"
    },
    {
      "channel": 3,
      "note": 53,
      "start": 253.766,
      "duration": 0.1511,
      "velocity": 127,
      "chip": "ym2612"
    },
    {
      "channel": 2,
      "note": 53,
      "start": 253.9168,
      "duration": 0.0504,
      "velocity": 120,
      "chip": "ym2612"
    },
    {
      "channel": 3,
      "note": 53,
      "start": 253.9177,
      "duration": 0.3028,
      "velocity": 127,
      "chip": "ym2612"
    },
    {
      "channel": 2,
      "note": 53,
      "start": 254.0685,
      "duration": 0.0504,
      "velocity": 120,
      "chip": "ym2612"
    },
    {
      "channel": 2,
      "note": 65,
      "start": 254.2202,
      "duration": 0.0504,
      "velocity": 120,
      "chip": "ym2612"
    },
    {
      "channel": 3,
      "note": 53,
      "start": 254.221,
      "duration": 0.1511,
      "velocity": 127,
      "chip": "ym2612"
    },
    {
      "channel": 2,
      "note": 53,
      "start": 254.3719,
      "duration": 0.0504,
      "velocity": 120,
      "chip": "ym2612"
    },
    {
      "channel": 3,
      "note": 53,
      "start": 254.3727,
      "duration": 0.3029,
      "velocity": 127,
      "chip": "ym2612"
    },
    {
      "channel": 1,
      "note": 40,
      "start": 254.5237,
      "duration": 0.6056,
      "velocity": 127,
      "chip": "ym2612"
    },
    {
      "channel": 2,
      "note": 53,
      "start": 254.5245,
      "duration": 0.0496,
      "velocity": 120,
      "chip": "ym2612"
    },
    {
      "channel": 2,
      "note": 65,
      "start": 254.6754,
      "duration": 0.0503,
      "velocity": 120,
      "chip": "ym2612"
    },
    {
      "channel": 3,
      "note": 53,
      "start": 254.6761,
      "duration": 0.1513,
      "velocity": 127,
      "chip": "ym2612"
    },
    {
      "channel": 0,
      "note": 53,
      "start": 254.826,
      "duration": 0.0334,
      "velocity": 105,
      "chip": "ym2612"
    },
    {
      "channel": 2,
      "note": 53,
      "start": 254.8272,
      "duration": 0.0501,
      "velocity": 120,
      "chip": "ym2612"
    },
    {
      "channel": 3,
      "note": 53,
      "start": 254.828,
      "duration": 0.3028,
      "velocity": 127,
      "chip": "ym2612"
    },
    {
      "channel": 4,
      "note": 7,
      "start": 254.834,
      "duration": 2.4264,
      "velocity": 1,
      "chip": "ym2612"
    },
    {
      "channel": 5,
      "note": 7,
      "start": 254.8347,
      "duration": 2.427,
      "velocity": 1,
      "chip": "ym2612"
    },
    {
      "channel": 2,
      "note": 65,
      "start": 254.9787,
      "duration": 0.0503,
      "velocity": 120,
      "chip": "ym2612"
    },
    {
      "channel": 1,
      "note": 40,
      "start": 255.1298,
      "duration": 0.6062,
      "velocity": 127,
      "chip": "ym2612"
    },
    {
      "channel": 2,
      "note": 53,
      "start": 255.1306,
      "duration": 0.0501,
      "velocity": 120,
      "chip": "ym2612"
    },
    {
      "channel": 3,
      "note": 53,
      "start": 255.1313,
      "duration": 0.1509,
      "velocity": 127,
      "chip": "ym2612"
    },
    {
      "channel": 2,
      "note": 53,
      "start": 255.282,
      "duration": 0.0503,
      "velocity": 120,
      "chip": "ym2612"
    },
    {
      "channel": 3,
      "note": 53,
      "start": 255.2828,
      "duration": 0.3028,
      "velocity": 127,
      "chip": "ym2612"
    },
    {
      "channel": 2,
      "note": 65,
      "start": 255.4337,
      "duration": 0.0504,
      "velocity": 120,
      "chip": "ym2612"
    },
    {
      "channel": 2,
      "note": 53,
      "start": 255.5854,
      "duration": 0.0504,
      "velocity": 120,
      "chip": "ym2612"
    },
    {
      "channel": 3,
      "note": 53,
      "start": 255.5862,
      "duration": 0.1513,
      "velocity": 127,
      "chip": "ym2612"
    },
    {
      "channel": 1,
      "note": 40,
      "start": 255.7366,
      "duration": 0.3031,
      "velocity": 127,
      "chip": "ym2612"
    },
    {
      "channel": 2,
      "note": 53,
      "start": 255.7373,
      "duration": 0.0502,
      "velocity": 120,
      "chip": "ym2612"
    },
    {
      "channel": 3,
      "note": 53,
      "start": 255.7381,
      "duration": 0.3036,
      "velocity": 127,
      "chip": "ym2612"
    },
    {
      "channel": 2,
      "note": 65,
      "start": 255.8887,
      "duration": 0.0504,
      "velocity": 120,
      "chip": "ym2612"
    },
    {
      "channel": 0,
      "note": 53,
      "start": 256.0394,
      "duration": 0.0335,
      "velocity": 105,
      "chip": "ym2612"
    },
    {
      "channel": 1,
      "note": 41,
      "start": 256.0407,
      "duration": 0.6054,
      "velocity": 75,
      "chip": "ym2612"
    },
    {
      "channel": 2,
      "note": 53,
      "start": 256.0415,
      "duration": 0.0494,
      "velocity": 120,
      "chip": "ym2612"
    },
    {
      "channel": 3,
      "note": 53,
      "start": 256.0423,
      "duration": 0.1501,
      "velocity": 127,
      "chip": "ym2612"
    },
    {
      "channel": 2,
      "note": 65,
      "start": 256.1922,
      "duration": 0.0503,
      "velocity": 120,
      "chip": "ym2612"
    },
    {
      "channel": 3,
      "note": 53,
      "start": 256.1929,
      "duration": 0.3027,
      "velocity": 127,
      "chip": "ym2612"
    },
    {
      "channel": 2,
      "note": 53,
      "start": 256.3437,
      "duration": 0.0504,
      "velocity": 120,
      "chip": "ym2612"
    },
    {
      "channel": 2,
      "note": 53,
      "start": 256.4955,
      "duration": 0.0504,
      "velocity": 120,
      "chip": "ym2612"
    },
    {
      "channel": 3,
      "note": 53,
      "start": 256.4962,
      "duration": 0.152,
      "velocity": 127,
      "chip": "ym2612"
    },
    {
      "channel": 1,
      "note": 40,
      "start": 256.6472,
      "duration": 0.3024,
      "velocity": 127,
      "chip": "ym2612"
    },
    {
      "channel": 2,
      "note": 65,
      "start": 256.6479,
      "duration": 0.0496,
      "velocity": 120,
      "chip": "ym2612"
    },
    {
      "channel": 3,
      "note": 53,
      "start": 256.6487,
      "duration": 0.3022,
      "velocity": 127,
      "chip": "ym2612"
    },
    {
      "channel": 2,
      "note": 53,
      "start": 256.7988,
      "duration": 0.0504,
      "velocity": 120,
      "chip": "ym2612"
    },
    {
      "channel": 1,
      "note": 40,
      "start": 256.95,
      "duration": 0.6061,
      "velocity": 127,
      "chip": "ym2612"
    },
    {
      "channel": 2,
      "note": 65,
      "start": 256.9507,
      "duration": 0.0501,
      "velocity": 120,
      "chip": "ym2612"
    },
    {
      "channel": 3,
      "note": 53,
      "start": 256.9515,
      "duration": 0.1509,
      "velocity": 127,
      "chip": "ym2612"
    },
    {
      "channel": 2,
      "note": 65,
      "start": 257.1022,
      "duration": 0.0503,
      "velocity": 120,
      "chip": "ym2612"
    },
    {
      "channel": 3,
      "note": 53,
      "start": 257.103,
      "duration": 0.1517,
      "velocity": 127,
      "chip": "ym2612"
    },
    {
      "channel": 0,
      "note": 7,
      "start": 257.2532,
      "duration": 2.4259,
      "velocity": 1,
      "chip": "ym2612"
    },
    {
      "channel": 2,
      "note": 52,
      "start": 257.2544,
      "duration": 0.0496,
      "velocity": 120,
      "chip": "ym2612"
    },
    {
      "channel": 3,
      "note": 52,
      "start": 257.2553,
      "duration": 0.1503,
      "velocity": 127,
      "chip": "ym2612"
    },
    {
      "channel": 4,
      "note": 64,
      "start": 257.2615,
      "duration": 0.1172,
      "velocity": 108,
      "chip": "ym2612"
    },
    {
      "channel": 5,
      "note": 52,
      "start": 257.2629,
      "duration": 0.0321,
      "velocity": 105,
      "chip": "ym2612"
    },
    {
      "channel": 2,
      "note": 64,
      "start": 257.4053,
      "duration": 0.0504,
      "velocity": 120,
      "chip": "ym2612"
    },
    {
      "channel": 3,
      "note": 52,
      "start": 257.4061,
      "duration": 0.3029,
      "velocity": 127,
      "chip": "ym2612"
    },
    {
      "channel": 4,
      "note": 76,
      "start": 257.4126,
      "duration": 0.1177,
      "velocity": 108,
      "chip": "ym2612"
    },
    {
      "channel": 1,
      "note": 39,
      "start": 257.5565,
      "duration": 0.6062,
      "velocity": 127,
      "chip": "ym2612"
    },
    {
      "channel": 2,
      "note": 52,
      "start": 257.5573,
      "duration": 0.0501,
      "velocity": 120,
      "chip": "ym2612"
    },
    {
      "channel": 4,
      "note": 76,
      "start": 257.5642,
      "duration": 0.1178,
      "velocity": 112,
      "chip": "ym2612"
    },
    {
      "channel": 2,
      "note": 52,
      "start": 257.7087,
      "duration": 0.0504,
      "velocity": 120,
      "chip": "ym2612"
    },
    {
      "channel": 3,
      "note": 52,
      "start": 257.7095,
      "duration": 0.1512,
      "velocity": 127,
      "chip": "ym2612"
    },
    {
      "channel": 4,
      "note": 64,
      "start": 257.7159,
      "duration": 0.1178,
      "velocity": 109,
      "chip": "ym2612"
    },
    {
      "channel": 2,
      "note": 64,
      "start": 257.8604,
      "duration": 0.0503,
      "velocity": 120,
      "chip": "ym2612"
    },
    {
      "channel": 3,
      "note": 52,
      "start": 257.8612,
      "duration": 0.303,
      "velocity": 127,
      "chip": "ym2612"
    },
    {
      "channel": 4,
      "note": 76,
      "start": 257.8676,
      "duration": 0.1178,
      "velocity": 108,
      "chip": "ym2612"
    },
    {
      "channel": 2,
      "note": 52,
      "start": 258.0121,
      "duration": 0.0504,
      "velocity": 120,
      "chip": "ym2612"
    },
    {
      "channel": 4,
      "note": 64,
      "start": 258.0193,
      "duration": 0.1178,
      "velocity": 110,
      "chip": "ym2612"
    },
    {
      "channel": 1,
      "note": 39,
      "start": 258.1632,
      "duration": 0.3029,
      "velocity": 127,
      "chip": "ym2612"
    },
    {
      "channel": 2,
      "note": 52,
      "start": 258.164,
      "duration": 0.0501,
      "velocity": 120,
      "chip": "ym2612"
    },
    {
      "channel": 3,
      "note": 52,
      "start": 258.1647,
      "duration": 0.1509,
      "velocity": 127,
      "chip": "ym2612"
    },
    {
      "channel": 4,
      "note": 64,
      "start": 258.171,
      "duration": 0.1178,
      "velocity": 109,
      "chip": "ym2612"
    },
    {
      "channel": 2,
      "note": 64,
      "start": 258.3154,
      "duration": 0.0504,
      "velocity": 120,
      "chip": "ym2612"
    },
    {
      "channel": 3,
      "note": 52,
      "start": 258.3162,
      "duration": 0.3028,
      "velocity": 127,
      "chip": "ym2612"
    },
    {
      "channel": 4,
      "note": 76,
      "start": 258.3226,
      "duration": 0.1179,
      "velocity": 111,
      "chip": "ym2612"
    },
    {
      "channel": 1,
      "note": 40,
      "start": 258.4672,
      "duration": 0.909,
      "velocity": 75,
      "chip": "ym2612"
    },
    {
      "channel": 2,
      "note": 52,
      "start": 258.4679,
      "duration": 0.0496,
      "velocity": 120,
      "chip": "ym2612"
    },
    {
      "channel": 4,
      "note": 76,
      "start": 258.4744,
      "duration": 0.1177,
      "velocity": 112,
      "chip": "ym2612"
    },
    {
      "channel": 5,
      "note": 52,
      "start": 258.4752,
      "duration": 0.0333,
      "velocity": 105,
      "chip": "ym2612"
    },
    {
      "channel": 2,
      "note": 64,
      "start": 258.6188,
      "duration": 0.0504,
      "velocity": 120,
      "chip": "ym2612"
    },
    {
      "channel": 3,
      "note": 52,
      "start": 258.6196,
      "duration": 0.1511,
      "velocity": 127,
      "chip": "ym2612"
    },
    {
      "channel": 4,
      "note": 64,
      "start": 258.626,
      "duration": 0.1178,
      "velocity": 109,
      "chip": "ym2612"
    },
    {
      "channel": 2,
      "note": 52,
      "start": 258.7705,
      "duration": 0.0504,
      "velocity": 120,
      "chip": "ym2612"
    },
    {
      "channel": 3,
      "note": 52,
      "start": 258.7712,
      "duration": 0.3029,
      "velocity": 127,
      "chip": "ym2612"
    },
    {
      "channel": 4,
      "note": 76,
      "start": 258.7777,
      "duration": 0.1178,
      "velocity": 108,
      "chip": "ym2612"
    },
    {
      "channel": 2,
      "note": 52,
      "start": 258.9221,
      "duration": 0.0504,
      "velocity": 120,
      "chip": "ym2612"
    },
    {
      "channel": 4,
      "note": 64,
      "start": 258.9294,
      "duration": 0.1178,
      "velocity": 112,
      "chip": "ym2612"
    },
    {
      "channel": 2,
      "note": 64,
      "start": 259.0739,
      "duration": 0.0503,
      "velocity": 120,
      "chip": "ym2612"
    },
    {
      "channel": 3,
      "note": 52,
      "start": 259.0747,
      "duration": 0.1511,
      "velocity": 127,
      "chip": "ym2612"
    },
    {
      "channel": 4,
      "note": 64,
      "start": 259.081,
      "duration": 0.1178,
      "velocity": 111,
      "chip": "ym2612"
    },
    {
      "channel": 2,
      "note": 52,
      "start": 259.2255,
      "duration": 0.0504,
      "velocity": 120,
      "chip": "ym2612"
    },
    {
      "channel": 3,
      "note": 52,
      "start": 259.2263,
      "duration": 0.3029,
      "velocity": 127,
      "chip": "ym2612"
    },
    {
      "channel": 4,
      "note": 76,
      "start": 259.2327,
      "duration": 0.1178,
      "velocity": 109,
      "chip": "ym2612"
    },
    {
      "channel": 1,
      "note": 39,
      "start": 259.3773,
      "duration": 0.6056,
      "velocity": 127,
      "chip": "ym2612"
    },
    {
      "channel": 2,
      "note": 52,
      "start": 259.378,
      "duration": 0.0496,
      "velocity": 120,
      "chip": "ym2612"
    },
    {
      "channel": 4,
      "note": 64,
      "start": 259.3844,
      "duration": 0.1178,
      "velocity": 111,
      "chip": "ym2612"
    },
    {
      "channel": 2,
      "note": 64,
      "start": 259.5289,
      "duration": 0.0504,
      "velocity": 120,
      "chip": "ym2612"
    },
    {
      "channel": 3,
      "note": 52,
      "start": 259.5296,
      "duration": 0.1514,
      "velocity": 127,
      "chip": "ym2612"
    },
    {
      "channel": 4,
      "note": 64,
      "start": 259.5361,
      "duration": 0.1177,
      "velocity": 112,
      "chip": "ym2612"
    },
    {
      "channel": 0,
      "note": 7,
      "start": 259.6796,
      "duration": 2.4264,
      "velocity": 1,
      "chip": "ym2612"
    },
    {
      "channel": 2,
      "note": 52,
      "start": 259.6808,
      "duration": 0.0501,
      "velocity": 120,
      "chip": "ym2612"
    },
    {
      "channel": 3,
      "note": 52,
      "start": 259.6815,
      "duration": 0.3029,
      "velocity": 127,
      "chip": "ym2612"
    },
    {
      "channel": 4,
      "note": 64,
      "start": 259.6878,
      "duration": 0.1178,
      "velocity": 108,
      "chip": "ym2612"
    },
    {
      "channel": 5,
      "note": 52,
      "start": 259.6887,
      "duration": 0.0333,
      "velocity": 105,
      "chip": "ym2612"
    },
    {
      "channel": 2,
      "note": 64,
      "start": 259.8322,
      "duration": 0.0504,
      "velocity": 120,
      "chip": "ym2612"
    },
    {
      "channel": 4,
      "note": 76,
      "start": 259.8395,
      "duration": 0.1178,
      "velocity": 109,
      "chip": "ym2612"
    },
    {
      "channel": 1,
      "note": 39,
      "start": 259.9834,
      "duration": 0.6063,
      "velocity": 127,
      "chip": "ym2612"
    },
    {
      "channel": 2,
      "note": 52,
      "start": 259.9841,
      "duration": 0.0501,
      "velocity": 120,
      "chip": "ym2612"
    },
    {
      "channel": 3,
      "note": 52,
      "start": 259.9849,
      "duration": 0.1509,
      "velocity": 127,
      "chip": "ym2612"
    },
    {
      "channel": 4,
      "note": 76,
      "start": 259.9911,
      "duration": 0.1178,
      "velocity": 110,
      "chip": "ym2612"
    },
    {
      "channel": 2,
      "note": 52,
      "start": 260.1356,
      "duration": 0.0504,
      "velocity": 120,
      "chip": "ym2612"
    },
    {
      "channel": 3,
      "note": 52,
      "start": 260.1364,
      "duration": 0.3028,
      "velocity": 127,
      "chip": "ym2612"
    },
    {
      "channel": 4,
      "note": 64,
      "start": 260.1428,
      "duration": 0.1178,
      "velocity": 111,
      "chip": "ym2612"
    },
    {
      "channel": 2,
      "note": 64,
      "start": 260.2873,
      "duration": 0.0504,
      "velocity": 120,
      "chip": "ym2612"
    },
    {
      "channel": 4,
      "note": 76,
      "start": 260.2945,
      "duration": 0.1178,
      "velocity": 108,
      "chip": "ym2612"
    },
    {
      "channel": 2,
      "note": 52,
      "start": 260.439,
      "duration": 0.0503,
      "velocity": 120,
      "chip": "ym2612"
    },
    {
      "channel": 3,
      "note": 52,
      "start": 260.4398,
      "duration": 0.1514,
      "velocity": 127,
      "chip": "ym2612"
    },
    {
      "channel": 4,
      "note": 64,
      "start": 260.4462,
      "duration": 0.1178,
      "velocity": 109,
      "chip": "ym2612"
    },
    {
      "channel": 1,
      "note": 39,
      "start": 260.5902,
      "duration": 0.3028,
      "velocity": 127,
      "chip": "ym2612"
    },
    {
      "channel": 2,
      "note": 52,
      "start": 260.591,
      "duration": 0.0501,
      "velocity": 120,
      "chip": "ym2612"
    },
    {
      "channel": 3,
      "note": 52,
      "start": 260.5917,
      "duration": 0.3033,
      "velocity": 127,
      "chip": "ym2612"
    },
    {
      "channel": 4,
      "note": 64,
      "start": 260.5979,
      "duration": 0.1177,
      "velocity": 112,
      "chip": "ym2612"
    },
    {
      "channel": 2,
      "note": 64,
      "start": 260.7424,
      "duration": 0.0503,
      "velocity": 120,
      "chip": "ym2612"
    },
    {
      "channel": 4,
      "note": 76,
      "start": 260.7495,
      "duration": 0.1178,
      "velocity": 110,
      "chip": "ym2612"
    },
    {
      "channel": 1,
      "note": 40,
      "start": 260.8941,
      "duration": 0.6057,
      "velocity": 75,
      "chip": "ym2612"
    },
    {
      "channel": 2,
      "note": 52,
      "start": 260.8948,
      "duration": 0.0495,
      "velocity": 120,
      "chip": "ym2612"
    },
    {
      "channel": 3,
      "note": 52,
      "start": 260.8956,
      "duration": 0.1503,
      "velocity": 127,
      "chip": "ym2612"
    },
    {
      "channel": 4,
      "note": 76,
      "start": 260.9012,
      "duration": 0.1178,
      "velocity": 111,
      "chip": "ym2612"
    },
    {
      "channel": 5,
      "note": 52,
      "start": 260.9022,
      "duration": 0.0333,
      "velocity": 105,
      "chip": "ym2612"
    },
    {
      "channel": 2,
      "note": 64,
      "start": 261.0456,
      "duration": 0.0504,
      "velocity": 120,
      "chip": "ym2612"
    },
    {
      "channel": 3,
      "note": 52,
      "start": 261.0464,
      "duration": 0.3028,
      "velocity": 127,
      "chip": "ym2612"
    },
    {
      "channel": 4,
      "note": 64,
      "start": 261.0529,
      "duration": 0.1178,
      "velocity": 108,
      "chip": "ym2612"
    },
    {
      "channel": 2,
      "note": 52,
      "start": 261.1974,
      "duration": 0.0503,
      "velocity": 120,
      "chip": "ym2612"
    },
    {
      "channel": 4,
      "note": 76,
      "start": 261.2046,
      "duration": 0.1178,
      "velocity": 109,
      "chip": "ym2612"
    },
    {
      "channel": 2,
      "note": 52,
      "start": 261.349,
      "duration": 0.0504,
      "velocity": 120,
      "chip": "ym2612"
    },
    {
      "channel": 3,
      "note": 52,
      "start": 261.3498,
      "duration": 0.152,
      "velocity": 127,
      "chip": "ym2612"
    },
    {
      "channel": 4,
      "note": 64,
      "start": 261.3563,
      "duration": 0.1178,
      "velocity": 112,
      "chip": "ym2612"
    },
    {
      "channel": 1,
      "note": 39,
      "start": 261.5008,
      "duration": 0.3023,
      "velocity": 127,
      "chip": "ym2612"
    },
    {
      "channel": 2,
      "note": 64,
      "start": 261.5016,
      "duration": 0.0495,
      "velocity": 120,
      "chip": "ym2612"
    },
    {
      "channel": 3,
      "note": 52,
      "start": 261.5023,
      "duration": 0.3022,
      "velocity": 127,
      "chip": "ym2612"
    },
    {
      "channel": 4,
      "note": 76,
      "start": 261.5079,
      "duration": 0.1178,
      "velocity": 110,
      "chip": "ym2612"
    },
    {
      "channel": 2,
      "note": 52,
      "start": 261.6524,
      "duration": 0.0504,
      "velocity": 120,
      "chip": "ym2612"
    },
    {
      "channel": 4,
      "note": 64,
      "start": 261.6597,
      "duration": 0.1177,
      "velocity": 108,
      "chip": "ym2612"
    },
    {
      "channel": 1,
      "note": 39,
      "start": 261.8036,
      "duration": 0.6071,
      "velocity": 127,
      "chip": "ym2612"
    },
    {
      "channel": 2,
      "note": 64,
      "start": 261.8043,
      "duration": 0.0501,
      "velocity": 120,
      "chip": "ym2612"
    },
    {
      "channel": 3,
      "note": 52,
      "start": 261.8051,
      "duration": 0.1508,
      "velocity": 127,
      "chip": "ym2612"
    },
    {
      "channel": 4,
      "note": 64,
      "start": 261.8113,
      "duration": 0.1178,
      "velocity": 109,
      "chip": "ym2612"
    },
    {
      "channel": 2,
      "note": 64,
      "start": 261.9558,
      "duration": 0.0504,
      "velocity": 120,
      "chip": "ym2612"
    },
    {
      "channel": 3,
      "note": 52,
      "start": 261.9565,
      "duration": 0.1521,
      "velocity": 127,
      "chip": "ym2612"
    },
    {
      "channel": 4,
      "note": 76,
      "start": 261.963,
      "duration": 0.1178,
      "velocity": 112,
      "chip": "ym2612"
    },
    {
      "channel": 0,
      "note": 92,
      "start": 262.1072,
      "duration": 0.1505,
      "velocity": 112,
      "chip": "ym2612"
    },
    {
      "channel": 2,
      "note": 53,
      "start": 262.1084,
      "duration": 0.0496,
      "velocity": 120,
      "chip": "ym2612"
    },
    {
      "channel": 3,
      "note": 53,
      "start": 262.1092,
      "duration": 0.151,
      "velocity": 127,
      "chip": "ym2612"
    },
    {
      "channel": 4,
      "note": 65,
      "start": 262.1147,
      "duration": 0.1178,
      "velocity": 108,
      "chip": "ym2612"
    },
    {
      "channel": 5,
      "note": 53,
      "start": 262.1156,
      "duration": 0.0333,
      "velocity": 105,
      "chip": "ym2612"
    },
    {
      "channel": 0,
      "note": 92,
      "start": 262.2588,
      "duration": 0.1505,
      "velocity": 112,
      "chip": "ym2612"
    },
    {
      "channel": 2,
      "note": 65,
      "start": 262.26,
      "duration": 0.0496,
      "velocity": 120,
      "chip": "ym2612"
    },
    {
      "channel": 3,
      "note": 53,
      "start": 262.2608,
      "duration": 0.3028,
      "velocity": 127,
      "chip": "ym2612"
    },
    {
      "channel": 4,
      "note": 77,
      "start": 262.2663,
      "duration": 0.1178,
      "velocity": 108,
      "chip": "ym2612"
    },
    {
      "channel": 0,
      "note": 92,
      "start": 262.4105,
      "duration": 0.1505,
      "velocity": 112,
      "chip": "ym2612"
    },
    {
      "channel": 1,
      "note": 40,
      "start": 262.4112,
      "duration": 0.6062,
      "velocity": 127,
      "chip": "ym2612"
    },
    {
      "channel": 2,
      "note": 53,
      "start": 262.412,
      "duration": 0.0493,
      "velocity": 120,
      "chip": "ym2612"
    },
    {
      "channel": 4,
      "note": 77,
      "start": 262.418,
      "duration": 0.1178,
      "velocity": 112,
      "chip": "ym2612"
    },
    {
      "channel": 0,
      "note": 92,
      "start": 262.5621,
      "duration": 0.1506,
      "velocity": 112,
      "chip": "ym2612"
    },
    {
      "channel": 2,
      "note": 53,
      "start": 262.5634,
      "duration": 0.0495,
      "velocity": 120,
      "chip": "ym2612"
    },
    {
      "channel": 3,
      "note": 53,
      "start": 262.5642,
      "duration": 0.1511,
      "velocity": 127,
      "chip": "ym2612"
    },
    {
      "channel": 4,
      "note": 65,
      "start": 262.5697,
      "duration": 0.1178,
      "velocity": 109,
      "chip": "ym2612"
    },
    {
      "channel": 0,
      "note": 92,
      "start": 262.7139,
      "duration": 0.1505,
      "velocity": 112,
      "chip": "ym2612"
    },
    {
      "channel": 2,
      "note": 65,
      "start": 262.7151,
      "duration": 0.0495,
      "velocity": 120,
      "chip": "ym2612"
    },
    {
      "channel": 3,
      "note": 53,
      "start": 262.7158,
      "duration": 0.303,
      "velocity": 127,
      "chip": "ym2612"
    },
    {
      "channel": 4,
      "note": 77,
      "start": 262.7214,
      "duration": 0.1177,
      "velocity": 108,
      "chip": "ym2612"
    },
    {
      "channel": 0,
      "note": 92,
      "start": 262.8655,
      "duration": 0.1506,
      "velocity": 112,
      "chip": "ym2612"
    },
    {
      "channel": 2,
      "note": 53,
      "start": 262.8668,
      "duration": 0.0495,
      "velocity": 120,
      "chip": "ym2612"
    },
    {
      "channel": 4,
      "note": 65,
      "start": 262.8731,
      "duration": 0.1178,
      "velocity": 110,
      "chip": "ym2612"
    },
    {
      "channel": 0,
      "note": 92,
      "start": 263.0172,
      "duration": 0.1505,
      "velocity": 112,
      "chip": "ym2612"
    },
    {
      "channel": 1,
      "note": 40,
      "start": 263.0179,
      "duration": 0.3029,
      "velocity": 127,
      "chip": "ym2612"
    },
    {
      "channel": 2,
      "note": 53,
      "start": 263.0187,
      "duration": 0.0493,
      "velocity": 120,
      "chip": "ym2612"
    },
    {
      "channel": 3,
      "note": 53,
      "start": 263.0195,
      "duration": 0.1509,
      "velocity": 127,
      "chip": "ym2612"
    },
    {
      "channel": 4,
      "note": 65,
      "start": 263.0248,
      "duration": 0.1178,
      "velocity": 109,
      "chip": "ym2612"
    },
    {
      "channel": 0,
      "note": 92,
      "start": 263.1689,
      "duration": 0.1505,
      "velocity": 112,
      "chip": "ym2612"
    },
    {
      "channel": 2,
      "note": 65,
      "start": 263.1701,
      "duration": 0.0495,
      "velocity": 120,
      "chip": "ym2612"
    },
    {
      "channel": 3,
      "note": 53,
      "start": 263.1708,
      "duration": 0.3029,
      "velocity": 127,
      "chip": "ym2612"
    },
    {
      "channel": 4,
      "note": 77,
      "start": 263.1764,
      "duration": 0.1178,
      "velocity": 111,
      "chip": "ym2612"
    },
    {
      "channel": 0,
      "note": 92,
      "start": 263.3206,
      "duration": 0.1505,
      "velocity": 112,
      "chip": "ym2612"
    },
    {
      "channel": 1,
      "note": 41,
      "start": 263.3219,
      "duration": 0.909,
      "velocity": 75,
      "chip": "ym2612"
    },
    {
      "channel": 2,
      "note": 53,
      "start": 263.3226,
      "duration": 0.0488,
      "velocity": 120,
      "chip": "ym2612"
    },
    {
      "channel": 4,
      "note": 77,
      "start": 263.3281,
      "duration": 0.1178,
      "velocity": 112,
      "chip": "ym2612"
    },
    {
      "channel": 5,
      "note": 53,
      "start": 263.329,
      "duration": 0.0333,
      "velocity": 105,
      "chip": "ym2612"
    },
    {
      "channel": 0,
      "note": 92,
      "start": 263.4722,
      "duration": 0.1506,
      "velocity": 112,
      "chip": "ym2612"
    },
    {
      "channel": 2,
      "note": 65,
      "start": 263.4735,
      "duration": 0.0495,
      "velocity": 120,
      "chip": "ym2612"
    },
    {
      "channel": 3,
      "note": 53,
      "start": 263.4743,
      "duration": 0.1506,
      "velocity": 127,
      "chip": "ym2612"
    },
    {
      "channel": 4,
      "note": 65,
      "start": 263.4798,
      "duration": 0.1178,
      "velocity": 109,
      "chip": "ym2612"
    },
    {
      "channel": 0,
      "note": 92,
      "start": 263.6233,
      "duration": 0.1511,
      "velocity": 112,
      "chip": "ym2612"
    },
    {
      "channel": 2,
      "note": 53,
      "start": 263.6246,
      "duration": 0.0501,
      "velocity": 120,
      "chip": "ym2612"
    },
    {
      "channel": 3,
      "note": 53,
      "start": 263.6254,
      "duration": 0.3033,
      "velocity": 127,
      "chip": "ym2612"
    },
    {
      "channel": 4,
      "note": 77,
      "start": 263.6315,
      "duration": 0.1178,
      "velocity": 108,
      "chip": "ym2612"
    },
    {
      "channel": 0,
      "note": 92,
      "start": 263.7756,
      "duration": 0.1505,
      "velocity": 112,
      "chip": "ym2612"
    },
    {
      "channel": 2,
      "note": 53,
      "start": 263.7768,
      "duration": 0.0495,
      "velocity": 120,
      "chip": "ym2612"
    },
    {
      "channel": 4,
      "note": 65,
      "start": 263.7832,
      "duration": 0.1177,
      "velocity": 112,
      "chip": "ym2612"
    },
    {
      "channel": 0,
      "note": 92,
      "start": 263.9273,
      "duration": 0.1506,
      "velocity": 112,
      "chip": "ym2612"
    },
    {
      "channel": 2,
      "note": 65,
      "start": 263.9285,
      "duration": 0.0495,
      "velocity": 120,
      "chip": "ym2612"
    },
    {
      "channel": 3,
      "note": 53,
      "start": 263.9293,
      "duration": 0.1511,
      "velocity": 127,
      "chip": "ym2612"
    },
    {
      "channel": 4,
      "note": 65,
      "start": 263.9349,
      "duration": 0.1178,
      "velocity": 111,
      "chip": "ym2612"
    },
    {
      "channel": 0,
      "note": 92,
      "start": 264.079,
      "duration": 0.1505,
      "velocity": 112,
      "chip": "ym2612"
    },
    {
      "channel": 2,
      "note": 53,
      "start": 264.0802,
      "duration": 0.0495,
      "velocity": 120,
      "chip": "ym2612"
    },
    {
      "channel": 3,
      "note": 53,
      "start": 264.081,
      "duration": 0.3028,
      "velocity": 127,
      "chip": "ym2612"
    },
    {
      "channel": 4,
      "note": 77,
      "start": 264.0865,
      "duration": 0.1178,
      "velocity": 109,
      "chip": "ym2612"
    },
    {
      "channel": 0,
      "note": 92,
      "start": 264.2306,
      "duration": 0.1505,
      "velocity": 112,
      "chip": "ym2612"
    },
    {
      "channel": 1,
      "note": 40,
      "start": 264.232,
      "duration": 0.6056,
      "velocity": 127,
      "chip": "ym2612"
    },
    {
      "channel": 2,
      "note": 53,
      "start": 264.2327,
      "duration": 0.0487,
      "velocity": 120,
      "chip": "ym2612"
    },
    {
      "channel": 4,
      "note": 65,
      "start": 264.2382,
      "duration": 0.1178,
      "velocity": 111,
      "chip": "ym2612"
    },
    {
      "channel": 0,
      "note": 92,
      "start": 264.3824,
      "duration": 0.1505,
      "velocity": 112,
      "chip": "ym2612"
    },
    {
      "channel": 2,
      "note": 65,
      "start": 264.3836,
      "duration": 0.0496,
      "velocity": 120,
      "chip": "ym2612"
    },
    {
      "channel": 3,
      "note": 53,
      "start": 264.3843,
      "duration": 0.1512,
      "velocity": 127,
      "chip": "ym2612"
    },
    {
      "channel": 4,
      "note": 65,
      "start": 264.3899,
      "duration": 0.1178,
      "velocity": 112,
      "chip": "ym2612"
    },
    {
      "channel": 0,
      "note": 94,
      "start": 264.534,
      "duration": 0.1505,
      "velocity": 112,
      "chip": "ym2612"
    },
    {
      "channel": 2,
      "note": 53,
      "start": 264.5352,
      "duration": 0.0496,
      "velocity": 120,
      "chip": "ym2612"
    },
    {
      "channel": 3,
      "note": 53,
      "start": 264.536,
      "duration": 0.3031,
      "velocity": 127,
      "chip": "ym2612"
    },
    {
      "channel": 4,
      "note": 65,
      "start": 264.5416,
      "duration": 0.1178,
      "velocity": 108,
      "chip": "ym2612"
    },
    {
      "channel": 5,
      "note": 53,
      "start": 264.5425,
      "duration": 0.0333,
      "velocity": 105,
      "chip": "ym2612"
    },
    {
      "channel": 0,
      "note": 94,
      "start": 264.6857,
      "duration": 0.1506,
      "velocity": 112,
      "chip": "ym2612"
    },
    {
      "channel": 2,
      "note": 65,
      "start": 264.6869,
      "duration": 0.0495,
      "velocity": 120,
      "chip": "ym2612"
    },
    {
      "channel": 4,
      "note": 77,
      "start": 264.6932,
      "duration": 0.1178,
      "velocity": 109,
      "chip": "ym2612"
    },
    {
      "channel": 0,
      "note": 94,
      "start": 264.8374,
      "duration": 0.1505,
      "velocity": 112,
      "chip": "ym2612"
    },
    {
      "channel": 1,
      "note": 40,
      "start": 264.8381,
      "duration": 0.6062,
      "velocity": 127,
      "chip": "ym2612"
    },
    {
      "channel": 2,
      "note": 53,
      "start": 264.8388,
      "duration": 0.0493,
      "velocity": 120,
      "chip": "ym2612"
    },
    {
      "channel": 3,
      "note": 53,
      "start": 264.8396,
      "duration": 0.151,
      "velocity": 127,
      "chip": "ym2612"
    },
    {
      "channel": 4,
      "note": 77,
      "start": 264.845,
      "duration": 0.1177,
      "velocity": 110,
      "chip": "ym2612"
    },
    {
      "channel": 0,
      "note": 94,
      "start": 264.989,
      "duration": 0.1506,
      "velocity": 112,
      "chip": "ym2612"
    },
    {
      "channel": 2,
      "note": 53,
      "start": 264.9903,
      "duration": 0.0495,
      "velocity": 120,
      "chip": "ym2612"
    },
    {
      "channel": 3,
      "note": 53,
      "start": 264.9911,
      "duration": 0.3027,
      "velocity": 127,
      "chip": "ym2612"
    },
    {
      "channel": 4,
      "note": 65,
      "start": 264.9966,
      "duration": 0.1178,
      "velocity": 111,
      "chip": "ym2612"
    },
    {
      "channel": 0,
      "note": 94,
      "start": 265.1408,
      "duration": 0.1505,
      "velocity": 112,
      "chip": "ym2612"
    },
    {
      "channel": 2,
      "note": 65,
      "start": 265.142,
      "duration": 0.0495,
      "velocity": 120,
      "chip": "ym2612"
    },
    {
      "channel": 4,
      "note": 77,
      "start": 265.1483,
      "duration": 0.1178,
      "velocity": 108,
      "chip": "ym2612"
    },
    {
      "channel": 0,
      "note": 94,
      "start": 265.2924,
      "duration": 0.1505,
      "velocity": 112,
      "chip": "ym2612"
    },
    {
      "channel": 2,
      "note": 53,
      "start": 265.2936,
      "duration": 0.0495,
      "velocity": 120,
      "chip": "ym2612"
    },
    {
      "channel": 3,
      "note": 53,
      "start": 265.2944,
      "duration": 0.1514,
      "velocity": 127,
      "chip": "ym2612"
    },
    {
      "channel": 4,
      "note": 65,
      "start": 265.3,
      "duration": 0.1178,
      "velocity": 109,
      "chip": "ym2612"
    },
    {
      "channel": 0,
      "note": 94,
      "start": 265.4441,
      "duration": 0.1505,
      "velocity": 112,
      "chip": "ym2612"
    },
    {
      "channel": 1,
      "note": 40,
      "start": 265.4448,
      "duration": 0.3028,
      "velocity": 127,
      "chip": "ym2612"
    },
    {
      "channel": 2,
      "note": 53,
      "start": 265.4455,
      "duration": 0.0494,
      "velocity": 120,
      "chip": "ym2612"
    },
    {
      "channel": 3,
      "note": 53,
      "start": 265.4463,
      "duration": 0.3034,
      "velocity": 127,
      "chip": "ym2612"
    },
    {
      "channel": 4,
      "note": 65,
      "start": 265.4516,
      "duration": 0.1178,
      "velocity": 112,
      "chip": "ym2612"
    },
    {
      "channel": 0,
      "note": 94,
      "start": 265.5958,
      "duration": 0.1505,
      "velocity": 112,
      "chip": "ym2612"
    },
    {
      "channel": 2,
      "note": 65,
      "start": 265.597,
      "duration": 0.0496,
      "velocity": 120,
      "chip": "ym2612"
    },
    {
      "channel": 4,
      "note": 77,
      "start": 265.6034,
      "duration": 0.1178,
      "velocity": 110,
      "chip": "ym2612"
    },
    {
      "channel": 0,
      "note": 94,
      "start": 265.7474,
      "duration": 0.1506,
      "velocity": 112,
      "chip": "ym2612"
    },
    {
      "channel": 1,
      "note": 41,
      "start": 265.7488,
      "duration": 0.6056,
      "velocity": 75,
      "chip": "ym2612"
    },
    {
      "channel": 2,
      "note": 53,
      "start": 265.7495,
      "duration": 0.0488,
      "velocity": 120,
      "chip": "ym2612"
    },
    {
      "channel": 3,
      "note": 53,
      "start": 265.7503,
      "duration": 0.1502,
      "velocity": 127,
      "chip": "ym2612"
    },
    {
      "channel": 4,
      "note": 77,
      "start": 265.755,
      "duration": 0.1178,
      "velocity": 111,
      "chip": "ym2612"
    },
    {
      "channel": 5,
      "note": 53,
      "start": 265.756,
      "duration": 0.0333,
      "velocity": 105,
      "chip": "ym2612"
    },
    {
      "channel": 0,
      "note": 94,
      "start": 265.8992,
      "duration": 0.1506,
      "velocity": 112,
      "chip": "ym2612"
    },
    {
      "channel": 2,
      "note": 65,
      "start": 265.9004,
      "duration": 0.0495,
      "velocity": 120,
      "chip": "ym2612"
    },
    {
      "channel": 3,
      "note": 53,
      "start": 265.9011,
      "duration": 0.3028,
      "velocity": 127,
      "chip": "ym2612"
    },
    {
      "channel": 4,
      "note": 65,
      "start": 265.9067,
      "duration": 0.1177,
      "velocity": 108,
      "chip": "ym2612"
    },
    {
      "channel": 0,
      "note": 94,
      "start": 266.0502,
      "duration": 0.1512,
      "velocity": 112,
      "chip": "ym2612"
    },
    {
      "channel": 2,
      "note": 53,
      "start": 266.0515,
      "duration": 0.0501,
      "velocity": 120,
      "chip": "ym2612"
    },
    {
      "channel": 4,
      "note": 77,
      "start": 266.0584,
      "duration": 0.1178,
      "velocity": 109,
      "chip": "ym2612"
    },
    {
      "channel": 0,
      "note": 94,
      "start": 266.2025,
      "duration": 0.1505,
      "velocity": 112,
      "chip": "ym2612"
    },
    {
      "channel": 2,
      "note": 53,
      "start": 266.2037,
      "duration": 0.0495,
      "velocity": 120,
      "chip": "ym2612"
    },
    {
      "channel": 3,
      "note": 53,
      "start": 266.2045,
      "duration": 0.1519,
      "velocity": 127,
      "chip": "ym2612"
    },
    {
      "channel": 4,
      "note": 65,
      "start": 266.21,
      "duration": 0.1178,
      "velocity": 112,
      "chip": "ym2612"
    },
    {
      "channel": 0,
      "note": 94,
      "start": 266.3542,
      "duration": 0.1505,
      "velocity": 112,
      "chip": "ym2612"
    },
    {
      "channel": 1,
      "note": 40,
      "start": 266.3554,
      "duration": 0.3024,
      "velocity": 127,
      "chip": "ym2612"
    },
    {
      "channel": 2,
      "note": 65,
      "start": 266.3562,
      "duration": 0.0487,
      "velocity": 120,
      "chip": "ym2612"
    },
    {
      "channel": 3,
      "note": 53,
      "start": 266.3571,
      "duration": 0.3022,
      "velocity": 127,
      "chip": "ym2612"
    },
    {
      "channel": 4,
      "note": 77,
      "start": 266.3617,
      "duration": 0.1178,
      "velocity": 110,
      "chip": "ym2612"
    },
    {
      "channel": 0,
      "note": 94,
      "start": 266.5059,
      "duration": 0.1505,
      "velocity": 112,
      "chip": "ym2612"
    },
    {
      "channel": 2,
      "note": 53,
      "start": 266.5071,
      "duration": 0.0496,
      "velocity": 120,
      "chip": "ym2612"
    },
    {
      "channel": 4,
      "note": 65,
      "start": 266.5134,
      "duration": 0.1178,
      "velocity": 108,
      "chip": "ym2612"
    },
    {
      "channel": 0,
      "note": 94,
      "start": 266.6576,
      "duration": 0.1504,
      "velocity": 112,
      "chip": "ym2612"
    },
    {
      "channel": 1,
      "note": 40,
      "start": 266.6583,
      "duration": 0.6062,
      "velocity": 127,
      "chip": "ym2612"
    },
    {
      "channel": 2,
      "note": 65,
      "start": 266.6591,
      "duration": 0.0493,
      "velocity": 120,
      "chip": "ym2612"
    },
    {
      "channel": 3,
      "note": 53,
      "start": 266.6598,
      "duration": 0.1508,
      "velocity": 127,
      "chip": "ym2612"
    },
    {
      "channel": 4,
      "note": 65,
      "start": 266.6651,
      "duration": 0.1178,
      "velocity": 109,
      "chip": "ym2612"
    },
    {
      "channel": 0,
      "note": 94,
      "start": 266.8092,
      "duration": 0.1506,
      "velocity": 112,
      "chip": "ym2612"
    },
    {
      "channel": 2,
      "note": 65,
      "start": 266.8105,
      "duration": 0.0495,
      "velocity": 120,
      "chip": "ym2612"
    },
    {
      "channel": 3,
      "note": 53,
      "start": 266.8112,
      "duration": 0.1511,
      "velocity": 127,
      "chip": "ym2612"
    },
    {
      "channel": 4,
      "note": 77,
      "start": 266.8168,
      "duration": 0.1178,
      "velocity": 112,
      "chip": "ym2612"
    },
    {
      "channel": 0,
      "note": 91,
      "start": 266.9609,
      "duration": 0.1505,
      "velocity": 112,
      "chip": "ym2612"
    },
    {
      "channel": 2,
      "note": 53,
      "start": 266.9621,
      "duration": 0.0495,
      "velocity": 120,
      "chip": "ym2612"
    },
    {
      "channel": 3,
      "note": 53,
      "start": 266.9629,
      "duration": 0.1511,
      "velocity": 127,
      "chip": "ym2612"
    },
    {
      "channel": 4,
      "note": 65,
      "start": 266.9685,
      "duration": 0.1177,
      "velocity": 108,
      "chip": "ym2612"
    },
    {
      "channel": 5,
      "note": 53,
      "start": 266.9694,
      "duration": 0.0333,
      "velocity": 105,
      "chip": "ym2612"
    },
    {
      "channel": 0,
      "note": 91,
      "start": 267.1126,
      "duration": 0.1506,
      "velocity": 112,
      "chip": "ym2612"
    },
    {
      "channel": 2,
      "note": 65,
      "start": 267.1139,
      "duration": 0.0495,
      "velocity": 120,
      "chip": "ym2612"
    },
    {
      "channel": 3,
      "note": 53,
      "start": 267.1146,
      "duration": 0.3028,
      "velocity": 127,
      "chip": "ym2612"
    },
    {
      "channel": 4,
      "note": 77,
      "start": 267.1201,
      "duration": 0.1178,
      "velocity": 108,
      "chip": "ym2612"
    },
    {
      "channel": 0,
      "note": 91,
      "start": 267.2643,
      "duration": 0.1505,
      "velocity": 112,
      "chip": "ym2612"
    },
    {
      "channel": 1,
      "note": 40,
      "start": 267.265,
      "duration": 0.6062,
      "velocity": 127,
      "chip": "ym2612"
    },
    {
      "channel": 2,
      "note": 53,
      "start": 267.2658,
      "duration": 0.0493,
      "velocity": 120,
      "chip": "ym2612"
    },
    {
      "channel": 4,
      "note": 77,
      "start": 267.2718,
      "duration": 0.1178,
      "velocity": 112,
      "chip": "ym2612"
    },
    {
      "channel": 0,
      "note": 91,
      "start": 267.4159,
      "duration": 0.1505,
      "velocity": 112,
      "chip": "ym2612"
    },
    {
      "channel": 2,
      "note": 53,
      "start": 267.4172,
      "duration": 0.0495,
      "velocity": 120,
      "chip": "ym2612"
    },
    {
      "channel": 3,
      "note": 53,
      "start": 267.4179,
      "duration": 0.1512,
      "velocity": 127,
      "chip": "ym2612"
    },
    {
      "channel": 4,
      "note": 65,
      "start": 267.4236,
      "duration": 0.1177,
      "velocity": 109,
      "chip": "ym2612"
    },
    {
      "channel": 0,
      "note": 91,
      "start": 267.5677,
      "duration": 0.1505,
      "velocity": 112,
      "chip": "ym2612"
    },
    {
      "channel": 2,
      "note": 65,
      "start": 267.5689,
      "duration": 0.0496,
      "velocity": 120,
      "chip": "ym2612"
    },
    {
      "channel": 3,
      "note": 53,
      "start": 267.5696,
      "duration": 0.3031,
      "velocity": 127,
      "chip": "ym2612"
    },
    {
      "channel": 4,
      "note": 77,
      "start": 267.5752,
      "duration": 0.1178,
      "velocity": 108,
      "chip": "ym2612"
    },
    {
      "channel": 0,
      "note": 91,
      "start": 267.7193,
      "duration": 0.1505,
      "velocity": 112,
      "chip": "ym2612"
    },
    {
      "channel": 2,
      "note": 53,
      "start": 267.7205,
      "duration": 0.0496,
      "velocity": 120,
      "chip": "ym2612"
    },
    {
      "channel": 4,
      "note": 65,
      "start": 267.7269,
      "duration": 0.1178,
      "velocity": 110,
      "chip": "ym2612"
    },
    {
      "channel": 0,
      "note": 91,
      "start": 267.871,
      "duration": 0.1506,
      "velocity": 112,
      "chip": "ym2612"
    },
    {
      "channel": 1,
      "note": 40,
      "start": 267.8717,
      "duration": 0.3029,
      "velocity": 127,
      "chip": "ym2612"
    },
    {
      "channel": 2,
      "note": 53,
      "start": 267.8724,
      "duration": 0.0494,
      "velocity": 120,
      "chip": "ym2612"
    },
    {
      "channel": 3,
      "note": 53,
      "start": 267.8733,
      "duration": 0.1509,
      "velocity": 127,
      "chip": "ym2612"
    },
    {
      "channel": 4,
      "note": 65,
      "start": 267.8785,
      "duration": 0.1178,
      "velocity": 109,
      "chip": "ym2612"
    },
    {
      "channel": 0,
      "note": 91,
      "start": 268.0227,
      "duration": 0.1505,
      "velocity": 112,
      "chip": "ym2612"
    },
    {
      "channel": 2,
      "note": 65,
      "start": 268.024,
      "duration": 0.0495,
      "velocity": 120,
      "chip": "ym2612"
    },
    {
      "channel": 3,
      "note": 53,
      "start": 268.0247,
      "duration": 0.3027,
      "velocity": 127,
      "chip": "ym2612"
    },
    {
      "channel": 4,
      "note": 77,
      "start": 268.0303,
      "duration": 0.1177,
      "velocity": 111,
      "chip": "ym2612"
    },
    {
      "channel": 0,
      "note": 91,
      "start": 268.1744,
      "duration": 0.1505,
      "velocity": 112,
      "chip": "ym2612"
    },
    {
      "channel": 1,
      "note": 41,
      "start": 268.1757,
      "duration": 0.909,
      "velocity": 75,
      "chip": "ym2612"
    },
    {
      "channel": 2,
      "note": 53,
      "start": 268.1764,
      "duration": 0.0487,
      "velocity": 120,
      "chip": "ym2612"
    },
    {
      "channel": 4,
      "note": 77,
      "start": 268.1819,
      "duration": 0.1178,
      "velocity": 112,
      "chip": "ym2612"
    },
    {
      "channel": 5,
      "note": 53,
      "start": 268.1829,
      "duration": 0.0333,
      "velocity": 105,
      "chip": "ym2612"
    },
    {
      "channel": 0,
      "note": 91,
      "start": 268.3261,
      "duration": 0.1506,
      "velocity": 112,
      "chip": "ym2612"
    },
    {
      "channel": 2,
      "note": 65,
      "start": 268.3273,
      "duration": 0.0495,
      "velocity": 120,
      "chip": "ym2612"
    },
    {
      "channel": 3,
      "note": 53,
      "start": 268.328,
      "duration": 0.1505,
      "velocity": 127,
      "chip": "ym2612"
    },
    {
      "channel": 4,
      "note": 65,
      "start": 268.3336,
      "duration": 0.1178,
      "velocity": 109,
      "chip": "ym2612"
    },
    {
      "channel": 0,
      "note": 91,
      "start": 268.4771,
      "duration": 0.1511,
      "velocity": 112,
      "chip": "ym2612"
    },
    {
      "channel": 2,
      "note": 53,
      "start": 268.4783,
      "duration": 0.0501,
      "velocity": 120,
      "chip": "ym2612"
    },
    {
      "channel": 3,
      "note": 53,
      "start": 268.4791,
      "duration": 0.3034,
      "velocity": 127,
      "chip": "ym2612"
    },
    {
      "channel": 4,
      "note": 77,
      "start": 268.4853,
      "duration": 0.1178,
      "velocity": 108,
      "chip": "ym2612"
    },
    {
      "channel": 0,
      "note": 91,
      "start": 268.6294,
      "duration": 0.1505,
      "velocity": 112,
      "chip": "ym2612"
    },
    {
      "channel": 2,
      "note": 53,
      "start": 268.6306,
      "duration": 0.0496,
      "velocity": 120,
      "chip": "ym2612"
    },
    {
      "channel": 4,
      "note": 65,
      "start": 268.6369,
      "duration": 0.1178,
      "velocity": 112,
      "chip": "ym2612"
    },
    {
      "channel": 0,
      "note": 91,
      "start": 268.7811,
      "duration": 0.1505,
      "velocity": 112,
      "chip": "ym2612"
    },
    {
      "channel": 2,
      "note": 65,
      "start": 268.7823,
      "duration": 0.0496,
      "velocity": 120,
      "chip": "ym2612"
    },
    {
      "channel": 3,
      "note": 53,
      "start": 268.7831,
      "duration": 0.1511,
      "velocity": 127,
      "chip": "ym2612"
    },
    {
      "channel": 4,
      "note": 65,
      "start": 268.7887,
      "duration": 0.1178,
      "velocity": 111,
      "chip": "ym2612"
    },
    {
      "channel": 0,
      "note": 91,
      "start": 268.9327,
      "duration": 0.1506,
      "velocity": 112,
      "chip": "ym2612"
    },
    {
      "channel": 2,
      "note": 53,
      "start": 268.9339,
      "duration": 0.0496,
      "velocity": 120,
      "chip": "ym2612"
    },
    {
      "channel": 3,
      "note": 53,
      "start": 268.9348,
      "duration": 0.3028,
      "velocity": 127,
      "chip": "ym2612"
    },
    {
      "channel": 4,
      "note": 77,
      "start": 268.9404,
      "duration": 0.1177,
      "velocity": 109,
      "chip": "ym2612"
    },
    {
      "channel": 0,
      "note": 91,
      "start": 269.0845,
      "duration": 0.1505,
      "velocity": 112,
      "chip": "ym2612"
    },
    {
      "channel": 1,
      "note": 40,
      "start": 269.0857,
      "duration": 0.6057,
      "velocity": 127,
      "chip": "ym2612"
    },
    {
      "channel": 2,
      "note": 53,
      "start": 269.0865,
      "duration": 0.0487,
      "velocity": 120,
      "chip": "ym2612"
    },
    {
      "channel": 4,
      "note": 65,
      "start": 269.092,
      "duration": 0.1177,
      "velocity": 111,
      "chip": "ym2612"
    },
    {
      "channel": 0,
      "note": 91,
      "start": 269.2361,
      "duration": 0.1506,
      "velocity": 112,
      "chip": "ym2612"
    },
    {
      "channel": 2,
      "note": 65,
      "start": 269.2374,
      "duration": 0.0495,
      "velocity": 120,
      "chip": "ym2612"
    },
    {
      "channel": 3,
      "note": 53,
      "start": 269.2381,
      "duration": 0.1511,
      "velocity": 127,
      "chip": "ym2612"
    },
    {
      "channel": 4,
      "note": 65,
      "start": 269.2437,
      "duration": 0.1178,
      "velocity": 112,
      "chip": "ym2612"
    },
    {
      "channel": 0,
      "note": 92,
      "start": 269.3878,
      "duration": 0.1505,
      "velocity": 112,
      "chip": "ym2612"
    },
    {
      "channel": 2,
      "note": 53,
      "start": 269.389,
      "duration": 0.0495,
      "velocity": 120,
      "chip": "ym2612"
    },
    {
      "channel": 3,
      "note": 53,
      "start": 269.3898,
      "duration": 0.3031,
      "velocity": 127,
      "chip": "ym2612"
    },
    {
      "channel": 4,
      "note": 65,
      "start": 269.3953,
      "duration": 0.1178,
      "velocity": 108,
      "chip": "ym2612"
    },
    {
      "channel": 5,
      "note": 53,
      "start": 269.3963,
      "duration": 0.0333,
      "velocity": 105,
      "chip": "ym2612"
    },
    {
      "channel": 0,
      "note": 92,
      "start": 269.5395,
      "duration": 0.1505,
      "velocity": 112,
      "chip": "ym2612"
    },
    {
      "channel": 2,
      "note": 65,
      "start": 269.5407,
      "duration": 0.0496,
      "velocity": 120,
      "chip": "ym2612"
    },
    {
      "channel": 4,
      "note": 77,
      "start": 269.5471,
      "duration": 0.1178,
      "velocity": 109,
      "chip": "ym2612"
    },
    {
      "channel": 0,
      "note": 92,
      "start": 269.6912,
      "duration": 0.1505,
      "velocity": 112,
      "chip": "ym2612"
    },
    {
      "channel": 1,
      "note": 40,
      "start": 269.692,
      "duration": 0.6062,
      "velocity": 127,
      "chip": "ym2612"
    },
    {
      "channel": 2,
      "note": 53,
      "start": 269.6927,
      "duration": 0.0493,
      "velocity": 120,
      "chip": "ym2612"
    },
    {
      "channel": 3,
      "note": 53,
      "start": 269.6935,
      "duration": 0.1508,
      "velocity": 127,
      "chip": "ym2612"
    },
    {
      "channel": 4,
      "note": 77,
      "start": 269.6987,
      "duration": 0.1178,
      "velocity": 110,
      "chip": "ym2612"
    },
    {
      "channel": 0,
      "note": 92,
      "start": 269.8429,
      "duration": 0.1505,
      "velocity": 112,
      "chip": "ym2612"
    },
    {
      "channel": 2,
      "note": 53,
      "start": 269.8441,
      "duration": 0.0496,
      "velocity": 120,
      "chip": "ym2612"
    },
    {
      "channel": 3,
      "note": 53,
      "start": 269.8448,
      "duration": 0.3028,
      "velocity": 127,
      "chip": "ym2612"
    },
    {
      "channel": 4,
      "note": 65,
      "start": 269.8504,
      "duration": 0.1178,
      "velocity": 111,
      "chip": "ym2612"
    },
    {
      "channel": 0,
      "note": 92,
      "start": 269.9945,
      "duration": 0.1506,
      "velocity": 112,
      "chip": "ym2612"
    },
    {
      "channel": 2,
      "note": 65,
      "start": 269.9958,
      "duration": 0.0495,
      "velocity": 120,
      "chip": "ym2612"
    },
    {
      "channel": 4,
      "note": 77,
      "start": 270.0021,
      "duration": 0.1178,
      "velocity": 108,
      "chip": "ym2612"
    },
    {
      "channel": 0,
      "note": 92,
      "start": 270.1462,
      "duration": 0.1505,
      "velocity": 112,
      "chip": "ym2612"
    },
    {
      "channel": 2,
      "note": 53,
      "start": 270.1474,
      "duration": 0.0495,
      "velocity": 120,
      "chip": "ym2612"
    },
    {
      "channel": 3,
      "note": 53,
      "start": 270.1482,
      "duration": 0.1514,
      "velocity": 127,
      "chip": "ym2612"
    },
    {
      "channel": 4,
      "note": 65,
      "start": 270.1538,
      "duration": 0.1177,
      "velocity": 109,
      "chip": "ym2612"
    },
    {
      "channel": 0,
      "note": 92,
      "start": 270.2979,
      "duration": 0.1506,
      "velocity": 112,
      "chip": "ym2612"
    },
    {
      "channel": 1,
      "note": 40,
      "start": 270.2986,
      "duration": 0.3029,
      "velocity": 127,
      "chip": "ym2612"
    },
    {
      "channel": 2,
      "note": 53,
      "start": 270.2993,
      "duration": 0.0493,
      "velocity": 120,
      "chip": "ym2612"
    },
    {
      "channel": 3,
      "note": 53,
      "start": 270.3002,
      "duration": 0.3033,
      "velocity": 127,
      "chip": "ym2612"
    },
    {
      "channel": 4,
      "note": 65,
      "start": 270.3054,
      "duration": 0.1178,
      "velocity": 112,
      "chip": "ym2612"
    },
    {
      "channel": 0,
      "note": 92,
      "start": 270.4496,
      "duration": 0.1505,
      "velocity": 112,
      "chip": "ym2612"
    },
    {
      "channel": 2,
      "note": 65,
      "start": 270.4508,
      "duration": 0.0495,
      "velocity": 120,
      "chip": "ym2612"
    },
    {
      "channel": 4,
      "note": 77,
      "start": 270.4572,
      "duration": 0.1178,
      "velocity": 110,
      "chip": "ym2612"
    },
    {
      "channel": 0,
      "note": 92,
      "start": 270.6012,
      "duration": 0.1505,
      "velocity": 112,
      "chip": "ym2612"
    },
    {
      "channel": 1,
      "note": 41,
      "start": 270.6025,
      "duration": 0.6057,
      "velocity": 75,
      "chip": "ym2612"
    },
    {
      "channel": 2,
      "note": 53,
      "start": 270.6033,
      "duration": 0.0487,
      "velocity": 120,
      "chip": "ym2612"
    },
    {
      "channel": 3,
      "note": 53,
      "start": 270.6041,
      "duration": 0.1503,
      "velocity": 127,
      "chip": "ym2612"
    },
    {
      "channel": 4,
      "note": 77,
      "start": 270.6088,
      "duration": 0.1178,
      "velocity": 111,
      "chip": "ym2612"
    },
    {
      "channel": 5,
      "note": 53,
      "start": 270.6097,
      "duration": 0.0333,
      "velocity": 105,
      "chip": "ym2612"
    },
    {
      "channel": 0,
      "note": 92,
      "start": 270.753,
      "duration": 0.1505,
      "velocity": 112,
      "chip": "ym2612"
    },
    {
      "channel": 2,
      "note": 65,
      "start": 270.7542,
      "duration": 0.0496,
      "velocity": 120,
      "chip": "ym2612"
    },
    {
      "channel": 3,
      "note": 53,
      "start": 270.7549,
      "duration": 0.3029,
      "velocity": 127,
      "chip": "ym2612"
    },
    {
      "channel": 4,
      "note": 65,
      "start": 270.7605,
      "duration": 0.1178,
      "velocity": 108,
      "chip": "ym2612"
    },
    {
      "channel": 0,
      "note": 92,
      "start": 270.9041,
      "duration": 0.1511,
      "velocity": 112,
      "chip": "ym2612"
    },
    {
      "channel": 2,
      "note": 53,
      "start": 270.9053,
      "duration": 0.0501,
      "velocity": 120,
      "chip": "ym2612"
    },
    {
      "channel": 4,
      "note": 77,
      "start": 270.9122,
      "duration": 0.1178,
      "velocity": 109,
      "chip": "ym2612"
    },
    {
      "channel": 0,
      "note": 92,
      "start": 271.0563,
      "duration": 0.1506,
      "velocity": 112,
      "chip": "ym2612"
    },
    {
      "channel": 2,
      "note": 53,
      "start": 271.0576,
      "duration": 0.0495,
      "velocity": 120,
      "chip": "ym2612"
    },
    {
      "channel": 3,
      "note": 53,
      "start": 271.0584,
      "duration": 0.1519,
      "velocity": 127,
      "chip": "ym2612"
    },
    {
      "channel": 4,
      "note": 65,
      "start": 271.0639,
      "duration": 0.1178,
      "velocity": 112,
      "chip": "ym2612"
    },
    {
      "channel": 0,
      "note": 92,
      "start": 271.208,
      "duration": 0.1505,
      "velocity": 112,
      "chip": "ym2612"
    },
    {
      "channel": 1,
      "note": 40,
      "start": 271.2093,
      "duration": 0.3022,
      "velocity": 127,
      "chip": "ym2612"
    },
    {
      "channel": 2,
      "note": 65,
      "start": 271.21,
      "duration": 0.0487,
      "velocity": 120,
      "chip": "ym2612"
    },
    {
      "channel": 3,
      "note": 53,
      "start": 271.2109,
      "duration": 0.3022,
      "velocity": 127,
      "chip": "ym2612"
    },
    {
      "channel": 4,
      "note": 77,
      "start": 271.2156,
      "duration": 0.1178,
      "velocity": 110,
      "chip": "ym2612"
    },
    {
      "channel": 0,
      "note": 92,
      "start": 271.3597,
      "duration": 0.1506,
      "velocity": 112,
      "chip": "ym2612"
    },
    {
      "channel": 2,
      "note": 53,
      "start": 271.3609,
      "duration": 0.0495,
      "velocity": 120,
      "chip": "ym2612"
    },
    {
      "channel": 4,
      "note": 65,
      "start": 271.3672,
      "duration": 0.1178,
      "velocity": 108,
      "chip": "ym2612"
    },
    {
      "channel": 0,
      "note": 92,
      "start": 271.5114,
      "duration": 0.1505,
      "velocity": 112,
      "chip": "ym2612"
    },
    {
      "channel": 1,
      "note": 40,
      "start": 271.5121,
      "duration": 0.3028,
      "velocity": 127,
      "chip": "ym2612"
    },
    {
      "channel": 2,
      "note": 65,
      "start": 271.5128,
      "duration": 0.0493,
      "velocity": 120,
      "chip": "ym2612"
    },
    {
      "channel": 3,
      "note": 53,
      "start": 271.5136,
      "duration": 0.1509,
      "velocity": 127,
      "chip": "ym2612"
    },
    {
      "channel": 4,
      "note": 65,
      "start": 271.5189,
      "duration": 0.1178,
      "velocity": 109,
      "chip": "ym2612"
    },
    {
      "channel": 0,
      "note": 92,
      "start": 271.663,
      "duration": 0.1505,
      "velocity": 112,
      "chip": "ym2612"
    },
    {
      "channel": 2,
      "note": 65,
      "start": 271.6642,
      "duration": 0.0495,
      "velocity": 120,
      "chip": "ym2612"
    },
    {
      "channel": 3,
      "note": 53,
      "start": 271.665,
      "duration": 0.1519,
      "velocity": 127,
      "chip": "ym2612"
    },
    {
      "channel": 4,
      "note": 77,
      "start": 271.6706,
      "duration": 0.1178,
      "velocity": 112,
      "chip": "ym2612"
    },
    {
      "channel": 0,
      "note": 89,
      "start": 271.8147,
      "duration": 0.1506,
      "velocity": 112,
      "chip": "ym2612"
    },
    {
      "channel": 1,
      "note": 7,
      "start": 271.8159,
      "duration": 2.426,
      "velocity": 1,
      "chip": "ym2612"
    },
    {
      "channel": 2,
      "note": 53,
      "start": 271.8167,
      "duration": 0.0488,
      "velocity": 120,
      "chip": "ym2612"
    },
    {
      "channel": 3,
      "note": 7,
      "start": 271.818,
      "duration": 2.4253,
      "velocity": 1,
      "chip": "ym2612"
    },
    {
      "channel": 4,
      "note": 65,
      "start": 271.8222,
      "duration": 0.1179,
      "velocity": 108,
      "chip": "ym2612"
    },
    {
      "channel": 5,
      "note": 53,
      "start": 271.8232,
      "duration": 0.0333,
      "velocity": 105,
      "chip": "ym2612"
    },
    {
      "channel": 0,
      "note": 89,
      "start": 271.9664,
      "duration": 0.1505,
      "velocity": 112,
      "chip": "ym2612"
    },
    {
      "channel": 2,
      "note": 65,
      "start": 271.9676,
      "duration": 0.0496,
      "velocity": 120,
      "chip": "ym2612"
    },
    {
      "channel": 4,
      "note": 77,
      "start": 271.974,
      "duration": 0.1177,
      "velocity": 108,
      "chip": "ym2612"
    },
    {
      "channel": 0,
      "note": 89,
      "start": 272.118,
      "duration": 0.1506,
      "velocity": 112,
      "chip": "ym2612"
    },
    {
      "channel": 2,
      "note": 53,
      "start": 272.1193,
      "duration": 0.0496,
      "velocity": 120,
      "chip": "ym2612"
    },
    {
      "channel": 4,
      "note": 77,
      "start": 272.1256,
      "duration": 0.1178,
      "velocity": 112,
      "chip": "ym2612"
    },
    {
      "channel": 0,
      "note": 89,
      "start": 272.2698,
      "duration": 0.1505,
      "velocity": 112,
      "chip": "ym2612"
    },
    {
      "channel": 2,
      "note": 53,
      "start": 272.271,
      "duration": 0.0495,
      "velocity": 120,
      "chip": "ym2612"
    },
    {
      "channel": 4,
      "note": 65,
      "start": 272.2773,
      "duration": 0.1178,
      "velocity": 109,
      "chip": "ym2612"
    },
    {
      "channel": 0,
      "note": 89,
      "start": 272.4214,
      "duration": 0.1505,
      "velocity": 112,
      "chip": "ym2612"
    },
    {
      "channel": 2,
      "note": 65,
      "start": 272.4226,
      "duration": 0.0495,
      "velocity": 120,
      "chip": "ym2612"
    },
    {
      "channel": 4,
      "note": 77,
      "start": 272.429,
      "duration": 0.1178,
      "velocity": 108,
      "chip": "ym2612"
    },
    {
      "channel": 0,
      "note": 89,
      "start": 272.5731,
      "duration": 0.1506,
      "velocity": 112,
      "chip": "ym2612"
    },
    {
      "channel": 2,
      "note": 53,
      "start": 272.5744,
      "duration": 0.0495,
      "velocity": 120,
      "chip": "ym2612"
    },
    {
      "channel": 4,
      "note": 65,
      "start": 272.5806,
      "duration": 0.1178,
      "velocity": 110,
      "chip": "ym2612"
    },
    {
      "channel": 0,
      "note": 89,
      "start": 272.7249,
      "duration": 0.1505,
      "velocity": 112,
      "chip": "ym2612"
    },
    {
      "channel": 2,
      "note": 53,
      "start": 272.7261,
      "duration": 0.0495,
      "velocity": 120,
      "chip": "ym2612"
    },
    {
      "channel": 4,
      "note": 65,
      "start": 272.7324,
      "duration": 0.1178,
      "velocity": 109,
      "chip": "ym2612"
    },
    {
      "channel": 0,
      "note": 89,
      "start": 272.8764,
      "duration": 0.1506,
      "velocity": 112,
      "chip": "ym2612"
    },
    {
      "channel": 2,
      "note": 65,
      "start": 272.8777,
      "duration": 0.0496,
      "velocity": 120,
      "chip": "ym2612"
    },
    {
      "channel": 4,
      "note": 77,
      "start": 272.884,
      "duration": 0.1178,
      "velocity": 111,
      "chip": "ym2612"
    },
    {
      "channel": 0,
      "note": 89,
      "start": 273.0282,
      "duration": 0.1505,
      "velocity": 112,
      "chip": "ym2612"
    },
    {
      "channel": 2,
      "note": 53,
      "start": 273.0294,
      "duration": 0.0496,
      "velocity": 120,
      "chip": "ym2612"
    },
    {
      "channel": 4,
      "note": 77,
      "start": 273.0357,
      "duration": 0.1177,
      "velocity": 112,
      "chip": "ym2612"
    },
    {
      "channel": 5,
      "note": 53,
      "start": 273.0366,
      "duration": 0.0333,
      "velocity": 105,
      "chip": "ym2612"
    },
    {
      "channel": 0,
      "note": 89,
      "start": 273.1798,
      "duration": 0.1506,
      "velocity": 112,
      "chip": "ym2612"
    },
    {
      "channel": 2,
      "note": 65,
      "start": 273.181,
      "duration": 0.0496,
      "velocity": 120,
      "chip": "ym2612"
    },
    {
      "channel": 4,
      "note": 65,
      "start": 273.1874,
      "duration": 0.1178,
      "velocity": 109,
      "chip": "ym2612"
    },
    {
      "channel": 0,
      "note": 89,
      "start": 273.331,
      "duration": 0.1511,
      "velocity": 112,
      "chip": "ym2612"
    },
    {
      "channel": 2,
      "note": 53,
      "start": 273.3322,
      "duration": 0.0501,
      "velocity": 120,
      "chip": "ym2612"
    },
    {
      "channel": 4,
      "note": 77,
      "start": 273.3391,
      "duration": 0.1178,
      "velocity": 108,
      "chip": "ym2612"
    },
    {
      "channel": 0,
      "note": 89,
      "start": 273.4832,
      "duration": 0.1506,
      "velocity": 112,
      "chip": "ym2612"
    },
    {
      "channel": 2,
      "note": 53,
      "start": 273.4844,
      "duration": 0.0495,
      "velocity": 120,
      "chip": "ym2612"
    },
    {
      "channel": 4,
      "note": 65,
      "start": 273.4908,
      "duration": 0.1177,
      "velocity": 112,
      "chip": "ym2612"
    },
    {
      "channel": 0,
      "note": 89,
      "start": 273.6349,
      "duration": 0.1505,
      "velocity": 112,
      "chip": "ym2612"
    },
    {
      "channel": 2,
      "note": 65,
      "start": 273.6361,
      "duration": 0.0495,
      "velocity": 120,
      "chip": "ym2612"
    },
    {
      "channel": 4,
      "note": 65,
      "start": 273.6424,
      "duration": 0.1178,
      "velocity": 111,
      "chip": "ym2612"
    },
    {
      "channel": 0,
      "note": 89,
      "start": 273.7866,
      "duration": 0.1505,
      "velocity": 112,
      "chip": "ym2612"
    },
    {
      "channel": 2,
      "note": 53,
      "start": 273.7878,
      "duration": 0.0495,
      "velocity": 120,
      "chip": "ym2612"
    },
    {
      "channel": 4,
      "note": 77,
      "start": 273.7941,
      "duration": 0.1178,
      "velocity": 109,
      "chip": "ym2612"
    },
    {
      "channel": 0,
      "note": 89,
      "start": 273.9382,
      "duration": 0.1506,
      "velocity": 112,
      "chip": "ym2612"
    },
    {
      "channel": 2,
      "note": 53,
      "start": 273.9394,
      "duration": 0.0496,
      "velocity": 120,
      "chip": "ym2612"
    },
    {
      "channel": 4,
      "note": 65,
      "start": 273.9458,
      "duration": 0.1178,
      "velocity": 111,
      "chip": "ym2612"
    },
    {
      "channel": 0,
      "note": 89,
      "start": 274.0899,
      "duration": 0.1506,
      "velocity": 112,
      "chip": "ym2612"
    },
    {
      "channel": 2,
      "note": 65,
      "start": 274.0912,
      "duration": 0.0495,
      "velocity": 120,
      "chip": "ym2612"
    },
    {
      "channel": 4,
      "note": 65,
      "start": 274.0975,
      "duration": 0.1177,
      "velocity": 112,
      "chip": "ym2612"
    },
    {
      "channel": 0,
      "note": 89,
      "start": 274.2417,
      "duration": 0.1505,
      "velocity": 112,
      "chip": "ym2612"
    },
    {
      "channel": 1,
      "note": 7,
      "start": 274.2424,
      "duration": 2.4263,
      "velocity": 1,
      "chip": "ym2612"
    },
    {
      "channel": 2,
      "note": 53,
      "start": 274.2431,
      "duration": 0.0493,
      "velocity": 120,
      "chip": "ym2612"
    },
    {
      "channel": 3,
      "note": 7,
      "start": 274.2438,
      "duration": 2.4273,
      "velocity": 1,
      "chip": "ym2612"
    },
    {
      "channel": 4,
      "note": 65,
      "start": 274.2492,
      "duration": 0.1178,
      "velocity": 108,
      "chip": "ym2612"
    },
    {
      "channel": 5,
      "note": 53,
      "start": 274.2501,
      "duration": 0.0333,
      "velocity": 105,
      "chip": "ym2612"
    },
    {
      "channel": 0,
      "note": 89,
      "start": 274.3933,
      "duration": 0.1505,
      "velocity": 112,
      "chip": "ym2612"
    },
    {
      "channel": 2,
      "note": 65,
      "start": 274.3945,
      "duration": 0.0495,
      "velocity": 120,
      "chip": "ym2612"
    },
    {
      "channel": 4,
      "note": 77,
      "start": 274.4009,
      "duration": 0.1178,
      "velocity": 109,
      "chip": "ym2612"
    },
    {
      "channel": 0,
      "note": 89,
      "start": 274.545,
      "duration": 0.1506,
      "velocity": 112,
      "chip": "ym2612"
    },
    {
      "channel": 2,
      "note": 53,
      "start": 274.5462,
      "duration": 0.0495,
      "velocity": 120,
      "chip": "ym2612"
    },
    {
      "channel": 4,
      "note": 77,
      "start": 274.5525,
      "duration": 0.1178,
      "velocity": 110,
      "chip": "ym2612"
    },
    {
      "channel": 0,
      "note": 89,
      "start": 274.6967,
      "duration": 0.1505,
      "velocity": 112,
      "chip": "ym2612"
    },
    {
      "channel": 2,
      "note": 53,
      "start": 274.6979,
      "duration": 0.0495,
      "velocity": 120,
      "chip": "ym2612"
    },
    {
      "channel": 4,
      "note": 65,
      "start": 274.7042,
      "duration": 0.1178,
      "velocity": 111,
      "chip": "ym2612"
    },
    {
      "channel": 0,
      "note": 89,
      "start": 274.8483,
      "duration": 0.1505,
      "velocity": 112,
      "chip": "ym2612"
    },
    {
      "channel": 2,
      "note": 65,
      "start": 274.8495,
      "duration": 0.0495,
      "velocity": 120,
      "chip": "ym2612"
    },
    {
      "channel": 4,
      "note": 77,
      "start": 274.8559,
      "duration": 0.1178,
      "velocity": 108,
      "chip": "ym2612"
    },
    {
      "channel": 0,
      "note": 89,
      "start": 275.0,
      "duration": 0.1506,
      "velocity": 112,
      "chip": "ym2612"
    },
    {
      "channel": 2,
      "note": 53,
      "start": 275.0012,
      "duration": 0.0496,
      "velocity": 120,
      "chip": "ym2612"
    },
    {
      "channel": 4,
      "note": 65,
      "start": 275.0076,
      "duration": 0.1178,
      "velocity": 109,
      "chip": "ym2612"
    },
    {
      "channel": 0,
      "note": 89,
      "start": 275.1517,
      "duration": 0.1505,
      "velocity": 112,
      "chip": "ym2612"
    },
    {
      "channel": 2,
      "note": 53,
      "start": 275.1529,
      "duration": 0.0496,
      "velocity": 120,
      "chip": "ym2612"
    },
    {
      "channel": 4,
      "note": 65,
      "start": 275.1593,
      "duration": 0.1177,
      "velocity": 112,
      "chip": "ym2612"
    },
    {
      "channel": 0,
      "note": 89,
      "start": 275.3034,
      "duration": 0.1506,
      "velocity": 112,
      "chip": "ym2612"
    },
    {
      "channel": 2,
      "note": 65,
      "start": 275.3046,
      "duration": 0.0496,
      "velocity": 120,
      "chip": "ym2612"
    },
    {
      "channel": 4,
      "note": 77,
      "start": 275.3109,
      "duration": 0.1178,
      "velocity": 110,
      "chip": "ym2612"
    },
    {
      "channel": 0,
      "note": 89,
      "start": 275.4551,
      "duration": 0.1505,
      "velocity": 112,
      "chip": "ym2612"
    },
    {
      "channel": 2,
      "note": 53,
      "start": 275.4563,
      "duration": 0.0495,
      "velocity": 120,
      "chip": "ym2612"
    },
    {
      "channel": 4,
      "note": 77,
      "start": 275.4626,
      "duration": 0.1178,
      "velocity": 111,
      "chip": "ym2612"
    },
    {
      "channel": 5,
      "note": 53,
      "start": 275.4635,
      "duration": 0.0333,
      "velocity": 105,
      "chip": "ym2612"
    },
    {
      "channel": 0,
      "note": 89,
      "start": 275.6068,
      "duration": 0.1505,
      "velocity": 112,
      "chip": "ym2612"
    },
    {
      "channel": 2,
      "note": 65,
      "start": 275.608,
      "duration": 0.0495,
      "velocity": 120,
      "chip": "ym2612"
    },
    {
      "channel": 4,
      "note": 65,
      "start": 275.6143,
      "duration": 0.1178,
      "velocity": 108,
      "chip": "ym2612"
    },
    {
      "channel": 0,
      "note": 89,
      "start": 275.7579,
      "duration": 0.1511,
      "velocity": 112,
      "chip": "ym2612"
    },
    {
      "channel": 2,
      "note": 53,
      "start": 275.7591,
      "duration": 0.0501,
      "velocity": 120,
      "chip": "ym2612"
    },
    {
      "channel": 4,
      "note": 77,
      "start": 275.7659,
      "duration": 0.1178,
      "velocity": 109,
      "chip": "ym2612"
    },
    {
      "channel": 0,
      "note": 89,
      "start": 275.9101,
      "duration": 0.1505,
      "velocity": 112,
      "chip": "ym2612"
    },
    {
      "channel": 2,
      "note": 53,
      "start": 275.9113,
      "duration": 0.0495,
      "velocity": 120,
      "chip": "ym2612"
    },
    {
      "channel": 4,
      "note": 65,
      "start": 275.9177,
      "duration": 0.1178,
      "velocity": 112,
      "chip": "ym2612"
    },
    {
      "channel": 0,
      "note": 89,
      "start": 276.0618,
      "duration": 0.1505,
      "velocity": 112,
      "chip": "ym2612"
    },
    {
      "channel": 2,
      "note": 65,
      "start": 276.063,
      "duration": 0.0496,
      "velocity": 120,
      "chip": "ym2612"
    },
    {
      "channel": 4,
      "note": 77,
      "start": 276.0693,
      "duration": 0.1178,
      "velocity": 110,
      "chip": "ym2612"
    },
    {
      "channel": 0,
      "note": 89,
      "start": 276.2135,
      "duration": 0.1505,
      "velocity": 112,
      "chip": "ym2612"
    },
    {
      "channel": 2,
      "note": 53,
      "start": 276.2147,
      "duration": 0.0496,
      "velocity": 120,
      "chip": "ym2612"
    },
    {
      "channel": 4,
      "note": 65,
      "start": 276.221,
      "duration": 0.1177,
      "velocity": 108,
      "chip": "ym2612"
    },
    {
      "channel": 0,
      "note": 89,
      "start": 276.3651,
      "duration": 0.1506,
      "velocity": 112,
      "chip": "ym2612"
    },
    {
      "channel": 2,
      "note": 65,
      "start": 276.3663,
      "duration": 0.0496,
      "velocity": 120,
      "chip": "ym2612"
    },
    {
      "channel": 4,
      "note": 65,
      "start": 276.3727,
      "duration": 0.1178,
      "velocity": 109,
      "chip": "ym2612"
    },
    {
      "channel": 0,
      "note": 89,
      "start": 276.5168,
      "duration": 0.1505,
      "velocity": 112,
      "chip": "ym2612"
    },
    {
      "channel": 2,
      "note": 65,
      "start": 276.518,
      "duration": 0.0495,
      "velocity": 120,
      "chip": "ym2612"
    },
    {
      "channel": 4,
      "note": 77,
      "start": 276.5244,
      "duration": 0.1178,
      "velocity": 112,
      "chip": "ym2612"
    },
    {
      "channel": 0,
      "note": 40,
      "start": 276.6684,
      "duration": 0.3023,
      "velocity": 127,
      "chip": "ym2612"
    },
    {
      "channel": 1,
      "note": 65,
      "start": 276.6697,
      "duration": 0.1163,
      "velocity": 108,
      "chip": "ym2612"
    },
    {
      "channel": 2,
      "note": 41,
      "start": 276.671,
      "duration": 0.1492,
      "velocity": 123,
      "chip": "ym2612"
    },
    {
      "channel": 3,
      "note": 53,
      "start": 276.6723,
      "duration": 0.0474,
      "velocity": 120,
      "chip": "ym2612"
    },
    {
      "channel": 4,
      "note": 65,
      "start": 276.6768,
      "duration": 0.1505,
      "velocity": 112,
      "chip": "ym2612"
    },
    {
      "channel": 5,
      "note": 65,
      "start": 276.678,
      "duration": 0.0826,
      "velocity": 112,
      "chip": "ym2612"
    },
    {
      "channel": 1,
      "note": 77,
      "start": 276.82,
      "duration": 0.1178,
      "velocity": 108,
      "chip": "ym2612"
    },
    {
      "channel": 2,
      "note": 41,
      "start": 276.8207,
      "duration": 0.152,
      "velocity": 122,
      "chip": "ym2612"
    },
    {
      "channel": 3,
      "note": 65,
      "start": 276.8214,
      "duration": 0.0499,
      "velocity": 120,
      "chip": "ym2612"
    },
    {
      "channel": 4,
      "note": 65,
      "start": 276.8284,
      "duration": 0.1505,
      "velocity": 112,
      "chip": "ym2612"
    },
    {
      "channel": 5,
      "note": 65,
      "start": 276.8291,
      "duration": 0.0833,
      "velocity": 112,
      "chip": "ym2612"
    },
    {
      "channel": 0,
      "note": 41,
      "start": 276.9718,
      "duration": 0.3023,
      "velocity": 123,
      "chip": "ym2612"
    },
    {
      "channel": 1,
      "note": 77,
      "start": 276.9725,
      "duration": 0.1169,
      "velocity": 112,
      "chip": "ym2612"
    },
    {
      "channel": 2,
      "note": 41,
      "start": 276.9732,
      "duration": 0.1505,
      "velocity": 121,
      "chip": "ym2612"
    },
    {
      "channel": 3,
      "note": 53,
      "start": 276.974,
      "duration": 0.0491,
      "velocity": 120,
      "chip": "ym2612"
    },
    {
      "channel": 4,
      "note": 65,
      "start": 276.9801,
      "duration": 0.1505,
      "velocity": 112,
      "chip": "ym2612"
    },
    {
      "channel": 5,
      "note": 65,
      "start": 276.9808,
      "duration": 0.0832,
      "velocity": 112,
      "chip": "ym2612"
    },
    {
      "channel": 1,
      "note": 65,
      "start": 277.1233,
      "duration": 0.1178,
      "velocity": 109,
      "chip": "ym2612"
    },
    {
      "channel": 2,
      "note": 41,
      "start": 277.1241,
      "duration": 0.152,
      "velocity": 120,
      "chip": "ym2612"
    },
    {
      "channel": 3,
      "note": 53,
      "start": 277.1249,
      "duration": 0.0499,
      "velocity": 120,
      "chip": "ym2612"
    },
    {
      "channel": 4,
      "note": 65,
      "start": 277.1318,
      "duration": 0.1505,
      "velocity": 112,
      "chip": "ym2612"
    },
    {
      "channel": 5,
      "note": 65,
      "start": 277.1325,
      "duration": 0.0832,
      "velocity": 112,
      "chip": "ym2612"
    },
    {
      "channel": 0,
      "note": 40,
      "start": 277.2752,
      "duration": 0.3023,
      "velocity": 127,
      "chip": "ym2612"
    },
    {
      "channel": 1,
      "note": 77,
      "start": 277.2759,
      "duration": 0.1169,
      "velocity": 108,
      "chip": "ym2612"
    },
    {
      "channel": 2,
      "note": 41,
      "start": 277.2766,
      "duration": 0.1504,
      "velocity": 119,
      "chip": "ym2612"
    },
    {
      "channel": 3,
      "note": 65,
      "start": 277.2773,
      "duration": 0.0492,
      "velocity": 120,
      "chip": "ym2612"
    },
    {
      "channel": 4,
      "note": 65,
      "start": 277.2834,
      "duration": 0.1505,
      "velocity": 112,
      "chip": "ym2612"
    },
    {
      "channel": 5,
      "note": 65,
      "start": 277.2841,
      "duration": 0.0833,
      "velocity": 112,
      "chip": "ym2612"
    },
    {
      "channel": 1,
      "note": 65,
      "start": 277.4267,
      "duration": 0.1178,
      "velocity": 110,
      "chip": "ym2612"
    },
    {
      "channel": 2,
      "note": 42,
      "start": 277.4274,
      "duration": 0.152,
      "velocity": 118,
      "chip": "ym2612"
    },
    {
      "channel": 3,
      "note": 53,
      "start": 277.4282,
      "duration": 0.0499,
      "velocity": 120,
      "chip": "ym2612"
    },
    {
      "channel": 4,
      "note": 65,
      "start": 277.4352,
      "duration": 0.1505,
      "velocity": 112,
      "chip": "ym2612"
    },
    {
      "channel": 5,
      "note": 65,
      "start": 277.4359,
      "duration": 0.0832,
      "velocity": 112,
      "chip": "ym2612"
    },
    {
      "channel": 0,
      "note": 41,
      "start": 277.5785,
      "duration": 0.3022,
      "velocity": 123,
      "chip": "ym2612"
    },
    {
      "channel": 1,
      "note": 65,
      "start": 277.5793,
      "duration": 0.1169,
      "velocity": 109,
      "chip": "ym2612"
    },
    {
      "channel": 2,
      "note": 41,
      "start": 277.58,
      "duration": 0.1504,
      "velocity": 117,
      "chip": "ym2612"
    },
    {
      "channel": 3,
      "note": 53,
      "start": 277.5806,
      "duration": 0.0492,
      "velocity": 120,
      "chip": "ym2612"
    },
    {
      "channel": 4,
      "note": 65,
      "start": 277.5868,
      "duration": 0.1505,
      "velocity": 112,
      "chip": "ym2612"
    },
    {
      "channel": 5,
      "note": 65,
      "start": 277.5875,
      "duration": 0.0833,
      "velocity": 112,
      "chip": "ym2612"
    },
    {
      "channel": 1,
      "note": 77,
      "start": 277.7301,
      "duration": 0.1178,
      "velocity": 111,
      "chip": "ym2612"
    },
    {
      "channel": 2,
      "note": 41,
      "start": 277.7308,
      "duration": 0.152,
      "velocity": 116,
      "chip": "ym2612"
    },
    {
      "channel": 3,
      "note": 65,
      "start": 277.7315,
      "duration": 0.0499,
      "velocity": 120,
      "chip": "ym2612"
    },
    {
      "channel": 4,
      "note": 65,
      "start": 277.7385,
      "duration": 0.1505,
      "velocity": 112,
      "chip": "ym2612"
    },
    {
      "channel": 5,
      "note": 65,
      "start": 277.7392,
      "duration": 0.0832,
      "velocity": 112,
      "chip": "ym2612"
    },
    {
      "channel": 0,
      "note": 40,
      "start": 277.8819,
      "duration": 0.6057,
      "velocity": 127,
      "chip": "ym2612"
    },
    {
      "channel": 1,
      "note": 77,
      "start": 277.8826,
      "duration": 0.117,
      "velocity": 112,
      "chip": "ym2612"
    },
    {
      "channel": 2,
      "note": 42,
      "start": 277.8833,
      "duration": 0.1503,
      "velocity": 115,
      "chip": "ym2612"
    },
    {
      "channel": 3,
      "note": 53,
      "start": 277.884,
      "duration": 0.0491,
      "velocity": 120,
      "chip": "ym2612"
    },
    {
      "channel": 4,
      "note": 65,
      "start": 277.8902,
      "duration": 0.1505,
      "velocity": 112,
      "chip": "ym2612"
    },
    {
      "channel": 5,
      "note": 65,
      "start": 277.891,
      "duration": 0.0832,
      "velocity": 112,
      "chip": "ym2612"
    },
    {
      "channel": 1,
      "note": 65,
      "start": 278.0334,
      "duration": 0.1177,
      "velocity": 109,
      "chip": "ym2612"
    },
    {
      "channel": 2,
      "note": 41,
      "start": 278.0341,
      "duration": 0.1512,
      "velocity": 114,
      "chip": "ym2612"
    },
    {
      "channel": 3,
      "note": 65,
      "start": 278.0349,
      "duration": 0.05,
      "velocity": 120,
      "chip": "ym2612"
    },
    {
      "channel": 4,
      "note": 65,
      "start": 278.0418,
      "duration": 0.1506,
      "velocity": 112,
      "chip": "ym2612"
    },
    {
      "channel": 5,
      "note": 65,
      "start": 278.0426,
      "duration": 0.0832,
      "velocity": 112,
      "chip": "ym2612"
    },
    {
      "channel": 1,
      "note": 77,
      "start": 278.1851,
      "duration": 0.1178,
      "velocity": 108,
      "chip": "ym2612"
    },
    {
      "channel": 2,
      "note": 41,
      "start": 278.1859,
      "duration": 0.1512,
      "velocity": 113,
      "chip": "ym2612"
    },
    {
      "channel": 3,
      "note": 53,
      "start": 278.1866,
      "duration": 0.0499,
      "velocity": 120,
      "chip": "ym2612"
    },
    {
      "channel": 4,
      "note": 65,
      "start": 278.193,
      "duration": 0.1511,
      "velocity": 112,
      "chip": "ym2612"
    },
    {
      "channel": 5,
      "note": 65,
      "start": 278.1937,
      "duration": 0.0838,
      "velocity": 112,
      "chip": "ym2612"
    },
    {
      "channel": 1,
      "note": 65,
      "start": 278.3368,
      "duration": 0.1178,
      "velocity": 112,
      "chip": "ym2612"
    },
    {
      "channel": 2,
      "note": 41,
      "start": 278.3375,
      "duration": 0.1514,
      "velocity": 112,
      "chip": "ym2612"
    },
    {
      "channel": 3,
      "note": 53,
      "start": 278.3383,
      "duration": 0.0499,
      "velocity": 120,
      "chip": "ym2612"
    },
    {
      "channel": 4,
      "note": 65,
      "start": 278.3452,
      "duration": 0.1505,
      "velocity": 112,
      "chip": "ym2612"
    },
    {
      "channel": 5,
      "note": 65,
      "start": 278.346,
      "duration": 0.0832,
      "velocity": 112,
      "chip": "ym2612"
    },
    {
      "channel": 0,
      "note": 40,
      "start": 278.488,
      "duration": 0.3029,
      "velocity": 127,
      "chip": "ym2612"
    },
    {
      "channel": 1,
      "note": 65,
      "start": 278.4887,
      "duration": 0.1176,
      "velocity": 111,
      "chip": "ym2612"
    },
    {
      "channel": 2,
      "note": 41,
      "start": 278.4894,
      "duration": 0.151,
      "velocity": 111,
      "chip": "ym2612"
    },
    {
      "channel": 3,
      "note": 65,
      "start": 278.4902,
      "duration": 0.0497,
      "velocity": 120,
      "chip": "ym2612"
    },
    {
      "channel": 4,
      "note": 65,
      "start": 278.4969,
      "duration": 0.1505,
      "velocity": 112,
      "chip": "ym2612"
    },
    {
      "channel": 5,
      "note": 65,
      "start": 278.4976,
      "duration": 0.0832,
      "velocity": 112,
      "chip": "ym2612"
    },
    {
      "channel": 1,
      "note": 77,
      "start": 278.6402,
      "duration": 0.1178,
      "velocity": 109,
      "chip": "ym2612"
    },
    {
      "channel": 2,
      "note": 41,
      "start": 278.641,
      "duration": 0.1519,
      "velocity": 110,
      "chip": "ym2612"
    },
    {
      "channel": 3,
      "note": 53,
      "start": 278.6417,
      "duration": 0.0499,
      "velocity": 120,
      "chip": "ym2612"
    },
    {
      "channel": 4,
      "note": 65,
      "start": 278.6486,
      "duration": 0.1505,
      "velocity": 112,
      "chip": "ym2612"
    },
    {
      "channel": 5,
      "note": 65,
      "start": 278.6493,
      "duration": 0.0833,
      "velocity": 112,
      "chip": "ym2612"
    },
    {
      "channel": 0,
      "note": 41,
      "start": 278.792,
      "duration": 0.3023,
      "velocity": 123,
      "chip": "ym2612"
    },
    {
      "channel": 1,
      "note": 65,
      "start": 278.7927,
      "duration": 0.1169,
      "velocity": 111,
      "chip": "ym2612"
    },
    {
      "channel": 2,
      "note": 29,
      "start": 278.7934,
      "duration": 0.1504,
      "velocity": 109,
      "chip": "ym2612"
    },
    {
      "channel": 3,
      "note": 53,
      "start": 278.7941,
      "duration": 0.0491,
      "velocity": 120,
      "chip": "ym2612"
    },
    {
      "channel": 4,
      "note": 65,
      "start": 278.8003,
      "duration": 0.1505,
      "velocity": 112,
      "chip": "ym2612"
    },
    {
      "channel": 5,
      "note": 65,
      "start": 278.801,
      "duration": 0.0832,
      "velocity": 112,
      "chip": "ym2612"
    },
    {
      "channel": 1,
      "note": 65,
      "start": 278.9436,
      "duration": 0.1178,
      "velocity": 112,
      "chip": "ym2612"
    },
    {
      "channel": 2,
      "note": 41,
      "start": 278.9443,
      "duration": 0.152,
      "velocity": 108,
      "chip": "ym2612"
    },
    {
      "channel": 3,
      "note": 65,
      "start": 278.945,
      "duration": 0.0499,
      "velocity": 120,
      "chip": "ym2612"
    },
    {
      "channel": 4,
      "note": 65,
      "start": 278.952,
      "duration": 0.1505,
      "velocity": 112,
      "chip": "ym2612"
    },
    {
      "channel": 5,
      "note": 65,
      "start": 278.9527,
      "duration": 0.0833,
      "velocity": 112,
      "chip": "ym2612"
    },
    {
      "channel": 0,
      "note": 40,
      "start": 279.0953,
      "duration": 0.3023,
      "velocity": 127,
      "chip": "ym2612"
    },
    {
      "channel": 1,
      "note": 65,
      "start": 279.096,
      "duration": 0.1169,
      "velocity": 108,
      "chip": "ym2612"
    },
    {
      "channel": 2,
      "note": 41,
      "start": 279.0967,
      "duration": 0.1504,
      "velocity": 123,
      "chip": "ym2612"
    },
    {
      "channel": 3,
      "note": 53,
      "start": 279.0975,
      "duration": 0.0491,
      "velocity": 120,
      "chip": "ym2612"
    },
    {
      "channel": 4,
      "note": 65,
      "start": 279.1036,
      "duration": 0.1506,
      "velocity": 112,
      "chip": "ym2612"
    },
    {
      "channel": 5,
      "note": 65,
      "start": 279.1044,
      "duration": 0.0832,
      "velocity": 112,
      "chip": "ym2612"
    },
    {
      "channel": 1,
      "note": 77,
      "start": 279.2469,
      "duration": 0.1178,
      "velocity": 109,
      "chip": "ym2612"
    },
    {
      "channel": 2,
      "note": 41,
      "start": 279.2476,
      "duration": 0.152,
      "velocity": 122,
      "chip": "ym2612"
    },
    {
      "channel": 3,
      "note": 65,
      "start": 279.2483,
      "duration": 0.0499,
      "velocity": 120,
      "chip": "ym2612"
    },
    {
      "channel": 4,
      "note": 65,
      "start": 279.2553,
      "duration": 0.1505,
      "velocity": 112,
      "chip": "ym2612"
    },
    {
      "channel": 5,
      "note": 65,
      "start": 279.256,
      "duration": 0.0832,
      "velocity": 112,
      "chip": "ym2612"
    },
    {
      "channel": 0,
      "note": 41,
      "start": 279.3987,
      "duration": 0.3023,
      "velocity": 123,
      "chip": "ym2612"
    },
    {
      "channel": 1,
      "note": 77,
      "start": 279.3994,
      "duration": 0.1169,
      "velocity": 110,
      "chip": "ym2612"
    },
    {
      "channel": 2,
      "note": 41,
      "start": 279.4001,
      "duration": 0.1504,
      "velocity": 121,
      "chip": "ym2612"
    },
    {
      "channel": 3,
      "note": 53,
      "start": 279.4009,
      "duration": 0.0491,
      "velocity": 120,
      "chip": "ym2612"
    },
    {
      "channel": 4,
      "note": 65,
      "start": 279.4071,
      "duration": 0.1504,
      "velocity": 112,
      "chip": "ym2612"
    },
    {
      "channel": 5,
      "note": 65,
      "start": 279.4077,
      "duration": 0.0833,
      "velocity": 112,
      "chip": "ym2612"
    },
    {
      "channel": 1,
      "note": 65,
      "start": 279.5502,
      "duration": 0.1178,
      "velocity": 111,
      "chip": "ym2612"
    },
    {
      "channel": 2,
      "note": 41,
      "start": 279.5509,
      "duration": 0.152,
      "velocity": 120,
      "chip": "ym2612"
    },
    {
      "channel": 3,
      "note": 53,
      "start": 279.5517,
      "duration": 0.0499,
      "velocity": 120,
      "chip": "ym2612"
    },
    {
      "channel": 4,
      "note": 65,
      "start": 279.5587,
      "duration": 0.1505,
      "velocity": 112,
      "chip": "ym2612"
    },
    {
      "channel": 5,
      "note": 65,
      "start": 279.5594,
      "duration": 0.0832,
      "velocity": 112,
      "chip": "ym2612"
    },
    {
      "channel": 0,
      "note": 40,
      "start": 279.7021,
      "duration": 0.6056,
      "velocity": 127,
      "chip": "ym2612"
    },
    {
      "channel": 1,
      "note": 77,
      "start": 279.7028,
      "duration": 0.1169,
      "velocity": 108,
      "chip": "ym2612"
    },
    {
      "channel": 2,
      "note": 41,
      "start": 279.7035,
      "duration": 0.1504,
      "velocity": 119,
      "chip": "ym2612"
    },
    {
      "channel": 3,
      "note": 65,
      "start": 279.7042,
      "duration": 0.0492,
      "velocity": 120,
      "chip": "ym2612"
    },
    {
      "channel": 4,
      "note": 65,
      "start": 279.7098,
      "duration": 0.1511,
      "velocity": 112,
      "chip": "ym2612"
    },
    {
      "channel": 5,
      "note": 65,
      "start": 279.7105,
      "duration": 0.0839,
      "velocity": 112,
      "chip": "ym2612"
    },
    {
      "channel": 1,
      "note": 65,
      "start": 279.8536,
      "duration": 0.1178,
      "velocity": 109,
      "chip": "ym2612"
    },
    {
      "channel": 2,
      "note": 42,
      "start": 279.8543,
      "duration": 0.1512,
      "velocity": 118,
      "chip": "ym2612"
    },
    {
      "channel": 3,
      "note": 53,
      "start": 279.8551,
      "duration": 0.0499,
      "velocity": 120,
      "chip": "ym2612"
    },
    {
      "channel": 4,
      "note": 65,
      "start": 279.8621,
      "duration": 0.1505,
      "velocity": 112,
      "chip": "ym2612"
    },
    {
      "channel": 5,
      "note": 65,
      "start": 279.8628,
      "duration": 0.0832,
      "velocity": 112,
      "chip": "ym2612"
    },
    {
      "channel": 1,
      "note": 65,
      "start": 280.0053,
      "duration": 0.1178,
      "velocity": 112,
      "chip": "ym2612"
    },
    {
      "channel": 2,
      "note": 41,
      "start": 280.006,
      "duration": 0.1512,
      "velocity": 117,
      "chip": "ym2612"
    },
    {
      "channel": 3,
      "note": 53,
      "start": 280.0068,
      "duration": 0.0499,
      "velocity": 120,
      "chip": "ym2612"
    },
    {
      "channel": 4,
      "note": 65,
      "start": 280.0137,
      "duration": 0.1505,
      "velocity": 112,
      "chip": "ym2612"
    },
    {
      "channel": 5,
      "note": 65,
      "start": 280.0144,
      "duration": 0.0833,
      "velocity": 112,
      "chip": "ym2612"
    },
    {
      "channel": 1,
      "note": 77,
      "start": 280.1571,
      "duration": 0.1177,
      "velocity": 110,
      "chip": "ym2612"
    },
    {
      "channel": 2,
      "note": 41,
      "start": 280.1577,
      "duration": 0.1514,
      "velocity": 116,
      "chip": "ym2612"
    },
    {
      "channel": 3,
      "note": 65,
      "start": 280.1585,
      "duration": 0.0499,
      "velocity": 120,
      "chip": "ym2612"
    },
    {
      "channel": 4,
      "note": 65,
      "start": 280.1654,
      "duration": 0.1505,
      "velocity": 112,
      "chip": "ym2612"
    },
    {
      "channel": 5,
      "note": 65,
      "start": 280.1661,
      "duration": 0.0832,
      "velocity": 112,
      "chip": "ym2612"
    },
    {
      "channel": 0,
      "note": 40,
      "start": 280.3082,
      "duration": 0.3029,
      "velocity": 127,
      "chip": "ym2612"
    },
    {
      "channel": 1,
      "note": 77,
      "start": 280.3089,
      "duration": 0.1176,
      "velocity": 111,
      "chip": "ym2612"
    },
    {
      "channel": 2,
      "note": 42,
      "start": 280.3096,
      "duration": 0.151,
      "velocity": 115,
      "chip": "ym2612"
    },
    {
      "channel": 3,
      "note": 53,
      "start": 280.3103,
      "duration": 0.0497,
      "velocity": 120,
      "chip": "ym2612"
    },
    {
      "channel": 4,
      "note": 65,
      "start": 280.3171,
      "duration": 0.1505,
      "velocity": 112,
      "chip": "ym2612"
    },
    {
      "channel": 5,
      "note": 65,
      "start": 280.3178,
      "duration": 0.0832,
      "velocity": 112,
      "chip": "ym2612"
    },
    {
      "channel": 1,
      "note": 65,
      "start": 280.4603,
      "duration": 0.1178,
      "velocity": 108,
      "chip": "ym2612"
    },
    {
      "channel": 2,
      "note": 41,
      "start": 280.461,
      "duration": 0.152,
      "velocity": 114,
      "chip": "ym2612"
    },
    {
      "channel": 3,
      "note": 65,
      "start": 280.4618,
      "duration": 0.0499,
      "velocity": 120,
      "chip": "ym2612"
    },
    {
      "channel": 4,
      "note": 65,
      "start": 280.4688,
      "duration": 0.1505,
      "velocity": 112,
      "chip": "ym2612"
    },
    {
      "channel": 5,
      "note": 65,
      "start": 280.4695,
      "duration": 0.0833,
      "velocity": 112,
      "chip": "ym2612"
    },
    {
      "channel": 0,
      "note": 41,
      "start": 280.6121,
      "duration": 0.3023,
      "velocity": 123,
      "chip": "ym2612"
    },
    {
      "channel": 1,
      "note": 77,
      "start": 280.6128,
      "duration": 0.117,
      "velocity": 109,
      "chip": "ym2612"
    },
    {
      "channel": 2,
      "note": 41,
      "start": 280.6135,
      "duration": 0.1504,
      "velocity": 113,
      "chip": "ym2612"
    },
    {
      "channel": 3,
      "note": 53,
      "start": 280.6143,
      "duration": 0.0491,
      "velocity": 120,
      "chip": "ym2612"
    },
    {
      "channel": 4,
      "note": 65,
      "start": 280.6205,
      "duration": 0.1505,
      "velocity": 112,
      "chip": "ym2612"
    },
    {
      "channel": 5,
      "note": 65,
      "start": 280.6212,
      "duration": 0.0832,
      "velocity": 112,
      "chip": "ym2612"
    },
    {
      "channel": 1,
      "note": 65,
      "start": 280.7637,
      "duration": 0.1178,
      "velocity": 112,
      "chip": "ym2612"
    },
    {
      "channel": 2,
      "note": 41,
      "start": 280.7644,
      "duration": 0.152,
      "velocity": 112,
      "chip": "ym2612"
    },
    {
      "channel": 3,
      "note": 53,
      "start": 280.7652,
      "duration": 0.0499,
      "velocity": 120,
      "chip": "ym2612"
    },
    {
      "channel": 4,
      "note": 65,
      "start": 280.7721,
      "duration": 0.1505,
      "velocity": 112,
      "chip": "ym2612"
    },
    {
      "channel": 5,
      "note": 65,
      "start": 280.7728,
      "duration": 0.0833,
      "velocity": 112,
      "chip": "ym2612"
    },
    {
      "channel": 0,
      "note": 40,
      "start": 280.9155,
      "duration": 0.6056,
      "velocity": 127,
      "chip": "ym2612"
    },
    {
      "channel": 1,
      "note": 77,
      "start": 280.9162,
      "duration": 0.1169,
      "velocity": 110,
      "chip": "ym2612"
    },
    {
      "channel": 2,
      "note": 41,
      "start": 280.9169,
      "duration": 0.1504,
      "velocity": 111,
      "chip": "ym2612"
    },
    {
      "channel": 3,
      "note": 65,
      "start": 280.9177,
      "duration": 0.0491,
      "velocity": 120,
      "chip": "ym2612"
    },
    {
      "channel": 4,
      "note": 65,
      "start": 280.9238,
      "duration": 0.1505,
      "velocity": 112,
      "chip": "ym2612"
    },
    {
      "channel": 5,
      "note": 65,
      "start": 280.9245,
      "duration": 0.0833,
      "velocity": 112,
      "chip": "ym2612"
    },
    {
      "channel": 1,
      "note": 65,
      "start": 281.0671,
      "duration": 0.1178,
      "velocity": 108,
      "chip": "ym2612"
    },
    {
      "channel": 2,
      "note": 41,
      "start": 281.0678,
      "duration": 0.1511,
      "velocity": 110,
      "chip": "ym2612"
    },
    {
      "channel": 3,
      "note": 53,
      "start": 281.0685,
      "duration": 0.0499,
      "velocity": 120,
      "chip": "ym2612"
    },
    {
      "channel": 4,
      "note": 65,
      "start": 281.0749,
      "duration": 0.1511,
      "velocity": 112,
      "chip": "ym2612"
    },
    {
      "channel": 5,
      "note": 65,
      "start": 281.0756,
      "duration": 0.0838,
      "velocity": 112,
      "chip": "ym2612"
    },
    {
      "channel": 1,
      "note": 65,
      "start": 281.2188,
      "duration": 0.1177,
      "velocity": 109,
      "chip": "ym2612"
    },
    {
      "channel": 2,
      "note": 29,
      "start": 281.2195,
      "duration": 0.1512,
      "velocity": 109,
      "chip": "ym2612"
    },
    {
      "channel": 3,
      "note": 65,
      "start": 281.2202,
      "duration": 0.0499,
      "velocity": 120,
      "chip": "ym2612"
    },
    {
      "channel": 4,
      "note": 65,
      "start": 281.2271,
      "duration": 0.1506,
      "velocity": 112,
      "chip": "ym2612"
    },
    {
      "channel": 5,
      "note": 65,
      "start": 281.2279,
      "duration": 0.0832,
      "velocity": 112,
      "chip": "ym2612"
    },
    {
      "channel": 1,
      "note": 77,
      "start": 281.3704,
      "duration": 0.1178,
      "velocity": 112,
      "chip": "ym2612"
    },
    {
      "channel": 2,
      "note": 41,
      "start": 281.3712,
      "duration": 0.1514,
      "velocity": 108,
      "chip": "ym2612"
    },
    {
      "channel": 3,
      "note": 65,
      "start": 281.3719,
      "duration": 0.0499,
      "velocity": 120,
      "chip": "ym2612"
    },
    {
      "channel": 4,
      "note": 65,
      "start": 281.3789,
      "duration": 0.1505,
      "velocity": 112,
      "chip": "ym2612"
    },
    {
      "channel": 5,
      "note": 65,
      "start": 281.3796,
      "duration": 0.0832,
      "velocity": 112,
      "chip": "ym2612"
    },
    {
      "channel": 0,
      "note": 40,
      "start": 281.5217,
      "duration": 0.3029,
      "velocity": 127,
      "chip": "ym2612"
    },
    {
      "channel": 1,
      "note": 65,
      "start": 281.5224,
      "duration": 0.1175,
      "velocity": 108,
      "chip": "ym2612"
    },
    {
      "channel": 2,
      "note": 41,
      "start": 281.5231,
      "duration": 0.151,
      "velocity": 123,
      "chip": "ym2612"
    },
    {
      "channel": 3,
      "note": 53,
      "start": 281.5238,
      "duration": 0.0497,
      "velocity": 120,
      "chip": "ym2612"
    },
    {
      "channel": 4,
      "note": 65,
      "start": 281.5305,
      "duration": 0.1505,
      "velocity": 112,
      "chip": "ym2612"
    },
    {
      "channel": 5,
      "note": 65,
      "start": 281.5313,
      "duration": 0.0832,
      "velocity": 112,
      "chip": "ym2612"
    },
    {
      "channel": 1,
      "note": 77,
      "start": 281.6738,
      "duration": 0.1178,
      "velocity": 108,
      "chip": "ym2612"
    },
    {
      "channel": 2,
      "note": 41,
      "start": 281.6745,
      "duration": 0.152,
      "velocity": 122,
      "chip": "ym2612"
    },
    {
      "channel": 3,
      "note": 65,
      "start": 281.6753,
      "duration": 0.0499,
      "velocity": 120,
      "chip": "ym2612"
    },
    {
      "channel": 4,
      "note": 65,
      "start": 281.6822,
      "duration": 0.1505,
      "velocity": 112,
      "chip": "ym2612"
    },
    {
      "channel": 5,
      "note": 65,
      "start": 281.6829,
      "duration": 0.0832,
      "velocity": 112,
      "chip": "ym2612"
    },
    {
      "channel": 0,
      "note": 41,
      "start": 281.8256,
      "duration": 0.3022,
      "velocity": 123,
      "chip": "ym2612"
    },
    {
      "channel": 1,
      "note": 77,
      "start": 281.8263,
      "duration": 0.1169,
      "velocity": 112,
      "chip": "ym2612"
    },
    {
      "channel": 2,
      "note": 41,
      "start": 281.827,
      "duration": 0.1504,
      "velocity": 121,
      "chip": "ym2612"
    },
    {
      "channel": 3,
      "note": 53,
      "start": 281.8277,
      "duration": 0.0492,
      "velocity": 120,
      "chip": "ym2612"
    },
    {
      "channel": 4,
      "note": 65,
      "start": 281.8339,
      "duration": 0.1505,
      "velocity": 112,
      "chip": "ym2612"
    },
    {
      "channel": 5,
      "note": 65,
      "start": 281.8346,
      "duration": 0.0833,
      "velocity": 112,
      "chip": "ym2612"
    },
    {
      "channel": 1,
      "note": 65,
      "start": 281.9771,
      "duration": 0.1178,
      "velocity": 109,
      "chip": "ym2612"
    },
    {
      "channel": 2,
      "note": 41,
      "start": 281.9778,
      "duration": 0.152,
      "velocity": 120,
      "chip": "ym2612"
    },
    {
      "channel": 3,
      "note": 53,
      "start": 281.9786,
      "duration": 0.0499,
      "velocity": 120,
      "chip": "ym2612"
    },
    {
      "channel": 4,
      "note": 65,
      "start": 281.9855,
      "duration": 0.1506,
      "velocity": 112,
      "chip": "ym2612"
    },
    {
      "channel": 5,
      "note": 65,
      "start": 281.9863,
      "duration": 0.0832,
      "velocity": 112,
      "chip": "ym2612"
    },
    {
      "channel": 0,
      "note": 40,
      "start": 282.129,
      "duration": 0.3022,
      "velocity": 127,
      "chip": "ym2612"
    },
    {
      "channel": 1,
      "note": 77,
      "start": 282.1296,
      "duration": 0.117,
      "velocity": 108,
      "chip": "ym2612"
    },
    {
      "channel": 2,
      "note": 41,
      "start": 282.1304,
      "duration": 0.1503,
      "velocity": 119,
      "chip": "ym2612"
    },
    {
      "channel": 3,
      "note": 65,
      "start": 282.1311,
      "duration": 0.0491,
      "velocity": 120,
      "chip": "ym2612"
    },
    {
      "channel": 4,
      "note": 65,
      "start": 282.1373,
      "duration": 0.1505,
      "velocity": 112,
      "chip": "ym2612"
    },
    {
      "channel": 5,
      "note": 65,
      "start": 282.138,
      "duration": 0.0833,
      "velocity": 112,
      "chip": "ym2612"
    },
    {
      "channel": 1,
      "note": 65,
      "start": 282.2805,
      "duration": 0.1177,
      "velocity": 110,
      "chip": "ym2612"
    },
    {
      "channel": 2,
      "note": 42,
      "start": 282.2812,
      "duration": 0.152,
      "velocity": 118,
      "chip": "ym2612"
    },
    {
      "channel": 3,
      "note": 53,
      "start": 282.282,
      "duration": 0.0499,
      "velocity": 120,
      "chip": "ym2612"
    },
    {
      "channel": 4,
      "note": 65,
      "start": 282.2889,
      "duration": 0.1505,
      "velocity": 112,
      "chip": "ym2612"
    },
    {
      "channel": 5,
      "note": 65,
      "start": 282.2897,
      "duration": 0.0832,
      "velocity": 112,
      "chip": "ym2612"
    },
    {
      "channel": 0,
      "note": 41,
      "start": 282.4323,
      "duration": 0.3023,
      "velocity": 123,
      "chip": "ym2612"
    },
    {
      "channel": 1,
      "note": 65,
      "start": 282.433,
      "duration": 0.117,
      "velocity": 109,
      "chip": "ym2612"
    },
    {
      "channel": 2,
      "note": 41,
      "start": 282.4337,
      "duration": 0.1504,
      "velocity": 117,
      "chip": "ym2612"
    },
    {
      "channel": 3,
      "note": 53,
      "start": 282.4345,
      "duration": 0.0491,
      "velocity": 120,
      "chip": "ym2612"
    },
    {
      "channel": 4,
      "note": 65,
      "start": 282.4407,
      "duration": 0.1504,
      "velocity": 112,
      "chip": "ym2612"
    },
    {
      "channel": 5,
      "note": 65,
      "start": 282.4414,
      "duration": 0.0832,
      "velocity": 112,
      "chip": "ym2612"
    },
    {
      "channel": 1,
      "note": 77,
      "start": 282.5839,
      "duration": 0.1178,
      "velocity": 111,
      "chip": "ym2612"
    },
    {
      "channel": 2,
      "note": 41,
      "start": 282.5846,
      "duration": 0.152,
      "velocity": 116,
      "chip": "ym2612"
    },
    {
      "channel": 3,
      "note": 65,
      "start": 282.5854,
      "duration": 0.0499,
      "velocity": 120,
      "chip": "ym2612"
    },
    {
      "channel": 4,
      "note": 65,
      "start": 282.5923,
      "duration": 0.1505,
      "velocity": 112,
      "chip": "ym2612"
    },
    {
      "channel": 5,
      "note": 65,
      "start": 282.593,
      "duration": 0.0833,
      "velocity": 112,
      "chip": "ym2612"
    },
    {
      "channel": 0,
      "note": 40,
      "start": 282.7357,
      "duration": 0.6057,
      "velocity": 127,
      "chip": "ym2612"
    },
    {
      "channel": 1,
      "note": 77,
      "start": 282.7364,
      "duration": 0.117,
      "velocity": 112,
      "chip": "ym2612"
    },
    {
      "channel": 2,
      "note": 42,
      "start": 282.7371,
      "duration": 0.1504,
      "velocity": 115,
      "chip": "ym2612"
    },
    {
      "channel": 3,
      "note": 53,
      "start": 282.7378,
      "duration": 0.0491,
      "velocity": 120,
      "chip": "ym2612"
    },
    {
      "channel": 4,
      "note": 65,
      "start": 282.744,
      "duration": 0.1505,
      "velocity": 112,
      "chip": "ym2612"
    },
    {
      "channel": 5,
      "note": 65,
      "start": 282.7447,
      "duration": 0.0832,
      "velocity": 112,
      "chip": "ym2612"
    },
    {
      "channel": 1,
      "note": 65,
      "start": 282.8873,
      "duration": 0.1178,
      "velocity": 109,
      "chip": "ym2612"
    },
    {
      "channel": 2,
      "note": 41,
      "start": 282.888,
      "duration": 0.1512,
      "velocity": 114,
      "chip": "ym2612"
    },
    {
      "channel": 3,
      "note": 65,
      "start": 282.8887,
      "duration": 0.0499,
      "velocity": 120,
      "chip": "ym2612"
    },
    {
      "channel": 4,
      "note": 65,
      "start": 282.8956,
      "duration": 0.1506,
      "velocity": 112,
      "chip": "ym2612"
    },
    {
      "channel": 5,
      "note": 65,
      "start": 282.8963,
      "duration": 0.0833,
      "velocity": 112,
      "chip": "ym2612"
    },
    {
      "channel": 1,
      "note": 77,
      "start": 283.0389,
      "duration": 0.1178,
      "velocity": 108,
      "chip": "ym2612"
    },
    {
      "channel": 2,
      "note": 41,
      "start": 283.0396,
      "duration": 0.1513,
      "velocity": 113,
      "chip": "ym2612"
    },
    {
      "channel": 3,
      "note": 53,
      "start": 283.0404,
      "duration": 0.05,
      "velocity": 120,
      "chip": "ym2612"
    },
    {
      "channel": 4,
      "note": 65,
      "start": 283.0467,
      "duration": 0.1512,
      "velocity": 112,
      "chip": "ym2612"
    },
    {
      "channel": 5,
      "note": 65,
      "start": 283.0475,
      "duration": 0.0838,
      "velocity": 112,
      "chip": "ym2612"
    },
    {
      "channel": 1,
      "note": 65,
      "start": 283.1906,
      "duration": 0.1177,
      "velocity": 112,
      "chip": "ym2612"
    },
    {
      "channel": 2,
      "note": 41,
      "start": 283.1914,
      "duration": 0.1513,
      "velocity": 112,
      "chip": "ym2612"
    },
    {
      "channel": 3,
      "note": 53,
      "start": 283.1921,
      "duration": 0.05,
      "velocity": 120,
      "chip": "ym2612"
    },
    {
      "channel": 4,
      "note": 65,
      "start": 283.199,
      "duration": 0.1505,
      "velocity": 112,
      "chip": "ym2612"
    },
    {
      "channel": 5,
      "note": 65,
      "start": 283.1997,
      "duration": 0.0833,
      "velocity": 112,
      "chip": "ym2612"
    },
    {
      "channel": 0,
      "note": 40,
      "start": 283.3418,
      "duration": 0.3029,
      "velocity": 127,
      "chip": "ym2612"
    },
    {
      "channel": 1,
      "note": 65,
      "start": 283.3425,
      "duration": 0.1175,
      "velocity": 111,
      "chip": "ym2612"
    },
    {
      "channel": 2,
      "note": 41,
      "start": 283.3432,
      "duration": 0.151,
      "velocity": 111,
      "chip": "ym2612"
    },
    {
      "channel": 3,
      "note": 65,
      "start": 283.3439,
      "duration": 0.0497,
      "velocity": 120,
      "chip": "ym2612"
    },
    {
      "channel": 4,
      "note": 65,
      "start": 283.3507,
      "duration": 0.1506,
      "velocity": 112,
      "chip": "ym2612"
    },
    {
      "channel": 5,
      "note": 65,
      "start": 283.3515,
      "duration": 0.0832,
      "velocity": 112,
      "chip": "ym2612"
    },
    {
      "channel": 1,
      "note": 77,
      "start": 283.4939,
      "duration": 0.1178,
      "velocity": 109,
      "chip": "ym2612"
    },
    {
      "channel": 2,
      "note": 41,
      "start": 283.4947,
      "duration": 0.152,
      "velocity": 110,
      "chip": "ym2612"
    },
    {
      "channel": 3,
      "note": 53,
      "start": 283.4954,
      "duration": 0.0499,
      "velocity": 120,
      "chip": "ym2612"
    },
    {
      "channel": 4,
      "note": 65,
      "start": 283.5024,
      "duration": 0.1505,
      "velocity": 112,
      "chip": "ym2612"
    },
    {
      "channel": 5,
      "note": 65,
      "start": 283.5031,
      "duration": 0.0832,
      "velocity": 112,
      "chip": "ym2612"
    },
    {
      "channel": 0,
      "note": 41,
      "start": 283.6458,
      "duration": 0.3023,
      "velocity": 123,
      "chip": "ym2612"
    },
    {
      "channel": 1,
      "note": 65,
      "start": 283.6465,
      "duration": 0.1169,
      "velocity": 111,
      "chip": "ym2612"
    },
    {
      "channel": 2,
      "note": 29,
      "start": 283.6472,
      "duration": 0.1504,
      "velocity": 109,
      "chip": "ym2612"
    },
    {
      "channel": 3,
      "note": 53,
      "start": 283.6479,
      "duration": 0.0492,
      "velocity": 120,
      "chip": "ym2612"
    },
    {
      "channel": 4,
      "note": 65,
      "start": 283.6541,
      "duration": 0.1505,
      "velocity": 112,
      "chip": "ym2612"
    },
    {
      "channel": 5,
      "note": 65,
      "start": 283.6548,
      "duration": 0.0833,
      "velocity": 112,
      "chip": "ym2612"
    },
    {
      "channel": 1,
      "note": 65,
      "start": 283.7973,
      "duration": 0.1178,
      "velocity": 112,
      "chip": "ym2612"
    },
    {
      "channel": 2,
      "note": 41,
      "start": 283.798,
      "duration": 0.152,
      "velocity": 108,
      "chip": "ym2612"
    },
    {
      "channel": 3,
      "note": 65,
      "start": 283.7988,
      "duration": 0.0499,
      "velocity": 120,
      "chip": "ym2612"
    },
    {
      "channel": 4,
      "note": 65,
      "start": 283.8058,
      "duration": 0.1505,
      "velocity": 112,
      "chip": "ym2612"
    },
    {
      "channel": 5,
      "note": 65,
      "start": 283.8065,
      "duration": 0.0832,
      "velocity": 112,
      "chip": "ym2612"
    },
    {
      "channel": 0,
      "note": 40,
      "start": 283.9492,
      "duration": 0.3022,
      "velocity": 127,
      "chip": "ym2612"
    },
    {
      "channel": 1,
      "note": 65,
      "start": 283.9499,
      "duration": 0.1169,
      "velocity": 108,
      "chip": "ym2612"
    },
    {
      "channel": 2,
      "note": 41,
      "start": 283.9505,
      "duration": 0.1504,
      "velocity": 123,
      "chip": "ym2612"
    },
    {
      "channel": 3,
      "note": 53,
      "start": 283.9512,
      "duration": 0.0491,
      "velocity": 120,
      "chip": "ym2612"
    },
    {
      "channel": 4,
      "note": 65,
      "start": 283.9575,
      "duration": 0.1505,
      "velocity": 112,
      "chip": "ym2612"
    },
    {
      "channel": 5,
      "note": 65,
      "start": 283.9582,
      "duration": 0.0832,
      "velocity": 112,
      "chip": "ym2612"
    },
    {
      "channel": 1,
      "note": 77,
      "start": 284.1007,
      "duration": 0.1178,
      "velocity": 109,
      "chip": "ym2612"
    },
    {
      "channel": 2,
      "note": 41,
      "start": 284.1014,
      "duration": 0.152,
      "velocity": 122,
      "chip": "ym2612"
    },
    {
      "channel": 3,
      "note": 65,
      "start": 284.1022,
      "duration": 0.0499,
      "velocity": 120,
      "chip": "ym2612"
    },
    {
      "channel": 4,
      "note": 65,
      "start": 284.1091,
      "duration": 0.1505,
      "velocity": 112,
      "chip": "ym2612"
    },
    {
      "channel": 5,
      "note": 65,
      "start": 284.1098,
      "duration": 0.0832,
      "velocity": 112,
      "chip": "ym2612"
    },
    {
      "channel": 0,
      "note": 41,
      "start": 284.2525,
      "duration": 0.3022,
      "velocity": 123,
      "chip": "ym2612"
    },
    {
      "channel": 1,
      "note": 77,
      "start": 284.2532,
      "duration": 0.117,
      "velocity": 110,
      "chip": "ym2612"
    },
    {
      "channel": 2,
      "note": 41,
      "start": 284.2539,
      "duration": 0.1503,
      "velocity": 121,
      "chip": "ym2612"
    },
    {
      "channel": 3,
      "note": 53,
      "start": 284.2546,
      "duration": 0.0491,
      "velocity": 120,
      "chip": "ym2612"
    },
    {
      "channel": 4,
      "note": 65,
      "start": 284.2608,
      "duration": 0.1505,
      "velocity": 112,
      "chip": "ym2612"
    },
    {
      "channel": 5,
      "note": 65,
      "start": 284.2615,
      "duration": 0.0833,
      "velocity": 112,
      "chip": "ym2612"
    },
    {
      "channel": 1,
      "note": 65,
      "start": 284.4041,
      "duration": 0.1177,
      "velocity": 111,
      "chip": "ym2612"
    },
    {
      "channel": 2,
      "note": 41,
      "start": 284.4048,
      "duration": 0.1521,
      "velocity": 120,
      "chip": "ym2612"
    },
    {
      "channel": 3,
      "note": 53,
      "start": 284.4055,
      "duration": 0.0499,
      "velocity": 120,
      "chip": "ym2612"
    },
    {
      "channel": 4,
      "note": 65,
      "start": 284.4124,
      "duration": 0.1506,
      "velocity": 112,
      "chip": "ym2612"
    },
    {
      "channel": 5,
      "note": 65,
      "start": 284.4132,
      "duration": 0.0832,
      "velocity": 112,
      "chip": "ym2612"
    },
    {
      "channel": 0,
      "note": 40,
      "start": 284.5558,
      "duration": 0.6057,
      "velocity": 127,
      "chip": "ym2612"
    },
    {
      "channel": 1,
      "note": 77,
      "start": 284.5565,
      "duration": 0.1171,
      "velocity": 108,
      "chip": "ym2612"
    },
    {
      "channel": 2,
      "note": 41,
      "start": 284.5573,
      "duration": 0.1504,
      "velocity": 119,
      "chip": "ym2612"
    },
    {
      "channel": 3,
      "note": 65,
      "start": 284.558,
      "duration": 0.0491,
      "velocity": 120,
      "chip": "ym2612"
    },
    {
      "channel": 4,
      "note": 65,
      "start": 284.5636,
      "duration": 0.1511,
      "velocity": 112,
      "chip": "ym2612"
    },
    {
      "channel": 5,
      "note": 65,
      "start": 284.5643,
      "duration": 0.0838,
      "velocity": 112,
      "chip": "ym2612"
    },
    {
      "channel": 1,
      "note": 65,
      "start": 284.7074,
      "duration": 0.1178,
      "velocity": 109,
      "chip": "ym2612"
    },
    {
      "channel": 2,
      "note": 42,
      "start": 284.7082,
      "duration": 0.1512,
      "velocity": 118,
      "chip": "ym2612"
    },
    {
      "channel": 3,
      "note": 53,
      "start": 284.7089,
      "duration": 0.05,
      "velocity": 120,
      "chip": "ym2612"
    },
    {
      "channel": 4,
      "note": 65,
      "start": 284.7158,
      "duration": 0.1505,
      "velocity": 112,
      "chip": "ym2612"
    },
    {
      "channel": 5,
      "note": 65,
      "start": 284.7165,
      "duration": 0.0833,
      "velocity": 112,
      "chip": "ym2612"
    },
    {
      "channel": 1,
      "note": 65,
      "start": 284.8591,
      "duration": 0.1178,
      "velocity": 112,
      "chip": "ym2612"
    },
    {
      "channel": 2,
      "note": 41,
      "start": 284.8598,
      "duration": 0.1512,
      "velocity": 117,
      "chip": "ym2612"
    },
    {
      "channel": 3,
      "note": 53,
      "start": 284.8605,
      "duration": 0.0499,
      "velocity": 120,
      "chip": "ym2612"
    },
    {
      "channel": 4,
      "note": 65,
      "start": 284.8675,
      "duration": 0.1505,
      "velocity": 112,
      "chip": "ym2612"
    },
    {
      "channel": 5,
      "note": 65,
      "start": 284.8682,
      "duration": 0.0832,
      "velocity": 112,
      "chip": "ym2612"
    },
    {
      "channel": 1,
      "note": 77,
      "start": 285.0108,
      "duration": 0.1178,
      "velocity": 110,
      "chip": "ym2612"
    },
    {
      "channel": 2,
      "note": 41,
      "start": 285.0115,
      "duration": 0.1514,
      "velocity": 116,
      "chip": "ym2612"
    },
    {
      "channel": 3,
      "note": 65,
      "start": 285.0123,
      "duration": 0.0499,
      "velocity": 120,
      "chip": "ym2612"
    },
    {
      "channel": 4,
      "note": 65,
      "start": 285.0192,
      "duration": 0.1505,
      "velocity": 112,
      "chip": "ym2612"
    },
    {
      "channel": 5,
      "note": 65,
      "start": 285.0199,
      "duration": 0.0833,
      "velocity": 112,
      "chip": "ym2612"
    },
    {
      "channel": 0,
      "note": 40,
      "start": 285.162,
      "duration": 0.3029,
      "velocity": 127,
      "chip": "ym2612"
    },
    {
      "channel": 1,
      "note": 77,
      "start": 285.1627,
      "duration": 0.1175,
      "velocity": 111,
      "chip": "ym2612"
    },
    {
      "channel": 2,
      "note": 42,
      "start": 285.1634,
      "duration": 0.151,
      "velocity": 115,
      "chip": "ym2612"
    },
    {
      "channel": 3,
      "note": 53,
      "start": 285.1642,
      "duration": 0.0497,
      "velocity": 120,
      "chip": "ym2612"
    },
    {
      "channel": 4,
      "note": 65,
      "start": 285.1709,
      "duration": 0.1505,
      "velocity": 112,
      "chip": "ym2612"
    },
    {
      "channel": 5,
      "note": 65,
      "start": 285.1716,
      "duration": 0.0832,
      "velocity": 112,
      "chip": "ym2612"
    },
    {
      "channel": 1,
      "note": 65,
      "start": 285.3142,
      "duration": 0.1177,
      "velocity": 108,
      "chip": "ym2612"
    },
    {
      "channel": 2,
      "note": 41,
      "start": 285.3149,
      "duration": 0.152,
      "velocity": 114,
      "chip": "ym2612"
    },
    {
      "channel": 3,
      "note": 65,
      "start": 285.3156,
      "duration": 0.05,
      "velocity": 120,
      "chip": "ym2612"
    },
    {
      "channel": 4,
      "note": 65,
      "start": 285.3226,
      "duration": 0.1505,
      "velocity": 112,
      "chip": "ym2612"
    },
    {
      "channel": 5,
      "note": 65,
      "start": 285.3233,
      "duration": 0.0833,
      "velocity": 112,
      "chip": "ym2612"
    },
    {
      "channel": 0,
      "note": 41,
      "start": 285.4659,
      "duration": 0.3023,
      "velocity": 123,
      "chip": "ym2612"
    },
    {
      "channel": 1,
      "note": 77,
      "start": 285.4666,
      "duration": 0.1169,
      "velocity": 109,
      "chip": "ym2612"
    },
    {
      "channel": 2,
      "note": 41,
      "start": 285.4673,
      "duration": 0.1504,
      "velocity": 113,
      "chip": "ym2612"
    },
    {
      "channel": 3,
      "note": 53,
      "start": 285.4681,
      "duration": 0.0491,
      "velocity": 120,
      "chip": "ym2612"
    },
    {
      "channel": 4,
      "note": 65,
      "start": 285.4743,
      "duration": 0.1505,
      "velocity": 112,
      "chip": "ym2612"
    },
    {
      "channel": 5,
      "note": 65,
      "start": 285.475,
      "duration": 0.0832,
      "velocity": 112,
      "chip": "ym2612"
    },
    {
      "channel": 1,
      "note": 65,
      "start": 285.6175,
      "duration": 0.1178,
      "velocity": 112,
      "chip": "ym2612"
    },
    {
      "channel": 2,
      "note": 41,
      "start": 285.6182,
      "duration": 0.152,
      "velocity": 112,
      "chip": "ym2612"
    },
    {
      "channel": 3,
      "note": 53,
      "start": 285.6189,
      "duration": 0.0499,
      "velocity": 120,
      "chip": "ym2612"
    },
    {
      "channel": 4,
      "note": 65,
      "start": 285.6259,
      "duration": 0.1505,
      "velocity": 112,
      "chip": "ym2612"
    },
    {
      "channel": 5,
      "note": 65,
      "start": 285.6266,
      "duration": 0.0832,
      "velocity": 112,
      "chip": "ym2612"
    },
    {
      "channel": 0,
      "note": 40,
      "start": 285.7693,
      "duration": 0.6057,
      "velocity": 127,
      "chip": "ym2612"
    },
    {
      "channel": 1,
      "note": 77,
      "start": 285.77,
      "duration": 0.1169,
      "velocity": 110,
      "chip": "ym2612"
    },
    {
      "channel": 2,
      "note": 41,
      "start": 285.7707,
      "duration": 0.1504,
      "velocity": 111,
      "chip": "ym2612"
    },
    {
      "channel": 3,
      "note": 65,
      "start": 285.7714,
      "duration": 0.0492,
      "velocity": 120,
      "chip": "ym2612"
    },
    {
      "channel": 4,
      "note": 65,
      "start": 285.7776,
      "duration": 0.1506,
      "velocity": 112,
      "chip": "ym2612"
    },
    {
      "channel": 5,
      "note": 65,
      "start": 285.7783,
      "duration": 0.0833,
      "velocity": 112,
      "chip": "ym2612"
    },
    {
      "channel": 1,
      "note": 65,
      "start": 285.9208,
      "duration": 0.1178,
      "velocity": 108,
      "chip": "ym2612"
    },
    {
      "channel": 2,
      "note": 41,
      "start": 285.9215,
      "duration": 0.1512,
      "velocity": 110,
      "chip": "ym2612"
    },
    {
      "channel": 3,
      "note": 53,
      "start": 285.9223,
      "duration": 0.0499,
      "velocity": 120,
      "chip": "ym2612"
    },
    {
      "channel": 4,
      "note": 65,
      "start": 285.9287,
      "duration": 0.1511,
      "velocity": 112,
      "chip": "ym2612"
    },
    {
      "channel": 5,
      "note": 65,
      "start": 285.9294,
      "duration": 0.0838,
      "velocity": 112,
      "chip": "ym2612"
    },
    {
      "channel": 1,
      "note": 65,
      "start": 286.0726,
      "duration": 0.1178,
      "velocity": 109,
      "chip": "ym2612"
    },
    {
      "channel": 2,
      "note": 29,
      "start": 286.0733,
      "duration": 0.1512,
      "velocity": 109,
      "chip": "ym2612"
    },
    {
      "channel": 3,
      "note": 65,
      "start": 286.074,
      "duration": 0.0499,
      "velocity": 120,
      "chip": "ym2612"
    },
    {
      "channel": 4,
      "note": 65,
      "start": 286.081,
      "duration": 0.1505,
      "velocity": 112,
      "chip": "ym2612"
    },
    {
      "channel": 5,
      "note": 65,
      "start": 286.0817,
      "duration": 0.0833,
      "velocity": 112,
      "chip": "ym2612"
    },
    {
      "channel": 1,
      "note": 77,
      "start": 286.2243,
      "duration": 0.1177,
      "velocity": 112,
      "chip": "ym2612"
    },
    {
      "channel": 2,
      "note": 41,
      "start": 286.225,
      "duration": 0.1514,
      "velocity": 108,
      "chip": "ym2612"
    },
    {
      "channel": 3,
      "note": 65,
      "start": 286.2257,
      "duration": 0.05,
      "velocity": 120,
      "chip": "ym2612"
    },
    {
      "channel": 4,
      "note": 65,
      "start": 286.2326,
      "duration": 0.1506,
      "velocity": 112,
      "chip": "ym2612"
    },
    {
      "channel": 5,
      "note": 65,
      "start": 286.2334,
      "duration": 0.0832,
      "velocity": 112,
      "chip": "ym2612"
    },
    {
      "channel": 0,
      "note": 40,
      "start": 286.3754,
      "duration": 0.3029,
      "velocity": 127,
      "chip": "ym2612"
    },
    {
      "channel": 1,
      "note": 65,
      "start": 286.3761,
      "duration": 0.1176,
      "velocity": 108,
      "chip": "ym2612"
    },
    {
      "channel": 2,
      "note": 41,
      "start": 286.3768,
      "duration": 0.151,
      "velocity": 123,
      "chip": "ym2612"
    },
    {
      "channel": 3,
      "note": 53,
      "start": 286.3776,
      "duration": 0.0497,
      "velocity": 120,
      "chip": "ym2612"
    },
    {
      "channel": 4,
      "note": 65,
      "start": 286.3843,
      "duration": 0.1505,
      "velocity": 112,
      "chip": "ym2612"
    },
    {
      "channel": 5,
      "note": 65,
      "start": 286.385,
      "duration": 0.0833,
      "velocity": 112,
      "chip": "ym2612"
    },
    {
      "channel": 1,
      "note": 77,
      "start": 286.5276,
      "duration": 0.1177,
      "velocity": 108,
      "chip": "ym2612"
    },
    {
      "channel": 2,
      "note": 41,
      "start": 286.5283,
      "duration": 0.152,
      "velocity": 122,
      "chip": "ym2612"
    },
    {
      "channel": 3,
      "note": 65,
      "start": 286.529,
      "duration": 0.0499,
      "velocity": 120,
      "chip": "ym2612"
    },
    {
      "channel": 4,
      "note": 65,
      "start": 286.536,
      "duration": 0.1505,
      "velocity": 112,
      "chip": "ym2612"
    },
    {
      "channel": 5,
      "note": 65,
      "start": 286.5368,
      "duration": 0.0832,
      "velocity": 112,
      "chip": "ym2612"
    },
    {
      "channel": 0,
      "note": 41,
      "start": 286.6794,
      "duration": 0.3023,
      "velocity": 123,
      "chip": "ym2612"
    },
    {
      "channel": 1,
      "note": 77,
      "start": 286.6801,
      "duration": 0.117,
      "velocity": 112,
      "chip": "ym2612"
    },
    {
      "channel": 2,
      "note": 41,
      "start": 286.6808,
      "duration": 0.1504,
      "velocity": 121,
      "chip": "ym2612"
    },
    {
      "channel": 3,
      "note": 53,
      "start": 286.6815,
      "duration": 0.0491,
      "velocity": 120,
      "chip": "ym2612"
    },
    {
      "channel": 4,
      "note": 65,
      "start": 286.6877,
      "duration": 0.1505,
      "velocity": 112,
      "chip": "ym2612"
    },
    {
      "channel": 5,
      "note": 65,
      "start": 286.6884,
      "duration": 0.0832,
      "velocity": 112,
      "chip": "ym2612"
    },
    {
      "channel": 1,
      "note": 65,
      "start": 286.831,
      "duration": 0.1178,
      "velocity": 109,
      "chip": "ym2612"
    },
    {
      "channel": 2,
      "note": 41,
      "start": 286.8317,
      "duration": 0.152,
      "velocity": 120,
      "chip": "ym2612"
    },
    {
      "channel": 3,
      "note": 53,
      "start": 286.8324,
      "duration": 0.0499,
      "velocity": 120,
      "chip": "ym2612"
    },
    {
      "channel": 4,
      "note": 65,
      "start": 286.8394,
      "duration": 0.1505,
      "velocity": 112,
      "chip": "ym2612"
    },
    {
      "channel": 5,
      "note": 65,
      "start": 286.8401,
      "duration": 0.0832,
      "velocity": 112,
      "chip": "ym2612"
    },
    {
      "channel": 0,
      "note": 40,
      "start": 286.9827,
      "duration": 0.3023,
      "velocity": 127,
      "chip": "ym2612"
    },
    {
      "channel": 1,
      "note": 77,
      "start": 286.9834,
      "duration": 0.1169,
      "velocity": 108,
      "chip": "ym2612"
    },
    {
      "channel": 2,
      "note": 41,
      "start": 286.9841,
      "duration": 0.1504,
      "velocity": 119,
      "chip": "ym2612"
    },
    {
      "channel": 3,
      "note": 65,
      "start": 286.9849,
      "duration": 0.0491,
      "velocity": 120,
      "chip": "ym2612"
    },
    {
      "channel": 4,
      "note": 65,
      "start": 286.9911,
      "duration": 0.1505,
      "velocity": 112,
      "chip": "ym2612"
    },
    {
      "channel": 5,
      "note": 65,
      "start": 286.9918,
      "duration": 0.0832,
      "velocity": 112,
      "chip": "ym2612"
    },
    {
      "channel": 1,
      "note": 65,
      "start": 287.1343,
      "duration": 0.1178,
      "velocity": 110,
      "chip": "ym2612"
    },
    {
      "channel": 2,
      "note": 42,
      "start": 287.135,
      "duration": 0.152,
      "velocity": 118,
      "chip": "ym2612"
    },
    {
      "channel": 3,
      "note": 53,
      "start": 287.1357,
      "duration": 0.0499,
      "velocity": 120,
      "chip": "ym2612"
    },
    {
      "channel": 4,
      "note": 65,
      "start": 287.1427,
      "duration": 0.1505,
      "velocity": 112,
      "chip": "ym2612"
    },
    {
      "channel": 5,
      "note": 65,
      "start": 287.1434,
      "duration": 0.0833,
      "velocity": 112,
      "chip": "ym2612"
    },
    {
      "channel": 0,
      "note": 41,
      "start": 287.2861,
      "duration": 0.3023,
      "velocity": 123,
      "chip": "ym2612"
    },
    {
      "channel": 1,
      "note": 65,
      "start": 287.2868,
      "duration": 0.1169,
      "velocity": 109,
      "chip": "ym2612"
    },
    {
      "channel": 2,
      "note": 41,
      "start": 287.2875,
      "duration": 0.1504,
      "velocity": 117,
      "chip": "ym2612"
    },
    {
      "channel": 3,
      "note": 53,
      "start": 287.2883,
      "duration": 0.0491,
      "velocity": 120,
      "chip": "ym2612"
    },
    {
      "channel": 4,
      "note": 65,
      "start": 287.2944,
      "duration": 0.1506,
      "velocity": 112,
      "chip": "ym2612"
    },
    {
      "channel": 5,
      "note": 65,
      "start": 287.2951,
      "duration": 0.0832,
      "velocity": 112,
      "chip": "ym2612"
    },
    {
      "channel": 1,
      "note": 77,
      "start": 287.4376,
      "duration": 0.1178,
      "velocity": 111,
      "chip": "ym2612"
    },
    {
      "channel": 2,
      "note": 41,
      "start": 287.4384,
      "duration": 0.152,
      "velocity": 116,
      "chip": "ym2612"
    },
    {
      "channel": 3,
      "note": 65,
      "start": 287.4391,
      "duration": 0.05,
      "velocity": 120,
      "chip": "ym2612"
    },
    {
      "channel": 4,
      "note": 65,
      "start": 287.4461,
      "duration": 0.1505,
      "velocity": 112,
      "chip": "ym2612"
    },
    {
      "channel": 5,
      "note": 65,
      "start": 287.4468,
      "duration": 0.0833,
      "velocity": 112,
      "chip": "ym2612"
    },
    {
      "channel": 0,
      "note": 40,
      "start": 287.5895,
      "duration": 0.6057,
      "velocity": 127,
      "chip": "ym2612"
    },
    {
      "channel": 1,
      "note": 77,
      "start": 287.5902,
      "duration": 0.117,
      "velocity": 112,
      "chip": "ym2612"
    },
    {
      "channel": 2,
      "note": 42,
      "start": 287.5909,
      "duration": 0.1505,
      "velocity": 115,
      "chip": "ym2612"
    },
    {
      "channel": 3,
      "note": 53,
      "start": 287.5917,
      "duration": 0.0491,
      "velocity": 120,
      "chip": "ym2612"
    },
    {
      "channel": 4,
      "note": 65,
      "start": 287.5978,
      "duration": 0.1505,
      "velocity": 112,
      "chip": "ym2612"
    },
    {
      "channel": 5,
      "note": 65,
      "start": 287.5985,
      "duration": 0.0832,
      "velocity": 112,
      "chip": "ym2612"
    },
    {
      "channel": 1,
      "note": 65,
      "start": 287.7411,
      "duration": 0.1178,
      "velocity": 109,
      "chip": "ym2612"
    },
    {
      "channel": 2,
      "note": 41,
      "start": 287.7418,
      "duration": 0.1512,
      "velocity": 114,
      "chip": "ym2612"
    },
    {
      "channel": 3,
      "note": 65,
      "start": 287.7425,
      "duration": 0.0499,
      "velocity": 120,
      "chip": "ym2612"
    },
    {
      "channel": 4,
      "note": 65,
      "start": 287.7495,
      "duration": 0.1505,
      "velocity": 112,
      "chip": "ym2612"
    },
    {
      "channel": 5,
      "note": 65,
      "start": 287.7502,
      "duration": 0.0832,
      "velocity": 112,
      "chip": "ym2612"
    },
    {
      "channel": 1,
      "note": 77,
      "start": 287.8927,
      "duration": 0.1178,
      "velocity": 108,
      "chip": "ym2612"
    },
    {
      "channel": 2,
      "note": 41,
      "start": 287.8934,
      "duration": 0.1512,
      "velocity": 113,
      "chip": "ym2612"
    },
    {
      "channel": 3,
      "note": 53,
      "start": 287.8942,
      "duration": 0.0499,
      "velocity": 120,
      "chip": "ym2612"
    },
    {
      "channel": 4,
      "note": 65,
      "start": 287.9005,
      "duration": 0.1511,
      "velocity": 112,
      "chip": "ym2612"
    },
    {
      "channel": 5,
      "note": 65,
      "start": 287.9012,
      "duration": 0.0839,
      "velocity": 112,
      "chip": "ym2612"
    },
    {
      "channel": 1,
      "note": 65,
      "start": 288.0444,
      "duration": 0.1178,
      "velocity": 112,
      "chip": "ym2612"
    },
    {
      "channel": 2,
      "note": 41,
      "start": 288.0451,
      "duration": 0.1515,
      "velocity": 112,
      "chip": "ym2612"
    },
    {
      "channel": 3,
      "note": 53,
      "start": 288.0459,
      "duration": 0.0499,
      "velocity": 120,
      "chip": "ym2612"
    },
    {
      "channel": 4,
      "note": 65,
      "start": 288.0528,
      "duration": 0.1505,
      "velocity": 112,
      "chip": "ym2612"
    },
    {
      "channel": 5,
      "note": 65,
      "start": 288.0535,
      "duration": 0.0832,
      "velocity": 112,
      "chip": "ym2612"
    },
    {
      "channel": 0,
      "note": 40,
      "start": 288.1956,
      "duration": 0.3028,
      "velocity": 127,
      "chip": "ym2612"
    },
    {
      "channel": 1,
      "note": 65,
      "start": 288.1963,
      "duration": 0.1176,
      "velocity": 111,
      "chip": "ym2612"
    },
    {
      "channel": 2,
      "note": 41,
      "start": 288.1971,
      "duration": 0.151,
      "velocity": 111,
      "chip": "ym2612"
    },
    {
      "channel": 3,
      "note": 65,
      "start": 288.1978,
      "duration": 0.0497,
      "velocity": 120,
      "chip": "ym2612"
    },
    {
      "channel": 4,
      "note": 65,
      "start": 288.2045,
      "duration": 0.1505,
      "velocity": 112,
      "chip": "ym2612"
    },
    {
      "channel": 5,
      "note": 65,
      "start": 288.2052,
      "duration": 0.0833,
      "velocity": 112,
      "chip": "ym2612"
    },
    {
      "channel": 1,
      "note": 77,
      "start": 288.3478,
      "duration": 0.1178,
      "velocity": 109,
      "chip": "ym2612"
    },
    {
      "channel": 2,
      "note": 41,
      "start": 288.3485,
      "duration": 0.152,
      "velocity": 110,
      "chip": "ym2612"
    },
    {
      "channel": 3,
      "note": 53,
      "start": 288.3492,
      "duration": 0.0499,
      "velocity": 120,
      "chip": "ym2612"
    },
    {
      "channel": 4,
      "note": 65,
      "start": 288.3562,
      "duration": 0.1505,
      "velocity": 112,
      "chip": "ym2612"
    },
    {
      "channel": 5,
      "note": 65,
      "start": 288.3569,
      "duration": 0.0833,
      "velocity": 112,
      "chip": "ym2612"
    },
    {
      "channel": 0,
      "note": 41,
      "start": 288.4995,
      "duration": 0.3023,
      "velocity": 123,
      "chip": "ym2612"
    },
    {
      "channel": 1,
      "note": 65,
      "start": 288.5002,
      "duration": 0.117,
      "velocity": 111,
      "chip": "ym2612"
    },
    {
      "channel": 2,
      "note": 29,
      "start": 288.5009,
      "duration": 0.1504,
      "velocity": 109,
      "chip": "ym2612"
    },
    {
      "channel": 3,
      "note": 53,
      "start": 288.5017,
      "duration": 0.0491,
      "velocity": 120,
      "chip": "ym2612"
    },
    {
      "channel": 4,
      "note": 65,
      "start": 288.5079,
      "duration": 0.1504,
      "velocity": 112,
      "chip": "ym2612"
    },
    {
      "channel": 5,
      "note": 65,
      "start": 288.5086,
      "duration": 0.0831,
      "velocity": 112,
      "chip": "ym2612"
    },
    {
      "channel": 1,
      "note": 65,
      "start": 288.6511,
      "duration": 0.1177,
      "velocity": 112,
      "chip": "ym2612"
    },
    {
      "channel": 2,
      "note": 41,
      "start": 288.6518,
      "duration": 0.152,
      "velocity": 108,
      "chip": "ym2612"
    },
    {
      "channel": 3,
      "note": 65,
      "start": 288.6526,
      "duration": 0.0499,
      "velocity": 120,
      "chip": "ym2612"
    },
    {
      "channel": 4,
      "note": 65,
      "start": 288.6595,
      "duration": 0.1505,
      "velocity": 112,
      "chip": "ym2612"
    },
    {
      "channel": 5,
      "note": 65,
      "start": 288.6603,
      "duration": 0.0832,
      "velocity": 112,
      "chip": "ym2612"
    },
    {
      "channel": 0,
      "note": 40,
      "start": 288.8029,
      "duration": 0.3023,
      "velocity": 127,
      "chip": "ym2612"
    },
    {
      "channel": 1,
      "note": 65,
      "start": 288.8036,
      "duration": 0.117,
      "velocity": 108,
      "chip": "ym2612"
    },
    {
      "channel": 2,
      "note": 41,
      "start": 288.8043,
      "duration": 0.1504,
      "velocity": 123,
      "chip": "ym2612"
    },
    {
      "channel": 3,
      "note": 53,
      "start": 288.8051,
      "duration": 0.0491,
      "velocity": 120,
      "chip": "ym2612"
    },
    {
      "channel": 4,
      "note": 65,
      "start": 288.8112,
      "duration": 0.1505,
      "velocity": 112,
      "chip": "ym2612"
    },
    {
      "channel": 5,
      "note": 65,
      "start": 288.812,
      "duration": 0.0832,
      "velocity": 112,
      "chip": "ym2612"
    },
    {
      "channel": 1,
      "note": 77,
      "start": 288.9545,
      "duration": 0.1178,
      "velocity": 109,
      "chip": "ym2612"
    },
    {
      "channel": 2,
      "note": 41,
      "start": 288.9552,
      "duration": 0.152,
      "velocity": 122,
      "chip": "ym2612"
    },
    {
      "channel": 3,
      "note": 65,
      "start": 288.956,
      "duration": 0.0499,
      "velocity": 120,
      "chip": "ym2612"
    },
    {
      "channel": 4,
      "note": 65,
      "start": 288.9629,
      "duration": 0.1505,
      "velocity": 112,
      "chip": "ym2612"
    },
    {
      "channel": 5,
      "note": 65,
      "start": 288.9636,
      "duration": 0.0833,
      "velocity": 112,
      "chip": "ym2612"
    },
    {
      "channel": 0,
      "note": 41,
      "start": 289.1063,
      "duration": 0.3023,
      "velocity": 123,
      "chip": "ym2612"
    },
    {
      "channel": 1,
      "note": 77,
      "start": 289.1071,
      "duration": 0.1169,
      "velocity": 110,
      "chip": "ym2612"
    },
    {
      "channel": 2,
      "note": 41,
      "start": 289.1077,
      "duration": 0.1504,
      "velocity": 121,
      "chip": "ym2612"
    },
    {
      "channel": 3,
      "note": 53,
      "start": 289.1085,
      "duration": 0.0491,
      "velocity": 120,
      "chip": "ym2612"
    },
    {
      "channel": 4,
      "note": 65,
      "start": 289.1146,
      "duration": 0.1505,
      "velocity": 112,
      "chip": "ym2612"
    },
    {
      "channel": 5,
      "note": 65,
      "start": 289.1153,
      "duration": 0.0832,
      "velocity": 112,
      "chip": "ym2612"
    },
    {
      "channel": 1,
      "note": 65,
      "start": 289.2579,
      "duration": 0.1178,
      "velocity": 111,
      "chip": "ym2612"
    },
    {
      "channel": 2,
      "note": 41,
      "start": 289.2586,
      "duration": 0.1519,
      "velocity": 120,
      "chip": "ym2612"
    },
    {
      "channel": 3,
      "note": 53,
      "start": 289.2593,
      "duration": 0.0499,
      "velocity": 120,
      "chip": "ym2612"
    },
    {
      "channel": 4,
      "note": 65,
      "start": 289.2663,
      "duration": 0.1506,
      "velocity": 112,
      "chip": "ym2612"
    },
    {
      "channel": 5,
      "note": 65,
      "start": 289.267,
      "duration": 0.0833,
      "velocity": 112,
      "chip": "ym2612"
    },
    {
      "channel": 0,
      "note": 40,
      "start": 289.4097,
      "duration": 0.6056,
      "velocity": 127,
      "chip": "ym2612"
    },
    {
      "channel": 1,
      "note": 77,
      "start": 289.4103,
      "duration": 0.1169,
      "velocity": 108,
      "chip": "ym2612"
    },
    {
      "channel": 2,
      "note": 41,
      "start": 289.411,
      "duration": 0.1504,
      "velocity": 119,
      "chip": "ym2612"
    },
    {
      "channel": 3,
      "note": 65,
      "start": 289.4118,
      "duration": 0.0491,
      "velocity": 120,
      "chip": "ym2612"
    },
    {
      "channel": 4,
      "note": 65,
      "start": 289.4173,
      "duration": 0.1512,
      "velocity": 112,
      "chip": "ym2612"
    },
    {
      "channel": 5,
      "note": 65,
      "start": 289.418,
      "duration": 0.0838,
      "velocity": 112,
      "chip": "ym2612"
    },
    {
      "channel": 1,
      "note": 65,
      "start": 289.5612,
      "duration": 0.1177,
      "velocity": 109,
      "chip": "ym2612"
    },
    {
      "channel": 2,
      "note": 42,
      "start": 289.562,
      "duration": 0.1511,
      "velocity": 118,
      "chip": "ym2612"
    },
    {
      "channel": 3,
      "note": 53,
      "start": 289.5626,
      "duration": 0.05,
      "velocity": 120,
      "chip": "ym2612"
    },
    {
      "channel": 4,
      "note": 65,
      "start": 289.5696,
      "duration": 0.1505,
      "velocity": 112,
      "chip": "ym2612"
    },
    {
      "channel": 5,
      "note": 65,
      "start": 289.5703,
      "duration": 0.0833,
      "velocity": 112,
      "chip": "ym2612"
    },
    {
      "channel": 1,
      "note": 65,
      "start": 289.7129,
      "duration": 0.1177,
      "velocity": 112,
      "chip": "ym2612"
    },
    {
      "channel": 2,
      "note": 41,
      "start": 289.7136,
      "duration": 0.1512,
      "velocity": 117,
      "chip": "ym2612"
    },
    {
      "channel": 3,
      "note": 53,
      "start": 289.7144,
      "duration": 0.0499,
      "velocity": 120,
      "chip": "ym2612"
    },
    {
      "channel": 4,
      "note": 65,
      "start": 289.7213,
      "duration": 0.1505,
      "velocity": 112,
      "chip": "ym2612"
    },
    {
      "channel": 5,
      "note": 65,
      "start": 289.7221,
      "duration": 0.0832,
      "velocity": 112,
      "chip": "ym2612"
    },
    {
      "channel": 1,
      "note": 77,
      "start": 289.8646,
      "duration": 0.1178,
      "velocity": 110,
      "chip": "ym2612"
    },
    {
      "channel": 2,
      "note": 41,
      "start": 289.8653,
      "duration": 0.1514,
      "velocity": 116,
      "chip": "ym2612"
    },
    {
      "channel": 3,
      "note": 65,
      "start": 289.866,
      "duration": 0.0499,
      "velocity": 120,
      "chip": "ym2612"
    },
    {
      "channel": 4,
      "note": 65,
      "start": 289.873,
      "duration": 0.1506,
      "velocity": 112,
      "chip": "ym2612"
    },
    {
      "channel": 5,
      "note": 65,
      "start": 289.8738,
      "duration": 0.0832,
      "velocity": 112,
      "chip": "ym2612"
    },
    {
      "channel": 0,
      "note": 40,
      "start": 290.0158,
      "duration": 0.3028,
      "velocity": 127,
      "chip": "ym2612"
    },
    {
      "channel": 1,
      "note": 77,
      "start": 290.0165,
      "duration": 0.1176,
      "velocity": 111,
      "chip": "ym2612"
    },
    {
      "channel": 2,
      "note": 42,
      "start": 290.0172,
      "duration": 0.151,
      "velocity": 115,
      "chip": "ym2612"
    },
    {
      "channel": 3,
      "note": 53,
      "start": 290.0179,
      "duration": 0.0498,
      "velocity": 120,
      "chip": "ym2612"
    },
    {
      "channel": 4,
      "note": 65,
      "start": 290.0247,
      "duration": 0.1505,
      "velocity": 112,
      "chip": "ym2612"
    },
    {
      "channel": 5,
      "note": 65,
      "start": 290.0254,
      "duration": 0.0832,
      "velocity": 112,
      "chip": "ym2612"
    },
    {
      "channel": 1,
      "note": 65,
      "start": 290.1679,
      "duration": 0.1178,
      "velocity": 108,
      "chip": "ym2612"
    },
    {
      "channel": 2,
      "note": 41,
      "start": 290.1686,
      "duration": 0.152,
      "velocity": 114,
      "chip": "ym2612"
    },
    {
      "channel": 3,
      "note": 65,
      "start": 290.1694,
      "duration": 0.0499,
      "velocity": 120,
      "chip": "ym2612"
    },
    {
      "channel": 4,
      "note": 65,
      "start": 290.1764,
      "duration": 0.1505,
      "velocity": 112,
      "chip": "ym2612"
    },
    {
      "channel": 5,
      "note": 65,
      "start": 290.1771,
      "duration": 0.0832,
      "velocity": 112,
      "chip": "ym2612"
    },
    {
      "channel": 0,
      "note": 41,
      "start": 290.3198,
      "duration": 0.3022,
      "velocity": 123,
      "chip": "ym2612"
    },
    {
      "channel": 1,
      "note": 77,
      "start": 290.3204,
      "duration": 0.117,
      "velocity": 109,
      "chip": "ym2612"
    },
    {
      "channel": 2,
      "note": 41,
      "start": 290.3212,
      "duration": 0.1504,
      "velocity": 113,
      "chip": "ym2612"
    },
    {
      "channel": 3,
      "note": 53,
      "start": 290.3219,
      "duration": 0.0491,
      "velocity": 120,
      "chip": "ym2612"
    },
    {
      "channel": 4,
      "note": 65,
      "start": 290.328,
      "duration": 0.1505,
      "velocity": 112,
      "chip": "ym2612"
    },
    {
      "channel": 5,
      "note": 65,
      "start": 290.3287,
      "duration": 0.0833,
      "velocity": 112,
      "chip": "ym2612"
    },
    {
      "channel": 1,
      "note": 65,
      "start": 290.4713,
      "duration": 0.1178,
      "velocity": 112,
      "chip": "ym2612"
    },
    {
      "channel": 2,
      "note": 41,
      "start": 290.472,
      "duration": 0.152,
      "velocity": 112,
      "chip": "ym2612"
    },
    {
      "channel": 3,
      "note": 53,
      "start": 290.4728,
      "duration": 0.0499,
      "velocity": 120,
      "chip": "ym2612"
    },
    {
      "channel": 4,
      "note": 65,
      "start": 290.4797,
      "duration": 0.1506,
      "velocity": 112,
      "chip": "ym2612"
    },
    {
      "channel": 5,
      "note": 65,
      "start": 290.4805,
      "duration": 0.0832,
      "velocity": 112,
      "chip": "ym2612"
    },
    {
      "channel": 0,
      "note": 40,
      "start": 290.6231,
      "duration": 0.6057,
      "velocity": 127,
      "chip": "ym2612"
    },
    {
      "channel": 1,
      "note": 77,
      "start": 290.6238,
      "duration": 0.1169,
      "velocity": 110,
      "chip": "ym2612"
    },
    {
      "channel": 2,
      "note": 41,
      "start": 290.6245,
      "duration": 0.1504,
      "velocity": 111,
      "chip": "ym2612"
    },
    {
      "channel": 3,
      "note": 65,
      "start": 290.6253,
      "duration": 0.0491,
      "velocity": 120,
      "chip": "ym2612"
    },
    {
      "channel": 4,
      "note": 65,
      "start": 290.6314,
      "duration": 0.1506,
      "velocity": 112,
      "chip": "ym2612"
    },
    {
      "channel": 5,
      "note": 65,
      "start": 290.6321,
      "duration": 0.0832,
      "velocity": 112,
      "chip": "ym2612"
    },
    {
      "channel": 1,
      "note": 65,
      "start": 290.7747,
      "duration": 0.1177,
      "velocity": 108,
      "chip": "ym2612"
    },
    {
      "channel": 2,
      "note": 41,
      "start": 290.7754,
      "duration": 0.1512,
      "velocity": 110,
      "chip": "ym2612"
    },
    {
      "channel": 3,
      "note": 53,
      "start": 290.7762,
      "duration": 0.0499,
      "velocity": 120,
      "chip": "ym2612"
    },
    {
      "channel": 4,
      "note": 65,
      "start": 290.7825,
      "duration": 0.1511,
      "velocity": 112,
      "chip": "ym2612"
    },
    {
      "channel": 5,
      "note": 65,
      "start": 290.7832,
      "duration": 0.0838,
      "velocity": 112,
      "chip": "ym2612"
    },
    {
      "channel": 1,
      "note": 65,
      "start": 290.9263,
      "duration": 0.1178,
      "velocity": 109,
      "chip": "ym2612"
    },
    {
      "channel": 2,
      "note": 29,
      "start": 290.927,
      "duration": 0.1512,
      "velocity": 109,
      "chip": "ym2612"
    },
    {
      "channel": 3,
      "note": 65,
      "start": 290.9278,
      "duration": 0.0499,
      "velocity": 120,
      "chip": "ym2612"
    },
    {
      "channel": 4,
      "note": 65,
      "start": 290.9348,
      "duration": 0.1505,
      "velocity": 112,
      "chip": "ym2612"
    },
    {
      "channel": 5,
      "note": 65,
      "start": 290.9355,
      "duration": 0.0832,
      "velocity": 112,
      "chip": "ym2612"
    },
    {
      "channel": 1,
      "note": 77,
      "start": 291.078,
      "duration": 0.1178,
      "velocity": 112,
      "chip": "ym2612"
    },
    {
      "channel": 2,
      "note": 41,
      "start": 291.0787,
      "duration": 0.1514,
      "velocity": 108,
      "chip": "ym2612"
    },
    {
      "channel": 3,
      "note": 65,
      "start": 291.0795,
      "duration": 0.0499,
      "velocity": 120,
      "chip": "ym2612"
    },
    {
      "channel": 4,
      "note": 65,
      "start": 291.0864,
      "duration": 0.1505,
      "velocity": 112,
      "chip": "ym2612"
    },
    {
      "channel": 5,
      "note": 65,
      "start": 291.0871,
      "duration": 0.0833,
      "velocity": 112,
      "chip": "ym2612"
    },
    {
      "channel": 0,
      "note": 40,
      "start": 291.2293,
      "duration": 0.3029,
      "velocity": 127,
      "chip": "ym2612"
    },
    {
      "channel": 1,
      "note": 65,
      "start": 291.23,
      "duration": 0.1175,
      "velocity": 108,
      "chip": "ym2612"
    },
    {
      "channel": 2,
      "note": 41,
      "start": 291.2306,
      "duration": 0.151,
      "velocity": 123,
      "chip": "ym2612"
    },
    {
      "channel": 3,
      "note": 53,
      "start": 291.2314,
      "duration": 0.0497,
      "velocity": 120,
      "chip": "ym2612"
    },
    {
      "channel": 4,
      "note": 65,
      "start": 291.2381,
      "duration": 0.1505,
      "velocity": 112,
      "chip": "ym2612"
    },
    {
      "channel": 5,
      "note": 65,
      "start": 291.2388,
      "duration": 0.0832,
      "velocity": 112,
      "chip": "ym2612"
    },
    {
      "channel": 1,
      "note": 77,
      "start": 291.3814,
      "duration": 0.1178,
      "velocity": 108,
      "chip": "ym2612"
    },
    {
      "channel": 2,
      "note": 41,
      "start": 291.3821,
      "duration": 0.152,
      "velocity": 122,
      "chip": "ym2612"
    },
    {
      "channel": 3,
      "note": 65,
      "start": 291.3828,
      "duration": 0.0499,
      "velocity": 120,
      "chip": "ym2612"
    },
    {
      "channel": 4,
      "note": 65,
      "start": 291.3898,
      "duration": 0.1506,
      "velocity": 112,
      "chip": "ym2612"
    },
    {
      "channel": 5,
      "note": 65,
      "start": 291.3906,
      "duration": 0.0832,
      "velocity": 112,
      "chip": "ym2612"
    },
    {
      "channel": 0,
      "note": 41,
      "start": 291.5332,
      "duration": 0.3023,
      "velocity": 123,
      "chip": "ym2612"
    },
    {
      "channel": 1,
      "note": 77,
      "start": 291.5339,
      "duration": 0.1169,
      "velocity": 112,
      "chip": "ym2612"
    },
    {
      "channel": 2,
      "note": 41,
      "start": 291.5346,
      "duration": 0.1504,
      "velocity": 121,
      "chip": "ym2612"
    },
    {
      "channel": 3,
      "note": 53,
      "start": 291.5354,
      "duration": 0.0491,
      "velocity": 120,
      "chip": "ym2612"
    },
    {
      "channel": 4,
      "note": 65,
      "start": 291.5415,
      "duration": 0.1505,
      "velocity": 112,
      "chip": "ym2612"
    },
    {
      "channel": 5,
      "note": 65,
      "start": 291.5422,
      "duration": 0.0832,
      "velocity": 112,
      "chip": "ym2612"
    },
    {
      "channel": 1,
      "note": 65,
      "start": 291.6847,
      "duration": 0.1178,
      "velocity": 109,
      "chip": "ym2612"
    },
    {
      "channel": 2,
      "note": 41,
      "start": 291.6855,
      "duration": 0.152,
      "velocity": 120,
      "chip": "ym2612"
    },
    {
      "channel": 3,
      "note": 53,
      "start": 291.6862,
      "duration": 0.05,
      "velocity": 120,
      "chip": "ym2612"
    },
    {
      "channel": 4,
      "note": 65,
      "start": 291.6932,
      "duration": 0.1505,
      "velocity": 112,
      "chip": "ym2612"
    },
    {
      "channel": 5,
      "note": 65,
      "start": 291.6939,
      "duration": 0.0832,
      "velocity": 112,
      "chip": "ym2612"
    },
    {
      "channel": 0,
      "note": 40,
      "start": 291.8366,
      "duration": 0.3023,
      "velocity": 127,
      "chip": "ym2612"
    },
    {
      "channel": 1,
      "note": 77,
      "start": 291.8373,
      "duration": 0.1169,
      "velocity": 108,
      "chip": "ym2612"
    },
    {
      "channel": 2,
      "note": 41,
      "start": 291.838,
      "duration": 0.1504,
      "velocity": 119,
      "chip": "ym2612"
    },
    {
      "channel": 3,
      "note": 65,
      "start": 291.8387,
      "duration": 0.0492,
      "velocity": 120,
      "chip": "ym2612"
    },
    {
      "channel": 4,
      "note": 65,
      "start": 291.8448,
      "duration": 0.1505,
      "velocity": 112,
      "chip": "ym2612"
    },
    {
      "channel": 5,
      "note": 65,
      "start": 291.8456,
      "duration": 0.0832,
      "velocity": 112,
      "chip": "ym2612"
    },
    {
      "channel": 1,
      "note": 65,
      "start": 291.9881,
      "duration": 0.1178,
      "velocity": 110,
      "chip": "ym2612"
    },
    {
      "channel": 2,
      "note": 42,
      "start": 291.9888,
      "duration": 0.1521,
      "velocity": 118,
      "chip": "ym2612"
    },
    {
      "channel": 3,
      "note": 53,
      "start": 291.9895,
      "duration": 0.0499,
      "velocity": 120,
      "chip": "ym2612"
    },
    {
      "channel": 4,
      "note": 65,
      "start": 291.9966,
      "duration": 0.1505,
      "velocity": 112,
      "chip": "ym2612"
    },
    {
      "channel": 5,
      "note": 65,
      "start": 291.9973,
      "duration": 0.0832,
      "velocity": 112,
      "chip": "ym2612"
    },
    {
      "channel": 0,
      "note": 41,
      "start": 292.1399,
      "duration": 0.3022,
      "velocity": 123,
      "chip": "ym2612"
    },
    {
      "channel": 1,
      "note": 65,
      "start": 292.1406,
      "duration": 0.117,
      "velocity": 109,
      "chip": "ym2612"
    },
    {
      "channel": 2,
      "note": 41,
      "start": 292.1414,
      "duration": 0.1503,
      "velocity": 117,
      "chip": "ym2612"
    },
    {
      "channel": 3,
      "note": 53,
      "start": 292.1421,
      "duration": 0.0491,
      "velocity": 120,
      "chip": "ym2612"
    },
    {
      "channel": 4,
      "note": 65,
      "start": 292.1482,
      "duration": 0.1505,
      "velocity": 112,
      "chip": "ym2612"
    },
    {
      "channel": 5,
      "note": 65,
      "start": 292.1489,
      "duration": 0.0833,
      "velocity": 112,
      "chip": "ym2612"
    },
    {
      "channel": 1,
      "note": 77,
      "start": 292.2915,
      "duration": 0.1177,
      "velocity": 111,
      "chip": "ym2612"
    },
    {
      "channel": 2,
      "note": 41,
      "start": 292.2922,
      "duration": 0.152,
      "velocity": 116,
      "chip": "ym2612"
    },
    {
      "channel": 3,
      "note": 65,
      "start": 292.293,
      "duration": 0.0499,
      "velocity": 120,
      "chip": "ym2612"
    },
    {
      "channel": 4,
      "note": 65,
      "start": 292.2999,
      "duration": 0.1505,
      "velocity": 112,
      "chip": "ym2612"
    },
    {
      "channel": 5,
      "note": 65,
      "start": 292.3006,
      "duration": 0.0832,
      "velocity": 112,
      "chip": "ym2612"
    },
    {
      "channel": 0,
      "note": 40,
      "start": 292.4433,
      "duration": 0.6056,
      "velocity": 127,
      "chip": "ym2612"
    },
    {
      "channel": 1,
      "note": 77,
      "start": 292.4439,
      "duration": 0.117,
      "velocity": 112,
      "chip": "ym2612"
    },
    {
      "channel": 2,
      "note": 42,
      "start": 292.4447,
      "duration": 0.1504,
      "velocity": 115,
      "chip": "ym2612"
    },
    {
      "channel": 3,
      "note": 53,
      "start": 292.4454,
      "duration": 0.0491,
      "velocity": 120,
      "chip": "ym2612"
    },
    {
      "channel": 4,
      "note": 65,
      "start": 292.4516,
      "duration": 0.1505,
      "velocity": 112,
      "chip": "ym2612"
    },
    {
      "channel": 5,
      "note": 65,
      "start": 292.4523,
      "duration": 0.0833,
      "velocity": 112,
      "chip": "ym2612"
    },
    {
      "channel": 1,
      "note": 65,
      "start": 292.5948,
      "duration": 0.1178,
      "velocity": 109,
      "chip": "ym2612"
    },
    {
      "channel": 2,
      "note": 41,
      "start": 292.5955,
      "duration": 0.1512,
      "velocity": 114,
      "chip": "ym2612"
    },
    {
      "channel": 3,
      "note": 65,
      "start": 292.5963,
      "duration": 0.05,
      "velocity": 120,
      "chip": "ym2612"
    },
    {
      "channel": 4,
      "note": 65,
      "start": 292.6032,
      "duration": 0.1506,
      "velocity": 112,
      "chip": "ym2612"
    },
    {
      "channel": 5,
      "note": 65,
      "start": 292.604,
      "duration": 0.0832,
      "velocity": 112,
      "chip": "ym2612"
    },
    {
      "channel": 1,
      "note": 77,
      "start": 292.7465,
      "duration": 0.1178,
      "velocity": 108,
      "chip": "ym2612"
    },
    {
      "channel": 2,
      "note": 41,
      "start": 292.7473,
      "duration": 0.1511,
      "velocity": 113,
      "chip": "ym2612"
    },
    {
      "channel": 3,
      "note": 53,
      "start": 292.7479,
      "duration": 0.05,
      "velocity": 120,
      "chip": "ym2612"
    },
    {
      "channel": 4,
      "note": 65,
      "start": 292.7544,
      "duration": 0.1511,
      "velocity": 112,
      "chip": "ym2612"
    },
    {
      "channel": 5,
      "note": 65,
      "start": 292.7551,
      "duration": 0.0838,
      "velocity": 112,
      "chip": "ym2612"
    },
    {
      "channel": 1,
      "note": 65,
      "start": 292.8982,
      "duration": 0.1177,
      "velocity": 112,
      "chip": "ym2612"
    },
    {
      "channel": 2,
      "note": 41,
      "start": 292.8989,
      "duration": 0.1515,
      "velocity": 112,
      "chip": "ym2612"
    },
    {
      "channel": 3,
      "note": 53,
      "start": 292.8997,
      "duration": 0.0499,
      "velocity": 120,
      "chip": "ym2612"
    },
    {
      "channel": 4,
      "note": 65,
      "start": 292.9066,
      "duration": 0.1505,
      "velocity": 112,
      "chip": "ym2612"
    },
    {
      "channel": 5,
      "note": 65,
      "start": 292.9074,
      "duration": 0.0833,
      "velocity": 112,
      "chip": "ym2612"
    },
    {
      "channel": 0,
      "note": 40,
      "start": 293.0494,
      "duration": 0.3029,
      "velocity": 127,
      "chip": "ym2612"
    },
    {
      "channel": 1,
      "note": 65,
      "start": 293.0501,
      "duration": 0.1176,
      "velocity": 111,
      "chip": "ym2612"
    },
    {
      "channel": 2,
      "note": 41,
      "start": 293.0508,
      "duration": 0.151,
      "velocity": 111,
      "chip": "ym2612"
    },
    {
      "channel": 3,
      "note": 65,
      "start": 293.0516,
      "duration": 0.0497,
      "velocity": 120,
      "chip": "ym2612"
    },
    {
      "channel": 4,
      "note": 65,
      "start": 293.0583,
      "duration": 0.1505,
      "velocity": 112,
      "chip": "ym2612"
    },
    {
      "channel": 5,
      "note": 65,
      "start": 293.059,
      "duration": 0.0832,
      "velocity": 112,
      "chip": "ym2612"
    },
    {
      "channel": 1,
      "note": 77,
      "start": 293.2016,
      "duration": 0.1178,
      "velocity": 109,
      "chip": "ym2612"
    },
    {
      "channel": 2,
      "note": 41,
      "start": 293.2023,
      "duration": 0.152,
      "velocity": 110,
      "chip": "ym2612"
    },
    {
      "channel": 3,
      "note": 53,
      "start": 293.203,
      "duration": 0.0499,
      "velocity": 120,
      "chip": "ym2612"
    },
    {
      "channel": 4,
      "note": 65,
      "start": 293.21,
      "duration": 0.1505,
      "velocity": 112,
      "chip": "ym2612"
    },
    {
      "channel": 5,
      "note": 65,
      "start": 293.2107,
      "duration": 0.0833,
      "velocity": 112,
      "chip": "ym2612"
    },
    {
      "channel": 0,
      "note": 41,
      "start": 293.3534,
      "duration": 0.3023,
      "velocity": 123,
      "chip": "ym2612"
    },
    {
      "channel": 1,
      "note": 65,
      "start": 293.3541,
      "duration": 0.1169,
      "velocity": 111,
      "chip": "ym2612"
    },
    {
      "channel": 2,
      "note": 29,
      "start": 293.3548,
      "duration": 0.1504,
      "velocity": 109,
      "chip": "ym2612"
    },
    {
      "channel": 3,
      "note": 53,
      "start": 293.3555,
      "duration": 0.0491,
      "velocity": 120,
      "chip": "ym2612"
    },
    {
      "channel": 4,
      "note": 65,
      "start": 293.3617,
      "duration": 0.1505,
      "velocity": 112,
      "chip": "ym2612"
    },
    {
      "channel": 5,
      "note": 65,
      "start": 293.3624,
      "duration": 0.0832,
      "velocity": 112,
      "chip": "ym2612"
    },
    {
      "channel": 1,
      "note": 65,
      "start": 293.5049,
      "duration": 0.1178,
      "velocity": 112,
      "chip": "ym2612"
    },
    {
      "channel": 2,
      "note": 41,
      "start": 293.5056,
      "duration": 0.152,
      "velocity": 108,
      "chip": "ym2612"
    },
    {
      "channel": 3,
      "note": 65,
      "start": 293.5063,
      "duration": 0.0499,
      "velocity": 120,
      "chip": "ym2612"
    },
    {
      "channel": 4,
      "note": 65,
      "start": 293.5133,
      "duration": 0.1505,
      "velocity": 112,
      "chip": "ym2612"
    },
    {
      "channel": 5,
      "note": 65,
      "start": 293.514,
      "duration": 0.0833,
      "velocity": 112,
      "chip": "ym2612"
    },
    {
      "channel": 0,
      "note": 40,
      "start": 293.6568,
      "duration": 0.3022,
      "velocity": 127,
      "chip": "ym2612"
    },
    {
      "channel": 1,
      "note": 65,
      "start": 293.6575,
      "duration": 0.1169,
      "velocity": 108,
      "chip": "ym2612"
    },
    {
      "channel": 2,
      "note": 41,
      "start": 293.6582,
      "duration": 0.1503,
      "velocity": 123,
      "chip": "ym2612"
    },
    {
      "channel": 3,
      "note": 53,
      "start": 293.6589,
      "duration": 0.0492,
      "velocity": 120,
      "chip": "ym2612"
    },
    {
      "channel": 4,
      "note": 65,
      "start": 293.665,
      "duration": 0.1506,
      "velocity": 112,
      "chip": "ym2612"
    },
    {
      "channel": 5,
      "note": 65,
      "start": 293.6658,
      "duration": 0.0832,
      "velocity": 112,
      "chip": "ym2612"
    },
    {
      "channel": 1,
      "note": 77,
      "start": 293.8083,
      "duration": 0.1178,
      "velocity": 109,
      "chip": "ym2612"
    },
    {
      "channel": 2,
      "note": 41,
      "start": 293.809,
      "duration": 0.152,
      "velocity": 122,
      "chip": "ym2612"
    },
    {
      "channel": 3,
      "note": 65,
      "start": 293.8097,
      "duration": 0.05,
      "velocity": 120,
      "chip": "ym2612"
    },
    {
      "channel": 4,
      "note": 65,
      "start": 293.8167,
      "duration": 0.1505,
      "velocity": 112,
      "chip": "ym2612"
    },
    {
      "channel": 5,
      "note": 65,
      "start": 293.8174,
      "duration": 0.0832,
      "velocity": 112,
      "chip": "ym2612"
    },
    {
      "channel": 0,
      "note": 41,
      "start": 293.9601,
      "duration": 0.3023,
      "velocity": 123,
      "chip": "ym2612"
    },
    {
      "channel": 1,
      "note": 77,
      "start": 293.9608,
      "duration": 0.1169,
      "velocity": 110,
      "chip": "ym2612"
    },
    {
      "channel": 2,
      "note": 41,
      "start": 293.9615,
      "duration": 0.1504,
      "velocity": 121,
      "chip": "ym2612"
    },
    {
      "channel": 3,
      "note": 53,
      "start": 293.9622,
      "duration": 0.0492,
      "velocity": 120,
      "chip": "ym2612"
    },
    {
      "channel": 4,
      "note": 65,
      "start": 293.9684,
      "duration": 0.1505,
      "velocity": 112,
      "chip": "ym2612"
    },
    {
      "channel": 5,
      "note": 65,
      "start": 293.9691,
      "duration": 0.0833,
      "velocity": 112,
      "chip": "ym2612"
    },
    {
      "channel": 1,
      "note": 65,
      "start": 294.1116,
      "duration": 0.1178,
      "velocity": 111,
      "chip": "ym2612"
    },
    {
      "channel": 2,
      "note": 41,
      "start": 294.1123,
      "duration": 0.152,
      "velocity": 120,
      "chip": "ym2612"
    },
    {
      "channel": 3,
      "note": 53,
      "start": 294.1131,
      "duration": 0.0499,
      "velocity": 120,
      "chip": "ym2612"
    },
    {
      "channel": 4,
      "note": 65,
      "start": 294.1201,
      "duration": 0.1505,
      "velocity": 112,
      "chip": "ym2612"
    },
    {
      "channel": 5,
      "note": 65,
      "start": 294.1208,
      "duration": 0.0832,
      "velocity": 112,
      "chip": "ym2612"
    },
    {
      "channel": 0,
      "note": 40,
      "start": 294.2635,
      "duration": 0.6057,
      "velocity": 127,
      "chip": "ym2612"
    },
    {
      "channel": 1,
      "note": 77,
      "start": 294.2642,
      "duration": 0.1169,
      "velocity": 108,
      "chip": "ym2612"
    },
    {
      "channel": 2,
      "note": 41,
      "start": 294.2649,
      "duration": 0.1504,
      "velocity": 119,
      "chip": "ym2612"
    },
    {
      "channel": 3,
      "note": 65,
      "start": 294.2656,
      "duration": 0.0492,
      "velocity": 120,
      "chip": "ym2612"
    },
    {
      "channel": 4,
      "note": 65,
      "start": 294.2712,
      "duration": 0.1511,
      "velocity": 112,
      "chip": "ym2612"
    },
    {
      "channel": 5,
      "note": 65,
      "start": 294.2719,
      "duration": 0.0839,
      "velocity": 112,
      "chip": "ym2612"
    },
    {
      "channel": 1,
      "note": 65,
      "start": 294.415,
      "duration": 0.1178,
      "velocity": 109,
      "chip": "ym2612"
    },
    {
      "channel": 2,
      "note": 42,
      "start": 294.4157,
      "duration": 0.1512,
      "velocity": 118,
      "chip": "ym2612"
    },
    {
      "channel": 3,
      "note": 53,
      "start": 294.4165,
      "duration": 0.0499,
      "velocity": 120,
      "chip": "ym2612"
    },
    {
      "channel": 4,
      "note": 65,
      "start": 294.4234,
      "duration": 0.1505,
      "velocity": 112,
      "chip": "ym2612"
    },
    {
      "channel": 5,
      "note": 65,
      "start": 294.4242,
      "duration": 0.0832,
      "velocity": 112,
      "chip": "ym2612"
    },
    {
      "channel": 1,
      "note": 65,
      "start": 294.5667,
      "duration": 0.1178,
      "velocity": 112,
      "chip": "ym2612"
    },
    {
      "channel": 2,
      "note": 41,
      "start": 294.5674,
      "duration": 0.1511,
      "velocity": 117,
      "chip": "ym2612"
    },
    {
      "channel": 3,
      "note": 53,
      "start": 294.5681,
      "duration": 0.0499,
      "velocity": 120,
      "chip": "ym2612"
    },
    {
      "channel": 4,
      "note": 65,
      "start": 294.5751,
      "duration": 0.1505,
      "velocity": 112,
      "chip": "ym2612"
    },
    {
      "channel": 5,
      "note": 65,
      "start": 294.5758,
      "duration": 0.0833,
      "velocity": 112,
      "chip": "ym2612"
    },
    {
      "channel": 1,
      "note": 77,
      "start": 294.7184,
      "duration": 0.1178,
      "velocity": 110,
      "chip": "ym2612"
    },
    {
      "channel": 2,
      "note": 41,
      "start": 294.7191,
      "duration": 0.1515,
      "velocity": 116,
      "chip": "ym2612"
    },
    {
      "channel": 3,
      "note": 65,
      "start": 294.7198,
      "duration": 0.05,
      "velocity": 120,
      "chip": "ym2612"
    },
    {
      "channel": 4,
      "note": 65,
      "start": 294.7268,
      "duration": 0.1505,
      "velocity": 112,
      "chip": "ym2612"
    },
    {
      "channel": 5,
      "note": 65,
      "start": 294.7275,
      "duration": 0.0832,
      "velocity": 112,
      "chip": "ym2612"
    },
    {
      "channel": 0,
      "note": 40,
      "start": 294.8696,
      "duration": 0.3029,
      "velocity": 127,
      "chip": "ym2612"
    },
    {
      "channel": 1,
      "note": 77,
      "start": 294.8703,
      "duration": 0.1176,
      "velocity": 111,
      "chip": "ym2612"
    },
    {
      "channel": 2,
      "note": 42,
      "start": 294.871,
      "duration": 0.151,
      "velocity": 115,
      "chip": "ym2612"
    },
    {
      "channel": 3,
      "note": 53,
      "start": 294.8717,
      "duration": 0.0497,
      "velocity": 120,
      "chip": "ym2612"
    },
    {
      "channel": 4,
      "note": 65,
      "start": 294.8785,
      "duration": 0.1505,
      "velocity": 112,
      "chip": "ym2612"
    },
    {
      "channel": 5,
      "note": 65,
      "start": 294.8792,
      "duration": 0.0832,
      "velocity": 112,
      "chip": "ym2612"
    },
    {
      "channel": 1,
      "note": 65,
      "start": 295.0217,
      "duration": 0.1177,
      "velocity": 108,
      "chip": "ym2612"
    },
    {
      "channel": 2,
      "note": 41,
      "start": 295.0224,
      "duration": 0.152,
      "velocity": 114,
      "chip": "ym2612"
    },
    {
      "channel": 3,
      "note": 65,
      "start": 295.0232,
      "duration": 0.0499,
      "velocity": 120,
      "chip": "ym2612"
    },
    {
      "channel": 4,
      "note": 65,
      "start": 295.0301,
      "duration": 0.1505,
      "velocity": 112,
      "chip": "ym2612"
    },
    {
      "channel": 5,
      "note": 65,
      "start": 295.0308,
      "duration": 0.0833,
      "velocity": 112,
      "chip": "ym2612"
    },
    {
      "channel": 0,
      "note": 41,
      "start": 295.1736,
      "duration": 0.3022,
      "velocity": 123,
      "chip": "ym2612"
    },
    {
      "channel": 1,
      "note": 77,
      "start": 295.1743,
      "duration": 0.1169,
      "velocity": 109,
      "chip": "ym2612"
    },
    {
      "channel": 2,
      "note": 41,
      "start": 295.175,
      "duration": 0.1503,
      "velocity": 113,
      "chip": "ym2612"
    },
    {
      "channel": 3,
      "note": 53,
      "start": 295.1757,
      "duration": 0.0491,
      "velocity": 120,
      "chip": "ym2612"
    },
    {
      "channel": 4,
      "note": 65,
      "start": 295.1819,
      "duration": 0.1505,
      "velocity": 112,
      "chip": "ym2612"
    },
    {
      "channel": 5,
      "note": 65,
      "start": 295.1826,
      "duration": 0.0832,
      "velocity": 112,
      "chip": "ym2612"
    },
    {
      "channel": 1,
      "note": 65,
      "start": 295.3251,
      "duration": 0.1178,
      "velocity": 112,
      "chip": "ym2612"
    },
    {
      "channel": 2,
      "note": 41,
      "start": 295.3258,
      "duration": 0.152,
      "velocity": 112,
      "chip": "ym2612"
    },
    {
      "channel": 3,
      "note": 53,
      "start": 295.3266,
      "duration": 0.0499,
      "velocity": 120,
      "chip": "ym2612"
    },
    {
      "channel": 4,
      "note": 65,
      "start": 295.3335,
      "duration": 0.1505,
      "velocity": 112,
      "chip": "ym2612"
    },
    {
      "channel": 5,
      "note": 65,
      "start": 295.3342,
      "duration": 0.0833,
      "velocity": 112,
      "chip": "ym2612"
    },
    {
      "channel": 0,
      "note": 40,
      "start": 295.4769,
      "duration": 0.6057,
      "velocity": 127,
      "chip": "ym2612"
    },
    {
      "channel": 1,
      "note": 77,
      "start": 295.4776,
      "duration": 0.1169,
      "velocity": 110,
      "chip": "ym2612"
    },
    {
      "channel": 2,
      "note": 41,
      "start": 295.4783,
      "duration": 0.1504,
      "velocity": 111,
      "chip": "ym2612"
    },
    {
      "channel": 3,
      "note": 65,
      "start": 295.479,
      "duration": 0.0491,
      "velocity": 120,
      "chip": "ym2612"
    },
    {
      "channel": 4,
      "note": 65,
      "start": 295.4852,
      "duration": 0.1506,
      "velocity": 112,
      "chip": "ym2612"
    },
    {
      "channel": 5,
      "note": 65,
      "start": 295.4859,
      "duration": 0.0832,
      "velocity": 112,
      "chip": "ym2612"
    },
    {
      "channel": 1,
      "note": 65,
      "start": 295.6285,
      "duration": 0.1178,
      "velocity": 108,
      "chip": "ym2612"
    },
    {
      "channel": 2,
      "note": 41,
      "start": 295.6292,
      "duration": 0.1511,
      "velocity": 110,
      "chip": "ym2612"
    },
    {
      "channel": 3,
      "note": 53,
      "start": 295.6299,
      "duration": 0.0499,
      "velocity": 120,
      "chip": "ym2612"
    },
    {
      "channel": 4,
      "note": 65,
      "start": 295.6363,
      "duration": 0.1511,
      "velocity": 112,
      "chip": "ym2612"
    },
    {
      "channel": 5,
      "note": 65,
      "start": 295.637,
      "duration": 0.0838,
      "velocity": 112,
      "chip": "ym2612"
    },
    {
      "channel": 1,
      "note": 65,
      "start": 295.7801,
      "duration": 0.1178,
      "velocity": 109,
      "chip": "ym2612"
    },
    {
      "channel": 2,
      "note": 29,
      "start": 295.7808,
      "duration": 0.1512,
      "velocity": 109,
      "chip": "ym2612"
    },
    {
      "channel": 3,
      "note": 65,
      "start": 295.7816,
      "duration": 0.05,
      "velocity": 120,
      "chip": "ym2612"
    },
    {
      "channel": 4,
      "note": 65,
      "start": 295.7885,
      "duration": 0.1506,
      "velocity": 112,
      "chip": "ym2612"
    },
    {
      "channel": 5,
      "note": 65,
      "start": 295.7893,
      "duration": 0.0832,
      "velocity": 112,
      "chip": "ym2612"
    },
    {
      "channel": 1,
      "note": 77,
      "start": 295.9318,
      "duration": 0.1178,
      "velocity": 112,
      "chip": "ym2612"
    },
    {
      "channel": 2,
      "note": 41,
      "start": 295.9326,
      "duration": 0.1514,
      "velocity": 108,
      "chip": "ym2612"
    },
    {
      "channel": 3,
      "note": 65,
      "start": 295.9332,
      "duration": 0.05,
      "velocity": 120,
      "chip": "ym2612"
    },
    {
      "channel": 4,
      "note": 65,
      "start": 295.9403,
      "duration": 0.1504,
      "velocity": 112,
      "chip": "ym2612"
    },
    {
      "channel": 5,
      "note": 65,
      "start": 295.941,
      "duration": 0.0832,
      "velocity": 112,
      "chip": "ym2612"
    },
    {
      "channel": 0,
      "note": 40,
      "start": 296.0831,
      "duration": 0.3029,
      "velocity": 127,
      "chip": "ym2612"
    },
    {
      "channel": 1,
      "note": 65,
      "start": 296.0838,
      "duration": 0.1175,
      "velocity": 108,
      "chip": "ym2612"
    },
    {
      "channel": 2,
      "note": 53,
      "start": 296.0851,
      "duration": 0.1503,
      "velocity": 127,
      "chip": "ym2612"
    },
    {
      "channel": 3,
      "note": 7,
      "start": 296.0864,
      "duration": 2.4258,
      "velocity": 1,
      "chip": "ym2612"
    },
    {
      "channel": 4,
      "note": 65,
      "start": 296.0919,
      "duration": 0.1505,
      "velocity": 112,
      "chip": "ym2612"
    },
    {
      "channel": 5,
      "note": 65,
      "start": 296.0927,
      "duration": 0.0832,
      "velocity": 112,
      "chip": "ym2612"
    },
    {
      "channel": 1,
      "note": 77,
      "start": 296.2352,
      "duration": 0.1178,
      "velocity": 108,
      "chip": "ym2612"
    },
    {
      "channel": 2,
      "note": 53,
      "start": 296.236,
      "duration": 0.3028,
      "velocity": 127,
      "chip": "ym2612"
    },
    {
      "channel": 4,
      "note": 65,
      "start": 296.2436,
      "duration": 0.1505,
      "velocity": 112,
      "chip": "ym2612"
    },
    {
      "channel": 5,
      "note": 65,
      "start": 296.2443,
      "duration": 0.0832,
      "velocity": 112,
      "chip": "ym2612"
    },
    {
      "channel": 0,
      "note": 41,
      "start": 296.387,
      "duration": 0.3022,
      "velocity": 123,
      "chip": "ym2612"
    },
    {
      "channel": 1,
      "note": 77,
      "start": 296.3877,
      "duration": 0.1169,
      "velocity": 112,
      "chip": "ym2612"
    },
    {
      "channel": 4,
      "note": 65,
      "start": 296.3953,
      "duration": 0.1505,
      "velocity": 112,
      "chip": "ym2612"
    },
    {
      "channel": 5,
      "note": 65,
      "start": 296.396,
      "duration": 0.0833,
      "velocity": 112,
      "chip": "ym2612"
    },
    {
      "channel": 1,
      "note": 65,
      "start": 296.5385,
      "duration": 0.1178,
      "velocity": 109,
      "chip": "ym2612"
    },
    {
      "channel": 2,
      "note": 53,
      "start": 296.5393,
      "duration": 0.152,
      "velocity": 127,
      "chip": "ym2612"
    },
    {
      "channel": 4,
      "note": 65,
      "start": 296.547,
      "duration": 0.1505,
      "velocity": 112,
      "chip": "ym2612"
    },
    {
      "channel": 5,
      "note": 65,
      "start": 296.5477,
      "duration": 0.0832,
      "velocity": 112,
      "chip": "ym2612"
    },
    {
      "channel": 0,
      "note": 40,
      "start": 296.6904,
      "duration": 0.3022,
      "velocity": 127,
      "chip": "ym2612"
    },
    {
      "channel": 1,
      "note": 77,
      "start": 296.6911,
      "duration": 0.1169,
      "velocity": 108,
      "chip": "ym2612"
    },
    {
      "channel": 2,
      "note": 53,
      "start": 296.6918,
      "duration": 0.3028,
      "velocity": 127,
      "chip": "ym2612"
    },
    {
      "channel": 4,
      "note": 65,
      "start": 296.6986,
      "duration": 0.1505,
      "velocity": 112,
      "chip": "ym2612"
    },
    {
      "channel": 5,
      "note": 65,
      "start": 296.6993,
      "duration": 0.0833,
      "velocity": 112,
      "chip": "ym2612"
    },
    {
      "channel": 1,
      "note": 65,
      "start": 296.8419,
      "duration": 0.1178,
      "velocity": 110,
      "chip": "ym2612"
    },
    {
      "channel": 4,
      "note": 65,
      "start": 296.8503,
      "duration": 0.1505,
      "velocity": 112,
      "chip": "ym2612"
    },
    {
      "channel": 5,
      "note": 65,
      "start": 296.8511,
      "duration": 0.0832,
      "velocity": 112,
      "chip": "ym2612"
    },
    {
      "channel": 0,
      "note": 41,
      "start": 296.9937,
      "duration": 0.3023,
      "velocity": 123,
      "chip": "ym2612"
    },
    {
      "channel": 1,
      "note": 65,
      "start": 296.9944,
      "duration": 0.117,
      "velocity": 109,
      "chip": "ym2612"
    },
    {
      "channel": 2,
      "note": 53,
      "start": 296.9951,
      "duration": 0.1503,
      "velocity": 127,
      "chip": "ym2612"
    },
    {
      "channel": 4,
      "note": 65,
      "start": 297.002,
      "duration": 0.1505,
      "velocity": 112,
      "chip": "ym2612"
    },
    {
      "channel": 5,
      "note": 65,
      "start": 297.0027,
      "duration": 0.0832,
      "velocity": 112,
      "chip": "ym2612"
    },
    {
      "channel": 1,
      "note": 77,
      "start": 297.1453,
      "duration": 0.1177,
      "velocity": 111,
      "chip": "ym2612"
    },
    {
      "channel": 2,
      "note": 53,
      "start": 297.146,
      "duration": 0.3028,
      "velocity": 127,
      "chip": "ym2612"
    },
    {
      "channel": 4,
      "note": 65,
      "start": 297.1537,
      "duration": 0.1505,
      "velocity": 112,
      "chip": "ym2612"
    },
    {
      "channel": 5,
      "note": 65,
      "start": 297.1544,
      "duration": 0.0832,
      "velocity": 112,
      "chip": "ym2612"
    },
    {
      "channel": 0,
      "note": 40,
      "start": 297.2971,
      "duration": 0.6057,
      "velocity": 127,
      "chip": "ym2612"
    },
    {
      "channel": 1,
      "note": 77,
      "start": 297.2978,
      "duration": 0.1169,
      "velocity": 112,
      "chip": "ym2612"
    },
    {
      "channel": 4,
      "note": 65,
      "start": 297.3054,
      "duration": 0.1505,
      "velocity": 112,
      "chip": "ym2612"
    },
    {
      "channel": 5,
      "note": 65,
      "start": 297.3061,
      "duration": 0.0832,
      "velocity": 112,
      "chip": "ym2612"
    },
    {
      "channel": 1,
      "note": 65,
      "start": 297.4486,
      "duration": 0.1178,
      "velocity": 109,
      "chip": "ym2612"
    },
    {
      "channel": 2,
      "note": 53,
      "start": 297.4494,
      "duration": 0.1511,
      "velocity": 127,
      "chip": "ym2612"
    },
    {
      "channel": 4,
      "note": 65,
      "start": 297.4571,
      "duration": 0.1505,
      "velocity": 112,
      "chip": "ym2612"
    },
    {
      "channel": 5,
      "note": 65,
      "start": 297.4578,
      "duration": 0.0833,
      "velocity": 112,
      "chip": "ym2612"
    },
    {
      "channel": 1,
      "note": 77,
      "start": 297.6003,
      "duration": 0.1178,
      "velocity": 108,
      "chip": "ym2612"
    },
    {
      "channel": 2,
      "note": 53,
      "start": 297.6011,
      "duration": 0.3031,
      "velocity": 127,
      "chip": "ym2612"
    },
    {
      "channel": 4,
      "note": 65,
      "start": 297.6081,
      "duration": 0.1512,
      "velocity": 112,
      "chip": "ym2612"
    },
    {
      "channel": 5,
      "note": 65,
      "start": 297.6089,
      "duration": 0.0838,
      "velocity": 112,
      "chip": "ym2612"
    },
    {
      "channel": 1,
      "note": 65,
      "start": 297.752,
      "duration": 0.1178,
      "velocity": 112,
      "chip": "ym2612"
    },
    {
      "channel": 4,
      "note": 65,
      "start": 297.7604,
      "duration": 0.1505,
      "velocity": 112,
      "chip": "ym2612"
    },
    {
      "channel": 5,
      "note": 65,
      "start": 297.7611,
      "duration": 0.0833,
      "velocity": 112,
      "chip": "ym2612"
    },
    {
      "channel": 0,
      "note": 40,
      "start": 297.9032,
      "duration": 0.3029,
      "velocity": 127,
      "chip": "ym2612"
    },
    {
      "channel": 1,
      "note": 65,
      "start": 297.9039,
      "duration": 0.1175,
      "velocity": 111,
      "chip": "ym2612"
    },
    {
      "channel": 2,
      "note": 53,
      "start": 297.9047,
      "duration": 0.1509,
      "velocity": 127,
      "chip": "ym2612"
    },
    {
      "channel": 4,
      "note": 65,
      "start": 297.9121,
      "duration": 0.1505,
      "velocity": 112,
      "chip": "ym2612"
    },
    {
      "channel": 5,
      "note": 65,
      "start": 297.9128,
      "duration": 0.0832,
      "velocity": 112,
      "chip": "ym2612"
    },
    {
      "channel": 1,
      "note": 77,
      "start": 298.0553,
      "duration": 0.1178,
      "velocity": 109,
      "chip": "ym2612"
    },
    {
      "channel": 2,
      "note": 53,
      "start": 298.0561,
      "duration": 0.3028,
      "velocity": 127,
      "chip": "ym2612"
    },
    {
      "channel": 4,
      "note": 65,
      "start": 298.0638,
      "duration": 0.1505,
      "velocity": 112,
      "chip": "ym2612"
    },
    {
      "channel": 5,
      "note": 65,
      "start": 298.0645,
      "duration": 0.0832,
      "velocity": 112,
      "chip": "ym2612"
    },
    {
      "channel": 0,
      "note": 41,
      "start": 298.2072,
      "duration": 0.3023,
      "velocity": 123,
      "chip": "ym2612"
    },
    {
      "channel": 1,
      "note": 65,
      "start": 298.2079,
      "duration": 0.1169,
      "velocity": 111,
      "chip": "ym2612"
    },
    {
      "channel": 4,
      "note": 65,
      "start": 298.2154,
      "duration": 0.1505,
      "velocity": 112,
      "chip": "ym2612"
    },
    {
      "channel": 5,
      "note": 65,
      "start": 298.2161,
      "duration": 0.0833,
      "velocity": 112,
      "chip": "ym2612"
    },
    {
      "channel": 1,
      "note": 65,
      "start": 298.3587,
      "duration": 0.1178,
      "velocity": 112,
      "chip": "ym2612"
    },
    {
      "channel": 2,
      "note": 53,
      "start": 298.3595,
      "duration": 0.1519,
      "velocity": 127,
      "chip": "ym2612"
    },
    {
      "channel": 4,
      "note": 65,
      "start": 298.3672,
      "duration": 0.1505,
      "velocity": 112,
      "chip": "ym2612"
    },
    {
      "channel": 5,
      "note": 65,
      "start": 298.3678,
      "duration": 0.0832,
      "velocity": 112,
      "chip": "ym2612"
    },
    {
      "channel": 0,
      "note": 40,
      "start": 298.5105,
      "duration": 0.3022,
      "velocity": 127,
      "chip": "ym2612"
    },
    {
      "channel": 1,
      "note": 65,
      "start": 298.5112,
      "duration": 0.1169,
      "velocity": 108,
      "chip": "ym2612"
    },
    {
      "channel": 2,
      "note": 53,
      "start": 298.512,
      "duration": 0.3028,
      "velocity": 127,
      "chip": "ym2612"
    },
    {
      "channel": 3,
      "note": 7,
      "start": 298.5127,
      "duration": 2.4423,
      "velocity": 1,
      "chip": "ym2612"
    },
    {
      "channel": 4,
      "note": 65,
      "start": 298.5188,
      "duration": 0.1505,
      "velocity": 112,
      "chip": "ym2612"
    },
    {
      "channel": 5,
      "note": 65,
      "start": 298.5195,
      "duration": 0.0833,
      "velocity": 112,
      "chip": "ym2612"
    },
    {
      "channel": 1,
      "note": 77,
      "start": 298.6621,
      "duration": 0.1178,
      "velocity": 109,
      "chip": "ym2612"
    },
    {
      "channel": 4,
      "note": 65,
      "start": 298.6705,
      "duration": 0.1506,
      "velocity": 112,
      "chip": "ym2612"
    },
    {
      "channel": 5,
      "note": 65,
      "start": 298.6712,
      "duration": 0.0832,
      "velocity": 112,
      "chip": "ym2612"
    },
    {
      "channel": 0,
      "note": 41,
      "start": 298.8139,
      "duration": 0.3022,
      "velocity": 123,
      "chip": "ym2612"
    },
    {
      "channel": 1,
      "note": 77,
      "start": 298.8146,
      "duration": 0.117,
      "velocity": 110,
      "chip": "ym2612"
    },
    {
      "channel": 2,
      "note": 53,
      "start": 298.8154,
      "duration": 0.1502,
      "velocity": 127,
      "chip": "ym2612"
    },
    {
      "channel": 4,
      "note": 65,
      "start": 298.8222,
      "duration": 0.1505,
      "velocity": 112,
      "chip": "ym2612"
    },
    {
      "channel": 5,
      "note": 65,
      "start": 298.8229,
      "duration": 0.0833,
      "velocity": 112,
      "chip": "ym2612"
    },
    {
      "channel": 1,
      "note": 65,
      "start": 298.9654,
      "duration": 0.1178,
      "velocity": 111,
      "chip": "ym2612"
    },
    {
      "channel": 2,
      "note": 53,
      "start": 298.9662,
      "duration": 0.3028,
      "velocity": 127,
      "chip": "ym2612"
    },
    {
      "channel": 4,
      "note": 65,
      "start": 298.9739,
      "duration": 0.1505,
      "velocity": 112,
      "chip": "ym2612"
    },
    {
      "channel": 5,
      "note": 65,
      "start": 298.9746,
      "duration": 0.0833,
      "velocity": 112,
      "chip": "ym2612"
    },
    {
      "channel": 0,
      "note": 40,
      "start": 299.1172,
      "duration": 0.6057,
      "velocity": 127,
      "chip": "ym2612"
    },
    {
      "channel": 1,
      "note": 77,
      "start": 299.1179,
      "duration": 0.117,
      "velocity": 108,
      "chip": "ym2612"
    },
    {
      "channel": 4,
      "note": 65,
      "start": 299.125,
      "duration": 0.1511,
      "velocity": 112,
      "chip": "ym2612"
    },
    {
      "channel": 5,
      "note": 65,
      "start": 299.1257,
      "duration": 0.0838,
      "velocity": 112,
      "chip": "ym2612"
    },
    {
      "channel": 1,
      "note": 65,
      "start": 299.2688,
      "duration": 0.1177,
      "velocity": 109,
      "chip": "ym2612"
    },
    {
      "channel": 2,
      "note": 53,
      "start": 299.2696,
      "duration": 0.1512,
      "velocity": 127,
      "chip": "ym2612"
    },
    {
      "channel": 4,
      "note": 65,
      "start": 299.2772,
      "duration": 0.1505,
      "velocity": 112,
      "chip": "ym2612"
    },
    {
      "channel": 5,
      "note": 65,
      "start": 299.2779,
      "duration": 0.0833,
      "velocity": 112,
      "chip": "ym2612"
    },
    {
      "channel": 1,
      "note": 65,
      "start": 299.4205,
      "duration": 0.1178,
      "velocity": 112,
      "chip": "ym2612"
    },
    {
      "channel": 2,
      "note": 53,
      "start": 299.4212,
      "duration": 0.3031,
      "velocity": 127,
      "chip": "ym2612"
    },
    {
      "channel": 4,
      "note": 65,
      "start": 299.4289,
      "duration": 0.1505,
      "velocity": 112,
      "chip": "ym2612"
    },
    {
      "channel": 5,
      "note": 65,
      "start": 299.4296,
      "duration": 0.0832,
      "velocity": 112,
      "chip": "ym2612"
    },
    {
      "channel": 1,
      "note": 77,
      "start": 299.5722,
      "duration": 0.1178,
      "velocity": 110,
      "chip": "ym2612"
    },
    {
      "channel": 4,
      "note": 65,
      "start": 299.5806,
      "duration": 0.1505,
      "velocity": 112,
      "chip": "ym2612"
    },
    {
      "channel": 5,
      "note": 65,
      "start": 299.5813,
      "duration": 0.0833,
      "velocity": 112,
      "chip": "ym2612"
    },
    {
      "channel": 0,
      "note": 40,
      "start": 299.7234,
      "duration": 0.3028,
      "velocity": 127,
      "chip": "ym2612"
    },
    {
      "channel": 1,
      "note": 77,
      "start": 299.7241,
      "duration": 0.1174,
      "velocity": 111,
      "chip": "ym2612"
    },
    {
      "channel": 2,
      "note": 53,
      "start": 299.7249,
      "duration": 0.1508,
      "velocity": 127,
      "chip": "ym2612"
    },
    {
      "channel": 4,
      "note": 65,
      "start": 299.7322,
      "duration": 0.1506,
      "velocity": 112,
      "chip": "ym2612"
    },
    {
      "channel": 5,
      "note": 65,
      "start": 299.733,
      "duration": 0.0832,
      "velocity": 112,
      "chip": "ym2612"
    },
    {
      "channel": 1,
      "note": 65,
      "start": 299.8756,
      "duration": 0.1178,
      "velocity": 108,
      "chip": "ym2612"
    },
    {
      "channel": 2,
      "note": 53,
      "start": 299.8763,
      "duration": 0.3028,
      "velocity": 127,
      "chip": "ym2612"
    },
    {
      "channel": 4,
      "note": 65,
      "start": 299.8839,
      "duration": 0.1505,
      "velocity": 112,
      "chip": "ym2612"
    },
    {
      "channel": 5,
      "note": 65,
      "start": 299.8846,
      "duration": 0.0833,
      "velocity": 112,
      "chip": "ym2612"
    },
    {
      "channel": 0,
      "note": 41,
      "start": 300.0273,
      "duration": 0.3023,
      "velocity": 123,
      "chip": "ym2612"
    },
    {
      "channel": 1,
      "note": 77,
      "start": 300.028,
      "duration": 0.1169,
      "velocity": 109,
      "chip": "ym2612"
    },
    {
      "channel": 4,
      "note": 65,
      "start": 300.0356,
      "duration": 0.1505,
      "velocity": 112,
      "chip": "ym2612"
    },
    {
      "channel": 5,
      "note": 65,
      "start": 300.0364,
      "duration": 0.0832,
      "velocity": 112,
      "chip": "ym2612"
    },
    {
      "channel": 1,
      "note": 65,
      "start": 300.1789,
      "duration": 0.1178,
      "velocity": 112,
      "chip": "ym2612"
    },
    {
      "channel": 2,
      "note": 53,
      "start": 300.1797,
      "duration": 0.1519,
      "velocity": 127,
      "chip": "ym2612"
    },
    {
      "channel": 4,
      "note": 65,
      "start": 300.1873,
      "duration": 0.1505,
      "velocity": 112,
      "chip": "ym2612"
    },
    {
      "channel": 5,
      "note": 65,
      "start": 300.188,
      "duration": 0.0832,
      "velocity": 112,
      "chip": "ym2612"
    },
    {
      "channel": 0,
      "note": 40,
      "start": 300.3307,
      "duration": 0.6057,
      "velocity": 127,
      "chip": "ym2612"
    },
    {
      "channel": 1,
      "note": 77,
      "start": 300.3314,
      "duration": 0.1169,
      "velocity": 110,
      "chip": "ym2612"
    },
    {
      "channel": 2,
      "note": 53,
      "start": 300.3322,
      "duration": 0.302,
      "velocity": 127,
      "chip": "ym2612"
    },
    {
      "channel": 4,
      "note": 65,
      "start": 300.339,
      "duration": 0.1506,
      "velocity": 112,
      "chip": "ym2612"
    },
    {
      "channel": 5,
      "note": 65,
      "start": 300.3397,
      "duration": 0.0833,
      "velocity": 112,
      "chip": "ym2612"
    },
    {
      "channel": 1,
      "note": 65,
      "start": 300.4822,
      "duration": 0.1178,
      "velocity": 108,
      "chip": "ym2612"
    },
    {
      "channel": 4,
      "note": 65,
      "start": 300.4901,
      "duration": 0.1511,
      "velocity": 112,
      "chip": "ym2612"
    },
    {
      "channel": 5,
      "note": 65,
      "start": 300.4909,
      "duration": 0.0837,
      "velocity": 112,
      "chip": "ym2612"
    },
    {
      "channel": 1,
      "note": 65,
      "start": 300.6339,
      "duration": 0.1178,
      "velocity": 109,
      "chip": "ym2612"
    },
    {
      "channel": 2,
      "note": 53,
      "start": 300.6347,
      "duration": 0.1511,
      "velocity": 127,
      "chip": "ym2612"
    },
    {
      "channel": 4,
      "note": 65,
      "start": 300.6424,
      "duration": 0.1505,
      "velocity": 112,
      "chip": "ym2612"
    },
    {
      "channel": 5,
      "note": 65,
      "start": 300.643,
      "duration": 0.0833,
      "velocity": 112,
      "chip": "ym2612"
    },
    {
      "channel": 1,
      "note": 77,
      "start": 300.7856,
      "duration": 0.1178,
      "velocity": 112,
      "chip": "ym2612"
    },
    {
      "channel": 2,
      "note": 53,
      "start": 300.7864,
      "duration": 0.1514,
      "velocity": 127,
      "chip": "ym2612"
    },
    {
      "channel": 4,
      "note": 65,
      "start": 300.7941,
      "duration": 0.1505,
      "velocity": 112,
      "chip": "ym2612"
    },
    {
      "channel": 5,
      "note": 65,
      "start": 300.7948,
      "duration": 0.0832,
      "velocity": 112,
      "chip": "ym2612"
    },
    {
      "channel": 0,
      "note": 40,
      "start": 300.9369,
      "duration": 0.3028,
      "velocity": 127,
      "chip": "ym2612"
    },
    {
      "channel": 1,
      "note": 65,
      "start": 300.9375,
      "duration": 0.1176,
      "velocity": 108,
      "chip": "ym2612"
    },
    {
      "channel": 2,
      "note": 53,
      "start": 300.9383,
      "duration": 0.1508,
      "velocity": 127,
      "chip": "ym2612"
    },
    {
      "channel": 4,
      "note": 65,
      "start": 300.9457,
      "duration": 0.1505,
      "velocity": 112,
      "chip": "ym2612"
    },
    {
      "channel": 5,
      "note": 65,
      "start": 300.9464,
      "duration": 0.0833,
      "velocity": 112,
      "chip": "ym2612"
    },
    {
      "channel": 1,
      "note": 77,
      "start": 301.089,
      "duration": 0.1178,
      "velocity": 108,
      "chip": "ym2612"
    },
    {
      "channel": 2,
      "note": 53,
      "start": 301.0898,
      "duration": 0.3028,
      "velocity": 127,
      "chip": "ym2612"
    },
    {
      "channel": 4,
      "note": 65,
      "start": 301.0974,
      "duration": 0.1506,
      "velocity": 112,
      "chip": "ym2612"
    },
    {
      "channel": 5,
      "note": 65,
      "start": 301.0981,
      "duration": 0.0832,
      "velocity": 112,
      "chip": "ym2612"
    },
    {
      "channel": 0,
      "note": 41,
      "start": 301.2408,
      "duration": 0.3022,
      "velocity": 123,
      "chip": "ym2612"
    },
    {
      "channel": 1,
      "note": 77,
      "start": 301.2415,
      "duration": 0.1169,
      "velocity": 112,
      "chip": "ym2612"
    },
    {
      "channel": 4,
      "note": 65,
      "start": 301.2491,
      "duration": 0.1505,
      "velocity": 112,
      "chip": "ym2612"
    },
    {
      "channel": 5,
      "note": 65,
      "start": 301.2498,
      "duration": 0.0832,
      "velocity": 112,
      "chip": "ym2612"
    },
    {
      "channel": 1,
      "note": 65,
      "start": 301.3924,
      "duration": 0.1177,
      "velocity": 109,
      "chip": "ym2612"
    },
    {
      "channel": 2,
      "note": 53,
      "start": 301.3931,
      "duration": 0.152,
      "velocity": 127,
      "chip": "ym2612"
    },
    {
      "channel": 4,
      "note": 65,
      "start": 301.4007,
      "duration": 0.1505,
      "velocity": 112,
      "chip": "ym2612"
    },
    {
      "channel": 5,
      "note": 65,
      "start": 301.4015,
      "duration": 0.0833,
      "velocity": 112,
      "chip": "ym2612"
    },
    {
      "channel": 0,
      "note": 40,
      "start": 301.5441,
      "duration": 0.3023,
      "velocity": 127,
      "chip": "ym2612"
    },
    {
      "channel": 1,
      "note": 77,
      "start": 301.5448,
      "duration": 0.1169,
      "velocity": 108,
      "chip": "ym2612"
    },
    {
      "channel": 2,
      "note": 53,
      "start": 301.5456,
      "duration": 0.3028,
      "velocity": 127,
      "chip": "ym2612"
    },
    {
      "channel": 4,
      "note": 65,
      "start": 301.5525,
      "duration": 0.1505,
      "velocity": 112,
      "chip": "ym2612"
    },
    {
      "channel": 5,
      "note": 65,
      "start": 301.5532,
      "duration": 0.0832,
      "velocity": 112,
      "chip": "ym2612"
    },
    {
      "channel": 1,
      "note": 65,
      "start": 301.6957,
      "duration": 0.1178,
      "velocity": 110,
      "chip": "ym2612"
    },
    {
      "channel": 4,
      "note": 65,
      "start": 301.7041,
      "duration": 0.1505,
      "velocity": 112,
      "chip": "ym2612"
    },
    {
      "channel": 5,
      "note": 65,
      "start": 301.7048,
      "duration": 0.0833,
      "velocity": 112,
      "chip": "ym2612"
    },
    {
      "channel": 0,
      "note": 41,
      "start": 301.8475,
      "duration": 0.3023,
      "velocity": 123,
      "chip": "ym2612"
    },
    {
      "channel": 1,
      "note": 65,
      "start": 301.8482,
      "duration": 0.1169,
      "velocity": 109,
      "chip": "ym2612"
    },
    {
      "channel": 2,
      "note": 53,
      "start": 301.849,
      "duration": 0.1503,
      "velocity": 127,
      "chip": "ym2612"
    },
    {
      "channel": 4,
      "note": 65,
      "start": 301.8558,
      "duration": 0.1505,
      "velocity": 112,
      "chip": "ym2612"
    },
    {
      "channel": 5,
      "note": 65,
      "start": 301.8565,
      "duration": 0.0832,
      "velocity": 112,
      "chip": "ym2612"
    },
    {
      "channel": 1,
      "note": 77,
      "start": 301.999,
      "duration": 0.1178,
      "velocity": 111,
      "chip": "ym2612"
    },
    {
      "channel": 2,
      "note": 53,
      "start": 301.9999,
      "duration": 0.3028,
      "velocity": 127,
      "chip": "ym2612"
    },
    {
      "channel": 4,
      "note": 65,
      "start": 302.0076,
      "duration": 0.1505,
      "velocity": 112,
      "chip": "ym2612"
    },
    {
      "channel": 5,
      "note": 65,
      "start": 302.0083,
      "duration": 0.0831,
      "velocity": 112,
      "chip": "ym2612"
    },
    {
      "channel": 0,
      "note": 40,
      "start": 302.1509,
      "duration": 0.6057,
      "velocity": 127,
      "chip": "ym2612"
    },
    {
      "channel": 1,
      "note": 77,
      "start": 302.1516,
      "duration": 0.1169,
      "velocity": 112,
      "chip": "ym2612"
    },
    {
      "channel": 4,
      "note": 65,
      "start": 302.1591,
      "duration": 0.1505,
      "velocity": 112,
      "chip": "ym2612"
    },
    {
      "channel": 5,
      "note": 65,
      "start": 302.1599,
      "duration": 0.0832,
      "velocity": 112,
      "chip": "ym2612"
    },
    {
      "channel": 1,
      "note": 65,
      "start": 302.3024,
      "duration": 0.1178,
      "velocity": 109,
      "chip": "ym2612"
    },
    {
      "channel": 2,
      "note": 53,
      "start": 302.3032,
      "duration": 0.1511,
      "velocity": 127,
      "chip": "ym2612"
    },
    {
      "channel": 4,
      "note": 65,
      "start": 302.3109,
      "duration": 0.1505,
      "velocity": 112,
      "chip": "ym2612"
    },
    {
      "channel": 5,
      "note": 65,
      "start": 302.3116,
      "duration": 0.0832,
      "velocity": 112,
      "chip": "ym2612"
    },
    {
      "channel": 1,
      "note": 77,
      "start": 302.4541,
      "duration": 0.1177,
      "velocity": 108,
      "chip": "ym2612"
    },
    {
      "channel": 2,
      "note": 53,
      "start": 302.4549,
      "duration": 0.3031,
      "velocity": 127,
      "chip": "ym2612"
    },
    {
      "channel": 4,
      "note": 65,
      "start": 302.462,
      "duration": 0.1511,
      "velocity": 112,
      "chip": "ym2612"
    },
    {
      "channel": 5,
      "note": 65,
      "start": 302.4626,
      "duration": 0.0839,
      "velocity": 112,
      "chip": "ym2612"
    },
    {
      "channel": 1,
      "note": 65,
      "start": 302.6058,
      "duration": 0.1178,
      "velocity": 112,
      "chip": "ym2612"
    },
    {
      "channel": 4,
      "note": 65,
      "start": 302.6142,
      "duration": 0.1505,
      "velocity": 112,
      "chip": "ym2612"
    },
    {
      "channel": 5,
      "note": 65,
      "start": 302.6149,
      "duration": 0.0832,
      "velocity": 112,
      "chip": "ym2612"
    },
    {
      "channel": 0,
      "note": 40,
      "start": 302.7571,
      "duration": 0.3028,
      "velocity": 127,
      "chip": "ym2612"
    },
    {
      "channel": 1,
      "note": 65,
      "start": 302.7577,
      "duration": 0.1175,
      "velocity": 111,
      "chip": "ym2612"
    },
    {
      "channel": 2,
      "note": 53,
      "start": 302.7585,
      "duration": 0.1509,
      "velocity": 127,
      "chip": "ym2612"
    },
    {
      "channel": 4,
      "note": 65,
      "start": 302.7659,
      "duration": 0.1505,
      "velocity": 112,
      "chip": "ym2612"
    },
    {
      "channel": 5,
      "note": 65,
      "start": 302.7666,
      "duration": 0.0833,
      "velocity": 112,
      "chip": "ym2612"
    },
    {
      "channel": 1,
      "note": 77,
      "start": 302.9091,
      "duration": 0.1178,
      "velocity": 109,
      "chip": "ym2612"
    },
    {
      "channel": 2,
      "note": 53,
      "start": 302.9099,
      "duration": 0.3028,
      "velocity": 127,
      "chip": "ym2612"
    },
    {
      "channel": 4,
      "note": 65,
      "start": 302.9176,
      "duration": 0.1505,
      "velocity": 112,
      "chip": "ym2612"
    },
    {
      "channel": 5,
      "note": 65,
      "start": 302.9183,
      "duration": 0.0832,
      "velocity": 112,
      "chip": "ym2612"
    },
    {
      "channel": 0,
      "note": 41,
      "start": 303.0609,
      "duration": 0.3023,
      "velocity": 123,
      "chip": "ym2612"
    },
    {
      "channel": 1,
      "note": 65,
      "start": 303.0616,
      "duration": 0.117,
      "velocity": 111,
      "chip": "ym2612"
    },
    {
      "channel": 4,
      "note": 65,
      "start": 303.0693,
      "duration": 0.1505,
      "velocity": 112,
      "chip": "ym2612"
    },
    {
      "channel": 5,
      "note": 65,
      "start": 303.07,
      "duration": 0.0833,
      "velocity": 112,
      "chip": "ym2612"
    },
    {
      "channel": 1,
      "note": 65,
      "start": 303.2125,
      "duration": 0.1178,
      "velocity": 112,
      "chip": "ym2612"
    },
    {
      "channel": 2,
      "note": 53,
      "start": 303.2133,
      "duration": 0.152,
      "velocity": 127,
      "chip": "ym2612"
    },
    {
      "channel": 4,
      "note": 65,
      "start": 303.2209,
      "duration": 0.1505,
      "velocity": 112,
      "chip": "ym2612"
    },
    {
      "channel": 5,
      "note": 65,
      "start": 303.2217,
      "duration": 0.0832,
      "velocity": 112,
      "chip": "ym2612"
    },
    {
      "channel": 0,
      "note": 40,
      "start": 303.3643,
      "duration": 0.3023,
      "velocity": 127,
      "chip": "ym2612"
    },
    {
      "channel": 1,
      "note": 65,
      "start": 303.365,
      "duration": 0.117,
      "velocity": 108,
      "chip": "ym2612"
    },
    {
      "channel": 2,
      "note": 53,
      "start": 303.3658,
      "duration": 0.3029,
      "velocity": 127,
      "chip": "ym2612"
    },
    {
      "channel": 4,
      "note": 65,
      "start": 303.3726,
      "duration": 0.1505,
      "velocity": 112,
      "chip": "ym2612"
    },
    {
      "channel": 5,
      "note": 65,
      "start": 303.3733,
      "duration": 0.0832,
      "velocity": 112,
      "chip": "ym2612"
    },
    {
      "channel": 1,
      "note": 77,
      "start": 303.5159,
      "duration": 0.1177,
      "velocity": 109,
      "chip": "ym2612"
    },
    {
      "channel": 4,
      "note": 65,
      "start": 303.5244,
      "duration": 0.1504,
      "velocity": 112,
      "chip": "ym2612"
    },
    {
      "channel": 5,
      "note": 65,
      "start": 303.525,
      "duration": 0.0832,
      "velocity": 112,
      "chip": "ym2612"
    },
    {
      "channel": 0,
      "note": 41,
      "start": 303.6677,
      "duration": 0.3023,
      "velocity": 123,
      "chip": "ym2612"
    },
    {
      "channel": 1,
      "note": 77,
      "start": 303.6684,
      "duration": 0.1169,
      "velocity": 110,
      "chip": "ym2612"
    },
    {
      "channel": 2,
      "note": 53,
      "start": 303.6691,
      "duration": 0.1503,
      "velocity": 127,
      "chip": "ym2612"
    },
    {
      "channel": 4,
      "note": 65,
      "start": 303.676,
      "duration": 0.1505,
      "velocity": 112,
      "chip": "ym2612"
    },
    {
      "channel": 5,
      "note": 65,
      "start": 303.6767,
      "duration": 0.0832,
      "velocity": 112,
      "chip": "ym2612"
    },
    {
      "channel": 1,
      "note": 65,
      "start": 303.8193,
      "duration": 0.1178,
      "velocity": 111,
      "chip": "ym2612"
    },
    {
      "channel": 2,
      "note": 53,
      "start": 303.82,
      "duration": 0.3028,
      "velocity": 127,
      "chip": "ym2612"
    },
    {
      "channel": 4,
      "note": 65,
      "start": 303.8277,
      "duration": 0.1506,
      "velocity": 112,
      "chip": "ym2612"
    },
    {
      "channel": 5,
      "note": 65,
      "start": 303.8283,
      "duration": 0.0833,
      "velocity": 112,
      "chip": "ym2612"
    },
    {
      "channel": 0,
      "note": 40,
      "start": 303.971,
      "duration": 0.6056,
      "velocity": 127,
      "chip": "ym2612"
    },
    {
      "channel": 1,
      "note": 77,
      "start": 303.9717,
      "duration": 0.1169,
      "velocity": 108,
      "chip": "ym2612"
    },
    {
      "channel": 4,
      "note": 65,
      "start": 303.9787,
      "duration": 0.1512,
      "velocity": 112,
      "chip": "ym2612"
    },
    {
      "channel": 5,
      "note": 65,
      "start": 303.9794,
      "duration": 0.0839,
      "velocity": 112,
      "chip": "ym2612"
    },
    {
      "channel": 1,
      "note": 65,
      "start": 304.1226,
      "duration": 0.1178,
      "velocity": 109,
      "chip": "ym2612"
    },
    {
      "channel": 2,
      "note": 53,
      "start": 304.1234,
      "duration": 0.1511,
      "velocity": 127,
      "chip": "ym2612"
    },
    {
      "channel": 4,
      "note": 65,
      "start": 304.131,
      "duration": 0.1505,
      "velocity": 112,
      "chip": "ym2612"
    },
    {
      "channel": 5,
      "note": 65,
      "start": 304.1317,
      "duration": 0.0832,
      "velocity": 112,
      "chip": "ym2612"
    },
    {
      "channel": 1,
      "note": 65,
      "start": 304.2744,
      "duration": 0.1177,
      "velocity": 112,
      "chip": "ym2612"
    },
    {
      "channel": 2,
      "note": 53,
      "start": 304.2751,
      "duration": 0.303,
      "velocity": 127,
      "chip": "ym2612"
    },
    {
      "channel": 4,
      "note": 65,
      "start": 304.2827,
      "duration": 0.1505,
      "velocity": 112,
      "chip": "ym2612"
    },
    {
      "channel": 5,
      "note": 65,
      "start": 304.2834,
      "duration": 0.0832,
      "velocity": 112,
      "chip": "ym2612"
    },
    {
      "channel": 1,
      "note": 77,
      "start": 304.4259,
      "duration": 0.1178,
      "velocity": 110,
      "chip": "ym2612"
    },
    {
      "channel": 4,
      "note": 65,
      "start": 304.4344,
      "duration": 0.1505,
      "velocity": 112,
      "chip": "ym2612"
    },
    {
      "channel": 5,
      "note": 65,
      "start": 304.4351,
      "duration": 0.0832,
      "velocity": 112,
      "chip": "ym2612"
    },
    {
      "channel": 0,
      "note": 40,
      "start": 304.5772,
      "duration": 0.3028,
      "velocity": 127,
      "chip": "ym2612"
    },
    {
      "channel": 1,
      "note": 77,
      "start": 304.5778,
      "duration": 0.1176,
      "velocity": 111,
      "chip": "ym2612"
    },
    {
      "channel": 2,
      "note": 53,
      "start": 304.5787,
      "duration": 0.1509,
      "velocity": 127,
      "chip": "ym2612"
    },
    {
      "channel": 4,
      "note": 65,
      "start": 304.5861,
      "duration": 0.1505,
      "velocity": 112,
      "chip": "ym2612"
    },
    {
      "channel": 5,
      "note": 65,
      "start": 304.5868,
      "duration": 0.0833,
      "velocity": 112,
      "chip": "ym2612"
    },
    {
      "channel": 1,
      "note": 65,
      "start": 304.7293,
      "duration": 0.1178,
      "velocity": 108,
      "chip": "ym2612"
    },
    {
      "channel": 2,
      "note": 53,
      "start": 304.7301,
      "duration": 0.3029,
      "velocity": 127,
      "chip": "ym2612"
    },
    {
      "channel": 4,
      "note": 65,
      "start": 304.7378,
      "duration": 0.1505,
      "velocity": 112,
      "chip": "ym2612"
    },
    {
      "channel": 5,
      "note": 65,
      "start": 304.7385,
      "duration": 0.0832,
      "velocity": 112,
      "chip": "ym2612"
    },
    {
      "channel": 0,
      "note": 41,
      "start": 304.8812,
      "duration": 0.3022,
      "velocity": 123,
      "chip": "ym2612"
    },
    {
      "channel": 1,
      "note": 77,
      "start": 304.8818,
      "duration": 0.117,
      "velocity": 109,
      "chip": "ym2612"
    },
    {
      "channel": 4,
      "note": 65,
      "start": 304.8894,
      "duration": 0.1505,
      "velocity": 112,
      "chip": "ym2612"
    },
    {
      "channel": 5,
      "note": 65,
      "start": 304.8902,
      "duration": 0.0832,
      "velocity": 112,
      "chip": "ym2612"
    },
    {
      "channel": 1,
      "note": 65,
      "start": 305.0327,
      "duration": 0.1178,
      "velocity": 112,
      "chip": "ym2612"
    },
    {
      "channel": 2,
      "note": 53,
      "start": 305.0334,
      "duration": 0.152,
      "velocity": 127,
      "chip": "ym2612"
    },
    {
      "channel": 4,
      "note": 65,
      "start": 305.0411,
      "duration": 0.1505,
      "velocity": 112,
      "chip": "ym2612"
    },
    {
      "channel": 5,
      "note": 65,
      "start": 305.0419,
      "duration": 0.0831,
      "velocity": 112,
      "chip": "ym2612"
    },
    {
      "channel": 0,
      "note": 40,
      "start": 305.1845,
      "duration": 0.6057,
      "velocity": 127,
      "chip": "ym2612"
    },
    {
      "channel": 1,
      "note": 77,
      "start": 305.1852,
      "duration": 0.117,
      "velocity": 110,
      "chip": "ym2612"
    },
    {
      "channel": 2,
      "note": 53,
      "start": 305.1859,
      "duration": 0.302,
      "velocity": 127,
      "chip": "ym2612"
    },
    {
      "channel": 3,
      "note": 41,
      "start": 305.1873,
      "duration": 0.1495,
      "velocity": 110,
      "chip": "ym2612"
    },
    {
      "channel": 4,
      "note": 65,
      "start": 305.1928,
      "duration": 0.1506,
      "velocity": 112,
      "chip": "ym2612"
    },
    {
      "channel": 5,
      "note": 65,
      "start": 305.1935,
      "duration": 0.0832,
      "velocity": 112,
      "chip": "ym2612"
    },
    {
      "channel": 1,
      "note": 65,
      "start": 305.3361,
      "duration": 0.1178,
      "velocity": 108,
      "chip": "ym2612"
    },
    {
      "channel": 3,
      "note": 43,
      "start": 305.3374,
      "duration": 0.1513,
      "velocity": 110,
      "chip": "ym2612"
    },
    {
      "channel": 4,
      "note": 65,
      "start": 305.3439,
      "duration": 0.1511,
      "velocity": 112,
      "chip": "ym2612"
    },
    {
      "channel": 5,
      "note": 65,
      "start": 305.3446,
      "duration": 0.0838,
      "velocity": 112,
      "chip": "ym2612"
    },
    {
      "channel": 1,
      "note": 65,
      "start": 305.4877,
      "duration": 0.1178,
      "velocity": 109,
      "chip": "ym2612"
    },
    {
      "channel": 2,
      "note": 53,
      "start": 305.4885,
      "duration": 0.1511,
      "velocity": 127,
      "chip": "ym2612"
    },
    {
      "channel": 3,
      "note": 44,
      "start": 305.4893,
      "duration": 0.1511,
      "velocity": 110,
      "chip": "ym2612"
    },
    {
      "channel": 4,
      "note": 65,
      "start": 305.4962,
      "duration": 0.1505,
      "velocity": 112,
      "chip": "ym2612"
    },
    {
      "channel": 5,
      "note": 65,
      "start": 305.4969,
      "duration": 0.0832,
      "velocity": 112,
      "chip": "ym2612"
    },
    {
      "channel": 1,
      "note": 77,
      "start": 305.6394,
      "duration": 0.1178,
      "velocity": 112,
      "chip": "ym2612"
    },
    {
      "channel": 2,
      "note": 53,
      "start": 305.6402,
      "duration": 0.1513,
      "velocity": 127,
      "chip": "ym2612"
    },
    {
      "channel": 3,
      "note": 46,
      "start": 305.641,
      "duration": 0.1513,
      "velocity": 110,
      "chip": "ym2612"
    },
    {
      "channel": 4,
      "note": 65,
      "start": 305.6478,
      "duration": 0.1505,
      "velocity": 112,
      "chip": "ym2612"
    },
    {
      "channel": 5,
      "note": 65,
      "start": 305.6485,
      "duration": 0.0833,
      "velocity": 112,
      "chip": "ym2612"
    },
    {
      "channel": 0,
      "note": 40,
      "start": 305.7907,
      "duration": 0.3028,
      "velocity": 127,
      "chip": "ym2612"
    },
    {
      "channel": 1,
      "note": 65,
      "start": 305.7913,
      "duration": 0.1175,
      "velocity": 108,
      "chip": "ym2612"
    },
    {
      "channel": 2,
      "note": 53,
      "start": 305.7922,
      "duration": 0.1508,
      "velocity": 127,
      "chip": "ym2612"
    },
    {
      "channel": 3,
      "note": 48,
      "start": 305.7929,
      "duration": 1.516,
      "velocity": 110,
      "chip": "ym2612"
    },
    {
      "channel": 4,
      "note": 65,
      "start": 305.7995,
      "duration": 0.1505,
      "velocity": 112,
      "chip": "ym2612"
    },
    {
      "channel": 5,
      "note": 7,
      "start": 305.8008,
      "duration": 2.4258,
      "velocity": 1,
      "chip": "ym2612"
    },
    {
      "channel": 1,
      "note": 77,
      "start": 305.9428,
      "duration": 0.1178,
      "velocity": 108,
      "chip": "ym2612"
    },
    {
      "channel": 2,
      "note": 53,
      "start": 305.9436,
      "duration": 0.3028,
      "velocity": 127,
      "chip": "ym2612"
    },
    {
      "channel": 4,
      "note": 65,
      "start": 305.9512,
      "duration": 0.1505,
      "velocity": 112,
      "chip": "ym2612"
    },
    {
      "channel": 0,
      "note": 41,
      "start": 306.0946,
      "duration": 0.3023,
      "velocity": 123,
      "chip": "ym2612"
    },
    {
      "channel": 1,
      "note": 77,
      "start": 306.0953,
      "duration": 0.1169,
      "velocity": 112,
      "chip": "ym2612"
    },
    {
      "channel": 4,
      "note": 65,
      "start": 306.1028,
      "duration": 0.1506,
      "velocity": 112,
      "chip": "ym2612"
    },
    {
      "channel": 1,
      "note": 65,
      "start": 306.2462,
      "duration": 0.1178,
      "velocity": 109,
      "chip": "ym2612"
    },
    {
      "channel": 2,
      "note": 53,
      "start": 306.2469,
      "duration": 0.1519,
      "velocity": 127,
      "chip": "ym2612"
    },
    {
      "channel": 4,
      "note": 65,
      "start": 306.2546,
      "duration": 0.1505,
      "velocity": 112,
      "chip": "ym2612"
    },
    {
      "channel": 0,
      "note": 40,
      "start": 306.3979,
      "duration": 0.3023,
      "velocity": 127,
      "chip": "ym2612"
    },
    {
      "channel": 1,
      "note": 77,
      "start": 306.3986,
      "duration": 0.1169,
      "velocity": 108,
      "chip": "ym2612"
    },
    {
      "channel": 2,
      "note": 53,
      "start": 306.3994,
      "duration": 0.3028,
      "velocity": 127,
      "chip": "ym2612"
    },
    {
      "channel": 4,
      "note": 65,
      "start": 306.4062,
      "duration": 0.1506,
      "velocity": 112,
      "chip": "ym2612"
    },
    {
      "channel": 1,
      "note": 65,
      "start": 306.5495,
      "duration": 0.1178,
      "velocity": 110,
      "chip": "ym2612"
    },
    {
      "channel": 4,
      "note": 65,
      "start": 306.5579,
      "duration": 0.1505,
      "velocity": 112,
      "chip": "ym2612"
    },
    {
      "channel": 0,
      "note": 41,
      "start": 306.7013,
      "duration": 0.3022,
      "velocity": 123,
      "chip": "ym2612"
    },
    {
      "channel": 1,
      "note": 65,
      "start": 306.702,
      "duration": 0.1169,
      "velocity": 109,
      "chip": "ym2612"
    },
    {
      "channel": 2,
      "note": 53,
      "start": 306.7028,
      "duration": 0.1503,
      "velocity": 127,
      "chip": "ym2612"
    },
    {
      "channel": 4,
      "note": 65,
      "start": 306.7096,
      "duration": 0.1505,
      "velocity": 112,
      "chip": "ym2612"
    },
    {
      "channel": 1,
      "note": 77,
      "start": 306.8528,
      "duration": 0.1178,
      "velocity": 111,
      "chip": "ym2612"
    },
    {
      "channel": 2,
      "note": 53,
      "start": 306.8536,
      "duration": 0.3029,
      "velocity": 127,
      "chip": "ym2612"
    },
    {
      "channel": 4,
      "note": 65,
      "start": 306.8613,
      "duration": 0.1505,
      "velocity": 112,
      "chip": "ym2612"
    },
    {
      "channel": 0,
      "note": 40,
      "start": 307.0047,
      "duration": 0.6056,
      "velocity": 127,
      "chip": "ym2612"
    },
    {
      "channel": 1,
      "note": 77,
      "start": 307.0053,
      "duration": 0.117,
      "velocity": 112,
      "chip": "ym2612"
    },
    {
      "channel": 4,
      "note": 65,
      "start": 307.0129,
      "duration": 0.1505,
      "velocity": 112,
      "chip": "ym2612"
    },
    {
      "channel": 1,
      "note": 65,
      "start": 307.1562,
      "duration": 0.1178,
      "velocity": 109,
      "chip": "ym2612"
    },
    {
      "channel": 2,
      "note": 53,
      "start": 307.1571,
      "duration": 0.1511,
      "velocity": 127,
      "chip": "ym2612"
    },
    {
      "channel": 4,
      "note": 65,
      "start": 307.1646,
      "duration": 0.1506,
      "velocity": 112,
      "chip": "ym2612"
    },
    {
      "channel": 1,
      "note": 77,
      "start": 307.3079,
      "duration": 0.1178,
      "velocity": 108,
      "chip": "ym2612"
    },
    {
      "channel": 2,
      "note": 53,
      "start": 307.3087,
      "duration": 0.303,
      "velocity": 127,
      "chip": "ym2612"
    },
    {
      "channel": 3,
      "note": 46,
      "start": 307.3095,
      "duration": 0.4544,
      "velocity": 110,
      "chip": "ym2612"
    },
    {
      "channel": 4,
      "note": 65,
      "start": 307.3158,
      "duration": 0.1511,
      "velocity": 112,
      "chip": "ym2612"
    },
    {
      "channel": 1,
      "note": 65,
      "start": 307.4596,
      "duration": 0.1177,
      "velocity": 112,
      "chip": "ym2612"
    },
    {
      "channel": 4,
      "note": 65,
      "start": 307.468,
      "duration": 0.1505,
      "velocity": 112,
      "chip": "ym2612"
    },
    {
      "channel": 0,
      "note": 40,
      "start": 307.6108,
      "duration": 0.3029,
      "velocity": 127,
      "chip": "ym2612"
    },
    {
      "channel": 1,
      "note": 65,
      "start": 307.6115,
      "duration": 0.1176,
      "velocity": 111,
      "chip": "ym2612"
    },
    {
      "channel": 2,
      "note": 53,
      "start": 307.6123,
      "duration": 0.1509,
      "velocity": 127,
      "chip": "ym2612"
    },
    {
      "channel": 4,
      "note": 65,
      "start": 307.6197,
      "duration": 0.1505,
      "velocity": 112,
      "chip": "ym2612"
    },
    {
      "channel": 1,
      "note": 77,
      "start": 307.7629,
      "duration": 0.1178,
      "velocity": 109,
      "chip": "ym2612"
    },
    {
      "channel": 2,
      "note": 53,
      "start": 307.7637,
      "duration": 0.3028,
      "velocity": 127,
      "chip": "ym2612"
    },
    {
      "channel": 3,
      "note": 48,
      "start": 307.7646,
      "duration": 0.4552,
      "velocity": 110,
      "chip": "ym2612"
    },
    {
      "channel": 4,
      "note": 65,
      "start": 307.7714,
      "duration": 0.1505,
      "velocity": 112,
      "chip": "ym2612"
    },
    {
      "channel": 0,
      "note": 41,
      "start": 307.9147,
      "duration": 0.3023,
      "velocity": 123,
      "chip": "ym2612"
    },
    {
      "channel": 1,
      "note": 65,
      "start": 307.9154,
      "duration": 0.1169,
      "velocity": 111,
      "chip": "ym2612"
    },
    {
      "channel": 4,
      "note": 65,
      "start": 307.9231,
      "duration": 0.1505,
      "velocity": 112,
      "chip": "ym2612"
    },
    {
      "channel": 1,
      "note": 65,
      "start": 308.0663,
      "duration": 0.1178,
      "velocity": 112,
      "chip": "ym2612"
    },
    {
      "channel": 2,
      "note": 53,
      "start": 308.0671,
      "duration": 0.1519,
      "velocity": 127,
      "chip": "ym2612"
    },
    {
      "channel": 4,
      "note": 65,
      "start": 308.0748,
      "duration": 0.1505,
      "velocity": 112,
      "chip": "ym2612"
    },
    {
      "channel": 0,
      "note": 40,
      "start": 308.2181,
      "duration": 0.3023,
      "velocity": 127,
      "chip": "ym2612"
    },
    {
      "channel": 1,
      "note": 65,
      "start": 308.2188,
      "duration": 0.1169,
      "velocity": 108,
      "chip": "ym2612"
    },
    {
      "channel": 2,
      "note": 53,
      "start": 308.2196,
      "duration": 0.3028,
      "velocity": 127,
      "chip": "ym2612"
    },
    {
      "channel": 3,
      "note": 48,
      "start": 308.2204,
      "duration": 1.516,
      "velocity": 110,
      "chip": "ym2612"
    },
    {
      "channel": 4,
      "note": 65,
      "start": 308.2264,
      "duration": 0.1505,
      "velocity": 112,
      "chip": "ym2612"
    },
    {
      "channel": 5,
      "note": 7,
      "start": 308.2271,
      "duration": 2.4264,
      "velocity": 1,
      "chip": "ym2612"
    },
    {
      "channel": 1,
      "note": 77,
      "start": 308.3696,
      "duration": 0.1178,
      "velocity": 108,
      "chip": "ym2612"
    },
    {
      "channel": 4,
      "note": 65,
      "start": 308.3781,
      "duration": 0.1505,
      "velocity": 112,
      "chip": "ym2612"
    },
    {
      "channel": 0,
      "note": 41,
      "start": 308.5215,
      "duration": 0.3023,
      "velocity": 123,
      "chip": "ym2612"
    },
    {
      "channel": 1,
      "note": 77,
      "start": 308.5222,
      "duration": 0.1169,
      "velocity": 112,
      "chip": "ym2612"
    },
    {
      "channel": 2,
      "note": 53,
      "start": 308.5229,
      "duration": 0.1503,
      "velocity": 127,
      "chip": "ym2612"
    },
    {
      "channel": 4,
      "note": 65,
      "start": 308.5298,
      "duration": 0.1505,
      "velocity": 112,
      "chip": "ym2612"
    },
    {
      "channel": 1,
      "note": 65,
      "start": 308.673,
      "duration": 0.1178,
      "velocity": 109,
      "chip": "ym2612"
    },
    {
      "channel": 2,
      "note": 53,
      "start": 308.6738,
      "duration": 0.3028,
      "velocity": 127,
      "chip": "ym2612"
    },
    {
      "channel": 4,
      "note": 65,
      "start": 308.6815,
      "duration": 0.1505,
      "velocity": 112,
      "chip": "ym2612"
    },
    {
      "channel": 0,
      "note": 40,
      "start": 308.8249,
      "duration": 0.6056,
      "velocity": 127,
      "chip": "ym2612"
    },
    {
      "channel": 1,
      "note": 77,
      "start": 308.8256,
      "duration": 0.1169,
      "velocity": 108,
      "chip": "ym2612"
    },
    {
      "channel": 4,
      "note": 65,
      "start": 308.8331,
      "duration": 0.1505,
      "velocity": 112,
      "chip": "ym2612"
    },
    {
      "channel": 1,
      "note": 65,
      "start": 308.9764,
      "duration": 0.1178,
      "velocity": 110,
      "chip": "ym2612"
    },
    {
      "channel": 2,
      "note": 53,
      "start": 308.9771,
      "duration": 0.1512,
      "velocity": 127,
      "chip": "ym2612"
    },
    {
      "channel": 4,
      "note": 65,
      "start": 308.9848,
      "duration": 0.1506,
      "velocity": 112,
      "chip": "ym2612"
    },
    {
      "channel": 1,
      "note": 65,
      "start": 309.1281,
      "duration": 0.1178,
      "velocity": 109,
      "chip": "ym2612"
    },
    {
      "channel": 2,
      "note": 53,
      "start": 309.1289,
      "duration": 0.303,
      "velocity": 127,
      "chip": "ym2612"
    },
    {
      "channel": 4,
      "note": 65,
      "start": 309.1365,
      "duration": 0.1505,
      "velocity": 112,
      "chip": "ym2612"
    },
    {
      "channel": 1,
      "note": 77,
      "start": 309.2798,
      "duration": 0.1178,
      "velocity": 111,
      "chip": "ym2612"
    },
    {
      "channel": 4,
      "note": 65,
      "start": 309.2881,
      "duration": 0.1506,
      "velocity": 112,
      "chip": "ym2612"
    },
    {
      "channel": 0,
      "note": 40,
      "start": 309.431,
      "duration": 0.3029,
      "velocity": 127,
      "chip": "ym2612"
    },
    {
      "channel": 1,
      "note": 77,
      "start": 309.4317,
      "duration": 0.1176,
      "velocity": 112,
      "chip": "ym2612"
    },
    {
      "channel": 2,
      "note": 53,
      "start": 309.4324,
      "duration": 0.1509,
      "velocity": 127,
      "chip": "ym2612"
    },
    {
      "channel": 4,
      "note": 65,
      "start": 309.4399,
      "duration": 0.1505,
      "velocity": 112,
      "chip": "ym2612"
    },
    {
      "channel": 1,
      "note": 65,
      "start": 309.5831,
      "duration": 0.1177,
      "velocity": 109,
      "chip": "ym2612"
    },
    {
      "channel": 2,
      "note": 53,
      "start": 309.5839,
      "duration": 0.3028,
      "velocity": 127,
      "chip": "ym2612"
    },
    {
      "channel": 4,
      "note": 65,
      "start": 309.5915,
      "duration": 0.1506,
      "velocity": 112,
      "chip": "ym2612"
    },
    {
      "channel": 0,
      "note": 41,
      "start": 309.7349,
      "duration": 0.3023,
      "velocity": 123,
      "chip": "ym2612"
    },
    {
      "channel": 1,
      "note": 77,
      "start": 309.7356,
      "duration": 0.117,
      "velocity": 108,
      "chip": "ym2612"
    },
    {
      "channel": 3,
      "note": 41,
      "start": 309.737,
      "duration": 0.3029,
      "velocity": 110,
      "chip": "ym2612"
    },
    {
      "channel": 4,
      "note": 65,
      "start": 309.7427,
      "duration": 0.1511,
      "velocity": 112,
      "chip": "ym2612"
    },
    {
      "channel": 1,
      "note": 65,
      "start": 309.8865,
      "duration": 0.1178,
      "velocity": 112,
      "chip": "ym2612"
    },
    {
      "channel": 2,
      "note": 53,
      "start": 309.8873,
      "duration": 0.1519,
      "velocity": 127,
      "chip": "ym2612"
    },
    {
      "channel": 4,
      "note": 65,
      "start": 309.8949,
      "duration": 0.1505,
      "velocity": 112,
      "chip": "ym2612"
    },
    {
      "channel": 0,
      "note": 40,
      "start": 310.0383,
      "duration": 0.6057,
      "velocity": 127,
      "chip": "ym2612"
    },
    {
      "channel": 1,
      "note": 65,
      "start": 310.039,
      "duration": 0.1169,
      "velocity": 111,
      "chip": "ym2612"
    },
    {
      "channel": 2,
      "note": 53,
      "start": 310.0398,
      "duration": 0.302,
      "velocity": 127,
      "chip": "ym2612"
    },
    {
      "channel": 3,
      "note": 44,
      "start": 310.0406,
      "duration": 0.302,
      "velocity": 110,
      "chip": "ym2612"
    },
    {
      "channel": 4,
      "note": 65,
      "start": 310.0466,
      "duration": 0.1505,
      "velocity": 112,
      "chip": "ym2612"
    },
    {
      "channel": 1,
      "note": 77,
      "start": 310.1899,
      "duration": 0.1178,
      "velocity": 109,
      "chip": "ym2612"
    },
    {
      "channel": 4,
      "note": 65,
      "start": 310.1983,
      "duration": 0.1505,
      "velocity": 112,
      "chip": "ym2612"
    },
    {
      "channel": 1,
      "note": 65,
      "start": 310.3415,
      "duration": 0.1178,
      "velocity": 111,
      "chip": "ym2612"
    },
    {
      "channel": 2,
      "note": 53,
      "start": 310.3423,
      "duration": 0.1511,
      "velocity": 127,
      "chip": "ym2612"
    },
    {
      "channel": 3,
      "note": 46,
      "start": 310.3431,
      "duration": 0.303,
      "velocity": 110,
      "chip": "ym2612"
    },
    {
      "channel": 4,
      "note": 65,
      "start": 310.3499,
      "duration": 0.1506,
      "velocity": 112,
      "chip": "ym2612"
    },
    {
      "channel": 1,
      "note": 65,
      "start": 310.4932,
      "duration": 0.1178,
      "velocity": 112,
      "chip": "ym2612"
    },
    {
      "channel": 2,
      "note": 53,
      "start": 310.494,
      "duration": 0.1513,
      "velocity": 127,
      "chip": "ym2612"
    },
    {
      "channel": 4,
      "note": 65,
      "start": 310.5016,
      "duration": 0.1505,
      "velocity": 112,
      "chip": "ym2612"
    },
    {
      "channel": 0,
      "note": 40,
      "start": 310.6444,
      "duration": 0.3029,
      "velocity": 127,
      "chip": "ym2612"
    },
    {
      "channel": 1,
      "note": 63,
      "start": 310.6451,
      "duration": 0.1175,
      "velocity": 108,
      "chip": "ym2612"
    },
    {
      "channel": 2,
      "note": 51,
      "start": 310.6459,
      "duration": 0.1509,
      "velocity": 127,
      "chip": "ym2612"
    },
    {
      "channel": 3,
      "note": 46,
      "start": 310.6467,
      "duration": 1.516,
      "velocity": 110,
      "chip": "ym2612"
    },
    {
      "channel": 4,
      "note": 63,
      "start": 310.6533,
      "duration": 0.1505,
      "velocity": 112,
      "chip": "ym2612"
    },
    {
      "channel": 5,
      "note": 7,
      "start": 310.6541,
      "duration": 2.4264,
      "velocity": 1,
      "chip": "ym2612"
    },
    {
      "channel": 1,
      "note": 75,
      "start": 310.7966,
      "duration": 0.1178,
      "velocity": 108,
      "chip": "ym2612"
    },
    {
      "channel": 2,
      "note": 51,
      "start": 310.7973,
      "duration": 0.3029,
      "velocity": 127,
      "chip": "ym2612"
    },
    {
      "channel": 4,
      "note": 63,
      "start": 310.805,
      "duration": 0.1505,
      "velocity": 112,
      "chip": "ym2612"
    },
    {
      "channel": 0,
      "note": 41,
      "start": 310.9484,
      "duration": 0.3022,
      "velocity": 123,
      "chip": "ym2612"
    },
    {
      "channel": 1,
      "note": 75,
      "start": 310.9491,
      "duration": 0.1169,
      "velocity": 112,
      "chip": "ym2612"
    },
    {
      "channel": 4,
      "note": 63,
      "start": 310.9567,
      "duration": 0.1505,
      "velocity": 112,
      "chip": "ym2612"
    },
    {
      "channel": 1,
      "note": 63,
      "start": 311.0999,
      "duration": 0.1178,
      "velocity": 109,
      "chip": "ym2612"
    },
    {
      "channel": 2,
      "note": 51,
      "start": 311.1007,
      "duration": 0.152,
      "velocity": 127,
      "chip": "ym2612"
    },
    {
      "channel": 4,
      "note": 63,
      "start": 311.1084,
      "duration": 0.1505,
      "velocity": 112,
      "chip": "ym2612"
    },
    {
      "channel": 0,
      "note": 40,
      "start": 311.2518,
      "duration": 0.3022,
      "velocity": 127,
      "chip": "ym2612"
    },
    {
      "channel": 1,
      "note": 75,
      "start": 311.2524,
      "duration": 0.117,
      "velocity": 108,
      "chip": "ym2612"
    },
    {
      "channel": 2,
      "note": 51,
      "start": 311.2532,
      "duration": 0.3028,
      "velocity": 127,
      "chip": "ym2612"
    },
    {
      "channel": 4,
      "note": 63,
      "start": 311.26,
      "duration": 0.1505,
      "velocity": 112,
      "chip": "ym2612"
    },
    {
      "channel": 1,
      "note": 63,
      "start": 311.4033,
      "duration": 0.1178,
      "velocity": 110,
      "chip": "ym2612"
    },
    {
      "channel": 4,
      "note": 63,
      "start": 311.4117,
      "duration": 0.1506,
      "velocity": 112,
      "chip": "ym2612"
    },
    {
      "channel": 0,
      "note": 41,
      "start": 311.5551,
      "duration": 0.3023,
      "velocity": 123,
      "chip": "ym2612"
    },
    {
      "channel": 1,
      "note": 63,
      "start": 311.5558,
      "duration": 0.117,
      "velocity": 109,
      "chip": "ym2612"
    },
    {
      "channel": 2,
      "note": 51,
      "start": 311.5565,
      "duration": 0.1504,
      "velocity": 127,
      "chip": "ym2612"
    },
    {
      "channel": 4,
      "note": 63,
      "start": 311.5634,
      "duration": 0.1505,
      "velocity": 112,
      "chip": "ym2612"
    },
    {
      "channel": 1,
      "note": 75,
      "start": 311.7067,
      "duration": 0.1178,
      "velocity": 111,
      "chip": "ym2612"
    },
    {
      "channel": 2,
      "note": 51,
      "start": 311.7075,
      "duration": 0.3027,
      "velocity": 127,
      "chip": "ym2612"
    },
    {
      "channel": 4,
      "note": 63,
      "start": 311.7151,
      "duration": 0.1505,
      "velocity": 112,
      "chip": "ym2612"
    },
    {
      "channel": 0,
      "note": 40,
      "start": 311.8584,
      "duration": 0.6057,
      "velocity": 127,
      "chip": "ym2612"
    },
    {
      "channel": 1,
      "note": 75,
      "start": 311.8591,
      "duration": 0.117,
      "velocity": 112,
      "chip": "ym2612"
    },
    {
      "channel": 4,
      "note": 63,
      "start": 311.8668,
      "duration": 0.1505,
      "velocity": 112,
      "chip": "ym2612"
    },
    {
      "channel": 1,
      "note": 63,
      "start": 312.01,
      "duration": 0.1178,
      "velocity": 109,
      "chip": "ym2612"
    },
    {
      "channel": 2,
      "note": 51,
      "start": 312.0108,
      "duration": 0.1512,
      "velocity": 127,
      "chip": "ym2612"
    },
    {
      "channel": 4,
      "note": 63,
      "start": 312.0184,
      "duration": 0.1506,
      "velocity": 112,
      "chip": "ym2612"
    },
    {
      "channel": 1,
      "note": 75,
      "start": 312.1617,
      "duration": 0.1178,
      "velocity": 108,
      "chip": "ym2612"
    },
    {
      "channel": 2,
      "note": 51,
      "start": 312.1624,
      "duration": 0.3031,
      "velocity": 127,
      "chip": "ym2612"
    },
    {
      "channel": 3,
      "note": 44,
      "start": 312.1633,
      "duration": 0.4544,
      "velocity": 110,
      "chip": "ym2612"
    },
    {
      "channel": 4,
      "note": 63,
      "start": 312.1695,
      "duration": 0.1512,
      "velocity": 112,
      "chip": "ym2612"
    },
    {
      "channel": 1,
      "note": 63,
      "start": 312.3134,
      "duration": 0.1178,
      "velocity": 112,
      "chip": "ym2612"
    },
    {
      "channel": 4,
      "note": 63,
      "start": 312.3218,
      "duration": 0.1505,
      "velocity": 112,
      "chip": "ym2612"
    },
    {
      "channel": 0,
      "note": 40,
      "start": 312.4646,
      "duration": 0.3029,
      "velocity": 127,
      "chip": "ym2612"
    },
    {
      "channel": 1,
      "note": 63,
      "start": 312.4653,
      "duration": 0.1175,
      "velocity": 111,
      "chip": "ym2612"
    },
    {
      "channel": 2,
      "note": 51,
      "start": 312.4661,
      "duration": 0.1509,
      "velocity": 127,
      "chip": "ym2612"
    },
    {
      "channel": 4,
      "note": 63,
      "start": 312.4735,
      "duration": 0.1505,
      "velocity": 112,
      "chip": "ym2612"
    },
    {
      "channel": 1,
      "note": 75,
      "start": 312.6167,
      "duration": 0.1178,
      "velocity": 109,
      "chip": "ym2612"
    },
    {
      "channel": 2,
      "note": 51,
      "start": 312.6175,
      "duration": 0.3028,
      "velocity": 127,
      "chip": "ym2612"
    },
    {
      "channel": 3,
      "note": 45,
      "start": 312.6183,
      "duration": 0.4554,
      "velocity": 110,
      "chip": "ym2612"
    },
    {
      "channel": 4,
      "note": 63,
      "start": 312.6252,
      "duration": 0.1505,
      "velocity": 112,
      "chip": "ym2612"
    },
    {
      "channel": 0,
      "note": 41,
      "start": 312.7685,
      "duration": 0.3023,
      "velocity": 123,
      "chip": "ym2612"
    },
    {
      "channel": 1,
      "note": 63,
      "start": 312.7693,
      "duration": 0.1169,
      "velocity": 111,
      "chip": "ym2612"
    },
    {
      "channel": 4,
      "note": 63,
      "start": 312.7768,
      "duration": 0.1505,
      "velocity": 112,
      "chip": "ym2612"
    },
    {
      "channel": 1,
      "note": 63,
      "start": 312.9201,
      "duration": 0.1177,
      "velocity": 112,
      "chip": "ym2612"
    },
    {
      "channel": 2,
      "note": 51,
      "start": 312.9209,
      "duration": 0.1519,
      "velocity": 127,
      "chip": "ym2612"
    },
    {
      "channel": 4,
      "note": 63,
      "start": 312.9285,
      "duration": 0.1505,
      "velocity": 112,
      "chip": "ym2612"
    },
    {
      "channel": 0,
      "note": 40,
      "start": 313.0719,
      "duration": 0.3022,
      "velocity": 127,
      "chip": "ym2612"
    },
    {
      "channel": 1,
      "note": 65,
      "start": 313.0726,
      "duration": 0.1169,
      "velocity": 108,
      "chip": "ym2612"
    },
    {
      "channel": 2,
      "note": 53,
      "start": 313.0734,
      "duration": 0.3028,
      "velocity": 127,
      "chip": "ym2612"
    },
    {
      "channel": 3,
      "note": 44,
      "start": 313.0742,
      "duration": 1.8195,
      "velocity": 110,
      "chip": "ym2612"
    },
    {
      "channel": 4,
      "note": 65,
      "start": 313.0802,
      "duration": 0.1505,
      "velocity": 112,
      "chip": "ym2612"
    },
    {
      "channel": 5,
      "note": 7,
      "start": 313.0809,
      "duration": 2.4265,
      "velocity": 1,
      "chip": "ym2612"
    },
    {
      "channel": 1,
      "note": 77,
      "start": 313.2235,
      "duration": 0.1178,
      "velocity": 108,
      "chip": "ym2612"
    },
    {
      "channel": 4,
      "note": 65,
      "start": 313.2319,
      "duration": 0.1506,
      "velocity": 112,
      "chip": "ym2612"
    },
    {
      "channel": 0,
      "note": 41,
      "start": 313.3753,
      "duration": 0.3022,
      "velocity": 123,
      "chip": "ym2612"
    },
    {
      "channel": 1,
      "note": 77,
      "start": 313.3759,
      "duration": 0.117,
      "velocity": 112,
      "chip": "ym2612"
    },
    {
      "channel": 2,
      "note": 53,
      "start": 313.3768,
      "duration": 0.1502,
      "velocity": 127,
      "chip": "ym2612"
    },
    {
      "channel": 4,
      "note": 65,
      "start": 313.3836,
      "duration": 0.1505,
      "velocity": 112,
      "chip": "ym2612"
    },
    {
      "channel": 1,
      "note": 65,
      "start": 313.5268,
      "duration": 0.1178,
      "velocity": 109,
      "chip": "ym2612"
    },
    {
      "channel": 2,
      "note": 53,
      "start": 313.5276,
      "duration": 0.3028,
      "velocity": 127,
      "chip": "ym2612"
    },
    {
      "channel": 4,
      "note": 65,
      "start": 313.5352,
      "duration": 0.1505,
      "velocity": 112,
      "chip": "ym2612"
    },
    {
      "channel": 0,
      "note": 40,
      "start": 313.6786,
      "duration": 0.6057,
      "velocity": 127,
      "chip": "ym2612"
    },
    {
      "channel": 1,
      "note": 77,
      "start": 313.6793,
      "duration": 0.117,
      "velocity": 108,
      "chip": "ym2612"
    },
    {
      "channel": 4,
      "note": 65,
      "start": 313.6869,
      "duration": 0.1505,
      "velocity": 112,
      "chip": "ym2612"
    },
    {
      "channel": 1,
      "note": 65,
      "start": 313.8302,
      "duration": 0.1177,
      "velocity": 110,
      "chip": "ym2612"
    },
    {
      "channel": 2,
      "note": 53,
      "start": 313.831,
      "duration": 0.1512,
      "velocity": 127,
      "chip": "ym2612"
    },
    {
      "channel": 4,
      "note": 65,
      "start": 313.8386,
      "duration": 0.1505,
      "velocity": 112,
      "chip": "ym2612"
    },
    {
      "channel": 1,
      "note": 65,
      "start": 313.9819,
      "duration": 0.1178,
      "velocity": 109,
      "chip": "ym2612"
    },
    {
      "channel": 2,
      "note": 53,
      "start": 313.9826,
      "duration": 0.3031,
      "velocity": 127,
      "chip": "ym2612"
    },
    {
      "channel": 4,
      "note": 65,
      "start": 313.9903,
      "duration": 0.1505,
      "velocity": 112,
      "chip": "ym2612"
    },
    {
      "channel": 1,
      "note": 77,
      "start": 314.1336,
      "duration": 0.1178,
      "velocity": 111,
      "chip": "ym2612"
    },
    {
      "channel": 4,
      "note": 65,
      "start": 314.142,
      "duration": 0.1505,
      "velocity": 112,
      "chip": "ym2612"
    },
    {
      "channel": 0,
      "note": 40,
      "start": 314.2848,
      "duration": 0.3029,
      "velocity": 127,
      "chip": "ym2612"
    },
    {
      "channel": 1,
      "note": 77,
      "start": 314.2855,
      "duration": 0.1175,
      "velocity": 112,
      "chip": "ym2612"
    },
    {
      "channel": 2,
      "note": 53,
      "start": 314.2862,
      "duration": 0.1509,
      "velocity": 127,
      "chip": "ym2612"
    },
    {
      "channel": 4,
      "note": 65,
      "start": 314.2936,
      "duration": 0.1506,
      "velocity": 112,
      "chip": "ym2612"
    },
    {
      "channel": 1,
      "note": 65,
      "start": 314.4369,
      "duration": 0.1178,
      "velocity": 109,
      "chip": "ym2612"
    },
    {
      "channel": 2,
      "note": 53,
      "start": 314.4377,
      "duration": 0.3029,
      "velocity": 127,
      "chip": "ym2612"
    },
    {
      "channel": 4,
      "note": 65,
      "start": 314.4453,
      "duration": 0.1506,
      "velocity": 112,
      "chip": "ym2612"
    },
    {
      "channel": 0,
      "note": 41,
      "start": 314.5887,
      "duration": 0.3023,
      "velocity": 123,
      "chip": "ym2612"
    },
    {
      "channel": 1,
      "note": 77,
      "start": 314.5894,
      "duration": 0.1169,
      "velocity": 108,
      "chip": "ym2612"
    },
    {
      "channel": 4,
      "note": 65,
      "start": 314.5964,
      "duration": 0.1512,
      "velocity": 112,
      "chip": "ym2612"
    },
    {
      "channel": 1,
      "note": 65,
      "start": 314.7403,
      "duration": 0.1177,
      "velocity": 112,
      "chip": "ym2612"
    },
    {
      "channel": 2,
      "note": 53,
      "start": 314.7411,
      "duration": 0.1519,
      "velocity": 127,
      "chip": "ym2612"
    },
    {
      "channel": 4,
      "note": 65,
      "start": 314.7487,
      "duration": 0.1505,
      "velocity": 112,
      "chip": "ym2612"
    },
    {
      "channel": 0,
      "note": 40,
      "start": 314.8921,
      "duration": 0.6057,
      "velocity": 127,
      "chip": "ym2612"
    },
    {
      "channel": 1,
      "note": 65,
      "start": 314.8928,
      "duration": 0.1169,
      "velocity": 111,
      "chip": "ym2612"
    },
    {
      "channel": 2,
      "note": 53,
      "start": 314.8936,
      "duration": 0.302,
      "velocity": 127,
      "chip": "ym2612"
    },
    {
      "channel": 3,
      "note": 41,
      "start": 314.8944,
      "duration": 0.15,
      "velocity": 110,
      "chip": "ym2612"
    },
    {
      "channel": 4,
      "note": 65,
      "start": 314.9004,
      "duration": 0.1505,
      "velocity": 112,
      "chip": "ym2612"
    },
    {
      "channel": 1,
      "note": 77,
      "start": 315.0436,
      "duration": 0.1177,
      "velocity": 109,
      "chip": "ym2612"
    },
    {
      "channel": 3,
      "note": 43,
      "start": 315.045,
      "duration": 0.1513,
      "velocity": 110,
      "chip": "ym2612"
    },
    {
      "channel": 4,
      "note": 65,
      "start": 315.0521,
      "duration": 0.1505,
      "velocity": 112,
      "chip": "ym2612"
    },
    {
      "channel": 1,
      "note": 65,
      "start": 315.1953,
      "duration": 0.1178,
      "velocity": 111,
      "chip": "ym2612"
    },
    {
      "channel": 2,
      "note": 53,
      "start": 315.1961,
      "duration": 0.1512,
      "velocity": 127,
      "chip": "ym2612"
    },
    {
      "channel": 3,
      "note": 44,
      "start": 315.1969,
      "duration": 0.1511,
      "velocity": 110,
      "chip": "ym2612"
    },
    {
      "channel": 4,
      "note": 65,
      "start": 315.2037,
      "duration": 0.1505,
      "velocity": 112,
      "chip": "ym2612"
    },
    {
      "channel": 1,
      "note": 65,
      "start": 315.347,
      "duration": 0.1178,
      "velocity": 112,
      "chip": "ym2612"
    },
    {
      "channel": 2,
      "note": 53,
      "start": 315.3478,
      "duration": 0.1514,
      "velocity": 127,
      "chip": "ym2612"
    },
    {
      "channel": 3,
      "note": 44,
      "start": 315.3486,
      "duration": 0.1513,
      "velocity": 110,
      "chip": "ym2612"
    },
    {
      "channel": 4,
      "note": 65,
      "start": 315.3554,
      "duration": 0.1506,
      "velocity": 112,
      "chip": "ym2612"
    },
    {
      "channel": 0,
      "note": 40,
      "start": 315.4983,
      "duration": 0.3028,
      "velocity": 127,
      "chip": "ym2612"
    },
    {
      "channel": 1,
      "note": 65,
      "start": 315.4989,
      "duration": 0.1176,
      "velocity": 108,
      "chip": "ym2612"
    },
    {
      "channel": 2,
      "note": 53,
      "start": 315.4997,
      "duration": 0.1508,
      "velocity": 127,
      "chip": "ym2612"
    },
    {
      "channel": 3,
      "note": 48,
      "start": 315.5005,
      "duration": 1.516,
      "velocity": 110,
      "chip": "ym2612"
    },
    {
      "channel": 4,
      "note": 65,
      "start": 315.5072,
      "duration": 0.1505,
      "velocity": 112,
      "chip": "ym2612"
    },
    {
      "channel": 5,
      "note": 7,
      "start": 315.5079,
      "duration": 2.4264,
      "velocity": 1,
      "chip": "ym2612"
    },
    {
      "channel": 1,
      "note": 77,
      "start": 315.6504,
      "duration": 0.1178,
      "velocity": 108,
      "chip": "ym2612"
    },
    {
      "channel": 2,
      "note": 53,
      "start": 315.6511,
      "duration": 0.3028,
      "velocity": 127,
      "chip": "ym2612"
    },
    {
      "channel": 4,
      "note": 65,
      "start": 315.6588,
      "duration": 0.1505,
      "velocity": 112,
      "chip": "ym2612"
    },
    {
      "channel": 0,
      "note": 41,
      "start": 315.8022,
      "duration": 0.3023,
      "velocity": 123,
      "chip": "ym2612"
    },
    {
      "channel": 1,
      "note": 77,
      "start": 315.8028,
      "duration": 0.117,
      "velocity": 112,
      "chip": "ym2612"
    },
    {
      "channel": 4,
      "note": 65,
      "start": 315.8105,
      "duration": 0.1505,
      "velocity": 112,
      "chip": "ym2612"
    },
    {
      "channel": 1,
      "note": 65,
      "start": 315.9537,
      "duration": 0.1177,
      "velocity": 109,
      "chip": "ym2612"
    },
    {
      "channel": 2,
      "note": 53,
      "start": 315.9545,
      "duration": 0.1519,
      "velocity": 127,
      "chip": "ym2612"
    },
    {
      "channel": 4,
      "note": 65,
      "start": 315.9621,
      "duration": 0.1505,
      "velocity": 112,
      "chip": "ym2612"
    },
    {
      "channel": 0,
      "note": 40,
      "start": 316.1055,
      "duration": 0.3023,
      "velocity": 127,
      "chip": "ym2612"
    },
    {
      "channel": 1,
      "note": 77,
      "start": 316.1062,
      "duration": 0.117,
      "velocity": 108,
      "chip": "ym2612"
    },
    {
      "channel": 2,
      "note": 53,
      "start": 316.1071,
      "duration": 0.3027,
      "velocity": 127,
      "chip": "ym2612"
    },
    {
      "channel": 4,
      "note": 65,
      "start": 316.1139,
      "duration": 0.1505,
      "velocity": 112,
      "chip": "ym2612"
    },
    {
      "channel": 1,
      "note": 65,
      "start": 316.2571,
      "duration": 0.1178,
      "velocity": 110,
      "chip": "ym2612"
    },
    {
      "channel": 4,
      "note": 65,
      "start": 316.2655,
      "duration": 0.1505,
      "velocity": 112,
      "chip": "ym2612"
    },
    {
      "channel": 0,
      "note": 41,
      "start": 316.4089,
      "duration": 0.3023,
      "velocity": 123,
      "chip": "ym2612"
    },
    {
      "channel": 1,
      "note": 65,
      "start": 316.4096,
      "duration": 0.1169,
      "velocity": 109,
      "chip": "ym2612"
    },
    {
      "channel": 2,
      "note": 53,
      "start": 316.4103,
      "duration": 0.1503,
      "velocity": 127,
      "chip": "ym2612"
    },
    {
      "channel": 4,
      "note": 65,
      "start": 316.4172,
      "duration": 0.1505,
      "velocity": 112,
      "chip": "ym2612"
    },
    {
      "channel": 1,
      "note": 77,
      "start": 316.5604,
      "duration": 0.1178,
      "velocity": 111,
      "chip": "ym2612"
    },
    {
      "channel": 2,
      "note": 53,
      "start": 316.5612,
      "duration": 0.3028,
      "velocity": 127,
      "chip": "ym2612"
    },
    {
      "channel": 4,
      "note": 65,
      "start": 316.5689,
      "duration": 0.1505,
      "velocity": 112,
      "chip": "ym2612"
    },
    {
      "channel": 0,
      "note": 40,
      "start": 316.7123,
      "duration": 0.6056,
      "velocity": 127,
      "chip": "ym2612"
    },
    {
      "channel": 1,
      "note": 77,
      "start": 316.7129,
      "duration": 0.1169,
      "velocity": 112,
      "chip": "ym2612"
    },
    {
      "channel": 4,
      "note": 65,
      "start": 316.7205,
      "duration": 0.1505,
      "velocity": 112,
      "chip": "ym2612"
    },
    {
      "channel": 1,
      "note": 65,
      "start": 316.8638,
      "duration": 0.1178,
      "velocity": 109,
      "chip": "ym2612"
    },
    {
      "channel": 2,
      "note": 53,
      "start": 316.8646,
      "duration": 0.1511,
      "velocity": 127,
      "chip": "ym2612"
    },
    {
      "channel": 4,
      "note": 65,
      "start": 316.8722,
      "duration": 0.1505,
      "velocity": 112,
      "chip": "ym2612"
    },
    {
      "channel": 1,
      "note": 77,
      "start": 317.0155,
      "duration": 0.1177,
      "velocity": 108,
      "chip": "ym2612"
    },
    {
      "channel": 2,
      "note": 53,
      "start": 317.0163,
      "duration": 0.3031,
      "velocity": 127,
      "chip": "ym2612"
    },
    {
      "channel": 3,
      "note": 46,
      "start": 317.0171,
      "duration": 0.4544,
      "velocity": 110,
      "chip": "ym2612"
    },
    {
      "channel": 4,
      "note": 65,
      "start": 317.0233,
      "duration": 0.1511,
      "velocity": 112,
      "chip": "ym2612"
    },
    {
      "channel": 1,
      "note": 65,
      "start": 317.1672,
      "duration": 0.1177,
      "velocity": 112,
      "chip": "ym2612"
    },
    {
      "channel": 4,
      "note": 65,
      "start": 317.1756,
      "duration": 0.1505,
      "velocity": 112,
      "chip": "ym2612"
    },
    {
      "channel": 0,
      "note": 40,
      "start": 317.3184,
      "duration": 0.3028,
      "velocity": 127,
      "chip": "ym2612"
    },
    {
      "channel": 1,
      "note": 65,
      "start": 317.3191,
      "duration": 0.1176,
      "velocity": 111,
      "chip": "ym2612"
    },
    {
      "channel": 2,
      "note": 53,
      "start": 317.3199,
      "duration": 0.1509,
      "velocity": 127,
      "chip": "ym2612"
    },
    {
      "channel": 4,
      "note": 65,
      "start": 317.3273,
      "duration": 0.1505,
      "velocity": 112,
      "chip": "ym2612"
    },
    {
      "channel": 1,
      "note": 77,
      "start": 317.4705,
      "duration": 0.1178,
      "velocity": 109,
      "chip": "ym2612"
    },
    {
      "channel": 2,
      "note": 53,
      "start": 317.4713,
      "duration": 0.3029,
      "velocity": 127,
      "chip": "ym2612"
    },
    {
      "channel": 3,
      "note": 48,
      "start": 317.4721,
      "duration": 0.4553,
      "velocity": 110,
      "chip": "ym2612"
    },
    {
      "channel": 4,
      "note": 65,
      "start": 317.4789,
      "duration": 0.1506,
      "velocity": 112,
      "chip": "ym2612"
    },
    {
      "channel": 0,
      "note": 41,
      "start": 317.6223,
      "duration": 0.3023,
      "velocity": 123,
      "chip": "ym2612"
    },
    {
      "channel": 1,
      "note": 65,
      "start": 317.623,
      "duration": 0.117,
      "velocity": 111,
      "chip": "ym2612"
    },
    {
      "channel": 4,
      "note": 65,
      "start": 317.6306,
      "duration": 0.1505,
      "velocity": 112,
      "chip": "ym2612"
    },
    {
      "channel": 1,
      "note": 65,
      "start": 317.774,
      "duration": 0.1177,
      "velocity": 112,
      "chip": "ym2612"
    },
    {
      "channel": 2,
      "note": 53,
      "start": 317.7747,
      "duration": 0.1519,
      "velocity": 127,
      "chip": "ym2612"
    },
    {
      "channel": 4,
      "note": 65,
      "start": 317.7823,
      "duration": 0.1505,
      "velocity": 112,
      "chip": "ym2612"
    },
    {
      "channel": 0,
      "note": 40,
      "start": 317.9257,
      "duration": 0.3023,
      "velocity": 127,
      "chip": "ym2612"
    },
    {
      "channel": 1,
      "note": 65,
      "start": 317.9264,
      "duration": 0.117,
      "velocity": 108,
      "chip": "ym2612"
    },
    {
      "channel": 2,
      "note": 53,
      "start": 317.9271,
      "duration": 0.3028,
      "velocity": 127,
      "chip": "ym2612"
    },
    {
      "channel": 3,
      "note": 53,
      "start": 317.928,
      "duration": 1.516,
      "velocity": 110,
      "chip": "ym2612"
    },
    {
      "channel": 4,
      "note": 65,
      "start": 317.934,
      "duration": 0.1505,
      "velocity": 112,
      "chip": "ym2612"
    },
    {
      "channel": 5,
      "note": 7,
      "start": 317.9347,
      "duration": 2.4264,
      "velocity": 1,
      "chip": "ym2612"
    },
    {
      "channel": 1,
      "note": 77,
      "start": 318.0773,
      "duration": 0.1177,
      "velocity": 108,
      "chip": "ym2612"
    },
    {
      "channel": 4,
      "note": 65,
      "start": 318.0857,
      "duration": 0.1505,
      "velocity": 112,
      "chip": "ym2612"
    },
    {
      "channel": 0,
      "note": 41,
      "start": 318.229,
      "duration": 0.3023,
      "velocity": 123,
      "chip": "ym2612"
    },
    {
      "channel": 1,
      "note": 77,
      "start": 318.2298,
      "duration": 0.1169,
      "velocity": 112,
      "chip": "ym2612"
    },
    {
      "channel": 2,
      "note": 53,
      "start": 318.2305,
      "duration": 0.1503,
      "velocity": 127,
      "chip": "ym2612"
    },
    {
      "channel": 4,
      "note": 65,
      "start": 318.2374,
      "duration": 0.1505,
      "velocity": 112,
      "chip": "ym2612"
    },
    {
      "channel": 1,
      "note": 65,
      "start": 318.3806,
      "duration": 0.1178,
      "velocity": 109,
      "chip": "ym2612"
    },
    {
      "channel": 2,
      "note": 53,
      "start": 318.3814,
      "duration": 0.3028,
      "velocity": 127,
      "chip": "ym2612"
    },
    {
      "channel": 4,
      "note": 65,
      "start": 318.389,
      "duration": 0.1505,
      "velocity": 112,
      "chip": "ym2612"
    },
    {
      "channel": 0,
      "note": 40,
      "start": 318.5324,
      "duration": 0.6057,
      "velocity": 127,
      "chip": "ym2612"
    },
    {
      "channel": 1,
      "note": 77,
      "start": 318.5331,
      "duration": 0.1169,
      "velocity": 108,
      "chip": "ym2612"
    },
    {
      "channel": 4,
      "note": 65,
      "start": 318.5407,
      "duration": 0.1505,
      "velocity": 112,
      "chip": "ym2612"
    },
    {
      "channel": 1,
      "note": 65,
      "start": 318.6839,
      "duration": 0.1178,
      "velocity": 110,
      "chip": "ym2612"
    },
    {
      "channel": 2,
      "note": 53,
      "start": 318.6848,
      "duration": 0.1511,
      "velocity": 127,
      "chip": "ym2612"
    },
    {
      "channel": 4,
      "note": 65,
      "start": 318.6924,
      "duration": 0.1505,
      "velocity": 112,
      "chip": "ym2612"
    },
    {
      "channel": 1,
      "note": 65,
      "start": 318.8357,
      "duration": 0.1178,
      "velocity": 109,
      "chip": "ym2612"
    },
    {
      "channel": 2,
      "note": 53,
      "start": 318.8364,
      "duration": 0.303,
      "velocity": 127,
      "chip": "ym2612"
    },
    {
      "channel": 4,
      "note": 65,
      "start": 318.8441,
      "duration": 0.1505,
      "velocity": 112,
      "chip": "ym2612"
    },
    {
      "channel": 1,
      "note": 77,
      "start": 318.9873,
      "duration": 0.1178,
      "velocity": 111,
      "chip": "ym2612"
    },
    {
      "channel": 4,
      "note": 65,
      "start": 318.9958,
      "duration": 0.1505,
      "velocity": 112,
      "chip": "ym2612"
    },
    {
      "channel": 0,
      "note": 40,
      "start": 319.1386,
      "duration": 0.3028,
      "velocity": 127,
      "chip": "ym2612"
    },
    {
      "channel": 1,
      "note": 77,
      "start": 319.1392,
      "duration": 0.1176,
      "velocity": 112,
      "chip": "ym2612"
    },
    {
      "channel": 2,
      "note": 53,
      "start": 319.1401,
      "duration": 0.1509,
      "velocity": 127,
      "chip": "ym2612"
    },
    {
      "channel": 4,
      "note": 65,
      "start": 319.1474,
      "duration": 0.1505,
      "velocity": 112,
      "chip": "ym2612"
    },
    {
      "channel": 1,
      "note": 65,
      "start": 319.2907,
      "duration": 0.1177,
      "velocity": 109,
      "chip": "ym2612"
    },
    {
      "channel": 2,
      "note": 53,
      "start": 319.2915,
      "duration": 0.3028,
      "velocity": 127,
      "chip": "ym2612"
    },
    {
      "channel": 4,
      "note": 65,
      "start": 319.2992,
      "duration": 0.1505,
      "velocity": 112,
      "chip": "ym2612"
    },
    {
      "channel": 0,
      "note": 41,
      "start": 319.4425,
      "duration": 0.3022,
      "velocity": 123,
      "chip": "ym2612"
    },
    {
      "channel": 1,
      "note": 77,
      "start": 319.4432,
      "duration": 0.117,
      "velocity": 108,
      "chip": "ym2612"
    },
    {
      "channel": 3,
      "note": 53,
      "start": 319.4446,
      "duration": 0.303,
      "velocity": 110,
      "chip": "ym2612"
    },
    {
      "channel": 4,
      "note": 65,
      "start": 319.4502,
      "duration": 0.1511,
      "velocity": 112,
      "chip": "ym2612"
    },
    {
      "channel": 1,
      "note": 65,
      "start": 319.5941,
      "duration": 0.1178,
      "velocity": 112,
      "chip": "ym2612"
    },
    {
      "channel": 2,
      "note": 53,
      "start": 319.5948,
      "duration": 0.152,
      "velocity": 127,
      "chip": "ym2612"
    },
    {
      "channel": 4,
      "note": 65,
      "start": 319.6025,
      "duration": 0.1506,
      "velocity": 112,
      "chip": "ym2612"
    },
    {
      "channel": 0,
      "note": 40,
      "start": 319.7459,
      "duration": 0.6056,
      "velocity": 127,
      "chip": "ym2612"
    },
    {
      "channel": 1,
      "note": 65,
      "start": 319.7466,
      "duration": 0.117,
      "velocity": 111,
      "chip": "ym2612"
    },
    {
      "channel": 2,
      "note": 53,
      "start": 319.7474,
      "duration": 0.302,
      "velocity": 127,
      "chip": "ym2612"
    },
    {
      "channel": 3,
      "note": 51,
      "start": 319.7481,
      "duration": 0.302,
      "velocity": 110,
      "chip": "ym2612"
    },
    {
      "channel": 4,
      "note": 65,
      "start": 319.7542,
      "duration": 0.1505,
      "velocity": 112,
      "chip": "ym2612"
    },
    {
      "channel": 1,
      "note": 77,
      "start": 319.8974,
      "duration": 0.1178,
      "velocity": 109,
      "chip": "ym2612"
    },
    {
      "channel": 4,
      "note": 65,
      "start": 319.9058,
      "duration": 0.1505,
      "velocity": 112,
      "chip": "ym2612"
    },
    {
      "channel": 1,
      "note": 65,
      "start": 320.0491,
      "duration": 0.1178,
      "velocity": 111,
      "chip": "ym2612"
    },
    {
      "channel": 2,
      "note": 53,
      "start": 320.0499,
      "duration": 0.1511,
      "velocity": 127,
      "chip": "ym2612"
    },
    {
      "channel": 3,
      "note": 46,
      "start": 320.0507,
      "duration": 0.303,
      "velocity": 110,
      "chip": "ym2612"
    },
    {
      "channel": 4,
      "note": 65,
      "start": 320.0576,
      "duration": 0.1504,
      "velocity": 112,
      "chip": "ym2612"
    },
    {
      "channel": 1,
      "note": 65,
      "start": 320.2008,
      "duration": 0.1177,
      "velocity": 112,
      "chip": "ym2612"
    },
    {
      "channel": 2,
      "note": 53,
      "start": 320.2016,
      "duration": 0.1513,
      "velocity": 127,
      "chip": "ym2612"
    },
    {
      "channel": 4,
      "note": 65,
      "start": 320.2092,
      "duration": 0.1505,
      "velocity": 112,
      "chip": "ym2612"
    },
    {
      "channel": 0,
      "note": 40,
      "start": 320.352,
      "duration": 0.3029,
      "velocity": 127,
      "chip": "ym2612"
    },
    {
      "channel": 1,
      "note": 63,
      "start": 320.3527,
      "duration": 0.1175,
      "velocity": 108,
      "chip": "ym2612"
    },
    {
      "channel": 2,
      "note": 51,
      "start": 320.3535,
      "duration": 0.1509,
      "velocity": 127,
      "chip": "ym2612"
    },
    {
      "channel": 3,
      "note": 46,
      "start": 320.3543,
      "duration": 1.516,
      "velocity": 110,
      "chip": "ym2612"
    },
    {
      "channel": 4,
      "note": 63,
      "start": 320.3609,
      "duration": 0.1505,
      "velocity": 112,
      "chip": "ym2612"
    },
    {
      "channel": 5,
      "note": 7,
      "start": 320.3616,
      "duration": 2.4264,
      "velocity": 1,
      "chip": "ym2612"
    },
    {
      "channel": 1,
      "note": 75,
      "start": 320.5042,
      "duration": 0.1178,
      "velocity": 108,
      "chip": "ym2612"
    },
    {
      "channel": 2,
      "note": 51,
      "start": 320.5049,
      "duration": 0.3029,
      "velocity": 127,
      "chip": "ym2612"
    },
    {
      "channel": 4,
      "note": 63,
      "start": 320.5126,
      "duration": 0.1505,
      "velocity": 112,
      "chip": "ym2612"
    },
    {
      "channel": 0,
      "note": 41,
      "start": 320.656,
      "duration": 0.3023,
      "velocity": 123,
      "chip": "ym2612"
    },
    {
      "channel": 1,
      "note": 75,
      "start": 320.6567,
      "duration": 0.117,
      "velocity": 112,
      "chip": "ym2612"
    },
    {
      "channel": 4,
      "note": 63,
      "start": 320.6642,
      "duration": 0.1506,
      "velocity": 112,
      "chip": "ym2612"
    },
    {
      "channel": 1,
      "note": 63,
      "start": 320.8076,
      "duration": 0.1178,
      "velocity": 109,
      "chip": "ym2612"
    },
    {
      "channel": 2,
      "note": 51,
      "start": 320.8084,
      "duration": 0.1519,
      "velocity": 127,
      "chip": "ym2612"
    },
    {
      "channel": 4,
      "note": 63,
      "start": 320.8159,
      "duration": 0.1505,
      "velocity": 112,
      "chip": "ym2612"
    },
    {
      "channel": 0,
      "note": 40,
      "start": 320.9593,
      "duration": 0.3023,
      "velocity": 127,
      "chip": "ym2612"
    },
    {
      "channel": 1,
      "note": 75,
      "start": 320.96,
      "duration": 0.1169,
      "velocity": 108,
      "chip": "ym2612"
    },
    {
      "channel": 2,
      "note": 51,
      "start": 320.9608,
      "duration": 0.3028,
      "velocity": 127,
      "chip": "ym2612"
    },
    {
      "channel": 4,
      "note": 63,
      "start": 320.9676,
      "duration": 0.1505,
      "velocity": 112,
      "chip": "ym2612"
    },
    {
      "channel": 1,
      "note": 63,
      "start": 321.1109,
      "duration": 0.1178,
      "velocity": 110,
      "chip": "ym2612"
    },
    {
      "channel": 4,
      "note": 63,
      "start": 321.1193,
      "duration": 0.1505,
      "velocity": 112,
      "chip": "ym2612"
    },
    {
      "channel": 0,
      "note": 41,
      "start": 321.2627,
      "duration": 0.3022,
      "velocity": 123,
      "chip": "ym2612"
    },
    {
      "channel": 1,
      "note": 63,
      "start": 321.2634,
      "duration": 0.1169,
      "velocity": 109,
      "chip": "ym2612"
    },
    {
      "channel": 2,
      "note": 51,
      "start": 321.2642,
      "duration": 0.1503,
      "velocity": 127,
      "chip": "ym2612"
    },
    {
      "channel": 4,
      "note": 63,
      "start": 321.271,
      "duration": 0.1505,
      "velocity": 112,
      "chip": "ym2612"
    },
    {
      "channel": 1,
      "note": 75,
      "start": 321.4142,
      "duration": 0.1177,
      "velocity": 111,
      "chip": "ym2612"
    },
    {
      "channel": 2,
      "note": 51,
      "start": 321.415,
      "duration": 0.3029,
      "velocity": 127,
      "chip": "ym2612"
    },
    {
      "channel": 4,
      "note": 63,
      "start": 321.4227,
      "duration": 0.1505,
      "velocity": 112,
      "chip": "ym2612"
    },
    {
      "channel": 0,
      "note": 40,
      "start": 321.5661,
      "duration": 0.6057,
      "velocity": 127,
      "chip": "ym2612"
    },
    {
      "channel": 1,
      "note": 75,
      "start": 321.5667,
      "duration": 0.117,
      "velocity": 112,
      "chip": "ym2612"
    },
    {
      "channel": 4,
      "note": 63,
      "start": 321.5744,
      "duration": 0.1505,
      "velocity": 112,
      "chip": "ym2612"
    },
    {
      "channel": 1,
      "note": 63,
      "start": 321.7176,
      "duration": 0.1178,
      "velocity": 109,
      "chip": "ym2612"
    },
    {
      "channel": 2,
      "note": 51,
      "start": 321.7184,
      "duration": 0.1511,
      "velocity": 127,
      "chip": "ym2612"
    },
    {
      "channel": 4,
      "note": 63,
      "start": 321.726,
      "duration": 0.1506,
      "velocity": 112,
      "chip": "ym2612"
    },
    {
      "channel": 1,
      "note": 75,
      "start": 321.8693,
      "duration": 0.1178,
      "velocity": 108,
      "chip": "ym2612"
    },
    {
      "channel": 2,
      "note": 51,
      "start": 321.8701,
      "duration": 0.303,
      "velocity": 127,
      "chip": "ym2612"
    },
    {
      "channel": 3,
      "note": 44,
      "start": 321.8708,
      "duration": 0.4545,
      "velocity": 110,
      "chip": "ym2612"
    },
    {
      "channel": 4,
      "note": 63,
      "start": 321.8771,
      "duration": 0.1511,
      "velocity": 112,
      "chip": "ym2612"
    },
    {
      "channel": 1,
      "note": 63,
      "start": 322.021,
      "duration": 0.1178,
      "velocity": 112,
      "chip": "ym2612"
    },
    {
      "channel": 4,
      "note": 63,
      "start": 322.0294,
      "duration": 0.1505,
      "velocity": 112,
      "chip": "ym2612"
    },
    {
      "channel": 0,
      "note": 40,
      "start": 322.1722,
      "duration": 0.3029,
      "velocity": 127,
      "chip": "ym2612"
    },
    {
      "channel": 1,
      "note": 63,
      "start": 322.1729,
      "duration": 0.1176,
      "velocity": 111,
      "chip": "ym2612"
    },
    {
      "channel": 2,
      "note": 51,
      "start": 322.1737,
      "duration": 0.1509,
      "velocity": 127,
      "chip": "ym2612"
    },
    {
      "channel": 4,
      "note": 63,
      "start": 322.1811,
      "duration": 0.1505,
      "velocity": 112,
      "chip": "ym2612"
    },
    {
      "channel": 1,
      "note": 75,
      "start": 322.3244,
      "duration": 0.1177,
      "velocity": 109,
      "chip": "ym2612"
    },
    {
      "channel": 2,
      "note": 51,
      "start": 322.3252,
      "duration": 0.3027,
      "velocity": 127,
      "chip": "ym2612"
    },
    {
      "channel": 3,
      "note": 43,
      "start": 322.3259,
      "duration": 0.4552,
      "velocity": 110,
      "chip": "ym2612"
    },
    {
      "channel": 4,
      "note": 63,
      "start": 322.3327,
      "duration": 0.1505,
      "velocity": 112,
      "chip": "ym2612"
    },
    {
      "channel": 0,
      "note": 41,
      "start": 322.4761,
      "duration": 0.3023,
      "velocity": 123,
      "chip": "ym2612"
    },
    {
      "channel": 1,
      "note": 63,
      "start": 322.4768,
      "duration": 0.1169,
      "velocity": 111,
      "chip": "ym2612"
    },
    {
      "channel": 4,
      "note": 63,
      "start": 322.4845,
      "duration": 0.1505,
      "velocity": 112,
      "chip": "ym2612"
    },
    {
      "channel": 1,
      "note": 63,
      "start": 322.6277,
      "duration": 0.1178,
      "velocity": 112,
      "chip": "ym2612"
    },
    {
      "channel": 2,
      "note": 51,
      "start": 322.6285,
      "duration": 0.1519,
      "velocity": 127,
      "chip": "ym2612"
    },
    {
      "channel": 4,
      "note": 63,
      "start": 322.6361,
      "duration": 0.1505,
      "velocity": 112,
      "chip": "ym2612"
    },
    {
      "channel": 0,
      "note": 40,
      "start": 322.7795,
      "duration": 0.3023,
      "velocity": 127,
      "chip": "ym2612"
    },
    {
      "channel": 1,
      "note": 65,
      "start": 322.7802,
      "duration": 0.1169,
      "velocity": 108,
      "chip": "ym2612"
    },
    {
      "channel": 2,
      "note": 53,
      "start": 322.781,
      "duration": 0.3028,
      "velocity": 127,
      "chip": "ym2612"
    },
    {
      "channel": 3,
      "note": 39,
      "start": 322.7818,
      "duration": 2.4263,
      "velocity": 110,
      "chip": "ym2612"
    },
    {
      "channel": 4,
      "note": 65,
      "start": 322.7878,
      "duration": 0.1505,
      "velocity": 112,
      "chip": "ym2612"
    },
    {
      "channel": 5,
      "note": 7,
      "start": 322.7885,
      "duration": 2.4264,
      "velocity": 1,
      "chip": "ym2612"
    },
    {
      "channel": 1,
      "note": 77,
      "start": 322.931,
      "duration": 0.1178,
      "velocity": 108,
      "chip": "ym2612"
    },
    {
      "channel": 4,
      "note": 65,
      "start": 322.9395,
      "duration": 0.1505,
      "velocity": 112,
      "chip": "ym2612"
    },
    {
      "channel": 0,
      "note": 41,
      "start": 323.0829,
      "duration": 0.3023,
      "velocity": 123,
      "chip": "ym2612"
    },
    {
      "channel": 1,
      "note": 77,
      "start": 323.0836,
      "duration": 0.1169,
      "velocity": 112,
      "chip": "ym2612"
    },
    {
      "channel": 2,
      "note": 53,
      "start": 323.0843,
      "duration": 0.1503,
      "velocity": 127,
      "chip": "ym2612"
    },
    {
      "channel": 4,
      "note": 65,
      "start": 323.0912,
      "duration": 0.1505,
      "velocity": 112,
      "chip": "ym2612"
    },
    {
      "channel": 1,
      "note": 65,
      "start": 323.2344,
      "duration": 0.1178,
      "velocity": 109,
      "chip": "ym2612"
    },
    {
      "channel": 2,
      "note": 53,
      "start": 323.2352,
      "duration": 0.3028,
      "velocity": 127,
      "chip": "ym2612"
    },
    {
      "channel": 4,
      "note": 65,
      "start": 323.2429,
      "duration": 0.1505,
      "velocity": 112,
      "chip": "ym2612"
    },
    {
      "channel": 0,
      "note": 40,
      "start": 323.3862,
      "duration": 0.6057,
      "velocity": 127,
      "chip": "ym2612"
    },
    {
      "channel": 1,
      "note": 77,
      "start": 323.3869,
      "duration": 0.1169,
      "velocity": 108,
      "chip": "ym2612"
    },
    {
      "channel": 4,
      "note": 65,
      "start": 323.3945,
      "duration": 0.1505,
      "velocity": 112,
      "chip": "ym2612"
    },
    {
      "channel": 1,
      "note": 65,
      "start": 323.5378,
      "duration": 0.1177,
      "velocity": 110,
      "chip": "ym2612"
    },
    {
      "channel": 2,
      "note": 53,
      "start": 323.5385,
      "duration": 0.1512,
      "velocity": 127,
      "chip": "ym2612"
    },
    {
      "channel": 4,
      "note": 65,
      "start": 323.5462,
      "duration": 0.1505,
      "velocity": 112,
      "chip": "ym2612"
    },
    {
      "channel": 1,
      "note": 65,
      "start": 323.6895,
      "duration": 0.1178,
      "velocity": 109,
      "chip": "ym2612"
    },
    {
      "channel": 2,
      "note": 53,
      "start": 323.6903,
      "duration": 0.303,
      "velocity": 127,
      "chip": "ym2612"
    },
    {
      "channel": 4,
      "note": 65,
      "start": 323.6979,
      "duration": 0.1505,
      "velocity": 112,
      "chip": "ym2612"
    },
    {
      "channel": 1,
      "note": 77,
      "start": 323.8412,
      "duration": 0.1177,
      "velocity": 111,
      "chip": "ym2612"
    },
    {
      "channel": 4,
      "note": 65,
      "start": 323.8495,
      "duration": 0.1506,
      "velocity": 112,
      "chip": "ym2612"
    },
    {
      "channel": 0,
      "note": 40,
      "start": 323.9924,
      "duration": 0.3029,
      "velocity": 127,
      "chip": "ym2612"
    },
    {
      "channel": 1,
      "note": 77,
      "start": 323.993,
      "duration": 0.1176,
      "velocity": 112,
      "chip": "ym2612"
    },
    {
      "channel": 2,
      "note": 53,
      "start": 323.9938,
      "duration": 0.1509,
      "velocity": 127,
      "chip": "ym2612"
    },
    {
      "channel": 4,
      "note": 65,
      "start": 324.0012,
      "duration": 0.1505,
      "velocity": 112,
      "chip": "ym2612"
    },
    {
      "channel": 1,
      "note": 65,
      "start": 324.1445,
      "duration": 0.1178,
      "velocity": 109,
      "chip": "ym2612"
    },
    {
      "channel": 2,
      "note": 53,
      "start": 324.1453,
      "duration": 0.3028,
      "velocity": 127,
      "chip": "ym2612"
    },
    {
      "channel": 4,
      "note": 65,
      "start": 324.1529,
      "duration": 0.1506,
      "velocity": 112,
      "chip": "ym2612"
    },
    {
      "channel": 0,
      "note": 41,
      "start": 324.2963,
      "duration": 0.3023,
      "velocity": 123,
      "chip": "ym2612"
    },
    {
      "channel": 1,
      "note": 77,
      "start": 324.297,
      "duration": 0.117,
      "velocity": 108,
      "chip": "ym2612"
    },
    {
      "channel": 4,
      "note": 65,
      "start": 324.3041,
      "duration": 0.1511,
      "velocity": 112,
      "chip": "ym2612"
    },
    {
      "channel": 1,
      "note": 65,
      "start": 324.4479,
      "duration": 0.1177,
      "velocity": 112,
      "chip": "ym2612"
    },
    {
      "channel": 2,
      "note": 53,
      "start": 324.4486,
      "duration": 0.1519,
      "velocity": 127,
      "chip": "ym2612"
    },
    {
      "channel": 4,
      "note": 65,
      "start": 324.4563,
      "duration": 0.1506,
      "velocity": 112,
      "chip": "ym2612"
    },
    {
      "channel": 0,
      "note": 40,
      "start": 324.5997,
      "duration": 0.6057,
      "velocity": 127,
      "chip": "ym2612"
    },
    {
      "channel": 1,
      "note": 65,
      "start": 324.6004,
      "duration": 0.1169,
      "velocity": 111,
      "chip": "ym2612"
    },
    {
      "channel": 2,
      "note": 53,
      "start": 324.6011,
      "duration": 0.302,
      "velocity": 127,
      "chip": "ym2612"
    },
    {
      "channel": 4,
      "note": 65,
      "start": 324.608,
      "duration": 0.1505,
      "velocity": 112,
      "chip": "ym2612"
    },
    {
      "channel": 1,
      "note": 77,
      "start": 324.7512,
      "duration": 0.1178,
      "velocity": 109,
      "chip": "ym2612"
    },
    {
      "channel": 4,
      "note": 65,
      "start": 324.7597,
      "duration": 0.1505,
      "velocity": 112,
      "chip": "ym2612"
    },
    {
      "channel": 1,
      "note": 65,
      "start": 324.9029,
      "duration": 0.1178,
      "velocity": 111,
      "chip": "ym2612"
    },
    {
      "channel": 2,
      "note": 53,
      "start": 324.9037,
      "duration": 0.1511,
      "velocity": 127,
      "chip": "ym2612"
    },
    {
      "channel": 4,
      "note": 65,
      "start": 324.9113,
      "duration": 0.1505,
      "velocity": 112,
      "chip": "ym2612"
    },
    {
      "channel": 1,
      "note": 65,
      "start": 325.0546,
      "duration": 0.1178,
      "velocity": 112,
      "chip": "ym2612"
    },
    {
      "channel": 2,
      "note": 53,
      "start": 325.0554,
      "duration": 0.1513,
      "velocity": 127,
      "chip": "ym2612"
    },
    {
      "channel": 4,
      "note": 65,
      "start": 325.063,
      "duration": 0.1505,
      "velocity": 112,
      "chip": "ym2612"
    },
    {
      "channel": 0,
      "note": 40,
      "start": 325.2058,
      "duration": 0.3029,
      "velocity": 127,
      "chip": "ym2612"
    },
    {
      "channel": 1,
      "note": 65,
      "start": 325.2065,
      "duration": 0.1176,
      "velocity": 108,
      "chip": "ym2612"
    },
    {
      "channel": 2,
      "note": 41,
      "start": 325.2079,
      "duration": 0.1672,
      "velocity": 124,
      "chip": "ym2612"
    },
    {
      "channel": 3,
      "note": 53,
      "start": 325.2092,
      "duration": 0.0485,
      "velocity": 120,
      "chip": "ym2612"
    },
    {
      "channel": 4,
      "note": 65,
      "start": 325.2147,
      "duration": 0.1505,
      "velocity": 112,
      "chip": "ym2612"
    },
    {
      "channel": 5,
      "note": 7,
      "start": 325.2154,
      "duration": 2.4265,
      "velocity": 1,
      "chip": "ym2612"
    },
    {
      "channel": 1,
      "note": 77,
      "start": 325.358,
      "duration": 0.1177,
      "velocity": 108,
      "chip": "ym2612"
    },
    {
      "channel": 3,
      "note": 65,
      "start": 325.3593,
      "duration": 0.0501,
      "velocity": 120,
      "chip": "ym2612"
    },
    {
      "channel": 4,
      "note": 65,
      "start": 325.3664,
      "duration": 0.1505,
      "velocity": 112,
      "chip": "ym2612"
    },
    {
      "channel": 0,
      "note": 41,
      "start": 325.5098,
      "duration": 0.3022,
      "velocity": 123,
      "chip": "ym2612"
    },
    {
      "channel": 1,
      "note": 77,
      "start": 325.5105,
      "duration": 0.1169,
      "velocity": 112,
      "chip": "ym2612"
    },
    {
      "channel": 2,
      "note": 48,
      "start": 325.5112,
      "duration": 0.1504,
      "velocity": 124,
      "chip": "ym2612"
    },
    {
      "channel": 3,
      "note": 53,
      "start": 325.5119,
      "duration": 0.0492,
      "velocity": 120,
      "chip": "ym2612"
    },
    {
      "channel": 4,
      "note": 65,
      "start": 325.518,
      "duration": 0.1505,
      "velocity": 112,
      "chip": "ym2612"
    },
    {
      "channel": 1,
      "note": 65,
      "start": 325.6613,
      "duration": 0.1177,
      "velocity": 109,
      "chip": "ym2612"
    },
    {
      "channel": 2,
      "note": 48,
      "start": 325.662,
      "duration": 0.1681,
      "velocity": 124,
      "chip": "ym2612"
    },
    {
      "channel": 3,
      "note": 53,
      "start": 325.6628,
      "duration": 0.0499,
      "velocity": 120,
      "chip": "ym2612"
    },
    {
      "channel": 4,
      "note": 65,
      "start": 325.6697,
      "duration": 0.1506,
      "velocity": 112,
      "chip": "ym2612"
    },
    {
      "channel": 0,
      "note": 40,
      "start": 325.8132,
      "duration": 0.3022,
      "velocity": 127,
      "chip": "ym2612"
    },
    {
      "channel": 1,
      "note": 77,
      "start": 325.8138,
      "duration": 0.117,
      "velocity": 108,
      "chip": "ym2612"
    },
    {
      "channel": 3,
      "note": 65,
      "start": 325.8151,
      "duration": 0.0493,
      "velocity": 120,
      "chip": "ym2612"
    },
    {
      "channel": 4,
      "note": 65,
      "start": 325.8214,
      "duration": 0.1505,
      "velocity": 112,
      "chip": "ym2612"
    },
    {
      "channel": 1,
      "note": 65,
      "start": 325.9647,
      "duration": 0.1178,
      "velocity": 110,
      "chip": "ym2612"
    },
    {
      "channel": 2,
      "note": 41,
      "start": 325.9654,
      "duration": 0.1681,
      "velocity": 124,
      "chip": "ym2612"
    },
    {
      "channel": 3,
      "note": 53,
      "start": 325.9661,
      "duration": 0.05,
      "velocity": 120,
      "chip": "ym2612"
    },
    {
      "channel": 4,
      "note": 65,
      "start": 325.9731,
      "duration": 0.1506,
      "velocity": 112,
      "chip": "ym2612"
    },
    {
      "channel": 0,
      "note": 41,
      "start": 326.1165,
      "duration": 0.3023,
      "velocity": 123,
      "chip": "ym2612"
    },
    {
      "channel": 1,
      "note": 65,
      "start": 326.1172,
      "duration": 0.117,
      "velocity": 109,
      "chip": "ym2612"
    },
    {
      "channel": 3,
      "note": 53,
      "start": 326.1184,
      "duration": 0.0493,
      "velocity": 120,
      "chip": "ym2612"
    },
    {
      "channel": 4,
      "note": 65,
      "start": 326.1249,
      "duration": 0.1505,
      "velocity": 112,
      "chip": "ym2612"
    },
    {
      "channel": 1,
      "note": 77,
      "start": 326.268,
      "duration": 0.1178,
      "velocity": 111,
      "chip": "ym2612"
    },
    {
      "channel": 2,
      "note": 46,
      "start": 326.2688,
      "duration": 0.1681,
      "velocity": 124,
      "chip": "ym2612"
    },
    {
      "channel": 3,
      "note": 65,
      "start": 326.2695,
      "duration": 0.05,
      "velocity": 120,
      "chip": "ym2612"
    },
    {
      "channel": 4,
      "note": 65,
      "start": 326.2764,
      "duration": 0.1505,
      "velocity": 112,
      "chip": "ym2612"
    },
    {
      "channel": 0,
      "note": 40,
      "start": 326.4198,
      "duration": 0.6057,
      "velocity": 127,
      "chip": "ym2612"
    },
    {
      "channel": 1,
      "note": 77,
      "start": 326.4205,
      "duration": 0.117,
      "velocity": 112,
      "chip": "ym2612"
    },
    {
      "channel": 3,
      "note": 53,
      "start": 326.4218,
      "duration": 0.0493,
      "velocity": 120,
      "chip": "ym2612"
    },
    {
      "channel": 4,
      "note": 65,
      "start": 326.4282,
      "duration": 0.1505,
      "velocity": 112,
      "chip": "ym2612"
    },
    {
      "channel": 1,
      "note": 65,
      "start": 326.5714,
      "duration": 0.1177,
      "velocity": 109,
      "chip": "ym2612"
    },
    {
      "channel": 2,
      "note": 46,
      "start": 326.5721,
      "duration": 0.1512,
      "velocity": 124,
      "chip": "ym2612"
    },
    {
      "channel": 3,
      "note": 65,
      "start": 326.5728,
      "duration": 0.05,
      "velocity": 120,
      "chip": "ym2612"
    },
    {
      "channel": 4,
      "note": 65,
      "start": 326.5798,
      "duration": 0.1506,
      "velocity": 112,
      "chip": "ym2612"
    },
    {
      "channel": 1,
      "note": 77,
      "start": 326.7231,
      "duration": 0.1178,
      "velocity": 108,
      "chip": "ym2612"
    },
    {
      "channel": 2,
      "note": 41,
      "start": 326.7238,
      "duration": 0.1681,
      "velocity": 124,
      "chip": "ym2612"
    },
    {
      "channel": 3,
      "note": 53,
      "start": 326.7246,
      "duration": 0.0499,
      "velocity": 120,
      "chip": "ym2612"
    },
    {
      "channel": 4,
      "note": 65,
      "start": 326.7309,
      "duration": 0.1511,
      "velocity": 112,
      "chip": "ym2612"
    },
    {
      "channel": 1,
      "note": 65,
      "start": 326.8748,
      "duration": 0.1178,
      "velocity": 112,
      "chip": "ym2612"
    },
    {
      "channel": 3,
      "note": 53,
      "start": 326.8761,
      "duration": 0.0501,
      "velocity": 120,
      "chip": "ym2612"
    },
    {
      "channel": 4,
      "note": 65,
      "start": 326.8832,
      "duration": 0.1505,
      "velocity": 112,
      "chip": "ym2612"
    },
    {
      "channel": 0,
      "note": 40,
      "start": 327.026,
      "duration": 0.3029,
      "velocity": 127,
      "chip": "ym2612"
    },
    {
      "channel": 1,
      "note": 65,
      "start": 327.0267,
      "duration": 0.1175,
      "velocity": 111,
      "chip": "ym2612"
    },
    {
      "channel": 2,
      "note": 50,
      "start": 327.0274,
      "duration": 0.151,
      "velocity": 124,
      "chip": "ym2612"
    },
    {
      "channel": 3,
      "note": 65,
      "start": 327.0281,
      "duration": 0.0498,
      "velocity": 120,
      "chip": "ym2612"
    },
    {
      "channel": 4,
      "note": 65,
      "start": 327.0349,
      "duration": 0.1506,
      "velocity": 112,
      "chip": "ym2612"
    },
    {
      "channel": 1,
      "note": 77,
      "start": 327.1781,
      "duration": 0.1178,
      "velocity": 109,
      "chip": "ym2612"
    },
    {
      "channel": 2,
      "note": 50,
      "start": 327.1789,
      "duration": 0.1681,
      "velocity": 124,
      "chip": "ym2612"
    },
    {
      "channel": 3,
      "note": 53,
      "start": 327.1796,
      "duration": 0.0499,
      "velocity": 120,
      "chip": "ym2612"
    },
    {
      "channel": 4,
      "note": 65,
      "start": 327.1866,
      "duration": 0.1505,
      "velocity": 112,
      "chip": "ym2612"
    },
    {
      "channel": 0,
      "note": 41,
      "start": 327.33,
      "duration": 0.3023,
      "velocity": 123,
      "chip": "ym2612"
    },
    {
      "channel": 1,
      "note": 65,
      "start": 327.3306,
      "duration": 0.1169,
      "velocity": 111,
      "chip": "ym2612"
    },
    {
      "channel": 3,
      "note": 53,
      "start": 327.3319,
      "duration": 0.0494,
      "velocity": 120,
      "chip": "ym2612"
    },
    {
      "channel": 4,
      "note": 65,
      "start": 327.3382,
      "duration": 0.1505,
      "velocity": 112,
      "chip": "ym2612"
    },
    {
      "channel": 1,
      "note": 65,
      "start": 327.4815,
      "duration": 0.1178,
      "velocity": 112,
      "chip": "ym2612"
    },
    {
      "channel": 2,
      "note": 41,
      "start": 327.4822,
      "duration": 0.152,
      "velocity": 124,
      "chip": "ym2612"
    },
    {
      "channel": 3,
      "note": 65,
      "start": 327.4829,
      "duration": 0.05,
      "velocity": 120,
      "chip": "ym2612"
    },
    {
      "channel": 4,
      "note": 65,
      "start": 327.4899,
      "duration": 0.1505,
      "velocity": 112,
      "chip": "ym2612"
    },
    {
      "channel": 0,
      "note": 40,
      "start": 327.6333,
      "duration": 0.3022,
      "velocity": 127,
      "chip": "ym2612"
    },
    {
      "channel": 1,
      "note": 65,
      "start": 327.634,
      "duration": 0.1169,
      "velocity": 108,
      "chip": "ym2612"
    },
    {
      "channel": 2,
      "note": 41,
      "start": 327.6347,
      "duration": 0.1672,
      "velocity": 124,
      "chip": "ym2612"
    },
    {
      "channel": 3,
      "note": 53,
      "start": 327.6354,
      "duration": 0.0491,
      "velocity": 120,
      "chip": "ym2612"
    },
    {
      "channel": 4,
      "note": 65,
      "start": 327.6416,
      "duration": 0.1505,
      "velocity": 112,
      "chip": "ym2612"
    },
    {
      "channel": 5,
      "note": 7,
      "start": 327.6423,
      "duration": 2.4265,
      "velocity": 1,
      "chip": "ym2612"
    },
    {
      "channel": 1,
      "note": 77,
      "start": 327.7849,
      "duration": 0.1177,
      "velocity": 109,
      "chip": "ym2612"
    },
    {
      "channel": 3,
      "note": 65,
      "start": 327.7861,
      "duration": 0.0501,
      "velocity": 120,
      "chip": "ym2612"
    },
    {
      "channel": 4,
      "note": 65,
      "start": 327.7932,
      "duration": 0.1506,
      "velocity": 112,
      "chip": "ym2612"
    },
    {
      "channel": 0,
      "note": 41,
      "start": 327.9367,
      "duration": 0.3022,
      "velocity": 123,
      "chip": "ym2612"
    },
    {
      "channel": 1,
      "note": 77,
      "start": 327.9373,
      "duration": 0.117,
      "velocity": 110,
      "chip": "ym2612"
    },
    {
      "channel": 2,
      "note": 48,
      "start": 327.9381,
      "duration": 0.1503,
      "velocity": 124,
      "chip": "ym2612"
    },
    {
      "channel": 3,
      "note": 53,
      "start": 327.9388,
      "duration": 0.0491,
      "velocity": 120,
      "chip": "ym2612"
    },
    {
      "channel": 4,
      "note": 65,
      "start": 327.945,
      "duration": 0.1505,
      "velocity": 112,
      "chip": "ym2612"
    },
    {
      "channel": 1,
      "note": 65,
      "start": 328.0882,
      "duration": 0.1178,
      "velocity": 111,
      "chip": "ym2612"
    },
    {
      "channel": 2,
      "note": 48,
      "start": 328.0889,
      "duration": 0.1682,
      "velocity": 124,
      "chip": "ym2612"
    },
    {
      "channel": 3,
      "note": 53,
      "start": 328.0896,
      "duration": 0.05,
      "velocity": 120,
      "chip": "ym2612"
    },
    {
      "channel": 4,
      "note": 65,
      "start": 328.0966,
      "duration": 0.1506,
      "velocity": 112,
      "chip": "ym2612"
    },
    {
      "channel": 0,
      "note": 40,
      "start": 328.24,
      "duration": 0.6057,
      "velocity": 127,
      "chip": "ym2612"
    },
    {
      "channel": 1,
      "note": 77,
      "start": 328.2407,
      "duration": 0.1169,
      "velocity": 108,
      "chip": "ym2612"
    },
    {
      "channel": 3,
      "note": 65,
      "start": 328.242,
      "duration": 0.0494,
      "velocity": 120,
      "chip": "ym2612"
    },
    {
      "channel": 4,
      "note": 65,
      "start": 328.2478,
      "duration": 0.1511,
      "velocity": 112,
      "chip": "ym2612"
    },
    {
      "channel": 1,
      "note": 65,
      "start": 328.3916,
      "duration": 0.1178,
      "velocity": 109,
      "chip": "ym2612"
    },
    {
      "channel": 2,
      "note": 41,
      "start": 328.3923,
      "duration": 0.1681,
      "velocity": 124,
      "chip": "ym2612"
    },
    {
      "channel": 3,
      "note": 53,
      "start": 328.393,
      "duration": 0.05,
      "velocity": 120,
      "chip": "ym2612"
    },
    {
      "channel": 4,
      "note": 65,
      "start": 328.4,
      "duration": 0.1505,
      "velocity": 112,
      "chip": "ym2612"
    },
    {
      "channel": 1,
      "note": 65,
      "start": 328.5432,
      "duration": 0.1178,
      "velocity": 112,
      "chip": "ym2612"
    },
    {
      "channel": 3,
      "note": 53,
      "start": 328.5445,
      "duration": 0.0501,
      "velocity": 120,
      "chip": "ym2612"
    },
    {
      "channel": 4,
      "note": 65,
      "start": 328.5517,
      "duration": 0.1505,
      "velocity": 112,
      "chip": "ym2612"
    },
    {
      "channel": 1,
      "note": 77,
      "start": 328.695,
      "duration": 0.1177,
      "velocity": 110,
      "chip": "ym2612"
    },
    {
      "channel": 2,
      "note": 46,
      "start": 328.6956,
      "duration": 0.1681,
      "velocity": 124,
      "chip": "ym2612"
    },
    {
      "channel": 3,
      "note": 65,
      "start": 328.6963,
      "duration": 0.05,
      "velocity": 120,
      "chip": "ym2612"
    },
    {
      "channel": 4,
      "note": 65,
      "start": 328.7034,
      "duration": 0.1505,
      "velocity": 112,
      "chip": "ym2612"
    },
    {
      "channel": 0,
      "note": 40,
      "start": 328.8462,
      "duration": 0.3029,
      "velocity": 127,
      "chip": "ym2612"
    },
    {
      "channel": 1,
      "note": 77,
      "start": 328.8469,
      "duration": 0.1175,
      "velocity": 111,
      "chip": "ym2612"
    },
    {
      "channel": 3,
      "note": 53,
      "start": 328.8481,
      "duration": 0.0499,
      "velocity": 120,
      "chip": "ym2612"
    },
    {
      "channel": 4,
      "note": 65,
      "start": 328.8551,
      "duration": 0.1505,
      "velocity": 112,
      "chip": "ym2612"
    },
    {
      "channel": 1,
      "note": 65,
      "start": 328.9983,
      "duration": 0.1178,
      "velocity": 108,
      "chip": "ym2612"
    },
    {
      "channel": 2,
      "note": 46,
      "start": 328.999,
      "duration": 0.152,
      "velocity": 124,
      "chip": "ym2612"
    },
    {
      "channel": 3,
      "note": 65,
      "start": 328.9997,
      "duration": 0.0499,
      "velocity": 120,
      "chip": "ym2612"
    },
    {
      "channel": 4,
      "note": 65,
      "start": 329.0068,
      "duration": 0.1505,
      "velocity": 112,
      "chip": "ym2612"
    },
    {
      "channel": 0,
      "note": 41,
      "start": 329.1501,
      "duration": 0.3023,
      "velocity": 123,
      "chip": "ym2612"
    },
    {
      "channel": 1,
      "note": 77,
      "start": 329.1508,
      "duration": 0.1169,
      "velocity": 109,
      "chip": "ym2612"
    },
    {
      "channel": 2,
      "note": 41,
      "start": 329.1515,
      "duration": 0.1673,
      "velocity": 124,
      "chip": "ym2612"
    },
    {
      "channel": 3,
      "note": 53,
      "start": 329.1522,
      "duration": 0.0492,
      "velocity": 120,
      "chip": "ym2612"
    },
    {
      "channel": 4,
      "note": 65,
      "start": 329.1584,
      "duration": 0.1506,
      "velocity": 112,
      "chip": "ym2612"
    },
    {
      "channel": 1,
      "note": 65,
      "start": 329.3016,
      "duration": 0.1178,
      "velocity": 112,
      "chip": "ym2612"
    },
    {
      "channel": 3,
      "note": 53,
      "start": 329.3029,
      "duration": 0.0501,
      "velocity": 120,
      "chip": "ym2612"
    },
    {
      "channel": 4,
      "note": 65,
      "start": 329.3101,
      "duration": 0.1505,
      "velocity": 112,
      "chip": "ym2612"
    },
    {
      "channel": 0,
      "note": 40,
      "start": 329.4535,
      "duration": 0.6057,
      "velocity": 127,
      "chip": "ym2612"
    },
    {
      "channel": 1,
      "note": 77,
      "start": 329.4542,
      "duration": 0.1169,
      "velocity": 110,
      "chip": "ym2612"
    },
    {
      "channel": 2,
      "note": 46,
      "start": 329.4549,
      "duration": 0.1504,
      "velocity": 124,
      "chip": "ym2612"
    },
    {
      "channel": 3,
      "note": 65,
      "start": 329.4556,
      "duration": 0.0492,
      "velocity": 120,
      "chip": "ym2612"
    },
    {
      "channel": 4,
      "note": 65,
      "start": 329.4617,
      "duration": 0.1506,
      "velocity": 112,
      "chip": "ym2612"
    },
    {
      "channel": 1,
      "note": 65,
      "start": 329.605,
      "duration": 0.1178,
      "velocity": 108,
      "chip": "ym2612"
    },
    {
      "channel": 2,
      "note": 46,
      "start": 329.6057,
      "duration": 0.1682,
      "velocity": 124,
      "chip": "ym2612"
    },
    {
      "channel": 3,
      "note": 53,
      "start": 329.6065,
      "duration": 0.05,
      "velocity": 120,
      "chip": "ym2612"
    },
    {
      "channel": 4,
      "note": 65,
      "start": 329.6129,
      "duration": 0.1511,
      "velocity": 112,
      "chip": "ym2612"
    },
    {
      "channel": 1,
      "note": 65,
      "start": 329.7567,
      "duration": 0.1178,
      "velocity": 109,
      "chip": "ym2612"
    },
    {
      "channel": 3,
      "note": 65,
      "start": 329.758,
      "duration": 0.0501,
      "velocity": 120,
      "chip": "ym2612"
    },
    {
      "channel": 4,
      "note": 65,
      "start": 329.7651,
      "duration": 0.1505,
      "velocity": 112,
      "chip": "ym2612"
    },
    {
      "channel": 1,
      "note": 77,
      "start": 329.9084,
      "duration": 0.1178,
      "velocity": 112,
      "chip": "ym2612"
    },
    {
      "channel": 2,
      "note": 41,
      "start": 329.9091,
      "duration": 0.1515,
      "velocity": 124,
      "chip": "ym2612"
    },
    {
      "channel": 3,
      "note": 65,
      "start": 329.9098,
      "duration": 0.0499,
      "velocity": 120,
      "chip": "ym2612"
    },
    {
      "channel": 4,
      "note": 65,
      "start": 329.9168,
      "duration": 0.1506,
      "velocity": 112,
      "chip": "ym2612"
    },
    {
      "channel": 0,
      "note": 40,
      "start": 330.0597,
      "duration": 0.3028,
      "velocity": 127,
      "chip": "ym2612"
    },
    {
      "channel": 1,
      "note": 65,
      "start": 330.0603,
      "duration": 0.1176,
      "velocity": 108,
      "chip": "ym2612"
    },
    {
      "channel": 2,
      "note": 41,
      "start": 330.061,
      "duration": 0.1679,
      "velocity": 124,
      "chip": "ym2612"
    },
    {
      "channel": 3,
      "note": 53,
      "start": 330.0617,
      "duration": 0.0497,
      "velocity": 120,
      "chip": "ym2612"
    },
    {
      "channel": 4,
      "note": 65,
      "start": 330.0685,
      "duration": 0.1505,
      "velocity": 112,
      "chip": "ym2612"
    },
    {
      "channel": 5,
      "note": 7,
      "start": 330.0692,
      "duration": 2.4265,
      "velocity": 1,
      "chip": "ym2612"
    },
    {
      "channel": 1,
      "note": 77,
      "start": 330.2117,
      "duration": 0.1178,
      "velocity": 108,
      "chip": "ym2612"
    },
    {
      "channel": 3,
      "note": 65,
      "start": 330.2129,
      "duration": 0.0502,
      "velocity": 120,
      "chip": "ym2612"
    },
    {
      "channel": 4,
      "note": 65,
      "start": 330.2201,
      "duration": 0.1506,
      "velocity": 112,
      "chip": "ym2612"
    },
    {
      "channel": 0,
      "note": 41,
      "start": 330.3635,
      "duration": 0.3023,
      "velocity": 123,
      "chip": "ym2612"
    },
    {
      "channel": 1,
      "note": 77,
      "start": 330.3642,
      "duration": 0.117,
      "velocity": 112,
      "chip": "ym2612"
    },
    {
      "channel": 2,
      "note": 48,
      "start": 330.3649,
      "duration": 0.1504,
      "velocity": 124,
      "chip": "ym2612"
    },
    {
      "channel": 3,
      "note": 53,
      "start": 330.3657,
      "duration": 0.0491,
      "velocity": 120,
      "chip": "ym2612"
    },
    {
      "channel": 4,
      "note": 65,
      "start": 330.3719,
      "duration": 0.1505,
      "velocity": 112,
      "chip": "ym2612"
    },
    {
      "channel": 1,
      "note": 65,
      "start": 330.5151,
      "duration": 0.1178,
      "velocity": 109,
      "chip": "ym2612"
    },
    {
      "channel": 2,
      "note": 48,
      "start": 330.5158,
      "duration": 0.1681,
      "velocity": 124,
      "chip": "ym2612"
    },
    {
      "channel": 3,
      "note": 53,
      "start": 330.5165,
      "duration": 0.05,
      "velocity": 120,
      "chip": "ym2612"
    },
    {
      "channel": 4,
      "note": 65,
      "start": 330.5236,
      "duration": 0.1505,
      "velocity": 112,
      "chip": "ym2612"
    },
    {
      "channel": 0,
      "note": 40,
      "start": 330.6669,
      "duration": 0.3023,
      "velocity": 127,
      "chip": "ym2612"
    },
    {
      "channel": 1,
      "note": 77,
      "start": 330.6676,
      "duration": 0.117,
      "velocity": 108,
      "chip": "ym2612"
    },
    {
      "channel": 3,
      "note": 65,
      "start": 330.6689,
      "duration": 0.0493,
      "velocity": 120,
      "chip": "ym2612"
    },
    {
      "channel": 4,
      "note": 65,
      "start": 330.6752,
      "duration": 0.1505,
      "velocity": 112,
      "chip": "ym2612"
    },
    {
      "channel": 1,
      "note": 65,
      "start": 330.8185,
      "duration": 0.1177,
      "velocity": 110,
      "chip": "ym2612"
    },
    {
      "channel": 2,
      "note": 41,
      "start": 330.8192,
      "duration": 0.1681,
      "velocity": 124,
      "chip": "ym2612"
    },
    {
      "channel": 3,
      "note": 53,
      "start": 330.8199,
      "duration": 0.0499,
      "velocity": 120,
      "chip": "ym2612"
    },
    {
      "channel": 4,
      "note": 65,
      "start": 330.8269,
      "duration": 0.1505,
      "velocity": 112,
      "chip": "ym2612"
    },
    {
      "channel": 0,
      "note": 41,
      "start": 330.9703,
      "duration": 0.3023,
      "velocity": 123,
      "chip": "ym2612"
    },
    {
      "channel": 1,
      "note": 65,
      "start": 330.971,
      "duration": 0.1169,
      "velocity": 109,
      "chip": "ym2612"
    },
    {
      "channel": 3,
      "note": 53,
      "start": 330.9722,
      "duration": 0.0494,
      "velocity": 120,
      "chip": "ym2612"
    },
    {
      "channel": 4,
      "note": 65,
      "start": 330.9785,
      "duration": 0.1506,
      "velocity": 112,
      "chip": "ym2612"
    },
    {
      "channel": 1,
      "note": 77,
      "start": 331.1218,
      "duration": 0.1178,
      "velocity": 111,
      "chip": "ym2612"
    },
    {
      "channel": 2,
      "note": 46,
      "start": 331.1226,
      "duration": 0.1681,
      "velocity": 124,
      "chip": "ym2612"
    },
    {
      "channel": 3,
      "note": 65,
      "start": 331.1233,
      "duration": 0.0499,
      "velocity": 120,
      "chip": "ym2612"
    },
    {
      "channel": 4,
      "note": 65,
      "start": 331.1303,
      "duration": 0.1505,
      "velocity": 112,
      "chip": "ym2612"
    },
    {
      "channel": 0,
      "note": 40,
      "start": 331.2737,
      "duration": 0.6056,
      "velocity": 127,
      "chip": "ym2612"
    },
    {
      "channel": 1,
      "note": 77,
      "start": 331.2744,
      "duration": 0.1169,
      "velocity": 112,
      "chip": "ym2612"
    },
    {
      "channel": 3,
      "note": 53,
      "start": 331.2756,
      "duration": 0.0493,
      "velocity": 120,
      "chip": "ym2612"
    },
    {
      "channel": 4,
      "note": 65,
      "start": 331.2819,
      "duration": 0.1506,
      "velocity": 112,
      "chip": "ym2612"
    },
    {
      "channel": 1,
      "note": 65,
      "start": 331.4252,
      "duration": 0.1178,
      "velocity": 109,
      "chip": "ym2612"
    },
    {
      "channel": 2,
      "note": 46,
      "start": 331.4259,
      "duration": 0.1511,
      "velocity": 124,
      "chip": "ym2612"
    },
    {
      "channel": 3,
      "note": 65,
      "start": 331.4266,
      "duration": 0.0499,
      "velocity": 120,
      "chip": "ym2612"
    },
    {
      "channel": 4,
      "note": 65,
      "start": 331.4336,
      "duration": 0.1505,
      "velocity": 112,
      "chip": "ym2612"
    },
    {
      "channel": 1,
      "note": 77,
      "start": 331.5769,
      "duration": 0.1178,
      "velocity": 108,
      "chip": "ym2612"
    },
    {
      "channel": 2,
      "note": 41,
      "start": 331.5776,
      "duration": 0.168,
      "velocity": 124,
      "chip": "ym2612"
    },
    {
      "channel": 3,
      "note": 53,
      "start": 331.5783,
      "duration": 0.05,
      "velocity": 120,
      "chip": "ym2612"
    },
    {
      "channel": 4,
      "note": 65,
      "start": 331.5847,
      "duration": 0.1511,
      "velocity": 112,
      "chip": "ym2612"
    },
    {
      "channel": 1,
      "note": 65,
      "start": 331.7285,
      "duration": 0.1177,
      "velocity": 112,
      "chip": "ym2612"
    },
    {
      "channel": 3,
      "note": 53,
      "start": 331.7298,
      "duration": 0.0501,
      "velocity": 120,
      "chip": "ym2612"
    },
    {
      "channel": 4,
      "note": 65,
      "start": 331.737,
      "duration": 0.1505,
      "velocity": 112,
      "chip": "ym2612"
    },
    {
      "channel": 0,
      "note": 40,
      "start": 331.8798,
      "duration": 0.3028,
      "velocity": 127,
      "chip": "ym2612"
    },
    {
      "channel": 1,
      "note": 65,
      "start": 331.8805,
      "duration": 0.1176,
      "velocity": 111,
      "chip": "ym2612"
    },
    {
      "channel": 2,
      "note": 50,
      "start": 331.8812,
      "duration": 0.151,
      "velocity": 124,
      "chip": "ym2612"
    },
    {
      "channel": 3,
      "note": 65,
      "start": 331.8819,
      "duration": 0.0497,
      "velocity": 120,
      "chip": "ym2612"
    },
    {
      "channel": 4,
      "note": 65,
      "start": 331.8887,
      "duration": 0.1505,
      "velocity": 112,
      "chip": "ym2612"
    },
    {
      "channel": 1,
      "note": 77,
      "start": 332.0319,
      "duration": 0.1178,
      "velocity": 109,
      "chip": "ym2612"
    },
    {
      "channel": 2,
      "note": 50,
      "start": 332.0326,
      "duration": 0.1681,
      "velocity": 124,
      "chip": "ym2612"
    },
    {
      "channel": 3,
      "note": 53,
      "start": 332.0334,
      "duration": 0.0499,
      "velocity": 120,
      "chip": "ym2612"
    },
    {
      "channel": 4,
      "note": 65,
      "start": 332.0404,
      "duration": 0.1505,
      "velocity": 112,
      "chip": "ym2612"
    },
    {
      "channel": 0,
      "note": 41,
      "start": 332.1838,
      "duration": 0.3022,
      "velocity": 123,
      "chip": "ym2612"
    },
    {
      "channel": 1,
      "note": 65,
      "start": 332.1844,
      "duration": 0.117,
      "velocity": 111,
      "chip": "ym2612"
    },
    {
      "channel": 3,
      "note": 53,
      "start": 332.1857,
      "duration": 0.0493,
      "velocity": 120,
      "chip": "ym2612"
    },
    {
      "channel": 4,
      "note": 65,
      "start": 332.192,
      "duration": 0.1505,
      "velocity": 112,
      "chip": "ym2612"
    },
    {
      "channel": 1,
      "note": 65,
      "start": 332.3353,
      "duration": 0.1178,
      "velocity": 112,
      "chip": "ym2612"
    },
    {
      "channel": 2,
      "note": 41,
      "start": 332.336,
      "duration": 0.152,
      "velocity": 124,
      "chip": "ym2612"
    },
    {
      "channel": 3,
      "note": 65,
      "start": 332.3367,
      "duration": 0.05,
      "velocity": 120,
      "chip": "ym2612"
    },
    {
      "channel": 4,
      "note": 65,
      "start": 332.3437,
      "duration": 0.1505,
      "velocity": 112,
      "chip": "ym2612"
    },
    {
      "channel": 0,
      "note": 40,
      "start": 332.4871,
      "duration": 0.3023,
      "velocity": 127,
      "chip": "ym2612"
    },
    {
      "channel": 1,
      "note": 65,
      "start": 332.4878,
      "duration": 0.117,
      "velocity": 108,
      "chip": "ym2612"
    },
    {
      "channel": 2,
      "note": 41,
      "start": 332.4885,
      "duration": 0.1673,
      "velocity": 124,
      "chip": "ym2612"
    },
    {
      "channel": 3,
      "note": 53,
      "start": 332.4892,
      "duration": 0.0491,
      "velocity": 120,
      "chip": "ym2612"
    },
    {
      "channel": 4,
      "note": 65,
      "start": 332.4954,
      "duration": 0.1505,
      "velocity": 112,
      "chip": "ym2612"
    },
    {
      "channel": 5,
      "note": 7,
      "start": 332.4961,
      "duration": 2.4264,
      "velocity": 1,
      "chip": "ym2612"
    },
    {
      "channel": 1,
      "note": 77,
      "start": 332.6387,
      "duration": 0.1178,
      "velocity": 109,
      "chip": "ym2612"
    },
    {
      "channel": 3,
      "note": 65,
      "start": 332.6399,
      "duration": 0.0502,
      "velocity": 120,
      "chip": "ym2612"
    },
    {
      "channel": 4,
      "note": 65,
      "start": 332.6471,
      "duration": 0.1505,
      "velocity": 112,
      "chip": "ym2612"
    },
    {
      "channel": 0,
      "note": 41,
      "start": 332.7905,
      "duration": 0.3022,
      "velocity": 123,
      "chip": "ym2612"
    },
    {
      "channel": 1,
      "note": 77,
      "start": 332.7912,
      "duration": 0.1168,
      "velocity": 110,
      "chip": "ym2612"
    },
    {
      "channel": 2,
      "note": 48,
      "start": 332.7919,
      "duration": 0.1503,
      "velocity": 124,
      "chip": "ym2612"
    },
    {
      "channel": 3,
      "note": 53,
      "start": 332.7926,
      "duration": 0.0492,
      "velocity": 120,
      "chip": "ym2612"
    },
    {
      "channel": 4,
      "note": 65,
      "start": 332.7988,
      "duration": 0.1505,
      "velocity": 112,
      "chip": "ym2612"
    },
    {
      "channel": 1,
      "note": 65,
      "start": 332.942,
      "duration": 0.1177,
      "velocity": 111,
      "chip": "ym2612"
    },
    {
      "channel": 2,
      "note": 48,
      "start": 332.9427,
      "duration": 0.1681,
      "velocity": 124,
      "chip": "ym2612"
    },
    {
      "channel": 3,
      "note": 53,
      "start": 332.9434,
      "duration": 0.0499,
      "velocity": 120,
      "chip": "ym2612"
    },
    {
      "channel": 4,
      "note": 65,
      "start": 332.9504,
      "duration": 0.1506,
      "velocity": 112,
      "chip": "ym2612"
    },
    {
      "channel": 0,
      "note": 40,
      "start": 333.0938,
      "duration": 0.6057,
      "velocity": 127,
      "chip": "ym2612"
    },
    {
      "channel": 1,
      "note": 77,
      "start": 333.0945,
      "duration": 0.1169,
      "velocity": 108,
      "chip": "ym2612"
    },
    {
      "channel": 3,
      "note": 65,
      "start": 333.0957,
      "duration": 0.0494,
      "velocity": 120,
      "chip": "ym2612"
    },
    {
      "channel": 4,
      "note": 65,
      "start": 333.1015,
      "duration": 0.1511,
      "velocity": 112,
      "chip": "ym2612"
    },
    {
      "channel": 1,
      "note": 65,
      "start": 333.2454,
      "duration": 0.1178,
      "velocity": 109,
      "chip": "ym2612"
    },
    {
      "channel": 2,
      "note": 41,
      "start": 333.2461,
      "duration": 0.1681,
      "velocity": 124,
      "chip": "ym2612"
    },
    {
      "channel": 3,
      "note": 53,
      "start": 333.2468,
      "duration": 0.0499,
      "velocity": 120,
      "chip": "ym2612"
    },
    {
      "channel": 4,
      "note": 65,
      "start": 333.2538,
      "duration": 0.1505,
      "velocity": 112,
      "chip": "ym2612"
    },
    {
      "channel": 1,
      "note": 65,
      "start": 333.3971,
      "duration": 0.1178,
      "velocity": 112,
      "chip": "ym2612"
    },
    {
      "channel": 3,
      "note": 53,
      "start": 333.3983,
      "duration": 0.0502,
      "velocity": 120,
      "chip": "ym2612"
    },
    {
      "channel": 4,
      "note": 65,
      "start": 333.4054,
      "duration": 0.1505,
      "velocity": 112,
      "chip": "ym2612"
    },
    {
      "channel": 1,
      "note": 77,
      "start": 333.5487,
      "duration": 0.1178,
      "velocity": 110,
      "chip": "ym2612"
    },
    {
      "channel": 2,
      "note": 46,
      "start": 333.5495,
      "duration": 0.168,
      "velocity": 124,
      "chip": "ym2612"
    },
    {
      "channel": 3,
      "note": 65,
      "start": 333.5502,
      "duration": 0.0499,
      "velocity": 120,
      "chip": "ym2612"
    },
    {
      "channel": 4,
      "note": 65,
      "start": 333.5572,
      "duration": 0.1505,
      "velocity": 112,
      "chip": "ym2612"
    },
    {
      "channel": 0,
      "note": 40,
      "start": 333.7,
      "duration": 0.3029,
      "velocity": 127,
      "chip": "ym2612"
    },
    {
      "channel": 1,
      "note": 77,
      "start": 333.7006,
      "duration": 0.1176,
      "velocity": 111,
      "chip": "ym2612"
    },
    {
      "channel": 3,
      "note": 53,
      "start": 333.7019,
      "duration": 0.05,
      "velocity": 120,
      "chip": "ym2612"
    },
    {
      "channel": 4,
      "note": 65,
      "start": 333.7088,
      "duration": 0.1505,
      "velocity": 112,
      "chip": "ym2612"
    },
    {
      "channel": 1,
      "note": 65,
      "start": 333.8521,
      "duration": 0.1177,
      "velocity": 108,
      "chip": "ym2612"
    },
    {
      "channel": 2,
      "note": 46,
      "start": 333.8528,
      "duration": 0.152,
      "velocity": 124,
      "chip": "ym2612"
    },
    {
      "channel": 3,
      "note": 65,
      "start": 333.8535,
      "duration": 0.0499,
      "velocity": 120,
      "chip": "ym2612"
    },
    {
      "channel": 4,
      "note": 65,
      "start": 333.8605,
      "duration": 0.1505,
      "velocity": 112,
      "chip": "ym2612"
    },
    {
      "channel": 0,
      "note": 41,
      "start": 334.0039,
      "duration": 0.3022,
      "velocity": 123,
      "chip": "ym2612"
    },
    {
      "channel": 1,
      "note": 77,
      "start": 334.0046,
      "duration": 0.1169,
      "velocity": 109,
      "chip": "ym2612"
    },
    {
      "channel": 2,
      "note": 41,
      "start": 334.0053,
      "duration": 0.1672,
      "velocity": 124,
      "chip": "ym2612"
    },
    {
      "channel": 3,
      "note": 53,
      "start": 334.006,
      "duration": 0.0491,
      "velocity": 120,
      "chip": "ym2612"
    },
    {
      "channel": 4,
      "note": 65,
      "start": 334.0122,
      "duration": 0.1505,
      "velocity": 112,
      "chip": "ym2612"
    },
    {
      "channel": 1,
      "note": 65,
      "start": 334.1554,
      "duration": 0.1178,
      "velocity": 112,
      "chip": "ym2612"
    },
    {
      "channel": 3,
      "note": 53,
      "start": 334.1567,
      "duration": 0.0502,
      "velocity": 120,
      "chip": "ym2612"
    },
    {
      "channel": 4,
      "note": 65,
      "start": 334.1639,
      "duration": 0.1505,
      "velocity": 112,
      "chip": "ym2612"
    },
    {
      "channel": 0,
      "note": 40,
      "start": 334.3073,
      "duration": 0.6056,
      "velocity": 127,
      "chip": "ym2612"
    },
    {
      "channel": 1,
      "note": 77,
      "start": 334.308,
      "duration": 0.1169,
      "velocity": 110,
      "chip": "ym2612"
    },
    {
      "channel": 2,
      "note": 46,
      "start": 334.3087,
      "duration": 0.1503,
      "velocity": 124,
      "chip": "ym2612"
    },
    {
      "channel": 3,
      "note": 65,
      "start": 334.3094,
      "duration": 0.0492,
      "velocity": 120,
      "chip": "ym2612"
    },
    {
      "channel": 4,
      "note": 65,
      "start": 334.3156,
      "duration": 0.1506,
      "velocity": 112,
      "chip": "ym2612"
    },
    {
      "channel": 1,
      "note": 65,
      "start": 334.4588,
      "duration": 0.1178,
      "velocity": 108,
      "chip": "ym2612"
    },
    {
      "channel": 2,
      "note": 46,
      "start": 334.4595,
      "duration": 0.1681,
      "velocity": 124,
      "chip": "ym2612"
    },
    {
      "channel": 3,
      "note": 53,
      "start": 334.4602,
      "duration": 0.05,
      "velocity": 120,
      "chip": "ym2612"
    },
    {
      "channel": 4,
      "note": 65,
      "start": 334.4666,
      "duration": 0.1511,
      "velocity": 112,
      "chip": "ym2612"
    },
    {
      "channel": 1,
      "note": 65,
      "start": 334.6105,
      "duration": 0.1178,
      "velocity": 109,
      "chip": "ym2612"
    },
    {
      "channel": 3,
      "note": 65,
      "start": 334.6117,
      "duration": 0.0501,
      "velocity": 120,
      "chip": "ym2612"
    },
    {
      "channel": 4,
      "note": 65,
      "start": 334.6189,
      "duration": 0.1505,
      "velocity": 112,
      "chip": "ym2612"
    },
    {
      "channel": 1,
      "note": 77,
      "start": 334.7622,
      "duration": 0.1178,
      "velocity": 112,
      "chip": "ym2612"
    },
    {
      "channel": 2,
      "note": 41,
      "start": 334.7629,
      "duration": 0.1514,
      "velocity": 124,
      "chip": "ym2612"
    },
    {
      "channel": 3,
      "note": 65,
      "start": 334.7636,
      "duration": 0.05,
      "velocity": 120,
      "chip": "ym2612"
    },
    {
      "channel": 4,
      "note": 65,
      "start": 334.7706,
      "duration": 0.1505,
      "velocity": 112,
      "chip": "ym2612"
    },
    {
      "channel": 0,
      "note": 40,
      "start": 334.9134,
      "duration": 0.3029,
      "velocity": 127,
      "chip": "ym2612"
    },
    {
      "channel": 1,
      "note": 65,
      "start": 334.9141,
      "duration": 0.1175,
      "velocity": 108,
      "chip": "ym2612"
    },
    {
      "channel": 2,
      "note": 41,
      "start": 334.9148,
      "duration": 0.1679,
      "velocity": 124,
      "chip": "ym2612"
    },
    {
      "channel": 3,
      "note": 53,
      "start": 334.9155,
      "duration": 0.0497,
      "velocity": 120,
      "chip": "ym2612"
    },
    {
      "channel": 4,
      "note": 65,
      "start": 334.9223,
      "duration": 0.1505,
      "velocity": 112,
      "chip": "ym2612"
    },
    {
      "channel": 5,
      "note": 7,
      "start": 334.923,
      "duration": 2.4264,
      "velocity": 1,
      "chip": "ym2612"
    },
    {
      "channel": 1,
      "note": 77,
      "start": 335.0656,
      "duration": 0.1178,
      "velocity": 108,
      "chip": "ym2612"
    },
    {
      "channel": 3,
      "note": 65,
      "start": 335.0668,
      "duration": 0.0501,
      "velocity": 120,
      "chip": "ym2612"
    },
    {
      "channel": 4,
      "note": 65,
      "start": 335.074,
      "duration": 0.1504,
      "velocity": 112,
      "chip": "ym2612"
    },
    {
      "channel": 0,
      "note": 41,
      "start": 335.2173,
      "duration": 0.3023,
      "velocity": 123,
      "chip": "ym2612"
    },
    {
      "channel": 1,
      "note": 77,
      "start": 335.218,
      "duration": 0.1169,
      "velocity": 112,
      "chip": "ym2612"
    },
    {
      "channel": 2,
      "note": 48,
      "start": 335.2188,
      "duration": 0.1504,
      "velocity": 124,
      "chip": "ym2612"
    },
    {
      "channel": 3,
      "note": 53,
      "start": 335.2195,
      "duration": 0.0492,
      "velocity": 120,
      "chip": "ym2612"
    },
    {
      "channel": 4,
      "note": 65,
      "start": 335.2256,
      "duration": 0.1506,
      "velocity": 112,
      "chip": "ym2612"
    },
    {
      "channel": 1,
      "note": 65,
      "start": 335.3689,
      "duration": 0.1178,
      "velocity": 109,
      "chip": "ym2612"
    },
    {
      "channel": 2,
      "note": 48,
      "start": 335.3696,
      "duration": 0.1681,
      "velocity": 124,
      "chip": "ym2612"
    },
    {
      "channel": 3,
      "note": 53,
      "start": 335.3703,
      "duration": 0.0499,
      "velocity": 120,
      "chip": "ym2612"
    },
    {
      "channel": 4,
      "note": 65,
      "start": 335.3773,
      "duration": 0.1505,
      "velocity": 112,
      "chip": "ym2612"
    },
    {
      "channel": 0,
      "note": 40,
      "start": 335.5207,
      "duration": 0.3023,
      "velocity": 127,
      "chip": "ym2612"
    },
    {
      "channel": 1,
      "note": 77,
      "start": 335.5214,
      "duration": 0.1169,
      "velocity": 108,
      "chip": "ym2612"
    },
    {
      "channel": 3,
      "note": 65,
      "start": 335.5226,
      "duration": 0.0494,
      "velocity": 120,
      "chip": "ym2612"
    },
    {
      "channel": 4,
      "note": 65,
      "start": 335.529,
      "duration": 0.1505,
      "velocity": 112,
      "chip": "ym2612"
    },
    {
      "channel": 1,
      "note": 65,
      "start": 335.6722,
      "duration": 0.1179,
      "velocity": 110,
      "chip": "ym2612"
    },
    {
      "channel": 2,
      "note": 41,
      "start": 335.6729,
      "duration": 0.1682,
      "velocity": 124,
      "chip": "ym2612"
    },
    {
      "channel": 3,
      "note": 53,
      "start": 335.6738,
      "duration": 0.05,
      "velocity": 120,
      "chip": "ym2612"
    },
    {
      "channel": 4,
      "note": 65,
      "start": 335.6807,
      "duration": 0.1505,
      "velocity": 112,
      "chip": "ym2612"
    },
    {
      "channel": 0,
      "note": 41,
      "start": 335.8241,
      "duration": 0.3022,
      "velocity": 123,
      "chip": "ym2612"
    },
    {
      "channel": 1,
      "note": 65,
      "start": 335.8248,
      "duration": 0.1169,
      "velocity": 109,
      "chip": "ym2612"
    },
    {
      "channel": 3,
      "note": 53,
      "start": 335.8261,
      "duration": 0.0493,
      "velocity": 120,
      "chip": "ym2612"
    },
    {
      "channel": 4,
      "note": 65,
      "start": 335.8324,
      "duration": 0.1505,
      "velocity": 112,
      "chip": "ym2612"
    },
    {
      "channel": 1,
      "note": 77,
      "start": 335.9756,
      "duration": 0.1177,
      "velocity": 111,
      "chip": "ym2612"
    },
    {
      "channel": 2,
      "note": 46,
      "start": 335.9763,
      "duration": 0.1681,
      "velocity": 124,
      "chip": "ym2612"
    },
    {
      "channel": 3,
      "note": 65,
      "start": 335.9771,
      "duration": 0.0499,
      "velocity": 120,
      "chip": "ym2612"
    },
    {
      "channel": 4,
      "note": 65,
      "start": 335.9841,
      "duration": 0.1505,
      "velocity": 112,
      "chip": "ym2612"
    },
    {
      "channel": 0,
      "note": 40,
      "start": 336.1275,
      "duration": 0.6057,
      "velocity": 127,
      "chip": "ym2612"
    },
    {
      "channel": 1,
      "note": 77,
      "start": 336.1281,
      "duration": 0.117,
      "velocity": 112,
      "chip": "ym2612"
    },
    {
      "channel": 3,
      "note": 53,
      "start": 336.1294,
      "duration": 0.0493,
      "velocity": 120,
      "chip": "ym2612"
    },
    {
      "channel": 4,
      "note": 65,
      "start": 336.1357,
      "duration": 0.1505,
      "velocity": 112,
      "chip": "ym2612"
    },
    {
      "channel": 1,
      "note": 65,
      "start": 336.279,
      "duration": 0.1178,
      "velocity": 109,
      "chip": "ym2612"
    },
    {
      "channel": 2,
      "note": 46,
      "start": 336.2797,
      "duration": 0.1512,
      "velocity": 124,
      "chip": "ym2612"
    },
    {
      "channel": 3,
      "note": 65,
      "start": 336.2804,
      "duration": 0.05,
      "velocity": 120,
      "chip": "ym2612"
    },
    {
      "channel": 4,
      "note": 65,
      "start": 336.2874,
      "duration": 0.1506,
      "velocity": 112,
      "chip": "ym2612"
    },
    {
      "channel": 1,
      "note": 77,
      "start": 336.4306,
      "duration": 0.1178,
      "velocity": 108,
      "chip": "ym2612"
    },
    {
      "channel": 2,
      "note": 41,
      "start": 336.4314,
      "duration": 0.1681,
      "velocity": 124,
      "chip": "ym2612"
    },
    {
      "channel": 3,
      "note": 53,
      "start": 336.4321,
      "duration": 0.0499,
      "velocity": 120,
      "chip": "ym2612"
    },
    {
      "channel": 4,
      "note": 65,
      "start": 336.4385,
      "duration": 0.1511,
      "velocity": 112,
      "chip": "ym2612"
    },
    {
      "channel": 1,
      "note": 65,
      "start": 336.5824,
      "duration": 0.1178,
      "velocity": 112,
      "chip": "ym2612"
    },
    {
      "channel": 3,
      "note": 53,
      "start": 336.5836,
      "duration": 0.0502,
      "velocity": 120,
      "chip": "ym2612"
    },
    {
      "channel": 4,
      "note": 65,
      "start": 336.5908,
      "duration": 0.1505,
      "velocity": 112,
      "chip": "ym2612"
    },
    {
      "channel": 0,
      "note": 40,
      "start": 336.7336,
      "duration": 0.3029,
      "velocity": 127,
      "chip": "ym2612"
    },
    {
      "channel": 1,
      "note": 65,
      "start": 336.7343,
      "duration": 0.1176,
      "velocity": 111,
      "chip": "ym2612"
    },
    {
      "channel": 2,
      "note": 50,
      "start": 336.735,
      "duration": 0.151,
      "velocity": 124,
      "chip": "ym2612"
    },
    {
      "channel": 3,
      "note": 65,
      "start": 336.7357,
      "duration": 0.0498,
      "velocity": 120,
      "chip": "ym2612"
    },
    {
      "channel": 4,
      "note": 65,
      "start": 336.7425,
      "duration": 0.1505,
      "velocity": 112,
      "chip": "ym2612"
    },
    {
      "channel": 1,
      "note": 77,
      "start": 336.8857,
      "duration": 0.1177,
      "velocity": 109,
      "chip": "ym2612"
    },
    {
      "channel": 2,
      "note": 50,
      "start": 336.8864,
      "duration": 0.168,
      "velocity": 124,
      "chip": "ym2612"
    },
    {
      "channel": 3,
      "note": 53,
      "start": 336.8871,
      "duration": 0.05,
      "velocity": 120,
      "chip": "ym2612"
    },
    {
      "channel": 4,
      "note": 65,
      "start": 336.8941,
      "duration": 0.1505,
      "velocity": 112,
      "chip": "ym2612"
    },
    {
      "channel": 0,
      "note": 41,
      "start": 337.0375,
      "duration": 0.3023,
      "velocity": 123,
      "chip": "ym2612"
    },
    {
      "channel": 1,
      "note": 65,
      "start": 337.0382,
      "duration": 0.1169,
      "velocity": 111,
      "chip": "ym2612"
    },
    {
      "channel": 3,
      "note": 53,
      "start": 337.0394,
      "duration": 0.0493,
      "velocity": 120,
      "chip": "ym2612"
    },
    {
      "channel": 4,
      "note": 65,
      "start": 337.0459,
      "duration": 0.1505,
      "velocity": 112,
      "chip": "ym2612"
    },
    {
      "channel": 1,
      "note": 65,
      "start": 337.1891,
      "duration": 0.1178,
      "velocity": 112,
      "chip": "ym2612"
    },
    {
      "channel": 2,
      "note": 41,
      "start": 337.1898,
      "duration": 0.152,
      "velocity": 124,
      "chip": "ym2612"
    },
    {
      "channel": 3,
      "note": 65,
      "start": 337.1906,
      "duration": 0.0499,
      "velocity": 120,
      "chip": "ym2612"
    },
    {
      "channel": 4,
      "note": 65,
      "start": 337.1975,
      "duration": 0.1505,
      "velocity": 112,
      "chip": "ym2612"
    },
    {
      "channel": 0,
      "note": 40,
      "start": 337.341,
      "duration": 0.3022,
      "velocity": 127,
      "chip": "ym2612"
    },
    {
      "channel": 1,
      "note": 65,
      "start": 337.3417,
      "duration": 0.1168,
      "velocity": 108,
      "chip": "ym2612"
    },
    {
      "channel": 2,
      "note": 41,
      "start": 337.3424,
      "duration": 0.1672,
      "velocity": 124,
      "chip": "ym2612"
    },
    {
      "channel": 3,
      "note": 53,
      "start": 337.343,
      "duration": 0.0492,
      "velocity": 120,
      "chip": "ym2612"
    },
    {
      "channel": 4,
      "note": 65,
      "start": 337.3492,
      "duration": 0.1506,
      "velocity": 112,
      "chip": "ym2612"
    },
    {
      "channel": 5,
      "note": 7,
      "start": 337.3499,
      "duration": 2.4264,
      "velocity": 1,
      "chip": "ym2612"
    },
    {
      "channel": 1,
      "note": 77,
      "start": 337.4924,
      "duration": 0.1178,
      "velocity": 109,
      "chip": "ym2612"
    },
    {
      "channel": 3,
      "note": 65,
      "start": 337.4937,
      "duration": 0.0501,
      "velocity": 120,
      "chip": "ym2612"
    },
    {
      "channel": 4,
      "note": 65,
      "start": 337.5009,
      "duration": 0.1505,
      "velocity": 112,
      "chip": "ym2612"
    },
    {
      "channel": 0,
      "note": 41,
      "start": 337.6443,
      "duration": 0.3023,
      "velocity": 123,
      "chip": "ym2612"
    },
    {
      "channel": 1,
      "note": 77,
      "start": 337.645,
      "duration": 0.1169,
      "velocity": 110,
      "chip": "ym2612"
    },
    {
      "channel": 2,
      "note": 48,
      "start": 337.6456,
      "duration": 0.1504,
      "velocity": 124,
      "chip": "ym2612"
    },
    {
      "channel": 3,
      "note": 53,
      "start": 337.6463,
      "duration": 0.0492,
      "velocity": 120,
      "chip": "ym2612"
    },
    {
      "channel": 4,
      "note": 65,
      "start": 337.6525,
      "duration": 0.1505,
      "velocity": 112,
      "chip": "ym2612"
    },
    {
      "channel": 1,
      "note": 65,
      "start": 337.7958,
      "duration": 0.1178,
      "velocity": 111,
      "chip": "ym2612"
    },
    {
      "channel": 2,
      "note": 48,
      "start": 337.7965,
      "duration": 0.1681,
      "velocity": 124,
      "chip": "ym2612"
    },
    {
      "channel": 3,
      "note": 53,
      "start": 337.7973,
      "duration": 0.0499,
      "velocity": 120,
      "chip": "ym2612"
    },
    {
      "channel": 4,
      "note": 65,
      "start": 337.8042,
      "duration": 0.1505,
      "velocity": 112,
      "chip": "ym2612"
    },
    {
      "channel": 0,
      "note": 40,
      "start": 337.9476,
      "duration": 0.6057,
      "velocity": 127,
      "chip": "ym2612"
    },
    {
      "channel": 1,
      "note": 77,
      "start": 337.9483,
      "duration": 0.1169,
      "velocity": 108,
      "chip": "ym2612"
    },
    {
      "channel": 3,
      "note": 65,
      "start": 337.9495,
      "duration": 0.0493,
      "velocity": 120,
      "chip": "ym2612"
    },
    {
      "channel": 4,
      "note": 65,
      "start": 337.9553,
      "duration": 0.1511,
      "velocity": 112,
      "chip": "ym2612"
    },
    {
      "channel": 1,
      "note": 65,
      "start": 338.0992,
      "duration": 0.1177,
      "velocity": 109,
      "chip": "ym2612"
    },
    {
      "channel": 2,
      "note": 41,
      "start": 338.0999,
      "duration": 0.1681,
      "velocity": 124,
      "chip": "ym2612"
    },
    {
      "channel": 3,
      "note": 53,
      "start": 338.1006,
      "duration": 0.0499,
      "velocity": 120,
      "chip": "ym2612"
    },
    {
      "channel": 4,
      "note": 65,
      "start": 338.1076,
      "duration": 0.1505,
      "velocity": 112,
      "chip": "ym2612"
    },
    {
      "channel": 1,
      "note": 65,
      "start": 338.2509,
      "duration": 0.1178,
      "velocity": 112,
      "chip": "ym2612"
    },
    {
      "channel": 3,
      "note": 53,
      "start": 338.2521,
      "duration": 0.0501,
      "velocity": 120,
      "chip": "ym2612"
    },
    {
      "channel": 4,
      "note": 65,
      "start": 338.2593,
      "duration": 0.1505,
      "velocity": 112,
      "chip": "ym2612"
    },
    {
      "channel": 1,
      "note": 77,
      "start": 338.4025,
      "duration": 0.1178,
      "velocity": 110,
      "chip": "ym2612"
    },
    {
      "channel": 2,
      "note": 46,
      "start": 338.4032,
      "duration": 0.1681,
      "velocity": 124,
      "chip": "ym2612"
    },
    {
      "channel": 3,
      "note": 65,
      "start": 338.4039,
      "duration": 0.05,
      "velocity": 120,
      "chip": "ym2612"
    },
    {
      "channel": 4,
      "note": 65,
      "start": 338.4109,
      "duration": 0.1506,
      "velocity": 112,
      "chip": "ym2612"
    },
    {
      "channel": 0,
      "note": 40,
      "start": 338.5537,
      "duration": 0.3029,
      "velocity": 127,
      "chip": "ym2612"
    },
    {
      "channel": 1,
      "note": 77,
      "start": 338.5544,
      "duration": 0.1176,
      "velocity": 111,
      "chip": "ym2612"
    },
    {
      "channel": 3,
      "note": 53,
      "start": 338.5556,
      "duration": 0.0499,
      "velocity": 120,
      "chip": "ym2612"
    },
    {
      "channel": 4,
      "note": 65,
      "start": 338.5626,
      "duration": 0.1505,
      "velocity": 112,
      "chip": "ym2612"
    },
    {
      "channel": 1,
      "note": 65,
      "start": 338.7059,
      "duration": 0.1178,
      "velocity": 108,
      "chip": "ym2612"
    },
    {
      "channel": 2,
      "note": 46,
      "start": 338.7066,
      "duration": 0.152,
      "velocity": 124,
      "chip": "ym2612"
    },
    {
      "channel": 3,
      "note": 65,
      "start": 338.7074,
      "duration": 0.0499,
      "velocity": 120,
      "chip": "ym2612"
    },
    {
      "channel": 4,
      "note": 65,
      "start": 338.7143,
      "duration": 0.1505,
      "velocity": 112,
      "chip": "ym2612"
    },
    {
      "channel": 0,
      "note": 41,
      "start": 338.8577,
      "duration": 0.3022,
      "velocity": 123,
      "chip": "ym2612"
    },
    {
      "channel": 1,
      "note": 77,
      "start": 338.8584,
      "duration": 0.1169,
      "velocity": 109,
      "chip": "ym2612"
    },
    {
      "channel": 2,
      "note": 41,
      "start": 338.8591,
      "duration": 0.1672,
      "velocity": 124,
      "chip": "ym2612"
    },
    {
      "channel": 3,
      "note": 53,
      "start": 338.8598,
      "duration": 0.0492,
      "velocity": 120,
      "chip": "ym2612"
    },
    {
      "channel": 4,
      "note": 65,
      "start": 338.866,
      "duration": 0.1505,
      "velocity": 112,
      "chip": "ym2612"
    },
    {
      "channel": 1,
      "note": 65,
      "start": 339.0093,
      "duration": 0.1177,
      "velocity": 112,
      "chip": "ym2612"
    },
    {
      "channel": 3,
      "note": 53,
      "start": 339.0105,
      "duration": 0.0502,
      "velocity": 120,
      "chip": "ym2612"
    },
    {
      "channel": 4,
      "note": 65,
      "start": 339.0177,
      "duration": 0.1505,
      "velocity": 112,
      "chip": "ym2612"
    },
    {
      "channel": 0,
      "note": 40,
      "start": 339.161,
      "duration": 0.6057,
      "velocity": 127,
      "chip": "ym2612"
    },
    {
      "channel": 1,
      "note": 77,
      "start": 339.1617,
      "duration": 0.1169,
      "velocity": 110,
      "chip": "ym2612"
    },
    {
      "channel": 2,
      "note": 46,
      "start": 339.1624,
      "duration": 0.1504,
      "velocity": 124,
      "chip": "ym2612"
    },
    {
      "channel": 3,
      "note": 65,
      "start": 339.1632,
      "duration": 0.0492,
      "velocity": 120,
      "chip": "ym2612"
    },
    {
      "channel": 4,
      "note": 65,
      "start": 339.1694,
      "duration": 0.1505,
      "velocity": 112,
      "chip": "ym2612"
    },
    {
      "channel": 1,
      "note": 65,
      "start": 339.3126,
      "duration": 0.1178,
      "velocity": 108,
      "chip": "ym2612"
    },
    {
      "channel": 2,
      "note": 46,
      "start": 339.3133,
      "duration": 0.1681,
      "velocity": 124,
      "chip": "ym2612"
    },
    {
      "channel": 3,
      "note": 53,
      "start": 339.314,
      "duration": 0.0499,
      "velocity": 120,
      "chip": "ym2612"
    },
    {
      "channel": 4,
      "note": 65,
      "start": 339.3205,
      "duration": 0.1511,
      "velocity": 112,
      "chip": "ym2612"
    },
    {
      "channel": 1,
      "note": 65,
      "start": 339.4643,
      "duration": 0.1178,
      "velocity": 109,
      "chip": "ym2612"
    },
    {
      "channel": 3,
      "note": 65,
      "start": 339.4655,
      "duration": 0.0502,
      "velocity": 120,
      "chip": "ym2612"
    },
    {
      "channel": 4,
      "note": 65,
      "start": 339.4727,
      "duration": 0.1506,
      "velocity": 112,
      "chip": "ym2612"
    },
    {
      "channel": 1,
      "note": 77,
      "start": 339.6159,
      "duration": 0.1178,
      "velocity": 112,
      "chip": "ym2612"
    },
    {
      "channel": 2,
      "note": 41,
      "start": 339.6167,
      "duration": 0.1514,
      "velocity": 124,
      "chip": "ym2612"
    },
    {
      "channel": 3,
      "note": 65,
      "start": 339.6174,
      "duration": 0.0499,
      "velocity": 120,
      "chip": "ym2612"
    },
    {
      "channel": 4,
      "note": 65,
      "start": 339.6245,
      "duration": 0.1505,
      "velocity": 112,
      "chip": "ym2612"
    },
    {
      "channel": 0,
      "note": 40,
      "start": 339.7672,
      "duration": 0.3029,
      "velocity": 127,
      "chip": "ym2612"
    },
    {
      "channel": 1,
      "note": 65,
      "start": 339.7678,
      "duration": 0.1176,
      "velocity": 108,
      "chip": "ym2612"
    },
    {
      "channel": 2,
      "note": 41,
      "start": 339.7686,
      "duration": 0.1679,
      "velocity": 124,
      "chip": "ym2612"
    },
    {
      "channel": 3,
      "note": 53,
      "start": 339.7693,
      "duration": 0.0498,
      "velocity": 120,
      "chip": "ym2612"
    },
    {
      "channel": 4,
      "note": 65,
      "start": 339.7761,
      "duration": 0.1505,
      "velocity": 112,
      "chip": "ym2612"
    },
    {
      "channel": 5,
      "note": 7,
      "start": 339.7768,
      "duration": 2.4264,
      "velocity": 1,
      "chip": "ym2612"
    },
    {
      "channel": 1,
      "note": 77,
      "start": 339.9193,
      "duration": 0.1178,
      "velocity": 108,
      "chip": "ym2612"
    },
    {
      "channel": 3,
      "note": 65,
      "start": 339.9206,
      "duration": 0.0501,
      "velocity": 120,
      "chip": "ym2612"
    },
    {
      "channel": 4,
      "note": 65,
      "start": 339.9278,
      "duration": 0.1505,
      "velocity": 112,
      "chip": "ym2612"
    },
    {
      "channel": 0,
      "note": 41,
      "start": 340.0712,
      "duration": 0.3023,
      "velocity": 123,
      "chip": "ym2612"
    },
    {
      "channel": 1,
      "note": 77,
      "start": 340.0719,
      "duration": 0.1169,
      "velocity": 112,
      "chip": "ym2612"
    },
    {
      "channel": 2,
      "note": 48,
      "start": 340.0726,
      "duration": 0.1504,
      "velocity": 124,
      "chip": "ym2612"
    },
    {
      "channel": 3,
      "note": 53,
      "start": 340.0733,
      "duration": 0.0492,
      "velocity": 120,
      "chip": "ym2612"
    },
    {
      "channel": 4,
      "note": 65,
      "start": 340.0794,
      "duration": 0.1505,
      "velocity": 112,
      "chip": "ym2612"
    },
    {
      "channel": 1,
      "note": 65,
      "start": 340.2227,
      "duration": 0.1178,
      "velocity": 109,
      "chip": "ym2612"
    },
    {
      "channel": 2,
      "note": 48,
      "start": 340.2234,
      "duration": 0.1681,
      "velocity": 124,
      "chip": "ym2612"
    },
    {
      "channel": 3,
      "note": 53,
      "start": 340.2242,
      "duration": 0.0499,
      "velocity": 120,
      "chip": "ym2612"
    },
    {
      "channel": 4,
      "note": 65,
      "start": 340.2311,
      "duration": 0.1506,
      "velocity": 112,
      "chip": "ym2612"
    },
    {
      "channel": 0,
      "note": 40,
      "start": 340.3745,
      "duration": 0.3022,
      "velocity": 127,
      "chip": "ym2612"
    },
    {
      "channel": 1,
      "note": 77,
      "start": 340.3752,
      "duration": 0.1169,
      "velocity": 108,
      "chip": "ym2612"
    },
    {
      "channel": 3,
      "note": 65,
      "start": 340.3765,
      "duration": 0.0492,
      "velocity": 120,
      "chip": "ym2612"
    },
    {
      "channel": 4,
      "note": 65,
      "start": 340.3828,
      "duration": 0.1505,
      "velocity": 112,
      "chip": "ym2612"
    },
    {
      "channel": 1,
      "note": 65,
      "start": 340.5261,
      "duration": 0.1178,
      "velocity": 110,
      "chip": "ym2612"
    },
    {
      "channel": 2,
      "note": 41,
      "start": 340.5268,
      "duration": 0.1681,
      "velocity": 124,
      "chip": "ym2612"
    },
    {
      "channel": 3,
      "note": 53,
      "start": 340.5275,
      "duration": 0.05,
      "velocity": 120,
      "chip": "ym2612"
    },
    {
      "channel": 4,
      "note": 65,
      "start": 340.5345,
      "duration": 0.1506,
      "velocity": 112,
      "chip": "ym2612"
    },
    {
      "channel": 0,
      "note": 41,
      "start": 340.6778,
      "duration": 0.3023,
      "velocity": 123,
      "chip": "ym2612"
    },
    {
      "channel": 1,
      "note": 65,
      "start": 340.6785,
      "duration": 0.117,
      "velocity": 109,
      "chip": "ym2612"
    },
    {
      "channel": 3,
      "note": 53,
      "start": 340.6798,
      "duration": 0.0493,
      "velocity": 120,
      "chip": "ym2612"
    },
    {
      "channel": 4,
      "note": 65,
      "start": 340.6862,
      "duration": 0.1505,
      "velocity": 112,
      "chip": "ym2612"
    },
    {
      "channel": 1,
      "note": 77,
      "start": 340.8294,
      "duration": 0.1178,
      "velocity": 111,
      "chip": "ym2612"
    },
    {
      "channel": 2,
      "note": 46,
      "start": 340.8301,
      "duration": 0.1681,
      "velocity": 124,
      "chip": "ym2612"
    },
    {
      "channel": 3,
      "note": 65,
      "start": 340.8308,
      "duration": 0.05,
      "velocity": 120,
      "chip": "ym2612"
    },
    {
      "channel": 4,
      "note": 65,
      "start": 340.8378,
      "duration": 0.1505,
      "velocity": 112,
      "chip": "ym2612"
    },
    {
      "channel": 0,
      "note": 40,
      "start": 340.9812,
      "duration": 0.6056,
      "velocity": 127,
      "chip": "ym2612"
    },
    {
      "channel": 1,
      "note": 77,
      "start": 340.9819,
      "duration": 0.117,
      "velocity": 112,
      "chip": "ym2612"
    },
    {
      "channel": 3,
      "note": 53,
      "start": 340.9831,
      "duration": 0.0494,
      "velocity": 120,
      "chip": "ym2612"
    },
    {
      "channel": 4,
      "note": 65,
      "start": 340.9895,
      "duration": 0.1505,
      "velocity": 112,
      "chip": "ym2612"
    },
    {
      "channel": 1,
      "note": 65,
      "start": 341.1328,
      "duration": 0.1177,
      "velocity": 109,
      "chip": "ym2612"
    },
    {
      "channel": 2,
      "note": 46,
      "start": 341.1335,
      "duration": 0.1512,
      "velocity": 124,
      "chip": "ym2612"
    },
    {
      "channel": 3,
      "note": 65,
      "start": 341.1342,
      "duration": 0.05,
      "velocity": 120,
      "chip": "ym2612"
    },
    {
      "channel": 4,
      "note": 65,
      "start": 341.1413,
      "duration": 0.1505,
      "velocity": 112,
      "chip": "ym2612"
    },
    {
      "channel": 1,
      "note": 77,
      "start": 341.2845,
      "duration": 0.1177,
      "velocity": 108,
      "chip": "ym2612"
    },
    {
      "channel": 2,
      "note": 41,
      "start": 341.2852,
      "duration": 0.1681,
      "velocity": 124,
      "chip": "ym2612"
    },
    {
      "channel": 3,
      "note": 53,
      "start": 341.2859,
      "duration": 0.0499,
      "velocity": 120,
      "chip": "ym2612"
    },
    {
      "channel": 4,
      "note": 65,
      "start": 341.2923,
      "duration": 0.1511,
      "velocity": 112,
      "chip": "ym2612"
    },
    {
      "channel": 1,
      "note": 65,
      "start": 341.4362,
      "duration": 0.1178,
      "velocity": 112,
      "chip": "ym2612"
    },
    {
      "channel": 3,
      "note": 53,
      "start": 341.4374,
      "duration": 0.0501,
      "velocity": 120,
      "chip": "ym2612"
    },
    {
      "channel": 4,
      "note": 65,
      "start": 341.4446,
      "duration": 0.1505,
      "velocity": 112,
      "chip": "ym2612"
    },
    {
      "channel": 0,
      "note": 40,
      "start": 341.5874,
      "duration": 0.3029,
      "velocity": 127,
      "chip": "ym2612"
    },
    {
      "channel": 1,
      "note": 65,
      "start": 341.5881,
      "duration": 0.1175,
      "velocity": 111,
      "chip": "ym2612"
    },
    {
      "channel": 2,
      "note": 50,
      "start": 341.5888,
      "duration": 0.151,
      "velocity": 124,
      "chip": "ym2612"
    },
    {
      "channel": 3,
      "note": 65,
      "start": 341.5895,
      "duration": 0.0498,
      "velocity": 120,
      "chip": "ym2612"
    },
    {
      "channel": 4,
      "note": 65,
      "start": 341.5962,
      "duration": 0.1506,
      "velocity": 112,
      "chip": "ym2612"
    },
    {
      "channel": 1,
      "note": 77,
      "start": 341.7395,
      "duration": 0.1178,
      "velocity": 109,
      "chip": "ym2612"
    },
    {
      "channel": 2,
      "note": 50,
      "start": 341.7402,
      "duration": 0.1681,
      "velocity": 124,
      "chip": "ym2612"
    },
    {
      "channel": 3,
      "note": 53,
      "start": 341.741,
      "duration": 0.0499,
      "velocity": 120,
      "chip": "ym2612"
    },
    {
      "channel": 4,
      "note": 65,
      "start": 341.7479,
      "duration": 0.1505,
      "velocity": 112,
      "chip": "ym2612"
    },
    {
      "channel": 0,
      "note": 41,
      "start": 341.8914,
      "duration": 0.3022,
      "velocity": 123,
      "chip": "ym2612"
    },
    {
      "channel": 1,
      "note": 65,
      "start": 341.892,
      "duration": 0.1169,
      "velocity": 111,
      "chip": "ym2612"
    },
    {
      "channel": 3,
      "note": 53,
      "start": 341.8933,
      "duration": 0.0493,
      "velocity": 120,
      "chip": "ym2612"
    },
    {
      "channel": 4,
      "note": 65,
      "start": 341.8996,
      "duration": 0.1505,
      "velocity": 112,
      "chip": "ym2612"
    },
    {
      "channel": 1,
      "note": 65,
      "start": 342.0429,
      "duration": 0.1178,
      "velocity": 112,
      "chip": "ym2612"
    },
    {
      "channel": 2,
      "note": 41,
      "start": 342.0436,
      "duration": 0.152,
      "velocity": 124,
      "chip": "ym2612"
    },
    {
      "channel": 3,
      "note": 65,
      "start": 342.0443,
      "duration": 0.0499,
      "velocity": 120,
      "chip": "ym2612"
    },
    {
      "channel": 4,
      "note": 65,
      "start": 342.0513,
      "duration": 0.1505,
      "velocity": 112,
      "chip": "ym2612"
    },
    {
      "channel": 0,
      "note": 40,
      "start": 342.1947,
      "duration": 0.3022,
      "velocity": 127,
      "chip": "ym2612"
    },
    {
      "channel": 1,
      "note": 65,
      "start": 342.1954,
      "duration": 0.1169,
      "velocity": 108,
      "chip": "ym2612"
    },
    {
      "channel": 2,
      "note": 41,
      "start": 342.1961,
      "duration": 0.1672,
      "velocity": 124,
      "chip": "ym2612"
    },
    {
      "channel": 3,
      "note": 53,
      "start": 342.1968,
      "duration": 0.0492,
      "velocity": 120,
      "chip": "ym2612"
    },
    {
      "channel": 4,
      "note": 65,
      "start": 342.203,
      "duration": 0.1505,
      "velocity": 112,
      "chip": "ym2612"
    },
    {
      "channel": 5,
      "note": 7,
      "start": 342.2037,
      "duration": 2.4266,
      "velocity": 1,
      "chip": "ym2612"
    },
    {
      "channel": 1,
      "note": 77,
      "start": 342.3462,
      "duration": 0.1177,
      "velocity": 109,
      "chip": "ym2612"
    },
    {
      "channel": 3,
      "note": 65,
      "start": 342.3475,
      "duration": 0.0501,
      "velocity": 120,
      "chip": "ym2612"
    },
    {
      "channel": 4,
      "note": 65,
      "start": 342.3546,
      "duration": 0.1506,
      "velocity": 112,
      "chip": "ym2612"
    },
    {
      "channel": 0,
      "note": 41,
      "start": 342.4981,
      "duration": 0.3022,
      "velocity": 123,
      "chip": "ym2612"
    },
    {
      "channel": 1,
      "note": 77,
      "start": 342.4987,
      "duration": 0.117,
      "velocity": 110,
      "chip": "ym2612"
    },
    {
      "channel": 2,
      "note": 48,
      "start": 342.4995,
      "duration": 0.1503,
      "velocity": 124,
      "chip": "ym2612"
    },
    {
      "channel": 3,
      "note": 53,
      "start": 342.5002,
      "duration": 0.0491,
      "velocity": 120,
      "chip": "ym2612"
    },
    {
      "channel": 4,
      "note": 65,
      "start": 342.5063,
      "duration": 0.1506,
      "velocity": 112,
      "chip": "ym2612"
    },
    {
      "channel": 1,
      "note": 65,
      "start": 342.6496,
      "duration": 0.1178,
      "velocity": 111,
      "chip": "ym2612"
    },
    {
      "channel": 2,
      "note": 48,
      "start": 342.6503,
      "duration": 0.1681,
      "velocity": 124,
      "chip": "ym2612"
    },
    {
      "channel": 3,
      "note": 53,
      "start": 342.651,
      "duration": 0.05,
      "velocity": 120,
      "chip": "ym2612"
    },
    {
      "channel": 4,
      "note": 65,
      "start": 342.658,
      "duration": 0.1505,
      "velocity": 112,
      "chip": "ym2612"
    },
    {
      "channel": 0,
      "note": 40,
      "start": 342.8014,
      "duration": 0.6057,
      "velocity": 127,
      "chip": "ym2612"
    },
    {
      "channel": 1,
      "note": 77,
      "start": 342.8021,
      "duration": 0.117,
      "velocity": 108,
      "chip": "ym2612"
    },
    {
      "channel": 3,
      "note": 65,
      "start": 342.8034,
      "duration": 0.0493,
      "velocity": 120,
      "chip": "ym2612"
    },
    {
      "channel": 4,
      "note": 65,
      "start": 342.8091,
      "duration": 0.1511,
      "velocity": 112,
      "chip": "ym2612"
    },
    {
      "channel": 1,
      "note": 65,
      "start": 342.953,
      "duration": 0.1178,
      "velocity": 109,
      "chip": "ym2612"
    },
    {
      "channel": 2,
      "note": 41,
      "start": 342.9537,
      "duration": 0.1681,
      "velocity": 124,
      "chip": "ym2612"
    },
    {
      "channel": 3,
      "note": 53,
      "start": 342.9544,
      "duration": 0.05,
      "velocity": 120,
      "chip": "ym2612"
    },
    {
      "channel": 4,
      "note": 65,
      "start": 342.9614,
      "duration": 0.1505,
      "velocity": 112,
      "chip": "ym2612"
    },
    {
      "channel": 1,
      "note": 65,
      "start": 343.1046,
      "duration": 0.1178,
      "velocity": 112,
      "chip": "ym2612"
    },
    {
      "channel": 3,
      "note": 53,
      "start": 343.1059,
      "duration": 0.0501,
      "velocity": 120,
      "chip": "ym2612"
    },
    {
      "channel": 4,
      "note": 65,
      "start": 343.1131,
      "duration": 0.1505,
      "velocity": 112,
      "chip": "ym2612"
    },
    {
      "channel": 1,
      "note": 77,
      "start": 343.2563,
      "duration": 0.1178,
      "velocity": 110,
      "chip": "ym2612"
    },
    {
      "channel": 2,
      "note": 46,
      "start": 343.2571,
      "duration": 0.168,
      "velocity": 124,
      "chip": "ym2612"
    },
    {
      "channel": 3,
      "note": 65,
      "start": 343.2578,
      "duration": 0.0499,
      "velocity": 120,
      "chip": "ym2612"
    },
    {
      "channel": 4,
      "note": 65,
      "start": 343.2647,
      "duration": 0.1505,
      "velocity": 112,
      "chip": "ym2612"
    },
    {
      "channel": 0,
      "note": 40,
      "start": 343.4076,
      "duration": 0.3028,
      "velocity": 127,
      "chip": "ym2612"
    },
    {
      "channel": 1,
      "note": 77,
      "start": 343.4083,
      "duration": 0.1174,
      "velocity": 111,
      "chip": "ym2612"
    },
    {
      "channel": 3,
      "note": 53,
      "start": 343.4095,
      "duration": 0.0499,
      "velocity": 120,
      "chip": "ym2612"
    },
    {
      "channel": 4,
      "note": 65,
      "start": 343.4164,
      "duration": 0.1506,
      "velocity": 112,
      "chip": "ym2612"
    },
    {
      "channel": 1,
      "note": 65,
      "start": 343.5597,
      "duration": 0.1178,
      "velocity": 108,
      "chip": "ym2612"
    },
    {
      "channel": 2,
      "note": 46,
      "start": 343.5604,
      "duration": 0.152,
      "velocity": 124,
      "chip": "ym2612"
    },
    {
      "channel": 3,
      "note": 65,
      "start": 343.5611,
      "duration": 0.0499,
      "velocity": 120,
      "chip": "ym2612"
    },
    {
      "channel": 4,
      "note": 65,
      "start": 343.5681,
      "duration": 0.1505,
      "velocity": 112,
      "chip": "ym2612"
    },
    {
      "channel": 0,
      "note": 41,
      "start": 343.7115,
      "duration": 0.3023,
      "velocity": 123,
      "chip": "ym2612"
    },
    {
      "channel": 1,
      "note": 77,
      "start": 343.7122,
      "duration": 0.1169,
      "velocity": 109,
      "chip": "ym2612"
    },
    {
      "channel": 2,
      "note": 41,
      "start": 343.7129,
      "duration": 0.1673,
      "velocity": 124,
      "chip": "ym2612"
    },
    {
      "channel": 3,
      "note": 53,
      "start": 343.7136,
      "duration": 0.0492,
      "velocity": 120,
      "chip": "ym2612"
    },
    {
      "channel": 4,
      "note": 65,
      "start": 343.7198,
      "duration": 0.1506,
      "velocity": 112,
      "chip": "ym2612"
    },
    {
      "channel": 1,
      "note": 65,
      "start": 343.863,
      "duration": 0.1178,
      "velocity": 112,
      "chip": "ym2612"
    },
    {
      "channel": 3,
      "note": 53,
      "start": 343.8643,
      "duration": 0.0501,
      "velocity": 120,
      "chip": "ym2612"
    },
    {
      "channel": 4,
      "note": 65,
      "start": 343.8715,
      "duration": 0.1505,
      "velocity": 112,
      "chip": "ym2612"
    },
    {
      "channel": 0,
      "note": 40,
      "start": 344.0149,
      "duration": 0.6056,
      "velocity": 127,
      "chip": "ym2612"
    },
    {
      "channel": 1,
      "note": 77,
      "start": 344.0156,
      "duration": 0.1169,
      "velocity": 110,
      "chip": "ym2612"
    },
    {
      "channel": 2,
      "note": 46,
      "start": 344.0163,
      "duration": 0.1504,
      "velocity": 124,
      "chip": "ym2612"
    },
    {
      "channel": 3,
      "note": 65,
      "start": 344.017,
      "duration": 0.0492,
      "velocity": 120,
      "chip": "ym2612"
    },
    {
      "channel": 4,
      "note": 65,
      "start": 344.0231,
      "duration": 0.1506,
      "velocity": 112,
      "chip": "ym2612"
    },
    {
      "channel": 1,
      "note": 65,
      "start": 344.1664,
      "duration": 0.1178,
      "velocity": 108,
      "chip": "ym2612"
    },
    {
      "channel": 2,
      "note": 46,
      "start": 344.1671,
      "duration": 0.1681,
      "velocity": 124,
      "chip": "ym2612"
    },
    {
      "channel": 3,
      "note": 53,
      "start": 344.1678,
      "duration": 0.05,
      "velocity": 120,
      "chip": "ym2612"
    },
    {
      "channel": 4,
      "note": 65,
      "start": 344.1743,
      "duration": 0.1511,
      "velocity": 112,
      "chip": "ym2612"
    },
    {
      "channel": 1,
      "note": 65,
      "start": 344.3181,
      "duration": 0.1177,
      "velocity": 109,
      "chip": "ym2612"
    },
    {
      "channel": 3,
      "note": 65,
      "start": 344.3193,
      "duration": 0.0501,
      "velocity": 120,
      "chip": "ym2612"
    },
    {
      "channel": 4,
      "note": 65,
      "start": 344.3265,
      "duration": 0.1505,
      "velocity": 112,
      "chip": "ym2612"
    },
    {
      "channel": 1,
      "note": 77,
      "start": 344.4698,
      "duration": 0.1177,
      "velocity": 112,
      "chip": "ym2612"
    },
    {
      "channel": 2,
      "note": 41,
      "start": 344.4705,
      "duration": 0.1526,
      "velocity": 124,
      "chip": "ym2612"
    },
    {
      "channel": 3,
      "note": 65,
      "start": 344.4712,
      "duration": 0.0499,
      "velocity": 120,
      "chip": "ym2612"
    },
    {
      "channel": 4,
      "note": 65,
      "start": 344.4782,
      "duration": 0.1506,
      "velocity": 112,
      "chip": "ym2612"
    },
    {
      "channel": 0,
      "note": 65,
      "start": 344.6216,
      "duration": 0.0835,
      "velocity": 112,
      "chip": "ym2612"
    },
    {
      "channel": 1,
      "note": 7,
      "start": 344.6229,
      "duration": 2.4253,
      "velocity": 1,
      "chip": "ym2612"
    },
    {
      "channel": 2,
      "note": 65,
      "start": 344.6243,
      "duration": 0.149,
      "velocity": 112,
      "chip": "ym2612"
    },
    {
      "channel": 3,
      "note": 65,
      "start": 344.6256,
      "duration": 0.1147,
      "velocity": 108,
      "chip": "ym2612"
    },
    {
      "channel": 4,
      "note": 53,
      "start": 344.63,
      "duration": 0.0329,
      "velocity": 105,
      "chip": "ym2612"
    },
    {
      "channel": 5,
      "note": 7,
      "start": 344.6307,
      "duration": 2.4258,
      "velocity": 1,
      "chip": "ym2612"
    },
    {
      "channel": 0,
      "note": 65,
      "start": 344.7727,
      "duration": 0.0841,
      "velocity": 112,
      "chip": "ym2612"
    },
    {
      "channel": 2,
      "note": 65,
      "start": 344.7745,
      "duration": 0.1505,
      "velocity": 112,
      "chip": "ym2612"
    },
    {
      "channel": 3,
      "note": 77,
      "start": 344.7752,
      "duration": 0.1167,
      "velocity": 108,
      "chip": "ym2612"
    },
    {
      "channel": 0,
      "note": 65,
      "start": 344.9244,
      "duration": 0.084,
      "velocity": 112,
      "chip": "ym2612"
    },
    {
      "channel": 2,
      "note": 65,
      "start": 344.9262,
      "duration": 0.1505,
      "velocity": 112,
      "chip": "ym2612"
    },
    {
      "channel": 3,
      "note": 77,
      "start": 344.9269,
      "duration": 0.1167,
      "velocity": 112,
      "chip": "ym2612"
    },
    {
      "channel": 0,
      "note": 65,
      "start": 345.0761,
      "duration": 0.084,
      "velocity": 112,
      "chip": "ym2612"
    },
    {
      "channel": 2,
      "note": 65,
      "start": 345.0778,
      "duration": 0.1505,
      "velocity": 112,
      "chip": "ym2612"
    },
    {
      "channel": 3,
      "note": 65,
      "start": 345.0785,
      "duration": 0.1167,
      "velocity": 109,
      "chip": "ym2612"
    },
    {
      "channel": 0,
      "note": 65,
      "start": 345.2277,
      "duration": 0.084,
      "velocity": 112,
      "chip": "ym2612"
    },
    {
      "channel": 2,
      "note": 65,
      "start": 345.2296,
      "duration": 0.1505,
      "velocity": 112,
      "chip": "ym2612"
    },
    {
      "channel": 3,
      "note": 77,
      "start": 345.2302,
      "duration": 0.1167,
      "velocity": 108,
      "chip": "ym2612"
    },
    {
      "channel": 0,
      "note": 65,
      "start": 345.3794,
      "duration": 0.084,
      "velocity": 112,
      "chip": "ym2612"
    },
    {
      "channel": 2,
      "note": 65,
      "start": 345.3812,
      "duration": 0.1505,
      "velocity": 112,
      "chip": "ym2612"
    },
    {
      "channel": 3,
      "note": 65,
      "start": 345.3819,
      "duration": 0.1167,
      "velocity": 110,
      "chip": "ym2612"
    },
    {
      "channel": 0,
      "note": 65,
      "start": 345.5311,
      "duration": 0.084,
      "velocity": 112,
      "chip": "ym2612"
    },
    {
      "channel": 2,
      "note": 65,
      "start": 345.5329,
      "duration": 0.1505,
      "velocity": 112,
      "chip": "ym2612"
    },
    {
      "channel": 3,
      "note": 65,
      "start": 345.5336,
      "duration": 0.1167,
      "velocity": 109,
      "chip": "ym2612"
    },
    {
      "channel": 0,
      "note": 65,
      "start": 345.6827,
      "duration": 0.0841,
      "velocity": 112,
      "chip": "ym2612"
    },
    {
      "channel": 2,
      "note": 65,
      "start": 345.6846,
      "duration": 0.1505,
      "velocity": 112,
      "chip": "ym2612"
    },
    {
      "channel": 3,
      "note": 77,
      "start": 345.6852,
      "duration": 0.1167,
      "velocity": 111,
      "chip": "ym2612"
    },
    {
      "channel": 0,
      "note": 65,
      "start": 345.8345,
      "duration": 0.084,
      "velocity": 112,
      "chip": "ym2612"
    },
    {
      "channel": 2,
      "note": 65,
      "start": 345.8362,
      "duration": 0.1505,
      "velocity": 112,
      "chip": "ym2612"
    },
    {
      "channel": 3,
      "note": 77,
      "start": 345.8369,
      "duration": 0.1167,
      "velocity": 112,
      "chip": "ym2612"
    },
    {
      "channel": 4,
      "note": 53,
      "start": 345.8429,
      "duration": 0.0335,
      "velocity": 105,
      "chip": "ym2612"
    },
    {
      "channel": 0,
      "note": 65,
      "start": 345.9861,
      "duration": 0.084,
      "velocity": 112,
      "chip": "ym2612"
    },
    {
      "channel": 2,
      "note": 65,
      "start": 345.988,
      "duration": 0.1506,
      "velocity": 112,
      "chip": "ym2612"
    },
    {
      "channel": 3,
      "note": 65,
      "start": 345.9886,
      "duration": 0.1167,
      "velocity": 109,
      "chip": "ym2612"
    },
    {
      "channel": 0,
      "note": 65,
      "start": 346.1378,
      "duration": 0.084,
      "velocity": 112,
      "chip": "ym2612"
    },
    {
      "channel": 2,
      "note": 65,
      "start": 346.139,
      "duration": 0.1511,
      "velocity": 112,
      "chip": "ym2612"
    },
    {
      "channel": 3,
      "note": 77,
      "start": 346.1398,
      "duration": 0.1173,
      "velocity": 108,
      "chip": "ym2612"
    },
    {
      "channel": 0,
      "note": 65,
      "start": 346.2895,
      "duration": 0.0841,
      "velocity": 112,
      "chip": "ym2612"
    },
    {
      "channel": 2,
      "note": 65,
      "start": 346.2913,
      "duration": 0.1505,
      "velocity": 112,
      "chip": "ym2612"
    },
    {
      "channel": 3,
      "note": 65,
      "start": 346.292,
      "duration": 0.1167,
      "velocity": 112,
      "chip": "ym2612"
    },
    {
      "channel": 0,
      "note": 65,
      "start": 346.4412,
      "duration": 0.084,
      "velocity": 112,
      "chip": "ym2612"
    },
    {
      "channel": 2,
      "note": 65,
      "start": 346.443,
      "duration": 0.1505,
      "velocity": 112,
      "chip": "ym2612"
    },
    {
      "channel": 3,
      "note": 65,
      "start": 346.4437,
      "duration": 0.1167,
      "velocity": 111,
      "chip": "ym2612"
    },
    {
      "channel": 0,
      "note": 65,
      "start": 346.5929,
      "duration": 0.084,
      "velocity": 112,
      "chip": "ym2612"
    },
    {
      "channel": 2,
      "note": 65,
      "start": 346.5946,
      "duration": 0.1506,
      "velocity": 112,
      "chip": "ym2612"
    },
    {
      "channel": 3,
      "note": 77,
      "start": 346.5953,
      "duration": 0.1167,
      "velocity": 109,
      "chip": "ym2612"
    },
    {
      "channel": 0,
      "note": 65,
      "start": 346.7445,
      "duration": 0.084,
      "velocity": 112,
      "chip": "ym2612"
    },
    {
      "channel": 2,
      "note": 65,
      "start": 346.7463,
      "duration": 0.1505,
      "velocity": 112,
      "chip": "ym2612"
    },
    {
      "channel": 3,
      "note": 65,
      "start": 346.7471,
      "duration": 0.1167,
      "velocity": 111,
      "chip": "ym2612"
    },
    {
      "channel": 0,
      "note": 65,
      "start": 346.8962,
      "duration": 0.084,
      "velocity": 112,
      "chip": "ym2612"
    },
    {
      "channel": 2,
      "note": 65,
      "start": 346.898,
      "duration": 0.1508,
      "velocity": 112,
      "chip": "ym2612"
    },
    {
      "channel": 3,
      "note": 65,
      "start": 346.8987,
      "duration": 0.1167,
      "velocity": 112,
      "chip": "ym2612"
    },
    {
      "channel": 0,
      "note": 65,
      "start": 347.0479,
      "duration": 0.084,
      "velocity": 112,
      "chip": "ym2612"
    },
    {
      "channel": 1,
      "note": 7,
      "start": 347.0486,
      "duration": 6.9768,
      "velocity": 1,
      "chip": "ym2612"
    },
    {
      "channel": 2,
      "note": 65,
      "start": 347.0499,
      "duration": 0.1503,
      "velocity": 112,
      "chip": "ym2612"
    },
    {
      "channel": 3,
      "note": 65,
      "start": 347.0506,
      "duration": 0.1165,
      "velocity": 108,
      "chip": "ym2612"
    },
    {
      "channel": 4,
      "note": 53,
      "start": 347.0563,
      "duration": 0.0334,
      "velocity": 105,
      "chip": "ym2612"
    },
    {
      "channel": 5,
      "note": 7,
      "start": 347.0571,
      "duration": 2.4263,
      "velocity": 1,
      "chip": "ym2612"
    },
    {
      "channel": 0,
      "note": 65,
      "start": 347.1996,
      "duration": 0.084,
      "velocity": 112,
      "chip": "ym2612"
    },
    {
      "channel": 2,
      "note": 65,
      "start": 347.2014,
      "duration": 0.1505,
      "velocity": 112,
      "chip": "ym2612"
    },
    {
      "channel": 3,
      "note": 77,
      "start": 347.2021,
      "duration": 0.1167,
      "velocity": 109,
      "chip": "ym2612"
    },
    {
      "channel": 0,
      "note": 65,
      "start": 347.3512,
      "duration": 0.084,
      "velocity": 112,
      "chip": "ym2612"
    },
    {
      "channel": 2,
      "note": 65,
      "start": 347.3531,
      "duration": 0.1505,
      "velocity": 112,
      "chip": "ym2612"
    },
    {
      "channel": 3,
      "note": 77,
      "start": 347.3537,
      "duration": 0.1167,
      "velocity": 110,
      "chip": "ym2612"
    },
    {
      "channel": 0,
      "note": 65,
      "start": 347.503,
      "duration": 0.084,
      "velocity": 112,
      "chip": "ym2612"
    },
    {
      "channel": 2,
      "note": 65,
      "start": 347.5048,
      "duration": 0.1506,
      "velocity": 112,
      "chip": "ym2612"
    },
    {
      "channel": 3,
      "note": 65,
      "start": 347.5054,
      "duration": 0.1167,
      "velocity": 111,
      "chip": "ym2612"
    },
    {
      "channel": 0,
      "note": 65,
      "start": 347.6546,
      "duration": 0.084,
      "velocity": 112,
      "chip": "ym2612"
    },
    {
      "channel": 2,
      "note": 65,
      "start": 347.6558,
      "duration": 0.1512,
      "velocity": 112,
      "chip": "ym2612"
    },
    {
      "channel": 3,
      "note": 77,
      "start": 347.6565,
      "duration": 0.1174,
      "velocity": 108,
      "chip": "ym2612"
    },
    {
      "channel": 0,
      "note": 65,
      "start": 347.8063,
      "duration": 0.0841,
      "velocity": 112,
      "chip": "ym2612"
    },
    {
      "channel": 2,
      "note": 65,
      "start": 347.8081,
      "duration": 0.1505,
      "velocity": 112,
      "chip": "ym2612"
    },
    {
      "channel": 3,
      "note": 65,
      "start": 347.8088,
      "duration": 0.1167,
      "velocity": 109,
      "chip": "ym2612"
    },
    {
      "channel": 0,
      "note": 65,
      "start": 347.958,
      "duration": 0.084,
      "velocity": 112,
      "chip": "ym2612"
    },
    {
      "channel": 2,
      "note": 65,
      "start": 347.9598,
      "duration": 0.1505,
      "velocity": 112,
      "chip": "ym2612"
    },
    {
      "channel": 3,
      "note": 65,
      "start": 347.9605,
      "duration": 0.1167,
      "velocity": 112,
      "chip": "ym2612"
    },
    {
      "channel": 0,
      "note": 65,
      "start": 348.1097,
      "duration": 0.084,
      "velocity": 112,
      "chip": "ym2612"
    },
    {
      "channel": 2,
      "note": 65,
      "start": 348.1115,
      "duration": 0.1505,
      "velocity": 112,
      "chip": "ym2612"
    },
    {
      "channel": 3,
      "note": 77,
      "start": 348.1121,
      "duration": 0.1167,
      "velocity": 110,
      "chip": "ym2612"
    },
    {
      "channel": 0,
      "note": 65,
      "start": 348.2614,
      "duration": 0.084,
      "velocity": 112,
      "chip": "ym2612"
    },
    {
      "channel": 2,
      "note": 65,
      "start": 348.2632,
      "duration": 0.1505,
      "velocity": 112,
      "chip": "ym2612"
    },
    {
      "channel": 3,
      "note": 77,
      "start": 348.2639,
      "duration": 0.1167,
      "velocity": 111,
      "chip": "ym2612"
    },
    {
      "channel": 4,
      "note": 53,
      "start": 348.2698,
      "duration": 0.0335,
      "velocity": 105,
      "chip": "ym2612"
    },
    {
      "channel": 0,
      "note": 65,
      "start": 348.413,
      "duration": 0.084,
      "velocity": 112,
      "chip": "ym2612"
    },
    {
      "channel": 2,
      "note": 65,
      "start": 348.4148,
      "duration": 0.1506,
      "velocity": 112,
      "chip": "ym2612"
    },
    {
      "channel": 3,
      "note": 65,
      "start": 348.4155,
      "duration": 0.1167,
      "velocity": 108,
      "chip": "ym2612"
    },
    {
      "channel": 0,
      "note": 65,
      "start": 348.5647,
      "duration": 0.084,
      "velocity": 112,
      "chip": "ym2612"
    },
    {
      "channel": 2,
      "note": 65,
      "start": 348.5665,
      "duration": 0.1505,
      "velocity": 112,
      "chip": "ym2612"
    },
    {
      "channel": 3,
      "note": 77,
      "start": 348.5672,
      "duration": 0.1167,
      "velocity": 109,
      "chip": "ym2612"
    },
    {
      "channel": 0,
      "note": 65,
      "start": 348.7164,
      "duration": 0.084,
      "velocity": 112,
      "chip": "ym2612"
    },
    {
      "channel": 2,
      "note": 65,
      "start": 348.7182,
      "duration": 0.1505,
      "velocity": 112,
      "chip": "ym2612"
    },
    {
      "channel": 3,
      "note": 65,
      "start": 348.7189,
      "duration": 0.1167,
      "velocity": 112,
      "chip": "ym2612"
    },
    {
      "channel": 0,
      "note": 65,
      "start": 348.868,
      "duration": 0.0841,
      "velocity": 112,
      "chip": "ym2612"
    },
    {
      "channel": 2,
      "note": 65,
      "start": 348.8699,
      "duration": 0.1506,
      "velocity": 112,
      "chip": "ym2612"
    },
    {
      "channel": 3,
      "note": 77,
      "start": 348.8705,
      "duration": 0.1167,
      "velocity": 110,
      "chip": "ym2612"
    },
    {
      "channel": 0,
      "note": 65,
      "start": 349.0198,
      "duration": 0.084,
      "velocity": 112,
      "chip": "ym2612"
    },
    {
      "channel": 2,
      "note": 65,
      "start": 349.021,
      "duration": 0.1511,
      "velocity": 112,
      "chip": "ym2612"
    },
    {
      "channel": 3,
      "note": 65,
      "start": 349.0217,
      "duration": 0.1173,
      "velocity": 108,
      "chip": "ym2612"
    },
    {
      "channel": 0,
      "note": 65,
      "start": 349.1714,
      "duration": 0.084,
      "velocity": 112,
      "chip": "ym2612"
    },
    {
      "channel": 2,
      "note": 65,
      "start": 349.1733,
      "duration": 0.1506,
      "velocity": 112,
      "chip": "ym2612"
    },
    {
      "channel": 3,
      "note": 65,
      "start": 349.174,
      "duration": 0.1167,
      "velocity": 109,
      "chip": "ym2612"
    },
    {
      "channel": 0,
      "note": 65,
      "start": 349.3231,
      "duration": 0.084,
      "velocity": 112,
      "chip": "ym2612"
    },
    {
      "channel": 2,
      "note": 65,
      "start": 349.325,
      "duration": 0.1504,
      "velocity": 112,
      "chip": "ym2612"
    },
    {
      "channel": 3,
      "note": 77,
      "start": 349.3257,
      "duration": 0.1167,
      "velocity": 112,
      "chip": "ym2612"
    },
    {
      "channel": 0,
      "note": 65,
      "start": 349.4748,
      "duration": 0.084,
      "velocity": 112,
      "chip": "ym2612"
    },
    {
      "channel": 2,
      "note": 65,
      "start": 349.4766,
      "duration": 0.1506,
      "velocity": 112,
      "chip": "ym2612"
    },
    {
      "channel": 3,
      "note": 65,
      "start": 349.4773,
      "duration": 0.1167,
      "velocity": 108,
      "chip": "ym2612"
    },
    {
      "channel": 4,
      "note": 53,
      "start": 349.4832,
      "duration": 0.0335,
      "velocity": 105,
      "chip": "ym2612"
    },
    {
      "channel": 5,
      "note": 7,
      "start": 349.4839,
      "duration": 2.4265,
      "velocity": 1,
      "chip": "ym2612"
    },
    {
      "channel": 0,
      "note": 65,
      "start": 349.6264,
      "duration": 0.0841,
      "velocity": 112,
      "chip": "ym2612"
    },
    {
      "channel": 2,
      "note": 65,
      "start": 349.6283,
      "duration": 0.1505,
      "velocity": 112,
      "chip": "ym2612"
    },
    {
      "channel": 3,
      "note": 77,
      "start": 349.629,
      "duration": 0.1167,
      "velocity": 108,
      "chip": "ym2612"
    },
    {
      "channel": 0,
      "note": 65,
      "start": 349.7782,
      "duration": 0.084,
      "velocity": 112,
      "chip": "ym2612"
    },
    {
      "channel": 2,
      "note": 65,
      "start": 349.78,
      "duration": 0.1506,
      "velocity": 112,
      "chip": "ym2612"
    },
    {
      "channel": 3,
      "note": 77,
      "start": 349.7806,
      "duration": 0.1167,
      "velocity": 112,
      "chip": "ym2612"
    },
    {
      "channel": 0,
      "note": 65,
      "start": 349.9298,
      "duration": 0.0841,
      "velocity": 112,
      "chip": "ym2612"
    },
    {
      "channel": 2,
      "note": 65,
      "start": 349.9317,
      "duration": 0.1505,
      "velocity": 112,
      "chip": "ym2612"
    },
    {
      "channel": 3,
      "note": 65,
      "start": 349.9324,
      "duration": 0.1167,
      "velocity": 109,
      "chip": "ym2612"
    },
    {
      "channel": 0,
      "note": 65,
      "start": 350.0815,
      "duration": 0.084,
      "velocity": 112,
      "chip": "ym2612"
    },
    {
      "channel": 2,
      "note": 65,
      "start": 350.0833,
      "duration": 0.1505,
      "velocity": 112,
      "chip": "ym2612"
    },
    {
      "channel": 3,
      "note": 77,
      "start": 350.084,
      "duration": 0.1167,
      "velocity": 108,
      "chip": "ym2612"
    },
    {
      "channel": 0,
      "note": 65,
      "start": 350.2332,
      "duration": 0.084,
      "velocity": 112,
      "chip": "ym2612"
    },
    {
      "channel": 2,
      "note": 65,
      "start": 350.235,
      "duration": 0.1505,
      "velocity": 112,
      "chip": "ym2612"
    },
    {
      "channel": 3,
      "note": 65,
      "start": 350.2357,
      "duration": 0.1167,
      "velocity": 110,
      "chip": "ym2612"
    },
    {
      "channel": 0,
      "note": 65,
      "start": 350.3849,
      "duration": 0.084,
      "velocity": 112,
      "chip": "ym2612"
    },
    {
      "channel": 2,
      "note": 65,
      "start": 350.3867,
      "duration": 0.1505,
      "velocity": 112,
      "chip": "ym2612"
    },
    {
      "channel": 3,
      "note": 65,
      "start": 350.3874,
      "duration": 0.1167,
      "velocity": 109,
      "chip": "ym2612"
    },
    {
      "channel": 0,
      "note": 65,
      "start": 350.5366,
      "duration": 0.084,
      "velocity": 112,
      "chip": "ym2612"
    },
    {
      "channel": 2,
      "note": 65,
      "start": 350.5383,
      "duration": 0.1506,
      "velocity": 112,
      "chip": "ym2612"
    },
    {
      "channel": 3,
      "note": 77,
      "start": 350.539,
      "duration": 0.1167,
      "velocity": 111,
      "chip": "ym2612"
    },
    {
      "channel": 0,
      "note": 65,
      "start": 350.6882,
      "duration": 0.0841,
      "velocity": 112,
      "chip": "ym2612"
    },
    {
      "channel": 2,
      "note": 65,
      "start": 350.6901,
      "duration": 0.1505,
      "velocity": 112,
      "chip": "ym2612"
    },
    {
      "channel": 3,
      "note": 77,
      "start": 350.6907,
      "duration": 0.1167,
      "velocity": 112,
      "chip": "ym2612"
    },
    {
      "channel": 4,
      "note": 53,
      "start": 350.6967,
      "duration": 0.0335,
      "velocity": 105,
      "chip": "ym2612"
    },
    {
      "channel": 0,
      "note": 65,
      "start": 350.8399,
      "duration": 0.0841,
      "velocity": 112,
      "chip": "ym2612"
    },
    {
      "channel": 2,
      "note": 65,
      "start": 350.8418,
      "duration": 0.1505,
      "velocity": 112,
      "chip": "ym2612"
    },
    {
      "channel": 3,
      "note": 65,
      "start": 350.8425,
      "duration": 0.1167,
      "velocity": 109,
      "chip": "ym2612"
    },
    {
      "channel": 0,
      "note": 65,
      "start": 350.9916,
      "duration": 0.084,
      "velocity": 112,
      "chip": "ym2612"
    },
    {
      "channel": 2,
      "note": 65,
      "start": 350.9929,
      "duration": 0.1511,
      "velocity": 112,
      "chip": "ym2612"
    },
    {
      "channel": 3,
      "note": 77,
      "start": 350.9935,
      "duration": 0.1173,
      "velocity": 108,
      "chip": "ym2612"
    },
    {
      "channel": 0,
      "note": 65,
      "start": 351.1433,
      "duration": 0.084,
      "velocity": 112,
      "chip": "ym2612"
    },
    {
      "channel": 2,
      "note": 65,
      "start": 351.1451,
      "duration": 0.1505,
      "velocity": 112,
      "chip": "ym2612"
    },
    {
      "channel": 3,
      "note": 65,
      "start": 351.1458,
      "duration": 0.1167,
      "velocity": 112,
      "chip": "ym2612"
    },
    {
      "channel": 0,
      "note": 65,
      "start": 351.295,
      "duration": 0.084,
      "velocity": 112,
      "chip": "ym2612"
    },
    {
      "channel": 2,
      "note": 65,
      "start": 351.2968,
      "duration": 0.1505,
      "velocity": 112,
      "chip": "ym2612"
    },
    {
      "channel": 3,
      "note": 65,
      "start": 351.2974,
      "duration": 0.1167,
      "velocity": 111,
      "chip": "ym2612"
    },
    {
      "channel": 0,
      "note": 65,
      "start": 351.4467,
      "duration": 0.084,
      "velocity": 112,
      "chip": "ym2612"
    },
    {
      "channel": 2,
      "note": 65,
      "start": 351.4485,
      "duration": 0.1505,
      "velocity": 112,
      "chip": "ym2612"
    },
    {
      "channel": 3,
      "note": 77,
      "start": 351.4492,
      "duration": 0.1167,
      "velocity": 109,
      "chip": "ym2612"
    },
    {
      "channel": 0,
      "note": 65,
      "start": 351.5983,
      "duration": 0.084,
      "velocity": 112,
      "chip": "ym2612"
    },
    {
      "channel": 2,
      "note": 65,
      "start": 351.6001,
      "duration": 0.1506,
      "velocity": 112,
      "chip": "ym2612"
    },
    {
      "channel": 3,
      "note": 65,
      "start": 351.6008,
      "duration": 0.1167,
      "velocity": 111,
      "chip": "ym2612"
    },
    {
      "channel": 0,
      "note": 65,
      "start": 351.75,
      "duration": 0.0841,
      "velocity": 112,
      "chip": "ym2612"
    },
    {
      "channel": 2,
      "note": 65,
      "start": 351.7518,
      "duration": 0.1505,
      "velocity": 112,
      "chip": "ym2612"
    },
    {
      "channel": 3,
      "note": 65,
      "start": 351.7525,
      "duration": 0.1167,
      "velocity": 112,
      "chip": "ym2612"
    },
    {
      "channel": 0,
      "note": 65,
      "start": 351.9017,
      "duration": 0.084,
      "velocity": 112,
      "chip": "ym2612"
    },
    {
      "channel": 2,
      "note": 65,
      "start": 351.9035,
      "duration": 0.1505,
      "velocity": 112,
      "chip": "ym2612"
    },
    {
      "channel": 3,
      "note": 65,
      "start": 351.9042,
      "duration": 0.1167,
      "velocity": 108,
      "chip": "ym2612"
    },
    {
      "channel": 4,
      "note": 53,
      "start": 351.9101,
      "duration": 0.0335,
      "velocity": 105,
      "chip": "ym2612"
    },
    {
      "channel": 5,
      "note": 7,
      "start": 351.9108,
      "duration": 2.4265,
      "velocity": 1,
      "chip": "ym2612"
    },
    {
      "channel": 0,
      "note": 65,
      "start": 352.0534,
      "duration": 0.084,
      "velocity": 112,
      "chip": "ym2612"
    },
    {
      "channel": 2,
      "note": 65,
      "start": 352.0552,
      "duration": 0.1505,
      "velocity": 112,
      "chip": "ym2612"
    },
    {
      "channel": 3,
      "note": 77,
      "start": 352.0558,
      "duration": 0.1167,
      "velocity": 109,
      "chip": "ym2612"
    },
    {
      "channel": 0,
      "note": 65,
      "start": 352.2051,
      "duration": 0.084,
      "velocity": 112,
      "chip": "ym2612"
    },
    {
      "channel": 2,
      "note": 65,
      "start": 352.2069,
      "duration": 0.1505,
      "velocity": 112,
      "chip": "ym2612"
    },
    {
      "channel": 3,
      "note": 77,
      "start": 352.2076,
      "duration": 0.1167,
      "velocity": 110,
      "chip": "ym2612"
    },
    {
      "channel": 0,
      "note": 65,
      "start": 352.3568,
      "duration": 0.084,
      "velocity": 112,
      "chip": "ym2612"
    },
    {
      "channel": 2,
      "note": 65,
      "start": 352.3586,
      "duration": 0.1506,
      "velocity": 112,
      "chip": "ym2612"
    },
    {
      "channel": 3,
      "note": 65,
      "start": 352.3593,
      "duration": 0.1167,
      "velocity": 111,
      "chip": "ym2612"
    },
    {
      "channel": 0,
      "note": 65,
      "start": 352.5084,
      "duration": 0.084,
      "velocity": 112,
      "chip": "ym2612"
    },
    {
      "channel": 2,
      "note": 65,
      "start": 352.5097,
      "duration": 0.1511,
      "velocity": 112,
      "chip": "ym2612"
    },
    {
      "channel": 3,
      "note": 77,
      "start": 352.5103,
      "duration": 0.1173,
      "velocity": 108,
      "chip": "ym2612"
    },
    {
      "channel": 0,
      "note": 65,
      "start": 352.6601,
      "duration": 0.084,
      "velocity": 112,
      "chip": "ym2612"
    },
    {
      "channel": 2,
      "note": 65,
      "start": 352.6619,
      "duration": 0.1506,
      "velocity": 112,
      "chip": "ym2612"
    },
    {
      "channel": 3,
      "note": 65,
      "start": 352.6626,
      "duration": 0.1167,
      "velocity": 109,
      "chip": "ym2612"
    },
    {
      "channel": 0,
      "note": 65,
      "start": 352.8117,
      "duration": 0.0841,
      "velocity": 112,
      "chip": "ym2612"
    },
    {
      "channel": 2,
      "note": 65,
      "start": 352.8136,
      "duration": 0.1505,
      "velocity": 112,
      "chip": "ym2612"
    },
    {
      "channel": 3,
      "note": 65,
      "start": 352.8143,
      "duration": 0.1167,
      "velocity": 112,
      "chip": "ym2612"
    },
    {
      "channel": 0,
      "note": 65,
      "start": 352.9635,
      "duration": 0.084,
      "velocity": 112,
      "chip": "ym2612"
    },
    {
      "channel": 2,
      "note": 65,
      "start": 352.9652,
      "duration": 0.1505,
      "velocity": 112,
      "chip": "ym2612"
    },
    {
      "channel": 3,
      "note": 77,
      "start": 352.9659,
      "duration": 0.1167,
      "velocity": 110,
      "chip": "ym2612"
    },
    {
      "channel": 0,
      "note": 65,
      "start": 353.1151,
      "duration": 0.084,
      "velocity": 112,
      "chip": "ym2612"
    },
    {
      "channel": 2,
      "note": 65,
      "start": 353.117,
      "duration": 0.1505,
      "velocity": 112,
      "chip": "ym2612"
    },
    {
      "channel": 3,
      "note": 77,
      "start": 353.1176,
      "duration": 0.1167,
      "velocity": 111,
      "chip": "ym2612"
    },
    {
      "channel": 4,
      "note": 53,
      "start": 353.1236,
      "duration": 0.0335,
      "velocity": 105,
      "chip": "ym2612"
    },
    {
      "channel": 0,
      "note": 65,
      "start": 353.2668,
      "duration": 0.084,
      "velocity": 112,
      "chip": "ym2612"
    },
    {
      "channel": 2,
      "note": 65,
      "start": 353.2686,
      "duration": 0.1505,
      "velocity": 112,
      "chip": "ym2612"
    },
    {
      "channel": 3,
      "note": 65,
      "start": 353.2693,
      "duration": 0.1167,
      "velocity": 108,
      "chip": "ym2612"
    },
    {
      "channel": 0,
      "note": 65,
      "start": 353.4185,
      "duration": 0.084,
      "velocity": 112,
      "chip": "ym2612"
    },
    {
      "channel": 2,
      "note": 65,
      "start": 353.4203,
      "duration": 0.1505,
      "velocity": 112,
      "chip": "ym2612"
    },
    {
      "channel": 3,
      "note": 77,
      "start": 353.421,
      "duration": 0.1167,
      "velocity": 109,
      "chip": "ym2612"
    },
    {
      "channel": 0,
      "note": 65,
      "start": 353.5702,
      "duration": 0.084,
      "velocity": 112,
      "chip": "ym2612"
    },
    {
      "channel": 2,
      "note": 65,
      "start": 353.572,
      "duration": 0.1505,
      "velocity": 112,
      "chip": "ym2612"
    },
    {
      "channel": 3,
      "note": 65,
      "start": 353.5727,
      "duration": 0.1167,
      "velocity": 112,
      "chip": "ym2612"
    },
    {
      "channel": 0,
      "note": 65,
      "start": 353.7219,
      "duration": 0.084,
      "velocity": 112,
      "chip": "ym2612"
    },
    {
      "channel": 2,
      "note": 65,
      "start": 353.7237,
      "duration": 0.1506,
      "velocity": 112,
      "chip": "ym2612"
    },
    {
      "channel": 3,
      "note": 77,
      "start": 353.7244,
      "duration": 0.1168,
      "velocity": 110,
      "chip": "ym2612"
    },
    {
      "channel": 0,
      "note": 65,
      "start": 353.8736,
      "duration": 0.084,
      "velocity": 112,
      "chip": "ym2612"
    },
    {
      "channel": 2,
      "note": 65,
      "start": 353.8749,
      "duration": 0.152,
      "velocity": 112,
      "chip": "ym2612"
    },
    {
      "channel": 3,
      "note": 65,
      "start": 353.8755,
      "duration": 0.1172,
      "velocity": 108,
      "chip": "ym2612"
    },
    {
      "channel": 0,
      "note": 65,
      "start": 354.0252,
      "duration": 0.084,
      "velocity": 112,
      "chip": "ym2612"
    },
    {
      "channel": 1,
      "note": 53,
      "start": 354.0266,
      "duration": 0.1505,
      "velocity": 110,
      "chip": "ym2612"
    },
    {
      "channel": 2,
      "note": 65,
      "start": 354.028,
      "duration": 0.1499,
      "velocity": 112,
      "chip": "ym2612"
    },
    {
      "channel": 3,
      "note": 65,
      "start": 354.0287,
      "duration": 0.1159,
      "velocity": 109,
      "chip": "ym2612"
    },
    {
      "channel": 0,
      "note": 65,
      "start": 354.1769,
      "duration": 0.084,
      "velocity": 112,
      "chip": "ym2612"
    },
    {
      "channel": 1,
      "note": 55,
      "start": 354.1777,
      "duration": 0.1517,
      "velocity": 110,
      "chip": "ym2612"
    },
    {
      "channel": 2,
      "note": 65,
      "start": 354.179,
      "duration": 0.1517,
      "velocity": 112,
      "chip": "ym2612"
    },
    {
      "channel": 3,
      "note": 77,
      "start": 354.1798,
      "duration": 0.1165,
      "velocity": 112,
      "chip": "ym2612"
    },
    {
      "channel": 0,
      "note": 65,
      "start": 354.3293,
      "duration": 0.1505,
      "velocity": 112,
      "chip": "ym2612"
    },
    {
      "channel": 1,
      "note": 41,
      "start": 354.3305,
      "duration": 0.1506,
      "velocity": 127,
      "chip": "ym2612"
    },
    {
      "channel": 2,
      "note": 56,
      "start": 354.3319,
      "duration": 1.228,
      "velocity": 110,
      "chip": "ym2612"
    },
    {
      "channel": 4,
      "note": 53,
      "start": 354.337,
      "duration": 0.0335,
      "velocity": 105,
      "chip": "ym2612"
    },
    {
      "channel": 5,
      "note": 7,
      "start": 354.3377,
      "duration": 2.1083,
      "velocity": 1,
      "chip": "ym2612"
    },
    {
      "channel": 0,
      "note": 65,
      "start": 354.4809,
      "duration": 0.1506,
      "velocity": 112,
      "chip": "ym2612"
    },
    {
      "channel": 1,
      "note": 41,
      "start": 354.4816,
      "duration": 0.1512,
      "velocity": 126,
      "chip": "ym2612"
    },
    {
      "channel": 0,
      "note": 65,
      "start": 354.6326,
      "duration": 0.1505,
      "velocity": 112,
      "chip": "ym2612"
    },
    {
      "channel": 1,
      "note": 41,
      "start": 354.6332,
      "duration": 0.1513,
      "velocity": 125,
      "chip": "ym2612"
    },
    {
      "channel": 3,
      "note": 53,
      "start": 354.6353,
      "duration": 0.1505,
      "velocity": 110,
      "chip": "ym2612"
    },
    {
      "channel": 0,
      "note": 65,
      "start": 354.7843,
      "duration": 0.1505,
      "velocity": 112,
      "chip": "ym2612"
    },
    {
      "channel": 1,
      "note": 41,
      "start": 354.785,
      "duration": 0.1512,
      "velocity": 124,
      "chip": "ym2612"
    },
    {
      "channel": 3,
      "note": 55,
      "start": 354.7864,
      "duration": 0.1511,
      "velocity": 110,
      "chip": "ym2612"
    },
    {
      "channel": 0,
      "note": 65,
      "start": 354.936,
      "duration": 0.1505,
      "velocity": 112,
      "chip": "ym2612"
    },
    {
      "channel": 1,
      "note": 41,
      "start": 354.9366,
      "duration": 0.1513,
      "velocity": 123,
      "chip": "ym2612"
    },
    {
      "channel": 3,
      "note": 56,
      "start": 354.938,
      "duration": 0.3029,
      "velocity": 110,
      "chip": "ym2612"
    },
    {
      "channel": 0,
      "note": 65,
      "start": 355.0876,
      "duration": 0.1505,
      "velocity": 112,
      "chip": "ym2612"
    },
    {
      "channel": 1,
      "note": 42,
      "start": 355.0883,
      "duration": 0.1512,
      "velocity": 122,
      "chip": "ym2612"
    },
    {
      "channel": 0,
      "note": 65,
      "start": 355.2393,
      "duration": 0.1506,
      "velocity": 112,
      "chip": "ym2612"
    },
    {
      "channel": 1,
      "note": 41,
      "start": 355.24,
      "duration": 0.1513,
      "velocity": 121,
      "chip": "ym2612"
    },
    {
      "channel": 3,
      "note": 53,
      "start": 355.2415,
      "duration": 0.1511,
      "velocity": 110,
      "chip": "ym2612"
    },
    {
      "channel": 0,
      "note": 65,
      "start": 355.3911,
      "duration": 0.1505,
      "velocity": 112,
      "chip": "ym2612"
    },
    {
      "channel": 1,
      "note": 41,
      "start": 355.3917,
      "duration": 0.1512,
      "velocity": 120,
      "chip": "ym2612"
    },
    {
      "channel": 3,
      "note": 55,
      "start": 355.3932,
      "duration": 0.151,
      "velocity": 110,
      "chip": "ym2612"
    },
    {
      "channel": 0,
      "note": 65,
      "start": 355.5427,
      "duration": 0.1506,
      "velocity": 112,
      "chip": "ym2612"
    },
    {
      "channel": 1,
      "note": 42,
      "start": 355.5434,
      "duration": 0.1512,
      "velocity": 119,
      "chip": "ym2612"
    },
    {
      "channel": 3,
      "note": 56,
      "start": 355.5448,
      "duration": 0.3022,
      "velocity": 110,
      "chip": "ym2612"
    },
    {
      "channel": 4,
      "note": 53,
      "start": 355.5505,
      "duration": 0.0334,
      "velocity": 105,
      "chip": "ym2612"
    },
    {
      "channel": 0,
      "note": 65,
      "start": 355.6944,
      "duration": 0.1506,
      "velocity": 112,
      "chip": "ym2612"
    },
    {
      "channel": 1,
      "note": 41,
      "start": 355.695,
      "duration": 0.1507,
      "velocity": 118,
      "chip": "ym2612"
    },
    {
      "channel": 0,
      "note": 65,
      "start": 355.8455,
      "duration": 0.1511,
      "velocity": 112,
      "chip": "ym2612"
    },
    {
      "channel": 1,
      "note": 41,
      "start": 355.8462,
      "duration": 0.1518,
      "velocity": 117,
      "chip": "ym2612"
    },
    {
      "channel": 3,
      "note": 53,
      "start": 355.8476,
      "duration": 0.1517,
      "velocity": 110,
      "chip": "ym2612"
    },
    {
      "channel": 0,
      "note": 65,
      "start": 355.9978,
      "duration": 0.1505,
      "velocity": 112,
      "chip": "ym2612"
    },
    {
      "channel": 1,
      "note": 41,
      "start": 355.9984,
      "duration": 0.1513,
      "velocity": 116,
      "chip": "ym2612"
    },
    {
      "channel": 3,
      "note": 55,
      "start": 355.9998,
      "duration": 0.1511,
      "velocity": 110,
      "chip": "ym2612"
    },
    {
      "channel": 0,
      "note": 65,
      "start": 356.1494,
      "duration": 0.1505,
      "velocity": 112,
      "chip": "ym2612"
    },
    {
      "channel": 1,
      "note": 41,
      "start": 356.1501,
      "duration": 0.1512,
      "velocity": 115,
      "chip": "ym2612"
    },
    {
      "channel": 3,
      "note": 56,
      "start": 356.1515,
      "duration": 0.2945,
      "velocity": 110,
      "chip": "ym2612"
    },
    {
      "channel": 0,
      "note": 65,
      "start": 356.3011,
      "duration": 0.145,
      "velocity": 112,
      "chip": "ym2612"
    },
    {
      "channel": 1,
      "note": 41,
      "start": 356.3018,
      "duration": 0.1443,
      "velocity": 114,
      "chip": "ym2612"
    }
  ]
}