{
  "track_name": "10 - Yushis - Battle Theme",
  "duration_sec": 28.217,
  "sample_rate": 44100,
  "note_count": 580,
  "unique_pitches": 22,
  "pitch_range": 72,
  "avg_note_duration": 0.2907,
  "reconstruction_stats": {
    "notes_reconstructed": 580,
    "keyon_events": 580,
    "keyoff_events": 574,
    "orphan_keyons": 6,
    "unique_pitches": 22,
    "pitch_range": 72,
    "avg_duration_sec": 0.2907
  },
  "metadata": {
    "source": "P\\Phantasy Star II Text Adventures\\10 - Yushis - Battle Theme.vgz"
  },
  "notes": [
    {
      "channel": 0,
      "note": 81,
      "start": 0.0422,
      "duration": 0.215,
      "velocity": 102,
      "chip": "ym2612"
    },
    {
      "channel": 1,
      "note": 64,
      "start": 0.0458,
      "duration": 0.1118,
      "velocity": 80,
      "chip": "ym2612"
    },
    {
      "channel": 3,
      "note": 64,
      "start": 0.0493,
      "duration": 0.4261,
      "velocity": 98,
      "chip": "ym2612"
    },
    {
      "channel": 4,
      "note": 69,
      "start": 0.0527,
      "duration": 0.4234,
      "velocity": 98,
      "chip": "ym2612"
    },
    {
      "channel": 2,
      "note": 25,
      "start": 0.0569,
      "duration": 0.2056,
      "velocity": 79,
      "chip": "ym2612"
    },
    {
      "channel": 5,
      "note": 88,
      "start": 0.0952,
      "duration": 0.2134,
      "velocity": 102,
      "chip": "ym2612"
    },
    {
      "channel": 1,
      "note": 64,
      "start": 0.1581,
      "duration": 0.0998,
      "velocity": 80,
      "chip": "ym2612"
    },
    {
      "channel": 0,
      "note": 80,
      "start": 0.2578,
      "duration": 0.216,
      "velocity": 102,
      "chip": "ym2612"
    },
    {
      "channel": 1,
      "note": 64,
      "start": 0.2585,
      "duration": 0.1157,
      "velocity": 80,
      "chip": "ym2612"
    },
    {
      "channel": 2,
      "note": 25,
      "start": 0.2632,
      "duration": 0.2169,
      "velocity": 127,
      "chip": "ym2612"
    },
    {
      "channel": 5,
      "note": 87,
      "start": 0.3092,
      "duration": 0.216,
      "velocity": 102,
      "chip": "ym2612"
    },
    {
      "channel": 1,
      "note": 64,
      "start": 0.3748,
      "duration": 0.0998,
      "velocity": 80,
      "chip": "ym2612"
    },
    {
      "channel": 0,
      "note": 78,
      "start": 0.4744,
      "duration": 0.216,
      "velocity": 102,
      "chip": "ym2612"
    },
    {
      "channel": 1,
      "note": 64,
      "start": 0.4752,
      "duration": 0.1157,
      "velocity": 80,
      "chip": "ym2612"
    },
    {
      "channel": 3,
      "note": 66,
      "start": 0.476,
      "duration": 0.216,
      "velocity": 98,
      "chip": "ym2612"
    },
    {
      "channel": 4,
      "note": 71,
      "start": 0.4767,
      "duration": 0.2161,
      "velocity": 98,
      "chip": "ym2612"
    },
    {
      "channel": 2,
      "note": 70,
      "start": 0.4807,
      "duration": 0.2161,
      "velocity": 79,
      "chip": "ym2612"
    },
    {
      "channel": 5,
      "note": 85,
      "start": 0.5259,
      "duration": 0.216,
      "velocity": 102,
      "chip": "ym2612"
    },
    {
      "channel": 1,
      "note": 68,
      "start": 0.5914,
      "duration": 0.0998,
      "velocity": 80,
      "chip": "ym2612"
    },
    {
      "channel": 0,
      "note": 76,
      "start": 0.6911,
      "duration": 0.4327,
      "velocity": 102,
      "chip": "ym2612"
    },
    {
      "channel": 1,
      "note": 64,
      "start": 0.6919,
      "duration": 0.1157,
      "velocity": 80,
      "chip": "ym2612"
    },
    {
      "channel": 3,
      "note": 76,
      "start": 0.6926,
      "duration": 2.816,
      "velocity": 98,
      "chip": "ym2612"
    },
    {
      "channel": 4,
      "note": 80,
      "start": 0.6934,
      "duration": 2.8161,
      "velocity": 98,
      "chip": "ym2612"
    },
    {
      "channel": 2,
      "note": 25,
      "start": 0.6973,
      "duration": 0.1148,
      "velocity": 79,
      "chip": "ym2612"
    },
    {
      "channel": 5,
      "note": 83,
      "start": 0.7426,
      "duration": 0.4327,
      "velocity": 102,
      "chip": "ym2612"
    },
    {
      "channel": 1,
      "note": 64,
      "start": 0.8081,
      "duration": 0.0994,
      "velocity": 80,
      "chip": "ym2612"
    },
    {
      "channel": 2,
      "note": 25,
      "start": 0.8127,
      "duration": 0.0994,
      "velocity": 79,
      "chip": "ym2612"
    },
    {
      "channel": 1,
      "note": 64,
      "start": 0.9081,
      "duration": 0.1161,
      "velocity": 80,
      "chip": "ym2612"
    },
    {
      "channel": 2,
      "note": 25,
      "start": 0.9127,
      "duration": 0.2165,
      "velocity": 79,
      "chip": "ym2612"
    },
    {
      "channel": 1,
      "note": 64,
      "start": 1.0248,
      "duration": 0.0998,
      "velocity": 80,
      "chip": "ym2612"
    },
    {
      "channel": 0,
      "note": 81,
      "start": 1.1244,
      "duration": 0.216,
      "velocity": 102,
      "chip": "ym2612"
    },
    {
      "channel": 1,
      "note": 64,
      "start": 1.1252,
      "duration": 0.1157,
      "velocity": 80,
      "chip": "ym2612"
    },
    {
      "channel": 2,
      "note": 25,
      "start": 1.1298,
      "duration": 0.216,
      "velocity": 127,
      "chip": "ym2612"
    },
    {
      "channel": 5,
      "note": 88,
      "start": 1.1759,
      "duration": 0.216,
      "velocity": 102,
      "chip": "ym2612"
    },
    {
      "channel": 1,
      "note": 64,
      "start": 1.2414,
      "duration": 0.0998,
      "velocity": 80,
      "chip": "ym2612"
    },
    {
      "channel": 0,
      "note": 80,
      "start": 1.3411,
      "duration": 0.216,
      "velocity": 102,
      "chip": "ym2612"
    },
    {
      "channel": 1,
      "note": 64,
      "start": 1.3419,
      "duration": 0.1157,
      "velocity": 80,
      "chip": "ym2612"
    },
    {
      "channel": 2,
      "note": 70,
      "start": 1.3465,
      "duration": 0.216,
      "velocity": 79,
      "chip": "ym2612"
    },
    {
      "channel": 5,
      "note": 87,
      "start": 1.3926,
      "duration": 0.216,
      "velocity": 102,
      "chip": "ym2612"
    },
    {
      "channel": 1,
      "note": 68,
      "start": 1.4581,
      "duration": 0.0998,
      "velocity": 80,
      "chip": "ym2612"
    },
    {
      "channel": 0,
      "note": 78,
      "start": 1.5578,
      "duration": 0.216,
      "velocity": 102,
      "chip": "ym2612"
    },
    {
      "channel": 1,
      "note": 64,
      "start": 1.5585,
      "duration": 0.1157,
      "velocity": 80,
      "chip": "ym2612"
    },
    {
      "channel": 2,
      "note": 25,
      "start": 1.5632,
      "duration": 0.1156,
      "velocity": 79,
      "chip": "ym2612"
    },
    {
      "channel": 5,
      "note": 85,
      "start": 1.6092,
      "duration": 0.216,
      "velocity": 102,
      "chip": "ym2612"
    },
    {
      "channel": 1,
      "note": 64,
      "start": 1.6748,
      "duration": 0.0998,
      "velocity": 80,
      "chip": "ym2612"
    },
    {
      "channel": 2,
      "note": 25,
      "start": 1.6794,
      "duration": 0.1007,
      "velocity": 79,
      "chip": "ym2612"
    },
    {
      "channel": 0,
      "note": 76,
      "start": 1.7744,
      "duration": 0.216,
      "velocity": 102,
      "chip": "ym2612"
    },
    {
      "channel": 1,
      "note": 64,
      "start": 1.7752,
      "duration": 0.1157,
      "velocity": 80,
      "chip": "ym2612"
    },
    {
      "channel": 2,
      "note": 25,
      "start": 1.7807,
      "duration": 0.2153,
      "velocity": 79,
      "chip": "ym2612"
    },
    {
      "channel": 5,
      "note": 83,
      "start": 1.8259,
      "duration": 0.216,
      "velocity": 102,
      "chip": "ym2612"
    },
    {
      "channel": 1,
      "note": 64,
      "start": 1.8914,
      "duration": 0.0998,
      "velocity": 80,
      "chip": "ym2612"
    },
    {
      "channel": 0,
      "note": 83,
      "start": 1.9911,
      "duration": 0.4327,
      "velocity": 102,
      "chip": "ym2612"
    },
    {
      "channel": 1,
      "note": 64,
      "start": 1.9919,
      "duration": 0.1157,
      "velocity": 80,
      "chip": "ym2612"
    },
    {
      "channel": 2,
      "note": 25,
      "start": 1.9965,
      "duration": 0.2156,
      "velocity": 127,
      "chip": "ym2612"
    },
    {
      "channel": 5,
      "note": 90,
      "start": 2.0426,
      "duration": 0.4327,
      "velocity": 102,
      "chip": "ym2612"
    },
    {
      "channel": 1,
      "note": 64,
      "start": 2.1081,
      "duration": 0.0994,
      "velocity": 80,
      "chip": "ym2612"
    },
    {
      "channel": 1,
      "note": 64,
      "start": 2.2081,
      "duration": 0.1161,
      "velocity": 80,
      "chip": "ym2612"
    },
    {
      "channel": 2,
      "note": 70,
      "start": 2.2128,
      "duration": 0.2165,
      "velocity": 79,
      "chip": "ym2612"
    },
    {
      "channel": 1,
      "note": 68,
      "start": 2.3248,
      "duration": 0.0998,
      "velocity": 80,
      "chip": "ym2612"
    },
    {
      "channel": 0,
      "note": 81,
      "start": 2.4244,
      "duration": 0.4327,
      "velocity": 102,
      "chip": "ym2612"
    },
    {
      "channel": 1,
      "note": 64,
      "start": 2.4252,
      "duration": 0.1157,
      "velocity": 80,
      "chip": "ym2612"
    },
    {
      "channel": 2,
      "note": 25,
      "start": 2.4298,
      "duration": 0.1156,
      "velocity": 79,
      "chip": "ym2612"
    },
    {
      "channel": 5,
      "note": 88,
      "start": 2.4759,
      "duration": 0.4327,
      "velocity": 102,
      "chip": "ym2612"
    },
    {
      "channel": 1,
      "note": 64,
      "start": 2.5414,
      "duration": 0.0994,
      "velocity": 80,
      "chip": "ym2612"
    },
    {
      "channel": 2,
      "note": 25,
      "start": 2.5461,
      "duration": 0.0994,
      "velocity": 79,
      "chip": "ym2612"
    },
    {
      "channel": 1,
      "note": 64,
      "start": 2.6414,
      "duration": 0.1161,
      "velocity": 80,
      "chip": "ym2612"
    },
    {
      "channel": 2,
      "note": 25,
      "start": 2.6461,
      "duration": 0.2165,
      "velocity": 79,
      "chip": "ym2612"
    },
    {
      "channel": 1,
      "note": 64,
      "start": 2.7581,
      "duration": 0.0998,
      "velocity": 80,
      "chip": "ym2612"
    },
    {
      "channel": 0,
      "note": 80,
      "start": 2.8578,
      "duration": 0.6494,
      "velocity": 102,
      "chip": "ym2612"
    },
    {
      "channel": 1,
      "note": 64,
      "start": 2.8585,
      "duration": 0.1157,
      "velocity": 80,
      "chip": "ym2612"
    },
    {
      "channel": 2,
      "note": 25,
      "start": 2.8632,
      "duration": 0.2156,
      "velocity": 127,
      "chip": "ym2612"
    },
    {
      "channel": 5,
      "note": 87,
      "start": 2.9092,
      "duration": 0.6494,
      "velocity": 102,
      "chip": "ym2612"
    },
    {
      "channel": 1,
      "note": 64,
      "start": 2.9748,
      "duration": 0.0994,
      "velocity": 80,
      "chip": "ym2612"
    },
    {
      "channel": 1,
      "note": 64,
      "start": 3.0748,
      "duration": 0.1161,
      "velocity": 80,
      "chip": "ym2612"
    },
    {
      "channel": 2,
      "note": 70,
      "start": 3.0795,
      "duration": 0.216,
      "velocity": 79,
      "chip": "ym2612"
    },
    {
      "channel": 1,
      "note": 68,
      "start": 3.1914,
      "duration": 0.0994,
      "velocity": 80,
      "chip": "ym2612"
    },
    {
      "channel": 1,
      "note": 64,
      "start": 3.2914,
      "duration": 0.1161,
      "velocity": 80,
      "chip": "ym2612"
    },
    {
      "channel": 2,
      "note": 25,
      "start": 3.2961,
      "duration": 0.1161,
      "velocity": 79,
      "chip": "ym2612"
    },
    {
      "channel": 1,
      "note": 64,
      "start": 3.4081,
      "duration": 0.0998,
      "velocity": 80,
      "chip": "ym2612"
    },
    {
      "channel": 2,
      "note": 25,
      "start": 3.4127,
      "duration": 0.1007,
      "velocity": 79,
      "chip": "ym2612"
    },
    {
      "channel": 0,
      "note": 81,
      "start": 3.5078,
      "duration": 0.216,
      "velocity": 102,
      "chip": "ym2612"
    },
    {
      "channel": 1,
      "note": 66,
      "start": 3.5085,
      "duration": 0.1157,
      "velocity": 80,
      "chip": "ym2612"
    },
    {
      "channel": 3,
      "note": 73,
      "start": 3.5093,
      "duration": 0.6494,
      "velocity": 98,
      "chip": "ym2612"
    },
    {
      "channel": 4,
      "note": 66,
      "start": 3.5101,
      "duration": 0.6494,
      "velocity": 98,
      "chip": "ym2612"
    },
    {
      "channel": 2,
      "note": 25,
      "start": 3.5141,
      "duration": 0.2151,
      "velocity": 79,
      "chip": "ym2612"
    },
    {
      "channel": 5,
      "note": 88,
      "start": 3.5592,
      "duration": 0.216,
      "velocity": 102,
      "chip": "ym2612"
    },
    {
      "channel": 1,
      "note": 66,
      "start": 3.6248,
      "duration": 0.0998,
      "velocity": 80,
      "chip": "ym2612"
    },
    {
      "channel": 0,
      "note": 80,
      "start": 3.7244,
      "duration": 0.216,
      "velocity": 102,
      "chip": "ym2612"
    },
    {
      "channel": 1,
      "note": 66,
      "start": 3.7252,
      "duration": 0.1157,
      "velocity": 80,
      "chip": "ym2612"
    },
    {
      "channel": 2,
      "note": 25,
      "start": 3.7298,
      "duration": 0.216,
      "velocity": 127,
      "chip": "ym2612"
    },
    {
      "channel": 5,
      "note": 87,
      "start": 3.7759,
      "duration": 0.216,
      "velocity": 102,
      "chip": "ym2612"
    },
    {
      "channel": 1,
      "note": 66,
      "start": 3.8414,
      "duration": 0.0998,
      "velocity": 80,
      "chip": "ym2612"
    },
    {
      "channel": 0,
      "note": 78,
      "start": 3.9411,
      "duration": 0.216,
      "velocity": 102,
      "chip": "ym2612"
    },
    {
      "channel": 1,
      "note": 66,
      "start": 3.9419,
      "duration": 0.1157,
      "velocity": 80,
      "chip": "ym2612"
    },
    {
      "channel": 2,
      "note": 70,
      "start": 3.9465,
      "duration": 0.2169,
      "velocity": 79,
      "chip": "ym2612"
    },
    {
      "channel": 5,
      "note": 85,
      "start": 3.9926,
      "duration": 0.216,
      "velocity": 102,
      "chip": "ym2612"
    },
    {
      "channel": 1,
      "note": 69,
      "start": 4.0581,
      "duration": 0.0998,
      "velocity": 80,
      "chip": "ym2612"
    },
    {
      "channel": 0,
      "note": 76,
      "start": 4.1578,
      "duration": 0.4327,
      "velocity": 102,
      "chip": "ym2612"
    },
    {
      "channel": 1,
      "note": 66,
      "start": 4.1585,
      "duration": 0.1157,
      "velocity": 80,
      "chip": "ym2612"
    },
    {
      "channel": 3,
      "note": 71,
      "start": 4.1593,
      "duration": 0.6494,
      "velocity": 98,
      "chip": "ym2612"
    },
    {
      "channel": 4,
      "note": 64,
      "start": 4.1601,
      "duration": 0.6494,
      "velocity": 98,
      "chip": "ym2612"
    },
    {
      "channel": 2,
      "note": 25,
      "start": 4.164,
      "duration": 0.1148,
      "velocity": 79,
      "chip": "ym2612"
    },
    {
      "channel": 5,
      "note": 83,
      "start": 4.2092,
      "duration": 0.4327,
      "velocity": 102,
      "chip": "ym2612"
    },
    {
      "channel": 1,
      "note": 66,
      "start": 4.2748,
      "duration": 0.0994,
      "velocity": 80,
      "chip": "ym2612"
    },
    {
      "channel": 2,
      "note": 25,
      "start": 4.2794,
      "duration": 0.0994,
      "velocity": 79,
      "chip": "ym2612"
    },
    {
      "channel": 1,
      "note": 66,
      "start": 4.3748,
      "duration": 0.1161,
      "velocity": 80,
      "chip": "ym2612"
    },
    {
      "channel": 2,
      "note": 25,
      "start": 4.3794,
      "duration": 0.2165,
      "velocity": 79,
      "chip": "ym2612"
    },
    {
      "channel": 1,
      "note": 66,
      "start": 4.4914,
      "duration": 0.0998,
      "velocity": 80,
      "chip": "ym2612"
    },
    {
      "channel": 0,
      "note": 81,
      "start": 4.5911,
      "duration": 0.216,
      "velocity": 102,
      "chip": "ym2612"
    },
    {
      "channel": 1,
      "note": 66,
      "start": 4.5919,
      "duration": 0.1157,
      "velocity": 80,
      "chip": "ym2612"
    },
    {
      "channel": 2,
      "note": 25,
      "start": 4.5965,
      "duration": 0.2169,
      "velocity": 127,
      "chip": "ym2612"
    },
    {
      "channel": 5,
      "note": 88,
      "start": 4.6426,
      "duration": 0.216,
      "velocity": 102,
      "chip": "ym2612"
    },
    {
      "channel": 1,
      "note": 66,
      "start": 4.7081,
      "duration": 0.0998,
      "velocity": 80,
      "chip": "ym2612"
    },
    {
      "channel": 0,
      "note": 80,
      "start": 4.8078,
      "duration": 0.216,
      "velocity": 102,
      "chip": "ym2612"
    },
    {
      "channel": 1,
      "note": 66,
      "start": 4.8085,
      "duration": 0.1157,
      "velocity": 80,
      "chip": "ym2612"
    },
    {
      "channel": 3,
      "note": 73,
      "start": 4.8093,
      "duration": 2.1663,
      "velocity": 98,
      "chip": "ym2612"
    },
    {
      "channel": 4,
      "note": 66,
      "start": 4.8101,
      "duration": 2.1663,
      "velocity": 98,
      "chip": "ym2612"
    },
    {
      "channel": 2,
      "note": 70,
      "start": 4.814,
      "duration": 0.2152,
      "velocity": 79,
      "chip": "ym2612"
    },
    {
      "channel": 5,
      "note": 87,
      "start": 4.8592,
      "duration": 0.216,
      "velocity": 102,
      "chip": "ym2612"
    },
    {
      "channel": 1,
      "note": 69,
      "start": 4.9248,
      "duration": 0.0998,
      "velocity": 80,
      "chip": "ym2612"
    },
    {
      "channel": 0,
      "note": 78,
      "start": 5.0244,
      "duration": 0.216,
      "velocity": 102,
      "chip": "ym2612"
    },
    {
      "channel": 1,
      "note": 66,
      "start": 5.0252,
      "duration": 0.1157,
      "velocity": 80,
      "chip": "ym2612"
    },
    {
      "channel": 2,
      "note": 25,
      "start": 5.0298,
      "duration": 0.1156,
      "velocity": 79,
      "chip": "ym2612"
    },
    {
      "channel": 5,
      "note": 85,
      "start": 5.0759,
      "duration": 0.216,
      "velocity": 102,
      "chip": "ym2612"
    },
    {
      "channel": 1,
      "note": 66,
      "start": 5.1414,
      "duration": 0.0998,
      "velocity": 80,
      "chip": "ym2612"
    },
    {
      "channel": 2,
      "note": 25,
      "start": 5.1461,
      "duration": 0.1007,
      "velocity": 79,
      "chip": "ym2612"
    },
    {
      "channel": 0,
      "note": 73,
      "start": 5.2411,
      "duration": 1.7328,
      "velocity": 102,
      "chip": "ym2612"
    },
    {
      "channel": 1,
      "note": 66,
      "start": 5.2419,
      "duration": 0.1157,
      "velocity": 80,
      "chip": "ym2612"
    },
    {
      "channel": 2,
      "note": 25,
      "start": 5.2473,
      "duration": 0.2148,
      "velocity": 79,
      "chip": "ym2612"
    },
    {
      "channel": 5,
      "note": 80,
      "start": 5.2926,
      "duration": 1.7328,
      "velocity": 102,
      "chip": "ym2612"
    },
    {
      "channel": 1,
      "note": 66,
      "start": 5.3581,
      "duration": 0.0994,
      "velocity": 80,
      "chip": "ym2612"
    },
    {
      "channel": 1,
      "note": 66,
      "start": 5.4581,
      "duration": 0.1161,
      "velocity": 80,
      "chip": "ym2612"
    },
    {
      "channel": 2,
      "note": 25,
      "start": 5.4627,
      "duration": 0.2161,
      "velocity": 127,
      "chip": "ym2612"
    },
    {
      "channel": 1,
      "note": 66,
      "start": 5.5748,
      "duration": 0.0994,
      "velocity": 80,
      "chip": "ym2612"
    },
    {
      "channel": 1,
      "note": 66,
      "start": 5.6748,
      "duration": 0.1161,
      "velocity": 80,
      "chip": "ym2612"
    },
    {
      "channel": 2,
      "note": 70,
      "start": 5.6795,
      "duration": 0.216,
      "velocity": 79,
      "chip": "ym2612"
    },
    {
      "channel": 1,
      "note": 69,
      "start": 5.7914,
      "duration": 0.0994,
      "velocity": 80,
      "chip": "ym2612"
    },
    {
      "channel": 1,
      "note": 66,
      "start": 5.8914,
      "duration": 0.1161,
      "velocity": 80,
      "chip": "ym2612"
    },
    {
      "channel": 2,
      "note": 25,
      "start": 5.8961,
      "duration": 0.1161,
      "velocity": 79,
      "chip": "ym2612"
    },
    {
      "channel": 1,
      "note": 66,
      "start": 6.0081,
      "duration": 0.0994,
      "velocity": 80,
      "chip": "ym2612"
    },
    {
      "channel": 2,
      "note": 25,
      "start": 6.0127,
      "duration": 0.0994,
      "velocity": 79,
      "chip": "ym2612"
    },
    {
      "channel": 1,
      "note": 66,
      "start": 6.1081,
      "duration": 0.1161,
      "velocity": 80,
      "chip": "ym2612"
    },
    {
      "channel": 2,
      "note": 25,
      "start": 6.1127,
      "duration": 0.2161,
      "velocity": 79,
      "chip": "ym2612"
    },
    {
      "channel": 1,
      "note": 66,
      "start": 6.2248,
      "duration": 0.0994,
      "velocity": 80,
      "chip": "ym2612"
    },
    {
      "channel": 1,
      "note": 66,
      "start": 6.3248,
      "duration": 0.1161,
      "velocity": 80,
      "chip": "ym2612"
    },
    {
      "channel": 2,
      "note": 25,
      "start": 6.3294,
      "duration": 0.2161,
      "velocity": 127,
      "chip": "ym2612"
    },
    {
      "channel": 1,
      "note": 66,
      "start": 6.4414,
      "duration": 0.0994,
      "velocity": 80,
      "chip": "ym2612"
    },
    {
      "channel": 1,
      "note": 66,
      "start": 6.5414,
      "duration": 0.1161,
      "velocity": 80,
      "chip": "ym2612"
    },
    {
      "channel": 2,
      "note": 70,
      "start": 6.5461,
      "duration": 0.216,
      "velocity": 79,
      "chip": "ym2612"
    },
    {
      "channel": 1,
      "note": 69,
      "start": 6.6581,
      "duration": 0.0994,
      "velocity": 80,
      "chip": "ym2612"
    },
    {
      "channel": 1,
      "note": 66,
      "start": 6.7581,
      "duration": 0.1161,
      "velocity": 80,
      "chip": "ym2612"
    },
    {
      "channel": 2,
      "note": 25,
      "start": 6.7627,
      "duration": 0.1161,
      "velocity": 79,
      "chip": "ym2612"
    },
    {
      "channel": 1,
      "note": 66,
      "start": 6.8748,
      "duration": 0.1,
      "velocity": 80,
      "chip": "ym2612"
    },
    {
      "channel": 2,
      "note": 25,
      "start": 6.8794,
      "duration": 0.101,
      "velocity": 79,
      "chip": "ym2612"
    },
    {
      "channel": 0,
      "note": 81,
      "start": 6.9745,
      "duration": 0.216,
      "velocity": 102,
      "chip": "ym2612"
    },
    {
      "channel": 1,
      "note": 64,
      "start": 6.9754,
      "duration": 0.1155,
      "velocity": 80,
      "chip": "ym2612"
    },
    {
      "channel": 3,
      "note": 64,
      "start": 6.9762,
      "duration": 0.4325,
      "velocity": 98,
      "chip": "ym2612"
    },
    {
      "channel": 4,
      "note": 69,
      "start": 6.977,
      "duration": 0.4324,
      "velocity": 98,
      "chip": "ym2612"
    },
    {
      "channel": 2,
      "note": 25,
      "start": 6.981,
      "duration": 0.2149,
      "velocity": 79,
      "chip": "ym2612"
    },
    {
      "channel": 5,
      "note": 88,
      "start": 7.026,
      "duration": 0.216,
      "velocity": 102,
      "chip": "ym2612"
    },
    {
      "channel": 1,
      "note": 64,
      "start": 7.0914,
      "duration": 0.0998,
      "velocity": 80,
      "chip": "ym2612"
    },
    {
      "channel": 0,
      "note": 80,
      "start": 7.1911,
      "duration": 0.216,
      "velocity": 102,
      "chip": "ym2612"
    },
    {
      "channel": 1,
      "note": 64,
      "start": 7.1919,
      "duration": 0.1157,
      "velocity": 80,
      "chip": "ym2612"
    },
    {
      "channel": 2,
      "note": 25,
      "start": 7.1965,
      "duration": 0.2169,
      "velocity": 127,
      "chip": "ym2612"
    },
    {
      "channel": 5,
      "note": 87,
      "start": 7.2426,
      "duration": 0.216,
      "velocity": 102,
      "chip": "ym2612"
    },
    {
      "channel": 1,
      "note": 64,
      "start": 7.3081,
      "duration": 0.0998,
      "velocity": 80,
      "chip": "ym2612"
    },
    {
      "channel": 0,
      "note": 78,
      "start": 7.4078,
      "duration": 0.216,
      "velocity": 102,
      "chip": "ym2612"
    },
    {
      "channel": 1,
      "note": 64,
      "start": 7.4085,
      "duration": 0.1157,
      "velocity": 80,
      "chip": "ym2612"
    },
    {
      "channel": 3,
      "note": 66,
      "start": 7.4093,
      "duration": 0.216,
      "velocity": 98,
      "chip": "ym2612"
    },
    {
      "channel": 4,
      "note": 71,
      "start": 7.4101,
      "duration": 0.2161,
      "velocity": 98,
      "chip": "ym2612"
    },
    {
      "channel": 2,
      "note": 70,
      "start": 7.414,
      "duration": 0.2161,
      "velocity": 79,
      "chip": "ym2612"
    },
    {
      "channel": 5,
      "note": 85,
      "start": 7.4592,
      "duration": 0.216,
      "velocity": 102,
      "chip": "ym2612"
    },
    {
      "channel": 1,
      "note": 68,
      "start": 7.5248,
      "duration": 0.0998,
      "velocity": 80,
      "chip": "ym2612"
    },
    {
      "channel": 0,
      "note": 76,
      "start": 7.6244,
      "duration": 0.4327,
      "velocity": 102,
      "chip": "ym2612"
    },
    {
      "channel": 1,
      "note": 64,
      "start": 7.6252,
      "duration": 0.1157,
      "velocity": 80,
      "chip": "ym2612"
    },
    {
      "channel": 3,
      "note": 76,
      "start": 7.626,
      "duration": 2.816,
      "velocity": 98,
      "chip": "ym2612"
    },
    {
      "channel": 4,
      "note": 80,
      "start": 7.6267,
      "duration": 2.8161,
      "velocity": 98,
      "chip": "ym2612"
    },
    {
      "channel": 2,
      "note": 25,
      "start": 7.6307,
      "duration": 0.1148,
      "velocity": 79,
      "chip": "ym2612"
    },
    {
      "channel": 5,
      "note": 83,
      "start": 7.6759,
      "duration": 0.4327,
      "velocity": 102,
      "chip": "ym2612"
    },
    {
      "channel": 1,
      "note": 64,
      "start": 7.7414,
      "duration": 0.0994,
      "velocity": 80,
      "chip": "ym2612"
    },
    {
      "channel": 2,
      "note": 25,
      "start": 7.7461,
      "duration": 0.0994,
      "velocity": 79,
      "chip": "ym2612"
    },
    {
      "channel": 1,
      "note": 64,
      "start": 7.8414,
      "duration": 0.1161,
      "velocity": 80,
      "chip": "ym2612"
    },
    {
      "channel": 2,
      "note": 25,
      "start": 7.8461,
      "duration": 0.2165,
      "velocity": 79,
      "chip": "ym2612"
    },
    {
      "channel": 1,
      "note": 64,
      "start": 7.9581,
      "duration": 0.0998,
      "velocity": 80,
      "chip": "ym2612"
    },
    {
      "channel": 0,
      "note": 81,
      "start": 8.0578,
      "duration": 0.216,
      "velocity": 102,
      "chip": "ym2612"
    },
    {
      "channel": 1,
      "note": 64,
      "start": 8.0585,
      "duration": 0.1157,
      "velocity": 80,
      "chip": "ym2612"
    },
    {
      "channel": 2,
      "note": 25,
      "start": 8.0632,
      "duration": 0.216,
      "velocity": 127,
      "chip": "ym2612"
    },
    {
      "channel": 5,
      "note": 88,
      "start": 8.1092,
      "duration": 0.216,
      "velocity": 102,
      "chip": "ym2612"
    },
    {
      "channel": 1,
      "note": 64,
      "start": 8.1748,
      "duration": 0.0998,
      "velocity": 80,
      "chip": "ym2612"
    },
    {
      "channel": 0,
      "note": 80,
      "start": 8.2744,
      "duration": 0.216,
      "velocity": 102,
      "chip": "ym2612"
    },
    {
      "channel": 1,
      "note": 64,
      "start": 8.2752,
      "duration": 0.1157,
      "velocity": 80,
      "chip": "ym2612"
    },
    {
      "channel": 2,
      "note": 70,
      "start": 8.2798,
      "duration": 0.216,
      "velocity": 79,
      "chip": "ym2612"
    },
    {
      "channel": 5,
      "note": 87,
      "start": 8.3259,
      "duration": 0.216,
      "velocity": 102,
      "chip": "ym2612"
    },
    {
      "channel": 1,
      "note": 68,
      "start": 8.3914,
      "duration": 0.0998,
      "velocity": 80,
      "chip": "ym2612"
    },
    {
      "channel": 0,
      "note": 78,
      "start": 8.4911,
      "duration": 0.216,
      "velocity": 102,
      "chip": "ym2612"
    },
    {
      "channel": 1,
      "note": 64,
      "start": 8.4919,
      "duration": 0.1157,
      "velocity": 80,
      "chip": "ym2612"
    },
    {
      "channel": 2,
      "note": 25,
      "start": 8.4965,
      "duration": 0.1156,
      "velocity": 79,
      "chip": "ym2612"
    },
    {
      "channel": 5,
      "note": 85,
      "start": 8.5426,
      "duration": 0.216,
      "velocity": 102,
      "chip": "ym2612"
    },
    {
      "channel": 1,
      "note": 64,
      "start": 8.6081,
      "duration": 0.0998,
      "velocity": 80,
      "chip": "ym2612"
    },
    {
      "channel": 2,
      "note": 25,
      "start": 8.6127,
      "duration": 0.1007,
      "velocity": 79,
      "chip": "ym2612"
    },
    {
      "channel": 0,
      "note": 76,
      "start": 8.7078,
      "duration": 0.216,
      "velocity": 102,
      "chip": "ym2612"
    },
    {
      "channel": 1,
      "note": 64,
      "start": 8.7085,
      "duration": 0.1157,
      "velocity": 80,
      "chip": "ym2612"
    },
    {
      "channel": 2,
      "note": 25,
      "start": 8.714,
      "duration": 0.2153,
      "velocity": 79,
      "chip": "ym2612"
    },
    {
      "channel": 5,
      "note": 83,
      "start": 8.7592,
      "duration": 0.216,
      "velocity": 102,
      "chip": "ym2612"
    },
    {
      "channel": 1,
      "note": 64,
      "start": 8.8248,
      "duration": 0.0998,
      "velocity": 80,
      "chip": "ym2612"
    },
    {
      "channel": 0,
      "note": 83,
      "start": 8.9244,
      "duration": 0.4327,
      "velocity": 102,
      "chip": "ym2612"
    },
    {
      "channel": 1,
      "note": 64,
      "start": 8.9252,
      "duration": 0.1157,
      "velocity": 80,
      "chip": "ym2612"
    },
    {
      "channel": 2,
      "note": 25,
      "start": 8.9298,
      "duration": 0.2156,
      "velocity": 127,
      "chip": "ym2612"
    },
    {
      "channel": 5,
      "note": 90,
      "start": 8.9759,
      "duration": 0.4327,
      "velocity": 102,
      "chip": "ym2612"
    },
    {
      "channel": 1,
      "note": 64,
      "start": 9.0414,
      "duration": 0.0994,
      "velocity": 80,
      "chip": "ym2612"
    },
    {
      "channel": 1,
      "note": 64,
      "start": 9.1414,
      "duration": 0.1161,
      "velocity": 80,
      "chip": "ym2612"
    },
    {
      "channel": 2,
      "note": 70,
      "start": 9.1461,
      "duration": 0.2165,
      "velocity": 79,
      "chip": "ym2612"
    },
    {
      "channel": 1,
      "note": 68,
      "start": 9.2581,
      "duration": 0.0998,
      "velocity": 80,
      "chip": "ym2612"
    },
    {
      "channel": 0,
      "note": 81,
      "start": 9.3578,
      "duration": 0.4327,
      "velocity": 102,
      "chip": "ym2612"
    },
    {
      "channel": 1,
      "note": 64,
      "start": 9.3585,
      "duration": 0.1157,
      "velocity": 80,
      "chip": "ym2612"
    },
    {
      "channel": 2,
      "note": 25,
      "start": 9.3632,
      "duration": 0.1156,
      "velocity": 79,
      "chip": "ym2612"
    },
    {
      "channel": 5,
      "note": 88,
      "start": 9.4092,
      "duration": 0.4327,
      "velocity": 102,
      "chip": "ym2612"
    },
    {
      "channel": 1,
      "note": 64,
      "start": 9.4748,
      "duration": 0.0994,
      "velocity": 80,
      "chip": "ym2612"
    },
    {
      "channel": 2,
      "note": 25,
      "start": 9.4794,
      "duration": 0.0994,
      "velocity": 79,
      "chip": "ym2612"
    },
    {
      "channel": 1,
      "note": 64,
      "start": 9.5748,
      "duration": 0.1161,
      "velocity": 80,
      "chip": "ym2612"
    },
    {
      "channel": 2,
      "note": 25,
      "start": 9.5794,
      "duration": 0.2165,
      "velocity": 79,
      "chip": "ym2612"
    },
    {
      "channel": 1,
      "note": 64,
      "start": 9.6914,
      "duration": 0.0998,
      "velocity": 80,
      "chip": "ym2612"
    },
    {
      "channel": 0,
      "note": 80,
      "start": 9.7911,
      "duration": 0.6494,
      "velocity": 102,
      "chip": "ym2612"
    },
    {
      "channel": 1,
      "note": 64,
      "start": 9.7919,
      "duration": 0.1157,
      "velocity": 80,
      "chip": "ym2612"
    },
    {
      "channel": 2,
      "note": 25,
      "start": 9.7965,
      "duration": 0.2156,
      "velocity": 127,
      "chip": "ym2612"
    },
    {
      "channel": 5,
      "note": 87,
      "start": 9.8426,
      "duration": 0.6494,
      "velocity": 102,
      "chip": "ym2612"
    },
    {
      "channel": 1,
      "note": 64,
      "start": 9.9081,
      "duration": 0.0994,
      "velocity": 80,
      "chip": "ym2612"
    },
    {
      "channel": 1,
      "note": 64,
      "start": 10.0081,
      "duration": 0.1161,
      "velocity": 80,
      "chip": "ym2612"
    },
    {
      "channel": 2,
      "note": 70,
      "start": 10.0128,
      "duration": 0.216,
      "velocity": 79,
      "chip": "ym2612"
    },
    {
      "channel": 1,
      "note": 68,
      "start": 10.1248,
      "duration": 0.0994,
      "velocity": 80,
      "chip": "ym2612"
    },
    {
      "channel": 1,
      "note": 64,
      "start": 10.2248,
      "duration": 0.1161,
      "velocity": 80,
      "chip": "ym2612"
    },
    {
      "channel": 2,
      "note": 25,
      "start": 10.2294,
      "duration": 0.1161,
      "velocity": 79,
      "chip": "ym2612"
    },
    {
      "channel": 1,
      "note": 64,
      "start": 10.3414,
      "duration": 0.0998,
      "velocity": 80,
      "chip": "ym2612"
    },
    {
      "channel": 2,
      "note": 25,
      "start": 10.3461,
      "duration": 0.1007,
      "velocity": 79,
      "chip": "ym2612"
    },
    {
      "channel": 0,
      "note": 81,
      "start": 10.4411,
      "duration": 0.216,
      "velocity": 102,
      "chip": "ym2612"
    },
    {
      "channel": 1,
      "note": 66,
      "start": 10.4419,
      "duration": 0.1157,
      "velocity": 80,
      "chip": "ym2612"
    },
    {
      "channel": 3,
      "note": 73,
      "start": 10.4426,
      "duration": 0.6494,
      "velocity": 98,
      "chip": "ym2612"
    },
    {
      "channel": 4,
      "note": 66,
      "start": 10.4434,
      "duration": 0.6494,
      "velocity": 98,
      "chip": "ym2612"
    },
    {
      "channel": 2,
      "note": 25,
      "start": 10.4475,
      "duration": 0.2151,
      "velocity": 79,
      "chip": "ym2612"
    },
    {
      "channel": 5,
      "note": 88,
      "start": 10.4926,
      "duration": 0.216,
      "velocity": 102,
      "chip": "ym2612"
    },
    {
      "channel": 1,
      "note": 66,
      "start": 10.5581,
      "duration": 0.0998,
      "velocity": 80,
      "chip": "ym2612"
    },
    {
      "channel": 0,
      "note": 80,
      "start": 10.6578,
      "duration": 0.216,
      "velocity": 102,
      "chip": "ym2612"
    },
    {
      "channel": 1,
      "note": 66,
      "start": 10.6585,
      "duration": 0.1157,
      "velocity": 80,
      "chip": "ym2612"
    },
    {
      "channel": 2,
      "note": 25,
      "start": 10.6632,
      "duration": 0.216,
      "velocity": 127,
      "chip": "ym2612"
    },
    {
      "channel": 5,
      "note": 87,
      "start": 10.7092,
      "duration": 0.216,
      "velocity": 102,
      "chip": "ym2612"
    },
    {
      "channel": 1,
      "note": 66,
      "start": 10.7748,
      "duration": 0.0998,
      "velocity": 80,
      "chip": "ym2612"
    },
    {
      "channel": 0,
      "note": 78,
      "start": 10.8744,
      "duration": 0.216,
      "velocity": 102,
      "chip": "ym2612"
    },
    {
      "channel": 1,
      "note": 66,
      "start": 10.8752,
      "duration": 0.1157,
      "velocity": 80,
      "chip": "ym2612"
    },
    {
      "channel": 2,
      "note": 70,
      "start": 10.8798,
      "duration": 0.2169,
      "velocity": 79,
      "chip": "ym2612"
    },
    {
      "channel": 5,
      "note": 85,
      "start": 10.9259,
      "duration": 0.216,
      "velocity": 102,
      "chip": "ym2612"
    },
    {
      "channel": 1,
      "note": 69,
      "start": 10.9914,
      "duration": 0.0998,
      "velocity": 80,
      "chip": "ym2612"
    },
    {
      "channel": 0,
      "note": 76,
      "start": 11.0911,
      "duration": 0.4327,
      "velocity": 102,
      "chip": "ym2612"
    },
    {
      "channel": 1,
      "note": 66,
      "start": 11.0919,
      "duration": 0.1157,
      "velocity": 80,
      "chip": "ym2612"
    },
    {
      "channel": 3,
      "note": 71,
      "start": 11.0926,
      "duration": 0.6494,
      "velocity": 98,
      "chip": "ym2612"
    },
    {
      "channel": 4,
      "note": 64,
      "start": 11.0934,
      "duration": 0.6494,
      "velocity": 98,
      "chip": "ym2612"
    },
    {
      "channel": 2,
      "note": 25,
      "start": 11.0973,
      "duration": 0.1148,
      "velocity": 79,
      "chip": "ym2612"
    },
    {
      "channel": 5,
      "note": 83,
      "start": 11.1426,
      "duration": 0.4327,
      "velocity": 102,
      "chip": "ym2612"
    },
    {
      "channel": 1,
      "note": 66,
      "start": 11.2081,
      "duration": 0.0994,
      "velocity": 80,
      "chip": "ym2612"
    },
    {
      "channel": 2,
      "note": 25,
      "start": 11.2127,
      "duration": 0.0994,
      "velocity": 79,
      "chip": "ym2612"
    },
    {
      "channel": 1,
      "note": 66,
      "start": 11.3081,
      "duration": 0.1161,
      "velocity": 80,
      "chip": "ym2612"
    },
    {
      "channel": 2,
      "note": 25,
      "start": 11.3127,
      "duration": 0.2165,
      "velocity": 79,
      "chip": "ym2612"
    },
    {
      "channel": 1,
      "note": 66,
      "start": 11.4248,
      "duration": 0.0998,
      "velocity": 80,
      "chip": "ym2612"
    },
    {
      "channel": 0,
      "note": 81,
      "start": 11.5244,
      "duration": 0.216,
      "velocity": 102,
      "chip": "ym2612"
    },
    {
      "channel": 1,
      "note": 66,
      "start": 11.5252,
      "duration": 0.1157,
      "velocity": 80,
      "chip": "ym2612"
    },
    {
      "channel": 2,
      "note": 25,
      "start": 11.5298,
      "duration": 0.2169,
      "velocity": 127,
      "chip": "ym2612"
    },
    {
      "channel": 5,
      "note": 88,
      "start": 11.5759,
      "duration": 0.216,
      "velocity": 102,
      "chip": "ym2612"
    },
    {
      "channel": 1,
      "note": 66,
      "start": 11.6414,
      "duration": 0.0998,
      "velocity": 80,
      "chip": "ym2612"
    },
    {
      "channel": 0,
      "note": 80,
      "start": 11.7411,
      "duration": 0.216,
      "velocity": 102,
      "chip": "ym2612"
    },
    {
      "channel": 1,
      "note": 66,
      "start": 11.7419,
      "duration": 0.1157,
      "velocity": 80,
      "chip": "ym2612"
    },
    {
      "channel": 3,
      "note": 73,
      "start": 11.7426,
      "duration": 2.1662,
      "velocity": 98,
      "chip": "ym2612"
    },
    {
      "channel": 4,
      "note": 66,
      "start": 11.7434,
      "duration": 2.1663,
      "velocity": 98,
      "chip": "ym2612"
    },
    {
      "channel": 2,
      "note": 70,
      "start": 11.7473,
      "duration": 0.2152,
      "velocity": 79,
      "chip": "ym2612"
    },
    {
      "channel": 5,
      "note": 87,
      "start": 11.7926,
      "duration": 0.216,
      "velocity": 102,
      "chip": "ym2612"
    },
    {
      "channel": 1,
      "note": 69,
      "start": 11.8581,
      "duration": 0.0998,
      "velocity": 80,
      "chip": "ym2612"
    },
    {
      "channel": 0,
      "note": 78,
      "start": 11.9578,
      "duration": 0.216,
      "velocity": 102,
      "chip": "ym2612"
    },
    {
      "channel": 1,
      "note": 66,
      "start": 11.9585,
      "duration": 0.1157,
      "velocity": 80,
      "chip": "ym2612"
    },
    {
      "channel": 2,
      "note": 25,
      "start": 11.9632,
      "duration": 0.1156,
      "velocity": 79,
      "chip": "ym2612"
    },
    {
      "channel": 5,
      "note": 85,
      "start": 12.0092,
      "duration": 0.216,
      "velocity": 102,
      "chip": "ym2612"
    },
    {
      "channel": 1,
      "note": 66,
      "start": 12.0748,
      "duration": 0.0998,
      "velocity": 80,
      "chip": "ym2612"
    },
    {
      "channel": 2,
      "note": 25,
      "start": 12.0794,
      "duration": 0.1006,
      "velocity": 79,
      "chip": "ym2612"
    },
    {
      "channel": 0,
      "note": 73,
      "start": 12.1744,
      "duration": 1.7328,
      "velocity": 102,
      "chip": "ym2612"
    },
    {
      "channel": 1,
      "note": 66,
      "start": 12.1752,
      "duration": 0.1157,
      "velocity": 80,
      "chip": "ym2612"
    },
    {
      "channel": 2,
      "note": 25,
      "start": 12.1807,
      "duration": 0.2148,
      "velocity": 79,
      "chip": "ym2612"
    },
    {
      "channel": 5,
      "note": 80,
      "start": 12.2259,
      "duration": 1.7328,
      "velocity": 102,
      "chip": "ym2612"
    },
    {
      "channel": 1,
      "note": 66,
      "start": 12.2914,
      "duration": 0.0994,
      "velocity": 80,
      "chip": "ym2612"
    },
    {
      "channel": 1,
      "note": 66,
      "start": 12.3914,
      "duration": 0.1161,
      "velocity": 80,
      "chip": "ym2612"
    },
    {
      "channel": 2,
      "note": 25,
      "start": 12.3961,
      "duration": 0.2161,
      "velocity": 127,
      "chip": "ym2612"
    },
    {
      "channel": 1,
      "note": 66,
      "start": 12.5081,
      "duration": 0.0994,
      "velocity": 80,
      "chip": "ym2612"
    },
    {
      "channel": 1,
      "note": 66,
      "start": 12.6081,
      "duration": 0.1161,
      "velocity": 80,
      "chip": "ym2612"
    },
    {
      "channel": 2,
      "note": 70,
      "start": 12.6128,
      "duration": 0.216,
      "velocity": 79,
      "chip": "ym2612"
    },
    {
      "channel": 1,
      "note": 69,
      "start": 12.7248,
      "duration": 0.0994,
      "velocity": 80,
      "chip": "ym2612"
    },
    {
      "channel": 1,
      "note": 66,
      "start": 12.8248,
      "duration": 0.1161,
      "velocity": 80,
      "chip": "ym2612"
    },
    {
      "channel": 2,
      "note": 25,
      "start": 12.8294,
      "duration": 0.1161,
      "velocity": 79,
      "chip": "ym2612"
    },
    {
      "channel": 1,
      "note": 66,
      "start": 12.9414,
      "duration": 0.0994,
      "velocity": 80,
      "chip": "ym2612"
    },
    {
      "channel": 2,
      "note": 25,
      "start": 12.9461,
      "duration": 0.0994,
      "velocity": 79,
      "chip": "ym2612"
    },
    {
      "channel": 1,
      "note": 66,
      "start": 13.0414,
      "duration": 0.1161,
      "velocity": 80,
      "chip": "ym2612"
    },
    {
      "channel": 2,
      "note": 25,
      "start": 13.0461,
      "duration": 0.2161,
      "velocity": 79,
      "chip": "ym2612"
    },
    {
      "channel": 1,
      "note": 66,
      "start": 13.1581,
      "duration": 0.0994,
      "velocity": 80,
      "chip": "ym2612"
    },
    {
      "channel": 1,
      "note": 66,
      "start": 13.2581,
      "duration": 0.1161,
      "velocity": 80,
      "chip": "ym2612"
    },
    {
      "channel": 2,
      "note": 25,
      "start": 13.2627,
      "duration": 0.2161,
      "velocity": 127,
      "chip": "ym2612"
    },
    {
      "channel": 1,
      "note": 66,
      "start": 13.3748,
      "duration": 0.0994,
      "velocity": 80,
      "chip": "ym2612"
    },
    {
      "channel": 1,
      "note": 66,
      "start": 13.4748,
      "duration": 0.1161,
      "velocity": 80,
      "chip": "ym2612"
    },
    {
      "channel": 2,
      "note": 70,
      "start": 13.4795,
      "duration": 0.216,
      "velocity": 79,
      "chip": "ym2612"
    },
    {
      "channel": 1,
      "note": 69,
      "start": 13.5914,
      "duration": 0.0994,
      "velocity": 80,
      "chip": "ym2612"
    },
    {
      "channel": 1,
      "note": 66,
      "start": 13.6914,
      "duration": 0.1161,
      "velocity": 80,
      "chip": "ym2612"
    },
    {
      "channel": 2,
      "note": 25,
      "start": 13.6961,
      "duration": 0.1161,
      "velocity": 79,
      "chip": "ym2612"
    },
    {
      "channel": 1,
      "note": 66,
      "start": 13.8081,
      "duration": 0.1,
      "velocity": 80,
      "chip": "ym2612"
    },
    {
      "channel": 2,
      "note": 25,
      "start": 13.8127,
      "duration": 0.101,
      "velocity": 127,
      "chip": "ym2612"
    },
    {
      "channel": 0,
      "note": 81,
      "start": 13.9078,
      "duration": 0.2993,
      "velocity": 102,
      "chip": "ym2612"
    },
    {
      "channel": 1,
      "note": 66,
      "start": 13.9087,
      "duration": 0.1155,
      "velocity": 80,
      "chip": "ym2612"
    },
    {
      "channel": 3,
      "note": 85,
      "start": 13.9095,
      "duration": 1.7325,
      "velocity": 98,
      "chip": "ym2612"
    },
    {
      "channel": 4,
      "note": 73,
      "start": 13.9103,
      "duration": 1.7325,
      "velocity": 98,
      "chip": "ym2612"
    },
    {
      "channel": 2,
      "note": 70,
      "start": 13.9143,
      "duration": 0.2145,
      "velocity": 79,
      "chip": "ym2612"
    },
    {
      "channel": 5,
      "note": 88,
      "start": 13.9593,
      "duration": 0.283,
      "velocity": 102,
      "chip": "ym2612"
    },
    {
      "channel": 1,
      "note": 66,
      "start": 14.0248,
      "duration": 0.0994,
      "velocity": 80,
      "chip": "ym2612"
    },
    {
      "channel": 1,
      "note": 66,
      "start": 14.1248,
      "duration": 0.1161,
      "velocity": 80,
      "chip": "ym2612"
    },
    {
      "channel": 2,
      "note": 25,
      "start": 14.1294,
      "duration": 0.2161,
      "velocity": 127,
      "chip": "ym2612"
    },
    {
      "channel": 0,
      "note": 83,
      "start": 14.2078,
      "duration": 0.316,
      "velocity": 102,
      "chip": "ym2612"
    },
    {
      "channel": 1,
      "note": 66,
      "start": 14.2414,
      "duration": 0.0994,
      "velocity": 80,
      "chip": "ym2612"
    },
    {
      "channel": 5,
      "note": 90,
      "start": 14.2429,
      "duration": 0.316,
      "velocity": 102,
      "chip": "ym2612"
    },
    {
      "channel": 1,
      "note": 66,
      "start": 14.3414,
      "duration": 0.1161,
      "velocity": 80,
      "chip": "ym2612"
    },
    {
      "channel": 2,
      "note": 70,
      "start": 14.3461,
      "duration": 0.2165,
      "velocity": 79,
      "chip": "ym2612"
    },
    {
      "channel": 1,
      "note": 69,
      "start": 14.4581,
      "duration": 0.0994,
      "velocity": 80,
      "chip": "ym2612"
    },
    {
      "channel": 0,
      "note": 84,
      "start": 14.5244,
      "duration": 1.116,
      "velocity": 102,
      "chip": "ym2612"
    },
    {
      "channel": 1,
      "note": 66,
      "start": 14.5581,
      "duration": 0.1161,
      "velocity": 80,
      "chip": "ym2612"
    },
    {
      "channel": 5,
      "note": 91,
      "start": 14.5596,
      "duration": 1.1323,
      "velocity": 102,
      "chip": "ym2612"
    },
    {
      "channel": 2,
      "note": 25,
      "start": 14.5632,
      "duration": 0.216,
      "velocity": 127,
      "chip": "ym2612"
    },
    {
      "channel": 1,
      "note": 66,
      "start": 14.6748,
      "duration": 0.0998,
      "velocity": 80,
      "chip": "ym2612"
    },
    {
      "channel": 1,
      "note": 66,
      "start": 14.7751,
      "duration": 0.1157,
      "velocity": 80,
      "chip": "ym2612"
    },
    {
      "channel": 2,
      "note": 70,
      "start": 14.7798,
      "duration": 0.2156,
      "velocity": 79,
      "chip": "ym2612"
    },
    {
      "channel": 1,
      "note": 66,
      "start": 14.8914,
      "duration": 0.0994,
      "velocity": 80,
      "chip": "ym2612"
    },
    {
      "channel": 1,
      "note": 66,
      "start": 14.9914,
      "duration": 0.1161,
      "velocity": 80,
      "chip": "ym2612"
    },
    {
      "channel": 2,
      "note": 25,
      "start": 14.9961,
      "duration": 0.2161,
      "velocity": 127,
      "chip": "ym2612"
    },
    {
      "channel": 1,
      "note": 66,
      "start": 15.1081,
      "duration": 0.0994,
      "velocity": 80,
      "chip": "ym2612"
    },
    {
      "channel": 1,
      "note": 66,
      "start": 15.2081,
      "duration": 0.1161,
      "velocity": 80,
      "chip": "ym2612"
    },
    {
      "channel": 2,
      "note": 70,
      "start": 15.2128,
      "duration": 0.216,
      "velocity": 79,
      "chip": "ym2612"
    },
    {
      "channel": 1,
      "note": 69,
      "start": 15.3248,
      "duration": 0.0994,
      "velocity": 80,
      "chip": "ym2612"
    },
    {
      "channel": 1,
      "note": 66,
      "start": 15.4248,
      "duration": 0.1161,
      "velocity": 80,
      "chip": "ym2612"
    },
    {
      "channel": 2,
      "note": 25,
      "start": 15.4294,
      "duration": 0.2175,
      "velocity": 127,
      "chip": "ym2612"
    },
    {
      "channel": 1,
      "note": 66,
      "start": 15.5414,
      "duration": 0.0998,
      "velocity": 80,
      "chip": "ym2612"
    },
    {
      "channel": 0,
      "note": 90,
      "start": 15.6411,
      "duration": 0.2994,
      "velocity": 102,
      "chip": "ym2612"
    },
    {
      "channel": 1,
      "note": 64,
      "start": 15.6419,
      "duration": 0.1157,
      "velocity": 80,
      "chip": "ym2612"
    },
    {
      "channel": 3,
      "note": 83,
      "start": 15.6426,
      "duration": 1.7328,
      "velocity": 98,
      "chip": "ym2612"
    },
    {
      "channel": 4,
      "note": 71,
      "start": 15.6435,
      "duration": 1.7327,
      "velocity": 98,
      "chip": "ym2612"
    },
    {
      "channel": 2,
      "note": 70,
      "start": 15.6475,
      "duration": 0.2146,
      "velocity": 79,
      "chip": "ym2612"
    },
    {
      "channel": 5,
      "note": 97,
      "start": 15.6926,
      "duration": 0.2831,
      "velocity": 102,
      "chip": "ym2612"
    },
    {
      "channel": 1,
      "note": 64,
      "start": 15.7581,
      "duration": 0.0994,
      "velocity": 80,
      "chip": "ym2612"
    },
    {
      "channel": 1,
      "note": 64,
      "start": 15.8581,
      "duration": 0.1161,
      "velocity": 80,
      "chip": "ym2612"
    },
    {
      "channel": 2,
      "note": 25,
      "start": 15.8627,
      "duration": 0.2161,
      "velocity": 127,
      "chip": "ym2612"
    },
    {
      "channel": 0,
      "note": 88,
      "start": 15.9411,
      "duration": 0.2827,
      "velocity": 102,
      "chip": "ym2612"
    },
    {
      "channel": 1,
      "note": 64,
      "start": 15.9748,
      "duration": 0.0994,
      "velocity": 80,
      "chip": "ym2612"
    },
    {
      "channel": 5,
      "note": 95,
      "start": 15.9763,
      "duration": 0.2823,
      "velocity": 102,
      "chip": "ym2612"
    },
    {
      "channel": 1,
      "note": 64,
      "start": 16.0748,
      "duration": 0.1161,
      "velocity": 80,
      "chip": "ym2612"
    },
    {
      "channel": 2,
      "note": 70,
      "start": 16.0795,
      "duration": 0.216,
      "velocity": 79,
      "chip": "ym2612"
    },
    {
      "channel": 1,
      "note": 68,
      "start": 16.1914,
      "duration": 0.0994,
      "velocity": 80,
      "chip": "ym2612"
    },
    {
      "channel": 0,
      "note": 85,
      "start": 16.2244,
      "duration": 0.2827,
      "velocity": 102,
      "chip": "ym2612"
    },
    {
      "channel": 5,
      "note": 92,
      "start": 16.2592,
      "duration": 0.2994,
      "velocity": 102,
      "chip": "ym2612"
    },
    {
      "channel": 1,
      "note": 64,
      "start": 16.2914,
      "duration": 0.1161,
      "velocity": 80,
      "chip": "ym2612"
    },
    {
      "channel": 2,
      "note": 25,
      "start": 16.2961,
      "duration": 0.2165,
      "velocity": 127,
      "chip": "ym2612"
    },
    {
      "channel": 1,
      "note": 64,
      "start": 16.4081,
      "duration": 0.0998,
      "velocity": 80,
      "chip": "ym2612"
    },
    {
      "channel": 0,
      "note": 83,
      "start": 16.5078,
      "duration": 0.4327,
      "velocity": 102,
      "chip": "ym2612"
    },
    {
      "channel": 1,
      "note": 64,
      "start": 16.5085,
      "duration": 0.1157,
      "velocity": 80,
      "chip": "ym2612"
    },
    {
      "channel": 2,
      "note": 70,
      "start": 16.5132,
      "duration": 0.2156,
      "velocity": 79,
      "chip": "ym2612"
    },
    {
      "channel": 5,
      "note": 90,
      "start": 16.5592,
      "duration": 0.4327,
      "velocity": 102,
      "chip": "ym2612"
    },
    {
      "channel": 1,
      "note": 64,
      "start": 16.6248,
      "duration": 0.0994,
      "velocity": 80,
      "chip": "ym2612"
    },
    {
      "channel": 1,
      "note": 64,
      "start": 16.7248,
      "duration": 0.1161,
      "velocity": 80,
      "chip": "ym2612"
    },
    {
      "channel": 2,
      "note": 25,
      "start": 16.7294,
      "duration": 0.2165,
      "velocity": 127,
      "chip": "ym2612"
    },
    {
      "channel": 1,
      "note": 64,
      "start": 16.8414,
      "duration": 0.0998,
      "velocity": 80,
      "chip": "ym2612"
    },
    {
      "channel": 0,
      "note": 81,
      "start": 16.9411,
      "duration": 0.4327,
      "velocity": 102,
      "chip": "ym2612"
    },
    {
      "channel": 1,
      "note": 64,
      "start": 16.9419,
      "duration": 0.1157,
      "velocity": 80,
      "chip": "ym2612"
    },
    {
      "channel": 2,
      "note": 70,
      "start": 16.9466,
      "duration": 0.2156,
      "velocity": 79,
      "chip": "ym2612"
    },
    {
      "channel": 5,
      "note": 88,
      "start": 16.9926,
      "duration": 0.4327,
      "velocity": 102,
      "chip": "ym2612"
    },
    {
      "channel": 1,
      "note": 68,
      "start": 17.0581,
      "duration": 0.0994,
      "velocity": 80,
      "chip": "ym2612"
    },
    {
      "channel": 1,
      "note": 64,
      "start": 17.1581,
      "duration": 0.1161,
      "velocity": 80,
      "chip": "ym2612"
    },
    {
      "channel": 2,
      "note": 25,
      "start": 17.1627,
      "duration": 0.2175,
      "velocity": 127,
      "chip": "ym2612"
    },
    {
      "channel": 1,
      "note": 64,
      "start": 17.2748,
      "duration": 0.0998,
      "velocity": 80,
      "chip": "ym2612"
    },
    {
      "channel": 0,
      "note": 81,
      "start": 17.3744,
      "duration": 0.2994,
      "velocity": 102,
      "chip": "ym2612"
    },
    {
      "channel": 1,
      "note": 69,
      "start": 17.3752,
      "duration": 0.1157,
      "velocity": 80,
      "chip": "ym2612"
    },
    {
      "channel": 3,
      "note": 81,
      "start": 17.376,
      "duration": 1.7326,
      "velocity": 98,
      "chip": "ym2612"
    },
    {
      "channel": 4,
      "note": 69,
      "start": 17.3768,
      "duration": 1.7327,
      "velocity": 98,
      "chip": "ym2612"
    },
    {
      "channel": 2,
      "note": 70,
      "start": 17.3809,
      "duration": 0.2146,
      "velocity": 79,
      "chip": "ym2612"
    },
    {
      "channel": 5,
      "note": 88,
      "start": 17.4259,
      "duration": 0.2831,
      "velocity": 102,
      "chip": "ym2612"
    },
    {
      "channel": 1,
      "note": 69,
      "start": 17.4914,
      "duration": 0.0994,
      "velocity": 80,
      "chip": "ym2612"
    },
    {
      "channel": 1,
      "note": 69,
      "start": 17.5914,
      "duration": 0.1161,
      "velocity": 80,
      "chip": "ym2612"
    },
    {
      "channel": 2,
      "note": 25,
      "start": 17.5961,
      "duration": 0.216,
      "velocity": 127,
      "chip": "ym2612"
    },
    {
      "channel": 0,
      "note": 83,
      "start": 17.6744,
      "duration": 0.316,
      "velocity": 102,
      "chip": "ym2612"
    },
    {
      "channel": 1,
      "note": 69,
      "start": 17.7081,
      "duration": 0.0994,
      "velocity": 80,
      "chip": "ym2612"
    },
    {
      "channel": 5,
      "note": 90,
      "start": 17.7096,
      "duration": 0.316,
      "velocity": 102,
      "chip": "ym2612"
    },
    {
      "channel": 1,
      "note": 69,
      "start": 17.8082,
      "duration": 0.116,
      "velocity": 80,
      "chip": "ym2612"
    },
    {
      "channel": 2,
      "note": 70,
      "start": 17.8128,
      "duration": 0.2165,
      "velocity": 79,
      "chip": "ym2612"
    },
    {
      "channel": 1,
      "note": 73,
      "start": 17.9248,
      "duration": 0.0994,
      "velocity": 80,
      "chip": "ym2612"
    },
    {
      "channel": 0,
      "note": 84,
      "start": 17.9911,
      "duration": 1.116,
      "velocity": 102,
      "chip": "ym2612"
    },
    {
      "channel": 1,
      "note": 69,
      "start": 18.0248,
      "duration": 0.1161,
      "velocity": 80,
      "chip": "ym2612"
    },
    {
      "channel": 5,
      "note": 91,
      "start": 18.0263,
      "duration": 1.1323,
      "velocity": 102,
      "chip": "ym2612"
    },
    {
      "channel": 2,
      "note": 25,
      "start": 18.0298,
      "duration": 0.216,
      "velocity": 127,
      "chip": "ym2612"
    },
    {
      "channel": 1,
      "note": 69,
      "start": 18.1414,
      "duration": 0.0998,
      "velocity": 80,
      "chip": "ym2612"
    },
    {
      "channel": 1,
      "note": 69,
      "start": 18.2418,
      "duration": 0.1157,
      "velocity": 80,
      "chip": "ym2612"
    },
    {
      "channel": 2,
      "note": 70,
      "start": 18.2465,
      "duration": 0.2156,
      "velocity": 79,
      "chip": "ym2612"
    },
    {
      "channel": 1,
      "note": 69,
      "start": 18.3582,
      "duration": 0.0994,
      "velocity": 80,
      "chip": "ym2612"
    },
    {
      "channel": 1,
      "note": 69,
      "start": 18.4581,
      "duration": 0.1161,
      "velocity": 80,
      "chip": "ym2612"
    },
    {
      "channel": 2,
      "note": 25,
      "start": 18.4628,
      "duration": 0.216,
      "velocity": 127,
      "chip": "ym2612"
    },
    {
      "channel": 1,
      "note": 69,
      "start": 18.5748,
      "duration": 0.0994,
      "velocity": 80,
      "chip": "ym2612"
    },
    {
      "channel": 1,
      "note": 69,
      "start": 18.6748,
      "duration": 0.1161,
      "velocity": 80,
      "chip": "ym2612"
    },
    {
      "channel": 2,
      "note": 70,
      "start": 18.6795,
      "duration": 0.216,
      "velocity": 79,
      "chip": "ym2612"
    },
    {
      "channel": 1,
      "note": 73,
      "start": 18.7914,
      "duration": 0.0994,
      "velocity": 80,
      "chip": "ym2612"
    },
    {
      "channel": 1,
      "note": 69,
      "start": 18.8914,
      "duration": 0.1161,
      "velocity": 80,
      "chip": "ym2612"
    },
    {
      "channel": 2,
      "note": 25,
      "start": 18.8961,
      "duration": 0.2174,
      "velocity": 127,
      "chip": "ym2612"
    },
    {
      "channel": 1,
      "note": 69,
      "start": 19.0081,
      "duration": 0.0998,
      "velocity": 80,
      "chip": "ym2612"
    },
    {
      "channel": 0,
      "note": 83,
      "start": 19.1078,
      "duration": 0.6494,
      "velocity": 102,
      "chip": "ym2612"
    },
    {
      "channel": 1,
      "note": 66,
      "start": 19.1085,
      "duration": 0.1157,
      "velocity": 80,
      "chip": "ym2612"
    },
    {
      "channel": 3,
      "note": 78,
      "start": 19.1093,
      "duration": 1.7329,
      "velocity": 98,
      "chip": "ym2612"
    },
    {
      "channel": 4,
      "note": 66,
      "start": 19.1101,
      "duration": 1.7329,
      "velocity": 98,
      "chip": "ym2612"
    },
    {
      "channel": 2,
      "note": 70,
      "start": 19.1141,
      "duration": 0.2147,
      "velocity": 79,
      "chip": "ym2612"
    },
    {
      "channel": 5,
      "note": 90,
      "start": 19.1592,
      "duration": 0.6494,
      "velocity": 102,
      "chip": "ym2612"
    },
    {
      "channel": 1,
      "note": 66,
      "start": 19.2248,
      "duration": 0.0994,
      "velocity": 80,
      "chip": "ym2612"
    },
    {
      "channel": 1,
      "note": 66,
      "start": 19.3248,
      "duration": 0.1161,
      "velocity": 80,
      "chip": "ym2612"
    },
    {
      "channel": 2,
      "note": 25,
      "start": 19.3294,
      "duration": 0.2161,
      "velocity": 127,
      "chip": "ym2612"
    },
    {
      "channel": 1,
      "note": 66,
      "start": 19.4414,
      "duration": 0.0994,
      "velocity": 80,
      "chip": "ym2612"
    },
    {
      "channel": 1,
      "note": 66,
      "start": 19.5414,
      "duration": 0.1161,
      "velocity": 80,
      "chip": "ym2612"
    },
    {
      "channel": 2,
      "note": 70,
      "start": 19.5461,
      "duration": 0.2165,
      "velocity": 79,
      "chip": "ym2612"
    },
    {
      "channel": 1,
      "note": 69,
      "start": 19.6581,
      "duration": 0.0998,
      "velocity": 80,
      "chip": "ym2612"
    },
    {
      "channel": 0,
      "note": 81,
      "start": 19.7578,
      "duration": 1.0828,
      "velocity": 102,
      "chip": "ym2612"
    },
    {
      "channel": 1,
      "note": 66,
      "start": 19.7585,
      "duration": 0.1157,
      "velocity": 80,
      "chip": "ym2612"
    },
    {
      "channel": 2,
      "note": 25,
      "start": 19.7632,
      "duration": 0.2156,
      "velocity": 127,
      "chip": "ym2612"
    },
    {
      "channel": 5,
      "note": 88,
      "start": 19.8092,
      "duration": 1.0828,
      "velocity": 102,
      "chip": "ym2612"
    },
    {
      "channel": 1,
      "note": 66,
      "start": 19.8748,
      "duration": 0.0994,
      "velocity": 80,
      "chip": "ym2612"
    },
    {
      "channel": 1,
      "note": 66,
      "start": 19.9748,
      "duration": 0.1161,
      "velocity": 80,
      "chip": "ym2612"
    },
    {
      "channel": 2,
      "note": 70,
      "start": 19.9795,
      "duration": 0.216,
      "velocity": 79,
      "chip": "ym2612"
    },
    {
      "channel": 1,
      "note": 66,
      "start": 20.0914,
      "duration": 0.0994,
      "velocity": 80,
      "chip": "ym2612"
    },
    {
      "channel": 1,
      "note": 66,
      "start": 20.1914,
      "duration": 0.1161,
      "velocity": 80,
      "chip": "ym2612"
    },
    {
      "channel": 2,
      "note": 25,
      "start": 20.1961,
      "duration": 0.2161,
      "velocity": 127,
      "chip": "ym2612"
    },
    {
      "channel": 1,
      "note": 66,
      "start": 20.3081,
      "duration": 0.0994,
      "velocity": 80,
      "chip": "ym2612"
    },
    {
      "channel": 1,
      "note": 66,
      "start": 20.4081,
      "duration": 0.1161,
      "velocity": 80,
      "chip": "ym2612"
    },
    {
      "channel": 2,
      "note": 70,
      "start": 20.4128,
      "duration": 0.216,
      "velocity": 79,
      "chip": "ym2612"
    },
    {
      "channel": 1,
      "note": 69,
      "start": 20.5248,
      "duration": 0.0994,
      "velocity": 80,
      "chip": "ym2612"
    },
    {
      "channel": 1,
      "note": 66,
      "start": 20.6248,
      "duration": 0.1161,
      "velocity": 80,
      "chip": "ym2612"
    },
    {
      "channel": 2,
      "note": 25,
      "start": 20.6294,
      "duration": 0.2177,
      "velocity": 127,
      "chip": "ym2612"
    },
    {
      "channel": 1,
      "note": 66,
      "start": 20.7414,
      "duration": 0.1,
      "velocity": 80,
      "chip": "ym2612"
    },
    {
      "channel": 0,
      "note": 81,
      "start": 20.8412,
      "duration": 0.2993,
      "velocity": 102,
      "chip": "ym2612"
    },
    {
      "channel": 1,
      "note": 66,
      "start": 20.8421,
      "duration": 0.1155,
      "velocity": 80,
      "chip": "ym2612"
    },
    {
      "channel": 3,
      "note": 85,
      "start": 20.8429,
      "duration": 1.7324,
      "velocity": 98,
      "chip": "ym2612"
    },
    {
      "channel": 4,
      "note": 73,
      "start": 20.8437,
      "duration": 1.7325,
      "velocity": 98,
      "chip": "ym2612"
    },
    {
      "channel": 2,
      "note": 70,
      "start": 20.8477,
      "duration": 0.2144,
      "velocity": 79,
      "chip": "ym2612"
    },
    {
      "channel": 5,
      "note": 88,
      "start": 20.8926,
      "duration": 0.283,
      "velocity": 102,
      "chip": "ym2612"
    },
    {
      "channel": 1,
      "note": 66,
      "start": 20.9581,
      "duration": 0.0994,
      "velocity": 80,
      "chip": "ym2612"
    },
    {
      "channel": 1,
      "note": 66,
      "start": 21.0581,
      "duration": 0.1161,
      "velocity": 80,
      "chip": "ym2612"
    },
    {
      "channel": 2,
      "note": 25,
      "start": 21.0627,
      "duration": 0.2161,
      "velocity": 127,
      "chip": "ym2612"
    },
    {
      "channel": 0,
      "note": 83,
      "start": 21.1411,
      "duration": 0.316,
      "velocity": 102,
      "chip": "ym2612"
    },
    {
      "channel": 1,
      "note": 66,
      "start": 21.1748,
      "duration": 0.0994,
      "velocity": 80,
      "chip": "ym2612"
    },
    {
      "channel": 5,
      "note": 90,
      "start": 21.1763,
      "duration": 0.316,
      "velocity": 102,
      "chip": "ym2612"
    },
    {
      "channel": 1,
      "note": 66,
      "start": 21.2748,
      "duration": 0.1161,
      "velocity": 80,
      "chip": "ym2612"
    },
    {
      "channel": 2,
      "note": 70,
      "start": 21.2795,
      "duration": 0.2165,
      "velocity": 79,
      "chip": "ym2612"
    },
    {
      "channel": 1,
      "note": 69,
      "start": 21.3914,
      "duration": 0.0994,
      "velocity": 80,
      "chip": "ym2612"
    },
    {
      "channel": 0,
      "note": 84,
      "start": 21.4578,
      "duration": 1.116,
      "velocity": 102,
      "chip": "ym2612"
    },
    {
      "channel": 1,
      "note": 66,
      "start": 21.4914,
      "duration": 0.1161,
      "velocity": 80,
      "chip": "ym2612"
    },
    {
      "channel": 5,
      "note": 91,
      "start": 21.4929,
      "duration": 1.1323,
      "velocity": 102,
      "chip": "ym2612"
    },
    {
      "channel": 2,
      "note": 25,
      "start": 21.4965,
      "duration": 0.216,
      "velocity": 127,
      "chip": "ym2612"
    },
    {
      "channel": 1,
      "note": 66,
      "start": 21.6081,
      "duration": 0.0998,
      "velocity": 80,
      "chip": "ym2612"
    },
    {
      "channel": 1,
      "note": 66,
      "start": 21.7085,
      "duration": 0.1157,
      "velocity": 80,
      "chip": "ym2612"
    },
    {
      "channel": 2,
      "note": 70,
      "start": 21.7132,
      "duration": 0.2156,
      "velocity": 79,
      "chip": "ym2612"
    },
    {
      "channel": 1,
      "note": 66,
      "start": 21.8248,
      "duration": 0.0994,
      "velocity": 80,
      "chip": "ym2612"
    },
    {
      "channel": 1,
      "note": 66,
      "start": 21.9248,
      "duration": 0.1161,
      "velocity": 80,
      "chip": "ym2612"
    },
    {
      "channel": 2,
      "note": 25,
      "start": 21.9294,
      "duration": 0.2161,
      "velocity": 127,
      "chip": "ym2612"
    },
    {
      "channel": 1,
      "note": 66,
      "start": 22.0414,
      "duration": 0.0994,
      "velocity": 80,
      "chip": "ym2612"
    },
    {
      "channel": 1,
      "note": 66,
      "start": 22.1414,
      "duration": 0.1161,
      "velocity": 80,
      "chip": "ym2612"
    },
    {
      "channel": 2,
      "note": 70,
      "start": 22.1461,
      "duration": 0.216,
      "velocity": 79,
      "chip": "ym2612"
    },
    {
      "channel": 1,
      "note": 69,
      "start": 22.2581,
      "duration": 0.0994,
      "velocity": 80,
      "chip": "ym2612"
    },
    {
      "channel": 1,
      "note": 66,
      "start": 22.3581,
      "duration": 0.1161,
      "velocity": 80,
      "chip": "ym2612"
    },
    {
      "channel": 2,
      "note": 25,
      "start": 22.3627,
      "duration": 0.2175,
      "velocity": 127,
      "chip": "ym2612"
    },
    {
      "channel": 1,
      "note": 66,
      "start": 22.4748,
      "duration": 0.0998,
      "velocity": 80,
      "chip": "ym2612"
    },
    {
      "channel": 0,
      "note": 90,
      "start": 22.5744,
      "duration": 0.2994,
      "velocity": 102,
      "chip": "ym2612"
    },
    {
      "channel": 1,
      "note": 64,
      "start": 22.5752,
      "duration": 0.1157,
      "velocity": 80,
      "chip": "ym2612"
    },
    {
      "channel": 3,
      "note": 83,
      "start": 22.576,
      "duration": 1.7328,
      "velocity": 98,
      "chip": "ym2612"
    },
    {
      "channel": 4,
      "note": 71,
      "start": 22.5768,
      "duration": 1.7327,
      "velocity": 98,
      "chip": "ym2612"
    },
    {
      "channel": 2,
      "note": 70,
      "start": 22.5808,
      "duration": 0.2147,
      "velocity": 79,
      "chip": "ym2612"
    },
    {
      "channel": 5,
      "note": 97,
      "start": 22.6259,
      "duration": 0.2831,
      "velocity": 102,
      "chip": "ym2612"
    },
    {
      "channel": 1,
      "note": 64,
      "start": 22.6914,
      "duration": 0.0994,
      "velocity": 80,
      "chip": "ym2612"
    },
    {
      "channel": 1,
      "note": 64,
      "start": 22.7914,
      "duration": 0.1161,
      "velocity": 80,
      "chip": "ym2612"
    },
    {
      "channel": 2,
      "note": 25,
      "start": 22.7961,
      "duration": 0.2161,
      "velocity": 127,
      "chip": "ym2612"
    },
    {
      "channel": 0,
      "note": 88,
      "start": 22.8744,
      "duration": 0.2827,
      "velocity": 102,
      "chip": "ym2612"
    },
    {
      "channel": 1,
      "note": 64,
      "start": 22.9081,
      "duration": 0.0994,
      "velocity": 80,
      "chip": "ym2612"
    },
    {
      "channel": 5,
      "note": 95,
      "start": 22.9096,
      "duration": 0.2823,
      "velocity": 102,
      "chip": "ym2612"
    },
    {
      "channel": 1,
      "note": 64,
      "start": 23.0081,
      "duration": 0.1161,
      "velocity": 80,
      "chip": "ym2612"
    },
    {
      "channel": 2,
      "note": 70,
      "start": 23.0128,
      "duration": 0.216,
      "velocity": 79,
      "chip": "ym2612"
    },
    {
      "channel": 1,
      "note": 68,
      "start": 23.1248,
      "duration": 0.0994,
      "velocity": 80,
      "chip": "ym2612"
    },
    {
      "channel": 0,
      "note": 85,
      "start": 23.1578,
      "duration": 0.2827,
      "velocity": 102,
      "chip": "ym2612"
    },
    {
      "channel": 5,
      "note": 92,
      "start": 23.1926,
      "duration": 0.2994,
      "velocity": 102,
      "chip": "ym2612"
    },
    {
      "channel": 1,
      "note": 64,
      "start": 23.2248,
      "duration": 0.1161,
      "velocity": 80,
      "chip": "ym2612"
    },
    {
      "channel": 2,
      "note": 25,
      "start": 23.2294,
      "duration": 0.2165,
      "velocity": 127,
      "chip": "ym2612"
    },
    {
      "channel": 1,
      "note": 64,
      "start": 23.3414,
      "duration": 0.0998,
      "velocity": 80,
      "chip": "ym2612"
    },
    {
      "channel": 0,
      "note": 83,
      "start": 23.4411,
      "duration": 0.4327,
      "velocity": 102,
      "chip": "ym2612"
    },
    {
      "channel": 1,
      "note": 64,
      "start": 23.4419,
      "duration": 0.1157,
      "velocity": 80,
      "chip": "ym2612"
    },
    {
      "channel": 2,
      "note": 70,
      "start": 23.4466,
      "duration": 0.2156,
      "velocity": 79,
      "chip": "ym2612"
    },
    {
      "channel": 5,
      "note": 90,
      "start": 23.4926,
      "duration": 0.4327,
      "velocity": 102,
      "chip": "ym2612"
    },
    {
      "channel": 1,
      "note": 64,
      "start": 23.5581,
      "duration": 0.0994,
      "velocity": 80,
      "chip": "ym2612"
    },
    {
      "channel": 1,
      "note": 64,
      "start": 23.6581,
      "duration": 0.1161,
      "velocity": 80,
      "chip": "ym2612"
    },
    {
      "channel": 2,
      "note": 25,
      "start": 23.6627,
      "duration": 0.2165,
      "velocity": 127,
      "chip": "ym2612"
    },
    {
      "channel": 1,
      "note": 64,
      "start": 23.7748,
      "duration": 0.0998,
      "velocity": 80,
      "chip": "ym2612"
    },
    {
      "channel": 0,
      "note": 81,
      "start": 23.8744,
      "duration": 0.4327,
      "velocity": 102,
      "chip": "ym2612"
    },
    {
      "channel": 1,
      "note": 64,
      "start": 23.8752,
      "duration": 0.1157,
      "velocity": 80,
      "chip": "ym2612"
    },
    {
      "channel": 2,
      "note": 70,
      "start": 23.8799,
      "duration": 0.2156,
      "velocity": 79,
      "chip": "ym2612"
    },
    {
      "channel": 5,
      "note": 88,
      "start": 23.9259,
      "duration": 0.4327,
      "velocity": 102,
      "chip": "ym2612"
    },
    {
      "channel": 1,
      "note": 68,
      "start": 23.9914,
      "duration": 0.0994,
      "velocity": 80,
      "chip": "ym2612"
    },
    {
      "channel": 1,
      "note": 64,
      "start": 24.0914,
      "duration": 0.1161,
      "velocity": 80,
      "chip": "ym2612"
    },
    {
      "channel": 2,
      "note": 25,
      "start": 24.0961,
      "duration": 0.2175,
      "velocity": 127,
      "chip": "ym2612"
    },
    {
      "channel": 1,
      "note": 64,
      "start": 24.2081,
      "duration": 0.0998,
      "velocity": 80,
      "chip": "ym2612"
    },
    {
      "channel": 0,
      "note": 81,
      "start": 24.3078,
      "duration": 0.2994,
      "velocity": 102,
      "chip": "ym2612"
    },
    {
      "channel": 1,
      "note": 69,
      "start": 24.3085,
      "duration": 0.1157,
      "velocity": 80,
      "chip": "ym2612"
    },
    {
      "channel": 3,
      "note": 81,
      "start": 24.3094,
      "duration": 1.7326,
      "velocity": 98,
      "chip": "ym2612"
    },
    {
      "channel": 4,
      "note": 69,
      "start": 24.3101,
      "duration": 1.7327,
      "velocity": 98,
      "chip": "ym2612"
    },
    {
      "channel": 2,
      "note": 70,
      "start": 24.3142,
      "duration": 0.2146,
      "velocity": 79,
      "chip": "ym2612"
    },
    {
      "channel": 5,
      "note": 88,
      "start": 24.3592,
      "duration": 0.2831,
      "velocity": 102,
      "chip": "ym2612"
    },
    {
      "channel": 1,
      "note": 69,
      "start": 24.4248,
      "duration": 0.0994,
      "velocity": 80,
      "chip": "ym2612"
    },
    {
      "channel": 1,
      "note": 69,
      "start": 24.5248,
      "duration": 0.1161,
      "velocity": 80,
      "chip": "ym2612"
    },
    {
      "channel": 2,
      "note": 25,
      "start": 24.5295,
      "duration": 0.216,
      "velocity": 127,
      "chip": "ym2612"
    },
    {
      "channel": 0,
      "note": 83,
      "start": 24.6078,
      "duration": 0.316,
      "velocity": 102,
      "chip": "ym2612"
    },
    {
      "channel": 1,
      "note": 69,
      "start": 24.6414,
      "duration": 0.0994,
      "velocity": 80,
      "chip": "ym2612"
    },
    {
      "channel": 5,
      "note": 90,
      "start": 24.6429,
      "duration": 0.316,
      "velocity": 102,
      "chip": "ym2612"
    },
    {
      "channel": 1,
      "note": 69,
      "start": 24.7414,
      "duration": 0.1161,
      "velocity": 80,
      "chip": "ym2612"
    },
    {
      "channel": 2,
      "note": 70,
      "start": 24.7461,
      "duration": 0.2165,
      "velocity": 79,
      "chip": "ym2612"
    },
    {
      "channel": 1,
      "note": 73,
      "start": 24.8581,
      "duration": 0.0994,
      "velocity": 80,
      "chip": "ym2612"
    },
    {
      "channel": 0,
      "note": 84,
      "start": 24.9244,
      "duration": 1.116,
      "velocity": 102,
      "chip": "ym2612"
    },
    {
      "channel": 1,
      "note": 69,
      "start": 24.9581,
      "duration": 0.1161,
      "velocity": 80,
      "chip": "ym2612"
    },
    {
      "channel": 5,
      "note": 91,
      "start": 24.9596,
      "duration": 1.1323,
      "velocity": 102,
      "chip": "ym2612"
    },
    {
      "channel": 2,
      "note": 25,
      "start": 24.9632,
      "duration": 0.216,
      "velocity": 127,
      "chip": "ym2612"
    },
    {
      "channel": 1,
      "note": 69,
      "start": 25.0748,
      "duration": 0.0998,
      "velocity": 80,
      "chip": "ym2612"
    },
    {
      "channel": 1,
      "note": 69,
      "start": 25.1751,
      "duration": 0.1157,
      "velocity": 80,
      "chip": "ym2612"
    },
    {
      "channel": 2,
      "note": 70,
      "start": 25.1798,
      "duration": 0.2156,
      "velocity": 79,
      "chip": "ym2612"
    },
    {
      "channel": 1,
      "note": 69,
      "start": 25.2914,
      "duration": 0.0994,
      "velocity": 80,
      "chip": "ym2612"
    },
    {
      "channel": 1,
      "note": 69,
      "start": 25.3914,
      "duration": 0.1161,
      "velocity": 80,
      "chip": "ym2612"
    },
    {
      "channel": 2,
      "note": 25,
      "start": 25.3961,
      "duration": 0.216,
      "velocity": 127,
      "chip": "ym2612"
    },
    {
      "channel": 1,
      "note": 69,
      "start": 25.5081,
      "duration": 0.0994,
      "velocity": 80,
      "chip": "ym2612"
    },
    {
      "channel": 1,
      "note": 69,
      "start": 25.6081,
      "duration": 0.1161,
      "velocity": 80,
      "chip": "ym2612"
    },
    {
      "channel": 2,
      "note": 70,
      "start": 25.6128,
      "duration": 0.216,
      "velocity": 79,
      "chip": "ym2612"
    },
    {
      "channel": 1,
      "note": 73,
      "start": 25.7248,
      "duration": 0.0994,
      "velocity": 80,
      "chip": "ym2612"
    },
    {
      "channel": 1,
      "note": 69,
      "start": 25.8248,
      "duration": 0.1161,
      "velocity": 80,
      "chip": "ym2612"
    },
    {
      "channel": 2,
      "note": 25,
      "start": 25.8295,
      "duration": 0.2174,
      "velocity": 127,
      "chip": "ym2612"
    },
    {
      "channel": 1,
      "note": 69,
      "start": 25.9414,
      "duration": 0.0998,
      "velocity": 80,
      "chip": "ym2612"
    },
    {
      "channel": 0,
      "note": 83,
      "start": 26.0411,
      "duration": 0.6494,
      "velocity": 102,
      "chip": "ym2612"
    },
    {
      "channel": 1,
      "note": 66,
      "start": 26.0419,
      "duration": 0.1157,
      "velocity": 80,
      "chip": "ym2612"
    },
    {
      "channel": 3,
      "note": 78,
      "start": 26.0426,
      "duration": 1.7414,
      "velocity": 98,
      "chip": "ym2612"
    },
    {
      "channel": 4,
      "note": 66,
      "start": 26.0434,
      "duration": 1.7441,
      "velocity": 98,
      "chip": "ym2612"
    },
    {
      "channel": 2,
      "note": 70,
      "start": 26.0475,
      "duration": 0.2147,
      "velocity": 79,
      "chip": "ym2612"
    },
    {
      "channel": 5,
      "note": 90,
      "start": 26.0926,
      "duration": 0.6494,
      "velocity": 102,
      "chip": "ym2612"
    },
    {
      "channel": 1,
      "note": 66,
      "start": 26.1581,
      "duration": 0.0994,
      "velocity": 80,
      "chip": "ym2612"
    },
    {
      "channel": 1,
      "note": 66,
      "start": 26.2581,
      "duration": 0.1161,
      "velocity": 80,
      "chip": "ym2612"
    },
    {
      "channel": 2,
      "note": 25,
      "start": 26.2627,
      "duration": 0.2161,
      "velocity": 127,
      "chip": "ym2612"
    },
    {
      "channel": 1,
      "note": 66,
      "start": 26.3748,
      "duration": 0.0994,
      "velocity": 80,
      "chip": "ym2612"
    },
    {
      "channel": 1,
      "note": 66,
      "start": 26.4748,
      "duration": 0.1161,
      "velocity": 80,
      "chip": "ym2612"
    },
    {
      "channel": 2,
      "note": 70,
      "start": 26.4795,
      "duration": 0.2165,
      "velocity": 79,
      "chip": "ym2612"
    },
    {
      "channel": 1,
      "note": 69,
      "start": 26.5914,
      "duration": 0.0998,
      "velocity": 80,
      "chip": "ym2612"
    },
    {
      "channel": 0,
      "note": 81,
      "start": 26.6911,
      "duration": 1.0856,
      "velocity": 102,
      "chip": "ym2612"
    },
    {
      "channel": 1,
      "note": 66,
      "start": 26.6919,
      "duration": 0.1157,
      "velocity": 80,
      "chip": "ym2612"
    },
    {
      "channel": 2,
      "note": 25,
      "start": 26.6965,
      "duration": 0.2156,
      "velocity": 127,
      "chip": "ym2612"
    },
    {
      "channel": 5,
      "note": 88,
      "start": 26.7426,
      "duration": 1.1021,
      "velocity": 102,
      "chip": "ym2612"
    },
    {
      "channel": 1,
      "note": 66,
      "start": 26.8081,
      "duration": 0.0994,
      "velocity": 80,
      "chip": "ym2612"
    },
    {
      "channel": 1,
      "note": 66,
      "start": 26.9081,
      "duration": 0.1161,
      "velocity": 80,
      "chip": "ym2612"
    },
    {
      "channel": 2,
      "note": 70,
      "start": 26.9128,
      "duration": 0.216,
      "velocity": 79,
      "chip": "ym2612"
    },
    {
      "channel": 1,
      "note": 66,
      "start": 27.0248,
      "duration": 0.0994,
      "velocity": 80,
      "chip": "ym2612"
    },
    {
      "channel": 1,
      "note": 66,
      "start": 27.1248,
      "duration": 0.1161,
      "velocity": 80,
      "chip": "ym2612"
    },
    {
      "channel": 2,
      "note": 25,
      "start": 27.1294,
      "duration": 0.2161,
      "velocity": 127,
      "chip": "ym2612"
    },
    {
      "channel": 1,
      "note": 66,
      "start": 27.2414,
      "duration": 0.0994,
      "velocity": 80,
      "chip": "ym2612"
    },
    {
      "channel": 1,
      "note": 66,
      "start": 27.3414,
      "duration": 0.1161,
      "velocity": 80,
      "chip": "ym2612"
    },
    {
      "channel": 2,
      "note": 70,
      "start": 27.3461,
      "duration": 0.216,
      "velocity": 79,
      "chip": "ym2612"
    },
    {
      "channel": 1,
      "note": 69,
      "start": 27.4581,
      "duration": 0.0994,
      "velocity": 80,
      "chip": "ym2612"
    },
    {
      "channel": 1,
      "note": 66,
      "start": 27.5581,
      "duration": 0.1161,
      "velocity": 80,
      "chip": "ym2612"
    },
    {
      "channel": 2,
      "note": 25,
      "start": 27.5627,
      "duration": 0.2289,
      "velocity": 79,
      "chip": "ym2612"
    },
    {
      "channel": 1,
      "note": 66,
      "start": 27.6748,
      "duration": 0.1057,
      "velocity": 80,
      "chip": "ym2612"
    },
    {
      "channel": 0,
      "note": 81,
      "start": 27.7774,
      "duration": 0.2298,
      "velocity": 102,
      "chip": "ym2612"
    },
    {
      "channel": 1,
      "note": 64,
      "start": 27.7811,
      "duration": 0.1265,
      "velocity": 80,
      "chip": "ym2612"
    },
    {
      "channel": 3,
      "note": 64,
      "start": 27.7846,
      "duration": 0.4323,
      "velocity": 98,
      "chip": "ym2612"
    },
    {
      "channel": 4,
      "note": 69,
      "start": 27.7881,
      "duration": 0.4288,
      "velocity": 98,
      "chip": "ym2612"
    },
    {
      "channel": 2,
      "note": 25,
      "start": 27.7922,
      "duration": 0.2203,
      "velocity": 79,
      "chip": "ym2612"
    },
    {
      "channel": 5,
      "note": 88,
      "start": 27.8453,
      "duration": 0.2133,
      "velocity": 102,
      "chip": "ym2612"
    },
    {
      "channel": 1,
      "note": 64,
      "start": 27.9081,
      "duration": 0.0998,
      "velocity": 80,
      "chip": "ym2612"
    },
    {
      "channel": 0,
      "note": 80,
      "start": 28.0078,
      "duration": 0.2091,
      "velocity": 102,
      "chip": "ym2612"
    },
    {
      "channel": 1,
      "note": 64,
      "start": 28.0085,
      "duration": 0.1157,
      "velocity": 80,
      "chip": "ym2612"
    },
    {
      "channel": 2,
      "note": 25,
      "start": 28.0132,
      "duration": 0.2037,
      "velocity": 79,
      "chip": "ym2612"
    },
    {
      "channel": 5,
      "note": 87,
      "start": 28.0592,
      "duration": 0.1577,
      "velocity": 102,
      "chip": "ym2612"
    },
    {
      "channel": 1,
      "note": 64,
      "start": 28.1248,
      "duration": 0.0921,
      "velocity": 80,
      "chip": "ym2612"
    }
  ]
}