{
  "track_name": "10 - Death of the Goblin King",
  "duration_sec": 50.667,
  "sample_rate": 44100,
  "note_count": 734,
  "unique_pitches": 20,
  "pitch_range": 29,
  "avg_note_duration": 0.382,
  "reconstruction_stats": {
    "notes_reconstructed": 734,
    "keyon_events": 734,
    "keyoff_events": 731,
    "orphan_keyons": 3,
    "unique_pitches": 20,
    "pitch_range": 29,
    "avg_duration_sec": 0.382
  },
  "metadata": {
    "source": "T\\The Immortal\\10 - Death of the Goblin King.vgz"
  },
  "notes": [
    {
      "channel": 0,
      "note": 25,
      "start": 0.0,
      "duration": 0.0,
      "velocity": 108,
      "chip": "ym2612"
    },
    {
      "channel": 0,
      "note": 24,
      "start": 0.0,
      "duration": 0.0,
      "velocity": 108,
      "chip": "ym2612"
    },
    {
      "channel": 0,
      "note": 24,
      "start": 0.0,
      "duration": 0.0,
      "velocity": 108,
      "chip": "ym2612"
    },
    {
      "channel": 0,
      "note": 24,
      "start": 0.0,
      "duration": 0.0,
      "velocity": 108,
      "chip": "ym2612"
    },
    {
      "channel": 0,
      "note": 24,
      "start": 0.0,
      "duration": 0.0,
      "velocity": 108,
      "chip": "ym2612"
    },
    {
      "channel": 0,
      "note": 24,
      "start": 0.0,
      "duration": 0.0,
      "velocity": 108,
      "chip": "ym2612"
    },
    {
      "channel": 0,
      "note": 24,
      "start": 0.0,
      "duration": 0.0,
      "velocity": 108,
      "chip": "ym2612"
    },
    {
      "channel": 0,
      "note": 24,
      "start": 0.0,
      "duration": 0.0,
      "velocity": 108,
      "chip": "ym2612"
    },
    {
      "channel": 0,
      "note": 22,
      "start": 0.0,
      "duration": 0.0,
      "velocity": 108,
      "chip": "ym2612"
    },
    {
      "channel": 0,
      "note": 25,
      "start": 0.0,
      "duration": 0.0,
      "velocity": 108,
      "chip": "ym2612"
    },
    {
      "channel": 0,
      "note": 31,
      "start": 0.0,
      "duration": 0.0,
      "velocity": 108,
      "chip": "ym2612"
    },
    {
      "channel": 0,
      "note": 31,
      "start": 0.0,
      "duration": 0.0,
      "velocity": 108,
      "chip": "ym2612"
    },
    {
      "channel": 0,
      "note": 31,
      "start": 0.0,
      "duration": 0.0,
      "velocity": 108,
      "chip": "ym2612"
    },
    {
      "channel": 0,
      "note": 31,
      "start": 0.0,
      "duration": 0.0,
      "velocity": 108,
      "chip": "ym2612"
    },
    {
      "channel": 0,
      "note": 31,
      "start": 0.0,
      "duration": 0.0,
      "velocity": 108,
      "chip": "ym2612"
    },
    {
      "channel": 0,
      "note": 31,
      "start": 0.0,
      "duration": 0.0,
      "velocity": 108,
      "chip": "ym2612"
    },
    {
      "channel": 0,
      "note": 31,
      "start": 0.0,
      "duration": 0.0,
      "velocity": 108,
      "chip": "ym2612"
    },
    {
      "channel": 0,
      "note": 34,
      "start": 0.0,
      "duration": 0.0,
      "velocity": 108,
      "chip": "ym2612"
    },
    {
      "channel": 0,
      "note": 32,
      "start": 0.0,
      "duration": 0.0,
      "velocity": 108,
      "chip": "ym2612"
    },
    {
      "channel": 0,
      "note": 31,
      "start": 0.0,
      "duration": 0.0,
      "velocity": 108,
      "chip": "ym2612"
    },
    {
      "channel": 0,
      "note": 31,
      "start": 0.0,
      "duration": 0.0,
      "velocity": 108,
      "chip": "ym2612"
    },
    {
      "channel": 0,
      "note": 31,
      "start": 0.0,
      "duration": 0.0,
      "velocity": 108,
      "chip": "ym2612"
    },
    {
      "channel": 0,
      "note": 31,
      "start": 0.0,
      "duration": 0.0,
      "velocity": 108,
      "chip": "ym2612"
    },
    {
      "channel": 0,
      "note": 31,
      "start": 0.0,
      "duration": 0.0,
      "velocity": 108,
      "chip": "ym2612"
    },
    {
      "channel": 0,
      "note": 31,
      "start": 0.0,
      "duration": 0.0,
      "velocity": 108,
      "chip": "ym2612"
    },
    {
      "channel": 0,
      "note": 31,
      "start": 0.0,
      "duration": 0.0,
      "velocity": 108,
      "chip": "ym2612"
    },
    {
      "channel": 0,
      "note": 29,
      "start": 0.0,
      "duration": 0.0,
      "velocity": 108,
      "chip": "ym2612"
    },
    {
      "channel": 0,
      "note": 32,
      "start": 0.0,
      "duration": 0.0,
      "velocity": 108,
      "chip": "ym2612"
    },
    {
      "channel": 0,
      "note": 24,
      "start": 0.0,
      "duration": 0.0,
      "velocity": 108,
      "chip": "ym2612"
    },
    {
      "channel": 0,
      "note": 24,
      "start": 0.0,
      "duration": 0.0,
      "velocity": 108,
      "chip": "ym2612"
    },
    {
      "channel": 0,
      "note": 24,
      "start": 0.0,
      "duration": 0.0,
      "velocity": 108,
      "chip": "ym2612"
    },
    {
      "channel": 0,
      "note": 24,
      "start": 0.0,
      "duration": 0.0,
      "velocity": 108,
      "chip": "ym2612"
    },
    {
      "channel": 0,
      "note": 24,
      "start": 0.0,
      "duration": 0.0,
      "velocity": 108,
      "chip": "ym2612"
    },
    {
      "channel": 0,
      "note": 24,
      "start": 0.0,
      "duration": 0.0,
      "velocity": 108,
      "chip": "ym2612"
    },
    {
      "channel": 0,
      "note": 24,
      "start": 0.0,
      "duration": 0.0,
      "velocity": 108,
      "chip": "ym2612"
    },
    {
      "channel": 0,
      "note": 27,
      "start": 0.0,
      "duration": 0.0,
      "velocity": 108,
      "chip": "ym2612"
    },
    {
      "channel": 0,
      "note": 25,
      "start": 0.0,
      "duration": 0.0,
      "velocity": 108,
      "chip": "ym2612"
    },
    {
      "channel": 0,
      "note": 24,
      "start": 0.0,
      "duration": 0.0,
      "velocity": 108,
      "chip": "ym2612"
    },
    {
      "channel": 0,
      "note": 24,
      "start": 0.0,
      "duration": 0.0,
      "velocity": 108,
      "chip": "ym2612"
    },
    {
      "channel": 0,
      "note": 24,
      "start": 0.0,
      "duration": 0.0,
      "velocity": 108,
      "chip": "ym2612"
    },
    {
      "channel": 0,
      "note": 24,
      "start": 0.0,
      "duration": 0.0,
      "velocity": 108,
      "chip": "ym2612"
    },
    {
      "channel": 0,
      "note": 24,
      "start": 0.0,
      "duration": 0.0,
      "velocity": 108,
      "chip": "ym2612"
    },
    {
      "channel": 0,
      "note": 24,
      "start": 0.0,
      "duration": 0.0,
      "velocity": 108,
      "chip": "ym2612"
    },
    {
      "channel": 0,
      "note": 24,
      "start": 0.0,
      "duration": 0.0,
      "velocity": 108,
      "chip": "ym2612"
    },
    {
      "channel": 0,
      "note": 22,
      "start": 0.0,
      "duration": 0.0,
      "velocity": 108,
      "chip": "ym2612"
    },
    {
      "channel": 0,
      "note": 25,
      "start": 0.0,
      "duration": 0.0,
      "velocity": 108,
      "chip": "ym2612"
    },
    {
      "channel": 0,
      "note": 31,
      "start": 0.0,
      "duration": 0.0,
      "velocity": 108,
      "chip": "ym2612"
    },
    {
      "channel": 0,
      "note": 31,
      "start": 0.0,
      "duration": 0.0,
      "velocity": 108,
      "chip": "ym2612"
    },
    {
      "channel": 0,
      "note": 31,
      "start": 0.0,
      "duration": 0.0,
      "velocity": 108,
      "chip": "ym2612"
    },
    {
      "channel": 0,
      "note": 31,
      "start": 0.0,
      "duration": 0.0,
      "velocity": 108,
      "chip": "ym2612"
    },
    {
      "channel": 0,
      "note": 31,
      "start": 0.0,
      "duration": 0.0,
      "velocity": 108,
      "chip": "ym2612"
    },
    {
      "channel": 0,
      "note": 31,
      "start": 0.0,
      "duration": 0.0,
      "velocity": 108,
      "chip": "ym2612"
    },
    {
      "channel": 0,
      "note": 31,
      "start": 0.0,
      "duration": 0.0,
      "velocity": 108,
      "chip": "ym2612"
    },
    {
      "channel": 0,
      "note": 34,
      "start": 0.0,
      "duration": 0.0,
      "velocity": 108,
      "chip": "ym2612"
    },
    {
      "channel": 0,
      "note": 32,
      "start": 0.0,
      "duration": 0.0,
      "velocity": 108,
      "chip": "ym2612"
    },
    {
      "channel": 0,
      "note": 31,
      "start": 0.0,
      "duration": 0.0,
      "velocity": 108,
      "chip": "ym2612"
    },
    {
      "channel": 0,
      "note": 31,
      "start": 0.0,
      "duration": 0.0,
      "velocity": 108,
      "chip": "ym2612"
    },
    {
      "channel": 0,
      "note": 31,
      "start": 0.0,
      "duration": 0.0,
      "velocity": 108,
      "chip": "ym2612"
    },
    {
      "channel": 0,
      "note": 31,
      "start": 0.0,
      "duration": 0.0,
      "velocity": 108,
      "chip": "ym2612"
    },
    {
      "channel": 0,
      "note": 31,
      "start": 0.0,
      "duration": 0.0,
      "velocity": 108,
      "chip": "ym2612"
    },
    {
      "channel": 0,
      "note": 31,
      "start": 0.0,
      "duration": 0.0,
      "velocity": 108,
      "chip": "ym2612"
    },
    {
      "channel": 0,
      "note": 31,
      "start": 0.0,
      "duration": 0.0,
      "velocity": 108,
      "chip": "ym2612"
    },
    {
      "channel": 0,
      "note": 29,
      "start": 0.0,
      "duration": 0.0,
      "velocity": 108,
      "chip": "ym2612"
    },
    {
      "channel": 0,
      "note": 32,
      "start": 0.0,
      "duration": 0.0,
      "velocity": 108,
      "chip": "ym2612"
    },
    {
      "channel": 0,
      "note": 26,
      "start": 0.0,
      "duration": 0.0,
      "velocity": 108,
      "chip": "ym2612"
    },
    {
      "channel": 0,
      "note": 26,
      "start": 0.0,
      "duration": 0.0,
      "velocity": 108,
      "chip": "ym2612"
    },
    {
      "channel": 0,
      "note": 26,
      "start": 0.0,
      "duration": 0.0,
      "velocity": 108,
      "chip": "ym2612"
    },
    {
      "channel": 0,
      "note": 26,
      "start": 0.0,
      "duration": 0.0,
      "velocity": 108,
      "chip": "ym2612"
    },
    {
      "channel": 0,
      "note": 26,
      "start": 0.0,
      "duration": 0.0,
      "velocity": 108,
      "chip": "ym2612"
    },
    {
      "channel": 0,
      "note": 26,
      "start": 0.0,
      "duration": 0.0,
      "velocity": 108,
      "chip": "ym2612"
    },
    {
      "channel": 0,
      "note": 26,
      "start": 0.0,
      "duration": 0.0,
      "velocity": 108,
      "chip": "ym2612"
    },
    {
      "channel": 0,
      "note": 29,
      "start": 0.0,
      "duration": 0.0,
      "velocity": 108,
      "chip": "ym2612"
    },
    {
      "channel": 0,
      "note": 27,
      "start": 0.0,
      "duration": 0.0,
      "velocity": 108,
      "chip": "ym2612"
    },
    {
      "channel": 0,
      "note": 26,
      "start": 0.0,
      "duration": 0.0,
      "velocity": 108,
      "chip": "ym2612"
    },
    {
      "channel": 0,
      "note": 26,
      "start": 0.0,
      "duration": 0.0,
      "velocity": 108,
      "chip": "ym2612"
    },
    {
      "channel": 0,
      "note": 26,
      "start": 0.0,
      "duration": 0.0,
      "velocity": 108,
      "chip": "ym2612"
    },
    {
      "channel": 0,
      "note": 26,
      "start": 0.0,
      "duration": 0.0,
      "velocity": 108,
      "chip": "ym2612"
    },
    {
      "channel": 0,
      "note": 26,
      "start": 0.0,
      "duration": 0.0,
      "velocity": 108,
      "chip": "ym2612"
    },
    {
      "channel": 0,
      "note": 26,
      "start": 0.0,
      "duration": 0.0,
      "velocity": 108,
      "chip": "ym2612"
    },
    {
      "channel": 0,
      "note": 26,
      "start": 0.0,
      "duration": 0.0,
      "velocity": 108,
      "chip": "ym2612"
    },
    {
      "channel": 0,
      "note": 24,
      "start": 0.0,
      "duration": 0.0,
      "velocity": 108,
      "chip": "ym2612"
    },
    {
      "channel": 0,
      "note": 27,
      "start": 0.0,
      "duration": 0.0,
      "velocity": 108,
      "chip": "ym2612"
    },
    {
      "channel": 0,
      "note": 33,
      "start": 0.0,
      "duration": 0.0,
      "velocity": 108,
      "chip": "ym2612"
    },
    {
      "channel": 0,
      "note": 33,
      "start": 0.0,
      "duration": 0.0,
      "velocity": 108,
      "chip": "ym2612"
    },
    {
      "channel": 0,
      "note": 33,
      "start": 0.0,
      "duration": 0.0,
      "velocity": 108,
      "chip": "ym2612"
    },
    {
      "channel": 0,
      "note": 33,
      "start": 0.0,
      "duration": 0.0,
      "velocity": 108,
      "chip": "ym2612"
    },
    {
      "channel": 0,
      "note": 33,
      "start": 0.0,
      "duration": 0.0,
      "velocity": 108,
      "chip": "ym2612"
    },
    {
      "channel": 0,
      "note": 33,
      "start": 0.0,
      "duration": 0.0,
      "velocity": 108,
      "chip": "ym2612"
    },
    {
      "channel": 0,
      "note": 33,
      "start": 0.0,
      "duration": 0.0,
      "velocity": 108,
      "chip": "ym2612"
    },
    {
      "channel": 0,
      "note": 36,
      "start": 0.0,
      "duration": 0.0,
      "velocity": 108,
      "chip": "ym2612"
    },
    {
      "channel": 0,
      "note": 34,
      "start": 0.0,
      "duration": 0.0,
      "velocity": 108,
      "chip": "ym2612"
    },
    {
      "channel": 0,
      "note": 33,
      "start": 0.0,
      "duration": 0.0,
      "velocity": 108,
      "chip": "ym2612"
    },
    {
      "channel": 0,
      "note": 33,
      "start": 0.0,
      "duration": 0.0,
      "velocity": 108,
      "chip": "ym2612"
    },
    {
      "channel": 0,
      "note": 33,
      "start": 0.0,
      "duration": 0.0,
      "velocity": 108,
      "chip": "ym2612"
    },
    {
      "channel": 0,
      "note": 33,
      "start": 0.0,
      "duration": 0.0,
      "velocity": 108,
      "chip": "ym2612"
    },
    {
      "channel": 0,
      "note": 33,
      "start": 0.0,
      "duration": 0.0,
      "velocity": 108,
      "chip": "ym2612"
    },
    {
      "channel": 0,
      "note": 33,
      "start": 0.0,
      "duration": 0.0,
      "velocity": 108,
      "chip": "ym2612"
    },
    {
      "channel": 0,
      "note": 33,
      "start": 0.0,
      "duration": 0.0,
      "velocity": 108,
      "chip": "ym2612"
    },
    {
      "channel": 0,
      "note": 31,
      "start": 0.0,
      "duration": 0.0,
      "velocity": 108,
      "chip": "ym2612"
    },
    {
      "channel": 0,
      "note": 34,
      "start": 0.0,
      "duration": 0.0,
      "velocity": 108,
      "chip": "ym2612"
    },
    {
      "channel": 0,
      "note": 26,
      "start": 0.0,
      "duration": 0.0,
      "velocity": 108,
      "chip": "ym2612"
    },
    {
      "channel": 0,
      "note": 26,
      "start": 0.0,
      "duration": 0.0,
      "velocity": 108,
      "chip": "ym2612"
    },
    {
      "channel": 0,
      "note": 26,
      "start": 0.0,
      "duration": 0.0,
      "velocity": 108,
      "chip": "ym2612"
    },
    {
      "channel": 0,
      "note": 26,
      "start": 0.0,
      "duration": 0.0,
      "velocity": 108,
      "chip": "ym2612"
    },
    {
      "channel": 0,
      "note": 26,
      "start": 0.0,
      "duration": 0.0,
      "velocity": 108,
      "chip": "ym2612"
    },
    {
      "channel": 0,
      "note": 26,
      "start": 0.0,
      "duration": 0.0,
      "velocity": 108,
      "chip": "ym2612"
    },
    {
      "channel": 0,
      "note": 26,
      "start": 0.0,
      "duration": 0.0,
      "velocity": 108,
      "chip": "ym2612"
    },
    {
      "channel": 0,
      "note": 29,
      "start": 0.0,
      "duration": 0.0,
      "velocity": 108,
      "chip": "ym2612"
    },
    {
      "channel": 0,
      "note": 27,
      "start": 0.0,
      "duration": 0.0,
      "velocity": 108,
      "chip": "ym2612"
    },
    {
      "channel": 0,
      "note": 26,
      "start": 0.0,
      "duration": 0.0,
      "velocity": 108,
      "chip": "ym2612"
    },
    {
      "channel": 0,
      "note": 26,
      "start": 0.0,
      "duration": 0.0,
      "velocity": 108,
      "chip": "ym2612"
    },
    {
      "channel": 0,
      "note": 26,
      "start": 0.0,
      "duration": 0.0,
      "velocity": 108,
      "chip": "ym2612"
    },
    {
      "channel": 0,
      "note": 26,
      "start": 0.0,
      "duration": 0.0,
      "velocity": 108,
      "chip": "ym2612"
    },
    {
      "channel": 0,
      "note": 26,
      "start": 0.0,
      "duration": 0.0,
      "velocity": 108,
      "chip": "ym2612"
    },
    {
      "channel": 0,
      "note": 26,
      "start": 0.0,
      "duration": 0.0,
      "velocity": 108,
      "chip": "ym2612"
    },
    {
      "channel": 0,
      "note": 26,
      "start": 0.0,
      "duration": 0.0,
      "velocity": 108,
      "chip": "ym2612"
    },
    {
      "channel": 0,
      "note": 24,
      "start": 0.0,
      "duration": 0.0,
      "velocity": 108,
      "chip": "ym2612"
    },
    {
      "channel": 0,
      "note": 27,
      "start": 0.0,
      "duration": 0.0,
      "velocity": 108,
      "chip": "ym2612"
    },
    {
      "channel": 0,
      "note": 33,
      "start": 0.0,
      "duration": 0.0,
      "velocity": 108,
      "chip": "ym2612"
    },
    {
      "channel": 0,
      "note": 33,
      "start": 0.0,
      "duration": 0.0,
      "velocity": 108,
      "chip": "ym2612"
    },
    {
      "channel": 0,
      "note": 33,
      "start": 0.0,
      "duration": 0.0,
      "velocity": 108,
      "chip": "ym2612"
    },
    {
      "channel": 0,
      "note": 33,
      "start": 0.0,
      "duration": 0.0,
      "velocity": 108,
      "chip": "ym2612"
    },
    {
      "channel": 0,
      "note": 33,
      "start": 0.0,
      "duration": 0.0,
      "velocity": 108,
      "chip": "ym2612"
    },
    {
      "channel": 0,
      "note": 33,
      "start": 0.0,
      "duration": 0.0,
      "velocity": 108,
      "chip": "ym2612"
    },
    {
      "channel": 0,
      "note": 33,
      "start": 0.0,
      "duration": 0.0,
      "velocity": 108,
      "chip": "ym2612"
    },
    {
      "channel": 0,
      "note": 36,
      "start": 0.0,
      "duration": 0.0,
      "velocity": 108,
      "chip": "ym2612"
    },
    {
      "channel": 0,
      "note": 34,
      "start": 0.0,
      "duration": 0.0,
      "velocity": 108,
      "chip": "ym2612"
    },
    {
      "channel": 0,
      "note": 33,
      "start": 0.0,
      "duration": 0.0,
      "velocity": 108,
      "chip": "ym2612"
    },
    {
      "channel": 0,
      "note": 33,
      "start": 0.0,
      "duration": 0.0,
      "velocity": 108,
      "chip": "ym2612"
    },
    {
      "channel": 0,
      "note": 33,
      "start": 0.0,
      "duration": 0.0,
      "velocity": 108,
      "chip": "ym2612"
    },
    {
      "channel": 0,
      "note": 33,
      "start": 0.0,
      "duration": 0.0,
      "velocity": 108,
      "chip": "ym2612"
    },
    {
      "channel": 0,
      "note": 33,
      "start": 0.0,
      "duration": 0.0,
      "velocity": 108,
      "chip": "ym2612"
    },
    {
      "channel": 0,
      "note": 33,
      "start": 0.0,
      "duration": 0.0,
      "velocity": 108,
      "chip": "ym2612"
    },
    {
      "channel": 0,
      "note": 33,
      "start": 0.0,
      "duration": 0.0,
      "velocity": 108,
      "chip": "ym2612"
    },
    {
      "channel": 0,
      "note": 31,
      "start": 0.0,
      "duration": 0.0,
      "velocity": 108,
      "chip": "ym2612"
    },
    {
      "channel": 0,
      "note": 34,
      "start": 0.0,
      "duration": 0.3742,
      "velocity": 108,
      "chip": "ym2612"
    },
    {
      "channel": 1,
      "note": 43,
      "start": 0.0,
      "duration": 0.0,
      "velocity": 108,
      "chip": "ym2612"
    },
    {
      "channel": 1,
      "note": 44,
      "start": 0.0,
      "duration": 0.0,
      "velocity": 108,
      "chip": "ym2612"
    },
    {
      "channel": 1,
      "note": 43,
      "start": 0.0,
      "duration": 0.0,
      "velocity": 108,
      "chip": "ym2612"
    },
    {
      "channel": 1,
      "note": 43,
      "start": 0.0,
      "duration": 0.0,
      "velocity": 108,
      "chip": "ym2612"
    },
    {
      "channel": 1,
      "note": 43,
      "start": 0.0,
      "duration": 0.0,
      "velocity": 108,
      "chip": "ym2612"
    },
    {
      "channel": 1,
      "note": 44,
      "start": 0.0,
      "duration": 0.0,
      "velocity": 108,
      "chip": "ym2612"
    },
    {
      "channel": 1,
      "note": 49,
      "start": 0.0,
      "duration": 0.0,
      "velocity": 108,
      "chip": "ym2612"
    },
    {
      "channel": 1,
      "note": 48,
      "start": 0.0,
      "duration": 0.0,
      "velocity": 108,
      "chip": "ym2612"
    },
    {
      "channel": 1,
      "note": 49,
      "start": 0.0,
      "duration": 0.0,
      "velocity": 108,
      "chip": "ym2612"
    },
    {
      "channel": 1,
      "note": 47,
      "start": 0.0,
      "duration": 0.0,
      "velocity": 108,
      "chip": "ym2612"
    },
    {
      "channel": 1,
      "note": 46,
      "start": 0.0,
      "duration": 0.0,
      "velocity": 108,
      "chip": "ym2612"
    },
    {
      "channel": 1,
      "note": 44,
      "start": 0.0,
      "duration": 0.0,
      "velocity": 108,
      "chip": "ym2612"
    },
    {
      "channel": 1,
      "note": 45,
      "start": 0.0,
      "duration": 0.0,
      "velocity": 108,
      "chip": "ym2612"
    },
    {
      "channel": 1,
      "note": 46,
      "start": 0.0,
      "duration": 0.0,
      "velocity": 108,
      "chip": "ym2612"
    },
    {
      "channel": 1,
      "note": 45,
      "start": 0.0,
      "duration": 0.0,
      "velocity": 108,
      "chip": "ym2612"
    },
    {
      "channel": 1,
      "note": 45,
      "start": 0.0,
      "duration": 0.0,
      "velocity": 108,
      "chip": "ym2612"
    },
    {
      "channel": 1,
      "note": 45,
      "start": 0.0,
      "duration": 0.0,
      "velocity": 108,
      "chip": "ym2612"
    },
    {
      "channel": 1,
      "note": 46,
      "start": 0.0,
      "duration": 0.0,
      "velocity": 108,
      "chip": "ym2612"
    },
    {
      "channel": 1,
      "note": 51,
      "start": 0.0,
      "duration": 0.0,
      "velocity": 108,
      "chip": "ym2612"
    },
    {
      "channel": 1,
      "note": 50,
      "start": 0.0,
      "duration": 0.0,
      "velocity": 108,
      "chip": "ym2612"
    },
    {
      "channel": 1,
      "note": 51,
      "start": 0.0,
      "duration": 0.0,
      "velocity": 108,
      "chip": "ym2612"
    },
    {
      "channel": 1,
      "note": 49,
      "start": 0.0,
      "duration": 0.0,
      "velocity": 108,
      "chip": "ym2612"
    },
    {
      "channel": 1,
      "note": 48,
      "start": 0.0,
      "duration": 0.0,
      "velocity": 108,
      "chip": "ym2612"
    },
    {
      "channel": 1,
      "note": 46,
      "start": 0.0,
      "duration": 3.1411,
      "velocity": 108,
      "chip": "ym2612"
    },
    {
      "channel": 4,
      "note": 36,
      "start": 0.0,
      "duration": 0.0,
      "velocity": 127,
      "chip": "ym2612"
    },
    {
      "channel": 4,
      "note": 36,
      "start": 0.0,
      "duration": 0.0,
      "velocity": 127,
      "chip": "ym2612"
    },
    {
      "channel": 4,
      "note": 36,
      "start": 0.0,
      "duration": 0.0,
      "velocity": 127,
      "chip": "ym2612"
    },
    {
      "channel": 4,
      "note": 36,
      "start": 0.0,
      "duration": 0.0,
      "velocity": 127,
      "chip": "ym2612"
    },
    {
      "channel": 4,
      "note": 36,
      "start": 0.0,
      "duration": 0.0,
      "velocity": 127,
      "chip": "ym2612"
    },
    {
      "channel": 4,
      "note": 36,
      "start": 0.0,
      "duration": 0.0,
      "velocity": 127,
      "chip": "ym2612"
    },
    {
      "channel": 4,
      "note": 36,
      "start": 0.0,
      "duration": 0.0,
      "velocity": 127,
      "chip": "ym2612"
    },
    {
      "channel": 4,
      "note": 36,
      "start": 0.0,
      "duration": 0.0,
      "velocity": 127,
      "chip": "ym2612"
    },
    {
      "channel": 4,
      "note": 36,
      "start": 0.0,
      "duration": 0.0,
      "velocity": 127,
      "chip": "ym2612"
    },
    {
      "channel": 4,
      "note": 36,
      "start": 0.0,
      "duration": 0.0,
      "velocity": 127,
      "chip": "ym2612"
    },
    {
      "channel": 4,
      "note": 36,
      "start": 0.0,
      "duration": 0.0,
      "velocity": 127,
      "chip": "ym2612"
    },
    {
      "channel": 4,
      "note": 36,
      "start": 0.0,
      "duration": 0.0,
      "velocity": 127,
      "chip": "ym2612"
    },
    {
      "channel": 4,
      "note": 36,
      "start": 0.0,
      "duration": 0.0,
      "velocity": 127,
      "chip": "ym2612"
    },
    {
      "channel": 4,
      "note": 36,
      "start": 0.0,
      "duration": 0.0,
      "velocity": 127,
      "chip": "ym2612"
    },
    {
      "channel": 4,
      "note": 36,
      "start": 0.0,
      "duration": 0.0,
      "velocity": 127,
      "chip": "ym2612"
    },
    {
      "channel": 4,
      "note": 36,
      "start": 0.0,
      "duration": 0.0,
      "velocity": 127,
      "chip": "ym2612"
    },
    {
      "channel": 4,
      "note": 36,
      "start": 0.0,
      "duration": 0.0,
      "velocity": 127,
      "chip": "ym2612"
    },
    {
      "channel": 4,
      "note": 36,
      "start": 0.0,
      "duration": 0.0,
      "velocity": 127,
      "chip": "ym2612"
    },
    {
      "channel": 4,
      "note": 36,
      "start": 0.0,
      "duration": 0.0,
      "velocity": 127,
      "chip": "ym2612"
    },
    {
      "channel": 4,
      "note": 36,
      "start": 0.0,
      "duration": 0.0,
      "velocity": 127,
      "chip": "ym2612"
    },
    {
      "channel": 4,
      "note": 36,
      "start": 0.0,
      "duration": 0.0,
      "velocity": 127,
      "chip": "ym2612"
    },
    {
      "channel": 4,
      "note": 36,
      "start": 0.0,
      "duration": 0.0,
      "velocity": 127,
      "chip": "ym2612"
    },
    {
      "channel": 4,
      "note": 36,
      "start": 0.0,
      "duration": 0.0,
      "velocity": 127,
      "chip": "ym2612"
    },
    {
      "channel": 4,
      "note": 36,
      "start": 0.0,
      "duration": 0.0,
      "velocity": 127,
      "chip": "ym2612"
    },
    {
      "channel": 4,
      "note": 36,
      "start": 0.0,
      "duration": 0.0,
      "velocity": 127,
      "chip": "ym2612"
    },
    {
      "channel": 4,
      "note": 36,
      "start": 0.0,
      "duration": 0.0,
      "velocity": 127,
      "chip": "ym2612"
    },
    {
      "channel": 4,
      "note": 36,
      "start": 0.0,
      "duration": 0.0,
      "velocity": 127,
      "chip": "ym2612"
    },
    {
      "channel": 4,
      "note": 36,
      "start": 0.0,
      "duration": 0.0,
      "velocity": 127,
      "chip": "ym2612"
    },
    {
      "channel": 4,
      "note": 36,
      "start": 0.0,
      "duration": 0.0,
      "velocity": 127,
      "chip": "ym2612"
    },
    {
      "channel": 4,
      "note": 36,
      "start": 0.0,
      "duration": 0.0,
      "velocity": 127,
      "chip": "ym2612"
    },
    {
      "channel": 4,
      "note": 36,
      "start": 0.0,
      "duration": 0.0,
      "velocity": 127,
      "chip": "ym2612"
    },
    {
      "channel": 4,
      "note": 36,
      "start": 0.0,
      "duration": 0.0,
      "velocity": 127,
      "chip": "ym2612"
    },
    {
      "channel": 4,
      "note": 36,
      "start": 0.0,
      "duration": 0.0,
      "velocity": 127,
      "chip": "ym2612"
    },
    {
      "channel": 4,
      "note": 36,
      "start": 0.0,
      "duration": 0.0,
      "velocity": 127,
      "chip": "ym2612"
    },
    {
      "channel": 4,
      "note": 36,
      "start": 0.0,
      "duration": 0.0,
      "velocity": 127,
      "chip": "ym2612"
    },
    {
      "channel": 4,
      "note": 36,
      "start": 0.0,
      "duration": 0.0,
      "velocity": 127,
      "chip": "ym2612"
    },
    {
      "channel": 4,
      "note": 36,
      "start": 0.0,
      "duration": 0.0,
      "velocity": 127,
      "chip": "ym2612"
    },
    {
      "channel": 4,
      "note": 36,
      "start": 0.0,
      "duration": 0.0,
      "velocity": 127,
      "chip": "ym2612"
    },
    {
      "channel": 4,
      "note": 36,
      "start": 0.0,
      "duration": 0.0,
      "velocity": 127,
      "chip": "ym2612"
    },
    {
      "channel": 4,
      "note": 36,
      "start": 0.0,
      "duration": 0.0,
      "velocity": 127,
      "chip": "ym2612"
    },
    {
      "channel": 4,
      "note": 36,
      "start": 0.0,
      "duration": 0.0,
      "velocity": 127,
      "chip": "ym2612"
    },
    {
      "channel": 4,
      "note": 36,
      "start": 0.0,
      "duration": 0.0,
      "velocity": 127,
      "chip": "ym2612"
    },
    {
      "channel": 4,
      "note": 36,
      "start": 0.0,
      "duration": 0.0,
      "velocity": 127,
      "chip": "ym2612"
    },
    {
      "channel": 4,
      "note": 36,
      "start": 0.0,
      "duration": 0.0,
      "velocity": 127,
      "chip": "ym2612"
    },
    {
      "channel": 4,
      "note": 36,
      "start": 0.0,
      "duration": 0.0,
      "velocity": 127,
      "chip": "ym2612"
    },
    {
      "channel": 4,
      "note": 36,
      "start": 0.0,
      "duration": 0.0,
      "velocity": 127,
      "chip": "ym2612"
    },
    {
      "channel": 4,
      "note": 36,
      "start": 0.0,
      "duration": 0.0,
      "velocity": 127,
      "chip": "ym2612"
    },
    {
      "channel": 4,
      "note": 36,
      "start": 0.0,
      "duration": 0.0,
      "velocity": 127,
      "chip": "ym2612"
    },
    {
      "channel": 4,
      "note": 36,
      "start": 0.0,
      "duration": 0.0,
      "velocity": 127,
      "chip": "ym2612"
    },
    {
      "channel": 4,
      "note": 36,
      "start": 0.0,
      "duration": 0.0,
      "velocity": 127,
      "chip": "ym2612"
    },
    {
      "channel": 4,
      "note": 36,
      "start": 0.0,
      "duration": 0.0,
      "velocity": 127,
      "chip": "ym2612"
    },
    {
      "channel": 4,
      "note": 36,
      "start": 0.0,
      "duration": 0.0,
      "velocity": 127,
      "chip": "ym2612"
    },
    {
      "channel": 4,
      "note": 36,
      "start": 0.0,
      "duration": 0.0,
      "velocity": 127,
      "chip": "ym2612"
    },
    {
      "channel": 4,
      "note": 36,
      "start": 0.0,
      "duration": 0.0,
      "velocity": 127,
      "chip": "ym2612"
    },
    {
      "channel": 4,
      "note": 36,
      "start": 0.0,
      "duration": 0.0,
      "velocity": 127,
      "chip": "ym2612"
    },
    {
      "channel": 4,
      "note": 36,
      "start": 0.0,
      "duration": 0.0,
      "velocity": 127,
      "chip": "ym2612"
    },
    {
      "channel": 4,
      "note": 36,
      "start": 0.0,
      "duration": 0.0,
      "velocity": 127,
      "chip": "ym2612"
    },
    {
      "channel": 4,
      "note": 36,
      "start": 0.0,
      "duration": 0.0,
      "velocity": 127,
      "chip": "ym2612"
    },
    {
      "channel": 4,
      "note": 36,
      "start": 0.0,
      "duration": 0.0,
      "velocity": 127,
      "chip": "ym2612"
    },
    {
      "channel": 4,
      "note": 36,
      "start": 0.0,
      "duration": 0.0,
      "velocity": 127,
      "chip": "ym2612"
    },
    {
      "channel": 4,
      "note": 36,
      "start": 0.0,
      "duration": 0.0,
      "velocity": 127,
      "chip": "ym2612"
    },
    {
      "channel": 4,
      "note": 36,
      "start": 0.0,
      "duration": 0.0,
      "velocity": 127,
      "chip": "ym2612"
    },
    {
      "channel": 4,
      "note": 36,
      "start": 0.0,
      "duration": 0.0,
      "velocity": 127,
      "chip": "ym2612"
    },
    {
      "channel": 4,
      "note": 36,
      "start": 0.0,
      "duration": 0.0,
      "velocity": 127,
      "chip": "ym2612"
    },
    {
      "channel": 4,
      "note": 36,
      "start": 0.0,
      "duration": 0.0,
      "velocity": 127,
      "chip": "ym2612"
    },
    {
      "channel": 4,
      "note": 36,
      "start": 0.0,
      "duration": 0.0,
      "velocity": 127,
      "chip": "ym2612"
    },
    {
      "channel": 4,
      "note": 36,
      "start": 0.0,
      "duration": 0.0,
      "velocity": 127,
      "chip": "ym2612"
    },
    {
      "channel": 4,
      "note": 36,
      "start": 0.0,
      "duration": 0.0,
      "velocity": 127,
      "chip": "ym2612"
    },
    {
      "channel": 4,
      "note": 36,
      "start": 0.0,
      "duration": 0.0,
      "velocity": 127,
      "chip": "ym2612"
    },
    {
      "channel": 4,
      "note": 36,
      "start": 0.0,
      "duration": 0.0,
      "velocity": 127,
      "chip": "ym2612"
    },
    {
      "channel": 4,
      "note": 36,
      "start": 0.0,
      "duration": 0.0,
      "velocity": 127,
      "chip": "ym2612"
    },
    {
      "channel": 4,
      "note": 36,
      "start": 0.0,
      "duration": 0.0,
      "velocity": 127,
      "chip": "ym2612"
    },
    {
      "channel": 4,
      "note": 36,
      "start": 0.0,
      "duration": 0.0,
      "velocity": 127,
      "chip": "ym2612"
    },
    {
      "channel": 4,
      "note": 36,
      "start": 0.0,
      "duration": 0.0,
      "velocity": 127,
      "chip": "ym2612"
    },
    {
      "channel": 4,
      "note": 36,
      "start": 0.0,
      "duration": 0.0,
      "velocity": 127,
      "chip": "ym2612"
    },
    {
      "channel": 4,
      "note": 36,
      "start": 0.0,
      "duration": 0.0,
      "velocity": 127,
      "chip": "ym2612"
    },
    {
      "channel": 4,
      "note": 36,
      "start": 0.0,
      "duration": 0.0,
      "velocity": 127,
      "chip": "ym2612"
    },
    {
      "channel": 4,
      "note": 36,
      "start": 0.0,
      "duration": 0.0,
      "velocity": 127,
      "chip": "ym2612"
    },
    {
      "channel": 4,
      "note": 36,
      "start": 0.0,
      "duration": 0.0,
      "velocity": 127,
      "chip": "ym2612"
    },
    {
      "channel": 4,
      "note": 36,
      "start": 0.0,
      "duration": 0.0,
      "velocity": 127,
      "chip": "ym2612"
    },
    {
      "channel": 4,
      "note": 36,
      "start": 0.0,
      "duration": 0.0,
      "velocity": 127,
      "chip": "ym2612"
    },
    {
      "channel": 4,
      "note": 36,
      "start": 0.0,
      "duration": 0.0,
      "velocity": 127,
      "chip": "ym2612"
    },
    {
      "channel": 4,
      "note": 36,
      "start": 0.0,
      "duration": 0.0,
      "velocity": 127,
      "chip": "ym2612"
    },
    {
      "channel": 4,
      "note": 36,
      "start": 0.0,
      "duration": 0.0,
      "velocity": 127,
      "chip": "ym2612"
    },
    {
      "channel": 4,
      "note": 36,
      "start": 0.0,
      "duration": 0.0,
      "velocity": 127,
      "chip": "ym2612"
    },
    {
      "channel": 4,
      "note": 36,
      "start": 0.0,
      "duration": 0.0,
      "velocity": 127,
      "chip": "ym2612"
    },
    {
      "channel": 4,
      "note": 36,
      "start": 0.0,
      "duration": 0.0,
      "velocity": 127,
      "chip": "ym2612"
    },
    {
      "channel": 4,
      "note": 36,
      "start": 0.0,
      "duration": 0.0,
      "velocity": 127,
      "chip": "ym2612"
    },
    {
      "channel": 4,
      "note": 36,
      "start": 0.0,
      "duration": 0.0,
      "velocity": 127,
      "chip": "ym2612"
    },
    {
      "channel": 4,
      "note": 36,
      "start": 0.0,
      "duration": 0.0,
      "velocity": 127,
      "chip": "ym2612"
    },
    {
      "channel": 4,
      "note": 36,
      "start": 0.0,
      "duration": 0.0,
      "velocity": 127,
      "chip": "ym2612"
    },
    {
      "channel": 4,
      "note": 36,
      "start": 0.0,
      "duration": 0.0,
      "velocity": 127,
      "chip": "ym2612"
    },
    {
      "channel": 4,
      "note": 36,
      "start": 0.0,
      "duration": 0.0,
      "velocity": 127,
      "chip": "ym2612"
    },
    {
      "channel": 4,
      "note": 36,
      "start": 0.0,
      "duration": 0.0,
      "velocity": 127,
      "chip": "ym2612"
    },
    {
      "channel": 4,
      "note": 36,
      "start": 0.0,
      "duration": 0.0,
      "velocity": 127,
      "chip": "ym2612"
    },
    {
      "channel": 4,
      "note": 36,
      "start": 0.0,
      "duration": 0.0,
      "velocity": 127,
      "chip": "ym2612"
    },
    {
      "channel": 4,
      "note": 36,
      "start": 0.0,
      "duration": 0.0,
      "velocity": 127,
      "chip": "ym2612"
    },
    {
      "channel": 4,
      "note": 36,
      "start": 0.0,
      "duration": 0.0,
      "velocity": 127,
      "chip": "ym2612"
    },
    {
      "channel": 4,
      "note": 36,
      "start": 0.0,
      "duration": 0.0,
      "velocity": 127,
      "chip": "ym2612"
    },
    {
      "channel": 4,
      "note": 36,
      "start": 0.0,
      "duration": 0.0,
      "velocity": 127,
      "chip": "ym2612"
    },
    {
      "channel": 4,
      "note": 36,
      "start": 0.0,
      "duration": 0.0,
      "velocity": 127,
      "chip": "ym2612"
    },
    {
      "channel": 4,
      "note": 36,
      "start": 0.0,
      "duration": 0.0,
      "velocity": 127,
      "chip": "ym2612"
    },
    {
      "channel": 4,
      "note": 36,
      "start": 0.0,
      "duration": 0.0,
      "velocity": 127,
      "chip": "ym2612"
    },
    {
      "channel": 4,
      "note": 36,
      "start": 0.0,
      "duration": 0.0,
      "velocity": 127,
      "chip": "ym2612"
    },
    {
      "channel": 4,
      "note": 36,
      "start": 0.0,
      "duration": 0.0,
      "velocity": 127,
      "chip": "ym2612"
    },
    {
      "channel": 4,
      "note": 36,
      "start": 0.0,
      "duration": 0.0,
      "velocity": 127,
      "chip": "ym2612"
    },
    {
      "channel": 4,
      "note": 36,
      "start": 0.0,
      "duration": 0.0,
      "velocity": 127,
      "chip": "ym2612"
    },
    {
      "channel": 4,
      "note": 36,
      "start": 0.0,
      "duration": 0.0,
      "velocity": 127,
      "chip": "ym2612"
    },
    {
      "channel": 4,
      "note": 36,
      "start": 0.0,
      "duration": 0.0,
      "velocity": 127,
      "chip": "ym2612"
    },
    {
      "channel": 4,
      "note": 36,
      "start": 0.0,
      "duration": 0.0,
      "velocity": 127,
      "chip": "ym2612"
    },
    {
      "channel": 4,
      "note": 36,
      "start": 0.0,
      "duration": 0.0,
      "velocity": 127,
      "chip": "ym2612"
    },
    {
      "channel": 4,
      "note": 36,
      "start": 0.0,
      "duration": 0.0,
      "velocity": 127,
      "chip": "ym2612"
    },
    {
      "channel": 4,
      "note": 36,
      "start": 0.0,
      "duration": 0.0,
      "velocity": 127,
      "chip": "ym2612"
    },
    {
      "channel": 4,
      "note": 36,
      "start": 0.0,
      "duration": 0.0,
      "velocity": 127,
      "chip": "ym2612"
    },
    {
      "channel": 4,
      "note": 36,
      "start": 0.0,
      "duration": 0.0,
      "velocity": 127,
      "chip": "ym2612"
    },
    {
      "channel": 4,
      "note": 36,
      "start": 0.0,
      "duration": 0.0,
      "velocity": 127,
      "chip": "ym2612"
    },
    {
      "channel": 4,
      "note": 36,
      "start": 0.0,
      "duration": 0.0,
      "velocity": 127,
      "chip": "ym2612"
    },
    {
      "channel": 4,
      "note": 36,
      "start": 0.0,
      "duration": 0.0,
      "velocity": 127,
      "chip": "ym2612"
    },
    {
      "channel": 4,
      "note": 36,
      "start": 0.0,
      "duration": 0.0,
      "velocity": 127,
      "chip": "ym2612"
    },
    {
      "channel": 4,
      "note": 36,
      "start": 0.0,
      "duration": 0.0,
      "velocity": 127,
      "chip": "ym2612"
    },
    {
      "channel": 4,
      "note": 36,
      "start": 0.0,
      "duration": 0.0,
      "velocity": 127,
      "chip": "ym2612"
    },
    {
      "channel": 4,
      "note": 36,
      "start": 0.0,
      "duration": 0.0,
      "velocity": 127,
      "chip": "ym2612"
    },
    {
      "channel": 4,
      "note": 36,
      "start": 0.0,
      "duration": 0.0,
      "velocity": 127,
      "chip": "ym2612"
    },
    {
      "channel": 4,
      "note": 36,
      "start": 0.0,
      "duration": 0.0,
      "velocity": 127,
      "chip": "ym2612"
    },
    {
      "channel": 4,
      "note": 36,
      "start": 0.0,
      "duration": 0.0,
      "velocity": 127,
      "chip": "ym2612"
    },
    {
      "channel": 4,
      "note": 36,
      "start": 0.0,
      "duration": 0.0,
      "velocity": 127,
      "chip": "ym2612"
    },
    {
      "channel": 4,
      "note": 36,
      "start": 0.0,
      "duration": 0.0,
      "velocity": 127,
      "chip": "ym2612"
    },
    {
      "channel": 4,
      "note": 36,
      "start": 0.0,
      "duration": 0.0,
      "velocity": 127,
      "chip": "ym2612"
    },
    {
      "channel": 4,
      "note": 36,
      "start": 0.0,
      "duration": 0.0,
      "velocity": 127,
      "chip": "ym2612"
    },
    {
      "channel": 4,
      "note": 36,
      "start": 0.0,
      "duration": 0.0,
      "velocity": 127,
      "chip": "ym2612"
    },
    {
      "channel": 4,
      "note": 36,
      "start": 0.0,
      "duration": 0.0,
      "velocity": 127,
      "chip": "ym2612"
    },
    {
      "channel": 4,
      "note": 36,
      "start": 0.0,
      "duration": 0.0,
      "velocity": 127,
      "chip": "ym2612"
    },
    {
      "channel": 4,
      "note": 36,
      "start": 0.0,
      "duration": 0.0,
      "velocity": 127,
      "chip": "ym2612"
    },
    {
      "channel": 4,
      "note": 36,
      "start": 0.0,
      "duration": 0.0,
      "velocity": 127,
      "chip": "ym2612"
    },
    {
      "channel": 4,
      "note": 36,
      "start": 0.0,
      "duration": 0.0,
      "velocity": 127,
      "chip": "ym2612"
    },
    {
      "channel": 4,
      "note": 36,
      "start": 0.0,
      "duration": 0.0,
      "velocity": 127,
      "chip": "ym2612"
    },
    {
      "channel": 4,
      "note": 36,
      "start": 0.0,
      "duration": 0.0,
      "velocity": 127,
      "chip": "ym2612"
    },
    {
      "channel": 4,
      "note": 36,
      "start": 0.0,
      "duration": 0.0,
      "velocity": 127,
      "chip": "ym2612"
    },
    {
      "channel": 4,
      "note": 36,
      "start": 0.0,
      "duration": 0.0,
      "velocity": 127,
      "chip": "ym2612"
    },
    {
      "channel": 4,
      "note": 36,
      "start": 0.0,
      "duration": 0.0,
      "velocity": 127,
      "chip": "ym2612"
    },
    {
      "channel": 4,
      "note": 36,
      "start": 0.0,
      "duration": 0.0,
      "velocity": 127,
      "chip": "ym2612"
    },
    {
      "channel": 4,
      "note": 36,
      "start": 0.0,
      "duration": 0.0,
      "velocity": 127,
      "chip": "ym2612"
    },
    {
      "channel": 4,
      "note": 36,
      "start": 0.0,
      "duration": 0.0,
      "velocity": 127,
      "chip": "ym2612"
    },
    {
      "channel": 4,
      "note": 36,
      "start": 0.0,
      "duration": 0.0,
      "velocity": 127,
      "chip": "ym2612"
    },
    {
      "channel": 4,
      "note": 36,
      "start": 0.0,
      "duration": 0.0,
      "velocity": 127,
      "chip": "ym2612"
    },
    {
      "channel": 4,
      "note": 36,
      "start": 0.0,
      "duration": 0.0,
      "velocity": 127,
      "chip": "ym2612"
    },
    {
      "channel": 4,
      "note": 36,
      "start": 0.0,
      "duration": 0.0,
      "velocity": 127,
      "chip": "ym2612"
    },
    {
      "channel": 4,
      "note": 36,
      "start": 0.0,
      "duration": 0.0,
      "velocity": 127,
      "chip": "ym2612"
    },
    {
      "channel": 4,
      "note": 36,
      "start": 0.0,
      "duration": 0.0,
      "velocity": 127,
      "chip": "ym2612"
    },
    {
      "channel": 4,
      "note": 36,
      "start": 0.0,
      "duration": 0.0,
      "velocity": 127,
      "chip": "ym2612"
    },
    {
      "channel": 4,
      "note": 36,
      "start": 0.0,
      "duration": 0.0,
      "velocity": 127,
      "chip": "ym2612"
    },
    {
      "channel": 4,
      "note": 36,
      "start": 0.0,
      "duration": 0.0,
      "velocity": 127,
      "chip": "ym2612"
    },
    {
      "channel": 4,
      "note": 36,
      "start": 0.0,
      "duration": 0.0,
      "velocity": 127,
      "chip": "ym2612"
    },
    {
      "channel": 4,
      "note": 36,
      "start": 0.0,
      "duration": 0.0,
      "velocity": 127,
      "chip": "ym2612"
    },
    {
      "channel": 4,
      "note": 36,
      "start": 0.0,
      "duration": 0.0,
      "velocity": 127,
      "chip": "ym2612"
    },
    {
      "channel": 4,
      "note": 36,
      "start": 0.0,
      "duration": 0.0,
      "velocity": 127,
      "chip": "ym2612"
    },
    {
      "channel": 4,
      "note": 36,
      "start": 0.0,
      "duration": 0.0,
      "velocity": 127,
      "chip": "ym2612"
    },
    {
      "channel": 4,
      "note": 36,
      "start": 0.0,
      "duration": 0.0,
      "velocity": 127,
      "chip": "ym2612"
    },
    {
      "channel": 4,
      "note": 36,
      "start": 0.0,
      "duration": 0.0,
      "velocity": 127,
      "chip": "ym2612"
    },
    {
      "channel": 4,
      "note": 36,
      "start": 0.0,
      "duration": 0.0,
      "velocity": 127,
      "chip": "ym2612"
    },
    {
      "channel": 4,
      "note": 36,
      "start": 0.0,
      "duration": 0.0,
      "velocity": 127,
      "chip": "ym2612"
    },
    {
      "channel": 4,
      "note": 36,
      "start": 0.0,
      "duration": 0.0,
      "velocity": 127,
      "chip": "ym2612"
    },
    {
      "channel": 4,
      "note": 36,
      "start": 0.0,
      "duration": 0.0,
      "velocity": 127,
      "chip": "ym2612"
    },
    {
      "channel": 4,
      "note": 36,
      "start": 0.0,
      "duration": 0.0,
      "velocity": 127,
      "chip": "ym2612"
    },
    {
      "channel": 4,
      "note": 36,
      "start": 0.0,
      "duration": 0.0,
      "velocity": 127,
      "chip": "ym2612"
    },
    {
      "channel": 4,
      "note": 36,
      "start": 0.0,
      "duration": 0.0,
      "velocity": 127,
      "chip": "ym2612"
    },
    {
      "channel": 4,
      "note": 36,
      "start": 0.0,
      "duration": 0.0,
      "velocity": 127,
      "chip": "ym2612"
    },
    {
      "channel": 4,
      "note": 36,
      "start": 0.0,
      "duration": 0.0,
      "velocity": 127,
      "chip": "ym2612"
    },
    {
      "channel": 4,
      "note": 36,
      "start": 0.0,
      "duration": 0.0,
      "velocity": 127,
      "chip": "ym2612"
    },
    {
      "channel": 4,
      "note": 36,
      "start": 0.0,
      "duration": 0.0,
      "velocity": 127,
      "chip": "ym2612"
    },
    {
      "channel": 4,
      "note": 36,
      "start": 0.0,
      "duration": 0.0,
      "velocity": 127,
      "chip": "ym2612"
    },
    {
      "channel": 4,
      "note": 36,
      "start": 0.0,
      "duration": 0.0,
      "velocity": 127,
      "chip": "ym2612"
    },
    {
      "channel": 4,
      "note": 36,
      "start": 0.0,
      "duration": 0.0,
      "velocity": 127,
      "chip": "ym2612"
    },
    {
      "channel": 4,
      "note": 36,
      "start": 0.0,
      "duration": 0.0,
      "velocity": 127,
      "chip": "ym2612"
    },
    {
      "channel": 4,
      "note": 36,
      "start": 0.0,
      "duration": 0.0,
      "velocity": 127,
      "chip": "ym2612"
    },
    {
      "channel": 4,
      "note": 36,
      "start": 0.0,
      "duration": 0.0,
      "velocity": 127,
      "chip": "ym2612"
    },
    {
      "channel": 4,
      "note": 36,
      "start": 0.0,
      "duration": 0.0,
      "velocity": 127,
      "chip": "ym2612"
    },
    {
      "channel": 4,
      "note": 36,
      "start": 0.0,
      "duration": 0.0,
      "velocity": 127,
      "chip": "ym2612"
    },
    {
      "channel": 4,
      "note": 36,
      "start": 0.0,
      "duration": 0.0,
      "velocity": 127,
      "chip": "ym2612"
    },
    {
      "channel": 4,
      "note": 36,
      "start": 0.0,
      "duration": 0.0,
      "velocity": 127,
      "chip": "ym2612"
    },
    {
      "channel": 4,
      "note": 36,
      "start": 0.0,
      "duration": 0.0,
      "velocity": 127,
      "chip": "ym2612"
    },
    {
      "channel": 4,
      "note": 36,
      "start": 0.0,
      "duration": 0.0,
      "velocity": 127,
      "chip": "ym2612"
    },
    {
      "channel": 4,
      "note": 36,
      "start": 0.0,
      "duration": 0.0,
      "velocity": 127,
      "chip": "ym2612"
    },
    {
      "channel": 4,
      "note": 36,
      "start": 0.0,
      "duration": 0.0,
      "velocity": 127,
      "chip": "ym2612"
    },
    {
      "channel": 4,
      "note": 36,
      "start": 0.0,
      "duration": 0.0,
      "velocity": 127,
      "chip": "ym2612"
    },
    {
      "channel": 4,
      "note": 36,
      "start": 0.0,
      "duration": 0.0,
      "velocity": 127,
      "chip": "ym2612"
    },
    {
      "channel": 4,
      "note": 36,
      "start": 0.0,
      "duration": 0.0,
      "velocity": 127,
      "chip": "ym2612"
    },
    {
      "channel": 4,
      "note": 36,
      "start": 0.0,
      "duration": 0.0,
      "velocity": 127,
      "chip": "ym2612"
    },
    {
      "channel": 4,
      "note": 36,
      "start": 0.0,
      "duration": 0.0,
      "velocity": 127,
      "chip": "ym2612"
    },
    {
      "channel": 4,
      "note": 36,
      "start": 0.0,
      "duration": 0.0,
      "velocity": 127,
      "chip": "ym2612"
    },
    {
      "channel": 4,
      "note": 36,
      "start": 0.0,
      "duration": 0.0,
      "velocity": 127,
      "chip": "ym2612"
    },
    {
      "channel": 4,
      "note": 36,
      "start": 0.0,
      "duration": 0.0,
      "velocity": 127,
      "chip": "ym2612"
    },
    {
      "channel": 4,
      "note": 36,
      "start": 0.0,
      "duration": 0.0,
      "velocity": 127,
      "chip": "ym2612"
    },
    {
      "channel": 4,
      "note": 36,
      "start": 0.0,
      "duration": 0.0,
      "velocity": 127,
      "chip": "ym2612"
    },
    {
      "channel": 4,
      "note": 36,
      "start": 0.0,
      "duration": 0.0,
      "velocity": 127,
      "chip": "ym2612"
    },
    {
      "channel": 4,
      "note": 36,
      "start": 0.0,
      "duration": 0.0,
      "velocity": 127,
      "chip": "ym2612"
    },
    {
      "channel": 4,
      "note": 36,
      "start": 0.0,
      "duration": 0.0,
      "velocity": 127,
      "chip": "ym2612"
    },
    {
      "channel": 4,
      "note": 36,
      "start": 0.0,
      "duration": 0.3746,
      "velocity": 127,
      "chip": "ym2612"
    },
    {
      "channel": 0,
      "note": 24,
      "start": 0.3911,
      "duration": 0.1665,
      "velocity": 108,
      "chip": "ym2612"
    },
    {
      "channel": 4,
      "note": 36,
      "start": 0.3916,
      "duration": 0.1831,
      "velocity": 127,
      "chip": "ym2612"
    },
    {
      "channel": 0,
      "note": 24,
      "start": 0.5743,
      "duration": 0.1833,
      "velocity": 108,
      "chip": "ym2612"
    },
    {
      "channel": 4,
      "note": 36,
      "start": 0.5914,
      "duration": 0.1666,
      "velocity": 127,
      "chip": "ym2612"
    },
    {
      "channel": 0,
      "note": 24,
      "start": 0.7744,
      "duration": 0.3831,
      "velocity": 108,
      "chip": "ym2612"
    },
    {
      "channel": 4,
      "note": 36,
      "start": 0.7749,
      "duration": 0.3831,
      "velocity": 127,
      "chip": "ym2612"
    },
    {
      "channel": 0,
      "note": 24,
      "start": 1.1744,
      "duration": 0.1831,
      "velocity": 108,
      "chip": "ym2612"
    },
    {
      "channel": 4,
      "note": 36,
      "start": 1.1749,
      "duration": 0.1831,
      "velocity": 127,
      "chip": "ym2612"
    },
    {
      "channel": 0,
      "note": 24,
      "start": 1.3743,
      "duration": 0.1833,
      "velocity": 108,
      "chip": "ym2612"
    },
    {
      "channel": 4,
      "note": 36,
      "start": 1.3748,
      "duration": 0.1833,
      "velocity": 127,
      "chip": "ym2612"
    },
    {
      "channel": 0,
      "note": 24,
      "start": 1.5744,
      "duration": 0.7664,
      "velocity": 108,
      "chip": "ym2612"
    },
    {
      "channel": 4,
      "note": 36,
      "start": 1.575,
      "duration": 0.5829,
      "velocity": 127,
      "chip": "ym2612"
    },
    {
      "channel": 4,
      "note": 36,
      "start": 2.1747,
      "duration": 0.0666,
      "velocity": 127,
      "chip": "ym2612"
    },
    {
      "channel": 4,
      "note": 36,
      "start": 2.258,
      "duration": 0.0833,
      "velocity": 127,
      "chip": "ym2612"
    },
    {
      "channel": 0,
      "note": 24,
      "start": 2.3578,
      "duration": 0.3831,
      "velocity": 108,
      "chip": "ym2612"
    },
    {
      "channel": 4,
      "note": 36,
      "start": 2.3582,
      "duration": 0.3831,
      "velocity": 127,
      "chip": "ym2612"
    },
    {
      "channel": 0,
      "note": 27,
      "start": 2.7577,
      "duration": 0.3832,
      "velocity": 108,
      "chip": "ym2612"
    },
    {
      "channel": 4,
      "note": 36,
      "start": 2.7582,
      "duration": 0.1831,
      "velocity": 127,
      "chip": "ym2612"
    },
    {
      "channel": 4,
      "note": 36,
      "start": 2.9581,
      "duration": 0.0832,
      "velocity": 127,
      "chip": "ym2612"
    },
    {
      "channel": 4,
      "note": 36,
      "start": 3.058,
      "duration": 0.0835,
      "velocity": 127,
      "chip": "ym2612"
    },
    {
      "channel": 0,
      "note": 25,
      "start": 3.1583,
      "duration": 0.3826,
      "velocity": 108,
      "chip": "ym2612"
    },
    {
      "channel": 1,
      "note": 43,
      "start": 3.1585,
      "duration": 3.1492,
      "velocity": 108,
      "chip": "ym2612"
    },
    {
      "channel": 4,
      "note": 36,
      "start": 3.1633,
      "duration": 0.378,
      "velocity": 127,
      "chip": "ym2612"
    },
    {
      "channel": 0,
      "note": 24,
      "start": 3.5578,
      "duration": 0.1664,
      "velocity": 108,
      "chip": "ym2612"
    },
    {
      "channel": 4,
      "note": 36,
      "start": 3.5582,
      "duration": 0.1831,
      "velocity": 127,
      "chip": "ym2612"
    },
    {
      "channel": 0,
      "note": 24,
      "start": 3.7409,
      "duration": 0.1833,
      "velocity": 108,
      "chip": "ym2612"
    },
    {
      "channel": 4,
      "note": 36,
      "start": 3.758,
      "duration": 0.1667,
      "velocity": 127,
      "chip": "ym2612"
    },
    {
      "channel": 0,
      "note": 24,
      "start": 3.9411,
      "duration": 0.3831,
      "velocity": 108,
      "chip": "ym2612"
    },
    {
      "channel": 4,
      "note": 36,
      "start": 3.9416,
      "duration": 0.3831,
      "velocity": 127,
      "chip": "ym2612"
    },
    {
      "channel": 0,
      "note": 24,
      "start": 4.3411,
      "duration": 0.1831,
      "velocity": 108,
      "chip": "ym2612"
    },
    {
      "channel": 4,
      "note": 36,
      "start": 4.3416,
      "duration": 0.1831,
      "velocity": 127,
      "chip": "ym2612"
    },
    {
      "channel": 0,
      "note": 24,
      "start": 4.541,
      "duration": 0.1833,
      "velocity": 108,
      "chip": "ym2612"
    },
    {
      "channel": 4,
      "note": 36,
      "start": 4.5414,
      "duration": 0.1833,
      "velocity": 127,
      "chip": "ym2612"
    },
    {
      "channel": 0,
      "note": 24,
      "start": 4.7411,
      "duration": 0.7664,
      "velocity": 108,
      "chip": "ym2612"
    },
    {
      "channel": 4,
      "note": 36,
      "start": 4.7417,
      "duration": 0.583,
      "velocity": 127,
      "chip": "ym2612"
    },
    {
      "channel": 4,
      "note": 36,
      "start": 5.3414,
      "duration": 0.0666,
      "velocity": 127,
      "chip": "ym2612"
    },
    {
      "channel": 4,
      "note": 36,
      "start": 5.4246,
      "duration": 0.0833,
      "velocity": 127,
      "chip": "ym2612"
    },
    {
      "channel": 0,
      "note": 24,
      "start": 5.5244,
      "duration": 0.3832,
      "velocity": 108,
      "chip": "ym2612"
    },
    {
      "channel": 4,
      "note": 36,
      "start": 5.5249,
      "duration": 0.3831,
      "velocity": 127,
      "chip": "ym2612"
    },
    {
      "channel": 0,
      "note": 22,
      "start": 5.9244,
      "duration": 0.3832,
      "velocity": 108,
      "chip": "ym2612"
    },
    {
      "channel": 4,
      "note": 36,
      "start": 5.9248,
      "duration": 0.1832,
      "velocity": 127,
      "chip": "ym2612"
    },
    {
      "channel": 4,
      "note": 36,
      "start": 6.1248,
      "duration": 0.0832,
      "velocity": 127,
      "chip": "ym2612"
    },
    {
      "channel": 4,
      "note": 36,
      "start": 6.2246,
      "duration": 0.0835,
      "velocity": 127,
      "chip": "ym2612"
    },
    {
      "channel": 0,
      "note": 25,
      "start": 6.3266,
      "duration": 0.381,
      "velocity": 108,
      "chip": "ym2612"
    },
    {
      "channel": 1,
      "note": 44,
      "start": 6.3269,
      "duration": 3.1476,
      "velocity": 108,
      "chip": "ym2612"
    },
    {
      "channel": 4,
      "note": 36,
      "start": 6.3316,
      "duration": 0.3763,
      "velocity": 127,
      "chip": "ym2612"
    },
    {
      "channel": 0,
      "note": 31,
      "start": 6.7244,
      "duration": 0.1664,
      "velocity": 108,
      "chip": "ym2612"
    },
    {
      "channel": 4,
      "note": 36,
      "start": 6.7249,
      "duration": 0.1831,
      "velocity": 127,
      "chip": "ym2612"
    },
    {
      "channel": 0,
      "note": 31,
      "start": 6.9076,
      "duration": 0.1833,
      "velocity": 108,
      "chip": "ym2612"
    },
    {
      "channel": 4,
      "note": 36,
      "start": 6.9246,
      "duration": 0.1667,
      "velocity": 127,
      "chip": "ym2612"
    },
    {
      "channel": 0,
      "note": 31,
      "start": 7.1078,
      "duration": 0.3832,
      "velocity": 108,
      "chip": "ym2612"
    },
    {
      "channel": 4,
      "note": 36,
      "start": 7.1082,
      "duration": 0.3831,
      "velocity": 127,
      "chip": "ym2612"
    },
    {
      "channel": 0,
      "note": 31,
      "start": 7.5078,
      "duration": 0.1832,
      "velocity": 108,
      "chip": "ym2612"
    },
    {
      "channel": 4,
      "note": 36,
      "start": 7.5082,
      "duration": 0.1831,
      "velocity": 127,
      "chip": "ym2612"
    },
    {
      "channel": 0,
      "note": 31,
      "start": 7.7077,
      "duration": 0.1833,
      "velocity": 108,
      "chip": "ym2612"
    },
    {
      "channel": 4,
      "note": 36,
      "start": 7.7081,
      "duration": 0.1833,
      "velocity": 127,
      "chip": "ym2612"
    },
    {
      "channel": 0,
      "note": 31,
      "start": 7.9078,
      "duration": 0.7665,
      "velocity": 108,
      "chip": "ym2612"
    },
    {
      "channel": 4,
      "note": 36,
      "start": 7.9083,
      "duration": 0.583,
      "velocity": 127,
      "chip": "ym2612"
    },
    {
      "channel": 4,
      "note": 36,
      "start": 8.5081,
      "duration": 0.0665,
      "velocity": 127,
      "chip": "ym2612"
    },
    {
      "channel": 4,
      "note": 36,
      "start": 8.5913,
      "duration": 0.0833,
      "velocity": 127,
      "chip": "ym2612"
    },
    {
      "channel": 0,
      "note": 31,
      "start": 8.6911,
      "duration": 0.3832,
      "velocity": 108,
      "chip": "ym2612"
    },
    {
      "channel": 4,
      "note": 36,
      "start": 8.6916,
      "duration": 0.3831,
      "velocity": 127,
      "chip": "ym2612"
    },
    {
      "channel": 0,
      "note": 34,
      "start": 9.091,
      "duration": 0.3832,
      "velocity": 108,
      "chip": "ym2612"
    },
    {
      "channel": 4,
      "note": 36,
      "start": 9.0915,
      "duration": 0.1831,
      "velocity": 127,
      "chip": "ym2612"
    },
    {
      "channel": 4,
      "note": 36,
      "start": 9.2914,
      "duration": 0.0833,
      "velocity": 127,
      "chip": "ym2612"
    },
    {
      "channel": 4,
      "note": 36,
      "start": 9.3913,
      "duration": 0.0835,
      "velocity": 127,
      "chip": "ym2612"
    },
    {
      "channel": 0,
      "note": 32,
      "start": 9.4917,
      "duration": 0.3826,
      "velocity": 108,
      "chip": "ym2612"
    },
    {
      "channel": 1,
      "note": 43,
      "start": 9.492,
      "duration": 1.5658,
      "velocity": 108,
      "chip": "ym2612"
    },
    {
      "channel": 4,
      "note": 36,
      "start": 9.4967,
      "duration": 0.3779,
      "velocity": 127,
      "chip": "ym2612"
    },
    {
      "channel": 0,
      "note": 31,
      "start": 9.8911,
      "duration": 0.1664,
      "velocity": 108,
      "chip": "ym2612"
    },
    {
      "channel": 4,
      "note": 36,
      "start": 9.8916,
      "duration": 0.1831,
      "velocity": 127,
      "chip": "ym2612"
    },
    {
      "channel": 0,
      "note": 31,
      "start": 10.0743,
      "duration": 0.1833,
      "velocity": 108,
      "chip": "ym2612"
    },
    {
      "channel": 4,
      "note": 36,
      "start": 10.0913,
      "duration": 0.1667,
      "velocity": 127,
      "chip": "ym2612"
    },
    {
      "channel": 0,
      "note": 31,
      "start": 10.2744,
      "duration": 0.3832,
      "velocity": 108,
      "chip": "ym2612"
    },
    {
      "channel": 4,
      "note": 36,
      "start": 10.2749,
      "duration": 0.3831,
      "velocity": 127,
      "chip": "ym2612"
    },
    {
      "channel": 0,
      "note": 31,
      "start": 10.6744,
      "duration": 0.1832,
      "velocity": 108,
      "chip": "ym2612"
    },
    {
      "channel": 4,
      "note": 36,
      "start": 10.6749,
      "duration": 0.1831,
      "velocity": 127,
      "chip": "ym2612"
    },
    {
      "channel": 0,
      "note": 31,
      "start": 10.8743,
      "duration": 0.1833,
      "velocity": 108,
      "chip": "ym2612"
    },
    {
      "channel": 4,
      "note": 36,
      "start": 10.8748,
      "duration": 0.1834,
      "velocity": 127,
      "chip": "ym2612"
    },
    {
      "channel": 0,
      "note": 31,
      "start": 11.0745,
      "duration": 0.7663,
      "velocity": 108,
      "chip": "ym2612"
    },
    {
      "channel": 4,
      "note": 36,
      "start": 11.075,
      "duration": 0.5829,
      "velocity": 127,
      "chip": "ym2612"
    },
    {
      "channel": 1,
      "note": 43,
      "start": 11.4578,
      "duration": 0.3833,
      "velocity": 108,
      "chip": "ym2612"
    },
    {
      "channel": 4,
      "note": 36,
      "start": 11.6747,
      "duration": 0.0666,
      "velocity": 127,
      "chip": "ym2612"
    },
    {
      "channel": 4,
      "note": 36,
      "start": 11.758,
      "duration": 0.0834,
      "velocity": 127,
      "chip": "ym2612"
    },
    {
      "channel": 0,
      "note": 31,
      "start": 11.8578,
      "duration": 0.3832,
      "velocity": 108,
      "chip": "ym2612"
    },
    {
      "channel": 1,
      "note": 43,
      "start": 11.858,
      "duration": 0.3831,
      "velocity": 108,
      "chip": "ym2612"
    },
    {
      "channel": 4,
      "note": 36,
      "start": 11.8583,
      "duration": 0.383,
      "velocity": 127,
      "chip": "ym2612"
    },
    {
      "channel": 0,
      "note": 29,
      "start": 12.2577,
      "duration": 0.3832,
      "velocity": 108,
      "chip": "ym2612"
    },
    {
      "channel": 1,
      "note": 44,
      "start": 12.258,
      "duration": 0.3831,
      "velocity": 108,
      "chip": "ym2612"
    },
    {
      "channel": 4,
      "note": 36,
      "start": 12.2583,
      "duration": 0.1829,
      "velocity": 127,
      "chip": "ym2612"
    },
    {
      "channel": 4,
      "note": 36,
      "start": 12.4581,
      "duration": 0.0832,
      "velocity": 127,
      "chip": "ym2612"
    },
    {
      "channel": 4,
      "note": 36,
      "start": 12.558,
      "duration": 0.0835,
      "velocity": 127,
      "chip": "ym2612"
    },
    {
      "channel": 0,
      "note": 32,
      "start": 12.66,
      "duration": 0.381,
      "velocity": 108,
      "chip": "ym2612"
    },
    {
      "channel": 1,
      "note": 49,
      "start": 12.6602,
      "duration": 3.1476,
      "velocity": 108,
      "chip": "ym2612"
    },
    {
      "channel": 4,
      "note": 36,
      "start": 12.665,
      "duration": 0.3763,
      "velocity": 127,
      "chip": "ym2612"
    },
    {
      "channel": 0,
      "note": 24,
      "start": 13.0578,
      "duration": 0.1665,
      "velocity": 108,
      "chip": "ym2612"
    },
    {
      "channel": 4,
      "note": 36,
      "start": 13.0582,
      "duration": 0.1831,
      "velocity": 127,
      "chip": "ym2612"
    },
    {
      "channel": 0,
      "note": 24,
      "start": 13.2409,
      "duration": 0.1833,
      "velocity": 108,
      "chip": "ym2612"
    },
    {
      "channel": 4,
      "note": 36,
      "start": 13.258,
      "duration": 0.1667,
      "velocity": 127,
      "chip": "ym2612"
    },
    {
      "channel": 0,
      "note": 24,
      "start": 13.4411,
      "duration": 0.3831,
      "velocity": 108,
      "chip": "ym2612"
    },
    {
      "channel": 4,
      "note": 36,
      "start": 13.4416,
      "duration": 0.3831,
      "velocity": 127,
      "chip": "ym2612"
    },
    {
      "channel": 0,
      "note": 24,
      "start": 13.8411,
      "duration": 0.1832,
      "velocity": 108,
      "chip": "ym2612"
    },
    {
      "channel": 4,
      "note": 36,
      "start": 13.8416,
      "duration": 0.1831,
      "velocity": 127,
      "chip": "ym2612"
    },
    {
      "channel": 0,
      "note": 24,
      "start": 14.041,
      "duration": 0.1833,
      "velocity": 108,
      "chip": "ym2612"
    },
    {
      "channel": 4,
      "note": 36,
      "start": 14.0414,
      "duration": 0.1833,
      "velocity": 127,
      "chip": "ym2612"
    },
    {
      "channel": 0,
      "note": 24,
      "start": 14.2411,
      "duration": 0.7665,
      "velocity": 108,
      "chip": "ym2612"
    },
    {
      "channel": 4,
      "note": 36,
      "start": 14.2417,
      "duration": 0.5829,
      "velocity": 127,
      "chip": "ym2612"
    },
    {
      "channel": 4,
      "note": 36,
      "start": 14.8414,
      "duration": 0.0666,
      "velocity": 127,
      "chip": "ym2612"
    },
    {
      "channel": 4,
      "note": 36,
      "start": 14.9246,
      "duration": 0.0833,
      "velocity": 127,
      "chip": "ym2612"
    },
    {
      "channel": 0,
      "note": 24,
      "start": 15.0244,
      "duration": 0.3831,
      "velocity": 108,
      "chip": "ym2612"
    },
    {
      "channel": 4,
      "note": 36,
      "start": 15.0249,
      "duration": 0.3831,
      "velocity": 127,
      "chip": "ym2612"
    },
    {
      "channel": 0,
      "note": 27,
      "start": 15.4244,
      "duration": 0.3832,
      "velocity": 108,
      "chip": "ym2612"
    },
    {
      "channel": 4,
      "note": 36,
      "start": 15.4249,
      "duration": 0.1831,
      "velocity": 127,
      "chip": "ym2612"
    },
    {
      "channel": 4,
      "note": 36,
      "start": 15.6248,
      "duration": 0.0832,
      "velocity": 127,
      "chip": "ym2612"
    },
    {
      "channel": 4,
      "note": 36,
      "start": 15.7246,
      "duration": 0.0835,
      "velocity": 127,
      "chip": "ym2612"
    },
    {
      "channel": 0,
      "note": 25,
      "start": 15.825,
      "duration": 0.3826,
      "velocity": 108,
      "chip": "ym2612"
    },
    {
      "channel": 1,
      "note": 48,
      "start": 15.8252,
      "duration": 3.1492,
      "velocity": 108,
      "chip": "ym2612"
    },
    {
      "channel": 4,
      "note": 36,
      "start": 15.83,
      "duration": 0.378,
      "velocity": 127,
      "chip": "ym2612"
    },
    {
      "channel": 0,
      "note": 24,
      "start": 16.2244,
      "duration": 0.1664,
      "velocity": 108,
      "chip": "ym2612"
    },
    {
      "channel": 4,
      "note": 36,
      "start": 16.2249,
      "duration": 0.1831,
      "velocity": 127,
      "chip": "ym2612"
    },
    {
      "channel": 0,
      "note": 24,
      "start": 16.4076,
      "duration": 0.1833,
      "velocity": 108,
      "chip": "ym2612"
    },
    {
      "channel": 4,
      "note": 36,
      "start": 16.4247,
      "duration": 0.1666,
      "velocity": 127,
      "chip": "ym2612"
    },
    {
      "channel": 0,
      "note": 24,
      "start": 16.6078,
      "duration": 0.3832,
      "velocity": 108,
      "chip": "ym2612"
    },
    {
      "channel": 4,
      "note": 36,
      "start": 16.6082,
      "duration": 0.3831,
      "velocity": 127,
      "chip": "ym2612"
    },
    {
      "channel": 0,
      "note": 24,
      "start": 17.0078,
      "duration": 0.1831,
      "velocity": 108,
      "chip": "ym2612"
    },
    {
      "channel": 4,
      "note": 36,
      "start": 17.0082,
      "duration": 0.1831,
      "velocity": 127,
      "chip": "ym2612"
    },
    {
      "channel": 0,
      "note": 24,
      "start": 17.2077,
      "duration": 0.1833,
      "velocity": 108,
      "chip": "ym2612"
    },
    {
      "channel": 4,
      "note": 36,
      "start": 17.2081,
      "duration": 0.1833,
      "velocity": 127,
      "chip": "ym2612"
    },
    {
      "channel": 0,
      "note": 24,
      "start": 17.4078,
      "duration": 0.7665,
      "velocity": 108,
      "chip": "ym2612"
    },
    {
      "channel": 4,
      "note": 36,
      "start": 17.4083,
      "duration": 0.5829,
      "velocity": 127,
      "chip": "ym2612"
    },
    {
      "channel": 4,
      "note": 36,
      "start": 18.0081,
      "duration": 0.0665,
      "velocity": 127,
      "chip": "ym2612"
    },
    {
      "channel": 4,
      "note": 36,
      "start": 18.0913,
      "duration": 0.0833,
      "velocity": 127,
      "chip": "ym2612"
    },
    {
      "channel": 0,
      "note": 24,
      "start": 18.1911,
      "duration": 0.3832,
      "velocity": 108,
      "chip": "ym2612"
    },
    {
      "channel": 4,
      "note": 36,
      "start": 18.1916,
      "duration": 0.3831,
      "velocity": 127,
      "chip": "ym2612"
    },
    {
      "channel": 0,
      "note": 22,
      "start": 18.591,
      "duration": 0.3832,
      "velocity": 108,
      "chip": "ym2612"
    },
    {
      "channel": 4,
      "note": 36,
      "start": 18.5915,
      "duration": 0.1831,
      "velocity": 127,
      "chip": "ym2612"
    },
    {
      "channel": 4,
      "note": 36,
      "start": 18.7914,
      "duration": 0.0832,
      "velocity": 127,
      "chip": "ym2612"
    },
    {
      "channel": 4,
      "note": 36,
      "start": 18.8914,
      "duration": 0.0835,
      "velocity": 127,
      "chip": "ym2612"
    },
    {
      "channel": 0,
      "note": 25,
      "start": 18.9933,
      "duration": 0.381,
      "velocity": 108,
      "chip": "ym2612"
    },
    {
      "channel": 1,
      "note": 49,
      "start": 18.9935,
      "duration": 3.1476,
      "velocity": 108,
      "chip": "ym2612"
    },
    {
      "channel": 4,
      "note": 36,
      "start": 18.9983,
      "duration": 0.3763,
      "velocity": 127,
      "chip": "ym2612"
    },
    {
      "channel": 0,
      "note": 31,
      "start": 19.3911,
      "duration": 0.1665,
      "velocity": 108,
      "chip": "ym2612"
    },
    {
      "channel": 4,
      "note": 36,
      "start": 19.3916,
      "duration": 0.1831,
      "velocity": 127,
      "chip": "ym2612"
    },
    {
      "channel": 0,
      "note": 31,
      "start": 19.5743,
      "duration": 0.1833,
      "velocity": 108,
      "chip": "ym2612"
    },
    {
      "channel": 4,
      "note": 36,
      "start": 19.5913,
      "duration": 0.1667,
      "velocity": 127,
      "chip": "ym2612"
    },
    {
      "channel": 0,
      "note": 31,
      "start": 19.7744,
      "duration": 0.3831,
      "velocity": 108,
      "chip": "ym2612"
    },
    {
      "channel": 4,
      "note": 36,
      "start": 19.7749,
      "duration": 0.3831,
      "velocity": 127,
      "chip": "ym2612"
    },
    {
      "channel": 0,
      "note": 31,
      "start": 20.1744,
      "duration": 0.1831,
      "velocity": 108,
      "chip": "ym2612"
    },
    {
      "channel": 4,
      "note": 36,
      "start": 20.1749,
      "duration": 0.1831,
      "velocity": 127,
      "chip": "ym2612"
    },
    {
      "channel": 0,
      "note": 31,
      "start": 20.3743,
      "duration": 0.1833,
      "velocity": 108,
      "chip": "ym2612"
    },
    {
      "channel": 4,
      "note": 36,
      "start": 20.3748,
      "duration": 0.1834,
      "velocity": 127,
      "chip": "ym2612"
    },
    {
      "channel": 0,
      "note": 31,
      "start": 20.5744,
      "duration": 0.7664,
      "velocity": 108,
      "chip": "ym2612"
    },
    {
      "channel": 4,
      "note": 36,
      "start": 20.5751,
      "duration": 0.5828,
      "velocity": 127,
      "chip": "ym2612"
    },
    {
      "channel": 4,
      "note": 36,
      "start": 21.1748,
      "duration": 0.0665,
      "velocity": 127,
      "chip": "ym2612"
    },
    {
      "channel": 4,
      "note": 36,
      "start": 21.258,
      "duration": 0.0833,
      "velocity": 127,
      "chip": "ym2612"
    },
    {
      "channel": 0,
      "note": 31,
      "start": 21.3578,
      "duration": 0.3832,
      "velocity": 108,
      "chip": "ym2612"
    },
    {
      "channel": 4,
      "note": 36,
      "start": 21.3582,
      "duration": 0.3831,
      "velocity": 127,
      "chip": "ym2612"
    },
    {
      "channel": 0,
      "note": 34,
      "start": 21.7577,
      "duration": 0.3832,
      "velocity": 108,
      "chip": "ym2612"
    },
    {
      "channel": 4,
      "note": 36,
      "start": 21.7582,
      "duration": 0.1831,
      "velocity": 127,
      "chip": "ym2612"
    },
    {
      "channel": 4,
      "note": 36,
      "start": 21.958,
      "duration": 0.0832,
      "velocity": 127,
      "chip": "ym2612"
    },
    {
      "channel": 4,
      "note": 36,
      "start": 22.058,
      "duration": 0.0835,
      "velocity": 127,
      "chip": "ym2612"
    },
    {
      "channel": 0,
      "note": 32,
      "start": 22.1583,
      "duration": 0.3825,
      "velocity": 108,
      "chip": "ym2612"
    },
    {
      "channel": 1,
      "note": 47,
      "start": 22.1586,
      "duration": 1.5658,
      "velocity": 108,
      "chip": "ym2612"
    },
    {
      "channel": 4,
      "note": 36,
      "start": 22.1634,
      "duration": 0.3779,
      "velocity": 127,
      "chip": "ym2612"
    },
    {
      "channel": 0,
      "note": 31,
      "start": 22.5578,
      "duration": 0.1664,
      "velocity": 108,
      "chip": "ym2612"
    },
    {
      "channel": 4,
      "note": 36,
      "start": 22.5582,
      "duration": 0.1831,
      "velocity": 127,
      "chip": "ym2612"
    },
    {
      "channel": 0,
      "note": 31,
      "start": 22.7409,
      "duration": 0.1833,
      "velocity": 108,
      "chip": "ym2612"
    },
    {
      "channel": 4,
      "note": 36,
      "start": 22.758,
      "duration": 0.1667,
      "velocity": 127,
      "chip": "ym2612"
    },
    {
      "channel": 0,
      "note": 31,
      "start": 22.9411,
      "duration": 0.3832,
      "velocity": 108,
      "chip": "ym2612"
    },
    {
      "channel": 4,
      "note": 36,
      "start": 22.9416,
      "duration": 0.3831,
      "velocity": 127,
      "chip": "ym2612"
    },
    {
      "channel": 0,
      "note": 31,
      "start": 23.341,
      "duration": 0.1832,
      "velocity": 108,
      "chip": "ym2612"
    },
    {
      "channel": 4,
      "note": 36,
      "start": 23.3416,
      "duration": 0.1831,
      "velocity": 127,
      "chip": "ym2612"
    },
    {
      "channel": 0,
      "note": 31,
      "start": 23.541,
      "duration": 0.1833,
      "velocity": 108,
      "chip": "ym2612"
    },
    {
      "channel": 4,
      "note": 36,
      "start": 23.5414,
      "duration": 0.1834,
      "velocity": 127,
      "chip": "ym2612"
    },
    {
      "channel": 0,
      "note": 31,
      "start": 23.7411,
      "duration": 0.7664,
      "velocity": 108,
      "chip": "ym2612"
    },
    {
      "channel": 1,
      "note": 46,
      "start": 23.7414,
      "duration": 1.5664,
      "velocity": 108,
      "chip": "ym2612"
    },
    {
      "channel": 4,
      "note": 36,
      "start": 23.7418,
      "duration": 0.5828,
      "velocity": 127,
      "chip": "ym2612"
    },
    {
      "channel": 4,
      "note": 36,
      "start": 24.3414,
      "duration": 0.0666,
      "velocity": 127,
      "chip": "ym2612"
    },
    {
      "channel": 4,
      "note": 36,
      "start": 24.4246,
      "duration": 0.0833,
      "velocity": 127,
      "chip": "ym2612"
    },
    {
      "channel": 0,
      "note": 31,
      "start": 24.5244,
      "duration": 0.3832,
      "velocity": 108,
      "chip": "ym2612"
    },
    {
      "channel": 4,
      "note": 36,
      "start": 24.5249,
      "duration": 0.3831,
      "velocity": 127,
      "chip": "ym2612"
    },
    {
      "channel": 0,
      "note": 29,
      "start": 24.9244,
      "duration": 0.3832,
      "velocity": 108,
      "chip": "ym2612"
    },
    {
      "channel": 4,
      "note": 36,
      "start": 24.9248,
      "duration": 0.1832,
      "velocity": 127,
      "chip": "ym2612"
    },
    {
      "channel": 4,
      "note": 36,
      "start": 25.1248,
      "duration": 0.0832,
      "velocity": 127,
      "chip": "ym2612"
    },
    {
      "channel": 4,
      "note": 36,
      "start": 25.2246,
      "duration": 0.0835,
      "velocity": 127,
      "chip": "ym2612"
    },
    {
      "channel": 0,
      "note": 32,
      "start": 25.3268,
      "duration": 0.3808,
      "velocity": 108,
      "chip": "ym2612"
    },
    {
      "channel": 1,
      "note": 44,
      "start": 25.3285,
      "duration": 3.1459,
      "velocity": 108,
      "chip": "ym2612"
    },
    {
      "channel": 4,
      "note": 36,
      "start": 25.3333,
      "duration": 0.3747,
      "velocity": 127,
      "chip": "ym2612"
    },
    {
      "channel": 0,
      "note": 26,
      "start": 25.7244,
      "duration": 0.1664,
      "velocity": 108,
      "chip": "ym2612"
    },
    {
      "channel": 4,
      "note": 36,
      "start": 25.7249,
      "duration": 0.1831,
      "velocity": 127,
      "chip": "ym2612"
    },
    {
      "channel": 0,
      "note": 26,
      "start": 25.9076,
      "duration": 0.1833,
      "velocity": 108,
      "chip": "ym2612"
    },
    {
      "channel": 4,
      "note": 36,
      "start": 25.9246,
      "duration": 0.1667,
      "velocity": 127,
      "chip": "ym2612"
    },
    {
      "channel": 0,
      "note": 26,
      "start": 26.1078,
      "duration": 0.3832,
      "velocity": 108,
      "chip": "ym2612"
    },
    {
      "channel": 4,
      "note": 36,
      "start": 26.1082,
      "duration": 0.3831,
      "velocity": 127,
      "chip": "ym2612"
    },
    {
      "channel": 0,
      "note": 26,
      "start": 26.5078,
      "duration": 0.1831,
      "velocity": 108,
      "chip": "ym2612"
    },
    {
      "channel": 4,
      "note": 36,
      "start": 26.5082,
      "duration": 0.1831,
      "velocity": 127,
      "chip": "ym2612"
    },
    {
      "channel": 0,
      "note": 26,
      "start": 26.7077,
      "duration": 0.1833,
      "velocity": 108,
      "chip": "ym2612"
    },
    {
      "channel": 4,
      "note": 36,
      "start": 26.7081,
      "duration": 0.1833,
      "velocity": 127,
      "chip": "ym2612"
    },
    {
      "channel": 0,
      "note": 26,
      "start": 26.9078,
      "duration": 0.7665,
      "velocity": 108,
      "chip": "ym2612"
    },
    {
      "channel": 4,
      "note": 36,
      "start": 26.9083,
      "duration": 0.5829,
      "velocity": 127,
      "chip": "ym2612"
    },
    {
      "channel": 4,
      "note": 36,
      "start": 27.508,
      "duration": 0.0666,
      "velocity": 127,
      "chip": "ym2612"
    },
    {
      "channel": 4,
      "note": 36,
      "start": 27.5913,
      "duration": 0.0833,
      "velocity": 127,
      "chip": "ym2612"
    },
    {
      "channel": 0,
      "note": 26,
      "start": 27.6911,
      "duration": 0.3831,
      "velocity": 108,
      "chip": "ym2612"
    },
    {
      "channel": 4,
      "note": 36,
      "start": 27.6916,
      "duration": 0.3831,
      "velocity": 127,
      "chip": "ym2612"
    },
    {
      "channel": 0,
      "note": 29,
      "start": 28.091,
      "duration": 0.3832,
      "velocity": 108,
      "chip": "ym2612"
    },
    {
      "channel": 4,
      "note": 36,
      "start": 28.0916,
      "duration": 0.1831,
      "velocity": 127,
      "chip": "ym2612"
    },
    {
      "channel": 4,
      "note": 36,
      "start": 28.2914,
      "duration": 0.0832,
      "velocity": 127,
      "chip": "ym2612"
    },
    {
      "channel": 4,
      "note": 36,
      "start": 28.3913,
      "duration": 0.0835,
      "velocity": 127,
      "chip": "ym2612"
    },
    {
      "channel": 0,
      "note": 27,
      "start": 28.4916,
      "duration": 0.3826,
      "velocity": 108,
      "chip": "ym2612"
    },
    {
      "channel": 1,
      "note": 45,
      "start": 28.4919,
      "duration": 3.1492,
      "velocity": 108,
      "chip": "ym2612"
    },
    {
      "channel": 4,
      "note": 36,
      "start": 28.4966,
      "duration": 0.378,
      "velocity": 127,
      "chip": "ym2612"
    },
    {
      "channel": 0,
      "note": 26,
      "start": 28.8911,
      "duration": 0.1665,
      "velocity": 108,
      "chip": "ym2612"
    },
    {
      "channel": 4,
      "note": 36,
      "start": 28.8916,
      "duration": 0.1831,
      "velocity": 127,
      "chip": "ym2612"
    },
    {
      "channel": 0,
      "note": 26,
      "start": 29.0743,
      "duration": 0.1833,
      "velocity": 108,
      "chip": "ym2612"
    },
    {
      "channel": 4,
      "note": 36,
      "start": 29.0914,
      "duration": 0.1666,
      "velocity": 127,
      "chip": "ym2612"
    },
    {
      "channel": 0,
      "note": 26,
      "start": 29.2744,
      "duration": 0.3832,
      "velocity": 108,
      "chip": "ym2612"
    },
    {
      "channel": 4,
      "note": 36,
      "start": 29.2749,
      "duration": 0.3831,
      "velocity": 127,
      "chip": "ym2612"
    },
    {
      "channel": 0,
      "note": 26,
      "start": 29.6744,
      "duration": 0.1832,
      "velocity": 108,
      "chip": "ym2612"
    },
    {
      "channel": 4,
      "note": 36,
      "start": 29.6749,
      "duration": 0.1831,
      "velocity": 127,
      "chip": "ym2612"
    },
    {
      "channel": 0,
      "note": 26,
      "start": 29.8743,
      "duration": 0.1833,
      "velocity": 108,
      "chip": "ym2612"
    },
    {
      "channel": 4,
      "note": 36,
      "start": 29.8748,
      "duration": 0.1833,
      "velocity": 127,
      "chip": "ym2612"
    },
    {
      "channel": 0,
      "note": 26,
      "start": 30.0744,
      "duration": 0.7665,
      "velocity": 108,
      "chip": "ym2612"
    },
    {
      "channel": 4,
      "note": 36,
      "start": 30.075,
      "duration": 0.583,
      "velocity": 127,
      "chip": "ym2612"
    },
    {
      "channel": 4,
      "note": 36,
      "start": 30.6748,
      "duration": 0.0666,
      "velocity": 127,
      "chip": "ym2612"
    },
    {
      "channel": 4,
      "note": 36,
      "start": 30.758,
      "duration": 0.0833,
      "velocity": 127,
      "chip": "ym2612"
    },
    {
      "channel": 0,
      "note": 26,
      "start": 30.8578,
      "duration": 0.3832,
      "velocity": 108,
      "chip": "ym2612"
    },
    {
      "channel": 4,
      "note": 36,
      "start": 30.8582,
      "duration": 0.3831,
      "velocity": 127,
      "chip": "ym2612"
    },
    {
      "channel": 0,
      "note": 24,
      "start": 31.2577,
      "duration": 0.3832,
      "velocity": 108,
      "chip": "ym2612"
    },
    {
      "channel": 4,
      "note": 36,
      "start": 31.2582,
      "duration": 0.1832,
      "velocity": 127,
      "chip": "ym2612"
    },
    {
      "channel": 4,
      "note": 36,
      "start": 31.4581,
      "duration": 0.0832,
      "velocity": 127,
      "chip": "ym2612"
    },
    {
      "channel": 4,
      "note": 36,
      "start": 31.558,
      "duration": 0.0835,
      "velocity": 127,
      "chip": "ym2612"
    },
    {
      "channel": 0,
      "note": 27,
      "start": 31.66,
      "duration": 0.381,
      "velocity": 108,
      "chip": "ym2612"
    },
    {
      "channel": 1,
      "note": 46,
      "start": 31.6602,
      "duration": 3.1476,
      "velocity": 108,
      "chip": "ym2612"
    },
    {
      "channel": 4,
      "note": 36,
      "start": 31.665,
      "duration": 0.3763,
      "velocity": 127,
      "chip": "ym2612"
    },
    {
      "channel": 0,
      "note": 33,
      "start": 32.0578,
      "duration": 0.1665,
      "velocity": 108,
      "chip": "ym2612"
    },
    {
      "channel": 4,
      "note": 36,
      "start": 32.0582,
      "duration": 0.1831,
      "velocity": 127,
      "chip": "ym2612"
    },
    {
      "channel": 0,
      "note": 33,
      "start": 32.2409,
      "duration": 0.1833,
      "velocity": 108,
      "chip": "ym2612"
    },
    {
      "channel": 4,
      "note": 36,
      "start": 32.258,
      "duration": 0.1667,
      "velocity": 127,
      "chip": "ym2612"
    },
    {
      "channel": 0,
      "note": 33,
      "start": 32.4411,
      "duration": 0.3832,
      "velocity": 108,
      "chip": "ym2612"
    },
    {
      "channel": 4,
      "note": 36,
      "start": 32.4416,
      "duration": 0.3831,
      "velocity": 127,
      "chip": "ym2612"
    },
    {
      "channel": 0,
      "note": 33,
      "start": 32.8411,
      "duration": 0.1832,
      "velocity": 108,
      "chip": "ym2612"
    },
    {
      "channel": 4,
      "note": 36,
      "start": 32.8416,
      "duration": 0.1831,
      "velocity": 127,
      "chip": "ym2612"
    },
    {
      "channel": 0,
      "note": 33,
      "start": 33.041,
      "duration": 0.1833,
      "velocity": 108,
      "chip": "ym2612"
    },
    {
      "channel": 4,
      "note": 36,
      "start": 33.0414,
      "duration": 0.1833,
      "velocity": 127,
      "chip": "ym2612"
    },
    {
      "channel": 0,
      "note": 33,
      "start": 33.2411,
      "duration": 0.7665,
      "velocity": 108,
      "chip": "ym2612"
    },
    {
      "channel": 4,
      "note": 36,
      "start": 33.2417,
      "duration": 0.5829,
      "velocity": 127,
      "chip": "ym2612"
    },
    {
      "channel": 4,
      "note": 36,
      "start": 33.8414,
      "duration": 0.0666,
      "velocity": 127,
      "chip": "ym2612"
    },
    {
      "channel": 4,
      "note": 36,
      "start": 33.9246,
      "duration": 0.0833,
      "velocity": 127,
      "chip": "ym2612"
    },
    {
      "channel": 0,
      "note": 33,
      "start": 34.0244,
      "duration": 0.3831,
      "velocity": 108,
      "chip": "ym2612"
    },
    {
      "channel": 4,
      "note": 36,
      "start": 34.0249,
      "duration": 0.3831,
      "velocity": 127,
      "chip": "ym2612"
    },
    {
      "channel": 0,
      "note": 36,
      "start": 34.4244,
      "duration": 0.3832,
      "velocity": 108,
      "chip": "ym2612"
    },
    {
      "channel": 4,
      "note": 36,
      "start": 34.4249,
      "duration": 0.1831,
      "velocity": 127,
      "chip": "ym2612"
    },
    {
      "channel": 4,
      "note": 36,
      "start": 34.6248,
      "duration": 0.0832,
      "velocity": 127,
      "chip": "ym2612"
    },
    {
      "channel": 4,
      "note": 36,
      "start": 34.7246,
      "duration": 0.0835,
      "velocity": 127,
      "chip": "ym2612"
    },
    {
      "channel": 0,
      "note": 34,
      "start": 34.825,
      "duration": 0.3825,
      "velocity": 108,
      "chip": "ym2612"
    },
    {
      "channel": 1,
      "note": 45,
      "start": 34.8253,
      "duration": 1.5658,
      "velocity": 108,
      "chip": "ym2612"
    },
    {
      "channel": 4,
      "note": 36,
      "start": 34.83,
      "duration": 0.3779,
      "velocity": 127,
      "chip": "ym2612"
    },
    {
      "channel": 0,
      "note": 33,
      "start": 35.2244,
      "duration": 0.1664,
      "velocity": 108,
      "chip": "ym2612"
    },
    {
      "channel": 4,
      "note": 36,
      "start": 35.2249,
      "duration": 0.1831,
      "velocity": 127,
      "chip": "ym2612"
    },
    {
      "channel": 0,
      "note": 33,
      "start": 35.4076,
      "duration": 0.1833,
      "velocity": 108,
      "chip": "ym2612"
    },
    {
      "channel": 4,
      "note": 36,
      "start": 35.4246,
      "duration": 0.1667,
      "velocity": 127,
      "chip": "ym2612"
    },
    {
      "channel": 0,
      "note": 33,
      "start": 35.6078,
      "duration": 0.3832,
      "velocity": 108,
      "chip": "ym2612"
    },
    {
      "channel": 4,
      "note": 36,
      "start": 35.6082,
      "duration": 0.3831,
      "velocity": 127,
      "chip": "ym2612"
    },
    {
      "channel": 0,
      "note": 33,
      "start": 36.0078,
      "duration": 0.1832,
      "velocity": 108,
      "chip": "ym2612"
    },
    {
      "channel": 4,
      "note": 36,
      "start": 36.0082,
      "duration": 0.1831,
      "velocity": 127,
      "chip": "ym2612"
    },
    {
      "channel": 0,
      "note": 33,
      "start": 36.2077,
      "duration": 0.1833,
      "velocity": 108,
      "chip": "ym2612"
    },
    {
      "channel": 4,
      "note": 36,
      "start": 36.2081,
      "duration": 0.1834,
      "velocity": 127,
      "chip": "ym2612"
    },
    {
      "channel": 0,
      "note": 33,
      "start": 36.4078,
      "duration": 0.7664,
      "velocity": 108,
      "chip": "ym2612"
    },
    {
      "channel": 4,
      "note": 36,
      "start": 36.4083,
      "duration": 0.583,
      "velocity": 127,
      "chip": "ym2612"
    },
    {
      "channel": 1,
      "note": 45,
      "start": 36.791,
      "duration": 0.3834,
      "velocity": 108,
      "chip": "ym2612"
    },
    {
      "channel": 4,
      "note": 36,
      "start": 37.0081,
      "duration": 0.0666,
      "velocity": 127,
      "chip": "ym2612"
    },
    {
      "channel": 4,
      "note": 36,
      "start": 37.0913,
      "duration": 0.0834,
      "velocity": 127,
      "chip": "ym2612"
    },
    {
      "channel": 0,
      "note": 33,
      "start": 37.1911,
      "duration": 0.3832,
      "velocity": 108,
      "chip": "ym2612"
    },
    {
      "channel": 1,
      "note": 45,
      "start": 37.1914,
      "duration": 0.3831,
      "velocity": 108,
      "chip": "ym2612"
    },
    {
      "channel": 4,
      "note": 36,
      "start": 37.1917,
      "duration": 0.383,
      "velocity": 127,
      "chip": "ym2612"
    },
    {
      "channel": 0,
      "note": 31,
      "start": 37.591,
      "duration": 0.3832,
      "velocity": 108,
      "chip": "ym2612"
    },
    {
      "channel": 1,
      "note": 46,
      "start": 37.5913,
      "duration": 0.3831,
      "velocity": 108,
      "chip": "ym2612"
    },
    {
      "channel": 4,
      "note": 36,
      "start": 37.5916,
      "duration": 0.183,
      "velocity": 127,
      "chip": "ym2612"
    },
    {
      "channel": 4,
      "note": 36,
      "start": 37.7914,
      "duration": 0.0832,
      "velocity": 127,
      "chip": "ym2612"
    },
    {
      "channel": 4,
      "note": 36,
      "start": 37.8913,
      "duration": 0.0835,
      "velocity": 127,
      "chip": "ym2612"
    },
    {
      "channel": 0,
      "note": 34,
      "start": 37.9933,
      "duration": 0.381,
      "velocity": 108,
      "chip": "ym2612"
    },
    {
      "channel": 1,
      "note": 51,
      "start": 37.9935,
      "duration": 3.1476,
      "velocity": 108,
      "chip": "ym2612"
    },
    {
      "channel": 4,
      "note": 36,
      "start": 37.9983,
      "duration": 0.3763,
      "velocity": 127,
      "chip": "ym2612"
    },
    {
      "channel": 0,
      "note": 26,
      "start": 38.3911,
      "duration": 0.1665,
      "velocity": 108,
      "chip": "ym2612"
    },
    {
      "channel": 4,
      "note": 36,
      "start": 38.3916,
      "duration": 0.1831,
      "velocity": 127,
      "chip": "ym2612"
    },
    {
      "channel": 0,
      "note": 26,
      "start": 38.5743,
      "duration": 0.1833,
      "velocity": 108,
      "chip": "ym2612"
    },
    {
      "channel": 4,
      "note": 36,
      "start": 38.5913,
      "duration": 0.1667,
      "velocity": 127,
      "chip": "ym2612"
    },
    {
      "channel": 0,
      "note": 26,
      "start": 38.7744,
      "duration": 0.3832,
      "velocity": 108,
      "chip": "ym2612"
    },
    {
      "channel": 4,
      "note": 36,
      "start": 38.7749,
      "duration": 0.3831,
      "velocity": 127,
      "chip": "ym2612"
    },
    {
      "channel": 0,
      "note": 26,
      "start": 39.1744,
      "duration": 0.1832,
      "velocity": 108,
      "chip": "ym2612"
    },
    {
      "channel": 4,
      "note": 36,
      "start": 39.1749,
      "duration": 0.1831,
      "velocity": 127,
      "chip": "ym2612"
    },
    {
      "channel": 0,
      "note": 26,
      "start": 39.3743,
      "duration": 0.1833,
      "velocity": 108,
      "chip": "ym2612"
    },
    {
      "channel": 4,
      "note": 36,
      "start": 39.3748,
      "duration": 0.1833,
      "velocity": 127,
      "chip": "ym2612"
    },
    {
      "channel": 0,
      "note": 26,
      "start": 39.5744,
      "duration": 0.7664,
      "velocity": 108,
      "chip": "ym2612"
    },
    {
      "channel": 4,
      "note": 36,
      "start": 39.575,
      "duration": 0.583,
      "velocity": 127,
      "chip": "ym2612"
    },
    {
      "channel": 4,
      "note": 36,
      "start": 40.1748,
      "duration": 0.0665,
      "velocity": 127,
      "chip": "ym2612"
    },
    {
      "channel": 4,
      "note": 36,
      "start": 40.258,
      "duration": 0.0833,
      "velocity": 127,
      "chip": "ym2612"
    },
    {
      "channel": 0,
      "note": 26,
      "start": 40.3578,
      "duration": 0.3831,
      "velocity": 108,
      "chip": "ym2612"
    },
    {
      "channel": 4,
      "note": 36,
      "start": 40.3582,
      "duration": 0.3831,
      "velocity": 127,
      "chip": "ym2612"
    },
    {
      "channel": 0,
      "note": 29,
      "start": 40.7577,
      "duration": 0.3832,
      "velocity": 108,
      "chip": "ym2612"
    },
    {
      "channel": 4,
      "note": 36,
      "start": 40.7582,
      "duration": 0.183,
      "velocity": 127,
      "chip": "ym2612"
    },
    {
      "channel": 4,
      "note": 36,
      "start": 40.9581,
      "duration": 0.0832,
      "velocity": 127,
      "chip": "ym2612"
    },
    {
      "channel": 4,
      "note": 36,
      "start": 41.058,
      "duration": 0.0835,
      "velocity": 127,
      "chip": "ym2612"
    },
    {
      "channel": 0,
      "note": 27,
      "start": 41.1583,
      "duration": 0.3826,
      "velocity": 108,
      "chip": "ym2612"
    },
    {
      "channel": 1,
      "note": 50,
      "start": 41.1585,
      "duration": 3.1492,
      "velocity": 108,
      "chip": "ym2612"
    },
    {
      "channel": 4,
      "note": 36,
      "start": 41.1633,
      "duration": 0.378,
      "velocity": 127,
      "chip": "ym2612"
    },
    {
      "channel": 0,
      "note": 26,
      "start": 41.5578,
      "duration": 0.1665,
      "velocity": 108,
      "chip": "ym2612"
    },
    {
      "channel": 4,
      "note": 36,
      "start": 41.5582,
      "duration": 0.1831,
      "velocity": 127,
      "chip": "ym2612"
    },
    {
      "channel": 0,
      "note": 26,
      "start": 41.7409,
      "duration": 0.1833,
      "velocity": 108,
      "chip": "ym2612"
    },
    {
      "channel": 4,
      "note": 36,
      "start": 41.758,
      "duration": 0.1667,
      "velocity": 127,
      "chip": "ym2612"
    },
    {
      "channel": 0,
      "note": 26,
      "start": 41.9411,
      "duration": 0.3831,
      "velocity": 108,
      "chip": "ym2612"
    },
    {
      "channel": 4,
      "note": 36,
      "start": 41.9416,
      "duration": 0.3831,
      "velocity": 127,
      "chip": "ym2612"
    },
    {
      "channel": 0,
      "note": 26,
      "start": 42.3411,
      "duration": 0.1832,
      "velocity": 108,
      "chip": "ym2612"
    },
    {
      "channel": 4,
      "note": 36,
      "start": 42.3416,
      "duration": 0.1831,
      "velocity": 127,
      "chip": "ym2612"
    },
    {
      "channel": 0,
      "note": 26,
      "start": 42.541,
      "duration": 0.1833,
      "velocity": 108,
      "chip": "ym2612"
    },
    {
      "channel": 4,
      "note": 36,
      "start": 42.5414,
      "duration": 0.1833,
      "velocity": 127,
      "chip": "ym2612"
    },
    {
      "channel": 0,
      "note": 26,
      "start": 42.7411,
      "duration": 0.7664,
      "velocity": 108,
      "chip": "ym2612"
    },
    {
      "channel": 4,
      "note": 36,
      "start": 42.7417,
      "duration": 0.5829,
      "velocity": 127,
      "chip": "ym2612"
    },
    {
      "channel": 4,
      "note": 36,
      "start": 43.3414,
      "duration": 0.0666,
      "velocity": 127,
      "chip": "ym2612"
    },
    {
      "channel": 4,
      "note": 36,
      "start": 43.4246,
      "duration": 0.0833,
      "velocity": 127,
      "chip": "ym2612"
    },
    {
      "channel": 0,
      "note": 26,
      "start": 43.5244,
      "duration": 0.3831,
      "velocity": 108,
      "chip": "ym2612"
    },
    {
      "channel": 4,
      "note": 36,
      "start": 43.5249,
      "duration": 0.3831,
      "velocity": 127,
      "chip": "ym2612"
    },
    {
      "channel": 0,
      "note": 24,
      "start": 43.9244,
      "duration": 0.3832,
      "velocity": 108,
      "chip": "ym2612"
    },
    {
      "channel": 4,
      "note": 36,
      "start": 43.9249,
      "duration": 0.1831,
      "velocity": 127,
      "chip": "ym2612"
    },
    {
      "channel": 4,
      "note": 36,
      "start": 44.1248,
      "duration": 0.0832,
      "velocity": 127,
      "chip": "ym2612"
    },
    {
      "channel": 4,
      "note": 36,
      "start": 44.2247,
      "duration": 0.0835,
      "velocity": 127,
      "chip": "ym2612"
    },
    {
      "channel": 0,
      "note": 27,
      "start": 44.3266,
      "duration": 0.381,
      "velocity": 108,
      "chip": "ym2612"
    },
    {
      "channel": 1,
      "note": 51,
      "start": 44.3269,
      "duration": 3.1476,
      "velocity": 108,
      "chip": "ym2612"
    },
    {
      "channel": 4,
      "note": 36,
      "start": 44.3316,
      "duration": 0.3763,
      "velocity": 127,
      "chip": "ym2612"
    },
    {
      "channel": 0,
      "note": 33,
      "start": 44.7244,
      "duration": 0.1664,
      "velocity": 108,
      "chip": "ym2612"
    },
    {
      "channel": 4,
      "note": 36,
      "start": 44.7249,
      "duration": 0.1831,
      "velocity": 127,
      "chip": "ym2612"
    },
    {
      "channel": 0,
      "note": 33,
      "start": 44.9076,
      "duration": 0.1833,
      "velocity": 108,
      "chip": "ym2612"
    },
    {
      "channel": 4,
      "note": 36,
      "start": 44.9246,
      "duration": 0.1667,
      "velocity": 127,
      "chip": "ym2612"
    },
    {
      "channel": 0,
      "note": 33,
      "start": 45.1078,
      "duration": 0.3831,
      "velocity": 108,
      "chip": "ym2612"
    },
    {
      "channel": 4,
      "note": 36,
      "start": 45.1082,
      "duration": 0.3831,
      "velocity": 127,
      "chip": "ym2612"
    },
    {
      "channel": 0,
      "note": 33,
      "start": 45.5078,
      "duration": 0.1831,
      "velocity": 108,
      "chip": "ym2612"
    },
    {
      "channel": 4,
      "note": 36,
      "start": 45.5082,
      "duration": 0.1831,
      "velocity": 127,
      "chip": "ym2612"
    },
    {
      "channel": 0,
      "note": 33,
      "start": 45.7077,
      "duration": 0.1833,
      "velocity": 108,
      "chip": "ym2612"
    },
    {
      "channel": 4,
      "note": 36,
      "start": 45.7081,
      "duration": 0.1833,
      "velocity": 127,
      "chip": "ym2612"
    },
    {
      "channel": 0,
      "note": 33,
      "start": 45.9078,
      "duration": 0.7664,
      "velocity": 108,
      "chip": "ym2612"
    },
    {
      "channel": 4,
      "note": 36,
      "start": 45.9083,
      "duration": 0.583,
      "velocity": 127,
      "chip": "ym2612"
    },
    {
      "channel": 4,
      "note": 36,
      "start": 46.5081,
      "duration": 0.0666,
      "velocity": 127,
      "chip": "ym2612"
    },
    {
      "channel": 4,
      "note": 36,
      "start": 46.5913,
      "duration": 0.0833,
      "velocity": 127,
      "chip": "ym2612"
    },
    {
      "channel": 0,
      "note": 33,
      "start": 46.6911,
      "duration": 0.3831,
      "velocity": 108,
      "chip": "ym2612"
    },
    {
      "channel": 4,
      "note": 36,
      "start": 46.6916,
      "duration": 0.3831,
      "velocity": 127,
      "chip": "ym2612"
    },
    {
      "channel": 0,
      "note": 36,
      "start": 47.091,
      "duration": 0.3832,
      "velocity": 108,
      "chip": "ym2612"
    },
    {
      "channel": 4,
      "note": 36,
      "start": 47.0916,
      "duration": 0.1831,
      "velocity": 127,
      "chip": "ym2612"
    },
    {
      "channel": 4,
      "note": 36,
      "start": 47.2914,
      "duration": 0.0832,
      "velocity": 127,
      "chip": "ym2612"
    },
    {
      "channel": 4,
      "note": 36,
      "start": 47.3913,
      "duration": 0.0835,
      "velocity": 127,
      "chip": "ym2612"
    },
    {
      "channel": 0,
      "note": 34,
      "start": 47.4917,
      "duration": 0.3825,
      "velocity": 108,
      "chip": "ym2612"
    },
    {
      "channel": 1,
      "note": 49,
      "start": 47.492,
      "duration": 1.5658,
      "velocity": 108,
      "chip": "ym2612"
    },
    {
      "channel": 4,
      "note": 36,
      "start": 47.4967,
      "duration": 0.3779,
      "velocity": 127,
      "chip": "ym2612"
    },
    {
      "channel": 0,
      "note": 33,
      "start": 47.8911,
      "duration": 0.1665,
      "velocity": 108,
      "chip": "ym2612"
    },
    {
      "channel": 4,
      "note": 36,
      "start": 47.8916,
      "duration": 0.1831,
      "velocity": 127,
      "chip": "ym2612"
    },
    {
      "channel": 0,
      "note": 33,
      "start": 48.0743,
      "duration": 0.1833,
      "velocity": 108,
      "chip": "ym2612"
    },
    {
      "channel": 4,
      "note": 36,
      "start": 48.0914,
      "duration": 0.1666,
      "velocity": 127,
      "chip": "ym2612"
    },
    {
      "channel": 0,
      "note": 33,
      "start": 48.2744,
      "duration": 0.3831,
      "velocity": 108,
      "chip": "ym2612"
    },
    {
      "channel": 4,
      "note": 36,
      "start": 48.2749,
      "duration": 0.3831,
      "velocity": 127,
      "chip": "ym2612"
    },
    {
      "channel": 0,
      "note": 33,
      "start": 48.6744,
      "duration": 0.1831,
      "velocity": 108,
      "chip": "ym2612"
    },
    {
      "channel": 4,
      "note": 36,
      "start": 48.6749,
      "duration": 0.1831,
      "velocity": 127,
      "chip": "ym2612"
    },
    {
      "channel": 0,
      "note": 33,
      "start": 48.8743,
      "duration": 0.1833,
      "velocity": 108,
      "chip": "ym2612"
    },
    {
      "channel": 4,
      "note": 36,
      "start": 48.8748,
      "duration": 0.1834,
      "velocity": 127,
      "chip": "ym2612"
    },
    {
      "channel": 0,
      "note": 33,
      "start": 49.0744,
      "duration": 0.7664,
      "velocity": 108,
      "chip": "ym2612"
    },
    {
      "channel": 1,
      "note": 48,
      "start": 49.0747,
      "duration": 1.5664,
      "velocity": 108,
      "chip": "ym2612"
    },
    {
      "channel": 4,
      "note": 36,
      "start": 49.0751,
      "duration": 0.5828,
      "velocity": 127,
      "chip": "ym2612"
    },
    {
      "channel": 4,
      "note": 36,
      "start": 49.6747,
      "duration": 0.0666,
      "velocity": 127,
      "chip": "ym2612"
    },
    {
      "channel": 4,
      "note": 36,
      "start": 49.758,
      "duration": 0.0833,
      "velocity": 127,
      "chip": "ym2612"
    },
    {
      "channel": 0,
      "note": 33,
      "start": 49.8578,
      "duration": 0.3832,
      "velocity": 108,
      "chip": "ym2612"
    },
    {
      "channel": 4,
      "note": 36,
      "start": 49.8582,
      "duration": 0.3831,
      "velocity": 127,
      "chip": "ym2612"
    },
    {
      "channel": 0,
      "note": 31,
      "start": 50.2577,
      "duration": 0.3832,
      "velocity": 108,
      "chip": "ym2612"
    },
    {
      "channel": 4,
      "note": 36,
      "start": 50.2582,
      "duration": 0.1831,
      "velocity": 127,
      "chip": "ym2612"
    },
    {
      "channel": 4,
      "note": 36,
      "start": 50.4581,
      "duration": 0.0832,
      "velocity": 127,
      "chip": "ym2612"
    },
    {
      "channel": 4,
      "note": 36,
      "start": 50.558,
      "duration": 0.0835,
      "velocity": 127,
      "chip": "ym2612"
    },
    {
      "channel": 0,
      "note": 34,
      "start": 50.6601,
      "duration": 0.0065,
      "velocity": 108,
      "chip": "ym2612"
    },
    {
      "channel": 1,
      "note": 46,
      "start": 50.6619,
      "duration": 0.0048,
      "velocity": 108,
      "chip": "ym2612"
    },
    {
      "channel": 4,
      "note": 36,
      "start": 50.6666,
      "duration": 0.0,
      "velocity": 127,
      "chip": "ym2612"
    }
  ]
}