{
  "track_name": "10 - Nirvan Road",
  "duration_sec": 63.623,
  "sample_rate": 44100,
  "note_count": 1228,
  "unique_pitches": 48,
  "pitch_range": 83,
  "avg_note_duration": 0.2164,
  "reconstruction_stats": {
    "notes_reconstructed": 1228,
    "keyon_events": 1228,
    "keyoff_events": 1226,
    "orphan_keyons": 2,
    "unique_pitches": 48,
    "pitch_range": 83,
    "avg_duration_sec": 0.2164
  },
  "metadata": {
    "source": "V\\Valis III\\10 - Nirvan Road.vgz"
  },
  "notes": [
    {
      "channel": 5,
      "note": -1,
      "start": 0.0576,
      "duration": 0.2364,
      "velocity": 112,
      "chip": "ym2612"
    },
    {
      "channel": 5,
      "note": 39,
      "start": 0.2979,
      "duration": 0.2193,
      "velocity": 112,
      "chip": "ym2612"
    },
    {
      "channel": 5,
      "note": 27,
      "start": 0.5212,
      "duration": 0.2381,
      "velocity": 112,
      "chip": "ym2612"
    },
    {
      "channel": 0,
      "note": -1,
      "start": 0.7438,
      "duration": 0.1494,
      "velocity": 121,
      "chip": "ym2612"
    },
    {
      "channel": 1,
      "note": -1,
      "start": 0.7494,
      "duration": 0.1443,
      "velocity": 108,
      "chip": "ym2612"
    },
    {
      "channel": 4,
      "note": -1,
      "start": 0.7589,
      "duration": 0.3069,
      "velocity": 82,
      "chip": "ym2612"
    },
    {
      "channel": 5,
      "note": 56,
      "start": 0.7636,
      "duration": 0.3394,
      "velocity": 127,
      "chip": "ym2612"
    },
    {
      "channel": 3,
      "note": -1,
      "start": 0.792,
      "duration": 0.1385,
      "velocity": 108,
      "chip": "ym2612"
    },
    {
      "channel": 0,
      "note": 58,
      "start": 0.9286,
      "duration": 0.1362,
      "velocity": 121,
      "chip": "ym2612"
    },
    {
      "channel": 1,
      "note": 73,
      "start": 0.9302,
      "duration": 0.1351,
      "velocity": 108,
      "chip": "ym2612"
    },
    {
      "channel": 3,
      "note": 73,
      "start": 0.9636,
      "duration": 0.1386,
      "velocity": 108,
      "chip": "ym2612"
    },
    {
      "channel": 0,
      "note": 60,
      "start": 1.1003,
      "duration": 0.1361,
      "velocity": 121,
      "chip": "ym2612"
    },
    {
      "channel": 1,
      "note": 75,
      "start": 1.1018,
      "duration": 0.1349,
      "velocity": 108,
      "chip": "ym2612"
    },
    {
      "channel": 5,
      "note": 88,
      "start": 1.1069,
      "duration": 0.1685,
      "velocity": 116,
      "chip": "ym2612"
    },
    {
      "channel": 3,
      "note": 75,
      "start": 1.1351,
      "duration": 0.1385,
      "velocity": 108,
      "chip": "ym2612"
    },
    {
      "channel": 0,
      "note": 72,
      "start": 1.2717,
      "duration": 0.1362,
      "velocity": 121,
      "chip": "ym2612"
    },
    {
      "channel": 1,
      "note": 87,
      "start": 1.2732,
      "duration": 0.1351,
      "velocity": 108,
      "chip": "ym2612"
    },
    {
      "channel": 4,
      "note": 51,
      "start": 1.2749,
      "duration": 0.134,
      "velocity": 82,
      "chip": "ym2612"
    },
    {
      "channel": 5,
      "note": 88,
      "start": 1.2791,
      "duration": 0.1669,
      "velocity": 112,
      "chip": "ym2612"
    },
    {
      "channel": 3,
      "note": 87,
      "start": 1.3066,
      "duration": 0.1385,
      "velocity": 108,
      "chip": "ym2612"
    },
    {
      "channel": 0,
      "note": 55,
      "start": 1.4433,
      "duration": 0.1362,
      "velocity": 121,
      "chip": "ym2612"
    },
    {
      "channel": 1,
      "note": 70,
      "start": 1.4448,
      "duration": 0.1351,
      "velocity": 108,
      "chip": "ym2612"
    },
    {
      "channel": 5,
      "note": 58,
      "start": 1.4499,
      "duration": 0.1686,
      "velocity": 114,
      "chip": "ym2612"
    },
    {
      "channel": 3,
      "note": 70,
      "start": 1.4782,
      "duration": 0.1385,
      "velocity": 108,
      "chip": "ym2612"
    },
    {
      "channel": 0,
      "note": 57,
      "start": 1.6148,
      "duration": 0.1384,
      "velocity": 121,
      "chip": "ym2612"
    },
    {
      "channel": 1,
      "note": 72,
      "start": 1.6163,
      "duration": 0.1372,
      "velocity": 108,
      "chip": "ym2612"
    },
    {
      "channel": 4,
      "note": 51,
      "start": 1.6181,
      "duration": 0.1361,
      "velocity": 82,
      "chip": "ym2612"
    },
    {
      "channel": 5,
      "note": 88,
      "start": 1.6223,
      "duration": 0.1678,
      "velocity": 112,
      "chip": "ym2612"
    },
    {
      "channel": 3,
      "note": 72,
      "start": 1.6501,
      "duration": 0.1382,
      "velocity": 108,
      "chip": "ym2612"
    },
    {
      "channel": 0,
      "note": 53,
      "start": 1.7863,
      "duration": 0.1362,
      "velocity": 121,
      "chip": "ym2612"
    },
    {
      "channel": 1,
      "note": 68,
      "start": 1.7879,
      "duration": 0.135,
      "velocity": 108,
      "chip": "ym2612"
    },
    {
      "channel": 4,
      "note": 51,
      "start": 1.7896,
      "duration": 0.1339,
      "velocity": 82,
      "chip": "ym2612"
    },
    {
      "channel": 5,
      "note": 58,
      "start": 1.7939,
      "duration": 0.1676,
      "velocity": 116,
      "chip": "ym2612"
    },
    {
      "channel": 3,
      "note": 68,
      "start": 1.8212,
      "duration": 0.1385,
      "velocity": 108,
      "chip": "ym2612"
    },
    {
      "channel": 0,
      "note": 58,
      "start": 1.9579,
      "duration": 0.1362,
      "velocity": 121,
      "chip": "ym2612"
    },
    {
      "channel": 1,
      "note": 73,
      "start": 1.9594,
      "duration": 0.1351,
      "velocity": 108,
      "chip": "ym2612"
    },
    {
      "channel": 4,
      "note": 53,
      "start": 1.9611,
      "duration": 0.134,
      "velocity": 82,
      "chip": "ym2612"
    },
    {
      "channel": 5,
      "note": 88,
      "start": 1.9654,
      "duration": 0.1682,
      "velocity": 112,
      "chip": "ym2612"
    },
    {
      "channel": 3,
      "note": 73,
      "start": 1.9928,
      "duration": 0.1388,
      "velocity": 108,
      "chip": "ym2612"
    },
    {
      "channel": 0,
      "note": 55,
      "start": 2.1296,
      "duration": 0.1361,
      "velocity": 121,
      "chip": "ym2612"
    },
    {
      "channel": 1,
      "note": 70,
      "start": 2.1312,
      "duration": 0.1347,
      "velocity": 108,
      "chip": "ym2612"
    },
    {
      "channel": 4,
      "note": 49,
      "start": 2.1332,
      "duration": 0.305,
      "velocity": 82,
      "chip": "ym2612"
    },
    {
      "channel": 5,
      "note": 58,
      "start": 2.1375,
      "duration": 0.3377,
      "velocity": 112,
      "chip": "ym2612"
    },
    {
      "channel": 3,
      "note": 70,
      "start": 2.1645,
      "duration": 0.1384,
      "velocity": 108,
      "chip": "ym2612"
    },
    {
      "channel": 0,
      "note": 53,
      "start": 2.301,
      "duration": 0.1362,
      "velocity": 121,
      "chip": "ym2612"
    },
    {
      "channel": 1,
      "note": 68,
      "start": 2.3025,
      "duration": 0.135,
      "velocity": 108,
      "chip": "ym2612"
    },
    {
      "channel": 3,
      "note": 68,
      "start": 2.3359,
      "duration": 0.1385,
      "velocity": 108,
      "chip": "ym2612"
    },
    {
      "channel": 0,
      "note": 57,
      "start": 2.4725,
      "duration": 0.1362,
      "velocity": 121,
      "chip": "ym2612"
    },
    {
      "channel": 1,
      "note": 72,
      "start": 2.4741,
      "duration": 0.135,
      "velocity": 108,
      "chip": "ym2612"
    },
    {
      "channel": 5,
      "note": 51,
      "start": 2.4791,
      "duration": 0.1685,
      "velocity": 116,
      "chip": "ym2612"
    },
    {
      "channel": 3,
      "note": 72,
      "start": 2.5075,
      "duration": 0.1385,
      "velocity": 108,
      "chip": "ym2612"
    },
    {
      "channel": 0,
      "note": 60,
      "start": 2.644,
      "duration": 0.1368,
      "velocity": 121,
      "chip": "ym2612"
    },
    {
      "channel": 1,
      "note": 75,
      "start": 2.6455,
      "duration": 0.1358,
      "velocity": 108,
      "chip": "ym2612"
    },
    {
      "channel": 4,
      "note": 51,
      "start": 2.6473,
      "duration": 0.1346,
      "velocity": 82,
      "chip": "ym2612"
    },
    {
      "channel": 5,
      "note": 88,
      "start": 2.6515,
      "duration": 0.1677,
      "velocity": 112,
      "chip": "ym2612"
    },
    {
      "channel": 3,
      "note": 75,
      "start": 2.679,
      "duration": 0.1394,
      "velocity": 108,
      "chip": "ym2612"
    },
    {
      "channel": 0,
      "note": 55,
      "start": 2.8165,
      "duration": 0.1353,
      "velocity": 121,
      "chip": "ym2612"
    },
    {
      "channel": 1,
      "note": 70,
      "start": 2.818,
      "duration": 0.1342,
      "velocity": 108,
      "chip": "ym2612"
    },
    {
      "channel": 5,
      "note": 58,
      "start": 2.8231,
      "duration": 0.1677,
      "velocity": 114,
      "chip": "ym2612"
    },
    {
      "channel": 3,
      "note": 70,
      "start": 2.8518,
      "duration": 0.1372,
      "velocity": 108,
      "chip": "ym2612"
    },
    {
      "channel": 0,
      "note": 57,
      "start": 2.9872,
      "duration": 0.1362,
      "velocity": 121,
      "chip": "ym2612"
    },
    {
      "channel": 1,
      "note": 72,
      "start": 2.9886,
      "duration": 0.1351,
      "velocity": 108,
      "chip": "ym2612"
    },
    {
      "channel": 4,
      "note": 51,
      "start": 2.9904,
      "duration": 0.134,
      "velocity": 82,
      "chip": "ym2612"
    },
    {
      "channel": 5,
      "note": 88,
      "start": 2.9946,
      "duration": 0.1679,
      "velocity": 112,
      "chip": "ym2612"
    },
    {
      "channel": 3,
      "note": 72,
      "start": 3.0221,
      "duration": 0.1386,
      "velocity": 108,
      "chip": "ym2612"
    },
    {
      "channel": 0,
      "note": 53,
      "start": 3.1588,
      "duration": 0.3076,
      "velocity": 121,
      "chip": "ym2612"
    },
    {
      "channel": 1,
      "note": 68,
      "start": 3.1603,
      "duration": 0.3065,
      "velocity": 108,
      "chip": "ym2612"
    },
    {
      "channel": 4,
      "note": 54,
      "start": 3.1621,
      "duration": 0.1337,
      "velocity": 82,
      "chip": "ym2612"
    },
    {
      "channel": 5,
      "note": 58,
      "start": 3.1664,
      "duration": 0.1651,
      "velocity": 116,
      "chip": "ym2612"
    },
    {
      "channel": 3,
      "note": 68,
      "start": 3.1937,
      "duration": 0.3104,
      "velocity": 108,
      "chip": "ym2612"
    },
    {
      "channel": 4,
      "note": 56,
      "start": 3.331,
      "duration": 0.1364,
      "velocity": 82,
      "chip": "ym2612"
    },
    {
      "channel": 5,
      "note": 88,
      "start": 3.3353,
      "duration": 0.1707,
      "velocity": 112,
      "chip": "ym2612"
    },
    {
      "channel": 0,
      "note": 77,
      "start": 3.502,
      "duration": 0.136,
      "velocity": 121,
      "chip": "ym2612"
    },
    {
      "channel": 1,
      "note": 80,
      "start": 3.5036,
      "duration": 0.1347,
      "velocity": 108,
      "chip": "ym2612"
    },
    {
      "channel": 4,
      "note": 49,
      "start": 3.5055,
      "duration": 0.305,
      "velocity": 82,
      "chip": "ym2612"
    },
    {
      "channel": 5,
      "note": 58,
      "start": 3.5099,
      "duration": 0.3377,
      "velocity": 112,
      "chip": "ym2612"
    },
    {
      "channel": 3,
      "note": 80,
      "start": 3.5369,
      "duration": 0.1383,
      "velocity": 108,
      "chip": "ym2612"
    },
    {
      "channel": 0,
      "note": 65,
      "start": 3.6734,
      "duration": 0.1362,
      "velocity": 121,
      "chip": "ym2612"
    },
    {
      "channel": 1,
      "note": 80,
      "start": 3.6748,
      "duration": 0.1351,
      "velocity": 108,
      "chip": "ym2612"
    },
    {
      "channel": 3,
      "note": 80,
      "start": 3.7082,
      "duration": 0.1385,
      "velocity": 108,
      "chip": "ym2612"
    },
    {
      "channel": 0,
      "note": 64,
      "start": 3.8449,
      "duration": 0.1378,
      "velocity": 121,
      "chip": "ym2612"
    },
    {
      "channel": 1,
      "note": 79,
      "start": 3.8464,
      "duration": 0.1366,
      "velocity": 108,
      "chip": "ym2612"
    },
    {
      "channel": 5,
      "note": 51,
      "start": 3.8515,
      "duration": 0.1704,
      "velocity": 116,
      "chip": "ym2612"
    },
    {
      "channel": 3,
      "note": 79,
      "start": 3.8798,
      "duration": 0.1404,
      "velocity": 108,
      "chip": "ym2612"
    },
    {
      "channel": 0,
      "note": 60,
      "start": 4.0183,
      "duration": 0.1344,
      "velocity": 121,
      "chip": "ym2612"
    },
    {
      "channel": 1,
      "note": 75,
      "start": 4.0198,
      "duration": 0.1332,
      "velocity": 108,
      "chip": "ym2612"
    },
    {
      "channel": 4,
      "note": 51,
      "start": 4.0215,
      "duration": 0.1321,
      "velocity": 82,
      "chip": "ym2612"
    },
    {
      "channel": 5,
      "note": 88,
      "start": 4.0258,
      "duration": 0.1649,
      "velocity": 112,
      "chip": "ym2612"
    },
    {
      "channel": 3,
      "note": 75,
      "start": 4.0513,
      "duration": 0.1385,
      "velocity": 108,
      "chip": "ym2612"
    },
    {
      "channel": 0,
      "note": 62,
      "start": 4.188,
      "duration": 0.3077,
      "velocity": 121,
      "chip": "ym2612"
    },
    {
      "channel": 1,
      "note": 77,
      "start": 4.1895,
      "duration": 0.3066,
      "velocity": 108,
      "chip": "ym2612"
    },
    {
      "channel": 5,
      "note": 58,
      "start": 4.1945,
      "duration": 0.1662,
      "velocity": 114,
      "chip": "ym2612"
    },
    {
      "channel": 3,
      "note": 77,
      "start": 4.2229,
      "duration": 0.3101,
      "velocity": 108,
      "chip": "ym2612"
    },
    {
      "channel": 4,
      "note": 51,
      "start": 4.3603,
      "duration": 0.1364,
      "velocity": 82,
      "chip": "ym2612"
    },
    {
      "channel": 5,
      "note": 88,
      "start": 4.3646,
      "duration": 0.1702,
      "velocity": 112,
      "chip": "ym2612"
    },
    {
      "channel": 0,
      "note": 58,
      "start": 4.531,
      "duration": 0.1362,
      "velocity": 121,
      "chip": "ym2612"
    },
    {
      "channel": 1,
      "note": 73,
      "start": 4.5326,
      "duration": 0.135,
      "velocity": 108,
      "chip": "ym2612"
    },
    {
      "channel": 4,
      "note": 49,
      "start": 4.5344,
      "duration": 0.1338,
      "velocity": 82,
      "chip": "ym2612"
    },
    {
      "channel": 5,
      "note": 58,
      "start": 4.5387,
      "duration": 0.1676,
      "velocity": 116,
      "chip": "ym2612"
    },
    {
      "channel": 3,
      "note": 73,
      "start": 4.566,
      "duration": 0.1385,
      "velocity": 108,
      "chip": "ym2612"
    },
    {
      "channel": 0,
      "note": 65,
      "start": 4.7026,
      "duration": 0.1362,
      "velocity": 121,
      "chip": "ym2612"
    },
    {
      "channel": 1,
      "note": 80,
      "start": 4.7041,
      "duration": 0.135,
      "velocity": 108,
      "chip": "ym2612"
    },
    {
      "channel": 4,
      "note": 51,
      "start": 4.7059,
      "duration": 0.134,
      "velocity": 82,
      "chip": "ym2612"
    },
    {
      "channel": 5,
      "note": 88,
      "start": 4.7101,
      "duration": 0.1682,
      "velocity": 112,
      "chip": "ym2612"
    },
    {
      "channel": 3,
      "note": 80,
      "start": 4.7375,
      "duration": 0.1389,
      "velocity": 108,
      "chip": "ym2612"
    },
    {
      "channel": 0,
      "note": 64,
      "start": 4.8743,
      "duration": 0.136,
      "velocity": 121,
      "chip": "ym2612"
    },
    {
      "channel": 1,
      "note": 79,
      "start": 4.876,
      "duration": 0.1347,
      "velocity": 108,
      "chip": "ym2612"
    },
    {
      "channel": 4,
      "note": 53,
      "start": 4.8779,
      "duration": 0.1334,
      "velocity": 82,
      "chip": "ym2612"
    },
    {
      "channel": 5,
      "note": 58,
      "start": 4.8824,
      "duration": 0.3385,
      "velocity": 112,
      "chip": "ym2612"
    },
    {
      "channel": 3,
      "note": 79,
      "start": 4.9092,
      "duration": 0.1385,
      "velocity": 108,
      "chip": "ym2612"
    },
    {
      "channel": 0,
      "note": 60,
      "start": 5.0459,
      "duration": 0.136,
      "velocity": 121,
      "chip": "ym2612"
    },
    {
      "channel": 1,
      "note": 75,
      "start": 5.0474,
      "duration": 0.1349,
      "velocity": 108,
      "chip": "ym2612"
    },
    {
      "channel": 4,
      "note": 51,
      "start": 5.0493,
      "duration": 0.1337,
      "velocity": 82,
      "chip": "ym2612"
    },
    {
      "channel": 3,
      "note": 75,
      "start": 5.0813,
      "duration": 0.1378,
      "velocity": 108,
      "chip": "ym2612"
    },
    {
      "channel": 0,
      "note": 62,
      "start": 5.2173,
      "duration": 0.6508,
      "velocity": 121,
      "chip": "ym2612"
    },
    {
      "channel": 1,
      "note": 77,
      "start": 5.2187,
      "duration": 0.6497,
      "velocity": 108,
      "chip": "ym2612"
    },
    {
      "channel": 4,
      "note": 61,
      "start": 5.2205,
      "duration": 0.1338,
      "velocity": 82,
      "chip": "ym2612"
    },
    {
      "channel": 5,
      "note": 52,
      "start": 5.2248,
      "duration": 0.1653,
      "velocity": 116,
      "chip": "ym2612"
    },
    {
      "channel": 3,
      "note": 77,
      "start": 5.2522,
      "duration": 0.6507,
      "velocity": 108,
      "chip": "ym2612"
    },
    {
      "channel": 4,
      "note": 60,
      "start": 5.3896,
      "duration": 0.1361,
      "velocity": 82,
      "chip": "ym2612"
    },
    {
      "channel": 5,
      "note": 88,
      "start": 5.3938,
      "duration": 0.1678,
      "velocity": 112,
      "chip": "ym2612"
    },
    {
      "channel": 4,
      "note": 58,
      "start": 5.5611,
      "duration": 0.1362,
      "velocity": 82,
      "chip": "ym2612"
    },
    {
      "channel": 5,
      "note": 58,
      "start": 5.5655,
      "duration": 0.1677,
      "velocity": 114,
      "chip": "ym2612"
    },
    {
      "channel": 4,
      "note": 60,
      "start": 5.7328,
      "duration": 0.1363,
      "velocity": 82,
      "chip": "ym2612"
    },
    {
      "channel": 5,
      "note": 88,
      "start": 5.737,
      "duration": 0.1678,
      "velocity": 112,
      "chip": "ym2612"
    },
    {
      "channel": 4,
      "note": 58,
      "start": 5.9043,
      "duration": 0.3087,
      "velocity": 82,
      "chip": "ym2612"
    },
    {
      "channel": 5,
      "note": 58,
      "start": 5.9085,
      "duration": 0.1665,
      "velocity": 116,
      "chip": "ym2612"
    },
    {
      "channel": 5,
      "note": 88,
      "start": 6.0788,
      "duration": 0.1729,
      "velocity": 112,
      "chip": "ym2612"
    },
    {
      "channel": 0,
      "note": 58,
      "start": 6.2478,
      "duration": 0.1349,
      "velocity": 121,
      "chip": "ym2612"
    },
    {
      "channel": 1,
      "note": 73,
      "start": 6.2495,
      "duration": 0.1336,
      "velocity": 108,
      "chip": "ym2612"
    },
    {
      "channel": 4,
      "note": 51,
      "start": 6.2513,
      "duration": 0.3039,
      "velocity": 82,
      "chip": "ym2612"
    },
    {
      "channel": 5,
      "note": 58,
      "start": 6.2558,
      "duration": 0.3365,
      "velocity": 127,
      "chip": "ym2612"
    },
    {
      "channel": 3,
      "note": 73,
      "start": 6.2833,
      "duration": 0.1366,
      "velocity": 108,
      "chip": "ym2612"
    },
    {
      "channel": 0,
      "note": 58,
      "start": 6.4181,
      "duration": 0.1361,
      "velocity": 121,
      "chip": "ym2612"
    },
    {
      "channel": 1,
      "note": 73,
      "start": 6.4195,
      "duration": 0.135,
      "velocity": 108,
      "chip": "ym2612"
    },
    {
      "channel": 3,
      "note": 73,
      "start": 6.4529,
      "duration": 0.1385,
      "velocity": 108,
      "chip": "ym2612"
    },
    {
      "channel": 0,
      "note": 59,
      "start": 6.5896,
      "duration": 0.1362,
      "velocity": 121,
      "chip": "ym2612"
    },
    {
      "channel": 1,
      "note": 74,
      "start": 6.5911,
      "duration": 0.135,
      "velocity": 108,
      "chip": "ym2612"
    },
    {
      "channel": 5,
      "note": 88,
      "start": 6.5962,
      "duration": 0.1686,
      "velocity": 116,
      "chip": "ym2612"
    },
    {
      "channel": 3,
      "note": 74,
      "start": 6.6245,
      "duration": 0.1385,
      "velocity": 108,
      "chip": "ym2612"
    },
    {
      "channel": 0,
      "note": 60,
      "start": 6.7611,
      "duration": 0.1362,
      "velocity": 121,
      "chip": "ym2612"
    },
    {
      "channel": 1,
      "note": 75,
      "start": 6.7626,
      "duration": 0.1351,
      "velocity": 108,
      "chip": "ym2612"
    },
    {
      "channel": 4,
      "note": 51,
      "start": 6.7644,
      "duration": 0.134,
      "velocity": 82,
      "chip": "ym2612"
    },
    {
      "channel": 5,
      "note": 88,
      "start": 6.7686,
      "duration": 0.3392,
      "velocity": 127,
      "chip": "ym2612"
    },
    {
      "channel": 3,
      "note": 75,
      "start": 6.7961,
      "duration": 0.1385,
      "velocity": 108,
      "chip": "ym2612"
    },
    {
      "channel": 0,
      "note": 55,
      "start": 6.9327,
      "duration": 0.1362,
      "velocity": 121,
      "chip": "ym2612"
    },
    {
      "channel": 1,
      "note": 70,
      "start": 6.9342,
      "duration": 0.1351,
      "velocity": 108,
      "chip": "ym2612"
    },
    {
      "channel": 3,
      "note": 70,
      "start": 6.9676,
      "duration": 0.1385,
      "velocity": 108,
      "chip": "ym2612"
    },
    {
      "channel": 0,
      "note": 57,
      "start": 7.1042,
      "duration": 0.1362,
      "velocity": 121,
      "chip": "ym2612"
    },
    {
      "channel": 1,
      "note": 72,
      "start": 7.1057,
      "duration": 0.1351,
      "velocity": 108,
      "chip": "ym2612"
    },
    {
      "channel": 4,
      "note": 51,
      "start": 7.1075,
      "duration": 0.134,
      "velocity": 82,
      "chip": "ym2612"
    },
    {
      "channel": 5,
      "note": 88,
      "start": 7.1117,
      "duration": 0.1677,
      "velocity": 112,
      "chip": "ym2612"
    },
    {
      "channel": 3,
      "note": 72,
      "start": 7.1391,
      "duration": 0.1385,
      "velocity": 108,
      "chip": "ym2612"
    },
    {
      "channel": 0,
      "note": 53,
      "start": 7.2758,
      "duration": 0.1384,
      "velocity": 121,
      "chip": "ym2612"
    },
    {
      "channel": 1,
      "note": 68,
      "start": 7.2772,
      "duration": 0.1373,
      "velocity": 108,
      "chip": "ym2612"
    },
    {
      "channel": 4,
      "note": 51,
      "start": 7.279,
      "duration": 0.1362,
      "velocity": 82,
      "chip": "ym2612"
    },
    {
      "channel": 5,
      "note": 58,
      "start": 7.2833,
      "duration": 0.1677,
      "velocity": 116,
      "chip": "ym2612"
    },
    {
      "channel": 3,
      "note": 68,
      "start": 7.3109,
      "duration": 0.1384,
      "velocity": 108,
      "chip": "ym2612"
    },
    {
      "channel": 0,
      "note": 60,
      "start": 7.4473,
      "duration": 0.1363,
      "velocity": 121,
      "chip": "ym2612"
    },
    {
      "channel": 1,
      "note": 75,
      "start": 7.4488,
      "duration": 0.1351,
      "velocity": 108,
      "chip": "ym2612"
    },
    {
      "channel": 4,
      "note": 53,
      "start": 7.4506,
      "duration": 0.1339,
      "velocity": 82,
      "chip": "ym2612"
    },
    {
      "channel": 5,
      "note": 9,
      "start": 7.4548,
      "duration": 0.1683,
      "velocity": 112,
      "chip": "ym2612"
    },
    {
      "channel": 3,
      "note": 75,
      "start": 7.4823,
      "duration": 0.1388,
      "velocity": 108,
      "chip": "ym2612"
    },
    {
      "channel": 0,
      "note": 55,
      "start": 7.619,
      "duration": 0.136,
      "velocity": 121,
      "chip": "ym2612"
    },
    {
      "channel": 1,
      "note": 70,
      "start": 7.6207,
      "duration": 0.1347,
      "velocity": 108,
      "chip": "ym2612"
    },
    {
      "channel": 4,
      "note": 49,
      "start": 7.6226,
      "duration": 0.305,
      "velocity": 82,
      "chip": "ym2612"
    },
    {
      "channel": 5,
      "note": 58,
      "start": 7.627,
      "duration": 0.3377,
      "velocity": 112,
      "chip": "ym2612"
    },
    {
      "channel": 3,
      "note": 70,
      "start": 7.6539,
      "duration": 0.1384,
      "velocity": 108,
      "chip": "ym2612"
    },
    {
      "channel": 0,
      "note": 58,
      "start": 7.7904,
      "duration": 0.1362,
      "velocity": 121,
      "chip": "ym2612"
    },
    {
      "channel": 1,
      "note": 73,
      "start": 7.7919,
      "duration": 0.135,
      "velocity": 108,
      "chip": "ym2612"
    },
    {
      "channel": 3,
      "note": 73,
      "start": 7.8253,
      "duration": 0.1385,
      "velocity": 108,
      "chip": "ym2612"
    },
    {
      "channel": 0,
      "note": 57,
      "start": 7.962,
      "duration": 0.1361,
      "velocity": 121,
      "chip": "ym2612"
    },
    {
      "channel": 1,
      "note": 72,
      "start": 7.9634,
      "duration": 0.1351,
      "velocity": 108,
      "chip": "ym2612"
    },
    {
      "channel": 5,
      "note": 51,
      "start": 7.9686,
      "duration": 0.1685,
      "velocity": 116,
      "chip": "ym2612"
    },
    {
      "channel": 3,
      "note": 72,
      "start": 7.9969,
      "duration": 0.1385,
      "velocity": 108,
      "chip": "ym2612"
    },
    {
      "channel": 0,
      "note": 60,
      "start": 8.1335,
      "duration": 0.1362,
      "velocity": 121,
      "chip": "ym2612"
    },
    {
      "channel": 1,
      "note": 75,
      "start": 8.1349,
      "duration": 0.1351,
      "velocity": 108,
      "chip": "ym2612"
    },
    {
      "channel": 4,
      "note": 51,
      "start": 8.1367,
      "duration": 0.134,
      "velocity": 82,
      "chip": "ym2612"
    },
    {
      "channel": 5,
      "note": 88,
      "start": 8.1409,
      "duration": 0.1669,
      "velocity": 112,
      "chip": "ym2612"
    },
    {
      "channel": 3,
      "note": 75,
      "start": 8.1684,
      "duration": 0.1385,
      "velocity": 108,
      "chip": "ym2612"
    },
    {
      "channel": 0,
      "note": 55,
      "start": 8.305,
      "duration": 0.1367,
      "velocity": 121,
      "chip": "ym2612"
    },
    {
      "channel": 1,
      "note": 70,
      "start": 8.3066,
      "duration": 0.1356,
      "velocity": 108,
      "chip": "ym2612"
    },
    {
      "channel": 5,
      "note": 58,
      "start": 8.3117,
      "duration": 0.1692,
      "velocity": 114,
      "chip": "ym2612"
    },
    {
      "channel": 3,
      "note": 70,
      "start": 8.34,
      "duration": 0.1391,
      "velocity": 108,
      "chip": "ym2612"
    },
    {
      "channel": 0,
      "note": 57,
      "start": 8.4772,
      "duration": 0.1356,
      "velocity": 121,
      "chip": "ym2612"
    },
    {
      "channel": 1,
      "note": 72,
      "start": 8.4787,
      "duration": 0.1344,
      "velocity": 108,
      "chip": "ym2612"
    },
    {
      "channel": 4,
      "note": 51,
      "start": 8.4805,
      "duration": 0.1333,
      "velocity": 82,
      "chip": "ym2612"
    },
    {
      "channel": 5,
      "note": 88,
      "start": 8.4847,
      "duration": 0.1671,
      "velocity": 112,
      "chip": "ym2612"
    },
    {
      "channel": 3,
      "note": 72,
      "start": 8.5127,
      "duration": 0.1374,
      "velocity": 108,
      "chip": "ym2612"
    },
    {
      "channel": 0,
      "note": 58,
      "start": 8.6482,
      "duration": 0.1361,
      "velocity": 121,
      "chip": "ym2612"
    },
    {
      "channel": 1,
      "note": 73,
      "start": 8.6497,
      "duration": 0.135,
      "velocity": 108,
      "chip": "ym2612"
    },
    {
      "channel": 4,
      "note": 54,
      "start": 8.6515,
      "duration": 0.1338,
      "velocity": 82,
      "chip": "ym2612"
    },
    {
      "channel": 5,
      "note": 58,
      "start": 8.6557,
      "duration": 0.3397,
      "velocity": 127,
      "chip": "ym2612"
    },
    {
      "channel": 3,
      "note": 73,
      "start": 8.683,
      "duration": 0.1385,
      "velocity": 108,
      "chip": "ym2612"
    },
    {
      "channel": 0,
      "note": 60,
      "start": 8.8197,
      "duration": 0.1362,
      "velocity": 121,
      "chip": "ym2612"
    },
    {
      "channel": 1,
      "note": 75,
      "start": 8.8212,
      "duration": 0.135,
      "velocity": 108,
      "chip": "ym2612"
    },
    {
      "channel": 4,
      "note": 56,
      "start": 8.8229,
      "duration": 0.134,
      "velocity": 82,
      "chip": "ym2612"
    },
    {
      "channel": 3,
      "note": 75,
      "start": 8.8546,
      "duration": 0.1389,
      "velocity": 108,
      "chip": "ym2612"
    },
    {
      "channel": 0,
      "note": 62,
      "start": 8.9914,
      "duration": 0.1361,
      "velocity": 121,
      "chip": "ym2612"
    },
    {
      "channel": 1,
      "note": 77,
      "start": 8.9931,
      "duration": 0.1346,
      "velocity": 108,
      "chip": "ym2612"
    },
    {
      "channel": 4,
      "note": 49,
      "start": 8.995,
      "duration": 0.305,
      "velocity": 82,
      "chip": "ym2612"
    },
    {
      "channel": 5,
      "note": 88,
      "start": 8.9994,
      "duration": 0.3376,
      "velocity": 112,
      "chip": "ym2612"
    },
    {
      "channel": 3,
      "note": 77,
      "start": 9.0263,
      "duration": 0.1383,
      "velocity": 108,
      "chip": "ym2612"
    },
    {
      "channel": 0,
      "note": 65,
      "start": 9.1628,
      "duration": 0.1361,
      "velocity": 121,
      "chip": "ym2612"
    },
    {
      "channel": 1,
      "note": 80,
      "start": 9.1643,
      "duration": 0.135,
      "velocity": 108,
      "chip": "ym2612"
    },
    {
      "channel": 3,
      "note": 80,
      "start": 9.1977,
      "duration": 0.1385,
      "velocity": 108,
      "chip": "ym2612"
    },
    {
      "channel": 0,
      "note": 64,
      "start": 9.3343,
      "duration": 0.1362,
      "velocity": 121,
      "chip": "ym2612"
    },
    {
      "channel": 1,
      "note": 79,
      "start": 9.3358,
      "duration": 0.135,
      "velocity": 108,
      "chip": "ym2612"
    },
    {
      "channel": 5,
      "note": 51,
      "start": 9.3409,
      "duration": 0.1686,
      "velocity": 116,
      "chip": "ym2612"
    },
    {
      "channel": 3,
      "note": 79,
      "start": 9.3692,
      "duration": 0.1385,
      "velocity": 108,
      "chip": "ym2612"
    },
    {
      "channel": 0,
      "note": 60,
      "start": 9.5059,
      "duration": 0.1379,
      "velocity": 121,
      "chip": "ym2612"
    },
    {
      "channel": 1,
      "note": 75,
      "start": 9.5073,
      "duration": 0.1368,
      "velocity": 108,
      "chip": "ym2612"
    },
    {
      "channel": 4,
      "note": 51,
      "start": 9.5091,
      "duration": 0.1356,
      "velocity": 82,
      "chip": "ym2612"
    },
    {
      "channel": 5,
      "note": 88,
      "start": 9.5133,
      "duration": 0.1685,
      "velocity": 112,
      "chip": "ym2612"
    },
    {
      "channel": 3,
      "note": 75,
      "start": 9.5407,
      "duration": 0.1402,
      "velocity": 108,
      "chip": "ym2612"
    },
    {
      "channel": 0,
      "note": 62,
      "start": 9.679,
      "duration": 0.3061,
      "velocity": 121,
      "chip": "ym2612"
    },
    {
      "channel": 1,
      "note": 77,
      "start": 9.6805,
      "duration": 0.305,
      "velocity": 108,
      "chip": "ym2612"
    },
    {
      "channel": 5,
      "note": 58,
      "start": 9.6857,
      "duration": 0.1644,
      "velocity": 114,
      "chip": "ym2612"
    },
    {
      "channel": 3,
      "note": 77,
      "start": 9.7123,
      "duration": 0.31,
      "velocity": 108,
      "chip": "ym2612"
    },
    {
      "channel": 4,
      "note": 51,
      "start": 9.8498,
      "duration": 0.1364,
      "velocity": 82,
      "chip": "ym2612"
    },
    {
      "channel": 5,
      "note": 88,
      "start": 9.8539,
      "duration": 0.1702,
      "velocity": 112,
      "chip": "ym2612"
    },
    {
      "channel": 0,
      "note": 58,
      "start": 10.0205,
      "duration": 0.1362,
      "velocity": 121,
      "chip": "ym2612"
    },
    {
      "channel": 1,
      "note": 73,
      "start": 10.022,
      "duration": 0.1351,
      "velocity": 108,
      "chip": "ym2612"
    },
    {
      "channel": 4,
      "note": 49,
      "start": 10.0237,
      "duration": 0.1339,
      "velocity": 82,
      "chip": "ym2612"
    },
    {
      "channel": 5,
      "note": 58,
      "start": 10.028,
      "duration": 0.1677,
      "velocity": 116,
      "chip": "ym2612"
    },
    {
      "channel": 3,
      "note": 73,
      "start": 10.0554,
      "duration": 0.1385,
      "velocity": 108,
      "chip": "ym2612"
    },
    {
      "channel": 0,
      "note": 62,
      "start": 10.1921,
      "duration": 0.1361,
      "velocity": 121,
      "chip": "ym2612"
    },
    {
      "channel": 1,
      "note": 77,
      "start": 10.1936,
      "duration": 0.135,
      "velocity": 108,
      "chip": "ym2612"
    },
    {
      "channel": 4,
      "note": 51,
      "start": 10.1953,
      "duration": 0.1339,
      "velocity": 82,
      "chip": "ym2612"
    },
    {
      "channel": 5,
      "note": 88,
      "start": 10.1996,
      "duration": 0.1682,
      "velocity": 112,
      "chip": "ym2612"
    },
    {
      "channel": 3,
      "note": 77,
      "start": 10.227,
      "duration": 0.1389,
      "velocity": 108,
      "chip": "ym2612"
    },
    {
      "channel": 0,
      "note": 65,
      "start": 10.3637,
      "duration": 0.136,
      "velocity": 121,
      "chip": "ym2612"
    },
    {
      "channel": 1,
      "note": 80,
      "start": 10.3655,
      "duration": 0.1347,
      "velocity": 108,
      "chip": "ym2612"
    },
    {
      "channel": 4,
      "note": 53,
      "start": 10.3674,
      "duration": 0.1334,
      "velocity": 82,
      "chip": "ym2612"
    },
    {
      "channel": 5,
      "note": 58,
      "start": 10.3718,
      "duration": 0.3386,
      "velocity": 112,
      "chip": "ym2612"
    },
    {
      "channel": 3,
      "note": 80,
      "start": 10.3987,
      "duration": 0.1384,
      "velocity": 108,
      "chip": "ym2612"
    },
    {
      "channel": 0,
      "note": 64,
      "start": 10.5351,
      "duration": 0.1363,
      "velocity": 121,
      "chip": "ym2612"
    },
    {
      "channel": 1,
      "note": 79,
      "start": 10.5366,
      "duration": 0.1351,
      "velocity": 108,
      "chip": "ym2612"
    },
    {
      "channel": 4,
      "note": 51,
      "start": 10.5385,
      "duration": 0.1338,
      "velocity": 82,
      "chip": "ym2612"
    },
    {
      "channel": 3,
      "note": 79,
      "start": 10.57,
      "duration": 0.1385,
      "velocity": 108,
      "chip": "ym2612"
    },
    {
      "channel": 0,
      "note": 65,
      "start": 10.7067,
      "duration": 0.6508,
      "velocity": 121,
      "chip": "ym2612"
    },
    {
      "channel": 1,
      "note": 80,
      "start": 10.7081,
      "duration": 0.6497,
      "velocity": 108,
      "chip": "ym2612"
    },
    {
      "channel": 4,
      "note": 61,
      "start": 10.7099,
      "duration": 0.1337,
      "velocity": 82,
      "chip": "ym2612"
    },
    {
      "channel": 5,
      "note": 51,
      "start": 10.7142,
      "duration": 0.1653,
      "velocity": 116,
      "chip": "ym2612"
    },
    {
      "channel": 3,
      "note": 80,
      "start": 10.7421,
      "duration": 0.6161,
      "velocity": 108,
      "chip": "ym2612"
    },
    {
      "channel": 4,
      "note": 60,
      "start": 10.8791,
      "duration": 0.1361,
      "velocity": 82,
      "chip": "ym2612"
    },
    {
      "channel": 5,
      "note": 9,
      "start": 10.8834,
      "duration": 0.1676,
      "velocity": 112,
      "chip": "ym2612"
    },
    {
      "channel": 4,
      "note": 58,
      "start": 11.0506,
      "duration": 0.1362,
      "velocity": 82,
      "chip": "ym2612"
    },
    {
      "channel": 5,
      "note": 58,
      "start": 11.0548,
      "duration": 0.1679,
      "velocity": 112,
      "chip": "ym2612"
    },
    {
      "channel": 4,
      "note": 60,
      "start": 11.2222,
      "duration": 0.1363,
      "velocity": 82,
      "chip": "ym2612"
    },
    {
      "channel": 5,
      "note": 33,
      "start": 11.2265,
      "duration": 0.1676,
      "velocity": 112,
      "chip": "ym2612"
    },
    {
      "channel": 4,
      "note": 58,
      "start": 11.3937,
      "duration": 0.3077,
      "velocity": 82,
      "chip": "ym2612"
    },
    {
      "channel": 5,
      "note": 33,
      "start": 11.3982,
      "duration": 0.0805,
      "velocity": 116,
      "chip": "ym2612"
    },
    {
      "channel": 5,
      "note": 68,
      "start": 11.4826,
      "duration": 0.0818,
      "velocity": 116,
      "chip": "ym2612"
    },
    {
      "channel": 5,
      "note": 68,
      "start": 11.5681,
      "duration": 0.1807,
      "velocity": 112,
      "chip": "ym2612"
    },
    {
      "channel": 0,
      "note": 62,
      "start": 11.74,
      "duration": 0.22,
      "velocity": 101,
      "chip": "ym2612"
    },
    {
      "channel": 3,
      "note": 77,
      "start": 11.7468,
      "duration": 0.144,
      "velocity": 108,
      "chip": "ym2612"
    },
    {
      "channel": 4,
      "note": 51,
      "start": 11.7484,
      "duration": 0.3133,
      "velocity": 82,
      "chip": "ym2612"
    },
    {
      "channel": 5,
      "note": 30,
      "start": 11.7529,
      "duration": 0.3448,
      "velocity": 127,
      "chip": "ym2612"
    },
    {
      "channel": 1,
      "note": 77,
      "start": 11.7877,
      "duration": 0.206,
      "velocity": 101,
      "chip": "ym2612"
    },
    {
      "channel": 3,
      "note": 73,
      "start": 11.9265,
      "duration": 0.1348,
      "velocity": 108,
      "chip": "ym2612"
    },
    {
      "channel": 0,
      "note": 77,
      "start": 11.9934,
      "duration": 0.1875,
      "velocity": 101,
      "chip": "ym2612"
    },
    {
      "channel": 1,
      "note": 77,
      "start": 12.0279,
      "duration": 0.1888,
      "velocity": 101,
      "chip": "ym2612"
    },
    {
      "channel": 3,
      "note": 75,
      "start": 12.0968,
      "duration": 0.1361,
      "velocity": 108,
      "chip": "ym2612"
    },
    {
      "channel": 5,
      "note": 88,
      "start": 12.1016,
      "duration": 0.1685,
      "velocity": 116,
      "chip": "ym2612"
    },
    {
      "channel": 0,
      "note": 75,
      "start": 12.2163,
      "duration": 2.0745,
      "velocity": 101,
      "chip": "ym2612"
    },
    {
      "channel": 1,
      "note": 75,
      "start": 12.251,
      "duration": 2.0758,
      "velocity": 101,
      "chip": "ym2612"
    },
    {
      "channel": 3,
      "note": 87,
      "start": 12.2683,
      "duration": 0.1361,
      "velocity": 108,
      "chip": "ym2612"
    },
    {
      "channel": 4,
      "note": 51,
      "start": 12.2697,
      "duration": 0.1351,
      "velocity": 82,
      "chip": "ym2612"
    },
    {
      "channel": 5,
      "note": 88,
      "start": 12.2739,
      "duration": 0.1669,
      "velocity": 112,
      "chip": "ym2612"
    },
    {
      "channel": 3,
      "note": 70,
      "start": 12.44,
      "duration": 0.136,
      "velocity": 108,
      "chip": "ym2612"
    },
    {
      "channel": 5,
      "note": 58,
      "start": 12.4447,
      "duration": 0.1685,
      "velocity": 114,
      "chip": "ym2612"
    },
    {
      "channel": 3,
      "note": 72,
      "start": 12.6114,
      "duration": 0.1361,
      "velocity": 108,
      "chip": "ym2612"
    },
    {
      "channel": 4,
      "note": 51,
      "start": 12.6128,
      "duration": 0.1352,
      "velocity": 82,
      "chip": "ym2612"
    },
    {
      "channel": 5,
      "note": 88,
      "start": 12.6171,
      "duration": 0.1677,
      "velocity": 112,
      "chip": "ym2612"
    },
    {
      "channel": 3,
      "note": 68,
      "start": 12.7829,
      "duration": 0.1361,
      "velocity": 108,
      "chip": "ym2612"
    },
    {
      "channel": 4,
      "note": 51,
      "start": 12.7844,
      "duration": 0.1351,
      "velocity": 82,
      "chip": "ym2612"
    },
    {
      "channel": 5,
      "note": 58,
      "start": 12.7886,
      "duration": 0.1676,
      "velocity": 116,
      "chip": "ym2612"
    },
    {
      "channel": 3,
      "note": 73,
      "start": 12.9545,
      "duration": 0.1382,
      "velocity": 108,
      "chip": "ym2612"
    },
    {
      "channel": 4,
      "note": 53,
      "start": 12.9559,
      "duration": 0.1372,
      "velocity": 82,
      "chip": "ym2612"
    },
    {
      "channel": 5,
      "note": 88,
      "start": 12.9601,
      "duration": 0.169,
      "velocity": 112,
      "chip": "ym2612"
    },
    {
      "channel": 3,
      "note": 70,
      "start": 13.1271,
      "duration": 0.1351,
      "velocity": 108,
      "chip": "ym2612"
    },
    {
      "channel": 4,
      "note": 49,
      "start": 13.1286,
      "duration": 0.3055,
      "velocity": 82,
      "chip": "ym2612"
    },
    {
      "channel": 5,
      "note": 58,
      "start": 13.133,
      "duration": 0.337,
      "velocity": 112,
      "chip": "ym2612"
    },
    {
      "channel": 3,
      "note": 68,
      "start": 13.2975,
      "duration": 0.1362,
      "velocity": 108,
      "chip": "ym2612"
    },
    {
      "channel": 3,
      "note": 72,
      "start": 13.4691,
      "duration": 0.1361,
      "velocity": 108,
      "chip": "ym2612"
    },
    {
      "channel": 5,
      "note": 51,
      "start": 13.4739,
      "duration": 0.1687,
      "velocity": 116,
      "chip": "ym2612"
    },
    {
      "channel": 3,
      "note": 75,
      "start": 13.6408,
      "duration": 0.136,
      "velocity": 108,
      "chip": "ym2612"
    },
    {
      "channel": 4,
      "note": 51,
      "start": 13.6422,
      "duration": 0.135,
      "velocity": 82,
      "chip": "ym2612"
    },
    {
      "channel": 5,
      "note": 88,
      "start": 13.6464,
      "duration": 0.1667,
      "velocity": 112,
      "chip": "ym2612"
    },
    {
      "channel": 3,
      "note": 70,
      "start": 13.8122,
      "duration": 0.1362,
      "velocity": 108,
      "chip": "ym2612"
    },
    {
      "channel": 5,
      "note": 58,
      "start": 13.817,
      "duration": 0.1685,
      "velocity": 114,
      "chip": "ym2612"
    },
    {
      "channel": 3,
      "note": 72,
      "start": 13.9837,
      "duration": 0.1365,
      "velocity": 108,
      "chip": "ym2612"
    },
    {
      "channel": 4,
      "note": 51,
      "start": 13.9851,
      "duration": 0.1354,
      "velocity": 82,
      "chip": "ym2612"
    },
    {
      "channel": 5,
      "note": 88,
      "start": 13.9893,
      "duration": 0.1685,
      "velocity": 112,
      "chip": "ym2612"
    },
    {
      "channel": 3,
      "note": 68,
      "start": 14.156,
      "duration": 0.3071,
      "velocity": 108,
      "chip": "ym2612"
    },
    {
      "channel": 4,
      "note": 54,
      "start": 14.1574,
      "duration": 0.1344,
      "velocity": 82,
      "chip": "ym2612"
    },
    {
      "channel": 5,
      "note": 58,
      "start": 14.1617,
      "duration": 0.1671,
      "velocity": 116,
      "chip": "ym2612"
    },
    {
      "channel": 0,
      "note": 70,
      "start": 14.3263,
      "duration": 0.0503,
      "velocity": 101,
      "chip": "ym2612"
    },
    {
      "channel": 4,
      "note": 56,
      "start": 14.3284,
      "duration": 0.135,
      "velocity": 82,
      "chip": "ym2612"
    },
    {
      "channel": 5,
      "note": 9,
      "start": 14.3326,
      "duration": 0.1695,
      "velocity": 112,
      "chip": "ym2612"
    },
    {
      "channel": 1,
      "note": 70,
      "start": 14.361,
      "duration": 0.0516,
      "velocity": 101,
      "chip": "ym2612"
    },
    {
      "channel": 0,
      "note": 72,
      "start": 14.4122,
      "duration": 0.0502,
      "velocity": 101,
      "chip": "ym2612"
    },
    {
      "channel": 1,
      "note": 72,
      "start": 14.4467,
      "duration": 0.0518,
      "velocity": 101,
      "chip": "ym2612"
    },
    {
      "channel": 0,
      "note": 73,
      "start": 14.4981,
      "duration": 0.2045,
      "velocity": 101,
      "chip": "ym2612"
    },
    {
      "channel": 3,
      "note": 80,
      "start": 14.5001,
      "duration": 0.1344,
      "velocity": 108,
      "chip": "ym2612"
    },
    {
      "channel": 4,
      "note": 49,
      "start": 14.5017,
      "duration": 0.3047,
      "velocity": 82,
      "chip": "ym2612"
    },
    {
      "channel": 5,
      "note": 58,
      "start": 14.5061,
      "duration": 0.3364,
      "velocity": 112,
      "chip": "ym2612"
    },
    {
      "channel": 1,
      "note": 73,
      "start": 14.5327,
      "duration": 0.2057,
      "velocity": 101,
      "chip": "ym2612"
    },
    {
      "channel": 3,
      "note": 73,
      "start": 14.6699,
      "duration": 0.1361,
      "velocity": 108,
      "chip": "ym2612"
    },
    {
      "channel": 0,
      "note": 75,
      "start": 14.738,
      "duration": 0.1875,
      "velocity": 101,
      "chip": "ym2612"
    },
    {
      "channel": 1,
      "note": 75,
      "start": 14.7727,
      "duration": 0.1888,
      "velocity": 101,
      "chip": "ym2612"
    },
    {
      "channel": 3,
      "note": 75,
      "start": 14.8415,
      "duration": 0.1361,
      "velocity": 108,
      "chip": "ym2612"
    },
    {
      "channel": 5,
      "note": 51,
      "start": 14.8463,
      "duration": 0.1686,
      "velocity": 116,
      "chip": "ym2612"
    },
    {
      "channel": 0,
      "note": 73,
      "start": 14.9611,
      "duration": 1.5599,
      "velocity": 101,
      "chip": "ym2612"
    },
    {
      "channel": 1,
      "note": 73,
      "start": 14.9956,
      "duration": 1.5612,
      "velocity": 101,
      "chip": "ym2612"
    },
    {
      "channel": 3,
      "note": 87,
      "start": 15.013,
      "duration": 0.1362,
      "velocity": 108,
      "chip": "ym2612"
    },
    {
      "channel": 4,
      "note": 51,
      "start": 15.0144,
      "duration": 0.1351,
      "velocity": 82,
      "chip": "ym2612"
    },
    {
      "channel": 5,
      "note": 88,
      "start": 15.0186,
      "duration": 0.1669,
      "velocity": 112,
      "chip": "ym2612"
    },
    {
      "channel": 3,
      "note": 70,
      "start": 15.1847,
      "duration": 0.1375,
      "velocity": 108,
      "chip": "ym2612"
    },
    {
      "channel": 5,
      "note": 58,
      "start": 15.1894,
      "duration": 0.1704,
      "velocity": 114,
      "chip": "ym2612"
    },
    {
      "channel": 3,
      "note": 72,
      "start": 15.358,
      "duration": 0.1343,
      "velocity": 108,
      "chip": "ym2612"
    },
    {
      "channel": 4,
      "note": 51,
      "start": 15.3594,
      "duration": 0.1333,
      "velocity": 82,
      "chip": "ym2612"
    },
    {
      "channel": 5,
      "note": 88,
      "start": 15.3636,
      "duration": 0.1658,
      "velocity": 112,
      "chip": "ym2612"
    },
    {
      "channel": 3,
      "note": 68,
      "start": 15.5276,
      "duration": 0.1362,
      "velocity": 108,
      "chip": "ym2612"
    },
    {
      "channel": 4,
      "note": 51,
      "start": 15.529,
      "duration": 0.1351,
      "velocity": 82,
      "chip": "ym2612"
    },
    {
      "channel": 5,
      "note": 58,
      "start": 15.5333,
      "duration": 0.1677,
      "velocity": 116,
      "chip": "ym2612"
    },
    {
      "channel": 3,
      "note": 73,
      "start": 15.6993,
      "duration": 0.1361,
      "velocity": 108,
      "chip": "ym2612"
    },
    {
      "channel": 4,
      "note": 53,
      "start": 15.7006,
      "duration": 0.1351,
      "velocity": 82,
      "chip": "ym2612"
    },
    {
      "channel": 5,
      "note": 88,
      "start": 15.7049,
      "duration": 0.1688,
      "velocity": 112,
      "chip": "ym2612"
    },
    {
      "channel": 3,
      "note": 70,
      "start": 15.8717,
      "duration": 0.1352,
      "velocity": 108,
      "chip": "ym2612"
    },
    {
      "channel": 4,
      "note": 49,
      "start": 15.8733,
      "duration": 0.3055,
      "velocity": 82,
      "chip": "ym2612"
    },
    {
      "channel": 5,
      "note": 58,
      "start": 15.8777,
      "duration": 0.337,
      "velocity": 112,
      "chip": "ym2612"
    },
    {
      "channel": 3,
      "note": 73,
      "start": 16.0422,
      "duration": 0.1362,
      "velocity": 108,
      "chip": "ym2612"
    },
    {
      "channel": 3,
      "note": 75,
      "start": 16.2138,
      "duration": 0.1361,
      "velocity": 108,
      "chip": "ym2612"
    },
    {
      "channel": 5,
      "note": 51,
      "start": 16.2186,
      "duration": 0.1686,
      "velocity": 116,
      "chip": "ym2612"
    },
    {
      "channel": 3,
      "note": 70,
      "start": 16.3854,
      "duration": 0.1362,
      "velocity": 108,
      "chip": "ym2612"
    },
    {
      "channel": 4,
      "note": 51,
      "start": 16.3868,
      "duration": 0.1352,
      "velocity": 82,
      "chip": "ym2612"
    },
    {
      "channel": 5,
      "note": 88,
      "start": 16.391,
      "duration": 0.1683,
      "velocity": 112,
      "chip": "ym2612"
    },
    {
      "channel": 0,
      "note": 68,
      "start": 16.5564,
      "duration": 0.3076,
      "velocity": 101,
      "chip": "ym2612"
    },
    {
      "channel": 3,
      "note": 72,
      "start": 16.5583,
      "duration": 0.1347,
      "velocity": 108,
      "chip": "ym2612"
    },
    {
      "channel": 5,
      "note": 58,
      "start": 16.5631,
      "duration": 0.1672,
      "velocity": 114,
      "chip": "ym2612"
    },
    {
      "channel": 1,
      "note": 68,
      "start": 16.591,
      "duration": 0.3088,
      "velocity": 101,
      "chip": "ym2612"
    },
    {
      "channel": 3,
      "note": 73,
      "start": 16.7284,
      "duration": 0.1363,
      "velocity": 108,
      "chip": "ym2612"
    },
    {
      "channel": 4,
      "note": 51,
      "start": 16.7299,
      "duration": 0.3066,
      "velocity": 82,
      "chip": "ym2612"
    },
    {
      "channel": 5,
      "note": 88,
      "start": 16.7342,
      "duration": 0.1679,
      "velocity": 112,
      "chip": "ym2612"
    },
    {
      "channel": 0,
      "note": 71,
      "start": 16.8995,
      "duration": 0.3076,
      "velocity": 101,
      "chip": "ym2612"
    },
    {
      "channel": 3,
      "note": 70,
      "start": 16.9013,
      "duration": 0.1348,
      "velocity": 108,
      "chip": "ym2612"
    },
    {
      "channel": 5,
      "note": 58,
      "start": 16.9059,
      "duration": 0.1674,
      "velocity": 116,
      "chip": "ym2612"
    },
    {
      "channel": 1,
      "note": 71,
      "start": 16.9341,
      "duration": 0.309,
      "velocity": 101,
      "chip": "ym2612"
    },
    {
      "channel": 3,
      "note": 89,
      "start": 17.0716,
      "duration": 0.1362,
      "velocity": 108,
      "chip": "ym2612"
    },
    {
      "channel": 4,
      "note": 56,
      "start": 17.073,
      "duration": 0.1351,
      "velocity": 82,
      "chip": "ym2612"
    },
    {
      "channel": 5,
      "note": 88,
      "start": 17.0772,
      "duration": 0.1695,
      "velocity": 112,
      "chip": "ym2612"
    },
    {
      "channel": 0,
      "note": 73,
      "start": 17.2428,
      "duration": 0.2045,
      "velocity": 101,
      "chip": "ym2612"
    },
    {
      "channel": 3,
      "note": 73,
      "start": 17.2448,
      "duration": 0.1344,
      "velocity": 108,
      "chip": "ym2612"
    },
    {
      "channel": 4,
      "note": 54,
      "start": 17.2463,
      "duration": 0.3055,
      "velocity": 82,
      "chip": "ym2612"
    },
    {
      "channel": 5,
      "note": 58,
      "start": 17.2508,
      "duration": 0.3373,
      "velocity": 112,
      "chip": "ym2612"
    },
    {
      "channel": 1,
      "note": 73,
      "start": 17.2774,
      "duration": 0.2058,
      "velocity": 101,
      "chip": "ym2612"
    },
    {
      "channel": 3,
      "note": 78,
      "start": 17.4146,
      "duration": 0.1368,
      "velocity": 108,
      "chip": "ym2612"
    },
    {
      "channel": 0,
      "note": 75,
      "start": 17.4828,
      "duration": 0.1875,
      "velocity": 101,
      "chip": "ym2612"
    },
    {
      "channel": 1,
      "note": 75,
      "start": 17.5175,
      "duration": 0.1886,
      "velocity": 101,
      "chip": "ym2612"
    },
    {
      "channel": 3,
      "note": 75,
      "start": 17.5872,
      "duration": 0.1351,
      "velocity": 108,
      "chip": "ym2612"
    },
    {
      "channel": 5,
      "note": 51,
      "start": 17.592,
      "duration": 0.1675,
      "velocity": 116,
      "chip": "ym2612"
    },
    {
      "channel": 0,
      "note": 71,
      "start": 17.7057,
      "duration": 1.5599,
      "velocity": 101,
      "chip": "ym2612"
    },
    {
      "channel": 1,
      "note": 71,
      "start": 17.7403,
      "duration": 1.5613,
      "velocity": 101,
      "chip": "ym2612"
    },
    {
      "channel": 3,
      "note": 76,
      "start": 17.7577,
      "duration": 0.1361,
      "velocity": 108,
      "chip": "ym2612"
    },
    {
      "channel": 4,
      "note": 54,
      "start": 17.7591,
      "duration": 0.1351,
      "velocity": 82,
      "chip": "ym2612"
    },
    {
      "channel": 5,
      "note": 9,
      "start": 17.7633,
      "duration": 0.167,
      "velocity": 112,
      "chip": "ym2612"
    },
    {
      "channel": 3,
      "note": 77,
      "start": 17.9294,
      "duration": 0.136,
      "velocity": 108,
      "chip": "ym2612"
    },
    {
      "channel": 5,
      "note": 58,
      "start": 17.9342,
      "duration": 0.1684,
      "velocity": 114,
      "chip": "ym2612"
    },
    {
      "channel": 3,
      "note": 78,
      "start": 18.1008,
      "duration": 0.1361,
      "velocity": 108,
      "chip": "ym2612"
    },
    {
      "channel": 4,
      "note": 54,
      "start": 18.1022,
      "duration": 0.135,
      "velocity": 82,
      "chip": "ym2612"
    },
    {
      "channel": 5,
      "note": 88,
      "start": 18.1064,
      "duration": 0.1677,
      "velocity": 112,
      "chip": "ym2612"
    },
    {
      "channel": 3,
      "note": 73,
      "start": 18.2723,
      "duration": 0.1361,
      "velocity": 108,
      "chip": "ym2612"
    },
    {
      "channel": 4,
      "note": 51,
      "start": 18.2737,
      "duration": 0.3067,
      "velocity": 82,
      "chip": "ym2612"
    },
    {
      "channel": 5,
      "note": 58,
      "start": 18.278,
      "duration": 0.1665,
      "velocity": 116,
      "chip": "ym2612"
    },
    {
      "channel": 3,
      "note": 76,
      "start": 18.4439,
      "duration": 0.1361,
      "velocity": 108,
      "chip": "ym2612"
    },
    {
      "channel": 5,
      "note": 88,
      "start": 18.4484,
      "duration": 0.17,
      "velocity": 112,
      "chip": "ym2612"
    },
    {
      "channel": 3,
      "note": 70,
      "start": 18.6165,
      "duration": 0.137,
      "velocity": 108,
      "chip": "ym2612"
    },
    {
      "channel": 4,
      "note": 53,
      "start": 18.6181,
      "duration": 0.3054,
      "velocity": 82,
      "chip": "ym2612"
    },
    {
      "channel": 5,
      "note": 58,
      "start": 18.6225,
      "duration": 0.337,
      "velocity": 112,
      "chip": "ym2612"
    },
    {
      "channel": 3,
      "note": 80,
      "start": 18.787,
      "duration": 0.1361,
      "velocity": 108,
      "chip": "ym2612"
    },
    {
      "channel": 3,
      "note": 76,
      "start": 18.9585,
      "duration": 0.1361,
      "velocity": 108,
      "chip": "ym2612"
    },
    {
      "channel": 5,
      "note": 52,
      "start": 18.9633,
      "duration": 0.1686,
      "velocity": 116,
      "chip": "ym2612"
    },
    {
      "channel": 3,
      "note": 78,
      "start": 19.13,
      "duration": 0.1363,
      "velocity": 108,
      "chip": "ym2612"
    },
    {
      "channel": 4,
      "note": 54,
      "start": 19.1315,
      "duration": 0.1352,
      "velocity": 82,
      "chip": "ym2612"
    },
    {
      "channel": 5,
      "note": 88,
      "start": 19.1357,
      "duration": 0.1683,
      "velocity": 112,
      "chip": "ym2612"
    },
    {
      "channel": 0,
      "note": 66,
      "start": 19.3012,
      "duration": 0.3076,
      "velocity": 101,
      "chip": "ym2612"
    },
    {
      "channel": 3,
      "note": 73,
      "start": 19.3031,
      "duration": 0.1347,
      "velocity": 108,
      "chip": "ym2612"
    },
    {
      "channel": 5,
      "note": 58,
      "start": 19.3078,
      "duration": 0.1672,
      "velocity": 114,
      "chip": "ym2612"
    },
    {
      "channel": 1,
      "note": 66,
      "start": 19.3357,
      "duration": 0.3089,
      "velocity": 101,
      "chip": "ym2612"
    },
    {
      "channel": 3,
      "note": 66,
      "start": 19.4732,
      "duration": 0.1362,
      "velocity": 108,
      "chip": "ym2612"
    },
    {
      "channel": 4,
      "note": 54,
      "start": 19.4746,
      "duration": 0.1352,
      "velocity": 82,
      "chip": "ym2612"
    },
    {
      "channel": 5,
      "note": 88,
      "start": 19.4788,
      "duration": 0.1692,
      "velocity": 112,
      "chip": "ym2612"
    },
    {
      "channel": 0,
      "note": 68,
      "start": 19.6442,
      "duration": 0.3076,
      "velocity": 101,
      "chip": "ym2612"
    },
    {
      "channel": 3,
      "note": 73,
      "start": 19.6461,
      "duration": 0.1349,
      "velocity": 108,
      "chip": "ym2612"
    },
    {
      "channel": 4,
      "note": 54,
      "start": 19.6475,
      "duration": 0.1339,
      "velocity": 82,
      "chip": "ym2612"
    },
    {
      "channel": 5,
      "note": 58,
      "start": 19.6518,
      "duration": 0.1667,
      "velocity": 116,
      "chip": "ym2612"
    },
    {
      "channel": 1,
      "note": 68,
      "start": 19.6788,
      "duration": 0.309,
      "velocity": 101,
      "chip": "ym2612"
    },
    {
      "channel": 3,
      "note": 76,
      "start": 19.8167,
      "duration": 0.1358,
      "velocity": 108,
      "chip": "ym2612"
    },
    {
      "channel": 4,
      "note": 56,
      "start": 19.8181,
      "duration": 0.1347,
      "velocity": 82,
      "chip": "ym2612"
    },
    {
      "channel": 5,
      "note": 88,
      "start": 19.8223,
      "duration": 0.173,
      "velocity": 112,
      "chip": "ym2612"
    },
    {
      "channel": 0,
      "note": 70,
      "start": 19.9875,
      "duration": 2.366,
      "velocity": 101,
      "chip": "ym2612"
    },
    {
      "channel": 3,
      "note": 70,
      "start": 19.9933,
      "duration": 0.6452,
      "velocity": 93,
      "chip": "ym2612"
    },
    {
      "channel": 4,
      "note": 53,
      "start": 19.9949,
      "duration": 0.4723,
      "velocity": 82,
      "chip": "ym2612"
    },
    {
      "channel": 5,
      "note": 58,
      "start": 19.9993,
      "duration": 0.331,
      "velocity": 112,
      "chip": "ym2612"
    },
    {
      "channel": 1,
      "note": 70,
      "start": 20.0221,
      "duration": 2.366,
      "velocity": 101,
      "chip": "ym2612"
    },
    {
      "channel": 5,
      "note": 51,
      "start": 20.3342,
      "duration": 0.1688,
      "velocity": 116,
      "chip": "ym2612"
    },
    {
      "channel": 4,
      "note": 53,
      "start": 20.5027,
      "duration": 0.3077,
      "velocity": 82,
      "chip": "ym2612"
    },
    {
      "channel": 5,
      "note": 88,
      "start": 20.5069,
      "duration": 0.1679,
      "velocity": 112,
      "chip": "ym2612"
    },
    {
      "channel": 3,
      "note": 80,
      "start": 20.6741,
      "duration": 0.6506,
      "velocity": 93,
      "chip": "ym2612"
    },
    {
      "channel": 5,
      "note": 58,
      "start": 20.6786,
      "duration": 0.1675,
      "velocity": 114,
      "chip": "ym2612"
    },
    {
      "channel": 4,
      "note": 60,
      "start": 20.8457,
      "duration": 0.1377,
      "velocity": 82,
      "chip": "ym2612"
    },
    {
      "channel": 5,
      "note": 88,
      "start": 20.85,
      "duration": 0.1697,
      "velocity": 112,
      "chip": "ym2612"
    },
    {
      "channel": 4,
      "note": 56,
      "start": 21.0193,
      "duration": 0.1342,
      "velocity": 82,
      "chip": "ym2612"
    },
    {
      "channel": 5,
      "note": 58,
      "start": 21.0235,
      "duration": 0.1656,
      "velocity": 116,
      "chip": "ym2612"
    },
    {
      "channel": 4,
      "note": 58,
      "start": 21.1888,
      "duration": 0.1363,
      "velocity": 82,
      "chip": "ym2612"
    },
    {
      "channel": 5,
      "note": 9,
      "start": 21.193,
      "duration": 0.1702,
      "velocity": 112,
      "chip": "ym2612"
    },
    {
      "channel": 3,
      "note": 77,
      "start": 21.3613,
      "duration": 0.6497,
      "velocity": 93,
      "chip": "ym2612"
    },
    {
      "channel": 4,
      "note": 51,
      "start": 21.3629,
      "duration": 0.4768,
      "velocity": 82,
      "chip": "ym2612"
    },
    {
      "channel": 5,
      "note": 58,
      "start": 21.3673,
      "duration": 0.1639,
      "velocity": 112,
      "chip": "ym2612"
    },
    {
      "channel": 5,
      "note": 58,
      "start": 21.5351,
      "duration": 0.3403,
      "velocity": 127,
      "chip": "ym2612"
    },
    {
      "channel": 4,
      "note": 53,
      "start": 21.875,
      "duration": 0.4793,
      "velocity": 82,
      "chip": "ym2612"
    },
    {
      "channel": 5,
      "note": 88,
      "start": 21.8792,
      "duration": 0.1682,
      "velocity": 112,
      "chip": "ym2612"
    },
    {
      "channel": 3,
      "note": 73,
      "start": 22.0467,
      "duration": 0.6504,
      "velocity": 93,
      "chip": "ym2612"
    },
    {
      "channel": 5,
      "note": 58,
      "start": 22.0513,
      "duration": 0.3388,
      "velocity": 112,
      "chip": "ym2612"
    },
    {
      "channel": 4,
      "note": 60,
      "start": 22.3897,
      "duration": 0.3078,
      "velocity": 82,
      "chip": "ym2612"
    },
    {
      "channel": 5,
      "note": 52,
      "start": 22.394,
      "duration": 0.0806,
      "velocity": 116,
      "chip": "ym2612"
    },
    {
      "channel": 5,
      "note": 68,
      "start": 22.4786,
      "duration": 0.0817,
      "velocity": 116,
      "chip": "ym2612"
    },
    {
      "channel": 5,
      "note": 68,
      "start": 22.5642,
      "duration": 0.172,
      "velocity": 112,
      "chip": "ym2612"
    },
    {
      "channel": 0,
      "note": 72,
      "start": 22.7323,
      "duration": 0.2044,
      "velocity": 101,
      "chip": "ym2612"
    },
    {
      "channel": 3,
      "note": 72,
      "start": 22.7342,
      "duration": 1.3352,
      "velocity": 93,
      "chip": "ym2612"
    },
    {
      "channel": 4,
      "note": 53,
      "start": 22.7358,
      "duration": 0.3047,
      "velocity": 82,
      "chip": "ym2612"
    },
    {
      "channel": 5,
      "note": 30,
      "start": 22.7402,
      "duration": 0.3351,
      "velocity": 127,
      "chip": "ym2612"
    },
    {
      "channel": 1,
      "note": 72,
      "start": 22.7668,
      "duration": 0.2058,
      "velocity": 101,
      "chip": "ym2612"
    },
    {
      "channel": 0,
      "note": 77,
      "start": 22.9722,
      "duration": 0.1877,
      "velocity": 101,
      "chip": "ym2612"
    },
    {
      "channel": 1,
      "note": 77,
      "start": 23.0068,
      "duration": 0.1893,
      "velocity": 101,
      "chip": "ym2612"
    },
    {
      "channel": 5,
      "note": 88,
      "start": 23.0791,
      "duration": 0.1698,
      "velocity": 116,
      "chip": "ym2612"
    },
    {
      "channel": 0,
      "note": 75,
      "start": 23.1957,
      "duration": 2.074,
      "velocity": 101,
      "chip": "ym2612"
    },
    {
      "channel": 1,
      "note": 75,
      "start": 23.2306,
      "duration": 2.0749,
      "velocity": 101,
      "chip": "ym2612"
    },
    {
      "channel": 4,
      "note": 51,
      "start": 23.2485,
      "duration": 0.135,
      "velocity": 82,
      "chip": "ym2612"
    },
    {
      "channel": 5,
      "note": 88,
      "start": 23.2528,
      "duration": 0.338,
      "velocity": 127,
      "chip": "ym2612"
    },
    {
      "channel": 4,
      "note": 51,
      "start": 23.5904,
      "duration": 0.1363,
      "velocity": 82,
      "chip": "ym2612"
    },
    {
      "channel": 5,
      "note": 88,
      "start": 23.5946,
      "duration": 0.1678,
      "velocity": 112,
      "chip": "ym2612"
    },
    {
      "channel": 4,
      "note": 51,
      "start": 23.762,
      "duration": 0.1363,
      "velocity": 82,
      "chip": "ym2612"
    },
    {
      "channel": 5,
      "note": 58,
      "start": 23.7662,
      "duration": 0.1676,
      "velocity": 116,
      "chip": "ym2612"
    },
    {
      "channel": 4,
      "note": 53,
      "start": 23.9335,
      "duration": 0.1363,
      "velocity": 82,
      "chip": "ym2612"
    },
    {
      "channel": 5,
      "note": 88,
      "start": 23.9377,
      "duration": 0.1739,
      "velocity": 112,
      "chip": "ym2612"
    },
    {
      "channel": 3,
      "note": 70,
      "start": 24.1096,
      "duration": 0.1314,
      "velocity": 108,
      "chip": "ym2612"
    },
    {
      "channel": 4,
      "note": 49,
      "start": 24.1111,
      "duration": 0.3033,
      "velocity": 82,
      "chip": "ym2612"
    },
    {
      "channel": 5,
      "note": 58,
      "start": 24.1156,
      "duration": 0.3352,
      "velocity": 112,
      "chip": "ym2612"
    },
    {
      "channel": 3,
      "note": 68,
      "start": 24.2764,
      "duration": 0.1376,
      "velocity": 108,
      "chip": "ym2612"
    },
    {
      "channel": 3,
      "note": 72,
      "start": 24.4499,
      "duration": 0.1341,
      "velocity": 108,
      "chip": "ym2612"
    },
    {
      "channel": 5,
      "note": 51,
      "start": 24.4546,
      "duration": 0.1667,
      "velocity": 116,
      "chip": "ym2612"
    },
    {
      "channel": 3,
      "note": 75,
      "start": 24.6196,
      "duration": 0.136,
      "velocity": 108,
      "chip": "ym2612"
    },
    {
      "channel": 4,
      "note": 51,
      "start": 24.621,
      "duration": 0.135,
      "velocity": 82,
      "chip": "ym2612"
    },
    {
      "channel": 5,
      "note": 9,
      "start": 24.6252,
      "duration": 0.1667,
      "velocity": 112,
      "chip": "ym2612"
    },
    {
      "channel": 3,
      "note": 70,
      "start": 24.791,
      "duration": 0.1361,
      "velocity": 108,
      "chip": "ym2612"
    },
    {
      "channel": 5,
      "note": 58,
      "start": 24.7958,
      "duration": 0.1686,
      "velocity": 114,
      "chip": "ym2612"
    },
    {
      "channel": 3,
      "note": 72,
      "start": 24.9626,
      "duration": 0.1361,
      "velocity": 108,
      "chip": "ym2612"
    },
    {
      "channel": 4,
      "note": 51,
      "start": 24.964,
      "duration": 0.135,
      "velocity": 82,
      "chip": "ym2612"
    },
    {
      "channel": 5,
      "note": 88,
      "start": 24.9683,
      "duration": 0.1678,
      "velocity": 112,
      "chip": "ym2612"
    },
    {
      "channel": 3,
      "note": 68,
      "start": 25.1342,
      "duration": 0.3077,
      "velocity": 108,
      "chip": "ym2612"
    },
    {
      "channel": 4,
      "note": 54,
      "start": 25.1356,
      "duration": 0.135,
      "velocity": 82,
      "chip": "ym2612"
    },
    {
      "channel": 5,
      "note": 58,
      "start": 25.1398,
      "duration": 0.1678,
      "velocity": 116,
      "chip": "ym2612"
    },
    {
      "channel": 0,
      "note": 70,
      "start": 25.3052,
      "duration": 0.0503,
      "velocity": 101,
      "chip": "ym2612"
    },
    {
      "channel": 4,
      "note": 56,
      "start": 25.3072,
      "duration": 0.1351,
      "velocity": 82,
      "chip": "ym2612"
    },
    {
      "channel": 5,
      "note": 88,
      "start": 25.3114,
      "duration": 0.1697,
      "velocity": 112,
      "chip": "ym2612"
    },
    {
      "channel": 1,
      "note": 70,
      "start": 25.3398,
      "duration": 0.0516,
      "velocity": 101,
      "chip": "ym2612"
    },
    {
      "channel": 0,
      "note": 72,
      "start": 25.391,
      "duration": 0.0502,
      "velocity": 101,
      "chip": "ym2612"
    },
    {
      "channel": 1,
      "note": 72,
      "start": 25.4255,
      "duration": 0.052,
      "velocity": 101,
      "chip": "ym2612"
    },
    {
      "channel": 0,
      "note": 73,
      "start": 25.4771,
      "duration": 0.2043,
      "velocity": 101,
      "chip": "ym2612"
    },
    {
      "channel": 3,
      "note": 80,
      "start": 25.4791,
      "duration": 0.1342,
      "velocity": 108,
      "chip": "ym2612"
    },
    {
      "channel": 4,
      "note": 49,
      "start": 25.4807,
      "duration": 0.3046,
      "velocity": 82,
      "chip": "ym2612"
    },
    {
      "channel": 5,
      "note": 58,
      "start": 25.4851,
      "duration": 0.3361,
      "velocity": 112,
      "chip": "ym2612"
    },
    {
      "channel": 1,
      "note": 73,
      "start": 25.5124,
      "duration": 0.2049,
      "velocity": 101,
      "chip": "ym2612"
    },
    {
      "channel": 3,
      "note": 73,
      "start": 25.6488,
      "duration": 0.1361,
      "velocity": 108,
      "chip": "ym2612"
    },
    {
      "channel": 0,
      "note": 75,
      "start": 25.7169,
      "duration": 0.1875,
      "velocity": 101,
      "chip": "ym2612"
    },
    {
      "channel": 1,
      "note": 75,
      "start": 25.7515,
      "duration": 0.1888,
      "velocity": 101,
      "chip": "ym2612"
    },
    {
      "channel": 3,
      "note": 75,
      "start": 25.8203,
      "duration": 0.1361,
      "velocity": 108,
      "chip": "ym2612"
    },
    {
      "channel": 5,
      "note": 52,
      "start": 25.8251,
      "duration": 0.1685,
      "velocity": 116,
      "chip": "ym2612"
    },
    {
      "channel": 0,
      "note": 73,
      "start": 25.9399,
      "duration": 1.5599,
      "velocity": 101,
      "chip": "ym2612"
    },
    {
      "channel": 1,
      "note": 73,
      "start": 25.9745,
      "duration": 1.5611,
      "velocity": 101,
      "chip": "ym2612"
    },
    {
      "channel": 3,
      "note": 87,
      "start": 25.9918,
      "duration": 0.1361,
      "velocity": 108,
      "chip": "ym2612"
    },
    {
      "channel": 4,
      "note": 51,
      "start": 25.9932,
      "duration": 0.1351,
      "velocity": 82,
      "chip": "ym2612"
    },
    {
      "channel": 5,
      "note": 88,
      "start": 25.9974,
      "duration": 0.167,
      "velocity": 112,
      "chip": "ym2612"
    },
    {
      "channel": 3,
      "note": 70,
      "start": 26.1635,
      "duration": 0.136,
      "velocity": 108,
      "chip": "ym2612"
    },
    {
      "channel": 5,
      "note": 58,
      "start": 26.1683,
      "duration": 0.1685,
      "velocity": 114,
      "chip": "ym2612"
    },
    {
      "channel": 3,
      "note": 72,
      "start": 26.3349,
      "duration": 0.1361,
      "velocity": 108,
      "chip": "ym2612"
    },
    {
      "channel": 4,
      "note": 51,
      "start": 26.3363,
      "duration": 0.1351,
      "velocity": 82,
      "chip": "ym2612"
    },
    {
      "channel": 5,
      "note": 88,
      "start": 26.3405,
      "duration": 0.1677,
      "velocity": 112,
      "chip": "ym2612"
    },
    {
      "channel": 3,
      "note": 68,
      "start": 26.5064,
      "duration": 0.1373,
      "velocity": 108,
      "chip": "ym2612"
    },
    {
      "channel": 4,
      "note": 51,
      "start": 26.5078,
      "duration": 0.1362,
      "velocity": 82,
      "chip": "ym2612"
    },
    {
      "channel": 5,
      "note": 58,
      "start": 26.5121,
      "duration": 0.1692,
      "velocity": 116,
      "chip": "ym2612"
    },
    {
      "channel": 3,
      "note": 73,
      "start": 26.6795,
      "duration": 0.1347,
      "velocity": 108,
      "chip": "ym2612"
    },
    {
      "channel": 4,
      "note": 53,
      "start": 26.6809,
      "duration": 0.1337,
      "velocity": 82,
      "chip": "ym2612"
    },
    {
      "channel": 5,
      "note": 88,
      "start": 26.6851,
      "duration": 0.1674,
      "velocity": 112,
      "chip": "ym2612"
    },
    {
      "channel": 3,
      "note": 70,
      "start": 26.8506,
      "duration": 0.1351,
      "velocity": 108,
      "chip": "ym2612"
    },
    {
      "channel": 4,
      "note": 49,
      "start": 26.8522,
      "duration": 0.3054,
      "velocity": 82,
      "chip": "ym2612"
    },
    {
      "channel": 5,
      "note": 58,
      "start": 26.8566,
      "duration": 0.337,
      "velocity": 112,
      "chip": "ym2612"
    },
    {
      "channel": 3,
      "note": 73,
      "start": 27.0211,
      "duration": 0.1362,
      "velocity": 108,
      "chip": "ym2612"
    },
    {
      "channel": 3,
      "note": 75,
      "start": 27.1926,
      "duration": 0.1361,
      "velocity": 108,
      "chip": "ym2612"
    },
    {
      "channel": 5,
      "note": 51,
      "start": 27.1974,
      "duration": 0.1686,
      "velocity": 116,
      "chip": "ym2612"
    },
    {
      "channel": 3,
      "note": 70,
      "start": 27.3642,
      "duration": 0.1362,
      "velocity": 108,
      "chip": "ym2612"
    },
    {
      "channel": 4,
      "note": 51,
      "start": 27.3656,
      "duration": 0.1351,
      "velocity": 82,
      "chip": "ym2612"
    },
    {
      "channel": 5,
      "note": 88,
      "start": 27.3699,
      "duration": 0.1682,
      "velocity": 112,
      "chip": "ym2612"
    },
    {
      "channel": 0,
      "note": 68,
      "start": 27.5352,
      "duration": 0.3095,
      "velocity": 101,
      "chip": "ym2612"
    },
    {
      "channel": 3,
      "note": 72,
      "start": 27.5372,
      "duration": 0.1347,
      "velocity": 108,
      "chip": "ym2612"
    },
    {
      "channel": 5,
      "note": 58,
      "start": 27.5419,
      "duration": 0.1672,
      "velocity": 114,
      "chip": "ym2612"
    },
    {
      "channel": 1,
      "note": 68,
      "start": 27.5699,
      "duration": 0.3089,
      "velocity": 101,
      "chip": "ym2612"
    },
    {
      "channel": 3,
      "note": 73,
      "start": 27.7073,
      "duration": 0.1382,
      "velocity": 108,
      "chip": "ym2612"
    },
    {
      "channel": 4,
      "note": 51,
      "start": 27.7087,
      "duration": 0.3067,
      "velocity": 82,
      "chip": "ym2612"
    },
    {
      "channel": 5,
      "note": 88,
      "start": 27.7129,
      "duration": 0.168,
      "velocity": 112,
      "chip": "ym2612"
    },
    {
      "channel": 0,
      "note": 71,
      "start": 27.8784,
      "duration": 0.3076,
      "velocity": 101,
      "chip": "ym2612"
    },
    {
      "channel": 3,
      "note": 70,
      "start": 27.8802,
      "duration": 0.1348,
      "velocity": 108,
      "chip": "ym2612"
    },
    {
      "channel": 5,
      "note": 58,
      "start": 27.8848,
      "duration": 0.1674,
      "velocity": 116,
      "chip": "ym2612"
    },
    {
      "channel": 1,
      "note": 71,
      "start": 27.9129,
      "duration": 0.309,
      "velocity": 101,
      "chip": "ym2612"
    },
    {
      "channel": 3,
      "note": 89,
      "start": 28.0504,
      "duration": 0.1362,
      "velocity": 108,
      "chip": "ym2612"
    },
    {
      "channel": 4,
      "note": 56,
      "start": 28.0518,
      "duration": 0.1352,
      "velocity": 82,
      "chip": "ym2612"
    },
    {
      "channel": 5,
      "note": 88,
      "start": 28.056,
      "duration": 0.1695,
      "velocity": 112,
      "chip": "ym2612"
    },
    {
      "channel": 0,
      "note": 73,
      "start": 28.2216,
      "duration": 0.2045,
      "velocity": 101,
      "chip": "ym2612"
    },
    {
      "channel": 3,
      "note": 73,
      "start": 28.2236,
      "duration": 0.1344,
      "velocity": 108,
      "chip": "ym2612"
    },
    {
      "channel": 4,
      "note": 54,
      "start": 28.2251,
      "duration": 0.3049,
      "velocity": 82,
      "chip": "ym2612"
    },
    {
      "channel": 5,
      "note": 58,
      "start": 28.2295,
      "duration": 0.3364,
      "velocity": 112,
      "chip": "ym2612"
    },
    {
      "channel": 1,
      "note": 73,
      "start": 28.2562,
      "duration": 0.2058,
      "velocity": 101,
      "chip": "ym2612"
    },
    {
      "channel": 3,
      "note": 78,
      "start": 28.3934,
      "duration": 0.1361,
      "velocity": 108,
      "chip": "ym2612"
    },
    {
      "channel": 0,
      "note": 75,
      "start": 28.4616,
      "duration": 0.1875,
      "velocity": 101,
      "chip": "ym2612"
    },
    {
      "channel": 1,
      "note": 75,
      "start": 28.4961,
      "duration": 0.1889,
      "velocity": 101,
      "chip": "ym2612"
    },
    {
      "channel": 3,
      "note": 75,
      "start": 28.565,
      "duration": 0.1361,
      "velocity": 108,
      "chip": "ym2612"
    },
    {
      "channel": 5,
      "note": 51,
      "start": 28.5698,
      "duration": 0.1685,
      "velocity": 116,
      "chip": "ym2612"
    },
    {
      "channel": 0,
      "note": 71,
      "start": 28.6846,
      "duration": 1.5599,
      "velocity": 101,
      "chip": "ym2612"
    },
    {
      "channel": 1,
      "note": 71,
      "start": 28.7192,
      "duration": 1.5612,
      "velocity": 101,
      "chip": "ym2612"
    },
    {
      "channel": 3,
      "note": 76,
      "start": 28.7365,
      "duration": 0.1366,
      "velocity": 108,
      "chip": "ym2612"
    },
    {
      "channel": 4,
      "note": 54,
      "start": 28.7379,
      "duration": 0.1356,
      "velocity": 82,
      "chip": "ym2612"
    },
    {
      "channel": 5,
      "note": 88,
      "start": 28.7421,
      "duration": 0.1678,
      "velocity": 112,
      "chip": "ym2612"
    },
    {
      "channel": 3,
      "note": 77,
      "start": 28.909,
      "duration": 0.1352,
      "velocity": 108,
      "chip": "ym2612"
    },
    {
      "channel": 5,
      "note": 58,
      "start": 28.9138,
      "duration": 0.1677,
      "velocity": 114,
      "chip": "ym2612"
    },
    {
      "channel": 3,
      "note": 78,
      "start": 29.0797,
      "duration": 0.1361,
      "velocity": 108,
      "chip": "ym2612"
    },
    {
      "channel": 4,
      "note": 54,
      "start": 29.081,
      "duration": 0.1351,
      "velocity": 82,
      "chip": "ym2612"
    },
    {
      "channel": 5,
      "note": 88,
      "start": 29.0853,
      "duration": 0.1676,
      "velocity": 112,
      "chip": "ym2612"
    },
    {
      "channel": 3,
      "note": 73,
      "start": 29.2512,
      "duration": 0.1361,
      "velocity": 108,
      "chip": "ym2612"
    },
    {
      "channel": 4,
      "note": 51,
      "start": 29.2526,
      "duration": 0.3067,
      "velocity": 82,
      "chip": "ym2612"
    },
    {
      "channel": 5,
      "note": 58,
      "start": 29.2568,
      "duration": 0.1666,
      "velocity": 116,
      "chip": "ym2612"
    },
    {
      "channel": 3,
      "note": 76,
      "start": 29.4227,
      "duration": 0.1361,
      "velocity": 108,
      "chip": "ym2612"
    },
    {
      "channel": 5,
      "note": 88,
      "start": 29.4272,
      "duration": 0.1701,
      "velocity": 112,
      "chip": "ym2612"
    },
    {
      "channel": 3,
      "note": 70,
      "start": 29.5953,
      "duration": 0.1351,
      "velocity": 108,
      "chip": "ym2612"
    },
    {
      "channel": 4,
      "note": 53,
      "start": 29.5968,
      "duration": 0.3055,
      "velocity": 82,
      "chip": "ym2612"
    },
    {
      "channel": 5,
      "note": 58,
      "start": 29.6013,
      "duration": 0.337,
      "velocity": 112,
      "chip": "ym2612"
    },
    {
      "channel": 3,
      "note": 80,
      "start": 29.7659,
      "duration": 0.1361,
      "velocity": 108,
      "chip": "ym2612"
    },
    {
      "channel": 3,
      "note": 76,
      "start": 29.9373,
      "duration": 0.1374,
      "velocity": 108,
      "chip": "ym2612"
    },
    {
      "channel": 5,
      "note": 51,
      "start": 29.9421,
      "duration": 0.1702,
      "velocity": 116,
      "chip": "ym2612"
    },
    {
      "channel": 3,
      "note": 78,
      "start": 30.1106,
      "duration": 0.1345,
      "velocity": 108,
      "chip": "ym2612"
    },
    {
      "channel": 4,
      "note": 54,
      "start": 30.112,
      "duration": 0.1335,
      "velocity": 82,
      "chip": "ym2612"
    },
    {
      "channel": 5,
      "note": 88,
      "start": 30.1162,
      "duration": 0.1665,
      "velocity": 112,
      "chip": "ym2612"
    },
    {
      "channel": 0,
      "note": 66,
      "start": 30.28,
      "duration": 0.3076,
      "velocity": 101,
      "chip": "ym2612"
    },
    {
      "channel": 3,
      "note": 73,
      "start": 30.2819,
      "duration": 0.1347,
      "velocity": 108,
      "chip": "ym2612"
    },
    {
      "channel": 5,
      "note": 58,
      "start": 30.2866,
      "duration": 0.1671,
      "velocity": 114,
      "chip": "ym2612"
    },
    {
      "channel": 1,
      "note": 66,
      "start": 30.3146,
      "duration": 0.3088,
      "velocity": 101,
      "chip": "ym2612"
    },
    {
      "channel": 3,
      "note": 66,
      "start": 30.452,
      "duration": 0.1362,
      "velocity": 108,
      "chip": "ym2612"
    },
    {
      "channel": 4,
      "note": 54,
      "start": 30.4534,
      "duration": 0.1352,
      "velocity": 82,
      "chip": "ym2612"
    },
    {
      "channel": 5,
      "note": 88,
      "start": 30.4576,
      "duration": 0.1692,
      "velocity": 112,
      "chip": "ym2612"
    },
    {
      "channel": 0,
      "note": 68,
      "start": 30.623,
      "duration": 0.3076,
      "velocity": 101,
      "chip": "ym2612"
    },
    {
      "channel": 3,
      "note": 73,
      "start": 30.6249,
      "duration": 0.1348,
      "velocity": 108,
      "chip": "ym2612"
    },
    {
      "channel": 4,
      "note": 54,
      "start": 30.6263,
      "duration": 0.1337,
      "velocity": 82,
      "chip": "ym2612"
    },
    {
      "channel": 5,
      "note": 58,
      "start": 30.6306,
      "duration": 0.1662,
      "velocity": 116,
      "chip": "ym2612"
    },
    {
      "channel": 1,
      "note": 68,
      "start": 30.6576,
      "duration": 0.309,
      "velocity": 101,
      "chip": "ym2612"
    },
    {
      "channel": 3,
      "note": 76,
      "start": 30.7951,
      "duration": 0.1363,
      "velocity": 108,
      "chip": "ym2612"
    },
    {
      "channel": 4,
      "note": 56,
      "start": 30.7964,
      "duration": 0.1352,
      "velocity": 82,
      "chip": "ym2612"
    },
    {
      "channel": 5,
      "note": 88,
      "start": 30.8007,
      "duration": 0.1734,
      "velocity": 112,
      "chip": "ym2612"
    },
    {
      "channel": 0,
      "note": 70,
      "start": 30.9663,
      "duration": 2.366,
      "velocity": 101,
      "chip": "ym2612"
    },
    {
      "channel": 3,
      "note": 70,
      "start": 30.9722,
      "duration": 0.6452,
      "velocity": 93,
      "chip": "ym2612"
    },
    {
      "channel": 4,
      "note": 53,
      "start": 30.9737,
      "duration": 0.4724,
      "velocity": 82,
      "chip": "ym2612"
    },
    {
      "channel": 5,
      "note": 58,
      "start": 30.9781,
      "duration": 0.331,
      "velocity": 112,
      "chip": "ym2612"
    },
    {
      "channel": 1,
      "note": 70,
      "start": 31.0009,
      "duration": 2.366,
      "velocity": 101,
      "chip": "ym2612"
    },
    {
      "channel": 5,
      "note": 52,
      "start": 31.313,
      "duration": 0.1689,
      "velocity": 116,
      "chip": "ym2612"
    },
    {
      "channel": 4,
      "note": 53,
      "start": 31.4815,
      "duration": 0.3077,
      "velocity": 82,
      "chip": "ym2612"
    },
    {
      "channel": 5,
      "note": 88,
      "start": 31.4858,
      "duration": 0.1678,
      "velocity": 112,
      "chip": "ym2612"
    },
    {
      "channel": 3,
      "note": 80,
      "start": 31.6529,
      "duration": 0.6519,
      "velocity": 93,
      "chip": "ym2612"
    },
    {
      "channel": 5,
      "note": 58,
      "start": 31.6575,
      "duration": 0.1675,
      "velocity": 114,
      "chip": "ym2612"
    },
    {
      "channel": 4,
      "note": 60,
      "start": 31.8246,
      "duration": 0.1362,
      "velocity": 82,
      "chip": "ym2612"
    },
    {
      "channel": 5,
      "note": 88,
      "start": 31.8288,
      "duration": 0.1678,
      "velocity": 112,
      "chip": "ym2612"
    },
    {
      "channel": 4,
      "note": 56,
      "start": 31.9961,
      "duration": 0.1361,
      "velocity": 82,
      "chip": "ym2612"
    },
    {
      "channel": 5,
      "note": 58,
      "start": 32.0005,
      "duration": 0.1676,
      "velocity": 116,
      "chip": "ym2612"
    },
    {
      "channel": 4,
      "note": 58,
      "start": 32.1676,
      "duration": 0.1376,
      "velocity": 82,
      "chip": "ym2612"
    },
    {
      "channel": 5,
      "note": 88,
      "start": 32.1718,
      "duration": 0.1717,
      "velocity": 112,
      "chip": "ym2612"
    },
    {
      "channel": 3,
      "note": 77,
      "start": 32.3415,
      "duration": 0.6482,
      "velocity": 93,
      "chip": "ym2612"
    },
    {
      "channel": 4,
      "note": 51,
      "start": 32.3431,
      "duration": 0.4753,
      "velocity": 82,
      "chip": "ym2612"
    },
    {
      "channel": 5,
      "note": 58,
      "start": 32.3475,
      "duration": 0.1625,
      "velocity": 112,
      "chip": "ym2612"
    },
    {
      "channel": 5,
      "note": 58,
      "start": 32.5137,
      "duration": 0.1678,
      "velocity": 112,
      "chip": "ym2612"
    },
    {
      "channel": 5,
      "note": 58,
      "start": 32.6854,
      "duration": 0.1688,
      "velocity": 116,
      "chip": "ym2612"
    },
    {
      "channel": 4,
      "note": 53,
      "start": 32.8538,
      "duration": 0.4794,
      "velocity": 82,
      "chip": "ym2612"
    },
    {
      "channel": 5,
      "note": 88,
      "start": 32.8581,
      "duration": 0.1679,
      "velocity": 112,
      "chip": "ym2612"
    },
    {
      "channel": 3,
      "note": 75,
      "start": 33.0253,
      "duration": 0.6506,
      "velocity": 93,
      "chip": "ym2612"
    },
    {
      "channel": 5,
      "note": 58,
      "start": 33.0298,
      "duration": 0.1663,
      "velocity": 114,
      "chip": "ym2612"
    },
    {
      "channel": 5,
      "note": 88,
      "start": 33.2,
      "duration": 0.082,
      "velocity": 116,
      "chip": "ym2612"
    },
    {
      "channel": 5,
      "note": 68,
      "start": 33.2858,
      "duration": 0.0831,
      "velocity": 116,
      "chip": "ym2612"
    },
    {
      "channel": 4,
      "note": 60,
      "start": 33.3685,
      "duration": 0.3078,
      "velocity": 82,
      "chip": "ym2612"
    },
    {
      "channel": 5,
      "note": 68,
      "start": 33.3728,
      "duration": 0.1664,
      "velocity": 116,
      "chip": "ym2612"
    },
    {
      "channel": 5,
      "note": 9,
      "start": 33.543,
      "duration": 0.1763,
      "velocity": 112,
      "chip": "ym2612"
    },
    {
      "channel": 0,
      "note": 72,
      "start": 33.7148,
      "duration": 0.4753,
      "velocity": 101,
      "chip": "ym2612"
    },
    {
      "channel": 3,
      "note": 72,
      "start": 33.7174,
      "duration": 1.331,
      "velocity": 93,
      "chip": "ym2612"
    },
    {
      "channel": 4,
      "note": 59,
      "start": 33.719,
      "duration": 0.1288,
      "velocity": 82,
      "chip": "ym2612"
    },
    {
      "channel": 5,
      "note": 58,
      "start": 33.7234,
      "duration": 0.3305,
      "velocity": 112,
      "chip": "ym2612"
    },
    {
      "channel": 1,
      "note": 72,
      "start": 33.7494,
      "duration": 0.4765,
      "velocity": 101,
      "chip": "ym2612"
    },
    {
      "channel": 4,
      "note": 56,
      "start": 33.8832,
      "duration": 0.3078,
      "velocity": 82,
      "chip": "ym2612"
    },
    {
      "channel": 5,
      "note": 51,
      "start": 34.0577,
      "duration": 0.1703,
      "velocity": 116,
      "chip": "ym2612"
    },
    {
      "channel": 0,
      "note": 83,
      "start": 34.2255,
      "duration": 0.4791,
      "velocity": 101,
      "chip": "ym2612"
    },
    {
      "channel": 4,
      "note": 56,
      "start": 34.2276,
      "duration": 0.1348,
      "velocity": 82,
      "chip": "ym2612"
    },
    {
      "channel": 5,
      "note": 88,
      "start": 34.2318,
      "duration": 0.1663,
      "velocity": 112,
      "chip": "ym2612"
    },
    {
      "channel": 1,
      "note": 83,
      "start": 34.2601,
      "duration": 0.4805,
      "velocity": 101,
      "chip": "ym2612"
    },
    {
      "channel": 4,
      "note": 56,
      "start": 34.3977,
      "duration": 0.1369,
      "velocity": 82,
      "chip": "ym2612"
    },
    {
      "channel": 5,
      "note": 58,
      "start": 34.402,
      "duration": 0.1688,
      "velocity": 114,
      "chip": "ym2612"
    },
    {
      "channel": 4,
      "note": 56,
      "start": 34.5704,
      "duration": 0.1351,
      "velocity": 82,
      "chip": "ym2612"
    },
    {
      "channel": 5,
      "note": 88,
      "start": 34.5746,
      "duration": 0.168,
      "velocity": 112,
      "chip": "ym2612"
    },
    {
      "channel": 0,
      "note": 80,
      "start": 34.7401,
      "duration": 0.3076,
      "velocity": 101,
      "chip": "ym2612"
    },
    {
      "channel": 4,
      "note": 56,
      "start": 34.7422,
      "duration": 0.1348,
      "velocity": 82,
      "chip": "ym2612"
    },
    {
      "channel": 5,
      "note": 58,
      "start": 34.7464,
      "duration": 0.1663,
      "velocity": 116,
      "chip": "ym2612"
    },
    {
      "channel": 1,
      "note": 80,
      "start": 34.7747,
      "duration": 0.3091,
      "velocity": 101,
      "chip": "ym2612"
    },
    {
      "channel": 4,
      "note": 56,
      "start": 34.9124,
      "duration": 0.1364,
      "velocity": 82,
      "chip": "ym2612"
    },
    {
      "channel": 5,
      "note": 88,
      "start": 34.9166,
      "duration": 0.1709,
      "velocity": 112,
      "chip": "ym2612"
    },
    {
      "channel": 0,
      "note": 75,
      "start": 35.0834,
      "duration": 0.6522,
      "velocity": 101,
      "chip": "ym2612"
    },
    {
      "channel": 3,
      "note": 83,
      "start": 35.0855,
      "duration": 0.6507,
      "velocity": 93,
      "chip": "ym2612"
    },
    {
      "channel": 4,
      "note": 56,
      "start": 35.0872,
      "duration": 0.1329,
      "velocity": 82,
      "chip": "ym2612"
    },
    {
      "channel": 5,
      "note": 58,
      "start": 35.0915,
      "duration": 0.3359,
      "velocity": 112,
      "chip": "ym2612"
    },
    {
      "channel": 1,
      "note": 75,
      "start": 35.118,
      "duration": 0.6536,
      "velocity": 101,
      "chip": "ym2612"
    },
    {
      "channel": 4,
      "note": 56,
      "start": 35.2555,
      "duration": 0.1361,
      "velocity": 82,
      "chip": "ym2612"
    },
    {
      "channel": 4,
      "note": 56,
      "start": 35.427,
      "duration": 0.1362,
      "velocity": 82,
      "chip": "ym2612"
    },
    {
      "channel": 5,
      "note": 51,
      "start": 35.4313,
      "duration": 0.1677,
      "velocity": 116,
      "chip": "ym2612"
    },
    {
      "channel": 4,
      "note": 56,
      "start": 35.5985,
      "duration": 0.138,
      "velocity": 82,
      "chip": "ym2612"
    },
    {
      "channel": 5,
      "note": 88,
      "start": 35.6028,
      "duration": 0.1721,
      "velocity": 112,
      "chip": "ym2612"
    },
    {
      "channel": 0,
      "note": 80,
      "start": 35.7712,
      "duration": 0.6488,
      "velocity": 101,
      "chip": "ym2612"
    },
    {
      "channel": 3,
      "note": 85,
      "start": 35.7731,
      "duration": 0.6476,
      "velocity": 93,
      "chip": "ym2612"
    },
    {
      "channel": 4,
      "note": 56,
      "start": 35.7746,
      "duration": 0.1317,
      "velocity": 82,
      "chip": "ym2612"
    },
    {
      "channel": 5,
      "note": 58,
      "start": 35.7788,
      "duration": 0.1632,
      "velocity": 114,
      "chip": "ym2612"
    },
    {
      "channel": 1,
      "note": 80,
      "start": 35.8039,
      "duration": 0.6522,
      "velocity": 101,
      "chip": "ym2612"
    },
    {
      "channel": 4,
      "note": 56,
      "start": 35.9416,
      "duration": 0.1362,
      "velocity": 82,
      "chip": "ym2612"
    },
    {
      "channel": 5,
      "note": 88,
      "start": 35.9459,
      "duration": 0.1677,
      "velocity": 112,
      "chip": "ym2612"
    },
    {
      "channel": 4,
      "note": 56,
      "start": 36.1132,
      "duration": 0.1361,
      "velocity": 82,
      "chip": "ym2612"
    },
    {
      "channel": 5,
      "note": 58,
      "start": 36.1174,
      "duration": 0.1677,
      "velocity": 116,
      "chip": "ym2612"
    },
    {
      "channel": 4,
      "note": 56,
      "start": 36.2847,
      "duration": 0.1363,
      "velocity": 82,
      "chip": "ym2612"
    },
    {
      "channel": 5,
      "note": 88,
      "start": 36.2889,
      "duration": 0.1709,
      "velocity": 112,
      "chip": "ym2612"
    },
    {
      "channel": 0,
      "note": 83,
      "start": 36.4557,
      "duration": 0.479,
      "velocity": 101,
      "chip": "ym2612"
    },
    {
      "channel": 3,
      "note": 83,
      "start": 36.4578,
      "duration": 1.3353,
      "velocity": 93,
      "chip": "ym2612"
    },
    {
      "channel": 4,
      "note": 56,
      "start": 36.4594,
      "duration": 0.133,
      "velocity": 82,
      "chip": "ym2612"
    },
    {
      "channel": 5,
      "note": 58,
      "start": 36.4638,
      "duration": 0.3365,
      "velocity": 112,
      "chip": "ym2612"
    },
    {
      "channel": 1,
      "note": 83,
      "start": 36.4903,
      "duration": 0.4803,
      "velocity": 101,
      "chip": "ym2612"
    },
    {
      "channel": 4,
      "note": 55,
      "start": 36.6277,
      "duration": 0.1363,
      "velocity": 82,
      "chip": "ym2612"
    },
    {
      "channel": 4,
      "note": 55,
      "start": 36.8,
      "duration": 0.1357,
      "velocity": 82,
      "chip": "ym2612"
    },
    {
      "channel": 5,
      "note": 51,
      "start": 36.8042,
      "duration": 0.1685,
      "velocity": 116,
      "chip": "ym2612"
    },
    {
      "channel": 0,
      "note": 86,
      "start": 36.9702,
      "duration": 0.4791,
      "velocity": 101,
      "chip": "ym2612"
    },
    {
      "channel": 4,
      "note": 55,
      "start": 36.9723,
      "duration": 0.1348,
      "velocity": 82,
      "chip": "ym2612"
    },
    {
      "channel": 5,
      "note": 9,
      "start": 36.9765,
      "duration": 0.1663,
      "velocity": 112,
      "chip": "ym2612"
    },
    {
      "channel": 1,
      "note": 86,
      "start": 37.0048,
      "duration": 0.4804,
      "velocity": 101,
      "chip": "ym2612"
    },
    {
      "channel": 4,
      "note": 55,
      "start": 37.1424,
      "duration": 0.1363,
      "velocity": 82,
      "chip": "ym2612"
    },
    {
      "channel": 5,
      "note": 58,
      "start": 37.1466,
      "duration": 0.1677,
      "velocity": 114,
      "chip": "ym2612"
    },
    {
      "channel": 4,
      "note": 55,
      "start": 37.3139,
      "duration": 0.1363,
      "velocity": 82,
      "chip": "ym2612"
    },
    {
      "channel": 5,
      "note": 88,
      "start": 37.3182,
      "duration": 0.169,
      "velocity": 112,
      "chip": "ym2612"
    },
    {
      "channel": 0,
      "note": 82,
      "start": 37.4848,
      "duration": 0.3076,
      "velocity": 101,
      "chip": "ym2612"
    },
    {
      "channel": 4,
      "note": 55,
      "start": 37.4868,
      "duration": 0.1349,
      "velocity": 82,
      "chip": "ym2612"
    },
    {
      "channel": 5,
      "note": 58,
      "start": 37.4911,
      "duration": 0.1663,
      "velocity": 116,
      "chip": "ym2612"
    },
    {
      "channel": 1,
      "note": 82,
      "start": 37.5194,
      "duration": 0.3091,
      "velocity": 101,
      "chip": "ym2612"
    },
    {
      "channel": 4,
      "note": 55,
      "start": 37.657,
      "duration": 0.1364,
      "velocity": 82,
      "chip": "ym2612"
    },
    {
      "channel": 5,
      "note": 88,
      "start": 37.6612,
      "duration": 0.171,
      "velocity": 112,
      "chip": "ym2612"
    },
    {
      "channel": 0,
      "note": 77,
      "start": 37.8281,
      "duration": 0.479,
      "velocity": 101,
      "chip": "ym2612"
    },
    {
      "channel": 3,
      "note": 82,
      "start": 37.8302,
      "duration": 1.3374,
      "velocity": 93,
      "chip": "ym2612"
    },
    {
      "channel": 4,
      "note": 55,
      "start": 37.8318,
      "duration": 0.1338,
      "velocity": 82,
      "chip": "ym2612"
    },
    {
      "channel": 5,
      "note": 58,
      "start": 37.8362,
      "duration": 0.3358,
      "velocity": 112,
      "chip": "ym2612"
    },
    {
      "channel": 1,
      "note": 77,
      "start": 37.8627,
      "duration": 0.4803,
      "velocity": 101,
      "chip": "ym2612"
    },
    {
      "channel": 4,
      "note": 54,
      "start": 38.0017,
      "duration": 0.1347,
      "velocity": 82,
      "chip": "ym2612"
    },
    {
      "channel": 4,
      "note": 54,
      "start": 38.1716,
      "duration": 0.1363,
      "velocity": 82,
      "chip": "ym2612"
    },
    {
      "channel": 5,
      "note": 52,
      "start": 38.1759,
      "duration": 0.1691,
      "velocity": 116,
      "chip": "ym2612"
    },
    {
      "channel": 0,
      "note": 81,
      "start": 38.3426,
      "duration": 0.4791,
      "velocity": 101,
      "chip": "ym2612"
    },
    {
      "channel": 4,
      "note": 54,
      "start": 38.3446,
      "duration": 0.1348,
      "velocity": 82,
      "chip": "ym2612"
    },
    {
      "channel": 5,
      "note": 88,
      "start": 38.3489,
      "duration": 0.1663,
      "velocity": 112,
      "chip": "ym2612"
    },
    {
      "channel": 1,
      "note": 81,
      "start": 38.3772,
      "duration": 0.4804,
      "velocity": 101,
      "chip": "ym2612"
    },
    {
      "channel": 4,
      "note": 54,
      "start": 38.5148,
      "duration": 0.1362,
      "velocity": 82,
      "chip": "ym2612"
    },
    {
      "channel": 5,
      "note": 58,
      "start": 38.5191,
      "duration": 0.1676,
      "velocity": 114,
      "chip": "ym2612"
    },
    {
      "channel": 4,
      "note": 54,
      "start": 38.6863,
      "duration": 0.1363,
      "velocity": 82,
      "chip": "ym2612"
    },
    {
      "channel": 5,
      "note": 88,
      "start": 38.6905,
      "duration": 0.1691,
      "velocity": 112,
      "chip": "ym2612"
    },
    {
      "channel": 0,
      "note": 83,
      "start": 38.8572,
      "duration": 0.3098,
      "velocity": 101,
      "chip": "ym2612"
    },
    {
      "channel": 4,
      "note": 54,
      "start": 38.8592,
      "duration": 0.1348,
      "velocity": 82,
      "chip": "ym2612"
    },
    {
      "channel": 5,
      "note": 58,
      "start": 38.8635,
      "duration": 0.1663,
      "velocity": 116,
      "chip": "ym2612"
    },
    {
      "channel": 1,
      "note": 83,
      "start": 38.8918,
      "duration": 0.3148,
      "velocity": 101,
      "chip": "ym2612"
    },
    {
      "channel": 4,
      "note": 54,
      "start": 39.0294,
      "duration": 0.1385,
      "velocity": 82,
      "chip": "ym2612"
    },
    {
      "channel": 5,
      "note": 88,
      "start": 39.0337,
      "duration": 0.1803,
      "velocity": 112,
      "chip": "ym2612"
    },
    {
      "channel": 0,
      "note": 85,
      "start": 39.2062,
      "duration": 0.1472,
      "velocity": 93,
      "chip": "ym2612"
    },
    {
      "channel": 3,
      "note": 81,
      "start": 39.212,
      "duration": 0.1421,
      "velocity": 93,
      "chip": "ym2612"
    },
    {
      "channel": 4,
      "note": 54,
      "start": 39.2136,
      "duration": 0.1409,
      "velocity": 82,
      "chip": "ym2612"
    },
    {
      "channel": 5,
      "note": 58,
      "start": 39.218,
      "duration": 0.3463,
      "velocity": 112,
      "chip": "ym2612"
    },
    {
      "channel": 1,
      "note": 85,
      "start": 39.2558,
      "duration": 0.1334,
      "velocity": 93,
      "chip": "ym2612"
    },
    {
      "channel": 0,
      "note": 68,
      "start": 39.3889,
      "duration": 0.1361,
      "velocity": 93,
      "chip": "ym2612"
    },
    {
      "channel": 3,
      "note": 73,
      "start": 39.3907,
      "duration": 0.1349,
      "velocity": 93,
      "chip": "ym2612"
    },
    {
      "channel": 4,
      "note": 53,
      "start": 39.3921,
      "duration": 0.1339,
      "velocity": 82,
      "chip": "ym2612"
    },
    {
      "channel": 1,
      "note": 68,
      "start": 39.4235,
      "duration": 0.1375,
      "velocity": 93,
      "chip": "ym2612"
    },
    {
      "channel": 0,
      "note": 70,
      "start": 39.5606,
      "duration": 0.136,
      "velocity": 93,
      "chip": "ym2612"
    },
    {
      "channel": 3,
      "note": 75,
      "start": 39.5625,
      "duration": 0.1347,
      "velocity": 93,
      "chip": "ym2612"
    },
    {
      "channel": 4,
      "note": 53,
      "start": 39.5639,
      "duration": 0.1337,
      "velocity": 82,
      "chip": "ym2612"
    },
    {
      "channel": 5,
      "note": 51,
      "start": 39.5682,
      "duration": 0.1675,
      "velocity": 116,
      "chip": "ym2612"
    },
    {
      "channel": 1,
      "note": 70,
      "start": 39.5951,
      "duration": 0.1373,
      "velocity": 93,
      "chip": "ym2612"
    },
    {
      "channel": 0,
      "note": 73,
      "start": 39.7321,
      "duration": 0.136,
      "velocity": 93,
      "chip": "ym2612"
    },
    {
      "channel": 3,
      "note": 78,
      "start": 39.7339,
      "duration": 0.1348,
      "velocity": 93,
      "chip": "ym2612"
    },
    {
      "channel": 4,
      "note": 53,
      "start": 39.7353,
      "duration": 0.1338,
      "velocity": 82,
      "chip": "ym2612"
    },
    {
      "channel": 5,
      "note": 88,
      "start": 39.7395,
      "duration": 0.168,
      "velocity": 112,
      "chip": "ym2612"
    },
    {
      "channel": 1,
      "note": 73,
      "start": 39.7666,
      "duration": 0.1375,
      "velocity": 93,
      "chip": "ym2612"
    },
    {
      "channel": 0,
      "note": 75,
      "start": 39.9036,
      "duration": 0.136,
      "velocity": 93,
      "chip": "ym2612"
    },
    {
      "channel": 3,
      "note": 80,
      "start": 39.9057,
      "duration": 0.1346,
      "velocity": 93,
      "chip": "ym2612"
    },
    {
      "channel": 4,
      "note": 53,
      "start": 39.9071,
      "duration": 0.1336,
      "velocity": 82,
      "chip": "ym2612"
    },
    {
      "channel": 5,
      "note": 58,
      "start": 39.9113,
      "duration": 0.1674,
      "velocity": 114,
      "chip": "ym2612"
    },
    {
      "channel": 1,
      "note": 75,
      "start": 39.9382,
      "duration": 0.1372,
      "velocity": 93,
      "chip": "ym2612"
    },
    {
      "channel": 0,
      "note": 80,
      "start": 40.0751,
      "duration": 0.1365,
      "velocity": 93,
      "chip": "ym2612"
    },
    {
      "channel": 3,
      "note": 85,
      "start": 40.077,
      "duration": 0.1352,
      "velocity": 93,
      "chip": "ym2612"
    },
    {
      "channel": 4,
      "note": 53,
      "start": 40.0784,
      "duration": 0.1341,
      "velocity": 82,
      "chip": "ym2612"
    },
    {
      "channel": 5,
      "note": 88,
      "start": 40.0826,
      "duration": 0.1685,
      "velocity": 112,
      "chip": "ym2612"
    },
    {
      "channel": 1,
      "note": 80,
      "start": 40.1097,
      "duration": 0.138,
      "velocity": 93,
      "chip": "ym2612"
    },
    {
      "channel": 0,
      "note": 82,
      "start": 40.2473,
      "duration": 0.1354,
      "velocity": 93,
      "chip": "ym2612"
    },
    {
      "channel": 3,
      "note": 87,
      "start": 40.2493,
      "duration": 0.134,
      "velocity": 93,
      "chip": "ym2612"
    },
    {
      "channel": 4,
      "note": 53,
      "start": 40.2507,
      "duration": 0.133,
      "velocity": 82,
      "chip": "ym2612"
    },
    {
      "channel": 5,
      "note": 58,
      "start": 40.255,
      "duration": 0.1668,
      "velocity": 116,
      "chip": "ym2612"
    },
    {
      "channel": 1,
      "note": 82,
      "start": 40.2824,
      "duration": 0.1361,
      "velocity": 93,
      "chip": "ym2612"
    },
    {
      "channel": 0,
      "note": 68,
      "start": 40.4181,
      "duration": 0.1361,
      "velocity": 93,
      "chip": "ym2612"
    },
    {
      "channel": 3,
      "note": 73,
      "start": 40.42,
      "duration": 0.1349,
      "velocity": 93,
      "chip": "ym2612"
    },
    {
      "channel": 4,
      "note": 53,
      "start": 40.4214,
      "duration": 0.1339,
      "velocity": 82,
      "chip": "ym2612"
    },
    {
      "channel": 5,
      "note": 9,
      "start": 40.4256,
      "duration": 0.1685,
      "velocity": 112,
      "chip": "ym2612"
    },
    {
      "channel": 1,
      "note": 68,
      "start": 40.4527,
      "duration": 0.1376,
      "velocity": 93,
      "chip": "ym2612"
    },
    {
      "channel": 0,
      "note": 70,
      "start": 40.59,
      "duration": 0.1359,
      "velocity": 93,
      "chip": "ym2612"
    },
    {
      "channel": 3,
      "note": 75,
      "start": 40.5921,
      "duration": 0.1344,
      "velocity": 93,
      "chip": "ym2612"
    },
    {
      "channel": 4,
      "note": 53,
      "start": 40.5937,
      "duration": 0.1332,
      "velocity": 82,
      "chip": "ym2612"
    },
    {
      "channel": 5,
      "note": 58,
      "start": 40.598,
      "duration": 0.3387,
      "velocity": 112,
      "chip": "ym2612"
    },
    {
      "channel": 1,
      "note": 70,
      "start": 40.6246,
      "duration": 0.1371,
      "velocity": 93,
      "chip": "ym2612"
    },
    {
      "channel": 0,
      "note": 73,
      "start": 40.7612,
      "duration": 0.1362,
      "velocity": 93,
      "chip": "ym2612"
    },
    {
      "channel": 3,
      "note": 78,
      "start": 40.7631,
      "duration": 0.1349,
      "velocity": 93,
      "chip": "ym2612"
    },
    {
      "channel": 4,
      "note": 53,
      "start": 40.7646,
      "duration": 0.1338,
      "velocity": 82,
      "chip": "ym2612"
    },
    {
      "channel": 1,
      "note": 73,
      "start": 40.7958,
      "duration": 0.1375,
      "velocity": 93,
      "chip": "ym2612"
    },
    {
      "channel": 0,
      "note": 75,
      "start": 40.9329,
      "duration": 0.136,
      "velocity": 93,
      "chip": "ym2612"
    },
    {
      "channel": 3,
      "note": 80,
      "start": 40.9349,
      "duration": 0.1346,
      "velocity": 93,
      "chip": "ym2612"
    },
    {
      "channel": 4,
      "note": 53,
      "start": 40.9363,
      "duration": 0.1336,
      "velocity": 82,
      "chip": "ym2612"
    },
    {
      "channel": 5,
      "note": 51,
      "start": 40.9406,
      "duration": 0.1674,
      "velocity": 116,
      "chip": "ym2612"
    },
    {
      "channel": 1,
      "note": 75,
      "start": 40.9675,
      "duration": 0.1372,
      "velocity": 93,
      "chip": "ym2612"
    },
    {
      "channel": 0,
      "note": 80,
      "start": 41.1043,
      "duration": 0.1361,
      "velocity": 93,
      "chip": "ym2612"
    },
    {
      "channel": 3,
      "note": 85,
      "start": 41.1062,
      "duration": 0.1349,
      "velocity": 93,
      "chip": "ym2612"
    },
    {
      "channel": 4,
      "note": 53,
      "start": 41.1076,
      "duration": 0.1338,
      "velocity": 82,
      "chip": "ym2612"
    },
    {
      "channel": 5,
      "note": 88,
      "start": 41.1119,
      "duration": 0.1651,
      "velocity": 127,
      "chip": "ym2612"
    },
    {
      "channel": 1,
      "note": 80,
      "start": 41.1389,
      "duration": 0.1361,
      "velocity": 93,
      "chip": "ym2612"
    },
    {
      "channel": 4,
      "note": 53,
      "start": 41.2767,
      "duration": 0.1372,
      "velocity": 82,
      "chip": "ym2612"
    },
    {
      "channel": 5,
      "note": 88,
      "start": 41.2809,
      "duration": 0.1718,
      "velocity": 112,
      "chip": "ym2612"
    },
    {
      "channel": 0,
      "note": 85,
      "start": 41.449,
      "duration": 0.4776,
      "velocity": 93,
      "chip": "ym2612"
    },
    {
      "channel": 3,
      "note": 90,
      "start": 41.4509,
      "duration": 0.4763,
      "velocity": 93,
      "chip": "ym2612"
    },
    {
      "channel": 4,
      "note": 53,
      "start": 41.4523,
      "duration": 0.1321,
      "velocity": 82,
      "chip": "ym2612"
    },
    {
      "channel": 5,
      "note": 58,
      "start": 41.4566,
      "duration": 0.3351,
      "velocity": 127,
      "chip": "ym2612"
    },
    {
      "channel": 1,
      "note": 85,
      "start": 41.4821,
      "duration": 0.4845,
      "velocity": 93,
      "chip": "ym2612"
    },
    {
      "channel": 4,
      "note": 53,
      "start": 41.6197,
      "duration": 0.1362,
      "velocity": 82,
      "chip": "ym2612"
    },
    {
      "channel": 4,
      "note": 53,
      "start": 41.7912,
      "duration": 0.1364,
      "velocity": 82,
      "chip": "ym2612"
    },
    {
      "channel": 5,
      "note": 88,
      "start": 41.7955,
      "duration": 0.1737,
      "velocity": 116,
      "chip": "ym2612"
    },
    {
      "channel": 0,
      "note": 87,
      "start": 41.9662,
      "duration": 0.4751,
      "velocity": 101,
      "chip": "ym2612"
    },
    {
      "channel": 4,
      "note": 53,
      "start": 41.9687,
      "duration": 0.1303,
      "velocity": 82,
      "chip": "ym2612"
    },
    {
      "channel": 5,
      "note": 88,
      "start": 41.9731,
      "duration": 0.3331,
      "velocity": 112,
      "chip": "ym2612"
    },
    {
      "channel": 1,
      "note": 87,
      "start": 42.0008,
      "duration": 0.4765,
      "velocity": 101,
      "chip": "ym2612"
    },
    {
      "channel": 4,
      "note": 52,
      "start": 42.1344,
      "duration": 0.1362,
      "velocity": 82,
      "chip": "ym2612"
    },
    {
      "channel": 4,
      "note": 52,
      "start": 42.3059,
      "duration": 0.1363,
      "velocity": 82,
      "chip": "ym2612"
    },
    {
      "channel": 5,
      "note": 51,
      "start": 42.3101,
      "duration": 0.1692,
      "velocity": 116,
      "chip": "ym2612"
    },
    {
      "channel": 0,
      "note": 90,
      "start": 42.4768,
      "duration": 0.4791,
      "velocity": 101,
      "chip": "ym2612"
    },
    {
      "channel": 4,
      "note": 52,
      "start": 42.4789,
      "duration": 0.1347,
      "velocity": 82,
      "chip": "ym2612"
    },
    {
      "channel": 5,
      "note": 88,
      "start": 42.4832,
      "duration": 0.1663,
      "velocity": 112,
      "chip": "ym2612"
    },
    {
      "channel": 1,
      "note": 90,
      "start": 42.5118,
      "duration": 0.48,
      "velocity": 101,
      "chip": "ym2612"
    },
    {
      "channel": 4,
      "note": 52,
      "start": 42.649,
      "duration": 0.1362,
      "velocity": 82,
      "chip": "ym2612"
    },
    {
      "channel": 5,
      "note": 58,
      "start": 42.6532,
      "duration": 0.1676,
      "velocity": 114,
      "chip": "ym2612"
    },
    {
      "channel": 4,
      "note": 52,
      "start": 42.8205,
      "duration": 0.1363,
      "velocity": 82,
      "chip": "ym2612"
    },
    {
      "channel": 5,
      "note": 88,
      "start": 42.8247,
      "duration": 0.1691,
      "velocity": 112,
      "chip": "ym2612"
    },
    {
      "channel": 0,
      "note": 88,
      "start": 42.9914,
      "duration": 0.3076,
      "velocity": 101,
      "chip": "ym2612"
    },
    {
      "channel": 4,
      "note": 52,
      "start": 42.9934,
      "duration": 0.1348,
      "velocity": 82,
      "chip": "ym2612"
    },
    {
      "channel": 5,
      "note": 58,
      "start": 42.9977,
      "duration": 0.1663,
      "velocity": 116,
      "chip": "ym2612"
    },
    {
      "channel": 1,
      "note": 88,
      "start": 43.026,
      "duration": 0.3091,
      "velocity": 101,
      "chip": "ym2612"
    },
    {
      "channel": 4,
      "note": 52,
      "start": 43.1636,
      "duration": 0.1363,
      "velocity": 82,
      "chip": "ym2612"
    },
    {
      "channel": 5,
      "note": 88,
      "start": 43.1679,
      "duration": 0.1735,
      "velocity": 112,
      "chip": "ym2612"
    },
    {
      "channel": 0,
      "note": 85,
      "start": 43.3347,
      "duration": 1.3366,
      "velocity": 101,
      "chip": "ym2612"
    },
    {
      "channel": 4,
      "note": 52,
      "start": 43.341,
      "duration": 0.1304,
      "velocity": 82,
      "chip": "ym2612"
    },
    {
      "channel": 5,
      "note": 58,
      "start": 43.3454,
      "duration": 0.3333,
      "velocity": 112,
      "chip": "ym2612"
    },
    {
      "channel": 1,
      "note": 85,
      "start": 43.3693,
      "duration": 1.3417,
      "velocity": 101,
      "chip": "ym2612"
    },
    {
      "channel": 4,
      "note": 51,
      "start": 43.5067,
      "duration": 0.3078,
      "velocity": 82,
      "chip": "ym2612"
    },
    {
      "channel": 5,
      "note": 51,
      "start": 43.6826,
      "duration": 0.169,
      "velocity": 116,
      "chip": "ym2612"
    },
    {
      "channel": 3,
      "note": 92,
      "start": 43.8497,
      "duration": 0.3076,
      "velocity": 97,
      "chip": "ym2612"
    },
    {
      "channel": 4,
      "note": 63,
      "start": 43.8511,
      "duration": 0.3066,
      "velocity": 82,
      "chip": "ym2612"
    },
    {
      "channel": 5,
      "note": 9,
      "start": 43.8554,
      "duration": 0.1652,
      "velocity": 112,
      "chip": "ym2612"
    },
    {
      "channel": 5,
      "note": 58,
      "start": 44.0244,
      "duration": 0.17,
      "velocity": 114,
      "chip": "ym2612"
    },
    {
      "channel": 3,
      "note": 82,
      "start": 44.1927,
      "duration": 0.1361,
      "velocity": 97,
      "chip": "ym2612"
    },
    {
      "channel": 4,
      "note": 58,
      "start": 44.1941,
      "duration": 0.3066,
      "velocity": 82,
      "chip": "ym2612"
    },
    {
      "channel": 5,
      "note": 88,
      "start": 44.1983,
      "duration": 0.1666,
      "velocity": 112,
      "chip": "ym2612"
    },
    {
      "channel": 3,
      "note": 82,
      "start": 44.3643,
      "duration": 0.1361,
      "velocity": 97,
      "chip": "ym2612"
    },
    {
      "channel": 5,
      "note": 58,
      "start": 44.3688,
      "duration": 0.1687,
      "velocity": 116,
      "chip": "ym2612"
    },
    {
      "channel": 3,
      "note": 80,
      "start": 44.5358,
      "duration": 0.1362,
      "velocity": 97,
      "chip": "ym2612"
    },
    {
      "channel": 4,
      "note": 54,
      "start": 44.5372,
      "duration": 0.1352,
      "velocity": 82,
      "chip": "ym2612"
    },
    {
      "channel": 5,
      "note": 88,
      "start": 44.5414,
      "duration": 0.0796,
      "velocity": 112,
      "chip": "ym2612"
    },
    {
      "channel": 5,
      "note": 60,
      "start": 44.6248,
      "duration": 0.0934,
      "velocity": 116,
      "chip": "ym2612"
    },
    {
      "channel": 0,
      "note": 87,
      "start": 44.7105,
      "duration": 0.152,
      "velocity": 100,
      "chip": "ym2612"
    },
    {
      "channel": 3,
      "note": 78,
      "start": 44.7163,
      "duration": 0.1468,
      "velocity": 100,
      "chip": "ym2612"
    },
    {
      "channel": 4,
      "note": 51,
      "start": 44.7179,
      "duration": 0.1456,
      "velocity": 82,
      "chip": "ym2612"
    },
    {
      "channel": 5,
      "note": 68,
      "start": 44.7223,
      "duration": 0.1768,
      "velocity": 114,
      "chip": "ym2612"
    },
    {
      "channel": 1,
      "note": 87,
      "start": 44.7626,
      "duration": 0.1333,
      "velocity": 100,
      "chip": "ym2612"
    },
    {
      "channel": 0,
      "note": 75,
      "start": 44.8955,
      "duration": 0.6507,
      "velocity": 100,
      "chip": "ym2612"
    },
    {
      "channel": 3,
      "note": 80,
      "start": 44.8973,
      "duration": 0.6495,
      "velocity": 100,
      "chip": "ym2612"
    },
    {
      "channel": 4,
      "note": 52,
      "start": 44.8988,
      "duration": 0.1336,
      "velocity": 82,
      "chip": "ym2612"
    },
    {
      "channel": 5,
      "note": 88,
      "start": 44.903,
      "duration": 0.1651,
      "velocity": 112,
      "chip": "ym2612"
    },
    {
      "channel": 1,
      "note": 75,
      "start": 44.9301,
      "duration": 0.652,
      "velocity": 100,
      "chip": "ym2612"
    },
    {
      "channel": 4,
      "note": 52,
      "start": 45.0677,
      "duration": 0.1363,
      "velocity": 82,
      "chip": "ym2612"
    },
    {
      "channel": 5,
      "note": 58,
      "start": 45.072,
      "duration": 0.1677,
      "velocity": 116,
      "chip": "ym2612"
    },
    {
      "channel": 4,
      "note": 52,
      "start": 45.2393,
      "duration": 0.1362,
      "velocity": 82,
      "chip": "ym2612"
    },
    {
      "channel": 5,
      "note": 88,
      "start": 45.2434,
      "duration": 0.1678,
      "velocity": 112,
      "chip": "ym2612"
    },
    {
      "channel": 4,
      "note": 52,
      "start": 45.4108,
      "duration": 0.1364,
      "velocity": 82,
      "chip": "ym2612"
    },
    {
      "channel": 5,
      "note": 58,
      "start": 45.4151,
      "duration": 0.1703,
      "velocity": 114,
      "chip": "ym2612"
    },
    {
      "channel": 0,
      "note": 83,
      "start": 45.5817,
      "duration": 0.0503,
      "velocity": 100,
      "chip": "ym2612"
    },
    {
      "channel": 3,
      "note": 88,
      "start": 45.5836,
      "duration": 0.049,
      "velocity": 100,
      "chip": "ym2612"
    },
    {
      "channel": 4,
      "note": 52,
      "start": 45.585,
      "duration": 0.1338,
      "velocity": 82,
      "chip": "ym2612"
    },
    {
      "channel": 5,
      "note": 88,
      "start": 45.5892,
      "duration": 0.1677,
      "velocity": 112,
      "chip": "ym2612"
    },
    {
      "channel": 1,
      "note": 83,
      "start": 45.6162,
      "duration": 0.0516,
      "velocity": 100,
      "chip": "ym2612"
    },
    {
      "channel": 0,
      "note": 85,
      "start": 45.6674,
      "duration": 0.0503,
      "velocity": 100,
      "chip": "ym2612"
    },
    {
      "channel": 3,
      "note": 90,
      "start": 45.6693,
      "duration": 0.049,
      "velocity": 100,
      "chip": "ym2612"
    },
    {
      "channel": 1,
      "note": 85,
      "start": 45.702,
      "duration": 0.0516,
      "velocity": 100,
      "chip": "ym2612"
    },
    {
      "channel": 0,
      "note": 87,
      "start": 45.7532,
      "duration": 0.0503,
      "velocity": 100,
      "chip": "ym2612"
    },
    {
      "channel": 3,
      "note": 92,
      "start": 45.7551,
      "duration": 0.049,
      "velocity": 100,
      "chip": "ym2612"
    },
    {
      "channel": 4,
      "note": 52,
      "start": 45.7565,
      "duration": 0.1342,
      "velocity": 82,
      "chip": "ym2612"
    },
    {
      "channel": 5,
      "note": 58,
      "start": 45.7607,
      "duration": 0.1683,
      "velocity": 116,
      "chip": "ym2612"
    },
    {
      "channel": 1,
      "note": 87,
      "start": 45.7878,
      "duration": 0.0516,
      "velocity": 100,
      "chip": "ym2612"
    },
    {
      "channel": 0,
      "note": 85,
      "start": 45.839,
      "duration": 0.0506,
      "velocity": 100,
      "chip": "ym2612"
    },
    {
      "channel": 3,
      "note": 90,
      "start": 45.8408,
      "duration": 0.0494,
      "velocity": 100,
      "chip": "ym2612"
    },
    {
      "channel": 1,
      "note": 85,
      "start": 45.8735,
      "duration": 0.0523,
      "velocity": 100,
      "chip": "ym2612"
    },
    {
      "channel": 0,
      "note": 83,
      "start": 45.9254,
      "duration": 0.0513,
      "velocity": 100,
      "chip": "ym2612"
    },
    {
      "channel": 3,
      "note": 88,
      "start": 45.9273,
      "duration": 0.0501,
      "velocity": 100,
      "chip": "ym2612"
    },
    {
      "channel": 4,
      "note": 52,
      "start": 45.9287,
      "duration": 0.1331,
      "velocity": 82,
      "chip": "ym2612"
    },
    {
      "channel": 5,
      "note": 88,
      "start": 45.9329,
      "duration": 0.1676,
      "velocity": 112,
      "chip": "ym2612"
    },
    {
      "channel": 1,
      "note": 83,
      "start": 45.9606,
      "duration": 0.0524,
      "velocity": 100,
      "chip": "ym2612"
    },
    {
      "channel": 0,
      "note": 82,
      "start": 46.0126,
      "duration": 0.0482,
      "velocity": 100,
      "chip": "ym2612"
    },
    {
      "channel": 3,
      "note": 87,
      "start": 46.0144,
      "duration": 0.047,
      "velocity": 100,
      "chip": "ym2612"
    },
    {
      "channel": 1,
      "note": 82,
      "start": 46.0451,
      "duration": 0.0517,
      "velocity": 100,
      "chip": "ym2612"
    },
    {
      "channel": 0,
      "note": 80,
      "start": 46.0964,
      "duration": 0.0502,
      "velocity": 100,
      "chip": "ym2612"
    },
    {
      "channel": 3,
      "note": 85,
      "start": 46.0985,
      "duration": 0.0487,
      "velocity": 100,
      "chip": "ym2612"
    },
    {
      "channel": 4,
      "note": 52,
      "start": 46.1001,
      "duration": 0.1333,
      "velocity": 82,
      "chip": "ym2612"
    },
    {
      "channel": 5,
      "note": 58,
      "start": 46.1045,
      "duration": 0.3385,
      "velocity": 112,
      "chip": "ym2612"
    },
    {
      "channel": 1,
      "note": 80,
      "start": 46.131,
      "duration": 0.0515,
      "velocity": 100,
      "chip": "ym2612"
    },
    {
      "channel": 0,
      "note": 83,
      "start": 46.1821,
      "duration": 0.0502,
      "velocity": 100,
      "chip": "ym2612"
    },
    {
      "channel": 3,
      "note": 88,
      "start": 46.184,
      "duration": 0.049,
      "velocity": 100,
      "chip": "ym2612"
    },
    {
      "channel": 1,
      "note": 83,
      "start": 46.2167,
      "duration": 0.0515,
      "velocity": 100,
      "chip": "ym2612"
    },
    {
      "channel": 0,
      "note": 80,
      "start": 46.2678,
      "duration": 0.1361,
      "velocity": 100,
      "chip": "ym2612"
    },
    {
      "channel": 3,
      "note": 85,
      "start": 46.2697,
      "duration": 0.1349,
      "velocity": 100,
      "chip": "ym2612"
    },
    {
      "channel": 4,
      "note": 52,
      "start": 46.2711,
      "duration": 0.1338,
      "velocity": 82,
      "chip": "ym2612"
    },
    {
      "channel": 1,
      "note": 80,
      "start": 46.3024,
      "duration": 0.1373,
      "velocity": 100,
      "chip": "ym2612"
    },
    {
      "channel": 0,
      "note": 83,
      "start": 46.4394,
      "duration": 0.9938,
      "velocity": 100,
      "chip": "ym2612"
    },
    {
      "channel": 3,
      "note": 88,
      "start": 46.4412,
      "duration": 0.9926,
      "velocity": 100,
      "chip": "ym2612"
    },
    {
      "channel": 4,
      "note": 52,
      "start": 46.4426,
      "duration": 0.1337,
      "velocity": 82,
      "chip": "ym2612"
    },
    {
      "channel": 5,
      "note": 51,
      "start": 46.4469,
      "duration": 0.1651,
      "velocity": 116,
      "chip": "ym2612"
    },
    {
      "channel": 1,
      "note": 83,
      "start": 46.474,
      "duration": 0.9952,
      "velocity": 100,
      "chip": "ym2612"
    },
    {
      "channel": 4,
      "note": 52,
      "start": 46.6117,
      "duration": 0.1363,
      "velocity": 82,
      "chip": "ym2612"
    },
    {
      "channel": 5,
      "note": 88,
      "start": 46.6159,
      "duration": 0.1677,
      "velocity": 112,
      "chip": "ym2612"
    },
    {
      "channel": 4,
      "note": 52,
      "start": 46.7832,
      "duration": 0.1362,
      "velocity": 82,
      "chip": "ym2612"
    },
    {
      "channel": 5,
      "note": 58,
      "start": 46.7875,
      "duration": 0.1676,
      "velocity": 114,
      "chip": "ym2612"
    },
    {
      "channel": 4,
      "note": 52,
      "start": 46.9547,
      "duration": 0.138,
      "velocity": 82,
      "chip": "ym2612"
    },
    {
      "channel": 5,
      "note": 88,
      "start": 46.9589,
      "duration": 0.17,
      "velocity": 112,
      "chip": "ym2612"
    },
    {
      "channel": 4,
      "note": 52,
      "start": 47.1286,
      "duration": 0.1339,
      "velocity": 82,
      "chip": "ym2612"
    },
    {
      "channel": 5,
      "note": 58,
      "start": 47.1329,
      "duration": 0.1653,
      "velocity": 116,
      "chip": "ym2612"
    },
    {
      "channel": 4,
      "note": 52,
      "start": 47.2978,
      "duration": 0.1365,
      "velocity": 82,
      "chip": "ym2612"
    },
    {
      "channel": 5,
      "note": 9,
      "start": 47.302,
      "duration": 0.1708,
      "velocity": 112,
      "chip": "ym2612"
    },
    {
      "channel": 0,
      "note": 85,
      "start": 47.4688,
      "duration": 0.136,
      "velocity": 100,
      "chip": "ym2612"
    },
    {
      "channel": 3,
      "note": 90,
      "start": 47.4708,
      "duration": 0.1346,
      "velocity": 100,
      "chip": "ym2612"
    },
    {
      "channel": 4,
      "note": 52,
      "start": 47.4724,
      "duration": 0.1333,
      "velocity": 82,
      "chip": "ym2612"
    },
    {
      "channel": 5,
      "note": 58,
      "start": 47.4768,
      "duration": 0.3387,
      "velocity": 112,
      "chip": "ym2612"
    },
    {
      "channel": 1,
      "note": 85,
      "start": 47.5034,
      "duration": 0.1371,
      "velocity": 100,
      "chip": "ym2612"
    },
    {
      "channel": 0,
      "note": 75,
      "start": 47.6401,
      "duration": 0.1361,
      "velocity": 100,
      "chip": "ym2612"
    },
    {
      "channel": 3,
      "note": 80,
      "start": 47.6421,
      "duration": 0.1349,
      "velocity": 100,
      "chip": "ym2612"
    },
    {
      "channel": 4,
      "note": 58,
      "start": 47.6434,
      "duration": 0.1339,
      "velocity": 82,
      "chip": "ym2612"
    },
    {
      "channel": 1,
      "note": 75,
      "start": 47.6748,
      "duration": 0.1373,
      "velocity": 100,
      "chip": "ym2612"
    },
    {
      "channel": 0,
      "note": 77,
      "start": 47.8117,
      "duration": 0.0503,
      "velocity": 100,
      "chip": "ym2612"
    },
    {
      "channel": 3,
      "note": 82,
      "start": 47.8136,
      "duration": 0.0491,
      "velocity": 100,
      "chip": "ym2612"
    },
    {
      "channel": 4,
      "note": 58,
      "start": 47.8151,
      "duration": 0.1338,
      "velocity": 82,
      "chip": "ym2612"
    },
    {
      "channel": 5,
      "note": 51,
      "start": 47.8193,
      "duration": 0.1676,
      "velocity": 116,
      "chip": "ym2612"
    },
    {
      "channel": 1,
      "note": 77,
      "start": 47.8463,
      "duration": 0.0516,
      "velocity": 100,
      "chip": "ym2612"
    },
    {
      "channel": 0,
      "note": 79,
      "start": 47.8975,
      "duration": 0.0504,
      "velocity": 100,
      "chip": "ym2612"
    },
    {
      "channel": 3,
      "note": 84,
      "start": 47.8994,
      "duration": 0.0491,
      "velocity": 100,
      "chip": "ym2612"
    },
    {
      "channel": 1,
      "note": 79,
      "start": 47.9321,
      "duration": 0.0515,
      "velocity": 100,
      "chip": "ym2612"
    },
    {
      "channel": 0,
      "note": 77,
      "start": 47.9832,
      "duration": 0.1364,
      "velocity": 100,
      "chip": "ym2612"
    },
    {
      "channel": 3,
      "note": 82,
      "start": 47.9851,
      "duration": 0.1351,
      "velocity": 100,
      "chip": "ym2612"
    },
    {
      "channel": 4,
      "note": 58,
      "start": 47.9866,
      "duration": 0.134,
      "velocity": 82,
      "chip": "ym2612"
    },
    {
      "channel": 5,
      "note": 88,
      "start": 47.9908,
      "duration": 0.168,
      "velocity": 112,
      "chip": "ym2612"
    },
    {
      "channel": 1,
      "note": 77,
      "start": 48.0178,
      "duration": 0.1377,
      "velocity": 100,
      "chip": "ym2612"
    },
    {
      "channel": 0,
      "note": 79,
      "start": 48.1552,
      "duration": 0.0511,
      "velocity": 100,
      "chip": "ym2612"
    },
    {
      "channel": 3,
      "note": 84,
      "start": 48.157,
      "duration": 0.0499,
      "velocity": 100,
      "chip": "ym2612"
    },
    {
      "channel": 4,
      "note": 58,
      "start": 48.1585,
      "duration": 0.1335,
      "velocity": 82,
      "chip": "ym2612"
    },
    {
      "channel": 5,
      "note": 58,
      "start": 48.1627,
      "duration": 0.1674,
      "velocity": 114,
      "chip": "ym2612"
    },
    {
      "channel": 1,
      "note": 79,
      "start": 48.1901,
      "duration": 0.0523,
      "velocity": 100,
      "chip": "ym2612"
    },
    {
      "channel": 0,
      "note": 80,
      "start": 48.242,
      "duration": 0.0489,
      "velocity": 100,
      "chip": "ym2612"
    },
    {
      "channel": 3,
      "note": 85,
      "start": 48.2438,
      "duration": 0.0477,
      "velocity": 100,
      "chip": "ym2612"
    },
    {
      "channel": 1,
      "note": 80,
      "start": 48.2771,
      "duration": 0.0496,
      "velocity": 100,
      "chip": "ym2612"
    },
    {
      "channel": 0,
      "note": 79,
      "start": 48.3263,
      "duration": 0.0503,
      "velocity": 100,
      "chip": "ym2612"
    },
    {
      "channel": 3,
      "note": 84,
      "start": 48.3283,
      "duration": 0.049,
      "velocity": 100,
      "chip": "ym2612"
    },
    {
      "channel": 4,
      "note": 58,
      "start": 48.3297,
      "duration": 0.1338,
      "velocity": 82,
      "chip": "ym2612"
    },
    {
      "channel": 5,
      "note": 88,
      "start": 48.334,
      "duration": 0.1677,
      "velocity": 112,
      "chip": "ym2612"
    },
    {
      "channel": 1,
      "note": 79,
      "start": 48.361,
      "duration": 0.0516,
      "velocity": 100,
      "chip": "ym2612"
    },
    {
      "channel": 0,
      "note": 80,
      "start": 48.4122,
      "duration": 0.0503,
      "velocity": 100,
      "chip": "ym2612"
    },
    {
      "channel": 3,
      "note": 85,
      "start": 48.414,
      "duration": 0.0491,
      "velocity": 100,
      "chip": "ym2612"
    },
    {
      "channel": 1,
      "note": 80,
      "start": 48.4467,
      "duration": 0.0517,
      "velocity": 100,
      "chip": "ym2612"
    },
    {
      "channel": 0,
      "note": 82,
      "start": 48.498,
      "duration": 0.0502,
      "velocity": 100,
      "chip": "ym2612"
    },
    {
      "channel": 3,
      "note": 87,
      "start": 48.4998,
      "duration": 0.049,
      "velocity": 100,
      "chip": "ym2612"
    },
    {
      "channel": 4,
      "note": 58,
      "start": 48.5013,
      "duration": 0.1337,
      "velocity": 82,
      "chip": "ym2612"
    },
    {
      "channel": 5,
      "note": 58,
      "start": 48.5055,
      "duration": 0.1676,
      "velocity": 116,
      "chip": "ym2612"
    },
    {
      "channel": 1,
      "note": 82,
      "start": 48.5326,
      "duration": 0.0515,
      "velocity": 100,
      "chip": "ym2612"
    },
    {
      "channel": 0,
      "note": 84,
      "start": 48.5837,
      "duration": 0.0503,
      "velocity": 100,
      "chip": "ym2612"
    },
    {
      "channel": 3,
      "note": 89,
      "start": 48.5856,
      "duration": 0.0491,
      "velocity": 100,
      "chip": "ym2612"
    },
    {
      "channel": 1,
      "note": 84,
      "start": 48.6183,
      "duration": 0.0516,
      "velocity": 100,
      "chip": "ym2612"
    },
    {
      "channel": 0,
      "note": 82,
      "start": 48.6695,
      "duration": 0.8223,
      "velocity": 100,
      "chip": "ym2612"
    },
    {
      "channel": 3,
      "note": 87,
      "start": 48.6713,
      "duration": 0.8211,
      "velocity": 100,
      "chip": "ym2612"
    },
    {
      "channel": 4,
      "note": 58,
      "start": 48.6728,
      "duration": 0.1336,
      "velocity": 82,
      "chip": "ym2612"
    },
    {
      "channel": 5,
      "note": 88,
      "start": 48.677,
      "duration": 0.1668,
      "velocity": 112,
      "chip": "ym2612"
    },
    {
      "channel": 1,
      "note": 82,
      "start": 48.7041,
      "duration": 0.8235,
      "velocity": 100,
      "chip": "ym2612"
    },
    {
      "channel": 4,
      "note": 58,
      "start": 48.8434,
      "duration": 0.1345,
      "velocity": 82,
      "chip": "ym2612"
    },
    {
      "channel": 5,
      "note": 58,
      "start": 48.8478,
      "duration": 0.3375,
      "velocity": 112,
      "chip": "ym2612"
    },
    {
      "channel": 4,
      "note": 58,
      "start": 49.0133,
      "duration": 0.1361,
      "velocity": 82,
      "chip": "ym2612"
    },
    {
      "channel": 4,
      "note": 58,
      "start": 49.1848,
      "duration": 0.1374,
      "velocity": 82,
      "chip": "ym2612"
    },
    {
      "channel": 5,
      "note": 51,
      "start": 49.1891,
      "duration": 0.1694,
      "velocity": 116,
      "chip": "ym2612"
    },
    {
      "channel": 4,
      "note": 58,
      "start": 49.3581,
      "duration": 0.1347,
      "velocity": 82,
      "chip": "ym2612"
    },
    {
      "channel": 5,
      "note": 88,
      "start": 49.3623,
      "duration": 0.1686,
      "velocity": 112,
      "chip": "ym2612"
    },
    {
      "channel": 0,
      "note": 84,
      "start": 49.5272,
      "duration": 0.3076,
      "velocity": 100,
      "chip": "ym2612"
    },
    {
      "channel": 3,
      "note": 89,
      "start": 49.5291,
      "duration": 0.3064,
      "velocity": 100,
      "chip": "ym2612"
    },
    {
      "channel": 4,
      "note": 58,
      "start": 49.5305,
      "duration": 0.1336,
      "velocity": 82,
      "chip": "ym2612"
    },
    {
      "channel": 5,
      "note": 58,
      "start": 49.5348,
      "duration": 0.1651,
      "velocity": 114,
      "chip": "ym2612"
    },
    {
      "channel": 1,
      "note": 84,
      "start": 49.5618,
      "duration": 0.3088,
      "velocity": 100,
      "chip": "ym2612"
    },
    {
      "channel": 4,
      "note": 58,
      "start": 49.6995,
      "duration": 0.1363,
      "velocity": 82,
      "chip": "ym2612"
    },
    {
      "channel": 5,
      "note": 88,
      "start": 49.7038,
      "duration": 0.1703,
      "velocity": 112,
      "chip": "ym2612"
    },
    {
      "channel": 0,
      "note": 85,
      "start": 49.8702,
      "duration": 0.3077,
      "velocity": 100,
      "chip": "ym2612"
    },
    {
      "channel": 3,
      "note": 90,
      "start": 49.8722,
      "duration": 0.3064,
      "velocity": 100,
      "chip": "ym2612"
    },
    {
      "channel": 4,
      "note": 58,
      "start": 49.8736,
      "duration": 0.1336,
      "velocity": 82,
      "chip": "ym2612"
    },
    {
      "channel": 5,
      "note": 58,
      "start": 49.8779,
      "duration": 0.1651,
      "velocity": 116,
      "chip": "ym2612"
    },
    {
      "channel": 1,
      "note": 85,
      "start": 49.9049,
      "duration": 0.3091,
      "velocity": 100,
      "chip": "ym2612"
    },
    {
      "channel": 4,
      "note": 58,
      "start": 50.0426,
      "duration": 0.1363,
      "velocity": 82,
      "chip": "ym2612"
    },
    {
      "channel": 5,
      "note": 88,
      "start": 50.0468,
      "duration": 0.1709,
      "velocity": 112,
      "chip": "ym2612"
    },
    {
      "channel": 0,
      "note": 87,
      "start": 50.2135,
      "duration": 0.0845,
      "velocity": 100,
      "chip": "ym2612"
    },
    {
      "channel": 3,
      "note": 92,
      "start": 50.2156,
      "duration": 0.083,
      "velocity": 100,
      "chip": "ym2612"
    },
    {
      "channel": 4,
      "note": 58,
      "start": 50.2173,
      "duration": 0.133,
      "velocity": 82,
      "chip": "ym2612"
    },
    {
      "channel": 5,
      "note": 58,
      "start": 50.2216,
      "duration": 0.3384,
      "velocity": 112,
      "chip": "ym2612"
    },
    {
      "channel": 1,
      "note": 87,
      "start": 50.2482,
      "duration": 0.0857,
      "velocity": 100,
      "chip": "ym2612"
    },
    {
      "channel": 0,
      "note": 85,
      "start": 50.3335,
      "duration": 0.0851,
      "velocity": 100,
      "chip": "ym2612"
    },
    {
      "channel": 3,
      "note": 90,
      "start": 50.3353,
      "duration": 0.0839,
      "velocity": 100,
      "chip": "ym2612"
    },
    {
      "channel": 1,
      "note": 85,
      "start": 50.368,
      "duration": 0.0867,
      "velocity": 100,
      "chip": "ym2612"
    },
    {
      "channel": 4,
      "note": 56,
      "start": 50.3856,
      "duration": 0.138,
      "velocity": 82,
      "chip": "ym2612"
    },
    {
      "channel": 0,
      "note": 84,
      "start": 50.4543,
      "duration": 0.0861,
      "velocity": 100,
      "chip": "ym2612"
    },
    {
      "channel": 3,
      "note": 89,
      "start": 50.4562,
      "duration": 0.0849,
      "velocity": 100,
      "chip": "ym2612"
    },
    {
      "channel": 1,
      "note": 84,
      "start": 50.4892,
      "duration": 0.0835,
      "velocity": 100,
      "chip": "ym2612"
    },
    {
      "channel": 0,
      "note": 82,
      "start": 50.5564,
      "duration": 0.0847,
      "velocity": 100,
      "chip": "ym2612"
    },
    {
      "channel": 3,
      "note": 87,
      "start": 50.5582,
      "duration": 0.0835,
      "velocity": 100,
      "chip": "ym2612"
    },
    {
      "channel": 4,
      "note": 56,
      "start": 50.5597,
      "duration": 0.1337,
      "velocity": 82,
      "chip": "ym2612"
    },
    {
      "channel": 5,
      "note": 52,
      "start": 50.5639,
      "duration": 0.1652,
      "velocity": 116,
      "chip": "ym2612"
    },
    {
      "channel": 1,
      "note": 82,
      "start": 50.591,
      "duration": 0.0858,
      "velocity": 100,
      "chip": "ym2612"
    },
    {
      "channel": 0,
      "note": 84,
      "start": 50.6765,
      "duration": 0.0847,
      "velocity": 100,
      "chip": "ym2612"
    },
    {
      "channel": 3,
      "note": 89,
      "start": 50.6784,
      "duration": 0.0834,
      "velocity": 100,
      "chip": "ym2612"
    },
    {
      "channel": 1,
      "note": 84,
      "start": 50.7111,
      "duration": 0.0859,
      "velocity": 100,
      "chip": "ym2612"
    },
    {
      "channel": 4,
      "note": 56,
      "start": 50.7288,
      "duration": 0.1362,
      "velocity": 82,
      "chip": "ym2612"
    },
    {
      "channel": 5,
      "note": 88,
      "start": 50.733,
      "duration": 0.1701,
      "velocity": 112,
      "chip": "ym2612"
    },
    {
      "channel": 0,
      "note": 79,
      "start": 50.7966,
      "duration": 0.0847,
      "velocity": 100,
      "chip": "ym2612"
    },
    {
      "channel": 3,
      "note": 84,
      "start": 50.7985,
      "duration": 0.0835,
      "velocity": 100,
      "chip": "ym2612"
    },
    {
      "channel": 1,
      "note": 79,
      "start": 50.8311,
      "duration": 0.0847,
      "velocity": 100,
      "chip": "ym2612"
    },
    {
      "channel": 0,
      "note": 77,
      "start": 50.8995,
      "duration": 0.0847,
      "velocity": 100,
      "chip": "ym2612"
    },
    {
      "channel": 3,
      "note": 82,
      "start": 50.9013,
      "duration": 0.0835,
      "velocity": 100,
      "chip": "ym2612"
    },
    {
      "channel": 4,
      "note": 56,
      "start": 50.9027,
      "duration": 0.1337,
      "velocity": 82,
      "chip": "ym2612"
    },
    {
      "channel": 5,
      "note": 58,
      "start": 50.907,
      "duration": 0.1652,
      "velocity": 114,
      "chip": "ym2612"
    },
    {
      "channel": 1,
      "note": 77,
      "start": 50.934,
      "duration": 0.0859,
      "velocity": 100,
      "chip": "ym2612"
    },
    {
      "channel": 0,
      "note": 79,
      "start": 51.0195,
      "duration": 0.0847,
      "velocity": 100,
      "chip": "ym2612"
    },
    {
      "channel": 3,
      "note": 84,
      "start": 51.0215,
      "duration": 0.0834,
      "velocity": 100,
      "chip": "ym2612"
    },
    {
      "channel": 1,
      "note": 79,
      "start": 51.0541,
      "duration": 0.0859,
      "velocity": 100,
      "chip": "ym2612"
    },
    {
      "channel": 4,
      "note": 56,
      "start": 51.0718,
      "duration": 0.1362,
      "velocity": 82,
      "chip": "ym2612"
    },
    {
      "channel": 5,
      "note": 88,
      "start": 51.076,
      "duration": 0.1702,
      "velocity": 112,
      "chip": "ym2612"
    },
    {
      "channel": 0,
      "note": 77,
      "start": 51.1396,
      "duration": 0.0847,
      "velocity": 100,
      "chip": "ym2612"
    },
    {
      "channel": 3,
      "note": 85,
      "start": 51.1415,
      "duration": 0.0834,
      "velocity": 100,
      "chip": "ym2612"
    },
    {
      "channel": 1,
      "note": 77,
      "start": 51.1742,
      "duration": 0.0847,
      "velocity": 100,
      "chip": "ym2612"
    },
    {
      "channel": 0,
      "note": 73,
      "start": 51.2426,
      "duration": 0.0847,
      "velocity": 100,
      "chip": "ym2612"
    },
    {
      "channel": 3,
      "note": 78,
      "start": 51.2444,
      "duration": 0.0835,
      "velocity": 100,
      "chip": "ym2612"
    },
    {
      "channel": 4,
      "note": 56,
      "start": 51.2458,
      "duration": 0.1337,
      "velocity": 82,
      "chip": "ym2612"
    },
    {
      "channel": 5,
      "note": 58,
      "start": 51.2501,
      "duration": 0.1652,
      "velocity": 116,
      "chip": "ym2612"
    },
    {
      "channel": 1,
      "note": 73,
      "start": 51.2772,
      "duration": 0.0859,
      "velocity": 100,
      "chip": "ym2612"
    },
    {
      "channel": 0,
      "note": 77,
      "start": 51.3627,
      "duration": 0.0847,
      "velocity": 100,
      "chip": "ym2612"
    },
    {
      "channel": 3,
      "note": 82,
      "start": 51.3646,
      "duration": 0.0834,
      "velocity": 100,
      "chip": "ym2612"
    },
    {
      "channel": 1,
      "note": 77,
      "start": 51.3973,
      "duration": 0.0859,
      "velocity": 100,
      "chip": "ym2612"
    },
    {
      "channel": 4,
      "note": 56,
      "start": 51.415,
      "duration": 0.1363,
      "velocity": 82,
      "chip": "ym2612"
    },
    {
      "channel": 5,
      "note": 88,
      "start": 51.4192,
      "duration": 0.1712,
      "velocity": 112,
      "chip": "ym2612"
    },
    {
      "channel": 0,
      "note": 79,
      "start": 51.4827,
      "duration": 0.0854,
      "velocity": 100,
      "chip": "ym2612"
    },
    {
      "channel": 3,
      "note": 84,
      "start": 51.4846,
      "duration": 0.0842,
      "velocity": 100,
      "chip": "ym2612"
    },
    {
      "channel": 1,
      "note": 79,
      "start": 51.5173,
      "duration": 0.0858,
      "velocity": 100,
      "chip": "ym2612"
    },
    {
      "channel": 0,
      "note": 77,
      "start": 51.5864,
      "duration": 1.1663,
      "velocity": 100,
      "chip": "ym2612"
    },
    {
      "channel": 3,
      "note": 82,
      "start": 51.5884,
      "duration": 1.165,
      "velocity": 100,
      "chip": "ym2612"
    },
    {
      "channel": 4,
      "note": 56,
      "start": 51.59,
      "duration": 0.1327,
      "velocity": 82,
      "chip": "ym2612"
    },
    {
      "channel": 5,
      "note": 58,
      "start": 51.5944,
      "duration": 0.3356,
      "velocity": 112,
      "chip": "ym2612"
    },
    {
      "channel": 1,
      "note": 77,
      "start": 51.6216,
      "duration": 1.1671,
      "velocity": 100,
      "chip": "ym2612"
    },
    {
      "channel": 4,
      "note": 56,
      "start": 51.758,
      "duration": 0.1361,
      "velocity": 82,
      "chip": "ym2612"
    },
    {
      "channel": 4,
      "note": 56,
      "start": 51.9295,
      "duration": 0.1362,
      "velocity": 82,
      "chip": "ym2612"
    },
    {
      "channel": 5,
      "note": 52,
      "start": 51.9339,
      "duration": 0.1676,
      "velocity": 116,
      "chip": "ym2612"
    },
    {
      "channel": 4,
      "note": 56,
      "start": 52.1011,
      "duration": 0.1362,
      "velocity": 82,
      "chip": "ym2612"
    },
    {
      "channel": 5,
      "note": 88,
      "start": 52.1053,
      "duration": 0.1678,
      "velocity": 112,
      "chip": "ym2612"
    },
    {
      "channel": 4,
      "note": 56,
      "start": 52.2726,
      "duration": 0.1362,
      "velocity": 82,
      "chip": "ym2612"
    },
    {
      "channel": 5,
      "note": 58,
      "start": 52.2768,
      "duration": 0.1678,
      "velocity": 114,
      "chip": "ym2612"
    },
    {
      "channel": 4,
      "note": 56,
      "start": 52.4441,
      "duration": 0.1362,
      "velocity": 82,
      "chip": "ym2612"
    },
    {
      "channel": 5,
      "note": 88,
      "start": 52.4484,
      "duration": 0.1678,
      "velocity": 112,
      "chip": "ym2612"
    },
    {
      "channel": 4,
      "note": 56,
      "start": 52.6158,
      "duration": 0.138,
      "velocity": 82,
      "chip": "ym2612"
    },
    {
      "channel": 5,
      "note": 58,
      "start": 52.62,
      "duration": 0.1719,
      "velocity": 116,
      "chip": "ym2612"
    },
    {
      "channel": 0,
      "note": 80,
      "start": 52.7882,
      "duration": 0.0486,
      "velocity": 100,
      "chip": "ym2612"
    },
    {
      "channel": 3,
      "note": 85,
      "start": 52.7901,
      "duration": 0.0474,
      "velocity": 100,
      "chip": "ym2612"
    },
    {
      "channel": 4,
      "note": 56,
      "start": 52.7915,
      "duration": 0.1321,
      "velocity": 82,
      "chip": "ym2612"
    },
    {
      "channel": 5,
      "note": 88,
      "start": 52.7957,
      "duration": 0.1666,
      "velocity": 112,
      "chip": "ym2612"
    },
    {
      "channel": 1,
      "note": 80,
      "start": 52.8211,
      "duration": 0.0516,
      "velocity": 100,
      "chip": "ym2612"
    },
    {
      "channel": 0,
      "note": 80,
      "start": 52.8723,
      "duration": 0.0503,
      "velocity": 100,
      "chip": "ym2612"
    },
    {
      "channel": 3,
      "note": 85,
      "start": 52.8742,
      "duration": 0.049,
      "velocity": 100,
      "chip": "ym2612"
    },
    {
      "channel": 1,
      "note": 80,
      "start": 52.9069,
      "duration": 0.0518,
      "velocity": 100,
      "chip": "ym2612"
    },
    {
      "channel": 0,
      "note": 82,
      "start": 52.9582,
      "duration": 1.1652,
      "velocity": 100,
      "chip": "ym2612"
    },
    {
      "channel": 3,
      "note": 87,
      "start": 52.9603,
      "duration": 1.1637,
      "velocity": 100,
      "chip": "ym2612"
    },
    {
      "channel": 4,
      "note": 56,
      "start": 52.9619,
      "duration": 0.1331,
      "velocity": 82,
      "chip": "ym2612"
    },
    {
      "channel": 5,
      "note": 58,
      "start": 52.9663,
      "duration": 0.3359,
      "velocity": 112,
      "chip": "ym2612"
    },
    {
      "channel": 1,
      "note": 82,
      "start": 52.9928,
      "duration": 1.1664,
      "velocity": 100,
      "chip": "ym2612"
    },
    {
      "channel": 4,
      "note": 56,
      "start": 53.1303,
      "duration": 0.1362,
      "velocity": 82,
      "chip": "ym2612"
    },
    {
      "channel": 4,
      "note": 56,
      "start": 53.3019,
      "duration": 0.1361,
      "velocity": 82,
      "chip": "ym2612"
    },
    {
      "channel": 5,
      "note": 51,
      "start": 53.3062,
      "duration": 0.1676,
      "velocity": 116,
      "chip": "ym2612"
    },
    {
      "channel": 4,
      "note": 56,
      "start": 53.4734,
      "duration": 0.1362,
      "velocity": 82,
      "chip": "ym2612"
    },
    {
      "channel": 5,
      "note": 88,
      "start": 53.4776,
      "duration": 0.1678,
      "velocity": 112,
      "chip": "ym2612"
    },
    {
      "channel": 4,
      "note": 56,
      "start": 53.645,
      "duration": 0.1363,
      "velocity": 82,
      "chip": "ym2612"
    },
    {
      "channel": 5,
      "note": 58,
      "start": 53.6493,
      "duration": 0.1683,
      "velocity": 114,
      "chip": "ym2612"
    },
    {
      "channel": 4,
      "note": 56,
      "start": 53.8171,
      "duration": 0.1383,
      "velocity": 82,
      "chip": "ym2612"
    },
    {
      "channel": 5,
      "note": 88,
      "start": 53.8213,
      "duration": 0.1672,
      "velocity": 112,
      "chip": "ym2612"
    },
    {
      "channel": 4,
      "note": 56,
      "start": 53.988,
      "duration": 0.1364,
      "velocity": 82,
      "chip": "ym2612"
    },
    {
      "channel": 5,
      "note": 58,
      "start": 53.9923,
      "duration": 0.1703,
      "velocity": 116,
      "chip": "ym2612"
    },
    {
      "channel": 0,
      "note": 80,
      "start": 54.1588,
      "duration": 0.0503,
      "velocity": 100,
      "chip": "ym2612"
    },
    {
      "channel": 3,
      "note": 85,
      "start": 54.1607,
      "duration": 0.049,
      "velocity": 100,
      "chip": "ym2612"
    },
    {
      "channel": 4,
      "note": 56,
      "start": 54.1622,
      "duration": 0.1338,
      "velocity": 82,
      "chip": "ym2612"
    },
    {
      "channel": 5,
      "note": 88,
      "start": 54.1665,
      "duration": 0.1682,
      "velocity": 112,
      "chip": "ym2612"
    },
    {
      "channel": 1,
      "note": 80,
      "start": 54.1934,
      "duration": 0.0516,
      "velocity": 100,
      "chip": "ym2612"
    },
    {
      "channel": 0,
      "note": 82,
      "start": 54.2447,
      "duration": 0.0503,
      "velocity": 100,
      "chip": "ym2612"
    },
    {
      "channel": 3,
      "note": 87,
      "start": 54.2465,
      "duration": 0.0491,
      "velocity": 100,
      "chip": "ym2612"
    },
    {
      "channel": 1,
      "note": 82,
      "start": 54.2792,
      "duration": 0.0518,
      "velocity": 100,
      "chip": "ym2612"
    },
    {
      "channel": 0,
      "note": 84,
      "start": 54.3306,
      "duration": 0.6517,
      "velocity": 100,
      "chip": "ym2612"
    },
    {
      "channel": 3,
      "note": 89,
      "start": 54.3327,
      "duration": 0.6502,
      "velocity": 100,
      "chip": "ym2612"
    },
    {
      "channel": 4,
      "note": 56,
      "start": 54.3343,
      "duration": 0.133,
      "velocity": 82,
      "chip": "ym2612"
    },
    {
      "channel": 5,
      "note": 58,
      "start": 54.3387,
      "duration": 0.3359,
      "velocity": 112,
      "chip": "ym2612"
    },
    {
      "channel": 1,
      "note": 84,
      "start": 54.3652,
      "duration": 0.653,
      "velocity": 100,
      "chip": "ym2612"
    },
    {
      "channel": 4,
      "note": 56,
      "start": 54.5027,
      "duration": 0.1362,
      "velocity": 82,
      "chip": "ym2612"
    },
    {
      "channel": 4,
      "note": 56,
      "start": 54.6742,
      "duration": 0.1362,
      "velocity": 82,
      "chip": "ym2612"
    },
    {
      "channel": 5,
      "note": 51,
      "start": 54.6785,
      "duration": 0.1677,
      "velocity": 116,
      "chip": "ym2612"
    },
    {
      "channel": 4,
      "note": 56,
      "start": 54.8458,
      "duration": 0.1375,
      "velocity": 82,
      "chip": "ym2612"
    },
    {
      "channel": 5,
      "note": 88,
      "start": 54.8501,
      "duration": 0.1715,
      "velocity": 112,
      "chip": "ym2612"
    },
    {
      "channel": 0,
      "note": 82,
      "start": 55.0178,
      "duration": 0.6495,
      "velocity": 100,
      "chip": "ym2612"
    },
    {
      "channel": 3,
      "note": 87,
      "start": 55.0197,
      "duration": 0.6483,
      "velocity": 100,
      "chip": "ym2612"
    },
    {
      "channel": 4,
      "note": 56,
      "start": 55.0212,
      "duration": 0.1323,
      "velocity": 82,
      "chip": "ym2612"
    },
    {
      "channel": 5,
      "note": 58,
      "start": 55.0254,
      "duration": 0.1638,
      "velocity": 114,
      "chip": "ym2612"
    },
    {
      "channel": 1,
      "note": 82,
      "start": 55.0527,
      "duration": 0.615,
      "velocity": 100,
      "chip": "ym2612"
    },
    {
      "channel": 4,
      "note": 56,
      "start": 55.1889,
      "duration": 0.1361,
      "velocity": 82,
      "chip": "ym2612"
    },
    {
      "channel": 5,
      "note": 88,
      "start": 55.1931,
      "duration": 0.1677,
      "velocity": 112,
      "chip": "ym2612"
    },
    {
      "channel": 4,
      "note": 56,
      "start": 55.3604,
      "duration": 0.1361,
      "velocity": 82,
      "chip": "ym2612"
    },
    {
      "channel": 5,
      "note": 58,
      "start": 55.3648,
      "duration": 0.0807,
      "velocity": 116,
      "chip": "ym2612"
    },
    {
      "channel": 5,
      "note": 68,
      "start": 55.4493,
      "duration": 0.0831,
      "velocity": 116,
      "chip": "ym2612"
    },
    {
      "channel": 4,
      "note": 56,
      "start": 55.532,
      "duration": 0.1364,
      "velocity": 82,
      "chip": "ym2612"
    },
    {
      "channel": 5,
      "note": 68,
      "start": 55.5363,
      "duration": 0.1797,
      "velocity": 116,
      "chip": "ym2612"
    },
    {
      "channel": 0,
      "note": 87,
      "start": 55.7065,
      "duration": 0.1496,
      "velocity": 121,
      "chip": "ym2612"
    },
    {
      "channel": 1,
      "note": 87,
      "start": 55.7117,
      "duration": 0.1446,
      "velocity": 121,
      "chip": "ym2612"
    },
    {
      "channel": 3,
      "note": 92,
      "start": 55.7139,
      "duration": 5.4607,
      "velocity": 100,
      "chip": "ym2612"
    },
    {
      "channel": 4,
      "note": 56,
      "start": 55.7156,
      "duration": 0.1414,
      "velocity": 82,
      "chip": "ym2612"
    },
    {
      "channel": 5,
      "note": 88,
      "start": 55.7199,
      "duration": 0.175,
      "velocity": 112,
      "chip": "ym2612"
    },
    {
      "channel": 0,
      "note": 68,
      "start": 55.8914,
      "duration": 0.1361,
      "velocity": 121,
      "chip": "ym2612"
    },
    {
      "channel": 1,
      "note": 73,
      "start": 55.8929,
      "duration": 0.1351,
      "velocity": 121,
      "chip": "ym2612"
    },
    {
      "channel": 4,
      "note": 54,
      "start": 55.8945,
      "duration": 0.134,
      "velocity": 82,
      "chip": "ym2612"
    },
    {
      "channel": 5,
      "note": 57,
      "start": 55.8988,
      "duration": 0.0784,
      "velocity": 112,
      "chip": "ym2612"
    },
    {
      "channel": 5,
      "note": 60,
      "start": 55.981,
      "duration": 0.0856,
      "velocity": 112,
      "chip": "ym2612"
    },
    {
      "channel": 0,
      "note": 70,
      "start": 56.063,
      "duration": 0.1385,
      "velocity": 121,
      "chip": "ym2612"
    },
    {
      "channel": 1,
      "note": 75,
      "start": 56.0644,
      "duration": 0.1373,
      "velocity": 121,
      "chip": "ym2612"
    },
    {
      "channel": 4,
      "note": 54,
      "start": 56.0662,
      "duration": 0.1363,
      "velocity": 82,
      "chip": "ym2612"
    },
    {
      "channel": 5,
      "note": 60,
      "start": 56.0704,
      "duration": 0.1677,
      "velocity": 116,
      "chip": "ym2612"
    },
    {
      "channel": 0,
      "note": 73,
      "start": 56.2345,
      "duration": 0.1362,
      "velocity": 121,
      "chip": "ym2612"
    },
    {
      "channel": 1,
      "note": 78,
      "start": 56.236,
      "duration": 0.135,
      "velocity": 121,
      "chip": "ym2612"
    },
    {
      "channel": 4,
      "note": 54,
      "start": 56.2377,
      "duration": 0.1339,
      "velocity": 82,
      "chip": "ym2612"
    },
    {
      "channel": 5,
      "note": 9,
      "start": 56.2419,
      "duration": 0.1676,
      "velocity": 112,
      "chip": "ym2612"
    },
    {
      "channel": 0,
      "note": 75,
      "start": 56.4061,
      "duration": 0.1361,
      "velocity": 121,
      "chip": "ym2612"
    },
    {
      "channel": 1,
      "note": 80,
      "start": 56.4075,
      "duration": 0.1351,
      "velocity": 121,
      "chip": "ym2612"
    },
    {
      "channel": 4,
      "note": 54,
      "start": 56.4092,
      "duration": 0.134,
      "velocity": 82,
      "chip": "ym2612"
    },
    {
      "channel": 5,
      "note": 58,
      "start": 56.4134,
      "duration": 0.1677,
      "velocity": 127,
      "chip": "ym2612"
    },
    {
      "channel": 0,
      "note": 73,
      "start": 56.5776,
      "duration": 0.1361,
      "velocity": 121,
      "chip": "ym2612"
    },
    {
      "channel": 1,
      "note": 78,
      "start": 56.5791,
      "duration": 0.135,
      "velocity": 121,
      "chip": "ym2612"
    },
    {
      "channel": 4,
      "note": 54,
      "start": 56.5807,
      "duration": 0.134,
      "velocity": 82,
      "chip": "ym2612"
    },
    {
      "channel": 5,
      "note": 88,
      "start": 56.5851,
      "duration": 0.0783,
      "velocity": 127,
      "chip": "ym2612"
    },
    {
      "channel": 5,
      "note": 88,
      "start": 56.6673,
      "duration": 0.0854,
      "velocity": 127,
      "chip": "ym2612"
    },
    {
      "channel": 0,
      "note": 70,
      "start": 56.7491,
      "duration": 0.1361,
      "velocity": 121,
      "chip": "ym2612"
    },
    {
      "channel": 1,
      "note": 75,
      "start": 56.7506,
      "duration": 0.135,
      "velocity": 121,
      "chip": "ym2612"
    },
    {
      "channel": 4,
      "note": 54,
      "start": 56.7523,
      "duration": 0.134,
      "velocity": 82,
      "chip": "ym2612"
    },
    {
      "channel": 5,
      "note": 88,
      "start": 56.7566,
      "duration": 0.1676,
      "velocity": 116,
      "chip": "ym2612"
    },
    {
      "channel": 0,
      "note": 68,
      "start": 56.9207,
      "duration": 0.1361,
      "velocity": 121,
      "chip": "ym2612"
    },
    {
      "channel": 1,
      "note": 73,
      "start": 56.9222,
      "duration": 0.135,
      "velocity": 121,
      "chip": "ym2612"
    },
    {
      "channel": 4,
      "note": 54,
      "start": 56.9238,
      "duration": 0.134,
      "velocity": 82,
      "chip": "ym2612"
    },
    {
      "channel": 5,
      "note": 88,
      "start": 56.928,
      "duration": 0.169,
      "velocity": 112,
      "chip": "ym2612"
    },
    {
      "channel": 0,
      "note": 70,
      "start": 57.0924,
      "duration": 0.1366,
      "velocity": 121,
      "chip": "ym2612"
    },
    {
      "channel": 1,
      "note": 75,
      "start": 57.094,
      "duration": 0.1354,
      "velocity": 121,
      "chip": "ym2612"
    },
    {
      "channel": 4,
      "note": 54,
      "start": 57.0966,
      "duration": 0.1334,
      "velocity": 82,
      "chip": "ym2612"
    },
    {
      "channel": 5,
      "note": 58,
      "start": 57.1011,
      "duration": 0.1673,
      "velocity": 112,
      "chip": "ym2612"
    },
    {
      "channel": 0,
      "note": 73,
      "start": 57.2648,
      "duration": 0.1351,
      "velocity": 121,
      "chip": "ym2612"
    },
    {
      "channel": 1,
      "note": 78,
      "start": 57.2663,
      "duration": 0.1339,
      "velocity": 121,
      "chip": "ym2612"
    },
    {
      "channel": 4,
      "note": 54,
      "start": 57.268,
      "duration": 0.1329,
      "velocity": 82,
      "chip": "ym2612"
    },
    {
      "channel": 5,
      "note": 58,
      "start": 57.2722,
      "duration": 0.0798,
      "velocity": 112,
      "chip": "ym2612"
    },
    {
      "channel": 5,
      "note": 46,
      "start": 57.3557,
      "duration": 0.0832,
      "velocity": 112,
      "chip": "ym2612"
    },
    {
      "channel": 0,
      "note": 75,
      "start": 57.4353,
      "duration": 0.1361,
      "velocity": 121,
      "chip": "ym2612"
    },
    {
      "channel": 1,
      "note": 80,
      "start": 57.4368,
      "duration": 0.1351,
      "velocity": 121,
      "chip": "ym2612"
    },
    {
      "channel": 4,
      "note": 54,
      "start": 57.4384,
      "duration": 0.134,
      "velocity": 82,
      "chip": "ym2612"
    },
    {
      "channel": 5,
      "note": 47,
      "start": 57.4426,
      "duration": 0.1678,
      "velocity": 112,
      "chip": "ym2612"
    },
    {
      "channel": 0,
      "note": 73,
      "start": 57.6069,
      "duration": 0.1361,
      "velocity": 121,
      "chip": "ym2612"
    },
    {
      "channel": 1,
      "note": 78,
      "start": 57.6083,
      "duration": 0.1351,
      "velocity": 121,
      "chip": "ym2612"
    },
    {
      "channel": 4,
      "note": 54,
      "start": 57.61,
      "duration": 0.134,
      "velocity": 82,
      "chip": "ym2612"
    },
    {
      "channel": 5,
      "note": 33,
      "start": 57.6143,
      "duration": 0.1678,
      "velocity": 127,
      "chip": "ym2612"
    },
    {
      "channel": 0,
      "note": 70,
      "start": 57.7784,
      "duration": 0.1363,
      "velocity": 121,
      "chip": "ym2612"
    },
    {
      "channel": 1,
      "note": 75,
      "start": 57.7799,
      "duration": 0.1351,
      "velocity": 121,
      "chip": "ym2612"
    },
    {
      "channel": 4,
      "note": 54,
      "start": 57.7817,
      "duration": 0.1339,
      "velocity": 82,
      "chip": "ym2612"
    },
    {
      "channel": 5,
      "note": 88,
      "start": 57.7858,
      "duration": 0.1678,
      "velocity": 126,
      "chip": "ym2612"
    },
    {
      "channel": 0,
      "note": 75,
      "start": 57.95,
      "duration": 0.1361,
      "velocity": 121,
      "chip": "ym2612"
    },
    {
      "channel": 1,
      "note": 80,
      "start": 57.9515,
      "duration": 0.135,
      "velocity": 121,
      "chip": "ym2612"
    },
    {
      "channel": 4,
      "note": 54,
      "start": 57.9531,
      "duration": 0.134,
      "velocity": 82,
      "chip": "ym2612"
    },
    {
      "channel": 5,
      "note": 12,
      "start": 57.9573,
      "duration": 0.0784,
      "velocity": 112,
      "chip": "ym2612"
    },
    {
      "channel": 5,
      "note": 60,
      "start": 58.0395,
      "duration": 0.0855,
      "velocity": 112,
      "chip": "ym2612"
    },
    {
      "channel": 0,
      "note": 73,
      "start": 58.1215,
      "duration": 0.1361,
      "velocity": 121,
      "chip": "ym2612"
    },
    {
      "channel": 1,
      "note": 78,
      "start": 58.123,
      "duration": 0.1351,
      "velocity": 121,
      "chip": "ym2612"
    },
    {
      "channel": 4,
      "note": 54,
      "start": 58.1246,
      "duration": 0.134,
      "velocity": 82,
      "chip": "ym2612"
    },
    {
      "channel": 5,
      "note": 60,
      "start": 58.1289,
      "duration": 0.1677,
      "velocity": 116,
      "chip": "ym2612"
    },
    {
      "channel": 0,
      "note": 72,
      "start": 58.293,
      "duration": 0.1379,
      "velocity": 121,
      "chip": "ym2612"
    },
    {
      "channel": 1,
      "note": 77,
      "start": 58.2945,
      "duration": 0.1368,
      "velocity": 121,
      "chip": "ym2612"
    },
    {
      "channel": 4,
      "note": 54,
      "start": 58.2962,
      "duration": 0.1358,
      "velocity": 82,
      "chip": "ym2612"
    },
    {
      "channel": 5,
      "note": 88,
      "start": 58.3005,
      "duration": 0.171,
      "velocity": 112,
      "chip": "ym2612"
    },
    {
      "channel": 0,
      "note": 70,
      "start": 58.4668,
      "duration": 0.1339,
      "velocity": 121,
      "chip": "ym2612"
    },
    {
      "channel": 1,
      "note": 75,
      "start": 58.4685,
      "duration": 0.1326,
      "velocity": 121,
      "chip": "ym2612"
    },
    {
      "channel": 4,
      "note": 54,
      "start": 58.4711,
      "duration": 0.1307,
      "velocity": 82,
      "chip": "ym2612"
    },
    {
      "channel": 5,
      "note": 58,
      "start": 58.4754,
      "duration": 0.1642,
      "velocity": 112,
      "chip": "ym2612"
    },
    {
      "channel": 0,
      "note": 68,
      "start": 58.6361,
      "duration": 0.1361,
      "velocity": 121,
      "chip": "ym2612"
    },
    {
      "channel": 1,
      "note": 73,
      "start": 58.6376,
      "duration": 0.1351,
      "velocity": 121,
      "chip": "ym2612"
    },
    {
      "channel": 4,
      "note": 54,
      "start": 58.6393,
      "duration": 0.134,
      "velocity": 82,
      "chip": "ym2612"
    },
    {
      "channel": 5,
      "note": 58,
      "start": 58.6434,
      "duration": 0.0784,
      "velocity": 112,
      "chip": "ym2612"
    },
    {
      "channel": 5,
      "note": 60,
      "start": 58.7257,
      "duration": 0.0855,
      "velocity": 112,
      "chip": "ym2612"
    },
    {
      "channel": 0,
      "note": 70,
      "start": 58.8076,
      "duration": 0.1362,
      "velocity": 121,
      "chip": "ym2612"
    },
    {
      "channel": 1,
      "note": 75,
      "start": 58.8092,
      "duration": 0.135,
      "velocity": 121,
      "chip": "ym2612"
    },
    {
      "channel": 4,
      "note": 54,
      "start": 58.8108,
      "duration": 0.134,
      "velocity": 82,
      "chip": "ym2612"
    },
    {
      "channel": 5,
      "note": 60,
      "start": 58.8151,
      "duration": 0.1677,
      "velocity": 116,
      "chip": "ym2612"
    },
    {
      "channel": 0,
      "note": 73,
      "start": 58.9792,
      "duration": 0.1361,
      "velocity": 121,
      "chip": "ym2612"
    },
    {
      "channel": 1,
      "note": 78,
      "start": 58.9807,
      "duration": 0.135,
      "velocity": 121,
      "chip": "ym2612"
    },
    {
      "channel": 4,
      "note": 54,
      "start": 58.9824,
      "duration": 0.1339,
      "velocity": 82,
      "chip": "ym2612"
    },
    {
      "channel": 5,
      "note": 88,
      "start": 58.9866,
      "duration": 0.1676,
      "velocity": 112,
      "chip": "ym2612"
    },
    {
      "channel": 0,
      "note": 75,
      "start": 59.1508,
      "duration": 0.1361,
      "velocity": 121,
      "chip": "ym2612"
    },
    {
      "channel": 1,
      "note": 80,
      "start": 59.1522,
      "duration": 0.135,
      "velocity": 121,
      "chip": "ym2612"
    },
    {
      "channel": 4,
      "note": 54,
      "start": 59.1539,
      "duration": 0.134,
      "velocity": 82,
      "chip": "ym2612"
    },
    {
      "channel": 5,
      "note": 58,
      "start": 59.1581,
      "duration": 0.1677,
      "velocity": 127,
      "chip": "ym2612"
    },
    {
      "channel": 0,
      "note": 73,
      "start": 59.3223,
      "duration": 0.1363,
      "velocity": 121,
      "chip": "ym2612"
    },
    {
      "channel": 1,
      "note": 78,
      "start": 59.3238,
      "duration": 0.1351,
      "velocity": 121,
      "chip": "ym2612"
    },
    {
      "channel": 4,
      "note": 54,
      "start": 59.3254,
      "duration": 0.1341,
      "velocity": 82,
      "chip": "ym2612"
    },
    {
      "channel": 5,
      "note": 88,
      "start": 59.3297,
      "duration": 0.0784,
      "velocity": 127,
      "chip": "ym2612"
    },
    {
      "channel": 5,
      "note": 88,
      "start": 59.412,
      "duration": 0.0857,
      "velocity": 127,
      "chip": "ym2612"
    },
    {
      "channel": 0,
      "note": 70,
      "start": 59.4942,
      "duration": 0.1358,
      "velocity": 121,
      "chip": "ym2612"
    },
    {
      "channel": 1,
      "note": 75,
      "start": 59.4957,
      "duration": 0.1346,
      "velocity": 121,
      "chip": "ym2612"
    },
    {
      "channel": 4,
      "note": 54,
      "start": 59.4973,
      "duration": 0.1337,
      "velocity": 82,
      "chip": "ym2612"
    },
    {
      "channel": 5,
      "note": 88,
      "start": 59.5017,
      "duration": 0.1673,
      "velocity": 116,
      "chip": "ym2612"
    },
    {
      "channel": 0,
      "note": 68,
      "start": 59.6655,
      "duration": 0.1361,
      "velocity": 121,
      "chip": "ym2612"
    },
    {
      "channel": 1,
      "note": 73,
      "start": 59.6669,
      "duration": 0.135,
      "velocity": 121,
      "chip": "ym2612"
    },
    {
      "channel": 4,
      "note": 54,
      "start": 59.6686,
      "duration": 0.134,
      "velocity": 82,
      "chip": "ym2612"
    },
    {
      "channel": 5,
      "note": 9,
      "start": 59.6728,
      "duration": 0.169,
      "velocity": 112,
      "chip": "ym2612"
    },
    {
      "channel": 0,
      "note": 70,
      "start": 59.8371,
      "duration": 0.136,
      "velocity": 121,
      "chip": "ym2612"
    },
    {
      "channel": 1,
      "note": 75,
      "start": 59.8388,
      "duration": 0.1347,
      "velocity": 121,
      "chip": "ym2612"
    },
    {
      "channel": 4,
      "note": 54,
      "start": 59.8414,
      "duration": 0.1327,
      "velocity": 82,
      "chip": "ym2612"
    },
    {
      "channel": 5,
      "note": 58,
      "start": 59.8457,
      "duration": 0.1663,
      "velocity": 112,
      "chip": "ym2612"
    },
    {
      "channel": 0,
      "note": 73,
      "start": 60.0085,
      "duration": 0.1361,
      "velocity": 121,
      "chip": "ym2612"
    },
    {
      "channel": 1,
      "note": 78,
      "start": 60.01,
      "duration": 0.135,
      "velocity": 121,
      "chip": "ym2612"
    },
    {
      "channel": 4,
      "note": 54,
      "start": 60.0117,
      "duration": 0.134,
      "velocity": 82,
      "chip": "ym2612"
    },
    {
      "channel": 5,
      "note": 58,
      "start": 60.0159,
      "duration": 0.0784,
      "velocity": 112,
      "chip": "ym2612"
    },
    {
      "channel": 5,
      "note": 46,
      "start": 60.098,
      "duration": 0.0856,
      "velocity": 112,
      "chip": "ym2612"
    },
    {
      "channel": 0,
      "note": 75,
      "start": 60.18,
      "duration": 0.1361,
      "velocity": 121,
      "chip": "ym2612"
    },
    {
      "channel": 1,
      "note": 80,
      "start": 60.1816,
      "duration": 0.135,
      "velocity": 121,
      "chip": "ym2612"
    },
    {
      "channel": 4,
      "note": 54,
      "start": 60.1832,
      "duration": 0.134,
      "velocity": 82,
      "chip": "ym2612"
    },
    {
      "channel": 5,
      "note": 46,
      "start": 60.1873,
      "duration": 0.1678,
      "velocity": 112,
      "chip": "ym2612"
    },
    {
      "channel": 0,
      "note": 73,
      "start": 60.3516,
      "duration": 0.1361,
      "velocity": 121,
      "chip": "ym2612"
    },
    {
      "channel": 1,
      "note": 78,
      "start": 60.3531,
      "duration": 0.135,
      "velocity": 121,
      "chip": "ym2612"
    },
    {
      "channel": 4,
      "note": 54,
      "start": 60.3547,
      "duration": 0.134,
      "velocity": 82,
      "chip": "ym2612"
    },
    {
      "channel": 5,
      "note": 33,
      "start": 60.359,
      "duration": 0.1678,
      "velocity": 127,
      "chip": "ym2612"
    },
    {
      "channel": 0,
      "note": 70,
      "start": 60.5231,
      "duration": 0.1373,
      "velocity": 121,
      "chip": "ym2612"
    },
    {
      "channel": 1,
      "note": 75,
      "start": 60.5246,
      "duration": 0.1361,
      "velocity": 121,
      "chip": "ym2612"
    },
    {
      "channel": 4,
      "note": 54,
      "start": 60.5263,
      "duration": 0.135,
      "velocity": 82,
      "chip": "ym2612"
    },
    {
      "channel": 5,
      "note": 88,
      "start": 60.5304,
      "duration": 0.1692,
      "velocity": 126,
      "chip": "ym2612"
    },
    {
      "channel": 0,
      "note": 75,
      "start": 60.6961,
      "duration": 0.1347,
      "velocity": 121,
      "chip": "ym2612"
    },
    {
      "channel": 1,
      "note": 80,
      "start": 60.6975,
      "duration": 0.1337,
      "velocity": 121,
      "chip": "ym2612"
    },
    {
      "channel": 4,
      "note": 54,
      "start": 60.6993,
      "duration": 0.1326,
      "velocity": 82,
      "chip": "ym2612"
    },
    {
      "channel": 5,
      "note": 12,
      "start": 60.7034,
      "duration": 0.077,
      "velocity": 112,
      "chip": "ym2612"
    },
    {
      "channel": 5,
      "note": 60,
      "start": 60.7843,
      "duration": 0.0854,
      "velocity": 112,
      "chip": "ym2612"
    },
    {
      "channel": 0,
      "note": 73,
      "start": 60.8662,
      "duration": 0.1362,
      "velocity": 121,
      "chip": "ym2612"
    },
    {
      "channel": 1,
      "note": 78,
      "start": 60.8677,
      "duration": 0.135,
      "velocity": 121,
      "chip": "ym2612"
    },
    {
      "channel": 4,
      "note": 54,
      "start": 60.8693,
      "duration": 0.134,
      "velocity": 82,
      "chip": "ym2612"
    },
    {
      "channel": 5,
      "note": 60,
      "start": 60.8736,
      "duration": 0.1676,
      "velocity": 116,
      "chip": "ym2612"
    },
    {
      "channel": 0,
      "note": 72,
      "start": 61.0377,
      "duration": 0.1362,
      "velocity": 121,
      "chip": "ym2612"
    },
    {
      "channel": 1,
      "note": 77,
      "start": 61.0392,
      "duration": 0.1351,
      "velocity": 121,
      "chip": "ym2612"
    },
    {
      "channel": 4,
      "note": 54,
      "start": 61.0408,
      "duration": 0.1341,
      "velocity": 82,
      "chip": "ym2612"
    },
    {
      "channel": 5,
      "note": 88,
      "start": 61.0451,
      "duration": 0.1687,
      "velocity": 112,
      "chip": "ym2612"
    },
    {
      "channel": 0,
      "note": 58,
      "start": 61.2094,
      "duration": 0.136,
      "velocity": 121,
      "chip": "ym2612"
    },
    {
      "channel": 1,
      "note": 75,
      "start": 61.2111,
      "duration": 0.1347,
      "velocity": 121,
      "chip": "ym2612"
    },
    {
      "channel": 4,
      "note": 54,
      "start": 61.2133,
      "duration": 1.3338,
      "velocity": 82,
      "chip": "ym2612"
    },
    {
      "channel": 5,
      "note": 58,
      "start": 61.2178,
      "duration": 0.163,
      "velocity": 127,
      "chip": "ym2612"
    },
    {
      "channel": 5,
      "note": 88,
      "start": 61.3847,
      "duration": 0.1676,
      "velocity": 116,
      "chip": "ym2612"
    },
    {
      "channel": 5,
      "note": 88,
      "start": 61.5562,
      "duration": 0.1678,
      "velocity": 112,
      "chip": "ym2612"
    },
    {
      "channel": 5,
      "note": 58,
      "start": 61.7278,
      "duration": 0.1696,
      "velocity": 127,
      "chip": "ym2612"
    },
    {
      "channel": 5,
      "note": 88,
      "start": 61.9013,
      "duration": 0.1657,
      "velocity": 116,
      "chip": "ym2612"
    },
    {
      "channel": 5,
      "note": 9,
      "start": 62.0708,
      "duration": 0.1677,
      "velocity": 112,
      "chip": "ym2612"
    },
    {
      "channel": 5,
      "note": 58,
      "start": 62.2424,
      "duration": 0.1676,
      "velocity": 116,
      "chip": "ym2612"
    },
    {
      "channel": 5,
      "note": 88,
      "start": 62.4139,
      "duration": 0.0819,
      "velocity": 116,
      "chip": "ym2612"
    },
    {
      "channel": 5,
      "note": 68,
      "start": 62.4998,
      "duration": 0.1013,
      "velocity": 116,
      "chip": "ym2612"
    },
    {
      "channel": 0,
      "note": 70,
      "start": 62.5856,
      "duration": 0.1493,
      "velocity": 121,
      "chip": "ym2612"
    },
    {
      "channel": 1,
      "note": 75,
      "start": 62.5911,
      "duration": 0.1442,
      "velocity": 108,
      "chip": "ym2612"
    },
    {
      "channel": 4,
      "note": 53,
      "start": 62.6008,
      "duration": 0.3071,
      "velocity": 82,
      "chip": "ym2612"
    },
    {
      "channel": 5,
      "note": 68,
      "start": 62.6055,
      "duration": 0.3398,
      "velocity": 127,
      "chip": "ym2612"
    },
    {
      "channel": 3,
      "note": 78,
      "start": 62.6337,
      "duration": 0.1385,
      "velocity": 108,
      "chip": "ym2612"
    },
    {
      "channel": 0,
      "note": 58,
      "start": 62.7703,
      "duration": 0.1366,
      "velocity": 121,
      "chip": "ym2612"
    },
    {
      "channel": 1,
      "note": 73,
      "start": 62.7718,
      "duration": 0.1355,
      "velocity": 108,
      "chip": "ym2612"
    },
    {
      "channel": 3,
      "note": 73,
      "start": 62.8052,
      "duration": 0.1393,
      "velocity": 108,
      "chip": "ym2612"
    },
    {
      "channel": 0,
      "note": 60,
      "start": 62.9426,
      "duration": 0.1354,
      "velocity": 121,
      "chip": "ym2612"
    },
    {
      "channel": 1,
      "note": 75,
      "start": 62.9441,
      "duration": 0.1343,
      "velocity": 108,
      "chip": "ym2612"
    },
    {
      "channel": 5,
      "note": 88,
      "start": 62.9493,
      "duration": 0.1678,
      "velocity": 116,
      "chip": "ym2612"
    },
    {
      "channel": 3,
      "note": 75,
      "start": 62.9779,
      "duration": 0.1373,
      "velocity": 108,
      "chip": "ym2612"
    },
    {
      "channel": 0,
      "note": 72,
      "start": 63.1134,
      "duration": 0.1362,
      "velocity": 121,
      "chip": "ym2612"
    },
    {
      "channel": 1,
      "note": 87,
      "start": 63.1149,
      "duration": 0.1351,
      "velocity": 108,
      "chip": "ym2612"
    },
    {
      "channel": 4,
      "note": 51,
      "start": 63.1167,
      "duration": 0.1339,
      "velocity": 82,
      "chip": "ym2612"
    },
    {
      "channel": 5,
      "note": 9,
      "start": 63.1209,
      "duration": 0.1668,
      "velocity": 112,
      "chip": "ym2612"
    },
    {
      "channel": 3,
      "note": 87,
      "start": 63.1483,
      "duration": 0.1385,
      "velocity": 108,
      "chip": "ym2612"
    },
    {
      "channel": 0,
      "note": 55,
      "start": 63.2849,
      "duration": 0.1362,
      "velocity": 121,
      "chip": "ym2612"
    },
    {
      "channel": 1,
      "note": 70,
      "start": 63.2864,
      "duration": 0.1351,
      "velocity": 108,
      "chip": "ym2612"
    },
    {
      "channel": 5,
      "note": 58,
      "start": 63.2915,
      "duration": 0.1685,
      "velocity": 114,
      "chip": "ym2612"
    },
    {
      "channel": 3,
      "note": 70,
      "start": 63.3199,
      "duration": 0.1385,
      "velocity": 108,
      "chip": "ym2612"
    },
    {
      "channel": 0,
      "note": 57,
      "start": 63.4564,
      "duration": 0.1362,
      "velocity": 121,
      "chip": "ym2612"
    },
    {
      "channel": 1,
      "note": 72,
      "start": 63.4579,
      "duration": 0.1351,
      "velocity": 108,
      "chip": "ym2612"
    },
    {
      "channel": 4,
      "note": 51,
      "start": 63.4597,
      "duration": 0.134,
      "velocity": 82,
      "chip": "ym2612"
    },
    {
      "channel": 5,
      "note": 88,
      "start": 63.4639,
      "duration": 0.159,
      "velocity": 112,
      "chip": "ym2612"
    },
    {
      "channel": 3,
      "note": 72,
      "start": 63.4914,
      "duration": 0.1315,
      "velocity": 108,
      "chip": "ym2612"
    }
  ]
}