{
  "track_name": "10 - Final Zone",
  "duration_sec": 21.598,
  "sample_rate": 44100,
  "note_count": 276,
  "unique_pitches": 34,
  "pitch_range": 59,
  "avg_note_duration": 0.2804,
  "reconstruction_stats": {
    "notes_reconstructed": 276,
    "keyon_events": 276,
    "keyoff_events": 273,
    "orphan_keyons": 3,
    "unique_pitches": 34,
    "pitch_range": 59,
    "avg_duration_sec": 0.2804
  },
  "metadata": {
    "source": "S\\Sonic the Hedgehog\\10 - Final Zone.vgm"
  },
  "notes": [
    {
      "channel": 0,
      "note": 104,
      "start": 0.0,
      "duration": 0.0088,
      "velocity": 101,
      "chip": "ym2612"
    },
    {
      "channel": 1,
      "note": 61,
      "start": 0.0,
      "duration": 0.0089,
      "velocity": 102,
      "chip": "ym2612"
    },
    {
      "channel": 4,
      "note": 87,
      "start": 0.0,
      "duration": 0.0,
      "velocity": 101,
      "chip": "ym2612"
    },
    {
      "channel": 2,
      "note": 97,
      "start": 0.001,
      "duration": 0.0081,
      "velocity": 103,
      "chip": "ym2612"
    },
    {
      "channel": 3,
      "note": 97,
      "start": 0.0021,
      "duration": 0.007,
      "velocity": 103,
      "chip": "ym2612"
    },
    {
      "channel": 4,
      "note": 104,
      "start": 0.0032,
      "duration": 0.0061,
      "velocity": 101,
      "chip": "ym2612"
    },
    {
      "channel": 0,
      "note": 101,
      "start": 0.016,
      "duration": 0.0077,
      "velocity": 101,
      "chip": "ym2612"
    },
    {
      "channel": 1,
      "note": 49,
      "start": 0.0162,
      "duration": 0.0076,
      "velocity": 102,
      "chip": "ym2612"
    },
    {
      "channel": 2,
      "note": 85,
      "start": 0.0164,
      "duration": 0.0076,
      "velocity": 103,
      "chip": "ym2612"
    },
    {
      "channel": 3,
      "note": 85,
      "start": 0.0166,
      "duration": 0.0075,
      "velocity": 103,
      "chip": "ym2612"
    },
    {
      "channel": 4,
      "note": 101,
      "start": 0.0168,
      "duration": 0.0075,
      "velocity": 101,
      "chip": "ym2612"
    },
    {
      "channel": 0,
      "note": 101,
      "start": 0.0313,
      "duration": 0.0087,
      "velocity": 101,
      "chip": "ym2612"
    },
    {
      "channel": 1,
      "note": 49,
      "start": 0.0315,
      "duration": 0.0086,
      "velocity": 102,
      "chip": "ym2612"
    },
    {
      "channel": 2,
      "note": 85,
      "start": 0.0317,
      "duration": 0.0086,
      "velocity": 103,
      "chip": "ym2612"
    },
    {
      "channel": 3,
      "note": 85,
      "start": 0.0319,
      "duration": 0.0085,
      "velocity": 103,
      "chip": "ym2612"
    },
    {
      "channel": 4,
      "note": 101,
      "start": 0.032,
      "duration": 0.0085,
      "velocity": 101,
      "chip": "ym2612"
    },
    {
      "channel": 0,
      "note": 104,
      "start": 0.0477,
      "duration": 0.0077,
      "velocity": 101,
      "chip": "ym2612"
    },
    {
      "channel": 1,
      "note": 61,
      "start": 0.0478,
      "duration": 0.0077,
      "velocity": 102,
      "chip": "ym2612"
    },
    {
      "channel": 2,
      "note": 97,
      "start": 0.048,
      "duration": 0.0077,
      "velocity": 103,
      "chip": "ym2612"
    },
    {
      "channel": 3,
      "note": 97,
      "start": 0.0482,
      "duration": 0.0077,
      "velocity": 103,
      "chip": "ym2612"
    },
    {
      "channel": 4,
      "note": 104,
      "start": 0.0484,
      "duration": 0.0077,
      "velocity": 101,
      "chip": "ym2612"
    },
    {
      "channel": 0,
      "note": 104,
      "start": 0.0555,
      "duration": 0.0071,
      "velocity": 101,
      "chip": "ym2612"
    },
    {
      "channel": 1,
      "note": 61,
      "start": 0.0556,
      "duration": 0.007,
      "velocity": 102,
      "chip": "ym2612"
    },
    {
      "channel": 2,
      "note": 97,
      "start": 0.0559,
      "duration": 0.007,
      "velocity": 103,
      "chip": "ym2612"
    },
    {
      "channel": 3,
      "note": 97,
      "start": 0.056,
      "duration": 0.007,
      "velocity": 103,
      "chip": "ym2612"
    },
    {
      "channel": 4,
      "note": 104,
      "start": 0.0562,
      "duration": 0.0069,
      "velocity": 101,
      "chip": "ym2612"
    },
    {
      "channel": 1,
      "note": 57,
      "start": 0.0976,
      "duration": 0.0078,
      "velocity": 102,
      "chip": "ym2612"
    },
    {
      "channel": 1,
      "note": 56,
      "start": 0.1056,
      "duration": 0.0072,
      "velocity": 102,
      "chip": "ym2612"
    },
    {
      "channel": 1,
      "note": 54,
      "start": 0.1129,
      "duration": 0.3263,
      "velocity": 102,
      "chip": "ym2612"
    },
    {
      "channel": 3,
      "note": 66,
      "start": 0.1141,
      "duration": 0.0748,
      "velocity": 101,
      "chip": "ym2612"
    },
    {
      "channel": 3,
      "note": 61,
      "start": 0.1892,
      "duration": 0.2502,
      "velocity": 101,
      "chip": "ym2612"
    },
    {
      "channel": 0,
      "note": 90,
      "start": 0.4391,
      "duration": 0.1981,
      "velocity": 101,
      "chip": "ym2612"
    },
    {
      "channel": 1,
      "note": 54,
      "start": 0.4393,
      "duration": 0.1925,
      "velocity": 102,
      "chip": "ym2612"
    },
    {
      "channel": 3,
      "note": 68,
      "start": 0.4395,
      "duration": 0.0757,
      "velocity": 101,
      "chip": "ym2612"
    },
    {
      "channel": 4,
      "note": 90,
      "start": 0.4397,
      "duration": 0.1982,
      "velocity": 101,
      "chip": "ym2612"
    },
    {
      "channel": 3,
      "note": 61,
      "start": 0.5154,
      "duration": 0.1223,
      "velocity": 101,
      "chip": "ym2612"
    },
    {
      "channel": 1,
      "note": 54,
      "start": 0.632,
      "duration": 0.0055,
      "velocity": 102,
      "chip": "ym2612"
    },
    {
      "channel": 0,
      "note": 92,
      "start": 0.6374,
      "duration": 0.1691,
      "velocity": 101,
      "chip": "ym2612"
    },
    {
      "channel": 1,
      "note": 54,
      "start": 0.6376,
      "duration": 0.0922,
      "velocity": 102,
      "chip": "ym2612"
    },
    {
      "channel": 3,
      "note": 69,
      "start": 0.6378,
      "duration": 0.0923,
      "velocity": 101,
      "chip": "ym2612"
    },
    {
      "channel": 4,
      "note": 92,
      "start": 0.638,
      "duration": 0.169,
      "velocity": 101,
      "chip": "ym2612"
    },
    {
      "channel": 1,
      "note": 54,
      "start": 0.7299,
      "duration": 0.0905,
      "velocity": 102,
      "chip": "ym2612"
    },
    {
      "channel": 2,
      "note": 66,
      "start": 0.7301,
      "duration": 0.0052,
      "velocity": 103,
      "chip": "ym2612"
    },
    {
      "channel": 3,
      "note": 61,
      "start": 0.7303,
      "duration": 0.0765,
      "velocity": 101,
      "chip": "ym2612"
    },
    {
      "channel": 0,
      "note": 93,
      "start": 0.8066,
      "duration": 0.0284,
      "velocity": 101,
      "chip": "ym2612"
    },
    {
      "channel": 2,
      "note": 69,
      "start": 0.8068,
      "duration": 0.0058,
      "velocity": 103,
      "chip": "ym2612"
    },
    {
      "channel": 3,
      "note": 68,
      "start": 0.807,
      "duration": 0.0137,
      "velocity": 101,
      "chip": "ym2612"
    },
    {
      "channel": 4,
      "note": 93,
      "start": 0.8072,
      "duration": 0.0286,
      "velocity": 101,
      "chip": "ym2612"
    },
    {
      "channel": 1,
      "note": 49,
      "start": 0.8205,
      "duration": 0.0147,
      "velocity": 102,
      "chip": "ym2612"
    },
    {
      "channel": 2,
      "note": 73,
      "start": 0.8207,
      "duration": 0.0073,
      "velocity": 103,
      "chip": "ym2612"
    },
    {
      "channel": 3,
      "note": 61,
      "start": 0.8209,
      "duration": 0.0147,
      "velocity": 101,
      "chip": "ym2612"
    },
    {
      "channel": 0,
      "note": 95,
      "start": 0.8351,
      "duration": 0.17,
      "velocity": 101,
      "chip": "ym2612"
    },
    {
      "channel": 1,
      "note": 54,
      "start": 0.8353,
      "duration": 0.0057,
      "velocity": 102,
      "chip": "ym2612"
    },
    {
      "channel": 2,
      "note": 78,
      "start": 0.8355,
      "duration": 0.0056,
      "velocity": 103,
      "chip": "ym2612"
    },
    {
      "channel": 3,
      "note": 66,
      "start": 0.8357,
      "duration": 0.0767,
      "velocity": 101,
      "chip": "ym2612"
    },
    {
      "channel": 4,
      "note": 95,
      "start": 0.8359,
      "duration": 0.1697,
      "velocity": 101,
      "chip": "ym2612"
    },
    {
      "channel": 1,
      "note": 49,
      "start": 0.8411,
      "duration": 0.0709,
      "velocity": 102,
      "chip": "ym2612"
    },
    {
      "channel": 2,
      "note": 76,
      "start": 0.8413,
      "duration": 0.0709,
      "velocity": 103,
      "chip": "ym2612"
    },
    {
      "channel": 1,
      "note": 54,
      "start": 0.9122,
      "duration": 0.3263,
      "velocity": 102,
      "chip": "ym2612"
    },
    {
      "channel": 2,
      "note": 78,
      "start": 0.9124,
      "duration": 1.1482,
      "velocity": 103,
      "chip": "ym2612"
    },
    {
      "channel": 3,
      "note": 61,
      "start": 0.9125,
      "duration": 0.0928,
      "velocity": 101,
      "chip": "ym2612"
    },
    {
      "channel": 0,
      "note": 93,
      "start": 1.0052,
      "duration": 0.3265,
      "velocity": 101,
      "chip": "ym2612"
    },
    {
      "channel": 3,
      "note": 68,
      "start": 1.0055,
      "duration": 0.2333,
      "velocity": 101,
      "chip": "ym2612"
    },
    {
      "channel": 4,
      "note": 93,
      "start": 1.0057,
      "duration": 0.3266,
      "velocity": 101,
      "chip": "ym2612"
    },
    {
      "channel": 1,
      "note": 49,
      "start": 1.2386,
      "duration": 0.0933,
      "velocity": 102,
      "chip": "ym2612"
    },
    {
      "channel": 3,
      "note": 61,
      "start": 1.2389,
      "duration": 0.0932,
      "velocity": 101,
      "chip": "ym2612"
    },
    {
      "channel": 0,
      "note": 92,
      "start": 1.3318,
      "duration": 0.3094,
      "velocity": 101,
      "chip": "ym2612"
    },
    {
      "channel": 1,
      "note": 54,
      "start": 1.332,
      "duration": 0.3094,
      "velocity": 102,
      "chip": "ym2612"
    },
    {
      "channel": 3,
      "note": 69,
      "start": 1.3322,
      "duration": 0.0757,
      "velocity": 101,
      "chip": "ym2612"
    },
    {
      "channel": 4,
      "note": 92,
      "start": 1.3324,
      "duration": 0.3094,
      "velocity": 101,
      "chip": "ym2612"
    },
    {
      "channel": 3,
      "note": 61,
      "start": 1.4081,
      "duration": 0.2335,
      "velocity": 101,
      "chip": "ym2612"
    },
    {
      "channel": 0,
      "note": 93,
      "start": 1.6413,
      "duration": 0.326,
      "velocity": 101,
      "chip": "ym2612"
    },
    {
      "channel": 1,
      "note": 52,
      "start": 1.6415,
      "duration": 0.3261,
      "velocity": 102,
      "chip": "ym2612"
    },
    {
      "channel": 3,
      "note": 68,
      "start": 1.6417,
      "duration": 0.0923,
      "velocity": 101,
      "chip": "ym2612"
    },
    {
      "channel": 4,
      "note": 93,
      "start": 1.6419,
      "duration": 0.326,
      "velocity": 101,
      "chip": "ym2612"
    },
    {
      "channel": 3,
      "note": 61,
      "start": 1.7342,
      "duration": 0.2335,
      "velocity": 101,
      "chip": "ym2612"
    },
    {
      "channel": 0,
      "note": 97,
      "start": 1.9675,
      "duration": 1.7416,
      "velocity": 101,
      "chip": "ym2612"
    },
    {
      "channel": 1,
      "note": 50,
      "start": 1.9677,
      "duration": 0.3262,
      "velocity": 102,
      "chip": "ym2612"
    },
    {
      "channel": 3,
      "note": 66,
      "start": 1.9679,
      "duration": 0.0929,
      "velocity": 101,
      "chip": "ym2612"
    },
    {
      "channel": 4,
      "note": 97,
      "start": 1.9681,
      "duration": 1.7417,
      "velocity": 101,
      "chip": "ym2612"
    },
    {
      "channel": 2,
      "note": 93,
      "start": 2.0607,
      "duration": 0.2334,
      "velocity": 103,
      "chip": "ym2612"
    },
    {
      "channel": 3,
      "note": 61,
      "start": 2.0609,
      "duration": 0.2333,
      "velocity": 101,
      "chip": "ym2612"
    },
    {
      "channel": 1,
      "note": 50,
      "start": 2.2941,
      "duration": 0.2105,
      "velocity": 102,
      "chip": "ym2612"
    },
    {
      "channel": 3,
      "note": 68,
      "start": 2.2944,
      "duration": 0.0771,
      "velocity": 101,
      "chip": "ym2612"
    },
    {
      "channel": 2,
      "note": 90,
      "start": 2.3714,
      "duration": 0.1334,
      "velocity": 103,
      "chip": "ym2612"
    },
    {
      "channel": 3,
      "note": 61,
      "start": 2.3716,
      "duration": 0.1395,
      "velocity": 101,
      "chip": "ym2612"
    },
    {
      "channel": 1,
      "note": 50,
      "start": 2.5048,
      "duration": 0.006,
      "velocity": 102,
      "chip": "ym2612"
    },
    {
      "channel": 1,
      "note": 50,
      "start": 2.5109,
      "duration": 0.0769,
      "velocity": 102,
      "chip": "ym2612"
    },
    {
      "channel": 2,
      "note": 86,
      "start": 2.5111,
      "duration": 0.0058,
      "velocity": 103,
      "chip": "ym2612"
    },
    {
      "channel": 3,
      "note": 69,
      "start": 2.5113,
      "duration": 0.077,
      "velocity": 101,
      "chip": "ym2612"
    },
    {
      "channel": 1,
      "note": 50,
      "start": 2.588,
      "duration": 0.11,
      "velocity": 102,
      "chip": "ym2612"
    },
    {
      "channel": 2,
      "note": 83,
      "start": 2.5883,
      "duration": 0.2178,
      "velocity": 103,
      "chip": "ym2612"
    },
    {
      "channel": 3,
      "note": 61,
      "start": 2.5884,
      "duration": 0.0937,
      "velocity": 101,
      "chip": "ym2612"
    },
    {
      "channel": 3,
      "note": 66,
      "start": 2.6823,
      "duration": 0.016,
      "velocity": 101,
      "chip": "ym2612"
    },
    {
      "channel": 1,
      "note": 45,
      "start": 2.6982,
      "duration": 0.0141,
      "velocity": 102,
      "chip": "ym2612"
    },
    {
      "channel": 3,
      "note": 61,
      "start": 2.6984,
      "duration": 0.0142,
      "velocity": 101,
      "chip": "ym2612"
    },
    {
      "channel": 1,
      "note": 52,
      "start": 2.7125,
      "duration": 0.0933,
      "velocity": 102,
      "chip": "ym2612"
    },
    {
      "channel": 3,
      "note": 68,
      "start": 2.7127,
      "duration": 0.0936,
      "velocity": 101,
      "chip": "ym2612"
    },
    {
      "channel": 1,
      "note": 52,
      "start": 2.806,
      "duration": 0.3274,
      "velocity": 102,
      "chip": "ym2612"
    },
    {
      "channel": 2,
      "note": 95,
      "start": 2.8062,
      "duration": 0.0772,
      "velocity": 103,
      "chip": "ym2612"
    },
    {
      "channel": 3,
      "note": 61,
      "start": 2.8064,
      "duration": 0.0771,
      "velocity": 101,
      "chip": "ym2612"
    },
    {
      "channel": 3,
      "note": 71,
      "start": 2.8836,
      "duration": 0.2502,
      "velocity": 101,
      "chip": "ym2612"
    },
    {
      "channel": 1,
      "note": 52,
      "start": 3.1336,
      "duration": 0.0776,
      "velocity": 102,
      "chip": "ym2612"
    },
    {
      "channel": 2,
      "note": 93,
      "start": 3.1338,
      "duration": 0.0065,
      "velocity": 103,
      "chip": "ym2612"
    },
    {
      "channel": 3,
      "note": 61,
      "start": 3.1339,
      "duration": 0.0776,
      "velocity": 101,
      "chip": "ym2612"
    },
    {
      "channel": 1,
      "note": 53,
      "start": 3.2113,
      "duration": 0.0769,
      "velocity": 102,
      "chip": "ym2612"
    },
    {
      "channel": 2,
      "note": 92,
      "start": 3.2115,
      "duration": 0.0058,
      "velocity": 103,
      "chip": "ym2612"
    },
    {
      "channel": 3,
      "note": 69,
      "start": 3.2116,
      "duration": 0.077,
      "velocity": 101,
      "chip": "ym2612"
    },
    {
      "channel": 1,
      "note": 53,
      "start": 3.2884,
      "duration": 0.327,
      "velocity": 102,
      "chip": "ym2612"
    },
    {
      "channel": 2,
      "note": 89,
      "start": 3.2886,
      "duration": 0.421,
      "velocity": 103,
      "chip": "ym2612"
    },
    {
      "channel": 3,
      "note": 61,
      "start": 3.2888,
      "duration": 0.0933,
      "velocity": 101,
      "chip": "ym2612"
    },
    {
      "channel": 3,
      "note": 68,
      "start": 3.3822,
      "duration": 0.2334,
      "velocity": 101,
      "chip": "ym2612"
    },
    {
      "channel": 1,
      "note": 57,
      "start": 3.6155,
      "duration": 0.0061,
      "velocity": 102,
      "chip": "ym2612"
    },
    {
      "channel": 3,
      "note": 61,
      "start": 3.6158,
      "duration": 0.0939,
      "velocity": 101,
      "chip": "ym2612"
    },
    {
      "channel": 1,
      "note": 56,
      "start": 3.6218,
      "duration": 0.0875,
      "velocity": 102,
      "chip": "ym2612"
    },
    {
      "channel": 1,
      "note": 54,
      "start": 3.7094,
      "duration": 0.3098,
      "velocity": 102,
      "chip": "ym2612"
    },
    {
      "channel": 3,
      "note": 66,
      "start": 3.7099,
      "duration": 0.0758,
      "velocity": 101,
      "chip": "ym2612"
    },
    {
      "channel": 3,
      "note": 61,
      "start": 3.7859,
      "duration": 0.2335,
      "velocity": 101,
      "chip": "ym2612"
    },
    {
      "channel": 0,
      "note": 90,
      "start": 4.0192,
      "duration": 0.215,
      "velocity": 101,
      "chip": "ym2612"
    },
    {
      "channel": 1,
      "note": 54,
      "start": 4.0193,
      "duration": 0.2092,
      "velocity": 102,
      "chip": "ym2612"
    },
    {
      "channel": 3,
      "note": 68,
      "start": 4.0195,
      "duration": 0.0923,
      "velocity": 101,
      "chip": "ym2612"
    },
    {
      "channel": 4,
      "note": 90,
      "start": 4.0197,
      "duration": 0.2151,
      "velocity": 101,
      "chip": "ym2612"
    },
    {
      "channel": 3,
      "note": 61,
      "start": 4.112,
      "duration": 0.1226,
      "velocity": 101,
      "chip": "ym2612"
    },
    {
      "channel": 1,
      "note": 54,
      "start": 4.2286,
      "duration": 0.0057,
      "velocity": 102,
      "chip": "ym2612"
    },
    {
      "channel": 0,
      "note": 92,
      "start": 4.2343,
      "duration": 0.1684,
      "velocity": 101,
      "chip": "ym2612"
    },
    {
      "channel": 1,
      "note": 54,
      "start": 4.2345,
      "duration": 0.0919,
      "velocity": 102,
      "chip": "ym2612"
    },
    {
      "channel": 3,
      "note": 69,
      "start": 4.2347,
      "duration": 0.0921,
      "velocity": 101,
      "chip": "ym2612"
    },
    {
      "channel": 4,
      "note": 92,
      "start": 4.2349,
      "duration": 0.1684,
      "velocity": 101,
      "chip": "ym2612"
    },
    {
      "channel": 1,
      "note": 54,
      "start": 4.3265,
      "duration": 0.0902,
      "velocity": 102,
      "chip": "ym2612"
    },
    {
      "channel": 2,
      "note": 66,
      "start": 4.3268,
      "duration": 0.0048,
      "velocity": 103,
      "chip": "ym2612"
    },
    {
      "channel": 3,
      "note": 61,
      "start": 4.327,
      "duration": 0.0761,
      "velocity": 101,
      "chip": "ym2612"
    },
    {
      "channel": 0,
      "note": 93,
      "start": 4.4029,
      "duration": 0.0295,
      "velocity": 101,
      "chip": "ym2612"
    },
    {
      "channel": 2,
      "note": 69,
      "start": 4.403,
      "duration": 0.0072,
      "velocity": 103,
      "chip": "ym2612"
    },
    {
      "channel": 3,
      "note": 68,
      "start": 4.4032,
      "duration": 0.0139,
      "velocity": 101,
      "chip": "ym2612"
    },
    {
      "channel": 4,
      "note": 93,
      "start": 4.4034,
      "duration": 0.0298,
      "velocity": 101,
      "chip": "ym2612"
    },
    {
      "channel": 1,
      "note": 49,
      "start": 4.4169,
      "duration": 0.0157,
      "velocity": 102,
      "chip": "ym2612"
    },
    {
      "channel": 2,
      "note": 73,
      "start": 4.4171,
      "duration": 0.0085,
      "velocity": 103,
      "chip": "ym2612"
    },
    {
      "channel": 3,
      "note": 61,
      "start": 4.4173,
      "duration": 0.0157,
      "velocity": 101,
      "chip": "ym2612"
    },
    {
      "channel": 0,
      "note": 95,
      "start": 4.4325,
      "duration": 0.1697,
      "velocity": 101,
      "chip": "ym2612"
    },
    {
      "channel": 1,
      "note": 54,
      "start": 4.4327,
      "duration": 0.0056,
      "velocity": 102,
      "chip": "ym2612"
    },
    {
      "channel": 2,
      "note": 78,
      "start": 4.4329,
      "duration": 0.0056,
      "velocity": 103,
      "chip": "ym2612"
    },
    {
      "channel": 3,
      "note": 66,
      "start": 4.4331,
      "duration": 0.0764,
      "velocity": 101,
      "chip": "ym2612"
    },
    {
      "channel": 4,
      "note": 95,
      "start": 4.4333,
      "duration": 0.1694,
      "velocity": 101,
      "chip": "ym2612"
    },
    {
      "channel": 1,
      "note": 49,
      "start": 4.4385,
      "duration": 0.0706,
      "velocity": 102,
      "chip": "ym2612"
    },
    {
      "channel": 2,
      "note": 76,
      "start": 4.4387,
      "duration": 0.0706,
      "velocity": 103,
      "chip": "ym2612"
    },
    {
      "channel": 1,
      "note": 54,
      "start": 4.5093,
      "duration": 0.3263,
      "velocity": 102,
      "chip": "ym2612"
    },
    {
      "channel": 2,
      "note": 78,
      "start": 4.5095,
      "duration": 1.1329,
      "velocity": 103,
      "chip": "ym2612"
    },
    {
      "channel": 3,
      "note": 61,
      "start": 4.5097,
      "duration": 0.0928,
      "velocity": 101,
      "chip": "ym2612"
    },
    {
      "channel": 0,
      "note": 93,
      "start": 4.6024,
      "duration": 0.3101,
      "velocity": 101,
      "chip": "ym2612"
    },
    {
      "channel": 3,
      "note": 68,
      "start": 4.6026,
      "duration": 0.2333,
      "velocity": 101,
      "chip": "ym2612"
    },
    {
      "channel": 4,
      "note": 93,
      "start": 4.6028,
      "duration": 0.3102,
      "velocity": 101,
      "chip": "ym2612"
    },
    {
      "channel": 1,
      "note": 49,
      "start": 4.8358,
      "duration": 0.0769,
      "velocity": 102,
      "chip": "ym2612"
    },
    {
      "channel": 3,
      "note": 61,
      "start": 4.836,
      "duration": 0.0769,
      "velocity": 101,
      "chip": "ym2612"
    },
    {
      "channel": 0,
      "note": 92,
      "start": 4.9126,
      "duration": 0.326,
      "velocity": 101,
      "chip": "ym2612"
    },
    {
      "channel": 1,
      "note": 54,
      "start": 4.9128,
      "duration": 0.326,
      "velocity": 102,
      "chip": "ym2612"
    },
    {
      "channel": 3,
      "note": 69,
      "start": 4.913,
      "duration": 0.0923,
      "velocity": 101,
      "chip": "ym2612"
    },
    {
      "channel": 4,
      "note": 92,
      "start": 4.9132,
      "duration": 0.326,
      "velocity": 101,
      "chip": "ym2612"
    },
    {
      "channel": 3,
      "note": 61,
      "start": 5.0055,
      "duration": 0.2335,
      "velocity": 101,
      "chip": "ym2612"
    },
    {
      "channel": 0,
      "note": 93,
      "start": 5.2388,
      "duration": 0.3267,
      "velocity": 101,
      "chip": "ym2612"
    },
    {
      "channel": 1,
      "note": 52,
      "start": 5.239,
      "duration": 0.3268,
      "velocity": 102,
      "chip": "ym2612"
    },
    {
      "channel": 3,
      "note": 68,
      "start": 5.2392,
      "duration": 0.093,
      "velocity": 101,
      "chip": "ym2612"
    },
    {
      "channel": 4,
      "note": 93,
      "start": 5.2393,
      "duration": 0.3267,
      "velocity": 101,
      "chip": "ym2612"
    },
    {
      "channel": 3,
      "note": 61,
      "start": 5.3324,
      "duration": 0.2335,
      "velocity": 101,
      "chip": "ym2612"
    },
    {
      "channel": 0,
      "note": 98,
      "start": 5.5656,
      "duration": 0.7122,
      "velocity": 101,
      "chip": "ym2612"
    },
    {
      "channel": 1,
      "note": 50,
      "start": 5.5658,
      "duration": 0.3266,
      "velocity": 102,
      "chip": "ym2612"
    },
    {
      "channel": 3,
      "note": 66,
      "start": 5.566,
      "duration": 0.0766,
      "velocity": 101,
      "chip": "ym2612"
    },
    {
      "channel": 4,
      "note": 98,
      "start": 5.5663,
      "duration": 0.7122,
      "velocity": 101,
      "chip": "ym2612"
    },
    {
      "channel": 2,
      "note": 93,
      "start": 5.6425,
      "duration": 0.2501,
      "velocity": 103,
      "chip": "ym2612"
    },
    {
      "channel": 3,
      "note": 61,
      "start": 5.6427,
      "duration": 0.25,
      "velocity": 101,
      "chip": "ym2612"
    },
    {
      "channel": 1,
      "note": 50,
      "start": 5.8926,
      "duration": 0.1939,
      "velocity": 102,
      "chip": "ym2612"
    },
    {
      "channel": 3,
      "note": 68,
      "start": 5.8928,
      "duration": 0.0771,
      "velocity": 101,
      "chip": "ym2612"
    },
    {
      "channel": 2,
      "note": 90,
      "start": 5.97,
      "duration": 0.1167,
      "velocity": 103,
      "chip": "ym2612"
    },
    {
      "channel": 3,
      "note": 61,
      "start": 5.9702,
      "duration": 0.1238,
      "velocity": 101,
      "chip": "ym2612"
    },
    {
      "channel": 1,
      "note": 50,
      "start": 6.0866,
      "duration": 0.0069,
      "velocity": 102,
      "chip": "ym2612"
    },
    {
      "channel": 1,
      "note": 50,
      "start": 6.0937,
      "duration": 0.0769,
      "velocity": 102,
      "chip": "ym2612"
    },
    {
      "channel": 2,
      "note": 86,
      "start": 6.0939,
      "duration": 0.0059,
      "velocity": 103,
      "chip": "ym2612"
    },
    {
      "channel": 3,
      "note": 69,
      "start": 6.0941,
      "duration": 0.077,
      "velocity": 101,
      "chip": "ym2612"
    },
    {
      "channel": 1,
      "note": 50,
      "start": 6.1708,
      "duration": 0.0928,
      "velocity": 102,
      "chip": "ym2612"
    },
    {
      "channel": 2,
      "note": 83,
      "start": 6.171,
      "duration": 0.2003,
      "velocity": 103,
      "chip": "ym2612"
    },
    {
      "channel": 3,
      "note": 61,
      "start": 6.1712,
      "duration": 0.0767,
      "velocity": 101,
      "chip": "ym2612"
    },
    {
      "channel": 3,
      "note": 66,
      "start": 6.248,
      "duration": 0.0157,
      "velocity": 101,
      "chip": "ym2612"
    },
    {
      "channel": 1,
      "note": 45,
      "start": 6.2637,
      "duration": 0.0144,
      "velocity": 102,
      "chip": "ym2612"
    },
    {
      "channel": 3,
      "note": 61,
      "start": 6.2639,
      "duration": 0.0144,
      "velocity": 101,
      "chip": "ym2612"
    },
    {
      "channel": 0,
      "note": 100,
      "start": 6.278,
      "duration": 0.4969,
      "velocity": 101,
      "chip": "ym2612"
    },
    {
      "channel": 1,
      "note": 52,
      "start": 6.2782,
      "duration": 0.0928,
      "velocity": 102,
      "chip": "ym2612"
    },
    {
      "channel": 3,
      "note": 68,
      "start": 6.2784,
      "duration": 0.093,
      "velocity": 101,
      "chip": "ym2612"
    },
    {
      "channel": 4,
      "note": 100,
      "start": 6.2786,
      "duration": 0.4971,
      "velocity": 101,
      "chip": "ym2612"
    },
    {
      "channel": 1,
      "note": 52,
      "start": 6.3712,
      "duration": 0.3098,
      "velocity": 102,
      "chip": "ym2612"
    },
    {
      "channel": 2,
      "note": 95,
      "start": 6.3714,
      "duration": 0.0761,
      "velocity": 103,
      "chip": "ym2612"
    },
    {
      "channel": 3,
      "note": 61,
      "start": 6.3716,
      "duration": 0.0761,
      "velocity": 101,
      "chip": "ym2612"
    },
    {
      "channel": 3,
      "note": 71,
      "start": 6.4478,
      "duration": 0.2336,
      "velocity": 101,
      "chip": "ym2612"
    },
    {
      "channel": 1,
      "note": 52,
      "start": 6.6811,
      "duration": 0.094,
      "velocity": 102,
      "chip": "ym2612"
    },
    {
      "channel": 2,
      "note": 93,
      "start": 6.6813,
      "duration": 0.0069,
      "velocity": 103,
      "chip": "ym2612"
    },
    {
      "channel": 3,
      "note": 61,
      "start": 6.6815,
      "duration": 0.094,
      "velocity": 101,
      "chip": "ym2612"
    },
    {
      "channel": 0,
      "note": 101,
      "start": 6.7751,
      "duration": 0.4802,
      "velocity": 101,
      "chip": "ym2612"
    },
    {
      "channel": 1,
      "note": 53,
      "start": 6.7753,
      "duration": 0.076,
      "velocity": 102,
      "chip": "ym2612"
    },
    {
      "channel": 2,
      "note": 92,
      "start": 6.7755,
      "duration": 0.005,
      "velocity": 103,
      "chip": "ym2612"
    },
    {
      "channel": 3,
      "note": 69,
      "start": 6.7756,
      "duration": 0.076,
      "velocity": 101,
      "chip": "ym2612"
    },
    {
      "channel": 4,
      "note": 101,
      "start": 6.7758,
      "duration": 0.4803,
      "velocity": 101,
      "chip": "ym2612"
    },
    {
      "channel": 1,
      "note": 53,
      "start": 6.8514,
      "duration": 0.3269,
      "velocity": 102,
      "chip": "ym2612"
    },
    {
      "channel": 2,
      "note": 89,
      "start": 6.8517,
      "duration": 0.4041,
      "velocity": 103,
      "chip": "ym2612"
    },
    {
      "channel": 3,
      "note": 61,
      "start": 6.8518,
      "duration": 0.0931,
      "velocity": 101,
      "chip": "ym2612"
    },
    {
      "channel": 3,
      "note": 68,
      "start": 6.945,
      "duration": 0.2334,
      "velocity": 101,
      "chip": "ym2612"
    },
    {
      "channel": 1,
      "note": 53,
      "start": 7.1784,
      "duration": 0.0771,
      "velocity": 102,
      "chip": "ym2612"
    },
    {
      "channel": 3,
      "note": 61,
      "start": 7.1787,
      "duration": 0.0772,
      "velocity": 101,
      "chip": "ym2612"
    },
    {
      "channel": 0,
      "note": 90,
      "start": 7.2555,
      "duration": 0.3264,
      "velocity": 101,
      "chip": "ym2612"
    },
    {
      "channel": 1,
      "note": 50,
      "start": 7.2557,
      "duration": 0.3264,
      "velocity": 102,
      "chip": "ym2612"
    },
    {
      "channel": 2,
      "note": 78,
      "start": 7.2559,
      "duration": 0.5425,
      "velocity": 103,
      "chip": "ym2612"
    },
    {
      "channel": 3,
      "note": 93,
      "start": 7.2561,
      "duration": 0.0058,
      "velocity": 101,
      "chip": "ym2612"
    },
    {
      "channel": 4,
      "note": 90,
      "start": 7.2563,
      "duration": 0.3262,
      "velocity": 101,
      "chip": "ym2612"
    },
    {
      "channel": 3,
      "note": 92,
      "start": 7.262,
      "duration": 0.0866,
      "velocity": 101,
      "chip": "ym2612"
    },
    {
      "channel": 3,
      "note": 91,
      "start": 7.3488,
      "duration": 0.1165,
      "velocity": 101,
      "chip": "ym2612"
    },
    {
      "channel": 3,
      "note": 90,
      "start": 7.4654,
      "duration": 0.1169,
      "velocity": 101,
      "chip": "ym2612"
    },
    {
      "channel": 0,
      "note": 90,
      "start": 7.582,
      "duration": 0.2159,
      "velocity": 101,
      "chip": "ym2612"
    },
    {
      "channel": 1,
      "note": 50,
      "start": 7.5822,
      "duration": 0.2096,
      "velocity": 102,
      "chip": "ym2612"
    },
    {
      "channel": 3,
      "note": 93,
      "start": 7.5825,
      "duration": 0.0049,
      "velocity": 101,
      "chip": "ym2612"
    },
    {
      "channel": 4,
      "note": 90,
      "start": 7.5827,
      "duration": 0.2161,
      "velocity": 101,
      "chip": "ym2612"
    },
    {
      "channel": 3,
      "note": 92,
      "start": 7.5875,
      "duration": 0.0876,
      "velocity": 101,
      "chip": "ym2612"
    },
    {
      "channel": 3,
      "note": 91,
      "start": 7.6754,
      "duration": 0.1167,
      "velocity": 101,
      "chip": "ym2612"
    },
    {
      "channel": 1,
      "note": 50,
      "start": 7.792,
      "duration": 0.0062,
      "velocity": 102,
      "chip": "ym2612"
    },
    {
      "channel": 3,
      "note": 90,
      "start": 7.7922,
      "duration": 0.0063,
      "velocity": 101,
      "chip": "ym2612"
    },
    {
      "channel": 0,
      "note": 90,
      "start": 7.7981,
      "duration": 0.1697,
      "velocity": 101,
      "chip": "ym2612"
    },
    {
      "channel": 1,
      "note": 50,
      "start": 7.7983,
      "duration": 0.0767,
      "velocity": 102,
      "chip": "ym2612"
    },
    {
      "channel": 2,
      "note": 80,
      "start": 7.7985,
      "duration": 0.1696,
      "velocity": 103,
      "chip": "ym2612"
    },
    {
      "channel": 3,
      "note": 93,
      "start": 7.7987,
      "duration": 0.0053,
      "velocity": 101,
      "chip": "ym2612"
    },
    {
      "channel": 4,
      "note": 90,
      "start": 7.7989,
      "duration": 0.1695,
      "velocity": 101,
      "chip": "ym2612"
    },
    {
      "channel": 3,
      "note": 92,
      "start": 7.8042,
      "duration": 0.071,
      "velocity": 101,
      "chip": "ym2612"
    },
    {
      "channel": 1,
      "note": 50,
      "start": 7.8751,
      "duration": 0.3261,
      "velocity": 102,
      "chip": "ym2612"
    },
    {
      "channel": 3,
      "note": 91,
      "start": 7.8753,
      "duration": 0.0052,
      "velocity": 101,
      "chip": "ym2612"
    },
    {
      "channel": 3,
      "note": 90,
      "start": 7.8807,
      "duration": 0.0875,
      "velocity": 101,
      "chip": "ym2612"
    },
    {
      "channel": 0,
      "note": 90,
      "start": 7.9679,
      "duration": 0.3266,
      "velocity": 101,
      "chip": "ym2612"
    },
    {
      "channel": 2,
      "note": 81,
      "start": 7.9682,
      "duration": 0.3268,
      "velocity": 103,
      "chip": "ym2612"
    },
    {
      "channel": 3,
      "note": 93,
      "start": 7.9684,
      "duration": 0.1161,
      "velocity": 101,
      "chip": "ym2612"
    },
    {
      "channel": 4,
      "note": 90,
      "start": 7.9686,
      "duration": 0.3268,
      "velocity": 101,
      "chip": "ym2612"
    },
    {
      "channel": 3,
      "note": 92,
      "start": 8.0847,
      "duration": 0.1167,
      "velocity": 101,
      "chip": "ym2612"
    },
    {
      "channel": 1,
      "note": 45,
      "start": 8.2013,
      "duration": 0.0934,
      "velocity": 102,
      "chip": "ym2612"
    },
    {
      "channel": 3,
      "note": 91,
      "start": 8.2016,
      "duration": 0.0047,
      "velocity": 101,
      "chip": "ym2612"
    },
    {
      "channel": 3,
      "note": 90,
      "start": 8.2065,
      "duration": 0.0887,
      "velocity": 101,
      "chip": "ym2612"
    },
    {
      "channel": 0,
      "note": 92,
      "start": 8.2947,
      "duration": 0.0277,
      "velocity": 101,
      "chip": "ym2612"
    },
    {
      "channel": 1,
      "note": 52,
      "start": 8.2949,
      "duration": 0.013,
      "velocity": 102,
      "chip": "ym2612"
    },
    {
      "channel": 2,
      "note": 80,
      "start": 8.2951,
      "duration": 0.0562,
      "velocity": 103,
      "chip": "ym2612"
    },
    {
      "channel": 3,
      "note": 95,
      "start": 8.2953,
      "duration": 0.0064,
      "velocity": 101,
      "chip": "ym2612"
    },
    {
      "channel": 4,
      "note": 92,
      "start": 8.2955,
      "duration": 0.0273,
      "velocity": 101,
      "chip": "ym2612"
    },
    {
      "channel": 3,
      "note": 94,
      "start": 8.302,
      "duration": 0.0062,
      "velocity": 101,
      "chip": "ym2612"
    },
    {
      "channel": 1,
      "note": 52,
      "start": 8.308,
      "duration": 0.0284,
      "velocity": 102,
      "chip": "ym2612"
    },
    {
      "channel": 3,
      "note": 93,
      "start": 8.3083,
      "duration": 0.0067,
      "velocity": 101,
      "chip": "ym2612"
    },
    {
      "channel": 3,
      "note": 92,
      "start": 8.3151,
      "duration": 0.0075,
      "velocity": 101,
      "chip": "ym2612"
    },
    {
      "channel": 0,
      "note": 92,
      "start": 8.3225,
      "duration": 0.0284,
      "velocity": 101,
      "chip": "ym2612"
    },
    {
      "channel": 3,
      "note": 95,
      "start": 8.3228,
      "duration": 0.0074,
      "velocity": 101,
      "chip": "ym2612"
    },
    {
      "channel": 4,
      "note": 92,
      "start": 8.323,
      "duration": 0.0287,
      "velocity": 101,
      "chip": "ym2612"
    },
    {
      "channel": 3,
      "note": 94,
      "start": 8.3304,
      "duration": 0.0063,
      "velocity": 101,
      "chip": "ym2612"
    },
    {
      "channel": 1,
      "note": 52,
      "start": 8.3365,
      "duration": 0.0146,
      "velocity": 102,
      "chip": "ym2612"
    },
    {
      "channel": 3,
      "note": 93,
      "start": 8.3368,
      "duration": 0.0068,
      "velocity": 101,
      "chip": "ym2612"
    },
    {
      "channel": 3,
      "note": 92,
      "start": 8.3437,
      "duration": 0.0078,
      "velocity": 101,
      "chip": "ym2612"
    },
    {
      "channel": 0,
      "note": 92,
      "start": 8.3511,
      "duration": 0.0276,
      "velocity": 101,
      "chip": "ym2612"
    },
    {
      "channel": 1,
      "note": 49,
      "start": 8.3512,
      "duration": 0.0127,
      "velocity": 102,
      "chip": "ym2612"
    },
    {
      "channel": 2,
      "note": 81,
      "start": 8.3515,
      "duration": 0.0274,
      "velocity": 103,
      "chip": "ym2612"
    },
    {
      "channel": 3,
      "note": 95,
      "start": 8.3516,
      "duration": 0.0059,
      "velocity": 101,
      "chip": "ym2612"
    },
    {
      "channel": 4,
      "note": 92,
      "start": 8.3518,
      "duration": 0.0275,
      "velocity": 101,
      "chip": "ym2612"
    },
    {
      "channel": 3,
      "note": 94,
      "start": 8.3576,
      "duration": 0.0066,
      "velocity": 101,
      "chip": "ym2612"
    },
    {
      "channel": 1,
      "note": 49,
      "start": 8.3641,
      "duration": 0.027,
      "velocity": 102,
      "chip": "ym2612"
    },
    {
      "channel": 3,
      "note": 93,
      "start": 8.3643,
      "duration": 0.0069,
      "velocity": 101,
      "chip": "ym2612"
    },
    {
      "channel": 3,
      "note": 92,
      "start": 8.3715,
      "duration": 0.0077,
      "velocity": 101,
      "chip": "ym2612"
    },
    {
      "channel": 0,
      "note": 92,
      "start": 8.3788,
      "duration": 0.0278,
      "velocity": 101,
      "chip": "ym2612"
    },
    {
      "channel": 2,
      "note": 83,
      "start": 8.379,
      "duration": 0.0281,
      "velocity": 103,
      "chip": "ym2612"
    },
    {
      "channel": 3,
      "note": 95,
      "start": 8.3793,
      "duration": 0.0063,
      "velocity": 101,
      "chip": "ym2612"
    },
    {
      "channel": 4,
      "note": 92,
      "start": 8.3795,
      "duration": 0.028,
      "velocity": 101,
      "chip": "ym2612"
    },
    {
      "channel": 3,
      "note": 94,
      "start": 8.3857,
      "duration": 0.0056,
      "velocity": 101,
      "chip": "ym2612"
    },
    {
      "channel": 1,
      "note": 57,
      "start": 8.3912,
      "duration": 0.0079,
      "velocity": 102,
      "chip": "ym2612"
    },
    {
      "channel": 3,
      "note": 93,
      "start": 8.3914,
      "duration": 0.0079,
      "velocity": 101,
      "chip": "ym2612"
    },
    {
      "channel": 1,
      "note": 56,
      "start": 8.3993,
      "duration": 0.0076,
      "velocity": 102,
      "chip": "ym2612"
    },
    {
      "channel": 3,
      "note": 92,
      "start": 8.3995,
      "duration": 0.0078,
      "velocity": 101,
      "chip": "ym2612"
    },
    {
      "channel": 1,
      "note": 54,
      "start": 8.407,
      "duration": 13.1913,
      "velocity": 102,
      "chip": "ym2612"
    },
    {
      "channel": 3,
      "note": 66,
      "start": 8.4074,
      "duration": 0.0757,
      "velocity": 101,
      "chip": "ym2612"
    },
    {
      "channel": 3,
      "note": 61,
      "start": 8.4834,
      "duration": 13.1149,
      "velocity": 101,
      "chip": "ym2612"
    },
    {
      "channel": 0,
      "note": 90,
      "start": 8.7333,
      "duration": 12.865,
      "velocity": 101,
      "chip": "ym2612"
    }
  ]
}