{
  "track_name": "10 - Sea Ending",
  "duration_sec": 52.065,
  "sample_rate": 44100,
  "note_count": 411,
  "unique_pitches": 34,
  "pitch_range": 50,
  "avg_note_duration": 0.3187,
  "reconstruction_stats": {
    "notes_reconstructed": 411,
    "keyon_events": 411,
    "keyoff_events": 394,
    "orphan_keyons": 0,
    "unique_pitches": 34,
    "pitch_range": 50,
    "avg_duration_sec": 0.3187
  },
  "metadata": {
    "source": "D\\Dino Land\\10 - Sea Ending.vgz"
  },
  "notes": [
    {
      "channel": 0,
      "note": 50,
      "start": 0.0003,
      "duration": 0.0239,
      "velocity": 82,
      "chip": "ym2612"
    },
    {
      "channel": 0,
      "note": 50,
      "start": 0.25,
      "duration": 0.6773,
      "velocity": 82,
      "chip": "ym2612"
    },
    {
      "channel": 1,
      "note": 81,
      "start": 0.2505,
      "duration": 0.5065,
      "velocity": 98,
      "chip": "ym2612"
    },
    {
      "channel": 2,
      "note": 81,
      "start": 0.2798,
      "duration": 0.7212,
      "velocity": 98,
      "chip": "ym2612"
    },
    {
      "channel": 3,
      "note": 95,
      "start": 0.4058,
      "duration": 0.8393,
      "velocity": 98,
      "chip": "ym2612"
    },
    {
      "channel": 4,
      "note": 81,
      "start": 0.5061,
      "duration": 0.1298,
      "velocity": 113,
      "chip": "ym2612"
    },
    {
      "channel": 4,
      "note": 90,
      "start": 0.6364,
      "duration": 0.4386,
      "velocity": 113,
      "chip": "ym2612"
    },
    {
      "channel": 1,
      "note": 80,
      "start": 0.7816,
      "duration": 0.5604,
      "velocity": 98,
      "chip": "ym2612"
    },
    {
      "channel": 2,
      "note": 80,
      "start": 1.0255,
      "duration": 0.3683,
      "velocity": 98,
      "chip": "ym2612"
    },
    {
      "channel": 0,
      "note": 45,
      "start": 1.0739,
      "duration": 0.2679,
      "velocity": 82,
      "chip": "ym2612"
    },
    {
      "channel": 4,
      "note": 85,
      "start": 1.0754,
      "duration": 0.2923,
      "velocity": 113,
      "chip": "ym2612"
    },
    {
      "channel": 3,
      "note": 81,
      "start": 1.2697,
      "duration": 0.2282,
      "velocity": 98,
      "chip": "ym2612"
    },
    {
      "channel": 0,
      "note": 50,
      "start": 1.3663,
      "duration": 0.0155,
      "velocity": 82,
      "chip": "ym2612"
    },
    {
      "channel": 1,
      "note": 78,
      "start": 1.3668,
      "duration": 0.2283,
      "velocity": 98,
      "chip": "ym2612"
    },
    {
      "channel": 2,
      "note": 78,
      "start": 1.397,
      "duration": 0.2489,
      "velocity": 98,
      "chip": "ym2612"
    },
    {
      "channel": 3,
      "note": 80,
      "start": 1.5225,
      "duration": 0.2287,
      "velocity": 98,
      "chip": "ym2612"
    },
    {
      "channel": 0,
      "note": 50,
      "start": 1.6193,
      "duration": 0.0326,
      "velocity": 82,
      "chip": "ym2612"
    },
    {
      "channel": 1,
      "note": 83,
      "start": 1.6198,
      "duration": 0.0323,
      "velocity": 98,
      "chip": "ym2612"
    },
    {
      "channel": 2,
      "note": 83,
      "start": 1.6493,
      "duration": 0.1504,
      "velocity": 98,
      "chip": "ym2612"
    },
    {
      "channel": 0,
      "note": 49,
      "start": 1.6553,
      "duration": 0.4853,
      "velocity": 82,
      "chip": "ym2612"
    },
    {
      "channel": 1,
      "note": 80,
      "start": 1.6558,
      "duration": 0.7775,
      "velocity": 98,
      "chip": "ym2612"
    },
    {
      "channel": 3,
      "note": 78,
      "start": 1.7759,
      "duration": 0.2679,
      "velocity": 98,
      "chip": "ym2612"
    },
    {
      "channel": 2,
      "note": 80,
      "start": 1.8243,
      "duration": 0.8531,
      "velocity": 98,
      "chip": "ym2612"
    },
    {
      "channel": 4,
      "note": 81,
      "start": 1.8762,
      "duration": 0.2901,
      "velocity": 94,
      "chip": "ym2612"
    },
    {
      "channel": 3,
      "note": 83,
      "start": 2.0685,
      "duration": 0.853,
      "velocity": 98,
      "chip": "ym2612"
    },
    {
      "channel": 0,
      "note": 59,
      "start": 2.1652,
      "duration": 0.0487,
      "velocity": 82,
      "chip": "ym2612"
    },
    {
      "channel": 4,
      "note": 51,
      "start": 2.1666,
      "duration": 0.2922,
      "velocity": 94,
      "chip": "ym2612"
    },
    {
      "channel": 0,
      "note": 60,
      "start": 2.2139,
      "duration": 0.0489,
      "velocity": 82,
      "chip": "ym2612"
    },
    {
      "channel": 0,
      "note": 61,
      "start": 2.2628,
      "duration": 0.7554,
      "velocity": 82,
      "chip": "ym2612"
    },
    {
      "channel": 1,
      "note": 76,
      "start": 2.458,
      "duration": 0.5605,
      "velocity": 98,
      "chip": "ym2612"
    },
    {
      "channel": 4,
      "note": 51,
      "start": 2.4617,
      "duration": 0.1431,
      "velocity": 113,
      "chip": "ym2612"
    },
    {
      "channel": 4,
      "note": 93,
      "start": 2.6051,
      "duration": 0.146,
      "velocity": 113,
      "chip": "ym2612"
    },
    {
      "channel": 2,
      "note": 76,
      "start": 2.7019,
      "duration": 0.3675,
      "velocity": 98,
      "chip": "ym2612"
    },
    {
      "channel": 4,
      "note": 93,
      "start": 2.7516,
      "duration": 0.2926,
      "velocity": 113,
      "chip": "ym2612"
    },
    {
      "channel": 3,
      "note": 80,
      "start": 2.9462,
      "duration": 0.2279,
      "velocity": 98,
      "chip": "ym2612"
    },
    {
      "channel": 0,
      "note": 54,
      "start": 3.0427,
      "duration": 0.0146,
      "velocity": 82,
      "chip": "ym2612"
    },
    {
      "channel": 1,
      "note": 78,
      "start": 3.0432,
      "duration": 1.3454,
      "velocity": 98,
      "chip": "ym2612"
    },
    {
      "channel": 2,
      "note": 78,
      "start": 3.0726,
      "duration": 0.5114,
      "velocity": 98,
      "chip": "ym2612"
    },
    {
      "channel": 3,
      "note": 76,
      "start": 3.1988,
      "duration": 0.6054,
      "velocity": 98,
      "chip": "ym2612"
    },
    {
      "channel": 0,
      "note": 54,
      "start": 3.2954,
      "duration": 0.5078,
      "velocity": 82,
      "chip": "ym2612"
    },
    {
      "channel": 4,
      "note": 90,
      "start": 3.5516,
      "duration": 0.1309,
      "velocity": 113,
      "chip": "ym2612"
    },
    {
      "channel": 2,
      "note": 71,
      "start": 3.5888,
      "duration": 0.2151,
      "velocity": 93,
      "chip": "ym2612"
    },
    {
      "channel": 4,
      "note": 90,
      "start": 3.6829,
      "duration": 0.4393,
      "velocity": 113,
      "chip": "ym2612"
    },
    {
      "channel": 2,
      "note": 73,
      "start": 3.8285,
      "duration": 0.2679,
      "velocity": 93,
      "chip": "ym2612"
    },
    {
      "channel": 3,
      "note": 78,
      "start": 3.8314,
      "duration": 0.2652,
      "velocity": 93,
      "chip": "ym2612"
    },
    {
      "channel": 0,
      "note": 49,
      "start": 4.1204,
      "duration": 0.2679,
      "velocity": 82,
      "chip": "ym2612"
    },
    {
      "channel": 2,
      "note": 78,
      "start": 4.1212,
      "duration": 0.3248,
      "velocity": 93,
      "chip": "ym2612"
    },
    {
      "channel": 3,
      "note": 80,
      "start": 4.1218,
      "duration": 0.3245,
      "velocity": 93,
      "chip": "ym2612"
    },
    {
      "channel": 4,
      "note": 85,
      "start": 4.1227,
      "duration": 0.2914,
      "velocity": 113,
      "chip": "ym2612"
    },
    {
      "channel": 0,
      "note": 54,
      "start": 4.4129,
      "duration": 0.0149,
      "velocity": 82,
      "chip": "ym2612"
    },
    {
      "channel": 2,
      "note": 76,
      "start": 4.4488,
      "duration": 0.2504,
      "velocity": 93,
      "chip": "ym2612"
    },
    {
      "channel": 3,
      "note": 81,
      "start": 4.4493,
      "duration": 0.2501,
      "velocity": 93,
      "chip": "ym2612"
    },
    {
      "channel": 0,
      "note": 54,
      "start": 4.6661,
      "duration": 0.5212,
      "velocity": 82,
      "chip": "ym2612"
    },
    {
      "channel": 2,
      "note": 78,
      "start": 4.7022,
      "duration": 0.4856,
      "velocity": 93,
      "chip": "ym2612"
    },
    {
      "channel": 3,
      "note": 80,
      "start": 4.7029,
      "duration": 0.4854,
      "velocity": 93,
      "chip": "ym2612"
    },
    {
      "channel": 4,
      "note": 81,
      "start": 4.923,
      "duration": 0.2909,
      "velocity": 94,
      "chip": "ym2612"
    },
    {
      "channel": 0,
      "note": 52,
      "start": 5.2118,
      "duration": 0.853,
      "velocity": 82,
      "chip": "ym2612"
    },
    {
      "channel": 2,
      "note": 76,
      "start": 5.2129,
      "duration": 0.8525,
      "velocity": 93,
      "chip": "ym2612"
    },
    {
      "channel": 3,
      "note": 81,
      "start": 5.2134,
      "duration": 0.8523,
      "velocity": 93,
      "chip": "ym2612"
    },
    {
      "channel": 4,
      "note": 51,
      "start": 5.2141,
      "duration": 0.2914,
      "velocity": 94,
      "chip": "ym2612"
    },
    {
      "channel": 1,
      "note": 78,
      "start": 5.5046,
      "duration": 0.2681,
      "velocity": 98,
      "chip": "ym2612"
    },
    {
      "channel": 4,
      "note": 51,
      "start": 5.5083,
      "duration": 0.1431,
      "velocity": 113,
      "chip": "ym2612"
    },
    {
      "channel": 4,
      "note": 93,
      "start": 5.6517,
      "duration": 0.1464,
      "velocity": 113,
      "chip": "ym2612"
    },
    {
      "channel": 1,
      "note": 80,
      "start": 5.7971,
      "duration": 0.268,
      "velocity": 98,
      "chip": "ym2612"
    },
    {
      "channel": 4,
      "note": 93,
      "start": 5.7985,
      "duration": 0.2962,
      "velocity": 113,
      "chip": "ym2612"
    },
    {
      "channel": 0,
      "note": 50,
      "start": 6.0895,
      "duration": 0.0198,
      "velocity": 82,
      "chip": "ym2612"
    },
    {
      "channel": 0,
      "note": 50,
      "start": 6.343,
      "duration": 0.654,
      "velocity": 82,
      "chip": "ym2612"
    },
    {
      "channel": 1,
      "note": 81,
      "start": 6.3435,
      "duration": 0.5076,
      "velocity": 98,
      "chip": "ym2612"
    },
    {
      "channel": 2,
      "note": 81,
      "start": 6.3732,
      "duration": 0.7218,
      "velocity": 98,
      "chip": "ym2612"
    },
    {
      "channel": 3,
      "note": 80,
      "start": 6.4987,
      "duration": 0.8404,
      "velocity": 98,
      "chip": "ym2612"
    },
    {
      "channel": 4,
      "note": 90,
      "start": 6.5991,
      "duration": 0.1309,
      "velocity": 113,
      "chip": "ym2612"
    },
    {
      "channel": 4,
      "note": 90,
      "start": 6.7304,
      "duration": 0.4385,
      "velocity": 113,
      "chip": "ym2612"
    },
    {
      "channel": 1,
      "note": 80,
      "start": 6.8756,
      "duration": 0.5604,
      "velocity": 98,
      "chip": "ym2612"
    },
    {
      "channel": 2,
      "note": 80,
      "start": 7.1196,
      "duration": 0.3677,
      "velocity": 98,
      "chip": "ym2612"
    },
    {
      "channel": 0,
      "note": 45,
      "start": 7.1678,
      "duration": 0.268,
      "velocity": 82,
      "chip": "ym2612"
    },
    {
      "channel": 4,
      "note": 85,
      "start": 7.1694,
      "duration": 0.2926,
      "velocity": 113,
      "chip": "ym2612"
    },
    {
      "channel": 3,
      "note": 81,
      "start": 7.3637,
      "duration": 0.228,
      "velocity": 98,
      "chip": "ym2612"
    },
    {
      "channel": 0,
      "note": 50,
      "start": 7.4606,
      "duration": 0.0148,
      "velocity": 82,
      "chip": "ym2612"
    },
    {
      "channel": 1,
      "note": 78,
      "start": 7.4611,
      "duration": 0.2276,
      "velocity": 98,
      "chip": "ym2612"
    },
    {
      "channel": 2,
      "note": 78,
      "start": 7.4902,
      "duration": 0.2495,
      "velocity": 98,
      "chip": "ym2612"
    },
    {
      "channel": 3,
      "note": 80,
      "start": 7.6163,
      "duration": 0.228,
      "velocity": 98,
      "chip": "ym2612"
    },
    {
      "channel": 0,
      "note": 50,
      "start": 7.7129,
      "duration": 0.0326,
      "velocity": 82,
      "chip": "ym2612"
    },
    {
      "channel": 1,
      "note": 83,
      "start": 7.7135,
      "duration": 0.0324,
      "velocity": 98,
      "chip": "ym2612"
    },
    {
      "channel": 2,
      "note": 83,
      "start": 7.7427,
      "duration": 0.1502,
      "velocity": 98,
      "chip": "ym2612"
    },
    {
      "channel": 0,
      "note": 49,
      "start": 7.7482,
      "duration": 0.388,
      "velocity": 82,
      "chip": "ym2612"
    },
    {
      "channel": 1,
      "note": 80,
      "start": 7.7487,
      "duration": 0.7778,
      "velocity": 98,
      "chip": "ym2612"
    },
    {
      "channel": 3,
      "note": 78,
      "start": 7.869,
      "duration": 0.2681,
      "velocity": 98,
      "chip": "ym2612"
    },
    {
      "channel": 2,
      "note": 80,
      "start": 7.9175,
      "duration": 0.853,
      "velocity": 98,
      "chip": "ym2612"
    },
    {
      "channel": 4,
      "note": 81,
      "start": 7.9693,
      "duration": 0.2901,
      "velocity": 94,
      "chip": "ym2612"
    },
    {
      "channel": 3,
      "note": 83,
      "start": 8.1618,
      "duration": 0.8529,
      "velocity": 98,
      "chip": "ym2612"
    },
    {
      "channel": 0,
      "note": 59,
      "start": 8.2583,
      "duration": 0.0487,
      "velocity": 82,
      "chip": "ym2612"
    },
    {
      "channel": 4,
      "note": 51,
      "start": 8.2598,
      "duration": 0.2922,
      "velocity": 94,
      "chip": "ym2612"
    },
    {
      "channel": 0,
      "note": 60,
      "start": 8.3071,
      "duration": 0.0488,
      "velocity": 82,
      "chip": "ym2612"
    },
    {
      "channel": 0,
      "note": 61,
      "start": 8.3559,
      "duration": 0.7554,
      "velocity": 82,
      "chip": "ym2612"
    },
    {
      "channel": 1,
      "note": 76,
      "start": 8.5511,
      "duration": 0.5605,
      "velocity": 98,
      "chip": "ym2612"
    },
    {
      "channel": 4,
      "note": 51,
      "start": 8.5548,
      "duration": 0.1432,
      "velocity": 113,
      "chip": "ym2612"
    },
    {
      "channel": 4,
      "note": 93,
      "start": 8.6983,
      "duration": 0.1459,
      "velocity": 113,
      "chip": "ym2612"
    },
    {
      "channel": 2,
      "note": 76,
      "start": 8.7951,
      "duration": 0.3677,
      "velocity": 98,
      "chip": "ym2612"
    },
    {
      "channel": 4,
      "note": 93,
      "start": 8.8447,
      "duration": 0.2926,
      "velocity": 113,
      "chip": "ym2612"
    },
    {
      "channel": 3,
      "note": 80,
      "start": 9.0392,
      "duration": 0.2273,
      "velocity": 98,
      "chip": "ym2612"
    },
    {
      "channel": 0,
      "note": 54,
      "start": 9.1359,
      "duration": 0.0154,
      "velocity": 82,
      "chip": "ym2612"
    },
    {
      "channel": 1,
      "note": 73,
      "start": 9.1364,
      "duration": 1.3424,
      "velocity": 98,
      "chip": "ym2612"
    },
    {
      "channel": 2,
      "note": 73,
      "start": 9.1658,
      "duration": 0.5088,
      "velocity": 98,
      "chip": "ym2612"
    },
    {
      "channel": 3,
      "note": 76,
      "start": 9.2911,
      "duration": 0.6031,
      "velocity": 98,
      "chip": "ym2612"
    },
    {
      "channel": 0,
      "note": 54,
      "start": 9.3879,
      "duration": 0.5055,
      "velocity": 82,
      "chip": "ym2612"
    },
    {
      "channel": 4,
      "note": 90,
      "start": 9.6439,
      "duration": 0.1291,
      "velocity": 113,
      "chip": "ym2612"
    },
    {
      "channel": 2,
      "note": 71,
      "start": 9.6794,
      "duration": 0.2146,
      "velocity": 93,
      "chip": "ym2612"
    },
    {
      "channel": 4,
      "note": 90,
      "start": 9.7734,
      "duration": 0.4389,
      "velocity": 113,
      "chip": "ym2612"
    },
    {
      "channel": 2,
      "note": 73,
      "start": 9.9186,
      "duration": 0.2679,
      "velocity": 93,
      "chip": "ym2612"
    },
    {
      "channel": 3,
      "note": 73,
      "start": 9.9216,
      "duration": 0.2652,
      "velocity": 93,
      "chip": "ym2612"
    },
    {
      "channel": 0,
      "note": 49,
      "start": 10.2105,
      "duration": 0.268,
      "velocity": 82,
      "chip": "ym2612"
    },
    {
      "channel": 2,
      "note": 78,
      "start": 10.2112,
      "duration": 0.3258,
      "velocity": 93,
      "chip": "ym2612"
    },
    {
      "channel": 3,
      "note": 80,
      "start": 10.2119,
      "duration": 0.3254,
      "velocity": 93,
      "chip": "ym2612"
    },
    {
      "channel": 4,
      "note": 85,
      "start": 10.2127,
      "duration": 0.2915,
      "velocity": 113,
      "chip": "ym2612"
    },
    {
      "channel": 0,
      "note": 54,
      "start": 10.5031,
      "duration": 0.0154,
      "velocity": 82,
      "chip": "ym2612"
    },
    {
      "channel": 2,
      "note": 76,
      "start": 10.5404,
      "duration": 0.2498,
      "velocity": 93,
      "chip": "ym2612"
    },
    {
      "channel": 3,
      "note": 81,
      "start": 10.541,
      "duration": 0.2496,
      "velocity": 93,
      "chip": "ym2612"
    },
    {
      "channel": 0,
      "note": 54,
      "start": 10.7575,
      "duration": 1.1059,
      "velocity": 82,
      "chip": "ym2612"
    },
    {
      "channel": 2,
      "note": 78,
      "start": 10.7934,
      "duration": 0.4855,
      "velocity": 93,
      "chip": "ym2612"
    },
    {
      "channel": 3,
      "note": 80,
      "start": 10.794,
      "duration": 0.4852,
      "velocity": 93,
      "chip": "ym2612"
    },
    {
      "channel": 4,
      "note": 81,
      "start": 11.014,
      "duration": 0.2903,
      "velocity": 94,
      "chip": "ym2612"
    },
    {
      "channel": 2,
      "note": 76,
      "start": 11.3033,
      "duration": 0.8531,
      "velocity": 93,
      "chip": "ym2612"
    },
    {
      "channel": 3,
      "note": 81,
      "start": 11.3039,
      "duration": 0.8527,
      "velocity": 93,
      "chip": "ym2612"
    },
    {
      "channel": 4,
      "note": 51,
      "start": 11.3046,
      "duration": 0.2916,
      "velocity": 94,
      "chip": "ym2612"
    },
    {
      "channel": 4,
      "note": 51,
      "start": 11.599,
      "duration": 0.1434,
      "velocity": 113,
      "chip": "ym2612"
    },
    {
      "channel": 4,
      "note": 93,
      "start": 11.743,
      "duration": 0.1461,
      "velocity": 113,
      "chip": "ym2612"
    },
    {
      "channel": 0,
      "note": 59,
      "start": 11.888,
      "duration": 0.1462,
      "velocity": 82,
      "chip": "ym2612"
    },
    {
      "channel": 4,
      "note": 93,
      "start": 11.8896,
      "duration": 0.2966,
      "velocity": 113,
      "chip": "ym2612"
    },
    {
      "channel": 0,
      "note": 61,
      "start": 12.0342,
      "duration": 0.1463,
      "velocity": 82,
      "chip": "ym2612"
    },
    {
      "channel": 0,
      "note": 62,
      "start": 12.1805,
      "duration": 0.0223,
      "velocity": 82,
      "chip": "ym2612"
    },
    {
      "channel": 0,
      "note": 57,
      "start": 12.2028,
      "duration": 0.0174,
      "velocity": 82,
      "chip": "ym2612"
    },
    {
      "channel": 0,
      "note": 52,
      "start": 12.2201,
      "duration": 0.0418,
      "velocity": 82,
      "chip": "ym2612"
    },
    {
      "channel": 0,
      "note": 50,
      "start": 12.2866,
      "duration": 0.8011,
      "velocity": 82,
      "chip": "ym2612"
    },
    {
      "channel": 1,
      "note": 81,
      "start": 12.4331,
      "duration": 0.5086,
      "velocity": 98,
      "chip": "ym2612"
    },
    {
      "channel": 2,
      "note": 81,
      "start": 12.4639,
      "duration": 0.7217,
      "velocity": 98,
      "chip": "ym2612"
    },
    {
      "channel": 3,
      "note": 80,
      "start": 12.59,
      "duration": 0.8396,
      "velocity": 98,
      "chip": "ym2612"
    },
    {
      "channel": 4,
      "note": 90,
      "start": 12.6904,
      "duration": 0.1302,
      "velocity": 113,
      "chip": "ym2612"
    },
    {
      "channel": 4,
      "note": 90,
      "start": 12.8211,
      "duration": 0.4385,
      "velocity": 113,
      "chip": "ym2612"
    },
    {
      "channel": 1,
      "note": 80,
      "start": 12.9662,
      "duration": 0.5605,
      "velocity": 98,
      "chip": "ym2612"
    },
    {
      "channel": 2,
      "note": 80,
      "start": 13.2101,
      "duration": 0.3669,
      "velocity": 98,
      "chip": "ym2612"
    },
    {
      "channel": 0,
      "note": 45,
      "start": 13.2585,
      "duration": 0.268,
      "velocity": 82,
      "chip": "ym2612"
    },
    {
      "channel": 4,
      "note": 85,
      "start": 13.2601,
      "duration": 0.2923,
      "velocity": 113,
      "chip": "ym2612"
    },
    {
      "channel": 3,
      "note": 81,
      "start": 13.4543,
      "duration": 0.2275,
      "velocity": 98,
      "chip": "ym2612"
    },
    {
      "channel": 0,
      "note": 50,
      "start": 13.551,
      "duration": 0.2841,
      "velocity": 82,
      "chip": "ym2612"
    },
    {
      "channel": 1,
      "note": 78,
      "start": 13.5515,
      "duration": 0.2273,
      "velocity": 98,
      "chip": "ym2612"
    },
    {
      "channel": 2,
      "note": 78,
      "start": 13.5799,
      "duration": 0.2498,
      "velocity": 98,
      "chip": "ym2612"
    },
    {
      "channel": 3,
      "note": 80,
      "start": 13.7065,
      "duration": 0.2274,
      "velocity": 98,
      "chip": "ym2612"
    },
    {
      "channel": 1,
      "note": 83,
      "start": 13.8034,
      "duration": 0.032,
      "velocity": 98,
      "chip": "ym2612"
    },
    {
      "channel": 2,
      "note": 83,
      "start": 13.833,
      "duration": 0.1495,
      "velocity": 98,
      "chip": "ym2612"
    },
    {
      "channel": 0,
      "note": 49,
      "start": 13.8384,
      "duration": 1.07,
      "velocity": 82,
      "chip": "ym2612"
    },
    {
      "channel": 1,
      "note": 80,
      "start": 13.8389,
      "duration": 0.7772,
      "velocity": 98,
      "chip": "ym2612"
    },
    {
      "channel": 3,
      "note": 78,
      "start": 13.9587,
      "duration": 0.2679,
      "velocity": 98,
      "chip": "ym2612"
    },
    {
      "channel": 2,
      "note": 80,
      "start": 14.007,
      "duration": 0.853,
      "velocity": 98,
      "chip": "ym2612"
    },
    {
      "channel": 4,
      "note": 81,
      "start": 14.0592,
      "duration": 0.2896,
      "velocity": 94,
      "chip": "ym2612"
    },
    {
      "channel": 3,
      "note": 83,
      "start": 14.2512,
      "duration": 0.853,
      "velocity": 98,
      "chip": "ym2612"
    },
    {
      "channel": 4,
      "note": 51,
      "start": 14.3491,
      "duration": 0.2928,
      "velocity": 94,
      "chip": "ym2612"
    },
    {
      "channel": 1,
      "note": 76,
      "start": 14.641,
      "duration": 0.5602,
      "velocity": 98,
      "chip": "ym2612"
    },
    {
      "channel": 4,
      "note": 51,
      "start": 14.6447,
      "duration": 0.1429,
      "velocity": 113,
      "chip": "ym2612"
    },
    {
      "channel": 4,
      "note": 93,
      "start": 14.7879,
      "duration": 0.1462,
      "velocity": 113,
      "chip": "ym2612"
    },
    {
      "channel": 2,
      "note": 76,
      "start": 14.8846,
      "duration": 0.3684,
      "velocity": 98,
      "chip": "ym2612"
    },
    {
      "channel": 0,
      "note": 52,
      "start": 14.933,
      "duration": 0.1217,
      "velocity": 82,
      "chip": "ym2612"
    },
    {
      "channel": 4,
      "note": 93,
      "start": 14.9345,
      "duration": 0.2924,
      "velocity": 113,
      "chip": "ym2612"
    },
    {
      "channel": 0,
      "note": 53,
      "start": 15.0792,
      "duration": 0.1217,
      "velocity": 82,
      "chip": "ym2612"
    },
    {
      "channel": 3,
      "note": 80,
      "start": 15.1288,
      "duration": 0.2282,
      "velocity": 98,
      "chip": "ym2612"
    },
    {
      "channel": 0,
      "note": 54,
      "start": 15.2255,
      "duration": 2.0211,
      "velocity": 82,
      "chip": "ym2612"
    },
    {
      "channel": 1,
      "note": 78,
      "start": 15.226,
      "duration": 1.3443,
      "velocity": 98,
      "chip": "ym2612"
    },
    {
      "channel": 2,
      "note": 78,
      "start": 15.2556,
      "duration": 0.51,
      "velocity": 98,
      "chip": "ym2612"
    },
    {
      "channel": 3,
      "note": 76,
      "start": 15.3817,
      "duration": 0.6041,
      "velocity": 98,
      "chip": "ym2612"
    },
    {
      "channel": 4,
      "note": 90,
      "start": 15.7337,
      "duration": 0.1304,
      "velocity": 113,
      "chip": "ym2612"
    },
    {
      "channel": 2,
      "note": 71,
      "start": 15.7704,
      "duration": 0.2152,
      "velocity": 93,
      "chip": "ym2612"
    },
    {
      "channel": 4,
      "note": 90,
      "start": 15.8646,
      "duration": 0.4393,
      "velocity": 113,
      "chip": "ym2612"
    },
    {
      "channel": 2,
      "note": 73,
      "start": 16.01,
      "duration": 0.268,
      "velocity": 93,
      "chip": "ym2612"
    },
    {
      "channel": 3,
      "note": 78,
      "start": 16.013,
      "duration": 0.2653,
      "velocity": 93,
      "chip": "ym2612"
    },
    {
      "channel": 2,
      "note": 78,
      "start": 16.3025,
      "duration": 0.3253,
      "velocity": 93,
      "chip": "ym2612"
    },
    {
      "channel": 3,
      "note": 80,
      "start": 16.3034,
      "duration": 0.3248,
      "velocity": 93,
      "chip": "ym2612"
    },
    {
      "channel": 4,
      "note": 85,
      "start": 16.3043,
      "duration": 0.2913,
      "velocity": 113,
      "chip": "ym2612"
    },
    {
      "channel": 2,
      "note": 76,
      "start": 16.6313,
      "duration": 0.2498,
      "velocity": 93,
      "chip": "ym2612"
    },
    {
      "channel": 3,
      "note": 81,
      "start": 16.6319,
      "duration": 0.2495,
      "velocity": 93,
      "chip": "ym2612"
    },
    {
      "channel": 2,
      "note": 78,
      "start": 16.8843,
      "duration": 0.4847,
      "velocity": 93,
      "chip": "ym2612"
    },
    {
      "channel": 3,
      "note": 80,
      "start": 16.8849,
      "duration": 0.4844,
      "velocity": 93,
      "chip": "ym2612"
    },
    {
      "channel": 4,
      "note": 81,
      "start": 17.1042,
      "duration": 0.2906,
      "velocity": 94,
      "chip": "ym2612"
    },
    {
      "channel": 0,
      "note": 52,
      "start": 17.393,
      "duration": 0.853,
      "velocity": 82,
      "chip": "ym2612"
    },
    {
      "channel": 2,
      "note": 76,
      "start": 17.3938,
      "duration": 0.8528,
      "velocity": 93,
      "chip": "ym2612"
    },
    {
      "channel": 3,
      "note": 81,
      "start": 17.3944,
      "duration": 0.8525,
      "velocity": 93,
      "chip": "ym2612"
    },
    {
      "channel": 4,
      "note": 51,
      "start": 17.3951,
      "duration": 0.2915,
      "velocity": 94,
      "chip": "ym2612"
    },
    {
      "channel": 1,
      "note": 78,
      "start": 17.6858,
      "duration": 0.268,
      "velocity": 98,
      "chip": "ym2612"
    },
    {
      "channel": 4,
      "note": 51,
      "start": 17.6897,
      "duration": 0.1429,
      "velocity": 113,
      "chip": "ym2612"
    },
    {
      "channel": 4,
      "note": 93,
      "start": 17.833,
      "duration": 0.1463,
      "velocity": 113,
      "chip": "ym2612"
    },
    {
      "channel": 1,
      "note": 80,
      "start": 17.9783,
      "duration": 0.268,
      "velocity": 98,
      "chip": "ym2612"
    },
    {
      "channel": 4,
      "note": 93,
      "start": 17.9797,
      "duration": 0.2966,
      "velocity": 113,
      "chip": "ym2612"
    },
    {
      "channel": 0,
      "note": 50,
      "start": 18.2706,
      "duration": 1.3467,
      "velocity": 82,
      "chip": "ym2612"
    },
    {
      "channel": 1,
      "note": 81,
      "start": 18.5249,
      "duration": 0.5076,
      "velocity": 98,
      "chip": "ym2612"
    },
    {
      "channel": 2,
      "note": 81,
      "start": 18.5546,
      "duration": 0.722,
      "velocity": 98,
      "chip": "ym2612"
    },
    {
      "channel": 3,
      "note": 80,
      "start": 18.681,
      "duration": 0.8399,
      "velocity": 98,
      "chip": "ym2612"
    },
    {
      "channel": 4,
      "note": 90,
      "start": 18.7813,
      "duration": 0.1302,
      "velocity": 113,
      "chip": "ym2612"
    },
    {
      "channel": 4,
      "note": 90,
      "start": 18.912,
      "duration": 0.4383,
      "velocity": 113,
      "chip": "ym2612"
    },
    {
      "channel": 1,
      "note": 80,
      "start": 19.0571,
      "duration": 0.5606,
      "velocity": 98,
      "chip": "ym2612"
    },
    {
      "channel": 2,
      "note": 80,
      "start": 19.3011,
      "duration": 0.3674,
      "velocity": 98,
      "chip": "ym2612"
    },
    {
      "channel": 4,
      "note": 85,
      "start": 19.3507,
      "duration": 0.2926,
      "velocity": 113,
      "chip": "ym2612"
    },
    {
      "channel": 3,
      "note": 81,
      "start": 19.5452,
      "duration": 0.228,
      "velocity": 98,
      "chip": "ym2612"
    },
    {
      "channel": 0,
      "note": 50,
      "start": 19.6419,
      "duration": 0.2848,
      "velocity": 82,
      "chip": "ym2612"
    },
    {
      "channel": 1,
      "note": 78,
      "start": 19.6424,
      "duration": 0.2278,
      "velocity": 98,
      "chip": "ym2612"
    },
    {
      "channel": 2,
      "note": 78,
      "start": 19.6715,
      "duration": 0.2498,
      "velocity": 98,
      "chip": "ym2612"
    },
    {
      "channel": 3,
      "note": 80,
      "start": 19.7979,
      "duration": 0.2273,
      "velocity": 98,
      "chip": "ym2612"
    },
    {
      "channel": 1,
      "note": 83,
      "start": 19.8948,
      "duration": 0.0322,
      "velocity": 98,
      "chip": "ym2612"
    },
    {
      "channel": 2,
      "note": 83,
      "start": 19.9242,
      "duration": 0.1493,
      "velocity": 98,
      "chip": "ym2612"
    },
    {
      "channel": 0,
      "note": 49,
      "start": 19.9297,
      "duration": 1.3622,
      "velocity": 82,
      "chip": "ym2612"
    },
    {
      "channel": 1,
      "note": 80,
      "start": 19.9305,
      "duration": 0.7767,
      "velocity": 98,
      "chip": "ym2612"
    },
    {
      "channel": 3,
      "note": 78,
      "start": 20.0497,
      "duration": 0.2679,
      "velocity": 98,
      "chip": "ym2612"
    },
    {
      "channel": 2,
      "note": 80,
      "start": 20.0981,
      "duration": 0.8531,
      "velocity": 98,
      "chip": "ym2612"
    },
    {
      "channel": 4,
      "note": 81,
      "start": 20.15,
      "duration": 0.2898,
      "velocity": 94,
      "chip": "ym2612"
    },
    {
      "channel": 3,
      "note": 83,
      "start": 20.3423,
      "duration": 0.853,
      "velocity": 98,
      "chip": "ym2612"
    },
    {
      "channel": 4,
      "note": 51,
      "start": 20.4401,
      "duration": 0.2925,
      "velocity": 94,
      "chip": "ym2612"
    },
    {
      "channel": 1,
      "note": 76,
      "start": 20.7317,
      "duration": 0.5606,
      "velocity": 98,
      "chip": "ym2612"
    },
    {
      "channel": 4,
      "note": 51,
      "start": 20.7354,
      "duration": 0.1433,
      "velocity": 113,
      "chip": "ym2612"
    },
    {
      "channel": 4,
      "note": 93,
      "start": 20.879,
      "duration": 0.1459,
      "velocity": 113,
      "chip": "ym2612"
    },
    {
      "channel": 2,
      "note": 76,
      "start": 20.9758,
      "duration": 0.3676,
      "velocity": 98,
      "chip": "ym2612"
    },
    {
      "channel": 4,
      "note": 93,
      "start": 21.0253,
      "duration": 0.2926,
      "velocity": 113,
      "chip": "ym2612"
    },
    {
      "channel": 3,
      "note": 80,
      "start": 21.2199,
      "duration": 0.228,
      "velocity": 98,
      "chip": "ym2612"
    },
    {
      "channel": 0,
      "note": 54,
      "start": 21.3165,
      "duration": 1.3437,
      "velocity": 82,
      "chip": "ym2612"
    },
    {
      "channel": 1,
      "note": 73,
      "start": 21.317,
      "duration": 1.3435,
      "velocity": 98,
      "chip": "ym2612"
    },
    {
      "channel": 2,
      "note": 73,
      "start": 21.3465,
      "duration": 0.5098,
      "velocity": 98,
      "chip": "ym2612"
    },
    {
      "channel": 3,
      "note": 76,
      "start": 21.4727,
      "duration": 0.6033,
      "velocity": 98,
      "chip": "ym2612"
    },
    {
      "channel": 4,
      "note": 90,
      "start": 21.8249,
      "duration": 0.1295,
      "velocity": 113,
      "chip": "ym2612"
    },
    {
      "channel": 2,
      "note": 71,
      "start": 21.8612,
      "duration": 0.2145,
      "velocity": 93,
      "chip": "ym2612"
    },
    {
      "channel": 4,
      "note": 90,
      "start": 21.9548,
      "duration": 0.4389,
      "velocity": 113,
      "chip": "ym2612"
    },
    {
      "channel": 2,
      "note": 73,
      "start": 22.1003,
      "duration": 0.268,
      "velocity": 93,
      "chip": "ym2612"
    },
    {
      "channel": 3,
      "note": 73,
      "start": 22.1033,
      "duration": 0.2652,
      "velocity": 93,
      "chip": "ym2612"
    },
    {
      "channel": 2,
      "note": 78,
      "start": 22.3927,
      "duration": 0.3244,
      "velocity": 93,
      "chip": "ym2612"
    },
    {
      "channel": 3,
      "note": 80,
      "start": 22.3934,
      "duration": 0.3241,
      "velocity": 93,
      "chip": "ym2612"
    },
    {
      "channel": 4,
      "note": 85,
      "start": 22.3942,
      "duration": 0.2919,
      "velocity": 113,
      "chip": "ym2612"
    },
    {
      "channel": 0,
      "note": 54,
      "start": 22.6848,
      "duration": 1.6499,
      "velocity": 82,
      "chip": "ym2612"
    },
    {
      "channel": 2,
      "note": 76,
      "start": 22.7202,
      "duration": 0.2497,
      "velocity": 93,
      "chip": "ym2612"
    },
    {
      "channel": 3,
      "note": 81,
      "start": 22.7208,
      "duration": 0.2495,
      "velocity": 93,
      "chip": "ym2612"
    },
    {
      "channel": 2,
      "note": 78,
      "start": 22.9731,
      "duration": 0.4846,
      "velocity": 93,
      "chip": "ym2612"
    },
    {
      "channel": 3,
      "note": 80,
      "start": 22.9738,
      "duration": 0.4843,
      "velocity": 93,
      "chip": "ym2612"
    },
    {
      "channel": 4,
      "note": 81,
      "start": 23.1929,
      "duration": 0.2906,
      "velocity": 94,
      "chip": "ym2612"
    },
    {
      "channel": 2,
      "note": 76,
      "start": 23.4823,
      "duration": 0.8531,
      "velocity": 93,
      "chip": "ym2612"
    },
    {
      "channel": 3,
      "note": 81,
      "start": 23.4829,
      "duration": 0.8529,
      "velocity": 93,
      "chip": "ym2612"
    },
    {
      "channel": 4,
      "note": 51,
      "start": 23.4838,
      "duration": 0.2913,
      "velocity": 94,
      "chip": "ym2612"
    },
    {
      "channel": 4,
      "note": 51,
      "start": 23.7779,
      "duration": 0.1435,
      "velocity": 113,
      "chip": "ym2612"
    },
    {
      "channel": 4,
      "note": 93,
      "start": 23.9217,
      "duration": 0.1462,
      "velocity": 113,
      "chip": "ym2612"
    },
    {
      "channel": 4,
      "note": 93,
      "start": 24.0684,
      "duration": 0.2932,
      "velocity": 113,
      "chip": "ym2612"
    },
    {
      "channel": 0,
      "note": 54,
      "start": 24.3593,
      "duration": 0.5212,
      "velocity": 82,
      "chip": "ym2612"
    },
    {
      "channel": 1,
      "note": 76,
      "start": 24.3598,
      "duration": 0.2285,
      "velocity": 98,
      "chip": "ym2612"
    },
    {
      "channel": 2,
      "note": 66,
      "start": 24.3605,
      "duration": 0.0325,
      "velocity": 93,
      "chip": "ym2612"
    },
    {
      "channel": 3,
      "note": 80,
      "start": 24.3612,
      "duration": 0.0321,
      "velocity": 93,
      "chip": "ym2612"
    },
    {
      "channel": 2,
      "note": 80,
      "start": 24.3964,
      "duration": 0.1922,
      "velocity": 93,
      "chip": "ym2612"
    },
    {
      "channel": 3,
      "note": 73,
      "start": 24.3969,
      "duration": 0.192,
      "velocity": 93,
      "chip": "ym2612"
    },
    {
      "channel": 4,
      "note": 90,
      "start": 24.4701,
      "duration": 0.4726,
      "velocity": 94,
      "chip": "ym2612"
    },
    {
      "channel": 1,
      "note": 69,
      "start": 24.6129,
      "duration": 0.268,
      "velocity": 98,
      "chip": "ym2612"
    },
    {
      "channel": 2,
      "note": 81,
      "start": 24.6134,
      "duration": 0.2678,
      "velocity": 93,
      "chip": "ym2612"
    },
    {
      "channel": 3,
      "note": 83,
      "start": 24.6139,
      "duration": 0.2674,
      "velocity": 93,
      "chip": "ym2612"
    },
    {
      "channel": 0,
      "note": 54,
      "start": 24.9052,
      "duration": 0.0324,
      "velocity": 82,
      "chip": "ym2612"
    },
    {
      "channel": 1,
      "note": 73,
      "start": 24.9057,
      "duration": 0.0322,
      "velocity": 98,
      "chip": "ym2612"
    },
    {
      "channel": 2,
      "note": 78,
      "start": 24.9062,
      "duration": 0.032,
      "velocity": 93,
      "chip": "ym2612"
    },
    {
      "channel": 3,
      "note": 85,
      "start": 24.9068,
      "duration": 0.0317,
      "velocity": 93,
      "chip": "ym2612"
    },
    {
      "channel": 0,
      "note": 56,
      "start": 24.9406,
      "duration": 0.5486,
      "velocity": 82,
      "chip": "ym2612"
    },
    {
      "channel": 1,
      "note": 71,
      "start": 24.9412,
      "duration": 0.2558,
      "velocity": 98,
      "chip": "ym2612"
    },
    {
      "channel": 2,
      "note": 68,
      "start": 24.9417,
      "duration": 0.0351,
      "velocity": 93,
      "chip": "ym2612"
    },
    {
      "channel": 3,
      "note": 81,
      "start": 24.9423,
      "duration": 0.0347,
      "velocity": 93,
      "chip": "ym2612"
    },
    {
      "channel": 4,
      "note": 51,
      "start": 24.9457,
      "duration": 0.6058,
      "velocity": 99,
      "chip": "ym2612"
    },
    {
      "channel": 2,
      "note": 80,
      "start": 24.98,
      "duration": 0.2172,
      "velocity": 93,
      "chip": "ym2612"
    },
    {
      "channel": 3,
      "note": 75,
      "start": 24.9805,
      "duration": 0.217,
      "velocity": 93,
      "chip": "ym2612"
    },
    {
      "channel": 1,
      "note": 69,
      "start": 25.2215,
      "duration": 0.268,
      "velocity": 98,
      "chip": "ym2612"
    },
    {
      "channel": 2,
      "note": 81,
      "start": 25.222,
      "duration": 0.268,
      "velocity": 93,
      "chip": "ym2612"
    },
    {
      "channel": 3,
      "note": 83,
      "start": 25.2226,
      "duration": 0.2677,
      "velocity": 93,
      "chip": "ym2612"
    },
    {
      "channel": 0,
      "note": 56,
      "start": 25.5137,
      "duration": 0.0321,
      "velocity": 82,
      "chip": "ym2612"
    },
    {
      "channel": 1,
      "note": 71,
      "start": 25.5142,
      "duration": 0.0319,
      "velocity": 98,
      "chip": "ym2612"
    },
    {
      "channel": 2,
      "note": 76,
      "start": 25.5147,
      "duration": 0.0316,
      "velocity": 93,
      "chip": "ym2612"
    },
    {
      "channel": 3,
      "note": 85,
      "start": 25.5154,
      "duration": 0.0313,
      "velocity": 93,
      "chip": "ym2612"
    },
    {
      "channel": 0,
      "note": 57,
      "start": 25.5492,
      "duration": 0.5215,
      "velocity": 82,
      "chip": "ym2612"
    },
    {
      "channel": 1,
      "note": 76,
      "start": 25.55,
      "duration": 0.2285,
      "velocity": 98,
      "chip": "ym2612"
    },
    {
      "channel": 2,
      "note": 69,
      "start": 25.5505,
      "duration": 0.0328,
      "velocity": 93,
      "chip": "ym2612"
    },
    {
      "channel": 3,
      "note": 80,
      "start": 25.5511,
      "duration": 0.0324,
      "velocity": 93,
      "chip": "ym2612"
    },
    {
      "channel": 2,
      "note": 80,
      "start": 25.5862,
      "duration": 0.1925,
      "velocity": 93,
      "chip": "ym2612"
    },
    {
      "channel": 3,
      "note": 73,
      "start": 25.5868,
      "duration": 0.1923,
      "velocity": 93,
      "chip": "ym2612"
    },
    {
      "channel": 4,
      "note": 81,
      "start": 25.6602,
      "duration": 0.4724,
      "velocity": 94,
      "chip": "ym2612"
    },
    {
      "channel": 1,
      "note": 69,
      "start": 25.8031,
      "duration": 0.268,
      "velocity": 98,
      "chip": "ym2612"
    },
    {
      "channel": 2,
      "note": 81,
      "start": 25.8036,
      "duration": 0.2678,
      "velocity": 93,
      "chip": "ym2612"
    },
    {
      "channel": 3,
      "note": 83,
      "start": 25.8042,
      "duration": 0.2674,
      "velocity": 93,
      "chip": "ym2612"
    },
    {
      "channel": 0,
      "note": 57,
      "start": 26.0953,
      "duration": 0.0321,
      "velocity": 82,
      "chip": "ym2612"
    },
    {
      "channel": 1,
      "note": 73,
      "start": 26.0958,
      "duration": 0.0319,
      "velocity": 98,
      "chip": "ym2612"
    },
    {
      "channel": 2,
      "note": 76,
      "start": 26.0963,
      "duration": 0.0316,
      "velocity": 93,
      "chip": "ym2612"
    },
    {
      "channel": 3,
      "note": 85,
      "start": 26.0969,
      "duration": 0.0313,
      "velocity": 93,
      "chip": "ym2612"
    },
    {
      "channel": 0,
      "note": 59,
      "start": 26.1306,
      "duration": 0.256,
      "velocity": 82,
      "chip": "ym2612"
    },
    {
      "channel": 1,
      "note": 75,
      "start": 26.1311,
      "duration": 0.2558,
      "velocity": 98,
      "chip": "ym2612"
    },
    {
      "channel": 2,
      "note": 71,
      "start": 26.1316,
      "duration": 0.0324,
      "velocity": 93,
      "chip": "ym2612"
    },
    {
      "channel": 3,
      "note": 81,
      "start": 26.1322,
      "duration": 0.0322,
      "velocity": 93,
      "chip": "ym2612"
    },
    {
      "channel": 4,
      "note": 51,
      "start": 26.1329,
      "duration": 0.0351,
      "velocity": 94,
      "chip": "ym2612"
    },
    {
      "channel": 2,
      "note": 81,
      "start": 26.167,
      "duration": 0.2201,
      "velocity": 93,
      "chip": "ym2612"
    },
    {
      "channel": 3,
      "note": 75,
      "start": 26.1676,
      "duration": 0.2199,
      "velocity": 93,
      "chip": "ym2612"
    },
    {
      "channel": 4,
      "note": 51,
      "start": 26.1683,
      "duration": 0.2449,
      "velocity": 94,
      "chip": "ym2612"
    },
    {
      "channel": 0,
      "note": 59,
      "start": 26.4112,
      "duration": 0.5604,
      "velocity": 82,
      "chip": "ym2612"
    },
    {
      "channel": 1,
      "note": 71,
      "start": 26.4117,
      "duration": 0.5602,
      "velocity": 98,
      "chip": "ym2612"
    },
    {
      "channel": 2,
      "note": 83,
      "start": 26.4122,
      "duration": 0.2673,
      "velocity": 93,
      "chip": "ym2612"
    },
    {
      "channel": 3,
      "note": 85,
      "start": 26.4128,
      "duration": 0.267,
      "velocity": 93,
      "chip": "ym2612"
    },
    {
      "channel": 4,
      "note": 51,
      "start": 26.416,
      "duration": 0.1422,
      "velocity": 113,
      "chip": "ym2612"
    },
    {
      "channel": 4,
      "note": 93,
      "start": 26.5585,
      "duration": 0.1466,
      "velocity": 113,
      "chip": "ym2612"
    },
    {
      "channel": 2,
      "note": 78,
      "start": 26.7041,
      "duration": 0.2681,
      "velocity": 93,
      "chip": "ym2612"
    },
    {
      "channel": 3,
      "note": 87,
      "start": 26.7047,
      "duration": 0.2678,
      "velocity": 93,
      "chip": "ym2612"
    },
    {
      "channel": 4,
      "note": 93,
      "start": 26.7056,
      "duration": 0.2925,
      "velocity": 113,
      "chip": "ym2612"
    },
    {
      "channel": 0,
      "note": 50,
      "start": 26.9962,
      "duration": 0.2296,
      "velocity": 82,
      "chip": "ym2612"
    },
    {
      "channel": 2,
      "note": 50,
      "start": 26.9971,
      "duration": 0.0328,
      "velocity": 93,
      "chip": "ym2612"
    },
    {
      "channel": 3,
      "note": 83,
      "start": 26.9976,
      "duration": 0.0325,
      "velocity": 93,
      "chip": "ym2612"
    },
    {
      "channel": 2,
      "note": 66,
      "start": 27.0329,
      "duration": 0.1936,
      "velocity": 93,
      "chip": "ym2612"
    },
    {
      "channel": 3,
      "note": 57,
      "start": 27.0337,
      "duration": 0.1931,
      "velocity": 93,
      "chip": "ym2612"
    },
    {
      "channel": 0,
      "note": 62,
      "start": 27.2505,
      "duration": 0.0333,
      "velocity": 82,
      "chip": "ym2612"
    },
    {
      "channel": 1,
      "note": 74,
      "start": 27.251,
      "duration": 0.033,
      "velocity": 98,
      "chip": "ym2612"
    },
    {
      "channel": 2,
      "note": 69,
      "start": 27.2515,
      "duration": 0.0328,
      "velocity": 93,
      "chip": "ym2612"
    },
    {
      "channel": 3,
      "note": 69,
      "start": 27.252,
      "duration": 0.0325,
      "velocity": 93,
      "chip": "ym2612"
    },
    {
      "channel": 0,
      "note": 64,
      "start": 27.2873,
      "duration": 0.1915,
      "velocity": 82,
      "chip": "ym2612"
    },
    {
      "channel": 1,
      "note": 76,
      "start": 27.2878,
      "duration": 0.1913,
      "velocity": 98,
      "chip": "ym2612"
    },
    {
      "channel": 2,
      "note": 73,
      "start": 27.2883,
      "duration": 0.191,
      "velocity": 93,
      "chip": "ym2612"
    },
    {
      "channel": 3,
      "note": 74,
      "start": 27.2889,
      "duration": 0.1908,
      "velocity": 93,
      "chip": "ym2612"
    },
    {
      "channel": 0,
      "note": 66,
      "start": 27.5034,
      "duration": 0.255,
      "velocity": 82,
      "chip": "ym2612"
    },
    {
      "channel": 1,
      "note": 78,
      "start": 27.5039,
      "duration": 0.2548,
      "velocity": 98,
      "chip": "ym2612"
    },
    {
      "channel": 2,
      "note": 69,
      "start": 27.5044,
      "duration": 0.0346,
      "velocity": 93,
      "chip": "ym2612"
    },
    {
      "channel": 3,
      "note": 78,
      "start": 27.505,
      "duration": 0.0342,
      "velocity": 93,
      "chip": "ym2612"
    },
    {
      "channel": 4,
      "note": 90,
      "start": 27.5082,
      "duration": 0.8618,
      "velocity": 99,
      "chip": "ym2612"
    },
    {
      "channel": 2,
      "note": 66,
      "start": 27.5426,
      "duration": 0.2163,
      "velocity": 93,
      "chip": "ym2612"
    },
    {
      "channel": 3,
      "note": 74,
      "start": 27.5431,
      "duration": 0.2161,
      "velocity": 93,
      "chip": "ym2612"
    },
    {
      "channel": 0,
      "note": 62,
      "start": 27.783,
      "duration": 0.5604,
      "velocity": 82,
      "chip": "ym2612"
    },
    {
      "channel": 1,
      "note": 81,
      "start": 27.7835,
      "duration": 0.5602,
      "velocity": 98,
      "chip": "ym2612"
    },
    {
      "channel": 2,
      "note": 62,
      "start": 27.784,
      "duration": 0.2673,
      "velocity": 93,
      "chip": "ym2612"
    },
    {
      "channel": 3,
      "note": 69,
      "start": 27.7846,
      "duration": 0.2671,
      "velocity": 93,
      "chip": "ym2612"
    },
    {
      "channel": 2,
      "note": 66,
      "start": 28.076,
      "duration": 0.268,
      "velocity": 93,
      "chip": "ym2612"
    },
    {
      "channel": 3,
      "note": 66,
      "start": 28.0765,
      "duration": 0.2678,
      "velocity": 93,
      "chip": "ym2612"
    },
    {
      "channel": 0,
      "note": 52,
      "start": 28.368,
      "duration": 0.4828,
      "velocity": 82,
      "chip": "ym2612"
    },
    {
      "channel": 1,
      "note": 80,
      "start": 28.3685,
      "duration": 0.2283,
      "velocity": 98,
      "chip": "ym2612"
    },
    {
      "channel": 2,
      "note": 52,
      "start": 28.369,
      "duration": 0.0317,
      "velocity": 93,
      "chip": "ym2612"
    },
    {
      "channel": 3,
      "note": 69,
      "start": 28.3696,
      "duration": 0.0314,
      "velocity": 93,
      "chip": "ym2612"
    },
    {
      "channel": 2,
      "note": 64,
      "start": 28.404,
      "duration": 0.1932,
      "velocity": 93,
      "chip": "ym2612"
    },
    {
      "channel": 3,
      "note": 59,
      "start": 28.4046,
      "duration": 0.1929,
      "velocity": 93,
      "chip": "ym2612"
    },
    {
      "channel": 1,
      "note": 78,
      "start": 28.6214,
      "duration": 0.2297,
      "velocity": 98,
      "chip": "ym2612"
    },
    {
      "channel": 2,
      "note": 68,
      "start": 28.6219,
      "duration": 0.0342,
      "velocity": 93,
      "chip": "ym2612"
    },
    {
      "channel": 3,
      "note": 68,
      "start": 28.6227,
      "duration": 0.0336,
      "velocity": 93,
      "chip": "ym2612"
    },
    {
      "channel": 2,
      "note": 71,
      "start": 28.6591,
      "duration": 0.1922,
      "velocity": 93,
      "chip": "ym2612"
    },
    {
      "channel": 3,
      "note": 71,
      "start": 28.6597,
      "duration": 0.192,
      "velocity": 93,
      "chip": "ym2612"
    },
    {
      "channel": 0,
      "note": 64,
      "start": 28.8755,
      "duration": 0.035,
      "velocity": 82,
      "chip": "ym2612"
    },
    {
      "channel": 1,
      "note": 76,
      "start": 28.8761,
      "duration": 0.0347,
      "velocity": 98,
      "chip": "ym2612"
    },
    {
      "channel": 2,
      "note": 76,
      "start": 28.8766,
      "duration": 0.0345,
      "velocity": 93,
      "chip": "ym2612"
    },
    {
      "channel": 3,
      "note": 76,
      "start": 28.8771,
      "duration": 0.0343,
      "velocity": 93,
      "chip": "ym2612"
    },
    {
      "channel": 4,
      "note": 81,
      "start": 28.8804,
      "duration": 0.0355,
      "velocity": 94,
      "chip": "ym2612"
    },
    {
      "channel": 0,
      "note": 59,
      "start": 28.9138,
      "duration": 0.2167,
      "velocity": 82,
      "chip": "ym2612"
    },
    {
      "channel": 1,
      "note": 71,
      "start": 28.9143,
      "duration": 0.2164,
      "velocity": 98,
      "chip": "ym2612"
    },
    {
      "channel": 2,
      "note": 71,
      "start": 28.9148,
      "duration": 0.2161,
      "velocity": 93,
      "chip": "ym2612"
    },
    {
      "channel": 3,
      "note": 80,
      "start": 28.9155,
      "duration": 0.2158,
      "velocity": 93,
      "chip": "ym2612"
    },
    {
      "channel": 4,
      "note": 51,
      "start": 28.9162,
      "duration": 0.241,
      "velocity": 94,
      "chip": "ym2612"
    },
    {
      "channel": 0,
      "note": 56,
      "start": 29.1551,
      "duration": 0.5604,
      "velocity": 82,
      "chip": "ym2612"
    },
    {
      "channel": 1,
      "note": 80,
      "start": 29.1556,
      "duration": 0.5602,
      "velocity": 98,
      "chip": "ym2612"
    },
    {
      "channel": 2,
      "note": 68,
      "start": 29.1561,
      "duration": 0.2674,
      "velocity": 93,
      "chip": "ym2612"
    },
    {
      "channel": 3,
      "note": 76,
      "start": 29.1567,
      "duration": 0.267,
      "velocity": 93,
      "chip": "ym2612"
    },
    {
      "channel": 4,
      "note": 51,
      "start": 29.1599,
      "duration": 0.1421,
      "velocity": 113,
      "chip": "ym2612"
    },
    {
      "channel": 4,
      "note": 93,
      "start": 29.3024,
      "duration": 0.1466,
      "velocity": 113,
      "chip": "ym2612"
    },
    {
      "channel": 2,
      "note": 64,
      "start": 29.448,
      "duration": 0.268,
      "velocity": 93,
      "chip": "ym2612"
    },
    {
      "channel": 3,
      "note": 71,
      "start": 29.4486,
      "duration": 0.2678,
      "velocity": 93,
      "chip": "ym2612"
    },
    {
      "channel": 4,
      "note": 93,
      "start": 29.4494,
      "duration": 0.2927,
      "velocity": 113,
      "chip": "ym2612"
    },
    {
      "channel": 0,
      "note": 54,
      "start": 29.7401,
      "duration": 1.0488,
      "velocity": 82,
      "chip": "ym2612"
    },
    {
      "channel": 1,
      "note": 80,
      "start": 29.7406,
      "duration": 0.2261,
      "velocity": 98,
      "chip": "ym2612"
    },
    {
      "channel": 2,
      "note": 66,
      "start": 29.7411,
      "duration": 0.031,
      "velocity": 93,
      "chip": "ym2612"
    },
    {
      "channel": 3,
      "note": 68,
      "start": 29.7417,
      "duration": 0.0306,
      "velocity": 93,
      "chip": "ym2612"
    },
    {
      "channel": 2,
      "note": 66,
      "start": 29.7747,
      "duration": 0.1922,
      "velocity": 93,
      "chip": "ym2612"
    },
    {
      "channel": 3,
      "note": 71,
      "start": 29.7753,
      "duration": 0.192,
      "velocity": 93,
      "chip": "ym2612"
    },
    {
      "channel": 1,
      "note": 81,
      "start": 29.9912,
      "duration": 0.031,
      "velocity": 98,
      "chip": "ym2612"
    },
    {
      "channel": 2,
      "note": 66,
      "start": 29.9917,
      "duration": 0.0308,
      "velocity": 93,
      "chip": "ym2612"
    },
    {
      "channel": 3,
      "note": 71,
      "start": 29.9923,
      "duration": 0.0305,
      "velocity": 93,
      "chip": "ym2612"
    },
    {
      "channel": 1,
      "note": 78,
      "start": 30.025,
      "duration": 1.562,
      "velocity": 98,
      "chip": "ym2612"
    },
    {
      "channel": 2,
      "note": 66,
      "start": 30.0255,
      "duration": 0.1921,
      "velocity": 93,
      "chip": "ym2612"
    },
    {
      "channel": 3,
      "note": 71,
      "start": 30.0261,
      "duration": 0.1921,
      "velocity": 93,
      "chip": "ym2612"
    },
    {
      "channel": 2,
      "note": 66,
      "start": 30.2422,
      "duration": 0.0352,
      "velocity": 93,
      "chip": "ym2612"
    },
    {
      "channel": 3,
      "note": 71,
      "start": 30.2428,
      "duration": 0.0348,
      "velocity": 93,
      "chip": "ym2612"
    },
    {
      "channel": 4,
      "note": 90,
      "start": 30.246,
      "duration": 0.6054,
      "velocity": 99,
      "chip": "ym2612"
    },
    {
      "channel": 2,
      "note": 66,
      "start": 30.2808,
      "duration": 0.216,
      "velocity": 93,
      "chip": "ym2612"
    },
    {
      "channel": 3,
      "note": 71,
      "start": 30.2814,
      "duration": 0.2157,
      "velocity": 93,
      "chip": "ym2612"
    },
    {
      "channel": 2,
      "note": 66,
      "start": 30.5214,
      "duration": 0.2681,
      "velocity": 93,
      "chip": "ym2612"
    },
    {
      "channel": 3,
      "note": 71,
      "start": 30.522,
      "duration": 0.2678,
      "velocity": 93,
      "chip": "ym2612"
    },
    {
      "channel": 0,
      "note": 61,
      "start": 30.8134,
      "duration": 0.033,
      "velocity": 82,
      "chip": "ym2612"
    },
    {
      "channel": 2,
      "note": 66,
      "start": 30.8142,
      "duration": 0.0328,
      "velocity": 93,
      "chip": "ym2612"
    },
    {
      "channel": 3,
      "note": 71,
      "start": 30.8148,
      "duration": 0.0325,
      "velocity": 93,
      "chip": "ym2612"
    },
    {
      "channel": 0,
      "note": 69,
      "start": 30.8497,
      "duration": 0.0458,
      "velocity": 82,
      "chip": "ym2612"
    },
    {
      "channel": 2,
      "note": 66,
      "start": 30.8504,
      "duration": 0.1918,
      "velocity": 93,
      "chip": "ym2612"
    },
    {
      "channel": 3,
      "note": 71,
      "start": 30.851,
      "duration": 0.1915,
      "velocity": 93,
      "chip": "ym2612"
    },
    {
      "channel": 0,
      "note": 68,
      "start": 30.9199,
      "duration": 0.1218,
      "velocity": 82,
      "chip": "ym2612"
    },
    {
      "channel": 0,
      "note": 66,
      "start": 31.0663,
      "duration": 0.1216,
      "velocity": 82,
      "chip": "ym2612"
    },
    {
      "channel": 2,
      "note": 66,
      "start": 31.0671,
      "duration": 0.2676,
      "velocity": 93,
      "chip": "ym2612"
    },
    {
      "channel": 3,
      "note": 70,
      "start": 31.0676,
      "duration": 0.2674,
      "velocity": 93,
      "chip": "ym2612"
    },
    {
      "channel": 0,
      "note": 64,
      "start": 31.2125,
      "duration": 0.1217,
      "velocity": 82,
      "chip": "ym2612"
    },
    {
      "channel": 0,
      "note": 66,
      "start": 31.3588,
      "duration": 0.2279,
      "velocity": 82,
      "chip": "ym2612"
    },
    {
      "channel": 2,
      "note": 66,
      "start": 31.3595,
      "duration": 0.0324,
      "velocity": 93,
      "chip": "ym2612"
    },
    {
      "channel": 3,
      "note": 70,
      "start": 31.3601,
      "duration": 0.0322,
      "velocity": 93,
      "chip": "ym2612"
    },
    {
      "channel": 2,
      "note": 66,
      "start": 31.3951,
      "duration": 0.1922,
      "velocity": 93,
      "chip": "ym2612"
    },
    {
      "channel": 3,
      "note": 70,
      "start": 31.3958,
      "duration": 0.1918,
      "velocity": 93,
      "chip": "ym2612"
    },
    {
      "channel": 4,
      "note": 81,
      "start": 31.3964,
      "duration": 0.2161,
      "velocity": 99,
      "chip": "ym2612"
    },
    {
      "channel": 4,
      "note": 55,
      "start": 31.6154,
      "duration": 0.3243,
      "velocity": 94,
      "chip": "ym2612"
    },
    {
      "channel": 0,
      "note": 57,
      "start": 31.7333,
      "duration": 0.0487,
      "velocity": 82,
      "chip": "ym2612"
    },
    {
      "channel": 0,
      "note": 58,
      "start": 31.7819,
      "duration": 0.0489,
      "velocity": 82,
      "chip": "ym2612"
    },
    {
      "channel": 0,
      "note": 59,
      "start": 31.8309,
      "duration": 0.0486,
      "velocity": 82,
      "chip": "ym2612"
    },
    {
      "channel": 0,
      "note": 60,
      "start": 31.8795,
      "duration": 0.027,
      "velocity": 82,
      "chip": "ym2612"
    },
    {
      "channel": 0,
      "note": 61,
      "start": 31.9065,
      "duration": 0.3707,
      "velocity": 82,
      "chip": "ym2612"
    },
    {
      "channel": 4,
      "note": 51,
      "start": 31.94,
      "duration": 0.0701,
      "velocity": 94,
      "chip": "ym2612"
    },
    {
      "channel": 4,
      "note": 66,
      "start": 32.0104,
      "duration": 0.146,
      "velocity": 94,
      "chip": "ym2612"
    },
    {
      "channel": 4,
      "note": 66,
      "start": 32.1568,
      "duration": 0.1464,
      "velocity": 94,
      "chip": "ym2612"
    },
    {
      "channel": 0,
      "note": 60,
      "start": 32.302,
      "duration": 0.0242,
      "velocity": 82,
      "chip": "ym2612"
    },
    {
      "channel": 4,
      "note": 66,
      "start": 32.3034,
      "duration": 0.1525,
      "velocity": 94,
      "chip": "ym2612"
    },
    {
      "channel": 0,
      "note": 59,
      "start": 32.3261,
      "duration": 0.0244,
      "velocity": 82,
      "chip": "ym2612"
    },
    {
      "channel": 0,
      "note": 58,
      "start": 32.3506,
      "duration": 0.0244,
      "velocity": 82,
      "chip": "ym2612"
    },
    {
      "channel": 0,
      "note": 57,
      "start": 32.3749,
      "duration": 0.0244,
      "velocity": 82,
      "chip": "ym2612"
    },
    {
      "channel": 0,
      "note": 56,
      "start": 32.3993,
      "duration": 0.0245,
      "velocity": 82,
      "chip": "ym2612"
    },
    {
      "channel": 0,
      "note": 55,
      "start": 32.4238,
      "duration": 0.0,
      "velocity": 82,
      "chip": "ym2612"
    },
    {
      "channel": 0,
      "note": 50,
      "start": 32.4482,
      "duration": 0.0226,
      "velocity": 82,
      "chip": "ym2612"
    }
  ]
}