{
  "track_name": "10 - Be His Soul Rest in Peace",
  "duration_sec": 74.894,
  "sample_rate": 44100,
  "note_count": 575,
  "unique_pitches": 20,
  "pitch_range": 36,
  "avg_note_duration": 0.6425,
  "reconstruction_stats": {
    "notes_reconstructed": 575,
    "keyon_events": 575,
    "keyoff_events": 575,
    "orphan_keyons": 0,
    "unique_pitches": 20,
    "pitch_range": 36,
    "avg_duration_sec": 0.6425
  },
  "metadata": {
    "source": "H\\Herzog Zwei\\10 - Be His Soul Rest in Peace.vgz"
  },
  "notes": [
    {
      "channel": 0,
      "note": 54,
      "start": 0.0,
      "duration": 0.025,
      "velocity": 87,
      "chip": "ym2612"
    },
    {
      "channel": 2,
      "note": 71,
      "start": 0.0047,
      "duration": 0.4567,
      "velocity": 87,
      "chip": "ym2612"
    },
    {
      "channel": 4,
      "note": 47,
      "start": 0.0094,
      "duration": 7.928,
      "velocity": 105,
      "chip": "ym2612"
    },
    {
      "channel": 5,
      "note": 47,
      "start": 0.0141,
      "duration": 3.9364,
      "velocity": 127,
      "chip": "ym2612"
    },
    {
      "channel": 0,
      "note": 55,
      "start": 0.0679,
      "duration": 0.0194,
      "velocity": 87,
      "chip": "ym2612"
    },
    {
      "channel": 0,
      "note": 57,
      "start": 0.1302,
      "duration": 0.0197,
      "velocity": 87,
      "chip": "ym2612"
    },
    {
      "channel": 3,
      "note": 71,
      "start": 0.1752,
      "duration": 0.4524,
      "velocity": 87,
      "chip": "ym2612"
    },
    {
      "channel": 0,
      "note": 59,
      "start": 0.1925,
      "duration": 0.0194,
      "velocity": 87,
      "chip": "ym2612"
    },
    {
      "channel": 0,
      "note": 66,
      "start": 0.2556,
      "duration": 1.7007,
      "velocity": 87,
      "chip": "ym2612"
    },
    {
      "channel": 1,
      "note": 54,
      "start": 0.26,
      "duration": 0.0144,
      "velocity": 87,
      "chip": "ym2612"
    },
    {
      "channel": 1,
      "note": 55,
      "start": 0.3172,
      "duration": 0.0194,
      "velocity": 87,
      "chip": "ym2612"
    },
    {
      "channel": 1,
      "note": 57,
      "start": 0.3795,
      "duration": 0.0194,
      "velocity": 87,
      "chip": "ym2612"
    },
    {
      "channel": 1,
      "note": 59,
      "start": 0.4418,
      "duration": 0.0194,
      "velocity": 87,
      "chip": "ym2612"
    },
    {
      "channel": 1,
      "note": 66,
      "start": 0.5042,
      "duration": 1.7014,
      "velocity": 87,
      "chip": "ym2612"
    },
    {
      "channel": 2,
      "note": 78,
      "start": 0.5058,
      "duration": 0.4539,
      "velocity": 87,
      "chip": "ym2612"
    },
    {
      "channel": 3,
      "note": 78,
      "start": 0.6705,
      "duration": 0.4555,
      "velocity": 87,
      "chip": "ym2612"
    },
    {
      "channel": 2,
      "note": 71,
      "start": 1.0026,
      "duration": 0.4555,
      "velocity": 87,
      "chip": "ym2612"
    },
    {
      "channel": 3,
      "note": 71,
      "start": 1.1688,
      "duration": 0.4555,
      "velocity": 87,
      "chip": "ym2612"
    },
    {
      "channel": 2,
      "note": 76,
      "start": 1.501,
      "duration": 0.4555,
      "velocity": 87,
      "chip": "ym2612"
    },
    {
      "channel": 3,
      "note": 76,
      "start": 1.6672,
      "duration": 0.4555,
      "velocity": 87,
      "chip": "ym2612"
    },
    {
      "channel": 0,
      "note": 64,
      "start": 1.9992,
      "duration": 1.9506,
      "velocity": 87,
      "chip": "ym2612"
    },
    {
      "channel": 2,
      "note": 71,
      "start": 2.0009,
      "duration": 0.454,
      "velocity": 87,
      "chip": "ym2612"
    },
    {
      "channel": 3,
      "note": 71,
      "start": 2.1656,
      "duration": 0.4555,
      "velocity": 87,
      "chip": "ym2612"
    },
    {
      "channel": 1,
      "note": 64,
      "start": 2.2485,
      "duration": 1.9506,
      "velocity": 87,
      "chip": "ym2612"
    },
    {
      "channel": 2,
      "note": 74,
      "start": 2.4978,
      "duration": 0.4555,
      "velocity": 87,
      "chip": "ym2612"
    },
    {
      "channel": 3,
      "note": 74,
      "start": 2.664,
      "duration": 0.4555,
      "velocity": 87,
      "chip": "ym2612"
    },
    {
      "channel": 2,
      "note": 71,
      "start": 2.9962,
      "duration": 0.4555,
      "velocity": 87,
      "chip": "ym2612"
    },
    {
      "channel": 3,
      "note": 71,
      "start": 3.1631,
      "duration": 0.4547,
      "velocity": 87,
      "chip": "ym2612"
    },
    {
      "channel": 2,
      "note": 73,
      "start": 3.4945,
      "duration": 0.4556,
      "velocity": 87,
      "chip": "ym2612"
    },
    {
      "channel": 3,
      "note": 73,
      "start": 3.6607,
      "duration": 0.4555,
      "velocity": 87,
      "chip": "ym2612"
    },
    {
      "channel": 0,
      "note": 62,
      "start": 3.9927,
      "duration": 1.9506,
      "velocity": 87,
      "chip": "ym2612"
    },
    {
      "channel": 2,
      "note": 71,
      "start": 3.9945,
      "duration": 0.4539,
      "velocity": 87,
      "chip": "ym2612"
    },
    {
      "channel": 5,
      "note": 47,
      "start": 3.9983,
      "duration": 3.9394,
      "velocity": 127,
      "chip": "ym2612"
    },
    {
      "channel": 3,
      "note": 71,
      "start": 4.1593,
      "duration": 0.4554,
      "velocity": 87,
      "chip": "ym2612"
    },
    {
      "channel": 1,
      "note": 62,
      "start": 4.242,
      "duration": 1.9506,
      "velocity": 87,
      "chip": "ym2612"
    },
    {
      "channel": 2,
      "note": 78,
      "start": 4.4913,
      "duration": 0.4556,
      "velocity": 87,
      "chip": "ym2612"
    },
    {
      "channel": 3,
      "note": 78,
      "start": 4.6575,
      "duration": 0.4555,
      "velocity": 87,
      "chip": "ym2612"
    },
    {
      "channel": 2,
      "note": 71,
      "start": 4.9897,
      "duration": 0.4555,
      "velocity": 87,
      "chip": "ym2612"
    },
    {
      "channel": 3,
      "note": 71,
      "start": 5.1559,
      "duration": 0.456,
      "velocity": 87,
      "chip": "ym2612"
    },
    {
      "channel": 2,
      "note": 76,
      "start": 5.488,
      "duration": 0.4556,
      "velocity": 87,
      "chip": "ym2612"
    },
    {
      "channel": 3,
      "note": 76,
      "start": 5.6543,
      "duration": 0.4554,
      "velocity": 87,
      "chip": "ym2612"
    },
    {
      "channel": 0,
      "note": 61,
      "start": 5.9862,
      "duration": 1.9506,
      "velocity": 87,
      "chip": "ym2612"
    },
    {
      "channel": 2,
      "note": 71,
      "start": 5.9878,
      "duration": 0.4541,
      "velocity": 87,
      "chip": "ym2612"
    },
    {
      "channel": 3,
      "note": 71,
      "start": 6.1527,
      "duration": 0.4555,
      "velocity": 87,
      "chip": "ym2612"
    },
    {
      "channel": 1,
      "note": 61,
      "start": 6.2355,
      "duration": 1.9508,
      "velocity": 87,
      "chip": "ym2612"
    },
    {
      "channel": 2,
      "note": 74,
      "start": 6.4848,
      "duration": 0.4555,
      "velocity": 87,
      "chip": "ym2612"
    },
    {
      "channel": 3,
      "note": 74,
      "start": 6.651,
      "duration": 0.4555,
      "velocity": 87,
      "chip": "ym2612"
    },
    {
      "channel": 2,
      "note": 71,
      "start": 6.9832,
      "duration": 0.4555,
      "velocity": 87,
      "chip": "ym2612"
    },
    {
      "channel": 3,
      "note": 71,
      "start": 7.1494,
      "duration": 0.4555,
      "velocity": 87,
      "chip": "ym2612"
    },
    {
      "channel": 2,
      "note": 73,
      "start": 7.4815,
      "duration": 0.4556,
      "velocity": 87,
      "chip": "ym2612"
    },
    {
      "channel": 3,
      "note": 73,
      "start": 7.6478,
      "duration": 0.457,
      "velocity": 87,
      "chip": "ym2612"
    },
    {
      "channel": 0,
      "note": 52,
      "start": 7.98,
      "duration": 0.0191,
      "velocity": 87,
      "chip": "ym2612"
    },
    {
      "channel": 2,
      "note": 69,
      "start": 7.9822,
      "duration": 0.4532,
      "velocity": 87,
      "chip": "ym2612"
    },
    {
      "channel": 4,
      "note": 45,
      "start": 7.9842,
      "duration": 7.9272,
      "velocity": 105,
      "chip": "ym2612"
    },
    {
      "channel": 5,
      "note": 47,
      "start": 7.9896,
      "duration": 3.935,
      "velocity": 127,
      "chip": "ym2612"
    },
    {
      "channel": 0,
      "note": 54,
      "start": 8.042,
      "duration": 0.0201,
      "velocity": 87,
      "chip": "ym2612"
    },
    {
      "channel": 0,
      "note": 55,
      "start": 8.1043,
      "duration": 0.0194,
      "velocity": 87,
      "chip": "ym2612"
    },
    {
      "channel": 3,
      "note": 69,
      "start": 8.1467,
      "duration": 0.4549,
      "velocity": 87,
      "chip": "ym2612"
    },
    {
      "channel": 0,
      "note": 57,
      "start": 8.1666,
      "duration": 0.0195,
      "velocity": 87,
      "chip": "ym2612"
    },
    {
      "channel": 0,
      "note": 64,
      "start": 8.2289,
      "duration": 1.7014,
      "velocity": 87,
      "chip": "ym2612"
    },
    {
      "channel": 1,
      "note": 52,
      "start": 8.2308,
      "duration": 0.0177,
      "velocity": 87,
      "chip": "ym2612"
    },
    {
      "channel": 1,
      "note": 54,
      "start": 8.2913,
      "duration": 0.0194,
      "velocity": 87,
      "chip": "ym2612"
    },
    {
      "channel": 1,
      "note": 55,
      "start": 8.3536,
      "duration": 0.0194,
      "velocity": 87,
      "chip": "ym2612"
    },
    {
      "channel": 1,
      "note": 57,
      "start": 8.4159,
      "duration": 0.0194,
      "velocity": 87,
      "chip": "ym2612"
    },
    {
      "channel": 1,
      "note": 64,
      "start": 8.4782,
      "duration": 1.7014,
      "velocity": 87,
      "chip": "ym2612"
    },
    {
      "channel": 2,
      "note": 76,
      "start": 8.4798,
      "duration": 0.4541,
      "velocity": 87,
      "chip": "ym2612"
    },
    {
      "channel": 3,
      "note": 76,
      "start": 8.6445,
      "duration": 0.4555,
      "velocity": 87,
      "chip": "ym2612"
    },
    {
      "channel": 2,
      "note": 69,
      "start": 8.9767,
      "duration": 0.4555,
      "velocity": 87,
      "chip": "ym2612"
    },
    {
      "channel": 3,
      "note": 69,
      "start": 9.1429,
      "duration": 0.4555,
      "velocity": 87,
      "chip": "ym2612"
    },
    {
      "channel": 2,
      "note": 74,
      "start": 9.4751,
      "duration": 0.4555,
      "velocity": 87,
      "chip": "ym2612"
    },
    {
      "channel": 3,
      "note": 74,
      "start": 9.6416,
      "duration": 0.4552,
      "velocity": 87,
      "chip": "ym2612"
    },
    {
      "channel": 0,
      "note": 62,
      "start": 9.9733,
      "duration": 1.9506,
      "velocity": 87,
      "chip": "ym2612"
    },
    {
      "channel": 2,
      "note": 69,
      "start": 9.975,
      "duration": 0.4539,
      "velocity": 87,
      "chip": "ym2612"
    },
    {
      "channel": 3,
      "note": 69,
      "start": 10.1397,
      "duration": 0.4554,
      "velocity": 87,
      "chip": "ym2612"
    },
    {
      "channel": 1,
      "note": 62,
      "start": 10.2226,
      "duration": 1.9506,
      "velocity": 87,
      "chip": "ym2612"
    },
    {
      "channel": 2,
      "note": 73,
      "start": 10.4719,
      "duration": 0.4555,
      "velocity": 87,
      "chip": "ym2612"
    },
    {
      "channel": 3,
      "note": 73,
      "start": 10.6381,
      "duration": 0.4555,
      "velocity": 87,
      "chip": "ym2612"
    },
    {
      "channel": 2,
      "note": 69,
      "start": 10.9705,
      "duration": 0.4551,
      "velocity": 87,
      "chip": "ym2612"
    },
    {
      "channel": 3,
      "note": 69,
      "start": 11.1364,
      "duration": 0.4555,
      "velocity": 87,
      "chip": "ym2612"
    },
    {
      "channel": 2,
      "note": 71,
      "start": 11.4686,
      "duration": 0.4555,
      "velocity": 87,
      "chip": "ym2612"
    },
    {
      "channel": 3,
      "note": 71,
      "start": 11.6359,
      "duration": 0.4544,
      "velocity": 87,
      "chip": "ym2612"
    },
    {
      "channel": 0,
      "note": 61,
      "start": 11.9668,
      "duration": 1.9507,
      "velocity": 87,
      "chip": "ym2612"
    },
    {
      "channel": 2,
      "note": 69,
      "start": 11.9686,
      "duration": 0.4538,
      "velocity": 87,
      "chip": "ym2612"
    },
    {
      "channel": 5,
      "note": 47,
      "start": 11.9724,
      "duration": 2.9425,
      "velocity": 127,
      "chip": "ym2612"
    },
    {
      "channel": 3,
      "note": 69,
      "start": 12.1334,
      "duration": 0.4553,
      "velocity": 87,
      "chip": "ym2612"
    },
    {
      "channel": 1,
      "note": 61,
      "start": 12.2161,
      "duration": 1.9506,
      "velocity": 87,
      "chip": "ym2612"
    },
    {
      "channel": 2,
      "note": 76,
      "start": 12.4654,
      "duration": 0.4555,
      "velocity": 87,
      "chip": "ym2612"
    },
    {
      "channel": 3,
      "note": 76,
      "start": 12.6316,
      "duration": 0.4555,
      "velocity": 87,
      "chip": "ym2612"
    },
    {
      "channel": 2,
      "note": 69,
      "start": 12.9638,
      "duration": 0.4561,
      "velocity": 87,
      "chip": "ym2612"
    },
    {
      "channel": 3,
      "note": 69,
      "start": 13.13,
      "duration": 0.4555,
      "velocity": 87,
      "chip": "ym2612"
    },
    {
      "channel": 2,
      "note": 74,
      "start": 13.4621,
      "duration": 0.4556,
      "velocity": 87,
      "chip": "ym2612"
    },
    {
      "channel": 3,
      "note": 74,
      "start": 13.6283,
      "duration": 0.4555,
      "velocity": 87,
      "chip": "ym2612"
    },
    {
      "channel": 0,
      "note": 59,
      "start": 13.9603,
      "duration": 1.9925,
      "velocity": 87,
      "chip": "ym2612"
    },
    {
      "channel": 2,
      "note": 69,
      "start": 13.962,
      "duration": 0.4539,
      "velocity": 87,
      "chip": "ym2612"
    },
    {
      "channel": 3,
      "note": 69,
      "start": 14.1268,
      "duration": 0.4555,
      "velocity": 87,
      "chip": "ym2612"
    },
    {
      "channel": 1,
      "note": 59,
      "start": 14.2096,
      "duration": 2.0147,
      "velocity": 87,
      "chip": "ym2612"
    },
    {
      "channel": 2,
      "note": 73,
      "start": 14.4589,
      "duration": 0.4555,
      "velocity": 87,
      "chip": "ym2612"
    },
    {
      "channel": 3,
      "note": 73,
      "start": 14.6251,
      "duration": 0.4555,
      "velocity": 87,
      "chip": "ym2612"
    },
    {
      "channel": 2,
      "note": 69,
      "start": 14.9572,
      "duration": 0.4555,
      "velocity": 87,
      "chip": "ym2612"
    },
    {
      "channel": 5,
      "note": 78,
      "start": 14.9626,
      "duration": 0.015,
      "velocity": 127,
      "chip": "ym2612"
    },
    {
      "channel": 5,
      "note": 74,
      "start": 15.0827,
      "duration": 0.0195,
      "velocity": 127,
      "chip": "ym2612"
    },
    {
      "channel": 3,
      "note": 69,
      "start": 15.1236,
      "duration": 0.4554,
      "velocity": 87,
      "chip": "ym2612"
    },
    {
      "channel": 5,
      "note": 71,
      "start": 15.2077,
      "duration": 0.019,
      "velocity": 127,
      "chip": "ym2612"
    },
    {
      "channel": 5,
      "note": 69,
      "start": 15.3318,
      "duration": 0.0195,
      "velocity": 127,
      "chip": "ym2612"
    },
    {
      "channel": 2,
      "note": 71,
      "start": 15.4557,
      "duration": 0.4554,
      "velocity": 87,
      "chip": "ym2612"
    },
    {
      "channel": 5,
      "note": 74,
      "start": 15.4579,
      "duration": 0.018,
      "velocity": 127,
      "chip": "ym2612"
    },
    {
      "channel": 5,
      "note": 74,
      "start": 15.581,
      "duration": 0.0195,
      "velocity": 127,
      "chip": "ym2612"
    },
    {
      "channel": 3,
      "note": 71,
      "start": 15.6219,
      "duration": 0.4777,
      "velocity": 87,
      "chip": "ym2612"
    },
    {
      "channel": 5,
      "note": 74,
      "start": 15.7056,
      "duration": 0.0194,
      "velocity": 127,
      "chip": "ym2612"
    },
    {
      "channel": 5,
      "note": 74,
      "start": 15.8301,
      "duration": 0.0195,
      "velocity": 127,
      "chip": "ym2612"
    },
    {
      "channel": 2,
      "note": 71,
      "start": 15.962,
      "duration": 0.469,
      "velocity": 87,
      "chip": "ym2612"
    },
    {
      "channel": 4,
      "note": 47,
      "start": 15.9668,
      "duration": 7.9396,
      "velocity": 105,
      "chip": "ym2612"
    },
    {
      "channel": 5,
      "note": 59,
      "start": 15.9722,
      "duration": 0.023,
      "velocity": 127,
      "chip": "ym2612"
    },
    {
      "channel": 0,
      "note": 55,
      "start": 16.0369,
      "duration": 0.0194,
      "velocity": 87,
      "chip": "ym2612"
    },
    {
      "channel": 0,
      "note": 57,
      "start": 16.0991,
      "duration": 0.0194,
      "velocity": 87,
      "chip": "ym2612"
    },
    {
      "channel": 3,
      "note": 71,
      "start": 16.1444,
      "duration": 0.452,
      "velocity": 87,
      "chip": "ym2612"
    },
    {
      "channel": 0,
      "note": 59,
      "start": 16.1615,
      "duration": 0.0194,
      "velocity": 87,
      "chip": "ym2612"
    },
    {
      "channel": 0,
      "note": 66,
      "start": 16.2238,
      "duration": 1.7015,
      "velocity": 87,
      "chip": "ym2612"
    },
    {
      "channel": 1,
      "note": 55,
      "start": 16.2862,
      "duration": 0.0194,
      "velocity": 87,
      "chip": "ym2612"
    },
    {
      "channel": 1,
      "note": 57,
      "start": 16.3485,
      "duration": 0.0194,
      "velocity": 87,
      "chip": "ym2612"
    },
    {
      "channel": 1,
      "note": 59,
      "start": 16.4108,
      "duration": 0.02,
      "velocity": 87,
      "chip": "ym2612"
    },
    {
      "channel": 1,
      "note": 66,
      "start": 16.4731,
      "duration": 1.7013,
      "velocity": 87,
      "chip": "ym2612"
    },
    {
      "channel": 2,
      "note": 78,
      "start": 16.4746,
      "duration": 0.454,
      "velocity": 87,
      "chip": "ym2612"
    },
    {
      "channel": 3,
      "note": 78,
      "start": 16.6394,
      "duration": 0.4555,
      "velocity": 87,
      "chip": "ym2612"
    },
    {
      "channel": 5,
      "note": 59,
      "start": 16.7227,
      "duration": 0.0194,
      "velocity": 127,
      "chip": "ym2612"
    },
    {
      "channel": 5,
      "note": 59,
      "start": 16.8477,
      "duration": 0.0195,
      "velocity": 127,
      "chip": "ym2612"
    },
    {
      "channel": 2,
      "note": 71,
      "start": 16.9715,
      "duration": 0.4555,
      "velocity": 87,
      "chip": "ym2612"
    },
    {
      "channel": 5,
      "note": 71,
      "start": 16.9767,
      "duration": 0.0155,
      "velocity": 127,
      "chip": "ym2612"
    },
    {
      "channel": 3,
      "note": 71,
      "start": 17.1379,
      "duration": 0.4554,
      "velocity": 87,
      "chip": "ym2612"
    },
    {
      "channel": 2,
      "note": 76,
      "start": 17.47,
      "duration": 0.4555,
      "velocity": 87,
      "chip": "ym2612"
    },
    {
      "channel": 3,
      "note": 76,
      "start": 17.6362,
      "duration": 0.4555,
      "velocity": 87,
      "chip": "ym2612"
    },
    {
      "channel": 0,
      "note": 64,
      "start": 17.9681,
      "duration": 1.9506,
      "velocity": 87,
      "chip": "ym2612"
    },
    {
      "channel": 2,
      "note": 71,
      "start": 17.9698,
      "duration": 0.454,
      "velocity": 87,
      "chip": "ym2612"
    },
    {
      "channel": 5,
      "note": 59,
      "start": 17.976,
      "duration": 0.0126,
      "velocity": 127,
      "chip": "ym2612"
    },
    {
      "channel": 3,
      "note": 71,
      "start": 18.1345,
      "duration": 0.4555,
      "velocity": 87,
      "chip": "ym2612"
    },
    {
      "channel": 1,
      "note": 64,
      "start": 18.218,
      "duration": 1.9501,
      "velocity": 87,
      "chip": "ym2612"
    },
    {
      "channel": 2,
      "note": 74,
      "start": 18.4667,
      "duration": 0.4555,
      "velocity": 87,
      "chip": "ym2612"
    },
    {
      "channel": 3,
      "note": 74,
      "start": 18.6329,
      "duration": 0.4555,
      "velocity": 87,
      "chip": "ym2612"
    },
    {
      "channel": 5,
      "note": 59,
      "start": 18.7162,
      "duration": 0.0195,
      "velocity": 127,
      "chip": "ym2612"
    },
    {
      "channel": 5,
      "note": 59,
      "start": 18.8412,
      "duration": 0.0195,
      "velocity": 127,
      "chip": "ym2612"
    },
    {
      "channel": 2,
      "note": 71,
      "start": 18.9651,
      "duration": 0.4555,
      "velocity": 87,
      "chip": "ym2612"
    },
    {
      "channel": 5,
      "note": 71,
      "start": 18.9702,
      "duration": 0.0151,
      "velocity": 127,
      "chip": "ym2612"
    },
    {
      "channel": 3,
      "note": 71,
      "start": 19.1313,
      "duration": 0.4555,
      "velocity": 87,
      "chip": "ym2612"
    },
    {
      "channel": 2,
      "note": 73,
      "start": 19.4635,
      "duration": 0.4555,
      "velocity": 87,
      "chip": "ym2612"
    },
    {
      "channel": 3,
      "note": 73,
      "start": 19.6297,
      "duration": 0.4555,
      "velocity": 87,
      "chip": "ym2612"
    },
    {
      "channel": 0,
      "note": 62,
      "start": 19.9616,
      "duration": 1.9506,
      "velocity": 87,
      "chip": "ym2612"
    },
    {
      "channel": 2,
      "note": 71,
      "start": 19.9635,
      "duration": 0.4539,
      "velocity": 87,
      "chip": "ym2612"
    },
    {
      "channel": 5,
      "note": 59,
      "start": 19.9696,
      "duration": 0.0124,
      "velocity": 127,
      "chip": "ym2612"
    },
    {
      "channel": 3,
      "note": 71,
      "start": 20.1282,
      "duration": 0.4554,
      "velocity": 87,
      "chip": "ym2612"
    },
    {
      "channel": 1,
      "note": 62,
      "start": 20.2109,
      "duration": 1.9506,
      "velocity": 87,
      "chip": "ym2612"
    },
    {
      "channel": 2,
      "note": 78,
      "start": 20.4602,
      "duration": 0.4555,
      "velocity": 87,
      "chip": "ym2612"
    },
    {
      "channel": 3,
      "note": 78,
      "start": 20.6264,
      "duration": 0.4555,
      "velocity": 87,
      "chip": "ym2612"
    },
    {
      "channel": 5,
      "note": 59,
      "start": 20.7097,
      "duration": 0.0195,
      "velocity": 127,
      "chip": "ym2612"
    },
    {
      "channel": 5,
      "note": 59,
      "start": 20.8347,
      "duration": 0.0195,
      "velocity": 127,
      "chip": "ym2612"
    },
    {
      "channel": 2,
      "note": 71,
      "start": 20.9586,
      "duration": 0.4555,
      "velocity": 87,
      "chip": "ym2612"
    },
    {
      "channel": 5,
      "note": 71,
      "start": 20.9637,
      "duration": 0.0151,
      "velocity": 127,
      "chip": "ym2612"
    },
    {
      "channel": 3,
      "note": 71,
      "start": 21.1255,
      "duration": 0.4548,
      "velocity": 87,
      "chip": "ym2612"
    },
    {
      "channel": 2,
      "note": 76,
      "start": 21.457,
      "duration": 0.4556,
      "velocity": 87,
      "chip": "ym2612"
    },
    {
      "channel": 3,
      "note": 76,
      "start": 21.6233,
      "duration": 0.4554,
      "velocity": 87,
      "chip": "ym2612"
    },
    {
      "channel": 0,
      "note": 61,
      "start": 21.9552,
      "duration": 1.9506,
      "velocity": 87,
      "chip": "ym2612"
    },
    {
      "channel": 2,
      "note": 71,
      "start": 21.9569,
      "duration": 0.4539,
      "velocity": 87,
      "chip": "ym2612"
    },
    {
      "channel": 5,
      "note": 59,
      "start": 21.9632,
      "duration": 0.0124,
      "velocity": 127,
      "chip": "ym2612"
    },
    {
      "channel": 3,
      "note": 71,
      "start": 22.1216,
      "duration": 0.4555,
      "velocity": 87,
      "chip": "ym2612"
    },
    {
      "channel": 1,
      "note": 61,
      "start": 22.2044,
      "duration": 1.9508,
      "velocity": 87,
      "chip": "ym2612"
    },
    {
      "channel": 2,
      "note": 74,
      "start": 22.4545,
      "duration": 0.4548,
      "velocity": 87,
      "chip": "ym2612"
    },
    {
      "channel": 3,
      "note": 74,
      "start": 22.62,
      "duration": 0.4555,
      "velocity": 87,
      "chip": "ym2612"
    },
    {
      "channel": 5,
      "note": 59,
      "start": 22.7033,
      "duration": 0.0195,
      "velocity": 127,
      "chip": "ym2612"
    },
    {
      "channel": 5,
      "note": 59,
      "start": 22.8282,
      "duration": 0.0195,
      "velocity": 127,
      "chip": "ym2612"
    },
    {
      "channel": 2,
      "note": 71,
      "start": 22.9521,
      "duration": 0.4555,
      "velocity": 87,
      "chip": "ym2612"
    },
    {
      "channel": 5,
      "note": 71,
      "start": 22.9573,
      "duration": 0.0151,
      "velocity": 127,
      "chip": "ym2612"
    },
    {
      "channel": 3,
      "note": 71,
      "start": 23.1184,
      "duration": 0.4559,
      "velocity": 87,
      "chip": "ym2612"
    },
    {
      "channel": 2,
      "note": 73,
      "start": 23.4505,
      "duration": 0.4556,
      "velocity": 87,
      "chip": "ym2612"
    },
    {
      "channel": 3,
      "note": 73,
      "start": 23.6167,
      "duration": 0.457,
      "velocity": 87,
      "chip": "ym2612"
    },
    {
      "channel": 0,
      "note": 52,
      "start": 23.949,
      "duration": 0.0191,
      "velocity": 87,
      "chip": "ym2612"
    },
    {
      "channel": 2,
      "note": 69,
      "start": 23.9512,
      "duration": 0.4533,
      "velocity": 87,
      "chip": "ym2612"
    },
    {
      "channel": 4,
      "note": 45,
      "start": 23.9532,
      "duration": 7.9272,
      "velocity": 105,
      "chip": "ym2612"
    },
    {
      "channel": 5,
      "note": 59,
      "start": 23.9583,
      "duration": 0.0109,
      "velocity": 127,
      "chip": "ym2612"
    },
    {
      "channel": 0,
      "note": 54,
      "start": 24.011,
      "duration": 0.0194,
      "velocity": 87,
      "chip": "ym2612"
    },
    {
      "channel": 0,
      "note": 55,
      "start": 24.0733,
      "duration": 0.0193,
      "velocity": 87,
      "chip": "ym2612"
    },
    {
      "channel": 3,
      "note": 69,
      "start": 24.1157,
      "duration": 0.4549,
      "velocity": 87,
      "chip": "ym2612"
    },
    {
      "channel": 0,
      "note": 57,
      "start": 24.1358,
      "duration": 0.0192,
      "velocity": 87,
      "chip": "ym2612"
    },
    {
      "channel": 0,
      "note": 64,
      "start": 24.1979,
      "duration": 1.7014,
      "velocity": 87,
      "chip": "ym2612"
    },
    {
      "channel": 1,
      "note": 52,
      "start": 24.1997,
      "duration": 0.0176,
      "velocity": 87,
      "chip": "ym2612"
    },
    {
      "channel": 1,
      "note": 54,
      "start": 24.2603,
      "duration": 0.0194,
      "velocity": 87,
      "chip": "ym2612"
    },
    {
      "channel": 1,
      "note": 55,
      "start": 24.3226,
      "duration": 0.0193,
      "velocity": 87,
      "chip": "ym2612"
    },
    {
      "channel": 1,
      "note": 57,
      "start": 24.3849,
      "duration": 0.0194,
      "velocity": 87,
      "chip": "ym2612"
    },
    {
      "channel": 1,
      "note": 64,
      "start": 24.4472,
      "duration": 1.7014,
      "velocity": 87,
      "chip": "ym2612"
    },
    {
      "channel": 2,
      "note": 76,
      "start": 24.4488,
      "duration": 0.4539,
      "velocity": 87,
      "chip": "ym2612"
    },
    {
      "channel": 3,
      "note": 76,
      "start": 24.6135,
      "duration": 0.4554,
      "velocity": 87,
      "chip": "ym2612"
    },
    {
      "channel": 5,
      "note": 59,
      "start": 24.6968,
      "duration": 0.0194,
      "velocity": 127,
      "chip": "ym2612"
    },
    {
      "channel": 5,
      "note": 59,
      "start": 24.8217,
      "duration": 0.0195,
      "velocity": 127,
      "chip": "ym2612"
    },
    {
      "channel": 2,
      "note": 69,
      "start": 24.9456,
      "duration": 0.4555,
      "velocity": 87,
      "chip": "ym2612"
    },
    {
      "channel": 5,
      "note": 71,
      "start": 24.9507,
      "duration": 0.0151,
      "velocity": 127,
      "chip": "ym2612"
    },
    {
      "channel": 3,
      "note": 69,
      "start": 25.1119,
      "duration": 0.4555,
      "velocity": 87,
      "chip": "ym2612"
    },
    {
      "channel": 2,
      "note": 74,
      "start": 25.444,
      "duration": 0.4556,
      "velocity": 87,
      "chip": "ym2612"
    },
    {
      "channel": 3,
      "note": 74,
      "start": 25.6103,
      "duration": 0.4555,
      "velocity": 87,
      "chip": "ym2612"
    },
    {
      "channel": 0,
      "note": 62,
      "start": 25.9422,
      "duration": 1.9506,
      "velocity": 87,
      "chip": "ym2612"
    },
    {
      "channel": 2,
      "note": 69,
      "start": 25.9439,
      "duration": 0.454,
      "velocity": 87,
      "chip": "ym2612"
    },
    {
      "channel": 5,
      "note": 59,
      "start": 25.9501,
      "duration": 0.0125,
      "velocity": 127,
      "chip": "ym2612"
    },
    {
      "channel": 3,
      "note": 69,
      "start": 26.1086,
      "duration": 0.4555,
      "velocity": 87,
      "chip": "ym2612"
    },
    {
      "channel": 1,
      "note": 62,
      "start": 26.1915,
      "duration": 1.9506,
      "velocity": 87,
      "chip": "ym2612"
    },
    {
      "channel": 2,
      "note": 73,
      "start": 26.4408,
      "duration": 0.4555,
      "velocity": 87,
      "chip": "ym2612"
    },
    {
      "channel": 3,
      "note": 73,
      "start": 26.607,
      "duration": 0.4555,
      "velocity": 87,
      "chip": "ym2612"
    },
    {
      "channel": 5,
      "note": 59,
      "start": 26.6904,
      "duration": 0.0194,
      "velocity": 127,
      "chip": "ym2612"
    },
    {
      "channel": 5,
      "note": 59,
      "start": 26.8153,
      "duration": 0.0195,
      "velocity": 127,
      "chip": "ym2612"
    },
    {
      "channel": 2,
      "note": 69,
      "start": 26.9392,
      "duration": 0.4554,
      "velocity": 87,
      "chip": "ym2612"
    },
    {
      "channel": 5,
      "note": 71,
      "start": 26.9443,
      "duration": 0.0151,
      "velocity": 127,
      "chip": "ym2612"
    },
    {
      "channel": 3,
      "note": 69,
      "start": 27.1054,
      "duration": 0.4554,
      "velocity": 87,
      "chip": "ym2612"
    },
    {
      "channel": 2,
      "note": 71,
      "start": 27.4376,
      "duration": 0.4555,
      "velocity": 87,
      "chip": "ym2612"
    },
    {
      "channel": 3,
      "note": 71,
      "start": 27.6039,
      "duration": 0.4553,
      "velocity": 87,
      "chip": "ym2612"
    },
    {
      "channel": 0,
      "note": 61,
      "start": 27.9357,
      "duration": 1.9507,
      "velocity": 87,
      "chip": "ym2612"
    },
    {
      "channel": 2,
      "note": 69,
      "start": 27.9376,
      "duration": 0.4538,
      "velocity": 87,
      "chip": "ym2612"
    },
    {
      "channel": 5,
      "note": 59,
      "start": 27.9438,
      "duration": 0.0124,
      "velocity": 127,
      "chip": "ym2612"
    },
    {
      "channel": 3,
      "note": 69,
      "start": 28.1023,
      "duration": 0.4553,
      "velocity": 87,
      "chip": "ym2612"
    },
    {
      "channel": 1,
      "note": 61,
      "start": 28.185,
      "duration": 1.9506,
      "velocity": 87,
      "chip": "ym2612"
    },
    {
      "channel": 2,
      "note": 76,
      "start": 28.4343,
      "duration": 0.4555,
      "velocity": 87,
      "chip": "ym2612"
    },
    {
      "channel": 3,
      "note": 76,
      "start": 28.6005,
      "duration": 0.4555,
      "velocity": 87,
      "chip": "ym2612"
    },
    {
      "channel": 5,
      "note": 59,
      "start": 28.6838,
      "duration": 0.0195,
      "velocity": 127,
      "chip": "ym2612"
    },
    {
      "channel": 5,
      "note": 59,
      "start": 28.8088,
      "duration": 0.0195,
      "velocity": 127,
      "chip": "ym2612"
    },
    {
      "channel": 2,
      "note": 69,
      "start": 28.9329,
      "duration": 0.4552,
      "velocity": 87,
      "chip": "ym2612"
    },
    {
      "channel": 5,
      "note": 71,
      "start": 28.938,
      "duration": 0.0149,
      "velocity": 127,
      "chip": "ym2612"
    },
    {
      "channel": 3,
      "note": 69,
      "start": 29.0989,
      "duration": 0.4555,
      "velocity": 87,
      "chip": "ym2612"
    },
    {
      "channel": 2,
      "note": 74,
      "start": 29.4311,
      "duration": 0.4556,
      "velocity": 87,
      "chip": "ym2612"
    },
    {
      "channel": 3,
      "note": 74,
      "start": 29.5983,
      "duration": 0.4545,
      "velocity": 87,
      "chip": "ym2612"
    },
    {
      "channel": 0,
      "note": 59,
      "start": 29.9293,
      "duration": 1.9924,
      "velocity": 87,
      "chip": "ym2612"
    },
    {
      "channel": 2,
      "note": 69,
      "start": 29.931,
      "duration": 0.4539,
      "velocity": 87,
      "chip": "ym2612"
    },
    {
      "channel": 5,
      "note": 59,
      "start": 29.9372,
      "duration": 0.0125,
      "velocity": 127,
      "chip": "ym2612"
    },
    {
      "channel": 3,
      "note": 69,
      "start": 30.0957,
      "duration": 0.4554,
      "velocity": 87,
      "chip": "ym2612"
    },
    {
      "channel": 1,
      "note": 59,
      "start": 30.1785,
      "duration": 2.0148,
      "velocity": 87,
      "chip": "ym2612"
    },
    {
      "channel": 2,
      "note": 73,
      "start": 30.4278,
      "duration": 0.4555,
      "velocity": 87,
      "chip": "ym2612"
    },
    {
      "channel": 3,
      "note": 73,
      "start": 30.5941,
      "duration": 0.4555,
      "velocity": 87,
      "chip": "ym2612"
    },
    {
      "channel": 5,
      "note": 59,
      "start": 30.6773,
      "duration": 0.0195,
      "velocity": 127,
      "chip": "ym2612"
    },
    {
      "channel": 5,
      "note": 59,
      "start": 30.8023,
      "duration": 0.0202,
      "velocity": 127,
      "chip": "ym2612"
    },
    {
      "channel": 2,
      "note": 69,
      "start": 30.9262,
      "duration": 0.4559,
      "velocity": 87,
      "chip": "ym2612"
    },
    {
      "channel": 5,
      "note": 78,
      "start": 30.9284,
      "duration": 0.018,
      "velocity": 127,
      "chip": "ym2612"
    },
    {
      "channel": 5,
      "note": 78,
      "start": 30.9893,
      "duration": 0.0195,
      "velocity": 127,
      "chip": "ym2612"
    },
    {
      "channel": 5,
      "note": 78,
      "start": 31.0516,
      "duration": 0.0194,
      "velocity": 127,
      "chip": "ym2612"
    },
    {
      "channel": 3,
      "note": 69,
      "start": 31.0924,
      "duration": 0.4555,
      "velocity": 87,
      "chip": "ym2612"
    },
    {
      "channel": 5,
      "note": 78,
      "start": 31.1138,
      "duration": 0.0195,
      "velocity": 127,
      "chip": "ym2612"
    },
    {
      "channel": 5,
      "note": 76,
      "start": 31.1761,
      "duration": 0.0195,
      "velocity": 127,
      "chip": "ym2612"
    },
    {
      "channel": 5,
      "note": 76,
      "start": 31.3007,
      "duration": 0.0196,
      "velocity": 127,
      "chip": "ym2612"
    },
    {
      "channel": 2,
      "note": 71,
      "start": 31.4246,
      "duration": 0.4555,
      "velocity": 87,
      "chip": "ym2612"
    },
    {
      "channel": 5,
      "note": 76,
      "start": 31.4268,
      "duration": 0.0181,
      "velocity": 127,
      "chip": "ym2612"
    },
    {
      "channel": 5,
      "note": 76,
      "start": 31.55,
      "duration": 0.0195,
      "velocity": 127,
      "chip": "ym2612"
    },
    {
      "channel": 3,
      "note": 71,
      "start": 31.5908,
      "duration": 0.4777,
      "velocity": 87,
      "chip": "ym2612"
    },
    {
      "channel": 5,
      "note": 71,
      "start": 31.6745,
      "duration": 0.0195,
      "velocity": 127,
      "chip": "ym2612"
    },
    {
      "channel": 5,
      "note": 71,
      "start": 31.7991,
      "duration": 0.0195,
      "velocity": 127,
      "chip": "ym2612"
    },
    {
      "channel": 2,
      "note": 71,
      "start": 31.9309,
      "duration": 0.4685,
      "velocity": 87,
      "chip": "ym2612"
    },
    {
      "channel": 4,
      "note": 47,
      "start": 31.9357,
      "duration": 7.9396,
      "velocity": 105,
      "chip": "ym2612"
    },
    {
      "channel": 5,
      "note": 59,
      "start": 31.9411,
      "duration": 0.023,
      "velocity": 127,
      "chip": "ym2612"
    },
    {
      "channel": 0,
      "note": 67,
      "start": 32.0059,
      "duration": 0.0193,
      "velocity": 102,
      "chip": "ym2612"
    },
    {
      "channel": 0,
      "note": 69,
      "start": 32.0681,
      "duration": 0.0194,
      "velocity": 102,
      "chip": "ym2612"
    },
    {
      "channel": 3,
      "note": 71,
      "start": 32.1134,
      "duration": 0.452,
      "velocity": 87,
      "chip": "ym2612"
    },
    {
      "channel": 0,
      "note": 71,
      "start": 32.1304,
      "duration": 0.0195,
      "velocity": 102,
      "chip": "ym2612"
    },
    {
      "channel": 0,
      "note": 78,
      "start": 32.1927,
      "duration": 1.7015,
      "velocity": 102,
      "chip": "ym2612"
    },
    {
      "channel": 1,
      "note": 67,
      "start": 32.2551,
      "duration": 0.0195,
      "velocity": 102,
      "chip": "ym2612"
    },
    {
      "channel": 1,
      "note": 69,
      "start": 32.3174,
      "duration": 0.0194,
      "velocity": 102,
      "chip": "ym2612"
    },
    {
      "channel": 1,
      "note": 71,
      "start": 32.3797,
      "duration": 0.0195,
      "velocity": 102,
      "chip": "ym2612"
    },
    {
      "channel": 1,
      "note": 78,
      "start": 32.442,
      "duration": 1.7015,
      "velocity": 102,
      "chip": "ym2612"
    },
    {
      "channel": 2,
      "note": 78,
      "start": 32.4436,
      "duration": 0.454,
      "velocity": 87,
      "chip": "ym2612"
    },
    {
      "channel": 3,
      "note": 78,
      "start": 32.6094,
      "duration": 0.4544,
      "velocity": 87,
      "chip": "ym2612"
    },
    {
      "channel": 5,
      "note": 59,
      "start": 32.6916,
      "duration": 0.0195,
      "velocity": 127,
      "chip": "ym2612"
    },
    {
      "channel": 5,
      "note": 59,
      "start": 32.8166,
      "duration": 0.0195,
      "velocity": 127,
      "chip": "ym2612"
    },
    {
      "channel": 2,
      "note": 71,
      "start": 32.9405,
      "duration": 0.4555,
      "velocity": 87,
      "chip": "ym2612"
    },
    {
      "channel": 5,
      "note": 71,
      "start": 32.9456,
      "duration": 0.0151,
      "velocity": 127,
      "chip": "ym2612"
    },
    {
      "channel": 3,
      "note": 71,
      "start": 33.1068,
      "duration": 0.4554,
      "velocity": 87,
      "chip": "ym2612"
    },
    {
      "channel": 2,
      "note": 76,
      "start": 33.4389,
      "duration": 0.4555,
      "velocity": 87,
      "chip": "ym2612"
    },
    {
      "channel": 3,
      "note": 76,
      "start": 33.6051,
      "duration": 0.4555,
      "velocity": 87,
      "chip": "ym2612"
    },
    {
      "channel": 0,
      "note": 81,
      "start": 33.9371,
      "duration": 1.7015,
      "velocity": 102,
      "chip": "ym2612"
    },
    {
      "channel": 2,
      "note": 71,
      "start": 33.9388,
      "duration": 0.4545,
      "velocity": 87,
      "chip": "ym2612"
    },
    {
      "channel": 5,
      "note": 59,
      "start": 33.9449,
      "duration": 0.0125,
      "velocity": 127,
      "chip": "ym2612"
    },
    {
      "channel": 3,
      "note": 71,
      "start": 34.1035,
      "duration": 0.4555,
      "velocity": 87,
      "chip": "ym2612"
    },
    {
      "channel": 1,
      "note": 81,
      "start": 34.1864,
      "duration": 1.7015,
      "velocity": 102,
      "chip": "ym2612"
    },
    {
      "channel": 2,
      "note": 74,
      "start": 34.4357,
      "duration": 0.4555,
      "velocity": 87,
      "chip": "ym2612"
    },
    {
      "channel": 3,
      "note": 74,
      "start": 34.6019,
      "duration": 0.4555,
      "velocity": 87,
      "chip": "ym2612"
    },
    {
      "channel": 5,
      "note": 59,
      "start": 34.6851,
      "duration": 0.0195,
      "velocity": 127,
      "chip": "ym2612"
    },
    {
      "channel": 5,
      "note": 59,
      "start": 34.8102,
      "duration": 0.0195,
      "velocity": 127,
      "chip": "ym2612"
    },
    {
      "channel": 2,
      "note": 71,
      "start": 34.934,
      "duration": 0.4555,
      "velocity": 87,
      "chip": "ym2612"
    },
    {
      "channel": 5,
      "note": 71,
      "start": 34.9392,
      "duration": 0.0154,
      "velocity": 127,
      "chip": "ym2612"
    },
    {
      "channel": 3,
      "note": 71,
      "start": 35.1002,
      "duration": 0.4555,
      "velocity": 87,
      "chip": "ym2612"
    },
    {
      "channel": 2,
      "note": 73,
      "start": 35.4324,
      "duration": 0.4556,
      "velocity": 87,
      "chip": "ym2612"
    },
    {
      "channel": 3,
      "note": 73,
      "start": 35.5986,
      "duration": 0.457,
      "velocity": 87,
      "chip": "ym2612"
    },
    {
      "channel": 0,
      "note": 78,
      "start": 35.6814,
      "duration": 0.0817,
      "velocity": 102,
      "chip": "ym2612"
    },
    {
      "channel": 0,
      "note": 79,
      "start": 35.806,
      "duration": 0.0817,
      "velocity": 102,
      "chip": "ym2612"
    },
    {
      "channel": 0,
      "note": 78,
      "start": 35.9306,
      "duration": 1.7015,
      "velocity": 102,
      "chip": "ym2612"
    },
    {
      "channel": 1,
      "note": 78,
      "start": 35.9322,
      "duration": 0.0802,
      "velocity": 102,
      "chip": "ym2612"
    },
    {
      "channel": 2,
      "note": 71,
      "start": 35.9339,
      "duration": 0.4523,
      "velocity": 87,
      "chip": "ym2612"
    },
    {
      "channel": 5,
      "note": 59,
      "start": 35.9402,
      "duration": 0.0109,
      "velocity": 127,
      "chip": "ym2612"
    },
    {
      "channel": 1,
      "note": 79,
      "start": 36.0553,
      "duration": 0.0817,
      "velocity": 102,
      "chip": "ym2612"
    },
    {
      "channel": 3,
      "note": 71,
      "start": 36.0972,
      "duration": 0.4554,
      "velocity": 87,
      "chip": "ym2612"
    },
    {
      "channel": 1,
      "note": 78,
      "start": 36.1803,
      "duration": 1.7011,
      "velocity": 102,
      "chip": "ym2612"
    },
    {
      "channel": 2,
      "note": 78,
      "start": 36.4292,
      "duration": 0.4555,
      "velocity": 87,
      "chip": "ym2612"
    },
    {
      "channel": 3,
      "note": 78,
      "start": 36.5954,
      "duration": 0.4555,
      "velocity": 87,
      "chip": "ym2612"
    },
    {
      "channel": 5,
      "note": 59,
      "start": 36.6787,
      "duration": 0.0195,
      "velocity": 127,
      "chip": "ym2612"
    },
    {
      "channel": 5,
      "note": 59,
      "start": 36.8037,
      "duration": 0.0195,
      "velocity": 127,
      "chip": "ym2612"
    },
    {
      "channel": 2,
      "note": 71,
      "start": 36.9275,
      "duration": 0.4555,
      "velocity": 87,
      "chip": "ym2612"
    },
    {
      "channel": 5,
      "note": 71,
      "start": 36.9327,
      "duration": 0.0151,
      "velocity": 127,
      "chip": "ym2612"
    },
    {
      "channel": 3,
      "note": 71,
      "start": 37.0938,
      "duration": 0.4555,
      "velocity": 87,
      "chip": "ym2612"
    },
    {
      "channel": 2,
      "note": 76,
      "start": 37.4259,
      "duration": 0.4557,
      "velocity": 87,
      "chip": "ym2612"
    },
    {
      "channel": 3,
      "note": 76,
      "start": 37.5922,
      "duration": 0.4569,
      "velocity": 87,
      "chip": "ym2612"
    },
    {
      "channel": 0,
      "note": 76,
      "start": 37.6749,
      "duration": 0.0817,
      "velocity": 102,
      "chip": "ym2612"
    },
    {
      "channel": 0,
      "note": 74,
      "start": 37.7995,
      "duration": 0.0817,
      "velocity": 102,
      "chip": "ym2612"
    },
    {
      "channel": 0,
      "note": 76,
      "start": 37.9241,
      "duration": 0.9539,
      "velocity": 102,
      "chip": "ym2612"
    },
    {
      "channel": 1,
      "note": 76,
      "start": 37.9257,
      "duration": 0.0802,
      "velocity": 102,
      "chip": "ym2612"
    },
    {
      "channel": 2,
      "note": 71,
      "start": 37.9273,
      "duration": 0.4526,
      "velocity": 87,
      "chip": "ym2612"
    },
    {
      "channel": 5,
      "note": 59,
      "start": 37.9335,
      "duration": 0.0111,
      "velocity": 127,
      "chip": "ym2612"
    },
    {
      "channel": 1,
      "note": 74,
      "start": 38.0488,
      "duration": 0.0817,
      "velocity": 102,
      "chip": "ym2612"
    },
    {
      "channel": 3,
      "note": 71,
      "start": 38.0906,
      "duration": 0.4554,
      "velocity": 87,
      "chip": "ym2612"
    },
    {
      "channel": 1,
      "note": 76,
      "start": 38.1734,
      "duration": 0.9538,
      "velocity": 102,
      "chip": "ym2612"
    },
    {
      "channel": 2,
      "note": 74,
      "start": 38.4227,
      "duration": 0.4555,
      "velocity": 87,
      "chip": "ym2612"
    },
    {
      "channel": 3,
      "note": 74,
      "start": 38.589,
      "duration": 0.4554,
      "velocity": 87,
      "chip": "ym2612"
    },
    {
      "channel": 5,
      "note": 59,
      "start": 38.6722,
      "duration": 0.0194,
      "velocity": 127,
      "chip": "ym2612"
    },
    {
      "channel": 5,
      "note": 59,
      "start": 38.7972,
      "duration": 0.0195,
      "velocity": 127,
      "chip": "ym2612"
    },
    {
      "channel": 0,
      "note": 74,
      "start": 38.9209,
      "duration": 0.9538,
      "velocity": 102,
      "chip": "ym2612"
    },
    {
      "channel": 2,
      "note": 71,
      "start": 38.9226,
      "duration": 0.4539,
      "velocity": 87,
      "chip": "ym2612"
    },
    {
      "channel": 5,
      "note": 71,
      "start": 38.9278,
      "duration": 0.0135,
      "velocity": 127,
      "chip": "ym2612"
    },
    {
      "channel": 3,
      "note": 71,
      "start": 39.0878,
      "duration": 0.455,
      "velocity": 87,
      "chip": "ym2612"
    },
    {
      "channel": 1,
      "note": 74,
      "start": 39.1701,
      "duration": 0.9539,
      "velocity": 102,
      "chip": "ym2612"
    },
    {
      "channel": 2,
      "note": 73,
      "start": 39.4194,
      "duration": 0.4556,
      "velocity": 87,
      "chip": "ym2612"
    },
    {
      "channel": 3,
      "note": 73,
      "start": 39.5857,
      "duration": 0.4569,
      "velocity": 87,
      "chip": "ym2612"
    },
    {
      "channel": 0,
      "note": 64,
      "start": 39.9179,
      "duration": 0.0191,
      "velocity": 102,
      "chip": "ym2612"
    },
    {
      "channel": 2,
      "note": 69,
      "start": 39.9201,
      "duration": 0.4532,
      "velocity": 87,
      "chip": "ym2612"
    },
    {
      "channel": 4,
      "note": 45,
      "start": 39.9221,
      "duration": 7.9273,
      "velocity": 105,
      "chip": "ym2612"
    },
    {
      "channel": 5,
      "note": 59,
      "start": 39.9272,
      "duration": 0.0109,
      "velocity": 127,
      "chip": "ym2612"
    },
    {
      "channel": 0,
      "note": 66,
      "start": 39.9799,
      "duration": 0.0195,
      "velocity": 102,
      "chip": "ym2612"
    },
    {
      "channel": 0,
      "note": 67,
      "start": 40.0422,
      "duration": 0.0194,
      "velocity": 102,
      "chip": "ym2612"
    },
    {
      "channel": 3,
      "note": 69,
      "start": 40.0846,
      "duration": 0.4549,
      "velocity": 87,
      "chip": "ym2612"
    },
    {
      "channel": 0,
      "note": 69,
      "start": 40.1045,
      "duration": 0.0194,
      "velocity": 102,
      "chip": "ym2612"
    },
    {
      "channel": 0,
      "note": 76,
      "start": 40.1668,
      "duration": 1.7014,
      "velocity": 102,
      "chip": "ym2612"
    },
    {
      "channel": 1,
      "note": 64,
      "start": 40.1687,
      "duration": 0.0177,
      "velocity": 102,
      "chip": "ym2612"
    },
    {
      "channel": 1,
      "note": 66,
      "start": 40.2292,
      "duration": 0.0195,
      "velocity": 102,
      "chip": "ym2612"
    },
    {
      "channel": 1,
      "note": 67,
      "start": 40.2915,
      "duration": 0.0197,
      "velocity": 102,
      "chip": "ym2612"
    },
    {
      "channel": 1,
      "note": 69,
      "start": 40.3538,
      "duration": 0.0194,
      "velocity": 102,
      "chip": "ym2612"
    },
    {
      "channel": 1,
      "note": 76,
      "start": 40.4167,
      "duration": 1.7008,
      "velocity": 102,
      "chip": "ym2612"
    },
    {
      "channel": 2,
      "note": 76,
      "start": 40.4183,
      "duration": 0.4534,
      "velocity": 87,
      "chip": "ym2612"
    },
    {
      "channel": 3,
      "note": 76,
      "start": 40.5824,
      "duration": 0.4555,
      "velocity": 87,
      "chip": "ym2612"
    },
    {
      "channel": 5,
      "note": 59,
      "start": 40.6658,
      "duration": 0.0194,
      "velocity": 127,
      "chip": "ym2612"
    },
    {
      "channel": 5,
      "note": 59,
      "start": 40.7907,
      "duration": 0.0195,
      "velocity": 127,
      "chip": "ym2612"
    },
    {
      "channel": 2,
      "note": 69,
      "start": 40.9146,
      "duration": 0.4555,
      "velocity": 87,
      "chip": "ym2612"
    },
    {
      "channel": 5,
      "note": 71,
      "start": 40.9197,
      "duration": 0.0151,
      "velocity": 127,
      "chip": "ym2612"
    },
    {
      "channel": 3,
      "note": 69,
      "start": 41.0808,
      "duration": 0.4559,
      "velocity": 87,
      "chip": "ym2612"
    },
    {
      "channel": 2,
      "note": 74,
      "start": 41.4129,
      "duration": 0.4556,
      "velocity": 87,
      "chip": "ym2612"
    },
    {
      "channel": 3,
      "note": 74,
      "start": 41.5792,
      "duration": 0.4555,
      "velocity": 87,
      "chip": "ym2612"
    },
    {
      "channel": 0,
      "note": 79,
      "start": 41.9111,
      "duration": 1.7015,
      "velocity": 102,
      "chip": "ym2612"
    },
    {
      "channel": 2,
      "note": 69,
      "start": 41.9128,
      "duration": 0.454,
      "velocity": 87,
      "chip": "ym2612"
    },
    {
      "channel": 5,
      "note": 59,
      "start": 41.919,
      "duration": 0.0126,
      "velocity": 127,
      "chip": "ym2612"
    },
    {
      "channel": 3,
      "note": 69,
      "start": 42.0776,
      "duration": 0.4555,
      "velocity": 87,
      "chip": "ym2612"
    },
    {
      "channel": 1,
      "note": 79,
      "start": 42.1604,
      "duration": 1.7016,
      "velocity": 102,
      "chip": "ym2612"
    },
    {
      "channel": 2,
      "note": 73,
      "start": 42.4097,
      "duration": 0.4555,
      "velocity": 87,
      "chip": "ym2612"
    },
    {
      "channel": 3,
      "note": 73,
      "start": 42.5759,
      "duration": 0.4555,
      "velocity": 87,
      "chip": "ym2612"
    },
    {
      "channel": 5,
      "note": 59,
      "start": 42.6593,
      "duration": 0.0195,
      "velocity": 127,
      "chip": "ym2612"
    },
    {
      "channel": 5,
      "note": 59,
      "start": 42.7843,
      "duration": 0.0195,
      "velocity": 127,
      "chip": "ym2612"
    },
    {
      "channel": 2,
      "note": 69,
      "start": 42.9081,
      "duration": 0.4555,
      "velocity": 87,
      "chip": "ym2612"
    },
    {
      "channel": 5,
      "note": 71,
      "start": 42.9133,
      "duration": 0.0151,
      "velocity": 127,
      "chip": "ym2612"
    },
    {
      "channel": 3,
      "note": 69,
      "start": 43.0743,
      "duration": 0.4555,
      "velocity": 87,
      "chip": "ym2612"
    },
    {
      "channel": 2,
      "note": 71,
      "start": 43.4065,
      "duration": 0.4556,
      "velocity": 87,
      "chip": "ym2612"
    },
    {
      "channel": 3,
      "note": 71,
      "start": 43.5727,
      "duration": 0.4569,
      "velocity": 87,
      "chip": "ym2612"
    },
    {
      "channel": 0,
      "note": 74,
      "start": 43.6555,
      "duration": 0.0817,
      "velocity": 102,
      "chip": "ym2612"
    },
    {
      "channel": 0,
      "note": 76,
      "start": 43.7801,
      "duration": 0.0817,
      "velocity": 102,
      "chip": "ym2612"
    },
    {
      "channel": 0,
      "note": 74,
      "start": 43.9047,
      "duration": 1.9507,
      "velocity": 102,
      "chip": "ym2612"
    },
    {
      "channel": 1,
      "note": 74,
      "start": 43.9063,
      "duration": 0.0808,
      "velocity": 102,
      "chip": "ym2612"
    },
    {
      "channel": 2,
      "note": 69,
      "start": 43.908,
      "duration": 0.4523,
      "velocity": 87,
      "chip": "ym2612"
    },
    {
      "channel": 5,
      "note": 59,
      "start": 43.9142,
      "duration": 0.0109,
      "velocity": 127,
      "chip": "ym2612"
    },
    {
      "channel": 1,
      "note": 76,
      "start": 44.0294,
      "duration": 0.0817,
      "velocity": 102,
      "chip": "ym2612"
    },
    {
      "channel": 3,
      "note": 69,
      "start": 44.0713,
      "duration": 0.4552,
      "velocity": 87,
      "chip": "ym2612"
    },
    {
      "channel": 1,
      "note": 74,
      "start": 44.154,
      "duration": 1.9506,
      "velocity": 102,
      "chip": "ym2612"
    },
    {
      "channel": 2,
      "note": 76,
      "start": 44.4033,
      "duration": 0.4555,
      "velocity": 87,
      "chip": "ym2612"
    },
    {
      "channel": 3,
      "note": 76,
      "start": 44.5695,
      "duration": 0.4555,
      "velocity": 87,
      "chip": "ym2612"
    },
    {
      "channel": 5,
      "note": 59,
      "start": 44.6528,
      "duration": 0.0195,
      "velocity": 127,
      "chip": "ym2612"
    },
    {
      "channel": 5,
      "note": 59,
      "start": 44.7778,
      "duration": 0.0195,
      "velocity": 127,
      "chip": "ym2612"
    },
    {
      "channel": 2,
      "note": 69,
      "start": 44.9016,
      "duration": 0.4555,
      "velocity": 87,
      "chip": "ym2612"
    },
    {
      "channel": 5,
      "note": 71,
      "start": 44.9068,
      "duration": 0.0151,
      "velocity": 127,
      "chip": "ym2612"
    },
    {
      "channel": 3,
      "note": 69,
      "start": 45.0678,
      "duration": 0.4555,
      "velocity": 87,
      "chip": "ym2612"
    },
    {
      "channel": 2,
      "note": 74,
      "start": 45.4,
      "duration": 0.4556,
      "velocity": 87,
      "chip": "ym2612"
    },
    {
      "channel": 3,
      "note": 74,
      "start": 45.5663,
      "duration": 0.4555,
      "velocity": 87,
      "chip": "ym2612"
    },
    {
      "channel": 0,
      "note": 73,
      "start": 45.8982,
      "duration": 0.9539,
      "velocity": 102,
      "chip": "ym2612"
    },
    {
      "channel": 2,
      "note": 69,
      "start": 45.8998,
      "duration": 0.4541,
      "velocity": 87,
      "chip": "ym2612"
    },
    {
      "channel": 5,
      "note": 59,
      "start": 45.9061,
      "duration": 0.0125,
      "velocity": 127,
      "chip": "ym2612"
    },
    {
      "channel": 3,
      "note": 69,
      "start": 46.0646,
      "duration": 0.4555,
      "velocity": 87,
      "chip": "ym2612"
    },
    {
      "channel": 1,
      "note": 73,
      "start": 46.1475,
      "duration": 0.9539,
      "velocity": 102,
      "chip": "ym2612"
    },
    {
      "channel": 2,
      "note": 73,
      "start": 46.3968,
      "duration": 0.4556,
      "velocity": 87,
      "chip": "ym2612"
    },
    {
      "channel": 3,
      "note": 73,
      "start": 46.563,
      "duration": 0.4555,
      "velocity": 87,
      "chip": "ym2612"
    },
    {
      "channel": 5,
      "note": 59,
      "start": 46.6463,
      "duration": 0.0195,
      "velocity": 127,
      "chip": "ym2612"
    },
    {
      "channel": 5,
      "note": 59,
      "start": 46.7713,
      "duration": 0.0195,
      "velocity": 127,
      "chip": "ym2612"
    },
    {
      "channel": 0,
      "note": 69,
      "start": 46.895,
      "duration": 0.9538,
      "velocity": 102,
      "chip": "ym2612"
    },
    {
      "channel": 2,
      "note": 69,
      "start": 46.8967,
      "duration": 0.4539,
      "velocity": 87,
      "chip": "ym2612"
    },
    {
      "channel": 5,
      "note": 78,
      "start": 46.9018,
      "duration": 0.0136,
      "velocity": 127,
      "chip": "ym2612"
    },
    {
      "channel": 3,
      "note": 69,
      "start": 47.0614,
      "duration": 0.4555,
      "velocity": 87,
      "chip": "ym2612"
    },
    {
      "channel": 1,
      "note": 69,
      "start": 47.1442,
      "duration": 0.9754,
      "velocity": 102,
      "chip": "ym2612"
    },
    {
      "channel": 5,
      "note": 78,
      "start": 47.1465,
      "duration": 0.0181,
      "velocity": 127,
      "chip": "ym2612"
    },
    {
      "channel": 2,
      "note": 71,
      "start": 47.3936,
      "duration": 0.4556,
      "velocity": 87,
      "chip": "ym2612"
    },
    {
      "channel": 5,
      "note": 78,
      "start": 47.3986,
      "duration": 0.0151,
      "velocity": 127,
      "chip": "ym2612"
    },
    {
      "channel": 5,
      "note": 74,
      "start": 47.5189,
      "duration": 0.0194,
      "velocity": 127,
      "chip": "ym2612"
    },
    {
      "channel": 3,
      "note": 71,
      "start": 47.5607,
      "duration": 0.4768,
      "velocity": 87,
      "chip": "ym2612"
    },
    {
      "channel": 5,
      "note": 73,
      "start": 47.6434,
      "duration": 0.0195,
      "velocity": 127,
      "chip": "ym2612"
    },
    {
      "channel": 5,
      "note": 71,
      "start": 47.768,
      "duration": 0.0195,
      "velocity": 127,
      "chip": "ym2612"
    },
    {
      "channel": 0,
      "note": 66,
      "start": 47.8948,
      "duration": 0.0371,
      "velocity": 102,
      "chip": "ym2612"
    },
    {
      "channel": 2,
      "note": 71,
      "start": 47.8999,
      "duration": 0.4683,
      "velocity": 87,
      "chip": "ym2612"
    },
    {
      "channel": 4,
      "note": 47,
      "start": 47.9047,
      "duration": 7.9396,
      "velocity": 105,
      "chip": "ym2612"
    },
    {
      "channel": 5,
      "note": 59,
      "start": 47.9101,
      "duration": 0.0229,
      "velocity": 127,
      "chip": "ym2612"
    },
    {
      "channel": 0,
      "note": 67,
      "start": 47.9747,
      "duration": 0.0195,
      "velocity": 102,
      "chip": "ym2612"
    },
    {
      "channel": 0,
      "note": 69,
      "start": 48.0371,
      "duration": 0.0194,
      "velocity": 102,
      "chip": "ym2612"
    },
    {
      "channel": 3,
      "note": 71,
      "start": 48.0824,
      "duration": 0.452,
      "velocity": 87,
      "chip": "ym2612"
    },
    {
      "channel": 0,
      "note": 71,
      "start": 48.0993,
      "duration": 0.02,
      "velocity": 102,
      "chip": "ym2612"
    },
    {
      "channel": 0,
      "note": 78,
      "start": 48.1617,
      "duration": 1.7014,
      "velocity": 102,
      "chip": "ym2612"
    },
    {
      "channel": 1,
      "note": 66,
      "start": 48.1663,
      "duration": 0.0149,
      "velocity": 102,
      "chip": "ym2612"
    },
    {
      "channel": 1,
      "note": 67,
      "start": 48.2252,
      "duration": 0.0183,
      "velocity": 102,
      "chip": "ym2612"
    },
    {
      "channel": 1,
      "note": 69,
      "start": 48.2864,
      "duration": 0.0194,
      "velocity": 102,
      "chip": "ym2612"
    },
    {
      "channel": 1,
      "note": 71,
      "start": 48.3486,
      "duration": 0.0194,
      "velocity": 102,
      "chip": "ym2612"
    },
    {
      "channel": 1,
      "note": 78,
      "start": 48.411,
      "duration": 1.7014,
      "velocity": 102,
      "chip": "ym2612"
    },
    {
      "channel": 2,
      "note": 78,
      "start": 48.4125,
      "duration": 0.454,
      "velocity": 87,
      "chip": "ym2612"
    },
    {
      "channel": 3,
      "note": 78,
      "start": 48.5774,
      "duration": 0.4554,
      "velocity": 87,
      "chip": "ym2612"
    },
    {
      "channel": 5,
      "note": 59,
      "start": 48.6606,
      "duration": 0.0195,
      "velocity": 127,
      "chip": "ym2612"
    },
    {
      "channel": 5,
      "note": 59,
      "start": 48.7861,
      "duration": 0.019,
      "velocity": 127,
      "chip": "ym2612"
    },
    {
      "channel": 2,
      "note": 71,
      "start": 48.9095,
      "duration": 0.4555,
      "velocity": 87,
      "chip": "ym2612"
    },
    {
      "channel": 5,
      "note": 71,
      "start": 48.9145,
      "duration": 0.0151,
      "velocity": 127,
      "chip": "ym2612"
    },
    {
      "channel": 3,
      "note": 71,
      "start": 49.0757,
      "duration": 0.4555,
      "velocity": 87,
      "chip": "ym2612"
    },
    {
      "channel": 2,
      "note": 76,
      "start": 49.4079,
      "duration": 0.4555,
      "velocity": 87,
      "chip": "ym2612"
    },
    {
      "channel": 3,
      "note": 76,
      "start": 49.574,
      "duration": 0.4555,
      "velocity": 87,
      "chip": "ym2612"
    },
    {
      "channel": 0,
      "note": 81,
      "start": 49.9062,
      "duration": 1.7013,
      "velocity": 102,
      "chip": "ym2612"
    },
    {
      "channel": 2,
      "note": 71,
      "start": 49.9079,
      "duration": 0.4538,
      "velocity": 87,
      "chip": "ym2612"
    },
    {
      "channel": 5,
      "note": 59,
      "start": 49.9141,
      "duration": 0.0123,
      "velocity": 127,
      "chip": "ym2612"
    },
    {
      "channel": 3,
      "note": 71,
      "start": 50.0725,
      "duration": 0.4554,
      "velocity": 87,
      "chip": "ym2612"
    },
    {
      "channel": 1,
      "note": 81,
      "start": 50.1553,
      "duration": 1.7015,
      "velocity": 102,
      "chip": "ym2612"
    },
    {
      "channel": 2,
      "note": 74,
      "start": 50.4046,
      "duration": 0.4555,
      "velocity": 87,
      "chip": "ym2612"
    },
    {
      "channel": 3,
      "note": 74,
      "start": 50.572,
      "duration": 0.4543,
      "velocity": 87,
      "chip": "ym2612"
    },
    {
      "channel": 5,
      "note": 59,
      "start": 50.6541,
      "duration": 0.0195,
      "velocity": 127,
      "chip": "ym2612"
    },
    {
      "channel": 5,
      "note": 59,
      "start": 50.7791,
      "duration": 0.0195,
      "velocity": 127,
      "chip": "ym2612"
    },
    {
      "channel": 2,
      "note": 71,
      "start": 50.903,
      "duration": 0.4555,
      "velocity": 87,
      "chip": "ym2612"
    },
    {
      "channel": 5,
      "note": 71,
      "start": 50.9082,
      "duration": 0.015,
      "velocity": 127,
      "chip": "ym2612"
    },
    {
      "channel": 3,
      "note": 71,
      "start": 51.0692,
      "duration": 0.4555,
      "velocity": 87,
      "chip": "ym2612"
    },
    {
      "channel": 2,
      "note": 73,
      "start": 51.4014,
      "duration": 0.4556,
      "velocity": 87,
      "chip": "ym2612"
    },
    {
      "channel": 3,
      "note": 73,
      "start": 51.5676,
      "duration": 0.4569,
      "velocity": 87,
      "chip": "ym2612"
    },
    {
      "channel": 0,
      "note": 78,
      "start": 51.6504,
      "duration": 0.0817,
      "velocity": 102,
      "chip": "ym2612"
    },
    {
      "channel": 0,
      "note": 79,
      "start": 51.7749,
      "duration": 0.0817,
      "velocity": 102,
      "chip": "ym2612"
    },
    {
      "channel": 0,
      "note": 78,
      "start": 51.8995,
      "duration": 1.7015,
      "velocity": 102,
      "chip": "ym2612"
    },
    {
      "channel": 1,
      "note": 78,
      "start": 51.9011,
      "duration": 0.0802,
      "velocity": 102,
      "chip": "ym2612"
    },
    {
      "channel": 2,
      "note": 71,
      "start": 51.9028,
      "duration": 0.4528,
      "velocity": 87,
      "chip": "ym2612"
    },
    {
      "channel": 5,
      "note": 59,
      "start": 51.9091,
      "duration": 0.0109,
      "velocity": 127,
      "chip": "ym2612"
    },
    {
      "channel": 1,
      "note": 79,
      "start": 52.0242,
      "duration": 0.0817,
      "velocity": 102,
      "chip": "ym2612"
    },
    {
      "channel": 3,
      "note": 71,
      "start": 52.0661,
      "duration": 0.4553,
      "velocity": 87,
      "chip": "ym2612"
    },
    {
      "channel": 1,
      "note": 78,
      "start": 52.1488,
      "duration": 1.7015,
      "velocity": 102,
      "chip": "ym2612"
    },
    {
      "channel": 2,
      "note": 78,
      "start": 52.3981,
      "duration": 0.4555,
      "velocity": 87,
      "chip": "ym2612"
    },
    {
      "channel": 3,
      "note": 78,
      "start": 52.5644,
      "duration": 0.4562,
      "velocity": 87,
      "chip": "ym2612"
    },
    {
      "channel": 5,
      "note": 59,
      "start": 52.6476,
      "duration": 0.0195,
      "velocity": 127,
      "chip": "ym2612"
    },
    {
      "channel": 5,
      "note": 59,
      "start": 52.7727,
      "duration": 0.0195,
      "velocity": 127,
      "chip": "ym2612"
    },
    {
      "channel": 2,
      "note": 71,
      "start": 52.8965,
      "duration": 0.4555,
      "velocity": 87,
      "chip": "ym2612"
    },
    {
      "channel": 5,
      "note": 71,
      "start": 52.9016,
      "duration": 0.0153,
      "velocity": 127,
      "chip": "ym2612"
    },
    {
      "channel": 3,
      "note": 71,
      "start": 53.0628,
      "duration": 0.4554,
      "velocity": 87,
      "chip": "ym2612"
    },
    {
      "channel": 2,
      "note": 76,
      "start": 53.3949,
      "duration": 0.4557,
      "velocity": 87,
      "chip": "ym2612"
    },
    {
      "channel": 3,
      "note": 76,
      "start": 53.5611,
      "duration": 0.4569,
      "velocity": 87,
      "chip": "ym2612"
    },
    {
      "channel": 0,
      "note": 76,
      "start": 53.6439,
      "duration": 0.0817,
      "velocity": 102,
      "chip": "ym2612"
    },
    {
      "channel": 0,
      "note": 74,
      "start": 53.7684,
      "duration": 0.0817,
      "velocity": 102,
      "chip": "ym2612"
    },
    {
      "channel": 0,
      "note": 76,
      "start": 53.893,
      "duration": 0.9539,
      "velocity": 102,
      "chip": "ym2612"
    },
    {
      "channel": 1,
      "note": 76,
      "start": 53.8946,
      "duration": 0.0802,
      "velocity": 102,
      "chip": "ym2612"
    },
    {
      "channel": 2,
      "note": 71,
      "start": 53.8962,
      "duration": 0.4526,
      "velocity": 87,
      "chip": "ym2612"
    },
    {
      "channel": 5,
      "note": 59,
      "start": 53.9024,
      "duration": 0.011,
      "velocity": 127,
      "chip": "ym2612"
    },
    {
      "channel": 1,
      "note": 74,
      "start": 54.0177,
      "duration": 0.0817,
      "velocity": 102,
      "chip": "ym2612"
    },
    {
      "channel": 3,
      "note": 71,
      "start": 54.0595,
      "duration": 0.4555,
      "velocity": 87,
      "chip": "ym2612"
    },
    {
      "channel": 1,
      "note": 76,
      "start": 54.1427,
      "duration": 0.9536,
      "velocity": 102,
      "chip": "ym2612"
    },
    {
      "channel": 2,
      "note": 74,
      "start": 54.3916,
      "duration": 0.4556,
      "velocity": 87,
      "chip": "ym2612"
    },
    {
      "channel": 3,
      "note": 74,
      "start": 54.5579,
      "duration": 0.4555,
      "velocity": 87,
      "chip": "ym2612"
    },
    {
      "channel": 5,
      "note": 59,
      "start": 54.6412,
      "duration": 0.0194,
      "velocity": 127,
      "chip": "ym2612"
    },
    {
      "channel": 5,
      "note": 59,
      "start": 54.7661,
      "duration": 0.0195,
      "velocity": 127,
      "chip": "ym2612"
    },
    {
      "channel": 0,
      "note": 74,
      "start": 54.8899,
      "duration": 0.9538,
      "velocity": 102,
      "chip": "ym2612"
    },
    {
      "channel": 2,
      "note": 71,
      "start": 54.8915,
      "duration": 0.454,
      "velocity": 87,
      "chip": "ym2612"
    },
    {
      "channel": 5,
      "note": 71,
      "start": 54.8966,
      "duration": 0.0137,
      "velocity": 127,
      "chip": "ym2612"
    },
    {
      "channel": 3,
      "note": 71,
      "start": 55.0563,
      "duration": 0.4555,
      "velocity": 87,
      "chip": "ym2612"
    },
    {
      "channel": 1,
      "note": 74,
      "start": 55.1391,
      "duration": 0.9539,
      "velocity": 102,
      "chip": "ym2612"
    },
    {
      "channel": 2,
      "note": 73,
      "start": 55.3884,
      "duration": 0.4556,
      "velocity": 87,
      "chip": "ym2612"
    },
    {
      "channel": 3,
      "note": 73,
      "start": 55.5546,
      "duration": 0.4569,
      "velocity": 87,
      "chip": "ym2612"
    },
    {
      "channel": 0,
      "note": 64,
      "start": 55.8869,
      "duration": 0.0191,
      "velocity": 102,
      "chip": "ym2612"
    },
    {
      "channel": 2,
      "note": 69,
      "start": 55.8892,
      "duration": 0.4532,
      "velocity": 87,
      "chip": "ym2612"
    },
    {
      "channel": 4,
      "note": 45,
      "start": 55.8911,
      "duration": 8.9339,
      "velocity": 105,
      "chip": "ym2612"
    },
    {
      "channel": 5,
      "note": 59,
      "start": 55.8962,
      "duration": 0.0109,
      "velocity": 127,
      "chip": "ym2612"
    },
    {
      "channel": 0,
      "note": 66,
      "start": 55.9488,
      "duration": 0.0195,
      "velocity": 102,
      "chip": "ym2612"
    },
    {
      "channel": 0,
      "note": 67,
      "start": 56.0111,
      "duration": 0.0202,
      "velocity": 102,
      "chip": "ym2612"
    },
    {
      "channel": 3,
      "note": 69,
      "start": 56.0536,
      "duration": 0.4549,
      "velocity": 87,
      "chip": "ym2612"
    },
    {
      "channel": 0,
      "note": 69,
      "start": 56.0734,
      "duration": 0.0194,
      "velocity": 102,
      "chip": "ym2612"
    },
    {
      "channel": 0,
      "note": 76,
      "start": 56.1357,
      "duration": 1.7015,
      "velocity": 102,
      "chip": "ym2612"
    },
    {
      "channel": 1,
      "note": 64,
      "start": 56.1376,
      "duration": 0.0178,
      "velocity": 102,
      "chip": "ym2612"
    },
    {
      "channel": 1,
      "note": 66,
      "start": 56.1981,
      "duration": 0.0195,
      "velocity": 102,
      "chip": "ym2612"
    },
    {
      "channel": 1,
      "note": 67,
      "start": 56.2604,
      "duration": 0.0195,
      "velocity": 102,
      "chip": "ym2612"
    },
    {
      "channel": 1,
      "note": 69,
      "start": 56.3227,
      "duration": 0.0194,
      "velocity": 102,
      "chip": "ym2612"
    },
    {
      "channel": 1,
      "note": 76,
      "start": 56.385,
      "duration": 1.7015,
      "velocity": 102,
      "chip": "ym2612"
    },
    {
      "channel": 2,
      "note": 76,
      "start": 56.3866,
      "duration": 0.454,
      "velocity": 87,
      "chip": "ym2612"
    },
    {
      "channel": 3,
      "note": 76,
      "start": 56.5514,
      "duration": 0.4555,
      "velocity": 87,
      "chip": "ym2612"
    },
    {
      "channel": 5,
      "note": 59,
      "start": 56.6346,
      "duration": 0.0195,
      "velocity": 127,
      "chip": "ym2612"
    },
    {
      "channel": 5,
      "note": 59,
      "start": 56.7596,
      "duration": 0.0195,
      "velocity": 127,
      "chip": "ym2612"
    },
    {
      "channel": 2,
      "note": 69,
      "start": 56.8836,
      "duration": 0.4555,
      "velocity": 87,
      "chip": "ym2612"
    },
    {
      "channel": 5,
      "note": 71,
      "start": 56.8887,
      "duration": 0.0151,
      "velocity": 127,
      "chip": "ym2612"
    },
    {
      "channel": 3,
      "note": 69,
      "start": 57.0502,
      "duration": 0.4551,
      "velocity": 87,
      "chip": "ym2612"
    },
    {
      "channel": 2,
      "note": 74,
      "start": 57.3819,
      "duration": 0.4556,
      "velocity": 87,
      "chip": "ym2612"
    },
    {
      "channel": 3,
      "note": 74,
      "start": 57.5481,
      "duration": 0.4555,
      "velocity": 87,
      "chip": "ym2612"
    },
    {
      "channel": 0,
      "note": 79,
      "start": 57.8801,
      "duration": 1.7015,
      "velocity": 102,
      "chip": "ym2612"
    },
    {
      "channel": 2,
      "note": 69,
      "start": 57.8817,
      "duration": 0.4541,
      "velocity": 87,
      "chip": "ym2612"
    },
    {
      "channel": 5,
      "note": 59,
      "start": 57.888,
      "duration": 0.0126,
      "velocity": 127,
      "chip": "ym2612"
    },
    {
      "channel": 3,
      "note": 69,
      "start": 58.0465,
      "duration": 0.4555,
      "velocity": 87,
      "chip": "ym2612"
    },
    {
      "channel": 1,
      "note": 79,
      "start": 58.1294,
      "duration": 1.7015,
      "velocity": 102,
      "chip": "ym2612"
    },
    {
      "channel": 2,
      "note": 73,
      "start": 58.3792,
      "duration": 0.455,
      "velocity": 87,
      "chip": "ym2612"
    },
    {
      "channel": 3,
      "note": 73,
      "start": 58.5449,
      "duration": 0.4554,
      "velocity": 87,
      "chip": "ym2612"
    },
    {
      "channel": 5,
      "note": 59,
      "start": 58.6282,
      "duration": 0.0195,
      "velocity": 127,
      "chip": "ym2612"
    },
    {
      "channel": 5,
      "note": 59,
      "start": 58.7532,
      "duration": 0.0195,
      "velocity": 127,
      "chip": "ym2612"
    },
    {
      "channel": 2,
      "note": 69,
      "start": 58.8771,
      "duration": 0.4555,
      "velocity": 87,
      "chip": "ym2612"
    },
    {
      "channel": 5,
      "note": 71,
      "start": 58.8822,
      "duration": 0.0151,
      "velocity": 127,
      "chip": "ym2612"
    },
    {
      "channel": 3,
      "note": 69,
      "start": 59.0433,
      "duration": 0.4556,
      "velocity": 87,
      "chip": "ym2612"
    },
    {
      "channel": 2,
      "note": 71,
      "start": 59.3755,
      "duration": 0.4556,
      "velocity": 87,
      "chip": "ym2612"
    },
    {
      "channel": 3,
      "note": 71,
      "start": 59.5417,
      "duration": 0.4569,
      "velocity": 87,
      "chip": "ym2612"
    },
    {
      "channel": 0,
      "note": 74,
      "start": 59.6244,
      "duration": 0.0817,
      "velocity": 102,
      "chip": "ym2612"
    },
    {
      "channel": 0,
      "note": 76,
      "start": 59.749,
      "duration": 0.0817,
      "velocity": 102,
      "chip": "ym2612"
    },
    {
      "channel": 0,
      "note": 74,
      "start": 59.8736,
      "duration": 1.9507,
      "velocity": 102,
      "chip": "ym2612"
    },
    {
      "channel": 1,
      "note": 74,
      "start": 59.8752,
      "duration": 0.0803,
      "velocity": 102,
      "chip": "ym2612"
    },
    {
      "channel": 2,
      "note": 69,
      "start": 59.8769,
      "duration": 0.4524,
      "velocity": 87,
      "chip": "ym2612"
    },
    {
      "channel": 5,
      "note": 59,
      "start": 59.8831,
      "duration": 0.011,
      "velocity": 127,
      "chip": "ym2612"
    },
    {
      "channel": 1,
      "note": 76,
      "start": 59.9983,
      "duration": 0.0817,
      "velocity": 102,
      "chip": "ym2612"
    },
    {
      "channel": 3,
      "note": 69,
      "start": 60.0402,
      "duration": 0.4553,
      "velocity": 87,
      "chip": "ym2612"
    },
    {
      "channel": 1,
      "note": 74,
      "start": 60.1229,
      "duration": 1.9668,
      "velocity": 102,
      "chip": "ym2612"
    },
    {
      "channel": 2,
      "note": 76,
      "start": 60.3722,
      "duration": 0.4562,
      "velocity": 87,
      "chip": "ym2612"
    },
    {
      "channel": 3,
      "note": 76,
      "start": 60.5385,
      "duration": 0.4555,
      "velocity": 87,
      "chip": "ym2612"
    },
    {
      "channel": 5,
      "note": 59,
      "start": 60.6217,
      "duration": 0.0195,
      "velocity": 127,
      "chip": "ym2612"
    },
    {
      "channel": 5,
      "note": 59,
      "start": 60.7467,
      "duration": 0.0196,
      "velocity": 127,
      "chip": "ym2612"
    },
    {
      "channel": 2,
      "note": 69,
      "start": 60.8706,
      "duration": 0.4555,
      "velocity": 87,
      "chip": "ym2612"
    },
    {
      "channel": 5,
      "note": 71,
      "start": 60.8757,
      "duration": 0.0151,
      "velocity": 127,
      "chip": "ym2612"
    },
    {
      "channel": 3,
      "note": 69,
      "start": 61.0368,
      "duration": 0.4555,
      "velocity": 87,
      "chip": "ym2612"
    },
    {
      "channel": 2,
      "note": 74,
      "start": 61.369,
      "duration": 0.4555,
      "velocity": 87,
      "chip": "ym2612"
    },
    {
      "channel": 3,
      "note": 74,
      "start": 61.5352,
      "duration": 0.4645,
      "velocity": 87,
      "chip": "ym2612"
    },
    {
      "channel": 0,
      "note": 76,
      "start": 61.8681,
      "duration": 0.5141,
      "velocity": 102,
      "chip": "ym2612"
    },
    {
      "channel": 2,
      "note": 69,
      "start": 61.8698,
      "duration": 0.5127,
      "velocity": 87,
      "chip": "ym2612"
    },
    {
      "channel": 5,
      "note": 59,
      "start": 61.8761,
      "duration": 0.0115,
      "velocity": 127,
      "chip": "ym2612"
    },
    {
      "channel": 3,
      "note": 69,
      "start": 62.0462,
      "duration": 0.5497,
      "velocity": 87,
      "chip": "ym2612"
    },
    {
      "channel": 1,
      "note": 76,
      "start": 62.1374,
      "duration": 0.5691,
      "velocity": 102,
      "chip": "ym2612"
    },
    {
      "channel": 0,
      "note": 74,
      "start": 62.4346,
      "duration": 0.6364,
      "velocity": 102,
      "chip": "ym2612"
    },
    {
      "channel": 2,
      "note": 73,
      "start": 62.4364,
      "duration": 0.635,
      "velocity": 87,
      "chip": "ym2612"
    },
    {
      "channel": 3,
      "note": 73,
      "start": 62.6527,
      "duration": 0.6786,
      "velocity": 87,
      "chip": "ym2612"
    },
    {
      "channel": 1,
      "note": 74,
      "start": 62.7645,
      "duration": 0.6986,
      "velocity": 102,
      "chip": "ym2612"
    },
    {
      "channel": 5,
      "note": 59,
      "start": 62.7664,
      "duration": 0.0236,
      "velocity": 127,
      "chip": "ym2612"
    },
    {
      "channel": 5,
      "note": 59,
      "start": 62.9482,
      "duration": 0.0301,
      "velocity": 127,
      "chip": "ym2612"
    },
    {
      "channel": 0,
      "note": 73,
      "start": 63.1364,
      "duration": 0.7455,
      "velocity": 102,
      "chip": "ym2612"
    },
    {
      "channel": 2,
      "note": 69,
      "start": 63.1381,
      "duration": 0.7441,
      "velocity": 87,
      "chip": "ym2612"
    },
    {
      "channel": 5,
      "note": 81,
      "start": 63.1406,
      "duration": 0.0255,
      "velocity": 127,
      "chip": "ym2612"
    },
    {
      "channel": 5,
      "note": 81,
      "start": 63.2337,
      "duration": 0.0317,
      "velocity": 127,
      "chip": "ym2612"
    },
    {
      "channel": 5,
      "note": 81,
      "start": 63.3335,
      "duration": 0.0312,
      "velocity": 127,
      "chip": "ym2612"
    },
    {
      "channel": 3,
      "note": 69,
      "start": 63.3984,
      "duration": 0.7829,
      "velocity": 87,
      "chip": "ym2612"
    },
    {
      "channel": 5,
      "note": 81,
      "start": 63.4323,
      "duration": 0.0318,
      "velocity": 127,
      "chip": "ym2612"
    },
    {
      "channel": 1,
      "note": 73,
      "start": 63.532,
      "duration": 0.8032,
      "velocity": 102,
      "chip": "ym2612"
    },
    {
      "channel": 5,
      "note": 81,
      "start": 63.5344,
      "duration": 0.0289,
      "velocity": 127,
      "chip": "ym2612"
    },
    {
      "channel": 5,
      "note": 81,
      "start": 63.6357,
      "duration": 0.0341,
      "velocity": 127,
      "chip": "ym2612"
    },
    {
      "channel": 5,
      "note": 78,
      "start": 63.7422,
      "duration": 0.0341,
      "velocity": 127,
      "chip": "ym2612"
    },
    {
      "channel": 5,
      "note": 78,
      "start": 63.8486,
      "duration": 0.0345,
      "velocity": 127,
      "chip": "ym2612"
    },
    {
      "channel": 0,
      "note": 69,
      "start": 63.9559,
      "duration": 0.8686,
      "velocity": 102,
      "chip": "ym2612"
    },
    {
      "channel": 2,
      "note": 71,
      "start": 63.9576,
      "duration": 0.8671,
      "velocity": 87,
      "chip": "ym2612"
    },
    {
      "channel": 5,
      "note": 76,
      "start": 63.96,
      "duration": 0.0295,
      "velocity": 127,
      "chip": "ym2612"
    },
    {
      "channel": 5,
      "note": 76,
      "start": 64.1836,
      "duration": 0.0371,
      "velocity": 127,
      "chip": "ym2612"
    },
    {
      "channel": 3,
      "note": 71,
      "start": 64.2598,
      "duration": 0.8975,
      "velocity": 87,
      "chip": "ym2612"
    },
    {
      "channel": 1,
      "note": 69,
      "start": 64.4159,
      "duration": 0.907,
      "velocity": 102,
      "chip": "ym2612"
    },
    {
      "channel": 5,
      "note": 71,
      "start": 64.4184,
      "duration": 0.0333,
      "velocity": 127,
      "chip": "ym2612"
    },
    {
      "channel": 5,
      "note": 71,
      "start": 64.6606,
      "duration": 0.0403,
      "velocity": 127,
      "chip": "ym2612"
    },
    {
      "channel": 0,
      "note": 73,
      "start": 64.9099,
      "duration": 0.2468,
      "velocity": 102,
      "chip": "ym2612"
    },
    {
      "channel": 2,
      "note": 59,
      "start": 64.9121,
      "duration": 0.2449,
      "velocity": 87,
      "chip": "ym2612"
    },
    {
      "channel": 4,
      "note": 47,
      "start": 64.9143,
      "duration": 7.8872,
      "velocity": 105,
      "chip": "ym2612"
    },
    {
      "channel": 5,
      "note": 45,
      "start": 64.9197,
      "duration": 7.8826,
      "velocity": 127,
      "chip": "ym2612"
    },
    {
      "channel": 0,
      "note": 71,
      "start": 65.2411,
      "duration": 0.2478,
      "velocity": 102,
      "chip": "ym2612"
    },
    {
      "channel": 2,
      "note": 61,
      "start": 65.2428,
      "duration": 0.2465,
      "velocity": 87,
      "chip": "ym2612"
    },
    {
      "channel": 3,
      "note": 59,
      "start": 65.2449,
      "duration": 0.2446,
      "velocity": 87,
      "chip": "ym2612"
    },
    {
      "channel": 1,
      "note": 73,
      "start": 65.4077,
      "duration": 0.2475,
      "velocity": 102,
      "chip": "ym2612"
    },
    {
      "channel": 0,
      "note": 69,
      "start": 65.5734,
      "duration": 0.2478,
      "velocity": 102,
      "chip": "ym2612"
    },
    {
      "channel": 2,
      "note": 62,
      "start": 65.575,
      "duration": 0.2465,
      "velocity": 87,
      "chip": "ym2612"
    },
    {
      "channel": 3,
      "note": 61,
      "start": 65.5766,
      "duration": 0.2451,
      "velocity": 87,
      "chip": "ym2612"
    },
    {
      "channel": 1,
      "note": 71,
      "start": 65.7397,
      "duration": 0.2483,
      "velocity": 102,
      "chip": "ym2612"
    },
    {
      "channel": 0,
      "note": 71,
      "start": 65.9058,
      "duration": 6.8927,
      "velocity": 102,
      "chip": "ym2612"
    },
    {
      "channel": 2,
      "note": 71,
      "start": 65.9077,
      "duration": 6.8923,
      "velocity": 87,
      "chip": "ym2612"
    },
    {
      "channel": 3,
      "note": 62,
      "start": 65.9092,
      "duration": 0.2458,
      "velocity": 87,
      "chip": "ym2612"
    },
    {
      "channel": 1,
      "note": 69,
      "start": 66.0725,
      "duration": 0.2478,
      "velocity": 102,
      "chip": "ym2612"
    },
    {
      "channel": 3,
      "note": 71,
      "start": 66.2395,
      "duration": 6.892,
      "velocity": 87,
      "chip": "ym2612"
    },
    {
      "channel": 1,
      "note": 71,
      "start": 66.4049,
      "duration": 6.892,
      "velocity": 102,
      "chip": "ym2612"
    }
  ]
}