{
  "track_name": "10 - Tactics #4 (Flame)",
  "duration_sec": 93.519,
  "sample_rate": 44100,
  "note_count": 1127,
  "unique_pitches": 31,
  "pitch_range": 69,
  "avg_note_duration": 0.145,
  "reconstruction_stats": {
    "notes_reconstructed": 1127,
    "keyon_events": 1127,
    "keyoff_events": 1125,
    "orphan_keyons": 2,
    "unique_pitches": 31,
    "pitch_range": 69,
    "avg_duration_sec": 0.145
  },
  "metadata": {
    "source": "G\\Gemfire\\10 - Tactics #4 (Flame).vgm"
  },
  "notes": [
    {
      "channel": 0,
      "note": 86,
      "start": 0.0,
      "duration": 0.1597,
      "velocity": 42,
      "chip": "ym2612"
    },
    {
      "channel": 2,
      "note": 50,
      "start": 0.0,
      "duration": 0.1599,
      "velocity": 104,
      "chip": "ym2612"
    },
    {
      "channel": 0,
      "note": 84,
      "start": 0.1756,
      "duration": 0.1663,
      "velocity": 42,
      "chip": "ym2612"
    },
    {
      "channel": 2,
      "note": 57,
      "start": 0.1763,
      "duration": 0.1659,
      "velocity": 104,
      "chip": "ym2612"
    },
    {
      "channel": 0,
      "note": 79,
      "start": 0.3432,
      "duration": 0.1499,
      "velocity": 42,
      "chip": "ym2612"
    },
    {
      "channel": 2,
      "note": 52,
      "start": 0.3439,
      "duration": 0.1656,
      "velocity": 104,
      "chip": "ym2612"
    },
    {
      "channel": 0,
      "note": 74,
      "start": 0.5256,
      "duration": 0.1663,
      "velocity": 42,
      "chip": "ym2612"
    },
    {
      "channel": 2,
      "note": 55,
      "start": 0.5263,
      "duration": 0.1659,
      "velocity": 104,
      "chip": "ym2612"
    },
    {
      "channel": 0,
      "note": 76,
      "start": 0.6932,
      "duration": 0.1661,
      "velocity": 42,
      "chip": "ym2612"
    },
    {
      "channel": 2,
      "note": 53,
      "start": 0.6939,
      "duration": 0.1489,
      "velocity": 104,
      "chip": "ym2612"
    },
    {
      "channel": 0,
      "note": 74,
      "start": 0.8601,
      "duration": 0.2159,
      "velocity": 42,
      "chip": "ym2612"
    },
    {
      "channel": 2,
      "note": 60,
      "start": 0.8608,
      "duration": 0.1657,
      "velocity": 104,
      "chip": "ym2612"
    },
    {
      "channel": 2,
      "note": 57,
      "start": 1.0424,
      "duration": 0.1663,
      "velocity": 104,
      "chip": "ym2612"
    },
    {
      "channel": 0,
      "note": 86,
      "start": 1.2098,
      "duration": 0.3488,
      "velocity": 42,
      "chip": "ym2612"
    },
    {
      "channel": 2,
      "note": 50,
      "start": 1.2104,
      "duration": 0.166,
      "velocity": 104,
      "chip": "ym2612"
    },
    {
      "channel": 0,
      "note": 79,
      "start": 1.5598,
      "duration": 0.1662,
      "velocity": 42,
      "chip": "ym2612"
    },
    {
      "channel": 2,
      "note": 50,
      "start": 1.5604,
      "duration": 0.1658,
      "velocity": 104,
      "chip": "ym2612"
    },
    {
      "channel": 0,
      "note": 74,
      "start": 1.7269,
      "duration": 0.165,
      "velocity": 42,
      "chip": "ym2612"
    },
    {
      "channel": 2,
      "note": 57,
      "start": 1.7276,
      "duration": 0.1653,
      "velocity": 104,
      "chip": "ym2612"
    },
    {
      "channel": 0,
      "note": 76,
      "start": 1.9092,
      "duration": 0.166,
      "velocity": 42,
      "chip": "ym2612"
    },
    {
      "channel": 2,
      "note": 52,
      "start": 1.9099,
      "duration": 0.1656,
      "velocity": 104,
      "chip": "ym2612"
    },
    {
      "channel": 0,
      "note": 74,
      "start": 2.0765,
      "duration": 0.1154,
      "velocity": 42,
      "chip": "ym2612"
    },
    {
      "channel": 2,
      "note": 55,
      "start": 2.0772,
      "duration": 0.1489,
      "velocity": 104,
      "chip": "ym2612"
    },
    {
      "channel": 0,
      "note": 86,
      "start": 2.259,
      "duration": 0.1663,
      "velocity": 42,
      "chip": "ym2612"
    },
    {
      "channel": 2,
      "note": 60,
      "start": 2.2596,
      "duration": 0.1659,
      "velocity": 104,
      "chip": "ym2612"
    },
    {
      "channel": 0,
      "note": 84,
      "start": 2.4266,
      "duration": 0.1654,
      "velocity": 42,
      "chip": "ym2612"
    },
    {
      "channel": 1,
      "note": 63,
      "start": 2.43,
      "duration": 0.0462,
      "velocity": 86,
      "chip": "ym2612"
    },
    {
      "channel": 2,
      "note": 57,
      "start": 2.4305,
      "duration": 0.1616,
      "velocity": 104,
      "chip": "ym2612"
    },
    {
      "channel": 1,
      "note": 61,
      "start": 2.5101,
      "duration": 0.0652,
      "velocity": 86,
      "chip": "ym2612"
    },
    {
      "channel": 0,
      "note": 79,
      "start": 2.5932,
      "duration": 0.1662,
      "velocity": 42,
      "chip": "ym2612"
    },
    {
      "channel": 1,
      "note": 63,
      "start": 2.5938,
      "duration": 0.0656,
      "velocity": 86,
      "chip": "ym2612"
    },
    {
      "channel": 2,
      "note": 52,
      "start": 2.5945,
      "duration": 0.1651,
      "velocity": 104,
      "chip": "ym2612"
    },
    {
      "channel": 1,
      "note": 61,
      "start": 2.6924,
      "duration": 0.0496,
      "velocity": 86,
      "chip": "ym2612"
    },
    {
      "channel": 0,
      "note": 74,
      "start": 2.7759,
      "duration": 0.1494,
      "velocity": 42,
      "chip": "ym2612"
    },
    {
      "channel": 1,
      "note": 63,
      "start": 2.7765,
      "duration": 0.7166,
      "velocity": 86,
      "chip": "ym2612"
    },
    {
      "channel": 2,
      "note": 50,
      "start": 2.7771,
      "duration": 0.1649,
      "velocity": 104,
      "chip": "ym2612"
    },
    {
      "channel": 0,
      "note": 76,
      "start": 2.9432,
      "duration": 0.1665,
      "velocity": 42,
      "chip": "ym2612"
    },
    {
      "channel": 2,
      "note": 57,
      "start": 2.9438,
      "duration": 0.1661,
      "velocity": 104,
      "chip": "ym2612"
    },
    {
      "channel": 0,
      "note": 74,
      "start": 3.1256,
      "duration": 0.1496,
      "velocity": 42,
      "chip": "ym2612"
    },
    {
      "channel": 2,
      "note": 52,
      "start": 3.1263,
      "duration": 0.1504,
      "velocity": 104,
      "chip": "ym2612"
    },
    {
      "channel": 0,
      "note": 86,
      "start": 3.2923,
      "duration": 0.1663,
      "velocity": 42,
      "chip": "ym2612"
    },
    {
      "channel": 2,
      "note": 55,
      "start": 3.2929,
      "duration": 0.1659,
      "velocity": 104,
      "chip": "ym2612"
    },
    {
      "channel": 0,
      "note": 84,
      "start": 3.4599,
      "duration": 0.1661,
      "velocity": 42,
      "chip": "ym2612"
    },
    {
      "channel": 2,
      "note": 53,
      "start": 3.4606,
      "duration": 0.1493,
      "velocity": 104,
      "chip": "ym2612"
    },
    {
      "channel": 0,
      "note": 79,
      "start": 3.6426,
      "duration": 0.166,
      "velocity": 42,
      "chip": "ym2612"
    },
    {
      "channel": 2,
      "note": 60,
      "start": 3.6432,
      "duration": 0.1655,
      "velocity": 104,
      "chip": "ym2612"
    },
    {
      "channel": 0,
      "note": 74,
      "start": 3.8099,
      "duration": 0.1495,
      "velocity": 42,
      "chip": "ym2612"
    },
    {
      "channel": 2,
      "note": 57,
      "start": 3.8106,
      "duration": 0.1659,
      "velocity": 104,
      "chip": "ym2612"
    },
    {
      "channel": 0,
      "note": 76,
      "start": 3.9772,
      "duration": 0.1659,
      "velocity": 42,
      "chip": "ym2612"
    },
    {
      "channel": 2,
      "note": 50,
      "start": 3.9778,
      "duration": 0.1655,
      "velocity": 104,
      "chip": "ym2612"
    },
    {
      "channel": 0,
      "note": 74,
      "start": 4.1589,
      "duration": 0.083,
      "velocity": 42,
      "chip": "ym2612"
    },
    {
      "channel": 0,
      "note": 86,
      "start": 4.3264,
      "duration": 0.1663,
      "velocity": 42,
      "chip": "ym2612"
    },
    {
      "channel": 2,
      "note": 50,
      "start": 4.327,
      "duration": 0.1659,
      "velocity": 104,
      "chip": "ym2612"
    },
    {
      "channel": 0,
      "note": 84,
      "start": 4.5092,
      "duration": 0.166,
      "velocity": 42,
      "chip": "ym2612"
    },
    {
      "channel": 2,
      "note": 57,
      "start": 4.5099,
      "duration": 0.1656,
      "velocity": 104,
      "chip": "ym2612"
    },
    {
      "channel": 0,
      "note": 79,
      "start": 4.6766,
      "duration": 0.1654,
      "velocity": 42,
      "chip": "ym2612"
    },
    {
      "channel": 2,
      "note": 52,
      "start": 4.6772,
      "duration": 0.166,
      "velocity": 104,
      "chip": "ym2612"
    },
    {
      "channel": 0,
      "note": 74,
      "start": 4.8439,
      "duration": 0.1647,
      "velocity": 42,
      "chip": "ym2612"
    },
    {
      "channel": 2,
      "note": 55,
      "start": 4.8445,
      "duration": 0.1643,
      "velocity": 104,
      "chip": "ym2612"
    },
    {
      "channel": 0,
      "note": 76,
      "start": 5.0256,
      "duration": 0.1663,
      "velocity": 42,
      "chip": "ym2612"
    },
    {
      "channel": 2,
      "note": 60,
      "start": 5.0263,
      "duration": 0.1659,
      "velocity": 104,
      "chip": "ym2612"
    },
    {
      "channel": 0,
      "note": 74,
      "start": 5.1932,
      "duration": 0.1154,
      "velocity": 42,
      "chip": "ym2612"
    },
    {
      "channel": 2,
      "note": 57,
      "start": 5.1939,
      "duration": 0.1655,
      "velocity": 104,
      "chip": "ym2612"
    },
    {
      "channel": 2,
      "note": 52,
      "start": 5.376,
      "duration": 0.166,
      "velocity": 104,
      "chip": "ym2612"
    },
    {
      "channel": 0,
      "note": 86,
      "start": 5.5432,
      "duration": 0.1667,
      "velocity": 42,
      "chip": "ym2612"
    },
    {
      "channel": 2,
      "note": 50,
      "start": 5.544,
      "duration": 0.166,
      "velocity": 104,
      "chip": "ym2612"
    },
    {
      "channel": 0,
      "note": 84,
      "start": 5.7107,
      "duration": 0.1655,
      "velocity": 42,
      "chip": "ym2612"
    },
    {
      "channel": 2,
      "note": 57,
      "start": 5.7114,
      "duration": 0.165,
      "velocity": 104,
      "chip": "ym2612"
    },
    {
      "channel": 0,
      "note": 79,
      "start": 5.8922,
      "duration": 0.1663,
      "velocity": 42,
      "chip": "ym2612"
    },
    {
      "channel": 2,
      "note": 52,
      "start": 5.8929,
      "duration": 0.1659,
      "velocity": 104,
      "chip": "ym2612"
    },
    {
      "channel": 0,
      "note": 74,
      "start": 6.0601,
      "duration": 0.1661,
      "velocity": 42,
      "chip": "ym2612"
    },
    {
      "channel": 2,
      "note": 55,
      "start": 6.0607,
      "duration": 0.1656,
      "velocity": 104,
      "chip": "ym2612"
    },
    {
      "channel": 0,
      "note": 76,
      "start": 6.2426,
      "duration": 0.166,
      "velocity": 42,
      "chip": "ym2612"
    },
    {
      "channel": 2,
      "note": 53,
      "start": 6.2432,
      "duration": 0.1488,
      "velocity": 104,
      "chip": "ym2612"
    },
    {
      "channel": 0,
      "note": 74,
      "start": 6.41,
      "duration": 0.1653,
      "velocity": 42,
      "chip": "ym2612"
    },
    {
      "channel": 2,
      "note": 60,
      "start": 6.4106,
      "duration": 0.1651,
      "velocity": 104,
      "chip": "ym2612"
    },
    {
      "channel": 1,
      "note": 63,
      "start": 6.5771,
      "duration": 0.0522,
      "velocity": 86,
      "chip": "ym2612"
    },
    {
      "channel": 2,
      "note": 57,
      "start": 6.5777,
      "duration": 0.1679,
      "velocity": 104,
      "chip": "ym2612"
    },
    {
      "channel": 1,
      "note": 61,
      "start": 6.6757,
      "duration": 0.0496,
      "velocity": 86,
      "chip": "ym2612"
    },
    {
      "channel": 0,
      "note": 86,
      "start": 6.759,
      "duration": 0.1663,
      "velocity": 42,
      "chip": "ym2612"
    },
    {
      "channel": 1,
      "note": 63,
      "start": 6.7595,
      "duration": 0.0517,
      "velocity": 86,
      "chip": "ym2612"
    },
    {
      "channel": 2,
      "note": 50,
      "start": 6.7601,
      "duration": 0.1653,
      "velocity": 104,
      "chip": "ym2612"
    },
    {
      "channel": 1,
      "note": 61,
      "start": 6.8426,
      "duration": 0.0699,
      "velocity": 86,
      "chip": "ym2612"
    },
    {
      "channel": 0,
      "note": 84,
      "start": 6.9284,
      "duration": 0.1661,
      "velocity": 42,
      "chip": "ym2612"
    },
    {
      "channel": 1,
      "note": 63,
      "start": 6.9289,
      "duration": 0.448,
      "velocity": 86,
      "chip": "ym2612"
    },
    {
      "channel": 0,
      "note": 79,
      "start": 7.1093,
      "duration": 0.1493,
      "velocity": 42,
      "chip": "ym2612"
    },
    {
      "channel": 2,
      "note": 50,
      "start": 7.1099,
      "duration": 0.1502,
      "velocity": 104,
      "chip": "ym2612"
    },
    {
      "channel": 0,
      "note": 74,
      "start": 7.2756,
      "duration": 0.134,
      "velocity": 42,
      "chip": "ym2612"
    },
    {
      "channel": 2,
      "note": 57,
      "start": 7.2763,
      "duration": 0.1658,
      "velocity": 104,
      "chip": "ym2612"
    },
    {
      "channel": 0,
      "note": 76,
      "start": 7.4437,
      "duration": 0.1659,
      "velocity": 42,
      "chip": "ym2612"
    },
    {
      "channel": 2,
      "note": 52,
      "start": 7.4443,
      "duration": 0.1654,
      "velocity": 104,
      "chip": "ym2612"
    },
    {
      "channel": 0,
      "note": 74,
      "start": 7.6256,
      "duration": 0.1006,
      "velocity": 42,
      "chip": "ym2612"
    },
    {
      "channel": 2,
      "note": 55,
      "start": 7.6263,
      "duration": 0.1491,
      "velocity": 104,
      "chip": "ym2612"
    },
    {
      "channel": 0,
      "note": 86,
      "start": 7.7932,
      "duration": 0.1663,
      "velocity": 42,
      "chip": "ym2612"
    },
    {
      "channel": 2,
      "note": 60,
      "start": 7.7939,
      "duration": 0.1659,
      "velocity": 104,
      "chip": "ym2612"
    },
    {
      "channel": 0,
      "note": 84,
      "start": 7.9604,
      "duration": 0.1688,
      "velocity": 42,
      "chip": "ym2612"
    },
    {
      "channel": 2,
      "note": 57,
      "start": 7.9611,
      "duration": 0.1684,
      "velocity": 104,
      "chip": "ym2612"
    },
    {
      "channel": 0,
      "note": 79,
      "start": 8.1422,
      "duration": 0.1663,
      "velocity": 42,
      "chip": "ym2612"
    },
    {
      "channel": 2,
      "note": 52,
      "start": 8.1429,
      "duration": 0.1662,
      "velocity": 104,
      "chip": "ym2612"
    },
    {
      "channel": 0,
      "note": 74,
      "start": 8.3104,
      "duration": 0.1491,
      "velocity": 42,
      "chip": "ym2612"
    },
    {
      "channel": 2,
      "note": 50,
      "start": 8.3112,
      "duration": 0.1651,
      "velocity": 104,
      "chip": "ym2612"
    },
    {
      "channel": 0,
      "note": 76,
      "start": 8.4922,
      "duration": 0.151,
      "velocity": 42,
      "chip": "ym2612"
    },
    {
      "channel": 2,
      "note": 57,
      "start": 8.4929,
      "duration": 0.1658,
      "velocity": 104,
      "chip": "ym2612"
    },
    {
      "channel": 0,
      "note": 74,
      "start": 8.66,
      "duration": 0.1168,
      "velocity": 42,
      "chip": "ym2612"
    },
    {
      "channel": 2,
      "note": 52,
      "start": 8.6607,
      "duration": 0.1656,
      "velocity": 104,
      "chip": "ym2612"
    },
    {
      "channel": 0,
      "note": 86,
      "start": 8.827,
      "duration": 0.1662,
      "velocity": 42,
      "chip": "ym2612"
    },
    {
      "channel": 2,
      "note": 55,
      "start": 8.8277,
      "duration": 0.1658,
      "velocity": 104,
      "chip": "ym2612"
    },
    {
      "channel": 0,
      "note": 84,
      "start": 9.009,
      "duration": 0.1663,
      "velocity": 42,
      "chip": "ym2612"
    },
    {
      "channel": 2,
      "note": 53,
      "start": 9.0096,
      "duration": 0.1491,
      "velocity": 104,
      "chip": "ym2612"
    },
    {
      "channel": 0,
      "note": 79,
      "start": 9.1769,
      "duration": 0.1686,
      "velocity": 42,
      "chip": "ym2612"
    },
    {
      "channel": 2,
      "note": 60,
      "start": 9.1776,
      "duration": 0.1681,
      "velocity": 104,
      "chip": "ym2612"
    },
    {
      "channel": 0,
      "note": 74,
      "start": 9.3589,
      "duration": 0.1663,
      "velocity": 42,
      "chip": "ym2612"
    },
    {
      "channel": 2,
      "note": 57,
      "start": 9.3596,
      "duration": 0.1659,
      "velocity": 104,
      "chip": "ym2612"
    },
    {
      "channel": 0,
      "note": 76,
      "start": 9.5284,
      "duration": 0.1494,
      "velocity": 42,
      "chip": "ym2612"
    },
    {
      "channel": 2,
      "note": 50,
      "start": 9.529,
      "duration": 0.1656,
      "velocity": 104,
      "chip": "ym2612"
    },
    {
      "channel": 0,
      "note": 74,
      "start": 9.6953,
      "duration": 0.0839,
      "velocity": 42,
      "chip": "ym2612"
    },
    {
      "channel": 0,
      "note": 86,
      "start": 9.8756,
      "duration": 0.1663,
      "velocity": 42,
      "chip": "ym2612"
    },
    {
      "channel": 2,
      "note": 50,
      "start": 9.8763,
      "duration": 0.1662,
      "velocity": 104,
      "chip": "ym2612"
    },
    {
      "channel": 0,
      "note": 84,
      "start": 10.0463,
      "duration": 0.1648,
      "velocity": 42,
      "chip": "ym2612"
    },
    {
      "channel": 2,
      "note": 57,
      "start": 10.047,
      "duration": 0.1644,
      "velocity": 104,
      "chip": "ym2612"
    },
    {
      "channel": 0,
      "note": 79,
      "start": 10.2256,
      "duration": 0.1663,
      "velocity": 42,
      "chip": "ym2612"
    },
    {
      "channel": 2,
      "note": 52,
      "start": 10.2263,
      "duration": 0.1659,
      "velocity": 104,
      "chip": "ym2612"
    },
    {
      "channel": 0,
      "note": 74,
      "start": 10.396,
      "duration": 0.1626,
      "velocity": 42,
      "chip": "ym2612"
    },
    {
      "channel": 2,
      "note": 55,
      "start": 10.3967,
      "duration": 0.1489,
      "velocity": 104,
      "chip": "ym2612"
    },
    {
      "channel": 0,
      "note": 76,
      "start": 10.5626,
      "duration": 0.146,
      "velocity": 42,
      "chip": "ym2612"
    },
    {
      "channel": 2,
      "note": 60,
      "start": 10.5633,
      "duration": 0.163,
      "velocity": 104,
      "chip": "ym2612"
    },
    {
      "channel": 0,
      "note": 74,
      "start": 10.7422,
      "duration": 0.2163,
      "velocity": 42,
      "chip": "ym2612"
    },
    {
      "channel": 1,
      "note": 63,
      "start": 10.7429,
      "duration": 0.0491,
      "velocity": 86,
      "chip": "ym2612"
    },
    {
      "channel": 2,
      "note": 57,
      "start": 10.7434,
      "duration": 0.1653,
      "velocity": 104,
      "chip": "ym2612"
    },
    {
      "channel": 1,
      "note": 61,
      "start": 10.8256,
      "duration": 0.0673,
      "velocity": 86,
      "chip": "ym2612"
    },
    {
      "channel": 1,
      "note": 63,
      "start": 10.9104,
      "duration": 0.0649,
      "velocity": 86,
      "chip": "ym2612"
    },
    {
      "channel": 2,
      "note": 52,
      "start": 10.911,
      "duration": 0.1653,
      "velocity": 104,
      "chip": "ym2612"
    },
    {
      "channel": 1,
      "note": 61,
      "start": 10.9933,
      "duration": 0.0663,
      "velocity": 86,
      "chip": "ym2612"
    },
    {
      "channel": 0,
      "note": 86,
      "start": 11.077,
      "duration": 0.1666,
      "velocity": 42,
      "chip": "ym2612"
    },
    {
      "channel": 1,
      "note": 63,
      "start": 11.0776,
      "duration": 0.4153,
      "velocity": 86,
      "chip": "ym2612"
    },
    {
      "channel": 2,
      "note": 50,
      "start": 11.0782,
      "duration": 0.1656,
      "velocity": 104,
      "chip": "ym2612"
    },
    {
      "channel": 0,
      "note": 84,
      "start": 11.2589,
      "duration": 0.1663,
      "velocity": 42,
      "chip": "ym2612"
    },
    {
      "channel": 2,
      "note": 57,
      "start": 11.2596,
      "duration": 0.1659,
      "velocity": 104,
      "chip": "ym2612"
    },
    {
      "channel": 0,
      "note": 79,
      "start": 11.4268,
      "duration": 0.1501,
      "velocity": 42,
      "chip": "ym2612"
    },
    {
      "channel": 2,
      "note": 52,
      "start": 11.4275,
      "duration": 0.1655,
      "velocity": 104,
      "chip": "ym2612"
    },
    {
      "channel": 0,
      "note": 74,
      "start": 11.6089,
      "duration": 0.1663,
      "velocity": 42,
      "chip": "ym2612"
    },
    {
      "channel": 2,
      "note": 55,
      "start": 11.6096,
      "duration": 0.1662,
      "velocity": 104,
      "chip": "ym2612"
    },
    {
      "channel": 0,
      "note": 76,
      "start": 11.777,
      "duration": 0.1518,
      "velocity": 42,
      "chip": "ym2612"
    },
    {
      "channel": 2,
      "note": 53,
      "start": 11.7777,
      "duration": 0.1513,
      "velocity": 104,
      "chip": "ym2612"
    },
    {
      "channel": 0,
      "note": 74,
      "start": 11.9461,
      "duration": 0.1637,
      "velocity": 42,
      "chip": "ym2612"
    },
    {
      "channel": 2,
      "note": 60,
      "start": 11.9468,
      "duration": 0.1636,
      "velocity": 104,
      "chip": "ym2612"
    },
    {
      "channel": 0,
      "note": 86,
      "start": 12.1256,
      "duration": 0.1663,
      "velocity": 42,
      "chip": "ym2612"
    },
    {
      "channel": 2,
      "note": 57,
      "start": 12.1263,
      "duration": 0.1659,
      "velocity": 104,
      "chip": "ym2612"
    },
    {
      "channel": 0,
      "note": 84,
      "start": 12.2934,
      "duration": 0.1662,
      "velocity": 42,
      "chip": "ym2612"
    },
    {
      "channel": 2,
      "note": 50,
      "start": 12.294,
      "duration": 0.1657,
      "velocity": 104,
      "chip": "ym2612"
    },
    {
      "channel": 0,
      "note": 79,
      "start": 12.4756,
      "duration": 0.1663,
      "velocity": 42,
      "chip": "ym2612"
    },
    {
      "channel": 0,
      "note": 74,
      "start": 12.6462,
      "duration": 0.1624,
      "velocity": 42,
      "chip": "ym2612"
    },
    {
      "channel": 2,
      "note": 50,
      "start": 12.6469,
      "duration": 0.1645,
      "velocity": 104,
      "chip": "ym2612"
    },
    {
      "channel": 0,
      "note": 76,
      "start": 12.812,
      "duration": 0.1495,
      "velocity": 42,
      "chip": "ym2612"
    },
    {
      "channel": 2,
      "note": 57,
      "start": 12.8127,
      "duration": 0.1655,
      "velocity": 104,
      "chip": "ym2612"
    },
    {
      "channel": 0,
      "note": 74,
      "start": 12.9922,
      "duration": 0.183,
      "velocity": 42,
      "chip": "ym2612"
    },
    {
      "channel": 2,
      "note": 52,
      "start": 12.9929,
      "duration": 0.1658,
      "velocity": 104,
      "chip": "ym2612"
    },
    {
      "channel": 2,
      "note": 55,
      "start": 13.1627,
      "duration": 0.1499,
      "velocity": 104,
      "chip": "ym2612"
    },
    {
      "channel": 0,
      "note": 86,
      "start": 13.3423,
      "duration": 0.1663,
      "velocity": 42,
      "chip": "ym2612"
    },
    {
      "channel": 2,
      "note": 60,
      "start": 13.3429,
      "duration": 0.1662,
      "velocity": 104,
      "chip": "ym2612"
    },
    {
      "channel": 0,
      "note": 84,
      "start": 13.5104,
      "duration": 0.1648,
      "velocity": 42,
      "chip": "ym2612"
    },
    {
      "channel": 2,
      "note": 57,
      "start": 13.5111,
      "duration": 0.1643,
      "velocity": 104,
      "chip": "ym2612"
    },
    {
      "channel": 0,
      "note": 79,
      "start": 13.6768,
      "duration": 0.1664,
      "velocity": 42,
      "chip": "ym2612"
    },
    {
      "channel": 2,
      "note": 52,
      "start": 13.6774,
      "duration": 0.166,
      "velocity": 104,
      "chip": "ym2612"
    },
    {
      "channel": 0,
      "note": 74,
      "start": 13.8589,
      "duration": 0.134,
      "velocity": 42,
      "chip": "ym2612"
    },
    {
      "channel": 2,
      "note": 50,
      "start": 13.8598,
      "duration": 0.1656,
      "velocity": 104,
      "chip": "ym2612"
    },
    {
      "channel": 0,
      "note": 76,
      "start": 14.0267,
      "duration": 0.1662,
      "velocity": 42,
      "chip": "ym2612"
    },
    {
      "channel": 2,
      "note": 57,
      "start": 14.0273,
      "duration": 0.1657,
      "velocity": 104,
      "chip": "ym2612"
    },
    {
      "channel": 0,
      "note": 74,
      "start": 14.209,
      "duration": 0.133,
      "velocity": 42,
      "chip": "ym2612"
    },
    {
      "channel": 2,
      "note": 52,
      "start": 14.2096,
      "duration": 0.1504,
      "velocity": 104,
      "chip": "ym2612"
    },
    {
      "channel": 0,
      "note": 86,
      "start": 14.3759,
      "duration": 0.1672,
      "velocity": 42,
      "chip": "ym2612"
    },
    {
      "channel": 2,
      "note": 55,
      "start": 14.3766,
      "duration": 0.1655,
      "velocity": 104,
      "chip": "ym2612"
    },
    {
      "channel": 0,
      "note": 84,
      "start": 14.5433,
      "duration": 0.1692,
      "velocity": 42,
      "chip": "ym2612"
    },
    {
      "channel": 2,
      "note": 53,
      "start": 14.5439,
      "duration": 0.1648,
      "velocity": 104,
      "chip": "ym2612"
    },
    {
      "channel": 0,
      "note": 79,
      "start": 14.7256,
      "duration": 0.1663,
      "velocity": 42,
      "chip": "ym2612"
    },
    {
      "channel": 2,
      "note": 60,
      "start": 14.7263,
      "duration": 0.1527,
      "velocity": 104,
      "chip": "ym2612"
    },
    {
      "channel": 0,
      "note": 74,
      "start": 14.8949,
      "duration": 0.1499,
      "velocity": 42,
      "chip": "ym2612"
    },
    {
      "channel": 1,
      "note": 63,
      "start": 14.8955,
      "duration": 0.049,
      "velocity": 86,
      "chip": "ym2612"
    },
    {
      "channel": 2,
      "note": 57,
      "start": 14.8961,
      "duration": 0.1626,
      "velocity": 104,
      "chip": "ym2612"
    },
    {
      "channel": 1,
      "note": 61,
      "start": 14.9795,
      "duration": 0.0654,
      "velocity": 86,
      "chip": "ym2612"
    },
    {
      "channel": 0,
      "note": 76,
      "start": 15.0619,
      "duration": 0.1673,
      "velocity": 42,
      "chip": "ym2612"
    },
    {
      "channel": 1,
      "note": 63,
      "start": 15.0625,
      "duration": 0.0663,
      "velocity": 86,
      "chip": "ym2612"
    },
    {
      "channel": 2,
      "note": 50,
      "start": 15.0631,
      "duration": 0.1663,
      "velocity": 104,
      "chip": "ym2612"
    },
    {
      "channel": 1,
      "note": 61,
      "start": 15.159,
      "duration": 0.0497,
      "velocity": 86,
      "chip": "ym2612"
    },
    {
      "channel": 0,
      "note": 74,
      "start": 15.2426,
      "duration": 0.0994,
      "velocity": 42,
      "chip": "ym2612"
    },
    {
      "channel": 1,
      "note": 63,
      "start": 15.2432,
      "duration": 0.4154,
      "velocity": 86,
      "chip": "ym2612"
    },
    {
      "channel": 0,
      "note": 86,
      "start": 15.4125,
      "duration": 0.1656,
      "velocity": 42,
      "chip": "ym2612"
    },
    {
      "channel": 2,
      "note": 50,
      "start": 15.4132,
      "duration": 0.1652,
      "velocity": 104,
      "chip": "ym2612"
    },
    {
      "channel": 0,
      "note": 84,
      "start": 15.5922,
      "duration": 0.1663,
      "velocity": 42,
      "chip": "ym2612"
    },
    {
      "channel": 2,
      "note": 57,
      "start": 15.5929,
      "duration": 0.1659,
      "velocity": 104,
      "chip": "ym2612"
    },
    {
      "channel": 0,
      "note": 79,
      "start": 15.7627,
      "duration": 0.1662,
      "velocity": 42,
      "chip": "ym2612"
    },
    {
      "channel": 2,
      "note": 52,
      "start": 15.7633,
      "duration": 0.1658,
      "velocity": 104,
      "chip": "ym2612"
    },
    {
      "channel": 0,
      "note": 74,
      "start": 15.9297,
      "duration": 0.1652,
      "velocity": 42,
      "chip": "ym2612"
    },
    {
      "channel": 2,
      "note": 55,
      "start": 15.9303,
      "duration": 0.1617,
      "velocity": 104,
      "chip": "ym2612"
    },
    {
      "channel": 0,
      "note": 76,
      "start": 16.1092,
      "duration": 0.166,
      "velocity": 42,
      "chip": "ym2612"
    },
    {
      "channel": 2,
      "note": 60,
      "start": 16.1099,
      "duration": 0.1655,
      "velocity": 104,
      "chip": "ym2612"
    },
    {
      "channel": 0,
      "note": 74,
      "start": 16.2767,
      "duration": 0.1328,
      "velocity": 42,
      "chip": "ym2612"
    },
    {
      "channel": 2,
      "note": 57,
      "start": 16.2774,
      "duration": 0.1659,
      "velocity": 104,
      "chip": "ym2612"
    },
    {
      "channel": 0,
      "note": 86,
      "start": 16.459,
      "duration": 0.1663,
      "velocity": 42,
      "chip": "ym2612"
    },
    {
      "channel": 2,
      "note": 52,
      "start": 16.4596,
      "duration": 0.1659,
      "velocity": 104,
      "chip": "ym2612"
    },
    {
      "channel": 0,
      "note": 84,
      "start": 16.6267,
      "duration": 0.1662,
      "velocity": 42,
      "chip": "ym2612"
    },
    {
      "channel": 2,
      "note": 50,
      "start": 16.6276,
      "duration": 0.1655,
      "velocity": 104,
      "chip": "ym2612"
    },
    {
      "channel": 0,
      "note": 79,
      "start": 16.7938,
      "duration": 0.1658,
      "velocity": 42,
      "chip": "ym2612"
    },
    {
      "channel": 2,
      "note": 57,
      "start": 16.7944,
      "duration": 0.1653,
      "velocity": 104,
      "chip": "ym2612"
    },
    {
      "channel": 0,
      "note": 74,
      "start": 16.9759,
      "duration": 0.166,
      "velocity": 42,
      "chip": "ym2612"
    },
    {
      "channel": 2,
      "note": 52,
      "start": 16.9765,
      "duration": 0.1656,
      "velocity": 104,
      "chip": "ym2612"
    },
    {
      "channel": 0,
      "note": 76,
      "start": 17.146,
      "duration": 0.1639,
      "velocity": 42,
      "chip": "ym2612"
    },
    {
      "channel": 2,
      "note": 55,
      "start": 17.1466,
      "duration": 0.1634,
      "velocity": 104,
      "chip": "ym2612"
    },
    {
      "channel": 0,
      "note": 74,
      "start": 17.3256,
      "duration": 0.1006,
      "velocity": 42,
      "chip": "ym2612"
    },
    {
      "channel": 2,
      "note": 53,
      "start": 17.3263,
      "duration": 0.1491,
      "velocity": 104,
      "chip": "ym2612"
    },
    {
      "channel": 0,
      "note": 86,
      "start": 17.4932,
      "duration": 0.1654,
      "velocity": 42,
      "chip": "ym2612"
    },
    {
      "channel": 2,
      "note": 60,
      "start": 17.4939,
      "duration": 0.1649,
      "velocity": 104,
      "chip": "ym2612"
    },
    {
      "channel": 0,
      "note": 84,
      "start": 17.66,
      "duration": 0.1662,
      "velocity": 42,
      "chip": "ym2612"
    },
    {
      "channel": 2,
      "note": 57,
      "start": 17.6607,
      "duration": 0.1656,
      "velocity": 104,
      "chip": "ym2612"
    },
    {
      "channel": 0,
      "note": 79,
      "start": 17.8426,
      "duration": 0.166,
      "velocity": 42,
      "chip": "ym2612"
    },
    {
      "channel": 2,
      "note": 50,
      "start": 17.8432,
      "duration": 0.1656,
      "velocity": 104,
      "chip": "ym2612"
    },
    {
      "channel": 0,
      "note": 74,
      "start": 18.01,
      "duration": 0.1664,
      "velocity": 42,
      "chip": "ym2612"
    },
    {
      "channel": 0,
      "note": 76,
      "start": 18.1923,
      "duration": 0.1509,
      "velocity": 42,
      "chip": "ym2612"
    },
    {
      "channel": 2,
      "note": 50,
      "start": 18.1929,
      "duration": 0.1505,
      "velocity": 104,
      "chip": "ym2612"
    },
    {
      "channel": 0,
      "note": 74,
      "start": 18.3589,
      "duration": 0.1997,
      "velocity": 42,
      "chip": "ym2612"
    },
    {
      "channel": 2,
      "note": 57,
      "start": 18.3596,
      "duration": 0.1658,
      "velocity": 104,
      "chip": "ym2612"
    },
    {
      "channel": 2,
      "note": 52,
      "start": 18.5268,
      "duration": 0.1688,
      "velocity": 104,
      "chip": "ym2612"
    },
    {
      "channel": 0,
      "note": 86,
      "start": 18.7092,
      "duration": 0.166,
      "velocity": 42,
      "chip": "ym2612"
    },
    {
      "channel": 2,
      "note": 55,
      "start": 18.7099,
      "duration": 0.1488,
      "velocity": 104,
      "chip": "ym2612"
    },
    {
      "channel": 0,
      "note": 84,
      "start": 18.8782,
      "duration": 0.1666,
      "velocity": 42,
      "chip": "ym2612"
    },
    {
      "channel": 2,
      "note": 60,
      "start": 18.8789,
      "duration": 0.1661,
      "velocity": 104,
      "chip": "ym2612"
    },
    {
      "channel": 0,
      "note": 79,
      "start": 19.0457,
      "duration": 0.1665,
      "velocity": 42,
      "chip": "ym2612"
    },
    {
      "channel": 1,
      "note": 63,
      "start": 19.0463,
      "duration": 0.0496,
      "velocity": 86,
      "chip": "ym2612"
    },
    {
      "channel": 2,
      "note": 57,
      "start": 19.0469,
      "duration": 0.166,
      "velocity": 104,
      "chip": "ym2612"
    },
    {
      "channel": 1,
      "note": 61,
      "start": 19.1423,
      "duration": 0.07,
      "velocity": 86,
      "chip": "ym2612"
    },
    {
      "channel": 0,
      "note": 74,
      "start": 19.2256,
      "duration": 0.1663,
      "velocity": 42,
      "chip": "ym2612"
    },
    {
      "channel": 1,
      "note": 63,
      "start": 19.2262,
      "duration": 0.0491,
      "velocity": 86,
      "chip": "ym2612"
    },
    {
      "channel": 2,
      "note": 52,
      "start": 19.2268,
      "duration": 0.1653,
      "velocity": 104,
      "chip": "ym2612"
    },
    {
      "channel": 1,
      "note": 61,
      "start": 19.3119,
      "duration": 0.0677,
      "velocity": 86,
      "chip": "ym2612"
    },
    {
      "channel": 0,
      "note": 76,
      "start": 19.396,
      "duration": 0.1651,
      "velocity": 42,
      "chip": "ym2612"
    },
    {
      "channel": 1,
      "note": 63,
      "start": 19.3966,
      "duration": 0.3989,
      "velocity": 86,
      "chip": "ym2612"
    },
    {
      "channel": 2,
      "note": 50,
      "start": 19.3972,
      "duration": 0.1642,
      "velocity": 104,
      "chip": "ym2612"
    },
    {
      "channel": 0,
      "note": 74,
      "start": 19.5759,
      "duration": 0.1863,
      "velocity": 42,
      "chip": "ym2612"
    },
    {
      "channel": 2,
      "note": 57,
      "start": 19.5766,
      "duration": 0.1655,
      "velocity": 104,
      "chip": "ym2612"
    },
    {
      "channel": 2,
      "note": 52,
      "start": 19.7461,
      "duration": 0.1665,
      "velocity": 104,
      "chip": "ym2612"
    },
    {
      "channel": 0,
      "note": 86,
      "start": 19.9132,
      "duration": 0.165,
      "velocity": 42,
      "chip": "ym2612"
    },
    {
      "channel": 2,
      "note": 55,
      "start": 19.9139,
      "duration": 0.1645,
      "velocity": 104,
      "chip": "ym2612"
    },
    {
      "channel": 0,
      "note": 84,
      "start": 20.0922,
      "duration": 0.1663,
      "velocity": 42,
      "chip": "ym2612"
    },
    {
      "channel": 2,
      "note": 53,
      "start": 20.0929,
      "duration": 0.1491,
      "velocity": 104,
      "chip": "ym2612"
    },
    {
      "channel": 0,
      "note": 79,
      "start": 20.2616,
      "duration": 0.1673,
      "velocity": 42,
      "chip": "ym2612"
    },
    {
      "channel": 2,
      "note": 60,
      "start": 20.2623,
      "duration": 0.1667,
      "velocity": 104,
      "chip": "ym2612"
    },
    {
      "channel": 0,
      "note": 74,
      "start": 20.4426,
      "duration": 0.1493,
      "velocity": 42,
      "chip": "ym2612"
    },
    {
      "channel": 2,
      "note": 57,
      "start": 20.4432,
      "duration": 0.1655,
      "velocity": 104,
      "chip": "ym2612"
    },
    {
      "channel": 0,
      "note": 76,
      "start": 20.6116,
      "duration": 0.1666,
      "velocity": 42,
      "chip": "ym2612"
    },
    {
      "channel": 2,
      "note": 50,
      "start": 20.6123,
      "duration": 0.1661,
      "velocity": 104,
      "chip": "ym2612"
    },
    {
      "channel": 0,
      "note": 81,
      "start": 20.7817,
      "duration": 0.0602,
      "velocity": 103,
      "chip": "ym2612"
    },
    {
      "channel": 1,
      "note": 76,
      "start": 20.7857,
      "duration": 2.1115,
      "velocity": 119,
      "chip": "ym2612"
    },
    {
      "channel": 2,
      "note": 76,
      "start": 20.7863,
      "duration": 0.0602,
      "velocity": 104,
      "chip": "ym2612"
    },
    {
      "channel": 0,
      "note": 81,
      "start": 20.959,
      "duration": 0.0663,
      "velocity": 103,
      "chip": "ym2612"
    },
    {
      "channel": 2,
      "note": 76,
      "start": 20.9596,
      "duration": 0.0659,
      "velocity": 104,
      "chip": "ym2612"
    },
    {
      "channel": 0,
      "note": 81,
      "start": 21.1296,
      "duration": 0.0668,
      "velocity": 103,
      "chip": "ym2612"
    },
    {
      "channel": 2,
      "note": 76,
      "start": 21.1303,
      "duration": 0.0658,
      "velocity": 104,
      "chip": "ym2612"
    },
    {
      "channel": 0,
      "note": 81,
      "start": 21.3093,
      "duration": 0.0507,
      "velocity": 103,
      "chip": "ym2612"
    },
    {
      "channel": 2,
      "note": 76,
      "start": 21.3099,
      "duration": 0.0503,
      "velocity": 104,
      "chip": "ym2612"
    },
    {
      "channel": 0,
      "note": 81,
      "start": 21.4756,
      "duration": 0.0691,
      "velocity": 103,
      "chip": "ym2612"
    },
    {
      "channel": 2,
      "note": 76,
      "start": 21.4763,
      "duration": 0.0658,
      "velocity": 104,
      "chip": "ym2612"
    },
    {
      "channel": 0,
      "note": 81,
      "start": 21.6462,
      "duration": 0.0653,
      "velocity": 103,
      "chip": "ym2612"
    },
    {
      "channel": 2,
      "note": 76,
      "start": 21.6469,
      "duration": 0.0649,
      "velocity": 104,
      "chip": "ym2612"
    },
    {
      "channel": 0,
      "note": 81,
      "start": 21.8256,
      "duration": 0.0718,
      "velocity": 103,
      "chip": "ym2612"
    },
    {
      "channel": 2,
      "note": 76,
      "start": 21.8263,
      "duration": 0.0715,
      "velocity": 104,
      "chip": "ym2612"
    },
    {
      "channel": 0,
      "note": 82,
      "start": 21.9092,
      "duration": 0.0827,
      "velocity": 103,
      "chip": "ym2612"
    },
    {
      "channel": 2,
      "note": 77,
      "start": 21.9099,
      "duration": 0.0823,
      "velocity": 104,
      "chip": "ym2612"
    },
    {
      "channel": 0,
      "note": 84,
      "start": 21.9976,
      "duration": 0.0776,
      "velocity": 103,
      "chip": "ym2612"
    },
    {
      "channel": 2,
      "note": 79,
      "start": 21.9983,
      "duration": 0.0772,
      "velocity": 104,
      "chip": "ym2612"
    },
    {
      "channel": 0,
      "note": 86,
      "start": 22.08,
      "duration": 0.0848,
      "velocity": 103,
      "chip": "ym2612"
    },
    {
      "channel": 2,
      "note": 81,
      "start": 22.0807,
      "duration": 0.0844,
      "velocity": 104,
      "chip": "ym2612"
    },
    {
      "channel": 0,
      "note": 81,
      "start": 22.1656,
      "duration": 0.0763,
      "velocity": 103,
      "chip": "ym2612"
    },
    {
      "channel": 2,
      "note": 76,
      "start": 22.1665,
      "duration": 0.0634,
      "velocity": 104,
      "chip": "ym2612"
    },
    {
      "channel": 0,
      "note": 81,
      "start": 22.3423,
      "duration": 0.0539,
      "velocity": 103,
      "chip": "ym2612"
    },
    {
      "channel": 2,
      "note": 76,
      "start": 22.3429,
      "duration": 0.0491,
      "velocity": 104,
      "chip": "ym2612"
    },
    {
      "channel": 0,
      "note": 81,
      "start": 22.5154,
      "duration": 0.0654,
      "velocity": 103,
      "chip": "ym2612"
    },
    {
      "channel": 2,
      "note": 76,
      "start": 22.5161,
      "duration": 0.0593,
      "velocity": 104,
      "chip": "ym2612"
    },
    {
      "channel": 0,
      "note": 81,
      "start": 22.6922,
      "duration": 0.0663,
      "velocity": 103,
      "chip": "ym2612"
    },
    {
      "channel": 2,
      "note": 76,
      "start": 22.6929,
      "duration": 0.0543,
      "velocity": 104,
      "chip": "ym2612"
    },
    {
      "channel": 0,
      "note": 81,
      "start": 22.8642,
      "duration": 0.0778,
      "velocity": 103,
      "chip": "ym2612"
    },
    {
      "channel": 2,
      "note": 76,
      "start": 22.8648,
      "duration": 0.0773,
      "velocity": 104,
      "chip": "ym2612"
    },
    {
      "channel": 0,
      "note": 80,
      "start": 22.9476,
      "duration": 0.0829,
      "velocity": 103,
      "chip": "ym2612"
    },
    {
      "channel": 2,
      "note": 75,
      "start": 22.9483,
      "duration": 0.0824,
      "velocity": 104,
      "chip": "ym2612"
    },
    {
      "channel": 0,
      "note": 79,
      "start": 23.0313,
      "duration": 0.0827,
      "velocity": 103,
      "chip": "ym2612"
    },
    {
      "channel": 2,
      "note": 74,
      "start": 23.032,
      "duration": 0.0822,
      "velocity": 104,
      "chip": "ym2612"
    },
    {
      "channel": 0,
      "note": 78,
      "start": 23.1256,
      "duration": 0.0719,
      "velocity": 103,
      "chip": "ym2612"
    },
    {
      "channel": 2,
      "note": 73,
      "start": 23.1263,
      "duration": 0.0715,
      "velocity": 104,
      "chip": "ym2612"
    },
    {
      "channel": 0,
      "note": 81,
      "start": 23.209,
      "duration": 0.0536,
      "velocity": 103,
      "chip": "ym2612"
    },
    {
      "channel": 1,
      "note": 76,
      "start": 23.2102,
      "duration": 2.1659,
      "velocity": 119,
      "chip": "ym2612"
    },
    {
      "channel": 2,
      "note": 76,
      "start": 23.2109,
      "duration": 0.0685,
      "velocity": 104,
      "chip": "ym2612"
    },
    {
      "channel": 0,
      "note": 81,
      "start": 23.38,
      "duration": 0.0663,
      "velocity": 103,
      "chip": "ym2612"
    },
    {
      "channel": 2,
      "note": 76,
      "start": 23.3807,
      "duration": 0.0659,
      "velocity": 104,
      "chip": "ym2612"
    },
    {
      "channel": 0,
      "note": 81,
      "start": 23.559,
      "duration": 0.0704,
      "velocity": 103,
      "chip": "ym2612"
    },
    {
      "channel": 2,
      "note": 76,
      "start": 23.5598,
      "duration": 0.0701,
      "velocity": 104,
      "chip": "ym2612"
    },
    {
      "channel": 0,
      "note": 81,
      "start": 23.7297,
      "duration": 0.0622,
      "velocity": 103,
      "chip": "ym2612"
    },
    {
      "channel": 2,
      "note": 76,
      "start": 23.7304,
      "duration": 0.0644,
      "velocity": 104,
      "chip": "ym2612"
    },
    {
      "channel": 0,
      "note": 81,
      "start": 23.8963,
      "duration": 0.079,
      "velocity": 103,
      "chip": "ym2612"
    },
    {
      "channel": 2,
      "note": 76,
      "start": 23.897,
      "duration": 0.0644,
      "velocity": 104,
      "chip": "ym2612"
    },
    {
      "channel": 0,
      "note": 81,
      "start": 24.0756,
      "duration": 0.0663,
      "velocity": 103,
      "chip": "ym2612"
    },
    {
      "channel": 2,
      "note": 76,
      "start": 24.0763,
      "duration": 0.0659,
      "velocity": 104,
      "chip": "ym2612"
    },
    {
      "channel": 0,
      "note": 81,
      "start": 24.2478,
      "duration": 0.0837,
      "velocity": 103,
      "chip": "ym2612"
    },
    {
      "channel": 2,
      "note": 76,
      "start": 24.2485,
      "duration": 0.0832,
      "velocity": 104,
      "chip": "ym2612"
    },
    {
      "channel": 0,
      "note": 82,
      "start": 24.3323,
      "duration": 0.0814,
      "velocity": 103,
      "chip": "ym2612"
    },
    {
      "channel": 2,
      "note": 77,
      "start": 24.3329,
      "duration": 0.081,
      "velocity": 104,
      "chip": "ym2612"
    },
    {
      "channel": 0,
      "note": 84,
      "start": 24.4256,
      "duration": 0.0715,
      "velocity": 103,
      "chip": "ym2612"
    },
    {
      "channel": 2,
      "note": 79,
      "start": 24.4263,
      "duration": 0.0711,
      "velocity": 104,
      "chip": "ym2612"
    },
    {
      "channel": 0,
      "note": 86,
      "start": 24.5092,
      "duration": 0.0827,
      "velocity": 103,
      "chip": "ym2612"
    },
    {
      "channel": 2,
      "note": 81,
      "start": 24.5099,
      "duration": 0.0823,
      "velocity": 104,
      "chip": "ym2612"
    },
    {
      "channel": 0,
      "note": 81,
      "start": 24.5976,
      "duration": 0.0662,
      "velocity": 103,
      "chip": "ym2612"
    },
    {
      "channel": 2,
      "note": 76,
      "start": 24.5983,
      "duration": 0.0604,
      "velocity": 104,
      "chip": "ym2612"
    },
    {
      "channel": 0,
      "note": 81,
      "start": 24.7641,
      "duration": 0.0654,
      "velocity": 103,
      "chip": "ym2612"
    },
    {
      "channel": 2,
      "note": 76,
      "start": 24.7648,
      "duration": 0.0649,
      "velocity": 104,
      "chip": "ym2612"
    },
    {
      "channel": 0,
      "note": 81,
      "start": 24.9422,
      "duration": 0.0663,
      "velocity": 103,
      "chip": "ym2612"
    },
    {
      "channel": 2,
      "note": 76,
      "start": 24.9431,
      "duration": 0.0657,
      "velocity": 104,
      "chip": "ym2612"
    },
    {
      "channel": 0,
      "note": 81,
      "start": 25.1144,
      "duration": 0.0663,
      "velocity": 103,
      "chip": "ym2612"
    },
    {
      "channel": 2,
      "note": 76,
      "start": 25.1151,
      "duration": 0.0488,
      "velocity": 104,
      "chip": "ym2612"
    },
    {
      "channel": 0,
      "note": 81,
      "start": 25.2923,
      "duration": 0.0715,
      "velocity": 103,
      "chip": "ym2612"
    },
    {
      "channel": 2,
      "note": 76,
      "start": 25.293,
      "duration": 0.071,
      "velocity": 104,
      "chip": "ym2612"
    },
    {
      "channel": 0,
      "note": 80,
      "start": 25.3759,
      "duration": 0.0719,
      "velocity": 103,
      "chip": "ym2612"
    },
    {
      "channel": 2,
      "note": 75,
      "start": 25.3766,
      "duration": 0.0713,
      "velocity": 104,
      "chip": "ym2612"
    },
    {
      "channel": 0,
      "note": 79,
      "start": 25.4589,
      "duration": 0.083,
      "velocity": 103,
      "chip": "ym2612"
    },
    {
      "channel": 2,
      "note": 74,
      "start": 25.4596,
      "duration": 0.072,
      "velocity": 104,
      "chip": "ym2612"
    },
    {
      "channel": 0,
      "note": 78,
      "start": 25.5475,
      "duration": 0.0778,
      "velocity": 103,
      "chip": "ym2612"
    },
    {
      "channel": 2,
      "note": 73,
      "start": 25.5482,
      "duration": 0.0772,
      "velocity": 104,
      "chip": "ym2612"
    },
    {
      "channel": 0,
      "note": 81,
      "start": 25.63,
      "duration": 0.062,
      "velocity": 103,
      "chip": "ym2612"
    },
    {
      "channel": 1,
      "note": 76,
      "start": 25.6313,
      "duration": 2.1107,
      "velocity": 119,
      "chip": "ym2612"
    },
    {
      "channel": 2,
      "note": 76,
      "start": 25.6319,
      "duration": 0.0812,
      "velocity": 104,
      "chip": "ym2612"
    },
    {
      "channel": 0,
      "note": 81,
      "start": 25.809,
      "duration": 0.0663,
      "velocity": 103,
      "chip": "ym2612"
    },
    {
      "channel": 2,
      "note": 76,
      "start": 25.8096,
      "duration": 0.07,
      "velocity": 104,
      "chip": "ym2612"
    },
    {
      "channel": 0,
      "note": 81,
      "start": 25.98,
      "duration": 0.0667,
      "velocity": 103,
      "chip": "ym2612"
    },
    {
      "channel": 2,
      "note": 76,
      "start": 25.9807,
      "duration": 0.0822,
      "velocity": 104,
      "chip": "ym2612"
    },
    {
      "channel": 0,
      "note": 81,
      "start": 26.1467,
      "duration": 0.0659,
      "velocity": 103,
      "chip": "ym2612"
    },
    {
      "channel": 2,
      "note": 76,
      "start": 26.1474,
      "duration": 0.0654,
      "velocity": 104,
      "chip": "ym2612"
    },
    {
      "channel": 0,
      "note": 81,
      "start": 26.3256,
      "duration": 0.07,
      "velocity": 103,
      "chip": "ym2612"
    },
    {
      "channel": 2,
      "note": 76,
      "start": 26.3265,
      "duration": 0.0656,
      "velocity": 104,
      "chip": "ym2612"
    },
    {
      "channel": 0,
      "note": 81,
      "start": 26.4949,
      "duration": 0.0673,
      "velocity": 103,
      "chip": "ym2612"
    },
    {
      "channel": 2,
      "note": 76,
      "start": 26.4956,
      "duration": 0.0798,
      "velocity": 104,
      "chip": "ym2612"
    },
    {
      "channel": 0,
      "note": 81,
      "start": 26.6756,
      "duration": 0.0728,
      "velocity": 103,
      "chip": "ym2612"
    },
    {
      "channel": 2,
      "note": 76,
      "start": 26.6763,
      "duration": 0.0725,
      "velocity": 104,
      "chip": "ym2612"
    },
    {
      "channel": 0,
      "note": 82,
      "start": 26.7589,
      "duration": 0.083,
      "velocity": 103,
      "chip": "ym2612"
    },
    {
      "channel": 2,
      "note": 77,
      "start": 26.7596,
      "duration": 0.0828,
      "velocity": 104,
      "chip": "ym2612"
    },
    {
      "channel": 0,
      "note": 84,
      "start": 26.8469,
      "duration": 0.0783,
      "velocity": 103,
      "chip": "ym2612"
    },
    {
      "channel": 2,
      "note": 79,
      "start": 26.8476,
      "duration": 0.0779,
      "velocity": 104,
      "chip": "ym2612"
    },
    {
      "channel": 0,
      "note": 86,
      "start": 26.9299,
      "duration": 0.0849,
      "velocity": 103,
      "chip": "ym2612"
    },
    {
      "channel": 2,
      "note": 81,
      "start": 26.9306,
      "duration": 0.0844,
      "velocity": 104,
      "chip": "ym2612"
    },
    {
      "channel": 0,
      "note": 81,
      "start": 27.0156,
      "duration": 0.0805,
      "velocity": 103,
      "chip": "ym2612"
    },
    {
      "channel": 2,
      "note": 76,
      "start": 27.0163,
      "duration": 0.08,
      "velocity": 104,
      "chip": "ym2612"
    },
    {
      "channel": 0,
      "note": 81,
      "start": 27.1923,
      "duration": 0.0663,
      "velocity": 103,
      "chip": "ym2612"
    },
    {
      "channel": 2,
      "note": 76,
      "start": 27.1929,
      "duration": 0.0659,
      "velocity": 104,
      "chip": "ym2612"
    },
    {
      "channel": 0,
      "note": 81,
      "start": 27.3651,
      "duration": 0.0663,
      "velocity": 103,
      "chip": "ym2612"
    },
    {
      "channel": 2,
      "note": 76,
      "start": 27.3657,
      "duration": 0.066,
      "velocity": 104,
      "chip": "ym2612"
    },
    {
      "channel": 0,
      "note": 81,
      "start": 27.5423,
      "duration": 0.0562,
      "velocity": 103,
      "chip": "ym2612"
    },
    {
      "channel": 2,
      "note": 76,
      "start": 27.5429,
      "duration": 0.0553,
      "velocity": 104,
      "chip": "ym2612"
    },
    {
      "channel": 0,
      "note": 81,
      "start": 27.7134,
      "duration": 0.0785,
      "velocity": 103,
      "chip": "ym2612"
    },
    {
      "channel": 2,
      "note": 76,
      "start": 27.7143,
      "duration": 0.0778,
      "velocity": 104,
      "chip": "ym2612"
    },
    {
      "channel": 0,
      "note": 80,
      "start": 27.7986,
      "duration": 0.0809,
      "velocity": 103,
      "chip": "ym2612"
    },
    {
      "channel": 2,
      "note": 75,
      "start": 27.7993,
      "duration": 0.0803,
      "velocity": 104,
      "chip": "ym2612"
    },
    {
      "channel": 0,
      "note": 79,
      "start": 27.8803,
      "duration": 0.0783,
      "velocity": 103,
      "chip": "ym2612"
    },
    {
      "channel": 2,
      "note": 74,
      "start": 27.881,
      "duration": 0.0672,
      "velocity": 104,
      "chip": "ym2612"
    },
    {
      "channel": 0,
      "note": 78,
      "start": 27.9759,
      "duration": 0.0705,
      "velocity": 103,
      "chip": "ym2612"
    },
    {
      "channel": 2,
      "note": 73,
      "start": 27.9766,
      "duration": 0.07,
      "velocity": 104,
      "chip": "ym2612"
    },
    {
      "channel": 0,
      "note": 81,
      "start": 28.059,
      "duration": 0.054,
      "velocity": 103,
      "chip": "ym2612"
    },
    {
      "channel": 1,
      "note": 76,
      "start": 28.0602,
      "duration": 1.7151,
      "velocity": 119,
      "chip": "ym2612"
    },
    {
      "channel": 2,
      "note": 76,
      "start": 28.0609,
      "duration": 0.0812,
      "velocity": 104,
      "chip": "ym2612"
    },
    {
      "channel": 0,
      "note": 81,
      "start": 28.2297,
      "duration": 0.0663,
      "velocity": 103,
      "chip": "ym2612"
    },
    {
      "channel": 2,
      "note": 76,
      "start": 28.2304,
      "duration": 0.0659,
      "velocity": 104,
      "chip": "ym2612"
    },
    {
      "channel": 0,
      "note": 81,
      "start": 28.409,
      "duration": 0.0663,
      "velocity": 103,
      "chip": "ym2612"
    },
    {
      "channel": 2,
      "note": 76,
      "start": 28.4096,
      "duration": 0.0522,
      "velocity": 104,
      "chip": "ym2612"
    },
    {
      "channel": 0,
      "note": 81,
      "start": 28.5796,
      "duration": 0.0623,
      "velocity": 103,
      "chip": "ym2612"
    },
    {
      "channel": 2,
      "note": 76,
      "start": 28.5803,
      "duration": 0.0622,
      "velocity": 104,
      "chip": "ym2612"
    },
    {
      "channel": 0,
      "note": 81,
      "start": 28.7459,
      "duration": 0.0793,
      "velocity": 103,
      "chip": "ym2612"
    },
    {
      "channel": 2,
      "note": 76,
      "start": 28.7466,
      "duration": 0.0658,
      "velocity": 104,
      "chip": "ym2612"
    },
    {
      "channel": 0,
      "note": 81,
      "start": 28.9256,
      "duration": 0.0663,
      "velocity": 103,
      "chip": "ym2612"
    },
    {
      "channel": 2,
      "note": 76,
      "start": 28.9263,
      "duration": 0.0556,
      "velocity": 104,
      "chip": "ym2612"
    },
    {
      "channel": 0,
      "note": 81,
      "start": 29.0965,
      "duration": 0.0788,
      "velocity": 103,
      "chip": "ym2612"
    },
    {
      "channel": 2,
      "note": 76,
      "start": 29.0973,
      "duration": 0.0784,
      "velocity": 104,
      "chip": "ym2612"
    },
    {
      "channel": 0,
      "note": 82,
      "start": 29.1822,
      "duration": 0.0805,
      "velocity": 103,
      "chip": "ym2612"
    },
    {
      "channel": 2,
      "note": 77,
      "start": 29.1829,
      "duration": 0.08,
      "velocity": 104,
      "chip": "ym2612"
    },
    {
      "channel": 0,
      "note": 84,
      "start": 29.2756,
      "duration": 0.0725,
      "velocity": 103,
      "chip": "ym2612"
    },
    {
      "channel": 2,
      "note": 79,
      "start": 29.2763,
      "duration": 0.0721,
      "velocity": 104,
      "chip": "ym2612"
    },
    {
      "channel": 0,
      "note": 86,
      "start": 29.3589,
      "duration": 0.0728,
      "velocity": 103,
      "chip": "ym2612"
    },
    {
      "channel": 2,
      "note": 81,
      "start": 29.3596,
      "duration": 0.0724,
      "velocity": 104,
      "chip": "ym2612"
    },
    {
      "channel": 0,
      "note": 81,
      "start": 29.4426,
      "duration": 0.0827,
      "velocity": 103,
      "chip": "ym2612"
    },
    {
      "channel": 2,
      "note": 76,
      "start": 29.4432,
      "duration": 0.0823,
      "velocity": 104,
      "chip": "ym2612"
    },
    {
      "channel": 0,
      "note": 81,
      "start": 29.6151,
      "duration": 0.0644,
      "velocity": 103,
      "chip": "ym2612"
    },
    {
      "channel": 2,
      "note": 76,
      "start": 29.6158,
      "duration": 0.0763,
      "velocity": 104,
      "chip": "ym2612"
    },
    {
      "channel": 0,
      "note": 81,
      "start": 29.7922,
      "duration": 0.0663,
      "velocity": 103,
      "chip": "ym2612"
    },
    {
      "channel": 2,
      "note": 76,
      "start": 29.7929,
      "duration": 0.0659,
      "velocity": 104,
      "chip": "ym2612"
    },
    {
      "channel": 0,
      "note": 81,
      "start": 29.9651,
      "duration": 0.0639,
      "velocity": 103,
      "chip": "ym2612"
    },
    {
      "channel": 1,
      "note": 112,
      "start": 29.9657,
      "duration": 0.0929,
      "velocity": 119,
      "chip": "ym2612"
    },
    {
      "channel": 2,
      "note": 76,
      "start": 29.9663,
      "duration": 0.0628,
      "velocity": 104,
      "chip": "ym2612"
    },
    {
      "channel": 0,
      "note": 81,
      "start": 30.1285,
      "duration": 0.0837,
      "velocity": 103,
      "chip": "ym2612"
    },
    {
      "channel": 1,
      "note": 105,
      "start": 30.1292,
      "duration": 0.0665,
      "velocity": 119,
      "chip": "ym2612"
    },
    {
      "channel": 2,
      "note": 76,
      "start": 30.1298,
      "duration": 0.0826,
      "velocity": 104,
      "chip": "ym2612"
    },
    {
      "channel": 0,
      "note": 80,
      "start": 30.2256,
      "duration": 0.0693,
      "velocity": 103,
      "chip": "ym2612"
    },
    {
      "channel": 2,
      "note": 75,
      "start": 30.2263,
      "duration": 0.0689,
      "velocity": 104,
      "chip": "ym2612"
    },
    {
      "channel": 0,
      "note": 79,
      "start": 30.3092,
      "duration": 0.0827,
      "velocity": 103,
      "chip": "ym2612"
    },
    {
      "channel": 1,
      "note": 100,
      "start": 30.3099,
      "duration": 0.0822,
      "velocity": 119,
      "chip": "ym2612"
    },
    {
      "channel": 2,
      "note": 74,
      "start": 30.3105,
      "duration": 0.0817,
      "velocity": 104,
      "chip": "ym2612"
    },
    {
      "channel": 0,
      "note": 78,
      "start": 30.3962,
      "duration": 0.0791,
      "velocity": 103,
      "chip": "ym2612"
    },
    {
      "channel": 2,
      "note": 73,
      "start": 30.3969,
      "duration": 0.0786,
      "velocity": 104,
      "chip": "ym2612"
    },
    {
      "channel": 0,
      "note": 86,
      "start": 30.4812,
      "duration": 0.1637,
      "velocity": 42,
      "chip": "ym2612"
    },
    {
      "channel": 2,
      "note": 50,
      "start": 30.4821,
      "duration": 0.163,
      "velocity": 104,
      "chip": "ym2612"
    },
    {
      "channel": 0,
      "note": 84,
      "start": 30.659,
      "duration": 0.1663,
      "velocity": 42,
      "chip": "ym2612"
    },
    {
      "channel": 2,
      "note": 57,
      "start": 30.6596,
      "duration": 0.1659,
      "velocity": 104,
      "chip": "ym2612"
    },
    {
      "channel": 0,
      "note": 79,
      "start": 30.8309,
      "duration": 0.1508,
      "velocity": 42,
      "chip": "ym2612"
    },
    {
      "channel": 2,
      "note": 52,
      "start": 30.8316,
      "duration": 0.1656,
      "velocity": 104,
      "chip": "ym2612"
    },
    {
      "channel": 0,
      "note": 74,
      "start": 30.9979,
      "duration": 0.1672,
      "velocity": 42,
      "chip": "ym2612"
    },
    {
      "channel": 2,
      "note": 55,
      "start": 30.9985,
      "duration": 0.1668,
      "velocity": 104,
      "chip": "ym2612"
    },
    {
      "channel": 0,
      "note": 76,
      "start": 31.1759,
      "duration": 0.166,
      "velocity": 42,
      "chip": "ym2612"
    },
    {
      "channel": 2,
      "note": 53,
      "start": 31.1765,
      "duration": 0.1488,
      "velocity": 104,
      "chip": "ym2612"
    },
    {
      "channel": 0,
      "note": 74,
      "start": 31.3485,
      "duration": 0.1996,
      "velocity": 42,
      "chip": "ym2612"
    },
    {
      "channel": 2,
      "note": 60,
      "start": 31.3492,
      "duration": 0.165,
      "velocity": 104,
      "chip": "ym2612"
    },
    {
      "channel": 2,
      "note": 57,
      "start": 31.5258,
      "duration": 0.1663,
      "velocity": 104,
      "chip": "ym2612"
    },
    {
      "channel": 0,
      "note": 86,
      "start": 31.6975,
      "duration": 0.1653,
      "velocity": 42,
      "chip": "ym2612"
    },
    {
      "channel": 2,
      "note": 50,
      "start": 31.6981,
      "duration": 0.1648,
      "velocity": 104,
      "chip": "ym2612"
    },
    {
      "channel": 0,
      "note": 84,
      "start": 31.8636,
      "duration": 0.1668,
      "velocity": 42,
      "chip": "ym2612"
    },
    {
      "channel": 0,
      "note": 79,
      "start": 32.0426,
      "duration": 0.166,
      "velocity": 42,
      "chip": "ym2612"
    },
    {
      "channel": 2,
      "note": 50,
      "start": 32.0432,
      "duration": 0.1656,
      "velocity": 104,
      "chip": "ym2612"
    },
    {
      "channel": 0,
      "note": 74,
      "start": 32.2142,
      "duration": 0.161,
      "velocity": 42,
      "chip": "ym2612"
    },
    {
      "channel": 2,
      "note": 57,
      "start": 32.2149,
      "duration": 0.167,
      "velocity": 104,
      "chip": "ym2612"
    },
    {
      "channel": 0,
      "note": 76,
      "start": 32.3923,
      "duration": 0.1561,
      "velocity": 42,
      "chip": "ym2612"
    },
    {
      "channel": 2,
      "note": 52,
      "start": 32.3929,
      "duration": 0.1557,
      "velocity": 104,
      "chip": "ym2612"
    },
    {
      "channel": 0,
      "note": 74,
      "start": 32.5589,
      "duration": 0.1042,
      "velocity": 42,
      "chip": "ym2612"
    },
    {
      "channel": 2,
      "note": 55,
      "start": 32.5596,
      "duration": 0.1546,
      "velocity": 104,
      "chip": "ym2612"
    },
    {
      "channel": 0,
      "note": 86,
      "start": 32.7307,
      "duration": 0.1663,
      "velocity": 42,
      "chip": "ym2612"
    },
    {
      "channel": 2,
      "note": 60,
      "start": 32.7314,
      "duration": 0.1659,
      "velocity": 104,
      "chip": "ym2612"
    },
    {
      "channel": 0,
      "note": 84,
      "start": 32.9092,
      "duration": 0.166,
      "velocity": 42,
      "chip": "ym2612"
    },
    {
      "channel": 1,
      "note": 63,
      "start": 32.9125,
      "duration": 0.0461,
      "velocity": 86,
      "chip": "ym2612"
    },
    {
      "channel": 2,
      "note": 57,
      "start": 32.9131,
      "duration": 0.1623,
      "velocity": 104,
      "chip": "ym2612"
    },
    {
      "channel": 1,
      "note": 61,
      "start": 32.9923,
      "duration": 0.0529,
      "velocity": 86,
      "chip": "ym2612"
    },
    {
      "channel": 0,
      "note": 79,
      "start": 33.0783,
      "duration": 0.1665,
      "velocity": 42,
      "chip": "ym2612"
    },
    {
      "channel": 1,
      "note": 63,
      "start": 33.0789,
      "duration": 0.0666,
      "velocity": 86,
      "chip": "ym2612"
    },
    {
      "channel": 2,
      "note": 52,
      "start": 33.0795,
      "duration": 0.1655,
      "velocity": 104,
      "chip": "ym2612"
    },
    {
      "channel": 1,
      "note": 61,
      "start": 33.1625,
      "duration": 0.0497,
      "velocity": 86,
      "chip": "ym2612"
    },
    {
      "channel": 0,
      "note": 74,
      "start": 33.2456,
      "duration": 0.163,
      "velocity": 42,
      "chip": "ym2612"
    },
    {
      "channel": 1,
      "note": 63,
      "start": 33.2462,
      "duration": 0.7329,
      "velocity": 86,
      "chip": "ym2612"
    },
    {
      "channel": 2,
      "note": 50,
      "start": 33.2468,
      "duration": 0.1659,
      "velocity": 104,
      "chip": "ym2612"
    },
    {
      "channel": 0,
      "note": 76,
      "start": 33.4256,
      "duration": 0.1663,
      "velocity": 42,
      "chip": "ym2612"
    },
    {
      "channel": 2,
      "note": 57,
      "start": 33.4263,
      "duration": 0.1659,
      "velocity": 104,
      "chip": "ym2612"
    },
    {
      "channel": 0,
      "note": 74,
      "start": 33.596,
      "duration": 0.1495,
      "velocity": 42,
      "chip": "ym2612"
    },
    {
      "channel": 2,
      "note": 52,
      "start": 33.5967,
      "duration": 0.1656,
      "velocity": 104,
      "chip": "ym2612"
    },
    {
      "channel": 0,
      "note": 86,
      "start": 33.7759,
      "duration": 0.166,
      "velocity": 42,
      "chip": "ym2612"
    },
    {
      "channel": 2,
      "note": 55,
      "start": 33.7766,
      "duration": 0.1656,
      "velocity": 104,
      "chip": "ym2612"
    },
    {
      "channel": 0,
      "note": 84,
      "start": 33.946,
      "duration": 0.1655,
      "velocity": 42,
      "chip": "ym2612"
    },
    {
      "channel": 2,
      "note": 53,
      "start": 33.9467,
      "duration": 0.1479,
      "velocity": 104,
      "chip": "ym2612"
    },
    {
      "channel": 0,
      "note": 79,
      "start": 34.1122,
      "duration": 0.166,
      "velocity": 42,
      "chip": "ym2612"
    },
    {
      "channel": 2,
      "note": 60,
      "start": 34.1129,
      "duration": 0.1655,
      "velocity": 104,
      "chip": "ym2612"
    },
    {
      "channel": 0,
      "note": 74,
      "start": 34.2922,
      "duration": 0.1497,
      "velocity": 42,
      "chip": "ym2612"
    },
    {
      "channel": 2,
      "note": 57,
      "start": 34.2929,
      "duration": 0.1658,
      "velocity": 104,
      "chip": "ym2612"
    },
    {
      "channel": 0,
      "note": 76,
      "start": 34.4616,
      "duration": 0.1672,
      "velocity": 42,
      "chip": "ym2612"
    },
    {
      "channel": 2,
      "note": 50,
      "start": 34.4622,
      "duration": 0.1668,
      "velocity": 104,
      "chip": "ym2612"
    },
    {
      "channel": 0,
      "note": 74,
      "start": 34.6426,
      "duration": 0.0692,
      "velocity": 42,
      "chip": "ym2612"
    },
    {
      "channel": 0,
      "note": 86,
      "start": 34.8125,
      "duration": 0.1667,
      "velocity": 42,
      "chip": "ym2612"
    },
    {
      "channel": 2,
      "note": 50,
      "start": 34.8132,
      "duration": 0.1661,
      "velocity": 104,
      "chip": "ym2612"
    },
    {
      "channel": 0,
      "note": 84,
      "start": 34.98,
      "duration": 0.1655,
      "velocity": 42,
      "chip": "ym2612"
    },
    {
      "channel": 2,
      "note": 57,
      "start": 34.9807,
      "duration": 0.165,
      "velocity": 104,
      "chip": "ym2612"
    },
    {
      "channel": 0,
      "note": 79,
      "start": 35.1589,
      "duration": 0.1525,
      "velocity": 42,
      "chip": "ym2612"
    },
    {
      "channel": 2,
      "note": 52,
      "start": 35.1596,
      "duration": 0.1658,
      "velocity": 104,
      "chip": "ym2612"
    },
    {
      "channel": 0,
      "note": 74,
      "start": 35.3282,
      "duration": 0.1496,
      "velocity": 42,
      "chip": "ym2612"
    },
    {
      "channel": 2,
      "note": 55,
      "start": 35.3289,
      "duration": 0.1491,
      "velocity": 104,
      "chip": "ym2612"
    },
    {
      "channel": 0,
      "note": 76,
      "start": 35.5093,
      "duration": 0.166,
      "velocity": 42,
      "chip": "ym2612"
    },
    {
      "channel": 2,
      "note": 60,
      "start": 35.5099,
      "duration": 0.1656,
      "velocity": 104,
      "chip": "ym2612"
    },
    {
      "channel": 0,
      "note": 74,
      "start": 35.6784,
      "duration": 0.1011,
      "velocity": 42,
      "chip": "ym2612"
    },
    {
      "channel": 2,
      "note": 57,
      "start": 35.679,
      "duration": 0.163,
      "velocity": 104,
      "chip": "ym2612"
    },
    {
      "channel": 2,
      "note": 52,
      "start": 35.8453,
      "duration": 0.167,
      "velocity": 104,
      "chip": "ym2612"
    },
    {
      "channel": 0,
      "note": 86,
      "start": 36.0256,
      "duration": 0.1663,
      "velocity": 42,
      "chip": "ym2612"
    },
    {
      "channel": 2,
      "note": 50,
      "start": 36.0265,
      "duration": 0.1656,
      "velocity": 104,
      "chip": "ym2612"
    },
    {
      "channel": 0,
      "note": 84,
      "start": 36.196,
      "duration": 0.1636,
      "velocity": 42,
      "chip": "ym2612"
    },
    {
      "channel": 2,
      "note": 57,
      "start": 36.1966,
      "duration": 0.1631,
      "velocity": 104,
      "chip": "ym2612"
    },
    {
      "channel": 0,
      "note": 79,
      "start": 36.3759,
      "duration": 0.1506,
      "velocity": 42,
      "chip": "ym2612"
    },
    {
      "channel": 2,
      "note": 52,
      "start": 36.3765,
      "duration": 0.1502,
      "velocity": 104,
      "chip": "ym2612"
    },
    {
      "channel": 0,
      "note": 74,
      "start": 36.5422,
      "duration": 0.1663,
      "velocity": 42,
      "chip": "ym2612"
    },
    {
      "channel": 2,
      "note": 55,
      "start": 36.5429,
      "duration": 0.1662,
      "velocity": 104,
      "chip": "ym2612"
    },
    {
      "channel": 0,
      "note": 76,
      "start": 36.7104,
      "duration": 0.1658,
      "velocity": 42,
      "chip": "ym2612"
    },
    {
      "channel": 2,
      "note": 53,
      "start": 36.7111,
      "duration": 0.149,
      "velocity": 104,
      "chip": "ym2612"
    },
    {
      "channel": 0,
      "note": 74,
      "start": 36.8922,
      "duration": 0.1673,
      "velocity": 42,
      "chip": "ym2612"
    },
    {
      "channel": 2,
      "note": 60,
      "start": 36.8929,
      "duration": 0.1658,
      "velocity": 104,
      "chip": "ym2612"
    },
    {
      "channel": 1,
      "note": 63,
      "start": 37.0601,
      "duration": 0.0498,
      "velocity": 86,
      "chip": "ym2612"
    },
    {
      "channel": 2,
      "note": 57,
      "start": 37.0607,
      "duration": 0.1656,
      "velocity": 104,
      "chip": "ym2612"
    },
    {
      "channel": 1,
      "note": 61,
      "start": 37.1432,
      "duration": 0.0497,
      "velocity": 86,
      "chip": "ym2612"
    },
    {
      "channel": 0,
      "note": 86,
      "start": 37.227,
      "duration": 0.1679,
      "velocity": 42,
      "chip": "ym2612"
    },
    {
      "channel": 1,
      "note": 63,
      "start": 37.2276,
      "duration": 0.0653,
      "velocity": 86,
      "chip": "ym2612"
    },
    {
      "channel": 2,
      "note": 50,
      "start": 37.2282,
      "duration": 0.167,
      "velocity": 104,
      "chip": "ym2612"
    },
    {
      "channel": 1,
      "note": 61,
      "start": 37.3256,
      "duration": 0.069,
      "velocity": 86,
      "chip": "ym2612"
    },
    {
      "channel": 0,
      "note": 84,
      "start": 37.4089,
      "duration": 0.1663,
      "velocity": 42,
      "chip": "ym2612"
    },
    {
      "channel": 1,
      "note": 63,
      "start": 37.4095,
      "duration": 0.45,
      "velocity": 86,
      "chip": "ym2612"
    },
    {
      "channel": 0,
      "note": 79,
      "start": 37.5796,
      "duration": 0.1466,
      "velocity": 42,
      "chip": "ym2612"
    },
    {
      "channel": 2,
      "note": 50,
      "start": 37.5803,
      "duration": 0.1627,
      "velocity": 104,
      "chip": "ym2612"
    },
    {
      "channel": 0,
      "note": 74,
      "start": 37.7589,
      "duration": 0.134,
      "velocity": 42,
      "chip": "ym2612"
    },
    {
      "channel": 2,
      "note": 57,
      "start": 37.7596,
      "duration": 0.1658,
      "velocity": 104,
      "chip": "ym2612"
    },
    {
      "channel": 0,
      "note": 76,
      "start": 37.9267,
      "duration": 0.1662,
      "velocity": 42,
      "chip": "ym2612"
    },
    {
      "channel": 2,
      "note": 52,
      "start": 37.9273,
      "duration": 0.1657,
      "velocity": 104,
      "chip": "ym2612"
    },
    {
      "channel": 0,
      "note": 74,
      "start": 38.0938,
      "duration": 0.1148,
      "velocity": 42,
      "chip": "ym2612"
    },
    {
      "channel": 2,
      "note": 55,
      "start": 38.0945,
      "duration": 0.1642,
      "velocity": 104,
      "chip": "ym2612"
    },
    {
      "channel": 0,
      "note": 86,
      "start": 38.2756,
      "duration": 0.1663,
      "velocity": 42,
      "chip": "ym2612"
    },
    {
      "channel": 2,
      "note": 60,
      "start": 38.2763,
      "duration": 0.1662,
      "velocity": 104,
      "chip": "ym2612"
    },
    {
      "channel": 0,
      "note": 84,
      "start": 38.4437,
      "duration": 0.1659,
      "velocity": 42,
      "chip": "ym2612"
    },
    {
      "channel": 2,
      "note": 57,
      "start": 38.4444,
      "duration": 0.1653,
      "velocity": 104,
      "chip": "ym2612"
    },
    {
      "channel": 0,
      "note": 79,
      "start": 38.6256,
      "duration": 0.1663,
      "velocity": 42,
      "chip": "ym2612"
    },
    {
      "channel": 2,
      "note": 52,
      "start": 38.6263,
      "duration": 0.1659,
      "velocity": 104,
      "chip": "ym2612"
    },
    {
      "channel": 0,
      "note": 74,
      "start": 38.7934,
      "duration": 0.1495,
      "velocity": 42,
      "chip": "ym2612"
    },
    {
      "channel": 2,
      "note": 50,
      "start": 38.7943,
      "duration": 0.1654,
      "velocity": 104,
      "chip": "ym2612"
    },
    {
      "channel": 0,
      "note": 76,
      "start": 38.9604,
      "duration": 0.1649,
      "velocity": 42,
      "chip": "ym2612"
    },
    {
      "channel": 2,
      "note": 57,
      "start": 38.9611,
      "duration": 0.1653,
      "velocity": 104,
      "chip": "ym2612"
    },
    {
      "channel": 0,
      "note": 74,
      "start": 39.1422,
      "duration": 0.1173,
      "velocity": 42,
      "chip": "ym2612"
    },
    {
      "channel": 2,
      "note": 52,
      "start": 39.1429,
      "duration": 0.1658,
      "velocity": 104,
      "chip": "ym2612"
    },
    {
      "channel": 0,
      "note": 86,
      "start": 39.3104,
      "duration": 0.1659,
      "velocity": 42,
      "chip": "ym2612"
    },
    {
      "channel": 2,
      "note": 55,
      "start": 39.311,
      "duration": 0.1654,
      "velocity": 104,
      "chip": "ym2612"
    },
    {
      "channel": 0,
      "note": 84,
      "start": 39.4923,
      "duration": 0.1663,
      "velocity": 42,
      "chip": "ym2612"
    },
    {
      "channel": 2,
      "note": 53,
      "start": 39.4929,
      "duration": 0.1491,
      "velocity": 104,
      "chip": "ym2612"
    },
    {
      "channel": 0,
      "note": 79,
      "start": 39.66,
      "duration": 0.1653,
      "velocity": 42,
      "chip": "ym2612"
    },
    {
      "channel": 2,
      "note": 60,
      "start": 39.6606,
      "duration": 0.1648,
      "velocity": 104,
      "chip": "ym2612"
    },
    {
      "channel": 0,
      "note": 74,
      "start": 39.8267,
      "duration": 0.1678,
      "velocity": 42,
      "chip": "ym2612"
    },
    {
      "channel": 2,
      "note": 57,
      "start": 39.8274,
      "duration": 0.1673,
      "velocity": 104,
      "chip": "ym2612"
    },
    {
      "channel": 0,
      "note": 76,
      "start": 40.009,
      "duration": 0.1496,
      "velocity": 42,
      "chip": "ym2612"
    },
    {
      "channel": 2,
      "note": 50,
      "start": 40.0096,
      "duration": 0.1658,
      "velocity": 104,
      "chip": "ym2612"
    },
    {
      "channel": 0,
      "note": 74,
      "start": 40.1796,
      "duration": 0.079,
      "velocity": 42,
      "chip": "ym2612"
    },
    {
      "channel": 0,
      "note": 86,
      "start": 40.359,
      "duration": 0.1529,
      "velocity": 42,
      "chip": "ym2612"
    },
    {
      "channel": 2,
      "note": 50,
      "start": 40.3596,
      "duration": 0.1525,
      "velocity": 104,
      "chip": "ym2612"
    },
    {
      "channel": 0,
      "note": 84,
      "start": 40.5256,
      "duration": 0.1663,
      "velocity": 42,
      "chip": "ym2612"
    },
    {
      "channel": 2,
      "note": 57,
      "start": 40.5263,
      "duration": 0.1659,
      "velocity": 104,
      "chip": "ym2612"
    },
    {
      "channel": 0,
      "note": 79,
      "start": 40.696,
      "duration": 0.1662,
      "velocity": 42,
      "chip": "ym2612"
    },
    {
      "channel": 2,
      "note": 52,
      "start": 40.6966,
      "duration": 0.1658,
      "velocity": 104,
      "chip": "ym2612"
    },
    {
      "channel": 0,
      "note": 74,
      "start": 40.8756,
      "duration": 0.1663,
      "velocity": 42,
      "chip": "ym2612"
    },
    {
      "channel": 2,
      "note": 55,
      "start": 40.8763,
      "duration": 0.1491,
      "velocity": 104,
      "chip": "ym2612"
    },
    {
      "channel": 0,
      "note": 76,
      "start": 41.0452,
      "duration": 0.1313,
      "velocity": 42,
      "chip": "ym2612"
    },
    {
      "channel": 2,
      "note": 60,
      "start": 41.0459,
      "duration": 0.1637,
      "velocity": 104,
      "chip": "ym2612"
    },
    {
      "channel": 0,
      "note": 74,
      "start": 41.2104,
      "duration": 0.2162,
      "velocity": 42,
      "chip": "ym2612"
    },
    {
      "channel": 1,
      "note": 63,
      "start": 41.211,
      "duration": 0.049,
      "velocity": 86,
      "chip": "ym2612"
    },
    {
      "channel": 2,
      "note": 57,
      "start": 41.2116,
      "duration": 0.1655,
      "velocity": 104,
      "chip": "ym2612"
    },
    {
      "channel": 1,
      "note": 61,
      "start": 41.3093,
      "duration": 0.0673,
      "velocity": 86,
      "chip": "ym2612"
    },
    {
      "channel": 1,
      "note": 63,
      "start": 41.3924,
      "duration": 0.0509,
      "velocity": 86,
      "chip": "ym2612"
    },
    {
      "channel": 2,
      "note": 52,
      "start": 41.3929,
      "duration": 0.1658,
      "velocity": 104,
      "chip": "ym2612"
    },
    {
      "channel": 1,
      "note": 61,
      "start": 41.4766,
      "duration": 0.0663,
      "velocity": 86,
      "chip": "ym2612"
    },
    {
      "channel": 0,
      "note": 86,
      "start": 41.56,
      "duration": 0.1662,
      "velocity": 42,
      "chip": "ym2612"
    },
    {
      "channel": 1,
      "note": 63,
      "start": 41.5605,
      "duration": 0.4148,
      "velocity": 86,
      "chip": "ym2612"
    },
    {
      "channel": 2,
      "note": 50,
      "start": 41.5611,
      "duration": 0.1653,
      "velocity": 104,
      "chip": "ym2612"
    },
    {
      "channel": 0,
      "note": 84,
      "start": 41.7423,
      "duration": 0.1663,
      "velocity": 42,
      "chip": "ym2612"
    },
    {
      "channel": 2,
      "note": 57,
      "start": 41.7429,
      "duration": 0.1662,
      "velocity": 104,
      "chip": "ym2612"
    },
    {
      "channel": 0,
      "note": 79,
      "start": 41.9104,
      "duration": 0.1491,
      "velocity": 42,
      "chip": "ym2612"
    },
    {
      "channel": 2,
      "note": 52,
      "start": 41.9111,
      "duration": 0.1652,
      "velocity": 104,
      "chip": "ym2612"
    },
    {
      "channel": 0,
      "note": 74,
      "start": 42.077,
      "duration": 0.1666,
      "velocity": 42,
      "chip": "ym2612"
    },
    {
      "channel": 2,
      "note": 55,
      "start": 42.0776,
      "duration": 0.1662,
      "velocity": 104,
      "chip": "ym2612"
    },
    {
      "channel": 0,
      "note": 76,
      "start": 42.2589,
      "duration": 0.1497,
      "velocity": 42,
      "chip": "ym2612"
    },
    {
      "channel": 2,
      "note": 53,
      "start": 42.2596,
      "duration": 0.1492,
      "velocity": 104,
      "chip": "ym2612"
    },
    {
      "channel": 0,
      "note": 74,
      "start": 42.4265,
      "duration": 0.1654,
      "velocity": 42,
      "chip": "ym2612"
    },
    {
      "channel": 2,
      "note": 60,
      "start": 42.4272,
      "duration": 0.1659,
      "velocity": 104,
      "chip": "ym2612"
    },
    {
      "channel": 0,
      "note": 86,
      "start": 42.609,
      "duration": 0.1663,
      "velocity": 42,
      "chip": "ym2612"
    },
    {
      "channel": 2,
      "note": 57,
      "start": 42.6096,
      "duration": 0.1662,
      "velocity": 104,
      "chip": "ym2612"
    },
    {
      "channel": 0,
      "note": 84,
      "start": 42.777,
      "duration": 0.1649,
      "velocity": 42,
      "chip": "ym2612"
    },
    {
      "channel": 2,
      "note": 50,
      "start": 42.7777,
      "duration": 0.1644,
      "velocity": 104,
      "chip": "ym2612"
    },
    {
      "channel": 0,
      "note": 79,
      "start": 42.9434,
      "duration": 0.1665,
      "velocity": 42,
      "chip": "ym2612"
    },
    {
      "channel": 0,
      "note": 74,
      "start": 43.1256,
      "duration": 0.1522,
      "velocity": 42,
      "chip": "ym2612"
    },
    {
      "channel": 2,
      "note": 50,
      "start": 43.1263,
      "duration": 0.1658,
      "velocity": 104,
      "chip": "ym2612"
    },
    {
      "channel": 0,
      "note": 76,
      "start": 43.2959,
      "duration": 0.1498,
      "velocity": 42,
      "chip": "ym2612"
    },
    {
      "channel": 2,
      "note": 57,
      "start": 43.2966,
      "duration": 0.1656,
      "velocity": 104,
      "chip": "ym2612"
    },
    {
      "channel": 0,
      "note": 74,
      "start": 43.4756,
      "duration": 0.1699,
      "velocity": 42,
      "chip": "ym2612"
    },
    {
      "channel": 2,
      "note": 52,
      "start": 43.4763,
      "duration": 0.1521,
      "velocity": 104,
      "chip": "ym2612"
    },
    {
      "channel": 2,
      "note": 55,
      "start": 43.6427,
      "duration": 0.152,
      "velocity": 104,
      "chip": "ym2612"
    },
    {
      "channel": 0,
      "note": 86,
      "start": 43.8115,
      "duration": 0.165,
      "velocity": 42,
      "chip": "ym2612"
    },
    {
      "channel": 2,
      "note": 60,
      "start": 43.8122,
      "duration": 0.1646,
      "velocity": 104,
      "chip": "ym2612"
    },
    {
      "channel": 0,
      "note": 84,
      "start": 43.9922,
      "duration": 0.1663,
      "velocity": 42,
      "chip": "ym2612"
    },
    {
      "channel": 2,
      "note": 57,
      "start": 43.9929,
      "duration": 0.1659,
      "velocity": 104,
      "chip": "ym2612"
    },
    {
      "channel": 0,
      "note": 79,
      "start": 44.1601,
      "duration": 0.1661,
      "velocity": 42,
      "chip": "ym2612"
    },
    {
      "channel": 2,
      "note": 52,
      "start": 44.1607,
      "duration": 0.1656,
      "velocity": 104,
      "chip": "ym2612"
    },
    {
      "channel": 0,
      "note": 74,
      "start": 44.327,
      "duration": 0.1482,
      "velocity": 42,
      "chip": "ym2612"
    },
    {
      "channel": 2,
      "note": 50,
      "start": 44.3279,
      "duration": 0.1654,
      "velocity": 104,
      "chip": "ym2612"
    },
    {
      "channel": 0,
      "note": 76,
      "start": 44.5092,
      "duration": 0.166,
      "velocity": 42,
      "chip": "ym2612"
    },
    {
      "channel": 2,
      "note": 57,
      "start": 44.5099,
      "duration": 0.1655,
      "velocity": 104,
      "chip": "ym2612"
    },
    {
      "channel": 0,
      "note": 74,
      "start": 44.6768,
      "duration": 0.1331,
      "velocity": 42,
      "chip": "ym2612"
    },
    {
      "channel": 2,
      "note": 52,
      "start": 44.6774,
      "duration": 0.1659,
      "velocity": 104,
      "chip": "ym2612"
    },
    {
      "channel": 0,
      "note": 86,
      "start": 44.859,
      "duration": 0.1663,
      "velocity": 42,
      "chip": "ym2612"
    },
    {
      "channel": 2,
      "note": 55,
      "start": 44.8596,
      "duration": 0.1659,
      "velocity": 104,
      "chip": "ym2612"
    },
    {
      "channel": 0,
      "note": 84,
      "start": 45.0267,
      "duration": 0.1662,
      "velocity": 42,
      "chip": "ym2612"
    },
    {
      "channel": 2,
      "note": 53,
      "start": 45.0274,
      "duration": 0.1492,
      "velocity": 104,
      "chip": "ym2612"
    },
    {
      "channel": 0,
      "note": 79,
      "start": 45.1936,
      "duration": 0.1679,
      "velocity": 42,
      "chip": "ym2612"
    },
    {
      "channel": 2,
      "note": 60,
      "start": 45.1943,
      "duration": 0.1674,
      "velocity": 104,
      "chip": "ym2612"
    },
    {
      "channel": 0,
      "note": 74,
      "start": 45.3759,
      "duration": 0.1494,
      "velocity": 42,
      "chip": "ym2612"
    },
    {
      "channel": 1,
      "note": 63,
      "start": 45.3765,
      "duration": 0.0488,
      "velocity": 86,
      "chip": "ym2612"
    },
    {
      "channel": 2,
      "note": 57,
      "start": 45.3771,
      "duration": 0.1649,
      "velocity": 104,
      "chip": "ym2612"
    },
    {
      "channel": 1,
      "note": 61,
      "start": 45.4616,
      "duration": 0.0638,
      "velocity": 86,
      "chip": "ym2612"
    },
    {
      "channel": 0,
      "note": 76,
      "start": 45.5459,
      "duration": 0.1655,
      "velocity": 42,
      "chip": "ym2612"
    },
    {
      "channel": 1,
      "note": 63,
      "start": 45.5465,
      "duration": 0.0621,
      "velocity": 86,
      "chip": "ym2612"
    },
    {
      "channel": 2,
      "note": 50,
      "start": 45.5471,
      "duration": 0.1646,
      "velocity": 104,
      "chip": "ym2612"
    },
    {
      "channel": 1,
      "note": 61,
      "start": 45.6286,
      "duration": 0.0506,
      "velocity": 86,
      "chip": "ym2612"
    },
    {
      "channel": 0,
      "note": 74,
      "start": 45.7256,
      "duration": 0.0996,
      "velocity": 42,
      "chip": "ym2612"
    },
    {
      "channel": 1,
      "note": 63,
      "start": 45.7262,
      "duration": 0.4017,
      "velocity": 86,
      "chip": "ym2612"
    },
    {
      "channel": 0,
      "note": 86,
      "start": 45.8949,
      "duration": 0.1673,
      "velocity": 42,
      "chip": "ym2612"
    },
    {
      "channel": 2,
      "note": 50,
      "start": 45.8955,
      "duration": 0.1669,
      "velocity": 104,
      "chip": "ym2612"
    },
    {
      "channel": 0,
      "note": 84,
      "start": 46.063,
      "duration": 0.1658,
      "velocity": 42,
      "chip": "ym2612"
    },
    {
      "channel": 2,
      "note": 57,
      "start": 46.0637,
      "duration": 0.1653,
      "velocity": 104,
      "chip": "ym2612"
    },
    {
      "channel": 0,
      "note": 79,
      "start": 46.2426,
      "duration": 0.166,
      "velocity": 42,
      "chip": "ym2612"
    },
    {
      "channel": 2,
      "note": 52,
      "start": 46.2432,
      "duration": 0.1656,
      "velocity": 104,
      "chip": "ym2612"
    },
    {
      "channel": 0,
      "note": 74,
      "start": 46.4117,
      "duration": 0.1674,
      "velocity": 42,
      "chip": "ym2612"
    },
    {
      "channel": 2,
      "note": 55,
      "start": 46.4123,
      "duration": 0.1489,
      "velocity": 104,
      "chip": "ym2612"
    },
    {
      "channel": 0,
      "note": 76,
      "start": 46.5923,
      "duration": 0.1663,
      "velocity": 42,
      "chip": "ym2612"
    },
    {
      "channel": 2,
      "note": 60,
      "start": 46.5929,
      "duration": 0.1659,
      "velocity": 104,
      "chip": "ym2612"
    },
    {
      "channel": 0,
      "note": 74,
      "start": 46.76,
      "duration": 0.1162,
      "velocity": 42,
      "chip": "ym2612"
    },
    {
      "channel": 2,
      "note": 57,
      "start": 46.7607,
      "duration": 0.1646,
      "velocity": 104,
      "chip": "ym2612"
    },
    {
      "channel": 0,
      "note": 86,
      "start": 46.9267,
      "duration": 0.1662,
      "velocity": 42,
      "chip": "ym2612"
    },
    {
      "channel": 2,
      "note": 52,
      "start": 46.9273,
      "duration": 0.1657,
      "velocity": 104,
      "chip": "ym2612"
    },
    {
      "channel": 0,
      "note": 84,
      "start": 47.1092,
      "duration": 0.166,
      "velocity": 42,
      "chip": "ym2612"
    },
    {
      "channel": 2,
      "note": 50,
      "start": 47.1101,
      "duration": 0.1653,
      "velocity": 104,
      "chip": "ym2612"
    },
    {
      "channel": 0,
      "note": 79,
      "start": 47.2767,
      "duration": 0.1665,
      "velocity": 42,
      "chip": "ym2612"
    },
    {
      "channel": 2,
      "note": 57,
      "start": 47.2774,
      "duration": 0.166,
      "velocity": 104,
      "chip": "ym2612"
    },
    {
      "channel": 0,
      "note": 74,
      "start": 47.459,
      "duration": 0.151,
      "velocity": 42,
      "chip": "ym2612"
    },
    {
      "channel": 2,
      "note": 52,
      "start": 47.4596,
      "duration": 0.1506,
      "velocity": 104,
      "chip": "ym2612"
    },
    {
      "channel": 0,
      "note": 76,
      "start": 47.6256,
      "duration": 0.1663,
      "velocity": 42,
      "chip": "ym2612"
    },
    {
      "channel": 2,
      "note": 55,
      "start": 47.6263,
      "duration": 0.1659,
      "velocity": 104,
      "chip": "ym2612"
    },
    {
      "channel": 0,
      "note": 74,
      "start": 47.7934,
      "duration": 0.1152,
      "velocity": 42,
      "chip": "ym2612"
    },
    {
      "channel": 2,
      "note": 53,
      "start": 47.794,
      "duration": 0.1494,
      "velocity": 104,
      "chip": "ym2612"
    },
    {
      "channel": 0,
      "note": 86,
      "start": 47.9759,
      "duration": 0.166,
      "velocity": 42,
      "chip": "ym2612"
    },
    {
      "channel": 2,
      "note": 60,
      "start": 47.9766,
      "duration": 0.1655,
      "velocity": 104,
      "chip": "ym2612"
    },
    {
      "channel": 0,
      "note": 84,
      "start": 48.1434,
      "duration": 0.1664,
      "velocity": 42,
      "chip": "ym2612"
    },
    {
      "channel": 2,
      "note": 57,
      "start": 48.1441,
      "duration": 0.1659,
      "velocity": 104,
      "chip": "ym2612"
    },
    {
      "channel": 0,
      "note": 79,
      "start": 48.3108,
      "duration": 0.3478,
      "velocity": 42,
      "chip": "ym2612"
    },
    {
      "channel": 2,
      "note": 50,
      "start": 48.3115,
      "duration": 0.1653,
      "velocity": 104,
      "chip": "ym2612"
    },
    {
      "channel": 0,
      "note": 76,
      "start": 48.6599,
      "duration": 0.1663,
      "velocity": 42,
      "chip": "ym2612"
    },
    {
      "channel": 2,
      "note": 50,
      "start": 48.6606,
      "duration": 0.1658,
      "velocity": 104,
      "chip": "ym2612"
    },
    {
      "channel": 0,
      "note": 74,
      "start": 48.8426,
      "duration": 0.1837,
      "velocity": 42,
      "chip": "ym2612"
    },
    {
      "channel": 2,
      "note": 57,
      "start": 48.8432,
      "duration": 0.1655,
      "velocity": 104,
      "chip": "ym2612"
    },
    {
      "channel": 2,
      "note": 52,
      "start": 49.0101,
      "duration": 0.1665,
      "velocity": 104,
      "chip": "ym2612"
    },
    {
      "channel": 0,
      "note": 86,
      "start": 49.1773,
      "duration": 0.1676,
      "velocity": 42,
      "chip": "ym2612"
    },
    {
      "channel": 2,
      "note": 55,
      "start": 49.1779,
      "duration": 0.1641,
      "velocity": 104,
      "chip": "ym2612"
    },
    {
      "channel": 0,
      "note": 84,
      "start": 49.3589,
      "duration": 0.1663,
      "velocity": 42,
      "chip": "ym2612"
    },
    {
      "channel": 2,
      "note": 60,
      "start": 49.3596,
      "duration": 0.1659,
      "velocity": 104,
      "chip": "ym2612"
    },
    {
      "channel": 0,
      "note": 79,
      "start": 49.5293,
      "duration": 0.1626,
      "velocity": 42,
      "chip": "ym2612"
    },
    {
      "channel": 1,
      "note": 63,
      "start": 49.53,
      "duration": 0.0482,
      "velocity": 86,
      "chip": "ym2612"
    },
    {
      "channel": 2,
      "note": 57,
      "start": 49.5305,
      "duration": 0.1643,
      "velocity": 104,
      "chip": "ym2612"
    },
    {
      "channel": 1,
      "note": 61,
      "start": 49.612,
      "duration": 0.0801,
      "velocity": 86,
      "chip": "ym2612"
    },
    {
      "channel": 0,
      "note": 74,
      "start": 49.7092,
      "duration": 0.166,
      "velocity": 42,
      "chip": "ym2612"
    },
    {
      "channel": 1,
      "note": 63,
      "start": 49.7099,
      "duration": 0.0488,
      "velocity": 86,
      "chip": "ym2612"
    },
    {
      "channel": 2,
      "note": 52,
      "start": 49.7104,
      "duration": 0.1651,
      "velocity": 104,
      "chip": "ym2612"
    },
    {
      "channel": 1,
      "note": 61,
      "start": 49.7923,
      "duration": 0.0832,
      "velocity": 86,
      "chip": "ym2612"
    },
    {
      "channel": 0,
      "note": 76,
      "start": 49.8784,
      "duration": 0.1674,
      "velocity": 42,
      "chip": "ym2612"
    },
    {
      "channel": 1,
      "note": 63,
      "start": 49.8791,
      "duration": 0.3962,
      "velocity": 86,
      "chip": "ym2612"
    },
    {
      "channel": 2,
      "note": 50,
      "start": 49.8796,
      "duration": 0.1663,
      "velocity": 104,
      "chip": "ym2612"
    },
    {
      "channel": 0,
      "note": 74,
      "start": 50.0466,
      "duration": 0.1982,
      "velocity": 42,
      "chip": "ym2612"
    },
    {
      "channel": 2,
      "note": 57,
      "start": 50.0473,
      "duration": 0.1649,
      "velocity": 104,
      "chip": "ym2612"
    },
    {
      "channel": 2,
      "note": 52,
      "start": 50.2257,
      "duration": 0.1663,
      "velocity": 104,
      "chip": "ym2612"
    },
    {
      "channel": 0,
      "note": 86,
      "start": 50.395,
      "duration": 0.1672,
      "velocity": 42,
      "chip": "ym2612"
    },
    {
      "channel": 2,
      "note": 55,
      "start": 50.3956,
      "duration": 0.1668,
      "velocity": 104,
      "chip": "ym2612"
    },
    {
      "channel": 0,
      "note": 84,
      "start": 50.5759,
      "duration": 0.166,
      "velocity": 42,
      "chip": "ym2612"
    },
    {
      "channel": 2,
      "note": 53,
      "start": 50.5766,
      "duration": 0.1488,
      "velocity": 104,
      "chip": "ym2612"
    },
    {
      "channel": 0,
      "note": 79,
      "start": 50.7459,
      "duration": 0.1627,
      "velocity": 42,
      "chip": "ym2612"
    },
    {
      "channel": 2,
      "note": 60,
      "start": 50.7466,
      "duration": 0.1625,
      "velocity": 104,
      "chip": "ym2612"
    },
    {
      "channel": 0,
      "note": 74,
      "start": 50.912,
      "duration": 0.1496,
      "velocity": 42,
      "chip": "ym2612"
    },
    {
      "channel": 2,
      "note": 57,
      "start": 50.9127,
      "duration": 0.1653,
      "velocity": 104,
      "chip": "ym2612"
    },
    {
      "channel": 0,
      "note": 76,
      "start": 51.0922,
      "duration": 0.1663,
      "velocity": 42,
      "chip": "ym2612"
    },
    {
      "channel": 2,
      "note": 50,
      "start": 51.0929,
      "duration": 0.1659,
      "velocity": 104,
      "chip": "ym2612"
    },
    {
      "channel": 0,
      "note": 87,
      "start": 51.2627,
      "duration": 0.1651,
      "velocity": 42,
      "chip": "ym2612"
    },
    {
      "channel": 2,
      "note": 51,
      "start": 51.2635,
      "duration": 0.1646,
      "velocity": 104,
      "chip": "ym2612"
    },
    {
      "channel": 0,
      "note": 85,
      "start": 51.4426,
      "duration": 0.1523,
      "velocity": 42,
      "chip": "ym2612"
    },
    {
      "channel": 2,
      "note": 58,
      "start": 51.4432,
      "duration": 0.1518,
      "velocity": 104,
      "chip": "ym2612"
    },
    {
      "channel": 0,
      "note": 80,
      "start": 51.6089,
      "duration": 0.1532,
      "velocity": 42,
      "chip": "ym2612"
    },
    {
      "channel": 2,
      "note": 53,
      "start": 51.6096,
      "duration": 0.1658,
      "velocity": 104,
      "chip": "ym2612"
    },
    {
      "channel": 0,
      "note": 75,
      "start": 51.7795,
      "duration": 0.1659,
      "velocity": 42,
      "chip": "ym2612"
    },
    {
      "channel": 2,
      "note": 56,
      "start": 51.7802,
      "duration": 0.1655,
      "velocity": 104,
      "chip": "ym2612"
    },
    {
      "channel": 0,
      "note": 77,
      "start": 51.9589,
      "duration": 0.1663,
      "velocity": 42,
      "chip": "ym2612"
    },
    {
      "channel": 2,
      "note": 54,
      "start": 51.9596,
      "duration": 0.1491,
      "velocity": 104,
      "chip": "ym2612"
    },
    {
      "channel": 0,
      "note": 75,
      "start": 52.1283,
      "duration": 0.1672,
      "velocity": 42,
      "chip": "ym2612"
    },
    {
      "channel": 2,
      "note": 61,
      "start": 52.1289,
      "duration": 0.1668,
      "velocity": 104,
      "chip": "ym2612"
    },
    {
      "channel": 2,
      "note": 58,
      "start": 52.2965,
      "duration": 0.1661,
      "velocity": 104,
      "chip": "ym2612"
    },
    {
      "channel": 0,
      "note": 87,
      "start": 52.4756,
      "duration": 0.1663,
      "velocity": 42,
      "chip": "ym2612"
    },
    {
      "channel": 2,
      "note": 51,
      "start": 52.4763,
      "duration": 0.1662,
      "velocity": 104,
      "chip": "ym2612"
    },
    {
      "channel": 0,
      "note": 85,
      "start": 52.6453,
      "duration": 0.1659,
      "velocity": 42,
      "chip": "ym2612"
    },
    {
      "channel": 0,
      "note": 80,
      "start": 52.8256,
      "duration": 0.1663,
      "velocity": 42,
      "chip": "ym2612"
    },
    {
      "channel": 2,
      "note": 51,
      "start": 52.8263,
      "duration": 0.1659,
      "velocity": 104,
      "chip": "ym2612"
    },
    {
      "channel": 0,
      "note": 75,
      "start": 52.996,
      "duration": 0.1626,
      "velocity": 42,
      "chip": "ym2612"
    },
    {
      "channel": 2,
      "note": 58,
      "start": 52.9967,
      "duration": 0.1647,
      "velocity": 104,
      "chip": "ym2612"
    },
    {
      "channel": 0,
      "note": 77,
      "start": 53.162,
      "duration": 0.1662,
      "velocity": 42,
      "chip": "ym2612"
    },
    {
      "channel": 2,
      "note": 53,
      "start": 53.1627,
      "duration": 0.1657,
      "velocity": 104,
      "chip": "ym2612"
    },
    {
      "channel": 0,
      "note": 75,
      "start": 53.3423,
      "duration": 0.1025,
      "velocity": 42,
      "chip": "ym2612"
    },
    {
      "channel": 2,
      "note": 56,
      "start": 53.3429,
      "duration": 0.1491,
      "velocity": 104,
      "chip": "ym2612"
    },
    {
      "channel": 0,
      "note": 87,
      "start": 53.5128,
      "duration": 0.166,
      "velocity": 42,
      "chip": "ym2612"
    },
    {
      "channel": 2,
      "note": 61,
      "start": 53.5134,
      "duration": 0.1656,
      "velocity": 104,
      "chip": "ym2612"
    },
    {
      "channel": 0,
      "note": 85,
      "start": 53.6923,
      "duration": 0.1663,
      "velocity": 42,
      "chip": "ym2612"
    },
    {
      "channel": 1,
      "note": 63,
      "start": 53.6929,
      "duration": 0.0491,
      "velocity": 86,
      "chip": "ym2612"
    },
    {
      "channel": 2,
      "note": 58,
      "start": 53.6934,
      "duration": 0.1654,
      "velocity": 104,
      "chip": "ym2612"
    },
    {
      "channel": 1,
      "note": 61,
      "start": 53.7759,
      "duration": 0.052,
      "velocity": 86,
      "chip": "ym2612"
    },
    {
      "channel": 0,
      "note": 80,
      "start": 53.8617,
      "duration": 0.1636,
      "velocity": 42,
      "chip": "ym2612"
    },
    {
      "channel": 1,
      "note": 63,
      "start": 53.8623,
      "duration": 0.063,
      "velocity": 86,
      "chip": "ym2612"
    },
    {
      "channel": 2,
      "note": 53,
      "start": 53.8629,
      "duration": 0.1625,
      "velocity": 104,
      "chip": "ym2612"
    },
    {
      "channel": 1,
      "note": 61,
      "start": 53.9459,
      "duration": 0.0487,
      "velocity": 86,
      "chip": "ym2612"
    },
    {
      "channel": 0,
      "note": 75,
      "start": 54.0293,
      "duration": 0.1501,
      "velocity": 42,
      "chip": "ym2612"
    },
    {
      "channel": 1,
      "note": 63,
      "start": 54.03,
      "duration": 0.7313,
      "velocity": 86,
      "chip": "ym2612"
    },
    {
      "channel": 2,
      "note": 51,
      "start": 54.0305,
      "duration": 0.1651,
      "velocity": 104,
      "chip": "ym2612"
    },
    {
      "channel": 0,
      "note": 77,
      "start": 54.2089,
      "duration": 0.1663,
      "velocity": 42,
      "chip": "ym2612"
    },
    {
      "channel": 2,
      "note": 58,
      "start": 54.2096,
      "duration": 0.1662,
      "velocity": 104,
      "chip": "ym2612"
    },
    {
      "channel": 0,
      "note": 75,
      "start": 54.3787,
      "duration": 0.1491,
      "velocity": 42,
      "chip": "ym2612"
    },
    {
      "channel": 2,
      "note": 53,
      "start": 54.3793,
      "duration": 0.1653,
      "velocity": 104,
      "chip": "ym2612"
    },
    {
      "channel": 0,
      "note": 87,
      "start": 54.559,
      "duration": 0.1538,
      "velocity": 42,
      "chip": "ym2612"
    },
    {
      "channel": 2,
      "note": 56,
      "start": 54.5596,
      "duration": 0.1534,
      "velocity": 104,
      "chip": "ym2612"
    },
    {
      "channel": 0,
      "note": 85,
      "start": 54.7256,
      "duration": 0.1663,
      "velocity": 42,
      "chip": "ym2612"
    },
    {
      "channel": 2,
      "note": 54,
      "start": 54.7263,
      "duration": 0.1527,
      "velocity": 104,
      "chip": "ym2612"
    },
    {
      "channel": 0,
      "note": 80,
      "start": 54.8949,
      "duration": 0.1662,
      "velocity": 42,
      "chip": "ym2612"
    },
    {
      "channel": 2,
      "note": 61,
      "start": 54.8956,
      "duration": 0.1658,
      "velocity": 104,
      "chip": "ym2612"
    },
    {
      "channel": 0,
      "note": 75,
      "start": 55.0756,
      "duration": 0.1497,
      "velocity": 42,
      "chip": "ym2612"
    },
    {
      "channel": 2,
      "note": 58,
      "start": 55.0763,
      "duration": 0.1658,
      "velocity": 104,
      "chip": "ym2612"
    },
    {
      "channel": 0,
      "note": 77,
      "start": 55.2462,
      "duration": 0.166,
      "velocity": 42,
      "chip": "ym2612"
    },
    {
      "channel": 2,
      "note": 51,
      "start": 55.2468,
      "duration": 0.1655,
      "velocity": 104,
      "chip": "ym2612"
    },
    {
      "channel": 0,
      "note": 75,
      "start": 55.413,
      "duration": 0.0825,
      "velocity": 42,
      "chip": "ym2612"
    },
    {
      "channel": 0,
      "note": 87,
      "start": 55.5923,
      "duration": 0.1663,
      "velocity": 42,
      "chip": "ym2612"
    },
    {
      "channel": 2,
      "note": 51,
      "start": 55.5929,
      "duration": 0.1659,
      "velocity": 104,
      "chip": "ym2612"
    },
    {
      "channel": 0,
      "note": 85,
      "start": 55.7627,
      "duration": 0.1662,
      "velocity": 42,
      "chip": "ym2612"
    },
    {
      "channel": 2,
      "note": 58,
      "start": 55.7634,
      "duration": 0.1656,
      "velocity": 104,
      "chip": "ym2612"
    },
    {
      "channel": 0,
      "note": 80,
      "start": 55.9422,
      "duration": 0.1522,
      "velocity": 42,
      "chip": "ym2612"
    },
    {
      "channel": 2,
      "note": 53,
      "start": 55.9429,
      "duration": 0.1658,
      "velocity": 104,
      "chip": "ym2612"
    },
    {
      "channel": 0,
      "note": 75,
      "start": 56.1119,
      "duration": 0.1493,
      "velocity": 42,
      "chip": "ym2612"
    },
    {
      "channel": 2,
      "note": 56,
      "start": 56.1125,
      "duration": 0.1489,
      "velocity": 104,
      "chip": "ym2612"
    },
    {
      "channel": 0,
      "note": 77,
      "start": 56.2785,
      "duration": 0.1676,
      "velocity": 42,
      "chip": "ym2612"
    },
    {
      "channel": 2,
      "note": 61,
      "start": 56.2791,
      "duration": 0.1672,
      "velocity": 104,
      "chip": "ym2612"
    },
    {
      "channel": 0,
      "note": 75,
      "start": 56.4589,
      "duration": 0.1032,
      "velocity": 42,
      "chip": "ym2612"
    },
    {
      "channel": 2,
      "note": 58,
      "start": 56.4596,
      "duration": 0.1658,
      "velocity": 104,
      "chip": "ym2612"
    },
    {
      "channel": 2,
      "note": 53,
      "start": 56.6284,
      "duration": 0.1662,
      "velocity": 104,
      "chip": "ym2612"
    },
    {
      "channel": 0,
      "note": 87,
      "start": 56.809,
      "duration": 0.1663,
      "velocity": 42,
      "chip": "ym2612"
    },
    {
      "channel": 2,
      "note": 51,
      "start": 56.8098,
      "duration": 0.166,
      "velocity": 104,
      "chip": "ym2612"
    },
    {
      "channel": 0,
      "note": 85,
      "start": 56.9796,
      "duration": 0.1632,
      "velocity": 42,
      "chip": "ym2612"
    },
    {
      "channel": 2,
      "note": 58,
      "start": 56.9803,
      "duration": 0.1629,
      "velocity": 104,
      "chip": "ym2612"
    },
    {
      "channel": 0,
      "note": 80,
      "start": 57.1438,
      "duration": 0.166,
      "velocity": 42,
      "chip": "ym2612"
    },
    {
      "channel": 2,
      "note": 53,
      "start": 57.1445,
      "duration": 0.1656,
      "velocity": 104,
      "chip": "ym2612"
    },
    {
      "channel": 0,
      "note": 75,
      "start": 57.3256,
      "duration": 0.1663,
      "velocity": 42,
      "chip": "ym2612"
    },
    {
      "channel": 2,
      "note": 56,
      "start": 57.3263,
      "duration": 0.1659,
      "velocity": 104,
      "chip": "ym2612"
    },
    {
      "channel": 0,
      "note": 77,
      "start": 57.4934,
      "duration": 0.1661,
      "velocity": 42,
      "chip": "ym2612"
    },
    {
      "channel": 2,
      "note": 54,
      "start": 57.4941,
      "duration": 0.1492,
      "velocity": 104,
      "chip": "ym2612"
    },
    {
      "channel": 0,
      "note": 75,
      "start": 57.6756,
      "duration": 0.1663,
      "velocity": 42,
      "chip": "ym2612"
    },
    {
      "channel": 2,
      "note": 61,
      "start": 57.6763,
      "duration": 0.1662,
      "velocity": 104,
      "chip": "ym2612"
    },
    {
      "channel": 1,
      "note": 63,
      "start": 57.8438,
      "duration": 0.0492,
      "velocity": 86,
      "chip": "ym2612"
    },
    {
      "channel": 2,
      "note": 58,
      "start": 57.8444,
      "duration": 0.1643,
      "velocity": 104,
      "chip": "ym2612"
    },
    {
      "channel": 1,
      "note": 61,
      "start": 57.9266,
      "duration": 0.05,
      "velocity": 86,
      "chip": "ym2612"
    },
    {
      "channel": 0,
      "note": 87,
      "start": 58.01,
      "duration": 0.1683,
      "velocity": 42,
      "chip": "ym2612"
    },
    {
      "channel": 1,
      "note": 63,
      "start": 58.0106,
      "duration": 0.0647,
      "velocity": 86,
      "chip": "ym2612"
    },
    {
      "channel": 2,
      "note": 51,
      "start": 58.0112,
      "duration": 0.1672,
      "velocity": 104,
      "chip": "ym2612"
    },
    {
      "channel": 1,
      "note": 61,
      "start": 58.1093,
      "duration": 0.066,
      "velocity": 86,
      "chip": "ym2612"
    },
    {
      "channel": 0,
      "note": 85,
      "start": 58.1922,
      "duration": 0.1663,
      "velocity": 42,
      "chip": "ym2612"
    },
    {
      "channel": 1,
      "note": 63,
      "start": 58.1929,
      "duration": 0.4504,
      "velocity": 86,
      "chip": "ym2612"
    },
    {
      "channel": 0,
      "note": 80,
      "start": 58.3627,
      "duration": 0.1472,
      "velocity": 42,
      "chip": "ym2612"
    },
    {
      "channel": 2,
      "note": 51,
      "start": 58.3634,
      "duration": 0.163,
      "velocity": 104,
      "chip": "ym2612"
    },
    {
      "channel": 0,
      "note": 75,
      "start": 58.5423,
      "duration": 0.133,
      "velocity": 42,
      "chip": "ym2612"
    },
    {
      "channel": 2,
      "note": 58,
      "start": 58.5429,
      "duration": 0.1504,
      "velocity": 104,
      "chip": "ym2612"
    },
    {
      "channel": 0,
      "note": 77,
      "start": 58.7092,
      "duration": 0.166,
      "velocity": 42,
      "chip": "ym2612"
    },
    {
      "channel": 2,
      "note": 53,
      "start": 58.7099,
      "duration": 0.1656,
      "velocity": 104,
      "chip": "ym2612"
    },
    {
      "channel": 0,
      "note": 75,
      "start": 58.8768,
      "duration": 0.1151,
      "velocity": 42,
      "chip": "ym2612"
    },
    {
      "channel": 2,
      "note": 56,
      "start": 58.8775,
      "duration": 0.1492,
      "velocity": 104,
      "chip": "ym2612"
    },
    {
      "channel": 0,
      "note": 87,
      "start": 59.059,
      "duration": 0.1663,
      "velocity": 42,
      "chip": "ym2612"
    },
    {
      "channel": 2,
      "note": 61,
      "start": 59.0596,
      "duration": 0.1659,
      "velocity": 104,
      "chip": "ym2612"
    },
    {
      "channel": 0,
      "note": 85,
      "start": 59.2267,
      "duration": 0.1662,
      "velocity": 42,
      "chip": "ym2612"
    },
    {
      "channel": 2,
      "note": 58,
      "start": 59.2274,
      "duration": 0.1656,
      "velocity": 104,
      "chip": "ym2612"
    },
    {
      "channel": 0,
      "note": 80,
      "start": 59.3937,
      "duration": 0.1662,
      "velocity": 42,
      "chip": "ym2612"
    },
    {
      "channel": 2,
      "note": 53,
      "start": 59.3943,
      "duration": 0.1658,
      "velocity": 104,
      "chip": "ym2612"
    },
    {
      "channel": 0,
      "note": 75,
      "start": 59.5759,
      "duration": 0.1503,
      "velocity": 42,
      "chip": "ym2612"
    },
    {
      "channel": 2,
      "note": 51,
      "start": 59.5768,
      "duration": 0.1653,
      "velocity": 104,
      "chip": "ym2612"
    },
    {
      "channel": 0,
      "note": 77,
      "start": 59.7434,
      "duration": 0.1652,
      "velocity": 42,
      "chip": "ym2612"
    },
    {
      "channel": 2,
      "note": 58,
      "start": 59.744,
      "duration": 0.166,
      "velocity": 104,
      "chip": "ym2612"
    },
    {
      "channel": 0,
      "note": 75,
      "start": 59.9256,
      "duration": 0.1176,
      "velocity": 42,
      "chip": "ym2612"
    },
    {
      "channel": 2,
      "note": 53,
      "start": 59.9263,
      "duration": 0.1658,
      "velocity": 104,
      "chip": "ym2612"
    },
    {
      "channel": 0,
      "note": 87,
      "start": 60.0934,
      "duration": 0.1662,
      "velocity": 42,
      "chip": "ym2612"
    },
    {
      "channel": 2,
      "note": 56,
      "start": 60.094,
      "duration": 0.1658,
      "velocity": 104,
      "chip": "ym2612"
    },
    {
      "channel": 0,
      "note": 85,
      "start": 60.2604,
      "duration": 0.1661,
      "velocity": 42,
      "chip": "ym2612"
    },
    {
      "channel": 2,
      "note": 54,
      "start": 60.2611,
      "duration": 0.1643,
      "velocity": 104,
      "chip": "ym2612"
    },
    {
      "channel": 0,
      "note": 80,
      "start": 60.4426,
      "duration": 0.166,
      "velocity": 42,
      "chip": "ym2612"
    },
    {
      "channel": 2,
      "note": 61,
      "start": 60.4432,
      "duration": 0.1655,
      "velocity": 104,
      "chip": "ym2612"
    },
    {
      "channel": 0,
      "note": 75,
      "start": 60.61,
      "duration": 0.1681,
      "velocity": 42,
      "chip": "ym2612"
    },
    {
      "channel": 2,
      "note": 58,
      "start": 60.6107,
      "duration": 0.1676,
      "velocity": 104,
      "chip": "ym2612"
    },
    {
      "channel": 0,
      "note": 77,
      "start": 60.7923,
      "duration": 0.1496,
      "velocity": 42,
      "chip": "ym2612"
    },
    {
      "channel": 2,
      "note": 51,
      "start": 60.7929,
      "duration": 0.1658,
      "velocity": 104,
      "chip": "ym2612"
    },
    {
      "channel": 0,
      "note": 75,
      "start": 60.9626,
      "duration": 0.0793,
      "velocity": 42,
      "chip": "ym2612"
    },
    {
      "channel": 0,
      "note": 87,
      "start": 61.1285,
      "duration": 0.166,
      "velocity": 42,
      "chip": "ym2612"
    },
    {
      "channel": 2,
      "note": 51,
      "start": 61.1292,
      "duration": 0.1655,
      "velocity": 104,
      "chip": "ym2612"
    },
    {
      "channel": 0,
      "note": 85,
      "start": 61.3092,
      "duration": 0.166,
      "velocity": 42,
      "chip": "ym2612"
    },
    {
      "channel": 2,
      "note": 58,
      "start": 61.3099,
      "duration": 0.1655,
      "velocity": 104,
      "chip": "ym2612"
    },
    {
      "channel": 0,
      "note": 80,
      "start": 61.4793,
      "duration": 0.1665,
      "velocity": 42,
      "chip": "ym2612"
    },
    {
      "channel": 2,
      "note": 53,
      "start": 61.48,
      "duration": 0.166,
      "velocity": 104,
      "chip": "ym2612"
    },
    {
      "channel": 0,
      "note": 75,
      "start": 61.6589,
      "duration": 0.1663,
      "velocity": 42,
      "chip": "ym2612"
    },
    {
      "channel": 2,
      "note": 56,
      "start": 61.6596,
      "duration": 0.1491,
      "velocity": 104,
      "chip": "ym2612"
    },
    {
      "channel": 0,
      "note": 77,
      "start": 61.8283,
      "duration": 0.1312,
      "velocity": 42,
      "chip": "ym2612"
    },
    {
      "channel": 2,
      "note": 61,
      "start": 61.8289,
      "duration": 0.1631,
      "velocity": 104,
      "chip": "ym2612"
    },
    {
      "channel": 0,
      "note": 75,
      "start": 61.9934,
      "duration": 0.2162,
      "velocity": 42,
      "chip": "ym2612"
    },
    {
      "channel": 1,
      "note": 63,
      "start": 61.9939,
      "duration": 0.0493,
      "velocity": 86,
      "chip": "ym2612"
    },
    {
      "channel": 2,
      "note": 58,
      "start": 61.9946,
      "duration": 0.1651,
      "velocity": 104,
      "chip": "ym2612"
    },
    {
      "channel": 1,
      "note": 61,
      "start": 62.0924,
      "duration": 0.0663,
      "velocity": 86,
      "chip": "ym2612"
    },
    {
      "channel": 1,
      "note": 63,
      "start": 62.1759,
      "duration": 0.0503,
      "velocity": 86,
      "chip": "ym2612"
    },
    {
      "channel": 2,
      "note": 53,
      "start": 62.1765,
      "duration": 0.1655,
      "velocity": 104,
      "chip": "ym2612"
    },
    {
      "channel": 1,
      "note": 61,
      "start": 62.259,
      "duration": 0.0663,
      "velocity": 86,
      "chip": "ym2612"
    },
    {
      "channel": 0,
      "note": 87,
      "start": 62.3433,
      "duration": 0.1666,
      "velocity": 42,
      "chip": "ym2612"
    },
    {
      "channel": 1,
      "note": 63,
      "start": 62.3439,
      "duration": 0.4148,
      "velocity": 86,
      "chip": "ym2612"
    },
    {
      "channel": 2,
      "note": 51,
      "start": 62.3445,
      "duration": 0.1656,
      "velocity": 104,
      "chip": "ym2612"
    },
    {
      "channel": 0,
      "note": 85,
      "start": 62.5256,
      "duration": 0.151,
      "velocity": 42,
      "chip": "ym2612"
    },
    {
      "channel": 2,
      "note": 58,
      "start": 62.5263,
      "duration": 0.1505,
      "velocity": 104,
      "chip": "ym2612"
    },
    {
      "channel": 0,
      "note": 80,
      "start": 62.6922,
      "duration": 0.151,
      "velocity": 42,
      "chip": "ym2612"
    },
    {
      "channel": 2,
      "note": 53,
      "start": 62.6929,
      "duration": 0.1658,
      "velocity": 104,
      "chip": "ym2612"
    },
    {
      "channel": 0,
      "note": 75,
      "start": 62.86,
      "duration": 0.1662,
      "velocity": 42,
      "chip": "ym2612"
    },
    {
      "channel": 2,
      "note": 56,
      "start": 62.8606,
      "duration": 0.1658,
      "velocity": 104,
      "chip": "ym2612"
    },
    {
      "channel": 0,
      "note": 77,
      "start": 63.0426,
      "duration": 0.1494,
      "velocity": 42,
      "chip": "ym2612"
    },
    {
      "channel": 2,
      "note": 54,
      "start": 63.0432,
      "duration": 0.1489,
      "velocity": 104,
      "chip": "ym2612"
    },
    {
      "channel": 0,
      "note": 75,
      "start": 63.2099,
      "duration": 0.1654,
      "velocity": 42,
      "chip": "ym2612"
    },
    {
      "channel": 2,
      "note": 61,
      "start": 63.2105,
      "duration": 0.1662,
      "velocity": 104,
      "chip": "ym2612"
    },
    {
      "channel": 0,
      "note": 87,
      "start": 63.3775,
      "duration": 0.1657,
      "velocity": 42,
      "chip": "ym2612"
    },
    {
      "channel": 2,
      "note": 58,
      "start": 63.3781,
      "duration": 0.1653,
      "velocity": 104,
      "chip": "ym2612"
    },
    {
      "channel": 0,
      "note": 85,
      "start": 63.5589,
      "duration": 0.1663,
      "velocity": 42,
      "chip": "ym2612"
    },
    {
      "channel": 2,
      "note": 51,
      "start": 63.5596,
      "duration": 0.1659,
      "velocity": 104,
      "chip": "ym2612"
    },
    {
      "channel": 0,
      "note": 80,
      "start": 63.7267,
      "duration": 0.1662,
      "velocity": 42,
      "chip": "ym2612"
    },
    {
      "channel": 0,
      "note": 75,
      "start": 63.9092,
      "duration": 0.152,
      "velocity": 42,
      "chip": "ym2612"
    },
    {
      "channel": 2,
      "note": 51,
      "start": 63.9099,
      "duration": 0.1655,
      "velocity": 104,
      "chip": "ym2612"
    },
    {
      "channel": 0,
      "note": 77,
      "start": 64.0793,
      "duration": 0.1496,
      "velocity": 42,
      "chip": "ym2612"
    },
    {
      "channel": 2,
      "note": 58,
      "start": 64.08,
      "duration": 0.166,
      "velocity": 104,
      "chip": "ym2612"
    },
    {
      "channel": 0,
      "note": 75,
      "start": 64.2466,
      "duration": 0.1818,
      "velocity": 42,
      "chip": "ym2612"
    },
    {
      "channel": 2,
      "note": 53,
      "start": 64.2473,
      "duration": 0.1641,
      "velocity": 104,
      "chip": "ym2612"
    },
    {
      "channel": 2,
      "note": 56,
      "start": 64.4257,
      "duration": 0.1497,
      "velocity": 104,
      "chip": "ym2612"
    },
    {
      "channel": 0,
      "note": 87,
      "start": 64.5949,
      "duration": 0.1647,
      "velocity": 42,
      "chip": "ym2612"
    },
    {
      "channel": 2,
      "note": 61,
      "start": 64.5955,
      "duration": 0.1642,
      "velocity": 104,
      "chip": "ym2612"
    },
    {
      "channel": 0,
      "note": 85,
      "start": 64.7759,
      "duration": 0.166,
      "velocity": 42,
      "chip": "ym2612"
    },
    {
      "channel": 2,
      "note": 58,
      "start": 64.7766,
      "duration": 0.1656,
      "velocity": 104,
      "chip": "ym2612"
    },
    {
      "channel": 0,
      "note": 80,
      "start": 64.9434,
      "duration": 0.1651,
      "velocity": 42,
      "chip": "ym2612"
    },
    {
      "channel": 2,
      "note": 53,
      "start": 64.9441,
      "duration": 0.165,
      "velocity": 104,
      "chip": "ym2612"
    },
    {
      "channel": 0,
      "note": 75,
      "start": 65.1104,
      "duration": 0.1482,
      "velocity": 42,
      "chip": "ym2612"
    },
    {
      "channel": 2,
      "note": 51,
      "start": 65.1112,
      "duration": 0.1651,
      "velocity": 104,
      "chip": "ym2612"
    },
    {
      "channel": 0,
      "note": 77,
      "start": 65.2922,
      "duration": 0.1663,
      "velocity": 42,
      "chip": "ym2612"
    },
    {
      "channel": 2,
      "note": 58,
      "start": 65.2929,
      "duration": 0.1659,
      "velocity": 104,
      "chip": "ym2612"
    },
    {
      "channel": 0,
      "note": 75,
      "start": 65.4601,
      "duration": 0.1331,
      "velocity": 42,
      "chip": "ym2612"
    },
    {
      "channel": 2,
      "note": 53,
      "start": 65.4607,
      "duration": 0.1656,
      "velocity": 104,
      "chip": "ym2612"
    },
    {
      "channel": 0,
      "note": 87,
      "start": 65.6426,
      "duration": 0.1506,
      "velocity": 42,
      "chip": "ym2612"
    },
    {
      "channel": 2,
      "note": 56,
      "start": 65.6432,
      "duration": 0.1502,
      "velocity": 104,
      "chip": "ym2612"
    },
    {
      "channel": 0,
      "note": 85,
      "start": 65.8089,
      "duration": 0.1663,
      "velocity": 42,
      "chip": "ym2612"
    },
    {
      "channel": 2,
      "note": 54,
      "start": 65.8096,
      "duration": 0.1501,
      "velocity": 104,
      "chip": "ym2612"
    },
    {
      "channel": 0,
      "note": 80,
      "start": 65.9769,
      "duration": 0.1676,
      "velocity": 42,
      "chip": "ym2612"
    },
    {
      "channel": 2,
      "note": 61,
      "start": 65.9776,
      "duration": 0.1671,
      "velocity": 104,
      "chip": "ym2612"
    },
    {
      "channel": 0,
      "note": 75,
      "start": 66.1589,
      "duration": 0.1497,
      "velocity": 42,
      "chip": "ym2612"
    },
    {
      "channel": 1,
      "note": 63,
      "start": 66.1595,
      "duration": 0.0491,
      "velocity": 86,
      "chip": "ym2612"
    },
    {
      "channel": 2,
      "note": 58,
      "start": 66.1601,
      "duration": 0.1653,
      "velocity": 104,
      "chip": "ym2612"
    },
    {
      "channel": 1,
      "note": 61,
      "start": 66.2426,
      "duration": 0.0661,
      "velocity": 86,
      "chip": "ym2612"
    },
    {
      "channel": 0,
      "note": 77,
      "start": 66.3293,
      "duration": 0.1653,
      "velocity": 42,
      "chip": "ym2612"
    },
    {
      "channel": 1,
      "note": 63,
      "start": 66.3299,
      "duration": 0.0621,
      "velocity": 86,
      "chip": "ym2612"
    },
    {
      "channel": 2,
      "note": 51,
      "start": 66.3305,
      "duration": 0.1643,
      "velocity": 104,
      "chip": "ym2612"
    },
    {
      "channel": 1,
      "note": 61,
      "start": 66.4116,
      "duration": 0.0506,
      "velocity": 86,
      "chip": "ym2612"
    },
    {
      "channel": 0,
      "note": 75,
      "start": 66.4954,
      "duration": 0.1132,
      "velocity": 42,
      "chip": "ym2612"
    },
    {
      "channel": 1,
      "note": 63,
      "start": 66.496,
      "duration": 0.4155,
      "velocity": 86,
      "chip": "ym2612"
    },
    {
      "channel": 0,
      "note": 87,
      "start": 66.6756,
      "duration": 0.1663,
      "velocity": 42,
      "chip": "ym2612"
    },
    {
      "channel": 2,
      "note": 51,
      "start": 66.6763,
      "duration": 0.1662,
      "velocity": 104,
      "chip": "ym2612"
    },
    {
      "channel": 0,
      "note": 85,
      "start": 66.8463,
      "duration": 0.1659,
      "velocity": 42,
      "chip": "ym2612"
    },
    {
      "channel": 2,
      "note": 58,
      "start": 66.847,
      "duration": 0.1654,
      "velocity": 104,
      "chip": "ym2612"
    },
    {
      "channel": 0,
      "note": 80,
      "start": 67.0256,
      "duration": 0.1663,
      "velocity": 42,
      "chip": "ym2612"
    },
    {
      "channel": 2,
      "note": 53,
      "start": 67.0263,
      "duration": 0.1659,
      "velocity": 104,
      "chip": "ym2612"
    },
    {
      "channel": 0,
      "note": 75,
      "start": 67.195,
      "duration": 0.1671,
      "velocity": 42,
      "chip": "ym2612"
    },
    {
      "channel": 2,
      "note": 56,
      "start": 67.1957,
      "duration": 0.149,
      "velocity": 104,
      "chip": "ym2612"
    },
    {
      "channel": 0,
      "note": 77,
      "start": 67.3629,
      "duration": 0.1637,
      "velocity": 42,
      "chip": "ym2612"
    },
    {
      "channel": 2,
      "note": 61,
      "start": 67.3636,
      "duration": 0.1632,
      "velocity": 104,
      "chip": "ym2612"
    },
    {
      "channel": 0,
      "note": 75,
      "start": 67.5422,
      "duration": 0.1173,
      "velocity": 42,
      "chip": "ym2612"
    },
    {
      "channel": 2,
      "note": 58,
      "start": 67.5429,
      "duration": 0.1658,
      "velocity": 104,
      "chip": "ym2612"
    },
    {
      "channel": 0,
      "note": 87,
      "start": 67.7104,
      "duration": 0.1659,
      "velocity": 42,
      "chip": "ym2612"
    },
    {
      "channel": 2,
      "note": 53,
      "start": 67.711,
      "duration": 0.1654,
      "velocity": 104,
      "chip": "ym2612"
    },
    {
      "channel": 0,
      "note": 85,
      "start": 67.8923,
      "duration": 0.1663,
      "velocity": 42,
      "chip": "ym2612"
    },
    {
      "channel": 2,
      "note": 51,
      "start": 67.8931,
      "duration": 0.1657,
      "velocity": 104,
      "chip": "ym2612"
    },
    {
      "channel": 0,
      "note": 80,
      "start": 68.06,
      "duration": 0.1662,
      "velocity": 42,
      "chip": "ym2612"
    },
    {
      "channel": 2,
      "note": 58,
      "start": 68.0607,
      "duration": 0.1657,
      "velocity": 104,
      "chip": "ym2612"
    },
    {
      "channel": 0,
      "note": 75,
      "start": 68.2271,
      "duration": 0.1658,
      "velocity": 42,
      "chip": "ym2612"
    },
    {
      "channel": 2,
      "note": 53,
      "start": 68.2277,
      "duration": 0.1654,
      "velocity": 104,
      "chip": "ym2612"
    },
    {
      "channel": 0,
      "note": 77,
      "start": 68.4089,
      "duration": 0.1663,
      "velocity": 42,
      "chip": "ym2612"
    },
    {
      "channel": 2,
      "note": 56,
      "start": 68.4096,
      "duration": 0.1662,
      "velocity": 104,
      "chip": "ym2612"
    },
    {
      "channel": 0,
      "note": 75,
      "start": 68.577,
      "duration": 0.1149,
      "velocity": 42,
      "chip": "ym2612"
    },
    {
      "channel": 2,
      "note": 54,
      "start": 68.5777,
      "duration": 0.1487,
      "velocity": 104,
      "chip": "ym2612"
    },
    {
      "channel": 0,
      "note": 87,
      "start": 68.759,
      "duration": 0.1663,
      "velocity": 42,
      "chip": "ym2612"
    },
    {
      "channel": 2,
      "note": 61,
      "start": 68.7596,
      "duration": 0.1659,
      "velocity": 104,
      "chip": "ym2612"
    },
    {
      "channel": 0,
      "note": 85,
      "start": 68.9268,
      "duration": 0.1651,
      "velocity": 42,
      "chip": "ym2612"
    },
    {
      "channel": 2,
      "note": 58,
      "start": 68.9275,
      "duration": 0.1646,
      "velocity": 104,
      "chip": "ym2612"
    },
    {
      "channel": 0,
      "note": 80,
      "start": 69.0934,
      "duration": 0.1661,
      "velocity": 42,
      "chip": "ym2612"
    },
    {
      "channel": 2,
      "note": 51,
      "start": 69.0941,
      "duration": 0.1656,
      "velocity": 104,
      "chip": "ym2612"
    },
    {
      "channel": 0,
      "note": 75,
      "start": 69.2756,
      "duration": 0.1663,
      "velocity": 42,
      "chip": "ym2612"
    },
    {
      "channel": 0,
      "note": 77,
      "start": 69.4436,
      "duration": 0.166,
      "velocity": 42,
      "chip": "ym2612"
    },
    {
      "channel": 2,
      "note": 51,
      "start": 69.4443,
      "duration": 0.1655,
      "velocity": 104,
      "chip": "ym2612"
    },
    {
      "channel": 0,
      "note": 75,
      "start": 69.6256,
      "duration": 0.1839,
      "velocity": 42,
      "chip": "ym2612"
    },
    {
      "channel": 2,
      "note": 58,
      "start": 69.6263,
      "duration": 0.1508,
      "velocity": 104,
      "chip": "ym2612"
    },
    {
      "channel": 2,
      "note": 53,
      "start": 69.7924,
      "duration": 0.1663,
      "velocity": 104,
      "chip": "ym2612"
    },
    {
      "channel": 0,
      "note": 87,
      "start": 69.96,
      "duration": 0.1679,
      "velocity": 42,
      "chip": "ym2612"
    },
    {
      "channel": 2,
      "note": 56,
      "start": 69.9606,
      "duration": 0.1674,
      "velocity": 104,
      "chip": "ym2612"
    },
    {
      "channel": 0,
      "note": 85,
      "start": 70.1422,
      "duration": 0.1663,
      "velocity": 42,
      "chip": "ym2612"
    },
    {
      "channel": 2,
      "note": 61,
      "start": 70.1429,
      "duration": 0.1662,
      "velocity": 104,
      "chip": "ym2612"
    },
    {
      "channel": 0,
      "note": 80,
      "start": 70.313,
      "duration": 0.1623,
      "velocity": 42,
      "chip": "ym2612"
    },
    {
      "channel": 1,
      "note": 63,
      "start": 70.3136,
      "duration": 0.0476,
      "velocity": 86,
      "chip": "ym2612"
    },
    {
      "channel": 2,
      "note": 58,
      "start": 70.3142,
      "duration": 0.164,
      "velocity": 104,
      "chip": "ym2612"
    },
    {
      "channel": 1,
      "note": 61,
      "start": 70.3949,
      "duration": 0.0805,
      "velocity": 86,
      "chip": "ym2612"
    },
    {
      "channel": 0,
      "note": 75,
      "start": 70.4788,
      "duration": 0.1664,
      "velocity": 42,
      "chip": "ym2612"
    },
    {
      "channel": 1,
      "note": 63,
      "start": 70.4795,
      "duration": 0.0488,
      "velocity": 86,
      "chip": "ym2612"
    },
    {
      "channel": 2,
      "note": 53,
      "start": 70.48,
      "duration": 0.1655,
      "velocity": 104,
      "chip": "ym2612"
    },
    {
      "channel": 1,
      "note": 61,
      "start": 70.5759,
      "duration": 0.069,
      "velocity": 86,
      "chip": "ym2612"
    },
    {
      "channel": 0,
      "note": 77,
      "start": 70.6589,
      "duration": 0.1663,
      "velocity": 42,
      "chip": "ym2612"
    },
    {
      "channel": 1,
      "note": 63,
      "start": 70.6595,
      "duration": 0.3991,
      "velocity": 86,
      "chip": "ym2612"
    },
    {
      "channel": 2,
      "note": 51,
      "start": 70.6601,
      "duration": 0.1654,
      "velocity": 104,
      "chip": "ym2612"
    },
    {
      "channel": 0,
      "note": 75,
      "start": 70.8293,
      "duration": 0.1985,
      "velocity": 42,
      "chip": "ym2612"
    },
    {
      "channel": 2,
      "note": 58,
      "start": 70.83,
      "duration": 0.1656,
      "velocity": 104,
      "chip": "ym2612"
    },
    {
      "channel": 2,
      "note": 53,
      "start": 71.0091,
      "duration": 0.1663,
      "velocity": 104,
      "chip": "ym2612"
    },
    {
      "channel": 0,
      "note": 87,
      "start": 71.1786,
      "duration": 0.1669,
      "velocity": 42,
      "chip": "ym2612"
    },
    {
      "channel": 2,
      "note": 56,
      "start": 71.1793,
      "duration": 0.1665,
      "velocity": 104,
      "chip": "ym2612"
    },
    {
      "channel": 0,
      "note": 85,
      "start": 71.3464,
      "duration": 0.1665,
      "velocity": 42,
      "chip": "ym2612"
    },
    {
      "channel": 2,
      "note": 54,
      "start": 71.3471,
      "duration": 0.1616,
      "velocity": 104,
      "chip": "ym2612"
    },
    {
      "channel": 0,
      "note": 80,
      "start": 71.5256,
      "duration": 0.1663,
      "velocity": 42,
      "chip": "ym2612"
    },
    {
      "channel": 2,
      "note": 61,
      "start": 71.5263,
      "duration": 0.1659,
      "velocity": 104,
      "chip": "ym2612"
    },
    {
      "channel": 0,
      "note": 75,
      "start": 71.695,
      "duration": 0.1498,
      "velocity": 42,
      "chip": "ym2612"
    },
    {
      "channel": 2,
      "note": 58,
      "start": 71.6957,
      "duration": 0.1656,
      "velocity": 104,
      "chip": "ym2612"
    },
    {
      "channel": 0,
      "note": 77,
      "start": 71.8756,
      "duration": 0.1663,
      "velocity": 42,
      "chip": "ym2612"
    },
    {
      "channel": 2,
      "note": 51,
      "start": 71.8763,
      "duration": 0.1662,
      "velocity": 104,
      "chip": "ym2612"
    },
    {
      "channel": 0,
      "note": 82,
      "start": 72.0464,
      "duration": 0.1631,
      "velocity": 42,
      "chip": "ym2612"
    },
    {
      "channel": 2,
      "note": 51,
      "start": 72.0475,
      "duration": 0.1122,
      "velocity": 104,
      "chip": "ym2612"
    },
    {
      "channel": 0,
      "note": 77,
      "start": 72.2103,
      "duration": 0.0826,
      "velocity": 42,
      "chip": "ym2612"
    },
    {
      "channel": 2,
      "note": 58,
      "start": 72.3924,
      "duration": 0.1006,
      "velocity": 104,
      "chip": "ym2612"
    },
    {
      "channel": 0,
      "note": 79,
      "start": 72.5599,
      "duration": 0.1663,
      "velocity": 42,
      "chip": "ym2612"
    },
    {
      "channel": 0,
      "note": 75,
      "start": 72.7423,
      "duration": 0.083,
      "velocity": 42,
      "chip": "ym2612"
    },
    {
      "channel": 2,
      "note": 58,
      "start": 72.9103,
      "duration": 0.0997,
      "velocity": 104,
      "chip": "ym2612"
    },
    {
      "channel": 0,
      "note": 82,
      "start": 73.0765,
      "duration": 0.15,
      "velocity": 42,
      "chip": "ym2612"
    },
    {
      "channel": 1,
      "note": 63,
      "start": 73.0772,
      "duration": 0.0491,
      "velocity": 86,
      "chip": "ym2612"
    },
    {
      "channel": 2,
      "note": 51,
      "start": 73.0777,
      "duration": 0.131,
      "velocity": 104,
      "chip": "ym2612"
    },
    {
      "channel": 1,
      "note": 61,
      "start": 73.176,
      "duration": 0.0507,
      "velocity": 86,
      "chip": "ym2612"
    },
    {
      "channel": 0,
      "note": 77,
      "start": 73.2589,
      "duration": 0.0663,
      "velocity": 42,
      "chip": "ym2612"
    },
    {
      "channel": 1,
      "note": 63,
      "start": 73.2595,
      "duration": 0.0334,
      "velocity": 86,
      "chip": "ym2612"
    },
    {
      "channel": 1,
      "note": 61,
      "start": 73.3423,
      "duration": 0.0663,
      "velocity": 86,
      "chip": "ym2612"
    },
    {
      "channel": 0,
      "note": 82,
      "start": 73.4265,
      "duration": 0.2497,
      "velocity": 42,
      "chip": "ym2612"
    },
    {
      "channel": 1,
      "note": 63,
      "start": 73.4272,
      "duration": 0.0658,
      "velocity": 86,
      "chip": "ym2612"
    },
    {
      "channel": 2,
      "note": 58,
      "start": 73.4277,
      "duration": 0.1143,
      "velocity": 104,
      "chip": "ym2612"
    },
    {
      "channel": 0,
      "note": 82,
      "start": 73.7759,
      "duration": 0.166,
      "velocity": 42,
      "chip": "ym2612"
    },
    {
      "channel": 2,
      "note": 51,
      "start": 73.7766,
      "duration": 0.1165,
      "velocity": 104,
      "chip": "ym2612"
    },
    {
      "channel": 0,
      "note": 77,
      "start": 73.9433,
      "duration": 0.082,
      "velocity": 42,
      "chip": "ym2612"
    },
    {
      "channel": 2,
      "note": 58,
      "start": 74.1257,
      "duration": 0.084,
      "velocity": 104,
      "chip": "ym2612"
    },
    {
      "channel": 0,
      "note": 79,
      "start": 74.2932,
      "duration": 0.1663,
      "velocity": 42,
      "chip": "ym2612"
    },
    {
      "channel": 0,
      "note": 75,
      "start": 74.4603,
      "duration": 0.0993,
      "velocity": 42,
      "chip": "ym2612"
    },
    {
      "channel": 2,
      "note": 58,
      "start": 74.6427,
      "duration": 0.117,
      "velocity": 104,
      "chip": "ym2612"
    },
    {
      "channel": 0,
      "note": 82,
      "start": 74.8099,
      "duration": 0.1666,
      "velocity": 42,
      "chip": "ym2612"
    },
    {
      "channel": 1,
      "note": 63,
      "start": 74.8105,
      "duration": 0.0481,
      "velocity": 86,
      "chip": "ym2612"
    },
    {
      "channel": 2,
      "note": 51,
      "start": 74.8111,
      "duration": 0.1143,
      "velocity": 104,
      "chip": "ym2612"
    },
    {
      "channel": 1,
      "note": 61,
      "start": 74.8936,
      "duration": 0.0496,
      "velocity": 86,
      "chip": "ym2612"
    },
    {
      "channel": 0,
      "note": 77,
      "start": 74.9923,
      "duration": 0.0508,
      "velocity": 42,
      "chip": "ym2612"
    },
    {
      "channel": 1,
      "note": 63,
      "start": 74.9929,
      "duration": 0.0334,
      "velocity": 86,
      "chip": "ym2612"
    },
    {
      "channel": 1,
      "note": 61,
      "start": 75.0756,
      "duration": 0.0663,
      "velocity": 86,
      "chip": "ym2612"
    },
    {
      "channel": 0,
      "note": 82,
      "start": 75.1599,
      "duration": 0.133,
      "velocity": 42,
      "chip": "ym2612"
    },
    {
      "channel": 1,
      "note": 63,
      "start": 75.1605,
      "duration": 0.0648,
      "velocity": 86,
      "chip": "ym2612"
    },
    {
      "channel": 2,
      "note": 58,
      "start": 75.1611,
      "duration": 0.1156,
      "velocity": 104,
      "chip": "ym2612"
    },
    {
      "channel": 0,
      "note": 77,
      "start": 75.3268,
      "duration": 0.0817,
      "velocity": 42,
      "chip": "ym2612"
    },
    {
      "channel": 0,
      "note": 82,
      "start": 75.5092,
      "duration": 0.166,
      "velocity": 42,
      "chip": "ym2612"
    },
    {
      "channel": 2,
      "note": 51,
      "start": 75.5099,
      "duration": 0.1321,
      "velocity": 104,
      "chip": "ym2612"
    },
    {
      "channel": 0,
      "note": 77,
      "start": 75.6766,
      "duration": 0.0829,
      "velocity": 42,
      "chip": "ym2612"
    },
    {
      "channel": 2,
      "note": 58,
      "start": 75.8591,
      "duration": 0.1176,
      "velocity": 104,
      "chip": "ym2612"
    },
    {
      "channel": 0,
      "note": 79,
      "start": 76.0265,
      "duration": 0.1654,
      "velocity": 42,
      "chip": "ym2612"
    },
    {
      "channel": 0,
      "note": 75,
      "start": 76.1933,
      "duration": 0.0986,
      "velocity": 42,
      "chip": "ym2612"
    },
    {
      "channel": 2,
      "note": 58,
      "start": 76.376,
      "duration": 0.117,
      "velocity": 104,
      "chip": "ym2612"
    },
    {
      "channel": 0,
      "note": 82,
      "start": 76.5432,
      "duration": 0.1497,
      "velocity": 42,
      "chip": "ym2612"
    },
    {
      "channel": 1,
      "note": 63,
      "start": 76.5438,
      "duration": 0.0648,
      "velocity": 86,
      "chip": "ym2612"
    },
    {
      "channel": 2,
      "note": 51,
      "start": 76.5444,
      "duration": 0.1156,
      "velocity": 104,
      "chip": "ym2612"
    },
    {
      "channel": 1,
      "note": 61,
      "start": 76.6266,
      "duration": 0.0496,
      "velocity": 86,
      "chip": "ym2612"
    },
    {
      "channel": 0,
      "note": 77,
      "start": 76.7256,
      "duration": 0.0513,
      "velocity": 42,
      "chip": "ym2612"
    },
    {
      "channel": 1,
      "note": 63,
      "start": 76.7262,
      "duration": 0.0504,
      "velocity": 86,
      "chip": "ym2612"
    },
    {
      "channel": 1,
      "note": 61,
      "start": 76.809,
      "duration": 0.0663,
      "velocity": 86,
      "chip": "ym2612"
    },
    {
      "channel": 0,
      "note": 82,
      "start": 76.8923,
      "duration": 0.2506,
      "velocity": 42,
      "chip": "ym2612"
    },
    {
      "channel": 1,
      "note": 63,
      "start": 76.8929,
      "duration": 0.05,
      "velocity": 86,
      "chip": "ym2612"
    },
    {
      "channel": 2,
      "note": 58,
      "start": 76.8935,
      "duration": 0.1319,
      "velocity": 104,
      "chip": "ym2612"
    },
    {
      "channel": 0,
      "note": 82,
      "start": 77.2426,
      "duration": 0.166,
      "velocity": 42,
      "chip": "ym2612"
    },
    {
      "channel": 2,
      "note": 51,
      "start": 77.2432,
      "duration": 0.1164,
      "velocity": 104,
      "chip": "ym2612"
    },
    {
      "channel": 0,
      "note": 77,
      "start": 77.41,
      "duration": 0.0665,
      "velocity": 42,
      "chip": "ym2612"
    },
    {
      "channel": 2,
      "note": 58,
      "start": 77.5777,
      "duration": 0.1832,
      "velocity": 104,
      "chip": "ym2612"
    },
    {
      "channel": 0,
      "note": 79,
      "start": 77.7589,
      "duration": 0.1663,
      "velocity": 42,
      "chip": "ym2612"
    },
    {
      "channel": 0,
      "note": 75,
      "start": 77.9266,
      "duration": 0.0986,
      "velocity": 42,
      "chip": "ym2612"
    },
    {
      "channel": 2,
      "note": 58,
      "start": 78.1093,
      "duration": 0.117,
      "velocity": 104,
      "chip": "ym2612"
    },
    {
      "channel": 0,
      "note": 82,
      "start": 78.2765,
      "duration": 0.1667,
      "velocity": 42,
      "chip": "ym2612"
    },
    {
      "channel": 1,
      "note": 63,
      "start": 78.2772,
      "duration": 0.0491,
      "velocity": 86,
      "chip": "ym2612"
    },
    {
      "channel": 2,
      "note": 51,
      "start": 78.2777,
      "duration": 0.1319,
      "velocity": 104,
      "chip": "ym2612"
    },
    {
      "channel": 1,
      "note": 61,
      "start": 78.36,
      "duration": 0.0663,
      "velocity": 86,
      "chip": "ym2612"
    },
    {
      "channel": 0,
      "note": 77,
      "start": 78.4439,
      "duration": 0.0646,
      "velocity": 42,
      "chip": "ym2612"
    },
    {
      "channel": 1,
      "note": 63,
      "start": 78.4445,
      "duration": 0.0642,
      "velocity": 86,
      "chip": "ym2612"
    },
    {
      "channel": 1,
      "note": 61,
      "start": 78.5424,
      "duration": 0.0663,
      "velocity": 86,
      "chip": "ym2612"
    },
    {
      "channel": 0,
      "note": 82,
      "start": 78.6256,
      "duration": 0.1339,
      "velocity": 42,
      "chip": "ym2612"
    },
    {
      "channel": 1,
      "note": 63,
      "start": 78.6262,
      "duration": 0.0658,
      "velocity": 86,
      "chip": "ym2612"
    },
    {
      "channel": 2,
      "note": 58,
      "start": 78.6268,
      "duration": 0.1161,
      "velocity": 104,
      "chip": "ym2612"
    },
    {
      "channel": 0,
      "note": 77,
      "start": 78.7932,
      "duration": 0.0821,
      "velocity": 42,
      "chip": "ym2612"
    },
    {
      "channel": 0,
      "note": 82,
      "start": 78.976,
      "duration": 0.1659,
      "velocity": 42,
      "chip": "ym2612"
    },
    {
      "channel": 2,
      "note": 51,
      "start": 78.9771,
      "duration": 0.1159,
      "velocity": 104,
      "chip": "ym2612"
    },
    {
      "channel": 0,
      "note": 77,
      "start": 79.1433,
      "duration": 0.082,
      "velocity": 42,
      "chip": "ym2612"
    },
    {
      "channel": 2,
      "note": 58,
      "start": 79.3106,
      "duration": 0.1148,
      "velocity": 104,
      "chip": "ym2612"
    },
    {
      "channel": 0,
      "note": 79,
      "start": 79.4922,
      "duration": 0.1663,
      "velocity": 42,
      "chip": "ym2612"
    },
    {
      "channel": 0,
      "note": 75,
      "start": 79.66,
      "duration": 0.0829,
      "velocity": 42,
      "chip": "ym2612"
    },
    {
      "channel": 2,
      "note": 58,
      "start": 79.8427,
      "duration": 0.1003,
      "velocity": 104,
      "chip": "ym2612"
    },
    {
      "channel": 0,
      "note": 82,
      "start": 80.0099,
      "duration": 0.1497,
      "velocity": 42,
      "chip": "ym2612"
    },
    {
      "channel": 1,
      "note": 63,
      "start": 80.0105,
      "duration": 0.0491,
      "velocity": 86,
      "chip": "ym2612"
    },
    {
      "channel": 2,
      "note": 51,
      "start": 80.0111,
      "duration": 0.1153,
      "velocity": 104,
      "chip": "ym2612"
    },
    {
      "channel": 1,
      "note": 61,
      "start": 80.0933,
      "duration": 0.0663,
      "velocity": 86,
      "chip": "ym2612"
    },
    {
      "channel": 0,
      "note": 77,
      "start": 80.1768,
      "duration": 0.0663,
      "velocity": 42,
      "chip": "ym2612"
    },
    {
      "channel": 1,
      "note": 63,
      "start": 80.1774,
      "duration": 0.0488,
      "velocity": 86,
      "chip": "ym2612"
    },
    {
      "channel": 1,
      "note": 61,
      "start": 80.2757,
      "duration": 0.0509,
      "velocity": 86,
      "chip": "ym2612"
    },
    {
      "channel": 0,
      "note": 82,
      "start": 80.359,
      "duration": 0.2496,
      "velocity": 42,
      "chip": "ym2612"
    },
    {
      "channel": 1,
      "note": 63,
      "start": 80.3595,
      "duration": 0.0658,
      "velocity": 86,
      "chip": "ym2612"
    },
    {
      "channel": 2,
      "note": 58,
      "start": 80.3602,
      "duration": 0.0995,
      "velocity": 104,
      "chip": "ym2612"
    },
    {
      "channel": 0,
      "note": 82,
      "start": 80.7093,
      "duration": 0.1506,
      "velocity": 42,
      "chip": "ym2612"
    },
    {
      "channel": 2,
      "note": 51,
      "start": 80.7099,
      "duration": 0.1155,
      "velocity": 104,
      "chip": "ym2612"
    },
    {
      "channel": 0,
      "note": 77,
      "start": 80.8756,
      "duration": 0.0673,
      "velocity": 42,
      "chip": "ym2612"
    },
    {
      "channel": 2,
      "note": 58,
      "start": 81.0436,
      "duration": 0.0984,
      "velocity": 104,
      "chip": "ym2612"
    },
    {
      "channel": 0,
      "note": 79,
      "start": 81.2256,
      "duration": 0.1663,
      "velocity": 42,
      "chip": "ym2612"
    },
    {
      "channel": 0,
      "note": 75,
      "start": 81.3933,
      "duration": 0.0986,
      "velocity": 42,
      "chip": "ym2612"
    },
    {
      "channel": 2,
      "note": 58,
      "start": 81.5603,
      "duration": 0.1317,
      "velocity": 104,
      "chip": "ym2612"
    },
    {
      "channel": 0,
      "note": 82,
      "start": 81.7423,
      "duration": 0.1663,
      "velocity": 42,
      "chip": "ym2612"
    },
    {
      "channel": 1,
      "note": 63,
      "start": 81.7429,
      "duration": 0.0341,
      "velocity": 86,
      "chip": "ym2612"
    },
    {
      "channel": 2,
      "note": 51,
      "start": 81.7434,
      "duration": 0.0999,
      "velocity": 104,
      "chip": "ym2612"
    },
    {
      "channel": 1,
      "note": 61,
      "start": 81.8266,
      "duration": 0.0496,
      "velocity": 86,
      "chip": "ym2612"
    },
    {
      "channel": 0,
      "note": 77,
      "start": 81.9102,
      "duration": 0.065,
      "velocity": 42,
      "chip": "ym2612"
    },
    {
      "channel": 1,
      "note": 63,
      "start": 81.9109,
      "duration": 0.0478,
      "velocity": 86,
      "chip": "ym2612"
    },
    {
      "channel": 1,
      "note": 61,
      "start": 81.9936,
      "duration": 0.066,
      "velocity": 86,
      "chip": "ym2612"
    },
    {
      "channel": 0,
      "note": 82,
      "start": 82.0923,
      "duration": 0.133,
      "velocity": 42,
      "chip": "ym2612"
    },
    {
      "channel": 1,
      "note": 63,
      "start": 82.0929,
      "duration": 0.0658,
      "velocity": 86,
      "chip": "ym2612"
    },
    {
      "channel": 2,
      "note": 58,
      "start": 82.0935,
      "duration": 0.1161,
      "velocity": 104,
      "chip": "ym2612"
    },
    {
      "channel": 0,
      "note": 77,
      "start": 82.2599,
      "duration": 0.0663,
      "velocity": 42,
      "chip": "ym2612"
    },
    {
      "channel": 0,
      "note": 82,
      "start": 82.4268,
      "duration": 0.1663,
      "velocity": 42,
      "chip": "ym2612"
    },
    {
      "channel": 2,
      "note": 51,
      "start": 82.4276,
      "duration": 0.1321,
      "velocity": 104,
      "chip": "ym2612"
    },
    {
      "channel": 0,
      "note": 77,
      "start": 82.6089,
      "duration": 0.083,
      "velocity": 42,
      "chip": "ym2612"
    },
    {
      "channel": 2,
      "note": 58,
      "start": 82.777,
      "duration": 0.1317,
      "velocity": 104,
      "chip": "ym2612"
    },
    {
      "channel": 0,
      "note": 79,
      "start": 82.959,
      "duration": 0.1663,
      "velocity": 42,
      "chip": "ym2612"
    },
    {
      "channel": 0,
      "note": 75,
      "start": 83.1266,
      "duration": 0.0829,
      "velocity": 42,
      "chip": "ym2612"
    },
    {
      "channel": 2,
      "note": 58,
      "start": 83.2936,
      "duration": 0.1317,
      "velocity": 104,
      "chip": "ym2612"
    },
    {
      "channel": 0,
      "note": 82,
      "start": 83.4756,
      "duration": 0.1496,
      "velocity": 42,
      "chip": "ym2612"
    },
    {
      "channel": 1,
      "note": 63,
      "start": 83.4762,
      "duration": 0.05,
      "velocity": 86,
      "chip": "ym2612"
    },
    {
      "channel": 2,
      "note": 51,
      "start": 83.4768,
      "duration": 0.1162,
      "velocity": 104,
      "chip": "ym2612"
    },
    {
      "channel": 1,
      "note": 61,
      "start": 83.56,
      "duration": 0.0496,
      "velocity": 86,
      "chip": "ym2612"
    },
    {
      "channel": 0,
      "note": 77,
      "start": 83.6435,
      "duration": 0.0664,
      "velocity": 42,
      "chip": "ym2612"
    },
    {
      "channel": 1,
      "note": 63,
      "start": 83.6441,
      "duration": 0.0645,
      "velocity": 86,
      "chip": "ym2612"
    },
    {
      "channel": 1,
      "note": 61,
      "start": 83.7266,
      "duration": 0.0663,
      "velocity": 86,
      "chip": "ym2612"
    },
    {
      "channel": 0,
      "note": 82,
      "start": 83.8256,
      "duration": 0.2496,
      "velocity": 42,
      "chip": "ym2612"
    },
    {
      "channel": 1,
      "note": 63,
      "start": 83.8262,
      "duration": 0.0491,
      "velocity": 86,
      "chip": "ym2612"
    },
    {
      "channel": 2,
      "note": 58,
      "start": 83.8268,
      "duration": 0.1161,
      "velocity": 104,
      "chip": "ym2612"
    },
    {
      "channel": 0,
      "note": 82,
      "start": 84.1599,
      "duration": 0.1663,
      "velocity": 42,
      "chip": "ym2612"
    },
    {
      "channel": 2,
      "note": 51,
      "start": 84.1605,
      "duration": 0.1315,
      "velocity": 104,
      "chip": "ym2612"
    },
    {
      "channel": 0,
      "note": 77,
      "start": 84.3423,
      "duration": 0.0673,
      "velocity": 42,
      "chip": "ym2612"
    },
    {
      "channel": 2,
      "note": 58,
      "start": 84.5107,
      "duration": 0.1814,
      "velocity": 104,
      "chip": "ym2612"
    },
    {
      "channel": 0,
      "note": 79,
      "start": 84.6769,
      "duration": 0.1666,
      "velocity": 42,
      "chip": "ym2612"
    },
    {
      "channel": 0,
      "note": 75,
      "start": 84.8589,
      "duration": 0.0997,
      "velocity": 42,
      "chip": "ym2612"
    },
    {
      "channel": 2,
      "note": 58,
      "start": 85.0266,
      "duration": 0.1321,
      "velocity": 104,
      "chip": "ym2612"
    },
    {
      "channel": 0,
      "note": 82,
      "start": 85.209,
      "duration": 0.1663,
      "velocity": 42,
      "chip": "ym2612"
    },
    {
      "channel": 1,
      "note": 63,
      "start": 85.2095,
      "duration": 0.0491,
      "velocity": 86,
      "chip": "ym2612"
    },
    {
      "channel": 2,
      "note": 51,
      "start": 85.2101,
      "duration": 0.1319,
      "velocity": 104,
      "chip": "ym2612"
    },
    {
      "channel": 1,
      "note": 61,
      "start": 85.2923,
      "duration": 0.0663,
      "velocity": 86,
      "chip": "ym2612"
    },
    {
      "channel": 0,
      "note": 77,
      "start": 85.377,
      "duration": 0.065,
      "velocity": 42,
      "chip": "ym2612"
    },
    {
      "channel": 1,
      "note": 63,
      "start": 85.3776,
      "duration": 0.0648,
      "velocity": 86,
      "chip": "ym2612"
    },
    {
      "channel": 1,
      "note": 61,
      "start": 85.4599,
      "duration": 0.0663,
      "velocity": 86,
      "chip": "ym2612"
    },
    {
      "channel": 0,
      "note": 82,
      "start": 85.5435,
      "duration": 0.1484,
      "velocity": 42,
      "chip": "ym2612"
    },
    {
      "channel": 1,
      "note": 63,
      "start": 85.5441,
      "duration": 0.0654,
      "velocity": 86,
      "chip": "ym2612"
    },
    {
      "channel": 2,
      "note": 58,
      "start": 85.5447,
      "duration": 0.1307,
      "velocity": 104,
      "chip": "ym2612"
    },
    {
      "channel": 0,
      "note": 77,
      "start": 85.7256,
      "duration": 0.0673,
      "velocity": 42,
      "chip": "ym2612"
    },
    {
      "channel": 0,
      "note": 84,
      "start": 85.8933,
      "duration": 0.1663,
      "velocity": 42,
      "chip": "ym2612"
    },
    {
      "channel": 2,
      "note": 57,
      "start": 85.8944,
      "duration": 0.1643,
      "velocity": 104,
      "chip": "ym2612"
    },
    {
      "channel": 0,
      "note": 81,
      "start": 86.0756,
      "duration": 0.0839,
      "velocity": 42,
      "chip": "ym2612"
    },
    {
      "channel": 2,
      "note": 65,
      "start": 86.2436,
      "duration": 0.2151,
      "velocity": 104,
      "chip": "ym2612"
    },
    {
      "channel": 0,
      "note": 84,
      "start": 86.4102,
      "duration": 0.1496,
      "velocity": 42,
      "chip": "ym2612"
    },
    {
      "channel": 0,
      "note": 81,
      "start": 86.5923,
      "duration": 0.1163,
      "velocity": 42,
      "chip": "ym2612"
    },
    {
      "channel": 2,
      "note": 65,
      "start": 86.76,
      "duration": 0.1333,
      "velocity": 104,
      "chip": "ym2612"
    },
    {
      "channel": 0,
      "note": 84,
      "start": 86.9423,
      "duration": 0.1663,
      "velocity": 42,
      "chip": "ym2612"
    },
    {
      "channel": 1,
      "note": 63,
      "start": 86.9429,
      "duration": 0.0337,
      "velocity": 86,
      "chip": "ym2612"
    },
    {
      "channel": 2,
      "note": 57,
      "start": 86.9435,
      "duration": 0.1166,
      "velocity": 104,
      "chip": "ym2612"
    },
    {
      "channel": 1,
      "note": 61,
      "start": 87.0256,
      "duration": 0.0663,
      "velocity": 86,
      "chip": "ym2612"
    },
    {
      "channel": 0,
      "note": 81,
      "start": 87.1103,
      "duration": 0.0826,
      "velocity": 42,
      "chip": "ym2612"
    },
    {
      "channel": 1,
      "note": 63,
      "start": 87.1109,
      "duration": 0.0487,
      "velocity": 86,
      "chip": "ym2612"
    },
    {
      "channel": 1,
      "note": 61,
      "start": 87.1934,
      "duration": 0.0665,
      "velocity": 86,
      "chip": "ym2612"
    },
    {
      "channel": 0,
      "note": 84,
      "start": 87.2765,
      "duration": 0.1667,
      "velocity": 42,
      "chip": "ym2612"
    },
    {
      "channel": 1,
      "note": 63,
      "start": 87.2772,
      "duration": 0.0658,
      "velocity": 86,
      "chip": "ym2612"
    },
    {
      "channel": 2,
      "note": 65,
      "start": 87.2777,
      "duration": 0.1989,
      "velocity": 104,
      "chip": "ym2612"
    },
    {
      "channel": 0,
      "note": 81,
      "start": 87.459,
      "duration": 0.0842,
      "velocity": 42,
      "chip": "ym2612"
    },
    {
      "channel": 0,
      "note": 84,
      "start": 87.6265,
      "duration": 0.1663,
      "velocity": 42,
      "chip": "ym2612"
    },
    {
      "channel": 2,
      "note": 56,
      "start": 87.6272,
      "duration": 0.183,
      "velocity": 104,
      "chip": "ym2612"
    },
    {
      "channel": 0,
      "note": 80,
      "start": 87.809,
      "duration": 0.0839,
      "velocity": 42,
      "chip": "ym2612"
    },
    {
      "channel": 2,
      "note": 65,
      "start": 87.976,
      "duration": 0.166,
      "velocity": 104,
      "chip": "ym2612"
    },
    {
      "channel": 0,
      "note": 84,
      "start": 88.1433,
      "duration": 0.1665,
      "velocity": 42,
      "chip": "ym2612"
    },
    {
      "channel": 0,
      "note": 80,
      "start": 88.3256,
      "duration": 0.1006,
      "velocity": 42,
      "chip": "ym2612"
    },
    {
      "channel": 2,
      "note": 65,
      "start": 88.4933,
      "duration": 0.1167,
      "velocity": 104,
      "chip": "ym2612"
    },
    {
      "channel": 0,
      "note": 84,
      "start": 88.6602,
      "duration": 0.1663,
      "velocity": 42,
      "chip": "ym2612"
    },
    {
      "channel": 2,
      "note": 56,
      "start": 88.6611,
      "duration": 0.1828,
      "velocity": 104,
      "chip": "ym2612"
    },
    {
      "channel": 0,
      "note": 80,
      "start": 88.8426,
      "duration": 0.1003,
      "velocity": 42,
      "chip": "ym2612"
    },
    {
      "channel": 0,
      "note": 84,
      "start": 89.0099,
      "duration": 0.1666,
      "velocity": 42,
      "chip": "ym2612"
    },
    {
      "channel": 1,
      "note": 63,
      "start": 89.0105,
      "duration": 0.0491,
      "velocity": 86,
      "chip": "ym2612"
    },
    {
      "channel": 2,
      "note": 65,
      "start": 89.0111,
      "duration": 0.0989,
      "velocity": 104,
      "chip": "ym2612"
    },
    {
      "channel": 1,
      "note": 61,
      "start": 89.0936,
      "duration": 0.066,
      "velocity": 86,
      "chip": "ym2612"
    },
    {
      "channel": 0,
      "note": 80,
      "start": 89.1922,
      "duration": 0.0845,
      "velocity": 42,
      "chip": "ym2612"
    },
    {
      "channel": 1,
      "note": 63,
      "start": 89.1929,
      "duration": 0.0491,
      "velocity": 86,
      "chip": "ym2612"
    },
    {
      "channel": 1,
      "note": 61,
      "start": 89.2756,
      "duration": 0.0663,
      "velocity": 86,
      "chip": "ym2612"
    },
    {
      "channel": 0,
      "note": 55,
      "start": 89.3599,
      "duration": 0.0663,
      "velocity": 42,
      "chip": "ym2612"
    },
    {
      "channel": 2,
      "note": 43,
      "start": 89.3607,
      "duration": 0.1656,
      "velocity": 104,
      "chip": "ym2612"
    },
    {
      "channel": 0,
      "note": 55,
      "start": 89.527,
      "duration": 0.066,
      "velocity": 42,
      "chip": "ym2612"
    },
    {
      "channel": 1,
      "note": 63,
      "start": 89.5276,
      "duration": 0.0644,
      "velocity": 86,
      "chip": "ym2612"
    },
    {
      "channel": 2,
      "note": 50,
      "start": 89.5282,
      "duration": 0.0815,
      "velocity": 104,
      "chip": "ym2612"
    },
    {
      "channel": 0,
      "note": 55,
      "start": 89.7092,
      "duration": 0.066,
      "velocity": 42,
      "chip": "ym2612"
    },
    {
      "channel": 1,
      "note": 63,
      "start": 89.7098,
      "duration": 0.0668,
      "velocity": 86,
      "chip": "ym2612"
    },
    {
      "channel": 2,
      "note": 50,
      "start": 89.7104,
      "duration": 0.0816,
      "velocity": 104,
      "chip": "ym2612"
    },
    {
      "channel": 0,
      "note": 55,
      "start": 89.8765,
      "duration": 0.0497,
      "velocity": 42,
      "chip": "ym2612"
    },
    {
      "channel": 2,
      "note": 50,
      "start": 89.8772,
      "duration": 0.0982,
      "velocity": 104,
      "chip": "ym2612"
    },
    {
      "channel": 0,
      "note": 55,
      "start": 90.0589,
      "duration": 0.0497,
      "velocity": 42,
      "chip": "ym2612"
    },
    {
      "channel": 1,
      "note": 63,
      "start": 90.0595,
      "duration": 0.0658,
      "velocity": 86,
      "chip": "ym2612"
    },
    {
      "channel": 2,
      "note": 50,
      "start": 90.0601,
      "duration": 0.0683,
      "velocity": 104,
      "chip": "ym2612"
    },
    {
      "channel": 0,
      "note": 55,
      "start": 90.2291,
      "duration": 0.0628,
      "velocity": 42,
      "chip": "ym2612"
    },
    {
      "channel": 1,
      "note": 63,
      "start": 90.2298,
      "duration": 0.0789,
      "velocity": 86,
      "chip": "ym2612"
    },
    {
      "channel": 2,
      "note": 50,
      "start": 90.2303,
      "duration": 0.0644,
      "velocity": 104,
      "chip": "ym2612"
    },
    {
      "channel": 0,
      "note": 55,
      "start": 90.3952,
      "duration": 0.05,
      "velocity": 42,
      "chip": "ym2612"
    },
    {
      "channel": 2,
      "note": 50,
      "start": 90.3959,
      "duration": 0.083,
      "velocity": 104,
      "chip": "ym2612"
    },
    {
      "channel": 0,
      "note": 55,
      "start": 90.5759,
      "duration": 0.066,
      "velocity": 42,
      "chip": "ym2612"
    },
    {
      "channel": 1,
      "note": 63,
      "start": 90.5765,
      "duration": 0.0822,
      "velocity": 86,
      "chip": "ym2612"
    },
    {
      "channel": 2,
      "note": 50,
      "start": 90.5771,
      "duration": 0.0817,
      "velocity": 104,
      "chip": "ym2612"
    },
    {
      "channel": 0,
      "note": 55,
      "start": 90.7457,
      "duration": 0.0655,
      "velocity": 42,
      "chip": "ym2612"
    },
    {
      "channel": 2,
      "note": 50,
      "start": 90.7464,
      "duration": 0.0789,
      "velocity": 104,
      "chip": "ym2612"
    },
    {
      "channel": 0,
      "note": 55,
      "start": 90.9256,
      "duration": 0.0529,
      "velocity": 42,
      "chip": "ym2612"
    },
    {
      "channel": 1,
      "note": 63,
      "start": 90.9262,
      "duration": 0.0525,
      "velocity": 86,
      "chip": "ym2612"
    },
    {
      "channel": 2,
      "note": 50,
      "start": 90.9268,
      "duration": 0.0688,
      "velocity": 104,
      "chip": "ym2612"
    },
    {
      "channel": 0,
      "note": 55,
      "start": 91.0949,
      "duration": 0.051,
      "velocity": 42,
      "chip": "ym2612"
    },
    {
      "channel": 1,
      "note": 63,
      "start": 91.0955,
      "duration": 0.0505,
      "velocity": 86,
      "chip": "ym2612"
    },
    {
      "channel": 2,
      "note": 50,
      "start": 91.0961,
      "duration": 0.0627,
      "velocity": 104,
      "chip": "ym2612"
    },
    {
      "channel": 0,
      "note": 55,
      "start": 91.2625,
      "duration": 0.0795,
      "velocity": 42,
      "chip": "ym2612"
    },
    {
      "channel": 1,
      "note": 63,
      "start": 91.2631,
      "duration": 0.0648,
      "velocity": 86,
      "chip": "ym2612"
    },
    {
      "channel": 2,
      "note": 50,
      "start": 91.2637,
      "duration": 0.0976,
      "velocity": 104,
      "chip": "ym2612"
    },
    {
      "channel": 0,
      "note": 55,
      "start": 91.4426,
      "duration": 1.6494,
      "velocity": 42,
      "chip": "ym2612"
    },
    {
      "channel": 2,
      "note": 55,
      "start": 91.4434,
      "duration": 1.2487,
      "velocity": 104,
      "chip": "ym2612"
    },
    {
      "channel": 1,
      "note": 63,
      "start": 91.6116,
      "duration": 0.048,
      "velocity": 86,
      "chip": "ym2612"
    },
    {
      "channel": 1,
      "note": 63,
      "start": 91.7924,
      "duration": 0.0513,
      "velocity": 86,
      "chip": "ym2612"
    },
    {
      "channel": 1,
      "note": 63,
      "start": 92.1282,
      "duration": 0.05,
      "velocity": 86,
      "chip": "ym2612"
    },
    {
      "channel": 1,
      "note": 63,
      "start": 92.3093,
      "duration": 0.0692,
      "velocity": 86,
      "chip": "ym2612"
    },
    {
      "channel": 1,
      "note": 63,
      "start": 92.6464,
      "duration": 0.066,
      "velocity": 86,
      "chip": "ym2612"
    },
    {
      "channel": 2,
      "note": 55,
      "start": 92.8261,
      "duration": 0.0868,
      "velocity": 104,
      "chip": "ym2612"
    },
    {
      "channel": 1,
      "note": 63,
      "start": 92.9949,
      "duration": 0.0509,
      "velocity": 86,
      "chip": "ym2612"
    },
    {
      "channel": 2,
      "note": 55,
      "start": 92.9954,
      "duration": 0.0834,
      "velocity": 104,
      "chip": "ym2612"
    },
    {
      "channel": 0,
      "note": 55,
      "start": 93.1759,
      "duration": 0.0673,
      "velocity": 42,
      "chip": "ym2612"
    },
    {
      "channel": 1,
      "note": 63,
      "start": 93.1765,
      "duration": 0.0497,
      "velocity": 86,
      "chip": "ym2612"
    },
    {
      "channel": 2,
      "note": 55,
      "start": 93.1771,
      "duration": 0.0826,
      "velocity": 104,
      "chip": "ym2612"
    },
    {
      "channel": 0,
      "note": 55,
      "start": 93.3432,
      "duration": 0.1154,
      "velocity": 42,
      "chip": "ym2612"
    },
    {
      "channel": 1,
      "note": 63,
      "start": 93.3438,
      "duration": 0.0495,
      "velocity": 86,
      "chip": "ym2612"
    },
    {
      "channel": 2,
      "note": 55,
      "start": 93.3444,
      "duration": 0.1156,
      "velocity": 104,
      "chip": "ym2612"
    },
    {
      "channel": 0,
      "note": 86,
      "start": 93.5144,
      "duration": 0.0041,
      "velocity": 42,
      "chip": "ym2612"
    },
    {
      "channel": 2,
      "note": 50,
      "start": 93.5185,
      "duration": 0.0,
      "velocity": 104,
      "chip": "ym2612"
    }
  ]
}