{
  "track_name": "10 - Virtua Fighter 2",
  "duration_sec": 29.256,
  "sample_rate": 44100,
  "note_count": 155,
  "unique_pitches": 22,
  "pitch_range": 46,
  "avg_note_duration": 0.7741,
  "reconstruction_stats": {
    "notes_reconstructed": 155,
    "keyon_events": 155,
    "keyoff_events": 151,
    "orphan_keyons": 4,
    "unique_pitches": 22,
    "pitch_range": 46,
    "avg_duration_sec": 0.7741
  },
  "metadata": {
    "source": "V\\Virtua Fighter 2\\10 - Virtua Fighter 2.vgz"
  },
  "notes": [
    {
      "channel": 0,
      "note": 53,
      "start": 0.0,
      "duration": 0.3389,
      "velocity": 83,
      "chip": "ym2612"
    },
    {
      "channel": 1,
      "note": 84,
      "start": 0.0025,
      "duration": 0.3612,
      "velocity": 78,
      "chip": "ym2612"
    },
    {
      "channel": 2,
      "note": 77,
      "start": 0.0049,
      "duration": 0.7997,
      "velocity": 78,
      "chip": "ym2612"
    },
    {
      "channel": 3,
      "note": 72,
      "start": 0.0074,
      "duration": 0.3572,
      "velocity": 78,
      "chip": "ym2612"
    },
    {
      "channel": 4,
      "note": 65,
      "start": 0.0099,
      "duration": 0.7954,
      "velocity": 78,
      "chip": "ym2612"
    },
    {
      "channel": 0,
      "note": 53,
      "start": 0.3636,
      "duration": 1.1795,
      "velocity": 83,
      "chip": "ym2612"
    },
    {
      "channel": 1,
      "note": 85,
      "start": 0.3642,
      "duration": 0.4584,
      "velocity": 78,
      "chip": "ym2612"
    },
    {
      "channel": 3,
      "note": 73,
      "start": 0.3652,
      "duration": 0.4588,
      "velocity": 78,
      "chip": "ym2612"
    },
    {
      "channel": 1,
      "note": 87,
      "start": 0.8232,
      "duration": 0.3563,
      "velocity": 78,
      "chip": "ym2612"
    },
    {
      "channel": 2,
      "note": 80,
      "start": 0.8238,
      "duration": 0.3564,
      "velocity": 78,
      "chip": "ym2612"
    },
    {
      "channel": 3,
      "note": 75,
      "start": 0.8245,
      "duration": 0.3564,
      "velocity": 78,
      "chip": "ym2612"
    },
    {
      "channel": 4,
      "note": 68,
      "start": 0.8252,
      "duration": 0.3563,
      "velocity": 78,
      "chip": "ym2612"
    },
    {
      "channel": 1,
      "note": 89,
      "start": 1.1801,
      "duration": 0.2088,
      "velocity": 78,
      "chip": "ym2612"
    },
    {
      "channel": 2,
      "note": 82,
      "start": 1.1808,
      "duration": 0.2087,
      "velocity": 78,
      "chip": "ym2612"
    },
    {
      "channel": 3,
      "note": 77,
      "start": 1.1814,
      "duration": 0.2088,
      "velocity": 78,
      "chip": "ym2612"
    },
    {
      "channel": 4,
      "note": 70,
      "start": 1.1821,
      "duration": 0.2088,
      "velocity": 78,
      "chip": "ym2612"
    },
    {
      "channel": 1,
      "note": 87,
      "start": 1.3894,
      "duration": 0.2533,
      "velocity": 78,
      "chip": "ym2612"
    },
    {
      "channel": 2,
      "note": 80,
      "start": 1.3901,
      "duration": 0.2533,
      "velocity": 78,
      "chip": "ym2612"
    },
    {
      "channel": 3,
      "note": 77,
      "start": 1.3908,
      "duration": 0.2533,
      "velocity": 78,
      "chip": "ym2612"
    },
    {
      "channel": 4,
      "note": 68,
      "start": 1.3914,
      "duration": 0.2533,
      "velocity": 78,
      "chip": "ym2612"
    },
    {
      "channel": 0,
      "note": 51,
      "start": 1.5436,
      "duration": 0.0984,
      "velocity": 83,
      "chip": "ym2612"
    },
    {
      "channel": 0,
      "note": 53,
      "start": 1.6425,
      "duration": 0.3422,
      "velocity": 83,
      "chip": "ym2612"
    },
    {
      "channel": 1,
      "note": 84,
      "start": 1.6432,
      "duration": 0.356,
      "velocity": 78,
      "chip": "ym2612"
    },
    {
      "channel": 2,
      "note": 77,
      "start": 1.6439,
      "duration": 0.7969,
      "velocity": 78,
      "chip": "ym2612"
    },
    {
      "channel": 3,
      "note": 72,
      "start": 1.6446,
      "duration": 0.3556,
      "velocity": 78,
      "chip": "ym2612"
    },
    {
      "channel": 4,
      "note": 65,
      "start": 1.6453,
      "duration": 0.8179,
      "velocity": 78,
      "chip": "ym2612"
    },
    {
      "channel": 0,
      "note": 53,
      "start": 1.9991,
      "duration": 0.8215,
      "velocity": 83,
      "chip": "ym2612"
    },
    {
      "channel": 1,
      "note": 85,
      "start": 1.9998,
      "duration": 0.4614,
      "velocity": 78,
      "chip": "ym2612"
    },
    {
      "channel": 3,
      "note": 73,
      "start": 2.0008,
      "duration": 0.4617,
      "velocity": 78,
      "chip": "ym2612"
    },
    {
      "channel": 1,
      "note": 87,
      "start": 2.4617,
      "duration": 0.3596,
      "velocity": 78,
      "chip": "ym2612"
    },
    {
      "channel": 2,
      "note": 80,
      "start": 2.4623,
      "duration": 0.3596,
      "velocity": 78,
      "chip": "ym2612"
    },
    {
      "channel": 3,
      "note": 75,
      "start": 2.463,
      "duration": 0.3596,
      "velocity": 78,
      "chip": "ym2612"
    },
    {
      "channel": 4,
      "note": 68,
      "start": 2.4637,
      "duration": 0.3596,
      "velocity": 78,
      "chip": "ym2612"
    },
    {
      "channel": 0,
      "note": 58,
      "start": 2.8211,
      "duration": 0.0778,
      "velocity": 83,
      "chip": "ym2612"
    },
    {
      "channel": 1,
      "note": 89,
      "start": 2.8218,
      "duration": 0.2033,
      "velocity": 78,
      "chip": "ym2612"
    },
    {
      "channel": 2,
      "note": 82,
      "start": 2.8225,
      "duration": 0.2033,
      "velocity": 78,
      "chip": "ym2612"
    },
    {
      "channel": 3,
      "note": 77,
      "start": 2.8232,
      "duration": 0.2032,
      "velocity": 78,
      "chip": "ym2612"
    },
    {
      "channel": 4,
      "note": 70,
      "start": 2.8239,
      "duration": 0.2033,
      "velocity": 78,
      "chip": "ym2612"
    },
    {
      "channel": 0,
      "note": 58,
      "start": 2.9239,
      "duration": 0.0517,
      "velocity": 83,
      "chip": "ym2612"
    },
    {
      "channel": 0,
      "note": 58,
      "start": 3.025,
      "duration": 0.0743,
      "velocity": 83,
      "chip": "ym2612"
    },
    {
      "channel": 1,
      "note": 89,
      "start": 3.0257,
      "duration": 0.2519,
      "velocity": 78,
      "chip": "ym2612"
    },
    {
      "channel": 2,
      "note": 80,
      "start": 3.0263,
      "duration": 0.252,
      "velocity": 78,
      "chip": "ym2612"
    },
    {
      "channel": 3,
      "note": 77,
      "start": 3.0271,
      "duration": 0.252,
      "velocity": 78,
      "chip": "ym2612"
    },
    {
      "channel": 4,
      "note": 68,
      "start": 3.0277,
      "duration": 0.252,
      "velocity": 78,
      "chip": "ym2612"
    },
    {
      "channel": 0,
      "note": 58,
      "start": 3.1242,
      "duration": 0.1036,
      "velocity": 83,
      "chip": "ym2612"
    },
    {
      "channel": 0,
      "note": 55,
      "start": 3.2283,
      "duration": 0.0487,
      "velocity": 83,
      "chip": "ym2612"
    },
    {
      "channel": 0,
      "note": 53,
      "start": 3.2775,
      "duration": 1.1741,
      "velocity": 83,
      "chip": "ym2612"
    },
    {
      "channel": 1,
      "note": 92,
      "start": 3.2782,
      "duration": 0.349,
      "velocity": 78,
      "chip": "ym2612"
    },
    {
      "channel": 2,
      "note": 85,
      "start": 3.2789,
      "duration": 0.349,
      "velocity": 78,
      "chip": "ym2612"
    },
    {
      "channel": 3,
      "note": 82,
      "start": 3.2795,
      "duration": 0.3491,
      "velocity": 78,
      "chip": "ym2612"
    },
    {
      "channel": 1,
      "note": 94,
      "start": 3.6278,
      "duration": 0.4509,
      "velocity": 78,
      "chip": "ym2612"
    },
    {
      "channel": 2,
      "note": 87,
      "start": 3.6285,
      "duration": 0.4509,
      "velocity": 78,
      "chip": "ym2612"
    },
    {
      "channel": 3,
      "note": 84,
      "start": 3.6291,
      "duration": 0.451,
      "velocity": 78,
      "chip": "ym2612"
    },
    {
      "channel": 1,
      "note": 97,
      "start": 4.0793,
      "duration": 0.3462,
      "velocity": 78,
      "chip": "ym2612"
    },
    {
      "channel": 2,
      "note": 92,
      "start": 4.08,
      "duration": 0.3462,
      "velocity": 78,
      "chip": "ym2612"
    },
    {
      "channel": 3,
      "note": 89,
      "start": 4.0806,
      "duration": 0.3462,
      "velocity": 78,
      "chip": "ym2612"
    },
    {
      "channel": 1,
      "note": 94,
      "start": 4.426,
      "duration": 0.4448,
      "velocity": 78,
      "chip": "ym2612"
    },
    {
      "channel": 2,
      "note": 89,
      "start": 4.4267,
      "duration": 0.4447,
      "velocity": 78,
      "chip": "ym2612"
    },
    {
      "channel": 3,
      "note": 85,
      "start": 4.4274,
      "duration": 0.4447,
      "velocity": 78,
      "chip": "ym2612"
    },
    {
      "channel": 0,
      "note": 53,
      "start": 4.472,
      "duration": 0.0259,
      "velocity": 83,
      "chip": "ym2612"
    },
    {
      "channel": 0,
      "note": 60,
      "start": 4.4984,
      "duration": 0.0238,
      "velocity": 83,
      "chip": "ym2612"
    },
    {
      "channel": 0,
      "note": 53,
      "start": 4.5227,
      "duration": 0.0246,
      "velocity": 83,
      "chip": "ym2612"
    },
    {
      "channel": 0,
      "note": 58,
      "start": 4.5478,
      "duration": 0.024,
      "velocity": 83,
      "chip": "ym2612"
    },
    {
      "channel": 0,
      "note": 53,
      "start": 4.5724,
      "duration": 0.0245,
      "velocity": 83,
      "chip": "ym2612"
    },
    {
      "channel": 0,
      "note": 56,
      "start": 4.5973,
      "duration": 0.027,
      "velocity": 83,
      "chip": "ym2612"
    },
    {
      "channel": 0,
      "note": 53,
      "start": 4.6248,
      "duration": 0.0213,
      "velocity": 83,
      "chip": "ym2612"
    },
    {
      "channel": 0,
      "note": 51,
      "start": 4.6466,
      "duration": 0.0241,
      "velocity": 83,
      "chip": "ym2612"
    },
    {
      "channel": 0,
      "note": 53,
      "start": 4.6712,
      "duration": 0.0242,
      "velocity": 83,
      "chip": "ym2612"
    },
    {
      "channel": 0,
      "note": 60,
      "start": 4.6959,
      "duration": 0.0249,
      "velocity": 83,
      "chip": "ym2612"
    },
    {
      "channel": 0,
      "note": 53,
      "start": 4.7213,
      "duration": 0.0248,
      "velocity": 83,
      "chip": "ym2612"
    },
    {
      "channel": 0,
      "note": 58,
      "start": 4.7466,
      "duration": 0.0244,
      "velocity": 83,
      "chip": "ym2612"
    },
    {
      "channel": 0,
      "note": 53,
      "start": 4.7715,
      "duration": 0.0241,
      "velocity": 83,
      "chip": "ym2612"
    },
    {
      "channel": 0,
      "note": 56,
      "start": 4.7961,
      "duration": 0.0235,
      "velocity": 83,
      "chip": "ym2612"
    },
    {
      "channel": 0,
      "note": 53,
      "start": 4.8201,
      "duration": 0.0253,
      "velocity": 83,
      "chip": "ym2612"
    },
    {
      "channel": 0,
      "note": 51,
      "start": 4.8459,
      "duration": 0.0242,
      "velocity": 83,
      "chip": "ym2612"
    },
    {
      "channel": 0,
      "note": 53,
      "start": 4.8706,
      "duration": 0.0251,
      "velocity": 83,
      "chip": "ym2612"
    },
    {
      "channel": 1,
      "note": 92,
      "start": 4.8712,
      "duration": 0.3473,
      "velocity": 78,
      "chip": "ym2612"
    },
    {
      "channel": 2,
      "note": 85,
      "start": 4.872,
      "duration": 0.3473,
      "velocity": 78,
      "chip": "ym2612"
    },
    {
      "channel": 3,
      "note": 82,
      "start": 4.8727,
      "duration": 0.3473,
      "velocity": 78,
      "chip": "ym2612"
    },
    {
      "channel": 0,
      "note": 53,
      "start": 4.8962,
      "duration": 0.0238,
      "velocity": 83,
      "chip": "ym2612"
    },
    {
      "channel": 0,
      "note": 53,
      "start": 4.9206,
      "duration": 0.0248,
      "velocity": 83,
      "chip": "ym2612"
    },
    {
      "channel": 0,
      "note": 53,
      "start": 4.9459,
      "duration": 0.0239,
      "velocity": 83,
      "chip": "ym2612"
    },
    {
      "channel": 0,
      "note": 53,
      "start": 4.9703,
      "duration": 0.0211,
      "velocity": 83,
      "chip": "ym2612"
    },
    {
      "channel": 0,
      "note": 53,
      "start": 4.9919,
      "duration": 0.027,
      "velocity": 83,
      "chip": "ym2612"
    },
    {
      "channel": 0,
      "note": 53,
      "start": 5.0193,
      "duration": 0.0247,
      "velocity": 83,
      "chip": "ym2612"
    },
    {
      "channel": 0,
      "note": 53,
      "start": 5.0446,
      "duration": 0.0241,
      "velocity": 83,
      "chip": "ym2612"
    },
    {
      "channel": 0,
      "note": 53,
      "start": 5.0691,
      "duration": 0.0237,
      "velocity": 83,
      "chip": "ym2612"
    },
    {
      "channel": 0,
      "note": 53,
      "start": 5.0934,
      "duration": 0.0252,
      "velocity": 83,
      "chip": "ym2612"
    },
    {
      "channel": 0,
      "note": 53,
      "start": 5.1191,
      "duration": 0.0251,
      "velocity": 83,
      "chip": "ym2612"
    },
    {
      "channel": 0,
      "note": 53,
      "start": 5.1448,
      "duration": 0.0207,
      "velocity": 83,
      "chip": "ym2612"
    },
    {
      "channel": 0,
      "note": 53,
      "start": 5.166,
      "duration": 0.0242,
      "velocity": 83,
      "chip": "ym2612"
    },
    {
      "channel": 0,
      "note": 53,
      "start": 5.1907,
      "duration": 0.0273,
      "velocity": 83,
      "chip": "ym2612"
    },
    {
      "channel": 0,
      "note": 56,
      "start": 5.2184,
      "duration": 0.0263,
      "velocity": 83,
      "chip": "ym2612"
    },
    {
      "channel": 1,
      "note": 94,
      "start": 5.2191,
      "duration": 0.4527,
      "velocity": 78,
      "chip": "ym2612"
    },
    {
      "channel": 2,
      "note": 87,
      "start": 5.2198,
      "duration": 0.4527,
      "velocity": 78,
      "chip": "ym2612"
    },
    {
      "channel": 3,
      "note": 84,
      "start": 5.2205,
      "duration": 0.4527,
      "velocity": 78,
      "chip": "ym2612"
    },
    {
      "channel": 0,
      "note": 58,
      "start": 5.2453,
      "duration": 0.0242,
      "velocity": 83,
      "chip": "ym2612"
    },
    {
      "channel": 0,
      "note": 53,
      "start": 5.27,
      "duration": 0.0277,
      "velocity": 83,
      "chip": "ym2612"
    },
    {
      "channel": 0,
      "note": 53,
      "start": 5.2983,
      "duration": 0.024,
      "velocity": 83,
      "chip": "ym2612"
    },
    {
      "channel": 0,
      "note": 53,
      "start": 5.3228,
      "duration": 0.0212,
      "velocity": 83,
      "chip": "ym2612"
    },
    {
      "channel": 0,
      "note": 53,
      "start": 5.3445,
      "duration": 0.0241,
      "velocity": 83,
      "chip": "ym2612"
    },
    {
      "channel": 0,
      "note": 53,
      "start": 5.3691,
      "duration": 0.025,
      "velocity": 83,
      "chip": "ym2612"
    },
    {
      "channel": 0,
      "note": 53,
      "start": 5.3946,
      "duration": 0.0271,
      "velocity": 83,
      "chip": "ym2612"
    },
    {
      "channel": 0,
      "note": 53,
      "start": 5.4223,
      "duration": 0.0249,
      "velocity": 83,
      "chip": "ym2612"
    },
    {
      "channel": 0,
      "note": 53,
      "start": 5.4477,
      "duration": 0.0239,
      "velocity": 83,
      "chip": "ym2612"
    },
    {
      "channel": 0,
      "note": 53,
      "start": 5.4721,
      "duration": 0.0239,
      "velocity": 83,
      "chip": "ym2612"
    },
    {
      "channel": 0,
      "note": 53,
      "start": 5.4965,
      "duration": 0.0217,
      "velocity": 83,
      "chip": "ym2612"
    },
    {
      "channel": 0,
      "note": 53,
      "start": 5.5187,
      "duration": 0.0252,
      "velocity": 83,
      "chip": "ym2612"
    },
    {
      "channel": 0,
      "note": 53,
      "start": 5.5444,
      "duration": 0.0241,
      "velocity": 83,
      "chip": "ym2612"
    },
    {
      "channel": 0,
      "note": 53,
      "start": 5.569,
      "duration": 0.0242,
      "velocity": 83,
      "chip": "ym2612"
    },
    {
      "channel": 0,
      "note": 53,
      "start": 5.5937,
      "duration": 0.0272,
      "velocity": 83,
      "chip": "ym2612"
    },
    {
      "channel": 0,
      "note": 56,
      "start": 5.6214,
      "duration": 0.0251,
      "velocity": 83,
      "chip": "ym2612"
    },
    {
      "channel": 0,
      "note": 58,
      "start": 5.647,
      "duration": 0.0242,
      "velocity": 83,
      "chip": "ym2612"
    },
    {
      "channel": 0,
      "note": 53,
      "start": 5.6717,
      "duration": 0.0218,
      "velocity": 83,
      "chip": "ym2612"
    },
    {
      "channel": 1,
      "note": 97,
      "start": 5.6724,
      "duration": 0.3478,
      "velocity": 78,
      "chip": "ym2612"
    },
    {
      "channel": 2,
      "note": 92,
      "start": 5.6731,
      "duration": 0.3478,
      "velocity": 78,
      "chip": "ym2612"
    },
    {
      "channel": 3,
      "note": 89,
      "start": 5.6738,
      "duration": 0.3478,
      "velocity": 78,
      "chip": "ym2612"
    },
    {
      "channel": 0,
      "note": 53,
      "start": 5.694,
      "duration": 0.0238,
      "velocity": 83,
      "chip": "ym2612"
    },
    {
      "channel": 0,
      "note": 53,
      "start": 5.7184,
      "duration": 0.0246,
      "velocity": 83,
      "chip": "ym2612"
    },
    {
      "channel": 0,
      "note": 53,
      "start": 5.7435,
      "duration": 0.0241,
      "velocity": 83,
      "chip": "ym2612"
    },
    {
      "channel": 0,
      "note": 53,
      "start": 5.768,
      "duration": 0.0244,
      "velocity": 83,
      "chip": "ym2612"
    },
    {
      "channel": 0,
      "note": 53,
      "start": 5.7929,
      "duration": 0.0269,
      "velocity": 83,
      "chip": "ym2612"
    },
    {
      "channel": 0,
      "note": 53,
      "start": 5.8203,
      "duration": 0.0249,
      "velocity": 83,
      "chip": "ym2612"
    },
    {
      "channel": 0,
      "note": 53,
      "start": 5.8458,
      "duration": 0.0204,
      "velocity": 83,
      "chip": "ym2612"
    },
    {
      "channel": 0,
      "note": 53,
      "start": 5.8666,
      "duration": 0.0245,
      "velocity": 83,
      "chip": "ym2612"
    },
    {
      "channel": 0,
      "note": 53,
      "start": 5.8917,
      "duration": 0.0252,
      "velocity": 83,
      "chip": "ym2612"
    },
    {
      "channel": 0,
      "note": 53,
      "start": 5.9173,
      "duration": 0.0252,
      "velocity": 83,
      "chip": "ym2612"
    },
    {
      "channel": 0,
      "note": 53,
      "start": 5.9431,
      "duration": 0.0242,
      "velocity": 83,
      "chip": "ym2612"
    },
    {
      "channel": 0,
      "note": 53,
      "start": 5.9678,
      "duration": 0.0242,
      "velocity": 83,
      "chip": "ym2612"
    },
    {
      "channel": 0,
      "note": 53,
      "start": 5.9925,
      "duration": 0.0271,
      "velocity": 83,
      "chip": "ym2612"
    },
    {
      "channel": 0,
      "note": 56,
      "start": 6.0201,
      "duration": 0.0229,
      "velocity": 83,
      "chip": "ym2612"
    },
    {
      "channel": 1,
      "note": 94,
      "start": 6.0208,
      "duration": 0.4495,
      "velocity": 78,
      "chip": "ym2612"
    },
    {
      "channel": 2,
      "note": 89,
      "start": 6.0215,
      "duration": 0.4495,
      "velocity": 78,
      "chip": "ym2612"
    },
    {
      "channel": 3,
      "note": 85,
      "start": 6.0222,
      "duration": 0.4496,
      "velocity": 78,
      "chip": "ym2612"
    },
    {
      "channel": 0,
      "note": 58,
      "start": 6.0435,
      "duration": 0.0242,
      "velocity": 83,
      "chip": "ym2612"
    },
    {
      "channel": 0,
      "note": 53,
      "start": 6.0682,
      "duration": 0.0278,
      "velocity": 83,
      "chip": "ym2612"
    },
    {
      "channel": 0,
      "note": 53,
      "start": 6.0966,
      "duration": 0.0238,
      "velocity": 83,
      "chip": "ym2612"
    },
    {
      "channel": 0,
      "note": 53,
      "start": 6.1209,
      "duration": 0.0248,
      "velocity": 83,
      "chip": "ym2612"
    },
    {
      "channel": 0,
      "note": 53,
      "start": 6.1462,
      "duration": 0.0241,
      "velocity": 83,
      "chip": "ym2612"
    },
    {
      "channel": 0,
      "note": 53,
      "start": 6.1707,
      "duration": 0.0243,
      "velocity": 83,
      "chip": "ym2612"
    },
    {
      "channel": 0,
      "note": 53,
      "start": 6.1955,
      "duration": 0.0236,
      "velocity": 83,
      "chip": "ym2612"
    },
    {
      "channel": 0,
      "note": 53,
      "start": 6.2196,
      "duration": 0.0249,
      "velocity": 83,
      "chip": "ym2612"
    },
    {
      "channel": 0,
      "note": 53,
      "start": 6.245,
      "duration": 0.0238,
      "velocity": 83,
      "chip": "ym2612"
    },
    {
      "channel": 0,
      "note": 53,
      "start": 6.2694,
      "duration": 0.0244,
      "velocity": 83,
      "chip": "ym2612"
    },
    {
      "channel": 0,
      "note": 60,
      "start": 6.2943,
      "duration": 0.0248,
      "velocity": 83,
      "chip": "ym2612"
    },
    {
      "channel": 0,
      "note": 58,
      "start": 6.3196,
      "duration": 0.0248,
      "velocity": 83,
      "chip": "ym2612"
    },
    {
      "channel": 0,
      "note": 56,
      "start": 6.3449,
      "duration": 0.0244,
      "velocity": 83,
      "chip": "ym2612"
    },
    {
      "channel": 0,
      "note": 58,
      "start": 6.3699,
      "duration": 0.0207,
      "velocity": 83,
      "chip": "ym2612"
    },
    {
      "channel": 0,
      "note": 56,
      "start": 6.3911,
      "duration": 0.0271,
      "velocity": 83,
      "chip": "ym2612"
    },
    {
      "channel": 0,
      "note": 55,
      "start": 6.4187,
      "duration": 0.0253,
      "velocity": 83,
      "chip": "ym2612"
    },
    {
      "channel": 0,
      "note": 53,
      "start": 6.4445,
      "duration": 0.0251,
      "velocity": 83,
      "chip": "ym2612"
    },
    {
      "channel": 0,
      "note": 53,
      "start": 6.4701,
      "duration": 22.7861,
      "velocity": 83,
      "chip": "ym2612"
    },
    {
      "channel": 1,
      "note": 92,
      "start": 6.4708,
      "duration": 22.7854,
      "velocity": 78,
      "chip": "ym2612"
    },
    {
      "channel": 2,
      "note": 85,
      "start": 6.4716,
      "duration": 22.7846,
      "velocity": 78,
      "chip": "ym2612"
    },
    {
      "channel": 3,
      "note": 82,
      "start": 6.4724,
      "duration": 22.7839,
      "velocity": 78,
      "chip": "ym2612"
    }
  ]
}