{
  "track_name": "10 - Chillin'",
  "duration_sec": 33.675,
  "sample_rate": 44100,
  "note_count": 372,
  "unique_pitches": 49,
  "pitch_range": 54,
  "avg_note_duration": 0.3469,
  "reconstruction_stats": {
    "notes_reconstructed": 372,
    "keyon_events": 372,
    "keyoff_events": 368,
    "orphan_keyons": 4,
    "unique_pitches": 49,
    "pitch_range": 54,
    "avg_duration_sec": 0.3469
  },
  "metadata": {
    "source": "M\\Minnesota Fats - Pool Legend\\10 - Chillin'.vgz"
  },
  "notes": [
    {
      "channel": 0,
      "note": 92,
      "start": 0.0,
      "duration": 0.3289,
      "velocity": 99,
      "chip": "ym2612"
    },
    {
      "channel": 1,
      "note": 87,
      "start": 0.0003,
      "duration": 0.3287,
      "velocity": 99,
      "chip": "ym2612"
    },
    {
      "channel": 2,
      "note": 83,
      "start": 0.001,
      "duration": 0.3281,
      "velocity": 99,
      "chip": "ym2612"
    },
    {
      "channel": 3,
      "note": 77,
      "start": 0.0017,
      "duration": 0.3274,
      "velocity": 99,
      "chip": "ym2612"
    },
    {
      "channel": 4,
      "note": 49,
      "start": 0.0024,
      "duration": 0.1183,
      "velocity": 94,
      "chip": "ym2612"
    },
    {
      "channel": 4,
      "note": 53,
      "start": 0.1543,
      "duration": 0.1751,
      "velocity": 94,
      "chip": "ym2612"
    },
    {
      "channel": 0,
      "note": 89,
      "start": 0.3624,
      "duration": 0.1608,
      "velocity": 99,
      "chip": "ym2612"
    },
    {
      "channel": 1,
      "note": 83,
      "start": 0.3627,
      "duration": 0.1607,
      "velocity": 99,
      "chip": "ym2612"
    },
    {
      "channel": 2,
      "note": 80,
      "start": 0.3628,
      "duration": 0.1605,
      "velocity": 99,
      "chip": "ym2612"
    },
    {
      "channel": 3,
      "note": 75,
      "start": 0.363,
      "duration": 0.1604,
      "velocity": 99,
      "chip": "ym2612"
    },
    {
      "channel": 4,
      "note": 56,
      "start": 0.3633,
      "duration": 0.2689,
      "velocity": 94,
      "chip": "ym2612"
    },
    {
      "channel": 0,
      "note": 88,
      "start": 0.5566,
      "duration": 0.1152,
      "velocity": 99,
      "chip": "ym2612"
    },
    {
      "channel": 1,
      "note": 82,
      "start": 0.5569,
      "duration": 0.1151,
      "velocity": 99,
      "chip": "ym2612"
    },
    {
      "channel": 2,
      "note": 79,
      "start": 0.5571,
      "duration": 0.115,
      "velocity": 99,
      "chip": "ym2612"
    },
    {
      "channel": 3,
      "note": 74,
      "start": 0.5573,
      "duration": 0.1148,
      "velocity": 99,
      "chip": "ym2612"
    },
    {
      "channel": 4,
      "note": 58,
      "start": 0.6656,
      "duration": 0.218,
      "velocity": 94,
      "chip": "ym2612"
    },
    {
      "channel": 0,
      "note": 89,
      "start": 0.6746,
      "duration": 0.2086,
      "velocity": 99,
      "chip": "ym2612"
    },
    {
      "channel": 1,
      "note": 83,
      "start": 0.6749,
      "duration": 0.2085,
      "velocity": 99,
      "chip": "ym2612"
    },
    {
      "channel": 2,
      "note": 80,
      "start": 0.675,
      "duration": 0.2084,
      "velocity": 99,
      "chip": "ym2612"
    },
    {
      "channel": 3,
      "note": 75,
      "start": 0.6752,
      "duration": 0.2082,
      "velocity": 99,
      "chip": "ym2612"
    },
    {
      "channel": 0,
      "note": 85,
      "start": 0.9167,
      "duration": 0.34,
      "velocity": 99,
      "chip": "ym2612"
    },
    {
      "channel": 1,
      "note": 80,
      "start": 0.9169,
      "duration": 0.3399,
      "velocity": 99,
      "chip": "ym2612"
    },
    {
      "channel": 2,
      "note": 77,
      "start": 0.9171,
      "duration": 0.3398,
      "velocity": 99,
      "chip": "ym2612"
    },
    {
      "channel": 3,
      "note": 71,
      "start": 0.9173,
      "duration": 0.3397,
      "velocity": 99,
      "chip": "ym2612"
    },
    {
      "channel": 4,
      "note": 59,
      "start": 0.9176,
      "duration": 0.131,
      "velocity": 94,
      "chip": "ym2612"
    },
    {
      "channel": 4,
      "note": 58,
      "start": 1.0988,
      "duration": 0.1584,
      "velocity": 94,
      "chip": "ym2612"
    },
    {
      "channel": 0,
      "note": 85,
      "start": 1.2902,
      "duration": 0.1775,
      "velocity": 99,
      "chip": "ym2612"
    },
    {
      "channel": 1,
      "note": 80,
      "start": 1.2905,
      "duration": 0.1773,
      "velocity": 99,
      "chip": "ym2612"
    },
    {
      "channel": 2,
      "note": 77,
      "start": 1.2906,
      "duration": 0.1772,
      "velocity": 99,
      "chip": "ym2612"
    },
    {
      "channel": 3,
      "note": 71,
      "start": 1.2908,
      "duration": 0.1771,
      "velocity": 99,
      "chip": "ym2612"
    },
    {
      "channel": 4,
      "note": 56,
      "start": 1.2911,
      "duration": 0.2689,
      "velocity": 94,
      "chip": "ym2612"
    },
    {
      "channel": 0,
      "note": 84,
      "start": 1.5011,
      "duration": 0.0994,
      "velocity": 99,
      "chip": "ym2612"
    },
    {
      "channel": 1,
      "note": 79,
      "start": 1.5014,
      "duration": 0.0993,
      "velocity": 99,
      "chip": "ym2612"
    },
    {
      "channel": 2,
      "note": 76,
      "start": 1.5016,
      "duration": 0.0992,
      "velocity": 99,
      "chip": "ym2612"
    },
    {
      "channel": 3,
      "note": 70,
      "start": 1.5018,
      "duration": 0.099,
      "velocity": 99,
      "chip": "ym2612"
    },
    {
      "channel": 4,
      "note": 51,
      "start": 1.5935,
      "duration": 0.0687,
      "velocity": 94,
      "chip": "ym2612"
    },
    {
      "channel": 0,
      "note": 85,
      "start": 1.6033,
      "duration": 0.1507,
      "velocity": 99,
      "chip": "ym2612"
    },
    {
      "channel": 1,
      "note": 80,
      "start": 1.6035,
      "duration": 0.1506,
      "velocity": 99,
      "chip": "ym2612"
    },
    {
      "channel": 2,
      "note": 77,
      "start": 1.6037,
      "duration": 0.1505,
      "velocity": 99,
      "chip": "ym2612"
    },
    {
      "channel": 3,
      "note": 71,
      "start": 1.6039,
      "duration": 0.1503,
      "velocity": 99,
      "chip": "ym2612"
    },
    {
      "channel": 4,
      "note": 53,
      "start": 1.6956,
      "duration": 0.0588,
      "velocity": 94,
      "chip": "ym2612"
    },
    {
      "channel": 0,
      "note": 88,
      "start": 1.7875,
      "duration": 0.3568,
      "velocity": 99,
      "chip": "ym2612"
    },
    {
      "channel": 1,
      "note": 79,
      "start": 1.7877,
      "duration": 0.3567,
      "velocity": 99,
      "chip": "ym2612"
    },
    {
      "channel": 2,
      "note": 73,
      "start": 1.7879,
      "duration": 0.3566,
      "velocity": 99,
      "chip": "ym2612"
    },
    {
      "channel": 3,
      "note": 70,
      "start": 1.7881,
      "duration": 0.3564,
      "velocity": 99,
      "chip": "ym2612"
    },
    {
      "channel": 4,
      "note": 54,
      "start": 1.7884,
      "duration": 0.1477,
      "velocity": 94,
      "chip": "ym2612"
    },
    {
      "channel": 4,
      "note": 58,
      "start": 1.9696,
      "duration": 0.1751,
      "velocity": 94,
      "chip": "ym2612"
    },
    {
      "channel": 0,
      "note": 87,
      "start": 2.1777,
      "duration": 0.1774,
      "velocity": 99,
      "chip": "ym2612"
    },
    {
      "channel": 1,
      "note": 78,
      "start": 2.178,
      "duration": 0.1773,
      "velocity": 99,
      "chip": "ym2612"
    },
    {
      "channel": 2,
      "note": 72,
      "start": 2.1782,
      "duration": 0.1772,
      "velocity": 99,
      "chip": "ym2612"
    },
    {
      "channel": 3,
      "note": 69,
      "start": 2.1784,
      "duration": 0.1771,
      "velocity": 99,
      "chip": "ym2612"
    },
    {
      "channel": 4,
      "note": 61,
      "start": 2.1786,
      "duration": 0.2689,
      "velocity": 94,
      "chip": "ym2612"
    },
    {
      "channel": 0,
      "note": 85,
      "start": 2.3886,
      "duration": 0.0985,
      "velocity": 99,
      "chip": "ym2612"
    },
    {
      "channel": 1,
      "note": 76,
      "start": 2.3889,
      "duration": 0.0984,
      "velocity": 99,
      "chip": "ym2612"
    },
    {
      "channel": 2,
      "note": 70,
      "start": 2.3891,
      "duration": 0.0983,
      "velocity": 99,
      "chip": "ym2612"
    },
    {
      "channel": 3,
      "note": 67,
      "start": 2.3893,
      "duration": 0.0982,
      "velocity": 99,
      "chip": "ym2612"
    },
    {
      "channel": 4,
      "note": 63,
      "start": 2.481,
      "duration": 0.218,
      "velocity": 94,
      "chip": "ym2612"
    },
    {
      "channel": 0,
      "note": 81,
      "start": 2.4899,
      "duration": 0.2086,
      "velocity": 99,
      "chip": "ym2612"
    },
    {
      "channel": 1,
      "note": 72,
      "start": 2.4902,
      "duration": 0.2085,
      "velocity": 99,
      "chip": "ym2612"
    },
    {
      "channel": 2,
      "note": 66,
      "start": 2.4904,
      "duration": 0.2084,
      "velocity": 99,
      "chip": "ym2612"
    },
    {
      "channel": 3,
      "note": 63,
      "start": 2.4906,
      "duration": 0.2082,
      "velocity": 99,
      "chip": "ym2612"
    },
    {
      "channel": 0,
      "note": 82,
      "start": 2.732,
      "duration": 0.0161,
      "velocity": 99,
      "chip": "ym2612"
    },
    {
      "channel": 1,
      "note": 73,
      "start": 2.7323,
      "duration": 0.016,
      "velocity": 99,
      "chip": "ym2612"
    },
    {
      "channel": 2,
      "note": 67,
      "start": 2.7324,
      "duration": 0.0159,
      "velocity": 99,
      "chip": "ym2612"
    },
    {
      "channel": 3,
      "note": 64,
      "start": 2.7327,
      "duration": 0.0157,
      "velocity": 99,
      "chip": "ym2612"
    },
    {
      "channel": 4,
      "note": 64,
      "start": 2.7329,
      "duration": 0.1477,
      "velocity": 94,
      "chip": "ym2612"
    },
    {
      "channel": 0,
      "note": 85,
      "start": 2.7805,
      "duration": 0.543,
      "velocity": 99,
      "chip": "ym2612"
    },
    {
      "channel": 1,
      "note": 76,
      "start": 2.7808,
      "duration": 0.5429,
      "velocity": 99,
      "chip": "ym2612"
    },
    {
      "channel": 2,
      "note": 70,
      "start": 2.781,
      "duration": 0.5428,
      "velocity": 99,
      "chip": "ym2612"
    },
    {
      "channel": 3,
      "note": 67,
      "start": 2.7812,
      "duration": 0.5427,
      "velocity": 99,
      "chip": "ym2612"
    },
    {
      "channel": 4,
      "note": 63,
      "start": 2.9141,
      "duration": 0.1749,
      "velocity": 94,
      "chip": "ym2612"
    },
    {
      "channel": 4,
      "note": 61,
      "start": 3.1225,
      "duration": 0.2015,
      "velocity": 94,
      "chip": "ym2612"
    },
    {
      "channel": 4,
      "note": 58,
      "start": 3.3268,
      "duration": 0.0678,
      "velocity": 94,
      "chip": "ym2612"
    },
    {
      "channel": 0,
      "note": 90,
      "start": 3.3359,
      "duration": 0.0584,
      "velocity": 99,
      "chip": "ym2612"
    },
    {
      "channel": 1,
      "note": 85,
      "start": 3.3361,
      "duration": 0.0583,
      "velocity": 99,
      "chip": "ym2612"
    },
    {
      "channel": 2,
      "note": 81,
      "start": 3.3363,
      "duration": 0.0581,
      "velocity": 99,
      "chip": "ym2612"
    },
    {
      "channel": 3,
      "note": 75,
      "start": 3.3365,
      "duration": 0.058,
      "velocity": 99,
      "chip": "ym2612"
    },
    {
      "channel": 0,
      "note": 91,
      "start": 3.4277,
      "duration": 0.0078,
      "velocity": 99,
      "chip": "ym2612"
    },
    {
      "channel": 1,
      "note": 86,
      "start": 3.4279,
      "duration": 0.0077,
      "velocity": 99,
      "chip": "ym2612"
    },
    {
      "channel": 2,
      "note": 82,
      "start": 3.4281,
      "duration": 0.0076,
      "velocity": 99,
      "chip": "ym2612"
    },
    {
      "channel": 3,
      "note": 76,
      "start": 3.4283,
      "duration": 0.0074,
      "velocity": 99,
      "chip": "ym2612"
    },
    {
      "channel": 4,
      "note": 50,
      "start": 3.4286,
      "duration": 0.0073,
      "velocity": 94,
      "chip": "ym2612"
    },
    {
      "channel": 0,
      "note": 92,
      "start": 3.4378,
      "duration": 0.2476,
      "velocity": 99,
      "chip": "ym2612"
    },
    {
      "channel": 1,
      "note": 87,
      "start": 3.438,
      "duration": 0.2475,
      "velocity": 99,
      "chip": "ym2612"
    },
    {
      "channel": 2,
      "note": 83,
      "start": 3.4382,
      "duration": 0.2474,
      "velocity": 99,
      "chip": "ym2612"
    },
    {
      "channel": 3,
      "note": 77,
      "start": 3.4384,
      "duration": 0.2472,
      "velocity": 99,
      "chip": "ym2612"
    },
    {
      "channel": 4,
      "note": 49,
      "start": 3.4387,
      "duration": 0.0552,
      "velocity": 94,
      "chip": "ym2612"
    },
    {
      "channel": 4,
      "note": 53,
      "start": 3.5274,
      "duration": 0.1584,
      "velocity": 94,
      "chip": "ym2612"
    },
    {
      "channel": 0,
      "note": 89,
      "start": 3.7355,
      "duration": 0.1608,
      "velocity": 99,
      "chip": "ym2612"
    },
    {
      "channel": 1,
      "note": 83,
      "start": 3.7358,
      "duration": 0.1607,
      "velocity": 99,
      "chip": "ym2612"
    },
    {
      "channel": 2,
      "note": 80,
      "start": 3.736,
      "duration": 0.1605,
      "velocity": 99,
      "chip": "ym2612"
    },
    {
      "channel": 3,
      "note": 75,
      "start": 3.7362,
      "duration": 0.1604,
      "velocity": 99,
      "chip": "ym2612"
    },
    {
      "channel": 4,
      "note": 56,
      "start": 3.7364,
      "duration": 0.2522,
      "velocity": 94,
      "chip": "ym2612"
    },
    {
      "channel": 0,
      "note": 88,
      "start": 3.9298,
      "duration": 0.0994,
      "velocity": 99,
      "chip": "ym2612"
    },
    {
      "channel": 1,
      "note": 82,
      "start": 3.93,
      "duration": 0.0993,
      "velocity": 99,
      "chip": "ym2612"
    },
    {
      "channel": 2,
      "note": 79,
      "start": 3.9302,
      "duration": 0.0992,
      "velocity": 99,
      "chip": "ym2612"
    },
    {
      "channel": 3,
      "note": 74,
      "start": 3.9304,
      "duration": 0.099,
      "velocity": 99,
      "chip": "ym2612"
    },
    {
      "channel": 4,
      "note": 58,
      "start": 4.0221,
      "duration": 0.2021,
      "velocity": 94,
      "chip": "ym2612"
    },
    {
      "channel": 0,
      "note": 89,
      "start": 4.0319,
      "duration": 0.192,
      "velocity": 99,
      "chip": "ym2612"
    },
    {
      "channel": 1,
      "note": 83,
      "start": 4.0322,
      "duration": 0.1918,
      "velocity": 99,
      "chip": "ym2612"
    },
    {
      "channel": 2,
      "note": 80,
      "start": 4.0323,
      "duration": 0.1917,
      "velocity": 99,
      "chip": "ym2612"
    },
    {
      "channel": 3,
      "note": 75,
      "start": 4.0325,
      "duration": 0.1916,
      "velocity": 99,
      "chip": "ym2612"
    },
    {
      "channel": 0,
      "note": 85,
      "start": 4.2573,
      "duration": 0.3568,
      "velocity": 99,
      "chip": "ym2612"
    },
    {
      "channel": 1,
      "note": 80,
      "start": 4.2576,
      "duration": 0.3567,
      "velocity": 99,
      "chip": "ym2612"
    },
    {
      "channel": 2,
      "note": 77,
      "start": 4.2578,
      "duration": 0.3566,
      "velocity": 99,
      "chip": "ym2612"
    },
    {
      "channel": 3,
      "note": 71,
      "start": 4.258,
      "duration": 0.3564,
      "velocity": 99,
      "chip": "ym2612"
    },
    {
      "channel": 4,
      "note": 59,
      "start": 4.2582,
      "duration": 0.1477,
      "velocity": 94,
      "chip": "ym2612"
    },
    {
      "channel": 4,
      "note": 58,
      "start": 4.4394,
      "duration": 0.1751,
      "velocity": 94,
      "chip": "ym2612"
    },
    {
      "channel": 0,
      "note": 85,
      "start": 4.6476,
      "duration": 0.1774,
      "velocity": 99,
      "chip": "ym2612"
    },
    {
      "channel": 1,
      "note": 80,
      "start": 4.6478,
      "duration": 0.1773,
      "velocity": 99,
      "chip": "ym2612"
    },
    {
      "channel": 2,
      "note": 77,
      "start": 4.648,
      "duration": 0.1772,
      "velocity": 99,
      "chip": "ym2612"
    },
    {
      "channel": 3,
      "note": 71,
      "start": 4.6482,
      "duration": 0.1771,
      "velocity": 99,
      "chip": "ym2612"
    },
    {
      "channel": 4,
      "note": 56,
      "start": 4.6485,
      "duration": 0.2689,
      "velocity": 94,
      "chip": "ym2612"
    },
    {
      "channel": 0,
      "note": 84,
      "start": 4.8585,
      "duration": 0.0985,
      "velocity": 99,
      "chip": "ym2612"
    },
    {
      "channel": 1,
      "note": 79,
      "start": 4.8587,
      "duration": 0.0984,
      "velocity": 99,
      "chip": "ym2612"
    },
    {
      "channel": 2,
      "note": 76,
      "start": 4.8589,
      "duration": 0.0983,
      "velocity": 99,
      "chip": "ym2612"
    },
    {
      "channel": 3,
      "note": 70,
      "start": 4.8591,
      "duration": 0.0982,
      "velocity": 99,
      "chip": "ym2612"
    },
    {
      "channel": 4,
      "note": 51,
      "start": 4.9508,
      "duration": 0.0845,
      "velocity": 94,
      "chip": "ym2612"
    },
    {
      "channel": 0,
      "note": 85,
      "start": 4.9598,
      "duration": 0.1674,
      "velocity": 99,
      "chip": "ym2612"
    },
    {
      "channel": 1,
      "note": 80,
      "start": 4.96,
      "duration": 0.1673,
      "velocity": 99,
      "chip": "ym2612"
    },
    {
      "channel": 2,
      "note": 77,
      "start": 4.9602,
      "duration": 0.1672,
      "velocity": 99,
      "chip": "ym2612"
    },
    {
      "channel": 3,
      "note": 71,
      "start": 4.9604,
      "duration": 0.167,
      "velocity": 99,
      "chip": "ym2612"
    },
    {
      "channel": 4,
      "note": 53,
      "start": 5.0688,
      "duration": 0.0588,
      "velocity": 94,
      "chip": "ym2612"
    },
    {
      "channel": 0,
      "note": 88,
      "start": 5.1606,
      "duration": 0.3568,
      "velocity": 99,
      "chip": "ym2612"
    },
    {
      "channel": 1,
      "note": 79,
      "start": 5.1609,
      "duration": 0.3566,
      "velocity": 99,
      "chip": "ym2612"
    },
    {
      "channel": 2,
      "note": 73,
      "start": 5.1611,
      "duration": 0.3565,
      "velocity": 99,
      "chip": "ym2612"
    },
    {
      "channel": 3,
      "note": 70,
      "start": 5.1613,
      "duration": 0.3564,
      "velocity": 99,
      "chip": "ym2612"
    },
    {
      "channel": 4,
      "note": 54,
      "start": 5.1615,
      "duration": 0.1477,
      "velocity": 94,
      "chip": "ym2612"
    },
    {
      "channel": 4,
      "note": 58,
      "start": 5.3427,
      "duration": 0.1751,
      "velocity": 94,
      "chip": "ym2612"
    },
    {
      "channel": 0,
      "note": 87,
      "start": 5.5509,
      "duration": 0.1608,
      "velocity": 99,
      "chip": "ym2612"
    },
    {
      "channel": 1,
      "note": 78,
      "start": 5.5511,
      "duration": 0.1607,
      "velocity": 99,
      "chip": "ym2612"
    },
    {
      "channel": 2,
      "note": 72,
      "start": 5.5513,
      "duration": 0.1605,
      "velocity": 99,
      "chip": "ym2612"
    },
    {
      "channel": 3,
      "note": 69,
      "start": 5.5515,
      "duration": 0.1604,
      "velocity": 99,
      "chip": "ym2612"
    },
    {
      "channel": 4,
      "note": 61,
      "start": 5.5517,
      "duration": 0.2689,
      "velocity": 94,
      "chip": "ym2612"
    },
    {
      "channel": 0,
      "note": 85,
      "start": 5.7451,
      "duration": 0.1152,
      "velocity": 99,
      "chip": "ym2612"
    },
    {
      "channel": 1,
      "note": 76,
      "start": 5.7454,
      "duration": 0.1151,
      "velocity": 99,
      "chip": "ym2612"
    },
    {
      "channel": 2,
      "note": 70,
      "start": 5.7455,
      "duration": 0.115,
      "velocity": 99,
      "chip": "ym2612"
    },
    {
      "channel": 3,
      "note": 67,
      "start": 5.7457,
      "duration": 0.1148,
      "velocity": 99,
      "chip": "ym2612"
    },
    {
      "channel": 4,
      "note": 63,
      "start": 5.8541,
      "duration": 0.218,
      "velocity": 94,
      "chip": "ym2612"
    },
    {
      "channel": 0,
      "note": 81,
      "start": 5.8631,
      "duration": 0.2086,
      "velocity": 99,
      "chip": "ym2612"
    },
    {
      "channel": 1,
      "note": 72,
      "start": 5.8633,
      "duration": 0.2085,
      "velocity": 99,
      "chip": "ym2612"
    },
    {
      "channel": 2,
      "note": 66,
      "start": 5.8635,
      "duration": 0.2084,
      "velocity": 99,
      "chip": "ym2612"
    },
    {
      "channel": 3,
      "note": 63,
      "start": 5.8637,
      "duration": 0.2082,
      "velocity": 99,
      "chip": "ym2612"
    },
    {
      "channel": 0,
      "note": 82,
      "start": 6.1051,
      "duration": 0.0153,
      "velocity": 99,
      "chip": "ym2612"
    },
    {
      "channel": 1,
      "note": 73,
      "start": 6.1054,
      "duration": 0.0152,
      "velocity": 99,
      "chip": "ym2612"
    },
    {
      "channel": 2,
      "note": 67,
      "start": 6.1056,
      "duration": 0.0151,
      "velocity": 99,
      "chip": "ym2612"
    },
    {
      "channel": 3,
      "note": 64,
      "start": 6.1058,
      "duration": 0.0149,
      "velocity": 99,
      "chip": "ym2612"
    },
    {
      "channel": 4,
      "note": 64,
      "start": 6.106,
      "duration": 0.1477,
      "velocity": 94,
      "chip": "ym2612"
    },
    {
      "channel": 0,
      "note": 76,
      "start": 6.137,
      "duration": 0.5588,
      "velocity": 99,
      "chip": "ym2612"
    },
    {
      "channel": 1,
      "note": 70,
      "start": 6.1372,
      "duration": 0.5587,
      "velocity": 99,
      "chip": "ym2612"
    },
    {
      "channel": 2,
      "note": 67,
      "start": 6.1374,
      "duration": 0.5586,
      "velocity": 99,
      "chip": "ym2612"
    },
    {
      "channel": 3,
      "note": 61,
      "start": 6.1376,
      "duration": 0.5584,
      "velocity": 99,
      "chip": "ym2612"
    },
    {
      "channel": 4,
      "note": 63,
      "start": 6.2872,
      "duration": 0.1583,
      "velocity": 94,
      "chip": "ym2612"
    },
    {
      "channel": 4,
      "note": 61,
      "start": 6.4956,
      "duration": 0.2006,
      "velocity": 94,
      "chip": "ym2612"
    },
    {
      "channel": 4,
      "note": 58,
      "start": 6.699,
      "duration": 0.0686,
      "velocity": 94,
      "chip": "ym2612"
    },
    {
      "channel": 0,
      "note": 88,
      "start": 6.7089,
      "duration": 0.0584,
      "velocity": 99,
      "chip": "ym2612"
    },
    {
      "channel": 1,
      "note": 81,
      "start": 6.7092,
      "duration": 0.0583,
      "velocity": 99,
      "chip": "ym2612"
    },
    {
      "channel": 2,
      "note": 71,
      "start": 6.7093,
      "duration": 0.0581,
      "velocity": 99,
      "chip": "ym2612"
    },
    {
      "channel": 3,
      "note": 65,
      "start": 6.7095,
      "duration": 0.058,
      "velocity": 99,
      "chip": "ym2612"
    },
    {
      "channel": 0,
      "note": 89,
      "start": 6.8007,
      "duration": 0.007,
      "velocity": 99,
      "chip": "ym2612"
    },
    {
      "channel": 1,
      "note": 82,
      "start": 6.801,
      "duration": 0.0069,
      "velocity": 99,
      "chip": "ym2612"
    },
    {
      "channel": 2,
      "note": 72,
      "start": 6.8012,
      "duration": 0.0068,
      "velocity": 99,
      "chip": "ym2612"
    },
    {
      "channel": 3,
      "note": 66,
      "start": 6.8014,
      "duration": 0.0066,
      "velocity": 99,
      "chip": "ym2612"
    },
    {
      "channel": 4,
      "note": 52,
      "start": 6.8016,
      "duration": 0.0065,
      "velocity": 94,
      "chip": "ym2612"
    },
    {
      "channel": 0,
      "note": 90,
      "start": 6.81,
      "duration": 0.0683,
      "velocity": 99,
      "chip": "ym2612"
    },
    {
      "channel": 1,
      "note": 83,
      "start": 6.8103,
      "duration": 0.0682,
      "velocity": 99,
      "chip": "ym2612"
    },
    {
      "channel": 2,
      "note": 73,
      "start": 6.8105,
      "duration": 0.0681,
      "velocity": 99,
      "chip": "ym2612"
    },
    {
      "channel": 3,
      "note": 67,
      "start": 6.8107,
      "duration": 0.068,
      "velocity": 99,
      "chip": "ym2612"
    },
    {
      "channel": 4,
      "note": 51,
      "start": 6.8109,
      "duration": 0.0678,
      "velocity": 94,
      "chip": "ym2612"
    },
    {
      "channel": 0,
      "note": 90,
      "start": 6.9119,
      "duration": 0.0842,
      "velocity": 99,
      "chip": "ym2612"
    },
    {
      "channel": 1,
      "note": 83,
      "start": 6.9121,
      "duration": 0.0841,
      "velocity": 99,
      "chip": "ym2612"
    },
    {
      "channel": 2,
      "note": 73,
      "start": 6.9123,
      "duration": 0.084,
      "velocity": 99,
      "chip": "ym2612"
    },
    {
      "channel": 3,
      "note": 67,
      "start": 6.9125,
      "duration": 0.0838,
      "velocity": 99,
      "chip": "ym2612"
    },
    {
      "channel": 4,
      "note": 51,
      "start": 6.9127,
      "duration": 0.0837,
      "velocity": 94,
      "chip": "ym2612"
    },
    {
      "channel": 0,
      "note": 90,
      "start": 7.0295,
      "duration": 0.0676,
      "velocity": 99,
      "chip": "ym2612"
    },
    {
      "channel": 1,
      "note": 83,
      "start": 7.0298,
      "duration": 0.0674,
      "velocity": 99,
      "chip": "ym2612"
    },
    {
      "channel": 2,
      "note": 73,
      "start": 7.03,
      "duration": 0.0673,
      "velocity": 99,
      "chip": "ym2612"
    },
    {
      "channel": 3,
      "note": 67,
      "start": 7.0302,
      "duration": 0.0672,
      "velocity": 99,
      "chip": "ym2612"
    },
    {
      "channel": 4,
      "note": 51,
      "start": 7.0304,
      "duration": 0.0671,
      "velocity": 94,
      "chip": "ym2612"
    },
    {
      "channel": 0,
      "note": 88,
      "start": 7.6991,
      "duration": 0.0842,
      "velocity": 99,
      "chip": "ym2612"
    },
    {
      "channel": 1,
      "note": 83,
      "start": 7.6994,
      "duration": 0.0841,
      "velocity": 99,
      "chip": "ym2612"
    },
    {
      "channel": 2,
      "note": 72,
      "start": 7.6996,
      "duration": 0.084,
      "velocity": 99,
      "chip": "ym2612"
    },
    {
      "channel": 3,
      "note": 66,
      "start": 7.6998,
      "duration": 0.0838,
      "velocity": 99,
      "chip": "ym2612"
    },
    {
      "channel": 4,
      "note": 44,
      "start": 7.7,
      "duration": 0.0837,
      "velocity": 94,
      "chip": "ym2612"
    },
    {
      "channel": 0,
      "note": 88,
      "start": 7.8168,
      "duration": 0.0676,
      "velocity": 99,
      "chip": "ym2612"
    },
    {
      "channel": 1,
      "note": 83,
      "start": 7.8171,
      "duration": 0.0674,
      "velocity": 99,
      "chip": "ym2612"
    },
    {
      "channel": 2,
      "note": 72,
      "start": 7.8173,
      "duration": 0.0673,
      "velocity": 99,
      "chip": "ym2612"
    },
    {
      "channel": 3,
      "note": 66,
      "start": 7.8175,
      "duration": 0.0672,
      "velocity": 99,
      "chip": "ym2612"
    },
    {
      "channel": 4,
      "note": 44,
      "start": 7.8177,
      "duration": 0.0671,
      "velocity": 94,
      "chip": "ym2612"
    },
    {
      "channel": 0,
      "note": 88,
      "start": 7.9178,
      "duration": 0.0686,
      "velocity": 99,
      "chip": "ym2612"
    },
    {
      "channel": 1,
      "note": 83,
      "start": 7.9181,
      "duration": 0.0685,
      "velocity": 99,
      "chip": "ym2612"
    },
    {
      "channel": 2,
      "note": 72,
      "start": 7.9183,
      "duration": 0.0684,
      "velocity": 99,
      "chip": "ym2612"
    },
    {
      "channel": 3,
      "note": 66,
      "start": 7.9185,
      "duration": 0.0682,
      "velocity": 99,
      "chip": "ym2612"
    },
    {
      "channel": 4,
      "note": 44,
      "start": 7.9187,
      "duration": 0.0681,
      "velocity": 94,
      "chip": "ym2612"
    },
    {
      "channel": 4,
      "note": 46,
      "start": 8.2789,
      "duration": 0.0064,
      "velocity": 94,
      "chip": "ym2612"
    },
    {
      "channel": 4,
      "note": 48,
      "start": 8.2875,
      "duration": 0.0744,
      "velocity": 94,
      "chip": "ym2612"
    },
    {
      "channel": 0,
      "note": 85,
      "start": 8.3949,
      "duration": 0.2476,
      "velocity": 99,
      "chip": "ym2612"
    },
    {
      "channel": 1,
      "note": 80,
      "start": 8.3952,
      "duration": 0.2475,
      "velocity": 99,
      "chip": "ym2612"
    },
    {
      "channel": 2,
      "note": 77,
      "start": 8.3954,
      "duration": 0.2474,
      "velocity": 99,
      "chip": "ym2612"
    },
    {
      "channel": 3,
      "note": 71,
      "start": 8.3956,
      "duration": 0.2472,
      "velocity": 99,
      "chip": "ym2612"
    },
    {
      "channel": 4,
      "note": 49,
      "start": 8.3958,
      "duration": 0.0552,
      "velocity": 94,
      "chip": "ym2612"
    },
    {
      "channel": 4,
      "note": 53,
      "start": 8.4845,
      "duration": 0.1584,
      "velocity": 94,
      "chip": "ym2612"
    },
    {
      "channel": 0,
      "note": 83,
      "start": 8.6927,
      "duration": 0.1608,
      "velocity": 99,
      "chip": "ym2612"
    },
    {
      "channel": 1,
      "note": 77,
      "start": 8.6929,
      "duration": 0.1607,
      "velocity": 99,
      "chip": "ym2612"
    },
    {
      "channel": 2,
      "note": 75,
      "start": 8.6931,
      "duration": 0.1605,
      "velocity": 99,
      "chip": "ym2612"
    },
    {
      "channel": 3,
      "note": 68,
      "start": 8.6933,
      "duration": 0.1604,
      "velocity": 99,
      "chip": "ym2612"
    },
    {
      "channel": 4,
      "note": 56,
      "start": 8.6936,
      "duration": 0.2522,
      "velocity": 94,
      "chip": "ym2612"
    },
    {
      "channel": 0,
      "note": 85,
      "start": 8.8869,
      "duration": 0.0994,
      "velocity": 99,
      "chip": "ym2612"
    },
    {
      "channel": 1,
      "note": 80,
      "start": 8.8872,
      "duration": 0.0993,
      "velocity": 99,
      "chip": "ym2612"
    },
    {
      "channel": 2,
      "note": 77,
      "start": 8.8873,
      "duration": 0.0992,
      "velocity": 99,
      "chip": "ym2612"
    },
    {
      "channel": 3,
      "note": 71,
      "start": 8.8876,
      "duration": 0.099,
      "velocity": 99,
      "chip": "ym2612"
    },
    {
      "channel": 4,
      "note": 58,
      "start": 8.9793,
      "duration": 0.2021,
      "velocity": 94,
      "chip": "ym2612"
    },
    {
      "channel": 0,
      "note": 87,
      "start": 8.989,
      "duration": 0.192,
      "velocity": 99,
      "chip": "ym2612"
    },
    {
      "channel": 1,
      "note": 81,
      "start": 8.9893,
      "duration": 0.1918,
      "velocity": 99,
      "chip": "ym2612"
    },
    {
      "channel": 2,
      "note": 78,
      "start": 8.9895,
      "duration": 0.1917,
      "velocity": 99,
      "chip": "ym2612"
    },
    {
      "channel": 3,
      "note": 72,
      "start": 8.9897,
      "duration": 0.1916,
      "velocity": 99,
      "chip": "ym2612"
    },
    {
      "channel": 0,
      "note": 89,
      "start": 9.2145,
      "duration": 0.6076,
      "velocity": 99,
      "chip": "ym2612"
    },
    {
      "channel": 1,
      "note": 83,
      "start": 9.2147,
      "duration": 0.6074,
      "velocity": 99,
      "chip": "ym2612"
    },
    {
      "channel": 2,
      "note": 80,
      "start": 9.2149,
      "duration": 0.6073,
      "velocity": 99,
      "chip": "ym2612"
    },
    {
      "channel": 3,
      "note": 75,
      "start": 9.2151,
      "duration": 0.6072,
      "velocity": 99,
      "chip": "ym2612"
    },
    {
      "channel": 4,
      "note": 59,
      "start": 9.2154,
      "duration": 0.1477,
      "velocity": 94,
      "chip": "ym2612"
    },
    {
      "channel": 4,
      "note": 58,
      "start": 9.3966,
      "duration": 0.1749,
      "velocity": 94,
      "chip": "ym2612"
    },
    {
      "channel": 4,
      "note": 56,
      "start": 9.6049,
      "duration": 0.1775,
      "velocity": 94,
      "chip": "ym2612"
    },
    {
      "channel": 4,
      "note": 51,
      "start": 9.8159,
      "duration": 0.0065,
      "velocity": 94,
      "chip": "ym2612"
    },
    {
      "channel": 4,
      "note": 53,
      "start": 9.8251,
      "duration": 0.1243,
      "velocity": 94,
      "chip": "ym2612"
    },
    {
      "channel": 0,
      "note": 94,
      "start": 9.9524,
      "duration": 0.2639,
      "velocity": 100,
      "chip": "ym2612"
    },
    {
      "channel": 1,
      "note": 89,
      "start": 9.953,
      "duration": 0.2634,
      "velocity": 100,
      "chip": "ym2612"
    },
    {
      "channel": 2,
      "note": 85,
      "start": 9.9537,
      "duration": 0.2628,
      "velocity": 100,
      "chip": "ym2612"
    },
    {
      "channel": 4,
      "note": 54,
      "start": 9.954,
      "duration": 0.0541,
      "velocity": 94,
      "chip": "ym2612"
    },
    {
      "channel": 4,
      "note": 54,
      "start": 10.0416,
      "duration": 0.175,
      "velocity": 94,
      "chip": "ym2612"
    },
    {
      "channel": 0,
      "note": 87,
      "start": 10.2498,
      "duration": 0.0151,
      "velocity": 100,
      "chip": "ym2612"
    },
    {
      "channel": 1,
      "note": 82,
      "start": 10.25,
      "duration": 0.015,
      "velocity": 100,
      "chip": "ym2612"
    },
    {
      "channel": 2,
      "note": 78,
      "start": 10.2502,
      "duration": 0.0149,
      "velocity": 100,
      "chip": "ym2612"
    },
    {
      "channel": 4,
      "note": 56,
      "start": 10.2505,
      "duration": 0.1479,
      "velocity": 94,
      "chip": "ym2612"
    },
    {
      "channel": 0,
      "note": 89,
      "start": 10.2983,
      "duration": 0.1398,
      "velocity": 100,
      "chip": "ym2612"
    },
    {
      "channel": 1,
      "note": 84,
      "start": 10.2985,
      "duration": 0.1397,
      "velocity": 100,
      "chip": "ym2612"
    },
    {
      "channel": 2,
      "note": 80,
      "start": 10.2987,
      "duration": 0.1395,
      "velocity": 100,
      "chip": "ym2612"
    },
    {
      "channel": 4,
      "note": 56,
      "start": 10.4318,
      "duration": 0.175,
      "velocity": 94,
      "chip": "ym2612"
    },
    {
      "channel": 0,
      "note": 90,
      "start": 10.4403,
      "duration": 0.1662,
      "velocity": 100,
      "chip": "ym2612"
    },
    {
      "channel": 1,
      "note": 85,
      "start": 10.4405,
      "duration": 0.1661,
      "velocity": 100,
      "chip": "ym2612"
    },
    {
      "channel": 2,
      "note": 82,
      "start": 10.4407,
      "duration": 0.166,
      "velocity": 100,
      "chip": "ym2612"
    },
    {
      "channel": 0,
      "note": 94,
      "start": 10.64,
      "duration": 0.1483,
      "velocity": 100,
      "chip": "ym2612"
    },
    {
      "channel": 1,
      "note": 86,
      "start": 10.6402,
      "duration": 0.1482,
      "velocity": 100,
      "chip": "ym2612"
    },
    {
      "channel": 2,
      "note": 83,
      "start": 10.6404,
      "duration": 0.1481,
      "velocity": 100,
      "chip": "ym2612"
    },
    {
      "channel": 4,
      "note": 53,
      "start": 10.6407,
      "duration": 0.148,
      "velocity": 94,
      "chip": "ym2612"
    },
    {
      "channel": 0,
      "note": 92,
      "start": 10.8218,
      "duration": 0.1749,
      "velocity": 100,
      "chip": "ym2612"
    },
    {
      "channel": 1,
      "note": 87,
      "start": 10.822,
      "duration": 0.1748,
      "velocity": 100,
      "chip": "ym2612"
    },
    {
      "channel": 2,
      "note": 84,
      "start": 10.8222,
      "duration": 0.1746,
      "velocity": 100,
      "chip": "ym2612"
    },
    {
      "channel": 4,
      "note": 53,
      "start": 10.8225,
      "duration": 0.1745,
      "velocity": 94,
      "chip": "ym2612"
    },
    {
      "channel": 0,
      "note": 94,
      "start": 11.0301,
      "duration": 0.0151,
      "velocity": 100,
      "chip": "ym2612"
    },
    {
      "channel": 1,
      "note": 87,
      "start": 11.0304,
      "duration": 0.015,
      "velocity": 100,
      "chip": "ym2612"
    },
    {
      "channel": 2,
      "note": 80,
      "start": 11.0305,
      "duration": 0.0149,
      "velocity": 100,
      "chip": "ym2612"
    },
    {
      "channel": 4,
      "note": 58,
      "start": 11.0308,
      "duration": 0.1312,
      "velocity": 94,
      "chip": "ym2612"
    },
    {
      "channel": 0,
      "note": 95,
      "start": 11.0619,
      "duration": 0.1564,
      "velocity": 100,
      "chip": "ym2612"
    },
    {
      "channel": 1,
      "note": 86,
      "start": 11.0622,
      "duration": 0.1563,
      "velocity": 100,
      "chip": "ym2612"
    },
    {
      "channel": 2,
      "note": 80,
      "start": 11.0624,
      "duration": 0.1562,
      "velocity": 100,
      "chip": "ym2612"
    },
    {
      "channel": 4,
      "note": 58,
      "start": 11.2122,
      "duration": 0.1584,
      "velocity": 94,
      "chip": "ym2612"
    },
    {
      "channel": 0,
      "note": 89,
      "start": 11.2207,
      "duration": 0.1495,
      "velocity": 100,
      "chip": "ym2612"
    },
    {
      "channel": 1,
      "note": 83,
      "start": 11.2209,
      "duration": 0.1494,
      "velocity": 100,
      "chip": "ym2612"
    },
    {
      "channel": 2,
      "note": 80,
      "start": 11.2211,
      "duration": 0.1493,
      "velocity": 100,
      "chip": "ym2612"
    },
    {
      "channel": 0,
      "note": 92,
      "start": 11.4036,
      "duration": 0.1483,
      "velocity": 100,
      "chip": "ym2612"
    },
    {
      "channel": 1,
      "note": 86,
      "start": 11.4039,
      "duration": 0.1482,
      "velocity": 100,
      "chip": "ym2612"
    },
    {
      "channel": 2,
      "note": 83,
      "start": 11.4041,
      "duration": 0.1481,
      "velocity": 100,
      "chip": "ym2612"
    },
    {
      "channel": 4,
      "note": 51,
      "start": 11.4043,
      "duration": 0.148,
      "velocity": 94,
      "chip": "ym2612"
    },
    {
      "channel": 0,
      "note": 90,
      "start": 11.5854,
      "duration": 0.1749,
      "velocity": 100,
      "chip": "ym2612"
    },
    {
      "channel": 1,
      "note": 85,
      "start": 11.5857,
      "duration": 0.1748,
      "velocity": 100,
      "chip": "ym2612"
    },
    {
      "channel": 2,
      "note": 82,
      "start": 11.5859,
      "duration": 0.1746,
      "velocity": 100,
      "chip": "ym2612"
    },
    {
      "channel": 4,
      "note": 51,
      "start": 11.5861,
      "duration": 0.1745,
      "velocity": 94,
      "chip": "ym2612"
    },
    {
      "channel": 0,
      "note": 92,
      "start": 11.7938,
      "duration": 0.0159,
      "velocity": 100,
      "chip": "ym2612"
    },
    {
      "channel": 1,
      "note": 85,
      "start": 11.794,
      "duration": 0.0158,
      "velocity": 100,
      "chip": "ym2612"
    },
    {
      "channel": 2,
      "note": 78,
      "start": 11.7942,
      "duration": 0.0157,
      "velocity": 100,
      "chip": "ym2612"
    },
    {
      "channel": 4,
      "note": 56,
      "start": 11.7945,
      "duration": 0.1479,
      "velocity": 94,
      "chip": "ym2612"
    },
    {
      "channel": 0,
      "note": 93,
      "start": 11.8423,
      "duration": 0.1398,
      "velocity": 100,
      "chip": "ym2612"
    },
    {
      "channel": 1,
      "note": 84,
      "start": 11.8425,
      "duration": 0.1397,
      "velocity": 100,
      "chip": "ym2612"
    },
    {
      "channel": 2,
      "note": 78,
      "start": 11.8427,
      "duration": 0.1395,
      "velocity": 100,
      "chip": "ym2612"
    },
    {
      "channel": 4,
      "note": 56,
      "start": 11.9759,
      "duration": 0.175,
      "velocity": 94,
      "chip": "ym2612"
    },
    {
      "channel": 0,
      "note": 87,
      "start": 11.9843,
      "duration": 0.1662,
      "velocity": 100,
      "chip": "ym2612"
    },
    {
      "channel": 1,
      "note": 81,
      "start": 11.9845,
      "duration": 0.1661,
      "velocity": 100,
      "chip": "ym2612"
    },
    {
      "channel": 2,
      "note": 78,
      "start": 11.9847,
      "duration": 0.166,
      "velocity": 100,
      "chip": "ym2612"
    },
    {
      "channel": 0,
      "note": 89,
      "start": 12.184,
      "duration": 0.3567,
      "velocity": 100,
      "chip": "ym2612"
    },
    {
      "channel": 1,
      "note": 87,
      "start": 12.1842,
      "duration": 0.3566,
      "velocity": 100,
      "chip": "ym2612"
    },
    {
      "channel": 2,
      "note": 80,
      "start": 12.1844,
      "duration": 0.3565,
      "velocity": 100,
      "chip": "ym2612"
    },
    {
      "channel": 4,
      "note": 49,
      "start": 12.1847,
      "duration": 0.1479,
      "velocity": 94,
      "chip": "ym2612"
    },
    {
      "channel": 4,
      "note": 51,
      "start": 12.366,
      "duration": 0.175,
      "velocity": 94,
      "chip": "ym2612"
    },
    {
      "channel": 0,
      "note": 97,
      "start": 12.5742,
      "duration": 0.1483,
      "velocity": 100,
      "chip": "ym2612"
    },
    {
      "channel": 1,
      "note": 92,
      "start": 12.5744,
      "duration": 0.3566,
      "velocity": 100,
      "chip": "ym2612"
    },
    {
      "channel": 2,
      "note": 86,
      "start": 12.5746,
      "duration": 0.3565,
      "velocity": 100,
      "chip": "ym2612"
    },
    {
      "channel": 4,
      "note": 52,
      "start": 12.5749,
      "duration": 0.148,
      "velocity": 94,
      "chip": "ym2612"
    },
    {
      "channel": 0,
      "note": 95,
      "start": 12.756,
      "duration": 0.1749,
      "velocity": 100,
      "chip": "ym2612"
    },
    {
      "channel": 4,
      "note": 53,
      "start": 12.7564,
      "duration": 0.1749,
      "velocity": 94,
      "chip": "ym2612"
    },
    {
      "channel": 0,
      "note": 94,
      "start": 12.9643,
      "duration": 0.2643,
      "velocity": 100,
      "chip": "ym2612"
    },
    {
      "channel": 1,
      "note": 89,
      "start": 12.9646,
      "duration": 0.2641,
      "velocity": 100,
      "chip": "ym2612"
    },
    {
      "channel": 2,
      "note": 85,
      "start": 12.9648,
      "duration": 0.264,
      "velocity": 100,
      "chip": "ym2612"
    },
    {
      "channel": 4,
      "note": 54,
      "start": 12.965,
      "duration": 0.0554,
      "velocity": 94,
      "chip": "ym2612"
    },
    {
      "channel": 4,
      "note": 54,
      "start": 13.0539,
      "duration": 0.175,
      "velocity": 94,
      "chip": "ym2612"
    },
    {
      "channel": 0,
      "note": 87,
      "start": 13.2621,
      "duration": 0.0151,
      "velocity": 100,
      "chip": "ym2612"
    },
    {
      "channel": 1,
      "note": 82,
      "start": 13.2623,
      "duration": 0.015,
      "velocity": 100,
      "chip": "ym2612"
    },
    {
      "channel": 2,
      "note": 78,
      "start": 13.2625,
      "duration": 0.0149,
      "velocity": 100,
      "chip": "ym2612"
    },
    {
      "channel": 4,
      "note": 56,
      "start": 13.2628,
      "duration": 0.1312,
      "velocity": 94,
      "chip": "ym2612"
    },
    {
      "channel": 0,
      "note": 89,
      "start": 13.2939,
      "duration": 0.1564,
      "velocity": 100,
      "chip": "ym2612"
    },
    {
      "channel": 1,
      "note": 84,
      "start": 13.2941,
      "duration": 0.1563,
      "velocity": 100,
      "chip": "ym2612"
    },
    {
      "channel": 2,
      "note": 80,
      "start": 13.2943,
      "duration": 0.1562,
      "velocity": 100,
      "chip": "ym2612"
    },
    {
      "channel": 4,
      "note": 56,
      "start": 13.4441,
      "duration": 0.1584,
      "velocity": 94,
      "chip": "ym2612"
    },
    {
      "channel": 0,
      "note": 90,
      "start": 13.4526,
      "duration": 0.1495,
      "velocity": 100,
      "chip": "ym2612"
    },
    {
      "channel": 1,
      "note": 85,
      "start": 13.4529,
      "duration": 0.1494,
      "velocity": 100,
      "chip": "ym2612"
    },
    {
      "channel": 2,
      "note": 82,
      "start": 13.453,
      "duration": 0.1493,
      "velocity": 100,
      "chip": "ym2612"
    },
    {
      "channel": 0,
      "note": 94,
      "start": 13.6356,
      "duration": 0.1483,
      "velocity": 100,
      "chip": "ym2612"
    },
    {
      "channel": 1,
      "note": 86,
      "start": 13.6358,
      "duration": 0.1482,
      "velocity": 100,
      "chip": "ym2612"
    },
    {
      "channel": 2,
      "note": 83,
      "start": 13.636,
      "duration": 0.1481,
      "velocity": 100,
      "chip": "ym2612"
    },
    {
      "channel": 4,
      "note": 53,
      "start": 13.6363,
      "duration": 0.148,
      "velocity": 94,
      "chip": "ym2612"
    },
    {
      "channel": 0,
      "note": 92,
      "start": 13.8174,
      "duration": 0.1749,
      "velocity": 100,
      "chip": "ym2612"
    },
    {
      "channel": 1,
      "note": 87,
      "start": 13.8176,
      "duration": 0.1748,
      "velocity": 100,
      "chip": "ym2612"
    },
    {
      "channel": 2,
      "note": 84,
      "start": 13.8178,
      "duration": 0.1746,
      "velocity": 100,
      "chip": "ym2612"
    },
    {
      "channel": 4,
      "note": 53,
      "start": 13.8181,
      "duration": 0.1745,
      "velocity": 94,
      "chip": "ym2612"
    },
    {
      "channel": 0,
      "note": 94,
      "start": 14.0257,
      "duration": 0.0159,
      "velocity": 100,
      "chip": "ym2612"
    },
    {
      "channel": 1,
      "note": 87,
      "start": 14.026,
      "duration": 0.0158,
      "velocity": 100,
      "chip": "ym2612"
    },
    {
      "channel": 2,
      "note": 80,
      "start": 14.0262,
      "duration": 0.0157,
      "velocity": 100,
      "chip": "ym2612"
    },
    {
      "channel": 4,
      "note": 58,
      "start": 14.0264,
      "duration": 0.1479,
      "velocity": 94,
      "chip": "ym2612"
    },
    {
      "channel": 0,
      "note": 95,
      "start": 14.0742,
      "duration": 0.1398,
      "velocity": 100,
      "chip": "ym2612"
    },
    {
      "channel": 1,
      "note": 86,
      "start": 14.0745,
      "duration": 0.1397,
      "velocity": 100,
      "chip": "ym2612"
    },
    {
      "channel": 2,
      "note": 80,
      "start": 14.0746,
      "duration": 0.1395,
      "velocity": 100,
      "chip": "ym2612"
    },
    {
      "channel": 4,
      "note": 58,
      "start": 14.2078,
      "duration": 0.175,
      "velocity": 94,
      "chip": "ym2612"
    },
    {
      "channel": 0,
      "note": 89,
      "start": 14.2171,
      "duration": 0.1653,
      "velocity": 100,
      "chip": "ym2612"
    },
    {
      "channel": 1,
      "note": 83,
      "start": 14.2174,
      "duration": 0.1652,
      "velocity": 100,
      "chip": "ym2612"
    },
    {
      "channel": 2,
      "note": 80,
      "start": 14.2176,
      "duration": 0.1651,
      "velocity": 100,
      "chip": "ym2612"
    },
    {
      "channel": 0,
      "note": 90,
      "start": 14.4159,
      "duration": 0.3567,
      "velocity": 100,
      "chip": "ym2612"
    },
    {
      "channel": 1,
      "note": 85,
      "start": 14.4161,
      "duration": 0.3566,
      "velocity": 100,
      "chip": "ym2612"
    },
    {
      "channel": 2,
      "note": 81,
      "start": 14.4163,
      "duration": 0.3565,
      "velocity": 100,
      "chip": "ym2612"
    },
    {
      "channel": 4,
      "note": 59,
      "start": 14.4166,
      "duration": 0.1479,
      "velocity": 94,
      "chip": "ym2612"
    },
    {
      "channel": 4,
      "note": 59,
      "start": 14.598,
      "duration": 0.175,
      "velocity": 94,
      "chip": "ym2612"
    },
    {
      "channel": 0,
      "note": 92,
      "start": 14.8061,
      "duration": 0.0159,
      "velocity": 100,
      "chip": "ym2612"
    },
    {
      "channel": 1,
      "note": 88,
      "start": 14.8063,
      "duration": 0.0158,
      "velocity": 100,
      "chip": "ym2612"
    },
    {
      "channel": 2,
      "note": 83,
      "start": 14.8065,
      "duration": 0.0157,
      "velocity": 100,
      "chip": "ym2612"
    },
    {
      "channel": 4,
      "note": 57,
      "start": 14.8068,
      "duration": 0.1479,
      "velocity": 94,
      "chip": "ym2612"
    },
    {
      "channel": 0,
      "note": 98,
      "start": 14.8546,
      "duration": 0.1398,
      "velocity": 100,
      "chip": "ym2612"
    },
    {
      "channel": 1,
      "note": 92,
      "start": 14.8549,
      "duration": 0.1397,
      "velocity": 100,
      "chip": "ym2612"
    },
    {
      "channel": 2,
      "note": 90,
      "start": 14.855,
      "duration": 0.1395,
      "velocity": 100,
      "chip": "ym2612"
    },
    {
      "channel": 4,
      "note": 57,
      "start": 14.9882,
      "duration": 0.1751,
      "velocity": 94,
      "chip": "ym2612"
    },
    {
      "channel": 0,
      "note": 97,
      "start": 14.9966,
      "duration": 0.1662,
      "velocity": 100,
      "chip": "ym2612"
    },
    {
      "channel": 1,
      "note": 91,
      "start": 14.9969,
      "duration": 0.1661,
      "velocity": 100,
      "chip": "ym2612"
    },
    {
      "channel": 2,
      "note": 88,
      "start": 14.9971,
      "duration": 0.166,
      "velocity": 100,
      "chip": "ym2612"
    },
    {
      "channel": 0,
      "note": 95,
      "start": 15.1963,
      "duration": 0.1192,
      "velocity": 100,
      "chip": "ym2612"
    },
    {
      "channel": 1,
      "note": 90,
      "start": 15.1966,
      "duration": 0.1191,
      "velocity": 100,
      "chip": "ym2612"
    },
    {
      "channel": 2,
      "note": 84,
      "start": 15.1968,
      "duration": 0.119,
      "velocity": 100,
      "chip": "ym2612"
    },
    {
      "channel": 4,
      "note": 56,
      "start": 15.1971,
      "duration": 0.0384,
      "velocity": 94,
      "chip": "ym2612"
    },
    {
      "channel": 4,
      "note": 51,
      "start": 15.2385,
      "duration": 0.0671,
      "velocity": 94,
      "chip": "ym2612"
    },
    {
      "channel": 4,
      "note": 44,
      "start": 15.3085,
      "duration": 0.0161,
      "velocity": 94,
      "chip": "ym2612"
    },
    {
      "channel": 0,
      "note": 87,
      "start": 15.4246,
      "duration": 0.0999,
      "velocity": 99,
      "chip": "ym2612"
    },
    {
      "channel": 1,
      "note": 82,
      "start": 15.4248,
      "duration": 0.0998,
      "velocity": 99,
      "chip": "ym2612"
    },
    {
      "channel": 2,
      "note": 78,
      "start": 15.425,
      "duration": 0.0996,
      "velocity": 99,
      "chip": "ym2612"
    },
    {
      "channel": 3,
      "note": 72,
      "start": 15.4252,
      "duration": 0.0995,
      "velocity": 99,
      "chip": "ym2612"
    },
    {
      "channel": 0,
      "note": 88,
      "start": 15.5579,
      "duration": 0.0999,
      "velocity": 99,
      "chip": "ym2612"
    },
    {
      "channel": 1,
      "note": 83,
      "start": 15.5581,
      "duration": 0.0998,
      "velocity": 99,
      "chip": "ym2612"
    },
    {
      "channel": 2,
      "note": 79,
      "start": 15.5583,
      "duration": 0.0996,
      "velocity": 99,
      "chip": "ym2612"
    },
    {
      "channel": 3,
      "note": 73,
      "start": 15.5585,
      "duration": 0.0995,
      "velocity": 99,
      "chip": "ym2612"
    },
    {
      "channel": 0,
      "note": 89,
      "start": 15.7079,
      "duration": 0.0999,
      "velocity": 99,
      "chip": "ym2612"
    },
    {
      "channel": 1,
      "note": 84,
      "start": 15.7081,
      "duration": 0.0998,
      "velocity": 99,
      "chip": "ym2612"
    },
    {
      "channel": 2,
      "note": 80,
      "start": 15.7083,
      "duration": 0.0996,
      "velocity": 99,
      "chip": "ym2612"
    },
    {
      "channel": 3,
      "note": 74,
      "start": 15.7085,
      "duration": 0.0995,
      "velocity": 99,
      "chip": "ym2612"
    },
    {
      "channel": 0,
      "note": 90,
      "start": 15.8412,
      "duration": 0.0999,
      "velocity": 99,
      "chip": "ym2612"
    },
    {
      "channel": 1,
      "note": 85,
      "start": 15.8415,
      "duration": 0.0998,
      "velocity": 99,
      "chip": "ym2612"
    },
    {
      "channel": 2,
      "note": 81,
      "start": 15.8417,
      "duration": 0.0996,
      "velocity": 99,
      "chip": "ym2612"
    },
    {
      "channel": 3,
      "note": 75,
      "start": 15.8419,
      "duration": 0.0995,
      "velocity": 99,
      "chip": "ym2612"
    },
    {
      "channel": 0,
      "note": 91,
      "start": 15.9746,
      "duration": 0.0999,
      "velocity": 99,
      "chip": "ym2612"
    },
    {
      "channel": 1,
      "note": 86,
      "start": 15.9748,
      "duration": 0.0998,
      "velocity": 99,
      "chip": "ym2612"
    },
    {
      "channel": 2,
      "note": 82,
      "start": 15.975,
      "duration": 0.0996,
      "velocity": 99,
      "chip": "ym2612"
    },
    {
      "channel": 3,
      "note": 76,
      "start": 15.9752,
      "duration": 0.0995,
      "velocity": 99,
      "chip": "ym2612"
    },
    {
      "channel": 0,
      "note": 92,
      "start": 16.108,
      "duration": 17.5675,
      "velocity": 99,
      "chip": "ym2612"
    },
    {
      "channel": 1,
      "note": 87,
      "start": 16.1083,
      "duration": 17.5672,
      "velocity": 99,
      "chip": "ym2612"
    },
    {
      "channel": 2,
      "note": 83,
      "start": 16.1085,
      "duration": 17.567,
      "velocity": 99,
      "chip": "ym2612"
    },
    {
      "channel": 3,
      "note": 77,
      "start": 16.1087,
      "duration": 17.5668,
      "velocity": 99,
      "chip": "ym2612"
    },
    {
      "channel": 4,
      "note": 49,
      "start": 16.109,
      "duration": 0.0551,
      "velocity": 94,
      "chip": "ym2612"
    }
  ]
}