{
  "track_name": "10 - Sisyphus' Stage",
  "duration_sec": 99.106,
  "sample_rate": 44100,
  "note_count": 1428,
  "unique_pitches": 53,
  "pitch_range": 75,
  "avg_note_duration": 0.2704,
  "reconstruction_stats": {
    "notes_reconstructed": 1428,
    "keyon_events": 1428,
    "keyoff_events": 1424,
    "orphan_keyons": 4,
    "unique_pitches": 53,
    "pitch_range": 75,
    "avg_duration_sec": 0.2704
  },
  "metadata": {
    "source": "T\\Teenage Mutant Ninja Turtles - Tournament Fighters\\10 - Sisyphus' Stage.vgz"
  },
  "notes": [
    {
      "channel": 3,
      "note": 54,
      "start": 0.0,
      "duration": 0.0208,
      "velocity": 120,
      "chip": "ym2612"
    },
    {
      "channel": 0,
      "note": 63,
      "start": 0.0021,
      "duration": 0.0332,
      "velocity": 112,
      "chip": "ym2612"
    },
    {
      "channel": 2,
      "note": 63,
      "start": 0.0027,
      "duration": 0.0327,
      "velocity": 112,
      "chip": "ym2612"
    },
    {
      "channel": 1,
      "note": 42,
      "start": 0.0052,
      "duration": 0.0063,
      "velocity": 127,
      "chip": "ym2612"
    },
    {
      "channel": 1,
      "note": 47,
      "start": 0.0127,
      "duration": 0.0009,
      "velocity": 127,
      "chip": "ym2612"
    },
    {
      "channel": 1,
      "note": 42,
      "start": 0.0207,
      "duration": 0.0213,
      "velocity": 127,
      "chip": "ym2612"
    },
    {
      "channel": 3,
      "note": 80,
      "start": 0.036,
      "duration": 0.0111,
      "velocity": 118,
      "chip": "ym2612"
    },
    {
      "channel": 0,
      "note": 58,
      "start": 0.0419,
      "duration": 0.0175,
      "velocity": 112,
      "chip": "ym2612"
    },
    {
      "channel": 2,
      "note": 58,
      "start": 0.0423,
      "duration": 0.0172,
      "velocity": 112,
      "chip": "ym2612"
    },
    {
      "channel": 1,
      "note": 47,
      "start": 0.0435,
      "duration": 0.0018,
      "velocity": 127,
      "chip": "ym2612"
    },
    {
      "channel": 3,
      "note": 42,
      "start": 0.0488,
      "duration": 0.0166,
      "velocity": 127,
      "chip": "ym2612"
    },
    {
      "channel": 1,
      "note": 42,
      "start": 0.0499,
      "duration": 0.0065,
      "velocity": 127,
      "chip": "ym2612"
    },
    {
      "channel": 1,
      "note": 47,
      "start": 0.0584,
      "duration": 0.001,
      "velocity": 127,
      "chip": "ym2612"
    },
    {
      "channel": 0,
      "note": 56,
      "start": 0.0625,
      "duration": 0.0198,
      "velocity": 112,
      "chip": "ym2612"
    },
    {
      "channel": 2,
      "note": 56,
      "start": 0.063,
      "duration": 0.0195,
      "velocity": 112,
      "chip": "ym2612"
    },
    {
      "channel": 1,
      "note": 42,
      "start": 0.0654,
      "duration": 0.0071,
      "velocity": 127,
      "chip": "ym2612"
    },
    {
      "channel": 3,
      "note": 80,
      "start": 0.067,
      "duration": 0.0097,
      "velocity": 118,
      "chip": "ym2612"
    },
    {
      "channel": 1,
      "note": 47,
      "start": 0.0735,
      "duration": 0.0012,
      "velocity": 127,
      "chip": "ym2612"
    },
    {
      "channel": 3,
      "note": 42,
      "start": 0.0793,
      "duration": 0.0159,
      "velocity": 127,
      "chip": "ym2612"
    },
    {
      "channel": 1,
      "note": 42,
      "start": 0.0805,
      "duration": 0.0073,
      "velocity": 127,
      "chip": "ym2612"
    },
    {
      "channel": 0,
      "note": 51,
      "start": 0.0865,
      "duration": 0.0063,
      "velocity": 112,
      "chip": "ym2612"
    },
    {
      "channel": 2,
      "note": 51,
      "start": 0.0868,
      "duration": 0.0061,
      "velocity": 112,
      "chip": "ym2612"
    },
    {
      "channel": 1,
      "note": 47,
      "start": 0.0889,
      "duration": 0.0011,
      "velocity": 127,
      "chip": "ym2612"
    },
    {
      "channel": 1,
      "note": 42,
      "start": 0.0951,
      "duration": 0.0073,
      "velocity": 127,
      "chip": "ym2612"
    },
    {
      "channel": 3,
      "note": 80,
      "start": 0.0971,
      "duration": 0.0102,
      "velocity": 118,
      "chip": "ym2612"
    },
    {
      "channel": 1,
      "note": 47,
      "start": 0.1036,
      "duration": 0.0019,
      "velocity": 127,
      "chip": "ym2612"
    },
    {
      "channel": 0,
      "note": 49,
      "start": 0.1085,
      "duration": 0.0109,
      "velocity": 112,
      "chip": "ym2612"
    },
    {
      "channel": 2,
      "note": 49,
      "start": 0.109,
      "duration": 0.0108,
      "velocity": 112,
      "chip": "ym2612"
    },
    {
      "channel": 3,
      "note": 42,
      "start": 0.1099,
      "duration": 0.0165,
      "velocity": 127,
      "chip": "ym2612"
    },
    {
      "channel": 1,
      "note": 42,
      "start": 0.111,
      "duration": 0.0074,
      "velocity": 127,
      "chip": "ym2612"
    },
    {
      "channel": 1,
      "note": 47,
      "start": 0.1198,
      "duration": 0.0011,
      "velocity": 127,
      "chip": "ym2612"
    },
    {
      "channel": 0,
      "note": 51,
      "start": 0.1247,
      "duration": 0.0113,
      "velocity": 112,
      "chip": "ym2612"
    },
    {
      "channel": 2,
      "note": 51,
      "start": 0.1252,
      "duration": 0.011,
      "velocity": 112,
      "chip": "ym2612"
    },
    {
      "channel": 1,
      "note": 42,
      "start": 0.1263,
      "duration": 0.0075,
      "velocity": 127,
      "chip": "ym2612"
    },
    {
      "channel": 3,
      "note": 80,
      "start": 0.1284,
      "duration": 0.0106,
      "velocity": 118,
      "chip": "ym2612"
    },
    {
      "channel": 1,
      "note": 47,
      "start": 0.135,
      "duration": 0.0011,
      "velocity": 127,
      "chip": "ym2612"
    },
    {
      "channel": 0,
      "note": 63,
      "start": 0.1402,
      "duration": 0.0412,
      "velocity": 112,
      "chip": "ym2612"
    },
    {
      "channel": 2,
      "note": 63,
      "start": 0.1406,
      "duration": 0.041,
      "velocity": 112,
      "chip": "ym2612"
    },
    {
      "channel": 3,
      "note": 54,
      "start": 0.1413,
      "duration": 0.0271,
      "velocity": 120,
      "chip": "ym2612"
    },
    {
      "channel": 1,
      "note": 42,
      "start": 0.1424,
      "duration": 0.0166,
      "velocity": 127,
      "chip": "ym2612"
    },
    {
      "channel": 1,
      "note": 47,
      "start": 0.1601,
      "duration": 0.0019,
      "velocity": 127,
      "chip": "ym2612"
    },
    {
      "channel": 1,
      "note": 42,
      "start": 0.1683,
      "duration": 0.0215,
      "velocity": 127,
      "chip": "ym2612"
    },
    {
      "channel": 3,
      "note": 80,
      "start": 0.1822,
      "duration": 0.0129,
      "velocity": 118,
      "chip": "ym2612"
    },
    {
      "channel": 0,
      "note": 58,
      "start": 0.1898,
      "duration": 0.018,
      "velocity": 112,
      "chip": "ym2612"
    },
    {
      "channel": 2,
      "note": 58,
      "start": 0.1902,
      "duration": 0.0178,
      "velocity": 112,
      "chip": "ym2612"
    },
    {
      "channel": 1,
      "note": 47,
      "start": 0.1923,
      "duration": 0.001,
      "velocity": 127,
      "chip": "ym2612"
    },
    {
      "channel": 3,
      "note": 42,
      "start": 0.1968,
      "duration": 0.0169,
      "velocity": 127,
      "chip": "ym2612"
    },
    {
      "channel": 1,
      "note": 42,
      "start": 0.1991,
      "duration": 0.0062,
      "velocity": 127,
      "chip": "ym2612"
    },
    {
      "channel": 1,
      "note": 47,
      "start": 0.2068,
      "duration": 0.0011,
      "velocity": 127,
      "chip": "ym2612"
    },
    {
      "channel": 0,
      "note": 56,
      "start": 0.212,
      "duration": 0.0222,
      "velocity": 112,
      "chip": "ym2612"
    },
    {
      "channel": 2,
      "note": 56,
      "start": 0.2124,
      "duration": 0.0219,
      "velocity": 112,
      "chip": "ym2612"
    },
    {
      "channel": 1,
      "note": 42,
      "start": 0.2135,
      "duration": 0.0099,
      "velocity": 127,
      "chip": "ym2612"
    },
    {
      "channel": 3,
      "note": 80,
      "start": 0.2154,
      "duration": 0.0131,
      "velocity": 118,
      "chip": "ym2612"
    },
    {
      "channel": 1,
      "note": 47,
      "start": 0.2248,
      "duration": 0.001,
      "velocity": 127,
      "chip": "ym2612"
    },
    {
      "channel": 3,
      "note": 42,
      "start": 0.2303,
      "duration": 0.0157,
      "velocity": 127,
      "chip": "ym2612"
    },
    {
      "channel": 1,
      "note": 42,
      "start": 0.2314,
      "duration": 0.0071,
      "velocity": 127,
      "chip": "ym2612"
    },
    {
      "channel": 0,
      "note": 51,
      "start": 0.2373,
      "duration": 0.0063,
      "velocity": 112,
      "chip": "ym2612"
    },
    {
      "channel": 2,
      "note": 51,
      "start": 0.2376,
      "duration": 0.0061,
      "velocity": 112,
      "chip": "ym2612"
    },
    {
      "channel": 1,
      "note": 47,
      "start": 0.2398,
      "duration": 0.0019,
      "velocity": 127,
      "chip": "ym2612"
    },
    {
      "channel": 1,
      "note": 42,
      "start": 0.2459,
      "duration": 0.0083,
      "velocity": 127,
      "chip": "ym2612"
    },
    {
      "channel": 3,
      "note": 80,
      "start": 0.2485,
      "duration": 0.0098,
      "velocity": 118,
      "chip": "ym2612"
    },
    {
      "channel": 1,
      "note": 47,
      "start": 0.2554,
      "duration": 0.001,
      "velocity": 127,
      "chip": "ym2612"
    },
    {
      "channel": 0,
      "note": 49,
      "start": 0.2603,
      "duration": 0.0215,
      "velocity": 112,
      "chip": "ym2612"
    },
    {
      "channel": 2,
      "note": 49,
      "start": 0.2608,
      "duration": 0.0211,
      "velocity": 112,
      "chip": "ym2612"
    },
    {
      "channel": 3,
      "note": 42,
      "start": 0.2617,
      "duration": 0.0147,
      "velocity": 127,
      "chip": "ym2612"
    },
    {
      "channel": 1,
      "note": 42,
      "start": 0.2628,
      "duration": 0.0066,
      "velocity": 127,
      "chip": "ym2612"
    },
    {
      "channel": 1,
      "note": 47,
      "start": 0.2705,
      "duration": 0.001,
      "velocity": 127,
      "chip": "ym2612"
    },
    {
      "channel": 1,
      "note": 42,
      "start": 0.2763,
      "duration": 0.0076,
      "velocity": 127,
      "chip": "ym2612"
    },
    {
      "channel": 3,
      "note": 80,
      "start": 0.2782,
      "duration": 0.0105,
      "velocity": 118,
      "chip": "ym2612"
    },
    {
      "channel": 1,
      "note": 47,
      "start": 0.2849,
      "duration": 0.0019,
      "velocity": 127,
      "chip": "ym2612"
    },
    {
      "channel": 0,
      "note": 63,
      "start": 0.2898,
      "duration": 0.045,
      "velocity": 112,
      "chip": "ym2612"
    },
    {
      "channel": 2,
      "note": 63,
      "start": 0.2902,
      "duration": 0.0446,
      "velocity": 112,
      "chip": "ym2612"
    },
    {
      "channel": 3,
      "note": 54,
      "start": 0.291,
      "duration": 0.0424,
      "velocity": 120,
      "chip": "ym2612"
    },
    {
      "channel": 1,
      "note": 42,
      "start": 0.2921,
      "duration": 0.0165,
      "velocity": 127,
      "chip": "ym2612"
    },
    {
      "channel": 1,
      "note": 47,
      "start": 0.3107,
      "duration": 0.001,
      "velocity": 127,
      "chip": "ym2612"
    },
    {
      "channel": 1,
      "note": 42,
      "start": 0.3333,
      "duration": 0.0076,
      "velocity": 127,
      "chip": "ym2612"
    },
    {
      "channel": 3,
      "note": 80,
      "start": 0.3352,
      "duration": 0.0099,
      "velocity": 118,
      "chip": "ym2612"
    },
    {
      "channel": 0,
      "note": 58,
      "start": 0.3408,
      "duration": 0.0167,
      "velocity": 112,
      "chip": "ym2612"
    },
    {
      "channel": 2,
      "note": 58,
      "start": 0.3412,
      "duration": 0.0166,
      "velocity": 112,
      "chip": "ym2612"
    },
    {
      "channel": 1,
      "note": 47,
      "start": 0.3423,
      "duration": 0.001,
      "velocity": 127,
      "chip": "ym2612"
    },
    {
      "channel": 3,
      "note": 42,
      "start": 0.3477,
      "duration": 0.0157,
      "velocity": 127,
      "chip": "ym2612"
    },
    {
      "channel": 1,
      "note": 42,
      "start": 0.3488,
      "duration": 0.0066,
      "velocity": 127,
      "chip": "ym2612"
    },
    {
      "channel": 1,
      "note": 47,
      "start": 0.3566,
      "duration": 0.0011,
      "velocity": 127,
      "chip": "ym2612"
    },
    {
      "channel": 0,
      "note": 56,
      "start": 0.3616,
      "duration": 0.02,
      "velocity": 112,
      "chip": "ym2612"
    },
    {
      "channel": 2,
      "note": 56,
      "start": 0.3621,
      "duration": 0.0195,
      "velocity": 112,
      "chip": "ym2612"
    },
    {
      "channel": 1,
      "note": 42,
      "start": 0.3633,
      "duration": 0.0075,
      "velocity": 127,
      "chip": "ym2612"
    },
    {
      "channel": 3,
      "note": 80,
      "start": 0.3653,
      "duration": 0.0105,
      "velocity": 118,
      "chip": "ym2612"
    },
    {
      "channel": 1,
      "note": 47,
      "start": 0.373,
      "duration": 0.001,
      "velocity": 127,
      "chip": "ym2612"
    },
    {
      "channel": 3,
      "note": 42,
      "start": 0.3776,
      "duration": 0.0167,
      "velocity": 127,
      "chip": "ym2612"
    },
    {
      "channel": 1,
      "note": 42,
      "start": 0.3788,
      "duration": 0.008,
      "velocity": 127,
      "chip": "ym2612"
    },
    {
      "channel": 0,
      "note": 51,
      "start": 0.3846,
      "duration": 0.0064,
      "velocity": 112,
      "chip": "ym2612"
    },
    {
      "channel": 2,
      "note": 51,
      "start": 0.3849,
      "duration": 0.0063,
      "velocity": 112,
      "chip": "ym2612"
    },
    {
      "channel": 1,
      "note": 47,
      "start": 0.3879,
      "duration": 0.0013,
      "velocity": 127,
      "chip": "ym2612"
    },
    {
      "channel": 1,
      "note": 42,
      "start": 0.3943,
      "duration": 0.0073,
      "velocity": 127,
      "chip": "ym2612"
    },
    {
      "channel": 3,
      "note": 80,
      "start": 0.3963,
      "duration": 0.0103,
      "velocity": 118,
      "chip": "ym2612"
    },
    {
      "channel": 1,
      "note": 47,
      "start": 0.4028,
      "duration": 0.001,
      "velocity": 127,
      "chip": "ym2612"
    },
    {
      "channel": 0,
      "note": 49,
      "start": 0.4078,
      "duration": 0.0099,
      "velocity": 112,
      "chip": "ym2612"
    },
    {
      "channel": 2,
      "note": 49,
      "start": 0.4083,
      "duration": 0.0097,
      "velocity": 112,
      "chip": "ym2612"
    },
    {
      "channel": 3,
      "note": 42,
      "start": 0.409,
      "duration": 0.0155,
      "velocity": 127,
      "chip": "ym2612"
    },
    {
      "channel": 1,
      "note": 42,
      "start": 0.4102,
      "duration": 0.0065,
      "velocity": 127,
      "chip": "ym2612"
    },
    {
      "channel": 1,
      "note": 47,
      "start": 0.418,
      "duration": 0.002,
      "velocity": 127,
      "chip": "ym2612"
    },
    {
      "channel": 0,
      "note": 51,
      "start": 0.423,
      "duration": 0.0119,
      "velocity": 112,
      "chip": "ym2612"
    },
    {
      "channel": 2,
      "note": 51,
      "start": 0.4234,
      "duration": 0.0115,
      "velocity": 112,
      "chip": "ym2612"
    },
    {
      "channel": 1,
      "note": 42,
      "start": 0.4245,
      "duration": 0.0074,
      "velocity": 127,
      "chip": "ym2612"
    },
    {
      "channel": 3,
      "note": 80,
      "start": 0.4274,
      "duration": 0.0095,
      "velocity": 118,
      "chip": "ym2612"
    },
    {
      "channel": 1,
      "note": 47,
      "start": 0.4338,
      "duration": 0.0011,
      "velocity": 127,
      "chip": "ym2612"
    },
    {
      "channel": 0,
      "note": 63,
      "start": 0.438,
      "duration": 0.0451,
      "velocity": 112,
      "chip": "ym2612"
    },
    {
      "channel": 2,
      "note": 63,
      "start": 0.4385,
      "duration": 0.0447,
      "velocity": 112,
      "chip": "ym2612"
    },
    {
      "channel": 3,
      "note": 54,
      "start": 0.4392,
      "duration": 0.0292,
      "velocity": 120,
      "chip": "ym2612"
    },
    {
      "channel": 1,
      "note": 42,
      "start": 0.4516,
      "duration": 0.0062,
      "velocity": 127,
      "chip": "ym2612"
    },
    {
      "channel": 1,
      "note": 47,
      "start": 0.459,
      "duration": 0.001,
      "velocity": 127,
      "chip": "ym2612"
    },
    {
      "channel": 1,
      "note": 42,
      "start": 0.4682,
      "duration": 0.0212,
      "velocity": 127,
      "chip": "ym2612"
    },
    {
      "channel": 3,
      "note": 80,
      "start": 0.4837,
      "duration": 0.011,
      "velocity": 118,
      "chip": "ym2612"
    },
    {
      "channel": 0,
      "note": 58,
      "start": 0.4893,
      "duration": 0.0182,
      "velocity": 112,
      "chip": "ym2612"
    },
    {
      "channel": 2,
      "note": 58,
      "start": 0.4897,
      "duration": 0.018,
      "velocity": 112,
      "chip": "ym2612"
    },
    {
      "channel": 1,
      "note": 47,
      "start": 0.4909,
      "duration": 0.001,
      "velocity": 127,
      "chip": "ym2612"
    },
    {
      "channel": 3,
      "note": 42,
      "start": 0.4965,
      "duration": 0.016,
      "velocity": 127,
      "chip": "ym2612"
    },
    {
      "channel": 1,
      "note": 42,
      "start": 0.4977,
      "duration": 0.0065,
      "velocity": 127,
      "chip": "ym2612"
    },
    {
      "channel": 1,
      "note": 47,
      "start": 0.5065,
      "duration": 0.0011,
      "velocity": 127,
      "chip": "ym2612"
    },
    {
      "channel": 0,
      "note": 56,
      "start": 0.5108,
      "duration": 0.0196,
      "velocity": 112,
      "chip": "ym2612"
    },
    {
      "channel": 2,
      "note": 56,
      "start": 0.5113,
      "duration": 0.0193,
      "velocity": 112,
      "chip": "ym2612"
    },
    {
      "channel": 1,
      "note": 42,
      "start": 0.5124,
      "duration": 0.0084,
      "velocity": 127,
      "chip": "ym2612"
    },
    {
      "channel": 3,
      "note": 80,
      "start": 0.5152,
      "duration": 0.0095,
      "velocity": 118,
      "chip": "ym2612"
    },
    {
      "channel": 1,
      "note": 47,
      "start": 0.5219,
      "duration": 0.001,
      "velocity": 127,
      "chip": "ym2612"
    },
    {
      "channel": 3,
      "note": 42,
      "start": 0.5275,
      "duration": 0.0159,
      "velocity": 127,
      "chip": "ym2612"
    },
    {
      "channel": 1,
      "note": 42,
      "start": 0.5285,
      "duration": 0.0072,
      "velocity": 127,
      "chip": "ym2612"
    },
    {
      "channel": 0,
      "note": 51,
      "start": 0.5344,
      "duration": 0.0065,
      "velocity": 112,
      "chip": "ym2612"
    },
    {
      "channel": 2,
      "note": 51,
      "start": 0.5347,
      "duration": 0.0063,
      "velocity": 112,
      "chip": "ym2612"
    },
    {
      "channel": 1,
      "note": 47,
      "start": 0.5371,
      "duration": 0.001,
      "velocity": 127,
      "chip": "ym2612"
    },
    {
      "channel": 1,
      "note": 42,
      "start": 0.5432,
      "duration": 0.0073,
      "velocity": 127,
      "chip": "ym2612"
    },
    {
      "channel": 3,
      "note": 80,
      "start": 0.5451,
      "duration": 0.0107,
      "velocity": 118,
      "chip": "ym2612"
    },
    {
      "channel": 1,
      "note": 47,
      "start": 0.5519,
      "duration": 0.0019,
      "velocity": 127,
      "chip": "ym2612"
    },
    {
      "channel": 0,
      "note": 49,
      "start": 0.557,
      "duration": 0.0131,
      "velocity": 112,
      "chip": "ym2612"
    },
    {
      "channel": 2,
      "note": 49,
      "start": 0.5575,
      "duration": 0.0127,
      "velocity": 112,
      "chip": "ym2612"
    },
    {
      "channel": 3,
      "note": 42,
      "start": 0.5582,
      "duration": 0.0154,
      "velocity": 127,
      "chip": "ym2612"
    },
    {
      "channel": 0,
      "note": 49,
      "start": 0.5714,
      "duration": 0.0138,
      "velocity": 112,
      "chip": "ym2612"
    },
    {
      "channel": 2,
      "note": 49,
      "start": 0.5717,
      "duration": 0.0135,
      "velocity": 112,
      "chip": "ym2612"
    },
    {
      "channel": 0,
      "note": 63,
      "start": 0.5869,
      "duration": 0.0431,
      "velocity": 112,
      "chip": "ym2612"
    },
    {
      "channel": 2,
      "note": 63,
      "start": 0.5875,
      "duration": 0.0428,
      "velocity": 112,
      "chip": "ym2612"
    },
    {
      "channel": 3,
      "note": 54,
      "start": 0.5878,
      "duration": 0.0285,
      "velocity": 120,
      "chip": "ym2612"
    },
    {
      "channel": 1,
      "note": 42,
      "start": 0.5899,
      "duration": 0.0172,
      "velocity": 127,
      "chip": "ym2612"
    },
    {
      "channel": 1,
      "note": 47,
      "start": 0.6083,
      "duration": 0.0009,
      "velocity": 127,
      "chip": "ym2612"
    },
    {
      "channel": 1,
      "note": 42,
      "start": 0.6163,
      "duration": 0.0218,
      "velocity": 127,
      "chip": "ym2612"
    },
    {
      "channel": 3,
      "note": 80,
      "start": 0.6308,
      "duration": 0.0125,
      "velocity": 118,
      "chip": "ym2612"
    },
    {
      "channel": 0,
      "note": 58,
      "start": 0.638,
      "duration": 0.0178,
      "velocity": 112,
      "chip": "ym2612"
    },
    {
      "channel": 2,
      "note": 58,
      "start": 0.6383,
      "duration": 0.0176,
      "velocity": 112,
      "chip": "ym2612"
    },
    {
      "channel": 1,
      "note": 47,
      "start": 0.6404,
      "duration": 0.001,
      "velocity": 127,
      "chip": "ym2612"
    },
    {
      "channel": 3,
      "note": 42,
      "start": 0.6449,
      "duration": 0.0165,
      "velocity": 127,
      "chip": "ym2612"
    },
    {
      "channel": 1,
      "note": 42,
      "start": 0.6461,
      "duration": 0.0075,
      "velocity": 127,
      "chip": "ym2612"
    },
    {
      "channel": 1,
      "note": 47,
      "start": 0.6548,
      "duration": 0.0011,
      "velocity": 127,
      "chip": "ym2612"
    },
    {
      "channel": 0,
      "note": 56,
      "start": 0.6597,
      "duration": 0.0189,
      "velocity": 112,
      "chip": "ym2612"
    },
    {
      "channel": 2,
      "note": 56,
      "start": 0.6602,
      "duration": 0.0186,
      "velocity": 112,
      "chip": "ym2612"
    },
    {
      "channel": 1,
      "note": 42,
      "start": 0.6613,
      "duration": 0.0074,
      "velocity": 127,
      "chip": "ym2612"
    },
    {
      "channel": 3,
      "note": 80,
      "start": 0.6633,
      "duration": 0.0105,
      "velocity": 118,
      "chip": "ym2612"
    },
    {
      "channel": 1,
      "note": 47,
      "start": 0.6698,
      "duration": 0.0012,
      "velocity": 127,
      "chip": "ym2612"
    },
    {
      "channel": 3,
      "note": 42,
      "start": 0.6756,
      "duration": 0.0157,
      "velocity": 127,
      "chip": "ym2612"
    },
    {
      "channel": 1,
      "note": 42,
      "start": 0.6767,
      "duration": 0.0072,
      "velocity": 127,
      "chip": "ym2612"
    },
    {
      "channel": 0,
      "note": 51,
      "start": 0.6827,
      "duration": 0.0063,
      "velocity": 112,
      "chip": "ym2612"
    },
    {
      "channel": 2,
      "note": 51,
      "start": 0.683,
      "duration": 0.0061,
      "velocity": 112,
      "chip": "ym2612"
    },
    {
      "channel": 1,
      "note": 47,
      "start": 0.6851,
      "duration": 0.0021,
      "velocity": 127,
      "chip": "ym2612"
    },
    {
      "channel": 1,
      "note": 42,
      "start": 0.6913,
      "duration": 0.0083,
      "velocity": 127,
      "chip": "ym2612"
    },
    {
      "channel": 3,
      "note": 80,
      "start": 0.6941,
      "duration": 0.0094,
      "velocity": 118,
      "chip": "ym2612"
    },
    {
      "channel": 1,
      "note": 47,
      "start": 0.7007,
      "duration": 0.001,
      "velocity": 127,
      "chip": "ym2612"
    },
    {
      "channel": 0,
      "note": 49,
      "start": 0.7047,
      "duration": 0.0109,
      "velocity": 112,
      "chip": "ym2612"
    },
    {
      "channel": 2,
      "note": 49,
      "start": 0.7053,
      "duration": 0.0106,
      "velocity": 112,
      "chip": "ym2612"
    },
    {
      "channel": 3,
      "note": 42,
      "start": 0.7061,
      "duration": 0.0163,
      "velocity": 127,
      "chip": "ym2612"
    },
    {
      "channel": 1,
      "note": 42,
      "start": 0.7083,
      "duration": 0.0063,
      "velocity": 127,
      "chip": "ym2612"
    },
    {
      "channel": 1,
      "note": 47,
      "start": 0.7158,
      "duration": 0.0011,
      "velocity": 127,
      "chip": "ym2612"
    },
    {
      "channel": 0,
      "note": 51,
      "start": 0.7207,
      "duration": 0.0112,
      "velocity": 112,
      "chip": "ym2612"
    },
    {
      "channel": 2,
      "note": 51,
      "start": 0.7211,
      "duration": 0.011,
      "velocity": 112,
      "chip": "ym2612"
    },
    {
      "channel": 1,
      "note": 42,
      "start": 0.7222,
      "duration": 0.0076,
      "velocity": 127,
      "chip": "ym2612"
    },
    {
      "channel": 3,
      "note": 80,
      "start": 0.7244,
      "duration": 0.0106,
      "velocity": 118,
      "chip": "ym2612"
    },
    {
      "channel": 1,
      "note": 47,
      "start": 0.7309,
      "duration": 0.0011,
      "velocity": 127,
      "chip": "ym2612"
    },
    {
      "channel": 0,
      "note": 63,
      "start": 0.7361,
      "duration": 0.0451,
      "velocity": 112,
      "chip": "ym2612"
    },
    {
      "channel": 2,
      "note": 63,
      "start": 0.7366,
      "duration": 0.0446,
      "velocity": 112,
      "chip": "ym2612"
    },
    {
      "channel": 3,
      "note": 54,
      "start": 0.7374,
      "duration": 0.0424,
      "velocity": 120,
      "chip": "ym2612"
    },
    {
      "channel": 1,
      "note": 42,
      "start": 0.7385,
      "duration": 0.0166,
      "velocity": 127,
      "chip": "ym2612"
    },
    {
      "channel": 1,
      "note": 47,
      "start": 0.7571,
      "duration": 0.001,
      "velocity": 127,
      "chip": "ym2612"
    },
    {
      "channel": 1,
      "note": 42,
      "start": 0.7797,
      "duration": 0.0078,
      "velocity": 127,
      "chip": "ym2612"
    },
    {
      "channel": 3,
      "note": 80,
      "start": 0.7818,
      "duration": 0.01,
      "velocity": 118,
      "chip": "ym2612"
    },
    {
      "channel": 0,
      "note": 58,
      "start": 0.7874,
      "duration": 0.0171,
      "velocity": 112,
      "chip": "ym2612"
    },
    {
      "channel": 2,
      "note": 58,
      "start": 0.7877,
      "duration": 0.017,
      "velocity": 112,
      "chip": "ym2612"
    },
    {
      "channel": 1,
      "note": 47,
      "start": 0.7889,
      "duration": 0.001,
      "velocity": 127,
      "chip": "ym2612"
    },
    {
      "channel": 3,
      "note": 42,
      "start": 0.7944,
      "duration": 0.016,
      "velocity": 127,
      "chip": "ym2612"
    },
    {
      "channel": 1,
      "note": 42,
      "start": 0.7956,
      "duration": 0.0066,
      "velocity": 127,
      "chip": "ym2612"
    },
    {
      "channel": 1,
      "note": 47,
      "start": 0.8036,
      "duration": 0.0011,
      "velocity": 127,
      "chip": "ym2612"
    },
    {
      "channel": 0,
      "note": 56,
      "start": 0.8086,
      "duration": 0.0198,
      "velocity": 112,
      "chip": "ym2612"
    },
    {
      "channel": 2,
      "note": 56,
      "start": 0.8091,
      "duration": 0.0194,
      "velocity": 112,
      "chip": "ym2612"
    },
    {
      "channel": 1,
      "note": 42,
      "start": 0.8103,
      "duration": 0.0074,
      "velocity": 127,
      "chip": "ym2612"
    },
    {
      "channel": 3,
      "note": 80,
      "start": 0.8122,
      "duration": 0.0104,
      "velocity": 118,
      "chip": "ym2612"
    },
    {
      "channel": 1,
      "note": 47,
      "start": 0.8189,
      "duration": 0.0018,
      "velocity": 127,
      "chip": "ym2612"
    },
    {
      "channel": 3,
      "note": 42,
      "start": 0.8244,
      "duration": 0.0169,
      "velocity": 127,
      "chip": "ym2612"
    },
    {
      "channel": 1,
      "note": 42,
      "start": 0.8256,
      "duration": 0.0084,
      "velocity": 127,
      "chip": "ym2612"
    },
    {
      "channel": 0,
      "note": 51,
      "start": 0.8316,
      "duration": 0.0064,
      "velocity": 112,
      "chip": "ym2612"
    },
    {
      "channel": 2,
      "note": 51,
      "start": 0.832,
      "duration": 0.0062,
      "velocity": 112,
      "chip": "ym2612"
    },
    {
      "channel": 1,
      "note": 47,
      "start": 0.8352,
      "duration": 0.001,
      "velocity": 127,
      "chip": "ym2612"
    },
    {
      "channel": 1,
      "note": 42,
      "start": 0.8412,
      "duration": 0.0072,
      "velocity": 127,
      "chip": "ym2612"
    },
    {
      "channel": 3,
      "note": 80,
      "start": 0.8429,
      "duration": 0.0107,
      "velocity": 118,
      "chip": "ym2612"
    },
    {
      "channel": 1,
      "note": 47,
      "start": 0.8498,
      "duration": 0.001,
      "velocity": 127,
      "chip": "ym2612"
    },
    {
      "channel": 0,
      "note": 49,
      "start": 0.8548,
      "duration": 0.0218,
      "velocity": 112,
      "chip": "ym2612"
    },
    {
      "channel": 2,
      "note": 49,
      "start": 0.8553,
      "duration": 0.0214,
      "velocity": 112,
      "chip": "ym2612"
    },
    {
      "channel": 3,
      "note": 42,
      "start": 0.856,
      "duration": 0.0149,
      "velocity": 127,
      "chip": "ym2612"
    },
    {
      "channel": 1,
      "note": 42,
      "start": 0.8572,
      "duration": 0.0066,
      "velocity": 127,
      "chip": "ym2612"
    },
    {
      "channel": 1,
      "note": 47,
      "start": 0.8649,
      "duration": 0.001,
      "velocity": 127,
      "chip": "ym2612"
    },
    {
      "channel": 1,
      "note": 42,
      "start": 0.8708,
      "duration": 0.0077,
      "velocity": 127,
      "chip": "ym2612"
    },
    {
      "channel": 3,
      "note": 80,
      "start": 0.8729,
      "duration": 0.0106,
      "velocity": 118,
      "chip": "ym2612"
    },
    {
      "channel": 1,
      "note": 47,
      "start": 0.8806,
      "duration": 0.001,
      "velocity": 127,
      "chip": "ym2612"
    },
    {
      "channel": 0,
      "note": 63,
      "start": 0.8847,
      "duration": 0.0452,
      "velocity": 112,
      "chip": "ym2612"
    },
    {
      "channel": 2,
      "note": 63,
      "start": 0.8852,
      "duration": 0.0449,
      "velocity": 112,
      "chip": "ym2612"
    },
    {
      "channel": 3,
      "note": 54,
      "start": 0.8859,
      "duration": 0.0294,
      "velocity": 120,
      "chip": "ym2612"
    },
    {
      "channel": 1,
      "note": 42,
      "start": 0.8982,
      "duration": 0.0063,
      "velocity": 127,
      "chip": "ym2612"
    },
    {
      "channel": 1,
      "note": 47,
      "start": 0.9056,
      "duration": 0.001,
      "velocity": 127,
      "chip": "ym2612"
    },
    {
      "channel": 1,
      "note": 42,
      "start": 0.9151,
      "duration": 0.021,
      "velocity": 127,
      "chip": "ym2612"
    },
    {
      "channel": 3,
      "note": 80,
      "start": 0.9305,
      "duration": 0.0108,
      "velocity": 118,
      "chip": "ym2612"
    },
    {
      "channel": 0,
      "note": 58,
      "start": 0.9361,
      "duration": 0.0176,
      "velocity": 112,
      "chip": "ym2612"
    },
    {
      "channel": 2,
      "note": 58,
      "start": 0.9364,
      "duration": 0.0175,
      "velocity": 112,
      "chip": "ym2612"
    },
    {
      "channel": 1,
      "note": 47,
      "start": 0.9376,
      "duration": 0.001,
      "velocity": 127,
      "chip": "ym2612"
    },
    {
      "channel": 3,
      "note": 42,
      "start": 0.9431,
      "duration": 0.0155,
      "velocity": 127,
      "chip": "ym2612"
    },
    {
      "channel": 1,
      "note": 42,
      "start": 0.9442,
      "duration": 0.0065,
      "velocity": 127,
      "chip": "ym2612"
    },
    {
      "channel": 1,
      "note": 47,
      "start": 0.9517,
      "duration": 0.002,
      "velocity": 127,
      "chip": "ym2612"
    },
    {
      "channel": 0,
      "note": 56,
      "start": 0.9569,
      "duration": 0.0196,
      "velocity": 112,
      "chip": "ym2612"
    },
    {
      "channel": 2,
      "note": 56,
      "start": 0.9573,
      "duration": 0.0193,
      "velocity": 112,
      "chip": "ym2612"
    },
    {
      "channel": 1,
      "note": 42,
      "start": 0.9585,
      "duration": 0.0083,
      "velocity": 127,
      "chip": "ym2612"
    },
    {
      "channel": 3,
      "note": 80,
      "start": 0.9613,
      "duration": 0.0095,
      "velocity": 118,
      "chip": "ym2612"
    },
    {
      "channel": 1,
      "note": 47,
      "start": 0.9679,
      "duration": 0.0012,
      "velocity": 127,
      "chip": "ym2612"
    },
    {
      "channel": 3,
      "note": 42,
      "start": 0.9726,
      "duration": 0.0167,
      "velocity": 127,
      "chip": "ym2612"
    },
    {
      "channel": 1,
      "note": 42,
      "start": 0.9746,
      "duration": 0.0071,
      "velocity": 127,
      "chip": "ym2612"
    },
    {
      "channel": 0,
      "note": 51,
      "start": 0.9805,
      "duration": 0.0063,
      "velocity": 112,
      "chip": "ym2612"
    },
    {
      "channel": 2,
      "note": 51,
      "start": 0.9808,
      "duration": 0.0062,
      "velocity": 112,
      "chip": "ym2612"
    },
    {
      "channel": 1,
      "note": 47,
      "start": 0.9829,
      "duration": 0.0012,
      "velocity": 127,
      "chip": "ym2612"
    },
    {
      "channel": 1,
      "note": 42,
      "start": 0.9892,
      "duration": 0.0075,
      "velocity": 127,
      "chip": "ym2612"
    },
    {
      "channel": 3,
      "note": 80,
      "start": 0.9913,
      "duration": 0.0102,
      "velocity": 118,
      "chip": "ym2612"
    },
    {
      "channel": 1,
      "note": 47,
      "start": 0.9978,
      "duration": 0.001,
      "velocity": 127,
      "chip": "ym2612"
    },
    {
      "channel": 0,
      "note": 49,
      "start": 1.0027,
      "duration": 0.0109,
      "velocity": 112,
      "chip": "ym2612"
    },
    {
      "channel": 2,
      "note": 49,
      "start": 1.0032,
      "duration": 0.0108,
      "velocity": 112,
      "chip": "ym2612"
    },
    {
      "channel": 3,
      "note": 42,
      "start": 1.0039,
      "duration": 0.0166,
      "velocity": 127,
      "chip": "ym2612"
    },
    {
      "channel": 1,
      "note": 42,
      "start": 1.0051,
      "duration": 0.0066,
      "velocity": 127,
      "chip": "ym2612"
    },
    {
      "channel": 1,
      "note": 47,
      "start": 1.0139,
      "duration": 0.001,
      "velocity": 127,
      "chip": "ym2612"
    },
    {
      "channel": 0,
      "note": 51,
      "start": 1.0179,
      "duration": 0.012,
      "velocity": 112,
      "chip": "ym2612"
    },
    {
      "channel": 2,
      "note": 51,
      "start": 1.0182,
      "duration": 0.0119,
      "velocity": 112,
      "chip": "ym2612"
    },
    {
      "channel": 1,
      "note": 42,
      "start": 1.0205,
      "duration": 0.0073,
      "velocity": 127,
      "chip": "ym2612"
    },
    {
      "channel": 3,
      "note": 80,
      "start": 1.0224,
      "duration": 0.0096,
      "velocity": 118,
      "chip": "ym2612"
    },
    {
      "channel": 1,
      "note": 47,
      "start": 1.0288,
      "duration": 0.0012,
      "velocity": 127,
      "chip": "ym2612"
    },
    {
      "channel": 3,
      "note": 54,
      "start": 1.0347,
      "duration": 0.018,
      "velocity": 120,
      "chip": "ym2612"
    },
    {
      "channel": 1,
      "note": 42,
      "start": 1.0359,
      "duration": 0.0166,
      "velocity": 127,
      "chip": "ym2612"
    },
    {
      "channel": 1,
      "note": 47,
      "start": 1.0538,
      "duration": 0.0017,
      "velocity": 127,
      "chip": "ym2612"
    },
    {
      "channel": 3,
      "note": 81,
      "start": 1.0545,
      "duration": 0.0082,
      "velocity": 119,
      "chip": "ym2612"
    },
    {
      "channel": 1,
      "note": 42,
      "start": 1.0626,
      "duration": 0.0214,
      "velocity": 127,
      "chip": "ym2612"
    },
    {
      "channel": 3,
      "note": 80,
      "start": 1.0785,
      "duration": 0.0102,
      "velocity": 118,
      "chip": "ym2612"
    },
    {
      "channel": 1,
      "note": 47,
      "start": 1.0851,
      "duration": 0.0018,
      "velocity": 127,
      "chip": "ym2612"
    },
    {
      "channel": 3,
      "note": 42,
      "start": 1.0905,
      "duration": 0.0085,
      "velocity": 127,
      "chip": "ym2612"
    },
    {
      "channel": 1,
      "note": 42,
      "start": 1.0915,
      "duration": 0.0074,
      "velocity": 127,
      "chip": "ym2612"
    },
    {
      "channel": 1,
      "note": 47,
      "start": 1.1006,
      "duration": 0.0013,
      "velocity": 127,
      "chip": "ym2612"
    },
    {
      "channel": 3,
      "note": 81,
      "start": 1.1008,
      "duration": 0.0059,
      "velocity": 119,
      "chip": "ym2612"
    },
    {
      "channel": 1,
      "note": 42,
      "start": 1.1066,
      "duration": 0.0073,
      "velocity": 127,
      "chip": "ym2612"
    },
    {
      "channel": 3,
      "note": 80,
      "start": 1.1085,
      "duration": 0.0105,
      "velocity": 118,
      "chip": "ym2612"
    },
    {
      "channel": 1,
      "note": 47,
      "start": 1.1151,
      "duration": 0.0012,
      "velocity": 127,
      "chip": "ym2612"
    },
    {
      "channel": 3,
      "note": 42,
      "start": 1.1208,
      "duration": 0.0081,
      "velocity": 127,
      "chip": "ym2612"
    },
    {
      "channel": 1,
      "note": 42,
      "start": 1.122,
      "duration": 0.0069,
      "velocity": 127,
      "chip": "ym2612"
    },
    {
      "channel": 1,
      "note": 47,
      "start": 1.1305,
      "duration": 0.0026,
      "velocity": 127,
      "chip": "ym2612"
    },
    {
      "channel": 3,
      "note": 81,
      "start": 1.1308,
      "duration": 0.0063,
      "velocity": 119,
      "chip": "ym2612"
    },
    {
      "channel": 1,
      "note": 42,
      "start": 1.1369,
      "duration": 0.0077,
      "velocity": 127,
      "chip": "ym2612"
    },
    {
      "channel": 3,
      "note": 80,
      "start": 1.1392,
      "duration": 0.0104,
      "velocity": 118,
      "chip": "ym2612"
    },
    {
      "channel": 1,
      "note": 47,
      "start": 1.1466,
      "duration": 0.001,
      "velocity": 127,
      "chip": "ym2612"
    },
    {
      "channel": 3,
      "note": 42,
      "start": 1.1512,
      "duration": 0.0086,
      "velocity": 127,
      "chip": "ym2612"
    },
    {
      "channel": 1,
      "note": 42,
      "start": 1.1534,
      "duration": 0.0063,
      "velocity": 127,
      "chip": "ym2612"
    },
    {
      "channel": 1,
      "note": 47,
      "start": 1.1613,
      "duration": 0.0012,
      "velocity": 127,
      "chip": "ym2612"
    },
    {
      "channel": 3,
      "note": 81,
      "start": 1.1615,
      "duration": 0.0059,
      "velocity": 119,
      "chip": "ym2612"
    },
    {
      "channel": 1,
      "note": 42,
      "start": 1.1674,
      "duration": 0.0079,
      "velocity": 127,
      "chip": "ym2612"
    },
    {
      "channel": 3,
      "note": 80,
      "start": 1.1691,
      "duration": 0.0109,
      "velocity": 118,
      "chip": "ym2612"
    },
    {
      "channel": 1,
      "note": 47,
      "start": 1.1764,
      "duration": 0.001,
      "velocity": 127,
      "chip": "ym2612"
    },
    {
      "channel": 0,
      "note": 58,
      "start": 1.1817,
      "duration": 0.0197,
      "velocity": 100,
      "chip": "ym2612"
    },
    {
      "channel": 1,
      "note": 66,
      "start": 1.1824,
      "duration": 0.0191,
      "velocity": 102,
      "chip": "ym2612"
    },
    {
      "channel": 2,
      "note": 63,
      "start": 1.1827,
      "duration": 0.0488,
      "velocity": 112,
      "chip": "ym2612"
    },
    {
      "channel": 3,
      "note": 54,
      "start": 1.1839,
      "duration": 0.0274,
      "velocity": 120,
      "chip": "ym2612"
    },
    {
      "channel": 0,
      "note": 58,
      "start": 1.2109,
      "duration": 0.0234,
      "velocity": 100,
      "chip": "ym2612"
    },
    {
      "channel": 1,
      "note": 66,
      "start": 1.2112,
      "duration": 0.0234,
      "velocity": 102,
      "chip": "ym2612"
    },
    {
      "channel": 3,
      "note": 80,
      "start": 1.2152,
      "duration": 0.0278,
      "velocity": 118,
      "chip": "ym2612"
    },
    {
      "channel": 2,
      "note": 58,
      "start": 1.2382,
      "duration": 0.0187,
      "velocity": 112,
      "chip": "ym2612"
    },
    {
      "channel": 0,
      "note": 58,
      "start": 1.2456,
      "duration": 0.0052,
      "velocity": 100,
      "chip": "ym2612"
    },
    {
      "channel": 1,
      "note": 66,
      "start": 1.2459,
      "duration": 0.0052,
      "velocity": 102,
      "chip": "ym2612"
    },
    {
      "channel": 3,
      "note": 105,
      "start": 1.2461,
      "duration": 0.0141,
      "velocity": 119,
      "chip": "ym2612"
    },
    {
      "channel": 0,
      "note": 58,
      "start": 1.2619,
      "duration": 0.0067,
      "velocity": 100,
      "chip": "ym2612"
    },
    {
      "channel": 1,
      "note": 66,
      "start": 1.2622,
      "duration": 0.0066,
      "velocity": 102,
      "chip": "ym2612"
    },
    {
      "channel": 2,
      "note": 56,
      "start": 1.2625,
      "duration": 0.0208,
      "velocity": 112,
      "chip": "ym2612"
    },
    {
      "channel": 3,
      "note": 80,
      "start": 1.2629,
      "duration": 0.0074,
      "velocity": 118,
      "chip": "ym2612"
    },
    {
      "channel": 3,
      "note": 80,
      "start": 1.2718,
      "duration": 0.0036,
      "velocity": 118,
      "chip": "ym2612"
    },
    {
      "channel": 0,
      "note": 58,
      "start": 1.2792,
      "duration": 0.006,
      "velocity": 100,
      "chip": "ym2612"
    },
    {
      "channel": 1,
      "note": 66,
      "start": 1.2794,
      "duration": 0.006,
      "velocity": 102,
      "chip": "ym2612"
    },
    {
      "channel": 3,
      "note": 80,
      "start": 1.2797,
      "duration": 0.0075,
      "velocity": 118,
      "chip": "ym2612"
    },
    {
      "channel": 2,
      "note": 51,
      "start": 1.2871,
      "duration": 0.0076,
      "velocity": 112,
      "chip": "ym2612"
    },
    {
      "channel": 3,
      "note": 80,
      "start": 1.2886,
      "duration": 0.0037,
      "velocity": 118,
      "chip": "ym2612"
    },
    {
      "channel": 0,
      "note": 58,
      "start": 1.2961,
      "duration": 0.0062,
      "velocity": 100,
      "chip": "ym2612"
    },
    {
      "channel": 1,
      "note": 66,
      "start": 1.2964,
      "duration": 0.0062,
      "velocity": 102,
      "chip": "ym2612"
    },
    {
      "channel": 3,
      "note": 80,
      "start": 1.2967,
      "duration": 0.0131,
      "velocity": 118,
      "chip": "ym2612"
    },
    {
      "channel": 0,
      "note": 59,
      "start": 1.3136,
      "duration": 0.0067,
      "velocity": 100,
      "chip": "ym2612"
    },
    {
      "channel": 1,
      "note": 67,
      "start": 1.3139,
      "duration": 0.0067,
      "velocity": 102,
      "chip": "ym2612"
    },
    {
      "channel": 2,
      "note": 49,
      "start": 1.3143,
      "duration": 0.0101,
      "velocity": 112,
      "chip": "ym2612"
    },
    {
      "channel": 3,
      "note": 80,
      "start": 1.3147,
      "duration": 0.014,
      "velocity": 118,
      "chip": "ym2612"
    },
    {
      "channel": 0,
      "note": 59,
      "start": 1.3305,
      "duration": 0.0066,
      "velocity": 100,
      "chip": "ym2612"
    },
    {
      "channel": 1,
      "note": 67,
      "start": 1.3307,
      "duration": 0.0066,
      "velocity": 102,
      "chip": "ym2612"
    },
    {
      "channel": 2,
      "note": 51,
      "start": 1.3311,
      "duration": 0.012,
      "velocity": 112,
      "chip": "ym2612"
    },
    {
      "channel": 3,
      "note": 105,
      "start": 1.3314,
      "duration": 0.0141,
      "velocity": 119,
      "chip": "ym2612"
    },
    {
      "channel": 0,
      "note": 58,
      "start": 1.3469,
      "duration": 0.017,
      "velocity": 100,
      "chip": "ym2612"
    },
    {
      "channel": 1,
      "note": 66,
      "start": 1.3471,
      "duration": 0.017,
      "velocity": 102,
      "chip": "ym2612"
    },
    {
      "channel": 2,
      "note": 63,
      "start": 1.3474,
      "duration": 0.0441,
      "velocity": 112,
      "chip": "ym2612"
    },
    {
      "channel": 3,
      "note": 54,
      "start": 1.3481,
      "duration": 0.0292,
      "velocity": 120,
      "chip": "ym2612"
    },
    {
      "channel": 0,
      "note": 58,
      "start": 1.377,
      "duration": 0.0204,
      "velocity": 100,
      "chip": "ym2612"
    },
    {
      "channel": 1,
      "note": 66,
      "start": 1.3772,
      "duration": 0.0203,
      "velocity": 102,
      "chip": "ym2612"
    },
    {
      "channel": 3,
      "note": 80,
      "start": 1.379,
      "duration": 0.0307,
      "velocity": 118,
      "chip": "ym2612"
    },
    {
      "channel": 2,
      "note": 58,
      "start": 1.4004,
      "duration": 0.0237,
      "velocity": 112,
      "chip": "ym2612"
    },
    {
      "channel": 0,
      "note": 58,
      "start": 1.4114,
      "duration": 0.0061,
      "velocity": 100,
      "chip": "ym2612"
    },
    {
      "channel": 1,
      "note": 66,
      "start": 1.4117,
      "duration": 0.0061,
      "velocity": 102,
      "chip": "ym2612"
    },
    {
      "channel": 3,
      "note": 105,
      "start": 1.4119,
      "duration": 0.0147,
      "velocity": 119,
      "chip": "ym2612"
    },
    {
      "channel": 0,
      "note": 58,
      "start": 1.4283,
      "duration": 0.0065,
      "velocity": 100,
      "chip": "ym2612"
    },
    {
      "channel": 1,
      "note": 66,
      "start": 1.4286,
      "duration": 0.0064,
      "velocity": 102,
      "chip": "ym2612"
    },
    {
      "channel": 2,
      "note": 56,
      "start": 1.4289,
      "duration": 0.0203,
      "velocity": 112,
      "chip": "ym2612"
    },
    {
      "channel": 3,
      "note": 80,
      "start": 1.4293,
      "duration": 0.0071,
      "velocity": 118,
      "chip": "ym2612"
    },
    {
      "channel": 3,
      "note": 80,
      "start": 1.4379,
      "duration": 0.0035,
      "velocity": 118,
      "chip": "ym2612"
    },
    {
      "channel": 0,
      "note": 58,
      "start": 1.4451,
      "duration": 0.006,
      "velocity": 100,
      "chip": "ym2612"
    },
    {
      "channel": 1,
      "note": 66,
      "start": 1.4454,
      "duration": 0.006,
      "velocity": 102,
      "chip": "ym2612"
    },
    {
      "channel": 3,
      "note": 80,
      "start": 1.4456,
      "duration": 0.0084,
      "velocity": 118,
      "chip": "ym2612"
    },
    {
      "channel": 2,
      "note": 51,
      "start": 1.4539,
      "duration": 0.0074,
      "velocity": 112,
      "chip": "ym2612"
    },
    {
      "channel": 3,
      "note": 80,
      "start": 1.4555,
      "duration": 0.0024,
      "velocity": 118,
      "chip": "ym2612"
    },
    {
      "channel": 0,
      "note": 58,
      "start": 1.4627,
      "duration": 0.006,
      "velocity": 100,
      "chip": "ym2612"
    },
    {
      "channel": 1,
      "note": 66,
      "start": 1.4629,
      "duration": 0.0059,
      "velocity": 102,
      "chip": "ym2612"
    },
    {
      "channel": 3,
      "note": 80,
      "start": 1.4632,
      "duration": 0.013,
      "velocity": 118,
      "chip": "ym2612"
    },
    {
      "channel": 0,
      "note": 58,
      "start": 1.479,
      "duration": 0.0065,
      "velocity": 100,
      "chip": "ym2612"
    },
    {
      "channel": 1,
      "note": 66,
      "start": 1.4793,
      "duration": 0.0065,
      "velocity": 102,
      "chip": "ym2612"
    },
    {
      "channel": 2,
      "note": 49,
      "start": 1.4796,
      "duration": 0.023,
      "velocity": 112,
      "chip": "ym2612"
    },
    {
      "channel": 3,
      "note": 80,
      "start": 1.4799,
      "duration": 0.0143,
      "velocity": 118,
      "chip": "ym2612"
    },
    {
      "channel": 0,
      "note": 58,
      "start": 1.4959,
      "duration": 0.0062,
      "velocity": 100,
      "chip": "ym2612"
    },
    {
      "channel": 1,
      "note": 66,
      "start": 1.4961,
      "duration": 0.0062,
      "velocity": 102,
      "chip": "ym2612"
    },
    {
      "channel": 3,
      "note": 105,
      "start": 1.4964,
      "duration": 0.0145,
      "velocity": 119,
      "chip": "ym2612"
    },
    {
      "channel": 0,
      "note": 58,
      "start": 1.5132,
      "duration": 0.0171,
      "velocity": 100,
      "chip": "ym2612"
    },
    {
      "channel": 1,
      "note": 66,
      "start": 1.5134,
      "duration": 0.0171,
      "velocity": 102,
      "chip": "ym2612"
    },
    {
      "channel": 2,
      "note": 63,
      "start": 1.5138,
      "duration": 0.0448,
      "velocity": 112,
      "chip": "ym2612"
    },
    {
      "channel": 3,
      "note": 54,
      "start": 1.5145,
      "duration": 0.0258,
      "velocity": 120,
      "chip": "ym2612"
    },
    {
      "channel": 0,
      "note": 58,
      "start": 1.54,
      "duration": 0.0232,
      "velocity": 100,
      "chip": "ym2612"
    },
    {
      "channel": 1,
      "note": 66,
      "start": 1.5402,
      "duration": 0.0232,
      "velocity": 102,
      "chip": "ym2612"
    },
    {
      "channel": 3,
      "note": 80,
      "start": 1.5443,
      "duration": 0.0277,
      "velocity": 118,
      "chip": "ym2612"
    },
    {
      "channel": 2,
      "note": 58,
      "start": 1.5662,
      "duration": 0.0196,
      "velocity": 112,
      "chip": "ym2612"
    },
    {
      "channel": 0,
      "note": 58,
      "start": 1.5736,
      "duration": 0.0061,
      "velocity": 100,
      "chip": "ym2612"
    },
    {
      "channel": 1,
      "note": 66,
      "start": 1.5739,
      "duration": 0.0061,
      "velocity": 102,
      "chip": "ym2612"
    },
    {
      "channel": 3,
      "note": 105,
      "start": 1.5742,
      "duration": 0.0141,
      "velocity": 119,
      "chip": "ym2612"
    },
    {
      "channel": 0,
      "note": 58,
      "start": 1.59,
      "duration": 0.0066,
      "velocity": 100,
      "chip": "ym2612"
    },
    {
      "channel": 1,
      "note": 66,
      "start": 1.5903,
      "duration": 0.0066,
      "velocity": 102,
      "chip": "ym2612"
    },
    {
      "channel": 2,
      "note": 56,
      "start": 1.5907,
      "duration": 0.0207,
      "velocity": 112,
      "chip": "ym2612"
    },
    {
      "channel": 3,
      "note": 80,
      "start": 1.5911,
      "duration": 0.0082,
      "velocity": 118,
      "chip": "ym2612"
    },
    {
      "channel": 3,
      "note": 80,
      "start": 1.6007,
      "duration": 0.0027,
      "velocity": 118,
      "chip": "ym2612"
    },
    {
      "channel": 0,
      "note": 58,
      "start": 1.608,
      "duration": 0.0061,
      "velocity": 100,
      "chip": "ym2612"
    },
    {
      "channel": 1,
      "note": 66,
      "start": 1.6083,
      "duration": 0.0061,
      "velocity": 102,
      "chip": "ym2612"
    },
    {
      "channel": 3,
      "note": 80,
      "start": 1.6086,
      "duration": 0.0077,
      "velocity": 118,
      "chip": "ym2612"
    },
    {
      "channel": 2,
      "note": 51,
      "start": 1.6162,
      "duration": 0.0078,
      "velocity": 112,
      "chip": "ym2612"
    },
    {
      "channel": 3,
      "note": 80,
      "start": 1.6178,
      "duration": 0.0027,
      "velocity": 118,
      "chip": "ym2612"
    },
    {
      "channel": 0,
      "note": 58,
      "start": 1.6253,
      "duration": 0.0062,
      "velocity": 100,
      "chip": "ym2612"
    },
    {
      "channel": 1,
      "note": 66,
      "start": 1.6256,
      "duration": 0.0062,
      "velocity": 102,
      "chip": "ym2612"
    },
    {
      "channel": 3,
      "note": 80,
      "start": 1.6259,
      "duration": 0.0133,
      "velocity": 118,
      "chip": "ym2612"
    },
    {
      "channel": 0,
      "note": 61,
      "start": 1.6421,
      "duration": 0.0065,
      "velocity": 100,
      "chip": "ym2612"
    },
    {
      "channel": 1,
      "note": 69,
      "start": 1.6423,
      "duration": 0.0065,
      "velocity": 102,
      "chip": "ym2612"
    },
    {
      "channel": 2,
      "note": 49,
      "start": 1.6426,
      "duration": 0.0109,
      "velocity": 112,
      "chip": "ym2612"
    },
    {
      "channel": 3,
      "note": 80,
      "start": 1.643,
      "duration": 0.0141,
      "velocity": 118,
      "chip": "ym2612"
    },
    {
      "channel": 0,
      "note": 61,
      "start": 1.6597,
      "duration": 0.0066,
      "velocity": 100,
      "chip": "ym2612"
    },
    {
      "channel": 1,
      "note": 69,
      "start": 1.66,
      "duration": 0.0066,
      "velocity": 102,
      "chip": "ym2612"
    },
    {
      "channel": 2,
      "note": 51,
      "start": 1.6602,
      "duration": 0.0112,
      "velocity": 112,
      "chip": "ym2612"
    },
    {
      "channel": 3,
      "note": 105,
      "start": 1.6605,
      "duration": 0.0144,
      "velocity": 119,
      "chip": "ym2612"
    },
    {
      "channel": 0,
      "note": 58,
      "start": 1.6761,
      "duration": 0.0171,
      "velocity": 100,
      "chip": "ym2612"
    },
    {
      "channel": 1,
      "note": 66,
      "start": 1.6763,
      "duration": 0.0172,
      "velocity": 102,
      "chip": "ym2612"
    },
    {
      "channel": 2,
      "note": 63,
      "start": 1.6767,
      "duration": 0.0468,
      "velocity": 112,
      "chip": "ym2612"
    },
    {
      "channel": 3,
      "note": 54,
      "start": 1.6774,
      "duration": 0.0263,
      "velocity": 120,
      "chip": "ym2612"
    },
    {
      "channel": 0,
      "note": 58,
      "start": 1.7032,
      "duration": 0.023,
      "velocity": 100,
      "chip": "ym2612"
    },
    {
      "channel": 1,
      "note": 66,
      "start": 1.7035,
      "duration": 0.023,
      "velocity": 102,
      "chip": "ym2612"
    },
    {
      "channel": 3,
      "note": 80,
      "start": 1.7073,
      "duration": 0.0278,
      "velocity": 118,
      "chip": "ym2612"
    },
    {
      "channel": 2,
      "note": 58,
      "start": 1.7293,
      "duration": 0.0198,
      "velocity": 112,
      "chip": "ym2612"
    },
    {
      "channel": 0,
      "note": 58,
      "start": 1.7368,
      "duration": 0.006,
      "velocity": 100,
      "chip": "ym2612"
    },
    {
      "channel": 1,
      "note": 66,
      "start": 1.7371,
      "duration": 0.006,
      "velocity": 102,
      "chip": "ym2612"
    },
    {
      "channel": 3,
      "note": 105,
      "start": 1.7373,
      "duration": 0.0152,
      "velocity": 119,
      "chip": "ym2612"
    },
    {
      "channel": 0,
      "note": 58,
      "start": 1.7542,
      "duration": 0.0064,
      "velocity": 100,
      "chip": "ym2612"
    },
    {
      "channel": 1,
      "note": 66,
      "start": 1.7545,
      "duration": 0.0063,
      "velocity": 102,
      "chip": "ym2612"
    },
    {
      "channel": 2,
      "note": 56,
      "start": 1.7549,
      "duration": 0.0204,
      "velocity": 112,
      "chip": "ym2612"
    },
    {
      "channel": 3,
      "note": 80,
      "start": 1.7553,
      "duration": 0.0071,
      "velocity": 118,
      "chip": "ym2612"
    },
    {
      "channel": 3,
      "note": 80,
      "start": 1.7638,
      "duration": 0.0027,
      "velocity": 118,
      "chip": "ym2612"
    },
    {
      "channel": 0,
      "note": 58,
      "start": 1.7711,
      "duration": 0.0062,
      "velocity": 100,
      "chip": "ym2612"
    },
    {
      "channel": 1,
      "note": 66,
      "start": 1.7714,
      "duration": 0.0061,
      "velocity": 102,
      "chip": "ym2612"
    },
    {
      "channel": 3,
      "note": 80,
      "start": 1.7717,
      "duration": 0.0076,
      "velocity": 118,
      "chip": "ym2612"
    },
    {
      "channel": 2,
      "note": 51,
      "start": 1.7792,
      "duration": 0.0076,
      "velocity": 112,
      "chip": "ym2612"
    },
    {
      "channel": 3,
      "note": 80,
      "start": 1.7807,
      "duration": 0.0037,
      "velocity": 118,
      "chip": "ym2612"
    },
    {
      "channel": 0,
      "note": 58,
      "start": 1.7882,
      "duration": 0.0059,
      "velocity": 100,
      "chip": "ym2612"
    },
    {
      "channel": 1,
      "note": 66,
      "start": 1.7884,
      "duration": 0.0059,
      "velocity": 102,
      "chip": "ym2612"
    },
    {
      "channel": 3,
      "note": 80,
      "start": 1.7887,
      "duration": 0.013,
      "velocity": 118,
      "chip": "ym2612"
    },
    {
      "channel": 0,
      "note": 58,
      "start": 1.8055,
      "duration": 0.0067,
      "velocity": 100,
      "chip": "ym2612"
    },
    {
      "channel": 1,
      "note": 66,
      "start": 1.8058,
      "duration": 0.0067,
      "velocity": 102,
      "chip": "ym2612"
    },
    {
      "channel": 2,
      "note": 49,
      "start": 1.8061,
      "duration": 0.023,
      "velocity": 112,
      "chip": "ym2612"
    },
    {
      "channel": 3,
      "note": 80,
      "start": 1.8066,
      "duration": 0.0144,
      "velocity": 118,
      "chip": "ym2612"
    },
    {
      "channel": 0,
      "note": 58,
      "start": 1.8226,
      "duration": 0.0062,
      "velocity": 100,
      "chip": "ym2612"
    },
    {
      "channel": 1,
      "note": 66,
      "start": 1.8229,
      "duration": 0.0061,
      "velocity": 102,
      "chip": "ym2612"
    },
    {
      "channel": 3,
      "note": 105,
      "start": 1.8232,
      "duration": 0.0142,
      "velocity": 119,
      "chip": "ym2612"
    },
    {
      "channel": 0,
      "note": 58,
      "start": 1.8385,
      "duration": 0.017,
      "velocity": 100,
      "chip": "ym2612"
    },
    {
      "channel": 1,
      "note": 66,
      "start": 1.8388,
      "duration": 0.0169,
      "velocity": 102,
      "chip": "ym2612"
    },
    {
      "channel": 2,
      "note": 63,
      "start": 1.8392,
      "duration": 0.0464,
      "velocity": 112,
      "chip": "ym2612"
    },
    {
      "channel": 3,
      "note": 54,
      "start": 1.8398,
      "duration": 0.0257,
      "velocity": 120,
      "chip": "ym2612"
    },
    {
      "channel": 0,
      "note": 58,
      "start": 1.8652,
      "duration": 0.0231,
      "velocity": 100,
      "chip": "ym2612"
    },
    {
      "channel": 1,
      "note": 66,
      "start": 1.8655,
      "duration": 0.0231,
      "velocity": 102,
      "chip": "ym2612"
    },
    {
      "channel": 3,
      "note": 80,
      "start": 1.8846,
      "duration": 0.0134,
      "velocity": 118,
      "chip": "ym2612"
    },
    {
      "channel": 2,
      "note": 58,
      "start": 1.8924,
      "duration": 0.0186,
      "velocity": 112,
      "chip": "ym2612"
    },
    {
      "channel": 0,
      "note": 58,
      "start": 1.8996,
      "duration": 0.0061,
      "velocity": 100,
      "chip": "ym2612"
    },
    {
      "channel": 1,
      "note": 66,
      "start": 1.8999,
      "duration": 0.0061,
      "velocity": 102,
      "chip": "ym2612"
    },
    {
      "channel": 3,
      "note": 105,
      "start": 1.9,
      "duration": 0.0144,
      "velocity": 119,
      "chip": "ym2612"
    },
    {
      "channel": 0,
      "note": 58,
      "start": 1.9162,
      "duration": 0.0067,
      "velocity": 100,
      "chip": "ym2612"
    },
    {
      "channel": 1,
      "note": 66,
      "start": 1.9165,
      "duration": 0.0067,
      "velocity": 102,
      "chip": "ym2612"
    },
    {
      "channel": 2,
      "note": 56,
      "start": 1.9168,
      "duration": 0.0208,
      "velocity": 112,
      "chip": "ym2612"
    },
    {
      "channel": 3,
      "note": 80,
      "start": 1.9172,
      "duration": 0.0074,
      "velocity": 118,
      "chip": "ym2612"
    },
    {
      "channel": 3,
      "note": 80,
      "start": 1.926,
      "duration": 0.0037,
      "velocity": 118,
      "chip": "ym2612"
    },
    {
      "channel": 0,
      "note": 58,
      "start": 1.9334,
      "duration": 0.0061,
      "velocity": 100,
      "chip": "ym2612"
    },
    {
      "channel": 1,
      "note": 66,
      "start": 1.9337,
      "duration": 0.0061,
      "velocity": 102,
      "chip": "ym2612"
    },
    {
      "channel": 3,
      "note": 80,
      "start": 1.9339,
      "duration": 0.0076,
      "velocity": 118,
      "chip": "ym2612"
    },
    {
      "channel": 2,
      "note": 51,
      "start": 1.9415,
      "duration": 0.0076,
      "velocity": 112,
      "chip": "ym2612"
    },
    {
      "channel": 3,
      "note": 80,
      "start": 1.9438,
      "duration": 0.0027,
      "velocity": 118,
      "chip": "ym2612"
    },
    {
      "channel": 0,
      "note": 58,
      "start": 1.9513,
      "duration": 0.0062,
      "velocity": 100,
      "chip": "ym2612"
    },
    {
      "channel": 1,
      "note": 66,
      "start": 1.9515,
      "duration": 0.0062,
      "velocity": 102,
      "chip": "ym2612"
    },
    {
      "channel": 3,
      "note": 80,
      "start": 1.9518,
      "duration": 0.0131,
      "velocity": 118,
      "chip": "ym2612"
    },
    {
      "channel": 0,
      "note": 59,
      "start": 1.9678,
      "duration": 0.0065,
      "velocity": 100,
      "chip": "ym2612"
    },
    {
      "channel": 1,
      "note": 67,
      "start": 1.9681,
      "duration": 0.0064,
      "velocity": 102,
      "chip": "ym2612"
    },
    {
      "channel": 2,
      "note": 49,
      "start": 1.9685,
      "duration": 0.01,
      "velocity": 112,
      "chip": "ym2612"
    },
    {
      "channel": 3,
      "note": 80,
      "start": 1.9688,
      "duration": 0.0141,
      "velocity": 118,
      "chip": "ym2612"
    },
    {
      "channel": 0,
      "note": 59,
      "start": 1.9845,
      "duration": 0.0065,
      "velocity": 100,
      "chip": "ym2612"
    },
    {
      "channel": 1,
      "note": 67,
      "start": 1.9848,
      "duration": 0.0065,
      "velocity": 102,
      "chip": "ym2612"
    },
    {
      "channel": 2,
      "note": 51,
      "start": 1.9852,
      "duration": 0.0119,
      "velocity": 112,
      "chip": "ym2612"
    },
    {
      "channel": 3,
      "note": 105,
      "start": 1.9854,
      "duration": 0.0142,
      "velocity": 119,
      "chip": "ym2612"
    },
    {
      "channel": 0,
      "note": 58,
      "start": 2.0009,
      "duration": 0.0171,
      "velocity": 100,
      "chip": "ym2612"
    },
    {
      "channel": 1,
      "note": 66,
      "start": 2.0012,
      "duration": 0.017,
      "velocity": 102,
      "chip": "ym2612"
    },
    {
      "channel": 2,
      "note": 63,
      "start": 2.0016,
      "duration": 0.0453,
      "velocity": 112,
      "chip": "ym2612"
    },
    {
      "channel": 3,
      "note": 54,
      "start": 2.0023,
      "duration": 0.0291,
      "velocity": 120,
      "chip": "ym2612"
    },
    {
      "channel": 0,
      "note": 58,
      "start": 2.031,
      "duration": 0.0216,
      "velocity": 100,
      "chip": "ym2612"
    },
    {
      "channel": 1,
      "note": 66,
      "start": 2.0313,
      "duration": 0.0215,
      "velocity": 102,
      "chip": "ym2612"
    },
    {
      "channel": 3,
      "note": 80,
      "start": 2.0331,
      "duration": 0.0284,
      "velocity": 118,
      "chip": "ym2612"
    },
    {
      "channel": 2,
      "note": 58,
      "start": 2.0559,
      "duration": 0.0197,
      "velocity": 112,
      "chip": "ym2612"
    },
    {
      "channel": 0,
      "note": 58,
      "start": 2.0631,
      "duration": 0.0062,
      "velocity": 100,
      "chip": "ym2612"
    },
    {
      "channel": 1,
      "note": 66,
      "start": 2.0634,
      "duration": 0.0061,
      "velocity": 102,
      "chip": "ym2612"
    },
    {
      "channel": 3,
      "note": 105,
      "start": 2.0637,
      "duration": 0.0143,
      "velocity": 119,
      "chip": "ym2612"
    },
    {
      "channel": 0,
      "note": 58,
      "start": 2.0797,
      "duration": 0.0064,
      "velocity": 100,
      "chip": "ym2612"
    },
    {
      "channel": 1,
      "note": 66,
      "start": 2.08,
      "duration": 0.0064,
      "velocity": 102,
      "chip": "ym2612"
    },
    {
      "channel": 2,
      "note": 56,
      "start": 2.0803,
      "duration": 0.0204,
      "velocity": 112,
      "chip": "ym2612"
    },
    {
      "channel": 3,
      "note": 80,
      "start": 2.0807,
      "duration": 0.0071,
      "velocity": 118,
      "chip": "ym2612"
    },
    {
      "channel": 3,
      "note": 80,
      "start": 2.0902,
      "duration": 0.0026,
      "velocity": 118,
      "chip": "ym2612"
    },
    {
      "channel": 0,
      "note": 58,
      "start": 2.0975,
      "duration": 0.006,
      "velocity": 100,
      "chip": "ym2612"
    },
    {
      "channel": 1,
      "note": 66,
      "start": 2.0977,
      "duration": 0.006,
      "velocity": 102,
      "chip": "ym2612"
    },
    {
      "channel": 3,
      "note": 80,
      "start": 2.098,
      "duration": 0.0075,
      "velocity": 118,
      "chip": "ym2612"
    },
    {
      "channel": 2,
      "note": 51,
      "start": 2.1054,
      "duration": 0.0074,
      "velocity": 112,
      "chip": "ym2612"
    },
    {
      "channel": 3,
      "note": 80,
      "start": 2.107,
      "duration": 0.0024,
      "velocity": 118,
      "chip": "ym2612"
    },
    {
      "channel": 0,
      "note": 58,
      "start": 2.114,
      "duration": 0.0059,
      "velocity": 100,
      "chip": "ym2612"
    },
    {
      "channel": 1,
      "note": 66,
      "start": 2.1143,
      "duration": 0.006,
      "velocity": 102,
      "chip": "ym2612"
    },
    {
      "channel": 3,
      "note": 80,
      "start": 2.1146,
      "duration": 0.0131,
      "velocity": 118,
      "chip": "ym2612"
    },
    {
      "channel": 0,
      "note": 58,
      "start": 2.1308,
      "duration": 0.0066,
      "velocity": 100,
      "chip": "ym2612"
    },
    {
      "channel": 1,
      "note": 66,
      "start": 2.1311,
      "duration": 0.0066,
      "velocity": 102,
      "chip": "ym2612"
    },
    {
      "channel": 2,
      "note": 49,
      "start": 2.1313,
      "duration": 0.023,
      "velocity": 112,
      "chip": "ym2612"
    },
    {
      "channel": 3,
      "note": 80,
      "start": 2.1318,
      "duration": 0.0142,
      "velocity": 118,
      "chip": "ym2612"
    },
    {
      "channel": 0,
      "note": 58,
      "start": 2.1486,
      "duration": 0.0052,
      "velocity": 100,
      "chip": "ym2612"
    },
    {
      "channel": 1,
      "note": 66,
      "start": 2.1489,
      "duration": 0.0052,
      "velocity": 102,
      "chip": "ym2612"
    },
    {
      "channel": 3,
      "note": 105,
      "start": 2.1491,
      "duration": 0.0142,
      "velocity": 119,
      "chip": "ym2612"
    },
    {
      "channel": 0,
      "note": 58,
      "start": 2.1646,
      "duration": 0.0172,
      "velocity": 100,
      "chip": "ym2612"
    },
    {
      "channel": 1,
      "note": 66,
      "start": 2.1649,
      "duration": 0.0172,
      "velocity": 102,
      "chip": "ym2612"
    },
    {
      "channel": 2,
      "note": 63,
      "start": 2.1651,
      "duration": 0.0452,
      "velocity": 112,
      "chip": "ym2612"
    },
    {
      "channel": 3,
      "note": 54,
      "start": 2.1659,
      "duration": 0.0259,
      "velocity": 120,
      "chip": "ym2612"
    },
    {
      "channel": 0,
      "note": 58,
      "start": 2.1914,
      "duration": 0.0233,
      "velocity": 100,
      "chip": "ym2612"
    },
    {
      "channel": 1,
      "note": 66,
      "start": 2.1917,
      "duration": 0.0233,
      "velocity": 102,
      "chip": "ym2612"
    },
    {
      "channel": 3,
      "note": 80,
      "start": 2.1959,
      "duration": 0.0278,
      "velocity": 118,
      "chip": "ym2612"
    },
    {
      "channel": 2,
      "note": 58,
      "start": 2.2179,
      "duration": 0.0197,
      "velocity": 112,
      "chip": "ym2612"
    },
    {
      "channel": 0,
      "note": 58,
      "start": 2.2253,
      "duration": 0.0061,
      "velocity": 100,
      "chip": "ym2612"
    },
    {
      "channel": 1,
      "note": 66,
      "start": 2.2256,
      "duration": 0.0061,
      "velocity": 102,
      "chip": "ym2612"
    },
    {
      "channel": 3,
      "note": 105,
      "start": 2.2258,
      "duration": 0.0142,
      "velocity": 119,
      "chip": "ym2612"
    },
    {
      "channel": 0,
      "note": 58,
      "start": 2.2425,
      "duration": 0.0065,
      "velocity": 100,
      "chip": "ym2612"
    },
    {
      "channel": 1,
      "note": 66,
      "start": 2.2428,
      "duration": 0.0065,
      "velocity": 102,
      "chip": "ym2612"
    },
    {
      "channel": 2,
      "note": 56,
      "start": 2.2431,
      "duration": 0.0205,
      "velocity": 112,
      "chip": "ym2612"
    },
    {
      "channel": 3,
      "note": 80,
      "start": 2.2434,
      "duration": 0.0073,
      "velocity": 118,
      "chip": "ym2612"
    },
    {
      "channel": 3,
      "note": 80,
      "start": 2.2521,
      "duration": 0.0026,
      "velocity": 118,
      "chip": "ym2612"
    },
    {
      "channel": 0,
      "note": 58,
      "start": 2.2593,
      "duration": 0.0061,
      "velocity": 100,
      "chip": "ym2612"
    },
    {
      "channel": 1,
      "note": 66,
      "start": 2.2596,
      "duration": 0.006,
      "velocity": 102,
      "chip": "ym2612"
    },
    {
      "channel": 3,
      "note": 80,
      "start": 2.2598,
      "duration": 0.0076,
      "velocity": 118,
      "chip": "ym2612"
    },
    {
      "channel": 2,
      "note": 51,
      "start": 2.2673,
      "duration": 0.0078,
      "velocity": 112,
      "chip": "ym2612"
    },
    {
      "channel": 3,
      "note": 80,
      "start": 2.2688,
      "duration": 0.0038,
      "velocity": 118,
      "chip": "ym2612"
    },
    {
      "channel": 0,
      "note": 58,
      "start": 2.2764,
      "duration": 0.0062,
      "velocity": 100,
      "chip": "ym2612"
    },
    {
      "channel": 1,
      "note": 66,
      "start": 2.2767,
      "duration": 0.0062,
      "velocity": 102,
      "chip": "ym2612"
    },
    {
      "channel": 3,
      "note": 80,
      "start": 2.277,
      "duration": 0.013,
      "velocity": 118,
      "chip": "ym2612"
    },
    {
      "channel": 0,
      "note": 61,
      "start": 2.2938,
      "duration": 0.0058,
      "velocity": 100,
      "chip": "ym2612"
    },
    {
      "channel": 1,
      "note": 69,
      "start": 2.2941,
      "duration": 0.0057,
      "velocity": 102,
      "chip": "ym2612"
    },
    {
      "channel": 2,
      "note": 49,
      "start": 2.2944,
      "duration": 0.01,
      "velocity": 112,
      "chip": "ym2612"
    },
    {
      "channel": 3,
      "note": 80,
      "start": 2.2948,
      "duration": 0.0141,
      "velocity": 118,
      "chip": "ym2612"
    },
    {
      "channel": 0,
      "note": 61,
      "start": 2.3106,
      "duration": 0.0065,
      "velocity": 100,
      "chip": "ym2612"
    },
    {
      "channel": 1,
      "note": 69,
      "start": 2.3109,
      "duration": 0.0066,
      "velocity": 102,
      "chip": "ym2612"
    },
    {
      "channel": 2,
      "note": 51,
      "start": 2.3113,
      "duration": 0.012,
      "velocity": 112,
      "chip": "ym2612"
    },
    {
      "channel": 3,
      "note": 105,
      "start": 2.3115,
      "duration": 0.0142,
      "velocity": 119,
      "chip": "ym2612"
    },
    {
      "channel": 3,
      "note": 54,
      "start": 2.3287,
      "duration": 0.02,
      "velocity": 120,
      "chip": "ym2612"
    },
    {
      "channel": 0,
      "note": 51,
      "start": 2.3408,
      "duration": 0.1332,
      "velocity": 102,
      "chip": "ym2612"
    },
    {
      "channel": 1,
      "note": 51,
      "start": 2.3467,
      "duration": 0.1281,
      "velocity": 102,
      "chip": "ym2612"
    },
    {
      "channel": 3,
      "note": 80,
      "start": 2.3514,
      "duration": 0.0133,
      "velocity": 118,
      "chip": "ym2612"
    },
    {
      "channel": 3,
      "note": 105,
      "start": 2.3674,
      "duration": 0.0161,
      "velocity": 119,
      "chip": "ym2612"
    },
    {
      "channel": 3,
      "note": 80,
      "start": 2.3855,
      "duration": 0.0066,
      "velocity": 118,
      "chip": "ym2612"
    },
    {
      "channel": 3,
      "note": 80,
      "start": 2.3932,
      "duration": 0.0026,
      "velocity": 118,
      "chip": "ym2612"
    },
    {
      "channel": 3,
      "note": 80,
      "start": 2.3988,
      "duration": 0.007,
      "velocity": 118,
      "chip": "ym2612"
    },
    {
      "channel": 3,
      "note": 80,
      "start": 2.408,
      "duration": 0.0056,
      "velocity": 118,
      "chip": "ym2612"
    },
    {
      "channel": 3,
      "note": 80,
      "start": 2.4175,
      "duration": 0.0143,
      "velocity": 118,
      "chip": "ym2612"
    },
    {
      "channel": 3,
      "note": 80,
      "start": 2.4353,
      "duration": 0.0196,
      "velocity": 118,
      "chip": "ym2612"
    },
    {
      "channel": 3,
      "note": 105,
      "start": 2.4568,
      "duration": 0.0157,
      "velocity": 119,
      "chip": "ym2612"
    },
    {
      "channel": 0,
      "note": 54,
      "start": 2.4742,
      "duration": 0.0163,
      "velocity": 102,
      "chip": "ym2612"
    },
    {
      "channel": 1,
      "note": 75,
      "start": 2.4751,
      "duration": 0.0179,
      "velocity": 102,
      "chip": "ym2612"
    },
    {
      "channel": 2,
      "note": 63,
      "start": 2.4754,
      "duration": 0.0341,
      "velocity": 112,
      "chip": "ym2612"
    },
    {
      "channel": 3,
      "note": 54,
      "start": 2.4766,
      "duration": 0.0302,
      "velocity": 120,
      "chip": "ym2612"
    },
    {
      "channel": 0,
      "note": 54,
      "start": 2.4961,
      "duration": 0.0023,
      "velocity": 102,
      "chip": "ym2612"
    },
    {
      "channel": 1,
      "note": 63,
      "start": 2.4974,
      "duration": 0.0034,
      "velocity": 102,
      "chip": "ym2612"
    },
    {
      "channel": 0,
      "note": 49,
      "start": 2.5064,
      "duration": 0.0029,
      "velocity": 102,
      "chip": "ym2612"
    },
    {
      "channel": 1,
      "note": 63,
      "start": 2.5067,
      "duration": 0.005,
      "velocity": 102,
      "chip": "ym2612"
    },
    {
      "channel": 3,
      "note": 80,
      "start": 2.5084,
      "duration": 0.0131,
      "velocity": 118,
      "chip": "ym2612"
    },
    {
      "channel": 0,
      "note": 54,
      "start": 2.5149,
      "duration": 0.0025,
      "velocity": 102,
      "chip": "ym2612"
    },
    {
      "channel": 1,
      "note": 63,
      "start": 2.5152,
      "duration": 0.0024,
      "velocity": 102,
      "chip": "ym2612"
    },
    {
      "channel": 2,
      "note": 58,
      "start": 2.5164,
      "duration": 0.0192,
      "velocity": 112,
      "chip": "ym2612"
    },
    {
      "channel": 0,
      "note": 54,
      "start": 2.5226,
      "duration": 0.0031,
      "velocity": 102,
      "chip": "ym2612"
    },
    {
      "channel": 1,
      "note": 63,
      "start": 2.5229,
      "duration": 0.0059,
      "velocity": 102,
      "chip": "ym2612"
    },
    {
      "channel": 3,
      "note": 42,
      "start": 2.5237,
      "duration": 0.016,
      "velocity": 127,
      "chip": "ym2612"
    },
    {
      "channel": 0,
      "note": 49,
      "start": 2.5312,
      "duration": 0.0029,
      "velocity": 102,
      "chip": "ym2612"
    },
    {
      "channel": 1,
      "note": 63,
      "start": 2.5315,
      "duration": 0.0029,
      "velocity": 102,
      "chip": "ym2612"
    },
    {
      "channel": 0,
      "note": 54,
      "start": 2.5389,
      "duration": 0.0042,
      "velocity": 102,
      "chip": "ym2612"
    },
    {
      "channel": 1,
      "note": 63,
      "start": 2.5393,
      "duration": 0.0071,
      "velocity": 102,
      "chip": "ym2612"
    },
    {
      "channel": 2,
      "note": 56,
      "start": 2.5396,
      "duration": 0.0216,
      "velocity": 112,
      "chip": "ym2612"
    },
    {
      "channel": 3,
      "note": 80,
      "start": 2.5412,
      "duration": 0.0128,
      "velocity": 118,
      "chip": "ym2612"
    },
    {
      "channel": 0,
      "note": 54,
      "start": 2.5475,
      "duration": 0.0031,
      "velocity": 102,
      "chip": "ym2612"
    },
    {
      "channel": 1,
      "note": 63,
      "start": 2.5495,
      "duration": 0.0034,
      "velocity": 102,
      "chip": "ym2612"
    },
    {
      "channel": 0,
      "note": 49,
      "start": 2.5563,
      "duration": 0.0033,
      "velocity": 102,
      "chip": "ym2612"
    },
    {
      "channel": 1,
      "note": 63,
      "start": 2.5566,
      "duration": 0.0033,
      "velocity": 102,
      "chip": "ym2612"
    },
    {
      "channel": 3,
      "note": 42,
      "start": 2.5573,
      "duration": 0.0186,
      "velocity": 127,
      "chip": "ym2612"
    },
    {
      "channel": 0,
      "note": 54,
      "start": 2.5652,
      "duration": 0.0025,
      "velocity": 102,
      "chip": "ym2612"
    },
    {
      "channel": 1,
      "note": 63,
      "start": 2.5655,
      "duration": 0.0045,
      "velocity": 102,
      "chip": "ym2612"
    },
    {
      "channel": 2,
      "note": 51,
      "start": 2.5659,
      "duration": 0.0062,
      "velocity": 112,
      "chip": "ym2612"
    },
    {
      "channel": 0,
      "note": 54,
      "start": 2.5756,
      "duration": 0.0029,
      "velocity": 102,
      "chip": "ym2612"
    },
    {
      "channel": 1,
      "note": 63,
      "start": 2.5759,
      "duration": 0.0056,
      "velocity": 102,
      "chip": "ym2612"
    },
    {
      "channel": 3,
      "note": 80,
      "start": 2.5776,
      "duration": 0.0122,
      "velocity": 118,
      "chip": "ym2612"
    },
    {
      "channel": 0,
      "note": 49,
      "start": 2.5837,
      "duration": 0.0022,
      "velocity": 102,
      "chip": "ym2612"
    },
    {
      "channel": 1,
      "note": 63,
      "start": 2.5841,
      "duration": 0.002,
      "velocity": 102,
      "chip": "ym2612"
    },
    {
      "channel": 0,
      "note": 54,
      "start": 2.591,
      "duration": 0.006,
      "velocity": 102,
      "chip": "ym2612"
    },
    {
      "channel": 1,
      "note": 61,
      "start": 2.5913,
      "duration": 0.0091,
      "velocity": 102,
      "chip": "ym2612"
    },
    {
      "channel": 2,
      "note": 49,
      "start": 2.5916,
      "duration": 0.0135,
      "velocity": 112,
      "chip": "ym2612"
    },
    {
      "channel": 3,
      "note": 42,
      "start": 2.5923,
      "duration": 0.018,
      "velocity": 127,
      "chip": "ym2612"
    },
    {
      "channel": 0,
      "note": 54,
      "start": 2.6018,
      "duration": 0.003,
      "velocity": 102,
      "chip": "ym2612"
    },
    {
      "channel": 1,
      "note": 63,
      "start": 2.6029,
      "duration": 0.0044,
      "velocity": 102,
      "chip": "ym2612"
    },
    {
      "channel": 0,
      "note": 56,
      "start": 2.6097,
      "duration": 0.0041,
      "velocity": 102,
      "chip": "ym2612"
    },
    {
      "channel": 1,
      "note": 63,
      "start": 2.61,
      "duration": 0.004,
      "velocity": 102,
      "chip": "ym2612"
    },
    {
      "channel": 2,
      "note": 51,
      "start": 2.6103,
      "duration": 0.0125,
      "velocity": 112,
      "chip": "ym2612"
    },
    {
      "channel": 3,
      "note": 80,
      "start": 2.6128,
      "duration": 0.0133,
      "velocity": 118,
      "chip": "ym2612"
    },
    {
      "channel": 0,
      "note": 56,
      "start": 2.6193,
      "duration": 0.0022,
      "velocity": 102,
      "chip": "ym2612"
    },
    {
      "channel": 1,
      "note": 63,
      "start": 2.6196,
      "duration": 0.0044,
      "velocity": 102,
      "chip": "ym2612"
    },
    {
      "channel": 0,
      "note": 54,
      "start": 2.6273,
      "duration": 0.0036,
      "velocity": 102,
      "chip": "ym2612"
    },
    {
      "channel": 1,
      "note": 75,
      "start": 2.6276,
      "duration": 0.0076,
      "velocity": 102,
      "chip": "ym2612"
    },
    {
      "channel": 2,
      "note": 63,
      "start": 2.6279,
      "duration": 0.0216,
      "velocity": 112,
      "chip": "ym2612"
    },
    {
      "channel": 3,
      "note": 54,
      "start": 2.6286,
      "duration": 0.0181,
      "velocity": 120,
      "chip": "ym2612"
    },
    {
      "channel": 0,
      "note": 54,
      "start": 2.6363,
      "duration": 0.0021,
      "velocity": 102,
      "chip": "ym2612"
    },
    {
      "channel": 1,
      "note": 63,
      "start": 2.6375,
      "duration": 0.0042,
      "velocity": 102,
      "chip": "ym2612"
    },
    {
      "channel": 0,
      "note": 49,
      "start": 2.6464,
      "duration": 0.0029,
      "velocity": 102,
      "chip": "ym2612"
    },
    {
      "channel": 1,
      "note": 63,
      "start": 2.6467,
      "duration": 0.0057,
      "velocity": 102,
      "chip": "ym2612"
    },
    {
      "channel": 3,
      "note": 80,
      "start": 2.6483,
      "duration": 0.0127,
      "velocity": 118,
      "chip": "ym2612"
    },
    {
      "channel": 0,
      "note": 54,
      "start": 2.6545,
      "duration": 0.0033,
      "velocity": 102,
      "chip": "ym2612"
    },
    {
      "channel": 1,
      "note": 63,
      "start": 2.6548,
      "duration": 0.0032,
      "velocity": 102,
      "chip": "ym2612"
    },
    {
      "channel": 2,
      "note": 58,
      "start": 2.6559,
      "duration": 0.0213,
      "velocity": 112,
      "chip": "ym2612"
    },
    {
      "channel": 0,
      "note": 54,
      "start": 2.6622,
      "duration": 0.0059,
      "velocity": 102,
      "chip": "ym2612"
    },
    {
      "channel": 1,
      "note": 63,
      "start": 2.6625,
      "duration": 0.0079,
      "velocity": 102,
      "chip": "ym2612"
    },
    {
      "channel": 3,
      "note": 42,
      "start": 2.6633,
      "duration": 0.0191,
      "velocity": 127,
      "chip": "ym2612"
    },
    {
      "channel": 0,
      "note": 49,
      "start": 2.6727,
      "duration": 0.003,
      "velocity": 102,
      "chip": "ym2612"
    },
    {
      "channel": 1,
      "note": 63,
      "start": 2.673,
      "duration": 0.003,
      "velocity": 102,
      "chip": "ym2612"
    },
    {
      "channel": 0,
      "note": 54,
      "start": 2.6816,
      "duration": 0.0034,
      "velocity": 102,
      "chip": "ym2612"
    },
    {
      "channel": 1,
      "note": 63,
      "start": 2.6819,
      "duration": 0.0074,
      "velocity": 102,
      "chip": "ym2612"
    },
    {
      "channel": 2,
      "note": 56,
      "start": 2.6823,
      "duration": 0.0209,
      "velocity": 112,
      "chip": "ym2612"
    },
    {
      "channel": 3,
      "note": 80,
      "start": 2.6841,
      "duration": 0.0129,
      "velocity": 118,
      "chip": "ym2612"
    },
    {
      "channel": 0,
      "note": 54,
      "start": 2.6905,
      "duration": 0.0022,
      "velocity": 102,
      "chip": "ym2612"
    },
    {
      "channel": 1,
      "note": 63,
      "start": 2.6916,
      "duration": 0.0033,
      "velocity": 102,
      "chip": "ym2612"
    },
    {
      "channel": 0,
      "note": 49,
      "start": 2.6982,
      "duration": 0.0036,
      "velocity": 102,
      "chip": "ym2612"
    },
    {
      "channel": 1,
      "note": 63,
      "start": 2.6985,
      "duration": 0.0035,
      "velocity": 102,
      "chip": "ym2612"
    },
    {
      "channel": 3,
      "note": 42,
      "start": 2.6994,
      "duration": 0.0188,
      "velocity": 127,
      "chip": "ym2612"
    },
    {
      "channel": 0,
      "note": 54,
      "start": 2.7075,
      "duration": 0.0027,
      "velocity": 102,
      "chip": "ym2612"
    },
    {
      "channel": 1,
      "note": 63,
      "start": 2.7079,
      "duration": 0.0054,
      "velocity": 102,
      "chip": "ym2612"
    },
    {
      "channel": 2,
      "note": 51,
      "start": 2.7083,
      "duration": 0.0061,
      "velocity": 112,
      "chip": "ym2612"
    },
    {
      "channel": 0,
      "note": 54,
      "start": 2.7179,
      "duration": 0.0038,
      "velocity": 102,
      "chip": "ym2612"
    },
    {
      "channel": 1,
      "note": 63,
      "start": 2.7182,
      "duration": 0.0057,
      "velocity": 102,
      "chip": "ym2612"
    },
    {
      "channel": 3,
      "note": 80,
      "start": 2.7199,
      "duration": 0.0125,
      "velocity": 118,
      "chip": "ym2612"
    },
    {
      "channel": 0,
      "note": 49,
      "start": 2.7261,
      "duration": 0.003,
      "velocity": 102,
      "chip": "ym2612"
    },
    {
      "channel": 1,
      "note": 63,
      "start": 2.7264,
      "duration": 0.0029,
      "velocity": 102,
      "chip": "ym2612"
    },
    {
      "channel": 0,
      "note": 54,
      "start": 2.7335,
      "duration": 0.0061,
      "velocity": 102,
      "chip": "ym2612"
    },
    {
      "channel": 1,
      "note": 66,
      "start": 2.7339,
      "duration": 0.0091,
      "velocity": 102,
      "chip": "ym2612"
    },
    {
      "channel": 2,
      "note": 49,
      "start": 2.7342,
      "duration": 0.026,
      "velocity": 112,
      "chip": "ym2612"
    },
    {
      "channel": 3,
      "note": 42,
      "start": 2.7349,
      "duration": 0.0184,
      "velocity": 127,
      "chip": "ym2612"
    },
    {
      "channel": 0,
      "note": 54,
      "start": 2.7451,
      "duration": 0.0022,
      "velocity": 102,
      "chip": "ym2612"
    },
    {
      "channel": 1,
      "note": 63,
      "start": 2.7463,
      "duration": 0.0032,
      "velocity": 102,
      "chip": "ym2612"
    },
    {
      "channel": 0,
      "note": 57,
      "start": 2.7529,
      "duration": 0.003,
      "velocity": 102,
      "chip": "ym2612"
    },
    {
      "channel": 1,
      "note": 63,
      "start": 2.7532,
      "duration": 0.0029,
      "velocity": 102,
      "chip": "ym2612"
    },
    {
      "channel": 3,
      "note": 80,
      "start": 2.7549,
      "duration": 0.0131,
      "velocity": 118,
      "chip": "ym2612"
    },
    {
      "channel": 0,
      "note": 57,
      "start": 2.7616,
      "duration": 0.0022,
      "velocity": 102,
      "chip": "ym2612"
    },
    {
      "channel": 1,
      "note": 63,
      "start": 2.7619,
      "duration": 0.0049,
      "velocity": 102,
      "chip": "ym2612"
    },
    {
      "channel": 0,
      "note": 54,
      "start": 2.7693,
      "duration": 0.0039,
      "velocity": 102,
      "chip": "ym2612"
    },
    {
      "channel": 1,
      "note": 75,
      "start": 2.7696,
      "duration": 0.0066,
      "velocity": 102,
      "chip": "ym2612"
    },
    {
      "channel": 2,
      "note": 63,
      "start": 2.77,
      "duration": 0.0227,
      "velocity": 112,
      "chip": "ym2612"
    },
    {
      "channel": 3,
      "note": 54,
      "start": 2.7708,
      "duration": 0.0182,
      "velocity": 120,
      "chip": "ym2612"
    },
    {
      "channel": 0,
      "note": 54,
      "start": 2.7785,
      "duration": 0.003,
      "velocity": 102,
      "chip": "ym2612"
    },
    {
      "channel": 1,
      "note": 63,
      "start": 2.7797,
      "duration": 0.0042,
      "velocity": 102,
      "chip": "ym2612"
    },
    {
      "channel": 0,
      "note": 49,
      "start": 2.7887,
      "duration": 0.0038,
      "velocity": 102,
      "chip": "ym2612"
    },
    {
      "channel": 1,
      "note": 63,
      "start": 2.7889,
      "duration": 0.0059,
      "velocity": 102,
      "chip": "ym2612"
    },
    {
      "channel": 3,
      "note": 80,
      "start": 2.7915,
      "duration": 0.0121,
      "velocity": 118,
      "chip": "ym2612"
    },
    {
      "channel": 0,
      "note": 54,
      "start": 2.797,
      "duration": 0.0033,
      "velocity": 102,
      "chip": "ym2612"
    },
    {
      "channel": 1,
      "note": 63,
      "start": 2.7973,
      "duration": 0.0032,
      "velocity": 102,
      "chip": "ym2612"
    },
    {
      "channel": 2,
      "note": 58,
      "start": 2.7993,
      "duration": 0.0188,
      "velocity": 112,
      "chip": "ym2612"
    },
    {
      "channel": 0,
      "note": 54,
      "start": 2.8056,
      "duration": 0.0034,
      "velocity": 102,
      "chip": "ym2612"
    },
    {
      "channel": 1,
      "note": 63,
      "start": 2.8059,
      "duration": 0.0054,
      "velocity": 102,
      "chip": "ym2612"
    },
    {
      "channel": 3,
      "note": 42,
      "start": 2.8067,
      "duration": 0.0163,
      "velocity": 127,
      "chip": "ym2612"
    },
    {
      "channel": 0,
      "note": 49,
      "start": 2.8145,
      "duration": 0.0022,
      "velocity": 102,
      "chip": "ym2612"
    },
    {
      "channel": 1,
      "note": 63,
      "start": 2.8148,
      "duration": 0.0022,
      "velocity": 102,
      "chip": "ym2612"
    },
    {
      "channel": 0,
      "note": 54,
      "start": 2.8223,
      "duration": 0.0034,
      "velocity": 102,
      "chip": "ym2612"
    },
    {
      "channel": 1,
      "note": 63,
      "start": 2.8225,
      "duration": 0.0074,
      "velocity": 102,
      "chip": "ym2612"
    },
    {
      "channel": 2,
      "note": 56,
      "start": 2.8229,
      "duration": 0.0219,
      "velocity": 112,
      "chip": "ym2612"
    },
    {
      "channel": 3,
      "note": 80,
      "start": 2.8247,
      "duration": 0.0129,
      "velocity": 118,
      "chip": "ym2612"
    },
    {
      "channel": 0,
      "note": 54,
      "start": 2.8312,
      "duration": 0.0021,
      "velocity": 102,
      "chip": "ym2612"
    },
    {
      "channel": 1,
      "note": 63,
      "start": 2.8323,
      "duration": 0.0042,
      "velocity": 102,
      "chip": "ym2612"
    },
    {
      "channel": 0,
      "note": 49,
      "start": 2.839,
      "duration": 0.0044,
      "velocity": 102,
      "chip": "ym2612"
    },
    {
      "channel": 1,
      "note": 63,
      "start": 2.8394,
      "duration": 0.0043,
      "velocity": 102,
      "chip": "ym2612"
    },
    {
      "channel": 3,
      "note": 42,
      "start": 2.8401,
      "duration": 0.0189,
      "velocity": 127,
      "chip": "ym2612"
    },
    {
      "channel": 0,
      "note": 54,
      "start": 2.8482,
      "duration": 0.0033,
      "velocity": 102,
      "chip": "ym2612"
    },
    {
      "channel": 1,
      "note": 63,
      "start": 2.8485,
      "duration": 0.0054,
      "velocity": 102,
      "chip": "ym2612"
    },
    {
      "channel": 2,
      "note": 51,
      "start": 2.8488,
      "duration": 0.0063,
      "velocity": 112,
      "chip": "ym2612"
    },
    {
      "channel": 0,
      "note": 54,
      "start": 2.8587,
      "duration": 0.0038,
      "velocity": 102,
      "chip": "ym2612"
    },
    {
      "channel": 1,
      "note": 63,
      "start": 2.859,
      "duration": 0.0056,
      "velocity": 102,
      "chip": "ym2612"
    },
    {
      "channel": 3,
      "note": 80,
      "start": 2.8615,
      "duration": 0.0122,
      "velocity": 118,
      "chip": "ym2612"
    },
    {
      "channel": 0,
      "note": 49,
      "start": 2.8675,
      "duration": 0.0021,
      "velocity": 102,
      "chip": "ym2612"
    },
    {
      "channel": 1,
      "note": 63,
      "start": 2.8678,
      "duration": 0.002,
      "velocity": 102,
      "chip": "ym2612"
    },
    {
      "channel": 0,
      "note": 54,
      "start": 2.8749,
      "duration": 0.0036,
      "velocity": 102,
      "chip": "ym2612"
    },
    {
      "channel": 1,
      "note": 61,
      "start": 2.8751,
      "duration": 0.0074,
      "velocity": 102,
      "chip": "ym2612"
    },
    {
      "channel": 2,
      "note": 49,
      "start": 2.8754,
      "duration": 0.0108,
      "velocity": 112,
      "chip": "ym2612"
    },
    {
      "channel": 3,
      "note": 42,
      "start": 2.8761,
      "duration": 0.0164,
      "velocity": 127,
      "chip": "ym2612"
    },
    {
      "channel": 0,
      "note": 54,
      "start": 2.8839,
      "duration": 0.0021,
      "velocity": 102,
      "chip": "ym2612"
    },
    {
      "channel": 1,
      "note": 63,
      "start": 2.885,
      "duration": 0.0043,
      "velocity": 102,
      "chip": "ym2612"
    },
    {
      "channel": 0,
      "note": 56,
      "start": 2.8917,
      "duration": 0.0035,
      "velocity": 102,
      "chip": "ym2612"
    },
    {
      "channel": 1,
      "note": 63,
      "start": 2.8921,
      "duration": 0.0033,
      "velocity": 102,
      "chip": "ym2612"
    },
    {
      "channel": 2,
      "note": 51,
      "start": 2.8924,
      "duration": 0.0126,
      "velocity": 112,
      "chip": "ym2612"
    },
    {
      "channel": 3,
      "note": 80,
      "start": 2.8941,
      "duration": 0.013,
      "velocity": 118,
      "chip": "ym2612"
    },
    {
      "channel": 0,
      "note": 56,
      "start": 2.9008,
      "duration": 0.003,
      "velocity": 102,
      "chip": "ym2612"
    },
    {
      "channel": 1,
      "note": 63,
      "start": 2.901,
      "duration": 0.0051,
      "velocity": 102,
      "chip": "ym2612"
    },
    {
      "channel": 0,
      "note": 54,
      "start": 2.9085,
      "duration": 0.0046,
      "velocity": 102,
      "chip": "ym2612"
    },
    {
      "channel": 1,
      "note": 75,
      "start": 2.9087,
      "duration": 0.0078,
      "velocity": 102,
      "chip": "ym2612"
    },
    {
      "channel": 2,
      "note": 63,
      "start": 2.909,
      "duration": 0.0225,
      "velocity": 112,
      "chip": "ym2612"
    },
    {
      "channel": 3,
      "note": 54,
      "start": 2.9098,
      "duration": 0.0189,
      "velocity": 120,
      "chip": "ym2612"
    },
    {
      "channel": 0,
      "note": 54,
      "start": 2.9176,
      "duration": 0.0031,
      "velocity": 102,
      "chip": "ym2612"
    },
    {
      "channel": 1,
      "note": 63,
      "start": 2.9198,
      "duration": 0.0032,
      "velocity": 102,
      "chip": "ym2612"
    },
    {
      "channel": 0,
      "note": 49,
      "start": 2.9284,
      "duration": 0.0029,
      "velocity": 102,
      "chip": "ym2612"
    },
    {
      "channel": 1,
      "note": 63,
      "start": 2.9287,
      "duration": 0.005,
      "velocity": 102,
      "chip": "ym2612"
    },
    {
      "channel": 3,
      "note": 80,
      "start": 2.9304,
      "duration": 0.0128,
      "velocity": 118,
      "chip": "ym2612"
    },
    {
      "channel": 0,
      "note": 54,
      "start": 2.9367,
      "duration": 0.0025,
      "velocity": 102,
      "chip": "ym2612"
    },
    {
      "channel": 1,
      "note": 63,
      "start": 2.937,
      "duration": 0.0023,
      "velocity": 102,
      "chip": "ym2612"
    },
    {
      "channel": 2,
      "note": 58,
      "start": 2.9382,
      "duration": 0.0194,
      "velocity": 112,
      "chip": "ym2612"
    },
    {
      "channel": 0,
      "note": 54,
      "start": 2.9443,
      "duration": 0.0032,
      "velocity": 102,
      "chip": "ym2612"
    },
    {
      "channel": 1,
      "note": 63,
      "start": 2.9446,
      "duration": 0.0062,
      "velocity": 102,
      "chip": "ym2612"
    },
    {
      "channel": 3,
      "note": 42,
      "start": 2.9453,
      "duration": 0.0164,
      "velocity": 127,
      "chip": "ym2612"
    },
    {
      "channel": 0,
      "note": 49,
      "start": 2.953,
      "duration": 0.0022,
      "velocity": 102,
      "chip": "ym2612"
    },
    {
      "channel": 1,
      "note": 63,
      "start": 2.9534,
      "duration": 0.0021,
      "velocity": 102,
      "chip": "ym2612"
    },
    {
      "channel": 0,
      "note": 54,
      "start": 2.9608,
      "duration": 0.0044,
      "velocity": 102,
      "chip": "ym2612"
    },
    {
      "channel": 1,
      "note": 63,
      "start": 2.9613,
      "duration": 0.0072,
      "velocity": 102,
      "chip": "ym2612"
    },
    {
      "channel": 2,
      "note": 56,
      "start": 2.9616,
      "duration": 0.0216,
      "velocity": 112,
      "chip": "ym2612"
    },
    {
      "channel": 3,
      "note": 80,
      "start": 2.9634,
      "duration": 0.0129,
      "velocity": 118,
      "chip": "ym2612"
    },
    {
      "channel": 0,
      "note": 54,
      "start": 2.9696,
      "duration": 0.0031,
      "velocity": 102,
      "chip": "ym2612"
    },
    {
      "channel": 1,
      "note": 63,
      "start": 2.9717,
      "duration": 0.0034,
      "velocity": 102,
      "chip": "ym2612"
    },
    {
      "channel": 0,
      "note": 49,
      "start": 2.9775,
      "duration": 0.0041,
      "velocity": 102,
      "chip": "ym2612"
    },
    {
      "channel": 1,
      "note": 63,
      "start": 2.9778,
      "duration": 0.0041,
      "velocity": 102,
      "chip": "ym2612"
    },
    {
      "channel": 3,
      "note": 42,
      "start": 2.9785,
      "duration": 0.0197,
      "velocity": 127,
      "chip": "ym2612"
    },
    {
      "channel": 0,
      "note": 54,
      "start": 2.9874,
      "duration": 0.0025,
      "velocity": 102,
      "chip": "ym2612"
    },
    {
      "channel": 1,
      "note": 63,
      "start": 2.9878,
      "duration": 0.0044,
      "velocity": 102,
      "chip": "ym2612"
    },
    {
      "channel": 2,
      "note": 51,
      "start": 2.9881,
      "duration": 0.0086,
      "velocity": 112,
      "chip": "ym2612"
    },
    {
      "channel": 0,
      "note": 54,
      "start": 2.9978,
      "duration": 0.0029,
      "velocity": 102,
      "chip": "ym2612"
    },
    {
      "channel": 1,
      "note": 63,
      "start": 2.9981,
      "duration": 0.0056,
      "velocity": 102,
      "chip": "ym2612"
    },
    {
      "channel": 3,
      "note": 80,
      "start": 2.9998,
      "duration": 0.0123,
      "velocity": 118,
      "chip": "ym2612"
    },
    {
      "channel": 0,
      "note": 49,
      "start": 3.0058,
      "duration": 0.0021,
      "velocity": 102,
      "chip": "ym2612"
    },
    {
      "channel": 1,
      "note": 63,
      "start": 3.0061,
      "duration": 0.0021,
      "velocity": 102,
      "chip": "ym2612"
    },
    {
      "channel": 0,
      "note": 54,
      "start": 3.0133,
      "duration": 0.0034,
      "velocity": 102,
      "chip": "ym2612"
    },
    {
      "channel": 1,
      "note": 66,
      "start": 3.0136,
      "duration": 0.0073,
      "velocity": 102,
      "chip": "ym2612"
    },
    {
      "channel": 2,
      "note": 49,
      "start": 3.0139,
      "duration": 0.0232,
      "velocity": 112,
      "chip": "ym2612"
    },
    {
      "channel": 3,
      "note": 42,
      "start": 3.0145,
      "duration": 0.0158,
      "velocity": 127,
      "chip": "ym2612"
    },
    {
      "channel": 0,
      "note": 54,
      "start": 3.0223,
      "duration": 0.003,
      "velocity": 102,
      "chip": "ym2612"
    },
    {
      "channel": 1,
      "note": 63,
      "start": 3.0234,
      "duration": 0.0041,
      "velocity": 102,
      "chip": "ym2612"
    },
    {
      "channel": 0,
      "note": 61,
      "start": 3.0298,
      "duration": 0.004,
      "velocity": 102,
      "chip": "ym2612"
    },
    {
      "channel": 1,
      "note": 63,
      "start": 3.0302,
      "duration": 0.0038,
      "velocity": 102,
      "chip": "ym2612"
    },
    {
      "channel": 3,
      "note": 80,
      "start": 3.0328,
      "duration": 0.0121,
      "velocity": 118,
      "chip": "ym2612"
    },
    {
      "channel": 0,
      "note": 61,
      "start": 3.0385,
      "duration": 0.003,
      "velocity": 102,
      "chip": "ym2612"
    },
    {
      "channel": 1,
      "note": 63,
      "start": 3.0388,
      "duration": 0.005,
      "velocity": 102,
      "chip": "ym2612"
    },
    {
      "channel": 0,
      "note": 54,
      "start": 3.0471,
      "duration": 0.0037,
      "velocity": 102,
      "chip": "ym2612"
    },
    {
      "channel": 1,
      "note": 75,
      "start": 3.0475,
      "duration": 0.0056,
      "velocity": 102,
      "chip": "ym2612"
    },
    {
      "channel": 2,
      "note": 63,
      "start": 3.0478,
      "duration": 0.0217,
      "velocity": 112,
      "chip": "ym2612"
    },
    {
      "channel": 3,
      "note": 54,
      "start": 3.0485,
      "duration": 0.0182,
      "velocity": 120,
      "chip": "ym2612"
    },
    {
      "channel": 0,
      "note": 54,
      "start": 3.0561,
      "duration": 0.0023,
      "velocity": 102,
      "chip": "ym2612"
    },
    {
      "channel": 1,
      "note": 63,
      "start": 3.0574,
      "duration": 0.0042,
      "velocity": 102,
      "chip": "ym2612"
    },
    {
      "channel": 0,
      "note": 49,
      "start": 3.0663,
      "duration": 0.0029,
      "velocity": 102,
      "chip": "ym2612"
    },
    {
      "channel": 1,
      "note": 63,
      "start": 3.0666,
      "duration": 0.0059,
      "velocity": 102,
      "chip": "ym2612"
    },
    {
      "channel": 3,
      "note": 80,
      "start": 3.0683,
      "duration": 0.0127,
      "velocity": 118,
      "chip": "ym2612"
    },
    {
      "channel": 0,
      "note": 54,
      "start": 3.0745,
      "duration": 0.0024,
      "velocity": 102,
      "chip": "ym2612"
    },
    {
      "channel": 1,
      "note": 63,
      "start": 3.0749,
      "duration": 0.0024,
      "velocity": 102,
      "chip": "ym2612"
    },
    {
      "channel": 2,
      "note": 58,
      "start": 3.076,
      "duration": 0.0213,
      "velocity": 112,
      "chip": "ym2612"
    },
    {
      "channel": 0,
      "note": 54,
      "start": 3.0822,
      "duration": 0.0061,
      "velocity": 102,
      "chip": "ym2612"
    },
    {
      "channel": 1,
      "note": 63,
      "start": 3.0826,
      "duration": 0.008,
      "velocity": 102,
      "chip": "ym2612"
    },
    {
      "channel": 3,
      "note": 42,
      "start": 3.0834,
      "duration": 0.0189,
      "velocity": 127,
      "chip": "ym2612"
    },
    {
      "channel": 0,
      "note": 49,
      "start": 3.0929,
      "duration": 0.003,
      "velocity": 102,
      "chip": "ym2612"
    },
    {
      "channel": 1,
      "note": 63,
      "start": 3.0932,
      "duration": 0.003,
      "velocity": 102,
      "chip": "ym2612"
    },
    {
      "channel": 0,
      "note": 54,
      "start": 3.1015,
      "duration": 0.0034,
      "velocity": 102,
      "chip": "ym2612"
    },
    {
      "channel": 1,
      "note": 63,
      "start": 3.1018,
      "duration": 0.0064,
      "velocity": 102,
      "chip": "ym2612"
    },
    {
      "channel": 2,
      "note": 56,
      "start": 3.1021,
      "duration": 0.0206,
      "velocity": 112,
      "chip": "ym2612"
    },
    {
      "channel": 3,
      "note": 80,
      "start": 3.1039,
      "duration": 0.0127,
      "velocity": 118,
      "chip": "ym2612"
    },
    {
      "channel": 0,
      "note": 54,
      "start": 3.1103,
      "duration": 0.0022,
      "velocity": 102,
      "chip": "ym2612"
    },
    {
      "channel": 1,
      "note": 63,
      "start": 3.1114,
      "duration": 0.0033,
      "velocity": 102,
      "chip": "ym2612"
    },
    {
      "channel": 0,
      "note": 49,
      "start": 3.1179,
      "duration": 0.0035,
      "velocity": 102,
      "chip": "ym2612"
    },
    {
      "channel": 1,
      "note": 63,
      "start": 3.1183,
      "duration": 0.0033,
      "velocity": 102,
      "chip": "ym2612"
    },
    {
      "channel": 3,
      "note": 42,
      "start": 3.119,
      "duration": 0.0188,
      "velocity": 127,
      "chip": "ym2612"
    },
    {
      "channel": 0,
      "note": 54,
      "start": 3.127,
      "duration": 0.0026,
      "velocity": 102,
      "chip": "ym2612"
    },
    {
      "channel": 1,
      "note": 63,
      "start": 3.1274,
      "duration": 0.0054,
      "velocity": 102,
      "chip": "ym2612"
    },
    {
      "channel": 2,
      "note": 51,
      "start": 3.1278,
      "duration": 0.0061,
      "velocity": 112,
      "chip": "ym2612"
    },
    {
      "channel": 0,
      "note": 54,
      "start": 3.1375,
      "duration": 0.003,
      "velocity": 102,
      "chip": "ym2612"
    },
    {
      "channel": 1,
      "note": 63,
      "start": 3.1377,
      "duration": 0.006,
      "velocity": 102,
      "chip": "ym2612"
    },
    {
      "channel": 3,
      "note": 80,
      "start": 3.1395,
      "duration": 0.0126,
      "velocity": 118,
      "chip": "ym2612"
    },
    {
      "channel": 0,
      "note": 49,
      "start": 3.1459,
      "duration": 0.0029,
      "velocity": 102,
      "chip": "ym2612"
    },
    {
      "channel": 1,
      "note": 63,
      "start": 3.1462,
      "duration": 0.0029,
      "velocity": 102,
      "chip": "ym2612"
    },
    {
      "channel": 0,
      "note": 54,
      "start": 3.1534,
      "duration": 0.0061,
      "velocity": 102,
      "chip": "ym2612"
    },
    {
      "channel": 1,
      "note": 61,
      "start": 3.1538,
      "duration": 0.0091,
      "velocity": 102,
      "chip": "ym2612"
    },
    {
      "channel": 2,
      "note": 49,
      "start": 3.1541,
      "duration": 0.0134,
      "velocity": 112,
      "chip": "ym2612"
    },
    {
      "channel": 3,
      "note": 42,
      "start": 3.1548,
      "duration": 0.0188,
      "velocity": 127,
      "chip": "ym2612"
    },
    {
      "channel": 0,
      "note": 54,
      "start": 3.1651,
      "duration": 0.0022,
      "velocity": 102,
      "chip": "ym2612"
    },
    {
      "channel": 1,
      "note": 63,
      "start": 3.1663,
      "duration": 0.0036,
      "velocity": 102,
      "chip": "ym2612"
    },
    {
      "channel": 0,
      "note": 56,
      "start": 3.1729,
      "duration": 0.0032,
      "velocity": 102,
      "chip": "ym2612"
    },
    {
      "channel": 1,
      "note": 63,
      "start": 3.1732,
      "duration": 0.0032,
      "velocity": 102,
      "chip": "ym2612"
    },
    {
      "channel": 2,
      "note": 51,
      "start": 3.1735,
      "duration": 0.0117,
      "velocity": 112,
      "chip": "ym2612"
    },
    {
      "channel": 3,
      "note": 80,
      "start": 3.1751,
      "duration": 0.0133,
      "velocity": 118,
      "chip": "ym2612"
    },
    {
      "channel": 0,
      "note": 56,
      "start": 3.1818,
      "duration": 0.0022,
      "velocity": 102,
      "chip": "ym2612"
    },
    {
      "channel": 1,
      "note": 63,
      "start": 3.1822,
      "duration": 0.0051,
      "velocity": 102,
      "chip": "ym2612"
    },
    {
      "channel": 0,
      "note": 54,
      "start": 3.1898,
      "duration": 0.0036,
      "velocity": 102,
      "chip": "ym2612"
    },
    {
      "channel": 1,
      "note": 75,
      "start": 3.19,
      "duration": 0.0076,
      "velocity": 102,
      "chip": "ym2612"
    },
    {
      "channel": 2,
      "note": 63,
      "start": 3.1903,
      "duration": 0.0228,
      "velocity": 112,
      "chip": "ym2612"
    },
    {
      "channel": 3,
      "note": 54,
      "start": 3.191,
      "duration": 0.0184,
      "velocity": 120,
      "chip": "ym2612"
    },
    {
      "channel": 0,
      "note": 54,
      "start": 3.1988,
      "duration": 0.0022,
      "velocity": 102,
      "chip": "ym2612"
    },
    {
      "channel": 1,
      "note": 63,
      "start": 3.2001,
      "duration": 0.0042,
      "velocity": 102,
      "chip": "ym2612"
    },
    {
      "channel": 0,
      "note": 49,
      "start": 3.209,
      "duration": 0.0038,
      "velocity": 102,
      "chip": "ym2612"
    },
    {
      "channel": 1,
      "note": 63,
      "start": 3.2093,
      "duration": 0.0059,
      "velocity": 102,
      "chip": "ym2612"
    },
    {
      "channel": 3,
      "note": 80,
      "start": 3.211,
      "duration": 0.0131,
      "velocity": 118,
      "chip": "ym2612"
    },
    {
      "channel": 0,
      "note": 54,
      "start": 3.2175,
      "duration": 0.0034,
      "velocity": 102,
      "chip": "ym2612"
    },
    {
      "channel": 1,
      "note": 63,
      "start": 3.2178,
      "duration": 0.0032,
      "velocity": 102,
      "chip": "ym2612"
    },
    {
      "channel": 2,
      "note": 58,
      "start": 3.2199,
      "duration": 0.0187,
      "velocity": 112,
      "chip": "ym2612"
    },
    {
      "channel": 0,
      "note": 54,
      "start": 3.2261,
      "duration": 0.0034,
      "velocity": 102,
      "chip": "ym2612"
    },
    {
      "channel": 1,
      "note": 63,
      "start": 3.2264,
      "duration": 0.0053,
      "velocity": 102,
      "chip": "ym2612"
    },
    {
      "channel": 3,
      "note": 42,
      "start": 3.2271,
      "duration": 0.0164,
      "velocity": 127,
      "chip": "ym2612"
    },
    {
      "channel": 0,
      "note": 49,
      "start": 3.2348,
      "duration": 0.0023,
      "velocity": 102,
      "chip": "ym2612"
    },
    {
      "channel": 1,
      "note": 63,
      "start": 3.2352,
      "duration": 0.0022,
      "velocity": 102,
      "chip": "ym2612"
    },
    {
      "channel": 0,
      "note": 54,
      "start": 3.2428,
      "duration": 0.0034,
      "velocity": 102,
      "chip": "ym2612"
    },
    {
      "channel": 1,
      "note": 63,
      "start": 3.2431,
      "duration": 0.0072,
      "velocity": 102,
      "chip": "ym2612"
    },
    {
      "channel": 2,
      "note": 56,
      "start": 3.2434,
      "duration": 0.022,
      "velocity": 112,
      "chip": "ym2612"
    },
    {
      "channel": 3,
      "note": 80,
      "start": 3.2452,
      "duration": 0.0128,
      "velocity": 118,
      "chip": "ym2612"
    },
    {
      "channel": 0,
      "note": 54,
      "start": 3.2515,
      "duration": 0.0022,
      "velocity": 102,
      "chip": "ym2612"
    },
    {
      "channel": 1,
      "note": 63,
      "start": 3.2527,
      "duration": 0.0043,
      "velocity": 102,
      "chip": "ym2612"
    },
    {
      "channel": 0,
      "note": 49,
      "start": 3.2594,
      "duration": 0.0037,
      "velocity": 102,
      "chip": "ym2612"
    },
    {
      "channel": 1,
      "note": 63,
      "start": 3.2598,
      "duration": 0.0034,
      "velocity": 102,
      "chip": "ym2612"
    },
    {
      "channel": 3,
      "note": 42,
      "start": 3.2606,
      "duration": 0.0189,
      "velocity": 127,
      "chip": "ym2612"
    },
    {
      "channel": 0,
      "note": 54,
      "start": 3.2688,
      "duration": 0.0033,
      "velocity": 102,
      "chip": "ym2612"
    },
    {
      "channel": 1,
      "note": 63,
      "start": 3.269,
      "duration": 0.0055,
      "velocity": 102,
      "chip": "ym2612"
    },
    {
      "channel": 2,
      "note": 51,
      "start": 3.2693,
      "duration": 0.0063,
      "velocity": 112,
      "chip": "ym2612"
    },
    {
      "channel": 0,
      "note": 54,
      "start": 3.2792,
      "duration": 0.0038,
      "velocity": 102,
      "chip": "ym2612"
    },
    {
      "channel": 1,
      "note": 63,
      "start": 3.2795,
      "duration": 0.0056,
      "velocity": 102,
      "chip": "ym2612"
    },
    {
      "channel": 3,
      "note": 80,
      "start": 3.282,
      "duration": 0.0114,
      "velocity": 118,
      "chip": "ym2612"
    },
    {
      "channel": 0,
      "note": 49,
      "start": 3.2881,
      "duration": 0.0021,
      "velocity": 102,
      "chip": "ym2612"
    },
    {
      "channel": 1,
      "note": 63,
      "start": 3.2884,
      "duration": 0.0021,
      "velocity": 102,
      "chip": "ym2612"
    },
    {
      "channel": 0,
      "note": 54,
      "start": 3.2955,
      "duration": 0.0034,
      "velocity": 102,
      "chip": "ym2612"
    },
    {
      "channel": 1,
      "note": 66,
      "start": 3.2958,
      "duration": 0.0072,
      "velocity": 102,
      "chip": "ym2612"
    },
    {
      "channel": 2,
      "note": 49,
      "start": 3.2961,
      "duration": 0.0236,
      "velocity": 112,
      "chip": "ym2612"
    },
    {
      "channel": 3,
      "note": 42,
      "start": 3.2967,
      "duration": 0.0161,
      "velocity": 127,
      "chip": "ym2612"
    },
    {
      "channel": 0,
      "note": 54,
      "start": 3.3043,
      "duration": 0.0022,
      "velocity": 102,
      "chip": "ym2612"
    },
    {
      "channel": 1,
      "note": 63,
      "start": 3.3055,
      "duration": 0.0044,
      "velocity": 102,
      "chip": "ym2612"
    },
    {
      "channel": 0,
      "note": 57,
      "start": 3.3122,
      "duration": 0.0031,
      "velocity": 102,
      "chip": "ym2612"
    },
    {
      "channel": 1,
      "note": 63,
      "start": 3.3126,
      "duration": 0.0029,
      "velocity": 102,
      "chip": "ym2612"
    },
    {
      "channel": 3,
      "note": 80,
      "start": 3.3143,
      "duration": 0.0131,
      "velocity": 118,
      "chip": "ym2612"
    },
    {
      "channel": 0,
      "note": 57,
      "start": 3.3209,
      "duration": 0.0023,
      "velocity": 102,
      "chip": "ym2612"
    },
    {
      "channel": 1,
      "note": 63,
      "start": 3.3214,
      "duration": 0.005,
      "velocity": 102,
      "chip": "ym2612"
    },
    {
      "channel": 0,
      "note": 54,
      "start": 3.3288,
      "duration": 0.0047,
      "velocity": 102,
      "chip": "ym2612"
    },
    {
      "channel": 1,
      "note": 75,
      "start": 3.3292,
      "duration": 0.0067,
      "velocity": 102,
      "chip": "ym2612"
    },
    {
      "channel": 2,
      "note": 63,
      "start": 3.3295,
      "duration": 0.0227,
      "velocity": 112,
      "chip": "ym2612"
    },
    {
      "channel": 3,
      "note": 54,
      "start": 3.3304,
      "duration": 0.0191,
      "velocity": 120,
      "chip": "ym2612"
    },
    {
      "channel": 0,
      "note": 54,
      "start": 3.338,
      "duration": 0.0032,
      "velocity": 102,
      "chip": "ym2612"
    },
    {
      "channel": 1,
      "note": 63,
      "start": 3.3403,
      "duration": 0.0034,
      "velocity": 102,
      "chip": "ym2612"
    },
    {
      "channel": 0,
      "note": 49,
      "start": 3.3492,
      "duration": 0.0029,
      "velocity": 102,
      "chip": "ym2612"
    },
    {
      "channel": 1,
      "note": 63,
      "start": 3.3494,
      "duration": 0.0049,
      "velocity": 102,
      "chip": "ym2612"
    },
    {
      "channel": 3,
      "note": 80,
      "start": 3.3511,
      "duration": 0.0129,
      "velocity": 118,
      "chip": "ym2612"
    },
    {
      "channel": 0,
      "note": 54,
      "start": 3.3575,
      "duration": 0.0025,
      "velocity": 102,
      "chip": "ym2612"
    },
    {
      "channel": 1,
      "note": 63,
      "start": 3.3578,
      "duration": 0.0024,
      "velocity": 102,
      "chip": "ym2612"
    },
    {
      "channel": 2,
      "note": 58,
      "start": 3.359,
      "duration": 0.0194,
      "velocity": 112,
      "chip": "ym2612"
    },
    {
      "channel": 0,
      "note": 54,
      "start": 3.3652,
      "duration": 0.0032,
      "velocity": 102,
      "chip": "ym2612"
    },
    {
      "channel": 1,
      "note": 63,
      "start": 3.3656,
      "duration": 0.0061,
      "velocity": 102,
      "chip": "ym2612"
    },
    {
      "channel": 3,
      "note": 42,
      "start": 3.3663,
      "duration": 0.0163,
      "velocity": 127,
      "chip": "ym2612"
    },
    {
      "channel": 0,
      "note": 49,
      "start": 3.3739,
      "duration": 0.0023,
      "velocity": 102,
      "chip": "ym2612"
    },
    {
      "channel": 1,
      "note": 63,
      "start": 3.3743,
      "duration": 0.0021,
      "velocity": 102,
      "chip": "ym2612"
    },
    {
      "channel": 0,
      "note": 54,
      "start": 3.3818,
      "duration": 0.0034,
      "velocity": 102,
      "chip": "ym2612"
    },
    {
      "channel": 1,
      "note": 63,
      "start": 3.3822,
      "duration": 0.0071,
      "velocity": 102,
      "chip": "ym2612"
    },
    {
      "channel": 2,
      "note": 56,
      "start": 3.3825,
      "duration": 0.0216,
      "velocity": 112,
      "chip": "ym2612"
    },
    {
      "channel": 3,
      "note": 80,
      "start": 3.3843,
      "duration": 0.0127,
      "velocity": 118,
      "chip": "ym2612"
    },
    {
      "channel": 0,
      "note": 54,
      "start": 3.3905,
      "duration": 0.0032,
      "velocity": 102,
      "chip": "ym2612"
    },
    {
      "channel": 1,
      "note": 63,
      "start": 3.3917,
      "duration": 0.0042,
      "velocity": 102,
      "chip": "ym2612"
    },
    {
      "channel": 0,
      "note": 49,
      "start": 3.3983,
      "duration": 0.0044,
      "velocity": 102,
      "chip": "ym2612"
    },
    {
      "channel": 1,
      "note": 63,
      "start": 3.3987,
      "duration": 0.0043,
      "velocity": 102,
      "chip": "ym2612"
    },
    {
      "channel": 3,
      "note": 42,
      "start": 3.3994,
      "duration": 0.0197,
      "velocity": 127,
      "chip": "ym2612"
    },
    {
      "channel": 0,
      "note": 54,
      "start": 3.4084,
      "duration": 0.0025,
      "velocity": 102,
      "chip": "ym2612"
    },
    {
      "channel": 1,
      "note": 63,
      "start": 3.4087,
      "duration": 0.0045,
      "velocity": 102,
      "chip": "ym2612"
    },
    {
      "channel": 2,
      "note": 51,
      "start": 3.409,
      "duration": 0.0086,
      "velocity": 112,
      "chip": "ym2612"
    },
    {
      "channel": 0,
      "note": 54,
      "start": 3.4188,
      "duration": 0.0028,
      "velocity": 102,
      "chip": "ym2612"
    },
    {
      "channel": 1,
      "note": 63,
      "start": 3.4191,
      "duration": 0.0047,
      "velocity": 102,
      "chip": "ym2612"
    },
    {
      "channel": 3,
      "note": 80,
      "start": 3.4207,
      "duration": 0.0122,
      "velocity": 118,
      "chip": "ym2612"
    },
    {
      "channel": 0,
      "note": 49,
      "start": 3.4268,
      "duration": 0.0021,
      "velocity": 102,
      "chip": "ym2612"
    },
    {
      "channel": 1,
      "note": 63,
      "start": 3.4271,
      "duration": 0.0019,
      "velocity": 102,
      "chip": "ym2612"
    },
    {
      "channel": 0,
      "note": 54,
      "start": 3.4341,
      "duration": 0.0037,
      "velocity": 102,
      "chip": "ym2612"
    },
    {
      "channel": 1,
      "note": 61,
      "start": 3.4344,
      "duration": 0.0073,
      "velocity": 102,
      "chip": "ym2612"
    },
    {
      "channel": 2,
      "note": 49,
      "start": 3.4348,
      "duration": 0.0115,
      "velocity": 112,
      "chip": "ym2612"
    },
    {
      "channel": 3,
      "note": 42,
      "start": 3.4355,
      "duration": 0.0157,
      "velocity": 127,
      "chip": "ym2612"
    },
    {
      "channel": 0,
      "note": 54,
      "start": 3.443,
      "duration": 0.003,
      "velocity": 102,
      "chip": "ym2612"
    },
    {
      "channel": 1,
      "note": 63,
      "start": 3.4441,
      "duration": 0.0043,
      "velocity": 102,
      "chip": "ym2612"
    },
    {
      "channel": 0,
      "note": 56,
      "start": 3.4506,
      "duration": 0.0041,
      "velocity": 102,
      "chip": "ym2612"
    },
    {
      "channel": 1,
      "note": 63,
      "start": 3.4509,
      "duration": 0.0041,
      "velocity": 102,
      "chip": "ym2612"
    },
    {
      "channel": 2,
      "note": 51,
      "start": 3.4511,
      "duration": 0.0127,
      "velocity": 112,
      "chip": "ym2612"
    },
    {
      "channel": 3,
      "note": 80,
      "start": 3.4528,
      "duration": 0.0132,
      "velocity": 118,
      "chip": "ym2612"
    },
    {
      "channel": 0,
      "note": 56,
      "start": 3.4597,
      "duration": 0.0029,
      "velocity": 102,
      "chip": "ym2612"
    },
    {
      "channel": 1,
      "note": 63,
      "start": 3.4599,
      "duration": 0.0051,
      "velocity": 102,
      "chip": "ym2612"
    },
    {
      "channel": 0,
      "note": 54,
      "start": 3.4683,
      "duration": 0.0034,
      "velocity": 102,
      "chip": "ym2612"
    },
    {
      "channel": 1,
      "note": 75,
      "start": 3.4686,
      "duration": 0.0074,
      "velocity": 102,
      "chip": "ym2612"
    },
    {
      "channel": 3,
      "note": 54,
      "start": 3.4695,
      "duration": 0.0181,
      "velocity": 120,
      "chip": "ym2612"
    },
    {
      "channel": 0,
      "note": 54,
      "start": 3.4772,
      "duration": 0.0022,
      "velocity": 102,
      "chip": "ym2612"
    },
    {
      "channel": 1,
      "note": 63,
      "start": 3.4785,
      "duration": 0.0031,
      "velocity": 102,
      "chip": "ym2612"
    },
    {
      "channel": 0,
      "note": 49,
      "start": 3.4872,
      "duration": 0.0035,
      "velocity": 102,
      "chip": "ym2612"
    },
    {
      "channel": 1,
      "note": 63,
      "start": 3.4874,
      "duration": 0.0064,
      "velocity": 102,
      "chip": "ym2612"
    },
    {
      "channel": 3,
      "note": 80,
      "start": 3.4895,
      "duration": 0.013,
      "velocity": 118,
      "chip": "ym2612"
    },
    {
      "channel": 0,
      "note": 54,
      "start": 3.4961,
      "duration": 0.0021,
      "velocity": 102,
      "chip": "ym2612"
    },
    {
      "channel": 1,
      "note": 63,
      "start": 3.4963,
      "duration": 0.0021,
      "velocity": 102,
      "chip": "ym2612"
    },
    {
      "channel": 0,
      "note": 54,
      "start": 3.5061,
      "duration": 0.0056,
      "velocity": 102,
      "chip": "ym2612"
    },
    {
      "channel": 1,
      "note": 63,
      "start": 3.5063,
      "duration": 0.0076,
      "velocity": 102,
      "chip": "ym2612"
    },
    {
      "channel": 3,
      "note": 42,
      "start": 3.5071,
      "duration": 0.0176,
      "velocity": 127,
      "chip": "ym2612"
    },
    {
      "channel": 0,
      "note": 49,
      "start": 3.5163,
      "duration": 0.0031,
      "velocity": 102,
      "chip": "ym2612"
    },
    {
      "channel": 1,
      "note": 63,
      "start": 3.5167,
      "duration": 0.003,
      "velocity": 102,
      "chip": "ym2612"
    },
    {
      "channel": 0,
      "note": 54,
      "start": 3.5241,
      "duration": 0.004,
      "velocity": 102,
      "chip": "ym2612"
    },
    {
      "channel": 1,
      "note": 63,
      "start": 3.5246,
      "duration": 0.0068,
      "velocity": 102,
      "chip": "ym2612"
    },
    {
      "channel": 3,
      "note": 80,
      "start": 3.5271,
      "duration": 0.0134,
      "velocity": 118,
      "chip": "ym2612"
    },
    {
      "channel": 0,
      "note": 54,
      "start": 3.5336,
      "duration": 0.0022,
      "velocity": 102,
      "chip": "ym2612"
    },
    {
      "channel": 1,
      "note": 63,
      "start": 3.5348,
      "duration": 0.0037,
      "velocity": 102,
      "chip": "ym2612"
    },
    {
      "channel": 0,
      "note": 49,
      "start": 3.5418,
      "duration": 0.0031,
      "velocity": 102,
      "chip": "ym2612"
    },
    {
      "channel": 1,
      "note": 63,
      "start": 3.5422,
      "duration": 0.003,
      "velocity": 102,
      "chip": "ym2612"
    },
    {
      "channel": 3,
      "note": 42,
      "start": 3.543,
      "duration": 0.0203,
      "velocity": 127,
      "chip": "ym2612"
    },
    {
      "channel": 0,
      "note": 54,
      "start": 3.551,
      "duration": 0.0067,
      "velocity": 102,
      "chip": "ym2612"
    },
    {
      "channel": 1,
      "note": 63,
      "start": 3.5514,
      "duration": 0.0094,
      "velocity": 102,
      "chip": "ym2612"
    },
    {
      "channel": 0,
      "note": 54,
      "start": 3.563,
      "duration": 0.003,
      "velocity": 102,
      "chip": "ym2612"
    },
    {
      "channel": 1,
      "note": 63,
      "start": 3.5632,
      "duration": 0.0059,
      "velocity": 102,
      "chip": "ym2612"
    },
    {
      "channel": 3,
      "note": 80,
      "start": 3.565,
      "duration": 0.0168,
      "velocity": 118,
      "chip": "ym2612"
    },
    {
      "channel": 0,
      "note": 49,
      "start": 3.574,
      "duration": 0.0045,
      "velocity": 102,
      "chip": "ym2612"
    },
    {
      "channel": 1,
      "note": 63,
      "start": 3.5744,
      "duration": 0.0043,
      "velocity": 102,
      "chip": "ym2612"
    },
    {
      "channel": 0,
      "note": 54,
      "start": 3.5829,
      "duration": 0.0038,
      "velocity": 102,
      "chip": "ym2612"
    },
    {
      "channel": 1,
      "note": 66,
      "start": 3.5832,
      "duration": 0.0072,
      "velocity": 102,
      "chip": "ym2612"
    },
    {
      "channel": 3,
      "note": 42,
      "start": 3.5839,
      "duration": 0.0199,
      "velocity": 127,
      "chip": "ym2612"
    },
    {
      "channel": 0,
      "note": 54,
      "start": 3.5918,
      "duration": 0.0059,
      "velocity": 102,
      "chip": "ym2612"
    },
    {
      "channel": 1,
      "note": 63,
      "start": 3.5968,
      "duration": 0.0032,
      "velocity": 102,
      "chip": "ym2612"
    },
    {
      "channel": 0,
      "note": 61,
      "start": 3.6032,
      "duration": 0.0032,
      "velocity": 102,
      "chip": "ym2612"
    },
    {
      "channel": 1,
      "note": 63,
      "start": 3.6036,
      "duration": 0.003,
      "velocity": 102,
      "chip": "ym2612"
    },
    {
      "channel": 3,
      "note": 80,
      "start": 3.6054,
      "duration": 0.016,
      "velocity": 118,
      "chip": "ym2612"
    },
    {
      "channel": 0,
      "note": 61,
      "start": 3.612,
      "duration": 0.0023,
      "velocity": 102,
      "chip": "ym2612"
    },
    {
      "channel": 1,
      "note": 63,
      "start": 3.6122,
      "duration": 0.0044,
      "velocity": 102,
      "chip": "ym2612"
    },
    {
      "channel": 0,
      "note": 53,
      "start": 3.6232,
      "duration": 1.1678,
      "velocity": 102,
      "chip": "ym2612"
    },
    {
      "channel": 1,
      "note": 79,
      "start": 3.624,
      "duration": 0.0149,
      "velocity": 122,
      "chip": "ym2612"
    },
    {
      "channel": 2,
      "note": 65,
      "start": 3.6244,
      "duration": 0.0337,
      "velocity": 112,
      "chip": "ym2612"
    },
    {
      "channel": 3,
      "note": 54,
      "start": 3.6251,
      "duration": 0.0152,
      "velocity": 120,
      "chip": "ym2612"
    },
    {
      "channel": 1,
      "note": 80,
      "start": 3.6402,
      "duration": 0.0421,
      "velocity": 122,
      "chip": "ym2612"
    },
    {
      "channel": 3,
      "note": 80,
      "start": 3.642,
      "duration": 0.0261,
      "velocity": 118,
      "chip": "ym2612"
    },
    {
      "channel": 2,
      "note": 60,
      "start": 3.6634,
      "duration": 0.0162,
      "velocity": 112,
      "chip": "ym2612"
    },
    {
      "channel": 3,
      "note": 105,
      "start": 3.6695,
      "duration": 0.0129,
      "velocity": 119,
      "chip": "ym2612"
    },
    {
      "channel": 1,
      "note": 81,
      "start": 3.6839,
      "duration": 0.0235,
      "velocity": 122,
      "chip": "ym2612"
    },
    {
      "channel": 2,
      "note": 58,
      "start": 3.6842,
      "duration": 0.0283,
      "velocity": 112,
      "chip": "ym2612"
    },
    {
      "channel": 3,
      "note": 80,
      "start": 3.6845,
      "duration": 0.0167,
      "velocity": 118,
      "chip": "ym2612"
    },
    {
      "channel": 3,
      "note": 80,
      "start": 3.7024,
      "duration": 0.0023,
      "velocity": 118,
      "chip": "ym2612"
    },
    {
      "channel": 1,
      "note": 82,
      "start": 3.7086,
      "duration": 0.0302,
      "velocity": 122,
      "chip": "ym2612"
    },
    {
      "channel": 3,
      "note": 80,
      "start": 3.7088,
      "duration": 0.0092,
      "velocity": 118,
      "chip": "ym2612"
    },
    {
      "channel": 2,
      "note": 53,
      "start": 3.7179,
      "duration": 0.0189,
      "velocity": 112,
      "chip": "ym2612"
    },
    {
      "channel": 3,
      "note": 80,
      "start": 3.7192,
      "duration": 0.0033,
      "velocity": 118,
      "chip": "ym2612"
    },
    {
      "channel": 3,
      "note": 80,
      "start": 3.7255,
      "duration": 0.0122,
      "velocity": 118,
      "chip": "ym2612"
    },
    {
      "channel": 1,
      "note": 86,
      "start": 3.7437,
      "duration": 0.0126,
      "velocity": 122,
      "chip": "ym2612"
    },
    {
      "channel": 2,
      "note": 51,
      "start": 3.744,
      "duration": 0.0193,
      "velocity": 112,
      "chip": "ym2612"
    },
    {
      "channel": 3,
      "note": 80,
      "start": 3.7443,
      "duration": 0.012,
      "velocity": 118,
      "chip": "ym2612"
    },
    {
      "channel": 1,
      "note": 87,
      "start": 3.758,
      "duration": 0.161,
      "velocity": 122,
      "chip": "ym2612"
    },
    {
      "channel": 3,
      "note": 105,
      "start": 3.7583,
      "duration": 0.0127,
      "velocity": 119,
      "chip": "ym2612"
    },
    {
      "channel": 2,
      "note": 53,
      "start": 3.7663,
      "duration": 0.0046,
      "velocity": 112,
      "chip": "ym2612"
    },
    {
      "channel": 2,
      "note": 65,
      "start": 3.7722,
      "duration": 0.0347,
      "velocity": 112,
      "chip": "ym2612"
    },
    {
      "channel": 3,
      "note": 54,
      "start": 3.7729,
      "duration": 0.0156,
      "velocity": 120,
      "chip": "ym2612"
    },
    {
      "channel": 3,
      "note": 80,
      "start": 3.8045,
      "duration": 0.0125,
      "velocity": 118,
      "chip": "ym2612"
    },
    {
      "channel": 2,
      "note": 60,
      "start": 3.8125,
      "duration": 0.0255,
      "velocity": 112,
      "chip": "ym2612"
    },
    {
      "channel": 3,
      "note": 105,
      "start": 3.8185,
      "duration": 0.0224,
      "velocity": 119,
      "chip": "ym2612"
    },
    {
      "channel": 2,
      "note": 58,
      "start": 3.8425,
      "duration": 0.0177,
      "velocity": 112,
      "chip": "ym2612"
    },
    {
      "channel": 3,
      "note": 80,
      "start": 3.8428,
      "duration": 0.0063,
      "velocity": 118,
      "chip": "ym2612"
    },
    {
      "channel": 3,
      "note": 80,
      "start": 3.8502,
      "duration": 0.0032,
      "velocity": 118,
      "chip": "ym2612"
    },
    {
      "channel": 3,
      "note": 80,
      "start": 3.8564,
      "duration": 0.0092,
      "velocity": 118,
      "chip": "ym2612"
    },
    {
      "channel": 2,
      "note": 53,
      "start": 3.8656,
      "duration": 0.0064,
      "velocity": 112,
      "chip": "ym2612"
    },
    {
      "channel": 3,
      "note": 80,
      "start": 3.8683,
      "duration": 0.0019,
      "velocity": 118,
      "chip": "ym2612"
    },
    {
      "channel": 3,
      "note": 80,
      "start": 3.8741,
      "duration": 0.0121,
      "velocity": 118,
      "chip": "ym2612"
    },
    {
      "channel": 2,
      "note": 51,
      "start": 3.891,
      "duration": 0.0101,
      "velocity": 112,
      "chip": "ym2612"
    },
    {
      "channel": 3,
      "note": 80,
      "start": 3.8914,
      "duration": 0.0134,
      "velocity": 118,
      "chip": "ym2612"
    },
    {
      "channel": 2,
      "note": 53,
      "start": 3.9063,
      "duration": 0.0103,
      "velocity": 112,
      "chip": "ym2612"
    },
    {
      "channel": 3,
      "note": 105,
      "start": 3.9066,
      "duration": 0.0136,
      "velocity": 119,
      "chip": "ym2612"
    },
    {
      "channel": 1,
      "note": 81,
      "start": 3.9216,
      "duration": 0.0161,
      "velocity": 122,
      "chip": "ym2612"
    },
    {
      "channel": 2,
      "note": 64,
      "start": 3.922,
      "duration": 0.034,
      "velocity": 112,
      "chip": "ym2612"
    },
    {
      "channel": 3,
      "note": 54,
      "start": 3.9227,
      "duration": 0.0165,
      "velocity": 120,
      "chip": "ym2612"
    },
    {
      "channel": 1,
      "note": 83,
      "start": 3.9391,
      "duration": 0.0445,
      "velocity": 122,
      "chip": "ym2612"
    },
    {
      "channel": 3,
      "note": 80,
      "start": 3.9409,
      "duration": 0.0292,
      "velocity": 118,
      "chip": "ym2612"
    },
    {
      "channel": 2,
      "note": 59,
      "start": 3.9617,
      "duration": 0.0199,
      "velocity": 112,
      "chip": "ym2612"
    },
    {
      "channel": 3,
      "note": 105,
      "start": 3.9716,
      "duration": 0.0121,
      "velocity": 119,
      "chip": "ym2612"
    },
    {
      "channel": 1,
      "note": 84,
      "start": 3.9853,
      "duration": 0.0233,
      "velocity": 122,
      "chip": "ym2612"
    },
    {
      "channel": 2,
      "note": 57,
      "start": 3.9856,
      "duration": 0.0283,
      "velocity": 112,
      "chip": "ym2612"
    },
    {
      "channel": 3,
      "note": 80,
      "start": 3.986,
      "duration": 0.0168,
      "velocity": 118,
      "chip": "ym2612"
    },
    {
      "channel": 3,
      "note": 80,
      "start": 4.0049,
      "duration": 0.0019,
      "velocity": 118,
      "chip": "ym2612"
    },
    {
      "channel": 1,
      "note": 85,
      "start": 4.0107,
      "duration": 0.0277,
      "velocity": 122,
      "chip": "ym2612"
    },
    {
      "channel": 3,
      "note": 80,
      "start": 4.0112,
      "duration": 0.0066,
      "velocity": 118,
      "chip": "ym2612"
    },
    {
      "channel": 2,
      "note": 52,
      "start": 4.0177,
      "duration": 0.0188,
      "velocity": 112,
      "chip": "ym2612"
    },
    {
      "channel": 3,
      "note": 80,
      "start": 4.0188,
      "duration": 0.0025,
      "velocity": 118,
      "chip": "ym2612"
    },
    {
      "channel": 3,
      "note": 80,
      "start": 4.0252,
      "duration": 0.0123,
      "velocity": 118,
      "chip": "ym2612"
    },
    {
      "channel": 1,
      "note": 89,
      "start": 4.0426,
      "duration": 0.0144,
      "velocity": 122,
      "chip": "ym2612"
    },
    {
      "channel": 2,
      "note": 50,
      "start": 4.0429,
      "duration": 0.0209,
      "velocity": 112,
      "chip": "ym2612"
    },
    {
      "channel": 3,
      "note": 80,
      "start": 4.0434,
      "duration": 0.0137,
      "velocity": 118,
      "chip": "ym2612"
    },
    {
      "channel": 1,
      "note": 90,
      "start": 4.0587,
      "duration": 0.1319,
      "velocity": 122,
      "chip": "ym2612"
    },
    {
      "channel": 3,
      "note": 105,
      "start": 4.0589,
      "duration": 0.0138,
      "velocity": 119,
      "chip": "ym2612"
    },
    {
      "channel": 2,
      "note": 52,
      "start": 4.0678,
      "duration": 0.0048,
      "velocity": 112,
      "chip": "ym2612"
    },
    {
      "channel": 2,
      "note": 64,
      "start": 4.0739,
      "duration": 0.0169,
      "velocity": 112,
      "chip": "ym2612"
    },
    {
      "channel": 3,
      "note": 54,
      "start": 4.0747,
      "duration": 0.0129,
      "velocity": 120,
      "chip": "ym2612"
    },
    {
      "channel": 3,
      "note": 80,
      "start": 4.0894,
      "duration": 0.0173,
      "velocity": 118,
      "chip": "ym2612"
    },
    {
      "channel": 2,
      "note": 59,
      "start": 4.0964,
      "duration": 0.0222,
      "velocity": 112,
      "chip": "ym2612"
    },
    {
      "channel": 3,
      "note": 105,
      "start": 4.1081,
      "duration": 0.0124,
      "velocity": 119,
      "chip": "ym2612"
    },
    {
      "channel": 2,
      "note": 57,
      "start": 4.1229,
      "duration": 0.0197,
      "velocity": 112,
      "chip": "ym2612"
    },
    {
      "channel": 3,
      "note": 80,
      "start": 4.1233,
      "duration": 0.0062,
      "velocity": 118,
      "chip": "ym2612"
    },
    {
      "channel": 3,
      "note": 80,
      "start": 4.1306,
      "duration": 0.0023,
      "velocity": 118,
      "chip": "ym2612"
    },
    {
      "channel": 3,
      "note": 80,
      "start": 4.1383,
      "duration": 0.0098,
      "velocity": 118,
      "chip": "ym2612"
    },
    {
      "channel": 2,
      "note": 52,
      "start": 4.148,
      "duration": 0.0064,
      "velocity": 112,
      "chip": "ym2612"
    },
    {
      "channel": 3,
      "note": 80,
      "start": 4.1493,
      "duration": 0.0033,
      "velocity": 118,
      "chip": "ym2612"
    },
    {
      "channel": 3,
      "note": 80,
      "start": 4.1557,
      "duration": 0.0121,
      "velocity": 118,
      "chip": "ym2612"
    },
    {
      "channel": 2,
      "note": 50,
      "start": 4.1734,
      "duration": 0.0086,
      "velocity": 112,
      "chip": "ym2612"
    },
    {
      "channel": 3,
      "note": 80,
      "start": 4.1738,
      "duration": 0.012,
      "velocity": 118,
      "chip": "ym2612"
    },
    {
      "channel": 2,
      "note": 52,
      "start": 4.1873,
      "duration": 0.0098,
      "velocity": 112,
      "chip": "ym2612"
    },
    {
      "channel": 3,
      "note": 105,
      "start": 4.1876,
      "duration": 0.0139,
      "velocity": 119,
      "chip": "ym2612"
    },
    {
      "channel": 1,
      "note": 89,
      "start": 4.1926,
      "duration": 0.0088,
      "velocity": 122,
      "chip": "ym2612"
    },
    {
      "channel": 1,
      "note": 86,
      "start": 4.2028,
      "duration": 0.0148,
      "velocity": 122,
      "chip": "ym2612"
    },
    {
      "channel": 2,
      "note": 60,
      "start": 4.2031,
      "duration": 0.034,
      "velocity": 112,
      "chip": "ym2612"
    },
    {
      "channel": 3,
      "note": 54,
      "start": 4.2039,
      "duration": 0.0152,
      "velocity": 120,
      "chip": "ym2612"
    },
    {
      "channel": 1,
      "note": 87,
      "start": 4.219,
      "duration": 0.0455,
      "velocity": 122,
      "chip": "ym2612"
    },
    {
      "channel": 3,
      "note": 80,
      "start": 4.236,
      "duration": 0.0141,
      "velocity": 118,
      "chip": "ym2612"
    },
    {
      "channel": 2,
      "note": 55,
      "start": 4.2426,
      "duration": 0.0191,
      "velocity": 112,
      "chip": "ym2612"
    },
    {
      "channel": 3,
      "note": 105,
      "start": 4.2525,
      "duration": 0.0121,
      "velocity": 119,
      "chip": "ym2612"
    },
    {
      "channel": 1,
      "note": 88,
      "start": 4.2661,
      "duration": 0.0254,
      "velocity": 122,
      "chip": "ym2612"
    },
    {
      "channel": 2,
      "note": 53,
      "start": 4.2664,
      "duration": 0.0301,
      "velocity": 112,
      "chip": "ym2612"
    },
    {
      "channel": 3,
      "note": 80,
      "start": 4.2669,
      "duration": 0.0169,
      "velocity": 118,
      "chip": "ym2612"
    },
    {
      "channel": 3,
      "note": 80,
      "start": 4.2849,
      "duration": 0.0047,
      "velocity": 118,
      "chip": "ym2612"
    },
    {
      "channel": 1,
      "note": 89,
      "start": 4.2927,
      "duration": 0.0303,
      "velocity": 122,
      "chip": "ym2612"
    },
    {
      "channel": 3,
      "note": 80,
      "start": 4.2929,
      "duration": 0.0093,
      "velocity": 118,
      "chip": "ym2612"
    },
    {
      "channel": 2,
      "note": 48,
      "start": 4.3021,
      "duration": 0.018,
      "velocity": 112,
      "chip": "ym2612"
    },
    {
      "channel": 3,
      "note": 80,
      "start": 4.3042,
      "duration": 0.0018,
      "velocity": 118,
      "chip": "ym2612"
    },
    {
      "channel": 3,
      "note": 80,
      "start": 4.3098,
      "duration": 0.0114,
      "velocity": 118,
      "chip": "ym2612"
    },
    {
      "channel": 1,
      "note": 93,
      "start": 4.3269,
      "duration": 0.0142,
      "velocity": 122,
      "chip": "ym2612"
    },
    {
      "channel": 2,
      "note": 46,
      "start": 4.3273,
      "duration": 0.0208,
      "velocity": 112,
      "chip": "ym2612"
    },
    {
      "channel": 3,
      "note": 80,
      "start": 4.3277,
      "duration": 0.0135,
      "velocity": 118,
      "chip": "ym2612"
    },
    {
      "channel": 1,
      "note": 94,
      "start": 4.3428,
      "duration": 0.1457,
      "velocity": 122,
      "chip": "ym2612"
    },
    {
      "channel": 3,
      "note": 105,
      "start": 4.343,
      "duration": 0.0127,
      "velocity": 119,
      "chip": "ym2612"
    },
    {
      "channel": 2,
      "note": 48,
      "start": 4.351,
      "duration": 0.0045,
      "velocity": 112,
      "chip": "ym2612"
    },
    {
      "channel": 2,
      "note": 60,
      "start": 4.3569,
      "duration": 0.0331,
      "velocity": 112,
      "chip": "ym2612"
    },
    {
      "channel": 3,
      "note": 54,
      "start": 4.3578,
      "duration": 0.0166,
      "velocity": 120,
      "chip": "ym2612"
    },
    {
      "channel": 3,
      "note": 80,
      "start": 4.376,
      "duration": 0.0293,
      "velocity": 118,
      "chip": "ym2612"
    },
    {
      "channel": 2,
      "note": 55,
      "start": 4.397,
      "duration": 0.0199,
      "velocity": 112,
      "chip": "ym2612"
    },
    {
      "channel": 3,
      "note": 105,
      "start": 4.4068,
      "duration": 0.012,
      "velocity": 119,
      "chip": "ym2612"
    },
    {
      "channel": 2,
      "note": 53,
      "start": 4.4203,
      "duration": 0.0286,
      "velocity": 112,
      "chip": "ym2612"
    },
    {
      "channel": 3,
      "note": 80,
      "start": 4.4207,
      "duration": 0.0166,
      "velocity": 118,
      "chip": "ym2612"
    },
    {
      "channel": 3,
      "note": 80,
      "start": 4.4394,
      "duration": 0.0019,
      "velocity": 118,
      "chip": "ym2612"
    },
    {
      "channel": 3,
      "note": 80,
      "start": 4.4451,
      "duration": 0.0078,
      "velocity": 118,
      "chip": "ym2612"
    },
    {
      "channel": 2,
      "note": 48,
      "start": 4.4528,
      "duration": 0.0059,
      "velocity": 112,
      "chip": "ym2612"
    },
    {
      "channel": 3,
      "note": 80,
      "start": 4.454,
      "duration": 0.0019,
      "velocity": 118,
      "chip": "ym2612"
    },
    {
      "channel": 3,
      "note": 80,
      "start": 4.4623,
      "duration": 0.0115,
      "velocity": 118,
      "chip": "ym2612"
    },
    {
      "channel": 2,
      "note": 46,
      "start": 4.4763,
      "duration": 0.0094,
      "velocity": 112,
      "chip": "ym2612"
    },
    {
      "channel": 3,
      "note": 80,
      "start": 4.4766,
      "duration": 0.012,
      "velocity": 118,
      "chip": "ym2612"
    },
    {
      "channel": 1,
      "note": 89,
      "start": 4.4901,
      "duration": 0.0046,
      "velocity": 122,
      "chip": "ym2612"
    },
    {
      "channel": 2,
      "note": 48,
      "start": 4.4904,
      "duration": 0.0109,
      "velocity": 112,
      "chip": "ym2612"
    },
    {
      "channel": 3,
      "note": 105,
      "start": 4.4907,
      "duration": 0.0151,
      "velocity": 119,
      "chip": "ym2612"
    },
    {
      "channel": 1,
      "note": 92,
      "start": 4.4959,
      "duration": 0.0098,
      "velocity": 122,
      "chip": "ym2612"
    },
    {
      "channel": 1,
      "note": 91,
      "start": 4.5071,
      "duration": 0.0151,
      "velocity": 122,
      "chip": "ym2612"
    },
    {
      "channel": 2,
      "note": 58,
      "start": 4.5076,
      "duration": 0.0311,
      "velocity": 112,
      "chip": "ym2612"
    },
    {
      "channel": 3,
      "note": 54,
      "start": 4.5082,
      "duration": 0.0154,
      "velocity": 120,
      "chip": "ym2612"
    },
    {
      "channel": 1,
      "note": 92,
      "start": 4.5236,
      "duration": 0.0441,
      "velocity": 122,
      "chip": "ym2612"
    },
    {
      "channel": 3,
      "note": 80,
      "start": 4.5253,
      "duration": 0.0289,
      "velocity": 118,
      "chip": "ym2612"
    },
    {
      "channel": 2,
      "note": 53,
      "start": 4.546,
      "duration": 0.0198,
      "velocity": 112,
      "chip": "ym2612"
    },
    {
      "channel": 3,
      "note": 105,
      "start": 4.5558,
      "duration": 0.012,
      "velocity": 119,
      "chip": "ym2612"
    },
    {
      "channel": 1,
      "note": 90,
      "start": 4.5702,
      "duration": 0.0239,
      "velocity": 122,
      "chip": "ym2612"
    },
    {
      "channel": 2,
      "note": 51,
      "start": 4.5705,
      "duration": 0.0279,
      "velocity": 112,
      "chip": "ym2612"
    },
    {
      "channel": 3,
      "note": 80,
      "start": 4.5709,
      "duration": 0.0169,
      "velocity": 118,
      "chip": "ym2612"
    },
    {
      "channel": 3,
      "note": 80,
      "start": 4.589,
      "duration": 0.0023,
      "velocity": 118,
      "chip": "ym2612"
    },
    {
      "channel": 1,
      "note": 91,
      "start": 4.5953,
      "duration": 0.0302,
      "velocity": 122,
      "chip": "ym2612"
    },
    {
      "channel": 3,
      "note": 80,
      "start": 4.5956,
      "duration": 0.0092,
      "velocity": 118,
      "chip": "ym2612"
    },
    {
      "channel": 2,
      "note": 46,
      "start": 4.6047,
      "duration": 0.0188,
      "velocity": 112,
      "chip": "ym2612"
    },
    {
      "channel": 3,
      "note": 80,
      "start": 4.6059,
      "duration": 0.0033,
      "velocity": 118,
      "chip": "ym2612"
    },
    {
      "channel": 3,
      "note": 80,
      "start": 4.6123,
      "duration": 0.0122,
      "velocity": 118,
      "chip": "ym2612"
    },
    {
      "channel": 1,
      "note": 84,
      "start": 4.6294,
      "duration": 0.0149,
      "velocity": 122,
      "chip": "ym2612"
    },
    {
      "channel": 2,
      "note": 44,
      "start": 4.6298,
      "duration": 0.0206,
      "velocity": 112,
      "chip": "ym2612"
    },
    {
      "channel": 3,
      "note": 80,
      "start": 4.6301,
      "duration": 0.0143,
      "velocity": 118,
      "chip": "ym2612"
    },
    {
      "channel": 1,
      "note": 85,
      "start": 4.646,
      "duration": 0.1621,
      "velocity": 122,
      "chip": "ym2612"
    },
    {
      "channel": 3,
      "note": 105,
      "start": 4.6462,
      "duration": 0.0128,
      "velocity": 119,
      "chip": "ym2612"
    },
    {
      "channel": 2,
      "note": 46,
      "start": 4.6542,
      "duration": 0.0047,
      "velocity": 112,
      "chip": "ym2612"
    },
    {
      "channel": 2,
      "note": 58,
      "start": 4.6601,
      "duration": 0.0312,
      "velocity": 112,
      "chip": "ym2612"
    },
    {
      "channel": 3,
      "note": 54,
      "start": 4.6608,
      "duration": 0.013,
      "velocity": 120,
      "chip": "ym2612"
    },
    {
      "channel": 3,
      "note": 80,
      "start": 4.6755,
      "duration": 0.029,
      "velocity": 118,
      "chip": "ym2612"
    },
    {
      "channel": 2,
      "note": 53,
      "start": 4.697,
      "duration": 0.0294,
      "velocity": 112,
      "chip": "ym2612"
    },
    {
      "channel": 3,
      "note": 105,
      "start": 4.7069,
      "duration": 0.0223,
      "velocity": 119,
      "chip": "ym2612"
    },
    {
      "channel": 2,
      "note": 51,
      "start": 4.7308,
      "duration": 0.0177,
      "velocity": 112,
      "chip": "ym2612"
    },
    {
      "channel": 3,
      "note": 80,
      "start": 4.7312,
      "duration": 0.0063,
      "velocity": 118,
      "chip": "ym2612"
    },
    {
      "channel": 3,
      "note": 80,
      "start": 4.7386,
      "duration": 0.0032,
      "velocity": 118,
      "chip": "ym2612"
    },
    {
      "channel": 3,
      "note": 80,
      "start": 4.7447,
      "duration": 0.0093,
      "velocity": 118,
      "chip": "ym2612"
    },
    {
      "channel": 2,
      "note": 46,
      "start": 4.7539,
      "duration": 0.0068,
      "velocity": 112,
      "chip": "ym2612"
    },
    {
      "channel": 3,
      "note": 80,
      "start": 4.7569,
      "duration": 0.0018,
      "velocity": 118,
      "chip": "ym2612"
    },
    {
      "channel": 3,
      "note": 80,
      "start": 4.7619,
      "duration": 0.0121,
      "velocity": 118,
      "chip": "ym2612"
    },
    {
      "channel": 2,
      "note": 44,
      "start": 4.7796,
      "duration": 0.0086,
      "velocity": 112,
      "chip": "ym2612"
    },
    {
      "channel": 3,
      "note": 80,
      "start": 4.78,
      "duration": 0.012,
      "velocity": 118,
      "chip": "ym2612"
    },
    {
      "channel": 0,
      "note": 53,
      "start": 4.7941,
      "duration": 0.8657,
      "velocity": 107,
      "chip": "ym2612"
    },
    {
      "channel": 2,
      "note": 46,
      "start": 4.7944,
      "duration": 0.0105,
      "velocity": 112,
      "chip": "ym2612"
    },
    {
      "channel": 3,
      "note": 105,
      "start": 4.7946,
      "duration": 0.0139,
      "velocity": 119,
      "chip": "ym2612"
    },
    {
      "channel": 1,
      "note": 66,
      "start": 4.8097,
      "duration": 0.0483,
      "velocity": 95,
      "chip": "ym2612"
    },
    {
      "channel": 2,
      "note": 65,
      "start": 4.81,
      "duration": 0.02,
      "velocity": 112,
      "chip": "ym2612"
    },
    {
      "channel": 3,
      "note": 54,
      "start": 4.8108,
      "duration": 0.016,
      "velocity": 120,
      "chip": "ym2612"
    },
    {
      "channel": 3,
      "note": 80,
      "start": 4.8286,
      "duration": 0.0117,
      "velocity": 118,
      "chip": "ym2612"
    },
    {
      "channel": 2,
      "note": 60,
      "start": 4.8357,
      "duration": 0.0204,
      "velocity": 112,
      "chip": "ym2612"
    },
    {
      "channel": 3,
      "note": 105,
      "start": 4.8443,
      "duration": 0.0139,
      "velocity": 119,
      "chip": "ym2612"
    },
    {
      "channel": 1,
      "note": 68,
      "start": 4.8597,
      "duration": 0.0418,
      "velocity": 95,
      "chip": "ym2612"
    },
    {
      "channel": 2,
      "note": 58,
      "start": 4.86,
      "duration": 0.0183,
      "velocity": 112,
      "chip": "ym2612"
    },
    {
      "channel": 3,
      "note": 80,
      "start": 4.8604,
      "duration": 0.007,
      "velocity": 118,
      "chip": "ym2612"
    },
    {
      "channel": 3,
      "note": 80,
      "start": 4.8697,
      "duration": 0.0019,
      "velocity": 118,
      "chip": "ym2612"
    },
    {
      "channel": 3,
      "note": 80,
      "start": 4.8745,
      "duration": 0.0079,
      "velocity": 118,
      "chip": "ym2612"
    },
    {
      "channel": 2,
      "note": 53,
      "start": 4.8822,
      "duration": 0.006,
      "velocity": 112,
      "chip": "ym2612"
    },
    {
      "channel": 3,
      "note": 80,
      "start": 4.8835,
      "duration": 0.002,
      "velocity": 118,
      "chip": "ym2612"
    },
    {
      "channel": 3,
      "note": 80,
      "start": 4.8895,
      "duration": 0.0111,
      "velocity": 118,
      "chip": "ym2612"
    },
    {
      "channel": 1,
      "note": 73,
      "start": 4.9031,
      "duration": 0.1307,
      "velocity": 95,
      "chip": "ym2612"
    },
    {
      "channel": 2,
      "note": 51,
      "start": 4.9034,
      "duration": 0.01,
      "velocity": 112,
      "chip": "ym2612"
    },
    {
      "channel": 3,
      "note": 80,
      "start": 4.9038,
      "duration": 0.0124,
      "velocity": 118,
      "chip": "ym2612"
    },
    {
      "channel": 2,
      "note": 53,
      "start": 4.9175,
      "duration": 0.011,
      "velocity": 112,
      "chip": "ym2612"
    },
    {
      "channel": 3,
      "note": 105,
      "start": 4.9181,
      "duration": 0.0122,
      "velocity": 119,
      "chip": "ym2612"
    },
    {
      "channel": 2,
      "note": 65,
      "start": 4.9326,
      "duration": 0.0192,
      "velocity": 112,
      "chip": "ym2612"
    },
    {
      "channel": 3,
      "note": 54,
      "start": 4.9333,
      "duration": 0.0155,
      "velocity": 120,
      "chip": "ym2612"
    },
    {
      "channel": 3,
      "note": 80,
      "start": 4.9506,
      "duration": 0.0126,
      "velocity": 118,
      "chip": "ym2612"
    },
    {
      "channel": 2,
      "note": 60,
      "start": 4.9576,
      "duration": 0.0176,
      "velocity": 112,
      "chip": "ym2612"
    },
    {
      "channel": 3,
      "note": 105,
      "start": 4.9648,
      "duration": 0.0124,
      "velocity": 119,
      "chip": "ym2612"
    },
    {
      "channel": 2,
      "note": 58,
      "start": 4.9788,
      "duration": 0.0179,
      "velocity": 112,
      "chip": "ym2612"
    },
    {
      "channel": 3,
      "note": 80,
      "start": 4.9791,
      "duration": 0.0073,
      "velocity": 118,
      "chip": "ym2612"
    },
    {
      "channel": 3,
      "note": 80,
      "start": 4.9876,
      "duration": 0.0021,
      "velocity": 118,
      "chip": "ym2612"
    },
    {
      "channel": 3,
      "note": 80,
      "start": 4.9934,
      "duration": 0.0071,
      "velocity": 118,
      "chip": "ym2612"
    },
    {
      "channel": 2,
      "note": 53,
      "start": 5.0005,
      "duration": 0.0125,
      "velocity": 112,
      "chip": "ym2612"
    },
    {
      "channel": 3,
      "note": 80,
      "start": 5.0017,
      "duration": 0.0021,
      "velocity": 118,
      "chip": "ym2612"
    },
    {
      "channel": 3,
      "note": 80,
      "start": 5.0076,
      "duration": 0.0115,
      "velocity": 118,
      "chip": "ym2612"
    },
    {
      "channel": 2,
      "note": 53,
      "start": 5.0154,
      "duration": 0.0046,
      "velocity": 112,
      "chip": "ym2612"
    },
    {
      "channel": 2,
      "note": 51,
      "start": 5.0217,
      "duration": 0.0173,
      "velocity": 112,
      "chip": "ym2612"
    },
    {
      "channel": 3,
      "note": 80,
      "start": 5.022,
      "duration": 0.0119,
      "velocity": 118,
      "chip": "ym2612"
    },
    {
      "channel": 1,
      "note": 74,
      "start": 5.036,
      "duration": 0.0634,
      "velocity": 95,
      "chip": "ym2612"
    },
    {
      "channel": 3,
      "note": 105,
      "start": 5.0366,
      "duration": 0.0145,
      "velocity": 119,
      "chip": "ym2612"
    },
    {
      "channel": 2,
      "note": 53,
      "start": 5.0455,
      "duration": 0.0046,
      "velocity": 112,
      "chip": "ym2612"
    },
    {
      "channel": 2,
      "note": 64,
      "start": 5.0527,
      "duration": 0.0202,
      "velocity": 112,
      "chip": "ym2612"
    },
    {
      "channel": 3,
      "note": 54,
      "start": 5.0534,
      "duration": 0.0153,
      "velocity": 120,
      "chip": "ym2612"
    },
    {
      "channel": 3,
      "note": 80,
      "start": 5.0704,
      "duration": 0.0117,
      "velocity": 118,
      "chip": "ym2612"
    },
    {
      "channel": 2,
      "note": 59,
      "start": 5.0785,
      "duration": 0.0181,
      "velocity": 112,
      "chip": "ym2612"
    },
    {
      "channel": 3,
      "note": 105,
      "start": 5.0869,
      "duration": 0.0125,
      "velocity": 119,
      "chip": "ym2612"
    },
    {
      "channel": 1,
      "note": 71,
      "start": 5.1011,
      "duration": 0.0408,
      "velocity": 95,
      "chip": "ym2612"
    },
    {
      "channel": 2,
      "note": 57,
      "start": 5.1015,
      "duration": 0.018,
      "velocity": 112,
      "chip": "ym2612"
    },
    {
      "channel": 3,
      "note": 80,
      "start": 5.102,
      "duration": 0.0068,
      "velocity": 118,
      "chip": "ym2612"
    },
    {
      "channel": 3,
      "note": 80,
      "start": 5.1101,
      "duration": 0.0027,
      "velocity": 118,
      "chip": "ym2612"
    },
    {
      "channel": 3,
      "note": 80,
      "start": 5.1158,
      "duration": 0.0069,
      "velocity": 118,
      "chip": "ym2612"
    },
    {
      "channel": 2,
      "note": 52,
      "start": 5.1225,
      "duration": 0.0061,
      "velocity": 112,
      "chip": "ym2612"
    },
    {
      "channel": 3,
      "note": 80,
      "start": 5.1238,
      "duration": 0.0029,
      "velocity": 118,
      "chip": "ym2612"
    },
    {
      "channel": 3,
      "note": 80,
      "start": 5.1298,
      "duration": 0.0111,
      "velocity": 118,
      "chip": "ym2612"
    },
    {
      "channel": 1,
      "note": 76,
      "start": 5.1444,
      "duration": 0.1438,
      "velocity": 95,
      "chip": "ym2612"
    },
    {
      "channel": 2,
      "note": 50,
      "start": 5.1448,
      "duration": 0.0092,
      "velocity": 112,
      "chip": "ym2612"
    },
    {
      "channel": 3,
      "note": 80,
      "start": 5.1452,
      "duration": 0.0125,
      "velocity": 118,
      "chip": "ym2612"
    },
    {
      "channel": 2,
      "note": 52,
      "start": 5.1589,
      "duration": 0.011,
      "velocity": 112,
      "chip": "ym2612"
    },
    {
      "channel": 3,
      "note": 105,
      "start": 5.1595,
      "duration": 0.0122,
      "velocity": 119,
      "chip": "ym2612"
    },
    {
      "channel": 2,
      "note": 64,
      "start": 5.1756,
      "duration": 0.0216,
      "velocity": 112,
      "chip": "ym2612"
    },
    {
      "channel": 3,
      "note": 54,
      "start": 5.1763,
      "duration": 0.0169,
      "velocity": 120,
      "chip": "ym2612"
    },
    {
      "channel": 3,
      "note": 80,
      "start": 5.1948,
      "duration": 0.0139,
      "velocity": 118,
      "chip": "ym2612"
    },
    {
      "channel": 2,
      "note": 59,
      "start": 5.2029,
      "duration": 0.018,
      "velocity": 112,
      "chip": "ym2612"
    },
    {
      "channel": 3,
      "note": 105,
      "start": 5.2102,
      "duration": 0.0125,
      "velocity": 119,
      "chip": "ym2612"
    },
    {
      "channel": 2,
      "note": 57,
      "start": 5.2244,
      "duration": 0.018,
      "velocity": 112,
      "chip": "ym2612"
    },
    {
      "channel": 3,
      "note": 80,
      "start": 5.2247,
      "duration": 0.0064,
      "velocity": 118,
      "chip": "ym2612"
    },
    {
      "channel": 3,
      "note": 80,
      "start": 5.2322,
      "duration": 0.003,
      "velocity": 118,
      "chip": "ym2612"
    },
    {
      "channel": 3,
      "note": 80,
      "start": 5.2383,
      "duration": 0.0081,
      "velocity": 118,
      "chip": "ym2612"
    },
    {
      "channel": 2,
      "note": 52,
      "start": 5.2463,
      "duration": 0.0127,
      "velocity": 112,
      "chip": "ym2612"
    },
    {
      "channel": 3,
      "note": 80,
      "start": 5.2476,
      "duration": 0.0021,
      "velocity": 118,
      "chip": "ym2612"
    },
    {
      "channel": 3,
      "note": 80,
      "start": 5.2536,
      "duration": 0.0117,
      "velocity": 118,
      "chip": "ym2612"
    },
    {
      "channel": 2,
      "note": 52,
      "start": 5.2612,
      "duration": 0.0051,
      "velocity": 112,
      "chip": "ym2612"
    },
    {
      "channel": 2,
      "note": 50,
      "start": 5.2679,
      "duration": 0.0193,
      "velocity": 112,
      "chip": "ym2612"
    },
    {
      "channel": 3,
      "note": 80,
      "start": 5.2683,
      "duration": 0.012,
      "velocity": 118,
      "chip": "ym2612"
    },
    {
      "channel": 3,
      "note": 105,
      "start": 5.2821,
      "duration": 0.0165,
      "velocity": 119,
      "chip": "ym2612"
    },
    {
      "channel": 1,
      "note": 77,
      "start": 5.2894,
      "duration": 0.0586,
      "velocity": 95,
      "chip": "ym2612"
    },
    {
      "channel": 2,
      "note": 52,
      "start": 5.2939,
      "duration": 0.0036,
      "velocity": 112,
      "chip": "ym2612"
    },
    {
      "channel": 2,
      "note": 60,
      "start": 5.3011,
      "duration": 0.0191,
      "velocity": 112,
      "chip": "ym2612"
    },
    {
      "channel": 3,
      "note": 54,
      "start": 5.3018,
      "duration": 0.0151,
      "velocity": 120,
      "chip": "ym2612"
    },
    {
      "channel": 3,
      "note": 80,
      "start": 5.3186,
      "duration": 0.0117,
      "velocity": 118,
      "chip": "ym2612"
    },
    {
      "channel": 2,
      "note": 55,
      "start": 5.3257,
      "duration": 0.0204,
      "velocity": 112,
      "chip": "ym2612"
    },
    {
      "channel": 3,
      "note": 105,
      "start": 5.3343,
      "duration": 0.0138,
      "velocity": 119,
      "chip": "ym2612"
    },
    {
      "channel": 1,
      "note": 76,
      "start": 5.3497,
      "duration": 0.0415,
      "velocity": 95,
      "chip": "ym2612"
    },
    {
      "channel": 2,
      "note": 53,
      "start": 5.35,
      "duration": 0.0177,
      "velocity": 112,
      "chip": "ym2612"
    },
    {
      "channel": 3,
      "note": 80,
      "start": 5.3503,
      "duration": 0.0075,
      "velocity": 118,
      "chip": "ym2612"
    },
    {
      "channel": 3,
      "note": 80,
      "start": 5.359,
      "duration": 0.002,
      "velocity": 118,
      "chip": "ym2612"
    },
    {
      "channel": 3,
      "note": 80,
      "start": 5.3649,
      "duration": 0.0069,
      "velocity": 118,
      "chip": "ym2612"
    },
    {
      "channel": 2,
      "note": 48,
      "start": 5.3717,
      "duration": 0.0061,
      "velocity": 112,
      "chip": "ym2612"
    },
    {
      "channel": 3,
      "note": 80,
      "start": 5.3729,
      "duration": 0.0021,
      "velocity": 118,
      "chip": "ym2612"
    },
    {
      "channel": 3,
      "note": 80,
      "start": 5.379,
      "duration": 0.0112,
      "velocity": 118,
      "chip": "ym2612"
    },
    {
      "channel": 1,
      "note": 80,
      "start": 5.3928,
      "duration": 0.0891,
      "velocity": 95,
      "chip": "ym2612"
    },
    {
      "channel": 2,
      "note": 46,
      "start": 5.3932,
      "duration": 0.0101,
      "velocity": 112,
      "chip": "ym2612"
    },
    {
      "channel": 3,
      "note": 80,
      "start": 5.3937,
      "duration": 0.0124,
      "velocity": 118,
      "chip": "ym2612"
    },
    {
      "channel": 2,
      "note": 48,
      "start": 5.4082,
      "duration": 0.0101,
      "velocity": 112,
      "chip": "ym2612"
    },
    {
      "channel": 3,
      "note": 105,
      "start": 5.4089,
      "duration": 0.0122,
      "velocity": 119,
      "chip": "ym2612"
    },
    {
      "channel": 2,
      "note": 60,
      "start": 5.4223,
      "duration": 0.0206,
      "velocity": 112,
      "chip": "ym2612"
    },
    {
      "channel": 3,
      "note": 54,
      "start": 5.423,
      "duration": 0.0159,
      "velocity": 120,
      "chip": "ym2612"
    },
    {
      "channel": 3,
      "note": 80,
      "start": 5.4405,
      "duration": 0.0131,
      "velocity": 118,
      "chip": "ym2612"
    },
    {
      "channel": 2,
      "note": 55,
      "start": 5.4477,
      "duration": 0.018,
      "velocity": 112,
      "chip": "ym2612"
    },
    {
      "channel": 3,
      "note": 105,
      "start": 5.4552,
      "duration": 0.0133,
      "velocity": 119,
      "chip": "ym2612"
    },
    {
      "channel": 2,
      "note": 53,
      "start": 5.47,
      "duration": 0.019,
      "velocity": 112,
      "chip": "ym2612"
    },
    {
      "channel": 3,
      "note": 80,
      "start": 5.4703,
      "duration": 0.0065,
      "velocity": 118,
      "chip": "ym2612"
    },
    {
      "channel": 3,
      "note": 80,
      "start": 5.478,
      "duration": 0.0021,
      "velocity": 118,
      "chip": "ym2612"
    },
    {
      "channel": 1,
      "note": 78,
      "start": 5.484,
      "duration": 0.0278,
      "velocity": 95,
      "chip": "ym2612"
    },
    {
      "channel": 3,
      "note": 80,
      "start": 5.4843,
      "duration": 0.0078,
      "velocity": 118,
      "chip": "ym2612"
    },
    {
      "channel": 2,
      "note": 48,
      "start": 5.492,
      "duration": 0.0125,
      "velocity": 112,
      "chip": "ym2612"
    },
    {
      "channel": 3,
      "note": 80,
      "start": 5.4934,
      "duration": 0.0028,
      "velocity": 118,
      "chip": "ym2612"
    },
    {
      "channel": 3,
      "note": 80,
      "start": 5.4991,
      "duration": 0.0117,
      "velocity": 118,
      "chip": "ym2612"
    },
    {
      "channel": 2,
      "note": 48,
      "start": 5.508,
      "duration": 0.0039,
      "velocity": 112,
      "chip": "ym2612"
    },
    {
      "channel": 1,
      "note": 81,
      "start": 5.5144,
      "duration": 0.0281,
      "velocity": 95,
      "chip": "ym2612"
    },
    {
      "channel": 2,
      "note": 46,
      "start": 5.5147,
      "duration": 0.0163,
      "velocity": 112,
      "chip": "ym2612"
    },
    {
      "channel": 3,
      "note": 80,
      "start": 5.515,
      "duration": 0.0121,
      "velocity": 118,
      "chip": "ym2612"
    },
    {
      "channel": 3,
      "note": 105,
      "start": 5.5287,
      "duration": 0.0139,
      "velocity": 119,
      "chip": "ym2612"
    },
    {
      "channel": 2,
      "note": 48,
      "start": 5.5371,
      "duration": 0.0044,
      "velocity": 112,
      "chip": "ym2612"
    },
    {
      "channel": 1,
      "note": 81,
      "start": 5.5439,
      "duration": 0.131,
      "velocity": 95,
      "chip": "ym2612"
    },
    {
      "channel": 2,
      "note": 61,
      "start": 5.5442,
      "duration": 0.0203,
      "velocity": 112,
      "chip": "ym2612"
    },
    {
      "channel": 3,
      "note": 54,
      "start": 5.545,
      "duration": 0.0154,
      "velocity": 120,
      "chip": "ym2612"
    },
    {
      "channel": 3,
      "note": 80,
      "start": 5.5635,
      "duration": 0.0136,
      "velocity": 118,
      "chip": "ym2612"
    },
    {
      "channel": 2,
      "note": 56,
      "start": 5.5702,
      "duration": 0.018,
      "velocity": 112,
      "chip": "ym2612"
    },
    {
      "channel": 3,
      "note": 105,
      "start": 5.5786,
      "duration": 0.0123,
      "velocity": 119,
      "chip": "ym2612"
    },
    {
      "channel": 2,
      "note": 54,
      "start": 5.5925,
      "duration": 0.0178,
      "velocity": 112,
      "chip": "ym2612"
    },
    {
      "channel": 3,
      "note": 80,
      "start": 5.5929,
      "duration": 0.0062,
      "velocity": 118,
      "chip": "ym2612"
    },
    {
      "channel": 3,
      "note": 80,
      "start": 5.6003,
      "duration": 0.003,
      "velocity": 118,
      "chip": "ym2612"
    },
    {
      "channel": 3,
      "note": 80,
      "start": 5.6066,
      "duration": 0.0068,
      "velocity": 118,
      "chip": "ym2612"
    },
    {
      "channel": 2,
      "note": 49,
      "start": 5.6133,
      "duration": 0.0061,
      "velocity": 112,
      "chip": "ym2612"
    },
    {
      "channel": 3,
      "note": 80,
      "start": 5.6157,
      "duration": 0.0019,
      "velocity": 118,
      "chip": "ym2612"
    },
    {
      "channel": 3,
      "note": 80,
      "start": 5.6215,
      "duration": 0.0112,
      "velocity": 118,
      "chip": "ym2612"
    },
    {
      "channel": 2,
      "note": 47,
      "start": 5.6354,
      "duration": 0.0086,
      "velocity": 112,
      "chip": "ym2612"
    },
    {
      "channel": 3,
      "note": 80,
      "start": 5.6357,
      "duration": 0.0119,
      "velocity": 118,
      "chip": "ym2612"
    },
    {
      "channel": 2,
      "note": 49,
      "start": 5.6488,
      "duration": 0.0111,
      "velocity": 112,
      "chip": "ym2612"
    },
    {
      "channel": 3,
      "note": 105,
      "start": 5.6495,
      "duration": 0.0123,
      "velocity": 119,
      "chip": "ym2612"
    },
    {
      "channel": 2,
      "note": 61,
      "start": 5.6634,
      "duration": 0.0248,
      "velocity": 112,
      "chip": "ym2612"
    },
    {
      "channel": 3,
      "note": 54,
      "start": 5.6641,
      "duration": 0.0168,
      "velocity": 120,
      "chip": "ym2612"
    },
    {
      "channel": 3,
      "note": 80,
      "start": 5.683,
      "duration": 0.0129,
      "velocity": 118,
      "chip": "ym2612"
    },
    {
      "channel": 3,
      "note": 105,
      "start": 5.6974,
      "duration": 0.0124,
      "velocity": 119,
      "chip": "ym2612"
    },
    {
      "channel": 3,
      "note": 80,
      "start": 5.7114,
      "duration": 0.0063,
      "velocity": 118,
      "chip": "ym2612"
    },
    {
      "channel": 3,
      "note": 80,
      "start": 5.72,
      "duration": 0.0019,
      "velocity": 118,
      "chip": "ym2612"
    },
    {
      "channel": 3,
      "note": 80,
      "start": 5.7257,
      "duration": 0.0066,
      "velocity": 118,
      "chip": "ym2612"
    },
    {
      "channel": 3,
      "note": 80,
      "start": 5.7335,
      "duration": 0.0022,
      "velocity": 118,
      "chip": "ym2612"
    },
    {
      "channel": 3,
      "note": 80,
      "start": 5.7396,
      "duration": 0.0112,
      "velocity": 118,
      "chip": "ym2612"
    },
    {
      "channel": 3,
      "note": 80,
      "start": 5.7535,
      "duration": 0.012,
      "velocity": 118,
      "chip": "ym2612"
    },
    {
      "channel": 3,
      "note": 105,
      "start": 5.767,
      "duration": 0.0131,
      "velocity": 119,
      "chip": "ym2612"
    },
    {
      "channel": 2,
      "note": 52,
      "start": 5.7826,
      "duration": 0.0129,
      "velocity": 118,
      "chip": "ym2612"
    },
    {
      "channel": 3,
      "note": 54,
      "start": 5.7833,
      "duration": 0.0141,
      "velocity": 120,
      "chip": "ym2612"
    },
    {
      "channel": 0,
      "note": 74,
      "start": 5.7967,
      "duration": 0.0227,
      "velocity": 118,
      "chip": "ym2612"
    },
    {
      "channel": 2,
      "note": 37,
      "start": 5.7974,
      "duration": 0.0209,
      "velocity": 117,
      "chip": "ym2612"
    },
    {
      "channel": 3,
      "note": 80,
      "start": 5.7998,
      "duration": 0.0259,
      "velocity": 118,
      "chip": "ym2612"
    },
    {
      "channel": 2,
      "note": 45,
      "start": 5.8202,
      "duration": 0.001,
      "velocity": 127,
      "chip": "ym2612"
    },
    {
      "channel": 0,
      "note": 47,
      "start": 5.8269,
      "duration": 0.0132,
      "velocity": 118,
      "chip": "ym2612"
    },
    {
      "channel": 2,
      "note": 105,
      "start": 5.8277,
      "duration": 0.0127,
      "velocity": 119,
      "chip": "ym2612"
    },
    {
      "channel": 3,
      "note": 105,
      "start": 5.8283,
      "duration": 0.0121,
      "velocity": 119,
      "chip": "ym2612"
    },
    {
      "channel": 0,
      "note": 45,
      "start": 5.8433,
      "duration": 0.0022,
      "velocity": 119,
      "chip": "ym2612"
    },
    {
      "channel": 2,
      "note": 52,
      "start": 5.8441,
      "duration": 0.0061,
      "velocity": 118,
      "chip": "ym2612"
    },
    {
      "channel": 3,
      "note": 80,
      "start": 5.8445,
      "duration": 0.0076,
      "velocity": 118,
      "chip": "ym2612"
    },
    {
      "channel": 0,
      "note": 45,
      "start": 5.8513,
      "duration": 0.0041,
      "velocity": 119,
      "chip": "ym2612"
    },
    {
      "channel": 2,
      "note": 105,
      "start": 5.852,
      "duration": 0.0022,
      "velocity": 119,
      "chip": "ym2612"
    },
    {
      "channel": 3,
      "note": 80,
      "start": 5.8532,
      "duration": 0.0024,
      "velocity": 118,
      "chip": "ym2612"
    },
    {
      "channel": 2,
      "note": 105,
      "start": 5.8593,
      "duration": 0.0021,
      "velocity": 119,
      "chip": "ym2612"
    },
    {
      "channel": 3,
      "note": 80,
      "start": 5.8596,
      "duration": 0.0066,
      "velocity": 118,
      "chip": "ym2612"
    },
    {
      "channel": 2,
      "note": 105,
      "start": 5.8661,
      "duration": 0.0029,
      "velocity": 119,
      "chip": "ym2612"
    },
    {
      "channel": 0,
      "note": 81,
      "start": 5.8679,
      "duration": 0.0033,
      "velocity": 119,
      "chip": "ym2612"
    },
    {
      "channel": 3,
      "note": 80,
      "start": 5.8681,
      "duration": 0.0032,
      "velocity": 118,
      "chip": "ym2612"
    },
    {
      "channel": 0,
      "note": 81,
      "start": 5.8741,
      "duration": 0.0043,
      "velocity": 119,
      "chip": "ym2612"
    },
    {
      "channel": 3,
      "note": 80,
      "start": 5.8745,
      "duration": 0.0123,
      "velocity": 118,
      "chip": "ym2612"
    },
    {
      "channel": 2,
      "note": 35,
      "start": 5.882,
      "duration": 0.0059,
      "velocity": 119,
      "chip": "ym2612"
    },
    {
      "channel": 0,
      "note": 81,
      "start": 5.884,
      "duration": 0.0019,
      "velocity": 119,
      "chip": "ym2612"
    },
    {
      "channel": 0,
      "note": 47,
      "start": 5.8907,
      "duration": 0.0131,
      "velocity": 118,
      "chip": "ym2612"
    },
    {
      "channel": 2,
      "note": 105,
      "start": 5.8915,
      "duration": 0.0124,
      "velocity": 119,
      "chip": "ym2612"
    },
    {
      "channel": 3,
      "note": 80,
      "start": 5.8919,
      "duration": 0.0121,
      "velocity": 118,
      "chip": "ym2612"
    },
    {
      "channel": 0,
      "note": 74,
      "start": 5.9051,
      "duration": 0.0142,
      "velocity": 118,
      "chip": "ym2612"
    },
    {
      "channel": 2,
      "note": 52,
      "start": 5.9057,
      "duration": 0.0064,
      "velocity": 118,
      "chip": "ym2612"
    },
    {
      "channel": 3,
      "note": 105,
      "start": 5.9065,
      "duration": 0.0129,
      "velocity": 119,
      "chip": "ym2612"
    },
    {
      "channel": 2,
      "note": 45,
      "start": 5.9138,
      "duration": 0.001,
      "velocity": 127,
      "chip": "ym2612"
    },
    {
      "channel": 2,
      "note": 35,
      "start": 5.9213,
      "duration": 0.0164,
      "velocity": 119,
      "chip": "ym2612"
    },
    {
      "channel": 3,
      "note": 54,
      "start": 5.9219,
      "duration": 0.0246,
      "velocity": 120,
      "chip": "ym2612"
    },
    {
      "channel": 2,
      "note": 45,
      "start": 5.9393,
      "duration": 0.001,
      "velocity": 127,
      "chip": "ym2612"
    },
    {
      "channel": 0,
      "note": 74,
      "start": 5.9458,
      "duration": 0.0255,
      "velocity": 118,
      "chip": "ym2612"
    },
    {
      "channel": 2,
      "note": 105,
      "start": 5.9465,
      "duration": 0.0294,
      "velocity": 119,
      "chip": "ym2612"
    },
    {
      "channel": 3,
      "note": 80,
      "start": 5.9659,
      "duration": 0.01,
      "velocity": 118,
      "chip": "ym2612"
    },
    {
      "channel": 0,
      "note": 47,
      "start": 5.9781,
      "duration": 0.0144,
      "velocity": 118,
      "chip": "ym2612"
    },
    {
      "channel": 2,
      "note": 52,
      "start": 5.9787,
      "duration": 0.0064,
      "velocity": 118,
      "chip": "ym2612"
    },
    {
      "channel": 3,
      "note": 105,
      "start": 5.9794,
      "duration": 0.0132,
      "velocity": 119,
      "chip": "ym2612"
    },
    {
      "channel": 2,
      "note": 105,
      "start": 5.9867,
      "duration": 0.0019,
      "velocity": 119,
      "chip": "ym2612"
    },
    {
      "channel": 0,
      "note": 45,
      "start": 5.9946,
      "duration": 0.0016,
      "velocity": 119,
      "chip": "ym2612"
    },
    {
      "channel": 2,
      "note": 105,
      "start": 5.9949,
      "duration": 0.0024,
      "velocity": 119,
      "chip": "ym2612"
    },
    {
      "channel": 3,
      "note": 80,
      "start": 5.9953,
      "duration": 0.0071,
      "velocity": 118,
      "chip": "ym2612"
    },
    {
      "channel": 0,
      "note": 45,
      "start": 6.002,
      "duration": 0.0044,
      "velocity": 119,
      "chip": "ym2612"
    },
    {
      "channel": 2,
      "note": 105,
      "start": 6.0023,
      "duration": 0.0023,
      "velocity": 119,
      "chip": "ym2612"
    },
    {
      "channel": 3,
      "note": 80,
      "start": 6.0035,
      "duration": 0.0031,
      "velocity": 118,
      "chip": "ym2612"
    },
    {
      "channel": 3,
      "note": 80,
      "start": 6.0097,
      "duration": 0.007,
      "velocity": 118,
      "chip": "ym2612"
    },
    {
      "channel": 2,
      "note": 35,
      "start": 6.0166,
      "duration": 0.007,
      "velocity": 119,
      "chip": "ym2612"
    },
    {
      "channel": 0,
      "note": 81,
      "start": 6.0195,
      "duration": 0.0021,
      "velocity": 119,
      "chip": "ym2612"
    },
    {
      "channel": 3,
      "note": 80,
      "start": 6.0198,
      "duration": 0.002,
      "velocity": 118,
      "chip": "ym2612"
    },
    {
      "channel": 0,
      "note": 81,
      "start": 6.0256,
      "duration": 0.0037,
      "velocity": 119,
      "chip": "ym2612"
    },
    {
      "channel": 2,
      "note": 105,
      "start": 6.0264,
      "duration": 0.0127,
      "velocity": 119,
      "chip": "ym2612"
    },
    {
      "channel": 3,
      "note": 80,
      "start": 6.0266,
      "duration": 0.0105,
      "velocity": 118,
      "chip": "ym2612"
    },
    {
      "channel": 0,
      "note": 81,
      "start": 6.0341,
      "duration": 0.0021,
      "velocity": 119,
      "chip": "ym2612"
    },
    {
      "channel": 0,
      "note": 47,
      "start": 6.0411,
      "duration": 0.0139,
      "velocity": 118,
      "chip": "ym2612"
    },
    {
      "channel": 2,
      "note": 52,
      "start": 6.0418,
      "duration": 0.0059,
      "velocity": 118,
      "chip": "ym2612"
    },
    {
      "channel": 3,
      "note": 80,
      "start": 6.0421,
      "duration": 0.013,
      "velocity": 118,
      "chip": "ym2612"
    },
    {
      "channel": 2,
      "note": 45,
      "start": 6.0494,
      "duration": 0.001,
      "velocity": 127,
      "chip": "ym2612"
    },
    {
      "channel": 0,
      "note": 74,
      "start": 6.0563,
      "duration": 0.0128,
      "velocity": 118,
      "chip": "ym2612"
    },
    {
      "channel": 2,
      "note": 45,
      "start": 6.0566,
      "duration": 0.0044,
      "velocity": 127,
      "chip": "ym2612"
    },
    {
      "channel": 3,
      "note": 105,
      "start": 6.0572,
      "duration": 0.0121,
      "velocity": 119,
      "chip": "ym2612"
    },
    {
      "channel": 2,
      "note": 52,
      "start": 6.0712,
      "duration": 0.0227,
      "velocity": 118,
      "chip": "ym2612"
    },
    {
      "channel": 3,
      "note": 54,
      "start": 6.0719,
      "duration": 0.0273,
      "velocity": 120,
      "chip": "ym2612"
    },
    {
      "channel": 0,
      "note": 74,
      "start": 6.0984,
      "duration": 0.0227,
      "velocity": 118,
      "chip": "ym2612"
    },
    {
      "channel": 2,
      "note": 37,
      "start": 6.0992,
      "duration": 0.0209,
      "velocity": 117,
      "chip": "ym2612"
    },
    {
      "channel": 3,
      "note": 80,
      "start": 6.1011,
      "duration": 0.0264,
      "velocity": 118,
      "chip": "ym2612"
    },
    {
      "channel": 2,
      "note": 45,
      "start": 6.122,
      "duration": 0.001,
      "velocity": 127,
      "chip": "ym2612"
    },
    {
      "channel": 0,
      "note": 47,
      "start": 6.1286,
      "duration": 0.0133,
      "velocity": 118,
      "chip": "ym2612"
    },
    {
      "channel": 2,
      "note": 105,
      "start": 6.1294,
      "duration": 0.0127,
      "velocity": 119,
      "chip": "ym2612"
    },
    {
      "channel": 3,
      "note": 105,
      "start": 6.13,
      "duration": 0.012,
      "velocity": 119,
      "chip": "ym2612"
    },
    {
      "channel": 0,
      "note": 45,
      "start": 6.144,
      "duration": 0.0021,
      "velocity": 119,
      "chip": "ym2612"
    },
    {
      "channel": 2,
      "note": 52,
      "start": 6.1447,
      "duration": 0.0063,
      "velocity": 118,
      "chip": "ym2612"
    },
    {
      "channel": 3,
      "note": 80,
      "start": 6.1452,
      "duration": 0.0076,
      "velocity": 118,
      "chip": "ym2612"
    },
    {
      "channel": 0,
      "note": 45,
      "start": 6.1521,
      "duration": 0.0049,
      "velocity": 119,
      "chip": "ym2612"
    },
    {
      "channel": 2,
      "note": 105,
      "start": 6.1527,
      "duration": 0.0031,
      "velocity": 119,
      "chip": "ym2612"
    },
    {
      "channel": 3,
      "note": 80,
      "start": 6.1548,
      "duration": 0.0023,
      "velocity": 118,
      "chip": "ym2612"
    },
    {
      "channel": 2,
      "note": 105,
      "start": 6.1608,
      "duration": 0.0022,
      "velocity": 119,
      "chip": "ym2612"
    },
    {
      "channel": 3,
      "note": 80,
      "start": 6.1612,
      "duration": 0.0067,
      "velocity": 118,
      "chip": "ym2612"
    },
    {
      "channel": 2,
      "note": 105,
      "start": 6.1677,
      "duration": 0.003,
      "velocity": 119,
      "chip": "ym2612"
    },
    {
      "channel": 0,
      "note": 81,
      "start": 6.1694,
      "duration": 0.0025,
      "velocity": 119,
      "chip": "ym2612"
    },
    {
      "channel": 3,
      "note": 80,
      "start": 6.1698,
      "duration": 0.0022,
      "velocity": 118,
      "chip": "ym2612"
    },
    {
      "channel": 0,
      "note": 81,
      "start": 6.1757,
      "duration": 0.0034,
      "velocity": 119,
      "chip": "ym2612"
    },
    {
      "channel": 3,
      "note": 80,
      "start": 6.1761,
      "duration": 0.0122,
      "velocity": 118,
      "chip": "ym2612"
    },
    {
      "channel": 2,
      "note": 35,
      "start": 6.1836,
      "duration": 0.0058,
      "velocity": 119,
      "chip": "ym2612"
    },
    {
      "channel": 0,
      "note": 81,
      "start": 6.1846,
      "duration": 0.0027,
      "velocity": 119,
      "chip": "ym2612"
    },
    {
      "channel": 0,
      "note": 47,
      "start": 6.1914,
      "duration": 0.013,
      "velocity": 118,
      "chip": "ym2612"
    },
    {
      "channel": 2,
      "note": 105,
      "start": 6.1922,
      "duration": 0.0123,
      "velocity": 119,
      "chip": "ym2612"
    },
    {
      "channel": 3,
      "note": 80,
      "start": 6.1926,
      "duration": 0.012,
      "velocity": 118,
      "chip": "ym2612"
    },
    {
      "channel": 0,
      "note": 74,
      "start": 6.2057,
      "duration": 0.0151,
      "velocity": 118,
      "chip": "ym2612"
    },
    {
      "channel": 2,
      "note": 52,
      "start": 6.2063,
      "duration": 0.0063,
      "velocity": 118,
      "chip": "ym2612"
    },
    {
      "channel": 3,
      "note": 105,
      "start": 6.207,
      "duration": 0.014,
      "velocity": 119,
      "chip": "ym2612"
    },
    {
      "channel": 2,
      "note": 45,
      "start": 6.2152,
      "duration": 0.001,
      "velocity": 127,
      "chip": "ym2612"
    },
    {
      "channel": 2,
      "note": 35,
      "start": 6.2229,
      "duration": 0.0218,
      "velocity": 119,
      "chip": "ym2612"
    },
    {
      "channel": 3,
      "note": 54,
      "start": 6.2235,
      "duration": 0.0303,
      "velocity": 120,
      "chip": "ym2612"
    },
    {
      "channel": 2,
      "note": 45,
      "start": 6.2464,
      "duration": 0.001,
      "velocity": 127,
      "chip": "ym2612"
    },
    {
      "channel": 0,
      "note": 74,
      "start": 6.253,
      "duration": 0.0244,
      "velocity": 118,
      "chip": "ym2612"
    },
    {
      "channel": 2,
      "note": 105,
      "start": 6.2537,
      "duration": 0.0293,
      "velocity": 119,
      "chip": "ym2612"
    },
    {
      "channel": 3,
      "note": 80,
      "start": 6.2578,
      "duration": 0.0253,
      "velocity": 118,
      "chip": "ym2612"
    },
    {
      "channel": 0,
      "note": 47,
      "start": 6.2842,
      "duration": 0.0144,
      "velocity": 118,
      "chip": "ym2612"
    },
    {
      "channel": 2,
      "note": 52,
      "start": 6.285,
      "duration": 0.0063,
      "velocity": 118,
      "chip": "ym2612"
    },
    {
      "channel": 3,
      "note": 105,
      "start": 6.2856,
      "duration": 0.0131,
      "velocity": 119,
      "chip": "ym2612"
    },
    {
      "channel": 2,
      "note": 105,
      "start": 6.2928,
      "duration": 0.0027,
      "velocity": 119,
      "chip": "ym2612"
    },
    {
      "channel": 0,
      "note": 45,
      "start": 6.3016,
      "duration": 0.0016,
      "velocity": 119,
      "chip": "ym2612"
    },
    {
      "channel": 2,
      "note": 105,
      "start": 6.3018,
      "duration": 0.0024,
      "velocity": 119,
      "chip": "ym2612"
    },
    {
      "channel": 3,
      "note": 80,
      "start": 6.3022,
      "duration": 0.0097,
      "velocity": 118,
      "chip": "ym2612"
    },
    {
      "channel": 0,
      "note": 45,
      "start": 6.3115,
      "duration": 0.0038,
      "velocity": 119,
      "chip": "ym2612"
    },
    {
      "channel": 2,
      "note": 105,
      "start": 6.3118,
      "duration": 0.0025,
      "velocity": 119,
      "chip": "ym2612"
    },
    {
      "channel": 3,
      "note": 80,
      "start": 6.3131,
      "duration": 0.0023,
      "velocity": 118,
      "chip": "ym2612"
    },
    {
      "channel": 3,
      "note": 80,
      "start": 6.3194,
      "duration": 0.0071,
      "velocity": 118,
      "chip": "ym2612"
    },
    {
      "channel": 2,
      "note": 35,
      "start": 6.3263,
      "duration": 0.0069,
      "velocity": 119,
      "chip": "ym2612"
    },
    {
      "channel": 0,
      "note": 81,
      "start": 6.328,
      "duration": 0.0032,
      "velocity": 119,
      "chip": "ym2612"
    },
    {
      "channel": 3,
      "note": 80,
      "start": 6.3283,
      "duration": 0.0031,
      "velocity": 118,
      "chip": "ym2612"
    },
    {
      "channel": 0,
      "note": 81,
      "start": 6.3344,
      "duration": 0.0046,
      "velocity": 119,
      "chip": "ym2612"
    },
    {
      "channel": 2,
      "note": 105,
      "start": 6.3351,
      "duration": 0.0126,
      "velocity": 119,
      "chip": "ym2612"
    },
    {
      "channel": 3,
      "note": 80,
      "start": 6.3354,
      "duration": 0.0114,
      "velocity": 118,
      "chip": "ym2612"
    },
    {
      "channel": 0,
      "note": 81,
      "start": 6.3427,
      "duration": 0.003,
      "velocity": 119,
      "chip": "ym2612"
    },
    {
      "channel": 0,
      "note": 47,
      "start": 6.3497,
      "duration": 0.0149,
      "velocity": 118,
      "chip": "ym2612"
    },
    {
      "channel": 2,
      "note": 52,
      "start": 6.3506,
      "duration": 0.0059,
      "velocity": 118,
      "chip": "ym2612"
    },
    {
      "channel": 3,
      "note": 80,
      "start": 6.3509,
      "duration": 0.0138,
      "velocity": 118,
      "chip": "ym2612"
    },
    {
      "channel": 2,
      "note": 45,
      "start": 6.3591,
      "duration": 0.001,
      "velocity": 127,
      "chip": "ym2612"
    },
    {
      "channel": 0,
      "note": 74,
      "start": 6.3659,
      "duration": 0.013,
      "velocity": 118,
      "chip": "ym2612"
    },
    {
      "channel": 2,
      "note": 45,
      "start": 6.3661,
      "duration": 0.0038,
      "velocity": 127,
      "chip": "ym2612"
    },
    {
      "channel": 3,
      "note": 105,
      "start": 6.3669,
      "duration": 0.0122,
      "velocity": 119,
      "chip": "ym2612"
    },
    {
      "channel": 2,
      "note": 63,
      "start": 6.3808,
      "duration": 0.0437,
      "velocity": 112,
      "chip": "ym2612"
    },
    {
      "channel": 3,
      "note": 54,
      "start": 6.3816,
      "duration": 0.0228,
      "velocity": 120,
      "chip": "ym2612"
    },
    {
      "channel": 3,
      "note": 80,
      "start": 6.4087,
      "duration": 0.0251,
      "velocity": 118,
      "chip": "ym2612"
    },
    {
      "channel": 2,
      "note": 58,
      "start": 6.4302,
      "duration": 0.0152,
      "velocity": 112,
      "chip": "ym2612"
    },
    {
      "channel": 3,
      "note": 105,
      "start": 6.4362,
      "duration": 0.012,
      "velocity": 119,
      "chip": "ym2612"
    },
    {
      "channel": 2,
      "note": 56,
      "start": 6.4498,
      "duration": 0.0176,
      "velocity": 112,
      "chip": "ym2612"
    },
    {
      "channel": 3,
      "note": 80,
      "start": 6.4501,
      "duration": 0.0065,
      "velocity": 118,
      "chip": "ym2612"
    },
    {
      "channel": 3,
      "note": 80,
      "start": 6.4578,
      "duration": 0.003,
      "velocity": 118,
      "chip": "ym2612"
    },
    {
      "channel": 3,
      "note": 80,
      "start": 6.4637,
      "duration": 0.0067,
      "velocity": 118,
      "chip": "ym2612"
    },
    {
      "channel": 2,
      "note": 51,
      "start": 6.4704,
      "duration": 0.0061,
      "velocity": 112,
      "chip": "ym2612"
    },
    {
      "channel": 3,
      "note": 80,
      "start": 6.4716,
      "duration": 0.003,
      "velocity": 118,
      "chip": "ym2612"
    },
    {
      "channel": 3,
      "note": 80,
      "start": 6.4778,
      "duration": 0.011,
      "velocity": 118,
      "chip": "ym2612"
    },
    {
      "channel": 2,
      "note": 49,
      "start": 6.4923,
      "duration": 0.0087,
      "velocity": 112,
      "chip": "ym2612"
    },
    {
      "channel": 3,
      "note": 80,
      "start": 6.4927,
      "duration": 0.012,
      "velocity": 118,
      "chip": "ym2612"
    },
    {
      "channel": 2,
      "note": 51,
      "start": 6.506,
      "duration": 0.0108,
      "velocity": 112,
      "chip": "ym2612"
    },
    {
      "channel": 3,
      "note": 105,
      "start": 6.5067,
      "duration": 0.012,
      "velocity": 119,
      "chip": "ym2612"
    },
    {
      "channel": 2,
      "note": 63,
      "start": 6.5198,
      "duration": 0.0448,
      "velocity": 112,
      "chip": "ym2612"
    },
    {
      "channel": 3,
      "note": 54,
      "start": 6.5206,
      "duration": 0.0278,
      "velocity": 120,
      "chip": "ym2612"
    },
    {
      "channel": 0,
      "note": 51,
      "start": 6.5405,
      "duration": 0.1571,
      "velocity": 100,
      "chip": "ym2612"
    },
    {
      "channel": 1,
      "note": 51,
      "start": 6.543,
      "duration": 0.1546,
      "velocity": 100,
      "chip": "ym2612"
    },
    {
      "channel": 3,
      "note": 80,
      "start": 6.5501,
      "duration": 0.0292,
      "velocity": 118,
      "chip": "ym2612"
    },
    {
      "channel": 2,
      "note": 58,
      "start": 6.5733,
      "duration": 0.0215,
      "velocity": 112,
      "chip": "ym2612"
    },
    {
      "channel": 3,
      "note": 105,
      "start": 6.5812,
      "duration": 0.0162,
      "velocity": 119,
      "chip": "ym2612"
    },
    {
      "channel": 2,
      "note": 56,
      "start": 6.5993,
      "duration": 0.0178,
      "velocity": 112,
      "chip": "ym2612"
    },
    {
      "channel": 3,
      "note": 80,
      "start": 6.5998,
      "duration": 0.0066,
      "velocity": 118,
      "chip": "ym2612"
    },
    {
      "channel": 3,
      "note": 80,
      "start": 6.6086,
      "duration": 0.0019,
      "velocity": 118,
      "chip": "ym2612"
    },
    {
      "channel": 3,
      "note": 80,
      "start": 6.6135,
      "duration": 0.0076,
      "velocity": 118,
      "chip": "ym2612"
    },
    {
      "channel": 2,
      "note": 51,
      "start": 6.621,
      "duration": 0.0063,
      "velocity": 112,
      "chip": "ym2612"
    },
    {
      "channel": 3,
      "note": 80,
      "start": 6.6223,
      "duration": 0.0022,
      "velocity": 118,
      "chip": "ym2612"
    },
    {
      "channel": 3,
      "note": 80,
      "start": 6.6285,
      "duration": 0.011,
      "velocity": 118,
      "chip": "ym2612"
    },
    {
      "channel": 2,
      "note": 49,
      "start": 6.6422,
      "duration": 0.0253,
      "velocity": 112,
      "chip": "ym2612"
    },
    {
      "channel": 3,
      "note": 80,
      "start": 6.6427,
      "duration": 0.0155,
      "velocity": 118,
      "chip": "ym2612"
    },
    {
      "channel": 3,
      "note": 105,
      "start": 6.6602,
      "duration": 0.0156,
      "velocity": 119,
      "chip": "ym2612"
    },
    {
      "channel": 2,
      "note": 63,
      "start": 6.6783,
      "duration": 0.0448,
      "velocity": 112,
      "chip": "ym2612"
    },
    {
      "channel": 3,
      "note": 54,
      "start": 6.6791,
      "duration": 0.0248,
      "velocity": 120,
      "chip": "ym2612"
    },
    {
      "channel": 3,
      "note": 80,
      "start": 6.7079,
      "duration": 0.0254,
      "velocity": 118,
      "chip": "ym2612"
    },
    {
      "channel": 2,
      "note": 58,
      "start": 6.7288,
      "duration": 0.0161,
      "velocity": 112,
      "chip": "ym2612"
    },
    {
      "channel": 3,
      "note": 105,
      "start": 6.7349,
      "duration": 0.012,
      "velocity": 119,
      "chip": "ym2612"
    },
    {
      "channel": 2,
      "note": 56,
      "start": 6.7485,
      "duration": 0.0178,
      "velocity": 112,
      "chip": "ym2612"
    },
    {
      "channel": 3,
      "note": 80,
      "start": 6.7488,
      "duration": 0.0075,
      "velocity": 118,
      "chip": "ym2612"
    },
    {
      "channel": 3,
      "note": 80,
      "start": 6.7576,
      "duration": 0.0021,
      "velocity": 118,
      "chip": "ym2612"
    },
    {
      "channel": 3,
      "note": 80,
      "start": 6.7635,
      "duration": 0.0067,
      "velocity": 118,
      "chip": "ym2612"
    },
    {
      "channel": 2,
      "note": 51,
      "start": 6.7701,
      "duration": 0.0061,
      "velocity": 112,
      "chip": "ym2612"
    },
    {
      "channel": 3,
      "note": 80,
      "start": 6.7714,
      "duration": 0.0021,
      "velocity": 118,
      "chip": "ym2612"
    },
    {
      "channel": 3,
      "note": 80,
      "start": 6.7775,
      "duration": 0.011,
      "velocity": 118,
      "chip": "ym2612"
    },
    {
      "channel": 2,
      "note": 49,
      "start": 6.7911,
      "duration": 0.0096,
      "velocity": 112,
      "chip": "ym2612"
    },
    {
      "channel": 3,
      "note": 80,
      "start": 6.7916,
      "duration": 0.012,
      "velocity": 118,
      "chip": "ym2612"
    },
    {
      "channel": 2,
      "note": 51,
      "start": 6.8057,
      "duration": 0.01,
      "velocity": 112,
      "chip": "ym2612"
    },
    {
      "channel": 3,
      "note": 105,
      "start": 6.8063,
      "duration": 0.0122,
      "velocity": 119,
      "chip": "ym2612"
    },
    {
      "channel": 2,
      "note": 63,
      "start": 6.8196,
      "duration": 0.0438,
      "velocity": 112,
      "chip": "ym2612"
    },
    {
      "channel": 3,
      "note": 54,
      "start": 6.8204,
      "duration": 0.0236,
      "velocity": 120,
      "chip": "ym2612"
    },
    {
      "channel": 3,
      "note": 80,
      "start": 6.8476,
      "duration": 0.0251,
      "velocity": 118,
      "chip": "ym2612"
    },
    {
      "channel": 2,
      "note": 58,
      "start": 6.869,
      "duration": 0.0155,
      "velocity": 112,
      "chip": "ym2612"
    },
    {
      "channel": 3,
      "note": 105,
      "start": 6.875,
      "duration": 0.0122,
      "velocity": 119,
      "chip": "ym2612"
    },
    {
      "channel": 2,
      "note": 56,
      "start": 6.8888,
      "duration": 0.0173,
      "velocity": 112,
      "chip": "ym2612"
    },
    {
      "channel": 3,
      "note": 80,
      "start": 6.8891,
      "duration": 0.0063,
      "velocity": 118,
      "chip": "ym2612"
    },
    {
      "channel": 3,
      "note": 80,
      "start": 6.8966,
      "duration": 0.0029,
      "velocity": 118,
      "chip": "ym2612"
    },
    {
      "channel": 3,
      "note": 80,
      "start": 6.9024,
      "duration": 0.0067,
      "velocity": 118,
      "chip": "ym2612"
    },
    {
      "channel": 2,
      "note": 51,
      "start": 6.9091,
      "duration": 0.0061,
      "velocity": 112,
      "chip": "ym2612"
    },
    {
      "channel": 3,
      "note": 80,
      "start": 6.9103,
      "duration": 0.003,
      "velocity": 118,
      "chip": "ym2612"
    },
    {
      "channel": 3,
      "note": 80,
      "start": 6.9163,
      "duration": 0.011,
      "velocity": 118,
      "chip": "ym2612"
    },
    {
      "channel": 2,
      "note": 49,
      "start": 6.9308,
      "duration": 0.0122,
      "velocity": 112,
      "chip": "ym2612"
    },
    {
      "channel": 3,
      "note": 80,
      "start": 6.9312,
      "duration": 0.012,
      "velocity": 118,
      "chip": "ym2612"
    },
    {
      "channel": 2,
      "note": 49,
      "start": 6.9444,
      "duration": 0.0127,
      "velocity": 112,
      "chip": "ym2612"
    },
    {
      "channel": 3,
      "note": 105,
      "start": 6.9448,
      "duration": 0.0125,
      "velocity": 118,
      "chip": "ym2612"
    },
    {
      "channel": 2,
      "note": 63,
      "start": 6.959,
      "duration": 0.0426,
      "velocity": 112,
      "chip": "ym2612"
    },
    {
      "channel": 3,
      "note": 54,
      "start": 6.9594,
      "duration": 0.0274,
      "velocity": 120,
      "chip": "ym2612"
    },
    {
      "channel": 3,
      "note": 80,
      "start": 6.9883,
      "duration": 0.0287,
      "velocity": 118,
      "chip": "ym2612"
    },
    {
      "channel": 2,
      "note": 58,
      "start": 7.0087,
      "duration": 0.0199,
      "velocity": 112,
      "chip": "ym2612"
    },
    {
      "channel": 3,
      "note": 105,
      "start": 7.0186,
      "duration": 0.0119,
      "velocity": 119,
      "chip": "ym2612"
    },
    {
      "channel": 2,
      "note": 56,
      "start": 7.032,
      "duration": 0.0178,
      "velocity": 112,
      "chip": "ym2612"
    },
    {
      "channel": 3,
      "note": 80,
      "start": 7.0326,
      "duration": 0.0065,
      "velocity": 118,
      "chip": "ym2612"
    },
    {
      "channel": 3,
      "note": 80,
      "start": 7.0402,
      "duration": 0.003,
      "velocity": 118,
      "chip": "ym2612"
    },
    {
      "channel": 3,
      "note": 80,
      "start": 7.0462,
      "duration": 0.0076,
      "velocity": 118,
      "chip": "ym2612"
    },
    {
      "channel": 2,
      "note": 51,
      "start": 7.0538,
      "duration": 0.0053,
      "velocity": 112,
      "chip": "ym2612"
    },
    {
      "channel": 3,
      "note": 80,
      "start": 7.0551,
      "duration": 0.0022,
      "velocity": 118,
      "chip": "ym2612"
    },
    {
      "channel": 3,
      "note": 80,
      "start": 7.0611,
      "duration": 0.0111,
      "velocity": 118,
      "chip": "ym2612"
    },
    {
      "channel": 2,
      "note": 49,
      "start": 7.0747,
      "duration": 0.0086,
      "velocity": 112,
      "chip": "ym2612"
    },
    {
      "channel": 3,
      "note": 80,
      "start": 7.075,
      "duration": 0.0119,
      "velocity": 118,
      "chip": "ym2612"
    },
    {
      "channel": 2,
      "note": 51,
      "start": 7.0881,
      "duration": 0.0107,
      "velocity": 112,
      "chip": "ym2612"
    },
    {
      "channel": 3,
      "note": 105,
      "start": 7.0888,
      "duration": 0.0119,
      "velocity": 119,
      "chip": "ym2612"
    },
    {
      "channel": 2,
      "note": 63,
      "start": 7.1028,
      "duration": 0.044,
      "velocity": 112,
      "chip": "ym2612"
    },
    {
      "channel": 3,
      "note": 54,
      "start": 7.1036,
      "duration": 0.0238,
      "velocity": 120,
      "chip": "ym2612"
    },
    {
      "channel": 0,
      "note": 51,
      "start": 7.1222,
      "duration": 0.1563,
      "velocity": 100,
      "chip": "ym2612"
    },
    {
      "channel": 1,
      "note": 51,
      "start": 7.1244,
      "duration": 0.1542,
      "velocity": 100,
      "chip": "ym2612"
    },
    {
      "channel": 3,
      "note": 80,
      "start": 7.1317,
      "duration": 0.0289,
      "velocity": 118,
      "chip": "ym2612"
    },
    {
      "channel": 2,
      "note": 58,
      "start": 7.1544,
      "duration": 0.0217,
      "velocity": 112,
      "chip": "ym2612"
    },
    {
      "channel": 3,
      "note": 105,
      "start": 7.1627,
      "duration": 0.016,
      "velocity": 119,
      "chip": "ym2612"
    },
    {
      "channel": 2,
      "note": 56,
      "start": 7.1806,
      "duration": 0.0177,
      "velocity": 112,
      "chip": "ym2612"
    },
    {
      "channel": 3,
      "note": 80,
      "start": 7.181,
      "duration": 0.0076,
      "velocity": 118,
      "chip": "ym2612"
    },
    {
      "channel": 3,
      "note": 80,
      "start": 7.1897,
      "duration": 0.002,
      "velocity": 118,
      "chip": "ym2612"
    },
    {
      "channel": 3,
      "note": 80,
      "start": 7.1955,
      "duration": 0.0068,
      "velocity": 118,
      "chip": "ym2612"
    },
    {
      "channel": 2,
      "note": 51,
      "start": 7.2022,
      "duration": 0.0061,
      "velocity": 112,
      "chip": "ym2612"
    },
    {
      "channel": 3,
      "note": 80,
      "start": 7.2035,
      "duration": 0.002,
      "velocity": 118,
      "chip": "ym2612"
    },
    {
      "channel": 3,
      "note": 80,
      "start": 7.2095,
      "duration": 0.011,
      "velocity": 118,
      "chip": "ym2612"
    },
    {
      "channel": 2,
      "note": 49,
      "start": 7.2232,
      "duration": 0.0265,
      "velocity": 112,
      "chip": "ym2612"
    },
    {
      "channel": 3,
      "note": 80,
      "start": 7.2237,
      "duration": 0.0156,
      "velocity": 118,
      "chip": "ym2612"
    },
    {
      "channel": 3,
      "note": 105,
      "start": 7.2422,
      "duration": 0.0159,
      "velocity": 119,
      "chip": "ym2612"
    },
    {
      "channel": 2,
      "note": 63,
      "start": 7.2598,
      "duration": 0.0452,
      "velocity": 112,
      "chip": "ym2612"
    },
    {
      "channel": 3,
      "note": 54,
      "start": 7.2605,
      "duration": 0.0244,
      "velocity": 120,
      "chip": "ym2612"
    },
    {
      "channel": 3,
      "note": 80,
      "start": 7.289,
      "duration": 0.0253,
      "velocity": 118,
      "chip": "ym2612"
    },
    {
      "channel": 2,
      "note": 58,
      "start": 7.3098,
      "duration": 0.0161,
      "velocity": 112,
      "chip": "ym2612"
    },
    {
      "channel": 3,
      "note": 105,
      "start": 7.3158,
      "duration": 0.0128,
      "velocity": 119,
      "chip": "ym2612"
    },
    {
      "channel": 2,
      "note": 56,
      "start": 7.3302,
      "duration": 0.0177,
      "velocity": 112,
      "chip": "ym2612"
    },
    {
      "channel": 3,
      "note": 80,
      "start": 7.3306,
      "duration": 0.0066,
      "velocity": 118,
      "chip": "ym2612"
    },
    {
      "channel": 3,
      "note": 80,
      "start": 7.3383,
      "duration": 0.0021,
      "velocity": 118,
      "chip": "ym2612"
    },
    {
      "channel": 3,
      "note": 80,
      "start": 7.3442,
      "duration": 0.0067,
      "velocity": 118,
      "chip": "ym2612"
    },
    {
      "channel": 2,
      "note": 51,
      "start": 7.3509,
      "duration": 0.0061,
      "velocity": 112,
      "chip": "ym2612"
    },
    {
      "channel": 3,
      "note": 80,
      "start": 7.3522,
      "duration": 0.0029,
      "velocity": 118,
      "chip": "ym2612"
    },
    {
      "channel": 3,
      "note": 80,
      "start": 7.3583,
      "duration": 0.011,
      "velocity": 118,
      "chip": "ym2612"
    },
    {
      "channel": 2,
      "note": 49,
      "start": 7.3727,
      "duration": 0.0088,
      "velocity": 112,
      "chip": "ym2612"
    },
    {
      "channel": 3,
      "note": 80,
      "start": 7.3731,
      "duration": 0.012,
      "velocity": 118,
      "chip": "ym2612"
    },
    {
      "channel": 2,
      "note": 51,
      "start": 7.3863,
      "duration": 0.0107,
      "velocity": 112,
      "chip": "ym2612"
    },
    {
      "channel": 3,
      "note": 105,
      "start": 7.3869,
      "duration": 0.0123,
      "velocity": 119,
      "chip": "ym2612"
    },
    {
      "channel": 3,
      "note": 54,
      "start": 7.401,
      "duration": 0.0179,
      "velocity": 120,
      "chip": "ym2612"
    },
    {
      "channel": 1,
      "note": 30,
      "start": 7.4022,
      "duration": 0.0166,
      "velocity": 127,
      "chip": "ym2612"
    },
    {
      "channel": 1,
      "note": 35,
      "start": 7.4213,
      "duration": 0.0012,
      "velocity": 127,
      "chip": "ym2612"
    },
    {
      "channel": 3,
      "note": 80,
      "start": 7.4216,
      "duration": 0.0037,
      "velocity": 118,
      "chip": "ym2612"
    },
    {
      "channel": 1,
      "note": 30,
      "start": 7.4445,
      "duration": 0.0065,
      "velocity": 127,
      "chip": "ym2612"
    },
    {
      "channel": 3,
      "note": 105,
      "start": 7.4447,
      "duration": 0.0112,
      "velocity": 119,
      "chip": "ym2612"
    },
    {
      "channel": 1,
      "note": 35,
      "start": 7.4521,
      "duration": 0.001,
      "velocity": 127,
      "chip": "ym2612"
    },
    {
      "channel": 3,
      "note": 42,
      "start": 7.4577,
      "duration": 0.0078,
      "velocity": 127,
      "chip": "ym2612"
    },
    {
      "channel": 1,
      "note": 30,
      "start": 7.4588,
      "duration": 0.0066,
      "velocity": 127,
      "chip": "ym2612"
    },
    {
      "channel": 1,
      "note": 35,
      "start": 7.4669,
      "duration": 0.0015,
      "velocity": 127,
      "chip": "ym2612"
    },
    {
      "channel": 3,
      "note": 81,
      "start": 7.4675,
      "duration": 0.0058,
      "velocity": 119,
      "chip": "ym2612"
    },
    {
      "channel": 1,
      "note": 30,
      "start": 7.4732,
      "duration": 0.007,
      "velocity": 127,
      "chip": "ym2612"
    },
    {
      "channel": 3,
      "note": 80,
      "start": 7.4748,
      "duration": 0.0106,
      "velocity": 118,
      "chip": "ym2612"
    },
    {
      "channel": 1,
      "note": 35,
      "start": 7.4825,
      "duration": 0.001,
      "velocity": 127,
      "chip": "ym2612"
    },
    {
      "channel": 3,
      "note": 42,
      "start": 7.4872,
      "duration": 0.0087,
      "velocity": 127,
      "chip": "ym2612"
    },
    {
      "channel": 1,
      "note": 30,
      "start": 7.4885,
      "duration": 0.0074,
      "velocity": 127,
      "chip": "ym2612"
    },
    {
      "channel": 1,
      "note": 35,
      "start": 7.4972,
      "duration": 0.0017,
      "velocity": 127,
      "chip": "ym2612"
    },
    {
      "channel": 3,
      "note": 81,
      "start": 7.4978,
      "duration": 0.0058,
      "velocity": 119,
      "chip": "ym2612"
    },
    {
      "channel": 1,
      "note": 30,
      "start": 7.5036,
      "duration": 0.007,
      "velocity": 127,
      "chip": "ym2612"
    },
    {
      "channel": 3,
      "note": 80,
      "start": 7.5053,
      "duration": 0.0105,
      "velocity": 118,
      "chip": "ym2612"
    },
    {
      "channel": 1,
      "note": 35,
      "start": 7.5121,
      "duration": 0.001,
      "velocity": 127,
      "chip": "ym2612"
    },
    {
      "channel": 3,
      "note": 42,
      "start": 7.5175,
      "duration": 0.0079,
      "velocity": 127,
      "chip": "ym2612"
    },
    {
      "channel": 1,
      "note": 30,
      "start": 7.5187,
      "duration": 0.0065,
      "velocity": 127,
      "chip": "ym2612"
    },
    {
      "channel": 1,
      "note": 35,
      "start": 7.5265,
      "duration": 0.0026,
      "velocity": 127,
      "chip": "ym2612"
    },
    {
      "channel": 3,
      "note": 81,
      "start": 7.5271,
      "duration": 0.006,
      "velocity": 119,
      "chip": "ym2612"
    },
    {
      "channel": 1,
      "note": 30,
      "start": 7.533,
      "duration": 0.009,
      "velocity": 127,
      "chip": "ym2612"
    },
    {
      "channel": 3,
      "note": 80,
      "start": 7.5356,
      "duration": 0.01,
      "velocity": 118,
      "chip": "ym2612"
    },
    {
      "channel": 1,
      "note": 35,
      "start": 7.543,
      "duration": 0.0009,
      "velocity": 127,
      "chip": "ym2612"
    },
    {
      "channel": 0,
      "note": 58,
      "start": 7.5473,
      "duration": 91.5585,
      "velocity": 100,
      "chip": "ym2612"
    },
    {
      "channel": 1,
      "note": 66,
      "start": 7.548,
      "duration": 91.5578,
      "velocity": 102,
      "chip": "ym2612"
    },
    {
      "channel": 2,
      "note": 63,
      "start": 7.5484,
      "duration": 91.5574,
      "velocity": 112,
      "chip": "ym2612"
    },
    {
      "channel": 3,
      "note": 54,
      "start": 7.5496,
      "duration": 91.5562,
      "velocity": 120,
      "chip": "ym2612"
    }
  ]
}