{
  "track_name": "10 - Harlem Dance",
  "duration_sec": 37.714,
  "sample_rate": 44100,
  "note_count": 1782,
  "unique_pitches": 34,
  "pitch_range": 79,
  "avg_note_duration": 0.0849,
  "reconstruction_stats": {
    "notes_reconstructed": 1782,
    "keyon_events": 1782,
    "keyoff_events": 1778,
    "orphan_keyons": 4,
    "unique_pitches": 34,
    "pitch_range": 79,
    "avg_duration_sec": 0.0849
  },
  "metadata": {
    "source": "V\\Viper-V10\\10 - Harlem Dance.vgz"
  },
  "notes": [
    {
      "channel": 0,
      "note": 53,
      "start": 0.002,
      "duration": 0.0997,
      "velocity": 127,
      "chip": "ym2612"
    },
    {
      "channel": 1,
      "note": 84,
      "start": 0.0038,
      "duration": 0.028,
      "velocity": 105,
      "chip": "ym2612"
    },
    {
      "channel": 3,
      "note": 48,
      "start": 0.007,
      "duration": 0.0967,
      "velocity": 101,
      "chip": "ym2612"
    },
    {
      "channel": 4,
      "note": 61,
      "start": 0.0087,
      "duration": 0.0952,
      "velocity": 82,
      "chip": "ym2612"
    },
    {
      "channel": 0,
      "note": 75,
      "start": 0.1033,
      "duration": 0.0917,
      "velocity": 127,
      "chip": "ym2612"
    },
    {
      "channel": 1,
      "note": 88,
      "start": 0.1036,
      "duration": 0.1147,
      "velocity": 105,
      "chip": "ym2612"
    },
    {
      "channel": 3,
      "note": 50,
      "start": 0.1039,
      "duration": 0.1847,
      "velocity": 101,
      "chip": "ym2612"
    },
    {
      "channel": 4,
      "note": 59,
      "start": 0.1042,
      "duration": 0.0926,
      "velocity": 82,
      "chip": "ym2612"
    },
    {
      "channel": 5,
      "note": 61,
      "start": 0.1487,
      "duration": 0.0931,
      "velocity": 79,
      "chip": "ym2612"
    },
    {
      "channel": 0,
      "note": 66,
      "start": 0.1966,
      "duration": 0.185,
      "velocity": 127,
      "chip": "ym2612"
    },
    {
      "channel": 4,
      "note": 56,
      "start": 0.1971,
      "duration": 0.0917,
      "velocity": 82,
      "chip": "ym2612"
    },
    {
      "channel": 5,
      "note": 59,
      "start": 0.2421,
      "duration": 0.093,
      "velocity": 79,
      "chip": "ym2612"
    },
    {
      "channel": 1,
      "note": 84,
      "start": 0.2885,
      "duration": 0.0231,
      "velocity": 105,
      "chip": "ym2612"
    },
    {
      "channel": 3,
      "note": 48,
      "start": 0.2888,
      "duration": 0.0948,
      "velocity": 101,
      "chip": "ym2612"
    },
    {
      "channel": 4,
      "note": 59,
      "start": 0.2892,
      "duration": 0.0947,
      "velocity": 82,
      "chip": "ym2612"
    },
    {
      "channel": 5,
      "note": 56,
      "start": 0.3354,
      "duration": 0.093,
      "velocity": 79,
      "chip": "ym2612"
    },
    {
      "channel": 0,
      "note": 53,
      "start": 0.3833,
      "duration": 0.0917,
      "velocity": 127,
      "chip": "ym2612"
    },
    {
      "channel": 2,
      "note": 50,
      "start": 0.3836,
      "duration": 0.0932,
      "velocity": 127,
      "chip": "ym2612"
    },
    {
      "channel": 3,
      "note": 50,
      "start": 0.3838,
      "duration": 0.1864,
      "velocity": 101,
      "chip": "ym2612"
    },
    {
      "channel": 4,
      "note": 56,
      "start": 0.3842,
      "duration": 0.0926,
      "velocity": 82,
      "chip": "ym2612"
    },
    {
      "channel": 5,
      "note": 59,
      "start": 0.4288,
      "duration": 0.0929,
      "velocity": 79,
      "chip": "ym2612"
    },
    {
      "channel": 0,
      "note": 75,
      "start": 0.4766,
      "duration": 0.0917,
      "velocity": 127,
      "chip": "ym2612"
    },
    {
      "channel": 4,
      "note": 54,
      "start": 0.4771,
      "duration": 0.0933,
      "velocity": 82,
      "chip": "ym2612"
    },
    {
      "channel": 5,
      "note": 56,
      "start": 0.522,
      "duration": 0.093,
      "velocity": 79,
      "chip": "ym2612"
    },
    {
      "channel": 0,
      "note": 66,
      "start": 0.5699,
      "duration": 0.185,
      "velocity": 127,
      "chip": "ym2612"
    },
    {
      "channel": 1,
      "note": 84,
      "start": 0.5701,
      "duration": 0.0214,
      "velocity": 105,
      "chip": "ym2612"
    },
    {
      "channel": 3,
      "note": 48,
      "start": 0.5704,
      "duration": 0.0917,
      "velocity": 101,
      "chip": "ym2612"
    },
    {
      "channel": 4,
      "note": 56,
      "start": 0.571,
      "duration": 0.0913,
      "velocity": 82,
      "chip": "ym2612"
    },
    {
      "channel": 5,
      "note": 54,
      "start": 0.6154,
      "duration": 0.093,
      "velocity": 79,
      "chip": "ym2612"
    },
    {
      "channel": 1,
      "note": 88,
      "start": 0.6618,
      "duration": 0.0231,
      "velocity": 105,
      "chip": "ym2612"
    },
    {
      "channel": 2,
      "note": 50,
      "start": 0.662,
      "duration": 0.0946,
      "velocity": 127,
      "chip": "ym2612"
    },
    {
      "channel": 3,
      "note": 50,
      "start": 0.6623,
      "duration": 0.1881,
      "velocity": 101,
      "chip": "ym2612"
    },
    {
      "channel": 4,
      "note": 54,
      "start": 0.6627,
      "duration": 0.094,
      "velocity": 82,
      "chip": "ym2612"
    },
    {
      "channel": 5,
      "note": 56,
      "start": 0.7087,
      "duration": 0.093,
      "velocity": 79,
      "chip": "ym2612"
    },
    {
      "channel": 0,
      "note": 53,
      "start": 0.7565,
      "duration": 0.0916,
      "velocity": 127,
      "chip": "ym2612"
    },
    {
      "channel": 4,
      "note": 52,
      "start": 0.757,
      "duration": 0.0936,
      "velocity": 82,
      "chip": "ym2612"
    },
    {
      "channel": 5,
      "note": 54,
      "start": 0.8021,
      "duration": 0.0929,
      "velocity": 79,
      "chip": "ym2612"
    },
    {
      "channel": 0,
      "note": 75,
      "start": 0.8498,
      "duration": 0.0917,
      "velocity": 127,
      "chip": "ym2612"
    },
    {
      "channel": 1,
      "note": 81,
      "start": 0.8501,
      "duration": 0.0214,
      "velocity": 105,
      "chip": "ym2612"
    },
    {
      "channel": 2,
      "note": 50,
      "start": 0.8503,
      "duration": 0.0932,
      "velocity": 127,
      "chip": "ym2612"
    },
    {
      "channel": 3,
      "note": 48,
      "start": 0.8506,
      "duration": 0.0929,
      "velocity": 101,
      "chip": "ym2612"
    },
    {
      "channel": 4,
      "note": 54,
      "start": 0.8512,
      "duration": 0.0926,
      "velocity": 82,
      "chip": "ym2612"
    },
    {
      "channel": 5,
      "note": 52,
      "start": 0.8953,
      "duration": 0.093,
      "velocity": 79,
      "chip": "ym2612"
    },
    {
      "channel": 0,
      "note": 66,
      "start": 0.9431,
      "duration": 0.185,
      "velocity": 127,
      "chip": "ym2612"
    },
    {
      "channel": 1,
      "note": 81,
      "start": 0.9434,
      "duration": 0.0214,
      "velocity": 105,
      "chip": "ym2612"
    },
    {
      "channel": 3,
      "note": 50,
      "start": 0.9437,
      "duration": 0.1864,
      "velocity": 101,
      "chip": "ym2612"
    },
    {
      "channel": 4,
      "note": 52,
      "start": 0.9441,
      "duration": 0.091,
      "velocity": 82,
      "chip": "ym2612"
    },
    {
      "channel": 5,
      "note": 54,
      "start": 0.9886,
      "duration": 0.093,
      "velocity": 79,
      "chip": "ym2612"
    },
    {
      "channel": 1,
      "note": 81,
      "start": 1.035,
      "duration": 0.0231,
      "velocity": 105,
      "chip": "ym2612"
    },
    {
      "channel": 4,
      "note": 49,
      "start": 1.0354,
      "duration": 0.0949,
      "velocity": 82,
      "chip": "ym2612"
    },
    {
      "channel": 5,
      "note": 52,
      "start": 1.0819,
      "duration": 0.0931,
      "velocity": 79,
      "chip": "ym2612"
    },
    {
      "channel": 0,
      "note": 53,
      "start": 1.1298,
      "duration": 0.0916,
      "velocity": 127,
      "chip": "ym2612"
    },
    {
      "channel": 2,
      "note": 50,
      "start": 1.1301,
      "duration": 0.0932,
      "velocity": 127,
      "chip": "ym2612"
    },
    {
      "channel": 3,
      "note": 48,
      "start": 1.1303,
      "duration": 0.0929,
      "velocity": 101,
      "chip": "ym2612"
    },
    {
      "channel": 4,
      "note": 47,
      "start": 1.1309,
      "duration": 0.0926,
      "velocity": 82,
      "chip": "ym2612"
    },
    {
      "channel": 5,
      "note": 49,
      "start": 1.1753,
      "duration": 0.0929,
      "velocity": 79,
      "chip": "ym2612"
    },
    {
      "channel": 0,
      "note": 75,
      "start": 1.2231,
      "duration": 0.0917,
      "velocity": 127,
      "chip": "ym2612"
    },
    {
      "channel": 3,
      "note": 50,
      "start": 1.2235,
      "duration": 0.0932,
      "velocity": 101,
      "chip": "ym2612"
    },
    {
      "channel": 4,
      "note": 49,
      "start": 1.2238,
      "duration": 0.0931,
      "velocity": 82,
      "chip": "ym2612"
    },
    {
      "channel": 5,
      "note": 47,
      "start": 1.2685,
      "duration": 0.093,
      "velocity": 79,
      "chip": "ym2612"
    },
    {
      "channel": 0,
      "note": 66,
      "start": 1.3164,
      "duration": 0.185,
      "velocity": 127,
      "chip": "ym2612"
    },
    {
      "channel": 1,
      "note": 84,
      "start": 1.3166,
      "duration": 0.0214,
      "velocity": 105,
      "chip": "ym2612"
    },
    {
      "channel": 3,
      "note": 53,
      "start": 1.3169,
      "duration": 0.0917,
      "velocity": 101,
      "chip": "ym2612"
    },
    {
      "channel": 4,
      "note": 52,
      "start": 1.3173,
      "duration": 0.0916,
      "velocity": 82,
      "chip": "ym2612"
    },
    {
      "channel": 5,
      "note": 49,
      "start": 1.3619,
      "duration": 0.093,
      "velocity": 79,
      "chip": "ym2612"
    },
    {
      "channel": 1,
      "note": 88,
      "start": 1.4083,
      "duration": 0.0231,
      "velocity": 105,
      "chip": "ym2612"
    },
    {
      "channel": 2,
      "note": 50,
      "start": 1.4085,
      "duration": 0.0948,
      "velocity": 127,
      "chip": "ym2612"
    },
    {
      "channel": 3,
      "note": 55,
      "start": 1.4088,
      "duration": 0.0946,
      "velocity": 101,
      "chip": "ym2612"
    },
    {
      "channel": 4,
      "note": 54,
      "start": 1.4092,
      "duration": 0.0945,
      "velocity": 82,
      "chip": "ym2612"
    },
    {
      "channel": 5,
      "note": 52,
      "start": 1.4552,
      "duration": 0.0931,
      "velocity": 79,
      "chip": "ym2612"
    },
    {
      "channel": 0,
      "note": 53,
      "start": 1.503,
      "duration": 0.0917,
      "velocity": 127,
      "chip": "ym2612"
    },
    {
      "channel": 1,
      "note": 84,
      "start": 1.5033,
      "duration": 0.0215,
      "velocity": 105,
      "chip": "ym2612"
    },
    {
      "channel": 3,
      "note": 48,
      "start": 1.5036,
      "duration": 0.0933,
      "velocity": 101,
      "chip": "ym2612"
    },
    {
      "channel": 4,
      "note": 61,
      "start": 1.504,
      "duration": 0.0932,
      "velocity": 82,
      "chip": "ym2612"
    },
    {
      "channel": 5,
      "note": 54,
      "start": 1.5486,
      "duration": 0.0929,
      "velocity": 79,
      "chip": "ym2612"
    },
    {
      "channel": 0,
      "note": 75,
      "start": 1.5963,
      "duration": 0.0917,
      "velocity": 127,
      "chip": "ym2612"
    },
    {
      "channel": 1,
      "note": 88,
      "start": 1.5966,
      "duration": 0.1147,
      "velocity": 105,
      "chip": "ym2612"
    },
    {
      "channel": 2,
      "note": 50,
      "start": 1.5968,
      "duration": 0.0929,
      "velocity": 127,
      "chip": "ym2612"
    },
    {
      "channel": 3,
      "note": 50,
      "start": 1.5971,
      "duration": 0.1845,
      "velocity": 101,
      "chip": "ym2612"
    },
    {
      "channel": 4,
      "note": 59,
      "start": 1.5975,
      "duration": 0.0924,
      "velocity": 82,
      "chip": "ym2612"
    },
    {
      "channel": 5,
      "note": 61,
      "start": 1.6418,
      "duration": 0.093,
      "velocity": 79,
      "chip": "ym2612"
    },
    {
      "channel": 0,
      "note": 66,
      "start": 1.6896,
      "duration": 0.185,
      "velocity": 127,
      "chip": "ym2612"
    },
    {
      "channel": 4,
      "note": 56,
      "start": 1.6902,
      "duration": 0.0917,
      "velocity": 82,
      "chip": "ym2612"
    },
    {
      "channel": 5,
      "note": 59,
      "start": 1.7351,
      "duration": 0.093,
      "velocity": 79,
      "chip": "ym2612"
    },
    {
      "channel": 1,
      "note": 84,
      "start": 1.7815,
      "duration": 0.0231,
      "velocity": 105,
      "chip": "ym2612"
    },
    {
      "channel": 3,
      "note": 48,
      "start": 1.7818,
      "duration": 0.0949,
      "velocity": 101,
      "chip": "ym2612"
    },
    {
      "channel": 4,
      "note": 59,
      "start": 1.7822,
      "duration": 0.0947,
      "velocity": 82,
      "chip": "ym2612"
    },
    {
      "channel": 5,
      "note": 56,
      "start": 1.8284,
      "duration": 0.093,
      "velocity": 79,
      "chip": "ym2612"
    },
    {
      "channel": 0,
      "note": 53,
      "start": 1.8763,
      "duration": 0.0916,
      "velocity": 127,
      "chip": "ym2612"
    },
    {
      "channel": 2,
      "note": 50,
      "start": 1.8766,
      "duration": 0.0931,
      "velocity": 127,
      "chip": "ym2612"
    },
    {
      "channel": 3,
      "note": 50,
      "start": 1.8768,
      "duration": 0.1864,
      "velocity": 101,
      "chip": "ym2612"
    },
    {
      "channel": 4,
      "note": 56,
      "start": 1.8772,
      "duration": 0.0926,
      "velocity": 82,
      "chip": "ym2612"
    },
    {
      "channel": 5,
      "note": 59,
      "start": 1.9218,
      "duration": 0.0929,
      "velocity": 79,
      "chip": "ym2612"
    },
    {
      "channel": 0,
      "note": 75,
      "start": 1.9696,
      "duration": 0.0917,
      "velocity": 127,
      "chip": "ym2612"
    },
    {
      "channel": 4,
      "note": 54,
      "start": 1.9701,
      "duration": 0.0934,
      "velocity": 82,
      "chip": "ym2612"
    },
    {
      "channel": 5,
      "note": 56,
      "start": 2.015,
      "duration": 0.0931,
      "velocity": 79,
      "chip": "ym2612"
    },
    {
      "channel": 0,
      "note": 66,
      "start": 2.0629,
      "duration": 0.1849,
      "velocity": 127,
      "chip": "ym2612"
    },
    {
      "channel": 1,
      "note": 84,
      "start": 2.0632,
      "duration": 0.0214,
      "velocity": 105,
      "chip": "ym2612"
    },
    {
      "channel": 3,
      "note": 48,
      "start": 2.0634,
      "duration": 0.0917,
      "velocity": 101,
      "chip": "ym2612"
    },
    {
      "channel": 4,
      "note": 56,
      "start": 2.0638,
      "duration": 0.0915,
      "velocity": 82,
      "chip": "ym2612"
    },
    {
      "channel": 5,
      "note": 54,
      "start": 2.1084,
      "duration": 0.0929,
      "velocity": 79,
      "chip": "ym2612"
    },
    {
      "channel": 1,
      "note": 88,
      "start": 2.1548,
      "duration": 0.0231,
      "velocity": 105,
      "chip": "ym2612"
    },
    {
      "channel": 2,
      "note": 50,
      "start": 2.155,
      "duration": 0.0946,
      "velocity": 127,
      "chip": "ym2612"
    },
    {
      "channel": 3,
      "note": 50,
      "start": 2.1553,
      "duration": 0.1881,
      "velocity": 101,
      "chip": "ym2612"
    },
    {
      "channel": 4,
      "note": 54,
      "start": 2.1556,
      "duration": 0.094,
      "velocity": 82,
      "chip": "ym2612"
    },
    {
      "channel": 5,
      "note": 56,
      "start": 2.2017,
      "duration": 0.093,
      "velocity": 79,
      "chip": "ym2612"
    },
    {
      "channel": 0,
      "note": 53,
      "start": 2.2495,
      "duration": 0.0916,
      "velocity": 127,
      "chip": "ym2612"
    },
    {
      "channel": 4,
      "note": 52,
      "start": 2.25,
      "duration": 0.0937,
      "velocity": 82,
      "chip": "ym2612"
    },
    {
      "channel": 5,
      "note": 54,
      "start": 2.2951,
      "duration": 0.0929,
      "velocity": 79,
      "chip": "ym2612"
    },
    {
      "channel": 0,
      "note": 75,
      "start": 2.3429,
      "duration": 0.0916,
      "velocity": 127,
      "chip": "ym2612"
    },
    {
      "channel": 1,
      "note": 81,
      "start": 2.3431,
      "duration": 0.0214,
      "velocity": 105,
      "chip": "ym2612"
    },
    {
      "channel": 2,
      "note": 50,
      "start": 2.3434,
      "duration": 0.0931,
      "velocity": 127,
      "chip": "ym2612"
    },
    {
      "channel": 3,
      "note": 48,
      "start": 2.3436,
      "duration": 0.0929,
      "velocity": 101,
      "chip": "ym2612"
    },
    {
      "channel": 4,
      "note": 54,
      "start": 2.344,
      "duration": 0.0928,
      "velocity": 82,
      "chip": "ym2612"
    },
    {
      "channel": 5,
      "note": 52,
      "start": 2.3883,
      "duration": 0.093,
      "velocity": 79,
      "chip": "ym2612"
    },
    {
      "channel": 0,
      "note": 66,
      "start": 2.4361,
      "duration": 0.185,
      "velocity": 127,
      "chip": "ym2612"
    },
    {
      "channel": 1,
      "note": 81,
      "start": 2.4364,
      "duration": 0.0214,
      "velocity": 105,
      "chip": "ym2612"
    },
    {
      "channel": 3,
      "note": 50,
      "start": 2.4367,
      "duration": 0.1864,
      "velocity": 101,
      "chip": "ym2612"
    },
    {
      "channel": 4,
      "note": 52,
      "start": 2.4371,
      "duration": 0.091,
      "velocity": 82,
      "chip": "ym2612"
    },
    {
      "channel": 5,
      "note": 54,
      "start": 2.4816,
      "duration": 0.093,
      "velocity": 79,
      "chip": "ym2612"
    },
    {
      "channel": 1,
      "note": 81,
      "start": 2.528,
      "duration": 0.0231,
      "velocity": 105,
      "chip": "ym2612"
    },
    {
      "channel": 4,
      "note": 49,
      "start": 2.5284,
      "duration": 0.0949,
      "velocity": 82,
      "chip": "ym2612"
    },
    {
      "channel": 5,
      "note": 52,
      "start": 2.575,
      "duration": 0.093,
      "velocity": 79,
      "chip": "ym2612"
    },
    {
      "channel": 0,
      "note": 53,
      "start": 2.6228,
      "duration": 0.0916,
      "velocity": 127,
      "chip": "ym2612"
    },
    {
      "channel": 2,
      "note": 50,
      "start": 2.6231,
      "duration": 0.0932,
      "velocity": 127,
      "chip": "ym2612"
    },
    {
      "channel": 3,
      "note": 48,
      "start": 2.6233,
      "duration": 0.0929,
      "velocity": 101,
      "chip": "ym2612"
    },
    {
      "channel": 4,
      "note": 47,
      "start": 2.6237,
      "duration": 0.0928,
      "velocity": 82,
      "chip": "ym2612"
    },
    {
      "channel": 5,
      "note": 49,
      "start": 2.6683,
      "duration": 0.0929,
      "velocity": 79,
      "chip": "ym2612"
    },
    {
      "channel": 0,
      "note": 75,
      "start": 2.7161,
      "duration": 0.0917,
      "velocity": 127,
      "chip": "ym2612"
    },
    {
      "channel": 3,
      "note": 50,
      "start": 2.7165,
      "duration": 0.0933,
      "velocity": 101,
      "chip": "ym2612"
    },
    {
      "channel": 4,
      "note": 49,
      "start": 2.7168,
      "duration": 0.0931,
      "velocity": 82,
      "chip": "ym2612"
    },
    {
      "channel": 5,
      "note": 47,
      "start": 2.7615,
      "duration": 0.093,
      "velocity": 79,
      "chip": "ym2612"
    },
    {
      "channel": 0,
      "note": 66,
      "start": 2.8094,
      "duration": 0.1849,
      "velocity": 127,
      "chip": "ym2612"
    },
    {
      "channel": 1,
      "note": 84,
      "start": 2.8097,
      "duration": 0.0214,
      "velocity": 105,
      "chip": "ym2612"
    },
    {
      "channel": 3,
      "note": 53,
      "start": 2.8099,
      "duration": 0.0917,
      "velocity": 101,
      "chip": "ym2612"
    },
    {
      "channel": 4,
      "note": 52,
      "start": 2.8103,
      "duration": 0.0915,
      "velocity": 82,
      "chip": "ym2612"
    },
    {
      "channel": 5,
      "note": 49,
      "start": 2.8549,
      "duration": 0.093,
      "velocity": 79,
      "chip": "ym2612"
    },
    {
      "channel": 1,
      "note": 88,
      "start": 2.9013,
      "duration": 0.0231,
      "velocity": 105,
      "chip": "ym2612"
    },
    {
      "channel": 2,
      "note": 50,
      "start": 2.9015,
      "duration": 0.0948,
      "velocity": 127,
      "chip": "ym2612"
    },
    {
      "channel": 3,
      "note": 55,
      "start": 2.9018,
      "duration": 0.0961,
      "velocity": 101,
      "chip": "ym2612"
    },
    {
      "channel": 4,
      "note": 54,
      "start": 2.9021,
      "duration": 0.0959,
      "velocity": 82,
      "chip": "ym2612"
    },
    {
      "channel": 5,
      "note": 52,
      "start": 2.9482,
      "duration": 0.0931,
      "velocity": 79,
      "chip": "ym2612"
    },
    {
      "channel": 0,
      "note": 53,
      "start": 2.996,
      "duration": 0.0917,
      "velocity": 127,
      "chip": "ym2612"
    },
    {
      "channel": 1,
      "note": 84,
      "start": 2.9963,
      "duration": 0.0215,
      "velocity": 105,
      "chip": "ym2612"
    },
    {
      "channel": 3,
      "note": 48,
      "start": 2.998,
      "duration": 0.0919,
      "velocity": 101,
      "chip": "ym2612"
    },
    {
      "channel": 4,
      "note": 61,
      "start": 2.9984,
      "duration": 0.0917,
      "velocity": 82,
      "chip": "ym2612"
    },
    {
      "channel": 5,
      "note": 54,
      "start": 3.0417,
      "duration": 0.0928,
      "velocity": 79,
      "chip": "ym2612"
    },
    {
      "channel": 0,
      "note": 75,
      "start": 3.0893,
      "duration": 0.0917,
      "velocity": 127,
      "chip": "ym2612"
    },
    {
      "channel": 1,
      "note": 88,
      "start": 3.0896,
      "duration": 0.1147,
      "velocity": 105,
      "chip": "ym2612"
    },
    {
      "channel": 2,
      "note": 50,
      "start": 3.0898,
      "duration": 0.093,
      "velocity": 127,
      "chip": "ym2612"
    },
    {
      "channel": 3,
      "note": 50,
      "start": 3.0901,
      "duration": 0.1845,
      "velocity": 101,
      "chip": "ym2612"
    },
    {
      "channel": 4,
      "note": 59,
      "start": 3.0905,
      "duration": 0.0924,
      "velocity": 82,
      "chip": "ym2612"
    },
    {
      "channel": 5,
      "note": 61,
      "start": 3.1348,
      "duration": 0.093,
      "velocity": 79,
      "chip": "ym2612"
    },
    {
      "channel": 0,
      "note": 66,
      "start": 3.1827,
      "duration": 0.1849,
      "velocity": 127,
      "chip": "ym2612"
    },
    {
      "channel": 4,
      "note": 56,
      "start": 3.1832,
      "duration": 0.0916,
      "velocity": 82,
      "chip": "ym2612"
    },
    {
      "channel": 5,
      "note": 59,
      "start": 3.2281,
      "duration": 0.0931,
      "velocity": 79,
      "chip": "ym2612"
    },
    {
      "channel": 1,
      "note": 84,
      "start": 3.2745,
      "duration": 0.0231,
      "velocity": 105,
      "chip": "ym2612"
    },
    {
      "channel": 3,
      "note": 48,
      "start": 3.2748,
      "duration": 0.0948,
      "velocity": 101,
      "chip": "ym2612"
    },
    {
      "channel": 4,
      "note": 59,
      "start": 3.2752,
      "duration": 0.0946,
      "velocity": 82,
      "chip": "ym2612"
    },
    {
      "channel": 5,
      "note": 56,
      "start": 3.3215,
      "duration": 0.0929,
      "velocity": 79,
      "chip": "ym2612"
    },
    {
      "channel": 0,
      "note": 53,
      "start": 3.3693,
      "duration": 0.0918,
      "velocity": 127,
      "chip": "ym2612"
    },
    {
      "channel": 2,
      "note": 50,
      "start": 3.3695,
      "duration": 0.0933,
      "velocity": 127,
      "chip": "ym2612"
    },
    {
      "channel": 3,
      "note": 50,
      "start": 3.3698,
      "duration": 0.1864,
      "velocity": 101,
      "chip": "ym2612"
    },
    {
      "channel": 4,
      "note": 56,
      "start": 3.3702,
      "duration": 0.0927,
      "velocity": 82,
      "chip": "ym2612"
    },
    {
      "channel": 5,
      "note": 59,
      "start": 3.4148,
      "duration": 0.0929,
      "velocity": 79,
      "chip": "ym2612"
    },
    {
      "channel": 0,
      "note": 75,
      "start": 3.4627,
      "duration": 0.0915,
      "velocity": 127,
      "chip": "ym2612"
    },
    {
      "channel": 4,
      "note": 54,
      "start": 3.4632,
      "duration": 0.0932,
      "velocity": 82,
      "chip": "ym2612"
    },
    {
      "channel": 5,
      "note": 56,
      "start": 3.508,
      "duration": 0.0931,
      "velocity": 79,
      "chip": "ym2612"
    },
    {
      "channel": 0,
      "note": 66,
      "start": 3.5559,
      "duration": 0.1851,
      "velocity": 127,
      "chip": "ym2612"
    },
    {
      "channel": 1,
      "note": 84,
      "start": 3.5561,
      "duration": 0.0214,
      "velocity": 105,
      "chip": "ym2612"
    },
    {
      "channel": 3,
      "note": 48,
      "start": 3.5564,
      "duration": 0.0917,
      "velocity": 101,
      "chip": "ym2612"
    },
    {
      "channel": 4,
      "note": 56,
      "start": 3.5567,
      "duration": 0.0916,
      "velocity": 82,
      "chip": "ym2612"
    },
    {
      "channel": 5,
      "note": 54,
      "start": 3.6015,
      "duration": 0.0928,
      "velocity": 79,
      "chip": "ym2612"
    },
    {
      "channel": 1,
      "note": 88,
      "start": 3.6478,
      "duration": 0.0232,
      "velocity": 105,
      "chip": "ym2612"
    },
    {
      "channel": 2,
      "note": 50,
      "start": 3.648,
      "duration": 0.0948,
      "velocity": 127,
      "chip": "ym2612"
    },
    {
      "channel": 3,
      "note": 50,
      "start": 3.6483,
      "duration": 0.1881,
      "velocity": 101,
      "chip": "ym2612"
    },
    {
      "channel": 4,
      "note": 54,
      "start": 3.6486,
      "duration": 0.0942,
      "velocity": 82,
      "chip": "ym2612"
    },
    {
      "channel": 5,
      "note": 56,
      "start": 3.6947,
      "duration": 0.093,
      "velocity": 79,
      "chip": "ym2612"
    },
    {
      "channel": 0,
      "note": 53,
      "start": 3.7427,
      "duration": 0.0914,
      "velocity": 127,
      "chip": "ym2612"
    },
    {
      "channel": 4,
      "note": 52,
      "start": 3.7432,
      "duration": 0.0934,
      "velocity": 82,
      "chip": "ym2612"
    },
    {
      "channel": 5,
      "note": 54,
      "start": 3.788,
      "duration": 0.0931,
      "velocity": 79,
      "chip": "ym2612"
    },
    {
      "channel": 0,
      "note": 75,
      "start": 3.8358,
      "duration": 0.0917,
      "velocity": 127,
      "chip": "ym2612"
    },
    {
      "channel": 1,
      "note": 81,
      "start": 3.8361,
      "duration": 0.0214,
      "velocity": 105,
      "chip": "ym2612"
    },
    {
      "channel": 2,
      "note": 50,
      "start": 3.8363,
      "duration": 0.0932,
      "velocity": 127,
      "chip": "ym2612"
    },
    {
      "channel": 3,
      "note": 48,
      "start": 3.8366,
      "duration": 0.0929,
      "velocity": 101,
      "chip": "ym2612"
    },
    {
      "channel": 4,
      "note": 54,
      "start": 3.8369,
      "duration": 0.0928,
      "velocity": 82,
      "chip": "ym2612"
    },
    {
      "channel": 5,
      "note": 52,
      "start": 3.8815,
      "duration": 0.0928,
      "velocity": 79,
      "chip": "ym2612"
    },
    {
      "channel": 0,
      "note": 66,
      "start": 3.9291,
      "duration": 0.185,
      "velocity": 127,
      "chip": "ym2612"
    },
    {
      "channel": 1,
      "note": 81,
      "start": 3.9294,
      "duration": 0.0216,
      "velocity": 105,
      "chip": "ym2612"
    },
    {
      "channel": 3,
      "note": 50,
      "start": 3.9297,
      "duration": 0.1864,
      "velocity": 101,
      "chip": "ym2612"
    },
    {
      "channel": 4,
      "note": 52,
      "start": 3.9301,
      "duration": 0.0912,
      "velocity": 82,
      "chip": "ym2612"
    },
    {
      "channel": 5,
      "note": 54,
      "start": 3.9746,
      "duration": 0.0929,
      "velocity": 79,
      "chip": "ym2612"
    },
    {
      "channel": 1,
      "note": 81,
      "start": 4.0213,
      "duration": 0.0228,
      "velocity": 105,
      "chip": "ym2612"
    },
    {
      "channel": 4,
      "note": 49,
      "start": 4.0217,
      "duration": 0.0947,
      "velocity": 82,
      "chip": "ym2612"
    },
    {
      "channel": 5,
      "note": 52,
      "start": 4.0679,
      "duration": 0.0933,
      "velocity": 79,
      "chip": "ym2612"
    },
    {
      "channel": 0,
      "note": 53,
      "start": 4.1158,
      "duration": 0.0916,
      "velocity": 127,
      "chip": "ym2612"
    },
    {
      "channel": 2,
      "note": 50,
      "start": 4.1161,
      "duration": 0.0932,
      "velocity": 127,
      "chip": "ym2612"
    },
    {
      "channel": 3,
      "note": 48,
      "start": 4.1163,
      "duration": 0.093,
      "velocity": 101,
      "chip": "ym2612"
    },
    {
      "channel": 4,
      "note": 47,
      "start": 4.1167,
      "duration": 0.0929,
      "velocity": 82,
      "chip": "ym2612"
    },
    {
      "channel": 5,
      "note": 49,
      "start": 4.1615,
      "duration": 0.0926,
      "velocity": 79,
      "chip": "ym2612"
    },
    {
      "channel": 0,
      "note": 75,
      "start": 4.2091,
      "duration": 0.0919,
      "velocity": 127,
      "chip": "ym2612"
    },
    {
      "channel": 3,
      "note": 50,
      "start": 4.2095,
      "duration": 0.0934,
      "velocity": 101,
      "chip": "ym2612"
    },
    {
      "channel": 4,
      "note": 49,
      "start": 4.2099,
      "duration": 0.0933,
      "velocity": 82,
      "chip": "ym2612"
    },
    {
      "channel": 5,
      "note": 47,
      "start": 4.2545,
      "duration": 0.093,
      "velocity": 79,
      "chip": "ym2612"
    },
    {
      "channel": 0,
      "note": 66,
      "start": 4.3026,
      "duration": 0.1847,
      "velocity": 127,
      "chip": "ym2612"
    },
    {
      "channel": 1,
      "note": 84,
      "start": 4.3029,
      "duration": 0.0212,
      "velocity": 105,
      "chip": "ym2612"
    },
    {
      "channel": 3,
      "note": 53,
      "start": 4.3031,
      "duration": 0.0914,
      "velocity": 101,
      "chip": "ym2612"
    },
    {
      "channel": 4,
      "note": 52,
      "start": 4.3035,
      "duration": 0.0913,
      "velocity": 82,
      "chip": "ym2612"
    },
    {
      "channel": 5,
      "note": 49,
      "start": 4.3479,
      "duration": 0.0932,
      "velocity": 79,
      "chip": "ym2612"
    },
    {
      "channel": 1,
      "note": 88,
      "start": 4.3943,
      "duration": 0.0231,
      "velocity": 105,
      "chip": "ym2612"
    },
    {
      "channel": 2,
      "note": 50,
      "start": 4.3945,
      "duration": 0.0948,
      "velocity": 127,
      "chip": "ym2612"
    },
    {
      "channel": 3,
      "note": 55,
      "start": 4.3948,
      "duration": 0.0946,
      "velocity": 101,
      "chip": "ym2612"
    },
    {
      "channel": 4,
      "note": 54,
      "start": 4.3951,
      "duration": 0.0945,
      "velocity": 82,
      "chip": "ym2612"
    },
    {
      "channel": 5,
      "note": 52,
      "start": 4.4414,
      "duration": 0.0928,
      "velocity": 79,
      "chip": "ym2612"
    },
    {
      "channel": 0,
      "note": 53,
      "start": 4.489,
      "duration": 0.0916,
      "velocity": 127,
      "chip": "ym2612"
    },
    {
      "channel": 1,
      "note": 84,
      "start": 4.4893,
      "duration": 0.0217,
      "velocity": 105,
      "chip": "ym2612"
    },
    {
      "channel": 3,
      "note": 48,
      "start": 4.4896,
      "duration": 0.0935,
      "velocity": 101,
      "chip": "ym2612"
    },
    {
      "channel": 4,
      "note": 61,
      "start": 4.49,
      "duration": 0.0934,
      "velocity": 82,
      "chip": "ym2612"
    },
    {
      "channel": 5,
      "note": 54,
      "start": 4.5346,
      "duration": 0.0929,
      "velocity": 79,
      "chip": "ym2612"
    },
    {
      "channel": 0,
      "note": 75,
      "start": 4.5826,
      "duration": 0.0914,
      "velocity": 127,
      "chip": "ym2612"
    },
    {
      "channel": 1,
      "note": 88,
      "start": 4.5828,
      "duration": 0.1145,
      "velocity": 105,
      "chip": "ym2612"
    },
    {
      "channel": 2,
      "note": 50,
      "start": 4.5831,
      "duration": 0.0927,
      "velocity": 127,
      "chip": "ym2612"
    },
    {
      "channel": 3,
      "note": 50,
      "start": 4.5833,
      "duration": 0.1842,
      "velocity": 101,
      "chip": "ym2612"
    },
    {
      "channel": 4,
      "note": 59,
      "start": 4.5837,
      "duration": 0.0922,
      "velocity": 82,
      "chip": "ym2612"
    },
    {
      "channel": 5,
      "note": 61,
      "start": 4.6278,
      "duration": 0.0933,
      "velocity": 79,
      "chip": "ym2612"
    },
    {
      "channel": 0,
      "note": 66,
      "start": 4.6756,
      "duration": 0.1849,
      "velocity": 127,
      "chip": "ym2612"
    },
    {
      "channel": 4,
      "note": 56,
      "start": 4.6762,
      "duration": 0.0916,
      "velocity": 82,
      "chip": "ym2612"
    },
    {
      "channel": 5,
      "note": 59,
      "start": 4.7214,
      "duration": 0.0927,
      "velocity": 79,
      "chip": "ym2612"
    },
    {
      "channel": 1,
      "note": 84,
      "start": 4.7675,
      "duration": 0.0231,
      "velocity": 105,
      "chip": "ym2612"
    },
    {
      "channel": 3,
      "note": 48,
      "start": 4.7678,
      "duration": 0.0951,
      "velocity": 101,
      "chip": "ym2612"
    },
    {
      "channel": 4,
      "note": 59,
      "start": 4.7681,
      "duration": 0.0949,
      "velocity": 82,
      "chip": "ym2612"
    },
    {
      "channel": 5,
      "note": 56,
      "start": 4.8144,
      "duration": 0.093,
      "velocity": 79,
      "chip": "ym2612"
    },
    {
      "channel": 0,
      "note": 53,
      "start": 4.8625,
      "duration": 0.0914,
      "velocity": 127,
      "chip": "ym2612"
    },
    {
      "channel": 2,
      "note": 50,
      "start": 4.8628,
      "duration": 0.0929,
      "velocity": 127,
      "chip": "ym2612"
    },
    {
      "channel": 3,
      "note": 50,
      "start": 4.863,
      "duration": 0.1861,
      "velocity": 101,
      "chip": "ym2612"
    },
    {
      "channel": 4,
      "note": 56,
      "start": 4.8634,
      "duration": 0.0923,
      "velocity": 82,
      "chip": "ym2612"
    },
    {
      "channel": 5,
      "note": 59,
      "start": 4.9078,
      "duration": 0.0932,
      "velocity": 79,
      "chip": "ym2612"
    },
    {
      "channel": 0,
      "note": 75,
      "start": 4.9556,
      "duration": 0.0917,
      "velocity": 127,
      "chip": "ym2612"
    },
    {
      "channel": 4,
      "note": 54,
      "start": 4.9561,
      "duration": 0.0933,
      "velocity": 82,
      "chip": "ym2612"
    },
    {
      "channel": 5,
      "note": 56,
      "start": 5.0012,
      "duration": 0.0928,
      "velocity": 79,
      "chip": "ym2612"
    },
    {
      "channel": 0,
      "note": 66,
      "start": 5.0489,
      "duration": 0.185,
      "velocity": 127,
      "chip": "ym2612"
    },
    {
      "channel": 1,
      "note": 84,
      "start": 5.0491,
      "duration": 0.0214,
      "velocity": 105,
      "chip": "ym2612"
    },
    {
      "channel": 3,
      "note": 48,
      "start": 5.0494,
      "duration": 0.092,
      "velocity": 101,
      "chip": "ym2612"
    },
    {
      "channel": 4,
      "note": 56,
      "start": 5.0497,
      "duration": 0.0919,
      "velocity": 82,
      "chip": "ym2612"
    },
    {
      "channel": 5,
      "note": 54,
      "start": 5.0944,
      "duration": 0.093,
      "velocity": 79,
      "chip": "ym2612"
    },
    {
      "channel": 1,
      "note": 88,
      "start": 5.141,
      "duration": 0.0228,
      "velocity": 105,
      "chip": "ym2612"
    },
    {
      "channel": 2,
      "note": 50,
      "start": 5.1413,
      "duration": 0.0943,
      "velocity": 127,
      "chip": "ym2612"
    },
    {
      "channel": 3,
      "note": 50,
      "start": 5.1415,
      "duration": 0.1878,
      "velocity": 101,
      "chip": "ym2612"
    },
    {
      "channel": 4,
      "note": 54,
      "start": 5.1419,
      "duration": 0.0938,
      "velocity": 82,
      "chip": "ym2612"
    },
    {
      "channel": 5,
      "note": 56,
      "start": 5.1877,
      "duration": 0.0933,
      "velocity": 79,
      "chip": "ym2612"
    },
    {
      "channel": 0,
      "note": 53,
      "start": 5.2355,
      "duration": 0.0916,
      "velocity": 127,
      "chip": "ym2612"
    },
    {
      "channel": 4,
      "note": 52,
      "start": 5.236,
      "duration": 0.0936,
      "velocity": 82,
      "chip": "ym2612"
    },
    {
      "channel": 5,
      "note": 54,
      "start": 5.2813,
      "duration": 0.0927,
      "velocity": 79,
      "chip": "ym2612"
    },
    {
      "channel": 0,
      "note": 75,
      "start": 5.3288,
      "duration": 0.0917,
      "velocity": 127,
      "chip": "ym2612"
    },
    {
      "channel": 1,
      "note": 81,
      "start": 5.329,
      "duration": 0.0214,
      "velocity": 105,
      "chip": "ym2612"
    },
    {
      "channel": 2,
      "note": 50,
      "start": 5.3293,
      "duration": 0.0934,
      "velocity": 127,
      "chip": "ym2612"
    },
    {
      "channel": 3,
      "note": 48,
      "start": 5.3295,
      "duration": 0.0932,
      "velocity": 101,
      "chip": "ym2612"
    },
    {
      "channel": 4,
      "note": 54,
      "start": 5.3299,
      "duration": 0.0931,
      "velocity": 82,
      "chip": "ym2612"
    },
    {
      "channel": 5,
      "note": 52,
      "start": 5.3743,
      "duration": 0.093,
      "velocity": 79,
      "chip": "ym2612"
    },
    {
      "channel": 0,
      "note": 66,
      "start": 5.4224,
      "duration": 0.1847,
      "velocity": 127,
      "chip": "ym2612"
    },
    {
      "channel": 1,
      "note": 81,
      "start": 5.4227,
      "duration": 0.0211,
      "velocity": 105,
      "chip": "ym2612"
    },
    {
      "channel": 3,
      "note": 50,
      "start": 5.4229,
      "duration": 0.1862,
      "velocity": 101,
      "chip": "ym2612"
    },
    {
      "channel": 4,
      "note": 52,
      "start": 5.4233,
      "duration": 0.0908,
      "velocity": 82,
      "chip": "ym2612"
    },
    {
      "channel": 5,
      "note": 54,
      "start": 5.4676,
      "duration": 0.093,
      "velocity": 79,
      "chip": "ym2612"
    },
    {
      "channel": 1,
      "note": 81,
      "start": 5.514,
      "duration": 0.0231,
      "velocity": 105,
      "chip": "ym2612"
    },
    {
      "channel": 4,
      "note": 49,
      "start": 5.5144,
      "duration": 0.095,
      "velocity": 82,
      "chip": "ym2612"
    },
    {
      "channel": 5,
      "note": 52,
      "start": 5.5612,
      "duration": 0.0928,
      "velocity": 79,
      "chip": "ym2612"
    },
    {
      "channel": 0,
      "note": 53,
      "start": 5.6088,
      "duration": 0.0916,
      "velocity": 127,
      "chip": "ym2612"
    },
    {
      "channel": 2,
      "note": 50,
      "start": 5.6091,
      "duration": 0.0934,
      "velocity": 127,
      "chip": "ym2612"
    },
    {
      "channel": 3,
      "note": 48,
      "start": 5.6093,
      "duration": 0.0932,
      "velocity": 101,
      "chip": "ym2612"
    },
    {
      "channel": 4,
      "note": 47,
      "start": 5.6097,
      "duration": 0.093,
      "velocity": 82,
      "chip": "ym2612"
    },
    {
      "channel": 5,
      "note": 49,
      "start": 5.6543,
      "duration": 0.0929,
      "velocity": 79,
      "chip": "ym2612"
    },
    {
      "channel": 0,
      "note": 75,
      "start": 5.7023,
      "duration": 0.0914,
      "velocity": 127,
      "chip": "ym2612"
    },
    {
      "channel": 3,
      "note": 50,
      "start": 5.7027,
      "duration": 0.093,
      "velocity": 101,
      "chip": "ym2612"
    },
    {
      "channel": 4,
      "note": 49,
      "start": 5.7031,
      "duration": 0.0929,
      "velocity": 82,
      "chip": "ym2612"
    },
    {
      "channel": 5,
      "note": 47,
      "start": 5.7475,
      "duration": 0.093,
      "velocity": 79,
      "chip": "ym2612"
    },
    {
      "channel": 0,
      "note": 66,
      "start": 5.7954,
      "duration": 0.185,
      "velocity": 127,
      "chip": "ym2612"
    },
    {
      "channel": 1,
      "note": 84,
      "start": 5.7956,
      "duration": 0.0214,
      "velocity": 105,
      "chip": "ym2612"
    },
    {
      "channel": 3,
      "note": 53,
      "start": 5.7959,
      "duration": 0.0917,
      "velocity": 101,
      "chip": "ym2612"
    },
    {
      "channel": 4,
      "note": 52,
      "start": 5.7962,
      "duration": 0.0916,
      "velocity": 82,
      "chip": "ym2612"
    },
    {
      "channel": 5,
      "note": 49,
      "start": 5.8411,
      "duration": 0.0927,
      "velocity": 79,
      "chip": "ym2612"
    },
    {
      "channel": 1,
      "note": 88,
      "start": 5.8873,
      "duration": 0.0231,
      "velocity": 105,
      "chip": "ym2612"
    },
    {
      "channel": 2,
      "note": 50,
      "start": 5.8875,
      "duration": 0.0965,
      "velocity": 127,
      "chip": "ym2612"
    },
    {
      "channel": 3,
      "note": 55,
      "start": 5.8878,
      "duration": 0.0978,
      "velocity": 101,
      "chip": "ym2612"
    },
    {
      "channel": 4,
      "note": 54,
      "start": 5.8881,
      "duration": 0.0976,
      "velocity": 82,
      "chip": "ym2612"
    },
    {
      "channel": 5,
      "note": 52,
      "start": 5.9342,
      "duration": 0.0931,
      "velocity": 79,
      "chip": "ym2612"
    },
    {
      "channel": 0,
      "note": 53,
      "start": 5.9822,
      "duration": 0.0914,
      "velocity": 127,
      "chip": "ym2612"
    },
    {
      "channel": 1,
      "note": 84,
      "start": 5.984,
      "duration": 0.0198,
      "velocity": 105,
      "chip": "ym2612"
    },
    {
      "channel": 3,
      "note": 48,
      "start": 5.9857,
      "duration": 0.09,
      "velocity": 101,
      "chip": "ym2612"
    },
    {
      "channel": 4,
      "note": 61,
      "start": 5.9861,
      "duration": 0.0898,
      "velocity": 82,
      "chip": "ym2612"
    },
    {
      "channel": 5,
      "note": 54,
      "start": 6.0276,
      "duration": 0.0929,
      "velocity": 79,
      "chip": "ym2612"
    },
    {
      "channel": 0,
      "note": 75,
      "start": 6.0753,
      "duration": 0.0916,
      "velocity": 127,
      "chip": "ym2612"
    },
    {
      "channel": 1,
      "note": 88,
      "start": 6.0756,
      "duration": 0.1147,
      "velocity": 105,
      "chip": "ym2612"
    },
    {
      "channel": 3,
      "note": 50,
      "start": 6.0759,
      "duration": 0.1847,
      "velocity": 101,
      "chip": "ym2612"
    },
    {
      "channel": 4,
      "note": 59,
      "start": 6.0762,
      "duration": 0.0925,
      "velocity": 82,
      "chip": "ym2612"
    },
    {
      "channel": 5,
      "note": 61,
      "start": 6.121,
      "duration": 0.0928,
      "velocity": 79,
      "chip": "ym2612"
    },
    {
      "channel": 0,
      "note": 66,
      "start": 6.1686,
      "duration": 0.185,
      "velocity": 127,
      "chip": "ym2612"
    },
    {
      "channel": 4,
      "note": 56,
      "start": 6.1691,
      "duration": 0.092,
      "velocity": 82,
      "chip": "ym2612"
    },
    {
      "channel": 5,
      "note": 59,
      "start": 6.2141,
      "duration": 0.093,
      "velocity": 79,
      "chip": "ym2612"
    },
    {
      "channel": 1,
      "note": 84,
      "start": 6.2605,
      "duration": 0.0231,
      "velocity": 105,
      "chip": "ym2612"
    },
    {
      "channel": 3,
      "note": 48,
      "start": 6.261,
      "duration": 0.0946,
      "velocity": 101,
      "chip": "ym2612"
    },
    {
      "channel": 4,
      "note": 59,
      "start": 6.2614,
      "duration": 0.0944,
      "velocity": 82,
      "chip": "ym2612"
    },
    {
      "channel": 5,
      "note": 56,
      "start": 6.3074,
      "duration": 0.093,
      "velocity": 79,
      "chip": "ym2612"
    },
    {
      "channel": 0,
      "note": 53,
      "start": 6.3552,
      "duration": 0.0917,
      "velocity": 127,
      "chip": "ym2612"
    },
    {
      "channel": 2,
      "note": 50,
      "start": 6.3555,
      "duration": 0.0932,
      "velocity": 127,
      "chip": "ym2612"
    },
    {
      "channel": 3,
      "note": 50,
      "start": 6.3558,
      "duration": 0.1867,
      "velocity": 101,
      "chip": "ym2612"
    },
    {
      "channel": 4,
      "note": 56,
      "start": 6.3561,
      "duration": 0.0926,
      "velocity": 82,
      "chip": "ym2612"
    },
    {
      "channel": 5,
      "note": 59,
      "start": 6.401,
      "duration": 0.0927,
      "velocity": 79,
      "chip": "ym2612"
    },
    {
      "channel": 0,
      "note": 75,
      "start": 6.4485,
      "duration": 0.0917,
      "velocity": 127,
      "chip": "ym2612"
    },
    {
      "channel": 4,
      "note": 54,
      "start": 6.4491,
      "duration": 0.0936,
      "velocity": 82,
      "chip": "ym2612"
    },
    {
      "channel": 5,
      "note": 56,
      "start": 6.494,
      "duration": 0.093,
      "velocity": 79,
      "chip": "ym2612"
    },
    {
      "channel": 0,
      "note": 66,
      "start": 6.5422,
      "duration": 0.1847,
      "velocity": 127,
      "chip": "ym2612"
    },
    {
      "channel": 1,
      "note": 84,
      "start": 6.5424,
      "duration": 0.0212,
      "velocity": 105,
      "chip": "ym2612"
    },
    {
      "channel": 3,
      "note": 48,
      "start": 6.5427,
      "duration": 0.0914,
      "velocity": 101,
      "chip": "ym2612"
    },
    {
      "channel": 4,
      "note": 56,
      "start": 6.543,
      "duration": 0.0913,
      "velocity": 82,
      "chip": "ym2612"
    },
    {
      "channel": 5,
      "note": 54,
      "start": 6.5873,
      "duration": 0.093,
      "velocity": 79,
      "chip": "ym2612"
    },
    {
      "channel": 1,
      "note": 88,
      "start": 6.6338,
      "duration": 0.0231,
      "velocity": 105,
      "chip": "ym2612"
    },
    {
      "channel": 2,
      "note": 50,
      "start": 6.634,
      "duration": 0.0946,
      "velocity": 127,
      "chip": "ym2612"
    },
    {
      "channel": 3,
      "note": 50,
      "start": 6.6342,
      "duration": 0.1883,
      "velocity": 101,
      "chip": "ym2612"
    },
    {
      "channel": 4,
      "note": 54,
      "start": 6.6346,
      "duration": 0.094,
      "velocity": 82,
      "chip": "ym2612"
    },
    {
      "channel": 5,
      "note": 56,
      "start": 6.6807,
      "duration": 0.093,
      "velocity": 79,
      "chip": "ym2612"
    },
    {
      "channel": 0,
      "note": 53,
      "start": 6.7285,
      "duration": 0.0916,
      "velocity": 127,
      "chip": "ym2612"
    },
    {
      "channel": 4,
      "note": 52,
      "start": 6.729,
      "duration": 0.0939,
      "velocity": 82,
      "chip": "ym2612"
    },
    {
      "channel": 5,
      "note": 54,
      "start": 6.774,
      "duration": 0.0929,
      "velocity": 79,
      "chip": "ym2612"
    },
    {
      "channel": 0,
      "note": 75,
      "start": 6.822,
      "duration": 0.0914,
      "velocity": 127,
      "chip": "ym2612"
    },
    {
      "channel": 1,
      "note": 81,
      "start": 6.8223,
      "duration": 0.0212,
      "velocity": 105,
      "chip": "ym2612"
    },
    {
      "channel": 2,
      "note": 50,
      "start": 6.8225,
      "duration": 0.0929,
      "velocity": 127,
      "chip": "ym2612"
    },
    {
      "channel": 3,
      "note": 48,
      "start": 6.8228,
      "duration": 0.0927,
      "velocity": 101,
      "chip": "ym2612"
    },
    {
      "channel": 4,
      "note": 54,
      "start": 6.8232,
      "duration": 0.0926,
      "velocity": 82,
      "chip": "ym2612"
    },
    {
      "channel": 5,
      "note": 52,
      "start": 6.8673,
      "duration": 0.093,
      "velocity": 79,
      "chip": "ym2612"
    },
    {
      "channel": 0,
      "note": 66,
      "start": 6.9151,
      "duration": 0.185,
      "velocity": 127,
      "chip": "ym2612"
    },
    {
      "channel": 1,
      "note": 81,
      "start": 6.9154,
      "duration": 0.0214,
      "velocity": 105,
      "chip": "ym2612"
    },
    {
      "channel": 3,
      "note": 50,
      "start": 6.9157,
      "duration": 0.1866,
      "velocity": 101,
      "chip": "ym2612"
    },
    {
      "channel": 4,
      "note": 52,
      "start": 6.9161,
      "duration": 0.091,
      "velocity": 82,
      "chip": "ym2612"
    },
    {
      "channel": 5,
      "note": 54,
      "start": 6.9606,
      "duration": 0.093,
      "velocity": 79,
      "chip": "ym2612"
    },
    {
      "channel": 1,
      "note": 81,
      "start": 7.007,
      "duration": 0.0231,
      "velocity": 105,
      "chip": "ym2612"
    },
    {
      "channel": 4,
      "note": 49,
      "start": 7.0074,
      "duration": 0.0952,
      "velocity": 82,
      "chip": "ym2612"
    },
    {
      "channel": 5,
      "note": 52,
      "start": 7.0539,
      "duration": 0.093,
      "velocity": 79,
      "chip": "ym2612"
    },
    {
      "channel": 0,
      "note": 53,
      "start": 7.102,
      "duration": 0.0914,
      "velocity": 127,
      "chip": "ym2612"
    },
    {
      "channel": 2,
      "note": 50,
      "start": 7.1023,
      "duration": 0.0929,
      "velocity": 127,
      "chip": "ym2612"
    },
    {
      "channel": 3,
      "note": 48,
      "start": 7.1025,
      "duration": 0.0927,
      "velocity": 101,
      "chip": "ym2612"
    },
    {
      "channel": 4,
      "note": 47,
      "start": 7.1029,
      "duration": 0.0926,
      "velocity": 82,
      "chip": "ym2612"
    },
    {
      "channel": 5,
      "note": 49,
      "start": 7.1473,
      "duration": 0.0929,
      "velocity": 79,
      "chip": "ym2612"
    },
    {
      "channel": 0,
      "note": 75,
      "start": 7.195,
      "duration": 0.0917,
      "velocity": 127,
      "chip": "ym2612"
    },
    {
      "channel": 3,
      "note": 50,
      "start": 7.1954,
      "duration": 0.0932,
      "velocity": 101,
      "chip": "ym2612"
    },
    {
      "channel": 4,
      "note": 49,
      "start": 7.1958,
      "duration": 0.0931,
      "velocity": 82,
      "chip": "ym2612"
    },
    {
      "channel": 5,
      "note": 47,
      "start": 7.2405,
      "duration": 0.093,
      "velocity": 79,
      "chip": "ym2612"
    },
    {
      "channel": 0,
      "note": 66,
      "start": 7.2883,
      "duration": 0.185,
      "velocity": 127,
      "chip": "ym2612"
    },
    {
      "channel": 1,
      "note": 84,
      "start": 7.2886,
      "duration": 0.0214,
      "velocity": 105,
      "chip": "ym2612"
    },
    {
      "channel": 3,
      "note": 53,
      "start": 7.2888,
      "duration": 0.0917,
      "velocity": 101,
      "chip": "ym2612"
    },
    {
      "channel": 4,
      "note": 52,
      "start": 7.2892,
      "duration": 0.0918,
      "velocity": 82,
      "chip": "ym2612"
    },
    {
      "channel": 5,
      "note": 49,
      "start": 7.3338,
      "duration": 0.093,
      "velocity": 79,
      "chip": "ym2612"
    },
    {
      "channel": 1,
      "note": 88,
      "start": 7.3802,
      "duration": 0.0231,
      "velocity": 105,
      "chip": "ym2612"
    },
    {
      "channel": 2,
      "note": 50,
      "start": 7.3805,
      "duration": 0.0949,
      "velocity": 127,
      "chip": "ym2612"
    },
    {
      "channel": 3,
      "note": 55,
      "start": 7.381,
      "duration": 0.0944,
      "velocity": 101,
      "chip": "ym2612"
    },
    {
      "channel": 4,
      "note": 54,
      "start": 7.3814,
      "duration": 0.0943,
      "velocity": 82,
      "chip": "ym2612"
    },
    {
      "channel": 5,
      "note": 52,
      "start": 7.4272,
      "duration": 0.0931,
      "velocity": 79,
      "chip": "ym2612"
    },
    {
      "channel": 0,
      "note": 53,
      "start": 7.475,
      "duration": 0.0916,
      "velocity": 127,
      "chip": "ym2612"
    },
    {
      "channel": 1,
      "note": 84,
      "start": 7.4753,
      "duration": 0.0214,
      "velocity": 105,
      "chip": "ym2612"
    },
    {
      "channel": 3,
      "note": 48,
      "start": 7.4756,
      "duration": 0.0932,
      "velocity": 101,
      "chip": "ym2612"
    },
    {
      "channel": 4,
      "note": 61,
      "start": 7.476,
      "duration": 0.0931,
      "velocity": 82,
      "chip": "ym2612"
    },
    {
      "channel": 5,
      "note": 54,
      "start": 7.5206,
      "duration": 0.0929,
      "velocity": 79,
      "chip": "ym2612"
    },
    {
      "channel": 0,
      "note": 75,
      "start": 7.5683,
      "duration": 0.0917,
      "velocity": 127,
      "chip": "ym2612"
    },
    {
      "channel": 1,
      "note": 88,
      "start": 7.5686,
      "duration": 0.1147,
      "velocity": 105,
      "chip": "ym2612"
    },
    {
      "channel": 2,
      "note": 50,
      "start": 7.5688,
      "duration": 0.0932,
      "velocity": 127,
      "chip": "ym2612"
    },
    {
      "channel": 3,
      "note": 50,
      "start": 7.5691,
      "duration": 0.1845,
      "velocity": 101,
      "chip": "ym2612"
    },
    {
      "channel": 4,
      "note": 59,
      "start": 7.5694,
      "duration": 0.0926,
      "velocity": 82,
      "chip": "ym2612"
    },
    {
      "channel": 5,
      "note": 61,
      "start": 7.6137,
      "duration": 0.093,
      "velocity": 79,
      "chip": "ym2612"
    },
    {
      "channel": 0,
      "note": 66,
      "start": 7.6619,
      "duration": 0.1847,
      "velocity": 127,
      "chip": "ym2612"
    },
    {
      "channel": 4,
      "note": 56,
      "start": 7.6624,
      "duration": 0.0914,
      "velocity": 82,
      "chip": "ym2612"
    },
    {
      "channel": 5,
      "note": 59,
      "start": 7.7071,
      "duration": 0.093,
      "velocity": 79,
      "chip": "ym2612"
    },
    {
      "channel": 1,
      "note": 84,
      "start": 7.7535,
      "duration": 0.0231,
      "velocity": 105,
      "chip": "ym2612"
    },
    {
      "channel": 3,
      "note": 48,
      "start": 7.7537,
      "duration": 0.0948,
      "velocity": 101,
      "chip": "ym2612"
    },
    {
      "channel": 4,
      "note": 59,
      "start": 7.7541,
      "duration": 0.0947,
      "velocity": 82,
      "chip": "ym2612"
    },
    {
      "channel": 5,
      "note": 56,
      "start": 7.8004,
      "duration": 0.093,
      "velocity": 79,
      "chip": "ym2612"
    },
    {
      "channel": 0,
      "note": 53,
      "start": 7.8482,
      "duration": 0.0917,
      "velocity": 127,
      "chip": "ym2612"
    },
    {
      "channel": 2,
      "note": 50,
      "start": 7.8485,
      "duration": 0.0934,
      "velocity": 127,
      "chip": "ym2612"
    },
    {
      "channel": 3,
      "note": 50,
      "start": 7.8488,
      "duration": 0.1864,
      "velocity": 101,
      "chip": "ym2612"
    },
    {
      "channel": 4,
      "note": 56,
      "start": 7.8491,
      "duration": 0.0929,
      "velocity": 82,
      "chip": "ym2612"
    },
    {
      "channel": 5,
      "note": 59,
      "start": 7.8938,
      "duration": 0.0929,
      "velocity": 79,
      "chip": "ym2612"
    },
    {
      "channel": 0,
      "note": 75,
      "start": 7.9418,
      "duration": 0.0914,
      "velocity": 127,
      "chip": "ym2612"
    },
    {
      "channel": 4,
      "note": 54,
      "start": 7.9424,
      "duration": 0.093,
      "velocity": 82,
      "chip": "ym2612"
    },
    {
      "channel": 5,
      "note": 56,
      "start": 7.987,
      "duration": 0.093,
      "velocity": 79,
      "chip": "ym2612"
    },
    {
      "channel": 0,
      "note": 66,
      "start": 8.0349,
      "duration": 0.185,
      "velocity": 127,
      "chip": "ym2612"
    },
    {
      "channel": 1,
      "note": 84,
      "start": 8.0351,
      "duration": 0.0214,
      "velocity": 105,
      "chip": "ym2612"
    },
    {
      "channel": 3,
      "note": 48,
      "start": 8.0354,
      "duration": 0.0917,
      "velocity": 101,
      "chip": "ym2612"
    },
    {
      "channel": 4,
      "note": 56,
      "start": 8.0357,
      "duration": 0.0916,
      "velocity": 82,
      "chip": "ym2612"
    },
    {
      "channel": 5,
      "note": 54,
      "start": 8.0803,
      "duration": 0.093,
      "velocity": 79,
      "chip": "ym2612"
    },
    {
      "channel": 1,
      "note": 88,
      "start": 8.1267,
      "duration": 0.0231,
      "velocity": 105,
      "chip": "ym2612"
    },
    {
      "channel": 2,
      "note": 50,
      "start": 8.127,
      "duration": 0.0949,
      "velocity": 127,
      "chip": "ym2612"
    },
    {
      "channel": 3,
      "note": 50,
      "start": 8.1272,
      "duration": 0.1881,
      "velocity": 101,
      "chip": "ym2612"
    },
    {
      "channel": 4,
      "note": 54,
      "start": 8.1276,
      "duration": 0.0943,
      "velocity": 82,
      "chip": "ym2612"
    },
    {
      "channel": 5,
      "note": 56,
      "start": 8.1737,
      "duration": 0.093,
      "velocity": 79,
      "chip": "ym2612"
    },
    {
      "channel": 0,
      "note": 53,
      "start": 8.2217,
      "duration": 0.0914,
      "velocity": 127,
      "chip": "ym2612"
    },
    {
      "channel": 4,
      "note": 52,
      "start": 8.2222,
      "duration": 0.0934,
      "velocity": 82,
      "chip": "ym2612"
    },
    {
      "channel": 5,
      "note": 54,
      "start": 8.267,
      "duration": 0.0929,
      "velocity": 79,
      "chip": "ym2612"
    },
    {
      "channel": 0,
      "note": 75,
      "start": 8.3148,
      "duration": 0.0917,
      "velocity": 127,
      "chip": "ym2612"
    },
    {
      "channel": 1,
      "note": 81,
      "start": 8.315,
      "duration": 0.0214,
      "velocity": 105,
      "chip": "ym2612"
    },
    {
      "channel": 2,
      "note": 50,
      "start": 8.3153,
      "duration": 0.0932,
      "velocity": 127,
      "chip": "ym2612"
    },
    {
      "channel": 3,
      "note": 48,
      "start": 8.3155,
      "duration": 0.093,
      "velocity": 101,
      "chip": "ym2612"
    },
    {
      "channel": 4,
      "note": 54,
      "start": 8.3159,
      "duration": 0.0929,
      "velocity": 82,
      "chip": "ym2612"
    },
    {
      "channel": 5,
      "note": 52,
      "start": 8.3603,
      "duration": 0.093,
      "velocity": 79,
      "chip": "ym2612"
    },
    {
      "channel": 0,
      "note": 66,
      "start": 8.4081,
      "duration": 0.1849,
      "velocity": 127,
      "chip": "ym2612"
    },
    {
      "channel": 1,
      "note": 81,
      "start": 8.4084,
      "duration": 0.0214,
      "velocity": 105,
      "chip": "ym2612"
    },
    {
      "channel": 3,
      "note": 50,
      "start": 8.4087,
      "duration": 0.1863,
      "velocity": 101,
      "chip": "ym2612"
    },
    {
      "channel": 4,
      "note": 52,
      "start": 8.4091,
      "duration": 0.091,
      "velocity": 82,
      "chip": "ym2612"
    },
    {
      "channel": 5,
      "note": 54,
      "start": 8.4536,
      "duration": 0.093,
      "velocity": 79,
      "chip": "ym2612"
    },
    {
      "channel": 1,
      "note": 81,
      "start": 8.5,
      "duration": 0.0231,
      "velocity": 105,
      "chip": "ym2612"
    },
    {
      "channel": 4,
      "note": 49,
      "start": 8.5004,
      "duration": 0.0949,
      "velocity": 82,
      "chip": "ym2612"
    },
    {
      "channel": 5,
      "note": 52,
      "start": 8.5469,
      "duration": 0.093,
      "velocity": 79,
      "chip": "ym2612"
    },
    {
      "channel": 0,
      "note": 53,
      "start": 8.5947,
      "duration": 0.0916,
      "velocity": 127,
      "chip": "ym2612"
    },
    {
      "channel": 2,
      "note": 50,
      "start": 8.595,
      "duration": 0.0932,
      "velocity": 127,
      "chip": "ym2612"
    },
    {
      "channel": 3,
      "note": 48,
      "start": 8.5953,
      "duration": 0.093,
      "velocity": 101,
      "chip": "ym2612"
    },
    {
      "channel": 4,
      "note": 47,
      "start": 8.5956,
      "duration": 0.0928,
      "velocity": 82,
      "chip": "ym2612"
    },
    {
      "channel": 5,
      "note": 49,
      "start": 8.6403,
      "duration": 0.0929,
      "velocity": 79,
      "chip": "ym2612"
    },
    {
      "channel": 0,
      "note": 75,
      "start": 8.688,
      "duration": 0.0917,
      "velocity": 127,
      "chip": "ym2612"
    },
    {
      "channel": 3,
      "note": 50,
      "start": 8.6884,
      "duration": 0.0935,
      "velocity": 101,
      "chip": "ym2612"
    },
    {
      "channel": 4,
      "note": 49,
      "start": 8.6888,
      "duration": 0.0934,
      "velocity": 82,
      "chip": "ym2612"
    },
    {
      "channel": 5,
      "note": 47,
      "start": 8.7335,
      "duration": 0.093,
      "velocity": 79,
      "chip": "ym2612"
    },
    {
      "channel": 0,
      "note": 66,
      "start": 8.7816,
      "duration": 0.1847,
      "velocity": 127,
      "chip": "ym2612"
    },
    {
      "channel": 1,
      "note": 84,
      "start": 8.7818,
      "duration": 0.0212,
      "velocity": 105,
      "chip": "ym2612"
    },
    {
      "channel": 3,
      "note": 53,
      "start": 8.7821,
      "duration": 0.0915,
      "velocity": 101,
      "chip": "ym2612"
    },
    {
      "channel": 4,
      "note": 52,
      "start": 8.7825,
      "duration": 0.0913,
      "velocity": 82,
      "chip": "ym2612"
    },
    {
      "channel": 5,
      "note": 49,
      "start": 8.8268,
      "duration": 0.093,
      "velocity": 79,
      "chip": "ym2612"
    },
    {
      "channel": 1,
      "note": 88,
      "start": 8.8732,
      "duration": 0.0231,
      "velocity": 105,
      "chip": "ym2612"
    },
    {
      "channel": 2,
      "note": 50,
      "start": 8.8735,
      "duration": 0.0948,
      "velocity": 127,
      "chip": "ym2612"
    },
    {
      "channel": 3,
      "note": 55,
      "start": 8.8737,
      "duration": 0.0946,
      "velocity": 101,
      "chip": "ym2612"
    },
    {
      "channel": 4,
      "note": 54,
      "start": 8.8741,
      "duration": 0.0945,
      "velocity": 82,
      "chip": "ym2612"
    },
    {
      "channel": 5,
      "note": 52,
      "start": 8.9201,
      "duration": 0.0931,
      "velocity": 79,
      "chip": "ym2612"
    },
    {
      "channel": 0,
      "note": 53,
      "start": 8.968,
      "duration": 0.0916,
      "velocity": 127,
      "chip": "ym2612"
    },
    {
      "channel": 1,
      "note": 84,
      "start": 8.9683,
      "duration": 0.0215,
      "velocity": 105,
      "chip": "ym2612"
    },
    {
      "channel": 3,
      "note": 48,
      "start": 8.9686,
      "duration": 0.0933,
      "velocity": 101,
      "chip": "ym2612"
    },
    {
      "channel": 4,
      "note": 61,
      "start": 8.969,
      "duration": 0.0932,
      "velocity": 82,
      "chip": "ym2612"
    },
    {
      "channel": 5,
      "note": 54,
      "start": 9.0136,
      "duration": 0.0928,
      "velocity": 79,
      "chip": "ym2612"
    },
    {
      "channel": 0,
      "note": 75,
      "start": 9.0615,
      "duration": 0.0914,
      "velocity": 127,
      "chip": "ym2612"
    },
    {
      "channel": 1,
      "note": 88,
      "start": 9.0618,
      "duration": 0.1144,
      "velocity": 105,
      "chip": "ym2612"
    },
    {
      "channel": 3,
      "note": 50,
      "start": 9.0621,
      "duration": 0.1845,
      "velocity": 101,
      "chip": "ym2612"
    },
    {
      "channel": 4,
      "note": 59,
      "start": 9.0624,
      "duration": 0.0923,
      "velocity": 82,
      "chip": "ym2612"
    },
    {
      "channel": 5,
      "note": 61,
      "start": 9.1067,
      "duration": 0.0931,
      "velocity": 79,
      "chip": "ym2612"
    },
    {
      "channel": 0,
      "note": 66,
      "start": 9.1546,
      "duration": 0.1849,
      "velocity": 127,
      "chip": "ym2612"
    },
    {
      "channel": 4,
      "note": 56,
      "start": 9.1551,
      "duration": 0.0917,
      "velocity": 82,
      "chip": "ym2612"
    },
    {
      "channel": 5,
      "note": 59,
      "start": 9.2001,
      "duration": 0.0929,
      "velocity": 79,
      "chip": "ym2612"
    },
    {
      "channel": 1,
      "note": 84,
      "start": 9.2465,
      "duration": 0.0231,
      "velocity": 105,
      "chip": "ym2612"
    },
    {
      "channel": 3,
      "note": 48,
      "start": 9.2467,
      "duration": 0.0951,
      "velocity": 101,
      "chip": "ym2612"
    },
    {
      "channel": 4,
      "note": 59,
      "start": 9.2471,
      "duration": 0.095,
      "velocity": 82,
      "chip": "ym2612"
    },
    {
      "channel": 5,
      "note": 56,
      "start": 9.2934,
      "duration": 0.093,
      "velocity": 79,
      "chip": "ym2612"
    },
    {
      "channel": 0,
      "note": 53,
      "start": 9.3415,
      "duration": 0.0914,
      "velocity": 127,
      "chip": "ym2612"
    },
    {
      "channel": 2,
      "note": 50,
      "start": 9.3418,
      "duration": 0.0929,
      "velocity": 127,
      "chip": "ym2612"
    },
    {
      "channel": 3,
      "note": 50,
      "start": 9.3421,
      "duration": 0.1861,
      "velocity": 101,
      "chip": "ym2612"
    },
    {
      "channel": 4,
      "note": 56,
      "start": 9.3424,
      "duration": 0.0923,
      "velocity": 82,
      "chip": "ym2612"
    },
    {
      "channel": 5,
      "note": 59,
      "start": 9.3868,
      "duration": 0.0929,
      "velocity": 79,
      "chip": "ym2612"
    },
    {
      "channel": 0,
      "note": 75,
      "start": 9.4345,
      "duration": 0.0917,
      "velocity": 127,
      "chip": "ym2612"
    },
    {
      "channel": 4,
      "note": 54,
      "start": 9.4351,
      "duration": 0.0933,
      "velocity": 82,
      "chip": "ym2612"
    },
    {
      "channel": 5,
      "note": 56,
      "start": 9.48,
      "duration": 0.093,
      "velocity": 79,
      "chip": "ym2612"
    },
    {
      "channel": 0,
      "note": 66,
      "start": 9.5278,
      "duration": 0.185,
      "velocity": 127,
      "chip": "ym2612"
    },
    {
      "channel": 1,
      "note": 84,
      "start": 9.5281,
      "duration": 0.0214,
      "velocity": 105,
      "chip": "ym2612"
    },
    {
      "channel": 3,
      "note": 48,
      "start": 9.5283,
      "duration": 0.0917,
      "velocity": 101,
      "chip": "ym2612"
    },
    {
      "channel": 4,
      "note": 56,
      "start": 9.5287,
      "duration": 0.0916,
      "velocity": 82,
      "chip": "ym2612"
    },
    {
      "channel": 5,
      "note": 54,
      "start": 9.5733,
      "duration": 0.093,
      "velocity": 79,
      "chip": "ym2612"
    },
    {
      "channel": 1,
      "note": 88,
      "start": 9.6197,
      "duration": 0.0231,
      "velocity": 105,
      "chip": "ym2612"
    },
    {
      "channel": 2,
      "note": 50,
      "start": 9.62,
      "duration": 0.0946,
      "velocity": 127,
      "chip": "ym2612"
    },
    {
      "channel": 3,
      "note": 50,
      "start": 9.6202,
      "duration": 0.1881,
      "velocity": 101,
      "chip": "ym2612"
    },
    {
      "channel": 4,
      "note": 54,
      "start": 9.6206,
      "duration": 0.094,
      "velocity": 82,
      "chip": "ym2612"
    },
    {
      "channel": 5,
      "note": 56,
      "start": 9.6666,
      "duration": 0.093,
      "velocity": 79,
      "chip": "ym2612"
    },
    {
      "channel": 0,
      "note": 53,
      "start": 9.7145,
      "duration": 0.0917,
      "velocity": 127,
      "chip": "ym2612"
    },
    {
      "channel": 4,
      "note": 52,
      "start": 9.715,
      "duration": 0.0936,
      "velocity": 82,
      "chip": "ym2612"
    },
    {
      "channel": 5,
      "note": 54,
      "start": 9.76,
      "duration": 0.0929,
      "velocity": 79,
      "chip": "ym2612"
    },
    {
      "channel": 0,
      "note": 75,
      "start": 9.8078,
      "duration": 0.0917,
      "velocity": 127,
      "chip": "ym2612"
    },
    {
      "channel": 1,
      "note": 81,
      "start": 9.808,
      "duration": 0.0214,
      "velocity": 105,
      "chip": "ym2612"
    },
    {
      "channel": 2,
      "note": 50,
      "start": 9.8083,
      "duration": 0.0934,
      "velocity": 127,
      "chip": "ym2612"
    },
    {
      "channel": 3,
      "note": 48,
      "start": 9.8085,
      "duration": 0.0934,
      "velocity": 101,
      "chip": "ym2612"
    },
    {
      "channel": 4,
      "note": 54,
      "start": 9.8089,
      "duration": 0.0933,
      "velocity": 82,
      "chip": "ym2612"
    },
    {
      "channel": 5,
      "note": 52,
      "start": 9.8533,
      "duration": 0.093,
      "velocity": 79,
      "chip": "ym2612"
    },
    {
      "channel": 0,
      "note": 66,
      "start": 9.9013,
      "duration": 0.1847,
      "velocity": 127,
      "chip": "ym2612"
    },
    {
      "channel": 1,
      "note": 81,
      "start": 9.9016,
      "duration": 0.0211,
      "velocity": 105,
      "chip": "ym2612"
    },
    {
      "channel": 2,
      "note": 50,
      "start": 9.9019,
      "duration": 0.0911,
      "velocity": 127,
      "chip": "ym2612"
    },
    {
      "channel": 3,
      "note": 50,
      "start": 9.9022,
      "duration": 0.1857,
      "velocity": 101,
      "chip": "ym2612"
    },
    {
      "channel": 4,
      "note": 52,
      "start": 9.9025,
      "duration": 0.0908,
      "velocity": 82,
      "chip": "ym2612"
    },
    {
      "channel": 5,
      "note": 54,
      "start": 9.9466,
      "duration": 0.093,
      "velocity": 79,
      "chip": "ym2612"
    },
    {
      "channel": 1,
      "note": 81,
      "start": 9.993,
      "duration": 0.0231,
      "velocity": 105,
      "chip": "ym2612"
    },
    {
      "channel": 2,
      "note": 50,
      "start": 9.9933,
      "duration": 0.0946,
      "velocity": 127,
      "chip": "ym2612"
    },
    {
      "channel": 4,
      "note": 49,
      "start": 9.9937,
      "duration": 0.0945,
      "velocity": 82,
      "chip": "ym2612"
    },
    {
      "channel": 5,
      "note": 52,
      "start": 10.0399,
      "duration": 0.093,
      "velocity": 79,
      "chip": "ym2612"
    },
    {
      "channel": 0,
      "note": 53,
      "start": 10.0877,
      "duration": 0.0917,
      "velocity": 127,
      "chip": "ym2612"
    },
    {
      "channel": 3,
      "note": 48,
      "start": 10.0881,
      "duration": 0.0936,
      "velocity": 101,
      "chip": "ym2612"
    },
    {
      "channel": 4,
      "note": 47,
      "start": 10.0884,
      "duration": 0.0935,
      "velocity": 82,
      "chip": "ym2612"
    },
    {
      "channel": 5,
      "note": 49,
      "start": 10.1332,
      "duration": 0.0929,
      "velocity": 79,
      "chip": "ym2612"
    },
    {
      "channel": 0,
      "note": 75,
      "start": 10.1813,
      "duration": 0.0914,
      "velocity": 127,
      "chip": "ym2612"
    },
    {
      "channel": 2,
      "note": 50,
      "start": 10.1816,
      "duration": 0.093,
      "velocity": 127,
      "chip": "ym2612"
    },
    {
      "channel": 3,
      "note": 50,
      "start": 10.1819,
      "duration": 0.0931,
      "velocity": 101,
      "chip": "ym2612"
    },
    {
      "channel": 4,
      "note": 49,
      "start": 10.1822,
      "duration": 0.0929,
      "velocity": 82,
      "chip": "ym2612"
    },
    {
      "channel": 5,
      "note": 47,
      "start": 10.2265,
      "duration": 0.093,
      "velocity": 79,
      "chip": "ym2612"
    },
    {
      "channel": 0,
      "note": 66,
      "start": 10.2743,
      "duration": 0.185,
      "velocity": 127,
      "chip": "ym2612"
    },
    {
      "channel": 1,
      "note": 84,
      "start": 10.2746,
      "duration": 0.0214,
      "velocity": 105,
      "chip": "ym2612"
    },
    {
      "channel": 2,
      "note": 50,
      "start": 10.2749,
      "duration": 0.0914,
      "velocity": 127,
      "chip": "ym2612"
    },
    {
      "channel": 3,
      "note": 53,
      "start": 10.2751,
      "duration": 0.0914,
      "velocity": 101,
      "chip": "ym2612"
    },
    {
      "channel": 4,
      "note": 52,
      "start": 10.2755,
      "duration": 0.0913,
      "velocity": 82,
      "chip": "ym2612"
    },
    {
      "channel": 5,
      "note": 49,
      "start": 10.3198,
      "duration": 0.093,
      "velocity": 79,
      "chip": "ym2612"
    },
    {
      "channel": 1,
      "note": 88,
      "start": 10.3662,
      "duration": 0.0231,
      "velocity": 105,
      "chip": "ym2612"
    },
    {
      "channel": 2,
      "note": 50,
      "start": 10.3665,
      "duration": 0.0948,
      "velocity": 127,
      "chip": "ym2612"
    },
    {
      "channel": 3,
      "note": 55,
      "start": 10.3668,
      "duration": 0.0946,
      "velocity": 101,
      "chip": "ym2612"
    },
    {
      "channel": 4,
      "note": 54,
      "start": 10.3671,
      "duration": 0.096,
      "velocity": 82,
      "chip": "ym2612"
    },
    {
      "channel": 5,
      "note": 52,
      "start": 10.4131,
      "duration": 0.093,
      "velocity": 79,
      "chip": "ym2612"
    },
    {
      "channel": 0,
      "note": 32,
      "start": 10.4612,
      "duration": 0.3713,
      "velocity": 127,
      "chip": "ym2612"
    },
    {
      "channel": 3,
      "note": 50,
      "start": 10.463,
      "duration": 1.4941,
      "velocity": 90,
      "chip": "ym2612"
    },
    {
      "channel": 5,
      "note": 54,
      "start": 10.5065,
      "duration": 0.093,
      "velocity": 79,
      "chip": "ym2612"
    },
    {
      "channel": 0,
      "note": 66,
      "start": 10.8342,
      "duration": 0.3716,
      "velocity": 127,
      "chip": "ym2612"
    },
    {
      "channel": 0,
      "note": 66,
      "start": 11.206,
      "duration": 0.373,
      "velocity": 127,
      "chip": "ym2612"
    },
    {
      "channel": 0,
      "note": 66,
      "start": 11.5793,
      "duration": 0.373,
      "velocity": 127,
      "chip": "ym2612"
    },
    {
      "channel": 0,
      "note": 32,
      "start": 11.954,
      "duration": 0.3716,
      "velocity": 127,
      "chip": "ym2612"
    },
    {
      "channel": 1,
      "note": 45,
      "start": 11.9556,
      "duration": 0.0201,
      "velocity": 127,
      "chip": "ym2612"
    },
    {
      "channel": 3,
      "note": 36,
      "start": 11.9588,
      "duration": 0.3676,
      "velocity": 105,
      "chip": "ym2612"
    },
    {
      "channel": 4,
      "note": 48,
      "start": 11.9605,
      "duration": 0.3661,
      "velocity": 105,
      "chip": "ym2612"
    },
    {
      "channel": 1,
      "note": 45,
      "start": 12.0459,
      "duration": 0.0231,
      "velocity": 127,
      "chip": "ym2612"
    },
    {
      "channel": 1,
      "note": 45,
      "start": 12.1393,
      "duration": 0.0231,
      "velocity": 127,
      "chip": "ym2612"
    },
    {
      "channel": 1,
      "note": 45,
      "start": 12.2326,
      "duration": 0.0231,
      "velocity": 127,
      "chip": "ym2612"
    },
    {
      "channel": 0,
      "note": 32,
      "start": 12.3258,
      "duration": 0.373,
      "velocity": 127,
      "chip": "ym2612"
    },
    {
      "channel": 1,
      "note": 45,
      "start": 12.3261,
      "duration": 0.0229,
      "velocity": 127,
      "chip": "ym2612"
    },
    {
      "channel": 2,
      "note": 86,
      "start": 12.3263,
      "duration": 0.0227,
      "velocity": 105,
      "chip": "ym2612"
    },
    {
      "channel": 3,
      "note": 43,
      "start": 12.3266,
      "duration": 0.3731,
      "velocity": 105,
      "chip": "ym2612"
    },
    {
      "channel": 4,
      "note": 55,
      "start": 12.3269,
      "duration": 0.373,
      "velocity": 105,
      "chip": "ym2612"
    },
    {
      "channel": 1,
      "note": 45,
      "start": 12.4192,
      "duration": 0.0231,
      "velocity": 127,
      "chip": "ym2612"
    },
    {
      "channel": 2,
      "note": 81,
      "start": 12.4195,
      "duration": 0.0229,
      "velocity": 105,
      "chip": "ym2612"
    },
    {
      "channel": 1,
      "note": 45,
      "start": 12.5125,
      "duration": 0.0231,
      "velocity": 127,
      "chip": "ym2612"
    },
    {
      "channel": 2,
      "note": 86,
      "start": 12.5128,
      "duration": 0.0229,
      "velocity": 105,
      "chip": "ym2612"
    },
    {
      "channel": 1,
      "note": 45,
      "start": 12.6058,
      "duration": 0.0231,
      "velocity": 127,
      "chip": "ym2612"
    },
    {
      "channel": 2,
      "note": 81,
      "start": 12.6061,
      "duration": 0.0229,
      "velocity": 105,
      "chip": "ym2612"
    },
    {
      "channel": 0,
      "note": 32,
      "start": 12.699,
      "duration": 0.373,
      "velocity": 127,
      "chip": "ym2612"
    },
    {
      "channel": 1,
      "note": 45,
      "start": 12.6993,
      "duration": 0.0229,
      "velocity": 127,
      "chip": "ym2612"
    },
    {
      "channel": 2,
      "note": 86,
      "start": 12.6996,
      "duration": 0.0227,
      "velocity": 105,
      "chip": "ym2612"
    },
    {
      "channel": 3,
      "note": 64,
      "start": 12.6999,
      "duration": 0.373,
      "velocity": 105,
      "chip": "ym2612"
    },
    {
      "channel": 4,
      "note": 76,
      "start": 12.7002,
      "duration": 0.373,
      "velocity": 105,
      "chip": "ym2612"
    },
    {
      "channel": 1,
      "note": 45,
      "start": 12.7924,
      "duration": 0.0231,
      "velocity": 127,
      "chip": "ym2612"
    },
    {
      "channel": 2,
      "note": 90,
      "start": 12.7927,
      "duration": 0.1162,
      "velocity": 105,
      "chip": "ym2612"
    },
    {
      "channel": 1,
      "note": 45,
      "start": 12.8858,
      "duration": 0.0231,
      "velocity": 127,
      "chip": "ym2612"
    },
    {
      "channel": 1,
      "note": 45,
      "start": 12.9791,
      "duration": 0.0231,
      "velocity": 127,
      "chip": "ym2612"
    },
    {
      "channel": 2,
      "note": 86,
      "start": 12.9793,
      "duration": 0.0229,
      "velocity": 105,
      "chip": "ym2612"
    },
    {
      "channel": 0,
      "note": 32,
      "start": 13.0723,
      "duration": 0.373,
      "velocity": 127,
      "chip": "ym2612"
    },
    {
      "channel": 1,
      "note": 45,
      "start": 13.0726,
      "duration": 0.0229,
      "velocity": 127,
      "chip": "ym2612"
    },
    {
      "channel": 2,
      "note": 90,
      "start": 13.0729,
      "duration": 0.116,
      "velocity": 105,
      "chip": "ym2612"
    },
    {
      "channel": 3,
      "note": 69,
      "start": 13.0731,
      "duration": 0.3773,
      "velocity": 105,
      "chip": "ym2612"
    },
    {
      "channel": 4,
      "note": 81,
      "start": 13.0734,
      "duration": 0.379,
      "velocity": 105,
      "chip": "ym2612"
    },
    {
      "channel": 1,
      "note": 45,
      "start": 13.1657,
      "duration": 0.0231,
      "velocity": 127,
      "chip": "ym2612"
    },
    {
      "channel": 1,
      "note": 45,
      "start": 13.259,
      "duration": 0.0231,
      "velocity": 127,
      "chip": "ym2612"
    },
    {
      "channel": 2,
      "note": 86,
      "start": 13.2593,
      "duration": 0.1162,
      "velocity": 105,
      "chip": "ym2612"
    },
    {
      "channel": 1,
      "note": 45,
      "start": 13.3523,
      "duration": 0.0231,
      "velocity": 127,
      "chip": "ym2612"
    },
    {
      "channel": 0,
      "note": 53,
      "start": 13.447,
      "duration": 0.0916,
      "velocity": 127,
      "chip": "ym2612"
    },
    {
      "channel": 1,
      "note": 43,
      "start": 13.4487,
      "duration": 0.0278,
      "velocity": 127,
      "chip": "ym2612"
    },
    {
      "channel": 2,
      "note": 50,
      "start": 13.4504,
      "duration": 0.0261,
      "velocity": 127,
      "chip": "ym2612"
    },
    {
      "channel": 3,
      "note": 48,
      "start": 13.4524,
      "duration": 0.0887,
      "velocity": 94,
      "chip": "ym2612"
    },
    {
      "channel": 4,
      "note": 98,
      "start": 13.4541,
      "duration": 0.0146,
      "velocity": 97,
      "chip": "ym2612"
    },
    {
      "channel": 5,
      "note": 38,
      "start": 13.4558,
      "duration": 0.3659,
      "velocity": 90,
      "chip": "ym2612"
    },
    {
      "channel": 0,
      "note": 75,
      "start": 13.5402,
      "duration": 0.0917,
      "velocity": 127,
      "chip": "ym2612"
    },
    {
      "channel": 1,
      "note": 43,
      "start": 13.5405,
      "duration": 0.0292,
      "velocity": 127,
      "chip": "ym2612"
    },
    {
      "channel": 2,
      "note": 50,
      "start": 13.5411,
      "duration": 0.0287,
      "velocity": 127,
      "chip": "ym2612"
    },
    {
      "channel": 3,
      "note": 50,
      "start": 13.5414,
      "duration": 0.1845,
      "velocity": 94,
      "chip": "ym2612"
    },
    {
      "channel": 4,
      "note": 98,
      "start": 13.5417,
      "duration": 0.0202,
      "velocity": 97,
      "chip": "ym2612"
    },
    {
      "channel": 0,
      "note": 66,
      "start": 13.6336,
      "duration": 0.185,
      "velocity": 127,
      "chip": "ym2612"
    },
    {
      "channel": 1,
      "note": 43,
      "start": 13.6339,
      "duration": 0.0292,
      "velocity": 127,
      "chip": "ym2612"
    },
    {
      "channel": 2,
      "note": 50,
      "start": 13.6341,
      "duration": 0.0289,
      "velocity": 127,
      "chip": "ym2612"
    },
    {
      "channel": 4,
      "note": 110,
      "start": 13.6345,
      "duration": 0.0208,
      "velocity": 97,
      "chip": "ym2612"
    },
    {
      "channel": 1,
      "note": 43,
      "start": 13.7255,
      "duration": 0.0309,
      "velocity": 127,
      "chip": "ym2612"
    },
    {
      "channel": 2,
      "note": 50,
      "start": 13.7258,
      "duration": 0.0306,
      "velocity": 127,
      "chip": "ym2612"
    },
    {
      "channel": 3,
      "note": 48,
      "start": 13.726,
      "duration": 0.0951,
      "velocity": 94,
      "chip": "ym2612"
    },
    {
      "channel": 4,
      "note": 98,
      "start": 13.7263,
      "duration": 0.0222,
      "velocity": 97,
      "chip": "ym2612"
    },
    {
      "channel": 0,
      "note": 53,
      "start": 13.8202,
      "duration": 0.0916,
      "velocity": 127,
      "chip": "ym2612"
    },
    {
      "channel": 1,
      "note": 43,
      "start": 13.8205,
      "duration": 0.0292,
      "velocity": 127,
      "chip": "ym2612"
    },
    {
      "channel": 2,
      "note": 50,
      "start": 13.821,
      "duration": 0.0288,
      "velocity": 127,
      "chip": "ym2612"
    },
    {
      "channel": 3,
      "note": 50,
      "start": 13.8213,
      "duration": 0.1862,
      "velocity": 94,
      "chip": "ym2612"
    },
    {
      "channel": 4,
      "note": 98,
      "start": 13.8216,
      "duration": 0.0203,
      "velocity": 97,
      "chip": "ym2612"
    },
    {
      "channel": 5,
      "note": 31,
      "start": 13.822,
      "duration": 0.2776,
      "velocity": 90,
      "chip": "ym2612"
    },
    {
      "channel": 0,
      "note": 75,
      "start": 13.9135,
      "duration": 0.0916,
      "velocity": 127,
      "chip": "ym2612"
    },
    {
      "channel": 1,
      "note": 43,
      "start": 13.9138,
      "duration": 0.0291,
      "velocity": 127,
      "chip": "ym2612"
    },
    {
      "channel": 2,
      "note": 50,
      "start": 13.9141,
      "duration": 0.0289,
      "velocity": 127,
      "chip": "ym2612"
    },
    {
      "channel": 4,
      "note": 98,
      "start": 13.9144,
      "duration": 0.0208,
      "velocity": 97,
      "chip": "ym2612"
    },
    {
      "channel": 0,
      "note": 66,
      "start": 14.0068,
      "duration": 0.185,
      "velocity": 127,
      "chip": "ym2612"
    },
    {
      "channel": 1,
      "note": 43,
      "start": 14.0071,
      "duration": 0.0291,
      "velocity": 127,
      "chip": "ym2612"
    },
    {
      "channel": 2,
      "note": 50,
      "start": 14.0074,
      "duration": 0.0289,
      "velocity": 127,
      "chip": "ym2612"
    },
    {
      "channel": 3,
      "note": 48,
      "start": 14.0076,
      "duration": 0.0914,
      "velocity": 94,
      "chip": "ym2612"
    },
    {
      "channel": 4,
      "note": 110,
      "start": 14.008,
      "duration": 0.0205,
      "velocity": 97,
      "chip": "ym2612"
    },
    {
      "channel": 1,
      "note": 43,
      "start": 14.0987,
      "duration": 0.0309,
      "velocity": 127,
      "chip": "ym2612"
    },
    {
      "channel": 2,
      "note": 50,
      "start": 14.099,
      "duration": 0.0306,
      "velocity": 127,
      "chip": "ym2612"
    },
    {
      "channel": 3,
      "note": 50,
      "start": 14.0993,
      "duration": 0.1881,
      "velocity": 94,
      "chip": "ym2612"
    },
    {
      "channel": 4,
      "note": 98,
      "start": 14.0996,
      "duration": 0.0222,
      "velocity": 97,
      "chip": "ym2612"
    },
    {
      "channel": 5,
      "note": 33,
      "start": 14.1,
      "duration": 0.2816,
      "velocity": 90,
      "chip": "ym2612"
    },
    {
      "channel": 0,
      "note": 53,
      "start": 14.1934,
      "duration": 0.0917,
      "velocity": 127,
      "chip": "ym2612"
    },
    {
      "channel": 1,
      "note": 43,
      "start": 14.1937,
      "duration": 0.0293,
      "velocity": 127,
      "chip": "ym2612"
    },
    {
      "channel": 2,
      "note": 50,
      "start": 14.194,
      "duration": 0.029,
      "velocity": 127,
      "chip": "ym2612"
    },
    {
      "channel": 4,
      "note": 98,
      "start": 14.1944,
      "duration": 0.0208,
      "velocity": 97,
      "chip": "ym2612"
    },
    {
      "channel": 0,
      "note": 75,
      "start": 14.2868,
      "duration": 0.0917,
      "velocity": 127,
      "chip": "ym2612"
    },
    {
      "channel": 1,
      "note": 43,
      "start": 14.2871,
      "duration": 0.0292,
      "velocity": 127,
      "chip": "ym2612"
    },
    {
      "channel": 2,
      "note": 50,
      "start": 14.2873,
      "duration": 0.0289,
      "velocity": 127,
      "chip": "ym2612"
    },
    {
      "channel": 3,
      "note": 48,
      "start": 14.2876,
      "duration": 0.0933,
      "velocity": 94,
      "chip": "ym2612"
    },
    {
      "channel": 4,
      "note": 98,
      "start": 14.2879,
      "duration": 0.0205,
      "velocity": 97,
      "chip": "ym2612"
    },
    {
      "channel": 0,
      "note": 66,
      "start": 14.3801,
      "duration": 0.185,
      "velocity": 127,
      "chip": "ym2612"
    },
    {
      "channel": 1,
      "note": 43,
      "start": 14.3803,
      "duration": 0.0292,
      "velocity": 127,
      "chip": "ym2612"
    },
    {
      "channel": 2,
      "note": 50,
      "start": 14.3806,
      "duration": 0.0289,
      "velocity": 127,
      "chip": "ym2612"
    },
    {
      "channel": 3,
      "note": 50,
      "start": 14.3811,
      "duration": 0.1862,
      "velocity": 94,
      "chip": "ym2612"
    },
    {
      "channel": 4,
      "note": 110,
      "start": 14.3815,
      "duration": 0.0203,
      "velocity": 97,
      "chip": "ym2612"
    },
    {
      "channel": 5,
      "note": 36,
      "start": 14.3818,
      "duration": 0.1861,
      "velocity": 90,
      "chip": "ym2612"
    },
    {
      "channel": 1,
      "note": 43,
      "start": 14.472,
      "duration": 0.0309,
      "velocity": 127,
      "chip": "ym2612"
    },
    {
      "channel": 2,
      "note": 50,
      "start": 14.4723,
      "duration": 0.0306,
      "velocity": 127,
      "chip": "ym2612"
    },
    {
      "channel": 4,
      "note": 98,
      "start": 14.4726,
      "duration": 0.0225,
      "velocity": 97,
      "chip": "ym2612"
    },
    {
      "channel": 0,
      "note": 53,
      "start": 14.5667,
      "duration": 0.0917,
      "velocity": 127,
      "chip": "ym2612"
    },
    {
      "channel": 1,
      "note": 43,
      "start": 14.567,
      "duration": 0.0293,
      "velocity": 127,
      "chip": "ym2612"
    },
    {
      "channel": 2,
      "note": 50,
      "start": 14.5673,
      "duration": 0.029,
      "velocity": 127,
      "chip": "ym2612"
    },
    {
      "channel": 3,
      "note": 48,
      "start": 14.5675,
      "duration": 0.0931,
      "velocity": 94,
      "chip": "ym2612"
    },
    {
      "channel": 4,
      "note": 98,
      "start": 14.5679,
      "duration": 0.0206,
      "velocity": 97,
      "chip": "ym2612"
    },
    {
      "channel": 5,
      "note": 38,
      "start": 14.5683,
      "duration": 0.1863,
      "velocity": 90,
      "chip": "ym2612"
    },
    {
      "channel": 0,
      "note": 75,
      "start": 14.66,
      "duration": 0.0917,
      "velocity": 127,
      "chip": "ym2612"
    },
    {
      "channel": 1,
      "note": 43,
      "start": 14.6603,
      "duration": 0.0292,
      "velocity": 127,
      "chip": "ym2612"
    },
    {
      "channel": 2,
      "note": 50,
      "start": 14.6606,
      "duration": 0.0289,
      "velocity": 127,
      "chip": "ym2612"
    },
    {
      "channel": 3,
      "note": 50,
      "start": 14.6611,
      "duration": 0.0929,
      "velocity": 94,
      "chip": "ym2612"
    },
    {
      "channel": 4,
      "note": 98,
      "start": 14.6614,
      "duration": 0.0203,
      "velocity": 97,
      "chip": "ym2612"
    },
    {
      "channel": 0,
      "note": 66,
      "start": 14.7533,
      "duration": 0.185,
      "velocity": 127,
      "chip": "ym2612"
    },
    {
      "channel": 1,
      "note": 44,
      "start": 14.7536,
      "duration": 0.1225,
      "velocity": 127,
      "chip": "ym2612"
    },
    {
      "channel": 2,
      "note": 51,
      "start": 14.7539,
      "duration": 0.1222,
      "velocity": 127,
      "chip": "ym2612"
    },
    {
      "channel": 3,
      "note": 53,
      "start": 14.7541,
      "duration": 0.0908,
      "velocity": 94,
      "chip": "ym2612"
    },
    {
      "channel": 4,
      "note": 110,
      "start": 14.7545,
      "duration": 0.0205,
      "velocity": 97,
      "chip": "ym2612"
    },
    {
      "channel": 5,
      "note": 41,
      "start": 14.7549,
      "duration": 0.1866,
      "velocity": 90,
      "chip": "ym2612"
    },
    {
      "channel": 3,
      "note": 55,
      "start": 14.8452,
      "duration": 0.0954,
      "velocity": 94,
      "chip": "ym2612"
    },
    {
      "channel": 4,
      "note": 98,
      "start": 14.8455,
      "duration": 0.0228,
      "velocity": 97,
      "chip": "ym2612"
    },
    {
      "channel": 0,
      "note": 53,
      "start": 14.94,
      "duration": 0.0916,
      "velocity": 127,
      "chip": "ym2612"
    },
    {
      "channel": 1,
      "note": 43,
      "start": 14.9402,
      "duration": 0.0292,
      "velocity": 127,
      "chip": "ym2612"
    },
    {
      "channel": 2,
      "note": 50,
      "start": 14.9405,
      "duration": 0.029,
      "velocity": 127,
      "chip": "ym2612"
    },
    {
      "channel": 3,
      "note": 48,
      "start": 14.941,
      "duration": 0.0928,
      "velocity": 94,
      "chip": "ym2612"
    },
    {
      "channel": 4,
      "note": 98,
      "start": 14.9414,
      "duration": 0.0203,
      "velocity": 97,
      "chip": "ym2612"
    },
    {
      "channel": 5,
      "note": 38,
      "start": 14.9418,
      "duration": 0.3727,
      "velocity": 90,
      "chip": "ym2612"
    },
    {
      "channel": 0,
      "note": 75,
      "start": 15.0332,
      "duration": 0.0917,
      "velocity": 127,
      "chip": "ym2612"
    },
    {
      "channel": 1,
      "note": 43,
      "start": 15.0335,
      "duration": 0.0292,
      "velocity": 127,
      "chip": "ym2612"
    },
    {
      "channel": 2,
      "note": 50,
      "start": 15.0338,
      "duration": 0.0289,
      "velocity": 127,
      "chip": "ym2612"
    },
    {
      "channel": 3,
      "note": 50,
      "start": 15.0341,
      "duration": 0.1847,
      "velocity": 94,
      "chip": "ym2612"
    },
    {
      "channel": 4,
      "note": 98,
      "start": 15.0344,
      "duration": 0.0206,
      "velocity": 97,
      "chip": "ym2612"
    },
    {
      "channel": 0,
      "note": 66,
      "start": 15.1266,
      "duration": 0.185,
      "velocity": 127,
      "chip": "ym2612"
    },
    {
      "channel": 1,
      "note": 43,
      "start": 15.1268,
      "duration": 0.0292,
      "velocity": 127,
      "chip": "ym2612"
    },
    {
      "channel": 2,
      "note": 50,
      "start": 15.1271,
      "duration": 0.0289,
      "velocity": 127,
      "chip": "ym2612"
    },
    {
      "channel": 4,
      "note": 110,
      "start": 15.1275,
      "duration": 0.0208,
      "velocity": 97,
      "chip": "ym2612"
    },
    {
      "channel": 1,
      "note": 43,
      "start": 15.2185,
      "duration": 0.0309,
      "velocity": 127,
      "chip": "ym2612"
    },
    {
      "channel": 2,
      "note": 50,
      "start": 15.2188,
      "duration": 0.0306,
      "velocity": 127,
      "chip": "ym2612"
    },
    {
      "channel": 3,
      "note": 48,
      "start": 15.219,
      "duration": 0.0948,
      "velocity": 94,
      "chip": "ym2612"
    },
    {
      "channel": 4,
      "note": 98,
      "start": 15.2193,
      "duration": 0.0222,
      "velocity": 97,
      "chip": "ym2612"
    },
    {
      "channel": 0,
      "note": 53,
      "start": 15.3132,
      "duration": 0.0916,
      "velocity": 127,
      "chip": "ym2612"
    },
    {
      "channel": 1,
      "note": 43,
      "start": 15.3135,
      "duration": 0.0292,
      "velocity": 127,
      "chip": "ym2612"
    },
    {
      "channel": 2,
      "note": 50,
      "start": 15.3138,
      "duration": 0.029,
      "velocity": 127,
      "chip": "ym2612"
    },
    {
      "channel": 3,
      "note": 50,
      "start": 15.314,
      "duration": 0.1864,
      "velocity": 94,
      "chip": "ym2612"
    },
    {
      "channel": 4,
      "note": 98,
      "start": 15.3144,
      "duration": 0.0206,
      "velocity": 97,
      "chip": "ym2612"
    },
    {
      "channel": 5,
      "note": 31,
      "start": 15.3147,
      "duration": 0.2779,
      "velocity": 90,
      "chip": "ym2612"
    },
    {
      "channel": 0,
      "note": 75,
      "start": 15.4065,
      "duration": 0.0917,
      "velocity": 127,
      "chip": "ym2612"
    },
    {
      "channel": 1,
      "note": 43,
      "start": 15.4068,
      "duration": 0.0292,
      "velocity": 127,
      "chip": "ym2612"
    },
    {
      "channel": 2,
      "note": 50,
      "start": 15.4071,
      "duration": 0.0289,
      "velocity": 127,
      "chip": "ym2612"
    },
    {
      "channel": 4,
      "note": 98,
      "start": 15.4074,
      "duration": 0.0208,
      "velocity": 97,
      "chip": "ym2612"
    },
    {
      "channel": 0,
      "note": 66,
      "start": 15.4998,
      "duration": 0.1849,
      "velocity": 127,
      "chip": "ym2612"
    },
    {
      "channel": 1,
      "note": 43,
      "start": 15.5001,
      "duration": 0.0291,
      "velocity": 127,
      "chip": "ym2612"
    },
    {
      "channel": 2,
      "note": 50,
      "start": 15.5004,
      "duration": 0.0289,
      "velocity": 127,
      "chip": "ym2612"
    },
    {
      "channel": 3,
      "note": 48,
      "start": 15.5006,
      "duration": 0.0914,
      "velocity": 94,
      "chip": "ym2612"
    },
    {
      "channel": 4,
      "note": 110,
      "start": 15.5012,
      "duration": 0.0203,
      "velocity": 97,
      "chip": "ym2612"
    },
    {
      "channel": 1,
      "note": 43,
      "start": 15.5917,
      "duration": 0.0309,
      "velocity": 127,
      "chip": "ym2612"
    },
    {
      "channel": 2,
      "note": 50,
      "start": 15.592,
      "duration": 0.0306,
      "velocity": 127,
      "chip": "ym2612"
    },
    {
      "channel": 3,
      "note": 50,
      "start": 15.5922,
      "duration": 0.1881,
      "velocity": 94,
      "chip": "ym2612"
    },
    {
      "channel": 4,
      "note": 98,
      "start": 15.5926,
      "duration": 0.0222,
      "velocity": 97,
      "chip": "ym2612"
    },
    {
      "channel": 5,
      "note": 33,
      "start": 15.5929,
      "duration": 0.2813,
      "velocity": 90,
      "chip": "ym2612"
    },
    {
      "channel": 0,
      "note": 53,
      "start": 15.6864,
      "duration": 0.0917,
      "velocity": 127,
      "chip": "ym2612"
    },
    {
      "channel": 1,
      "note": 43,
      "start": 15.6867,
      "duration": 0.0293,
      "velocity": 127,
      "chip": "ym2612"
    },
    {
      "channel": 2,
      "note": 50,
      "start": 15.687,
      "duration": 0.029,
      "velocity": 127,
      "chip": "ym2612"
    },
    {
      "channel": 4,
      "note": 98,
      "start": 15.6874,
      "duration": 0.0208,
      "velocity": 97,
      "chip": "ym2612"
    },
    {
      "channel": 0,
      "note": 75,
      "start": 15.7798,
      "duration": 0.0917,
      "velocity": 127,
      "chip": "ym2612"
    },
    {
      "channel": 1,
      "note": 43,
      "start": 15.78,
      "duration": 0.0292,
      "velocity": 127,
      "chip": "ym2612"
    },
    {
      "channel": 2,
      "note": 50,
      "start": 15.7803,
      "duration": 0.0289,
      "velocity": 127,
      "chip": "ym2612"
    },
    {
      "channel": 3,
      "note": 48,
      "start": 15.7806,
      "duration": 0.0931,
      "velocity": 94,
      "chip": "ym2612"
    },
    {
      "channel": 4,
      "note": 98,
      "start": 15.7812,
      "duration": 0.0203,
      "velocity": 97,
      "chip": "ym2612"
    },
    {
      "channel": 0,
      "note": 66,
      "start": 15.8731,
      "duration": 0.185,
      "velocity": 127,
      "chip": "ym2612"
    },
    {
      "channel": 1,
      "note": 43,
      "start": 15.8733,
      "duration": 0.0292,
      "velocity": 127,
      "chip": "ym2612"
    },
    {
      "channel": 2,
      "note": 50,
      "start": 15.8736,
      "duration": 0.0289,
      "velocity": 127,
      "chip": "ym2612"
    },
    {
      "channel": 3,
      "note": 50,
      "start": 15.8739,
      "duration": 0.1865,
      "velocity": 94,
      "chip": "ym2612"
    },
    {
      "channel": 4,
      "note": 110,
      "start": 15.8742,
      "duration": 0.0205,
      "velocity": 97,
      "chip": "ym2612"
    },
    {
      "channel": 5,
      "note": 36,
      "start": 15.8746,
      "duration": 0.1866,
      "velocity": 90,
      "chip": "ym2612"
    },
    {
      "channel": 1,
      "note": 43,
      "start": 15.965,
      "duration": 0.0309,
      "velocity": 127,
      "chip": "ym2612"
    },
    {
      "channel": 2,
      "note": 50,
      "start": 15.9653,
      "duration": 0.0306,
      "velocity": 127,
      "chip": "ym2612"
    },
    {
      "channel": 4,
      "note": 98,
      "start": 15.9656,
      "duration": 0.0225,
      "velocity": 97,
      "chip": "ym2612"
    },
    {
      "channel": 0,
      "note": 53,
      "start": 16.0597,
      "duration": 0.0916,
      "velocity": 127,
      "chip": "ym2612"
    },
    {
      "channel": 1,
      "note": 43,
      "start": 16.06,
      "duration": 0.0292,
      "velocity": 127,
      "chip": "ym2612"
    },
    {
      "channel": 2,
      "note": 50,
      "start": 16.0603,
      "duration": 0.029,
      "velocity": 127,
      "chip": "ym2612"
    },
    {
      "channel": 3,
      "note": 48,
      "start": 16.0606,
      "duration": 0.0931,
      "velocity": 94,
      "chip": "ym2612"
    },
    {
      "channel": 4,
      "note": 98,
      "start": 16.0612,
      "duration": 0.0203,
      "velocity": 97,
      "chip": "ym2612"
    },
    {
      "channel": 5,
      "note": 38,
      "start": 16.0615,
      "duration": 0.186,
      "velocity": 90,
      "chip": "ym2612"
    },
    {
      "channel": 0,
      "note": 75,
      "start": 16.153,
      "duration": 0.0917,
      "velocity": 127,
      "chip": "ym2612"
    },
    {
      "channel": 1,
      "note": 43,
      "start": 16.1533,
      "duration": 0.0292,
      "velocity": 127,
      "chip": "ym2612"
    },
    {
      "channel": 2,
      "note": 50,
      "start": 16.1536,
      "duration": 0.0289,
      "velocity": 127,
      "chip": "ym2612"
    },
    {
      "channel": 3,
      "note": 50,
      "start": 16.1538,
      "duration": 0.0931,
      "velocity": 94,
      "chip": "ym2612"
    },
    {
      "channel": 4,
      "note": 98,
      "start": 16.1541,
      "duration": 0.0206,
      "velocity": 97,
      "chip": "ym2612"
    },
    {
      "channel": 0,
      "note": 66,
      "start": 16.2463,
      "duration": 0.185,
      "velocity": 127,
      "chip": "ym2612"
    },
    {
      "channel": 1,
      "note": 41,
      "start": 16.2466,
      "duration": 0.1225,
      "velocity": 127,
      "chip": "ym2612"
    },
    {
      "channel": 2,
      "note": 48,
      "start": 16.2469,
      "duration": 0.1222,
      "velocity": 127,
      "chip": "ym2612"
    },
    {
      "channel": 3,
      "note": 53,
      "start": 16.2471,
      "duration": 0.0908,
      "velocity": 94,
      "chip": "ym2612"
    },
    {
      "channel": 4,
      "note": 110,
      "start": 16.2475,
      "duration": 0.0205,
      "velocity": 97,
      "chip": "ym2612"
    },
    {
      "channel": 5,
      "note": 41,
      "start": 16.2478,
      "duration": 0.1863,
      "velocity": 90,
      "chip": "ym2612"
    },
    {
      "channel": 3,
      "note": 55,
      "start": 16.3382,
      "duration": 0.0954,
      "velocity": 94,
      "chip": "ym2612"
    },
    {
      "channel": 4,
      "note": 98,
      "start": 16.3385,
      "duration": 0.0228,
      "velocity": 97,
      "chip": "ym2612"
    },
    {
      "channel": 0,
      "note": 53,
      "start": 16.4329,
      "duration": 0.0916,
      "velocity": 127,
      "chip": "ym2612"
    },
    {
      "channel": 1,
      "note": 43,
      "start": 16.4332,
      "duration": 0.0292,
      "velocity": 127,
      "chip": "ym2612"
    },
    {
      "channel": 2,
      "note": 50,
      "start": 16.4335,
      "duration": 0.029,
      "velocity": 127,
      "chip": "ym2612"
    },
    {
      "channel": 3,
      "note": 48,
      "start": 16.4338,
      "duration": 0.0931,
      "velocity": 94,
      "chip": "ym2612"
    },
    {
      "channel": 4,
      "note": 98,
      "start": 16.4341,
      "duration": 0.0206,
      "velocity": 97,
      "chip": "ym2612"
    },
    {
      "channel": 5,
      "note": 38,
      "start": 16.4345,
      "duration": 0.3729,
      "velocity": 90,
      "chip": "ym2612"
    },
    {
      "channel": 0,
      "note": 75,
      "start": 16.5263,
      "duration": 0.0916,
      "velocity": 127,
      "chip": "ym2612"
    },
    {
      "channel": 1,
      "note": 43,
      "start": 16.5266,
      "duration": 0.0291,
      "velocity": 127,
      "chip": "ym2612"
    },
    {
      "channel": 2,
      "note": 50,
      "start": 16.5268,
      "duration": 0.0289,
      "velocity": 127,
      "chip": "ym2612"
    },
    {
      "channel": 3,
      "note": 50,
      "start": 16.5271,
      "duration": 0.1847,
      "velocity": 94,
      "chip": "ym2612"
    },
    {
      "channel": 4,
      "note": 98,
      "start": 16.5274,
      "duration": 0.0205,
      "velocity": 97,
      "chip": "ym2612"
    },
    {
      "channel": 0,
      "note": 66,
      "start": 16.6195,
      "duration": 0.185,
      "velocity": 127,
      "chip": "ym2612"
    },
    {
      "channel": 1,
      "note": 43,
      "start": 16.6198,
      "duration": 0.0292,
      "velocity": 127,
      "chip": "ym2612"
    },
    {
      "channel": 2,
      "note": 50,
      "start": 16.6201,
      "duration": 0.0289,
      "velocity": 127,
      "chip": "ym2612"
    },
    {
      "channel": 4,
      "note": 110,
      "start": 16.6205,
      "duration": 0.0208,
      "velocity": 97,
      "chip": "ym2612"
    },
    {
      "channel": 1,
      "note": 43,
      "start": 16.7115,
      "duration": 0.0309,
      "velocity": 127,
      "chip": "ym2612"
    },
    {
      "channel": 2,
      "note": 50,
      "start": 16.7117,
      "duration": 0.0306,
      "velocity": 127,
      "chip": "ym2612"
    },
    {
      "channel": 3,
      "note": 48,
      "start": 16.712,
      "duration": 0.0948,
      "velocity": 94,
      "chip": "ym2612"
    },
    {
      "channel": 4,
      "note": 98,
      "start": 16.7123,
      "duration": 0.0222,
      "velocity": 97,
      "chip": "ym2612"
    },
    {
      "channel": 0,
      "note": 53,
      "start": 16.8062,
      "duration": 0.0916,
      "velocity": 127,
      "chip": "ym2612"
    },
    {
      "channel": 1,
      "note": 43,
      "start": 16.8065,
      "duration": 0.0292,
      "velocity": 127,
      "chip": "ym2612"
    },
    {
      "channel": 2,
      "note": 50,
      "start": 16.8068,
      "duration": 0.029,
      "velocity": 127,
      "chip": "ym2612"
    },
    {
      "channel": 3,
      "note": 50,
      "start": 16.807,
      "duration": 0.1864,
      "velocity": 94,
      "chip": "ym2612"
    },
    {
      "channel": 4,
      "note": 98,
      "start": 16.8074,
      "duration": 0.0206,
      "velocity": 97,
      "chip": "ym2612"
    },
    {
      "channel": 5,
      "note": 31,
      "start": 16.8077,
      "duration": 0.2779,
      "velocity": 90,
      "chip": "ym2612"
    },
    {
      "channel": 0,
      "note": 75,
      "start": 16.8995,
      "duration": 0.0917,
      "velocity": 127,
      "chip": "ym2612"
    },
    {
      "channel": 1,
      "note": 43,
      "start": 16.8998,
      "duration": 0.0292,
      "velocity": 127,
      "chip": "ym2612"
    },
    {
      "channel": 2,
      "note": 50,
      "start": 16.9001,
      "duration": 0.0289,
      "velocity": 127,
      "chip": "ym2612"
    },
    {
      "channel": 4,
      "note": 98,
      "start": 16.9004,
      "duration": 0.0208,
      "velocity": 97,
      "chip": "ym2612"
    },
    {
      "channel": 0,
      "note": 66,
      "start": 16.9928,
      "duration": 0.1849,
      "velocity": 127,
      "chip": "ym2612"
    },
    {
      "channel": 1,
      "note": 43,
      "start": 16.9931,
      "duration": 0.0291,
      "velocity": 127,
      "chip": "ym2612"
    },
    {
      "channel": 2,
      "note": 50,
      "start": 16.9934,
      "duration": 0.0289,
      "velocity": 127,
      "chip": "ym2612"
    },
    {
      "channel": 3,
      "note": 48,
      "start": 16.9937,
      "duration": 0.0914,
      "velocity": 94,
      "chip": "ym2612"
    },
    {
      "channel": 4,
      "note": 110,
      "start": 16.994,
      "duration": 0.0205,
      "velocity": 97,
      "chip": "ym2612"
    },
    {
      "channel": 1,
      "note": 43,
      "start": 17.0847,
      "duration": 0.0309,
      "velocity": 127,
      "chip": "ym2612"
    },
    {
      "channel": 2,
      "note": 50,
      "start": 17.085,
      "duration": 0.0306,
      "velocity": 127,
      "chip": "ym2612"
    },
    {
      "channel": 3,
      "note": 50,
      "start": 17.0852,
      "duration": 0.1881,
      "velocity": 94,
      "chip": "ym2612"
    },
    {
      "channel": 4,
      "note": 98,
      "start": 17.0856,
      "duration": 0.0222,
      "velocity": 97,
      "chip": "ym2612"
    },
    {
      "channel": 5,
      "note": 33,
      "start": 17.0859,
      "duration": 0.2813,
      "velocity": 90,
      "chip": "ym2612"
    },
    {
      "channel": 0,
      "note": 53,
      "start": 17.1794,
      "duration": 0.0917,
      "velocity": 127,
      "chip": "ym2612"
    },
    {
      "channel": 1,
      "note": 43,
      "start": 17.1797,
      "duration": 0.0293,
      "velocity": 127,
      "chip": "ym2612"
    },
    {
      "channel": 2,
      "note": 50,
      "start": 17.18,
      "duration": 0.029,
      "velocity": 127,
      "chip": "ym2612"
    },
    {
      "channel": 4,
      "note": 98,
      "start": 17.1804,
      "duration": 0.0208,
      "velocity": 97,
      "chip": "ym2612"
    },
    {
      "channel": 0,
      "note": 75,
      "start": 17.2727,
      "duration": 0.0917,
      "velocity": 127,
      "chip": "ym2612"
    },
    {
      "channel": 1,
      "note": 43,
      "start": 17.273,
      "duration": 0.0291,
      "velocity": 127,
      "chip": "ym2612"
    },
    {
      "channel": 2,
      "note": 50,
      "start": 17.2733,
      "duration": 0.0289,
      "velocity": 127,
      "chip": "ym2612"
    },
    {
      "channel": 3,
      "note": 48,
      "start": 17.2736,
      "duration": 0.0931,
      "velocity": 94,
      "chip": "ym2612"
    },
    {
      "channel": 4,
      "note": 98,
      "start": 17.2739,
      "duration": 0.0205,
      "velocity": 97,
      "chip": "ym2612"
    },
    {
      "channel": 0,
      "note": 66,
      "start": 17.3661,
      "duration": 0.185,
      "velocity": 127,
      "chip": "ym2612"
    },
    {
      "channel": 1,
      "note": 43,
      "start": 17.3663,
      "duration": 0.0292,
      "velocity": 127,
      "chip": "ym2612"
    },
    {
      "channel": 2,
      "note": 50,
      "start": 17.3666,
      "duration": 0.0289,
      "velocity": 127,
      "chip": "ym2612"
    },
    {
      "channel": 3,
      "note": 50,
      "start": 17.3669,
      "duration": 0.1865,
      "velocity": 94,
      "chip": "ym2612"
    },
    {
      "channel": 4,
      "note": 110,
      "start": 17.3672,
      "duration": 0.0206,
      "velocity": 97,
      "chip": "ym2612"
    },
    {
      "channel": 5,
      "note": 36,
      "start": 17.3676,
      "duration": 0.1863,
      "velocity": 90,
      "chip": "ym2612"
    },
    {
      "channel": 1,
      "note": 43,
      "start": 17.458,
      "duration": 0.0308,
      "velocity": 127,
      "chip": "ym2612"
    },
    {
      "channel": 2,
      "note": 50,
      "start": 17.4583,
      "duration": 0.0306,
      "velocity": 127,
      "chip": "ym2612"
    },
    {
      "channel": 4,
      "note": 98,
      "start": 17.4586,
      "duration": 0.0224,
      "velocity": 97,
      "chip": "ym2612"
    },
    {
      "channel": 0,
      "note": 53,
      "start": 17.5527,
      "duration": 0.0917,
      "velocity": 127,
      "chip": "ym2612"
    },
    {
      "channel": 1,
      "note": 43,
      "start": 17.553,
      "duration": 0.0293,
      "velocity": 127,
      "chip": "ym2612"
    },
    {
      "channel": 2,
      "note": 50,
      "start": 17.5533,
      "duration": 0.029,
      "velocity": 127,
      "chip": "ym2612"
    },
    {
      "channel": 3,
      "note": 48,
      "start": 17.5535,
      "duration": 0.0931,
      "velocity": 94,
      "chip": "ym2612"
    },
    {
      "channel": 4,
      "note": 98,
      "start": 17.5539,
      "duration": 0.0206,
      "velocity": 97,
      "chip": "ym2612"
    },
    {
      "channel": 5,
      "note": 38,
      "start": 17.5542,
      "duration": 0.1863,
      "velocity": 90,
      "chip": "ym2612"
    },
    {
      "channel": 0,
      "note": 75,
      "start": 17.646,
      "duration": 0.0917,
      "velocity": 127,
      "chip": "ym2612"
    },
    {
      "channel": 1,
      "note": 43,
      "start": 17.6463,
      "duration": 0.0292,
      "velocity": 127,
      "chip": "ym2612"
    },
    {
      "channel": 2,
      "note": 50,
      "start": 17.6466,
      "duration": 0.0289,
      "velocity": 127,
      "chip": "ym2612"
    },
    {
      "channel": 3,
      "note": 50,
      "start": 17.6468,
      "duration": 0.0931,
      "velocity": 94,
      "chip": "ym2612"
    },
    {
      "channel": 4,
      "note": 98,
      "start": 17.6471,
      "duration": 0.0205,
      "velocity": 97,
      "chip": "ym2612"
    },
    {
      "channel": 0,
      "note": 66,
      "start": 17.7393,
      "duration": 0.185,
      "velocity": 127,
      "chip": "ym2612"
    },
    {
      "channel": 1,
      "note": 44,
      "start": 17.7396,
      "duration": 0.1225,
      "velocity": 127,
      "chip": "ym2612"
    },
    {
      "channel": 2,
      "note": 51,
      "start": 17.7399,
      "duration": 0.1222,
      "velocity": 127,
      "chip": "ym2612"
    },
    {
      "channel": 3,
      "note": 53,
      "start": 17.7401,
      "duration": 0.0909,
      "velocity": 94,
      "chip": "ym2612"
    },
    {
      "channel": 4,
      "note": 110,
      "start": 17.7405,
      "duration": 0.0206,
      "velocity": 97,
      "chip": "ym2612"
    },
    {
      "channel": 5,
      "note": 41,
      "start": 17.7411,
      "duration": 0.1861,
      "velocity": 90,
      "chip": "ym2612"
    },
    {
      "channel": 3,
      "note": 55,
      "start": 17.8312,
      "duration": 0.0954,
      "velocity": 94,
      "chip": "ym2612"
    },
    {
      "channel": 4,
      "note": 98,
      "start": 17.8316,
      "duration": 0.0227,
      "velocity": 97,
      "chip": "ym2612"
    },
    {
      "channel": 0,
      "note": 53,
      "start": 17.926,
      "duration": 0.0916,
      "velocity": 127,
      "chip": "ym2612"
    },
    {
      "channel": 1,
      "note": 43,
      "start": 17.9263,
      "duration": 0.0292,
      "velocity": 127,
      "chip": "ym2612"
    },
    {
      "channel": 2,
      "note": 50,
      "start": 17.9266,
      "duration": 0.029,
      "velocity": 127,
      "chip": "ym2612"
    },
    {
      "channel": 3,
      "note": 48,
      "start": 17.9268,
      "duration": 0.0931,
      "velocity": 94,
      "chip": "ym2612"
    },
    {
      "channel": 4,
      "note": 98,
      "start": 17.9271,
      "duration": 0.0206,
      "velocity": 97,
      "chip": "ym2612"
    },
    {
      "channel": 5,
      "note": 38,
      "start": 17.9275,
      "duration": 0.3729,
      "velocity": 90,
      "chip": "ym2612"
    },
    {
      "channel": 0,
      "note": 75,
      "start": 18.0192,
      "duration": 0.0918,
      "velocity": 127,
      "chip": "ym2612"
    },
    {
      "channel": 1,
      "note": 43,
      "start": 18.0195,
      "duration": 0.0292,
      "velocity": 127,
      "chip": "ym2612"
    },
    {
      "channel": 2,
      "note": 50,
      "start": 18.0198,
      "duration": 0.0289,
      "velocity": 127,
      "chip": "ym2612"
    },
    {
      "channel": 3,
      "note": 50,
      "start": 18.02,
      "duration": 0.1847,
      "velocity": 94,
      "chip": "ym2612"
    },
    {
      "channel": 4,
      "note": 98,
      "start": 18.0204,
      "duration": 0.0207,
      "velocity": 97,
      "chip": "ym2612"
    },
    {
      "channel": 0,
      "note": 66,
      "start": 18.1127,
      "duration": 0.1848,
      "velocity": 127,
      "chip": "ym2612"
    },
    {
      "channel": 1,
      "note": 43,
      "start": 18.113,
      "duration": 0.029,
      "velocity": 127,
      "chip": "ym2612"
    },
    {
      "channel": 2,
      "note": 50,
      "start": 18.1132,
      "duration": 0.0288,
      "velocity": 127,
      "chip": "ym2612"
    },
    {
      "channel": 4,
      "note": 110,
      "start": 18.1136,
      "duration": 0.0207,
      "velocity": 97,
      "chip": "ym2612"
    },
    {
      "channel": 1,
      "note": 43,
      "start": 18.2044,
      "duration": 0.0309,
      "velocity": 127,
      "chip": "ym2612"
    },
    {
      "channel": 2,
      "note": 50,
      "start": 18.2047,
      "duration": 0.0306,
      "velocity": 127,
      "chip": "ym2612"
    },
    {
      "channel": 3,
      "note": 48,
      "start": 18.205,
      "duration": 0.0948,
      "velocity": 94,
      "chip": "ym2612"
    },
    {
      "channel": 4,
      "note": 98,
      "start": 18.2053,
      "duration": 0.0222,
      "velocity": 97,
      "chip": "ym2612"
    },
    {
      "channel": 0,
      "note": 53,
      "start": 18.2992,
      "duration": 0.0918,
      "velocity": 127,
      "chip": "ym2612"
    },
    {
      "channel": 1,
      "note": 43,
      "start": 18.2995,
      "duration": 0.0292,
      "velocity": 127,
      "chip": "ym2612"
    },
    {
      "channel": 2,
      "note": 50,
      "start": 18.2998,
      "duration": 0.029,
      "velocity": 127,
      "chip": "ym2612"
    },
    {
      "channel": 3,
      "note": 50,
      "start": 18.3,
      "duration": 0.1864,
      "velocity": 94,
      "chip": "ym2612"
    },
    {
      "channel": 4,
      "note": 98,
      "start": 18.3004,
      "duration": 0.0208,
      "velocity": 97,
      "chip": "ym2612"
    },
    {
      "channel": 5,
      "note": 31,
      "start": 18.301,
      "duration": 0.2776,
      "velocity": 90,
      "chip": "ym2612"
    },
    {
      "channel": 0,
      "note": 75,
      "start": 18.3927,
      "duration": 0.0914,
      "velocity": 127,
      "chip": "ym2612"
    },
    {
      "channel": 1,
      "note": 43,
      "start": 18.393,
      "duration": 0.0289,
      "velocity": 127,
      "chip": "ym2612"
    },
    {
      "channel": 2,
      "note": 50,
      "start": 18.3933,
      "duration": 0.0287,
      "velocity": 127,
      "chip": "ym2612"
    },
    {
      "channel": 4,
      "note": 98,
      "start": 18.3936,
      "duration": 0.0205,
      "velocity": 97,
      "chip": "ym2612"
    },
    {
      "channel": 0,
      "note": 66,
      "start": 18.4858,
      "duration": 0.1852,
      "velocity": 127,
      "chip": "ym2612"
    },
    {
      "channel": 1,
      "note": 43,
      "start": 18.4861,
      "duration": 0.0292,
      "velocity": 127,
      "chip": "ym2612"
    },
    {
      "channel": 2,
      "note": 50,
      "start": 18.4864,
      "duration": 0.0289,
      "velocity": 127,
      "chip": "ym2612"
    },
    {
      "channel": 3,
      "note": 48,
      "start": 18.4866,
      "duration": 0.0914,
      "velocity": 94,
      "chip": "ym2612"
    },
    {
      "channel": 4,
      "note": 110,
      "start": 18.487,
      "duration": 0.0205,
      "velocity": 97,
      "chip": "ym2612"
    },
    {
      "channel": 1,
      "note": 43,
      "start": 18.5777,
      "duration": 0.0309,
      "velocity": 127,
      "chip": "ym2612"
    },
    {
      "channel": 2,
      "note": 50,
      "start": 18.578,
      "duration": 0.0306,
      "velocity": 127,
      "chip": "ym2612"
    },
    {
      "channel": 3,
      "note": 50,
      "start": 18.5782,
      "duration": 0.1881,
      "velocity": 94,
      "chip": "ym2612"
    },
    {
      "channel": 4,
      "note": 98,
      "start": 18.5785,
      "duration": 0.0225,
      "velocity": 97,
      "chip": "ym2612"
    },
    {
      "channel": 5,
      "note": 33,
      "start": 18.5789,
      "duration": 0.2813,
      "velocity": 90,
      "chip": "ym2612"
    },
    {
      "channel": 0,
      "note": 53,
      "start": 18.6727,
      "duration": 0.0914,
      "velocity": 127,
      "chip": "ym2612"
    },
    {
      "channel": 1,
      "note": 43,
      "start": 18.673,
      "duration": 0.029,
      "velocity": 127,
      "chip": "ym2612"
    },
    {
      "channel": 2,
      "note": 50,
      "start": 18.6733,
      "duration": 0.0288,
      "velocity": 127,
      "chip": "ym2612"
    },
    {
      "channel": 4,
      "note": 98,
      "start": 18.6736,
      "duration": 0.0206,
      "velocity": 97,
      "chip": "ym2612"
    },
    {
      "channel": 0,
      "note": 75,
      "start": 18.7657,
      "duration": 0.0917,
      "velocity": 127,
      "chip": "ym2612"
    },
    {
      "channel": 1,
      "note": 43,
      "start": 18.766,
      "duration": 0.0291,
      "velocity": 127,
      "chip": "ym2612"
    },
    {
      "channel": 2,
      "note": 50,
      "start": 18.7663,
      "duration": 0.0289,
      "velocity": 127,
      "chip": "ym2612"
    },
    {
      "channel": 3,
      "note": 48,
      "start": 18.7666,
      "duration": 0.0932,
      "velocity": 94,
      "chip": "ym2612"
    },
    {
      "channel": 4,
      "note": 98,
      "start": 18.7669,
      "duration": 0.0205,
      "velocity": 97,
      "chip": "ym2612"
    },
    {
      "channel": 0,
      "note": 66,
      "start": 18.8591,
      "duration": 0.1849,
      "velocity": 127,
      "chip": "ym2612"
    },
    {
      "channel": 1,
      "note": 43,
      "start": 18.8594,
      "duration": 0.0291,
      "velocity": 127,
      "chip": "ym2612"
    },
    {
      "channel": 2,
      "note": 50,
      "start": 18.8597,
      "duration": 0.0289,
      "velocity": 127,
      "chip": "ym2612"
    },
    {
      "channel": 3,
      "note": 50,
      "start": 18.8599,
      "duration": 0.1864,
      "velocity": 94,
      "chip": "ym2612"
    },
    {
      "channel": 4,
      "note": 110,
      "start": 18.8602,
      "duration": 0.0208,
      "velocity": 97,
      "chip": "ym2612"
    },
    {
      "channel": 5,
      "note": 36,
      "start": 18.8606,
      "duration": 0.1863,
      "velocity": 90,
      "chip": "ym2612"
    },
    {
      "channel": 1,
      "note": 43,
      "start": 18.9512,
      "duration": 0.0306,
      "velocity": 127,
      "chip": "ym2612"
    },
    {
      "channel": 2,
      "note": 50,
      "start": 18.9515,
      "duration": 0.0304,
      "velocity": 127,
      "chip": "ym2612"
    },
    {
      "channel": 4,
      "note": 98,
      "start": 18.9518,
      "duration": 0.0222,
      "velocity": 97,
      "chip": "ym2612"
    },
    {
      "channel": 0,
      "note": 53,
      "start": 19.0457,
      "duration": 0.0917,
      "velocity": 127,
      "chip": "ym2612"
    },
    {
      "channel": 1,
      "note": 43,
      "start": 19.046,
      "duration": 0.0293,
      "velocity": 127,
      "chip": "ym2612"
    },
    {
      "channel": 2,
      "note": 50,
      "start": 19.0463,
      "duration": 0.029,
      "velocity": 127,
      "chip": "ym2612"
    },
    {
      "channel": 3,
      "note": 48,
      "start": 19.0465,
      "duration": 0.0931,
      "velocity": 94,
      "chip": "ym2612"
    },
    {
      "channel": 4,
      "note": 98,
      "start": 19.0468,
      "duration": 0.0206,
      "velocity": 97,
      "chip": "ym2612"
    },
    {
      "channel": 5,
      "note": 38,
      "start": 19.0472,
      "duration": 0.1866,
      "velocity": 90,
      "chip": "ym2612"
    },
    {
      "channel": 0,
      "note": 75,
      "start": 19.139,
      "duration": 0.0917,
      "velocity": 127,
      "chip": "ym2612"
    },
    {
      "channel": 1,
      "note": 43,
      "start": 19.1393,
      "duration": 0.0292,
      "velocity": 127,
      "chip": "ym2612"
    },
    {
      "channel": 2,
      "note": 50,
      "start": 19.1396,
      "duration": 0.0289,
      "velocity": 127,
      "chip": "ym2612"
    },
    {
      "channel": 3,
      "note": 50,
      "start": 19.1398,
      "duration": 0.0934,
      "velocity": 94,
      "chip": "ym2612"
    },
    {
      "channel": 4,
      "note": 98,
      "start": 19.1401,
      "duration": 0.0208,
      "velocity": 97,
      "chip": "ym2612"
    },
    {
      "channel": 0,
      "note": 66,
      "start": 19.2325,
      "duration": 0.1847,
      "velocity": 127,
      "chip": "ym2612"
    },
    {
      "channel": 1,
      "note": 41,
      "start": 19.2328,
      "duration": 0.1222,
      "velocity": 127,
      "chip": "ym2612"
    },
    {
      "channel": 2,
      "note": 48,
      "start": 19.2331,
      "duration": 0.122,
      "velocity": 127,
      "chip": "ym2612"
    },
    {
      "channel": 3,
      "note": 53,
      "start": 19.2334,
      "duration": 0.0906,
      "velocity": 94,
      "chip": "ym2612"
    },
    {
      "channel": 4,
      "note": 110,
      "start": 19.2337,
      "duration": 0.0203,
      "velocity": 97,
      "chip": "ym2612"
    },
    {
      "channel": 5,
      "note": 41,
      "start": 19.2341,
      "duration": 0.1892,
      "velocity": 90,
      "chip": "ym2612"
    },
    {
      "channel": 3,
      "note": 55,
      "start": 19.3241,
      "duration": 0.0985,
      "velocity": 94,
      "chip": "ym2612"
    },
    {
      "channel": 4,
      "note": 98,
      "start": 19.3245,
      "duration": 0.0228,
      "velocity": 97,
      "chip": "ym2612"
    },
    {
      "channel": 0,
      "note": 53,
      "start": 19.4189,
      "duration": 0.0916,
      "velocity": 127,
      "chip": "ym2612"
    },
    {
      "channel": 1,
      "note": 53,
      "start": 19.4207,
      "duration": 0.0278,
      "velocity": 127,
      "chip": "ym2612"
    },
    {
      "channel": 2,
      "note": 46,
      "start": 19.4227,
      "duration": 0.0259,
      "velocity": 127,
      "chip": "ym2612"
    },
    {
      "channel": 3,
      "note": 48,
      "start": 19.4229,
      "duration": 0.0902,
      "velocity": 94,
      "chip": "ym2612"
    },
    {
      "channel": 4,
      "note": 98,
      "start": 19.4232,
      "duration": 0.0177,
      "velocity": 97,
      "chip": "ym2612"
    },
    {
      "channel": 5,
      "note": 38,
      "start": 19.4236,
      "duration": 0.37,
      "velocity": 90,
      "chip": "ym2612"
    },
    {
      "channel": 0,
      "note": 75,
      "start": 19.5125,
      "duration": 0.0914,
      "velocity": 127,
      "chip": "ym2612"
    },
    {
      "channel": 1,
      "note": 53,
      "start": 19.5128,
      "duration": 0.0289,
      "velocity": 127,
      "chip": "ym2612"
    },
    {
      "channel": 2,
      "note": 46,
      "start": 19.513,
      "duration": 0.0287,
      "velocity": 127,
      "chip": "ym2612"
    },
    {
      "channel": 3,
      "note": 50,
      "start": 19.5133,
      "duration": 0.1845,
      "velocity": 94,
      "chip": "ym2612"
    },
    {
      "channel": 4,
      "note": 98,
      "start": 19.5136,
      "duration": 0.0203,
      "velocity": 97,
      "chip": "ym2612"
    },
    {
      "channel": 0,
      "note": 66,
      "start": 19.6055,
      "duration": 0.185,
      "velocity": 127,
      "chip": "ym2612"
    },
    {
      "channel": 1,
      "note": 53,
      "start": 19.6058,
      "duration": 0.0292,
      "velocity": 127,
      "chip": "ym2612"
    },
    {
      "channel": 2,
      "note": 46,
      "start": 19.6061,
      "duration": 0.0289,
      "velocity": 127,
      "chip": "ym2612"
    },
    {
      "channel": 4,
      "note": 110,
      "start": 19.6064,
      "duration": 0.0208,
      "velocity": 97,
      "chip": "ym2612"
    },
    {
      "channel": 1,
      "note": 53,
      "start": 19.6974,
      "duration": 0.0309,
      "velocity": 127,
      "chip": "ym2612"
    },
    {
      "channel": 2,
      "note": 46,
      "start": 19.6977,
      "duration": 0.0306,
      "velocity": 127,
      "chip": "ym2612"
    },
    {
      "channel": 3,
      "note": 48,
      "start": 19.698,
      "duration": 0.0951,
      "velocity": 94,
      "chip": "ym2612"
    },
    {
      "channel": 4,
      "note": 98,
      "start": 19.6983,
      "duration": 0.0222,
      "velocity": 97,
      "chip": "ym2612"
    },
    {
      "channel": 0,
      "note": 53,
      "start": 19.7924,
      "duration": 0.0914,
      "velocity": 127,
      "chip": "ym2612"
    },
    {
      "channel": 1,
      "note": 53,
      "start": 19.7927,
      "duration": 0.029,
      "velocity": 127,
      "chip": "ym2612"
    },
    {
      "channel": 2,
      "note": 46,
      "start": 19.793,
      "duration": 0.0287,
      "velocity": 127,
      "chip": "ym2612"
    },
    {
      "channel": 3,
      "note": 50,
      "start": 19.7933,
      "duration": 0.1861,
      "velocity": 94,
      "chip": "ym2612"
    },
    {
      "channel": 4,
      "note": 98,
      "start": 19.7936,
      "duration": 0.0203,
      "velocity": 97,
      "chip": "ym2612"
    },
    {
      "channel": 5,
      "note": 31,
      "start": 19.794,
      "duration": 0.2778,
      "velocity": 90,
      "chip": "ym2612"
    },
    {
      "channel": 0,
      "note": 75,
      "start": 19.8855,
      "duration": 0.0917,
      "velocity": 127,
      "chip": "ym2612"
    },
    {
      "channel": 1,
      "note": 53,
      "start": 19.8858,
      "duration": 0.0292,
      "velocity": 127,
      "chip": "ym2612"
    },
    {
      "channel": 2,
      "note": 46,
      "start": 19.8861,
      "duration": 0.0289,
      "velocity": 127,
      "chip": "ym2612"
    },
    {
      "channel": 4,
      "note": 98,
      "start": 19.8864,
      "duration": 0.0208,
      "velocity": 97,
      "chip": "ym2612"
    },
    {
      "channel": 0,
      "note": 66,
      "start": 19.9788,
      "duration": 0.185,
      "velocity": 127,
      "chip": "ym2612"
    },
    {
      "channel": 1,
      "note": 53,
      "start": 19.9791,
      "duration": 0.0292,
      "velocity": 127,
      "chip": "ym2612"
    },
    {
      "channel": 2,
      "note": 46,
      "start": 19.9794,
      "duration": 0.0289,
      "velocity": 127,
      "chip": "ym2612"
    },
    {
      "channel": 3,
      "note": 48,
      "start": 19.9796,
      "duration": 0.0917,
      "velocity": 94,
      "chip": "ym2612"
    },
    {
      "channel": 4,
      "note": 110,
      "start": 19.98,
      "duration": 0.0205,
      "velocity": 97,
      "chip": "ym2612"
    },
    {
      "channel": 1,
      "note": 53,
      "start": 20.0709,
      "duration": 0.0306,
      "velocity": 127,
      "chip": "ym2612"
    },
    {
      "channel": 2,
      "note": 46,
      "start": 20.0712,
      "duration": 0.0304,
      "velocity": 127,
      "chip": "ym2612"
    },
    {
      "channel": 3,
      "note": 50,
      "start": 20.0715,
      "duration": 0.1879,
      "velocity": 94,
      "chip": "ym2612"
    },
    {
      "channel": 4,
      "note": 98,
      "start": 20.0718,
      "duration": 0.022,
      "velocity": 97,
      "chip": "ym2612"
    },
    {
      "channel": 5,
      "note": 33,
      "start": 20.0722,
      "duration": 0.2813,
      "velocity": 90,
      "chip": "ym2612"
    },
    {
      "channel": 0,
      "note": 53,
      "start": 20.1654,
      "duration": 0.0916,
      "velocity": 127,
      "chip": "ym2612"
    },
    {
      "channel": 1,
      "note": 53,
      "start": 20.1657,
      "duration": 0.0292,
      "velocity": 127,
      "chip": "ym2612"
    },
    {
      "channel": 2,
      "note": 46,
      "start": 20.166,
      "duration": 0.029,
      "velocity": 127,
      "chip": "ym2612"
    },
    {
      "channel": 4,
      "note": 98,
      "start": 20.1663,
      "duration": 0.0208,
      "velocity": 97,
      "chip": "ym2612"
    },
    {
      "channel": 0,
      "note": 75,
      "start": 20.2587,
      "duration": 0.0916,
      "velocity": 127,
      "chip": "ym2612"
    },
    {
      "channel": 1,
      "note": 53,
      "start": 20.259,
      "duration": 0.0291,
      "velocity": 127,
      "chip": "ym2612"
    },
    {
      "channel": 2,
      "note": 46,
      "start": 20.2593,
      "duration": 0.0289,
      "velocity": 127,
      "chip": "ym2612"
    },
    {
      "channel": 3,
      "note": 48,
      "start": 20.2595,
      "duration": 0.0934,
      "velocity": 94,
      "chip": "ym2612"
    },
    {
      "channel": 4,
      "note": 98,
      "start": 20.2599,
      "duration": 0.0205,
      "velocity": 97,
      "chip": "ym2612"
    },
    {
      "channel": 0,
      "note": 66,
      "start": 20.3523,
      "duration": 0.1847,
      "velocity": 127,
      "chip": "ym2612"
    },
    {
      "channel": 1,
      "note": 53,
      "start": 20.3526,
      "duration": 0.0289,
      "velocity": 127,
      "chip": "ym2612"
    },
    {
      "channel": 2,
      "note": 46,
      "start": 20.3529,
      "duration": 0.0287,
      "velocity": 127,
      "chip": "ym2612"
    },
    {
      "channel": 3,
      "note": 50,
      "start": 20.3531,
      "duration": 0.1862,
      "velocity": 94,
      "chip": "ym2612"
    },
    {
      "channel": 4,
      "note": 110,
      "start": 20.3534,
      "duration": 0.0203,
      "velocity": 97,
      "chip": "ym2612"
    },
    {
      "channel": 5,
      "note": 36,
      "start": 20.3538,
      "duration": 0.1861,
      "velocity": 90,
      "chip": "ym2612"
    },
    {
      "channel": 1,
      "note": 53,
      "start": 20.4439,
      "duration": 0.0308,
      "velocity": 127,
      "chip": "ym2612"
    },
    {
      "channel": 2,
      "note": 46,
      "start": 20.4442,
      "duration": 0.0306,
      "velocity": 127,
      "chip": "ym2612"
    },
    {
      "channel": 4,
      "note": 98,
      "start": 20.4446,
      "duration": 0.0225,
      "velocity": 97,
      "chip": "ym2612"
    },
    {
      "channel": 0,
      "note": 53,
      "start": 20.5387,
      "duration": 0.0917,
      "velocity": 127,
      "chip": "ym2612"
    },
    {
      "channel": 1,
      "note": 53,
      "start": 20.539,
      "duration": 0.0293,
      "velocity": 127,
      "chip": "ym2612"
    },
    {
      "channel": 2,
      "note": 46,
      "start": 20.5393,
      "duration": 0.029,
      "velocity": 127,
      "chip": "ym2612"
    },
    {
      "channel": 3,
      "note": 48,
      "start": 20.5395,
      "duration": 0.0934,
      "velocity": 94,
      "chip": "ym2612"
    },
    {
      "channel": 4,
      "note": 98,
      "start": 20.5398,
      "duration": 0.0206,
      "velocity": 97,
      "chip": "ym2612"
    },
    {
      "channel": 5,
      "note": 38,
      "start": 20.5402,
      "duration": 0.1863,
      "velocity": 90,
      "chip": "ym2612"
    },
    {
      "channel": 0,
      "note": 75,
      "start": 20.6322,
      "duration": 0.0914,
      "velocity": 127,
      "chip": "ym2612"
    },
    {
      "channel": 1,
      "note": 53,
      "start": 20.6325,
      "duration": 0.0289,
      "velocity": 127,
      "chip": "ym2612"
    },
    {
      "channel": 2,
      "note": 46,
      "start": 20.6328,
      "duration": 0.0287,
      "velocity": 127,
      "chip": "ym2612"
    },
    {
      "channel": 3,
      "note": 50,
      "start": 20.6331,
      "duration": 0.0929,
      "velocity": 94,
      "chip": "ym2612"
    },
    {
      "channel": 4,
      "note": 98,
      "start": 20.6334,
      "duration": 0.0203,
      "velocity": 97,
      "chip": "ym2612"
    },
    {
      "channel": 0,
      "note": 66,
      "start": 20.7253,
      "duration": 0.185,
      "velocity": 127,
      "chip": "ym2612"
    },
    {
      "channel": 1,
      "note": 54,
      "start": 20.7256,
      "duration": 0.1224,
      "velocity": 127,
      "chip": "ym2612"
    },
    {
      "channel": 2,
      "note": 47,
      "start": 20.7259,
      "duration": 0.1222,
      "velocity": 127,
      "chip": "ym2612"
    },
    {
      "channel": 3,
      "note": 53,
      "start": 20.7262,
      "duration": 0.0908,
      "velocity": 94,
      "chip": "ym2612"
    },
    {
      "channel": 4,
      "note": 110,
      "start": 20.7265,
      "duration": 0.0205,
      "velocity": 97,
      "chip": "ym2612"
    },
    {
      "channel": 5,
      "note": 41,
      "start": 20.7269,
      "duration": 0.1866,
      "velocity": 90,
      "chip": "ym2612"
    },
    {
      "channel": 3,
      "note": 55,
      "start": 20.8171,
      "duration": 0.0957,
      "velocity": 94,
      "chip": "ym2612"
    },
    {
      "channel": 4,
      "note": 98,
      "start": 20.8175,
      "duration": 0.0228,
      "velocity": 97,
      "chip": "ym2612"
    },
    {
      "channel": 0,
      "note": 53,
      "start": 20.9122,
      "duration": 0.0913,
      "velocity": 127,
      "chip": "ym2612"
    },
    {
      "channel": 1,
      "note": 53,
      "start": 20.9125,
      "duration": 0.029,
      "velocity": 127,
      "chip": "ym2612"
    },
    {
      "channel": 2,
      "note": 46,
      "start": 20.9128,
      "duration": 0.0287,
      "velocity": 127,
      "chip": "ym2612"
    },
    {
      "channel": 3,
      "note": 48,
      "start": 20.9131,
      "duration": 0.0928,
      "velocity": 94,
      "chip": "ym2612"
    },
    {
      "channel": 4,
      "note": 98,
      "start": 20.9134,
      "duration": 0.0203,
      "velocity": 97,
      "chip": "ym2612"
    },
    {
      "channel": 5,
      "note": 38,
      "start": 20.9138,
      "duration": 0.3726,
      "velocity": 90,
      "chip": "ym2612"
    },
    {
      "channel": 0,
      "note": 75,
      "start": 21.0052,
      "duration": 0.0917,
      "velocity": 127,
      "chip": "ym2612"
    },
    {
      "channel": 1,
      "note": 53,
      "start": 21.0055,
      "duration": 0.0292,
      "velocity": 127,
      "chip": "ym2612"
    },
    {
      "channel": 2,
      "note": 46,
      "start": 21.0058,
      "duration": 0.0289,
      "velocity": 127,
      "chip": "ym2612"
    },
    {
      "channel": 3,
      "note": 50,
      "start": 21.006,
      "duration": 0.1851,
      "velocity": 94,
      "chip": "ym2612"
    },
    {
      "channel": 4,
      "note": 98,
      "start": 21.0064,
      "duration": 0.0205,
      "velocity": 97,
      "chip": "ym2612"
    },
    {
      "channel": 0,
      "note": 66,
      "start": 21.0985,
      "duration": 0.185,
      "velocity": 127,
      "chip": "ym2612"
    },
    {
      "channel": 1,
      "note": 53,
      "start": 21.0988,
      "duration": 0.0292,
      "velocity": 127,
      "chip": "ym2612"
    },
    {
      "channel": 2,
      "note": 46,
      "start": 21.0991,
      "duration": 0.0289,
      "velocity": 127,
      "chip": "ym2612"
    },
    {
      "channel": 4,
      "note": 110,
      "start": 21.0994,
      "duration": 0.0208,
      "velocity": 97,
      "chip": "ym2612"
    },
    {
      "channel": 1,
      "note": 53,
      "start": 21.1904,
      "duration": 0.0309,
      "velocity": 127,
      "chip": "ym2612"
    },
    {
      "channel": 2,
      "note": 46,
      "start": 21.1911,
      "duration": 0.0302,
      "velocity": 127,
      "chip": "ym2612"
    },
    {
      "channel": 3,
      "note": 48,
      "start": 21.1914,
      "duration": 0.0944,
      "velocity": 94,
      "chip": "ym2612"
    },
    {
      "channel": 4,
      "note": 98,
      "start": 21.1917,
      "duration": 0.0218,
      "velocity": 97,
      "chip": "ym2612"
    },
    {
      "channel": 0,
      "note": 53,
      "start": 21.2852,
      "duration": 0.0916,
      "velocity": 127,
      "chip": "ym2612"
    },
    {
      "channel": 1,
      "note": 53,
      "start": 21.2855,
      "duration": 0.0292,
      "velocity": 127,
      "chip": "ym2612"
    },
    {
      "channel": 2,
      "note": 46,
      "start": 21.2858,
      "duration": 0.029,
      "velocity": 127,
      "chip": "ym2612"
    },
    {
      "channel": 3,
      "note": 50,
      "start": 21.286,
      "duration": 0.1867,
      "velocity": 94,
      "chip": "ym2612"
    },
    {
      "channel": 4,
      "note": 98,
      "start": 21.2863,
      "duration": 0.0206,
      "velocity": 97,
      "chip": "ym2612"
    },
    {
      "channel": 5,
      "note": 31,
      "start": 21.2867,
      "duration": 0.2779,
      "velocity": 90,
      "chip": "ym2612"
    },
    {
      "channel": 0,
      "note": 75,
      "start": 21.3785,
      "duration": 0.0917,
      "velocity": 127,
      "chip": "ym2612"
    },
    {
      "channel": 1,
      "note": 53,
      "start": 21.3788,
      "duration": 0.0292,
      "velocity": 127,
      "chip": "ym2612"
    },
    {
      "channel": 2,
      "note": 46,
      "start": 21.379,
      "duration": 0.0289,
      "velocity": 127,
      "chip": "ym2612"
    },
    {
      "channel": 4,
      "note": 98,
      "start": 21.3794,
      "duration": 0.0208,
      "velocity": 97,
      "chip": "ym2612"
    },
    {
      "channel": 0,
      "note": 66,
      "start": 21.472,
      "duration": 0.1847,
      "velocity": 127,
      "chip": "ym2612"
    },
    {
      "channel": 1,
      "note": 53,
      "start": 21.4723,
      "duration": 0.0289,
      "velocity": 127,
      "chip": "ym2612"
    },
    {
      "channel": 2,
      "note": 46,
      "start": 21.4726,
      "duration": 0.0287,
      "velocity": 127,
      "chip": "ym2612"
    },
    {
      "channel": 3,
      "note": 48,
      "start": 21.4729,
      "duration": 0.0912,
      "velocity": 94,
      "chip": "ym2612"
    },
    {
      "channel": 4,
      "note": 110,
      "start": 21.4732,
      "duration": 0.0203,
      "velocity": 97,
      "chip": "ym2612"
    },
    {
      "channel": 1,
      "note": 53,
      "start": 21.5637,
      "duration": 0.0309,
      "velocity": 127,
      "chip": "ym2612"
    },
    {
      "channel": 2,
      "note": 46,
      "start": 21.564,
      "duration": 0.0306,
      "velocity": 127,
      "chip": "ym2612"
    },
    {
      "channel": 3,
      "note": 50,
      "start": 21.5642,
      "duration": 0.1884,
      "velocity": 94,
      "chip": "ym2612"
    },
    {
      "channel": 4,
      "note": 98,
      "start": 21.5645,
      "duration": 0.0222,
      "velocity": 97,
      "chip": "ym2612"
    },
    {
      "channel": 5,
      "note": 33,
      "start": 21.5649,
      "duration": 0.2813,
      "velocity": 90,
      "chip": "ym2612"
    },
    {
      "channel": 0,
      "note": 53,
      "start": 21.6585,
      "duration": 0.0916,
      "velocity": 127,
      "chip": "ym2612"
    },
    {
      "channel": 1,
      "note": 53,
      "start": 21.6588,
      "duration": 0.0292,
      "velocity": 127,
      "chip": "ym2612"
    },
    {
      "channel": 2,
      "note": 46,
      "start": 21.659,
      "duration": 0.029,
      "velocity": 127,
      "chip": "ym2612"
    },
    {
      "channel": 4,
      "note": 98,
      "start": 21.6594,
      "duration": 0.0208,
      "velocity": 97,
      "chip": "ym2612"
    },
    {
      "channel": 0,
      "note": 75,
      "start": 21.752,
      "duration": 0.0914,
      "velocity": 127,
      "chip": "ym2612"
    },
    {
      "channel": 1,
      "note": 53,
      "start": 21.7523,
      "duration": 0.0289,
      "velocity": 127,
      "chip": "ym2612"
    },
    {
      "channel": 2,
      "note": 46,
      "start": 21.7526,
      "duration": 0.0287,
      "velocity": 127,
      "chip": "ym2612"
    },
    {
      "channel": 3,
      "note": 48,
      "start": 21.7528,
      "duration": 0.0929,
      "velocity": 94,
      "chip": "ym2612"
    },
    {
      "channel": 4,
      "note": 98,
      "start": 21.7531,
      "duration": 0.0203,
      "velocity": 97,
      "chip": "ym2612"
    },
    {
      "channel": 0,
      "note": 66,
      "start": 21.845,
      "duration": 0.185,
      "velocity": 127,
      "chip": "ym2612"
    },
    {
      "channel": 1,
      "note": 53,
      "start": 21.8453,
      "duration": 0.0292,
      "velocity": 127,
      "chip": "ym2612"
    },
    {
      "channel": 2,
      "note": 46,
      "start": 21.8456,
      "duration": 0.0289,
      "velocity": 127,
      "chip": "ym2612"
    },
    {
      "channel": 3,
      "note": 50,
      "start": 21.8459,
      "duration": 0.1867,
      "velocity": 94,
      "chip": "ym2612"
    },
    {
      "channel": 4,
      "note": 110,
      "start": 21.8462,
      "duration": 0.0205,
      "velocity": 97,
      "chip": "ym2612"
    },
    {
      "channel": 5,
      "note": 36,
      "start": 21.8466,
      "duration": 0.1866,
      "velocity": 90,
      "chip": "ym2612"
    },
    {
      "channel": 1,
      "note": 53,
      "start": 21.9369,
      "duration": 0.0308,
      "velocity": 127,
      "chip": "ym2612"
    },
    {
      "channel": 2,
      "note": 46,
      "start": 21.9372,
      "duration": 0.0306,
      "velocity": 127,
      "chip": "ym2612"
    },
    {
      "channel": 4,
      "note": 98,
      "start": 21.9376,
      "duration": 0.0225,
      "velocity": 97,
      "chip": "ym2612"
    },
    {
      "channel": 0,
      "note": 53,
      "start": 22.0319,
      "duration": 0.0914,
      "velocity": 127,
      "chip": "ym2612"
    },
    {
      "channel": 1,
      "note": 53,
      "start": 22.0322,
      "duration": 0.029,
      "velocity": 127,
      "chip": "ym2612"
    },
    {
      "channel": 2,
      "note": 46,
      "start": 22.0325,
      "duration": 0.0288,
      "velocity": 127,
      "chip": "ym2612"
    },
    {
      "channel": 3,
      "note": 48,
      "start": 22.0327,
      "duration": 0.0929,
      "velocity": 94,
      "chip": "ym2612"
    },
    {
      "channel": 4,
      "note": 98,
      "start": 22.0331,
      "duration": 0.0204,
      "velocity": 97,
      "chip": "ym2612"
    },
    {
      "channel": 5,
      "note": 38,
      "start": 22.0334,
      "duration": 0.1861,
      "velocity": 90,
      "chip": "ym2612"
    },
    {
      "channel": 0,
      "note": 75,
      "start": 22.125,
      "duration": 0.0917,
      "velocity": 127,
      "chip": "ym2612"
    },
    {
      "channel": 1,
      "note": 53,
      "start": 22.1253,
      "duration": 0.0292,
      "velocity": 127,
      "chip": "ym2612"
    },
    {
      "channel": 2,
      "note": 46,
      "start": 22.1256,
      "duration": 0.0289,
      "velocity": 127,
      "chip": "ym2612"
    },
    {
      "channel": 3,
      "note": 50,
      "start": 22.1258,
      "duration": 0.0931,
      "velocity": 94,
      "chip": "ym2612"
    },
    {
      "channel": 4,
      "note": 98,
      "start": 22.1261,
      "duration": 0.0205,
      "velocity": 97,
      "chip": "ym2612"
    },
    {
      "channel": 0,
      "note": 66,
      "start": 22.2183,
      "duration": 0.185,
      "velocity": 127,
      "chip": "ym2612"
    },
    {
      "channel": 1,
      "note": 51,
      "start": 22.2186,
      "duration": 0.1225,
      "velocity": 127,
      "chip": "ym2612"
    },
    {
      "channel": 2,
      "note": 44,
      "start": 22.2189,
      "duration": 0.1222,
      "velocity": 127,
      "chip": "ym2612"
    },
    {
      "channel": 3,
      "note": 53,
      "start": 22.2191,
      "duration": 0.0908,
      "velocity": 94,
      "chip": "ym2612"
    },
    {
      "channel": 4,
      "note": 110,
      "start": 22.2195,
      "duration": 0.0205,
      "velocity": 97,
      "chip": "ym2612"
    },
    {
      "channel": 5,
      "note": 41,
      "start": 22.2198,
      "duration": 0.1863,
      "velocity": 90,
      "chip": "ym2612"
    },
    {
      "channel": 3,
      "note": 55,
      "start": 22.3101,
      "duration": 0.0954,
      "velocity": 94,
      "chip": "ym2612"
    },
    {
      "channel": 4,
      "note": 98,
      "start": 22.3105,
      "duration": 0.0228,
      "velocity": 97,
      "chip": "ym2612"
    },
    {
      "channel": 0,
      "note": 53,
      "start": 22.4049,
      "duration": 0.0916,
      "velocity": 127,
      "chip": "ym2612"
    },
    {
      "channel": 1,
      "note": 53,
      "start": 22.4052,
      "duration": 0.0292,
      "velocity": 127,
      "chip": "ym2612"
    },
    {
      "channel": 2,
      "note": 46,
      "start": 22.4055,
      "duration": 0.029,
      "velocity": 127,
      "chip": "ym2612"
    },
    {
      "channel": 3,
      "note": 48,
      "start": 22.4058,
      "duration": 0.0931,
      "velocity": 94,
      "chip": "ym2612"
    },
    {
      "channel": 4,
      "note": 98,
      "start": 22.4061,
      "duration": 0.0206,
      "velocity": 97,
      "chip": "ym2612"
    },
    {
      "channel": 5,
      "note": 38,
      "start": 22.4065,
      "duration": 0.3729,
      "velocity": 90,
      "chip": "ym2612"
    },
    {
      "channel": 0,
      "note": 75,
      "start": 22.4982,
      "duration": 0.0917,
      "velocity": 127,
      "chip": "ym2612"
    },
    {
      "channel": 1,
      "note": 53,
      "start": 22.4985,
      "duration": 0.0292,
      "velocity": 127,
      "chip": "ym2612"
    },
    {
      "channel": 2,
      "note": 46,
      "start": 22.4988,
      "duration": 0.0289,
      "velocity": 127,
      "chip": "ym2612"
    },
    {
      "channel": 3,
      "note": 50,
      "start": 22.499,
      "duration": 0.1847,
      "velocity": 94,
      "chip": "ym2612"
    },
    {
      "channel": 4,
      "note": 98,
      "start": 22.4994,
      "duration": 0.0205,
      "velocity": 97,
      "chip": "ym2612"
    },
    {
      "channel": 0,
      "note": 66,
      "start": 22.5918,
      "duration": 0.1847,
      "velocity": 127,
      "chip": "ym2612"
    },
    {
      "channel": 1,
      "note": 53,
      "start": 22.5921,
      "duration": 0.0289,
      "velocity": 127,
      "chip": "ym2612"
    },
    {
      "channel": 2,
      "note": 46,
      "start": 22.5924,
      "duration": 0.0287,
      "velocity": 127,
      "chip": "ym2612"
    },
    {
      "channel": 4,
      "note": 110,
      "start": 22.5927,
      "duration": 0.0205,
      "velocity": 97,
      "chip": "ym2612"
    },
    {
      "channel": 1,
      "note": 53,
      "start": 22.6834,
      "duration": 0.0309,
      "velocity": 127,
      "chip": "ym2612"
    },
    {
      "channel": 2,
      "note": 46,
      "start": 22.6837,
      "duration": 0.0306,
      "velocity": 127,
      "chip": "ym2612"
    },
    {
      "channel": 3,
      "note": 48,
      "start": 22.684,
      "duration": 0.0948,
      "velocity": 94,
      "chip": "ym2612"
    },
    {
      "channel": 4,
      "note": 98,
      "start": 22.6843,
      "duration": 0.0222,
      "velocity": 97,
      "chip": "ym2612"
    },
    {
      "channel": 0,
      "note": 53,
      "start": 22.7781,
      "duration": 0.0917,
      "velocity": 127,
      "chip": "ym2612"
    },
    {
      "channel": 1,
      "note": 53,
      "start": 22.7784,
      "duration": 0.0293,
      "velocity": 127,
      "chip": "ym2612"
    },
    {
      "channel": 2,
      "note": 46,
      "start": 22.7787,
      "duration": 0.029,
      "velocity": 127,
      "chip": "ym2612"
    },
    {
      "channel": 3,
      "note": 50,
      "start": 22.779,
      "duration": 0.1864,
      "velocity": 94,
      "chip": "ym2612"
    },
    {
      "channel": 4,
      "note": 98,
      "start": 22.7793,
      "duration": 0.0206,
      "velocity": 97,
      "chip": "ym2612"
    },
    {
      "channel": 5,
      "note": 31,
      "start": 22.7797,
      "duration": 0.2779,
      "velocity": 90,
      "chip": "ym2612"
    },
    {
      "channel": 0,
      "note": 75,
      "start": 22.8717,
      "duration": 0.0914,
      "velocity": 127,
      "chip": "ym2612"
    },
    {
      "channel": 1,
      "note": 53,
      "start": 22.872,
      "duration": 0.029,
      "velocity": 127,
      "chip": "ym2612"
    },
    {
      "channel": 2,
      "note": 46,
      "start": 22.8723,
      "duration": 0.0288,
      "velocity": 127,
      "chip": "ym2612"
    },
    {
      "channel": 4,
      "note": 98,
      "start": 22.8726,
      "duration": 0.0205,
      "velocity": 97,
      "chip": "ym2612"
    },
    {
      "channel": 0,
      "note": 66,
      "start": 22.9648,
      "duration": 0.185,
      "velocity": 127,
      "chip": "ym2612"
    },
    {
      "channel": 1,
      "note": 53,
      "start": 22.9651,
      "duration": 0.0292,
      "velocity": 127,
      "chip": "ym2612"
    },
    {
      "channel": 2,
      "note": 46,
      "start": 22.9654,
      "duration": 0.0289,
      "velocity": 127,
      "chip": "ym2612"
    },
    {
      "channel": 3,
      "note": 48,
      "start": 22.9656,
      "duration": 0.0914,
      "velocity": 94,
      "chip": "ym2612"
    },
    {
      "channel": 4,
      "note": 110,
      "start": 22.9659,
      "duration": 0.0205,
      "velocity": 97,
      "chip": "ym2612"
    },
    {
      "channel": 1,
      "note": 53,
      "start": 23.0567,
      "duration": 0.0309,
      "velocity": 127,
      "chip": "ym2612"
    },
    {
      "channel": 2,
      "note": 46,
      "start": 23.057,
      "duration": 0.0306,
      "velocity": 127,
      "chip": "ym2612"
    },
    {
      "channel": 3,
      "note": 50,
      "start": 23.0572,
      "duration": 0.1882,
      "velocity": 94,
      "chip": "ym2612"
    },
    {
      "channel": 4,
      "note": 98,
      "start": 23.0575,
      "duration": 0.0222,
      "velocity": 97,
      "chip": "ym2612"
    },
    {
      "channel": 5,
      "note": 33,
      "start": 23.0579,
      "duration": 0.2813,
      "velocity": 90,
      "chip": "ym2612"
    },
    {
      "channel": 0,
      "note": 53,
      "start": 23.1517,
      "duration": 0.0914,
      "velocity": 127,
      "chip": "ym2612"
    },
    {
      "channel": 1,
      "note": 53,
      "start": 23.152,
      "duration": 0.0292,
      "velocity": 127,
      "chip": "ym2612"
    },
    {
      "channel": 2,
      "note": 46,
      "start": 23.1522,
      "duration": 0.0289,
      "velocity": 127,
      "chip": "ym2612"
    },
    {
      "channel": 4,
      "note": 98,
      "start": 23.1526,
      "duration": 0.0206,
      "velocity": 97,
      "chip": "ym2612"
    },
    {
      "channel": 0,
      "note": 75,
      "start": 23.2447,
      "duration": 0.0917,
      "velocity": 127,
      "chip": "ym2612"
    },
    {
      "channel": 1,
      "note": 53,
      "start": 23.245,
      "duration": 0.0292,
      "velocity": 127,
      "chip": "ym2612"
    },
    {
      "channel": 2,
      "note": 46,
      "start": 23.2453,
      "duration": 0.0289,
      "velocity": 127,
      "chip": "ym2612"
    },
    {
      "channel": 3,
      "note": 48,
      "start": 23.2455,
      "duration": 0.0931,
      "velocity": 94,
      "chip": "ym2612"
    },
    {
      "channel": 4,
      "note": 98,
      "start": 23.2459,
      "duration": 0.0205,
      "velocity": 97,
      "chip": "ym2612"
    },
    {
      "channel": 0,
      "note": 66,
      "start": 23.338,
      "duration": 0.1849,
      "velocity": 127,
      "chip": "ym2612"
    },
    {
      "channel": 1,
      "note": 53,
      "start": 23.3383,
      "duration": 0.0292,
      "velocity": 127,
      "chip": "ym2612"
    },
    {
      "channel": 2,
      "note": 46,
      "start": 23.3386,
      "duration": 0.0289,
      "velocity": 127,
      "chip": "ym2612"
    },
    {
      "channel": 3,
      "note": 50,
      "start": 23.3388,
      "duration": 0.1865,
      "velocity": 94,
      "chip": "ym2612"
    },
    {
      "channel": 4,
      "note": 110,
      "start": 23.3392,
      "duration": 0.0205,
      "velocity": 97,
      "chip": "ym2612"
    },
    {
      "channel": 5,
      "note": 36,
      "start": 23.3395,
      "duration": 0.1864,
      "velocity": 90,
      "chip": "ym2612"
    },
    {
      "channel": 1,
      "note": 53,
      "start": 23.4299,
      "duration": 0.0311,
      "velocity": 127,
      "chip": "ym2612"
    },
    {
      "channel": 2,
      "note": 46,
      "start": 23.4302,
      "duration": 0.0308,
      "velocity": 127,
      "chip": "ym2612"
    },
    {
      "channel": 4,
      "note": 98,
      "start": 23.4305,
      "duration": 0.0225,
      "velocity": 97,
      "chip": "ym2612"
    },
    {
      "channel": 0,
      "note": 53,
      "start": 23.5247,
      "duration": 0.0916,
      "velocity": 127,
      "chip": "ym2612"
    },
    {
      "channel": 1,
      "note": 53,
      "start": 23.525,
      "duration": 0.0292,
      "velocity": 127,
      "chip": "ym2612"
    },
    {
      "channel": 2,
      "note": 46,
      "start": 23.5253,
      "duration": 0.029,
      "velocity": 127,
      "chip": "ym2612"
    },
    {
      "channel": 3,
      "note": 48,
      "start": 23.5255,
      "duration": 0.0931,
      "velocity": 94,
      "chip": "ym2612"
    },
    {
      "channel": 4,
      "note": 98,
      "start": 23.5259,
      "duration": 0.0206,
      "velocity": 97,
      "chip": "ym2612"
    },
    {
      "channel": 5,
      "note": 38,
      "start": 23.5262,
      "duration": 0.1865,
      "velocity": 90,
      "chip": "ym2612"
    },
    {
      "channel": 0,
      "note": 75,
      "start": 23.618,
      "duration": 0.0917,
      "velocity": 127,
      "chip": "ym2612"
    },
    {
      "channel": 1,
      "note": 53,
      "start": 23.6183,
      "duration": 0.0292,
      "velocity": 127,
      "chip": "ym2612"
    },
    {
      "channel": 2,
      "note": 46,
      "start": 23.6185,
      "duration": 0.0289,
      "velocity": 127,
      "chip": "ym2612"
    },
    {
      "channel": 3,
      "note": 50,
      "start": 23.6188,
      "duration": 0.0934,
      "velocity": 94,
      "chip": "ym2612"
    },
    {
      "channel": 4,
      "note": 98,
      "start": 23.6191,
      "duration": 0.0205,
      "velocity": 97,
      "chip": "ym2612"
    },
    {
      "channel": 0,
      "note": 66,
      "start": 23.7115,
      "duration": 0.1847,
      "velocity": 127,
      "chip": "ym2612"
    },
    {
      "channel": 1,
      "note": 54,
      "start": 23.7118,
      "duration": 0.1222,
      "velocity": 127,
      "chip": "ym2612"
    },
    {
      "channel": 2,
      "note": 47,
      "start": 23.7121,
      "duration": 0.122,
      "velocity": 127,
      "chip": "ym2612"
    },
    {
      "channel": 3,
      "note": 53,
      "start": 23.7124,
      "duration": 0.0906,
      "velocity": 94,
      "chip": "ym2612"
    },
    {
      "channel": 4,
      "note": 110,
      "start": 23.7127,
      "duration": 0.0203,
      "velocity": 97,
      "chip": "ym2612"
    },
    {
      "channel": 5,
      "note": 41,
      "start": 23.7131,
      "duration": 0.1861,
      "velocity": 90,
      "chip": "ym2612"
    },
    {
      "channel": 3,
      "note": 55,
      "start": 23.8031,
      "duration": 0.0954,
      "velocity": 94,
      "chip": "ym2612"
    },
    {
      "channel": 4,
      "note": 98,
      "start": 23.8035,
      "duration": 0.0228,
      "velocity": 97,
      "chip": "ym2612"
    },
    {
      "channel": 0,
      "note": 53,
      "start": 23.8979,
      "duration": 0.0917,
      "velocity": 127,
      "chip": "ym2612"
    },
    {
      "channel": 1,
      "note": 53,
      "start": 23.8982,
      "duration": 0.0293,
      "velocity": 127,
      "chip": "ym2612"
    },
    {
      "channel": 2,
      "note": 46,
      "start": 23.8985,
      "duration": 0.029,
      "velocity": 127,
      "chip": "ym2612"
    },
    {
      "channel": 3,
      "note": 48,
      "start": 23.8987,
      "duration": 0.0934,
      "velocity": 94,
      "chip": "ym2612"
    },
    {
      "channel": 4,
      "note": 98,
      "start": 23.8991,
      "duration": 0.0206,
      "velocity": 97,
      "chip": "ym2612"
    },
    {
      "channel": 5,
      "note": 38,
      "start": 23.8995,
      "duration": 0.3732,
      "velocity": 90,
      "chip": "ym2612"
    },
    {
      "channel": 0,
      "note": 75,
      "start": 23.9915,
      "duration": 0.0914,
      "velocity": 127,
      "chip": "ym2612"
    },
    {
      "channel": 1,
      "note": 53,
      "start": 23.9918,
      "duration": 0.0289,
      "velocity": 127,
      "chip": "ym2612"
    },
    {
      "channel": 2,
      "note": 46,
      "start": 23.9921,
      "duration": 0.0289,
      "velocity": 127,
      "chip": "ym2612"
    },
    {
      "channel": 3,
      "note": 50,
      "start": 23.9923,
      "duration": 0.1844,
      "velocity": 94,
      "chip": "ym2612"
    },
    {
      "channel": 4,
      "note": 98,
      "start": 23.9926,
      "duration": 0.0203,
      "velocity": 97,
      "chip": "ym2612"
    },
    {
      "channel": 0,
      "note": 66,
      "start": 24.0845,
      "duration": 0.185,
      "velocity": 127,
      "chip": "ym2612"
    },
    {
      "channel": 1,
      "note": 53,
      "start": 24.0848,
      "duration": 0.0292,
      "velocity": 127,
      "chip": "ym2612"
    },
    {
      "channel": 2,
      "note": 46,
      "start": 24.0851,
      "duration": 0.0289,
      "velocity": 127,
      "chip": "ym2612"
    },
    {
      "channel": 4,
      "note": 110,
      "start": 24.0854,
      "duration": 0.0208,
      "velocity": 97,
      "chip": "ym2612"
    },
    {
      "channel": 1,
      "note": 53,
      "start": 24.1764,
      "duration": 0.0309,
      "velocity": 127,
      "chip": "ym2612"
    },
    {
      "channel": 2,
      "note": 46,
      "start": 24.1767,
      "duration": 0.0306,
      "velocity": 127,
      "chip": "ym2612"
    },
    {
      "channel": 3,
      "note": 48,
      "start": 24.177,
      "duration": 0.0951,
      "velocity": 94,
      "chip": "ym2612"
    },
    {
      "channel": 4,
      "note": 98,
      "start": 24.1773,
      "duration": 0.0222,
      "velocity": 97,
      "chip": "ym2612"
    },
    {
      "channel": 0,
      "note": 53,
      "start": 24.2714,
      "duration": 0.0914,
      "velocity": 127,
      "chip": "ym2612"
    },
    {
      "channel": 1,
      "note": 53,
      "start": 24.2717,
      "duration": 0.0292,
      "velocity": 127,
      "chip": "ym2612"
    },
    {
      "channel": 2,
      "note": 46,
      "start": 24.272,
      "duration": 0.029,
      "velocity": 127,
      "chip": "ym2612"
    },
    {
      "channel": 3,
      "note": 50,
      "start": 24.2722,
      "duration": 0.1862,
      "velocity": 94,
      "chip": "ym2612"
    },
    {
      "channel": 4,
      "note": 98,
      "start": 24.2726,
      "duration": 0.0204,
      "velocity": 97,
      "chip": "ym2612"
    },
    {
      "channel": 5,
      "note": 31,
      "start": 24.2729,
      "duration": 0.2776,
      "velocity": 90,
      "chip": "ym2612"
    },
    {
      "channel": 0,
      "note": 75,
      "start": 24.3644,
      "duration": 0.0917,
      "velocity": 127,
      "chip": "ym2612"
    },
    {
      "channel": 1,
      "note": 53,
      "start": 24.3647,
      "duration": 0.0292,
      "velocity": 127,
      "chip": "ym2612"
    },
    {
      "channel": 2,
      "note": 46,
      "start": 24.365,
      "duration": 0.0289,
      "velocity": 127,
      "chip": "ym2612"
    },
    {
      "channel": 4,
      "note": 98,
      "start": 24.3654,
      "duration": 0.0208,
      "velocity": 97,
      "chip": "ym2612"
    },
    {
      "channel": 0,
      "note": 66,
      "start": 24.4578,
      "duration": 0.185,
      "velocity": 127,
      "chip": "ym2612"
    },
    {
      "channel": 1,
      "note": 53,
      "start": 24.458,
      "duration": 0.0292,
      "velocity": 127,
      "chip": "ym2612"
    },
    {
      "channel": 2,
      "note": 46,
      "start": 24.4583,
      "duration": 0.0289,
      "velocity": 127,
      "chip": "ym2612"
    },
    {
      "channel": 3,
      "note": 48,
      "start": 24.4586,
      "duration": 0.0914,
      "velocity": 94,
      "chip": "ym2612"
    },
    {
      "channel": 4,
      "note": 110,
      "start": 24.4589,
      "duration": 0.0205,
      "velocity": 97,
      "chip": "ym2612"
    },
    {
      "channel": 1,
      "note": 53,
      "start": 24.5497,
      "duration": 0.0309,
      "velocity": 127,
      "chip": "ym2612"
    },
    {
      "channel": 2,
      "note": 46,
      "start": 24.55,
      "duration": 0.0306,
      "velocity": 127,
      "chip": "ym2612"
    },
    {
      "channel": 3,
      "note": 50,
      "start": 24.5502,
      "duration": 0.1882,
      "velocity": 94,
      "chip": "ym2612"
    },
    {
      "channel": 4,
      "note": 98,
      "start": 24.5505,
      "duration": 0.0222,
      "velocity": 97,
      "chip": "ym2612"
    },
    {
      "channel": 5,
      "note": 33,
      "start": 24.5511,
      "duration": 0.2813,
      "velocity": 90,
      "chip": "ym2612"
    },
    {
      "channel": 0,
      "note": 53,
      "start": 24.6444,
      "duration": 0.0916,
      "velocity": 127,
      "chip": "ym2612"
    },
    {
      "channel": 1,
      "note": 53,
      "start": 24.6447,
      "duration": 0.0292,
      "velocity": 127,
      "chip": "ym2612"
    },
    {
      "channel": 2,
      "note": 46,
      "start": 24.645,
      "duration": 0.029,
      "velocity": 127,
      "chip": "ym2612"
    },
    {
      "channel": 4,
      "note": 98,
      "start": 24.6453,
      "duration": 0.0208,
      "velocity": 97,
      "chip": "ym2612"
    },
    {
      "channel": 0,
      "note": 75,
      "start": 24.7377,
      "duration": 0.0917,
      "velocity": 127,
      "chip": "ym2612"
    },
    {
      "channel": 1,
      "note": 53,
      "start": 24.738,
      "duration": 0.0292,
      "velocity": 127,
      "chip": "ym2612"
    },
    {
      "channel": 2,
      "note": 46,
      "start": 24.7383,
      "duration": 0.0289,
      "velocity": 127,
      "chip": "ym2612"
    },
    {
      "channel": 3,
      "note": 48,
      "start": 24.7385,
      "duration": 0.0934,
      "velocity": 94,
      "chip": "ym2612"
    },
    {
      "channel": 4,
      "note": 98,
      "start": 24.7389,
      "duration": 0.0205,
      "velocity": 97,
      "chip": "ym2612"
    },
    {
      "channel": 0,
      "note": 66,
      "start": 24.8313,
      "duration": 0.1847,
      "velocity": 127,
      "chip": "ym2612"
    },
    {
      "channel": 1,
      "note": 53,
      "start": 24.8315,
      "duration": 0.0289,
      "velocity": 127,
      "chip": "ym2612"
    },
    {
      "channel": 2,
      "note": 46,
      "start": 24.8318,
      "duration": 0.0287,
      "velocity": 127,
      "chip": "ym2612"
    },
    {
      "channel": 3,
      "note": 50,
      "start": 24.8321,
      "duration": 0.1862,
      "velocity": 94,
      "chip": "ym2612"
    },
    {
      "channel": 4,
      "note": 110,
      "start": 24.8324,
      "duration": 0.0203,
      "velocity": 97,
      "chip": "ym2612"
    },
    {
      "channel": 5,
      "note": 36,
      "start": 24.8328,
      "duration": 0.1861,
      "velocity": 90,
      "chip": "ym2612"
    },
    {
      "channel": 1,
      "note": 53,
      "start": 24.9229,
      "duration": 0.0309,
      "velocity": 127,
      "chip": "ym2612"
    },
    {
      "channel": 2,
      "note": 46,
      "start": 24.9232,
      "duration": 0.0306,
      "velocity": 127,
      "chip": "ym2612"
    },
    {
      "channel": 4,
      "note": 98,
      "start": 24.9235,
      "duration": 0.0225,
      "velocity": 97,
      "chip": "ym2612"
    },
    {
      "channel": 0,
      "note": 53,
      "start": 25.0176,
      "duration": 0.0916,
      "velocity": 127,
      "chip": "ym2612"
    },
    {
      "channel": 1,
      "note": 53,
      "start": 25.0179,
      "duration": 0.0293,
      "velocity": 127,
      "chip": "ym2612"
    },
    {
      "channel": 2,
      "note": 46,
      "start": 25.0182,
      "duration": 0.029,
      "velocity": 127,
      "chip": "ym2612"
    },
    {
      "channel": 3,
      "note": 48,
      "start": 25.0185,
      "duration": 0.0934,
      "velocity": 94,
      "chip": "ym2612"
    },
    {
      "channel": 4,
      "note": 98,
      "start": 25.0188,
      "duration": 0.0206,
      "velocity": 97,
      "chip": "ym2612"
    },
    {
      "channel": 5,
      "note": 38,
      "start": 25.0192,
      "duration": 0.1863,
      "velocity": 90,
      "chip": "ym2612"
    },
    {
      "channel": 0,
      "note": 75,
      "start": 25.1112,
      "duration": 0.0914,
      "velocity": 127,
      "chip": "ym2612"
    },
    {
      "channel": 1,
      "note": 53,
      "start": 25.1115,
      "duration": 0.0289,
      "velocity": 127,
      "chip": "ym2612"
    },
    {
      "channel": 2,
      "note": 46,
      "start": 25.1118,
      "duration": 0.0287,
      "velocity": 127,
      "chip": "ym2612"
    },
    {
      "channel": 3,
      "note": 50,
      "start": 25.112,
      "duration": 0.0929,
      "velocity": 94,
      "chip": "ym2612"
    },
    {
      "channel": 4,
      "note": 98,
      "start": 25.1124,
      "duration": 0.0203,
      "velocity": 97,
      "chip": "ym2612"
    },
    {
      "channel": 0,
      "note": 66,
      "start": 25.2043,
      "duration": 0.185,
      "velocity": 127,
      "chip": "ym2612"
    },
    {
      "channel": 1,
      "note": 51,
      "start": 25.2046,
      "duration": 0.1225,
      "velocity": 127,
      "chip": "ym2612"
    },
    {
      "channel": 2,
      "note": 44,
      "start": 25.2049,
      "duration": 0.1222,
      "velocity": 127,
      "chip": "ym2612"
    },
    {
      "channel": 3,
      "note": 53,
      "start": 25.2051,
      "duration": 0.0908,
      "velocity": 94,
      "chip": "ym2612"
    },
    {
      "channel": 4,
      "note": 110,
      "start": 25.2054,
      "duration": 0.0205,
      "velocity": 97,
      "chip": "ym2612"
    },
    {
      "channel": 5,
      "note": 41,
      "start": 25.2058,
      "duration": 0.1924,
      "velocity": 90,
      "chip": "ym2612"
    },
    {
      "channel": 3,
      "note": 55,
      "start": 25.2961,
      "duration": 0.0986,
      "velocity": 94,
      "chip": "ym2612"
    },
    {
      "channel": 4,
      "note": 98,
      "start": 25.2965,
      "duration": 0.0228,
      "velocity": 97,
      "chip": "ym2612"
    },
    {
      "channel": 0,
      "note": 53,
      "start": 25.3912,
      "duration": 0.0914,
      "velocity": 127,
      "chip": "ym2612"
    },
    {
      "channel": 1,
      "note": 43,
      "start": 25.3929,
      "duration": 0.0275,
      "velocity": 127,
      "chip": "ym2612"
    },
    {
      "channel": 2,
      "note": 50,
      "start": 25.3947,
      "duration": 0.0258,
      "velocity": 127,
      "chip": "ym2612"
    },
    {
      "channel": 3,
      "note": 48,
      "start": 25.3964,
      "duration": 0.0885,
      "velocity": 94,
      "chip": "ym2612"
    },
    {
      "channel": 4,
      "note": 98,
      "start": 25.3981,
      "duration": 0.0145,
      "velocity": 97,
      "chip": "ym2612"
    },
    {
      "channel": 5,
      "note": 38,
      "start": 25.3999,
      "duration": 0.3655,
      "velocity": 90,
      "chip": "ym2612"
    },
    {
      "channel": 0,
      "note": 75,
      "start": 25.4842,
      "duration": 0.0916,
      "velocity": 127,
      "chip": "ym2612"
    },
    {
      "channel": 1,
      "note": 43,
      "start": 25.4845,
      "duration": 0.0291,
      "velocity": 127,
      "chip": "ym2612"
    },
    {
      "channel": 2,
      "note": 50,
      "start": 25.4848,
      "duration": 0.0289,
      "velocity": 127,
      "chip": "ym2612"
    },
    {
      "channel": 3,
      "note": 50,
      "start": 25.4851,
      "duration": 0.1847,
      "velocity": 94,
      "chip": "ym2612"
    },
    {
      "channel": 4,
      "note": 98,
      "start": 25.4854,
      "duration": 0.0205,
      "velocity": 97,
      "chip": "ym2612"
    },
    {
      "channel": 0,
      "note": 66,
      "start": 25.5775,
      "duration": 0.185,
      "velocity": 127,
      "chip": "ym2612"
    },
    {
      "channel": 1,
      "note": 43,
      "start": 25.5778,
      "duration": 0.0292,
      "velocity": 127,
      "chip": "ym2612"
    },
    {
      "channel": 2,
      "note": 50,
      "start": 25.5781,
      "duration": 0.0289,
      "velocity": 127,
      "chip": "ym2612"
    },
    {
      "channel": 4,
      "note": 110,
      "start": 25.5784,
      "duration": 0.0208,
      "velocity": 97,
      "chip": "ym2612"
    },
    {
      "channel": 1,
      "note": 43,
      "start": 25.6694,
      "duration": 0.0309,
      "velocity": 127,
      "chip": "ym2612"
    },
    {
      "channel": 2,
      "note": 50,
      "start": 25.6697,
      "duration": 0.0306,
      "velocity": 127,
      "chip": "ym2612"
    },
    {
      "channel": 3,
      "note": 48,
      "start": 25.67,
      "duration": 0.0948,
      "velocity": 94,
      "chip": "ym2612"
    },
    {
      "channel": 4,
      "note": 98,
      "start": 25.6703,
      "duration": 0.0222,
      "velocity": 97,
      "chip": "ym2612"
    },
    {
      "channel": 0,
      "note": 53,
      "start": 25.7641,
      "duration": 0.0917,
      "velocity": 127,
      "chip": "ym2612"
    },
    {
      "channel": 1,
      "note": 43,
      "start": 25.7644,
      "duration": 0.0293,
      "velocity": 127,
      "chip": "ym2612"
    },
    {
      "channel": 2,
      "note": 50,
      "start": 25.7647,
      "duration": 0.029,
      "velocity": 127,
      "chip": "ym2612"
    },
    {
      "channel": 3,
      "note": 50,
      "start": 25.765,
      "duration": 0.1867,
      "velocity": 94,
      "chip": "ym2612"
    },
    {
      "channel": 4,
      "note": 98,
      "start": 25.7653,
      "duration": 0.0206,
      "velocity": 97,
      "chip": "ym2612"
    },
    {
      "channel": 5,
      "note": 31,
      "start": 25.7657,
      "duration": 0.2779,
      "velocity": 90,
      "chip": "ym2612"
    },
    {
      "channel": 0,
      "note": 75,
      "start": 25.8574,
      "duration": 0.0917,
      "velocity": 127,
      "chip": "ym2612"
    },
    {
      "channel": 1,
      "note": 43,
      "start": 25.8577,
      "duration": 0.0292,
      "velocity": 127,
      "chip": "ym2612"
    },
    {
      "channel": 2,
      "note": 50,
      "start": 25.8581,
      "duration": 0.0289,
      "velocity": 127,
      "chip": "ym2612"
    },
    {
      "channel": 4,
      "note": 98,
      "start": 25.8584,
      "duration": 0.0207,
      "velocity": 97,
      "chip": "ym2612"
    },
    {
      "channel": 0,
      "note": 66,
      "start": 25.951,
      "duration": 0.1847,
      "velocity": 127,
      "chip": "ym2612"
    },
    {
      "channel": 1,
      "note": 43,
      "start": 25.9513,
      "duration": 0.0289,
      "velocity": 127,
      "chip": "ym2612"
    },
    {
      "channel": 2,
      "note": 50,
      "start": 25.9516,
      "duration": 0.0287,
      "velocity": 127,
      "chip": "ym2612"
    },
    {
      "channel": 3,
      "note": 48,
      "start": 25.9518,
      "duration": 0.0912,
      "velocity": 94,
      "chip": "ym2612"
    },
    {
      "channel": 4,
      "note": 110,
      "start": 25.9522,
      "duration": 0.0203,
      "velocity": 97,
      "chip": "ym2612"
    },
    {
      "channel": 1,
      "note": 43,
      "start": 26.0427,
      "duration": 0.0309,
      "velocity": 127,
      "chip": "ym2612"
    },
    {
      "channel": 2,
      "note": 50,
      "start": 26.0429,
      "duration": 0.0306,
      "velocity": 127,
      "chip": "ym2612"
    },
    {
      "channel": 3,
      "note": 50,
      "start": 26.0432,
      "duration": 0.1884,
      "velocity": 94,
      "chip": "ym2612"
    },
    {
      "channel": 4,
      "note": 98,
      "start": 26.0435,
      "duration": 0.0222,
      "velocity": 97,
      "chip": "ym2612"
    },
    {
      "channel": 5,
      "note": 33,
      "start": 26.0439,
      "duration": 0.2814,
      "velocity": 90,
      "chip": "ym2612"
    },
    {
      "channel": 0,
      "note": 53,
      "start": 26.1374,
      "duration": 0.0916,
      "velocity": 127,
      "chip": "ym2612"
    },
    {
      "channel": 1,
      "note": 43,
      "start": 26.1377,
      "duration": 0.0292,
      "velocity": 127,
      "chip": "ym2612"
    },
    {
      "channel": 2,
      "note": 50,
      "start": 26.138,
      "duration": 0.029,
      "velocity": 127,
      "chip": "ym2612"
    },
    {
      "channel": 4,
      "note": 98,
      "start": 26.1383,
      "duration": 0.0208,
      "velocity": 97,
      "chip": "ym2612"
    },
    {
      "channel": 0,
      "note": 75,
      "start": 26.2309,
      "duration": 0.0914,
      "velocity": 127,
      "chip": "ym2612"
    },
    {
      "channel": 1,
      "note": 43,
      "start": 26.2312,
      "duration": 0.0289,
      "velocity": 127,
      "chip": "ym2612"
    },
    {
      "channel": 2,
      "note": 50,
      "start": 26.2315,
      "duration": 0.0287,
      "velocity": 127,
      "chip": "ym2612"
    },
    {
      "channel": 3,
      "note": 48,
      "start": 26.2318,
      "duration": 0.0929,
      "velocity": 94,
      "chip": "ym2612"
    },
    {
      "channel": 4,
      "note": 98,
      "start": 26.2321,
      "duration": 0.0203,
      "velocity": 97,
      "chip": "ym2612"
    },
    {
      "channel": 0,
      "note": 66,
      "start": 26.324,
      "duration": 0.185,
      "velocity": 127,
      "chip": "ym2612"
    },
    {
      "channel": 1,
      "note": 43,
      "start": 26.3243,
      "duration": 0.0292,
      "velocity": 127,
      "chip": "ym2612"
    },
    {
      "channel": 2,
      "note": 50,
      "start": 26.3246,
      "duration": 0.0289,
      "velocity": 127,
      "chip": "ym2612"
    },
    {
      "channel": 3,
      "note": 50,
      "start": 26.3249,
      "duration": 0.1867,
      "velocity": 94,
      "chip": "ym2612"
    },
    {
      "channel": 4,
      "note": 110,
      "start": 26.3252,
      "duration": 0.0205,
      "velocity": 97,
      "chip": "ym2612"
    },
    {
      "channel": 5,
      "note": 36,
      "start": 26.3256,
      "duration": 0.1866,
      "velocity": 90,
      "chip": "ym2612"
    },
    {
      "channel": 1,
      "note": 43,
      "start": 26.4159,
      "duration": 0.0309,
      "velocity": 127,
      "chip": "ym2612"
    },
    {
      "channel": 2,
      "note": 50,
      "start": 26.4162,
      "duration": 0.0306,
      "velocity": 127,
      "chip": "ym2612"
    },
    {
      "channel": 4,
      "note": 98,
      "start": 26.4165,
      "duration": 0.0225,
      "velocity": 97,
      "chip": "ym2612"
    },
    {
      "channel": 0,
      "note": 53,
      "start": 26.5106,
      "duration": 0.0916,
      "velocity": 127,
      "chip": "ym2612"
    },
    {
      "channel": 1,
      "note": 43,
      "start": 26.5112,
      "duration": 0.029,
      "velocity": 127,
      "chip": "ym2612"
    },
    {
      "channel": 2,
      "note": 50,
      "start": 26.5115,
      "duration": 0.0288,
      "velocity": 127,
      "chip": "ym2612"
    },
    {
      "channel": 3,
      "note": 48,
      "start": 26.5117,
      "duration": 0.0929,
      "velocity": 94,
      "chip": "ym2612"
    },
    {
      "channel": 4,
      "note": 98,
      "start": 26.5121,
      "duration": 0.0203,
      "velocity": 97,
      "chip": "ym2612"
    },
    {
      "channel": 5,
      "note": 38,
      "start": 26.5124,
      "duration": 0.1861,
      "velocity": 90,
      "chip": "ym2612"
    },
    {
      "channel": 0,
      "note": 75,
      "start": 26.6039,
      "duration": 0.0916,
      "velocity": 127,
      "chip": "ym2612"
    },
    {
      "channel": 1,
      "note": 43,
      "start": 26.6042,
      "duration": 0.0291,
      "velocity": 127,
      "chip": "ym2612"
    },
    {
      "channel": 2,
      "note": 50,
      "start": 26.6045,
      "duration": 0.0289,
      "velocity": 127,
      "chip": "ym2612"
    },
    {
      "channel": 3,
      "note": 50,
      "start": 26.6048,
      "duration": 0.0931,
      "velocity": 94,
      "chip": "ym2612"
    },
    {
      "channel": 4,
      "note": 98,
      "start": 26.6051,
      "duration": 0.0205,
      "velocity": 97,
      "chip": "ym2612"
    },
    {
      "channel": 0,
      "note": 66,
      "start": 26.6973,
      "duration": 0.185,
      "velocity": 127,
      "chip": "ym2612"
    },
    {
      "channel": 1,
      "note": 44,
      "start": 26.6976,
      "duration": 0.1225,
      "velocity": 127,
      "chip": "ym2612"
    },
    {
      "channel": 2,
      "note": 51,
      "start": 26.6978,
      "duration": 0.1222,
      "velocity": 127,
      "chip": "ym2612"
    },
    {
      "channel": 3,
      "note": 53,
      "start": 26.6981,
      "duration": 0.0908,
      "velocity": 94,
      "chip": "ym2612"
    },
    {
      "channel": 4,
      "note": 110,
      "start": 26.6984,
      "duration": 0.0205,
      "velocity": 97,
      "chip": "ym2612"
    },
    {
      "channel": 5,
      "note": 41,
      "start": 26.6988,
      "duration": 0.1863,
      "velocity": 90,
      "chip": "ym2612"
    },
    {
      "channel": 3,
      "note": 55,
      "start": 26.7891,
      "duration": 0.0954,
      "velocity": 94,
      "chip": "ym2612"
    },
    {
      "channel": 4,
      "note": 98,
      "start": 26.7895,
      "duration": 0.0228,
      "velocity": 97,
      "chip": "ym2612"
    },
    {
      "channel": 0,
      "note": 53,
      "start": 26.8839,
      "duration": 0.0917,
      "velocity": 127,
      "chip": "ym2612"
    },
    {
      "channel": 1,
      "note": 43,
      "start": 26.8842,
      "duration": 0.0293,
      "velocity": 127,
      "chip": "ym2612"
    },
    {
      "channel": 2,
      "note": 50,
      "start": 26.8845,
      "duration": 0.029,
      "velocity": 127,
      "chip": "ym2612"
    },
    {
      "channel": 3,
      "note": 48,
      "start": 26.8847,
      "duration": 0.0931,
      "velocity": 94,
      "chip": "ym2612"
    },
    {
      "channel": 4,
      "note": 98,
      "start": 26.8851,
      "duration": 0.0206,
      "velocity": 97,
      "chip": "ym2612"
    },
    {
      "channel": 5,
      "note": 38,
      "start": 26.8854,
      "duration": 0.3729,
      "velocity": 90,
      "chip": "ym2612"
    },
    {
      "channel": 0,
      "note": 75,
      "start": 26.9772,
      "duration": 0.0917,
      "velocity": 127,
      "chip": "ym2612"
    },
    {
      "channel": 1,
      "note": 43,
      "start": 26.9775,
      "duration": 0.0292,
      "velocity": 127,
      "chip": "ym2612"
    },
    {
      "channel": 2,
      "note": 50,
      "start": 26.9778,
      "duration": 0.0289,
      "velocity": 127,
      "chip": "ym2612"
    },
    {
      "channel": 3,
      "note": 50,
      "start": 26.978,
      "duration": 0.1847,
      "velocity": 94,
      "chip": "ym2612"
    },
    {
      "channel": 4,
      "note": 98,
      "start": 26.9783,
      "duration": 0.0205,
      "velocity": 97,
      "chip": "ym2612"
    },
    {
      "channel": 0,
      "note": 66,
      "start": 27.0705,
      "duration": 0.185,
      "velocity": 127,
      "chip": "ym2612"
    },
    {
      "channel": 1,
      "note": 43,
      "start": 27.071,
      "duration": 0.0289,
      "velocity": 127,
      "chip": "ym2612"
    },
    {
      "channel": 2,
      "note": 50,
      "start": 27.0713,
      "duration": 0.0287,
      "velocity": 127,
      "chip": "ym2612"
    },
    {
      "channel": 4,
      "note": 110,
      "start": 27.0717,
      "duration": 0.0205,
      "velocity": 97,
      "chip": "ym2612"
    },
    {
      "channel": 1,
      "note": 43,
      "start": 27.1624,
      "duration": 0.0309,
      "velocity": 127,
      "chip": "ym2612"
    },
    {
      "channel": 2,
      "note": 50,
      "start": 27.1627,
      "duration": 0.0306,
      "velocity": 127,
      "chip": "ym2612"
    },
    {
      "channel": 3,
      "note": 48,
      "start": 27.1629,
      "duration": 0.0948,
      "velocity": 94,
      "chip": "ym2612"
    },
    {
      "channel": 4,
      "note": 98,
      "start": 27.1633,
      "duration": 0.0222,
      "velocity": 97,
      "chip": "ym2612"
    },
    {
      "channel": 0,
      "note": 53,
      "start": 27.2571,
      "duration": 0.0917,
      "velocity": 127,
      "chip": "ym2612"
    },
    {
      "channel": 1,
      "note": 43,
      "start": 27.2574,
      "duration": 0.0293,
      "velocity": 127,
      "chip": "ym2612"
    },
    {
      "channel": 2,
      "note": 50,
      "start": 27.2577,
      "duration": 0.029,
      "velocity": 127,
      "chip": "ym2612"
    },
    {
      "channel": 3,
      "note": 50,
      "start": 27.258,
      "duration": 0.1864,
      "velocity": 94,
      "chip": "ym2612"
    },
    {
      "channel": 4,
      "note": 98,
      "start": 27.2583,
      "duration": 0.0206,
      "velocity": 97,
      "chip": "ym2612"
    },
    {
      "channel": 5,
      "note": 31,
      "start": 27.2587,
      "duration": 0.2778,
      "velocity": 90,
      "chip": "ym2612"
    },
    {
      "channel": 0,
      "note": 75,
      "start": 27.3504,
      "duration": 0.0917,
      "velocity": 127,
      "chip": "ym2612"
    },
    {
      "channel": 1,
      "note": 43,
      "start": 27.351,
      "duration": 0.0289,
      "velocity": 127,
      "chip": "ym2612"
    },
    {
      "channel": 2,
      "note": 50,
      "start": 27.3513,
      "duration": 0.0287,
      "velocity": 127,
      "chip": "ym2612"
    },
    {
      "channel": 4,
      "note": 98,
      "start": 27.3516,
      "duration": 0.0205,
      "velocity": 97,
      "chip": "ym2612"
    },
    {
      "channel": 0,
      "note": 66,
      "start": 27.4437,
      "duration": 0.185,
      "velocity": 127,
      "chip": "ym2612"
    },
    {
      "channel": 1,
      "note": 43,
      "start": 27.444,
      "duration": 0.0292,
      "velocity": 127,
      "chip": "ym2612"
    },
    {
      "channel": 2,
      "note": 50,
      "start": 27.4443,
      "duration": 0.0289,
      "velocity": 127,
      "chip": "ym2612"
    },
    {
      "channel": 3,
      "note": 48,
      "start": 27.4446,
      "duration": 0.0914,
      "velocity": 94,
      "chip": "ym2612"
    },
    {
      "channel": 4,
      "note": 110,
      "start": 27.4449,
      "duration": 0.0205,
      "velocity": 97,
      "chip": "ym2612"
    },
    {
      "channel": 1,
      "note": 43,
      "start": 27.5356,
      "duration": 0.0309,
      "velocity": 127,
      "chip": "ym2612"
    },
    {
      "channel": 2,
      "note": 50,
      "start": 27.5359,
      "duration": 0.0306,
      "velocity": 127,
      "chip": "ym2612"
    },
    {
      "channel": 3,
      "note": 50,
      "start": 27.5362,
      "duration": 0.1881,
      "velocity": 94,
      "chip": "ym2612"
    },
    {
      "channel": 4,
      "note": 98,
      "start": 27.5365,
      "duration": 0.0222,
      "velocity": 97,
      "chip": "ym2612"
    },
    {
      "channel": 5,
      "note": 33,
      "start": 27.5369,
      "duration": 0.2813,
      "velocity": 90,
      "chip": "ym2612"
    },
    {
      "channel": 0,
      "note": 53,
      "start": 27.6304,
      "duration": 0.0916,
      "velocity": 127,
      "chip": "ym2612"
    },
    {
      "channel": 1,
      "note": 43,
      "start": 27.6309,
      "duration": 0.029,
      "velocity": 127,
      "chip": "ym2612"
    },
    {
      "channel": 2,
      "note": 50,
      "start": 27.6312,
      "duration": 0.0287,
      "velocity": 127,
      "chip": "ym2612"
    },
    {
      "channel": 4,
      "note": 98,
      "start": 27.6316,
      "duration": 0.0206,
      "velocity": 97,
      "chip": "ym2612"
    },
    {
      "channel": 0,
      "note": 75,
      "start": 27.7237,
      "duration": 0.0917,
      "velocity": 127,
      "chip": "ym2612"
    },
    {
      "channel": 1,
      "note": 43,
      "start": 27.724,
      "duration": 0.0292,
      "velocity": 127,
      "chip": "ym2612"
    },
    {
      "channel": 2,
      "note": 50,
      "start": 27.7243,
      "duration": 0.0289,
      "velocity": 127,
      "chip": "ym2612"
    },
    {
      "channel": 3,
      "note": 48,
      "start": 27.7245,
      "duration": 0.0931,
      "velocity": 94,
      "chip": "ym2612"
    },
    {
      "channel": 4,
      "note": 98,
      "start": 27.7249,
      "duration": 0.0205,
      "velocity": 97,
      "chip": "ym2612"
    },
    {
      "channel": 0,
      "note": 66,
      "start": 27.817,
      "duration": 0.185,
      "velocity": 127,
      "chip": "ym2612"
    },
    {
      "channel": 1,
      "note": 43,
      "start": 27.8173,
      "duration": 0.0292,
      "velocity": 127,
      "chip": "ym2612"
    },
    {
      "channel": 2,
      "note": 50,
      "start": 27.8176,
      "duration": 0.0289,
      "velocity": 127,
      "chip": "ym2612"
    },
    {
      "channel": 3,
      "note": 50,
      "start": 27.8178,
      "duration": 0.1864,
      "velocity": 94,
      "chip": "ym2612"
    },
    {
      "channel": 4,
      "note": 110,
      "start": 27.8181,
      "duration": 0.0205,
      "velocity": 97,
      "chip": "ym2612"
    },
    {
      "channel": 5,
      "note": 36,
      "start": 27.8185,
      "duration": 0.1863,
      "velocity": 90,
      "chip": "ym2612"
    },
    {
      "channel": 1,
      "note": 43,
      "start": 27.9089,
      "duration": 0.0309,
      "velocity": 127,
      "chip": "ym2612"
    },
    {
      "channel": 2,
      "note": 50,
      "start": 27.9092,
      "duration": 0.0306,
      "velocity": 127,
      "chip": "ym2612"
    },
    {
      "channel": 4,
      "note": 98,
      "start": 27.9095,
      "duration": 0.0225,
      "velocity": 97,
      "chip": "ym2612"
    },
    {
      "channel": 0,
      "note": 53,
      "start": 28.0036,
      "duration": 0.0916,
      "velocity": 127,
      "chip": "ym2612"
    },
    {
      "channel": 1,
      "note": 43,
      "start": 28.0039,
      "duration": 0.0292,
      "velocity": 127,
      "chip": "ym2612"
    },
    {
      "channel": 2,
      "note": 50,
      "start": 28.0042,
      "duration": 0.029,
      "velocity": 127,
      "chip": "ym2612"
    },
    {
      "channel": 3,
      "note": 48,
      "start": 28.0045,
      "duration": 0.0931,
      "velocity": 94,
      "chip": "ym2612"
    },
    {
      "channel": 4,
      "note": 98,
      "start": 28.0048,
      "duration": 0.0206,
      "velocity": 97,
      "chip": "ym2612"
    },
    {
      "channel": 5,
      "note": 38,
      "start": 28.0052,
      "duration": 0.1866,
      "velocity": 90,
      "chip": "ym2612"
    },
    {
      "channel": 0,
      "note": 75,
      "start": 28.0969,
      "duration": 0.0916,
      "velocity": 127,
      "chip": "ym2612"
    },
    {
      "channel": 1,
      "note": 43,
      "start": 28.0972,
      "duration": 0.0291,
      "velocity": 127,
      "chip": "ym2612"
    },
    {
      "channel": 2,
      "note": 50,
      "start": 28.0975,
      "duration": 0.0289,
      "velocity": 127,
      "chip": "ym2612"
    },
    {
      "channel": 3,
      "note": 50,
      "start": 28.0978,
      "duration": 0.0934,
      "velocity": 94,
      "chip": "ym2612"
    },
    {
      "channel": 4,
      "note": 98,
      "start": 28.0981,
      "duration": 0.0205,
      "velocity": 97,
      "chip": "ym2612"
    },
    {
      "channel": 0,
      "note": 66,
      "start": 28.1902,
      "duration": 0.185,
      "velocity": 127,
      "chip": "ym2612"
    },
    {
      "channel": 1,
      "note": 41,
      "start": 28.1905,
      "duration": 0.1224,
      "velocity": 127,
      "chip": "ym2612"
    },
    {
      "channel": 2,
      "note": 48,
      "start": 28.1912,
      "duration": 0.1219,
      "velocity": 127,
      "chip": "ym2612"
    },
    {
      "channel": 3,
      "note": 53,
      "start": 28.1914,
      "duration": 0.0905,
      "velocity": 94,
      "chip": "ym2612"
    },
    {
      "channel": 4,
      "note": 110,
      "start": 28.1918,
      "duration": 0.0202,
      "velocity": 97,
      "chip": "ym2612"
    },
    {
      "channel": 5,
      "note": 41,
      "start": 28.1921,
      "duration": 0.186,
      "velocity": 90,
      "chip": "ym2612"
    },
    {
      "channel": 3,
      "note": 55,
      "start": 28.2821,
      "duration": 0.0954,
      "velocity": 94,
      "chip": "ym2612"
    },
    {
      "channel": 4,
      "note": 98,
      "start": 28.2824,
      "duration": 0.0228,
      "velocity": 97,
      "chip": "ym2612"
    },
    {
      "channel": 0,
      "note": 53,
      "start": 28.3769,
      "duration": 0.0917,
      "velocity": 127,
      "chip": "ym2612"
    },
    {
      "channel": 1,
      "note": 43,
      "start": 28.3772,
      "duration": 0.0293,
      "velocity": 127,
      "chip": "ym2612"
    },
    {
      "channel": 2,
      "note": 50,
      "start": 28.3775,
      "duration": 0.029,
      "velocity": 127,
      "chip": "ym2612"
    },
    {
      "channel": 3,
      "note": 48,
      "start": 28.3777,
      "duration": 0.0933,
      "velocity": 94,
      "chip": "ym2612"
    },
    {
      "channel": 4,
      "note": 98,
      "start": 28.3781,
      "duration": 0.0206,
      "velocity": 97,
      "chip": "ym2612"
    },
    {
      "channel": 5,
      "note": 38,
      "start": 28.3784,
      "duration": 0.3732,
      "velocity": 90,
      "chip": "ym2612"
    },
    {
      "channel": 0,
      "note": 75,
      "start": 28.4702,
      "duration": 0.0917,
      "velocity": 127,
      "chip": "ym2612"
    },
    {
      "channel": 1,
      "note": 43,
      "start": 28.4705,
      "duration": 0.0292,
      "velocity": 127,
      "chip": "ym2612"
    },
    {
      "channel": 2,
      "note": 50,
      "start": 28.471,
      "duration": 0.0287,
      "velocity": 127,
      "chip": "ym2612"
    },
    {
      "channel": 3,
      "note": 50,
      "start": 28.4712,
      "duration": 0.1845,
      "velocity": 94,
      "chip": "ym2612"
    },
    {
      "channel": 4,
      "note": 98,
      "start": 28.4716,
      "duration": 0.0203,
      "velocity": 97,
      "chip": "ym2612"
    },
    {
      "channel": 0,
      "note": 66,
      "start": 28.5635,
      "duration": 0.185,
      "velocity": 127,
      "chip": "ym2612"
    },
    {
      "channel": 1,
      "note": 43,
      "start": 28.5638,
      "duration": 0.0292,
      "velocity": 127,
      "chip": "ym2612"
    },
    {
      "channel": 2,
      "note": 50,
      "start": 28.5641,
      "duration": 0.0289,
      "velocity": 127,
      "chip": "ym2612"
    },
    {
      "channel": 4,
      "note": 110,
      "start": 28.5644,
      "duration": 0.0208,
      "velocity": 97,
      "chip": "ym2612"
    },
    {
      "channel": 1,
      "note": 43,
      "start": 28.6554,
      "duration": 0.0309,
      "velocity": 127,
      "chip": "ym2612"
    },
    {
      "channel": 2,
      "note": 50,
      "start": 28.6557,
      "duration": 0.0306,
      "velocity": 127,
      "chip": "ym2612"
    },
    {
      "channel": 3,
      "note": 48,
      "start": 28.6559,
      "duration": 0.0951,
      "velocity": 94,
      "chip": "ym2612"
    },
    {
      "channel": 4,
      "note": 98,
      "start": 28.6563,
      "duration": 0.0222,
      "velocity": 97,
      "chip": "ym2612"
    },
    {
      "channel": 0,
      "note": 53,
      "start": 28.7501,
      "duration": 0.0917,
      "velocity": 127,
      "chip": "ym2612"
    },
    {
      "channel": 1,
      "note": 43,
      "start": 28.7504,
      "duration": 0.0293,
      "velocity": 127,
      "chip": "ym2612"
    },
    {
      "channel": 2,
      "note": 50,
      "start": 28.751,
      "duration": 0.0288,
      "velocity": 127,
      "chip": "ym2612"
    },
    {
      "channel": 3,
      "note": 50,
      "start": 28.7512,
      "duration": 0.1862,
      "velocity": 94,
      "chip": "ym2612"
    },
    {
      "channel": 4,
      "note": 98,
      "start": 28.7515,
      "duration": 0.0204,
      "velocity": 97,
      "chip": "ym2612"
    },
    {
      "channel": 5,
      "note": 31,
      "start": 28.7519,
      "duration": 0.2776,
      "velocity": 90,
      "chip": "ym2612"
    },
    {
      "channel": 0,
      "note": 75,
      "start": 28.8434,
      "duration": 0.0917,
      "velocity": 127,
      "chip": "ym2612"
    },
    {
      "channel": 1,
      "note": 43,
      "start": 28.8437,
      "duration": 0.0292,
      "velocity": 127,
      "chip": "ym2612"
    },
    {
      "channel": 2,
      "note": 50,
      "start": 28.844,
      "duration": 0.0289,
      "velocity": 127,
      "chip": "ym2612"
    },
    {
      "channel": 4,
      "note": 98,
      "start": 28.8444,
      "duration": 0.0208,
      "velocity": 97,
      "chip": "ym2612"
    },
    {
      "channel": 0,
      "note": 66,
      "start": 28.9367,
      "duration": 0.185,
      "velocity": 127,
      "chip": "ym2612"
    },
    {
      "channel": 1,
      "note": 43,
      "start": 28.937,
      "duration": 0.0292,
      "velocity": 127,
      "chip": "ym2612"
    },
    {
      "channel": 2,
      "note": 50,
      "start": 28.9373,
      "duration": 0.0289,
      "velocity": 127,
      "chip": "ym2612"
    },
    {
      "channel": 3,
      "note": 48,
      "start": 28.9376,
      "duration": 0.0914,
      "velocity": 94,
      "chip": "ym2612"
    },
    {
      "channel": 4,
      "note": 110,
      "start": 28.9379,
      "duration": 0.0205,
      "velocity": 97,
      "chip": "ym2612"
    },
    {
      "channel": 1,
      "note": 43,
      "start": 29.0286,
      "duration": 0.0309,
      "velocity": 127,
      "chip": "ym2612"
    },
    {
      "channel": 2,
      "note": 50,
      "start": 29.0289,
      "duration": 0.0306,
      "velocity": 127,
      "chip": "ym2612"
    },
    {
      "channel": 3,
      "note": 50,
      "start": 29.0292,
      "duration": 0.1881,
      "velocity": 94,
      "chip": "ym2612"
    },
    {
      "channel": 4,
      "note": 98,
      "start": 29.0295,
      "duration": 0.0222,
      "velocity": 97,
      "chip": "ym2612"
    },
    {
      "channel": 5,
      "note": 33,
      "start": 29.0299,
      "duration": 0.2816,
      "velocity": 90,
      "chip": "ym2612"
    },
    {
      "channel": 0,
      "note": 53,
      "start": 29.1234,
      "duration": 0.0916,
      "velocity": 127,
      "chip": "ym2612"
    },
    {
      "channel": 1,
      "note": 43,
      "start": 29.1237,
      "duration": 0.0292,
      "velocity": 127,
      "chip": "ym2612"
    },
    {
      "channel": 2,
      "note": 50,
      "start": 29.124,
      "duration": 0.029,
      "velocity": 127,
      "chip": "ym2612"
    },
    {
      "channel": 4,
      "note": 98,
      "start": 29.1243,
      "duration": 0.0208,
      "velocity": 97,
      "chip": "ym2612"
    },
    {
      "channel": 0,
      "note": 75,
      "start": 29.2167,
      "duration": 0.0917,
      "velocity": 127,
      "chip": "ym2612"
    },
    {
      "channel": 1,
      "note": 43,
      "start": 29.217,
      "duration": 0.0292,
      "velocity": 127,
      "chip": "ym2612"
    },
    {
      "channel": 2,
      "note": 50,
      "start": 29.2173,
      "duration": 0.0289,
      "velocity": 127,
      "chip": "ym2612"
    },
    {
      "channel": 3,
      "note": 48,
      "start": 29.2175,
      "duration": 0.0931,
      "velocity": 94,
      "chip": "ym2612"
    },
    {
      "channel": 4,
      "note": 98,
      "start": 29.2178,
      "duration": 0.0205,
      "velocity": 97,
      "chip": "ym2612"
    },
    {
      "channel": 0,
      "note": 66,
      "start": 29.31,
      "duration": 0.185,
      "velocity": 127,
      "chip": "ym2612"
    },
    {
      "channel": 1,
      "note": 43,
      "start": 29.3103,
      "duration": 0.0292,
      "velocity": 127,
      "chip": "ym2612"
    },
    {
      "channel": 2,
      "note": 50,
      "start": 29.3106,
      "duration": 0.0289,
      "velocity": 127,
      "chip": "ym2612"
    },
    {
      "channel": 3,
      "note": 50,
      "start": 29.3111,
      "duration": 0.1862,
      "velocity": 94,
      "chip": "ym2612"
    },
    {
      "channel": 4,
      "note": 110,
      "start": 29.3114,
      "duration": 0.0203,
      "velocity": 97,
      "chip": "ym2612"
    },
    {
      "channel": 5,
      "note": 36,
      "start": 29.3118,
      "duration": 0.1861,
      "velocity": 90,
      "chip": "ym2612"
    },
    {
      "channel": 1,
      "note": 43,
      "start": 29.4019,
      "duration": 0.0309,
      "velocity": 127,
      "chip": "ym2612"
    },
    {
      "channel": 2,
      "note": 50,
      "start": 29.4022,
      "duration": 0.0306,
      "velocity": 127,
      "chip": "ym2612"
    },
    {
      "channel": 4,
      "note": 98,
      "start": 29.4025,
      "duration": 0.0225,
      "velocity": 97,
      "chip": "ym2612"
    },
    {
      "channel": 0,
      "note": 53,
      "start": 29.4966,
      "duration": 0.0916,
      "velocity": 127,
      "chip": "ym2612"
    },
    {
      "channel": 1,
      "note": 43,
      "start": 29.4969,
      "duration": 0.0292,
      "velocity": 127,
      "chip": "ym2612"
    },
    {
      "channel": 2,
      "note": 50,
      "start": 29.4972,
      "duration": 0.029,
      "velocity": 127,
      "chip": "ym2612"
    },
    {
      "channel": 3,
      "note": 48,
      "start": 29.4975,
      "duration": 0.0931,
      "velocity": 94,
      "chip": "ym2612"
    },
    {
      "channel": 4,
      "note": 98,
      "start": 29.4978,
      "duration": 0.0206,
      "velocity": 97,
      "chip": "ym2612"
    },
    {
      "channel": 5,
      "note": 38,
      "start": 29.4982,
      "duration": 0.1863,
      "velocity": 90,
      "chip": "ym2612"
    },
    {
      "channel": 0,
      "note": 75,
      "start": 29.5899,
      "duration": 0.0917,
      "velocity": 127,
      "chip": "ym2612"
    },
    {
      "channel": 1,
      "note": 43,
      "start": 29.5902,
      "duration": 0.0292,
      "velocity": 127,
      "chip": "ym2612"
    },
    {
      "channel": 2,
      "note": 50,
      "start": 29.5905,
      "duration": 0.0289,
      "velocity": 127,
      "chip": "ym2612"
    },
    {
      "channel": 3,
      "note": 50,
      "start": 29.591,
      "duration": 0.0929,
      "velocity": 94,
      "chip": "ym2612"
    },
    {
      "channel": 4,
      "note": 98,
      "start": 29.5914,
      "duration": 0.0202,
      "velocity": 97,
      "chip": "ym2612"
    },
    {
      "channel": 0,
      "note": 66,
      "start": 29.6832,
      "duration": 0.1849,
      "velocity": 127,
      "chip": "ym2612"
    },
    {
      "channel": 1,
      "note": 44,
      "start": 29.6835,
      "duration": 0.1224,
      "velocity": 127,
      "chip": "ym2612"
    },
    {
      "channel": 2,
      "note": 51,
      "start": 29.6838,
      "duration": 0.1222,
      "velocity": 127,
      "chip": "ym2612"
    },
    {
      "channel": 3,
      "note": 53,
      "start": 29.6841,
      "duration": 0.0908,
      "velocity": 94,
      "chip": "ym2612"
    },
    {
      "channel": 4,
      "note": 110,
      "start": 29.6844,
      "duration": 0.0205,
      "velocity": 97,
      "chip": "ym2612"
    },
    {
      "channel": 5,
      "note": 41,
      "start": 29.6848,
      "duration": 0.1866,
      "velocity": 90,
      "chip": "ym2612"
    },
    {
      "channel": 3,
      "note": 55,
      "start": 29.7751,
      "duration": 0.0954,
      "velocity": 94,
      "chip": "ym2612"
    },
    {
      "channel": 4,
      "note": 98,
      "start": 29.7754,
      "duration": 0.0228,
      "velocity": 97,
      "chip": "ym2612"
    },
    {
      "channel": 0,
      "note": 53,
      "start": 29.8699,
      "duration": 0.0917,
      "velocity": 127,
      "chip": "ym2612"
    },
    {
      "channel": 1,
      "note": 43,
      "start": 29.8702,
      "duration": 0.0293,
      "velocity": 127,
      "chip": "ym2612"
    },
    {
      "channel": 2,
      "note": 50,
      "start": 29.8705,
      "duration": 0.029,
      "velocity": 127,
      "chip": "ym2612"
    },
    {
      "channel": 3,
      "note": 48,
      "start": 29.871,
      "duration": 0.0928,
      "velocity": 94,
      "chip": "ym2612"
    },
    {
      "channel": 4,
      "note": 98,
      "start": 29.8713,
      "duration": 0.0204,
      "velocity": 97,
      "chip": "ym2612"
    },
    {
      "channel": 5,
      "note": 38,
      "start": 29.8717,
      "duration": 0.3727,
      "velocity": 90,
      "chip": "ym2612"
    },
    {
      "channel": 0,
      "note": 75,
      "start": 29.9632,
      "duration": 0.0917,
      "velocity": 127,
      "chip": "ym2612"
    },
    {
      "channel": 1,
      "note": 43,
      "start": 29.9634,
      "duration": 0.0292,
      "velocity": 127,
      "chip": "ym2612"
    },
    {
      "channel": 2,
      "note": 50,
      "start": 29.9637,
      "duration": 0.0289,
      "velocity": 127,
      "chip": "ym2612"
    },
    {
      "channel": 3,
      "note": 50,
      "start": 29.964,
      "duration": 0.1847,
      "velocity": 94,
      "chip": "ym2612"
    },
    {
      "channel": 4,
      "note": 98,
      "start": 29.9643,
      "duration": 0.0205,
      "velocity": 97,
      "chip": "ym2612"
    },
    {
      "channel": 0,
      "note": 66,
      "start": 30.0565,
      "duration": 0.185,
      "velocity": 127,
      "chip": "ym2612"
    },
    {
      "channel": 1,
      "note": 43,
      "start": 30.0568,
      "duration": 0.0292,
      "velocity": 127,
      "chip": "ym2612"
    },
    {
      "channel": 2,
      "note": 50,
      "start": 30.0571,
      "duration": 0.0289,
      "velocity": 127,
      "chip": "ym2612"
    },
    {
      "channel": 4,
      "note": 110,
      "start": 30.0574,
      "duration": 0.0208,
      "velocity": 97,
      "chip": "ym2612"
    },
    {
      "channel": 1,
      "note": 43,
      "start": 30.1484,
      "duration": 0.0309,
      "velocity": 127,
      "chip": "ym2612"
    },
    {
      "channel": 2,
      "note": 50,
      "start": 30.1487,
      "duration": 0.0306,
      "velocity": 127,
      "chip": "ym2612"
    },
    {
      "channel": 3,
      "note": 48,
      "start": 30.1489,
      "duration": 0.0948,
      "velocity": 94,
      "chip": "ym2612"
    },
    {
      "channel": 4,
      "note": 98,
      "start": 30.1493,
      "duration": 0.0222,
      "velocity": 97,
      "chip": "ym2612"
    },
    {
      "channel": 0,
      "note": 53,
      "start": 30.2431,
      "duration": 0.0917,
      "velocity": 127,
      "chip": "ym2612"
    },
    {
      "channel": 1,
      "note": 43,
      "start": 30.2434,
      "duration": 0.0293,
      "velocity": 127,
      "chip": "ym2612"
    },
    {
      "channel": 2,
      "note": 50,
      "start": 30.2437,
      "duration": 0.029,
      "velocity": 127,
      "chip": "ym2612"
    },
    {
      "channel": 3,
      "note": 50,
      "start": 30.2439,
      "duration": 0.1864,
      "velocity": 94,
      "chip": "ym2612"
    },
    {
      "channel": 4,
      "note": 98,
      "start": 30.2443,
      "duration": 0.0206,
      "velocity": 97,
      "chip": "ym2612"
    },
    {
      "channel": 5,
      "note": 31,
      "start": 30.2447,
      "duration": 0.2779,
      "velocity": 90,
      "chip": "ym2612"
    },
    {
      "channel": 0,
      "note": 75,
      "start": 30.3364,
      "duration": 0.0917,
      "velocity": 127,
      "chip": "ym2612"
    },
    {
      "channel": 1,
      "note": 43,
      "start": 30.3367,
      "duration": 0.0292,
      "velocity": 127,
      "chip": "ym2612"
    },
    {
      "channel": 2,
      "note": 50,
      "start": 30.337,
      "duration": 0.0289,
      "velocity": 127,
      "chip": "ym2612"
    },
    {
      "channel": 4,
      "note": 98,
      "start": 30.3373,
      "duration": 0.0208,
      "velocity": 97,
      "chip": "ym2612"
    },
    {
      "channel": 0,
      "note": 66,
      "start": 30.4297,
      "duration": 0.185,
      "velocity": 127,
      "chip": "ym2612"
    },
    {
      "channel": 1,
      "note": 43,
      "start": 30.43,
      "duration": 0.0292,
      "velocity": 127,
      "chip": "ym2612"
    },
    {
      "channel": 2,
      "note": 50,
      "start": 30.4303,
      "duration": 0.0289,
      "velocity": 127,
      "chip": "ym2612"
    },
    {
      "channel": 3,
      "note": 48,
      "start": 30.4306,
      "duration": 0.0914,
      "velocity": 94,
      "chip": "ym2612"
    },
    {
      "channel": 4,
      "note": 110,
      "start": 30.4312,
      "duration": 0.0203,
      "velocity": 97,
      "chip": "ym2612"
    },
    {
      "channel": 1,
      "note": 43,
      "start": 30.5216,
      "duration": 0.0309,
      "velocity": 127,
      "chip": "ym2612"
    },
    {
      "channel": 2,
      "note": 50,
      "start": 30.5219,
      "duration": 0.0306,
      "velocity": 127,
      "chip": "ym2612"
    },
    {
      "channel": 3,
      "note": 50,
      "start": 30.5222,
      "duration": 0.1882,
      "velocity": 94,
      "chip": "ym2612"
    },
    {
      "channel": 4,
      "note": 98,
      "start": 30.5225,
      "duration": 0.0222,
      "velocity": 97,
      "chip": "ym2612"
    },
    {
      "channel": 5,
      "note": 33,
      "start": 30.5229,
      "duration": 0.2813,
      "velocity": 90,
      "chip": "ym2612"
    },
    {
      "channel": 0,
      "note": 53,
      "start": 30.6164,
      "duration": 0.0917,
      "velocity": 127,
      "chip": "ym2612"
    },
    {
      "channel": 1,
      "note": 43,
      "start": 30.6167,
      "duration": 0.0292,
      "velocity": 127,
      "chip": "ym2612"
    },
    {
      "channel": 2,
      "note": 50,
      "start": 30.617,
      "duration": 0.029,
      "velocity": 127,
      "chip": "ym2612"
    },
    {
      "channel": 4,
      "note": 98,
      "start": 30.6173,
      "duration": 0.0208,
      "velocity": 97,
      "chip": "ym2612"
    },
    {
      "channel": 0,
      "note": 75,
      "start": 30.7097,
      "duration": 0.0916,
      "velocity": 127,
      "chip": "ym2612"
    },
    {
      "channel": 1,
      "note": 43,
      "start": 30.71,
      "duration": 0.0291,
      "velocity": 127,
      "chip": "ym2612"
    },
    {
      "channel": 2,
      "note": 50,
      "start": 30.7103,
      "duration": 0.0289,
      "velocity": 127,
      "chip": "ym2612"
    },
    {
      "channel": 3,
      "note": 48,
      "start": 30.7105,
      "duration": 0.0931,
      "velocity": 94,
      "chip": "ym2612"
    },
    {
      "channel": 4,
      "note": 98,
      "start": 30.7111,
      "duration": 0.0202,
      "velocity": 97,
      "chip": "ym2612"
    },
    {
      "channel": 0,
      "note": 66,
      "start": 30.803,
      "duration": 0.185,
      "velocity": 127,
      "chip": "ym2612"
    },
    {
      "channel": 1,
      "note": 43,
      "start": 30.8033,
      "duration": 0.0292,
      "velocity": 127,
      "chip": "ym2612"
    },
    {
      "channel": 2,
      "note": 50,
      "start": 30.8036,
      "duration": 0.0289,
      "velocity": 127,
      "chip": "ym2612"
    },
    {
      "channel": 3,
      "note": 50,
      "start": 30.8038,
      "duration": 0.1865,
      "velocity": 94,
      "chip": "ym2612"
    },
    {
      "channel": 4,
      "note": 110,
      "start": 30.8041,
      "duration": 0.0206,
      "velocity": 97,
      "chip": "ym2612"
    },
    {
      "channel": 5,
      "note": 36,
      "start": 30.8045,
      "duration": 0.1866,
      "velocity": 90,
      "chip": "ym2612"
    },
    {
      "channel": 1,
      "note": 43,
      "start": 30.8949,
      "duration": 0.0309,
      "velocity": 127,
      "chip": "ym2612"
    },
    {
      "channel": 2,
      "note": 50,
      "start": 30.8952,
      "duration": 0.0306,
      "velocity": 127,
      "chip": "ym2612"
    },
    {
      "channel": 4,
      "note": 98,
      "start": 30.8955,
      "duration": 0.0225,
      "velocity": 97,
      "chip": "ym2612"
    },
    {
      "channel": 0,
      "note": 53,
      "start": 30.9896,
      "duration": 0.0916,
      "velocity": 127,
      "chip": "ym2612"
    },
    {
      "channel": 1,
      "note": 43,
      "start": 30.9899,
      "duration": 0.0292,
      "velocity": 127,
      "chip": "ym2612"
    },
    {
      "channel": 2,
      "note": 50,
      "start": 30.9902,
      "duration": 0.029,
      "velocity": 127,
      "chip": "ym2612"
    },
    {
      "channel": 3,
      "note": 48,
      "start": 30.9905,
      "duration": 0.0931,
      "velocity": 94,
      "chip": "ym2612"
    },
    {
      "channel": 4,
      "note": 98,
      "start": 30.991,
      "duration": 0.0203,
      "velocity": 97,
      "chip": "ym2612"
    },
    {
      "channel": 5,
      "note": 38,
      "start": 30.9915,
      "duration": 0.186,
      "velocity": 90,
      "chip": "ym2612"
    },
    {
      "channel": 0,
      "note": 75,
      "start": 31.0829,
      "duration": 0.0917,
      "velocity": 127,
      "chip": "ym2612"
    },
    {
      "channel": 1,
      "note": 43,
      "start": 31.0832,
      "duration": 0.0292,
      "velocity": 127,
      "chip": "ym2612"
    },
    {
      "channel": 2,
      "note": 50,
      "start": 31.0835,
      "duration": 0.0289,
      "velocity": 127,
      "chip": "ym2612"
    },
    {
      "channel": 3,
      "note": 50,
      "start": 31.0837,
      "duration": 0.0932,
      "velocity": 94,
      "chip": "ym2612"
    },
    {
      "channel": 4,
      "note": 98,
      "start": 31.0841,
      "duration": 0.0205,
      "velocity": 97,
      "chip": "ym2612"
    },
    {
      "channel": 0,
      "note": 66,
      "start": 31.1763,
      "duration": 0.1849,
      "velocity": 127,
      "chip": "ym2612"
    },
    {
      "channel": 1,
      "note": 41,
      "start": 31.1766,
      "duration": 0.1224,
      "velocity": 127,
      "chip": "ym2612"
    },
    {
      "channel": 2,
      "note": 48,
      "start": 31.1769,
      "duration": 0.1222,
      "velocity": 127,
      "chip": "ym2612"
    },
    {
      "channel": 3,
      "note": 53,
      "start": 31.1771,
      "duration": 0.0908,
      "velocity": 94,
      "chip": "ym2612"
    },
    {
      "channel": 4,
      "note": 110,
      "start": 31.1774,
      "duration": 0.0205,
      "velocity": 97,
      "chip": "ym2612"
    },
    {
      "channel": 5,
      "note": 41,
      "start": 31.1778,
      "duration": 0.1892,
      "velocity": 90,
      "chip": "ym2612"
    },
    {
      "channel": 3,
      "note": 55,
      "start": 31.2681,
      "duration": 0.0983,
      "velocity": 94,
      "chip": "ym2612"
    },
    {
      "channel": 4,
      "note": 98,
      "start": 31.2684,
      "duration": 0.0228,
      "velocity": 97,
      "chip": "ym2612"
    },
    {
      "channel": 0,
      "note": 53,
      "start": 31.3629,
      "duration": 0.0917,
      "velocity": 127,
      "chip": "ym2612"
    },
    {
      "channel": 1,
      "note": 53,
      "start": 31.3646,
      "duration": 0.0278,
      "velocity": 127,
      "chip": "ym2612"
    },
    {
      "channel": 2,
      "note": 46,
      "start": 31.3663,
      "duration": 0.0261,
      "velocity": 127,
      "chip": "ym2612"
    },
    {
      "channel": 3,
      "note": 48,
      "start": 31.3666,
      "duration": 0.0902,
      "velocity": 94,
      "chip": "ym2612"
    },
    {
      "channel": 4,
      "note": 98,
      "start": 31.3669,
      "duration": 0.0177,
      "velocity": 97,
      "chip": "ym2612"
    },
    {
      "channel": 5,
      "note": 38,
      "start": 31.3673,
      "duration": 0.37,
      "velocity": 90,
      "chip": "ym2612"
    },
    {
      "channel": 0,
      "note": 75,
      "start": 31.4562,
      "duration": 0.0917,
      "velocity": 127,
      "chip": "ym2612"
    },
    {
      "channel": 1,
      "note": 53,
      "start": 31.4564,
      "duration": 0.0292,
      "velocity": 127,
      "chip": "ym2612"
    },
    {
      "channel": 2,
      "note": 46,
      "start": 31.4567,
      "duration": 0.0289,
      "velocity": 127,
      "chip": "ym2612"
    },
    {
      "channel": 3,
      "note": 50,
      "start": 31.457,
      "duration": 0.1848,
      "velocity": 94,
      "chip": "ym2612"
    },
    {
      "channel": 4,
      "note": 98,
      "start": 31.4573,
      "duration": 0.0205,
      "velocity": 97,
      "chip": "ym2612"
    },
    {
      "channel": 0,
      "note": 66,
      "start": 31.5495,
      "duration": 0.185,
      "velocity": 127,
      "chip": "ym2612"
    },
    {
      "channel": 1,
      "note": 53,
      "start": 31.5498,
      "duration": 0.0292,
      "velocity": 127,
      "chip": "ym2612"
    },
    {
      "channel": 2,
      "note": 46,
      "start": 31.55,
      "duration": 0.0289,
      "velocity": 127,
      "chip": "ym2612"
    },
    {
      "channel": 4,
      "note": 110,
      "start": 31.5504,
      "duration": 0.0208,
      "velocity": 97,
      "chip": "ym2612"
    },
    {
      "channel": 1,
      "note": 53,
      "start": 31.6414,
      "duration": 0.0308,
      "velocity": 127,
      "chip": "ym2612"
    },
    {
      "channel": 2,
      "note": 46,
      "start": 31.6417,
      "duration": 0.0306,
      "velocity": 127,
      "chip": "ym2612"
    },
    {
      "channel": 3,
      "note": 48,
      "start": 31.642,
      "duration": 0.0948,
      "velocity": 94,
      "chip": "ym2612"
    },
    {
      "channel": 4,
      "note": 98,
      "start": 31.6423,
      "duration": 0.0222,
      "velocity": 97,
      "chip": "ym2612"
    },
    {
      "channel": 0,
      "note": 53,
      "start": 31.7361,
      "duration": 0.0917,
      "velocity": 127,
      "chip": "ym2612"
    },
    {
      "channel": 1,
      "note": 53,
      "start": 31.7364,
      "duration": 0.0293,
      "velocity": 127,
      "chip": "ym2612"
    },
    {
      "channel": 2,
      "note": 46,
      "start": 31.7367,
      "duration": 0.029,
      "velocity": 127,
      "chip": "ym2612"
    },
    {
      "channel": 3,
      "note": 50,
      "start": 31.7369,
      "duration": 0.1864,
      "velocity": 94,
      "chip": "ym2612"
    },
    {
      "channel": 4,
      "note": 98,
      "start": 31.7373,
      "duration": 0.0206,
      "velocity": 97,
      "chip": "ym2612"
    },
    {
      "channel": 5,
      "note": 31,
      "start": 31.7376,
      "duration": 0.2779,
      "velocity": 90,
      "chip": "ym2612"
    },
    {
      "channel": 0,
      "note": 75,
      "start": 31.8294,
      "duration": 0.0917,
      "velocity": 127,
      "chip": "ym2612"
    },
    {
      "channel": 1,
      "note": 53,
      "start": 31.8297,
      "duration": 0.0292,
      "velocity": 127,
      "chip": "ym2612"
    },
    {
      "channel": 2,
      "note": 46,
      "start": 31.83,
      "duration": 0.0289,
      "velocity": 127,
      "chip": "ym2612"
    },
    {
      "channel": 4,
      "note": 98,
      "start": 31.8303,
      "duration": 0.0208,
      "velocity": 97,
      "chip": "ym2612"
    },
    {
      "channel": 0,
      "note": 66,
      "start": 31.9227,
      "duration": 0.185,
      "velocity": 127,
      "chip": "ym2612"
    },
    {
      "channel": 1,
      "note": 53,
      "start": 31.923,
      "duration": 0.0292,
      "velocity": 127,
      "chip": "ym2612"
    },
    {
      "channel": 2,
      "note": 46,
      "start": 31.9233,
      "duration": 0.0289,
      "velocity": 127,
      "chip": "ym2612"
    },
    {
      "channel": 3,
      "note": 48,
      "start": 31.9236,
      "duration": 0.0914,
      "velocity": 94,
      "chip": "ym2612"
    },
    {
      "channel": 4,
      "note": 110,
      "start": 31.9239,
      "duration": 0.0205,
      "velocity": 97,
      "chip": "ym2612"
    },
    {
      "channel": 1,
      "note": 53,
      "start": 32.0146,
      "duration": 0.0309,
      "velocity": 127,
      "chip": "ym2612"
    },
    {
      "channel": 2,
      "note": 46,
      "start": 32.0149,
      "duration": 0.0306,
      "velocity": 127,
      "chip": "ym2612"
    },
    {
      "channel": 3,
      "note": 50,
      "start": 32.0151,
      "duration": 0.1882,
      "velocity": 94,
      "chip": "ym2612"
    },
    {
      "channel": 4,
      "note": 98,
      "start": 32.0155,
      "duration": 0.0222,
      "velocity": 97,
      "chip": "ym2612"
    },
    {
      "channel": 5,
      "note": 33,
      "start": 32.0159,
      "duration": 0.2813,
      "velocity": 90,
      "chip": "ym2612"
    },
    {
      "channel": 0,
      "note": 53,
      "start": 32.1094,
      "duration": 0.0916,
      "velocity": 127,
      "chip": "ym2612"
    },
    {
      "channel": 1,
      "note": 53,
      "start": 32.1097,
      "duration": 0.0292,
      "velocity": 127,
      "chip": "ym2612"
    },
    {
      "channel": 2,
      "note": 46,
      "start": 32.11,
      "duration": 0.029,
      "velocity": 127,
      "chip": "ym2612"
    },
    {
      "channel": 4,
      "note": 98,
      "start": 32.1103,
      "duration": 0.0208,
      "velocity": 97,
      "chip": "ym2612"
    },
    {
      "channel": 0,
      "note": 75,
      "start": 32.2027,
      "duration": 0.0916,
      "velocity": 127,
      "chip": "ym2612"
    },
    {
      "channel": 1,
      "note": 53,
      "start": 32.203,
      "duration": 0.0291,
      "velocity": 127,
      "chip": "ym2612"
    },
    {
      "channel": 2,
      "note": 46,
      "start": 32.2033,
      "duration": 0.0289,
      "velocity": 127,
      "chip": "ym2612"
    },
    {
      "channel": 3,
      "note": 48,
      "start": 32.2035,
      "duration": 0.0931,
      "velocity": 94,
      "chip": "ym2612"
    },
    {
      "channel": 4,
      "note": 98,
      "start": 32.2039,
      "duration": 0.0205,
      "velocity": 97,
      "chip": "ym2612"
    },
    {
      "channel": 0,
      "note": 66,
      "start": 32.296,
      "duration": 0.1851,
      "velocity": 127,
      "chip": "ym2612"
    },
    {
      "channel": 1,
      "note": 53,
      "start": 32.2963,
      "duration": 0.0292,
      "velocity": 127,
      "chip": "ym2612"
    },
    {
      "channel": 2,
      "note": 46,
      "start": 32.2966,
      "duration": 0.0289,
      "velocity": 127,
      "chip": "ym2612"
    },
    {
      "channel": 3,
      "note": 50,
      "start": 32.2968,
      "duration": 0.1866,
      "velocity": 94,
      "chip": "ym2612"
    },
    {
      "channel": 4,
      "note": 110,
      "start": 32.2971,
      "duration": 0.0205,
      "velocity": 97,
      "chip": "ym2612"
    },
    {
      "channel": 5,
      "note": 36,
      "start": 32.2975,
      "duration": 0.1864,
      "velocity": 90,
      "chip": "ym2612"
    },
    {
      "channel": 1,
      "note": 53,
      "start": 32.3879,
      "duration": 0.0309,
      "velocity": 127,
      "chip": "ym2612"
    },
    {
      "channel": 2,
      "note": 46,
      "start": 32.3882,
      "duration": 0.0306,
      "velocity": 127,
      "chip": "ym2612"
    },
    {
      "channel": 4,
      "note": 98,
      "start": 32.3885,
      "duration": 0.0225,
      "velocity": 97,
      "chip": "ym2612"
    },
    {
      "channel": 0,
      "note": 53,
      "start": 32.4827,
      "duration": 0.0916,
      "velocity": 127,
      "chip": "ym2612"
    },
    {
      "channel": 1,
      "note": 53,
      "start": 32.483,
      "duration": 0.0292,
      "velocity": 127,
      "chip": "ym2612"
    },
    {
      "channel": 2,
      "note": 46,
      "start": 32.4833,
      "duration": 0.0289,
      "velocity": 127,
      "chip": "ym2612"
    },
    {
      "channel": 3,
      "note": 48,
      "start": 32.4835,
      "duration": 0.0931,
      "velocity": 94,
      "chip": "ym2612"
    },
    {
      "channel": 4,
      "note": 98,
      "start": 32.4839,
      "duration": 0.0205,
      "velocity": 97,
      "chip": "ym2612"
    },
    {
      "channel": 5,
      "note": 38,
      "start": 32.4842,
      "duration": 0.1862,
      "velocity": 90,
      "chip": "ym2612"
    },
    {
      "channel": 0,
      "note": 75,
      "start": 32.5759,
      "duration": 0.0916,
      "velocity": 127,
      "chip": "ym2612"
    },
    {
      "channel": 1,
      "note": 53,
      "start": 32.5762,
      "duration": 0.0291,
      "velocity": 127,
      "chip": "ym2612"
    },
    {
      "channel": 2,
      "note": 46,
      "start": 32.5765,
      "duration": 0.0289,
      "velocity": 127,
      "chip": "ym2612"
    },
    {
      "channel": 3,
      "note": 50,
      "start": 32.5768,
      "duration": 0.0931,
      "velocity": 94,
      "chip": "ym2612"
    },
    {
      "channel": 4,
      "note": 98,
      "start": 32.5771,
      "duration": 0.0205,
      "velocity": 97,
      "chip": "ym2612"
    },
    {
      "channel": 0,
      "note": 66,
      "start": 32.6692,
      "duration": 0.185,
      "velocity": 127,
      "chip": "ym2612"
    },
    {
      "channel": 1,
      "note": 54,
      "start": 32.6695,
      "duration": 0.1224,
      "velocity": 127,
      "chip": "ym2612"
    },
    {
      "channel": 2,
      "note": 47,
      "start": 32.6698,
      "duration": 0.1222,
      "velocity": 127,
      "chip": "ym2612"
    },
    {
      "channel": 3,
      "note": 53,
      "start": 32.6701,
      "duration": 0.091,
      "velocity": 94,
      "chip": "ym2612"
    },
    {
      "channel": 4,
      "note": 110,
      "start": 32.6704,
      "duration": 0.0207,
      "velocity": 97,
      "chip": "ym2612"
    },
    {
      "channel": 5,
      "note": 41,
      "start": 32.671,
      "duration": 0.1861,
      "velocity": 90,
      "chip": "ym2612"
    },
    {
      "channel": 3,
      "note": 55,
      "start": 32.7612,
      "duration": 0.0953,
      "velocity": 94,
      "chip": "ym2612"
    },
    {
      "channel": 4,
      "note": 98,
      "start": 32.7616,
      "duration": 0.0227,
      "velocity": 97,
      "chip": "ym2612"
    },
    {
      "channel": 0,
      "note": 53,
      "start": 32.8559,
      "duration": 0.0916,
      "velocity": 127,
      "chip": "ym2612"
    },
    {
      "channel": 1,
      "note": 53,
      "start": 32.8561,
      "duration": 0.0293,
      "velocity": 127,
      "chip": "ym2612"
    },
    {
      "channel": 2,
      "note": 46,
      "start": 32.8564,
      "duration": 0.029,
      "velocity": 127,
      "chip": "ym2612"
    },
    {
      "channel": 3,
      "note": 48,
      "start": 32.8567,
      "duration": 0.0931,
      "velocity": 94,
      "chip": "ym2612"
    },
    {
      "channel": 4,
      "note": 98,
      "start": 32.857,
      "duration": 0.0206,
      "velocity": 97,
      "chip": "ym2612"
    },
    {
      "channel": 5,
      "note": 38,
      "start": 32.8574,
      "duration": 0.3729,
      "velocity": 90,
      "chip": "ym2612"
    },
    {
      "channel": 0,
      "note": 75,
      "start": 32.9492,
      "duration": 0.0919,
      "velocity": 127,
      "chip": "ym2612"
    },
    {
      "channel": 1,
      "note": 53,
      "start": 32.9494,
      "duration": 0.0292,
      "velocity": 127,
      "chip": "ym2612"
    },
    {
      "channel": 2,
      "note": 46,
      "start": 32.9497,
      "duration": 0.0289,
      "velocity": 127,
      "chip": "ym2612"
    },
    {
      "channel": 3,
      "note": 50,
      "start": 32.95,
      "duration": 0.1847,
      "velocity": 94,
      "chip": "ym2612"
    },
    {
      "channel": 4,
      "note": 98,
      "start": 32.9503,
      "duration": 0.0207,
      "velocity": 97,
      "chip": "ym2612"
    },
    {
      "channel": 0,
      "note": 66,
      "start": 33.0427,
      "duration": 0.1847,
      "velocity": 127,
      "chip": "ym2612"
    },
    {
      "channel": 1,
      "note": 53,
      "start": 33.043,
      "duration": 0.0289,
      "velocity": 127,
      "chip": "ym2612"
    },
    {
      "channel": 2,
      "note": 46,
      "start": 33.0433,
      "duration": 0.0287,
      "velocity": 127,
      "chip": "ym2612"
    },
    {
      "channel": 4,
      "note": 110,
      "start": 33.0436,
      "duration": 0.0205,
      "velocity": 97,
      "chip": "ym2612"
    },
    {
      "channel": 1,
      "note": 53,
      "start": 33.1344,
      "duration": 0.0309,
      "velocity": 127,
      "chip": "ym2612"
    },
    {
      "channel": 2,
      "note": 46,
      "start": 33.1347,
      "duration": 0.0306,
      "velocity": 127,
      "chip": "ym2612"
    },
    {
      "channel": 3,
      "note": 48,
      "start": 33.1349,
      "duration": 0.0948,
      "velocity": 94,
      "chip": "ym2612"
    },
    {
      "channel": 4,
      "note": 98,
      "start": 33.1352,
      "duration": 0.0222,
      "velocity": 97,
      "chip": "ym2612"
    },
    {
      "channel": 0,
      "note": 53,
      "start": 33.2291,
      "duration": 0.0919,
      "velocity": 127,
      "chip": "ym2612"
    },
    {
      "channel": 1,
      "note": 53,
      "start": 33.2294,
      "duration": 0.0293,
      "velocity": 127,
      "chip": "ym2612"
    },
    {
      "channel": 2,
      "note": 46,
      "start": 33.2297,
      "duration": 0.029,
      "velocity": 127,
      "chip": "ym2612"
    },
    {
      "channel": 3,
      "note": 50,
      "start": 33.2299,
      "duration": 0.1864,
      "velocity": 94,
      "chip": "ym2612"
    },
    {
      "channel": 4,
      "note": 98,
      "start": 33.2303,
      "duration": 0.0209,
      "velocity": 97,
      "chip": "ym2612"
    },
    {
      "channel": 5,
      "note": 31,
      "start": 33.2306,
      "duration": 0.2779,
      "velocity": 90,
      "chip": "ym2612"
    },
    {
      "channel": 0,
      "note": 75,
      "start": 33.3227,
      "duration": 0.0914,
      "velocity": 127,
      "chip": "ym2612"
    },
    {
      "channel": 1,
      "note": 53,
      "start": 33.3229,
      "duration": 0.0289,
      "velocity": 127,
      "chip": "ym2612"
    },
    {
      "channel": 2,
      "note": 46,
      "start": 33.3232,
      "duration": 0.0287,
      "velocity": 127,
      "chip": "ym2612"
    },
    {
      "channel": 4,
      "note": 98,
      "start": 33.3236,
      "duration": 0.0205,
      "velocity": 97,
      "chip": "ym2612"
    },
    {
      "channel": 0,
      "note": 66,
      "start": 33.4157,
      "duration": 0.1852,
      "velocity": 127,
      "chip": "ym2612"
    },
    {
      "channel": 1,
      "note": 53,
      "start": 33.416,
      "duration": 0.0292,
      "velocity": 127,
      "chip": "ym2612"
    },
    {
      "channel": 2,
      "note": 46,
      "start": 33.4163,
      "duration": 0.0289,
      "velocity": 127,
      "chip": "ym2612"
    },
    {
      "channel": 3,
      "note": 48,
      "start": 33.4166,
      "duration": 0.0914,
      "velocity": 94,
      "chip": "ym2612"
    },
    {
      "channel": 4,
      "note": 110,
      "start": 33.4169,
      "duration": 0.0205,
      "velocity": 97,
      "chip": "ym2612"
    },
    {
      "channel": 1,
      "note": 53,
      "start": 33.5076,
      "duration": 0.0309,
      "velocity": 127,
      "chip": "ym2612"
    },
    {
      "channel": 2,
      "note": 46,
      "start": 33.5079,
      "duration": 0.0306,
      "velocity": 127,
      "chip": "ym2612"
    },
    {
      "channel": 3,
      "note": 50,
      "start": 33.5082,
      "duration": 0.1881,
      "velocity": 94,
      "chip": "ym2612"
    },
    {
      "channel": 4,
      "note": 98,
      "start": 33.5085,
      "duration": 0.0225,
      "velocity": 97,
      "chip": "ym2612"
    },
    {
      "channel": 5,
      "note": 33,
      "start": 33.5089,
      "duration": 0.2813,
      "velocity": 90,
      "chip": "ym2612"
    },
    {
      "channel": 0,
      "note": 53,
      "start": 33.6026,
      "duration": 0.0914,
      "velocity": 127,
      "chip": "ym2612"
    },
    {
      "channel": 1,
      "note": 53,
      "start": 33.6029,
      "duration": 0.029,
      "velocity": 127,
      "chip": "ym2612"
    },
    {
      "channel": 2,
      "note": 46,
      "start": 33.6032,
      "duration": 0.0287,
      "velocity": 127,
      "chip": "ym2612"
    },
    {
      "channel": 4,
      "note": 98,
      "start": 33.6035,
      "duration": 0.0206,
      "velocity": 97,
      "chip": "ym2612"
    },
    {
      "channel": 0,
      "note": 75,
      "start": 33.6956,
      "duration": 0.0917,
      "velocity": 127,
      "chip": "ym2612"
    },
    {
      "channel": 1,
      "note": 53,
      "start": 33.6959,
      "duration": 0.0292,
      "velocity": 127,
      "chip": "ym2612"
    },
    {
      "channel": 2,
      "note": 46,
      "start": 33.6962,
      "duration": 0.0289,
      "velocity": 127,
      "chip": "ym2612"
    },
    {
      "channel": 3,
      "note": 48,
      "start": 33.6965,
      "duration": 0.0931,
      "velocity": 94,
      "chip": "ym2612"
    },
    {
      "channel": 4,
      "note": 98,
      "start": 33.6968,
      "duration": 0.0205,
      "velocity": 97,
      "chip": "ym2612"
    },
    {
      "channel": 0,
      "note": 66,
      "start": 33.789,
      "duration": 0.185,
      "velocity": 127,
      "chip": "ym2612"
    },
    {
      "channel": 1,
      "note": 53,
      "start": 33.7893,
      "duration": 0.0292,
      "velocity": 127,
      "chip": "ym2612"
    },
    {
      "channel": 2,
      "note": 46,
      "start": 33.7895,
      "duration": 0.0289,
      "velocity": 127,
      "chip": "ym2612"
    },
    {
      "channel": 3,
      "note": 50,
      "start": 33.7898,
      "duration": 0.1865,
      "velocity": 94,
      "chip": "ym2612"
    },
    {
      "channel": 4,
      "note": 110,
      "start": 33.7901,
      "duration": 0.0205,
      "velocity": 97,
      "chip": "ym2612"
    },
    {
      "channel": 5,
      "note": 36,
      "start": 33.7905,
      "duration": 0.1864,
      "velocity": 90,
      "chip": "ym2612"
    },
    {
      "channel": 1,
      "note": 53,
      "start": 33.8811,
      "duration": 0.0306,
      "velocity": 127,
      "chip": "ym2612"
    },
    {
      "channel": 2,
      "note": 46,
      "start": 33.8814,
      "duration": 0.0304,
      "velocity": 127,
      "chip": "ym2612"
    },
    {
      "channel": 4,
      "note": 98,
      "start": 33.8817,
      "duration": 0.0222,
      "velocity": 97,
      "chip": "ym2612"
    },
    {
      "channel": 0,
      "note": 53,
      "start": 33.9756,
      "duration": 0.0916,
      "velocity": 127,
      "chip": "ym2612"
    },
    {
      "channel": 1,
      "note": 53,
      "start": 33.9759,
      "duration": 0.0292,
      "velocity": 127,
      "chip": "ym2612"
    },
    {
      "channel": 2,
      "note": 46,
      "start": 33.9762,
      "duration": 0.029,
      "velocity": 127,
      "chip": "ym2612"
    },
    {
      "channel": 3,
      "note": 48,
      "start": 33.9765,
      "duration": 0.0931,
      "velocity": 94,
      "chip": "ym2612"
    },
    {
      "channel": 4,
      "note": 98,
      "start": 33.9768,
      "duration": 0.0206,
      "velocity": 97,
      "chip": "ym2612"
    },
    {
      "channel": 5,
      "note": 38,
      "start": 33.9772,
      "duration": 0.1865,
      "velocity": 90,
      "chip": "ym2612"
    },
    {
      "channel": 0,
      "note": 75,
      "start": 34.0689,
      "duration": 0.0917,
      "velocity": 127,
      "chip": "ym2612"
    },
    {
      "channel": 1,
      "note": 53,
      "start": 34.0692,
      "duration": 0.0292,
      "velocity": 127,
      "chip": "ym2612"
    },
    {
      "channel": 2,
      "note": 46,
      "start": 34.0695,
      "duration": 0.0289,
      "velocity": 127,
      "chip": "ym2612"
    },
    {
      "channel": 3,
      "note": 50,
      "start": 34.0697,
      "duration": 0.0934,
      "velocity": 94,
      "chip": "ym2612"
    },
    {
      "channel": 4,
      "note": 98,
      "start": 34.0701,
      "duration": 0.0205,
      "velocity": 97,
      "chip": "ym2612"
    },
    {
      "channel": 0,
      "note": 66,
      "start": 34.1625,
      "duration": 0.1847,
      "velocity": 127,
      "chip": "ym2612"
    },
    {
      "channel": 1,
      "note": 51,
      "start": 34.1628,
      "duration": 0.1222,
      "velocity": 127,
      "chip": "ym2612"
    },
    {
      "channel": 2,
      "note": 44,
      "start": 34.1631,
      "duration": 0.122,
      "velocity": 127,
      "chip": "ym2612"
    },
    {
      "channel": 3,
      "note": 53,
      "start": 34.1633,
      "duration": 0.0906,
      "velocity": 94,
      "chip": "ym2612"
    },
    {
      "channel": 4,
      "note": 110,
      "start": 34.1636,
      "duration": 0.0203,
      "velocity": 97,
      "chip": "ym2612"
    },
    {
      "channel": 5,
      "note": 41,
      "start": 34.164,
      "duration": 0.1861,
      "velocity": 90,
      "chip": "ym2612"
    },
    {
      "channel": 3,
      "note": 55,
      "start": 34.2541,
      "duration": 0.0954,
      "velocity": 94,
      "chip": "ym2612"
    },
    {
      "channel": 4,
      "note": 98,
      "start": 34.2544,
      "duration": 0.0228,
      "velocity": 97,
      "chip": "ym2612"
    },
    {
      "channel": 0,
      "note": 53,
      "start": 34.3488,
      "duration": 0.0916,
      "velocity": 127,
      "chip": "ym2612"
    },
    {
      "channel": 1,
      "note": 53,
      "start": 34.3491,
      "duration": 0.0292,
      "velocity": 127,
      "chip": "ym2612"
    },
    {
      "channel": 2,
      "note": 46,
      "start": 34.3494,
      "duration": 0.029,
      "velocity": 127,
      "chip": "ym2612"
    },
    {
      "channel": 3,
      "note": 48,
      "start": 34.3497,
      "duration": 0.0933,
      "velocity": 94,
      "chip": "ym2612"
    },
    {
      "channel": 4,
      "note": 98,
      "start": 34.35,
      "duration": 0.0206,
      "velocity": 97,
      "chip": "ym2612"
    },
    {
      "channel": 5,
      "note": 38,
      "start": 34.3504,
      "duration": 0.3732,
      "velocity": 90,
      "chip": "ym2612"
    },
    {
      "channel": 0,
      "note": 75,
      "start": 34.4424,
      "duration": 0.0914,
      "velocity": 127,
      "chip": "ym2612"
    },
    {
      "channel": 1,
      "note": 53,
      "start": 34.4427,
      "duration": 0.0289,
      "velocity": 127,
      "chip": "ym2612"
    },
    {
      "channel": 2,
      "note": 46,
      "start": 34.443,
      "duration": 0.0287,
      "velocity": 127,
      "chip": "ym2612"
    },
    {
      "channel": 3,
      "note": 50,
      "start": 34.4432,
      "duration": 0.1845,
      "velocity": 94,
      "chip": "ym2612"
    },
    {
      "channel": 4,
      "note": 98,
      "start": 34.4435,
      "duration": 0.0203,
      "velocity": 97,
      "chip": "ym2612"
    },
    {
      "channel": 0,
      "note": 66,
      "start": 34.5355,
      "duration": 0.185,
      "velocity": 127,
      "chip": "ym2612"
    },
    {
      "channel": 1,
      "note": 53,
      "start": 34.5357,
      "duration": 0.0292,
      "velocity": 127,
      "chip": "ym2612"
    },
    {
      "channel": 2,
      "note": 46,
      "start": 34.536,
      "duration": 0.0289,
      "velocity": 127,
      "chip": "ym2612"
    },
    {
      "channel": 4,
      "note": 110,
      "start": 34.5364,
      "duration": 0.0208,
      "velocity": 97,
      "chip": "ym2612"
    },
    {
      "channel": 1,
      "note": 53,
      "start": 34.6274,
      "duration": 0.0308,
      "velocity": 127,
      "chip": "ym2612"
    },
    {
      "channel": 2,
      "note": 46,
      "start": 34.6277,
      "duration": 0.0306,
      "velocity": 127,
      "chip": "ym2612"
    },
    {
      "channel": 3,
      "note": 48,
      "start": 34.6279,
      "duration": 0.0951,
      "velocity": 94,
      "chip": "ym2612"
    },
    {
      "channel": 4,
      "note": 98,
      "start": 34.6282,
      "duration": 0.0222,
      "velocity": 97,
      "chip": "ym2612"
    },
    {
      "channel": 0,
      "note": 53,
      "start": 34.7223,
      "duration": 0.0914,
      "velocity": 127,
      "chip": "ym2612"
    },
    {
      "channel": 1,
      "note": 53,
      "start": 34.7226,
      "duration": 0.029,
      "velocity": 127,
      "chip": "ym2612"
    },
    {
      "channel": 2,
      "note": 46,
      "start": 34.7229,
      "duration": 0.0288,
      "velocity": 127,
      "chip": "ym2612"
    },
    {
      "channel": 3,
      "note": 50,
      "start": 34.7232,
      "duration": 0.1862,
      "velocity": 94,
      "chip": "ym2612"
    },
    {
      "channel": 4,
      "note": 98,
      "start": 34.7235,
      "duration": 0.0204,
      "velocity": 97,
      "chip": "ym2612"
    },
    {
      "channel": 5,
      "note": 31,
      "start": 34.7239,
      "duration": 0.2779,
      "velocity": 90,
      "chip": "ym2612"
    },
    {
      "channel": 0,
      "note": 75,
      "start": 34.8154,
      "duration": 0.0917,
      "velocity": 127,
      "chip": "ym2612"
    },
    {
      "channel": 1,
      "note": 53,
      "start": 34.8157,
      "duration": 0.0292,
      "velocity": 127,
      "chip": "ym2612"
    },
    {
      "channel": 2,
      "note": 46,
      "start": 34.816,
      "duration": 0.0289,
      "velocity": 127,
      "chip": "ym2612"
    },
    {
      "channel": 4,
      "note": 98,
      "start": 34.8163,
      "duration": 0.0208,
      "velocity": 97,
      "chip": "ym2612"
    },
    {
      "channel": 0,
      "note": 66,
      "start": 34.9088,
      "duration": 0.1849,
      "velocity": 127,
      "chip": "ym2612"
    },
    {
      "channel": 1,
      "note": 53,
      "start": 34.909,
      "duration": 0.0291,
      "velocity": 127,
      "chip": "ym2612"
    },
    {
      "channel": 2,
      "note": 46,
      "start": 34.9093,
      "duration": 0.0289,
      "velocity": 127,
      "chip": "ym2612"
    },
    {
      "channel": 3,
      "note": 48,
      "start": 34.9096,
      "duration": 0.0916,
      "velocity": 94,
      "chip": "ym2612"
    },
    {
      "channel": 4,
      "note": 110,
      "start": 34.9099,
      "duration": 0.0205,
      "velocity": 97,
      "chip": "ym2612"
    },
    {
      "channel": 1,
      "note": 53,
      "start": 35.0006,
      "duration": 0.0309,
      "velocity": 127,
      "chip": "ym2612"
    },
    {
      "channel": 2,
      "note": 46,
      "start": 35.0011,
      "duration": 0.0304,
      "velocity": 127,
      "chip": "ym2612"
    },
    {
      "channel": 3,
      "note": 50,
      "start": 35.0014,
      "duration": 0.1879,
      "velocity": 94,
      "chip": "ym2612"
    },
    {
      "channel": 4,
      "note": 98,
      "start": 35.0017,
      "duration": 0.022,
      "velocity": 97,
      "chip": "ym2612"
    },
    {
      "channel": 5,
      "note": 33,
      "start": 35.0021,
      "duration": 0.2891,
      "velocity": 90,
      "chip": "ym2612"
    },
    {
      "channel": 0,
      "note": 53,
      "start": 35.0954,
      "duration": 0.0916,
      "velocity": 127,
      "chip": "ym2612"
    },
    {
      "channel": 1,
      "note": 53,
      "start": 35.0956,
      "duration": 0.0292,
      "velocity": 127,
      "chip": "ym2612"
    },
    {
      "channel": 2,
      "note": 46,
      "start": 35.0959,
      "duration": 0.029,
      "velocity": 127,
      "chip": "ym2612"
    },
    {
      "channel": 4,
      "note": 98,
      "start": 35.0963,
      "duration": 0.0208,
      "velocity": 97,
      "chip": "ym2612"
    },
    {
      "channel": 0,
      "note": 75,
      "start": 35.1886,
      "duration": 0.0994,
      "velocity": 127,
      "chip": "ym2612"
    },
    {
      "channel": 1,
      "note": 53,
      "start": 35.1889,
      "duration": 0.0292,
      "velocity": 127,
      "chip": "ym2612"
    },
    {
      "channel": 2,
      "note": 46,
      "start": 35.1892,
      "duration": 0.0289,
      "velocity": 127,
      "chip": "ym2612"
    },
    {
      "channel": 3,
      "note": 48,
      "start": 35.1895,
      "duration": 0.1009,
      "velocity": 94,
      "chip": "ym2612"
    },
    {
      "channel": 4,
      "note": 98,
      "start": 35.1898,
      "duration": 0.0205,
      "velocity": 97,
      "chip": "ym2612"
    },
    {
      "channel": 0,
      "note": 66,
      "start": 35.2897,
      "duration": 0.185,
      "velocity": 127,
      "chip": "ym2612"
    },
    {
      "channel": 1,
      "note": 53,
      "start": 35.29,
      "duration": 0.0292,
      "velocity": 127,
      "chip": "ym2612"
    },
    {
      "channel": 2,
      "note": 46,
      "start": 35.2903,
      "duration": 0.0289,
      "velocity": 127,
      "chip": "ym2612"
    },
    {
      "channel": 3,
      "note": 50,
      "start": 35.2905,
      "duration": 0.1865,
      "velocity": 94,
      "chip": "ym2612"
    },
    {
      "channel": 4,
      "note": 110,
      "start": 35.2911,
      "duration": 0.0203,
      "velocity": 97,
      "chip": "ym2612"
    },
    {
      "channel": 5,
      "note": 36,
      "start": 35.2915,
      "duration": 0.1861,
      "velocity": 90,
      "chip": "ym2612"
    },
    {
      "channel": 1,
      "note": 53,
      "start": 35.3816,
      "duration": 0.0309,
      "velocity": 127,
      "chip": "ym2612"
    },
    {
      "channel": 2,
      "note": 46,
      "start": 35.3819,
      "duration": 0.0306,
      "velocity": 127,
      "chip": "ym2612"
    },
    {
      "channel": 4,
      "note": 98,
      "start": 35.3823,
      "duration": 0.0225,
      "velocity": 97,
      "chip": "ym2612"
    },
    {
      "channel": 0,
      "note": 53,
      "start": 35.4764,
      "duration": 0.0916,
      "velocity": 127,
      "chip": "ym2612"
    },
    {
      "channel": 1,
      "note": 53,
      "start": 35.4767,
      "duration": 0.0292,
      "velocity": 127,
      "chip": "ym2612"
    },
    {
      "channel": 2,
      "note": 46,
      "start": 35.477,
      "duration": 0.029,
      "velocity": 127,
      "chip": "ym2612"
    },
    {
      "channel": 3,
      "note": 48,
      "start": 35.4772,
      "duration": 0.0931,
      "velocity": 94,
      "chip": "ym2612"
    },
    {
      "channel": 4,
      "note": 98,
      "start": 35.4776,
      "duration": 0.0206,
      "velocity": 97,
      "chip": "ym2612"
    },
    {
      "channel": 5,
      "note": 38,
      "start": 35.4779,
      "duration": 0.1863,
      "velocity": 90,
      "chip": "ym2612"
    },
    {
      "channel": 0,
      "note": 75,
      "start": 35.5697,
      "duration": 0.0917,
      "velocity": 127,
      "chip": "ym2612"
    },
    {
      "channel": 1,
      "note": 53,
      "start": 35.57,
      "duration": 0.0292,
      "velocity": 127,
      "chip": "ym2612"
    },
    {
      "channel": 2,
      "note": 46,
      "start": 35.5702,
      "duration": 0.0289,
      "velocity": 127,
      "chip": "ym2612"
    },
    {
      "channel": 3,
      "note": 50,
      "start": 35.5705,
      "duration": 0.0931,
      "velocity": 94,
      "chip": "ym2612"
    },
    {
      "channel": 4,
      "note": 98,
      "start": 35.5711,
      "duration": 0.0203,
      "velocity": 97,
      "chip": "ym2612"
    },
    {
      "channel": 0,
      "note": 66,
      "start": 35.663,
      "duration": 0.185,
      "velocity": 127,
      "chip": "ym2612"
    },
    {
      "channel": 1,
      "note": 54,
      "start": 35.6633,
      "duration": 0.1225,
      "velocity": 127,
      "chip": "ym2612"
    },
    {
      "channel": 2,
      "note": 47,
      "start": 35.6636,
      "duration": 0.1222,
      "velocity": 127,
      "chip": "ym2612"
    },
    {
      "channel": 3,
      "note": 53,
      "start": 35.6638,
      "duration": 0.0908,
      "velocity": 94,
      "chip": "ym2612"
    },
    {
      "channel": 4,
      "note": 110,
      "start": 35.6641,
      "duration": 0.0205,
      "velocity": 97,
      "chip": "ym2612"
    },
    {
      "channel": 5,
      "note": 41,
      "start": 35.6645,
      "duration": 0.1866,
      "velocity": 90,
      "chip": "ym2612"
    },
    {
      "channel": 3,
      "note": 55,
      "start": 35.7549,
      "duration": 0.0954,
      "velocity": 94,
      "chip": "ym2612"
    },
    {
      "channel": 4,
      "note": 98,
      "start": 35.7552,
      "duration": 0.0228,
      "velocity": 97,
      "chip": "ym2612"
    },
    {
      "channel": 0,
      "note": 43,
      "start": 35.8496,
      "duration": 0.0916,
      "velocity": 127,
      "chip": "ym2612"
    },
    {
      "channel": 1,
      "note": 53,
      "start": 35.8499,
      "duration": 0.0291,
      "velocity": 127,
      "chip": "ym2612"
    },
    {
      "channel": 2,
      "note": 46,
      "start": 35.8502,
      "duration": 0.0289,
      "velocity": 127,
      "chip": "ym2612"
    },
    {
      "channel": 3,
      "note": 48,
      "start": 35.8505,
      "duration": 0.0917,
      "velocity": 94,
      "chip": "ym2612"
    },
    {
      "channel": 4,
      "note": 98,
      "start": 35.851,
      "duration": 0.0202,
      "velocity": 97,
      "chip": "ym2612"
    },
    {
      "channel": 5,
      "note": 38,
      "start": 35.8514,
      "duration": 0.3712,
      "velocity": 90,
      "chip": "ym2612"
    },
    {
      "channel": 0,
      "note": 43,
      "start": 35.9415,
      "duration": 0.0931,
      "velocity": 127,
      "chip": "ym2612"
    },
    {
      "channel": 1,
      "note": 53,
      "start": 35.9418,
      "duration": 0.0306,
      "velocity": 127,
      "chip": "ym2612"
    },
    {
      "channel": 2,
      "note": 46,
      "start": 35.9421,
      "duration": 0.0303,
      "velocity": 127,
      "chip": "ym2612"
    },
    {
      "channel": 3,
      "note": 50,
      "start": 35.9423,
      "duration": 0.1864,
      "velocity": 94,
      "chip": "ym2612"
    },
    {
      "channel": 4,
      "note": 98,
      "start": 35.9426,
      "duration": 0.022,
      "velocity": 97,
      "chip": "ym2612"
    },
    {
      "channel": 0,
      "note": 43,
      "start": 36.0348,
      "duration": 0.0931,
      "velocity": 127,
      "chip": "ym2612"
    },
    {
      "channel": 1,
      "note": 53,
      "start": 36.0351,
      "duration": 0.0306,
      "velocity": 127,
      "chip": "ym2612"
    },
    {
      "channel": 2,
      "note": 46,
      "start": 36.0354,
      "duration": 0.0304,
      "velocity": 127,
      "chip": "ym2612"
    },
    {
      "channel": 4,
      "note": 110,
      "start": 36.0357,
      "duration": 0.0222,
      "velocity": 97,
      "chip": "ym2612"
    },
    {
      "channel": 0,
      "note": 43,
      "start": 36.1281,
      "duration": 0.0931,
      "velocity": 127,
      "chip": "ym2612"
    },
    {
      "channel": 1,
      "note": 53,
      "start": 36.1284,
      "duration": 0.0306,
      "velocity": 127,
      "chip": "ym2612"
    },
    {
      "channel": 2,
      "note": 46,
      "start": 36.1287,
      "duration": 0.0303,
      "velocity": 127,
      "chip": "ym2612"
    },
    {
      "channel": 3,
      "note": 48,
      "start": 36.129,
      "duration": 0.0931,
      "velocity": 94,
      "chip": "ym2612"
    },
    {
      "channel": 4,
      "note": 98,
      "start": 36.1293,
      "duration": 0.022,
      "velocity": 97,
      "chip": "ym2612"
    },
    {
      "channel": 0,
      "note": 43,
      "start": 36.2214,
      "duration": 0.0931,
      "velocity": 127,
      "chip": "ym2612"
    },
    {
      "channel": 1,
      "note": 53,
      "start": 36.2217,
      "duration": 0.0306,
      "velocity": 127,
      "chip": "ym2612"
    },
    {
      "channel": 2,
      "note": 46,
      "start": 36.222,
      "duration": 0.0303,
      "velocity": 127,
      "chip": "ym2612"
    },
    {
      "channel": 3,
      "note": 50,
      "start": 36.2223,
      "duration": 0.1865,
      "velocity": 94,
      "chip": "ym2612"
    },
    {
      "channel": 4,
      "note": 98,
      "start": 36.2226,
      "duration": 0.0219,
      "velocity": 97,
      "chip": "ym2612"
    },
    {
      "channel": 5,
      "note": 31,
      "start": 36.223,
      "duration": 0.2796,
      "velocity": 90,
      "chip": "ym2612"
    },
    {
      "channel": 0,
      "note": 43,
      "start": 36.3147,
      "duration": 0.0931,
      "velocity": 127,
      "chip": "ym2612"
    },
    {
      "channel": 1,
      "note": 53,
      "start": 36.315,
      "duration": 0.0306,
      "velocity": 127,
      "chip": "ym2612"
    },
    {
      "channel": 2,
      "note": 46,
      "start": 36.3153,
      "duration": 0.0303,
      "velocity": 127,
      "chip": "ym2612"
    },
    {
      "channel": 4,
      "note": 98,
      "start": 36.3157,
      "duration": 0.0222,
      "velocity": 97,
      "chip": "ym2612"
    },
    {
      "channel": 0,
      "note": 43,
      "start": 36.4081,
      "duration": 0.093,
      "velocity": 127,
      "chip": "ym2612"
    },
    {
      "channel": 1,
      "note": 53,
      "start": 36.4084,
      "duration": 0.0305,
      "velocity": 127,
      "chip": "ym2612"
    },
    {
      "channel": 2,
      "note": 46,
      "start": 36.4087,
      "duration": 0.0303,
      "velocity": 127,
      "chip": "ym2612"
    },
    {
      "channel": 3,
      "note": 48,
      "start": 36.4089,
      "duration": 0.0931,
      "velocity": 94,
      "chip": "ym2612"
    },
    {
      "channel": 4,
      "note": 110,
      "start": 36.4093,
      "duration": 0.0219,
      "velocity": 97,
      "chip": "ym2612"
    },
    {
      "channel": 0,
      "note": 43,
      "start": 36.5014,
      "duration": 0.0931,
      "velocity": 127,
      "chip": "ym2612"
    },
    {
      "channel": 1,
      "note": 53,
      "start": 36.5017,
      "duration": 0.0306,
      "velocity": 127,
      "chip": "ym2612"
    },
    {
      "channel": 2,
      "note": 46,
      "start": 36.5019,
      "duration": 0.0304,
      "velocity": 127,
      "chip": "ym2612"
    },
    {
      "channel": 3,
      "note": 50,
      "start": 36.5022,
      "duration": 0.1864,
      "velocity": 94,
      "chip": "ym2612"
    },
    {
      "channel": 4,
      "note": 98,
      "start": 36.5025,
      "duration": 0.022,
      "velocity": 97,
      "chip": "ym2612"
    },
    {
      "channel": 5,
      "note": 33,
      "start": 36.5029,
      "duration": 0.2796,
      "velocity": 90,
      "chip": "ym2612"
    },
    {
      "channel": 0,
      "note": 43,
      "start": 36.5947,
      "duration": 0.0931,
      "velocity": 127,
      "chip": "ym2612"
    },
    {
      "channel": 1,
      "note": 53,
      "start": 36.595,
      "duration": 0.0306,
      "velocity": 127,
      "chip": "ym2612"
    },
    {
      "channel": 2,
      "note": 46,
      "start": 36.5953,
      "duration": 0.0303,
      "velocity": 127,
      "chip": "ym2612"
    },
    {
      "channel": 4,
      "note": 98,
      "start": 36.5956,
      "duration": 0.0222,
      "velocity": 97,
      "chip": "ym2612"
    },
    {
      "channel": 0,
      "note": 43,
      "start": 36.688,
      "duration": 0.0931,
      "velocity": 127,
      "chip": "ym2612"
    },
    {
      "channel": 1,
      "note": 53,
      "start": 36.6883,
      "duration": 0.0306,
      "velocity": 127,
      "chip": "ym2612"
    },
    {
      "channel": 2,
      "note": 46,
      "start": 36.6886,
      "duration": 0.0303,
      "velocity": 127,
      "chip": "ym2612"
    },
    {
      "channel": 3,
      "note": 48,
      "start": 36.6888,
      "duration": 0.0931,
      "velocity": 94,
      "chip": "ym2612"
    },
    {
      "channel": 4,
      "note": 98,
      "start": 36.6892,
      "duration": 0.022,
      "velocity": 97,
      "chip": "ym2612"
    },
    {
      "channel": 0,
      "note": 43,
      "start": 36.7813,
      "duration": 0.0931,
      "velocity": 127,
      "chip": "ym2612"
    },
    {
      "channel": 1,
      "note": 53,
      "start": 36.7816,
      "duration": 0.0306,
      "velocity": 127,
      "chip": "ym2612"
    },
    {
      "channel": 2,
      "note": 46,
      "start": 36.7819,
      "duration": 0.0303,
      "velocity": 127,
      "chip": "ym2612"
    },
    {
      "channel": 3,
      "note": 50,
      "start": 36.7821,
      "duration": 0.1865,
      "velocity": 94,
      "chip": "ym2612"
    },
    {
      "channel": 4,
      "note": 110,
      "start": 36.7824,
      "duration": 0.022,
      "velocity": 97,
      "chip": "ym2612"
    },
    {
      "channel": 5,
      "note": 36,
      "start": 36.7828,
      "duration": 0.1863,
      "velocity": 90,
      "chip": "ym2612"
    },
    {
      "channel": 0,
      "note": 43,
      "start": 36.8746,
      "duration": 0.093,
      "velocity": 127,
      "chip": "ym2612"
    },
    {
      "channel": 1,
      "note": 53,
      "start": 36.8749,
      "duration": 0.0305,
      "velocity": 127,
      "chip": "ym2612"
    },
    {
      "channel": 2,
      "note": 46,
      "start": 36.8752,
      "duration": 0.0303,
      "velocity": 127,
      "chip": "ym2612"
    },
    {
      "channel": 4,
      "note": 98,
      "start": 36.8756,
      "duration": 0.0222,
      "velocity": 97,
      "chip": "ym2612"
    },
    {
      "channel": 0,
      "note": 43,
      "start": 36.9679,
      "duration": 0.0931,
      "velocity": 127,
      "chip": "ym2612"
    },
    {
      "channel": 1,
      "note": 53,
      "start": 36.9682,
      "duration": 0.0306,
      "velocity": 127,
      "chip": "ym2612"
    },
    {
      "channel": 2,
      "note": 46,
      "start": 36.9685,
      "duration": 0.0303,
      "velocity": 127,
      "chip": "ym2612"
    },
    {
      "channel": 3,
      "note": 48,
      "start": 36.9688,
      "duration": 0.0932,
      "velocity": 94,
      "chip": "ym2612"
    },
    {
      "channel": 4,
      "note": 98,
      "start": 36.9691,
      "duration": 0.022,
      "velocity": 97,
      "chip": "ym2612"
    },
    {
      "channel": 5,
      "note": 38,
      "start": 36.9695,
      "duration": 0.1863,
      "velocity": 90,
      "chip": "ym2612"
    },
    {
      "channel": 0,
      "note": 43,
      "start": 37.0612,
      "duration": 0.0931,
      "velocity": 127,
      "chip": "ym2612"
    },
    {
      "channel": 1,
      "note": 53,
      "start": 37.0615,
      "duration": 0.0306,
      "velocity": 127,
      "chip": "ym2612"
    },
    {
      "channel": 2,
      "note": 46,
      "start": 37.0618,
      "duration": 0.0303,
      "velocity": 127,
      "chip": "ym2612"
    },
    {
      "channel": 3,
      "note": 50,
      "start": 37.0621,
      "duration": 0.0931,
      "velocity": 94,
      "chip": "ym2612"
    },
    {
      "channel": 4,
      "note": 98,
      "start": 37.0624,
      "duration": 0.0219,
      "velocity": 97,
      "chip": "ym2612"
    },
    {
      "channel": 0,
      "note": 43,
      "start": 37.1546,
      "duration": 0.0931,
      "velocity": 127,
      "chip": "ym2612"
    },
    {
      "channel": 1,
      "note": 51,
      "start": 37.1549,
      "duration": 0.1239,
      "velocity": 127,
      "chip": "ym2612"
    },
    {
      "channel": 2,
      "note": 44,
      "start": 37.1551,
      "duration": 0.1236,
      "velocity": 127,
      "chip": "ym2612"
    },
    {
      "channel": 3,
      "note": 53,
      "start": 37.1554,
      "duration": 0.0925,
      "velocity": 94,
      "chip": "ym2612"
    },
    {
      "channel": 4,
      "note": 110,
      "start": 37.1557,
      "duration": 0.022,
      "velocity": 97,
      "chip": "ym2612"
    },
    {
      "channel": 5,
      "note": 41,
      "start": 37.1561,
      "duration": 0.1934,
      "velocity": 90,
      "chip": "ym2612"
    },
    {
      "channel": 0,
      "note": 43,
      "start": 37.2479,
      "duration": 0.0932,
      "velocity": 127,
      "chip": "ym2612"
    },
    {
      "channel": 3,
      "note": 55,
      "start": 37.2481,
      "duration": 0.098,
      "velocity": 94,
      "chip": "ym2612"
    },
    {
      "channel": 4,
      "note": 98,
      "start": 37.2485,
      "duration": 0.0226,
      "velocity": 97,
      "chip": "ym2612"
    },
    {
      "channel": 0,
      "note": 53,
      "start": 37.3427,
      "duration": 0.0915,
      "velocity": 127,
      "chip": "ym2612"
    },
    {
      "channel": 1,
      "note": 84,
      "start": 37.3445,
      "duration": 0.0198,
      "velocity": 105,
      "chip": "ym2612"
    },
    {
      "channel": 3,
      "note": 48,
      "start": 37.3478,
      "duration": 0.0885,
      "velocity": 101,
      "chip": "ym2612"
    },
    {
      "channel": 4,
      "note": 61,
      "start": 37.3495,
      "duration": 0.087,
      "velocity": 82,
      "chip": "ym2612"
    },
    {
      "channel": 0,
      "note": 75,
      "start": 37.4359,
      "duration": 0.0917,
      "velocity": 127,
      "chip": "ym2612"
    },
    {
      "channel": 1,
      "note": 88,
      "start": 37.4362,
      "duration": 0.1148,
      "velocity": 105,
      "chip": "ym2612"
    },
    {
      "channel": 3,
      "note": 50,
      "start": 37.4364,
      "duration": 0.1849,
      "velocity": 101,
      "chip": "ym2612"
    },
    {
      "channel": 4,
      "note": 59,
      "start": 37.4368,
      "duration": 0.0926,
      "velocity": 82,
      "chip": "ym2612"
    },
    {
      "channel": 5,
      "note": 61,
      "start": 37.4814,
      "duration": 0.0929,
      "velocity": 79,
      "chip": "ym2612"
    },
    {
      "channel": 0,
      "note": 66,
      "start": 37.5292,
      "duration": 0.185,
      "velocity": 127,
      "chip": "ym2612"
    },
    {
      "channel": 4,
      "note": 56,
      "start": 37.5297,
      "duration": 0.0919,
      "velocity": 82,
      "chip": "ym2612"
    },
    {
      "channel": 5,
      "note": 59,
      "start": 37.5747,
      "duration": 0.093,
      "velocity": 79,
      "chip": "ym2612"
    },
    {
      "channel": 1,
      "note": 84,
      "start": 37.6213,
      "duration": 0.0229,
      "velocity": 105,
      "chip": "ym2612"
    },
    {
      "channel": 3,
      "note": 48,
      "start": 37.6215,
      "duration": 0.0927,
      "velocity": 101,
      "chip": "ym2612"
    },
    {
      "channel": 4,
      "note": 59,
      "start": 37.6219,
      "duration": 0.0923,
      "velocity": 82,
      "chip": "ym2612"
    },
    {
      "channel": 5,
      "note": 56,
      "start": 37.668,
      "duration": 0.0461,
      "velocity": 79,
      "chip": "ym2612"
    }
  ]
}