{
  "track_name": "10 - Battle with The Brain",
  "duration_sec": 46.56,
  "sample_rate": 44100,
  "note_count": 599,
  "unique_pitches": 38,
  "pitch_range": 56,
  "avg_note_duration": 0.3628,
  "reconstruction_stats": {
    "notes_reconstructed": 599,
    "keyon_events": 599,
    "keyoff_events": 594,
    "orphan_keyons": 5,
    "unique_pitches": 38,
    "pitch_range": 56,
    "avg_duration_sec": 0.3628
  },
  "metadata": {
    "source": "T\\The Incredible Hulk\\10 - Battle with The Brain.vgz"
  },
  "notes": [
    {
      "channel": 0,
      "note": 49,
      "start": 0.0022,
      "duration": 0.4814,
      "velocity": 1,
      "chip": "ym2612"
    },
    {
      "channel": 2,
      "note": 85,
      "start": 0.0045,
      "duration": 1.9314,
      "velocity": 90,
      "chip": "ym2612"
    },
    {
      "channel": 3,
      "note": 80,
      "start": 0.0066,
      "duration": 1.9298,
      "velocity": 90,
      "chip": "ym2612"
    },
    {
      "channel": 0,
      "note": 59,
      "start": 0.4839,
      "duration": 0.1165,
      "velocity": 1,
      "chip": "ym2612"
    },
    {
      "channel": 0,
      "note": 60,
      "start": 0.6005,
      "duration": 0.2498,
      "velocity": 1,
      "chip": "ym2612"
    },
    {
      "channel": 0,
      "note": 61,
      "start": 0.8505,
      "duration": 0.1181,
      "velocity": 1,
      "chip": "ym2612"
    },
    {
      "channel": 0,
      "note": 55,
      "start": 0.9687,
      "duration": 0.9666,
      "velocity": 1,
      "chip": "ym2612"
    },
    {
      "channel": 0,
      "note": 48,
      "start": 1.9354,
      "duration": 0.4649,
      "velocity": 1,
      "chip": "ym2612"
    },
    {
      "channel": 2,
      "note": 84,
      "start": 1.9361,
      "duration": 1.9165,
      "velocity": 90,
      "chip": "ym2612"
    },
    {
      "channel": 3,
      "note": 79,
      "start": 1.9367,
      "duration": 1.9165,
      "velocity": 90,
      "chip": "ym2612"
    },
    {
      "channel": 0,
      "note": 58,
      "start": 2.4005,
      "duration": 0.1332,
      "velocity": 1,
      "chip": "ym2612"
    },
    {
      "channel": 0,
      "note": 59,
      "start": 2.5338,
      "duration": 0.2332,
      "velocity": 1,
      "chip": "ym2612"
    },
    {
      "channel": 0,
      "note": 60,
      "start": 2.7671,
      "duration": 0.1181,
      "velocity": 1,
      "chip": "ym2612"
    },
    {
      "channel": 0,
      "note": 55,
      "start": 2.8854,
      "duration": 0.9665,
      "velocity": 1,
      "chip": "ym2612"
    },
    {
      "channel": 0,
      "note": 49,
      "start": 3.8521,
      "duration": 0.4816,
      "velocity": 1,
      "chip": "ym2612"
    },
    {
      "channel": 2,
      "note": 85,
      "start": 3.8527,
      "duration": 1.9165,
      "velocity": 90,
      "chip": "ym2612"
    },
    {
      "channel": 3,
      "note": 80,
      "start": 3.8533,
      "duration": 1.9165,
      "velocity": 90,
      "chip": "ym2612"
    },
    {
      "channel": 0,
      "note": 59,
      "start": 4.3338,
      "duration": 0.1166,
      "velocity": 1,
      "chip": "ym2612"
    },
    {
      "channel": 0,
      "note": 60,
      "start": 4.4505,
      "duration": 0.2332,
      "velocity": 1,
      "chip": "ym2612"
    },
    {
      "channel": 0,
      "note": 61,
      "start": 4.6838,
      "duration": 0.1181,
      "velocity": 1,
      "chip": "ym2612"
    },
    {
      "channel": 0,
      "note": 55,
      "start": 4.8021,
      "duration": 0.9665,
      "velocity": 1,
      "chip": "ym2612"
    },
    {
      "channel": 0,
      "note": 48,
      "start": 5.7688,
      "duration": 0.4816,
      "velocity": 1,
      "chip": "ym2612"
    },
    {
      "channel": 2,
      "note": 84,
      "start": 5.7694,
      "duration": 1.9187,
      "velocity": 90,
      "chip": "ym2612"
    },
    {
      "channel": 3,
      "note": 79,
      "start": 5.7699,
      "duration": 2.3505,
      "velocity": 90,
      "chip": "ym2612"
    },
    {
      "channel": 0,
      "note": 58,
      "start": 6.2505,
      "duration": 0.1165,
      "velocity": 1,
      "chip": "ym2612"
    },
    {
      "channel": 0,
      "note": 59,
      "start": 6.3672,
      "duration": 0.2332,
      "velocity": 1,
      "chip": "ym2612"
    },
    {
      "channel": 0,
      "note": 60,
      "start": 6.6005,
      "duration": 0.1348,
      "velocity": 1,
      "chip": "ym2612"
    },
    {
      "channel": 0,
      "note": 55,
      "start": 6.7354,
      "duration": 0.95,
      "velocity": 1,
      "chip": "ym2612"
    },
    {
      "channel": 0,
      "note": 49,
      "start": 7.6856,
      "duration": 0.4321,
      "velocity": 1,
      "chip": "ym2612"
    },
    {
      "channel": 1,
      "note": 86,
      "start": 7.6877,
      "duration": 0.1983,
      "velocity": 118,
      "chip": "ym2612"
    },
    {
      "channel": 2,
      "note": 85,
      "start": 7.6883,
      "duration": 1.6672,
      "velocity": 90,
      "chip": "ym2612"
    },
    {
      "channel": 4,
      "note": 80,
      "start": 7.6905,
      "duration": 1.6656,
      "velocity": 90,
      "chip": "ym2612"
    },
    {
      "channel": 1,
      "note": 86,
      "start": 7.8861,
      "duration": 0.2338,
      "velocity": 118,
      "chip": "ym2612"
    },
    {
      "channel": 0,
      "note": 59,
      "start": 8.1179,
      "duration": 0.0857,
      "velocity": 1,
      "chip": "ym2612"
    },
    {
      "channel": 1,
      "note": 86,
      "start": 8.12,
      "duration": 0.1982,
      "velocity": 118,
      "chip": "ym2612"
    },
    {
      "channel": 3,
      "note": 97,
      "start": 8.1207,
      "duration": 0.0836,
      "velocity": 90,
      "chip": "ym2612"
    },
    {
      "channel": 0,
      "note": 60,
      "start": 8.2038,
      "duration": 0.2461,
      "velocity": 1,
      "chip": "ym2612"
    },
    {
      "channel": 3,
      "note": 95,
      "start": 8.2044,
      "duration": 0.1144,
      "velocity": 90,
      "chip": "ym2612"
    },
    {
      "channel": 1,
      "note": 86,
      "start": 8.3183,
      "duration": 0.2215,
      "velocity": 118,
      "chip": "ym2612"
    },
    {
      "channel": 3,
      "note": 91,
      "start": 8.319,
      "duration": 0.1316,
      "velocity": 90,
      "chip": "ym2612"
    },
    {
      "channel": 0,
      "note": 61,
      "start": 8.4501,
      "duration": 0.0876,
      "velocity": 1,
      "chip": "ym2612"
    },
    {
      "channel": 3,
      "note": 88,
      "start": 8.4507,
      "duration": 1.8428,
      "velocity": 90,
      "chip": "ym2612"
    },
    {
      "channel": 0,
      "note": 55,
      "start": 8.5378,
      "duration": 0.8151,
      "velocity": 1,
      "chip": "ym2612"
    },
    {
      "channel": 1,
      "note": 86,
      "start": 8.5399,
      "duration": 0.1813,
      "velocity": 118,
      "chip": "ym2612"
    },
    {
      "channel": 1,
      "note": 86,
      "start": 8.7213,
      "duration": 0.1989,
      "velocity": 118,
      "chip": "ym2612"
    },
    {
      "channel": 1,
      "note": 86,
      "start": 8.9204,
      "duration": 0.199,
      "velocity": 118,
      "chip": "ym2612"
    },
    {
      "channel": 1,
      "note": 86,
      "start": 9.1196,
      "duration": 0.2354,
      "velocity": 118,
      "chip": "ym2612"
    },
    {
      "channel": 0,
      "note": 48,
      "start": 9.353,
      "duration": 0.431,
      "velocity": 1,
      "chip": "ym2612"
    },
    {
      "channel": 1,
      "note": 86,
      "start": 9.3552,
      "duration": 0.1971,
      "velocity": 118,
      "chip": "ym2612"
    },
    {
      "channel": 2,
      "note": 84,
      "start": 9.3557,
      "duration": 1.6768,
      "velocity": 90,
      "chip": "ym2612"
    },
    {
      "channel": 4,
      "note": 79,
      "start": 9.3563,
      "duration": 1.6768,
      "velocity": 90,
      "chip": "ym2612"
    },
    {
      "channel": 1,
      "note": 86,
      "start": 9.5524,
      "duration": 0.2337,
      "velocity": 118,
      "chip": "ym2612"
    },
    {
      "channel": 0,
      "note": 58,
      "start": 9.7841,
      "duration": 0.0869,
      "velocity": 1,
      "chip": "ym2612"
    },
    {
      "channel": 1,
      "note": 86,
      "start": 9.7863,
      "duration": 0.216,
      "velocity": 118,
      "chip": "ym2612"
    },
    {
      "channel": 0,
      "note": 59,
      "start": 9.8712,
      "duration": 0.2462,
      "velocity": 1,
      "chip": "ym2612"
    },
    {
      "channel": 1,
      "note": 86,
      "start": 10.0025,
      "duration": 0.2046,
      "velocity": 118,
      "chip": "ym2612"
    },
    {
      "channel": 0,
      "note": 60,
      "start": 10.1176,
      "duration": 0.0875,
      "velocity": 1,
      "chip": "ym2612"
    },
    {
      "channel": 0,
      "note": 55,
      "start": 10.2051,
      "duration": 0.8246,
      "velocity": 1,
      "chip": "ym2612"
    },
    {
      "channel": 1,
      "note": 86,
      "start": 10.2073,
      "duration": 0.1733,
      "velocity": 118,
      "chip": "ym2612"
    },
    {
      "channel": 3,
      "note": 85,
      "start": 10.2936,
      "duration": 0.0875,
      "velocity": 90,
      "chip": "ym2612"
    },
    {
      "channel": 1,
      "note": 86,
      "start": 10.3807,
      "duration": 0.1998,
      "velocity": 118,
      "chip": "ym2612"
    },
    {
      "channel": 3,
      "note": 88,
      "start": 10.3813,
      "duration": 0.0961,
      "velocity": 90,
      "chip": "ym2612"
    },
    {
      "channel": 3,
      "note": 90,
      "start": 10.4776,
      "duration": 0.1036,
      "velocity": 90,
      "chip": "ym2612"
    },
    {
      "channel": 1,
      "note": 86,
      "start": 10.5807,
      "duration": 0.199,
      "velocity": 118,
      "chip": "ym2612"
    },
    {
      "channel": 3,
      "note": 91,
      "start": 10.5813,
      "duration": 0.199,
      "velocity": 90,
      "chip": "ym2612"
    },
    {
      "channel": 1,
      "note": 86,
      "start": 10.7799,
      "duration": 0.252,
      "velocity": 118,
      "chip": "ym2612"
    },
    {
      "channel": 3,
      "note": 90,
      "start": 10.7805,
      "duration": 0.1144,
      "velocity": 90,
      "chip": "ym2612"
    },
    {
      "channel": 3,
      "note": 88,
      "start": 10.8951,
      "duration": 1.4414,
      "velocity": 90,
      "chip": "ym2612"
    },
    {
      "channel": 0,
      "note": 49,
      "start": 11.03,
      "duration": 0.4158,
      "velocity": 1,
      "chip": "ym2612"
    },
    {
      "channel": 1,
      "note": 86,
      "start": 11.0321,
      "duration": 0.1819,
      "velocity": 118,
      "chip": "ym2612"
    },
    {
      "channel": 2,
      "note": 85,
      "start": 11.0326,
      "duration": 1.6695,
      "velocity": 90,
      "chip": "ym2612"
    },
    {
      "channel": 4,
      "note": 80,
      "start": 11.0332,
      "duration": 1.6696,
      "velocity": 90,
      "chip": "ym2612"
    },
    {
      "channel": 1,
      "note": 86,
      "start": 11.2141,
      "duration": 0.2337,
      "velocity": 118,
      "chip": "ym2612"
    },
    {
      "channel": 0,
      "note": 59,
      "start": 11.4458,
      "duration": 0.0996,
      "velocity": 1,
      "chip": "ym2612"
    },
    {
      "channel": 1,
      "note": 86,
      "start": 11.448,
      "duration": 0.2157,
      "velocity": 118,
      "chip": "ym2612"
    },
    {
      "channel": 0,
      "note": 60,
      "start": 11.5456,
      "duration": 0.2332,
      "velocity": 1,
      "chip": "ym2612"
    },
    {
      "channel": 1,
      "note": 86,
      "start": 11.6638,
      "duration": 0.2054,
      "velocity": 118,
      "chip": "ym2612"
    },
    {
      "channel": 0,
      "note": 61,
      "start": 11.7789,
      "duration": 0.0882,
      "velocity": 1,
      "chip": "ym2612"
    },
    {
      "channel": 0,
      "note": 55,
      "start": 11.8673,
      "duration": 0.8322,
      "velocity": 1,
      "chip": "ym2612"
    },
    {
      "channel": 1,
      "note": 86,
      "start": 11.8694,
      "duration": 0.1971,
      "velocity": 118,
      "chip": "ym2612"
    },
    {
      "channel": 1,
      "note": 86,
      "start": 12.0667,
      "duration": 0.1827,
      "velocity": 118,
      "chip": "ym2612"
    },
    {
      "channel": 1,
      "note": 86,
      "start": 12.2495,
      "duration": 0.1999,
      "velocity": 118,
      "chip": "ym2612"
    },
    {
      "channel": 3,
      "note": 85,
      "start": 12.3367,
      "duration": 0.1133,
      "velocity": 90,
      "chip": "ym2612"
    },
    {
      "channel": 1,
      "note": 86,
      "start": 12.4496,
      "duration": 0.252,
      "velocity": 118,
      "chip": "ym2612"
    },
    {
      "channel": 3,
      "note": 83,
      "start": 12.4502,
      "duration": 0.1311,
      "velocity": 90,
      "chip": "ym2612"
    },
    {
      "channel": 3,
      "note": 84,
      "start": 12.5815,
      "duration": 1.9629,
      "velocity": 90,
      "chip": "ym2612"
    },
    {
      "channel": 0,
      "note": 48,
      "start": 12.6997,
      "duration": 0.4327,
      "velocity": 1,
      "chip": "ym2612"
    },
    {
      "channel": 1,
      "note": 86,
      "start": 12.7018,
      "duration": 0.1822,
      "velocity": 118,
      "chip": "ym2612"
    },
    {
      "channel": 2,
      "note": 84,
      "start": 12.7024,
      "duration": 1.6574,
      "velocity": 90,
      "chip": "ym2612"
    },
    {
      "channel": 4,
      "note": 79,
      "start": 12.7029,
      "duration": 1.6575,
      "velocity": 90,
      "chip": "ym2612"
    },
    {
      "channel": 1,
      "note": 86,
      "start": 12.8841,
      "duration": 0.2503,
      "velocity": 118,
      "chip": "ym2612"
    },
    {
      "channel": 0,
      "note": 58,
      "start": 13.1325,
      "duration": 0.0862,
      "velocity": 1,
      "chip": "ym2612"
    },
    {
      "channel": 1,
      "note": 86,
      "start": 13.1347,
      "duration": 0.1987,
      "velocity": 118,
      "chip": "ym2612"
    },
    {
      "channel": 0,
      "note": 59,
      "start": 13.2189,
      "duration": 0.2296,
      "velocity": 1,
      "chip": "ym2612"
    },
    {
      "channel": 1,
      "note": 86,
      "start": 13.3335,
      "duration": 0.2052,
      "velocity": 118,
      "chip": "ym2612"
    },
    {
      "channel": 0,
      "note": 60,
      "start": 13.4485,
      "duration": 0.088,
      "velocity": 1,
      "chip": "ym2612"
    },
    {
      "channel": 0,
      "note": 55,
      "start": 13.5367,
      "duration": 0.8203,
      "velocity": 1,
      "chip": "ym2612"
    },
    {
      "channel": 1,
      "note": 86,
      "start": 13.5388,
      "duration": 0.1854,
      "velocity": 118,
      "chip": "ym2612"
    },
    {
      "channel": 1,
      "note": 86,
      "start": 13.7244,
      "duration": 0.1831,
      "velocity": 118,
      "chip": "ym2612"
    },
    {
      "channel": 1,
      "note": 86,
      "start": 13.9076,
      "duration": 0.216,
      "velocity": 118,
      "chip": "ym2612"
    },
    {
      "channel": 1,
      "note": 86,
      "start": 14.1237,
      "duration": 0.2354,
      "velocity": 118,
      "chip": "ym2612"
    },
    {
      "channel": 0,
      "note": 49,
      "start": 14.3572,
      "duration": 0.4334,
      "velocity": 1,
      "chip": "ym2612"
    },
    {
      "channel": 1,
      "note": 86,
      "start": 14.3593,
      "duration": 0.1829,
      "velocity": 118,
      "chip": "ym2612"
    },
    {
      "channel": 2,
      "note": 85,
      "start": 14.36,
      "duration": 1.6678,
      "velocity": 90,
      "chip": "ym2612"
    },
    {
      "channel": 4,
      "note": 80,
      "start": 14.3606,
      "duration": 1.6693,
      "velocity": 90,
      "chip": "ym2612"
    },
    {
      "channel": 1,
      "note": 86,
      "start": 14.5424,
      "duration": 0.2504,
      "velocity": 118,
      "chip": "ym2612"
    },
    {
      "channel": 3,
      "note": 85,
      "start": 14.5446,
      "duration": 0.2488,
      "velocity": 90,
      "chip": "ym2612"
    },
    {
      "channel": 0,
      "note": 59,
      "start": 14.7908,
      "duration": 0.0859,
      "velocity": 1,
      "chip": "ym2612"
    },
    {
      "channel": 1,
      "note": 86,
      "start": 14.7929,
      "duration": 0.1983,
      "velocity": 118,
      "chip": "ym2612"
    },
    {
      "channel": 3,
      "note": 88,
      "start": 14.7935,
      "duration": 0.1983,
      "velocity": 90,
      "chip": "ym2612"
    },
    {
      "channel": 0,
      "note": 60,
      "start": 14.8769,
      "duration": 0.2294,
      "velocity": 1,
      "chip": "ym2612"
    },
    {
      "channel": 1,
      "note": 86,
      "start": 14.9914,
      "duration": 0.2189,
      "velocity": 118,
      "chip": "ym2612"
    },
    {
      "channel": 3,
      "note": 85,
      "start": 14.992,
      "duration": 0.2189,
      "velocity": 90,
      "chip": "ym2612"
    },
    {
      "channel": 0,
      "note": 61,
      "start": 15.1064,
      "duration": 0.1017,
      "velocity": 1,
      "chip": "ym2612"
    },
    {
      "channel": 0,
      "note": 55,
      "start": 15.2084,
      "duration": 0.8167,
      "velocity": 1,
      "chip": "ym2612"
    },
    {
      "channel": 1,
      "note": 86,
      "start": 15.2105,
      "duration": 0.1809,
      "velocity": 118,
      "chip": "ym2612"
    },
    {
      "channel": 3,
      "note": 88,
      "start": 15.2111,
      "duration": 0.1809,
      "velocity": 90,
      "chip": "ym2612"
    },
    {
      "channel": 1,
      "note": 86,
      "start": 15.3915,
      "duration": 0.1837,
      "velocity": 118,
      "chip": "ym2612"
    },
    {
      "channel": 3,
      "note": 90,
      "start": 15.3922,
      "duration": 0.4017,
      "velocity": 90,
      "chip": "ym2612"
    },
    {
      "channel": 1,
      "note": 86,
      "start": 15.5753,
      "duration": 0.2164,
      "velocity": 118,
      "chip": "ym2612"
    },
    {
      "channel": 1,
      "note": 86,
      "start": 15.7918,
      "duration": 0.2353,
      "velocity": 118,
      "chip": "ym2612"
    },
    {
      "channel": 3,
      "note": 91,
      "start": 15.794,
      "duration": 1.4593,
      "velocity": 90,
      "chip": "ym2612"
    },
    {
      "channel": 0,
      "note": 48,
      "start": 16.0252,
      "duration": 0.4322,
      "velocity": 1,
      "chip": "ym2612"
    },
    {
      "channel": 1,
      "note": 86,
      "start": 16.0273,
      "duration": 0.1983,
      "velocity": 118,
      "chip": "ym2612"
    },
    {
      "channel": 2,
      "note": 84,
      "start": 16.0279,
      "duration": 1.6587,
      "velocity": 90,
      "chip": "ym2612"
    },
    {
      "channel": 4,
      "note": 79,
      "start": 16.0301,
      "duration": 1.6592,
      "velocity": 90,
      "chip": "ym2612"
    },
    {
      "channel": 1,
      "note": 86,
      "start": 16.2258,
      "duration": 0.2337,
      "velocity": 118,
      "chip": "ym2612"
    },
    {
      "channel": 0,
      "note": 58,
      "start": 16.4575,
      "duration": 0.0859,
      "velocity": 1,
      "chip": "ym2612"
    },
    {
      "channel": 1,
      "note": 86,
      "start": 16.4597,
      "duration": 0.1981,
      "velocity": 118,
      "chip": "ym2612"
    },
    {
      "channel": 0,
      "note": 59,
      "start": 16.5436,
      "duration": 0.246,
      "velocity": 1,
      "chip": "ym2612"
    },
    {
      "channel": 1,
      "note": 86,
      "start": 16.658,
      "duration": 0.2225,
      "velocity": 118,
      "chip": "ym2612"
    },
    {
      "channel": 0,
      "note": 60,
      "start": 16.7897,
      "duration": 0.0888,
      "velocity": 1,
      "chip": "ym2612"
    },
    {
      "channel": 0,
      "note": 55,
      "start": 16.8786,
      "duration": 0.8053,
      "velocity": 1,
      "chip": "ym2612"
    },
    {
      "channel": 1,
      "note": 86,
      "start": 16.8807,
      "duration": 0.17,
      "velocity": 118,
      "chip": "ym2612"
    },
    {
      "channel": 1,
      "note": 86,
      "start": 17.0509,
      "duration": 0.2002,
      "velocity": 118,
      "chip": "ym2612"
    },
    {
      "channel": 1,
      "note": 86,
      "start": 17.2512,
      "duration": 0.1993,
      "velocity": 118,
      "chip": "ym2612"
    },
    {
      "channel": 3,
      "note": 96,
      "start": 17.2534,
      "duration": 0.4353,
      "velocity": 90,
      "chip": "ym2612"
    },
    {
      "channel": 1,
      "note": 86,
      "start": 17.4507,
      "duration": 0.2353,
      "velocity": 118,
      "chip": "ym2612"
    },
    {
      "channel": 0,
      "note": 49,
      "start": 17.6841,
      "duration": 0.4312,
      "velocity": 1,
      "chip": "ym2612"
    },
    {
      "channel": 1,
      "note": 86,
      "start": 17.6863,
      "duration": 0.1973,
      "velocity": 118,
      "chip": "ym2612"
    },
    {
      "channel": 2,
      "note": 85,
      "start": 17.6868,
      "duration": 1.6873,
      "velocity": 90,
      "chip": "ym2612"
    },
    {
      "channel": 3,
      "note": 97,
      "start": 17.6889,
      "duration": 3.3408,
      "velocity": 1,
      "chip": "ym2612"
    },
    {
      "channel": 4,
      "note": 80,
      "start": 17.6895,
      "duration": 1.6852,
      "velocity": 90,
      "chip": "ym2612"
    },
    {
      "channel": 1,
      "note": 86,
      "start": 17.8837,
      "duration": 0.2337,
      "velocity": 118,
      "chip": "ym2612"
    },
    {
      "channel": 0,
      "note": 59,
      "start": 18.1154,
      "duration": 0.0873,
      "velocity": 1,
      "chip": "ym2612"
    },
    {
      "channel": 1,
      "note": 86,
      "start": 18.1176,
      "duration": 0.2163,
      "velocity": 118,
      "chip": "ym2612"
    },
    {
      "channel": 0,
      "note": 60,
      "start": 18.2029,
      "duration": 0.2461,
      "velocity": 1,
      "chip": "ym2612"
    },
    {
      "channel": 1,
      "note": 86,
      "start": 18.3341,
      "duration": 0.2048,
      "velocity": 118,
      "chip": "ym2612"
    },
    {
      "channel": 0,
      "note": 61,
      "start": 18.4491,
      "duration": 0.0877,
      "velocity": 1,
      "chip": "ym2612"
    },
    {
      "channel": 0,
      "note": 55,
      "start": 18.537,
      "duration": 0.8344,
      "velocity": 1,
      "chip": "ym2612"
    },
    {
      "channel": 1,
      "note": 86,
      "start": 18.5391,
      "duration": 0.1814,
      "velocity": 118,
      "chip": "ym2612"
    },
    {
      "channel": 1,
      "note": 86,
      "start": 18.7207,
      "duration": 0.2006,
      "velocity": 118,
      "chip": "ym2612"
    },
    {
      "channel": 1,
      "note": 86,
      "start": 18.9215,
      "duration": 0.1999,
      "velocity": 118,
      "chip": "ym2612"
    },
    {
      "channel": 1,
      "note": 86,
      "start": 19.1215,
      "duration": 0.252,
      "velocity": 118,
      "chip": "ym2612"
    },
    {
      "channel": 0,
      "note": 48,
      "start": 19.3716,
      "duration": 0.4145,
      "velocity": 1,
      "chip": "ym2612"
    },
    {
      "channel": 1,
      "note": 86,
      "start": 19.3737,
      "duration": 0.1807,
      "velocity": 118,
      "chip": "ym2612"
    },
    {
      "channel": 2,
      "note": 84,
      "start": 19.3742,
      "duration": 1.7402,
      "velocity": 103,
      "chip": "ym2612"
    },
    {
      "channel": 4,
      "note": 79,
      "start": 19.3749,
      "duration": 1.6569,
      "velocity": 118,
      "chip": "ym2612"
    },
    {
      "channel": 1,
      "note": 86,
      "start": 19.5544,
      "duration": 0.2337,
      "velocity": 118,
      "chip": "ym2612"
    },
    {
      "channel": 0,
      "note": 58,
      "start": 19.7862,
      "duration": 0.0984,
      "velocity": 1,
      "chip": "ym2612"
    },
    {
      "channel": 1,
      "note": 86,
      "start": 19.7884,
      "duration": 0.2144,
      "velocity": 118,
      "chip": "ym2612"
    },
    {
      "channel": 0,
      "note": 59,
      "start": 19.8847,
      "duration": 0.2332,
      "velocity": 1,
      "chip": "ym2612"
    },
    {
      "channel": 1,
      "note": 86,
      "start": 20.003,
      "duration": 0.2048,
      "velocity": 118,
      "chip": "ym2612"
    },
    {
      "channel": 0,
      "note": 60,
      "start": 20.118,
      "duration": 0.0877,
      "velocity": 1,
      "chip": "ym2612"
    },
    {
      "channel": 0,
      "note": 55,
      "start": 20.2059,
      "duration": 0.8195,
      "velocity": 117,
      "chip": "ym2612"
    },
    {
      "channel": 1,
      "note": 86,
      "start": 20.208,
      "duration": 0.1842,
      "velocity": 118,
      "chip": "ym2612"
    },
    {
      "channel": 1,
      "note": 86,
      "start": 20.3924,
      "duration": 0.1828,
      "velocity": 118,
      "chip": "ym2612"
    },
    {
      "channel": 1,
      "note": 86,
      "start": 20.5754,
      "duration": 0.1999,
      "velocity": 118,
      "chip": "ym2612"
    },
    {
      "channel": 1,
      "note": 86,
      "start": 20.7754,
      "duration": 0.252,
      "velocity": 103,
      "chip": "ym2612"
    },
    {
      "channel": 0,
      "note": 51,
      "start": 21.0256,
      "duration": 0.299,
      "velocity": 117,
      "chip": "ym2612"
    },
    {
      "channel": 1,
      "note": 99,
      "start": 21.0277,
      "duration": 0.1802,
      "velocity": 103,
      "chip": "ym2612"
    },
    {
      "channel": 3,
      "note": 67,
      "start": 21.0299,
      "duration": 6.9672,
      "velocity": 90,
      "chip": "ym2612"
    },
    {
      "channel": 4,
      "note": 86,
      "start": 21.032,
      "duration": 0.1782,
      "velocity": 118,
      "chip": "ym2612"
    },
    {
      "channel": 2,
      "note": 99,
      "start": 21.1147,
      "duration": 0.211,
      "velocity": 103,
      "chip": "ym2612"
    },
    {
      "channel": 1,
      "note": 87,
      "start": 21.2081,
      "duration": 0.117,
      "velocity": 103,
      "chip": "ym2612"
    },
    {
      "channel": 4,
      "note": 86,
      "start": 21.2104,
      "duration": 0.2499,
      "velocity": 118,
      "chip": "ym2612"
    },
    {
      "channel": 0,
      "note": 51,
      "start": 21.3247,
      "duration": 0.2207,
      "velocity": 117,
      "chip": "ym2612"
    },
    {
      "channel": 1,
      "note": 99,
      "start": 21.3253,
      "duration": 0.2206,
      "velocity": 103,
      "chip": "ym2612"
    },
    {
      "channel": 2,
      "note": 87,
      "start": 21.3258,
      "duration": 0.1322,
      "velocity": 103,
      "chip": "ym2612"
    },
    {
      "channel": 2,
      "note": 99,
      "start": 21.4582,
      "duration": 0.2002,
      "velocity": 103,
      "chip": "ym2612"
    },
    {
      "channel": 4,
      "note": 86,
      "start": 21.4604,
      "duration": 0.2002,
      "velocity": 118,
      "chip": "ym2612"
    },
    {
      "channel": 0,
      "note": 61,
      "start": 21.5455,
      "duration": 0.2294,
      "velocity": 117,
      "chip": "ym2612"
    },
    {
      "channel": 1,
      "note": 87,
      "start": 21.5461,
      "duration": 0.2294,
      "velocity": 103,
      "chip": "ym2612"
    },
    {
      "channel": 2,
      "note": 87,
      "start": 21.6586,
      "duration": 0.202,
      "velocity": 103,
      "chip": "ym2612"
    },
    {
      "channel": 4,
      "note": 86,
      "start": 21.6608,
      "duration": 0.2019,
      "velocity": 118,
      "chip": "ym2612"
    },
    {
      "channel": 0,
      "note": 63,
      "start": 21.7751,
      "duration": 0.1833,
      "velocity": 117,
      "chip": "ym2612"
    },
    {
      "channel": 1,
      "note": 99,
      "start": 21.7757,
      "duration": 0.1833,
      "velocity": 103,
      "chip": "ym2612"
    },
    {
      "channel": 2,
      "note": 99,
      "start": 21.8607,
      "duration": 0.1997,
      "velocity": 103,
      "chip": "ym2612"
    },
    {
      "channel": 4,
      "note": 86,
      "start": 21.8629,
      "duration": 0.1997,
      "velocity": 118,
      "chip": "ym2612"
    },
    {
      "channel": 0,
      "note": 49,
      "start": 21.9586,
      "duration": 0.188,
      "velocity": 117,
      "chip": "ym2612"
    },
    {
      "channel": 1,
      "note": 99,
      "start": 21.9591,
      "duration": 0.1007,
      "velocity": 103,
      "chip": "ym2612"
    },
    {
      "channel": 1,
      "note": 97,
      "start": 22.06,
      "duration": 0.0872,
      "velocity": 103,
      "chip": "ym2612"
    },
    {
      "channel": 2,
      "note": 99,
      "start": 22.0605,
      "duration": 0.0872,
      "velocity": 103,
      "chip": "ym2612"
    },
    {
      "channel": 4,
      "note": 86,
      "start": 22.0627,
      "duration": 0.1835,
      "velocity": 118,
      "chip": "ym2612"
    },
    {
      "channel": 0,
      "note": 46,
      "start": 22.1467,
      "duration": 0.0962,
      "velocity": 117,
      "chip": "ym2612"
    },
    {
      "channel": 1,
      "note": 94,
      "start": 22.1473,
      "duration": 0.0961,
      "velocity": 103,
      "chip": "ym2612"
    },
    {
      "channel": 2,
      "note": 97,
      "start": 22.1478,
      "duration": 0.0962,
      "velocity": 103,
      "chip": "ym2612"
    },
    {
      "channel": 0,
      "note": 49,
      "start": 22.243,
      "duration": 0.2166,
      "velocity": 117,
      "chip": "ym2612"
    },
    {
      "channel": 1,
      "note": 97,
      "start": 22.2436,
      "duration": 0.2166,
      "velocity": 103,
      "chip": "ym2612"
    },
    {
      "channel": 2,
      "note": 94,
      "start": 22.2442,
      "duration": 0.0862,
      "velocity": 103,
      "chip": "ym2612"
    },
    {
      "channel": 4,
      "note": 86,
      "start": 22.2463,
      "duration": 0.2161,
      "velocity": 118,
      "chip": "ym2612"
    },
    {
      "channel": 2,
      "note": 97,
      "start": 22.3305,
      "duration": 0.2459,
      "velocity": 103,
      "chip": "ym2612"
    },
    {
      "channel": 0,
      "note": 51,
      "start": 22.4598,
      "duration": 0.2332,
      "velocity": 117,
      "chip": "ym2612"
    },
    {
      "channel": 1,
      "note": 99,
      "start": 22.4603,
      "duration": 0.2332,
      "velocity": 103,
      "chip": "ym2612"
    },
    {
      "channel": 4,
      "note": 86,
      "start": 22.4626,
      "duration": 0.2332,
      "velocity": 118,
      "chip": "ym2612"
    },
    {
      "channel": 2,
      "note": 99,
      "start": 22.5766,
      "duration": 0.2044,
      "velocity": 103,
      "chip": "ym2612"
    },
    {
      "channel": 0,
      "note": 48,
      "start": 22.6932,
      "duration": 0.3177,
      "velocity": 117,
      "chip": "ym2612"
    },
    {
      "channel": 1,
      "note": 96,
      "start": 22.6937,
      "duration": 0.1838,
      "velocity": 103,
      "chip": "ym2612"
    },
    {
      "channel": 4,
      "note": 86,
      "start": 22.6959,
      "duration": 0.1838,
      "velocity": 118,
      "chip": "ym2612"
    },
    {
      "channel": 2,
      "note": 96,
      "start": 22.7812,
      "duration": 0.2307,
      "velocity": 103,
      "chip": "ym2612"
    },
    {
      "channel": 1,
      "note": 84,
      "start": 22.8777,
      "duration": 0.1337,
      "velocity": 103,
      "chip": "ym2612"
    },
    {
      "channel": 4,
      "note": 86,
      "start": 22.88,
      "duration": 0.2499,
      "velocity": 118,
      "chip": "ym2612"
    },
    {
      "channel": 0,
      "note": 48,
      "start": 23.011,
      "duration": 0.202,
      "velocity": 117,
      "chip": "ym2612"
    },
    {
      "channel": 1,
      "note": 96,
      "start": 23.0115,
      "duration": 0.2021,
      "velocity": 103,
      "chip": "ym2612"
    },
    {
      "channel": 2,
      "note": 84,
      "start": 23.0121,
      "duration": 0.1156,
      "velocity": 103,
      "chip": "ym2612"
    },
    {
      "channel": 2,
      "note": 96,
      "start": 23.1278,
      "duration": 0.1985,
      "velocity": 103,
      "chip": "ym2612"
    },
    {
      "channel": 4,
      "note": 86,
      "start": 23.13,
      "duration": 0.1984,
      "velocity": 118,
      "chip": "ym2612"
    },
    {
      "channel": 0,
      "note": 59,
      "start": 23.2132,
      "duration": 0.2297,
      "velocity": 117,
      "chip": "ym2612"
    },
    {
      "channel": 1,
      "note": 84,
      "start": 23.2137,
      "duration": 0.2297,
      "velocity": 103,
      "chip": "ym2612"
    },
    {
      "channel": 2,
      "note": 84,
      "start": 23.3265,
      "duration": 0.2156,
      "velocity": 103,
      "chip": "ym2612"
    },
    {
      "channel": 4,
      "note": 86,
      "start": 23.3286,
      "duration": 0.2156,
      "velocity": 118,
      "chip": "ym2612"
    },
    {
      "channel": 0,
      "note": 60,
      "start": 23.443,
      "duration": 0.1864,
      "velocity": 117,
      "chip": "ym2612"
    },
    {
      "channel": 1,
      "note": 96,
      "start": 23.4436,
      "duration": 0.1863,
      "velocity": 103,
      "chip": "ym2612"
    },
    {
      "channel": 2,
      "note": 96,
      "start": 23.5422,
      "duration": 0.1741,
      "velocity": 103,
      "chip": "ym2612"
    },
    {
      "channel": 4,
      "note": 86,
      "start": 23.5445,
      "duration": 0.174,
      "velocity": 118,
      "chip": "ym2612"
    },
    {
      "channel": 0,
      "note": 48,
      "start": 23.6295,
      "duration": 0.0857,
      "velocity": 117,
      "chip": "ym2612"
    },
    {
      "channel": 1,
      "note": 96,
      "start": 23.6301,
      "duration": 0.0857,
      "velocity": 103,
      "chip": "ym2612"
    },
    {
      "channel": 0,
      "note": 46,
      "start": 23.7154,
      "duration": 0.0868,
      "velocity": 117,
      "chip": "ym2612"
    },
    {
      "channel": 1,
      "note": 94,
      "start": 23.7159,
      "duration": 0.0867,
      "velocity": 103,
      "chip": "ym2612"
    },
    {
      "channel": 2,
      "note": 96,
      "start": 23.7165,
      "duration": 0.0867,
      "velocity": 103,
      "chip": "ym2612"
    },
    {
      "channel": 4,
      "note": 86,
      "start": 23.7187,
      "duration": 0.1831,
      "velocity": 118,
      "chip": "ym2612"
    },
    {
      "channel": 0,
      "note": 43,
      "start": 23.8023,
      "duration": 0.0962,
      "velocity": 117,
      "chip": "ym2612"
    },
    {
      "channel": 1,
      "note": 91,
      "start": 23.8029,
      "duration": 0.0962,
      "velocity": 103,
      "chip": "ym2612"
    },
    {
      "channel": 2,
      "note": 94,
      "start": 23.8034,
      "duration": 0.0961,
      "velocity": 103,
      "chip": "ym2612"
    },
    {
      "channel": 0,
      "note": 46,
      "start": 23.8986,
      "duration": 0.0997,
      "velocity": 117,
      "chip": "ym2612"
    },
    {
      "channel": 1,
      "note": 94,
      "start": 23.8992,
      "duration": 0.2163,
      "velocity": 103,
      "chip": "ym2612"
    },
    {
      "channel": 2,
      "note": 91,
      "start": 23.8998,
      "duration": 0.0991,
      "velocity": 103,
      "chip": "ym2612"
    },
    {
      "channel": 4,
      "note": 86,
      "start": 23.902,
      "duration": 0.2158,
      "velocity": 118,
      "chip": "ym2612"
    },
    {
      "channel": 0,
      "note": 48,
      "start": 23.9985,
      "duration": 0.1165,
      "velocity": 117,
      "chip": "ym2612"
    },
    {
      "channel": 2,
      "note": 94,
      "start": 23.9991,
      "duration": 0.2332,
      "velocity": 103,
      "chip": "ym2612"
    },
    {
      "channel": 0,
      "note": 51,
      "start": 24.1151,
      "duration": 0.1165,
      "velocity": 117,
      "chip": "ym2612"
    },
    {
      "channel": 1,
      "note": 96,
      "start": 24.1156,
      "duration": 0.2332,
      "velocity": 103,
      "chip": "ym2612"
    },
    {
      "channel": 4,
      "note": 86,
      "start": 24.1179,
      "duration": 0.2332,
      "velocity": 118,
      "chip": "ym2612"
    },
    {
      "channel": 0,
      "note": 53,
      "start": 24.2318,
      "duration": 0.1165,
      "velocity": 117,
      "chip": "ym2612"
    },
    {
      "channel": 2,
      "note": 96,
      "start": 24.2324,
      "duration": 0.2029,
      "velocity": 103,
      "chip": "ym2612"
    },
    {
      "channel": 0,
      "note": 51,
      "start": 24.3485,
      "duration": 0.3165,
      "velocity": 117,
      "chip": "ym2612"
    },
    {
      "channel": 1,
      "note": 99,
      "start": 24.349,
      "duration": 0.1993,
      "velocity": 103,
      "chip": "ym2612"
    },
    {
      "channel": 4,
      "note": 86,
      "start": 24.3513,
      "duration": 0.1993,
      "velocity": 118,
      "chip": "ym2612"
    },
    {
      "channel": 2,
      "note": 99,
      "start": 24.4354,
      "duration": 0.2306,
      "velocity": 103,
      "chip": "ym2612"
    },
    {
      "channel": 1,
      "note": 87,
      "start": 24.5485,
      "duration": 0.1171,
      "velocity": 103,
      "chip": "ym2612"
    },
    {
      "channel": 4,
      "note": 86,
      "start": 24.5507,
      "duration": 0.2332,
      "velocity": 118,
      "chip": "ym2612"
    },
    {
      "channel": 0,
      "note": 51,
      "start": 24.6651,
      "duration": 0.2028,
      "velocity": 117,
      "chip": "ym2612"
    },
    {
      "channel": 1,
      "note": 99,
      "start": 24.6656,
      "duration": 0.2029,
      "velocity": 103,
      "chip": "ym2612"
    },
    {
      "channel": 2,
      "note": 87,
      "start": 24.6662,
      "duration": 0.1155,
      "velocity": 103,
      "chip": "ym2612"
    },
    {
      "channel": 2,
      "note": 99,
      "start": 24.7819,
      "duration": 0.1988,
      "velocity": 103,
      "chip": "ym2612"
    },
    {
      "channel": 4,
      "note": 86,
      "start": 24.7841,
      "duration": 0.1988,
      "velocity": 118,
      "chip": "ym2612"
    },
    {
      "channel": 0,
      "note": 61,
      "start": 24.8681,
      "duration": 0.2459,
      "velocity": 117,
      "chip": "ym2612"
    },
    {
      "channel": 1,
      "note": 87,
      "start": 24.8687,
      "duration": 0.2459,
      "velocity": 103,
      "chip": "ym2612"
    },
    {
      "channel": 2,
      "note": 87,
      "start": 24.981,
      "duration": 0.2187,
      "velocity": 103,
      "chip": "ym2612"
    },
    {
      "channel": 4,
      "note": 86,
      "start": 24.9831,
      "duration": 0.2188,
      "velocity": 118,
      "chip": "ym2612"
    },
    {
      "channel": 0,
      "note": 63,
      "start": 25.1141,
      "duration": 0.1731,
      "velocity": 117,
      "chip": "ym2612"
    },
    {
      "channel": 1,
      "note": 99,
      "start": 25.1147,
      "duration": 0.1731,
      "velocity": 103,
      "chip": "ym2612"
    },
    {
      "channel": 2,
      "note": 99,
      "start": 25.1999,
      "duration": 0.185,
      "velocity": 103,
      "chip": "ym2612"
    },
    {
      "channel": 4,
      "note": 86,
      "start": 25.202,
      "duration": 0.185,
      "velocity": 118,
      "chip": "ym2612"
    },
    {
      "channel": 0,
      "note": 49,
      "start": 25.2874,
      "duration": 0.1837,
      "velocity": 117,
      "chip": "ym2612"
    },
    {
      "channel": 1,
      "note": 99,
      "start": 25.288,
      "duration": 0.0963,
      "velocity": 103,
      "chip": "ym2612"
    },
    {
      "channel": 1,
      "note": 97,
      "start": 25.3844,
      "duration": 0.0872,
      "velocity": 103,
      "chip": "ym2612"
    },
    {
      "channel": 2,
      "note": 99,
      "start": 25.385,
      "duration": 0.0872,
      "velocity": 103,
      "chip": "ym2612"
    },
    {
      "channel": 4,
      "note": 86,
      "start": 25.3872,
      "duration": 0.2,
      "velocity": 118,
      "chip": "ym2612"
    },
    {
      "channel": 0,
      "note": 46,
      "start": 25.4712,
      "duration": 0.1128,
      "velocity": 117,
      "chip": "ym2612"
    },
    {
      "channel": 1,
      "note": 94,
      "start": 25.4718,
      "duration": 0.1127,
      "velocity": 103,
      "chip": "ym2612"
    },
    {
      "channel": 2,
      "note": 97,
      "start": 25.4724,
      "duration": 0.1127,
      "velocity": 103,
      "chip": "ym2612"
    },
    {
      "channel": 0,
      "note": 49,
      "start": 25.5841,
      "duration": 0.1996,
      "velocity": 117,
      "chip": "ym2612"
    },
    {
      "channel": 1,
      "note": 97,
      "start": 25.5847,
      "duration": 0.1996,
      "velocity": 103,
      "chip": "ym2612"
    },
    {
      "channel": 2,
      "note": 94,
      "start": 25.5853,
      "duration": 0.0859,
      "velocity": 103,
      "chip": "ym2612"
    },
    {
      "channel": 4,
      "note": 86,
      "start": 25.5874,
      "duration": 0.199,
      "velocity": 118,
      "chip": "ym2612"
    },
    {
      "channel": 2,
      "note": 97,
      "start": 25.6713,
      "duration": 0.2292,
      "velocity": 103,
      "chip": "ym2612"
    },
    {
      "channel": 0,
      "note": 51,
      "start": 25.7839,
      "duration": 0.2332,
      "velocity": 117,
      "chip": "ym2612"
    },
    {
      "channel": 1,
      "note": 99,
      "start": 25.7844,
      "duration": 0.2332,
      "velocity": 103,
      "chip": "ym2612"
    },
    {
      "channel": 4,
      "note": 86,
      "start": 25.7867,
      "duration": 0.2332,
      "velocity": 118,
      "chip": "ym2612"
    },
    {
      "channel": 2,
      "note": 99,
      "start": 25.9007,
      "duration": 0.2159,
      "velocity": 103,
      "chip": "ym2612"
    },
    {
      "channel": 0,
      "note": 48,
      "start": 26.0172,
      "duration": 0.3166,
      "velocity": 117,
      "chip": "ym2612"
    },
    {
      "channel": 1,
      "note": 96,
      "start": 26.0178,
      "duration": 0.1995,
      "velocity": 103,
      "chip": "ym2612"
    },
    {
      "channel": 4,
      "note": 86,
      "start": 26.02,
      "duration": 0.1995,
      "velocity": 118,
      "chip": "ym2612"
    },
    {
      "channel": 2,
      "note": 96,
      "start": 26.1167,
      "duration": 0.2183,
      "velocity": 103,
      "chip": "ym2612"
    },
    {
      "channel": 1,
      "note": 84,
      "start": 26.2174,
      "duration": 0.1171,
      "velocity": 103,
      "chip": "ym2612"
    },
    {
      "channel": 4,
      "note": 86,
      "start": 26.2197,
      "duration": 0.2332,
      "velocity": 118,
      "chip": "ym2612"
    },
    {
      "channel": 0,
      "note": 48,
      "start": 26.334,
      "duration": 0.2033,
      "velocity": 117,
      "chip": "ym2612"
    },
    {
      "channel": 1,
      "note": 96,
      "start": 26.3346,
      "duration": 0.2033,
      "velocity": 103,
      "chip": "ym2612"
    },
    {
      "channel": 2,
      "note": 84,
      "start": 26.3351,
      "duration": 0.1155,
      "velocity": 103,
      "chip": "ym2612"
    },
    {
      "channel": 2,
      "note": 96,
      "start": 26.4508,
      "duration": 0.2161,
      "velocity": 103,
      "chip": "ym2612"
    },
    {
      "channel": 4,
      "note": 86,
      "start": 26.4531,
      "duration": 0.2161,
      "velocity": 118,
      "chip": "ym2612"
    },
    {
      "channel": 0,
      "note": 59,
      "start": 26.5375,
      "duration": 0.2461,
      "velocity": 117,
      "chip": "ym2612"
    },
    {
      "channel": 1,
      "note": 84,
      "start": 26.538,
      "duration": 0.2461,
      "velocity": 103,
      "chip": "ym2612"
    },
    {
      "channel": 2,
      "note": 84,
      "start": 26.6672,
      "duration": 0.2035,
      "velocity": 103,
      "chip": "ym2612"
    },
    {
      "channel": 4,
      "note": 86,
      "start": 26.6694,
      "duration": 0.2035,
      "velocity": 118,
      "chip": "ym2612"
    },
    {
      "channel": 0,
      "note": 60,
      "start": 26.7837,
      "duration": 0.1743,
      "velocity": 117,
      "chip": "ym2612"
    },
    {
      "channel": 1,
      "note": 96,
      "start": 26.7843,
      "duration": 0.1742,
      "velocity": 103,
      "chip": "ym2612"
    },
    {
      "channel": 2,
      "note": 96,
      "start": 26.8709,
      "duration": 0.1746,
      "velocity": 103,
      "chip": "ym2612"
    },
    {
      "channel": 4,
      "note": 86,
      "start": 26.8731,
      "duration": 0.1745,
      "velocity": 118,
      "chip": "ym2612"
    },
    {
      "channel": 0,
      "note": 60,
      "start": 26.9581,
      "duration": 0.0862,
      "velocity": 117,
      "chip": "ym2612"
    },
    {
      "channel": 1,
      "note": 96,
      "start": 26.9587,
      "duration": 0.0862,
      "velocity": 103,
      "chip": "ym2612"
    },
    {
      "channel": 0,
      "note": 63,
      "start": 27.0445,
      "duration": 0.098,
      "velocity": 117,
      "chip": "ym2612"
    },
    {
      "channel": 1,
      "note": 94,
      "start": 27.0451,
      "duration": 0.0981,
      "velocity": 103,
      "chip": "ym2612"
    },
    {
      "channel": 2,
      "note": 96,
      "start": 27.0456,
      "duration": 0.098,
      "velocity": 103,
      "chip": "ym2612"
    },
    {
      "channel": 4,
      "note": 86,
      "start": 27.0478,
      "duration": 0.1982,
      "velocity": 118,
      "chip": "ym2612"
    },
    {
      "channel": 0,
      "note": 65,
      "start": 27.1427,
      "duration": 0.1877,
      "velocity": 117,
      "chip": "ym2612"
    },
    {
      "channel": 1,
      "note": 91,
      "start": 27.1432,
      "duration": 0.1,
      "velocity": 103,
      "chip": "ym2612"
    },
    {
      "channel": 2,
      "note": 94,
      "start": 27.1438,
      "duration": 0.1,
      "velocity": 103,
      "chip": "ym2612"
    },
    {
      "channel": 1,
      "note": 94,
      "start": 27.2434,
      "duration": 0.2003,
      "velocity": 103,
      "chip": "ym2612"
    },
    {
      "channel": 2,
      "note": 91,
      "start": 27.244,
      "duration": 0.087,
      "velocity": 103,
      "chip": "ym2612"
    },
    {
      "channel": 4,
      "note": 86,
      "start": 27.2461,
      "duration": 0.2014,
      "velocity": 118,
      "chip": "ym2612"
    },
    {
      "channel": 0,
      "note": 48,
      "start": 27.3305,
      "duration": 0.1126,
      "velocity": 117,
      "chip": "ym2612"
    },
    {
      "channel": 2,
      "note": 94,
      "start": 27.3312,
      "duration": 0.2293,
      "velocity": 103,
      "chip": "ym2612"
    },
    {
      "channel": 0,
      "note": 51,
      "start": 27.4433,
      "duration": 0.1165,
      "velocity": 117,
      "chip": "ym2612"
    },
    {
      "channel": 1,
      "note": 96,
      "start": 27.4439,
      "duration": 0.25,
      "velocity": 103,
      "chip": "ym2612"
    },
    {
      "channel": 4,
      "note": 86,
      "start": 27.4477,
      "duration": 0.2484,
      "velocity": 118,
      "chip": "ym2612"
    },
    {
      "channel": 0,
      "note": 53,
      "start": 27.56,
      "duration": 0.1333,
      "velocity": 117,
      "chip": "ym2612"
    },
    {
      "channel": 2,
      "note": 96,
      "start": 27.5606,
      "duration": 0.2199,
      "velocity": 103,
      "chip": "ym2612"
    },
    {
      "channel": 0,
      "note": 51,
      "start": 27.6934,
      "duration": 0.3004,
      "velocity": 117,
      "chip": "ym2612"
    },
    {
      "channel": 1,
      "note": 99,
      "start": 27.694,
      "duration": 0.1832,
      "velocity": 103,
      "chip": "ym2612"
    },
    {
      "channel": 4,
      "note": 86,
      "start": 27.6963,
      "duration": 0.1831,
      "velocity": 118,
      "chip": "ym2612"
    },
    {
      "channel": 2,
      "note": 99,
      "start": 27.7806,
      "duration": 0.2143,
      "velocity": 103,
      "chip": "ym2612"
    },
    {
      "channel": 1,
      "note": 87,
      "start": 27.8773,
      "duration": 0.1171,
      "velocity": 103,
      "chip": "ym2612"
    },
    {
      "channel": 4,
      "note": 86,
      "start": 27.8796,
      "duration": 0.2337,
      "velocity": 118,
      "chip": "ym2612"
    },
    {
      "channel": 0,
      "note": 51,
      "start": 27.994,
      "duration": 0.2165,
      "velocity": 117,
      "chip": "ym2612"
    },
    {
      "channel": 1,
      "note": 99,
      "start": 27.9945,
      "duration": 0.2165,
      "velocity": 103,
      "chip": "ym2612"
    },
    {
      "channel": 2,
      "note": 87,
      "start": 27.9951,
      "duration": 0.1155,
      "velocity": 103,
      "chip": "ym2612"
    },
    {
      "channel": 3,
      "note": 75,
      "start": 27.9972,
      "duration": 0.114,
      "velocity": 90,
      "chip": "ym2612"
    },
    {
      "channel": 2,
      "note": 99,
      "start": 28.1108,
      "duration": 0.2164,
      "velocity": 103,
      "chip": "ym2612"
    },
    {
      "channel": 3,
      "note": 78,
      "start": 28.1114,
      "duration": 0.1002,
      "velocity": 90,
      "chip": "ym2612"
    },
    {
      "channel": 4,
      "note": 86,
      "start": 28.1135,
      "duration": 0.2164,
      "velocity": 118,
      "chip": "ym2612"
    },
    {
      "channel": 0,
      "note": 61,
      "start": 28.2106,
      "duration": 0.2331,
      "velocity": 117,
      "chip": "ym2612"
    },
    {
      "channel": 1,
      "note": 87,
      "start": 28.2112,
      "duration": 0.2332,
      "velocity": 103,
      "chip": "ym2612"
    },
    {
      "channel": 3,
      "note": 80,
      "start": 28.2118,
      "duration": 0.116,
      "velocity": 90,
      "chip": "ym2612"
    },
    {
      "channel": 2,
      "note": 87,
      "start": 28.3274,
      "duration": 0.2019,
      "velocity": 103,
      "chip": "ym2612"
    },
    {
      "channel": 3,
      "note": 78,
      "start": 28.3279,
      "duration": 0.117,
      "velocity": 90,
      "chip": "ym2612"
    },
    {
      "channel": 4,
      "note": 86,
      "start": 28.3301,
      "duration": 0.2013,
      "velocity": 118,
      "chip": "ym2612"
    },
    {
      "channel": 0,
      "note": 63,
      "start": 28.444,
      "duration": 0.1706,
      "velocity": 117,
      "chip": "ym2612"
    },
    {
      "channel": 1,
      "note": 99,
      "start": 28.4445,
      "duration": 0.1707,
      "velocity": 103,
      "chip": "ym2612"
    },
    {
      "channel": 3,
      "note": 82,
      "start": 28.4451,
      "duration": 1.7539,
      "velocity": 90,
      "chip": "ym2612"
    },
    {
      "channel": 2,
      "note": 99,
      "start": 28.5295,
      "duration": 0.1991,
      "velocity": 103,
      "chip": "ym2612"
    },
    {
      "channel": 4,
      "note": 86,
      "start": 28.5316,
      "duration": 0.1992,
      "velocity": 118,
      "chip": "ym2612"
    },
    {
      "channel": 0,
      "note": 49,
      "start": 28.6147,
      "duration": 0.2009,
      "velocity": 117,
      "chip": "ym2612"
    },
    {
      "channel": 1,
      "note": 99,
      "start": 28.6152,
      "duration": 0.1128,
      "velocity": 103,
      "chip": "ym2612"
    },
    {
      "channel": 1,
      "note": 97,
      "start": 28.7282,
      "duration": 0.088,
      "velocity": 103,
      "chip": "ym2612"
    },
    {
      "channel": 2,
      "note": 99,
      "start": 28.7288,
      "duration": 0.088,
      "velocity": 103,
      "chip": "ym2612"
    },
    {
      "channel": 4,
      "note": 86,
      "start": 28.7309,
      "duration": 0.1841,
      "velocity": 118,
      "chip": "ym2612"
    },
    {
      "channel": 0,
      "note": 46,
      "start": 28.8158,
      "duration": 0.096,
      "velocity": 117,
      "chip": "ym2612"
    },
    {
      "channel": 1,
      "note": 94,
      "start": 28.8163,
      "duration": 0.096,
      "velocity": 103,
      "chip": "ym2612"
    },
    {
      "channel": 2,
      "note": 97,
      "start": 28.8169,
      "duration": 0.0959,
      "velocity": 103,
      "chip": "ym2612"
    },
    {
      "channel": 0,
      "note": 49,
      "start": 28.9119,
      "duration": 0.1995,
      "velocity": 117,
      "chip": "ym2612"
    },
    {
      "channel": 1,
      "note": 97,
      "start": 28.9125,
      "duration": 0.1995,
      "velocity": 103,
      "chip": "ym2612"
    },
    {
      "channel": 2,
      "note": 94,
      "start": 28.9131,
      "duration": 0.0857,
      "velocity": 103,
      "chip": "ym2612"
    },
    {
      "channel": 4,
      "note": 86,
      "start": 28.9152,
      "duration": 0.199,
      "velocity": 118,
      "chip": "ym2612"
    },
    {
      "channel": 2,
      "note": 97,
      "start": 28.999,
      "duration": 0.2459,
      "velocity": 103,
      "chip": "ym2612"
    },
    {
      "channel": 0,
      "note": 51,
      "start": 29.1116,
      "duration": 0.2499,
      "velocity": 117,
      "chip": "ym2612"
    },
    {
      "channel": 1,
      "note": 99,
      "start": 29.1121,
      "duration": 0.2498,
      "velocity": 103,
      "chip": "ym2612"
    },
    {
      "channel": 4,
      "note": 86,
      "start": 29.1144,
      "duration": 0.2499,
      "velocity": 118,
      "chip": "ym2612"
    },
    {
      "channel": 2,
      "note": 99,
      "start": 29.245,
      "duration": 0.2032,
      "velocity": 103,
      "chip": "ym2612"
    },
    {
      "channel": 0,
      "note": 48,
      "start": 29.3616,
      "duration": 0.3002,
      "velocity": 117,
      "chip": "ym2612"
    },
    {
      "channel": 1,
      "note": 96,
      "start": 29.3621,
      "duration": 0.183,
      "velocity": 103,
      "chip": "ym2612"
    },
    {
      "channel": 4,
      "note": 86,
      "start": 29.3644,
      "duration": 0.1829,
      "velocity": 118,
      "chip": "ym2612"
    },
    {
      "channel": 2,
      "note": 96,
      "start": 29.4484,
      "duration": 0.2144,
      "velocity": 103,
      "chip": "ym2612"
    },
    {
      "channel": 1,
      "note": 84,
      "start": 29.5452,
      "duration": 0.1171,
      "velocity": 103,
      "chip": "ym2612"
    },
    {
      "channel": 4,
      "note": 86,
      "start": 29.5475,
      "duration": 0.2499,
      "velocity": 118,
      "chip": "ym2612"
    },
    {
      "channel": 0,
      "note": 48,
      "start": 29.6619,
      "duration": 0.2206,
      "velocity": 117,
      "chip": "ym2612"
    },
    {
      "channel": 1,
      "note": 96,
      "start": 29.6625,
      "duration": 0.2206,
      "velocity": 103,
      "chip": "ym2612"
    },
    {
      "channel": 2,
      "note": 84,
      "start": 29.663,
      "duration": 0.1322,
      "velocity": 103,
      "chip": "ym2612"
    },
    {
      "channel": 2,
      "note": 96,
      "start": 29.7954,
      "duration": 0.2001,
      "velocity": 103,
      "chip": "ym2612"
    },
    {
      "channel": 4,
      "note": 86,
      "start": 29.7976,
      "duration": 0.2001,
      "velocity": 118,
      "chip": "ym2612"
    },
    {
      "channel": 0,
      "note": 59,
      "start": 29.8827,
      "duration": 0.2294,
      "velocity": 117,
      "chip": "ym2612"
    },
    {
      "channel": 1,
      "note": 84,
      "start": 29.8832,
      "duration": 0.2294,
      "velocity": 103,
      "chip": "ym2612"
    },
    {
      "channel": 2,
      "note": 84,
      "start": 29.9957,
      "duration": 0.2028,
      "velocity": 103,
      "chip": "ym2612"
    },
    {
      "channel": 4,
      "note": 86,
      "start": 29.9978,
      "duration": 0.2033,
      "velocity": 118,
      "chip": "ym2612"
    },
    {
      "channel": 0,
      "note": 60,
      "start": 30.1122,
      "duration": 0.1856,
      "velocity": 117,
      "chip": "ym2612"
    },
    {
      "channel": 1,
      "note": 96,
      "start": 30.1128,
      "duration": 0.1856,
      "velocity": 103,
      "chip": "ym2612"
    },
    {
      "channel": 2,
      "note": 96,
      "start": 30.1986,
      "duration": 0.1866,
      "velocity": 103,
      "chip": "ym2612"
    },
    {
      "channel": 3,
      "note": 85,
      "start": 30.1992,
      "duration": 0.0998,
      "velocity": 90,
      "chip": "ym2612"
    },
    {
      "channel": 4,
      "note": 86,
      "start": 30.2013,
      "duration": 0.1861,
      "velocity": 118,
      "chip": "ym2612"
    },
    {
      "channel": 0,
      "note": 48,
      "start": 30.298,
      "duration": 0.0861,
      "velocity": 117,
      "chip": "ym2612"
    },
    {
      "channel": 1,
      "note": 96,
      "start": 30.2985,
      "duration": 0.0862,
      "velocity": 103,
      "chip": "ym2612"
    },
    {
      "channel": 3,
      "note": 84,
      "start": 30.2992,
      "duration": 0.173,
      "velocity": 90,
      "chip": "ym2612"
    },
    {
      "channel": 0,
      "note": 46,
      "start": 30.3843,
      "duration": 0.0862,
      "velocity": 117,
      "chip": "ym2612"
    },
    {
      "channel": 1,
      "note": 94,
      "start": 30.3848,
      "duration": 0.0863,
      "velocity": 103,
      "chip": "ym2612"
    },
    {
      "channel": 2,
      "note": 96,
      "start": 30.3854,
      "duration": 0.0862,
      "velocity": 103,
      "chip": "ym2612"
    },
    {
      "channel": 4,
      "note": 86,
      "start": 30.3876,
      "duration": 0.184,
      "velocity": 118,
      "chip": "ym2612"
    },
    {
      "channel": 0,
      "note": 43,
      "start": 30.4707,
      "duration": 0.0971,
      "velocity": 117,
      "chip": "ym2612"
    },
    {
      "channel": 1,
      "note": 91,
      "start": 30.4712,
      "duration": 0.0971,
      "velocity": 103,
      "chip": "ym2612"
    },
    {
      "channel": 2,
      "note": 94,
      "start": 30.4718,
      "duration": 0.0971,
      "velocity": 103,
      "chip": "ym2612"
    },
    {
      "channel": 3,
      "note": 80,
      "start": 30.4723,
      "duration": 0.0971,
      "velocity": 90,
      "chip": "ym2612"
    },
    {
      "channel": 0,
      "note": 46,
      "start": 30.568,
      "duration": 0.0878,
      "velocity": 117,
      "chip": "ym2612"
    },
    {
      "channel": 1,
      "note": 94,
      "start": 30.5685,
      "duration": 0.2169,
      "velocity": 103,
      "chip": "ym2612"
    },
    {
      "channel": 2,
      "note": 91,
      "start": 30.569,
      "duration": 0.0872,
      "velocity": 103,
      "chip": "ym2612"
    },
    {
      "channel": 3,
      "note": 83,
      "start": 30.5696,
      "duration": 0.0873,
      "velocity": 90,
      "chip": "ym2612"
    },
    {
      "channel": 4,
      "note": 86,
      "start": 30.5718,
      "duration": 0.2159,
      "velocity": 118,
      "chip": "ym2612"
    },
    {
      "channel": 0,
      "note": 48,
      "start": 30.6559,
      "duration": 0.129,
      "velocity": 117,
      "chip": "ym2612"
    },
    {
      "channel": 2,
      "note": 94,
      "start": 30.6565,
      "duration": 0.2456,
      "velocity": 103,
      "chip": "ym2612"
    },
    {
      "channel": 3,
      "note": 82,
      "start": 30.6571,
      "duration": 0.2456,
      "velocity": 90,
      "chip": "ym2612"
    },
    {
      "channel": 0,
      "note": 51,
      "start": 30.785,
      "duration": 0.1165,
      "velocity": 117,
      "chip": "ym2612"
    },
    {
      "channel": 1,
      "note": 96,
      "start": 30.7856,
      "duration": 0.2332,
      "velocity": 103,
      "chip": "ym2612"
    },
    {
      "channel": 4,
      "note": 86,
      "start": 30.7879,
      "duration": 0.2337,
      "velocity": 118,
      "chip": "ym2612"
    },
    {
      "channel": 0,
      "note": 53,
      "start": 30.9017,
      "duration": 0.1165,
      "velocity": 117,
      "chip": "ym2612"
    },
    {
      "channel": 2,
      "note": 96,
      "start": 30.9023,
      "duration": 0.2031,
      "velocity": 103,
      "chip": "ym2612"
    },
    {
      "channel": 3,
      "note": 78,
      "start": 30.9029,
      "duration": 0.1165,
      "velocity": 90,
      "chip": "ym2612"
    },
    {
      "channel": 0,
      "note": 51,
      "start": 31.0184,
      "duration": 0.3161,
      "velocity": 117,
      "chip": "ym2612"
    },
    {
      "channel": 1,
      "note": 99,
      "start": 31.0189,
      "duration": 0.1824,
      "velocity": 103,
      "chip": "ym2612"
    },
    {
      "channel": 3,
      "note": 75,
      "start": 31.0195,
      "duration": 3.3301,
      "velocity": 110,
      "chip": "ym2612"
    },
    {
      "channel": 4,
      "note": 86,
      "start": 31.0217,
      "duration": 0.1818,
      "velocity": 118,
      "chip": "ym2612"
    },
    {
      "channel": 2,
      "note": 99,
      "start": 31.1056,
      "duration": 0.2301,
      "velocity": 103,
      "chip": "ym2612"
    },
    {
      "channel": 1,
      "note": 87,
      "start": 31.2014,
      "duration": 0.1337,
      "velocity": 103,
      "chip": "ym2612"
    },
    {
      "channel": 4,
      "note": 86,
      "start": 31.2037,
      "duration": 0.2499,
      "velocity": 118,
      "chip": "ym2612"
    },
    {
      "channel": 0,
      "note": 51,
      "start": 31.3347,
      "duration": 0.2033,
      "velocity": 117,
      "chip": "ym2612"
    },
    {
      "channel": 1,
      "note": 99,
      "start": 31.3353,
      "duration": 0.2033,
      "velocity": 103,
      "chip": "ym2612"
    },
    {
      "channel": 2,
      "note": 87,
      "start": 31.3358,
      "duration": 0.1155,
      "velocity": 103,
      "chip": "ym2612"
    },
    {
      "channel": 2,
      "note": 99,
      "start": 31.4515,
      "duration": 0.1993,
      "velocity": 103,
      "chip": "ym2612"
    },
    {
      "channel": 4,
      "note": 86,
      "start": 31.4538,
      "duration": 0.1993,
      "velocity": 118,
      "chip": "ym2612"
    },
    {
      "channel": 0,
      "note": 61,
      "start": 31.5382,
      "duration": 0.2292,
      "velocity": 117,
      "chip": "ym2612"
    },
    {
      "channel": 1,
      "note": 87,
      "start": 31.5388,
      "duration": 0.2292,
      "velocity": 103,
      "chip": "ym2612"
    },
    {
      "channel": 2,
      "note": 87,
      "start": 31.6511,
      "duration": 0.216,
      "velocity": 103,
      "chip": "ym2612"
    },
    {
      "channel": 4,
      "note": 86,
      "start": 31.6532,
      "duration": 0.2161,
      "velocity": 118,
      "chip": "ym2612"
    },
    {
      "channel": 0,
      "note": 63,
      "start": 31.7676,
      "duration": 0.1869,
      "velocity": 117,
      "chip": "ym2612"
    },
    {
      "channel": 1,
      "note": 99,
      "start": 31.7682,
      "duration": 0.1868,
      "velocity": 103,
      "chip": "ym2612"
    },
    {
      "channel": 2,
      "note": 99,
      "start": 31.8673,
      "duration": 0.1838,
      "velocity": 103,
      "chip": "ym2612"
    },
    {
      "channel": 4,
      "note": 86,
      "start": 31.8695,
      "duration": 0.1838,
      "velocity": 118,
      "chip": "ym2612"
    },
    {
      "channel": 0,
      "note": 49,
      "start": 31.9546,
      "duration": 0.1831,
      "velocity": 117,
      "chip": "ym2612"
    },
    {
      "channel": 1,
      "note": 99,
      "start": 31.9552,
      "duration": 0.0954,
      "velocity": 103,
      "chip": "ym2612"
    },
    {
      "channel": 1,
      "note": 97,
      "start": 32.0507,
      "duration": 0.0876,
      "velocity": 103,
      "chip": "ym2612"
    },
    {
      "channel": 2,
      "note": 99,
      "start": 32.0512,
      "duration": 0.0876,
      "velocity": 103,
      "chip": "ym2612"
    },
    {
      "channel": 4,
      "note": 86,
      "start": 32.0535,
      "duration": 0.1837,
      "velocity": 118,
      "chip": "ym2612"
    },
    {
      "channel": 0,
      "note": 46,
      "start": 32.1378,
      "duration": 0.096,
      "velocity": 117,
      "chip": "ym2612"
    },
    {
      "channel": 1,
      "note": 94,
      "start": 32.1384,
      "duration": 0.096,
      "velocity": 103,
      "chip": "ym2612"
    },
    {
      "channel": 2,
      "note": 97,
      "start": 32.139,
      "duration": 0.096,
      "velocity": 103,
      "chip": "ym2612"
    },
    {
      "channel": 0,
      "note": 49,
      "start": 32.234,
      "duration": 0.2163,
      "velocity": 117,
      "chip": "ym2612"
    },
    {
      "channel": 1,
      "note": 97,
      "start": 32.2346,
      "duration": 0.2163,
      "velocity": 103,
      "chip": "ym2612"
    },
    {
      "channel": 2,
      "note": 94,
      "start": 32.2351,
      "duration": 0.0987,
      "velocity": 103,
      "chip": "ym2612"
    },
    {
      "channel": 4,
      "note": 86,
      "start": 32.2373,
      "duration": 0.2158,
      "velocity": 118,
      "chip": "ym2612"
    },
    {
      "channel": 2,
      "note": 97,
      "start": 32.334,
      "duration": 0.2331,
      "velocity": 103,
      "chip": "ym2612"
    },
    {
      "channel": 0,
      "note": 51,
      "start": 32.4505,
      "duration": 0.2332,
      "velocity": 117,
      "chip": "ym2612"
    },
    {
      "channel": 1,
      "note": 99,
      "start": 32.451,
      "duration": 0.2332,
      "velocity": 103,
      "chip": "ym2612"
    },
    {
      "channel": 4,
      "note": 86,
      "start": 32.4533,
      "duration": 0.2332,
      "velocity": 118,
      "chip": "ym2612"
    },
    {
      "channel": 2,
      "note": 99,
      "start": 32.5673,
      "duration": 0.2033,
      "velocity": 103,
      "chip": "ym2612"
    },
    {
      "channel": 0,
      "note": 48,
      "start": 32.6838,
      "duration": 0.3165,
      "velocity": 117,
      "chip": "ym2612"
    },
    {
      "channel": 1,
      "note": 96,
      "start": 32.6844,
      "duration": 0.1993,
      "velocity": 103,
      "chip": "ym2612"
    },
    {
      "channel": 4,
      "note": 86,
      "start": 32.6867,
      "duration": 0.1993,
      "velocity": 118,
      "chip": "ym2612"
    },
    {
      "channel": 2,
      "note": 96,
      "start": 32.7708,
      "duration": 0.2306,
      "velocity": 103,
      "chip": "ym2612"
    },
    {
      "channel": 1,
      "note": 84,
      "start": 32.8838,
      "duration": 0.1171,
      "velocity": 103,
      "chip": "ym2612"
    },
    {
      "channel": 4,
      "note": 86,
      "start": 32.8861,
      "duration": 0.2332,
      "velocity": 118,
      "chip": "ym2612"
    },
    {
      "channel": 0,
      "note": 48,
      "start": 33.0005,
      "duration": 0.2028,
      "velocity": 117,
      "chip": "ym2612"
    },
    {
      "channel": 1,
      "note": 96,
      "start": 33.001,
      "duration": 0.2029,
      "velocity": 103,
      "chip": "ym2612"
    },
    {
      "channel": 2,
      "note": 84,
      "start": 33.0016,
      "duration": 0.1155,
      "velocity": 103,
      "chip": "ym2612"
    },
    {
      "channel": 2,
      "note": 96,
      "start": 33.1173,
      "duration": 0.1988,
      "velocity": 103,
      "chip": "ym2612"
    },
    {
      "channel": 4,
      "note": 86,
      "start": 33.1195,
      "duration": 0.1988,
      "velocity": 118,
      "chip": "ym2612"
    },
    {
      "channel": 0,
      "note": 59,
      "start": 33.2035,
      "duration": 0.2459,
      "velocity": 117,
      "chip": "ym2612"
    },
    {
      "channel": 1,
      "note": 84,
      "start": 33.2041,
      "duration": 0.2459,
      "velocity": 103,
      "chip": "ym2612"
    },
    {
      "channel": 2,
      "note": 84,
      "start": 33.3163,
      "duration": 0.2187,
      "velocity": 103,
      "chip": "ym2612"
    },
    {
      "channel": 4,
      "note": 86,
      "start": 33.3185,
      "duration": 0.2188,
      "velocity": 118,
      "chip": "ym2612"
    },
    {
      "channel": 0,
      "note": 60,
      "start": 33.4495,
      "duration": 0.1732,
      "velocity": 117,
      "chip": "ym2612"
    },
    {
      "channel": 1,
      "note": 96,
      "start": 33.4501,
      "duration": 0.1731,
      "velocity": 103,
      "chip": "ym2612"
    },
    {
      "channel": 2,
      "note": 96,
      "start": 33.5352,
      "duration": 0.1754,
      "velocity": 103,
      "chip": "ym2612"
    },
    {
      "channel": 4,
      "note": 86,
      "start": 33.5374,
      "duration": 0.1754,
      "velocity": 118,
      "chip": "ym2612"
    },
    {
      "channel": 0,
      "note": 60,
      "start": 33.6228,
      "duration": 0.0868,
      "velocity": 117,
      "chip": "ym2612"
    },
    {
      "channel": 1,
      "note": 96,
      "start": 33.6234,
      "duration": 0.0867,
      "velocity": 103,
      "chip": "ym2612"
    },
    {
      "channel": 0,
      "note": 63,
      "start": 33.7097,
      "duration": 0.0865,
      "velocity": 117,
      "chip": "ym2612"
    },
    {
      "channel": 1,
      "note": 94,
      "start": 33.7103,
      "duration": 0.0864,
      "velocity": 103,
      "chip": "ym2612"
    },
    {
      "channel": 2,
      "note": 96,
      "start": 33.7108,
      "duration": 0.0865,
      "velocity": 103,
      "chip": "ym2612"
    },
    {
      "channel": 4,
      "note": 86,
      "start": 33.713,
      "duration": 0.1992,
      "velocity": 118,
      "chip": "ym2612"
    },
    {
      "channel": 0,
      "note": 65,
      "start": 33.7963,
      "duration": 0.2007,
      "velocity": 117,
      "chip": "ym2612"
    },
    {
      "channel": 1,
      "note": 91,
      "start": 33.7969,
      "duration": 0.1126,
      "velocity": 103,
      "chip": "ym2612"
    },
    {
      "channel": 2,
      "note": 94,
      "start": 33.7975,
      "duration": 0.1125,
      "velocity": 103,
      "chip": "ym2612"
    },
    {
      "channel": 1,
      "note": 94,
      "start": 33.9096,
      "duration": 0.2007,
      "velocity": 103,
      "chip": "ym2612"
    },
    {
      "channel": 2,
      "note": 91,
      "start": 33.9102,
      "duration": 0.0875,
      "velocity": 103,
      "chip": "ym2612"
    },
    {
      "channel": 4,
      "note": 86,
      "start": 33.9123,
      "duration": 0.2034,
      "velocity": 118,
      "chip": "ym2612"
    },
    {
      "channel": 0,
      "note": 48,
      "start": 33.9972,
      "duration": 0.1126,
      "velocity": 117,
      "chip": "ym2612"
    },
    {
      "channel": 2,
      "note": 94,
      "start": 33.9978,
      "duration": 0.2293,
      "velocity": 103,
      "chip": "ym2612"
    },
    {
      "channel": 0,
      "note": 51,
      "start": 34.1099,
      "duration": 0.1165,
      "velocity": 117,
      "chip": "ym2612"
    },
    {
      "channel": 1,
      "note": 96,
      "start": 34.1105,
      "duration": 0.2348,
      "velocity": 110,
      "chip": "ym2612"
    },
    {
      "channel": 4,
      "note": 86,
      "start": 34.1159,
      "duration": 0.2359,
      "velocity": 118,
      "chip": "ym2612"
    },
    {
      "channel": 0,
      "note": 53,
      "start": 34.2267,
      "duration": 0.1165,
      "velocity": 117,
      "chip": "ym2612"
    },
    {
      "channel": 2,
      "note": 96,
      "start": 34.2273,
      "duration": 0.1202,
      "velocity": 110,
      "chip": "ym2612"
    },
    {
      "channel": 0,
      "note": 53,
      "start": 34.3434,
      "duration": 0.3164,
      "velocity": 117,
      "chip": "ym2612"
    },
    {
      "channel": 1,
      "note": 89,
      "start": 34.3455,
      "duration": 0.3164,
      "velocity": 110,
      "chip": "ym2612"
    },
    {
      "channel": 2,
      "note": 84,
      "start": 34.3477,
      "duration": 0.3164,
      "velocity": 110,
      "chip": "ym2612"
    },
    {
      "channel": 3,
      "note": 82,
      "start": 34.3498,
      "duration": 0.3164,
      "velocity": 110,
      "chip": "ym2612"
    },
    {
      "channel": 4,
      "note": 86,
      "start": 34.352,
      "duration": 0.196,
      "velocity": 118,
      "chip": "ym2612"
    },
    {
      "channel": 4,
      "note": 86,
      "start": 34.5482,
      "duration": 0.2351,
      "velocity": 118,
      "chip": "ym2612"
    },
    {
      "channel": 0,
      "note": 53,
      "start": 34.6599,
      "duration": 0.2037,
      "velocity": 117,
      "chip": "ym2612"
    },
    {
      "channel": 1,
      "note": 89,
      "start": 34.6621,
      "duration": 0.6216,
      "velocity": 110,
      "chip": "ym2612"
    },
    {
      "channel": 2,
      "note": 84,
      "start": 34.6642,
      "duration": 1.3676,
      "velocity": 110,
      "chip": "ym2612"
    },
    {
      "channel": 3,
      "note": 82,
      "start": 34.6664,
      "duration": 1.3675,
      "velocity": 110,
      "chip": "ym2612"
    },
    {
      "channel": 4,
      "note": 86,
      "start": 34.7834,
      "duration": 0.2104,
      "velocity": 118,
      "chip": "ym2612"
    },
    {
      "channel": 0,
      "note": 63,
      "start": 34.8638,
      "duration": 0.2449,
      "velocity": 117,
      "chip": "ym2612"
    },
    {
      "channel": 4,
      "note": 86,
      "start": 34.994,
      "duration": 0.202,
      "velocity": 118,
      "chip": "ym2612"
    },
    {
      "channel": 0,
      "note": 65,
      "start": 35.1088,
      "duration": 0.1727,
      "velocity": 117,
      "chip": "ym2612"
    },
    {
      "channel": 4,
      "note": 86,
      "start": 35.1962,
      "duration": 0.1852,
      "velocity": 118,
      "chip": "ym2612"
    },
    {
      "channel": 0,
      "note": 51,
      "start": 35.2817,
      "duration": 0.1954,
      "velocity": 117,
      "chip": "ym2612"
    },
    {
      "channel": 1,
      "note": 65,
      "start": 35.2838,
      "duration": 0.1954,
      "velocity": 110,
      "chip": "ym2612"
    },
    {
      "channel": 4,
      "note": 86,
      "start": 35.3816,
      "duration": 0.1991,
      "velocity": 118,
      "chip": "ym2612"
    },
    {
      "channel": 0,
      "note": 48,
      "start": 35.4773,
      "duration": 0.1007,
      "velocity": 117,
      "chip": "ym2612"
    },
    {
      "channel": 1,
      "note": 65,
      "start": 35.4794,
      "duration": 0.0992,
      "velocity": 110,
      "chip": "ym2612"
    },
    {
      "channel": 0,
      "note": 51,
      "start": 35.5782,
      "duration": 0.1992,
      "velocity": 117,
      "chip": "ym2612"
    },
    {
      "channel": 1,
      "note": 77,
      "start": 35.5787,
      "duration": 0.0861,
      "velocity": 110,
      "chip": "ym2612"
    },
    {
      "channel": 4,
      "note": 86,
      "start": 35.581,
      "duration": 0.1992,
      "velocity": 118,
      "chip": "ym2612"
    },
    {
      "channel": 1,
      "note": 77,
      "start": 35.665,
      "duration": 0.1129,
      "velocity": 110,
      "chip": "ym2612"
    },
    {
      "channel": 0,
      "note": 53,
      "start": 35.7775,
      "duration": 0.2499,
      "velocity": 117,
      "chip": "ym2612"
    },
    {
      "channel": 1,
      "note": 65,
      "start": 35.7781,
      "duration": 0.2515,
      "velocity": 110,
      "chip": "ym2612"
    },
    {
      "channel": 4,
      "note": 86,
      "start": 35.7804,
      "duration": 0.2557,
      "velocity": 118,
      "chip": "ym2612"
    },
    {
      "channel": 0,
      "note": 50,
      "start": 36.0276,
      "duration": 0.2991,
      "velocity": 117,
      "chip": "ym2612"
    },
    {
      "channel": 1,
      "note": 91,
      "start": 36.0297,
      "duration": 0.2992,
      "velocity": 110,
      "chip": "ym2612"
    },
    {
      "channel": 2,
      "note": 86,
      "start": 36.0319,
      "duration": 0.2991,
      "velocity": 110,
      "chip": "ym2612"
    },
    {
      "channel": 3,
      "note": 84,
      "start": 36.0341,
      "duration": 0.2992,
      "velocity": 110,
      "chip": "ym2612"
    },
    {
      "channel": 4,
      "note": 86,
      "start": 36.0362,
      "duration": 0.1757,
      "velocity": 118,
      "chip": "ym2612"
    },
    {
      "channel": 4,
      "note": 86,
      "start": 36.2121,
      "duration": 0.2382,
      "velocity": 118,
      "chip": "ym2612"
    },
    {
      "channel": 0,
      "note": 50,
      "start": 36.3269,
      "duration": 0.216,
      "velocity": 117,
      "chip": "ym2612"
    },
    {
      "channel": 1,
      "note": 91,
      "start": 36.3291,
      "duration": 0.6232,
      "velocity": 110,
      "chip": "ym2612"
    },
    {
      "channel": 2,
      "note": 86,
      "start": 36.3312,
      "duration": 1.3536,
      "velocity": 110,
      "chip": "ym2612"
    },
    {
      "channel": 3,
      "note": 84,
      "start": 36.3334,
      "duration": 1.3535,
      "velocity": 110,
      "chip": "ym2612"
    },
    {
      "channel": 4,
      "note": 86,
      "start": 36.4505,
      "duration": 0.2103,
      "velocity": 118,
      "chip": "ym2612"
    },
    {
      "channel": 0,
      "note": 61,
      "start": 36.5431,
      "duration": 0.2325,
      "velocity": 117,
      "chip": "ym2612"
    },
    {
      "channel": 4,
      "note": 86,
      "start": 36.661,
      "duration": 0.2033,
      "velocity": 118,
      "chip": "ym2612"
    },
    {
      "channel": 0,
      "note": 62,
      "start": 36.7758,
      "duration": 0.1743,
      "velocity": 117,
      "chip": "ym2612"
    },
    {
      "channel": 4,
      "note": 86,
      "start": 36.8645,
      "duration": 0.1895,
      "velocity": 118,
      "chip": "ym2612"
    },
    {
      "channel": 0,
      "note": 50,
      "start": 36.9503,
      "duration": 0.0997,
      "velocity": 117,
      "chip": "ym2612"
    },
    {
      "channel": 1,
      "note": 62,
      "start": 36.9524,
      "duration": 0.1862,
      "velocity": 110,
      "chip": "ym2612"
    },
    {
      "channel": 0,
      "note": 48,
      "start": 37.0502,
      "duration": 0.0862,
      "velocity": 117,
      "chip": "ym2612"
    },
    {
      "channel": 4,
      "note": 86,
      "start": 37.0541,
      "duration": 0.1805,
      "velocity": 118,
      "chip": "ym2612"
    },
    {
      "channel": 0,
      "note": 45,
      "start": 37.1366,
      "duration": 0.0952,
      "velocity": 117,
      "chip": "ym2612"
    },
    {
      "channel": 1,
      "note": 62,
      "start": 37.1388,
      "duration": 0.0936,
      "velocity": 110,
      "chip": "ym2612"
    },
    {
      "channel": 0,
      "note": 48,
      "start": 37.232,
      "duration": 0.0855,
      "velocity": 117,
      "chip": "ym2612"
    },
    {
      "channel": 1,
      "note": 74,
      "start": 37.2325,
      "duration": 0.0855,
      "velocity": 110,
      "chip": "ym2612"
    },
    {
      "channel": 4,
      "note": 86,
      "start": 37.2348,
      "duration": 0.1984,
      "velocity": 118,
      "chip": "ym2612"
    },
    {
      "channel": 0,
      "note": 50,
      "start": 37.3176,
      "duration": 0.1127,
      "velocity": 117,
      "chip": "ym2612"
    },
    {
      "channel": 1,
      "note": 74,
      "start": 37.3182,
      "duration": 0.1127,
      "velocity": 110,
      "chip": "ym2612"
    },
    {
      "channel": 0,
      "note": 53,
      "start": 37.4305,
      "duration": 0.1332,
      "velocity": 117,
      "chip": "ym2612"
    },
    {
      "channel": 1,
      "note": 62,
      "start": 37.4311,
      "duration": 0.1347,
      "velocity": 1,
      "chip": "ym2612"
    },
    {
      "channel": 4,
      "note": 86,
      "start": 37.4334,
      "duration": 0.2557,
      "velocity": 118,
      "chip": "ym2612"
    },
    {
      "channel": 0,
      "note": 55,
      "start": 37.5638,
      "duration": 0.1166,
      "velocity": 117,
      "chip": "ym2612"
    },
    {
      "channel": 1,
      "note": 67,
      "start": 37.566,
      "duration": 0.1166,
      "velocity": 110,
      "chip": "ym2612"
    },
    {
      "channel": 0,
      "note": 53,
      "start": 37.6806,
      "duration": 0.2991,
      "velocity": 117,
      "chip": "ym2612"
    },
    {
      "channel": 1,
      "note": 89,
      "start": 37.6827,
      "duration": 0.2992,
      "velocity": 110,
      "chip": "ym2612"
    },
    {
      "channel": 2,
      "note": 84,
      "start": 37.6849,
      "duration": 0.2991,
      "velocity": 110,
      "chip": "ym2612"
    },
    {
      "channel": 3,
      "note": 82,
      "start": 37.6871,
      "duration": 0.2992,
      "velocity": 110,
      "chip": "ym2612"
    },
    {
      "channel": 4,
      "note": 86,
      "start": 37.6892,
      "duration": 0.1757,
      "velocity": 118,
      "chip": "ym2612"
    },
    {
      "channel": 4,
      "note": 86,
      "start": 37.8651,
      "duration": 0.2549,
      "velocity": 118,
      "chip": "ym2612"
    },
    {
      "channel": 0,
      "note": 53,
      "start": 37.9799,
      "duration": 0.2213,
      "velocity": 117,
      "chip": "ym2612"
    },
    {
      "channel": 1,
      "note": 89,
      "start": 37.9821,
      "duration": 0.6351,
      "velocity": 110,
      "chip": "ym2612"
    },
    {
      "channel": 2,
      "note": 84,
      "start": 37.9842,
      "duration": 1.3692,
      "velocity": 110,
      "chip": "ym2612"
    },
    {
      "channel": 3,
      "note": 82,
      "start": 37.9864,
      "duration": 1.369,
      "velocity": 110,
      "chip": "ym2612"
    },
    {
      "channel": 4,
      "note": 86,
      "start": 38.1201,
      "duration": 0.194,
      "velocity": 118,
      "chip": "ym2612"
    },
    {
      "channel": 0,
      "note": 63,
      "start": 38.2014,
      "duration": 0.2276,
      "velocity": 117,
      "chip": "ym2612"
    },
    {
      "channel": 4,
      "note": 86,
      "start": 38.3144,
      "duration": 0.2029,
      "velocity": 118,
      "chip": "ym2612"
    },
    {
      "channel": 0,
      "note": 65,
      "start": 38.4292,
      "duration": 0.1859,
      "velocity": 117,
      "chip": "ym2612"
    },
    {
      "channel": 4,
      "note": 86,
      "start": 38.5174,
      "duration": 0.202,
      "velocity": 118,
      "chip": "ym2612"
    },
    {
      "channel": 0,
      "note": 51,
      "start": 38.6152,
      "duration": 0.1874,
      "velocity": 117,
      "chip": "ym2612"
    },
    {
      "channel": 1,
      "note": 65,
      "start": 38.6173,
      "duration": 0.1873,
      "velocity": 110,
      "chip": "ym2612"
    },
    {
      "channel": 4,
      "note": 86,
      "start": 38.7196,
      "duration": 0.1824,
      "velocity": 118,
      "chip": "ym2612"
    },
    {
      "channel": 0,
      "note": 48,
      "start": 38.8028,
      "duration": 0.0965,
      "velocity": 117,
      "chip": "ym2612"
    },
    {
      "channel": 1,
      "note": 65,
      "start": 38.8049,
      "duration": 0.0949,
      "velocity": 110,
      "chip": "ym2612"
    },
    {
      "channel": 0,
      "note": 51,
      "start": 38.8994,
      "duration": 0.2162,
      "velocity": 117,
      "chip": "ym2612"
    },
    {
      "channel": 1,
      "note": 77,
      "start": 38.9,
      "duration": 0.0863,
      "velocity": 110,
      "chip": "ym2612"
    },
    {
      "channel": 4,
      "note": 86,
      "start": 38.9022,
      "duration": 0.2162,
      "velocity": 118,
      "chip": "ym2612"
    },
    {
      "channel": 1,
      "note": 77,
      "start": 38.9866,
      "duration": 0.1296,
      "velocity": 110,
      "chip": "ym2612"
    },
    {
      "channel": 0,
      "note": 53,
      "start": 39.1157,
      "duration": 0.2333,
      "velocity": 117,
      "chip": "ym2612"
    },
    {
      "channel": 1,
      "note": 65,
      "start": 39.1163,
      "duration": 0.2349,
      "velocity": 110,
      "chip": "ym2612"
    },
    {
      "channel": 4,
      "note": 86,
      "start": 39.1186,
      "duration": 0.239,
      "velocity": 118,
      "chip": "ym2612"
    },
    {
      "channel": 0,
      "note": 50,
      "start": 39.3492,
      "duration": 0.3163,
      "velocity": 117,
      "chip": "ym2612"
    },
    {
      "channel": 1,
      "note": 86,
      "start": 39.3513,
      "duration": 0.3163,
      "velocity": 110,
      "chip": "ym2612"
    },
    {
      "channel": 2,
      "note": 91,
      "start": 39.3535,
      "duration": 0.3163,
      "velocity": 110,
      "chip": "ym2612"
    },
    {
      "channel": 3,
      "note": 84,
      "start": 39.3556,
      "duration": 0.3163,
      "velocity": 110,
      "chip": "ym2612"
    },
    {
      "channel": 4,
      "note": 86,
      "start": 39.3578,
      "duration": 0.1762,
      "velocity": 118,
      "chip": "ym2612"
    },
    {
      "channel": 4,
      "note": 86,
      "start": 39.5342,
      "duration": 0.2549,
      "velocity": 118,
      "chip": "ym2612"
    },
    {
      "channel": 0,
      "note": 50,
      "start": 39.6657,
      "duration": 0.2042,
      "velocity": 117,
      "chip": "ym2612"
    },
    {
      "channel": 1,
      "note": 86,
      "start": 39.6678,
      "duration": 0.6204,
      "velocity": 110,
      "chip": "ym2612"
    },
    {
      "channel": 2,
      "note": 91,
      "start": 39.6699,
      "duration": 1.3407,
      "velocity": 90,
      "chip": "ym2612"
    },
    {
      "channel": 3,
      "note": 84,
      "start": 39.6722,
      "duration": 6.8883,
      "velocity": 1,
      "chip": "ym2612"
    },
    {
      "channel": 4,
      "note": 86,
      "start": 39.7892,
      "duration": 0.194,
      "velocity": 118,
      "chip": "ym2612"
    },
    {
      "channel": 0,
      "note": 61,
      "start": 39.8701,
      "duration": 0.2281,
      "velocity": 117,
      "chip": "ym2612"
    },
    {
      "channel": 4,
      "note": 86,
      "start": 39.9834,
      "duration": 0.2166,
      "velocity": 118,
      "chip": "ym2612"
    },
    {
      "channel": 0,
      "note": 62,
      "start": 40.0983,
      "duration": 0.1878,
      "velocity": 117,
      "chip": "ym2612"
    },
    {
      "channel": 4,
      "note": 86,
      "start": 40.2002,
      "duration": 0.1756,
      "velocity": 118,
      "chip": "ym2612"
    },
    {
      "channel": 0,
      "note": 62,
      "start": 40.2863,
      "duration": 0.0856,
      "velocity": 117,
      "chip": "ym2612"
    },
    {
      "channel": 1,
      "note": 62,
      "start": 40.2884,
      "duration": 0.1723,
      "velocity": 110,
      "chip": "ym2612"
    },
    {
      "channel": 0,
      "note": 65,
      "start": 40.372,
      "duration": 0.0865,
      "velocity": 117,
      "chip": "ym2612"
    },
    {
      "channel": 4,
      "note": 86,
      "start": 40.376,
      "duration": 0.1812,
      "velocity": 118,
      "chip": "ym2612"
    },
    {
      "channel": 0,
      "note": 67,
      "start": 40.4587,
      "duration": 0.196,
      "velocity": 117,
      "chip": "ym2612"
    },
    {
      "channel": 1,
      "note": 62,
      "start": 40.4608,
      "duration": 0.0941,
      "velocity": 110,
      "chip": "ym2612"
    },
    {
      "channel": 1,
      "note": 74,
      "start": 40.5551,
      "duration": 0.1002,
      "velocity": 110,
      "chip": "ym2612"
    },
    {
      "channel": 4,
      "note": 86,
      "start": 40.5573,
      "duration": 0.22,
      "velocity": 118,
      "chip": "ym2612"
    },
    {
      "channel": 0,
      "note": 50,
      "start": 40.6549,
      "duration": 0.1165,
      "velocity": 117,
      "chip": "ym2612"
    },
    {
      "channel": 1,
      "note": 74,
      "start": 40.6554,
      "duration": 0.1165,
      "velocity": 110,
      "chip": "ym2612"
    },
    {
      "channel": 0,
      "note": 53,
      "start": 40.7715,
      "duration": 0.1165,
      "velocity": 117,
      "chip": "ym2612"
    },
    {
      "channel": 1,
      "note": 62,
      "start": 40.7721,
      "duration": 0.2363,
      "velocity": 118,
      "chip": "ym2612"
    },
    {
      "channel": 4,
      "note": 86,
      "start": 40.7775,
      "duration": 0.2353,
      "velocity": 90,
      "chip": "ym2612"
    },
    {
      "channel": 0,
      "note": 55,
      "start": 40.8883,
      "duration": 0.1181,
      "velocity": 1,
      "chip": "ym2612"
    },
    {
      "channel": 0,
      "note": 49,
      "start": 41.0065,
      "duration": 5.5539,
      "velocity": 1,
      "chip": "ym2612"
    },
    {
      "channel": 1,
      "note": 86,
      "start": 41.0086,
      "duration": 0.1974,
      "velocity": 118,
      "chip": "ym2612"
    },
    {
      "channel": 2,
      "note": 85,
      "start": 41.0107,
      "duration": 5.5497,
      "velocity": 90,
      "chip": "ym2612"
    },
    {
      "channel": 4,
      "note": 80,
      "start": 41.0129,
      "duration": 5.5475,
      "velocity": 90,
      "chip": "ym2612"
    },
    {
      "channel": 1,
      "note": 86,
      "start": 41.2061,
      "duration": 5.3543,
      "velocity": 118,
      "chip": "ym2612"
    }
  ]
}