{
  "track_name": "10 - Moslem Dance ~Islamic Dance~ (Islam)",
  "duration_sec": 81.032,
  "sample_rate": 44100,
  "note_count": 1527,
  "unique_pitches": 18,
  "pitch_range": 36,
  "avg_note_duration": 0.2689,
  "reconstruction_stats": {
    "notes_reconstructed": 1527,
    "keyon_events": 1527,
    "keyoff_events": 1524,
    "orphan_keyons": 3,
    "unique_pitches": 18,
    "pitch_range": 36,
    "avg_duration_sec": 0.2689
  },
  "metadata": {
    "source": "D\\Daikoukai Jidai II\\10 - Moslem Dance ~Islamic Dance~ (Islam).vgz"
  },
  "notes": [
    {
      "channel": 0,
      "note": 82,
      "start": 0.0097,
      "duration": 0.4815,
      "velocity": 109,
      "chip": "ym2612"
    },
    {
      "channel": 5,
      "note": 58,
      "start": 0.0162,
      "duration": 0.1675,
      "velocity": 90,
      "chip": "ym2612"
    },
    {
      "channel": 1,
      "note": 82,
      "start": 0.0168,
      "duration": 0.4787,
      "velocity": 109,
      "chip": "ym2612"
    },
    {
      "channel": 2,
      "note": 82,
      "start": 0.0745,
      "duration": 0.6318,
      "velocity": 109,
      "chip": "ym2612"
    },
    {
      "channel": 5,
      "note": 65,
      "start": 0.2148,
      "duration": 0.1753,
      "velocity": 90,
      "chip": "ym2612"
    },
    {
      "channel": 5,
      "note": 73,
      "start": 0.4256,
      "duration": 0.1753,
      "velocity": 90,
      "chip": "ym2612"
    },
    {
      "channel": 5,
      "note": 63,
      "start": 0.6365,
      "duration": 0.1753,
      "velocity": 90,
      "chip": "ym2612"
    },
    {
      "channel": 0,
      "note": 85,
      "start": 0.6628,
      "duration": 0.0787,
      "velocity": 109,
      "chip": "ym2612"
    },
    {
      "channel": 1,
      "note": 85,
      "start": 0.6716,
      "duration": 0.0787,
      "velocity": 109,
      "chip": "ym2612"
    },
    {
      "channel": 2,
      "note": 85,
      "start": 0.7068,
      "duration": 0.4217,
      "velocity": 109,
      "chip": "ym2612"
    },
    {
      "channel": 5,
      "note": 68,
      "start": 0.8473,
      "duration": 0.1753,
      "velocity": 90,
      "chip": "ym2612"
    },
    {
      "channel": 0,
      "note": 85,
      "start": 1.0581,
      "duration": 0.0875,
      "velocity": 109,
      "chip": "ym2612"
    },
    {
      "channel": 5,
      "note": 72,
      "start": 1.0586,
      "duration": 0.1748,
      "velocity": 90,
      "chip": "ym2612"
    },
    {
      "channel": 1,
      "note": 85,
      "start": 1.0669,
      "duration": 0.0875,
      "velocity": 109,
      "chip": "ym2612"
    },
    {
      "channel": 2,
      "note": 85,
      "start": 1.129,
      "duration": 0.2098,
      "velocity": 109,
      "chip": "ym2612"
    },
    {
      "channel": 0,
      "note": 85,
      "start": 1.269,
      "duration": 0.2103,
      "velocity": 109,
      "chip": "ym2612"
    },
    {
      "channel": 5,
      "note": 58,
      "start": 1.2695,
      "duration": 0.1749,
      "velocity": 90,
      "chip": "ym2612"
    },
    {
      "channel": 1,
      "note": 85,
      "start": 1.2777,
      "duration": 0.2104,
      "velocity": 109,
      "chip": "ym2612"
    },
    {
      "channel": 2,
      "note": 85,
      "start": 1.3393,
      "duration": 0.2104,
      "velocity": 109,
      "chip": "ym2612"
    },
    {
      "channel": 0,
      "note": 87,
      "start": 1.4798,
      "duration": 0.2103,
      "velocity": 109,
      "chip": "ym2612"
    },
    {
      "channel": 5,
      "note": 65,
      "start": 1.4803,
      "duration": 0.1747,
      "velocity": 90,
      "chip": "ym2612"
    },
    {
      "channel": 1,
      "note": 87,
      "start": 1.4886,
      "duration": 0.2103,
      "velocity": 109,
      "chip": "ym2612"
    },
    {
      "channel": 2,
      "note": 87,
      "start": 1.5501,
      "duration": 0.2104,
      "velocity": 109,
      "chip": "ym2612"
    },
    {
      "channel": 0,
      "note": 84,
      "start": 1.6906,
      "duration": 0.3158,
      "velocity": 109,
      "chip": "ym2612"
    },
    {
      "channel": 5,
      "note": 73,
      "start": 1.6911,
      "duration": 0.1747,
      "velocity": 90,
      "chip": "ym2612"
    },
    {
      "channel": 1,
      "note": 84,
      "start": 1.6994,
      "duration": 0.3161,
      "velocity": 109,
      "chip": "ym2612"
    },
    {
      "channel": 2,
      "note": 84,
      "start": 1.7609,
      "duration": 0.4212,
      "velocity": 109,
      "chip": "ym2612"
    },
    {
      "channel": 5,
      "note": 63,
      "start": 1.9014,
      "duration": 0.1753,
      "velocity": 90,
      "chip": "ym2612"
    },
    {
      "channel": 0,
      "note": 82,
      "start": 2.1122,
      "duration": 0.1929,
      "velocity": 109,
      "chip": "ym2612"
    },
    {
      "channel": 5,
      "note": 68,
      "start": 2.1127,
      "duration": 0.1748,
      "velocity": 90,
      "chip": "ym2612"
    },
    {
      "channel": 1,
      "note": 82,
      "start": 2.121,
      "duration": 0.1929,
      "velocity": 109,
      "chip": "ym2612"
    },
    {
      "channel": 2,
      "note": 82,
      "start": 2.1825,
      "duration": 0.2104,
      "velocity": 109,
      "chip": "ym2612"
    },
    {
      "channel": 0,
      "note": 80,
      "start": 2.323,
      "duration": 0.1929,
      "velocity": 109,
      "chip": "ym2612"
    },
    {
      "channel": 5,
      "note": 72,
      "start": 2.3235,
      "duration": 0.1748,
      "velocity": 90,
      "chip": "ym2612"
    },
    {
      "channel": 1,
      "note": 80,
      "start": 2.3318,
      "duration": 0.1929,
      "velocity": 109,
      "chip": "ym2612"
    },
    {
      "channel": 2,
      "note": 80,
      "start": 2.3934,
      "duration": 0.2104,
      "velocity": 109,
      "chip": "ym2612"
    },
    {
      "channel": 0,
      "note": 82,
      "start": 2.5338,
      "duration": 0.5969,
      "velocity": 109,
      "chip": "ym2612"
    },
    {
      "channel": 5,
      "note": 58,
      "start": 2.5345,
      "duration": 0.1746,
      "velocity": 90,
      "chip": "ym2612"
    },
    {
      "channel": 1,
      "note": 82,
      "start": 2.5426,
      "duration": 0.5969,
      "velocity": 109,
      "chip": "ym2612"
    },
    {
      "channel": 2,
      "note": 82,
      "start": 2.6044,
      "duration": 0.6317,
      "velocity": 109,
      "chip": "ym2612"
    },
    {
      "channel": 5,
      "note": 65,
      "start": 2.7448,
      "duration": 0.1752,
      "velocity": 90,
      "chip": "ym2612"
    },
    {
      "channel": 5,
      "note": 73,
      "start": 2.9554,
      "duration": 0.1754,
      "velocity": 90,
      "chip": "ym2612"
    },
    {
      "channel": 0,
      "note": 85,
      "start": 3.1663,
      "duration": 0.0787,
      "velocity": 109,
      "chip": "ym2612"
    },
    {
      "channel": 5,
      "note": 63,
      "start": 3.1667,
      "duration": 0.1748,
      "velocity": 90,
      "chip": "ym2612"
    },
    {
      "channel": 1,
      "note": 85,
      "start": 3.175,
      "duration": 0.0787,
      "velocity": 109,
      "chip": "ym2612"
    },
    {
      "channel": 2,
      "note": 85,
      "start": 3.2366,
      "duration": 0.4212,
      "velocity": 109,
      "chip": "ym2612"
    },
    {
      "channel": 5,
      "note": 68,
      "start": 3.3771,
      "duration": 0.1753,
      "velocity": 90,
      "chip": "ym2612"
    },
    {
      "channel": 0,
      "note": 85,
      "start": 3.588,
      "duration": 0.0873,
      "velocity": 109,
      "chip": "ym2612"
    },
    {
      "channel": 5,
      "note": 72,
      "start": 3.5885,
      "duration": 0.1747,
      "velocity": 90,
      "chip": "ym2612"
    },
    {
      "channel": 1,
      "note": 85,
      "start": 3.5967,
      "duration": 0.0877,
      "velocity": 109,
      "chip": "ym2612"
    },
    {
      "channel": 2,
      "note": 85,
      "start": 3.6584,
      "duration": 0.2102,
      "velocity": 109,
      "chip": "ym2612"
    },
    {
      "channel": 0,
      "note": 85,
      "start": 3.7987,
      "duration": 0.1929,
      "velocity": 109,
      "chip": "ym2612"
    },
    {
      "channel": 5,
      "note": 58,
      "start": 3.7993,
      "duration": 0.175,
      "velocity": 90,
      "chip": "ym2612"
    },
    {
      "channel": 1,
      "note": 85,
      "start": 3.8075,
      "duration": 0.1929,
      "velocity": 109,
      "chip": "ym2612"
    },
    {
      "channel": 2,
      "note": 85,
      "start": 3.8691,
      "duration": 0.2103,
      "velocity": 109,
      "chip": "ym2612"
    },
    {
      "channel": 0,
      "note": 87,
      "start": 4.0095,
      "duration": 0.193,
      "velocity": 109,
      "chip": "ym2612"
    },
    {
      "channel": 5,
      "note": 65,
      "start": 4.01,
      "duration": 0.1748,
      "velocity": 90,
      "chip": "ym2612"
    },
    {
      "channel": 1,
      "note": 87,
      "start": 4.0183,
      "duration": 0.1929,
      "velocity": 109,
      "chip": "ym2612"
    },
    {
      "channel": 2,
      "note": 87,
      "start": 4.0799,
      "duration": 0.2103,
      "velocity": 109,
      "chip": "ym2612"
    },
    {
      "channel": 0,
      "note": 84,
      "start": 4.2203,
      "duration": 0.3159,
      "velocity": 109,
      "chip": "ym2612"
    },
    {
      "channel": 5,
      "note": 73,
      "start": 4.2208,
      "duration": 0.1748,
      "velocity": 90,
      "chip": "ym2612"
    },
    {
      "channel": 1,
      "note": 84,
      "start": 4.2291,
      "duration": 0.316,
      "velocity": 109,
      "chip": "ym2612"
    },
    {
      "channel": 2,
      "note": 84,
      "start": 4.2907,
      "duration": 0.4212,
      "velocity": 109,
      "chip": "ym2612"
    },
    {
      "channel": 5,
      "note": 63,
      "start": 4.4312,
      "duration": 0.1753,
      "velocity": 90,
      "chip": "ym2612"
    },
    {
      "channel": 0,
      "note": 82,
      "start": 4.642,
      "duration": 0.1929,
      "velocity": 109,
      "chip": "ym2612"
    },
    {
      "channel": 3,
      "note": 77,
      "start": 4.6424,
      "duration": 0.1046,
      "velocity": 94,
      "chip": "ym2612"
    },
    {
      "channel": 5,
      "note": 68,
      "start": 4.6429,
      "duration": 0.1749,
      "velocity": 90,
      "chip": "ym2612"
    },
    {
      "channel": 1,
      "note": 82,
      "start": 4.6507,
      "duration": 0.1929,
      "velocity": 109,
      "chip": "ym2612"
    },
    {
      "channel": 2,
      "note": 82,
      "start": 4.7123,
      "duration": 0.2103,
      "velocity": 109,
      "chip": "ym2612"
    },
    {
      "channel": 4,
      "note": 77,
      "start": 4.7298,
      "duration": 0.1051,
      "velocity": 94,
      "chip": "ym2612"
    },
    {
      "channel": 3,
      "note": 78,
      "start": 4.7475,
      "duration": 0.1049,
      "velocity": 94,
      "chip": "ym2612"
    },
    {
      "channel": 4,
      "note": 78,
      "start": 4.8354,
      "duration": 0.1049,
      "velocity": 94,
      "chip": "ym2612"
    },
    {
      "channel": 0,
      "note": 80,
      "start": 4.8529,
      "duration": 0.1928,
      "velocity": 109,
      "chip": "ym2612"
    },
    {
      "channel": 3,
      "note": 77,
      "start": 4.8533,
      "duration": 0.087,
      "velocity": 94,
      "chip": "ym2612"
    },
    {
      "channel": 5,
      "note": 72,
      "start": 4.8538,
      "duration": 0.1744,
      "velocity": 90,
      "chip": "ym2612"
    },
    {
      "channel": 1,
      "note": 80,
      "start": 4.8616,
      "duration": 0.1929,
      "velocity": 109,
      "chip": "ym2612"
    },
    {
      "channel": 2,
      "note": 80,
      "start": 4.9232,
      "duration": 0.2103,
      "velocity": 109,
      "chip": "ym2612"
    },
    {
      "channel": 4,
      "note": 77,
      "start": 4.9408,
      "duration": 0.0873,
      "velocity": 94,
      "chip": "ym2612"
    },
    {
      "channel": 3,
      "note": 78,
      "start": 4.9583,
      "duration": 0.1049,
      "velocity": 94,
      "chip": "ym2612"
    },
    {
      "channel": 4,
      "note": 78,
      "start": 5.0461,
      "duration": 0.105,
      "velocity": 94,
      "chip": "ym2612"
    },
    {
      "channel": 0,
      "note": 82,
      "start": 5.0637,
      "duration": 0.6495,
      "velocity": 109,
      "chip": "ym2612"
    },
    {
      "channel": 3,
      "note": 77,
      "start": 5.0644,
      "duration": 0.2099,
      "velocity": 94,
      "chip": "ym2612"
    },
    {
      "channel": 5,
      "note": 58,
      "start": 5.0649,
      "duration": 0.174,
      "velocity": 90,
      "chip": "ym2612"
    },
    {
      "channel": 1,
      "note": 82,
      "start": 5.0724,
      "duration": 0.6497,
      "velocity": 109,
      "chip": "ym2612"
    },
    {
      "channel": 2,
      "note": 82,
      "start": 5.1342,
      "duration": 0.6317,
      "velocity": 109,
      "chip": "ym2612"
    },
    {
      "channel": 4,
      "note": 77,
      "start": 5.1515,
      "duration": 0.2106,
      "velocity": 94,
      "chip": "ym2612"
    },
    {
      "channel": 3,
      "note": 82,
      "start": 5.2747,
      "duration": 0.2101,
      "velocity": 94,
      "chip": "ym2612"
    },
    {
      "channel": 5,
      "note": 65,
      "start": 5.2752,
      "duration": 0.1745,
      "velocity": 90,
      "chip": "ym2612"
    },
    {
      "channel": 4,
      "note": 82,
      "start": 5.3626,
      "duration": 0.2101,
      "velocity": 94,
      "chip": "ym2612"
    },
    {
      "channel": 3,
      "note": 82,
      "start": 5.4853,
      "duration": 0.4212,
      "velocity": 94,
      "chip": "ym2612"
    },
    {
      "channel": 5,
      "note": 73,
      "start": 5.4858,
      "duration": 0.1748,
      "velocity": 90,
      "chip": "ym2612"
    },
    {
      "channel": 4,
      "note": 82,
      "start": 5.5733,
      "duration": 0.4211,
      "velocity": 94,
      "chip": "ym2612"
    },
    {
      "channel": 5,
      "note": 63,
      "start": 5.6961,
      "duration": 0.1753,
      "velocity": 90,
      "chip": "ym2612"
    },
    {
      "channel": 0,
      "note": 85,
      "start": 5.7225,
      "duration": 0.0698,
      "velocity": 109,
      "chip": "ym2612"
    },
    {
      "channel": 1,
      "note": 85,
      "start": 5.7312,
      "duration": 0.0699,
      "velocity": 109,
      "chip": "ym2612"
    },
    {
      "channel": 2,
      "note": 85,
      "start": 5.7664,
      "duration": 0.4212,
      "velocity": 109,
      "chip": "ym2612"
    },
    {
      "channel": 3,
      "note": 80,
      "start": 5.9069,
      "duration": 0.4212,
      "velocity": 94,
      "chip": "ym2612"
    },
    {
      "channel": 5,
      "note": 68,
      "start": 5.9074,
      "duration": 0.1748,
      "velocity": 90,
      "chip": "ym2612"
    },
    {
      "channel": 4,
      "note": 80,
      "start": 5.9948,
      "duration": 0.4211,
      "velocity": 94,
      "chip": "ym2612"
    },
    {
      "channel": 0,
      "note": 85,
      "start": 6.1178,
      "duration": 0.0961,
      "velocity": 109,
      "chip": "ym2612"
    },
    {
      "channel": 5,
      "note": 72,
      "start": 6.1183,
      "duration": 0.1747,
      "velocity": 90,
      "chip": "ym2612"
    },
    {
      "channel": 1,
      "note": 85,
      "start": 6.1265,
      "duration": 0.0963,
      "velocity": 109,
      "chip": "ym2612"
    },
    {
      "channel": 2,
      "note": 85,
      "start": 6.1882,
      "duration": 0.2102,
      "velocity": 109,
      "chip": "ym2612"
    },
    {
      "channel": 0,
      "note": 85,
      "start": 6.3286,
      "duration": 0.2105,
      "velocity": 109,
      "chip": "ym2612"
    },
    {
      "channel": 3,
      "note": 79,
      "start": 6.3292,
      "duration": 0.2098,
      "velocity": 94,
      "chip": "ym2612"
    },
    {
      "channel": 5,
      "note": 58,
      "start": 6.3296,
      "duration": 0.1742,
      "velocity": 90,
      "chip": "ym2612"
    },
    {
      "channel": 1,
      "note": 85,
      "start": 6.3373,
      "duration": 0.2105,
      "velocity": 109,
      "chip": "ym2612"
    },
    {
      "channel": 2,
      "note": 85,
      "start": 6.3989,
      "duration": 0.2103,
      "velocity": 109,
      "chip": "ym2612"
    },
    {
      "channel": 4,
      "note": 79,
      "start": 6.4164,
      "duration": 0.2104,
      "velocity": 94,
      "chip": "ym2612"
    },
    {
      "channel": 0,
      "note": 87,
      "start": 6.5395,
      "duration": 0.1927,
      "velocity": 109,
      "chip": "ym2612"
    },
    {
      "channel": 3,
      "note": 77,
      "start": 6.5399,
      "duration": 0.2098,
      "velocity": 94,
      "chip": "ym2612"
    },
    {
      "channel": 5,
      "note": 65,
      "start": 6.5404,
      "duration": 0.1742,
      "velocity": 90,
      "chip": "ym2612"
    },
    {
      "channel": 1,
      "note": 87,
      "start": 6.5482,
      "duration": 0.1928,
      "velocity": 109,
      "chip": "ym2612"
    },
    {
      "channel": 2,
      "note": 87,
      "start": 6.6097,
      "duration": 0.2103,
      "velocity": 109,
      "chip": "ym2612"
    },
    {
      "channel": 4,
      "note": 77,
      "start": 6.6272,
      "duration": 0.2104,
      "velocity": 94,
      "chip": "ym2612"
    },
    {
      "channel": 0,
      "note": 84,
      "start": 6.7502,
      "duration": 0.3158,
      "velocity": 109,
      "chip": "ym2612"
    },
    {
      "channel": 3,
      "note": 82,
      "start": 6.7507,
      "duration": 0.4207,
      "velocity": 94,
      "chip": "ym2612"
    },
    {
      "channel": 5,
      "note": 73,
      "start": 6.7512,
      "duration": 0.1743,
      "velocity": 90,
      "chip": "ym2612"
    },
    {
      "channel": 1,
      "note": 84,
      "start": 6.7589,
      "duration": 0.3159,
      "velocity": 109,
      "chip": "ym2612"
    },
    {
      "channel": 2,
      "note": 84,
      "start": 6.8205,
      "duration": 0.4212,
      "velocity": 109,
      "chip": "ym2612"
    },
    {
      "channel": 4,
      "note": 82,
      "start": 6.838,
      "duration": 0.4212,
      "velocity": 94,
      "chip": "ym2612"
    },
    {
      "channel": 5,
      "note": 63,
      "start": 6.961,
      "duration": 0.1753,
      "velocity": 90,
      "chip": "ym2612"
    },
    {
      "channel": 0,
      "note": 82,
      "start": 7.1719,
      "duration": 0.1928,
      "velocity": 109,
      "chip": "ym2612"
    },
    {
      "channel": 3,
      "note": 80,
      "start": 7.1723,
      "duration": 0.4207,
      "velocity": 94,
      "chip": "ym2612"
    },
    {
      "channel": 5,
      "note": 68,
      "start": 7.1728,
      "duration": 0.1743,
      "velocity": 90,
      "chip": "ym2612"
    },
    {
      "channel": 1,
      "note": 82,
      "start": 7.1805,
      "duration": 0.1929,
      "velocity": 109,
      "chip": "ym2612"
    },
    {
      "channel": 2,
      "note": 82,
      "start": 7.2421,
      "duration": 0.2103,
      "velocity": 109,
      "chip": "ym2612"
    },
    {
      "channel": 4,
      "note": 80,
      "start": 7.2597,
      "duration": 0.4212,
      "velocity": 94,
      "chip": "ym2612"
    },
    {
      "channel": 0,
      "note": 80,
      "start": 7.3826,
      "duration": 0.1753,
      "velocity": 109,
      "chip": "ym2612"
    },
    {
      "channel": 5,
      "note": 72,
      "start": 7.3831,
      "duration": 0.1749,
      "velocity": 90,
      "chip": "ym2612"
    },
    {
      "channel": 1,
      "note": 80,
      "start": 7.3914,
      "duration": 0.1753,
      "velocity": 109,
      "chip": "ym2612"
    },
    {
      "channel": 2,
      "note": 80,
      "start": 7.4529,
      "duration": 0.2103,
      "velocity": 109,
      "chip": "ym2612"
    },
    {
      "channel": 0,
      "note": 82,
      "start": 7.5935,
      "duration": 0.5968,
      "velocity": 109,
      "chip": "ym2612"
    },
    {
      "channel": 3,
      "note": 79,
      "start": 7.5942,
      "duration": 0.2096,
      "velocity": 94,
      "chip": "ym2612"
    },
    {
      "channel": 5,
      "note": 58,
      "start": 7.5947,
      "duration": 0.174,
      "velocity": 90,
      "chip": "ym2612"
    },
    {
      "channel": 1,
      "note": 82,
      "start": 7.6022,
      "duration": 0.5969,
      "velocity": 109,
      "chip": "ym2612"
    },
    {
      "channel": 2,
      "note": 82,
      "start": 7.6638,
      "duration": 0.632,
      "velocity": 109,
      "chip": "ym2612"
    },
    {
      "channel": 4,
      "note": 79,
      "start": 7.6813,
      "duration": 0.2105,
      "velocity": 94,
      "chip": "ym2612"
    },
    {
      "channel": 3,
      "note": 77,
      "start": 7.8045,
      "duration": 0.2101,
      "velocity": 94,
      "chip": "ym2612"
    },
    {
      "channel": 5,
      "note": 65,
      "start": 7.805,
      "duration": 0.1745,
      "velocity": 90,
      "chip": "ym2612"
    },
    {
      "channel": 4,
      "note": 77,
      "start": 7.8922,
      "duration": 0.2103,
      "velocity": 94,
      "chip": "ym2612"
    },
    {
      "channel": 3,
      "note": 82,
      "start": 8.0151,
      "duration": 0.4212,
      "velocity": 94,
      "chip": "ym2612"
    },
    {
      "channel": 5,
      "note": 73,
      "start": 8.0156,
      "duration": 0.1749,
      "velocity": 90,
      "chip": "ym2612"
    },
    {
      "channel": 4,
      "note": 82,
      "start": 8.1029,
      "duration": 0.4214,
      "velocity": 94,
      "chip": "ym2612"
    },
    {
      "channel": 0,
      "note": 85,
      "start": 8.2259,
      "duration": 0.0875,
      "velocity": 109,
      "chip": "ym2612"
    },
    {
      "channel": 5,
      "note": 63,
      "start": 8.2263,
      "duration": 0.1748,
      "velocity": 90,
      "chip": "ym2612"
    },
    {
      "channel": 1,
      "note": 85,
      "start": 8.2348,
      "duration": 0.0873,
      "velocity": 109,
      "chip": "ym2612"
    },
    {
      "channel": 2,
      "note": 85,
      "start": 8.2962,
      "duration": 0.4212,
      "velocity": 109,
      "chip": "ym2612"
    },
    {
      "channel": 3,
      "note": 80,
      "start": 8.4367,
      "duration": 0.4212,
      "velocity": 94,
      "chip": "ym2612"
    },
    {
      "channel": 5,
      "note": 68,
      "start": 8.4372,
      "duration": 0.1748,
      "velocity": 90,
      "chip": "ym2612"
    },
    {
      "channel": 4,
      "note": 80,
      "start": 8.5248,
      "duration": 0.421,
      "velocity": 94,
      "chip": "ym2612"
    },
    {
      "channel": 0,
      "note": 85,
      "start": 8.6476,
      "duration": 0.0874,
      "velocity": 109,
      "chip": "ym2612"
    },
    {
      "channel": 5,
      "note": 72,
      "start": 8.6481,
      "duration": 0.1747,
      "velocity": 90,
      "chip": "ym2612"
    },
    {
      "channel": 1,
      "note": 85,
      "start": 8.6563,
      "duration": 0.0875,
      "velocity": 109,
      "chip": "ym2612"
    },
    {
      "channel": 2,
      "note": 85,
      "start": 8.7178,
      "duration": 0.2103,
      "velocity": 109,
      "chip": "ym2612"
    },
    {
      "channel": 0,
      "note": 85,
      "start": 8.8584,
      "duration": 0.2016,
      "velocity": 109,
      "chip": "ym2612"
    },
    {
      "channel": 3,
      "note": 79,
      "start": 8.8588,
      "duration": 0.2099,
      "velocity": 94,
      "chip": "ym2612"
    },
    {
      "channel": 5,
      "note": 58,
      "start": 8.8594,
      "duration": 0.1742,
      "velocity": 90,
      "chip": "ym2612"
    },
    {
      "channel": 1,
      "note": 85,
      "start": 8.8671,
      "duration": 0.2017,
      "velocity": 109,
      "chip": "ym2612"
    },
    {
      "channel": 2,
      "note": 85,
      "start": 8.9287,
      "duration": 0.2103,
      "velocity": 109,
      "chip": "ym2612"
    },
    {
      "channel": 4,
      "note": 79,
      "start": 8.9462,
      "duration": 0.2104,
      "velocity": 94,
      "chip": "ym2612"
    },
    {
      "channel": 0,
      "note": 87,
      "start": 9.0693,
      "duration": 0.1312,
      "velocity": 109,
      "chip": "ym2612"
    },
    {
      "channel": 3,
      "note": 77,
      "start": 9.0698,
      "duration": 0.2098,
      "velocity": 94,
      "chip": "ym2612"
    },
    {
      "channel": 5,
      "note": 65,
      "start": 9.0702,
      "duration": 0.1742,
      "velocity": 90,
      "chip": "ym2612"
    },
    {
      "channel": 1,
      "note": 87,
      "start": 9.0779,
      "duration": 0.1314,
      "velocity": 109,
      "chip": "ym2612"
    },
    {
      "channel": 2,
      "note": 87,
      "start": 9.1395,
      "duration": 0.2103,
      "velocity": 109,
      "chip": "ym2612"
    },
    {
      "channel": 4,
      "note": 77,
      "start": 9.157,
      "duration": 0.2104,
      "velocity": 94,
      "chip": "ym2612"
    },
    {
      "channel": 0,
      "note": 84,
      "start": 9.28,
      "duration": 0.3157,
      "velocity": 109,
      "chip": "ym2612"
    },
    {
      "channel": 3,
      "note": 75,
      "start": 9.2805,
      "duration": 0.4207,
      "velocity": 94,
      "chip": "ym2612"
    },
    {
      "channel": 5,
      "note": 73,
      "start": 9.281,
      "duration": 0.1743,
      "velocity": 90,
      "chip": "ym2612"
    },
    {
      "channel": 1,
      "note": 84,
      "start": 9.2887,
      "duration": 0.3159,
      "velocity": 109,
      "chip": "ym2612"
    },
    {
      "channel": 2,
      "note": 84,
      "start": 9.3503,
      "duration": 0.4212,
      "velocity": 109,
      "chip": "ym2612"
    },
    {
      "channel": 4,
      "note": 75,
      "start": 9.3678,
      "duration": 0.4212,
      "velocity": 94,
      "chip": "ym2612"
    },
    {
      "channel": 5,
      "note": 63,
      "start": 9.4907,
      "duration": 0.1753,
      "velocity": 90,
      "chip": "ym2612"
    },
    {
      "channel": 0,
      "note": 82,
      "start": 9.7017,
      "duration": 0.1928,
      "velocity": 109,
      "chip": "ym2612"
    },
    {
      "channel": 3,
      "note": 79,
      "start": 9.7021,
      "duration": 0.4207,
      "velocity": 94,
      "chip": "ym2612"
    },
    {
      "channel": 5,
      "note": 68,
      "start": 9.7026,
      "duration": 0.1743,
      "velocity": 90,
      "chip": "ym2612"
    },
    {
      "channel": 1,
      "note": 82,
      "start": 9.7103,
      "duration": 0.1929,
      "velocity": 109,
      "chip": "ym2612"
    },
    {
      "channel": 2,
      "note": 82,
      "start": 9.7719,
      "duration": 0.2103,
      "velocity": 109,
      "chip": "ym2612"
    },
    {
      "channel": 4,
      "note": 79,
      "start": 9.7895,
      "duration": 0.4212,
      "velocity": 94,
      "chip": "ym2612"
    },
    {
      "channel": 0,
      "note": 80,
      "start": 9.9124,
      "duration": 0.1929,
      "velocity": 109,
      "chip": "ym2612"
    },
    {
      "channel": 5,
      "note": 72,
      "start": 9.9129,
      "duration": 0.1748,
      "velocity": 90,
      "chip": "ym2612"
    },
    {
      "channel": 1,
      "note": 80,
      "start": 9.9212,
      "duration": 0.1931,
      "velocity": 109,
      "chip": "ym2612"
    },
    {
      "channel": 2,
      "note": 80,
      "start": 9.9827,
      "duration": 0.2103,
      "velocity": 109,
      "chip": "ym2612"
    },
    {
      "channel": 0,
      "note": 82,
      "start": 10.1233,
      "duration": 0.6495,
      "velocity": 109,
      "chip": "ym2612"
    },
    {
      "channel": 3,
      "note": 77,
      "start": 10.1237,
      "duration": 4.637,
      "velocity": 94,
      "chip": "ym2612"
    },
    {
      "channel": 5,
      "note": 58,
      "start": 10.1245,
      "duration": 0.174,
      "velocity": 90,
      "chip": "ym2612"
    },
    {
      "channel": 1,
      "note": 82,
      "start": 10.132,
      "duration": 0.6496,
      "velocity": 109,
      "chip": "ym2612"
    },
    {
      "channel": 2,
      "note": 82,
      "start": 10.1936,
      "duration": 0.632,
      "velocity": 109,
      "chip": "ym2612"
    },
    {
      "channel": 4,
      "note": 77,
      "start": 10.2111,
      "duration": 4.6375,
      "velocity": 94,
      "chip": "ym2612"
    },
    {
      "channel": 5,
      "note": 65,
      "start": 10.3343,
      "duration": 0.1751,
      "velocity": 90,
      "chip": "ym2612"
    },
    {
      "channel": 5,
      "note": 73,
      "start": 10.5448,
      "duration": 0.1753,
      "velocity": 90,
      "chip": "ym2612"
    },
    {
      "channel": 5,
      "note": 63,
      "start": 10.7556,
      "duration": 0.1753,
      "velocity": 90,
      "chip": "ym2612"
    },
    {
      "channel": 0,
      "note": 85,
      "start": 10.7821,
      "duration": 0.0786,
      "velocity": 109,
      "chip": "ym2612"
    },
    {
      "channel": 1,
      "note": 85,
      "start": 10.7908,
      "duration": 0.0787,
      "velocity": 109,
      "chip": "ym2612"
    },
    {
      "channel": 2,
      "note": 85,
      "start": 10.826,
      "duration": 0.4212,
      "velocity": 109,
      "chip": "ym2612"
    },
    {
      "channel": 5,
      "note": 68,
      "start": 10.9666,
      "duration": 0.1752,
      "velocity": 90,
      "chip": "ym2612"
    },
    {
      "channel": 0,
      "note": 85,
      "start": 11.1773,
      "duration": 0.0875,
      "velocity": 109,
      "chip": "ym2612"
    },
    {
      "channel": 5,
      "note": 72,
      "start": 11.1779,
      "duration": 0.1747,
      "velocity": 90,
      "chip": "ym2612"
    },
    {
      "channel": 1,
      "note": 85,
      "start": 11.1861,
      "duration": 0.0875,
      "velocity": 109,
      "chip": "ym2612"
    },
    {
      "channel": 2,
      "note": 85,
      "start": 11.2476,
      "duration": 0.2103,
      "velocity": 109,
      "chip": "ym2612"
    },
    {
      "channel": 0,
      "note": 85,
      "start": 11.3881,
      "duration": 0.1934,
      "velocity": 109,
      "chip": "ym2612"
    },
    {
      "channel": 5,
      "note": 58,
      "start": 11.3886,
      "duration": 0.1748,
      "velocity": 90,
      "chip": "ym2612"
    },
    {
      "channel": 1,
      "note": 85,
      "start": 11.3969,
      "duration": 0.1929,
      "velocity": 109,
      "chip": "ym2612"
    },
    {
      "channel": 2,
      "note": 85,
      "start": 11.4585,
      "duration": 0.2103,
      "velocity": 109,
      "chip": "ym2612"
    },
    {
      "channel": 0,
      "note": 87,
      "start": 11.5989,
      "duration": 0.1929,
      "velocity": 109,
      "chip": "ym2612"
    },
    {
      "channel": 5,
      "note": 65,
      "start": 11.5994,
      "duration": 0.175,
      "velocity": 90,
      "chip": "ym2612"
    },
    {
      "channel": 1,
      "note": 87,
      "start": 11.6077,
      "duration": 0.1929,
      "velocity": 109,
      "chip": "ym2612"
    },
    {
      "channel": 2,
      "note": 87,
      "start": 11.6693,
      "duration": 0.2103,
      "velocity": 109,
      "chip": "ym2612"
    },
    {
      "channel": 0,
      "note": 84,
      "start": 11.8097,
      "duration": 0.3159,
      "velocity": 109,
      "chip": "ym2612"
    },
    {
      "channel": 5,
      "note": 73,
      "start": 11.8102,
      "duration": 0.1748,
      "velocity": 90,
      "chip": "ym2612"
    },
    {
      "channel": 1,
      "note": 84,
      "start": 11.8185,
      "duration": 0.3159,
      "velocity": 109,
      "chip": "ym2612"
    },
    {
      "channel": 2,
      "note": 84,
      "start": 11.8801,
      "duration": 0.4212,
      "velocity": 109,
      "chip": "ym2612"
    },
    {
      "channel": 5,
      "note": 63,
      "start": 12.0205,
      "duration": 0.1758,
      "velocity": 90,
      "chip": "ym2612"
    },
    {
      "channel": 0,
      "note": 82,
      "start": 12.2313,
      "duration": 0.193,
      "velocity": 109,
      "chip": "ym2612"
    },
    {
      "channel": 5,
      "note": 68,
      "start": 12.2318,
      "duration": 0.1748,
      "velocity": 90,
      "chip": "ym2612"
    },
    {
      "channel": 1,
      "note": 82,
      "start": 12.2401,
      "duration": 0.1929,
      "velocity": 109,
      "chip": "ym2612"
    },
    {
      "channel": 2,
      "note": 82,
      "start": 12.3017,
      "duration": 0.2103,
      "velocity": 109,
      "chip": "ym2612"
    },
    {
      "channel": 0,
      "note": 80,
      "start": 12.4422,
      "duration": 0.1929,
      "velocity": 109,
      "chip": "ym2612"
    },
    {
      "channel": 5,
      "note": 72,
      "start": 12.4427,
      "duration": 0.1748,
      "velocity": 90,
      "chip": "ym2612"
    },
    {
      "channel": 1,
      "note": 80,
      "start": 12.451,
      "duration": 0.1929,
      "velocity": 109,
      "chip": "ym2612"
    },
    {
      "channel": 2,
      "note": 80,
      "start": 12.5125,
      "duration": 0.2103,
      "velocity": 109,
      "chip": "ym2612"
    },
    {
      "channel": 0,
      "note": 82,
      "start": 12.653,
      "duration": 0.5969,
      "velocity": 109,
      "chip": "ym2612"
    },
    {
      "channel": 5,
      "note": 58,
      "start": 12.6535,
      "duration": 0.1748,
      "velocity": 90,
      "chip": "ym2612"
    },
    {
      "channel": 1,
      "note": 82,
      "start": 12.6618,
      "duration": 0.5969,
      "velocity": 109,
      "chip": "ym2612"
    },
    {
      "channel": 2,
      "note": 82,
      "start": 12.7234,
      "duration": 0.6322,
      "velocity": 109,
      "chip": "ym2612"
    },
    {
      "channel": 5,
      "note": 65,
      "start": 12.8638,
      "duration": 0.1753,
      "velocity": 90,
      "chip": "ym2612"
    },
    {
      "channel": 5,
      "note": 73,
      "start": 13.0748,
      "duration": 0.1753,
      "velocity": 90,
      "chip": "ym2612"
    },
    {
      "channel": 0,
      "note": 85,
      "start": 13.2854,
      "duration": 0.0875,
      "velocity": 109,
      "chip": "ym2612"
    },
    {
      "channel": 5,
      "note": 63,
      "start": 13.2859,
      "duration": 0.1748,
      "velocity": 90,
      "chip": "ym2612"
    },
    {
      "channel": 1,
      "note": 85,
      "start": 13.2946,
      "duration": 0.0871,
      "velocity": 109,
      "chip": "ym2612"
    },
    {
      "channel": 2,
      "note": 85,
      "start": 13.356,
      "duration": 0.4209,
      "velocity": 109,
      "chip": "ym2612"
    },
    {
      "channel": 5,
      "note": 68,
      "start": 13.4963,
      "duration": 0.1752,
      "velocity": 90,
      "chip": "ym2612"
    },
    {
      "channel": 0,
      "note": 85,
      "start": 13.7071,
      "duration": 0.0787,
      "velocity": 109,
      "chip": "ym2612"
    },
    {
      "channel": 5,
      "note": 72,
      "start": 13.7076,
      "duration": 0.1748,
      "velocity": 90,
      "chip": "ym2612"
    },
    {
      "channel": 1,
      "note": 85,
      "start": 13.7159,
      "duration": 0.0787,
      "velocity": 109,
      "chip": "ym2612"
    },
    {
      "channel": 2,
      "note": 85,
      "start": 13.7774,
      "duration": 0.2103,
      "velocity": 109,
      "chip": "ym2612"
    },
    {
      "channel": 0,
      "note": 85,
      "start": 13.9179,
      "duration": 0.1929,
      "velocity": 109,
      "chip": "ym2612"
    },
    {
      "channel": 5,
      "note": 58,
      "start": 13.9184,
      "duration": 0.1748,
      "velocity": 90,
      "chip": "ym2612"
    },
    {
      "channel": 1,
      "note": 85,
      "start": 13.9267,
      "duration": 0.1929,
      "velocity": 109,
      "chip": "ym2612"
    },
    {
      "channel": 2,
      "note": 85,
      "start": 13.9883,
      "duration": 0.2103,
      "velocity": 109,
      "chip": "ym2612"
    },
    {
      "channel": 0,
      "note": 87,
      "start": 14.1287,
      "duration": 0.0963,
      "velocity": 109,
      "chip": "ym2612"
    },
    {
      "channel": 5,
      "note": 65,
      "start": 14.1292,
      "duration": 0.1751,
      "velocity": 90,
      "chip": "ym2612"
    },
    {
      "channel": 1,
      "note": 87,
      "start": 14.1375,
      "duration": 0.0962,
      "velocity": 109,
      "chip": "ym2612"
    },
    {
      "channel": 2,
      "note": 87,
      "start": 14.1991,
      "duration": 0.2103,
      "velocity": 109,
      "chip": "ym2612"
    },
    {
      "channel": 0,
      "note": 84,
      "start": 14.3395,
      "duration": 0.3164,
      "velocity": 109,
      "chip": "ym2612"
    },
    {
      "channel": 5,
      "note": 73,
      "start": 14.34,
      "duration": 0.1748,
      "velocity": 90,
      "chip": "ym2612"
    },
    {
      "channel": 1,
      "note": 84,
      "start": 14.3483,
      "duration": 0.3161,
      "velocity": 109,
      "chip": "ym2612"
    },
    {
      "channel": 2,
      "note": 84,
      "start": 14.4099,
      "duration": 0.4212,
      "velocity": 109,
      "chip": "ym2612"
    },
    {
      "channel": 5,
      "note": 63,
      "start": 14.5503,
      "duration": 0.1753,
      "velocity": 90,
      "chip": "ym2612"
    },
    {
      "channel": 0,
      "note": 82,
      "start": 14.7612,
      "duration": 0.1931,
      "velocity": 109,
      "chip": "ym2612"
    },
    {
      "channel": 3,
      "note": 77,
      "start": 14.7617,
      "duration": 0.1045,
      "velocity": 94,
      "chip": "ym2612"
    },
    {
      "channel": 5,
      "note": 68,
      "start": 14.7622,
      "duration": 0.1743,
      "velocity": 90,
      "chip": "ym2612"
    },
    {
      "channel": 1,
      "note": 82,
      "start": 14.7699,
      "duration": 0.1929,
      "velocity": 109,
      "chip": "ym2612"
    },
    {
      "channel": 2,
      "note": 82,
      "start": 14.8315,
      "duration": 0.2103,
      "velocity": 109,
      "chip": "ym2612"
    },
    {
      "channel": 4,
      "note": 77,
      "start": 14.849,
      "duration": 0.1052,
      "velocity": 94,
      "chip": "ym2612"
    },
    {
      "channel": 3,
      "note": 78,
      "start": 14.8666,
      "duration": 0.105,
      "velocity": 94,
      "chip": "ym2612"
    },
    {
      "channel": 4,
      "note": 78,
      "start": 14.9548,
      "duration": 0.1046,
      "velocity": 94,
      "chip": "ym2612"
    },
    {
      "channel": 0,
      "note": 80,
      "start": 14.972,
      "duration": 0.1929,
      "velocity": 109,
      "chip": "ym2612"
    },
    {
      "channel": 3,
      "note": 77,
      "start": 14.9725,
      "duration": 0.1045,
      "velocity": 94,
      "chip": "ym2612"
    },
    {
      "channel": 5,
      "note": 72,
      "start": 14.973,
      "duration": 0.1743,
      "velocity": 90,
      "chip": "ym2612"
    },
    {
      "channel": 1,
      "note": 80,
      "start": 14.9807,
      "duration": 0.1929,
      "velocity": 109,
      "chip": "ym2612"
    },
    {
      "channel": 2,
      "note": 80,
      "start": 15.0423,
      "duration": 0.2103,
      "velocity": 109,
      "chip": "ym2612"
    },
    {
      "channel": 4,
      "note": 77,
      "start": 15.0599,
      "duration": 0.105,
      "velocity": 94,
      "chip": "ym2612"
    },
    {
      "channel": 3,
      "note": 78,
      "start": 15.0774,
      "duration": 0.105,
      "velocity": 94,
      "chip": "ym2612"
    },
    {
      "channel": 4,
      "note": 78,
      "start": 15.1654,
      "duration": 0.105,
      "velocity": 94,
      "chip": "ym2612"
    },
    {
      "channel": 0,
      "note": 82,
      "start": 15.1829,
      "duration": 0.6495,
      "velocity": 109,
      "chip": "ym2612"
    },
    {
      "channel": 3,
      "note": 77,
      "start": 15.1833,
      "duration": 0.2099,
      "velocity": 94,
      "chip": "ym2612"
    },
    {
      "channel": 5,
      "note": 58,
      "start": 15.1838,
      "duration": 0.1743,
      "velocity": 90,
      "chip": "ym2612"
    },
    {
      "channel": 1,
      "note": 82,
      "start": 15.1916,
      "duration": 0.6496,
      "velocity": 109,
      "chip": "ym2612"
    },
    {
      "channel": 2,
      "note": 82,
      "start": 15.2532,
      "duration": 0.6232,
      "velocity": 109,
      "chip": "ym2612"
    },
    {
      "channel": 4,
      "note": 77,
      "start": 15.2708,
      "duration": 0.2102,
      "velocity": 94,
      "chip": "ym2612"
    },
    {
      "channel": 3,
      "note": 82,
      "start": 15.3937,
      "duration": 0.2106,
      "velocity": 94,
      "chip": "ym2612"
    },
    {
      "channel": 5,
      "note": 65,
      "start": 15.3944,
      "duration": 0.1745,
      "velocity": 90,
      "chip": "ym2612"
    },
    {
      "channel": 4,
      "note": 82,
      "start": 15.4815,
      "duration": 0.2104,
      "velocity": 94,
      "chip": "ym2612"
    },
    {
      "channel": 3,
      "note": 82,
      "start": 15.6047,
      "duration": 0.4209,
      "velocity": 94,
      "chip": "ym2612"
    },
    {
      "channel": 5,
      "note": 73,
      "start": 15.6052,
      "duration": 0.1745,
      "velocity": 90,
      "chip": "ym2612"
    },
    {
      "channel": 4,
      "note": 82,
      "start": 15.6923,
      "duration": 0.4212,
      "velocity": 94,
      "chip": "ym2612"
    },
    {
      "channel": 5,
      "note": 63,
      "start": 15.8155,
      "duration": 0.1751,
      "velocity": 90,
      "chip": "ym2612"
    },
    {
      "channel": 0,
      "note": 85,
      "start": 15.8417,
      "duration": 0.0961,
      "velocity": 109,
      "chip": "ym2612"
    },
    {
      "channel": 1,
      "note": 85,
      "start": 15.8504,
      "duration": 0.0962,
      "velocity": 109,
      "chip": "ym2612"
    },
    {
      "channel": 2,
      "note": 85,
      "start": 15.8856,
      "duration": 0.4212,
      "velocity": 109,
      "chip": "ym2612"
    },
    {
      "channel": 3,
      "note": 80,
      "start": 16.0262,
      "duration": 0.4211,
      "velocity": 94,
      "chip": "ym2612"
    },
    {
      "channel": 5,
      "note": 68,
      "start": 16.0267,
      "duration": 0.1746,
      "velocity": 90,
      "chip": "ym2612"
    },
    {
      "channel": 4,
      "note": 80,
      "start": 16.1142,
      "duration": 0.4209,
      "velocity": 94,
      "chip": "ym2612"
    },
    {
      "channel": 0,
      "note": 85,
      "start": 16.2368,
      "duration": 0.0963,
      "velocity": 109,
      "chip": "ym2612"
    },
    {
      "channel": 5,
      "note": 72,
      "start": 16.2373,
      "duration": 0.1748,
      "velocity": 90,
      "chip": "ym2612"
    },
    {
      "channel": 1,
      "note": 85,
      "start": 16.2456,
      "duration": 0.0962,
      "velocity": 109,
      "chip": "ym2612"
    },
    {
      "channel": 2,
      "note": 85,
      "start": 16.3072,
      "duration": 0.2103,
      "velocity": 109,
      "chip": "ym2612"
    },
    {
      "channel": 0,
      "note": 85,
      "start": 16.4478,
      "duration": 0.1928,
      "velocity": 109,
      "chip": "ym2612"
    },
    {
      "channel": 3,
      "note": 79,
      "start": 16.4482,
      "duration": 0.2099,
      "velocity": 94,
      "chip": "ym2612"
    },
    {
      "channel": 5,
      "note": 58,
      "start": 16.4487,
      "duration": 0.1743,
      "velocity": 90,
      "chip": "ym2612"
    },
    {
      "channel": 1,
      "note": 85,
      "start": 16.4565,
      "duration": 0.1929,
      "velocity": 109,
      "chip": "ym2612"
    },
    {
      "channel": 2,
      "note": 85,
      "start": 16.518,
      "duration": 0.2103,
      "velocity": 109,
      "chip": "ym2612"
    },
    {
      "channel": 4,
      "note": 79,
      "start": 16.5356,
      "duration": 0.2104,
      "velocity": 94,
      "chip": "ym2612"
    },
    {
      "channel": 0,
      "note": 87,
      "start": 16.6586,
      "duration": 0.1928,
      "velocity": 109,
      "chip": "ym2612"
    },
    {
      "channel": 3,
      "note": 77,
      "start": 16.659,
      "duration": 0.2099,
      "velocity": 94,
      "chip": "ym2612"
    },
    {
      "channel": 5,
      "note": 65,
      "start": 16.6595,
      "duration": 0.1743,
      "velocity": 90,
      "chip": "ym2612"
    },
    {
      "channel": 1,
      "note": 87,
      "start": 16.6673,
      "duration": 0.1929,
      "velocity": 109,
      "chip": "ym2612"
    },
    {
      "channel": 2,
      "note": 87,
      "start": 16.7289,
      "duration": 0.2103,
      "velocity": 109,
      "chip": "ym2612"
    },
    {
      "channel": 4,
      "note": 77,
      "start": 16.7464,
      "duration": 0.2104,
      "velocity": 94,
      "chip": "ym2612"
    },
    {
      "channel": 0,
      "note": 84,
      "start": 16.8694,
      "duration": 0.3158,
      "velocity": 109,
      "chip": "ym2612"
    },
    {
      "channel": 3,
      "note": 82,
      "start": 16.8698,
      "duration": 0.1046,
      "velocity": 94,
      "chip": "ym2612"
    },
    {
      "channel": 5,
      "note": 73,
      "start": 16.8703,
      "duration": 0.1743,
      "velocity": 90,
      "chip": "ym2612"
    },
    {
      "channel": 1,
      "note": 84,
      "start": 16.8781,
      "duration": 0.3161,
      "velocity": 109,
      "chip": "ym2612"
    },
    {
      "channel": 2,
      "note": 84,
      "start": 16.9397,
      "duration": 0.4212,
      "velocity": 109,
      "chip": "ym2612"
    },
    {
      "channel": 4,
      "note": 82,
      "start": 16.9572,
      "duration": 0.105,
      "velocity": 94,
      "chip": "ym2612"
    },
    {
      "channel": 3,
      "note": 84,
      "start": 16.9748,
      "duration": 0.105,
      "velocity": 94,
      "chip": "ym2612"
    },
    {
      "channel": 4,
      "note": 84,
      "start": 17.0626,
      "duration": 0.105,
      "velocity": 94,
      "chip": "ym2612"
    },
    {
      "channel": 3,
      "note": 82,
      "start": 17.0802,
      "duration": 0.2104,
      "velocity": 94,
      "chip": "ym2612"
    },
    {
      "channel": 5,
      "note": 63,
      "start": 17.0807,
      "duration": 0.1747,
      "velocity": 90,
      "chip": "ym2612"
    },
    {
      "channel": 4,
      "note": 82,
      "start": 17.168,
      "duration": 0.2104,
      "velocity": 94,
      "chip": "ym2612"
    },
    {
      "channel": 0,
      "note": 82,
      "start": 17.291,
      "duration": 0.1928,
      "velocity": 109,
      "chip": "ym2612"
    },
    {
      "channel": 3,
      "note": 80,
      "start": 17.2915,
      "duration": 0.4207,
      "velocity": 94,
      "chip": "ym2612"
    },
    {
      "channel": 5,
      "note": 68,
      "start": 17.292,
      "duration": 0.1743,
      "velocity": 90,
      "chip": "ym2612"
    },
    {
      "channel": 1,
      "note": 82,
      "start": 17.2997,
      "duration": 0.1929,
      "velocity": 109,
      "chip": "ym2612"
    },
    {
      "channel": 2,
      "note": 82,
      "start": 17.3613,
      "duration": 0.2103,
      "velocity": 109,
      "chip": "ym2612"
    },
    {
      "channel": 4,
      "note": 80,
      "start": 17.3788,
      "duration": 0.4212,
      "velocity": 94,
      "chip": "ym2612"
    },
    {
      "channel": 0,
      "note": 80,
      "start": 17.5017,
      "duration": 0.1929,
      "velocity": 109,
      "chip": "ym2612"
    },
    {
      "channel": 5,
      "note": 72,
      "start": 17.5022,
      "duration": 0.1748,
      "velocity": 90,
      "chip": "ym2612"
    },
    {
      "channel": 1,
      "note": 80,
      "start": 17.5105,
      "duration": 0.1929,
      "velocity": 109,
      "chip": "ym2612"
    },
    {
      "channel": 2,
      "note": 80,
      "start": 17.5721,
      "duration": 0.2103,
      "velocity": 109,
      "chip": "ym2612"
    },
    {
      "channel": 0,
      "note": 82,
      "start": 17.7127,
      "duration": 0.5968,
      "velocity": 109,
      "chip": "ym2612"
    },
    {
      "channel": 3,
      "note": 79,
      "start": 17.7131,
      "duration": 0.2099,
      "velocity": 94,
      "chip": "ym2612"
    },
    {
      "channel": 5,
      "note": 58,
      "start": 17.7136,
      "duration": 0.1743,
      "velocity": 90,
      "chip": "ym2612"
    },
    {
      "channel": 1,
      "note": 82,
      "start": 17.7214,
      "duration": 0.5969,
      "velocity": 109,
      "chip": "ym2612"
    },
    {
      "channel": 2,
      "note": 82,
      "start": 17.7829,
      "duration": 0.632,
      "velocity": 109,
      "chip": "ym2612"
    },
    {
      "channel": 4,
      "note": 79,
      "start": 17.8006,
      "duration": 0.2102,
      "velocity": 94,
      "chip": "ym2612"
    },
    {
      "channel": 3,
      "note": 77,
      "start": 17.9234,
      "duration": 0.2104,
      "velocity": 94,
      "chip": "ym2612"
    },
    {
      "channel": 5,
      "note": 65,
      "start": 17.9242,
      "duration": 0.1745,
      "velocity": 90,
      "chip": "ym2612"
    },
    {
      "channel": 4,
      "note": 77,
      "start": 18.0113,
      "duration": 0.2104,
      "velocity": 94,
      "chip": "ym2612"
    },
    {
      "channel": 3,
      "note": 82,
      "start": 18.1345,
      "duration": 0.1047,
      "velocity": 94,
      "chip": "ym2612"
    },
    {
      "channel": 5,
      "note": 73,
      "start": 18.135,
      "duration": 0.1746,
      "velocity": 90,
      "chip": "ym2612"
    },
    {
      "channel": 4,
      "note": 82,
      "start": 18.2221,
      "duration": 0.105,
      "velocity": 94,
      "chip": "ym2612"
    },
    {
      "channel": 3,
      "note": 84,
      "start": 18.2396,
      "duration": 0.1051,
      "velocity": 94,
      "chip": "ym2612"
    },
    {
      "channel": 4,
      "note": 84,
      "start": 18.3275,
      "duration": 0.105,
      "velocity": 94,
      "chip": "ym2612"
    },
    {
      "channel": 0,
      "note": 85,
      "start": 18.3452,
      "duration": 0.0873,
      "velocity": 109,
      "chip": "ym2612"
    },
    {
      "channel": 3,
      "note": 82,
      "start": 18.3457,
      "duration": 0.2098,
      "velocity": 94,
      "chip": "ym2612"
    },
    {
      "channel": 5,
      "note": 63,
      "start": 18.3461,
      "duration": 0.1742,
      "velocity": 90,
      "chip": "ym2612"
    },
    {
      "channel": 1,
      "note": 85,
      "start": 18.3538,
      "duration": 0.0875,
      "velocity": 109,
      "chip": "ym2612"
    },
    {
      "channel": 2,
      "note": 85,
      "start": 18.4155,
      "duration": 0.421,
      "velocity": 109,
      "chip": "ym2612"
    },
    {
      "channel": 4,
      "note": 82,
      "start": 18.433,
      "duration": 0.2103,
      "velocity": 94,
      "chip": "ym2612"
    },
    {
      "channel": 3,
      "note": 80,
      "start": 18.5559,
      "duration": 0.4212,
      "velocity": 94,
      "chip": "ym2612"
    },
    {
      "channel": 5,
      "note": 68,
      "start": 18.5565,
      "duration": 0.1746,
      "velocity": 90,
      "chip": "ym2612"
    },
    {
      "channel": 4,
      "note": 80,
      "start": 18.6437,
      "duration": 0.4212,
      "velocity": 94,
      "chip": "ym2612"
    },
    {
      "channel": 0,
      "note": 85,
      "start": 18.7666,
      "duration": 0.105,
      "velocity": 109,
      "chip": "ym2612"
    },
    {
      "channel": 5,
      "note": 72,
      "start": 18.7671,
      "duration": 0.1748,
      "velocity": 90,
      "chip": "ym2612"
    },
    {
      "channel": 1,
      "note": 85,
      "start": 18.7754,
      "duration": 0.105,
      "velocity": 109,
      "chip": "ym2612"
    },
    {
      "channel": 2,
      "note": 85,
      "start": 18.837,
      "duration": 0.2103,
      "velocity": 109,
      "chip": "ym2612"
    },
    {
      "channel": 0,
      "note": 85,
      "start": 18.9776,
      "duration": 0.1928,
      "velocity": 109,
      "chip": "ym2612"
    },
    {
      "channel": 3,
      "note": 79,
      "start": 18.978,
      "duration": 0.2099,
      "velocity": 94,
      "chip": "ym2612"
    },
    {
      "channel": 5,
      "note": 58,
      "start": 18.9785,
      "duration": 0.1743,
      "velocity": 90,
      "chip": "ym2612"
    },
    {
      "channel": 1,
      "note": 85,
      "start": 18.9863,
      "duration": 0.1929,
      "velocity": 109,
      "chip": "ym2612"
    },
    {
      "channel": 2,
      "note": 85,
      "start": 19.0478,
      "duration": 0.2103,
      "velocity": 109,
      "chip": "ym2612"
    },
    {
      "channel": 4,
      "note": 79,
      "start": 19.0654,
      "duration": 0.2104,
      "velocity": 94,
      "chip": "ym2612"
    },
    {
      "channel": 0,
      "note": 87,
      "start": 19.1884,
      "duration": 0.1928,
      "velocity": 109,
      "chip": "ym2612"
    },
    {
      "channel": 3,
      "note": 77,
      "start": 19.1888,
      "duration": 0.2099,
      "velocity": 94,
      "chip": "ym2612"
    },
    {
      "channel": 5,
      "note": 65,
      "start": 19.1893,
      "duration": 0.1743,
      "velocity": 90,
      "chip": "ym2612"
    },
    {
      "channel": 1,
      "note": 87,
      "start": 19.1971,
      "duration": 0.1929,
      "velocity": 109,
      "chip": "ym2612"
    },
    {
      "channel": 2,
      "note": 87,
      "start": 19.2586,
      "duration": 0.2103,
      "velocity": 109,
      "chip": "ym2612"
    },
    {
      "channel": 4,
      "note": 77,
      "start": 19.2762,
      "duration": 0.2104,
      "velocity": 94,
      "chip": "ym2612"
    },
    {
      "channel": 0,
      "note": 84,
      "start": 19.3992,
      "duration": 0.3158,
      "velocity": 109,
      "chip": "ym2612"
    },
    {
      "channel": 3,
      "note": 75,
      "start": 19.3996,
      "duration": 0.4207,
      "velocity": 94,
      "chip": "ym2612"
    },
    {
      "channel": 5,
      "note": 73,
      "start": 19.4001,
      "duration": 0.1743,
      "velocity": 90,
      "chip": "ym2612"
    },
    {
      "channel": 1,
      "note": 84,
      "start": 19.4079,
      "duration": 0.3159,
      "velocity": 109,
      "chip": "ym2612"
    },
    {
      "channel": 2,
      "note": 84,
      "start": 19.4695,
      "duration": 0.4212,
      "velocity": 109,
      "chip": "ym2612"
    },
    {
      "channel": 4,
      "note": 75,
      "start": 19.487,
      "duration": 0.4212,
      "velocity": 94,
      "chip": "ym2612"
    },
    {
      "channel": 5,
      "note": 63,
      "start": 19.6099,
      "duration": 0.1753,
      "velocity": 90,
      "chip": "ym2612"
    },
    {
      "channel": 0,
      "note": 82,
      "start": 19.8208,
      "duration": 0.1928,
      "velocity": 109,
      "chip": "ym2612"
    },
    {
      "channel": 3,
      "note": 79,
      "start": 19.8213,
      "duration": 0.4207,
      "velocity": 94,
      "chip": "ym2612"
    },
    {
      "channel": 5,
      "note": 68,
      "start": 19.8218,
      "duration": 0.1743,
      "velocity": 90,
      "chip": "ym2612"
    },
    {
      "channel": 1,
      "note": 82,
      "start": 19.8295,
      "duration": 0.1929,
      "velocity": 109,
      "chip": "ym2612"
    },
    {
      "channel": 2,
      "note": 82,
      "start": 19.8911,
      "duration": 0.2103,
      "velocity": 109,
      "chip": "ym2612"
    },
    {
      "channel": 4,
      "note": 79,
      "start": 19.9086,
      "duration": 0.4212,
      "velocity": 94,
      "chip": "ym2612"
    },
    {
      "channel": 0,
      "note": 80,
      "start": 20.0315,
      "duration": 0.1929,
      "velocity": 109,
      "chip": "ym2612"
    },
    {
      "channel": 5,
      "note": 72,
      "start": 20.032,
      "duration": 0.1748,
      "velocity": 90,
      "chip": "ym2612"
    },
    {
      "channel": 1,
      "note": 80,
      "start": 20.0403,
      "duration": 0.1929,
      "velocity": 109,
      "chip": "ym2612"
    },
    {
      "channel": 2,
      "note": 80,
      "start": 20.1019,
      "duration": 0.2103,
      "velocity": 109,
      "chip": "ym2612"
    },
    {
      "channel": 0,
      "note": 82,
      "start": 20.2424,
      "duration": 0.6495,
      "velocity": 109,
      "chip": "ym2612"
    },
    {
      "channel": 3,
      "note": 77,
      "start": 20.2429,
      "duration": 4.8478,
      "velocity": 94,
      "chip": "ym2612"
    },
    {
      "channel": 5,
      "note": 58,
      "start": 20.2434,
      "duration": 0.1743,
      "velocity": 90,
      "chip": "ym2612"
    },
    {
      "channel": 1,
      "note": 82,
      "start": 20.2511,
      "duration": 0.6497,
      "velocity": 109,
      "chip": "ym2612"
    },
    {
      "channel": 2,
      "note": 82,
      "start": 20.3127,
      "duration": 0.632,
      "velocity": 109,
      "chip": "ym2612"
    },
    {
      "channel": 4,
      "note": 77,
      "start": 20.3304,
      "duration": 4.8482,
      "velocity": 94,
      "chip": "ym2612"
    },
    {
      "channel": 5,
      "note": 65,
      "start": 20.4532,
      "duration": 0.1753,
      "velocity": 90,
      "chip": "ym2612"
    },
    {
      "channel": 5,
      "note": 73,
      "start": 20.6642,
      "duration": 0.1751,
      "velocity": 90,
      "chip": "ym2612"
    },
    {
      "channel": 5,
      "note": 63,
      "start": 20.8749,
      "duration": 0.1752,
      "velocity": 90,
      "chip": "ym2612"
    },
    {
      "channel": 0,
      "note": 85,
      "start": 20.9012,
      "duration": 0.0874,
      "velocity": 109,
      "chip": "ym2612"
    },
    {
      "channel": 1,
      "note": 85,
      "start": 20.91,
      "duration": 0.0875,
      "velocity": 109,
      "chip": "ym2612"
    },
    {
      "channel": 2,
      "note": 85,
      "start": 20.9453,
      "duration": 0.421,
      "velocity": 109,
      "chip": "ym2612"
    },
    {
      "channel": 5,
      "note": 68,
      "start": 21.0856,
      "duration": 0.1753,
      "velocity": 90,
      "chip": "ym2612"
    },
    {
      "channel": 0,
      "note": 85,
      "start": 21.2964,
      "duration": 0.0875,
      "velocity": 109,
      "chip": "ym2612"
    },
    {
      "channel": 5,
      "note": 72,
      "start": 21.2969,
      "duration": 0.1748,
      "velocity": 90,
      "chip": "ym2612"
    },
    {
      "channel": 1,
      "note": 85,
      "start": 21.3052,
      "duration": 0.0875,
      "velocity": 109,
      "chip": "ym2612"
    },
    {
      "channel": 2,
      "note": 85,
      "start": 21.3668,
      "duration": 0.2103,
      "velocity": 109,
      "chip": "ym2612"
    },
    {
      "channel": 0,
      "note": 85,
      "start": 21.5073,
      "duration": 0.1929,
      "velocity": 109,
      "chip": "ym2612"
    },
    {
      "channel": 5,
      "note": 58,
      "start": 21.5077,
      "duration": 0.1748,
      "velocity": 90,
      "chip": "ym2612"
    },
    {
      "channel": 1,
      "note": 85,
      "start": 21.516,
      "duration": 0.1929,
      "velocity": 109,
      "chip": "ym2612"
    },
    {
      "channel": 2,
      "note": 85,
      "start": 21.5776,
      "duration": 0.2103,
      "velocity": 109,
      "chip": "ym2612"
    },
    {
      "channel": 0,
      "note": 87,
      "start": 21.7181,
      "duration": 0.1929,
      "velocity": 109,
      "chip": "ym2612"
    },
    {
      "channel": 5,
      "note": 65,
      "start": 21.7185,
      "duration": 0.1748,
      "velocity": 90,
      "chip": "ym2612"
    },
    {
      "channel": 1,
      "note": 87,
      "start": 21.7268,
      "duration": 0.1929,
      "velocity": 109,
      "chip": "ym2612"
    },
    {
      "channel": 2,
      "note": 87,
      "start": 21.7884,
      "duration": 0.2104,
      "velocity": 109,
      "chip": "ym2612"
    },
    {
      "channel": 0,
      "note": 84,
      "start": 21.9289,
      "duration": 0.3159,
      "velocity": 109,
      "chip": "ym2612"
    },
    {
      "channel": 5,
      "note": 73,
      "start": 21.9294,
      "duration": 0.1751,
      "velocity": 90,
      "chip": "ym2612"
    },
    {
      "channel": 1,
      "note": 84,
      "start": 21.9377,
      "duration": 0.3159,
      "velocity": 109,
      "chip": "ym2612"
    },
    {
      "channel": 2,
      "note": 84,
      "start": 21.9993,
      "duration": 0.4211,
      "velocity": 109,
      "chip": "ym2612"
    },
    {
      "channel": 5,
      "note": 63,
      "start": 22.1397,
      "duration": 0.1753,
      "velocity": 90,
      "chip": "ym2612"
    },
    {
      "channel": 0,
      "note": 82,
      "start": 22.3505,
      "duration": 0.1929,
      "velocity": 109,
      "chip": "ym2612"
    },
    {
      "channel": 5,
      "note": 68,
      "start": 22.351,
      "duration": 0.1748,
      "velocity": 90,
      "chip": "ym2612"
    },
    {
      "channel": 1,
      "note": 82,
      "start": 22.3593,
      "duration": 0.1929,
      "velocity": 109,
      "chip": "ym2612"
    },
    {
      "channel": 2,
      "note": 82,
      "start": 22.4209,
      "duration": 0.2103,
      "velocity": 109,
      "chip": "ym2612"
    },
    {
      "channel": 0,
      "note": 80,
      "start": 22.5613,
      "duration": 0.193,
      "velocity": 109,
      "chip": "ym2612"
    },
    {
      "channel": 5,
      "note": 72,
      "start": 22.5618,
      "duration": 0.1748,
      "velocity": 90,
      "chip": "ym2612"
    },
    {
      "channel": 1,
      "note": 80,
      "start": 22.5701,
      "duration": 0.1929,
      "velocity": 109,
      "chip": "ym2612"
    },
    {
      "channel": 2,
      "note": 80,
      "start": 22.6317,
      "duration": 0.2103,
      "velocity": 109,
      "chip": "ym2612"
    },
    {
      "channel": 0,
      "note": 82,
      "start": 22.7722,
      "duration": 0.5969,
      "velocity": 109,
      "chip": "ym2612"
    },
    {
      "channel": 5,
      "note": 58,
      "start": 22.7726,
      "duration": 0.1748,
      "velocity": 90,
      "chip": "ym2612"
    },
    {
      "channel": 1,
      "note": 82,
      "start": 22.7809,
      "duration": 0.5969,
      "velocity": 109,
      "chip": "ym2612"
    },
    {
      "channel": 2,
      "note": 82,
      "start": 22.8425,
      "duration": 0.632,
      "velocity": 109,
      "chip": "ym2612"
    },
    {
      "channel": 5,
      "note": 65,
      "start": 22.983,
      "duration": 0.1753,
      "velocity": 90,
      "chip": "ym2612"
    },
    {
      "channel": 5,
      "note": 73,
      "start": 23.1943,
      "duration": 0.1749,
      "velocity": 90,
      "chip": "ym2612"
    },
    {
      "channel": 0,
      "note": 85,
      "start": 23.4049,
      "duration": 0.0872,
      "velocity": 109,
      "chip": "ym2612"
    },
    {
      "channel": 5,
      "note": 63,
      "start": 23.4054,
      "duration": 0.1746,
      "velocity": 90,
      "chip": "ym2612"
    },
    {
      "channel": 1,
      "note": 85,
      "start": 23.4134,
      "duration": 0.0875,
      "velocity": 109,
      "chip": "ym2612"
    },
    {
      "channel": 2,
      "note": 85,
      "start": 23.475,
      "duration": 0.4212,
      "velocity": 109,
      "chip": "ym2612"
    },
    {
      "channel": 5,
      "note": 68,
      "start": 23.6154,
      "duration": 0.1753,
      "velocity": 90,
      "chip": "ym2612"
    },
    {
      "channel": 0,
      "note": 85,
      "start": 23.8262,
      "duration": 0.0787,
      "velocity": 109,
      "chip": "ym2612"
    },
    {
      "channel": 5,
      "note": 72,
      "start": 23.8267,
      "duration": 0.1748,
      "velocity": 90,
      "chip": "ym2612"
    },
    {
      "channel": 1,
      "note": 85,
      "start": 23.835,
      "duration": 0.0787,
      "velocity": 109,
      "chip": "ym2612"
    },
    {
      "channel": 2,
      "note": 85,
      "start": 23.8966,
      "duration": 0.2103,
      "velocity": 109,
      "chip": "ym2612"
    },
    {
      "channel": 0,
      "note": 85,
      "start": 24.0371,
      "duration": 0.1929,
      "velocity": 109,
      "chip": "ym2612"
    },
    {
      "channel": 5,
      "note": 58,
      "start": 24.0375,
      "duration": 0.1748,
      "velocity": 90,
      "chip": "ym2612"
    },
    {
      "channel": 1,
      "note": 85,
      "start": 24.0458,
      "duration": 0.1929,
      "velocity": 109,
      "chip": "ym2612"
    },
    {
      "channel": 2,
      "note": 85,
      "start": 24.1074,
      "duration": 0.2103,
      "velocity": 109,
      "chip": "ym2612"
    },
    {
      "channel": 0,
      "note": 87,
      "start": 24.2479,
      "duration": 0.1929,
      "velocity": 109,
      "chip": "ym2612"
    },
    {
      "channel": 5,
      "note": 65,
      "start": 24.2483,
      "duration": 0.1751,
      "velocity": 90,
      "chip": "ym2612"
    },
    {
      "channel": 1,
      "note": 87,
      "start": 24.2566,
      "duration": 0.1929,
      "velocity": 109,
      "chip": "ym2612"
    },
    {
      "channel": 2,
      "note": 87,
      "start": 24.3182,
      "duration": 0.2103,
      "velocity": 109,
      "chip": "ym2612"
    },
    {
      "channel": 0,
      "note": 84,
      "start": 24.4587,
      "duration": 0.3158,
      "velocity": 109,
      "chip": "ym2612"
    },
    {
      "channel": 5,
      "note": 73,
      "start": 24.4592,
      "duration": 0.1751,
      "velocity": 90,
      "chip": "ym2612"
    },
    {
      "channel": 1,
      "note": 84,
      "start": 24.4675,
      "duration": 0.3159,
      "velocity": 109,
      "chip": "ym2612"
    },
    {
      "channel": 2,
      "note": 84,
      "start": 24.529,
      "duration": 0.4212,
      "velocity": 109,
      "chip": "ym2612"
    },
    {
      "channel": 5,
      "note": 63,
      "start": 24.6695,
      "duration": 0.1753,
      "velocity": 90,
      "chip": "ym2612"
    },
    {
      "channel": 0,
      "note": 82,
      "start": 24.8803,
      "duration": 0.1929,
      "velocity": 109,
      "chip": "ym2612"
    },
    {
      "channel": 5,
      "note": 68,
      "start": 24.8808,
      "duration": 0.1748,
      "velocity": 90,
      "chip": "ym2612"
    },
    {
      "channel": 1,
      "note": 82,
      "start": 24.8891,
      "duration": 0.1929,
      "velocity": 109,
      "chip": "ym2612"
    },
    {
      "channel": 2,
      "note": 82,
      "start": 24.9507,
      "duration": 0.2103,
      "velocity": 109,
      "chip": "ym2612"
    },
    {
      "channel": 0,
      "note": 80,
      "start": 25.0912,
      "duration": 0.193,
      "velocity": 109,
      "chip": "ym2612"
    },
    {
      "channel": 5,
      "note": 72,
      "start": 25.0917,
      "duration": 0.1747,
      "velocity": 90,
      "chip": "ym2612"
    },
    {
      "channel": 1,
      "note": 80,
      "start": 25.0999,
      "duration": 0.1929,
      "velocity": 109,
      "chip": "ym2612"
    },
    {
      "channel": 2,
      "note": 80,
      "start": 25.1615,
      "duration": 0.2103,
      "velocity": 109,
      "chip": "ym2612"
    },
    {
      "channel": 0,
      "note": 82,
      "start": 25.3019,
      "duration": 0.6496,
      "velocity": 109,
      "chip": "ym2612"
    },
    {
      "channel": 3,
      "note": 70,
      "start": 25.3024,
      "duration": 0.6141,
      "velocity": 94,
      "chip": "ym2612"
    },
    {
      "channel": 5,
      "note": 51,
      "start": 25.3029,
      "duration": 0.1744,
      "velocity": 90,
      "chip": "ym2612"
    },
    {
      "channel": 1,
      "note": 82,
      "start": 25.3108,
      "duration": 0.6495,
      "velocity": 109,
      "chip": "ym2612"
    },
    {
      "channel": 2,
      "note": 82,
      "start": 25.3723,
      "duration": 0.6321,
      "velocity": 109,
      "chip": "ym2612"
    },
    {
      "channel": 4,
      "note": 70,
      "start": 25.3898,
      "duration": 0.6147,
      "velocity": 94,
      "chip": "ym2612"
    },
    {
      "channel": 5,
      "note": 58,
      "start": 25.5128,
      "duration": 0.1753,
      "velocity": 90,
      "chip": "ym2612"
    },
    {
      "channel": 5,
      "note": 73,
      "start": 25.7237,
      "duration": 0.1752,
      "velocity": 90,
      "chip": "ym2612"
    },
    {
      "channel": 3,
      "note": 75,
      "start": 25.9169,
      "duration": 0.4388,
      "velocity": 94,
      "chip": "ym2612"
    },
    {
      "channel": 5,
      "note": 63,
      "start": 25.9347,
      "duration": 0.1749,
      "velocity": 90,
      "chip": "ym2612"
    },
    {
      "channel": 0,
      "note": 85,
      "start": 25.9608,
      "duration": 0.0874,
      "velocity": 109,
      "chip": "ym2612"
    },
    {
      "channel": 1,
      "note": 85,
      "start": 25.9695,
      "duration": 0.0875,
      "velocity": 109,
      "chip": "ym2612"
    },
    {
      "channel": 2,
      "note": 85,
      "start": 26.0049,
      "duration": 0.4211,
      "velocity": 109,
      "chip": "ym2612"
    },
    {
      "channel": 4,
      "note": 75,
      "start": 26.0055,
      "duration": 0.438,
      "velocity": 94,
      "chip": "ym2612"
    },
    {
      "channel": 5,
      "note": 68,
      "start": 26.1452,
      "duration": 0.1753,
      "velocity": 90,
      "chip": "ym2612"
    },
    {
      "channel": 0,
      "note": 85,
      "start": 26.3561,
      "duration": 0.0698,
      "velocity": 109,
      "chip": "ym2612"
    },
    {
      "channel": 3,
      "note": 75,
      "start": 26.3566,
      "duration": 0.2099,
      "velocity": 94,
      "chip": "ym2612"
    },
    {
      "channel": 5,
      "note": 72,
      "start": 26.3571,
      "duration": 0.1743,
      "velocity": 90,
      "chip": "ym2612"
    },
    {
      "channel": 1,
      "note": 85,
      "start": 26.3648,
      "duration": 0.0699,
      "velocity": 109,
      "chip": "ym2612"
    },
    {
      "channel": 2,
      "note": 85,
      "start": 26.4265,
      "duration": 0.2102,
      "velocity": 109,
      "chip": "ym2612"
    },
    {
      "channel": 4,
      "note": 75,
      "start": 26.4439,
      "duration": 0.2105,
      "velocity": 94,
      "chip": "ym2612"
    },
    {
      "channel": 0,
      "note": 85,
      "start": 26.5669,
      "duration": 0.1928,
      "velocity": 109,
      "chip": "ym2612"
    },
    {
      "channel": 3,
      "note": 75,
      "start": 26.5674,
      "duration": 0.2099,
      "velocity": 94,
      "chip": "ym2612"
    },
    {
      "channel": 5,
      "note": 51,
      "start": 26.5679,
      "duration": 0.1743,
      "velocity": 90,
      "chip": "ym2612"
    },
    {
      "channel": 1,
      "note": 85,
      "start": 26.5756,
      "duration": 0.1929,
      "velocity": 109,
      "chip": "ym2612"
    },
    {
      "channel": 2,
      "note": 85,
      "start": 26.6372,
      "duration": 0.2103,
      "velocity": 109,
      "chip": "ym2612"
    },
    {
      "channel": 4,
      "note": 75,
      "start": 26.6548,
      "duration": 0.2103,
      "velocity": 94,
      "chip": "ym2612"
    },
    {
      "channel": 0,
      "note": 87,
      "start": 26.7778,
      "duration": 0.1928,
      "velocity": 109,
      "chip": "ym2612"
    },
    {
      "channel": 3,
      "note": 77,
      "start": 26.7782,
      "duration": 0.2099,
      "velocity": 94,
      "chip": "ym2612"
    },
    {
      "channel": 5,
      "note": 58,
      "start": 26.7787,
      "duration": 0.1744,
      "velocity": 90,
      "chip": "ym2612"
    },
    {
      "channel": 1,
      "note": 87,
      "start": 26.7864,
      "duration": 0.1929,
      "velocity": 109,
      "chip": "ym2612"
    },
    {
      "channel": 2,
      "note": 87,
      "start": 26.848,
      "duration": 0.2103,
      "velocity": 109,
      "chip": "ym2612"
    },
    {
      "channel": 4,
      "note": 77,
      "start": 26.8656,
      "duration": 0.2104,
      "velocity": 94,
      "chip": "ym2612"
    },
    {
      "channel": 0,
      "note": 84,
      "start": 26.9886,
      "duration": 0.3158,
      "velocity": 109,
      "chip": "ym2612"
    },
    {
      "channel": 3,
      "note": 72,
      "start": 26.989,
      "duration": 0.1045,
      "velocity": 94,
      "chip": "ym2612"
    },
    {
      "channel": 5,
      "note": 73,
      "start": 26.9895,
      "duration": 0.1743,
      "velocity": 90,
      "chip": "ym2612"
    },
    {
      "channel": 1,
      "note": 84,
      "start": 26.9973,
      "duration": 0.3159,
      "velocity": 109,
      "chip": "ym2612"
    },
    {
      "channel": 2,
      "note": 84,
      "start": 27.0588,
      "duration": 0.4212,
      "velocity": 109,
      "chip": "ym2612"
    },
    {
      "channel": 4,
      "note": 72,
      "start": 27.0764,
      "duration": 0.105,
      "velocity": 94,
      "chip": "ym2612"
    },
    {
      "channel": 3,
      "note": 74,
      "start": 27.0943,
      "duration": 0.1046,
      "velocity": 94,
      "chip": "ym2612"
    },
    {
      "channel": 4,
      "note": 74,
      "start": 27.1817,
      "duration": 0.105,
      "velocity": 94,
      "chip": "ym2612"
    },
    {
      "channel": 3,
      "note": 72,
      "start": 27.1994,
      "duration": 0.2104,
      "velocity": 94,
      "chip": "ym2612"
    },
    {
      "channel": 5,
      "note": 63,
      "start": 27.1998,
      "duration": 0.1747,
      "velocity": 90,
      "chip": "ym2612"
    },
    {
      "channel": 4,
      "note": 72,
      "start": 27.2872,
      "duration": 0.2106,
      "velocity": 94,
      "chip": "ym2612"
    },
    {
      "channel": 0,
      "note": 82,
      "start": 27.4102,
      "duration": 0.1928,
      "velocity": 109,
      "chip": "ym2612"
    },
    {
      "channel": 3,
      "note": 70,
      "start": 27.4107,
      "duration": 0.2099,
      "velocity": 94,
      "chip": "ym2612"
    },
    {
      "channel": 5,
      "note": 68,
      "start": 27.4111,
      "duration": 0.1743,
      "velocity": 90,
      "chip": "ym2612"
    },
    {
      "channel": 1,
      "note": 82,
      "start": 27.4189,
      "duration": 0.1929,
      "velocity": 109,
      "chip": "ym2612"
    },
    {
      "channel": 2,
      "note": 82,
      "start": 27.4805,
      "duration": 0.2103,
      "velocity": 109,
      "chip": "ym2612"
    },
    {
      "channel": 4,
      "note": 70,
      "start": 27.4983,
      "duration": 0.2101,
      "velocity": 94,
      "chip": "ym2612"
    },
    {
      "channel": 0,
      "note": 80,
      "start": 27.621,
      "duration": 0.1928,
      "velocity": 109,
      "chip": "ym2612"
    },
    {
      "channel": 3,
      "note": 68,
      "start": 27.6215,
      "duration": 0.2099,
      "velocity": 94,
      "chip": "ym2612"
    },
    {
      "channel": 5,
      "note": 72,
      "start": 27.622,
      "duration": 0.1743,
      "velocity": 90,
      "chip": "ym2612"
    },
    {
      "channel": 1,
      "note": 80,
      "start": 27.6297,
      "duration": 0.1929,
      "velocity": 109,
      "chip": "ym2612"
    },
    {
      "channel": 2,
      "note": 80,
      "start": 27.6913,
      "duration": 0.2103,
      "velocity": 109,
      "chip": "ym2612"
    },
    {
      "channel": 4,
      "note": 68,
      "start": 27.7089,
      "duration": 0.2102,
      "velocity": 94,
      "chip": "ym2612"
    },
    {
      "channel": 0,
      "note": 82,
      "start": 27.8318,
      "duration": 0.5968,
      "velocity": 109,
      "chip": "ym2612"
    },
    {
      "channel": 3,
      "note": 70,
      "start": 27.8323,
      "duration": 0.6315,
      "velocity": 94,
      "chip": "ym2612"
    },
    {
      "channel": 5,
      "note": 51,
      "start": 27.8328,
      "duration": 0.1743,
      "velocity": 90,
      "chip": "ym2612"
    },
    {
      "channel": 1,
      "note": 82,
      "start": 27.8409,
      "duration": 0.5966,
      "velocity": 109,
      "chip": "ym2612"
    },
    {
      "channel": 2,
      "note": 82,
      "start": 27.9021,
      "duration": 0.6322,
      "velocity": 109,
      "chip": "ym2612"
    },
    {
      "channel": 4,
      "note": 70,
      "start": 27.9196,
      "duration": 0.632,
      "velocity": 94,
      "chip": "ym2612"
    },
    {
      "channel": 5,
      "note": 58,
      "start": 28.0426,
      "duration": 0.1753,
      "velocity": 90,
      "chip": "ym2612"
    },
    {
      "channel": 5,
      "note": 73,
      "start": 28.2535,
      "duration": 0.1753,
      "velocity": 90,
      "chip": "ym2612"
    },
    {
      "channel": 0,
      "note": 85,
      "start": 28.4645,
      "duration": 0.0959,
      "velocity": 109,
      "chip": "ym2612"
    },
    {
      "channel": 3,
      "note": 75,
      "start": 28.4651,
      "duration": 0.4204,
      "velocity": 94,
      "chip": "ym2612"
    },
    {
      "channel": 5,
      "note": 63,
      "start": 28.4656,
      "duration": 0.1739,
      "velocity": 90,
      "chip": "ym2612"
    },
    {
      "channel": 1,
      "note": 85,
      "start": 28.473,
      "duration": 0.0962,
      "velocity": 109,
      "chip": "ym2612"
    },
    {
      "channel": 2,
      "note": 85,
      "start": 28.5348,
      "duration": 0.4209,
      "velocity": 109,
      "chip": "ym2612"
    },
    {
      "channel": 4,
      "note": 75,
      "start": 28.5521,
      "duration": 0.4212,
      "velocity": 94,
      "chip": "ym2612"
    },
    {
      "channel": 5,
      "note": 68,
      "start": 28.675,
      "duration": 0.1753,
      "velocity": 90,
      "chip": "ym2612"
    },
    {
      "channel": 0,
      "note": 85,
      "start": 28.8859,
      "duration": 0.0962,
      "velocity": 109,
      "chip": "ym2612"
    },
    {
      "channel": 3,
      "note": 75,
      "start": 28.8864,
      "duration": 0.2099,
      "velocity": 94,
      "chip": "ym2612"
    },
    {
      "channel": 5,
      "note": 72,
      "start": 28.8868,
      "duration": 0.1743,
      "velocity": 90,
      "chip": "ym2612"
    },
    {
      "channel": 1,
      "note": 85,
      "start": 28.8948,
      "duration": 0.0961,
      "velocity": 109,
      "chip": "ym2612"
    },
    {
      "channel": 2,
      "note": 85,
      "start": 28.9562,
      "duration": 0.2103,
      "velocity": 109,
      "chip": "ym2612"
    },
    {
      "channel": 4,
      "note": 75,
      "start": 28.9737,
      "duration": 0.2106,
      "velocity": 94,
      "chip": "ym2612"
    },
    {
      "channel": 0,
      "note": 85,
      "start": 29.0967,
      "duration": 0.1928,
      "velocity": 109,
      "chip": "ym2612"
    },
    {
      "channel": 3,
      "note": 73,
      "start": 29.0972,
      "duration": 0.2099,
      "velocity": 94,
      "chip": "ym2612"
    },
    {
      "channel": 5,
      "note": 51,
      "start": 29.0977,
      "duration": 0.1743,
      "velocity": 90,
      "chip": "ym2612"
    },
    {
      "channel": 1,
      "note": 85,
      "start": 29.1054,
      "duration": 0.1929,
      "velocity": 109,
      "chip": "ym2612"
    },
    {
      "channel": 2,
      "note": 85,
      "start": 29.167,
      "duration": 0.2103,
      "velocity": 109,
      "chip": "ym2612"
    },
    {
      "channel": 4,
      "note": 73,
      "start": 29.1848,
      "duration": 0.2101,
      "velocity": 94,
      "chip": "ym2612"
    },
    {
      "channel": 0,
      "note": 87,
      "start": 29.3075,
      "duration": 0.0962,
      "velocity": 109,
      "chip": "ym2612"
    },
    {
      "channel": 3,
      "note": 75,
      "start": 29.308,
      "duration": 0.2099,
      "velocity": 94,
      "chip": "ym2612"
    },
    {
      "channel": 5,
      "note": 58,
      "start": 29.3085,
      "duration": 0.1743,
      "velocity": 90,
      "chip": "ym2612"
    },
    {
      "channel": 1,
      "note": 87,
      "start": 29.3162,
      "duration": 0.0968,
      "velocity": 109,
      "chip": "ym2612"
    },
    {
      "channel": 2,
      "note": 87,
      "start": 29.3778,
      "duration": 0.2103,
      "velocity": 109,
      "chip": "ym2612"
    },
    {
      "channel": 4,
      "note": 75,
      "start": 29.3954,
      "duration": 0.2104,
      "velocity": 94,
      "chip": "ym2612"
    },
    {
      "channel": 0,
      "note": 84,
      "start": 29.5183,
      "duration": 0.316,
      "velocity": 109,
      "chip": "ym2612"
    },
    {
      "channel": 3,
      "note": 77,
      "start": 29.5188,
      "duration": 0.2099,
      "velocity": 94,
      "chip": "ym2612"
    },
    {
      "channel": 5,
      "note": 73,
      "start": 29.5193,
      "duration": 0.1743,
      "velocity": 90,
      "chip": "ym2612"
    },
    {
      "channel": 1,
      "note": 84,
      "start": 29.5271,
      "duration": 0.3159,
      "velocity": 109,
      "chip": "ym2612"
    },
    {
      "channel": 2,
      "note": 84,
      "start": 29.5886,
      "duration": 0.4211,
      "velocity": 109,
      "chip": "ym2612"
    },
    {
      "channel": 4,
      "note": 77,
      "start": 29.6062,
      "duration": 0.2104,
      "velocity": 94,
      "chip": "ym2612"
    },
    {
      "channel": 3,
      "note": 80,
      "start": 29.7291,
      "duration": 0.2104,
      "velocity": 94,
      "chip": "ym2612"
    },
    {
      "channel": 5,
      "note": 63,
      "start": 29.7296,
      "duration": 0.1747,
      "velocity": 90,
      "chip": "ym2612"
    },
    {
      "channel": 4,
      "note": 80,
      "start": 29.817,
      "duration": 0.2109,
      "velocity": 94,
      "chip": "ym2612"
    },
    {
      "channel": 0,
      "note": 82,
      "start": 29.94,
      "duration": 0.1928,
      "velocity": 109,
      "chip": "ym2612"
    },
    {
      "channel": 3,
      "note": 72,
      "start": 29.9404,
      "duration": 0.1045,
      "velocity": 94,
      "chip": "ym2612"
    },
    {
      "channel": 5,
      "note": 68,
      "start": 29.9409,
      "duration": 0.1743,
      "velocity": 90,
      "chip": "ym2612"
    },
    {
      "channel": 1,
      "note": 82,
      "start": 29.9487,
      "duration": 0.1929,
      "velocity": 109,
      "chip": "ym2612"
    },
    {
      "channel": 2,
      "note": 82,
      "start": 30.0103,
      "duration": 0.2103,
      "velocity": 109,
      "chip": "ym2612"
    },
    {
      "channel": 4,
      "note": 72,
      "start": 30.0283,
      "duration": 0.1046,
      "velocity": 94,
      "chip": "ym2612"
    },
    {
      "channel": 3,
      "note": 74,
      "start": 30.0453,
      "duration": 0.105,
      "velocity": 94,
      "chip": "ym2612"
    },
    {
      "channel": 4,
      "note": 74,
      "start": 30.1333,
      "duration": 0.1049,
      "velocity": 94,
      "chip": "ym2612"
    },
    {
      "channel": 0,
      "note": 80,
      "start": 30.1508,
      "duration": 0.1929,
      "velocity": 109,
      "chip": "ym2612"
    },
    {
      "channel": 3,
      "note": 70,
      "start": 30.1513,
      "duration": 0.1045,
      "velocity": 94,
      "chip": "ym2612"
    },
    {
      "channel": 5,
      "note": 72,
      "start": 30.1517,
      "duration": 0.1743,
      "velocity": 90,
      "chip": "ym2612"
    },
    {
      "channel": 1,
      "note": 80,
      "start": 30.1595,
      "duration": 0.1929,
      "velocity": 109,
      "chip": "ym2612"
    },
    {
      "channel": 2,
      "note": 80,
      "start": 30.2211,
      "duration": 0.2103,
      "velocity": 109,
      "chip": "ym2612"
    },
    {
      "channel": 4,
      "note": 70,
      "start": 30.2386,
      "duration": 0.105,
      "velocity": 94,
      "chip": "ym2612"
    },
    {
      "channel": 3,
      "note": 68,
      "start": 30.2562,
      "duration": 0.105,
      "velocity": 94,
      "chip": "ym2612"
    },
    {
      "channel": 4,
      "note": 68,
      "start": 30.3444,
      "duration": 0.1046,
      "velocity": 94,
      "chip": "ym2612"
    },
    {
      "channel": 0,
      "note": 82,
      "start": 30.3616,
      "duration": 0.6495,
      "velocity": 109,
      "chip": "ym2612"
    },
    {
      "channel": 3,
      "note": 70,
      "start": 30.3621,
      "duration": 0.2099,
      "velocity": 94,
      "chip": "ym2612"
    },
    {
      "channel": 5,
      "note": 51,
      "start": 30.3626,
      "duration": 0.1743,
      "velocity": 90,
      "chip": "ym2612"
    },
    {
      "channel": 1,
      "note": 82,
      "start": 30.3704,
      "duration": 0.6495,
      "velocity": 109,
      "chip": "ym2612"
    },
    {
      "channel": 2,
      "note": 82,
      "start": 30.4319,
      "duration": 0.632,
      "velocity": 109,
      "chip": "ym2612"
    },
    {
      "channel": 4,
      "note": 70,
      "start": 30.4494,
      "duration": 0.2104,
      "velocity": 94,
      "chip": "ym2612"
    },
    {
      "channel": 3,
      "note": 75,
      "start": 30.5724,
      "duration": 0.2104,
      "velocity": 94,
      "chip": "ym2612"
    },
    {
      "channel": 5,
      "note": 58,
      "start": 30.5729,
      "duration": 0.1747,
      "velocity": 90,
      "chip": "ym2612"
    },
    {
      "channel": 4,
      "note": 75,
      "start": 30.6602,
      "duration": 0.2104,
      "velocity": 94,
      "chip": "ym2612"
    },
    {
      "channel": 3,
      "note": 75,
      "start": 30.7833,
      "duration": 0.2103,
      "velocity": 94,
      "chip": "ym2612"
    },
    {
      "channel": 5,
      "note": 73,
      "start": 30.7838,
      "duration": 0.1746,
      "velocity": 90,
      "chip": "ym2612"
    },
    {
      "channel": 4,
      "note": 75,
      "start": 30.8711,
      "duration": 0.2104,
      "velocity": 94,
      "chip": "ym2612"
    },
    {
      "channel": 3,
      "note": 77,
      "start": 30.9943,
      "duration": 0.2101,
      "velocity": 94,
      "chip": "ym2612"
    },
    {
      "channel": 5,
      "note": 63,
      "start": 30.9948,
      "duration": 0.1745,
      "velocity": 90,
      "chip": "ym2612"
    },
    {
      "channel": 0,
      "note": 85,
      "start": 31.0204,
      "duration": 0.0873,
      "velocity": 109,
      "chip": "ym2612"
    },
    {
      "channel": 1,
      "note": 85,
      "start": 31.0291,
      "duration": 0.0875,
      "velocity": 109,
      "chip": "ym2612"
    },
    {
      "channel": 2,
      "note": 85,
      "start": 31.0646,
      "duration": 0.4209,
      "velocity": 109,
      "chip": "ym2612"
    },
    {
      "channel": 4,
      "note": 77,
      "start": 31.0819,
      "duration": 0.2104,
      "velocity": 94,
      "chip": "ym2612"
    },
    {
      "channel": 3,
      "note": 80,
      "start": 31.2049,
      "duration": 0.2104,
      "velocity": 94,
      "chip": "ym2612"
    },
    {
      "channel": 5,
      "note": 68,
      "start": 31.2053,
      "duration": 0.1748,
      "velocity": 90,
      "chip": "ym2612"
    },
    {
      "channel": 4,
      "note": 80,
      "start": 31.2927,
      "duration": 0.2104,
      "velocity": 94,
      "chip": "ym2612"
    },
    {
      "channel": 0,
      "note": 85,
      "start": 31.4157,
      "duration": 0.0787,
      "velocity": 109,
      "chip": "ym2612"
    },
    {
      "channel": 3,
      "note": 82,
      "start": 31.4161,
      "duration": 0.2099,
      "velocity": 94,
      "chip": "ym2612"
    },
    {
      "channel": 5,
      "note": 72,
      "start": 31.4166,
      "duration": 0.1743,
      "velocity": 90,
      "chip": "ym2612"
    },
    {
      "channel": 1,
      "note": 85,
      "start": 31.4246,
      "duration": 0.0785,
      "velocity": 109,
      "chip": "ym2612"
    },
    {
      "channel": 2,
      "note": 85,
      "start": 31.486,
      "duration": 0.2103,
      "velocity": 109,
      "chip": "ym2612"
    },
    {
      "channel": 4,
      "note": 82,
      "start": 31.5036,
      "duration": 0.2103,
      "velocity": 94,
      "chip": "ym2612"
    },
    {
      "channel": 0,
      "note": 85,
      "start": 31.6265,
      "duration": 0.1928,
      "velocity": 109,
      "chip": "ym2612"
    },
    {
      "channel": 3,
      "note": 87,
      "start": 31.627,
      "duration": 0.4207,
      "velocity": 94,
      "chip": "ym2612"
    },
    {
      "channel": 5,
      "note": 51,
      "start": 31.6275,
      "duration": 0.1743,
      "velocity": 90,
      "chip": "ym2612"
    },
    {
      "channel": 1,
      "note": 85,
      "start": 31.6352,
      "duration": 0.1929,
      "velocity": 109,
      "chip": "ym2612"
    },
    {
      "channel": 2,
      "note": 85,
      "start": 31.6968,
      "duration": 0.2103,
      "velocity": 109,
      "chip": "ym2612"
    },
    {
      "channel": 4,
      "note": 87,
      "start": 31.7146,
      "duration": 0.4209,
      "velocity": 94,
      "chip": "ym2612"
    },
    {
      "channel": 0,
      "note": 87,
      "start": 31.8372,
      "duration": 0.1929,
      "velocity": 109,
      "chip": "ym2612"
    },
    {
      "channel": 5,
      "note": 58,
      "start": 31.8377,
      "duration": 0.1748,
      "velocity": 90,
      "chip": "ym2612"
    },
    {
      "channel": 1,
      "note": 87,
      "start": 31.846,
      "duration": 0.1929,
      "velocity": 109,
      "chip": "ym2612"
    },
    {
      "channel": 2,
      "note": 87,
      "start": 31.9076,
      "duration": 0.2103,
      "velocity": 109,
      "chip": "ym2612"
    },
    {
      "channel": 0,
      "note": 84,
      "start": 32.0481,
      "duration": 0.3158,
      "velocity": 109,
      "chip": "ym2612"
    },
    {
      "channel": 3,
      "note": 85,
      "start": 32.0486,
      "duration": 0.2099,
      "velocity": 94,
      "chip": "ym2612"
    },
    {
      "channel": 5,
      "note": 73,
      "start": 32.0491,
      "duration": 0.1743,
      "velocity": 90,
      "chip": "ym2612"
    },
    {
      "channel": 1,
      "note": 84,
      "start": 32.0568,
      "duration": 0.3159,
      "velocity": 109,
      "chip": "ym2612"
    },
    {
      "channel": 2,
      "note": 84,
      "start": 32.1184,
      "duration": 0.4211,
      "velocity": 109,
      "chip": "ym2612"
    },
    {
      "channel": 4,
      "note": 85,
      "start": 32.136,
      "duration": 0.2104,
      "velocity": 94,
      "chip": "ym2612"
    },
    {
      "channel": 3,
      "note": 84,
      "start": 32.2589,
      "duration": 0.2104,
      "velocity": 94,
      "chip": "ym2612"
    },
    {
      "channel": 5,
      "note": 63,
      "start": 32.2594,
      "duration": 0.1749,
      "velocity": 90,
      "chip": "ym2612"
    },
    {
      "channel": 4,
      "note": 84,
      "start": 32.3468,
      "duration": 0.2104,
      "velocity": 94,
      "chip": "ym2612"
    },
    {
      "channel": 0,
      "note": 82,
      "start": 32.4698,
      "duration": 0.1928,
      "velocity": 109,
      "chip": "ym2612"
    },
    {
      "channel": 3,
      "note": 85,
      "start": 32.4702,
      "duration": 0.4207,
      "velocity": 94,
      "chip": "ym2612"
    },
    {
      "channel": 5,
      "note": 68,
      "start": 32.4707,
      "duration": 0.1743,
      "velocity": 90,
      "chip": "ym2612"
    },
    {
      "channel": 1,
      "note": 82,
      "start": 32.4785,
      "duration": 0.1929,
      "velocity": 109,
      "chip": "ym2612"
    },
    {
      "channel": 2,
      "note": 82,
      "start": 32.5401,
      "duration": 0.2103,
      "velocity": 109,
      "chip": "ym2612"
    },
    {
      "channel": 4,
      "note": 85,
      "start": 32.5577,
      "duration": 0.4211,
      "velocity": 94,
      "chip": "ym2612"
    },
    {
      "channel": 0,
      "note": 80,
      "start": 32.6805,
      "duration": 0.1929,
      "velocity": 109,
      "chip": "ym2612"
    },
    {
      "channel": 5,
      "note": 72,
      "start": 32.681,
      "duration": 0.1748,
      "velocity": 90,
      "chip": "ym2612"
    },
    {
      "channel": 1,
      "note": 80,
      "start": 32.6894,
      "duration": 0.1928,
      "velocity": 109,
      "chip": "ym2612"
    },
    {
      "channel": 2,
      "note": 80,
      "start": 32.7509,
      "duration": 0.2103,
      "velocity": 109,
      "chip": "ym2612"
    },
    {
      "channel": 0,
      "note": 82,
      "start": 32.8914,
      "duration": 0.5968,
      "velocity": 109,
      "chip": "ym2612"
    },
    {
      "channel": 3,
      "note": 84,
      "start": 32.8919,
      "duration": 0.1045,
      "velocity": 94,
      "chip": "ym2612"
    },
    {
      "channel": 5,
      "note": 51,
      "start": 32.8924,
      "duration": 0.1743,
      "velocity": 90,
      "chip": "ym2612"
    },
    {
      "channel": 1,
      "note": 82,
      "start": 32.9002,
      "duration": 0.5968,
      "velocity": 109,
      "chip": "ym2612"
    },
    {
      "channel": 2,
      "note": 82,
      "start": 32.9617,
      "duration": 0.632,
      "velocity": 109,
      "chip": "ym2612"
    },
    {
      "channel": 4,
      "note": 84,
      "start": 32.9792,
      "duration": 0.1052,
      "velocity": 94,
      "chip": "ym2612"
    },
    {
      "channel": 3,
      "note": 85,
      "start": 32.9968,
      "duration": 0.1055,
      "velocity": 94,
      "chip": "ym2612"
    },
    {
      "channel": 4,
      "note": 85,
      "start": 33.0848,
      "duration": 0.1048,
      "velocity": 94,
      "chip": "ym2612"
    },
    {
      "channel": 3,
      "note": 82,
      "start": 33.1027,
      "duration": 0.2098,
      "velocity": 94,
      "chip": "ym2612"
    },
    {
      "channel": 5,
      "note": 58,
      "start": 33.1032,
      "duration": 0.1742,
      "velocity": 90,
      "chip": "ym2612"
    },
    {
      "channel": 4,
      "note": 82,
      "start": 33.19,
      "duration": 0.2104,
      "velocity": 94,
      "chip": "ym2612"
    },
    {
      "channel": 3,
      "note": 84,
      "start": 33.313,
      "duration": 0.4214,
      "velocity": 94,
      "chip": "ym2612"
    },
    {
      "channel": 5,
      "note": 73,
      "start": 33.3136,
      "duration": 0.1747,
      "velocity": 90,
      "chip": "ym2612"
    },
    {
      "channel": 4,
      "note": 84,
      "start": 33.4009,
      "duration": 0.4212,
      "velocity": 94,
      "chip": "ym2612"
    },
    {
      "channel": 0,
      "note": 85,
      "start": 33.5238,
      "duration": 0.0875,
      "velocity": 109,
      "chip": "ym2612"
    },
    {
      "channel": 5,
      "note": 63,
      "start": 33.5245,
      "duration": 0.1746,
      "velocity": 90,
      "chip": "ym2612"
    },
    {
      "channel": 1,
      "note": 85,
      "start": 33.5326,
      "duration": 0.0875,
      "velocity": 109,
      "chip": "ym2612"
    },
    {
      "channel": 2,
      "note": 85,
      "start": 33.5944,
      "duration": 0.4209,
      "velocity": 109,
      "chip": "ym2612"
    },
    {
      "channel": 3,
      "note": 82,
      "start": 33.7348,
      "duration": 0.0521,
      "velocity": 94,
      "chip": "ym2612"
    },
    {
      "channel": 5,
      "note": 68,
      "start": 33.7353,
      "duration": 0.1746,
      "velocity": 90,
      "chip": "ym2612"
    },
    {
      "channel": 3,
      "note": 84,
      "start": 33.7874,
      "duration": 0.0522,
      "velocity": 94,
      "chip": "ym2612"
    },
    {
      "channel": 4,
      "note": 82,
      "start": 33.8225,
      "duration": 0.0523,
      "velocity": 94,
      "chip": "ym2612"
    },
    {
      "channel": 3,
      "note": 82,
      "start": 33.84,
      "duration": 0.105,
      "velocity": 94,
      "chip": "ym2612"
    },
    {
      "channel": 4,
      "note": 84,
      "start": 33.8751,
      "duration": 0.0523,
      "velocity": 94,
      "chip": "ym2612"
    },
    {
      "channel": 4,
      "note": 82,
      "start": 33.9278,
      "duration": 0.105,
      "velocity": 94,
      "chip": "ym2612"
    },
    {
      "channel": 0,
      "note": 85,
      "start": 33.9455,
      "duration": 0.0788,
      "velocity": 109,
      "chip": "ym2612"
    },
    {
      "channel": 3,
      "note": 80,
      "start": 33.9459,
      "duration": 0.2099,
      "velocity": 94,
      "chip": "ym2612"
    },
    {
      "channel": 5,
      "note": 72,
      "start": 33.9464,
      "duration": 0.1743,
      "velocity": 90,
      "chip": "ym2612"
    },
    {
      "channel": 1,
      "note": 85,
      "start": 33.9544,
      "duration": 0.0785,
      "velocity": 109,
      "chip": "ym2612"
    },
    {
      "channel": 2,
      "note": 85,
      "start": 34.0158,
      "duration": 0.2103,
      "velocity": 109,
      "chip": "ym2612"
    },
    {
      "channel": 4,
      "note": 80,
      "start": 34.0334,
      "duration": 0.2103,
      "velocity": 94,
      "chip": "ym2612"
    },
    {
      "channel": 0,
      "note": 85,
      "start": 34.1563,
      "duration": 0.1928,
      "velocity": 109,
      "chip": "ym2612"
    },
    {
      "channel": 3,
      "note": 82,
      "start": 34.1568,
      "duration": 0.4207,
      "velocity": 94,
      "chip": "ym2612"
    },
    {
      "channel": 5,
      "note": 51,
      "start": 34.1572,
      "duration": 0.1748,
      "velocity": 90,
      "chip": "ym2612"
    },
    {
      "channel": 1,
      "note": 85,
      "start": 34.165,
      "duration": 0.1929,
      "velocity": 109,
      "chip": "ym2612"
    },
    {
      "channel": 2,
      "note": 85,
      "start": 34.2266,
      "duration": 0.2103,
      "velocity": 109,
      "chip": "ym2612"
    },
    {
      "channel": 4,
      "note": 82,
      "start": 34.2444,
      "duration": 0.4209,
      "velocity": 94,
      "chip": "ym2612"
    },
    {
      "channel": 0,
      "note": 87,
      "start": 34.367,
      "duration": 0.0962,
      "velocity": 109,
      "chip": "ym2612"
    },
    {
      "channel": 5,
      "note": 58,
      "start": 34.3675,
      "duration": 0.1748,
      "velocity": 90,
      "chip": "ym2612"
    },
    {
      "channel": 1,
      "note": 87,
      "start": 34.3758,
      "duration": 0.0963,
      "velocity": 109,
      "chip": "ym2612"
    },
    {
      "channel": 2,
      "note": 87,
      "start": 34.4374,
      "duration": 0.2103,
      "velocity": 109,
      "chip": "ym2612"
    },
    {
      "channel": 0,
      "note": 84,
      "start": 34.5779,
      "duration": 0.3158,
      "velocity": 109,
      "chip": "ym2612"
    },
    {
      "channel": 3,
      "note": 80,
      "start": 34.5784,
      "duration": 0.1045,
      "velocity": 94,
      "chip": "ym2612"
    },
    {
      "channel": 5,
      "note": 73,
      "start": 34.5789,
      "duration": 0.1743,
      "velocity": 90,
      "chip": "ym2612"
    },
    {
      "channel": 1,
      "note": 84,
      "start": 34.5866,
      "duration": 0.3159,
      "velocity": 109,
      "chip": "ym2612"
    },
    {
      "channel": 2,
      "note": 84,
      "start": 34.6482,
      "duration": 0.4212,
      "velocity": 109,
      "chip": "ym2612"
    },
    {
      "channel": 4,
      "note": 80,
      "start": 34.6658,
      "duration": 0.105,
      "velocity": 94,
      "chip": "ym2612"
    },
    {
      "channel": 3,
      "note": 82,
      "start": 34.6833,
      "duration": 0.105,
      "velocity": 94,
      "chip": "ym2612"
    },
    {
      "channel": 4,
      "note": 82,
      "start": 34.7711,
      "duration": 0.105,
      "velocity": 94,
      "chip": "ym2612"
    },
    {
      "channel": 3,
      "note": 78,
      "start": 34.7887,
      "duration": 0.2104,
      "velocity": 94,
      "chip": "ym2612"
    },
    {
      "channel": 5,
      "note": 63,
      "start": 34.7892,
      "duration": 0.175,
      "velocity": 90,
      "chip": "ym2612"
    },
    {
      "channel": 4,
      "note": 78,
      "start": 34.8766,
      "duration": 0.2104,
      "velocity": 94,
      "chip": "ym2612"
    },
    {
      "channel": 0,
      "note": 82,
      "start": 34.9996,
      "duration": 0.1928,
      "velocity": 109,
      "chip": "ym2612"
    },
    {
      "channel": 3,
      "note": 82,
      "start": 35.0,
      "duration": 0.4207,
      "velocity": 94,
      "chip": "ym2612"
    },
    {
      "channel": 5,
      "note": 68,
      "start": 35.0005,
      "duration": 0.1743,
      "velocity": 90,
      "chip": "ym2612"
    },
    {
      "channel": 1,
      "note": 82,
      "start": 35.0083,
      "duration": 0.1929,
      "velocity": 109,
      "chip": "ym2612"
    },
    {
      "channel": 2,
      "note": 82,
      "start": 35.0698,
      "duration": 0.2103,
      "velocity": 109,
      "chip": "ym2612"
    },
    {
      "channel": 4,
      "note": 82,
      "start": 35.0875,
      "duration": 4.0049,
      "velocity": 94,
      "chip": "ym2612"
    },
    {
      "channel": 0,
      "note": 80,
      "start": 35.2103,
      "duration": 0.1929,
      "velocity": 109,
      "chip": "ym2612"
    },
    {
      "channel": 5,
      "note": 72,
      "start": 35.2108,
      "duration": 0.1748,
      "velocity": 90,
      "chip": "ym2612"
    },
    {
      "channel": 1,
      "note": 80,
      "start": 35.2191,
      "duration": 0.1929,
      "velocity": 109,
      "chip": "ym2612"
    },
    {
      "channel": 2,
      "note": 80,
      "start": 35.2807,
      "duration": 0.2103,
      "velocity": 109,
      "chip": "ym2612"
    },
    {
      "channel": 0,
      "note": 82,
      "start": 35.4212,
      "duration": 0.6495,
      "velocity": 109,
      "chip": "ym2612"
    },
    {
      "channel": 3,
      "note": 82,
      "start": 35.4217,
      "duration": 3.5829,
      "velocity": 94,
      "chip": "ym2612"
    },
    {
      "channel": 5,
      "note": 51,
      "start": 35.4221,
      "duration": 0.1743,
      "velocity": 90,
      "chip": "ym2612"
    },
    {
      "channel": 1,
      "note": 82,
      "start": 35.4299,
      "duration": 0.6497,
      "velocity": 109,
      "chip": "ym2612"
    },
    {
      "channel": 2,
      "note": 82,
      "start": 35.4915,
      "duration": 0.632,
      "velocity": 109,
      "chip": "ym2612"
    },
    {
      "channel": 5,
      "note": 58,
      "start": 35.632,
      "duration": 0.1752,
      "velocity": 90,
      "chip": "ym2612"
    },
    {
      "channel": 5,
      "note": 73,
      "start": 35.8427,
      "duration": 0.1753,
      "velocity": 90,
      "chip": "ym2612"
    },
    {
      "channel": 5,
      "note": 63,
      "start": 36.0536,
      "duration": 0.1753,
      "velocity": 90,
      "chip": "ym2612"
    },
    {
      "channel": 0,
      "note": 85,
      "start": 36.08,
      "duration": 0.0874,
      "velocity": 109,
      "chip": "ym2612"
    },
    {
      "channel": 1,
      "note": 85,
      "start": 36.0887,
      "duration": 0.088,
      "velocity": 109,
      "chip": "ym2612"
    },
    {
      "channel": 2,
      "note": 85,
      "start": 36.1239,
      "duration": 0.4212,
      "velocity": 109,
      "chip": "ym2612"
    },
    {
      "channel": 5,
      "note": 68,
      "start": 36.2646,
      "duration": 0.1751,
      "velocity": 90,
      "chip": "ym2612"
    },
    {
      "channel": 0,
      "note": 85,
      "start": 36.4752,
      "duration": 0.0787,
      "velocity": 109,
      "chip": "ym2612"
    },
    {
      "channel": 5,
      "note": 72,
      "start": 36.4757,
      "duration": 0.1748,
      "velocity": 90,
      "chip": "ym2612"
    },
    {
      "channel": 1,
      "note": 85,
      "start": 36.4842,
      "duration": 0.0784,
      "velocity": 109,
      "chip": "ym2612"
    },
    {
      "channel": 2,
      "note": 85,
      "start": 36.5456,
      "duration": 0.2103,
      "velocity": 109,
      "chip": "ym2612"
    },
    {
      "channel": 0,
      "note": 85,
      "start": 36.686,
      "duration": 0.1929,
      "velocity": 109,
      "chip": "ym2612"
    },
    {
      "channel": 5,
      "note": 51,
      "start": 36.6865,
      "duration": 0.1748,
      "velocity": 90,
      "chip": "ym2612"
    },
    {
      "channel": 1,
      "note": 85,
      "start": 36.6948,
      "duration": 0.1929,
      "velocity": 109,
      "chip": "ym2612"
    },
    {
      "channel": 2,
      "note": 85,
      "start": 36.7564,
      "duration": 0.2103,
      "velocity": 109,
      "chip": "ym2612"
    },
    {
      "channel": 0,
      "note": 87,
      "start": 36.8968,
      "duration": 0.1929,
      "velocity": 109,
      "chip": "ym2612"
    },
    {
      "channel": 5,
      "note": 58,
      "start": 36.8973,
      "duration": 0.1748,
      "velocity": 90,
      "chip": "ym2612"
    },
    {
      "channel": 1,
      "note": 87,
      "start": 36.9056,
      "duration": 0.1929,
      "velocity": 109,
      "chip": "ym2612"
    },
    {
      "channel": 2,
      "note": 87,
      "start": 36.9672,
      "duration": 0.2103,
      "velocity": 109,
      "chip": "ym2612"
    },
    {
      "channel": 0,
      "note": 84,
      "start": 37.1076,
      "duration": 0.3158,
      "velocity": 109,
      "chip": "ym2612"
    },
    {
      "channel": 5,
      "note": 73,
      "start": 37.1081,
      "duration": 0.1748,
      "velocity": 90,
      "chip": "ym2612"
    },
    {
      "channel": 1,
      "note": 84,
      "start": 37.1164,
      "duration": 0.3159,
      "velocity": 109,
      "chip": "ym2612"
    },
    {
      "channel": 2,
      "note": 84,
      "start": 37.178,
      "duration": 0.4212,
      "velocity": 109,
      "chip": "ym2612"
    },
    {
      "channel": 5,
      "note": 63,
      "start": 37.3185,
      "duration": 0.1753,
      "velocity": 90,
      "chip": "ym2612"
    },
    {
      "channel": 0,
      "note": 82,
      "start": 37.5293,
      "duration": 0.1929,
      "velocity": 109,
      "chip": "ym2612"
    },
    {
      "channel": 5,
      "note": 68,
      "start": 37.5298,
      "duration": 0.1748,
      "velocity": 90,
      "chip": "ym2612"
    },
    {
      "channel": 1,
      "note": 82,
      "start": 37.538,
      "duration": 0.1929,
      "velocity": 109,
      "chip": "ym2612"
    },
    {
      "channel": 2,
      "note": 82,
      "start": 37.5996,
      "duration": 0.2103,
      "velocity": 109,
      "chip": "ym2612"
    },
    {
      "channel": 0,
      "note": 80,
      "start": 37.7401,
      "duration": 0.1929,
      "velocity": 109,
      "chip": "ym2612"
    },
    {
      "channel": 5,
      "note": 72,
      "start": 37.7406,
      "duration": 0.1748,
      "velocity": 90,
      "chip": "ym2612"
    },
    {
      "channel": 1,
      "note": 80,
      "start": 37.749,
      "duration": 0.1928,
      "velocity": 109,
      "chip": "ym2612"
    },
    {
      "channel": 2,
      "note": 80,
      "start": 37.8105,
      "duration": 0.2105,
      "velocity": 109,
      "chip": "ym2612"
    },
    {
      "channel": 0,
      "note": 82,
      "start": 37.9511,
      "duration": 0.5967,
      "velocity": 109,
      "chip": "ym2612"
    },
    {
      "channel": 5,
      "note": 51,
      "start": 37.9516,
      "duration": 0.1746,
      "velocity": 90,
      "chip": "ym2612"
    },
    {
      "channel": 1,
      "note": 82,
      "start": 37.9597,
      "duration": 0.5969,
      "velocity": 109,
      "chip": "ym2612"
    },
    {
      "channel": 2,
      "note": 82,
      "start": 38.0214,
      "duration": 0.6319,
      "velocity": 109,
      "chip": "ym2612"
    },
    {
      "channel": 5,
      "note": 58,
      "start": 38.1618,
      "duration": 0.1752,
      "velocity": 90,
      "chip": "ym2612"
    },
    {
      "channel": 5,
      "note": 73,
      "start": 38.3725,
      "duration": 0.1754,
      "velocity": 90,
      "chip": "ym2612"
    },
    {
      "channel": 0,
      "note": 85,
      "start": 38.5834,
      "duration": 0.0875,
      "velocity": 109,
      "chip": "ym2612"
    },
    {
      "channel": 5,
      "note": 63,
      "start": 38.5838,
      "duration": 0.1748,
      "velocity": 90,
      "chip": "ym2612"
    },
    {
      "channel": 1,
      "note": 85,
      "start": 38.5921,
      "duration": 0.0875,
      "velocity": 109,
      "chip": "ym2612"
    },
    {
      "channel": 2,
      "note": 85,
      "start": 38.6537,
      "duration": 0.4212,
      "velocity": 109,
      "chip": "ym2612"
    },
    {
      "channel": 5,
      "note": 68,
      "start": 38.7944,
      "duration": 0.1751,
      "velocity": 90,
      "chip": "ym2612"
    },
    {
      "channel": 0,
      "note": 85,
      "start": 39.0051,
      "duration": 0.0786,
      "velocity": 109,
      "chip": "ym2612"
    },
    {
      "channel": 5,
      "note": 72,
      "start": 39.0056,
      "duration": 0.1747,
      "velocity": 90,
      "chip": "ym2612"
    },
    {
      "channel": 1,
      "note": 85,
      "start": 39.0138,
      "duration": 0.0788,
      "velocity": 109,
      "chip": "ym2612"
    },
    {
      "channel": 2,
      "note": 85,
      "start": 39.0754,
      "duration": 0.2103,
      "velocity": 109,
      "chip": "ym2612"
    },
    {
      "channel": 0,
      "note": 85,
      "start": 39.2158,
      "duration": 0.1929,
      "velocity": 109,
      "chip": "ym2612"
    },
    {
      "channel": 5,
      "note": 51,
      "start": 39.2163,
      "duration": 0.1748,
      "velocity": 90,
      "chip": "ym2612"
    },
    {
      "channel": 1,
      "note": 85,
      "start": 39.2247,
      "duration": 0.1927,
      "velocity": 109,
      "chip": "ym2612"
    },
    {
      "channel": 2,
      "note": 85,
      "start": 39.2862,
      "duration": 0.2103,
      "velocity": 109,
      "chip": "ym2612"
    },
    {
      "channel": 0,
      "note": 87,
      "start": 39.4266,
      "duration": 0.0966,
      "velocity": 109,
      "chip": "ym2612"
    },
    {
      "channel": 5,
      "note": 58,
      "start": 39.4271,
      "duration": 0.1748,
      "velocity": 90,
      "chip": "ym2612"
    },
    {
      "channel": 1,
      "note": 87,
      "start": 39.4354,
      "duration": 0.0963,
      "velocity": 109,
      "chip": "ym2612"
    },
    {
      "channel": 2,
      "note": 87,
      "start": 39.497,
      "duration": 0.2103,
      "velocity": 109,
      "chip": "ym2612"
    },
    {
      "channel": 0,
      "note": 84,
      "start": 39.6374,
      "duration": 0.3159,
      "velocity": 109,
      "chip": "ym2612"
    },
    {
      "channel": 5,
      "note": 73,
      "start": 39.6379,
      "duration": 0.1748,
      "velocity": 90,
      "chip": "ym2612"
    },
    {
      "channel": 1,
      "note": 84,
      "start": 39.6462,
      "duration": 0.3159,
      "velocity": 109,
      "chip": "ym2612"
    },
    {
      "channel": 2,
      "note": 84,
      "start": 39.7078,
      "duration": 0.4212,
      "velocity": 109,
      "chip": "ym2612"
    },
    {
      "channel": 5,
      "note": 63,
      "start": 39.8483,
      "duration": 0.1753,
      "velocity": 90,
      "chip": "ym2612"
    },
    {
      "channel": 0,
      "note": 82,
      "start": 40.059,
      "duration": 0.1929,
      "velocity": 109,
      "chip": "ym2612"
    },
    {
      "channel": 3,
      "note": 77,
      "start": 40.0595,
      "duration": 0.1048,
      "velocity": 94,
      "chip": "ym2612"
    },
    {
      "channel": 5,
      "note": 68,
      "start": 40.06,
      "duration": 0.1744,
      "velocity": 90,
      "chip": "ym2612"
    },
    {
      "channel": 1,
      "note": 82,
      "start": 40.0678,
      "duration": 0.1929,
      "velocity": 109,
      "chip": "ym2612"
    },
    {
      "channel": 2,
      "note": 82,
      "start": 40.1294,
      "duration": 0.2103,
      "velocity": 109,
      "chip": "ym2612"
    },
    {
      "channel": 4,
      "note": 77,
      "start": 40.1469,
      "duration": 0.1052,
      "velocity": 94,
      "chip": "ym2612"
    },
    {
      "channel": 3,
      "note": 78,
      "start": 40.1648,
      "duration": 0.1047,
      "velocity": 94,
      "chip": "ym2612"
    },
    {
      "channel": 4,
      "note": 78,
      "start": 40.2525,
      "duration": 0.1049,
      "velocity": 94,
      "chip": "ym2612"
    },
    {
      "channel": 0,
      "note": 80,
      "start": 40.27,
      "duration": 0.1928,
      "velocity": 109,
      "chip": "ym2612"
    },
    {
      "channel": 3,
      "note": 77,
      "start": 40.2704,
      "duration": 0.087,
      "velocity": 94,
      "chip": "ym2612"
    },
    {
      "channel": 5,
      "note": 72,
      "start": 40.2709,
      "duration": 0.1744,
      "velocity": 90,
      "chip": "ym2612"
    },
    {
      "channel": 1,
      "note": 80,
      "start": 40.2788,
      "duration": 0.1928,
      "velocity": 109,
      "chip": "ym2612"
    },
    {
      "channel": 2,
      "note": 80,
      "start": 40.3402,
      "duration": 0.2103,
      "velocity": 109,
      "chip": "ym2612"
    },
    {
      "channel": 4,
      "note": 77,
      "start": 40.3579,
      "duration": 0.0873,
      "velocity": 94,
      "chip": "ym2612"
    },
    {
      "channel": 3,
      "note": 78,
      "start": 40.3753,
      "duration": 0.1052,
      "velocity": 94,
      "chip": "ym2612"
    },
    {
      "channel": 4,
      "note": 78,
      "start": 40.4632,
      "duration": 0.105,
      "velocity": 94,
      "chip": "ym2612"
    },
    {
      "channel": 0,
      "note": 82,
      "start": 40.4809,
      "duration": 0.6495,
      "velocity": 109,
      "chip": "ym2612"
    },
    {
      "channel": 3,
      "note": 77,
      "start": 40.4813,
      "duration": 0.2098,
      "velocity": 94,
      "chip": "ym2612"
    },
    {
      "channel": 5,
      "note": 58,
      "start": 40.4818,
      "duration": 0.1742,
      "velocity": 90,
      "chip": "ym2612"
    },
    {
      "channel": 1,
      "note": 82,
      "start": 40.4895,
      "duration": 0.6496,
      "velocity": 109,
      "chip": "ym2612"
    },
    {
      "channel": 2,
      "note": 82,
      "start": 40.5512,
      "duration": 0.6319,
      "velocity": 109,
      "chip": "ym2612"
    },
    {
      "channel": 4,
      "note": 77,
      "start": 40.5686,
      "duration": 0.2104,
      "velocity": 94,
      "chip": "ym2612"
    },
    {
      "channel": 3,
      "note": 82,
      "start": 40.6916,
      "duration": 0.2104,
      "velocity": 94,
      "chip": "ym2612"
    },
    {
      "channel": 5,
      "note": 65,
      "start": 40.6922,
      "duration": 0.1746,
      "velocity": 90,
      "chip": "ym2612"
    },
    {
      "channel": 4,
      "note": 82,
      "start": 40.7794,
      "duration": 0.2104,
      "velocity": 94,
      "chip": "ym2612"
    },
    {
      "channel": 3,
      "note": 82,
      "start": 40.9024,
      "duration": 0.4212,
      "velocity": 94,
      "chip": "ym2612"
    },
    {
      "channel": 5,
      "note": 73,
      "start": 40.9029,
      "duration": 0.1748,
      "velocity": 90,
      "chip": "ym2612"
    },
    {
      "channel": 4,
      "note": 82,
      "start": 40.9902,
      "duration": 0.4212,
      "velocity": 94,
      "chip": "ym2612"
    },
    {
      "channel": 5,
      "note": 63,
      "start": 41.1132,
      "duration": 0.1753,
      "velocity": 90,
      "chip": "ym2612"
    },
    {
      "channel": 0,
      "note": 85,
      "start": 41.1396,
      "duration": 0.0698,
      "velocity": 109,
      "chip": "ym2612"
    },
    {
      "channel": 1,
      "note": 85,
      "start": 41.1483,
      "duration": 0.0699,
      "velocity": 109,
      "chip": "ym2612"
    },
    {
      "channel": 2,
      "note": 85,
      "start": 41.1835,
      "duration": 0.4212,
      "velocity": 109,
      "chip": "ym2612"
    },
    {
      "channel": 3,
      "note": 80,
      "start": 41.3243,
      "duration": 0.421,
      "velocity": 94,
      "chip": "ym2612"
    },
    {
      "channel": 5,
      "note": 68,
      "start": 41.3247,
      "duration": 0.1745,
      "velocity": 90,
      "chip": "ym2612"
    },
    {
      "channel": 4,
      "note": 80,
      "start": 41.4119,
      "duration": 0.4212,
      "velocity": 94,
      "chip": "ym2612"
    },
    {
      "channel": 0,
      "note": 85,
      "start": 41.5348,
      "duration": 0.0963,
      "velocity": 109,
      "chip": "ym2612"
    },
    {
      "channel": 5,
      "note": 72,
      "start": 41.5353,
      "duration": 0.1754,
      "velocity": 90,
      "chip": "ym2612"
    },
    {
      "channel": 1,
      "note": 85,
      "start": 41.5436,
      "duration": 0.0963,
      "velocity": 109,
      "chip": "ym2612"
    },
    {
      "channel": 2,
      "note": 85,
      "start": 41.6051,
      "duration": 0.2103,
      "velocity": 109,
      "chip": "ym2612"
    },
    {
      "channel": 0,
      "note": 85,
      "start": 41.7457,
      "duration": 0.2105,
      "velocity": 109,
      "chip": "ym2612"
    },
    {
      "channel": 3,
      "note": 79,
      "start": 41.7461,
      "duration": 0.2099,
      "velocity": 94,
      "chip": "ym2612"
    },
    {
      "channel": 5,
      "note": 58,
      "start": 41.7466,
      "duration": 0.1743,
      "velocity": 90,
      "chip": "ym2612"
    },
    {
      "channel": 1,
      "note": 85,
      "start": 41.7546,
      "duration": 0.2102,
      "velocity": 109,
      "chip": "ym2612"
    },
    {
      "channel": 2,
      "note": 85,
      "start": 41.816,
      "duration": 0.2103,
      "velocity": 109,
      "chip": "ym2612"
    },
    {
      "channel": 4,
      "note": 79,
      "start": 41.8335,
      "duration": 0.2104,
      "velocity": 94,
      "chip": "ym2612"
    },
    {
      "channel": 0,
      "note": 87,
      "start": 41.9566,
      "duration": 0.1927,
      "velocity": 109,
      "chip": "ym2612"
    },
    {
      "channel": 3,
      "note": 77,
      "start": 41.957,
      "duration": 0.2098,
      "velocity": 94,
      "chip": "ym2612"
    },
    {
      "channel": 5,
      "note": 65,
      "start": 41.9575,
      "duration": 0.1742,
      "velocity": 90,
      "chip": "ym2612"
    },
    {
      "channel": 1,
      "note": 87,
      "start": 41.9653,
      "duration": 0.1928,
      "velocity": 109,
      "chip": "ym2612"
    },
    {
      "channel": 2,
      "note": 87,
      "start": 42.0268,
      "duration": 0.2103,
      "velocity": 109,
      "chip": "ym2612"
    },
    {
      "channel": 4,
      "note": 77,
      "start": 42.0446,
      "duration": 0.2101,
      "velocity": 94,
      "chip": "ym2612"
    },
    {
      "channel": 0,
      "note": 84,
      "start": 42.1673,
      "duration": 0.3157,
      "velocity": 109,
      "chip": "ym2612"
    },
    {
      "channel": 3,
      "note": 82,
      "start": 42.1678,
      "duration": 0.4207,
      "velocity": 94,
      "chip": "ym2612"
    },
    {
      "channel": 5,
      "note": 73,
      "start": 42.1683,
      "duration": 0.1743,
      "velocity": 90,
      "chip": "ym2612"
    },
    {
      "channel": 1,
      "note": 84,
      "start": 42.176,
      "duration": 0.3159,
      "velocity": 109,
      "chip": "ym2612"
    },
    {
      "channel": 2,
      "note": 84,
      "start": 42.2376,
      "duration": 0.4212,
      "velocity": 109,
      "chip": "ym2612"
    },
    {
      "channel": 4,
      "note": 82,
      "start": 42.2551,
      "duration": 0.4212,
      "velocity": 94,
      "chip": "ym2612"
    },
    {
      "channel": 5,
      "note": 63,
      "start": 42.378,
      "duration": 0.1753,
      "velocity": 90,
      "chip": "ym2612"
    },
    {
      "channel": 0,
      "note": 82,
      "start": 42.589,
      "duration": 0.1928,
      "velocity": 109,
      "chip": "ym2612"
    },
    {
      "channel": 3,
      "note": 80,
      "start": 42.5894,
      "duration": 0.4207,
      "velocity": 94,
      "chip": "ym2612"
    },
    {
      "channel": 5,
      "note": 68,
      "start": 42.5899,
      "duration": 0.1745,
      "velocity": 90,
      "chip": "ym2612"
    },
    {
      "channel": 1,
      "note": 82,
      "start": 42.598,
      "duration": 0.1925,
      "velocity": 109,
      "chip": "ym2612"
    },
    {
      "channel": 2,
      "note": 82,
      "start": 42.6592,
      "duration": 0.2106,
      "velocity": 109,
      "chip": "ym2612"
    },
    {
      "channel": 4,
      "note": 80,
      "start": 42.6768,
      "duration": 0.4212,
      "velocity": 94,
      "chip": "ym2612"
    },
    {
      "channel": 0,
      "note": 80,
      "start": 42.7997,
      "duration": 0.1753,
      "velocity": 109,
      "chip": "ym2612"
    },
    {
      "channel": 5,
      "note": 72,
      "start": 42.8002,
      "duration": 0.1749,
      "velocity": 90,
      "chip": "ym2612"
    },
    {
      "channel": 1,
      "note": 80,
      "start": 42.8085,
      "duration": 0.1753,
      "velocity": 109,
      "chip": "ym2612"
    },
    {
      "channel": 2,
      "note": 80,
      "start": 42.8703,
      "duration": 0.2101,
      "velocity": 109,
      "chip": "ym2612"
    },
    {
      "channel": 0,
      "note": 82,
      "start": 43.0107,
      "duration": 0.5967,
      "velocity": 109,
      "chip": "ym2612"
    },
    {
      "channel": 3,
      "note": 79,
      "start": 43.0111,
      "duration": 0.2098,
      "velocity": 94,
      "chip": "ym2612"
    },
    {
      "channel": 5,
      "note": 58,
      "start": 43.0116,
      "duration": 0.1741,
      "velocity": 90,
      "chip": "ym2612"
    },
    {
      "channel": 1,
      "note": 82,
      "start": 43.0193,
      "duration": 0.5969,
      "velocity": 109,
      "chip": "ym2612"
    },
    {
      "channel": 2,
      "note": 82,
      "start": 43.081,
      "duration": 0.6319,
      "velocity": 109,
      "chip": "ym2612"
    },
    {
      "channel": 4,
      "note": 79,
      "start": 43.0984,
      "duration": 0.2104,
      "velocity": 94,
      "chip": "ym2612"
    },
    {
      "channel": 3,
      "note": 77,
      "start": 43.2214,
      "duration": 0.2104,
      "velocity": 94,
      "chip": "ym2612"
    },
    {
      "channel": 5,
      "note": 65,
      "start": 43.222,
      "duration": 0.1746,
      "velocity": 90,
      "chip": "ym2612"
    },
    {
      "channel": 4,
      "note": 77,
      "start": 43.3092,
      "duration": 0.2104,
      "velocity": 94,
      "chip": "ym2612"
    },
    {
      "channel": 3,
      "note": 82,
      "start": 43.4322,
      "duration": 0.4212,
      "velocity": 94,
      "chip": "ym2612"
    },
    {
      "channel": 5,
      "note": 73,
      "start": 43.4327,
      "duration": 0.1748,
      "velocity": 90,
      "chip": "ym2612"
    },
    {
      "channel": 4,
      "note": 82,
      "start": 43.52,
      "duration": 0.4212,
      "velocity": 94,
      "chip": "ym2612"
    },
    {
      "channel": 0,
      "note": 85,
      "start": 43.6429,
      "duration": 0.0875,
      "velocity": 109,
      "chip": "ym2612"
    },
    {
      "channel": 5,
      "note": 63,
      "start": 43.6434,
      "duration": 0.1748,
      "velocity": 90,
      "chip": "ym2612"
    },
    {
      "channel": 1,
      "note": 85,
      "start": 43.6517,
      "duration": 0.0875,
      "velocity": 109,
      "chip": "ym2612"
    },
    {
      "channel": 2,
      "note": 85,
      "start": 43.7133,
      "duration": 0.4211,
      "velocity": 109,
      "chip": "ym2612"
    },
    {
      "channel": 3,
      "note": 80,
      "start": 43.8538,
      "duration": 0.4212,
      "velocity": 94,
      "chip": "ym2612"
    },
    {
      "channel": 5,
      "note": 68,
      "start": 43.8545,
      "duration": 0.1745,
      "velocity": 90,
      "chip": "ym2612"
    },
    {
      "channel": 4,
      "note": 80,
      "start": 43.9417,
      "duration": 0.4212,
      "velocity": 94,
      "chip": "ym2612"
    },
    {
      "channel": 0,
      "note": 85,
      "start": 44.0647,
      "duration": 0.0873,
      "velocity": 109,
      "chip": "ym2612"
    },
    {
      "channel": 5,
      "note": 72,
      "start": 44.0652,
      "duration": 0.1746,
      "velocity": 90,
      "chip": "ym2612"
    },
    {
      "channel": 1,
      "note": 85,
      "start": 44.0734,
      "duration": 0.0875,
      "velocity": 109,
      "chip": "ym2612"
    },
    {
      "channel": 2,
      "note": 85,
      "start": 44.1349,
      "duration": 0.2103,
      "velocity": 109,
      "chip": "ym2612"
    },
    {
      "channel": 0,
      "note": 85,
      "start": 44.2755,
      "duration": 0.2016,
      "velocity": 109,
      "chip": "ym2612"
    },
    {
      "channel": 3,
      "note": 79,
      "start": 44.2759,
      "duration": 0.2099,
      "velocity": 94,
      "chip": "ym2612"
    },
    {
      "channel": 5,
      "note": 58,
      "start": 44.2764,
      "duration": 0.1743,
      "velocity": 90,
      "chip": "ym2612"
    },
    {
      "channel": 1,
      "note": 85,
      "start": 44.2844,
      "duration": 0.2015,
      "velocity": 109,
      "chip": "ym2612"
    },
    {
      "channel": 2,
      "note": 85,
      "start": 44.3458,
      "duration": 0.2103,
      "velocity": 109,
      "chip": "ym2612"
    },
    {
      "channel": 4,
      "note": 79,
      "start": 44.3633,
      "duration": 0.2104,
      "velocity": 94,
      "chip": "ym2612"
    },
    {
      "channel": 0,
      "note": 87,
      "start": 44.4864,
      "duration": 0.1312,
      "velocity": 109,
      "chip": "ym2612"
    },
    {
      "channel": 3,
      "note": 77,
      "start": 44.4868,
      "duration": 0.2098,
      "velocity": 94,
      "chip": "ym2612"
    },
    {
      "channel": 5,
      "note": 65,
      "start": 44.4873,
      "duration": 0.1742,
      "velocity": 90,
      "chip": "ym2612"
    },
    {
      "channel": 1,
      "note": 87,
      "start": 44.495,
      "duration": 0.1314,
      "velocity": 109,
      "chip": "ym2612"
    },
    {
      "channel": 2,
      "note": 87,
      "start": 44.5566,
      "duration": 0.2103,
      "velocity": 109,
      "chip": "ym2612"
    },
    {
      "channel": 4,
      "note": 77,
      "start": 44.5744,
      "duration": 0.2102,
      "velocity": 94,
      "chip": "ym2612"
    },
    {
      "channel": 0,
      "note": 84,
      "start": 44.6971,
      "duration": 0.3158,
      "velocity": 109,
      "chip": "ym2612"
    },
    {
      "channel": 3,
      "note": 75,
      "start": 44.6976,
      "duration": 0.4207,
      "velocity": 94,
      "chip": "ym2612"
    },
    {
      "channel": 5,
      "note": 73,
      "start": 44.698,
      "duration": 0.1743,
      "velocity": 90,
      "chip": "ym2612"
    },
    {
      "channel": 1,
      "note": 84,
      "start": 44.7058,
      "duration": 0.3159,
      "velocity": 109,
      "chip": "ym2612"
    },
    {
      "channel": 2,
      "note": 84,
      "start": 44.7674,
      "duration": 0.4211,
      "velocity": 109,
      "chip": "ym2612"
    },
    {
      "channel": 4,
      "note": 75,
      "start": 44.785,
      "duration": 0.4211,
      "velocity": 94,
      "chip": "ym2612"
    },
    {
      "channel": 5,
      "note": 63,
      "start": 44.9078,
      "duration": 0.1753,
      "velocity": 90,
      "chip": "ym2612"
    },
    {
      "channel": 0,
      "note": 82,
      "start": 45.1187,
      "duration": 0.1928,
      "velocity": 109,
      "chip": "ym2612"
    },
    {
      "channel": 3,
      "note": 79,
      "start": 45.1192,
      "duration": 0.4207,
      "velocity": 94,
      "chip": "ym2612"
    },
    {
      "channel": 5,
      "note": 68,
      "start": 45.1197,
      "duration": 0.1745,
      "velocity": 90,
      "chip": "ym2612"
    },
    {
      "channel": 1,
      "note": 82,
      "start": 45.1276,
      "duration": 0.1927,
      "velocity": 109,
      "chip": "ym2612"
    },
    {
      "channel": 2,
      "note": 82,
      "start": 45.189,
      "duration": 0.2104,
      "velocity": 109,
      "chip": "ym2612"
    },
    {
      "channel": 4,
      "note": 79,
      "start": 45.2066,
      "duration": 0.4212,
      "velocity": 94,
      "chip": "ym2612"
    },
    {
      "channel": 0,
      "note": 80,
      "start": 45.3297,
      "duration": 0.1926,
      "velocity": 109,
      "chip": "ym2612"
    },
    {
      "channel": 5,
      "note": 72,
      "start": 45.3302,
      "duration": 0.1746,
      "velocity": 90,
      "chip": "ym2612"
    },
    {
      "channel": 1,
      "note": 80,
      "start": 45.3383,
      "duration": 0.1929,
      "velocity": 109,
      "chip": "ym2612"
    },
    {
      "channel": 2,
      "note": 80,
      "start": 45.3999,
      "duration": 0.2102,
      "velocity": 109,
      "chip": "ym2612"
    },
    {
      "channel": 0,
      "note": 82,
      "start": 45.5405,
      "duration": 0.6494,
      "velocity": 109,
      "chip": "ym2612"
    },
    {
      "channel": 3,
      "note": 77,
      "start": 45.5409,
      "duration": 4.6369,
      "velocity": 94,
      "chip": "ym2612"
    },
    {
      "channel": 5,
      "note": 58,
      "start": 45.5414,
      "duration": 0.1741,
      "velocity": 90,
      "chip": "ym2612"
    },
    {
      "channel": 1,
      "note": 82,
      "start": 45.5491,
      "duration": 0.6496,
      "velocity": 109,
      "chip": "ym2612"
    },
    {
      "channel": 2,
      "note": 82,
      "start": 45.6107,
      "duration": 0.632,
      "velocity": 109,
      "chip": "ym2612"
    },
    {
      "channel": 4,
      "note": 77,
      "start": 45.6282,
      "duration": 4.6375,
      "velocity": 94,
      "chip": "ym2612"
    },
    {
      "channel": 5,
      "note": 65,
      "start": 45.7511,
      "duration": 0.1753,
      "velocity": 90,
      "chip": "ym2612"
    },
    {
      "channel": 5,
      "note": 73,
      "start": 45.9619,
      "duration": 0.1753,
      "velocity": 90,
      "chip": "ym2612"
    },
    {
      "channel": 5,
      "note": 63,
      "start": 46.1727,
      "duration": 0.1753,
      "velocity": 90,
      "chip": "ym2612"
    },
    {
      "channel": 0,
      "note": 85,
      "start": 46.1992,
      "duration": 0.0786,
      "velocity": 109,
      "chip": "ym2612"
    },
    {
      "channel": 1,
      "note": 85,
      "start": 46.2079,
      "duration": 0.079,
      "velocity": 109,
      "chip": "ym2612"
    },
    {
      "channel": 2,
      "note": 85,
      "start": 46.2431,
      "duration": 0.4213,
      "velocity": 109,
      "chip": "ym2612"
    },
    {
      "channel": 5,
      "note": 68,
      "start": 46.3835,
      "duration": 0.1753,
      "velocity": 90,
      "chip": "ym2612"
    },
    {
      "channel": 0,
      "note": 85,
      "start": 46.5946,
      "duration": 0.0872,
      "velocity": 109,
      "chip": "ym2612"
    },
    {
      "channel": 5,
      "note": 72,
      "start": 46.5951,
      "duration": 0.1746,
      "velocity": 90,
      "chip": "ym2612"
    },
    {
      "channel": 1,
      "note": 85,
      "start": 46.6032,
      "duration": 0.0875,
      "velocity": 109,
      "chip": "ym2612"
    },
    {
      "channel": 2,
      "note": 85,
      "start": 46.6649,
      "duration": 0.2102,
      "velocity": 109,
      "chip": "ym2612"
    },
    {
      "channel": 0,
      "note": 85,
      "start": 46.8052,
      "duration": 0.1929,
      "velocity": 109,
      "chip": "ym2612"
    },
    {
      "channel": 5,
      "note": 58,
      "start": 46.8056,
      "duration": 0.1748,
      "velocity": 90,
      "chip": "ym2612"
    },
    {
      "channel": 1,
      "note": 85,
      "start": 46.8142,
      "duration": 0.1926,
      "velocity": 109,
      "chip": "ym2612"
    },
    {
      "channel": 2,
      "note": 85,
      "start": 46.8756,
      "duration": 0.2103,
      "velocity": 109,
      "chip": "ym2612"
    },
    {
      "channel": 0,
      "note": 87,
      "start": 47.016,
      "duration": 0.1929,
      "velocity": 109,
      "chip": "ym2612"
    },
    {
      "channel": 5,
      "note": 65,
      "start": 47.0165,
      "duration": 0.1748,
      "velocity": 90,
      "chip": "ym2612"
    },
    {
      "channel": 1,
      "note": 87,
      "start": 47.0248,
      "duration": 0.1929,
      "velocity": 109,
      "chip": "ym2612"
    },
    {
      "channel": 2,
      "note": 87,
      "start": 47.0863,
      "duration": 0.2103,
      "velocity": 109,
      "chip": "ym2612"
    },
    {
      "channel": 0,
      "note": 84,
      "start": 47.2268,
      "duration": 0.3159,
      "velocity": 109,
      "chip": "ym2612"
    },
    {
      "channel": 5,
      "note": 73,
      "start": 47.2273,
      "duration": 0.1748,
      "velocity": 90,
      "chip": "ym2612"
    },
    {
      "channel": 1,
      "note": 84,
      "start": 47.2356,
      "duration": 0.3159,
      "velocity": 109,
      "chip": "ym2612"
    },
    {
      "channel": 2,
      "note": 84,
      "start": 47.2972,
      "duration": 0.4212,
      "velocity": 109,
      "chip": "ym2612"
    },
    {
      "channel": 5,
      "note": 63,
      "start": 47.4376,
      "duration": 0.1753,
      "velocity": 90,
      "chip": "ym2612"
    },
    {
      "channel": 0,
      "note": 82,
      "start": 47.6484,
      "duration": 0.1929,
      "velocity": 109,
      "chip": "ym2612"
    },
    {
      "channel": 5,
      "note": 68,
      "start": 47.6489,
      "duration": 0.1748,
      "velocity": 90,
      "chip": "ym2612"
    },
    {
      "channel": 1,
      "note": 82,
      "start": 47.6573,
      "duration": 0.1928,
      "velocity": 109,
      "chip": "ym2612"
    },
    {
      "channel": 2,
      "note": 82,
      "start": 47.7188,
      "duration": 0.2103,
      "velocity": 109,
      "chip": "ym2612"
    },
    {
      "channel": 0,
      "note": 80,
      "start": 47.8598,
      "duration": 0.1924,
      "velocity": 109,
      "chip": "ym2612"
    },
    {
      "channel": 5,
      "note": 72,
      "start": 47.8603,
      "duration": 0.1743,
      "velocity": 90,
      "chip": "ym2612"
    },
    {
      "channel": 1,
      "note": 80,
      "start": 47.868,
      "duration": 0.1929,
      "velocity": 109,
      "chip": "ym2612"
    },
    {
      "channel": 2,
      "note": 80,
      "start": 47.9297,
      "duration": 0.2102,
      "velocity": 109,
      "chip": "ym2612"
    },
    {
      "channel": 0,
      "note": 82,
      "start": 48.0701,
      "duration": 0.5969,
      "velocity": 109,
      "chip": "ym2612"
    },
    {
      "channel": 5,
      "note": 58,
      "start": 48.0707,
      "duration": 0.1747,
      "velocity": 90,
      "chip": "ym2612"
    },
    {
      "channel": 1,
      "note": 82,
      "start": 48.0789,
      "duration": 0.597,
      "velocity": 109,
      "chip": "ym2612"
    },
    {
      "channel": 2,
      "note": 82,
      "start": 48.1404,
      "duration": 0.632,
      "velocity": 109,
      "chip": "ym2612"
    },
    {
      "channel": 5,
      "note": 65,
      "start": 48.2809,
      "duration": 0.1753,
      "velocity": 90,
      "chip": "ym2612"
    },
    {
      "channel": 5,
      "note": 73,
      "start": 48.4917,
      "duration": 0.1754,
      "velocity": 90,
      "chip": "ym2612"
    },
    {
      "channel": 0,
      "note": 85,
      "start": 48.7025,
      "duration": 0.0875,
      "velocity": 109,
      "chip": "ym2612"
    },
    {
      "channel": 5,
      "note": 63,
      "start": 48.703,
      "duration": 0.1748,
      "velocity": 90,
      "chip": "ym2612"
    },
    {
      "channel": 1,
      "note": 85,
      "start": 48.7113,
      "duration": 0.0875,
      "velocity": 109,
      "chip": "ym2612"
    },
    {
      "channel": 2,
      "note": 85,
      "start": 48.7729,
      "duration": 0.4214,
      "velocity": 109,
      "chip": "ym2612"
    },
    {
      "channel": 5,
      "note": 68,
      "start": 48.9133,
      "duration": 0.1754,
      "velocity": 90,
      "chip": "ym2612"
    },
    {
      "channel": 0,
      "note": 85,
      "start": 49.1244,
      "duration": 0.0784,
      "velocity": 109,
      "chip": "ym2612"
    },
    {
      "channel": 5,
      "note": 72,
      "start": 49.1249,
      "duration": 0.1746,
      "velocity": 90,
      "chip": "ym2612"
    },
    {
      "channel": 1,
      "note": 85,
      "start": 49.1329,
      "duration": 0.0787,
      "velocity": 109,
      "chip": "ym2612"
    },
    {
      "channel": 2,
      "note": 85,
      "start": 49.1948,
      "duration": 0.2101,
      "velocity": 109,
      "chip": "ym2612"
    },
    {
      "channel": 0,
      "note": 85,
      "start": 49.335,
      "duration": 0.1929,
      "velocity": 109,
      "chip": "ym2612"
    },
    {
      "channel": 5,
      "note": 58,
      "start": 49.3354,
      "duration": 0.1748,
      "velocity": 90,
      "chip": "ym2612"
    },
    {
      "channel": 1,
      "note": 85,
      "start": 49.3437,
      "duration": 0.1929,
      "velocity": 109,
      "chip": "ym2612"
    },
    {
      "channel": 2,
      "note": 85,
      "start": 49.4053,
      "duration": 0.2103,
      "velocity": 109,
      "chip": "ym2612"
    },
    {
      "channel": 0,
      "note": 87,
      "start": 49.5458,
      "duration": 0.0962,
      "velocity": 109,
      "chip": "ym2612"
    },
    {
      "channel": 5,
      "note": 65,
      "start": 49.5463,
      "duration": 0.1748,
      "velocity": 90,
      "chip": "ym2612"
    },
    {
      "channel": 1,
      "note": 87,
      "start": 49.5548,
      "duration": 0.0961,
      "velocity": 109,
      "chip": "ym2612"
    },
    {
      "channel": 2,
      "note": 87,
      "start": 49.6161,
      "duration": 0.2103,
      "velocity": 109,
      "chip": "ym2612"
    },
    {
      "channel": 0,
      "note": 84,
      "start": 49.7566,
      "duration": 0.3159,
      "velocity": 109,
      "chip": "ym2612"
    },
    {
      "channel": 5,
      "note": 73,
      "start": 49.7571,
      "duration": 0.1748,
      "velocity": 90,
      "chip": "ym2612"
    },
    {
      "channel": 1,
      "note": 84,
      "start": 49.7654,
      "duration": 0.3159,
      "velocity": 109,
      "chip": "ym2612"
    },
    {
      "channel": 2,
      "note": 84,
      "start": 49.827,
      "duration": 0.4212,
      "velocity": 109,
      "chip": "ym2612"
    },
    {
      "channel": 5,
      "note": 63,
      "start": 49.9674,
      "duration": 0.1753,
      "velocity": 90,
      "chip": "ym2612"
    },
    {
      "channel": 0,
      "note": 82,
      "start": 50.1783,
      "duration": 0.1929,
      "velocity": 109,
      "chip": "ym2612"
    },
    {
      "channel": 3,
      "note": 77,
      "start": 50.1788,
      "duration": 0.1045,
      "velocity": 94,
      "chip": "ym2612"
    },
    {
      "channel": 5,
      "note": 68,
      "start": 50.1793,
      "duration": 0.1743,
      "velocity": 90,
      "chip": "ym2612"
    },
    {
      "channel": 1,
      "note": 82,
      "start": 50.187,
      "duration": 0.1929,
      "velocity": 109,
      "chip": "ym2612"
    },
    {
      "channel": 2,
      "note": 82,
      "start": 50.2486,
      "duration": 0.2103,
      "velocity": 109,
      "chip": "ym2612"
    },
    {
      "channel": 4,
      "note": 77,
      "start": 50.2661,
      "duration": 0.1049,
      "velocity": 94,
      "chip": "ym2612"
    },
    {
      "channel": 3,
      "note": 78,
      "start": 50.2837,
      "duration": 0.105,
      "velocity": 94,
      "chip": "ym2612"
    },
    {
      "channel": 4,
      "note": 78,
      "start": 50.3716,
      "duration": 0.1049,
      "velocity": 94,
      "chip": "ym2612"
    },
    {
      "channel": 0,
      "note": 80,
      "start": 50.3893,
      "duration": 0.1928,
      "velocity": 109,
      "chip": "ym2612"
    },
    {
      "channel": 3,
      "note": 77,
      "start": 50.3897,
      "duration": 0.1046,
      "velocity": 94,
      "chip": "ym2612"
    },
    {
      "channel": 5,
      "note": 72,
      "start": 50.3902,
      "duration": 0.1742,
      "velocity": 90,
      "chip": "ym2612"
    },
    {
      "channel": 1,
      "note": 80,
      "start": 50.3978,
      "duration": 0.1933,
      "velocity": 109,
      "chip": "ym2612"
    },
    {
      "channel": 2,
      "note": 80,
      "start": 50.4595,
      "duration": 0.2102,
      "velocity": 109,
      "chip": "ym2612"
    },
    {
      "channel": 4,
      "note": 77,
      "start": 50.477,
      "duration": 0.1049,
      "velocity": 94,
      "chip": "ym2612"
    },
    {
      "channel": 3,
      "note": 78,
      "start": 50.4948,
      "duration": 0.1047,
      "velocity": 94,
      "chip": "ym2612"
    },
    {
      "channel": 4,
      "note": 78,
      "start": 50.5824,
      "duration": 0.1049,
      "velocity": 94,
      "chip": "ym2612"
    },
    {
      "channel": 0,
      "note": 82,
      "start": 50.6,
      "duration": 0.6495,
      "velocity": 109,
      "chip": "ym2612"
    },
    {
      "channel": 3,
      "note": 77,
      "start": 50.6005,
      "duration": 0.2098,
      "velocity": 94,
      "chip": "ym2612"
    },
    {
      "channel": 5,
      "note": 58,
      "start": 50.601,
      "duration": 0.1742,
      "velocity": 90,
      "chip": "ym2612"
    },
    {
      "channel": 1,
      "note": 82,
      "start": 50.6086,
      "duration": 0.6497,
      "velocity": 109,
      "chip": "ym2612"
    },
    {
      "channel": 2,
      "note": 82,
      "start": 50.6702,
      "duration": 0.6232,
      "velocity": 109,
      "chip": "ym2612"
    },
    {
      "channel": 4,
      "note": 77,
      "start": 50.6878,
      "duration": 0.2104,
      "velocity": 94,
      "chip": "ym2612"
    },
    {
      "channel": 3,
      "note": 82,
      "start": 50.8107,
      "duration": 0.2104,
      "velocity": 94,
      "chip": "ym2612"
    },
    {
      "channel": 5,
      "note": 65,
      "start": 50.8112,
      "duration": 0.1748,
      "velocity": 90,
      "chip": "ym2612"
    },
    {
      "channel": 4,
      "note": 82,
      "start": 50.8986,
      "duration": 0.2104,
      "velocity": 94,
      "chip": "ym2612"
    },
    {
      "channel": 3,
      "note": 82,
      "start": 51.0216,
      "duration": 0.4212,
      "velocity": 94,
      "chip": "ym2612"
    },
    {
      "channel": 5,
      "note": 73,
      "start": 51.022,
      "duration": 0.1748,
      "velocity": 90,
      "chip": "ym2612"
    },
    {
      "channel": 4,
      "note": 82,
      "start": 51.1094,
      "duration": 0.4212,
      "velocity": 94,
      "chip": "ym2612"
    },
    {
      "channel": 5,
      "note": 63,
      "start": 51.2323,
      "duration": 0.1753,
      "velocity": 90,
      "chip": "ym2612"
    },
    {
      "channel": 0,
      "note": 85,
      "start": 51.2588,
      "duration": 0.0961,
      "velocity": 109,
      "chip": "ym2612"
    },
    {
      "channel": 1,
      "note": 85,
      "start": 51.2674,
      "duration": 0.0963,
      "velocity": 109,
      "chip": "ym2612"
    },
    {
      "channel": 2,
      "note": 85,
      "start": 51.3026,
      "duration": 0.4212,
      "velocity": 109,
      "chip": "ym2612"
    },
    {
      "channel": 3,
      "note": 80,
      "start": 51.4432,
      "duration": 0.4212,
      "velocity": 94,
      "chip": "ym2612"
    },
    {
      "channel": 5,
      "note": 68,
      "start": 51.4437,
      "duration": 0.1748,
      "velocity": 90,
      "chip": "ym2612"
    },
    {
      "channel": 4,
      "note": 80,
      "start": 51.531,
      "duration": 0.4212,
      "velocity": 94,
      "chip": "ym2612"
    },
    {
      "channel": 0,
      "note": 85,
      "start": 51.6542,
      "duration": 0.096,
      "velocity": 109,
      "chip": "ym2612"
    },
    {
      "channel": 5,
      "note": 72,
      "start": 51.6547,
      "duration": 0.1746,
      "velocity": 90,
      "chip": "ym2612"
    },
    {
      "channel": 1,
      "note": 85,
      "start": 51.6627,
      "duration": 0.0963,
      "velocity": 109,
      "chip": "ym2612"
    },
    {
      "channel": 2,
      "note": 85,
      "start": 51.7246,
      "duration": 0.2101,
      "velocity": 109,
      "chip": "ym2612"
    },
    {
      "channel": 0,
      "note": 85,
      "start": 51.8649,
      "duration": 0.1928,
      "velocity": 109,
      "chip": "ym2612"
    },
    {
      "channel": 3,
      "note": 79,
      "start": 51.8653,
      "duration": 0.2099,
      "velocity": 94,
      "chip": "ym2612"
    },
    {
      "channel": 5,
      "note": 58,
      "start": 51.8658,
      "duration": 0.1743,
      "velocity": 90,
      "chip": "ym2612"
    },
    {
      "channel": 1,
      "note": 85,
      "start": 51.8735,
      "duration": 0.1929,
      "velocity": 109,
      "chip": "ym2612"
    },
    {
      "channel": 2,
      "note": 85,
      "start": 51.9351,
      "duration": 0.2103,
      "velocity": 109,
      "chip": "ym2612"
    },
    {
      "channel": 4,
      "note": 79,
      "start": 51.9527,
      "duration": 0.2109,
      "velocity": 94,
      "chip": "ym2612"
    },
    {
      "channel": 0,
      "note": 87,
      "start": 52.0757,
      "duration": 0.1928,
      "velocity": 109,
      "chip": "ym2612"
    },
    {
      "channel": 3,
      "note": 77,
      "start": 52.0761,
      "duration": 0.2099,
      "velocity": 94,
      "chip": "ym2612"
    },
    {
      "channel": 5,
      "note": 65,
      "start": 52.0766,
      "duration": 0.1743,
      "velocity": 90,
      "chip": "ym2612"
    },
    {
      "channel": 1,
      "note": 87,
      "start": 52.0846,
      "duration": 0.1926,
      "velocity": 109,
      "chip": "ym2612"
    },
    {
      "channel": 2,
      "note": 87,
      "start": 52.1459,
      "duration": 0.2103,
      "velocity": 109,
      "chip": "ym2612"
    },
    {
      "channel": 4,
      "note": 77,
      "start": 52.1642,
      "duration": 0.2096,
      "velocity": 94,
      "chip": "ym2612"
    },
    {
      "channel": 0,
      "note": 84,
      "start": 52.2865,
      "duration": 0.3158,
      "velocity": 109,
      "chip": "ym2612"
    },
    {
      "channel": 3,
      "note": 82,
      "start": 52.2869,
      "duration": 0.1045,
      "velocity": 94,
      "chip": "ym2612"
    },
    {
      "channel": 5,
      "note": 73,
      "start": 52.2874,
      "duration": 0.1743,
      "velocity": 90,
      "chip": "ym2612"
    },
    {
      "channel": 1,
      "note": 84,
      "start": 52.2952,
      "duration": 0.3159,
      "velocity": 109,
      "chip": "ym2612"
    },
    {
      "channel": 2,
      "note": 84,
      "start": 52.3568,
      "duration": 0.4217,
      "velocity": 109,
      "chip": "ym2612"
    },
    {
      "channel": 4,
      "note": 82,
      "start": 52.3746,
      "duration": 0.1046,
      "velocity": 94,
      "chip": "ym2612"
    },
    {
      "channel": 3,
      "note": 84,
      "start": 52.3918,
      "duration": 0.105,
      "velocity": 94,
      "chip": "ym2612"
    },
    {
      "channel": 4,
      "note": 84,
      "start": 52.4797,
      "duration": 0.105,
      "velocity": 94,
      "chip": "ym2612"
    },
    {
      "channel": 3,
      "note": 82,
      "start": 52.4973,
      "duration": 0.2104,
      "velocity": 94,
      "chip": "ym2612"
    },
    {
      "channel": 5,
      "note": 63,
      "start": 52.4978,
      "duration": 0.1748,
      "velocity": 90,
      "chip": "ym2612"
    },
    {
      "channel": 4,
      "note": 82,
      "start": 52.5851,
      "duration": 0.2104,
      "velocity": 94,
      "chip": "ym2612"
    },
    {
      "channel": 0,
      "note": 82,
      "start": 52.7081,
      "duration": 0.1928,
      "velocity": 109,
      "chip": "ym2612"
    },
    {
      "channel": 3,
      "note": 80,
      "start": 52.7086,
      "duration": 0.4207,
      "velocity": 94,
      "chip": "ym2612"
    },
    {
      "channel": 5,
      "note": 68,
      "start": 52.709,
      "duration": 0.1743,
      "velocity": 90,
      "chip": "ym2612"
    },
    {
      "channel": 1,
      "note": 82,
      "start": 52.7168,
      "duration": 0.1929,
      "velocity": 109,
      "chip": "ym2612"
    },
    {
      "channel": 2,
      "note": 82,
      "start": 52.7789,
      "duration": 0.2098,
      "velocity": 109,
      "chip": "ym2612"
    },
    {
      "channel": 4,
      "note": 80,
      "start": 52.7959,
      "duration": 0.4212,
      "velocity": 94,
      "chip": "ym2612"
    },
    {
      "channel": 0,
      "note": 80,
      "start": 52.9189,
      "duration": 0.1928,
      "velocity": 109,
      "chip": "ym2612"
    },
    {
      "channel": 5,
      "note": 72,
      "start": 52.9194,
      "duration": 0.1749,
      "velocity": 90,
      "chip": "ym2612"
    },
    {
      "channel": 1,
      "note": 80,
      "start": 52.9276,
      "duration": 0.193,
      "velocity": 109,
      "chip": "ym2612"
    },
    {
      "channel": 2,
      "note": 80,
      "start": 52.9892,
      "duration": 0.2103,
      "velocity": 109,
      "chip": "ym2612"
    },
    {
      "channel": 0,
      "note": 82,
      "start": 53.1298,
      "duration": 0.5968,
      "velocity": 109,
      "chip": "ym2612"
    },
    {
      "channel": 3,
      "note": 79,
      "start": 53.1302,
      "duration": 0.2099,
      "velocity": 94,
      "chip": "ym2612"
    },
    {
      "channel": 5,
      "note": 58,
      "start": 53.1308,
      "duration": 0.1742,
      "velocity": 90,
      "chip": "ym2612"
    },
    {
      "channel": 1,
      "note": 82,
      "start": 53.1384,
      "duration": 0.5971,
      "velocity": 109,
      "chip": "ym2612"
    },
    {
      "channel": 2,
      "note": 82,
      "start": 53.2,
      "duration": 0.632,
      "velocity": 109,
      "chip": "ym2612"
    },
    {
      "channel": 4,
      "note": 79,
      "start": 53.2176,
      "duration": 0.2104,
      "velocity": 94,
      "chip": "ym2612"
    },
    {
      "channel": 3,
      "note": 77,
      "start": 53.3405,
      "duration": 0.2104,
      "velocity": 94,
      "chip": "ym2612"
    },
    {
      "channel": 5,
      "note": 65,
      "start": 53.341,
      "duration": 0.1748,
      "velocity": 90,
      "chip": "ym2612"
    },
    {
      "channel": 4,
      "note": 77,
      "start": 53.4284,
      "duration": 0.2104,
      "velocity": 94,
      "chip": "ym2612"
    },
    {
      "channel": 3,
      "note": 82,
      "start": 53.5514,
      "duration": 0.105,
      "velocity": 94,
      "chip": "ym2612"
    },
    {
      "channel": 5,
      "note": 73,
      "start": 53.5518,
      "duration": 0.1749,
      "velocity": 90,
      "chip": "ym2612"
    },
    {
      "channel": 4,
      "note": 82,
      "start": 53.6392,
      "duration": 0.1052,
      "velocity": 94,
      "chip": "ym2612"
    },
    {
      "channel": 3,
      "note": 84,
      "start": 53.6567,
      "duration": 0.105,
      "velocity": 94,
      "chip": "ym2612"
    },
    {
      "channel": 4,
      "note": 84,
      "start": 53.7448,
      "duration": 0.1048,
      "velocity": 94,
      "chip": "ym2612"
    },
    {
      "channel": 0,
      "note": 85,
      "start": 53.7622,
      "duration": 0.0875,
      "velocity": 109,
      "chip": "ym2612"
    },
    {
      "channel": 3,
      "note": 82,
      "start": 53.7627,
      "duration": 0.2099,
      "velocity": 94,
      "chip": "ym2612"
    },
    {
      "channel": 5,
      "note": 63,
      "start": 53.7631,
      "duration": 0.1743,
      "velocity": 90,
      "chip": "ym2612"
    },
    {
      "channel": 1,
      "note": 85,
      "start": 53.7709,
      "duration": 0.0875,
      "velocity": 109,
      "chip": "ym2612"
    },
    {
      "channel": 2,
      "note": 85,
      "start": 53.8325,
      "duration": 0.4212,
      "velocity": 109,
      "chip": "ym2612"
    },
    {
      "channel": 4,
      "note": 82,
      "start": 53.8501,
      "duration": 0.2103,
      "velocity": 94,
      "chip": "ym2612"
    },
    {
      "channel": 3,
      "note": 80,
      "start": 53.973,
      "duration": 0.4214,
      "velocity": 94,
      "chip": "ym2612"
    },
    {
      "channel": 5,
      "note": 68,
      "start": 53.9735,
      "duration": 0.1748,
      "velocity": 90,
      "chip": "ym2612"
    },
    {
      "channel": 4,
      "note": 80,
      "start": 54.0608,
      "duration": 0.4212,
      "velocity": 94,
      "chip": "ym2612"
    },
    {
      "channel": 0,
      "note": 85,
      "start": 54.1837,
      "duration": 0.105,
      "velocity": 109,
      "chip": "ym2612"
    },
    {
      "channel": 5,
      "note": 72,
      "start": 54.1845,
      "duration": 0.1746,
      "velocity": 90,
      "chip": "ym2612"
    },
    {
      "channel": 1,
      "note": 85,
      "start": 54.1925,
      "duration": 0.105,
      "velocity": 109,
      "chip": "ym2612"
    },
    {
      "channel": 2,
      "note": 85,
      "start": 54.2544,
      "duration": 0.2101,
      "velocity": 109,
      "chip": "ym2612"
    },
    {
      "channel": 0,
      "note": 85,
      "start": 54.3949,
      "duration": 0.1926,
      "velocity": 109,
      "chip": "ym2612"
    },
    {
      "channel": 3,
      "note": 79,
      "start": 54.3953,
      "duration": 0.2097,
      "velocity": 94,
      "chip": "ym2612"
    },
    {
      "channel": 5,
      "note": 58,
      "start": 54.3958,
      "duration": 0.1741,
      "velocity": 90,
      "chip": "ym2612"
    },
    {
      "channel": 1,
      "note": 85,
      "start": 54.4033,
      "duration": 0.1929,
      "velocity": 109,
      "chip": "ym2612"
    },
    {
      "channel": 2,
      "note": 85,
      "start": 54.4649,
      "duration": 0.2103,
      "velocity": 109,
      "chip": "ym2612"
    },
    {
      "channel": 4,
      "note": 79,
      "start": 54.4824,
      "duration": 0.2104,
      "velocity": 94,
      "chip": "ym2612"
    },
    {
      "channel": 0,
      "note": 87,
      "start": 54.6055,
      "duration": 0.1928,
      "velocity": 109,
      "chip": "ym2612"
    },
    {
      "channel": 3,
      "note": 77,
      "start": 54.6059,
      "duration": 0.2099,
      "velocity": 94,
      "chip": "ym2612"
    },
    {
      "channel": 5,
      "note": 65,
      "start": 54.6064,
      "duration": 0.1743,
      "velocity": 90,
      "chip": "ym2612"
    },
    {
      "channel": 1,
      "note": 87,
      "start": 54.6144,
      "duration": 0.1926,
      "velocity": 109,
      "chip": "ym2612"
    },
    {
      "channel": 2,
      "note": 87,
      "start": 54.6757,
      "duration": 0.2103,
      "velocity": 109,
      "chip": "ym2612"
    },
    {
      "channel": 4,
      "note": 77,
      "start": 54.6934,
      "duration": 0.2103,
      "velocity": 94,
      "chip": "ym2612"
    },
    {
      "channel": 0,
      "note": 84,
      "start": 54.8163,
      "duration": 0.3157,
      "velocity": 109,
      "chip": "ym2612"
    },
    {
      "channel": 3,
      "note": 75,
      "start": 54.8167,
      "duration": 0.4212,
      "velocity": 94,
      "chip": "ym2612"
    },
    {
      "channel": 5,
      "note": 73,
      "start": 54.8172,
      "duration": 0.1743,
      "velocity": 90,
      "chip": "ym2612"
    },
    {
      "channel": 1,
      "note": 84,
      "start": 54.8253,
      "duration": 0.3155,
      "velocity": 109,
      "chip": "ym2612"
    },
    {
      "channel": 2,
      "note": 84,
      "start": 54.8866,
      "duration": 0.4212,
      "velocity": 109,
      "chip": "ym2612"
    },
    {
      "channel": 4,
      "note": 75,
      "start": 54.9043,
      "duration": 0.4209,
      "velocity": 94,
      "chip": "ym2612"
    },
    {
      "channel": 5,
      "note": 63,
      "start": 55.027,
      "duration": 0.1753,
      "velocity": 90,
      "chip": "ym2612"
    },
    {
      "channel": 0,
      "note": 82,
      "start": 55.2384,
      "duration": 0.1922,
      "velocity": 109,
      "chip": "ym2612"
    },
    {
      "channel": 3,
      "note": 79,
      "start": 55.2389,
      "duration": 0.4202,
      "velocity": 94,
      "chip": "ym2612"
    },
    {
      "channel": 5,
      "note": 68,
      "start": 55.2394,
      "duration": 0.1738,
      "velocity": 90,
      "chip": "ym2612"
    },
    {
      "channel": 1,
      "note": 82,
      "start": 55.2466,
      "duration": 0.193,
      "velocity": 109,
      "chip": "ym2612"
    },
    {
      "channel": 2,
      "note": 82,
      "start": 55.3083,
      "duration": 0.2102,
      "velocity": 109,
      "chip": "ym2612"
    },
    {
      "channel": 4,
      "note": 79,
      "start": 55.3257,
      "duration": 0.4212,
      "velocity": 94,
      "chip": "ym2612"
    },
    {
      "channel": 0,
      "note": 80,
      "start": 55.4486,
      "duration": 0.1929,
      "velocity": 109,
      "chip": "ym2612"
    },
    {
      "channel": 5,
      "note": 72,
      "start": 55.4492,
      "duration": 0.1749,
      "velocity": 90,
      "chip": "ym2612"
    },
    {
      "channel": 1,
      "note": 80,
      "start": 55.4574,
      "duration": 0.1929,
      "velocity": 109,
      "chip": "ym2612"
    },
    {
      "channel": 2,
      "note": 80,
      "start": 55.519,
      "duration": 0.2103,
      "velocity": 109,
      "chip": "ym2612"
    },
    {
      "channel": 0,
      "note": 82,
      "start": 55.6595,
      "duration": 0.6495,
      "velocity": 109,
      "chip": "ym2612"
    },
    {
      "channel": 3,
      "note": 77,
      "start": 55.66,
      "duration": 4.8478,
      "velocity": 94,
      "chip": "ym2612"
    },
    {
      "channel": 5,
      "note": 58,
      "start": 55.6605,
      "duration": 0.1743,
      "velocity": 90,
      "chip": "ym2612"
    },
    {
      "channel": 1,
      "note": 82,
      "start": 55.6682,
      "duration": 0.6496,
      "velocity": 109,
      "chip": "ym2612"
    },
    {
      "channel": 2,
      "note": 82,
      "start": 55.7298,
      "duration": 0.632,
      "velocity": 109,
      "chip": "ym2612"
    },
    {
      "channel": 4,
      "note": 77,
      "start": 55.7473,
      "duration": 4.8483,
      "velocity": 94,
      "chip": "ym2612"
    },
    {
      "channel": 5,
      "note": 65,
      "start": 55.8703,
      "duration": 0.1753,
      "velocity": 90,
      "chip": "ym2612"
    },
    {
      "channel": 5,
      "note": 73,
      "start": 56.0811,
      "duration": 0.1753,
      "velocity": 90,
      "chip": "ym2612"
    },
    {
      "channel": 5,
      "note": 63,
      "start": 56.2919,
      "duration": 0.1754,
      "velocity": 90,
      "chip": "ym2612"
    },
    {
      "channel": 0,
      "note": 85,
      "start": 56.3183,
      "duration": 0.0874,
      "velocity": 109,
      "chip": "ym2612"
    },
    {
      "channel": 1,
      "note": 85,
      "start": 56.327,
      "duration": 0.0875,
      "velocity": 109,
      "chip": "ym2612"
    },
    {
      "channel": 2,
      "note": 85,
      "start": 56.3623,
      "duration": 0.4212,
      "velocity": 109,
      "chip": "ym2612"
    },
    {
      "channel": 5,
      "note": 68,
      "start": 56.5027,
      "duration": 0.1753,
      "velocity": 90,
      "chip": "ym2612"
    },
    {
      "channel": 0,
      "note": 85,
      "start": 56.7135,
      "duration": 0.0875,
      "velocity": 109,
      "chip": "ym2612"
    },
    {
      "channel": 5,
      "note": 72,
      "start": 56.7142,
      "duration": 0.1746,
      "velocity": 90,
      "chip": "ym2612"
    },
    {
      "channel": 1,
      "note": 85,
      "start": 56.7223,
      "duration": 0.0876,
      "velocity": 109,
      "chip": "ym2612"
    },
    {
      "channel": 2,
      "note": 85,
      "start": 56.7839,
      "duration": 0.2105,
      "velocity": 109,
      "chip": "ym2612"
    },
    {
      "channel": 0,
      "note": 85,
      "start": 56.9246,
      "duration": 0.1926,
      "velocity": 109,
      "chip": "ym2612"
    },
    {
      "channel": 5,
      "note": 58,
      "start": 56.9251,
      "duration": 0.1746,
      "velocity": 90,
      "chip": "ym2612"
    },
    {
      "channel": 1,
      "note": 85,
      "start": 56.9331,
      "duration": 0.1929,
      "velocity": 109,
      "chip": "ym2612"
    },
    {
      "channel": 2,
      "note": 85,
      "start": 56.9949,
      "duration": 0.2102,
      "velocity": 109,
      "chip": "ym2612"
    },
    {
      "channel": 0,
      "note": 87,
      "start": 57.1351,
      "duration": 0.1929,
      "velocity": 109,
      "chip": "ym2612"
    },
    {
      "channel": 5,
      "note": 65,
      "start": 57.1356,
      "duration": 0.1748,
      "velocity": 90,
      "chip": "ym2612"
    },
    {
      "channel": 1,
      "note": 87,
      "start": 57.1442,
      "duration": 0.1926,
      "velocity": 109,
      "chip": "ym2612"
    },
    {
      "channel": 2,
      "note": 87,
      "start": 57.2055,
      "duration": 0.2103,
      "velocity": 109,
      "chip": "ym2612"
    },
    {
      "channel": 0,
      "note": 84,
      "start": 57.346,
      "duration": 0.3159,
      "velocity": 109,
      "chip": "ym2612"
    },
    {
      "channel": 5,
      "note": 73,
      "start": 57.3465,
      "duration": 0.1748,
      "velocity": 90,
      "chip": "ym2612"
    },
    {
      "channel": 1,
      "note": 84,
      "start": 57.3549,
      "duration": 0.3157,
      "velocity": 109,
      "chip": "ym2612"
    },
    {
      "channel": 2,
      "note": 84,
      "start": 57.4163,
      "duration": 0.4211,
      "velocity": 109,
      "chip": "ym2612"
    },
    {
      "channel": 5,
      "note": 63,
      "start": 57.5568,
      "duration": 0.1753,
      "velocity": 90,
      "chip": "ym2612"
    },
    {
      "channel": 0,
      "note": 82,
      "start": 57.7677,
      "duration": 0.1928,
      "velocity": 109,
      "chip": "ym2612"
    },
    {
      "channel": 5,
      "note": 68,
      "start": 57.7682,
      "duration": 0.1747,
      "velocity": 90,
      "chip": "ym2612"
    },
    {
      "channel": 1,
      "note": 82,
      "start": 57.7764,
      "duration": 0.1929,
      "velocity": 109,
      "chip": "ym2612"
    },
    {
      "channel": 2,
      "note": 82,
      "start": 57.8381,
      "duration": 0.2102,
      "velocity": 109,
      "chip": "ym2612"
    },
    {
      "channel": 0,
      "note": 80,
      "start": 57.9784,
      "duration": 0.1929,
      "velocity": 109,
      "chip": "ym2612"
    },
    {
      "channel": 5,
      "note": 72,
      "start": 57.9789,
      "duration": 0.1748,
      "velocity": 90,
      "chip": "ym2612"
    },
    {
      "channel": 1,
      "note": 80,
      "start": 57.9872,
      "duration": 0.1929,
      "velocity": 109,
      "chip": "ym2612"
    },
    {
      "channel": 2,
      "note": 80,
      "start": 58.0488,
      "duration": 0.2103,
      "velocity": 109,
      "chip": "ym2612"
    },
    {
      "channel": 0,
      "note": 82,
      "start": 58.1892,
      "duration": 0.5969,
      "velocity": 109,
      "chip": "ym2612"
    },
    {
      "channel": 5,
      "note": 58,
      "start": 58.1897,
      "duration": 0.1748,
      "velocity": 90,
      "chip": "ym2612"
    },
    {
      "channel": 1,
      "note": 82,
      "start": 58.198,
      "duration": 0.5969,
      "velocity": 109,
      "chip": "ym2612"
    },
    {
      "channel": 2,
      "note": 82,
      "start": 58.2596,
      "duration": 0.632,
      "velocity": 109,
      "chip": "ym2612"
    },
    {
      "channel": 5,
      "note": 65,
      "start": 58.4,
      "duration": 0.1753,
      "velocity": 90,
      "chip": "ym2612"
    },
    {
      "channel": 5,
      "note": 73,
      "start": 58.6109,
      "duration": 0.1754,
      "velocity": 90,
      "chip": "ym2612"
    },
    {
      "channel": 0,
      "note": 85,
      "start": 58.8217,
      "duration": 0.0875,
      "velocity": 109,
      "chip": "ym2612"
    },
    {
      "channel": 5,
      "note": 63,
      "start": 58.8222,
      "duration": 0.1748,
      "velocity": 90,
      "chip": "ym2612"
    },
    {
      "channel": 1,
      "note": 85,
      "start": 58.8305,
      "duration": 0.0875,
      "velocity": 109,
      "chip": "ym2612"
    },
    {
      "channel": 2,
      "note": 85,
      "start": 58.8921,
      "duration": 0.4211,
      "velocity": 109,
      "chip": "ym2612"
    },
    {
      "channel": 5,
      "note": 68,
      "start": 59.0325,
      "duration": 0.1753,
      "velocity": 90,
      "chip": "ym2612"
    },
    {
      "channel": 0,
      "note": 85,
      "start": 59.2433,
      "duration": 0.0787,
      "velocity": 109,
      "chip": "ym2612"
    },
    {
      "channel": 5,
      "note": 72,
      "start": 59.2438,
      "duration": 0.1748,
      "velocity": 90,
      "chip": "ym2612"
    },
    {
      "channel": 1,
      "note": 85,
      "start": 59.2521,
      "duration": 0.0787,
      "velocity": 109,
      "chip": "ym2612"
    },
    {
      "channel": 2,
      "note": 85,
      "start": 59.3137,
      "duration": 0.2106,
      "velocity": 109,
      "chip": "ym2612"
    },
    {
      "channel": 0,
      "note": 85,
      "start": 59.4544,
      "duration": 0.1926,
      "velocity": 109,
      "chip": "ym2612"
    },
    {
      "channel": 5,
      "note": 58,
      "start": 59.4549,
      "duration": 0.1746,
      "velocity": 90,
      "chip": "ym2612"
    },
    {
      "channel": 1,
      "note": 85,
      "start": 59.4629,
      "duration": 0.1929,
      "velocity": 109,
      "chip": "ym2612"
    },
    {
      "channel": 2,
      "note": 85,
      "start": 59.5247,
      "duration": 0.2101,
      "velocity": 109,
      "chip": "ym2612"
    },
    {
      "channel": 0,
      "note": 87,
      "start": 59.6649,
      "duration": 0.1929,
      "velocity": 109,
      "chip": "ym2612"
    },
    {
      "channel": 5,
      "note": 65,
      "start": 59.6654,
      "duration": 0.1748,
      "velocity": 90,
      "chip": "ym2612"
    },
    {
      "channel": 1,
      "note": 87,
      "start": 59.6737,
      "duration": 0.1929,
      "velocity": 109,
      "chip": "ym2612"
    },
    {
      "channel": 2,
      "note": 87,
      "start": 59.7353,
      "duration": 0.2103,
      "velocity": 109,
      "chip": "ym2612"
    },
    {
      "channel": 0,
      "note": 84,
      "start": 59.8758,
      "duration": 0.3159,
      "velocity": 109,
      "chip": "ym2612"
    },
    {
      "channel": 5,
      "note": 73,
      "start": 59.8763,
      "duration": 0.1748,
      "velocity": 90,
      "chip": "ym2612"
    },
    {
      "channel": 1,
      "note": 84,
      "start": 59.8848,
      "duration": 0.3156,
      "velocity": 109,
      "chip": "ym2612"
    },
    {
      "channel": 2,
      "note": 84,
      "start": 59.9461,
      "duration": 0.4211,
      "velocity": 109,
      "chip": "ym2612"
    },
    {
      "channel": 5,
      "note": 63,
      "start": 60.0866,
      "duration": 0.1753,
      "velocity": 90,
      "chip": "ym2612"
    },
    {
      "channel": 0,
      "note": 82,
      "start": 60.2975,
      "duration": 0.1928,
      "velocity": 109,
      "chip": "ym2612"
    },
    {
      "channel": 5,
      "note": 68,
      "start": 60.298,
      "duration": 0.1747,
      "velocity": 90,
      "chip": "ym2612"
    },
    {
      "channel": 1,
      "note": 82,
      "start": 60.3062,
      "duration": 0.193,
      "velocity": 109,
      "chip": "ym2612"
    },
    {
      "channel": 2,
      "note": 82,
      "start": 60.3678,
      "duration": 0.2103,
      "velocity": 109,
      "chip": "ym2612"
    },
    {
      "channel": 0,
      "note": 80,
      "start": 60.5083,
      "duration": 0.193,
      "velocity": 109,
      "chip": "ym2612"
    },
    {
      "channel": 5,
      "note": 72,
      "start": 60.5088,
      "duration": 0.1747,
      "velocity": 90,
      "chip": "ym2612"
    },
    {
      "channel": 1,
      "note": 80,
      "start": 60.517,
      "duration": 0.1929,
      "velocity": 109,
      "chip": "ym2612"
    },
    {
      "channel": 2,
      "note": 80,
      "start": 60.5786,
      "duration": 0.2103,
      "velocity": 109,
      "chip": "ym2612"
    },
    {
      "channel": 0,
      "note": 82,
      "start": 60.719,
      "duration": 0.6496,
      "velocity": 109,
      "chip": "ym2612"
    },
    {
      "channel": 3,
      "note": 70,
      "start": 60.7195,
      "duration": 0.6141,
      "velocity": 94,
      "chip": "ym2612"
    },
    {
      "channel": 5,
      "note": 51,
      "start": 60.72,
      "duration": 0.1744,
      "velocity": 90,
      "chip": "ym2612"
    },
    {
      "channel": 1,
      "note": 82,
      "start": 60.7278,
      "duration": 0.6496,
      "velocity": 109,
      "chip": "ym2612"
    },
    {
      "channel": 2,
      "note": 82,
      "start": 60.7894,
      "duration": 0.632,
      "velocity": 109,
      "chip": "ym2612"
    },
    {
      "channel": 4,
      "note": 70,
      "start": 60.8068,
      "duration": 0.6146,
      "velocity": 94,
      "chip": "ym2612"
    },
    {
      "channel": 5,
      "note": 58,
      "start": 60.9298,
      "duration": 0.1753,
      "velocity": 90,
      "chip": "ym2612"
    },
    {
      "channel": 5,
      "note": 73,
      "start": 61.1407,
      "duration": 0.1756,
      "velocity": 90,
      "chip": "ym2612"
    },
    {
      "channel": 3,
      "note": 75,
      "start": 61.3342,
      "duration": 0.4385,
      "velocity": 94,
      "chip": "ym2612"
    },
    {
      "channel": 5,
      "note": 63,
      "start": 61.3515,
      "duration": 0.1753,
      "velocity": 90,
      "chip": "ym2612"
    },
    {
      "channel": 0,
      "note": 85,
      "start": 61.3779,
      "duration": 0.0873,
      "velocity": 109,
      "chip": "ym2612"
    },
    {
      "channel": 1,
      "note": 85,
      "start": 61.3867,
      "duration": 0.0876,
      "velocity": 109,
      "chip": "ym2612"
    },
    {
      "channel": 2,
      "note": 85,
      "start": 61.422,
      "duration": 0.421,
      "velocity": 109,
      "chip": "ym2612"
    },
    {
      "channel": 4,
      "note": 75,
      "start": 61.4224,
      "duration": 0.4382,
      "velocity": 94,
      "chip": "ym2612"
    },
    {
      "channel": 5,
      "note": 68,
      "start": 61.5623,
      "duration": 0.1753,
      "velocity": 90,
      "chip": "ym2612"
    },
    {
      "channel": 0,
      "note": 85,
      "start": 61.7732,
      "duration": 0.0699,
      "velocity": 109,
      "chip": "ym2612"
    },
    {
      "channel": 3,
      "note": 75,
      "start": 61.7737,
      "duration": 0.2099,
      "velocity": 94,
      "chip": "ym2612"
    },
    {
      "channel": 5,
      "note": 72,
      "start": 61.7744,
      "duration": 0.174,
      "velocity": 90,
      "chip": "ym2612"
    },
    {
      "channel": 1,
      "note": 85,
      "start": 61.7819,
      "duration": 0.0699,
      "velocity": 109,
      "chip": "ym2612"
    },
    {
      "channel": 2,
      "note": 85,
      "start": 61.8436,
      "duration": 0.2102,
      "velocity": 109,
      "chip": "ym2612"
    },
    {
      "channel": 4,
      "note": 75,
      "start": 61.861,
      "duration": 0.2104,
      "velocity": 94,
      "chip": "ym2612"
    },
    {
      "channel": 0,
      "note": 85,
      "start": 61.9843,
      "duration": 0.1925,
      "velocity": 109,
      "chip": "ym2612"
    },
    {
      "channel": 3,
      "note": 75,
      "start": 61.9847,
      "duration": 0.2097,
      "velocity": 94,
      "chip": "ym2612"
    },
    {
      "channel": 5,
      "note": 51,
      "start": 61.9852,
      "duration": 0.174,
      "velocity": 90,
      "chip": "ym2612"
    },
    {
      "channel": 1,
      "note": 85,
      "start": 61.9927,
      "duration": 0.1929,
      "velocity": 109,
      "chip": "ym2612"
    },
    {
      "channel": 2,
      "note": 85,
      "start": 62.0545,
      "duration": 0.2101,
      "velocity": 109,
      "chip": "ym2612"
    },
    {
      "channel": 4,
      "note": 75,
      "start": 62.072,
      "duration": 0.2102,
      "velocity": 94,
      "chip": "ym2612"
    },
    {
      "channel": 0,
      "note": 87,
      "start": 62.1949,
      "duration": 0.1928,
      "velocity": 109,
      "chip": "ym2612"
    },
    {
      "channel": 3,
      "note": 77,
      "start": 62.1953,
      "duration": 0.2099,
      "velocity": 94,
      "chip": "ym2612"
    },
    {
      "channel": 5,
      "note": 58,
      "start": 62.1958,
      "duration": 0.1743,
      "velocity": 90,
      "chip": "ym2612"
    },
    {
      "channel": 1,
      "note": 87,
      "start": 62.2035,
      "duration": 0.1929,
      "velocity": 109,
      "chip": "ym2612"
    },
    {
      "channel": 2,
      "note": 87,
      "start": 62.2651,
      "duration": 0.2103,
      "velocity": 109,
      "chip": "ym2612"
    },
    {
      "channel": 4,
      "note": 77,
      "start": 62.2827,
      "duration": 0.2104,
      "velocity": 94,
      "chip": "ym2612"
    },
    {
      "channel": 0,
      "note": 84,
      "start": 62.4056,
      "duration": 0.3158,
      "velocity": 109,
      "chip": "ym2612"
    },
    {
      "channel": 3,
      "note": 72,
      "start": 62.4061,
      "duration": 0.1045,
      "velocity": 94,
      "chip": "ym2612"
    },
    {
      "channel": 5,
      "note": 73,
      "start": 62.4066,
      "duration": 0.1743,
      "velocity": 90,
      "chip": "ym2612"
    },
    {
      "channel": 1,
      "note": 84,
      "start": 62.4147,
      "duration": 0.3155,
      "velocity": 109,
      "chip": "ym2612"
    },
    {
      "channel": 2,
      "note": 84,
      "start": 62.4759,
      "duration": 0.4212,
      "velocity": 109,
      "chip": "ym2612"
    },
    {
      "channel": 4,
      "note": 72,
      "start": 62.4935,
      "duration": 0.105,
      "velocity": 94,
      "chip": "ym2612"
    },
    {
      "channel": 3,
      "note": 74,
      "start": 62.511,
      "duration": 0.1051,
      "velocity": 94,
      "chip": "ym2612"
    },
    {
      "channel": 4,
      "note": 74,
      "start": 62.5988,
      "duration": 0.105,
      "velocity": 94,
      "chip": "ym2612"
    },
    {
      "channel": 3,
      "note": 72,
      "start": 62.6166,
      "duration": 0.2102,
      "velocity": 94,
      "chip": "ym2612"
    },
    {
      "channel": 5,
      "note": 63,
      "start": 62.617,
      "duration": 0.1746,
      "velocity": 90,
      "chip": "ym2612"
    },
    {
      "channel": 4,
      "note": 72,
      "start": 62.7045,
      "duration": 0.2101,
      "velocity": 94,
      "chip": "ym2612"
    },
    {
      "channel": 0,
      "note": 82,
      "start": 62.8273,
      "duration": 0.1928,
      "velocity": 109,
      "chip": "ym2612"
    },
    {
      "channel": 3,
      "note": 70,
      "start": 62.8278,
      "duration": 0.2098,
      "velocity": 94,
      "chip": "ym2612"
    },
    {
      "channel": 5,
      "note": 68,
      "start": 62.8283,
      "duration": 0.1741,
      "velocity": 90,
      "chip": "ym2612"
    },
    {
      "channel": 1,
      "note": 82,
      "start": 62.836,
      "duration": 0.1929,
      "velocity": 109,
      "chip": "ym2612"
    },
    {
      "channel": 2,
      "note": 82,
      "start": 62.8976,
      "duration": 0.2103,
      "velocity": 109,
      "chip": "ym2612"
    },
    {
      "channel": 4,
      "note": 70,
      "start": 62.9151,
      "duration": 0.2104,
      "velocity": 94,
      "chip": "ym2612"
    },
    {
      "channel": 0,
      "note": 80,
      "start": 63.0381,
      "duration": 0.1929,
      "velocity": 109,
      "chip": "ym2612"
    },
    {
      "channel": 3,
      "note": 68,
      "start": 63.0385,
      "duration": 0.2099,
      "velocity": 94,
      "chip": "ym2612"
    },
    {
      "channel": 5,
      "note": 72,
      "start": 63.039,
      "duration": 0.1743,
      "velocity": 90,
      "chip": "ym2612"
    },
    {
      "channel": 1,
      "note": 80,
      "start": 63.0468,
      "duration": 0.1929,
      "velocity": 109,
      "chip": "ym2612"
    },
    {
      "channel": 2,
      "note": 80,
      "start": 63.1084,
      "duration": 0.2103,
      "velocity": 109,
      "chip": "ym2612"
    },
    {
      "channel": 4,
      "note": 68,
      "start": 63.1259,
      "duration": 0.2104,
      "velocity": 94,
      "chip": "ym2612"
    },
    {
      "channel": 0,
      "note": 82,
      "start": 63.2489,
      "duration": 0.5969,
      "velocity": 109,
      "chip": "ym2612"
    },
    {
      "channel": 3,
      "note": 70,
      "start": 63.2494,
      "duration": 0.6315,
      "velocity": 94,
      "chip": "ym2612"
    },
    {
      "channel": 5,
      "note": 51,
      "start": 63.2498,
      "duration": 0.1745,
      "velocity": 90,
      "chip": "ym2612"
    },
    {
      "channel": 1,
      "note": 82,
      "start": 63.2576,
      "duration": 0.5969,
      "velocity": 109,
      "chip": "ym2612"
    },
    {
      "channel": 2,
      "note": 82,
      "start": 63.3192,
      "duration": 0.632,
      "velocity": 109,
      "chip": "ym2612"
    },
    {
      "channel": 4,
      "note": 70,
      "start": 63.3367,
      "duration": 0.632,
      "velocity": 94,
      "chip": "ym2612"
    },
    {
      "channel": 5,
      "note": 58,
      "start": 63.4596,
      "duration": 0.1753,
      "velocity": 90,
      "chip": "ym2612"
    },
    {
      "channel": 5,
      "note": 73,
      "start": 63.6705,
      "duration": 0.1755,
      "velocity": 90,
      "chip": "ym2612"
    },
    {
      "channel": 0,
      "note": 85,
      "start": 63.8814,
      "duration": 0.0961,
      "velocity": 109,
      "chip": "ym2612"
    },
    {
      "channel": 3,
      "note": 75,
      "start": 63.8818,
      "duration": 0.4207,
      "velocity": 94,
      "chip": "ym2612"
    },
    {
      "channel": 5,
      "note": 63,
      "start": 63.8823,
      "duration": 0.1743,
      "velocity": 90,
      "chip": "ym2612"
    },
    {
      "channel": 1,
      "note": 85,
      "start": 63.89,
      "duration": 0.0963,
      "velocity": 109,
      "chip": "ym2612"
    },
    {
      "channel": 2,
      "note": 85,
      "start": 63.9516,
      "duration": 0.4212,
      "velocity": 109,
      "chip": "ym2612"
    },
    {
      "channel": 4,
      "note": 75,
      "start": 63.9692,
      "duration": 0.4214,
      "velocity": 94,
      "chip": "ym2612"
    },
    {
      "channel": 5,
      "note": 68,
      "start": 64.0921,
      "duration": 0.1753,
      "velocity": 90,
      "chip": "ym2612"
    },
    {
      "channel": 0,
      "note": 85,
      "start": 64.303,
      "duration": 0.0961,
      "velocity": 109,
      "chip": "ym2612"
    },
    {
      "channel": 3,
      "note": 75,
      "start": 64.3034,
      "duration": 0.2099,
      "velocity": 94,
      "chip": "ym2612"
    },
    {
      "channel": 5,
      "note": 72,
      "start": 64.3042,
      "duration": 0.174,
      "velocity": 90,
      "chip": "ym2612"
    },
    {
      "channel": 1,
      "note": 85,
      "start": 64.3117,
      "duration": 0.0963,
      "velocity": 109,
      "chip": "ym2612"
    },
    {
      "channel": 2,
      "note": 85,
      "start": 64.3733,
      "duration": 0.2103,
      "velocity": 109,
      "chip": "ym2612"
    },
    {
      "channel": 4,
      "note": 75,
      "start": 64.391,
      "duration": 0.2101,
      "velocity": 94,
      "chip": "ym2612"
    },
    {
      "channel": 0,
      "note": 85,
      "start": 64.5138,
      "duration": 0.1928,
      "velocity": 109,
      "chip": "ym2612"
    },
    {
      "channel": 3,
      "note": 73,
      "start": 64.5145,
      "duration": 0.2099,
      "velocity": 94,
      "chip": "ym2612"
    },
    {
      "channel": 5,
      "note": 51,
      "start": 64.515,
      "duration": 0.174,
      "velocity": 90,
      "chip": "ym2612"
    },
    {
      "channel": 1,
      "note": 85,
      "start": 64.5225,
      "duration": 0.1929,
      "velocity": 109,
      "chip": "ym2612"
    },
    {
      "channel": 2,
      "note": 85,
      "start": 64.5843,
      "duration": 0.2101,
      "velocity": 109,
      "chip": "ym2612"
    },
    {
      "channel": 4,
      "note": 73,
      "start": 64.6017,
      "duration": 0.2102,
      "velocity": 94,
      "chip": "ym2612"
    },
    {
      "channel": 0,
      "note": 87,
      "start": 64.7249,
      "duration": 0.0959,
      "velocity": 109,
      "chip": "ym2612"
    },
    {
      "channel": 3,
      "note": 75,
      "start": 64.7253,
      "duration": 0.2097,
      "velocity": 94,
      "chip": "ym2612"
    },
    {
      "channel": 5,
      "note": 58,
      "start": 64.7258,
      "duration": 0.1741,
      "velocity": 90,
      "chip": "ym2612"
    },
    {
      "channel": 1,
      "note": 87,
      "start": 64.7337,
      "duration": 0.0959,
      "velocity": 109,
      "chip": "ym2612"
    },
    {
      "channel": 2,
      "note": 87,
      "start": 64.7949,
      "duration": 0.2106,
      "velocity": 109,
      "chip": "ym2612"
    },
    {
      "channel": 4,
      "note": 75,
      "start": 64.8124,
      "duration": 0.2104,
      "velocity": 94,
      "chip": "ym2612"
    },
    {
      "channel": 0,
      "note": 84,
      "start": 64.9354,
      "duration": 0.3158,
      "velocity": 109,
      "chip": "ym2612"
    },
    {
      "channel": 3,
      "note": 77,
      "start": 64.9359,
      "duration": 0.2099,
      "velocity": 94,
      "chip": "ym2612"
    },
    {
      "channel": 5,
      "note": 73,
      "start": 64.9364,
      "duration": 0.1743,
      "velocity": 90,
      "chip": "ym2612"
    },
    {
      "channel": 1,
      "note": 84,
      "start": 64.9445,
      "duration": 0.3155,
      "velocity": 109,
      "chip": "ym2612"
    },
    {
      "channel": 2,
      "note": 84,
      "start": 65.006,
      "duration": 0.4209,
      "velocity": 109,
      "chip": "ym2612"
    },
    {
      "channel": 4,
      "note": 77,
      "start": 65.0233,
      "duration": 0.2104,
      "velocity": 94,
      "chip": "ym2612"
    },
    {
      "channel": 3,
      "note": 80,
      "start": 65.1463,
      "duration": 0.2102,
      "velocity": 94,
      "chip": "ym2612"
    },
    {
      "channel": 5,
      "note": 63,
      "start": 65.1468,
      "duration": 0.1746,
      "velocity": 90,
      "chip": "ym2612"
    },
    {
      "channel": 4,
      "note": 80,
      "start": 65.2343,
      "duration": 0.2101,
      "velocity": 94,
      "chip": "ym2612"
    },
    {
      "channel": 0,
      "note": 82,
      "start": 65.3571,
      "duration": 0.1928,
      "velocity": 109,
      "chip": "ym2612"
    },
    {
      "channel": 3,
      "note": 72,
      "start": 65.3576,
      "duration": 0.1044,
      "velocity": 94,
      "chip": "ym2612"
    },
    {
      "channel": 5,
      "note": 68,
      "start": 65.3581,
      "duration": 0.1742,
      "velocity": 90,
      "chip": "ym2612"
    },
    {
      "channel": 1,
      "note": 82,
      "start": 65.3658,
      "duration": 0.1929,
      "velocity": 109,
      "chip": "ym2612"
    },
    {
      "channel": 2,
      "note": 82,
      "start": 65.4273,
      "duration": 0.2103,
      "velocity": 109,
      "chip": "ym2612"
    },
    {
      "channel": 4,
      "note": 72,
      "start": 65.4449,
      "duration": 0.1051,
      "velocity": 94,
      "chip": "ym2612"
    },
    {
      "channel": 3,
      "note": 74,
      "start": 65.4624,
      "duration": 0.105,
      "velocity": 94,
      "chip": "ym2612"
    },
    {
      "channel": 4,
      "note": 74,
      "start": 65.5503,
      "duration": 0.1049,
      "velocity": 94,
      "chip": "ym2612"
    },
    {
      "channel": 0,
      "note": 80,
      "start": 65.5679,
      "duration": 0.193,
      "velocity": 109,
      "chip": "ym2612"
    },
    {
      "channel": 3,
      "note": 70,
      "start": 65.5683,
      "duration": 0.1045,
      "velocity": 94,
      "chip": "ym2612"
    },
    {
      "channel": 5,
      "note": 72,
      "start": 65.5688,
      "duration": 0.1743,
      "velocity": 90,
      "chip": "ym2612"
    },
    {
      "channel": 1,
      "note": 80,
      "start": 65.5766,
      "duration": 0.1929,
      "velocity": 109,
      "chip": "ym2612"
    },
    {
      "channel": 2,
      "note": 80,
      "start": 65.6382,
      "duration": 0.2103,
      "velocity": 109,
      "chip": "ym2612"
    },
    {
      "channel": 4,
      "note": 70,
      "start": 65.6557,
      "duration": 0.1049,
      "velocity": 94,
      "chip": "ym2612"
    },
    {
      "channel": 3,
      "note": 68,
      "start": 65.6733,
      "duration": 0.105,
      "velocity": 94,
      "chip": "ym2612"
    },
    {
      "channel": 4,
      "note": 68,
      "start": 65.7613,
      "duration": 0.1048,
      "velocity": 94,
      "chip": "ym2612"
    },
    {
      "channel": 0,
      "note": 82,
      "start": 65.7787,
      "duration": 0.6495,
      "velocity": 109,
      "chip": "ym2612"
    },
    {
      "channel": 3,
      "note": 70,
      "start": 65.7792,
      "duration": 0.2099,
      "velocity": 94,
      "chip": "ym2612"
    },
    {
      "channel": 5,
      "note": 51,
      "start": 65.7796,
      "duration": 0.1743,
      "velocity": 90,
      "chip": "ym2612"
    },
    {
      "channel": 1,
      "note": 82,
      "start": 65.7874,
      "duration": 0.6496,
      "velocity": 109,
      "chip": "ym2612"
    },
    {
      "channel": 2,
      "note": 82,
      "start": 65.849,
      "duration": 0.632,
      "velocity": 109,
      "chip": "ym2612"
    },
    {
      "channel": 4,
      "note": 70,
      "start": 65.8665,
      "duration": 0.2104,
      "velocity": 94,
      "chip": "ym2612"
    },
    {
      "channel": 3,
      "note": 75,
      "start": 65.9895,
      "duration": 0.2104,
      "velocity": 94,
      "chip": "ym2612"
    },
    {
      "channel": 5,
      "note": 58,
      "start": 65.99,
      "duration": 0.1748,
      "velocity": 90,
      "chip": "ym2612"
    },
    {
      "channel": 4,
      "note": 75,
      "start": 66.0773,
      "duration": 0.2104,
      "velocity": 94,
      "chip": "ym2612"
    },
    {
      "channel": 3,
      "note": 75,
      "start": 66.2003,
      "duration": 0.2104,
      "velocity": 94,
      "chip": "ym2612"
    },
    {
      "channel": 5,
      "note": 73,
      "start": 66.2008,
      "duration": 0.1748,
      "velocity": 90,
      "chip": "ym2612"
    },
    {
      "channel": 4,
      "note": 75,
      "start": 66.2882,
      "duration": 0.2104,
      "velocity": 94,
      "chip": "ym2612"
    },
    {
      "channel": 3,
      "note": 77,
      "start": 66.4111,
      "duration": 0.2104,
      "velocity": 94,
      "chip": "ym2612"
    },
    {
      "channel": 5,
      "note": 63,
      "start": 66.4116,
      "duration": 0.1748,
      "velocity": 90,
      "chip": "ym2612"
    },
    {
      "channel": 0,
      "note": 85,
      "start": 66.4375,
      "duration": 0.0874,
      "velocity": 109,
      "chip": "ym2612"
    },
    {
      "channel": 1,
      "note": 85,
      "start": 66.4463,
      "duration": 0.0874,
      "velocity": 109,
      "chip": "ym2612"
    },
    {
      "channel": 2,
      "note": 85,
      "start": 66.4814,
      "duration": 0.4212,
      "velocity": 109,
      "chip": "ym2612"
    },
    {
      "channel": 4,
      "note": 77,
      "start": 66.499,
      "duration": 0.2104,
      "velocity": 94,
      "chip": "ym2612"
    },
    {
      "channel": 3,
      "note": 80,
      "start": 66.622,
      "duration": 0.2104,
      "velocity": 94,
      "chip": "ym2612"
    },
    {
      "channel": 5,
      "note": 68,
      "start": 66.6224,
      "duration": 0.1748,
      "velocity": 90,
      "chip": "ym2612"
    },
    {
      "channel": 4,
      "note": 80,
      "start": 66.7098,
      "duration": 0.2109,
      "velocity": 94,
      "chip": "ym2612"
    },
    {
      "channel": 0,
      "note": 85,
      "start": 66.8328,
      "duration": 0.0786,
      "velocity": 109,
      "chip": "ym2612"
    },
    {
      "channel": 3,
      "note": 82,
      "start": 66.8332,
      "duration": 0.2099,
      "velocity": 94,
      "chip": "ym2612"
    },
    {
      "channel": 5,
      "note": 72,
      "start": 66.8337,
      "duration": 0.1743,
      "velocity": 90,
      "chip": "ym2612"
    },
    {
      "channel": 1,
      "note": 85,
      "start": 66.8415,
      "duration": 0.0793,
      "velocity": 109,
      "chip": "ym2612"
    },
    {
      "channel": 2,
      "note": 85,
      "start": 66.9031,
      "duration": 0.2103,
      "velocity": 109,
      "chip": "ym2612"
    },
    {
      "channel": 4,
      "note": 82,
      "start": 66.9212,
      "duration": 0.2098,
      "velocity": 94,
      "chip": "ym2612"
    },
    {
      "channel": 0,
      "note": 85,
      "start": 67.0436,
      "duration": 0.1928,
      "velocity": 109,
      "chip": "ym2612"
    },
    {
      "channel": 3,
      "note": 87,
      "start": 67.0443,
      "duration": 0.4205,
      "velocity": 94,
      "chip": "ym2612"
    },
    {
      "channel": 5,
      "note": 51,
      "start": 67.0448,
      "duration": 0.174,
      "velocity": 90,
      "chip": "ym2612"
    },
    {
      "channel": 1,
      "note": 85,
      "start": 67.0523,
      "duration": 0.1929,
      "velocity": 109,
      "chip": "ym2612"
    },
    {
      "channel": 2,
      "note": 85,
      "start": 67.1139,
      "duration": 0.2105,
      "velocity": 109,
      "chip": "ym2612"
    },
    {
      "channel": 4,
      "note": 87,
      "start": 67.1314,
      "duration": 0.4212,
      "velocity": 94,
      "chip": "ym2612"
    },
    {
      "channel": 0,
      "note": 87,
      "start": 67.2546,
      "duration": 0.1926,
      "velocity": 109,
      "chip": "ym2612"
    },
    {
      "channel": 5,
      "note": 58,
      "start": 67.2551,
      "duration": 0.1746,
      "velocity": 90,
      "chip": "ym2612"
    },
    {
      "channel": 1,
      "note": 87,
      "start": 67.2632,
      "duration": 0.1928,
      "velocity": 109,
      "chip": "ym2612"
    },
    {
      "channel": 2,
      "note": 87,
      "start": 67.3249,
      "duration": 0.2107,
      "velocity": 109,
      "chip": "ym2612"
    },
    {
      "channel": 0,
      "note": 84,
      "start": 67.4652,
      "duration": 0.3158,
      "velocity": 109,
      "chip": "ym2612"
    },
    {
      "channel": 3,
      "note": 85,
      "start": 67.4657,
      "duration": 0.2099,
      "velocity": 94,
      "chip": "ym2612"
    },
    {
      "channel": 5,
      "note": 73,
      "start": 67.4662,
      "duration": 0.1743,
      "velocity": 90,
      "chip": "ym2612"
    },
    {
      "channel": 1,
      "note": 84,
      "start": 67.4739,
      "duration": 0.3159,
      "velocity": 109,
      "chip": "ym2612"
    },
    {
      "channel": 2,
      "note": 84,
      "start": 67.536,
      "duration": 0.4206,
      "velocity": 109,
      "chip": "ym2612"
    },
    {
      "channel": 4,
      "note": 85,
      "start": 67.5531,
      "duration": 0.2104,
      "velocity": 94,
      "chip": "ym2612"
    },
    {
      "channel": 3,
      "note": 84,
      "start": 67.6761,
      "duration": 0.2102,
      "velocity": 94,
      "chip": "ym2612"
    },
    {
      "channel": 5,
      "note": 63,
      "start": 67.6766,
      "duration": 0.1746,
      "velocity": 90,
      "chip": "ym2612"
    },
    {
      "channel": 4,
      "note": 84,
      "start": 67.7639,
      "duration": 0.2105,
      "velocity": 94,
      "chip": "ym2612"
    },
    {
      "channel": 0,
      "note": 82,
      "start": 67.8869,
      "duration": 0.1928,
      "velocity": 109,
      "chip": "ym2612"
    },
    {
      "channel": 3,
      "note": 85,
      "start": 67.8873,
      "duration": 0.4207,
      "velocity": 94,
      "chip": "ym2612"
    },
    {
      "channel": 5,
      "note": 68,
      "start": 67.8879,
      "duration": 0.1742,
      "velocity": 90,
      "chip": "ym2612"
    },
    {
      "channel": 1,
      "note": 82,
      "start": 67.8956,
      "duration": 0.1929,
      "velocity": 109,
      "chip": "ym2612"
    },
    {
      "channel": 2,
      "note": 82,
      "start": 67.9571,
      "duration": 0.2103,
      "velocity": 109,
      "chip": "ym2612"
    },
    {
      "channel": 4,
      "note": 85,
      "start": 67.9748,
      "duration": 0.421,
      "velocity": 94,
      "chip": "ym2612"
    },
    {
      "channel": 0,
      "note": 80,
      "start": 68.0976,
      "duration": 0.1929,
      "velocity": 109,
      "chip": "ym2612"
    },
    {
      "channel": 5,
      "note": 72,
      "start": 68.0981,
      "duration": 0.1748,
      "velocity": 90,
      "chip": "ym2612"
    },
    {
      "channel": 1,
      "note": 80,
      "start": 68.1064,
      "duration": 0.1929,
      "velocity": 109,
      "chip": "ym2612"
    },
    {
      "channel": 2,
      "note": 80,
      "start": 68.168,
      "duration": 0.2103,
      "velocity": 109,
      "chip": "ym2612"
    },
    {
      "channel": 0,
      "note": 82,
      "start": 68.3085,
      "duration": 0.5968,
      "velocity": 109,
      "chip": "ym2612"
    },
    {
      "channel": 3,
      "note": 84,
      "start": 68.309,
      "duration": 0.1045,
      "velocity": 94,
      "chip": "ym2612"
    },
    {
      "channel": 5,
      "note": 51,
      "start": 68.3094,
      "duration": 0.1743,
      "velocity": 90,
      "chip": "ym2612"
    },
    {
      "channel": 1,
      "note": 82,
      "start": 68.3172,
      "duration": 0.5972,
      "velocity": 109,
      "chip": "ym2612"
    },
    {
      "channel": 2,
      "note": 82,
      "start": 68.3788,
      "duration": 0.632,
      "velocity": 109,
      "chip": "ym2612"
    },
    {
      "channel": 4,
      "note": 84,
      "start": 68.3963,
      "duration": 0.105,
      "velocity": 94,
      "chip": "ym2612"
    },
    {
      "channel": 3,
      "note": 85,
      "start": 68.4138,
      "duration": 0.105,
      "velocity": 94,
      "chip": "ym2612"
    },
    {
      "channel": 4,
      "note": 85,
      "start": 68.5017,
      "duration": 0.105,
      "velocity": 94,
      "chip": "ym2612"
    },
    {
      "channel": 3,
      "note": 82,
      "start": 68.5193,
      "duration": 0.2104,
      "velocity": 94,
      "chip": "ym2612"
    },
    {
      "channel": 5,
      "note": 58,
      "start": 68.5198,
      "duration": 0.1748,
      "velocity": 90,
      "chip": "ym2612"
    },
    {
      "channel": 4,
      "note": 82,
      "start": 68.6071,
      "duration": 0.2104,
      "velocity": 94,
      "chip": "ym2612"
    },
    {
      "channel": 3,
      "note": 84,
      "start": 68.7301,
      "duration": 0.4212,
      "velocity": 94,
      "chip": "ym2612"
    },
    {
      "channel": 5,
      "note": 73,
      "start": 68.7306,
      "duration": 0.1749,
      "velocity": 90,
      "chip": "ym2612"
    },
    {
      "channel": 4,
      "note": 84,
      "start": 68.818,
      "duration": 0.4212,
      "velocity": 94,
      "chip": "ym2612"
    },
    {
      "channel": 0,
      "note": 85,
      "start": 68.9409,
      "duration": 0.0875,
      "velocity": 109,
      "chip": "ym2612"
    },
    {
      "channel": 5,
      "note": 63,
      "start": 68.9413,
      "duration": 0.1748,
      "velocity": 90,
      "chip": "ym2612"
    },
    {
      "channel": 1,
      "note": 85,
      "start": 68.9496,
      "duration": 0.0878,
      "velocity": 109,
      "chip": "ym2612"
    },
    {
      "channel": 2,
      "note": 85,
      "start": 69.0112,
      "duration": 0.4212,
      "velocity": 109,
      "chip": "ym2612"
    },
    {
      "channel": 3,
      "note": 82,
      "start": 69.1517,
      "duration": 0.0525,
      "velocity": 94,
      "chip": "ym2612"
    },
    {
      "channel": 5,
      "note": 68,
      "start": 69.1522,
      "duration": 0.1747,
      "velocity": 90,
      "chip": "ym2612"
    },
    {
      "channel": 3,
      "note": 84,
      "start": 69.2046,
      "duration": 0.0521,
      "velocity": 94,
      "chip": "ym2612"
    },
    {
      "channel": 4,
      "note": 82,
      "start": 69.2396,
      "duration": 0.0523,
      "velocity": 94,
      "chip": "ym2612"
    },
    {
      "channel": 3,
      "note": 82,
      "start": 69.2571,
      "duration": 0.105,
      "velocity": 94,
      "chip": "ym2612"
    },
    {
      "channel": 4,
      "note": 84,
      "start": 69.2922,
      "duration": 0.0523,
      "velocity": 94,
      "chip": "ym2612"
    },
    {
      "channel": 4,
      "note": 82,
      "start": 69.3449,
      "duration": 0.105,
      "velocity": 94,
      "chip": "ym2612"
    },
    {
      "channel": 0,
      "note": 85,
      "start": 69.3626,
      "duration": 0.0786,
      "velocity": 109,
      "chip": "ym2612"
    },
    {
      "channel": 3,
      "note": 80,
      "start": 69.363,
      "duration": 0.2099,
      "velocity": 94,
      "chip": "ym2612"
    },
    {
      "channel": 5,
      "note": 72,
      "start": 69.3635,
      "duration": 0.1743,
      "velocity": 90,
      "chip": "ym2612"
    },
    {
      "channel": 1,
      "note": 85,
      "start": 69.3713,
      "duration": 0.0789,
      "velocity": 109,
      "chip": "ym2612"
    },
    {
      "channel": 2,
      "note": 85,
      "start": 69.4329,
      "duration": 0.2103,
      "velocity": 109,
      "chip": "ym2612"
    },
    {
      "channel": 4,
      "note": 80,
      "start": 69.4506,
      "duration": 0.2102,
      "velocity": 94,
      "chip": "ym2612"
    },
    {
      "channel": 0,
      "note": 85,
      "start": 69.5734,
      "duration": 0.1928,
      "velocity": 109,
      "chip": "ym2612"
    },
    {
      "channel": 3,
      "note": 82,
      "start": 69.5739,
      "duration": 0.4212,
      "velocity": 94,
      "chip": "ym2612"
    },
    {
      "channel": 5,
      "note": 51,
      "start": 69.5746,
      "duration": 0.174,
      "velocity": 90,
      "chip": "ym2612"
    },
    {
      "channel": 1,
      "note": 85,
      "start": 69.5822,
      "duration": 0.1928,
      "velocity": 109,
      "chip": "ym2612"
    },
    {
      "channel": 2,
      "note": 85,
      "start": 69.6437,
      "duration": 0.2106,
      "velocity": 109,
      "chip": "ym2612"
    },
    {
      "channel": 4,
      "note": 82,
      "start": 69.6612,
      "duration": 0.4212,
      "velocity": 94,
      "chip": "ym2612"
    },
    {
      "channel": 0,
      "note": 87,
      "start": 69.7844,
      "duration": 0.096,
      "velocity": 109,
      "chip": "ym2612"
    },
    {
      "channel": 5,
      "note": 58,
      "start": 69.7849,
      "duration": 0.1746,
      "velocity": 90,
      "chip": "ym2612"
    },
    {
      "channel": 1,
      "note": 87,
      "start": 69.793,
      "duration": 0.0961,
      "velocity": 109,
      "chip": "ym2612"
    },
    {
      "channel": 2,
      "note": 87,
      "start": 69.8547,
      "duration": 0.2101,
      "velocity": 109,
      "chip": "ym2612"
    },
    {
      "channel": 0,
      "note": 84,
      "start": 69.9956,
      "duration": 0.3152,
      "velocity": 109,
      "chip": "ym2612"
    },
    {
      "channel": 3,
      "note": 80,
      "start": 69.996,
      "duration": 0.104,
      "velocity": 94,
      "chip": "ym2612"
    },
    {
      "channel": 5,
      "note": 73,
      "start": 69.9965,
      "duration": 0.1737,
      "velocity": 90,
      "chip": "ym2612"
    },
    {
      "channel": 1,
      "note": 84,
      "start": 70.0037,
      "duration": 0.3159,
      "velocity": 109,
      "chip": "ym2612"
    },
    {
      "channel": 2,
      "note": 84,
      "start": 70.0654,
      "duration": 0.421,
      "velocity": 109,
      "chip": "ym2612"
    },
    {
      "channel": 4,
      "note": 80,
      "start": 70.0828,
      "duration": 0.105,
      "velocity": 94,
      "chip": "ym2612"
    },
    {
      "channel": 3,
      "note": 82,
      "start": 70.1004,
      "duration": 0.105,
      "velocity": 94,
      "chip": "ym2612"
    },
    {
      "channel": 4,
      "note": 82,
      "start": 70.1882,
      "duration": 0.105,
      "velocity": 94,
      "chip": "ym2612"
    },
    {
      "channel": 3,
      "note": 78,
      "start": 70.2058,
      "duration": 0.2104,
      "velocity": 94,
      "chip": "ym2612"
    },
    {
      "channel": 5,
      "note": 63,
      "start": 70.2064,
      "duration": 0.1746,
      "velocity": 90,
      "chip": "ym2612"
    },
    {
      "channel": 4,
      "note": 78,
      "start": 70.2937,
      "duration": 0.2106,
      "velocity": 94,
      "chip": "ym2612"
    },
    {
      "channel": 0,
      "note": 82,
      "start": 70.4167,
      "duration": 0.1929,
      "velocity": 109,
      "chip": "ym2612"
    },
    {
      "channel": 3,
      "note": 82,
      "start": 70.4171,
      "duration": 0.4207,
      "velocity": 94,
      "chip": "ym2612"
    },
    {
      "channel": 5,
      "note": 68,
      "start": 70.4176,
      "duration": 0.1743,
      "velocity": 90,
      "chip": "ym2612"
    },
    {
      "channel": 1,
      "note": 82,
      "start": 70.4254,
      "duration": 0.1929,
      "velocity": 109,
      "chip": "ym2612"
    },
    {
      "channel": 2,
      "note": 82,
      "start": 70.4869,
      "duration": 0.2103,
      "velocity": 109,
      "chip": "ym2612"
    },
    {
      "channel": 4,
      "note": 82,
      "start": 70.5047,
      "duration": 4.0048,
      "velocity": 94,
      "chip": "ym2612"
    },
    {
      "channel": 0,
      "note": 80,
      "start": 70.6274,
      "duration": 0.1929,
      "velocity": 109,
      "chip": "ym2612"
    },
    {
      "channel": 5,
      "note": 72,
      "start": 70.6279,
      "duration": 0.1748,
      "velocity": 90,
      "chip": "ym2612"
    },
    {
      "channel": 1,
      "note": 80,
      "start": 70.6362,
      "duration": 0.1929,
      "velocity": 109,
      "chip": "ym2612"
    },
    {
      "channel": 2,
      "note": 80,
      "start": 70.6978,
      "duration": 0.2103,
      "velocity": 109,
      "chip": "ym2612"
    },
    {
      "channel": 0,
      "note": 82,
      "start": 70.8383,
      "duration": 0.6495,
      "velocity": 109,
      "chip": "ym2612"
    },
    {
      "channel": 3,
      "note": 82,
      "start": 70.8388,
      "duration": 3.5829,
      "velocity": 94,
      "chip": "ym2612"
    },
    {
      "channel": 5,
      "note": 51,
      "start": 70.8392,
      "duration": 0.1743,
      "velocity": 90,
      "chip": "ym2612"
    },
    {
      "channel": 1,
      "note": 82,
      "start": 70.847,
      "duration": 0.6497,
      "velocity": 109,
      "chip": "ym2612"
    },
    {
      "channel": 2,
      "note": 82,
      "start": 70.9086,
      "duration": 0.632,
      "velocity": 109,
      "chip": "ym2612"
    },
    {
      "channel": 5,
      "note": 58,
      "start": 71.049,
      "duration": 0.1754,
      "velocity": 90,
      "chip": "ym2612"
    },
    {
      "channel": 5,
      "note": 73,
      "start": 71.2598,
      "duration": 0.1753,
      "velocity": 90,
      "chip": "ym2612"
    },
    {
      "channel": 5,
      "note": 63,
      "start": 71.4707,
      "duration": 0.1753,
      "velocity": 90,
      "chip": "ym2612"
    },
    {
      "channel": 0,
      "note": 85,
      "start": 71.4971,
      "duration": 0.0874,
      "velocity": 109,
      "chip": "ym2612"
    },
    {
      "channel": 1,
      "note": 85,
      "start": 71.5058,
      "duration": 0.0875,
      "velocity": 109,
      "chip": "ym2612"
    },
    {
      "channel": 2,
      "note": 85,
      "start": 71.541,
      "duration": 0.4211,
      "velocity": 109,
      "chip": "ym2612"
    },
    {
      "channel": 5,
      "note": 68,
      "start": 71.6815,
      "duration": 0.1753,
      "velocity": 90,
      "chip": "ym2612"
    },
    {
      "channel": 0,
      "note": 85,
      "start": 71.8923,
      "duration": 0.0787,
      "velocity": 109,
      "chip": "ym2612"
    },
    {
      "channel": 5,
      "note": 72,
      "start": 71.8928,
      "duration": 0.1748,
      "velocity": 90,
      "chip": "ym2612"
    },
    {
      "channel": 1,
      "note": 85,
      "start": 71.9011,
      "duration": 0.0787,
      "velocity": 109,
      "chip": "ym2612"
    },
    {
      "channel": 2,
      "note": 85,
      "start": 71.9627,
      "duration": 0.2103,
      "velocity": 109,
      "chip": "ym2612"
    },
    {
      "channel": 0,
      "note": 85,
      "start": 72.1031,
      "duration": 0.1929,
      "velocity": 109,
      "chip": "ym2612"
    },
    {
      "channel": 5,
      "note": 51,
      "start": 72.1036,
      "duration": 0.1748,
      "velocity": 90,
      "chip": "ym2612"
    },
    {
      "channel": 1,
      "note": 85,
      "start": 72.1119,
      "duration": 0.1929,
      "velocity": 109,
      "chip": "ym2612"
    },
    {
      "channel": 2,
      "note": 85,
      "start": 72.1735,
      "duration": 0.2103,
      "velocity": 109,
      "chip": "ym2612"
    },
    {
      "channel": 0,
      "note": 87,
      "start": 72.3139,
      "duration": 0.1929,
      "velocity": 109,
      "chip": "ym2612"
    },
    {
      "channel": 5,
      "note": 58,
      "start": 72.3146,
      "duration": 0.1746,
      "velocity": 90,
      "chip": "ym2612"
    },
    {
      "channel": 1,
      "note": 87,
      "start": 72.3227,
      "duration": 0.1929,
      "velocity": 109,
      "chip": "ym2612"
    },
    {
      "channel": 2,
      "note": 87,
      "start": 72.3845,
      "duration": 0.2101,
      "velocity": 109,
      "chip": "ym2612"
    },
    {
      "channel": 0,
      "note": 84,
      "start": 72.5249,
      "duration": 0.3157,
      "velocity": 109,
      "chip": "ym2612"
    },
    {
      "channel": 5,
      "note": 73,
      "start": 72.5254,
      "duration": 0.1747,
      "velocity": 90,
      "chip": "ym2612"
    },
    {
      "channel": 1,
      "note": 84,
      "start": 72.5335,
      "duration": 0.3159,
      "velocity": 109,
      "chip": "ym2612"
    },
    {
      "channel": 2,
      "note": 84,
      "start": 72.5952,
      "duration": 0.421,
      "velocity": 109,
      "chip": "ym2612"
    },
    {
      "channel": 5,
      "note": 63,
      "start": 72.7356,
      "duration": 0.1753,
      "velocity": 90,
      "chip": "ym2612"
    },
    {
      "channel": 0,
      "note": 82,
      "start": 72.9463,
      "duration": 0.1929,
      "velocity": 109,
      "chip": "ym2612"
    },
    {
      "channel": 5,
      "note": 68,
      "start": 72.9468,
      "duration": 0.1748,
      "velocity": 90,
      "chip": "ym2612"
    },
    {
      "channel": 1,
      "note": 82,
      "start": 72.9551,
      "duration": 0.1929,
      "velocity": 109,
      "chip": "ym2612"
    },
    {
      "channel": 2,
      "note": 82,
      "start": 73.0167,
      "duration": 0.2103,
      "velocity": 109,
      "chip": "ym2612"
    },
    {
      "channel": 0,
      "note": 80,
      "start": 73.1572,
      "duration": 0.1929,
      "velocity": 109,
      "chip": "ym2612"
    },
    {
      "channel": 5,
      "note": 72,
      "start": 73.1577,
      "duration": 0.1748,
      "velocity": 90,
      "chip": "ym2612"
    },
    {
      "channel": 1,
      "note": 80,
      "start": 73.166,
      "duration": 0.1929,
      "velocity": 109,
      "chip": "ym2612"
    },
    {
      "channel": 2,
      "note": 80,
      "start": 73.2276,
      "duration": 0.2103,
      "velocity": 109,
      "chip": "ym2612"
    },
    {
      "channel": 0,
      "note": 82,
      "start": 73.368,
      "duration": 0.5969,
      "velocity": 109,
      "chip": "ym2612"
    },
    {
      "channel": 5,
      "note": 51,
      "start": 73.3685,
      "duration": 0.1748,
      "velocity": 90,
      "chip": "ym2612"
    },
    {
      "channel": 1,
      "note": 82,
      "start": 73.3768,
      "duration": 0.5969,
      "velocity": 109,
      "chip": "ym2612"
    },
    {
      "channel": 2,
      "note": 82,
      "start": 73.4384,
      "duration": 0.632,
      "velocity": 109,
      "chip": "ym2612"
    },
    {
      "channel": 5,
      "note": 58,
      "start": 73.5788,
      "duration": 0.1755,
      "velocity": 90,
      "chip": "ym2612"
    },
    {
      "channel": 5,
      "note": 73,
      "start": 73.7896,
      "duration": 0.1754,
      "velocity": 90,
      "chip": "ym2612"
    },
    {
      "channel": 0,
      "note": 85,
      "start": 74.0004,
      "duration": 0.0875,
      "velocity": 109,
      "chip": "ym2612"
    },
    {
      "channel": 5,
      "note": 63,
      "start": 74.0009,
      "duration": 0.1748,
      "velocity": 90,
      "chip": "ym2612"
    },
    {
      "channel": 1,
      "note": 85,
      "start": 74.0092,
      "duration": 0.0875,
      "velocity": 109,
      "chip": "ym2612"
    },
    {
      "channel": 2,
      "note": 85,
      "start": 74.0708,
      "duration": 0.4211,
      "velocity": 109,
      "chip": "ym2612"
    },
    {
      "channel": 5,
      "note": 68,
      "start": 74.2112,
      "duration": 0.1753,
      "velocity": 90,
      "chip": "ym2612"
    },
    {
      "channel": 0,
      "note": 85,
      "start": 74.4222,
      "duration": 0.0786,
      "velocity": 109,
      "chip": "ym2612"
    },
    {
      "channel": 5,
      "note": 72,
      "start": 74.4227,
      "duration": 0.1747,
      "velocity": 90,
      "chip": "ym2612"
    },
    {
      "channel": 1,
      "note": 85,
      "start": 74.4309,
      "duration": 0.0788,
      "velocity": 109,
      "chip": "ym2612"
    },
    {
      "channel": 2,
      "note": 85,
      "start": 74.4924,
      "duration": 0.2103,
      "velocity": 109,
      "chip": "ym2612"
    },
    {
      "channel": 0,
      "note": 85,
      "start": 74.6329,
      "duration": 0.1929,
      "velocity": 109,
      "chip": "ym2612"
    },
    {
      "channel": 5,
      "note": 51,
      "start": 74.6334,
      "duration": 0.1748,
      "velocity": 90,
      "chip": "ym2612"
    },
    {
      "channel": 1,
      "note": 85,
      "start": 74.6418,
      "duration": 0.1928,
      "velocity": 109,
      "chip": "ym2612"
    },
    {
      "channel": 2,
      "note": 85,
      "start": 74.7032,
      "duration": 0.2111,
      "velocity": 109,
      "chip": "ym2612"
    },
    {
      "channel": 0,
      "note": 87,
      "start": 74.8437,
      "duration": 0.0963,
      "velocity": 109,
      "chip": "ym2612"
    },
    {
      "channel": 5,
      "note": 58,
      "start": 74.8444,
      "duration": 0.1746,
      "velocity": 90,
      "chip": "ym2612"
    },
    {
      "channel": 1,
      "note": 87,
      "start": 74.8525,
      "duration": 0.0962,
      "velocity": 109,
      "chip": "ym2612"
    },
    {
      "channel": 2,
      "note": 87,
      "start": 74.9148,
      "duration": 0.2096,
      "velocity": 109,
      "chip": "ym2612"
    },
    {
      "channel": 0,
      "note": 84,
      "start": 75.0549,
      "duration": 0.3155,
      "velocity": 109,
      "chip": "ym2612"
    },
    {
      "channel": 5,
      "note": 73,
      "start": 75.0553,
      "duration": 0.1745,
      "velocity": 90,
      "chip": "ym2612"
    },
    {
      "channel": 1,
      "note": 84,
      "start": 75.0633,
      "duration": 0.3158,
      "velocity": 109,
      "chip": "ym2612"
    },
    {
      "channel": 2,
      "note": 84,
      "start": 75.1249,
      "duration": 0.4212,
      "velocity": 109,
      "chip": "ym2612"
    },
    {
      "channel": 5,
      "note": 63,
      "start": 75.2653,
      "duration": 0.1753,
      "velocity": 90,
      "chip": "ym2612"
    },
    {
      "channel": 0,
      "note": 82,
      "start": 75.4761,
      "duration": 0.1929,
      "velocity": 109,
      "chip": "ym2612"
    },
    {
      "channel": 3,
      "note": 77,
      "start": 75.4766,
      "duration": 0.1046,
      "velocity": 94,
      "chip": "ym2612"
    },
    {
      "channel": 5,
      "note": 68,
      "start": 75.4771,
      "duration": 0.1744,
      "velocity": 90,
      "chip": "ym2612"
    },
    {
      "channel": 1,
      "note": 82,
      "start": 75.4849,
      "duration": 0.1929,
      "velocity": 109,
      "chip": "ym2612"
    },
    {
      "channel": 2,
      "note": 82,
      "start": 75.5465,
      "duration": 0.2103,
      "velocity": 109,
      "chip": "ym2612"
    },
    {
      "channel": 4,
      "note": 77,
      "start": 75.5642,
      "duration": 0.1049,
      "velocity": 94,
      "chip": "ym2612"
    },
    {
      "channel": 3,
      "note": 78,
      "start": 75.5816,
      "duration": 0.1049,
      "velocity": 94,
      "chip": "ym2612"
    },
    {
      "channel": 4,
      "note": 78,
      "start": 75.6697,
      "duration": 0.1048,
      "velocity": 94,
      "chip": "ym2612"
    },
    {
      "channel": 0,
      "note": 80,
      "start": 75.6871,
      "duration": 0.1928,
      "velocity": 109,
      "chip": "ym2612"
    },
    {
      "channel": 3,
      "note": 77,
      "start": 75.6875,
      "duration": 0.087,
      "velocity": 94,
      "chip": "ym2612"
    },
    {
      "channel": 5,
      "note": 72,
      "start": 75.688,
      "duration": 0.1744,
      "velocity": 90,
      "chip": "ym2612"
    },
    {
      "channel": 1,
      "note": 80,
      "start": 75.6958,
      "duration": 0.1929,
      "velocity": 109,
      "chip": "ym2612"
    },
    {
      "channel": 2,
      "note": 80,
      "start": 75.7573,
      "duration": 0.2103,
      "velocity": 109,
      "chip": "ym2612"
    },
    {
      "channel": 4,
      "note": 77,
      "start": 75.775,
      "duration": 0.0873,
      "velocity": 94,
      "chip": "ym2612"
    },
    {
      "channel": 3,
      "note": 78,
      "start": 75.7924,
      "duration": 0.1051,
      "velocity": 94,
      "chip": "ym2612"
    },
    {
      "channel": 4,
      "note": 78,
      "start": 75.8803,
      "duration": 0.105,
      "velocity": 94,
      "chip": "ym2612"
    },
    {
      "channel": 0,
      "note": 82,
      "start": 75.8979,
      "duration": 0.6539,
      "velocity": 109,
      "chip": "ym2612"
    },
    {
      "channel": 3,
      "note": 77,
      "start": 75.8983,
      "duration": 3.5873,
      "velocity": 94,
      "chip": "ym2612"
    },
    {
      "channel": 5,
      "note": 51,
      "start": 75.8988,
      "duration": 0.1743,
      "velocity": 90,
      "chip": "ym2612"
    },
    {
      "channel": 1,
      "note": 82,
      "start": 75.9066,
      "duration": 0.654,
      "velocity": 109,
      "chip": "ym2612"
    },
    {
      "channel": 2,
      "note": 82,
      "start": 75.9682,
      "duration": 0.6363,
      "velocity": 109,
      "chip": "ym2612"
    },
    {
      "channel": 4,
      "note": 77,
      "start": 75.9857,
      "duration": 3.5878,
      "velocity": 94,
      "chip": "ym2612"
    },
    {
      "channel": 5,
      "note": 58,
      "start": 76.1086,
      "duration": 0.1797,
      "velocity": 90,
      "chip": "ym2612"
    },
    {
      "channel": 5,
      "note": 73,
      "start": 76.3238,
      "duration": 0.1753,
      "velocity": 90,
      "chip": "ym2612"
    },
    {
      "channel": 5,
      "note": 63,
      "start": 76.5348,
      "duration": 0.1752,
      "velocity": 90,
      "chip": "ym2612"
    },
    {
      "channel": 0,
      "note": 85,
      "start": 76.5611,
      "duration": 0.0874,
      "velocity": 109,
      "chip": "ym2612"
    },
    {
      "channel": 1,
      "note": 85,
      "start": 76.5698,
      "duration": 0.0876,
      "velocity": 109,
      "chip": "ym2612"
    },
    {
      "channel": 2,
      "note": 85,
      "start": 76.605,
      "duration": 0.4212,
      "velocity": 109,
      "chip": "ym2612"
    },
    {
      "channel": 5,
      "note": 68,
      "start": 76.7454,
      "duration": 0.1753,
      "velocity": 90,
      "chip": "ym2612"
    },
    {
      "channel": 0,
      "note": 85,
      "start": 76.9563,
      "duration": 0.0787,
      "velocity": 109,
      "chip": "ym2612"
    },
    {
      "channel": 5,
      "note": 72,
      "start": 76.9567,
      "duration": 0.1748,
      "velocity": 90,
      "chip": "ym2612"
    },
    {
      "channel": 1,
      "note": 85,
      "start": 76.965,
      "duration": 0.0787,
      "velocity": 109,
      "chip": "ym2612"
    },
    {
      "channel": 2,
      "note": 85,
      "start": 77.0266,
      "duration": 0.2103,
      "velocity": 109,
      "chip": "ym2612"
    },
    {
      "channel": 0,
      "note": 85,
      "start": 77.1671,
      "duration": 0.1929,
      "velocity": 109,
      "chip": "ym2612"
    },
    {
      "channel": 5,
      "note": 51,
      "start": 77.1676,
      "duration": 0.1748,
      "velocity": 90,
      "chip": "ym2612"
    },
    {
      "channel": 1,
      "note": 85,
      "start": 77.1759,
      "duration": 0.1929,
      "velocity": 109,
      "chip": "ym2612"
    },
    {
      "channel": 2,
      "note": 85,
      "start": 77.2374,
      "duration": 0.2103,
      "velocity": 109,
      "chip": "ym2612"
    },
    {
      "channel": 0,
      "note": 87,
      "start": 77.3779,
      "duration": 0.1929,
      "velocity": 109,
      "chip": "ym2612"
    },
    {
      "channel": 5,
      "note": 58,
      "start": 77.3784,
      "duration": 0.1748,
      "velocity": 90,
      "chip": "ym2612"
    },
    {
      "channel": 1,
      "note": 87,
      "start": 77.3867,
      "duration": 0.1929,
      "velocity": 109,
      "chip": "ym2612"
    },
    {
      "channel": 2,
      "note": 87,
      "start": 77.4483,
      "duration": 0.2103,
      "velocity": 109,
      "chip": "ym2612"
    },
    {
      "channel": 0,
      "note": 84,
      "start": 77.5887,
      "duration": 0.3158,
      "velocity": 109,
      "chip": "ym2612"
    },
    {
      "channel": 5,
      "note": 73,
      "start": 77.5892,
      "duration": 0.1751,
      "velocity": 90,
      "chip": "ym2612"
    },
    {
      "channel": 1,
      "note": 84,
      "start": 77.5975,
      "duration": 0.3159,
      "velocity": 109,
      "chip": "ym2612"
    },
    {
      "channel": 2,
      "note": 84,
      "start": 77.6591,
      "duration": 0.4212,
      "velocity": 109,
      "chip": "ym2612"
    },
    {
      "channel": 5,
      "note": 63,
      "start": 77.7995,
      "duration": 0.1753,
      "velocity": 90,
      "chip": "ym2612"
    },
    {
      "channel": 0,
      "note": 82,
      "start": 78.0103,
      "duration": 0.1929,
      "velocity": 109,
      "chip": "ym2612"
    },
    {
      "channel": 5,
      "note": 68,
      "start": 78.0108,
      "duration": 0.1748,
      "velocity": 90,
      "chip": "ym2612"
    },
    {
      "channel": 1,
      "note": 82,
      "start": 78.0191,
      "duration": 0.1929,
      "velocity": 109,
      "chip": "ym2612"
    },
    {
      "channel": 2,
      "note": 82,
      "start": 78.0807,
      "duration": 0.2103,
      "velocity": 109,
      "chip": "ym2612"
    },
    {
      "channel": 0,
      "note": 80,
      "start": 78.2212,
      "duration": 0.1931,
      "velocity": 109,
      "chip": "ym2612"
    },
    {
      "channel": 5,
      "note": 72,
      "start": 78.2216,
      "duration": 0.1748,
      "velocity": 90,
      "chip": "ym2612"
    },
    {
      "channel": 1,
      "note": 80,
      "start": 78.23,
      "duration": 0.1928,
      "velocity": 109,
      "chip": "ym2612"
    },
    {
      "channel": 2,
      "note": 80,
      "start": 78.2915,
      "duration": 0.2105,
      "velocity": 109,
      "chip": "ym2612"
    },
    {
      "channel": 0,
      "note": 82,
      "start": 78.432,
      "duration": 0.5969,
      "velocity": 109,
      "chip": "ym2612"
    },
    {
      "channel": 5,
      "note": 51,
      "start": 78.4325,
      "duration": 0.1748,
      "velocity": 90,
      "chip": "ym2612"
    },
    {
      "channel": 1,
      "note": 82,
      "start": 78.4407,
      "duration": 0.5969,
      "velocity": 109,
      "chip": "ym2612"
    },
    {
      "channel": 2,
      "note": 82,
      "start": 78.5024,
      "duration": 0.6319,
      "velocity": 109,
      "chip": "ym2612"
    },
    {
      "channel": 5,
      "note": 58,
      "start": 78.6428,
      "duration": 0.1753,
      "velocity": 90,
      "chip": "ym2612"
    },
    {
      "channel": 5,
      "note": 73,
      "start": 78.8536,
      "duration": 0.1754,
      "velocity": 90,
      "chip": "ym2612"
    },
    {
      "channel": 0,
      "note": 85,
      "start": 79.0646,
      "duration": 0.0872,
      "velocity": 109,
      "chip": "ym2612"
    },
    {
      "channel": 5,
      "note": 63,
      "start": 79.0651,
      "duration": 0.1746,
      "velocity": 90,
      "chip": "ym2612"
    },
    {
      "channel": 1,
      "note": 85,
      "start": 79.0732,
      "duration": 0.0875,
      "velocity": 109,
      "chip": "ym2612"
    },
    {
      "channel": 2,
      "note": 85,
      "start": 79.1349,
      "duration": 0.4211,
      "velocity": 109,
      "chip": "ym2612"
    },
    {
      "channel": 5,
      "note": 68,
      "start": 79.2752,
      "duration": 0.1753,
      "velocity": 90,
      "chip": "ym2612"
    },
    {
      "channel": 0,
      "note": 85,
      "start": 79.4861,
      "duration": 0.0786,
      "velocity": 109,
      "chip": "ym2612"
    },
    {
      "channel": 5,
      "note": 72,
      "start": 79.4866,
      "duration": 0.1752,
      "velocity": 90,
      "chip": "ym2612"
    },
    {
      "channel": 1,
      "note": 85,
      "start": 79.4948,
      "duration": 0.0788,
      "velocity": 109,
      "chip": "ym2612"
    },
    {
      "channel": 2,
      "note": 85,
      "start": 79.5564,
      "duration": 0.2103,
      "velocity": 109,
      "chip": "ym2612"
    },
    {
      "channel": 0,
      "note": 85,
      "start": 79.6968,
      "duration": 0.1929,
      "velocity": 109,
      "chip": "ym2612"
    },
    {
      "channel": 5,
      "note": 51,
      "start": 79.6973,
      "duration": 0.1748,
      "velocity": 90,
      "chip": "ym2612"
    },
    {
      "channel": 1,
      "note": 85,
      "start": 79.7056,
      "duration": 0.1929,
      "velocity": 109,
      "chip": "ym2612"
    },
    {
      "channel": 2,
      "note": 85,
      "start": 79.7672,
      "duration": 0.2103,
      "velocity": 109,
      "chip": "ym2612"
    },
    {
      "channel": 0,
      "note": 87,
      "start": 79.9077,
      "duration": 0.0963,
      "velocity": 109,
      "chip": "ym2612"
    },
    {
      "channel": 5,
      "note": 58,
      "start": 79.9082,
      "duration": 0.1748,
      "velocity": 90,
      "chip": "ym2612"
    },
    {
      "channel": 1,
      "note": 87,
      "start": 79.9165,
      "duration": 0.0962,
      "velocity": 109,
      "chip": "ym2612"
    },
    {
      "channel": 2,
      "note": 87,
      "start": 79.978,
      "duration": 0.2103,
      "velocity": 109,
      "chip": "ym2612"
    },
    {
      "channel": 0,
      "note": 84,
      "start": 80.1185,
      "duration": 0.3159,
      "velocity": 109,
      "chip": "ym2612"
    },
    {
      "channel": 5,
      "note": 73,
      "start": 80.119,
      "duration": 0.1748,
      "velocity": 90,
      "chip": "ym2612"
    },
    {
      "channel": 1,
      "note": 84,
      "start": 80.1273,
      "duration": 0.3159,
      "velocity": 109,
      "chip": "ym2612"
    },
    {
      "channel": 2,
      "note": 84,
      "start": 80.1889,
      "duration": 0.4212,
      "velocity": 109,
      "chip": "ym2612"
    },
    {
      "channel": 5,
      "note": 63,
      "start": 80.3293,
      "duration": 0.1753,
      "velocity": 90,
      "chip": "ym2612"
    },
    {
      "channel": 0,
      "note": 82,
      "start": 80.5401,
      "duration": 0.1929,
      "velocity": 109,
      "chip": "ym2612"
    },
    {
      "channel": 5,
      "note": 68,
      "start": 80.5406,
      "duration": 0.1748,
      "velocity": 90,
      "chip": "ym2612"
    },
    {
      "channel": 1,
      "note": 82,
      "start": 80.5489,
      "duration": 0.1929,
      "velocity": 109,
      "chip": "ym2612"
    },
    {
      "channel": 2,
      "note": 82,
      "start": 80.6105,
      "duration": 0.2103,
      "velocity": 109,
      "chip": "ym2612"
    },
    {
      "channel": 0,
      "note": 80,
      "start": 80.7509,
      "duration": 0.1929,
      "velocity": 109,
      "chip": "ym2612"
    },
    {
      "channel": 5,
      "note": 72,
      "start": 80.7514,
      "duration": 0.1748,
      "velocity": 90,
      "chip": "ym2612"
    },
    {
      "channel": 1,
      "note": 80,
      "start": 80.7597,
      "duration": 0.1929,
      "velocity": 109,
      "chip": "ym2612"
    },
    {
      "channel": 2,
      "note": 80,
      "start": 80.8213,
      "duration": 0.2103,
      "velocity": 109,
      "chip": "ym2612"
    },
    {
      "channel": 0,
      "note": 82,
      "start": 80.9631,
      "duration": 0.0687,
      "velocity": 109,
      "chip": "ym2612"
    },
    {
      "channel": 5,
      "note": 58,
      "start": 80.9696,
      "duration": 0.0622,
      "velocity": 90,
      "chip": "ym2612"
    },
    {
      "channel": 1,
      "note": 82,
      "start": 80.9705,
      "duration": 0.0612,
      "velocity": 109,
      "chip": "ym2612"
    }
  ]
}