{
  "track_name": "10 - For the Love of...",
  "duration_sec": 103.301,
  "sample_rate": 44100,
  "note_count": 1891,
  "unique_pitches": 39,
  "pitch_range": 59,
  "avg_note_duration": 0.1774,
  "reconstruction_stats": {
    "notes_reconstructed": 1891,
    "keyon_events": 1891,
    "keyoff_events": 1889,
    "orphan_keyons": 2,
    "unique_pitches": 39,
    "pitch_range": 59,
    "avg_duration_sec": 0.1774
  },
  "metadata": {
    "source": "M\\M.U.S.H.A\\10 - For the Love of....vgz"
  },
  "notes": [
    {
      "channel": 1,
      "note": 46,
      "start": 0.0,
      "duration": 0.3136,
      "velocity": 122,
      "chip": "ym2612"
    },
    {
      "channel": 3,
      "note": 49,
      "start": 0.0011,
      "duration": 0.0966,
      "velocity": 104,
      "chip": "ym2612"
    },
    {
      "channel": 4,
      "note": 73,
      "start": 0.0022,
      "duration": 0.3132,
      "velocity": 114,
      "chip": "ym2612"
    },
    {
      "channel": 2,
      "note": 92,
      "start": 0.0033,
      "duration": 0.313,
      "velocity": 114,
      "chip": "ym2612"
    },
    {
      "channel": 3,
      "note": 49,
      "start": 0.1986,
      "duration": 0.1159,
      "velocity": 104,
      "chip": "ym2612"
    },
    {
      "channel": 1,
      "note": 57,
      "start": 0.4174,
      "duration": 0.3128,
      "velocity": 125,
      "chip": "ym2612"
    },
    {
      "channel": 3,
      "note": 49,
      "start": 0.4191,
      "duration": 0.112,
      "velocity": 104,
      "chip": "ym2612"
    },
    {
      "channel": 4,
      "note": 61,
      "start": 0.4209,
      "duration": 0.1111,
      "velocity": 114,
      "chip": "ym2612"
    },
    {
      "channel": 2,
      "note": 80,
      "start": 0.4227,
      "duration": 0.1102,
      "velocity": 114,
      "chip": "ym2612"
    },
    {
      "channel": 3,
      "note": 49,
      "start": 0.6319,
      "duration": 0.0992,
      "velocity": 104,
      "chip": "ym2612"
    },
    {
      "channel": 4,
      "note": 61,
      "start": 0.6337,
      "duration": 0.0984,
      "velocity": 114,
      "chip": "ym2612"
    },
    {
      "channel": 2,
      "note": 80,
      "start": 0.6354,
      "duration": 0.0976,
      "velocity": 114,
      "chip": "ym2612"
    },
    {
      "channel": 1,
      "note": 46,
      "start": 0.8507,
      "duration": 0.0961,
      "velocity": 122,
      "chip": "ym2612"
    },
    {
      "channel": 3,
      "note": 49,
      "start": 0.8525,
      "duration": 0.0953,
      "velocity": 104,
      "chip": "ym2612"
    },
    {
      "channel": 4,
      "note": 61,
      "start": 0.8542,
      "duration": 0.0945,
      "velocity": 114,
      "chip": "ym2612"
    },
    {
      "channel": 2,
      "note": 80,
      "start": 0.8559,
      "duration": 0.0937,
      "velocity": 114,
      "chip": "ym2612"
    },
    {
      "channel": 1,
      "note": 46,
      "start": 1.0645,
      "duration": 0.099,
      "velocity": 122,
      "chip": "ym2612"
    },
    {
      "channel": 3,
      "note": 61,
      "start": 1.0664,
      "duration": 0.0314,
      "velocity": 104,
      "chip": "ym2612"
    },
    {
      "channel": 4,
      "note": 61,
      "start": 1.0681,
      "duration": 0.0981,
      "velocity": 114,
      "chip": "ym2612"
    },
    {
      "channel": 2,
      "note": 80,
      "start": 1.0698,
      "duration": 0.0973,
      "velocity": 114,
      "chip": "ym2612"
    },
    {
      "channel": 3,
      "note": 61,
      "start": 1.1653,
      "duration": 0.0325,
      "velocity": 104,
      "chip": "ym2612"
    },
    {
      "channel": 1,
      "note": 57,
      "start": 1.2674,
      "duration": 0.3295,
      "velocity": 125,
      "chip": "ym2612"
    },
    {
      "channel": 3,
      "note": 49,
      "start": 1.2692,
      "duration": 0.1119,
      "velocity": 104,
      "chip": "ym2612"
    },
    {
      "channel": 4,
      "note": 61,
      "start": 1.271,
      "duration": 0.1111,
      "velocity": 114,
      "chip": "ym2612"
    },
    {
      "channel": 2,
      "note": 80,
      "start": 1.2727,
      "duration": 0.1102,
      "velocity": 114,
      "chip": "ym2612"
    },
    {
      "channel": 3,
      "note": 49,
      "start": 1.4819,
      "duration": 0.1159,
      "velocity": 104,
      "chip": "ym2612"
    },
    {
      "channel": 4,
      "note": 70,
      "start": 1.4837,
      "duration": 0.5317,
      "velocity": 114,
      "chip": "ym2612"
    },
    {
      "channel": 2,
      "note": 90,
      "start": 1.4855,
      "duration": 0.5308,
      "velocity": 114,
      "chip": "ym2612"
    },
    {
      "channel": 1,
      "note": 46,
      "start": 1.7008,
      "duration": 0.3127,
      "velocity": 122,
      "chip": "ym2612"
    },
    {
      "channel": 3,
      "note": 49,
      "start": 1.7026,
      "duration": 0.0951,
      "velocity": 104,
      "chip": "ym2612"
    },
    {
      "channel": 3,
      "note": 49,
      "start": 1.9152,
      "duration": 0.0992,
      "velocity": 104,
      "chip": "ym2612"
    },
    {
      "channel": 1,
      "note": 57,
      "start": 2.1341,
      "duration": 0.3128,
      "velocity": 125,
      "chip": "ym2612"
    },
    {
      "channel": 3,
      "note": 49,
      "start": 2.1358,
      "duration": 0.0953,
      "velocity": 104,
      "chip": "ym2612"
    },
    {
      "channel": 4,
      "note": 61,
      "start": 2.1376,
      "duration": 0.0945,
      "velocity": 114,
      "chip": "ym2612"
    },
    {
      "channel": 2,
      "note": 80,
      "start": 2.1393,
      "duration": 0.0936,
      "velocity": 114,
      "chip": "ym2612"
    },
    {
      "channel": 3,
      "note": 49,
      "start": 2.3319,
      "duration": 0.1159,
      "velocity": 104,
      "chip": "ym2612"
    },
    {
      "channel": 4,
      "note": 61,
      "start": 2.3337,
      "duration": 0.1151,
      "velocity": 114,
      "chip": "ym2612"
    },
    {
      "channel": 2,
      "note": 80,
      "start": 2.3354,
      "duration": 0.1142,
      "velocity": 114,
      "chip": "ym2612"
    },
    {
      "channel": 1,
      "note": 46,
      "start": 2.5507,
      "duration": 0.1128,
      "velocity": 122,
      "chip": "ym2612"
    },
    {
      "channel": 3,
      "note": 49,
      "start": 2.5525,
      "duration": 0.112,
      "velocity": 104,
      "chip": "ym2612"
    },
    {
      "channel": 4,
      "note": 61,
      "start": 2.5542,
      "duration": 0.1111,
      "velocity": 114,
      "chip": "ym2612"
    },
    {
      "channel": 2,
      "note": 80,
      "start": 2.5559,
      "duration": 0.1104,
      "velocity": 114,
      "chip": "ym2612"
    },
    {
      "channel": 1,
      "note": 46,
      "start": 2.7645,
      "duration": 0.099,
      "velocity": 122,
      "chip": "ym2612"
    },
    {
      "channel": 3,
      "note": 61,
      "start": 2.7664,
      "duration": 0.0314,
      "velocity": 104,
      "chip": "ym2612"
    },
    {
      "channel": 4,
      "note": 61,
      "start": 2.7681,
      "duration": 0.0982,
      "velocity": 114,
      "chip": "ym2612"
    },
    {
      "channel": 2,
      "note": 80,
      "start": 2.7698,
      "duration": 0.0973,
      "velocity": 114,
      "chip": "ym2612"
    },
    {
      "channel": 3,
      "note": 61,
      "start": 2.8653,
      "duration": 0.0492,
      "velocity": 104,
      "chip": "ym2612"
    },
    {
      "channel": 1,
      "note": 57,
      "start": 2.9841,
      "duration": 0.3128,
      "velocity": 125,
      "chip": "ym2612"
    },
    {
      "channel": 3,
      "note": 49,
      "start": 2.9859,
      "duration": 0.0952,
      "velocity": 104,
      "chip": "ym2612"
    },
    {
      "channel": 4,
      "note": 61,
      "start": 2.9876,
      "duration": 0.0944,
      "velocity": 114,
      "chip": "ym2612"
    },
    {
      "channel": 2,
      "note": 80,
      "start": 2.9893,
      "duration": 0.0936,
      "velocity": 114,
      "chip": "ym2612"
    },
    {
      "channel": 3,
      "note": 49,
      "start": 3.1986,
      "duration": 0.0992,
      "velocity": 104,
      "chip": "ym2612"
    },
    {
      "channel": 4,
      "note": 69,
      "start": 3.2003,
      "duration": 0.5317,
      "velocity": 114,
      "chip": "ym2612"
    },
    {
      "channel": 2,
      "note": 88,
      "start": 3.2021,
      "duration": 0.5308,
      "velocity": 114,
      "chip": "ym2612"
    },
    {
      "channel": 1,
      "note": 46,
      "start": 3.4008,
      "duration": 0.3294,
      "velocity": 122,
      "chip": "ym2612"
    },
    {
      "channel": 3,
      "note": 49,
      "start": 3.4026,
      "duration": 0.1118,
      "velocity": 104,
      "chip": "ym2612"
    },
    {
      "channel": 3,
      "note": 49,
      "start": 3.6152,
      "duration": 0.1159,
      "velocity": 104,
      "chip": "ym2612"
    },
    {
      "channel": 1,
      "note": 57,
      "start": 3.8341,
      "duration": 0.3128,
      "velocity": 125,
      "chip": "ym2612"
    },
    {
      "channel": 3,
      "note": 49,
      "start": 3.8358,
      "duration": 0.0953,
      "velocity": 104,
      "chip": "ym2612"
    },
    {
      "channel": 4,
      "note": 61,
      "start": 3.8376,
      "duration": 0.0945,
      "velocity": 114,
      "chip": "ym2612"
    },
    {
      "channel": 2,
      "note": 80,
      "start": 3.8393,
      "duration": 0.0936,
      "velocity": 114,
      "chip": "ym2612"
    },
    {
      "channel": 3,
      "note": 49,
      "start": 4.0486,
      "duration": 0.0992,
      "velocity": 104,
      "chip": "ym2612"
    },
    {
      "channel": 4,
      "note": 61,
      "start": 4.0503,
      "duration": 0.0984,
      "velocity": 114,
      "chip": "ym2612"
    },
    {
      "channel": 2,
      "note": 80,
      "start": 4.0521,
      "duration": 0.0976,
      "velocity": 114,
      "chip": "ym2612"
    },
    {
      "channel": 1,
      "note": 46,
      "start": 4.2674,
      "duration": 0.0961,
      "velocity": 122,
      "chip": "ym2612"
    },
    {
      "channel": 3,
      "note": 49,
      "start": 4.2692,
      "duration": 0.0953,
      "velocity": 104,
      "chip": "ym2612"
    },
    {
      "channel": 4,
      "note": 61,
      "start": 4.2709,
      "duration": 0.0945,
      "velocity": 114,
      "chip": "ym2612"
    },
    {
      "channel": 2,
      "note": 80,
      "start": 4.2726,
      "duration": 0.0937,
      "velocity": 114,
      "chip": "ym2612"
    },
    {
      "channel": 1,
      "note": 46,
      "start": 4.4645,
      "duration": 0.1156,
      "velocity": 122,
      "chip": "ym2612"
    },
    {
      "channel": 3,
      "note": 61,
      "start": 4.4664,
      "duration": 0.048,
      "velocity": 104,
      "chip": "ym2612"
    },
    {
      "channel": 4,
      "note": 61,
      "start": 4.4681,
      "duration": 0.1148,
      "velocity": 114,
      "chip": "ym2612"
    },
    {
      "channel": 2,
      "note": 80,
      "start": 4.4698,
      "duration": 0.114,
      "velocity": 114,
      "chip": "ym2612"
    },
    {
      "channel": 3,
      "note": 61,
      "start": 4.582,
      "duration": 0.0325,
      "velocity": 104,
      "chip": "ym2612"
    },
    {
      "channel": 1,
      "note": 57,
      "start": 4.6841,
      "duration": 0.3128,
      "velocity": 125,
      "chip": "ym2612"
    },
    {
      "channel": 3,
      "note": 49,
      "start": 4.6859,
      "duration": 0.1119,
      "velocity": 104,
      "chip": "ym2612"
    },
    {
      "channel": 4,
      "note": 61,
      "start": 4.6876,
      "duration": 0.1111,
      "velocity": 114,
      "chip": "ym2612"
    },
    {
      "channel": 2,
      "note": 80,
      "start": 4.6893,
      "duration": 0.1102,
      "velocity": 114,
      "chip": "ym2612"
    },
    {
      "channel": 3,
      "note": 49,
      "start": 4.8986,
      "duration": 0.0992,
      "velocity": 104,
      "chip": "ym2612"
    },
    {
      "channel": 4,
      "note": 70,
      "start": 4.9003,
      "duration": 0.5317,
      "velocity": 114,
      "chip": "ym2612"
    },
    {
      "channel": 2,
      "note": 90,
      "start": 4.9021,
      "duration": 0.5308,
      "velocity": 114,
      "chip": "ym2612"
    },
    {
      "channel": 1,
      "note": 46,
      "start": 5.1175,
      "duration": 0.3127,
      "velocity": 122,
      "chip": "ym2612"
    },
    {
      "channel": 3,
      "note": 49,
      "start": 5.1193,
      "duration": 0.0951,
      "velocity": 104,
      "chip": "ym2612"
    },
    {
      "channel": 3,
      "note": 49,
      "start": 5.3319,
      "duration": 0.0992,
      "velocity": 104,
      "chip": "ym2612"
    },
    {
      "channel": 1,
      "note": 57,
      "start": 5.5341,
      "duration": 0.3295,
      "velocity": 125,
      "chip": "ym2612"
    },
    {
      "channel": 3,
      "note": 52,
      "start": 5.5358,
      "duration": 0.112,
      "velocity": 104,
      "chip": "ym2612"
    },
    {
      "channel": 4,
      "note": 61,
      "start": 5.5376,
      "duration": 0.1111,
      "velocity": 114,
      "chip": "ym2612"
    },
    {
      "channel": 2,
      "note": 80,
      "start": 5.5393,
      "duration": 0.1102,
      "velocity": 114,
      "chip": "ym2612"
    },
    {
      "channel": 3,
      "note": 51,
      "start": 5.7486,
      "duration": 0.1159,
      "velocity": 104,
      "chip": "ym2612"
    },
    {
      "channel": 4,
      "note": 61,
      "start": 5.7503,
      "duration": 0.1151,
      "velocity": 114,
      "chip": "ym2612"
    },
    {
      "channel": 2,
      "note": 80,
      "start": 5.7521,
      "duration": 0.1142,
      "velocity": 114,
      "chip": "ym2612"
    },
    {
      "channel": 1,
      "note": 46,
      "start": 5.9674,
      "duration": 0.0961,
      "velocity": 122,
      "chip": "ym2612"
    },
    {
      "channel": 3,
      "note": 56,
      "start": 5.9692,
      "duration": 0.0953,
      "velocity": 104,
      "chip": "ym2612"
    },
    {
      "channel": 4,
      "note": 61,
      "start": 5.9709,
      "duration": 0.0945,
      "velocity": 114,
      "chip": "ym2612"
    },
    {
      "channel": 2,
      "note": 80,
      "start": 5.9726,
      "duration": 0.0937,
      "velocity": 114,
      "chip": "ym2612"
    },
    {
      "channel": 1,
      "note": 46,
      "start": 6.1812,
      "duration": 0.099,
      "velocity": 122,
      "chip": "ym2612"
    },
    {
      "channel": 3,
      "note": 54,
      "start": 6.183,
      "duration": 0.0982,
      "velocity": 104,
      "chip": "ym2612"
    },
    {
      "channel": 4,
      "note": 61,
      "start": 6.1848,
      "duration": 0.0973,
      "velocity": 114,
      "chip": "ym2612"
    },
    {
      "channel": 2,
      "note": 80,
      "start": 6.1865,
      "duration": 0.0965,
      "velocity": 114,
      "chip": "ym2612"
    },
    {
      "channel": 1,
      "note": 57,
      "start": 6.4007,
      "duration": 0.3128,
      "velocity": 125,
      "chip": "ym2612"
    },
    {
      "channel": 3,
      "note": 52,
      "start": 6.4025,
      "duration": 0.0952,
      "velocity": 104,
      "chip": "ym2612"
    },
    {
      "channel": 4,
      "note": 61,
      "start": 6.4042,
      "duration": 0.0945,
      "velocity": 114,
      "chip": "ym2612"
    },
    {
      "channel": 2,
      "note": 80,
      "start": 6.4059,
      "duration": 0.0937,
      "velocity": 114,
      "chip": "ym2612"
    },
    {
      "channel": 3,
      "note": 51,
      "start": 6.5986,
      "duration": 0.1159,
      "velocity": 104,
      "chip": "ym2612"
    },
    {
      "channel": 4,
      "note": 73,
      "start": 6.6003,
      "duration": 0.5317,
      "velocity": 114,
      "chip": "ym2612"
    },
    {
      "channel": 2,
      "note": 92,
      "start": 6.6021,
      "duration": 0.5308,
      "velocity": 114,
      "chip": "ym2612"
    },
    {
      "channel": 1,
      "note": 46,
      "start": 6.8175,
      "duration": 0.3127,
      "velocity": 122,
      "chip": "ym2612"
    },
    {
      "channel": 3,
      "note": 49,
      "start": 6.8193,
      "duration": 0.1118,
      "velocity": 104,
      "chip": "ym2612"
    },
    {
      "channel": 3,
      "note": 49,
      "start": 7.0319,
      "duration": 0.0992,
      "velocity": 104,
      "chip": "ym2612"
    },
    {
      "channel": 1,
      "note": 57,
      "start": 7.2507,
      "duration": 0.3128,
      "velocity": 125,
      "chip": "ym2612"
    },
    {
      "channel": 3,
      "note": 49,
      "start": 7.2524,
      "duration": 0.0953,
      "velocity": 104,
      "chip": "ym2612"
    },
    {
      "channel": 4,
      "note": 61,
      "start": 7.2542,
      "duration": 0.0945,
      "velocity": 114,
      "chip": "ym2612"
    },
    {
      "channel": 2,
      "note": 80,
      "start": 7.256,
      "duration": 0.0936,
      "velocity": 114,
      "chip": "ym2612"
    },
    {
      "channel": 3,
      "note": 49,
      "start": 7.4652,
      "duration": 0.0992,
      "velocity": 104,
      "chip": "ym2612"
    },
    {
      "channel": 4,
      "note": 61,
      "start": 7.467,
      "duration": 0.0984,
      "velocity": 114,
      "chip": "ym2612"
    },
    {
      "channel": 2,
      "note": 80,
      "start": 7.4687,
      "duration": 0.0976,
      "velocity": 114,
      "chip": "ym2612"
    },
    {
      "channel": 1,
      "note": 46,
      "start": 7.6674,
      "duration": 0.1128,
      "velocity": 122,
      "chip": "ym2612"
    },
    {
      "channel": 3,
      "note": 49,
      "start": 7.6692,
      "duration": 0.112,
      "velocity": 104,
      "chip": "ym2612"
    },
    {
      "channel": 4,
      "note": 61,
      "start": 7.671,
      "duration": 0.1111,
      "velocity": 114,
      "chip": "ym2612"
    },
    {
      "channel": 2,
      "note": 80,
      "start": 7.6727,
      "duration": 0.1103,
      "velocity": 114,
      "chip": "ym2612"
    },
    {
      "channel": 1,
      "note": 46,
      "start": 7.8812,
      "duration": 0.1156,
      "velocity": 122,
      "chip": "ym2612"
    },
    {
      "channel": 3,
      "note": 61,
      "start": 7.883,
      "duration": 0.0314,
      "velocity": 104,
      "chip": "ym2612"
    },
    {
      "channel": 4,
      "note": 61,
      "start": 7.8848,
      "duration": 0.1148,
      "velocity": 114,
      "chip": "ym2612"
    },
    {
      "channel": 2,
      "note": 80,
      "start": 7.8865,
      "duration": 0.114,
      "velocity": 114,
      "chip": "ym2612"
    },
    {
      "channel": 3,
      "note": 61,
      "start": 7.9986,
      "duration": 0.0325,
      "velocity": 104,
      "chip": "ym2612"
    },
    {
      "channel": 1,
      "note": 57,
      "start": 8.1007,
      "duration": 0.3128,
      "velocity": 125,
      "chip": "ym2612"
    },
    {
      "channel": 3,
      "note": 49,
      "start": 8.1025,
      "duration": 0.0952,
      "velocity": 104,
      "chip": "ym2612"
    },
    {
      "channel": 4,
      "note": 61,
      "start": 8.1043,
      "duration": 0.0944,
      "velocity": 114,
      "chip": "ym2612"
    },
    {
      "channel": 2,
      "note": 80,
      "start": 8.106,
      "duration": 0.0936,
      "velocity": 114,
      "chip": "ym2612"
    },
    {
      "channel": 3,
      "note": 49,
      "start": 8.3152,
      "duration": 0.0992,
      "velocity": 104,
      "chip": "ym2612"
    },
    {
      "channel": 4,
      "note": 70,
      "start": 8.317,
      "duration": 0.5317,
      "velocity": 114,
      "chip": "ym2612"
    },
    {
      "channel": 2,
      "note": 90,
      "start": 8.3188,
      "duration": 0.5308,
      "velocity": 114,
      "chip": "ym2612"
    },
    {
      "channel": 1,
      "note": 46,
      "start": 8.5341,
      "duration": 0.3127,
      "velocity": 122,
      "chip": "ym2612"
    },
    {
      "channel": 3,
      "note": 49,
      "start": 8.5359,
      "duration": 0.0951,
      "velocity": 104,
      "chip": "ym2612"
    },
    {
      "channel": 3,
      "note": 49,
      "start": 8.7319,
      "duration": 0.1159,
      "velocity": 104,
      "chip": "ym2612"
    },
    {
      "channel": 1,
      "note": 57,
      "start": 8.9507,
      "duration": 0.3128,
      "velocity": 125,
      "chip": "ym2612"
    },
    {
      "channel": 3,
      "note": 49,
      "start": 8.9524,
      "duration": 0.112,
      "velocity": 104,
      "chip": "ym2612"
    },
    {
      "channel": 4,
      "note": 61,
      "start": 8.9542,
      "duration": 0.1111,
      "velocity": 114,
      "chip": "ym2612"
    },
    {
      "channel": 2,
      "note": 80,
      "start": 8.956,
      "duration": 0.1102,
      "velocity": 114,
      "chip": "ym2612"
    },
    {
      "channel": 3,
      "note": 49,
      "start": 9.1653,
      "duration": 0.0992,
      "velocity": 104,
      "chip": "ym2612"
    },
    {
      "channel": 4,
      "note": 61,
      "start": 9.167,
      "duration": 0.0984,
      "velocity": 114,
      "chip": "ym2612"
    },
    {
      "channel": 2,
      "note": 80,
      "start": 9.1687,
      "duration": 0.0976,
      "velocity": 114,
      "chip": "ym2612"
    },
    {
      "channel": 1,
      "note": 46,
      "start": 9.3841,
      "duration": 0.0961,
      "velocity": 122,
      "chip": "ym2612"
    },
    {
      "channel": 3,
      "note": 49,
      "start": 9.3859,
      "duration": 0.0953,
      "velocity": 104,
      "chip": "ym2612"
    },
    {
      "channel": 4,
      "note": 61,
      "start": 9.3876,
      "duration": 0.0945,
      "velocity": 114,
      "chip": "ym2612"
    },
    {
      "channel": 2,
      "note": 80,
      "start": 9.3893,
      "duration": 0.0937,
      "velocity": 114,
      "chip": "ym2612"
    },
    {
      "channel": 1,
      "note": 46,
      "start": 9.5979,
      "duration": 0.099,
      "velocity": 122,
      "chip": "ym2612"
    },
    {
      "channel": 3,
      "note": 61,
      "start": 9.5997,
      "duration": 0.0314,
      "velocity": 104,
      "chip": "ym2612"
    },
    {
      "channel": 4,
      "note": 61,
      "start": 9.6014,
      "duration": 0.0981,
      "velocity": 114,
      "chip": "ym2612"
    },
    {
      "channel": 2,
      "note": 80,
      "start": 9.6032,
      "duration": 0.0973,
      "velocity": 114,
      "chip": "ym2612"
    },
    {
      "channel": 3,
      "note": 61,
      "start": 9.6986,
      "duration": 0.0325,
      "velocity": 104,
      "chip": "ym2612"
    },
    {
      "channel": 1,
      "note": 57,
      "start": 9.8007,
      "duration": 0.3295,
      "velocity": 125,
      "chip": "ym2612"
    },
    {
      "channel": 3,
      "note": 49,
      "start": 9.8025,
      "duration": 0.1119,
      "velocity": 104,
      "chip": "ym2612"
    },
    {
      "channel": 4,
      "note": 61,
      "start": 9.8043,
      "duration": 0.1111,
      "velocity": 114,
      "chip": "ym2612"
    },
    {
      "channel": 2,
      "note": 80,
      "start": 9.806,
      "duration": 0.1102,
      "velocity": 114,
      "chip": "ym2612"
    },
    {
      "channel": 3,
      "note": 49,
      "start": 10.0152,
      "duration": 0.1159,
      "velocity": 104,
      "chip": "ym2612"
    },
    {
      "channel": 4,
      "note": 69,
      "start": 10.017,
      "duration": 0.5317,
      "velocity": 114,
      "chip": "ym2612"
    },
    {
      "channel": 2,
      "note": 88,
      "start": 10.0188,
      "duration": 0.5308,
      "velocity": 114,
      "chip": "ym2612"
    },
    {
      "channel": 1,
      "note": 46,
      "start": 10.2341,
      "duration": 0.3127,
      "velocity": 122,
      "chip": "ym2612"
    },
    {
      "channel": 3,
      "note": 49,
      "start": 10.2359,
      "duration": 0.0951,
      "velocity": 104,
      "chip": "ym2612"
    },
    {
      "channel": 3,
      "note": 49,
      "start": 10.4486,
      "duration": 0.0992,
      "velocity": 104,
      "chip": "ym2612"
    },
    {
      "channel": 1,
      "note": 57,
      "start": 10.6674,
      "duration": 0.3128,
      "velocity": 125,
      "chip": "ym2612"
    },
    {
      "channel": 3,
      "note": 49,
      "start": 10.6691,
      "duration": 0.0953,
      "velocity": 104,
      "chip": "ym2612"
    },
    {
      "channel": 4,
      "note": 61,
      "start": 10.6709,
      "duration": 0.0945,
      "velocity": 114,
      "chip": "ym2612"
    },
    {
      "channel": 2,
      "note": 80,
      "start": 10.6727,
      "duration": 0.0936,
      "velocity": 114,
      "chip": "ym2612"
    },
    {
      "channel": 3,
      "note": 49,
      "start": 10.8652,
      "duration": 0.1159,
      "velocity": 104,
      "chip": "ym2612"
    },
    {
      "channel": 4,
      "note": 61,
      "start": 10.867,
      "duration": 0.1151,
      "velocity": 114,
      "chip": "ym2612"
    },
    {
      "channel": 2,
      "note": 80,
      "start": 10.8687,
      "duration": 0.1142,
      "velocity": 114,
      "chip": "ym2612"
    },
    {
      "channel": 1,
      "note": 46,
      "start": 11.0841,
      "duration": 0.1128,
      "velocity": 122,
      "chip": "ym2612"
    },
    {
      "channel": 3,
      "note": 49,
      "start": 11.0859,
      "duration": 0.112,
      "velocity": 104,
      "chip": "ym2612"
    },
    {
      "channel": 4,
      "note": 61,
      "start": 11.0876,
      "duration": 0.1111,
      "velocity": 114,
      "chip": "ym2612"
    },
    {
      "channel": 2,
      "note": 80,
      "start": 11.0893,
      "duration": 0.1104,
      "velocity": 114,
      "chip": "ym2612"
    },
    {
      "channel": 1,
      "note": 46,
      "start": 11.2979,
      "duration": 0.099,
      "velocity": 122,
      "chip": "ym2612"
    },
    {
      "channel": 3,
      "note": 61,
      "start": 11.2997,
      "duration": 0.0314,
      "velocity": 104,
      "chip": "ym2612"
    },
    {
      "channel": 4,
      "note": 61,
      "start": 11.3014,
      "duration": 0.0981,
      "velocity": 114,
      "chip": "ym2612"
    },
    {
      "channel": 2,
      "note": 80,
      "start": 11.3032,
      "duration": 0.0973,
      "velocity": 114,
      "chip": "ym2612"
    },
    {
      "channel": 3,
      "note": 61,
      "start": 11.3986,
      "duration": 0.0492,
      "velocity": 104,
      "chip": "ym2612"
    },
    {
      "channel": 1,
      "note": 57,
      "start": 11.5174,
      "duration": 0.3128,
      "velocity": 125,
      "chip": "ym2612"
    },
    {
      "channel": 3,
      "note": 49,
      "start": 11.5192,
      "duration": 0.0952,
      "velocity": 104,
      "chip": "ym2612"
    },
    {
      "channel": 4,
      "note": 61,
      "start": 11.521,
      "duration": 0.0944,
      "velocity": 114,
      "chip": "ym2612"
    },
    {
      "channel": 2,
      "note": 80,
      "start": 11.5227,
      "duration": 0.0936,
      "velocity": 114,
      "chip": "ym2612"
    },
    {
      "channel": 3,
      "note": 49,
      "start": 11.7319,
      "duration": 0.0992,
      "velocity": 104,
      "chip": "ym2612"
    },
    {
      "channel": 4,
      "note": 70,
      "start": 11.7337,
      "duration": 1.7984,
      "velocity": 114,
      "chip": "ym2612"
    },
    {
      "channel": 2,
      "note": 90,
      "start": 11.7355,
      "duration": 1.7975,
      "velocity": 114,
      "chip": "ym2612"
    },
    {
      "channel": 1,
      "note": 46,
      "start": 11.9341,
      "duration": 0.3294,
      "velocity": 122,
      "chip": "ym2612"
    },
    {
      "channel": 3,
      "note": 49,
      "start": 11.9359,
      "duration": 0.1118,
      "velocity": 104,
      "chip": "ym2612"
    },
    {
      "channel": 3,
      "note": 49,
      "start": 12.1486,
      "duration": 0.1159,
      "velocity": 104,
      "chip": "ym2612"
    },
    {
      "channel": 1,
      "note": 57,
      "start": 12.3674,
      "duration": 0.3128,
      "velocity": 125,
      "chip": "ym2612"
    },
    {
      "channel": 3,
      "note": 52,
      "start": 12.3691,
      "duration": 0.0953,
      "velocity": 104,
      "chip": "ym2612"
    },
    {
      "channel": 3,
      "note": 51,
      "start": 12.5819,
      "duration": 0.0992,
      "velocity": 104,
      "chip": "ym2612"
    },
    {
      "channel": 1,
      "note": 46,
      "start": 12.8007,
      "duration": 0.0961,
      "velocity": 122,
      "chip": "ym2612"
    },
    {
      "channel": 3,
      "note": 56,
      "start": 12.8025,
      "duration": 0.0953,
      "velocity": 104,
      "chip": "ym2612"
    },
    {
      "channel": 1,
      "note": 46,
      "start": 12.9979,
      "duration": 0.1156,
      "velocity": 122,
      "chip": "ym2612"
    },
    {
      "channel": 3,
      "note": 54,
      "start": 12.9996,
      "duration": 0.1148,
      "velocity": 104,
      "chip": "ym2612"
    },
    {
      "channel": 1,
      "note": 57,
      "start": 13.2174,
      "duration": 0.3128,
      "velocity": 125,
      "chip": "ym2612"
    },
    {
      "channel": 3,
      "note": 52,
      "start": 13.2192,
      "duration": 0.1119,
      "velocity": 104,
      "chip": "ym2612"
    },
    {
      "channel": 3,
      "note": 51,
      "start": 13.4319,
      "duration": 0.0992,
      "velocity": 104,
      "chip": "ym2612"
    },
    {
      "channel": 1,
      "note": 46,
      "start": 13.6508,
      "duration": 0.3128,
      "velocity": 122,
      "chip": "ym2612"
    },
    {
      "channel": 3,
      "note": 49,
      "start": 13.6526,
      "duration": 0.0951,
      "velocity": 104,
      "chip": "ym2612"
    },
    {
      "channel": 4,
      "note": 61,
      "start": 13.6544,
      "duration": 0.0943,
      "velocity": 114,
      "chip": "ym2612"
    },
    {
      "channel": 2,
      "note": 97,
      "start": 13.6591,
      "duration": 0.0905,
      "velocity": 74,
      "chip": "ym2612"
    },
    {
      "channel": 3,
      "note": 49,
      "start": 13.8652,
      "duration": 0.0992,
      "velocity": 104,
      "chip": "ym2612"
    },
    {
      "channel": 4,
      "note": 61,
      "start": 13.867,
      "duration": 0.0984,
      "velocity": 114,
      "chip": "ym2612"
    },
    {
      "channel": 2,
      "note": 100,
      "start": 13.8689,
      "duration": 0.0976,
      "velocity": 74,
      "chip": "ym2612"
    },
    {
      "channel": 1,
      "note": 57,
      "start": 14.0674,
      "duration": 0.3295,
      "velocity": 125,
      "chip": "ym2612"
    },
    {
      "channel": 3,
      "note": 49,
      "start": 14.0691,
      "duration": 0.112,
      "velocity": 104,
      "chip": "ym2612"
    },
    {
      "channel": 4,
      "note": 68,
      "start": 14.0709,
      "duration": 0.1111,
      "velocity": 114,
      "chip": "ym2612"
    },
    {
      "channel": 2,
      "note": 99,
      "start": 14.0727,
      "duration": 0.1103,
      "velocity": 74,
      "chip": "ym2612"
    },
    {
      "channel": 0,
      "note": 85,
      "start": 14.0745,
      "duration": 0.3274,
      "velocity": 116,
      "chip": "ym2612"
    },
    {
      "channel": 3,
      "note": 49,
      "start": 14.2819,
      "duration": 0.1159,
      "velocity": 104,
      "chip": "ym2612"
    },
    {
      "channel": 4,
      "note": 61,
      "start": 14.2837,
      "duration": 0.1151,
      "velocity": 114,
      "chip": "ym2612"
    },
    {
      "channel": 2,
      "note": 100,
      "start": 14.2856,
      "duration": 0.1141,
      "velocity": 74,
      "chip": "ym2612"
    },
    {
      "channel": 5,
      "note": 85,
      "start": 14.2871,
      "duration": 0.3137,
      "velocity": 116,
      "chip": "ym2612"
    },
    {
      "channel": 1,
      "note": 46,
      "start": 14.5007,
      "duration": 0.0961,
      "velocity": 122,
      "chip": "ym2612"
    },
    {
      "channel": 3,
      "note": 49,
      "start": 14.5025,
      "duration": 0.0953,
      "velocity": 104,
      "chip": "ym2612"
    },
    {
      "channel": 4,
      "note": 61,
      "start": 14.5042,
      "duration": 0.0945,
      "velocity": 114,
      "chip": "ym2612"
    },
    {
      "channel": 2,
      "note": 102,
      "start": 14.5061,
      "duration": 0.0936,
      "velocity": 74,
      "chip": "ym2612"
    },
    {
      "channel": 0,
      "note": 87,
      "start": 14.5092,
      "duration": 0.0927,
      "velocity": 116,
      "chip": "ym2612"
    },
    {
      "channel": 1,
      "note": 46,
      "start": 14.7145,
      "duration": 0.099,
      "velocity": 122,
      "chip": "ym2612"
    },
    {
      "channel": 3,
      "note": 61,
      "start": 14.7164,
      "duration": 0.0314,
      "velocity": 104,
      "chip": "ym2612"
    },
    {
      "channel": 4,
      "note": 68,
      "start": 14.7181,
      "duration": 0.0981,
      "velocity": 114,
      "chip": "ym2612"
    },
    {
      "channel": 2,
      "note": 100,
      "start": 14.72,
      "duration": 0.0972,
      "velocity": 74,
      "chip": "ym2612"
    },
    {
      "channel": 5,
      "note": 87,
      "start": 14.7221,
      "duration": 0.0962,
      "velocity": 116,
      "chip": "ym2612"
    },
    {
      "channel": 0,
      "note": 88,
      "start": 14.7241,
      "duration": 0.0952,
      "velocity": 116,
      "chip": "ym2612"
    },
    {
      "channel": 3,
      "note": 61,
      "start": 14.8153,
      "duration": 0.0325,
      "velocity": 104,
      "chip": "ym2612"
    },
    {
      "channel": 1,
      "note": 57,
      "start": 14.9341,
      "duration": 0.3128,
      "velocity": 125,
      "chip": "ym2612"
    },
    {
      "channel": 3,
      "note": 49,
      "start": 14.9359,
      "duration": 0.0952,
      "velocity": 104,
      "chip": "ym2612"
    },
    {
      "channel": 4,
      "note": 61,
      "start": 14.9376,
      "duration": 0.0944,
      "velocity": 114,
      "chip": "ym2612"
    },
    {
      "channel": 2,
      "note": 99,
      "start": 14.9395,
      "duration": 0.0936,
      "velocity": 74,
      "chip": "ym2612"
    },
    {
      "channel": 5,
      "note": 88,
      "start": 14.9416,
      "duration": 0.0926,
      "velocity": 116,
      "chip": "ym2612"
    },
    {
      "channel": 3,
      "note": 49,
      "start": 15.1319,
      "duration": 0.1159,
      "velocity": 104,
      "chip": "ym2612"
    },
    {
      "channel": 4,
      "note": 61,
      "start": 15.1337,
      "duration": 0.1151,
      "velocity": 114,
      "chip": "ym2612"
    },
    {
      "channel": 2,
      "note": 100,
      "start": 15.1356,
      "duration": 0.1141,
      "velocity": 74,
      "chip": "ym2612"
    },
    {
      "channel": 0,
      "note": 92,
      "start": 15.1381,
      "duration": 0.5304,
      "velocity": 116,
      "chip": "ym2612"
    },
    {
      "channel": 1,
      "note": 46,
      "start": 15.3508,
      "duration": 0.3127,
      "velocity": 122,
      "chip": "ym2612"
    },
    {
      "channel": 3,
      "note": 49,
      "start": 15.3526,
      "duration": 0.1118,
      "velocity": 104,
      "chip": "ym2612"
    },
    {
      "channel": 4,
      "note": 61,
      "start": 15.3544,
      "duration": 0.111,
      "velocity": 114,
      "chip": "ym2612"
    },
    {
      "channel": 2,
      "note": 97,
      "start": 15.3562,
      "duration": 0.1102,
      "velocity": 74,
      "chip": "ym2612"
    },
    {
      "channel": 5,
      "note": 92,
      "start": 15.3575,
      "duration": 0.5266,
      "velocity": 116,
      "chip": "ym2612"
    },
    {
      "channel": 3,
      "note": 49,
      "start": 15.5652,
      "duration": 0.0992,
      "velocity": 104,
      "chip": "ym2612"
    },
    {
      "channel": 4,
      "note": 61,
      "start": 15.567,
      "duration": 0.0984,
      "velocity": 114,
      "chip": "ym2612"
    },
    {
      "channel": 2,
      "note": 100,
      "start": 15.5689,
      "duration": 0.0975,
      "velocity": 74,
      "chip": "ym2612"
    },
    {
      "channel": 1,
      "note": 57,
      "start": 15.7841,
      "duration": 0.3128,
      "velocity": 125,
      "chip": "ym2612"
    },
    {
      "channel": 3,
      "note": 49,
      "start": 15.7858,
      "duration": 0.0953,
      "velocity": 104,
      "chip": "ym2612"
    },
    {
      "channel": 4,
      "note": 68,
      "start": 15.7876,
      "duration": 0.0945,
      "velocity": 114,
      "chip": "ym2612"
    },
    {
      "channel": 2,
      "note": 99,
      "start": 15.7894,
      "duration": 0.0936,
      "velocity": 74,
      "chip": "ym2612"
    },
    {
      "channel": 0,
      "note": 90,
      "start": 15.7925,
      "duration": 0.3094,
      "velocity": 116,
      "chip": "ym2612"
    },
    {
      "channel": 3,
      "note": 49,
      "start": 15.9986,
      "duration": 0.0992,
      "velocity": 104,
      "chip": "ym2612"
    },
    {
      "channel": 4,
      "note": 61,
      "start": 16.0003,
      "duration": 0.0984,
      "velocity": 114,
      "chip": "ym2612"
    },
    {
      "channel": 2,
      "note": 100,
      "start": 16.0023,
      "duration": 0.0974,
      "velocity": 74,
      "chip": "ym2612"
    },
    {
      "channel": 5,
      "note": 90,
      "start": 16.0044,
      "duration": 0.3131,
      "velocity": 116,
      "chip": "ym2612"
    },
    {
      "channel": 1,
      "note": 46,
      "start": 16.2007,
      "duration": 0.1128,
      "velocity": 122,
      "chip": "ym2612"
    },
    {
      "channel": 3,
      "note": 49,
      "start": 16.2025,
      "duration": 0.112,
      "velocity": 104,
      "chip": "ym2612"
    },
    {
      "channel": 4,
      "note": 61,
      "start": 16.2042,
      "duration": 0.1111,
      "velocity": 114,
      "chip": "ym2612"
    },
    {
      "channel": 2,
      "note": 102,
      "start": 16.2061,
      "duration": 0.1102,
      "velocity": 74,
      "chip": "ym2612"
    },
    {
      "channel": 0,
      "note": 88,
      "start": 16.2092,
      "duration": 0.326,
      "velocity": 116,
      "chip": "ym2612"
    },
    {
      "channel": 1,
      "note": 46,
      "start": 16.4145,
      "duration": 0.1156,
      "velocity": 122,
      "chip": "ym2612"
    },
    {
      "channel": 3,
      "note": 51,
      "start": 16.4163,
      "duration": 0.1148,
      "velocity": 104,
      "chip": "ym2612"
    },
    {
      "channel": 4,
      "note": 63,
      "start": 16.4181,
      "duration": 0.1139,
      "velocity": 114,
      "chip": "ym2612"
    },
    {
      "channel": 2,
      "note": 100,
      "start": 16.4199,
      "duration": 0.1131,
      "velocity": 74,
      "chip": "ym2612"
    },
    {
      "channel": 5,
      "note": 88,
      "start": 16.4221,
      "duration": 0.312,
      "velocity": 116,
      "chip": "ym2612"
    },
    {
      "channel": 1,
      "note": 57,
      "start": 16.6341,
      "duration": 0.3128,
      "velocity": 125,
      "chip": "ym2612"
    },
    {
      "channel": 3,
      "note": 52,
      "start": 16.6359,
      "duration": 0.0952,
      "velocity": 104,
      "chip": "ym2612"
    },
    {
      "channel": 4,
      "note": 64,
      "start": 16.6376,
      "duration": 0.0945,
      "velocity": 114,
      "chip": "ym2612"
    },
    {
      "channel": 2,
      "note": 99,
      "start": 16.6395,
      "duration": 0.0936,
      "velocity": 74,
      "chip": "ym2612"
    },
    {
      "channel": 0,
      "note": 90,
      "start": 16.6425,
      "duration": 0.0927,
      "velocity": 116,
      "chip": "ym2612"
    },
    {
      "channel": 3,
      "note": 57,
      "start": 16.8486,
      "duration": 0.3158,
      "velocity": 104,
      "chip": "ym2612"
    },
    {
      "channel": 4,
      "note": 69,
      "start": 16.8503,
      "duration": 0.315,
      "velocity": 114,
      "chip": "ym2612"
    },
    {
      "channel": 2,
      "note": 100,
      "start": 16.8523,
      "duration": 0.0974,
      "velocity": 74,
      "chip": "ym2612"
    },
    {
      "channel": 5,
      "note": 90,
      "start": 16.8544,
      "duration": 0.0963,
      "velocity": 116,
      "chip": "ym2612"
    },
    {
      "channel": 0,
      "note": 88,
      "start": 16.8565,
      "duration": 1.3796,
      "velocity": 116,
      "chip": "ym2612"
    },
    {
      "channel": 1,
      "note": 46,
      "start": 17.0675,
      "duration": 0.3127,
      "velocity": 122,
      "chip": "ym2612"
    },
    {
      "channel": 2,
      "note": 97,
      "start": 17.0712,
      "duration": 0.0951,
      "velocity": 74,
      "chip": "ym2612"
    },
    {
      "channel": 5,
      "note": 88,
      "start": 17.0732,
      "duration": 1.3776,
      "velocity": 116,
      "chip": "ym2612"
    },
    {
      "channel": 3,
      "note": 57,
      "start": 17.2653,
      "duration": 0.1158,
      "velocity": 104,
      "chip": "ym2612"
    },
    {
      "channel": 4,
      "note": 69,
      "start": 17.2671,
      "duration": 0.115,
      "velocity": 114,
      "chip": "ym2612"
    },
    {
      "channel": 2,
      "note": 100,
      "start": 17.269,
      "duration": 0.1141,
      "velocity": 74,
      "chip": "ym2612"
    },
    {
      "channel": 1,
      "note": 57,
      "start": 17.4841,
      "duration": 0.3128,
      "velocity": 125,
      "chip": "ym2612"
    },
    {
      "channel": 3,
      "note": 57,
      "start": 17.4858,
      "duration": 0.112,
      "velocity": 104,
      "chip": "ym2612"
    },
    {
      "channel": 4,
      "note": 76,
      "start": 17.4876,
      "duration": 0.1111,
      "velocity": 114,
      "chip": "ym2612"
    },
    {
      "channel": 2,
      "note": 99,
      "start": 17.4894,
      "duration": 0.1103,
      "velocity": 74,
      "chip": "ym2612"
    },
    {
      "channel": 3,
      "note": 57,
      "start": 17.6986,
      "duration": 0.0992,
      "velocity": 104,
      "chip": "ym2612"
    },
    {
      "channel": 4,
      "note": 69,
      "start": 17.7003,
      "duration": 0.0984,
      "velocity": 114,
      "chip": "ym2612"
    },
    {
      "channel": 2,
      "note": 100,
      "start": 17.7023,
      "duration": 0.0974,
      "velocity": 74,
      "chip": "ym2612"
    },
    {
      "channel": 1,
      "note": 46,
      "start": 17.9174,
      "duration": 0.0961,
      "velocity": 122,
      "chip": "ym2612"
    },
    {
      "channel": 3,
      "note": 57,
      "start": 17.9192,
      "duration": 0.0953,
      "velocity": 104,
      "chip": "ym2612"
    },
    {
      "channel": 4,
      "note": 69,
      "start": 17.9209,
      "duration": 0.0945,
      "velocity": 114,
      "chip": "ym2612"
    },
    {
      "channel": 2,
      "note": 102,
      "start": 17.9228,
      "duration": 0.0936,
      "velocity": 74,
      "chip": "ym2612"
    },
    {
      "channel": 1,
      "note": 46,
      "start": 18.1312,
      "duration": 0.099,
      "velocity": 122,
      "chip": "ym2612"
    },
    {
      "channel": 3,
      "note": 69,
      "start": 18.133,
      "duration": 0.0314,
      "velocity": 104,
      "chip": "ym2612"
    },
    {
      "channel": 4,
      "note": 76,
      "start": 18.1348,
      "duration": 0.0981,
      "velocity": 114,
      "chip": "ym2612"
    },
    {
      "channel": 2,
      "note": 100,
      "start": 18.1367,
      "duration": 0.0972,
      "velocity": 74,
      "chip": "ym2612"
    },
    {
      "channel": 3,
      "note": 69,
      "start": 18.232,
      "duration": 0.0325,
      "velocity": 104,
      "chip": "ym2612"
    },
    {
      "channel": 1,
      "note": 57,
      "start": 18.3341,
      "duration": 0.3295,
      "velocity": 125,
      "chip": "ym2612"
    },
    {
      "channel": 3,
      "note": 57,
      "start": 18.3359,
      "duration": 0.1119,
      "velocity": 104,
      "chip": "ym2612"
    },
    {
      "channel": 4,
      "note": 69,
      "start": 18.3376,
      "duration": 0.1111,
      "velocity": 114,
      "chip": "ym2612"
    },
    {
      "channel": 2,
      "note": 99,
      "start": 18.3395,
      "duration": 0.1102,
      "velocity": 74,
      "chip": "ym2612"
    },
    {
      "channel": 0,
      "note": 87,
      "start": 18.3426,
      "duration": 0.1093,
      "velocity": 116,
      "chip": "ym2612"
    },
    {
      "channel": 3,
      "note": 57,
      "start": 18.5486,
      "duration": 0.1159,
      "velocity": 104,
      "chip": "ym2612"
    },
    {
      "channel": 4,
      "note": 69,
      "start": 18.5503,
      "duration": 0.1151,
      "velocity": 114,
      "chip": "ym2612"
    },
    {
      "channel": 2,
      "note": 100,
      "start": 18.5523,
      "duration": 0.1141,
      "velocity": 74,
      "chip": "ym2612"
    },
    {
      "channel": 5,
      "note": 87,
      "start": 18.5544,
      "duration": 0.1132,
      "velocity": 116,
      "chip": "ym2612"
    },
    {
      "channel": 0,
      "note": 85,
      "start": 18.5565,
      "duration": 1.812,
      "velocity": 116,
      "chip": "ym2612"
    },
    {
      "channel": 1,
      "note": 46,
      "start": 18.7675,
      "duration": 0.3127,
      "velocity": 122,
      "chip": "ym2612"
    },
    {
      "channel": 3,
      "note": 57,
      "start": 18.7693,
      "duration": 0.0951,
      "velocity": 104,
      "chip": "ym2612"
    },
    {
      "channel": 4,
      "note": 69,
      "start": 18.771,
      "duration": 0.0944,
      "velocity": 114,
      "chip": "ym2612"
    },
    {
      "channel": 2,
      "note": 97,
      "start": 18.7729,
      "duration": 0.0934,
      "velocity": 74,
      "chip": "ym2612"
    },
    {
      "channel": 5,
      "note": 85,
      "start": 18.775,
      "duration": 1.8092,
      "velocity": 116,
      "chip": "ym2612"
    },
    {
      "channel": 3,
      "note": 57,
      "start": 18.9819,
      "duration": 0.0992,
      "velocity": 104,
      "chip": "ym2612"
    },
    {
      "channel": 4,
      "note": 69,
      "start": 18.9837,
      "duration": 0.0984,
      "velocity": 114,
      "chip": "ym2612"
    },
    {
      "channel": 2,
      "note": 100,
      "start": 18.9855,
      "duration": 0.0975,
      "velocity": 74,
      "chip": "ym2612"
    },
    {
      "channel": 1,
      "note": 57,
      "start": 19.2007,
      "duration": 0.3128,
      "velocity": 125,
      "chip": "ym2612"
    },
    {
      "channel": 3,
      "note": 57,
      "start": 19.2024,
      "duration": 0.0953,
      "velocity": 104,
      "chip": "ym2612"
    },
    {
      "channel": 4,
      "note": 76,
      "start": 19.2042,
      "duration": 0.0945,
      "velocity": 114,
      "chip": "ym2612"
    },
    {
      "channel": 2,
      "note": 99,
      "start": 19.2061,
      "duration": 0.0936,
      "velocity": 74,
      "chip": "ym2612"
    },
    {
      "channel": 3,
      "note": 57,
      "start": 19.3986,
      "duration": 0.1159,
      "velocity": 104,
      "chip": "ym2612"
    },
    {
      "channel": 4,
      "note": 69,
      "start": 19.4003,
      "duration": 0.1151,
      "velocity": 114,
      "chip": "ym2612"
    },
    {
      "channel": 2,
      "note": 100,
      "start": 19.4023,
      "duration": 0.1141,
      "velocity": 74,
      "chip": "ym2612"
    },
    {
      "channel": 1,
      "note": 46,
      "start": 19.6174,
      "duration": 0.1128,
      "velocity": 122,
      "chip": "ym2612"
    },
    {
      "channel": 3,
      "note": 57,
      "start": 19.6192,
      "duration": 0.112,
      "velocity": 104,
      "chip": "ym2612"
    },
    {
      "channel": 4,
      "note": 69,
      "start": 19.6209,
      "duration": 0.1111,
      "velocity": 114,
      "chip": "ym2612"
    },
    {
      "channel": 2,
      "note": 102,
      "start": 19.6228,
      "duration": 0.1102,
      "velocity": 74,
      "chip": "ym2612"
    },
    {
      "channel": 1,
      "note": 46,
      "start": 19.8312,
      "duration": 0.099,
      "velocity": 122,
      "chip": "ym2612"
    },
    {
      "channel": 3,
      "note": 56,
      "start": 19.833,
      "duration": 0.0982,
      "velocity": 104,
      "chip": "ym2612"
    },
    {
      "channel": 4,
      "note": 68,
      "start": 19.8348,
      "duration": 0.0973,
      "velocity": 114,
      "chip": "ym2612"
    },
    {
      "channel": 2,
      "note": 100,
      "start": 19.8366,
      "duration": 0.0964,
      "velocity": 74,
      "chip": "ym2612"
    },
    {
      "channel": 1,
      "note": 57,
      "start": 20.0507,
      "duration": 0.3128,
      "velocity": 125,
      "chip": "ym2612"
    },
    {
      "channel": 3,
      "note": 57,
      "start": 20.0525,
      "duration": 0.0952,
      "velocity": 104,
      "chip": "ym2612"
    },
    {
      "channel": 4,
      "note": 69,
      "start": 20.0542,
      "duration": 0.0945,
      "velocity": 114,
      "chip": "ym2612"
    },
    {
      "channel": 2,
      "note": 99,
      "start": 20.0561,
      "duration": 0.0936,
      "velocity": 74,
      "chip": "ym2612"
    },
    {
      "channel": 3,
      "note": 54,
      "start": 20.2653,
      "duration": 0.3158,
      "velocity": 104,
      "chip": "ym2612"
    },
    {
      "channel": 4,
      "note": 66,
      "start": 20.2671,
      "duration": 0.3149,
      "velocity": 114,
      "chip": "ym2612"
    },
    {
      "channel": 2,
      "note": 100,
      "start": 20.2689,
      "duration": 0.0974,
      "velocity": 74,
      "chip": "ym2612"
    },
    {
      "channel": 1,
      "note": 46,
      "start": 20.4675,
      "duration": 0.3294,
      "velocity": 122,
      "chip": "ym2612"
    },
    {
      "channel": 2,
      "note": 97,
      "start": 20.4712,
      "duration": 0.1118,
      "velocity": 74,
      "chip": "ym2612"
    },
    {
      "channel": 3,
      "note": 54,
      "start": 20.682,
      "duration": 0.1158,
      "velocity": 104,
      "chip": "ym2612"
    },
    {
      "channel": 4,
      "note": 66,
      "start": 20.6837,
      "duration": 0.1149,
      "velocity": 114,
      "chip": "ym2612"
    },
    {
      "channel": 2,
      "note": 100,
      "start": 20.6856,
      "duration": 0.1141,
      "velocity": 74,
      "chip": "ym2612"
    },
    {
      "channel": 1,
      "note": 57,
      "start": 20.9007,
      "duration": 0.3128,
      "velocity": 125,
      "chip": "ym2612"
    },
    {
      "channel": 3,
      "note": 54,
      "start": 20.9024,
      "duration": 0.0953,
      "velocity": 104,
      "chip": "ym2612"
    },
    {
      "channel": 4,
      "note": 73,
      "start": 20.9042,
      "duration": 0.0945,
      "velocity": 114,
      "chip": "ym2612"
    },
    {
      "channel": 2,
      "note": 99,
      "start": 20.9061,
      "duration": 0.0936,
      "velocity": 74,
      "chip": "ym2612"
    },
    {
      "channel": 0,
      "note": 88,
      "start": 20.9075,
      "duration": 0.0935,
      "velocity": 116,
      "chip": "ym2612"
    },
    {
      "channel": 3,
      "note": 54,
      "start": 21.1152,
      "duration": 0.0992,
      "velocity": 104,
      "chip": "ym2612"
    },
    {
      "channel": 4,
      "note": 66,
      "start": 21.117,
      "duration": 0.0984,
      "velocity": 114,
      "chip": "ym2612"
    },
    {
      "channel": 2,
      "note": 100,
      "start": 21.1189,
      "duration": 0.0974,
      "velocity": 74,
      "chip": "ym2612"
    },
    {
      "channel": 5,
      "note": 88,
      "start": 21.1202,
      "duration": 0.0973,
      "velocity": 116,
      "chip": "ym2612"
    },
    {
      "channel": 0,
      "note": 87,
      "start": 21.1222,
      "duration": 0.0963,
      "velocity": 116,
      "chip": "ym2612"
    },
    {
      "channel": 1,
      "note": 46,
      "start": 21.3341,
      "duration": 0.0961,
      "velocity": 122,
      "chip": "ym2612"
    },
    {
      "channel": 3,
      "note": 54,
      "start": 21.3359,
      "duration": 0.0953,
      "velocity": 104,
      "chip": "ym2612"
    },
    {
      "channel": 4,
      "note": 66,
      "start": 21.3376,
      "duration": 0.0945,
      "velocity": 114,
      "chip": "ym2612"
    },
    {
      "channel": 2,
      "note": 102,
      "start": 21.3395,
      "duration": 0.0936,
      "velocity": 74,
      "chip": "ym2612"
    },
    {
      "channel": 5,
      "note": 87,
      "start": 21.3415,
      "duration": 0.0926,
      "velocity": 116,
      "chip": "ym2612"
    },
    {
      "channel": 1,
      "note": 46,
      "start": 21.5312,
      "duration": 0.1156,
      "velocity": 122,
      "chip": "ym2612"
    },
    {
      "channel": 3,
      "note": 66,
      "start": 21.533,
      "duration": 0.048,
      "velocity": 104,
      "chip": "ym2612"
    },
    {
      "channel": 4,
      "note": 73,
      "start": 21.5348,
      "duration": 0.1148,
      "velocity": 114,
      "chip": "ym2612"
    },
    {
      "channel": 2,
      "note": 100,
      "start": 21.5367,
      "duration": 0.1139,
      "velocity": 74,
      "chip": "ym2612"
    },
    {
      "channel": 0,
      "note": 88,
      "start": 21.5392,
      "duration": 0.1127,
      "velocity": 116,
      "chip": "ym2612"
    },
    {
      "channel": 3,
      "note": 66,
      "start": 21.6486,
      "duration": 0.0325,
      "velocity": 104,
      "chip": "ym2612"
    },
    {
      "channel": 1,
      "note": 57,
      "start": 21.7507,
      "duration": 0.3128,
      "velocity": 125,
      "chip": "ym2612"
    },
    {
      "channel": 3,
      "note": 54,
      "start": 21.7525,
      "duration": 0.1119,
      "velocity": 104,
      "chip": "ym2612"
    },
    {
      "channel": 4,
      "note": 66,
      "start": 21.7543,
      "duration": 0.1111,
      "velocity": 114,
      "chip": "ym2612"
    },
    {
      "channel": 2,
      "note": 99,
      "start": 21.7561,
      "duration": 0.1102,
      "velocity": 74,
      "chip": "ym2612"
    },
    {
      "channel": 5,
      "note": 88,
      "start": 21.7574,
      "duration": 0.11,
      "velocity": 116,
      "chip": "ym2612"
    },
    {
      "channel": 3,
      "note": 54,
      "start": 21.9652,
      "duration": 0.0992,
      "velocity": 104,
      "chip": "ym2612"
    },
    {
      "channel": 4,
      "note": 66,
      "start": 21.967,
      "duration": 0.0984,
      "velocity": 114,
      "chip": "ym2612"
    },
    {
      "channel": 2,
      "note": 100,
      "start": 21.9689,
      "duration": 0.0974,
      "velocity": 74,
      "chip": "ym2612"
    },
    {
      "channel": 0,
      "note": 90,
      "start": 21.9715,
      "duration": 0.5304,
      "velocity": 116,
      "chip": "ym2612"
    },
    {
      "channel": 1,
      "note": 46,
      "start": 22.1841,
      "duration": 0.3127,
      "velocity": 122,
      "chip": "ym2612"
    },
    {
      "channel": 3,
      "note": 54,
      "start": 22.1859,
      "duration": 0.0951,
      "velocity": 104,
      "chip": "ym2612"
    },
    {
      "channel": 4,
      "note": 66,
      "start": 22.1876,
      "duration": 0.0944,
      "velocity": 114,
      "chip": "ym2612"
    },
    {
      "channel": 2,
      "note": 97,
      "start": 22.1895,
      "duration": 0.0934,
      "velocity": 74,
      "chip": "ym2612"
    },
    {
      "channel": 5,
      "note": 90,
      "start": 22.1908,
      "duration": 0.5266,
      "velocity": 116,
      "chip": "ym2612"
    },
    {
      "channel": 3,
      "note": 54,
      "start": 22.3986,
      "duration": 0.0992,
      "velocity": 104,
      "chip": "ym2612"
    },
    {
      "channel": 4,
      "note": 66,
      "start": 22.4003,
      "duration": 0.0984,
      "velocity": 114,
      "chip": "ym2612"
    },
    {
      "channel": 2,
      "note": 100,
      "start": 22.4022,
      "duration": 0.0975,
      "velocity": 74,
      "chip": "ym2612"
    },
    {
      "channel": 1,
      "note": 57,
      "start": 22.6007,
      "duration": 0.3295,
      "velocity": 125,
      "chip": "ym2612"
    },
    {
      "channel": 3,
      "note": 54,
      "start": 22.6024,
      "duration": 0.112,
      "velocity": 104,
      "chip": "ym2612"
    },
    {
      "channel": 4,
      "note": 73,
      "start": 22.6042,
      "duration": 0.1111,
      "velocity": 114,
      "chip": "ym2612"
    },
    {
      "channel": 2,
      "note": 99,
      "start": 22.6061,
      "duration": 0.1103,
      "velocity": 74,
      "chip": "ym2612"
    },
    {
      "channel": 0,
      "note": 88,
      "start": 22.6093,
      "duration": 0.326,
      "velocity": 116,
      "chip": "ym2612"
    },
    {
      "channel": 3,
      "note": 54,
      "start": 22.8153,
      "duration": 0.1158,
      "velocity": 104,
      "chip": "ym2612"
    },
    {
      "channel": 4,
      "note": 66,
      "start": 22.817,
      "duration": 0.1151,
      "velocity": 114,
      "chip": "ym2612"
    },
    {
      "channel": 2,
      "note": 100,
      "start": 22.8189,
      "duration": 0.1141,
      "velocity": 74,
      "chip": "ym2612"
    },
    {
      "channel": 5,
      "note": 88,
      "start": 22.821,
      "duration": 0.3131,
      "velocity": 116,
      "chip": "ym2612"
    },
    {
      "channel": 1,
      "note": 46,
      "start": 23.0341,
      "duration": 0.0961,
      "velocity": 122,
      "chip": "ym2612"
    },
    {
      "channel": 3,
      "note": 57,
      "start": 23.0359,
      "duration": 0.0953,
      "velocity": 104,
      "chip": "ym2612"
    },
    {
      "channel": 4,
      "note": 69,
      "start": 23.0376,
      "duration": 0.0945,
      "velocity": 114,
      "chip": "ym2612"
    },
    {
      "channel": 2,
      "note": 102,
      "start": 23.0395,
      "duration": 0.0936,
      "velocity": 74,
      "chip": "ym2612"
    },
    {
      "channel": 0,
      "note": 87,
      "start": 23.0425,
      "duration": 0.3094,
      "velocity": 116,
      "chip": "ym2612"
    },
    {
      "channel": 1,
      "note": 46,
      "start": 23.2479,
      "duration": 0.099,
      "velocity": 122,
      "chip": "ym2612"
    },
    {
      "channel": 3,
      "note": 56,
      "start": 23.2496,
      "duration": 0.0982,
      "velocity": 104,
      "chip": "ym2612"
    },
    {
      "channel": 4,
      "note": 68,
      "start": 23.2514,
      "duration": 0.0973,
      "velocity": 114,
      "chip": "ym2612"
    },
    {
      "channel": 2,
      "note": 100,
      "start": 23.2533,
      "duration": 0.0964,
      "velocity": 74,
      "chip": "ym2612"
    },
    {
      "channel": 5,
      "note": 87,
      "start": 23.2554,
      "duration": 0.3121,
      "velocity": 116,
      "chip": "ym2612"
    },
    {
      "channel": 1,
      "note": 57,
      "start": 23.4674,
      "duration": 0.3128,
      "velocity": 125,
      "chip": "ym2612"
    },
    {
      "channel": 3,
      "note": 57,
      "start": 23.4692,
      "duration": 0.0952,
      "velocity": 104,
      "chip": "ym2612"
    },
    {
      "channel": 4,
      "note": 69,
      "start": 23.4709,
      "duration": 0.0945,
      "velocity": 114,
      "chip": "ym2612"
    },
    {
      "channel": 2,
      "note": 99,
      "start": 23.4728,
      "duration": 0.0936,
      "velocity": 74,
      "chip": "ym2612"
    },
    {
      "channel": 0,
      "note": 88,
      "start": 23.4759,
      "duration": 0.3093,
      "velocity": 116,
      "chip": "ym2612"
    },
    {
      "channel": 3,
      "note": 56,
      "start": 23.6653,
      "duration": 0.3324,
      "velocity": 104,
      "chip": "ym2612"
    },
    {
      "channel": 4,
      "note": 68,
      "start": 23.667,
      "duration": 0.3317,
      "velocity": 114,
      "chip": "ym2612"
    },
    {
      "channel": 2,
      "note": 100,
      "start": 23.6689,
      "duration": 0.114,
      "velocity": 74,
      "chip": "ym2612"
    },
    {
      "channel": 5,
      "note": 88,
      "start": 23.671,
      "duration": 0.3298,
      "velocity": 116,
      "chip": "ym2612"
    },
    {
      "channel": 1,
      "note": 46,
      "start": 23.8841,
      "duration": 0.3127,
      "velocity": 122,
      "chip": "ym2612"
    },
    {
      "channel": 2,
      "note": 97,
      "start": 23.8878,
      "duration": 0.1118,
      "velocity": 74,
      "chip": "ym2612"
    },
    {
      "channel": 0,
      "note": 87,
      "start": 23.8909,
      "duration": 1.1776,
      "velocity": 116,
      "chip": "ym2612"
    },
    {
      "channel": 3,
      "note": 56,
      "start": 24.0986,
      "duration": 0.0992,
      "velocity": 104,
      "chip": "ym2612"
    },
    {
      "channel": 4,
      "note": 68,
      "start": 24.1004,
      "duration": 0.0983,
      "velocity": 114,
      "chip": "ym2612"
    },
    {
      "channel": 2,
      "note": 100,
      "start": 24.1023,
      "duration": 0.0974,
      "velocity": 74,
      "chip": "ym2612"
    },
    {
      "channel": 5,
      "note": 87,
      "start": 24.1044,
      "duration": 1.163,
      "velocity": 116,
      "chip": "ym2612"
    },
    {
      "channel": 1,
      "note": 57,
      "start": 24.3174,
      "duration": 0.3128,
      "velocity": 125,
      "chip": "ym2612"
    },
    {
      "channel": 3,
      "note": 56,
      "start": 24.3191,
      "duration": 0.0953,
      "velocity": 104,
      "chip": "ym2612"
    },
    {
      "channel": 4,
      "note": 75,
      "start": 24.3209,
      "duration": 0.0945,
      "velocity": 114,
      "chip": "ym2612"
    },
    {
      "channel": 2,
      "note": 99,
      "start": 24.3227,
      "duration": 0.0936,
      "velocity": 74,
      "chip": "ym2612"
    },
    {
      "channel": 3,
      "note": 56,
      "start": 24.5319,
      "duration": 0.0992,
      "velocity": 104,
      "chip": "ym2612"
    },
    {
      "channel": 4,
      "note": 68,
      "start": 24.5337,
      "duration": 0.0984,
      "velocity": 114,
      "chip": "ym2612"
    },
    {
      "channel": 2,
      "note": 100,
      "start": 24.5356,
      "duration": 0.0974,
      "velocity": 74,
      "chip": "ym2612"
    },
    {
      "channel": 1,
      "note": 46,
      "start": 24.7341,
      "duration": 0.1128,
      "velocity": 122,
      "chip": "ym2612"
    },
    {
      "channel": 3,
      "note": 56,
      "start": 24.7359,
      "duration": 0.112,
      "velocity": 104,
      "chip": "ym2612"
    },
    {
      "channel": 4,
      "note": 68,
      "start": 24.7376,
      "duration": 0.1111,
      "velocity": 114,
      "chip": "ym2612"
    },
    {
      "channel": 2,
      "note": 102,
      "start": 24.7395,
      "duration": 0.1102,
      "velocity": 74,
      "chip": "ym2612"
    },
    {
      "channel": 1,
      "note": 46,
      "start": 24.9479,
      "duration": 0.1156,
      "velocity": 122,
      "chip": "ym2612"
    },
    {
      "channel": 3,
      "note": 56,
      "start": 24.9496,
      "duration": 0.1148,
      "velocity": 104,
      "chip": "ym2612"
    },
    {
      "channel": 4,
      "note": 75,
      "start": 24.9514,
      "duration": 0.114,
      "velocity": 114,
      "chip": "ym2612"
    },
    {
      "channel": 2,
      "note": 100,
      "start": 24.9533,
      "duration": 0.1131,
      "velocity": 74,
      "chip": "ym2612"
    },
    {
      "channel": 1,
      "note": 57,
      "start": 25.1674,
      "duration": 0.3128,
      "velocity": 125,
      "chip": "ym2612"
    },
    {
      "channel": 3,
      "note": 56,
      "start": 25.1692,
      "duration": 0.0952,
      "velocity": 104,
      "chip": "ym2612"
    },
    {
      "channel": 4,
      "note": 68,
      "start": 25.1709,
      "duration": 0.0945,
      "velocity": 114,
      "chip": "ym2612"
    },
    {
      "channel": 2,
      "note": 99,
      "start": 25.1728,
      "duration": 0.0936,
      "velocity": 74,
      "chip": "ym2612"
    },
    {
      "channel": 0,
      "note": 85,
      "start": 25.1759,
      "duration": 0.0927,
      "velocity": 116,
      "chip": "ym2612"
    },
    {
      "channel": 3,
      "note": 56,
      "start": 25.3819,
      "duration": 0.0992,
      "velocity": 104,
      "chip": "ym2612"
    },
    {
      "channel": 4,
      "note": 68,
      "start": 25.3837,
      "duration": 0.0984,
      "velocity": 114,
      "chip": "ym2612"
    },
    {
      "channel": 2,
      "note": 100,
      "start": 25.3856,
      "duration": 0.0974,
      "velocity": 74,
      "chip": "ym2612"
    },
    {
      "channel": 5,
      "note": 85,
      "start": 25.3877,
      "duration": 0.0965,
      "velocity": 116,
      "chip": "ym2612"
    },
    {
      "channel": 0,
      "note": 83,
      "start": 25.3897,
      "duration": 1.8121,
      "velocity": 116,
      "chip": "ym2612"
    },
    {
      "channel": 1,
      "note": 46,
      "start": 25.6008,
      "duration": 0.3127,
      "velocity": 122,
      "chip": "ym2612"
    },
    {
      "channel": 3,
      "note": 57,
      "start": 25.6026,
      "duration": 0.0951,
      "velocity": 104,
      "chip": "ym2612"
    },
    {
      "channel": 4,
      "note": 68,
      "start": 25.6043,
      "duration": 0.0944,
      "velocity": 114,
      "chip": "ym2612"
    },
    {
      "channel": 2,
      "note": 104,
      "start": 25.6062,
      "duration": 0.0934,
      "velocity": 74,
      "chip": "ym2612"
    },
    {
      "channel": 5,
      "note": 83,
      "start": 25.6083,
      "duration": 1.7925,
      "velocity": 116,
      "chip": "ym2612"
    },
    {
      "channel": 3,
      "note": 56,
      "start": 25.7986,
      "duration": 0.1159,
      "velocity": 104,
      "chip": "ym2612"
    },
    {
      "channel": 4,
      "note": 68,
      "start": 25.8003,
      "duration": 0.1151,
      "velocity": 114,
      "chip": "ym2612"
    },
    {
      "channel": 2,
      "note": 102,
      "start": 25.8022,
      "duration": 0.1142,
      "velocity": 74,
      "chip": "ym2612"
    },
    {
      "channel": 1,
      "note": 57,
      "start": 26.0174,
      "duration": 0.3128,
      "velocity": 125,
      "chip": "ym2612"
    },
    {
      "channel": 3,
      "note": 54,
      "start": 26.0191,
      "duration": 0.112,
      "velocity": 104,
      "chip": "ym2612"
    },
    {
      "channel": 4,
      "note": 75,
      "start": 26.0209,
      "duration": 0.1111,
      "velocity": 114,
      "chip": "ym2612"
    },
    {
      "channel": 2,
      "note": 100,
      "start": 26.0227,
      "duration": 0.1103,
      "velocity": 74,
      "chip": "ym2612"
    },
    {
      "channel": 3,
      "note": 56,
      "start": 26.2319,
      "duration": 0.0992,
      "velocity": 104,
      "chip": "ym2612"
    },
    {
      "channel": 4,
      "note": 68,
      "start": 26.2337,
      "duration": 0.0984,
      "velocity": 114,
      "chip": "ym2612"
    },
    {
      "channel": 2,
      "note": 102,
      "start": 26.2356,
      "duration": 0.0974,
      "velocity": 74,
      "chip": "ym2612"
    },
    {
      "channel": 1,
      "note": 46,
      "start": 26.4507,
      "duration": 0.0961,
      "velocity": 122,
      "chip": "ym2612"
    },
    {
      "channel": 3,
      "note": 54,
      "start": 26.4525,
      "duration": 0.0953,
      "velocity": 104,
      "chip": "ym2612"
    },
    {
      "channel": 4,
      "note": 68,
      "start": 26.4542,
      "duration": 0.0945,
      "velocity": 114,
      "chip": "ym2612"
    },
    {
      "channel": 2,
      "note": 100,
      "start": 26.4561,
      "duration": 0.0936,
      "velocity": 74,
      "chip": "ym2612"
    },
    {
      "channel": 1,
      "note": 46,
      "start": 26.6645,
      "duration": 0.099,
      "velocity": 122,
      "chip": "ym2612"
    },
    {
      "channel": 3,
      "note": 52,
      "start": 26.6663,
      "duration": 0.0982,
      "velocity": 104,
      "chip": "ym2612"
    },
    {
      "channel": 4,
      "note": 75,
      "start": 26.6681,
      "duration": 0.0973,
      "velocity": 114,
      "chip": "ym2612"
    },
    {
      "channel": 2,
      "note": 99,
      "start": 26.6699,
      "duration": 0.0964,
      "velocity": 74,
      "chip": "ym2612"
    },
    {
      "channel": 1,
      "note": 57,
      "start": 26.8674,
      "duration": 0.3295,
      "velocity": 125,
      "chip": "ym2612"
    },
    {
      "channel": 3,
      "note": 51,
      "start": 26.8692,
      "duration": 0.1119,
      "velocity": 104,
      "chip": "ym2612"
    },
    {
      "channel": 4,
      "note": 68,
      "start": 26.8709,
      "duration": 0.1111,
      "velocity": 114,
      "chip": "ym2612"
    },
    {
      "channel": 2,
      "note": 97,
      "start": 26.8728,
      "duration": 0.1102,
      "velocity": 74,
      "chip": "ym2612"
    },
    {
      "channel": 3,
      "note": 49,
      "start": 27.082,
      "duration": 0.3158,
      "velocity": 104,
      "chip": "ym2612"
    },
    {
      "channel": 4,
      "note": 61,
      "start": 27.0837,
      "duration": 0.315,
      "velocity": 114,
      "chip": "ym2612"
    },
    {
      "channel": 2,
      "note": 95,
      "start": 27.0856,
      "duration": 0.114,
      "velocity": 74,
      "chip": "ym2612"
    },
    {
      "channel": 1,
      "note": 46,
      "start": 27.3008,
      "duration": 0.3128,
      "velocity": 122,
      "chip": "ym2612"
    },
    {
      "channel": 2,
      "note": 97,
      "start": 27.3045,
      "duration": 0.0951,
      "velocity": 74,
      "chip": "ym2612"
    },
    {
      "channel": 3,
      "note": 49,
      "start": 27.5153,
      "duration": 0.0992,
      "velocity": 104,
      "chip": "ym2612"
    },
    {
      "channel": 4,
      "note": 61,
      "start": 27.5171,
      "duration": 0.0983,
      "velocity": 114,
      "chip": "ym2612"
    },
    {
      "channel": 2,
      "note": 100,
      "start": 27.5189,
      "duration": 0.0975,
      "velocity": 74,
      "chip": "ym2612"
    },
    {
      "channel": 1,
      "note": 57,
      "start": 27.7341,
      "duration": 0.3128,
      "velocity": 125,
      "chip": "ym2612"
    },
    {
      "channel": 3,
      "note": 49,
      "start": 27.7358,
      "duration": 0.0953,
      "velocity": 104,
      "chip": "ym2612"
    },
    {
      "channel": 4,
      "note": 68,
      "start": 27.7376,
      "duration": 0.0945,
      "velocity": 114,
      "chip": "ym2612"
    },
    {
      "channel": 2,
      "note": 99,
      "start": 27.7394,
      "duration": 0.0936,
      "velocity": 74,
      "chip": "ym2612"
    },
    {
      "channel": 0,
      "note": 85,
      "start": 27.7409,
      "duration": 0.311,
      "velocity": 116,
      "chip": "ym2612"
    },
    {
      "channel": 3,
      "note": 49,
      "start": 27.9319,
      "duration": 0.1159,
      "velocity": 104,
      "chip": "ym2612"
    },
    {
      "channel": 4,
      "note": 61,
      "start": 27.9337,
      "duration": 0.1151,
      "velocity": 114,
      "chip": "ym2612"
    },
    {
      "channel": 2,
      "note": 100,
      "start": 27.9356,
      "duration": 0.1141,
      "velocity": 74,
      "chip": "ym2612"
    },
    {
      "channel": 5,
      "note": 85,
      "start": 27.9368,
      "duration": 0.3307,
      "velocity": 116,
      "chip": "ym2612"
    },
    {
      "channel": 1,
      "note": 46,
      "start": 28.1507,
      "duration": 0.1128,
      "velocity": 122,
      "chip": "ym2612"
    },
    {
      "channel": 3,
      "note": 49,
      "start": 28.1525,
      "duration": 0.112,
      "velocity": 104,
      "chip": "ym2612"
    },
    {
      "channel": 4,
      "note": 61,
      "start": 28.1542,
      "duration": 0.1111,
      "velocity": 114,
      "chip": "ym2612"
    },
    {
      "channel": 2,
      "note": 102,
      "start": 28.1561,
      "duration": 0.1102,
      "velocity": 74,
      "chip": "ym2612"
    },
    {
      "channel": 0,
      "note": 87,
      "start": 28.1592,
      "duration": 0.1094,
      "velocity": 116,
      "chip": "ym2612"
    },
    {
      "channel": 1,
      "note": 46,
      "start": 28.3645,
      "duration": 0.099,
      "velocity": 122,
      "chip": "ym2612"
    },
    {
      "channel": 3,
      "note": 61,
      "start": 28.3664,
      "duration": 0.0314,
      "velocity": 104,
      "chip": "ym2612"
    },
    {
      "channel": 4,
      "note": 68,
      "start": 28.3681,
      "duration": 0.0981,
      "velocity": 114,
      "chip": "ym2612"
    },
    {
      "channel": 2,
      "note": 100,
      "start": 28.37,
      "duration": 0.0972,
      "velocity": 74,
      "chip": "ym2612"
    },
    {
      "channel": 5,
      "note": 87,
      "start": 28.3721,
      "duration": 0.0962,
      "velocity": 116,
      "chip": "ym2612"
    },
    {
      "channel": 0,
      "note": 88,
      "start": 28.3741,
      "duration": 0.0952,
      "velocity": 116,
      "chip": "ym2612"
    },
    {
      "channel": 3,
      "note": 61,
      "start": 28.4653,
      "duration": 0.0492,
      "velocity": 104,
      "chip": "ym2612"
    },
    {
      "channel": 1,
      "note": 57,
      "start": 28.5841,
      "duration": 0.3128,
      "velocity": 125,
      "chip": "ym2612"
    },
    {
      "channel": 3,
      "note": 49,
      "start": 28.5859,
      "duration": 0.0952,
      "velocity": 104,
      "chip": "ym2612"
    },
    {
      "channel": 4,
      "note": 61,
      "start": 28.5876,
      "duration": 0.0944,
      "velocity": 114,
      "chip": "ym2612"
    },
    {
      "channel": 2,
      "note": 99,
      "start": 28.5895,
      "duration": 0.0936,
      "velocity": 74,
      "chip": "ym2612"
    },
    {
      "channel": 5,
      "note": 88,
      "start": 28.5916,
      "duration": 0.0926,
      "velocity": 116,
      "chip": "ym2612"
    },
    {
      "channel": 3,
      "note": 49,
      "start": 28.7986,
      "duration": 0.0992,
      "velocity": 104,
      "chip": "ym2612"
    },
    {
      "channel": 4,
      "note": 61,
      "start": 28.8003,
      "duration": 0.0984,
      "velocity": 114,
      "chip": "ym2612"
    },
    {
      "channel": 2,
      "note": 100,
      "start": 28.8023,
      "duration": 0.0974,
      "velocity": 74,
      "chip": "ym2612"
    },
    {
      "channel": 0,
      "note": 92,
      "start": 28.8048,
      "duration": 0.5304,
      "velocity": 116,
      "chip": "ym2612"
    },
    {
      "channel": 1,
      "note": 46,
      "start": 29.0008,
      "duration": 0.3294,
      "velocity": 122,
      "chip": "ym2612"
    },
    {
      "channel": 3,
      "note": 49,
      "start": 29.0026,
      "duration": 0.1118,
      "velocity": 104,
      "chip": "ym2612"
    },
    {
      "channel": 4,
      "note": 61,
      "start": 29.0044,
      "duration": 0.111,
      "velocity": 114,
      "chip": "ym2612"
    },
    {
      "channel": 2,
      "note": 97,
      "start": 29.0062,
      "duration": 0.1102,
      "velocity": 74,
      "chip": "ym2612"
    },
    {
      "channel": 5,
      "note": 92,
      "start": 29.0075,
      "duration": 0.5266,
      "velocity": 116,
      "chip": "ym2612"
    },
    {
      "channel": 3,
      "note": 49,
      "start": 29.2152,
      "duration": 0.1159,
      "velocity": 104,
      "chip": "ym2612"
    },
    {
      "channel": 4,
      "note": 61,
      "start": 29.217,
      "duration": 0.115,
      "velocity": 114,
      "chip": "ym2612"
    },
    {
      "channel": 2,
      "note": 100,
      "start": 29.2189,
      "duration": 0.1142,
      "velocity": 74,
      "chip": "ym2612"
    },
    {
      "channel": 1,
      "note": 57,
      "start": 29.4341,
      "duration": 0.3128,
      "velocity": 125,
      "chip": "ym2612"
    },
    {
      "channel": 3,
      "note": 49,
      "start": 29.4358,
      "duration": 0.0953,
      "velocity": 104,
      "chip": "ym2612"
    },
    {
      "channel": 4,
      "note": 68,
      "start": 29.4376,
      "duration": 0.0945,
      "velocity": 114,
      "chip": "ym2612"
    },
    {
      "channel": 2,
      "note": 99,
      "start": 29.4394,
      "duration": 0.0936,
      "velocity": 74,
      "chip": "ym2612"
    },
    {
      "channel": 0,
      "note": 90,
      "start": 29.4425,
      "duration": 0.3094,
      "velocity": 116,
      "chip": "ym2612"
    },
    {
      "channel": 3,
      "note": 49,
      "start": 29.6486,
      "duration": 0.0992,
      "velocity": 104,
      "chip": "ym2612"
    },
    {
      "channel": 4,
      "note": 61,
      "start": 29.6503,
      "duration": 0.0984,
      "velocity": 114,
      "chip": "ym2612"
    },
    {
      "channel": 2,
      "note": 100,
      "start": 29.6523,
      "duration": 0.0974,
      "velocity": 74,
      "chip": "ym2612"
    },
    {
      "channel": 5,
      "note": 90,
      "start": 29.6544,
      "duration": 0.3131,
      "velocity": 116,
      "chip": "ym2612"
    },
    {
      "channel": 1,
      "note": 46,
      "start": 29.8674,
      "duration": 0.0961,
      "velocity": 122,
      "chip": "ym2612"
    },
    {
      "channel": 3,
      "note": 49,
      "start": 29.8692,
      "duration": 0.0953,
      "velocity": 104,
      "chip": "ym2612"
    },
    {
      "channel": 4,
      "note": 61,
      "start": 29.8709,
      "duration": 0.0945,
      "velocity": 114,
      "chip": "ym2612"
    },
    {
      "channel": 2,
      "note": 102,
      "start": 29.8728,
      "duration": 0.0936,
      "velocity": 74,
      "chip": "ym2612"
    },
    {
      "channel": 0,
      "note": 88,
      "start": 29.8759,
      "duration": 0.3094,
      "velocity": 116,
      "chip": "ym2612"
    },
    {
      "channel": 1,
      "note": 46,
      "start": 30.0645,
      "duration": 0.1156,
      "velocity": 122,
      "chip": "ym2612"
    },
    {
      "channel": 3,
      "note": 51,
      "start": 30.0663,
      "duration": 0.1148,
      "velocity": 104,
      "chip": "ym2612"
    },
    {
      "channel": 4,
      "note": 63,
      "start": 30.0681,
      "duration": 0.1139,
      "velocity": 114,
      "chip": "ym2612"
    },
    {
      "channel": 2,
      "note": 100,
      "start": 30.0699,
      "duration": 0.1131,
      "velocity": 74,
      "chip": "ym2612"
    },
    {
      "channel": 5,
      "note": 88,
      "start": 30.0721,
      "duration": 0.3287,
      "velocity": 116,
      "chip": "ym2612"
    },
    {
      "channel": 1,
      "note": 57,
      "start": 30.2841,
      "duration": 0.3128,
      "velocity": 125,
      "chip": "ym2612"
    },
    {
      "channel": 3,
      "note": 52,
      "start": 30.2859,
      "duration": 0.1119,
      "velocity": 104,
      "chip": "ym2612"
    },
    {
      "channel": 4,
      "note": 64,
      "start": 30.2876,
      "duration": 0.1111,
      "velocity": 114,
      "chip": "ym2612"
    },
    {
      "channel": 2,
      "note": 99,
      "start": 30.2895,
      "duration": 0.1102,
      "velocity": 74,
      "chip": "ym2612"
    },
    {
      "channel": 0,
      "note": 90,
      "start": 30.2925,
      "duration": 0.1094,
      "velocity": 116,
      "chip": "ym2612"
    },
    {
      "channel": 3,
      "note": 57,
      "start": 30.4986,
      "duration": 0.3158,
      "velocity": 104,
      "chip": "ym2612"
    },
    {
      "channel": 4,
      "note": 69,
      "start": 30.5003,
      "duration": 0.315,
      "velocity": 114,
      "chip": "ym2612"
    },
    {
      "channel": 2,
      "note": 100,
      "start": 30.5023,
      "duration": 0.0974,
      "velocity": 74,
      "chip": "ym2612"
    },
    {
      "channel": 5,
      "note": 90,
      "start": 30.5044,
      "duration": 0.0963,
      "velocity": 116,
      "chip": "ym2612"
    },
    {
      "channel": 0,
      "note": 93,
      "start": 30.5065,
      "duration": 1.3796,
      "velocity": 116,
      "chip": "ym2612"
    },
    {
      "channel": 1,
      "note": 46,
      "start": 30.7175,
      "duration": 0.3127,
      "velocity": 122,
      "chip": "ym2612"
    },
    {
      "channel": 2,
      "note": 97,
      "start": 30.7212,
      "duration": 0.0951,
      "velocity": 74,
      "chip": "ym2612"
    },
    {
      "channel": 5,
      "note": 93,
      "start": 30.7232,
      "duration": 1.3776,
      "velocity": 116,
      "chip": "ym2612"
    },
    {
      "channel": 3,
      "note": 57,
      "start": 30.932,
      "duration": 0.0992,
      "velocity": 104,
      "chip": "ym2612"
    },
    {
      "channel": 4,
      "note": 69,
      "start": 30.9337,
      "duration": 0.0983,
      "velocity": 114,
      "chip": "ym2612"
    },
    {
      "channel": 2,
      "note": 100,
      "start": 30.9356,
      "duration": 0.0974,
      "velocity": 74,
      "chip": "ym2612"
    },
    {
      "channel": 1,
      "note": 57,
      "start": 31.1341,
      "duration": 0.3295,
      "velocity": 125,
      "chip": "ym2612"
    },
    {
      "channel": 3,
      "note": 57,
      "start": 31.1358,
      "duration": 0.112,
      "velocity": 104,
      "chip": "ym2612"
    },
    {
      "channel": 4,
      "note": 76,
      "start": 31.1376,
      "duration": 0.1111,
      "velocity": 114,
      "chip": "ym2612"
    },
    {
      "channel": 2,
      "note": 99,
      "start": 31.1394,
      "duration": 0.1103,
      "velocity": 74,
      "chip": "ym2612"
    },
    {
      "channel": 3,
      "note": 57,
      "start": 31.3486,
      "duration": 0.1159,
      "velocity": 104,
      "chip": "ym2612"
    },
    {
      "channel": 4,
      "note": 69,
      "start": 31.3503,
      "duration": 0.1151,
      "velocity": 114,
      "chip": "ym2612"
    },
    {
      "channel": 2,
      "note": 100,
      "start": 31.3523,
      "duration": 0.1141,
      "velocity": 74,
      "chip": "ym2612"
    },
    {
      "channel": 1,
      "note": 46,
      "start": 31.5674,
      "duration": 0.0961,
      "velocity": 122,
      "chip": "ym2612"
    },
    {
      "channel": 3,
      "note": 57,
      "start": 31.5692,
      "duration": 0.0953,
      "velocity": 104,
      "chip": "ym2612"
    },
    {
      "channel": 4,
      "note": 69,
      "start": 31.5709,
      "duration": 0.0945,
      "velocity": 114,
      "chip": "ym2612"
    },
    {
      "channel": 2,
      "note": 102,
      "start": 31.5728,
      "duration": 0.0936,
      "velocity": 74,
      "chip": "ym2612"
    },
    {
      "channel": 1,
      "note": 46,
      "start": 31.7812,
      "duration": 0.099,
      "velocity": 122,
      "chip": "ym2612"
    },
    {
      "channel": 3,
      "note": 69,
      "start": 31.783,
      "duration": 0.0314,
      "velocity": 104,
      "chip": "ym2612"
    },
    {
      "channel": 4,
      "note": 76,
      "start": 31.7848,
      "duration": 0.0981,
      "velocity": 114,
      "chip": "ym2612"
    },
    {
      "channel": 2,
      "note": 100,
      "start": 31.7867,
      "duration": 0.0972,
      "velocity": 74,
      "chip": "ym2612"
    },
    {
      "channel": 3,
      "note": 69,
      "start": 31.882,
      "duration": 0.0325,
      "velocity": 104,
      "chip": "ym2612"
    },
    {
      "channel": 1,
      "note": 57,
      "start": 32.0007,
      "duration": 0.3128,
      "velocity": 125,
      "chip": "ym2612"
    },
    {
      "channel": 3,
      "note": 57,
      "start": 32.0025,
      "duration": 0.0952,
      "velocity": 104,
      "chip": "ym2612"
    },
    {
      "channel": 4,
      "note": 69,
      "start": 32.0043,
      "duration": 0.0944,
      "velocity": 114,
      "chip": "ym2612"
    },
    {
      "channel": 2,
      "note": 99,
      "start": 32.0061,
      "duration": 0.0936,
      "velocity": 74,
      "chip": "ym2612"
    },
    {
      "channel": 0,
      "note": 94,
      "start": 32.0093,
      "duration": 0.0926,
      "velocity": 116,
      "chip": "ym2612"
    },
    {
      "channel": 3,
      "note": 57,
      "start": 32.1986,
      "duration": 0.1159,
      "velocity": 104,
      "chip": "ym2612"
    },
    {
      "channel": 4,
      "note": 69,
      "start": 32.2003,
      "duration": 0.1151,
      "velocity": 114,
      "chip": "ym2612"
    },
    {
      "channel": 2,
      "note": 100,
      "start": 32.2023,
      "duration": 0.1141,
      "velocity": 74,
      "chip": "ym2612"
    },
    {
      "channel": 5,
      "note": 94,
      "start": 32.2044,
      "duration": 0.1132,
      "velocity": 116,
      "chip": "ym2612"
    },
    {
      "channel": 0,
      "note": 93,
      "start": 32.2065,
      "duration": 1.812,
      "velocity": 116,
      "chip": "ym2612"
    },
    {
      "channel": 1,
      "note": 46,
      "start": 32.4175,
      "duration": 0.3127,
      "velocity": 122,
      "chip": "ym2612"
    },
    {
      "channel": 3,
      "note": 57,
      "start": 32.4193,
      "duration": 0.1118,
      "velocity": 104,
      "chip": "ym2612"
    },
    {
      "channel": 4,
      "note": 69,
      "start": 32.421,
      "duration": 0.111,
      "velocity": 114,
      "chip": "ym2612"
    },
    {
      "channel": 2,
      "note": 97,
      "start": 32.4229,
      "duration": 0.1101,
      "velocity": 74,
      "chip": "ym2612"
    },
    {
      "channel": 5,
      "note": 93,
      "start": 32.425,
      "duration": 1.8092,
      "velocity": 116,
      "chip": "ym2612"
    },
    {
      "channel": 3,
      "note": 57,
      "start": 32.6319,
      "duration": 0.0992,
      "velocity": 104,
      "chip": "ym2612"
    },
    {
      "channel": 4,
      "note": 69,
      "start": 32.6337,
      "duration": 0.0984,
      "velocity": 114,
      "chip": "ym2612"
    },
    {
      "channel": 2,
      "note": 100,
      "start": 32.6355,
      "duration": 0.0975,
      "velocity": 74,
      "chip": "ym2612"
    },
    {
      "channel": 1,
      "note": 57,
      "start": 32.8507,
      "duration": 0.3128,
      "velocity": 125,
      "chip": "ym2612"
    },
    {
      "channel": 3,
      "note": 57,
      "start": 32.8524,
      "duration": 0.0953,
      "velocity": 104,
      "chip": "ym2612"
    },
    {
      "channel": 4,
      "note": 76,
      "start": 32.8542,
      "duration": 0.0945,
      "velocity": 114,
      "chip": "ym2612"
    },
    {
      "channel": 2,
      "note": 99,
      "start": 32.8561,
      "duration": 0.0936,
      "velocity": 74,
      "chip": "ym2612"
    },
    {
      "channel": 3,
      "note": 57,
      "start": 33.0652,
      "duration": 0.0992,
      "velocity": 104,
      "chip": "ym2612"
    },
    {
      "channel": 4,
      "note": 69,
      "start": 33.067,
      "duration": 0.0984,
      "velocity": 114,
      "chip": "ym2612"
    },
    {
      "channel": 2,
      "note": 100,
      "start": 33.0689,
      "duration": 0.0974,
      "velocity": 74,
      "chip": "ym2612"
    },
    {
      "channel": 1,
      "note": 46,
      "start": 33.2674,
      "duration": 0.1128,
      "velocity": 122,
      "chip": "ym2612"
    },
    {
      "channel": 3,
      "note": 57,
      "start": 33.2692,
      "duration": 0.112,
      "velocity": 104,
      "chip": "ym2612"
    },
    {
      "channel": 4,
      "note": 69,
      "start": 33.2709,
      "duration": 0.1111,
      "velocity": 114,
      "chip": "ym2612"
    },
    {
      "channel": 2,
      "note": 102,
      "start": 33.2728,
      "duration": 0.1102,
      "velocity": 74,
      "chip": "ym2612"
    },
    {
      "channel": 1,
      "note": 46,
      "start": 33.4812,
      "duration": 0.1156,
      "velocity": 122,
      "chip": "ym2612"
    },
    {
      "channel": 3,
      "note": 56,
      "start": 33.483,
      "duration": 0.1148,
      "velocity": 104,
      "chip": "ym2612"
    },
    {
      "channel": 4,
      "note": 68,
      "start": 33.4848,
      "duration": 0.1139,
      "velocity": 114,
      "chip": "ym2612"
    },
    {
      "channel": 2,
      "note": 100,
      "start": 33.4866,
      "duration": 0.1131,
      "velocity": 74,
      "chip": "ym2612"
    },
    {
      "channel": 1,
      "note": 57,
      "start": 33.7007,
      "duration": 0.3128,
      "velocity": 125,
      "chip": "ym2612"
    },
    {
      "channel": 3,
      "note": 57,
      "start": 33.7025,
      "duration": 0.0952,
      "velocity": 104,
      "chip": "ym2612"
    },
    {
      "channel": 4,
      "note": 69,
      "start": 33.7042,
      "duration": 0.0945,
      "velocity": 114,
      "chip": "ym2612"
    },
    {
      "channel": 2,
      "note": 99,
      "start": 33.7061,
      "duration": 0.0936,
      "velocity": 74,
      "chip": "ym2612"
    },
    {
      "channel": 3,
      "note": 54,
      "start": 33.9153,
      "duration": 0.3158,
      "velocity": 104,
      "chip": "ym2612"
    },
    {
      "channel": 4,
      "note": 66,
      "start": 33.9171,
      "duration": 0.3149,
      "velocity": 114,
      "chip": "ym2612"
    },
    {
      "channel": 2,
      "note": 100,
      "start": 33.9189,
      "duration": 0.0974,
      "velocity": 74,
      "chip": "ym2612"
    },
    {
      "channel": 1,
      "note": 46,
      "start": 34.1341,
      "duration": 0.3127,
      "velocity": 122,
      "chip": "ym2612"
    },
    {
      "channel": 2,
      "note": 97,
      "start": 34.1378,
      "duration": 0.0951,
      "velocity": 74,
      "chip": "ym2612"
    },
    {
      "channel": 3,
      "note": 54,
      "start": 34.332,
      "duration": 0.1158,
      "velocity": 104,
      "chip": "ym2612"
    },
    {
      "channel": 4,
      "note": 66,
      "start": 34.3337,
      "duration": 0.115,
      "velocity": 114,
      "chip": "ym2612"
    },
    {
      "channel": 2,
      "note": 100,
      "start": 34.3356,
      "duration": 0.1141,
      "velocity": 74,
      "chip": "ym2612"
    },
    {
      "channel": 1,
      "note": 57,
      "start": 34.5507,
      "duration": 0.3128,
      "velocity": 125,
      "chip": "ym2612"
    },
    {
      "channel": 3,
      "note": 54,
      "start": 34.5524,
      "duration": 0.112,
      "velocity": 104,
      "chip": "ym2612"
    },
    {
      "channel": 4,
      "note": 73,
      "start": 34.5542,
      "duration": 0.1111,
      "velocity": 114,
      "chip": "ym2612"
    },
    {
      "channel": 2,
      "note": 99,
      "start": 34.5561,
      "duration": 0.1103,
      "velocity": 74,
      "chip": "ym2612"
    },
    {
      "channel": 0,
      "note": 92,
      "start": 34.5575,
      "duration": 0.1102,
      "velocity": 116,
      "chip": "ym2612"
    },
    {
      "channel": 3,
      "note": 54,
      "start": 34.7652,
      "duration": 0.0992,
      "velocity": 104,
      "chip": "ym2612"
    },
    {
      "channel": 4,
      "note": 66,
      "start": 34.767,
      "duration": 0.0984,
      "velocity": 114,
      "chip": "ym2612"
    },
    {
      "channel": 2,
      "note": 100,
      "start": 34.7689,
      "duration": 0.0974,
      "velocity": 74,
      "chip": "ym2612"
    },
    {
      "channel": 5,
      "note": 92,
      "start": 34.7702,
      "duration": 0.0973,
      "velocity": 116,
      "chip": "ym2612"
    },
    {
      "channel": 0,
      "note": 93,
      "start": 34.7722,
      "duration": 0.0963,
      "velocity": 116,
      "chip": "ym2612"
    },
    {
      "channel": 1,
      "note": 46,
      "start": 34.9841,
      "duration": 0.0961,
      "velocity": 122,
      "chip": "ym2612"
    },
    {
      "channel": 3,
      "note": 54,
      "start": 34.9859,
      "duration": 0.0953,
      "velocity": 104,
      "chip": "ym2612"
    },
    {
      "channel": 4,
      "note": 66,
      "start": 34.9876,
      "duration": 0.0945,
      "velocity": 114,
      "chip": "ym2612"
    },
    {
      "channel": 2,
      "note": 102,
      "start": 34.9895,
      "duration": 0.0936,
      "velocity": 74,
      "chip": "ym2612"
    },
    {
      "channel": 5,
      "note": 93,
      "start": 34.9915,
      "duration": 0.0926,
      "velocity": 116,
      "chip": "ym2612"
    },
    {
      "channel": 1,
      "note": 46,
      "start": 35.1979,
      "duration": 0.099,
      "velocity": 122,
      "chip": "ym2612"
    },
    {
      "channel": 3,
      "note": 66,
      "start": 35.1997,
      "duration": 0.0314,
      "velocity": 104,
      "chip": "ym2612"
    },
    {
      "channel": 4,
      "note": 73,
      "start": 35.2014,
      "duration": 0.0981,
      "velocity": 114,
      "chip": "ym2612"
    },
    {
      "channel": 2,
      "note": 100,
      "start": 35.2033,
      "duration": 0.0972,
      "velocity": 74,
      "chip": "ym2612"
    },
    {
      "channel": 0,
      "note": 92,
      "start": 35.2059,
      "duration": 0.096,
      "velocity": 116,
      "chip": "ym2612"
    },
    {
      "channel": 3,
      "note": 66,
      "start": 35.2986,
      "duration": 0.0325,
      "velocity": 104,
      "chip": "ym2612"
    },
    {
      "channel": 1,
      "note": 57,
      "start": 35.4007,
      "duration": 0.3295,
      "velocity": 125,
      "chip": "ym2612"
    },
    {
      "channel": 3,
      "note": 54,
      "start": 35.4025,
      "duration": 0.1119,
      "velocity": 104,
      "chip": "ym2612"
    },
    {
      "channel": 4,
      "note": 66,
      "start": 35.4043,
      "duration": 0.1111,
      "velocity": 114,
      "chip": "ym2612"
    },
    {
      "channel": 2,
      "note": 99,
      "start": 35.4061,
      "duration": 0.1102,
      "velocity": 74,
      "chip": "ym2612"
    },
    {
      "channel": 5,
      "note": 92,
      "start": 35.4074,
      "duration": 0.11,
      "velocity": 116,
      "chip": "ym2612"
    },
    {
      "channel": 3,
      "note": 54,
      "start": 35.6152,
      "duration": 0.1159,
      "velocity": 104,
      "chip": "ym2612"
    },
    {
      "channel": 4,
      "note": 66,
      "start": 35.617,
      "duration": 0.1151,
      "velocity": 114,
      "chip": "ym2612"
    },
    {
      "channel": 2,
      "note": 100,
      "start": 35.6189,
      "duration": 0.1141,
      "velocity": 74,
      "chip": "ym2612"
    },
    {
      "channel": 0,
      "note": 90,
      "start": 35.6215,
      "duration": 0.1129,
      "velocity": 116,
      "chip": "ym2612"
    },
    {
      "channel": 1,
      "note": 46,
      "start": 35.8341,
      "duration": 0.3127,
      "velocity": 122,
      "chip": "ym2612"
    },
    {
      "channel": 3,
      "note": 54,
      "start": 35.8359,
      "duration": 0.0951,
      "velocity": 104,
      "chip": "ym2612"
    },
    {
      "channel": 4,
      "note": 66,
      "start": 35.8376,
      "duration": 0.0944,
      "velocity": 114,
      "chip": "ym2612"
    },
    {
      "channel": 2,
      "note": 97,
      "start": 35.8395,
      "duration": 0.0934,
      "velocity": 74,
      "chip": "ym2612"
    },
    {
      "channel": 5,
      "note": 90,
      "start": 35.8407,
      "duration": 0.0934,
      "velocity": 116,
      "chip": "ym2612"
    },
    {
      "channel": 3,
      "note": 54,
      "start": 36.0486,
      "duration": 0.0992,
      "velocity": 104,
      "chip": "ym2612"
    },
    {
      "channel": 4,
      "note": 66,
      "start": 36.0503,
      "duration": 0.0984,
      "velocity": 114,
      "chip": "ym2612"
    },
    {
      "channel": 2,
      "note": 100,
      "start": 36.0522,
      "duration": 0.0975,
      "velocity": 74,
      "chip": "ym2612"
    },
    {
      "channel": 0,
      "note": 88,
      "start": 36.0548,
      "duration": 0.0962,
      "velocity": 116,
      "chip": "ym2612"
    },
    {
      "channel": 1,
      "note": 57,
      "start": 36.2674,
      "duration": 0.3128,
      "velocity": 125,
      "chip": "ym2612"
    },
    {
      "channel": 3,
      "note": 54,
      "start": 36.2691,
      "duration": 0.0953,
      "velocity": 104,
      "chip": "ym2612"
    },
    {
      "channel": 4,
      "note": 73,
      "start": 36.2709,
      "duration": 0.0945,
      "velocity": 114,
      "chip": "ym2612"
    },
    {
      "channel": 2,
      "note": 99,
      "start": 36.2727,
      "duration": 0.0936,
      "velocity": 74,
      "chip": "ym2612"
    },
    {
      "channel": 5,
      "note": 88,
      "start": 36.274,
      "duration": 0.0934,
      "velocity": 116,
      "chip": "ym2612"
    },
    {
      "channel": 3,
      "note": 54,
      "start": 36.4652,
      "duration": 0.1159,
      "velocity": 104,
      "chip": "ym2612"
    },
    {
      "channel": 4,
      "note": 66,
      "start": 36.467,
      "duration": 0.1151,
      "velocity": 114,
      "chip": "ym2612"
    },
    {
      "channel": 2,
      "note": 100,
      "start": 36.4689,
      "duration": 0.1141,
      "velocity": 74,
      "chip": "ym2612"
    },
    {
      "channel": 0,
      "note": 90,
      "start": 36.4715,
      "duration": 0.1129,
      "velocity": 116,
      "chip": "ym2612"
    },
    {
      "channel": 1,
      "note": 46,
      "start": 36.6841,
      "duration": 0.1128,
      "velocity": 122,
      "chip": "ym2612"
    },
    {
      "channel": 3,
      "note": 57,
      "start": 36.6859,
      "duration": 0.112,
      "velocity": 104,
      "chip": "ym2612"
    },
    {
      "channel": 4,
      "note": 69,
      "start": 36.6876,
      "duration": 0.1111,
      "velocity": 114,
      "chip": "ym2612"
    },
    {
      "channel": 2,
      "note": 102,
      "start": 36.6895,
      "duration": 0.1102,
      "velocity": 74,
      "chip": "ym2612"
    },
    {
      "channel": 5,
      "note": 90,
      "start": 36.6907,
      "duration": 0.1101,
      "velocity": 116,
      "chip": "ym2612"
    },
    {
      "channel": 1,
      "note": 46,
      "start": 36.8979,
      "duration": 0.099,
      "velocity": 122,
      "chip": "ym2612"
    },
    {
      "channel": 3,
      "note": 56,
      "start": 36.8996,
      "duration": 0.0982,
      "velocity": 104,
      "chip": "ym2612"
    },
    {
      "channel": 4,
      "note": 68,
      "start": 36.9014,
      "duration": 0.0973,
      "velocity": 114,
      "chip": "ym2612"
    },
    {
      "channel": 2,
      "note": 100,
      "start": 36.9033,
      "duration": 0.0964,
      "velocity": 74,
      "chip": "ym2612"
    },
    {
      "channel": 0,
      "note": 88,
      "start": 36.9059,
      "duration": 0.5293,
      "velocity": 116,
      "chip": "ym2612"
    },
    {
      "channel": 1,
      "note": 57,
      "start": 37.1174,
      "duration": 0.3128,
      "velocity": 125,
      "chip": "ym2612"
    },
    {
      "channel": 3,
      "note": 57,
      "start": 37.1192,
      "duration": 0.0952,
      "velocity": 104,
      "chip": "ym2612"
    },
    {
      "channel": 4,
      "note": 69,
      "start": 37.1209,
      "duration": 0.0945,
      "velocity": 114,
      "chip": "ym2612"
    },
    {
      "channel": 2,
      "note": 99,
      "start": 37.1228,
      "duration": 0.0936,
      "velocity": 74,
      "chip": "ym2612"
    },
    {
      "channel": 5,
      "note": 88,
      "start": 37.1241,
      "duration": 0.5267,
      "velocity": 116,
      "chip": "ym2612"
    },
    {
      "channel": 3,
      "note": 56,
      "start": 37.332,
      "duration": 0.3158,
      "velocity": 104,
      "chip": "ym2612"
    },
    {
      "channel": 4,
      "note": 68,
      "start": 37.3337,
      "duration": 0.315,
      "velocity": 114,
      "chip": "ym2612"
    },
    {
      "channel": 2,
      "note": 100,
      "start": 37.3356,
      "duration": 0.0974,
      "velocity": 74,
      "chip": "ym2612"
    },
    {
      "channel": 1,
      "note": 46,
      "start": 37.5341,
      "duration": 0.3294,
      "velocity": 122,
      "chip": "ym2612"
    },
    {
      "channel": 2,
      "note": 97,
      "start": 37.5378,
      "duration": 0.1118,
      "velocity": 74,
      "chip": "ym2612"
    },
    {
      "channel": 0,
      "note": 87,
      "start": 37.5409,
      "duration": 1.5943,
      "velocity": 116,
      "chip": "ym2612"
    },
    {
      "channel": 3,
      "note": 56,
      "start": 37.7486,
      "duration": 0.1158,
      "velocity": 104,
      "chip": "ym2612"
    },
    {
      "channel": 4,
      "note": 68,
      "start": 37.7504,
      "duration": 0.1149,
      "velocity": 114,
      "chip": "ym2612"
    },
    {
      "channel": 2,
      "note": 100,
      "start": 37.7523,
      "duration": 0.1141,
      "velocity": 74,
      "chip": "ym2612"
    },
    {
      "channel": 5,
      "note": 87,
      "start": 37.7544,
      "duration": 1.5964,
      "velocity": 116,
      "chip": "ym2612"
    },
    {
      "channel": 1,
      "note": 57,
      "start": 37.9674,
      "duration": 0.3128,
      "velocity": 125,
      "chip": "ym2612"
    },
    {
      "channel": 3,
      "note": 56,
      "start": 37.9691,
      "duration": 0.0953,
      "velocity": 104,
      "chip": "ym2612"
    },
    {
      "channel": 4,
      "note": 75,
      "start": 37.9709,
      "duration": 0.0945,
      "velocity": 114,
      "chip": "ym2612"
    },
    {
      "channel": 2,
      "note": 99,
      "start": 37.9727,
      "duration": 0.0936,
      "velocity": 74,
      "chip": "ym2612"
    },
    {
      "channel": 3,
      "note": 56,
      "start": 38.1819,
      "duration": 0.0992,
      "velocity": 104,
      "chip": "ym2612"
    },
    {
      "channel": 4,
      "note": 68,
      "start": 38.1837,
      "duration": 0.0984,
      "velocity": 114,
      "chip": "ym2612"
    },
    {
      "channel": 2,
      "note": 100,
      "start": 38.1856,
      "duration": 0.0974,
      "velocity": 74,
      "chip": "ym2612"
    },
    {
      "channel": 1,
      "note": 46,
      "start": 38.4007,
      "duration": 0.0961,
      "velocity": 122,
      "chip": "ym2612"
    },
    {
      "channel": 3,
      "note": 56,
      "start": 38.4025,
      "duration": 0.0953,
      "velocity": 104,
      "chip": "ym2612"
    },
    {
      "channel": 4,
      "note": 68,
      "start": 38.4042,
      "duration": 0.0945,
      "velocity": 114,
      "chip": "ym2612"
    },
    {
      "channel": 2,
      "note": 102,
      "start": 38.4061,
      "duration": 0.0936,
      "velocity": 74,
      "chip": "ym2612"
    },
    {
      "channel": 1,
      "note": 46,
      "start": 38.5979,
      "duration": 0.1156,
      "velocity": 122,
      "chip": "ym2612"
    },
    {
      "channel": 3,
      "note": 56,
      "start": 38.5996,
      "duration": 0.1148,
      "velocity": 104,
      "chip": "ym2612"
    },
    {
      "channel": 4,
      "note": 75,
      "start": 38.6014,
      "duration": 0.114,
      "velocity": 114,
      "chip": "ym2612"
    },
    {
      "channel": 2,
      "note": 100,
      "start": 38.6033,
      "duration": 0.1131,
      "velocity": 74,
      "chip": "ym2612"
    },
    {
      "channel": 1,
      "note": 57,
      "start": 38.8174,
      "duration": 0.3128,
      "velocity": 125,
      "chip": "ym2612"
    },
    {
      "channel": 3,
      "note": 56,
      "start": 38.8192,
      "duration": 0.1119,
      "velocity": 104,
      "chip": "ym2612"
    },
    {
      "channel": 4,
      "note": 68,
      "start": 38.8209,
      "duration": 0.1111,
      "velocity": 114,
      "chip": "ym2612"
    },
    {
      "channel": 2,
      "note": 99,
      "start": 38.8228,
      "duration": 0.1102,
      "velocity": 74,
      "chip": "ym2612"
    },
    {
      "channel": 3,
      "note": 56,
      "start": 39.0319,
      "duration": 0.0992,
      "velocity": 104,
      "chip": "ym2612"
    },
    {
      "channel": 4,
      "note": 68,
      "start": 39.0337,
      "duration": 0.0984,
      "velocity": 114,
      "chip": "ym2612"
    },
    {
      "channel": 2,
      "note": 100,
      "start": 39.0356,
      "duration": 0.0974,
      "velocity": 74,
      "chip": "ym2612"
    },
    {
      "channel": 1,
      "note": 46,
      "start": 39.2508,
      "duration": 0.3127,
      "velocity": 122,
      "chip": "ym2612"
    },
    {
      "channel": 3,
      "note": 57,
      "start": 39.2526,
      "duration": 0.0951,
      "velocity": 104,
      "chip": "ym2612"
    },
    {
      "channel": 4,
      "note": 68,
      "start": 39.2543,
      "duration": 0.0944,
      "velocity": 114,
      "chip": "ym2612"
    },
    {
      "channel": 2,
      "note": 104,
      "start": 39.2562,
      "duration": 0.0934,
      "velocity": 74,
      "chip": "ym2612"
    },
    {
      "channel": 0,
      "note": 92,
      "start": 39.2593,
      "duration": 1.5926,
      "velocity": 116,
      "chip": "ym2612"
    },
    {
      "channel": 3,
      "note": 56,
      "start": 39.4652,
      "duration": 0.0992,
      "velocity": 104,
      "chip": "ym2612"
    },
    {
      "channel": 4,
      "note": 68,
      "start": 39.467,
      "duration": 0.0984,
      "velocity": 114,
      "chip": "ym2612"
    },
    {
      "channel": 2,
      "note": 102,
      "start": 39.4689,
      "duration": 0.0974,
      "velocity": 74,
      "chip": "ym2612"
    },
    {
      "channel": 5,
      "note": 92,
      "start": 39.471,
      "duration": 1.6134,
      "velocity": 116,
      "chip": "ym2612"
    },
    {
      "channel": 1,
      "note": 57,
      "start": 39.6674,
      "duration": 0.3295,
      "velocity": 125,
      "chip": "ym2612"
    },
    {
      "channel": 3,
      "note": 54,
      "start": 39.6691,
      "duration": 0.112,
      "velocity": 104,
      "chip": "ym2612"
    },
    {
      "channel": 4,
      "note": 75,
      "start": 39.6709,
      "duration": 0.1111,
      "velocity": 114,
      "chip": "ym2612"
    },
    {
      "channel": 2,
      "note": 100,
      "start": 39.6727,
      "duration": 0.1103,
      "velocity": 74,
      "chip": "ym2612"
    },
    {
      "channel": 3,
      "note": 56,
      "start": 39.8819,
      "duration": 0.1159,
      "velocity": 104,
      "chip": "ym2612"
    },
    {
      "channel": 4,
      "note": 68,
      "start": 39.8837,
      "duration": 0.1151,
      "velocity": 114,
      "chip": "ym2612"
    },
    {
      "channel": 2,
      "note": 102,
      "start": 39.8856,
      "duration": 0.1141,
      "velocity": 74,
      "chip": "ym2612"
    },
    {
      "channel": 1,
      "note": 46,
      "start": 40.1007,
      "duration": 0.0961,
      "velocity": 122,
      "chip": "ym2612"
    },
    {
      "channel": 3,
      "note": 54,
      "start": 40.1025,
      "duration": 0.0953,
      "velocity": 104,
      "chip": "ym2612"
    },
    {
      "channel": 4,
      "note": 68,
      "start": 40.1042,
      "duration": 0.0945,
      "velocity": 114,
      "chip": "ym2612"
    },
    {
      "channel": 2,
      "note": 100,
      "start": 40.1061,
      "duration": 0.0936,
      "velocity": 74,
      "chip": "ym2612"
    },
    {
      "channel": 1,
      "note": 46,
      "start": 40.3145,
      "duration": 0.099,
      "velocity": 122,
      "chip": "ym2612"
    },
    {
      "channel": 3,
      "note": 52,
      "start": 40.3163,
      "duration": 0.0982,
      "velocity": 104,
      "chip": "ym2612"
    },
    {
      "channel": 4,
      "note": 75,
      "start": 40.3181,
      "duration": 0.0973,
      "velocity": 114,
      "chip": "ym2612"
    },
    {
      "channel": 2,
      "note": 99,
      "start": 40.3199,
      "duration": 0.0964,
      "velocity": 74,
      "chip": "ym2612"
    },
    {
      "channel": 1,
      "note": 57,
      "start": 40.5341,
      "duration": 0.3128,
      "velocity": 125,
      "chip": "ym2612"
    },
    {
      "channel": 3,
      "note": 51,
      "start": 40.5359,
      "duration": 0.0952,
      "velocity": 104,
      "chip": "ym2612"
    },
    {
      "channel": 4,
      "note": 68,
      "start": 40.5376,
      "duration": 0.0945,
      "velocity": 114,
      "chip": "ym2612"
    },
    {
      "channel": 2,
      "note": 97,
      "start": 40.5395,
      "duration": 0.0936,
      "velocity": 74,
      "chip": "ym2612"
    },
    {
      "channel": 3,
      "note": 57,
      "start": 40.732,
      "duration": 0.3491,
      "velocity": 104,
      "chip": "ym2612"
    },
    {
      "channel": 4,
      "note": 69,
      "start": 40.7337,
      "duration": 0.3483,
      "velocity": 114,
      "chip": "ym2612"
    },
    {
      "channel": 2,
      "note": 95,
      "start": 40.7356,
      "duration": 0.114,
      "velocity": 74,
      "chip": "ym2612"
    },
    {
      "channel": 1,
      "note": 46,
      "start": 40.9508,
      "duration": 0.3294,
      "velocity": 122,
      "chip": "ym2612"
    },
    {
      "channel": 2,
      "note": 104,
      "start": 40.9575,
      "duration": 0.0421,
      "velocity": 115,
      "chip": "ym2612"
    },
    {
      "channel": 3,
      "note": 57,
      "start": 41.182,
      "duration": 0.0992,
      "velocity": 104,
      "chip": "ym2612"
    },
    {
      "channel": 4,
      "note": 69,
      "start": 41.1837,
      "duration": 0.0983,
      "velocity": 114,
      "chip": "ym2612"
    },
    {
      "channel": 2,
      "note": 104,
      "start": 41.1849,
      "duration": 0.0314,
      "velocity": 115,
      "chip": "ym2612"
    },
    {
      "channel": 0,
      "note": 73,
      "start": 41.1906,
      "duration": 0.094,
      "velocity": 102,
      "chip": "ym2612"
    },
    {
      "channel": 1,
      "note": 57,
      "start": 41.4007,
      "duration": 0.3128,
      "velocity": 125,
      "chip": "ym2612"
    },
    {
      "channel": 3,
      "note": 57,
      "start": 41.4024,
      "duration": 0.0953,
      "velocity": 104,
      "chip": "ym2612"
    },
    {
      "channel": 4,
      "note": 76,
      "start": 41.4042,
      "duration": 0.0945,
      "velocity": 114,
      "chip": "ym2612"
    },
    {
      "channel": 5,
      "note": 73,
      "start": 41.4056,
      "duration": 0.0944,
      "velocity": 102,
      "chip": "ym2612"
    },
    {
      "channel": 0,
      "note": 76,
      "start": 41.4075,
      "duration": 0.0935,
      "velocity": 102,
      "chip": "ym2612"
    },
    {
      "channel": 3,
      "note": 57,
      "start": 41.6152,
      "duration": 0.0992,
      "velocity": 104,
      "chip": "ym2612"
    },
    {
      "channel": 4,
      "note": 69,
      "start": 41.617,
      "duration": 0.0984,
      "velocity": 114,
      "chip": "ym2612"
    },
    {
      "channel": 2,
      "note": 104,
      "start": 41.6182,
      "duration": 0.0314,
      "velocity": 115,
      "chip": "ym2612"
    },
    {
      "channel": 5,
      "note": 76,
      "start": 41.6201,
      "duration": 0.0976,
      "velocity": 102,
      "chip": "ym2612"
    },
    {
      "channel": 0,
      "note": 80,
      "start": 41.622,
      "duration": 0.0968,
      "velocity": 102,
      "chip": "ym2612"
    },
    {
      "channel": 1,
      "note": 46,
      "start": 41.8174,
      "duration": 0.1128,
      "velocity": 122,
      "chip": "ym2612"
    },
    {
      "channel": 3,
      "note": 57,
      "start": 41.8192,
      "duration": 0.112,
      "velocity": 104,
      "chip": "ym2612"
    },
    {
      "channel": 4,
      "note": 69,
      "start": 41.8209,
      "duration": 0.1111,
      "velocity": 114,
      "chip": "ym2612"
    },
    {
      "channel": 5,
      "note": 80,
      "start": 41.8231,
      "duration": 0.1102,
      "velocity": 102,
      "chip": "ym2612"
    },
    {
      "channel": 0,
      "note": 73,
      "start": 41.8249,
      "duration": 0.1094,
      "velocity": 102,
      "chip": "ym2612"
    },
    {
      "channel": 1,
      "note": 46,
      "start": 42.0312,
      "duration": 0.1156,
      "velocity": 122,
      "chip": "ym2612"
    },
    {
      "channel": 3,
      "note": 69,
      "start": 42.033,
      "duration": 0.0314,
      "velocity": 104,
      "chip": "ym2612"
    },
    {
      "channel": 4,
      "note": 76,
      "start": 42.0348,
      "duration": 0.1148,
      "velocity": 114,
      "chip": "ym2612"
    },
    {
      "channel": 2,
      "note": 104,
      "start": 42.0359,
      "duration": 0.0304,
      "velocity": 115,
      "chip": "ym2612"
    },
    {
      "channel": 5,
      "note": 73,
      "start": 42.0379,
      "duration": 0.114,
      "velocity": 102,
      "chip": "ym2612"
    },
    {
      "channel": 0,
      "note": 76,
      "start": 42.0397,
      "duration": 0.1131,
      "velocity": 102,
      "chip": "ym2612"
    },
    {
      "channel": 3,
      "note": 69,
      "start": 42.1486,
      "duration": 0.0325,
      "velocity": 104,
      "chip": "ym2612"
    },
    {
      "channel": 1,
      "note": 57,
      "start": 42.2507,
      "duration": 0.3128,
      "velocity": 125,
      "chip": "ym2612"
    },
    {
      "channel": 3,
      "note": 57,
      "start": 42.2525,
      "duration": 0.0952,
      "velocity": 104,
      "chip": "ym2612"
    },
    {
      "channel": 4,
      "note": 69,
      "start": 42.2543,
      "duration": 0.0944,
      "velocity": 114,
      "chip": "ym2612"
    },
    {
      "channel": 5,
      "note": 76,
      "start": 42.2564,
      "duration": 0.0936,
      "velocity": 102,
      "chip": "ym2612"
    },
    {
      "channel": 0,
      "note": 80,
      "start": 42.2583,
      "duration": 0.0927,
      "velocity": 102,
      "chip": "ym2612"
    },
    {
      "channel": 3,
      "note": 57,
      "start": 42.4653,
      "duration": 0.0992,
      "velocity": 104,
      "chip": "ym2612"
    },
    {
      "channel": 4,
      "note": 69,
      "start": 42.467,
      "duration": 0.0984,
      "velocity": 114,
      "chip": "ym2612"
    },
    {
      "channel": 2,
      "note": 104,
      "start": 42.4682,
      "duration": 0.0314,
      "velocity": 115,
      "chip": "ym2612"
    },
    {
      "channel": 5,
      "note": 80,
      "start": 42.4701,
      "duration": 0.0975,
      "velocity": 102,
      "chip": "ym2612"
    },
    {
      "channel": 0,
      "note": 73,
      "start": 42.472,
      "duration": 0.0967,
      "velocity": 102,
      "chip": "ym2612"
    },
    {
      "channel": 1,
      "note": 46,
      "start": 42.6841,
      "duration": 0.3127,
      "velocity": 122,
      "chip": "ym2612"
    },
    {
      "channel": 3,
      "note": 57,
      "start": 42.6859,
      "duration": 0.0951,
      "velocity": 104,
      "chip": "ym2612"
    },
    {
      "channel": 4,
      "note": 69,
      "start": 42.6876,
      "duration": 0.0944,
      "velocity": 114,
      "chip": "ym2612"
    },
    {
      "channel": 2,
      "note": 104,
      "start": 42.6888,
      "duration": 0.3109,
      "velocity": 115,
      "chip": "ym2612"
    },
    {
      "channel": 5,
      "note": 73,
      "start": 42.6907,
      "duration": 0.0932,
      "velocity": 102,
      "chip": "ym2612"
    },
    {
      "channel": 0,
      "note": 76,
      "start": 42.6926,
      "duration": 0.0924,
      "velocity": 102,
      "chip": "ym2612"
    },
    {
      "channel": 3,
      "note": 57,
      "start": 42.8819,
      "duration": 0.1159,
      "velocity": 104,
      "chip": "ym2612"
    },
    {
      "channel": 4,
      "note": 69,
      "start": 42.8837,
      "duration": 0.1151,
      "velocity": 114,
      "chip": "ym2612"
    },
    {
      "channel": 5,
      "note": 76,
      "start": 42.8866,
      "duration": 0.1142,
      "velocity": 102,
      "chip": "ym2612"
    },
    {
      "channel": 0,
      "note": 80,
      "start": 42.8885,
      "duration": 0.1133,
      "velocity": 102,
      "chip": "ym2612"
    },
    {
      "channel": 1,
      "note": 57,
      "start": 43.1007,
      "duration": 0.3128,
      "velocity": 125,
      "chip": "ym2612"
    },
    {
      "channel": 3,
      "note": 57,
      "start": 43.1024,
      "duration": 0.112,
      "velocity": 104,
      "chip": "ym2612"
    },
    {
      "channel": 4,
      "note": 76,
      "start": 43.1042,
      "duration": 0.1111,
      "velocity": 114,
      "chip": "ym2612"
    },
    {
      "channel": 2,
      "note": 102,
      "start": 43.1061,
      "duration": 0.3103,
      "velocity": 115,
      "chip": "ym2612"
    },
    {
      "channel": 5,
      "note": 80,
      "start": 43.108,
      "duration": 0.1093,
      "velocity": 102,
      "chip": "ym2612"
    },
    {
      "channel": 0,
      "note": 73,
      "start": 43.1099,
      "duration": 0.1085,
      "velocity": 102,
      "chip": "ym2612"
    },
    {
      "channel": 3,
      "note": 57,
      "start": 43.3152,
      "duration": 0.0992,
      "velocity": 104,
      "chip": "ym2612"
    },
    {
      "channel": 4,
      "note": 69,
      "start": 43.317,
      "duration": 0.0984,
      "velocity": 114,
      "chip": "ym2612"
    },
    {
      "channel": 5,
      "note": 73,
      "start": 43.3199,
      "duration": 0.0975,
      "velocity": 102,
      "chip": "ym2612"
    },
    {
      "channel": 0,
      "note": 76,
      "start": 43.3218,
      "duration": 0.0966,
      "velocity": 102,
      "chip": "ym2612"
    },
    {
      "channel": 1,
      "note": 46,
      "start": 43.5341,
      "duration": 0.0961,
      "velocity": 122,
      "chip": "ym2612"
    },
    {
      "channel": 3,
      "note": 57,
      "start": 43.5359,
      "duration": 0.0953,
      "velocity": 104,
      "chip": "ym2612"
    },
    {
      "channel": 4,
      "note": 69,
      "start": 43.5376,
      "duration": 0.0945,
      "velocity": 114,
      "chip": "ym2612"
    },
    {
      "channel": 2,
      "note": 100,
      "start": 43.5395,
      "duration": 0.3111,
      "velocity": 115,
      "chip": "ym2612"
    },
    {
      "channel": 5,
      "note": 76,
      "start": 43.5414,
      "duration": 0.0926,
      "velocity": 102,
      "chip": "ym2612"
    },
    {
      "channel": 0,
      "note": 80,
      "start": 43.5432,
      "duration": 0.0918,
      "velocity": 102,
      "chip": "ym2612"
    },
    {
      "channel": 1,
      "note": 46,
      "start": 43.7479,
      "duration": 0.099,
      "velocity": 122,
      "chip": "ym2612"
    },
    {
      "channel": 3,
      "note": 69,
      "start": 43.7497,
      "duration": 0.0314,
      "velocity": 104,
      "chip": "ym2612"
    },
    {
      "channel": 4,
      "note": 76,
      "start": 43.7514,
      "duration": 0.0981,
      "velocity": 114,
      "chip": "ym2612"
    },
    {
      "channel": 5,
      "note": 80,
      "start": 43.7543,
      "duration": 0.0973,
      "velocity": 102,
      "chip": "ym2612"
    },
    {
      "channel": 0,
      "note": 81,
      "start": 43.7562,
      "duration": 0.0964,
      "velocity": 102,
      "chip": "ym2612"
    },
    {
      "channel": 3,
      "note": 69,
      "start": 43.8486,
      "duration": 0.0325,
      "velocity": 104,
      "chip": "ym2612"
    },
    {
      "channel": 1,
      "note": 57,
      "start": 43.9507,
      "duration": 0.3295,
      "velocity": 125,
      "chip": "ym2612"
    },
    {
      "channel": 3,
      "note": 57,
      "start": 43.9525,
      "duration": 0.1119,
      "velocity": 104,
      "chip": "ym2612"
    },
    {
      "channel": 4,
      "note": 69,
      "start": 43.9543,
      "duration": 0.1111,
      "velocity": 114,
      "chip": "ym2612"
    },
    {
      "channel": 2,
      "note": 102,
      "start": 43.9561,
      "duration": 0.3268,
      "velocity": 115,
      "chip": "ym2612"
    },
    {
      "channel": 5,
      "note": 81,
      "start": 43.9581,
      "duration": 0.1092,
      "velocity": 102,
      "chip": "ym2612"
    },
    {
      "channel": 0,
      "note": 80,
      "start": 43.96,
      "duration": 0.1084,
      "velocity": 102,
      "chip": "ym2612"
    },
    {
      "channel": 3,
      "note": 58,
      "start": 44.1653,
      "duration": 0.3158,
      "velocity": 104,
      "chip": "ym2612"
    },
    {
      "channel": 4,
      "note": 70,
      "start": 44.167,
      "duration": 0.315,
      "velocity": 114,
      "chip": "ym2612"
    },
    {
      "channel": 5,
      "note": 80,
      "start": 44.1699,
      "duration": 0.1141,
      "velocity": 102,
      "chip": "ym2612"
    },
    {
      "channel": 0,
      "note": 78,
      "start": 44.1718,
      "duration": 0.1132,
      "velocity": 102,
      "chip": "ym2612"
    },
    {
      "channel": 1,
      "note": 46,
      "start": 44.3841,
      "duration": 0.3127,
      "velocity": 122,
      "chip": "ym2612"
    },
    {
      "channel": 2,
      "note": 104,
      "start": 44.3878,
      "duration": 0.0284,
      "velocity": 115,
      "chip": "ym2612"
    },
    {
      "channel": 5,
      "note": 78,
      "start": 44.3897,
      "duration": 0.0945,
      "velocity": 102,
      "chip": "ym2612"
    },
    {
      "channel": 0,
      "note": 76,
      "start": 44.3917,
      "duration": 1.1611,
      "velocity": 102,
      "chip": "ym2612"
    },
    {
      "channel": 3,
      "note": 58,
      "start": 44.5986,
      "duration": 0.0992,
      "velocity": 104,
      "chip": "ym2612"
    },
    {
      "channel": 4,
      "note": 70,
      "start": 44.6004,
      "duration": 0.0983,
      "velocity": 114,
      "chip": "ym2612"
    },
    {
      "channel": 2,
      "note": 104,
      "start": 44.6016,
      "duration": 0.0314,
      "velocity": 115,
      "chip": "ym2612"
    },
    {
      "channel": 5,
      "note": 76,
      "start": 44.6035,
      "duration": 1.1632,
      "velocity": 102,
      "chip": "ym2612"
    },
    {
      "channel": 1,
      "note": 57,
      "start": 44.8174,
      "duration": 0.3128,
      "velocity": 125,
      "chip": "ym2612"
    },
    {
      "channel": 3,
      "note": 58,
      "start": 44.8191,
      "duration": 0.0953,
      "velocity": 104,
      "chip": "ym2612"
    },
    {
      "channel": 4,
      "note": 78,
      "start": 44.8209,
      "duration": 0.0945,
      "velocity": 114,
      "chip": "ym2612"
    },
    {
      "channel": 3,
      "note": 58,
      "start": 45.0152,
      "duration": 0.1159,
      "velocity": 104,
      "chip": "ym2612"
    },
    {
      "channel": 4,
      "note": 70,
      "start": 45.017,
      "duration": 0.1151,
      "velocity": 114,
      "chip": "ym2612"
    },
    {
      "channel": 2,
      "note": 104,
      "start": 45.0182,
      "duration": 0.0481,
      "velocity": 115,
      "chip": "ym2612"
    },
    {
      "channel": 1,
      "note": 46,
      "start": 45.2341,
      "duration": 0.1128,
      "velocity": 122,
      "chip": "ym2612"
    },
    {
      "channel": 3,
      "note": 58,
      "start": 45.2359,
      "duration": 0.112,
      "velocity": 104,
      "chip": "ym2612"
    },
    {
      "channel": 4,
      "note": 70,
      "start": 45.2376,
      "duration": 0.1111,
      "velocity": 114,
      "chip": "ym2612"
    },
    {
      "channel": 1,
      "note": 46,
      "start": 45.4479,
      "duration": 0.099,
      "velocity": 122,
      "chip": "ym2612"
    },
    {
      "channel": 3,
      "note": 70,
      "start": 45.4497,
      "duration": 0.0314,
      "velocity": 104,
      "chip": "ym2612"
    },
    {
      "channel": 4,
      "note": 78,
      "start": 45.4514,
      "duration": 0.0981,
      "velocity": 114,
      "chip": "ym2612"
    },
    {
      "channel": 2,
      "note": 104,
      "start": 45.4526,
      "duration": 0.0304,
      "velocity": 115,
      "chip": "ym2612"
    },
    {
      "channel": 3,
      "note": 70,
      "start": 45.5486,
      "duration": 0.0492,
      "velocity": 104,
      "chip": "ym2612"
    },
    {
      "channel": 1,
      "note": 57,
      "start": 45.6674,
      "duration": 0.3128,
      "velocity": 125,
      "chip": "ym2612"
    },
    {
      "channel": 3,
      "note": 58,
      "start": 45.6692,
      "duration": 0.0952,
      "velocity": 104,
      "chip": "ym2612"
    },
    {
      "channel": 4,
      "note": 70,
      "start": 45.671,
      "duration": 0.0944,
      "velocity": 114,
      "chip": "ym2612"
    },
    {
      "channel": 0,
      "note": 75,
      "start": 45.6741,
      "duration": 0.0936,
      "velocity": 102,
      "chip": "ym2612"
    },
    {
      "channel": 3,
      "note": 58,
      "start": 45.8819,
      "duration": 0.0992,
      "velocity": 104,
      "chip": "ym2612"
    },
    {
      "channel": 4,
      "note": 70,
      "start": 45.8837,
      "duration": 0.0984,
      "velocity": 114,
      "chip": "ym2612"
    },
    {
      "channel": 2,
      "note": 104,
      "start": 45.8848,
      "duration": 0.0314,
      "velocity": 115,
      "chip": "ym2612"
    },
    {
      "channel": 5,
      "note": 75,
      "start": 45.8868,
      "duration": 0.0975,
      "velocity": 102,
      "chip": "ym2612"
    },
    {
      "channel": 0,
      "note": 76,
      "start": 45.8887,
      "duration": 0.0966,
      "velocity": 102,
      "chip": "ym2612"
    },
    {
      "channel": 1,
      "note": 46,
      "start": 46.0841,
      "duration": 0.3294,
      "velocity": 122,
      "chip": "ym2612"
    },
    {
      "channel": 3,
      "note": 58,
      "start": 46.0859,
      "duration": 0.1118,
      "velocity": 104,
      "chip": "ym2612"
    },
    {
      "channel": 4,
      "note": 70,
      "start": 46.0877,
      "duration": 0.111,
      "velocity": 114,
      "chip": "ym2612"
    },
    {
      "channel": 2,
      "note": 105,
      "start": 46.0888,
      "duration": 0.3275,
      "velocity": 115,
      "chip": "ym2612"
    },
    {
      "channel": 5,
      "note": 76,
      "start": 46.0907,
      "duration": 0.1099,
      "velocity": 102,
      "chip": "ym2612"
    },
    {
      "channel": 0,
      "note": 75,
      "start": 46.0927,
      "duration": 1.5922,
      "velocity": 102,
      "chip": "ym2612"
    },
    {
      "channel": 3,
      "note": 58,
      "start": 46.2986,
      "duration": 0.1159,
      "velocity": 104,
      "chip": "ym2612"
    },
    {
      "channel": 4,
      "note": 70,
      "start": 46.3003,
      "duration": 0.115,
      "velocity": 114,
      "chip": "ym2612"
    },
    {
      "channel": 5,
      "note": 75,
      "start": 46.3032,
      "duration": 1.5977,
      "velocity": 102,
      "chip": "ym2612"
    },
    {
      "channel": 1,
      "note": 57,
      "start": 46.5174,
      "duration": 0.3128,
      "velocity": 125,
      "chip": "ym2612"
    },
    {
      "channel": 3,
      "note": 58,
      "start": 46.5191,
      "duration": 0.0953,
      "velocity": 104,
      "chip": "ym2612"
    },
    {
      "channel": 4,
      "note": 78,
      "start": 46.5209,
      "duration": 0.0945,
      "velocity": 114,
      "chip": "ym2612"
    },
    {
      "channel": 2,
      "note": 104,
      "start": 46.5227,
      "duration": 0.3103,
      "velocity": 115,
      "chip": "ym2612"
    },
    {
      "channel": 3,
      "note": 58,
      "start": 46.7319,
      "duration": 0.0992,
      "velocity": 104,
      "chip": "ym2612"
    },
    {
      "channel": 4,
      "note": 70,
      "start": 46.7337,
      "duration": 0.0984,
      "velocity": 114,
      "chip": "ym2612"
    },
    {
      "channel": 1,
      "note": 46,
      "start": 46.9507,
      "duration": 0.0961,
      "velocity": 122,
      "chip": "ym2612"
    },
    {
      "channel": 3,
      "note": 58,
      "start": 46.9525,
      "duration": 0.0953,
      "velocity": 104,
      "chip": "ym2612"
    },
    {
      "channel": 4,
      "note": 70,
      "start": 46.9542,
      "duration": 0.0945,
      "velocity": 114,
      "chip": "ym2612"
    },
    {
      "channel": 2,
      "note": 102,
      "start": 46.9561,
      "duration": 0.3111,
      "velocity": 115,
      "chip": "ym2612"
    },
    {
      "channel": 1,
      "note": 46,
      "start": 47.1479,
      "duration": 0.1156,
      "velocity": 122,
      "chip": "ym2612"
    },
    {
      "channel": 3,
      "note": 70,
      "start": 47.1497,
      "duration": 0.048,
      "velocity": 104,
      "chip": "ym2612"
    },
    {
      "channel": 4,
      "note": 78,
      "start": 47.1514,
      "duration": 0.1148,
      "velocity": 114,
      "chip": "ym2612"
    },
    {
      "channel": 3,
      "note": 70,
      "start": 47.2653,
      "duration": 0.0325,
      "velocity": 104,
      "chip": "ym2612"
    },
    {
      "channel": 1,
      "note": 57,
      "start": 47.3674,
      "duration": 0.3128,
      "velocity": 125,
      "chip": "ym2612"
    },
    {
      "channel": 3,
      "note": 58,
      "start": 47.3692,
      "duration": 0.1119,
      "velocity": 104,
      "chip": "ym2612"
    },
    {
      "channel": 4,
      "note": 70,
      "start": 47.371,
      "duration": 0.1111,
      "velocity": 114,
      "chip": "ym2612"
    },
    {
      "channel": 2,
      "note": 100,
      "start": 47.3728,
      "duration": 0.3102,
      "velocity": 115,
      "chip": "ym2612"
    },
    {
      "channel": 3,
      "note": 57,
      "start": 47.582,
      "duration": 0.3158,
      "velocity": 104,
      "chip": "ym2612"
    },
    {
      "channel": 4,
      "note": 69,
      "start": 47.5837,
      "duration": 0.315,
      "velocity": 114,
      "chip": "ym2612"
    },
    {
      "channel": 1,
      "note": 46,
      "start": 47.8008,
      "duration": 0.3127,
      "velocity": 122,
      "chip": "ym2612"
    },
    {
      "channel": 2,
      "note": 104,
      "start": 47.8045,
      "duration": 0.0284,
      "velocity": 115,
      "chip": "ym2612"
    },
    {
      "channel": 3,
      "note": 57,
      "start": 48.0153,
      "duration": 0.0992,
      "velocity": 104,
      "chip": "ym2612"
    },
    {
      "channel": 4,
      "note": 69,
      "start": 48.0171,
      "duration": 0.0983,
      "velocity": 114,
      "chip": "ym2612"
    },
    {
      "channel": 2,
      "note": 104,
      "start": 48.0182,
      "duration": 0.0314,
      "velocity": 115,
      "chip": "ym2612"
    },
    {
      "channel": 0,
      "note": 73,
      "start": 48.0207,
      "duration": 0.0973,
      "velocity": 102,
      "chip": "ym2612"
    },
    {
      "channel": 1,
      "note": 57,
      "start": 48.2174,
      "duration": 0.3295,
      "velocity": 125,
      "chip": "ym2612"
    },
    {
      "channel": 3,
      "note": 57,
      "start": 48.2191,
      "duration": 0.112,
      "velocity": 104,
      "chip": "ym2612"
    },
    {
      "channel": 4,
      "note": 76,
      "start": 48.2209,
      "duration": 0.1111,
      "velocity": 114,
      "chip": "ym2612"
    },
    {
      "channel": 5,
      "note": 73,
      "start": 48.2222,
      "duration": 0.1111,
      "velocity": 102,
      "chip": "ym2612"
    },
    {
      "channel": 0,
      "note": 76,
      "start": 48.2241,
      "duration": 0.1102,
      "velocity": 102,
      "chip": "ym2612"
    },
    {
      "channel": 3,
      "note": 57,
      "start": 48.4319,
      "duration": 0.1159,
      "velocity": 104,
      "chip": "ym2612"
    },
    {
      "channel": 4,
      "note": 69,
      "start": 48.4337,
      "duration": 0.1151,
      "velocity": 114,
      "chip": "ym2612"
    },
    {
      "channel": 2,
      "note": 104,
      "start": 48.4348,
      "duration": 0.0314,
      "velocity": 115,
      "chip": "ym2612"
    },
    {
      "channel": 5,
      "note": 76,
      "start": 48.4368,
      "duration": 0.1142,
      "velocity": 102,
      "chip": "ym2612"
    },
    {
      "channel": 0,
      "note": 80,
      "start": 48.4386,
      "duration": 0.1134,
      "velocity": 102,
      "chip": "ym2612"
    },
    {
      "channel": 1,
      "note": 46,
      "start": 48.6507,
      "duration": 0.0961,
      "velocity": 122,
      "chip": "ym2612"
    },
    {
      "channel": 3,
      "note": 57,
      "start": 48.6525,
      "duration": 0.0953,
      "velocity": 104,
      "chip": "ym2612"
    },
    {
      "channel": 4,
      "note": 69,
      "start": 48.6542,
      "duration": 0.0945,
      "velocity": 114,
      "chip": "ym2612"
    },
    {
      "channel": 5,
      "note": 80,
      "start": 48.6564,
      "duration": 0.0936,
      "velocity": 102,
      "chip": "ym2612"
    },
    {
      "channel": 0,
      "note": 73,
      "start": 48.6582,
      "duration": 0.0927,
      "velocity": 102,
      "chip": "ym2612"
    },
    {
      "channel": 1,
      "note": 46,
      "start": 48.8645,
      "duration": 0.099,
      "velocity": 122,
      "chip": "ym2612"
    },
    {
      "channel": 3,
      "note": 69,
      "start": 48.8664,
      "duration": 0.0314,
      "velocity": 104,
      "chip": "ym2612"
    },
    {
      "channel": 4,
      "note": 76,
      "start": 48.8681,
      "duration": 0.0981,
      "velocity": 114,
      "chip": "ym2612"
    },
    {
      "channel": 2,
      "note": 104,
      "start": 48.8693,
      "duration": 0.0304,
      "velocity": 115,
      "chip": "ym2612"
    },
    {
      "channel": 5,
      "note": 73,
      "start": 48.8712,
      "duration": 0.0973,
      "velocity": 102,
      "chip": "ym2612"
    },
    {
      "channel": 0,
      "note": 76,
      "start": 48.8731,
      "duration": 0.0964,
      "velocity": 102,
      "chip": "ym2612"
    },
    {
      "channel": 3,
      "note": 69,
      "start": 48.9653,
      "duration": 0.0325,
      "velocity": 104,
      "chip": "ym2612"
    },
    {
      "channel": 1,
      "note": 57,
      "start": 49.0841,
      "duration": 0.3128,
      "velocity": 125,
      "chip": "ym2612"
    },
    {
      "channel": 3,
      "note": 57,
      "start": 49.0859,
      "duration": 0.0952,
      "velocity": 104,
      "chip": "ym2612"
    },
    {
      "channel": 4,
      "note": 69,
      "start": 49.0876,
      "duration": 0.0944,
      "velocity": 114,
      "chip": "ym2612"
    },
    {
      "channel": 5,
      "note": 76,
      "start": 49.0897,
      "duration": 0.0936,
      "velocity": 102,
      "chip": "ym2612"
    },
    {
      "channel": 0,
      "note": 80,
      "start": 49.0916,
      "duration": 0.0927,
      "velocity": 102,
      "chip": "ym2612"
    },
    {
      "channel": 3,
      "note": 57,
      "start": 49.2819,
      "duration": 0.1159,
      "velocity": 104,
      "chip": "ym2612"
    },
    {
      "channel": 4,
      "note": 69,
      "start": 49.2837,
      "duration": 0.1151,
      "velocity": 114,
      "chip": "ym2612"
    },
    {
      "channel": 2,
      "note": 104,
      "start": 49.2848,
      "duration": 0.0481,
      "velocity": 115,
      "chip": "ym2612"
    },
    {
      "channel": 5,
      "note": 80,
      "start": 49.2868,
      "duration": 0.1142,
      "velocity": 102,
      "chip": "ym2612"
    },
    {
      "channel": 0,
      "note": 73,
      "start": 49.2886,
      "duration": 0.1134,
      "velocity": 102,
      "chip": "ym2612"
    },
    {
      "channel": 1,
      "note": 46,
      "start": 49.5008,
      "duration": 0.3128,
      "velocity": 122,
      "chip": "ym2612"
    },
    {
      "channel": 3,
      "note": 57,
      "start": 49.5026,
      "duration": 0.1118,
      "velocity": 104,
      "chip": "ym2612"
    },
    {
      "channel": 4,
      "note": 69,
      "start": 49.5044,
      "duration": 0.111,
      "velocity": 114,
      "chip": "ym2612"
    },
    {
      "channel": 2,
      "note": 104,
      "start": 49.5055,
      "duration": 0.3109,
      "velocity": 115,
      "chip": "ym2612"
    },
    {
      "channel": 5,
      "note": 73,
      "start": 49.5074,
      "duration": 0.1099,
      "velocity": 102,
      "chip": "ym2612"
    },
    {
      "channel": 0,
      "note": 76,
      "start": 49.5093,
      "duration": 0.109,
      "velocity": 102,
      "chip": "ym2612"
    },
    {
      "channel": 3,
      "note": 57,
      "start": 49.7152,
      "duration": 0.0992,
      "velocity": 104,
      "chip": "ym2612"
    },
    {
      "channel": 4,
      "note": 69,
      "start": 49.717,
      "duration": 0.0984,
      "velocity": 114,
      "chip": "ym2612"
    },
    {
      "channel": 5,
      "note": 76,
      "start": 49.7199,
      "duration": 0.0975,
      "velocity": 102,
      "chip": "ym2612"
    },
    {
      "channel": 0,
      "note": 80,
      "start": 49.7218,
      "duration": 0.0966,
      "velocity": 102,
      "chip": "ym2612"
    },
    {
      "channel": 1,
      "note": 57,
      "start": 49.9341,
      "duration": 0.3128,
      "velocity": 125,
      "chip": "ym2612"
    },
    {
      "channel": 3,
      "note": 57,
      "start": 49.9358,
      "duration": 0.0953,
      "velocity": 104,
      "chip": "ym2612"
    },
    {
      "channel": 4,
      "note": 76,
      "start": 49.9376,
      "duration": 0.0945,
      "velocity": 114,
      "chip": "ym2612"
    },
    {
      "channel": 2,
      "note": 102,
      "start": 49.9394,
      "duration": 0.3103,
      "velocity": 115,
      "chip": "ym2612"
    },
    {
      "channel": 5,
      "note": 80,
      "start": 49.9414,
      "duration": 0.0926,
      "velocity": 102,
      "chip": "ym2612"
    },
    {
      "channel": 0,
      "note": 73,
      "start": 49.9432,
      "duration": 0.0918,
      "velocity": 102,
      "chip": "ym2612"
    },
    {
      "channel": 3,
      "note": 57,
      "start": 50.1486,
      "duration": 0.0992,
      "velocity": 104,
      "chip": "ym2612"
    },
    {
      "channel": 4,
      "note": 69,
      "start": 50.1503,
      "duration": 0.0984,
      "velocity": 114,
      "chip": "ym2612"
    },
    {
      "channel": 5,
      "note": 73,
      "start": 50.1532,
      "duration": 0.0975,
      "velocity": 102,
      "chip": "ym2612"
    },
    {
      "channel": 0,
      "note": 76,
      "start": 50.1551,
      "duration": 0.0966,
      "velocity": 102,
      "chip": "ym2612"
    },
    {
      "channel": 1,
      "note": 46,
      "start": 50.3507,
      "duration": 0.1128,
      "velocity": 122,
      "chip": "ym2612"
    },
    {
      "channel": 3,
      "note": 57,
      "start": 50.3525,
      "duration": 0.112,
      "velocity": 104,
      "chip": "ym2612"
    },
    {
      "channel": 4,
      "note": 69,
      "start": 50.3542,
      "duration": 0.1111,
      "velocity": 114,
      "chip": "ym2612"
    },
    {
      "channel": 2,
      "note": 100,
      "start": 50.3561,
      "duration": 0.3277,
      "velocity": 115,
      "chip": "ym2612"
    },
    {
      "channel": 5,
      "note": 76,
      "start": 50.358,
      "duration": 0.1093,
      "velocity": 102,
      "chip": "ym2612"
    },
    {
      "channel": 0,
      "note": 80,
      "start": 50.3599,
      "duration": 0.1085,
      "velocity": 102,
      "chip": "ym2612"
    },
    {
      "channel": 1,
      "note": 46,
      "start": 50.5645,
      "duration": 0.1156,
      "velocity": 122,
      "chip": "ym2612"
    },
    {
      "channel": 3,
      "note": 69,
      "start": 50.5664,
      "duration": 0.0314,
      "velocity": 104,
      "chip": "ym2612"
    },
    {
      "channel": 4,
      "note": 76,
      "start": 50.5681,
      "duration": 0.1148,
      "velocity": 114,
      "chip": "ym2612"
    },
    {
      "channel": 5,
      "note": 80,
      "start": 50.571,
      "duration": 0.1139,
      "velocity": 102,
      "chip": "ym2612"
    },
    {
      "channel": 0,
      "note": 81,
      "start": 50.5729,
      "duration": 0.1131,
      "velocity": 102,
      "chip": "ym2612"
    },
    {
      "channel": 3,
      "note": 69,
      "start": 50.682,
      "duration": 0.0325,
      "velocity": 104,
      "chip": "ym2612"
    },
    {
      "channel": 1,
      "note": 57,
      "start": 50.7841,
      "duration": 0.3128,
      "velocity": 125,
      "chip": "ym2612"
    },
    {
      "channel": 3,
      "note": 57,
      "start": 50.7859,
      "duration": 0.0952,
      "velocity": 104,
      "chip": "ym2612"
    },
    {
      "channel": 4,
      "note": 69,
      "start": 50.7876,
      "duration": 0.0944,
      "velocity": 114,
      "chip": "ym2612"
    },
    {
      "channel": 2,
      "note": 102,
      "start": 50.7895,
      "duration": 0.3102,
      "velocity": 115,
      "chip": "ym2612"
    },
    {
      "channel": 5,
      "note": 81,
      "start": 50.7915,
      "duration": 0.0925,
      "velocity": 102,
      "chip": "ym2612"
    },
    {
      "channel": 0,
      "note": 80,
      "start": 50.7933,
      "duration": 0.0917,
      "velocity": 102,
      "chip": "ym2612"
    },
    {
      "channel": 3,
      "note": 58,
      "start": 50.9986,
      "duration": 0.3158,
      "velocity": 104,
      "chip": "ym2612"
    },
    {
      "channel": 4,
      "note": 70,
      "start": 51.0003,
      "duration": 0.315,
      "velocity": 114,
      "chip": "ym2612"
    },
    {
      "channel": 5,
      "note": 80,
      "start": 51.0033,
      "duration": 0.0974,
      "velocity": 102,
      "chip": "ym2612"
    },
    {
      "channel": 0,
      "note": 81,
      "start": 51.0051,
      "duration": 0.0966,
      "velocity": 102,
      "chip": "ym2612"
    },
    {
      "channel": 1,
      "note": 46,
      "start": 51.2175,
      "duration": 0.3127,
      "velocity": 122,
      "chip": "ym2612"
    },
    {
      "channel": 2,
      "note": 104,
      "start": 51.2212,
      "duration": 0.0284,
      "velocity": 115,
      "chip": "ym2612"
    },
    {
      "channel": 5,
      "note": 81,
      "start": 51.2231,
      "duration": 0.0946,
      "velocity": 102,
      "chip": "ym2612"
    },
    {
      "channel": 0,
      "note": 82,
      "start": 51.225,
      "duration": 1.1611,
      "velocity": 102,
      "chip": "ym2612"
    },
    {
      "channel": 3,
      "note": 58,
      "start": 51.4153,
      "duration": 0.1158,
      "velocity": 104,
      "chip": "ym2612"
    },
    {
      "channel": 4,
      "note": 70,
      "start": 51.4171,
      "duration": 0.115,
      "velocity": 114,
      "chip": "ym2612"
    },
    {
      "channel": 2,
      "note": 104,
      "start": 51.4182,
      "duration": 0.048,
      "velocity": 115,
      "chip": "ym2612"
    },
    {
      "channel": 5,
      "note": 82,
      "start": 51.4201,
      "duration": 1.1798,
      "velocity": 102,
      "chip": "ym2612"
    },
    {
      "channel": 1,
      "note": 57,
      "start": 51.6341,
      "duration": 0.3128,
      "velocity": 125,
      "chip": "ym2612"
    },
    {
      "channel": 3,
      "note": 58,
      "start": 51.6358,
      "duration": 0.112,
      "velocity": 104,
      "chip": "ym2612"
    },
    {
      "channel": 4,
      "note": 78,
      "start": 51.6376,
      "duration": 0.1111,
      "velocity": 114,
      "chip": "ym2612"
    },
    {
      "channel": 3,
      "note": 58,
      "start": 51.8486,
      "duration": 0.0992,
      "velocity": 104,
      "chip": "ym2612"
    },
    {
      "channel": 4,
      "note": 70,
      "start": 51.8503,
      "duration": 0.0984,
      "velocity": 114,
      "chip": "ym2612"
    },
    {
      "channel": 2,
      "note": 104,
      "start": 51.8515,
      "duration": 0.0314,
      "velocity": 115,
      "chip": "ym2612"
    },
    {
      "channel": 1,
      "note": 46,
      "start": 52.0674,
      "duration": 0.0961,
      "velocity": 122,
      "chip": "ym2612"
    },
    {
      "channel": 3,
      "note": 58,
      "start": 52.0692,
      "duration": 0.0953,
      "velocity": 104,
      "chip": "ym2612"
    },
    {
      "channel": 4,
      "note": 70,
      "start": 52.0709,
      "duration": 0.0945,
      "velocity": 114,
      "chip": "ym2612"
    },
    {
      "channel": 1,
      "note": 46,
      "start": 52.2812,
      "duration": 0.099,
      "velocity": 122,
      "chip": "ym2612"
    },
    {
      "channel": 3,
      "note": 70,
      "start": 52.283,
      "duration": 0.0314,
      "velocity": 104,
      "chip": "ym2612"
    },
    {
      "channel": 4,
      "note": 78,
      "start": 52.2848,
      "duration": 0.0981,
      "velocity": 114,
      "chip": "ym2612"
    },
    {
      "channel": 2,
      "note": 104,
      "start": 52.2859,
      "duration": 0.0304,
      "velocity": 115,
      "chip": "ym2612"
    },
    {
      "channel": 3,
      "note": 70,
      "start": 52.382,
      "duration": 0.0325,
      "velocity": 104,
      "chip": "ym2612"
    },
    {
      "channel": 1,
      "note": 57,
      "start": 52.4841,
      "duration": 0.3295,
      "velocity": 125,
      "chip": "ym2612"
    },
    {
      "channel": 3,
      "note": 58,
      "start": 52.4859,
      "duration": 0.1119,
      "velocity": 104,
      "chip": "ym2612"
    },
    {
      "channel": 4,
      "note": 70,
      "start": 52.4876,
      "duration": 0.1111,
      "velocity": 114,
      "chip": "ym2612"
    },
    {
      "channel": 0,
      "note": 81,
      "start": 52.4907,
      "duration": 0.1102,
      "velocity": 102,
      "chip": "ym2612"
    },
    {
      "channel": 3,
      "note": 58,
      "start": 52.6986,
      "duration": 0.1159,
      "velocity": 104,
      "chip": "ym2612"
    },
    {
      "channel": 4,
      "note": 70,
      "start": 52.7003,
      "duration": 0.1151,
      "velocity": 114,
      "chip": "ym2612"
    },
    {
      "channel": 2,
      "note": 104,
      "start": 52.7015,
      "duration": 0.0314,
      "velocity": 115,
      "chip": "ym2612"
    },
    {
      "channel": 5,
      "note": 81,
      "start": 52.7035,
      "duration": 0.1142,
      "velocity": 102,
      "chip": "ym2612"
    },
    {
      "channel": 1,
      "note": 46,
      "start": 52.9175,
      "duration": 0.3127,
      "velocity": 122,
      "chip": "ym2612"
    },
    {
      "channel": 3,
      "note": 58,
      "start": 52.9193,
      "duration": 0.0951,
      "velocity": 104,
      "chip": "ym2612"
    },
    {
      "channel": 4,
      "note": 70,
      "start": 52.921,
      "duration": 0.0944,
      "velocity": 114,
      "chip": "ym2612"
    },
    {
      "channel": 2,
      "note": 105,
      "start": 52.9221,
      "duration": 0.3109,
      "velocity": 115,
      "chip": "ym2612"
    },
    {
      "channel": 0,
      "note": 80,
      "start": 52.9245,
      "duration": 0.0931,
      "velocity": 102,
      "chip": "ym2612"
    },
    {
      "channel": 3,
      "note": 58,
      "start": 53.1319,
      "duration": 0.0992,
      "velocity": 104,
      "chip": "ym2612"
    },
    {
      "channel": 4,
      "note": 70,
      "start": 53.1337,
      "duration": 0.0984,
      "velocity": 114,
      "chip": "ym2612"
    },
    {
      "channel": 5,
      "note": 80,
      "start": 53.1358,
      "duration": 0.0983,
      "velocity": 102,
      "chip": "ym2612"
    },
    {
      "channel": 1,
      "note": 57,
      "start": 53.3507,
      "duration": 0.3128,
      "velocity": 125,
      "chip": "ym2612"
    },
    {
      "channel": 3,
      "note": 58,
      "start": 53.3524,
      "duration": 0.0953,
      "velocity": 104,
      "chip": "ym2612"
    },
    {
      "channel": 4,
      "note": 78,
      "start": 53.3542,
      "duration": 0.0945,
      "velocity": 114,
      "chip": "ym2612"
    },
    {
      "channel": 2,
      "note": 104,
      "start": 53.3561,
      "duration": 0.3103,
      "velocity": 115,
      "chip": "ym2612"
    },
    {
      "channel": 0,
      "note": 78,
      "start": 53.3585,
      "duration": 0.0924,
      "velocity": 102,
      "chip": "ym2612"
    },
    {
      "channel": 3,
      "note": 58,
      "start": 53.5486,
      "duration": 0.1159,
      "velocity": 104,
      "chip": "ym2612"
    },
    {
      "channel": 4,
      "note": 70,
      "start": 53.5503,
      "duration": 0.1151,
      "velocity": 114,
      "chip": "ym2612"
    },
    {
      "channel": 5,
      "note": 78,
      "start": 53.5524,
      "duration": 0.1149,
      "velocity": 102,
      "chip": "ym2612"
    },
    {
      "channel": 0,
      "note": 76,
      "start": 53.5544,
      "duration": 0.1141,
      "velocity": 102,
      "chip": "ym2612"
    },
    {
      "channel": 1,
      "note": 46,
      "start": 53.7674,
      "duration": 0.1128,
      "velocity": 122,
      "chip": "ym2612"
    },
    {
      "channel": 3,
      "note": 58,
      "start": 53.7692,
      "duration": 0.112,
      "velocity": 104,
      "chip": "ym2612"
    },
    {
      "channel": 4,
      "note": 70,
      "start": 53.7709,
      "duration": 0.1111,
      "velocity": 114,
      "chip": "ym2612"
    },
    {
      "channel": 2,
      "note": 102,
      "start": 53.7728,
      "duration": 0.3111,
      "velocity": 115,
      "chip": "ym2612"
    },
    {
      "channel": 5,
      "note": 76,
      "start": 53.7747,
      "duration": 0.1093,
      "velocity": 102,
      "chip": "ym2612"
    },
    {
      "channel": 1,
      "note": 46,
      "start": 53.9812,
      "duration": 0.099,
      "velocity": 122,
      "chip": "ym2612"
    },
    {
      "channel": 3,
      "note": 70,
      "start": 53.983,
      "duration": 0.0314,
      "velocity": 104,
      "chip": "ym2612"
    },
    {
      "channel": 4,
      "note": 78,
      "start": 53.9848,
      "duration": 0.0981,
      "velocity": 114,
      "chip": "ym2612"
    },
    {
      "channel": 0,
      "note": 75,
      "start": 53.9882,
      "duration": 0.5301,
      "velocity": 102,
      "chip": "ym2612"
    },
    {
      "channel": 3,
      "note": 70,
      "start": 54.082,
      "duration": 0.0492,
      "velocity": 104,
      "chip": "ym2612"
    },
    {
      "channel": 1,
      "note": 57,
      "start": 54.2007,
      "duration": 0.3128,
      "velocity": 125,
      "chip": "ym2612"
    },
    {
      "channel": 3,
      "note": 58,
      "start": 54.2025,
      "duration": 0.0952,
      "velocity": 104,
      "chip": "ym2612"
    },
    {
      "channel": 4,
      "note": 70,
      "start": 54.2043,
      "duration": 0.0944,
      "velocity": 114,
      "chip": "ym2612"
    },
    {
      "channel": 2,
      "note": 100,
      "start": 54.2061,
      "duration": 0.3102,
      "velocity": 115,
      "chip": "ym2612"
    },
    {
      "channel": 5,
      "note": 75,
      "start": 54.2073,
      "duration": 0.5269,
      "velocity": 102,
      "chip": "ym2612"
    },
    {
      "channel": 3,
      "note": 57,
      "start": 54.4153,
      "duration": 0.3158,
      "velocity": 104,
      "chip": "ym2612"
    },
    {
      "channel": 4,
      "note": 69,
      "start": 54.417,
      "duration": 0.315,
      "velocity": 114,
      "chip": "ym2612"
    },
    {
      "channel": 1,
      "note": 46,
      "start": 54.6175,
      "duration": 0.3294,
      "velocity": 122,
      "chip": "ym2612"
    },
    {
      "channel": 2,
      "note": 104,
      "start": 54.6212,
      "duration": 0.0451,
      "velocity": 115,
      "chip": "ym2612"
    },
    {
      "channel": 3,
      "note": 57,
      "start": 54.832,
      "duration": 0.1158,
      "velocity": 104,
      "chip": "ym2612"
    },
    {
      "channel": 4,
      "note": 69,
      "start": 54.8337,
      "duration": 0.1149,
      "velocity": 114,
      "chip": "ym2612"
    },
    {
      "channel": 2,
      "note": 104,
      "start": 54.8349,
      "duration": 0.0314,
      "velocity": 115,
      "chip": "ym2612"
    },
    {
      "channel": 0,
      "note": 73,
      "start": 54.8373,
      "duration": 0.114,
      "velocity": 102,
      "chip": "ym2612"
    },
    {
      "channel": 1,
      "note": 57,
      "start": 55.0507,
      "duration": 0.3128,
      "velocity": 125,
      "chip": "ym2612"
    },
    {
      "channel": 3,
      "note": 57,
      "start": 55.0524,
      "duration": 0.0953,
      "velocity": 104,
      "chip": "ym2612"
    },
    {
      "channel": 4,
      "note": 76,
      "start": 55.0542,
      "duration": 0.0945,
      "velocity": 114,
      "chip": "ym2612"
    },
    {
      "channel": 5,
      "note": 73,
      "start": 55.0556,
      "duration": 0.0944,
      "velocity": 102,
      "chip": "ym2612"
    },
    {
      "channel": 0,
      "note": 76,
      "start": 55.0575,
      "duration": 0.0935,
      "velocity": 102,
      "chip": "ym2612"
    },
    {
      "channel": 3,
      "note": 57,
      "start": 55.2652,
      "duration": 0.0992,
      "velocity": 104,
      "chip": "ym2612"
    },
    {
      "channel": 4,
      "note": 69,
      "start": 55.267,
      "duration": 0.0984,
      "velocity": 114,
      "chip": "ym2612"
    },
    {
      "channel": 2,
      "note": 104,
      "start": 55.2682,
      "duration": 0.0314,
      "velocity": 115,
      "chip": "ym2612"
    },
    {
      "channel": 5,
      "note": 76,
      "start": 55.2701,
      "duration": 0.0976,
      "velocity": 102,
      "chip": "ym2612"
    },
    {
      "channel": 0,
      "note": 80,
      "start": 55.272,
      "duration": 0.0968,
      "velocity": 102,
      "chip": "ym2612"
    },
    {
      "channel": 1,
      "note": 46,
      "start": 55.4841,
      "duration": 0.0961,
      "velocity": 122,
      "chip": "ym2612"
    },
    {
      "channel": 3,
      "note": 57,
      "start": 55.4859,
      "duration": 0.0953,
      "velocity": 104,
      "chip": "ym2612"
    },
    {
      "channel": 4,
      "note": 69,
      "start": 55.4876,
      "duration": 0.0945,
      "velocity": 114,
      "chip": "ym2612"
    },
    {
      "channel": 5,
      "note": 80,
      "start": 55.4897,
      "duration": 0.0936,
      "velocity": 102,
      "chip": "ym2612"
    },
    {
      "channel": 0,
      "note": 73,
      "start": 55.4916,
      "duration": 0.0927,
      "velocity": 102,
      "chip": "ym2612"
    },
    {
      "channel": 1,
      "note": 46,
      "start": 55.6812,
      "duration": 0.1156,
      "velocity": 122,
      "chip": "ym2612"
    },
    {
      "channel": 3,
      "note": 69,
      "start": 55.683,
      "duration": 0.048,
      "velocity": 104,
      "chip": "ym2612"
    },
    {
      "channel": 4,
      "note": 76,
      "start": 55.6848,
      "duration": 0.1148,
      "velocity": 114,
      "chip": "ym2612"
    },
    {
      "channel": 2,
      "note": 104,
      "start": 55.6859,
      "duration": 0.0471,
      "velocity": 115,
      "chip": "ym2612"
    },
    {
      "channel": 5,
      "note": 73,
      "start": 55.6879,
      "duration": 0.114,
      "velocity": 102,
      "chip": "ym2612"
    },
    {
      "channel": 0,
      "note": 76,
      "start": 55.6897,
      "duration": 0.1131,
      "velocity": 102,
      "chip": "ym2612"
    },
    {
      "channel": 3,
      "note": 69,
      "start": 55.7986,
      "duration": 0.0325,
      "velocity": 104,
      "chip": "ym2612"
    },
    {
      "channel": 1,
      "note": 57,
      "start": 55.9007,
      "duration": 0.3128,
      "velocity": 125,
      "chip": "ym2612"
    },
    {
      "channel": 3,
      "note": 57,
      "start": 55.9025,
      "duration": 0.1119,
      "velocity": 104,
      "chip": "ym2612"
    },
    {
      "channel": 4,
      "note": 69,
      "start": 55.9043,
      "duration": 0.1111,
      "velocity": 114,
      "chip": "ym2612"
    },
    {
      "channel": 5,
      "note": 76,
      "start": 55.9064,
      "duration": 0.1102,
      "velocity": 102,
      "chip": "ym2612"
    },
    {
      "channel": 0,
      "note": 80,
      "start": 55.9083,
      "duration": 0.1093,
      "velocity": 102,
      "chip": "ym2612"
    },
    {
      "channel": 3,
      "note": 57,
      "start": 56.1153,
      "duration": 0.0992,
      "velocity": 104,
      "chip": "ym2612"
    },
    {
      "channel": 4,
      "note": 69,
      "start": 56.117,
      "duration": 0.0984,
      "velocity": 114,
      "chip": "ym2612"
    },
    {
      "channel": 2,
      "note": 104,
      "start": 56.1182,
      "duration": 0.0314,
      "velocity": 115,
      "chip": "ym2612"
    },
    {
      "channel": 5,
      "note": 80,
      "start": 56.1201,
      "duration": 0.0975,
      "velocity": 102,
      "chip": "ym2612"
    },
    {
      "channel": 0,
      "note": 73,
      "start": 56.122,
      "duration": 0.0967,
      "velocity": 102,
      "chip": "ym2612"
    },
    {
      "channel": 1,
      "note": 46,
      "start": 56.3341,
      "duration": 0.3127,
      "velocity": 122,
      "chip": "ym2612"
    },
    {
      "channel": 3,
      "note": 57,
      "start": 56.3359,
      "duration": 0.0951,
      "velocity": 104,
      "chip": "ym2612"
    },
    {
      "channel": 4,
      "note": 69,
      "start": 56.3376,
      "duration": 0.0944,
      "velocity": 114,
      "chip": "ym2612"
    },
    {
      "channel": 2,
      "note": 104,
      "start": 56.3388,
      "duration": 0.3109,
      "velocity": 115,
      "chip": "ym2612"
    },
    {
      "channel": 5,
      "note": 73,
      "start": 56.3407,
      "duration": 0.0932,
      "velocity": 102,
      "chip": "ym2612"
    },
    {
      "channel": 0,
      "note": 76,
      "start": 56.3426,
      "duration": 0.0924,
      "velocity": 102,
      "chip": "ym2612"
    },
    {
      "channel": 3,
      "note": 57,
      "start": 56.5486,
      "duration": 0.0992,
      "velocity": 104,
      "chip": "ym2612"
    },
    {
      "channel": 4,
      "note": 69,
      "start": 56.5503,
      "duration": 0.0984,
      "velocity": 114,
      "chip": "ym2612"
    },
    {
      "channel": 5,
      "note": 76,
      "start": 56.5532,
      "duration": 0.0975,
      "velocity": 102,
      "chip": "ym2612"
    },
    {
      "channel": 0,
      "note": 80,
      "start": 56.5551,
      "duration": 0.0966,
      "velocity": 102,
      "chip": "ym2612"
    },
    {
      "channel": 1,
      "note": 57,
      "start": 56.7507,
      "duration": 0.3295,
      "velocity": 125,
      "chip": "ym2612"
    },
    {
      "channel": 3,
      "note": 57,
      "start": 56.7524,
      "duration": 0.112,
      "velocity": 104,
      "chip": "ym2612"
    },
    {
      "channel": 4,
      "note": 76,
      "start": 56.7542,
      "duration": 0.1111,
      "velocity": 114,
      "chip": "ym2612"
    },
    {
      "channel": 2,
      "note": 102,
      "start": 56.7561,
      "duration": 0.327,
      "velocity": 115,
      "chip": "ym2612"
    },
    {
      "channel": 5,
      "note": 80,
      "start": 56.758,
      "duration": 0.1093,
      "velocity": 102,
      "chip": "ym2612"
    },
    {
      "channel": 0,
      "note": 73,
      "start": 56.7599,
      "duration": 0.1085,
      "velocity": 102,
      "chip": "ym2612"
    },
    {
      "channel": 3,
      "note": 57,
      "start": 56.9652,
      "duration": 0.1159,
      "velocity": 104,
      "chip": "ym2612"
    },
    {
      "channel": 4,
      "note": 69,
      "start": 56.967,
      "duration": 0.1151,
      "velocity": 114,
      "chip": "ym2612"
    },
    {
      "channel": 5,
      "note": 73,
      "start": 56.9699,
      "duration": 0.1142,
      "velocity": 102,
      "chip": "ym2612"
    },
    {
      "channel": 0,
      "note": 76,
      "start": 56.9718,
      "duration": 0.1133,
      "velocity": 102,
      "chip": "ym2612"
    },
    {
      "channel": 1,
      "note": 46,
      "start": 57.1841,
      "duration": 0.0961,
      "velocity": 122,
      "chip": "ym2612"
    },
    {
      "channel": 3,
      "note": 57,
      "start": 57.1859,
      "duration": 0.0953,
      "velocity": 104,
      "chip": "ym2612"
    },
    {
      "channel": 4,
      "note": 69,
      "start": 57.1876,
      "duration": 0.0945,
      "velocity": 114,
      "chip": "ym2612"
    },
    {
      "channel": 2,
      "note": 100,
      "start": 57.1895,
      "duration": 0.3111,
      "velocity": 115,
      "chip": "ym2612"
    },
    {
      "channel": 5,
      "note": 76,
      "start": 57.1914,
      "duration": 0.0926,
      "velocity": 102,
      "chip": "ym2612"
    },
    {
      "channel": 0,
      "note": 80,
      "start": 57.1932,
      "duration": 0.0918,
      "velocity": 102,
      "chip": "ym2612"
    },
    {
      "channel": 1,
      "note": 46,
      "start": 57.3979,
      "duration": 0.099,
      "velocity": 122,
      "chip": "ym2612"
    },
    {
      "channel": 3,
      "note": 69,
      "start": 57.3997,
      "duration": 0.0314,
      "velocity": 104,
      "chip": "ym2612"
    },
    {
      "channel": 4,
      "note": 76,
      "start": 57.4014,
      "duration": 0.0981,
      "velocity": 114,
      "chip": "ym2612"
    },
    {
      "channel": 5,
      "note": 80,
      "start": 57.4043,
      "duration": 0.0973,
      "velocity": 102,
      "chip": "ym2612"
    },
    {
      "channel": 0,
      "note": 81,
      "start": 57.4062,
      "duration": 0.0964,
      "velocity": 102,
      "chip": "ym2612"
    },
    {
      "channel": 3,
      "note": 69,
      "start": 57.4986,
      "duration": 0.0325,
      "velocity": 104,
      "chip": "ym2612"
    },
    {
      "channel": 1,
      "note": 57,
      "start": 57.6174,
      "duration": 0.3128,
      "velocity": 125,
      "chip": "ym2612"
    },
    {
      "channel": 3,
      "note": 57,
      "start": 57.6192,
      "duration": 0.0952,
      "velocity": 104,
      "chip": "ym2612"
    },
    {
      "channel": 4,
      "note": 69,
      "start": 57.621,
      "duration": 0.0944,
      "velocity": 114,
      "chip": "ym2612"
    },
    {
      "channel": 2,
      "note": 102,
      "start": 57.6228,
      "duration": 0.3102,
      "velocity": 115,
      "chip": "ym2612"
    },
    {
      "channel": 5,
      "note": 81,
      "start": 57.6248,
      "duration": 0.0925,
      "velocity": 102,
      "chip": "ym2612"
    },
    {
      "channel": 0,
      "note": 80,
      "start": 57.6266,
      "duration": 0.0917,
      "velocity": 102,
      "chip": "ym2612"
    },
    {
      "channel": 3,
      "note": 58,
      "start": 57.8153,
      "duration": 0.3324,
      "velocity": 104,
      "chip": "ym2612"
    },
    {
      "channel": 4,
      "note": 70,
      "start": 57.817,
      "duration": 0.3317,
      "velocity": 114,
      "chip": "ym2612"
    },
    {
      "channel": 5,
      "note": 80,
      "start": 57.8199,
      "duration": 0.1141,
      "velocity": 102,
      "chip": "ym2612"
    },
    {
      "channel": 0,
      "note": 78,
      "start": 57.8218,
      "duration": 0.1132,
      "velocity": 102,
      "chip": "ym2612"
    },
    {
      "channel": 1,
      "note": 46,
      "start": 58.0341,
      "duration": 0.3127,
      "velocity": 122,
      "chip": "ym2612"
    },
    {
      "channel": 2,
      "note": 104,
      "start": 58.0379,
      "duration": 0.0284,
      "velocity": 115,
      "chip": "ym2612"
    },
    {
      "channel": 5,
      "note": 78,
      "start": 58.0398,
      "duration": 0.1111,
      "velocity": 102,
      "chip": "ym2612"
    },
    {
      "channel": 0,
      "note": 76,
      "start": 58.0417,
      "duration": 1.1778,
      "velocity": 102,
      "chip": "ym2612"
    },
    {
      "channel": 3,
      "note": 58,
      "start": 58.2486,
      "duration": 0.0992,
      "velocity": 104,
      "chip": "ym2612"
    },
    {
      "channel": 4,
      "note": 70,
      "start": 58.2504,
      "duration": 0.0983,
      "velocity": 114,
      "chip": "ym2612"
    },
    {
      "channel": 2,
      "note": 104,
      "start": 58.2516,
      "duration": 0.0314,
      "velocity": 115,
      "chip": "ym2612"
    },
    {
      "channel": 5,
      "note": 76,
      "start": 58.2535,
      "duration": 1.1632,
      "velocity": 102,
      "chip": "ym2612"
    },
    {
      "channel": 1,
      "note": 57,
      "start": 58.4674,
      "duration": 0.3128,
      "velocity": 125,
      "chip": "ym2612"
    },
    {
      "channel": 3,
      "note": 58,
      "start": 58.4691,
      "duration": 0.0953,
      "velocity": 104,
      "chip": "ym2612"
    },
    {
      "channel": 4,
      "note": 78,
      "start": 58.4709,
      "duration": 0.0945,
      "velocity": 114,
      "chip": "ym2612"
    },
    {
      "channel": 3,
      "note": 58,
      "start": 58.6819,
      "duration": 0.0992,
      "velocity": 104,
      "chip": "ym2612"
    },
    {
      "channel": 4,
      "note": 70,
      "start": 58.6837,
      "duration": 0.0984,
      "velocity": 114,
      "chip": "ym2612"
    },
    {
      "channel": 2,
      "note": 104,
      "start": 58.6848,
      "duration": 0.0314,
      "velocity": 115,
      "chip": "ym2612"
    },
    {
      "channel": 1,
      "note": 46,
      "start": 58.8841,
      "duration": 0.1128,
      "velocity": 122,
      "chip": "ym2612"
    },
    {
      "channel": 3,
      "note": 58,
      "start": 58.8859,
      "duration": 0.112,
      "velocity": 104,
      "chip": "ym2612"
    },
    {
      "channel": 4,
      "note": 70,
      "start": 58.8876,
      "duration": 0.1111,
      "velocity": 114,
      "chip": "ym2612"
    },
    {
      "channel": 1,
      "note": 46,
      "start": 59.0979,
      "duration": 0.1156,
      "velocity": 122,
      "chip": "ym2612"
    },
    {
      "channel": 3,
      "note": 70,
      "start": 59.0997,
      "duration": 0.0314,
      "velocity": 104,
      "chip": "ym2612"
    },
    {
      "channel": 4,
      "note": 78,
      "start": 59.1014,
      "duration": 0.1148,
      "velocity": 114,
      "chip": "ym2612"
    },
    {
      "channel": 2,
      "note": 104,
      "start": 59.1026,
      "duration": 0.0304,
      "velocity": 115,
      "chip": "ym2612"
    },
    {
      "channel": 3,
      "note": 70,
      "start": 59.2153,
      "duration": 0.0325,
      "velocity": 104,
      "chip": "ym2612"
    },
    {
      "channel": 1,
      "note": 57,
      "start": 59.3174,
      "duration": 0.3128,
      "velocity": 125,
      "chip": "ym2612"
    },
    {
      "channel": 3,
      "note": 58,
      "start": 59.3192,
      "duration": 0.0952,
      "velocity": 104,
      "chip": "ym2612"
    },
    {
      "channel": 4,
      "note": 70,
      "start": 59.321,
      "duration": 0.0944,
      "velocity": 114,
      "chip": "ym2612"
    },
    {
      "channel": 0,
      "note": 75,
      "start": 59.3241,
      "duration": 0.0936,
      "velocity": 102,
      "chip": "ym2612"
    },
    {
      "channel": 3,
      "note": 58,
      "start": 59.5319,
      "duration": 0.0992,
      "velocity": 104,
      "chip": "ym2612"
    },
    {
      "channel": 4,
      "note": 70,
      "start": 59.5337,
      "duration": 0.0984,
      "velocity": 114,
      "chip": "ym2612"
    },
    {
      "channel": 2,
      "note": 104,
      "start": 59.5348,
      "duration": 0.0314,
      "velocity": 115,
      "chip": "ym2612"
    },
    {
      "channel": 5,
      "note": 75,
      "start": 59.5368,
      "duration": 0.0975,
      "velocity": 102,
      "chip": "ym2612"
    },
    {
      "channel": 0,
      "note": 76,
      "start": 59.5387,
      "duration": 0.0966,
      "velocity": 102,
      "chip": "ym2612"
    },
    {
      "channel": 1,
      "note": 46,
      "start": 59.7508,
      "duration": 0.3127,
      "velocity": 122,
      "chip": "ym2612"
    },
    {
      "channel": 3,
      "note": 58,
      "start": 59.7526,
      "duration": 0.0951,
      "velocity": 104,
      "chip": "ym2612"
    },
    {
      "channel": 4,
      "note": 70,
      "start": 59.7543,
      "duration": 0.0944,
      "velocity": 114,
      "chip": "ym2612"
    },
    {
      "channel": 2,
      "note": 105,
      "start": 59.7554,
      "duration": 0.3109,
      "velocity": 115,
      "chip": "ym2612"
    },
    {
      "channel": 5,
      "note": 76,
      "start": 59.7574,
      "duration": 0.0932,
      "velocity": 102,
      "chip": "ym2612"
    },
    {
      "channel": 0,
      "note": 75,
      "start": 59.7593,
      "duration": 1.5923,
      "velocity": 102,
      "chip": "ym2612"
    },
    {
      "channel": 3,
      "note": 58,
      "start": 59.9486,
      "duration": 0.1159,
      "velocity": 104,
      "chip": "ym2612"
    },
    {
      "channel": 4,
      "note": 70,
      "start": 59.9503,
      "duration": 0.1151,
      "velocity": 114,
      "chip": "ym2612"
    },
    {
      "channel": 5,
      "note": 75,
      "start": 59.9532,
      "duration": 1.5977,
      "velocity": 102,
      "chip": "ym2612"
    },
    {
      "channel": 1,
      "note": 57,
      "start": 60.1674,
      "duration": 0.3128,
      "velocity": 125,
      "chip": "ym2612"
    },
    {
      "channel": 3,
      "note": 58,
      "start": 60.1691,
      "duration": 0.112,
      "velocity": 104,
      "chip": "ym2612"
    },
    {
      "channel": 4,
      "note": 78,
      "start": 60.1709,
      "duration": 0.1111,
      "velocity": 114,
      "chip": "ym2612"
    },
    {
      "channel": 2,
      "note": 104,
      "start": 60.1727,
      "duration": 0.3103,
      "velocity": 115,
      "chip": "ym2612"
    },
    {
      "channel": 3,
      "note": 58,
      "start": 60.3819,
      "duration": 0.0992,
      "velocity": 104,
      "chip": "ym2612"
    },
    {
      "channel": 4,
      "note": 70,
      "start": 60.3837,
      "duration": 0.0984,
      "velocity": 114,
      "chip": "ym2612"
    },
    {
      "channel": 1,
      "note": 46,
      "start": 60.6007,
      "duration": 0.0961,
      "velocity": 122,
      "chip": "ym2612"
    },
    {
      "channel": 3,
      "note": 58,
      "start": 60.6025,
      "duration": 0.0953,
      "velocity": 104,
      "chip": "ym2612"
    },
    {
      "channel": 4,
      "note": 70,
      "start": 60.6042,
      "duration": 0.0945,
      "velocity": 114,
      "chip": "ym2612"
    },
    {
      "channel": 2,
      "note": 102,
      "start": 60.6061,
      "duration": 0.3111,
      "velocity": 115,
      "chip": "ym2612"
    },
    {
      "channel": 1,
      "note": 46,
      "start": 60.8145,
      "duration": 0.099,
      "velocity": 122,
      "chip": "ym2612"
    },
    {
      "channel": 3,
      "note": 70,
      "start": 60.8164,
      "duration": 0.0314,
      "velocity": 104,
      "chip": "ym2612"
    },
    {
      "channel": 4,
      "note": 78,
      "start": 60.8181,
      "duration": 0.0982,
      "velocity": 114,
      "chip": "ym2612"
    },
    {
      "channel": 3,
      "note": 70,
      "start": 60.9153,
      "duration": 0.0325,
      "velocity": 104,
      "chip": "ym2612"
    },
    {
      "channel": 1,
      "note": 57,
      "start": 61.0174,
      "duration": 0.3295,
      "velocity": 125,
      "chip": "ym2612"
    },
    {
      "channel": 3,
      "note": 58,
      "start": 61.0192,
      "duration": 0.1119,
      "velocity": 104,
      "chip": "ym2612"
    },
    {
      "channel": 4,
      "note": 70,
      "start": 61.021,
      "duration": 0.1111,
      "velocity": 114,
      "chip": "ym2612"
    },
    {
      "channel": 2,
      "note": 100,
      "start": 61.0228,
      "duration": 0.3268,
      "velocity": 115,
      "chip": "ym2612"
    },
    {
      "channel": 3,
      "note": 57,
      "start": 61.232,
      "duration": 0.3158,
      "velocity": 104,
      "chip": "ym2612"
    },
    {
      "channel": 4,
      "note": 69,
      "start": 61.2337,
      "duration": 0.315,
      "velocity": 114,
      "chip": "ym2612"
    },
    {
      "channel": 1,
      "note": 46,
      "start": 61.4508,
      "duration": 0.3127,
      "velocity": 122,
      "chip": "ym2612"
    },
    {
      "channel": 2,
      "note": 104,
      "start": 61.4545,
      "duration": 0.0284,
      "velocity": 115,
      "chip": "ym2612"
    },
    {
      "channel": 3,
      "note": 57,
      "start": 61.6653,
      "duration": 0.0992,
      "velocity": 104,
      "chip": "ym2612"
    },
    {
      "channel": 4,
      "note": 69,
      "start": 61.6671,
      "duration": 0.0983,
      "velocity": 114,
      "chip": "ym2612"
    },
    {
      "channel": 2,
      "note": 104,
      "start": 61.6682,
      "duration": 0.0314,
      "velocity": 115,
      "chip": "ym2612"
    },
    {
      "channel": 0,
      "note": 73,
      "start": 61.6707,
      "duration": 0.0973,
      "velocity": 102,
      "chip": "ym2612"
    },
    {
      "channel": 1,
      "note": 57,
      "start": 61.8841,
      "duration": 0.3128,
      "velocity": 125,
      "chip": "ym2612"
    },
    {
      "channel": 3,
      "note": 57,
      "start": 61.8858,
      "duration": 0.0953,
      "velocity": 104,
      "chip": "ym2612"
    },
    {
      "channel": 4,
      "note": 76,
      "start": 61.8876,
      "duration": 0.0945,
      "velocity": 114,
      "chip": "ym2612"
    },
    {
      "channel": 5,
      "note": 73,
      "start": 61.8889,
      "duration": 0.0944,
      "velocity": 102,
      "chip": "ym2612"
    },
    {
      "channel": 0,
      "note": 76,
      "start": 61.8908,
      "duration": 0.0935,
      "velocity": 102,
      "chip": "ym2612"
    },
    {
      "channel": 3,
      "note": 57,
      "start": 62.0819,
      "duration": 0.1159,
      "velocity": 104,
      "chip": "ym2612"
    },
    {
      "channel": 4,
      "note": 69,
      "start": 62.0837,
      "duration": 0.1151,
      "velocity": 114,
      "chip": "ym2612"
    },
    {
      "channel": 2,
      "note": 104,
      "start": 62.0848,
      "duration": 0.0481,
      "velocity": 115,
      "chip": "ym2612"
    },
    {
      "channel": 5,
      "note": 76,
      "start": 62.0868,
      "duration": 0.1142,
      "velocity": 102,
      "chip": "ym2612"
    },
    {
      "channel": 0,
      "note": 80,
      "start": 62.0886,
      "duration": 0.1134,
      "velocity": 102,
      "chip": "ym2612"
    },
    {
      "channel": 1,
      "note": 46,
      "start": 62.3007,
      "duration": 0.1128,
      "velocity": 122,
      "chip": "ym2612"
    },
    {
      "channel": 3,
      "note": 57,
      "start": 62.3025,
      "duration": 0.112,
      "velocity": 104,
      "chip": "ym2612"
    },
    {
      "channel": 4,
      "note": 69,
      "start": 62.3042,
      "duration": 0.1112,
      "velocity": 114,
      "chip": "ym2612"
    },
    {
      "channel": 5,
      "note": 80,
      "start": 62.3064,
      "duration": 0.1103,
      "velocity": 102,
      "chip": "ym2612"
    },
    {
      "channel": 0,
      "note": 73,
      "start": 62.3082,
      "duration": 0.1094,
      "velocity": 102,
      "chip": "ym2612"
    },
    {
      "channel": 1,
      "note": 46,
      "start": 62.5145,
      "duration": 0.099,
      "velocity": 122,
      "chip": "ym2612"
    },
    {
      "channel": 3,
      "note": 69,
      "start": 62.5164,
      "duration": 0.0314,
      "velocity": 104,
      "chip": "ym2612"
    },
    {
      "channel": 4,
      "note": 76,
      "start": 62.5181,
      "duration": 0.0981,
      "velocity": 114,
      "chip": "ym2612"
    },
    {
      "channel": 2,
      "note": 104,
      "start": 62.5193,
      "duration": 0.0304,
      "velocity": 115,
      "chip": "ym2612"
    },
    {
      "channel": 5,
      "note": 73,
      "start": 62.5212,
      "duration": 0.0973,
      "velocity": 102,
      "chip": "ym2612"
    },
    {
      "channel": 0,
      "note": 76,
      "start": 62.5231,
      "duration": 0.0964,
      "velocity": 102,
      "chip": "ym2612"
    },
    {
      "channel": 3,
      "note": 69,
      "start": 62.6153,
      "duration": 0.0492,
      "velocity": 104,
      "chip": "ym2612"
    },
    {
      "channel": 1,
      "note": 57,
      "start": 62.7341,
      "duration": 0.3128,
      "velocity": 125,
      "chip": "ym2612"
    },
    {
      "channel": 3,
      "note": 57,
      "start": 62.7359,
      "duration": 0.0952,
      "velocity": 104,
      "chip": "ym2612"
    },
    {
      "channel": 4,
      "note": 69,
      "start": 62.7376,
      "duration": 0.0944,
      "velocity": 114,
      "chip": "ym2612"
    },
    {
      "channel": 5,
      "note": 76,
      "start": 62.7397,
      "duration": 0.0936,
      "velocity": 102,
      "chip": "ym2612"
    },
    {
      "channel": 0,
      "note": 80,
      "start": 62.7416,
      "duration": 0.0927,
      "velocity": 102,
      "chip": "ym2612"
    },
    {
      "channel": 3,
      "note": 57,
      "start": 62.9486,
      "duration": 0.0992,
      "velocity": 104,
      "chip": "ym2612"
    },
    {
      "channel": 4,
      "note": 69,
      "start": 62.9503,
      "duration": 0.0984,
      "velocity": 114,
      "chip": "ym2612"
    },
    {
      "channel": 2,
      "note": 104,
      "start": 62.9515,
      "duration": 0.0314,
      "velocity": 115,
      "chip": "ym2612"
    },
    {
      "channel": 5,
      "note": 80,
      "start": 62.9535,
      "duration": 0.0975,
      "velocity": 102,
      "chip": "ym2612"
    },
    {
      "channel": 0,
      "note": 73,
      "start": 62.9553,
      "duration": 0.0967,
      "velocity": 102,
      "chip": "ym2612"
    },
    {
      "channel": 1,
      "note": 46,
      "start": 63.1508,
      "duration": 0.3294,
      "velocity": 122,
      "chip": "ym2612"
    },
    {
      "channel": 3,
      "note": 57,
      "start": 63.1526,
      "duration": 0.1118,
      "velocity": 104,
      "chip": "ym2612"
    },
    {
      "channel": 4,
      "note": 69,
      "start": 63.1544,
      "duration": 0.111,
      "velocity": 114,
      "chip": "ym2612"
    },
    {
      "channel": 2,
      "note": 104,
      "start": 63.1555,
      "duration": 0.3275,
      "velocity": 115,
      "chip": "ym2612"
    },
    {
      "channel": 5,
      "note": 73,
      "start": 63.1574,
      "duration": 0.1099,
      "velocity": 102,
      "chip": "ym2612"
    },
    {
      "channel": 0,
      "note": 76,
      "start": 63.1593,
      "duration": 0.109,
      "velocity": 102,
      "chip": "ym2612"
    },
    {
      "channel": 3,
      "note": 57,
      "start": 63.3652,
      "duration": 0.1159,
      "velocity": 104,
      "chip": "ym2612"
    },
    {
      "channel": 4,
      "note": 69,
      "start": 63.367,
      "duration": 0.115,
      "velocity": 114,
      "chip": "ym2612"
    },
    {
      "channel": 5,
      "note": 76,
      "start": 63.3699,
      "duration": 0.1142,
      "velocity": 102,
      "chip": "ym2612"
    },
    {
      "channel": 0,
      "note": 80,
      "start": 63.3718,
      "duration": 0.1133,
      "velocity": 102,
      "chip": "ym2612"
    },
    {
      "channel": 1,
      "note": 57,
      "start": 63.5841,
      "duration": 0.3128,
      "velocity": 125,
      "chip": "ym2612"
    },
    {
      "channel": 3,
      "note": 57,
      "start": 63.5858,
      "duration": 0.0953,
      "velocity": 104,
      "chip": "ym2612"
    },
    {
      "channel": 4,
      "note": 76,
      "start": 63.5876,
      "duration": 0.0945,
      "velocity": 114,
      "chip": "ym2612"
    },
    {
      "channel": 2,
      "note": 102,
      "start": 63.5894,
      "duration": 0.3103,
      "velocity": 115,
      "chip": "ym2612"
    },
    {
      "channel": 5,
      "note": 80,
      "start": 63.5914,
      "duration": 0.0926,
      "velocity": 102,
      "chip": "ym2612"
    },
    {
      "channel": 0,
      "note": 73,
      "start": 63.5932,
      "duration": 0.0918,
      "velocity": 102,
      "chip": "ym2612"
    },
    {
      "channel": 3,
      "note": 57,
      "start": 63.7986,
      "duration": 0.0992,
      "velocity": 104,
      "chip": "ym2612"
    },
    {
      "channel": 4,
      "note": 69,
      "start": 63.8003,
      "duration": 0.0984,
      "velocity": 114,
      "chip": "ym2612"
    },
    {
      "channel": 5,
      "note": 73,
      "start": 63.8032,
      "duration": 0.0975,
      "velocity": 102,
      "chip": "ym2612"
    },
    {
      "channel": 0,
      "note": 76,
      "start": 63.8051,
      "duration": 0.0966,
      "velocity": 102,
      "chip": "ym2612"
    },
    {
      "channel": 1,
      "note": 46,
      "start": 64.0174,
      "duration": 0.0961,
      "velocity": 122,
      "chip": "ym2612"
    },
    {
      "channel": 3,
      "note": 57,
      "start": 64.0192,
      "duration": 0.0953,
      "velocity": 104,
      "chip": "ym2612"
    },
    {
      "channel": 4,
      "note": 69,
      "start": 64.0209,
      "duration": 0.0945,
      "velocity": 114,
      "chip": "ym2612"
    },
    {
      "channel": 2,
      "note": 100,
      "start": 64.0228,
      "duration": 0.3111,
      "velocity": 115,
      "chip": "ym2612"
    },
    {
      "channel": 5,
      "note": 76,
      "start": 64.0247,
      "duration": 0.0926,
      "velocity": 102,
      "chip": "ym2612"
    },
    {
      "channel": 0,
      "note": 80,
      "start": 64.0266,
      "duration": 0.0918,
      "velocity": 102,
      "chip": "ym2612"
    },
    {
      "channel": 1,
      "note": 46,
      "start": 64.2145,
      "duration": 0.1156,
      "velocity": 122,
      "chip": "ym2612"
    },
    {
      "channel": 3,
      "note": 69,
      "start": 64.2164,
      "duration": 0.048,
      "velocity": 104,
      "chip": "ym2612"
    },
    {
      "channel": 4,
      "note": 76,
      "start": 64.2181,
      "duration": 0.1148,
      "velocity": 114,
      "chip": "ym2612"
    },
    {
      "channel": 5,
      "note": 80,
      "start": 64.221,
      "duration": 0.1139,
      "velocity": 102,
      "chip": "ym2612"
    },
    {
      "channel": 0,
      "note": 81,
      "start": 64.2229,
      "duration": 0.1131,
      "velocity": 102,
      "chip": "ym2612"
    },
    {
      "channel": 3,
      "note": 69,
      "start": 64.332,
      "duration": 0.0325,
      "velocity": 104,
      "chip": "ym2612"
    },
    {
      "channel": 1,
      "note": 57,
      "start": 64.4341,
      "duration": 0.3128,
      "velocity": 125,
      "chip": "ym2612"
    },
    {
      "channel": 3,
      "note": 57,
      "start": 64.4359,
      "duration": 0.1119,
      "velocity": 104,
      "chip": "ym2612"
    },
    {
      "channel": 4,
      "note": 69,
      "start": 64.4376,
      "duration": 0.1111,
      "velocity": 114,
      "chip": "ym2612"
    },
    {
      "channel": 2,
      "note": 102,
      "start": 64.4395,
      "duration": 0.3102,
      "velocity": 115,
      "chip": "ym2612"
    },
    {
      "channel": 5,
      "note": 81,
      "start": 64.4415,
      "duration": 0.1092,
      "velocity": 102,
      "chip": "ym2612"
    },
    {
      "channel": 0,
      "note": 80,
      "start": 64.4433,
      "duration": 0.1084,
      "velocity": 102,
      "chip": "ym2612"
    },
    {
      "channel": 3,
      "note": 58,
      "start": 64.6486,
      "duration": 0.3158,
      "velocity": 104,
      "chip": "ym2612"
    },
    {
      "channel": 4,
      "note": 70,
      "start": 64.6503,
      "duration": 0.315,
      "velocity": 114,
      "chip": "ym2612"
    },
    {
      "channel": 5,
      "note": 80,
      "start": 64.6533,
      "duration": 0.0974,
      "velocity": 102,
      "chip": "ym2612"
    },
    {
      "channel": 0,
      "note": 81,
      "start": 64.6551,
      "duration": 0.0966,
      "velocity": 102,
      "chip": "ym2612"
    },
    {
      "channel": 1,
      "note": 46,
      "start": 64.8675,
      "duration": 0.3127,
      "velocity": 122,
      "chip": "ym2612"
    },
    {
      "channel": 2,
      "note": 104,
      "start": 64.8712,
      "duration": 0.0284,
      "velocity": 115,
      "chip": "ym2612"
    },
    {
      "channel": 5,
      "note": 81,
      "start": 64.8731,
      "duration": 0.0946,
      "velocity": 102,
      "chip": "ym2612"
    },
    {
      "channel": 0,
      "note": 80,
      "start": 64.875,
      "duration": 0.3103,
      "velocity": 102,
      "chip": "ym2612"
    },
    {
      "channel": 3,
      "note": 58,
      "start": 65.082,
      "duration": 0.0992,
      "velocity": 104,
      "chip": "ym2612"
    },
    {
      "channel": 4,
      "note": 70,
      "start": 65.0837,
      "duration": 0.0983,
      "velocity": 114,
      "chip": "ym2612"
    },
    {
      "channel": 2,
      "note": 104,
      "start": 65.0849,
      "duration": 0.0314,
      "velocity": 115,
      "chip": "ym2612"
    },
    {
      "channel": 5,
      "note": 80,
      "start": 65.0868,
      "duration": 0.3132,
      "velocity": 102,
      "chip": "ym2612"
    },
    {
      "channel": 1,
      "note": 57,
      "start": 65.2841,
      "duration": 0.3295,
      "velocity": 125,
      "chip": "ym2612"
    },
    {
      "channel": 3,
      "note": 58,
      "start": 65.2858,
      "duration": 0.112,
      "velocity": 104,
      "chip": "ym2612"
    },
    {
      "channel": 4,
      "note": 78,
      "start": 65.2876,
      "duration": 0.1111,
      "velocity": 114,
      "chip": "ym2612"
    },
    {
      "channel": 0,
      "note": 85,
      "start": 65.2907,
      "duration": 0.1103,
      "velocity": 102,
      "chip": "ym2612"
    },
    {
      "channel": 3,
      "note": 58,
      "start": 65.4986,
      "duration": 0.1159,
      "velocity": 104,
      "chip": "ym2612"
    },
    {
      "channel": 4,
      "note": 70,
      "start": 65.5003,
      "duration": 0.1151,
      "velocity": 114,
      "chip": "ym2612"
    },
    {
      "channel": 2,
      "note": 104,
      "start": 65.5015,
      "duration": 0.0314,
      "velocity": 115,
      "chip": "ym2612"
    },
    {
      "channel": 5,
      "note": 85,
      "start": 65.5035,
      "duration": 0.1142,
      "velocity": 102,
      "chip": "ym2612"
    },
    {
      "channel": 0,
      "note": 80,
      "start": 65.5054,
      "duration": 0.3122,
      "velocity": 102,
      "chip": "ym2612"
    },
    {
      "channel": 1,
      "note": 46,
      "start": 65.7174,
      "duration": 0.0961,
      "velocity": 122,
      "chip": "ym2612"
    },
    {
      "channel": 3,
      "note": 58,
      "start": 65.7192,
      "duration": 0.0953,
      "velocity": 104,
      "chip": "ym2612"
    },
    {
      "channel": 4,
      "note": 70,
      "start": 65.7209,
      "duration": 0.0945,
      "velocity": 114,
      "chip": "ym2612"
    },
    {
      "channel": 5,
      "note": 80,
      "start": 65.7231,
      "duration": 0.3122,
      "velocity": 102,
      "chip": "ym2612"
    },
    {
      "channel": 1,
      "note": 46,
      "start": 65.9312,
      "duration": 0.099,
      "velocity": 122,
      "chip": "ym2612"
    },
    {
      "channel": 3,
      "note": 70,
      "start": 65.933,
      "duration": 0.0314,
      "velocity": 104,
      "chip": "ym2612"
    },
    {
      "channel": 4,
      "note": 78,
      "start": 65.9348,
      "duration": 0.0981,
      "velocity": 114,
      "chip": "ym2612"
    },
    {
      "channel": 2,
      "note": 104,
      "start": 65.9359,
      "duration": 0.0304,
      "velocity": 115,
      "chip": "ym2612"
    },
    {
      "channel": 0,
      "note": 87,
      "start": 65.9388,
      "duration": 0.0973,
      "velocity": 102,
      "chip": "ym2612"
    },
    {
      "channel": 3,
      "note": 70,
      "start": 66.032,
      "duration": 0.0325,
      "velocity": 104,
      "chip": "ym2612"
    },
    {
      "channel": 1,
      "note": 57,
      "start": 66.1507,
      "duration": 0.3128,
      "velocity": 125,
      "chip": "ym2612"
    },
    {
      "channel": 3,
      "note": 58,
      "start": 66.1525,
      "duration": 0.0952,
      "velocity": 104,
      "chip": "ym2612"
    },
    {
      "channel": 4,
      "note": 70,
      "start": 66.1543,
      "duration": 0.0944,
      "velocity": 114,
      "chip": "ym2612"
    },
    {
      "channel": 5,
      "note": 87,
      "start": 66.1565,
      "duration": 0.0935,
      "velocity": 102,
      "chip": "ym2612"
    },
    {
      "channel": 0,
      "note": 80,
      "start": 66.1584,
      "duration": 0.3102,
      "velocity": 102,
      "chip": "ym2612"
    },
    {
      "channel": 3,
      "note": 58,
      "start": 66.3486,
      "duration": 0.1159,
      "velocity": 104,
      "chip": "ym2612"
    },
    {
      "channel": 4,
      "note": 70,
      "start": 66.3503,
      "duration": 0.1151,
      "velocity": 114,
      "chip": "ym2612"
    },
    {
      "channel": 2,
      "note": 104,
      "start": 66.3515,
      "duration": 0.0481,
      "velocity": 115,
      "chip": "ym2612"
    },
    {
      "channel": 5,
      "note": 80,
      "start": 66.3535,
      "duration": 0.3305,
      "velocity": 102,
      "chip": "ym2612"
    },
    {
      "channel": 1,
      "note": 46,
      "start": 66.5675,
      "duration": 0.3127,
      "velocity": 122,
      "chip": "ym2612"
    },
    {
      "channel": 3,
      "note": 58,
      "start": 66.5693,
      "duration": 0.1118,
      "velocity": 104,
      "chip": "ym2612"
    },
    {
      "channel": 4,
      "note": 70,
      "start": 66.571,
      "duration": 0.111,
      "velocity": 114,
      "chip": "ym2612"
    },
    {
      "channel": 2,
      "note": 105,
      "start": 66.5722,
      "duration": 0.3109,
      "velocity": 115,
      "chip": "ym2612"
    },
    {
      "channel": 0,
      "note": 88,
      "start": 66.5751,
      "duration": 0.1098,
      "velocity": 102,
      "chip": "ym2612"
    },
    {
      "channel": 3,
      "note": 58,
      "start": 66.7819,
      "duration": 0.0992,
      "velocity": 104,
      "chip": "ym2612"
    },
    {
      "channel": 4,
      "note": 70,
      "start": 66.7837,
      "duration": 0.0984,
      "velocity": 114,
      "chip": "ym2612"
    },
    {
      "channel": 5,
      "note": 88,
      "start": 66.7866,
      "duration": 0.0975,
      "velocity": 102,
      "chip": "ym2612"
    },
    {
      "channel": 0,
      "note": 80,
      "start": 66.7885,
      "duration": 0.3131,
      "velocity": 102,
      "chip": "ym2612"
    },
    {
      "channel": 1,
      "note": 57,
      "start": 67.0007,
      "duration": 0.3128,
      "velocity": 125,
      "chip": "ym2612"
    },
    {
      "channel": 3,
      "note": 58,
      "start": 67.0024,
      "duration": 0.0953,
      "velocity": 104,
      "chip": "ym2612"
    },
    {
      "channel": 4,
      "note": 78,
      "start": 67.0042,
      "duration": 0.0945,
      "velocity": 114,
      "chip": "ym2612"
    },
    {
      "channel": 2,
      "note": 104,
      "start": 67.0061,
      "duration": 0.3103,
      "velocity": 115,
      "chip": "ym2612"
    },
    {
      "channel": 5,
      "note": 80,
      "start": 67.008,
      "duration": 0.3093,
      "velocity": 102,
      "chip": "ym2612"
    },
    {
      "channel": 3,
      "note": 58,
      "start": 67.2153,
      "duration": 0.0992,
      "velocity": 104,
      "chip": "ym2612"
    },
    {
      "channel": 4,
      "note": 70,
      "start": 67.217,
      "duration": 0.0984,
      "velocity": 114,
      "chip": "ym2612"
    },
    {
      "channel": 0,
      "note": 90,
      "start": 67.2209,
      "duration": 0.0975,
      "velocity": 102,
      "chip": "ym2612"
    },
    {
      "channel": 1,
      "note": 46,
      "start": 67.4174,
      "duration": 0.1128,
      "velocity": 122,
      "chip": "ym2612"
    },
    {
      "channel": 3,
      "note": 58,
      "start": 67.4192,
      "duration": 0.112,
      "velocity": 104,
      "chip": "ym2612"
    },
    {
      "channel": 4,
      "note": 70,
      "start": 67.4209,
      "duration": 0.1111,
      "velocity": 114,
      "chip": "ym2612"
    },
    {
      "channel": 2,
      "note": 102,
      "start": 67.4228,
      "duration": 0.3277,
      "velocity": 115,
      "chip": "ym2612"
    },
    {
      "channel": 5,
      "note": 90,
      "start": 67.4248,
      "duration": 0.1092,
      "velocity": 102,
      "chip": "ym2612"
    },
    {
      "channel": 0,
      "note": 80,
      "start": 67.4267,
      "duration": 0.3258,
      "velocity": 102,
      "chip": "ym2612"
    },
    {
      "channel": 1,
      "note": 46,
      "start": 67.6312,
      "duration": 0.1156,
      "velocity": 122,
      "chip": "ym2612"
    },
    {
      "channel": 3,
      "note": 70,
      "start": 67.633,
      "duration": 0.0314,
      "velocity": 104,
      "chip": "ym2612"
    },
    {
      "channel": 4,
      "note": 78,
      "start": 67.6348,
      "duration": 0.1148,
      "velocity": 114,
      "chip": "ym2612"
    },
    {
      "channel": 5,
      "note": 80,
      "start": 67.6377,
      "duration": 0.313,
      "velocity": 102,
      "chip": "ym2612"
    },
    {
      "channel": 3,
      "note": 70,
      "start": 67.7486,
      "duration": 0.0325,
      "velocity": 104,
      "chip": "ym2612"
    },
    {
      "channel": 1,
      "note": 57,
      "start": 67.8507,
      "duration": 0.3128,
      "velocity": 125,
      "chip": "ym2612"
    },
    {
      "channel": 3,
      "note": 58,
      "start": 67.8525,
      "duration": 0.0952,
      "velocity": 104,
      "chip": "ym2612"
    },
    {
      "channel": 4,
      "note": 70,
      "start": 67.8543,
      "duration": 0.0944,
      "velocity": 114,
      "chip": "ym2612"
    },
    {
      "channel": 2,
      "note": 100,
      "start": 67.8561,
      "duration": 0.3102,
      "velocity": 115,
      "chip": "ym2612"
    },
    {
      "channel": 0,
      "note": 92,
      "start": 67.859,
      "duration": 0.3093,
      "velocity": 102,
      "chip": "ym2612"
    },
    {
      "channel": 3,
      "note": 61,
      "start": 68.0653,
      "duration": 0.3324,
      "velocity": 104,
      "chip": "ym2612"
    },
    {
      "channel": 4,
      "note": 73,
      "start": 68.067,
      "duration": 0.3317,
      "velocity": 114,
      "chip": "ym2612"
    },
    {
      "channel": 5,
      "note": 92,
      "start": 68.0699,
      "duration": 0.33,
      "velocity": 102,
      "chip": "ym2612"
    },
    {
      "channel": 1,
      "note": 46,
      "start": 68.2841,
      "duration": 0.3294,
      "velocity": 122,
      "chip": "ym2612"
    },
    {
      "channel": 0,
      "note": 76,
      "start": 68.2963,
      "duration": 1.1728,
      "velocity": 108,
      "chip": "ym2612"
    },
    {
      "channel": 3,
      "note": 61,
      "start": 68.4986,
      "duration": 0.1158,
      "velocity": 104,
      "chip": "ym2612"
    },
    {
      "channel": 4,
      "note": 73,
      "start": 68.5004,
      "duration": 0.115,
      "velocity": 114,
      "chip": "ym2612"
    },
    {
      "channel": 5,
      "note": 76,
      "start": 68.5056,
      "duration": 1.1776,
      "velocity": 108,
      "chip": "ym2612"
    },
    {
      "channel": 1,
      "note": 57,
      "start": 68.7174,
      "duration": 0.3128,
      "velocity": 125,
      "chip": "ym2612"
    },
    {
      "channel": 3,
      "note": 61,
      "start": 68.7191,
      "duration": 0.112,
      "velocity": 104,
      "chip": "ym2612"
    },
    {
      "channel": 4,
      "note": 80,
      "start": 68.7209,
      "duration": 0.1111,
      "velocity": 114,
      "chip": "ym2612"
    },
    {
      "channel": 2,
      "note": 100,
      "start": 68.7221,
      "duration": 0.111,
      "velocity": 116,
      "chip": "ym2612"
    },
    {
      "channel": 3,
      "note": 61,
      "start": 68.9319,
      "duration": 0.0992,
      "velocity": 104,
      "chip": "ym2612"
    },
    {
      "channel": 4,
      "note": 73,
      "start": 68.9337,
      "duration": 0.0984,
      "velocity": 114,
      "chip": "ym2612"
    },
    {
      "channel": 2,
      "note": 99,
      "start": 68.9357,
      "duration": 0.0974,
      "velocity": 116,
      "chip": "ym2612"
    },
    {
      "channel": 1,
      "note": 46,
      "start": 69.1507,
      "duration": 0.0961,
      "velocity": 122,
      "chip": "ym2612"
    },
    {
      "channel": 3,
      "note": 61,
      "start": 69.1525,
      "duration": 0.0953,
      "velocity": 104,
      "chip": "ym2612"
    },
    {
      "channel": 4,
      "note": 73,
      "start": 69.1542,
      "duration": 0.0945,
      "velocity": 114,
      "chip": "ym2612"
    },
    {
      "channel": 2,
      "note": 100,
      "start": 69.1563,
      "duration": 0.0935,
      "velocity": 116,
      "chip": "ym2612"
    },
    {
      "channel": 1,
      "note": 46,
      "start": 69.3645,
      "duration": 0.099,
      "velocity": 122,
      "chip": "ym2612"
    },
    {
      "channel": 3,
      "note": 73,
      "start": 69.3664,
      "duration": 0.0314,
      "velocity": 104,
      "chip": "ym2612"
    },
    {
      "channel": 4,
      "note": 80,
      "start": 69.3681,
      "duration": 0.0982,
      "velocity": 114,
      "chip": "ym2612"
    },
    {
      "channel": 2,
      "note": 99,
      "start": 69.3701,
      "duration": 0.0971,
      "velocity": 116,
      "chip": "ym2612"
    },
    {
      "channel": 3,
      "note": 73,
      "start": 69.4653,
      "duration": 0.0325,
      "velocity": 104,
      "chip": "ym2612"
    },
    {
      "channel": 1,
      "note": 57,
      "start": 69.5674,
      "duration": 0.3295,
      "velocity": 125,
      "chip": "ym2612"
    },
    {
      "channel": 3,
      "note": 61,
      "start": 69.5692,
      "duration": 0.1119,
      "velocity": 104,
      "chip": "ym2612"
    },
    {
      "channel": 4,
      "note": 73,
      "start": 69.571,
      "duration": 0.1111,
      "velocity": 114,
      "chip": "ym2612"
    },
    {
      "channel": 0,
      "note": 75,
      "start": 69.5749,
      "duration": 0.1092,
      "velocity": 108,
      "chip": "ym2612"
    },
    {
      "channel": 3,
      "note": 59,
      "start": 69.782,
      "duration": 0.3158,
      "velocity": 104,
      "chip": "ym2612"
    },
    {
      "channel": 4,
      "note": 71,
      "start": 69.7837,
      "duration": 0.315,
      "velocity": 114,
      "chip": "ym2612"
    },
    {
      "channel": 2,
      "note": 97,
      "start": 69.7849,
      "duration": 0.3148,
      "velocity": 116,
      "chip": "ym2612"
    },
    {
      "channel": 5,
      "note": 75,
      "start": 69.7867,
      "duration": 0.1139,
      "velocity": 108,
      "chip": "ym2612"
    },
    {
      "channel": 0,
      "note": 76,
      "start": 69.7885,
      "duration": 0.1131,
      "velocity": 108,
      "chip": "ym2612"
    },
    {
      "channel": 1,
      "note": 46,
      "start": 70.0008,
      "duration": 0.3127,
      "velocity": 122,
      "chip": "ym2612"
    },
    {
      "channel": 5,
      "note": 76,
      "start": 70.0054,
      "duration": 0.0953,
      "velocity": 108,
      "chip": "ym2612"
    },
    {
      "channel": 0,
      "note": 78,
      "start": 70.0071,
      "duration": 1.162,
      "velocity": 108,
      "chip": "ym2612"
    },
    {
      "channel": 3,
      "note": 59,
      "start": 70.2153,
      "duration": 0.0992,
      "velocity": 104,
      "chip": "ym2612"
    },
    {
      "channel": 4,
      "note": 71,
      "start": 70.2171,
      "duration": 0.0983,
      "velocity": 114,
      "chip": "ym2612"
    },
    {
      "channel": 5,
      "note": 78,
      "start": 70.2202,
      "duration": 1.163,
      "velocity": 108,
      "chip": "ym2612"
    },
    {
      "channel": 1,
      "note": 57,
      "start": 70.4341,
      "duration": 0.3128,
      "velocity": 125,
      "chip": "ym2612"
    },
    {
      "channel": 3,
      "note": 59,
      "start": 70.4358,
      "duration": 0.0953,
      "velocity": 104,
      "chip": "ym2612"
    },
    {
      "channel": 4,
      "note": 80,
      "start": 70.4376,
      "duration": 0.0945,
      "velocity": 114,
      "chip": "ym2612"
    },
    {
      "channel": 2,
      "note": 100,
      "start": 70.4388,
      "duration": 0.0943,
      "velocity": 116,
      "chip": "ym2612"
    },
    {
      "channel": 3,
      "note": 59,
      "start": 70.6319,
      "duration": 0.1159,
      "velocity": 104,
      "chip": "ym2612"
    },
    {
      "channel": 4,
      "note": 71,
      "start": 70.6337,
      "duration": 0.1151,
      "velocity": 114,
      "chip": "ym2612"
    },
    {
      "channel": 2,
      "note": 99,
      "start": 70.6357,
      "duration": 0.1141,
      "velocity": 116,
      "chip": "ym2612"
    },
    {
      "channel": 1,
      "note": 46,
      "start": 70.8507,
      "duration": 0.1128,
      "velocity": 122,
      "chip": "ym2612"
    },
    {
      "channel": 3,
      "note": 59,
      "start": 70.8525,
      "duration": 0.112,
      "velocity": 104,
      "chip": "ym2612"
    },
    {
      "channel": 4,
      "note": 71,
      "start": 70.8542,
      "duration": 0.1112,
      "velocity": 114,
      "chip": "ym2612"
    },
    {
      "channel": 2,
      "note": 100,
      "start": 70.8563,
      "duration": 0.1102,
      "velocity": 116,
      "chip": "ym2612"
    },
    {
      "channel": 1,
      "note": 46,
      "start": 71.0645,
      "duration": 0.099,
      "velocity": 122,
      "chip": "ym2612"
    },
    {
      "channel": 3,
      "note": 71,
      "start": 71.0664,
      "duration": 0.0314,
      "velocity": 104,
      "chip": "ym2612"
    },
    {
      "channel": 4,
      "note": 80,
      "start": 71.0681,
      "duration": 0.0981,
      "velocity": 114,
      "chip": "ym2612"
    },
    {
      "channel": 2,
      "note": 99,
      "start": 71.0701,
      "duration": 0.0971,
      "velocity": 116,
      "chip": "ym2612"
    },
    {
      "channel": 3,
      "note": 71,
      "start": 71.1653,
      "duration": 0.0492,
      "velocity": 104,
      "chip": "ym2612"
    },
    {
      "channel": 1,
      "note": 57,
      "start": 71.2841,
      "duration": 0.3128,
      "velocity": 125,
      "chip": "ym2612"
    },
    {
      "channel": 3,
      "note": 59,
      "start": 71.2859,
      "duration": 0.0952,
      "velocity": 104,
      "chip": "ym2612"
    },
    {
      "channel": 4,
      "note": 71,
      "start": 71.2876,
      "duration": 0.0944,
      "velocity": 114,
      "chip": "ym2612"
    },
    {
      "channel": 0,
      "note": 76,
      "start": 71.2916,
      "duration": 0.0926,
      "velocity": 108,
      "chip": "ym2612"
    },
    {
      "channel": 3,
      "note": 58,
      "start": 71.4986,
      "duration": 0.3158,
      "velocity": 104,
      "chip": "ym2612"
    },
    {
      "channel": 4,
      "note": 70,
      "start": 71.5003,
      "duration": 0.315,
      "velocity": 114,
      "chip": "ym2612"
    },
    {
      "channel": 2,
      "note": 97,
      "start": 71.5016,
      "duration": 0.3148,
      "velocity": 116,
      "chip": "ym2612"
    },
    {
      "channel": 5,
      "note": 76,
      "start": 71.5034,
      "duration": 0.0972,
      "velocity": 108,
      "chip": "ym2612"
    },
    {
      "channel": 0,
      "note": 78,
      "start": 71.5051,
      "duration": 0.0964,
      "velocity": 108,
      "chip": "ym2612"
    },
    {
      "channel": 1,
      "note": 46,
      "start": 71.7008,
      "duration": 0.3294,
      "velocity": 122,
      "chip": "ym2612"
    },
    {
      "channel": 5,
      "note": 78,
      "start": 71.7054,
      "duration": 0.112,
      "velocity": 108,
      "chip": "ym2612"
    },
    {
      "channel": 0,
      "note": 80,
      "start": 71.7072,
      "duration": 1.1786,
      "velocity": 108,
      "chip": "ym2612"
    },
    {
      "channel": 3,
      "note": 58,
      "start": 71.9153,
      "duration": 0.1158,
      "velocity": 104,
      "chip": "ym2612"
    },
    {
      "channel": 4,
      "note": 70,
      "start": 71.9171,
      "duration": 0.1149,
      "velocity": 114,
      "chip": "ym2612"
    },
    {
      "channel": 5,
      "note": 80,
      "start": 71.9202,
      "duration": 1.1797,
      "velocity": 108,
      "chip": "ym2612"
    },
    {
      "channel": 1,
      "note": 57,
      "start": 72.1341,
      "duration": 0.3128,
      "velocity": 125,
      "chip": "ym2612"
    },
    {
      "channel": 3,
      "note": 58,
      "start": 72.1358,
      "duration": 0.0953,
      "velocity": 104,
      "chip": "ym2612"
    },
    {
      "channel": 4,
      "note": 78,
      "start": 72.1376,
      "duration": 0.0945,
      "velocity": 114,
      "chip": "ym2612"
    },
    {
      "channel": 2,
      "note": 100,
      "start": 72.1388,
      "duration": 0.0943,
      "velocity": 116,
      "chip": "ym2612"
    },
    {
      "channel": 3,
      "note": 58,
      "start": 72.3486,
      "duration": 0.0992,
      "velocity": 104,
      "chip": "ym2612"
    },
    {
      "channel": 4,
      "note": 70,
      "start": 72.3503,
      "duration": 0.0984,
      "velocity": 114,
      "chip": "ym2612"
    },
    {
      "channel": 2,
      "note": 99,
      "start": 72.3524,
      "duration": 0.0974,
      "velocity": 116,
      "chip": "ym2612"
    },
    {
      "channel": 1,
      "note": 46,
      "start": 72.5674,
      "duration": 0.0961,
      "velocity": 122,
      "chip": "ym2612"
    },
    {
      "channel": 3,
      "note": 58,
      "start": 72.5692,
      "duration": 0.0953,
      "velocity": 104,
      "chip": "ym2612"
    },
    {
      "channel": 4,
      "note": 70,
      "start": 72.5709,
      "duration": 0.0945,
      "velocity": 114,
      "chip": "ym2612"
    },
    {
      "channel": 2,
      "note": 100,
      "start": 72.5729,
      "duration": 0.0935,
      "velocity": 116,
      "chip": "ym2612"
    },
    {
      "channel": 1,
      "note": 46,
      "start": 72.7645,
      "duration": 0.1156,
      "velocity": 122,
      "chip": "ym2612"
    },
    {
      "channel": 3,
      "note": 70,
      "start": 72.7664,
      "duration": 0.048,
      "velocity": 104,
      "chip": "ym2612"
    },
    {
      "channel": 4,
      "note": 78,
      "start": 72.7681,
      "duration": 0.1148,
      "velocity": 114,
      "chip": "ym2612"
    },
    {
      "channel": 2,
      "note": 99,
      "start": 72.7701,
      "duration": 0.1138,
      "velocity": 116,
      "chip": "ym2612"
    },
    {
      "channel": 3,
      "note": 70,
      "start": 72.882,
      "duration": 0.0325,
      "velocity": 104,
      "chip": "ym2612"
    },
    {
      "channel": 1,
      "note": 57,
      "start": 72.9841,
      "duration": 0.3128,
      "velocity": 125,
      "chip": "ym2612"
    },
    {
      "channel": 3,
      "note": 58,
      "start": 72.9859,
      "duration": 0.1119,
      "velocity": 104,
      "chip": "ym2612"
    },
    {
      "channel": 4,
      "note": 70,
      "start": 72.9876,
      "duration": 0.1111,
      "velocity": 114,
      "chip": "ym2612"
    },
    {
      "channel": 0,
      "note": 78,
      "start": 72.9916,
      "duration": 0.1092,
      "velocity": 108,
      "chip": "ym2612"
    },
    {
      "channel": 3,
      "note": 57,
      "start": 73.1986,
      "duration": 0.3158,
      "velocity": 104,
      "chip": "ym2612"
    },
    {
      "channel": 4,
      "note": 69,
      "start": 73.2003,
      "duration": 0.315,
      "velocity": 114,
      "chip": "ym2612"
    },
    {
      "channel": 2,
      "note": 102,
      "start": 73.2016,
      "duration": 0.3148,
      "velocity": 116,
      "chip": "ym2612"
    },
    {
      "channel": 5,
      "note": 78,
      "start": 73.2034,
      "duration": 0.0972,
      "velocity": 108,
      "chip": "ym2612"
    },
    {
      "channel": 0,
      "note": 80,
      "start": 73.2051,
      "duration": 0.0964,
      "velocity": 108,
      "chip": "ym2612"
    },
    {
      "channel": 1,
      "note": 46,
      "start": 73.4175,
      "duration": 0.3127,
      "velocity": 122,
      "chip": "ym2612"
    },
    {
      "channel": 5,
      "note": 80,
      "start": 73.422,
      "duration": 0.0953,
      "velocity": 108,
      "chip": "ym2612"
    },
    {
      "channel": 0,
      "note": 81,
      "start": 73.4238,
      "duration": 1.162,
      "velocity": 108,
      "chip": "ym2612"
    },
    {
      "channel": 3,
      "note": 57,
      "start": 73.632,
      "duration": 0.0992,
      "velocity": 104,
      "chip": "ym2612"
    },
    {
      "channel": 4,
      "note": 69,
      "start": 73.6337,
      "duration": 0.0983,
      "velocity": 114,
      "chip": "ym2612"
    },
    {
      "channel": 5,
      "note": 81,
      "start": 73.6369,
      "duration": 1.163,
      "velocity": 108,
      "chip": "ym2612"
    },
    {
      "channel": 1,
      "note": 57,
      "start": 73.8341,
      "duration": 0.3295,
      "velocity": 125,
      "chip": "ym2612"
    },
    {
      "channel": 3,
      "note": 57,
      "start": 73.8358,
      "duration": 0.112,
      "velocity": 104,
      "chip": "ym2612"
    },
    {
      "channel": 4,
      "note": 78,
      "start": 73.8376,
      "duration": 0.1111,
      "velocity": 114,
      "chip": "ym2612"
    },
    {
      "channel": 2,
      "note": 100,
      "start": 73.8388,
      "duration": 0.111,
      "velocity": 116,
      "chip": "ym2612"
    },
    {
      "channel": 3,
      "note": 57,
      "start": 74.0486,
      "duration": 0.1159,
      "velocity": 104,
      "chip": "ym2612"
    },
    {
      "channel": 4,
      "note": 69,
      "start": 74.0503,
      "duration": 0.1151,
      "velocity": 114,
      "chip": "ym2612"
    },
    {
      "channel": 2,
      "note": 99,
      "start": 74.0524,
      "duration": 0.1141,
      "velocity": 116,
      "chip": "ym2612"
    },
    {
      "channel": 1,
      "note": 46,
      "start": 74.2674,
      "duration": 0.0961,
      "velocity": 122,
      "chip": "ym2612"
    },
    {
      "channel": 3,
      "note": 57,
      "start": 74.2692,
      "duration": 0.0953,
      "velocity": 104,
      "chip": "ym2612"
    },
    {
      "channel": 4,
      "note": 69,
      "start": 74.2709,
      "duration": 0.0945,
      "velocity": 114,
      "chip": "ym2612"
    },
    {
      "channel": 2,
      "note": 100,
      "start": 74.2729,
      "duration": 0.0935,
      "velocity": 116,
      "chip": "ym2612"
    },
    {
      "channel": 1,
      "note": 46,
      "start": 74.4812,
      "duration": 0.099,
      "velocity": 122,
      "chip": "ym2612"
    },
    {
      "channel": 3,
      "note": 69,
      "start": 74.483,
      "duration": 0.0314,
      "velocity": 104,
      "chip": "ym2612"
    },
    {
      "channel": 4,
      "note": 78,
      "start": 74.4848,
      "duration": 0.0981,
      "velocity": 114,
      "chip": "ym2612"
    },
    {
      "channel": 2,
      "note": 99,
      "start": 74.4868,
      "duration": 0.0971,
      "velocity": 116,
      "chip": "ym2612"
    },
    {
      "channel": 3,
      "note": 69,
      "start": 74.582,
      "duration": 0.0325,
      "velocity": 104,
      "chip": "ym2612"
    },
    {
      "channel": 1,
      "note": 57,
      "start": 74.7007,
      "duration": 0.3128,
      "velocity": 125,
      "chip": "ym2612"
    },
    {
      "channel": 3,
      "note": 57,
      "start": 74.7025,
      "duration": 0.0952,
      "velocity": 104,
      "chip": "ym2612"
    },
    {
      "channel": 4,
      "note": 69,
      "start": 74.7043,
      "duration": 0.0944,
      "velocity": 114,
      "chip": "ym2612"
    },
    {
      "channel": 0,
      "note": 80,
      "start": 74.7082,
      "duration": 0.0926,
      "velocity": 108,
      "chip": "ym2612"
    },
    {
      "channel": 3,
      "note": 57,
      "start": 74.8986,
      "duration": 0.3324,
      "velocity": 104,
      "chip": "ym2612"
    },
    {
      "channel": 4,
      "note": 69,
      "start": 74.9003,
      "duration": 0.3317,
      "velocity": 114,
      "chip": "ym2612"
    },
    {
      "channel": 2,
      "note": 97,
      "start": 74.9016,
      "duration": 0.3314,
      "velocity": 116,
      "chip": "ym2612"
    },
    {
      "channel": 5,
      "note": 80,
      "start": 74.9034,
      "duration": 0.1139,
      "velocity": 108,
      "chip": "ym2612"
    },
    {
      "channel": 0,
      "note": 78,
      "start": 74.9051,
      "duration": 0.1131,
      "velocity": 108,
      "chip": "ym2612"
    },
    {
      "channel": 1,
      "note": 46,
      "start": 75.1175,
      "duration": 0.3127,
      "velocity": 122,
      "chip": "ym2612"
    },
    {
      "channel": 5,
      "note": 78,
      "start": 75.122,
      "duration": 0.112,
      "velocity": 108,
      "chip": "ym2612"
    },
    {
      "channel": 0,
      "note": 80,
      "start": 75.1238,
      "duration": 1.5943,
      "velocity": 108,
      "chip": "ym2612"
    },
    {
      "channel": 3,
      "note": 57,
      "start": 75.332,
      "duration": 0.0992,
      "velocity": 104,
      "chip": "ym2612"
    },
    {
      "channel": 4,
      "note": 69,
      "start": 75.3337,
      "duration": 0.0983,
      "velocity": 114,
      "chip": "ym2612"
    },
    {
      "channel": 5,
      "note": 80,
      "start": 75.3369,
      "duration": 1.5971,
      "velocity": 108,
      "chip": "ym2612"
    },
    {
      "channel": 1,
      "note": 57,
      "start": 75.5507,
      "duration": 0.3128,
      "velocity": 125,
      "chip": "ym2612"
    },
    {
      "channel": 3,
      "note": 57,
      "start": 75.5524,
      "duration": 0.0953,
      "velocity": 104,
      "chip": "ym2612"
    },
    {
      "channel": 4,
      "note": 76,
      "start": 75.5542,
      "duration": 0.0945,
      "velocity": 114,
      "chip": "ym2612"
    },
    {
      "channel": 2,
      "note": 100,
      "start": 75.5554,
      "duration": 0.0943,
      "velocity": 116,
      "chip": "ym2612"
    },
    {
      "channel": 3,
      "note": 57,
      "start": 75.7653,
      "duration": 0.0992,
      "velocity": 104,
      "chip": "ym2612"
    },
    {
      "channel": 4,
      "note": 69,
      "start": 75.767,
      "duration": 0.0984,
      "velocity": 114,
      "chip": "ym2612"
    },
    {
      "channel": 2,
      "note": 99,
      "start": 75.769,
      "duration": 0.0974,
      "velocity": 116,
      "chip": "ym2612"
    },
    {
      "channel": 1,
      "note": 46,
      "start": 75.9674,
      "duration": 0.1128,
      "velocity": 122,
      "chip": "ym2612"
    },
    {
      "channel": 3,
      "note": 57,
      "start": 75.9692,
      "duration": 0.112,
      "velocity": 104,
      "chip": "ym2612"
    },
    {
      "channel": 4,
      "note": 69,
      "start": 75.9709,
      "duration": 0.1111,
      "velocity": 114,
      "chip": "ym2612"
    },
    {
      "channel": 2,
      "note": 100,
      "start": 75.9729,
      "duration": 0.1102,
      "velocity": 116,
      "chip": "ym2612"
    },
    {
      "channel": 1,
      "note": 46,
      "start": 76.1812,
      "duration": 0.1156,
      "velocity": 122,
      "chip": "ym2612"
    },
    {
      "channel": 3,
      "note": 69,
      "start": 76.183,
      "duration": 0.0314,
      "velocity": 104,
      "chip": "ym2612"
    },
    {
      "channel": 4,
      "note": 76,
      "start": 76.1848,
      "duration": 0.1148,
      "velocity": 114,
      "chip": "ym2612"
    },
    {
      "channel": 2,
      "note": 99,
      "start": 76.1868,
      "duration": 0.1138,
      "velocity": 116,
      "chip": "ym2612"
    },
    {
      "channel": 3,
      "note": 69,
      "start": 76.2986,
      "duration": 0.0325,
      "velocity": 104,
      "chip": "ym2612"
    },
    {
      "channel": 1,
      "note": 57,
      "start": 76.4007,
      "duration": 0.3128,
      "velocity": 125,
      "chip": "ym2612"
    },
    {
      "channel": 3,
      "note": 57,
      "start": 76.4025,
      "duration": 0.0952,
      "velocity": 104,
      "chip": "ym2612"
    },
    {
      "channel": 4,
      "note": 69,
      "start": 76.4043,
      "duration": 0.0944,
      "velocity": 114,
      "chip": "ym2612"
    },
    {
      "channel": 3,
      "note": 56,
      "start": 76.6153,
      "duration": 0.3158,
      "velocity": 104,
      "chip": "ym2612"
    },
    {
      "channel": 4,
      "note": 68,
      "start": 76.617,
      "duration": 0.315,
      "velocity": 114,
      "chip": "ym2612"
    },
    {
      "channel": 2,
      "note": 95,
      "start": 76.6183,
      "duration": 0.3148,
      "velocity": 116,
      "chip": "ym2612"
    },
    {
      "channel": 1,
      "note": 46,
      "start": 76.8341,
      "duration": 0.3127,
      "velocity": 122,
      "chip": "ym2612"
    },
    {
      "channel": 0,
      "note": 78,
      "start": 76.8396,
      "duration": 0.7287,
      "velocity": 108,
      "chip": "ym2612"
    },
    {
      "channel": 3,
      "note": 56,
      "start": 77.032,
      "duration": 0.1158,
      "velocity": 104,
      "chip": "ym2612"
    },
    {
      "channel": 4,
      "note": 68,
      "start": 77.0337,
      "duration": 0.115,
      "velocity": 114,
      "chip": "ym2612"
    },
    {
      "channel": 5,
      "note": 78,
      "start": 77.0369,
      "duration": 0.7472,
      "velocity": 108,
      "chip": "ym2612"
    },
    {
      "channel": 1,
      "note": 57,
      "start": 77.2507,
      "duration": 0.3128,
      "velocity": 125,
      "chip": "ym2612"
    },
    {
      "channel": 3,
      "note": 56,
      "start": 77.2524,
      "duration": 0.112,
      "velocity": 104,
      "chip": "ym2612"
    },
    {
      "channel": 4,
      "note": 75,
      "start": 77.2542,
      "duration": 0.1111,
      "velocity": 114,
      "chip": "ym2612"
    },
    {
      "channel": 2,
      "note": 100,
      "start": 77.2554,
      "duration": 0.111,
      "velocity": 116,
      "chip": "ym2612"
    },
    {
      "channel": 3,
      "note": 56,
      "start": 77.4652,
      "duration": 0.0992,
      "velocity": 104,
      "chip": "ym2612"
    },
    {
      "channel": 4,
      "note": 68,
      "start": 77.467,
      "duration": 0.0984,
      "velocity": 114,
      "chip": "ym2612"
    },
    {
      "channel": 2,
      "note": 99,
      "start": 77.469,
      "duration": 0.0974,
      "velocity": 116,
      "chip": "ym2612"
    },
    {
      "channel": 1,
      "note": 46,
      "start": 77.6841,
      "duration": 0.0961,
      "velocity": 122,
      "chip": "ym2612"
    },
    {
      "channel": 3,
      "note": 56,
      "start": 77.6859,
      "duration": 0.0953,
      "velocity": 104,
      "chip": "ym2612"
    },
    {
      "channel": 4,
      "note": 68,
      "start": 77.6876,
      "duration": 0.0945,
      "velocity": 114,
      "chip": "ym2612"
    },
    {
      "channel": 2,
      "note": 100,
      "start": 77.6896,
      "duration": 0.0935,
      "velocity": 116,
      "chip": "ym2612"
    },
    {
      "channel": 0,
      "note": 81,
      "start": 77.6923,
      "duration": 0.0927,
      "velocity": 108,
      "chip": "ym2612"
    },
    {
      "channel": 1,
      "note": 46,
      "start": 77.8979,
      "duration": 0.099,
      "velocity": 122,
      "chip": "ym2612"
    },
    {
      "channel": 3,
      "note": 68,
      "start": 77.8997,
      "duration": 0.0314,
      "velocity": 104,
      "chip": "ym2612"
    },
    {
      "channel": 4,
      "note": 75,
      "start": 77.9014,
      "duration": 0.0981,
      "velocity": 114,
      "chip": "ym2612"
    },
    {
      "channel": 2,
      "note": 99,
      "start": 77.9035,
      "duration": 0.0971,
      "velocity": 116,
      "chip": "ym2612"
    },
    {
      "channel": 5,
      "note": 81,
      "start": 77.9052,
      "duration": 0.0963,
      "velocity": 108,
      "chip": "ym2612"
    },
    {
      "channel": 0,
      "note": 80,
      "start": 77.907,
      "duration": 0.0955,
      "velocity": 108,
      "chip": "ym2612"
    },
    {
      "channel": 3,
      "note": 68,
      "start": 77.9986,
      "duration": 0.0325,
      "velocity": 104,
      "chip": "ym2612"
    },
    {
      "channel": 1,
      "note": 57,
      "start": 78.1007,
      "duration": 0.3295,
      "velocity": 125,
      "chip": "ym2612"
    },
    {
      "channel": 3,
      "note": 56,
      "start": 78.1025,
      "duration": 0.1119,
      "velocity": 104,
      "chip": "ym2612"
    },
    {
      "channel": 4,
      "note": 68,
      "start": 78.1043,
      "duration": 0.1111,
      "velocity": 114,
      "chip": "ym2612"
    },
    {
      "channel": 5,
      "note": 80,
      "start": 78.1073,
      "duration": 0.1092,
      "velocity": 108,
      "chip": "ym2612"
    },
    {
      "channel": 0,
      "note": 78,
      "start": 78.1091,
      "duration": 0.1084,
      "velocity": 108,
      "chip": "ym2612"
    },
    {
      "channel": 3,
      "note": 61,
      "start": 78.3153,
      "duration": 0.3158,
      "velocity": 104,
      "chip": "ym2612"
    },
    {
      "channel": 4,
      "note": 73,
      "start": 78.3171,
      "duration": 0.3149,
      "velocity": 114,
      "chip": "ym2612"
    },
    {
      "channel": 2,
      "note": 97,
      "start": 78.3183,
      "duration": 0.3148,
      "velocity": 116,
      "chip": "ym2612"
    },
    {
      "channel": 5,
      "note": 78,
      "start": 78.3201,
      "duration": 0.1139,
      "velocity": 108,
      "chip": "ym2612"
    },
    {
      "channel": 0,
      "note": 71,
      "start": 78.3218,
      "duration": 0.1131,
      "velocity": 108,
      "chip": "ym2612"
    },
    {
      "channel": 1,
      "note": 46,
      "start": 78.5341,
      "duration": 0.3127,
      "velocity": 122,
      "chip": "ym2612"
    },
    {
      "channel": 5,
      "note": 71,
      "start": 78.5387,
      "duration": 0.0953,
      "velocity": 108,
      "chip": "ym2612"
    },
    {
      "channel": 0,
      "note": 76,
      "start": 78.5404,
      "duration": 1.162,
      "velocity": 108,
      "chip": "ym2612"
    },
    {
      "channel": 3,
      "note": 61,
      "start": 78.7486,
      "duration": 0.0992,
      "velocity": 104,
      "chip": "ym2612"
    },
    {
      "channel": 4,
      "note": 73,
      "start": 78.7504,
      "duration": 0.0983,
      "velocity": 114,
      "chip": "ym2612"
    },
    {
      "channel": 5,
      "note": 76,
      "start": 78.7535,
      "duration": 1.163,
      "velocity": 108,
      "chip": "ym2612"
    },
    {
      "channel": 1,
      "note": 57,
      "start": 78.9674,
      "duration": 0.3128,
      "velocity": 125,
      "chip": "ym2612"
    },
    {
      "channel": 3,
      "note": 61,
      "start": 78.9691,
      "duration": 0.0953,
      "velocity": 104,
      "chip": "ym2612"
    },
    {
      "channel": 4,
      "note": 80,
      "start": 78.9709,
      "duration": 0.0945,
      "velocity": 114,
      "chip": "ym2612"
    },
    {
      "channel": 2,
      "note": 100,
      "start": 78.9721,
      "duration": 0.0943,
      "velocity": 116,
      "chip": "ym2612"
    },
    {
      "channel": 3,
      "note": 61,
      "start": 79.1652,
      "duration": 0.1159,
      "velocity": 104,
      "chip": "ym2612"
    },
    {
      "channel": 4,
      "note": 73,
      "start": 79.167,
      "duration": 0.1151,
      "velocity": 114,
      "chip": "ym2612"
    },
    {
      "channel": 2,
      "note": 99,
      "start": 79.169,
      "duration": 0.1141,
      "velocity": 116,
      "chip": "ym2612"
    },
    {
      "channel": 1,
      "note": 46,
      "start": 79.3841,
      "duration": 0.1128,
      "velocity": 122,
      "chip": "ym2612"
    },
    {
      "channel": 3,
      "note": 61,
      "start": 79.3859,
      "duration": 0.112,
      "velocity": 104,
      "chip": "ym2612"
    },
    {
      "channel": 4,
      "note": 73,
      "start": 79.3876,
      "duration": 0.1111,
      "velocity": 114,
      "chip": "ym2612"
    },
    {
      "channel": 2,
      "note": 100,
      "start": 79.3896,
      "duration": 0.1102,
      "velocity": 116,
      "chip": "ym2612"
    },
    {
      "channel": 1,
      "note": 46,
      "start": 79.5979,
      "duration": 0.099,
      "velocity": 122,
      "chip": "ym2612"
    },
    {
      "channel": 3,
      "note": 73,
      "start": 79.5997,
      "duration": 0.0314,
      "velocity": 104,
      "chip": "ym2612"
    },
    {
      "channel": 4,
      "note": 80,
      "start": 79.6014,
      "duration": 0.0981,
      "velocity": 114,
      "chip": "ym2612"
    },
    {
      "channel": 2,
      "note": 99,
      "start": 79.6035,
      "duration": 0.0971,
      "velocity": 116,
      "chip": "ym2612"
    },
    {
      "channel": 3,
      "note": 73,
      "start": 79.6986,
      "duration": 0.0492,
      "velocity": 104,
      "chip": "ym2612"
    },
    {
      "channel": 1,
      "note": 57,
      "start": 79.8174,
      "duration": 0.3128,
      "velocity": 125,
      "chip": "ym2612"
    },
    {
      "channel": 3,
      "note": 61,
      "start": 79.8192,
      "duration": 0.0952,
      "velocity": 104,
      "chip": "ym2612"
    },
    {
      "channel": 4,
      "note": 73,
      "start": 79.821,
      "duration": 0.0944,
      "velocity": 114,
      "chip": "ym2612"
    },
    {
      "channel": 0,
      "note": 75,
      "start": 79.8249,
      "duration": 0.0926,
      "velocity": 108,
      "chip": "ym2612"
    },
    {
      "channel": 3,
      "note": 59,
      "start": 80.032,
      "duration": 0.3158,
      "velocity": 104,
      "chip": "ym2612"
    },
    {
      "channel": 4,
      "note": 71,
      "start": 80.0337,
      "duration": 0.315,
      "velocity": 114,
      "chip": "ym2612"
    },
    {
      "channel": 2,
      "note": 97,
      "start": 80.0349,
      "duration": 0.3148,
      "velocity": 116,
      "chip": "ym2612"
    },
    {
      "channel": 5,
      "note": 75,
      "start": 80.0367,
      "duration": 0.0972,
      "velocity": 108,
      "chip": "ym2612"
    },
    {
      "channel": 0,
      "note": 76,
      "start": 80.0385,
      "duration": 0.0964,
      "velocity": 108,
      "chip": "ym2612"
    },
    {
      "channel": 1,
      "note": 46,
      "start": 80.2341,
      "duration": 0.3294,
      "velocity": 122,
      "chip": "ym2612"
    },
    {
      "channel": 5,
      "note": 76,
      "start": 80.2387,
      "duration": 0.112,
      "velocity": 108,
      "chip": "ym2612"
    },
    {
      "channel": 0,
      "note": 78,
      "start": 80.2405,
      "duration": 1.1786,
      "velocity": 108,
      "chip": "ym2612"
    },
    {
      "channel": 3,
      "note": 59,
      "start": 80.4486,
      "duration": 0.1158,
      "velocity": 104,
      "chip": "ym2612"
    },
    {
      "channel": 4,
      "note": 71,
      "start": 80.4504,
      "duration": 0.115,
      "velocity": 114,
      "chip": "ym2612"
    },
    {
      "channel": 5,
      "note": 78,
      "start": 80.4535,
      "duration": 1.1797,
      "velocity": 108,
      "chip": "ym2612"
    },
    {
      "channel": 1,
      "note": 57,
      "start": 80.6674,
      "duration": 0.3128,
      "velocity": 125,
      "chip": "ym2612"
    },
    {
      "channel": 3,
      "note": 59,
      "start": 80.6691,
      "duration": 0.0953,
      "velocity": 104,
      "chip": "ym2612"
    },
    {
      "channel": 4,
      "note": 80,
      "start": 80.6709,
      "duration": 0.0945,
      "velocity": 114,
      "chip": "ym2612"
    },
    {
      "channel": 2,
      "note": 100,
      "start": 80.6721,
      "duration": 0.0943,
      "velocity": 116,
      "chip": "ym2612"
    },
    {
      "channel": 3,
      "note": 59,
      "start": 80.8819,
      "duration": 0.0992,
      "velocity": 104,
      "chip": "ym2612"
    },
    {
      "channel": 4,
      "note": 71,
      "start": 80.8837,
      "duration": 0.0984,
      "velocity": 114,
      "chip": "ym2612"
    },
    {
      "channel": 2,
      "note": 99,
      "start": 80.8857,
      "duration": 0.0974,
      "velocity": 116,
      "chip": "ym2612"
    },
    {
      "channel": 1,
      "note": 46,
      "start": 81.1007,
      "duration": 0.0961,
      "velocity": 122,
      "chip": "ym2612"
    },
    {
      "channel": 3,
      "note": 59,
      "start": 81.1025,
      "duration": 0.0953,
      "velocity": 104,
      "chip": "ym2612"
    },
    {
      "channel": 4,
      "note": 71,
      "start": 81.1042,
      "duration": 0.0945,
      "velocity": 114,
      "chip": "ym2612"
    },
    {
      "channel": 2,
      "note": 100,
      "start": 81.1063,
      "duration": 0.0935,
      "velocity": 116,
      "chip": "ym2612"
    },
    {
      "channel": 1,
      "note": 46,
      "start": 81.2979,
      "duration": 0.1156,
      "velocity": 122,
      "chip": "ym2612"
    },
    {
      "channel": 3,
      "note": 71,
      "start": 81.2997,
      "duration": 0.048,
      "velocity": 104,
      "chip": "ym2612"
    },
    {
      "channel": 4,
      "note": 80,
      "start": 81.3014,
      "duration": 0.1148,
      "velocity": 114,
      "chip": "ym2612"
    },
    {
      "channel": 2,
      "note": 99,
      "start": 81.3035,
      "duration": 0.1138,
      "velocity": 116,
      "chip": "ym2612"
    },
    {
      "channel": 3,
      "note": 71,
      "start": 81.4153,
      "duration": 0.0325,
      "velocity": 104,
      "chip": "ym2612"
    },
    {
      "channel": 1,
      "note": 57,
      "start": 81.5174,
      "duration": 0.3128,
      "velocity": 125,
      "chip": "ym2612"
    },
    {
      "channel": 3,
      "note": 59,
      "start": 81.5192,
      "duration": 0.1119,
      "velocity": 104,
      "chip": "ym2612"
    },
    {
      "channel": 4,
      "note": 71,
      "start": 81.521,
      "duration": 0.1111,
      "velocity": 114,
      "chip": "ym2612"
    },
    {
      "channel": 0,
      "note": 76,
      "start": 81.5249,
      "duration": 0.1092,
      "velocity": 108,
      "chip": "ym2612"
    },
    {
      "channel": 3,
      "note": 58,
      "start": 81.732,
      "duration": 0.3158,
      "velocity": 104,
      "chip": "ym2612"
    },
    {
      "channel": 4,
      "note": 70,
      "start": 81.7337,
      "duration": 0.315,
      "velocity": 114,
      "chip": "ym2612"
    },
    {
      "channel": 2,
      "note": 97,
      "start": 81.7349,
      "duration": 0.3148,
      "velocity": 116,
      "chip": "ym2612"
    },
    {
      "channel": 5,
      "note": 76,
      "start": 81.7367,
      "duration": 0.0972,
      "velocity": 108,
      "chip": "ym2612"
    },
    {
      "channel": 0,
      "note": 78,
      "start": 81.7385,
      "duration": 0.0964,
      "velocity": 108,
      "chip": "ym2612"
    },
    {
      "channel": 1,
      "note": 46,
      "start": 81.9508,
      "duration": 0.3127,
      "velocity": 122,
      "chip": "ym2612"
    },
    {
      "channel": 5,
      "note": 78,
      "start": 81.9554,
      "duration": 0.0953,
      "velocity": 108,
      "chip": "ym2612"
    },
    {
      "channel": 0,
      "note": 80,
      "start": 81.9571,
      "duration": 1.162,
      "velocity": 108,
      "chip": "ym2612"
    },
    {
      "channel": 3,
      "note": 58,
      "start": 82.1653,
      "duration": 0.0992,
      "velocity": 104,
      "chip": "ym2612"
    },
    {
      "channel": 4,
      "note": 70,
      "start": 82.1671,
      "duration": 0.0983,
      "velocity": 114,
      "chip": "ym2612"
    },
    {
      "channel": 5,
      "note": 80,
      "start": 82.1702,
      "duration": 1.163,
      "velocity": 108,
      "chip": "ym2612"
    },
    {
      "channel": 1,
      "note": 57,
      "start": 82.3674,
      "duration": 0.3295,
      "velocity": 125,
      "chip": "ym2612"
    },
    {
      "channel": 3,
      "note": 58,
      "start": 82.3691,
      "duration": 0.112,
      "velocity": 104,
      "chip": "ym2612"
    },
    {
      "channel": 4,
      "note": 78,
      "start": 82.3709,
      "duration": 0.1111,
      "velocity": 114,
      "chip": "ym2612"
    },
    {
      "channel": 2,
      "note": 100,
      "start": 82.3721,
      "duration": 0.111,
      "velocity": 116,
      "chip": "ym2612"
    },
    {
      "channel": 3,
      "note": 58,
      "start": 82.5819,
      "duration": 0.1159,
      "velocity": 104,
      "chip": "ym2612"
    },
    {
      "channel": 4,
      "note": 70,
      "start": 82.5837,
      "duration": 0.1151,
      "velocity": 114,
      "chip": "ym2612"
    },
    {
      "channel": 2,
      "note": 99,
      "start": 82.5857,
      "duration": 0.1141,
      "velocity": 116,
      "chip": "ym2612"
    },
    {
      "channel": 1,
      "note": 46,
      "start": 82.8007,
      "duration": 0.0961,
      "velocity": 122,
      "chip": "ym2612"
    },
    {
      "channel": 3,
      "note": 58,
      "start": 82.8025,
      "duration": 0.0953,
      "velocity": 104,
      "chip": "ym2612"
    },
    {
      "channel": 4,
      "note": 70,
      "start": 82.8042,
      "duration": 0.0945,
      "velocity": 114,
      "chip": "ym2612"
    },
    {
      "channel": 2,
      "note": 100,
      "start": 82.8063,
      "duration": 0.0935,
      "velocity": 116,
      "chip": "ym2612"
    },
    {
      "channel": 1,
      "note": 46,
      "start": 83.0145,
      "duration": 0.099,
      "velocity": 122,
      "chip": "ym2612"
    },
    {
      "channel": 3,
      "note": 70,
      "start": 83.0164,
      "duration": 0.0314,
      "velocity": 104,
      "chip": "ym2612"
    },
    {
      "channel": 4,
      "note": 78,
      "start": 83.0181,
      "duration": 0.0982,
      "velocity": 114,
      "chip": "ym2612"
    },
    {
      "channel": 2,
      "note": 99,
      "start": 83.0201,
      "duration": 0.0971,
      "velocity": 116,
      "chip": "ym2612"
    },
    {
      "channel": 3,
      "note": 70,
      "start": 83.1153,
      "duration": 0.0325,
      "velocity": 104,
      "chip": "ym2612"
    },
    {
      "channel": 1,
      "note": 57,
      "start": 83.2341,
      "duration": 0.3128,
      "velocity": 125,
      "chip": "ym2612"
    },
    {
      "channel": 3,
      "note": 58,
      "start": 83.2359,
      "duration": 0.0952,
      "velocity": 104,
      "chip": "ym2612"
    },
    {
      "channel": 4,
      "note": 70,
      "start": 83.2376,
      "duration": 0.0944,
      "velocity": 114,
      "chip": "ym2612"
    },
    {
      "channel": 0,
      "note": 78,
      "start": 83.2416,
      "duration": 0.0926,
      "velocity": 108,
      "chip": "ym2612"
    },
    {
      "channel": 3,
      "note": 57,
      "start": 83.432,
      "duration": 0.3324,
      "velocity": 104,
      "chip": "ym2612"
    },
    {
      "channel": 4,
      "note": 69,
      "start": 83.4337,
      "duration": 0.3317,
      "velocity": 114,
      "chip": "ym2612"
    },
    {
      "channel": 2,
      "note": 102,
      "start": 83.4349,
      "duration": 0.3314,
      "velocity": 116,
      "chip": "ym2612"
    },
    {
      "channel": 5,
      "note": 78,
      "start": 83.4367,
      "duration": 0.1139,
      "velocity": 108,
      "chip": "ym2612"
    },
    {
      "channel": 0,
      "note": 80,
      "start": 83.4385,
      "duration": 0.1131,
      "velocity": 108,
      "chip": "ym2612"
    },
    {
      "channel": 1,
      "note": 46,
      "start": 83.6508,
      "duration": 0.3127,
      "velocity": 122,
      "chip": "ym2612"
    },
    {
      "channel": 5,
      "note": 80,
      "start": 83.6554,
      "duration": 0.112,
      "velocity": 108,
      "chip": "ym2612"
    },
    {
      "channel": 0,
      "note": 81,
      "start": 83.6572,
      "duration": 1.1786,
      "velocity": 108,
      "chip": "ym2612"
    },
    {
      "channel": 3,
      "note": 57,
      "start": 83.8653,
      "duration": 0.0992,
      "velocity": 104,
      "chip": "ym2612"
    },
    {
      "channel": 4,
      "note": 69,
      "start": 83.8671,
      "duration": 0.0983,
      "velocity": 114,
      "chip": "ym2612"
    },
    {
      "channel": 5,
      "note": 81,
      "start": 83.8702,
      "duration": 1.163,
      "velocity": 108,
      "chip": "ym2612"
    },
    {
      "channel": 1,
      "note": 57,
      "start": 84.0841,
      "duration": 0.3128,
      "velocity": 125,
      "chip": "ym2612"
    },
    {
      "channel": 3,
      "note": 57,
      "start": 84.0858,
      "duration": 0.0953,
      "velocity": 104,
      "chip": "ym2612"
    },
    {
      "channel": 4,
      "note": 78,
      "start": 84.0876,
      "duration": 0.0945,
      "velocity": 114,
      "chip": "ym2612"
    },
    {
      "channel": 2,
      "note": 100,
      "start": 84.0888,
      "duration": 0.0943,
      "velocity": 116,
      "chip": "ym2612"
    },
    {
      "channel": 3,
      "note": 57,
      "start": 84.2986,
      "duration": 0.0992,
      "velocity": 104,
      "chip": "ym2612"
    },
    {
      "channel": 4,
      "note": 69,
      "start": 84.3003,
      "duration": 0.0984,
      "velocity": 114,
      "chip": "ym2612"
    },
    {
      "channel": 2,
      "note": 99,
      "start": 84.3024,
      "duration": 0.0974,
      "velocity": 116,
      "chip": "ym2612"
    },
    {
      "channel": 1,
      "note": 46,
      "start": 84.5007,
      "duration": 0.1128,
      "velocity": 122,
      "chip": "ym2612"
    },
    {
      "channel": 3,
      "note": 57,
      "start": 84.5025,
      "duration": 0.112,
      "velocity": 104,
      "chip": "ym2612"
    },
    {
      "channel": 4,
      "note": 69,
      "start": 84.5042,
      "duration": 0.1112,
      "velocity": 114,
      "chip": "ym2612"
    },
    {
      "channel": 2,
      "note": 100,
      "start": 84.5063,
      "duration": 0.1102,
      "velocity": 116,
      "chip": "ym2612"
    },
    {
      "channel": 1,
      "note": 46,
      "start": 84.7145,
      "duration": 0.1156,
      "velocity": 122,
      "chip": "ym2612"
    },
    {
      "channel": 3,
      "note": 69,
      "start": 84.7164,
      "duration": 0.0314,
      "velocity": 104,
      "chip": "ym2612"
    },
    {
      "channel": 4,
      "note": 78,
      "start": 84.7181,
      "duration": 0.1148,
      "velocity": 114,
      "chip": "ym2612"
    },
    {
      "channel": 2,
      "note": 99,
      "start": 84.7201,
      "duration": 0.1138,
      "velocity": 116,
      "chip": "ym2612"
    },
    {
      "channel": 3,
      "note": 69,
      "start": 84.832,
      "duration": 0.0325,
      "velocity": 104,
      "chip": "ym2612"
    },
    {
      "channel": 1,
      "note": 57,
      "start": 84.9341,
      "duration": 0.3128,
      "velocity": 125,
      "chip": "ym2612"
    },
    {
      "channel": 3,
      "note": 57,
      "start": 84.9359,
      "duration": 0.0952,
      "velocity": 104,
      "chip": "ym2612"
    },
    {
      "channel": 4,
      "note": 69,
      "start": 84.9376,
      "duration": 0.0944,
      "velocity": 114,
      "chip": "ym2612"
    },
    {
      "channel": 0,
      "note": 80,
      "start": 84.9416,
      "duration": 0.0926,
      "velocity": 108,
      "chip": "ym2612"
    },
    {
      "channel": 3,
      "note": 57,
      "start": 85.1486,
      "duration": 0.3158,
      "velocity": 104,
      "chip": "ym2612"
    },
    {
      "channel": 4,
      "note": 69,
      "start": 85.1503,
      "duration": 0.315,
      "velocity": 114,
      "chip": "ym2612"
    },
    {
      "channel": 2,
      "note": 97,
      "start": 85.1516,
      "duration": 0.3148,
      "velocity": 116,
      "chip": "ym2612"
    },
    {
      "channel": 5,
      "note": 80,
      "start": 85.1534,
      "duration": 0.0972,
      "velocity": 108,
      "chip": "ym2612"
    },
    {
      "channel": 0,
      "note": 78,
      "start": 85.1551,
      "duration": 0.0964,
      "velocity": 108,
      "chip": "ym2612"
    },
    {
      "channel": 1,
      "note": 46,
      "start": 85.3675,
      "duration": 0.3127,
      "velocity": 122,
      "chip": "ym2612"
    },
    {
      "channel": 5,
      "note": 78,
      "start": 85.372,
      "duration": 0.0953,
      "velocity": 108,
      "chip": "ym2612"
    },
    {
      "channel": 0,
      "note": 80,
      "start": 85.3738,
      "duration": 1.5944,
      "velocity": 108,
      "chip": "ym2612"
    },
    {
      "channel": 3,
      "note": 57,
      "start": 85.5653,
      "duration": 0.1158,
      "velocity": 104,
      "chip": "ym2612"
    },
    {
      "channel": 4,
      "note": 69,
      "start": 85.5671,
      "duration": 0.115,
      "velocity": 114,
      "chip": "ym2612"
    },
    {
      "channel": 5,
      "note": 80,
      "start": 85.5702,
      "duration": 1.5971,
      "velocity": 108,
      "chip": "ym2612"
    },
    {
      "channel": 1,
      "note": 57,
      "start": 85.7841,
      "duration": 0.3128,
      "velocity": 125,
      "chip": "ym2612"
    },
    {
      "channel": 3,
      "note": 57,
      "start": 85.7858,
      "duration": 0.112,
      "velocity": 104,
      "chip": "ym2612"
    },
    {
      "channel": 4,
      "note": 76,
      "start": 85.7876,
      "duration": 0.1111,
      "velocity": 114,
      "chip": "ym2612"
    },
    {
      "channel": 2,
      "note": 100,
      "start": 85.7888,
      "duration": 0.111,
      "velocity": 116,
      "chip": "ym2612"
    },
    {
      "channel": 3,
      "note": 57,
      "start": 85.9986,
      "duration": 0.0992,
      "velocity": 104,
      "chip": "ym2612"
    },
    {
      "channel": 4,
      "note": 69,
      "start": 86.0003,
      "duration": 0.0984,
      "velocity": 114,
      "chip": "ym2612"
    },
    {
      "channel": 2,
      "note": 99,
      "start": 86.0024,
      "duration": 0.0974,
      "velocity": 116,
      "chip": "ym2612"
    },
    {
      "channel": 1,
      "note": 46,
      "start": 86.2174,
      "duration": 0.0961,
      "velocity": 122,
      "chip": "ym2612"
    },
    {
      "channel": 3,
      "note": 57,
      "start": 86.2192,
      "duration": 0.0953,
      "velocity": 104,
      "chip": "ym2612"
    },
    {
      "channel": 4,
      "note": 69,
      "start": 86.2209,
      "duration": 0.0945,
      "velocity": 114,
      "chip": "ym2612"
    },
    {
      "channel": 2,
      "note": 100,
      "start": 86.2229,
      "duration": 0.0935,
      "velocity": 116,
      "chip": "ym2612"
    },
    {
      "channel": 1,
      "note": 46,
      "start": 86.4312,
      "duration": 0.099,
      "velocity": 122,
      "chip": "ym2612"
    },
    {
      "channel": 3,
      "note": 69,
      "start": 86.433,
      "duration": 0.0314,
      "velocity": 104,
      "chip": "ym2612"
    },
    {
      "channel": 4,
      "note": 76,
      "start": 86.4348,
      "duration": 0.0981,
      "velocity": 114,
      "chip": "ym2612"
    },
    {
      "channel": 2,
      "note": 99,
      "start": 86.4368,
      "duration": 0.0971,
      "velocity": 116,
      "chip": "ym2612"
    },
    {
      "channel": 3,
      "note": 69,
      "start": 86.532,
      "duration": 0.0325,
      "velocity": 104,
      "chip": "ym2612"
    },
    {
      "channel": 1,
      "note": 57,
      "start": 86.6341,
      "duration": 0.3295,
      "velocity": 125,
      "chip": "ym2612"
    },
    {
      "channel": 3,
      "note": 57,
      "start": 86.6359,
      "duration": 0.1119,
      "velocity": 104,
      "chip": "ym2612"
    },
    {
      "channel": 4,
      "note": 69,
      "start": 86.6376,
      "duration": 0.1111,
      "velocity": 114,
      "chip": "ym2612"
    },
    {
      "channel": 3,
      "note": 56,
      "start": 86.8486,
      "duration": 0.3158,
      "velocity": 104,
      "chip": "ym2612"
    },
    {
      "channel": 4,
      "note": 68,
      "start": 86.8503,
      "duration": 0.315,
      "velocity": 114,
      "chip": "ym2612"
    },
    {
      "channel": 2,
      "note": 95,
      "start": 86.8516,
      "duration": 0.3148,
      "velocity": 116,
      "chip": "ym2612"
    },
    {
      "channel": 1,
      "note": 46,
      "start": 87.0675,
      "duration": 0.3127,
      "velocity": 122,
      "chip": "ym2612"
    },
    {
      "channel": 0,
      "note": 78,
      "start": 87.0729,
      "duration": 0.7454,
      "velocity": 108,
      "chip": "ym2612"
    },
    {
      "channel": 3,
      "note": 56,
      "start": 87.282,
      "duration": 0.0992,
      "velocity": 104,
      "chip": "ym2612"
    },
    {
      "channel": 4,
      "note": 68,
      "start": 87.2837,
      "duration": 0.0983,
      "velocity": 114,
      "chip": "ym2612"
    },
    {
      "channel": 5,
      "note": 78,
      "start": 87.2869,
      "duration": 0.7472,
      "velocity": 108,
      "chip": "ym2612"
    },
    {
      "channel": 1,
      "note": 57,
      "start": 87.5007,
      "duration": 0.3128,
      "velocity": 125,
      "chip": "ym2612"
    },
    {
      "channel": 3,
      "note": 56,
      "start": 87.5024,
      "duration": 0.0953,
      "velocity": 104,
      "chip": "ym2612"
    },
    {
      "channel": 4,
      "note": 75,
      "start": 87.5042,
      "duration": 0.0945,
      "velocity": 114,
      "chip": "ym2612"
    },
    {
      "channel": 2,
      "note": 100,
      "start": 87.5054,
      "duration": 0.0943,
      "velocity": 116,
      "chip": "ym2612"
    },
    {
      "channel": 3,
      "note": 56,
      "start": 87.6986,
      "duration": 0.1159,
      "velocity": 104,
      "chip": "ym2612"
    },
    {
      "channel": 4,
      "note": 68,
      "start": 87.7003,
      "duration": 0.1151,
      "velocity": 114,
      "chip": "ym2612"
    },
    {
      "channel": 2,
      "note": 99,
      "start": 87.7024,
      "duration": 0.1141,
      "velocity": 116,
      "chip": "ym2612"
    },
    {
      "channel": 1,
      "note": 46,
      "start": 87.9174,
      "duration": 0.1128,
      "velocity": 122,
      "chip": "ym2612"
    },
    {
      "channel": 3,
      "note": 56,
      "start": 87.9192,
      "duration": 0.112,
      "velocity": 104,
      "chip": "ym2612"
    },
    {
      "channel": 4,
      "note": 68,
      "start": 87.921,
      "duration": 0.1111,
      "velocity": 114,
      "chip": "ym2612"
    },
    {
      "channel": 2,
      "note": 100,
      "start": 87.923,
      "duration": 0.1101,
      "velocity": 116,
      "chip": "ym2612"
    },
    {
      "channel": 0,
      "note": 76,
      "start": 87.9256,
      "duration": 0.1093,
      "velocity": 108,
      "chip": "ym2612"
    },
    {
      "channel": 1,
      "note": 46,
      "start": 88.1312,
      "duration": 0.099,
      "velocity": 122,
      "chip": "ym2612"
    },
    {
      "channel": 3,
      "note": 68,
      "start": 88.133,
      "duration": 0.0314,
      "velocity": 104,
      "chip": "ym2612"
    },
    {
      "channel": 4,
      "note": 75,
      "start": 88.1348,
      "duration": 0.0981,
      "velocity": 114,
      "chip": "ym2612"
    },
    {
      "channel": 2,
      "note": 99,
      "start": 88.1368,
      "duration": 0.0971,
      "velocity": 116,
      "chip": "ym2612"
    },
    {
      "channel": 5,
      "note": 76,
      "start": 88.1386,
      "duration": 0.0963,
      "velocity": 108,
      "chip": "ym2612"
    },
    {
      "channel": 0,
      "note": 78,
      "start": 88.1403,
      "duration": 0.0955,
      "velocity": 108,
      "chip": "ym2612"
    },
    {
      "channel": 3,
      "note": 68,
      "start": 88.232,
      "duration": 0.0492,
      "velocity": 104,
      "chip": "ym2612"
    },
    {
      "channel": 1,
      "note": 57,
      "start": 88.3507,
      "duration": 0.3128,
      "velocity": 125,
      "chip": "ym2612"
    },
    {
      "channel": 3,
      "note": 56,
      "start": 88.3525,
      "duration": 0.0952,
      "velocity": 104,
      "chip": "ym2612"
    },
    {
      "channel": 4,
      "note": 68,
      "start": 88.3543,
      "duration": 0.0944,
      "velocity": 114,
      "chip": "ym2612"
    },
    {
      "channel": 5,
      "note": 78,
      "start": 88.3573,
      "duration": 0.0926,
      "velocity": 108,
      "chip": "ym2612"
    },
    {
      "channel": 0,
      "note": 76,
      "start": 88.3591,
      "duration": 0.0917,
      "velocity": 108,
      "chip": "ym2612"
    },
    {
      "channel": 3,
      "note": 49,
      "start": 88.5652,
      "duration": 0.0992,
      "velocity": 104,
      "chip": "ym2612"
    },
    {
      "channel": 4,
      "note": 61,
      "start": 88.567,
      "duration": 0.0984,
      "velocity": 114,
      "chip": "ym2612"
    },
    {
      "channel": 2,
      "note": 97,
      "start": 88.5682,
      "duration": 0.0982,
      "velocity": 116,
      "chip": "ym2612"
    },
    {
      "channel": 5,
      "note": 76,
      "start": 88.57,
      "duration": 0.0974,
      "velocity": 108,
      "chip": "ym2612"
    },
    {
      "channel": 0,
      "note": 75,
      "start": 88.5717,
      "duration": 0.0966,
      "velocity": 108,
      "chip": "ym2612"
    },
    {
      "channel": 1,
      "note": 46,
      "start": 88.7675,
      "duration": 0.3461,
      "velocity": 122,
      "chip": "ym2612"
    },
    {
      "channel": 3,
      "note": 49,
      "start": 88.7694,
      "duration": 0.1284,
      "velocity": 104,
      "chip": "ym2612"
    },
    {
      "channel": 4,
      "note": 73,
      "start": 88.7712,
      "duration": 0.3442,
      "velocity": 114,
      "chip": "ym2612"
    },
    {
      "channel": 2,
      "note": 92,
      "start": 88.7762,
      "duration": 0.3401,
      "velocity": 114,
      "chip": "ym2612"
    },
    {
      "channel": 5,
      "note": 75,
      "start": 88.778,
      "duration": 0.1224,
      "velocity": 108,
      "chip": "ym2612"
    },
    {
      "channel": 3,
      "note": 49,
      "start": 88.9986,
      "duration": 0.1159,
      "velocity": 104,
      "chip": "ym2612"
    },
    {
      "channel": 1,
      "note": 57,
      "start": 89.2174,
      "duration": 0.3128,
      "velocity": 125,
      "chip": "ym2612"
    },
    {
      "channel": 3,
      "note": 49,
      "start": 89.2191,
      "duration": 0.0953,
      "velocity": 104,
      "chip": "ym2612"
    },
    {
      "channel": 4,
      "note": 61,
      "start": 89.2209,
      "duration": 0.0945,
      "velocity": 114,
      "chip": "ym2612"
    },
    {
      "channel": 2,
      "note": 80,
      "start": 89.2227,
      "duration": 0.0936,
      "velocity": 114,
      "chip": "ym2612"
    },
    {
      "channel": 3,
      "note": 49,
      "start": 89.4319,
      "duration": 0.0992,
      "velocity": 104,
      "chip": "ym2612"
    },
    {
      "channel": 4,
      "note": 61,
      "start": 89.4337,
      "duration": 0.0984,
      "velocity": 114,
      "chip": "ym2612"
    },
    {
      "channel": 2,
      "note": 80,
      "start": 89.4354,
      "duration": 0.0976,
      "velocity": 114,
      "chip": "ym2612"
    },
    {
      "channel": 1,
      "note": 46,
      "start": 89.6507,
      "duration": 0.0961,
      "velocity": 122,
      "chip": "ym2612"
    },
    {
      "channel": 3,
      "note": 49,
      "start": 89.6525,
      "duration": 0.0953,
      "velocity": 104,
      "chip": "ym2612"
    },
    {
      "channel": 4,
      "note": 61,
      "start": 89.6542,
      "duration": 0.0945,
      "velocity": 114,
      "chip": "ym2612"
    },
    {
      "channel": 2,
      "note": 80,
      "start": 89.6559,
      "duration": 0.0937,
      "velocity": 114,
      "chip": "ym2612"
    },
    {
      "channel": 1,
      "note": 46,
      "start": 89.8479,
      "duration": 0.1156,
      "velocity": 122,
      "chip": "ym2612"
    },
    {
      "channel": 3,
      "note": 61,
      "start": 89.8497,
      "duration": 0.048,
      "velocity": 104,
      "chip": "ym2612"
    },
    {
      "channel": 4,
      "note": 61,
      "start": 89.8514,
      "duration": 0.1148,
      "velocity": 114,
      "chip": "ym2612"
    },
    {
      "channel": 2,
      "note": 80,
      "start": 89.8532,
      "duration": 0.114,
      "velocity": 114,
      "chip": "ym2612"
    },
    {
      "channel": 3,
      "note": 61,
      "start": 89.9653,
      "duration": 0.0325,
      "velocity": 104,
      "chip": "ym2612"
    },
    {
      "channel": 1,
      "note": 57,
      "start": 90.0674,
      "duration": 0.3128,
      "velocity": 125,
      "chip": "ym2612"
    },
    {
      "channel": 3,
      "note": 49,
      "start": 90.0692,
      "duration": 0.1119,
      "velocity": 104,
      "chip": "ym2612"
    },
    {
      "channel": 4,
      "note": 61,
      "start": 90.071,
      "duration": 0.1111,
      "velocity": 114,
      "chip": "ym2612"
    },
    {
      "channel": 2,
      "note": 80,
      "start": 90.0727,
      "duration": 0.1102,
      "velocity": 114,
      "chip": "ym2612"
    },
    {
      "channel": 3,
      "note": 49,
      "start": 90.2819,
      "duration": 0.0992,
      "velocity": 104,
      "chip": "ym2612"
    },
    {
      "channel": 4,
      "note": 70,
      "start": 90.2837,
      "duration": 0.5317,
      "velocity": 114,
      "chip": "ym2612"
    },
    {
      "channel": 2,
      "note": 90,
      "start": 90.2855,
      "duration": 0.5308,
      "velocity": 114,
      "chip": "ym2612"
    },
    {
      "channel": 1,
      "note": 46,
      "start": 90.5008,
      "duration": 0.3127,
      "velocity": 122,
      "chip": "ym2612"
    },
    {
      "channel": 3,
      "note": 49,
      "start": 90.5026,
      "duration": 0.0951,
      "velocity": 104,
      "chip": "ym2612"
    },
    {
      "channel": 3,
      "note": 49,
      "start": 90.7152,
      "duration": 0.0992,
      "velocity": 104,
      "chip": "ym2612"
    },
    {
      "channel": 1,
      "note": 57,
      "start": 90.9174,
      "duration": 0.3295,
      "velocity": 125,
      "chip": "ym2612"
    },
    {
      "channel": 3,
      "note": 49,
      "start": 90.9191,
      "duration": 0.112,
      "velocity": 104,
      "chip": "ym2612"
    },
    {
      "channel": 4,
      "note": 61,
      "start": 90.9209,
      "duration": 0.1111,
      "velocity": 114,
      "chip": "ym2612"
    },
    {
      "channel": 2,
      "note": 80,
      "start": 90.9227,
      "duration": 0.1102,
      "velocity": 114,
      "chip": "ym2612"
    },
    {
      "channel": 3,
      "note": 49,
      "start": 91.1319,
      "duration": 0.1159,
      "velocity": 104,
      "chip": "ym2612"
    },
    {
      "channel": 4,
      "note": 61,
      "start": 91.1337,
      "duration": 0.1151,
      "velocity": 114,
      "chip": "ym2612"
    },
    {
      "channel": 2,
      "note": 80,
      "start": 91.1354,
      "duration": 0.1142,
      "velocity": 114,
      "chip": "ym2612"
    },
    {
      "channel": 1,
      "note": 46,
      "start": 91.3507,
      "duration": 0.0961,
      "velocity": 122,
      "chip": "ym2612"
    },
    {
      "channel": 3,
      "note": 49,
      "start": 91.3525,
      "duration": 0.0953,
      "velocity": 104,
      "chip": "ym2612"
    },
    {
      "channel": 4,
      "note": 61,
      "start": 91.3542,
      "duration": 0.0945,
      "velocity": 114,
      "chip": "ym2612"
    },
    {
      "channel": 2,
      "note": 80,
      "start": 91.3559,
      "duration": 0.0937,
      "velocity": 114,
      "chip": "ym2612"
    },
    {
      "channel": 1,
      "note": 46,
      "start": 91.5645,
      "duration": 0.099,
      "velocity": 122,
      "chip": "ym2612"
    },
    {
      "channel": 3,
      "note": 61,
      "start": 91.5664,
      "duration": 0.0314,
      "velocity": 104,
      "chip": "ym2612"
    },
    {
      "channel": 4,
      "note": 61,
      "start": 91.5681,
      "duration": 0.0982,
      "velocity": 114,
      "chip": "ym2612"
    },
    {
      "channel": 2,
      "note": 80,
      "start": 91.5698,
      "duration": 0.0973,
      "velocity": 114,
      "chip": "ym2612"
    },
    {
      "channel": 3,
      "note": 61,
      "start": 91.6653,
      "duration": 0.0325,
      "velocity": 104,
      "chip": "ym2612"
    },
    {
      "channel": 1,
      "note": 57,
      "start": 91.7841,
      "duration": 0.3128,
      "velocity": 125,
      "chip": "ym2612"
    },
    {
      "channel": 3,
      "note": 49,
      "start": 91.7859,
      "duration": 0.0952,
      "velocity": 104,
      "chip": "ym2612"
    },
    {
      "channel": 4,
      "note": 61,
      "start": 91.7876,
      "duration": 0.0944,
      "velocity": 114,
      "chip": "ym2612"
    },
    {
      "channel": 2,
      "note": 80,
      "start": 91.7893,
      "duration": 0.0936,
      "velocity": 114,
      "chip": "ym2612"
    },
    {
      "channel": 3,
      "note": 49,
      "start": 91.9819,
      "duration": 0.1159,
      "velocity": 104,
      "chip": "ym2612"
    },
    {
      "channel": 4,
      "note": 69,
      "start": 91.9837,
      "duration": 0.5317,
      "velocity": 114,
      "chip": "ym2612"
    },
    {
      "channel": 2,
      "note": 88,
      "start": 91.9855,
      "duration": 0.5308,
      "velocity": 114,
      "chip": "ym2612"
    },
    {
      "channel": 1,
      "note": 46,
      "start": 92.2008,
      "duration": 0.3127,
      "velocity": 122,
      "chip": "ym2612"
    },
    {
      "channel": 3,
      "note": 49,
      "start": 92.2026,
      "duration": 0.1118,
      "velocity": 104,
      "chip": "ym2612"
    },
    {
      "channel": 3,
      "note": 49,
      "start": 92.4152,
      "duration": 0.0992,
      "velocity": 104,
      "chip": "ym2612"
    },
    {
      "channel": 1,
      "note": 57,
      "start": 92.6341,
      "duration": 0.3128,
      "velocity": 125,
      "chip": "ym2612"
    },
    {
      "channel": 3,
      "note": 49,
      "start": 92.6358,
      "duration": 0.0953,
      "velocity": 104,
      "chip": "ym2612"
    },
    {
      "channel": 4,
      "note": 61,
      "start": 92.6376,
      "duration": 0.0945,
      "velocity": 114,
      "chip": "ym2612"
    },
    {
      "channel": 2,
      "note": 80,
      "start": 92.6393,
      "duration": 0.0936,
      "velocity": 114,
      "chip": "ym2612"
    },
    {
      "channel": 3,
      "note": 49,
      "start": 92.8486,
      "duration": 0.0992,
      "velocity": 104,
      "chip": "ym2612"
    },
    {
      "channel": 4,
      "note": 61,
      "start": 92.8503,
      "duration": 0.0984,
      "velocity": 114,
      "chip": "ym2612"
    },
    {
      "channel": 2,
      "note": 80,
      "start": 92.8521,
      "duration": 0.0976,
      "velocity": 114,
      "chip": "ym2612"
    },
    {
      "channel": 1,
      "note": 46,
      "start": 93.0507,
      "duration": 0.1128,
      "velocity": 122,
      "chip": "ym2612"
    },
    {
      "channel": 3,
      "note": 49,
      "start": 93.0525,
      "duration": 0.112,
      "velocity": 104,
      "chip": "ym2612"
    },
    {
      "channel": 4,
      "note": 61,
      "start": 93.0542,
      "duration": 0.1112,
      "velocity": 114,
      "chip": "ym2612"
    },
    {
      "channel": 2,
      "note": 80,
      "start": 93.0559,
      "duration": 0.1104,
      "velocity": 114,
      "chip": "ym2612"
    },
    {
      "channel": 1,
      "note": 46,
      "start": 93.2645,
      "duration": 0.1156,
      "velocity": 122,
      "chip": "ym2612"
    },
    {
      "channel": 3,
      "note": 61,
      "start": 93.2664,
      "duration": 0.0314,
      "velocity": 104,
      "chip": "ym2612"
    },
    {
      "channel": 4,
      "note": 61,
      "start": 93.2681,
      "duration": 0.1148,
      "velocity": 114,
      "chip": "ym2612"
    },
    {
      "channel": 2,
      "note": 80,
      "start": 93.2698,
      "duration": 0.114,
      "velocity": 114,
      "chip": "ym2612"
    },
    {
      "channel": 3,
      "note": 61,
      "start": 93.382,
      "duration": 0.0325,
      "velocity": 104,
      "chip": "ym2612"
    },
    {
      "channel": 1,
      "note": 57,
      "start": 93.4841,
      "duration": 0.3128,
      "velocity": 125,
      "chip": "ym2612"
    },
    {
      "channel": 3,
      "note": 49,
      "start": 93.4859,
      "duration": 0.0952,
      "velocity": 104,
      "chip": "ym2612"
    },
    {
      "channel": 4,
      "note": 61,
      "start": 93.4876,
      "duration": 0.0944,
      "velocity": 114,
      "chip": "ym2612"
    },
    {
      "channel": 2,
      "note": 80,
      "start": 93.4893,
      "duration": 0.0936,
      "velocity": 114,
      "chip": "ym2612"
    },
    {
      "channel": 3,
      "note": 49,
      "start": 93.6986,
      "duration": 0.0992,
      "velocity": 104,
      "chip": "ym2612"
    },
    {
      "channel": 4,
      "note": 70,
      "start": 93.7003,
      "duration": 0.5317,
      "velocity": 114,
      "chip": "ym2612"
    },
    {
      "channel": 2,
      "note": 90,
      "start": 93.7021,
      "duration": 0.5308,
      "velocity": 114,
      "chip": "ym2612"
    },
    {
      "channel": 1,
      "note": 46,
      "start": 93.9175,
      "duration": 0.3127,
      "velocity": 122,
      "chip": "ym2612"
    },
    {
      "channel": 3,
      "note": 49,
      "start": 93.9193,
      "duration": 0.0951,
      "velocity": 104,
      "chip": "ym2612"
    },
    {
      "channel": 3,
      "note": 49,
      "start": 94.1152,
      "duration": 0.1159,
      "velocity": 104,
      "chip": "ym2612"
    },
    {
      "channel": 1,
      "note": 57,
      "start": 94.3341,
      "duration": 0.3128,
      "velocity": 125,
      "chip": "ym2612"
    },
    {
      "channel": 3,
      "note": 52,
      "start": 94.3358,
      "duration": 0.112,
      "velocity": 104,
      "chip": "ym2612"
    },
    {
      "channel": 4,
      "note": 61,
      "start": 94.3376,
      "duration": 0.1111,
      "velocity": 114,
      "chip": "ym2612"
    },
    {
      "channel": 2,
      "note": 80,
      "start": 94.3393,
      "duration": 0.1102,
      "velocity": 114,
      "chip": "ym2612"
    },
    {
      "channel": 3,
      "note": 51,
      "start": 94.5486,
      "duration": 0.0992,
      "velocity": 104,
      "chip": "ym2612"
    },
    {
      "channel": 4,
      "note": 61,
      "start": 94.5503,
      "duration": 0.0984,
      "velocity": 114,
      "chip": "ym2612"
    },
    {
      "channel": 2,
      "note": 80,
      "start": 94.5521,
      "duration": 0.0976,
      "velocity": 114,
      "chip": "ym2612"
    },
    {
      "channel": 1,
      "note": 46,
      "start": 94.7674,
      "duration": 0.0961,
      "velocity": 122,
      "chip": "ym2612"
    },
    {
      "channel": 3,
      "note": 56,
      "start": 94.7692,
      "duration": 0.0953,
      "velocity": 104,
      "chip": "ym2612"
    },
    {
      "channel": 4,
      "note": 61,
      "start": 94.7709,
      "duration": 0.0945,
      "velocity": 114,
      "chip": "ym2612"
    },
    {
      "channel": 2,
      "note": 80,
      "start": 94.7726,
      "duration": 0.0937,
      "velocity": 114,
      "chip": "ym2612"
    },
    {
      "channel": 1,
      "note": 46,
      "start": 94.9812,
      "duration": 0.099,
      "velocity": 122,
      "chip": "ym2612"
    },
    {
      "channel": 3,
      "note": 54,
      "start": 94.983,
      "duration": 0.0982,
      "velocity": 104,
      "chip": "ym2612"
    },
    {
      "channel": 4,
      "note": 61,
      "start": 94.9848,
      "duration": 0.0973,
      "velocity": 114,
      "chip": "ym2612"
    },
    {
      "channel": 2,
      "note": 80,
      "start": 94.9865,
      "duration": 0.0965,
      "velocity": 114,
      "chip": "ym2612"
    },
    {
      "channel": 1,
      "note": 57,
      "start": 95.1841,
      "duration": 0.3295,
      "velocity": 125,
      "chip": "ym2612"
    },
    {
      "channel": 3,
      "note": 52,
      "start": 95.1859,
      "duration": 0.1119,
      "velocity": 104,
      "chip": "ym2612"
    },
    {
      "channel": 4,
      "note": 61,
      "start": 95.1876,
      "duration": 0.1111,
      "velocity": 114,
      "chip": "ym2612"
    },
    {
      "channel": 2,
      "note": 80,
      "start": 95.1893,
      "duration": 0.1103,
      "velocity": 114,
      "chip": "ym2612"
    },
    {
      "channel": 3,
      "note": 51,
      "start": 95.3986,
      "duration": 0.1159,
      "velocity": 104,
      "chip": "ym2612"
    },
    {
      "channel": 4,
      "note": 73,
      "start": 95.4003,
      "duration": 0.5317,
      "velocity": 114,
      "chip": "ym2612"
    },
    {
      "channel": 2,
      "note": 92,
      "start": 95.4021,
      "duration": 0.5308,
      "velocity": 114,
      "chip": "ym2612"
    },
    {
      "channel": 1,
      "note": 46,
      "start": 95.6175,
      "duration": 0.3127,
      "velocity": 122,
      "chip": "ym2612"
    },
    {
      "channel": 3,
      "note": 49,
      "start": 95.6193,
      "duration": 0.0951,
      "velocity": 104,
      "chip": "ym2612"
    },
    {
      "channel": 3,
      "note": 49,
      "start": 95.8319,
      "duration": 0.0992,
      "velocity": 104,
      "chip": "ym2612"
    },
    {
      "channel": 1,
      "note": 57,
      "start": 96.0507,
      "duration": 0.3128,
      "velocity": 125,
      "chip": "ym2612"
    },
    {
      "channel": 3,
      "note": 49,
      "start": 96.0524,
      "duration": 0.0953,
      "velocity": 104,
      "chip": "ym2612"
    },
    {
      "channel": 4,
      "note": 61,
      "start": 96.0542,
      "duration": 0.0945,
      "velocity": 114,
      "chip": "ym2612"
    },
    {
      "channel": 2,
      "note": 80,
      "start": 96.056,
      "duration": 0.0936,
      "velocity": 114,
      "chip": "ym2612"
    },
    {
      "channel": 3,
      "note": 49,
      "start": 96.2486,
      "duration": 0.1159,
      "velocity": 104,
      "chip": "ym2612"
    },
    {
      "channel": 4,
      "note": 61,
      "start": 96.2503,
      "duration": 0.1151,
      "velocity": 114,
      "chip": "ym2612"
    },
    {
      "channel": 2,
      "note": 80,
      "start": 96.2521,
      "duration": 0.1142,
      "velocity": 114,
      "chip": "ym2612"
    },
    {
      "channel": 1,
      "note": 46,
      "start": 96.4674,
      "duration": 0.1128,
      "velocity": 122,
      "chip": "ym2612"
    },
    {
      "channel": 3,
      "note": 49,
      "start": 96.4692,
      "duration": 0.112,
      "velocity": 104,
      "chip": "ym2612"
    },
    {
      "channel": 4,
      "note": 61,
      "start": 96.471,
      "duration": 0.1111,
      "velocity": 114,
      "chip": "ym2612"
    },
    {
      "channel": 2,
      "note": 80,
      "start": 96.4727,
      "duration": 0.1103,
      "velocity": 114,
      "chip": "ym2612"
    },
    {
      "channel": 1,
      "note": 46,
      "start": 96.6812,
      "duration": 0.099,
      "velocity": 122,
      "chip": "ym2612"
    },
    {
      "channel": 3,
      "note": 61,
      "start": 96.683,
      "duration": 0.0314,
      "velocity": 104,
      "chip": "ym2612"
    },
    {
      "channel": 4,
      "note": 61,
      "start": 96.6848,
      "duration": 0.0981,
      "velocity": 114,
      "chip": "ym2612"
    },
    {
      "channel": 2,
      "note": 80,
      "start": 96.6865,
      "duration": 0.0973,
      "velocity": 114,
      "chip": "ym2612"
    },
    {
      "channel": 3,
      "note": 61,
      "start": 96.782,
      "duration": 0.0492,
      "velocity": 104,
      "chip": "ym2612"
    },
    {
      "channel": 1,
      "note": 57,
      "start": 96.9007,
      "duration": 0.3128,
      "velocity": 125,
      "chip": "ym2612"
    },
    {
      "channel": 3,
      "note": 49,
      "start": 96.9025,
      "duration": 0.0952,
      "velocity": 104,
      "chip": "ym2612"
    },
    {
      "channel": 4,
      "note": 61,
      "start": 96.9043,
      "duration": 0.0944,
      "velocity": 114,
      "chip": "ym2612"
    },
    {
      "channel": 2,
      "note": 80,
      "start": 96.906,
      "duration": 0.0936,
      "velocity": 114,
      "chip": "ym2612"
    },
    {
      "channel": 3,
      "note": 49,
      "start": 97.1152,
      "duration": 0.0992,
      "velocity": 104,
      "chip": "ym2612"
    },
    {
      "channel": 4,
      "note": 70,
      "start": 97.117,
      "duration": 0.5317,
      "velocity": 114,
      "chip": "ym2612"
    },
    {
      "channel": 2,
      "note": 90,
      "start": 97.1188,
      "duration": 0.5308,
      "velocity": 114,
      "chip": "ym2612"
    },
    {
      "channel": 1,
      "note": 46,
      "start": 97.3175,
      "duration": 0.3294,
      "velocity": 122,
      "chip": "ym2612"
    },
    {
      "channel": 3,
      "note": 49,
      "start": 97.3193,
      "duration": 0.1118,
      "velocity": 104,
      "chip": "ym2612"
    },
    {
      "channel": 3,
      "note": 49,
      "start": 97.5319,
      "duration": 0.1159,
      "velocity": 104,
      "chip": "ym2612"
    },
    {
      "channel": 1,
      "note": 57,
      "start": 97.7507,
      "duration": 0.3128,
      "velocity": 125,
      "chip": "ym2612"
    },
    {
      "channel": 3,
      "note": 49,
      "start": 97.7524,
      "duration": 0.0953,
      "velocity": 104,
      "chip": "ym2612"
    },
    {
      "channel": 4,
      "note": 61,
      "start": 97.7542,
      "duration": 0.0945,
      "velocity": 114,
      "chip": "ym2612"
    },
    {
      "channel": 2,
      "note": 80,
      "start": 97.756,
      "duration": 0.0936,
      "velocity": 114,
      "chip": "ym2612"
    },
    {
      "channel": 3,
      "note": 49,
      "start": 97.9653,
      "duration": 0.0992,
      "velocity": 104,
      "chip": "ym2612"
    },
    {
      "channel": 4,
      "note": 61,
      "start": 97.967,
      "duration": 0.0984,
      "velocity": 114,
      "chip": "ym2612"
    },
    {
      "channel": 2,
      "note": 80,
      "start": 97.9687,
      "duration": 0.0976,
      "velocity": 114,
      "chip": "ym2612"
    },
    {
      "channel": 1,
      "note": 46,
      "start": 98.1841,
      "duration": 0.0961,
      "velocity": 122,
      "chip": "ym2612"
    },
    {
      "channel": 3,
      "note": 49,
      "start": 98.1859,
      "duration": 0.0953,
      "velocity": 104,
      "chip": "ym2612"
    },
    {
      "channel": 4,
      "note": 61,
      "start": 98.1876,
      "duration": 0.0945,
      "velocity": 114,
      "chip": "ym2612"
    },
    {
      "channel": 2,
      "note": 80,
      "start": 98.1893,
      "duration": 0.0937,
      "velocity": 114,
      "chip": "ym2612"
    },
    {
      "channel": 1,
      "note": 46,
      "start": 98.3812,
      "duration": 0.1156,
      "velocity": 122,
      "chip": "ym2612"
    },
    {
      "channel": 3,
      "note": 61,
      "start": 98.383,
      "duration": 0.048,
      "velocity": 104,
      "chip": "ym2612"
    },
    {
      "channel": 4,
      "note": 61,
      "start": 98.3848,
      "duration": 0.1148,
      "velocity": 114,
      "chip": "ym2612"
    },
    {
      "channel": 2,
      "note": 80,
      "start": 98.3865,
      "duration": 0.114,
      "velocity": 114,
      "chip": "ym2612"
    },
    {
      "channel": 3,
      "note": 61,
      "start": 98.4986,
      "duration": 0.0325,
      "velocity": 104,
      "chip": "ym2612"
    },
    {
      "channel": 1,
      "note": 57,
      "start": 98.6007,
      "duration": 0.3128,
      "velocity": 125,
      "chip": "ym2612"
    },
    {
      "channel": 3,
      "note": 49,
      "start": 98.6025,
      "duration": 0.1119,
      "velocity": 104,
      "chip": "ym2612"
    },
    {
      "channel": 4,
      "note": 61,
      "start": 98.6043,
      "duration": 0.1111,
      "velocity": 114,
      "chip": "ym2612"
    },
    {
      "channel": 2,
      "note": 80,
      "start": 98.606,
      "duration": 0.1102,
      "velocity": 114,
      "chip": "ym2612"
    },
    {
      "channel": 3,
      "note": 49,
      "start": 98.8152,
      "duration": 0.0992,
      "velocity": 104,
      "chip": "ym2612"
    },
    {
      "channel": 4,
      "note": 69,
      "start": 98.817,
      "duration": 0.5317,
      "velocity": 114,
      "chip": "ym2612"
    },
    {
      "channel": 2,
      "note": 88,
      "start": 98.8188,
      "duration": 0.5308,
      "velocity": 114,
      "chip": "ym2612"
    },
    {
      "channel": 1,
      "note": 46,
      "start": 99.0341,
      "duration": 0.3127,
      "velocity": 122,
      "chip": "ym2612"
    },
    {
      "channel": 3,
      "note": 49,
      "start": 99.0359,
      "duration": 0.0951,
      "velocity": 104,
      "chip": "ym2612"
    },
    {
      "channel": 3,
      "note": 49,
      "start": 99.2486,
      "duration": 0.0992,
      "velocity": 104,
      "chip": "ym2612"
    },
    {
      "channel": 1,
      "note": 57,
      "start": 99.4507,
      "duration": 0.3295,
      "velocity": 125,
      "chip": "ym2612"
    },
    {
      "channel": 3,
      "note": 49,
      "start": 99.4524,
      "duration": 0.112,
      "velocity": 104,
      "chip": "ym2612"
    },
    {
      "channel": 4,
      "note": 61,
      "start": 99.4542,
      "duration": 0.1111,
      "velocity": 114,
      "chip": "ym2612"
    },
    {
      "channel": 2,
      "note": 80,
      "start": 99.456,
      "duration": 0.1102,
      "velocity": 114,
      "chip": "ym2612"
    },
    {
      "channel": 3,
      "note": 49,
      "start": 99.6652,
      "duration": 0.1159,
      "velocity": 104,
      "chip": "ym2612"
    },
    {
      "channel": 4,
      "note": 61,
      "start": 99.667,
      "duration": 0.1151,
      "velocity": 114,
      "chip": "ym2612"
    },
    {
      "channel": 2,
      "note": 80,
      "start": 99.6687,
      "duration": 0.1142,
      "velocity": 114,
      "chip": "ym2612"
    },
    {
      "channel": 1,
      "note": 46,
      "start": 99.8841,
      "duration": 0.0961,
      "velocity": 122,
      "chip": "ym2612"
    },
    {
      "channel": 3,
      "note": 49,
      "start": 99.8859,
      "duration": 0.0953,
      "velocity": 104,
      "chip": "ym2612"
    },
    {
      "channel": 4,
      "note": 61,
      "start": 99.8876,
      "duration": 0.0945,
      "velocity": 114,
      "chip": "ym2612"
    },
    {
      "channel": 2,
      "note": 80,
      "start": 99.8893,
      "duration": 0.0937,
      "velocity": 114,
      "chip": "ym2612"
    },
    {
      "channel": 1,
      "note": 46,
      "start": 100.0979,
      "duration": 0.099,
      "velocity": 122,
      "chip": "ym2612"
    },
    {
      "channel": 3,
      "note": 61,
      "start": 100.0997,
      "duration": 0.0314,
      "velocity": 104,
      "chip": "ym2612"
    },
    {
      "channel": 4,
      "note": 61,
      "start": 100.1014,
      "duration": 0.0981,
      "velocity": 114,
      "chip": "ym2612"
    },
    {
      "channel": 2,
      "note": 80,
      "start": 100.1032,
      "duration": 0.0973,
      "velocity": 114,
      "chip": "ym2612"
    },
    {
      "channel": 3,
      "note": 61,
      "start": 100.1986,
      "duration": 0.0325,
      "velocity": 104,
      "chip": "ym2612"
    },
    {
      "channel": 1,
      "note": 57,
      "start": 100.3174,
      "duration": 0.3128,
      "velocity": 125,
      "chip": "ym2612"
    },
    {
      "channel": 3,
      "note": 49,
      "start": 100.3192,
      "duration": 0.0952,
      "velocity": 104,
      "chip": "ym2612"
    },
    {
      "channel": 4,
      "note": 61,
      "start": 100.321,
      "duration": 0.0944,
      "velocity": 114,
      "chip": "ym2612"
    },
    {
      "channel": 2,
      "note": 80,
      "start": 100.3227,
      "duration": 0.0936,
      "velocity": 114,
      "chip": "ym2612"
    },
    {
      "channel": 3,
      "note": 49,
      "start": 100.5152,
      "duration": 0.1159,
      "velocity": 104,
      "chip": "ym2612"
    },
    {
      "channel": 4,
      "note": 70,
      "start": 100.517,
      "duration": 1.8151,
      "velocity": 114,
      "chip": "ym2612"
    },
    {
      "channel": 2,
      "note": 90,
      "start": 100.5188,
      "duration": 1.8142,
      "velocity": 114,
      "chip": "ym2612"
    },
    {
      "channel": 1,
      "note": 46,
      "start": 100.7341,
      "duration": 0.3127,
      "velocity": 122,
      "chip": "ym2612"
    },
    {
      "channel": 3,
      "note": 49,
      "start": 100.7359,
      "duration": 0.1118,
      "velocity": 104,
      "chip": "ym2612"
    },
    {
      "channel": 3,
      "note": 49,
      "start": 100.9486,
      "duration": 0.0992,
      "velocity": 104,
      "chip": "ym2612"
    },
    {
      "channel": 1,
      "note": 57,
      "start": 101.1674,
      "duration": 0.3128,
      "velocity": 125,
      "chip": "ym2612"
    },
    {
      "channel": 3,
      "note": 52,
      "start": 101.1691,
      "duration": 0.0953,
      "velocity": 104,
      "chip": "ym2612"
    },
    {
      "channel": 3,
      "note": 51,
      "start": 101.3819,
      "duration": 0.0992,
      "velocity": 104,
      "chip": "ym2612"
    },
    {
      "channel": 1,
      "note": 46,
      "start": 101.5841,
      "duration": 0.1128,
      "velocity": 122,
      "chip": "ym2612"
    },
    {
      "channel": 3,
      "note": 56,
      "start": 101.5859,
      "duration": 0.112,
      "velocity": 104,
      "chip": "ym2612"
    },
    {
      "channel": 1,
      "note": 46,
      "start": 101.7979,
      "duration": 0.1156,
      "velocity": 122,
      "chip": "ym2612"
    },
    {
      "channel": 3,
      "note": 54,
      "start": 101.7996,
      "duration": 0.1148,
      "velocity": 104,
      "chip": "ym2612"
    },
    {
      "channel": 1,
      "note": 57,
      "start": 102.0174,
      "duration": 0.3128,
      "velocity": 125,
      "chip": "ym2612"
    },
    {
      "channel": 3,
      "note": 52,
      "start": 102.0192,
      "duration": 0.0952,
      "velocity": 104,
      "chip": "ym2612"
    },
    {
      "channel": 3,
      "note": 51,
      "start": 102.2319,
      "duration": 0.0992,
      "velocity": 104,
      "chip": "ym2612"
    },
    {
      "channel": 1,
      "note": 46,
      "start": 102.4508,
      "duration": 0.3128,
      "velocity": 122,
      "chip": "ym2612"
    },
    {
      "channel": 3,
      "note": 49,
      "start": 102.4526,
      "duration": 0.0951,
      "velocity": 104,
      "chip": "ym2612"
    },
    {
      "channel": 4,
      "note": 61,
      "start": 102.4544,
      "duration": 0.0943,
      "velocity": 114,
      "chip": "ym2612"
    },
    {
      "channel": 2,
      "note": 97,
      "start": 102.4591,
      "duration": 0.0905,
      "velocity": 74,
      "chip": "ym2612"
    },
    {
      "channel": 3,
      "note": 49,
      "start": 102.6486,
      "duration": 0.1159,
      "velocity": 104,
      "chip": "ym2612"
    },
    {
      "channel": 4,
      "note": 61,
      "start": 102.6503,
      "duration": 0.1151,
      "velocity": 114,
      "chip": "ym2612"
    },
    {
      "channel": 2,
      "note": 100,
      "start": 102.6522,
      "duration": 0.1142,
      "velocity": 74,
      "chip": "ym2612"
    },
    {
      "channel": 1,
      "note": 57,
      "start": 102.8674,
      "duration": 0.3128,
      "velocity": 125,
      "chip": "ym2612"
    },
    {
      "channel": 3,
      "note": 49,
      "start": 102.8691,
      "duration": 0.112,
      "velocity": 104,
      "chip": "ym2612"
    },
    {
      "channel": 4,
      "note": 68,
      "start": 102.8709,
      "duration": 0.1111,
      "velocity": 114,
      "chip": "ym2612"
    },
    {
      "channel": 2,
      "note": 99,
      "start": 102.8727,
      "duration": 0.1103,
      "velocity": 74,
      "chip": "ym2612"
    },
    {
      "channel": 0,
      "note": 85,
      "start": 102.8771,
      "duration": 0.3081,
      "velocity": 116,
      "chip": "ym2612"
    },
    {
      "channel": 3,
      "note": 49,
      "start": 103.0819,
      "duration": 0.0992,
      "velocity": 104,
      "chip": "ym2612"
    },
    {
      "channel": 4,
      "note": 61,
      "start": 103.0837,
      "duration": 0.0984,
      "velocity": 114,
      "chip": "ym2612"
    },
    {
      "channel": 2,
      "note": 100,
      "start": 103.0856,
      "duration": 0.0974,
      "velocity": 74,
      "chip": "ym2612"
    },
    {
      "channel": 5,
      "note": 85,
      "start": 103.0898,
      "duration": 0.2109,
      "velocity": 116,
      "chip": "ym2612"
    },
    {
      "channel": 1,
      "note": 46,
      "start": 103.3007,
      "duration": 0.0,
      "velocity": 122,
      "chip": "ym2612"
    }
  ]
}