{
  "track_name": "10 - Scary",
  "duration_sec": 86.758,
  "sample_rate": 44100,
  "note_count": 242,
  "unique_pitches": 27,
  "pitch_range": 48,
  "avg_note_duration": 0.6546,
  "reconstruction_stats": {
    "notes_reconstructed": 242,
    "keyon_events": 242,
    "keyoff_events": 241,
    "orphan_keyons": 1,
    "unique_pitches": 27,
    "pitch_range": 48,
    "avg_duration_sec": 0.6546
  },
  "metadata": {
    "source": "T\\The Jungle Book\\10 - Scary.vgz"
  },
  "notes": [
    {
      "channel": 0,
      "note": 45,
      "start": 0.0,
      "duration": 1.5246,
      "velocity": 97,
      "chip": "ym2612"
    },
    {
      "channel": 0,
      "note": 48,
      "start": 1.536,
      "duration": 1.5683,
      "velocity": 97,
      "chip": "ym2612"
    },
    {
      "channel": 0,
      "note": 47,
      "start": 3.1154,
      "duration": 1.4329,
      "velocity": 97,
      "chip": "ym2612"
    },
    {
      "channel": 0,
      "note": 40,
      "start": 4.568,
      "duration": 1.4733,
      "velocity": 97,
      "chip": "ym2612"
    },
    {
      "channel": 0,
      "note": 45,
      "start": 6.0523,
      "duration": 1.5324,
      "velocity": 97,
      "chip": "ym2612"
    },
    {
      "channel": 4,
      "note": 57,
      "start": 6.0552,
      "duration": 1.5296,
      "velocity": 97,
      "chip": "ym2612"
    },
    {
      "channel": 0,
      "note": 48,
      "start": 7.6042,
      "duration": 1.572,
      "velocity": 97,
      "chip": "ym2612"
    },
    {
      "channel": 4,
      "note": 60,
      "start": 7.6078,
      "duration": 1.5685,
      "velocity": 97,
      "chip": "ym2612"
    },
    {
      "channel": 0,
      "note": 47,
      "start": 9.1874,
      "duration": 1.446,
      "velocity": 97,
      "chip": "ym2612"
    },
    {
      "channel": 4,
      "note": 59,
      "start": 9.1914,
      "duration": 1.4422,
      "velocity": 97,
      "chip": "ym2612"
    },
    {
      "channel": 0,
      "note": 40,
      "start": 10.653,
      "duration": 1.4591,
      "velocity": 97,
      "chip": "ym2612"
    },
    {
      "channel": 4,
      "note": 52,
      "start": 10.6564,
      "duration": 1.4559,
      "velocity": 97,
      "chip": "ym2612"
    },
    {
      "channel": 0,
      "note": 45,
      "start": 12.1238,
      "duration": 0.5512,
      "velocity": 97,
      "chip": "ym2612"
    },
    {
      "channel": 4,
      "note": 57,
      "start": 12.1261,
      "duration": 1.5208,
      "velocity": 97,
      "chip": "ym2612"
    },
    {
      "channel": 1,
      "note": 84,
      "start": 12.1289,
      "duration": 0.1149,
      "velocity": 97,
      "chip": "ym2612"
    },
    {
      "channel": 1,
      "note": 83,
      "start": 12.2556,
      "duration": 0.26,
      "velocity": 97,
      "chip": "ym2612"
    },
    {
      "channel": 1,
      "note": 84,
      "start": 12.5383,
      "duration": 0.2365,
      "velocity": 97,
      "chip": "ym2612"
    },
    {
      "channel": 0,
      "note": 45,
      "start": 12.798,
      "duration": 0.0617,
      "velocity": 97,
      "chip": "ym2612"
    },
    {
      "channel": 1,
      "note": 81,
      "start": 12.8008,
      "duration": 0.1193,
      "velocity": 97,
      "chip": "ym2612"
    },
    {
      "channel": 0,
      "note": 45,
      "start": 12.9321,
      "duration": 0.4687,
      "velocity": 97,
      "chip": "ym2612"
    },
    {
      "channel": 1,
      "note": 84,
      "start": 12.9349,
      "duration": 0.1182,
      "velocity": 97,
      "chip": "ym2612"
    },
    {
      "channel": 1,
      "note": 83,
      "start": 13.0652,
      "duration": 0.2317,
      "velocity": 97,
      "chip": "ym2612"
    },
    {
      "channel": 1,
      "note": 84,
      "start": 13.3197,
      "duration": 0.1811,
      "velocity": 97,
      "chip": "ym2612"
    },
    {
      "channel": 0,
      "note": 45,
      "start": 13.5241,
      "duration": 0.0618,
      "velocity": 97,
      "chip": "ym2612"
    },
    {
      "channel": 1,
      "note": 81,
      "start": 13.5266,
      "duration": 0.1201,
      "velocity": 97,
      "chip": "ym2612"
    },
    {
      "channel": 0,
      "note": 48,
      "start": 13.6676,
      "duration": 0.5075,
      "velocity": 97,
      "chip": "ym2612"
    },
    {
      "channel": 4,
      "note": 60,
      "start": 13.67,
      "duration": 1.5687,
      "velocity": 97,
      "chip": "ym2612"
    },
    {
      "channel": 1,
      "note": 84,
      "start": 13.6721,
      "duration": 0.1314,
      "velocity": 97,
      "chip": "ym2612"
    },
    {
      "channel": 1,
      "note": 83,
      "start": 13.8463,
      "duration": 0.2168,
      "velocity": 97,
      "chip": "ym2612"
    },
    {
      "channel": 1,
      "note": 84,
      "start": 14.106,
      "duration": 0.1611,
      "velocity": 97,
      "chip": "ym2612"
    },
    {
      "channel": 0,
      "note": 48,
      "start": 14.3102,
      "duration": 0.0538,
      "velocity": 97,
      "chip": "ym2612"
    },
    {
      "channel": 1,
      "note": 81,
      "start": 14.3127,
      "duration": 0.1189,
      "velocity": 97,
      "chip": "ym2612"
    },
    {
      "channel": 0,
      "note": 48,
      "start": 14.4435,
      "duration": 0.5493,
      "velocity": 97,
      "chip": "ym2612"
    },
    {
      "channel": 1,
      "note": 84,
      "start": 14.4463,
      "duration": 0.1176,
      "velocity": 97,
      "chip": "ym2612"
    },
    {
      "channel": 1,
      "note": 83,
      "start": 14.5752,
      "duration": 0.2584,
      "velocity": 97,
      "chip": "ym2612"
    },
    {
      "channel": 1,
      "note": 84,
      "start": 14.8565,
      "duration": 0.2363,
      "velocity": 97,
      "chip": "ym2612"
    },
    {
      "channel": 0,
      "note": 48,
      "start": 15.1158,
      "duration": 0.0539,
      "velocity": 97,
      "chip": "ym2612"
    },
    {
      "channel": 1,
      "note": 88,
      "start": 15.1183,
      "duration": 0.1203,
      "velocity": 97,
      "chip": "ym2612"
    },
    {
      "channel": 0,
      "note": 47,
      "start": 15.2508,
      "duration": 0.4688,
      "velocity": 97,
      "chip": "ym2612"
    },
    {
      "channel": 4,
      "note": 62,
      "start": 15.253,
      "duration": 1.4357,
      "velocity": 97,
      "chip": "ym2612"
    },
    {
      "channel": 1,
      "note": 84,
      "start": 15.2551,
      "duration": 0.1158,
      "velocity": 97,
      "chip": "ym2612"
    },
    {
      "channel": 1,
      "note": 83,
      "start": 15.3822,
      "duration": 0.1776,
      "velocity": 97,
      "chip": "ym2612"
    },
    {
      "channel": 1,
      "note": 84,
      "start": 15.5827,
      "duration": 0.2369,
      "velocity": 97,
      "chip": "ym2612"
    },
    {
      "channel": 0,
      "note": 47,
      "start": 15.8426,
      "duration": 0.0535,
      "velocity": 97,
      "chip": "ym2612"
    },
    {
      "channel": 1,
      "note": 81,
      "start": 15.8455,
      "duration": 0.1195,
      "velocity": 97,
      "chip": "ym2612"
    },
    {
      "channel": 0,
      "note": 47,
      "start": 15.9769,
      "duration": 0.4668,
      "velocity": 97,
      "chip": "ym2612"
    },
    {
      "channel": 1,
      "note": 84,
      "start": 15.9797,
      "duration": 0.1177,
      "velocity": 97,
      "chip": "ym2612"
    },
    {
      "channel": 1,
      "note": 83,
      "start": 16.1088,
      "duration": 0.1758,
      "velocity": 97,
      "chip": "ym2612"
    },
    {
      "channel": 1,
      "note": 84,
      "start": 16.3075,
      "duration": 0.2363,
      "velocity": 97,
      "chip": "ym2612"
    },
    {
      "channel": 0,
      "note": 47,
      "start": 16.5668,
      "duration": 0.0618,
      "velocity": 97,
      "chip": "ym2612"
    },
    {
      "channel": 1,
      "note": 81,
      "start": 16.5693,
      "duration": 0.1193,
      "velocity": 97,
      "chip": "ym2612"
    },
    {
      "channel": 0,
      "note": 52,
      "start": 16.7005,
      "duration": 0.4601,
      "velocity": 97,
      "chip": "ym2612"
    },
    {
      "channel": 4,
      "note": 59,
      "start": 16.7029,
      "duration": 1.4692,
      "velocity": 97,
      "chip": "ym2612"
    },
    {
      "channel": 1,
      "note": 88,
      "start": 16.7052,
      "duration": 0.1183,
      "velocity": 97,
      "chip": "ym2612"
    },
    {
      "channel": 1,
      "note": 87,
      "start": 16.843,
      "duration": 0.1576,
      "velocity": 97,
      "chip": "ym2612"
    },
    {
      "channel": 1,
      "note": 86,
      "start": 17.0436,
      "duration": 0.2171,
      "velocity": 97,
      "chip": "ym2612"
    },
    {
      "channel": 0,
      "note": 52,
      "start": 17.3039,
      "duration": 0.0534,
      "velocity": 97,
      "chip": "ym2612"
    },
    {
      "channel": 1,
      "note": 87,
      "start": 17.3064,
      "duration": 0.1109,
      "velocity": 97,
      "chip": "ym2612"
    },
    {
      "channel": 0,
      "note": 52,
      "start": 17.4376,
      "duration": 0.1197,
      "velocity": 97,
      "chip": "ym2612"
    },
    {
      "channel": 1,
      "note": 86,
      "start": 17.4402,
      "duration": 0.1171,
      "velocity": 97,
      "chip": "ym2612"
    },
    {
      "channel": 0,
      "note": 51,
      "start": 17.5694,
      "duration": 0.2588,
      "velocity": 97,
      "chip": "ym2612"
    },
    {
      "channel": 1,
      "note": 84,
      "start": 17.5719,
      "duration": 0.2564,
      "velocity": 97,
      "chip": "ym2612"
    },
    {
      "channel": 0,
      "note": 50,
      "start": 17.8507,
      "duration": 0.1878,
      "velocity": 97,
      "chip": "ym2612"
    },
    {
      "channel": 1,
      "note": 83,
      "start": 17.8532,
      "duration": 0.1854,
      "velocity": 97,
      "chip": "ym2612"
    },
    {
      "channel": 0,
      "note": 48,
      "start": 18.0506,
      "duration": 0.1214,
      "velocity": 97,
      "chip": "ym2612"
    },
    {
      "channel": 1,
      "note": 81,
      "start": 18.053,
      "duration": 0.119,
      "velocity": 97,
      "chip": "ym2612"
    },
    {
      "channel": 0,
      "note": 45,
      "start": 18.1821,
      "duration": 0.5535,
      "velocity": 97,
      "chip": "ym2612"
    },
    {
      "channel": 4,
      "note": 57,
      "start": 18.1854,
      "duration": 1.5216,
      "velocity": 97,
      "chip": "ym2612"
    },
    {
      "channel": 1,
      "note": 84,
      "start": 18.1882,
      "duration": 0.1151,
      "velocity": 97,
      "chip": "ym2612"
    },
    {
      "channel": 1,
      "note": 83,
      "start": 18.3146,
      "duration": 0.2615,
      "velocity": 97,
      "chip": "ym2612"
    },
    {
      "channel": 1,
      "note": 84,
      "start": 18.599,
      "duration": 0.2367,
      "velocity": 97,
      "chip": "ym2612"
    },
    {
      "channel": 0,
      "note": 45,
      "start": 18.8587,
      "duration": 0.0539,
      "velocity": 97,
      "chip": "ym2612"
    },
    {
      "channel": 1,
      "note": 81,
      "start": 18.8616,
      "duration": 0.1196,
      "velocity": 97,
      "chip": "ym2612"
    },
    {
      "channel": 0,
      "note": 45,
      "start": 18.9931,
      "duration": 0.4677,
      "velocity": 97,
      "chip": "ym2612"
    },
    {
      "channel": 1,
      "note": 84,
      "start": 18.9959,
      "duration": 0.1176,
      "velocity": 97,
      "chip": "ym2612"
    },
    {
      "channel": 1,
      "note": 83,
      "start": 19.1253,
      "duration": 0.2312,
      "velocity": 97,
      "chip": "ym2612"
    },
    {
      "channel": 1,
      "note": 84,
      "start": 19.3794,
      "duration": 0.1814,
      "velocity": 97,
      "chip": "ym2612"
    },
    {
      "channel": 0,
      "note": 45,
      "start": 19.5841,
      "duration": 0.0627,
      "velocity": 97,
      "chip": "ym2612"
    },
    {
      "channel": 1,
      "note": 88,
      "start": 19.5866,
      "duration": 0.1203,
      "velocity": 97,
      "chip": "ym2612"
    },
    {
      "channel": 0,
      "note": 48,
      "start": 19.7187,
      "duration": 0.5173,
      "velocity": 97,
      "chip": "ym2612"
    },
    {
      "channel": 4,
      "note": 60,
      "start": 19.721,
      "duration": 1.5795,
      "velocity": 97,
      "chip": "ym2612"
    },
    {
      "channel": 1,
      "note": 84,
      "start": 19.7234,
      "duration": 0.1407,
      "velocity": 97,
      "chip": "ym2612"
    },
    {
      "channel": 1,
      "note": 83,
      "start": 19.887,
      "duration": 0.2367,
      "velocity": 97,
      "chip": "ym2612"
    },
    {
      "channel": 1,
      "note": 84,
      "start": 20.1666,
      "duration": 0.1614,
      "velocity": 97,
      "chip": "ym2612"
    },
    {
      "channel": 0,
      "note": 48,
      "start": 20.3709,
      "duration": 0.0541,
      "velocity": 97,
      "chip": "ym2612"
    },
    {
      "channel": 1,
      "note": 83,
      "start": 20.3734,
      "duration": 0.1105,
      "velocity": 97,
      "chip": "ym2612"
    },
    {
      "channel": 0,
      "note": 48,
      "start": 20.5043,
      "duration": 0.5503,
      "velocity": 97,
      "chip": "ym2612"
    },
    {
      "channel": 1,
      "note": 84,
      "start": 20.5073,
      "duration": 0.1089,
      "velocity": 97,
      "chip": "ym2612"
    },
    {
      "channel": 1,
      "note": 83,
      "start": 20.6368,
      "duration": 0.2582,
      "velocity": 97,
      "chip": "ym2612"
    },
    {
      "channel": 1,
      "note": 81,
      "start": 20.918,
      "duration": 0.2367,
      "velocity": 97,
      "chip": "ym2612"
    },
    {
      "channel": 0,
      "note": 48,
      "start": 21.1778,
      "duration": 0.0541,
      "velocity": 97,
      "chip": "ym2612"
    },
    {
      "channel": 1,
      "note": 83,
      "start": 21.1802,
      "duration": 0.1201,
      "velocity": 97,
      "chip": "ym2612"
    },
    {
      "channel": 0,
      "note": 47,
      "start": 21.3128,
      "duration": 0.4687,
      "velocity": 97,
      "chip": "ym2612"
    },
    {
      "channel": 4,
      "note": 62,
      "start": 21.3152,
      "duration": 1.4362,
      "velocity": 97,
      "chip": "ym2612"
    },
    {
      "channel": 1,
      "note": 84,
      "start": 21.3173,
      "duration": 0.1155,
      "velocity": 97,
      "chip": "ym2612"
    },
    {
      "channel": 1,
      "note": 83,
      "start": 21.4446,
      "duration": 0.1775,
      "velocity": 97,
      "chip": "ym2612"
    },
    {
      "channel": 1,
      "note": 84,
      "start": 21.6449,
      "duration": 0.2367,
      "velocity": 97,
      "chip": "ym2612"
    },
    {
      "channel": 0,
      "note": 47,
      "start": 21.9047,
      "duration": 0.0537,
      "velocity": 97,
      "chip": "ym2612"
    },
    {
      "channel": 1,
      "note": 81,
      "start": 21.9076,
      "duration": 0.1197,
      "velocity": 97,
      "chip": "ym2612"
    },
    {
      "channel": 0,
      "note": 47,
      "start": 22.0394,
      "duration": 0.4667,
      "velocity": 97,
      "chip": "ym2612"
    },
    {
      "channel": 1,
      "note": 84,
      "start": 22.0426,
      "duration": 0.1173,
      "velocity": 97,
      "chip": "ym2612"
    },
    {
      "channel": 1,
      "note": 83,
      "start": 22.1711,
      "duration": 0.1754,
      "velocity": 97,
      "chip": "ym2612"
    },
    {
      "channel": 1,
      "note": 84,
      "start": 22.3694,
      "duration": 0.2366,
      "velocity": 97,
      "chip": "ym2612"
    },
    {
      "channel": 0,
      "note": 47,
      "start": 22.629,
      "duration": 0.0629,
      "velocity": 97,
      "chip": "ym2612"
    },
    {
      "channel": 1,
      "note": 88,
      "start": 22.6315,
      "duration": 0.1198,
      "velocity": 97,
      "chip": "ym2612"
    },
    {
      "channel": 0,
      "note": 52,
      "start": 22.7633,
      "duration": 0.4717,
      "velocity": 97,
      "chip": "ym2612"
    },
    {
      "channel": 4,
      "note": 59,
      "start": 22.7657,
      "duration": 1.4807,
      "velocity": 97,
      "chip": "ym2612"
    },
    {
      "channel": 1,
      "note": 88,
      "start": 22.7678,
      "duration": 0.1191,
      "velocity": 97,
      "chip": "ym2612"
    },
    {
      "channel": 1,
      "note": 87,
      "start": 22.8995,
      "duration": 0.1762,
      "velocity": 97,
      "chip": "ym2612"
    },
    {
      "channel": 1,
      "note": 86,
      "start": 23.0986,
      "duration": 0.2364,
      "velocity": 97,
      "chip": "ym2612"
    },
    {
      "channel": 0,
      "note": 52,
      "start": 23.378,
      "duration": 0.0539,
      "velocity": 97,
      "chip": "ym2612"
    },
    {
      "channel": 1,
      "note": 87,
      "start": 23.3808,
      "duration": 0.0512,
      "velocity": 97,
      "chip": "ym2612"
    },
    {
      "channel": 1,
      "note": 86,
      "start": 23.4442,
      "duration": 0.0484,
      "velocity": 97,
      "chip": "ym2612"
    },
    {
      "channel": 0,
      "note": 52,
      "start": 23.5139,
      "duration": 0.1112,
      "velocity": 97,
      "chip": "ym2612"
    },
    {
      "channel": 1,
      "note": 87,
      "start": 23.5166,
      "duration": 0.1085,
      "velocity": 97,
      "chip": "ym2612"
    },
    {
      "channel": 0,
      "note": 51,
      "start": 23.6441,
      "duration": 0.239,
      "velocity": 97,
      "chip": "ym2612"
    },
    {
      "channel": 1,
      "note": 86,
      "start": 23.6465,
      "duration": 0.2367,
      "velocity": 97,
      "chip": "ym2612"
    },
    {
      "channel": 0,
      "note": 50,
      "start": 23.9259,
      "duration": 0.1886,
      "velocity": 97,
      "chip": "ym2612"
    },
    {
      "channel": 1,
      "note": 84,
      "start": 23.9288,
      "duration": 0.1858,
      "velocity": 97,
      "chip": "ym2612"
    },
    {
      "channel": 0,
      "note": 48,
      "start": 24.1267,
      "duration": 0.1195,
      "velocity": 97,
      "chip": "ym2612"
    },
    {
      "channel": 1,
      "note": 83,
      "start": 24.129,
      "duration": 0.1173,
      "velocity": 97,
      "chip": "ym2612"
    },
    {
      "channel": 0,
      "note": 45,
      "start": 24.259,
      "duration": 3.0933,
      "velocity": 97,
      "chip": "ym2612"
    },
    {
      "channel": 4,
      "note": 57,
      "start": 24.2619,
      "duration": 3.0905,
      "velocity": 97,
      "chip": "ym2612"
    },
    {
      "channel": 1,
      "note": 84,
      "start": 24.2642,
      "duration": 0.1143,
      "velocity": 97,
      "chip": "ym2612"
    },
    {
      "channel": 1,
      "note": 83,
      "start": 24.3901,
      "duration": 0.2602,
      "velocity": 97,
      "chip": "ym2612"
    },
    {
      "channel": 1,
      "note": 84,
      "start": 24.6732,
      "duration": 0.2365,
      "velocity": 97,
      "chip": "ym2612"
    },
    {
      "channel": 1,
      "note": 81,
      "start": 24.9324,
      "duration": 0.1205,
      "velocity": 97,
      "chip": "ym2612"
    },
    {
      "channel": 1,
      "note": 84,
      "start": 25.065,
      "duration": 0.12,
      "velocity": 97,
      "chip": "ym2612"
    },
    {
      "channel": 1,
      "note": 83,
      "start": 25.1965,
      "duration": 0.2316,
      "velocity": 97,
      "chip": "ym2612"
    },
    {
      "channel": 1,
      "note": 84,
      "start": 25.451,
      "duration": 0.1807,
      "velocity": 97,
      "chip": "ym2612"
    },
    {
      "channel": 1,
      "note": 81,
      "start": 25.6546,
      "duration": 0.1204,
      "velocity": 97,
      "chip": "ym2612"
    },
    {
      "channel": 1,
      "note": 84,
      "start": 25.7865,
      "duration": 0.1454,
      "velocity": 97,
      "chip": "ym2612"
    },
    {
      "channel": 1,
      "note": 83,
      "start": 25.9546,
      "duration": 0.2368,
      "velocity": 97,
      "chip": "ym2612"
    },
    {
      "channel": 1,
      "note": 84,
      "start": 26.2144,
      "duration": 0.1813,
      "velocity": 97,
      "chip": "ym2612"
    },
    {
      "channel": 1,
      "note": 81,
      "start": 26.4186,
      "duration": 0.1207,
      "velocity": 97,
      "chip": "ym2612"
    },
    {
      "channel": 1,
      "note": 84,
      "start": 26.5603,
      "duration": 0.1103,
      "velocity": 97,
      "chip": "ym2612"
    },
    {
      "channel": 1,
      "note": 83,
      "start": 26.6916,
      "duration": 0.2382,
      "velocity": 97,
      "chip": "ym2612"
    },
    {
      "channel": 1,
      "note": 84,
      "start": 26.973,
      "duration": 0.2159,
      "velocity": 97,
      "chip": "ym2612"
    },
    {
      "channel": 1,
      "note": 81,
      "start": 27.2321,
      "duration": 0.1203,
      "velocity": 97,
      "chip": "ym2612"
    },
    {
      "channel": 0,
      "note": 45,
      "start": 27.3636,
      "duration": 1.438,
      "velocity": 97,
      "chip": "ym2612"
    },
    {
      "channel": 4,
      "note": 57,
      "start": 27.3663,
      "duration": 0.7119,
      "velocity": 97,
      "chip": "ym2612"
    },
    {
      "channel": 4,
      "note": 60,
      "start": 28.0897,
      "duration": 0.3102,
      "velocity": 97,
      "chip": "ym2612"
    },
    {
      "channel": 4,
      "note": 59,
      "start": 28.4226,
      "duration": 0.3791,
      "velocity": 97,
      "chip": "ym2612"
    },
    {
      "channel": 0,
      "note": 48,
      "start": 28.8126,
      "duration": 1.4561,
      "velocity": 97,
      "chip": "ym2612"
    },
    {
      "channel": 4,
      "note": 57,
      "start": 28.8163,
      "duration": 0.7069,
      "velocity": 97,
      "chip": "ym2612"
    },
    {
      "channel": 4,
      "note": 64,
      "start": 29.5346,
      "duration": 0.7342,
      "velocity": 97,
      "chip": "ym2612"
    },
    {
      "channel": 0,
      "note": 45,
      "start": 30.2889,
      "duration": 1.5144,
      "velocity": 97,
      "chip": "ym2612"
    },
    {
      "channel": 4,
      "note": 60,
      "start": 30.2917,
      "duration": 0.7935,
      "velocity": 97,
      "chip": "ym2612"
    },
    {
      "channel": 4,
      "note": 65,
      "start": 31.0967,
      "duration": 0.3606,
      "velocity": 97,
      "chip": "ym2612"
    },
    {
      "channel": 4,
      "note": 64,
      "start": 31.4802,
      "duration": 0.3232,
      "velocity": 97,
      "chip": "ym2612"
    },
    {
      "channel": 0,
      "note": 47,
      "start": 31.8145,
      "duration": 1.5665,
      "velocity": 97,
      "chip": "ym2612"
    },
    {
      "channel": 4,
      "note": 62,
      "start": 31.8184,
      "duration": 0.7456,
      "velocity": 97,
      "chip": "ym2612"
    },
    {
      "channel": 4,
      "note": 69,
      "start": 32.5754,
      "duration": 0.7885,
      "velocity": 97,
      "chip": "ym2612"
    },
    {
      "channel": 0,
      "note": 45,
      "start": 33.4005,
      "duration": 1.4351,
      "velocity": 97,
      "chip": "ym2612"
    },
    {
      "channel": 4,
      "note": 69,
      "start": 33.404,
      "duration": 0.7093,
      "velocity": 97,
      "chip": "ym2612"
    },
    {
      "channel": 4,
      "note": 64,
      "start": 34.1246,
      "duration": 0.3082,
      "velocity": 97,
      "chip": "ym2612"
    },
    {
      "channel": 4,
      "note": 65,
      "start": 34.4558,
      "duration": 0.3801,
      "velocity": 97,
      "chip": "ym2612"
    },
    {
      "channel": 0,
      "note": 48,
      "start": 34.8469,
      "duration": 1.4658,
      "velocity": 97,
      "chip": "ym2612"
    },
    {
      "channel": 4,
      "note": 67,
      "start": 34.8491,
      "duration": 0.3069,
      "velocity": 97,
      "chip": "ym2612"
    },
    {
      "channel": 4,
      "note": 65,
      "start": 35.1789,
      "duration": 0.3786,
      "velocity": 97,
      "chip": "ym2612"
    },
    {
      "channel": 4,
      "note": 64,
      "start": 35.569,
      "duration": 0.6135,
      "velocity": 97,
      "chip": "ym2612"
    },
    {
      "channel": 4,
      "note": 60,
      "start": 36.2037,
      "duration": 0.1092,
      "velocity": 97,
      "chip": "ym2612"
    },
    {
      "channel": 0,
      "note": 47,
      "start": 36.3335,
      "duration": 0.7988,
      "velocity": 97,
      "chip": "ym2612"
    },
    {
      "channel": 4,
      "note": 62,
      "start": 36.3365,
      "duration": 0.3733,
      "velocity": 97,
      "chip": "ym2612"
    },
    {
      "channel": 4,
      "note": 64,
      "start": 36.7525,
      "duration": 0.3799,
      "velocity": 97,
      "chip": "ym2612"
    },
    {
      "channel": 0,
      "note": 52,
      "start": 37.1434,
      "duration": 0.7125,
      "velocity": 97,
      "chip": "ym2612"
    },
    {
      "channel": 4,
      "note": 59,
      "start": 37.1475,
      "duration": 0.3625,
      "velocity": 97,
      "chip": "ym2612"
    },
    {
      "channel": 4,
      "note": 64,
      "start": 37.5327,
      "duration": 0.3234,
      "velocity": 97,
      "chip": "ym2612"
    },
    {
      "channel": 0,
      "note": 45,
      "start": 37.8675,
      "duration": 0.4043,
      "velocity": 97,
      "chip": "ym2612"
    },
    {
      "channel": 4,
      "note": 57,
      "start": 37.8708,
      "duration": 0.4011,
      "velocity": 97,
      "chip": "ym2612"
    },
    {
      "channel": 0,
      "note": 47,
      "start": 38.2945,
      "duration": 0.3223,
      "velocity": 97,
      "chip": "ym2612"
    },
    {
      "channel": 4,
      "note": 59,
      "start": 38.297,
      "duration": 0.32,
      "velocity": 97,
      "chip": "ym2612"
    },
    {
      "channel": 0,
      "note": 48,
      "start": 38.628,
      "duration": 0.3959,
      "velocity": 97,
      "chip": "ym2612"
    },
    {
      "channel": 4,
      "note": 60,
      "start": 38.632,
      "duration": 0.3921,
      "velocity": 97,
      "chip": "ym2612"
    },
    {
      "channel": 0,
      "note": 52,
      "start": 39.0466,
      "duration": 0.3777,
      "velocity": 97,
      "chip": "ym2612"
    },
    {
      "channel": 4,
      "note": 64,
      "start": 39.0491,
      "duration": 0.3754,
      "velocity": 97,
      "chip": "ym2612"
    },
    {
      "channel": 0,
      "note": 45,
      "start": 39.4448,
      "duration": 1.4363,
      "velocity": 97,
      "chip": "ym2612"
    },
    {
      "channel": 4,
      "note": 57,
      "start": 39.4473,
      "duration": 0.7104,
      "velocity": 97,
      "chip": "ym2612"
    },
    {
      "channel": 1,
      "note": 69,
      "start": 39.4507,
      "duration": 0.7069,
      "velocity": 97,
      "chip": "ym2612"
    },
    {
      "channel": 4,
      "note": 60,
      "start": 40.1691,
      "duration": 0.3113,
      "velocity": 97,
      "chip": "ym2612"
    },
    {
      "channel": 1,
      "note": 72,
      "start": 40.1726,
      "duration": 0.3076,
      "velocity": 97,
      "chip": "ym2612"
    },
    {
      "channel": 4,
      "note": 59,
      "start": 40.5031,
      "duration": 0.3783,
      "velocity": 97,
      "chip": "ym2612"
    },
    {
      "channel": 1,
      "note": 71,
      "start": 40.5054,
      "duration": 0.3758,
      "velocity": 97,
      "chip": "ym2612"
    },
    {
      "channel": 0,
      "note": 48,
      "start": 40.8924,
      "duration": 1.4731,
      "velocity": 97,
      "chip": "ym2612"
    },
    {
      "channel": 4,
      "note": 57,
      "start": 40.8961,
      "duration": 0.7115,
      "velocity": 97,
      "chip": "ym2612"
    },
    {
      "channel": 1,
      "note": 69,
      "start": 40.8985,
      "duration": 0.7089,
      "velocity": 97,
      "chip": "ym2612"
    },
    {
      "channel": 4,
      "note": 64,
      "start": 41.6184,
      "duration": 0.7473,
      "velocity": 97,
      "chip": "ym2612"
    },
    {
      "channel": 1,
      "note": 76,
      "start": 41.6221,
      "duration": 0.7434,
      "velocity": 97,
      "chip": "ym2612"
    },
    {
      "channel": 0,
      "note": 45,
      "start": 42.3763,
      "duration": 1.5276,
      "velocity": 97,
      "chip": "ym2612"
    },
    {
      "channel": 4,
      "note": 60,
      "start": 42.3784,
      "duration": 0.7932,
      "velocity": 97,
      "chip": "ym2612"
    },
    {
      "channel": 1,
      "note": 72,
      "start": 42.3805,
      "duration": 0.7911,
      "velocity": 97,
      "chip": "ym2612"
    },
    {
      "channel": 4,
      "note": 65,
      "start": 43.1912,
      "duration": 0.3668,
      "velocity": 97,
      "chip": "ym2612"
    },
    {
      "channel": 1,
      "note": 77,
      "start": 43.1956,
      "duration": 0.3622,
      "velocity": 97,
      "chip": "ym2612"
    },
    {
      "channel": 4,
      "note": 64,
      "start": 43.5807,
      "duration": 0.3232,
      "velocity": 97,
      "chip": "ym2612"
    },
    {
      "channel": 1,
      "note": 76,
      "start": 43.5831,
      "duration": 0.3208,
      "velocity": 97,
      "chip": "ym2612"
    },
    {
      "channel": 0,
      "note": 47,
      "start": 43.915,
      "duration": 1.5695,
      "velocity": 97,
      "chip": "ym2612"
    },
    {
      "channel": 4,
      "note": 62,
      "start": 43.9187,
      "duration": 0.7601,
      "velocity": 97,
      "chip": "ym2612"
    },
    {
      "channel": 1,
      "note": 74,
      "start": 43.9212,
      "duration": 0.7575,
      "velocity": 97,
      "chip": "ym2612"
    },
    {
      "channel": 4,
      "note": 69,
      "start": 44.6905,
      "duration": 0.7775,
      "velocity": 97,
      "chip": "ym2612"
    },
    {
      "channel": 1,
      "note": 81,
      "start": 44.694,
      "duration": 0.7739,
      "velocity": 97,
      "chip": "ym2612"
    },
    {
      "channel": 0,
      "note": 45,
      "start": 45.4959,
      "duration": 1.4569,
      "velocity": 97,
      "chip": "ym2612"
    },
    {
      "channel": 4,
      "note": 69,
      "start": 45.4994,
      "duration": 0.7225,
      "velocity": 97,
      "chip": "ym2612"
    },
    {
      "channel": 1,
      "note": 81,
      "start": 45.5022,
      "duration": 0.7195,
      "velocity": 97,
      "chip": "ym2612"
    },
    {
      "channel": 4,
      "note": 64,
      "start": 46.2413,
      "duration": 0.3116,
      "velocity": 97,
      "chip": "ym2612"
    },
    {
      "channel": 1,
      "note": 76,
      "start": 46.2449,
      "duration": 0.3079,
      "velocity": 97,
      "chip": "ym2612"
    },
    {
      "channel": 4,
      "note": 65,
      "start": 46.5757,
      "duration": 0.3773,
      "velocity": 97,
      "chip": "ym2612"
    },
    {
      "channel": 1,
      "note": 77,
      "start": 46.578,
      "duration": 0.3748,
      "velocity": 97,
      "chip": "ym2612"
    },
    {
      "channel": 0,
      "note": 48,
      "start": 46.9639,
      "duration": 1.472,
      "velocity": 97,
      "chip": "ym2612"
    },
    {
      "channel": 4,
      "note": 67,
      "start": 46.9661,
      "duration": 0.3116,
      "velocity": 97,
      "chip": "ym2612"
    },
    {
      "channel": 1,
      "note": 79,
      "start": 46.9695,
      "duration": 0.308,
      "velocity": 97,
      "chip": "ym2612"
    },
    {
      "channel": 4,
      "note": 65,
      "start": 47.3003,
      "duration": 0.3771,
      "velocity": 97,
      "chip": "ym2612"
    },
    {
      "channel": 1,
      "note": 77,
      "start": 47.3031,
      "duration": 0.3742,
      "velocity": 97,
      "chip": "ym2612"
    },
    {
      "channel": 4,
      "note": 64,
      "start": 47.6886,
      "duration": 0.6172,
      "velocity": 97,
      "chip": "ym2612"
    },
    {
      "channel": 1,
      "note": 76,
      "start": 47.6922,
      "duration": 0.6135,
      "velocity": 97,
      "chip": "ym2612"
    },
    {
      "channel": 4,
      "note": 60,
      "start": 48.3172,
      "duration": 0.1189,
      "velocity": 97,
      "chip": "ym2612"
    },
    {
      "channel": 1,
      "note": 72,
      "start": 48.3197,
      "duration": 0.1163,
      "velocity": 97,
      "chip": "ym2612"
    },
    {
      "channel": 0,
      "note": 47,
      "start": 48.4476,
      "duration": 0.8051,
      "velocity": 97,
      "chip": "ym2612"
    },
    {
      "channel": 4,
      "note": 62,
      "start": 48.4504,
      "duration": 0.3922,
      "velocity": 97,
      "chip": "ym2612"
    },
    {
      "channel": 1,
      "note": 74,
      "start": 48.4537,
      "duration": 0.3887,
      "velocity": 97,
      "chip": "ym2612"
    },
    {
      "channel": 4,
      "note": 64,
      "start": 48.8654,
      "duration": 0.3875,
      "velocity": 97,
      "chip": "ym2612"
    },
    {
      "channel": 1,
      "note": 76,
      "start": 48.8678,
      "duration": 0.385,
      "velocity": 97,
      "chip": "ym2612"
    },
    {
      "channel": 0,
      "note": 52,
      "start": 49.2722,
      "duration": 0.7143,
      "velocity": 97,
      "chip": "ym2612"
    },
    {
      "channel": 4,
      "note": 59,
      "start": 49.2756,
      "duration": 0.345,
      "velocity": 97,
      "chip": "ym2612"
    },
    {
      "channel": 1,
      "note": 71,
      "start": 49.2779,
      "duration": 0.3425,
      "velocity": 97,
      "chip": "ym2612"
    },
    {
      "channel": 4,
      "note": 64,
      "start": 49.6634,
      "duration": 0.3233,
      "velocity": 97,
      "chip": "ym2612"
    },
    {
      "channel": 1,
      "note": 76,
      "start": 49.6658,
      "duration": 0.3208,
      "velocity": 97,
      "chip": "ym2612"
    },
    {
      "channel": 0,
      "note": 45,
      "start": 49.9983,
      "duration": 0.4163,
      "velocity": 97,
      "chip": "ym2612"
    },
    {
      "channel": 4,
      "note": 57,
      "start": 50.0016,
      "duration": 0.4133,
      "velocity": 97,
      "chip": "ym2612"
    },
    {
      "channel": 1,
      "note": 69,
      "start": 50.0039,
      "duration": 0.4108,
      "velocity": 97,
      "chip": "ym2612"
    },
    {
      "channel": 0,
      "note": 47,
      "start": 50.4373,
      "duration": 0.3233,
      "velocity": 97,
      "chip": "ym2612"
    },
    {
      "channel": 4,
      "note": 59,
      "start": 50.4398,
      "duration": 0.3209,
      "velocity": 97,
      "chip": "ym2612"
    },
    {
      "channel": 1,
      "note": 71,
      "start": 50.4422,
      "duration": 0.3185,
      "velocity": 97,
      "chip": "ym2612"
    },
    {
      "channel": 0,
      "note": 48,
      "start": 50.772,
      "duration": 0.3964,
      "velocity": 97,
      "chip": "ym2612"
    },
    {
      "channel": 4,
      "note": 60,
      "start": 50.7753,
      "duration": 0.3934,
      "velocity": 97,
      "chip": "ym2612"
    },
    {
      "channel": 1,
      "note": 72,
      "start": 50.7781,
      "duration": 0.3904,
      "velocity": 97,
      "chip": "ym2612"
    },
    {
      "channel": 0,
      "note": 52,
      "start": 51.1911,
      "duration": 0.3771,
      "velocity": 97,
      "chip": "ym2612"
    },
    {
      "channel": 4,
      "note": 64,
      "start": 51.1937,
      "duration": 0.3747,
      "velocity": 97,
      "chip": "ym2612"
    },
    {
      "channel": 1,
      "note": 76,
      "start": 51.1964,
      "duration": 0.3719,
      "velocity": 97,
      "chip": "ym2612"
    },
    {
      "channel": 0,
      "note": 45,
      "start": 51.5801,
      "duration": 2.9233,
      "velocity": 97,
      "chip": "ym2612"
    },
    {
      "channel": 4,
      "note": 57,
      "start": 51.5841,
      "duration": 2.9195,
      "velocity": 97,
      "chip": "ym2612"
    },
    {
      "channel": 1,
      "note": 69,
      "start": 51.5875,
      "duration": 2.916,
      "velocity": 97,
      "chip": "ym2612"
    },
    {
      "channel": 0,
      "note": 45,
      "start": 54.5175,
      "duration": 32.2409,
      "velocity": 97,
      "chip": "ym2612"
    }
  ]
}