{
  "track_name": "10 - The Spark",
  "duration_sec": 67.658,
  "sample_rate": 44100,
  "note_count": 2091,
  "unique_pitches": 22,
  "pitch_range": 70,
  "avg_note_duration": 0.1374,
  "reconstruction_stats": {
    "notes_reconstructed": 2091,
    "keyon_events": 2091,
    "keyoff_events": 2090,
    "orphan_keyons": 1,
    "unique_pitches": 22,
    "pitch_range": 70,
    "avg_duration_sec": 0.1374
  },
  "metadata": {
    "source": "G\\Gauntlet IV\\10 - The Spark.vgz"
  },
  "notes": [
    {
      "channel": 0,
      "note": 36,
      "start": 0.0,
      "duration": 0.0611,
      "velocity": 110,
      "chip": "ym2612"
    },
    {
      "channel": 1,
      "note": 64,
      "start": 0.0011,
      "duration": 0.1102,
      "velocity": 127,
      "chip": "ym2612"
    },
    {
      "channel": 3,
      "note": 72,
      "start": 0.0037,
      "duration": 0.0578,
      "velocity": 102,
      "chip": "ym2612"
    },
    {
      "channel": 4,
      "note": 67,
      "start": 0.012,
      "duration": 0.0665,
      "velocity": 102,
      "chip": "ym2612"
    },
    {
      "channel": 1,
      "note": 64,
      "start": 0.1114,
      "duration": 0.2335,
      "velocity": 127,
      "chip": "ym2612"
    },
    {
      "channel": 3,
      "note": 72,
      "start": 0.1122,
      "duration": 0.0662,
      "velocity": 102,
      "chip": "ym2612"
    },
    {
      "channel": 4,
      "note": 67,
      "start": 0.1285,
      "duration": 0.0669,
      "velocity": 102,
      "chip": "ym2612"
    },
    {
      "channel": 0,
      "note": 36,
      "start": 0.2278,
      "duration": 0.0668,
      "velocity": 110,
      "chip": "ym2612"
    },
    {
      "channel": 3,
      "note": 72,
      "start": 0.2288,
      "duration": 0.0665,
      "velocity": 102,
      "chip": "ym2612"
    },
    {
      "channel": 4,
      "note": 67,
      "start": 0.2454,
      "duration": 0.0664,
      "velocity": 102,
      "chip": "ym2612"
    },
    {
      "channel": 0,
      "note": 36,
      "start": 0.3448,
      "duration": 0.0663,
      "velocity": 110,
      "chip": "ym2612"
    },
    {
      "channel": 1,
      "note": 64,
      "start": 0.345,
      "duration": 0.1169,
      "velocity": 127,
      "chip": "ym2612"
    },
    {
      "channel": 3,
      "note": 70,
      "start": 0.346,
      "duration": 0.0656,
      "velocity": 102,
      "chip": "ym2612"
    },
    {
      "channel": 4,
      "note": 65,
      "start": 0.3619,
      "duration": 0.0666,
      "velocity": 102,
      "chip": "ym2612"
    },
    {
      "channel": 1,
      "note": 59,
      "start": 0.4621,
      "duration": 0.2334,
      "velocity": 127,
      "chip": "ym2612"
    },
    {
      "channel": 3,
      "note": 70,
      "start": 0.4629,
      "duration": 0.0655,
      "velocity": 102,
      "chip": "ym2612"
    },
    {
      "channel": 4,
      "note": 65,
      "start": 0.4785,
      "duration": 0.0669,
      "velocity": 102,
      "chip": "ym2612"
    },
    {
      "channel": 0,
      "note": 36,
      "start": 0.5778,
      "duration": 0.0668,
      "velocity": 110,
      "chip": "ym2612"
    },
    {
      "channel": 3,
      "note": 70,
      "start": 0.5788,
      "duration": 0.0665,
      "velocity": 102,
      "chip": "ym2612"
    },
    {
      "channel": 4,
      "note": 65,
      "start": 0.5954,
      "duration": 0.0664,
      "velocity": 102,
      "chip": "ym2612"
    },
    {
      "channel": 1,
      "note": 64,
      "start": 0.6957,
      "duration": 0.1156,
      "velocity": 127,
      "chip": "ym2612"
    },
    {
      "channel": 3,
      "note": 72,
      "start": 0.6966,
      "duration": 0.0651,
      "velocity": 102,
      "chip": "ym2612"
    },
    {
      "channel": 4,
      "note": 67,
      "start": 0.712,
      "duration": 0.0665,
      "velocity": 102,
      "chip": "ym2612"
    },
    {
      "channel": 0,
      "note": 36,
      "start": 0.8112,
      "duration": 0.2999,
      "velocity": 110,
      "chip": "ym2612"
    },
    {
      "channel": 1,
      "note": 64,
      "start": 0.8115,
      "duration": 0.2333,
      "velocity": 127,
      "chip": "ym2612"
    },
    {
      "channel": 3,
      "note": 72,
      "start": 0.8123,
      "duration": 0.066,
      "velocity": 102,
      "chip": "ym2612"
    },
    {
      "channel": 4,
      "note": 67,
      "start": 0.8285,
      "duration": 0.0669,
      "velocity": 102,
      "chip": "ym2612"
    },
    {
      "channel": 3,
      "note": 72,
      "start": 0.9286,
      "duration": 0.0666,
      "velocity": 102,
      "chip": "ym2612"
    },
    {
      "channel": 4,
      "note": 67,
      "start": 0.9455,
      "duration": 0.0663,
      "velocity": 102,
      "chip": "ym2612"
    },
    {
      "channel": 1,
      "note": 64,
      "start": 1.0449,
      "duration": 0.1171,
      "velocity": 127,
      "chip": "ym2612"
    },
    {
      "channel": 3,
      "note": 70,
      "start": 1.0459,
      "duration": 0.0659,
      "velocity": 102,
      "chip": "ym2612"
    },
    {
      "channel": 4,
      "note": 65,
      "start": 1.062,
      "duration": 0.0665,
      "velocity": 102,
      "chip": "ym2612"
    },
    {
      "channel": 0,
      "note": 37,
      "start": 1.1612,
      "duration": 0.1835,
      "velocity": 110,
      "chip": "ym2612"
    },
    {
      "channel": 1,
      "note": 59,
      "start": 1.1622,
      "duration": 0.2334,
      "velocity": 127,
      "chip": "ym2612"
    },
    {
      "channel": 3,
      "note": 70,
      "start": 1.163,
      "duration": 0.0653,
      "velocity": 102,
      "chip": "ym2612"
    },
    {
      "channel": 4,
      "note": 65,
      "start": 1.1785,
      "duration": 0.0669,
      "velocity": 102,
      "chip": "ym2612"
    },
    {
      "channel": 3,
      "note": 70,
      "start": 1.2786,
      "duration": 0.0667,
      "velocity": 102,
      "chip": "ym2612"
    },
    {
      "channel": 4,
      "note": 65,
      "start": 1.2955,
      "duration": 0.0664,
      "velocity": 102,
      "chip": "ym2612"
    },
    {
      "channel": 0,
      "note": 39,
      "start": 1.3948,
      "duration": 0.1829,
      "velocity": 110,
      "chip": "ym2612"
    },
    {
      "channel": 1,
      "note": 64,
      "start": 1.3957,
      "duration": 0.1161,
      "velocity": 127,
      "chip": "ym2612"
    },
    {
      "channel": 3,
      "note": 72,
      "start": 1.3967,
      "duration": 0.0649,
      "velocity": 102,
      "chip": "ym2612"
    },
    {
      "channel": 4,
      "note": 67,
      "start": 1.412,
      "duration": 0.0664,
      "velocity": 102,
      "chip": "ym2612"
    },
    {
      "channel": 1,
      "note": 59,
      "start": 1.512,
      "duration": 0.116,
      "velocity": 127,
      "chip": "ym2612"
    },
    {
      "channel": 3,
      "note": 72,
      "start": 1.5129,
      "duration": 0.0655,
      "velocity": 102,
      "chip": "ym2612"
    },
    {
      "channel": 4,
      "note": 67,
      "start": 1.5287,
      "duration": 0.0667,
      "velocity": 102,
      "chip": "ym2612"
    },
    {
      "channel": 0,
      "note": 37,
      "start": 1.6278,
      "duration": 0.1832,
      "velocity": 110,
      "chip": "ym2612"
    },
    {
      "channel": 1,
      "note": 59,
      "start": 1.6281,
      "duration": 0.1167,
      "velocity": 127,
      "chip": "ym2612"
    },
    {
      "channel": 3,
      "note": 70,
      "start": 1.6289,
      "duration": 0.0663,
      "velocity": 102,
      "chip": "ym2612"
    },
    {
      "channel": 4,
      "note": 65,
      "start": 1.6454,
      "duration": 0.0663,
      "velocity": 102,
      "chip": "ym2612"
    },
    {
      "channel": 1,
      "note": 59,
      "start": 1.7449,
      "duration": 0.1171,
      "velocity": 127,
      "chip": "ym2612"
    },
    {
      "channel": 3,
      "note": 70,
      "start": 1.7459,
      "duration": 0.0659,
      "velocity": 102,
      "chip": "ym2612"
    },
    {
      "channel": 4,
      "note": 65,
      "start": 1.762,
      "duration": 0.0665,
      "velocity": 102,
      "chip": "ym2612"
    },
    {
      "channel": 0,
      "note": 36,
      "start": 1.8612,
      "duration": 0.0666,
      "velocity": 110,
      "chip": "ym2612"
    },
    {
      "channel": 1,
      "note": 64,
      "start": 1.8622,
      "duration": 0.1158,
      "velocity": 127,
      "chip": "ym2612"
    },
    {
      "channel": 2,
      "note": 100,
      "start": 1.8632,
      "duration": 0.0981,
      "velocity": 109,
      "chip": "ym2612"
    },
    {
      "channel": 3,
      "note": 72,
      "start": 1.8642,
      "duration": 0.0641,
      "velocity": 102,
      "chip": "ym2612"
    },
    {
      "channel": 5,
      "note": 64,
      "start": 1.8656,
      "duration": 0.0964,
      "velocity": 115,
      "chip": "ym2612"
    },
    {
      "channel": 4,
      "note": 67,
      "start": 1.8786,
      "duration": 0.0667,
      "velocity": 102,
      "chip": "ym2612"
    },
    {
      "channel": 1,
      "note": 64,
      "start": 1.978,
      "duration": 0.2333,
      "velocity": 127,
      "chip": "ym2612"
    },
    {
      "channel": 2,
      "note": 100,
      "start": 1.9783,
      "duration": 0.0998,
      "velocity": 109,
      "chip": "ym2612"
    },
    {
      "channel": 3,
      "note": 72,
      "start": 1.9791,
      "duration": 0.0662,
      "velocity": 102,
      "chip": "ym2612"
    },
    {
      "channel": 5,
      "note": 64,
      "start": 1.9795,
      "duration": 0.0994,
      "velocity": 115,
      "chip": "ym2612"
    },
    {
      "channel": 4,
      "note": 67,
      "start": 1.9955,
      "duration": 0.0664,
      "velocity": 102,
      "chip": "ym2612"
    },
    {
      "channel": 0,
      "note": 36,
      "start": 2.0948,
      "duration": 0.0663,
      "velocity": 110,
      "chip": "ym2612"
    },
    {
      "channel": 2,
      "note": 100,
      "start": 2.0953,
      "duration": 0.0995,
      "velocity": 109,
      "chip": "ym2612"
    },
    {
      "channel": 3,
      "note": 72,
      "start": 2.0959,
      "duration": 0.0657,
      "velocity": 102,
      "chip": "ym2612"
    },
    {
      "channel": 5,
      "note": 64,
      "start": 2.0965,
      "duration": 0.0991,
      "velocity": 115,
      "chip": "ym2612"
    },
    {
      "channel": 4,
      "note": 67,
      "start": 2.1118,
      "duration": 0.0666,
      "velocity": 102,
      "chip": "ym2612"
    },
    {
      "channel": 0,
      "note": 36,
      "start": 2.2112,
      "duration": 0.0666,
      "velocity": 110,
      "chip": "ym2612"
    },
    {
      "channel": 1,
      "note": 64,
      "start": 2.2115,
      "duration": 0.1172,
      "velocity": 127,
      "chip": "ym2612"
    },
    {
      "channel": 2,
      "note": 100,
      "start": 2.2118,
      "duration": 0.0995,
      "velocity": 109,
      "chip": "ym2612"
    },
    {
      "channel": 3,
      "note": 70,
      "start": 2.2127,
      "duration": 0.0656,
      "velocity": 102,
      "chip": "ym2612"
    },
    {
      "channel": 5,
      "note": 64,
      "start": 2.2132,
      "duration": 0.0989,
      "velocity": 115,
      "chip": "ym2612"
    },
    {
      "channel": 4,
      "note": 65,
      "start": 2.2285,
      "duration": 0.0668,
      "velocity": 102,
      "chip": "ym2612"
    },
    {
      "channel": 1,
      "note": 59,
      "start": 2.3288,
      "duration": 0.2332,
      "velocity": 127,
      "chip": "ym2612"
    },
    {
      "channel": 2,
      "note": 100,
      "start": 2.3291,
      "duration": 0.099,
      "velocity": 109,
      "chip": "ym2612"
    },
    {
      "channel": 3,
      "note": 70,
      "start": 2.3298,
      "duration": 0.0655,
      "velocity": 102,
      "chip": "ym2612"
    },
    {
      "channel": 5,
      "note": 64,
      "start": 2.3303,
      "duration": 0.0985,
      "velocity": 115,
      "chip": "ym2612"
    },
    {
      "channel": 4,
      "note": 65,
      "start": 2.3455,
      "duration": 0.0664,
      "velocity": 102,
      "chip": "ym2612"
    },
    {
      "channel": 0,
      "note": 36,
      "start": 2.4448,
      "duration": 0.0663,
      "velocity": 110,
      "chip": "ym2612"
    },
    {
      "channel": 2,
      "note": 100,
      "start": 2.4452,
      "duration": 0.0996,
      "velocity": 109,
      "chip": "ym2612"
    },
    {
      "channel": 3,
      "note": 70,
      "start": 2.4459,
      "duration": 0.0657,
      "velocity": 102,
      "chip": "ym2612"
    },
    {
      "channel": 5,
      "note": 64,
      "start": 2.4465,
      "duration": 0.0991,
      "velocity": 115,
      "chip": "ym2612"
    },
    {
      "channel": 4,
      "note": 65,
      "start": 2.4618,
      "duration": 0.0667,
      "velocity": 102,
      "chip": "ym2612"
    },
    {
      "channel": 1,
      "note": 64,
      "start": 2.5621,
      "duration": 0.1159,
      "velocity": 127,
      "chip": "ym2612"
    },
    {
      "channel": 2,
      "note": 100,
      "start": 2.5623,
      "duration": 0.099,
      "velocity": 109,
      "chip": "ym2612"
    },
    {
      "channel": 3,
      "note": 72,
      "start": 2.5632,
      "duration": 0.0651,
      "velocity": 102,
      "chip": "ym2612"
    },
    {
      "channel": 5,
      "note": 64,
      "start": 2.5637,
      "duration": 0.0985,
      "velocity": 115,
      "chip": "ym2612"
    },
    {
      "channel": 4,
      "note": 67,
      "start": 2.5787,
      "duration": 0.0667,
      "velocity": 102,
      "chip": "ym2612"
    },
    {
      "channel": 0,
      "note": 36,
      "start": 2.6778,
      "duration": 0.2999,
      "velocity": 110,
      "chip": "ym2612"
    },
    {
      "channel": 1,
      "note": 64,
      "start": 2.6781,
      "duration": 0.2331,
      "velocity": 127,
      "chip": "ym2612"
    },
    {
      "channel": 2,
      "note": 100,
      "start": 2.6784,
      "duration": 0.0995,
      "velocity": 109,
      "chip": "ym2612"
    },
    {
      "channel": 3,
      "note": 72,
      "start": 2.6791,
      "duration": 0.066,
      "velocity": 102,
      "chip": "ym2612"
    },
    {
      "channel": 5,
      "note": 64,
      "start": 2.6796,
      "duration": 0.0992,
      "velocity": 115,
      "chip": "ym2612"
    },
    {
      "channel": 4,
      "note": 67,
      "start": 2.6954,
      "duration": 0.0663,
      "velocity": 102,
      "chip": "ym2612"
    },
    {
      "channel": 2,
      "note": 100,
      "start": 2.795,
      "duration": 0.0999,
      "velocity": 109,
      "chip": "ym2612"
    },
    {
      "channel": 3,
      "note": 72,
      "start": 2.7957,
      "duration": 0.0659,
      "velocity": 102,
      "chip": "ym2612"
    },
    {
      "channel": 5,
      "note": 64,
      "start": 2.7962,
      "duration": 0.0995,
      "velocity": 115,
      "chip": "ym2612"
    },
    {
      "channel": 4,
      "note": 67,
      "start": 2.8119,
      "duration": 0.0666,
      "velocity": 102,
      "chip": "ym2612"
    },
    {
      "channel": 1,
      "note": 64,
      "start": 2.9113,
      "duration": 0.1174,
      "velocity": 127,
      "chip": "ym2612"
    },
    {
      "channel": 2,
      "note": 100,
      "start": 2.9116,
      "duration": 0.0998,
      "velocity": 109,
      "chip": "ym2612"
    },
    {
      "channel": 3,
      "note": 70,
      "start": 2.9125,
      "duration": 0.0659,
      "velocity": 102,
      "chip": "ym2612"
    },
    {
      "channel": 5,
      "note": 64,
      "start": 2.9129,
      "duration": 0.0993,
      "velocity": 115,
      "chip": "ym2612"
    },
    {
      "channel": 4,
      "note": 65,
      "start": 2.9287,
      "duration": 0.0667,
      "velocity": 102,
      "chip": "ym2612"
    },
    {
      "channel": 0,
      "note": 34,
      "start": 3.0278,
      "duration": 0.1832,
      "velocity": 110,
      "chip": "ym2612"
    },
    {
      "channel": 1,
      "note": 59,
      "start": 3.0288,
      "duration": 0.2326,
      "velocity": 127,
      "chip": "ym2612"
    },
    {
      "channel": 2,
      "note": 100,
      "start": 3.0291,
      "duration": 0.0988,
      "velocity": 109,
      "chip": "ym2612"
    },
    {
      "channel": 3,
      "note": 70,
      "start": 3.0298,
      "duration": 0.0653,
      "velocity": 102,
      "chip": "ym2612"
    },
    {
      "channel": 5,
      "note": 64,
      "start": 3.0302,
      "duration": 0.0985,
      "velocity": 115,
      "chip": "ym2612"
    },
    {
      "channel": 4,
      "note": 65,
      "start": 3.0454,
      "duration": 0.0663,
      "velocity": 102,
      "chip": "ym2612"
    },
    {
      "channel": 2,
      "note": 100,
      "start": 3.145,
      "duration": 0.0999,
      "velocity": 109,
      "chip": "ym2612"
    },
    {
      "channel": 3,
      "note": 70,
      "start": 3.1457,
      "duration": 0.066,
      "velocity": 102,
      "chip": "ym2612"
    },
    {
      "channel": 5,
      "note": 64,
      "start": 3.1462,
      "duration": 0.0995,
      "velocity": 115,
      "chip": "ym2612"
    },
    {
      "channel": 4,
      "note": 65,
      "start": 3.1619,
      "duration": 0.0667,
      "velocity": 102,
      "chip": "ym2612"
    },
    {
      "channel": 0,
      "note": 32,
      "start": 3.2612,
      "duration": 0.1835,
      "velocity": 110,
      "chip": "ym2612"
    },
    {
      "channel": 1,
      "note": 59,
      "start": 3.2615,
      "duration": 0.1171,
      "velocity": 127,
      "chip": "ym2612"
    },
    {
      "channel": 2,
      "note": 100,
      "start": 3.2618,
      "duration": 0.0995,
      "velocity": 109,
      "chip": "ym2612"
    },
    {
      "channel": 3,
      "note": 72,
      "start": 3.2627,
      "duration": 0.0656,
      "velocity": 102,
      "chip": "ym2612"
    },
    {
      "channel": 5,
      "note": 64,
      "start": 3.2631,
      "duration": 0.099,
      "velocity": 115,
      "chip": "ym2612"
    },
    {
      "channel": 4,
      "note": 67,
      "start": 3.2786,
      "duration": 0.0667,
      "velocity": 102,
      "chip": "ym2612"
    },
    {
      "channel": 1,
      "note": 64,
      "start": 3.3786,
      "duration": 0.117,
      "velocity": 127,
      "chip": "ym2612"
    },
    {
      "channel": 2,
      "note": 100,
      "start": 3.379,
      "duration": 0.099,
      "velocity": 109,
      "chip": "ym2612"
    },
    {
      "channel": 3,
      "note": 72,
      "start": 3.3798,
      "duration": 0.0655,
      "velocity": 102,
      "chip": "ym2612"
    },
    {
      "channel": 5,
      "note": 64,
      "start": 3.3803,
      "duration": 0.0985,
      "velocity": 115,
      "chip": "ym2612"
    },
    {
      "channel": 4,
      "note": 67,
      "start": 3.3955,
      "duration": 0.0663,
      "velocity": 102,
      "chip": "ym2612"
    },
    {
      "channel": 0,
      "note": 34,
      "start": 3.4948,
      "duration": 0.1829,
      "velocity": 110,
      "chip": "ym2612"
    },
    {
      "channel": 1,
      "note": 59,
      "start": 3.4957,
      "duration": 0.1154,
      "velocity": 127,
      "chip": "ym2612"
    },
    {
      "channel": 2,
      "note": 100,
      "start": 3.4961,
      "duration": 0.0988,
      "velocity": 109,
      "chip": "ym2612"
    },
    {
      "channel": 3,
      "note": 70,
      "start": 3.4968,
      "duration": 0.0648,
      "velocity": 102,
      "chip": "ym2612"
    },
    {
      "channel": 5,
      "note": 64,
      "start": 3.4973,
      "duration": 0.0983,
      "velocity": 115,
      "chip": "ym2612"
    },
    {
      "channel": 4,
      "note": 65,
      "start": 3.5118,
      "duration": 0.0666,
      "velocity": 102,
      "chip": "ym2612"
    },
    {
      "channel": 1,
      "note": 59,
      "start": 3.6113,
      "duration": 0.1174,
      "velocity": 127,
      "chip": "ym2612"
    },
    {
      "channel": 2,
      "note": 100,
      "start": 3.6116,
      "duration": 0.0998,
      "velocity": 109,
      "chip": "ym2612"
    },
    {
      "channel": 3,
      "note": 70,
      "start": 3.6125,
      "duration": 0.0659,
      "velocity": 102,
      "chip": "ym2612"
    },
    {
      "channel": 5,
      "note": 64,
      "start": 3.6129,
      "duration": 0.0993,
      "velocity": 115,
      "chip": "ym2612"
    },
    {
      "channel": 4,
      "note": 65,
      "start": 3.6287,
      "duration": 0.0667,
      "velocity": 102,
      "chip": "ym2612"
    },
    {
      "channel": 0,
      "note": 36,
      "start": 3.7278,
      "duration": 0.0668,
      "velocity": 110,
      "chip": "ym2612"
    },
    {
      "channel": 1,
      "note": 64,
      "start": 3.7289,
      "duration": 0.116,
      "velocity": 127,
      "chip": "ym2612"
    },
    {
      "channel": 3,
      "note": 72,
      "start": 3.73,
      "duration": 0.0653,
      "velocity": 102,
      "chip": "ym2612"
    },
    {
      "channel": 4,
      "note": 67,
      "start": 3.7455,
      "duration": 0.0662,
      "velocity": 102,
      "chip": "ym2612"
    },
    {
      "channel": 1,
      "note": 64,
      "start": 3.845,
      "duration": 0.233,
      "velocity": 127,
      "chip": "ym2612"
    },
    {
      "channel": 3,
      "note": 72,
      "start": 3.8458,
      "duration": 0.0659,
      "velocity": 102,
      "chip": "ym2612"
    },
    {
      "channel": 4,
      "note": 67,
      "start": 3.8619,
      "duration": 0.0667,
      "velocity": 102,
      "chip": "ym2612"
    },
    {
      "channel": 0,
      "note": 36,
      "start": 3.9612,
      "duration": 0.0666,
      "velocity": 110,
      "chip": "ym2612"
    },
    {
      "channel": 3,
      "note": 72,
      "start": 3.9621,
      "duration": 0.0662,
      "velocity": 102,
      "chip": "ym2612"
    },
    {
      "channel": 4,
      "note": 67,
      "start": 3.9785,
      "duration": 0.0669,
      "velocity": 102,
      "chip": "ym2612"
    },
    {
      "channel": 0,
      "note": 36,
      "start": 4.0778,
      "duration": 0.0668,
      "velocity": 110,
      "chip": "ym2612"
    },
    {
      "channel": 1,
      "note": 64,
      "start": 4.0781,
      "duration": 0.1174,
      "velocity": 127,
      "chip": "ym2612"
    },
    {
      "channel": 3,
      "note": 70,
      "start": 4.0791,
      "duration": 0.0661,
      "velocity": 102,
      "chip": "ym2612"
    },
    {
      "channel": 4,
      "note": 65,
      "start": 4.0955,
      "duration": 0.0663,
      "velocity": 102,
      "chip": "ym2612"
    },
    {
      "channel": 1,
      "note": 59,
      "start": 4.1957,
      "duration": 0.2329,
      "velocity": 127,
      "chip": "ym2612"
    },
    {
      "channel": 3,
      "note": 70,
      "start": 4.1965,
      "duration": 0.0652,
      "velocity": 102,
      "chip": "ym2612"
    },
    {
      "channel": 4,
      "note": 65,
      "start": 4.2119,
      "duration": 0.0667,
      "velocity": 102,
      "chip": "ym2612"
    },
    {
      "channel": 0,
      "note": 36,
      "start": 4.3112,
      "duration": 0.0666,
      "velocity": 110,
      "chip": "ym2612"
    },
    {
      "channel": 3,
      "note": 70,
      "start": 4.3121,
      "duration": 0.0662,
      "velocity": 102,
      "chip": "ym2612"
    },
    {
      "channel": 4,
      "note": 65,
      "start": 4.3285,
      "duration": 0.0669,
      "velocity": 102,
      "chip": "ym2612"
    },
    {
      "channel": 1,
      "note": 64,
      "start": 4.4288,
      "duration": 0.1161,
      "velocity": 127,
      "chip": "ym2612"
    },
    {
      "channel": 3,
      "note": 72,
      "start": 4.4297,
      "duration": 0.0655,
      "velocity": 102,
      "chip": "ym2612"
    },
    {
      "channel": 4,
      "note": 67,
      "start": 4.4456,
      "duration": 0.0662,
      "velocity": 102,
      "chip": "ym2612"
    },
    {
      "channel": 0,
      "note": 36,
      "start": 4.5448,
      "duration": 0.2999,
      "velocity": 110,
      "chip": "ym2612"
    },
    {
      "channel": 1,
      "note": 64,
      "start": 4.545,
      "duration": 0.2328,
      "velocity": 127,
      "chip": "ym2612"
    },
    {
      "channel": 3,
      "note": 72,
      "start": 4.5459,
      "duration": 0.0658,
      "velocity": 102,
      "chip": "ym2612"
    },
    {
      "channel": 4,
      "note": 67,
      "start": 4.5618,
      "duration": 0.0666,
      "velocity": 102,
      "chip": "ym2612"
    },
    {
      "channel": 3,
      "note": 72,
      "start": 4.662,
      "duration": 0.0664,
      "velocity": 102,
      "chip": "ym2612"
    },
    {
      "channel": 4,
      "note": 67,
      "start": 4.6785,
      "duration": 0.0669,
      "velocity": 102,
      "chip": "ym2612"
    },
    {
      "channel": 1,
      "note": 64,
      "start": 4.778,
      "duration": 0.1176,
      "velocity": 127,
      "chip": "ym2612"
    },
    {
      "channel": 3,
      "note": 70,
      "start": 4.7789,
      "duration": 0.0663,
      "velocity": 102,
      "chip": "ym2612"
    },
    {
      "channel": 4,
      "note": 65,
      "start": 4.7955,
      "duration": 0.0663,
      "velocity": 102,
      "chip": "ym2612"
    },
    {
      "channel": 0,
      "note": 37,
      "start": 4.8948,
      "duration": 0.1829,
      "velocity": 110,
      "chip": "ym2612"
    },
    {
      "channel": 1,
      "note": 59,
      "start": 4.8957,
      "duration": 0.2329,
      "velocity": 127,
      "chip": "ym2612"
    },
    {
      "channel": 3,
      "note": 70,
      "start": 4.8965,
      "duration": 0.0651,
      "velocity": 102,
      "chip": "ym2612"
    },
    {
      "channel": 4,
      "note": 65,
      "start": 4.9118,
      "duration": 0.0666,
      "velocity": 102,
      "chip": "ym2612"
    },
    {
      "channel": 3,
      "note": 70,
      "start": 5.012,
      "duration": 0.0664,
      "velocity": 102,
      "chip": "ym2612"
    },
    {
      "channel": 4,
      "note": 65,
      "start": 5.0286,
      "duration": 0.0668,
      "velocity": 102,
      "chip": "ym2612"
    },
    {
      "channel": 0,
      "note": 39,
      "start": 5.1278,
      "duration": 0.1832,
      "velocity": 110,
      "chip": "ym2612"
    },
    {
      "channel": 1,
      "note": 64,
      "start": 5.1288,
      "duration": 0.1167,
      "velocity": 127,
      "chip": "ym2612"
    },
    {
      "channel": 3,
      "note": 72,
      "start": 5.1298,
      "duration": 0.0654,
      "velocity": 102,
      "chip": "ym2612"
    },
    {
      "channel": 4,
      "note": 67,
      "start": 5.1455,
      "duration": 0.0662,
      "velocity": 102,
      "chip": "ym2612"
    },
    {
      "channel": 1,
      "note": 59,
      "start": 5.2456,
      "duration": 0.1157,
      "velocity": 127,
      "chip": "ym2612"
    },
    {
      "channel": 3,
      "note": 72,
      "start": 5.2465,
      "duration": 0.0652,
      "velocity": 102,
      "chip": "ym2612"
    },
    {
      "channel": 4,
      "note": 67,
      "start": 5.262,
      "duration": 0.0665,
      "velocity": 102,
      "chip": "ym2612"
    },
    {
      "channel": 0,
      "note": 37,
      "start": 5.3612,
      "duration": 0.1835,
      "velocity": 110,
      "chip": "ym2612"
    },
    {
      "channel": 1,
      "note": 59,
      "start": 5.3615,
      "duration": 0.1164,
      "velocity": 127,
      "chip": "ym2612"
    },
    {
      "channel": 3,
      "note": 70,
      "start": 5.3622,
      "duration": 0.066,
      "velocity": 102,
      "chip": "ym2612"
    },
    {
      "channel": 4,
      "note": 65,
      "start": 5.3785,
      "duration": 0.0669,
      "velocity": 102,
      "chip": "ym2612"
    },
    {
      "channel": 1,
      "note": 59,
      "start": 5.478,
      "duration": 0.1176,
      "velocity": 127,
      "chip": "ym2612"
    },
    {
      "channel": 3,
      "note": 70,
      "start": 5.4789,
      "duration": 0.0663,
      "velocity": 102,
      "chip": "ym2612"
    },
    {
      "channel": 4,
      "note": 65,
      "start": 5.4955,
      "duration": 0.0663,
      "velocity": 102,
      "chip": "ym2612"
    },
    {
      "channel": 0,
      "note": 36,
      "start": 5.5948,
      "duration": 0.0663,
      "velocity": 110,
      "chip": "ym2612"
    },
    {
      "channel": 1,
      "note": 64,
      "start": 5.5957,
      "duration": 0.1156,
      "velocity": 127,
      "chip": "ym2612"
    },
    {
      "channel": 2,
      "note": 102,
      "start": 5.596,
      "duration": 0.0988,
      "velocity": 109,
      "chip": "ym2612"
    },
    {
      "channel": 3,
      "note": 72,
      "start": 5.5969,
      "duration": 0.0647,
      "velocity": 102,
      "chip": "ym2612"
    },
    {
      "channel": 5,
      "note": 64,
      "start": 5.5974,
      "duration": 0.0983,
      "velocity": 115,
      "chip": "ym2612"
    },
    {
      "channel": 4,
      "note": 67,
      "start": 5.612,
      "duration": 0.0665,
      "velocity": 102,
      "chip": "ym2612"
    },
    {
      "channel": 1,
      "note": 64,
      "start": 5.7114,
      "duration": 0.2335,
      "velocity": 127,
      "chip": "ym2612"
    },
    {
      "channel": 2,
      "note": 102,
      "start": 5.7116,
      "duration": 0.0998,
      "velocity": 109,
      "chip": "ym2612"
    },
    {
      "channel": 3,
      "note": 72,
      "start": 5.7124,
      "duration": 0.066,
      "velocity": 102,
      "chip": "ym2612"
    },
    {
      "channel": 5,
      "note": 64,
      "start": 5.7128,
      "duration": 0.0994,
      "velocity": 115,
      "chip": "ym2612"
    },
    {
      "channel": 4,
      "note": 67,
      "start": 5.7285,
      "duration": 0.0669,
      "velocity": 102,
      "chip": "ym2612"
    },
    {
      "channel": 0,
      "note": 36,
      "start": 5.8278,
      "duration": 0.0668,
      "velocity": 110,
      "chip": "ym2612"
    },
    {
      "channel": 2,
      "note": 102,
      "start": 5.8284,
      "duration": 0.0996,
      "velocity": 109,
      "chip": "ym2612"
    },
    {
      "channel": 3,
      "note": 72,
      "start": 5.8291,
      "duration": 0.0661,
      "velocity": 102,
      "chip": "ym2612"
    },
    {
      "channel": 5,
      "note": 64,
      "start": 5.8296,
      "duration": 0.0991,
      "velocity": 115,
      "chip": "ym2612"
    },
    {
      "channel": 4,
      "note": 67,
      "start": 5.8454,
      "duration": 0.0664,
      "velocity": 102,
      "chip": "ym2612"
    },
    {
      "channel": 0,
      "note": 36,
      "start": 5.9448,
      "duration": 0.0663,
      "velocity": 110,
      "chip": "ym2612"
    },
    {
      "channel": 1,
      "note": 64,
      "start": 5.945,
      "duration": 0.1169,
      "velocity": 127,
      "chip": "ym2612"
    },
    {
      "channel": 2,
      "note": 102,
      "start": 5.9454,
      "duration": 0.0995,
      "velocity": 109,
      "chip": "ym2612"
    },
    {
      "channel": 3,
      "note": 70,
      "start": 5.9462,
      "duration": 0.0654,
      "velocity": 102,
      "chip": "ym2612"
    },
    {
      "channel": 5,
      "note": 64,
      "start": 5.9468,
      "duration": 0.0989,
      "velocity": 115,
      "chip": "ym2612"
    },
    {
      "channel": 4,
      "note": 65,
      "start": 5.9619,
      "duration": 0.0666,
      "velocity": 102,
      "chip": "ym2612"
    },
    {
      "channel": 1,
      "note": 59,
      "start": 6.0621,
      "duration": 0.2334,
      "velocity": 127,
      "chip": "ym2612"
    },
    {
      "channel": 2,
      "note": 102,
      "start": 6.0624,
      "duration": 0.099,
      "velocity": 109,
      "chip": "ym2612"
    },
    {
      "channel": 3,
      "note": 70,
      "start": 6.0632,
      "duration": 0.0652,
      "velocity": 102,
      "chip": "ym2612"
    },
    {
      "channel": 5,
      "note": 64,
      "start": 6.0637,
      "duration": 0.0985,
      "velocity": 115,
      "chip": "ym2612"
    },
    {
      "channel": 4,
      "note": 65,
      "start": 6.0785,
      "duration": 0.0669,
      "velocity": 102,
      "chip": "ym2612"
    },
    {
      "channel": 0,
      "note": 36,
      "start": 6.1778,
      "duration": 0.0668,
      "velocity": 110,
      "chip": "ym2612"
    },
    {
      "channel": 2,
      "note": 102,
      "start": 6.1784,
      "duration": 0.0996,
      "velocity": 109,
      "chip": "ym2612"
    },
    {
      "channel": 3,
      "note": 70,
      "start": 6.1791,
      "duration": 0.0661,
      "velocity": 102,
      "chip": "ym2612"
    },
    {
      "channel": 5,
      "note": 64,
      "start": 6.1796,
      "duration": 0.0991,
      "velocity": 115,
      "chip": "ym2612"
    },
    {
      "channel": 4,
      "note": 65,
      "start": 6.1954,
      "duration": 0.0664,
      "velocity": 102,
      "chip": "ym2612"
    },
    {
      "channel": 1,
      "note": 64,
      "start": 6.2957,
      "duration": 0.1156,
      "velocity": 127,
      "chip": "ym2612"
    },
    {
      "channel": 2,
      "note": 102,
      "start": 6.2959,
      "duration": 0.099,
      "velocity": 109,
      "chip": "ym2612"
    },
    {
      "channel": 3,
      "note": 72,
      "start": 6.2968,
      "duration": 0.0649,
      "velocity": 102,
      "chip": "ym2612"
    },
    {
      "channel": 5,
      "note": 64,
      "start": 6.2973,
      "duration": 0.0985,
      "velocity": 115,
      "chip": "ym2612"
    },
    {
      "channel": 4,
      "note": 67,
      "start": 6.312,
      "duration": 0.0665,
      "velocity": 102,
      "chip": "ym2612"
    },
    {
      "channel": 0,
      "note": 36,
      "start": 6.4112,
      "duration": 0.2999,
      "velocity": 110,
      "chip": "ym2612"
    },
    {
      "channel": 1,
      "note": 64,
      "start": 6.4115,
      "duration": 0.2333,
      "velocity": 127,
      "chip": "ym2612"
    },
    {
      "channel": 2,
      "note": 102,
      "start": 6.4117,
      "duration": 0.0995,
      "velocity": 109,
      "chip": "ym2612"
    },
    {
      "channel": 3,
      "note": 72,
      "start": 6.4125,
      "duration": 0.0658,
      "velocity": 102,
      "chip": "ym2612"
    },
    {
      "channel": 5,
      "note": 64,
      "start": 6.4129,
      "duration": 0.0992,
      "velocity": 115,
      "chip": "ym2612"
    },
    {
      "channel": 4,
      "note": 67,
      "start": 6.4285,
      "duration": 0.0669,
      "velocity": 102,
      "chip": "ym2612"
    },
    {
      "channel": 2,
      "note": 102,
      "start": 6.5281,
      "duration": 0.0999,
      "velocity": 109,
      "chip": "ym2612"
    },
    {
      "channel": 3,
      "note": 72,
      "start": 6.5288,
      "duration": 0.0664,
      "velocity": 102,
      "chip": "ym2612"
    },
    {
      "channel": 5,
      "note": 64,
      "start": 6.5293,
      "duration": 0.0995,
      "velocity": 115,
      "chip": "ym2612"
    },
    {
      "channel": 4,
      "note": 67,
      "start": 6.5455,
      "duration": 0.0663,
      "velocity": 102,
      "chip": "ym2612"
    },
    {
      "channel": 1,
      "note": 64,
      "start": 6.6449,
      "duration": 0.1171,
      "velocity": 127,
      "chip": "ym2612"
    },
    {
      "channel": 2,
      "note": 102,
      "start": 6.6451,
      "duration": 0.0998,
      "velocity": 109,
      "chip": "ym2612"
    },
    {
      "channel": 3,
      "note": 70,
      "start": 6.6461,
      "duration": 0.0656,
      "velocity": 102,
      "chip": "ym2612"
    },
    {
      "channel": 5,
      "note": 64,
      "start": 6.6465,
      "duration": 0.0993,
      "velocity": 115,
      "chip": "ym2612"
    },
    {
      "channel": 4,
      "note": 65,
      "start": 6.662,
      "duration": 0.0665,
      "velocity": 102,
      "chip": "ym2612"
    },
    {
      "channel": 0,
      "note": 34,
      "start": 6.7612,
      "duration": 0.1835,
      "velocity": 110,
      "chip": "ym2612"
    },
    {
      "channel": 1,
      "note": 59,
      "start": 6.7622,
      "duration": 0.2327,
      "velocity": 127,
      "chip": "ym2612"
    },
    {
      "channel": 2,
      "note": 102,
      "start": 6.7624,
      "duration": 0.0988,
      "velocity": 109,
      "chip": "ym2612"
    },
    {
      "channel": 3,
      "note": 70,
      "start": 6.7632,
      "duration": 0.0651,
      "velocity": 102,
      "chip": "ym2612"
    },
    {
      "channel": 5,
      "note": 64,
      "start": 6.7635,
      "duration": 0.0985,
      "velocity": 115,
      "chip": "ym2612"
    },
    {
      "channel": 4,
      "note": 65,
      "start": 6.7785,
      "duration": 0.0669,
      "velocity": 102,
      "chip": "ym2612"
    },
    {
      "channel": 2,
      "note": 102,
      "start": 6.8781,
      "duration": 0.0999,
      "velocity": 109,
      "chip": "ym2612"
    },
    {
      "channel": 3,
      "note": 70,
      "start": 6.8788,
      "duration": 0.0665,
      "velocity": 102,
      "chip": "ym2612"
    },
    {
      "channel": 5,
      "note": 64,
      "start": 6.8793,
      "duration": 0.0995,
      "velocity": 115,
      "chip": "ym2612"
    },
    {
      "channel": 4,
      "note": 65,
      "start": 6.8955,
      "duration": 0.0664,
      "velocity": 102,
      "chip": "ym2612"
    },
    {
      "channel": 0,
      "note": 32,
      "start": 6.9948,
      "duration": 0.1829,
      "velocity": 110,
      "chip": "ym2612"
    },
    {
      "channel": 1,
      "note": 59,
      "start": 6.995,
      "duration": 0.1168,
      "velocity": 127,
      "chip": "ym2612"
    },
    {
      "channel": 2,
      "note": 102,
      "start": 6.9953,
      "duration": 0.0995,
      "velocity": 109,
      "chip": "ym2612"
    },
    {
      "channel": 3,
      "note": 72,
      "start": 6.9962,
      "duration": 0.0653,
      "velocity": 102,
      "chip": "ym2612"
    },
    {
      "channel": 5,
      "note": 64,
      "start": 6.9967,
      "duration": 0.099,
      "velocity": 115,
      "chip": "ym2612"
    },
    {
      "channel": 4,
      "note": 67,
      "start": 7.012,
      "duration": 0.0664,
      "velocity": 102,
      "chip": "ym2612"
    },
    {
      "channel": 1,
      "note": 64,
      "start": 7.112,
      "duration": 0.1167,
      "velocity": 127,
      "chip": "ym2612"
    },
    {
      "channel": 2,
      "note": 102,
      "start": 7.1123,
      "duration": 0.099,
      "velocity": 109,
      "chip": "ym2612"
    },
    {
      "channel": 3,
      "note": 72,
      "start": 7.1132,
      "duration": 0.0652,
      "velocity": 102,
      "chip": "ym2612"
    },
    {
      "channel": 5,
      "note": 64,
      "start": 7.1137,
      "duration": 0.0985,
      "velocity": 115,
      "chip": "ym2612"
    },
    {
      "channel": 4,
      "note": 67,
      "start": 7.1287,
      "duration": 0.0667,
      "velocity": 102,
      "chip": "ym2612"
    },
    {
      "channel": 0,
      "note": 34,
      "start": 7.2278,
      "duration": 0.1832,
      "velocity": 110,
      "chip": "ym2612"
    },
    {
      "channel": 1,
      "note": 59,
      "start": 7.2288,
      "duration": 0.116,
      "velocity": 127,
      "chip": "ym2612"
    },
    {
      "channel": 2,
      "note": 102,
      "start": 7.2291,
      "duration": 0.0988,
      "velocity": 109,
      "chip": "ym2612"
    },
    {
      "channel": 3,
      "note": 70,
      "start": 7.2298,
      "duration": 0.0653,
      "velocity": 102,
      "chip": "ym2612"
    },
    {
      "channel": 5,
      "note": 64,
      "start": 7.2303,
      "duration": 0.0983,
      "velocity": 115,
      "chip": "ym2612"
    },
    {
      "channel": 4,
      "note": 65,
      "start": 7.2454,
      "duration": 0.0663,
      "velocity": 102,
      "chip": "ym2612"
    },
    {
      "channel": 1,
      "note": 59,
      "start": 7.3449,
      "duration": 0.1172,
      "velocity": 127,
      "chip": "ym2612"
    },
    {
      "channel": 2,
      "note": 102,
      "start": 7.3451,
      "duration": 0.0998,
      "velocity": 109,
      "chip": "ym2612"
    },
    {
      "channel": 3,
      "note": 70,
      "start": 7.3461,
      "duration": 0.0656,
      "velocity": 102,
      "chip": "ym2612"
    },
    {
      "channel": 5,
      "note": 64,
      "start": 7.3465,
      "duration": 0.0993,
      "velocity": 115,
      "chip": "ym2612"
    },
    {
      "channel": 4,
      "note": 65,
      "start": 7.362,
      "duration": 0.0665,
      "velocity": 102,
      "chip": "ym2612"
    },
    {
      "channel": 0,
      "note": 36,
      "start": 7.4612,
      "duration": 0.0666,
      "velocity": 110,
      "chip": "ym2612"
    },
    {
      "channel": 1,
      "note": 64,
      "start": 7.4622,
      "duration": 0.1158,
      "velocity": 127,
      "chip": "ym2612"
    },
    {
      "channel": 3,
      "note": 72,
      "start": 7.4633,
      "duration": 0.065,
      "velocity": 102,
      "chip": "ym2612"
    },
    {
      "channel": 4,
      "note": 67,
      "start": 7.4786,
      "duration": 0.0667,
      "velocity": 102,
      "chip": "ym2612"
    },
    {
      "channel": 1,
      "note": 64,
      "start": 7.578,
      "duration": 0.2333,
      "velocity": 127,
      "chip": "ym2612"
    },
    {
      "channel": 3,
      "note": 72,
      "start": 7.5789,
      "duration": 0.0664,
      "velocity": 102,
      "chip": "ym2612"
    },
    {
      "channel": 4,
      "note": 67,
      "start": 7.5955,
      "duration": 0.0664,
      "velocity": 102,
      "chip": "ym2612"
    },
    {
      "channel": 0,
      "note": 36,
      "start": 7.6948,
      "duration": 0.0663,
      "velocity": 110,
      "chip": "ym2612"
    },
    {
      "channel": 3,
      "note": 72,
      "start": 7.6957,
      "duration": 0.066,
      "velocity": 102,
      "chip": "ym2612"
    },
    {
      "channel": 4,
      "note": 67,
      "start": 7.7118,
      "duration": 0.0667,
      "velocity": 102,
      "chip": "ym2612"
    },
    {
      "channel": 0,
      "note": 36,
      "start": 7.8112,
      "duration": 0.0666,
      "velocity": 110,
      "chip": "ym2612"
    },
    {
      "channel": 1,
      "note": 64,
      "start": 7.8115,
      "duration": 0.1172,
      "velocity": 127,
      "chip": "ym2612"
    },
    {
      "channel": 3,
      "note": 70,
      "start": 7.8124,
      "duration": 0.0659,
      "velocity": 102,
      "chip": "ym2612"
    },
    {
      "channel": 4,
      "note": 65,
      "start": 7.8285,
      "duration": 0.0668,
      "velocity": 102,
      "chip": "ym2612"
    },
    {
      "channel": 1,
      "note": 59,
      "start": 7.9288,
      "duration": 0.2332,
      "velocity": 127,
      "chip": "ym2612"
    },
    {
      "channel": 3,
      "note": 70,
      "start": 7.9296,
      "duration": 0.0657,
      "velocity": 102,
      "chip": "ym2612"
    },
    {
      "channel": 4,
      "note": 65,
      "start": 7.9455,
      "duration": 0.0664,
      "velocity": 102,
      "chip": "ym2612"
    },
    {
      "channel": 0,
      "note": 36,
      "start": 8.0448,
      "duration": 0.0663,
      "velocity": 110,
      "chip": "ym2612"
    },
    {
      "channel": 3,
      "note": 70,
      "start": 8.0457,
      "duration": 0.066,
      "velocity": 102,
      "chip": "ym2612"
    },
    {
      "channel": 4,
      "note": 65,
      "start": 8.0618,
      "duration": 0.0666,
      "velocity": 102,
      "chip": "ym2612"
    },
    {
      "channel": 1,
      "note": 64,
      "start": 8.1621,
      "duration": 0.1159,
      "velocity": 127,
      "chip": "ym2612"
    },
    {
      "channel": 3,
      "note": 72,
      "start": 8.1631,
      "duration": 0.0653,
      "velocity": 102,
      "chip": "ym2612"
    },
    {
      "channel": 4,
      "note": 67,
      "start": 8.1787,
      "duration": 0.0667,
      "velocity": 102,
      "chip": "ym2612"
    },
    {
      "channel": 0,
      "note": 36,
      "start": 8.2778,
      "duration": 0.2999,
      "velocity": 110,
      "chip": "ym2612"
    },
    {
      "channel": 1,
      "note": 64,
      "start": 8.2781,
      "duration": 0.2331,
      "velocity": 127,
      "chip": "ym2612"
    },
    {
      "channel": 3,
      "note": 72,
      "start": 8.2789,
      "duration": 0.0662,
      "velocity": 102,
      "chip": "ym2612"
    },
    {
      "channel": 4,
      "note": 67,
      "start": 8.2954,
      "duration": 0.0663,
      "velocity": 102,
      "chip": "ym2612"
    },
    {
      "channel": 3,
      "note": 72,
      "start": 8.3955,
      "duration": 0.0661,
      "velocity": 102,
      "chip": "ym2612"
    },
    {
      "channel": 4,
      "note": 67,
      "start": 8.4119,
      "duration": 0.0666,
      "velocity": 102,
      "chip": "ym2612"
    },
    {
      "channel": 1,
      "note": 64,
      "start": 8.5113,
      "duration": 0.1174,
      "velocity": 127,
      "chip": "ym2612"
    },
    {
      "channel": 3,
      "note": 70,
      "start": 8.5123,
      "duration": 0.0661,
      "velocity": 102,
      "chip": "ym2612"
    },
    {
      "channel": 4,
      "note": 65,
      "start": 8.5286,
      "duration": 0.0668,
      "velocity": 102,
      "chip": "ym2612"
    },
    {
      "channel": 0,
      "note": 37,
      "start": 8.6278,
      "duration": 0.1832,
      "velocity": 110,
      "chip": "ym2612"
    },
    {
      "channel": 1,
      "note": 59,
      "start": 8.6288,
      "duration": 0.2332,
      "velocity": 127,
      "chip": "ym2612"
    },
    {
      "channel": 3,
      "note": 70,
      "start": 8.6296,
      "duration": 0.0655,
      "velocity": 102,
      "chip": "ym2612"
    },
    {
      "channel": 4,
      "note": 65,
      "start": 8.6454,
      "duration": 0.0663,
      "velocity": 102,
      "chip": "ym2612"
    },
    {
      "channel": 3,
      "note": 70,
      "start": 8.7455,
      "duration": 0.0662,
      "velocity": 102,
      "chip": "ym2612"
    },
    {
      "channel": 4,
      "note": 65,
      "start": 8.7619,
      "duration": 0.0667,
      "velocity": 102,
      "chip": "ym2612"
    },
    {
      "channel": 0,
      "note": 39,
      "start": 8.8612,
      "duration": 0.1835,
      "velocity": 110,
      "chip": "ym2612"
    },
    {
      "channel": 1,
      "note": 64,
      "start": 8.8622,
      "duration": 0.1164,
      "velocity": 127,
      "chip": "ym2612"
    },
    {
      "channel": 3,
      "note": 72,
      "start": 8.8631,
      "duration": 0.0651,
      "velocity": 102,
      "chip": "ym2612"
    },
    {
      "channel": 4,
      "note": 67,
      "start": 8.8786,
      "duration": 0.0667,
      "velocity": 102,
      "chip": "ym2612"
    },
    {
      "channel": 1,
      "note": 59,
      "start": 8.9787,
      "duration": 0.1162,
      "velocity": 127,
      "chip": "ym2612"
    },
    {
      "channel": 3,
      "note": 72,
      "start": 8.9796,
      "duration": 0.0657,
      "velocity": 102,
      "chip": "ym2612"
    },
    {
      "channel": 4,
      "note": 67,
      "start": 8.9955,
      "duration": 0.0663,
      "velocity": 102,
      "chip": "ym2612"
    },
    {
      "channel": 0,
      "note": 37,
      "start": 9.0948,
      "duration": 0.1829,
      "velocity": 110,
      "chip": "ym2612"
    },
    {
      "channel": 1,
      "note": 59,
      "start": 9.095,
      "duration": 0.1161,
      "velocity": 127,
      "chip": "ym2612"
    },
    {
      "channel": 3,
      "note": 70,
      "start": 9.0958,
      "duration": 0.0658,
      "velocity": 102,
      "chip": "ym2612"
    },
    {
      "channel": 4,
      "note": 65,
      "start": 9.1118,
      "duration": 0.0666,
      "velocity": 102,
      "chip": "ym2612"
    },
    {
      "channel": 1,
      "note": 59,
      "start": 9.2113,
      "duration": 0.1174,
      "velocity": 127,
      "chip": "ym2612"
    },
    {
      "channel": 3,
      "note": 70,
      "start": 9.2123,
      "duration": 0.0661,
      "velocity": 102,
      "chip": "ym2612"
    },
    {
      "channel": 4,
      "note": 65,
      "start": 9.2287,
      "duration": 0.0667,
      "velocity": 102,
      "chip": "ym2612"
    },
    {
      "channel": 0,
      "note": 36,
      "start": 9.3278,
      "duration": 0.0668,
      "velocity": 110,
      "chip": "ym2612"
    },
    {
      "channel": 1,
      "note": 64,
      "start": 9.3288,
      "duration": 0.116,
      "velocity": 127,
      "chip": "ym2612"
    },
    {
      "channel": 2,
      "note": 100,
      "start": 9.3291,
      "duration": 0.0989,
      "velocity": 109,
      "chip": "ym2612"
    },
    {
      "channel": 3,
      "note": 72,
      "start": 9.33,
      "duration": 0.0652,
      "velocity": 102,
      "chip": "ym2612"
    },
    {
      "channel": 5,
      "note": 64,
      "start": 9.3305,
      "duration": 0.0983,
      "velocity": 115,
      "chip": "ym2612"
    },
    {
      "channel": 4,
      "note": 67,
      "start": 9.3455,
      "duration": 0.0662,
      "velocity": 102,
      "chip": "ym2612"
    },
    {
      "channel": 1,
      "note": 64,
      "start": 9.445,
      "duration": 0.233,
      "velocity": 127,
      "chip": "ym2612"
    },
    {
      "channel": 2,
      "note": 100,
      "start": 9.4452,
      "duration": 0.0998,
      "velocity": 109,
      "chip": "ym2612"
    },
    {
      "channel": 3,
      "note": 72,
      "start": 9.446,
      "duration": 0.0657,
      "velocity": 102,
      "chip": "ym2612"
    },
    {
      "channel": 5,
      "note": 64,
      "start": 9.4464,
      "duration": 0.0993,
      "velocity": 115,
      "chip": "ym2612"
    },
    {
      "channel": 4,
      "note": 67,
      "start": 9.4619,
      "duration": 0.0667,
      "velocity": 102,
      "chip": "ym2612"
    },
    {
      "channel": 0,
      "note": 36,
      "start": 9.5612,
      "duration": 0.0666,
      "velocity": 110,
      "chip": "ym2612"
    },
    {
      "channel": 2,
      "note": 100,
      "start": 9.5617,
      "duration": 0.0996,
      "velocity": 109,
      "chip": "ym2612"
    },
    {
      "channel": 3,
      "note": 72,
      "start": 9.5624,
      "duration": 0.0659,
      "velocity": 102,
      "chip": "ym2612"
    },
    {
      "channel": 5,
      "note": 64,
      "start": 9.5629,
      "duration": 0.0991,
      "velocity": 115,
      "chip": "ym2612"
    },
    {
      "channel": 4,
      "note": 67,
      "start": 9.5785,
      "duration": 0.0669,
      "velocity": 102,
      "chip": "ym2612"
    },
    {
      "channel": 0,
      "note": 36,
      "start": 9.6778,
      "duration": 0.0668,
      "velocity": 110,
      "chip": "ym2612"
    },
    {
      "channel": 1,
      "note": 64,
      "start": 9.6781,
      "duration": 0.1174,
      "velocity": 127,
      "chip": "ym2612"
    },
    {
      "channel": 2,
      "note": 100,
      "start": 9.6785,
      "duration": 0.0995,
      "velocity": 109,
      "chip": "ym2612"
    },
    {
      "channel": 3,
      "note": 70,
      "start": 9.6794,
      "duration": 0.0658,
      "velocity": 102,
      "chip": "ym2612"
    },
    {
      "channel": 5,
      "note": 64,
      "start": 9.6799,
      "duration": 0.0989,
      "velocity": 115,
      "chip": "ym2612"
    },
    {
      "channel": 4,
      "note": 65,
      "start": 9.6955,
      "duration": 0.0663,
      "velocity": 102,
      "chip": "ym2612"
    },
    {
      "channel": 1,
      "note": 59,
      "start": 9.7957,
      "duration": 0.2329,
      "velocity": 127,
      "chip": "ym2612"
    },
    {
      "channel": 2,
      "note": 100,
      "start": 9.796,
      "duration": 0.099,
      "velocity": 109,
      "chip": "ym2612"
    },
    {
      "channel": 3,
      "note": 70,
      "start": 9.7968,
      "duration": 0.0649,
      "velocity": 102,
      "chip": "ym2612"
    },
    {
      "channel": 5,
      "note": 64,
      "start": 9.7973,
      "duration": 0.0985,
      "velocity": 115,
      "chip": "ym2612"
    },
    {
      "channel": 4,
      "note": 65,
      "start": 9.8119,
      "duration": 0.0667,
      "velocity": 102,
      "chip": "ym2612"
    },
    {
      "channel": 0,
      "note": 36,
      "start": 9.9112,
      "duration": 0.0666,
      "velocity": 110,
      "chip": "ym2612"
    },
    {
      "channel": 2,
      "note": 100,
      "start": 9.9117,
      "duration": 0.0996,
      "velocity": 109,
      "chip": "ym2612"
    },
    {
      "channel": 3,
      "note": 70,
      "start": 9.9123,
      "duration": 0.066,
      "velocity": 102,
      "chip": "ym2612"
    },
    {
      "channel": 5,
      "note": 64,
      "start": 9.9129,
      "duration": 0.0991,
      "velocity": 115,
      "chip": "ym2612"
    },
    {
      "channel": 4,
      "note": 65,
      "start": 9.9285,
      "duration": 0.0669,
      "velocity": 102,
      "chip": "ym2612"
    },
    {
      "channel": 1,
      "note": 64,
      "start": 10.0288,
      "duration": 0.1161,
      "velocity": 127,
      "chip": "ym2612"
    },
    {
      "channel": 2,
      "note": 100,
      "start": 10.029,
      "duration": 0.099,
      "velocity": 109,
      "chip": "ym2612"
    },
    {
      "channel": 3,
      "note": 72,
      "start": 10.0299,
      "duration": 0.0653,
      "velocity": 102,
      "chip": "ym2612"
    },
    {
      "channel": 5,
      "note": 64,
      "start": 10.0303,
      "duration": 0.0985,
      "velocity": 115,
      "chip": "ym2612"
    },
    {
      "channel": 4,
      "note": 67,
      "start": 10.0456,
      "duration": 0.0662,
      "velocity": 102,
      "chip": "ym2612"
    },
    {
      "channel": 0,
      "note": 36,
      "start": 10.1448,
      "duration": 0.2999,
      "velocity": 110,
      "chip": "ym2612"
    },
    {
      "channel": 1,
      "note": 64,
      "start": 10.145,
      "duration": 0.2328,
      "velocity": 127,
      "chip": "ym2612"
    },
    {
      "channel": 2,
      "note": 100,
      "start": 10.1453,
      "duration": 0.0995,
      "velocity": 109,
      "chip": "ym2612"
    },
    {
      "channel": 3,
      "note": 72,
      "start": 10.1461,
      "duration": 0.0656,
      "velocity": 102,
      "chip": "ym2612"
    },
    {
      "channel": 5,
      "note": 64,
      "start": 10.1465,
      "duration": 0.0992,
      "velocity": 115,
      "chip": "ym2612"
    },
    {
      "channel": 4,
      "note": 67,
      "start": 10.1618,
      "duration": 0.0666,
      "velocity": 102,
      "chip": "ym2612"
    },
    {
      "channel": 2,
      "note": 100,
      "start": 10.2615,
      "duration": 0.0999,
      "velocity": 109,
      "chip": "ym2612"
    },
    {
      "channel": 3,
      "note": 72,
      "start": 10.2622,
      "duration": 0.0661,
      "velocity": 102,
      "chip": "ym2612"
    },
    {
      "channel": 5,
      "note": 64,
      "start": 10.2626,
      "duration": 0.0995,
      "velocity": 115,
      "chip": "ym2612"
    },
    {
      "channel": 4,
      "note": 67,
      "start": 10.2785,
      "duration": 0.0669,
      "velocity": 102,
      "chip": "ym2612"
    },
    {
      "channel": 1,
      "note": 64,
      "start": 10.378,
      "duration": 0.1176,
      "velocity": 127,
      "chip": "ym2612"
    },
    {
      "channel": 2,
      "note": 100,
      "start": 10.3782,
      "duration": 0.0998,
      "velocity": 109,
      "chip": "ym2612"
    },
    {
      "channel": 3,
      "note": 70,
      "start": 10.3791,
      "duration": 0.0661,
      "velocity": 102,
      "chip": "ym2612"
    },
    {
      "channel": 5,
      "note": 64,
      "start": 10.3796,
      "duration": 0.0993,
      "velocity": 115,
      "chip": "ym2612"
    },
    {
      "channel": 4,
      "note": 65,
      "start": 10.3955,
      "duration": 0.0663,
      "velocity": 102,
      "chip": "ym2612"
    },
    {
      "channel": 0,
      "note": 34,
      "start": 10.4948,
      "duration": 0.1829,
      "velocity": 110,
      "chip": "ym2612"
    },
    {
      "channel": 1,
      "note": 59,
      "start": 10.4957,
      "duration": 0.2324,
      "velocity": 127,
      "chip": "ym2612"
    },
    {
      "channel": 2,
      "note": 100,
      "start": 10.496,
      "duration": 0.0988,
      "velocity": 109,
      "chip": "ym2612"
    },
    {
      "channel": 3,
      "note": 70,
      "start": 10.4967,
      "duration": 0.0649,
      "velocity": 102,
      "chip": "ym2612"
    },
    {
      "channel": 5,
      "note": 64,
      "start": 10.4971,
      "duration": 0.0985,
      "velocity": 115,
      "chip": "ym2612"
    },
    {
      "channel": 4,
      "note": 65,
      "start": 10.5118,
      "duration": 0.0666,
      "velocity": 102,
      "chip": "ym2612"
    },
    {
      "channel": 2,
      "note": 100,
      "start": 10.6115,
      "duration": 0.0999,
      "velocity": 109,
      "chip": "ym2612"
    },
    {
      "channel": 3,
      "note": 70,
      "start": 10.6122,
      "duration": 0.0662,
      "velocity": 102,
      "chip": "ym2612"
    },
    {
      "channel": 5,
      "note": 64,
      "start": 10.6126,
      "duration": 0.0995,
      "velocity": 115,
      "chip": "ym2612"
    },
    {
      "channel": 4,
      "note": 65,
      "start": 10.6286,
      "duration": 0.0668,
      "velocity": 102,
      "chip": "ym2612"
    },
    {
      "channel": 0,
      "note": 32,
      "start": 10.7278,
      "duration": 0.1832,
      "velocity": 110,
      "chip": "ym2612"
    },
    {
      "channel": 1,
      "note": 59,
      "start": 10.7281,
      "duration": 0.1173,
      "velocity": 127,
      "chip": "ym2612"
    },
    {
      "channel": 2,
      "note": 100,
      "start": 10.7284,
      "duration": 0.0995,
      "velocity": 109,
      "chip": "ym2612"
    },
    {
      "channel": 3,
      "note": 72,
      "start": 10.7293,
      "duration": 0.0658,
      "velocity": 102,
      "chip": "ym2612"
    },
    {
      "channel": 5,
      "note": 64,
      "start": 10.7298,
      "duration": 0.099,
      "velocity": 115,
      "chip": "ym2612"
    },
    {
      "channel": 4,
      "note": 67,
      "start": 10.7455,
      "duration": 0.0662,
      "velocity": 102,
      "chip": "ym2612"
    },
    {
      "channel": 1,
      "note": 64,
      "start": 10.8455,
      "duration": 0.1165,
      "velocity": 127,
      "chip": "ym2612"
    },
    {
      "channel": 2,
      "note": 100,
      "start": 10.8459,
      "duration": 0.099,
      "velocity": 109,
      "chip": "ym2612"
    },
    {
      "channel": 3,
      "note": 72,
      "start": 10.8468,
      "duration": 0.0649,
      "velocity": 102,
      "chip": "ym2612"
    },
    {
      "channel": 5,
      "note": 64,
      "start": 10.8473,
      "duration": 0.0985,
      "velocity": 115,
      "chip": "ym2612"
    },
    {
      "channel": 4,
      "note": 67,
      "start": 10.862,
      "duration": 0.0665,
      "velocity": 102,
      "chip": "ym2612"
    },
    {
      "channel": 0,
      "note": 34,
      "start": 10.9612,
      "duration": 0.1835,
      "velocity": 110,
      "chip": "ym2612"
    },
    {
      "channel": 1,
      "note": 59,
      "start": 10.9622,
      "duration": 0.1157,
      "velocity": 127,
      "chip": "ym2612"
    },
    {
      "channel": 2,
      "note": 100,
      "start": 10.9625,
      "duration": 0.0988,
      "velocity": 109,
      "chip": "ym2612"
    },
    {
      "channel": 3,
      "note": 70,
      "start": 10.9632,
      "duration": 0.0651,
      "velocity": 102,
      "chip": "ym2612"
    },
    {
      "channel": 5,
      "note": 64,
      "start": 10.9637,
      "duration": 0.0983,
      "velocity": 115,
      "chip": "ym2612"
    },
    {
      "channel": 4,
      "note": 65,
      "start": 10.9785,
      "duration": 0.0669,
      "velocity": 102,
      "chip": "ym2612"
    },
    {
      "channel": 1,
      "note": 59,
      "start": 11.078,
      "duration": 0.1177,
      "velocity": 127,
      "chip": "ym2612"
    },
    {
      "channel": 2,
      "note": 100,
      "start": 11.0782,
      "duration": 0.0998,
      "velocity": 109,
      "chip": "ym2612"
    },
    {
      "channel": 3,
      "note": 70,
      "start": 11.0791,
      "duration": 0.0661,
      "velocity": 102,
      "chip": "ym2612"
    },
    {
      "channel": 5,
      "note": 64,
      "start": 11.0796,
      "duration": 0.0993,
      "velocity": 115,
      "chip": "ym2612"
    },
    {
      "channel": 4,
      "note": 65,
      "start": 11.0955,
      "duration": 0.0663,
      "velocity": 102,
      "chip": "ym2612"
    },
    {
      "channel": 0,
      "note": 36,
      "start": 11.1948,
      "duration": 0.0663,
      "velocity": 110,
      "chip": "ym2612"
    },
    {
      "channel": 1,
      "note": 64,
      "start": 11.1957,
      "duration": 0.1155,
      "velocity": 127,
      "chip": "ym2612"
    },
    {
      "channel": 3,
      "note": 72,
      "start": 11.1969,
      "duration": 0.0648,
      "velocity": 102,
      "chip": "ym2612"
    },
    {
      "channel": 4,
      "note": 67,
      "start": 11.212,
      "duration": 0.0665,
      "velocity": 102,
      "chip": "ym2612"
    },
    {
      "channel": 1,
      "note": 64,
      "start": 11.3114,
      "duration": 0.2335,
      "velocity": 127,
      "chip": "ym2612"
    },
    {
      "channel": 3,
      "note": 72,
      "start": 11.3122,
      "duration": 0.0662,
      "velocity": 102,
      "chip": "ym2612"
    },
    {
      "channel": 4,
      "note": 67,
      "start": 11.3285,
      "duration": 0.0669,
      "velocity": 102,
      "chip": "ym2612"
    },
    {
      "channel": 0,
      "note": 36,
      "start": 11.4278,
      "duration": 0.0668,
      "velocity": 110,
      "chip": "ym2612"
    },
    {
      "channel": 3,
      "note": 72,
      "start": 11.4288,
      "duration": 0.0665,
      "velocity": 102,
      "chip": "ym2612"
    },
    {
      "channel": 4,
      "note": 67,
      "start": 11.4454,
      "duration": 0.0663,
      "velocity": 102,
      "chip": "ym2612"
    },
    {
      "channel": 0,
      "note": 36,
      "start": 11.5448,
      "duration": 0.0663,
      "velocity": 110,
      "chip": "ym2612"
    },
    {
      "channel": 1,
      "note": 64,
      "start": 11.545,
      "duration": 0.1169,
      "velocity": 127,
      "chip": "ym2612"
    },
    {
      "channel": 3,
      "note": 70,
      "start": 11.546,
      "duration": 0.0656,
      "velocity": 102,
      "chip": "ym2612"
    },
    {
      "channel": 4,
      "note": 65,
      "start": 11.5619,
      "duration": 0.0666,
      "velocity": 102,
      "chip": "ym2612"
    },
    {
      "channel": 1,
      "note": 59,
      "start": 11.6621,
      "duration": 0.2334,
      "velocity": 127,
      "chip": "ym2612"
    },
    {
      "channel": 3,
      "note": 70,
      "start": 11.6629,
      "duration": 0.0655,
      "velocity": 102,
      "chip": "ym2612"
    },
    {
      "channel": 4,
      "note": 65,
      "start": 11.6785,
      "duration": 0.0669,
      "velocity": 102,
      "chip": "ym2612"
    },
    {
      "channel": 0,
      "note": 36,
      "start": 11.7778,
      "duration": 0.0668,
      "velocity": 110,
      "chip": "ym2612"
    },
    {
      "channel": 3,
      "note": 70,
      "start": 11.7788,
      "duration": 0.0665,
      "velocity": 102,
      "chip": "ym2612"
    },
    {
      "channel": 4,
      "note": 65,
      "start": 11.7954,
      "duration": 0.0663,
      "velocity": 102,
      "chip": "ym2612"
    },
    {
      "channel": 1,
      "note": 64,
      "start": 11.8957,
      "duration": 0.1156,
      "velocity": 127,
      "chip": "ym2612"
    },
    {
      "channel": 3,
      "note": 72,
      "start": 11.8966,
      "duration": 0.0651,
      "velocity": 102,
      "chip": "ym2612"
    },
    {
      "channel": 4,
      "note": 67,
      "start": 11.912,
      "duration": 0.0665,
      "velocity": 102,
      "chip": "ym2612"
    },
    {
      "channel": 0,
      "note": 36,
      "start": 12.0112,
      "duration": 0.2999,
      "velocity": 110,
      "chip": "ym2612"
    },
    {
      "channel": 1,
      "note": 64,
      "start": 12.0115,
      "duration": 0.2333,
      "velocity": 127,
      "chip": "ym2612"
    },
    {
      "channel": 3,
      "note": 72,
      "start": 12.0123,
      "duration": 0.066,
      "velocity": 102,
      "chip": "ym2612"
    },
    {
      "channel": 4,
      "note": 67,
      "start": 12.0285,
      "duration": 0.0669,
      "velocity": 102,
      "chip": "ym2612"
    },
    {
      "channel": 3,
      "note": 72,
      "start": 12.1286,
      "duration": 0.0666,
      "velocity": 102,
      "chip": "ym2612"
    },
    {
      "channel": 4,
      "note": 67,
      "start": 12.1455,
      "duration": 0.0663,
      "velocity": 102,
      "chip": "ym2612"
    },
    {
      "channel": 1,
      "note": 64,
      "start": 12.2449,
      "duration": 0.1171,
      "velocity": 127,
      "chip": "ym2612"
    },
    {
      "channel": 3,
      "note": 70,
      "start": 12.2459,
      "duration": 0.0659,
      "velocity": 102,
      "chip": "ym2612"
    },
    {
      "channel": 4,
      "note": 65,
      "start": 12.262,
      "duration": 0.0665,
      "velocity": 102,
      "chip": "ym2612"
    },
    {
      "channel": 0,
      "note": 37,
      "start": 12.3612,
      "duration": 0.1835,
      "velocity": 110,
      "chip": "ym2612"
    },
    {
      "channel": 1,
      "note": 59,
      "start": 12.3622,
      "duration": 0.2334,
      "velocity": 127,
      "chip": "ym2612"
    },
    {
      "channel": 3,
      "note": 70,
      "start": 12.363,
      "duration": 0.0653,
      "velocity": 102,
      "chip": "ym2612"
    },
    {
      "channel": 4,
      "note": 65,
      "start": 12.3785,
      "duration": 0.0669,
      "velocity": 102,
      "chip": "ym2612"
    },
    {
      "channel": 3,
      "note": 70,
      "start": 12.4786,
      "duration": 0.0667,
      "velocity": 102,
      "chip": "ym2612"
    },
    {
      "channel": 4,
      "note": 65,
      "start": 12.4955,
      "duration": 0.0664,
      "velocity": 102,
      "chip": "ym2612"
    },
    {
      "channel": 0,
      "note": 39,
      "start": 12.5948,
      "duration": 0.1829,
      "velocity": 110,
      "chip": "ym2612"
    },
    {
      "channel": 1,
      "note": 64,
      "start": 12.5957,
      "duration": 0.1161,
      "velocity": 127,
      "chip": "ym2612"
    },
    {
      "channel": 3,
      "note": 72,
      "start": 12.5967,
      "duration": 0.0649,
      "velocity": 102,
      "chip": "ym2612"
    },
    {
      "channel": 4,
      "note": 67,
      "start": 12.612,
      "duration": 0.0664,
      "velocity": 102,
      "chip": "ym2612"
    },
    {
      "channel": 1,
      "note": 59,
      "start": 12.712,
      "duration": 0.116,
      "velocity": 127,
      "chip": "ym2612"
    },
    {
      "channel": 3,
      "note": 72,
      "start": 12.7129,
      "duration": 0.0655,
      "velocity": 102,
      "chip": "ym2612"
    },
    {
      "channel": 4,
      "note": 67,
      "start": 12.7287,
      "duration": 0.0667,
      "velocity": 102,
      "chip": "ym2612"
    },
    {
      "channel": 0,
      "note": 37,
      "start": 12.8278,
      "duration": 0.1832,
      "velocity": 110,
      "chip": "ym2612"
    },
    {
      "channel": 1,
      "note": 59,
      "start": 12.8281,
      "duration": 0.1167,
      "velocity": 127,
      "chip": "ym2612"
    },
    {
      "channel": 3,
      "note": 70,
      "start": 12.8289,
      "duration": 0.0663,
      "velocity": 102,
      "chip": "ym2612"
    },
    {
      "channel": 4,
      "note": 65,
      "start": 12.8454,
      "duration": 0.0663,
      "velocity": 102,
      "chip": "ym2612"
    },
    {
      "channel": 1,
      "note": 59,
      "start": 12.9449,
      "duration": 0.1171,
      "velocity": 127,
      "chip": "ym2612"
    },
    {
      "channel": 3,
      "note": 70,
      "start": 12.9459,
      "duration": 0.0659,
      "velocity": 102,
      "chip": "ym2612"
    },
    {
      "channel": 4,
      "note": 65,
      "start": 12.962,
      "duration": 0.0665,
      "velocity": 102,
      "chip": "ym2612"
    },
    {
      "channel": 0,
      "note": 36,
      "start": 13.0612,
      "duration": 0.0666,
      "velocity": 110,
      "chip": "ym2612"
    },
    {
      "channel": 1,
      "note": 66,
      "start": 13.0622,
      "duration": 0.0657,
      "velocity": 127,
      "chip": "ym2612"
    },
    {
      "channel": 2,
      "note": 102,
      "start": 13.0624,
      "duration": 0.0989,
      "velocity": 109,
      "chip": "ym2612"
    },
    {
      "channel": 3,
      "note": 72,
      "start": 13.0634,
      "duration": 0.0651,
      "velocity": 102,
      "chip": "ym2612"
    },
    {
      "channel": 5,
      "note": 64,
      "start": 13.0638,
      "duration": 0.0983,
      "velocity": 115,
      "chip": "ym2612"
    },
    {
      "channel": 4,
      "note": 67,
      "start": 13.0786,
      "duration": 0.0667,
      "velocity": 102,
      "chip": "ym2612"
    },
    {
      "channel": 1,
      "note": 66,
      "start": 13.128,
      "duration": 0.05,
      "velocity": 127,
      "chip": "ym2612"
    },
    {
      "channel": 1,
      "note": 66,
      "start": 13.178,
      "duration": 0.1168,
      "velocity": 127,
      "chip": "ym2612"
    },
    {
      "channel": 2,
      "note": 102,
      "start": 13.1783,
      "duration": 0.0998,
      "velocity": 109,
      "chip": "ym2612"
    },
    {
      "channel": 3,
      "note": 72,
      "start": 13.1791,
      "duration": 0.0662,
      "velocity": 102,
      "chip": "ym2612"
    },
    {
      "channel": 5,
      "note": 64,
      "start": 13.1795,
      "duration": 0.0993,
      "velocity": 115,
      "chip": "ym2612"
    },
    {
      "channel": 4,
      "note": 67,
      "start": 13.1955,
      "duration": 0.0664,
      "velocity": 102,
      "chip": "ym2612"
    },
    {
      "channel": 0,
      "note": 36,
      "start": 13.2948,
      "duration": 0.0663,
      "velocity": 110,
      "chip": "ym2612"
    },
    {
      "channel": 1,
      "note": 66,
      "start": 13.295,
      "duration": 0.1163,
      "velocity": 127,
      "chip": "ym2612"
    },
    {
      "channel": 2,
      "note": 102,
      "start": 13.2954,
      "duration": 0.0995,
      "velocity": 109,
      "chip": "ym2612"
    },
    {
      "channel": 3,
      "note": 72,
      "start": 13.2961,
      "duration": 0.0656,
      "velocity": 102,
      "chip": "ym2612"
    },
    {
      "channel": 5,
      "note": 64,
      "start": 13.2966,
      "duration": 0.099,
      "velocity": 115,
      "chip": "ym2612"
    },
    {
      "channel": 4,
      "note": 67,
      "start": 13.3118,
      "duration": 0.0667,
      "velocity": 102,
      "chip": "ym2612"
    },
    {
      "channel": 0,
      "note": 36,
      "start": 13.4112,
      "duration": 0.0666,
      "velocity": 110,
      "chip": "ym2612"
    },
    {
      "channel": 1,
      "note": 64,
      "start": 13.4115,
      "duration": 0.0664,
      "velocity": 127,
      "chip": "ym2612"
    },
    {
      "channel": 2,
      "note": 102,
      "start": 13.4118,
      "duration": 0.0995,
      "velocity": 109,
      "chip": "ym2612"
    },
    {
      "channel": 3,
      "note": 70,
      "start": 13.4127,
      "duration": 0.0656,
      "velocity": 102,
      "chip": "ym2612"
    },
    {
      "channel": 5,
      "note": 64,
      "start": 13.4132,
      "duration": 0.0989,
      "velocity": 115,
      "chip": "ym2612"
    },
    {
      "channel": 4,
      "note": 65,
      "start": 13.4285,
      "duration": 0.0668,
      "velocity": 102,
      "chip": "ym2612"
    },
    {
      "channel": 1,
      "note": 64,
      "start": 13.478,
      "duration": 0.05,
      "velocity": 127,
      "chip": "ym2612"
    },
    {
      "channel": 1,
      "note": 64,
      "start": 13.528,
      "duration": 0.1168,
      "velocity": 127,
      "chip": "ym2612"
    },
    {
      "channel": 2,
      "note": 102,
      "start": 13.5284,
      "duration": 0.0996,
      "velocity": 109,
      "chip": "ym2612"
    },
    {
      "channel": 3,
      "note": 70,
      "start": 13.5292,
      "duration": 0.0661,
      "velocity": 102,
      "chip": "ym2612"
    },
    {
      "channel": 5,
      "note": 64,
      "start": 13.5297,
      "duration": 0.0992,
      "velocity": 115,
      "chip": "ym2612"
    },
    {
      "channel": 4,
      "note": 65,
      "start": 13.5455,
      "duration": 0.0664,
      "velocity": 102,
      "chip": "ym2612"
    },
    {
      "channel": 0,
      "note": 36,
      "start": 13.6448,
      "duration": 0.0663,
      "velocity": 110,
      "chip": "ym2612"
    },
    {
      "channel": 1,
      "note": 64,
      "start": 13.645,
      "duration": 0.1163,
      "velocity": 127,
      "chip": "ym2612"
    },
    {
      "channel": 2,
      "note": 102,
      "start": 13.6454,
      "duration": 0.0995,
      "velocity": 109,
      "chip": "ym2612"
    },
    {
      "channel": 3,
      "note": 70,
      "start": 13.6461,
      "duration": 0.0656,
      "velocity": 102,
      "chip": "ym2612"
    },
    {
      "channel": 5,
      "note": 64,
      "start": 13.6466,
      "duration": 0.099,
      "velocity": 115,
      "chip": "ym2612"
    },
    {
      "channel": 4,
      "note": 65,
      "start": 13.6618,
      "duration": 0.0666,
      "velocity": 102,
      "chip": "ym2612"
    },
    {
      "channel": 1,
      "note": 62,
      "start": 13.7614,
      "duration": 0.0665,
      "velocity": 127,
      "chip": "ym2612"
    },
    {
      "channel": 2,
      "note": 102,
      "start": 13.7616,
      "duration": 0.0998,
      "velocity": 109,
      "chip": "ym2612"
    },
    {
      "channel": 3,
      "note": 72,
      "start": 13.7626,
      "duration": 0.0659,
      "velocity": 102,
      "chip": "ym2612"
    },
    {
      "channel": 5,
      "note": 64,
      "start": 13.763,
      "duration": 0.0991,
      "velocity": 115,
      "chip": "ym2612"
    },
    {
      "channel": 4,
      "note": 67,
      "start": 13.7787,
      "duration": 0.0667,
      "velocity": 102,
      "chip": "ym2612"
    },
    {
      "channel": 1,
      "note": 62,
      "start": 13.828,
      "duration": 0.0499,
      "velocity": 127,
      "chip": "ym2612"
    },
    {
      "channel": 0,
      "note": 36,
      "start": 13.8778,
      "duration": 0.2999,
      "velocity": 110,
      "chip": "ym2612"
    },
    {
      "channel": 1,
      "note": 62,
      "start": 13.8781,
      "duration": 0.1167,
      "velocity": 127,
      "chip": "ym2612"
    },
    {
      "channel": 2,
      "note": 102,
      "start": 13.8784,
      "duration": 0.0995,
      "velocity": 109,
      "chip": "ym2612"
    },
    {
      "channel": 3,
      "note": 72,
      "start": 13.8791,
      "duration": 0.066,
      "velocity": 102,
      "chip": "ym2612"
    },
    {
      "channel": 5,
      "note": 64,
      "start": 13.8796,
      "duration": 0.0992,
      "velocity": 115,
      "chip": "ym2612"
    },
    {
      "channel": 4,
      "note": 67,
      "start": 13.8954,
      "duration": 0.0663,
      "velocity": 102,
      "chip": "ym2612"
    },
    {
      "channel": 1,
      "note": 62,
      "start": 13.9949,
      "duration": 0.1163,
      "velocity": 127,
      "chip": "ym2612"
    },
    {
      "channel": 2,
      "note": 102,
      "start": 13.9953,
      "duration": 0.0996,
      "velocity": 109,
      "chip": "ym2612"
    },
    {
      "channel": 3,
      "note": 72,
      "start": 13.9959,
      "duration": 0.0657,
      "velocity": 102,
      "chip": "ym2612"
    },
    {
      "channel": 5,
      "note": 64,
      "start": 13.9965,
      "duration": 0.0992,
      "velocity": 115,
      "chip": "ym2612"
    },
    {
      "channel": 4,
      "note": 67,
      "start": 14.0119,
      "duration": 0.0666,
      "velocity": 102,
      "chip": "ym2612"
    },
    {
      "channel": 1,
      "note": 57,
      "start": 14.1113,
      "duration": 0.0666,
      "velocity": 127,
      "chip": "ym2612"
    },
    {
      "channel": 2,
      "note": 102,
      "start": 14.1117,
      "duration": 0.0997,
      "velocity": 109,
      "chip": "ym2612"
    },
    {
      "channel": 3,
      "note": 70,
      "start": 14.1126,
      "duration": 0.0659,
      "velocity": 102,
      "chip": "ym2612"
    },
    {
      "channel": 5,
      "note": 64,
      "start": 14.1131,
      "duration": 0.0991,
      "velocity": 115,
      "chip": "ym2612"
    },
    {
      "channel": 4,
      "note": 65,
      "start": 14.1287,
      "duration": 0.0667,
      "velocity": 102,
      "chip": "ym2612"
    },
    {
      "channel": 1,
      "note": 57,
      "start": 14.178,
      "duration": 0.0499,
      "velocity": 127,
      "chip": "ym2612"
    },
    {
      "channel": 0,
      "note": 34,
      "start": 14.2278,
      "duration": 0.1832,
      "velocity": 110,
      "chip": "ym2612"
    },
    {
      "channel": 1,
      "note": 57,
      "start": 14.2281,
      "duration": 0.1167,
      "velocity": 127,
      "chip": "ym2612"
    },
    {
      "channel": 2,
      "note": 102,
      "start": 14.2284,
      "duration": 0.0995,
      "velocity": 109,
      "chip": "ym2612"
    },
    {
      "channel": 3,
      "note": 70,
      "start": 14.2291,
      "duration": 0.066,
      "velocity": 102,
      "chip": "ym2612"
    },
    {
      "channel": 5,
      "note": 64,
      "start": 14.2296,
      "duration": 0.0992,
      "velocity": 115,
      "chip": "ym2612"
    },
    {
      "channel": 4,
      "note": 65,
      "start": 14.2454,
      "duration": 0.0663,
      "velocity": 102,
      "chip": "ym2612"
    },
    {
      "channel": 1,
      "note": 57,
      "start": 14.3449,
      "duration": 0.1171,
      "velocity": 127,
      "chip": "ym2612"
    },
    {
      "channel": 2,
      "note": 102,
      "start": 14.3452,
      "duration": 0.0998,
      "velocity": 109,
      "chip": "ym2612"
    },
    {
      "channel": 3,
      "note": 70,
      "start": 14.3459,
      "duration": 0.0658,
      "velocity": 102,
      "chip": "ym2612"
    },
    {
      "channel": 5,
      "note": 64,
      "start": 14.3465,
      "duration": 0.0992,
      "velocity": 115,
      "chip": "ym2612"
    },
    {
      "channel": 4,
      "note": 65,
      "start": 14.362,
      "duration": 0.0666,
      "velocity": 102,
      "chip": "ym2612"
    },
    {
      "channel": 0,
      "note": 32,
      "start": 14.4612,
      "duration": 0.1835,
      "velocity": 110,
      "chip": "ym2612"
    },
    {
      "channel": 1,
      "note": 64,
      "start": 14.4621,
      "duration": 0.1165,
      "velocity": 127,
      "chip": "ym2612"
    },
    {
      "channel": 2,
      "note": 53,
      "start": 14.4633,
      "duration": 0.0646,
      "velocity": 111,
      "chip": "ym2612"
    },
    {
      "channel": 3,
      "note": 72,
      "start": 14.4642,
      "duration": 0.0641,
      "velocity": 102,
      "chip": "ym2612"
    },
    {
      "channel": 4,
      "note": 67,
      "start": 14.4786,
      "duration": 0.0667,
      "velocity": 102,
      "chip": "ym2612"
    },
    {
      "channel": 5,
      "note": 53,
      "start": 14.4798,
      "duration": 0.0657,
      "velocity": 111,
      "chip": "ym2612"
    },
    {
      "channel": 1,
      "note": 59,
      "start": 14.5787,
      "duration": 0.1162,
      "velocity": 127,
      "chip": "ym2612"
    },
    {
      "channel": 2,
      "note": 55,
      "start": 14.5789,
      "duration": 0.066,
      "velocity": 111,
      "chip": "ym2612"
    },
    {
      "channel": 3,
      "note": 72,
      "start": 14.5798,
      "duration": 0.0656,
      "velocity": 102,
      "chip": "ym2612"
    },
    {
      "channel": 4,
      "note": 67,
      "start": 14.5955,
      "duration": 0.0663,
      "velocity": 102,
      "chip": "ym2612"
    },
    {
      "channel": 5,
      "note": 55,
      "start": 14.5958,
      "duration": 0.0663,
      "velocity": 111,
      "chip": "ym2612"
    },
    {
      "channel": 0,
      "note": 34,
      "start": 14.6948,
      "duration": 0.1829,
      "velocity": 110,
      "chip": "ym2612"
    },
    {
      "channel": 1,
      "note": 59,
      "start": 14.695,
      "duration": 0.1161,
      "velocity": 127,
      "chip": "ym2612"
    },
    {
      "channel": 2,
      "note": 58,
      "start": 14.6953,
      "duration": 0.066,
      "velocity": 111,
      "chip": "ym2612"
    },
    {
      "channel": 3,
      "note": 70,
      "start": 14.696,
      "duration": 0.0656,
      "velocity": 102,
      "chip": "ym2612"
    },
    {
      "channel": 4,
      "note": 65,
      "start": 14.7118,
      "duration": 0.0667,
      "velocity": 102,
      "chip": "ym2612"
    },
    {
      "channel": 5,
      "note": 58,
      "start": 14.7122,
      "duration": 0.0665,
      "velocity": 111,
      "chip": "ym2612"
    },
    {
      "channel": 1,
      "note": 59,
      "start": 14.8113,
      "duration": 0.1174,
      "velocity": 127,
      "chip": "ym2612"
    },
    {
      "channel": 2,
      "note": 59,
      "start": 14.8116,
      "duration": 0.0665,
      "velocity": 111,
      "chip": "ym2612"
    },
    {
      "channel": 3,
      "note": 70,
      "start": 14.8125,
      "duration": 0.0659,
      "velocity": 102,
      "chip": "ym2612"
    },
    {
      "channel": 4,
      "note": 65,
      "start": 14.8287,
      "duration": 0.0667,
      "velocity": 102,
      "chip": "ym2612"
    },
    {
      "channel": 5,
      "note": 59,
      "start": 14.8289,
      "duration": 0.0667,
      "velocity": 111,
      "chip": "ym2612"
    },
    {
      "channel": 0,
      "note": 36,
      "start": 14.9278,
      "duration": 0.0668,
      "velocity": 110,
      "chip": "ym2612"
    },
    {
      "channel": 1,
      "note": 64,
      "start": 14.9289,
      "duration": 0.116,
      "velocity": 127,
      "chip": "ym2612"
    },
    {
      "channel": 2,
      "note": 60,
      "start": 14.9291,
      "duration": 3.2158,
      "velocity": 111,
      "chip": "ym2612"
    },
    {
      "channel": 3,
      "note": 72,
      "start": 14.9301,
      "duration": 0.0651,
      "velocity": 102,
      "chip": "ym2612"
    },
    {
      "channel": 4,
      "note": 67,
      "start": 14.9455,
      "duration": 0.0662,
      "velocity": 102,
      "chip": "ym2612"
    },
    {
      "channel": 5,
      "note": 60,
      "start": 14.9458,
      "duration": 3.2163,
      "velocity": 111,
      "chip": "ym2612"
    },
    {
      "channel": 1,
      "note": 64,
      "start": 15.045,
      "duration": 0.233,
      "velocity": 127,
      "chip": "ym2612"
    },
    {
      "channel": 3,
      "note": 72,
      "start": 15.0458,
      "duration": 0.0659,
      "velocity": 102,
      "chip": "ym2612"
    },
    {
      "channel": 4,
      "note": 67,
      "start": 15.0619,
      "duration": 0.0667,
      "velocity": 102,
      "chip": "ym2612"
    },
    {
      "channel": 0,
      "note": 36,
      "start": 15.1612,
      "duration": 0.0666,
      "velocity": 110,
      "chip": "ym2612"
    },
    {
      "channel": 3,
      "note": 72,
      "start": 15.1621,
      "duration": 0.0662,
      "velocity": 102,
      "chip": "ym2612"
    },
    {
      "channel": 4,
      "note": 67,
      "start": 15.1785,
      "duration": 0.0669,
      "velocity": 102,
      "chip": "ym2612"
    },
    {
      "channel": 0,
      "note": 36,
      "start": 15.2778,
      "duration": 0.0668,
      "velocity": 110,
      "chip": "ym2612"
    },
    {
      "channel": 1,
      "note": 64,
      "start": 15.2781,
      "duration": 0.1174,
      "velocity": 127,
      "chip": "ym2612"
    },
    {
      "channel": 3,
      "note": 70,
      "start": 15.2791,
      "duration": 0.0661,
      "velocity": 102,
      "chip": "ym2612"
    },
    {
      "channel": 4,
      "note": 65,
      "start": 15.2955,
      "duration": 0.0663,
      "velocity": 102,
      "chip": "ym2612"
    },
    {
      "channel": 1,
      "note": 59,
      "start": 15.3957,
      "duration": 0.2329,
      "velocity": 127,
      "chip": "ym2612"
    },
    {
      "channel": 3,
      "note": 70,
      "start": 15.3965,
      "duration": 0.0652,
      "velocity": 102,
      "chip": "ym2612"
    },
    {
      "channel": 4,
      "note": 65,
      "start": 15.4119,
      "duration": 0.0667,
      "velocity": 102,
      "chip": "ym2612"
    },
    {
      "channel": 0,
      "note": 36,
      "start": 15.5112,
      "duration": 0.0666,
      "velocity": 110,
      "chip": "ym2612"
    },
    {
      "channel": 3,
      "note": 70,
      "start": 15.5121,
      "duration": 0.0662,
      "velocity": 102,
      "chip": "ym2612"
    },
    {
      "channel": 4,
      "note": 65,
      "start": 15.5285,
      "duration": 0.0669,
      "velocity": 102,
      "chip": "ym2612"
    },
    {
      "channel": 1,
      "note": 64,
      "start": 15.6288,
      "duration": 0.1161,
      "velocity": 127,
      "chip": "ym2612"
    },
    {
      "channel": 3,
      "note": 72,
      "start": 15.6297,
      "duration": 0.0655,
      "velocity": 102,
      "chip": "ym2612"
    },
    {
      "channel": 4,
      "note": 67,
      "start": 15.6456,
      "duration": 0.0662,
      "velocity": 102,
      "chip": "ym2612"
    },
    {
      "channel": 0,
      "note": 36,
      "start": 15.7448,
      "duration": 0.2999,
      "velocity": 110,
      "chip": "ym2612"
    },
    {
      "channel": 1,
      "note": 64,
      "start": 15.745,
      "duration": 0.2328,
      "velocity": 127,
      "chip": "ym2612"
    },
    {
      "channel": 3,
      "note": 72,
      "start": 15.7459,
      "duration": 0.0657,
      "velocity": 102,
      "chip": "ym2612"
    },
    {
      "channel": 4,
      "note": 67,
      "start": 15.7618,
      "duration": 0.0666,
      "velocity": 102,
      "chip": "ym2612"
    },
    {
      "channel": 3,
      "note": 72,
      "start": 15.862,
      "duration": 0.0663,
      "velocity": 102,
      "chip": "ym2612"
    },
    {
      "channel": 4,
      "note": 67,
      "start": 15.8785,
      "duration": 0.0669,
      "velocity": 102,
      "chip": "ym2612"
    },
    {
      "channel": 1,
      "note": 64,
      "start": 15.978,
      "duration": 0.1176,
      "velocity": 127,
      "chip": "ym2612"
    },
    {
      "channel": 3,
      "note": 70,
      "start": 15.9789,
      "duration": 0.0663,
      "velocity": 102,
      "chip": "ym2612"
    },
    {
      "channel": 4,
      "note": 65,
      "start": 15.9955,
      "duration": 0.0663,
      "velocity": 102,
      "chip": "ym2612"
    },
    {
      "channel": 0,
      "note": 37,
      "start": 16.0948,
      "duration": 0.1829,
      "velocity": 110,
      "chip": "ym2612"
    },
    {
      "channel": 1,
      "note": 59,
      "start": 16.0957,
      "duration": 0.233,
      "velocity": 127,
      "chip": "ym2612"
    },
    {
      "channel": 3,
      "note": 70,
      "start": 16.0965,
      "duration": 0.0651,
      "velocity": 102,
      "chip": "ym2612"
    },
    {
      "channel": 4,
      "note": 65,
      "start": 16.1118,
      "duration": 0.0666,
      "velocity": 102,
      "chip": "ym2612"
    },
    {
      "channel": 3,
      "note": 70,
      "start": 16.212,
      "duration": 0.0664,
      "velocity": 102,
      "chip": "ym2612"
    },
    {
      "channel": 4,
      "note": 65,
      "start": 16.2285,
      "duration": 0.0669,
      "velocity": 102,
      "chip": "ym2612"
    },
    {
      "channel": 0,
      "note": 39,
      "start": 16.3278,
      "duration": 0.1832,
      "velocity": 110,
      "chip": "ym2612"
    },
    {
      "channel": 1,
      "note": 64,
      "start": 16.3288,
      "duration": 0.1167,
      "velocity": 127,
      "chip": "ym2612"
    },
    {
      "channel": 3,
      "note": 72,
      "start": 16.3298,
      "duration": 0.0654,
      "velocity": 102,
      "chip": "ym2612"
    },
    {
      "channel": 4,
      "note": 67,
      "start": 16.3455,
      "duration": 0.0662,
      "velocity": 102,
      "chip": "ym2612"
    },
    {
      "channel": 1,
      "note": 59,
      "start": 16.4456,
      "duration": 0.1157,
      "velocity": 127,
      "chip": "ym2612"
    },
    {
      "channel": 3,
      "note": 72,
      "start": 16.4465,
      "duration": 0.0652,
      "velocity": 102,
      "chip": "ym2612"
    },
    {
      "channel": 4,
      "note": 67,
      "start": 16.462,
      "duration": 0.0665,
      "velocity": 102,
      "chip": "ym2612"
    },
    {
      "channel": 0,
      "note": 37,
      "start": 16.5612,
      "duration": 0.1835,
      "velocity": 110,
      "chip": "ym2612"
    },
    {
      "channel": 1,
      "note": 59,
      "start": 16.5615,
      "duration": 0.1164,
      "velocity": 127,
      "chip": "ym2612"
    },
    {
      "channel": 3,
      "note": 70,
      "start": 16.5622,
      "duration": 0.066,
      "velocity": 102,
      "chip": "ym2612"
    },
    {
      "channel": 4,
      "note": 65,
      "start": 16.5785,
      "duration": 0.0669,
      "velocity": 102,
      "chip": "ym2612"
    },
    {
      "channel": 1,
      "note": 59,
      "start": 16.678,
      "duration": 0.1176,
      "velocity": 127,
      "chip": "ym2612"
    },
    {
      "channel": 3,
      "note": 70,
      "start": 16.6789,
      "duration": 0.0663,
      "velocity": 102,
      "chip": "ym2612"
    },
    {
      "channel": 4,
      "note": 65,
      "start": 16.6955,
      "duration": 0.0663,
      "velocity": 102,
      "chip": "ym2612"
    },
    {
      "channel": 0,
      "note": 36,
      "start": 16.7948,
      "duration": 0.0663,
      "velocity": 110,
      "chip": "ym2612"
    },
    {
      "channel": 1,
      "note": 64,
      "start": 16.7957,
      "duration": 0.1155,
      "velocity": 127,
      "chip": "ym2612"
    },
    {
      "channel": 3,
      "note": 72,
      "start": 16.7969,
      "duration": 0.0648,
      "velocity": 102,
      "chip": "ym2612"
    },
    {
      "channel": 4,
      "note": 67,
      "start": 16.812,
      "duration": 0.0665,
      "velocity": 102,
      "chip": "ym2612"
    },
    {
      "channel": 1,
      "note": 64,
      "start": 16.9114,
      "duration": 0.2335,
      "velocity": 127,
      "chip": "ym2612"
    },
    {
      "channel": 3,
      "note": 72,
      "start": 16.9122,
      "duration": 0.0662,
      "velocity": 102,
      "chip": "ym2612"
    },
    {
      "channel": 4,
      "note": 67,
      "start": 16.9285,
      "duration": 0.0669,
      "velocity": 102,
      "chip": "ym2612"
    },
    {
      "channel": 0,
      "note": 36,
      "start": 17.0278,
      "duration": 0.0668,
      "velocity": 110,
      "chip": "ym2612"
    },
    {
      "channel": 3,
      "note": 72,
      "start": 17.0288,
      "duration": 0.0665,
      "velocity": 102,
      "chip": "ym2612"
    },
    {
      "channel": 4,
      "note": 67,
      "start": 17.0454,
      "duration": 0.0664,
      "velocity": 102,
      "chip": "ym2612"
    },
    {
      "channel": 0,
      "note": 36,
      "start": 17.1448,
      "duration": 0.0663,
      "velocity": 110,
      "chip": "ym2612"
    },
    {
      "channel": 1,
      "note": 64,
      "start": 17.145,
      "duration": 0.1169,
      "velocity": 127,
      "chip": "ym2612"
    },
    {
      "channel": 3,
      "note": 70,
      "start": 17.146,
      "duration": 0.0656,
      "velocity": 102,
      "chip": "ym2612"
    },
    {
      "channel": 4,
      "note": 65,
      "start": 17.1619,
      "duration": 0.0666,
      "velocity": 102,
      "chip": "ym2612"
    },
    {
      "channel": 1,
      "note": 59,
      "start": 17.2621,
      "duration": 0.2334,
      "velocity": 127,
      "chip": "ym2612"
    },
    {
      "channel": 3,
      "note": 70,
      "start": 17.2629,
      "duration": 0.0655,
      "velocity": 102,
      "chip": "ym2612"
    },
    {
      "channel": 4,
      "note": 65,
      "start": 17.2785,
      "duration": 0.0669,
      "velocity": 102,
      "chip": "ym2612"
    },
    {
      "channel": 0,
      "note": 36,
      "start": 17.3778,
      "duration": 0.0668,
      "velocity": 110,
      "chip": "ym2612"
    },
    {
      "channel": 3,
      "note": 70,
      "start": 17.3788,
      "duration": 0.0665,
      "velocity": 102,
      "chip": "ym2612"
    },
    {
      "channel": 4,
      "note": 65,
      "start": 17.3954,
      "duration": 0.0664,
      "velocity": 102,
      "chip": "ym2612"
    },
    {
      "channel": 1,
      "note": 64,
      "start": 17.4957,
      "duration": 0.1156,
      "velocity": 127,
      "chip": "ym2612"
    },
    {
      "channel": 3,
      "note": 72,
      "start": 17.4966,
      "duration": 0.0651,
      "velocity": 102,
      "chip": "ym2612"
    },
    {
      "channel": 4,
      "note": 67,
      "start": 17.512,
      "duration": 0.0665,
      "velocity": 102,
      "chip": "ym2612"
    },
    {
      "channel": 0,
      "note": 36,
      "start": 17.6112,
      "duration": 0.2999,
      "velocity": 110,
      "chip": "ym2612"
    },
    {
      "channel": 1,
      "note": 64,
      "start": 17.6115,
      "duration": 0.2333,
      "velocity": 127,
      "chip": "ym2612"
    },
    {
      "channel": 3,
      "note": 72,
      "start": 17.6123,
      "duration": 0.066,
      "velocity": 102,
      "chip": "ym2612"
    },
    {
      "channel": 4,
      "note": 67,
      "start": 17.6285,
      "duration": 0.0669,
      "velocity": 102,
      "chip": "ym2612"
    },
    {
      "channel": 3,
      "note": 72,
      "start": 17.7286,
      "duration": 0.0666,
      "velocity": 102,
      "chip": "ym2612"
    },
    {
      "channel": 4,
      "note": 67,
      "start": 17.7455,
      "duration": 0.0663,
      "velocity": 102,
      "chip": "ym2612"
    },
    {
      "channel": 1,
      "note": 64,
      "start": 17.8449,
      "duration": 0.1171,
      "velocity": 127,
      "chip": "ym2612"
    },
    {
      "channel": 3,
      "note": 70,
      "start": 17.8459,
      "duration": 0.0659,
      "velocity": 102,
      "chip": "ym2612"
    },
    {
      "channel": 4,
      "note": 65,
      "start": 17.862,
      "duration": 0.0665,
      "velocity": 102,
      "chip": "ym2612"
    },
    {
      "channel": 0,
      "note": 34,
      "start": 17.9612,
      "duration": 0.1835,
      "velocity": 110,
      "chip": "ym2612"
    },
    {
      "channel": 1,
      "note": 59,
      "start": 17.9622,
      "duration": 0.2327,
      "velocity": 127,
      "chip": "ym2612"
    },
    {
      "channel": 3,
      "note": 70,
      "start": 17.963,
      "duration": 0.0653,
      "velocity": 102,
      "chip": "ym2612"
    },
    {
      "channel": 4,
      "note": 65,
      "start": 17.9785,
      "duration": 0.0669,
      "velocity": 102,
      "chip": "ym2612"
    },
    {
      "channel": 3,
      "note": 70,
      "start": 18.0786,
      "duration": 0.0667,
      "velocity": 102,
      "chip": "ym2612"
    },
    {
      "channel": 4,
      "note": 65,
      "start": 18.0955,
      "duration": 0.0664,
      "velocity": 102,
      "chip": "ym2612"
    },
    {
      "channel": 0,
      "note": 32,
      "start": 18.1948,
      "duration": 0.1829,
      "velocity": 110,
      "chip": "ym2612"
    },
    {
      "channel": 1,
      "note": 59,
      "start": 18.195,
      "duration": 0.1168,
      "velocity": 127,
      "chip": "ym2612"
    },
    {
      "channel": 2,
      "note": 62,
      "start": 18.1953,
      "duration": 0.4161,
      "velocity": 111,
      "chip": "ym2612"
    },
    {
      "channel": 3,
      "note": 72,
      "start": 18.1962,
      "duration": 0.0653,
      "velocity": 102,
      "chip": "ym2612"
    },
    {
      "channel": 4,
      "note": 67,
      "start": 18.212,
      "duration": 0.0664,
      "velocity": 102,
      "chip": "ym2612"
    },
    {
      "channel": 5,
      "note": 62,
      "start": 18.2122,
      "duration": 0.4165,
      "velocity": 111,
      "chip": "ym2612"
    },
    {
      "channel": 1,
      "note": 64,
      "start": 18.312,
      "duration": 0.1167,
      "velocity": 127,
      "chip": "ym2612"
    },
    {
      "channel": 3,
      "note": 72,
      "start": 18.3129,
      "duration": 0.0655,
      "velocity": 102,
      "chip": "ym2612"
    },
    {
      "channel": 4,
      "note": 67,
      "start": 18.3287,
      "duration": 0.0667,
      "velocity": 102,
      "chip": "ym2612"
    },
    {
      "channel": 0,
      "note": 34,
      "start": 18.4278,
      "duration": 0.1832,
      "velocity": 110,
      "chip": "ym2612"
    },
    {
      "channel": 1,
      "note": 59,
      "start": 18.4288,
      "duration": 0.116,
      "velocity": 127,
      "chip": "ym2612"
    },
    {
      "channel": 3,
      "note": 70,
      "start": 18.4296,
      "duration": 0.0656,
      "velocity": 102,
      "chip": "ym2612"
    },
    {
      "channel": 4,
      "note": 65,
      "start": 18.4454,
      "duration": 0.0663,
      "velocity": 102,
      "chip": "ym2612"
    },
    {
      "channel": 1,
      "note": 59,
      "start": 18.5449,
      "duration": 0.1172,
      "velocity": 127,
      "chip": "ym2612"
    },
    {
      "channel": 3,
      "note": 70,
      "start": 18.5459,
      "duration": 0.0659,
      "velocity": 102,
      "chip": "ym2612"
    },
    {
      "channel": 4,
      "note": 65,
      "start": 18.562,
      "duration": 0.0665,
      "velocity": 102,
      "chip": "ym2612"
    },
    {
      "channel": 0,
      "note": 36,
      "start": 18.6612,
      "duration": 0.0666,
      "velocity": 110,
      "chip": "ym2612"
    },
    {
      "channel": 1,
      "note": 64,
      "start": 18.6622,
      "duration": 0.1158,
      "velocity": 127,
      "chip": "ym2612"
    },
    {
      "channel": 2,
      "note": 63,
      "start": 18.6625,
      "duration": 3.2156,
      "velocity": 111,
      "chip": "ym2612"
    },
    {
      "channel": 3,
      "note": 72,
      "start": 18.6634,
      "duration": 0.0649,
      "velocity": 102,
      "chip": "ym2612"
    },
    {
      "channel": 4,
      "note": 67,
      "start": 18.6786,
      "duration": 0.0667,
      "velocity": 102,
      "chip": "ym2612"
    },
    {
      "channel": 5,
      "note": 63,
      "start": 18.6789,
      "duration": 3.2168,
      "velocity": 111,
      "chip": "ym2612"
    },
    {
      "channel": 1,
      "note": 64,
      "start": 18.778,
      "duration": 0.2333,
      "velocity": 127,
      "chip": "ym2612"
    },
    {
      "channel": 3,
      "note": 72,
      "start": 18.7789,
      "duration": 0.0664,
      "velocity": 102,
      "chip": "ym2612"
    },
    {
      "channel": 4,
      "note": 67,
      "start": 18.7955,
      "duration": 0.0664,
      "velocity": 102,
      "chip": "ym2612"
    },
    {
      "channel": 0,
      "note": 36,
      "start": 18.8948,
      "duration": 0.0663,
      "velocity": 110,
      "chip": "ym2612"
    },
    {
      "channel": 3,
      "note": 72,
      "start": 18.8957,
      "duration": 0.066,
      "velocity": 102,
      "chip": "ym2612"
    },
    {
      "channel": 4,
      "note": 67,
      "start": 18.9118,
      "duration": 0.0666,
      "velocity": 102,
      "chip": "ym2612"
    },
    {
      "channel": 0,
      "note": 36,
      "start": 19.0112,
      "duration": 0.0666,
      "velocity": 110,
      "chip": "ym2612"
    },
    {
      "channel": 1,
      "note": 64,
      "start": 19.0115,
      "duration": 0.1172,
      "velocity": 127,
      "chip": "ym2612"
    },
    {
      "channel": 3,
      "note": 70,
      "start": 19.0124,
      "duration": 0.0658,
      "velocity": 102,
      "chip": "ym2612"
    },
    {
      "channel": 4,
      "note": 65,
      "start": 19.0285,
      "duration": 0.0668,
      "velocity": 102,
      "chip": "ym2612"
    },
    {
      "channel": 1,
      "note": 59,
      "start": 19.1288,
      "duration": 0.2332,
      "velocity": 127,
      "chip": "ym2612"
    },
    {
      "channel": 3,
      "note": 70,
      "start": 19.1296,
      "duration": 0.0657,
      "velocity": 102,
      "chip": "ym2612"
    },
    {
      "channel": 4,
      "note": 65,
      "start": 19.1455,
      "duration": 0.0664,
      "velocity": 102,
      "chip": "ym2612"
    },
    {
      "channel": 0,
      "note": 36,
      "start": 19.2448,
      "duration": 0.0663,
      "velocity": 110,
      "chip": "ym2612"
    },
    {
      "channel": 3,
      "note": 70,
      "start": 19.2457,
      "duration": 0.066,
      "velocity": 102,
      "chip": "ym2612"
    },
    {
      "channel": 4,
      "note": 65,
      "start": 19.2618,
      "duration": 0.0666,
      "velocity": 102,
      "chip": "ym2612"
    },
    {
      "channel": 1,
      "note": 64,
      "start": 19.3621,
      "duration": 0.1159,
      "velocity": 127,
      "chip": "ym2612"
    },
    {
      "channel": 3,
      "note": 72,
      "start": 19.363,
      "duration": 0.0653,
      "velocity": 102,
      "chip": "ym2612"
    },
    {
      "channel": 4,
      "note": 67,
      "start": 19.3787,
      "duration": 0.0667,
      "velocity": 102,
      "chip": "ym2612"
    },
    {
      "channel": 0,
      "note": 36,
      "start": 19.4778,
      "duration": 0.2999,
      "velocity": 110,
      "chip": "ym2612"
    },
    {
      "channel": 1,
      "note": 64,
      "start": 19.4781,
      "duration": 0.2331,
      "velocity": 127,
      "chip": "ym2612"
    },
    {
      "channel": 3,
      "note": 72,
      "start": 19.4789,
      "duration": 0.0662,
      "velocity": 102,
      "chip": "ym2612"
    },
    {
      "channel": 4,
      "note": 67,
      "start": 19.4954,
      "duration": 0.0663,
      "velocity": 102,
      "chip": "ym2612"
    },
    {
      "channel": 3,
      "note": 72,
      "start": 19.5955,
      "duration": 0.0661,
      "velocity": 102,
      "chip": "ym2612"
    },
    {
      "channel": 4,
      "note": 67,
      "start": 19.6119,
      "duration": 0.0666,
      "velocity": 102,
      "chip": "ym2612"
    },
    {
      "channel": 1,
      "note": 64,
      "start": 19.7113,
      "duration": 0.1174,
      "velocity": 127,
      "chip": "ym2612"
    },
    {
      "channel": 3,
      "note": 70,
      "start": 19.7123,
      "duration": 0.0661,
      "velocity": 102,
      "chip": "ym2612"
    },
    {
      "channel": 4,
      "note": 65,
      "start": 19.7286,
      "duration": 0.0668,
      "velocity": 102,
      "chip": "ym2612"
    },
    {
      "channel": 0,
      "note": 37,
      "start": 19.8278,
      "duration": 0.1832,
      "velocity": 110,
      "chip": "ym2612"
    },
    {
      "channel": 1,
      "note": 59,
      "start": 19.8288,
      "duration": 0.2332,
      "velocity": 127,
      "chip": "ym2612"
    },
    {
      "channel": 3,
      "note": 70,
      "start": 19.8296,
      "duration": 0.0655,
      "velocity": 102,
      "chip": "ym2612"
    },
    {
      "channel": 4,
      "note": 65,
      "start": 19.8454,
      "duration": 0.0663,
      "velocity": 102,
      "chip": "ym2612"
    },
    {
      "channel": 3,
      "note": 70,
      "start": 19.9455,
      "duration": 0.0662,
      "velocity": 102,
      "chip": "ym2612"
    },
    {
      "channel": 4,
      "note": 65,
      "start": 19.9619,
      "duration": 0.0667,
      "velocity": 102,
      "chip": "ym2612"
    },
    {
      "channel": 0,
      "note": 39,
      "start": 20.0612,
      "duration": 0.1835,
      "velocity": 110,
      "chip": "ym2612"
    },
    {
      "channel": 1,
      "note": 64,
      "start": 20.0622,
      "duration": 0.1164,
      "velocity": 127,
      "chip": "ym2612"
    },
    {
      "channel": 3,
      "note": 72,
      "start": 20.0631,
      "duration": 0.0651,
      "velocity": 102,
      "chip": "ym2612"
    },
    {
      "channel": 4,
      "note": 67,
      "start": 20.0786,
      "duration": 0.0667,
      "velocity": 102,
      "chip": "ym2612"
    },
    {
      "channel": 1,
      "note": 59,
      "start": 20.1787,
      "duration": 0.1162,
      "velocity": 127,
      "chip": "ym2612"
    },
    {
      "channel": 3,
      "note": 72,
      "start": 20.1796,
      "duration": 0.0657,
      "velocity": 102,
      "chip": "ym2612"
    },
    {
      "channel": 4,
      "note": 67,
      "start": 20.1955,
      "duration": 0.0663,
      "velocity": 102,
      "chip": "ym2612"
    },
    {
      "channel": 0,
      "note": 37,
      "start": 20.2948,
      "duration": 0.1829,
      "velocity": 110,
      "chip": "ym2612"
    },
    {
      "channel": 1,
      "note": 59,
      "start": 20.295,
      "duration": 0.1161,
      "velocity": 127,
      "chip": "ym2612"
    },
    {
      "channel": 3,
      "note": 70,
      "start": 20.2958,
      "duration": 0.0658,
      "velocity": 102,
      "chip": "ym2612"
    },
    {
      "channel": 4,
      "note": 65,
      "start": 20.3118,
      "duration": 0.0666,
      "velocity": 102,
      "chip": "ym2612"
    },
    {
      "channel": 1,
      "note": 59,
      "start": 20.4113,
      "duration": 0.1174,
      "velocity": 127,
      "chip": "ym2612"
    },
    {
      "channel": 3,
      "note": 70,
      "start": 20.4123,
      "duration": 0.0661,
      "velocity": 102,
      "chip": "ym2612"
    },
    {
      "channel": 4,
      "note": 65,
      "start": 20.4287,
      "duration": 0.0667,
      "velocity": 102,
      "chip": "ym2612"
    },
    {
      "channel": 0,
      "note": 36,
      "start": 20.5278,
      "duration": 0.0668,
      "velocity": 110,
      "chip": "ym2612"
    },
    {
      "channel": 1,
      "note": 64,
      "start": 20.5288,
      "duration": 0.116,
      "velocity": 127,
      "chip": "ym2612"
    },
    {
      "channel": 3,
      "note": 72,
      "start": 20.53,
      "duration": 0.0653,
      "velocity": 102,
      "chip": "ym2612"
    },
    {
      "channel": 4,
      "note": 67,
      "start": 20.5455,
      "duration": 0.0662,
      "velocity": 102,
      "chip": "ym2612"
    },
    {
      "channel": 1,
      "note": 64,
      "start": 20.645,
      "duration": 0.233,
      "velocity": 127,
      "chip": "ym2612"
    },
    {
      "channel": 3,
      "note": 72,
      "start": 20.6458,
      "duration": 0.0659,
      "velocity": 102,
      "chip": "ym2612"
    },
    {
      "channel": 4,
      "note": 67,
      "start": 20.6619,
      "duration": 0.0667,
      "velocity": 102,
      "chip": "ym2612"
    },
    {
      "channel": 0,
      "note": 36,
      "start": 20.7612,
      "duration": 0.0666,
      "velocity": 110,
      "chip": "ym2612"
    },
    {
      "channel": 3,
      "note": 72,
      "start": 20.7621,
      "duration": 0.0662,
      "velocity": 102,
      "chip": "ym2612"
    },
    {
      "channel": 4,
      "note": 67,
      "start": 20.7785,
      "duration": 0.0669,
      "velocity": 102,
      "chip": "ym2612"
    },
    {
      "channel": 0,
      "note": 36,
      "start": 20.8778,
      "duration": 0.0668,
      "velocity": 110,
      "chip": "ym2612"
    },
    {
      "channel": 1,
      "note": 64,
      "start": 20.8781,
      "duration": 0.1174,
      "velocity": 127,
      "chip": "ym2612"
    },
    {
      "channel": 3,
      "note": 70,
      "start": 20.8791,
      "duration": 0.0661,
      "velocity": 102,
      "chip": "ym2612"
    },
    {
      "channel": 4,
      "note": 65,
      "start": 20.8955,
      "duration": 0.0663,
      "velocity": 102,
      "chip": "ym2612"
    },
    {
      "channel": 1,
      "note": 59,
      "start": 20.9957,
      "duration": 0.2329,
      "velocity": 127,
      "chip": "ym2612"
    },
    {
      "channel": 3,
      "note": 70,
      "start": 20.9965,
      "duration": 0.0652,
      "velocity": 102,
      "chip": "ym2612"
    },
    {
      "channel": 4,
      "note": 65,
      "start": 21.0119,
      "duration": 0.0667,
      "velocity": 102,
      "chip": "ym2612"
    },
    {
      "channel": 0,
      "note": 36,
      "start": 21.1112,
      "duration": 0.0666,
      "velocity": 110,
      "chip": "ym2612"
    },
    {
      "channel": 3,
      "note": 70,
      "start": 21.1121,
      "duration": 0.0662,
      "velocity": 102,
      "chip": "ym2612"
    },
    {
      "channel": 4,
      "note": 65,
      "start": 21.1285,
      "duration": 0.0669,
      "velocity": 102,
      "chip": "ym2612"
    },
    {
      "channel": 1,
      "note": 64,
      "start": 21.2288,
      "duration": 0.1161,
      "velocity": 127,
      "chip": "ym2612"
    },
    {
      "channel": 3,
      "note": 72,
      "start": 21.2298,
      "duration": 0.0654,
      "velocity": 102,
      "chip": "ym2612"
    },
    {
      "channel": 4,
      "note": 67,
      "start": 21.2457,
      "duration": 0.0661,
      "velocity": 102,
      "chip": "ym2612"
    },
    {
      "channel": 0,
      "note": 36,
      "start": 21.3448,
      "duration": 0.2999,
      "velocity": 110,
      "chip": "ym2612"
    },
    {
      "channel": 1,
      "note": 64,
      "start": 21.345,
      "duration": 0.2328,
      "velocity": 127,
      "chip": "ym2612"
    },
    {
      "channel": 3,
      "note": 72,
      "start": 21.3459,
      "duration": 0.0658,
      "velocity": 102,
      "chip": "ym2612"
    },
    {
      "channel": 4,
      "note": 67,
      "start": 21.3618,
      "duration": 0.0666,
      "velocity": 102,
      "chip": "ym2612"
    },
    {
      "channel": 3,
      "note": 72,
      "start": 21.462,
      "duration": 0.0663,
      "velocity": 102,
      "chip": "ym2612"
    },
    {
      "channel": 4,
      "note": 67,
      "start": 21.4785,
      "duration": 0.0669,
      "velocity": 102,
      "chip": "ym2612"
    },
    {
      "channel": 1,
      "note": 64,
      "start": 21.578,
      "duration": 0.1176,
      "velocity": 127,
      "chip": "ym2612"
    },
    {
      "channel": 3,
      "note": 70,
      "start": 21.5789,
      "duration": 0.0663,
      "velocity": 102,
      "chip": "ym2612"
    },
    {
      "channel": 4,
      "note": 65,
      "start": 21.5955,
      "duration": 0.0663,
      "velocity": 102,
      "chip": "ym2612"
    },
    {
      "channel": 0,
      "note": 34,
      "start": 21.6948,
      "duration": 0.1829,
      "velocity": 110,
      "chip": "ym2612"
    },
    {
      "channel": 1,
      "note": 59,
      "start": 21.6957,
      "duration": 0.2323,
      "velocity": 127,
      "chip": "ym2612"
    },
    {
      "channel": 3,
      "note": 70,
      "start": 21.6965,
      "duration": 0.0651,
      "velocity": 102,
      "chip": "ym2612"
    },
    {
      "channel": 4,
      "note": 65,
      "start": 21.7118,
      "duration": 0.0666,
      "velocity": 102,
      "chip": "ym2612"
    },
    {
      "channel": 3,
      "note": 70,
      "start": 21.812,
      "duration": 0.0664,
      "velocity": 102,
      "chip": "ym2612"
    },
    {
      "channel": 4,
      "note": 65,
      "start": 21.8285,
      "duration": 0.0669,
      "velocity": 102,
      "chip": "ym2612"
    },
    {
      "channel": 0,
      "note": 32,
      "start": 21.9278,
      "duration": 0.1832,
      "velocity": 110,
      "chip": "ym2612"
    },
    {
      "channel": 1,
      "note": 59,
      "start": 21.9281,
      "duration": 0.1173,
      "velocity": 127,
      "chip": "ym2612"
    },
    {
      "channel": 2,
      "note": 65,
      "start": 21.9284,
      "duration": 0.4165,
      "velocity": 111,
      "chip": "ym2612"
    },
    {
      "channel": 3,
      "note": 72,
      "start": 21.9293,
      "duration": 0.0658,
      "velocity": 102,
      "chip": "ym2612"
    },
    {
      "channel": 4,
      "note": 67,
      "start": 21.9455,
      "duration": 0.0662,
      "velocity": 102,
      "chip": "ym2612"
    },
    {
      "channel": 5,
      "note": 65,
      "start": 21.9458,
      "duration": 0.4162,
      "velocity": 111,
      "chip": "ym2612"
    },
    {
      "channel": 1,
      "note": 64,
      "start": 22.0455,
      "duration": 0.1165,
      "velocity": 127,
      "chip": "ym2612"
    },
    {
      "channel": 3,
      "note": 72,
      "start": 22.0465,
      "duration": 0.0652,
      "velocity": 102,
      "chip": "ym2612"
    },
    {
      "channel": 4,
      "note": 67,
      "start": 22.062,
      "duration": 0.0665,
      "velocity": 102,
      "chip": "ym2612"
    },
    {
      "channel": 0,
      "note": 34,
      "start": 22.1612,
      "duration": 0.1835,
      "velocity": 110,
      "chip": "ym2612"
    },
    {
      "channel": 1,
      "note": 59,
      "start": 22.1622,
      "duration": 0.1157,
      "velocity": 127,
      "chip": "ym2612"
    },
    {
      "channel": 3,
      "note": 70,
      "start": 22.1629,
      "duration": 0.0653,
      "velocity": 102,
      "chip": "ym2612"
    },
    {
      "channel": 4,
      "note": 65,
      "start": 22.1785,
      "duration": 0.0669,
      "velocity": 102,
      "chip": "ym2612"
    },
    {
      "channel": 1,
      "note": 59,
      "start": 22.278,
      "duration": 0.1177,
      "velocity": 127,
      "chip": "ym2612"
    },
    {
      "channel": 3,
      "note": 70,
      "start": 22.2789,
      "duration": 0.0663,
      "velocity": 102,
      "chip": "ym2612"
    },
    {
      "channel": 4,
      "note": 65,
      "start": 22.2955,
      "duration": 0.0663,
      "velocity": 102,
      "chip": "ym2612"
    },
    {
      "channel": 0,
      "note": 36,
      "start": 22.3948,
      "duration": 0.0663,
      "velocity": 110,
      "chip": "ym2612"
    },
    {
      "channel": 1,
      "note": 64,
      "start": 22.3957,
      "duration": 0.1155,
      "velocity": 127,
      "chip": "ym2612"
    },
    {
      "channel": 2,
      "note": 62,
      "start": 22.396,
      "duration": 3.2154,
      "velocity": 111,
      "chip": "ym2612"
    },
    {
      "channel": 3,
      "note": 72,
      "start": 22.397,
      "duration": 0.0646,
      "velocity": 102,
      "chip": "ym2612"
    },
    {
      "channel": 4,
      "note": 67,
      "start": 22.412,
      "duration": 0.0665,
      "velocity": 102,
      "chip": "ym2612"
    },
    {
      "channel": 5,
      "note": 62,
      "start": 22.4122,
      "duration": 3.2166,
      "velocity": 111,
      "chip": "ym2612"
    },
    {
      "channel": 1,
      "note": 64,
      "start": 22.5114,
      "duration": 0.2335,
      "velocity": 127,
      "chip": "ym2612"
    },
    {
      "channel": 3,
      "note": 72,
      "start": 22.5122,
      "duration": 0.0662,
      "velocity": 102,
      "chip": "ym2612"
    },
    {
      "channel": 4,
      "note": 67,
      "start": 22.5285,
      "duration": 0.0669,
      "velocity": 102,
      "chip": "ym2612"
    },
    {
      "channel": 0,
      "note": 36,
      "start": 22.6278,
      "duration": 0.0668,
      "velocity": 110,
      "chip": "ym2612"
    },
    {
      "channel": 3,
      "note": 72,
      "start": 22.6288,
      "duration": 0.0665,
      "velocity": 102,
      "chip": "ym2612"
    },
    {
      "channel": 4,
      "note": 67,
      "start": 22.6454,
      "duration": 0.0663,
      "velocity": 102,
      "chip": "ym2612"
    },
    {
      "channel": 0,
      "note": 36,
      "start": 22.7448,
      "duration": 0.0663,
      "velocity": 110,
      "chip": "ym2612"
    },
    {
      "channel": 1,
      "note": 64,
      "start": 22.745,
      "duration": 0.1169,
      "velocity": 127,
      "chip": "ym2612"
    },
    {
      "channel": 3,
      "note": 70,
      "start": 22.746,
      "duration": 0.0656,
      "velocity": 102,
      "chip": "ym2612"
    },
    {
      "channel": 4,
      "note": 65,
      "start": 22.7619,
      "duration": 0.0666,
      "velocity": 102,
      "chip": "ym2612"
    },
    {
      "channel": 1,
      "note": 59,
      "start": 22.8621,
      "duration": 0.2334,
      "velocity": 127,
      "chip": "ym2612"
    },
    {
      "channel": 3,
      "note": 70,
      "start": 22.8629,
      "duration": 0.0655,
      "velocity": 102,
      "chip": "ym2612"
    },
    {
      "channel": 4,
      "note": 65,
      "start": 22.8785,
      "duration": 0.0669,
      "velocity": 102,
      "chip": "ym2612"
    },
    {
      "channel": 0,
      "note": 36,
      "start": 22.9778,
      "duration": 0.0668,
      "velocity": 110,
      "chip": "ym2612"
    },
    {
      "channel": 3,
      "note": 70,
      "start": 22.9788,
      "duration": 0.0664,
      "velocity": 102,
      "chip": "ym2612"
    },
    {
      "channel": 4,
      "note": 65,
      "start": 22.9954,
      "duration": 0.0663,
      "velocity": 102,
      "chip": "ym2612"
    },
    {
      "channel": 1,
      "note": 64,
      "start": 23.0957,
      "duration": 0.1156,
      "velocity": 127,
      "chip": "ym2612"
    },
    {
      "channel": 3,
      "note": 72,
      "start": 23.0966,
      "duration": 0.0651,
      "velocity": 102,
      "chip": "ym2612"
    },
    {
      "channel": 4,
      "note": 67,
      "start": 23.112,
      "duration": 0.0665,
      "velocity": 102,
      "chip": "ym2612"
    },
    {
      "channel": 0,
      "note": 36,
      "start": 23.2112,
      "duration": 0.2999,
      "velocity": 110,
      "chip": "ym2612"
    },
    {
      "channel": 1,
      "note": 64,
      "start": 23.2115,
      "duration": 0.2333,
      "velocity": 127,
      "chip": "ym2612"
    },
    {
      "channel": 3,
      "note": 72,
      "start": 23.2123,
      "duration": 0.066,
      "velocity": 102,
      "chip": "ym2612"
    },
    {
      "channel": 4,
      "note": 67,
      "start": 23.2285,
      "duration": 0.0669,
      "velocity": 102,
      "chip": "ym2612"
    },
    {
      "channel": 3,
      "note": 72,
      "start": 23.3286,
      "duration": 0.0666,
      "velocity": 102,
      "chip": "ym2612"
    },
    {
      "channel": 4,
      "note": 67,
      "start": 23.3455,
      "duration": 0.0663,
      "velocity": 102,
      "chip": "ym2612"
    },
    {
      "channel": 1,
      "note": 64,
      "start": 23.4449,
      "duration": 0.1171,
      "velocity": 127,
      "chip": "ym2612"
    },
    {
      "channel": 3,
      "note": 70,
      "start": 23.4459,
      "duration": 0.0659,
      "velocity": 102,
      "chip": "ym2612"
    },
    {
      "channel": 4,
      "note": 65,
      "start": 23.462,
      "duration": 0.0665,
      "velocity": 102,
      "chip": "ym2612"
    },
    {
      "channel": 0,
      "note": 37,
      "start": 23.5612,
      "duration": 0.1835,
      "velocity": 110,
      "chip": "ym2612"
    },
    {
      "channel": 1,
      "note": 59,
      "start": 23.5622,
      "duration": 0.2334,
      "velocity": 127,
      "chip": "ym2612"
    },
    {
      "channel": 3,
      "note": 70,
      "start": 23.563,
      "duration": 0.0653,
      "velocity": 102,
      "chip": "ym2612"
    },
    {
      "channel": 4,
      "note": 65,
      "start": 23.5785,
      "duration": 0.0669,
      "velocity": 102,
      "chip": "ym2612"
    },
    {
      "channel": 3,
      "note": 70,
      "start": 23.6786,
      "duration": 0.0667,
      "velocity": 102,
      "chip": "ym2612"
    },
    {
      "channel": 4,
      "note": 65,
      "start": 23.6955,
      "duration": 0.0664,
      "velocity": 102,
      "chip": "ym2612"
    },
    {
      "channel": 0,
      "note": 39,
      "start": 23.7948,
      "duration": 0.1829,
      "velocity": 110,
      "chip": "ym2612"
    },
    {
      "channel": 1,
      "note": 64,
      "start": 23.7957,
      "duration": 0.1161,
      "velocity": 127,
      "chip": "ym2612"
    },
    {
      "channel": 3,
      "note": 72,
      "start": 23.7967,
      "duration": 0.0649,
      "velocity": 102,
      "chip": "ym2612"
    },
    {
      "channel": 4,
      "note": 67,
      "start": 23.812,
      "duration": 0.0664,
      "velocity": 102,
      "chip": "ym2612"
    },
    {
      "channel": 1,
      "note": 59,
      "start": 23.912,
      "duration": 0.116,
      "velocity": 127,
      "chip": "ym2612"
    },
    {
      "channel": 3,
      "note": 72,
      "start": 23.9129,
      "duration": 0.0655,
      "velocity": 102,
      "chip": "ym2612"
    },
    {
      "channel": 4,
      "note": 67,
      "start": 23.9287,
      "duration": 0.0667,
      "velocity": 102,
      "chip": "ym2612"
    },
    {
      "channel": 0,
      "note": 37,
      "start": 24.0278,
      "duration": 0.1832,
      "velocity": 110,
      "chip": "ym2612"
    },
    {
      "channel": 1,
      "note": 59,
      "start": 24.0281,
      "duration": 0.1167,
      "velocity": 127,
      "chip": "ym2612"
    },
    {
      "channel": 3,
      "note": 70,
      "start": 24.0289,
      "duration": 0.0663,
      "velocity": 102,
      "chip": "ym2612"
    },
    {
      "channel": 4,
      "note": 65,
      "start": 24.0454,
      "duration": 0.0663,
      "velocity": 102,
      "chip": "ym2612"
    },
    {
      "channel": 1,
      "note": 59,
      "start": 24.1449,
      "duration": 0.1171,
      "velocity": 127,
      "chip": "ym2612"
    },
    {
      "channel": 3,
      "note": 70,
      "start": 24.1459,
      "duration": 0.0659,
      "velocity": 102,
      "chip": "ym2612"
    },
    {
      "channel": 4,
      "note": 65,
      "start": 24.162,
      "duration": 0.0665,
      "velocity": 102,
      "chip": "ym2612"
    },
    {
      "channel": 0,
      "note": 36,
      "start": 24.2612,
      "duration": 0.0666,
      "velocity": 110,
      "chip": "ym2612"
    },
    {
      "channel": 1,
      "note": 64,
      "start": 24.2622,
      "duration": 0.1158,
      "velocity": 127,
      "chip": "ym2612"
    },
    {
      "channel": 3,
      "note": 72,
      "start": 24.2633,
      "duration": 0.065,
      "velocity": 102,
      "chip": "ym2612"
    },
    {
      "channel": 4,
      "note": 67,
      "start": 24.2786,
      "duration": 0.0667,
      "velocity": 102,
      "chip": "ym2612"
    },
    {
      "channel": 1,
      "note": 64,
      "start": 24.378,
      "duration": 0.2333,
      "velocity": 127,
      "chip": "ym2612"
    },
    {
      "channel": 3,
      "note": 72,
      "start": 24.3789,
      "duration": 0.0664,
      "velocity": 102,
      "chip": "ym2612"
    },
    {
      "channel": 4,
      "note": 67,
      "start": 24.3955,
      "duration": 0.0664,
      "velocity": 102,
      "chip": "ym2612"
    },
    {
      "channel": 0,
      "note": 36,
      "start": 24.4948,
      "duration": 0.0663,
      "velocity": 110,
      "chip": "ym2612"
    },
    {
      "channel": 3,
      "note": 72,
      "start": 24.4957,
      "duration": 0.066,
      "velocity": 102,
      "chip": "ym2612"
    },
    {
      "channel": 4,
      "note": 67,
      "start": 24.5118,
      "duration": 0.0666,
      "velocity": 102,
      "chip": "ym2612"
    },
    {
      "channel": 0,
      "note": 36,
      "start": 24.6112,
      "duration": 0.0666,
      "velocity": 110,
      "chip": "ym2612"
    },
    {
      "channel": 1,
      "note": 64,
      "start": 24.6115,
      "duration": 0.1172,
      "velocity": 127,
      "chip": "ym2612"
    },
    {
      "channel": 3,
      "note": 70,
      "start": 24.6124,
      "duration": 0.0659,
      "velocity": 102,
      "chip": "ym2612"
    },
    {
      "channel": 4,
      "note": 65,
      "start": 24.6285,
      "duration": 0.0668,
      "velocity": 102,
      "chip": "ym2612"
    },
    {
      "channel": 1,
      "note": 59,
      "start": 24.7288,
      "duration": 0.2332,
      "velocity": 127,
      "chip": "ym2612"
    },
    {
      "channel": 3,
      "note": 70,
      "start": 24.7296,
      "duration": 0.0657,
      "velocity": 102,
      "chip": "ym2612"
    },
    {
      "channel": 4,
      "note": 65,
      "start": 24.7455,
      "duration": 0.0664,
      "velocity": 102,
      "chip": "ym2612"
    },
    {
      "channel": 0,
      "note": 36,
      "start": 24.8448,
      "duration": 0.0663,
      "velocity": 110,
      "chip": "ym2612"
    },
    {
      "channel": 3,
      "note": 70,
      "start": 24.8457,
      "duration": 0.066,
      "velocity": 102,
      "chip": "ym2612"
    },
    {
      "channel": 4,
      "note": 65,
      "start": 24.8618,
      "duration": 0.0666,
      "velocity": 102,
      "chip": "ym2612"
    },
    {
      "channel": 1,
      "note": 64,
      "start": 24.9621,
      "duration": 0.1159,
      "velocity": 127,
      "chip": "ym2612"
    },
    {
      "channel": 3,
      "note": 72,
      "start": 24.9631,
      "duration": 0.0653,
      "velocity": 102,
      "chip": "ym2612"
    },
    {
      "channel": 4,
      "note": 67,
      "start": 24.9787,
      "duration": 0.0667,
      "velocity": 102,
      "chip": "ym2612"
    },
    {
      "channel": 0,
      "note": 36,
      "start": 25.0778,
      "duration": 0.2999,
      "velocity": 110,
      "chip": "ym2612"
    },
    {
      "channel": 1,
      "note": 64,
      "start": 25.0781,
      "duration": 0.2331,
      "velocity": 127,
      "chip": "ym2612"
    },
    {
      "channel": 3,
      "note": 72,
      "start": 25.0789,
      "duration": 0.0662,
      "velocity": 102,
      "chip": "ym2612"
    },
    {
      "channel": 4,
      "note": 67,
      "start": 25.0954,
      "duration": 0.0663,
      "velocity": 102,
      "chip": "ym2612"
    },
    {
      "channel": 3,
      "note": 72,
      "start": 25.1955,
      "duration": 0.0661,
      "velocity": 102,
      "chip": "ym2612"
    },
    {
      "channel": 4,
      "note": 67,
      "start": 25.2119,
      "duration": 0.0666,
      "velocity": 102,
      "chip": "ym2612"
    },
    {
      "channel": 1,
      "note": 64,
      "start": 25.3113,
      "duration": 0.1174,
      "velocity": 127,
      "chip": "ym2612"
    },
    {
      "channel": 3,
      "note": 70,
      "start": 25.3123,
      "duration": 0.0661,
      "velocity": 102,
      "chip": "ym2612"
    },
    {
      "channel": 4,
      "note": 65,
      "start": 25.3287,
      "duration": 0.0667,
      "velocity": 102,
      "chip": "ym2612"
    },
    {
      "channel": 0,
      "note": 34,
      "start": 25.4278,
      "duration": 0.1832,
      "velocity": 110,
      "chip": "ym2612"
    },
    {
      "channel": 1,
      "note": 59,
      "start": 25.4288,
      "duration": 0.2326,
      "velocity": 127,
      "chip": "ym2612"
    },
    {
      "channel": 3,
      "note": 70,
      "start": 25.4296,
      "duration": 0.0656,
      "velocity": 102,
      "chip": "ym2612"
    },
    {
      "channel": 4,
      "note": 65,
      "start": 25.4454,
      "duration": 0.0663,
      "velocity": 102,
      "chip": "ym2612"
    },
    {
      "channel": 3,
      "note": 70,
      "start": 25.5455,
      "duration": 0.0662,
      "velocity": 102,
      "chip": "ym2612"
    },
    {
      "channel": 4,
      "note": 65,
      "start": 25.5619,
      "duration": 0.0667,
      "velocity": 102,
      "chip": "ym2612"
    },
    {
      "channel": 0,
      "note": 32,
      "start": 25.6612,
      "duration": 0.1835,
      "velocity": 110,
      "chip": "ym2612"
    },
    {
      "channel": 1,
      "note": 59,
      "start": 25.6615,
      "duration": 0.1171,
      "velocity": 127,
      "chip": "ym2612"
    },
    {
      "channel": 2,
      "note": 63,
      "start": 25.6618,
      "duration": 0.1832,
      "velocity": 111,
      "chip": "ym2612"
    },
    {
      "channel": 3,
      "note": 72,
      "start": 25.6627,
      "duration": 0.0656,
      "velocity": 102,
      "chip": "ym2612"
    },
    {
      "channel": 4,
      "note": 67,
      "start": 25.6786,
      "duration": 0.0667,
      "velocity": 102,
      "chip": "ym2612"
    },
    {
      "channel": 5,
      "note": 63,
      "start": 25.6789,
      "duration": 0.1832,
      "velocity": 111,
      "chip": "ym2612"
    },
    {
      "channel": 1,
      "note": 64,
      "start": 25.7787,
      "duration": 0.1169,
      "velocity": 127,
      "chip": "ym2612"
    },
    {
      "channel": 3,
      "note": 72,
      "start": 25.7796,
      "duration": 0.0658,
      "velocity": 102,
      "chip": "ym2612"
    },
    {
      "channel": 4,
      "note": 67,
      "start": 25.7955,
      "duration": 0.0663,
      "velocity": 102,
      "chip": "ym2612"
    },
    {
      "channel": 0,
      "note": 34,
      "start": 25.8948,
      "duration": 0.1829,
      "velocity": 110,
      "chip": "ym2612"
    },
    {
      "channel": 1,
      "note": 59,
      "start": 25.8957,
      "duration": 0.1154,
      "velocity": 127,
      "chip": "ym2612"
    },
    {
      "channel": 2,
      "note": 62,
      "start": 25.896,
      "duration": 0.1821,
      "velocity": 111,
      "chip": "ym2612"
    },
    {
      "channel": 3,
      "note": 70,
      "start": 25.8966,
      "duration": 0.0649,
      "velocity": 102,
      "chip": "ym2612"
    },
    {
      "channel": 4,
      "note": 65,
      "start": 25.9118,
      "duration": 0.0666,
      "velocity": 102,
      "chip": "ym2612"
    },
    {
      "channel": 5,
      "note": 62,
      "start": 25.9121,
      "duration": 0.1835,
      "velocity": 111,
      "chip": "ym2612"
    },
    {
      "channel": 1,
      "note": 59,
      "start": 26.0113,
      "duration": 0.1174,
      "velocity": 127,
      "chip": "ym2612"
    },
    {
      "channel": 3,
      "note": 70,
      "start": 26.0123,
      "duration": 0.0661,
      "velocity": 102,
      "chip": "ym2612"
    },
    {
      "channel": 4,
      "note": 65,
      "start": 26.0287,
      "duration": 0.0667,
      "velocity": 102,
      "chip": "ym2612"
    },
    {
      "channel": 0,
      "note": 36,
      "start": 26.1278,
      "duration": 0.0668,
      "velocity": 110,
      "chip": "ym2612"
    },
    {
      "channel": 1,
      "note": 64,
      "start": 26.1288,
      "duration": 0.116,
      "velocity": 127,
      "chip": "ym2612"
    },
    {
      "channel": 2,
      "note": 60,
      "start": 26.1291,
      "duration": 1.8158,
      "velocity": 111,
      "chip": "ym2612"
    },
    {
      "channel": 3,
      "note": 72,
      "start": 26.1301,
      "duration": 0.0651,
      "velocity": 102,
      "chip": "ym2612"
    },
    {
      "channel": 4,
      "note": 67,
      "start": 26.1455,
      "duration": 0.0662,
      "velocity": 102,
      "chip": "ym2612"
    },
    {
      "channel": 5,
      "note": 60,
      "start": 26.1458,
      "duration": 1.8162,
      "velocity": 111,
      "chip": "ym2612"
    },
    {
      "channel": 1,
      "note": 64,
      "start": 26.245,
      "duration": 0.233,
      "velocity": 127,
      "chip": "ym2612"
    },
    {
      "channel": 3,
      "note": 72,
      "start": 26.2458,
      "duration": 0.0659,
      "velocity": 102,
      "chip": "ym2612"
    },
    {
      "channel": 4,
      "note": 67,
      "start": 26.2619,
      "duration": 0.0667,
      "velocity": 102,
      "chip": "ym2612"
    },
    {
      "channel": 0,
      "note": 36,
      "start": 26.3612,
      "duration": 0.0666,
      "velocity": 110,
      "chip": "ym2612"
    },
    {
      "channel": 3,
      "note": 72,
      "start": 26.3621,
      "duration": 0.0662,
      "velocity": 102,
      "chip": "ym2612"
    },
    {
      "channel": 4,
      "note": 67,
      "start": 26.3785,
      "duration": 0.0669,
      "velocity": 102,
      "chip": "ym2612"
    },
    {
      "channel": 0,
      "note": 36,
      "start": 26.4778,
      "duration": 0.0668,
      "velocity": 110,
      "chip": "ym2612"
    },
    {
      "channel": 1,
      "note": 64,
      "start": 26.4781,
      "duration": 0.1174,
      "velocity": 127,
      "chip": "ym2612"
    },
    {
      "channel": 3,
      "note": 70,
      "start": 26.4791,
      "duration": 0.0661,
      "velocity": 102,
      "chip": "ym2612"
    },
    {
      "channel": 4,
      "note": 65,
      "start": 26.4955,
      "duration": 0.0663,
      "velocity": 102,
      "chip": "ym2612"
    },
    {
      "channel": 1,
      "note": 59,
      "start": 26.5957,
      "duration": 0.2329,
      "velocity": 127,
      "chip": "ym2612"
    },
    {
      "channel": 3,
      "note": 70,
      "start": 26.5965,
      "duration": 0.0652,
      "velocity": 102,
      "chip": "ym2612"
    },
    {
      "channel": 4,
      "note": 65,
      "start": 26.6119,
      "duration": 0.0667,
      "velocity": 102,
      "chip": "ym2612"
    },
    {
      "channel": 0,
      "note": 36,
      "start": 26.7112,
      "duration": 0.0666,
      "velocity": 110,
      "chip": "ym2612"
    },
    {
      "channel": 3,
      "note": 70,
      "start": 26.7121,
      "duration": 0.0662,
      "velocity": 102,
      "chip": "ym2612"
    },
    {
      "channel": 4,
      "note": 65,
      "start": 26.7285,
      "duration": 0.0669,
      "velocity": 102,
      "chip": "ym2612"
    },
    {
      "channel": 1,
      "note": 64,
      "start": 26.8288,
      "duration": 0.1161,
      "velocity": 127,
      "chip": "ym2612"
    },
    {
      "channel": 3,
      "note": 72,
      "start": 26.8297,
      "duration": 0.0655,
      "velocity": 102,
      "chip": "ym2612"
    },
    {
      "channel": 4,
      "note": 67,
      "start": 26.8456,
      "duration": 0.0662,
      "velocity": 102,
      "chip": "ym2612"
    },
    {
      "channel": 0,
      "note": 36,
      "start": 26.9448,
      "duration": 0.2999,
      "velocity": 110,
      "chip": "ym2612"
    },
    {
      "channel": 1,
      "note": 64,
      "start": 26.945,
      "duration": 0.2328,
      "velocity": 127,
      "chip": "ym2612"
    },
    {
      "channel": 3,
      "note": 72,
      "start": 26.9459,
      "duration": 0.0658,
      "velocity": 102,
      "chip": "ym2612"
    },
    {
      "channel": 4,
      "note": 67,
      "start": 26.9618,
      "duration": 0.0666,
      "velocity": 102,
      "chip": "ym2612"
    },
    {
      "channel": 3,
      "note": 72,
      "start": 27.062,
      "duration": 0.0663,
      "velocity": 102,
      "chip": "ym2612"
    },
    {
      "channel": 4,
      "note": 67,
      "start": 27.0786,
      "duration": 0.0668,
      "velocity": 102,
      "chip": "ym2612"
    },
    {
      "channel": 1,
      "note": 64,
      "start": 27.178,
      "duration": 0.1176,
      "velocity": 127,
      "chip": "ym2612"
    },
    {
      "channel": 3,
      "note": 70,
      "start": 27.1789,
      "duration": 0.0663,
      "velocity": 102,
      "chip": "ym2612"
    },
    {
      "channel": 4,
      "note": 65,
      "start": 27.1955,
      "duration": 0.0663,
      "velocity": 102,
      "chip": "ym2612"
    },
    {
      "channel": 0,
      "note": 37,
      "start": 27.2948,
      "duration": 0.1829,
      "velocity": 110,
      "chip": "ym2612"
    },
    {
      "channel": 1,
      "note": 59,
      "start": 27.2957,
      "duration": 0.2329,
      "velocity": 127,
      "chip": "ym2612"
    },
    {
      "channel": 3,
      "note": 70,
      "start": 27.2965,
      "duration": 0.0651,
      "velocity": 102,
      "chip": "ym2612"
    },
    {
      "channel": 4,
      "note": 65,
      "start": 27.3118,
      "duration": 0.0666,
      "velocity": 102,
      "chip": "ym2612"
    },
    {
      "channel": 3,
      "note": 70,
      "start": 27.412,
      "duration": 0.0664,
      "velocity": 102,
      "chip": "ym2612"
    },
    {
      "channel": 4,
      "note": 65,
      "start": 27.4285,
      "duration": 0.0669,
      "velocity": 102,
      "chip": "ym2612"
    },
    {
      "channel": 0,
      "note": 39,
      "start": 27.5278,
      "duration": 0.1832,
      "velocity": 110,
      "chip": "ym2612"
    },
    {
      "channel": 1,
      "note": 64,
      "start": 27.5288,
      "duration": 0.1167,
      "velocity": 127,
      "chip": "ym2612"
    },
    {
      "channel": 3,
      "note": 72,
      "start": 27.5298,
      "duration": 0.0654,
      "velocity": 102,
      "chip": "ym2612"
    },
    {
      "channel": 4,
      "note": 67,
      "start": 27.5455,
      "duration": 0.0662,
      "velocity": 102,
      "chip": "ym2612"
    },
    {
      "channel": 1,
      "note": 59,
      "start": 27.6456,
      "duration": 0.1157,
      "velocity": 127,
      "chip": "ym2612"
    },
    {
      "channel": 3,
      "note": 72,
      "start": 27.6465,
      "duration": 0.0652,
      "velocity": 102,
      "chip": "ym2612"
    },
    {
      "channel": 4,
      "note": 67,
      "start": 27.662,
      "duration": 0.0665,
      "velocity": 102,
      "chip": "ym2612"
    },
    {
      "channel": 0,
      "note": 37,
      "start": 27.7612,
      "duration": 0.1835,
      "velocity": 110,
      "chip": "ym2612"
    },
    {
      "channel": 1,
      "note": 59,
      "start": 27.7615,
      "duration": 0.1164,
      "velocity": 127,
      "chip": "ym2612"
    },
    {
      "channel": 3,
      "note": 70,
      "start": 27.7622,
      "duration": 0.066,
      "velocity": 102,
      "chip": "ym2612"
    },
    {
      "channel": 4,
      "note": 65,
      "start": 27.7785,
      "duration": 0.0669,
      "velocity": 102,
      "chip": "ym2612"
    },
    {
      "channel": 1,
      "note": 59,
      "start": 27.878,
      "duration": 0.1176,
      "velocity": 127,
      "chip": "ym2612"
    },
    {
      "channel": 3,
      "note": 70,
      "start": 27.8789,
      "duration": 0.0663,
      "velocity": 102,
      "chip": "ym2612"
    },
    {
      "channel": 4,
      "note": 65,
      "start": 27.8955,
      "duration": 0.0663,
      "velocity": 102,
      "chip": "ym2612"
    },
    {
      "channel": 0,
      "note": 36,
      "start": 27.9948,
      "duration": 0.0663,
      "velocity": 110,
      "chip": "ym2612"
    },
    {
      "channel": 1,
      "note": 64,
      "start": 27.9957,
      "duration": 0.1156,
      "velocity": 127,
      "chip": "ym2612"
    },
    {
      "channel": 2,
      "note": 62,
      "start": 27.996,
      "duration": 0.8819,
      "velocity": 111,
      "chip": "ym2612"
    },
    {
      "channel": 3,
      "note": 72,
      "start": 27.9969,
      "duration": 0.0647,
      "velocity": 102,
      "chip": "ym2612"
    },
    {
      "channel": 4,
      "note": 67,
      "start": 28.012,
      "duration": 0.0665,
      "velocity": 102,
      "chip": "ym2612"
    },
    {
      "channel": 5,
      "note": 62,
      "start": 28.0122,
      "duration": 0.8833,
      "velocity": 111,
      "chip": "ym2612"
    },
    {
      "channel": 1,
      "note": 64,
      "start": 28.1114,
      "duration": 0.2335,
      "velocity": 127,
      "chip": "ym2612"
    },
    {
      "channel": 3,
      "note": 72,
      "start": 28.1122,
      "duration": 0.0662,
      "velocity": 102,
      "chip": "ym2612"
    },
    {
      "channel": 4,
      "note": 67,
      "start": 28.1285,
      "duration": 0.0669,
      "velocity": 102,
      "chip": "ym2612"
    },
    {
      "channel": 0,
      "note": 36,
      "start": 28.2278,
      "duration": 0.0668,
      "velocity": 110,
      "chip": "ym2612"
    },
    {
      "channel": 3,
      "note": 72,
      "start": 28.2288,
      "duration": 0.0665,
      "velocity": 102,
      "chip": "ym2612"
    },
    {
      "channel": 4,
      "note": 67,
      "start": 28.2454,
      "duration": 0.0663,
      "velocity": 102,
      "chip": "ym2612"
    },
    {
      "channel": 0,
      "note": 36,
      "start": 28.3448,
      "duration": 0.0663,
      "velocity": 110,
      "chip": "ym2612"
    },
    {
      "channel": 1,
      "note": 64,
      "start": 28.345,
      "duration": 0.1169,
      "velocity": 127,
      "chip": "ym2612"
    },
    {
      "channel": 3,
      "note": 70,
      "start": 28.346,
      "duration": 0.0656,
      "velocity": 102,
      "chip": "ym2612"
    },
    {
      "channel": 4,
      "note": 65,
      "start": 28.3619,
      "duration": 0.0666,
      "velocity": 102,
      "chip": "ym2612"
    },
    {
      "channel": 1,
      "note": 59,
      "start": 28.4621,
      "duration": 0.2334,
      "velocity": 127,
      "chip": "ym2612"
    },
    {
      "channel": 3,
      "note": 70,
      "start": 28.4629,
      "duration": 0.0655,
      "velocity": 102,
      "chip": "ym2612"
    },
    {
      "channel": 4,
      "note": 65,
      "start": 28.4785,
      "duration": 0.0669,
      "velocity": 102,
      "chip": "ym2612"
    },
    {
      "channel": 0,
      "note": 36,
      "start": 28.5778,
      "duration": 0.0668,
      "velocity": 110,
      "chip": "ym2612"
    },
    {
      "channel": 3,
      "note": 70,
      "start": 28.5788,
      "duration": 0.0665,
      "velocity": 102,
      "chip": "ym2612"
    },
    {
      "channel": 4,
      "note": 65,
      "start": 28.5954,
      "duration": 0.0663,
      "velocity": 102,
      "chip": "ym2612"
    },
    {
      "channel": 1,
      "note": 64,
      "start": 28.6957,
      "duration": 0.1156,
      "velocity": 127,
      "chip": "ym2612"
    },
    {
      "channel": 3,
      "note": 72,
      "start": 28.6966,
      "duration": 0.0651,
      "velocity": 102,
      "chip": "ym2612"
    },
    {
      "channel": 4,
      "note": 67,
      "start": 28.712,
      "duration": 0.0665,
      "velocity": 102,
      "chip": "ym2612"
    },
    {
      "channel": 0,
      "note": 36,
      "start": 28.8112,
      "duration": 0.2999,
      "velocity": 110,
      "chip": "ym2612"
    },
    {
      "channel": 1,
      "note": 64,
      "start": 28.8115,
      "duration": 0.2333,
      "velocity": 127,
      "chip": "ym2612"
    },
    {
      "channel": 3,
      "note": 72,
      "start": 28.8123,
      "duration": 0.066,
      "velocity": 102,
      "chip": "ym2612"
    },
    {
      "channel": 4,
      "note": 67,
      "start": 28.8285,
      "duration": 0.0669,
      "velocity": 102,
      "chip": "ym2612"
    },
    {
      "channel": 2,
      "note": 58,
      "start": 28.9281,
      "duration": 0.4168,
      "velocity": 111,
      "chip": "ym2612"
    },
    {
      "channel": 3,
      "note": 72,
      "start": 28.9288,
      "duration": 0.0664,
      "velocity": 102,
      "chip": "ym2612"
    },
    {
      "channel": 4,
      "note": 67,
      "start": 28.9455,
      "duration": 0.0663,
      "velocity": 102,
      "chip": "ym2612"
    },
    {
      "channel": 5,
      "note": 58,
      "start": 28.9457,
      "duration": 0.4163,
      "velocity": 111,
      "chip": "ym2612"
    },
    {
      "channel": 1,
      "note": 64,
      "start": 29.0449,
      "duration": 0.1171,
      "velocity": 127,
      "chip": "ym2612"
    },
    {
      "channel": 3,
      "note": 70,
      "start": 29.0459,
      "duration": 0.0659,
      "velocity": 102,
      "chip": "ym2612"
    },
    {
      "channel": 4,
      "note": 65,
      "start": 29.062,
      "duration": 0.0665,
      "velocity": 102,
      "chip": "ym2612"
    },
    {
      "channel": 0,
      "note": 34,
      "start": 29.1612,
      "duration": 0.1835,
      "velocity": 110,
      "chip": "ym2612"
    },
    {
      "channel": 1,
      "note": 59,
      "start": 29.1622,
      "duration": 0.2334,
      "velocity": 127,
      "chip": "ym2612"
    },
    {
      "channel": 3,
      "note": 70,
      "start": 29.163,
      "duration": 0.0653,
      "velocity": 102,
      "chip": "ym2612"
    },
    {
      "channel": 4,
      "note": 65,
      "start": 29.1785,
      "duration": 0.0669,
      "velocity": 102,
      "chip": "ym2612"
    },
    {
      "channel": 3,
      "note": 70,
      "start": 29.2786,
      "duration": 0.0667,
      "velocity": 102,
      "chip": "ym2612"
    },
    {
      "channel": 4,
      "note": 65,
      "start": 29.2955,
      "duration": 0.0664,
      "velocity": 102,
      "chip": "ym2612"
    },
    {
      "channel": 0,
      "note": 32,
      "start": 29.3948,
      "duration": 0.1829,
      "velocity": 110,
      "chip": "ym2612"
    },
    {
      "channel": 1,
      "note": 64,
      "start": 29.3957,
      "duration": 0.0654,
      "velocity": 127,
      "chip": "ym2612"
    },
    {
      "channel": 2,
      "note": 55,
      "start": 29.396,
      "duration": 0.4154,
      "velocity": 111,
      "chip": "ym2612"
    },
    {
      "channel": 3,
      "note": 72,
      "start": 29.3969,
      "duration": 0.0648,
      "velocity": 102,
      "chip": "ym2612"
    },
    {
      "channel": 4,
      "note": 67,
      "start": 29.412,
      "duration": 0.0664,
      "velocity": 102,
      "chip": "ym2612"
    },
    {
      "channel": 5,
      "note": 55,
      "start": 29.4122,
      "duration": 0.4165,
      "velocity": 111,
      "chip": "ym2612"
    },
    {
      "channel": 1,
      "note": 64,
      "start": 29.4612,
      "duration": 0.0499,
      "velocity": 127,
      "chip": "ym2612"
    },
    {
      "channel": 1,
      "note": 64,
      "start": 29.5113,
      "duration": 0.1167,
      "velocity": 127,
      "chip": "ym2612"
    },
    {
      "channel": 3,
      "note": 72,
      "start": 29.5123,
      "duration": 0.0661,
      "velocity": 102,
      "chip": "ym2612"
    },
    {
      "channel": 4,
      "note": 67,
      "start": 29.5287,
      "duration": 0.0667,
      "velocity": 102,
      "chip": "ym2612"
    },
    {
      "channel": 0,
      "note": 34,
      "start": 29.6278,
      "duration": 0.1832,
      "velocity": 110,
      "chip": "ym2612"
    },
    {
      "channel": 1,
      "note": 62,
      "start": 29.6281,
      "duration": 0.1167,
      "velocity": 127,
      "chip": "ym2612"
    },
    {
      "channel": 3,
      "note": 70,
      "start": 29.6289,
      "duration": 0.0663,
      "velocity": 102,
      "chip": "ym2612"
    },
    {
      "channel": 4,
      "note": 65,
      "start": 29.6454,
      "duration": 0.0663,
      "velocity": 102,
      "chip": "ym2612"
    },
    {
      "channel": 1,
      "note": 57,
      "start": 29.7449,
      "duration": 0.1172,
      "velocity": 127,
      "chip": "ym2612"
    },
    {
      "channel": 3,
      "note": 70,
      "start": 29.7459,
      "duration": 0.0658,
      "velocity": 102,
      "chip": "ym2612"
    },
    {
      "channel": 4,
      "note": 65,
      "start": 29.762,
      "duration": 0.0665,
      "velocity": 102,
      "chip": "ym2612"
    },
    {
      "channel": 0,
      "note": 36,
      "start": 29.8612,
      "duration": 0.0666,
      "velocity": 110,
      "chip": "ym2612"
    },
    {
      "channel": 1,
      "note": 64,
      "start": 29.8622,
      "duration": 0.1158,
      "velocity": 127,
      "chip": "ym2612"
    },
    {
      "channel": 2,
      "note": 60,
      "start": 29.8625,
      "duration": 3.2155,
      "velocity": 111,
      "chip": "ym2612"
    },
    {
      "channel": 3,
      "note": 72,
      "start": 29.8635,
      "duration": 0.0648,
      "velocity": 102,
      "chip": "ym2612"
    },
    {
      "channel": 4,
      "note": 67,
      "start": 29.8786,
      "duration": 0.0667,
      "velocity": 102,
      "chip": "ym2612"
    },
    {
      "channel": 5,
      "note": 60,
      "start": 29.8789,
      "duration": 3.2167,
      "velocity": 111,
      "chip": "ym2612"
    },
    {
      "channel": 1,
      "note": 64,
      "start": 29.978,
      "duration": 0.2333,
      "velocity": 127,
      "chip": "ym2612"
    },
    {
      "channel": 3,
      "note": 72,
      "start": 29.9789,
      "duration": 0.0664,
      "velocity": 102,
      "chip": "ym2612"
    },
    {
      "channel": 4,
      "note": 67,
      "start": 29.9955,
      "duration": 0.0664,
      "velocity": 102,
      "chip": "ym2612"
    },
    {
      "channel": 0,
      "note": 36,
      "start": 30.0948,
      "duration": 0.0663,
      "velocity": 110,
      "chip": "ym2612"
    },
    {
      "channel": 3,
      "note": 72,
      "start": 30.0957,
      "duration": 0.066,
      "velocity": 102,
      "chip": "ym2612"
    },
    {
      "channel": 4,
      "note": 67,
      "start": 30.1118,
      "duration": 0.0666,
      "velocity": 102,
      "chip": "ym2612"
    },
    {
      "channel": 0,
      "note": 36,
      "start": 30.2112,
      "duration": 0.0666,
      "velocity": 110,
      "chip": "ym2612"
    },
    {
      "channel": 1,
      "note": 64,
      "start": 30.2115,
      "duration": 0.1172,
      "velocity": 127,
      "chip": "ym2612"
    },
    {
      "channel": 3,
      "note": 70,
      "start": 30.2124,
      "duration": 0.0659,
      "velocity": 102,
      "chip": "ym2612"
    },
    {
      "channel": 4,
      "note": 65,
      "start": 30.2285,
      "duration": 0.0668,
      "velocity": 102,
      "chip": "ym2612"
    },
    {
      "channel": 1,
      "note": 59,
      "start": 30.3288,
      "duration": 0.2332,
      "velocity": 127,
      "chip": "ym2612"
    },
    {
      "channel": 3,
      "note": 70,
      "start": 30.3296,
      "duration": 0.0657,
      "velocity": 102,
      "chip": "ym2612"
    },
    {
      "channel": 4,
      "note": 65,
      "start": 30.3455,
      "duration": 0.0664,
      "velocity": 102,
      "chip": "ym2612"
    },
    {
      "channel": 0,
      "note": 36,
      "start": 30.4448,
      "duration": 0.0663,
      "velocity": 110,
      "chip": "ym2612"
    },
    {
      "channel": 3,
      "note": 70,
      "start": 30.4457,
      "duration": 0.066,
      "velocity": 102,
      "chip": "ym2612"
    },
    {
      "channel": 4,
      "note": 65,
      "start": 30.4618,
      "duration": 0.0666,
      "velocity": 102,
      "chip": "ym2612"
    },
    {
      "channel": 1,
      "note": 64,
      "start": 30.5621,
      "duration": 0.1159,
      "velocity": 127,
      "chip": "ym2612"
    },
    {
      "channel": 3,
      "note": 72,
      "start": 30.563,
      "duration": 0.0653,
      "velocity": 102,
      "chip": "ym2612"
    },
    {
      "channel": 4,
      "note": 67,
      "start": 30.5787,
      "duration": 0.0667,
      "velocity": 102,
      "chip": "ym2612"
    },
    {
      "channel": 0,
      "note": 36,
      "start": 30.6778,
      "duration": 0.2999,
      "velocity": 110,
      "chip": "ym2612"
    },
    {
      "channel": 1,
      "note": 64,
      "start": 30.6781,
      "duration": 0.2331,
      "velocity": 127,
      "chip": "ym2612"
    },
    {
      "channel": 3,
      "note": 72,
      "start": 30.6789,
      "duration": 0.0662,
      "velocity": 102,
      "chip": "ym2612"
    },
    {
      "channel": 4,
      "note": 67,
      "start": 30.6954,
      "duration": 0.0663,
      "velocity": 102,
      "chip": "ym2612"
    },
    {
      "channel": 3,
      "note": 72,
      "start": 30.7955,
      "duration": 0.0661,
      "velocity": 102,
      "chip": "ym2612"
    },
    {
      "channel": 4,
      "note": 67,
      "start": 30.8119,
      "duration": 0.0666,
      "velocity": 102,
      "chip": "ym2612"
    },
    {
      "channel": 1,
      "note": 64,
      "start": 30.9113,
      "duration": 0.1174,
      "velocity": 127,
      "chip": "ym2612"
    },
    {
      "channel": 3,
      "note": 70,
      "start": 30.9123,
      "duration": 0.0661,
      "velocity": 102,
      "chip": "ym2612"
    },
    {
      "channel": 4,
      "note": 65,
      "start": 30.9286,
      "duration": 0.0668,
      "velocity": 102,
      "chip": "ym2612"
    },
    {
      "channel": 0,
      "note": 37,
      "start": 31.0278,
      "duration": 0.1832,
      "velocity": 110,
      "chip": "ym2612"
    },
    {
      "channel": 1,
      "note": 59,
      "start": 31.0288,
      "duration": 0.2332,
      "velocity": 127,
      "chip": "ym2612"
    },
    {
      "channel": 3,
      "note": 70,
      "start": 31.0296,
      "duration": 0.0655,
      "velocity": 102,
      "chip": "ym2612"
    },
    {
      "channel": 4,
      "note": 65,
      "start": 31.0454,
      "duration": 0.0663,
      "velocity": 102,
      "chip": "ym2612"
    },
    {
      "channel": 3,
      "note": 70,
      "start": 31.1455,
      "duration": 0.0662,
      "velocity": 102,
      "chip": "ym2612"
    },
    {
      "channel": 4,
      "note": 65,
      "start": 31.1619,
      "duration": 0.0667,
      "velocity": 102,
      "chip": "ym2612"
    },
    {
      "channel": 0,
      "note": 39,
      "start": 31.2612,
      "duration": 0.1835,
      "velocity": 110,
      "chip": "ym2612"
    },
    {
      "channel": 1,
      "note": 64,
      "start": 31.2622,
      "duration": 0.1164,
      "velocity": 127,
      "chip": "ym2612"
    },
    {
      "channel": 3,
      "note": 72,
      "start": 31.2631,
      "duration": 0.0651,
      "velocity": 102,
      "chip": "ym2612"
    },
    {
      "channel": 4,
      "note": 67,
      "start": 31.2786,
      "duration": 0.0667,
      "velocity": 102,
      "chip": "ym2612"
    },
    {
      "channel": 1,
      "note": 59,
      "start": 31.3787,
      "duration": 0.1162,
      "velocity": 127,
      "chip": "ym2612"
    },
    {
      "channel": 3,
      "note": 72,
      "start": 31.3796,
      "duration": 0.0657,
      "velocity": 102,
      "chip": "ym2612"
    },
    {
      "channel": 4,
      "note": 67,
      "start": 31.3955,
      "duration": 0.0663,
      "velocity": 102,
      "chip": "ym2612"
    },
    {
      "channel": 0,
      "note": 37,
      "start": 31.4948,
      "duration": 0.1829,
      "velocity": 110,
      "chip": "ym2612"
    },
    {
      "channel": 1,
      "note": 59,
      "start": 31.495,
      "duration": 0.1161,
      "velocity": 127,
      "chip": "ym2612"
    },
    {
      "channel": 3,
      "note": 70,
      "start": 31.4958,
      "duration": 0.0658,
      "velocity": 102,
      "chip": "ym2612"
    },
    {
      "channel": 4,
      "note": 65,
      "start": 31.5118,
      "duration": 0.0666,
      "velocity": 102,
      "chip": "ym2612"
    },
    {
      "channel": 1,
      "note": 59,
      "start": 31.6113,
      "duration": 0.1174,
      "velocity": 127,
      "chip": "ym2612"
    },
    {
      "channel": 3,
      "note": 70,
      "start": 31.6123,
      "duration": 0.0661,
      "velocity": 102,
      "chip": "ym2612"
    },
    {
      "channel": 4,
      "note": 65,
      "start": 31.6287,
      "duration": 0.0667,
      "velocity": 102,
      "chip": "ym2612"
    },
    {
      "channel": 0,
      "note": 36,
      "start": 31.7278,
      "duration": 0.0668,
      "velocity": 110,
      "chip": "ym2612"
    },
    {
      "channel": 1,
      "note": 64,
      "start": 31.7288,
      "duration": 0.116,
      "velocity": 127,
      "chip": "ym2612"
    },
    {
      "channel": 3,
      "note": 72,
      "start": 31.73,
      "duration": 0.0653,
      "velocity": 102,
      "chip": "ym2612"
    },
    {
      "channel": 4,
      "note": 67,
      "start": 31.7455,
      "duration": 0.0662,
      "velocity": 102,
      "chip": "ym2612"
    },
    {
      "channel": 1,
      "note": 64,
      "start": 31.845,
      "duration": 0.233,
      "velocity": 127,
      "chip": "ym2612"
    },
    {
      "channel": 3,
      "note": 72,
      "start": 31.8458,
      "duration": 0.0659,
      "velocity": 102,
      "chip": "ym2612"
    },
    {
      "channel": 4,
      "note": 67,
      "start": 31.8619,
      "duration": 0.0667,
      "velocity": 102,
      "chip": "ym2612"
    },
    {
      "channel": 0,
      "note": 36,
      "start": 31.9612,
      "duration": 0.0666,
      "velocity": 110,
      "chip": "ym2612"
    },
    {
      "channel": 3,
      "note": 72,
      "start": 31.9621,
      "duration": 0.0662,
      "velocity": 102,
      "chip": "ym2612"
    },
    {
      "channel": 4,
      "note": 67,
      "start": 31.9785,
      "duration": 0.0669,
      "velocity": 102,
      "chip": "ym2612"
    },
    {
      "channel": 0,
      "note": 36,
      "start": 32.0778,
      "duration": 0.0668,
      "velocity": 110,
      "chip": "ym2612"
    },
    {
      "channel": 1,
      "note": 64,
      "start": 32.0781,
      "duration": 0.1174,
      "velocity": 127,
      "chip": "ym2612"
    },
    {
      "channel": 3,
      "note": 70,
      "start": 32.0791,
      "duration": 0.0661,
      "velocity": 102,
      "chip": "ym2612"
    },
    {
      "channel": 4,
      "note": 65,
      "start": 32.0955,
      "duration": 0.0663,
      "velocity": 102,
      "chip": "ym2612"
    },
    {
      "channel": 1,
      "note": 59,
      "start": 32.1957,
      "duration": 0.2329,
      "velocity": 127,
      "chip": "ym2612"
    },
    {
      "channel": 3,
      "note": 70,
      "start": 32.1965,
      "duration": 0.0652,
      "velocity": 102,
      "chip": "ym2612"
    },
    {
      "channel": 4,
      "note": 65,
      "start": 32.2119,
      "duration": 0.0667,
      "velocity": 102,
      "chip": "ym2612"
    },
    {
      "channel": 0,
      "note": 36,
      "start": 32.3112,
      "duration": 0.0666,
      "velocity": 110,
      "chip": "ym2612"
    },
    {
      "channel": 3,
      "note": 70,
      "start": 32.3121,
      "duration": 0.0662,
      "velocity": 102,
      "chip": "ym2612"
    },
    {
      "channel": 4,
      "note": 65,
      "start": 32.3285,
      "duration": 0.0669,
      "velocity": 102,
      "chip": "ym2612"
    },
    {
      "channel": 1,
      "note": 64,
      "start": 32.4288,
      "duration": 0.1161,
      "velocity": 127,
      "chip": "ym2612"
    },
    {
      "channel": 3,
      "note": 72,
      "start": 32.4297,
      "duration": 0.0655,
      "velocity": 102,
      "chip": "ym2612"
    },
    {
      "channel": 4,
      "note": 67,
      "start": 32.4456,
      "duration": 0.0662,
      "velocity": 102,
      "chip": "ym2612"
    },
    {
      "channel": 0,
      "note": 36,
      "start": 32.5448,
      "duration": 0.2999,
      "velocity": 110,
      "chip": "ym2612"
    },
    {
      "channel": 1,
      "note": 64,
      "start": 32.545,
      "duration": 0.2328,
      "velocity": 127,
      "chip": "ym2612"
    },
    {
      "channel": 3,
      "note": 72,
      "start": 32.5459,
      "duration": 0.0658,
      "velocity": 102,
      "chip": "ym2612"
    },
    {
      "channel": 4,
      "note": 67,
      "start": 32.5618,
      "duration": 0.0666,
      "velocity": 102,
      "chip": "ym2612"
    },
    {
      "channel": 3,
      "note": 72,
      "start": 32.662,
      "duration": 0.0663,
      "velocity": 102,
      "chip": "ym2612"
    },
    {
      "channel": 4,
      "note": 67,
      "start": 32.6786,
      "duration": 0.0668,
      "velocity": 102,
      "chip": "ym2612"
    },
    {
      "channel": 1,
      "note": 64,
      "start": 32.778,
      "duration": 0.1176,
      "velocity": 127,
      "chip": "ym2612"
    },
    {
      "channel": 3,
      "note": 70,
      "start": 32.7789,
      "duration": 0.0663,
      "velocity": 102,
      "chip": "ym2612"
    },
    {
      "channel": 4,
      "note": 65,
      "start": 32.7955,
      "duration": 0.0663,
      "velocity": 102,
      "chip": "ym2612"
    },
    {
      "channel": 0,
      "note": 34,
      "start": 32.8948,
      "duration": 0.1829,
      "velocity": 110,
      "chip": "ym2612"
    },
    {
      "channel": 1,
      "note": 59,
      "start": 32.8957,
      "duration": 0.2323,
      "velocity": 127,
      "chip": "ym2612"
    },
    {
      "channel": 3,
      "note": 70,
      "start": 32.8965,
      "duration": 0.0651,
      "velocity": 102,
      "chip": "ym2612"
    },
    {
      "channel": 4,
      "note": 65,
      "start": 32.9118,
      "duration": 0.0666,
      "velocity": 102,
      "chip": "ym2612"
    },
    {
      "channel": 3,
      "note": 70,
      "start": 33.012,
      "duration": 0.0664,
      "velocity": 102,
      "chip": "ym2612"
    },
    {
      "channel": 4,
      "note": 65,
      "start": 33.0285,
      "duration": 0.0669,
      "velocity": 102,
      "chip": "ym2612"
    },
    {
      "channel": 0,
      "note": 32,
      "start": 33.1278,
      "duration": 0.1832,
      "velocity": 110,
      "chip": "ym2612"
    },
    {
      "channel": 1,
      "note": 59,
      "start": 33.1281,
      "duration": 0.1173,
      "velocity": 127,
      "chip": "ym2612"
    },
    {
      "channel": 2,
      "note": 62,
      "start": 33.1284,
      "duration": 0.4165,
      "velocity": 111,
      "chip": "ym2612"
    },
    {
      "channel": 3,
      "note": 72,
      "start": 33.1293,
      "duration": 0.0658,
      "velocity": 102,
      "chip": "ym2612"
    },
    {
      "channel": 4,
      "note": 67,
      "start": 33.1455,
      "duration": 0.0662,
      "velocity": 102,
      "chip": "ym2612"
    },
    {
      "channel": 5,
      "note": 62,
      "start": 33.1458,
      "duration": 0.4162,
      "velocity": 111,
      "chip": "ym2612"
    },
    {
      "channel": 1,
      "note": 64,
      "start": 33.2455,
      "duration": 0.1165,
      "velocity": 127,
      "chip": "ym2612"
    },
    {
      "channel": 3,
      "note": 72,
      "start": 33.2465,
      "duration": 0.0652,
      "velocity": 102,
      "chip": "ym2612"
    },
    {
      "channel": 4,
      "note": 67,
      "start": 33.262,
      "duration": 0.0665,
      "velocity": 102,
      "chip": "ym2612"
    },
    {
      "channel": 0,
      "note": 34,
      "start": 33.3612,
      "duration": 0.1835,
      "velocity": 110,
      "chip": "ym2612"
    },
    {
      "channel": 1,
      "note": 59,
      "start": 33.3622,
      "duration": 0.1157,
      "velocity": 127,
      "chip": "ym2612"
    },
    {
      "channel": 3,
      "note": 70,
      "start": 33.3629,
      "duration": 0.0653,
      "velocity": 102,
      "chip": "ym2612"
    },
    {
      "channel": 4,
      "note": 65,
      "start": 33.3785,
      "duration": 0.0669,
      "velocity": 102,
      "chip": "ym2612"
    },
    {
      "channel": 1,
      "note": 59,
      "start": 33.478,
      "duration": 0.1176,
      "velocity": 127,
      "chip": "ym2612"
    },
    {
      "channel": 3,
      "note": 70,
      "start": 33.4789,
      "duration": 0.0663,
      "velocity": 102,
      "chip": "ym2612"
    },
    {
      "channel": 4,
      "note": 65,
      "start": 33.4955,
      "duration": 0.0663,
      "velocity": 102,
      "chip": "ym2612"
    },
    {
      "channel": 0,
      "note": 36,
      "start": 33.5948,
      "duration": 0.0663,
      "velocity": 110,
      "chip": "ym2612"
    },
    {
      "channel": 1,
      "note": 64,
      "start": 33.5957,
      "duration": 0.1156,
      "velocity": 127,
      "chip": "ym2612"
    },
    {
      "channel": 2,
      "note": 63,
      "start": 33.596,
      "duration": 3.2154,
      "velocity": 111,
      "chip": "ym2612"
    },
    {
      "channel": 3,
      "note": 72,
      "start": 33.597,
      "duration": 0.0646,
      "velocity": 102,
      "chip": "ym2612"
    },
    {
      "channel": 4,
      "note": 67,
      "start": 33.612,
      "duration": 0.0665,
      "velocity": 102,
      "chip": "ym2612"
    },
    {
      "channel": 5,
      "note": 63,
      "start": 33.6122,
      "duration": 3.2166,
      "velocity": 111,
      "chip": "ym2612"
    },
    {
      "channel": 1,
      "note": 64,
      "start": 33.7114,
      "duration": 0.2335,
      "velocity": 127,
      "chip": "ym2612"
    },
    {
      "channel": 3,
      "note": 72,
      "start": 33.7122,
      "duration": 0.0662,
      "velocity": 102,
      "chip": "ym2612"
    },
    {
      "channel": 4,
      "note": 67,
      "start": 33.7285,
      "duration": 0.0669,
      "velocity": 102,
      "chip": "ym2612"
    },
    {
      "channel": 0,
      "note": 36,
      "start": 33.8278,
      "duration": 0.0668,
      "velocity": 110,
      "chip": "ym2612"
    },
    {
      "channel": 3,
      "note": 72,
      "start": 33.8288,
      "duration": 0.0664,
      "velocity": 102,
      "chip": "ym2612"
    },
    {
      "channel": 4,
      "note": 67,
      "start": 33.8454,
      "duration": 0.0663,
      "velocity": 102,
      "chip": "ym2612"
    },
    {
      "channel": 0,
      "note": 36,
      "start": 33.9448,
      "duration": 0.0663,
      "velocity": 110,
      "chip": "ym2612"
    },
    {
      "channel": 1,
      "note": 64,
      "start": 33.945,
      "duration": 0.1169,
      "velocity": 127,
      "chip": "ym2612"
    },
    {
      "channel": 3,
      "note": 70,
      "start": 33.946,
      "duration": 0.0656,
      "velocity": 102,
      "chip": "ym2612"
    },
    {
      "channel": 4,
      "note": 65,
      "start": 33.9619,
      "duration": 0.0666,
      "velocity": 102,
      "chip": "ym2612"
    },
    {
      "channel": 1,
      "note": 59,
      "start": 34.0621,
      "duration": 0.2334,
      "velocity": 127,
      "chip": "ym2612"
    },
    {
      "channel": 3,
      "note": 70,
      "start": 34.0629,
      "duration": 0.0655,
      "velocity": 102,
      "chip": "ym2612"
    },
    {
      "channel": 4,
      "note": 65,
      "start": 34.0785,
      "duration": 0.0669,
      "velocity": 102,
      "chip": "ym2612"
    },
    {
      "channel": 0,
      "note": 36,
      "start": 34.1778,
      "duration": 0.0668,
      "velocity": 110,
      "chip": "ym2612"
    },
    {
      "channel": 3,
      "note": 70,
      "start": 34.1788,
      "duration": 0.0665,
      "velocity": 102,
      "chip": "ym2612"
    },
    {
      "channel": 4,
      "note": 65,
      "start": 34.1954,
      "duration": 0.0663,
      "velocity": 102,
      "chip": "ym2612"
    },
    {
      "channel": 1,
      "note": 64,
      "start": 34.2957,
      "duration": 0.1156,
      "velocity": 127,
      "chip": "ym2612"
    },
    {
      "channel": 3,
      "note": 72,
      "start": 34.2966,
      "duration": 0.0651,
      "velocity": 102,
      "chip": "ym2612"
    },
    {
      "channel": 4,
      "note": 67,
      "start": 34.312,
      "duration": 0.0665,
      "velocity": 102,
      "chip": "ym2612"
    },
    {
      "channel": 0,
      "note": 36,
      "start": 34.4112,
      "duration": 0.2999,
      "velocity": 110,
      "chip": "ym2612"
    },
    {
      "channel": 1,
      "note": 64,
      "start": 34.4115,
      "duration": 0.2333,
      "velocity": 127,
      "chip": "ym2612"
    },
    {
      "channel": 3,
      "note": 72,
      "start": 34.4123,
      "duration": 0.066,
      "velocity": 102,
      "chip": "ym2612"
    },
    {
      "channel": 4,
      "note": 67,
      "start": 34.4285,
      "duration": 0.0669,
      "velocity": 102,
      "chip": "ym2612"
    },
    {
      "channel": 3,
      "note": 72,
      "start": 34.5286,
      "duration": 0.0666,
      "velocity": 102,
      "chip": "ym2612"
    },
    {
      "channel": 4,
      "note": 67,
      "start": 34.5455,
      "duration": 0.0663,
      "velocity": 102,
      "chip": "ym2612"
    },
    {
      "channel": 1,
      "note": 64,
      "start": 34.6449,
      "duration": 0.1171,
      "velocity": 127,
      "chip": "ym2612"
    },
    {
      "channel": 3,
      "note": 70,
      "start": 34.6459,
      "duration": 0.0659,
      "velocity": 102,
      "chip": "ym2612"
    },
    {
      "channel": 4,
      "note": 65,
      "start": 34.662,
      "duration": 0.0665,
      "velocity": 102,
      "chip": "ym2612"
    },
    {
      "channel": 0,
      "note": 37,
      "start": 34.7612,
      "duration": 0.1835,
      "velocity": 110,
      "chip": "ym2612"
    },
    {
      "channel": 1,
      "note": 59,
      "start": 34.7622,
      "duration": 0.2334,
      "velocity": 127,
      "chip": "ym2612"
    },
    {
      "channel": 3,
      "note": 70,
      "start": 34.763,
      "duration": 0.0653,
      "velocity": 102,
      "chip": "ym2612"
    },
    {
      "channel": 4,
      "note": 65,
      "start": 34.7785,
      "duration": 0.0669,
      "velocity": 102,
      "chip": "ym2612"
    },
    {
      "channel": 3,
      "note": 70,
      "start": 34.8786,
      "duration": 0.0667,
      "velocity": 102,
      "chip": "ym2612"
    },
    {
      "channel": 4,
      "note": 65,
      "start": 34.8955,
      "duration": 0.0664,
      "velocity": 102,
      "chip": "ym2612"
    },
    {
      "channel": 0,
      "note": 39,
      "start": 34.9948,
      "duration": 0.1829,
      "velocity": 110,
      "chip": "ym2612"
    },
    {
      "channel": 1,
      "note": 64,
      "start": 34.9957,
      "duration": 0.1161,
      "velocity": 127,
      "chip": "ym2612"
    },
    {
      "channel": 3,
      "note": 72,
      "start": 34.9967,
      "duration": 0.0649,
      "velocity": 102,
      "chip": "ym2612"
    },
    {
      "channel": 4,
      "note": 67,
      "start": 35.012,
      "duration": 0.0664,
      "velocity": 102,
      "chip": "ym2612"
    },
    {
      "channel": 1,
      "note": 59,
      "start": 35.112,
      "duration": 0.116,
      "velocity": 127,
      "chip": "ym2612"
    },
    {
      "channel": 3,
      "note": 72,
      "start": 35.1129,
      "duration": 0.0655,
      "velocity": 102,
      "chip": "ym2612"
    },
    {
      "channel": 4,
      "note": 67,
      "start": 35.1287,
      "duration": 0.0667,
      "velocity": 102,
      "chip": "ym2612"
    },
    {
      "channel": 0,
      "note": 37,
      "start": 35.2278,
      "duration": 0.1832,
      "velocity": 110,
      "chip": "ym2612"
    },
    {
      "channel": 1,
      "note": 59,
      "start": 35.2281,
      "duration": 0.1167,
      "velocity": 127,
      "chip": "ym2612"
    },
    {
      "channel": 3,
      "note": 70,
      "start": 35.2289,
      "duration": 0.0663,
      "velocity": 102,
      "chip": "ym2612"
    },
    {
      "channel": 4,
      "note": 65,
      "start": 35.2454,
      "duration": 0.0663,
      "velocity": 102,
      "chip": "ym2612"
    },
    {
      "channel": 1,
      "note": 59,
      "start": 35.3449,
      "duration": 0.1171,
      "velocity": 127,
      "chip": "ym2612"
    },
    {
      "channel": 3,
      "note": 70,
      "start": 35.3459,
      "duration": 0.0659,
      "velocity": 102,
      "chip": "ym2612"
    },
    {
      "channel": 4,
      "note": 65,
      "start": 35.362,
      "duration": 0.0665,
      "velocity": 102,
      "chip": "ym2612"
    },
    {
      "channel": 0,
      "note": 36,
      "start": 35.4612,
      "duration": 0.0666,
      "velocity": 110,
      "chip": "ym2612"
    },
    {
      "channel": 1,
      "note": 64,
      "start": 35.4622,
      "duration": 0.1158,
      "velocity": 127,
      "chip": "ym2612"
    },
    {
      "channel": 3,
      "note": 72,
      "start": 35.4633,
      "duration": 0.065,
      "velocity": 102,
      "chip": "ym2612"
    },
    {
      "channel": 4,
      "note": 67,
      "start": 35.4786,
      "duration": 0.0667,
      "velocity": 102,
      "chip": "ym2612"
    },
    {
      "channel": 1,
      "note": 64,
      "start": 35.578,
      "duration": 0.2333,
      "velocity": 127,
      "chip": "ym2612"
    },
    {
      "channel": 3,
      "note": 72,
      "start": 35.5789,
      "duration": 0.0664,
      "velocity": 102,
      "chip": "ym2612"
    },
    {
      "channel": 4,
      "note": 67,
      "start": 35.5955,
      "duration": 0.0664,
      "velocity": 102,
      "chip": "ym2612"
    },
    {
      "channel": 0,
      "note": 36,
      "start": 35.6948,
      "duration": 0.0663,
      "velocity": 110,
      "chip": "ym2612"
    },
    {
      "channel": 3,
      "note": 72,
      "start": 35.6957,
      "duration": 0.066,
      "velocity": 102,
      "chip": "ym2612"
    },
    {
      "channel": 4,
      "note": 67,
      "start": 35.7118,
      "duration": 0.0667,
      "velocity": 102,
      "chip": "ym2612"
    },
    {
      "channel": 0,
      "note": 36,
      "start": 35.8112,
      "duration": 0.0666,
      "velocity": 110,
      "chip": "ym2612"
    },
    {
      "channel": 1,
      "note": 64,
      "start": 35.8115,
      "duration": 0.1172,
      "velocity": 127,
      "chip": "ym2612"
    },
    {
      "channel": 3,
      "note": 70,
      "start": 35.8124,
      "duration": 0.0659,
      "velocity": 102,
      "chip": "ym2612"
    },
    {
      "channel": 4,
      "note": 65,
      "start": 35.8285,
      "duration": 0.0668,
      "velocity": 102,
      "chip": "ym2612"
    },
    {
      "channel": 1,
      "note": 59,
      "start": 35.9288,
      "duration": 0.2332,
      "velocity": 127,
      "chip": "ym2612"
    },
    {
      "channel": 3,
      "note": 70,
      "start": 35.9296,
      "duration": 0.0657,
      "velocity": 102,
      "chip": "ym2612"
    },
    {
      "channel": 4,
      "note": 65,
      "start": 35.9455,
      "duration": 0.0664,
      "velocity": 102,
      "chip": "ym2612"
    },
    {
      "channel": 0,
      "note": 36,
      "start": 36.0448,
      "duration": 0.0663,
      "velocity": 110,
      "chip": "ym2612"
    },
    {
      "channel": 3,
      "note": 70,
      "start": 36.0457,
      "duration": 0.066,
      "velocity": 102,
      "chip": "ym2612"
    },
    {
      "channel": 4,
      "note": 65,
      "start": 36.0618,
      "duration": 0.0667,
      "velocity": 102,
      "chip": "ym2612"
    },
    {
      "channel": 1,
      "note": 64,
      "start": 36.1621,
      "duration": 0.1159,
      "velocity": 127,
      "chip": "ym2612"
    },
    {
      "channel": 3,
      "note": 72,
      "start": 36.1631,
      "duration": 0.0653,
      "velocity": 102,
      "chip": "ym2612"
    },
    {
      "channel": 4,
      "note": 67,
      "start": 36.1787,
      "duration": 0.0667,
      "velocity": 102,
      "chip": "ym2612"
    },
    {
      "channel": 0,
      "note": 36,
      "start": 36.2778,
      "duration": 0.2999,
      "velocity": 110,
      "chip": "ym2612"
    },
    {
      "channel": 1,
      "note": 64,
      "start": 36.2781,
      "duration": 0.2331,
      "velocity": 127,
      "chip": "ym2612"
    },
    {
      "channel": 3,
      "note": 72,
      "start": 36.2789,
      "duration": 0.0662,
      "velocity": 102,
      "chip": "ym2612"
    },
    {
      "channel": 4,
      "note": 67,
      "start": 36.2954,
      "duration": 0.0663,
      "velocity": 102,
      "chip": "ym2612"
    },
    {
      "channel": 3,
      "note": 72,
      "start": 36.3955,
      "duration": 0.0661,
      "velocity": 102,
      "chip": "ym2612"
    },
    {
      "channel": 4,
      "note": 67,
      "start": 36.412,
      "duration": 0.0665,
      "velocity": 102,
      "chip": "ym2612"
    },
    {
      "channel": 1,
      "note": 64,
      "start": 36.5113,
      "duration": 0.1174,
      "velocity": 127,
      "chip": "ym2612"
    },
    {
      "channel": 3,
      "note": 70,
      "start": 36.5123,
      "duration": 0.0661,
      "velocity": 102,
      "chip": "ym2612"
    },
    {
      "channel": 4,
      "note": 65,
      "start": 36.5286,
      "duration": 0.0668,
      "velocity": 102,
      "chip": "ym2612"
    },
    {
      "channel": 0,
      "note": 34,
      "start": 36.6278,
      "duration": 0.1832,
      "velocity": 110,
      "chip": "ym2612"
    },
    {
      "channel": 1,
      "note": 59,
      "start": 36.6288,
      "duration": 0.2326,
      "velocity": 127,
      "chip": "ym2612"
    },
    {
      "channel": 3,
      "note": 70,
      "start": 36.6296,
      "duration": 0.0655,
      "velocity": 102,
      "chip": "ym2612"
    },
    {
      "channel": 4,
      "note": 65,
      "start": 36.6454,
      "duration": 0.0663,
      "velocity": 102,
      "chip": "ym2612"
    },
    {
      "channel": 3,
      "note": 70,
      "start": 36.7455,
      "duration": 0.0662,
      "velocity": 102,
      "chip": "ym2612"
    },
    {
      "channel": 4,
      "note": 65,
      "start": 36.762,
      "duration": 0.0666,
      "velocity": 102,
      "chip": "ym2612"
    },
    {
      "channel": 0,
      "note": 32,
      "start": 36.8612,
      "duration": 0.1835,
      "velocity": 110,
      "chip": "ym2612"
    },
    {
      "channel": 1,
      "note": 59,
      "start": 36.8615,
      "duration": 0.1171,
      "velocity": 127,
      "chip": "ym2612"
    },
    {
      "channel": 2,
      "note": 65,
      "start": 36.8618,
      "duration": 0.4163,
      "velocity": 111,
      "chip": "ym2612"
    },
    {
      "channel": 3,
      "note": 72,
      "start": 36.8627,
      "duration": 0.0656,
      "velocity": 102,
      "chip": "ym2612"
    },
    {
      "channel": 4,
      "note": 67,
      "start": 36.8786,
      "duration": 0.0667,
      "velocity": 102,
      "chip": "ym2612"
    },
    {
      "channel": 5,
      "note": 65,
      "start": 36.8789,
      "duration": 0.4167,
      "velocity": 111,
      "chip": "ym2612"
    },
    {
      "channel": 1,
      "note": 64,
      "start": 36.9786,
      "duration": 0.117,
      "velocity": 127,
      "chip": "ym2612"
    },
    {
      "channel": 3,
      "note": 72,
      "start": 36.9796,
      "duration": 0.0657,
      "velocity": 102,
      "chip": "ym2612"
    },
    {
      "channel": 4,
      "note": 67,
      "start": 36.9955,
      "duration": 0.0663,
      "velocity": 102,
      "chip": "ym2612"
    },
    {
      "channel": 0,
      "note": 34,
      "start": 37.0948,
      "duration": 0.1829,
      "velocity": 110,
      "chip": "ym2612"
    },
    {
      "channel": 1,
      "note": 59,
      "start": 37.0957,
      "duration": 0.1154,
      "velocity": 127,
      "chip": "ym2612"
    },
    {
      "channel": 3,
      "note": 70,
      "start": 37.0965,
      "duration": 0.0651,
      "velocity": 102,
      "chip": "ym2612"
    },
    {
      "channel": 4,
      "note": 65,
      "start": 37.1118,
      "duration": 0.0666,
      "velocity": 102,
      "chip": "ym2612"
    },
    {
      "channel": 1,
      "note": 59,
      "start": 37.2113,
      "duration": 0.1174,
      "velocity": 127,
      "chip": "ym2612"
    },
    {
      "channel": 3,
      "note": 70,
      "start": 37.2123,
      "duration": 0.0661,
      "velocity": 102,
      "chip": "ym2612"
    },
    {
      "channel": 4,
      "note": 65,
      "start": 37.2287,
      "duration": 0.0667,
      "velocity": 102,
      "chip": "ym2612"
    },
    {
      "channel": 0,
      "note": 36,
      "start": 37.3278,
      "duration": 0.0668,
      "velocity": 110,
      "chip": "ym2612"
    },
    {
      "channel": 1,
      "note": 64,
      "start": 37.3289,
      "duration": 0.116,
      "velocity": 127,
      "chip": "ym2612"
    },
    {
      "channel": 2,
      "note": 62,
      "start": 37.3291,
      "duration": 3.2158,
      "velocity": 111,
      "chip": "ym2612"
    },
    {
      "channel": 3,
      "note": 72,
      "start": 37.3301,
      "duration": 0.0651,
      "velocity": 102,
      "chip": "ym2612"
    },
    {
      "channel": 4,
      "note": 67,
      "start": 37.3455,
      "duration": 0.0662,
      "velocity": 102,
      "chip": "ym2612"
    },
    {
      "channel": 5,
      "note": 62,
      "start": 37.3458,
      "duration": 3.2163,
      "velocity": 111,
      "chip": "ym2612"
    },
    {
      "channel": 1,
      "note": 64,
      "start": 37.445,
      "duration": 0.233,
      "velocity": 127,
      "chip": "ym2612"
    },
    {
      "channel": 3,
      "note": 72,
      "start": 37.4458,
      "duration": 0.0659,
      "velocity": 102,
      "chip": "ym2612"
    },
    {
      "channel": 4,
      "note": 67,
      "start": 37.4619,
      "duration": 0.0667,
      "velocity": 102,
      "chip": "ym2612"
    },
    {
      "channel": 0,
      "note": 36,
      "start": 37.5612,
      "duration": 0.0666,
      "velocity": 110,
      "chip": "ym2612"
    },
    {
      "channel": 3,
      "note": 72,
      "start": 37.5621,
      "duration": 0.0662,
      "velocity": 102,
      "chip": "ym2612"
    },
    {
      "channel": 4,
      "note": 67,
      "start": 37.5785,
      "duration": 0.0669,
      "velocity": 102,
      "chip": "ym2612"
    },
    {
      "channel": 0,
      "note": 36,
      "start": 37.6778,
      "duration": 0.0668,
      "velocity": 110,
      "chip": "ym2612"
    },
    {
      "channel": 1,
      "note": 64,
      "start": 37.6781,
      "duration": 0.1174,
      "velocity": 127,
      "chip": "ym2612"
    },
    {
      "channel": 3,
      "note": 70,
      "start": 37.6791,
      "duration": 0.0661,
      "velocity": 102,
      "chip": "ym2612"
    },
    {
      "channel": 4,
      "note": 65,
      "start": 37.6955,
      "duration": 0.0663,
      "velocity": 102,
      "chip": "ym2612"
    },
    {
      "channel": 1,
      "note": 59,
      "start": 37.7957,
      "duration": 0.2329,
      "velocity": 127,
      "chip": "ym2612"
    },
    {
      "channel": 3,
      "note": 70,
      "start": 37.7965,
      "duration": 0.0652,
      "velocity": 102,
      "chip": "ym2612"
    },
    {
      "channel": 4,
      "note": 65,
      "start": 37.8119,
      "duration": 0.0667,
      "velocity": 102,
      "chip": "ym2612"
    },
    {
      "channel": 0,
      "note": 36,
      "start": 37.9112,
      "duration": 0.0666,
      "velocity": 110,
      "chip": "ym2612"
    },
    {
      "channel": 3,
      "note": 70,
      "start": 37.9121,
      "duration": 0.0662,
      "velocity": 102,
      "chip": "ym2612"
    },
    {
      "channel": 4,
      "note": 65,
      "start": 37.9285,
      "duration": 0.0669,
      "velocity": 102,
      "chip": "ym2612"
    },
    {
      "channel": 1,
      "note": 64,
      "start": 38.0288,
      "duration": 0.1161,
      "velocity": 127,
      "chip": "ym2612"
    },
    {
      "channel": 3,
      "note": 72,
      "start": 38.0297,
      "duration": 0.0655,
      "velocity": 102,
      "chip": "ym2612"
    },
    {
      "channel": 4,
      "note": 67,
      "start": 38.0456,
      "duration": 0.0662,
      "velocity": 102,
      "chip": "ym2612"
    },
    {
      "channel": 0,
      "note": 36,
      "start": 38.1448,
      "duration": 0.2999,
      "velocity": 110,
      "chip": "ym2612"
    },
    {
      "channel": 1,
      "note": 64,
      "start": 38.145,
      "duration": 0.2328,
      "velocity": 127,
      "chip": "ym2612"
    },
    {
      "channel": 3,
      "note": 72,
      "start": 38.1459,
      "duration": 0.0657,
      "velocity": 102,
      "chip": "ym2612"
    },
    {
      "channel": 4,
      "note": 67,
      "start": 38.1618,
      "duration": 0.0666,
      "velocity": 102,
      "chip": "ym2612"
    },
    {
      "channel": 3,
      "note": 72,
      "start": 38.262,
      "duration": 0.0663,
      "velocity": 102,
      "chip": "ym2612"
    },
    {
      "channel": 4,
      "note": 67,
      "start": 38.2785,
      "duration": 0.0669,
      "velocity": 102,
      "chip": "ym2612"
    },
    {
      "channel": 1,
      "note": 64,
      "start": 38.378,
      "duration": 0.1176,
      "velocity": 127,
      "chip": "ym2612"
    },
    {
      "channel": 3,
      "note": 70,
      "start": 38.3789,
      "duration": 0.0663,
      "velocity": 102,
      "chip": "ym2612"
    },
    {
      "channel": 4,
      "note": 65,
      "start": 38.3955,
      "duration": 0.0663,
      "velocity": 102,
      "chip": "ym2612"
    },
    {
      "channel": 0,
      "note": 37,
      "start": 38.4948,
      "duration": 0.1829,
      "velocity": 110,
      "chip": "ym2612"
    },
    {
      "channel": 1,
      "note": 59,
      "start": 38.4957,
      "duration": 0.2329,
      "velocity": 127,
      "chip": "ym2612"
    },
    {
      "channel": 3,
      "note": 70,
      "start": 38.4965,
      "duration": 0.0651,
      "velocity": 102,
      "chip": "ym2612"
    },
    {
      "channel": 4,
      "note": 65,
      "start": 38.5118,
      "duration": 0.0666,
      "velocity": 102,
      "chip": "ym2612"
    },
    {
      "channel": 3,
      "note": 70,
      "start": 38.612,
      "duration": 0.0664,
      "velocity": 102,
      "chip": "ym2612"
    },
    {
      "channel": 4,
      "note": 65,
      "start": 38.6285,
      "duration": 0.0669,
      "velocity": 102,
      "chip": "ym2612"
    },
    {
      "channel": 0,
      "note": 39,
      "start": 38.7278,
      "duration": 0.1832,
      "velocity": 110,
      "chip": "ym2612"
    },
    {
      "channel": 1,
      "note": 64,
      "start": 38.7288,
      "duration": 0.1167,
      "velocity": 127,
      "chip": "ym2612"
    },
    {
      "channel": 3,
      "note": 72,
      "start": 38.7298,
      "duration": 0.0654,
      "velocity": 102,
      "chip": "ym2612"
    },
    {
      "channel": 4,
      "note": 67,
      "start": 38.7455,
      "duration": 0.0662,
      "velocity": 102,
      "chip": "ym2612"
    },
    {
      "channel": 1,
      "note": 59,
      "start": 38.8456,
      "duration": 0.1157,
      "velocity": 127,
      "chip": "ym2612"
    },
    {
      "channel": 3,
      "note": 72,
      "start": 38.8465,
      "duration": 0.0652,
      "velocity": 102,
      "chip": "ym2612"
    },
    {
      "channel": 4,
      "note": 67,
      "start": 38.862,
      "duration": 0.0665,
      "velocity": 102,
      "chip": "ym2612"
    },
    {
      "channel": 0,
      "note": 37,
      "start": 38.9612,
      "duration": 0.1835,
      "velocity": 110,
      "chip": "ym2612"
    },
    {
      "channel": 1,
      "note": 59,
      "start": 38.9615,
      "duration": 0.1164,
      "velocity": 127,
      "chip": "ym2612"
    },
    {
      "channel": 3,
      "note": 70,
      "start": 38.9622,
      "duration": 0.066,
      "velocity": 102,
      "chip": "ym2612"
    },
    {
      "channel": 4,
      "note": 65,
      "start": 38.9785,
      "duration": 0.0669,
      "velocity": 102,
      "chip": "ym2612"
    },
    {
      "channel": 1,
      "note": 59,
      "start": 39.078,
      "duration": 0.1176,
      "velocity": 127,
      "chip": "ym2612"
    },
    {
      "channel": 3,
      "note": 70,
      "start": 39.0789,
      "duration": 0.0663,
      "velocity": 102,
      "chip": "ym2612"
    },
    {
      "channel": 4,
      "note": 65,
      "start": 39.0955,
      "duration": 0.0663,
      "velocity": 102,
      "chip": "ym2612"
    },
    {
      "channel": 0,
      "note": 36,
      "start": 39.1948,
      "duration": 0.0663,
      "velocity": 110,
      "chip": "ym2612"
    },
    {
      "channel": 1,
      "note": 64,
      "start": 39.1957,
      "duration": 0.1156,
      "velocity": 127,
      "chip": "ym2612"
    },
    {
      "channel": 3,
      "note": 72,
      "start": 39.1969,
      "duration": 0.0648,
      "velocity": 102,
      "chip": "ym2612"
    },
    {
      "channel": 4,
      "note": 67,
      "start": 39.212,
      "duration": 0.0665,
      "velocity": 102,
      "chip": "ym2612"
    },
    {
      "channel": 1,
      "note": 64,
      "start": 39.3114,
      "duration": 0.2335,
      "velocity": 127,
      "chip": "ym2612"
    },
    {
      "channel": 3,
      "note": 72,
      "start": 39.3122,
      "duration": 0.0662,
      "velocity": 102,
      "chip": "ym2612"
    },
    {
      "channel": 4,
      "note": 67,
      "start": 39.3285,
      "duration": 0.0669,
      "velocity": 102,
      "chip": "ym2612"
    },
    {
      "channel": 0,
      "note": 36,
      "start": 39.4278,
      "duration": 0.0668,
      "velocity": 110,
      "chip": "ym2612"
    },
    {
      "channel": 3,
      "note": 72,
      "start": 39.4288,
      "duration": 0.0665,
      "velocity": 102,
      "chip": "ym2612"
    },
    {
      "channel": 4,
      "note": 67,
      "start": 39.4454,
      "duration": 0.0663,
      "velocity": 102,
      "chip": "ym2612"
    },
    {
      "channel": 0,
      "note": 36,
      "start": 39.5448,
      "duration": 0.0663,
      "velocity": 110,
      "chip": "ym2612"
    },
    {
      "channel": 1,
      "note": 64,
      "start": 39.545,
      "duration": 0.1169,
      "velocity": 127,
      "chip": "ym2612"
    },
    {
      "channel": 3,
      "note": 70,
      "start": 39.546,
      "duration": 0.0656,
      "velocity": 102,
      "chip": "ym2612"
    },
    {
      "channel": 4,
      "note": 65,
      "start": 39.5619,
      "duration": 0.0666,
      "velocity": 102,
      "chip": "ym2612"
    },
    {
      "channel": 1,
      "note": 59,
      "start": 39.6621,
      "duration": 0.2334,
      "velocity": 127,
      "chip": "ym2612"
    },
    {
      "channel": 3,
      "note": 70,
      "start": 39.6629,
      "duration": 0.0655,
      "velocity": 102,
      "chip": "ym2612"
    },
    {
      "channel": 4,
      "note": 65,
      "start": 39.6785,
      "duration": 0.0669,
      "velocity": 102,
      "chip": "ym2612"
    },
    {
      "channel": 0,
      "note": 36,
      "start": 39.7778,
      "duration": 0.0668,
      "velocity": 110,
      "chip": "ym2612"
    },
    {
      "channel": 3,
      "note": 70,
      "start": 39.7788,
      "duration": 0.0665,
      "velocity": 102,
      "chip": "ym2612"
    },
    {
      "channel": 4,
      "note": 65,
      "start": 39.7954,
      "duration": 0.0664,
      "velocity": 102,
      "chip": "ym2612"
    },
    {
      "channel": 1,
      "note": 64,
      "start": 39.8957,
      "duration": 0.1156,
      "velocity": 127,
      "chip": "ym2612"
    },
    {
      "channel": 3,
      "note": 72,
      "start": 39.8966,
      "duration": 0.0651,
      "velocity": 102,
      "chip": "ym2612"
    },
    {
      "channel": 4,
      "note": 67,
      "start": 39.912,
      "duration": 0.0665,
      "velocity": 102,
      "chip": "ym2612"
    },
    {
      "channel": 0,
      "note": 36,
      "start": 40.0112,
      "duration": 0.2999,
      "velocity": 110,
      "chip": "ym2612"
    },
    {
      "channel": 1,
      "note": 64,
      "start": 40.0115,
      "duration": 0.2333,
      "velocity": 127,
      "chip": "ym2612"
    },
    {
      "channel": 3,
      "note": 72,
      "start": 40.0123,
      "duration": 0.066,
      "velocity": 102,
      "chip": "ym2612"
    },
    {
      "channel": 4,
      "note": 67,
      "start": 40.0285,
      "duration": 0.0669,
      "velocity": 102,
      "chip": "ym2612"
    },
    {
      "channel": 3,
      "note": 72,
      "start": 40.1286,
      "duration": 0.0666,
      "velocity": 102,
      "chip": "ym2612"
    },
    {
      "channel": 4,
      "note": 67,
      "start": 40.1455,
      "duration": 0.0663,
      "velocity": 102,
      "chip": "ym2612"
    },
    {
      "channel": 1,
      "note": 64,
      "start": 40.2449,
      "duration": 0.1171,
      "velocity": 127,
      "chip": "ym2612"
    },
    {
      "channel": 3,
      "note": 70,
      "start": 40.2459,
      "duration": 0.0659,
      "velocity": 102,
      "chip": "ym2612"
    },
    {
      "channel": 4,
      "note": 65,
      "start": 40.262,
      "duration": 0.0665,
      "velocity": 102,
      "chip": "ym2612"
    },
    {
      "channel": 0,
      "note": 34,
      "start": 40.3612,
      "duration": 0.1835,
      "velocity": 110,
      "chip": "ym2612"
    },
    {
      "channel": 1,
      "note": 59,
      "start": 40.3622,
      "duration": 0.2327,
      "velocity": 127,
      "chip": "ym2612"
    },
    {
      "channel": 3,
      "note": 70,
      "start": 40.363,
      "duration": 0.0653,
      "velocity": 102,
      "chip": "ym2612"
    },
    {
      "channel": 4,
      "note": 65,
      "start": 40.3785,
      "duration": 0.0669,
      "velocity": 102,
      "chip": "ym2612"
    },
    {
      "channel": 3,
      "note": 70,
      "start": 40.4786,
      "duration": 0.0667,
      "velocity": 102,
      "chip": "ym2612"
    },
    {
      "channel": 4,
      "note": 65,
      "start": 40.4955,
      "duration": 0.0664,
      "velocity": 102,
      "chip": "ym2612"
    },
    {
      "channel": 0,
      "note": 32,
      "start": 40.5948,
      "duration": 0.1829,
      "velocity": 110,
      "chip": "ym2612"
    },
    {
      "channel": 1,
      "note": 59,
      "start": 40.595,
      "duration": 0.1168,
      "velocity": 127,
      "chip": "ym2612"
    },
    {
      "channel": 2,
      "note": 63,
      "start": 40.5953,
      "duration": 0.1828,
      "velocity": 111,
      "chip": "ym2612"
    },
    {
      "channel": 3,
      "note": 72,
      "start": 40.5962,
      "duration": 0.0653,
      "velocity": 102,
      "chip": "ym2612"
    },
    {
      "channel": 4,
      "note": 67,
      "start": 40.612,
      "duration": 0.0664,
      "velocity": 102,
      "chip": "ym2612"
    },
    {
      "channel": 5,
      "note": 63,
      "start": 40.6122,
      "duration": 0.1835,
      "velocity": 111,
      "chip": "ym2612"
    },
    {
      "channel": 1,
      "note": 64,
      "start": 40.712,
      "duration": 0.1167,
      "velocity": 127,
      "chip": "ym2612"
    },
    {
      "channel": 3,
      "note": 72,
      "start": 40.7129,
      "duration": 0.0655,
      "velocity": 102,
      "chip": "ym2612"
    },
    {
      "channel": 4,
      "note": 67,
      "start": 40.7287,
      "duration": 0.0668,
      "velocity": 102,
      "chip": "ym2612"
    },
    {
      "channel": 0,
      "note": 34,
      "start": 40.8278,
      "duration": 0.1832,
      "velocity": 110,
      "chip": "ym2612"
    },
    {
      "channel": 1,
      "note": 59,
      "start": 40.8288,
      "duration": 0.116,
      "velocity": 127,
      "chip": "ym2612"
    },
    {
      "channel": 2,
      "note": 62,
      "start": 40.8291,
      "duration": 0.1823,
      "velocity": 111,
      "chip": "ym2612"
    },
    {
      "channel": 3,
      "note": 70,
      "start": 40.8298,
      "duration": 0.0654,
      "velocity": 102,
      "chip": "ym2612"
    },
    {
      "channel": 4,
      "note": 65,
      "start": 40.8454,
      "duration": 0.0663,
      "velocity": 102,
      "chip": "ym2612"
    },
    {
      "channel": 5,
      "note": 62,
      "start": 40.8457,
      "duration": 0.183,
      "velocity": 111,
      "chip": "ym2612"
    },
    {
      "channel": 1,
      "note": 59,
      "start": 40.9449,
      "duration": 0.1172,
      "velocity": 127,
      "chip": "ym2612"
    },
    {
      "channel": 3,
      "note": 70,
      "start": 40.9459,
      "duration": 0.0659,
      "velocity": 102,
      "chip": "ym2612"
    },
    {
      "channel": 4,
      "note": 65,
      "start": 40.962,
      "duration": 0.0665,
      "velocity": 102,
      "chip": "ym2612"
    },
    {
      "channel": 0,
      "note": 36,
      "start": 41.0612,
      "duration": 0.0666,
      "velocity": 110,
      "chip": "ym2612"
    },
    {
      "channel": 1,
      "note": 64,
      "start": 41.0622,
      "duration": 0.1158,
      "velocity": 127,
      "chip": "ym2612"
    },
    {
      "channel": 2,
      "note": 60,
      "start": 41.0625,
      "duration": 1.8156,
      "velocity": 111,
      "chip": "ym2612"
    },
    {
      "channel": 3,
      "note": 72,
      "start": 41.0634,
      "duration": 0.0649,
      "velocity": 102,
      "chip": "ym2612"
    },
    {
      "channel": 4,
      "note": 67,
      "start": 41.0786,
      "duration": 0.0667,
      "velocity": 102,
      "chip": "ym2612"
    },
    {
      "channel": 5,
      "note": 60,
      "start": 41.0789,
      "duration": 1.8167,
      "velocity": 111,
      "chip": "ym2612"
    },
    {
      "channel": 1,
      "note": 64,
      "start": 41.178,
      "duration": 0.2333,
      "velocity": 127,
      "chip": "ym2612"
    },
    {
      "channel": 3,
      "note": 72,
      "start": 41.1789,
      "duration": 0.0664,
      "velocity": 102,
      "chip": "ym2612"
    },
    {
      "channel": 4,
      "note": 67,
      "start": 41.1955,
      "duration": 0.0664,
      "velocity": 102,
      "chip": "ym2612"
    },
    {
      "channel": 0,
      "note": 36,
      "start": 41.2948,
      "duration": 0.0663,
      "velocity": 110,
      "chip": "ym2612"
    },
    {
      "channel": 3,
      "note": 72,
      "start": 41.2957,
      "duration": 0.066,
      "velocity": 102,
      "chip": "ym2612"
    },
    {
      "channel": 4,
      "note": 67,
      "start": 41.3118,
      "duration": 0.0666,
      "velocity": 102,
      "chip": "ym2612"
    },
    {
      "channel": 0,
      "note": 36,
      "start": 41.4112,
      "duration": 0.0666,
      "velocity": 110,
      "chip": "ym2612"
    },
    {
      "channel": 1,
      "note": 64,
      "start": 41.4115,
      "duration": 0.1172,
      "velocity": 127,
      "chip": "ym2612"
    },
    {
      "channel": 3,
      "note": 70,
      "start": 41.4124,
      "duration": 0.0659,
      "velocity": 102,
      "chip": "ym2612"
    },
    {
      "channel": 4,
      "note": 65,
      "start": 41.4285,
      "duration": 0.0668,
      "velocity": 102,
      "chip": "ym2612"
    },
    {
      "channel": 1,
      "note": 59,
      "start": 41.5288,
      "duration": 0.2332,
      "velocity": 127,
      "chip": "ym2612"
    },
    {
      "channel": 3,
      "note": 70,
      "start": 41.5296,
      "duration": 0.0657,
      "velocity": 102,
      "chip": "ym2612"
    },
    {
      "channel": 4,
      "note": 65,
      "start": 41.5455,
      "duration": 0.0664,
      "velocity": 102,
      "chip": "ym2612"
    },
    {
      "channel": 0,
      "note": 36,
      "start": 41.6448,
      "duration": 0.0663,
      "velocity": 110,
      "chip": "ym2612"
    },
    {
      "channel": 3,
      "note": 70,
      "start": 41.6457,
      "duration": 0.066,
      "velocity": 102,
      "chip": "ym2612"
    },
    {
      "channel": 4,
      "note": 65,
      "start": 41.6618,
      "duration": 0.0667,
      "velocity": 102,
      "chip": "ym2612"
    },
    {
      "channel": 1,
      "note": 64,
      "start": 41.7621,
      "duration": 0.1159,
      "velocity": 127,
      "chip": "ym2612"
    },
    {
      "channel": 3,
      "note": 72,
      "start": 41.763,
      "duration": 0.0653,
      "velocity": 102,
      "chip": "ym2612"
    },
    {
      "channel": 4,
      "note": 67,
      "start": 41.7787,
      "duration": 0.0667,
      "velocity": 102,
      "chip": "ym2612"
    },
    {
      "channel": 0,
      "note": 36,
      "start": 41.8778,
      "duration": 0.2999,
      "velocity": 110,
      "chip": "ym2612"
    },
    {
      "channel": 1,
      "note": 64,
      "start": 41.8781,
      "duration": 0.2331,
      "velocity": 127,
      "chip": "ym2612"
    },
    {
      "channel": 3,
      "note": 72,
      "start": 41.8789,
      "duration": 0.0662,
      "velocity": 102,
      "chip": "ym2612"
    },
    {
      "channel": 4,
      "note": 67,
      "start": 41.8954,
      "duration": 0.0663,
      "velocity": 102,
      "chip": "ym2612"
    },
    {
      "channel": 3,
      "note": 72,
      "start": 41.9955,
      "duration": 0.0661,
      "velocity": 102,
      "chip": "ym2612"
    },
    {
      "channel": 4,
      "note": 67,
      "start": 42.0119,
      "duration": 0.0666,
      "velocity": 102,
      "chip": "ym2612"
    },
    {
      "channel": 1,
      "note": 64,
      "start": 42.1113,
      "duration": 0.1174,
      "velocity": 127,
      "chip": "ym2612"
    },
    {
      "channel": 3,
      "note": 70,
      "start": 42.1123,
      "duration": 0.0661,
      "velocity": 102,
      "chip": "ym2612"
    },
    {
      "channel": 4,
      "note": 65,
      "start": 42.1287,
      "duration": 0.0667,
      "velocity": 102,
      "chip": "ym2612"
    },
    {
      "channel": 0,
      "note": 37,
      "start": 42.2278,
      "duration": 0.1832,
      "velocity": 110,
      "chip": "ym2612"
    },
    {
      "channel": 1,
      "note": 59,
      "start": 42.2288,
      "duration": 0.2332,
      "velocity": 127,
      "chip": "ym2612"
    },
    {
      "channel": 3,
      "note": 70,
      "start": 42.2296,
      "duration": 0.0655,
      "velocity": 102,
      "chip": "ym2612"
    },
    {
      "channel": 4,
      "note": 65,
      "start": 42.2454,
      "duration": 0.0663,
      "velocity": 102,
      "chip": "ym2612"
    },
    {
      "channel": 3,
      "note": 70,
      "start": 42.3455,
      "duration": 0.0662,
      "velocity": 102,
      "chip": "ym2612"
    },
    {
      "channel": 4,
      "note": 65,
      "start": 42.3619,
      "duration": 0.0667,
      "velocity": 102,
      "chip": "ym2612"
    },
    {
      "channel": 0,
      "note": 39,
      "start": 42.4612,
      "duration": 0.1835,
      "velocity": 110,
      "chip": "ym2612"
    },
    {
      "channel": 1,
      "note": 64,
      "start": 42.4622,
      "duration": 0.1164,
      "velocity": 127,
      "chip": "ym2612"
    },
    {
      "channel": 3,
      "note": 72,
      "start": 42.4631,
      "duration": 0.0651,
      "velocity": 102,
      "chip": "ym2612"
    },
    {
      "channel": 4,
      "note": 67,
      "start": 42.4786,
      "duration": 0.0667,
      "velocity": 102,
      "chip": "ym2612"
    },
    {
      "channel": 1,
      "note": 59,
      "start": 42.5787,
      "duration": 0.1162,
      "velocity": 127,
      "chip": "ym2612"
    },
    {
      "channel": 3,
      "note": 72,
      "start": 42.5796,
      "duration": 0.0657,
      "velocity": 102,
      "chip": "ym2612"
    },
    {
      "channel": 4,
      "note": 67,
      "start": 42.5955,
      "duration": 0.0663,
      "velocity": 102,
      "chip": "ym2612"
    },
    {
      "channel": 0,
      "note": 37,
      "start": 42.6948,
      "duration": 0.1829,
      "velocity": 110,
      "chip": "ym2612"
    },
    {
      "channel": 1,
      "note": 59,
      "start": 42.695,
      "duration": 0.1161,
      "velocity": 127,
      "chip": "ym2612"
    },
    {
      "channel": 3,
      "note": 70,
      "start": 42.6958,
      "duration": 0.0658,
      "velocity": 102,
      "chip": "ym2612"
    },
    {
      "channel": 4,
      "note": 65,
      "start": 42.7118,
      "duration": 0.0666,
      "velocity": 102,
      "chip": "ym2612"
    },
    {
      "channel": 1,
      "note": 59,
      "start": 42.8113,
      "duration": 0.1174,
      "velocity": 127,
      "chip": "ym2612"
    },
    {
      "channel": 3,
      "note": 70,
      "start": 42.8123,
      "duration": 0.0661,
      "velocity": 102,
      "chip": "ym2612"
    },
    {
      "channel": 4,
      "note": 65,
      "start": 42.8287,
      "duration": 0.0667,
      "velocity": 102,
      "chip": "ym2612"
    },
    {
      "channel": 0,
      "note": 36,
      "start": 42.9278,
      "duration": 0.0668,
      "velocity": 110,
      "chip": "ym2612"
    },
    {
      "channel": 1,
      "note": 64,
      "start": 42.9288,
      "duration": 0.116,
      "velocity": 127,
      "chip": "ym2612"
    },
    {
      "channel": 2,
      "note": 62,
      "start": 42.9291,
      "duration": 0.8822,
      "velocity": 111,
      "chip": "ym2612"
    },
    {
      "channel": 3,
      "note": 72,
      "start": 42.93,
      "duration": 0.0652,
      "velocity": 102,
      "chip": "ym2612"
    },
    {
      "channel": 4,
      "note": 67,
      "start": 42.9455,
      "duration": 0.0662,
      "velocity": 102,
      "chip": "ym2612"
    },
    {
      "channel": 5,
      "note": 62,
      "start": 42.9458,
      "duration": 0.8828,
      "velocity": 111,
      "chip": "ym2612"
    },
    {
      "channel": 1,
      "note": 64,
      "start": 43.045,
      "duration": 0.233,
      "velocity": 127,
      "chip": "ym2612"
    },
    {
      "channel": 3,
      "note": 72,
      "start": 43.0458,
      "duration": 0.0659,
      "velocity": 102,
      "chip": "ym2612"
    },
    {
      "channel": 4,
      "note": 67,
      "start": 43.0619,
      "duration": 0.0667,
      "velocity": 102,
      "chip": "ym2612"
    },
    {
      "channel": 0,
      "note": 36,
      "start": 43.1612,
      "duration": 0.0666,
      "velocity": 110,
      "chip": "ym2612"
    },
    {
      "channel": 3,
      "note": 72,
      "start": 43.1621,
      "duration": 0.0662,
      "velocity": 102,
      "chip": "ym2612"
    },
    {
      "channel": 4,
      "note": 67,
      "start": 43.1785,
      "duration": 0.0669,
      "velocity": 102,
      "chip": "ym2612"
    },
    {
      "channel": 0,
      "note": 36,
      "start": 43.2778,
      "duration": 0.0668,
      "velocity": 110,
      "chip": "ym2612"
    },
    {
      "channel": 1,
      "note": 64,
      "start": 43.2781,
      "duration": 0.1174,
      "velocity": 127,
      "chip": "ym2612"
    },
    {
      "channel": 3,
      "note": 70,
      "start": 43.2791,
      "duration": 0.0661,
      "velocity": 102,
      "chip": "ym2612"
    },
    {
      "channel": 4,
      "note": 65,
      "start": 43.2955,
      "duration": 0.0663,
      "velocity": 102,
      "chip": "ym2612"
    },
    {
      "channel": 1,
      "note": 59,
      "start": 43.3957,
      "duration": 0.2329,
      "velocity": 127,
      "chip": "ym2612"
    },
    {
      "channel": 3,
      "note": 70,
      "start": 43.3965,
      "duration": 0.0652,
      "velocity": 102,
      "chip": "ym2612"
    },
    {
      "channel": 4,
      "note": 65,
      "start": 43.4119,
      "duration": 0.0667,
      "velocity": 102,
      "chip": "ym2612"
    },
    {
      "channel": 0,
      "note": 36,
      "start": 43.5112,
      "duration": 0.0666,
      "velocity": 110,
      "chip": "ym2612"
    },
    {
      "channel": 3,
      "note": 70,
      "start": 43.5121,
      "duration": 0.0662,
      "velocity": 102,
      "chip": "ym2612"
    },
    {
      "channel": 4,
      "note": 65,
      "start": 43.5285,
      "duration": 0.0669,
      "velocity": 102,
      "chip": "ym2612"
    },
    {
      "channel": 1,
      "note": 64,
      "start": 43.6288,
      "duration": 0.1161,
      "velocity": 127,
      "chip": "ym2612"
    },
    {
      "channel": 3,
      "note": 72,
      "start": 43.6298,
      "duration": 0.0654,
      "velocity": 102,
      "chip": "ym2612"
    },
    {
      "channel": 4,
      "note": 67,
      "start": 43.6456,
      "duration": 0.0662,
      "velocity": 102,
      "chip": "ym2612"
    },
    {
      "channel": 0,
      "note": 36,
      "start": 43.7448,
      "duration": 0.2999,
      "velocity": 110,
      "chip": "ym2612"
    },
    {
      "channel": 1,
      "note": 64,
      "start": 43.745,
      "duration": 0.2328,
      "velocity": 127,
      "chip": "ym2612"
    },
    {
      "channel": 3,
      "note": 72,
      "start": 43.7459,
      "duration": 0.0658,
      "velocity": 102,
      "chip": "ym2612"
    },
    {
      "channel": 4,
      "note": 67,
      "start": 43.7618,
      "duration": 0.0666,
      "velocity": 102,
      "chip": "ym2612"
    },
    {
      "channel": 2,
      "note": 58,
      "start": 43.8615,
      "duration": 0.4166,
      "velocity": 111,
      "chip": "ym2612"
    },
    {
      "channel": 3,
      "note": 72,
      "start": 43.8622,
      "duration": 0.0661,
      "velocity": 102,
      "chip": "ym2612"
    },
    {
      "channel": 4,
      "note": 67,
      "start": 43.8785,
      "duration": 0.0669,
      "velocity": 102,
      "chip": "ym2612"
    },
    {
      "channel": 5,
      "note": 58,
      "start": 43.8789,
      "duration": 0.4168,
      "velocity": 111,
      "chip": "ym2612"
    },
    {
      "channel": 1,
      "note": 64,
      "start": 43.978,
      "duration": 0.1176,
      "velocity": 127,
      "chip": "ym2612"
    },
    {
      "channel": 3,
      "note": 70,
      "start": 43.9789,
      "duration": 0.0663,
      "velocity": 102,
      "chip": "ym2612"
    },
    {
      "channel": 4,
      "note": 65,
      "start": 43.9955,
      "duration": 0.0663,
      "velocity": 102,
      "chip": "ym2612"
    },
    {
      "channel": 0,
      "note": 34,
      "start": 44.0948,
      "duration": 0.1829,
      "velocity": 110,
      "chip": "ym2612"
    },
    {
      "channel": 1,
      "note": 59,
      "start": 44.0957,
      "duration": 0.2329,
      "velocity": 127,
      "chip": "ym2612"
    },
    {
      "channel": 3,
      "note": 70,
      "start": 44.0965,
      "duration": 0.0651,
      "velocity": 102,
      "chip": "ym2612"
    },
    {
      "channel": 4,
      "note": 65,
      "start": 44.1118,
      "duration": 0.0666,
      "velocity": 102,
      "chip": "ym2612"
    },
    {
      "channel": 3,
      "note": 70,
      "start": 44.212,
      "duration": 0.0664,
      "velocity": 102,
      "chip": "ym2612"
    },
    {
      "channel": 4,
      "note": 65,
      "start": 44.2285,
      "duration": 0.0669,
      "velocity": 102,
      "chip": "ym2612"
    },
    {
      "channel": 0,
      "note": 32,
      "start": 44.3278,
      "duration": 0.1832,
      "velocity": 110,
      "chip": "ym2612"
    },
    {
      "channel": 1,
      "note": 64,
      "start": 44.3288,
      "duration": 0.0659,
      "velocity": 127,
      "chip": "ym2612"
    },
    {
      "channel": 2,
      "note": 55,
      "start": 44.3291,
      "duration": 0.4159,
      "velocity": 111,
      "chip": "ym2612"
    },
    {
      "channel": 3,
      "note": 72,
      "start": 44.33,
      "duration": 0.0653,
      "velocity": 102,
      "chip": "ym2612"
    },
    {
      "channel": 4,
      "note": 67,
      "start": 44.3455,
      "duration": 0.0662,
      "velocity": 102,
      "chip": "ym2612"
    },
    {
      "channel": 5,
      "note": 55,
      "start": 44.3458,
      "duration": 0.4162,
      "velocity": 111,
      "chip": "ym2612"
    },
    {
      "channel": 1,
      "note": 64,
      "start": 44.3948,
      "duration": 0.05,
      "velocity": 127,
      "chip": "ym2612"
    },
    {
      "channel": 1,
      "note": 64,
      "start": 44.4449,
      "duration": 0.1164,
      "velocity": 127,
      "chip": "ym2612"
    },
    {
      "channel": 3,
      "note": 72,
      "start": 44.4458,
      "duration": 0.0659,
      "velocity": 102,
      "chip": "ym2612"
    },
    {
      "channel": 4,
      "note": 67,
      "start": 44.462,
      "duration": 0.0665,
      "velocity": 102,
      "chip": "ym2612"
    },
    {
      "channel": 0,
      "note": 34,
      "start": 44.5612,
      "duration": 0.1835,
      "velocity": 110,
      "chip": "ym2612"
    },
    {
      "channel": 1,
      "note": 62,
      "start": 44.5615,
      "duration": 0.1164,
      "velocity": 127,
      "chip": "ym2612"
    },
    {
      "channel": 3,
      "note": 70,
      "start": 44.5622,
      "duration": 0.066,
      "velocity": 102,
      "chip": "ym2612"
    },
    {
      "channel": 4,
      "note": 65,
      "start": 44.5785,
      "duration": 0.0669,
      "velocity": 102,
      "chip": "ym2612"
    },
    {
      "channel": 1,
      "note": 57,
      "start": 44.678,
      "duration": 0.1177,
      "velocity": 127,
      "chip": "ym2612"
    },
    {
      "channel": 3,
      "note": 70,
      "start": 44.6789,
      "duration": 0.0663,
      "velocity": 102,
      "chip": "ym2612"
    },
    {
      "channel": 4,
      "note": 65,
      "start": 44.6955,
      "duration": 0.0663,
      "velocity": 102,
      "chip": "ym2612"
    },
    {
      "channel": 0,
      "note": 36,
      "start": 44.7948,
      "duration": 0.0663,
      "velocity": 110,
      "chip": "ym2612"
    },
    {
      "channel": 1,
      "note": 64,
      "start": 44.7958,
      "duration": 0.1154,
      "velocity": 127,
      "chip": "ym2612"
    },
    {
      "channel": 2,
      "note": 60,
      "start": 44.7961,
      "duration": 3.6819,
      "velocity": 111,
      "chip": "ym2612"
    },
    {
      "channel": 3,
      "note": 72,
      "start": 44.7971,
      "duration": 0.0646,
      "velocity": 102,
      "chip": "ym2612"
    },
    {
      "channel": 4,
      "note": 67,
      "start": 44.812,
      "duration": 0.0665,
      "velocity": 102,
      "chip": "ym2612"
    },
    {
      "channel": 5,
      "note": 60,
      "start": 44.8123,
      "duration": 3.6833,
      "velocity": 111,
      "chip": "ym2612"
    },
    {
      "channel": 1,
      "note": 64,
      "start": 44.9114,
      "duration": 0.2335,
      "velocity": 127,
      "chip": "ym2612"
    },
    {
      "channel": 3,
      "note": 72,
      "start": 44.9122,
      "duration": 0.0662,
      "velocity": 102,
      "chip": "ym2612"
    },
    {
      "channel": 4,
      "note": 67,
      "start": 44.9285,
      "duration": 0.0669,
      "velocity": 102,
      "chip": "ym2612"
    },
    {
      "channel": 0,
      "note": 36,
      "start": 45.0278,
      "duration": 0.0668,
      "velocity": 110,
      "chip": "ym2612"
    },
    {
      "channel": 3,
      "note": 72,
      "start": 45.0288,
      "duration": 0.0665,
      "velocity": 102,
      "chip": "ym2612"
    },
    {
      "channel": 4,
      "note": 67,
      "start": 45.0454,
      "duration": 0.0663,
      "velocity": 102,
      "chip": "ym2612"
    },
    {
      "channel": 0,
      "note": 36,
      "start": 45.1448,
      "duration": 0.0663,
      "velocity": 110,
      "chip": "ym2612"
    },
    {
      "channel": 1,
      "note": 64,
      "start": 45.145,
      "duration": 0.1169,
      "velocity": 127,
      "chip": "ym2612"
    },
    {
      "channel": 3,
      "note": 70,
      "start": 45.146,
      "duration": 0.0656,
      "velocity": 102,
      "chip": "ym2612"
    },
    {
      "channel": 4,
      "note": 65,
      "start": 45.1619,
      "duration": 0.0666,
      "velocity": 102,
      "chip": "ym2612"
    },
    {
      "channel": 1,
      "note": 59,
      "start": 45.2621,
      "duration": 0.2334,
      "velocity": 127,
      "chip": "ym2612"
    },
    {
      "channel": 3,
      "note": 70,
      "start": 45.2629,
      "duration": 0.0655,
      "velocity": 102,
      "chip": "ym2612"
    },
    {
      "channel": 4,
      "note": 65,
      "start": 45.2785,
      "duration": 0.0669,
      "velocity": 102,
      "chip": "ym2612"
    },
    {
      "channel": 0,
      "note": 36,
      "start": 45.3778,
      "duration": 0.0668,
      "velocity": 110,
      "chip": "ym2612"
    },
    {
      "channel": 3,
      "note": 70,
      "start": 45.3788,
      "duration": 0.0664,
      "velocity": 102,
      "chip": "ym2612"
    },
    {
      "channel": 4,
      "note": 65,
      "start": 45.3954,
      "duration": 0.0664,
      "velocity": 102,
      "chip": "ym2612"
    },
    {
      "channel": 1,
      "note": 64,
      "start": 45.4957,
      "duration": 0.1156,
      "velocity": 127,
      "chip": "ym2612"
    },
    {
      "channel": 3,
      "note": 72,
      "start": 45.4966,
      "duration": 0.0651,
      "velocity": 102,
      "chip": "ym2612"
    },
    {
      "channel": 4,
      "note": 67,
      "start": 45.512,
      "duration": 0.0665,
      "velocity": 102,
      "chip": "ym2612"
    },
    {
      "channel": 0,
      "note": 36,
      "start": 45.6112,
      "duration": 0.2999,
      "velocity": 110,
      "chip": "ym2612"
    },
    {
      "channel": 1,
      "note": 64,
      "start": 45.6115,
      "duration": 0.2333,
      "velocity": 127,
      "chip": "ym2612"
    },
    {
      "channel": 3,
      "note": 72,
      "start": 45.6123,
      "duration": 0.066,
      "velocity": 102,
      "chip": "ym2612"
    },
    {
      "channel": 4,
      "note": 67,
      "start": 45.6285,
      "duration": 0.0669,
      "velocity": 102,
      "chip": "ym2612"
    },
    {
      "channel": 3,
      "note": 72,
      "start": 45.7289,
      "duration": 0.0663,
      "velocity": 102,
      "chip": "ym2612"
    },
    {
      "channel": 4,
      "note": 67,
      "start": 45.7455,
      "duration": 0.0663,
      "velocity": 102,
      "chip": "ym2612"
    },
    {
      "channel": 1,
      "note": 64,
      "start": 45.8449,
      "duration": 0.1171,
      "velocity": 127,
      "chip": "ym2612"
    },
    {
      "channel": 3,
      "note": 70,
      "start": 45.8459,
      "duration": 0.0659,
      "velocity": 102,
      "chip": "ym2612"
    },
    {
      "channel": 4,
      "note": 65,
      "start": 45.862,
      "duration": 0.0665,
      "velocity": 102,
      "chip": "ym2612"
    },
    {
      "channel": 0,
      "note": 37,
      "start": 45.9612,
      "duration": 0.1835,
      "velocity": 110,
      "chip": "ym2612"
    },
    {
      "channel": 1,
      "note": 59,
      "start": 45.9622,
      "duration": 0.2334,
      "velocity": 127,
      "chip": "ym2612"
    },
    {
      "channel": 3,
      "note": 70,
      "start": 45.963,
      "duration": 0.0653,
      "velocity": 102,
      "chip": "ym2612"
    },
    {
      "channel": 4,
      "note": 65,
      "start": 45.9785,
      "duration": 0.0669,
      "velocity": 102,
      "chip": "ym2612"
    },
    {
      "channel": 3,
      "note": 70,
      "start": 46.0786,
      "duration": 0.0667,
      "velocity": 102,
      "chip": "ym2612"
    },
    {
      "channel": 4,
      "note": 65,
      "start": 46.0955,
      "duration": 0.0664,
      "velocity": 102,
      "chip": "ym2612"
    },
    {
      "channel": 0,
      "note": 39,
      "start": 46.1948,
      "duration": 0.1829,
      "velocity": 110,
      "chip": "ym2612"
    },
    {
      "channel": 1,
      "note": 64,
      "start": 46.1957,
      "duration": 0.1161,
      "velocity": 127,
      "chip": "ym2612"
    },
    {
      "channel": 3,
      "note": 72,
      "start": 46.1967,
      "duration": 0.0649,
      "velocity": 102,
      "chip": "ym2612"
    },
    {
      "channel": 4,
      "note": 67,
      "start": 46.212,
      "duration": 0.0664,
      "velocity": 102,
      "chip": "ym2612"
    },
    {
      "channel": 1,
      "note": 59,
      "start": 46.312,
      "duration": 0.116,
      "velocity": 127,
      "chip": "ym2612"
    },
    {
      "channel": 3,
      "note": 72,
      "start": 46.3129,
      "duration": 0.0655,
      "velocity": 102,
      "chip": "ym2612"
    },
    {
      "channel": 4,
      "note": 67,
      "start": 46.3287,
      "duration": 0.0667,
      "velocity": 102,
      "chip": "ym2612"
    },
    {
      "channel": 0,
      "note": 37,
      "start": 46.4278,
      "duration": 0.1832,
      "velocity": 110,
      "chip": "ym2612"
    },
    {
      "channel": 1,
      "note": 59,
      "start": 46.4281,
      "duration": 0.1167,
      "velocity": 127,
      "chip": "ym2612"
    },
    {
      "channel": 3,
      "note": 70,
      "start": 46.4289,
      "duration": 0.0663,
      "velocity": 102,
      "chip": "ym2612"
    },
    {
      "channel": 4,
      "note": 65,
      "start": 46.4454,
      "duration": 0.0663,
      "velocity": 102,
      "chip": "ym2612"
    },
    {
      "channel": 1,
      "note": 59,
      "start": 46.5449,
      "duration": 0.1171,
      "velocity": 127,
      "chip": "ym2612"
    },
    {
      "channel": 3,
      "note": 70,
      "start": 46.5459,
      "duration": 0.0659,
      "velocity": 102,
      "chip": "ym2612"
    },
    {
      "channel": 4,
      "note": 65,
      "start": 46.562,
      "duration": 0.0665,
      "velocity": 102,
      "chip": "ym2612"
    },
    {
      "channel": 0,
      "note": 36,
      "start": 46.6612,
      "duration": 0.0666,
      "velocity": 110,
      "chip": "ym2612"
    },
    {
      "channel": 1,
      "note": 64,
      "start": 46.6622,
      "duration": 0.1158,
      "velocity": 127,
      "chip": "ym2612"
    },
    {
      "channel": 3,
      "note": 72,
      "start": 46.6634,
      "duration": 0.0649,
      "velocity": 102,
      "chip": "ym2612"
    },
    {
      "channel": 4,
      "note": 67,
      "start": 46.6786,
      "duration": 0.0668,
      "velocity": 102,
      "chip": "ym2612"
    },
    {
      "channel": 1,
      "note": 64,
      "start": 46.778,
      "duration": 0.2333,
      "velocity": 127,
      "chip": "ym2612"
    },
    {
      "channel": 3,
      "note": 72,
      "start": 46.7789,
      "duration": 0.0664,
      "velocity": 102,
      "chip": "ym2612"
    },
    {
      "channel": 4,
      "note": 67,
      "start": 46.7955,
      "duration": 0.0664,
      "velocity": 102,
      "chip": "ym2612"
    },
    {
      "channel": 0,
      "note": 36,
      "start": 46.8948,
      "duration": 0.0663,
      "velocity": 110,
      "chip": "ym2612"
    },
    {
      "channel": 3,
      "note": 72,
      "start": 46.8957,
      "duration": 0.066,
      "velocity": 102,
      "chip": "ym2612"
    },
    {
      "channel": 4,
      "note": 67,
      "start": 46.9118,
      "duration": 0.0666,
      "velocity": 102,
      "chip": "ym2612"
    },
    {
      "channel": 0,
      "note": 36,
      "start": 47.0112,
      "duration": 0.0666,
      "velocity": 110,
      "chip": "ym2612"
    },
    {
      "channel": 1,
      "note": 64,
      "start": 47.0115,
      "duration": 0.1172,
      "velocity": 127,
      "chip": "ym2612"
    },
    {
      "channel": 3,
      "note": 70,
      "start": 47.0124,
      "duration": 0.0658,
      "velocity": 102,
      "chip": "ym2612"
    },
    {
      "channel": 4,
      "note": 65,
      "start": 47.0285,
      "duration": 0.0668,
      "velocity": 102,
      "chip": "ym2612"
    },
    {
      "channel": 1,
      "note": 59,
      "start": 47.1288,
      "duration": 0.2332,
      "velocity": 127,
      "chip": "ym2612"
    },
    {
      "channel": 3,
      "note": 70,
      "start": 47.1296,
      "duration": 0.0657,
      "velocity": 102,
      "chip": "ym2612"
    },
    {
      "channel": 4,
      "note": 65,
      "start": 47.1455,
      "duration": 0.0664,
      "velocity": 102,
      "chip": "ym2612"
    },
    {
      "channel": 0,
      "note": 36,
      "start": 47.2448,
      "duration": 0.0663,
      "velocity": 110,
      "chip": "ym2612"
    },
    {
      "channel": 3,
      "note": 70,
      "start": 47.2457,
      "duration": 0.066,
      "velocity": 102,
      "chip": "ym2612"
    },
    {
      "channel": 4,
      "note": 65,
      "start": 47.2618,
      "duration": 0.0666,
      "velocity": 102,
      "chip": "ym2612"
    },
    {
      "channel": 1,
      "note": 64,
      "start": 47.3621,
      "duration": 0.1159,
      "velocity": 127,
      "chip": "ym2612"
    },
    {
      "channel": 3,
      "note": 72,
      "start": 47.363,
      "duration": 0.0653,
      "velocity": 102,
      "chip": "ym2612"
    },
    {
      "channel": 4,
      "note": 67,
      "start": 47.3787,
      "duration": 0.0667,
      "velocity": 102,
      "chip": "ym2612"
    },
    {
      "channel": 0,
      "note": 36,
      "start": 47.4778,
      "duration": 0.2999,
      "velocity": 110,
      "chip": "ym2612"
    },
    {
      "channel": 1,
      "note": 64,
      "start": 47.4781,
      "duration": 0.2331,
      "velocity": 127,
      "chip": "ym2612"
    },
    {
      "channel": 3,
      "note": 72,
      "start": 47.4789,
      "duration": 0.0662,
      "velocity": 102,
      "chip": "ym2612"
    },
    {
      "channel": 4,
      "note": 67,
      "start": 47.4954,
      "duration": 0.0663,
      "velocity": 102,
      "chip": "ym2612"
    },
    {
      "channel": 3,
      "note": 72,
      "start": 47.5958,
      "duration": 0.0658,
      "velocity": 102,
      "chip": "ym2612"
    },
    {
      "channel": 4,
      "note": 67,
      "start": 47.612,
      "duration": 0.0665,
      "velocity": 102,
      "chip": "ym2612"
    },
    {
      "channel": 1,
      "note": 64,
      "start": 47.7113,
      "duration": 0.1174,
      "velocity": 127,
      "chip": "ym2612"
    },
    {
      "channel": 3,
      "note": 70,
      "start": 47.7123,
      "duration": 0.0661,
      "velocity": 102,
      "chip": "ym2612"
    },
    {
      "channel": 4,
      "note": 65,
      "start": 47.7287,
      "duration": 0.0667,
      "velocity": 102,
      "chip": "ym2612"
    },
    {
      "channel": 0,
      "note": 34,
      "start": 47.8278,
      "duration": 0.1832,
      "velocity": 110,
      "chip": "ym2612"
    },
    {
      "channel": 1,
      "note": 59,
      "start": 47.8288,
      "duration": 0.2326,
      "velocity": 127,
      "chip": "ym2612"
    },
    {
      "channel": 3,
      "note": 70,
      "start": 47.8296,
      "duration": 0.0655,
      "velocity": 102,
      "chip": "ym2612"
    },
    {
      "channel": 4,
      "note": 65,
      "start": 47.8454,
      "duration": 0.0663,
      "velocity": 102,
      "chip": "ym2612"
    },
    {
      "channel": 3,
      "note": 70,
      "start": 47.9455,
      "duration": 0.0662,
      "velocity": 102,
      "chip": "ym2612"
    },
    {
      "channel": 4,
      "note": 65,
      "start": 47.9619,
      "duration": 0.0667,
      "velocity": 102,
      "chip": "ym2612"
    },
    {
      "channel": 0,
      "note": 32,
      "start": 48.0612,
      "duration": 0.1835,
      "velocity": 110,
      "chip": "ym2612"
    },
    {
      "channel": 1,
      "note": 59,
      "start": 48.0615,
      "duration": 0.1171,
      "velocity": 127,
      "chip": "ym2612"
    },
    {
      "channel": 3,
      "note": 72,
      "start": 48.0625,
      "duration": 0.0658,
      "velocity": 102,
      "chip": "ym2612"
    },
    {
      "channel": 4,
      "note": 67,
      "start": 48.0786,
      "duration": 0.0667,
      "velocity": 102,
      "chip": "ym2612"
    },
    {
      "channel": 1,
      "note": 64,
      "start": 48.1786,
      "duration": 0.117,
      "velocity": 127,
      "chip": "ym2612"
    },
    {
      "channel": 3,
      "note": 72,
      "start": 48.1796,
      "duration": 0.0657,
      "velocity": 102,
      "chip": "ym2612"
    },
    {
      "channel": 4,
      "note": 67,
      "start": 48.1955,
      "duration": 0.0663,
      "velocity": 102,
      "chip": "ym2612"
    },
    {
      "channel": 0,
      "note": 34,
      "start": 48.2948,
      "duration": 0.1829,
      "velocity": 110,
      "chip": "ym2612"
    },
    {
      "channel": 1,
      "note": 59,
      "start": 48.2957,
      "duration": 0.1154,
      "velocity": 127,
      "chip": "ym2612"
    },
    {
      "channel": 3,
      "note": 70,
      "start": 48.2965,
      "duration": 0.0651,
      "velocity": 102,
      "chip": "ym2612"
    },
    {
      "channel": 4,
      "note": 65,
      "start": 48.3118,
      "duration": 0.0666,
      "velocity": 102,
      "chip": "ym2612"
    },
    {
      "channel": 1,
      "note": 59,
      "start": 48.4113,
      "duration": 0.1174,
      "velocity": 127,
      "chip": "ym2612"
    },
    {
      "channel": 3,
      "note": 70,
      "start": 48.4123,
      "duration": 0.0661,
      "velocity": 102,
      "chip": "ym2612"
    },
    {
      "channel": 4,
      "note": 65,
      "start": 48.4287,
      "duration": 0.0667,
      "velocity": 102,
      "chip": "ym2612"
    },
    {
      "channel": 0,
      "note": 36,
      "start": 48.5278,
      "duration": 0.0668,
      "velocity": 110,
      "chip": "ym2612"
    },
    {
      "channel": 1,
      "note": 64,
      "start": 48.5289,
      "duration": 0.116,
      "velocity": 127,
      "chip": "ym2612"
    },
    {
      "channel": 2,
      "note": 48,
      "start": 48.53,
      "duration": 3.6814,
      "velocity": 124,
      "chip": "ym2612"
    },
    {
      "channel": 3,
      "note": 72,
      "start": 48.5309,
      "duration": 0.0643,
      "velocity": 102,
      "chip": "ym2612"
    },
    {
      "channel": 4,
      "note": 67,
      "start": 48.5455,
      "duration": 0.0662,
      "velocity": 102,
      "chip": "ym2612"
    },
    {
      "channel": 5,
      "note": 48,
      "start": 48.5466,
      "duration": 3.6821,
      "velocity": 124,
      "chip": "ym2612"
    },
    {
      "channel": 1,
      "note": 64,
      "start": 48.645,
      "duration": 0.233,
      "velocity": 127,
      "chip": "ym2612"
    },
    {
      "channel": 3,
      "note": 72,
      "start": 48.6458,
      "duration": 0.0659,
      "velocity": 102,
      "chip": "ym2612"
    },
    {
      "channel": 4,
      "note": 67,
      "start": 48.6619,
      "duration": 0.0667,
      "velocity": 102,
      "chip": "ym2612"
    },
    {
      "channel": 0,
      "note": 36,
      "start": 48.7612,
      "duration": 0.0666,
      "velocity": 110,
      "chip": "ym2612"
    },
    {
      "channel": 3,
      "note": 72,
      "start": 48.7621,
      "duration": 0.0662,
      "velocity": 102,
      "chip": "ym2612"
    },
    {
      "channel": 4,
      "note": 67,
      "start": 48.7785,
      "duration": 0.0669,
      "velocity": 102,
      "chip": "ym2612"
    },
    {
      "channel": 0,
      "note": 36,
      "start": 48.8778,
      "duration": 0.0668,
      "velocity": 110,
      "chip": "ym2612"
    },
    {
      "channel": 1,
      "note": 64,
      "start": 48.8781,
      "duration": 0.1174,
      "velocity": 127,
      "chip": "ym2612"
    },
    {
      "channel": 3,
      "note": 70,
      "start": 48.8791,
      "duration": 0.0661,
      "velocity": 102,
      "chip": "ym2612"
    },
    {
      "channel": 4,
      "note": 65,
      "start": 48.8955,
      "duration": 0.0663,
      "velocity": 102,
      "chip": "ym2612"
    },
    {
      "channel": 1,
      "note": 59,
      "start": 48.9957,
      "duration": 0.2329,
      "velocity": 127,
      "chip": "ym2612"
    },
    {
      "channel": 3,
      "note": 70,
      "start": 48.9965,
      "duration": 0.0652,
      "velocity": 102,
      "chip": "ym2612"
    },
    {
      "channel": 4,
      "note": 65,
      "start": 49.0119,
      "duration": 0.0667,
      "velocity": 102,
      "chip": "ym2612"
    },
    {
      "channel": 0,
      "note": 36,
      "start": 49.1112,
      "duration": 0.0666,
      "velocity": 110,
      "chip": "ym2612"
    },
    {
      "channel": 3,
      "note": 70,
      "start": 49.1121,
      "duration": 0.0662,
      "velocity": 102,
      "chip": "ym2612"
    },
    {
      "channel": 4,
      "note": 65,
      "start": 49.1285,
      "duration": 0.0669,
      "velocity": 102,
      "chip": "ym2612"
    },
    {
      "channel": 1,
      "note": 64,
      "start": 49.2288,
      "duration": 0.1161,
      "velocity": 127,
      "chip": "ym2612"
    },
    {
      "channel": 3,
      "note": 72,
      "start": 49.2297,
      "duration": 0.0655,
      "velocity": 102,
      "chip": "ym2612"
    },
    {
      "channel": 4,
      "note": 67,
      "start": 49.2456,
      "duration": 0.0662,
      "velocity": 102,
      "chip": "ym2612"
    },
    {
      "channel": 0,
      "note": 36,
      "start": 49.3448,
      "duration": 0.2999,
      "velocity": 110,
      "chip": "ym2612"
    },
    {
      "channel": 1,
      "note": 64,
      "start": 49.345,
      "duration": 0.2328,
      "velocity": 127,
      "chip": "ym2612"
    },
    {
      "channel": 3,
      "note": 72,
      "start": 49.3459,
      "duration": 0.0658,
      "velocity": 102,
      "chip": "ym2612"
    },
    {
      "channel": 4,
      "note": 67,
      "start": 49.3618,
      "duration": 0.0666,
      "velocity": 102,
      "chip": "ym2612"
    },
    {
      "channel": 3,
      "note": 72,
      "start": 49.462,
      "duration": 0.0663,
      "velocity": 102,
      "chip": "ym2612"
    },
    {
      "channel": 4,
      "note": 67,
      "start": 49.4785,
      "duration": 0.0669,
      "velocity": 102,
      "chip": "ym2612"
    },
    {
      "channel": 1,
      "note": 64,
      "start": 49.578,
      "duration": 0.1176,
      "velocity": 127,
      "chip": "ym2612"
    },
    {
      "channel": 3,
      "note": 70,
      "start": 49.5789,
      "duration": 0.0663,
      "velocity": 102,
      "chip": "ym2612"
    },
    {
      "channel": 4,
      "note": 65,
      "start": 49.5955,
      "duration": 0.0663,
      "velocity": 102,
      "chip": "ym2612"
    },
    {
      "channel": 0,
      "note": 37,
      "start": 49.6948,
      "duration": 0.1829,
      "velocity": 110,
      "chip": "ym2612"
    },
    {
      "channel": 1,
      "note": 59,
      "start": 49.6957,
      "duration": 0.2329,
      "velocity": 127,
      "chip": "ym2612"
    },
    {
      "channel": 3,
      "note": 70,
      "start": 49.6965,
      "duration": 0.0651,
      "velocity": 102,
      "chip": "ym2612"
    },
    {
      "channel": 4,
      "note": 65,
      "start": 49.7118,
      "duration": 0.0666,
      "velocity": 102,
      "chip": "ym2612"
    },
    {
      "channel": 3,
      "note": 70,
      "start": 49.812,
      "duration": 0.0664,
      "velocity": 102,
      "chip": "ym2612"
    },
    {
      "channel": 4,
      "note": 65,
      "start": 49.8285,
      "duration": 0.0669,
      "velocity": 102,
      "chip": "ym2612"
    },
    {
      "channel": 0,
      "note": 39,
      "start": 49.9278,
      "duration": 0.1832,
      "velocity": 110,
      "chip": "ym2612"
    },
    {
      "channel": 1,
      "note": 64,
      "start": 49.9288,
      "duration": 0.1167,
      "velocity": 127,
      "chip": "ym2612"
    },
    {
      "channel": 3,
      "note": 72,
      "start": 49.9298,
      "duration": 0.0654,
      "velocity": 102,
      "chip": "ym2612"
    },
    {
      "channel": 4,
      "note": 67,
      "start": 49.9455,
      "duration": 0.0662,
      "velocity": 102,
      "chip": "ym2612"
    },
    {
      "channel": 1,
      "note": 59,
      "start": 50.0456,
      "duration": 0.1157,
      "velocity": 127,
      "chip": "ym2612"
    },
    {
      "channel": 3,
      "note": 72,
      "start": 50.0465,
      "duration": 0.0652,
      "velocity": 102,
      "chip": "ym2612"
    },
    {
      "channel": 4,
      "note": 67,
      "start": 50.062,
      "duration": 0.0665,
      "velocity": 102,
      "chip": "ym2612"
    },
    {
      "channel": 0,
      "note": 37,
      "start": 50.1612,
      "duration": 0.1835,
      "velocity": 110,
      "chip": "ym2612"
    },
    {
      "channel": 1,
      "note": 59,
      "start": 50.1615,
      "duration": 0.1164,
      "velocity": 127,
      "chip": "ym2612"
    },
    {
      "channel": 3,
      "note": 70,
      "start": 50.1622,
      "duration": 0.066,
      "velocity": 102,
      "chip": "ym2612"
    },
    {
      "channel": 4,
      "note": 65,
      "start": 50.1785,
      "duration": 0.0669,
      "velocity": 102,
      "chip": "ym2612"
    },
    {
      "channel": 1,
      "note": 59,
      "start": 50.278,
      "duration": 0.1176,
      "velocity": 127,
      "chip": "ym2612"
    },
    {
      "channel": 3,
      "note": 70,
      "start": 50.2789,
      "duration": 0.0663,
      "velocity": 102,
      "chip": "ym2612"
    },
    {
      "channel": 4,
      "note": 65,
      "start": 50.2955,
      "duration": 0.0663,
      "velocity": 102,
      "chip": "ym2612"
    },
    {
      "channel": 0,
      "note": 36,
      "start": 50.3948,
      "duration": 0.0663,
      "velocity": 110,
      "chip": "ym2612"
    },
    {
      "channel": 1,
      "note": 64,
      "start": 50.3957,
      "duration": 0.1156,
      "velocity": 127,
      "chip": "ym2612"
    },
    {
      "channel": 3,
      "note": 72,
      "start": 50.3969,
      "duration": 0.0648,
      "velocity": 102,
      "chip": "ym2612"
    },
    {
      "channel": 4,
      "note": 67,
      "start": 50.412,
      "duration": 0.0665,
      "velocity": 102,
      "chip": "ym2612"
    },
    {
      "channel": 1,
      "note": 64,
      "start": 50.5114,
      "duration": 0.2335,
      "velocity": 127,
      "chip": "ym2612"
    },
    {
      "channel": 3,
      "note": 72,
      "start": 50.5122,
      "duration": 0.0662,
      "velocity": 102,
      "chip": "ym2612"
    },
    {
      "channel": 4,
      "note": 67,
      "start": 50.5285,
      "duration": 0.0669,
      "velocity": 102,
      "chip": "ym2612"
    },
    {
      "channel": 0,
      "note": 36,
      "start": 50.6278,
      "duration": 0.0668,
      "velocity": 110,
      "chip": "ym2612"
    },
    {
      "channel": 3,
      "note": 72,
      "start": 50.6288,
      "duration": 0.0665,
      "velocity": 102,
      "chip": "ym2612"
    },
    {
      "channel": 4,
      "note": 67,
      "start": 50.6454,
      "duration": 0.0664,
      "velocity": 102,
      "chip": "ym2612"
    },
    {
      "channel": 0,
      "note": 36,
      "start": 50.7448,
      "duration": 0.0663,
      "velocity": 110,
      "chip": "ym2612"
    },
    {
      "channel": 1,
      "note": 64,
      "start": 50.745,
      "duration": 0.1169,
      "velocity": 127,
      "chip": "ym2612"
    },
    {
      "channel": 3,
      "note": 70,
      "start": 50.746,
      "duration": 0.0656,
      "velocity": 102,
      "chip": "ym2612"
    },
    {
      "channel": 4,
      "note": 65,
      "start": 50.7619,
      "duration": 0.0666,
      "velocity": 102,
      "chip": "ym2612"
    },
    {
      "channel": 1,
      "note": 59,
      "start": 50.8621,
      "duration": 0.2334,
      "velocity": 127,
      "chip": "ym2612"
    },
    {
      "channel": 3,
      "note": 70,
      "start": 50.8629,
      "duration": 0.0655,
      "velocity": 102,
      "chip": "ym2612"
    },
    {
      "channel": 4,
      "note": 65,
      "start": 50.8785,
      "duration": 0.0669,
      "velocity": 102,
      "chip": "ym2612"
    },
    {
      "channel": 0,
      "note": 36,
      "start": 50.9778,
      "duration": 0.0668,
      "velocity": 110,
      "chip": "ym2612"
    },
    {
      "channel": 3,
      "note": 70,
      "start": 50.9788,
      "duration": 0.0665,
      "velocity": 102,
      "chip": "ym2612"
    },
    {
      "channel": 4,
      "note": 65,
      "start": 50.9955,
      "duration": 0.0663,
      "velocity": 102,
      "chip": "ym2612"
    },
    {
      "channel": 1,
      "note": 64,
      "start": 51.0957,
      "duration": 0.1156,
      "velocity": 127,
      "chip": "ym2612"
    },
    {
      "channel": 3,
      "note": 72,
      "start": 51.0966,
      "duration": 0.0651,
      "velocity": 102,
      "chip": "ym2612"
    },
    {
      "channel": 4,
      "note": 67,
      "start": 51.112,
      "duration": 0.0665,
      "velocity": 102,
      "chip": "ym2612"
    },
    {
      "channel": 0,
      "note": 36,
      "start": 51.2112,
      "duration": 0.2999,
      "velocity": 110,
      "chip": "ym2612"
    },
    {
      "channel": 1,
      "note": 64,
      "start": 51.2115,
      "duration": 0.2333,
      "velocity": 127,
      "chip": "ym2612"
    },
    {
      "channel": 3,
      "note": 72,
      "start": 51.2123,
      "duration": 0.066,
      "velocity": 102,
      "chip": "ym2612"
    },
    {
      "channel": 4,
      "note": 67,
      "start": 51.2285,
      "duration": 0.0669,
      "velocity": 102,
      "chip": "ym2612"
    },
    {
      "channel": 3,
      "note": 72,
      "start": 51.3286,
      "duration": 0.0666,
      "velocity": 102,
      "chip": "ym2612"
    },
    {
      "channel": 4,
      "note": 67,
      "start": 51.3455,
      "duration": 0.0663,
      "velocity": 102,
      "chip": "ym2612"
    },
    {
      "channel": 1,
      "note": 64,
      "start": 51.4449,
      "duration": 0.1171,
      "velocity": 127,
      "chip": "ym2612"
    },
    {
      "channel": 3,
      "note": 70,
      "start": 51.4459,
      "duration": 0.0659,
      "velocity": 102,
      "chip": "ym2612"
    },
    {
      "channel": 4,
      "note": 65,
      "start": 51.462,
      "duration": 0.0665,
      "velocity": 102,
      "chip": "ym2612"
    },
    {
      "channel": 0,
      "note": 34,
      "start": 51.5612,
      "duration": 0.1835,
      "velocity": 110,
      "chip": "ym2612"
    },
    {
      "channel": 1,
      "note": 59,
      "start": 51.5622,
      "duration": 0.2327,
      "velocity": 127,
      "chip": "ym2612"
    },
    {
      "channel": 3,
      "note": 70,
      "start": 51.563,
      "duration": 0.0653,
      "velocity": 102,
      "chip": "ym2612"
    },
    {
      "channel": 4,
      "note": 65,
      "start": 51.5785,
      "duration": 0.0669,
      "velocity": 102,
      "chip": "ym2612"
    },
    {
      "channel": 3,
      "note": 70,
      "start": 51.6786,
      "duration": 0.0667,
      "velocity": 102,
      "chip": "ym2612"
    },
    {
      "channel": 4,
      "note": 65,
      "start": 51.6955,
      "duration": 0.0664,
      "velocity": 102,
      "chip": "ym2612"
    },
    {
      "channel": 0,
      "note": 32,
      "start": 51.7948,
      "duration": 0.1829,
      "velocity": 110,
      "chip": "ym2612"
    },
    {
      "channel": 1,
      "note": 59,
      "start": 51.795,
      "duration": 0.1168,
      "velocity": 127,
      "chip": "ym2612"
    },
    {
      "channel": 3,
      "note": 72,
      "start": 51.7961,
      "duration": 0.0655,
      "velocity": 102,
      "chip": "ym2612"
    },
    {
      "channel": 4,
      "note": 67,
      "start": 51.812,
      "duration": 0.0664,
      "velocity": 102,
      "chip": "ym2612"
    },
    {
      "channel": 1,
      "note": 64,
      "start": 51.912,
      "duration": 0.1167,
      "velocity": 127,
      "chip": "ym2612"
    },
    {
      "channel": 3,
      "note": 72,
      "start": 51.9129,
      "duration": 0.0655,
      "velocity": 102,
      "chip": "ym2612"
    },
    {
      "channel": 4,
      "note": 67,
      "start": 51.9287,
      "duration": 0.0667,
      "velocity": 102,
      "chip": "ym2612"
    },
    {
      "channel": 0,
      "note": 34,
      "start": 52.0278,
      "duration": 0.1832,
      "velocity": 110,
      "chip": "ym2612"
    },
    {
      "channel": 1,
      "note": 59,
      "start": 52.0288,
      "duration": 0.116,
      "velocity": 127,
      "chip": "ym2612"
    },
    {
      "channel": 3,
      "note": 70,
      "start": 52.0296,
      "duration": 0.0656,
      "velocity": 102,
      "chip": "ym2612"
    },
    {
      "channel": 4,
      "note": 65,
      "start": 52.0454,
      "duration": 0.0663,
      "velocity": 102,
      "chip": "ym2612"
    },
    {
      "channel": 1,
      "note": 59,
      "start": 52.1449,
      "duration": 0.1172,
      "velocity": 127,
      "chip": "ym2612"
    },
    {
      "channel": 3,
      "note": 70,
      "start": 52.1459,
      "duration": 0.0659,
      "velocity": 102,
      "chip": "ym2612"
    },
    {
      "channel": 4,
      "note": 65,
      "start": 52.162,
      "duration": 0.0665,
      "velocity": 102,
      "chip": "ym2612"
    },
    {
      "channel": 0,
      "note": 36,
      "start": 52.2612,
      "duration": 0.0666,
      "velocity": 110,
      "chip": "ym2612"
    },
    {
      "channel": 1,
      "note": 64,
      "start": 52.2622,
      "duration": 0.1158,
      "velocity": 127,
      "chip": "ym2612"
    },
    {
      "channel": 2,
      "note": 36,
      "start": 52.2625,
      "duration": 7.4156,
      "velocity": 124,
      "chip": "ym2612"
    },
    {
      "channel": 3,
      "note": 72,
      "start": 52.2634,
      "duration": 0.0649,
      "velocity": 102,
      "chip": "ym2612"
    },
    {
      "channel": 4,
      "note": 67,
      "start": 52.2786,
      "duration": 0.0667,
      "velocity": 102,
      "chip": "ym2612"
    },
    {
      "channel": 5,
      "note": 36,
      "start": 52.2789,
      "duration": 7.4167,
      "velocity": 124,
      "chip": "ym2612"
    },
    {
      "channel": 1,
      "note": 64,
      "start": 52.378,
      "duration": 0.2333,
      "velocity": 127,
      "chip": "ym2612"
    },
    {
      "channel": 3,
      "note": 72,
      "start": 52.3789,
      "duration": 0.0664,
      "velocity": 102,
      "chip": "ym2612"
    },
    {
      "channel": 4,
      "note": 67,
      "start": 52.3955,
      "duration": 0.0664,
      "velocity": 102,
      "chip": "ym2612"
    },
    {
      "channel": 0,
      "note": 36,
      "start": 52.4948,
      "duration": 0.0663,
      "velocity": 110,
      "chip": "ym2612"
    },
    {
      "channel": 3,
      "note": 72,
      "start": 52.4957,
      "duration": 0.066,
      "velocity": 102,
      "chip": "ym2612"
    },
    {
      "channel": 4,
      "note": 67,
      "start": 52.5118,
      "duration": 0.0667,
      "velocity": 102,
      "chip": "ym2612"
    },
    {
      "channel": 0,
      "note": 36,
      "start": 52.6112,
      "duration": 0.0666,
      "velocity": 110,
      "chip": "ym2612"
    },
    {
      "channel": 1,
      "note": 64,
      "start": 52.6115,
      "duration": 0.1172,
      "velocity": 127,
      "chip": "ym2612"
    },
    {
      "channel": 3,
      "note": 70,
      "start": 52.6124,
      "duration": 0.0658,
      "velocity": 102,
      "chip": "ym2612"
    },
    {
      "channel": 4,
      "note": 65,
      "start": 52.6285,
      "duration": 0.0668,
      "velocity": 102,
      "chip": "ym2612"
    },
    {
      "channel": 1,
      "note": 59,
      "start": 52.7288,
      "duration": 0.2332,
      "velocity": 127,
      "chip": "ym2612"
    },
    {
      "channel": 3,
      "note": 70,
      "start": 52.7296,
      "duration": 0.0657,
      "velocity": 102,
      "chip": "ym2612"
    },
    {
      "channel": 4,
      "note": 65,
      "start": 52.7455,
      "duration": 0.0664,
      "velocity": 102,
      "chip": "ym2612"
    },
    {
      "channel": 0,
      "note": 36,
      "start": 52.8448,
      "duration": 0.0663,
      "velocity": 110,
      "chip": "ym2612"
    },
    {
      "channel": 3,
      "note": 70,
      "start": 52.8457,
      "duration": 0.066,
      "velocity": 102,
      "chip": "ym2612"
    },
    {
      "channel": 4,
      "note": 65,
      "start": 52.8618,
      "duration": 0.0666,
      "velocity": 102,
      "chip": "ym2612"
    },
    {
      "channel": 1,
      "note": 64,
      "start": 52.9621,
      "duration": 0.1159,
      "velocity": 127,
      "chip": "ym2612"
    },
    {
      "channel": 3,
      "note": 72,
      "start": 52.963,
      "duration": 0.0653,
      "velocity": 102,
      "chip": "ym2612"
    },
    {
      "channel": 4,
      "note": 67,
      "start": 52.9787,
      "duration": 0.0667,
      "velocity": 102,
      "chip": "ym2612"
    },
    {
      "channel": 0,
      "note": 36,
      "start": 53.0778,
      "duration": 0.2999,
      "velocity": 110,
      "chip": "ym2612"
    },
    {
      "channel": 1,
      "note": 64,
      "start": 53.0781,
      "duration": 0.2331,
      "velocity": 127,
      "chip": "ym2612"
    },
    {
      "channel": 3,
      "note": 72,
      "start": 53.0789,
      "duration": 0.0662,
      "velocity": 102,
      "chip": "ym2612"
    },
    {
      "channel": 4,
      "note": 67,
      "start": 53.0954,
      "duration": 0.0663,
      "velocity": 102,
      "chip": "ym2612"
    },
    {
      "channel": 3,
      "note": 72,
      "start": 53.1955,
      "duration": 0.0661,
      "velocity": 102,
      "chip": "ym2612"
    },
    {
      "channel": 4,
      "note": 67,
      "start": 53.2119,
      "duration": 0.0666,
      "velocity": 102,
      "chip": "ym2612"
    },
    {
      "channel": 1,
      "note": 64,
      "start": 53.3113,
      "duration": 0.1174,
      "velocity": 127,
      "chip": "ym2612"
    },
    {
      "channel": 3,
      "note": 70,
      "start": 53.3123,
      "duration": 0.0661,
      "velocity": 102,
      "chip": "ym2612"
    },
    {
      "channel": 4,
      "note": 65,
      "start": 53.3286,
      "duration": 0.0668,
      "velocity": 102,
      "chip": "ym2612"
    },
    {
      "channel": 0,
      "note": 37,
      "start": 53.4278,
      "duration": 0.1832,
      "velocity": 110,
      "chip": "ym2612"
    },
    {
      "channel": 1,
      "note": 59,
      "start": 53.4288,
      "duration": 0.2332,
      "velocity": 127,
      "chip": "ym2612"
    },
    {
      "channel": 3,
      "note": 70,
      "start": 53.4296,
      "duration": 0.0655,
      "velocity": 102,
      "chip": "ym2612"
    },
    {
      "channel": 4,
      "note": 65,
      "start": 53.4454,
      "duration": 0.0663,
      "velocity": 102,
      "chip": "ym2612"
    },
    {
      "channel": 3,
      "note": 70,
      "start": 53.5455,
      "duration": 0.0662,
      "velocity": 102,
      "chip": "ym2612"
    },
    {
      "channel": 4,
      "note": 65,
      "start": 53.5619,
      "duration": 0.0667,
      "velocity": 102,
      "chip": "ym2612"
    },
    {
      "channel": 0,
      "note": 39,
      "start": 53.6612,
      "duration": 0.1835,
      "velocity": 110,
      "chip": "ym2612"
    },
    {
      "channel": 1,
      "note": 64,
      "start": 53.6622,
      "duration": 0.1164,
      "velocity": 127,
      "chip": "ym2612"
    },
    {
      "channel": 3,
      "note": 72,
      "start": 53.6631,
      "duration": 0.0651,
      "velocity": 102,
      "chip": "ym2612"
    },
    {
      "channel": 4,
      "note": 67,
      "start": 53.6786,
      "duration": 0.0667,
      "velocity": 102,
      "chip": "ym2612"
    },
    {
      "channel": 1,
      "note": 59,
      "start": 53.7787,
      "duration": 0.1162,
      "velocity": 127,
      "chip": "ym2612"
    },
    {
      "channel": 3,
      "note": 72,
      "start": 53.7796,
      "duration": 0.0657,
      "velocity": 102,
      "chip": "ym2612"
    },
    {
      "channel": 4,
      "note": 67,
      "start": 53.7955,
      "duration": 0.0663,
      "velocity": 102,
      "chip": "ym2612"
    },
    {
      "channel": 0,
      "note": 37,
      "start": 53.8948,
      "duration": 0.1829,
      "velocity": 110,
      "chip": "ym2612"
    },
    {
      "channel": 1,
      "note": 59,
      "start": 53.895,
      "duration": 0.1161,
      "velocity": 127,
      "chip": "ym2612"
    },
    {
      "channel": 3,
      "note": 70,
      "start": 53.8958,
      "duration": 0.0658,
      "velocity": 102,
      "chip": "ym2612"
    },
    {
      "channel": 4,
      "note": 65,
      "start": 53.9118,
      "duration": 0.0666,
      "velocity": 102,
      "chip": "ym2612"
    },
    {
      "channel": 1,
      "note": 59,
      "start": 54.0113,
      "duration": 0.1174,
      "velocity": 127,
      "chip": "ym2612"
    },
    {
      "channel": 3,
      "note": 70,
      "start": 54.0123,
      "duration": 0.0661,
      "velocity": 102,
      "chip": "ym2612"
    },
    {
      "channel": 4,
      "note": 65,
      "start": 54.0287,
      "duration": 0.0667,
      "velocity": 102,
      "chip": "ym2612"
    },
    {
      "channel": 0,
      "note": 36,
      "start": 54.1278,
      "duration": 0.0668,
      "velocity": 110,
      "chip": "ym2612"
    },
    {
      "channel": 1,
      "note": 64,
      "start": 54.1288,
      "duration": 0.116,
      "velocity": 127,
      "chip": "ym2612"
    },
    {
      "channel": 3,
      "note": 72,
      "start": 54.13,
      "duration": 0.0653,
      "velocity": 102,
      "chip": "ym2612"
    },
    {
      "channel": 4,
      "note": 67,
      "start": 54.1455,
      "duration": 0.0662,
      "velocity": 102,
      "chip": "ym2612"
    },
    {
      "channel": 1,
      "note": 64,
      "start": 54.245,
      "duration": 0.233,
      "velocity": 127,
      "chip": "ym2612"
    },
    {
      "channel": 3,
      "note": 72,
      "start": 54.2458,
      "duration": 0.0659,
      "velocity": 102,
      "chip": "ym2612"
    },
    {
      "channel": 4,
      "note": 67,
      "start": 54.2619,
      "duration": 0.0667,
      "velocity": 102,
      "chip": "ym2612"
    },
    {
      "channel": 0,
      "note": 36,
      "start": 54.3612,
      "duration": 0.0666,
      "velocity": 110,
      "chip": "ym2612"
    },
    {
      "channel": 3,
      "note": 72,
      "start": 54.3621,
      "duration": 0.0662,
      "velocity": 102,
      "chip": "ym2612"
    },
    {
      "channel": 4,
      "note": 67,
      "start": 54.3785,
      "duration": 0.0669,
      "velocity": 102,
      "chip": "ym2612"
    },
    {
      "channel": 0,
      "note": 36,
      "start": 54.4778,
      "duration": 0.0668,
      "velocity": 110,
      "chip": "ym2612"
    },
    {
      "channel": 1,
      "note": 64,
      "start": 54.4781,
      "duration": 0.1174,
      "velocity": 127,
      "chip": "ym2612"
    },
    {
      "channel": 3,
      "note": 70,
      "start": 54.4791,
      "duration": 0.0661,
      "velocity": 102,
      "chip": "ym2612"
    },
    {
      "channel": 4,
      "note": 65,
      "start": 54.4955,
      "duration": 0.0663,
      "velocity": 102,
      "chip": "ym2612"
    },
    {
      "channel": 1,
      "note": 59,
      "start": 54.5957,
      "duration": 0.2329,
      "velocity": 127,
      "chip": "ym2612"
    },
    {
      "channel": 3,
      "note": 70,
      "start": 54.5965,
      "duration": 0.0652,
      "velocity": 102,
      "chip": "ym2612"
    },
    {
      "channel": 4,
      "note": 65,
      "start": 54.6119,
      "duration": 0.0667,
      "velocity": 102,
      "chip": "ym2612"
    },
    {
      "channel": 0,
      "note": 36,
      "start": 54.7112,
      "duration": 0.0666,
      "velocity": 110,
      "chip": "ym2612"
    },
    {
      "channel": 3,
      "note": 70,
      "start": 54.7121,
      "duration": 0.0662,
      "velocity": 102,
      "chip": "ym2612"
    },
    {
      "channel": 4,
      "note": 65,
      "start": 54.7285,
      "duration": 0.0669,
      "velocity": 102,
      "chip": "ym2612"
    },
    {
      "channel": 1,
      "note": 64,
      "start": 54.8288,
      "duration": 0.1161,
      "velocity": 127,
      "chip": "ym2612"
    },
    {
      "channel": 3,
      "note": 72,
      "start": 54.8297,
      "duration": 0.0655,
      "velocity": 102,
      "chip": "ym2612"
    },
    {
      "channel": 4,
      "note": 67,
      "start": 54.8456,
      "duration": 0.0662,
      "velocity": 102,
      "chip": "ym2612"
    },
    {
      "channel": 0,
      "note": 36,
      "start": 54.9448,
      "duration": 0.2999,
      "velocity": 110,
      "chip": "ym2612"
    },
    {
      "channel": 1,
      "note": 64,
      "start": 54.945,
      "duration": 0.2328,
      "velocity": 127,
      "chip": "ym2612"
    },
    {
      "channel": 3,
      "note": 72,
      "start": 54.9459,
      "duration": 0.0658,
      "velocity": 102,
      "chip": "ym2612"
    },
    {
      "channel": 4,
      "note": 67,
      "start": 54.9618,
      "duration": 0.0666,
      "velocity": 102,
      "chip": "ym2612"
    },
    {
      "channel": 3,
      "note": 72,
      "start": 55.062,
      "duration": 0.0663,
      "velocity": 102,
      "chip": "ym2612"
    },
    {
      "channel": 4,
      "note": 67,
      "start": 55.0785,
      "duration": 0.0669,
      "velocity": 102,
      "chip": "ym2612"
    },
    {
      "channel": 1,
      "note": 64,
      "start": 55.178,
      "duration": 0.1176,
      "velocity": 127,
      "chip": "ym2612"
    },
    {
      "channel": 3,
      "note": 70,
      "start": 55.1789,
      "duration": 0.0663,
      "velocity": 102,
      "chip": "ym2612"
    },
    {
      "channel": 4,
      "note": 65,
      "start": 55.1955,
      "duration": 0.0663,
      "velocity": 102,
      "chip": "ym2612"
    },
    {
      "channel": 0,
      "note": 34,
      "start": 55.2948,
      "duration": 0.1829,
      "velocity": 110,
      "chip": "ym2612"
    },
    {
      "channel": 1,
      "note": 59,
      "start": 55.2957,
      "duration": 0.2323,
      "velocity": 127,
      "chip": "ym2612"
    },
    {
      "channel": 3,
      "note": 70,
      "start": 55.2965,
      "duration": 0.0651,
      "velocity": 102,
      "chip": "ym2612"
    },
    {
      "channel": 4,
      "note": 65,
      "start": 55.3118,
      "duration": 0.0666,
      "velocity": 102,
      "chip": "ym2612"
    },
    {
      "channel": 3,
      "note": 70,
      "start": 55.412,
      "duration": 0.0664,
      "velocity": 102,
      "chip": "ym2612"
    },
    {
      "channel": 4,
      "note": 65,
      "start": 55.4285,
      "duration": 0.0669,
      "velocity": 102,
      "chip": "ym2612"
    },
    {
      "channel": 0,
      "note": 32,
      "start": 55.5278,
      "duration": 0.1832,
      "velocity": 110,
      "chip": "ym2612"
    },
    {
      "channel": 1,
      "note": 59,
      "start": 55.5281,
      "duration": 0.1173,
      "velocity": 127,
      "chip": "ym2612"
    },
    {
      "channel": 3,
      "note": 72,
      "start": 55.5291,
      "duration": 0.066,
      "velocity": 102,
      "chip": "ym2612"
    },
    {
      "channel": 4,
      "note": 67,
      "start": 55.5455,
      "duration": 0.0662,
      "velocity": 102,
      "chip": "ym2612"
    },
    {
      "channel": 1,
      "note": 64,
      "start": 55.6455,
      "duration": 0.1165,
      "velocity": 127,
      "chip": "ym2612"
    },
    {
      "channel": 3,
      "note": 72,
      "start": 55.6465,
      "duration": 0.0652,
      "velocity": 102,
      "chip": "ym2612"
    },
    {
      "channel": 4,
      "note": 67,
      "start": 55.662,
      "duration": 0.0665,
      "velocity": 102,
      "chip": "ym2612"
    },
    {
      "channel": 0,
      "note": 34,
      "start": 55.7612,
      "duration": 0.1835,
      "velocity": 110,
      "chip": "ym2612"
    },
    {
      "channel": 1,
      "note": 59,
      "start": 55.7622,
      "duration": 0.1157,
      "velocity": 127,
      "chip": "ym2612"
    },
    {
      "channel": 3,
      "note": 70,
      "start": 55.7629,
      "duration": 0.0653,
      "velocity": 102,
      "chip": "ym2612"
    },
    {
      "channel": 4,
      "note": 65,
      "start": 55.7785,
      "duration": 0.0669,
      "velocity": 102,
      "chip": "ym2612"
    },
    {
      "channel": 1,
      "note": 59,
      "start": 55.878,
      "duration": 0.1177,
      "velocity": 127,
      "chip": "ym2612"
    },
    {
      "channel": 3,
      "note": 70,
      "start": 55.8789,
      "duration": 0.0663,
      "velocity": 102,
      "chip": "ym2612"
    },
    {
      "channel": 4,
      "note": 65,
      "start": 55.8955,
      "duration": 0.0663,
      "velocity": 102,
      "chip": "ym2612"
    },
    {
      "channel": 0,
      "note": 36,
      "start": 55.9948,
      "duration": 0.0663,
      "velocity": 110,
      "chip": "ym2612"
    },
    {
      "channel": 1,
      "note": 64,
      "start": 55.9957,
      "duration": 0.1156,
      "velocity": 127,
      "chip": "ym2612"
    },
    {
      "channel": 3,
      "note": 72,
      "start": 55.9969,
      "duration": 0.0647,
      "velocity": 102,
      "chip": "ym2612"
    },
    {
      "channel": 4,
      "note": 67,
      "start": 56.012,
      "duration": 0.0665,
      "velocity": 102,
      "chip": "ym2612"
    },
    {
      "channel": 1,
      "note": 64,
      "start": 56.1114,
      "duration": 0.2335,
      "velocity": 127,
      "chip": "ym2612"
    },
    {
      "channel": 3,
      "note": 72,
      "start": 56.1122,
      "duration": 0.0662,
      "velocity": 102,
      "chip": "ym2612"
    },
    {
      "channel": 4,
      "note": 67,
      "start": 56.1285,
      "duration": 0.0669,
      "velocity": 102,
      "chip": "ym2612"
    },
    {
      "channel": 0,
      "note": 36,
      "start": 56.2278,
      "duration": 0.0668,
      "velocity": 110,
      "chip": "ym2612"
    },
    {
      "channel": 3,
      "note": 72,
      "start": 56.2288,
      "duration": 0.0665,
      "velocity": 102,
      "chip": "ym2612"
    },
    {
      "channel": 4,
      "note": 67,
      "start": 56.2454,
      "duration": 0.0663,
      "velocity": 102,
      "chip": "ym2612"
    },
    {
      "channel": 0,
      "note": 36,
      "start": 56.3448,
      "duration": 0.0663,
      "velocity": 110,
      "chip": "ym2612"
    },
    {
      "channel": 1,
      "note": 64,
      "start": 56.345,
      "duration": 0.1169,
      "velocity": 127,
      "chip": "ym2612"
    },
    {
      "channel": 3,
      "note": 70,
      "start": 56.346,
      "duration": 0.0656,
      "velocity": 102,
      "chip": "ym2612"
    },
    {
      "channel": 4,
      "note": 65,
      "start": 56.3619,
      "duration": 0.0666,
      "velocity": 102,
      "chip": "ym2612"
    },
    {
      "channel": 1,
      "note": 59,
      "start": 56.4621,
      "duration": 0.2334,
      "velocity": 127,
      "chip": "ym2612"
    },
    {
      "channel": 3,
      "note": 70,
      "start": 56.4629,
      "duration": 0.0655,
      "velocity": 102,
      "chip": "ym2612"
    },
    {
      "channel": 4,
      "note": 65,
      "start": 56.4785,
      "duration": 0.0669,
      "velocity": 102,
      "chip": "ym2612"
    },
    {
      "channel": 0,
      "note": 36,
      "start": 56.5778,
      "duration": 0.0668,
      "velocity": 110,
      "chip": "ym2612"
    },
    {
      "channel": 3,
      "note": 70,
      "start": 56.5788,
      "duration": 0.0665,
      "velocity": 102,
      "chip": "ym2612"
    },
    {
      "channel": 4,
      "note": 65,
      "start": 56.5954,
      "duration": 0.0663,
      "velocity": 102,
      "chip": "ym2612"
    },
    {
      "channel": 1,
      "note": 64,
      "start": 56.6957,
      "duration": 0.1156,
      "velocity": 127,
      "chip": "ym2612"
    },
    {
      "channel": 3,
      "note": 72,
      "start": 56.6966,
      "duration": 0.0651,
      "velocity": 102,
      "chip": "ym2612"
    },
    {
      "channel": 4,
      "note": 67,
      "start": 56.712,
      "duration": 0.0665,
      "velocity": 102,
      "chip": "ym2612"
    },
    {
      "channel": 0,
      "note": 36,
      "start": 56.8112,
      "duration": 0.2999,
      "velocity": 110,
      "chip": "ym2612"
    },
    {
      "channel": 1,
      "note": 64,
      "start": 56.8115,
      "duration": 0.2333,
      "velocity": 127,
      "chip": "ym2612"
    },
    {
      "channel": 3,
      "note": 72,
      "start": 56.8123,
      "duration": 0.066,
      "velocity": 102,
      "chip": "ym2612"
    },
    {
      "channel": 4,
      "note": 67,
      "start": 56.8285,
      "duration": 0.0669,
      "velocity": 102,
      "chip": "ym2612"
    },
    {
      "channel": 3,
      "note": 72,
      "start": 56.9286,
      "duration": 0.0666,
      "velocity": 102,
      "chip": "ym2612"
    },
    {
      "channel": 4,
      "note": 67,
      "start": 56.9455,
      "duration": 0.0663,
      "velocity": 102,
      "chip": "ym2612"
    },
    {
      "channel": 1,
      "note": 64,
      "start": 57.0449,
      "duration": 0.1171,
      "velocity": 127,
      "chip": "ym2612"
    },
    {
      "channel": 3,
      "note": 70,
      "start": 57.0459,
      "duration": 0.0659,
      "velocity": 102,
      "chip": "ym2612"
    },
    {
      "channel": 4,
      "note": 65,
      "start": 57.062,
      "duration": 0.0665,
      "velocity": 102,
      "chip": "ym2612"
    },
    {
      "channel": 0,
      "note": 37,
      "start": 57.1612,
      "duration": 0.1835,
      "velocity": 110,
      "chip": "ym2612"
    },
    {
      "channel": 1,
      "note": 59,
      "start": 57.1622,
      "duration": 0.2334,
      "velocity": 127,
      "chip": "ym2612"
    },
    {
      "channel": 3,
      "note": 70,
      "start": 57.163,
      "duration": 0.0653,
      "velocity": 102,
      "chip": "ym2612"
    },
    {
      "channel": 4,
      "note": 65,
      "start": 57.1785,
      "duration": 0.0669,
      "velocity": 102,
      "chip": "ym2612"
    },
    {
      "channel": 3,
      "note": 70,
      "start": 57.2786,
      "duration": 0.0667,
      "velocity": 102,
      "chip": "ym2612"
    },
    {
      "channel": 4,
      "note": 65,
      "start": 57.2955,
      "duration": 0.0664,
      "velocity": 102,
      "chip": "ym2612"
    },
    {
      "channel": 0,
      "note": 39,
      "start": 57.3948,
      "duration": 0.1829,
      "velocity": 110,
      "chip": "ym2612"
    },
    {
      "channel": 1,
      "note": 64,
      "start": 57.3957,
      "duration": 0.1161,
      "velocity": 127,
      "chip": "ym2612"
    },
    {
      "channel": 3,
      "note": 72,
      "start": 57.3967,
      "duration": 0.0649,
      "velocity": 102,
      "chip": "ym2612"
    },
    {
      "channel": 4,
      "note": 67,
      "start": 57.412,
      "duration": 0.0664,
      "velocity": 102,
      "chip": "ym2612"
    },
    {
      "channel": 1,
      "note": 59,
      "start": 57.512,
      "duration": 0.116,
      "velocity": 127,
      "chip": "ym2612"
    },
    {
      "channel": 3,
      "note": 72,
      "start": 57.5129,
      "duration": 0.0655,
      "velocity": 102,
      "chip": "ym2612"
    },
    {
      "channel": 4,
      "note": 67,
      "start": 57.5287,
      "duration": 0.0667,
      "velocity": 102,
      "chip": "ym2612"
    },
    {
      "channel": 0,
      "note": 37,
      "start": 57.6278,
      "duration": 0.1832,
      "velocity": 110,
      "chip": "ym2612"
    },
    {
      "channel": 1,
      "note": 59,
      "start": 57.6281,
      "duration": 0.1167,
      "velocity": 127,
      "chip": "ym2612"
    },
    {
      "channel": 3,
      "note": 70,
      "start": 57.6289,
      "duration": 0.0663,
      "velocity": 102,
      "chip": "ym2612"
    },
    {
      "channel": 4,
      "note": 65,
      "start": 57.6454,
      "duration": 0.0663,
      "velocity": 102,
      "chip": "ym2612"
    },
    {
      "channel": 1,
      "note": 59,
      "start": 57.7449,
      "duration": 0.1171,
      "velocity": 127,
      "chip": "ym2612"
    },
    {
      "channel": 3,
      "note": 70,
      "start": 57.7459,
      "duration": 0.0659,
      "velocity": 102,
      "chip": "ym2612"
    },
    {
      "channel": 4,
      "note": 65,
      "start": 57.762,
      "duration": 0.0665,
      "velocity": 102,
      "chip": "ym2612"
    },
    {
      "channel": 0,
      "note": 36,
      "start": 57.8612,
      "duration": 0.0666,
      "velocity": 110,
      "chip": "ym2612"
    },
    {
      "channel": 1,
      "note": 64,
      "start": 57.8622,
      "duration": 0.1158,
      "velocity": 127,
      "chip": "ym2612"
    },
    {
      "channel": 3,
      "note": 72,
      "start": 57.8633,
      "duration": 0.065,
      "velocity": 102,
      "chip": "ym2612"
    },
    {
      "channel": 4,
      "note": 67,
      "start": 57.8786,
      "duration": 0.0667,
      "velocity": 102,
      "chip": "ym2612"
    },
    {
      "channel": 1,
      "note": 64,
      "start": 57.978,
      "duration": 0.2333,
      "velocity": 127,
      "chip": "ym2612"
    },
    {
      "channel": 3,
      "note": 72,
      "start": 57.9789,
      "duration": 0.0664,
      "velocity": 102,
      "chip": "ym2612"
    },
    {
      "channel": 4,
      "note": 67,
      "start": 57.9955,
      "duration": 0.0664,
      "velocity": 102,
      "chip": "ym2612"
    },
    {
      "channel": 0,
      "note": 36,
      "start": 58.0948,
      "duration": 0.0663,
      "velocity": 110,
      "chip": "ym2612"
    },
    {
      "channel": 3,
      "note": 72,
      "start": 58.0957,
      "duration": 0.066,
      "velocity": 102,
      "chip": "ym2612"
    },
    {
      "channel": 4,
      "note": 67,
      "start": 58.1118,
      "duration": 0.0667,
      "velocity": 102,
      "chip": "ym2612"
    },
    {
      "channel": 0,
      "note": 36,
      "start": 58.2112,
      "duration": 0.0666,
      "velocity": 110,
      "chip": "ym2612"
    },
    {
      "channel": 1,
      "note": 64,
      "start": 58.2115,
      "duration": 0.1172,
      "velocity": 127,
      "chip": "ym2612"
    },
    {
      "channel": 3,
      "note": 70,
      "start": 58.2124,
      "duration": 0.0659,
      "velocity": 102,
      "chip": "ym2612"
    },
    {
      "channel": 4,
      "note": 65,
      "start": 58.2285,
      "duration": 0.0668,
      "velocity": 102,
      "chip": "ym2612"
    },
    {
      "channel": 1,
      "note": 59,
      "start": 58.3288,
      "duration": 0.2332,
      "velocity": 127,
      "chip": "ym2612"
    },
    {
      "channel": 3,
      "note": 70,
      "start": 58.3296,
      "duration": 0.0657,
      "velocity": 102,
      "chip": "ym2612"
    },
    {
      "channel": 4,
      "note": 65,
      "start": 58.3455,
      "duration": 0.0664,
      "velocity": 102,
      "chip": "ym2612"
    },
    {
      "channel": 0,
      "note": 36,
      "start": 58.4448,
      "duration": 0.0663,
      "velocity": 110,
      "chip": "ym2612"
    },
    {
      "channel": 3,
      "note": 70,
      "start": 58.4457,
      "duration": 0.066,
      "velocity": 102,
      "chip": "ym2612"
    },
    {
      "channel": 4,
      "note": 65,
      "start": 58.4618,
      "duration": 0.0667,
      "velocity": 102,
      "chip": "ym2612"
    },
    {
      "channel": 1,
      "note": 64,
      "start": 58.5621,
      "duration": 0.1159,
      "velocity": 127,
      "chip": "ym2612"
    },
    {
      "channel": 3,
      "note": 72,
      "start": 58.563,
      "duration": 0.0653,
      "velocity": 102,
      "chip": "ym2612"
    },
    {
      "channel": 4,
      "note": 67,
      "start": 58.5787,
      "duration": 0.0667,
      "velocity": 102,
      "chip": "ym2612"
    },
    {
      "channel": 0,
      "note": 36,
      "start": 58.6778,
      "duration": 0.2999,
      "velocity": 110,
      "chip": "ym2612"
    },
    {
      "channel": 1,
      "note": 64,
      "start": 58.6781,
      "duration": 0.2331,
      "velocity": 127,
      "chip": "ym2612"
    },
    {
      "channel": 3,
      "note": 72,
      "start": 58.6789,
      "duration": 0.0662,
      "velocity": 102,
      "chip": "ym2612"
    },
    {
      "channel": 4,
      "note": 67,
      "start": 58.6954,
      "duration": 0.0663,
      "velocity": 102,
      "chip": "ym2612"
    },
    {
      "channel": 3,
      "note": 72,
      "start": 58.7955,
      "duration": 0.0662,
      "velocity": 102,
      "chip": "ym2612"
    },
    {
      "channel": 4,
      "note": 67,
      "start": 58.8119,
      "duration": 0.0666,
      "velocity": 102,
      "chip": "ym2612"
    },
    {
      "channel": 1,
      "note": 64,
      "start": 58.9113,
      "duration": 0.1174,
      "velocity": 127,
      "chip": "ym2612"
    },
    {
      "channel": 3,
      "note": 70,
      "start": 58.9123,
      "duration": 0.0661,
      "velocity": 102,
      "chip": "ym2612"
    },
    {
      "channel": 4,
      "note": 65,
      "start": 58.9286,
      "duration": 0.0668,
      "velocity": 102,
      "chip": "ym2612"
    },
    {
      "channel": 0,
      "note": 34,
      "start": 59.0278,
      "duration": 0.1832,
      "velocity": 110,
      "chip": "ym2612"
    },
    {
      "channel": 1,
      "note": 59,
      "start": 59.0288,
      "duration": 0.2332,
      "velocity": 127,
      "chip": "ym2612"
    },
    {
      "channel": 3,
      "note": 70,
      "start": 59.0296,
      "duration": 0.0655,
      "velocity": 102,
      "chip": "ym2612"
    },
    {
      "channel": 4,
      "note": 65,
      "start": 59.0454,
      "duration": 0.0663,
      "velocity": 102,
      "chip": "ym2612"
    },
    {
      "channel": 3,
      "note": 70,
      "start": 59.1455,
      "duration": 0.0662,
      "velocity": 102,
      "chip": "ym2612"
    },
    {
      "channel": 4,
      "note": 65,
      "start": 59.162,
      "duration": 0.0666,
      "velocity": 102,
      "chip": "ym2612"
    },
    {
      "channel": 0,
      "note": 32,
      "start": 59.2612,
      "duration": 0.1835,
      "velocity": 110,
      "chip": "ym2612"
    },
    {
      "channel": 1,
      "note": 64,
      "start": 59.2622,
      "duration": 0.0656,
      "velocity": 127,
      "chip": "ym2612"
    },
    {
      "channel": 3,
      "note": 72,
      "start": 59.2632,
      "duration": 0.0652,
      "velocity": 102,
      "chip": "ym2612"
    },
    {
      "channel": 4,
      "note": 67,
      "start": 59.2786,
      "duration": 0.0667,
      "velocity": 102,
      "chip": "ym2612"
    },
    {
      "channel": 1,
      "note": 64,
      "start": 59.3279,
      "duration": 0.0499,
      "velocity": 127,
      "chip": "ym2612"
    },
    {
      "channel": 1,
      "note": 64,
      "start": 59.378,
      "duration": 0.1169,
      "velocity": 127,
      "chip": "ym2612"
    },
    {
      "channel": 3,
      "note": 72,
      "start": 59.3789,
      "duration": 0.0663,
      "velocity": 102,
      "chip": "ym2612"
    },
    {
      "channel": 4,
      "note": 67,
      "start": 59.3955,
      "duration": 0.0663,
      "velocity": 102,
      "chip": "ym2612"
    },
    {
      "channel": 0,
      "note": 34,
      "start": 59.4948,
      "duration": 0.1829,
      "velocity": 110,
      "chip": "ym2612"
    },
    {
      "channel": 1,
      "note": 62,
      "start": 59.495,
      "duration": 0.1161,
      "velocity": 127,
      "chip": "ym2612"
    },
    {
      "channel": 3,
      "note": 70,
      "start": 59.4959,
      "duration": 0.0657,
      "velocity": 102,
      "chip": "ym2612"
    },
    {
      "channel": 4,
      "note": 65,
      "start": 59.5118,
      "duration": 0.0666,
      "velocity": 102,
      "chip": "ym2612"
    },
    {
      "channel": 1,
      "note": 57,
      "start": 59.6113,
      "duration": 0.1174,
      "velocity": 127,
      "chip": "ym2612"
    },
    {
      "channel": 3,
      "note": 70,
      "start": 59.6123,
      "duration": 0.0661,
      "velocity": 102,
      "chip": "ym2612"
    },
    {
      "channel": 4,
      "note": 65,
      "start": 59.6287,
      "duration": 0.0667,
      "velocity": 102,
      "chip": "ym2612"
    },
    {
      "channel": 0,
      "note": 36,
      "start": 59.7278,
      "duration": 0.0668,
      "velocity": 110,
      "chip": "ym2612"
    },
    {
      "channel": 1,
      "note": 64,
      "start": 59.7289,
      "duration": 0.116,
      "velocity": 127,
      "chip": "ym2612"
    },
    {
      "channel": 2,
      "note": 39,
      "start": 59.73,
      "duration": 0.2315,
      "velocity": 114,
      "chip": "ym2612"
    },
    {
      "channel": 3,
      "note": 72,
      "start": 59.731,
      "duration": 0.0642,
      "velocity": 102,
      "chip": "ym2612"
    },
    {
      "channel": 4,
      "note": 67,
      "start": 59.7457,
      "duration": 0.0661,
      "velocity": 102,
      "chip": "ym2612"
    },
    {
      "channel": 5,
      "note": 39,
      "start": 59.7468,
      "duration": 0.2319,
      "velocity": 114,
      "chip": "ym2612"
    },
    {
      "channel": 1,
      "note": 64,
      "start": 59.845,
      "duration": 0.233,
      "velocity": 127,
      "chip": "ym2612"
    },
    {
      "channel": 3,
      "note": 72,
      "start": 59.8458,
      "duration": 0.0659,
      "velocity": 102,
      "chip": "ym2612"
    },
    {
      "channel": 4,
      "note": 67,
      "start": 59.8619,
      "duration": 0.0667,
      "velocity": 102,
      "chip": "ym2612"
    },
    {
      "channel": 0,
      "note": 36,
      "start": 59.9612,
      "duration": 0.0666,
      "velocity": 110,
      "chip": "ym2612"
    },
    {
      "channel": 3,
      "note": 72,
      "start": 59.9622,
      "duration": 0.0661,
      "velocity": 102,
      "chip": "ym2612"
    },
    {
      "channel": 4,
      "note": 67,
      "start": 59.9785,
      "duration": 0.0669,
      "velocity": 102,
      "chip": "ym2612"
    },
    {
      "channel": 0,
      "note": 36,
      "start": 60.0778,
      "duration": 0.0668,
      "velocity": 110,
      "chip": "ym2612"
    },
    {
      "channel": 2,
      "note": 39,
      "start": 60.0784,
      "duration": 0.233,
      "velocity": 114,
      "chip": "ym2612"
    },
    {
      "channel": 3,
      "note": 70,
      "start": 60.0794,
      "duration": 0.0658,
      "velocity": 102,
      "chip": "ym2612"
    },
    {
      "channel": 4,
      "note": 65,
      "start": 60.0955,
      "duration": 0.0662,
      "velocity": 102,
      "chip": "ym2612"
    },
    {
      "channel": 5,
      "note": 39,
      "start": 60.0959,
      "duration": 0.2327,
      "velocity": 114,
      "chip": "ym2612"
    },
    {
      "channel": 3,
      "note": 70,
      "start": 60.1957,
      "duration": 0.066,
      "velocity": 102,
      "chip": "ym2612"
    },
    {
      "channel": 4,
      "note": 65,
      "start": 60.2119,
      "duration": 0.0667,
      "velocity": 102,
      "chip": "ym2612"
    },
    {
      "channel": 0,
      "note": 36,
      "start": 60.3112,
      "duration": 0.0666,
      "velocity": 110,
      "chip": "ym2612"
    },
    {
      "channel": 3,
      "note": 70,
      "start": 60.3122,
      "duration": 0.0661,
      "velocity": 102,
      "chip": "ym2612"
    },
    {
      "channel": 4,
      "note": 65,
      "start": 60.3285,
      "duration": 0.0669,
      "velocity": 102,
      "chip": "ym2612"
    },
    {
      "channel": 1,
      "note": 64,
      "start": 60.4281,
      "duration": 0.1168,
      "velocity": 127,
      "chip": "ym2612"
    },
    {
      "channel": 2,
      "note": 39,
      "start": 60.4284,
      "duration": 0.2329,
      "velocity": 114,
      "chip": "ym2612"
    },
    {
      "channel": 3,
      "note": 72,
      "start": 60.4295,
      "duration": 0.0658,
      "velocity": 102,
      "chip": "ym2612"
    },
    {
      "channel": 4,
      "note": 67,
      "start": 60.4457,
      "duration": 0.0661,
      "velocity": 102,
      "chip": "ym2612"
    },
    {
      "channel": 5,
      "note": 39,
      "start": 60.4461,
      "duration": 0.2327,
      "velocity": 114,
      "chip": "ym2612"
    },
    {
      "channel": 0,
      "note": 36,
      "start": 60.5448,
      "duration": 0.2999,
      "velocity": 110,
      "chip": "ym2612"
    },
    {
      "channel": 1,
      "note": 64,
      "start": 60.545,
      "duration": 0.2328,
      "velocity": 127,
      "chip": "ym2612"
    },
    {
      "channel": 3,
      "note": 72,
      "start": 60.5459,
      "duration": 0.0658,
      "velocity": 102,
      "chip": "ym2612"
    },
    {
      "channel": 4,
      "note": 67,
      "start": 60.5618,
      "duration": 0.0666,
      "velocity": 102,
      "chip": "ym2612"
    },
    {
      "channel": 3,
      "note": 72,
      "start": 60.662,
      "duration": 0.0663,
      "velocity": 102,
      "chip": "ym2612"
    },
    {
      "channel": 4,
      "note": 67,
      "start": 60.6785,
      "duration": 0.0669,
      "velocity": 102,
      "chip": "ym2612"
    },
    {
      "channel": 2,
      "note": 39,
      "start": 60.7783,
      "duration": 0.2331,
      "velocity": 114,
      "chip": "ym2612"
    },
    {
      "channel": 3,
      "note": 70,
      "start": 60.7793,
      "duration": 0.066,
      "velocity": 102,
      "chip": "ym2612"
    },
    {
      "channel": 4,
      "note": 65,
      "start": 60.7957,
      "duration": 0.0661,
      "velocity": 102,
      "chip": "ym2612"
    },
    {
      "channel": 5,
      "note": 39,
      "start": 60.796,
      "duration": 0.2328,
      "velocity": 114,
      "chip": "ym2612"
    },
    {
      "channel": 0,
      "note": 37,
      "start": 60.8948,
      "duration": 0.1829,
      "velocity": 110,
      "chip": "ym2612"
    },
    {
      "channel": 3,
      "note": 70,
      "start": 60.8957,
      "duration": 0.0659,
      "velocity": 102,
      "chip": "ym2612"
    },
    {
      "channel": 4,
      "note": 65,
      "start": 60.9118,
      "duration": 0.0666,
      "velocity": 102,
      "chip": "ym2612"
    },
    {
      "channel": 3,
      "note": 70,
      "start": 61.012,
      "duration": 0.0663,
      "velocity": 102,
      "chip": "ym2612"
    },
    {
      "channel": 4,
      "note": 65,
      "start": 61.0285,
      "duration": 0.0669,
      "velocity": 102,
      "chip": "ym2612"
    },
    {
      "channel": 0,
      "note": 39,
      "start": 61.1278,
      "duration": 0.1832,
      "velocity": 110,
      "chip": "ym2612"
    },
    {
      "channel": 1,
      "note": 64,
      "start": 61.1281,
      "duration": 0.1167,
      "velocity": 127,
      "chip": "ym2612"
    },
    {
      "channel": 2,
      "note": 39,
      "start": 61.1285,
      "duration": 0.233,
      "velocity": 114,
      "chip": "ym2612"
    },
    {
      "channel": 3,
      "note": 72,
      "start": 61.1295,
      "duration": 0.0656,
      "velocity": 102,
      "chip": "ym2612"
    },
    {
      "channel": 4,
      "note": 67,
      "start": 61.1456,
      "duration": 0.0661,
      "velocity": 102,
      "chip": "ym2612"
    },
    {
      "channel": 5,
      "note": 39,
      "start": 61.1459,
      "duration": 0.2328,
      "velocity": 114,
      "chip": "ym2612"
    },
    {
      "channel": 3,
      "note": 72,
      "start": 61.2458,
      "duration": 0.0659,
      "velocity": 102,
      "chip": "ym2612"
    },
    {
      "channel": 4,
      "note": 67,
      "start": 61.262,
      "duration": 0.0665,
      "velocity": 102,
      "chip": "ym2612"
    },
    {
      "channel": 0,
      "note": 37,
      "start": 61.3612,
      "duration": 0.1835,
      "velocity": 110,
      "chip": "ym2612"
    },
    {
      "channel": 3,
      "note": 70,
      "start": 61.3622,
      "duration": 0.0661,
      "velocity": 102,
      "chip": "ym2612"
    },
    {
      "channel": 4,
      "note": 65,
      "start": 61.3785,
      "duration": 0.0669,
      "velocity": 102,
      "chip": "ym2612"
    },
    {
      "channel": 2,
      "note": 36,
      "start": 61.4782,
      "duration": 0.117,
      "velocity": 114,
      "chip": "ym2612"
    },
    {
      "channel": 3,
      "note": 70,
      "start": 61.4792,
      "duration": 0.066,
      "velocity": 102,
      "chip": "ym2612"
    },
    {
      "channel": 4,
      "note": 65,
      "start": 61.4957,
      "duration": 0.0661,
      "velocity": 102,
      "chip": "ym2612"
    },
    {
      "channel": 5,
      "note": 36,
      "start": 61.496,
      "duration": 0.1162,
      "velocity": 114,
      "chip": "ym2612"
    },
    {
      "channel": 0,
      "note": 36,
      "start": 61.5948,
      "duration": 0.0663,
      "velocity": 110,
      "chip": "ym2612"
    },
    {
      "channel": 1,
      "note": 64,
      "start": 61.5951,
      "duration": 0.1162,
      "velocity": 127,
      "chip": "ym2612"
    },
    {
      "channel": 3,
      "note": 72,
      "start": 61.5963,
      "duration": 0.0653,
      "velocity": 102,
      "chip": "ym2612"
    },
    {
      "channel": 4,
      "note": 67,
      "start": 61.6121,
      "duration": 0.0663,
      "velocity": 102,
      "chip": "ym2612"
    },
    {
      "channel": 1,
      "note": 64,
      "start": 61.7114,
      "duration": 0.2335,
      "velocity": 127,
      "chip": "ym2612"
    },
    {
      "channel": 3,
      "note": 72,
      "start": 61.7122,
      "duration": 0.0662,
      "velocity": 102,
      "chip": "ym2612"
    },
    {
      "channel": 4,
      "note": 67,
      "start": 61.7285,
      "duration": 0.0669,
      "velocity": 102,
      "chip": "ym2612"
    },
    {
      "channel": 0,
      "note": 36,
      "start": 61.8278,
      "duration": 0.0668,
      "velocity": 110,
      "chip": "ym2612"
    },
    {
      "channel": 3,
      "note": 72,
      "start": 61.8288,
      "duration": 0.0665,
      "velocity": 102,
      "chip": "ym2612"
    },
    {
      "channel": 4,
      "note": 67,
      "start": 61.8454,
      "duration": 0.0663,
      "velocity": 102,
      "chip": "ym2612"
    },
    {
      "channel": 0,
      "note": 36,
      "start": 61.9448,
      "duration": 0.0663,
      "velocity": 110,
      "chip": "ym2612"
    },
    {
      "channel": 3,
      "note": 70,
      "start": 61.9459,
      "duration": 0.0657,
      "velocity": 102,
      "chip": "ym2612"
    },
    {
      "channel": 4,
      "note": 65,
      "start": 61.9619,
      "duration": 0.0666,
      "velocity": 102,
      "chip": "ym2612"
    },
    {
      "channel": 3,
      "note": 70,
      "start": 62.0621,
      "duration": 0.0663,
      "velocity": 102,
      "chip": "ym2612"
    },
    {
      "channel": 4,
      "note": 65,
      "start": 62.0785,
      "duration": 0.0669,
      "velocity": 102,
      "chip": "ym2612"
    },
    {
      "channel": 0,
      "note": 36,
      "start": 62.1778,
      "duration": 0.0668,
      "velocity": 110,
      "chip": "ym2612"
    },
    {
      "channel": 3,
      "note": 70,
      "start": 62.1788,
      "duration": 0.0665,
      "velocity": 102,
      "chip": "ym2612"
    },
    {
      "channel": 4,
      "note": 65,
      "start": 62.1954,
      "duration": 0.0664,
      "velocity": 102,
      "chip": "ym2612"
    },
    {
      "channel": 1,
      "note": 64,
      "start": 62.295,
      "duration": 0.1163,
      "velocity": 127,
      "chip": "ym2612"
    },
    {
      "channel": 3,
      "note": 72,
      "start": 62.296,
      "duration": 0.0657,
      "velocity": 102,
      "chip": "ym2612"
    },
    {
      "channel": 4,
      "note": 67,
      "start": 62.312,
      "duration": 0.0665,
      "velocity": 102,
      "chip": "ym2612"
    },
    {
      "channel": 0,
      "note": 36,
      "start": 62.4112,
      "duration": 0.2999,
      "velocity": 110,
      "chip": "ym2612"
    },
    {
      "channel": 1,
      "note": 64,
      "start": 62.4115,
      "duration": 0.2333,
      "velocity": 127,
      "chip": "ym2612"
    },
    {
      "channel": 3,
      "note": 72,
      "start": 62.4123,
      "duration": 0.066,
      "velocity": 102,
      "chip": "ym2612"
    },
    {
      "channel": 4,
      "note": 67,
      "start": 62.4285,
      "duration": 0.0669,
      "velocity": 102,
      "chip": "ym2612"
    },
    {
      "channel": 3,
      "note": 72,
      "start": 62.5286,
      "duration": 0.0666,
      "velocity": 102,
      "chip": "ym2612"
    },
    {
      "channel": 4,
      "note": 67,
      "start": 62.5455,
      "duration": 0.0663,
      "velocity": 102,
      "chip": "ym2612"
    },
    {
      "channel": 3,
      "note": 70,
      "start": 62.6458,
      "duration": 0.0659,
      "velocity": 102,
      "chip": "ym2612"
    },
    {
      "channel": 4,
      "note": 65,
      "start": 62.662,
      "duration": 0.0665,
      "velocity": 102,
      "chip": "ym2612"
    },
    {
      "channel": 0,
      "note": 34,
      "start": 62.7612,
      "duration": 0.1835,
      "velocity": 110,
      "chip": "ym2612"
    },
    {
      "channel": 3,
      "note": 70,
      "start": 62.7622,
      "duration": 0.0661,
      "velocity": 102,
      "chip": "ym2612"
    },
    {
      "channel": 4,
      "note": 65,
      "start": 62.7785,
      "duration": 0.0669,
      "velocity": 102,
      "chip": "ym2612"
    },
    {
      "channel": 3,
      "note": 70,
      "start": 62.8786,
      "duration": 0.0667,
      "velocity": 102,
      "chip": "ym2612"
    },
    {
      "channel": 4,
      "note": 65,
      "start": 62.8955,
      "duration": 0.0664,
      "velocity": 102,
      "chip": "ym2612"
    },
    {
      "channel": 0,
      "note": 32,
      "start": 62.9948,
      "duration": 0.1829,
      "velocity": 110,
      "chip": "ym2612"
    },
    {
      "channel": 1,
      "note": 64,
      "start": 62.995,
      "duration": 0.1161,
      "velocity": 127,
      "chip": "ym2612"
    },
    {
      "channel": 3,
      "note": 72,
      "start": 62.9961,
      "duration": 0.0655,
      "velocity": 102,
      "chip": "ym2612"
    },
    {
      "channel": 4,
      "note": 67,
      "start": 63.012,
      "duration": 0.0664,
      "velocity": 102,
      "chip": "ym2612"
    },
    {
      "channel": 3,
      "note": 72,
      "start": 63.1122,
      "duration": 0.0662,
      "velocity": 102,
      "chip": "ym2612"
    },
    {
      "channel": 4,
      "note": 67,
      "start": 63.1287,
      "duration": 0.0667,
      "velocity": 102,
      "chip": "ym2612"
    },
    {
      "channel": 0,
      "note": 34,
      "start": 63.2278,
      "duration": 0.1832,
      "velocity": 110,
      "chip": "ym2612"
    },
    {
      "channel": 2,
      "note": 39,
      "start": 63.2283,
      "duration": 0.0665,
      "velocity": 114,
      "chip": "ym2612"
    },
    {
      "channel": 3,
      "note": 70,
      "start": 63.2291,
      "duration": 0.0663,
      "velocity": 102,
      "chip": "ym2612"
    },
    {
      "channel": 4,
      "note": 65,
      "start": 63.2455,
      "duration": 0.0663,
      "velocity": 102,
      "chip": "ym2612"
    },
    {
      "channel": 5,
      "note": 39,
      "start": 63.2459,
      "duration": 0.0662,
      "velocity": 114,
      "chip": "ym2612"
    },
    {
      "channel": 2,
      "note": 39,
      "start": 63.295,
      "duration": 0.1667,
      "velocity": 114,
      "chip": "ym2612"
    },
    {
      "channel": 5,
      "note": 39,
      "start": 63.3122,
      "duration": 0.1668,
      "velocity": 114,
      "chip": "ym2612"
    },
    {
      "channel": 3,
      "note": 70,
      "start": 63.3457,
      "duration": 0.066,
      "velocity": 102,
      "chip": "ym2612"
    },
    {
      "channel": 4,
      "note": 65,
      "start": 63.362,
      "duration": 0.0665,
      "velocity": 102,
      "chip": "ym2612"
    },
    {
      "channel": 0,
      "note": 36,
      "start": 63.4612,
      "duration": 0.0666,
      "velocity": 110,
      "chip": "ym2612"
    },
    {
      "channel": 1,
      "note": 64,
      "start": 63.4615,
      "duration": 0.1164,
      "velocity": 127,
      "chip": "ym2612"
    },
    {
      "channel": 2,
      "note": 39,
      "start": 63.4618,
      "duration": 0.0662,
      "velocity": 114,
      "chip": "ym2612"
    },
    {
      "channel": 3,
      "note": 72,
      "start": 63.463,
      "duration": 0.0656,
      "velocity": 102,
      "chip": "ym2612"
    },
    {
      "channel": 4,
      "note": 67,
      "start": 63.4788,
      "duration": 0.0666,
      "velocity": 102,
      "chip": "ym2612"
    },
    {
      "channel": 5,
      "note": 39,
      "start": 63.4791,
      "duration": 0.0665,
      "velocity": 114,
      "chip": "ym2612"
    },
    {
      "channel": 2,
      "note": 39,
      "start": 63.5281,
      "duration": 0.2834,
      "velocity": 114,
      "chip": "ym2612"
    },
    {
      "channel": 5,
      "note": 39,
      "start": 63.5457,
      "duration": 0.2831,
      "velocity": 114,
      "chip": "ym2612"
    },
    {
      "channel": 1,
      "note": 64,
      "start": 63.578,
      "duration": 0.2333,
      "velocity": 127,
      "chip": "ym2612"
    },
    {
      "channel": 3,
      "note": 72,
      "start": 63.5789,
      "duration": 0.0664,
      "velocity": 102,
      "chip": "ym2612"
    },
    {
      "channel": 4,
      "note": 67,
      "start": 63.5955,
      "duration": 0.0664,
      "velocity": 102,
      "chip": "ym2612"
    },
    {
      "channel": 0,
      "note": 36,
      "start": 63.6948,
      "duration": 0.0663,
      "velocity": 110,
      "chip": "ym2612"
    },
    {
      "channel": 3,
      "note": 72,
      "start": 63.6957,
      "duration": 0.066,
      "velocity": 102,
      "chip": "ym2612"
    },
    {
      "channel": 4,
      "note": 67,
      "start": 63.7118,
      "duration": 0.0667,
      "velocity": 102,
      "chip": "ym2612"
    },
    {
      "channel": 0,
      "note": 36,
      "start": 63.8112,
      "duration": 0.0666,
      "velocity": 110,
      "chip": "ym2612"
    },
    {
      "channel": 2,
      "note": 39,
      "start": 63.8117,
      "duration": 0.2333,
      "velocity": 114,
      "chip": "ym2612"
    },
    {
      "channel": 3,
      "note": 70,
      "start": 63.8127,
      "duration": 0.0656,
      "velocity": 102,
      "chip": "ym2612"
    },
    {
      "channel": 4,
      "note": 65,
      "start": 63.8287,
      "duration": 0.0667,
      "velocity": 102,
      "chip": "ym2612"
    },
    {
      "channel": 5,
      "note": 39,
      "start": 63.8289,
      "duration": 0.2331,
      "velocity": 114,
      "chip": "ym2612"
    },
    {
      "channel": 3,
      "note": 70,
      "start": 63.9288,
      "duration": 0.0665,
      "velocity": 102,
      "chip": "ym2612"
    },
    {
      "channel": 4,
      "note": 65,
      "start": 63.9455,
      "duration": 0.0664,
      "velocity": 102,
      "chip": "ym2612"
    },
    {
      "channel": 0,
      "note": 36,
      "start": 64.0448,
      "duration": 0.0663,
      "velocity": 110,
      "chip": "ym2612"
    },
    {
      "channel": 3,
      "note": 70,
      "start": 64.0457,
      "duration": 0.0659,
      "velocity": 102,
      "chip": "ym2612"
    },
    {
      "channel": 4,
      "note": 65,
      "start": 64.0618,
      "duration": 0.0666,
      "velocity": 102,
      "chip": "ym2612"
    },
    {
      "channel": 1,
      "note": 64,
      "start": 64.1615,
      "duration": 0.1165,
      "velocity": 127,
      "chip": "ym2612"
    },
    {
      "channel": 3,
      "note": 72,
      "start": 64.1624,
      "duration": 0.066,
      "velocity": 102,
      "chip": "ym2612"
    },
    {
      "channel": 4,
      "note": 67,
      "start": 64.1787,
      "duration": 0.0667,
      "velocity": 102,
      "chip": "ym2612"
    },
    {
      "channel": 0,
      "note": 36,
      "start": 64.2778,
      "duration": 0.2999,
      "velocity": 110,
      "chip": "ym2612"
    },
    {
      "channel": 1,
      "note": 64,
      "start": 64.2781,
      "duration": 0.2331,
      "velocity": 127,
      "chip": "ym2612"
    },
    {
      "channel": 3,
      "note": 72,
      "start": 64.2789,
      "duration": 0.0662,
      "velocity": 102,
      "chip": "ym2612"
    },
    {
      "channel": 4,
      "note": 67,
      "start": 64.2954,
      "duration": 0.0663,
      "velocity": 102,
      "chip": "ym2612"
    },
    {
      "channel": 2,
      "note": 36,
      "start": 64.395,
      "duration": 0.0663,
      "velocity": 114,
      "chip": "ym2612"
    },
    {
      "channel": 3,
      "note": 72,
      "start": 64.3958,
      "duration": 0.0661,
      "velocity": 102,
      "chip": "ym2612"
    },
    {
      "channel": 4,
      "note": 67,
      "start": 64.412,
      "duration": 0.0665,
      "velocity": 102,
      "chip": "ym2612"
    },
    {
      "channel": 5,
      "note": 36,
      "start": 64.4123,
      "duration": 0.0665,
      "velocity": 114,
      "chip": "ym2612"
    },
    {
      "channel": 2,
      "note": 32,
      "start": 64.4615,
      "duration": 0.2834,
      "velocity": 114,
      "chip": "ym2612"
    },
    {
      "channel": 5,
      "note": 32,
      "start": 64.4789,
      "duration": 0.2833,
      "velocity": 114,
      "chip": "ym2612"
    },
    {
      "channel": 3,
      "note": 70,
      "start": 64.5123,
      "duration": 0.0661,
      "velocity": 102,
      "chip": "ym2612"
    },
    {
      "channel": 4,
      "note": 65,
      "start": 64.5286,
      "duration": 0.0668,
      "velocity": 102,
      "chip": "ym2612"
    },
    {
      "channel": 0,
      "note": 37,
      "start": 64.6278,
      "duration": 0.1832,
      "velocity": 110,
      "chip": "ym2612"
    },
    {
      "channel": 3,
      "note": 70,
      "start": 64.6288,
      "duration": 0.0663,
      "velocity": 102,
      "chip": "ym2612"
    },
    {
      "channel": 4,
      "note": 65,
      "start": 64.6454,
      "duration": 0.0663,
      "velocity": 102,
      "chip": "ym2612"
    },
    {
      "channel": 2,
      "note": 36,
      "start": 64.745,
      "duration": 0.2331,
      "velocity": 114,
      "chip": "ym2612"
    },
    {
      "channel": 3,
      "note": 70,
      "start": 64.7458,
      "duration": 0.0659,
      "velocity": 102,
      "chip": "ym2612"
    },
    {
      "channel": 4,
      "note": 65,
      "start": 64.762,
      "duration": 0.0665,
      "velocity": 102,
      "chip": "ym2612"
    },
    {
      "channel": 5,
      "note": 36,
      "start": 64.7623,
      "duration": 0.2335,
      "velocity": 114,
      "chip": "ym2612"
    },
    {
      "channel": 0,
      "note": 39,
      "start": 64.8612,
      "duration": 0.1835,
      "velocity": 110,
      "chip": "ym2612"
    },
    {
      "channel": 1,
      "note": 64,
      "start": 64.8615,
      "duration": 0.1164,
      "velocity": 127,
      "chip": "ym2612"
    },
    {
      "channel": 3,
      "note": 72,
      "start": 64.8625,
      "duration": 0.0658,
      "velocity": 102,
      "chip": "ym2612"
    },
    {
      "channel": 4,
      "note": 67,
      "start": 64.8786,
      "duration": 0.0667,
      "velocity": 102,
      "chip": "ym2612"
    },
    {
      "channel": 3,
      "note": 72,
      "start": 64.9789,
      "duration": 0.0663,
      "velocity": 102,
      "chip": "ym2612"
    },
    {
      "channel": 4,
      "note": 67,
      "start": 64.9955,
      "duration": 0.0663,
      "velocity": 102,
      "chip": "ym2612"
    },
    {
      "channel": 0,
      "note": 37,
      "start": 65.0948,
      "duration": 0.1829,
      "velocity": 110,
      "chip": "ym2612"
    },
    {
      "channel": 3,
      "note": 70,
      "start": 65.0957,
      "duration": 0.0659,
      "velocity": 102,
      "chip": "ym2612"
    },
    {
      "channel": 4,
      "note": 65,
      "start": 65.1118,
      "duration": 0.0666,
      "velocity": 102,
      "chip": "ym2612"
    },
    {
      "channel": 3,
      "note": 70,
      "start": 65.2122,
      "duration": 0.0662,
      "velocity": 102,
      "chip": "ym2612"
    },
    {
      "channel": 4,
      "note": 65,
      "start": 65.2287,
      "duration": 0.0667,
      "velocity": 102,
      "chip": "ym2612"
    },
    {
      "channel": 0,
      "note": 36,
      "start": 65.3278,
      "duration": 0.0668,
      "velocity": 110,
      "chip": "ym2612"
    },
    {
      "channel": 1,
      "note": 64,
      "start": 65.3282,
      "duration": 0.1167,
      "velocity": 127,
      "chip": "ym2612"
    },
    {
      "channel": 3,
      "note": 72,
      "start": 65.3294,
      "duration": 0.0658,
      "velocity": 102,
      "chip": "ym2612"
    },
    {
      "channel": 4,
      "note": 67,
      "start": 65.3456,
      "duration": 0.0662,
      "velocity": 102,
      "chip": "ym2612"
    },
    {
      "channel": 1,
      "note": 64,
      "start": 65.445,
      "duration": 0.233,
      "velocity": 127,
      "chip": "ym2612"
    },
    {
      "channel": 3,
      "note": 72,
      "start": 65.4458,
      "duration": 0.0659,
      "velocity": 102,
      "chip": "ym2612"
    },
    {
      "channel": 4,
      "note": 67,
      "start": 65.4619,
      "duration": 0.0667,
      "velocity": 102,
      "chip": "ym2612"
    },
    {
      "channel": 0,
      "note": 36,
      "start": 65.5612,
      "duration": 0.0666,
      "velocity": 110,
      "chip": "ym2612"
    },
    {
      "channel": 3,
      "note": 72,
      "start": 65.5621,
      "duration": 0.0662,
      "velocity": 102,
      "chip": "ym2612"
    },
    {
      "channel": 4,
      "note": 67,
      "start": 65.5785,
      "duration": 0.0669,
      "velocity": 102,
      "chip": "ym2612"
    },
    {
      "channel": 0,
      "note": 36,
      "start": 65.6778,
      "duration": 0.0668,
      "velocity": 110,
      "chip": "ym2612"
    },
    {
      "channel": 3,
      "note": 70,
      "start": 65.6791,
      "duration": 0.0661,
      "velocity": 102,
      "chip": "ym2612"
    },
    {
      "channel": 4,
      "note": 65,
      "start": 65.6955,
      "duration": 0.0663,
      "velocity": 102,
      "chip": "ym2612"
    },
    {
      "channel": 3,
      "note": 70,
      "start": 65.7957,
      "duration": 0.066,
      "velocity": 102,
      "chip": "ym2612"
    },
    {
      "channel": 4,
      "note": 65,
      "start": 65.8119,
      "duration": 0.0667,
      "velocity": 102,
      "chip": "ym2612"
    },
    {
      "channel": 0,
      "note": 36,
      "start": 65.9112,
      "duration": 0.0666,
      "velocity": 110,
      "chip": "ym2612"
    },
    {
      "channel": 3,
      "note": 70,
      "start": 65.9121,
      "duration": 0.0662,
      "velocity": 102,
      "chip": "ym2612"
    },
    {
      "channel": 4,
      "note": 65,
      "start": 65.9285,
      "duration": 0.0669,
      "velocity": 102,
      "chip": "ym2612"
    },
    {
      "channel": 1,
      "note": 64,
      "start": 66.0281,
      "duration": 0.1168,
      "velocity": 127,
      "chip": "ym2612"
    },
    {
      "channel": 3,
      "note": 72,
      "start": 66.0291,
      "duration": 0.0661,
      "velocity": 102,
      "chip": "ym2612"
    },
    {
      "channel": 4,
      "note": 67,
      "start": 66.0456,
      "duration": 0.0662,
      "velocity": 102,
      "chip": "ym2612"
    },
    {
      "channel": 0,
      "note": 36,
      "start": 66.1448,
      "duration": 0.2999,
      "velocity": 110,
      "chip": "ym2612"
    },
    {
      "channel": 1,
      "note": 64,
      "start": 66.145,
      "duration": 0.2328,
      "velocity": 127,
      "chip": "ym2612"
    },
    {
      "channel": 3,
      "note": 72,
      "start": 66.1459,
      "duration": 0.0658,
      "velocity": 102,
      "chip": "ym2612"
    },
    {
      "channel": 4,
      "note": 67,
      "start": 66.1618,
      "duration": 0.0666,
      "velocity": 102,
      "chip": "ym2612"
    },
    {
      "channel": 2,
      "note": 39,
      "start": 66.2616,
      "duration": 0.1166,
      "velocity": 114,
      "chip": "ym2612"
    },
    {
      "channel": 3,
      "note": 72,
      "start": 66.2623,
      "duration": 0.066,
      "velocity": 102,
      "chip": "ym2612"
    },
    {
      "channel": 5,
      "note": 36,
      "start": 66.2628,
      "duration": 0.1169,
      "velocity": 114,
      "chip": "ym2612"
    },
    {
      "channel": 4,
      "note": 67,
      "start": 66.2787,
      "duration": 0.0667,
      "velocity": 102,
      "chip": "ym2612"
    },
    {
      "channel": 2,
      "note": 39,
      "start": 66.3783,
      "duration": 0.1168,
      "velocity": 114,
      "chip": "ym2612"
    },
    {
      "channel": 3,
      "note": 70,
      "start": 66.3793,
      "duration": 0.066,
      "velocity": 102,
      "chip": "ym2612"
    },
    {
      "channel": 5,
      "note": 36,
      "start": 66.3798,
      "duration": 0.1167,
      "velocity": 114,
      "chip": "ym2612"
    },
    {
      "channel": 4,
      "note": 65,
      "start": 66.3957,
      "duration": 0.0661,
      "velocity": 102,
      "chip": "ym2612"
    },
    {
      "channel": 0,
      "note": 34,
      "start": 66.4948,
      "duration": 0.1829,
      "velocity": 110,
      "chip": "ym2612"
    },
    {
      "channel": 2,
      "note": 39,
      "start": 66.4953,
      "duration": 0.1162,
      "velocity": 114,
      "chip": "ym2612"
    },
    {
      "channel": 3,
      "note": 70,
      "start": 66.4961,
      "duration": 0.0655,
      "velocity": 102,
      "chip": "ym2612"
    },
    {
      "channel": 5,
      "note": 36,
      "start": 66.4966,
      "duration": 0.1161,
      "velocity": 114,
      "chip": "ym2612"
    },
    {
      "channel": 4,
      "note": 65,
      "start": 66.5119,
      "duration": 0.0666,
      "velocity": 102,
      "chip": "ym2612"
    },
    {
      "channel": 2,
      "note": 39,
      "start": 66.6116,
      "duration": 0.1168,
      "velocity": 114,
      "chip": "ym2612"
    },
    {
      "channel": 3,
      "note": 70,
      "start": 66.6123,
      "duration": 0.066,
      "velocity": 102,
      "chip": "ym2612"
    },
    {
      "channel": 5,
      "note": 36,
      "start": 66.6128,
      "duration": 0.1171,
      "velocity": 114,
      "chip": "ym2612"
    },
    {
      "channel": 4,
      "note": 65,
      "start": 66.6287,
      "duration": 0.0667,
      "velocity": 102,
      "chip": "ym2612"
    },
    {
      "channel": 0,
      "note": 32,
      "start": 66.7278,
      "duration": 0.1832,
      "velocity": 110,
      "chip": "ym2612"
    },
    {
      "channel": 1,
      "note": 64,
      "start": 66.7281,
      "duration": 0.1167,
      "velocity": 127,
      "chip": "ym2612"
    },
    {
      "channel": 2,
      "note": 39,
      "start": 66.7285,
      "duration": 0.1166,
      "velocity": 114,
      "chip": "ym2612"
    },
    {
      "channel": 3,
      "note": 72,
      "start": 66.7295,
      "duration": 0.0656,
      "velocity": 102,
      "chip": "ym2612"
    },
    {
      "channel": 5,
      "note": 36,
      "start": 66.73,
      "duration": 0.1165,
      "velocity": 114,
      "chip": "ym2612"
    },
    {
      "channel": 4,
      "note": 67,
      "start": 66.7456,
      "duration": 0.0661,
      "velocity": 102,
      "chip": "ym2612"
    },
    {
      "channel": 2,
      "note": 39,
      "start": 66.8452,
      "duration": 0.1163,
      "velocity": 114,
      "chip": "ym2612"
    },
    {
      "channel": 3,
      "note": 72,
      "start": 66.8461,
      "duration": 0.0656,
      "velocity": 102,
      "chip": "ym2612"
    },
    {
      "channel": 5,
      "note": 36,
      "start": 66.8467,
      "duration": 0.1161,
      "velocity": 114,
      "chip": "ym2612"
    },
    {
      "channel": 4,
      "note": 67,
      "start": 66.8621,
      "duration": 0.0665,
      "velocity": 102,
      "chip": "ym2612"
    },
    {
      "channel": 0,
      "note": 34,
      "start": 66.9612,
      "duration": 0.1835,
      "velocity": 110,
      "chip": "ym2612"
    },
    {
      "channel": 2,
      "note": 39,
      "start": 66.9617,
      "duration": 0.1164,
      "velocity": 114,
      "chip": "ym2612"
    },
    {
      "channel": 3,
      "note": 70,
      "start": 66.9625,
      "duration": 0.0658,
      "velocity": 102,
      "chip": "ym2612"
    },
    {
      "channel": 5,
      "note": 36,
      "start": 66.963,
      "duration": 0.1167,
      "velocity": 114,
      "chip": "ym2612"
    },
    {
      "channel": 4,
      "note": 65,
      "start": 66.9786,
      "duration": 0.0667,
      "velocity": 102,
      "chip": "ym2612"
    },
    {
      "channel": 2,
      "note": 39,
      "start": 67.0782,
      "duration": 0.1179,
      "velocity": 114,
      "chip": "ym2612"
    },
    {
      "channel": 3,
      "note": 70,
      "start": 67.0792,
      "duration": 0.066,
      "velocity": 102,
      "chip": "ym2612"
    },
    {
      "channel": 5,
      "note": 36,
      "start": 67.0797,
      "duration": 0.1183,
      "velocity": 114,
      "chip": "ym2612"
    },
    {
      "channel": 4,
      "note": 65,
      "start": 67.0957,
      "duration": 0.0661,
      "velocity": 102,
      "chip": "ym2612"
    },
    {
      "channel": 0,
      "note": 36,
      "start": 67.1948,
      "duration": 0.0663,
      "velocity": 110,
      "chip": "ym2612"
    },
    {
      "channel": 1,
      "note": 64,
      "start": 67.1958,
      "duration": 0.1155,
      "velocity": 127,
      "chip": "ym2612"
    },
    {
      "channel": 3,
      "note": 72,
      "start": 67.1973,
      "duration": 0.0643,
      "velocity": 102,
      "chip": "ym2612"
    },
    {
      "channel": 4,
      "note": 67,
      "start": 67.2122,
      "duration": 0.0662,
      "velocity": 102,
      "chip": "ym2612"
    },
    {
      "channel": 1,
      "note": 64,
      "start": 67.3114,
      "duration": 0.2335,
      "velocity": 127,
      "chip": "ym2612"
    },
    {
      "channel": 3,
      "note": 72,
      "start": 67.3122,
      "duration": 0.0662,
      "velocity": 102,
      "chip": "ym2612"
    },
    {
      "channel": 4,
      "note": 67,
      "start": 67.3285,
      "duration": 0.0669,
      "velocity": 102,
      "chip": "ym2612"
    },
    {
      "channel": 0,
      "note": 36,
      "start": 67.4278,
      "duration": 0.0668,
      "velocity": 110,
      "chip": "ym2612"
    },
    {
      "channel": 3,
      "note": 72,
      "start": 67.4288,
      "duration": 0.0665,
      "velocity": 102,
      "chip": "ym2612"
    },
    {
      "channel": 4,
      "note": 67,
      "start": 67.4454,
      "duration": 0.0663,
      "velocity": 102,
      "chip": "ym2612"
    },
    {
      "channel": 0,
      "note": 36,
      "start": 67.5448,
      "duration": 0.0663,
      "velocity": 110,
      "chip": "ym2612"
    },
    {
      "channel": 1,
      "note": 64,
      "start": 67.545,
      "duration": 0.1134,
      "velocity": 127,
      "chip": "ym2612"
    },
    {
      "channel": 3,
      "note": 70,
      "start": 67.546,
      "duration": 0.0656,
      "velocity": 102,
      "chip": "ym2612"
    },
    {
      "channel": 4,
      "note": 65,
      "start": 67.5619,
      "duration": 0.0666,
      "velocity": 102,
      "chip": "ym2612"
    }
  ]
}