{
  "track_name": "10 Stage 4",
  "duration_sec": 42.781,
  "sample_rate": 44100,
  "note_count": 959,
  "unique_pitches": 40,
  "pitch_range": 53,
  "avg_note_duration": 0.1961,
  "reconstruction_stats": {
    "notes_reconstructed": 959,
    "keyon_events": 959,
    "keyoff_events": 954,
    "orphan_keyons": 5,
    "unique_pitches": 40,
    "pitch_range": 53,
    "avg_duration_sec": 0.1961
  },
  "metadata": {
    "source": "G\\Gley Lancer\\10 Stage 4.vgz"
  },
  "notes": [
    {
      "channel": 0,
      "note": 54,
      "start": 0.0039,
      "duration": 0.0437,
      "velocity": 100,
      "chip": "ym2612"
    },
    {
      "channel": 2,
      "note": 90,
      "start": 0.0108,
      "duration": 0.0204,
      "velocity": 90,
      "chip": "ym2612"
    },
    {
      "channel": 3,
      "note": -1,
      "start": 0.0179,
      "duration": 0.0305,
      "velocity": 80,
      "chip": "ym2612"
    },
    {
      "channel": 2,
      "note": 93,
      "start": 0.0315,
      "duration": 0.0096,
      "velocity": 90,
      "chip": "ym2612"
    },
    {
      "channel": 2,
      "note": 95,
      "start": 0.0413,
      "duration": 0.0102,
      "velocity": 90,
      "chip": "ym2612"
    },
    {
      "channel": 0,
      "note": 54,
      "start": 0.051,
      "duration": 0.0422,
      "velocity": 100,
      "chip": "ym2612"
    },
    {
      "channel": 2,
      "note": 97,
      "start": 0.0518,
      "duration": 0.0244,
      "velocity": 90,
      "chip": "ym2612"
    },
    {
      "channel": 3,
      "note": 90,
      "start": 0.0525,
      "duration": 0.0415,
      "velocity": 80,
      "chip": "ym2612"
    },
    {
      "channel": 4,
      "note": 72,
      "start": 0.0728,
      "duration": 0.014,
      "velocity": 90,
      "chip": "ym2612"
    },
    {
      "channel": 2,
      "note": 99,
      "start": 0.0764,
      "duration": 0.0093,
      "velocity": 90,
      "chip": "ym2612"
    },
    {
      "channel": 2,
      "note": 100,
      "start": 0.086,
      "duration": 0.011,
      "velocity": 90,
      "chip": "ym2612"
    },
    {
      "channel": 4,
      "note": 90,
      "start": 0.0871,
      "duration": 0.0112,
      "velocity": 90,
      "chip": "ym2612"
    },
    {
      "channel": 2,
      "note": 102,
      "start": 0.0972,
      "duration": 0.0633,
      "velocity": 90,
      "chip": "ym2612"
    },
    {
      "channel": 3,
      "note": 85,
      "start": 0.0979,
      "duration": 0.1525,
      "velocity": 80,
      "chip": "ym2612"
    },
    {
      "channel": 4,
      "note": 93,
      "start": 0.0987,
      "duration": 0.0447,
      "velocity": 90,
      "chip": "ym2612"
    },
    {
      "channel": 4,
      "note": 95,
      "start": 0.1437,
      "duration": 0.071,
      "velocity": 90,
      "chip": "ym2612"
    },
    {
      "channel": 2,
      "note": 100,
      "start": 0.1607,
      "duration": 0.0529,
      "velocity": 90,
      "chip": "ym2612"
    },
    {
      "channel": 2,
      "note": 99,
      "start": 0.2139,
      "duration": 0.054,
      "velocity": 90,
      "chip": "ym2612"
    },
    {
      "channel": 4,
      "note": 97,
      "start": 0.2149,
      "duration": 0.0543,
      "velocity": 90,
      "chip": "ym2612"
    },
    {
      "channel": 2,
      "note": 97,
      "start": 0.2681,
      "duration": 0.0696,
      "velocity": 90,
      "chip": "ym2612"
    },
    {
      "channel": 3,
      "note": 88,
      "start": 0.2688,
      "duration": 0.1579,
      "velocity": 80,
      "chip": "ym2612"
    },
    {
      "channel": 4,
      "note": 99,
      "start": 0.2695,
      "duration": 0.051,
      "velocity": 90,
      "chip": "ym2612"
    },
    {
      "channel": 4,
      "note": 100,
      "start": 0.3209,
      "duration": 0.071,
      "velocity": 90,
      "chip": "ym2612"
    },
    {
      "channel": 2,
      "note": 95,
      "start": 0.338,
      "duration": 0.0529,
      "velocity": 90,
      "chip": "ym2612"
    },
    {
      "channel": 2,
      "note": 93,
      "start": 0.3911,
      "duration": 0.053,
      "velocity": 90,
      "chip": "ym2612"
    },
    {
      "channel": 4,
      "note": 102,
      "start": 0.3922,
      "duration": 0.0537,
      "velocity": 90,
      "chip": "ym2612"
    },
    {
      "channel": 2,
      "note": 90,
      "start": 0.4447,
      "duration": 0.0703,
      "velocity": 90,
      "chip": "ym2612"
    },
    {
      "channel": 3,
      "note": 83,
      "start": 0.4454,
      "duration": 0.1585,
      "velocity": 80,
      "chip": "ym2612"
    },
    {
      "channel": 4,
      "note": 100,
      "start": 0.4462,
      "duration": 0.0517,
      "velocity": 90,
      "chip": "ym2612"
    },
    {
      "channel": 4,
      "note": 99,
      "start": 0.4981,
      "duration": 0.0712,
      "velocity": 90,
      "chip": "ym2612"
    },
    {
      "channel": 2,
      "note": 93,
      "start": 0.5153,
      "duration": 0.053,
      "velocity": 90,
      "chip": "ym2612"
    },
    {
      "channel": 2,
      "note": 95,
      "start": 0.5685,
      "duration": 0.0528,
      "velocity": 90,
      "chip": "ym2612"
    },
    {
      "channel": 4,
      "note": 97,
      "start": 0.5696,
      "duration": 0.0531,
      "velocity": 90,
      "chip": "ym2612"
    },
    {
      "channel": 2,
      "note": 97,
      "start": 0.6215,
      "duration": 0.0707,
      "velocity": 90,
      "chip": "ym2612"
    },
    {
      "channel": 3,
      "note": 85,
      "start": 0.6223,
      "duration": 0.1589,
      "velocity": 80,
      "chip": "ym2612"
    },
    {
      "channel": 4,
      "note": 95,
      "start": 0.623,
      "duration": 0.052,
      "velocity": 90,
      "chip": "ym2612"
    },
    {
      "channel": 4,
      "note": 93,
      "start": 0.6758,
      "duration": 0.0706,
      "velocity": 90,
      "chip": "ym2612"
    },
    {
      "channel": 2,
      "note": 99,
      "start": 0.6924,
      "duration": 0.0529,
      "velocity": 90,
      "chip": "ym2612"
    },
    {
      "channel": 2,
      "note": 100,
      "start": 0.7456,
      "duration": 0.0529,
      "velocity": 90,
      "chip": "ym2612"
    },
    {
      "channel": 4,
      "note": 90,
      "start": 0.7467,
      "duration": 0.0532,
      "velocity": 90,
      "chip": "ym2612"
    },
    {
      "channel": 2,
      "note": 102,
      "start": 0.7988,
      "duration": 0.0707,
      "velocity": 90,
      "chip": "ym2612"
    },
    {
      "channel": 3,
      "note": 81,
      "start": 0.7995,
      "duration": 0.1589,
      "velocity": 80,
      "chip": "ym2612"
    },
    {
      "channel": 4,
      "note": 93,
      "start": 0.8012,
      "duration": 0.0513,
      "velocity": 90,
      "chip": "ym2612"
    },
    {
      "channel": 4,
      "note": 95,
      "start": 0.8529,
      "duration": 0.0708,
      "velocity": 90,
      "chip": "ym2612"
    },
    {
      "channel": 2,
      "note": 100,
      "start": 0.8696,
      "duration": 0.053,
      "velocity": 90,
      "chip": "ym2612"
    },
    {
      "channel": 2,
      "note": 99,
      "start": 0.9229,
      "duration": 0.0529,
      "velocity": 90,
      "chip": "ym2612"
    },
    {
      "channel": 4,
      "note": 97,
      "start": 0.9239,
      "duration": 0.0532,
      "velocity": 90,
      "chip": "ym2612"
    },
    {
      "channel": 2,
      "note": 97,
      "start": 0.976,
      "duration": 0.0707,
      "velocity": 90,
      "chip": "ym2612"
    },
    {
      "channel": 3,
      "note": 83,
      "start": 0.9767,
      "duration": 0.1594,
      "velocity": 80,
      "chip": "ym2612"
    },
    {
      "channel": 4,
      "note": 99,
      "start": 0.9774,
      "duration": 0.0521,
      "velocity": 90,
      "chip": "ym2612"
    },
    {
      "channel": 4,
      "note": 100,
      "start": 1.0298,
      "duration": 0.0721,
      "velocity": 90,
      "chip": "ym2612"
    },
    {
      "channel": 2,
      "note": 95,
      "start": 1.0469,
      "duration": 0.0529,
      "velocity": 90,
      "chip": "ym2612"
    },
    {
      "channel": 2,
      "note": 93,
      "start": 1.1,
      "duration": 0.0534,
      "velocity": 90,
      "chip": "ym2612"
    },
    {
      "channel": 4,
      "note": 102,
      "start": 1.1021,
      "duration": 0.0534,
      "velocity": 90,
      "chip": "ym2612"
    },
    {
      "channel": 0,
      "note": 54,
      "start": 1.1528,
      "duration": 0.0341,
      "velocity": 100,
      "chip": "ym2612"
    },
    {
      "channel": 2,
      "note": 90,
      "start": 1.1543,
      "duration": 0.0156,
      "velocity": 90,
      "chip": "ym2612"
    },
    {
      "channel": 3,
      "note": 78,
      "start": 1.1551,
      "duration": 0.0326,
      "velocity": 80,
      "chip": "ym2612"
    },
    {
      "channel": 4,
      "note": 100,
      "start": 1.1558,
      "duration": 0.0109,
      "velocity": 90,
      "chip": "ym2612"
    },
    {
      "channel": 4,
      "note": 99,
      "start": 1.167,
      "duration": 0.0138,
      "velocity": 90,
      "chip": "ym2612"
    },
    {
      "channel": 2,
      "note": 93,
      "start": 1.1702,
      "duration": 0.0096,
      "velocity": 90,
      "chip": "ym2612"
    },
    {
      "channel": 2,
      "note": 95,
      "start": 1.18,
      "duration": 0.0113,
      "velocity": 90,
      "chip": "ym2612"
    },
    {
      "channel": 4,
      "note": 97,
      "start": 1.1811,
      "duration": 0.0116,
      "velocity": 90,
      "chip": "ym2612"
    },
    {
      "channel": 0,
      "note": 54,
      "start": 1.1908,
      "duration": 0.0355,
      "velocity": 100,
      "chip": "ym2612"
    },
    {
      "channel": 2,
      "note": 97,
      "start": 1.1916,
      "duration": 0.0176,
      "velocity": 90,
      "chip": "ym2612"
    },
    {
      "channel": 3,
      "note": 88,
      "start": 1.1923,
      "duration": 0.0349,
      "velocity": 80,
      "chip": "ym2612"
    },
    {
      "channel": 4,
      "note": 95,
      "start": 1.193,
      "duration": 0.0109,
      "velocity": 90,
      "chip": "ym2612"
    },
    {
      "channel": 4,
      "note": 93,
      "start": 1.206,
      "duration": 0.0139,
      "velocity": 90,
      "chip": "ym2612"
    },
    {
      "channel": 2,
      "note": 99,
      "start": 1.2095,
      "duration": 0.0095,
      "velocity": 90,
      "chip": "ym2612"
    },
    {
      "channel": 2,
      "note": 100,
      "start": 1.2192,
      "duration": 0.0111,
      "velocity": 90,
      "chip": "ym2612"
    },
    {
      "channel": 4,
      "note": 90,
      "start": 1.2203,
      "duration": 0.0114,
      "velocity": 90,
      "chip": "ym2612"
    },
    {
      "channel": 2,
      "note": 102,
      "start": 1.2305,
      "duration": 0.07,
      "velocity": 90,
      "chip": "ym2612"
    },
    {
      "channel": 3,
      "note": 83,
      "start": 1.2312,
      "duration": 0.1582,
      "velocity": 80,
      "chip": "ym2612"
    },
    {
      "channel": 4,
      "note": 93,
      "start": 1.232,
      "duration": 0.0514,
      "velocity": 90,
      "chip": "ym2612"
    },
    {
      "channel": 4,
      "note": 95,
      "start": 1.2837,
      "duration": 0.071,
      "velocity": 90,
      "chip": "ym2612"
    },
    {
      "channel": 2,
      "note": 100,
      "start": 1.3007,
      "duration": 0.0529,
      "velocity": 90,
      "chip": "ym2612"
    },
    {
      "channel": 2,
      "note": 99,
      "start": 1.3539,
      "duration": 0.054,
      "velocity": 90,
      "chip": "ym2612"
    },
    {
      "channel": 4,
      "note": 97,
      "start": 1.3549,
      "duration": 0.0543,
      "velocity": 90,
      "chip": "ym2612"
    },
    {
      "channel": 2,
      "note": 97,
      "start": 1.4081,
      "duration": 0.0696,
      "velocity": 90,
      "chip": "ym2612"
    },
    {
      "channel": 3,
      "note": 87,
      "start": 1.4088,
      "duration": 0.1578,
      "velocity": 80,
      "chip": "ym2612"
    },
    {
      "channel": 4,
      "note": 99,
      "start": 1.4096,
      "duration": 0.051,
      "velocity": 90,
      "chip": "ym2612"
    },
    {
      "channel": 4,
      "note": 100,
      "start": 1.4609,
      "duration": 0.071,
      "velocity": 90,
      "chip": "ym2612"
    },
    {
      "channel": 2,
      "note": 95,
      "start": 1.478,
      "duration": 0.0529,
      "velocity": 90,
      "chip": "ym2612"
    },
    {
      "channel": 2,
      "note": 93,
      "start": 1.5311,
      "duration": 0.0529,
      "velocity": 90,
      "chip": "ym2612"
    },
    {
      "channel": 4,
      "note": 102,
      "start": 1.5322,
      "duration": 0.0537,
      "velocity": 90,
      "chip": "ym2612"
    },
    {
      "channel": 2,
      "note": 90,
      "start": 1.5847,
      "duration": 0.0703,
      "velocity": 90,
      "chip": "ym2612"
    },
    {
      "channel": 3,
      "note": 81,
      "start": 1.5854,
      "duration": 0.1585,
      "velocity": 80,
      "chip": "ym2612"
    },
    {
      "channel": 4,
      "note": 100,
      "start": 1.5862,
      "duration": 0.0517,
      "velocity": 90,
      "chip": "ym2612"
    },
    {
      "channel": 4,
      "note": 99,
      "start": 1.6381,
      "duration": 0.0719,
      "velocity": 90,
      "chip": "ym2612"
    },
    {
      "channel": 2,
      "note": 93,
      "start": 1.6553,
      "duration": 0.0538,
      "velocity": 90,
      "chip": "ym2612"
    },
    {
      "channel": 2,
      "note": 95,
      "start": 1.7093,
      "duration": 0.052,
      "velocity": 90,
      "chip": "ym2612"
    },
    {
      "channel": 4,
      "note": 97,
      "start": 1.7103,
      "duration": 0.0523,
      "velocity": 90,
      "chip": "ym2612"
    },
    {
      "channel": 2,
      "note": 97,
      "start": 1.7615,
      "duration": 0.0707,
      "velocity": 90,
      "chip": "ym2612"
    },
    {
      "channel": 3,
      "note": 83,
      "start": 1.7622,
      "duration": 0.159,
      "velocity": 80,
      "chip": "ym2612"
    },
    {
      "channel": 4,
      "note": 95,
      "start": 1.763,
      "duration": 0.052,
      "velocity": 90,
      "chip": "ym2612"
    },
    {
      "channel": 4,
      "note": 93,
      "start": 1.8158,
      "duration": 0.0706,
      "velocity": 90,
      "chip": "ym2612"
    },
    {
      "channel": 2,
      "note": 99,
      "start": 1.8324,
      "duration": 0.0529,
      "velocity": 90,
      "chip": "ym2612"
    },
    {
      "channel": 2,
      "note": 100,
      "start": 1.8856,
      "duration": 0.0529,
      "velocity": 90,
      "chip": "ym2612"
    },
    {
      "channel": 4,
      "note": 90,
      "start": 1.8867,
      "duration": 0.0532,
      "velocity": 90,
      "chip": "ym2612"
    },
    {
      "channel": 2,
      "note": 102,
      "start": 1.9388,
      "duration": 0.0706,
      "velocity": 90,
      "chip": "ym2612"
    },
    {
      "channel": 3,
      "note": 80,
      "start": 1.9395,
      "duration": 0.159,
      "velocity": 80,
      "chip": "ym2612"
    },
    {
      "channel": 4,
      "note": 93,
      "start": 1.9402,
      "duration": 0.0531,
      "velocity": 90,
      "chip": "ym2612"
    },
    {
      "channel": 4,
      "note": 95,
      "start": 1.9936,
      "duration": 0.07,
      "velocity": 90,
      "chip": "ym2612"
    },
    {
      "channel": 2,
      "note": 100,
      "start": 2.0096,
      "duration": 0.0529,
      "velocity": 90,
      "chip": "ym2612"
    },
    {
      "channel": 2,
      "note": 99,
      "start": 2.0628,
      "duration": 0.0529,
      "velocity": 90,
      "chip": "ym2612"
    },
    {
      "channel": 4,
      "note": 97,
      "start": 2.0639,
      "duration": 0.0532,
      "velocity": 90,
      "chip": "ym2612"
    },
    {
      "channel": 2,
      "note": 97,
      "start": 2.116,
      "duration": 0.0707,
      "velocity": 90,
      "chip": "ym2612"
    },
    {
      "channel": 3,
      "note": 81,
      "start": 2.1167,
      "duration": 0.1599,
      "velocity": 80,
      "chip": "ym2612"
    },
    {
      "channel": 4,
      "note": 99,
      "start": 2.1174,
      "duration": 0.0521,
      "velocity": 90,
      "chip": "ym2612"
    },
    {
      "channel": 4,
      "note": 100,
      "start": 2.1698,
      "duration": 0.071,
      "velocity": 90,
      "chip": "ym2612"
    },
    {
      "channel": 2,
      "note": 95,
      "start": 2.1869,
      "duration": 0.0529,
      "velocity": 90,
      "chip": "ym2612"
    },
    {
      "channel": 2,
      "note": 93,
      "start": 2.24,
      "duration": 0.0535,
      "velocity": 90,
      "chip": "ym2612"
    },
    {
      "channel": 4,
      "note": 102,
      "start": 2.2411,
      "duration": 0.0547,
      "velocity": 90,
      "chip": "ym2612"
    },
    {
      "channel": 0,
      "note": 54,
      "start": 2.2929,
      "duration": 0.0338,
      "velocity": 100,
      "chip": "ym2612"
    },
    {
      "channel": 2,
      "note": 90,
      "start": 2.2944,
      "duration": 0.0158,
      "velocity": 90,
      "chip": "ym2612"
    },
    {
      "channel": 3,
      "note": 76,
      "start": 2.2954,
      "duration": 0.0321,
      "velocity": 80,
      "chip": "ym2612"
    },
    {
      "channel": 4,
      "note": 100,
      "start": 2.2961,
      "duration": 0.0109,
      "velocity": 90,
      "chip": "ym2612"
    },
    {
      "channel": 4,
      "note": 99,
      "start": 2.3072,
      "duration": 0.0138,
      "velocity": 90,
      "chip": "ym2612"
    },
    {
      "channel": 2,
      "note": 93,
      "start": 2.3105,
      "duration": 0.0095,
      "velocity": 90,
      "chip": "ym2612"
    },
    {
      "channel": 2,
      "note": 95,
      "start": 2.3203,
      "duration": 0.011,
      "velocity": 90,
      "chip": "ym2612"
    },
    {
      "channel": 4,
      "note": 97,
      "start": 2.3213,
      "duration": 0.0113,
      "velocity": 90,
      "chip": "ym2612"
    },
    {
      "channel": 0,
      "note": 54,
      "start": 2.3307,
      "duration": 0.0349,
      "velocity": 100,
      "chip": "ym2612"
    },
    {
      "channel": 2,
      "note": 97,
      "start": 2.3315,
      "duration": 0.0161,
      "velocity": 90,
      "chip": "ym2612"
    },
    {
      "channel": 3,
      "note": 90,
      "start": 2.3322,
      "duration": 0.0342,
      "velocity": 80,
      "chip": "ym2612"
    },
    {
      "channel": 4,
      "note": 95,
      "start": 2.333,
      "duration": 0.0102,
      "velocity": 90,
      "chip": "ym2612"
    },
    {
      "channel": 4,
      "note": 93,
      "start": 2.3453,
      "duration": 0.0143,
      "velocity": 90,
      "chip": "ym2612"
    },
    {
      "channel": 2,
      "note": 99,
      "start": 2.3478,
      "duration": 0.0108,
      "velocity": 90,
      "chip": "ym2612"
    },
    {
      "channel": 2,
      "note": 100,
      "start": 2.3589,
      "duration": 0.011,
      "velocity": 90,
      "chip": "ym2612"
    },
    {
      "channel": 4,
      "note": 90,
      "start": 2.36,
      "duration": 0.0112,
      "velocity": 90,
      "chip": "ym2612"
    },
    {
      "channel": 2,
      "note": 102,
      "start": 2.37,
      "duration": 0.0705,
      "velocity": 90,
      "chip": "ym2612"
    },
    {
      "channel": 3,
      "note": 85,
      "start": 2.3707,
      "duration": 0.1587,
      "velocity": 80,
      "chip": "ym2612"
    },
    {
      "channel": 4,
      "note": 93,
      "start": 2.3715,
      "duration": 0.0519,
      "velocity": 90,
      "chip": "ym2612"
    },
    {
      "channel": 4,
      "note": 95,
      "start": 2.4237,
      "duration": 0.071,
      "velocity": 90,
      "chip": "ym2612"
    },
    {
      "channel": 2,
      "note": 100,
      "start": 2.4408,
      "duration": 0.0529,
      "velocity": 90,
      "chip": "ym2612"
    },
    {
      "channel": 2,
      "note": 99,
      "start": 2.4939,
      "duration": 0.0529,
      "velocity": 90,
      "chip": "ym2612"
    },
    {
      "channel": 4,
      "note": 97,
      "start": 2.495,
      "duration": 0.0543,
      "velocity": 90,
      "chip": "ym2612"
    },
    {
      "channel": 2,
      "note": 97,
      "start": 2.5471,
      "duration": 0.0707,
      "velocity": 90,
      "chip": "ym2612"
    },
    {
      "channel": 3,
      "note": 88,
      "start": 2.5489,
      "duration": 0.1578,
      "velocity": 80,
      "chip": "ym2612"
    },
    {
      "channel": 4,
      "note": 99,
      "start": 2.5496,
      "duration": 0.051,
      "velocity": 90,
      "chip": "ym2612"
    },
    {
      "channel": 4,
      "note": 100,
      "start": 2.6009,
      "duration": 0.071,
      "velocity": 90,
      "chip": "ym2612"
    },
    {
      "channel": 2,
      "note": 95,
      "start": 2.618,
      "duration": 0.0529,
      "velocity": 90,
      "chip": "ym2612"
    },
    {
      "channel": 2,
      "note": 93,
      "start": 2.6711,
      "duration": 0.053,
      "velocity": 90,
      "chip": "ym2612"
    },
    {
      "channel": 4,
      "note": 102,
      "start": 2.6722,
      "duration": 0.0537,
      "velocity": 90,
      "chip": "ym2612"
    },
    {
      "channel": 2,
      "note": 90,
      "start": 2.7247,
      "duration": 0.0703,
      "velocity": 90,
      "chip": "ym2612"
    },
    {
      "channel": 3,
      "note": 83,
      "start": 2.7255,
      "duration": 0.1585,
      "velocity": 80,
      "chip": "ym2612"
    },
    {
      "channel": 4,
      "note": 100,
      "start": 2.7262,
      "duration": 0.0516,
      "velocity": 90,
      "chip": "ym2612"
    },
    {
      "channel": 4,
      "note": 99,
      "start": 2.7782,
      "duration": 0.072,
      "velocity": 90,
      "chip": "ym2612"
    },
    {
      "channel": 2,
      "note": 93,
      "start": 2.7954,
      "duration": 0.0538,
      "velocity": 90,
      "chip": "ym2612"
    },
    {
      "channel": 2,
      "note": 95,
      "start": 2.8495,
      "duration": 0.0519,
      "velocity": 90,
      "chip": "ym2612"
    },
    {
      "channel": 4,
      "note": 97,
      "start": 2.8505,
      "duration": 0.0522,
      "velocity": 90,
      "chip": "ym2612"
    },
    {
      "channel": 2,
      "note": 97,
      "start": 2.9016,
      "duration": 0.0707,
      "velocity": 90,
      "chip": "ym2612"
    },
    {
      "channel": 3,
      "note": 85,
      "start": 2.9023,
      "duration": 0.1589,
      "velocity": 80,
      "chip": "ym2612"
    },
    {
      "channel": 4,
      "note": 95,
      "start": 2.903,
      "duration": 0.0521,
      "velocity": 90,
      "chip": "ym2612"
    },
    {
      "channel": 4,
      "note": 93,
      "start": 2.9558,
      "duration": 0.0706,
      "velocity": 90,
      "chip": "ym2612"
    },
    {
      "channel": 2,
      "note": 99,
      "start": 2.9725,
      "duration": 0.0529,
      "velocity": 90,
      "chip": "ym2612"
    },
    {
      "channel": 2,
      "note": 100,
      "start": 3.0256,
      "duration": 0.053,
      "velocity": 90,
      "chip": "ym2612"
    },
    {
      "channel": 4,
      "note": 90,
      "start": 3.0268,
      "duration": 0.0532,
      "velocity": 90,
      "chip": "ym2612"
    },
    {
      "channel": 2,
      "note": 102,
      "start": 3.0788,
      "duration": 0.0714,
      "velocity": 90,
      "chip": "ym2612"
    },
    {
      "channel": 3,
      "note": 81,
      "start": 3.0795,
      "duration": 0.1589,
      "velocity": 80,
      "chip": "ym2612"
    },
    {
      "channel": 4,
      "note": 93,
      "start": 3.0802,
      "duration": 0.0531,
      "velocity": 90,
      "chip": "ym2612"
    },
    {
      "channel": 4,
      "note": 95,
      "start": 3.1337,
      "duration": 0.07,
      "velocity": 90,
      "chip": "ym2612"
    },
    {
      "channel": 2,
      "note": 100,
      "start": 3.1505,
      "duration": 0.0522,
      "velocity": 90,
      "chip": "ym2612"
    },
    {
      "channel": 2,
      "note": 99,
      "start": 3.2029,
      "duration": 0.0529,
      "velocity": 90,
      "chip": "ym2612"
    },
    {
      "channel": 4,
      "note": 97,
      "start": 3.2039,
      "duration": 0.0533,
      "velocity": 90,
      "chip": "ym2612"
    },
    {
      "channel": 2,
      "note": 97,
      "start": 3.256,
      "duration": 0.0707,
      "velocity": 90,
      "chip": "ym2612"
    },
    {
      "channel": 3,
      "note": 83,
      "start": 3.2567,
      "duration": 0.16,
      "velocity": 80,
      "chip": "ym2612"
    },
    {
      "channel": 4,
      "note": 99,
      "start": 3.2575,
      "duration": 0.052,
      "velocity": 90,
      "chip": "ym2612"
    },
    {
      "channel": 4,
      "note": 100,
      "start": 3.3098,
      "duration": 0.071,
      "velocity": 90,
      "chip": "ym2612"
    },
    {
      "channel": 2,
      "note": 95,
      "start": 3.327,
      "duration": 0.0529,
      "velocity": 90,
      "chip": "ym2612"
    },
    {
      "channel": 2,
      "note": 93,
      "start": 3.3801,
      "duration": 0.0542,
      "velocity": 90,
      "chip": "ym2612"
    },
    {
      "channel": 4,
      "note": 102,
      "start": 3.3811,
      "duration": 0.0553,
      "velocity": 90,
      "chip": "ym2612"
    },
    {
      "channel": 0,
      "note": 54,
      "start": 3.4337,
      "duration": 0.0337,
      "velocity": 100,
      "chip": "ym2612"
    },
    {
      "channel": 2,
      "note": 90,
      "start": 3.4352,
      "duration": 0.0154,
      "velocity": 90,
      "chip": "ym2612"
    },
    {
      "channel": 3,
      "note": 78,
      "start": 3.436,
      "duration": 0.0322,
      "velocity": 80,
      "chip": "ym2612"
    },
    {
      "channel": 4,
      "note": 100,
      "start": 3.4367,
      "duration": 0.0106,
      "velocity": 90,
      "chip": "ym2612"
    },
    {
      "channel": 4,
      "note": 99,
      "start": 3.4476,
      "duration": 0.0141,
      "velocity": 90,
      "chip": "ym2612"
    },
    {
      "channel": 2,
      "note": 93,
      "start": 3.4509,
      "duration": 0.0098,
      "velocity": 90,
      "chip": "ym2612"
    },
    {
      "channel": 2,
      "note": 95,
      "start": 3.4609,
      "duration": 0.0105,
      "velocity": 90,
      "chip": "ym2612"
    },
    {
      "channel": 4,
      "note": 97,
      "start": 3.4619,
      "duration": 0.0109,
      "velocity": 90,
      "chip": "ym2612"
    },
    {
      "channel": 0,
      "note": 54,
      "start": 3.4708,
      "duration": 0.0349,
      "velocity": 100,
      "chip": "ym2612"
    },
    {
      "channel": 2,
      "note": 97,
      "start": 3.4716,
      "duration": 0.0161,
      "velocity": 90,
      "chip": "ym2612"
    },
    {
      "channel": 3,
      "note": 88,
      "start": 3.4724,
      "duration": 0.0341,
      "velocity": 80,
      "chip": "ym2612"
    },
    {
      "channel": 4,
      "note": 95,
      "start": 3.4731,
      "duration": 0.0103,
      "velocity": 90,
      "chip": "ym2612"
    },
    {
      "channel": 4,
      "note": 93,
      "start": 3.4844,
      "duration": 0.0153,
      "velocity": 90,
      "chip": "ym2612"
    },
    {
      "channel": 2,
      "note": 99,
      "start": 3.4879,
      "duration": 0.0108,
      "velocity": 90,
      "chip": "ym2612"
    },
    {
      "channel": 2,
      "note": 100,
      "start": 3.499,
      "duration": 0.0108,
      "velocity": 90,
      "chip": "ym2612"
    },
    {
      "channel": 4,
      "note": 90,
      "start": 3.5001,
      "duration": 0.0111,
      "velocity": 90,
      "chip": "ym2612"
    },
    {
      "channel": 2,
      "note": 102,
      "start": 3.51,
      "duration": 0.0706,
      "velocity": 90,
      "chip": "ym2612"
    },
    {
      "channel": 3,
      "note": 83,
      "start": 3.5108,
      "duration": 0.1587,
      "velocity": 80,
      "chip": "ym2612"
    },
    {
      "channel": 4,
      "note": 93,
      "start": 3.5115,
      "duration": 0.0519,
      "velocity": 90,
      "chip": "ym2612"
    },
    {
      "channel": 4,
      "note": 95,
      "start": 3.5637,
      "duration": 0.071,
      "velocity": 90,
      "chip": "ym2612"
    },
    {
      "channel": 2,
      "note": 100,
      "start": 3.5808,
      "duration": 0.0529,
      "velocity": 90,
      "chip": "ym2612"
    },
    {
      "channel": 2,
      "note": 99,
      "start": 3.634,
      "duration": 0.0529,
      "velocity": 90,
      "chip": "ym2612"
    },
    {
      "channel": 4,
      "note": 97,
      "start": 3.635,
      "duration": 0.0532,
      "velocity": 90,
      "chip": "ym2612"
    },
    {
      "channel": 2,
      "note": 97,
      "start": 3.6871,
      "duration": 0.0707,
      "velocity": 90,
      "chip": "ym2612"
    },
    {
      "channel": 3,
      "note": 87,
      "start": 3.6879,
      "duration": 0.1588,
      "velocity": 80,
      "chip": "ym2612"
    },
    {
      "channel": 4,
      "note": 99,
      "start": 3.6896,
      "duration": 0.0511,
      "velocity": 90,
      "chip": "ym2612"
    },
    {
      "channel": 4,
      "note": 100,
      "start": 3.7411,
      "duration": 0.0709,
      "velocity": 90,
      "chip": "ym2612"
    },
    {
      "channel": 2,
      "note": 95,
      "start": 3.7581,
      "duration": 0.0529,
      "velocity": 90,
      "chip": "ym2612"
    },
    {
      "channel": 2,
      "note": 93,
      "start": 3.8112,
      "duration": 0.0529,
      "velocity": 90,
      "chip": "ym2612"
    },
    {
      "channel": 4,
      "note": 102,
      "start": 3.8123,
      "duration": 0.0536,
      "velocity": 90,
      "chip": "ym2612"
    },
    {
      "channel": 2,
      "note": 90,
      "start": 3.8647,
      "duration": 0.0704,
      "velocity": 90,
      "chip": "ym2612"
    },
    {
      "channel": 3,
      "note": 81,
      "start": 3.8655,
      "duration": 0.1588,
      "velocity": 80,
      "chip": "ym2612"
    },
    {
      "channel": 4,
      "note": 100,
      "start": 3.8662,
      "duration": 0.0517,
      "velocity": 90,
      "chip": "ym2612"
    },
    {
      "channel": 4,
      "note": 99,
      "start": 3.9182,
      "duration": 0.0721,
      "velocity": 90,
      "chip": "ym2612"
    },
    {
      "channel": 2,
      "note": 93,
      "start": 3.9354,
      "duration": 0.0528,
      "velocity": 90,
      "chip": "ym2612"
    },
    {
      "channel": 2,
      "note": 95,
      "start": 3.9884,
      "duration": 0.0529,
      "velocity": 90,
      "chip": "ym2612"
    },
    {
      "channel": 4,
      "note": 97,
      "start": 3.9905,
      "duration": 0.0522,
      "velocity": 90,
      "chip": "ym2612"
    },
    {
      "channel": 2,
      "note": 97,
      "start": 4.0416,
      "duration": 0.0707,
      "velocity": 90,
      "chip": "ym2612"
    },
    {
      "channel": 3,
      "note": 83,
      "start": 4.0423,
      "duration": 0.1589,
      "velocity": 80,
      "chip": "ym2612"
    },
    {
      "channel": 4,
      "note": 95,
      "start": 4.0431,
      "duration": 0.0521,
      "velocity": 90,
      "chip": "ym2612"
    },
    {
      "channel": 4,
      "note": 93,
      "start": 4.0959,
      "duration": 0.0705,
      "velocity": 90,
      "chip": "ym2612"
    },
    {
      "channel": 2,
      "note": 99,
      "start": 4.1126,
      "duration": 0.0529,
      "velocity": 90,
      "chip": "ym2612"
    },
    {
      "channel": 2,
      "note": 100,
      "start": 4.1657,
      "duration": 0.0529,
      "velocity": 90,
      "chip": "ym2612"
    },
    {
      "channel": 4,
      "note": 90,
      "start": 4.1668,
      "duration": 0.0532,
      "velocity": 90,
      "chip": "ym2612"
    },
    {
      "channel": 2,
      "note": 102,
      "start": 4.2188,
      "duration": 0.0167,
      "velocity": 90,
      "chip": "ym2612"
    },
    {
      "channel": 3,
      "note": 80,
      "start": 4.2195,
      "duration": 0.0335,
      "velocity": 80,
      "chip": "ym2612"
    },
    {
      "channel": 4,
      "note": 93,
      "start": 4.2202,
      "duration": 0.0107,
      "velocity": 90,
      "chip": "ym2612"
    },
    {
      "channel": 4,
      "note": 95,
      "start": 4.2323,
      "duration": 0.014,
      "velocity": 90,
      "chip": "ym2612"
    },
    {
      "channel": 2,
      "note": 100,
      "start": 4.2358,
      "duration": 0.0095,
      "velocity": 90,
      "chip": "ym2612"
    },
    {
      "channel": 2,
      "note": 99,
      "start": 4.2455,
      "duration": 0.0166,
      "velocity": 90,
      "chip": "ym2612"
    },
    {
      "channel": 4,
      "note": 97,
      "start": 4.2466,
      "duration": 0.0169,
      "velocity": 90,
      "chip": "ym2612"
    },
    {
      "channel": 0,
      "note": 54,
      "start": 4.2577,
      "duration": 0.0187,
      "velocity": 100,
      "chip": "ym2612"
    },
    {
      "channel": 1,
      "note": 66,
      "start": 4.2617,
      "duration": 0.0149,
      "velocity": 98,
      "chip": "ym2612"
    },
    {
      "channel": 2,
      "note": 97,
      "start": 4.2623,
      "duration": 0.0146,
      "velocity": 90,
      "chip": "ym2612"
    },
    {
      "channel": 3,
      "note": 81,
      "start": 4.263,
      "duration": 0.0318,
      "velocity": 80,
      "chip": "ym2612"
    },
    {
      "channel": 4,
      "note": 99,
      "start": 4.2637,
      "duration": 0.0099,
      "velocity": 90,
      "chip": "ym2612"
    },
    {
      "channel": 4,
      "note": 100,
      "start": 4.2739,
      "duration": 0.0141,
      "velocity": 90,
      "chip": "ym2612"
    },
    {
      "channel": 2,
      "note": 95,
      "start": 4.2772,
      "duration": 0.0099,
      "velocity": 90,
      "chip": "ym2612"
    },
    {
      "channel": 0,
      "note": 54,
      "start": 4.2801,
      "duration": 0.0138,
      "velocity": 100,
      "chip": "ym2612"
    },
    {
      "channel": 1,
      "note": 66,
      "start": 4.2807,
      "duration": 0.0136,
      "velocity": 98,
      "chip": "ym2612"
    },
    {
      "channel": 2,
      "note": 93,
      "start": 4.2873,
      "duration": 0.0123,
      "velocity": 90,
      "chip": "ym2612"
    },
    {
      "channel": 4,
      "note": 102,
      "start": 4.2883,
      "duration": 0.0223,
      "velocity": 90,
      "chip": "ym2612"
    },
    {
      "channel": 0,
      "note": 54,
      "start": 4.2976,
      "duration": 0.0402,
      "velocity": 100,
      "chip": "ym2612"
    },
    {
      "channel": 1,
      "note": 66,
      "start": 4.2992,
      "duration": 0.0389,
      "velocity": 98,
      "chip": "ym2612"
    },
    {
      "channel": 2,
      "note": 88,
      "start": 4.304,
      "duration": 0.484,
      "velocity": 62,
      "chip": "ym2612"
    },
    {
      "channel": 3,
      "note": 76,
      "start": 4.3102,
      "duration": 0.0284,
      "velocity": 125,
      "chip": "ym2612"
    },
    {
      "channel": 4,
      "note": 100,
      "start": 4.311,
      "duration": 0.0098,
      "velocity": 90,
      "chip": "ym2612"
    },
    {
      "channel": 4,
      "note": 99,
      "start": 4.3211,
      "duration": 0.0117,
      "velocity": 90,
      "chip": "ym2612"
    },
    {
      "channel": 4,
      "note": 97,
      "start": 4.333,
      "duration": 0.0116,
      "velocity": 90,
      "chip": "ym2612"
    },
    {
      "channel": 0,
      "note": 54,
      "start": 4.3428,
      "duration": 0.063,
      "velocity": 100,
      "chip": "ym2612"
    },
    {
      "channel": 1,
      "note": 66,
      "start": 4.3434,
      "duration": 0.1513,
      "velocity": 98,
      "chip": "ym2612"
    },
    {
      "channel": 3,
      "note": 73,
      "start": 4.3442,
      "duration": 0.1511,
      "velocity": 125,
      "chip": "ym2612"
    },
    {
      "channel": 4,
      "note": 95,
      "start": 4.3449,
      "duration": 0.0442,
      "velocity": 90,
      "chip": "ym2612"
    },
    {
      "channel": 4,
      "note": 93,
      "start": 4.3962,
      "duration": 0.4302,
      "velocity": 62,
      "chip": "ym2612"
    },
    {
      "channel": 0,
      "note": 54,
      "start": 4.4237,
      "duration": 0.0707,
      "velocity": 100,
      "chip": "ym2612"
    },
    {
      "channel": 0,
      "note": 54,
      "start": 4.5123,
      "duration": 0.0244,
      "velocity": 100,
      "chip": "ym2612"
    },
    {
      "channel": 1,
      "note": 61,
      "start": 4.5129,
      "duration": 0.0061,
      "velocity": 98,
      "chip": "ym2612"
    },
    {
      "channel": 3,
      "note": 88,
      "start": 4.5138,
      "duration": 0.0239,
      "velocity": 125,
      "chip": "ym2612"
    },
    {
      "channel": 0,
      "note": 54,
      "start": 4.5416,
      "duration": 0.0127,
      "velocity": 100,
      "chip": "ym2612"
    },
    {
      "channel": 1,
      "note": 66,
      "start": 4.5421,
      "duration": 0.0259,
      "velocity": 98,
      "chip": "ym2612"
    },
    {
      "channel": 3,
      "note": 83,
      "start": 4.544,
      "duration": 0.0246,
      "velocity": 125,
      "chip": "ym2612"
    },
    {
      "channel": 0,
      "note": 54,
      "start": 4.5571,
      "duration": 0.0106,
      "velocity": 100,
      "chip": "ym2612"
    },
    {
      "channel": 0,
      "note": 54,
      "start": 4.5715,
      "duration": 0.0259,
      "velocity": 100,
      "chip": "ym2612"
    },
    {
      "channel": 3,
      "note": 85,
      "start": 4.5728,
      "duration": 0.0256,
      "velocity": 125,
      "chip": "ym2612"
    },
    {
      "channel": 0,
      "note": 54,
      "start": 4.6119,
      "duration": 0.0689,
      "velocity": 100,
      "chip": "ym2612"
    },
    {
      "channel": 1,
      "note": 66,
      "start": 4.6124,
      "duration": 0.1572,
      "velocity": 98,
      "chip": "ym2612"
    },
    {
      "channel": 3,
      "note": 81,
      "start": 4.6133,
      "duration": 0.1569,
      "velocity": 125,
      "chip": "ym2612"
    },
    {
      "channel": 0,
      "note": 54,
      "start": 4.6987,
      "duration": 0.0707,
      "velocity": 100,
      "chip": "ym2612"
    },
    {
      "channel": 0,
      "note": 54,
      "start": 4.7873,
      "duration": 0.026,
      "velocity": 100,
      "chip": "ym2612"
    },
    {
      "channel": 2,
      "note": 88,
      "start": 4.7882,
      "duration": 0.02,
      "velocity": 62,
      "chip": "ym2612"
    },
    {
      "channel": 3,
      "note": 83,
      "start": 4.7888,
      "duration": 0.0253,
      "velocity": 125,
      "chip": "ym2612"
    },
    {
      "channel": 2,
      "note": 88,
      "start": 4.8085,
      "duration": 0.0205,
      "velocity": 62,
      "chip": "ym2612"
    },
    {
      "channel": 0,
      "note": 52,
      "start": 4.8166,
      "duration": 0.0118,
      "velocity": 100,
      "chip": "ym2612"
    },
    {
      "channel": 1,
      "note": 64,
      "start": 4.8174,
      "duration": 0.0113,
      "velocity": 98,
      "chip": "ym2612"
    },
    {
      "channel": 3,
      "note": 80,
      "start": 4.8183,
      "duration": 0.0247,
      "velocity": 125,
      "chip": "ym2612"
    },
    {
      "channel": 4,
      "note": 88,
      "start": 4.8267,
      "duration": 0.0224,
      "velocity": 62,
      "chip": "ym2612"
    },
    {
      "channel": 2,
      "note": 88,
      "start": 4.8292,
      "duration": 0.0188,
      "velocity": 62,
      "chip": "ym2612"
    },
    {
      "channel": 0,
      "note": 52,
      "start": 4.8316,
      "duration": 0.0105,
      "velocity": 100,
      "chip": "ym2612"
    },
    {
      "channel": 1,
      "note": 64,
      "start": 4.8321,
      "duration": 0.0103,
      "velocity": 98,
      "chip": "ym2612"
    },
    {
      "channel": 0,
      "note": 52,
      "start": 4.8461,
      "duration": 0.0265,
      "velocity": 100,
      "chip": "ym2612"
    },
    {
      "channel": 1,
      "note": 64,
      "start": 4.8467,
      "duration": 0.0262,
      "velocity": 98,
      "chip": "ym2612"
    },
    {
      "channel": 2,
      "note": 90,
      "start": 4.8483,
      "duration": 0.5452,
      "velocity": 62,
      "chip": "ym2612"
    },
    {
      "channel": 4,
      "note": 88,
      "start": 4.8494,
      "duration": 0.0187,
      "velocity": 62,
      "chip": "ym2612"
    },
    {
      "channel": 4,
      "note": 88,
      "start": 4.8684,
      "duration": 0.0703,
      "velocity": 62,
      "chip": "ym2612"
    },
    {
      "channel": 0,
      "note": 52,
      "start": 4.8849,
      "duration": 0.0705,
      "velocity": 100,
      "chip": "ym2612"
    },
    {
      "channel": 1,
      "note": 64,
      "start": 4.8854,
      "duration": 0.1589,
      "velocity": 98,
      "chip": "ym2612"
    },
    {
      "channel": 4,
      "note": 88,
      "start": 4.939,
      "duration": 0.5462,
      "velocity": 62,
      "chip": "ym2612"
    },
    {
      "channel": 0,
      "note": 52,
      "start": 4.9733,
      "duration": 0.0707,
      "velocity": 100,
      "chip": "ym2612"
    },
    {
      "channel": 0,
      "note": 52,
      "start": 5.0619,
      "duration": 0.0244,
      "velocity": 100,
      "chip": "ym2612"
    },
    {
      "channel": 1,
      "note": 61,
      "start": 5.0625,
      "duration": 0.0057,
      "velocity": 98,
      "chip": "ym2612"
    },
    {
      "channel": 0,
      "note": 52,
      "start": 5.0894,
      "duration": 0.0122,
      "velocity": 100,
      "chip": "ym2612"
    },
    {
      "channel": 1,
      "note": 64,
      "start": 5.09,
      "duration": 0.0255,
      "velocity": 98,
      "chip": "ym2612"
    },
    {
      "channel": 0,
      "note": 52,
      "start": 5.1045,
      "duration": 0.0107,
      "velocity": 100,
      "chip": "ym2612"
    },
    {
      "channel": 0,
      "note": 52,
      "start": 5.1192,
      "duration": 0.0247,
      "velocity": 100,
      "chip": "ym2612"
    },
    {
      "channel": 0,
      "note": 52,
      "start": 5.1587,
      "duration": 0.0698,
      "velocity": 100,
      "chip": "ym2612"
    },
    {
      "channel": 1,
      "note": 64,
      "start": 5.1592,
      "duration": 0.1582,
      "velocity": 98,
      "chip": "ym2612"
    },
    {
      "channel": 0,
      "note": 52,
      "start": 5.2465,
      "duration": 0.0706,
      "velocity": 100,
      "chip": "ym2612"
    },
    {
      "channel": 0,
      "note": 52,
      "start": 5.335,
      "duration": 0.0258,
      "velocity": 100,
      "chip": "ym2612"
    },
    {
      "channel": 0,
      "note": 52,
      "start": 5.3641,
      "duration": 0.0112,
      "velocity": 100,
      "chip": "ym2612"
    },
    {
      "channel": 1,
      "note": 64,
      "start": 5.3648,
      "duration": 0.0108,
      "velocity": 98,
      "chip": "ym2612"
    },
    {
      "channel": 0,
      "note": 52,
      "start": 5.3782,
      "duration": 0.0109,
      "velocity": 100,
      "chip": "ym2612"
    },
    {
      "channel": 1,
      "note": 64,
      "start": 5.3787,
      "duration": 0.0107,
      "velocity": 98,
      "chip": "ym2612"
    },
    {
      "channel": 0,
      "note": 52,
      "start": 5.3926,
      "duration": 0.0319,
      "velocity": 100,
      "chip": "ym2612"
    },
    {
      "channel": 1,
      "note": 64,
      "start": 5.3931,
      "duration": 0.0317,
      "velocity": 98,
      "chip": "ym2612"
    },
    {
      "channel": 2,
      "note": 92,
      "start": 5.3937,
      "duration": 0.4883,
      "velocity": 62,
      "chip": "ym2612"
    },
    {
      "channel": 3,
      "note": 78,
      "start": 5.4008,
      "duration": 0.0245,
      "velocity": 125,
      "chip": "ym2612"
    },
    {
      "channel": 0,
      "note": 52,
      "start": 5.4314,
      "duration": 0.0705,
      "velocity": 100,
      "chip": "ym2612"
    },
    {
      "channel": 1,
      "note": 64,
      "start": 5.432,
      "duration": 0.159,
      "velocity": 98,
      "chip": "ym2612"
    },
    {
      "channel": 3,
      "note": 73,
      "start": 5.4328,
      "duration": 0.1587,
      "velocity": 125,
      "chip": "ym2612"
    },
    {
      "channel": 4,
      "note": 90,
      "start": 5.4856,
      "duration": 0.4351,
      "velocity": 62,
      "chip": "ym2612"
    },
    {
      "channel": 0,
      "note": 52,
      "start": 5.5199,
      "duration": 0.0708,
      "velocity": 100,
      "chip": "ym2612"
    },
    {
      "channel": 0,
      "note": 52,
      "start": 5.6085,
      "duration": 0.0244,
      "velocity": 100,
      "chip": "ym2612"
    },
    {
      "channel": 1,
      "note": 61,
      "start": 5.609,
      "duration": 0.0059,
      "velocity": 98,
      "chip": "ym2612"
    },
    {
      "channel": 3,
      "note": 88,
      "start": 5.6099,
      "duration": 0.0239,
      "velocity": 125,
      "chip": "ym2612"
    },
    {
      "channel": 0,
      "note": 52,
      "start": 5.636,
      "duration": 0.0123,
      "velocity": 100,
      "chip": "ym2612"
    },
    {
      "channel": 1,
      "note": 64,
      "start": 5.6365,
      "duration": 0.0257,
      "velocity": 98,
      "chip": "ym2612"
    },
    {
      "channel": 3,
      "note": 83,
      "start": 5.6374,
      "duration": 0.0255,
      "velocity": 125,
      "chip": "ym2612"
    },
    {
      "channel": 0,
      "note": 52,
      "start": 5.6514,
      "duration": 0.0105,
      "velocity": 100,
      "chip": "ym2612"
    },
    {
      "channel": 0,
      "note": 52,
      "start": 5.6659,
      "duration": 0.0245,
      "velocity": 100,
      "chip": "ym2612"
    },
    {
      "channel": 3,
      "note": 85,
      "start": 5.6672,
      "duration": 0.0242,
      "velocity": 125,
      "chip": "ym2612"
    },
    {
      "channel": 0,
      "note": 52,
      "start": 5.7054,
      "duration": 0.0695,
      "velocity": 100,
      "chip": "ym2612"
    },
    {
      "channel": 1,
      "note": 64,
      "start": 5.7059,
      "duration": 0.1578,
      "velocity": 98,
      "chip": "ym2612"
    },
    {
      "channel": 3,
      "note": 81,
      "start": 5.7068,
      "duration": 0.1576,
      "velocity": 125,
      "chip": "ym2612"
    },
    {
      "channel": 0,
      "note": 52,
      "start": 5.7928,
      "duration": 0.0707,
      "velocity": 100,
      "chip": "ym2612"
    },
    {
      "channel": 0,
      "note": 52,
      "start": 5.8814,
      "duration": 0.0261,
      "velocity": 100,
      "chip": "ym2612"
    },
    {
      "channel": 2,
      "note": 92,
      "start": 5.8823,
      "duration": 0.0201,
      "velocity": 62,
      "chip": "ym2612"
    },
    {
      "channel": 3,
      "note": 83,
      "start": 5.8829,
      "duration": 0.0253,
      "velocity": 125,
      "chip": "ym2612"
    },
    {
      "channel": 2,
      "note": 92,
      "start": 5.9026,
      "duration": 0.0206,
      "velocity": 62,
      "chip": "ym2612"
    },
    {
      "channel": 0,
      "note": 54,
      "start": 5.9106,
      "duration": 0.012,
      "velocity": 100,
      "chip": "ym2612"
    },
    {
      "channel": 1,
      "note": 66,
      "start": 5.9115,
      "duration": 0.0115,
      "velocity": 98,
      "chip": "ym2612"
    },
    {
      "channel": 3,
      "note": 80,
      "start": 5.9124,
      "duration": 0.0248,
      "velocity": 125,
      "chip": "ym2612"
    },
    {
      "channel": 4,
      "note": 92,
      "start": 5.921,
      "duration": 0.0212,
      "velocity": 62,
      "chip": "ym2612"
    },
    {
      "channel": 2,
      "note": 92,
      "start": 5.9235,
      "duration": 0.0177,
      "velocity": 62,
      "chip": "ym2612"
    },
    {
      "channel": 0,
      "note": 54,
      "start": 5.9258,
      "duration": 0.0105,
      "velocity": 100,
      "chip": "ym2612"
    },
    {
      "channel": 1,
      "note": 66,
      "start": 5.9263,
      "duration": 0.0102,
      "velocity": 98,
      "chip": "ym2612"
    },
    {
      "channel": 0,
      "note": 54,
      "start": 5.9402,
      "duration": 0.0268,
      "velocity": 100,
      "chip": "ym2612"
    },
    {
      "channel": 1,
      "note": 66,
      "start": 5.9408,
      "duration": 0.0265,
      "velocity": 98,
      "chip": "ym2612"
    },
    {
      "channel": 2,
      "note": 93,
      "start": 5.9414,
      "duration": 0.2159,
      "velocity": 62,
      "chip": "ym2612"
    },
    {
      "channel": 4,
      "note": 92,
      "start": 5.9425,
      "duration": 0.02,
      "velocity": 62,
      "chip": "ym2612"
    },
    {
      "channel": 4,
      "note": 92,
      "start": 5.9627,
      "duration": 0.0704,
      "velocity": 62,
      "chip": "ym2612"
    },
    {
      "channel": 0,
      "note": 54,
      "start": 5.9793,
      "duration": 0.0706,
      "velocity": 100,
      "chip": "ym2612"
    },
    {
      "channel": 1,
      "note": 66,
      "start": 5.9798,
      "duration": 0.1598,
      "velocity": 98,
      "chip": "ym2612"
    },
    {
      "channel": 4,
      "note": 92,
      "start": 6.0334,
      "duration": 0.1595,
      "velocity": 62,
      "chip": "ym2612"
    },
    {
      "channel": 0,
      "note": 54,
      "start": 6.0678,
      "duration": 0.0715,
      "velocity": 100,
      "chip": "ym2612"
    },
    {
      "channel": 0,
      "note": 54,
      "start": 6.1563,
      "duration": 0.0244,
      "velocity": 100,
      "chip": "ym2612"
    },
    {
      "channel": 1,
      "note": 61,
      "start": 6.1569,
      "duration": 0.0059,
      "velocity": 98,
      "chip": "ym2612"
    },
    {
      "channel": 2,
      "note": 90,
      "start": 6.1575,
      "duration": 0.0569,
      "velocity": 62,
      "chip": "ym2612"
    },
    {
      "channel": 0,
      "note": 54,
      "start": 6.1838,
      "duration": 0.0115,
      "velocity": 100,
      "chip": "ym2612"
    },
    {
      "channel": 1,
      "note": 66,
      "start": 6.1843,
      "duration": 0.0254,
      "velocity": 98,
      "chip": "ym2612"
    },
    {
      "channel": 4,
      "note": 93,
      "start": 6.1933,
      "duration": 0.1127,
      "velocity": 62,
      "chip": "ym2612"
    },
    {
      "channel": 0,
      "note": 54,
      "start": 6.1991,
      "duration": 0.0104,
      "velocity": 100,
      "chip": "ym2612"
    },
    {
      "channel": 0,
      "note": 54,
      "start": 6.2137,
      "duration": 0.0241,
      "velocity": 100,
      "chip": "ym2612"
    },
    {
      "channel": 2,
      "note": 95,
      "start": 6.2146,
      "duration": 0.2152,
      "velocity": 62,
      "chip": "ym2612"
    },
    {
      "channel": 0,
      "note": 54,
      "start": 6.2521,
      "duration": 0.0705,
      "velocity": 100,
      "chip": "ym2612"
    },
    {
      "channel": 1,
      "note": 66,
      "start": 6.2537,
      "duration": 0.1579,
      "velocity": 98,
      "chip": "ym2612"
    },
    {
      "channel": 4,
      "note": 90,
      "start": 6.3063,
      "duration": 0.1627,
      "velocity": 62,
      "chip": "ym2612"
    },
    {
      "channel": 0,
      "note": 54,
      "start": 6.3405,
      "duration": 0.0707,
      "velocity": 100,
      "chip": "ym2612"
    },
    {
      "channel": 0,
      "note": 54,
      "start": 6.4292,
      "duration": 0.0252,
      "velocity": 100,
      "chip": "ym2612"
    },
    {
      "channel": 2,
      "note": 100,
      "start": 6.4301,
      "duration": 0.0588,
      "velocity": 62,
      "chip": "ym2612"
    },
    {
      "channel": 0,
      "note": 54,
      "start": 6.4595,
      "duration": 0.0115,
      "velocity": 100,
      "chip": "ym2612"
    },
    {
      "channel": 1,
      "note": 66,
      "start": 6.4603,
      "duration": 0.011,
      "velocity": 98,
      "chip": "ym2612"
    },
    {
      "channel": 4,
      "note": 95,
      "start": 6.4693,
      "duration": 0.1114,
      "velocity": 62,
      "chip": "ym2612"
    },
    {
      "channel": 0,
      "note": 54,
      "start": 6.4739,
      "duration": 0.0107,
      "velocity": 100,
      "chip": "ym2612"
    },
    {
      "channel": 1,
      "note": 66,
      "start": 6.4744,
      "duration": 0.0105,
      "velocity": 98,
      "chip": "ym2612"
    },
    {
      "channel": 0,
      "note": 54,
      "start": 6.488,
      "duration": 0.0319,
      "velocity": 100,
      "chip": "ym2612"
    },
    {
      "channel": 1,
      "note": 66,
      "start": 6.4886,
      "duration": 0.0316,
      "velocity": 98,
      "chip": "ym2612"
    },
    {
      "channel": 2,
      "note": 102,
      "start": 6.4892,
      "duration": 0.4894,
      "velocity": 62,
      "chip": "ym2612"
    },
    {
      "channel": 3,
      "note": 78,
      "start": 6.4965,
      "duration": 0.0242,
      "velocity": 125,
      "chip": "ym2612"
    },
    {
      "channel": 0,
      "note": 54,
      "start": 6.5286,
      "duration": 0.0688,
      "velocity": 100,
      "chip": "ym2612"
    },
    {
      "channel": 1,
      "note": 66,
      "start": 6.5291,
      "duration": 0.1582,
      "velocity": 98,
      "chip": "ym2612"
    },
    {
      "channel": 3,
      "note": 73,
      "start": 6.53,
      "duration": 0.1579,
      "velocity": 125,
      "chip": "ym2612"
    },
    {
      "channel": 4,
      "note": 100,
      "start": 6.5811,
      "duration": 0.4363,
      "velocity": 62,
      "chip": "ym2612"
    },
    {
      "channel": 0,
      "note": 54,
      "start": 6.6154,
      "duration": 0.0707,
      "velocity": 100,
      "chip": "ym2612"
    },
    {
      "channel": 0,
      "note": 54,
      "start": 6.7045,
      "duration": 0.0244,
      "velocity": 100,
      "chip": "ym2612"
    },
    {
      "channel": 1,
      "note": 61,
      "start": 6.705,
      "duration": 0.0059,
      "velocity": 98,
      "chip": "ym2612"
    },
    {
      "channel": 3,
      "note": 88,
      "start": 6.7059,
      "duration": 0.0239,
      "velocity": 125,
      "chip": "ym2612"
    },
    {
      "channel": 0,
      "note": 54,
      "start": 6.7338,
      "duration": 0.0111,
      "velocity": 100,
      "chip": "ym2612"
    },
    {
      "channel": 1,
      "note": 66,
      "start": 6.7343,
      "duration": 0.0255,
      "velocity": 98,
      "chip": "ym2612"
    },
    {
      "channel": 3,
      "note": 83,
      "start": 6.7352,
      "duration": 0.0253,
      "velocity": 125,
      "chip": "ym2612"
    },
    {
      "channel": 0,
      "note": 54,
      "start": 6.748,
      "duration": 0.0116,
      "velocity": 100,
      "chip": "ym2612"
    },
    {
      "channel": 0,
      "note": 54,
      "start": 6.7626,
      "duration": 0.0246,
      "velocity": 100,
      "chip": "ym2612"
    },
    {
      "channel": 3,
      "note": 85,
      "start": 6.7639,
      "duration": 0.0243,
      "velocity": 125,
      "chip": "ym2612"
    },
    {
      "channel": 0,
      "note": 54,
      "start": 6.8036,
      "duration": 0.0678,
      "velocity": 100,
      "chip": "ym2612"
    },
    {
      "channel": 1,
      "note": 66,
      "start": 6.8041,
      "duration": 0.1561,
      "velocity": 98,
      "chip": "ym2612"
    },
    {
      "channel": 3,
      "note": 81,
      "start": 6.805,
      "duration": 0.1559,
      "velocity": 125,
      "chip": "ym2612"
    },
    {
      "channel": 0,
      "note": 54,
      "start": 6.8893,
      "duration": 0.0707,
      "velocity": 100,
      "chip": "ym2612"
    },
    {
      "channel": 0,
      "note": 54,
      "start": 6.9779,
      "duration": 0.0261,
      "velocity": 100,
      "chip": "ym2612"
    },
    {
      "channel": 2,
      "note": 102,
      "start": 6.9788,
      "duration": 0.019,
      "velocity": 62,
      "chip": "ym2612"
    },
    {
      "channel": 3,
      "note": 83,
      "start": 6.9795,
      "duration": 0.0253,
      "velocity": 125,
      "chip": "ym2612"
    },
    {
      "channel": 2,
      "note": 102,
      "start": 6.9992,
      "duration": 0.0208,
      "velocity": 62,
      "chip": "ym2612"
    },
    {
      "channel": 0,
      "note": 52,
      "start": 7.0071,
      "duration": 0.0123,
      "velocity": 100,
      "chip": "ym2612"
    },
    {
      "channel": 1,
      "note": 64,
      "start": 7.0082,
      "duration": 0.0115,
      "velocity": 98,
      "chip": "ym2612"
    },
    {
      "channel": 3,
      "note": 80,
      "start": 7.009,
      "duration": 0.0249,
      "velocity": 125,
      "chip": "ym2612"
    },
    {
      "channel": 4,
      "note": 102,
      "start": 7.0177,
      "duration": 0.021,
      "velocity": 62,
      "chip": "ym2612"
    },
    {
      "channel": 2,
      "note": 102,
      "start": 7.0202,
      "duration": 0.0175,
      "velocity": 62,
      "chip": "ym2612"
    },
    {
      "channel": 0,
      "note": 52,
      "start": 7.0225,
      "duration": 0.0106,
      "velocity": 100,
      "chip": "ym2612"
    },
    {
      "channel": 1,
      "note": 64,
      "start": 7.0231,
      "duration": 0.0103,
      "velocity": 98,
      "chip": "ym2612"
    },
    {
      "channel": 0,
      "note": 52,
      "start": 7.0368,
      "duration": 0.0267,
      "velocity": 100,
      "chip": "ym2612"
    },
    {
      "channel": 1,
      "note": 64,
      "start": 7.0374,
      "duration": 0.0264,
      "velocity": 98,
      "chip": "ym2612"
    },
    {
      "channel": 2,
      "note": 100,
      "start": 7.038,
      "duration": 0.5473,
      "velocity": 62,
      "chip": "ym2612"
    },
    {
      "channel": 4,
      "note": 102,
      "start": 7.0391,
      "duration": 0.0199,
      "velocity": 62,
      "chip": "ym2612"
    },
    {
      "channel": 4,
      "note": 102,
      "start": 7.0593,
      "duration": 0.0704,
      "velocity": 62,
      "chip": "ym2612"
    },
    {
      "channel": 0,
      "note": 52,
      "start": 7.0758,
      "duration": 0.0705,
      "velocity": 100,
      "chip": "ym2612"
    },
    {
      "channel": 1,
      "note": 64,
      "start": 7.0763,
      "duration": 0.1589,
      "velocity": 98,
      "chip": "ym2612"
    },
    {
      "channel": 4,
      "note": 102,
      "start": 7.13,
      "duration": 0.547,
      "velocity": 62,
      "chip": "ym2612"
    },
    {
      "channel": 0,
      "note": 52,
      "start": 7.1643,
      "duration": 0.0707,
      "velocity": 100,
      "chip": "ym2612"
    },
    {
      "channel": 0,
      "note": 52,
      "start": 7.2539,
      "duration": 0.0246,
      "velocity": 100,
      "chip": "ym2612"
    },
    {
      "channel": 1,
      "note": 61,
      "start": 7.2545,
      "duration": 0.0059,
      "velocity": 98,
      "chip": "ym2612"
    },
    {
      "channel": 0,
      "note": 52,
      "start": 7.2816,
      "duration": 0.0109,
      "velocity": 100,
      "chip": "ym2612"
    },
    {
      "channel": 1,
      "note": 64,
      "start": 7.2822,
      "duration": 0.0255,
      "velocity": 98,
      "chip": "ym2612"
    },
    {
      "channel": 0,
      "note": 52,
      "start": 7.2954,
      "duration": 0.012,
      "velocity": 100,
      "chip": "ym2612"
    },
    {
      "channel": 0,
      "note": 52,
      "start": 7.312,
      "duration": 0.0245,
      "velocity": 100,
      "chip": "ym2612"
    },
    {
      "channel": 0,
      "note": 52,
      "start": 7.3501,
      "duration": 0.0705,
      "velocity": 100,
      "chip": "ym2612"
    },
    {
      "channel": 1,
      "note": 64,
      "start": 7.3507,
      "duration": 0.1589,
      "velocity": 98,
      "chip": "ym2612"
    },
    {
      "channel": 0,
      "note": 52,
      "start": 7.4386,
      "duration": 0.0707,
      "velocity": 100,
      "chip": "ym2612"
    },
    {
      "channel": 0,
      "note": 52,
      "start": 7.5272,
      "duration": 0.0256,
      "velocity": 100,
      "chip": "ym2612"
    },
    {
      "channel": 0,
      "note": 52,
      "start": 7.5559,
      "duration": 0.0112,
      "velocity": 100,
      "chip": "ym2612"
    },
    {
      "channel": 1,
      "note": 64,
      "start": 7.5566,
      "duration": 0.0108,
      "velocity": 98,
      "chip": "ym2612"
    },
    {
      "channel": 0,
      "note": 52,
      "start": 7.57,
      "duration": 0.011,
      "velocity": 100,
      "chip": "ym2612"
    },
    {
      "channel": 1,
      "note": 64,
      "start": 7.5706,
      "duration": 0.0107,
      "velocity": 98,
      "chip": "ym2612"
    },
    {
      "channel": 0,
      "note": 52,
      "start": 7.5844,
      "duration": 0.0317,
      "velocity": 100,
      "chip": "ym2612"
    },
    {
      "channel": 1,
      "note": 64,
      "start": 7.5849,
      "duration": 0.0314,
      "velocity": 98,
      "chip": "ym2612"
    },
    {
      "channel": 2,
      "note": 92,
      "start": 7.5855,
      "duration": 0.5488,
      "velocity": 62,
      "chip": "ym2612"
    },
    {
      "channel": 3,
      "note": 78,
      "start": 7.5925,
      "duration": 0.0244,
      "velocity": 125,
      "chip": "ym2612"
    },
    {
      "channel": 0,
      "note": 52,
      "start": 7.6232,
      "duration": 0.0705,
      "velocity": 100,
      "chip": "ym2612"
    },
    {
      "channel": 1,
      "note": 64,
      "start": 7.6237,
      "duration": 0.1588,
      "velocity": 98,
      "chip": "ym2612"
    },
    {
      "channel": 3,
      "note": 73,
      "start": 7.6246,
      "duration": 0.1585,
      "velocity": 125,
      "chip": "ym2612"
    },
    {
      "channel": 4,
      "note": 100,
      "start": 7.6773,
      "duration": 0.5487,
      "velocity": 62,
      "chip": "ym2612"
    },
    {
      "channel": 0,
      "note": 52,
      "start": 7.7116,
      "duration": 0.0707,
      "velocity": 100,
      "chip": "ym2612"
    },
    {
      "channel": 0,
      "note": 52,
      "start": 7.8002,
      "duration": 0.0255,
      "velocity": 100,
      "chip": "ym2612"
    },
    {
      "channel": 1,
      "note": 61,
      "start": 7.8018,
      "duration": 0.0059,
      "velocity": 98,
      "chip": "ym2612"
    },
    {
      "channel": 3,
      "note": 88,
      "start": 7.8027,
      "duration": 0.0239,
      "velocity": 125,
      "chip": "ym2612"
    },
    {
      "channel": 0,
      "note": 52,
      "start": 7.8288,
      "duration": 0.0111,
      "velocity": 100,
      "chip": "ym2612"
    },
    {
      "channel": 1,
      "note": 64,
      "start": 7.8293,
      "duration": 0.0258,
      "velocity": 98,
      "chip": "ym2612"
    },
    {
      "channel": 3,
      "note": 83,
      "start": 7.8302,
      "duration": 0.0255,
      "velocity": 125,
      "chip": "ym2612"
    },
    {
      "channel": 0,
      "note": 52,
      "start": 7.8427,
      "duration": 0.0121,
      "velocity": 100,
      "chip": "ym2612"
    },
    {
      "channel": 0,
      "note": 52,
      "start": 7.8593,
      "duration": 0.0247,
      "velocity": 100,
      "chip": "ym2612"
    },
    {
      "channel": 3,
      "note": 85,
      "start": 7.8606,
      "duration": 0.0243,
      "velocity": 125,
      "chip": "ym2612"
    },
    {
      "channel": 0,
      "note": 52,
      "start": 7.8976,
      "duration": 0.0707,
      "velocity": 100,
      "chip": "ym2612"
    },
    {
      "channel": 1,
      "note": 64,
      "start": 7.8981,
      "duration": 0.1589,
      "velocity": 98,
      "chip": "ym2612"
    },
    {
      "channel": 3,
      "note": 81,
      "start": 7.899,
      "duration": 0.1586,
      "velocity": 125,
      "chip": "ym2612"
    },
    {
      "channel": 0,
      "note": 52,
      "start": 7.986,
      "duration": 0.0707,
      "velocity": 100,
      "chip": "ym2612"
    },
    {
      "channel": 0,
      "note": 52,
      "start": 8.0746,
      "duration": 0.0246,
      "velocity": 100,
      "chip": "ym2612"
    },
    {
      "channel": 3,
      "note": 83,
      "start": 8.0759,
      "duration": 0.0253,
      "velocity": 125,
      "chip": "ym2612"
    },
    {
      "channel": 0,
      "note": 54,
      "start": 8.1035,
      "duration": 0.0116,
      "velocity": 100,
      "chip": "ym2612"
    },
    {
      "channel": 1,
      "note": 66,
      "start": 8.1043,
      "duration": 0.011,
      "velocity": 98,
      "chip": "ym2612"
    },
    {
      "channel": 3,
      "note": 80,
      "start": 8.1052,
      "duration": 0.0245,
      "velocity": 125,
      "chip": "ym2612"
    },
    {
      "channel": 0,
      "note": 54,
      "start": 8.118,
      "duration": 0.0108,
      "velocity": 100,
      "chip": "ym2612"
    },
    {
      "channel": 1,
      "note": 66,
      "start": 8.1185,
      "duration": 0.0105,
      "velocity": 98,
      "chip": "ym2612"
    },
    {
      "channel": 0,
      "note": 54,
      "start": 8.1334,
      "duration": 0.0259,
      "velocity": 100,
      "chip": "ym2612"
    },
    {
      "channel": 1,
      "note": 66,
      "start": 8.1339,
      "duration": 0.0256,
      "velocity": 98,
      "chip": "ym2612"
    },
    {
      "channel": 2,
      "note": 93,
      "start": 8.1345,
      "duration": 0.2746,
      "velocity": 62,
      "chip": "ym2612"
    },
    {
      "channel": 0,
      "note": 54,
      "start": 8.1721,
      "duration": 0.0705,
      "velocity": 100,
      "chip": "ym2612"
    },
    {
      "channel": 1,
      "note": 66,
      "start": 8.1727,
      "duration": 0.1588,
      "velocity": 98,
      "chip": "ym2612"
    },
    {
      "channel": 4,
      "note": 92,
      "start": 8.2263,
      "duration": 0.2753,
      "velocity": 62,
      "chip": "ym2612"
    },
    {
      "channel": 0,
      "note": 54,
      "start": 8.2606,
      "duration": 0.0707,
      "velocity": 100,
      "chip": "ym2612"
    },
    {
      "channel": 0,
      "note": 54,
      "start": 8.3492,
      "duration": 0.0258,
      "velocity": 100,
      "chip": "ym2612"
    },
    {
      "channel": 1,
      "note": 61,
      "start": 8.3497,
      "duration": 0.007,
      "velocity": 98,
      "chip": "ym2612"
    },
    {
      "channel": 0,
      "note": 54,
      "start": 8.3781,
      "duration": 0.0109,
      "velocity": 100,
      "chip": "ym2612"
    },
    {
      "channel": 1,
      "note": 66,
      "start": 8.3787,
      "duration": 0.0254,
      "velocity": 98,
      "chip": "ym2612"
    },
    {
      "channel": 0,
      "note": 54,
      "start": 8.3919,
      "duration": 0.012,
      "velocity": 100,
      "chip": "ym2612"
    },
    {
      "channel": 0,
      "note": 54,
      "start": 8.4084,
      "duration": 0.0246,
      "velocity": 100,
      "chip": "ym2612"
    },
    {
      "channel": 2,
      "note": 85,
      "start": 8.4094,
      "duration": 0.0381,
      "velocity": 62,
      "chip": "ym2612"
    },
    {
      "channel": 0,
      "note": 54,
      "start": 8.4466,
      "duration": 0.0715,
      "velocity": 100,
      "chip": "ym2612"
    },
    {
      "channel": 1,
      "note": 66,
      "start": 8.4472,
      "duration": 0.159,
      "velocity": 98,
      "chip": "ym2612"
    },
    {
      "channel": 2,
      "note": 83,
      "start": 8.4478,
      "duration": 0.1766,
      "velocity": 62,
      "chip": "ym2612"
    },
    {
      "channel": 4,
      "note": 93,
      "start": 8.5019,
      "duration": 0.1314,
      "velocity": 62,
      "chip": "ym2612"
    },
    {
      "channel": 0,
      "note": 54,
      "start": 8.5351,
      "duration": 0.0707,
      "velocity": 100,
      "chip": "ym2612"
    },
    {
      "channel": 0,
      "note": 54,
      "start": 8.6237,
      "duration": 0.0247,
      "velocity": 100,
      "chip": "ym2612"
    },
    {
      "channel": 2,
      "note": 81,
      "start": 8.6246,
      "duration": 0.0314,
      "velocity": 62,
      "chip": "ym2612"
    },
    {
      "channel": 4,
      "note": 85,
      "start": 8.6336,
      "duration": 0.0311,
      "velocity": 62,
      "chip": "ym2612"
    },
    {
      "channel": 0,
      "note": 54,
      "start": 8.655,
      "duration": 0.0117,
      "velocity": 100,
      "chip": "ym2612"
    },
    {
      "channel": 1,
      "note": 66,
      "start": 8.6557,
      "duration": 0.0113,
      "velocity": 98,
      "chip": "ym2612"
    },
    {
      "channel": 2,
      "note": 80,
      "start": 8.6563,
      "duration": 0.0293,
      "velocity": 62,
      "chip": "ym2612"
    },
    {
      "channel": 4,
      "note": 83,
      "start": 8.665,
      "duration": 0.0395,
      "velocity": 62,
      "chip": "ym2612"
    },
    {
      "channel": 0,
      "note": 54,
      "start": 8.6696,
      "duration": 0.0107,
      "velocity": 100,
      "chip": "ym2612"
    },
    {
      "channel": 1,
      "note": 66,
      "start": 8.6702,
      "duration": 0.0104,
      "velocity": 98,
      "chip": "ym2612"
    },
    {
      "channel": 0,
      "note": 54,
      "start": 8.6847,
      "duration": 0.0357,
      "velocity": 100,
      "chip": "ym2612"
    },
    {
      "channel": 1,
      "note": 66,
      "start": 8.6853,
      "duration": 0.0354,
      "velocity": 98,
      "chip": "ym2612"
    },
    {
      "channel": 2,
      "note": 88,
      "start": 8.6894,
      "duration": 0.2117,
      "velocity": 108,
      "chip": "ym2612"
    },
    {
      "channel": 3,
      "note": 78,
      "start": 8.6968,
      "duration": 0.0245,
      "velocity": 125,
      "chip": "ym2612"
    },
    {
      "channel": 4,
      "note": 81,
      "start": 8.7049,
      "duration": 0.0721,
      "velocity": 62,
      "chip": "ym2612"
    },
    {
      "channel": 0,
      "note": 54,
      "start": 8.7252,
      "duration": 0.0684,
      "velocity": 100,
      "chip": "ym2612"
    },
    {
      "channel": 1,
      "note": 66,
      "start": 8.7257,
      "duration": 0.1568,
      "velocity": 98,
      "chip": "ym2612"
    },
    {
      "channel": 3,
      "note": 73,
      "start": 8.7266,
      "duration": 0.1565,
      "velocity": 125,
      "chip": "ym2612"
    },
    {
      "channel": 4,
      "note": 80,
      "start": 8.7823,
      "duration": 0.159,
      "velocity": 108,
      "chip": "ym2612"
    },
    {
      "channel": 0,
      "note": 54,
      "start": 8.8115,
      "duration": 0.0707,
      "velocity": 100,
      "chip": "ym2612"
    },
    {
      "channel": 0,
      "note": 54,
      "start": 8.9002,
      "duration": 0.0271,
      "velocity": 100,
      "chip": "ym2612"
    },
    {
      "channel": 1,
      "note": 61,
      "start": 8.9007,
      "duration": 0.008,
      "velocity": 98,
      "chip": "ym2612"
    },
    {
      "channel": 2,
      "note": 88,
      "start": 8.9013,
      "duration": 0.0206,
      "velocity": 108,
      "chip": "ym2612"
    },
    {
      "channel": 3,
      "note": 88,
      "start": 8.902,
      "duration": 0.026,
      "velocity": 125,
      "chip": "ym2612"
    },
    {
      "channel": 2,
      "note": 85,
      "start": 8.9222,
      "duration": 0.0217,
      "velocity": 108,
      "chip": "ym2612"
    },
    {
      "channel": 0,
      "note": 54,
      "start": 8.932,
      "duration": 0.0115,
      "velocity": 100,
      "chip": "ym2612"
    },
    {
      "channel": 1,
      "note": 66,
      "start": 8.9325,
      "duration": 0.0262,
      "velocity": 98,
      "chip": "ym2612"
    },
    {
      "channel": 3,
      "note": 83,
      "start": 8.9333,
      "duration": 0.0259,
      "velocity": 125,
      "chip": "ym2612"
    },
    {
      "channel": 4,
      "note": 88,
      "start": 8.9417,
      "duration": 0.0215,
      "velocity": 108,
      "chip": "ym2612"
    },
    {
      "channel": 2,
      "note": 88,
      "start": 8.9442,
      "duration": 0.0177,
      "velocity": 108,
      "chip": "ym2612"
    },
    {
      "channel": 0,
      "note": 54,
      "start": 8.9467,
      "duration": 0.0117,
      "velocity": 100,
      "chip": "ym2612"
    },
    {
      "channel": 0,
      "note": 54,
      "start": 8.9612,
      "duration": 0.0258,
      "velocity": 100,
      "chip": "ym2612"
    },
    {
      "channel": 2,
      "note": 90,
      "start": 8.9621,
      "duration": 0.2741,
      "velocity": 108,
      "chip": "ym2612"
    },
    {
      "channel": 3,
      "note": 85,
      "start": 8.9629,
      "duration": 0.025,
      "velocity": 125,
      "chip": "ym2612"
    },
    {
      "channel": 4,
      "note": 88,
      "start": 8.9636,
      "duration": 0.0187,
      "velocity": 108,
      "chip": "ym2612"
    },
    {
      "channel": 4,
      "note": 85,
      "start": 8.9826,
      "duration": 0.0708,
      "velocity": 108,
      "chip": "ym2612"
    },
    {
      "channel": 0,
      "note": 54,
      "start": 9.0012,
      "duration": 0.0688,
      "velocity": 100,
      "chip": "ym2612"
    },
    {
      "channel": 1,
      "note": 66,
      "start": 9.0017,
      "duration": 0.1572,
      "velocity": 98,
      "chip": "ym2612"
    },
    {
      "channel": 3,
      "note": 81,
      "start": 9.0026,
      "duration": 0.1569,
      "velocity": 125,
      "chip": "ym2612"
    },
    {
      "channel": 4,
      "note": 88,
      "start": 9.0537,
      "duration": 0.2741,
      "velocity": 108,
      "chip": "ym2612"
    },
    {
      "channel": 0,
      "note": 54,
      "start": 9.0886,
      "duration": 0.07,
      "velocity": 100,
      "chip": "ym2612"
    },
    {
      "channel": 0,
      "note": 54,
      "start": 9.1766,
      "duration": 0.0239,
      "velocity": 100,
      "chip": "ym2612"
    },
    {
      "channel": 3,
      "note": 83,
      "start": 9.1779,
      "duration": 0.0236,
      "velocity": 125,
      "chip": "ym2612"
    },
    {
      "channel": 0,
      "note": 52,
      "start": 9.2041,
      "duration": 0.0129,
      "velocity": 100,
      "chip": "ym2612"
    },
    {
      "channel": 1,
      "note": 64,
      "start": 9.2064,
      "duration": 0.0109,
      "velocity": 98,
      "chip": "ym2612"
    },
    {
      "channel": 3,
      "note": 80,
      "start": 9.2073,
      "duration": 0.0244,
      "velocity": 125,
      "chip": "ym2612"
    },
    {
      "channel": 0,
      "note": 52,
      "start": 9.2198,
      "duration": 0.0109,
      "velocity": 100,
      "chip": "ym2612"
    },
    {
      "channel": 1,
      "note": 64,
      "start": 9.2204,
      "duration": 0.0106,
      "velocity": 98,
      "chip": "ym2612"
    },
    {
      "channel": 0,
      "note": 52,
      "start": 9.2353,
      "duration": 0.0259,
      "velocity": 100,
      "chip": "ym2612"
    },
    {
      "channel": 1,
      "note": 64,
      "start": 9.2359,
      "duration": 0.0256,
      "velocity": 98,
      "chip": "ym2612"
    },
    {
      "channel": 2,
      "note": 88,
      "start": 9.2364,
      "duration": 0.2154,
      "velocity": 108,
      "chip": "ym2612"
    },
    {
      "channel": 0,
      "note": 52,
      "start": 9.2739,
      "duration": 0.0705,
      "velocity": 100,
      "chip": "ym2612"
    },
    {
      "channel": 1,
      "note": 64,
      "start": 9.2744,
      "duration": 0.1589,
      "velocity": 98,
      "chip": "ym2612"
    },
    {
      "channel": 4,
      "note": 90,
      "start": 9.328,
      "duration": 0.1615,
      "velocity": 108,
      "chip": "ym2612"
    },
    {
      "channel": 0,
      "note": 52,
      "start": 9.3624,
      "duration": 0.0707,
      "velocity": 100,
      "chip": "ym2612"
    },
    {
      "channel": 0,
      "note": 52,
      "start": 9.451,
      "duration": 0.0264,
      "velocity": 100,
      "chip": "ym2612"
    },
    {
      "channel": 1,
      "note": 61,
      "start": 9.4515,
      "duration": 0.0065,
      "velocity": 98,
      "chip": "ym2612"
    },
    {
      "channel": 2,
      "note": 90,
      "start": 9.4521,
      "duration": 0.0576,
      "velocity": 108,
      "chip": "ym2612"
    },
    {
      "channel": 0,
      "note": 52,
      "start": 9.4804,
      "duration": 0.0112,
      "velocity": 100,
      "chip": "ym2612"
    },
    {
      "channel": 1,
      "note": 64,
      "start": 9.481,
      "duration": 0.0254,
      "velocity": 98,
      "chip": "ym2612"
    },
    {
      "channel": 4,
      "note": 88,
      "start": 9.4899,
      "duration": 0.1112,
      "velocity": 108,
      "chip": "ym2612"
    },
    {
      "channel": 0,
      "note": 52,
      "start": 9.4944,
      "duration": 0.0116,
      "velocity": 100,
      "chip": "ym2612"
    },
    {
      "channel": 0,
      "note": 52,
      "start": 9.509,
      "duration": 0.0244,
      "velocity": 100,
      "chip": "ym2612"
    },
    {
      "channel": 2,
      "note": 87,
      "start": 9.5099,
      "duration": 0.2151,
      "velocity": 108,
      "chip": "ym2612"
    },
    {
      "channel": 0,
      "note": 52,
      "start": 9.5472,
      "duration": 0.0705,
      "velocity": 100,
      "chip": "ym2612"
    },
    {
      "channel": 1,
      "note": 64,
      "start": 9.5478,
      "duration": 0.1588,
      "velocity": 98,
      "chip": "ym2612"
    },
    {
      "channel": 4,
      "note": 90,
      "start": 9.6014,
      "duration": 0.1606,
      "velocity": 108,
      "chip": "ym2612"
    },
    {
      "channel": 0,
      "note": 52,
      "start": 9.6367,
      "duration": 0.0696,
      "velocity": 100,
      "chip": "ym2612"
    },
    {
      "channel": 0,
      "note": 52,
      "start": 9.7243,
      "duration": 0.024,
      "velocity": 100,
      "chip": "ym2612"
    },
    {
      "channel": 2,
      "note": 85,
      "start": 9.7252,
      "duration": 0.0571,
      "velocity": 108,
      "chip": "ym2612"
    },
    {
      "channel": 0,
      "note": 52,
      "start": 9.7513,
      "duration": 0.0127,
      "velocity": 100,
      "chip": "ym2612"
    },
    {
      "channel": 1,
      "note": 64,
      "start": 9.752,
      "duration": 0.0123,
      "velocity": 98,
      "chip": "ym2612"
    },
    {
      "channel": 4,
      "note": 87,
      "start": 9.7622,
      "duration": 0.1121,
      "velocity": 108,
      "chip": "ym2612"
    },
    {
      "channel": 0,
      "note": 52,
      "start": 9.7668,
      "duration": 0.0108,
      "velocity": 100,
      "chip": "ym2612"
    },
    {
      "channel": 1,
      "note": 64,
      "start": 9.7674,
      "duration": 0.0106,
      "velocity": 98,
      "chip": "ym2612"
    },
    {
      "channel": 0,
      "note": 52,
      "start": 9.7815,
      "duration": 0.0312,
      "velocity": 100,
      "chip": "ym2612"
    },
    {
      "channel": 1,
      "note": 64,
      "start": 9.782,
      "duration": 0.031,
      "velocity": 98,
      "chip": "ym2612"
    },
    {
      "channel": 3,
      "note": 78,
      "start": 9.7883,
      "duration": 0.0251,
      "velocity": 125,
      "chip": "ym2612"
    },
    {
      "channel": 0,
      "note": 52,
      "start": 9.8205,
      "duration": 0.0705,
      "velocity": 100,
      "chip": "ym2612"
    },
    {
      "channel": 1,
      "note": 64,
      "start": 9.821,
      "duration": 0.1589,
      "velocity": 98,
      "chip": "ym2612"
    },
    {
      "channel": 3,
      "note": 73,
      "start": 9.8219,
      "duration": 0.1586,
      "velocity": 125,
      "chip": "ym2612"
    },
    {
      "channel": 0,
      "note": 52,
      "start": 9.9089,
      "duration": 0.0707,
      "velocity": 100,
      "chip": "ym2612"
    },
    {
      "channel": 0,
      "note": 52,
      "start": 9.9975,
      "duration": 0.0275,
      "velocity": 100,
      "chip": "ym2612"
    },
    {
      "channel": 1,
      "note": 61,
      "start": 9.9981,
      "duration": 0.0068,
      "velocity": 98,
      "chip": "ym2612"
    },
    {
      "channel": 2,
      "note": 95,
      "start": 9.9988,
      "duration": 0.0211,
      "velocity": 108,
      "chip": "ym2612"
    },
    {
      "channel": 3,
      "note": 88,
      "start": 9.9995,
      "duration": 0.0263,
      "velocity": 125,
      "chip": "ym2612"
    },
    {
      "channel": 2,
      "note": 95,
      "start": 10.02,
      "duration": 0.0201,
      "velocity": 108,
      "chip": "ym2612"
    },
    {
      "channel": 0,
      "note": 52,
      "start": 10.028,
      "duration": 0.0116,
      "velocity": 100,
      "chip": "ym2612"
    },
    {
      "channel": 1,
      "note": 64,
      "start": 10.0285,
      "duration": 0.0255,
      "velocity": 98,
      "chip": "ym2612"
    },
    {
      "channel": 3,
      "note": 83,
      "start": 10.0294,
      "duration": 0.0262,
      "velocity": 125,
      "chip": "ym2612"
    },
    {
      "channel": 4,
      "note": 85,
      "start": 10.0378,
      "duration": 0.022,
      "velocity": 108,
      "chip": "ym2612"
    },
    {
      "channel": 2,
      "note": 95,
      "start": 10.0404,
      "duration": 0.0184,
      "velocity": 108,
      "chip": "ym2612"
    },
    {
      "channel": 0,
      "note": 52,
      "start": 10.0429,
      "duration": 0.0108,
      "velocity": 100,
      "chip": "ym2612"
    },
    {
      "channel": 0,
      "note": 52,
      "start": 10.058,
      "duration": 0.0252,
      "velocity": 100,
      "chip": "ym2612"
    },
    {
      "channel": 3,
      "note": 85,
      "start": 10.0594,
      "duration": 0.0246,
      "velocity": 125,
      "chip": "ym2612"
    },
    {
      "channel": 4,
      "note": 95,
      "start": 10.0601,
      "duration": 0.0185,
      "velocity": 108,
      "chip": "ym2612"
    },
    {
      "channel": 4,
      "note": 95,
      "start": 10.0789,
      "duration": 0.0702,
      "velocity": 108,
      "chip": "ym2612"
    },
    {
      "channel": 0,
      "note": 52,
      "start": 10.0953,
      "duration": 0.0705,
      "velocity": 100,
      "chip": "ym2612"
    },
    {
      "channel": 1,
      "note": 64,
      "start": 10.0958,
      "duration": 0.1589,
      "velocity": 98,
      "chip": "ym2612"
    },
    {
      "channel": 3,
      "note": 81,
      "start": 10.0967,
      "duration": 0.1586,
      "velocity": 125,
      "chip": "ym2612"
    },
    {
      "channel": 0,
      "note": 52,
      "start": 10.1837,
      "duration": 0.0707,
      "velocity": 100,
      "chip": "ym2612"
    },
    {
      "channel": 0,
      "note": 52,
      "start": 10.2724,
      "duration": 0.0249,
      "velocity": 100,
      "chip": "ym2612"
    },
    {
      "channel": 2,
      "note": 88,
      "start": 10.2733,
      "duration": 0.0189,
      "velocity": 108,
      "chip": "ym2612"
    },
    {
      "channel": 3,
      "note": 83,
      "start": 10.2741,
      "duration": 0.024,
      "velocity": 125,
      "chip": "ym2612"
    },
    {
      "channel": 2,
      "note": 88,
      "start": 10.2924,
      "duration": 0.022,
      "velocity": 108,
      "chip": "ym2612"
    },
    {
      "channel": 0,
      "note": 54,
      "start": 10.3004,
      "duration": 0.0134,
      "velocity": 100,
      "chip": "ym2612"
    },
    {
      "channel": 1,
      "note": 66,
      "start": 10.3012,
      "duration": 0.0128,
      "velocity": 98,
      "chip": "ym2612"
    },
    {
      "channel": 3,
      "note": 80,
      "start": 10.3032,
      "duration": 0.0256,
      "velocity": 125,
      "chip": "ym2612"
    },
    {
      "channel": 4,
      "note": 95,
      "start": 10.312,
      "duration": 0.0213,
      "velocity": 108,
      "chip": "ym2612"
    },
    {
      "channel": 2,
      "note": 88,
      "start": 10.3146,
      "duration": 0.0179,
      "velocity": 108,
      "chip": "ym2612"
    },
    {
      "channel": 0,
      "note": 54,
      "start": 10.3172,
      "duration": 0.0108,
      "velocity": 100,
      "chip": "ym2612"
    },
    {
      "channel": 1,
      "note": 66,
      "start": 10.3177,
      "duration": 0.0105,
      "velocity": 98,
      "chip": "ym2612"
    },
    {
      "channel": 0,
      "note": 54,
      "start": 10.3316,
      "duration": 0.0265,
      "velocity": 100,
      "chip": "ym2612"
    },
    {
      "channel": 1,
      "note": 66,
      "start": 10.3321,
      "duration": 0.0263,
      "velocity": 98,
      "chip": "ym2612"
    },
    {
      "channel": 4,
      "note": 88,
      "start": 10.3336,
      "duration": 0.0184,
      "velocity": 108,
      "chip": "ym2612"
    },
    {
      "channel": 4,
      "note": 88,
      "start": 10.3533,
      "duration": 0.071,
      "velocity": 108,
      "chip": "ym2612"
    },
    {
      "channel": 0,
      "note": 54,
      "start": 10.3704,
      "duration": 0.0705,
      "velocity": 100,
      "chip": "ym2612"
    },
    {
      "channel": 1,
      "note": 66,
      "start": 10.3709,
      "duration": 0.1589,
      "velocity": 98,
      "chip": "ym2612"
    },
    {
      "channel": 0,
      "note": 54,
      "start": 10.4588,
      "duration": 0.0707,
      "velocity": 100,
      "chip": "ym2612"
    },
    {
      "channel": 0,
      "note": 54,
      "start": 10.5475,
      "duration": 0.0261,
      "velocity": 100,
      "chip": "ym2612"
    },
    {
      "channel": 1,
      "note": 61,
      "start": 10.548,
      "duration": 0.006,
      "velocity": 98,
      "chip": "ym2612"
    },
    {
      "channel": 2,
      "note": 90,
      "start": 10.5486,
      "duration": 0.0199,
      "velocity": 108,
      "chip": "ym2612"
    },
    {
      "channel": 2,
      "note": 90,
      "start": 10.5687,
      "duration": 0.0198,
      "velocity": 108,
      "chip": "ym2612"
    },
    {
      "channel": 0,
      "note": 54,
      "start": 10.5767,
      "duration": 0.0112,
      "velocity": 100,
      "chip": "ym2612"
    },
    {
      "channel": 1,
      "note": 66,
      "start": 10.5772,
      "duration": 0.0245,
      "velocity": 98,
      "chip": "ym2612"
    },
    {
      "channel": 4,
      "note": 88,
      "start": 10.5861,
      "duration": 0.0213,
      "velocity": 108,
      "chip": "ym2612"
    },
    {
      "channel": 2,
      "note": 90,
      "start": 10.5887,
      "duration": 0.0177,
      "velocity": 108,
      "chip": "ym2612"
    },
    {
      "channel": 0,
      "note": 54,
      "start": 10.5912,
      "duration": 0.0103,
      "velocity": 100,
      "chip": "ym2612"
    },
    {
      "channel": 0,
      "note": 54,
      "start": 10.6047,
      "duration": 0.0265,
      "velocity": 100,
      "chip": "ym2612"
    },
    {
      "channel": 2,
      "note": 90,
      "start": 10.6066,
      "duration": 0.0375,
      "velocity": 108,
      "chip": "ym2612"
    },
    {
      "channel": 4,
      "note": 90,
      "start": 10.6077,
      "duration": 0.0188,
      "velocity": 108,
      "chip": "ym2612"
    },
    {
      "channel": 4,
      "note": 90,
      "start": 10.6268,
      "duration": 0.0703,
      "velocity": 108,
      "chip": "ym2612"
    },
    {
      "channel": 0,
      "note": 54,
      "start": 10.6432,
      "duration": 0.0705,
      "velocity": 100,
      "chip": "ym2612"
    },
    {
      "channel": 1,
      "note": 66,
      "start": 10.6438,
      "duration": 0.1589,
      "velocity": 98,
      "chip": "ym2612"
    },
    {
      "channel": 2,
      "note": 88,
      "start": 10.6444,
      "duration": 0.1766,
      "velocity": 108,
      "chip": "ym2612"
    },
    {
      "channel": 4,
      "note": 90,
      "start": 10.6974,
      "duration": 0.1328,
      "velocity": 108,
      "chip": "ym2612"
    },
    {
      "channel": 0,
      "note": 54,
      "start": 10.7317,
      "duration": 0.0707,
      "velocity": 100,
      "chip": "ym2612"
    },
    {
      "channel": 0,
      "note": 54,
      "start": 10.8203,
      "duration": 0.0247,
      "velocity": 100,
      "chip": "ym2612"
    },
    {
      "channel": 2,
      "note": 87,
      "start": 10.8212,
      "duration": 0.0284,
      "velocity": 108,
      "chip": "ym2612"
    },
    {
      "channel": 4,
      "note": 90,
      "start": 10.8305,
      "duration": 0.0294,
      "velocity": 108,
      "chip": "ym2612"
    },
    {
      "channel": 0,
      "note": 54,
      "start": 10.8486,
      "duration": 0.0134,
      "velocity": 100,
      "chip": "ym2612"
    },
    {
      "channel": 1,
      "note": 66,
      "start": 10.8493,
      "duration": 0.013,
      "velocity": 98,
      "chip": "ym2612"
    },
    {
      "channel": 2,
      "note": 85,
      "start": 10.8499,
      "duration": 0.0305,
      "velocity": 108,
      "chip": "ym2612"
    },
    {
      "channel": 4,
      "note": 88,
      "start": 10.8602,
      "duration": 0.0393,
      "velocity": 108,
      "chip": "ym2612"
    },
    {
      "channel": 0,
      "note": 54,
      "start": 10.8649,
      "duration": 0.0108,
      "velocity": 100,
      "chip": "ym2612"
    },
    {
      "channel": 1,
      "note": 66,
      "start": 10.8654,
      "duration": 0.0105,
      "velocity": 98,
      "chip": "ym2612"
    },
    {
      "channel": 0,
      "note": 54,
      "start": 10.8795,
      "duration": 0.0362,
      "velocity": 100,
      "chip": "ym2612"
    },
    {
      "channel": 1,
      "note": 66,
      "start": 10.88,
      "duration": 0.0359,
      "velocity": 98,
      "chip": "ym2612"
    },
    {
      "channel": 2,
      "note": 88,
      "start": 10.8841,
      "duration": 0.2119,
      "velocity": 108,
      "chip": "ym2612"
    },
    {
      "channel": 3,
      "note": 78,
      "start": 10.8916,
      "duration": 0.0249,
      "velocity": 125,
      "chip": "ym2612"
    },
    {
      "channel": 4,
      "note": 87,
      "start": 10.8998,
      "duration": 0.0721,
      "velocity": 108,
      "chip": "ym2612"
    },
    {
      "channel": 0,
      "note": 54,
      "start": 10.9187,
      "duration": 0.0699,
      "velocity": 100,
      "chip": "ym2612"
    },
    {
      "channel": 1,
      "note": 66,
      "start": 10.9193,
      "duration": 0.1582,
      "velocity": 98,
      "chip": "ym2612"
    },
    {
      "channel": 3,
      "note": 73,
      "start": 10.9201,
      "duration": 0.1579,
      "velocity": 125,
      "chip": "ym2612"
    },
    {
      "channel": 4,
      "note": 85,
      "start": 10.9724,
      "duration": 0.1619,
      "velocity": 108,
      "chip": "ym2612"
    },
    {
      "channel": 0,
      "note": 54,
      "start": 11.0066,
      "duration": 0.0707,
      "velocity": 100,
      "chip": "ym2612"
    },
    {
      "channel": 0,
      "note": 54,
      "start": 11.0951,
      "duration": 0.0267,
      "velocity": 100,
      "chip": "ym2612"
    },
    {
      "channel": 1,
      "note": 61,
      "start": 11.0957,
      "duration": 0.0063,
      "velocity": 98,
      "chip": "ym2612"
    },
    {
      "channel": 2,
      "note": 88,
      "start": 11.0963,
      "duration": 0.0203,
      "velocity": 108,
      "chip": "ym2612"
    },
    {
      "channel": 3,
      "note": 88,
      "start": 11.0971,
      "duration": 0.0256,
      "velocity": 125,
      "chip": "ym2612"
    },
    {
      "channel": 2,
      "note": 85,
      "start": 11.1168,
      "duration": 0.0202,
      "velocity": 108,
      "chip": "ym2612"
    },
    {
      "channel": 0,
      "note": 54,
      "start": 11.1249,
      "duration": 0.0116,
      "velocity": 100,
      "chip": "ym2612"
    },
    {
      "channel": 1,
      "note": 66,
      "start": 11.1255,
      "duration": 0.0248,
      "velocity": 98,
      "chip": "ym2612"
    },
    {
      "channel": 3,
      "note": 83,
      "start": 11.1263,
      "duration": 0.0245,
      "velocity": 125,
      "chip": "ym2612"
    },
    {
      "channel": 4,
      "note": 88,
      "start": 11.1347,
      "duration": 0.0226,
      "velocity": 108,
      "chip": "ym2612"
    },
    {
      "channel": 2,
      "note": 88,
      "start": 11.1372,
      "duration": 0.0176,
      "velocity": 108,
      "chip": "ym2612"
    },
    {
      "channel": 0,
      "note": 54,
      "start": 11.1397,
      "duration": 0.0103,
      "velocity": 100,
      "chip": "ym2612"
    },
    {
      "channel": 0,
      "note": 54,
      "start": 11.1542,
      "duration": 0.027,
      "velocity": 100,
      "chip": "ym2612"
    },
    {
      "channel": 2,
      "note": 90,
      "start": 11.1561,
      "duration": 0.274,
      "velocity": 108,
      "chip": "ym2612"
    },
    {
      "channel": 3,
      "note": 85,
      "start": 11.1568,
      "duration": 0.0252,
      "velocity": 125,
      "chip": "ym2612"
    },
    {
      "channel": 4,
      "note": 88,
      "start": 11.1576,
      "duration": 0.0189,
      "velocity": 108,
      "chip": "ym2612"
    },
    {
      "channel": 4,
      "note": 85,
      "start": 11.1768,
      "duration": 0.07,
      "velocity": 108,
      "chip": "ym2612"
    },
    {
      "channel": 0,
      "note": 54,
      "start": 11.1929,
      "duration": 0.0705,
      "velocity": 100,
      "chip": "ym2612"
    },
    {
      "channel": 1,
      "note": 66,
      "start": 11.1935,
      "duration": 0.1589,
      "velocity": 98,
      "chip": "ym2612"
    },
    {
      "channel": 3,
      "note": 81,
      "start": 11.1943,
      "duration": 0.1586,
      "velocity": 125,
      "chip": "ym2612"
    },
    {
      "channel": 4,
      "note": 88,
      "start": 11.2471,
      "duration": 0.2747,
      "velocity": 108,
      "chip": "ym2612"
    },
    {
      "channel": 0,
      "note": 54,
      "start": 11.2814,
      "duration": 0.0707,
      "velocity": 100,
      "chip": "ym2612"
    },
    {
      "channel": 0,
      "note": 54,
      "start": 11.37,
      "duration": 0.0241,
      "velocity": 100,
      "chip": "ym2612"
    },
    {
      "channel": 3,
      "note": 83,
      "start": 11.3713,
      "duration": 0.0238,
      "velocity": 125,
      "chip": "ym2612"
    },
    {
      "channel": 0,
      "note": 52,
      "start": 11.3974,
      "duration": 0.0135,
      "velocity": 100,
      "chip": "ym2612"
    },
    {
      "channel": 1,
      "note": 64,
      "start": 11.3987,
      "duration": 0.0125,
      "velocity": 98,
      "chip": "ym2612"
    },
    {
      "channel": 3,
      "note": 80,
      "start": 11.3995,
      "duration": 0.026,
      "velocity": 125,
      "chip": "ym2612"
    },
    {
      "channel": 0,
      "note": 52,
      "start": 11.4137,
      "duration": 0.0109,
      "velocity": 100,
      "chip": "ym2612"
    },
    {
      "channel": 1,
      "note": 64,
      "start": 11.4143,
      "duration": 0.0107,
      "velocity": 98,
      "chip": "ym2612"
    },
    {
      "channel": 0,
      "note": 52,
      "start": 11.4293,
      "duration": 0.0249,
      "velocity": 100,
      "chip": "ym2612"
    },
    {
      "channel": 1,
      "note": 64,
      "start": 11.4298,
      "duration": 0.0247,
      "velocity": 98,
      "chip": "ym2612"
    },
    {
      "channel": 2,
      "note": 88,
      "start": 11.4304,
      "duration": 0.2155,
      "velocity": 108,
      "chip": "ym2612"
    },
    {
      "channel": 0,
      "note": 52,
      "start": 11.4687,
      "duration": 0.0698,
      "velocity": 100,
      "chip": "ym2612"
    },
    {
      "channel": 1,
      "note": 64,
      "start": 11.4693,
      "duration": 0.1581,
      "velocity": 98,
      "chip": "ym2612"
    },
    {
      "channel": 4,
      "note": 90,
      "start": 11.5221,
      "duration": 0.1609,
      "velocity": 108,
      "chip": "ym2612"
    },
    {
      "channel": 0,
      "note": 52,
      "start": 11.5565,
      "duration": 0.0706,
      "velocity": 100,
      "chip": "ym2612"
    },
    {
      "channel": 0,
      "note": 52,
      "start": 11.645,
      "duration": 0.0257,
      "velocity": 100,
      "chip": "ym2612"
    },
    {
      "channel": 1,
      "note": 61,
      "start": 11.6456,
      "duration": 0.006,
      "velocity": 98,
      "chip": "ym2612"
    },
    {
      "channel": 2,
      "note": 90,
      "start": 11.6461,
      "duration": 0.0568,
      "velocity": 108,
      "chip": "ym2612"
    },
    {
      "channel": 0,
      "note": 52,
      "start": 11.6737,
      "duration": 0.0114,
      "velocity": 100,
      "chip": "ym2612"
    },
    {
      "channel": 1,
      "note": 64,
      "start": 11.6743,
      "duration": 0.0243,
      "velocity": 98,
      "chip": "ym2612"
    },
    {
      "channel": 4,
      "note": 88,
      "start": 11.6833,
      "duration": 0.1119,
      "velocity": 108,
      "chip": "ym2612"
    },
    {
      "channel": 0,
      "note": 52,
      "start": 11.6879,
      "duration": 0.0104,
      "velocity": 100,
      "chip": "ym2612"
    },
    {
      "channel": 0,
      "note": 52,
      "start": 11.7023,
      "duration": 0.0261,
      "velocity": 100,
      "chip": "ym2612"
    },
    {
      "channel": 2,
      "note": 87,
      "start": 11.7032,
      "duration": 0.2159,
      "velocity": 108,
      "chip": "ym2612"
    },
    {
      "channel": 0,
      "note": 52,
      "start": 11.7413,
      "duration": 0.0705,
      "velocity": 100,
      "chip": "ym2612"
    },
    {
      "channel": 1,
      "note": 64,
      "start": 11.7419,
      "duration": 0.159,
      "velocity": 98,
      "chip": "ym2612"
    },
    {
      "channel": 4,
      "note": 90,
      "start": 11.7955,
      "duration": 0.1604,
      "velocity": 108,
      "chip": "ym2612"
    },
    {
      "channel": 0,
      "note": 52,
      "start": 11.8298,
      "duration": 0.0708,
      "velocity": 100,
      "chip": "ym2612"
    },
    {
      "channel": 0,
      "note": 52,
      "start": 11.9184,
      "duration": 0.0242,
      "velocity": 100,
      "chip": "ym2612"
    },
    {
      "channel": 2,
      "note": 85,
      "start": 11.9193,
      "duration": 0.0573,
      "velocity": 108,
      "chip": "ym2612"
    },
    {
      "channel": 0,
      "note": 52,
      "start": 11.9456,
      "duration": 0.0117,
      "velocity": 100,
      "chip": "ym2612"
    },
    {
      "channel": 1,
      "note": 64,
      "start": 11.9463,
      "duration": 0.0123,
      "velocity": 98,
      "chip": "ym2612"
    },
    {
      "channel": 4,
      "note": 87,
      "start": 11.9563,
      "duration": 0.1118,
      "velocity": 108,
      "chip": "ym2612"
    },
    {
      "channel": 0,
      "note": 52,
      "start": 11.9612,
      "duration": 0.0107,
      "velocity": 100,
      "chip": "ym2612"
    },
    {
      "channel": 1,
      "note": 64,
      "start": 11.9617,
      "duration": 0.0105,
      "velocity": 98,
      "chip": "ym2612"
    },
    {
      "channel": 0,
      "note": 52,
      "start": 11.9758,
      "duration": 0.0296,
      "velocity": 100,
      "chip": "ym2612"
    },
    {
      "channel": 1,
      "note": 64,
      "start": 11.9763,
      "duration": 0.0293,
      "velocity": 98,
      "chip": "ym2612"
    },
    {
      "channel": 3,
      "note": 78,
      "start": 11.9827,
      "duration": 0.0235,
      "velocity": 125,
      "chip": "ym2612"
    },
    {
      "channel": 0,
      "note": 52,
      "start": 12.0153,
      "duration": 0.0695,
      "velocity": 100,
      "chip": "ym2612"
    },
    {
      "channel": 1,
      "note": 64,
      "start": 12.0158,
      "duration": 0.1578,
      "velocity": 98,
      "chip": "ym2612"
    },
    {
      "channel": 3,
      "note": 73,
      "start": 12.0167,
      "duration": 0.1576,
      "velocity": 125,
      "chip": "ym2612"
    },
    {
      "channel": 0,
      "note": 52,
      "start": 12.1027,
      "duration": 0.0707,
      "velocity": 100,
      "chip": "ym2612"
    },
    {
      "channel": 0,
      "note": 52,
      "start": 12.1913,
      "duration": 0.0269,
      "velocity": 100,
      "chip": "ym2612"
    },
    {
      "channel": 1,
      "note": 61,
      "start": 12.1918,
      "duration": 0.007,
      "velocity": 98,
      "chip": "ym2612"
    },
    {
      "channel": 2,
      "note": 83,
      "start": 12.1931,
      "duration": 0.0201,
      "velocity": 108,
      "chip": "ym2612"
    },
    {
      "channel": 3,
      "note": 88,
      "start": 12.1938,
      "duration": 0.0252,
      "velocity": 125,
      "chip": "ym2612"
    },
    {
      "channel": 2,
      "note": 83,
      "start": 12.2134,
      "duration": 0.0207,
      "velocity": 108,
      "chip": "ym2612"
    },
    {
      "channel": 0,
      "note": 52,
      "start": 12.2212,
      "duration": 0.0124,
      "velocity": 100,
      "chip": "ym2612"
    },
    {
      "channel": 1,
      "note": 64,
      "start": 12.2217,
      "duration": 0.0255,
      "velocity": 98,
      "chip": "ym2612"
    },
    {
      "channel": 3,
      "note": 83,
      "start": 12.2226,
      "duration": 0.0252,
      "velocity": 125,
      "chip": "ym2612"
    },
    {
      "channel": 4,
      "note": 85,
      "start": 12.2318,
      "duration": 0.0202,
      "velocity": 108,
      "chip": "ym2612"
    },
    {
      "channel": 2,
      "note": 83,
      "start": 12.2343,
      "duration": 0.0166,
      "velocity": 108,
      "chip": "ym2612"
    },
    {
      "channel": 0,
      "note": 52,
      "start": 12.2368,
      "duration": 0.0102,
      "velocity": 100,
      "chip": "ym2612"
    },
    {
      "channel": 0,
      "note": 52,
      "start": 12.2502,
      "duration": 0.0268,
      "velocity": 100,
      "chip": "ym2612"
    },
    {
      "channel": 3,
      "note": 85,
      "start": 12.2515,
      "duration": 0.0262,
      "velocity": 125,
      "chip": "ym2612"
    },
    {
      "channel": 4,
      "note": 83,
      "start": 12.2523,
      "duration": 0.02,
      "velocity": 108,
      "chip": "ym2612"
    },
    {
      "channel": 4,
      "note": 83,
      "start": 12.2726,
      "duration": 0.0704,
      "velocity": 108,
      "chip": "ym2612"
    },
    {
      "channel": 0,
      "note": 52,
      "start": 12.2892,
      "duration": 0.0705,
      "velocity": 100,
      "chip": "ym2612"
    },
    {
      "channel": 1,
      "note": 64,
      "start": 12.2897,
      "duration": 0.1598,
      "velocity": 98,
      "chip": "ym2612"
    },
    {
      "channel": 3,
      "note": 81,
      "start": 12.2906,
      "duration": 0.1595,
      "velocity": 125,
      "chip": "ym2612"
    },
    {
      "channel": 0,
      "note": 52,
      "start": 12.3776,
      "duration": 0.0716,
      "velocity": 100,
      "chip": "ym2612"
    },
    {
      "channel": 0,
      "note": 52,
      "start": 12.4663,
      "duration": 0.0249,
      "velocity": 100,
      "chip": "ym2612"
    },
    {
      "channel": 2,
      "note": 76,
      "start": 12.4671,
      "duration": 0.019,
      "velocity": 108,
      "chip": "ym2612"
    },
    {
      "channel": 3,
      "note": 83,
      "start": 12.4679,
      "duration": 0.0241,
      "velocity": 125,
      "chip": "ym2612"
    },
    {
      "channel": 2,
      "note": 76,
      "start": 12.4863,
      "duration": 0.0204,
      "velocity": 108,
      "chip": "ym2612"
    },
    {
      "channel": 0,
      "note": 54,
      "start": 12.4942,
      "duration": 0.012,
      "velocity": 100,
      "chip": "ym2612"
    },
    {
      "channel": 1,
      "note": 66,
      "start": 12.4949,
      "duration": 0.0115,
      "velocity": 98,
      "chip": "ym2612"
    },
    {
      "channel": 3,
      "note": 80,
      "start": 12.4957,
      "duration": 0.0263,
      "velocity": 125,
      "chip": "ym2612"
    },
    {
      "channel": 4,
      "note": 83,
      "start": 12.5041,
      "duration": 0.0232,
      "velocity": 108,
      "chip": "ym2612"
    },
    {
      "channel": 2,
      "note": 76,
      "start": 12.508,
      "duration": 0.0181,
      "velocity": 108,
      "chip": "ym2612"
    },
    {
      "channel": 0,
      "note": 54,
      "start": 12.5105,
      "duration": 0.0106,
      "velocity": 100,
      "chip": "ym2612"
    },
    {
      "channel": 1,
      "note": 66,
      "start": 12.5111,
      "duration": 0.0104,
      "velocity": 98,
      "chip": "ym2612"
    },
    {
      "channel": 0,
      "note": 49,
      "start": 12.5252,
      "duration": 0.0252,
      "velocity": 100,
      "chip": "ym2612"
    },
    {
      "channel": 1,
      "note": 61,
      "start": 12.5258,
      "duration": 0.0249,
      "velocity": 98,
      "chip": "ym2612"
    },
    {
      "channel": 2,
      "note": 78,
      "start": 12.5264,
      "duration": 0.5554,
      "velocity": 108,
      "chip": "ym2612"
    },
    {
      "channel": 4,
      "note": 76,
      "start": 12.5276,
      "duration": 0.0183,
      "velocity": 108,
      "chip": "ym2612"
    },
    {
      "channel": 4,
      "note": 76,
      "start": 12.5461,
      "duration": 0.0277,
      "velocity": 108,
      "chip": "ym2612"
    },
    {
      "channel": 0,
      "note": 51,
      "start": 12.5631,
      "duration": 0.0255,
      "velocity": 100,
      "chip": "ym2612"
    },
    {
      "channel": 1,
      "note": 63,
      "start": 12.5637,
      "duration": 0.0252,
      "velocity": 98,
      "chip": "ym2612"
    },
    {
      "channel": 4,
      "note": 76,
      "start": 12.5742,
      "duration": 0.5926,
      "velocity": 108,
      "chip": "ym2612"
    },
    {
      "channel": 0,
      "note": 52,
      "start": 12.6222,
      "duration": 0.0265,
      "velocity": 100,
      "chip": "ym2612"
    },
    {
      "channel": 1,
      "note": 64,
      "start": 12.6227,
      "duration": 0.0262,
      "velocity": 98,
      "chip": "ym2612"
    },
    {
      "channel": 0,
      "note": 53,
      "start": 12.8374,
      "duration": 0.027,
      "velocity": 100,
      "chip": "ym2612"
    },
    {
      "channel": 1,
      "note": 65,
      "start": 12.838,
      "duration": 0.0267,
      "velocity": 98,
      "chip": "ym2612"
    },
    {
      "channel": 0,
      "note": 54,
      "start": 13.0532,
      "duration": 0.0281,
      "velocity": 100,
      "chip": "ym2612"
    },
    {
      "channel": 1,
      "note": 66,
      "start": 13.0537,
      "duration": 0.0279,
      "velocity": 98,
      "chip": "ym2612"
    },
    {
      "channel": 0,
      "note": 50,
      "start": 13.0917,
      "duration": 0.1972,
      "velocity": 100,
      "chip": "ym2612"
    },
    {
      "channel": 1,
      "note": 62,
      "start": 13.0924,
      "duration": 0.1968,
      "velocity": 98,
      "chip": "ym2612"
    },
    {
      "channel": 2,
      "note": 86,
      "start": 13.0965,
      "duration": 0.6949,
      "velocity": 94,
      "chip": "ym2612"
    },
    {
      "channel": 3,
      "note": 78,
      "start": 13.0978,
      "duration": 0.0247,
      "velocity": 125,
      "chip": "ym2612"
    },
    {
      "channel": 3,
      "note": 90,
      "start": 13.1304,
      "duration": 0.1594,
      "velocity": 125,
      "chip": "ym2612"
    },
    {
      "channel": 4,
      "note": 74,
      "start": 13.189,
      "duration": 0.6523,
      "velocity": 94,
      "chip": "ym2612"
    },
    {
      "channel": 1,
      "note": 62,
      "start": 13.3072,
      "duration": 0.1592,
      "velocity": 98,
      "chip": "ym2612"
    },
    {
      "channel": 3,
      "note": 86,
      "start": 13.3081,
      "duration": 0.159,
      "velocity": 125,
      "chip": "ym2612"
    },
    {
      "channel": 0,
      "note": 50,
      "start": 13.4841,
      "duration": 0.0245,
      "velocity": 100,
      "chip": "ym2612"
    },
    {
      "channel": 1,
      "note": 62,
      "start": 13.4846,
      "duration": 0.0242,
      "velocity": 98,
      "chip": "ym2612"
    },
    {
      "channel": 3,
      "note": 81,
      "start": 13.4855,
      "duration": 0.1969,
      "velocity": 125,
      "chip": "ym2612"
    },
    {
      "channel": 1,
      "note": 61,
      "start": 13.5225,
      "duration": 0.0351,
      "velocity": 98,
      "chip": "ym2612"
    },
    {
      "channel": 0,
      "note": 50,
      "start": 13.6994,
      "duration": 0.0245,
      "velocity": 100,
      "chip": "ym2612"
    },
    {
      "channel": 1,
      "note": 62,
      "start": 13.6999,
      "duration": 0.0242,
      "velocity": 98,
      "chip": "ym2612"
    },
    {
      "channel": 3,
      "note": 74,
      "start": 13.7008,
      "duration": 0.0629,
      "velocity": 125,
      "chip": "ym2612"
    },
    {
      "channel": 0,
      "note": 50,
      "start": 13.7386,
      "duration": 0.0521,
      "velocity": 100,
      "chip": "ym2612"
    },
    {
      "channel": 1,
      "note": 62,
      "start": 13.7393,
      "duration": 0.0517,
      "velocity": 98,
      "chip": "ym2612"
    },
    {
      "channel": 3,
      "note": 78,
      "start": 13.7667,
      "duration": 0.0251,
      "velocity": 125,
      "chip": "ym2612"
    },
    {
      "channel": 0,
      "note": 50,
      "start": 13.7947,
      "duration": 0.0249,
      "velocity": 100,
      "chip": "ym2612"
    },
    {
      "channel": 1,
      "note": 62,
      "start": 13.7954,
      "duration": 0.0634,
      "velocity": 98,
      "chip": "ym2612"
    },
    {
      "channel": 2,
      "note": 90,
      "start": 13.7959,
      "duration": 0.6999,
      "velocity": 94,
      "chip": "ym2612"
    },
    {
      "channel": 3,
      "note": 81,
      "start": 13.7968,
      "duration": 0.0236,
      "velocity": 125,
      "chip": "ym2612"
    },
    {
      "channel": 0,
      "note": 50,
      "start": 13.8327,
      "duration": 0.0258,
      "velocity": 100,
      "chip": "ym2612"
    },
    {
      "channel": 3,
      "note": 90,
      "start": 13.8338,
      "duration": 0.0256,
      "velocity": 125,
      "chip": "ym2612"
    },
    {
      "channel": 4,
      "note": 86,
      "start": 13.8442,
      "duration": 0.7007,
      "velocity": 94,
      "chip": "ym2612"
    },
    {
      "channel": 1,
      "note": 62,
      "start": 13.8719,
      "duration": 0.16,
      "velocity": 98,
      "chip": "ym2612"
    },
    {
      "channel": 3,
      "note": 86,
      "start": 13.8728,
      "duration": 0.1597,
      "velocity": 125,
      "chip": "ym2612"
    },
    {
      "channel": 0,
      "note": 50,
      "start": 14.0488,
      "duration": 0.1976,
      "velocity": 100,
      "chip": "ym2612"
    },
    {
      "channel": 1,
      "note": 62,
      "start": 14.0493,
      "duration": 0.0241,
      "velocity": 98,
      "chip": "ym2612"
    },
    {
      "channel": 3,
      "note": 81,
      "start": 14.0502,
      "duration": 0.1971,
      "velocity": 125,
      "chip": "ym2612"
    },
    {
      "channel": 1,
      "note": 61,
      "start": 14.0873,
      "duration": 0.0352,
      "velocity": 98,
      "chip": "ym2612"
    },
    {
      "channel": 0,
      "note": 50,
      "start": 14.2644,
      "duration": 0.1592,
      "velocity": 100,
      "chip": "ym2612"
    },
    {
      "channel": 1,
      "note": 62,
      "start": 14.2649,
      "duration": 0.159,
      "velocity": 98,
      "chip": "ym2612"
    },
    {
      "channel": 3,
      "note": 74,
      "start": 14.2658,
      "duration": 0.2024,
      "velocity": 125,
      "chip": "ym2612"
    },
    {
      "channel": 0,
      "note": 51,
      "start": 14.4415,
      "duration": 0.0537,
      "velocity": 100,
      "chip": "ym2612"
    },
    {
      "channel": 1,
      "note": 63,
      "start": 14.4434,
      "duration": 0.052,
      "velocity": 98,
      "chip": "ym2612"
    },
    {
      "channel": 3,
      "note": 78,
      "start": 14.4711,
      "duration": 0.0251,
      "velocity": 125,
      "chip": "ym2612"
    },
    {
      "channel": 0,
      "note": 52,
      "start": 14.4989,
      "duration": 0.0253,
      "velocity": 100,
      "chip": "ym2612"
    },
    {
      "channel": 1,
      "note": 64,
      "start": 14.4996,
      "duration": 0.0632,
      "velocity": 98,
      "chip": "ym2612"
    },
    {
      "channel": 2,
      "note": 88,
      "start": 14.5001,
      "duration": 0.5606,
      "velocity": 94,
      "chip": "ym2612"
    },
    {
      "channel": 3,
      "note": 81,
      "start": 14.5012,
      "duration": 0.0237,
      "velocity": 125,
      "chip": "ym2612"
    },
    {
      "channel": 0,
      "note": 52,
      "start": 14.537,
      "duration": 0.0256,
      "velocity": 100,
      "chip": "ym2612"
    },
    {
      "channel": 3,
      "note": 92,
      "start": 14.538,
      "duration": 0.0254,
      "velocity": 125,
      "chip": "ym2612"
    },
    {
      "channel": 4,
      "note": 90,
      "start": 14.5482,
      "duration": 0.5612,
      "velocity": 94,
      "chip": "ym2612"
    },
    {
      "channel": 1,
      "note": 64,
      "start": 14.5759,
      "duration": 0.1603,
      "velocity": 98,
      "chip": "ym2612"
    },
    {
      "channel": 3,
      "note": 88,
      "start": 14.5768,
      "duration": 0.16,
      "velocity": 125,
      "chip": "ym2612"
    },
    {
      "channel": 0,
      "note": 52,
      "start": 14.7532,
      "duration": 0.1971,
      "velocity": 100,
      "chip": "ym2612"
    },
    {
      "channel": 1,
      "note": 64,
      "start": 14.7538,
      "duration": 0.0241,
      "velocity": 98,
      "chip": "ym2612"
    },
    {
      "channel": 3,
      "note": 83,
      "start": 14.7547,
      "duration": 0.1966,
      "velocity": 125,
      "chip": "ym2612"
    },
    {
      "channel": 1,
      "note": 61,
      "start": 14.7913,
      "duration": 0.0352,
      "velocity": 98,
      "chip": "ym2612"
    },
    {
      "channel": 0,
      "note": 52,
      "start": 14.9683,
      "duration": 0.0246,
      "velocity": 100,
      "chip": "ym2612"
    },
    {
      "channel": 1,
      "note": 64,
      "start": 14.9688,
      "duration": 0.0244,
      "velocity": 98,
      "chip": "ym2612"
    },
    {
      "channel": 3,
      "note": 76,
      "start": 14.9698,
      "duration": 0.0633,
      "velocity": 125,
      "chip": "ym2612"
    },
    {
      "channel": 0,
      "note": 52,
      "start": 15.0063,
      "duration": 0.0537,
      "velocity": 100,
      "chip": "ym2612"
    },
    {
      "channel": 1,
      "note": 64,
      "start": 15.007,
      "duration": 0.0534,
      "velocity": 98,
      "chip": "ym2612"
    },
    {
      "channel": 3,
      "note": 80,
      "start": 15.036,
      "duration": 0.0251,
      "velocity": 125,
      "chip": "ym2612"
    },
    {
      "channel": 0,
      "note": 52,
      "start": 15.064,
      "duration": 0.0253,
      "velocity": 100,
      "chip": "ym2612"
    },
    {
      "channel": 1,
      "note": 64,
      "start": 15.0647,
      "duration": 0.0635,
      "velocity": 98,
      "chip": "ym2612"
    },
    {
      "channel": 2,
      "note": 92,
      "start": 15.0653,
      "duration": 0.0246,
      "velocity": 94,
      "chip": "ym2612"
    },
    {
      "channel": 3,
      "note": 83,
      "start": 15.0663,
      "duration": 0.0239,
      "velocity": 125,
      "chip": "ym2612"
    },
    {
      "channel": 0,
      "note": 52,
      "start": 15.1021,
      "duration": 0.0259,
      "velocity": 100,
      "chip": "ym2612"
    },
    {
      "channel": 2,
      "note": 93,
      "start": 15.1029,
      "duration": 0.0257,
      "velocity": 94,
      "chip": "ym2612"
    },
    {
      "channel": 3,
      "note": 80,
      "start": 15.1035,
      "duration": 0.0254,
      "velocity": 125,
      "chip": "ym2612"
    },
    {
      "channel": 4,
      "note": 88,
      "start": 15.1136,
      "duration": 0.0634,
      "velocity": 94,
      "chip": "ym2612"
    },
    {
      "channel": 1,
      "note": 64,
      "start": 15.1411,
      "duration": 0.1592,
      "velocity": 98,
      "chip": "ym2612"
    },
    {
      "channel": 2,
      "note": 92,
      "start": 15.1416,
      "duration": 0.1589,
      "velocity": 94,
      "chip": "ym2612"
    },
    {
      "channel": 3,
      "note": 76,
      "start": 15.1422,
      "duration": 0.1586,
      "velocity": 125,
      "chip": "ym2612"
    },
    {
      "channel": 4,
      "note": 92,
      "start": 15.1949,
      "duration": 0.1315,
      "velocity": 94,
      "chip": "ym2612"
    },
    {
      "channel": 0,
      "note": 52,
      "start": 15.319,
      "duration": 0.1965,
      "velocity": 100,
      "chip": "ym2612"
    },
    {
      "channel": 1,
      "note": 64,
      "start": 15.3195,
      "duration": 0.0243,
      "velocity": 98,
      "chip": "ym2612"
    },
    {
      "channel": 2,
      "note": 88,
      "start": 15.3201,
      "duration": 0.196,
      "velocity": 94,
      "chip": "ym2612"
    },
    {
      "channel": 3,
      "note": 71,
      "start": 15.3207,
      "duration": 0.1957,
      "velocity": 125,
      "chip": "ym2612"
    },
    {
      "channel": 4,
      "note": 93,
      "start": 15.3293,
      "duration": 0.0631,
      "velocity": 94,
      "chip": "ym2612"
    },
    {
      "channel": 1,
      "note": 61,
      "start": 15.3564,
      "duration": 0.0352,
      "velocity": 98,
      "chip": "ym2612"
    },
    {
      "channel": 4,
      "note": 92,
      "start": 15.4105,
      "duration": 0.1696,
      "velocity": 94,
      "chip": "ym2612"
    },
    {
      "channel": 0,
      "note": 52,
      "start": 15.5334,
      "duration": 0.0242,
      "velocity": 100,
      "chip": "ym2612"
    },
    {
      "channel": 1,
      "note": 64,
      "start": 15.5339,
      "duration": 0.024,
      "velocity": 98,
      "chip": "ym2612"
    },
    {
      "channel": 2,
      "note": 73,
      "start": 15.5344,
      "duration": 0.0633,
      "velocity": 94,
      "chip": "ym2612"
    },
    {
      "channel": 3,
      "note": 64,
      "start": 15.5351,
      "duration": 0.063,
      "velocity": 125,
      "chip": "ym2612"
    },
    {
      "channel": 0,
      "note": 51,
      "start": 15.5714,
      "duration": 0.0533,
      "velocity": 100,
      "chip": "ym2612"
    },
    {
      "channel": 1,
      "note": 63,
      "start": 15.5723,
      "duration": 0.0527,
      "velocity": 98,
      "chip": "ym2612"
    },
    {
      "channel": 4,
      "note": 88,
      "start": 15.583,
      "duration": 0.0548,
      "velocity": 94,
      "chip": "ym2612"
    },
    {
      "channel": 2,
      "note": 76,
      "start": 15.6007,
      "duration": 0.0246,
      "velocity": 94,
      "chip": "ym2612"
    },
    {
      "channel": 3,
      "note": 68,
      "start": 15.6013,
      "duration": 0.0243,
      "velocity": 125,
      "chip": "ym2612"
    },
    {
      "channel": 0,
      "note": 50,
      "start": 15.6293,
      "duration": 0.0258,
      "velocity": 100,
      "chip": "ym2612"
    },
    {
      "channel": 1,
      "note": 62,
      "start": 15.63,
      "duration": 0.0631,
      "velocity": 98,
      "chip": "ym2612"
    },
    {
      "channel": 2,
      "note": 74,
      "start": 15.6305,
      "duration": 0.5606,
      "velocity": 94,
      "chip": "ym2612"
    },
    {
      "channel": 3,
      "note": 71,
      "start": 15.6318,
      "duration": 0.024,
      "velocity": 125,
      "chip": "ym2612"
    },
    {
      "channel": 4,
      "note": 73,
      "start": 15.6408,
      "duration": 0.0335,
      "velocity": 94,
      "chip": "ym2612"
    },
    {
      "channel": 0,
      "note": 50,
      "start": 15.6674,
      "duration": 0.0253,
      "velocity": 100,
      "chip": "ym2612"
    },
    {
      "channel": 3,
      "note": 78,
      "start": 15.6685,
      "duration": 0.0252,
      "velocity": 125,
      "chip": "ym2612"
    },
    {
      "channel": 4,
      "note": 76,
      "start": 15.6771,
      "duration": 0.5626,
      "velocity": 94,
      "chip": "ym2612"
    },
    {
      "channel": 1,
      "note": 62,
      "start": 15.7064,
      "duration": 0.1591,
      "velocity": 98,
      "chip": "ym2612"
    },
    {
      "channel": 3,
      "note": 74,
      "start": 15.7073,
      "duration": 0.1589,
      "velocity": 125,
      "chip": "ym2612"
    },
    {
      "channel": 0,
      "note": 50,
      "start": 15.8832,
      "duration": 0.1976,
      "velocity": 100,
      "chip": "ym2612"
    },
    {
      "channel": 1,
      "note": 62,
      "start": 15.8848,
      "duration": 0.0241,
      "velocity": 98,
      "chip": "ym2612"
    },
    {
      "channel": 3,
      "note": 69,
      "start": 15.8857,
      "duration": 0.196,
      "velocity": 125,
      "chip": "ym2612"
    },
    {
      "channel": 1,
      "note": 61,
      "start": 15.9218,
      "duration": 0.0352,
      "velocity": 98,
      "chip": "ym2612"
    },
    {
      "channel": 0,
      "note": 50,
      "start": 16.0987,
      "duration": 0.0246,
      "velocity": 100,
      "chip": "ym2612"
    },
    {
      "channel": 1,
      "note": 62,
      "start": 16.0993,
      "duration": 0.0244,
      "velocity": 98,
      "chip": "ym2612"
    },
    {
      "channel": 3,
      "note": 62,
      "start": 16.1002,
      "duration": 0.0634,
      "velocity": 125,
      "chip": "ym2612"
    },
    {
      "channel": 0,
      "note": 50,
      "start": 16.1368,
      "duration": 0.0537,
      "velocity": 100,
      "chip": "ym2612"
    },
    {
      "channel": 1,
      "note": 62,
      "start": 16.1375,
      "duration": 0.0533,
      "velocity": 98,
      "chip": "ym2612"
    },
    {
      "channel": 3,
      "note": 66,
      "start": 16.1665,
      "duration": 0.025,
      "velocity": 125,
      "chip": "ym2612"
    },
    {
      "channel": 0,
      "note": 50,
      "start": 16.195,
      "duration": 0.025,
      "velocity": 100,
      "chip": "ym2612"
    },
    {
      "channel": 1,
      "note": 62,
      "start": 16.1956,
      "duration": 0.0632,
      "velocity": 98,
      "chip": "ym2612"
    },
    {
      "channel": 2,
      "note": 78,
      "start": 16.1962,
      "duration": 0.56,
      "velocity": 94,
      "chip": "ym2612"
    },
    {
      "channel": 3,
      "note": 69,
      "start": 16.1969,
      "duration": 0.0238,
      "velocity": 125,
      "chip": "ym2612"
    },
    {
      "channel": 0,
      "note": 50,
      "start": 16.2327,
      "duration": 0.0258,
      "velocity": 100,
      "chip": "ym2612"
    },
    {
      "channel": 3,
      "note": 78,
      "start": 16.2338,
      "duration": 0.0256,
      "velocity": 125,
      "chip": "ym2612"
    },
    {
      "channel": 4,
      "note": 74,
      "start": 16.2426,
      "duration": 0.563,
      "velocity": 94,
      "chip": "ym2612"
    },
    {
      "channel": 1,
      "note": 62,
      "start": 16.272,
      "duration": 0.1592,
      "velocity": 98,
      "chip": "ym2612"
    },
    {
      "channel": 3,
      "note": 74,
      "start": 16.2729,
      "duration": 0.1589,
      "velocity": 125,
      "chip": "ym2612"
    },
    {
      "channel": 0,
      "note": 50,
      "start": 16.4488,
      "duration": 0.1981,
      "velocity": 100,
      "chip": "ym2612"
    },
    {
      "channel": 1,
      "note": 62,
      "start": 16.4493,
      "duration": 0.0257,
      "velocity": 98,
      "chip": "ym2612"
    },
    {
      "channel": 3,
      "note": 69,
      "start": 16.4513,
      "duration": 0.1966,
      "velocity": 125,
      "chip": "ym2612"
    },
    {
      "channel": 1,
      "note": 61,
      "start": 16.4879,
      "duration": 0.0352,
      "velocity": 98,
      "chip": "ym2612"
    },
    {
      "channel": 0,
      "note": 50,
      "start": 16.6649,
      "duration": 0.0247,
      "velocity": 100,
      "chip": "ym2612"
    },
    {
      "channel": 1,
      "note": 62,
      "start": 16.6654,
      "duration": 0.0244,
      "velocity": 98,
      "chip": "ym2612"
    },
    {
      "channel": 3,
      "note": 62,
      "start": 16.6663,
      "duration": 0.0633,
      "velocity": 125,
      "chip": "ym2612"
    },
    {
      "channel": 0,
      "note": 54,
      "start": 16.703,
      "duration": 0.0526,
      "velocity": 100,
      "chip": "ym2612"
    },
    {
      "channel": 1,
      "note": 57,
      "start": 16.7038,
      "duration": 0.052,
      "velocity": 98,
      "chip": "ym2612"
    },
    {
      "channel": 3,
      "note": 66,
      "start": 16.7326,
      "duration": 0.025,
      "velocity": 125,
      "chip": "ym2612"
    },
    {
      "channel": 0,
      "note": 49,
      "start": 16.7616,
      "duration": 0.0251,
      "velocity": 100,
      "chip": "ym2612"
    },
    {
      "channel": 1,
      "note": 61,
      "start": 16.7623,
      "duration": 0.0624,
      "velocity": 98,
      "chip": "ym2612"
    },
    {
      "channel": 2,
      "note": 80,
      "start": 16.7628,
      "duration": 0.5587,
      "velocity": 94,
      "chip": "ym2612"
    },
    {
      "channel": 3,
      "note": 69,
      "start": 16.7637,
      "duration": 0.0238,
      "velocity": 125,
      "chip": "ym2612"
    },
    {
      "channel": 0,
      "note": 49,
      "start": 16.7987,
      "duration": 0.0258,
      "velocity": 100,
      "chip": "ym2612"
    },
    {
      "channel": 3,
      "note": 77,
      "start": 16.7998,
      "duration": 0.0256,
      "velocity": 125,
      "chip": "ym2612"
    },
    {
      "channel": 4,
      "note": 78,
      "start": 16.8085,
      "duration": 0.5613,
      "velocity": 94,
      "chip": "ym2612"
    },
    {
      "channel": 1,
      "note": 61,
      "start": 16.8378,
      "duration": 0.1592,
      "velocity": 98,
      "chip": "ym2612"
    },
    {
      "channel": 3,
      "note": 73,
      "start": 16.8388,
      "duration": 0.1589,
      "velocity": 125,
      "chip": "ym2612"
    },
    {
      "channel": 0,
      "note": 49,
      "start": 17.0147,
      "duration": 0.1985,
      "velocity": 100,
      "chip": "ym2612"
    },
    {
      "channel": 1,
      "note": 61,
      "start": 17.0153,
      "duration": 0.0257,
      "velocity": 98,
      "chip": "ym2612"
    },
    {
      "channel": 3,
      "note": 68,
      "start": 17.0161,
      "duration": 0.198,
      "velocity": 125,
      "chip": "ym2612"
    },
    {
      "channel": 1,
      "note": 61,
      "start": 17.0538,
      "duration": 0.0352,
      "velocity": 98,
      "chip": "ym2612"
    },
    {
      "channel": 0,
      "note": 49,
      "start": 17.2307,
      "duration": 0.0246,
      "velocity": 100,
      "chip": "ym2612"
    },
    {
      "channel": 1,
      "note": 61,
      "start": 17.2313,
      "duration": 0.0244,
      "velocity": 98,
      "chip": "ym2612"
    },
    {
      "channel": 3,
      "note": 61,
      "start": 17.2322,
      "duration": 0.0631,
      "velocity": 125,
      "chip": "ym2612"
    },
    {
      "channel": 0,
      "note": 49,
      "start": 17.2688,
      "duration": 0.052,
      "velocity": 100,
      "chip": "ym2612"
    },
    {
      "channel": 1,
      "note": 61,
      "start": 17.2695,
      "duration": 0.0517,
      "velocity": 98,
      "chip": "ym2612"
    },
    {
      "channel": 3,
      "note": 65,
      "start": 17.2981,
      "duration": 0.0237,
      "velocity": 125,
      "chip": "ym2612"
    },
    {
      "channel": 0,
      "note": 61,
      "start": 17.3242,
      "duration": 0.0259,
      "velocity": 100,
      "chip": "ym2612"
    },
    {
      "channel": 1,
      "note": 61,
      "start": 17.326,
      "duration": 0.0627,
      "velocity": 98,
      "chip": "ym2612"
    },
    {
      "channel": 2,
      "note": 85,
      "start": 17.3265,
      "duration": 0.0241,
      "velocity": 94,
      "chip": "ym2612"
    },
    {
      "channel": 3,
      "note": 68,
      "start": 17.3271,
      "duration": 0.0238,
      "velocity": 125,
      "chip": "ym2612"
    },
    {
      "channel": 0,
      "note": 68,
      "start": 17.3626,
      "duration": 0.0258,
      "velocity": 100,
      "chip": "ym2612"
    },
    {
      "channel": 2,
      "note": 92,
      "start": 17.3633,
      "duration": 0.0256,
      "velocity": 94,
      "chip": "ym2612"
    },
    {
      "channel": 3,
      "note": 85,
      "start": 17.364,
      "duration": 0.0253,
      "velocity": 125,
      "chip": "ym2612"
    },
    {
      "channel": 4,
      "note": 80,
      "start": 17.3727,
      "duration": 0.0646,
      "velocity": 94,
      "chip": "ym2612"
    },
    {
      "channel": 0,
      "note": 57,
      "start": 17.401,
      "duration": 0.1593,
      "velocity": 100,
      "chip": "ym2612"
    },
    {
      "channel": 1,
      "note": 61,
      "start": 17.4016,
      "duration": 0.159,
      "velocity": 98,
      "chip": "ym2612"
    },
    {
      "channel": 2,
      "note": 81,
      "start": 17.4021,
      "duration": 0.1587,
      "velocity": 94,
      "chip": "ym2612"
    },
    {
      "channel": 3,
      "note": 92,
      "start": 17.4027,
      "duration": 0.1584,
      "velocity": 125,
      "chip": "ym2612"
    },
    {
      "channel": 4,
      "note": 85,
      "start": 17.4553,
      "duration": 0.1321,
      "velocity": 94,
      "chip": "ym2612"
    },
    {
      "channel": 0,
      "note": 66,
      "start": 17.5783,
      "duration": 0.0263,
      "velocity": 100,
      "chip": "ym2612"
    },
    {
      "channel": 1,
      "note": 61,
      "start": 17.5788,
      "duration": 0.0261,
      "velocity": 98,
      "chip": "ym2612"
    },
    {
      "channel": 2,
      "note": 90,
      "start": 17.5793,
      "duration": 0.0258,
      "velocity": 94,
      "chip": "ym2612"
    },
    {
      "channel": 3,
      "note": 81,
      "start": 17.58,
      "duration": 0.0255,
      "velocity": 125,
      "chip": "ym2612"
    },
    {
      "channel": 4,
      "note": 92,
      "start": 17.5902,
      "duration": 0.0633,
      "velocity": 94,
      "chip": "ym2612"
    },
    {
      "channel": 0,
      "note": 54,
      "start": 17.6172,
      "duration": 0.1603,
      "velocity": 100,
      "chip": "ym2612"
    },
    {
      "channel": 1,
      "note": 61,
      "start": 17.6177,
      "duration": 0.0349,
      "velocity": 98,
      "chip": "ym2612"
    },
    {
      "channel": 2,
      "note": 78,
      "start": 17.6183,
      "duration": 0.1598,
      "velocity": 94,
      "chip": "ym2612"
    },
    {
      "channel": 3,
      "note": 90,
      "start": 17.6189,
      "duration": 0.1595,
      "velocity": 125,
      "chip": "ym2612"
    },
    {
      "channel": 4,
      "note": 81,
      "start": 17.6715,
      "duration": 0.1305,
      "velocity": 94,
      "chip": "ym2612"
    },
    {
      "channel": 0,
      "note": 65,
      "start": 17.7945,
      "duration": 0.0247,
      "velocity": 100,
      "chip": "ym2612"
    },
    {
      "channel": 1,
      "note": 61,
      "start": 17.795,
      "duration": 0.0245,
      "velocity": 98,
      "chip": "ym2612"
    },
    {
      "channel": 2,
      "note": 89,
      "start": 17.7956,
      "duration": 0.0242,
      "velocity": 94,
      "chip": "ym2612"
    },
    {
      "channel": 3,
      "note": 78,
      "start": 17.7962,
      "duration": 0.0239,
      "velocity": 125,
      "chip": "ym2612"
    },
    {
      "channel": 4,
      "note": 90,
      "start": 17.8049,
      "duration": 0.0357,
      "velocity": 94,
      "chip": "ym2612"
    },
    {
      "channel": 0,
      "note": 50,
      "start": 17.8328,
      "duration": 0.0265,
      "velocity": 100,
      "chip": "ym2612"
    },
    {
      "channel": 1,
      "note": 61,
      "start": 17.8337,
      "duration": 0.0525,
      "velocity": 98,
      "chip": "ym2612"
    },
    {
      "channel": 2,
      "note": 74,
      "start": 17.8342,
      "duration": 0.0522,
      "velocity": 94,
      "chip": "ym2612"
    },
    {
      "channel": 3,
      "note": 89,
      "start": 17.8348,
      "duration": 0.0519,
      "velocity": 125,
      "chip": "ym2612"
    },
    {
      "channel": 4,
      "note": 78,
      "start": 17.8434,
      "duration": 0.0249,
      "velocity": 94,
      "chip": "ym2612"
    },
    {
      "channel": 0,
      "note": 62,
      "start": 17.8621,
      "duration": 0.0107,
      "velocity": 100,
      "chip": "ym2612"
    },
    {
      "channel": 4,
      "note": 89,
      "start": 17.8712,
      "duration": 0.0652,
      "velocity": 94,
      "chip": "ym2612"
    },
    {
      "channel": 0,
      "note": 62,
      "start": 17.8756,
      "duration": 0.0102,
      "velocity": 100,
      "chip": "ym2612"
    },
    {
      "channel": 0,
      "note": 49,
      "start": 17.8904,
      "duration": 0.0264,
      "velocity": 100,
      "chip": "ym2612"
    },
    {
      "channel": 1,
      "note": 71,
      "start": 17.8911,
      "duration": 0.026,
      "velocity": 98,
      "chip": "ym2612"
    },
    {
      "channel": 2,
      "note": 81,
      "start": 17.8927,
      "duration": 0.2162,
      "velocity": 94,
      "chip": "ym2612"
    },
    {
      "channel": 3,
      "note": 74,
      "start": 17.8935,
      "duration": 0.0622,
      "velocity": 125,
      "chip": "ym2612"
    },
    {
      "channel": 0,
      "note": 49,
      "start": 17.9293,
      "duration": 0.0255,
      "velocity": 100,
      "chip": "ym2612"
    },
    {
      "channel": 1,
      "note": 71,
      "start": 17.93,
      "duration": 0.0251,
      "velocity": 98,
      "chip": "ym2612"
    },
    {
      "channel": 4,
      "note": 74,
      "start": 17.9392,
      "duration": 0.2189,
      "velocity": 94,
      "chip": "ym2612"
    },
    {
      "channel": 0,
      "note": 49,
      "start": 17.9678,
      "duration": 0.0251,
      "velocity": 100,
      "chip": "ym2612"
    },
    {
      "channel": 1,
      "note": 71,
      "start": 17.9685,
      "duration": 0.0246,
      "velocity": 98,
      "chip": "ym2612"
    },
    {
      "channel": 3,
      "note": 78,
      "start": 17.9693,
      "duration": 0.0161,
      "velocity": 125,
      "chip": "ym2612"
    },
    {
      "channel": 3,
      "note": 78,
      "start": 17.9883,
      "duration": 0.0284,
      "velocity": 125,
      "chip": "ym2612"
    },
    {
      "channel": 0,
      "note": 49,
      "start": 18.0059,
      "duration": 0.0261,
      "velocity": 100,
      "chip": "ym2612"
    },
    {
      "channel": 1,
      "note": 71,
      "start": 18.0066,
      "duration": 0.0257,
      "velocity": 98,
      "chip": "ym2612"
    },
    {
      "channel": 3,
      "note": 78,
      "start": 18.0196,
      "duration": 0.0133,
      "velocity": 125,
      "chip": "ym2612"
    },
    {
      "channel": 0,
      "note": 49,
      "start": 18.0445,
      "duration": 0.0252,
      "velocity": 100,
      "chip": "ym2612"
    },
    {
      "channel": 1,
      "note": 71,
      "start": 18.0452,
      "duration": 0.0248,
      "velocity": 98,
      "chip": "ym2612"
    },
    {
      "channel": 3,
      "note": 78,
      "start": 18.0462,
      "duration": 0.0631,
      "velocity": 125,
      "chip": "ym2612"
    },
    {
      "channel": 0,
      "note": 49,
      "start": 18.0839,
      "duration": 0.0245,
      "velocity": 100,
      "chip": "ym2612"
    },
    {
      "channel": 1,
      "note": 71,
      "start": 18.0846,
      "duration": 0.0241,
      "velocity": 98,
      "chip": "ym2612"
    },
    {
      "channel": 0,
      "note": 49,
      "start": 18.1214,
      "duration": 0.0265,
      "velocity": 100,
      "chip": "ym2612"
    },
    {
      "channel": 1,
      "note": 71,
      "start": 18.1221,
      "duration": 0.0261,
      "velocity": 98,
      "chip": "ym2612"
    },
    {
      "channel": 2,
      "note": 81,
      "start": 18.1226,
      "duration": 0.0536,
      "velocity": 94,
      "chip": "ym2612"
    },
    {
      "channel": 3,
      "note": 78,
      "start": 18.1232,
      "duration": 0.0173,
      "velocity": 125,
      "chip": "ym2612"
    },
    {
      "channel": 3,
      "note": 78,
      "start": 18.1434,
      "duration": 0.0171,
      "velocity": 125,
      "chip": "ym2612"
    },
    {
      "channel": 0,
      "note": 49,
      "start": 18.1509,
      "duration": 0.0248,
      "velocity": 100,
      "chip": "ym2612"
    },
    {
      "channel": 1,
      "note": 71,
      "start": 18.1516,
      "duration": 0.0244,
      "velocity": 98,
      "chip": "ym2612"
    },
    {
      "channel": 4,
      "note": 81,
      "start": 18.1611,
      "duration": 0.0736,
      "velocity": 94,
      "chip": "ym2612"
    },
    {
      "channel": 3,
      "note": 78,
      "start": 18.1637,
      "duration": 0.0129,
      "velocity": 125,
      "chip": "ym2612"
    },
    {
      "channel": 0,
      "note": 49,
      "start": 18.189,
      "duration": 0.0262,
      "velocity": 100,
      "chip": "ym2612"
    },
    {
      "channel": 1,
      "note": 73,
      "start": 18.1896,
      "duration": 0.0258,
      "velocity": 98,
      "chip": "ym2612"
    },
    {
      "channel": 2,
      "note": 83,
      "start": 18.1902,
      "duration": 0.2751,
      "velocity": 94,
      "chip": "ym2612"
    },
    {
      "channel": 3,
      "note": 78,
      "start": 18.192,
      "duration": 0.062,
      "velocity": 125,
      "chip": "ym2612"
    },
    {
      "channel": 0,
      "note": 49,
      "start": 18.2279,
      "duration": 0.0253,
      "velocity": 100,
      "chip": "ym2612"
    },
    {
      "channel": 1,
      "note": 73,
      "start": 18.2284,
      "duration": 0.025,
      "velocity": 98,
      "chip": "ym2612"
    },
    {
      "channel": 4,
      "note": 81,
      "start": 18.2376,
      "duration": 0.306,
      "velocity": 94,
      "chip": "ym2612"
    },
    {
      "channel": 0,
      "note": 49,
      "start": 18.2664,
      "duration": 0.0248,
      "velocity": 100,
      "chip": "ym2612"
    },
    {
      "channel": 1,
      "note": 73,
      "start": 18.2669,
      "duration": 0.0245,
      "velocity": 98,
      "chip": "ym2612"
    },
    {
      "channel": 3,
      "note": 80,
      "start": 18.2678,
      "duration": 0.0159,
      "velocity": 125,
      "chip": "ym2612"
    },
    {
      "channel": 3,
      "note": 80,
      "start": 18.2866,
      "duration": 0.0271,
      "velocity": 125,
      "chip": "ym2612"
    },
    {
      "channel": 0,
      "note": 49,
      "start": 18.3045,
      "duration": 0.0258,
      "velocity": 100,
      "chip": "ym2612"
    },
    {
      "channel": 1,
      "note": 73,
      "start": 18.3051,
      "duration": 0.0255,
      "velocity": 98,
      "chip": "ym2612"
    },
    {
      "channel": 3,
      "note": 80,
      "start": 18.318,
      "duration": 0.0133,
      "velocity": 125,
      "chip": "ym2612"
    },
    {
      "channel": 0,
      "note": 49,
      "start": 18.3431,
      "duration": 0.0117,
      "velocity": 100,
      "chip": "ym2612"
    },
    {
      "channel": 1,
      "note": 73,
      "start": 18.3437,
      "duration": 0.087,
      "velocity": 98,
      "chip": "ym2612"
    },
    {
      "channel": 3,
      "note": 80,
      "start": 18.3445,
      "duration": 0.1212,
      "velocity": 125,
      "chip": "ym2612"
    },
    {
      "channel": 0,
      "note": 61,
      "start": 18.3576,
      "duration": 0.0109,
      "velocity": 100,
      "chip": "ym2612"
    },
    {
      "channel": 0,
      "note": 59,
      "start": 18.3716,
      "duration": 0.0122,
      "velocity": 100,
      "chip": "ym2612"
    },
    {
      "channel": 0,
      "note": 49,
      "start": 18.3875,
      "duration": 0.011,
      "velocity": 100,
      "chip": "ym2612"
    },
    {
      "channel": 0,
      "note": 56,
      "start": 18.4031,
      "duration": 0.0112,
      "velocity": 100,
      "chip": "ym2612"
    },
    {
      "channel": 0,
      "note": 49,
      "start": 18.4179,
      "duration": 0.0124,
      "velocity": 100,
      "chip": "ym2612"
    },
    {
      "channel": 0,
      "note": 54,
      "start": 18.4356,
      "duration": 0.015,
      "velocity": 100,
      "chip": "ym2612"
    },
    {
      "channel": 1,
      "note": 66,
      "start": 18.4397,
      "duration": 0.0112,
      "velocity": 98,
      "chip": "ym2612"
    },
    {
      "channel": 0,
      "note": 54,
      "start": 18.4535,
      "duration": 0.0113,
      "velocity": 100,
      "chip": "ym2612"
    },
    {
      "channel": 1,
      "note": 66,
      "start": 18.454,
      "duration": 0.011,
      "velocity": 98,
      "chip": "ym2612"
    },
    {
      "channel": 0,
      "note": 54,
      "start": 18.469,
      "duration": 0.0359,
      "velocity": 100,
      "chip": "ym2612"
    },
    {
      "channel": 1,
      "note": 66,
      "start": 18.4695,
      "duration": 0.0356,
      "velocity": 98,
      "chip": "ym2612"
    },
    {
      "channel": 2,
      "note": 88,
      "start": 18.4748,
      "duration": 24.3059,
      "velocity": 62,
      "chip": "ym2612"
    },
    {
      "channel": 3,
      "note": 80,
      "start": 18.481,
      "duration": 0.0247,
      "velocity": 125,
      "chip": "ym2612"
    },
    {
      "channel": 0,
      "note": 54,
      "start": 18.5096,
      "duration": 24.2711,
      "velocity": 100,
      "chip": "ym2612"
    },
    {
      "channel": 1,
      "note": 66,
      "start": 18.5102,
      "duration": 24.2706,
      "velocity": 98,
      "chip": "ym2612"
    },
    {
      "channel": 3,
      "note": 73,
      "start": 18.511,
      "duration": 24.2697,
      "velocity": 125,
      "chip": "ym2612"
    },
    {
      "channel": 4,
      "note": 83,
      "start": 18.5679,
      "duration": 24.2129,
      "velocity": 62,
      "chip": "ym2612"
    }
  ]
}