{
  "track_name": "11 - Arctic ~ 3D Stage",
  "duration_sec": 81.682,
  "sample_rate": 44100,
  "note_count": 2487,
  "unique_pitches": 34,
  "pitch_range": 62,
  "avg_note_duration": 0.1967,
  "reconstruction_stats": {
    "notes_reconstructed": 2487,
    "keyon_events": 2487,
    "keyoff_events": 2161,
    "orphan_keyons": 6,
    "unique_pitches": 34,
    "pitch_range": 62,
    "avg_duration_sec": 0.1967
  },
  "metadata": {
    "source": "G\\Gunship\\11 - Arctic ~ 3D Stage.vgz"
  },
  "notes": [
    {
      "channel": 0,
      "note": 52,
      "start": 0.0527,
      "duration": 0.0982,
      "velocity": 97,
      "chip": "ym2612"
    },
    {
      "channel": 1,
      "note": 52,
      "start": 0.0549,
      "duration": 0.3964,
      "velocity": 102,
      "chip": "ym2612"
    },
    {
      "channel": 2,
      "note": 74,
      "start": 0.0571,
      "duration": 6.3951,
      "velocity": 1,
      "chip": "ym2612"
    },
    {
      "channel": 4,
      "note": 74,
      "start": 0.0593,
      "duration": 6.3936,
      "velocity": 1,
      "chip": "ym2612"
    },
    {
      "channel": 5,
      "note": 74,
      "start": 0.0615,
      "duration": 6.392,
      "velocity": 1,
      "chip": "ym2612"
    },
    {
      "channel": 0,
      "note": 52,
      "start": 0.1511,
      "duration": 0.0997,
      "velocity": 97,
      "chip": "ym2612"
    },
    {
      "channel": 0,
      "note": 64,
      "start": 0.251,
      "duration": 0.0998,
      "velocity": 97,
      "chip": "ym2612"
    },
    {
      "channel": 3,
      "note": 28,
      "start": 0.2532,
      "duration": 0.0982,
      "velocity": 27,
      "chip": "ym2612"
    },
    {
      "channel": 0,
      "note": 64,
      "start": 0.351,
      "duration": 0.0998,
      "velocity": 97,
      "chip": "ym2612"
    },
    {
      "channel": 3,
      "note": 28,
      "start": 0.3517,
      "duration": 0.1003,
      "velocity": 27,
      "chip": "ym2612"
    },
    {
      "channel": 0,
      "note": 62,
      "start": 0.451,
      "duration": 0.0998,
      "velocity": 97,
      "chip": "ym2612"
    },
    {
      "channel": 1,
      "note": 64,
      "start": 0.4515,
      "duration": 0.1998,
      "velocity": 102,
      "chip": "ym2612"
    },
    {
      "channel": 3,
      "note": 40,
      "start": 0.4521,
      "duration": 0.0994,
      "velocity": 27,
      "chip": "ym2612"
    },
    {
      "channel": 0,
      "note": 62,
      "start": 0.551,
      "duration": 0.0998,
      "velocity": 97,
      "chip": "ym2612"
    },
    {
      "channel": 3,
      "note": 40,
      "start": 0.5517,
      "duration": 0.1003,
      "velocity": 27,
      "chip": "ym2612"
    },
    {
      "channel": 0,
      "note": 52,
      "start": 0.651,
      "duration": 0.0998,
      "velocity": 97,
      "chip": "ym2612"
    },
    {
      "channel": 1,
      "note": 48,
      "start": 0.6515,
      "duration": 0.3998,
      "velocity": 102,
      "chip": "ym2612"
    },
    {
      "channel": 3,
      "note": 28,
      "start": 0.6521,
      "duration": 0.101,
      "velocity": 27,
      "chip": "ym2612"
    },
    {
      "channel": 0,
      "note": 52,
      "start": 0.751,
      "duration": 0.0998,
      "velocity": 97,
      "chip": "ym2612"
    },
    {
      "channel": 3,
      "note": 28,
      "start": 0.7532,
      "duration": 0.0982,
      "velocity": 27,
      "chip": "ym2612"
    },
    {
      "channel": 0,
      "note": 64,
      "start": 0.851,
      "duration": 0.0998,
      "velocity": 97,
      "chip": "ym2612"
    },
    {
      "channel": 3,
      "note": 40,
      "start": 0.8517,
      "duration": 0.0998,
      "velocity": 27,
      "chip": "ym2612"
    },
    {
      "channel": 0,
      "note": 64,
      "start": 0.951,
      "duration": 0.0998,
      "velocity": 97,
      "chip": "ym2612"
    },
    {
      "channel": 3,
      "note": 40,
      "start": 0.9517,
      "duration": 0.1003,
      "velocity": 27,
      "chip": "ym2612"
    },
    {
      "channel": 0,
      "note": 62,
      "start": 1.051,
      "duration": 0.0998,
      "velocity": 97,
      "chip": "ym2612"
    },
    {
      "channel": 1,
      "note": 60,
      "start": 1.0515,
      "duration": 0.1998,
      "velocity": 102,
      "chip": "ym2612"
    },
    {
      "channel": 3,
      "note": 28,
      "start": 1.0521,
      "duration": 1.6015,
      "velocity": 27,
      "chip": "ym2612"
    },
    {
      "channel": 0,
      "note": 62,
      "start": 1.151,
      "duration": 0.0998,
      "velocity": 97,
      "chip": "ym2612"
    },
    {
      "channel": 0,
      "note": 52,
      "start": 1.251,
      "duration": 0.0998,
      "velocity": 97,
      "chip": "ym2612"
    },
    {
      "channel": 1,
      "note": 50,
      "start": 1.2515,
      "duration": 0.0998,
      "velocity": 102,
      "chip": "ym2612"
    },
    {
      "channel": 0,
      "note": 52,
      "start": 1.351,
      "duration": 0.0998,
      "velocity": 97,
      "chip": "ym2612"
    },
    {
      "channel": 1,
      "note": 57,
      "start": 1.3515,
      "duration": 0.0998,
      "velocity": 102,
      "chip": "ym2612"
    },
    {
      "channel": 0,
      "note": 64,
      "start": 1.451,
      "duration": 0.0998,
      "velocity": 97,
      "chip": "ym2612"
    },
    {
      "channel": 1,
      "note": 62,
      "start": 1.4515,
      "duration": 0.1998,
      "velocity": 102,
      "chip": "ym2612"
    },
    {
      "channel": 0,
      "note": 64,
      "start": 1.551,
      "duration": 0.0998,
      "velocity": 97,
      "chip": "ym2612"
    },
    {
      "channel": 0,
      "note": 62,
      "start": 1.651,
      "duration": 0.0998,
      "velocity": 97,
      "chip": "ym2612"
    },
    {
      "channel": 1,
      "note": 52,
      "start": 1.6515,
      "duration": 0.3998,
      "velocity": 102,
      "chip": "ym2612"
    },
    {
      "channel": 0,
      "note": 62,
      "start": 1.751,
      "duration": 0.0998,
      "velocity": 97,
      "chip": "ym2612"
    },
    {
      "channel": 0,
      "note": 52,
      "start": 1.8509,
      "duration": 0.0998,
      "velocity": 97,
      "chip": "ym2612"
    },
    {
      "channel": 0,
      "note": 52,
      "start": 1.9509,
      "duration": 0.0999,
      "velocity": 97,
      "chip": "ym2612"
    },
    {
      "channel": 0,
      "note": 64,
      "start": 2.051,
      "duration": 0.0998,
      "velocity": 97,
      "chip": "ym2612"
    },
    {
      "channel": 1,
      "note": 64,
      "start": 2.0515,
      "duration": 0.1998,
      "velocity": 102,
      "chip": "ym2612"
    },
    {
      "channel": 0,
      "note": 64,
      "start": 2.151,
      "duration": 0.0998,
      "velocity": 97,
      "chip": "ym2612"
    },
    {
      "channel": 0,
      "note": 62,
      "start": 2.251,
      "duration": 0.0998,
      "velocity": 97,
      "chip": "ym2612"
    },
    {
      "channel": 1,
      "note": 48,
      "start": 2.2515,
      "duration": 0.3998,
      "velocity": 102,
      "chip": "ym2612"
    },
    {
      "channel": 0,
      "note": 62,
      "start": 2.351,
      "duration": 0.0998,
      "velocity": 97,
      "chip": "ym2612"
    },
    {
      "channel": 0,
      "note": 52,
      "start": 2.4509,
      "duration": 0.0998,
      "velocity": 97,
      "chip": "ym2612"
    },
    {
      "channel": 0,
      "note": 52,
      "start": 2.5509,
      "duration": 0.0999,
      "velocity": 97,
      "chip": "ym2612"
    },
    {
      "channel": 0,
      "note": 64,
      "start": 2.651,
      "duration": 0.0998,
      "velocity": 97,
      "chip": "ym2612"
    },
    {
      "channel": 1,
      "note": 60,
      "start": 2.6515,
      "duration": 0.1998,
      "velocity": 102,
      "chip": "ym2612"
    },
    {
      "channel": 3,
      "note": 28,
      "start": 2.6538,
      "duration": 0.0977,
      "velocity": 27,
      "chip": "ym2612"
    },
    {
      "channel": 0,
      "note": 64,
      "start": 2.751,
      "duration": 0.0998,
      "velocity": 97,
      "chip": "ym2612"
    },
    {
      "channel": 3,
      "note": 28,
      "start": 2.7517,
      "duration": 0.1003,
      "velocity": 27,
      "chip": "ym2612"
    },
    {
      "channel": 0,
      "note": 62,
      "start": 2.851,
      "duration": 0.0998,
      "velocity": 97,
      "chip": "ym2612"
    },
    {
      "channel": 1,
      "note": 50,
      "start": 2.8515,
      "duration": 0.0998,
      "velocity": 102,
      "chip": "ym2612"
    },
    {
      "channel": 3,
      "note": 40,
      "start": 2.8521,
      "duration": 0.0999,
      "velocity": 27,
      "chip": "ym2612"
    },
    {
      "channel": 0,
      "note": 62,
      "start": 2.951,
      "duration": 0.0998,
      "velocity": 97,
      "chip": "ym2612"
    },
    {
      "channel": 1,
      "note": 57,
      "start": 2.9515,
      "duration": 0.0998,
      "velocity": 102,
      "chip": "ym2612"
    },
    {
      "channel": 3,
      "note": 40,
      "start": 2.9521,
      "duration": 0.0999,
      "velocity": 27,
      "chip": "ym2612"
    },
    {
      "channel": 0,
      "note": 50,
      "start": 3.051,
      "duration": 0.0998,
      "velocity": 97,
      "chip": "ym2612"
    },
    {
      "channel": 1,
      "note": 62,
      "start": 3.0515,
      "duration": 0.1998,
      "velocity": 102,
      "chip": "ym2612"
    },
    {
      "channel": 3,
      "note": 28,
      "start": 3.0521,
      "duration": 0.101,
      "velocity": 27,
      "chip": "ym2612"
    },
    {
      "channel": 0,
      "note": 50,
      "start": 3.151,
      "duration": 0.0998,
      "velocity": 97,
      "chip": "ym2612"
    },
    {
      "channel": 3,
      "note": 28,
      "start": 3.1532,
      "duration": 0.0987,
      "velocity": 27,
      "chip": "ym2612"
    },
    {
      "channel": 0,
      "note": 52,
      "start": 3.251,
      "duration": 0.0998,
      "velocity": 97,
      "chip": "ym2612"
    },
    {
      "channel": 1,
      "note": 52,
      "start": 3.2515,
      "duration": 0.3998,
      "velocity": 102,
      "chip": "ym2612"
    },
    {
      "channel": 3,
      "note": 40,
      "start": 3.2521,
      "duration": 0.0994,
      "velocity": 27,
      "chip": "ym2612"
    },
    {
      "channel": 0,
      "note": 52,
      "start": 3.351,
      "duration": 0.0998,
      "velocity": 97,
      "chip": "ym2612"
    },
    {
      "channel": 3,
      "note": 40,
      "start": 3.3516,
      "duration": 0.0999,
      "velocity": 27,
      "chip": "ym2612"
    },
    {
      "channel": 0,
      "note": 64,
      "start": 3.451,
      "duration": 0.0998,
      "velocity": 97,
      "chip": "ym2612"
    },
    {
      "channel": 3,
      "note": 28,
      "start": 3.4517,
      "duration": 0.8019,
      "velocity": 27,
      "chip": "ym2612"
    },
    {
      "channel": 0,
      "note": 64,
      "start": 3.551,
      "duration": 0.0998,
      "velocity": 97,
      "chip": "ym2612"
    },
    {
      "channel": 0,
      "note": 62,
      "start": 3.651,
      "duration": 0.0998,
      "velocity": 97,
      "chip": "ym2612"
    },
    {
      "channel": 1,
      "note": 64,
      "start": 3.6515,
      "duration": 0.1998,
      "velocity": 102,
      "chip": "ym2612"
    },
    {
      "channel": 0,
      "note": 62,
      "start": 3.751,
      "duration": 0.0998,
      "velocity": 97,
      "chip": "ym2612"
    },
    {
      "channel": 0,
      "note": 52,
      "start": 3.851,
      "duration": 0.0998,
      "velocity": 97,
      "chip": "ym2612"
    },
    {
      "channel": 1,
      "note": 48,
      "start": 3.8515,
      "duration": 0.3998,
      "velocity": 102,
      "chip": "ym2612"
    },
    {
      "channel": 0,
      "note": 52,
      "start": 3.951,
      "duration": 0.0998,
      "velocity": 97,
      "chip": "ym2612"
    },
    {
      "channel": 0,
      "note": 64,
      "start": 4.0509,
      "duration": 0.0998,
      "velocity": 97,
      "chip": "ym2612"
    },
    {
      "channel": 0,
      "note": 64,
      "start": 4.1509,
      "duration": 0.0999,
      "velocity": 97,
      "chip": "ym2612"
    },
    {
      "channel": 0,
      "note": 62,
      "start": 4.251,
      "duration": 0.0998,
      "velocity": 97,
      "chip": "ym2612"
    },
    {
      "channel": 1,
      "note": 60,
      "start": 4.2515,
      "duration": 0.1998,
      "velocity": 102,
      "chip": "ym2612"
    },
    {
      "channel": 3,
      "note": 28,
      "start": 4.2538,
      "duration": 0.0977,
      "velocity": 27,
      "chip": "ym2612"
    },
    {
      "channel": 0,
      "note": 62,
      "start": 4.351,
      "duration": 0.0998,
      "velocity": 97,
      "chip": "ym2612"
    },
    {
      "channel": 3,
      "note": 28,
      "start": 4.3517,
      "duration": 0.1003,
      "velocity": 27,
      "chip": "ym2612"
    },
    {
      "channel": 0,
      "note": 52,
      "start": 4.451,
      "duration": 0.0998,
      "velocity": 97,
      "chip": "ym2612"
    },
    {
      "channel": 1,
      "note": 50,
      "start": 4.4515,
      "duration": 0.0998,
      "velocity": 102,
      "chip": "ym2612"
    },
    {
      "channel": 3,
      "note": 40,
      "start": 4.4521,
      "duration": 0.0999,
      "velocity": 27,
      "chip": "ym2612"
    },
    {
      "channel": 0,
      "note": 52,
      "start": 4.551,
      "duration": 0.0998,
      "velocity": 97,
      "chip": "ym2612"
    },
    {
      "channel": 1,
      "note": 57,
      "start": 4.5515,
      "duration": 0.0998,
      "velocity": 102,
      "chip": "ym2612"
    },
    {
      "channel": 3,
      "note": 40,
      "start": 4.5521,
      "duration": 0.0999,
      "velocity": 27,
      "chip": "ym2612"
    },
    {
      "channel": 0,
      "note": 64,
      "start": 4.651,
      "duration": 0.0998,
      "velocity": 97,
      "chip": "ym2612"
    },
    {
      "channel": 1,
      "note": 62,
      "start": 4.6515,
      "duration": 0.1998,
      "velocity": 102,
      "chip": "ym2612"
    },
    {
      "channel": 3,
      "note": 28,
      "start": 4.6521,
      "duration": 0.101,
      "velocity": 27,
      "chip": "ym2612"
    },
    {
      "channel": 0,
      "note": 64,
      "start": 4.751,
      "duration": 0.0998,
      "velocity": 97,
      "chip": "ym2612"
    },
    {
      "channel": 3,
      "note": 28,
      "start": 4.7532,
      "duration": 0.0987,
      "velocity": 27,
      "chip": "ym2612"
    },
    {
      "channel": 0,
      "note": 62,
      "start": 4.851,
      "duration": 0.0998,
      "velocity": 97,
      "chip": "ym2612"
    },
    {
      "channel": 1,
      "note": 52,
      "start": 4.8515,
      "duration": 0.3998,
      "velocity": 102,
      "chip": "ym2612"
    },
    {
      "channel": 3,
      "note": 40,
      "start": 4.8521,
      "duration": 0.0994,
      "velocity": 27,
      "chip": "ym2612"
    },
    {
      "channel": 0,
      "note": 62,
      "start": 4.951,
      "duration": 0.0998,
      "velocity": 97,
      "chip": "ym2612"
    },
    {
      "channel": 3,
      "note": 40,
      "start": 4.9516,
      "duration": 0.0999,
      "velocity": 27,
      "chip": "ym2612"
    },
    {
      "channel": 0,
      "note": 52,
      "start": 5.051,
      "duration": 0.0998,
      "velocity": 97,
      "chip": "ym2612"
    },
    {
      "channel": 3,
      "note": 28,
      "start": 5.0517,
      "duration": 1.6014,
      "velocity": 27,
      "chip": "ym2612"
    },
    {
      "channel": 0,
      "note": 52,
      "start": 5.151,
      "duration": 0.0998,
      "velocity": 97,
      "chip": "ym2612"
    },
    {
      "channel": 0,
      "note": 64,
      "start": 5.251,
      "duration": 0.0998,
      "velocity": 97,
      "chip": "ym2612"
    },
    {
      "channel": 1,
      "note": 64,
      "start": 5.2515,
      "duration": 0.1998,
      "velocity": 102,
      "chip": "ym2612"
    },
    {
      "channel": 0,
      "note": 64,
      "start": 5.351,
      "duration": 0.0998,
      "velocity": 97,
      "chip": "ym2612"
    },
    {
      "channel": 0,
      "note": 62,
      "start": 5.4509,
      "duration": 0.0999,
      "velocity": 97,
      "chip": "ym2612"
    },
    {
      "channel": 1,
      "note": 48,
      "start": 5.4515,
      "duration": 0.3998,
      "velocity": 102,
      "chip": "ym2612"
    },
    {
      "channel": 0,
      "note": 62,
      "start": 5.551,
      "duration": 0.0998,
      "velocity": 97,
      "chip": "ym2612"
    },
    {
      "channel": 0,
      "note": 52,
      "start": 5.6509,
      "duration": 0.0998,
      "velocity": 97,
      "chip": "ym2612"
    },
    {
      "channel": 0,
      "note": 52,
      "start": 5.7509,
      "duration": 0.0999,
      "velocity": 97,
      "chip": "ym2612"
    },
    {
      "channel": 0,
      "note": 64,
      "start": 5.8509,
      "duration": 0.0999,
      "velocity": 97,
      "chip": "ym2612"
    },
    {
      "channel": 1,
      "note": 60,
      "start": 5.8515,
      "duration": 0.1998,
      "velocity": 102,
      "chip": "ym2612"
    },
    {
      "channel": 0,
      "note": 64,
      "start": 5.9509,
      "duration": 0.0999,
      "velocity": 97,
      "chip": "ym2612"
    },
    {
      "channel": 0,
      "note": 62,
      "start": 6.0509,
      "duration": 0.0999,
      "velocity": 97,
      "chip": "ym2612"
    },
    {
      "channel": 1,
      "note": 50,
      "start": 6.0515,
      "duration": 0.0998,
      "velocity": 102,
      "chip": "ym2612"
    },
    {
      "channel": 0,
      "note": 62,
      "start": 6.1509,
      "duration": 0.0999,
      "velocity": 97,
      "chip": "ym2612"
    },
    {
      "channel": 1,
      "note": 57,
      "start": 6.1515,
      "duration": 0.0998,
      "velocity": 102,
      "chip": "ym2612"
    },
    {
      "channel": 0,
      "note": 50,
      "start": 6.2509,
      "duration": 0.0999,
      "velocity": 97,
      "chip": "ym2612"
    },
    {
      "channel": 1,
      "note": 62,
      "start": 6.2515,
      "duration": 0.2001,
      "velocity": 102,
      "chip": "ym2612"
    },
    {
      "channel": 0,
      "note": 50,
      "start": 6.351,
      "duration": 0.1,
      "velocity": 97,
      "chip": "ym2612"
    },
    {
      "channel": 0,
      "note": 52,
      "start": 6.4512,
      "duration": 0.0998,
      "velocity": 97,
      "chip": "ym2612"
    },
    {
      "channel": 1,
      "note": 52,
      "start": 6.4518,
      "duration": 0.3995,
      "velocity": 102,
      "chip": "ym2612"
    },
    {
      "channel": 2,
      "note": 74,
      "start": 6.4524,
      "duration": 6.4015,
      "velocity": 103,
      "chip": "ym2612"
    },
    {
      "channel": 4,
      "note": 74,
      "start": 6.4531,
      "duration": 6.403,
      "velocity": 103,
      "chip": "ym2612"
    },
    {
      "channel": 5,
      "note": 74,
      "start": 6.4537,
      "duration": 6.4046,
      "velocity": 103,
      "chip": "ym2612"
    },
    {
      "channel": 0,
      "note": 52,
      "start": 6.5511,
      "duration": 0.0997,
      "velocity": 97,
      "chip": "ym2612"
    },
    {
      "channel": 0,
      "note": 64,
      "start": 6.651,
      "duration": 0.0998,
      "velocity": 97,
      "chip": "ym2612"
    },
    {
      "channel": 3,
      "note": 28,
      "start": 6.6532,
      "duration": 0.0982,
      "velocity": 27,
      "chip": "ym2612"
    },
    {
      "channel": 0,
      "note": 64,
      "start": 6.751,
      "duration": 0.0998,
      "velocity": 97,
      "chip": "ym2612"
    },
    {
      "channel": 3,
      "note": 28,
      "start": 6.7516,
      "duration": 0.1004,
      "velocity": 27,
      "chip": "ym2612"
    },
    {
      "channel": 0,
      "note": 62,
      "start": 6.851,
      "duration": 0.0998,
      "velocity": 97,
      "chip": "ym2612"
    },
    {
      "channel": 1,
      "note": 64,
      "start": 6.8515,
      "duration": 0.1998,
      "velocity": 102,
      "chip": "ym2612"
    },
    {
      "channel": 3,
      "note": 40,
      "start": 6.8521,
      "duration": 0.0994,
      "velocity": 27,
      "chip": "ym2612"
    },
    {
      "channel": 0,
      "note": 62,
      "start": 6.951,
      "duration": 0.0998,
      "velocity": 97,
      "chip": "ym2612"
    },
    {
      "channel": 3,
      "note": 40,
      "start": 6.9517,
      "duration": 0.1003,
      "velocity": 27,
      "chip": "ym2612"
    },
    {
      "channel": 0,
      "note": 52,
      "start": 7.051,
      "duration": 0.0998,
      "velocity": 97,
      "chip": "ym2612"
    },
    {
      "channel": 1,
      "note": 48,
      "start": 7.0515,
      "duration": 0.3998,
      "velocity": 102,
      "chip": "ym2612"
    },
    {
      "channel": 3,
      "note": 28,
      "start": 7.0521,
      "duration": 0.101,
      "velocity": 27,
      "chip": "ym2612"
    },
    {
      "channel": 0,
      "note": 52,
      "start": 7.151,
      "duration": 0.0998,
      "velocity": 97,
      "chip": "ym2612"
    },
    {
      "channel": 3,
      "note": 28,
      "start": 7.1532,
      "duration": 0.0982,
      "velocity": 27,
      "chip": "ym2612"
    },
    {
      "channel": 0,
      "note": 64,
      "start": 7.251,
      "duration": 0.0998,
      "velocity": 97,
      "chip": "ym2612"
    },
    {
      "channel": 3,
      "note": 40,
      "start": 7.2517,
      "duration": 0.0998,
      "velocity": 27,
      "chip": "ym2612"
    },
    {
      "channel": 0,
      "note": 64,
      "start": 7.351,
      "duration": 0.0998,
      "velocity": 97,
      "chip": "ym2612"
    },
    {
      "channel": 3,
      "note": 40,
      "start": 7.3517,
      "duration": 0.1003,
      "velocity": 27,
      "chip": "ym2612"
    },
    {
      "channel": 0,
      "note": 62,
      "start": 7.451,
      "duration": 0.0998,
      "velocity": 97,
      "chip": "ym2612"
    },
    {
      "channel": 1,
      "note": 60,
      "start": 7.4515,
      "duration": 0.1998,
      "velocity": 102,
      "chip": "ym2612"
    },
    {
      "channel": 3,
      "note": 28,
      "start": 7.4521,
      "duration": 1.6015,
      "velocity": 27,
      "chip": "ym2612"
    },
    {
      "channel": 0,
      "note": 62,
      "start": 7.551,
      "duration": 0.0998,
      "velocity": 97,
      "chip": "ym2612"
    },
    {
      "channel": 0,
      "note": 52,
      "start": 7.651,
      "duration": 0.0998,
      "velocity": 97,
      "chip": "ym2612"
    },
    {
      "channel": 1,
      "note": 50,
      "start": 7.6515,
      "duration": 0.0998,
      "velocity": 102,
      "chip": "ym2612"
    },
    {
      "channel": 0,
      "note": 52,
      "start": 7.751,
      "duration": 0.0998,
      "velocity": 97,
      "chip": "ym2612"
    },
    {
      "channel": 1,
      "note": 57,
      "start": 7.7515,
      "duration": 0.0998,
      "velocity": 102,
      "chip": "ym2612"
    },
    {
      "channel": 0,
      "note": 64,
      "start": 7.851,
      "duration": 0.0998,
      "velocity": 97,
      "chip": "ym2612"
    },
    {
      "channel": 1,
      "note": 62,
      "start": 7.8515,
      "duration": 0.1998,
      "velocity": 102,
      "chip": "ym2612"
    },
    {
      "channel": 0,
      "note": 64,
      "start": 7.951,
      "duration": 0.0998,
      "velocity": 97,
      "chip": "ym2612"
    },
    {
      "channel": 0,
      "note": 62,
      "start": 8.051,
      "duration": 0.0998,
      "velocity": 97,
      "chip": "ym2612"
    },
    {
      "channel": 1,
      "note": 52,
      "start": 8.0515,
      "duration": 0.3998,
      "velocity": 102,
      "chip": "ym2612"
    },
    {
      "channel": 0,
      "note": 62,
      "start": 8.151,
      "duration": 0.0998,
      "velocity": 97,
      "chip": "ym2612"
    },
    {
      "channel": 0,
      "note": 52,
      "start": 8.2509,
      "duration": 0.0999,
      "velocity": 97,
      "chip": "ym2612"
    },
    {
      "channel": 0,
      "note": 52,
      "start": 8.3509,
      "duration": 0.0999,
      "velocity": 97,
      "chip": "ym2612"
    },
    {
      "channel": 0,
      "note": 64,
      "start": 8.451,
      "duration": 0.0998,
      "velocity": 97,
      "chip": "ym2612"
    },
    {
      "channel": 1,
      "note": 64,
      "start": 8.4515,
      "duration": 0.1998,
      "velocity": 102,
      "chip": "ym2612"
    },
    {
      "channel": 0,
      "note": 64,
      "start": 8.551,
      "duration": 0.0998,
      "velocity": 97,
      "chip": "ym2612"
    },
    {
      "channel": 0,
      "note": 62,
      "start": 8.651,
      "duration": 0.0998,
      "velocity": 97,
      "chip": "ym2612"
    },
    {
      "channel": 1,
      "note": 48,
      "start": 8.6515,
      "duration": 0.3998,
      "velocity": 102,
      "chip": "ym2612"
    },
    {
      "channel": 0,
      "note": 62,
      "start": 8.751,
      "duration": 0.0998,
      "velocity": 97,
      "chip": "ym2612"
    },
    {
      "channel": 0,
      "note": 52,
      "start": 8.8509,
      "duration": 0.0998,
      "velocity": 97,
      "chip": "ym2612"
    },
    {
      "channel": 0,
      "note": 52,
      "start": 8.9509,
      "duration": 0.0999,
      "velocity": 97,
      "chip": "ym2612"
    },
    {
      "channel": 0,
      "note": 64,
      "start": 9.051,
      "duration": 0.0998,
      "velocity": 97,
      "chip": "ym2612"
    },
    {
      "channel": 1,
      "note": 60,
      "start": 9.0515,
      "duration": 0.1998,
      "velocity": 102,
      "chip": "ym2612"
    },
    {
      "channel": 3,
      "note": 28,
      "start": 9.0538,
      "duration": 0.0977,
      "velocity": 27,
      "chip": "ym2612"
    },
    {
      "channel": 0,
      "note": 64,
      "start": 9.151,
      "duration": 0.0998,
      "velocity": 97,
      "chip": "ym2612"
    },
    {
      "channel": 3,
      "note": 28,
      "start": 9.1517,
      "duration": 0.1003,
      "velocity": 27,
      "chip": "ym2612"
    },
    {
      "channel": 0,
      "note": 62,
      "start": 9.251,
      "duration": 0.0998,
      "velocity": 97,
      "chip": "ym2612"
    },
    {
      "channel": 1,
      "note": 50,
      "start": 9.2515,
      "duration": 0.0998,
      "velocity": 102,
      "chip": "ym2612"
    },
    {
      "channel": 3,
      "note": 40,
      "start": 9.2521,
      "duration": 0.0999,
      "velocity": 27,
      "chip": "ym2612"
    },
    {
      "channel": 0,
      "note": 62,
      "start": 9.351,
      "duration": 0.0998,
      "velocity": 97,
      "chip": "ym2612"
    },
    {
      "channel": 1,
      "note": 57,
      "start": 9.3515,
      "duration": 0.0998,
      "velocity": 102,
      "chip": "ym2612"
    },
    {
      "channel": 3,
      "note": 40,
      "start": 9.3521,
      "duration": 0.0999,
      "velocity": 27,
      "chip": "ym2612"
    },
    {
      "channel": 0,
      "note": 50,
      "start": 9.451,
      "duration": 0.0998,
      "velocity": 97,
      "chip": "ym2612"
    },
    {
      "channel": 1,
      "note": 62,
      "start": 9.4515,
      "duration": 0.1998,
      "velocity": 102,
      "chip": "ym2612"
    },
    {
      "channel": 3,
      "note": 28,
      "start": 9.4521,
      "duration": 0.101,
      "velocity": 27,
      "chip": "ym2612"
    },
    {
      "channel": 0,
      "note": 50,
      "start": 9.551,
      "duration": 0.0998,
      "velocity": 97,
      "chip": "ym2612"
    },
    {
      "channel": 3,
      "note": 28,
      "start": 9.5532,
      "duration": 0.0987,
      "velocity": 27,
      "chip": "ym2612"
    },
    {
      "channel": 0,
      "note": 52,
      "start": 9.651,
      "duration": 0.0998,
      "velocity": 97,
      "chip": "ym2612"
    },
    {
      "channel": 1,
      "note": 52,
      "start": 9.6515,
      "duration": 0.3998,
      "velocity": 102,
      "chip": "ym2612"
    },
    {
      "channel": 3,
      "note": 40,
      "start": 9.6521,
      "duration": 0.0994,
      "velocity": 27,
      "chip": "ym2612"
    },
    {
      "channel": 0,
      "note": 52,
      "start": 9.751,
      "duration": 0.0998,
      "velocity": 97,
      "chip": "ym2612"
    },
    {
      "channel": 3,
      "note": 40,
      "start": 9.7516,
      "duration": 0.0999,
      "velocity": 27,
      "chip": "ym2612"
    },
    {
      "channel": 0,
      "note": 64,
      "start": 9.851,
      "duration": 0.0998,
      "velocity": 97,
      "chip": "ym2612"
    },
    {
      "channel": 3,
      "note": 28,
      "start": 9.8517,
      "duration": 0.8019,
      "velocity": 27,
      "chip": "ym2612"
    },
    {
      "channel": 0,
      "note": 64,
      "start": 9.951,
      "duration": 0.0998,
      "velocity": 97,
      "chip": "ym2612"
    },
    {
      "channel": 0,
      "note": 62,
      "start": 10.051,
      "duration": 0.0998,
      "velocity": 97,
      "chip": "ym2612"
    },
    {
      "channel": 1,
      "note": 64,
      "start": 10.0515,
      "duration": 0.1998,
      "velocity": 102,
      "chip": "ym2612"
    },
    {
      "channel": 0,
      "note": 62,
      "start": 10.151,
      "duration": 0.0998,
      "velocity": 97,
      "chip": "ym2612"
    },
    {
      "channel": 0,
      "note": 52,
      "start": 10.251,
      "duration": 0.0998,
      "velocity": 97,
      "chip": "ym2612"
    },
    {
      "channel": 1,
      "note": 48,
      "start": 10.2515,
      "duration": 0.3999,
      "velocity": 102,
      "chip": "ym2612"
    },
    {
      "channel": 0,
      "note": 52,
      "start": 10.351,
      "duration": 0.0998,
      "velocity": 97,
      "chip": "ym2612"
    },
    {
      "channel": 0,
      "note": 64,
      "start": 10.4509,
      "duration": 0.0998,
      "velocity": 97,
      "chip": "ym2612"
    },
    {
      "channel": 0,
      "note": 64,
      "start": 10.5509,
      "duration": 0.0999,
      "velocity": 97,
      "chip": "ym2612"
    },
    {
      "channel": 0,
      "note": 62,
      "start": 10.651,
      "duration": 0.0998,
      "velocity": 97,
      "chip": "ym2612"
    },
    {
      "channel": 1,
      "note": 60,
      "start": 10.6515,
      "duration": 0.1998,
      "velocity": 102,
      "chip": "ym2612"
    },
    {
      "channel": 3,
      "note": 28,
      "start": 10.6538,
      "duration": 0.0977,
      "velocity": 27,
      "chip": "ym2612"
    },
    {
      "channel": 0,
      "note": 62,
      "start": 10.751,
      "duration": 0.0998,
      "velocity": 97,
      "chip": "ym2612"
    },
    {
      "channel": 3,
      "note": 28,
      "start": 10.7517,
      "duration": 0.1003,
      "velocity": 27,
      "chip": "ym2612"
    },
    {
      "channel": 0,
      "note": 52,
      "start": 10.851,
      "duration": 0.0998,
      "velocity": 97,
      "chip": "ym2612"
    },
    {
      "channel": 1,
      "note": 50,
      "start": 10.8515,
      "duration": 0.0998,
      "velocity": 102,
      "chip": "ym2612"
    },
    {
      "channel": 3,
      "note": 40,
      "start": 10.8521,
      "duration": 0.0999,
      "velocity": 27,
      "chip": "ym2612"
    },
    {
      "channel": 0,
      "note": 52,
      "start": 10.951,
      "duration": 0.0998,
      "velocity": 97,
      "chip": "ym2612"
    },
    {
      "channel": 1,
      "note": 57,
      "start": 10.9515,
      "duration": 0.0998,
      "velocity": 102,
      "chip": "ym2612"
    },
    {
      "channel": 3,
      "note": 40,
      "start": 10.9521,
      "duration": 0.0999,
      "velocity": 27,
      "chip": "ym2612"
    },
    {
      "channel": 0,
      "note": 64,
      "start": 11.051,
      "duration": 0.0998,
      "velocity": 97,
      "chip": "ym2612"
    },
    {
      "channel": 1,
      "note": 62,
      "start": 11.0515,
      "duration": 0.1998,
      "velocity": 102,
      "chip": "ym2612"
    },
    {
      "channel": 3,
      "note": 28,
      "start": 11.0521,
      "duration": 0.101,
      "velocity": 27,
      "chip": "ym2612"
    },
    {
      "channel": 0,
      "note": 64,
      "start": 11.151,
      "duration": 0.0998,
      "velocity": 97,
      "chip": "ym2612"
    },
    {
      "channel": 3,
      "note": 28,
      "start": 11.1532,
      "duration": 0.0987,
      "velocity": 27,
      "chip": "ym2612"
    },
    {
      "channel": 0,
      "note": 62,
      "start": 11.251,
      "duration": 0.0998,
      "velocity": 97,
      "chip": "ym2612"
    },
    {
      "channel": 1,
      "note": 52,
      "start": 11.2515,
      "duration": 0.3998,
      "velocity": 102,
      "chip": "ym2612"
    },
    {
      "channel": 3,
      "note": 40,
      "start": 11.2521,
      "duration": 0.0994,
      "velocity": 27,
      "chip": "ym2612"
    },
    {
      "channel": 0,
      "note": 62,
      "start": 11.351,
      "duration": 0.0998,
      "velocity": 97,
      "chip": "ym2612"
    },
    {
      "channel": 3,
      "note": 40,
      "start": 11.3516,
      "duration": 0.0999,
      "velocity": 27,
      "chip": "ym2612"
    },
    {
      "channel": 0,
      "note": 52,
      "start": 11.451,
      "duration": 0.0998,
      "velocity": 97,
      "chip": "ym2612"
    },
    {
      "channel": 3,
      "note": 28,
      "start": 11.4517,
      "duration": 1.6014,
      "velocity": 27,
      "chip": "ym2612"
    },
    {
      "channel": 0,
      "note": 52,
      "start": 11.5509,
      "duration": 0.0999,
      "velocity": 97,
      "chip": "ym2612"
    },
    {
      "channel": 0,
      "note": 64,
      "start": 11.651,
      "duration": 0.0998,
      "velocity": 97,
      "chip": "ym2612"
    },
    {
      "channel": 1,
      "note": 64,
      "start": 11.6515,
      "duration": 0.1998,
      "velocity": 102,
      "chip": "ym2612"
    },
    {
      "channel": 0,
      "note": 64,
      "start": 11.751,
      "duration": 0.0998,
      "velocity": 97,
      "chip": "ym2612"
    },
    {
      "channel": 0,
      "note": 62,
      "start": 11.851,
      "duration": 0.0998,
      "velocity": 97,
      "chip": "ym2612"
    },
    {
      "channel": 1,
      "note": 48,
      "start": 11.8515,
      "duration": 0.3998,
      "velocity": 102,
      "chip": "ym2612"
    },
    {
      "channel": 0,
      "note": 62,
      "start": 11.951,
      "duration": 0.0998,
      "velocity": 97,
      "chip": "ym2612"
    },
    {
      "channel": 0,
      "note": 52,
      "start": 12.0509,
      "duration": 0.0998,
      "velocity": 97,
      "chip": "ym2612"
    },
    {
      "channel": 0,
      "note": 52,
      "start": 12.1509,
      "duration": 0.0999,
      "velocity": 97,
      "chip": "ym2612"
    },
    {
      "channel": 0,
      "note": 64,
      "start": 12.251,
      "duration": 0.0998,
      "velocity": 97,
      "chip": "ym2612"
    },
    {
      "channel": 1,
      "note": 60,
      "start": 12.2515,
      "duration": 0.1998,
      "velocity": 102,
      "chip": "ym2612"
    },
    {
      "channel": 0,
      "note": 64,
      "start": 12.351,
      "duration": 0.0998,
      "velocity": 97,
      "chip": "ym2612"
    },
    {
      "channel": 0,
      "note": 62,
      "start": 12.451,
      "duration": 0.0998,
      "velocity": 97,
      "chip": "ym2612"
    },
    {
      "channel": 1,
      "note": 50,
      "start": 12.4515,
      "duration": 0.0998,
      "velocity": 102,
      "chip": "ym2612"
    },
    {
      "channel": 0,
      "note": 62,
      "start": 12.551,
      "duration": 0.0998,
      "velocity": 97,
      "chip": "ym2612"
    },
    {
      "channel": 1,
      "note": 57,
      "start": 12.5515,
      "duration": 0.0998,
      "velocity": 102,
      "chip": "ym2612"
    },
    {
      "channel": 0,
      "note": 50,
      "start": 12.651,
      "duration": 0.0998,
      "velocity": 97,
      "chip": "ym2612"
    },
    {
      "channel": 1,
      "note": 62,
      "start": 12.6515,
      "duration": 0.2001,
      "velocity": 102,
      "chip": "ym2612"
    },
    {
      "channel": 0,
      "note": 50,
      "start": 12.751,
      "duration": 0.1,
      "velocity": 97,
      "chip": "ym2612"
    },
    {
      "channel": 0,
      "note": 52,
      "start": 12.8512,
      "duration": 0.0997,
      "velocity": 97,
      "chip": "ym2612"
    },
    {
      "channel": 1,
      "note": 52,
      "start": 12.8518,
      "duration": 0.3995,
      "velocity": 102,
      "chip": "ym2612"
    },
    {
      "channel": 2,
      "note": 64,
      "start": 12.8539,
      "duration": 1.5997,
      "velocity": 103,
      "chip": "ym2612"
    },
    {
      "channel": 4,
      "note": 69,
      "start": 12.8562,
      "duration": 1.598,
      "velocity": 103,
      "chip": "ym2612"
    },
    {
      "channel": 5,
      "note": 74,
      "start": 12.8585,
      "duration": 1.5963,
      "velocity": 103,
      "chip": "ym2612"
    },
    {
      "channel": 0,
      "note": 52,
      "start": 12.9511,
      "duration": 0.0997,
      "velocity": 97,
      "chip": "ym2612"
    },
    {
      "channel": 0,
      "note": 64,
      "start": 13.051,
      "duration": 0.0998,
      "velocity": 97,
      "chip": "ym2612"
    },
    {
      "channel": 3,
      "note": 28,
      "start": 13.0532,
      "duration": 0.0982,
      "velocity": 27,
      "chip": "ym2612"
    },
    {
      "channel": 0,
      "note": 64,
      "start": 13.151,
      "duration": 0.0998,
      "velocity": 97,
      "chip": "ym2612"
    },
    {
      "channel": 3,
      "note": 28,
      "start": 13.1517,
      "duration": 0.1002,
      "velocity": 27,
      "chip": "ym2612"
    },
    {
      "channel": 0,
      "note": 62,
      "start": 13.251,
      "duration": 0.0998,
      "velocity": 97,
      "chip": "ym2612"
    },
    {
      "channel": 1,
      "note": 64,
      "start": 13.2515,
      "duration": 0.1999,
      "velocity": 102,
      "chip": "ym2612"
    },
    {
      "channel": 3,
      "note": 40,
      "start": 13.2521,
      "duration": 0.0994,
      "velocity": 27,
      "chip": "ym2612"
    },
    {
      "channel": 0,
      "note": 62,
      "start": 13.351,
      "duration": 0.0998,
      "velocity": 97,
      "chip": "ym2612"
    },
    {
      "channel": 3,
      "note": 40,
      "start": 13.3517,
      "duration": 0.1003,
      "velocity": 27,
      "chip": "ym2612"
    },
    {
      "channel": 0,
      "note": 52,
      "start": 13.451,
      "duration": 0.0998,
      "velocity": 97,
      "chip": "ym2612"
    },
    {
      "channel": 1,
      "note": 48,
      "start": 13.4515,
      "duration": 0.3998,
      "velocity": 102,
      "chip": "ym2612"
    },
    {
      "channel": 3,
      "note": 28,
      "start": 13.4522,
      "duration": 0.101,
      "velocity": 27,
      "chip": "ym2612"
    },
    {
      "channel": 0,
      "note": 52,
      "start": 13.551,
      "duration": 0.0998,
      "velocity": 97,
      "chip": "ym2612"
    },
    {
      "channel": 3,
      "note": 28,
      "start": 13.5532,
      "duration": 0.0999,
      "velocity": 27,
      "chip": "ym2612"
    },
    {
      "channel": 0,
      "note": 64,
      "start": 13.651,
      "duration": 0.0998,
      "velocity": 97,
      "chip": "ym2612"
    },
    {
      "channel": 3,
      "note": 40,
      "start": 13.6533,
      "duration": 0.0982,
      "velocity": 27,
      "chip": "ym2612"
    },
    {
      "channel": 0,
      "note": 64,
      "start": 13.751,
      "duration": 0.0998,
      "velocity": 97,
      "chip": "ym2612"
    },
    {
      "channel": 3,
      "note": 40,
      "start": 13.7517,
      "duration": 0.1003,
      "velocity": 27,
      "chip": "ym2612"
    },
    {
      "channel": 0,
      "note": 62,
      "start": 13.851,
      "duration": 0.0998,
      "velocity": 97,
      "chip": "ym2612"
    },
    {
      "channel": 1,
      "note": 60,
      "start": 13.8515,
      "duration": 0.1998,
      "velocity": 102,
      "chip": "ym2612"
    },
    {
      "channel": 3,
      "note": 28,
      "start": 13.8522,
      "duration": 1.6014,
      "velocity": 27,
      "chip": "ym2612"
    },
    {
      "channel": 0,
      "note": 62,
      "start": 13.951,
      "duration": 0.0998,
      "velocity": 97,
      "chip": "ym2612"
    },
    {
      "channel": 0,
      "note": 52,
      "start": 14.051,
      "duration": 0.0998,
      "velocity": 97,
      "chip": "ym2612"
    },
    {
      "channel": 1,
      "note": 50,
      "start": 14.0515,
      "duration": 0.0998,
      "velocity": 102,
      "chip": "ym2612"
    },
    {
      "channel": 0,
      "note": 52,
      "start": 14.151,
      "duration": 0.0998,
      "velocity": 97,
      "chip": "ym2612"
    },
    {
      "channel": 1,
      "note": 57,
      "start": 14.1515,
      "duration": 0.0998,
      "velocity": 102,
      "chip": "ym2612"
    },
    {
      "channel": 0,
      "note": 64,
      "start": 14.251,
      "duration": 0.0998,
      "velocity": 97,
      "chip": "ym2612"
    },
    {
      "channel": 1,
      "note": 62,
      "start": 14.2515,
      "duration": 0.1999,
      "velocity": 102,
      "chip": "ym2612"
    },
    {
      "channel": 0,
      "note": 64,
      "start": 14.351,
      "duration": 0.0999,
      "velocity": 97,
      "chip": "ym2612"
    },
    {
      "channel": 0,
      "note": 62,
      "start": 14.451,
      "duration": 0.0998,
      "velocity": 97,
      "chip": "ym2612"
    },
    {
      "channel": 1,
      "note": 52,
      "start": 14.4516,
      "duration": 0.3998,
      "velocity": 102,
      "chip": "ym2612"
    },
    {
      "channel": 2,
      "note": 72,
      "start": 14.4538,
      "duration": 1.5998,
      "velocity": 103,
      "chip": "ym2612"
    },
    {
      "channel": 4,
      "note": 67,
      "start": 14.4544,
      "duration": 1.6004,
      "velocity": 103,
      "chip": "ym2612"
    },
    {
      "channel": 5,
      "note": 64,
      "start": 14.455,
      "duration": 1.6004,
      "velocity": 103,
      "chip": "ym2612"
    },
    {
      "channel": 0,
      "note": 62,
      "start": 14.551,
      "duration": 0.0997,
      "velocity": 97,
      "chip": "ym2612"
    },
    {
      "channel": 0,
      "note": 52,
      "start": 14.6509,
      "duration": 0.0998,
      "velocity": 97,
      "chip": "ym2612"
    },
    {
      "channel": 0,
      "note": 52,
      "start": 14.7509,
      "duration": 0.0999,
      "velocity": 97,
      "chip": "ym2612"
    },
    {
      "channel": 0,
      "note": 64,
      "start": 14.851,
      "duration": 0.0998,
      "velocity": 97,
      "chip": "ym2612"
    },
    {
      "channel": 1,
      "note": 64,
      "start": 14.8515,
      "duration": 0.1998,
      "velocity": 102,
      "chip": "ym2612"
    },
    {
      "channel": 0,
      "note": 64,
      "start": 14.951,
      "duration": 0.0998,
      "velocity": 97,
      "chip": "ym2612"
    },
    {
      "channel": 0,
      "note": 62,
      "start": 15.0509,
      "duration": 0.0999,
      "velocity": 97,
      "chip": "ym2612"
    },
    {
      "channel": 1,
      "note": 48,
      "start": 15.0515,
      "duration": 0.3999,
      "velocity": 102,
      "chip": "ym2612"
    },
    {
      "channel": 0,
      "note": 62,
      "start": 15.151,
      "duration": 0.0998,
      "velocity": 97,
      "chip": "ym2612"
    },
    {
      "channel": 0,
      "note": 52,
      "start": 15.2509,
      "duration": 0.0999,
      "velocity": 97,
      "chip": "ym2612"
    },
    {
      "channel": 0,
      "note": 52,
      "start": 15.351,
      "duration": 0.0998,
      "velocity": 97,
      "chip": "ym2612"
    },
    {
      "channel": 0,
      "note": 64,
      "start": 15.451,
      "duration": 0.0998,
      "velocity": 97,
      "chip": "ym2612"
    },
    {
      "channel": 1,
      "note": 60,
      "start": 15.4515,
      "duration": 0.1998,
      "velocity": 102,
      "chip": "ym2612"
    },
    {
      "channel": 3,
      "note": 28,
      "start": 15.4538,
      "duration": 0.0977,
      "velocity": 27,
      "chip": "ym2612"
    },
    {
      "channel": 0,
      "note": 64,
      "start": 15.551,
      "duration": 0.0998,
      "velocity": 97,
      "chip": "ym2612"
    },
    {
      "channel": 3,
      "note": 28,
      "start": 15.5517,
      "duration": 0.1002,
      "velocity": 27,
      "chip": "ym2612"
    },
    {
      "channel": 0,
      "note": 62,
      "start": 15.651,
      "duration": 0.0998,
      "velocity": 97,
      "chip": "ym2612"
    },
    {
      "channel": 1,
      "note": 50,
      "start": 15.6515,
      "duration": 0.0999,
      "velocity": 102,
      "chip": "ym2612"
    },
    {
      "channel": 3,
      "note": 40,
      "start": 15.6521,
      "duration": 0.0999,
      "velocity": 27,
      "chip": "ym2612"
    },
    {
      "channel": 0,
      "note": 62,
      "start": 15.751,
      "duration": 0.0998,
      "velocity": 97,
      "chip": "ym2612"
    },
    {
      "channel": 1,
      "note": 57,
      "start": 15.7515,
      "duration": 0.0998,
      "velocity": 102,
      "chip": "ym2612"
    },
    {
      "channel": 3,
      "note": 40,
      "start": 15.7521,
      "duration": 0.0998,
      "velocity": 27,
      "chip": "ym2612"
    },
    {
      "channel": 0,
      "note": 50,
      "start": 15.851,
      "duration": 0.0998,
      "velocity": 97,
      "chip": "ym2612"
    },
    {
      "channel": 1,
      "note": 62,
      "start": 15.8515,
      "duration": 0.1999,
      "velocity": 102,
      "chip": "ym2612"
    },
    {
      "channel": 3,
      "note": 28,
      "start": 15.8521,
      "duration": 0.101,
      "velocity": 27,
      "chip": "ym2612"
    },
    {
      "channel": 0,
      "note": 50,
      "start": 15.951,
      "duration": 0.0999,
      "velocity": 97,
      "chip": "ym2612"
    },
    {
      "channel": 3,
      "note": 28,
      "start": 15.9532,
      "duration": 0.101,
      "velocity": 27,
      "chip": "ym2612"
    },
    {
      "channel": 0,
      "note": 52,
      "start": 16.051,
      "duration": 0.0999,
      "velocity": 97,
      "chip": "ym2612"
    },
    {
      "channel": 1,
      "note": 52,
      "start": 16.0516,
      "duration": 0.3998,
      "velocity": 102,
      "chip": "ym2612"
    },
    {
      "channel": 2,
      "note": 71,
      "start": 16.0538,
      "duration": 1.5998,
      "velocity": 103,
      "chip": "ym2612"
    },
    {
      "channel": 3,
      "note": 40,
      "start": 16.0544,
      "duration": 0.0972,
      "velocity": 27,
      "chip": "ym2612"
    },
    {
      "channel": 4,
      "note": 67,
      "start": 16.055,
      "duration": 1.5998,
      "velocity": 103,
      "chip": "ym2612"
    },
    {
      "channel": 5,
      "note": 62,
      "start": 16.0555,
      "duration": 1.5998,
      "velocity": 103,
      "chip": "ym2612"
    },
    {
      "channel": 0,
      "note": 52,
      "start": 16.1511,
      "duration": 0.0997,
      "velocity": 97,
      "chip": "ym2612"
    },
    {
      "channel": 3,
      "note": 40,
      "start": 16.1517,
      "duration": 0.0998,
      "velocity": 27,
      "chip": "ym2612"
    },
    {
      "channel": 0,
      "note": 64,
      "start": 16.251,
      "duration": 0.0998,
      "velocity": 97,
      "chip": "ym2612"
    },
    {
      "channel": 3,
      "note": 28,
      "start": 16.2517,
      "duration": 0.8019,
      "velocity": 27,
      "chip": "ym2612"
    },
    {
      "channel": 0,
      "note": 64,
      "start": 16.3509,
      "duration": 0.0999,
      "velocity": 97,
      "chip": "ym2612"
    },
    {
      "channel": 0,
      "note": 62,
      "start": 16.451,
      "duration": 0.0998,
      "velocity": 97,
      "chip": "ym2612"
    },
    {
      "channel": 1,
      "note": 64,
      "start": 16.4515,
      "duration": 0.1998,
      "velocity": 102,
      "chip": "ym2612"
    },
    {
      "channel": 0,
      "note": 62,
      "start": 16.551,
      "duration": 0.0998,
      "velocity": 97,
      "chip": "ym2612"
    },
    {
      "channel": 0,
      "note": 52,
      "start": 16.651,
      "duration": 0.0998,
      "velocity": 97,
      "chip": "ym2612"
    },
    {
      "channel": 1,
      "note": 48,
      "start": 16.6515,
      "duration": 0.3998,
      "velocity": 102,
      "chip": "ym2612"
    },
    {
      "channel": 0,
      "note": 52,
      "start": 16.751,
      "duration": 0.0998,
      "velocity": 97,
      "chip": "ym2612"
    },
    {
      "channel": 0,
      "note": 64,
      "start": 16.851,
      "duration": 0.0998,
      "velocity": 97,
      "chip": "ym2612"
    },
    {
      "channel": 0,
      "note": 64,
      "start": 16.951,
      "duration": 0.0998,
      "velocity": 97,
      "chip": "ym2612"
    },
    {
      "channel": 0,
      "note": 62,
      "start": 17.051,
      "duration": 0.0998,
      "velocity": 97,
      "chip": "ym2612"
    },
    {
      "channel": 1,
      "note": 60,
      "start": 17.0515,
      "duration": 0.1998,
      "velocity": 102,
      "chip": "ym2612"
    },
    {
      "channel": 3,
      "note": 28,
      "start": 17.0538,
      "duration": 0.0977,
      "velocity": 27,
      "chip": "ym2612"
    },
    {
      "channel": 0,
      "note": 62,
      "start": 17.151,
      "duration": 0.0998,
      "velocity": 97,
      "chip": "ym2612"
    },
    {
      "channel": 3,
      "note": 28,
      "start": 17.1517,
      "duration": 0.1003,
      "velocity": 27,
      "chip": "ym2612"
    },
    {
      "channel": 0,
      "note": 52,
      "start": 17.251,
      "duration": 0.0998,
      "velocity": 97,
      "chip": "ym2612"
    },
    {
      "channel": 1,
      "note": 50,
      "start": 17.2515,
      "duration": 0.0998,
      "velocity": 102,
      "chip": "ym2612"
    },
    {
      "channel": 3,
      "note": 40,
      "start": 17.2522,
      "duration": 0.0998,
      "velocity": 27,
      "chip": "ym2612"
    },
    {
      "channel": 0,
      "note": 52,
      "start": 17.351,
      "duration": 0.0998,
      "velocity": 97,
      "chip": "ym2612"
    },
    {
      "channel": 1,
      "note": 57,
      "start": 17.3515,
      "duration": 0.0998,
      "velocity": 102,
      "chip": "ym2612"
    },
    {
      "channel": 3,
      "note": 40,
      "start": 17.3522,
      "duration": 0.0998,
      "velocity": 27,
      "chip": "ym2612"
    },
    {
      "channel": 0,
      "note": 64,
      "start": 17.451,
      "duration": 0.0998,
      "velocity": 97,
      "chip": "ym2612"
    },
    {
      "channel": 1,
      "note": 62,
      "start": 17.4515,
      "duration": 0.1999,
      "velocity": 102,
      "chip": "ym2612"
    },
    {
      "channel": 3,
      "note": 28,
      "start": 17.4522,
      "duration": 0.101,
      "velocity": 27,
      "chip": "ym2612"
    },
    {
      "channel": 0,
      "note": 64,
      "start": 17.551,
      "duration": 0.0999,
      "velocity": 97,
      "chip": "ym2612"
    },
    {
      "channel": 3,
      "note": 28,
      "start": 17.5532,
      "duration": 0.101,
      "velocity": 27,
      "chip": "ym2612"
    },
    {
      "channel": 0,
      "note": 62,
      "start": 17.651,
      "duration": 0.0999,
      "velocity": 97,
      "chip": "ym2612"
    },
    {
      "channel": 1,
      "note": 52,
      "start": 17.6516,
      "duration": 0.3998,
      "velocity": 102,
      "chip": "ym2612"
    },
    {
      "channel": 2,
      "note": 69,
      "start": 17.6538,
      "duration": 1.6,
      "velocity": 103,
      "chip": "ym2612"
    },
    {
      "channel": 3,
      "note": 40,
      "start": 17.6543,
      "duration": 0.0973,
      "velocity": 27,
      "chip": "ym2612"
    },
    {
      "channel": 4,
      "note": 66,
      "start": 17.6549,
      "duration": 1.5996,
      "velocity": 103,
      "chip": "ym2612"
    },
    {
      "channel": 5,
      "note": 74,
      "start": 17.6555,
      "duration": 1.5997,
      "velocity": 103,
      "chip": "ym2612"
    },
    {
      "channel": 0,
      "note": 62,
      "start": 17.7511,
      "duration": 0.0997,
      "velocity": 97,
      "chip": "ym2612"
    },
    {
      "channel": 3,
      "note": 40,
      "start": 17.7518,
      "duration": 0.0997,
      "velocity": 27,
      "chip": "ym2612"
    },
    {
      "channel": 0,
      "note": 52,
      "start": 17.851,
      "duration": 0.0998,
      "velocity": 97,
      "chip": "ym2612"
    },
    {
      "channel": 3,
      "note": 28,
      "start": 17.8517,
      "duration": 1.6014,
      "velocity": 27,
      "chip": "ym2612"
    },
    {
      "channel": 0,
      "note": 52,
      "start": 17.951,
      "duration": 0.0998,
      "velocity": 97,
      "chip": "ym2612"
    },
    {
      "channel": 0,
      "note": 64,
      "start": 18.051,
      "duration": 0.0998,
      "velocity": 97,
      "chip": "ym2612"
    },
    {
      "channel": 1,
      "note": 64,
      "start": 18.0515,
      "duration": 0.1998,
      "velocity": 102,
      "chip": "ym2612"
    },
    {
      "channel": 0,
      "note": 64,
      "start": 18.151,
      "duration": 0.0998,
      "velocity": 97,
      "chip": "ym2612"
    },
    {
      "channel": 0,
      "note": 62,
      "start": 18.251,
      "duration": 0.0998,
      "velocity": 97,
      "chip": "ym2612"
    },
    {
      "channel": 1,
      "note": 48,
      "start": 18.2515,
      "duration": 0.3998,
      "velocity": 102,
      "chip": "ym2612"
    },
    {
      "channel": 0,
      "note": 62,
      "start": 18.351,
      "duration": 0.0998,
      "velocity": 97,
      "chip": "ym2612"
    },
    {
      "channel": 0,
      "note": 52,
      "start": 18.451,
      "duration": 0.0998,
      "velocity": 97,
      "chip": "ym2612"
    },
    {
      "channel": 0,
      "note": 52,
      "start": 18.551,
      "duration": 0.0998,
      "velocity": 97,
      "chip": "ym2612"
    },
    {
      "channel": 0,
      "note": 64,
      "start": 18.651,
      "duration": 0.0998,
      "velocity": 97,
      "chip": "ym2612"
    },
    {
      "channel": 1,
      "note": 60,
      "start": 18.6515,
      "duration": 0.1998,
      "velocity": 102,
      "chip": "ym2612"
    },
    {
      "channel": 0,
      "note": 64,
      "start": 18.751,
      "duration": 0.0998,
      "velocity": 97,
      "chip": "ym2612"
    },
    {
      "channel": 0,
      "note": 62,
      "start": 18.851,
      "duration": 0.0998,
      "velocity": 97,
      "chip": "ym2612"
    },
    {
      "channel": 1,
      "note": 50,
      "start": 18.8515,
      "duration": 0.0998,
      "velocity": 102,
      "chip": "ym2612"
    },
    {
      "channel": 0,
      "note": 62,
      "start": 18.951,
      "duration": 0.0998,
      "velocity": 97,
      "chip": "ym2612"
    },
    {
      "channel": 1,
      "note": 57,
      "start": 18.9515,
      "duration": 0.0998,
      "velocity": 102,
      "chip": "ym2612"
    },
    {
      "channel": 0,
      "note": 50,
      "start": 19.051,
      "duration": 0.0998,
      "velocity": 97,
      "chip": "ym2612"
    },
    {
      "channel": 1,
      "note": 62,
      "start": 19.0515,
      "duration": 0.2001,
      "velocity": 102,
      "chip": "ym2612"
    },
    {
      "channel": 0,
      "note": 50,
      "start": 19.151,
      "duration": 0.1,
      "velocity": 97,
      "chip": "ym2612"
    },
    {
      "channel": 0,
      "note": 52,
      "start": 19.2512,
      "duration": 0.0997,
      "velocity": 97,
      "chip": "ym2612"
    },
    {
      "channel": 1,
      "note": 52,
      "start": 19.2517,
      "duration": 0.3996,
      "velocity": 102,
      "chip": "ym2612"
    },
    {
      "channel": 2,
      "note": 64,
      "start": 19.2539,
      "duration": 1.5997,
      "velocity": 103,
      "chip": "ym2612"
    },
    {
      "channel": 4,
      "note": 69,
      "start": 19.2546,
      "duration": 1.5996,
      "velocity": 103,
      "chip": "ym2612"
    },
    {
      "channel": 5,
      "note": 74,
      "start": 19.2553,
      "duration": 1.5995,
      "velocity": 103,
      "chip": "ym2612"
    },
    {
      "channel": 0,
      "note": 52,
      "start": 19.3511,
      "duration": 0.0997,
      "velocity": 97,
      "chip": "ym2612"
    },
    {
      "channel": 0,
      "note": 64,
      "start": 19.451,
      "duration": 0.0998,
      "velocity": 97,
      "chip": "ym2612"
    },
    {
      "channel": 3,
      "note": 28,
      "start": 19.4532,
      "duration": 0.0982,
      "velocity": 27,
      "chip": "ym2612"
    },
    {
      "channel": 0,
      "note": 64,
      "start": 19.551,
      "duration": 0.0998,
      "velocity": 97,
      "chip": "ym2612"
    },
    {
      "channel": 3,
      "note": 28,
      "start": 19.5517,
      "duration": 0.1002,
      "velocity": 27,
      "chip": "ym2612"
    },
    {
      "channel": 0,
      "note": 62,
      "start": 19.651,
      "duration": 0.0998,
      "velocity": 97,
      "chip": "ym2612"
    },
    {
      "channel": 1,
      "note": 64,
      "start": 19.6515,
      "duration": 0.1999,
      "velocity": 102,
      "chip": "ym2612"
    },
    {
      "channel": 3,
      "note": 40,
      "start": 19.6521,
      "duration": 0.0994,
      "velocity": 27,
      "chip": "ym2612"
    },
    {
      "channel": 0,
      "note": 62,
      "start": 19.751,
      "duration": 0.0998,
      "velocity": 97,
      "chip": "ym2612"
    },
    {
      "channel": 3,
      "note": 40,
      "start": 19.7517,
      "duration": 0.1002,
      "velocity": 27,
      "chip": "ym2612"
    },
    {
      "channel": 0,
      "note": 52,
      "start": 19.851,
      "duration": 0.0998,
      "velocity": 97,
      "chip": "ym2612"
    },
    {
      "channel": 1,
      "note": 48,
      "start": 19.8515,
      "duration": 0.3999,
      "velocity": 102,
      "chip": "ym2612"
    },
    {
      "channel": 3,
      "note": 28,
      "start": 19.8521,
      "duration": 0.101,
      "velocity": 27,
      "chip": "ym2612"
    },
    {
      "channel": 0,
      "note": 52,
      "start": 19.951,
      "duration": 0.0998,
      "velocity": 97,
      "chip": "ym2612"
    },
    {
      "channel": 3,
      "note": 28,
      "start": 19.9532,
      "duration": 0.0999,
      "velocity": 27,
      "chip": "ym2612"
    },
    {
      "channel": 0,
      "note": 64,
      "start": 20.051,
      "duration": 0.0999,
      "velocity": 97,
      "chip": "ym2612"
    },
    {
      "channel": 3,
      "note": 40,
      "start": 20.0533,
      "duration": 0.0982,
      "velocity": 27,
      "chip": "ym2612"
    },
    {
      "channel": 0,
      "note": 64,
      "start": 20.151,
      "duration": 0.0998,
      "velocity": 97,
      "chip": "ym2612"
    },
    {
      "channel": 3,
      "note": 40,
      "start": 20.1517,
      "duration": 0.1002,
      "velocity": 27,
      "chip": "ym2612"
    },
    {
      "channel": 0,
      "note": 62,
      "start": 20.251,
      "duration": 0.0998,
      "velocity": 97,
      "chip": "ym2612"
    },
    {
      "channel": 1,
      "note": 60,
      "start": 20.2515,
      "duration": 0.1998,
      "velocity": 102,
      "chip": "ym2612"
    },
    {
      "channel": 3,
      "note": 28,
      "start": 20.2521,
      "duration": 1.6015,
      "velocity": 27,
      "chip": "ym2612"
    },
    {
      "channel": 0,
      "note": 62,
      "start": 20.351,
      "duration": 0.0998,
      "velocity": 97,
      "chip": "ym2612"
    },
    {
      "channel": 0,
      "note": 52,
      "start": 20.4509,
      "duration": 0.0999,
      "velocity": 97,
      "chip": "ym2612"
    },
    {
      "channel": 1,
      "note": 50,
      "start": 20.4515,
      "duration": 0.0998,
      "velocity": 102,
      "chip": "ym2612"
    },
    {
      "channel": 0,
      "note": 52,
      "start": 20.5509,
      "duration": 0.0999,
      "velocity": 97,
      "chip": "ym2612"
    },
    {
      "channel": 1,
      "note": 57,
      "start": 20.5515,
      "duration": 0.0998,
      "velocity": 102,
      "chip": "ym2612"
    },
    {
      "channel": 0,
      "note": 64,
      "start": 20.6509,
      "duration": 0.0999,
      "velocity": 97,
      "chip": "ym2612"
    },
    {
      "channel": 1,
      "note": 62,
      "start": 20.6515,
      "duration": 0.1999,
      "velocity": 102,
      "chip": "ym2612"
    },
    {
      "channel": 0,
      "note": 64,
      "start": 20.7509,
      "duration": 0.1,
      "velocity": 97,
      "chip": "ym2612"
    },
    {
      "channel": 0,
      "note": 62,
      "start": 20.851,
      "duration": 0.0998,
      "velocity": 97,
      "chip": "ym2612"
    },
    {
      "channel": 1,
      "note": 52,
      "start": 20.8516,
      "duration": 0.3998,
      "velocity": 102,
      "chip": "ym2612"
    },
    {
      "channel": 2,
      "note": 72,
      "start": 20.8538,
      "duration": 1.5998,
      "velocity": 103,
      "chip": "ym2612"
    },
    {
      "channel": 4,
      "note": 67,
      "start": 20.8544,
      "duration": 1.6003,
      "velocity": 103,
      "chip": "ym2612"
    },
    {
      "channel": 5,
      "note": 64,
      "start": 20.855,
      "duration": 1.6004,
      "velocity": 103,
      "chip": "ym2612"
    },
    {
      "channel": 0,
      "note": 62,
      "start": 20.951,
      "duration": 0.0997,
      "velocity": 97,
      "chip": "ym2612"
    },
    {
      "channel": 0,
      "note": 52,
      "start": 21.0509,
      "duration": 0.0998,
      "velocity": 97,
      "chip": "ym2612"
    },
    {
      "channel": 0,
      "note": 52,
      "start": 21.1509,
      "duration": 0.0999,
      "velocity": 97,
      "chip": "ym2612"
    },
    {
      "channel": 0,
      "note": 64,
      "start": 21.251,
      "duration": 0.0998,
      "velocity": 97,
      "chip": "ym2612"
    },
    {
      "channel": 1,
      "note": 64,
      "start": 21.2515,
      "duration": 0.1998,
      "velocity": 102,
      "chip": "ym2612"
    },
    {
      "channel": 0,
      "note": 64,
      "start": 21.351,
      "duration": 0.0998,
      "velocity": 97,
      "chip": "ym2612"
    },
    {
      "channel": 0,
      "note": 62,
      "start": 21.451,
      "duration": 0.0998,
      "velocity": 97,
      "chip": "ym2612"
    },
    {
      "channel": 1,
      "note": 48,
      "start": 21.4515,
      "duration": 0.3998,
      "velocity": 102,
      "chip": "ym2612"
    },
    {
      "channel": 0,
      "note": 62,
      "start": 21.551,
      "duration": 0.0998,
      "velocity": 97,
      "chip": "ym2612"
    },
    {
      "channel": 0,
      "note": 52,
      "start": 21.651,
      "duration": 0.0998,
      "velocity": 97,
      "chip": "ym2612"
    },
    {
      "channel": 0,
      "note": 52,
      "start": 21.751,
      "duration": 0.0998,
      "velocity": 97,
      "chip": "ym2612"
    },
    {
      "channel": 0,
      "note": 64,
      "start": 21.851,
      "duration": 0.0998,
      "velocity": 97,
      "chip": "ym2612"
    },
    {
      "channel": 1,
      "note": 60,
      "start": 21.8515,
      "duration": 0.1998,
      "velocity": 102,
      "chip": "ym2612"
    },
    {
      "channel": 3,
      "note": 28,
      "start": 21.8538,
      "duration": 0.0977,
      "velocity": 27,
      "chip": "ym2612"
    },
    {
      "channel": 0,
      "note": 64,
      "start": 21.951,
      "duration": 0.0998,
      "velocity": 97,
      "chip": "ym2612"
    },
    {
      "channel": 3,
      "note": 28,
      "start": 21.9517,
      "duration": 0.1003,
      "velocity": 27,
      "chip": "ym2612"
    },
    {
      "channel": 0,
      "note": 62,
      "start": 22.051,
      "duration": 0.0998,
      "velocity": 97,
      "chip": "ym2612"
    },
    {
      "channel": 1,
      "note": 50,
      "start": 22.0515,
      "duration": 0.0998,
      "velocity": 102,
      "chip": "ym2612"
    },
    {
      "channel": 3,
      "note": 40,
      "start": 22.0522,
      "duration": 0.0998,
      "velocity": 27,
      "chip": "ym2612"
    },
    {
      "channel": 0,
      "note": 62,
      "start": 22.151,
      "duration": 0.0998,
      "velocity": 97,
      "chip": "ym2612"
    },
    {
      "channel": 1,
      "note": 57,
      "start": 22.1515,
      "duration": 0.0998,
      "velocity": 102,
      "chip": "ym2612"
    },
    {
      "channel": 3,
      "note": 40,
      "start": 22.1522,
      "duration": 0.0998,
      "velocity": 27,
      "chip": "ym2612"
    },
    {
      "channel": 0,
      "note": 50,
      "start": 22.251,
      "duration": 0.0998,
      "velocity": 97,
      "chip": "ym2612"
    },
    {
      "channel": 1,
      "note": 62,
      "start": 22.2515,
      "duration": 0.1999,
      "velocity": 102,
      "chip": "ym2612"
    },
    {
      "channel": 3,
      "note": 28,
      "start": 22.2522,
      "duration": 0.101,
      "velocity": 27,
      "chip": "ym2612"
    },
    {
      "channel": 0,
      "note": 50,
      "start": 22.351,
      "duration": 0.0999,
      "velocity": 97,
      "chip": "ym2612"
    },
    {
      "channel": 3,
      "note": 28,
      "start": 22.3532,
      "duration": 0.101,
      "velocity": 27,
      "chip": "ym2612"
    },
    {
      "channel": 0,
      "note": 52,
      "start": 22.451,
      "duration": 0.0999,
      "velocity": 97,
      "chip": "ym2612"
    },
    {
      "channel": 1,
      "note": 52,
      "start": 22.4516,
      "duration": 0.3998,
      "velocity": 102,
      "chip": "ym2612"
    },
    {
      "channel": 2,
      "note": 71,
      "start": 22.4538,
      "duration": 1.5998,
      "velocity": 103,
      "chip": "ym2612"
    },
    {
      "channel": 3,
      "note": 40,
      "start": 22.4543,
      "duration": 0.0973,
      "velocity": 27,
      "chip": "ym2612"
    },
    {
      "channel": 4,
      "note": 67,
      "start": 22.4549,
      "duration": 1.5998,
      "velocity": 103,
      "chip": "ym2612"
    },
    {
      "channel": 5,
      "note": 62,
      "start": 22.4555,
      "duration": 1.5999,
      "velocity": 103,
      "chip": "ym2612"
    },
    {
      "channel": 0,
      "note": 52,
      "start": 22.5511,
      "duration": 0.0998,
      "velocity": 97,
      "chip": "ym2612"
    },
    {
      "channel": 3,
      "note": 40,
      "start": 22.5518,
      "duration": 0.0997,
      "velocity": 27,
      "chip": "ym2612"
    },
    {
      "channel": 0,
      "note": 64,
      "start": 22.651,
      "duration": 0.0998,
      "velocity": 97,
      "chip": "ym2612"
    },
    {
      "channel": 3,
      "note": 28,
      "start": 22.6517,
      "duration": 0.8019,
      "velocity": 27,
      "chip": "ym2612"
    },
    {
      "channel": 0,
      "note": 64,
      "start": 22.751,
      "duration": 0.0998,
      "velocity": 97,
      "chip": "ym2612"
    },
    {
      "channel": 0,
      "note": 62,
      "start": 22.851,
      "duration": 0.0998,
      "velocity": 97,
      "chip": "ym2612"
    },
    {
      "channel": 1,
      "note": 64,
      "start": 22.8515,
      "duration": 0.1998,
      "velocity": 102,
      "chip": "ym2612"
    },
    {
      "channel": 0,
      "note": 62,
      "start": 22.951,
      "duration": 0.0998,
      "velocity": 97,
      "chip": "ym2612"
    },
    {
      "channel": 0,
      "note": 52,
      "start": 23.051,
      "duration": 0.0998,
      "velocity": 97,
      "chip": "ym2612"
    },
    {
      "channel": 1,
      "note": 48,
      "start": 23.0515,
      "duration": 0.3998,
      "velocity": 102,
      "chip": "ym2612"
    },
    {
      "channel": 0,
      "note": 52,
      "start": 23.151,
      "duration": 0.0998,
      "velocity": 97,
      "chip": "ym2612"
    },
    {
      "channel": 0,
      "note": 64,
      "start": 23.251,
      "duration": 0.0998,
      "velocity": 97,
      "chip": "ym2612"
    },
    {
      "channel": 0,
      "note": 64,
      "start": 23.351,
      "duration": 0.0998,
      "velocity": 97,
      "chip": "ym2612"
    },
    {
      "channel": 0,
      "note": 62,
      "start": 23.451,
      "duration": 0.0998,
      "velocity": 97,
      "chip": "ym2612"
    },
    {
      "channel": 1,
      "note": 60,
      "start": 23.4515,
      "duration": 0.1998,
      "velocity": 102,
      "chip": "ym2612"
    },
    {
      "channel": 3,
      "note": 28,
      "start": 23.4538,
      "duration": 0.0977,
      "velocity": 27,
      "chip": "ym2612"
    },
    {
      "channel": 0,
      "note": 62,
      "start": 23.551,
      "duration": 0.0998,
      "velocity": 97,
      "chip": "ym2612"
    },
    {
      "channel": 3,
      "note": 28,
      "start": 23.5517,
      "duration": 0.1003,
      "velocity": 27,
      "chip": "ym2612"
    },
    {
      "channel": 0,
      "note": 52,
      "start": 23.651,
      "duration": 0.0998,
      "velocity": 97,
      "chip": "ym2612"
    },
    {
      "channel": 1,
      "note": 50,
      "start": 23.6515,
      "duration": 0.0998,
      "velocity": 102,
      "chip": "ym2612"
    },
    {
      "channel": 3,
      "note": 40,
      "start": 23.6522,
      "duration": 0.0998,
      "velocity": 27,
      "chip": "ym2612"
    },
    {
      "channel": 0,
      "note": 52,
      "start": 23.751,
      "duration": 0.0998,
      "velocity": 97,
      "chip": "ym2612"
    },
    {
      "channel": 1,
      "note": 57,
      "start": 23.7515,
      "duration": 0.0998,
      "velocity": 102,
      "chip": "ym2612"
    },
    {
      "channel": 3,
      "note": 40,
      "start": 23.7522,
      "duration": 0.0998,
      "velocity": 27,
      "chip": "ym2612"
    },
    {
      "channel": 0,
      "note": 64,
      "start": 23.851,
      "duration": 0.0998,
      "velocity": 97,
      "chip": "ym2612"
    },
    {
      "channel": 1,
      "note": 62,
      "start": 23.8515,
      "duration": 0.1999,
      "velocity": 102,
      "chip": "ym2612"
    },
    {
      "channel": 3,
      "note": 28,
      "start": 23.8522,
      "duration": 0.101,
      "velocity": 27,
      "chip": "ym2612"
    },
    {
      "channel": 0,
      "note": 64,
      "start": 23.951,
      "duration": 0.0999,
      "velocity": 97,
      "chip": "ym2612"
    },
    {
      "channel": 3,
      "note": 28,
      "start": 23.9532,
      "duration": 0.101,
      "velocity": 27,
      "chip": "ym2612"
    },
    {
      "channel": 0,
      "note": 62,
      "start": 24.051,
      "duration": 0.0999,
      "velocity": 97,
      "chip": "ym2612"
    },
    {
      "channel": 1,
      "note": 52,
      "start": 24.0516,
      "duration": 0.3998,
      "velocity": 102,
      "chip": "ym2612"
    },
    {
      "channel": 2,
      "note": 69,
      "start": 24.0538,
      "duration": 1.6016,
      "velocity": 127,
      "chip": "ym2612"
    },
    {
      "channel": 3,
      "note": 40,
      "start": 24.0543,
      "duration": 0.0973,
      "velocity": 27,
      "chip": "ym2612"
    },
    {
      "channel": 4,
      "note": 66,
      "start": 24.0549,
      "duration": 1.6027,
      "velocity": 1,
      "chip": "ym2612"
    },
    {
      "channel": 5,
      "note": 74,
      "start": 24.0555,
      "duration": 1.8005,
      "velocity": 127,
      "chip": "ym2612"
    },
    {
      "channel": 0,
      "note": 62,
      "start": 24.1511,
      "duration": 0.0997,
      "velocity": 97,
      "chip": "ym2612"
    },
    {
      "channel": 3,
      "note": 40,
      "start": 24.1518,
      "duration": 0.0997,
      "velocity": 27,
      "chip": "ym2612"
    },
    {
      "channel": 0,
      "note": 52,
      "start": 24.251,
      "duration": 0.0998,
      "velocity": 97,
      "chip": "ym2612"
    },
    {
      "channel": 3,
      "note": 28,
      "start": 24.2517,
      "duration": 1.602,
      "velocity": 27,
      "chip": "ym2612"
    },
    {
      "channel": 0,
      "note": 52,
      "start": 24.351,
      "duration": 0.0998,
      "velocity": 97,
      "chip": "ym2612"
    },
    {
      "channel": 0,
      "note": 64,
      "start": 24.451,
      "duration": 0.0998,
      "velocity": 97,
      "chip": "ym2612"
    },
    {
      "channel": 1,
      "note": 64,
      "start": 24.4515,
      "duration": 0.1998,
      "velocity": 102,
      "chip": "ym2612"
    },
    {
      "channel": 0,
      "note": 64,
      "start": 24.551,
      "duration": 0.0998,
      "velocity": 97,
      "chip": "ym2612"
    },
    {
      "channel": 0,
      "note": 62,
      "start": 24.651,
      "duration": 0.0998,
      "velocity": 97,
      "chip": "ym2612"
    },
    {
      "channel": 1,
      "note": 48,
      "start": 24.6515,
      "duration": 0.3998,
      "velocity": 102,
      "chip": "ym2612"
    },
    {
      "channel": 0,
      "note": 62,
      "start": 24.751,
      "duration": 0.0998,
      "velocity": 97,
      "chip": "ym2612"
    },
    {
      "channel": 0,
      "note": 52,
      "start": 24.8509,
      "duration": 0.0999,
      "velocity": 97,
      "chip": "ym2612"
    },
    {
      "channel": 0,
      "note": 52,
      "start": 24.951,
      "duration": 0.0998,
      "velocity": 97,
      "chip": "ym2612"
    },
    {
      "channel": 0,
      "note": 64,
      "start": 25.0509,
      "duration": 0.0999,
      "velocity": 97,
      "chip": "ym2612"
    },
    {
      "channel": 1,
      "note": 60,
      "start": 25.0515,
      "duration": 0.1998,
      "velocity": 102,
      "chip": "ym2612"
    },
    {
      "channel": 0,
      "note": 64,
      "start": 25.1509,
      "duration": 0.0999,
      "velocity": 97,
      "chip": "ym2612"
    },
    {
      "channel": 0,
      "note": 62,
      "start": 25.2509,
      "duration": 0.0999,
      "velocity": 97,
      "chip": "ym2612"
    },
    {
      "channel": 1,
      "note": 50,
      "start": 25.2515,
      "duration": 0.0998,
      "velocity": 102,
      "chip": "ym2612"
    },
    {
      "channel": 0,
      "note": 62,
      "start": 25.3509,
      "duration": 0.0999,
      "velocity": 97,
      "chip": "ym2612"
    },
    {
      "channel": 1,
      "note": 57,
      "start": 25.3515,
      "duration": 0.0998,
      "velocity": 102,
      "chip": "ym2612"
    },
    {
      "channel": 0,
      "note": 50,
      "start": 25.4509,
      "duration": 0.1,
      "velocity": 97,
      "chip": "ym2612"
    },
    {
      "channel": 1,
      "note": 62,
      "start": 25.4515,
      "duration": 0.2017,
      "velocity": 1,
      "chip": "ym2612"
    },
    {
      "channel": 0,
      "note": 50,
      "start": 25.551,
      "duration": 0.1,
      "velocity": 97,
      "chip": "ym2612"
    },
    {
      "channel": 0,
      "note": 52,
      "start": 25.6512,
      "duration": 0.0997,
      "velocity": 97,
      "chip": "ym2612"
    },
    {
      "channel": 1,
      "note": 74,
      "start": 25.6533,
      "duration": 6.3999,
      "velocity": 1,
      "chip": "ym2612"
    },
    {
      "channel": 2,
      "note": 74,
      "start": 25.6555,
      "duration": 0.0028,
      "velocity": 127,
      "chip": "ym2612"
    },
    {
      "channel": 4,
      "note": 74,
      "start": 25.6578,
      "duration": 6.3982,
      "velocity": 1,
      "chip": "ym2612"
    },
    {
      "channel": 2,
      "note": 73,
      "start": 25.6583,
      "duration": 0.0088,
      "velocity": 127,
      "chip": "ym2612"
    },
    {
      "channel": 2,
      "note": 72,
      "start": 25.6672,
      "duration": 0.0166,
      "velocity": 127,
      "chip": "ym2612"
    },
    {
      "channel": 2,
      "note": 70,
      "start": 25.6838,
      "duration": 0.0167,
      "velocity": 127,
      "chip": "ym2612"
    },
    {
      "channel": 2,
      "note": 69,
      "start": 25.7005,
      "duration": 0.0333,
      "velocity": 127,
      "chip": "ym2612"
    },
    {
      "channel": 2,
      "note": 68,
      "start": 25.7339,
      "duration": 0.018,
      "velocity": 127,
      "chip": "ym2612"
    },
    {
      "channel": 0,
      "note": 52,
      "start": 25.7511,
      "duration": 0.0998,
      "velocity": 97,
      "chip": "ym2612"
    },
    {
      "channel": 2,
      "note": 67,
      "start": 25.7518,
      "duration": 0.0154,
      "velocity": 127,
      "chip": "ym2612"
    },
    {
      "channel": 2,
      "note": 66,
      "start": 25.7672,
      "duration": 0.0167,
      "velocity": 127,
      "chip": "ym2612"
    },
    {
      "channel": 2,
      "note": 65,
      "start": 25.7839,
      "duration": 0.0167,
      "velocity": 127,
      "chip": "ym2612"
    },
    {
      "channel": 2,
      "note": 64,
      "start": 25.8005,
      "duration": 0.0333,
      "velocity": 127,
      "chip": "ym2612"
    },
    {
      "channel": 2,
      "note": 63,
      "start": 25.8339,
      "duration": 0.0177,
      "velocity": 127,
      "chip": "ym2612"
    },
    {
      "channel": 0,
      "note": 64,
      "start": 25.851,
      "duration": 0.0998,
      "velocity": 97,
      "chip": "ym2612"
    },
    {
      "channel": 2,
      "note": 74,
      "start": 25.8517,
      "duration": 0.0049,
      "velocity": 127,
      "chip": "ym2612"
    },
    {
      "channel": 3,
      "note": 28,
      "start": 25.8539,
      "duration": 0.0977,
      "velocity": 27,
      "chip": "ym2612"
    },
    {
      "channel": 5,
      "note": 74,
      "start": 25.8561,
      "duration": 0.3962,
      "velocity": 127,
      "chip": "ym2612"
    },
    {
      "channel": 2,
      "note": 73,
      "start": 25.8566,
      "duration": 0.0106,
      "velocity": 127,
      "chip": "ym2612"
    },
    {
      "channel": 2,
      "note": 72,
      "start": 25.8672,
      "duration": 0.0167,
      "velocity": 127,
      "chip": "ym2612"
    },
    {
      "channel": 2,
      "note": 70,
      "start": 25.8839,
      "duration": 0.0167,
      "velocity": 127,
      "chip": "ym2612"
    },
    {
      "channel": 2,
      "note": 69,
      "start": 25.9005,
      "duration": 0.0333,
      "velocity": 127,
      "chip": "ym2612"
    },
    {
      "channel": 2,
      "note": 68,
      "start": 25.9339,
      "duration": 0.0184,
      "velocity": 127,
      "chip": "ym2612"
    },
    {
      "channel": 0,
      "note": 64,
      "start": 25.951,
      "duration": 0.0999,
      "velocity": 97,
      "chip": "ym2612"
    },
    {
      "channel": 3,
      "note": 28,
      "start": 25.9518,
      "duration": 0.0999,
      "velocity": 27,
      "chip": "ym2612"
    },
    {
      "channel": 2,
      "note": 67,
      "start": 25.9523,
      "duration": 0.0149,
      "velocity": 127,
      "chip": "ym2612"
    },
    {
      "channel": 2,
      "note": 66,
      "start": 25.9672,
      "duration": 0.0167,
      "velocity": 127,
      "chip": "ym2612"
    },
    {
      "channel": 2,
      "note": 65,
      "start": 25.9839,
      "duration": 0.0167,
      "velocity": 127,
      "chip": "ym2612"
    },
    {
      "channel": 2,
      "note": 64,
      "start": 26.0005,
      "duration": 0.0333,
      "velocity": 127,
      "chip": "ym2612"
    },
    {
      "channel": 2,
      "note": 63,
      "start": 26.0339,
      "duration": 0.0186,
      "velocity": 127,
      "chip": "ym2612"
    },
    {
      "channel": 0,
      "note": 62,
      "start": 26.051,
      "duration": 0.0998,
      "velocity": 97,
      "chip": "ym2612"
    },
    {
      "channel": 3,
      "note": 40,
      "start": 26.0518,
      "duration": 0.1002,
      "velocity": 27,
      "chip": "ym2612"
    },
    {
      "channel": 2,
      "note": 62,
      "start": 26.0524,
      "duration": 0.0148,
      "velocity": 127,
      "chip": "ym2612"
    },
    {
      "channel": 2,
      "note": 61,
      "start": 26.0672,
      "duration": 0.0167,
      "velocity": 127,
      "chip": "ym2612"
    },
    {
      "channel": 2,
      "note": 60,
      "start": 26.0839,
      "duration": 0.0167,
      "velocity": 127,
      "chip": "ym2612"
    },
    {
      "channel": 2,
      "note": 58,
      "start": 26.1005,
      "duration": 0.0333,
      "velocity": 127,
      "chip": "ym2612"
    },
    {
      "channel": 2,
      "note": 57,
      "start": 26.1339,
      "duration": 0.0177,
      "velocity": 127,
      "chip": "ym2612"
    },
    {
      "channel": 0,
      "note": 62,
      "start": 26.151,
      "duration": 0.0998,
      "velocity": 97,
      "chip": "ym2612"
    },
    {
      "channel": 2,
      "note": 74,
      "start": 26.1517,
      "duration": 0.0011,
      "velocity": 127,
      "chip": "ym2612"
    },
    {
      "channel": 3,
      "note": 40,
      "start": 26.1522,
      "duration": 0.0994,
      "velocity": 27,
      "chip": "ym2612"
    },
    {
      "channel": 2,
      "note": 73,
      "start": 26.1527,
      "duration": 0.0144,
      "velocity": 127,
      "chip": "ym2612"
    },
    {
      "channel": 2,
      "note": 72,
      "start": 26.1672,
      "duration": 0.0167,
      "velocity": 127,
      "chip": "ym2612"
    },
    {
      "channel": 2,
      "note": 70,
      "start": 26.1839,
      "duration": 0.0167,
      "velocity": 127,
      "chip": "ym2612"
    },
    {
      "channel": 2,
      "note": 69,
      "start": 26.2005,
      "duration": 0.0333,
      "velocity": 127,
      "chip": "ym2612"
    },
    {
      "channel": 2,
      "note": 68,
      "start": 26.2339,
      "duration": 0.019,
      "velocity": 127,
      "chip": "ym2612"
    },
    {
      "channel": 0,
      "note": 52,
      "start": 26.251,
      "duration": 0.0998,
      "velocity": 97,
      "chip": "ym2612"
    },
    {
      "channel": 3,
      "note": 28,
      "start": 26.2518,
      "duration": 0.1015,
      "velocity": 27,
      "chip": "ym2612"
    },
    {
      "channel": 5,
      "note": 74,
      "start": 26.2524,
      "duration": 0.3999,
      "velocity": 127,
      "chip": "ym2612"
    },
    {
      "channel": 2,
      "note": 67,
      "start": 26.2529,
      "duration": 0.0143,
      "velocity": 127,
      "chip": "ym2612"
    },
    {
      "channel": 2,
      "note": 66,
      "start": 26.2672,
      "duration": 0.0167,
      "velocity": 127,
      "chip": "ym2612"
    },
    {
      "channel": 2,
      "note": 65,
      "start": 26.2839,
      "duration": 0.0167,
      "velocity": 127,
      "chip": "ym2612"
    },
    {
      "channel": 2,
      "note": 64,
      "start": 26.3005,
      "duration": 0.0333,
      "velocity": 127,
      "chip": "ym2612"
    },
    {
      "channel": 2,
      "note": 63,
      "start": 26.3339,
      "duration": 0.0201,
      "velocity": 127,
      "chip": "ym2612"
    },
    {
      "channel": 0,
      "note": 52,
      "start": 26.351,
      "duration": 0.0998,
      "velocity": 97,
      "chip": "ym2612"
    },
    {
      "channel": 3,
      "note": 28,
      "start": 26.3534,
      "duration": 0.0986,
      "velocity": 27,
      "chip": "ym2612"
    },
    {
      "channel": 2,
      "note": 62,
      "start": 26.3539,
      "duration": 0.0132,
      "velocity": 127,
      "chip": "ym2612"
    },
    {
      "channel": 2,
      "note": 61,
      "start": 26.3672,
      "duration": 0.0167,
      "velocity": 127,
      "chip": "ym2612"
    },
    {
      "channel": 2,
      "note": 60,
      "start": 26.3839,
      "duration": 0.0167,
      "velocity": 127,
      "chip": "ym2612"
    },
    {
      "channel": 2,
      "note": 58,
      "start": 26.4005,
      "duration": 0.0333,
      "velocity": 127,
      "chip": "ym2612"
    },
    {
      "channel": 2,
      "note": 57,
      "start": 26.4339,
      "duration": 0.0177,
      "velocity": 127,
      "chip": "ym2612"
    },
    {
      "channel": 0,
      "note": 64,
      "start": 26.451,
      "duration": 0.0998,
      "velocity": 97,
      "chip": "ym2612"
    },
    {
      "channel": 2,
      "note": 74,
      "start": 26.4517,
      "duration": 0.0012,
      "velocity": 127,
      "chip": "ym2612"
    },
    {
      "channel": 3,
      "note": 40,
      "start": 26.4522,
      "duration": 0.0998,
      "velocity": 27,
      "chip": "ym2612"
    },
    {
      "channel": 2,
      "note": 73,
      "start": 26.4528,
      "duration": 0.0144,
      "velocity": 127,
      "chip": "ym2612"
    },
    {
      "channel": 2,
      "note": 72,
      "start": 26.4672,
      "duration": 0.0167,
      "velocity": 127,
      "chip": "ym2612"
    },
    {
      "channel": 2,
      "note": 70,
      "start": 26.4839,
      "duration": 0.0167,
      "velocity": 127,
      "chip": "ym2612"
    },
    {
      "channel": 2,
      "note": 69,
      "start": 26.5005,
      "duration": 0.0333,
      "velocity": 127,
      "chip": "ym2612"
    },
    {
      "channel": 2,
      "note": 68,
      "start": 26.5339,
      "duration": 0.0177,
      "velocity": 127,
      "chip": "ym2612"
    },
    {
      "channel": 0,
      "note": 64,
      "start": 26.551,
      "duration": 0.0998,
      "velocity": 97,
      "chip": "ym2612"
    },
    {
      "channel": 2,
      "note": 74,
      "start": 26.5517,
      "duration": 0.0011,
      "velocity": 127,
      "chip": "ym2612"
    },
    {
      "channel": 3,
      "note": 40,
      "start": 26.5522,
      "duration": 0.0994,
      "velocity": 27,
      "chip": "ym2612"
    },
    {
      "channel": 2,
      "note": 73,
      "start": 26.5527,
      "duration": 0.0144,
      "velocity": 127,
      "chip": "ym2612"
    },
    {
      "channel": 2,
      "note": 72,
      "start": 26.5672,
      "duration": 0.0167,
      "velocity": 127,
      "chip": "ym2612"
    },
    {
      "channel": 2,
      "note": 70,
      "start": 26.5839,
      "duration": 0.0167,
      "velocity": 127,
      "chip": "ym2612"
    },
    {
      "channel": 2,
      "note": 69,
      "start": 26.6005,
      "duration": 0.0333,
      "velocity": 127,
      "chip": "ym2612"
    },
    {
      "channel": 2,
      "note": 68,
      "start": 26.6339,
      "duration": 0.019,
      "velocity": 127,
      "chip": "ym2612"
    },
    {
      "channel": 0,
      "note": 62,
      "start": 26.651,
      "duration": 0.0998,
      "velocity": 97,
      "chip": "ym2612"
    },
    {
      "channel": 3,
      "note": 28,
      "start": 26.6518,
      "duration": 1.6015,
      "velocity": 27,
      "chip": "ym2612"
    },
    {
      "channel": 5,
      "note": 74,
      "start": 26.6524,
      "duration": 0.3997,
      "velocity": 127,
      "chip": "ym2612"
    },
    {
      "channel": 2,
      "note": 67,
      "start": 26.6529,
      "duration": 0.0143,
      "velocity": 127,
      "chip": "ym2612"
    },
    {
      "channel": 2,
      "note": 66,
      "start": 26.6672,
      "duration": 0.0167,
      "velocity": 127,
      "chip": "ym2612"
    },
    {
      "channel": 2,
      "note": 65,
      "start": 26.6839,
      "duration": 0.0167,
      "velocity": 127,
      "chip": "ym2612"
    },
    {
      "channel": 2,
      "note": 64,
      "start": 26.7005,
      "duration": 0.0333,
      "velocity": 127,
      "chip": "ym2612"
    },
    {
      "channel": 2,
      "note": 63,
      "start": 26.7339,
      "duration": 0.0177,
      "velocity": 127,
      "chip": "ym2612"
    },
    {
      "channel": 0,
      "note": 62,
      "start": 26.751,
      "duration": 0.0998,
      "velocity": 97,
      "chip": "ym2612"
    },
    {
      "channel": 2,
      "note": 69,
      "start": 26.7517,
      "duration": 0.0006,
      "velocity": 127,
      "chip": "ym2612"
    },
    {
      "channel": 2,
      "note": 68,
      "start": 26.7522,
      "duration": 0.015,
      "velocity": 127,
      "chip": "ym2612"
    },
    {
      "channel": 2,
      "note": 67,
      "start": 26.7672,
      "duration": 0.0167,
      "velocity": 127,
      "chip": "ym2612"
    },
    {
      "channel": 2,
      "note": 66,
      "start": 26.7839,
      "duration": 0.0167,
      "velocity": 127,
      "chip": "ym2612"
    },
    {
      "channel": 2,
      "note": 65,
      "start": 26.8005,
      "duration": 0.0333,
      "velocity": 127,
      "chip": "ym2612"
    },
    {
      "channel": 2,
      "note": 64,
      "start": 26.8339,
      "duration": 0.018,
      "velocity": 127,
      "chip": "ym2612"
    },
    {
      "channel": 0,
      "note": 52,
      "start": 26.851,
      "duration": 0.0998,
      "velocity": 97,
      "chip": "ym2612"
    },
    {
      "channel": 2,
      "note": 63,
      "start": 26.8518,
      "duration": 0.0154,
      "velocity": 127,
      "chip": "ym2612"
    },
    {
      "channel": 2,
      "note": 62,
      "start": 26.8672,
      "duration": 0.0167,
      "velocity": 127,
      "chip": "ym2612"
    },
    {
      "channel": 2,
      "note": 61,
      "start": 26.8839,
      "duration": 0.0167,
      "velocity": 127,
      "chip": "ym2612"
    },
    {
      "channel": 2,
      "note": 60,
      "start": 26.9005,
      "duration": 0.0333,
      "velocity": 127,
      "chip": "ym2612"
    },
    {
      "channel": 2,
      "note": 58,
      "start": 26.9339,
      "duration": 0.0176,
      "velocity": 127,
      "chip": "ym2612"
    },
    {
      "channel": 0,
      "note": 52,
      "start": 26.951,
      "duration": 0.0998,
      "velocity": 97,
      "chip": "ym2612"
    },
    {
      "channel": 2,
      "note": 69,
      "start": 26.9516,
      "duration": 0.0006,
      "velocity": 127,
      "chip": "ym2612"
    },
    {
      "channel": 2,
      "note": 68,
      "start": 26.9522,
      "duration": 0.015,
      "velocity": 127,
      "chip": "ym2612"
    },
    {
      "channel": 2,
      "note": 67,
      "start": 26.9672,
      "duration": 0.0167,
      "velocity": 127,
      "chip": "ym2612"
    },
    {
      "channel": 2,
      "note": 66,
      "start": 26.9839,
      "duration": 0.0167,
      "velocity": 127,
      "chip": "ym2612"
    },
    {
      "channel": 2,
      "note": 65,
      "start": 27.0005,
      "duration": 0.0333,
      "velocity": 127,
      "chip": "ym2612"
    },
    {
      "channel": 2,
      "note": 64,
      "start": 27.0339,
      "duration": 0.0176,
      "velocity": 127,
      "chip": "ym2612"
    },
    {
      "channel": 0,
      "note": 64,
      "start": 27.051,
      "duration": 0.0998,
      "velocity": 97,
      "chip": "ym2612"
    },
    {
      "channel": 2,
      "note": 69,
      "start": 27.0516,
      "duration": 0.0011,
      "velocity": 127,
      "chip": "ym2612"
    },
    {
      "channel": 5,
      "note": 74,
      "start": 27.0523,
      "duration": 0.3998,
      "velocity": 127,
      "chip": "ym2612"
    },
    {
      "channel": 2,
      "note": 68,
      "start": 27.0527,
      "duration": 0.0145,
      "velocity": 127,
      "chip": "ym2612"
    },
    {
      "channel": 2,
      "note": 67,
      "start": 27.0672,
      "duration": 0.0167,
      "velocity": 127,
      "chip": "ym2612"
    },
    {
      "channel": 2,
      "note": 66,
      "start": 27.0839,
      "duration": 0.0167,
      "velocity": 127,
      "chip": "ym2612"
    },
    {
      "channel": 2,
      "note": 65,
      "start": 27.1005,
      "duration": 0.0333,
      "velocity": 127,
      "chip": "ym2612"
    },
    {
      "channel": 2,
      "note": 64,
      "start": 27.1339,
      "duration": 0.0179,
      "velocity": 127,
      "chip": "ym2612"
    },
    {
      "channel": 0,
      "note": 64,
      "start": 27.151,
      "duration": 0.0998,
      "velocity": 97,
      "chip": "ym2612"
    },
    {
      "channel": 2,
      "note": 63,
      "start": 27.1518,
      "duration": 0.0154,
      "velocity": 127,
      "chip": "ym2612"
    },
    {
      "channel": 2,
      "note": 62,
      "start": 27.1672,
      "duration": 0.0167,
      "velocity": 127,
      "chip": "ym2612"
    },
    {
      "channel": 2,
      "note": 61,
      "start": 27.1839,
      "duration": 0.0167,
      "velocity": 127,
      "chip": "ym2612"
    },
    {
      "channel": 2,
      "note": 60,
      "start": 27.2005,
      "duration": 0.0333,
      "velocity": 127,
      "chip": "ym2612"
    },
    {
      "channel": 2,
      "note": 58,
      "start": 27.2339,
      "duration": 0.0176,
      "velocity": 127,
      "chip": "ym2612"
    },
    {
      "channel": 0,
      "note": 62,
      "start": 27.251,
      "duration": 0.0998,
      "velocity": 97,
      "chip": "ym2612"
    },
    {
      "channel": 2,
      "note": 74,
      "start": 27.2516,
      "duration": 0.0007,
      "velocity": 127,
      "chip": "ym2612"
    },
    {
      "channel": 2,
      "note": 73,
      "start": 27.2523,
      "duration": 0.0149,
      "velocity": 127,
      "chip": "ym2612"
    },
    {
      "channel": 2,
      "note": 72,
      "start": 27.2672,
      "duration": 0.0167,
      "velocity": 127,
      "chip": "ym2612"
    },
    {
      "channel": 2,
      "note": 70,
      "start": 27.2839,
      "duration": 0.0167,
      "velocity": 127,
      "chip": "ym2612"
    },
    {
      "channel": 2,
      "note": 69,
      "start": 27.3005,
      "duration": 0.0333,
      "velocity": 127,
      "chip": "ym2612"
    },
    {
      "channel": 2,
      "note": 68,
      "start": 27.3339,
      "duration": 0.0179,
      "velocity": 127,
      "chip": "ym2612"
    },
    {
      "channel": 0,
      "note": 62,
      "start": 27.351,
      "duration": 0.0998,
      "velocity": 97,
      "chip": "ym2612"
    },
    {
      "channel": 2,
      "note": 67,
      "start": 27.3517,
      "duration": 0.0154,
      "velocity": 127,
      "chip": "ym2612"
    },
    {
      "channel": 2,
      "note": 66,
      "start": 27.3671,
      "duration": 0.0167,
      "velocity": 127,
      "chip": "ym2612"
    },
    {
      "channel": 2,
      "note": 65,
      "start": 27.3839,
      "duration": 0.0167,
      "velocity": 127,
      "chip": "ym2612"
    },
    {
      "channel": 2,
      "note": 64,
      "start": 27.4005,
      "duration": 0.0333,
      "velocity": 127,
      "chip": "ym2612"
    },
    {
      "channel": 2,
      "note": 63,
      "start": 27.4339,
      "duration": 0.0176,
      "velocity": 127,
      "chip": "ym2612"
    },
    {
      "channel": 0,
      "note": 52,
      "start": 27.451,
      "duration": 0.0998,
      "velocity": 97,
      "chip": "ym2612"
    },
    {
      "channel": 2,
      "note": 74,
      "start": 27.4516,
      "duration": 0.0011,
      "velocity": 127,
      "chip": "ym2612"
    },
    {
      "channel": 5,
      "note": 74,
      "start": 27.4523,
      "duration": 0.3994,
      "velocity": 127,
      "chip": "ym2612"
    },
    {
      "channel": 2,
      "note": 73,
      "start": 27.4527,
      "duration": 0.0145,
      "velocity": 127,
      "chip": "ym2612"
    },
    {
      "channel": 2,
      "note": 72,
      "start": 27.4672,
      "duration": 0.0167,
      "velocity": 127,
      "chip": "ym2612"
    },
    {
      "channel": 2,
      "note": 70,
      "start": 27.4839,
      "duration": 0.0167,
      "velocity": 127,
      "chip": "ym2612"
    },
    {
      "channel": 2,
      "note": 69,
      "start": 27.5005,
      "duration": 0.0333,
      "velocity": 127,
      "chip": "ym2612"
    },
    {
      "channel": 2,
      "note": 68,
      "start": 27.5339,
      "duration": 0.0179,
      "velocity": 127,
      "chip": "ym2612"
    },
    {
      "channel": 0,
      "note": 52,
      "start": 27.551,
      "duration": 0.0998,
      "velocity": 97,
      "chip": "ym2612"
    },
    {
      "channel": 2,
      "note": 67,
      "start": 27.5517,
      "duration": 0.0155,
      "velocity": 127,
      "chip": "ym2612"
    },
    {
      "channel": 2,
      "note": 66,
      "start": 27.5672,
      "duration": 0.0167,
      "velocity": 127,
      "chip": "ym2612"
    },
    {
      "channel": 2,
      "note": 65,
      "start": 27.5839,
      "duration": 0.0167,
      "velocity": 127,
      "chip": "ym2612"
    },
    {
      "channel": 2,
      "note": 64,
      "start": 27.6005,
      "duration": 0.0333,
      "velocity": 127,
      "chip": "ym2612"
    },
    {
      "channel": 2,
      "note": 63,
      "start": 27.6339,
      "duration": 0.018,
      "velocity": 127,
      "chip": "ym2612"
    },
    {
      "channel": 0,
      "note": 64,
      "start": 27.651,
      "duration": 0.0998,
      "velocity": 97,
      "chip": "ym2612"
    },
    {
      "channel": 2,
      "note": 62,
      "start": 27.6518,
      "duration": 0.0154,
      "velocity": 127,
      "chip": "ym2612"
    },
    {
      "channel": 2,
      "note": 61,
      "start": 27.6672,
      "duration": 0.0167,
      "velocity": 127,
      "chip": "ym2612"
    },
    {
      "channel": 2,
      "note": 60,
      "start": 27.6839,
      "duration": 0.0167,
      "velocity": 127,
      "chip": "ym2612"
    },
    {
      "channel": 2,
      "note": 58,
      "start": 27.7005,
      "duration": 0.0333,
      "velocity": 127,
      "chip": "ym2612"
    },
    {
      "channel": 2,
      "note": 57,
      "start": 27.7339,
      "duration": 0.0176,
      "velocity": 127,
      "chip": "ym2612"
    },
    {
      "channel": 0,
      "note": 64,
      "start": 27.751,
      "duration": 0.0998,
      "velocity": 97,
      "chip": "ym2612"
    },
    {
      "channel": 2,
      "note": 74,
      "start": 27.7516,
      "duration": 0.0006,
      "velocity": 127,
      "chip": "ym2612"
    },
    {
      "channel": 2,
      "note": 73,
      "start": 27.7522,
      "duration": 0.015,
      "velocity": 127,
      "chip": "ym2612"
    },
    {
      "channel": 2,
      "note": 72,
      "start": 27.7672,
      "duration": 0.0167,
      "velocity": 127,
      "chip": "ym2612"
    },
    {
      "channel": 2,
      "note": 70,
      "start": 27.7839,
      "duration": 0.0167,
      "velocity": 127,
      "chip": "ym2612"
    },
    {
      "channel": 2,
      "note": 69,
      "start": 27.8005,
      "duration": 0.0333,
      "velocity": 127,
      "chip": "ym2612"
    },
    {
      "channel": 2,
      "note": 68,
      "start": 27.8339,
      "duration": 0.0184,
      "velocity": 127,
      "chip": "ym2612"
    },
    {
      "channel": 0,
      "note": 62,
      "start": 27.851,
      "duration": 0.0998,
      "velocity": 97,
      "chip": "ym2612"
    },
    {
      "channel": 5,
      "note": 74,
      "start": 27.8519,
      "duration": 0.402,
      "velocity": 127,
      "chip": "ym2612"
    },
    {
      "channel": 2,
      "note": 67,
      "start": 27.8523,
      "duration": 0.0149,
      "velocity": 127,
      "chip": "ym2612"
    },
    {
      "channel": 2,
      "note": 66,
      "start": 27.8672,
      "duration": 0.0167,
      "velocity": 127,
      "chip": "ym2612"
    },
    {
      "channel": 2,
      "note": 65,
      "start": 27.8839,
      "duration": 0.0167,
      "velocity": 127,
      "chip": "ym2612"
    },
    {
      "channel": 2,
      "note": 64,
      "start": 27.9005,
      "duration": 0.0333,
      "velocity": 127,
      "chip": "ym2612"
    },
    {
      "channel": 2,
      "note": 63,
      "start": 27.9339,
      "duration": 0.0179,
      "velocity": 127,
      "chip": "ym2612"
    },
    {
      "channel": 0,
      "note": 62,
      "start": 27.951,
      "duration": 0.0998,
      "velocity": 97,
      "chip": "ym2612"
    },
    {
      "channel": 2,
      "note": 62,
      "start": 27.9518,
      "duration": 0.0154,
      "velocity": 127,
      "chip": "ym2612"
    },
    {
      "channel": 2,
      "note": 61,
      "start": 27.9672,
      "duration": 0.0167,
      "velocity": 127,
      "chip": "ym2612"
    },
    {
      "channel": 2,
      "note": 60,
      "start": 27.9839,
      "duration": 0.0167,
      "velocity": 127,
      "chip": "ym2612"
    },
    {
      "channel": 2,
      "note": 58,
      "start": 28.0005,
      "duration": 0.0333,
      "velocity": 127,
      "chip": "ym2612"
    },
    {
      "channel": 2,
      "note": 57,
      "start": 28.0339,
      "duration": 0.0176,
      "velocity": 127,
      "chip": "ym2612"
    },
    {
      "channel": 0,
      "note": 52,
      "start": 28.051,
      "duration": 0.0998,
      "velocity": 97,
      "chip": "ym2612"
    },
    {
      "channel": 2,
      "note": 74,
      "start": 28.0516,
      "duration": 0.0007,
      "velocity": 127,
      "chip": "ym2612"
    },
    {
      "channel": 2,
      "note": 73,
      "start": 28.0523,
      "duration": 0.0149,
      "velocity": 127,
      "chip": "ym2612"
    },
    {
      "channel": 2,
      "note": 72,
      "start": 28.0672,
      "duration": 0.0167,
      "velocity": 127,
      "chip": "ym2612"
    },
    {
      "channel": 2,
      "note": 70,
      "start": 28.0839,
      "duration": 0.0167,
      "velocity": 127,
      "chip": "ym2612"
    },
    {
      "channel": 2,
      "note": 69,
      "start": 28.1005,
      "duration": 0.0333,
      "velocity": 127,
      "chip": "ym2612"
    },
    {
      "channel": 2,
      "note": 68,
      "start": 28.1339,
      "duration": 0.0176,
      "velocity": 127,
      "chip": "ym2612"
    },
    {
      "channel": 0,
      "note": 52,
      "start": 28.151,
      "duration": 0.0999,
      "velocity": 97,
      "chip": "ym2612"
    },
    {
      "channel": 2,
      "note": 74,
      "start": 28.1516,
      "duration": 0.0006,
      "velocity": 127,
      "chip": "ym2612"
    },
    {
      "channel": 2,
      "note": 73,
      "start": 28.1522,
      "duration": 0.015,
      "velocity": 127,
      "chip": "ym2612"
    },
    {
      "channel": 2,
      "note": 72,
      "start": 28.1672,
      "duration": 0.0167,
      "velocity": 127,
      "chip": "ym2612"
    },
    {
      "channel": 2,
      "note": 70,
      "start": 28.1839,
      "duration": 0.0167,
      "velocity": 127,
      "chip": "ym2612"
    },
    {
      "channel": 2,
      "note": 69,
      "start": 28.2005,
      "duration": 0.0333,
      "velocity": 127,
      "chip": "ym2612"
    },
    {
      "channel": 2,
      "note": 68,
      "start": 28.2339,
      "duration": 0.0206,
      "velocity": 127,
      "chip": "ym2612"
    },
    {
      "channel": 0,
      "note": 64,
      "start": 28.251,
      "duration": 0.0998,
      "velocity": 97,
      "chip": "ym2612"
    },
    {
      "channel": 3,
      "note": 28,
      "start": 28.2534,
      "duration": 0.0986,
      "velocity": 27,
      "chip": "ym2612"
    },
    {
      "channel": 5,
      "note": 74,
      "start": 28.2541,
      "duration": 0.3986,
      "velocity": 127,
      "chip": "ym2612"
    },
    {
      "channel": 2,
      "note": 67,
      "start": 28.2544,
      "duration": 0.0127,
      "velocity": 127,
      "chip": "ym2612"
    },
    {
      "channel": 2,
      "note": 66,
      "start": 28.2672,
      "duration": 0.0167,
      "velocity": 127,
      "chip": "ym2612"
    },
    {
      "channel": 2,
      "note": 65,
      "start": 28.2839,
      "duration": 0.0167,
      "velocity": 127,
      "chip": "ym2612"
    },
    {
      "channel": 2,
      "note": 64,
      "start": 28.3005,
      "duration": 0.0333,
      "velocity": 127,
      "chip": "ym2612"
    },
    {
      "channel": 2,
      "note": 63,
      "start": 28.3339,
      "duration": 0.0177,
      "velocity": 127,
      "chip": "ym2612"
    },
    {
      "channel": 0,
      "note": 64,
      "start": 28.351,
      "duration": 0.0998,
      "velocity": 97,
      "chip": "ym2612"
    },
    {
      "channel": 2,
      "note": 69,
      "start": 28.3517,
      "duration": 0.0011,
      "velocity": 127,
      "chip": "ym2612"
    },
    {
      "channel": 3,
      "note": 28,
      "start": 28.3522,
      "duration": 0.0994,
      "velocity": 27,
      "chip": "ym2612"
    },
    {
      "channel": 2,
      "note": 68,
      "start": 28.3527,
      "duration": 0.0144,
      "velocity": 127,
      "chip": "ym2612"
    },
    {
      "channel": 2,
      "note": 67,
      "start": 28.3672,
      "duration": 0.0167,
      "velocity": 127,
      "chip": "ym2612"
    },
    {
      "channel": 2,
      "note": 66,
      "start": 28.3839,
      "duration": 0.0167,
      "velocity": 127,
      "chip": "ym2612"
    },
    {
      "channel": 2,
      "note": 65,
      "start": 28.4005,
      "duration": 0.0333,
      "velocity": 127,
      "chip": "ym2612"
    },
    {
      "channel": 2,
      "note": 64,
      "start": 28.4339,
      "duration": 0.0186,
      "velocity": 127,
      "chip": "ym2612"
    },
    {
      "channel": 0,
      "note": 62,
      "start": 28.451,
      "duration": 0.0998,
      "velocity": 97,
      "chip": "ym2612"
    },
    {
      "channel": 3,
      "note": 40,
      "start": 28.4518,
      "duration": 0.1002,
      "velocity": 27,
      "chip": "ym2612"
    },
    {
      "channel": 2,
      "note": 63,
      "start": 28.4524,
      "duration": 0.0148,
      "velocity": 127,
      "chip": "ym2612"
    },
    {
      "channel": 2,
      "note": 62,
      "start": 28.4672,
      "duration": 0.0167,
      "velocity": 127,
      "chip": "ym2612"
    },
    {
      "channel": 2,
      "note": 61,
      "start": 28.4839,
      "duration": 0.0167,
      "velocity": 127,
      "chip": "ym2612"
    },
    {
      "channel": 2,
      "note": 60,
      "start": 28.5005,
      "duration": 0.0333,
      "velocity": 127,
      "chip": "ym2612"
    },
    {
      "channel": 2,
      "note": 58,
      "start": 28.5339,
      "duration": 0.0177,
      "velocity": 127,
      "chip": "ym2612"
    },
    {
      "channel": 0,
      "note": 62,
      "start": 28.551,
      "duration": 0.0998,
      "velocity": 97,
      "chip": "ym2612"
    },
    {
      "channel": 2,
      "note": 69,
      "start": 28.5517,
      "duration": 0.0011,
      "velocity": 127,
      "chip": "ym2612"
    },
    {
      "channel": 3,
      "note": 40,
      "start": 28.5522,
      "duration": 0.0998,
      "velocity": 27,
      "chip": "ym2612"
    },
    {
      "channel": 2,
      "note": 68,
      "start": 28.5527,
      "duration": 0.0144,
      "velocity": 127,
      "chip": "ym2612"
    },
    {
      "channel": 2,
      "note": 67,
      "start": 28.5672,
      "duration": 0.0167,
      "velocity": 127,
      "chip": "ym2612"
    },
    {
      "channel": 2,
      "note": 66,
      "start": 28.5839,
      "duration": 0.0167,
      "velocity": 127,
      "chip": "ym2612"
    },
    {
      "channel": 2,
      "note": 65,
      "start": 28.6005,
      "duration": 0.0333,
      "velocity": 127,
      "chip": "ym2612"
    },
    {
      "channel": 2,
      "note": 64,
      "start": 28.6339,
      "duration": 0.0177,
      "velocity": 127,
      "chip": "ym2612"
    },
    {
      "channel": 0,
      "note": 50,
      "start": 28.651,
      "duration": 0.0998,
      "velocity": 97,
      "chip": "ym2612"
    },
    {
      "channel": 2,
      "note": 69,
      "start": 28.6517,
      "duration": 0.0016,
      "velocity": 127,
      "chip": "ym2612"
    },
    {
      "channel": 3,
      "note": 28,
      "start": 28.6522,
      "duration": 0.101,
      "velocity": 27,
      "chip": "ym2612"
    },
    {
      "channel": 5,
      "note": 74,
      "start": 28.6529,
      "duration": 0.3998,
      "velocity": 127,
      "chip": "ym2612"
    },
    {
      "channel": 2,
      "note": 68,
      "start": 28.6532,
      "duration": 0.0139,
      "velocity": 127,
      "chip": "ym2612"
    },
    {
      "channel": 2,
      "note": 67,
      "start": 28.6672,
      "duration": 0.0167,
      "velocity": 127,
      "chip": "ym2612"
    },
    {
      "channel": 2,
      "note": 66,
      "start": 28.6839,
      "duration": 0.0167,
      "velocity": 127,
      "chip": "ym2612"
    },
    {
      "channel": 2,
      "note": 65,
      "start": 28.7005,
      "duration": 0.0333,
      "velocity": 127,
      "chip": "ym2612"
    },
    {
      "channel": 2,
      "note": 64,
      "start": 28.7339,
      "duration": 0.0201,
      "velocity": 127,
      "chip": "ym2612"
    },
    {
      "channel": 0,
      "note": 50,
      "start": 28.751,
      "duration": 0.0998,
      "velocity": 97,
      "chip": "ym2612"
    },
    {
      "channel": 3,
      "note": 28,
      "start": 28.7534,
      "duration": 0.0986,
      "velocity": 27,
      "chip": "ym2612"
    },
    {
      "channel": 2,
      "note": 63,
      "start": 28.7539,
      "duration": 0.0132,
      "velocity": 127,
      "chip": "ym2612"
    },
    {
      "channel": 2,
      "note": 62,
      "start": 28.7672,
      "duration": 0.0167,
      "velocity": 127,
      "chip": "ym2612"
    },
    {
      "channel": 2,
      "note": 61,
      "start": 28.7839,
      "duration": 0.0167,
      "velocity": 127,
      "chip": "ym2612"
    },
    {
      "channel": 2,
      "note": 60,
      "start": 28.8005,
      "duration": 0.0333,
      "velocity": 127,
      "chip": "ym2612"
    },
    {
      "channel": 2,
      "note": 58,
      "start": 28.8339,
      "duration": 0.0177,
      "velocity": 127,
      "chip": "ym2612"
    },
    {
      "channel": 0,
      "note": 52,
      "start": 28.851,
      "duration": 0.0998,
      "velocity": 97,
      "chip": "ym2612"
    },
    {
      "channel": 2,
      "note": 74,
      "start": 28.8517,
      "duration": 0.0012,
      "velocity": 127,
      "chip": "ym2612"
    },
    {
      "channel": 3,
      "note": 40,
      "start": 28.8522,
      "duration": 0.0994,
      "velocity": 27,
      "chip": "ym2612"
    },
    {
      "channel": 2,
      "note": 73,
      "start": 28.8528,
      "duration": 0.0144,
      "velocity": 127,
      "chip": "ym2612"
    },
    {
      "channel": 2,
      "note": 72,
      "start": 28.8672,
      "duration": 0.0167,
      "velocity": 127,
      "chip": "ym2612"
    },
    {
      "channel": 2,
      "note": 70,
      "start": 28.8839,
      "duration": 0.0167,
      "velocity": 127,
      "chip": "ym2612"
    },
    {
      "channel": 2,
      "note": 69,
      "start": 28.9005,
      "duration": 0.0333,
      "velocity": 127,
      "chip": "ym2612"
    },
    {
      "channel": 2,
      "note": 68,
      "start": 28.9339,
      "duration": 0.0184,
      "velocity": 127,
      "chip": "ym2612"
    },
    {
      "channel": 0,
      "note": 52,
      "start": 28.951,
      "duration": 0.0998,
      "velocity": 97,
      "chip": "ym2612"
    },
    {
      "channel": 3,
      "note": 40,
      "start": 28.9518,
      "duration": 0.1002,
      "velocity": 27,
      "chip": "ym2612"
    },
    {
      "channel": 2,
      "note": 67,
      "start": 28.9523,
      "duration": 0.0149,
      "velocity": 127,
      "chip": "ym2612"
    },
    {
      "channel": 2,
      "note": 66,
      "start": 28.9672,
      "duration": 0.0167,
      "velocity": 127,
      "chip": "ym2612"
    },
    {
      "channel": 2,
      "note": 65,
      "start": 28.9839,
      "duration": 0.0167,
      "velocity": 127,
      "chip": "ym2612"
    },
    {
      "channel": 2,
      "note": 64,
      "start": 29.0005,
      "duration": 0.0333,
      "velocity": 127,
      "chip": "ym2612"
    },
    {
      "channel": 2,
      "note": 63,
      "start": 29.0339,
      "duration": 0.0177,
      "velocity": 127,
      "chip": "ym2612"
    },
    {
      "channel": 0,
      "note": 64,
      "start": 29.051,
      "duration": 0.0998,
      "velocity": 97,
      "chip": "ym2612"
    },
    {
      "channel": 2,
      "note": 74,
      "start": 29.0517,
      "duration": 0.0016,
      "velocity": 127,
      "chip": "ym2612"
    },
    {
      "channel": 3,
      "note": 28,
      "start": 29.0522,
      "duration": 0.801,
      "velocity": 27,
      "chip": "ym2612"
    },
    {
      "channel": 5,
      "note": 74,
      "start": 29.0529,
      "duration": 0.3989,
      "velocity": 127,
      "chip": "ym2612"
    },
    {
      "channel": 2,
      "note": 73,
      "start": 29.0532,
      "duration": 0.0139,
      "velocity": 127,
      "chip": "ym2612"
    },
    {
      "channel": 2,
      "note": 72,
      "start": 29.0672,
      "duration": 0.0167,
      "velocity": 127,
      "chip": "ym2612"
    },
    {
      "channel": 2,
      "note": 70,
      "start": 29.0839,
      "duration": 0.0167,
      "velocity": 127,
      "chip": "ym2612"
    },
    {
      "channel": 2,
      "note": 69,
      "start": 29.1005,
      "duration": 0.0333,
      "velocity": 127,
      "chip": "ym2612"
    },
    {
      "channel": 2,
      "note": 68,
      "start": 29.1339,
      "duration": 0.0179,
      "velocity": 127,
      "chip": "ym2612"
    },
    {
      "channel": 0,
      "note": 64,
      "start": 29.151,
      "duration": 0.0998,
      "velocity": 97,
      "chip": "ym2612"
    },
    {
      "channel": 2,
      "note": 67,
      "start": 29.1518,
      "duration": 0.0154,
      "velocity": 127,
      "chip": "ym2612"
    },
    {
      "channel": 2,
      "note": 66,
      "start": 29.1672,
      "duration": 0.0167,
      "velocity": 127,
      "chip": "ym2612"
    },
    {
      "channel": 2,
      "note": 65,
      "start": 29.1839,
      "duration": 0.0167,
      "velocity": 127,
      "chip": "ym2612"
    },
    {
      "channel": 2,
      "note": 64,
      "start": 29.2005,
      "duration": 0.0333,
      "velocity": 127,
      "chip": "ym2612"
    },
    {
      "channel": 2,
      "note": 63,
      "start": 29.2339,
      "duration": 0.018,
      "velocity": 127,
      "chip": "ym2612"
    },
    {
      "channel": 0,
      "note": 62,
      "start": 29.251,
      "duration": 0.0998,
      "velocity": 97,
      "chip": "ym2612"
    },
    {
      "channel": 2,
      "note": 62,
      "start": 29.2518,
      "duration": 0.0154,
      "velocity": 127,
      "chip": "ym2612"
    },
    {
      "channel": 2,
      "note": 61,
      "start": 29.2672,
      "duration": 0.0166,
      "velocity": 127,
      "chip": "ym2612"
    },
    {
      "channel": 2,
      "note": 60,
      "start": 29.2838,
      "duration": 0.0167,
      "velocity": 127,
      "chip": "ym2612"
    },
    {
      "channel": 2,
      "note": 58,
      "start": 29.3005,
      "duration": 0.0333,
      "velocity": 127,
      "chip": "ym2612"
    },
    {
      "channel": 2,
      "note": 57,
      "start": 29.3338,
      "duration": 0.0176,
      "velocity": 127,
      "chip": "ym2612"
    },
    {
      "channel": 0,
      "note": 62,
      "start": 29.351,
      "duration": 0.0998,
      "velocity": 97,
      "chip": "ym2612"
    },
    {
      "channel": 2,
      "note": 74,
      "start": 29.3516,
      "duration": 0.0006,
      "velocity": 127,
      "chip": "ym2612"
    },
    {
      "channel": 2,
      "note": 73,
      "start": 29.3522,
      "duration": 0.015,
      "velocity": 127,
      "chip": "ym2612"
    },
    {
      "channel": 2,
      "note": 72,
      "start": 29.3672,
      "duration": 0.0167,
      "velocity": 127,
      "chip": "ym2612"
    },
    {
      "channel": 2,
      "note": 70,
      "start": 29.3839,
      "duration": 0.0166,
      "velocity": 127,
      "chip": "ym2612"
    },
    {
      "channel": 2,
      "note": 69,
      "start": 29.4005,
      "duration": 0.0333,
      "velocity": 127,
      "chip": "ym2612"
    },
    {
      "channel": 2,
      "note": 68,
      "start": 29.4338,
      "duration": 0.0185,
      "velocity": 127,
      "chip": "ym2612"
    },
    {
      "channel": 0,
      "note": 52,
      "start": 29.451,
      "duration": 0.0998,
      "velocity": 97,
      "chip": "ym2612"
    },
    {
      "channel": 5,
      "note": 74,
      "start": 29.4518,
      "duration": 0.402,
      "velocity": 127,
      "chip": "ym2612"
    },
    {
      "channel": 2,
      "note": 67,
      "start": 29.4523,
      "duration": 0.0149,
      "velocity": 127,
      "chip": "ym2612"
    },
    {
      "channel": 2,
      "note": 66,
      "start": 29.4672,
      "duration": 0.0166,
      "velocity": 127,
      "chip": "ym2612"
    },
    {
      "channel": 2,
      "note": 65,
      "start": 29.4838,
      "duration": 0.0167,
      "velocity": 127,
      "chip": "ym2612"
    },
    {
      "channel": 2,
      "note": 64,
      "start": 29.5005,
      "duration": 0.0333,
      "velocity": 127,
      "chip": "ym2612"
    },
    {
      "channel": 2,
      "note": 63,
      "start": 29.5338,
      "duration": 0.0179,
      "velocity": 127,
      "chip": "ym2612"
    },
    {
      "channel": 0,
      "note": 52,
      "start": 29.551,
      "duration": 0.0998,
      "velocity": 97,
      "chip": "ym2612"
    },
    {
      "channel": 2,
      "note": 62,
      "start": 29.5517,
      "duration": 0.0155,
      "velocity": 127,
      "chip": "ym2612"
    },
    {
      "channel": 2,
      "note": 61,
      "start": 29.5672,
      "duration": 0.0167,
      "velocity": 127,
      "chip": "ym2612"
    },
    {
      "channel": 2,
      "note": 60,
      "start": 29.5839,
      "duration": 0.0166,
      "velocity": 127,
      "chip": "ym2612"
    },
    {
      "channel": 2,
      "note": 58,
      "start": 29.6005,
      "duration": 0.0334,
      "velocity": 127,
      "chip": "ym2612"
    },
    {
      "channel": 2,
      "note": 57,
      "start": 29.6339,
      "duration": 0.0176,
      "velocity": 127,
      "chip": "ym2612"
    },
    {
      "channel": 0,
      "note": 64,
      "start": 29.651,
      "duration": 0.0998,
      "velocity": 97,
      "chip": "ym2612"
    },
    {
      "channel": 2,
      "note": 74,
      "start": 29.6516,
      "duration": 0.0007,
      "velocity": 127,
      "chip": "ym2612"
    },
    {
      "channel": 2,
      "note": 73,
      "start": 29.6523,
      "duration": 0.0148,
      "velocity": 127,
      "chip": "ym2612"
    },
    {
      "channel": 2,
      "note": 72,
      "start": 29.6671,
      "duration": 0.0167,
      "velocity": 127,
      "chip": "ym2612"
    },
    {
      "channel": 2,
      "note": 70,
      "start": 29.6838,
      "duration": 0.0167,
      "velocity": 127,
      "chip": "ym2612"
    },
    {
      "channel": 2,
      "note": 69,
      "start": 29.7005,
      "duration": 0.0333,
      "velocity": 127,
      "chip": "ym2612"
    },
    {
      "channel": 2,
      "note": 68,
      "start": 29.7338,
      "duration": 0.0177,
      "velocity": 127,
      "chip": "ym2612"
    },
    {
      "channel": 0,
      "note": 64,
      "start": 29.751,
      "duration": 0.0999,
      "velocity": 97,
      "chip": "ym2612"
    },
    {
      "channel": 2,
      "note": 74,
      "start": 29.7516,
      "duration": 0.0006,
      "velocity": 127,
      "chip": "ym2612"
    },
    {
      "channel": 2,
      "note": 73,
      "start": 29.7522,
      "duration": 0.015,
      "velocity": 127,
      "chip": "ym2612"
    },
    {
      "channel": 2,
      "note": 72,
      "start": 29.7671,
      "duration": 0.0167,
      "velocity": 127,
      "chip": "ym2612"
    },
    {
      "channel": 2,
      "note": 70,
      "start": 29.7839,
      "duration": 0.0166,
      "velocity": 127,
      "chip": "ym2612"
    },
    {
      "channel": 2,
      "note": 69,
      "start": 29.8005,
      "duration": 0.0334,
      "velocity": 127,
      "chip": "ym2612"
    },
    {
      "channel": 2,
      "note": 68,
      "start": 29.8339,
      "duration": 0.0205,
      "velocity": 127,
      "chip": "ym2612"
    },
    {
      "channel": 0,
      "note": 62,
      "start": 29.851,
      "duration": 0.0999,
      "velocity": 97,
      "chip": "ym2612"
    },
    {
      "channel": 3,
      "note": 28,
      "start": 29.8534,
      "duration": 0.0986,
      "velocity": 27,
      "chip": "ym2612"
    },
    {
      "channel": 5,
      "note": 74,
      "start": 29.854,
      "duration": 0.3987,
      "velocity": 127,
      "chip": "ym2612"
    },
    {
      "channel": 2,
      "note": 67,
      "start": 29.8544,
      "duration": 0.0128,
      "velocity": 127,
      "chip": "ym2612"
    },
    {
      "channel": 2,
      "note": 66,
      "start": 29.8672,
      "duration": 0.0166,
      "velocity": 127,
      "chip": "ym2612"
    },
    {
      "channel": 2,
      "note": 65,
      "start": 29.8838,
      "duration": 0.0167,
      "velocity": 127,
      "chip": "ym2612"
    },
    {
      "channel": 2,
      "note": 64,
      "start": 29.9005,
      "duration": 0.0333,
      "velocity": 127,
      "chip": "ym2612"
    },
    {
      "channel": 2,
      "note": 63,
      "start": 29.9338,
      "duration": 0.0177,
      "velocity": 127,
      "chip": "ym2612"
    },
    {
      "channel": 0,
      "note": 62,
      "start": 29.951,
      "duration": 0.0999,
      "velocity": 97,
      "chip": "ym2612"
    },
    {
      "channel": 2,
      "note": 69,
      "start": 29.9516,
      "duration": 0.0011,
      "velocity": 127,
      "chip": "ym2612"
    },
    {
      "channel": 3,
      "note": 28,
      "start": 29.9522,
      "duration": 0.0994,
      "velocity": 27,
      "chip": "ym2612"
    },
    {
      "channel": 2,
      "note": 68,
      "start": 29.9527,
      "duration": 0.0144,
      "velocity": 127,
      "chip": "ym2612"
    },
    {
      "channel": 2,
      "note": 67,
      "start": 29.9671,
      "duration": 0.0167,
      "velocity": 127,
      "chip": "ym2612"
    },
    {
      "channel": 2,
      "note": 66,
      "start": 29.9838,
      "duration": 0.0167,
      "velocity": 127,
      "chip": "ym2612"
    },
    {
      "channel": 2,
      "note": 65,
      "start": 30.0005,
      "duration": 0.0333,
      "velocity": 127,
      "chip": "ym2612"
    },
    {
      "channel": 2,
      "note": 64,
      "start": 30.0338,
      "duration": 0.0186,
      "velocity": 127,
      "chip": "ym2612"
    },
    {
      "channel": 0,
      "note": 52,
      "start": 30.051,
      "duration": 0.0999,
      "velocity": 97,
      "chip": "ym2612"
    },
    {
      "channel": 3,
      "note": 40,
      "start": 30.0518,
      "duration": 0.1002,
      "velocity": 27,
      "chip": "ym2612"
    },
    {
      "channel": 2,
      "note": 63,
      "start": 30.0524,
      "duration": 0.0148,
      "velocity": 127,
      "chip": "ym2612"
    },
    {
      "channel": 2,
      "note": 62,
      "start": 30.0671,
      "duration": 0.0167,
      "velocity": 127,
      "chip": "ym2612"
    },
    {
      "channel": 2,
      "note": 61,
      "start": 30.0838,
      "duration": 0.0167,
      "velocity": 127,
      "chip": "ym2612"
    },
    {
      "channel": 2,
      "note": 60,
      "start": 30.1005,
      "duration": 0.0333,
      "velocity": 127,
      "chip": "ym2612"
    },
    {
      "channel": 2,
      "note": 58,
      "start": 30.1338,
      "duration": 0.0177,
      "velocity": 127,
      "chip": "ym2612"
    },
    {
      "channel": 0,
      "note": 52,
      "start": 30.151,
      "duration": 0.0999,
      "velocity": 97,
      "chip": "ym2612"
    },
    {
      "channel": 2,
      "note": 69,
      "start": 30.1517,
      "duration": 0.001,
      "velocity": 127,
      "chip": "ym2612"
    },
    {
      "channel": 3,
      "note": 40,
      "start": 30.1522,
      "duration": 0.0999,
      "velocity": 27,
      "chip": "ym2612"
    },
    {
      "channel": 2,
      "note": 68,
      "start": 30.1527,
      "duration": 0.0145,
      "velocity": 127,
      "chip": "ym2612"
    },
    {
      "channel": 2,
      "note": 67,
      "start": 30.1672,
      "duration": 0.0167,
      "velocity": 127,
      "chip": "ym2612"
    },
    {
      "channel": 2,
      "note": 66,
      "start": 30.1839,
      "duration": 0.0166,
      "velocity": 127,
      "chip": "ym2612"
    },
    {
      "channel": 2,
      "note": 65,
      "start": 30.2005,
      "duration": 0.0334,
      "velocity": 127,
      "chip": "ym2612"
    },
    {
      "channel": 2,
      "note": 64,
      "start": 30.2339,
      "duration": 0.0176,
      "velocity": 127,
      "chip": "ym2612"
    },
    {
      "channel": 0,
      "note": 64,
      "start": 30.251,
      "duration": 0.0999,
      "velocity": 97,
      "chip": "ym2612"
    },
    {
      "channel": 2,
      "note": 69,
      "start": 30.2517,
      "duration": 0.0016,
      "velocity": 127,
      "chip": "ym2612"
    },
    {
      "channel": 3,
      "note": 28,
      "start": 30.2522,
      "duration": 0.101,
      "velocity": 27,
      "chip": "ym2612"
    },
    {
      "channel": 5,
      "note": 74,
      "start": 30.2528,
      "duration": 0.3999,
      "velocity": 127,
      "chip": "ym2612"
    },
    {
      "channel": 2,
      "note": 68,
      "start": 30.2532,
      "duration": 0.0139,
      "velocity": 127,
      "chip": "ym2612"
    },
    {
      "channel": 2,
      "note": 67,
      "start": 30.2672,
      "duration": 0.0166,
      "velocity": 127,
      "chip": "ym2612"
    },
    {
      "channel": 2,
      "note": 66,
      "start": 30.2838,
      "duration": 0.0167,
      "velocity": 127,
      "chip": "ym2612"
    },
    {
      "channel": 2,
      "note": 65,
      "start": 30.3005,
      "duration": 0.0333,
      "velocity": 127,
      "chip": "ym2612"
    },
    {
      "channel": 2,
      "note": 64,
      "start": 30.3338,
      "duration": 0.0201,
      "velocity": 127,
      "chip": "ym2612"
    },
    {
      "channel": 0,
      "note": 64,
      "start": 30.351,
      "duration": 0.0999,
      "velocity": 97,
      "chip": "ym2612"
    },
    {
      "channel": 3,
      "note": 28,
      "start": 30.3534,
      "duration": 0.0987,
      "velocity": 27,
      "chip": "ym2612"
    },
    {
      "channel": 2,
      "note": 63,
      "start": 30.3539,
      "duration": 0.0133,
      "velocity": 127,
      "chip": "ym2612"
    },
    {
      "channel": 2,
      "note": 62,
      "start": 30.3672,
      "duration": 0.0166,
      "velocity": 127,
      "chip": "ym2612"
    },
    {
      "channel": 2,
      "note": 61,
      "start": 30.3838,
      "duration": 0.0167,
      "velocity": 127,
      "chip": "ym2612"
    },
    {
      "channel": 2,
      "note": 60,
      "start": 30.4005,
      "duration": 0.0334,
      "velocity": 127,
      "chip": "ym2612"
    },
    {
      "channel": 2,
      "note": 58,
      "start": 30.4339,
      "duration": 0.0176,
      "velocity": 127,
      "chip": "ym2612"
    },
    {
      "channel": 0,
      "note": 62,
      "start": 30.451,
      "duration": 0.0999,
      "velocity": 97,
      "chip": "ym2612"
    },
    {
      "channel": 2,
      "note": 74,
      "start": 30.4517,
      "duration": 0.0012,
      "velocity": 127,
      "chip": "ym2612"
    },
    {
      "channel": 3,
      "note": 40,
      "start": 30.4522,
      "duration": 0.0995,
      "velocity": 27,
      "chip": "ym2612"
    },
    {
      "channel": 2,
      "note": 73,
      "start": 30.4528,
      "duration": 0.0143,
      "velocity": 127,
      "chip": "ym2612"
    },
    {
      "channel": 2,
      "note": 72,
      "start": 30.4671,
      "duration": 0.0167,
      "velocity": 127,
      "chip": "ym2612"
    },
    {
      "channel": 2,
      "note": 70,
      "start": 30.4839,
      "duration": 0.0167,
      "velocity": 127,
      "chip": "ym2612"
    },
    {
      "channel": 2,
      "note": 69,
      "start": 30.5005,
      "duration": 0.0333,
      "velocity": 127,
      "chip": "ym2612"
    },
    {
      "channel": 2,
      "note": 68,
      "start": 30.5339,
      "duration": 0.0184,
      "velocity": 127,
      "chip": "ym2612"
    },
    {
      "channel": 0,
      "note": 62,
      "start": 30.551,
      "duration": 0.0998,
      "velocity": 97,
      "chip": "ym2612"
    },
    {
      "channel": 3,
      "note": 40,
      "start": 30.5518,
      "duration": 0.1002,
      "velocity": 27,
      "chip": "ym2612"
    },
    {
      "channel": 2,
      "note": 67,
      "start": 30.5523,
      "duration": 0.0149,
      "velocity": 127,
      "chip": "ym2612"
    },
    {
      "channel": 2,
      "note": 66,
      "start": 30.5672,
      "duration": 0.0167,
      "velocity": 127,
      "chip": "ym2612"
    },
    {
      "channel": 2,
      "note": 65,
      "start": 30.5839,
      "duration": 0.0167,
      "velocity": 127,
      "chip": "ym2612"
    },
    {
      "channel": 2,
      "note": 64,
      "start": 30.6005,
      "duration": 0.0333,
      "velocity": 127,
      "chip": "ym2612"
    },
    {
      "channel": 2,
      "note": 63,
      "start": 30.6339,
      "duration": 0.0177,
      "velocity": 127,
      "chip": "ym2612"
    },
    {
      "channel": 0,
      "note": 52,
      "start": 30.651,
      "duration": 0.0998,
      "velocity": 97,
      "chip": "ym2612"
    },
    {
      "channel": 2,
      "note": 74,
      "start": 30.6517,
      "duration": 0.0016,
      "velocity": 127,
      "chip": "ym2612"
    },
    {
      "channel": 3,
      "note": 28,
      "start": 30.6522,
      "duration": 1.5509,
      "velocity": 109,
      "chip": "ym2612"
    },
    {
      "channel": 5,
      "note": 74,
      "start": 30.6529,
      "duration": 0.3989,
      "velocity": 127,
      "chip": "ym2612"
    },
    {
      "channel": 2,
      "note": 73,
      "start": 30.6532,
      "duration": 0.0139,
      "velocity": 127,
      "chip": "ym2612"
    },
    {
      "channel": 2,
      "note": 72,
      "start": 30.6672,
      "duration": 0.0167,
      "velocity": 127,
      "chip": "ym2612"
    },
    {
      "channel": 2,
      "note": 70,
      "start": 30.6839,
      "duration": 0.0167,
      "velocity": 127,
      "chip": "ym2612"
    },
    {
      "channel": 2,
      "note": 69,
      "start": 30.7005,
      "duration": 0.0333,
      "velocity": 127,
      "chip": "ym2612"
    },
    {
      "channel": 2,
      "note": 68,
      "start": 30.7338,
      "duration": 0.018,
      "velocity": 127,
      "chip": "ym2612"
    },
    {
      "channel": 0,
      "note": 52,
      "start": 30.751,
      "duration": 0.0998,
      "velocity": 97,
      "chip": "ym2612"
    },
    {
      "channel": 2,
      "note": 67,
      "start": 30.7518,
      "duration": 0.0154,
      "velocity": 127,
      "chip": "ym2612"
    },
    {
      "channel": 2,
      "note": 66,
      "start": 30.7672,
      "duration": 0.0167,
      "velocity": 127,
      "chip": "ym2612"
    },
    {
      "channel": 2,
      "note": 65,
      "start": 30.7839,
      "duration": 0.0167,
      "velocity": 127,
      "chip": "ym2612"
    },
    {
      "channel": 2,
      "note": 64,
      "start": 30.8005,
      "duration": 0.0333,
      "velocity": 127,
      "chip": "ym2612"
    },
    {
      "channel": 2,
      "note": 63,
      "start": 30.8339,
      "duration": 0.018,
      "velocity": 127,
      "chip": "ym2612"
    },
    {
      "channel": 0,
      "note": 64,
      "start": 30.851,
      "duration": 0.0998,
      "velocity": 97,
      "chip": "ym2612"
    },
    {
      "channel": 2,
      "note": 62,
      "start": 30.8518,
      "duration": 0.0154,
      "velocity": 127,
      "chip": "ym2612"
    },
    {
      "channel": 2,
      "note": 61,
      "start": 30.8672,
      "duration": 0.0167,
      "velocity": 127,
      "chip": "ym2612"
    },
    {
      "channel": 2,
      "note": 60,
      "start": 30.8839,
      "duration": 0.0167,
      "velocity": 127,
      "chip": "ym2612"
    },
    {
      "channel": 2,
      "note": 58,
      "start": 30.9005,
      "duration": 0.0333,
      "velocity": 127,
      "chip": "ym2612"
    },
    {
      "channel": 2,
      "note": 57,
      "start": 30.9339,
      "duration": 0.0176,
      "velocity": 127,
      "chip": "ym2612"
    },
    {
      "channel": 0,
      "note": 64,
      "start": 30.951,
      "duration": 0.0998,
      "velocity": 97,
      "chip": "ym2612"
    },
    {
      "channel": 2,
      "note": 74,
      "start": 30.9516,
      "duration": 0.0006,
      "velocity": 127,
      "chip": "ym2612"
    },
    {
      "channel": 2,
      "note": 73,
      "start": 30.9522,
      "duration": 0.015,
      "velocity": 127,
      "chip": "ym2612"
    },
    {
      "channel": 2,
      "note": 72,
      "start": 30.9672,
      "duration": 0.0167,
      "velocity": 127,
      "chip": "ym2612"
    },
    {
      "channel": 2,
      "note": 70,
      "start": 30.9839,
      "duration": 0.0167,
      "velocity": 127,
      "chip": "ym2612"
    },
    {
      "channel": 2,
      "note": 69,
      "start": 31.0005,
      "duration": 0.0333,
      "velocity": 127,
      "chip": "ym2612"
    },
    {
      "channel": 2,
      "note": 68,
      "start": 31.0339,
      "duration": 0.0184,
      "velocity": 127,
      "chip": "ym2612"
    },
    {
      "channel": 0,
      "note": 62,
      "start": 31.051,
      "duration": 0.0998,
      "velocity": 97,
      "chip": "ym2612"
    },
    {
      "channel": 5,
      "note": 74,
      "start": 31.0519,
      "duration": 0.3998,
      "velocity": 127,
      "chip": "ym2612"
    },
    {
      "channel": 2,
      "note": 67,
      "start": 31.0523,
      "duration": 0.0149,
      "velocity": 127,
      "chip": "ym2612"
    },
    {
      "channel": 2,
      "note": 66,
      "start": 31.0672,
      "duration": 0.0167,
      "velocity": 127,
      "chip": "ym2612"
    },
    {
      "channel": 2,
      "note": 65,
      "start": 31.0839,
      "duration": 0.0167,
      "velocity": 127,
      "chip": "ym2612"
    },
    {
      "channel": 2,
      "note": 64,
      "start": 31.1005,
      "duration": 0.0333,
      "velocity": 127,
      "chip": "ym2612"
    },
    {
      "channel": 2,
      "note": 63,
      "start": 31.1339,
      "duration": 0.0179,
      "velocity": 127,
      "chip": "ym2612"
    },
    {
      "channel": 0,
      "note": 62,
      "start": 31.151,
      "duration": 0.0998,
      "velocity": 97,
      "chip": "ym2612"
    },
    {
      "channel": 2,
      "note": 62,
      "start": 31.1518,
      "duration": 0.0154,
      "velocity": 127,
      "chip": "ym2612"
    },
    {
      "channel": 2,
      "note": 61,
      "start": 31.1672,
      "duration": 0.0167,
      "velocity": 127,
      "chip": "ym2612"
    },
    {
      "channel": 2,
      "note": 60,
      "start": 31.1839,
      "duration": 0.0167,
      "velocity": 127,
      "chip": "ym2612"
    },
    {
      "channel": 2,
      "note": 58,
      "start": 31.2005,
      "duration": 0.0333,
      "velocity": 127,
      "chip": "ym2612"
    },
    {
      "channel": 2,
      "note": 57,
      "start": 31.2339,
      "duration": 0.0176,
      "velocity": 127,
      "chip": "ym2612"
    },
    {
      "channel": 0,
      "note": 52,
      "start": 31.251,
      "duration": 0.0998,
      "velocity": 97,
      "chip": "ym2612"
    },
    {
      "channel": 2,
      "note": 74,
      "start": 31.2516,
      "duration": 0.0007,
      "velocity": 127,
      "chip": "ym2612"
    },
    {
      "channel": 2,
      "note": 73,
      "start": 31.2523,
      "duration": 0.0149,
      "velocity": 127,
      "chip": "ym2612"
    },
    {
      "channel": 2,
      "note": 72,
      "start": 31.2672,
      "duration": 0.0167,
      "velocity": 127,
      "chip": "ym2612"
    },
    {
      "channel": 2,
      "note": 70,
      "start": 31.2839,
      "duration": 0.0167,
      "velocity": 127,
      "chip": "ym2612"
    },
    {
      "channel": 2,
      "note": 69,
      "start": 31.3005,
      "duration": 0.0333,
      "velocity": 127,
      "chip": "ym2612"
    },
    {
      "channel": 2,
      "note": 68,
      "start": 31.3339,
      "duration": 0.0176,
      "velocity": 127,
      "chip": "ym2612"
    },
    {
      "channel": 0,
      "note": 52,
      "start": 31.351,
      "duration": 0.0998,
      "velocity": 97,
      "chip": "ym2612"
    },
    {
      "channel": 2,
      "note": 74,
      "start": 31.3516,
      "duration": 0.0006,
      "velocity": 127,
      "chip": "ym2612"
    },
    {
      "channel": 2,
      "note": 73,
      "start": 31.3522,
      "duration": 0.015,
      "velocity": 127,
      "chip": "ym2612"
    },
    {
      "channel": 2,
      "note": 72,
      "start": 31.3672,
      "duration": 0.0167,
      "velocity": 127,
      "chip": "ym2612"
    },
    {
      "channel": 2,
      "note": 70,
      "start": 31.3839,
      "duration": 0.0167,
      "velocity": 127,
      "chip": "ym2612"
    },
    {
      "channel": 2,
      "note": 69,
      "start": 31.4005,
      "duration": 0.0333,
      "velocity": 127,
      "chip": "ym2612"
    },
    {
      "channel": 2,
      "note": 68,
      "start": 31.4339,
      "duration": 0.0184,
      "velocity": 127,
      "chip": "ym2612"
    },
    {
      "channel": 0,
      "note": 64,
      "start": 31.451,
      "duration": 0.0998,
      "velocity": 97,
      "chip": "ym2612"
    },
    {
      "channel": 5,
      "note": 74,
      "start": 31.4519,
      "duration": 0.4002,
      "velocity": 127,
      "chip": "ym2612"
    },
    {
      "channel": 2,
      "note": 67,
      "start": 31.4523,
      "duration": 0.0149,
      "velocity": 127,
      "chip": "ym2612"
    },
    {
      "channel": 2,
      "note": 66,
      "start": 31.4672,
      "duration": 0.0167,
      "velocity": 127,
      "chip": "ym2612"
    },
    {
      "channel": 2,
      "note": 65,
      "start": 31.4839,
      "duration": 0.0167,
      "velocity": 127,
      "chip": "ym2612"
    },
    {
      "channel": 2,
      "note": 64,
      "start": 31.5005,
      "duration": 0.0333,
      "velocity": 127,
      "chip": "ym2612"
    },
    {
      "channel": 2,
      "note": 63,
      "start": 31.5339,
      "duration": 0.0176,
      "velocity": 127,
      "chip": "ym2612"
    },
    {
      "channel": 0,
      "note": 64,
      "start": 31.551,
      "duration": 0.0998,
      "velocity": 97,
      "chip": "ym2612"
    },
    {
      "channel": 2,
      "note": 69,
      "start": 31.5516,
      "duration": 0.0006,
      "velocity": 127,
      "chip": "ym2612"
    },
    {
      "channel": 2,
      "note": 68,
      "start": 31.5522,
      "duration": 0.015,
      "velocity": 127,
      "chip": "ym2612"
    },
    {
      "channel": 2,
      "note": 67,
      "start": 31.5672,
      "duration": 0.0167,
      "velocity": 127,
      "chip": "ym2612"
    },
    {
      "channel": 2,
      "note": 66,
      "start": 31.5839,
      "duration": 0.0167,
      "velocity": 127,
      "chip": "ym2612"
    },
    {
      "channel": 2,
      "note": 65,
      "start": 31.6005,
      "duration": 0.0333,
      "velocity": 127,
      "chip": "ym2612"
    },
    {
      "channel": 2,
      "note": 64,
      "start": 31.6339,
      "duration": 0.018,
      "velocity": 127,
      "chip": "ym2612"
    },
    {
      "channel": 0,
      "note": 62,
      "start": 31.651,
      "duration": 0.0998,
      "velocity": 97,
      "chip": "ym2612"
    },
    {
      "channel": 2,
      "note": 63,
      "start": 31.6518,
      "duration": 0.0154,
      "velocity": 127,
      "chip": "ym2612"
    },
    {
      "channel": 2,
      "note": 62,
      "start": 31.6672,
      "duration": 0.0167,
      "velocity": 127,
      "chip": "ym2612"
    },
    {
      "channel": 2,
      "note": 61,
      "start": 31.6839,
      "duration": 0.0167,
      "velocity": 127,
      "chip": "ym2612"
    },
    {
      "channel": 2,
      "note": 60,
      "start": 31.7005,
      "duration": 0.0333,
      "velocity": 127,
      "chip": "ym2612"
    },
    {
      "channel": 2,
      "note": 58,
      "start": 31.7339,
      "duration": 0.0176,
      "velocity": 127,
      "chip": "ym2612"
    },
    {
      "channel": 0,
      "note": 62,
      "start": 31.751,
      "duration": 0.0998,
      "velocity": 97,
      "chip": "ym2612"
    },
    {
      "channel": 2,
      "note": 69,
      "start": 31.7516,
      "duration": 0.0006,
      "velocity": 127,
      "chip": "ym2612"
    },
    {
      "channel": 2,
      "note": 68,
      "start": 31.7522,
      "duration": 0.015,
      "velocity": 127,
      "chip": "ym2612"
    },
    {
      "channel": 2,
      "note": 67,
      "start": 31.7672,
      "duration": 0.0167,
      "velocity": 127,
      "chip": "ym2612"
    },
    {
      "channel": 2,
      "note": 66,
      "start": 31.7839,
      "duration": 0.0167,
      "velocity": 127,
      "chip": "ym2612"
    },
    {
      "channel": 2,
      "note": 65,
      "start": 31.8005,
      "duration": 0.0333,
      "velocity": 127,
      "chip": "ym2612"
    },
    {
      "channel": 2,
      "note": 64,
      "start": 31.8339,
      "duration": 0.0176,
      "velocity": 127,
      "chip": "ym2612"
    },
    {
      "channel": 0,
      "note": 50,
      "start": 31.851,
      "duration": 0.0999,
      "velocity": 97,
      "chip": "ym2612"
    },
    {
      "channel": 2,
      "note": 69,
      "start": 31.8516,
      "duration": 0.0011,
      "velocity": 127,
      "chip": "ym2612"
    },
    {
      "channel": 5,
      "note": 74,
      "start": 31.8523,
      "duration": 0.2844,
      "velocity": 127,
      "chip": "ym2612"
    },
    {
      "channel": 2,
      "note": 68,
      "start": 31.8527,
      "duration": 0.0145,
      "velocity": 127,
      "chip": "ym2612"
    },
    {
      "channel": 2,
      "note": 67,
      "start": 31.8672,
      "duration": 0.0167,
      "velocity": 127,
      "chip": "ym2612"
    },
    {
      "channel": 2,
      "note": 66,
      "start": 31.8839,
      "duration": 0.0167,
      "velocity": 127,
      "chip": "ym2612"
    },
    {
      "channel": 2,
      "note": 65,
      "start": 31.9005,
      "duration": 0.0333,
      "velocity": 127,
      "chip": "ym2612"
    },
    {
      "channel": 2,
      "note": 64,
      "start": 31.9339,
      "duration": 0.0179,
      "velocity": 127,
      "chip": "ym2612"
    },
    {
      "channel": 0,
      "note": 50,
      "start": 31.951,
      "duration": 0.1015,
      "velocity": 102,
      "chip": "ym2612"
    },
    {
      "channel": 2,
      "note": 63,
      "start": 31.9518,
      "duration": 0.0154,
      "velocity": 127,
      "chip": "ym2612"
    },
    {
      "channel": 2,
      "note": 62,
      "start": 31.9672,
      "duration": 0.0167,
      "velocity": 127,
      "chip": "ym2612"
    },
    {
      "channel": 2,
      "note": 61,
      "start": 31.9839,
      "duration": 0.0167,
      "velocity": 127,
      "chip": "ym2612"
    },
    {
      "channel": 2,
      "note": 60,
      "start": 32.0005,
      "duration": 0.0333,
      "velocity": 127,
      "chip": "ym2612"
    },
    {
      "channel": 2,
      "note": 58,
      "start": 32.0339,
      "duration": 0.0215,
      "velocity": 109,
      "chip": "ym2612"
    },
    {
      "channel": 0,
      "note": 52,
      "start": 32.0527,
      "duration": 0.3148,
      "velocity": 102,
      "chip": "ym2612"
    },
    {
      "channel": 1,
      "note": 74,
      "start": 32.0533,
      "duration": 5.1149,
      "velocity": 1,
      "chip": "ym2612"
    },
    {
      "channel": 2,
      "note": 64,
      "start": 32.0555,
      "duration": 0.0788,
      "velocity": 109,
      "chip": "ym2612"
    },
    {
      "channel": 4,
      "note": 74,
      "start": 32.0562,
      "duration": 5.1139,
      "velocity": 1,
      "chip": "ym2612"
    },
    {
      "channel": 2,
      "note": 69,
      "start": 32.1345,
      "duration": 0.0663,
      "velocity": 109,
      "chip": "ym2612"
    },
    {
      "channel": 5,
      "note": 90,
      "start": 32.1369,
      "duration": 0.0669,
      "velocity": 127,
      "chip": "ym2612"
    },
    {
      "channel": 2,
      "note": 71,
      "start": 32.2011,
      "duration": 0.0831,
      "velocity": 109,
      "chip": "ym2612"
    },
    {
      "channel": 3,
      "note": 64,
      "start": 32.2033,
      "duration": 0.0815,
      "velocity": 109,
      "chip": "ym2612"
    },
    {
      "channel": 5,
      "note": 69,
      "start": 32.2039,
      "duration": 0.0815,
      "velocity": 127,
      "chip": "ym2612"
    },
    {
      "channel": 2,
      "note": 74,
      "start": 32.2844,
      "duration": 0.0837,
      "velocity": 109,
      "chip": "ym2612"
    },
    {
      "channel": 3,
      "note": 69,
      "start": 32.285,
      "duration": 0.0837,
      "velocity": 109,
      "chip": "ym2612"
    },
    {
      "channel": 5,
      "note": 90,
      "start": 32.2856,
      "duration": 0.1665,
      "velocity": 127,
      "chip": "ym2612"
    },
    {
      "channel": 0,
      "note": 64,
      "start": 32.3676,
      "duration": 0.3166,
      "velocity": 102,
      "chip": "ym2612"
    },
    {
      "channel": 2,
      "note": 64,
      "start": 32.3683,
      "duration": 0.0827,
      "velocity": 109,
      "chip": "ym2612"
    },
    {
      "channel": 3,
      "note": 71,
      "start": 32.3688,
      "duration": 0.0827,
      "velocity": 109,
      "chip": "ym2612"
    },
    {
      "channel": 2,
      "note": 69,
      "start": 32.4512,
      "duration": 0.0831,
      "velocity": 109,
      "chip": "ym2612"
    },
    {
      "channel": 3,
      "note": 74,
      "start": 32.4517,
      "duration": 0.0831,
      "velocity": 109,
      "chip": "ym2612"
    },
    {
      "channel": 5,
      "note": 90,
      "start": 32.4524,
      "duration": 0.0831,
      "velocity": 127,
      "chip": "ym2612"
    },
    {
      "channel": 2,
      "note": 71,
      "start": 32.5344,
      "duration": 0.0665,
      "velocity": 109,
      "chip": "ym2612"
    },
    {
      "channel": 3,
      "note": 64,
      "start": 32.535,
      "duration": 0.0665,
      "velocity": 109,
      "chip": "ym2612"
    },
    {
      "channel": 5,
      "note": 69,
      "start": 32.5356,
      "duration": 0.0665,
      "velocity": 127,
      "chip": "ym2612"
    },
    {
      "channel": 2,
      "note": 74,
      "start": 32.6011,
      "duration": 0.0837,
      "velocity": 109,
      "chip": "ym2612"
    },
    {
      "channel": 3,
      "note": 69,
      "start": 32.6016,
      "duration": 0.0838,
      "velocity": 109,
      "chip": "ym2612"
    },
    {
      "channel": 5,
      "note": 90,
      "start": 32.6022,
      "duration": 0.1666,
      "velocity": 127,
      "chip": "ym2612"
    },
    {
      "channel": 0,
      "note": 62,
      "start": 32.6844,
      "duration": 0.1665,
      "velocity": 102,
      "chip": "ym2612"
    },
    {
      "channel": 2,
      "note": 64,
      "start": 32.685,
      "duration": 0.0826,
      "velocity": 109,
      "chip": "ym2612"
    },
    {
      "channel": 3,
      "note": 71,
      "start": 32.6856,
      "duration": 0.0826,
      "velocity": 109,
      "chip": "ym2612"
    },
    {
      "channel": 2,
      "note": 69,
      "start": 32.7678,
      "duration": 0.0837,
      "velocity": 109,
      "chip": "ym2612"
    },
    {
      "channel": 3,
      "note": 74,
      "start": 32.7684,
      "duration": 0.0837,
      "velocity": 109,
      "chip": "ym2612"
    },
    {
      "channel": 5,
      "note": 90,
      "start": 32.769,
      "duration": 0.0837,
      "velocity": 127,
      "chip": "ym2612"
    },
    {
      "channel": 0,
      "note": 64,
      "start": 32.851,
      "duration": 0.1498,
      "velocity": 102,
      "chip": "ym2612"
    },
    {
      "channel": 2,
      "note": 71,
      "start": 32.8517,
      "duration": 0.0826,
      "velocity": 109,
      "chip": "ym2612"
    },
    {
      "channel": 3,
      "note": 64,
      "start": 32.8522,
      "duration": 0.0827,
      "velocity": 109,
      "chip": "ym2612"
    },
    {
      "channel": 5,
      "note": 69,
      "start": 32.8528,
      "duration": 0.0827,
      "velocity": 127,
      "chip": "ym2612"
    },
    {
      "channel": 2,
      "note": 74,
      "start": 32.9345,
      "duration": 0.067,
      "velocity": 109,
      "chip": "ym2612"
    },
    {
      "channel": 3,
      "note": 69,
      "start": 32.9351,
      "duration": 0.067,
      "velocity": 109,
      "chip": "ym2612"
    },
    {
      "channel": 5,
      "note": 90,
      "start": 32.9357,
      "duration": 0.1498,
      "velocity": 127,
      "chip": "ym2612"
    },
    {
      "channel": 0,
      "note": 50,
      "start": 33.001,
      "duration": 0.1665,
      "velocity": 102,
      "chip": "ym2612"
    },
    {
      "channel": 2,
      "note": 64,
      "start": 33.0017,
      "duration": 0.0826,
      "velocity": 109,
      "chip": "ym2612"
    },
    {
      "channel": 3,
      "note": 71,
      "start": 33.0022,
      "duration": 0.0826,
      "velocity": 109,
      "chip": "ym2612"
    },
    {
      "channel": 2,
      "note": 69,
      "start": 33.0845,
      "duration": 0.0837,
      "velocity": 109,
      "chip": "ym2612"
    },
    {
      "channel": 3,
      "note": 74,
      "start": 33.0851,
      "duration": 0.0837,
      "velocity": 109,
      "chip": "ym2612"
    },
    {
      "channel": 5,
      "note": 90,
      "start": 33.0857,
      "duration": 0.0837,
      "velocity": 127,
      "chip": "ym2612"
    },
    {
      "channel": 0,
      "note": 52,
      "start": 33.1677,
      "duration": 0.3165,
      "velocity": 102,
      "chip": "ym2612"
    },
    {
      "channel": 2,
      "note": 71,
      "start": 33.1683,
      "duration": 0.0826,
      "velocity": 109,
      "chip": "ym2612"
    },
    {
      "channel": 3,
      "note": 64,
      "start": 33.1688,
      "duration": 0.0827,
      "velocity": 109,
      "chip": "ym2612"
    },
    {
      "channel": 5,
      "note": 69,
      "start": 33.1695,
      "duration": 0.0827,
      "velocity": 127,
      "chip": "ym2612"
    },
    {
      "channel": 2,
      "note": 74,
      "start": 33.2512,
      "duration": 0.0831,
      "velocity": 109,
      "chip": "ym2612"
    },
    {
      "channel": 3,
      "note": 69,
      "start": 33.2517,
      "duration": 0.0831,
      "velocity": 109,
      "chip": "ym2612"
    },
    {
      "channel": 5,
      "note": 90,
      "start": 33.2524,
      "duration": 0.1498,
      "velocity": 127,
      "chip": "ym2612"
    },
    {
      "channel": 2,
      "note": 64,
      "start": 33.3344,
      "duration": 0.0665,
      "velocity": 109,
      "chip": "ym2612"
    },
    {
      "channel": 3,
      "note": 71,
      "start": 33.335,
      "duration": 0.0665,
      "velocity": 109,
      "chip": "ym2612"
    },
    {
      "channel": 2,
      "note": 69,
      "start": 33.4011,
      "duration": 0.0837,
      "velocity": 109,
      "chip": "ym2612"
    },
    {
      "channel": 3,
      "note": 74,
      "start": 33.4016,
      "duration": 0.0838,
      "velocity": 109,
      "chip": "ym2612"
    },
    {
      "channel": 5,
      "note": 90,
      "start": 33.4022,
      "duration": 0.0838,
      "velocity": 127,
      "chip": "ym2612"
    },
    {
      "channel": 0,
      "note": 64,
      "start": 33.4844,
      "duration": 0.3165,
      "velocity": 102,
      "chip": "ym2612"
    },
    {
      "channel": 2,
      "note": 71,
      "start": 33.485,
      "duration": 0.0826,
      "velocity": 109,
      "chip": "ym2612"
    },
    {
      "channel": 3,
      "note": 64,
      "start": 33.4856,
      "duration": 0.0826,
      "velocity": 109,
      "chip": "ym2612"
    },
    {
      "channel": 5,
      "note": 69,
      "start": 33.4862,
      "duration": 0.0826,
      "velocity": 127,
      "chip": "ym2612"
    },
    {
      "channel": 2,
      "note": 72,
      "start": 33.5678,
      "duration": 0.0831,
      "velocity": 109,
      "chip": "ym2612"
    },
    {
      "channel": 3,
      "note": 69,
      "start": 33.5684,
      "duration": 0.0831,
      "velocity": 109,
      "chip": "ym2612"
    },
    {
      "channel": 5,
      "note": 90,
      "start": 33.569,
      "duration": 0.1664,
      "velocity": 127,
      "chip": "ym2612"
    },
    {
      "channel": 2,
      "note": 64,
      "start": 33.6511,
      "duration": 0.0831,
      "velocity": 109,
      "chip": "ym2612"
    },
    {
      "channel": 3,
      "note": 71,
      "start": 33.6517,
      "duration": 0.0832,
      "velocity": 109,
      "chip": "ym2612"
    },
    {
      "channel": 2,
      "note": 69,
      "start": 33.7344,
      "duration": 0.0671,
      "velocity": 109,
      "chip": "ym2612"
    },
    {
      "channel": 3,
      "note": 72,
      "start": 33.735,
      "duration": 0.0671,
      "velocity": 109,
      "chip": "ym2612"
    },
    {
      "channel": 5,
      "note": 90,
      "start": 33.7356,
      "duration": 0.0671,
      "velocity": 127,
      "chip": "ym2612"
    },
    {
      "channel": 0,
      "note": 62,
      "start": 33.801,
      "duration": 0.3332,
      "velocity": 102,
      "chip": "ym2612"
    },
    {
      "channel": 2,
      "note": 71,
      "start": 33.8017,
      "duration": 0.0826,
      "velocity": 109,
      "chip": "ym2612"
    },
    {
      "channel": 3,
      "note": 64,
      "start": 33.8022,
      "duration": 0.0826,
      "velocity": 109,
      "chip": "ym2612"
    },
    {
      "channel": 5,
      "note": 69,
      "start": 33.8029,
      "duration": 0.0826,
      "velocity": 127,
      "chip": "ym2612"
    },
    {
      "channel": 2,
      "note": 72,
      "start": 33.8844,
      "duration": 0.0831,
      "velocity": 109,
      "chip": "ym2612"
    },
    {
      "channel": 3,
      "note": 69,
      "start": 33.885,
      "duration": 0.0832,
      "velocity": 109,
      "chip": "ym2612"
    },
    {
      "channel": 5,
      "note": 90,
      "start": 33.8856,
      "duration": 0.1665,
      "velocity": 127,
      "chip": "ym2612"
    },
    {
      "channel": 2,
      "note": 64,
      "start": 33.9678,
      "duration": 0.0831,
      "velocity": 109,
      "chip": "ym2612"
    },
    {
      "channel": 3,
      "note": 71,
      "start": 33.9683,
      "duration": 0.0832,
      "velocity": 109,
      "chip": "ym2612"
    },
    {
      "channel": 2,
      "note": 69,
      "start": 34.0511,
      "duration": 0.0837,
      "velocity": 109,
      "chip": "ym2612"
    },
    {
      "channel": 3,
      "note": 72,
      "start": 34.0516,
      "duration": 0.0837,
      "velocity": 109,
      "chip": "ym2612"
    },
    {
      "channel": 5,
      "note": 90,
      "start": 34.0522,
      "duration": 0.0837,
      "velocity": 127,
      "chip": "ym2612"
    },
    {
      "channel": 0,
      "note": 64,
      "start": 34.1343,
      "duration": 0.3166,
      "velocity": 102,
      "chip": "ym2612"
    },
    {
      "channel": 2,
      "note": 71,
      "start": 34.1349,
      "duration": 0.066,
      "velocity": 109,
      "chip": "ym2612"
    },
    {
      "channel": 3,
      "note": 64,
      "start": 34.1355,
      "duration": 0.066,
      "velocity": 109,
      "chip": "ym2612"
    },
    {
      "channel": 5,
      "note": 69,
      "start": 34.1361,
      "duration": 0.066,
      "velocity": 127,
      "chip": "ym2612"
    },
    {
      "channel": 2,
      "note": 72,
      "start": 34.2011,
      "duration": 0.0831,
      "velocity": 109,
      "chip": "ym2612"
    },
    {
      "channel": 3,
      "note": 69,
      "start": 34.2017,
      "duration": 0.0832,
      "velocity": 109,
      "chip": "ym2612"
    },
    {
      "channel": 5,
      "note": 90,
      "start": 34.2023,
      "duration": 0.1665,
      "velocity": 127,
      "chip": "ym2612"
    },
    {
      "channel": 2,
      "note": 64,
      "start": 34.2844,
      "duration": 0.0831,
      "velocity": 109,
      "chip": "ym2612"
    },
    {
      "channel": 3,
      "note": 71,
      "start": 34.285,
      "duration": 0.0832,
      "velocity": 109,
      "chip": "ym2612"
    },
    {
      "channel": 2,
      "note": 69,
      "start": 34.3678,
      "duration": 0.0837,
      "velocity": 109,
      "chip": "ym2612"
    },
    {
      "channel": 3,
      "note": 72,
      "start": 34.3683,
      "duration": 0.0837,
      "velocity": 109,
      "chip": "ym2612"
    },
    {
      "channel": 5,
      "note": 90,
      "start": 34.369,
      "duration": 0.0837,
      "velocity": 127,
      "chip": "ym2612"
    },
    {
      "channel": 0,
      "note": 50,
      "start": 34.451,
      "duration": 0.1499,
      "velocity": 102,
      "chip": "ym2612"
    },
    {
      "channel": 2,
      "note": 71,
      "start": 34.4516,
      "duration": 0.0827,
      "velocity": 109,
      "chip": "ym2612"
    },
    {
      "channel": 3,
      "note": 64,
      "start": 34.4522,
      "duration": 0.0827,
      "velocity": 109,
      "chip": "ym2612"
    },
    {
      "channel": 5,
      "note": 69,
      "start": 34.4528,
      "duration": 0.0826,
      "velocity": 127,
      "chip": "ym2612"
    },
    {
      "channel": 2,
      "note": 72,
      "start": 34.5344,
      "duration": 0.067,
      "velocity": 109,
      "chip": "ym2612"
    },
    {
      "channel": 3,
      "note": 69,
      "start": 34.535,
      "duration": 0.067,
      "velocity": 109,
      "chip": "ym2612"
    },
    {
      "channel": 5,
      "note": 90,
      "start": 34.5356,
      "duration": 0.1498,
      "velocity": 127,
      "chip": "ym2612"
    },
    {
      "channel": 0,
      "note": 52,
      "start": 34.601,
      "duration": 0.3332,
      "velocity": 102,
      "chip": "ym2612"
    },
    {
      "channel": 2,
      "note": 64,
      "start": 34.6016,
      "duration": 0.0827,
      "velocity": 109,
      "chip": "ym2612"
    },
    {
      "channel": 3,
      "note": 71,
      "start": 34.6022,
      "duration": 0.0827,
      "velocity": 109,
      "chip": "ym2612"
    },
    {
      "channel": 2,
      "note": 67,
      "start": 34.6844,
      "duration": 0.0831,
      "velocity": 109,
      "chip": "ym2612"
    },
    {
      "channel": 3,
      "note": 72,
      "start": 34.685,
      "duration": 0.0832,
      "velocity": 109,
      "chip": "ym2612"
    },
    {
      "channel": 5,
      "note": 90,
      "start": 34.6856,
      "duration": 0.0832,
      "velocity": 127,
      "chip": "ym2612"
    },
    {
      "channel": 2,
      "note": 69,
      "start": 34.7678,
      "duration": 0.0831,
      "velocity": 109,
      "chip": "ym2612"
    },
    {
      "channel": 3,
      "note": 64,
      "start": 34.7683,
      "duration": 0.0832,
      "velocity": 109,
      "chip": "ym2612"
    },
    {
      "channel": 5,
      "note": 69,
      "start": 34.769,
      "duration": 0.0832,
      "velocity": 127,
      "chip": "ym2612"
    },
    {
      "channel": 2,
      "note": 71,
      "start": 34.8511,
      "duration": 0.0837,
      "velocity": 109,
      "chip": "ym2612"
    },
    {
      "channel": 3,
      "note": 67,
      "start": 34.8517,
      "duration": 0.0837,
      "velocity": 109,
      "chip": "ym2612"
    },
    {
      "channel": 5,
      "note": 90,
      "start": 34.8523,
      "duration": 0.1498,
      "velocity": 127,
      "chip": "ym2612"
    },
    {
      "channel": 0,
      "note": 64,
      "start": 34.9344,
      "duration": 0.3165,
      "velocity": 102,
      "chip": "ym2612"
    },
    {
      "channel": 2,
      "note": 64,
      "start": 34.9349,
      "duration": 0.066,
      "velocity": 109,
      "chip": "ym2612"
    },
    {
      "channel": 3,
      "note": 69,
      "start": 34.9355,
      "duration": 0.066,
      "velocity": 109,
      "chip": "ym2612"
    },
    {
      "channel": 2,
      "note": 67,
      "start": 35.0011,
      "duration": 0.0831,
      "velocity": 109,
      "chip": "ym2612"
    },
    {
      "channel": 3,
      "note": 71,
      "start": 35.0017,
      "duration": 0.0832,
      "velocity": 109,
      "chip": "ym2612"
    },
    {
      "channel": 5,
      "note": 90,
      "start": 35.0023,
      "duration": 0.0832,
      "velocity": 127,
      "chip": "ym2612"
    },
    {
      "channel": 2,
      "note": 69,
      "start": 35.0844,
      "duration": 0.0831,
      "velocity": 109,
      "chip": "ym2612"
    },
    {
      "channel": 3,
      "note": 64,
      "start": 35.085,
      "duration": 0.0832,
      "velocity": 109,
      "chip": "ym2612"
    },
    {
      "channel": 5,
      "note": 69,
      "start": 35.0856,
      "duration": 0.0832,
      "velocity": 127,
      "chip": "ym2612"
    },
    {
      "channel": 2,
      "note": 71,
      "start": 35.1678,
      "duration": 0.0837,
      "velocity": 109,
      "chip": "ym2612"
    },
    {
      "channel": 3,
      "note": 67,
      "start": 35.1683,
      "duration": 0.0837,
      "velocity": 109,
      "chip": "ym2612"
    },
    {
      "channel": 5,
      "note": 90,
      "start": 35.169,
      "duration": 0.1665,
      "velocity": 127,
      "chip": "ym2612"
    },
    {
      "channel": 0,
      "note": 62,
      "start": 35.251,
      "duration": 0.1499,
      "velocity": 102,
      "chip": "ym2612"
    },
    {
      "channel": 2,
      "note": 64,
      "start": 35.2516,
      "duration": 0.0827,
      "velocity": 109,
      "chip": "ym2612"
    },
    {
      "channel": 3,
      "note": 69,
      "start": 35.2522,
      "duration": 0.0827,
      "velocity": 109,
      "chip": "ym2612"
    },
    {
      "channel": 2,
      "note": 67,
      "start": 35.3344,
      "duration": 0.0671,
      "velocity": 109,
      "chip": "ym2612"
    },
    {
      "channel": 3,
      "note": 71,
      "start": 35.335,
      "duration": 0.067,
      "velocity": 109,
      "chip": "ym2612"
    },
    {
      "channel": 5,
      "note": 90,
      "start": 35.3356,
      "duration": 0.067,
      "velocity": 127,
      "chip": "ym2612"
    },
    {
      "channel": 0,
      "note": 64,
      "start": 35.401,
      "duration": 0.1665,
      "velocity": 102,
      "chip": "ym2612"
    },
    {
      "channel": 2,
      "note": 69,
      "start": 35.4016,
      "duration": 0.0827,
      "velocity": 109,
      "chip": "ym2612"
    },
    {
      "channel": 3,
      "note": 64,
      "start": 35.4022,
      "duration": 0.0827,
      "velocity": 109,
      "chip": "ym2612"
    },
    {
      "channel": 5,
      "note": 69,
      "start": 35.4028,
      "duration": 0.0826,
      "velocity": 127,
      "chip": "ym2612"
    },
    {
      "channel": 2,
      "note": 71,
      "start": 35.4844,
      "duration": 0.0837,
      "velocity": 109,
      "chip": "ym2612"
    },
    {
      "channel": 3,
      "note": 67,
      "start": 35.485,
      "duration": 0.0837,
      "velocity": 109,
      "chip": "ym2612"
    },
    {
      "channel": 5,
      "note": 90,
      "start": 35.4856,
      "duration": 0.1665,
      "velocity": 127,
      "chip": "ym2612"
    },
    {
      "channel": 0,
      "note": 50,
      "start": 35.5677,
      "duration": 0.1665,
      "velocity": 102,
      "chip": "ym2612"
    },
    {
      "channel": 2,
      "note": 64,
      "start": 35.5683,
      "duration": 0.0827,
      "velocity": 109,
      "chip": "ym2612"
    },
    {
      "channel": 3,
      "note": 69,
      "start": 35.5688,
      "duration": 0.0827,
      "velocity": 109,
      "chip": "ym2612"
    },
    {
      "channel": 2,
      "note": 67,
      "start": 35.6511,
      "duration": 0.0837,
      "velocity": 109,
      "chip": "ym2612"
    },
    {
      "channel": 3,
      "note": 71,
      "start": 35.6517,
      "duration": 0.0837,
      "velocity": 109,
      "chip": "ym2612"
    },
    {
      "channel": 5,
      "note": 90,
      "start": 35.6523,
      "duration": 0.0837,
      "velocity": 127,
      "chip": "ym2612"
    },
    {
      "channel": 0,
      "note": 52,
      "start": 35.7343,
      "duration": 0.3166,
      "velocity": 102,
      "chip": "ym2612"
    },
    {
      "channel": 2,
      "note": 69,
      "start": 35.7349,
      "duration": 0.066,
      "velocity": 109,
      "chip": "ym2612"
    },
    {
      "channel": 3,
      "note": 64,
      "start": 35.7355,
      "duration": 0.066,
      "velocity": 109,
      "chip": "ym2612"
    },
    {
      "channel": 5,
      "note": 69,
      "start": 35.7361,
      "duration": 0.066,
      "velocity": 127,
      "chip": "ym2612"
    },
    {
      "channel": 2,
      "note": 71,
      "start": 35.8011,
      "duration": 0.0831,
      "velocity": 109,
      "chip": "ym2612"
    },
    {
      "channel": 3,
      "note": 67,
      "start": 35.8017,
      "duration": 0.0832,
      "velocity": 109,
      "chip": "ym2612"
    },
    {
      "channel": 5,
      "note": 90,
      "start": 35.8023,
      "duration": 0.1665,
      "velocity": 127,
      "chip": "ym2612"
    },
    {
      "channel": 2,
      "note": 64,
      "start": 35.8844,
      "duration": 0.0831,
      "velocity": 109,
      "chip": "ym2612"
    },
    {
      "channel": 3,
      "note": 69,
      "start": 35.885,
      "duration": 0.0832,
      "velocity": 109,
      "chip": "ym2612"
    },
    {
      "channel": 2,
      "note": 66,
      "start": 35.9678,
      "duration": 0.0837,
      "velocity": 109,
      "chip": "ym2612"
    },
    {
      "channel": 3,
      "note": 71,
      "start": 35.9683,
      "duration": 0.0837,
      "velocity": 109,
      "chip": "ym2612"
    },
    {
      "channel": 5,
      "note": 90,
      "start": 35.969,
      "duration": 0.0837,
      "velocity": 127,
      "chip": "ym2612"
    },
    {
      "channel": 0,
      "note": 64,
      "start": 36.051,
      "duration": 0.3165,
      "velocity": 102,
      "chip": "ym2612"
    },
    {
      "channel": 2,
      "note": 67,
      "start": 36.0517,
      "duration": 0.0826,
      "velocity": 109,
      "chip": "ym2612"
    },
    {
      "channel": 3,
      "note": 64,
      "start": 36.0522,
      "duration": 0.0827,
      "velocity": 109,
      "chip": "ym2612"
    },
    {
      "channel": 5,
      "note": 69,
      "start": 36.0528,
      "duration": 0.0827,
      "velocity": 127,
      "chip": "ym2612"
    },
    {
      "channel": 2,
      "note": 69,
      "start": 36.1345,
      "duration": 0.0664,
      "velocity": 109,
      "chip": "ym2612"
    },
    {
      "channel": 3,
      "note": 66,
      "start": 36.1351,
      "duration": 0.0664,
      "velocity": 109,
      "chip": "ym2612"
    },
    {
      "channel": 5,
      "note": 90,
      "start": 36.1357,
      "duration": 0.1498,
      "velocity": 127,
      "chip": "ym2612"
    },
    {
      "channel": 2,
      "note": 64,
      "start": 36.2011,
      "duration": 0.0831,
      "velocity": 109,
      "chip": "ym2612"
    },
    {
      "channel": 3,
      "note": 67,
      "start": 36.2017,
      "duration": 0.0832,
      "velocity": 109,
      "chip": "ym2612"
    },
    {
      "channel": 2,
      "note": 66,
      "start": 36.2844,
      "duration": 0.0837,
      "velocity": 109,
      "chip": "ym2612"
    },
    {
      "channel": 3,
      "note": 69,
      "start": 36.2849,
      "duration": 0.0838,
      "velocity": 109,
      "chip": "ym2612"
    },
    {
      "channel": 5,
      "note": 90,
      "start": 36.2856,
      "duration": 0.0838,
      "velocity": 127,
      "chip": "ym2612"
    },
    {
      "channel": 0,
      "note": 62,
      "start": 36.3677,
      "duration": 0.3165,
      "velocity": 102,
      "chip": "ym2612"
    },
    {
      "channel": 2,
      "note": 67,
      "start": 36.3683,
      "duration": 0.0826,
      "velocity": 109,
      "chip": "ym2612"
    },
    {
      "channel": 3,
      "note": 64,
      "start": 36.3688,
      "duration": 0.0827,
      "velocity": 109,
      "chip": "ym2612"
    },
    {
      "channel": 5,
      "note": 69,
      "start": 36.3695,
      "duration": 0.0827,
      "velocity": 127,
      "chip": "ym2612"
    },
    {
      "channel": 2,
      "note": 69,
      "start": 36.4512,
      "duration": 0.0831,
      "velocity": 109,
      "chip": "ym2612"
    },
    {
      "channel": 3,
      "note": 66,
      "start": 36.4517,
      "duration": 0.0831,
      "velocity": 109,
      "chip": "ym2612"
    },
    {
      "channel": 5,
      "note": 90,
      "start": 36.4524,
      "duration": 0.1498,
      "velocity": 127,
      "chip": "ym2612"
    },
    {
      "channel": 2,
      "note": 64,
      "start": 36.5344,
      "duration": 0.0665,
      "velocity": 109,
      "chip": "ym2612"
    },
    {
      "channel": 3,
      "note": 67,
      "start": 36.535,
      "duration": 0.0665,
      "velocity": 109,
      "chip": "ym2612"
    },
    {
      "channel": 2,
      "note": 66,
      "start": 36.6011,
      "duration": 0.0837,
      "velocity": 109,
      "chip": "ym2612"
    },
    {
      "channel": 3,
      "note": 69,
      "start": 36.6016,
      "duration": 0.0838,
      "velocity": 109,
      "chip": "ym2612"
    },
    {
      "channel": 5,
      "note": 90,
      "start": 36.6022,
      "duration": 0.0838,
      "velocity": 127,
      "chip": "ym2612"
    },
    {
      "channel": 0,
      "note": 64,
      "start": 36.6844,
      "duration": 0.3165,
      "velocity": 102,
      "chip": "ym2612"
    },
    {
      "channel": 2,
      "note": 67,
      "start": 36.685,
      "duration": 0.0826,
      "velocity": 109,
      "chip": "ym2612"
    },
    {
      "channel": 3,
      "note": 64,
      "start": 36.6856,
      "duration": 0.0826,
      "velocity": 109,
      "chip": "ym2612"
    },
    {
      "channel": 5,
      "note": 69,
      "start": 36.6862,
      "duration": 0.0826,
      "velocity": 127,
      "chip": "ym2612"
    },
    {
      "channel": 2,
      "note": 69,
      "start": 36.7678,
      "duration": 0.0831,
      "velocity": 109,
      "chip": "ym2612"
    },
    {
      "channel": 3,
      "note": 66,
      "start": 36.7684,
      "duration": 0.0831,
      "velocity": 109,
      "chip": "ym2612"
    },
    {
      "channel": 5,
      "note": 90,
      "start": 36.769,
      "duration": 0.4833,
      "velocity": 127,
      "chip": "ym2612"
    },
    {
      "channel": 2,
      "note": 64,
      "start": 36.8511,
      "duration": 0.0831,
      "velocity": 109,
      "chip": "ym2612"
    },
    {
      "channel": 3,
      "note": 67,
      "start": 36.8517,
      "duration": 0.0832,
      "velocity": 109,
      "chip": "ym2612"
    },
    {
      "channel": 2,
      "note": 66,
      "start": 36.9344,
      "duration": 0.0671,
      "velocity": 109,
      "chip": "ym2612"
    },
    {
      "channel": 3,
      "note": 69,
      "start": 36.935,
      "duration": 0.0671,
      "velocity": 109,
      "chip": "ym2612"
    },
    {
      "channel": 0,
      "note": 50,
      "start": 37.001,
      "duration": 0.1666,
      "velocity": 102,
      "chip": "ym2612"
    },
    {
      "channel": 2,
      "note": 67,
      "start": 37.0017,
      "duration": 0.0826,
      "velocity": 109,
      "chip": "ym2612"
    },
    {
      "channel": 3,
      "note": 64,
      "start": 37.0022,
      "duration": 0.0826,
      "velocity": 109,
      "chip": "ym2612"
    },
    {
      "channel": 2,
      "note": 69,
      "start": 37.0845,
      "duration": 0.0844,
      "velocity": 109,
      "chip": "ym2612"
    },
    {
      "channel": 3,
      "note": 66,
      "start": 37.0851,
      "duration": 0.0844,
      "velocity": 109,
      "chip": "ym2612"
    },
    {
      "channel": 0,
      "note": 52,
      "start": 37.1678,
      "duration": 0.3163,
      "velocity": 102,
      "chip": "ym2612"
    },
    {
      "channel": 1,
      "note": 74,
      "start": 37.1685,
      "duration": 5.118,
      "velocity": 108,
      "chip": "ym2612"
    },
    {
      "channel": 2,
      "note": 64,
      "start": 37.169,
      "duration": 0.082,
      "velocity": 109,
      "chip": "ym2612"
    },
    {
      "channel": 3,
      "note": 67,
      "start": 37.1697,
      "duration": 0.0819,
      "velocity": 109,
      "chip": "ym2612"
    },
    {
      "channel": 4,
      "note": 74,
      "start": 37.1703,
      "duration": 5.1197,
      "velocity": 109,
      "chip": "ym2612"
    },
    {
      "channel": 2,
      "note": 69,
      "start": 37.2512,
      "duration": 0.083,
      "velocity": 109,
      "chip": "ym2612"
    },
    {
      "channel": 3,
      "note": 69,
      "start": 37.2518,
      "duration": 0.083,
      "velocity": 109,
      "chip": "ym2612"
    },
    {
      "channel": 5,
      "note": 90,
      "start": 37.2525,
      "duration": 0.0829,
      "velocity": 127,
      "chip": "ym2612"
    },
    {
      "channel": 2,
      "note": 71,
      "start": 37.3344,
      "duration": 0.0665,
      "velocity": 109,
      "chip": "ym2612"
    },
    {
      "channel": 3,
      "note": 64,
      "start": 37.335,
      "duration": 0.0665,
      "velocity": 109,
      "chip": "ym2612"
    },
    {
      "channel": 5,
      "note": 69,
      "start": 37.3356,
      "duration": 0.0665,
      "velocity": 127,
      "chip": "ym2612"
    },
    {
      "channel": 2,
      "note": 74,
      "start": 37.4011,
      "duration": 0.0837,
      "velocity": 109,
      "chip": "ym2612"
    },
    {
      "channel": 3,
      "note": 69,
      "start": 37.4017,
      "duration": 0.0837,
      "velocity": 109,
      "chip": "ym2612"
    },
    {
      "channel": 5,
      "note": 90,
      "start": 37.4023,
      "duration": 0.1665,
      "velocity": 127,
      "chip": "ym2612"
    },
    {
      "channel": 0,
      "note": 64,
      "start": 37.4844,
      "duration": 0.3165,
      "velocity": 102,
      "chip": "ym2612"
    },
    {
      "channel": 2,
      "note": 64,
      "start": 37.485,
      "duration": 0.0826,
      "velocity": 109,
      "chip": "ym2612"
    },
    {
      "channel": 3,
      "note": 71,
      "start": 37.4856,
      "duration": 0.0826,
      "velocity": 109,
      "chip": "ym2612"
    },
    {
      "channel": 2,
      "note": 69,
      "start": 37.5678,
      "duration": 0.0831,
      "velocity": 109,
      "chip": "ym2612"
    },
    {
      "channel": 3,
      "note": 74,
      "start": 37.5684,
      "duration": 0.0831,
      "velocity": 109,
      "chip": "ym2612"
    },
    {
      "channel": 5,
      "note": 90,
      "start": 37.569,
      "duration": 0.0831,
      "velocity": 127,
      "chip": "ym2612"
    },
    {
      "channel": 2,
      "note": 71,
      "start": 37.6511,
      "duration": 0.0831,
      "velocity": 109,
      "chip": "ym2612"
    },
    {
      "channel": 3,
      "note": 64,
      "start": 37.6517,
      "duration": 0.0832,
      "velocity": 109,
      "chip": "ym2612"
    },
    {
      "channel": 5,
      "note": 69,
      "start": 37.6523,
      "duration": 0.0832,
      "velocity": 127,
      "chip": "ym2612"
    },
    {
      "channel": 2,
      "note": 74,
      "start": 37.7344,
      "duration": 0.0671,
      "velocity": 109,
      "chip": "ym2612"
    },
    {
      "channel": 3,
      "note": 69,
      "start": 37.735,
      "duration": 0.0671,
      "velocity": 109,
      "chip": "ym2612"
    },
    {
      "channel": 5,
      "note": 90,
      "start": 37.7356,
      "duration": 0.1499,
      "velocity": 127,
      "chip": "ym2612"
    },
    {
      "channel": 0,
      "note": 62,
      "start": 37.801,
      "duration": 0.1665,
      "velocity": 102,
      "chip": "ym2612"
    },
    {
      "channel": 2,
      "note": 64,
      "start": 37.8017,
      "duration": 0.0826,
      "velocity": 109,
      "chip": "ym2612"
    },
    {
      "channel": 3,
      "note": 71,
      "start": 37.8022,
      "duration": 0.0826,
      "velocity": 109,
      "chip": "ym2612"
    },
    {
      "channel": 2,
      "note": 69,
      "start": 37.8845,
      "duration": 0.0837,
      "velocity": 109,
      "chip": "ym2612"
    },
    {
      "channel": 3,
      "note": 74,
      "start": 37.8851,
      "duration": 0.0837,
      "velocity": 109,
      "chip": "ym2612"
    },
    {
      "channel": 5,
      "note": 90,
      "start": 37.8857,
      "duration": 0.0837,
      "velocity": 127,
      "chip": "ym2612"
    },
    {
      "channel": 0,
      "note": 64,
      "start": 37.9677,
      "duration": 0.1665,
      "velocity": 102,
      "chip": "ym2612"
    },
    {
      "channel": 2,
      "note": 71,
      "start": 37.9683,
      "duration": 0.0826,
      "velocity": 109,
      "chip": "ym2612"
    },
    {
      "channel": 3,
      "note": 64,
      "start": 37.9688,
      "duration": 0.0827,
      "velocity": 109,
      "chip": "ym2612"
    },
    {
      "channel": 5,
      "note": 69,
      "start": 37.9695,
      "duration": 0.0827,
      "velocity": 127,
      "chip": "ym2612"
    },
    {
      "channel": 2,
      "note": 74,
      "start": 38.0512,
      "duration": 0.0837,
      "velocity": 109,
      "chip": "ym2612"
    },
    {
      "channel": 3,
      "note": 69,
      "start": 38.0517,
      "duration": 0.0837,
      "velocity": 109,
      "chip": "ym2612"
    },
    {
      "channel": 5,
      "note": 90,
      "start": 38.0524,
      "duration": 0.1498,
      "velocity": 127,
      "chip": "ym2612"
    },
    {
      "channel": 0,
      "note": 50,
      "start": 38.1344,
      "duration": 0.1498,
      "velocity": 102,
      "chip": "ym2612"
    },
    {
      "channel": 2,
      "note": 64,
      "start": 38.135,
      "duration": 0.066,
      "velocity": 109,
      "chip": "ym2612"
    },
    {
      "channel": 3,
      "note": 71,
      "start": 38.1355,
      "duration": 0.066,
      "velocity": 109,
      "chip": "ym2612"
    },
    {
      "channel": 2,
      "note": 69,
      "start": 38.2012,
      "duration": 0.0837,
      "velocity": 109,
      "chip": "ym2612"
    },
    {
      "channel": 3,
      "note": 74,
      "start": 38.2017,
      "duration": 0.0837,
      "velocity": 109,
      "chip": "ym2612"
    },
    {
      "channel": 5,
      "note": 90,
      "start": 38.2024,
      "duration": 0.0837,
      "velocity": 127,
      "chip": "ym2612"
    },
    {
      "channel": 0,
      "note": 52,
      "start": 38.2844,
      "duration": 0.3165,
      "velocity": 102,
      "chip": "ym2612"
    },
    {
      "channel": 2,
      "note": 71,
      "start": 38.285,
      "duration": 0.0826,
      "velocity": 109,
      "chip": "ym2612"
    },
    {
      "channel": 3,
      "note": 64,
      "start": 38.2856,
      "duration": 0.0826,
      "velocity": 109,
      "chip": "ym2612"
    },
    {
      "channel": 5,
      "note": 69,
      "start": 38.2862,
      "duration": 0.0826,
      "velocity": 127,
      "chip": "ym2612"
    },
    {
      "channel": 2,
      "note": 74,
      "start": 38.3678,
      "duration": 0.0831,
      "velocity": 109,
      "chip": "ym2612"
    },
    {
      "channel": 3,
      "note": 69,
      "start": 38.3684,
      "duration": 0.0831,
      "velocity": 109,
      "chip": "ym2612"
    },
    {
      "channel": 5,
      "note": 90,
      "start": 38.369,
      "duration": 0.1664,
      "velocity": 127,
      "chip": "ym2612"
    },
    {
      "channel": 2,
      "note": 64,
      "start": 38.4511,
      "duration": 0.0831,
      "velocity": 109,
      "chip": "ym2612"
    },
    {
      "channel": 3,
      "note": 71,
      "start": 38.4517,
      "duration": 0.0832,
      "velocity": 109,
      "chip": "ym2612"
    },
    {
      "channel": 2,
      "note": 69,
      "start": 38.5344,
      "duration": 0.0671,
      "velocity": 109,
      "chip": "ym2612"
    },
    {
      "channel": 3,
      "note": 74,
      "start": 38.535,
      "duration": 0.0671,
      "velocity": 109,
      "chip": "ym2612"
    },
    {
      "channel": 5,
      "note": 90,
      "start": 38.5356,
      "duration": 0.0671,
      "velocity": 127,
      "chip": "ym2612"
    },
    {
      "channel": 0,
      "note": 64,
      "start": 38.601,
      "duration": 0.3332,
      "velocity": 102,
      "chip": "ym2612"
    },
    {
      "channel": 2,
      "note": 71,
      "start": 38.6017,
      "duration": 0.0826,
      "velocity": 109,
      "chip": "ym2612"
    },
    {
      "channel": 3,
      "note": 64,
      "start": 38.6022,
      "duration": 0.0826,
      "velocity": 109,
      "chip": "ym2612"
    },
    {
      "channel": 5,
      "note": 69,
      "start": 38.6029,
      "duration": 0.0826,
      "velocity": 127,
      "chip": "ym2612"
    },
    {
      "channel": 2,
      "note": 72,
      "start": 38.6845,
      "duration": 0.0831,
      "velocity": 109,
      "chip": "ym2612"
    },
    {
      "channel": 3,
      "note": 69,
      "start": 38.6851,
      "duration": 0.0831,
      "velocity": 109,
      "chip": "ym2612"
    },
    {
      "channel": 5,
      "note": 90,
      "start": 38.6857,
      "duration": 0.1664,
      "velocity": 127,
      "chip": "ym2612"
    },
    {
      "channel": 2,
      "note": 64,
      "start": 38.7678,
      "duration": 0.0831,
      "velocity": 109,
      "chip": "ym2612"
    },
    {
      "channel": 3,
      "note": 71,
      "start": 38.7683,
      "duration": 0.0832,
      "velocity": 109,
      "chip": "ym2612"
    },
    {
      "channel": 2,
      "note": 69,
      "start": 38.8511,
      "duration": 0.0837,
      "velocity": 109,
      "chip": "ym2612"
    },
    {
      "channel": 3,
      "note": 72,
      "start": 38.8517,
      "duration": 0.0837,
      "velocity": 109,
      "chip": "ym2612"
    },
    {
      "channel": 5,
      "note": 90,
      "start": 38.8523,
      "duration": 0.0837,
      "velocity": 127,
      "chip": "ym2612"
    },
    {
      "channel": 0,
      "note": 62,
      "start": 38.9344,
      "duration": 0.3165,
      "velocity": 102,
      "chip": "ym2612"
    },
    {
      "channel": 2,
      "note": 71,
      "start": 38.935,
      "duration": 0.066,
      "velocity": 109,
      "chip": "ym2612"
    },
    {
      "channel": 3,
      "note": 64,
      "start": 38.9355,
      "duration": 0.066,
      "velocity": 109,
      "chip": "ym2612"
    },
    {
      "channel": 5,
      "note": 69,
      "start": 38.9361,
      "duration": 0.066,
      "velocity": 127,
      "chip": "ym2612"
    },
    {
      "channel": 2,
      "note": 72,
      "start": 39.0012,
      "duration": 0.0831,
      "velocity": 109,
      "chip": "ym2612"
    },
    {
      "channel": 3,
      "note": 69,
      "start": 39.0017,
      "duration": 0.0831,
      "velocity": 109,
      "chip": "ym2612"
    },
    {
      "channel": 5,
      "note": 90,
      "start": 39.0024,
      "duration": 0.1664,
      "velocity": 127,
      "chip": "ym2612"
    },
    {
      "channel": 2,
      "note": 64,
      "start": 39.0844,
      "duration": 0.0831,
      "velocity": 109,
      "chip": "ym2612"
    },
    {
      "channel": 3,
      "note": 71,
      "start": 39.085,
      "duration": 0.0832,
      "velocity": 109,
      "chip": "ym2612"
    },
    {
      "channel": 2,
      "note": 69,
      "start": 39.1678,
      "duration": 0.0837,
      "velocity": 109,
      "chip": "ym2612"
    },
    {
      "channel": 3,
      "note": 72,
      "start": 39.1683,
      "duration": 0.0837,
      "velocity": 109,
      "chip": "ym2612"
    },
    {
      "channel": 5,
      "note": 90,
      "start": 39.169,
      "duration": 0.0837,
      "velocity": 127,
      "chip": "ym2612"
    },
    {
      "channel": 0,
      "note": 64,
      "start": 39.251,
      "duration": 0.3165,
      "velocity": 102,
      "chip": "ym2612"
    },
    {
      "channel": 2,
      "note": 71,
      "start": 39.2517,
      "duration": 0.0826,
      "velocity": 109,
      "chip": "ym2612"
    },
    {
      "channel": 3,
      "note": 64,
      "start": 39.2522,
      "duration": 0.0827,
      "velocity": 109,
      "chip": "ym2612"
    },
    {
      "channel": 5,
      "note": 69,
      "start": 39.2528,
      "duration": 0.0827,
      "velocity": 127,
      "chip": "ym2612"
    },
    {
      "channel": 2,
      "note": 72,
      "start": 39.3345,
      "duration": 0.0664,
      "velocity": 109,
      "chip": "ym2612"
    },
    {
      "channel": 3,
      "note": 69,
      "start": 39.3351,
      "duration": 0.0664,
      "velocity": 109,
      "chip": "ym2612"
    },
    {
      "channel": 5,
      "note": 90,
      "start": 39.3357,
      "duration": 0.1498,
      "velocity": 127,
      "chip": "ym2612"
    },
    {
      "channel": 2,
      "note": 64,
      "start": 39.4011,
      "duration": 0.0831,
      "velocity": 109,
      "chip": "ym2612"
    },
    {
      "channel": 3,
      "note": 71,
      "start": 39.4017,
      "duration": 0.0832,
      "velocity": 109,
      "chip": "ym2612"
    },
    {
      "channel": 2,
      "note": 69,
      "start": 39.4844,
      "duration": 0.0837,
      "velocity": 109,
      "chip": "ym2612"
    },
    {
      "channel": 3,
      "note": 72,
      "start": 39.4849,
      "duration": 0.0838,
      "velocity": 109,
      "chip": "ym2612"
    },
    {
      "channel": 5,
      "note": 90,
      "start": 39.4856,
      "duration": 0.0838,
      "velocity": 127,
      "chip": "ym2612"
    },
    {
      "channel": 0,
      "note": 50,
      "start": 39.5677,
      "duration": 0.1665,
      "velocity": 102,
      "chip": "ym2612"
    },
    {
      "channel": 2,
      "note": 71,
      "start": 39.5683,
      "duration": 0.0826,
      "velocity": 109,
      "chip": "ym2612"
    },
    {
      "channel": 3,
      "note": 64,
      "start": 39.5688,
      "duration": 0.0827,
      "velocity": 109,
      "chip": "ym2612"
    },
    {
      "channel": 5,
      "note": 69,
      "start": 39.5695,
      "duration": 0.0827,
      "velocity": 127,
      "chip": "ym2612"
    },
    {
      "channel": 2,
      "note": 72,
      "start": 39.6512,
      "duration": 0.0837,
      "velocity": 109,
      "chip": "ym2612"
    },
    {
      "channel": 3,
      "note": 69,
      "start": 39.6517,
      "duration": 0.0837,
      "velocity": 109,
      "chip": "ym2612"
    },
    {
      "channel": 5,
      "note": 90,
      "start": 39.6524,
      "duration": 0.1498,
      "velocity": 127,
      "chip": "ym2612"
    },
    {
      "channel": 0,
      "note": 52,
      "start": 39.7344,
      "duration": 0.3165,
      "velocity": 102,
      "chip": "ym2612"
    },
    {
      "channel": 2,
      "note": 64,
      "start": 39.735,
      "duration": 0.066,
      "velocity": 109,
      "chip": "ym2612"
    },
    {
      "channel": 3,
      "note": 71,
      "start": 39.7355,
      "duration": 0.066,
      "velocity": 109,
      "chip": "ym2612"
    },
    {
      "channel": 2,
      "note": 67,
      "start": 39.8012,
      "duration": 0.0831,
      "velocity": 109,
      "chip": "ym2612"
    },
    {
      "channel": 3,
      "note": 72,
      "start": 39.8017,
      "duration": 0.0831,
      "velocity": 109,
      "chip": "ym2612"
    },
    {
      "channel": 5,
      "note": 90,
      "start": 39.8024,
      "duration": 0.0831,
      "velocity": 127,
      "chip": "ym2612"
    },
    {
      "channel": 2,
      "note": 69,
      "start": 39.8844,
      "duration": 0.0831,
      "velocity": 109,
      "chip": "ym2612"
    },
    {
      "channel": 3,
      "note": 64,
      "start": 39.885,
      "duration": 0.0832,
      "velocity": 109,
      "chip": "ym2612"
    },
    {
      "channel": 5,
      "note": 69,
      "start": 39.8856,
      "duration": 0.0832,
      "velocity": 127,
      "chip": "ym2612"
    },
    {
      "channel": 2,
      "note": 71,
      "start": 39.9678,
      "duration": 0.0837,
      "velocity": 109,
      "chip": "ym2612"
    },
    {
      "channel": 3,
      "note": 67,
      "start": 39.9683,
      "duration": 0.0837,
      "velocity": 109,
      "chip": "ym2612"
    },
    {
      "channel": 5,
      "note": 90,
      "start": 39.969,
      "duration": 0.1665,
      "velocity": 127,
      "chip": "ym2612"
    },
    {
      "channel": 0,
      "note": 64,
      "start": 40.051,
      "duration": 0.3165,
      "velocity": 102,
      "chip": "ym2612"
    },
    {
      "channel": 2,
      "note": 64,
      "start": 40.0517,
      "duration": 0.0826,
      "velocity": 109,
      "chip": "ym2612"
    },
    {
      "channel": 3,
      "note": 69,
      "start": 40.0522,
      "duration": 0.0827,
      "velocity": 109,
      "chip": "ym2612"
    },
    {
      "channel": 2,
      "note": 67,
      "start": 40.1345,
      "duration": 0.0664,
      "velocity": 109,
      "chip": "ym2612"
    },
    {
      "channel": 3,
      "note": 71,
      "start": 40.1351,
      "duration": 0.0664,
      "velocity": 109,
      "chip": "ym2612"
    },
    {
      "channel": 5,
      "note": 90,
      "start": 40.1357,
      "duration": 0.0664,
      "velocity": 127,
      "chip": "ym2612"
    },
    {
      "channel": 2,
      "note": 69,
      "start": 40.2011,
      "duration": 0.0831,
      "velocity": 109,
      "chip": "ym2612"
    },
    {
      "channel": 3,
      "note": 64,
      "start": 40.2017,
      "duration": 0.0832,
      "velocity": 109,
      "chip": "ym2612"
    },
    {
      "channel": 5,
      "note": 69,
      "start": 40.2023,
      "duration": 0.0832,
      "velocity": 127,
      "chip": "ym2612"
    },
    {
      "channel": 2,
      "note": 71,
      "start": 40.2844,
      "duration": 0.0837,
      "velocity": 109,
      "chip": "ym2612"
    },
    {
      "channel": 3,
      "note": 67,
      "start": 40.285,
      "duration": 0.0837,
      "velocity": 109,
      "chip": "ym2612"
    },
    {
      "channel": 5,
      "note": 90,
      "start": 40.2856,
      "duration": 0.1665,
      "velocity": 127,
      "chip": "ym2612"
    },
    {
      "channel": 0,
      "note": 62,
      "start": 40.3677,
      "duration": 0.1665,
      "velocity": 102,
      "chip": "ym2612"
    },
    {
      "channel": 2,
      "note": 64,
      "start": 40.3683,
      "duration": 0.0827,
      "velocity": 109,
      "chip": "ym2612"
    },
    {
      "channel": 3,
      "note": 69,
      "start": 40.3688,
      "duration": 0.0827,
      "velocity": 109,
      "chip": "ym2612"
    },
    {
      "channel": 2,
      "note": 67,
      "start": 40.4511,
      "duration": 0.0837,
      "velocity": 109,
      "chip": "ym2612"
    },
    {
      "channel": 3,
      "note": 71,
      "start": 40.4517,
      "duration": 0.0837,
      "velocity": 109,
      "chip": "ym2612"
    },
    {
      "channel": 5,
      "note": 90,
      "start": 40.4523,
      "duration": 0.0837,
      "velocity": 127,
      "chip": "ym2612"
    },
    {
      "channel": 0,
      "note": 64,
      "start": 40.5343,
      "duration": 0.1499,
      "velocity": 102,
      "chip": "ym2612"
    },
    {
      "channel": 2,
      "note": 69,
      "start": 40.5349,
      "duration": 0.066,
      "velocity": 109,
      "chip": "ym2612"
    },
    {
      "channel": 3,
      "note": 64,
      "start": 40.5355,
      "duration": 0.066,
      "velocity": 109,
      "chip": "ym2612"
    },
    {
      "channel": 5,
      "note": 69,
      "start": 40.5361,
      "duration": 0.066,
      "velocity": 127,
      "chip": "ym2612"
    },
    {
      "channel": 2,
      "note": 71,
      "start": 40.6011,
      "duration": 0.0837,
      "velocity": 109,
      "chip": "ym2612"
    },
    {
      "channel": 3,
      "note": 67,
      "start": 40.6017,
      "duration": 0.0837,
      "velocity": 109,
      "chip": "ym2612"
    },
    {
      "channel": 5,
      "note": 90,
      "start": 40.6023,
      "duration": 0.1665,
      "velocity": 127,
      "chip": "ym2612"
    },
    {
      "channel": 0,
      "note": 50,
      "start": 40.6843,
      "duration": 0.1666,
      "velocity": 102,
      "chip": "ym2612"
    },
    {
      "channel": 2,
      "note": 64,
      "start": 40.6849,
      "duration": 0.0826,
      "velocity": 109,
      "chip": "ym2612"
    },
    {
      "channel": 3,
      "note": 69,
      "start": 40.6855,
      "duration": 0.0827,
      "velocity": 109,
      "chip": "ym2612"
    },
    {
      "channel": 2,
      "note": 67,
      "start": 40.7678,
      "duration": 0.0837,
      "velocity": 109,
      "chip": "ym2612"
    },
    {
      "channel": 3,
      "note": 71,
      "start": 40.7683,
      "duration": 0.0837,
      "velocity": 109,
      "chip": "ym2612"
    },
    {
      "channel": 5,
      "note": 90,
      "start": 40.769,
      "duration": 0.0837,
      "velocity": 127,
      "chip": "ym2612"
    },
    {
      "channel": 0,
      "note": 52,
      "start": 40.851,
      "duration": 0.3165,
      "velocity": 102,
      "chip": "ym2612"
    },
    {
      "channel": 2,
      "note": 69,
      "start": 40.8516,
      "duration": 0.0827,
      "velocity": 109,
      "chip": "ym2612"
    },
    {
      "channel": 3,
      "note": 64,
      "start": 40.8522,
      "duration": 0.0827,
      "velocity": 109,
      "chip": "ym2612"
    },
    {
      "channel": 5,
      "note": 69,
      "start": 40.8528,
      "duration": 0.0827,
      "velocity": 127,
      "chip": "ym2612"
    },
    {
      "channel": 2,
      "note": 71,
      "start": 40.9344,
      "duration": 0.0665,
      "velocity": 109,
      "chip": "ym2612"
    },
    {
      "channel": 3,
      "note": 67,
      "start": 40.935,
      "duration": 0.0665,
      "velocity": 109,
      "chip": "ym2612"
    },
    {
      "channel": 5,
      "note": 90,
      "start": 40.9356,
      "duration": 0.1498,
      "velocity": 127,
      "chip": "ym2612"
    },
    {
      "channel": 2,
      "note": 64,
      "start": 41.0011,
      "duration": 0.0831,
      "velocity": 109,
      "chip": "ym2612"
    },
    {
      "channel": 3,
      "note": 69,
      "start": 41.0017,
      "duration": 0.0832,
      "velocity": 109,
      "chip": "ym2612"
    },
    {
      "channel": 2,
      "note": 66,
      "start": 41.0844,
      "duration": 0.0837,
      "velocity": 109,
      "chip": "ym2612"
    },
    {
      "channel": 3,
      "note": 71,
      "start": 41.085,
      "duration": 0.0837,
      "velocity": 109,
      "chip": "ym2612"
    },
    {
      "channel": 5,
      "note": 90,
      "start": 41.0856,
      "duration": 0.0837,
      "velocity": 127,
      "chip": "ym2612"
    },
    {
      "channel": 0,
      "note": 64,
      "start": 41.1677,
      "duration": 0.3165,
      "velocity": 102,
      "chip": "ym2612"
    },
    {
      "channel": 2,
      "note": 67,
      "start": 41.1683,
      "duration": 0.0827,
      "velocity": 109,
      "chip": "ym2612"
    },
    {
      "channel": 3,
      "note": 64,
      "start": 41.1688,
      "duration": 0.0827,
      "velocity": 109,
      "chip": "ym2612"
    },
    {
      "channel": 5,
      "note": 69,
      "start": 41.1695,
      "duration": 0.0826,
      "velocity": 127,
      "chip": "ym2612"
    },
    {
      "channel": 2,
      "note": 69,
      "start": 41.2511,
      "duration": 0.0831,
      "velocity": 109,
      "chip": "ym2612"
    },
    {
      "channel": 3,
      "note": 66,
      "start": 41.2517,
      "duration": 0.0832,
      "velocity": 109,
      "chip": "ym2612"
    },
    {
      "channel": 5,
      "note": 90,
      "start": 41.2523,
      "duration": 0.1498,
      "velocity": 127,
      "chip": "ym2612"
    },
    {
      "channel": 2,
      "note": 64,
      "start": 41.3344,
      "duration": 0.0665,
      "velocity": 109,
      "chip": "ym2612"
    },
    {
      "channel": 3,
      "note": 67,
      "start": 41.335,
      "duration": 0.0665,
      "velocity": 109,
      "chip": "ym2612"
    },
    {
      "channel": 2,
      "note": 66,
      "start": 41.4011,
      "duration": 0.0837,
      "velocity": 109,
      "chip": "ym2612"
    },
    {
      "channel": 3,
      "note": 69,
      "start": 41.4017,
      "duration": 0.0837,
      "velocity": 109,
      "chip": "ym2612"
    },
    {
      "channel": 5,
      "note": 90,
      "start": 41.4023,
      "duration": 0.0837,
      "velocity": 127,
      "chip": "ym2612"
    },
    {
      "channel": 0,
      "note": 62,
      "start": 41.4843,
      "duration": 0.3166,
      "velocity": 102,
      "chip": "ym2612"
    },
    {
      "channel": 2,
      "note": 67,
      "start": 41.4849,
      "duration": 0.0827,
      "velocity": 109,
      "chip": "ym2612"
    },
    {
      "channel": 3,
      "note": 64,
      "start": 41.4855,
      "duration": 0.0827,
      "velocity": 109,
      "chip": "ym2612"
    },
    {
      "channel": 5,
      "note": 69,
      "start": 41.4861,
      "duration": 0.0826,
      "velocity": 127,
      "chip": "ym2612"
    },
    {
      "channel": 2,
      "note": 69,
      "start": 41.5678,
      "duration": 0.0831,
      "velocity": 109,
      "chip": "ym2612"
    },
    {
      "channel": 3,
      "note": 66,
      "start": 41.5683,
      "duration": 0.0832,
      "velocity": 109,
      "chip": "ym2612"
    },
    {
      "channel": 5,
      "note": 90,
      "start": 41.569,
      "duration": 0.1665,
      "velocity": 127,
      "chip": "ym2612"
    },
    {
      "channel": 2,
      "note": 64,
      "start": 41.6511,
      "duration": 0.0831,
      "velocity": 109,
      "chip": "ym2612"
    },
    {
      "channel": 3,
      "note": 67,
      "start": 41.6517,
      "duration": 0.0832,
      "velocity": 109,
      "chip": "ym2612"
    },
    {
      "channel": 2,
      "note": 66,
      "start": 41.7344,
      "duration": 0.067,
      "velocity": 109,
      "chip": "ym2612"
    },
    {
      "channel": 3,
      "note": 69,
      "start": 41.7349,
      "duration": 0.0671,
      "velocity": 109,
      "chip": "ym2612"
    },
    {
      "channel": 5,
      "note": 90,
      "start": 41.7356,
      "duration": 0.0671,
      "velocity": 127,
      "chip": "ym2612"
    },
    {
      "channel": 0,
      "note": 64,
      "start": 41.801,
      "duration": 0.3332,
      "velocity": 102,
      "chip": "ym2612"
    },
    {
      "channel": 2,
      "note": 67,
      "start": 41.8016,
      "duration": 0.0827,
      "velocity": 109,
      "chip": "ym2612"
    },
    {
      "channel": 3,
      "note": 64,
      "start": 41.8022,
      "duration": 0.0827,
      "velocity": 109,
      "chip": "ym2612"
    },
    {
      "channel": 5,
      "note": 69,
      "start": 41.8028,
      "duration": 0.0826,
      "velocity": 127,
      "chip": "ym2612"
    },
    {
      "channel": 2,
      "note": 69,
      "start": 41.8844,
      "duration": 0.0831,
      "velocity": 109,
      "chip": "ym2612"
    },
    {
      "channel": 3,
      "note": 66,
      "start": 41.885,
      "duration": 0.0832,
      "velocity": 109,
      "chip": "ym2612"
    },
    {
      "channel": 5,
      "note": 90,
      "start": 41.8856,
      "duration": 0.4833,
      "velocity": 127,
      "chip": "ym2612"
    },
    {
      "channel": 2,
      "note": 64,
      "start": 41.9678,
      "duration": 0.0831,
      "velocity": 109,
      "chip": "ym2612"
    },
    {
      "channel": 3,
      "note": 67,
      "start": 41.9683,
      "duration": 0.0832,
      "velocity": 109,
      "chip": "ym2612"
    },
    {
      "channel": 2,
      "note": 66,
      "start": 42.0511,
      "duration": 0.0837,
      "velocity": 109,
      "chip": "ym2612"
    },
    {
      "channel": 3,
      "note": 69,
      "start": 42.0516,
      "duration": 0.0837,
      "velocity": 109,
      "chip": "ym2612"
    },
    {
      "channel": 0,
      "note": 50,
      "start": 42.1343,
      "duration": 0.15,
      "velocity": 102,
      "chip": "ym2612"
    },
    {
      "channel": 2,
      "note": 67,
      "start": 42.1349,
      "duration": 0.066,
      "velocity": 109,
      "chip": "ym2612"
    },
    {
      "channel": 3,
      "note": 64,
      "start": 42.1355,
      "duration": 0.066,
      "velocity": 109,
      "chip": "ym2612"
    },
    {
      "channel": 2,
      "note": 69,
      "start": 42.2012,
      "duration": 0.0859,
      "velocity": 109,
      "chip": "ym2612"
    },
    {
      "channel": 3,
      "note": 66,
      "start": 42.2017,
      "duration": 0.086,
      "velocity": 109,
      "chip": "ym2612"
    },
    {
      "channel": 0,
      "note": 52,
      "start": 42.2844,
      "duration": 0.3164,
      "velocity": 102,
      "chip": "ym2612"
    },
    {
      "channel": 1,
      "note": 69,
      "start": 42.2866,
      "duration": 0.4809,
      "velocity": 108,
      "chip": "ym2612"
    },
    {
      "channel": 2,
      "note": 64,
      "start": 42.2873,
      "duration": 0.0804,
      "velocity": 109,
      "chip": "ym2612"
    },
    {
      "channel": 3,
      "note": 67,
      "start": 42.2878,
      "duration": 0.0804,
      "velocity": 109,
      "chip": "ym2612"
    },
    {
      "channel": 4,
      "note": 81,
      "start": 42.2901,
      "duration": 0.4791,
      "velocity": 109,
      "chip": "ym2612"
    },
    {
      "channel": 2,
      "note": 69,
      "start": 42.3678,
      "duration": 0.0831,
      "velocity": 109,
      "chip": "ym2612"
    },
    {
      "channel": 3,
      "note": 69,
      "start": 42.3684,
      "duration": 0.0831,
      "velocity": 109,
      "chip": "ym2612"
    },
    {
      "channel": 5,
      "note": 90,
      "start": 42.3691,
      "duration": 0.083,
      "velocity": 127,
      "chip": "ym2612"
    },
    {
      "channel": 2,
      "note": 71,
      "start": 42.4511,
      "duration": 0.0831,
      "velocity": 109,
      "chip": "ym2612"
    },
    {
      "channel": 3,
      "note": 64,
      "start": 42.4516,
      "duration": 0.0832,
      "velocity": 109,
      "chip": "ym2612"
    },
    {
      "channel": 5,
      "note": 69,
      "start": 42.4522,
      "duration": 0.0832,
      "velocity": 127,
      "chip": "ym2612"
    },
    {
      "channel": 2,
      "note": 74,
      "start": 42.5344,
      "duration": 0.0671,
      "velocity": 109,
      "chip": "ym2612"
    },
    {
      "channel": 3,
      "note": 69,
      "start": 42.535,
      "duration": 0.0671,
      "velocity": 109,
      "chip": "ym2612"
    },
    {
      "channel": 5,
      "note": 90,
      "start": 42.5356,
      "duration": 0.1499,
      "velocity": 127,
      "chip": "ym2612"
    },
    {
      "channel": 0,
      "note": 64,
      "start": 42.601,
      "duration": 0.3332,
      "velocity": 102,
      "chip": "ym2612"
    },
    {
      "channel": 2,
      "note": 64,
      "start": 42.6017,
      "duration": 0.0826,
      "velocity": 109,
      "chip": "ym2612"
    },
    {
      "channel": 3,
      "note": 71,
      "start": 42.6022,
      "duration": 0.0827,
      "velocity": 109,
      "chip": "ym2612"
    },
    {
      "channel": 2,
      "note": 69,
      "start": 42.6845,
      "duration": 0.0837,
      "velocity": 109,
      "chip": "ym2612"
    },
    {
      "channel": 3,
      "note": 74,
      "start": 42.6851,
      "duration": 0.0837,
      "velocity": 109,
      "chip": "ym2612"
    },
    {
      "channel": 5,
      "note": 90,
      "start": 42.6857,
      "duration": 0.0841,
      "velocity": 127,
      "chip": "ym2612"
    },
    {
      "channel": 1,
      "note": 67,
      "start": 42.7678,
      "duration": 0.317,
      "velocity": 108,
      "chip": "ym2612"
    },
    {
      "channel": 2,
      "note": 71,
      "start": 42.7683,
      "duration": 0.0826,
      "velocity": 109,
      "chip": "ym2612"
    },
    {
      "channel": 3,
      "note": 64,
      "start": 42.7688,
      "duration": 0.0827,
      "velocity": 109,
      "chip": "ym2612"
    },
    {
      "channel": 4,
      "note": 79,
      "start": 42.7694,
      "duration": 0.317,
      "velocity": 109,
      "chip": "ym2612"
    },
    {
      "channel": 5,
      "note": 69,
      "start": 42.77,
      "duration": 0.0822,
      "velocity": 127,
      "chip": "ym2612"
    },
    {
      "channel": 2,
      "note": 74,
      "start": 42.8512,
      "duration": 0.0837,
      "velocity": 109,
      "chip": "ym2612"
    },
    {
      "channel": 3,
      "note": 69,
      "start": 42.8517,
      "duration": 0.0837,
      "velocity": 109,
      "chip": "ym2612"
    },
    {
      "channel": 5,
      "note": 90,
      "start": 42.8524,
      "duration": 0.1498,
      "velocity": 127,
      "chip": "ym2612"
    },
    {
      "channel": 0,
      "note": 62,
      "start": 42.9344,
      "duration": 0.1498,
      "velocity": 102,
      "chip": "ym2612"
    },
    {
      "channel": 2,
      "note": 64,
      "start": 42.935,
      "duration": 0.066,
      "velocity": 109,
      "chip": "ym2612"
    },
    {
      "channel": 3,
      "note": 71,
      "start": 42.9355,
      "duration": 0.066,
      "velocity": 109,
      "chip": "ym2612"
    },
    {
      "channel": 2,
      "note": 69,
      "start": 43.0012,
      "duration": 0.0841,
      "velocity": 109,
      "chip": "ym2612"
    },
    {
      "channel": 3,
      "note": 74,
      "start": 43.0017,
      "duration": 0.0841,
      "velocity": 109,
      "chip": "ym2612"
    },
    {
      "channel": 5,
      "note": 90,
      "start": 43.0024,
      "duration": 0.0846,
      "velocity": 127,
      "chip": "ym2612"
    },
    {
      "channel": 0,
      "note": 64,
      "start": 43.0844,
      "duration": 0.1665,
      "velocity": 102,
      "chip": "ym2612"
    },
    {
      "channel": 1,
      "note": 66,
      "start": 43.0849,
      "duration": 0.3165,
      "velocity": 108,
      "chip": "ym2612"
    },
    {
      "channel": 2,
      "note": 71,
      "start": 43.0854,
      "duration": 0.0822,
      "velocity": 109,
      "chip": "ym2612"
    },
    {
      "channel": 3,
      "note": 64,
      "start": 43.086,
      "duration": 0.0822,
      "velocity": 109,
      "chip": "ym2612"
    },
    {
      "channel": 4,
      "note": 78,
      "start": 43.0866,
      "duration": 0.3165,
      "velocity": 109,
      "chip": "ym2612"
    },
    {
      "channel": 5,
      "note": 69,
      "start": 43.0871,
      "duration": 0.0817,
      "velocity": 127,
      "chip": "ym2612"
    },
    {
      "channel": 2,
      "note": 74,
      "start": 43.1679,
      "duration": 0.0836,
      "velocity": 109,
      "chip": "ym2612"
    },
    {
      "channel": 3,
      "note": 69,
      "start": 43.1685,
      "duration": 0.0836,
      "velocity": 109,
      "chip": "ym2612"
    },
    {
      "channel": 5,
      "note": 90,
      "start": 43.1691,
      "duration": 0.1664,
      "velocity": 127,
      "chip": "ym2612"
    },
    {
      "channel": 0,
      "note": 50,
      "start": 43.251,
      "duration": 0.1498,
      "velocity": 102,
      "chip": "ym2612"
    },
    {
      "channel": 2,
      "note": 64,
      "start": 43.2517,
      "duration": 0.0826,
      "velocity": 109,
      "chip": "ym2612"
    },
    {
      "channel": 3,
      "note": 71,
      "start": 43.2522,
      "duration": 0.0826,
      "velocity": 109,
      "chip": "ym2612"
    },
    {
      "channel": 2,
      "note": 69,
      "start": 43.3345,
      "duration": 0.0675,
      "velocity": 109,
      "chip": "ym2612"
    },
    {
      "channel": 3,
      "note": 74,
      "start": 43.3351,
      "duration": 0.0674,
      "velocity": 109,
      "chip": "ym2612"
    },
    {
      "channel": 5,
      "note": 90,
      "start": 43.3357,
      "duration": 0.0679,
      "velocity": 127,
      "chip": "ym2612"
    },
    {
      "channel": 0,
      "note": 52,
      "start": 43.401,
      "duration": 0.3332,
      "velocity": 102,
      "chip": "ym2612"
    },
    {
      "channel": 1,
      "note": 67,
      "start": 43.4016,
      "duration": 0.3332,
      "velocity": 108,
      "chip": "ym2612"
    },
    {
      "channel": 2,
      "note": 71,
      "start": 43.4021,
      "duration": 0.0822,
      "velocity": 109,
      "chip": "ym2612"
    },
    {
      "channel": 3,
      "note": 64,
      "start": 43.4027,
      "duration": 0.0822,
      "velocity": 109,
      "chip": "ym2612"
    },
    {
      "channel": 4,
      "note": 79,
      "start": 43.4032,
      "duration": 0.3332,
      "velocity": 109,
      "chip": "ym2612"
    },
    {
      "channel": 5,
      "note": 69,
      "start": 43.4038,
      "duration": 0.0817,
      "velocity": 127,
      "chip": "ym2612"
    },
    {
      "channel": 2,
      "note": 74,
      "start": 43.4845,
      "duration": 0.083,
      "velocity": 109,
      "chip": "ym2612"
    },
    {
      "channel": 3,
      "note": 69,
      "start": 43.4851,
      "duration": 0.083,
      "velocity": 109,
      "chip": "ym2612"
    },
    {
      "channel": 5,
      "note": 90,
      "start": 43.4858,
      "duration": 0.1663,
      "velocity": 127,
      "chip": "ym2612"
    },
    {
      "channel": 2,
      "note": 64,
      "start": 43.5678,
      "duration": 0.0831,
      "velocity": 109,
      "chip": "ym2612"
    },
    {
      "channel": 3,
      "note": 71,
      "start": 43.5683,
      "duration": 0.0832,
      "velocity": 109,
      "chip": "ym2612"
    },
    {
      "channel": 2,
      "note": 69,
      "start": 43.6511,
      "duration": 0.0842,
      "velocity": 109,
      "chip": "ym2612"
    },
    {
      "channel": 3,
      "note": 74,
      "start": 43.6516,
      "duration": 0.0843,
      "velocity": 109,
      "chip": "ym2612"
    },
    {
      "channel": 5,
      "note": 90,
      "start": 43.6522,
      "duration": 0.0847,
      "velocity": 127,
      "chip": "ym2612"
    },
    {
      "channel": 0,
      "note": 64,
      "start": 43.7344,
      "duration": 0.3165,
      "velocity": 102,
      "chip": "ym2612"
    },
    {
      "channel": 1,
      "note": 69,
      "start": 43.7349,
      "duration": 0.1493,
      "velocity": 108,
      "chip": "ym2612"
    },
    {
      "channel": 2,
      "note": 71,
      "start": 43.7354,
      "duration": 0.0655,
      "velocity": 109,
      "chip": "ym2612"
    },
    {
      "channel": 3,
      "note": 64,
      "start": 43.736,
      "duration": 0.0655,
      "velocity": 109,
      "chip": "ym2612"
    },
    {
      "channel": 4,
      "note": 81,
      "start": 43.7366,
      "duration": 0.1493,
      "velocity": 109,
      "chip": "ym2612"
    },
    {
      "channel": 5,
      "note": 69,
      "start": 43.7371,
      "duration": 0.065,
      "velocity": 127,
      "chip": "ym2612"
    },
    {
      "channel": 2,
      "note": 72,
      "start": 43.8012,
      "duration": 0.0837,
      "velocity": 109,
      "chip": "ym2612"
    },
    {
      "channel": 3,
      "note": 69,
      "start": 43.8017,
      "duration": 0.0837,
      "velocity": 109,
      "chip": "ym2612"
    },
    {
      "channel": 5,
      "note": 90,
      "start": 43.8024,
      "duration": 0.1675,
      "velocity": 127,
      "chip": "ym2612"
    },
    {
      "channel": 1,
      "note": 64,
      "start": 43.8844,
      "duration": 0.0831,
      "velocity": 108,
      "chip": "ym2612"
    },
    {
      "channel": 2,
      "note": 64,
      "start": 43.8849,
      "duration": 0.0832,
      "velocity": 109,
      "chip": "ym2612"
    },
    {
      "channel": 3,
      "note": 71,
      "start": 43.8855,
      "duration": 0.0832,
      "velocity": 109,
      "chip": "ym2612"
    },
    {
      "channel": 4,
      "note": 76,
      "start": 43.8861,
      "duration": 0.0831,
      "velocity": 109,
      "chip": "ym2612"
    },
    {
      "channel": 1,
      "note": 66,
      "start": 43.9678,
      "duration": 0.2331,
      "velocity": 108,
      "chip": "ym2612"
    },
    {
      "channel": 2,
      "note": 69,
      "start": 43.9683,
      "duration": 0.0832,
      "velocity": 109,
      "chip": "ym2612"
    },
    {
      "channel": 3,
      "note": 72,
      "start": 43.9688,
      "duration": 0.0833,
      "velocity": 109,
      "chip": "ym2612"
    },
    {
      "channel": 4,
      "note": 78,
      "start": 43.9694,
      "duration": 0.2331,
      "velocity": 109,
      "chip": "ym2612"
    },
    {
      "channel": 5,
      "note": 90,
      "start": 43.97,
      "duration": 0.0828,
      "velocity": 127,
      "chip": "ym2612"
    },
    {
      "channel": 0,
      "note": 62,
      "start": 44.0511,
      "duration": 0.3164,
      "velocity": 102,
      "chip": "ym2612"
    },
    {
      "channel": 2,
      "note": 71,
      "start": 44.0517,
      "duration": 0.0826,
      "velocity": 109,
      "chip": "ym2612"
    },
    {
      "channel": 3,
      "note": 64,
      "start": 44.0522,
      "duration": 0.0826,
      "velocity": 109,
      "chip": "ym2612"
    },
    {
      "channel": 5,
      "note": 69,
      "start": 44.0529,
      "duration": 0.0826,
      "velocity": 127,
      "chip": "ym2612"
    },
    {
      "channel": 2,
      "note": 72,
      "start": 44.1345,
      "duration": 0.067,
      "velocity": 109,
      "chip": "ym2612"
    },
    {
      "channel": 3,
      "note": 69,
      "start": 44.1351,
      "duration": 0.067,
      "velocity": 109,
      "chip": "ym2612"
    },
    {
      "channel": 5,
      "note": 90,
      "start": 44.1357,
      "duration": 0.1498,
      "velocity": 127,
      "chip": "ym2612"
    },
    {
      "channel": 1,
      "note": 62,
      "start": 44.2011,
      "duration": 0.3331,
      "velocity": 108,
      "chip": "ym2612"
    },
    {
      "channel": 2,
      "note": 64,
      "start": 44.2016,
      "duration": 0.0827,
      "velocity": 109,
      "chip": "ym2612"
    },
    {
      "channel": 3,
      "note": 71,
      "start": 44.2022,
      "duration": 0.0827,
      "velocity": 109,
      "chip": "ym2612"
    },
    {
      "channel": 4,
      "note": 74,
      "start": 44.2027,
      "duration": 0.3331,
      "velocity": 109,
      "chip": "ym2612"
    },
    {
      "channel": 2,
      "note": 69,
      "start": 44.2845,
      "duration": 0.0837,
      "velocity": 109,
      "chip": "ym2612"
    },
    {
      "channel": 3,
      "note": 72,
      "start": 44.285,
      "duration": 0.0837,
      "velocity": 109,
      "chip": "ym2612"
    },
    {
      "channel": 5,
      "note": 90,
      "start": 44.2856,
      "duration": 0.0837,
      "velocity": 127,
      "chip": "ym2612"
    },
    {
      "channel": 0,
      "note": 64,
      "start": 44.3677,
      "duration": 0.3165,
      "velocity": 102,
      "chip": "ym2612"
    },
    {
      "channel": 2,
      "note": 71,
      "start": 44.3683,
      "duration": 0.0826,
      "velocity": 109,
      "chip": "ym2612"
    },
    {
      "channel": 3,
      "note": 64,
      "start": 44.3689,
      "duration": 0.0826,
      "velocity": 109,
      "chip": "ym2612"
    },
    {
      "channel": 5,
      "note": 69,
      "start": 44.3695,
      "duration": 0.0826,
      "velocity": 127,
      "chip": "ym2612"
    },
    {
      "channel": 2,
      "note": 72,
      "start": 44.4512,
      "duration": 0.0837,
      "velocity": 109,
      "chip": "ym2612"
    },
    {
      "channel": 3,
      "note": 69,
      "start": 44.4517,
      "duration": 0.0836,
      "velocity": 109,
      "chip": "ym2612"
    },
    {
      "channel": 5,
      "note": 90,
      "start": 44.4524,
      "duration": 0.1498,
      "velocity": 127,
      "chip": "ym2612"
    },
    {
      "channel": 1,
      "note": 59,
      "start": 44.5344,
      "duration": 0.317,
      "velocity": 108,
      "chip": "ym2612"
    },
    {
      "channel": 2,
      "note": 64,
      "start": 44.5349,
      "duration": 0.066,
      "velocity": 109,
      "chip": "ym2612"
    },
    {
      "channel": 3,
      "note": 71,
      "start": 44.5355,
      "duration": 0.066,
      "velocity": 109,
      "chip": "ym2612"
    },
    {
      "channel": 4,
      "note": 71,
      "start": 44.5361,
      "duration": 0.317,
      "velocity": 109,
      "chip": "ym2612"
    },
    {
      "channel": 2,
      "note": 69,
      "start": 44.6012,
      "duration": 0.0837,
      "velocity": 109,
      "chip": "ym2612"
    },
    {
      "channel": 3,
      "note": 72,
      "start": 44.6017,
      "duration": 0.0837,
      "velocity": 109,
      "chip": "ym2612"
    },
    {
      "channel": 5,
      "note": 90,
      "start": 44.6023,
      "duration": 0.0837,
      "velocity": 127,
      "chip": "ym2612"
    },
    {
      "channel": 0,
      "note": 50,
      "start": 44.6844,
      "duration": 0.1665,
      "velocity": 102,
      "chip": "ym2612"
    },
    {
      "channel": 2,
      "note": 71,
      "start": 44.685,
      "duration": 0.0826,
      "velocity": 109,
      "chip": "ym2612"
    },
    {
      "channel": 3,
      "note": 64,
      "start": 44.6856,
      "duration": 0.0826,
      "velocity": 109,
      "chip": "ym2612"
    },
    {
      "channel": 5,
      "note": 69,
      "start": 44.6862,
      "duration": 0.0826,
      "velocity": 127,
      "chip": "ym2612"
    },
    {
      "channel": 2,
      "note": 72,
      "start": 44.7678,
      "duration": 0.0841,
      "velocity": 109,
      "chip": "ym2612"
    },
    {
      "channel": 3,
      "note": 69,
      "start": 44.7684,
      "duration": 0.0841,
      "velocity": 109,
      "chip": "ym2612"
    },
    {
      "channel": 5,
      "note": 90,
      "start": 44.769,
      "duration": 0.1665,
      "velocity": 127,
      "chip": "ym2612"
    },
    {
      "channel": 0,
      "note": 52,
      "start": 44.851,
      "duration": 0.3165,
      "velocity": 102,
      "chip": "ym2612"
    },
    {
      "channel": 1,
      "note": 64,
      "start": 44.8516,
      "duration": 0.4826,
      "velocity": 108,
      "chip": "ym2612"
    },
    {
      "channel": 2,
      "note": 64,
      "start": 44.8521,
      "duration": 0.0822,
      "velocity": 109,
      "chip": "ym2612"
    },
    {
      "channel": 3,
      "note": 71,
      "start": 44.8527,
      "duration": 0.0822,
      "velocity": 109,
      "chip": "ym2612"
    },
    {
      "channel": 4,
      "note": 76,
      "start": 44.8532,
      "duration": 0.4826,
      "velocity": 109,
      "chip": "ym2612"
    },
    {
      "channel": 2,
      "note": 67,
      "start": 44.9345,
      "duration": 0.0663,
      "velocity": 109,
      "chip": "ym2612"
    },
    {
      "channel": 3,
      "note": 72,
      "start": 44.9351,
      "duration": 0.0663,
      "velocity": 109,
      "chip": "ym2612"
    },
    {
      "channel": 5,
      "note": 90,
      "start": 44.9358,
      "duration": 0.0663,
      "velocity": 127,
      "chip": "ym2612"
    },
    {
      "channel": 2,
      "note": 69,
      "start": 45.0011,
      "duration": 0.0831,
      "velocity": 109,
      "chip": "ym2612"
    },
    {
      "channel": 3,
      "note": 64,
      "start": 45.0016,
      "duration": 0.0832,
      "velocity": 109,
      "chip": "ym2612"
    },
    {
      "channel": 5,
      "note": 69,
      "start": 45.0022,
      "duration": 0.0832,
      "velocity": 127,
      "chip": "ym2612"
    },
    {
      "channel": 2,
      "note": 71,
      "start": 45.0844,
      "duration": 0.0837,
      "velocity": 109,
      "chip": "ym2612"
    },
    {
      "channel": 3,
      "note": 67,
      "start": 45.085,
      "duration": 0.0837,
      "velocity": 109,
      "chip": "ym2612"
    },
    {
      "channel": 5,
      "note": 90,
      "start": 45.0856,
      "duration": 0.1665,
      "velocity": 127,
      "chip": "ym2612"
    },
    {
      "channel": 0,
      "note": 64,
      "start": 45.1676,
      "duration": 0.3166,
      "velocity": 102,
      "chip": "ym2612"
    },
    {
      "channel": 2,
      "note": 64,
      "start": 45.1683,
      "duration": 0.0827,
      "velocity": 109,
      "chip": "ym2612"
    },
    {
      "channel": 3,
      "note": 69,
      "start": 45.1688,
      "duration": 0.0827,
      "velocity": 109,
      "chip": "ym2612"
    },
    {
      "channel": 2,
      "note": 67,
      "start": 45.2512,
      "duration": 0.0837,
      "velocity": 109,
      "chip": "ym2612"
    },
    {
      "channel": 3,
      "note": 71,
      "start": 45.2517,
      "duration": 0.0837,
      "velocity": 109,
      "chip": "ym2612"
    },
    {
      "channel": 5,
      "note": 90,
      "start": 45.2524,
      "duration": 0.0841,
      "velocity": 127,
      "chip": "ym2612"
    },
    {
      "channel": 1,
      "note": 66,
      "start": 45.3344,
      "duration": 0.317,
      "velocity": 108,
      "chip": "ym2612"
    },
    {
      "channel": 2,
      "note": 69,
      "start": 45.3349,
      "duration": 0.066,
      "velocity": 109,
      "chip": "ym2612"
    },
    {
      "channel": 3,
      "note": 64,
      "start": 45.3355,
      "duration": 0.066,
      "velocity": 109,
      "chip": "ym2612"
    },
    {
      "channel": 4,
      "note": 78,
      "start": 45.3361,
      "duration": 0.317,
      "velocity": 109,
      "chip": "ym2612"
    },
    {
      "channel": 5,
      "note": 69,
      "start": 45.3366,
      "duration": 0.0655,
      "velocity": 127,
      "chip": "ym2612"
    },
    {
      "channel": 2,
      "note": 71,
      "start": 45.4012,
      "duration": 0.0837,
      "velocity": 109,
      "chip": "ym2612"
    },
    {
      "channel": 3,
      "note": 67,
      "start": 45.4017,
      "duration": 0.0837,
      "velocity": 109,
      "chip": "ym2612"
    },
    {
      "channel": 5,
      "note": 90,
      "start": 45.4023,
      "duration": 0.1665,
      "velocity": 127,
      "chip": "ym2612"
    },
    {
      "channel": 0,
      "note": 62,
      "start": 45.4844,
      "duration": 0.1665,
      "velocity": 102,
      "chip": "ym2612"
    },
    {
      "channel": 2,
      "note": 64,
      "start": 45.485,
      "duration": 0.0826,
      "velocity": 109,
      "chip": "ym2612"
    },
    {
      "channel": 3,
      "note": 69,
      "start": 45.4855,
      "duration": 0.0827,
      "velocity": 109,
      "chip": "ym2612"
    },
    {
      "channel": 2,
      "note": 67,
      "start": 45.5678,
      "duration": 0.0841,
      "velocity": 109,
      "chip": "ym2612"
    },
    {
      "channel": 3,
      "note": 71,
      "start": 45.5684,
      "duration": 0.0841,
      "velocity": 109,
      "chip": "ym2612"
    },
    {
      "channel": 5,
      "note": 90,
      "start": 45.569,
      "duration": 0.0846,
      "velocity": 127,
      "chip": "ym2612"
    },
    {
      "channel": 0,
      "note": 64,
      "start": 45.651,
      "duration": 0.1498,
      "velocity": 102,
      "chip": "ym2612"
    },
    {
      "channel": 1,
      "note": 67,
      "start": 45.6516,
      "duration": 0.3165,
      "velocity": 108,
      "chip": "ym2612"
    },
    {
      "channel": 2,
      "note": 69,
      "start": 45.6521,
      "duration": 0.0822,
      "velocity": 109,
      "chip": "ym2612"
    },
    {
      "channel": 3,
      "note": 64,
      "start": 45.6527,
      "duration": 0.0822,
      "velocity": 109,
      "chip": "ym2612"
    },
    {
      "channel": 4,
      "note": 79,
      "start": 45.6532,
      "duration": 0.3165,
      "velocity": 109,
      "chip": "ym2612"
    },
    {
      "channel": 5,
      "note": 69,
      "start": 45.6538,
      "duration": 0.0817,
      "velocity": 127,
      "chip": "ym2612"
    },
    {
      "channel": 2,
      "note": 71,
      "start": 45.7345,
      "duration": 0.0669,
      "velocity": 109,
      "chip": "ym2612"
    },
    {
      "channel": 3,
      "note": 67,
      "start": 45.7351,
      "duration": 0.0669,
      "velocity": 109,
      "chip": "ym2612"
    },
    {
      "channel": 5,
      "note": 90,
      "start": 45.7358,
      "duration": 0.1497,
      "velocity": 127,
      "chip": "ym2612"
    },
    {
      "channel": 0,
      "note": 50,
      "start": 45.801,
      "duration": 0.1665,
      "velocity": 102,
      "chip": "ym2612"
    },
    {
      "channel": 2,
      "note": 64,
      "start": 45.8017,
      "duration": 0.0826,
      "velocity": 109,
      "chip": "ym2612"
    },
    {
      "channel": 3,
      "note": 69,
      "start": 45.8022,
      "duration": 0.0827,
      "velocity": 109,
      "chip": "ym2612"
    },
    {
      "channel": 2,
      "note": 67,
      "start": 45.8845,
      "duration": 0.0841,
      "velocity": 109,
      "chip": "ym2612"
    },
    {
      "channel": 3,
      "note": 71,
      "start": 45.8851,
      "duration": 0.0841,
      "velocity": 109,
      "chip": "ym2612"
    },
    {
      "channel": 5,
      "note": 90,
      "start": 45.8857,
      "duration": 0.0846,
      "velocity": 127,
      "chip": "ym2612"
    },
    {
      "channel": 0,
      "note": 52,
      "start": 45.9677,
      "duration": 0.3165,
      "velocity": 102,
      "chip": "ym2612"
    },
    {
      "channel": 1,
      "note": 66,
      "start": 45.9683,
      "duration": 0.3165,
      "velocity": 108,
      "chip": "ym2612"
    },
    {
      "channel": 2,
      "note": 69,
      "start": 45.9688,
      "duration": 0.0822,
      "velocity": 109,
      "chip": "ym2612"
    },
    {
      "channel": 3,
      "note": 64,
      "start": 45.9693,
      "duration": 0.0822,
      "velocity": 109,
      "chip": "ym2612"
    },
    {
      "channel": 4,
      "note": 78,
      "start": 45.9699,
      "duration": 0.3165,
      "velocity": 109,
      "chip": "ym2612"
    },
    {
      "channel": 5,
      "note": 69,
      "start": 45.9705,
      "duration": 0.0817,
      "velocity": 127,
      "chip": "ym2612"
    },
    {
      "channel": 2,
      "note": 71,
      "start": 46.0512,
      "duration": 0.083,
      "velocity": 109,
      "chip": "ym2612"
    },
    {
      "channel": 3,
      "note": 67,
      "start": 46.0518,
      "duration": 0.083,
      "velocity": 109,
      "chip": "ym2612"
    },
    {
      "channel": 5,
      "note": 90,
      "start": 46.0524,
      "duration": 0.1497,
      "velocity": 127,
      "chip": "ym2612"
    },
    {
      "channel": 2,
      "note": 64,
      "start": 46.1344,
      "duration": 0.0665,
      "velocity": 109,
      "chip": "ym2612"
    },
    {
      "channel": 3,
      "note": 69,
      "start": 46.135,
      "duration": 0.0665,
      "velocity": 109,
      "chip": "ym2612"
    },
    {
      "channel": 2,
      "note": 66,
      "start": 46.2011,
      "duration": 0.0842,
      "velocity": 109,
      "chip": "ym2612"
    },
    {
      "channel": 3,
      "note": 71,
      "start": 46.2017,
      "duration": 0.0842,
      "velocity": 109,
      "chip": "ym2612"
    },
    {
      "channel": 5,
      "note": 90,
      "start": 46.2023,
      "duration": 0.0847,
      "velocity": 127,
      "chip": "ym2612"
    },
    {
      "channel": 0,
      "note": 64,
      "start": 46.2844,
      "duration": 0.3165,
      "velocity": 102,
      "chip": "ym2612"
    },
    {
      "channel": 1,
      "note": 66,
      "start": 46.2849,
      "duration": 0.166,
      "velocity": 108,
      "chip": "ym2612"
    },
    {
      "channel": 2,
      "note": 67,
      "start": 46.2854,
      "duration": 0.0822,
      "velocity": 109,
      "chip": "ym2612"
    },
    {
      "channel": 3,
      "note": 64,
      "start": 46.286,
      "duration": 0.0822,
      "velocity": 109,
      "chip": "ym2612"
    },
    {
      "channel": 4,
      "note": 78,
      "start": 46.2866,
      "duration": 0.166,
      "velocity": 109,
      "chip": "ym2612"
    },
    {
      "channel": 5,
      "note": 69,
      "start": 46.2871,
      "duration": 0.0817,
      "velocity": 127,
      "chip": "ym2612"
    },
    {
      "channel": 2,
      "note": 69,
      "start": 46.3678,
      "duration": 0.0837,
      "velocity": 109,
      "chip": "ym2612"
    },
    {
      "channel": 3,
      "note": 66,
      "start": 46.3684,
      "duration": 0.0837,
      "velocity": 109,
      "chip": "ym2612"
    },
    {
      "channel": 5,
      "note": 90,
      "start": 46.369,
      "duration": 0.1665,
      "velocity": 127,
      "chip": "ym2612"
    },
    {
      "channel": 1,
      "note": 67,
      "start": 46.4511,
      "duration": 0.1503,
      "velocity": 108,
      "chip": "ym2612"
    },
    {
      "channel": 2,
      "note": 64,
      "start": 46.4517,
      "duration": 0.0826,
      "velocity": 109,
      "chip": "ym2612"
    },
    {
      "channel": 3,
      "note": 67,
      "start": 46.4522,
      "duration": 0.0827,
      "velocity": 109,
      "chip": "ym2612"
    },
    {
      "channel": 4,
      "note": 79,
      "start": 46.4527,
      "duration": 0.1503,
      "velocity": 109,
      "chip": "ym2612"
    },
    {
      "channel": 2,
      "note": 66,
      "start": 46.5345,
      "duration": 0.0675,
      "velocity": 109,
      "chip": "ym2612"
    },
    {
      "channel": 3,
      "note": 69,
      "start": 46.5351,
      "duration": 0.0674,
      "velocity": 109,
      "chip": "ym2612"
    },
    {
      "channel": 5,
      "note": 90,
      "start": 46.5357,
      "duration": 0.0679,
      "velocity": 127,
      "chip": "ym2612"
    },
    {
      "channel": 0,
      "note": 62,
      "start": 46.601,
      "duration": 0.3332,
      "velocity": 102,
      "chip": "ym2612"
    },
    {
      "channel": 1,
      "note": 69,
      "start": 46.6016,
      "duration": 0.166,
      "velocity": 108,
      "chip": "ym2612"
    },
    {
      "channel": 2,
      "note": 67,
      "start": 46.6021,
      "duration": 0.0822,
      "velocity": 109,
      "chip": "ym2612"
    },
    {
      "channel": 3,
      "note": 64,
      "start": 46.6027,
      "duration": 0.0822,
      "velocity": 109,
      "chip": "ym2612"
    },
    {
      "channel": 4,
      "note": 81,
      "start": 46.6032,
      "duration": 0.166,
      "velocity": 109,
      "chip": "ym2612"
    },
    {
      "channel": 5,
      "note": 69,
      "start": 46.6038,
      "duration": 0.0817,
      "velocity": 127,
      "chip": "ym2612"
    },
    {
      "channel": 2,
      "note": 69,
      "start": 46.6845,
      "duration": 0.0837,
      "velocity": 109,
      "chip": "ym2612"
    },
    {
      "channel": 3,
      "note": 66,
      "start": 46.6851,
      "duration": 0.0837,
      "velocity": 109,
      "chip": "ym2612"
    },
    {
      "channel": 5,
      "note": 90,
      "start": 46.6857,
      "duration": 0.1665,
      "velocity": 127,
      "chip": "ym2612"
    },
    {
      "channel": 1,
      "note": 74,
      "start": 46.7678,
      "duration": 0.167,
      "velocity": 108,
      "chip": "ym2612"
    },
    {
      "channel": 2,
      "note": 64,
      "start": 46.7683,
      "duration": 0.0827,
      "velocity": 109,
      "chip": "ym2612"
    },
    {
      "channel": 3,
      "note": 67,
      "start": 46.7688,
      "duration": 0.0827,
      "velocity": 109,
      "chip": "ym2612"
    },
    {
      "channel": 4,
      "note": 86,
      "start": 46.7694,
      "duration": 0.167,
      "velocity": 109,
      "chip": "ym2612"
    },
    {
      "channel": 2,
      "note": 66,
      "start": 46.8512,
      "duration": 0.0841,
      "velocity": 109,
      "chip": "ym2612"
    },
    {
      "channel": 3,
      "note": 69,
      "start": 46.8517,
      "duration": 0.0841,
      "velocity": 109,
      "chip": "ym2612"
    },
    {
      "channel": 5,
      "note": 90,
      "start": 46.8524,
      "duration": 0.0846,
      "velocity": 127,
      "chip": "ym2612"
    },
    {
      "channel": 0,
      "note": 64,
      "start": 46.9344,
      "duration": 0.3165,
      "velocity": 102,
      "chip": "ym2612"
    },
    {
      "channel": 1,
      "note": 72,
      "start": 46.9349,
      "duration": 0.1493,
      "velocity": 108,
      "chip": "ym2612"
    },
    {
      "channel": 2,
      "note": 67,
      "start": 46.9354,
      "duration": 0.0655,
      "velocity": 109,
      "chip": "ym2612"
    },
    {
      "channel": 3,
      "note": 64,
      "start": 46.936,
      "duration": 0.0655,
      "velocity": 109,
      "chip": "ym2612"
    },
    {
      "channel": 4,
      "note": 84,
      "start": 46.9366,
      "duration": 0.1493,
      "velocity": 109,
      "chip": "ym2612"
    },
    {
      "channel": 5,
      "note": 69,
      "start": 46.9371,
      "duration": 0.065,
      "velocity": 127,
      "chip": "ym2612"
    },
    {
      "channel": 2,
      "note": 69,
      "start": 47.0012,
      "duration": 0.0837,
      "velocity": 109,
      "chip": "ym2612"
    },
    {
      "channel": 3,
      "note": 66,
      "start": 47.0017,
      "duration": 0.0837,
      "velocity": 109,
      "chip": "ym2612"
    },
    {
      "channel": 5,
      "note": 90,
      "start": 47.0024,
      "duration": 0.4833,
      "velocity": 127,
      "chip": "ym2612"
    },
    {
      "channel": 1,
      "note": 67,
      "start": 47.0844,
      "duration": 0.167,
      "velocity": 108,
      "chip": "ym2612"
    },
    {
      "channel": 2,
      "note": 64,
      "start": 47.0849,
      "duration": 0.0827,
      "velocity": 109,
      "chip": "ym2612"
    },
    {
      "channel": 3,
      "note": 67,
      "start": 47.0855,
      "duration": 0.0827,
      "velocity": 109,
      "chip": "ym2612"
    },
    {
      "channel": 4,
      "note": 79,
      "start": 47.0861,
      "duration": 0.167,
      "velocity": 109,
      "chip": "ym2612"
    },
    {
      "channel": 2,
      "note": 66,
      "start": 47.1678,
      "duration": 0.0841,
      "velocity": 109,
      "chip": "ym2612"
    },
    {
      "channel": 3,
      "note": 69,
      "start": 47.1684,
      "duration": 0.0841,
      "velocity": 109,
      "chip": "ym2612"
    },
    {
      "channel": 0,
      "note": 50,
      "start": 47.251,
      "duration": 0.1499,
      "velocity": 102,
      "chip": "ym2612"
    },
    {
      "channel": 1,
      "note": 62,
      "start": 47.2516,
      "duration": 0.15,
      "velocity": 108,
      "chip": "ym2612"
    },
    {
      "channel": 2,
      "note": 67,
      "start": 47.2521,
      "duration": 0.0822,
      "velocity": 109,
      "chip": "ym2612"
    },
    {
      "channel": 3,
      "note": 64,
      "start": 47.2527,
      "duration": 0.0822,
      "velocity": 109,
      "chip": "ym2612"
    },
    {
      "channel": 4,
      "note": 74,
      "start": 47.2532,
      "duration": 0.1502,
      "velocity": 109,
      "chip": "ym2612"
    },
    {
      "channel": 2,
      "note": 69,
      "start": 47.3345,
      "duration": 0.0677,
      "velocity": 109,
      "chip": "ym2612"
    },
    {
      "channel": 3,
      "note": 66,
      "start": 47.3351,
      "duration": 0.0677,
      "velocity": 109,
      "chip": "ym2612"
    },
    {
      "channel": 0,
      "note": 52,
      "start": 47.4012,
      "duration": 0.333,
      "velocity": 102,
      "chip": "ym2612"
    },
    {
      "channel": 1,
      "note": 60,
      "start": 47.4018,
      "duration": 0.4824,
      "velocity": 108,
      "chip": "ym2612"
    },
    {
      "channel": 2,
      "note": 64,
      "start": 47.4024,
      "duration": 0.082,
      "velocity": 109,
      "chip": "ym2612"
    },
    {
      "channel": 3,
      "note": 67,
      "start": 47.403,
      "duration": 0.0819,
      "velocity": 109,
      "chip": "ym2612"
    },
    {
      "channel": 4,
      "note": 72,
      "start": 47.4036,
      "duration": 0.4822,
      "velocity": 109,
      "chip": "ym2612"
    },
    {
      "channel": 2,
      "note": 69,
      "start": 47.4845,
      "duration": 0.083,
      "velocity": 109,
      "chip": "ym2612"
    },
    {
      "channel": 3,
      "note": 69,
      "start": 47.4851,
      "duration": 0.083,
      "velocity": 109,
      "chip": "ym2612"
    },
    {
      "channel": 5,
      "note": 90,
      "start": 47.4858,
      "duration": 0.0829,
      "velocity": 127,
      "chip": "ym2612"
    },
    {
      "channel": 2,
      "note": 71,
      "start": 47.5678,
      "duration": 0.0831,
      "velocity": 109,
      "chip": "ym2612"
    },
    {
      "channel": 3,
      "note": 64,
      "start": 47.5683,
      "duration": 0.0832,
      "velocity": 109,
      "chip": "ym2612"
    },
    {
      "channel": 5,
      "note": 69,
      "start": 47.569,
      "duration": 0.0832,
      "velocity": 127,
      "chip": "ym2612"
    },
    {
      "channel": 2,
      "note": 74,
      "start": 47.6511,
      "duration": 0.0837,
      "velocity": 109,
      "chip": "ym2612"
    },
    {
      "channel": 3,
      "note": 69,
      "start": 47.6517,
      "duration": 0.0837,
      "velocity": 109,
      "chip": "ym2612"
    },
    {
      "channel": 5,
      "note": 90,
      "start": 47.6523,
      "duration": 0.1499,
      "velocity": 127,
      "chip": "ym2612"
    },
    {
      "channel": 0,
      "note": 64,
      "start": 47.7344,
      "duration": 0.3165,
      "velocity": 102,
      "chip": "ym2612"
    },
    {
      "channel": 2,
      "note": 64,
      "start": 47.735,
      "duration": 0.066,
      "velocity": 109,
      "chip": "ym2612"
    },
    {
      "channel": 3,
      "note": 71,
      "start": 47.7355,
      "duration": 0.066,
      "velocity": 109,
      "chip": "ym2612"
    },
    {
      "channel": 2,
      "note": 69,
      "start": 47.8012,
      "duration": 0.0837,
      "velocity": 109,
      "chip": "ym2612"
    },
    {
      "channel": 3,
      "note": 74,
      "start": 47.8017,
      "duration": 0.0837,
      "velocity": 109,
      "chip": "ym2612"
    },
    {
      "channel": 5,
      "note": 90,
      "start": 47.8024,
      "duration": 0.0841,
      "velocity": 127,
      "chip": "ym2612"
    },
    {
      "channel": 1,
      "note": 67,
      "start": 47.8844,
      "duration": 0.317,
      "velocity": 108,
      "chip": "ym2612"
    },
    {
      "channel": 2,
      "note": 71,
      "start": 47.885,
      "duration": 0.0826,
      "velocity": 109,
      "chip": "ym2612"
    },
    {
      "channel": 3,
      "note": 64,
      "start": 47.8855,
      "duration": 0.0827,
      "velocity": 109,
      "chip": "ym2612"
    },
    {
      "channel": 4,
      "note": 79,
      "start": 47.8861,
      "duration": 0.317,
      "velocity": 109,
      "chip": "ym2612"
    },
    {
      "channel": 5,
      "note": 69,
      "start": 47.8866,
      "duration": 0.0822,
      "velocity": 127,
      "chip": "ym2612"
    },
    {
      "channel": 2,
      "note": 74,
      "start": 47.9678,
      "duration": 0.0836,
      "velocity": 109,
      "chip": "ym2612"
    },
    {
      "channel": 3,
      "note": 69,
      "start": 47.9684,
      "duration": 0.0836,
      "velocity": 109,
      "chip": "ym2612"
    },
    {
      "channel": 5,
      "note": 90,
      "start": 47.969,
      "duration": 0.1664,
      "velocity": 127,
      "chip": "ym2612"
    },
    {
      "channel": 0,
      "note": 62,
      "start": 48.051,
      "duration": 0.1499,
      "velocity": 102,
      "chip": "ym2612"
    },
    {
      "channel": 2,
      "note": 64,
      "start": 48.0516,
      "duration": 0.0827,
      "velocity": 109,
      "chip": "ym2612"
    },
    {
      "channel": 3,
      "note": 71,
      "start": 48.0522,
      "duration": 0.0827,
      "velocity": 109,
      "chip": "ym2612"
    },
    {
      "channel": 2,
      "note": 69,
      "start": 48.1344,
      "duration": 0.0676,
      "velocity": 109,
      "chip": "ym2612"
    },
    {
      "channel": 3,
      "note": 74,
      "start": 48.135,
      "duration": 0.0676,
      "velocity": 109,
      "chip": "ym2612"
    },
    {
      "channel": 5,
      "note": 90,
      "start": 48.1356,
      "duration": 0.0681,
      "velocity": 127,
      "chip": "ym2612"
    },
    {
      "channel": 0,
      "note": 64,
      "start": 48.201,
      "duration": 0.1665,
      "velocity": 102,
      "chip": "ym2612"
    },
    {
      "channel": 1,
      "note": 66,
      "start": 48.2016,
      "duration": 0.3332,
      "velocity": 108,
      "chip": "ym2612"
    },
    {
      "channel": 2,
      "note": 71,
      "start": 48.2022,
      "duration": 0.0821,
      "velocity": 109,
      "chip": "ym2612"
    },
    {
      "channel": 3,
      "note": 64,
      "start": 48.2027,
      "duration": 0.0822,
      "velocity": 109,
      "chip": "ym2612"
    },
    {
      "channel": 4,
      "note": 78,
      "start": 48.2032,
      "duration": 0.3332,
      "velocity": 109,
      "chip": "ym2612"
    },
    {
      "channel": 5,
      "note": 69,
      "start": 48.2038,
      "duration": 0.0817,
      "velocity": 127,
      "chip": "ym2612"
    },
    {
      "channel": 2,
      "note": 74,
      "start": 48.2845,
      "duration": 0.0836,
      "velocity": 109,
      "chip": "ym2612"
    },
    {
      "channel": 3,
      "note": 69,
      "start": 48.2851,
      "duration": 0.0836,
      "velocity": 109,
      "chip": "ym2612"
    },
    {
      "channel": 5,
      "note": 90,
      "start": 48.2857,
      "duration": 0.1664,
      "velocity": 127,
      "chip": "ym2612"
    },
    {
      "channel": 0,
      "note": 50,
      "start": 48.3677,
      "duration": 0.1665,
      "velocity": 102,
      "chip": "ym2612"
    },
    {
      "channel": 2,
      "note": 64,
      "start": 48.3683,
      "duration": 0.0827,
      "velocity": 109,
      "chip": "ym2612"
    },
    {
      "channel": 3,
      "note": 71,
      "start": 48.3688,
      "duration": 0.0827,
      "velocity": 109,
      "chip": "ym2612"
    },
    {
      "channel": 2,
      "note": 69,
      "start": 48.4511,
      "duration": 0.0842,
      "velocity": 109,
      "chip": "ym2612"
    },
    {
      "channel": 3,
      "note": 74,
      "start": 48.4517,
      "duration": 0.0842,
      "velocity": 109,
      "chip": "ym2612"
    },
    {
      "channel": 5,
      "note": 90,
      "start": 48.4523,
      "duration": 0.0847,
      "velocity": 127,
      "chip": "ym2612"
    },
    {
      "channel": 0,
      "note": 52,
      "start": 48.5344,
      "duration": 0.3165,
      "velocity": 102,
      "chip": "ym2612"
    },
    {
      "channel": 1,
      "note": 62,
      "start": 48.5349,
      "duration": 0.6332,
      "velocity": 108,
      "chip": "ym2612"
    },
    {
      "channel": 2,
      "note": 71,
      "start": 48.5355,
      "duration": 0.0655,
      "velocity": 109,
      "chip": "ym2612"
    },
    {
      "channel": 3,
      "note": 64,
      "start": 48.536,
      "duration": 0.0655,
      "velocity": 109,
      "chip": "ym2612"
    },
    {
      "channel": 4,
      "note": 74,
      "start": 48.5366,
      "duration": 0.6332,
      "velocity": 109,
      "chip": "ym2612"
    },
    {
      "channel": 5,
      "note": 69,
      "start": 48.5371,
      "duration": 0.065,
      "velocity": 127,
      "chip": "ym2612"
    },
    {
      "channel": 2,
      "note": 74,
      "start": 48.6012,
      "duration": 0.0831,
      "velocity": 109,
      "chip": "ym2612"
    },
    {
      "channel": 3,
      "note": 69,
      "start": 48.6017,
      "duration": 0.0831,
      "velocity": 109,
      "chip": "ym2612"
    },
    {
      "channel": 5,
      "note": 90,
      "start": 48.6024,
      "duration": 0.1664,
      "velocity": 127,
      "chip": "ym2612"
    },
    {
      "channel": 2,
      "note": 64,
      "start": 48.6844,
      "duration": 0.0831,
      "velocity": 109,
      "chip": "ym2612"
    },
    {
      "channel": 3,
      "note": 71,
      "start": 48.6849,
      "duration": 0.0832,
      "velocity": 109,
      "chip": "ym2612"
    },
    {
      "channel": 2,
      "note": 69,
      "start": 48.7678,
      "duration": 0.0837,
      "velocity": 109,
      "chip": "ym2612"
    },
    {
      "channel": 3,
      "note": 74,
      "start": 48.7683,
      "duration": 0.0837,
      "velocity": 109,
      "chip": "ym2612"
    },
    {
      "channel": 5,
      "note": 90,
      "start": 48.769,
      "duration": 0.0837,
      "velocity": 127,
      "chip": "ym2612"
    },
    {
      "channel": 0,
      "note": 64,
      "start": 48.851,
      "duration": 0.3165,
      "velocity": 102,
      "chip": "ym2612"
    },
    {
      "channel": 2,
      "note": 71,
      "start": 48.8516,
      "duration": 0.0827,
      "velocity": 109,
      "chip": "ym2612"
    },
    {
      "channel": 3,
      "note": 64,
      "start": 48.8522,
      "duration": 0.0827,
      "velocity": 109,
      "chip": "ym2612"
    },
    {
      "channel": 5,
      "note": 69,
      "start": 48.8528,
      "duration": 0.0826,
      "velocity": 127,
      "chip": "ym2612"
    },
    {
      "channel": 2,
      "note": 72,
      "start": 48.9344,
      "duration": 0.0665,
      "velocity": 109,
      "chip": "ym2612"
    },
    {
      "channel": 3,
      "note": 69,
      "start": 48.935,
      "duration": 0.0665,
      "velocity": 109,
      "chip": "ym2612"
    },
    {
      "channel": 5,
      "note": 90,
      "start": 48.9356,
      "duration": 0.1498,
      "velocity": 127,
      "chip": "ym2612"
    },
    {
      "channel": 2,
      "note": 64,
      "start": 49.0011,
      "duration": 0.0831,
      "velocity": 109,
      "chip": "ym2612"
    },
    {
      "channel": 3,
      "note": 71,
      "start": 49.0017,
      "duration": 0.0832,
      "velocity": 109,
      "chip": "ym2612"
    },
    {
      "channel": 2,
      "note": 69,
      "start": 49.0844,
      "duration": 0.0842,
      "velocity": 109,
      "chip": "ym2612"
    },
    {
      "channel": 3,
      "note": 72,
      "start": 49.0849,
      "duration": 0.0843,
      "velocity": 109,
      "chip": "ym2612"
    },
    {
      "channel": 5,
      "note": 90,
      "start": 49.0856,
      "duration": 0.0848,
      "velocity": 127,
      "chip": "ym2612"
    },
    {
      "channel": 0,
      "note": 62,
      "start": 49.1677,
      "duration": 0.3165,
      "velocity": 102,
      "chip": "ym2612"
    },
    {
      "channel": 1,
      "note": 62,
      "start": 49.1683,
      "duration": 0.166,
      "velocity": 108,
      "chip": "ym2612"
    },
    {
      "channel": 2,
      "note": 71,
      "start": 49.1688,
      "duration": 0.0821,
      "velocity": 109,
      "chip": "ym2612"
    },
    {
      "channel": 3,
      "note": 64,
      "start": 49.1693,
      "duration": 0.0822,
      "velocity": 109,
      "chip": "ym2612"
    },
    {
      "channel": 4,
      "note": 74,
      "start": 49.1699,
      "duration": 0.166,
      "velocity": 109,
      "chip": "ym2612"
    },
    {
      "channel": 5,
      "note": 69,
      "start": 49.1705,
      "duration": 0.0817,
      "velocity": 127,
      "chip": "ym2612"
    },
    {
      "channel": 2,
      "note": 72,
      "start": 49.2512,
      "duration": 0.0837,
      "velocity": 109,
      "chip": "ym2612"
    },
    {
      "channel": 3,
      "note": 69,
      "start": 49.2517,
      "duration": 0.0837,
      "velocity": 109,
      "chip": "ym2612"
    },
    {
      "channel": 5,
      "note": 90,
      "start": 49.2524,
      "duration": 0.1508,
      "velocity": 127,
      "chip": "ym2612"
    },
    {
      "channel": 1,
      "note": 67,
      "start": 49.3344,
      "duration": 0.0665,
      "velocity": 108,
      "chip": "ym2612"
    },
    {
      "channel": 2,
      "note": 64,
      "start": 49.3349,
      "duration": 0.0666,
      "velocity": 109,
      "chip": "ym2612"
    },
    {
      "channel": 3,
      "note": 71,
      "start": 49.3355,
      "duration": 0.0666,
      "velocity": 109,
      "chip": "ym2612"
    },
    {
      "channel": 4,
      "note": 79,
      "start": 49.3361,
      "duration": 0.0665,
      "velocity": 109,
      "chip": "ym2612"
    },
    {
      "channel": 1,
      "note": 69,
      "start": 49.4011,
      "duration": 0.2498,
      "velocity": 108,
      "chip": "ym2612"
    },
    {
      "channel": 2,
      "note": 69,
      "start": 49.4016,
      "duration": 0.0832,
      "velocity": 109,
      "chip": "ym2612"
    },
    {
      "channel": 3,
      "note": 72,
      "start": 49.4022,
      "duration": 0.0832,
      "velocity": 109,
      "chip": "ym2612"
    },
    {
      "channel": 4,
      "note": 81,
      "start": 49.4027,
      "duration": 0.2498,
      "velocity": 109,
      "chip": "ym2612"
    },
    {
      "channel": 5,
      "note": 90,
      "start": 49.4033,
      "duration": 0.0827,
      "velocity": 127,
      "chip": "ym2612"
    },
    {
      "channel": 0,
      "note": 64,
      "start": 49.4844,
      "duration": 0.3165,
      "velocity": 102,
      "chip": "ym2612"
    },
    {
      "channel": 2,
      "note": 71,
      "start": 49.485,
      "duration": 0.0826,
      "velocity": 109,
      "chip": "ym2612"
    },
    {
      "channel": 3,
      "note": 64,
      "start": 49.4856,
      "duration": 0.0826,
      "velocity": 109,
      "chip": "ym2612"
    },
    {
      "channel": 5,
      "note": 69,
      "start": 49.4862,
      "duration": 0.0826,
      "velocity": 127,
      "chip": "ym2612"
    },
    {
      "channel": 2,
      "note": 72,
      "start": 49.5678,
      "duration": 0.0837,
      "velocity": 109,
      "chip": "ym2612"
    },
    {
      "channel": 3,
      "note": 69,
      "start": 49.5683,
      "duration": 0.0837,
      "velocity": 109,
      "chip": "ym2612"
    },
    {
      "channel": 5,
      "note": 90,
      "start": 49.569,
      "duration": 0.1665,
      "velocity": 127,
      "chip": "ym2612"
    },
    {
      "channel": 1,
      "note": 67,
      "start": 49.6511,
      "duration": 0.317,
      "velocity": 108,
      "chip": "ym2612"
    },
    {
      "channel": 2,
      "note": 64,
      "start": 49.6516,
      "duration": 0.0827,
      "velocity": 109,
      "chip": "ym2612"
    },
    {
      "channel": 3,
      "note": 71,
      "start": 49.6522,
      "duration": 0.0827,
      "velocity": 109,
      "chip": "ym2612"
    },
    {
      "channel": 4,
      "note": 79,
      "start": 49.6527,
      "duration": 0.317,
      "velocity": 109,
      "chip": "ym2612"
    },
    {
      "channel": 2,
      "note": 69,
      "start": 49.7345,
      "duration": 0.0669,
      "velocity": 109,
      "chip": "ym2612"
    },
    {
      "channel": 3,
      "note": 72,
      "start": 49.7351,
      "duration": 0.0669,
      "velocity": 109,
      "chip": "ym2612"
    },
    {
      "channel": 5,
      "note": 90,
      "start": 49.7357,
      "duration": 0.0669,
      "velocity": 127,
      "chip": "ym2612"
    },
    {
      "channel": 0,
      "note": 50,
      "start": 49.801,
      "duration": 0.1665,
      "velocity": 102,
      "chip": "ym2612"
    },
    {
      "channel": 2,
      "note": 71,
      "start": 49.8016,
      "duration": 0.0827,
      "velocity": 109,
      "chip": "ym2612"
    },
    {
      "channel": 3,
      "note": 64,
      "start": 49.8022,
      "duration": 0.0827,
      "velocity": 109,
      "chip": "ym2612"
    },
    {
      "channel": 5,
      "note": 69,
      "start": 49.8028,
      "duration": 0.0826,
      "velocity": 127,
      "chip": "ym2612"
    },
    {
      "channel": 2,
      "note": 72,
      "start": 49.8844,
      "duration": 0.0842,
      "velocity": 109,
      "chip": "ym2612"
    },
    {
      "channel": 3,
      "note": 69,
      "start": 49.885,
      "duration": 0.0842,
      "velocity": 109,
      "chip": "ym2612"
    },
    {
      "channel": 5,
      "note": 90,
      "start": 49.8856,
      "duration": 0.1665,
      "velocity": 127,
      "chip": "ym2612"
    },
    {
      "channel": 0,
      "note": 52,
      "start": 49.9677,
      "duration": 0.3165,
      "velocity": 102,
      "chip": "ym2612"
    },
    {
      "channel": 1,
      "note": 71,
      "start": 49.9683,
      "duration": 2.5683,
      "velocity": 108,
      "chip": "ym2612"
    },
    {
      "channel": 2,
      "note": 64,
      "start": 49.9688,
      "duration": 0.0822,
      "velocity": 109,
      "chip": "ym2612"
    },
    {
      "channel": 3,
      "note": 71,
      "start": 49.9693,
      "duration": 0.0822,
      "velocity": 109,
      "chip": "ym2612"
    },
    {
      "channel": 4,
      "note": 83,
      "start": 49.9699,
      "duration": 2.57,
      "velocity": 109,
      "chip": "ym2612"
    },
    {
      "channel": 2,
      "note": 67,
      "start": 50.0512,
      "duration": 0.0831,
      "velocity": 109,
      "chip": "ym2612"
    },
    {
      "channel": 3,
      "note": 72,
      "start": 50.0517,
      "duration": 0.0831,
      "velocity": 109,
      "chip": "ym2612"
    },
    {
      "channel": 5,
      "note": 90,
      "start": 50.0524,
      "duration": 0.0831,
      "velocity": 127,
      "chip": "ym2612"
    },
    {
      "channel": 2,
      "note": 69,
      "start": 50.1344,
      "duration": 0.0665,
      "velocity": 109,
      "chip": "ym2612"
    },
    {
      "channel": 3,
      "note": 64,
      "start": 50.135,
      "duration": 0.0665,
      "velocity": 109,
      "chip": "ym2612"
    },
    {
      "channel": 5,
      "note": 69,
      "start": 50.1356,
      "duration": 0.0665,
      "velocity": 127,
      "chip": "ym2612"
    },
    {
      "channel": 2,
      "note": 71,
      "start": 50.2011,
      "duration": 0.0837,
      "velocity": 109,
      "chip": "ym2612"
    },
    {
      "channel": 3,
      "note": 67,
      "start": 50.2016,
      "duration": 0.0838,
      "velocity": 109,
      "chip": "ym2612"
    },
    {
      "channel": 5,
      "note": 90,
      "start": 50.2022,
      "duration": 0.1666,
      "velocity": 127,
      "chip": "ym2612"
    },
    {
      "channel": 0,
      "note": 64,
      "start": 50.2844,
      "duration": 0.3165,
      "velocity": 102,
      "chip": "ym2612"
    },
    {
      "channel": 2,
      "note": 64,
      "start": 50.285,
      "duration": 0.0826,
      "velocity": 109,
      "chip": "ym2612"
    },
    {
      "channel": 3,
      "note": 69,
      "start": 50.2855,
      "duration": 0.0827,
      "velocity": 109,
      "chip": "ym2612"
    },
    {
      "channel": 2,
      "note": 67,
      "start": 50.3678,
      "duration": 0.0831,
      "velocity": 109,
      "chip": "ym2612"
    },
    {
      "channel": 3,
      "note": 71,
      "start": 50.3684,
      "duration": 0.0831,
      "velocity": 109,
      "chip": "ym2612"
    },
    {
      "channel": 5,
      "note": 90,
      "start": 50.369,
      "duration": 0.0831,
      "velocity": 127,
      "chip": "ym2612"
    },
    {
      "channel": 2,
      "note": 69,
      "start": 50.4511,
      "duration": 0.0831,
      "velocity": 109,
      "chip": "ym2612"
    },
    {
      "channel": 3,
      "note": 64,
      "start": 50.4516,
      "duration": 0.0832,
      "velocity": 109,
      "chip": "ym2612"
    },
    {
      "channel": 5,
      "note": 69,
      "start": 50.4522,
      "duration": 0.0832,
      "velocity": 127,
      "chip": "ym2612"
    },
    {
      "channel": 2,
      "note": 71,
      "start": 50.5344,
      "duration": 0.0687,
      "velocity": 109,
      "chip": "ym2612"
    },
    {
      "channel": 3,
      "note": 67,
      "start": 50.535,
      "duration": 0.0686,
      "velocity": 109,
      "chip": "ym2612"
    },
    {
      "channel": 5,
      "note": 90,
      "start": 50.5356,
      "duration": 0.1499,
      "velocity": 127,
      "chip": "ym2612"
    },
    {
      "channel": 0,
      "note": 62,
      "start": 50.601,
      "duration": 0.1665,
      "velocity": 102,
      "chip": "ym2612"
    },
    {
      "channel": 2,
      "note": 64,
      "start": 50.6032,
      "duration": 0.0811,
      "velocity": 109,
      "chip": "ym2612"
    },
    {
      "channel": 3,
      "note": 69,
      "start": 50.6038,
      "duration": 0.0811,
      "velocity": 109,
      "chip": "ym2612"
    },
    {
      "channel": 2,
      "note": 67,
      "start": 50.6845,
      "duration": 0.0836,
      "velocity": 109,
      "chip": "ym2612"
    },
    {
      "channel": 3,
      "note": 71,
      "start": 50.6851,
      "duration": 0.0836,
      "velocity": 109,
      "chip": "ym2612"
    },
    {
      "channel": 5,
      "note": 90,
      "start": 50.6858,
      "duration": 0.0836,
      "velocity": 127,
      "chip": "ym2612"
    },
    {
      "channel": 0,
      "note": 64,
      "start": 50.7677,
      "duration": 0.1665,
      "velocity": 102,
      "chip": "ym2612"
    },
    {
      "channel": 2,
      "note": 69,
      "start": 50.7683,
      "duration": 0.0826,
      "velocity": 109,
      "chip": "ym2612"
    },
    {
      "channel": 3,
      "note": 64,
      "start": 50.7689,
      "duration": 0.0826,
      "velocity": 109,
      "chip": "ym2612"
    },
    {
      "channel": 5,
      "note": 69,
      "start": 50.7695,
      "duration": 0.0826,
      "velocity": 127,
      "chip": "ym2612"
    },
    {
      "channel": 2,
      "note": 71,
      "start": 50.8512,
      "duration": 0.0837,
      "velocity": 109,
      "chip": "ym2612"
    },
    {
      "channel": 3,
      "note": 67,
      "start": 50.8517,
      "duration": 0.0837,
      "velocity": 109,
      "chip": "ym2612"
    },
    {
      "channel": 5,
      "note": 90,
      "start": 50.8524,
      "duration": 0.1498,
      "velocity": 127,
      "chip": "ym2612"
    },
    {
      "channel": 0,
      "note": 50,
      "start": 50.9344,
      "duration": 0.1498,
      "velocity": 102,
      "chip": "ym2612"
    },
    {
      "channel": 2,
      "note": 64,
      "start": 50.935,
      "duration": 0.066,
      "velocity": 109,
      "chip": "ym2612"
    },
    {
      "channel": 3,
      "note": 69,
      "start": 50.9355,
      "duration": 0.066,
      "velocity": 109,
      "chip": "ym2612"
    },
    {
      "channel": 2,
      "note": 67,
      "start": 51.0012,
      "duration": 0.0837,
      "velocity": 109,
      "chip": "ym2612"
    },
    {
      "channel": 3,
      "note": 71,
      "start": 51.0017,
      "duration": 0.0837,
      "velocity": 109,
      "chip": "ym2612"
    },
    {
      "channel": 5,
      "note": 90,
      "start": 51.0024,
      "duration": 0.0837,
      "velocity": 127,
      "chip": "ym2612"
    },
    {
      "channel": 0,
      "note": 52,
      "start": 51.0844,
      "duration": 0.3165,
      "velocity": 102,
      "chip": "ym2612"
    },
    {
      "channel": 2,
      "note": 69,
      "start": 51.085,
      "duration": 0.0826,
      "velocity": 109,
      "chip": "ym2612"
    },
    {
      "channel": 3,
      "note": 64,
      "start": 51.0856,
      "duration": 0.0826,
      "velocity": 109,
      "chip": "ym2612"
    },
    {
      "channel": 5,
      "note": 69,
      "start": 51.0862,
      "duration": 0.0826,
      "velocity": 127,
      "chip": "ym2612"
    },
    {
      "channel": 2,
      "note": 71,
      "start": 51.1678,
      "duration": 0.0848,
      "velocity": 109,
      "chip": "ym2612"
    },
    {
      "channel": 3,
      "note": 67,
      "start": 51.1684,
      "duration": 0.0848,
      "velocity": 109,
      "chip": "ym2612"
    },
    {
      "channel": 5,
      "note": 90,
      "start": 51.169,
      "duration": 0.1665,
      "velocity": 127,
      "chip": "ym2612"
    },
    {
      "channel": 2,
      "note": 64,
      "start": 51.2528,
      "duration": 0.0815,
      "velocity": 109,
      "chip": "ym2612"
    },
    {
      "channel": 3,
      "note": 69,
      "start": 51.2534,
      "duration": 0.0815,
      "velocity": 109,
      "chip": "ym2612"
    },
    {
      "channel": 2,
      "note": 66,
      "start": 51.3345,
      "duration": 0.067,
      "velocity": 109,
      "chip": "ym2612"
    },
    {
      "channel": 3,
      "note": 71,
      "start": 51.3351,
      "duration": 0.067,
      "velocity": 109,
      "chip": "ym2612"
    },
    {
      "channel": 5,
      "note": 90,
      "start": 51.3357,
      "duration": 0.067,
      "velocity": 127,
      "chip": "ym2612"
    },
    {
      "channel": 0,
      "note": 64,
      "start": 51.401,
      "duration": 0.3332,
      "velocity": 102,
      "chip": "ym2612"
    },
    {
      "channel": 2,
      "note": 67,
      "start": 51.4017,
      "duration": 0.0826,
      "velocity": 109,
      "chip": "ym2612"
    },
    {
      "channel": 3,
      "note": 64,
      "start": 51.4022,
      "duration": 0.0826,
      "velocity": 109,
      "chip": "ym2612"
    },
    {
      "channel": 5,
      "note": 69,
      "start": 51.4029,
      "duration": 0.0826,
      "velocity": 127,
      "chip": "ym2612"
    },
    {
      "channel": 2,
      "note": 69,
      "start": 51.4845,
      "duration": 0.0831,
      "velocity": 109,
      "chip": "ym2612"
    },
    {
      "channel": 3,
      "note": 66,
      "start": 51.4851,
      "duration": 0.0831,
      "velocity": 109,
      "chip": "ym2612"
    },
    {
      "channel": 5,
      "note": 90,
      "start": 51.4857,
      "duration": 0.1664,
      "velocity": 127,
      "chip": "ym2612"
    },
    {
      "channel": 2,
      "note": 64,
      "start": 51.5678,
      "duration": 0.0831,
      "velocity": 109,
      "chip": "ym2612"
    },
    {
      "channel": 3,
      "note": 67,
      "start": 51.5683,
      "duration": 0.0832,
      "velocity": 109,
      "chip": "ym2612"
    },
    {
      "channel": 2,
      "note": 66,
      "start": 51.6511,
      "duration": 0.0837,
      "velocity": 109,
      "chip": "ym2612"
    },
    {
      "channel": 3,
      "note": 69,
      "start": 51.6516,
      "duration": 0.0838,
      "velocity": 109,
      "chip": "ym2612"
    },
    {
      "channel": 5,
      "note": 90,
      "start": 51.6522,
      "duration": 0.0838,
      "velocity": 127,
      "chip": "ym2612"
    },
    {
      "channel": 0,
      "note": 62,
      "start": 51.7344,
      "duration": 0.3165,
      "velocity": 102,
      "chip": "ym2612"
    },
    {
      "channel": 2,
      "note": 67,
      "start": 51.735,
      "duration": 0.066,
      "velocity": 109,
      "chip": "ym2612"
    },
    {
      "channel": 3,
      "note": 64,
      "start": 51.7355,
      "duration": 0.066,
      "velocity": 109,
      "chip": "ym2612"
    },
    {
      "channel": 5,
      "note": 69,
      "start": 51.7361,
      "duration": 0.066,
      "velocity": 127,
      "chip": "ym2612"
    },
    {
      "channel": 2,
      "note": 69,
      "start": 51.8012,
      "duration": 0.0831,
      "velocity": 109,
      "chip": "ym2612"
    },
    {
      "channel": 3,
      "note": 66,
      "start": 51.8017,
      "duration": 0.0831,
      "velocity": 109,
      "chip": "ym2612"
    },
    {
      "channel": 5,
      "note": 90,
      "start": 51.8024,
      "duration": 0.1664,
      "velocity": 127,
      "chip": "ym2612"
    },
    {
      "channel": 2,
      "note": 64,
      "start": 51.8844,
      "duration": 0.0831,
      "velocity": 109,
      "chip": "ym2612"
    },
    {
      "channel": 3,
      "note": 67,
      "start": 51.885,
      "duration": 0.0832,
      "velocity": 109,
      "chip": "ym2612"
    },
    {
      "channel": 2,
      "note": 66,
      "start": 51.9678,
      "duration": 0.0837,
      "velocity": 109,
      "chip": "ym2612"
    },
    {
      "channel": 3,
      "note": 69,
      "start": 51.9683,
      "duration": 0.0837,
      "velocity": 109,
      "chip": "ym2612"
    },
    {
      "channel": 5,
      "note": 90,
      "start": 51.969,
      "duration": 0.0837,
      "velocity": 127,
      "chip": "ym2612"
    },
    {
      "channel": 0,
      "note": 64,
      "start": 52.051,
      "duration": 0.3165,
      "velocity": 102,
      "chip": "ym2612"
    },
    {
      "channel": 2,
      "note": 67,
      "start": 52.0517,
      "duration": 0.0826,
      "velocity": 109,
      "chip": "ym2612"
    },
    {
      "channel": 3,
      "note": 64,
      "start": 52.0522,
      "duration": 0.0826,
      "velocity": 109,
      "chip": "ym2612"
    },
    {
      "channel": 5,
      "note": 69,
      "start": 52.0529,
      "duration": 0.0826,
      "velocity": 127,
      "chip": "ym2612"
    },
    {
      "channel": 2,
      "note": 69,
      "start": 52.1345,
      "duration": 0.0664,
      "velocity": 109,
      "chip": "ym2612"
    },
    {
      "channel": 3,
      "note": 66,
      "start": 52.1351,
      "duration": 0.0664,
      "velocity": 109,
      "chip": "ym2612"
    },
    {
      "channel": 5,
      "note": 90,
      "start": 52.1357,
      "duration": 0.4666,
      "velocity": 127,
      "chip": "ym2612"
    },
    {
      "channel": 2,
      "note": 64,
      "start": 52.2011,
      "duration": 0.0831,
      "velocity": 109,
      "chip": "ym2612"
    },
    {
      "channel": 3,
      "note": 67,
      "start": 52.2017,
      "duration": 0.0832,
      "velocity": 109,
      "chip": "ym2612"
    },
    {
      "channel": 2,
      "note": 66,
      "start": 52.2844,
      "duration": 0.0837,
      "velocity": 109,
      "chip": "ym2612"
    },
    {
      "channel": 3,
      "note": 69,
      "start": 52.285,
      "duration": 0.0837,
      "velocity": 109,
      "chip": "ym2612"
    },
    {
      "channel": 0,
      "note": 50,
      "start": 52.3677,
      "duration": 0.1666,
      "velocity": 102,
      "chip": "ym2612"
    },
    {
      "channel": 2,
      "note": 67,
      "start": 52.3683,
      "duration": 0.0826,
      "velocity": 109,
      "chip": "ym2612"
    },
    {
      "channel": 3,
      "note": 64,
      "start": 52.3688,
      "duration": 0.0827,
      "velocity": 109,
      "chip": "ym2612"
    },
    {
      "channel": 2,
      "note": 69,
      "start": 52.4512,
      "duration": 0.086,
      "velocity": 109,
      "chip": "ym2612"
    },
    {
      "channel": 3,
      "note": 66,
      "start": 52.4517,
      "duration": 0.086,
      "velocity": 109,
      "chip": "ym2612"
    },
    {
      "channel": 0,
      "note": 52,
      "start": 52.5345,
      "duration": 0.3163,
      "velocity": 102,
      "chip": "ym2612"
    },
    {
      "channel": 1,
      "note": 69,
      "start": 52.5367,
      "duration": 0.4642,
      "velocity": 108,
      "chip": "ym2612"
    },
    {
      "channel": 2,
      "note": 64,
      "start": 52.5373,
      "duration": 0.0637,
      "velocity": 109,
      "chip": "ym2612"
    },
    {
      "channel": 3,
      "note": 67,
      "start": 52.5379,
      "duration": 0.0637,
      "velocity": 109,
      "chip": "ym2612"
    },
    {
      "channel": 4,
      "note": 81,
      "start": 52.5401,
      "duration": 0.4624,
      "velocity": 109,
      "chip": "ym2612"
    },
    {
      "channel": 2,
      "note": 69,
      "start": 52.6012,
      "duration": 0.083,
      "velocity": 109,
      "chip": "ym2612"
    },
    {
      "channel": 3,
      "note": 69,
      "start": 52.6018,
      "duration": 0.083,
      "velocity": 109,
      "chip": "ym2612"
    },
    {
      "channel": 5,
      "note": 90,
      "start": 52.6025,
      "duration": 0.0829,
      "velocity": 127,
      "chip": "ym2612"
    },
    {
      "channel": 2,
      "note": 71,
      "start": 52.6844,
      "duration": 0.0831,
      "velocity": 109,
      "chip": "ym2612"
    },
    {
      "channel": 3,
      "note": 64,
      "start": 52.6849,
      "duration": 0.0832,
      "velocity": 109,
      "chip": "ym2612"
    },
    {
      "channel": 5,
      "note": 69,
      "start": 52.6856,
      "duration": 0.0832,
      "velocity": 127,
      "chip": "ym2612"
    },
    {
      "channel": 2,
      "note": 74,
      "start": 52.7678,
      "duration": 0.0837,
      "velocity": 109,
      "chip": "ym2612"
    },
    {
      "channel": 3,
      "note": 69,
      "start": 52.7683,
      "duration": 0.0837,
      "velocity": 109,
      "chip": "ym2612"
    },
    {
      "channel": 5,
      "note": 90,
      "start": 52.769,
      "duration": 0.1665,
      "velocity": 127,
      "chip": "ym2612"
    },
    {
      "channel": 0,
      "note": 64,
      "start": 52.851,
      "duration": 0.3165,
      "velocity": 102,
      "chip": "ym2612"
    },
    {
      "channel": 2,
      "note": 64,
      "start": 52.8517,
      "duration": 0.0826,
      "velocity": 109,
      "chip": "ym2612"
    },
    {
      "channel": 3,
      "note": 71,
      "start": 52.8522,
      "duration": 0.0826,
      "velocity": 109,
      "chip": "ym2612"
    },
    {
      "channel": 2,
      "note": 69,
      "start": 52.9345,
      "duration": 0.067,
      "velocity": 109,
      "chip": "ym2612"
    },
    {
      "channel": 3,
      "note": 74,
      "start": 52.9351,
      "duration": 0.067,
      "velocity": 109,
      "chip": "ym2612"
    },
    {
      "channel": 5,
      "note": 90,
      "start": 52.9357,
      "duration": 0.0675,
      "velocity": 127,
      "chip": "ym2612"
    },
    {
      "channel": 1,
      "note": 67,
      "start": 53.0011,
      "duration": 0.3337,
      "velocity": 108,
      "chip": "ym2612"
    },
    {
      "channel": 2,
      "note": 71,
      "start": 53.0017,
      "duration": 0.0826,
      "velocity": 109,
      "chip": "ym2612"
    },
    {
      "channel": 3,
      "note": 64,
      "start": 53.0022,
      "duration": 0.0827,
      "velocity": 109,
      "chip": "ym2612"
    },
    {
      "channel": 4,
      "note": 79,
      "start": 53.0027,
      "duration": 0.3337,
      "velocity": 109,
      "chip": "ym2612"
    },
    {
      "channel": 5,
      "note": 69,
      "start": 53.0033,
      "duration": 0.0822,
      "velocity": 127,
      "chip": "ym2612"
    },
    {
      "channel": 2,
      "note": 74,
      "start": 53.0845,
      "duration": 0.0837,
      "velocity": 109,
      "chip": "ym2612"
    },
    {
      "channel": 3,
      "note": 69,
      "start": 53.085,
      "duration": 0.0837,
      "velocity": 109,
      "chip": "ym2612"
    },
    {
      "channel": 5,
      "note": 90,
      "start": 53.0856,
      "duration": 0.1665,
      "velocity": 127,
      "chip": "ym2612"
    },
    {
      "channel": 0,
      "note": 62,
      "start": 53.1677,
      "duration": 0.1665,
      "velocity": 102,
      "chip": "ym2612"
    },
    {
      "channel": 2,
      "note": 64,
      "start": 53.1683,
      "duration": 0.0826,
      "velocity": 109,
      "chip": "ym2612"
    },
    {
      "channel": 3,
      "note": 71,
      "start": 53.1688,
      "duration": 0.0827,
      "velocity": 109,
      "chip": "ym2612"
    },
    {
      "channel": 2,
      "note": 69,
      "start": 53.2512,
      "duration": 0.0841,
      "velocity": 109,
      "chip": "ym2612"
    },
    {
      "channel": 3,
      "note": 74,
      "start": 53.2517,
      "duration": 0.0841,
      "velocity": 109,
      "chip": "ym2612"
    },
    {
      "channel": 5,
      "note": 90,
      "start": 53.2524,
      "duration": 0.0846,
      "velocity": 127,
      "chip": "ym2612"
    },
    {
      "channel": 0,
      "note": 64,
      "start": 53.3344,
      "duration": 0.1498,
      "velocity": 102,
      "chip": "ym2612"
    },
    {
      "channel": 1,
      "note": 66,
      "start": 53.3349,
      "duration": 0.3165,
      "velocity": 108,
      "chip": "ym2612"
    },
    {
      "channel": 2,
      "note": 71,
      "start": 53.3354,
      "duration": 0.0656,
      "velocity": 109,
      "chip": "ym2612"
    },
    {
      "channel": 3,
      "note": 64,
      "start": 53.336,
      "duration": 0.0656,
      "velocity": 109,
      "chip": "ym2612"
    },
    {
      "channel": 4,
      "note": 78,
      "start": 53.3366,
      "duration": 0.3165,
      "velocity": 109,
      "chip": "ym2612"
    },
    {
      "channel": 5,
      "note": 69,
      "start": 53.3371,
      "duration": 0.0651,
      "velocity": 127,
      "chip": "ym2612"
    },
    {
      "channel": 2,
      "note": 74,
      "start": 53.4012,
      "duration": 0.0836,
      "velocity": 109,
      "chip": "ym2612"
    },
    {
      "channel": 3,
      "note": 69,
      "start": 53.4018,
      "duration": 0.0836,
      "velocity": 109,
      "chip": "ym2612"
    },
    {
      "channel": 5,
      "note": 90,
      "start": 53.4024,
      "duration": 0.1664,
      "velocity": 127,
      "chip": "ym2612"
    },
    {
      "channel": 0,
      "note": 50,
      "start": 53.4844,
      "duration": 0.1665,
      "velocity": 102,
      "chip": "ym2612"
    },
    {
      "channel": 2,
      "note": 64,
      "start": 53.485,
      "duration": 0.0826,
      "velocity": 109,
      "chip": "ym2612"
    },
    {
      "channel": 3,
      "note": 71,
      "start": 53.4855,
      "duration": 0.0827,
      "velocity": 109,
      "chip": "ym2612"
    },
    {
      "channel": 2,
      "note": 69,
      "start": 53.5678,
      "duration": 0.0841,
      "velocity": 109,
      "chip": "ym2612"
    },
    {
      "channel": 3,
      "note": 74,
      "start": 53.5684,
      "duration": 0.0841,
      "velocity": 109,
      "chip": "ym2612"
    },
    {
      "channel": 5,
      "note": 90,
      "start": 53.569,
      "duration": 0.0846,
      "velocity": 127,
      "chip": "ym2612"
    },
    {
      "channel": 0,
      "note": 52,
      "start": 53.651,
      "duration": 0.3165,
      "velocity": 102,
      "chip": "ym2612"
    },
    {
      "channel": 1,
      "note": 67,
      "start": 53.6516,
      "duration": 0.3165,
      "velocity": 108,
      "chip": "ym2612"
    },
    {
      "channel": 2,
      "note": 71,
      "start": 53.6521,
      "duration": 0.0822,
      "velocity": 109,
      "chip": "ym2612"
    },
    {
      "channel": 3,
      "note": 64,
      "start": 53.6527,
      "duration": 0.0822,
      "velocity": 109,
      "chip": "ym2612"
    },
    {
      "channel": 4,
      "note": 79,
      "start": 53.6532,
      "duration": 0.3165,
      "velocity": 109,
      "chip": "ym2612"
    },
    {
      "channel": 5,
      "note": 69,
      "start": 53.6538,
      "duration": 0.0817,
      "velocity": 127,
      "chip": "ym2612"
    },
    {
      "channel": 2,
      "note": 74,
      "start": 53.7345,
      "duration": 0.0663,
      "velocity": 109,
      "chip": "ym2612"
    },
    {
      "channel": 3,
      "note": 69,
      "start": 53.7351,
      "duration": 0.0663,
      "velocity": 109,
      "chip": "ym2612"
    },
    {
      "channel": 5,
      "note": 90,
      "start": 53.7358,
      "duration": 0.1497,
      "velocity": 127,
      "chip": "ym2612"
    },
    {
      "channel": 2,
      "note": 64,
      "start": 53.8011,
      "duration": 0.0831,
      "velocity": 109,
      "chip": "ym2612"
    },
    {
      "channel": 3,
      "note": 71,
      "start": 53.8017,
      "duration": 0.0832,
      "velocity": 109,
      "chip": "ym2612"
    },
    {
      "channel": 2,
      "note": 69,
      "start": 53.8844,
      "duration": 0.0842,
      "velocity": 109,
      "chip": "ym2612"
    },
    {
      "channel": 3,
      "note": 74,
      "start": 53.885,
      "duration": 0.0842,
      "velocity": 109,
      "chip": "ym2612"
    },
    {
      "channel": 5,
      "note": 90,
      "start": 53.8856,
      "duration": 0.0847,
      "velocity": 127,
      "chip": "ym2612"
    },
    {
      "channel": 0,
      "note": 64,
      "start": 53.9677,
      "duration": 0.3165,
      "velocity": 102,
      "chip": "ym2612"
    },
    {
      "channel": 1,
      "note": 69,
      "start": 53.9683,
      "duration": 0.166,
      "velocity": 108,
      "chip": "ym2612"
    },
    {
      "channel": 2,
      "note": 71,
      "start": 53.9688,
      "duration": 0.0822,
      "velocity": 109,
      "chip": "ym2612"
    },
    {
      "channel": 3,
      "note": 64,
      "start": 53.9693,
      "duration": 0.0822,
      "velocity": 109,
      "chip": "ym2612"
    },
    {
      "channel": 4,
      "note": 81,
      "start": 53.9699,
      "duration": 0.166,
      "velocity": 109,
      "chip": "ym2612"
    },
    {
      "channel": 5,
      "note": 69,
      "start": 53.9705,
      "duration": 0.0817,
      "velocity": 127,
      "chip": "ym2612"
    },
    {
      "channel": 2,
      "note": 72,
      "start": 54.0512,
      "duration": 0.0837,
      "velocity": 109,
      "chip": "ym2612"
    },
    {
      "channel": 3,
      "note": 69,
      "start": 54.0517,
      "duration": 0.0836,
      "velocity": 109,
      "chip": "ym2612"
    },
    {
      "channel": 5,
      "note": 90,
      "start": 54.0524,
      "duration": 0.1508,
      "velocity": 127,
      "chip": "ym2612"
    },
    {
      "channel": 1,
      "note": 64,
      "start": 54.1344,
      "duration": 0.0665,
      "velocity": 108,
      "chip": "ym2612"
    },
    {
      "channel": 2,
      "note": 64,
      "start": 54.1349,
      "duration": 0.0666,
      "velocity": 109,
      "chip": "ym2612"
    },
    {
      "channel": 3,
      "note": 71,
      "start": 54.1355,
      "duration": 0.0666,
      "velocity": 109,
      "chip": "ym2612"
    },
    {
      "channel": 4,
      "note": 76,
      "start": 54.1361,
      "duration": 0.0665,
      "velocity": 109,
      "chip": "ym2612"
    },
    {
      "channel": 1,
      "note": 66,
      "start": 54.2011,
      "duration": 0.2498,
      "velocity": 108,
      "chip": "ym2612"
    },
    {
      "channel": 2,
      "note": 69,
      "start": 54.2017,
      "duration": 0.0832,
      "velocity": 109,
      "chip": "ym2612"
    },
    {
      "channel": 3,
      "note": 72,
      "start": 54.2022,
      "duration": 0.0833,
      "velocity": 109,
      "chip": "ym2612"
    },
    {
      "channel": 4,
      "note": 78,
      "start": 54.2027,
      "duration": 0.2498,
      "velocity": 109,
      "chip": "ym2612"
    },
    {
      "channel": 5,
      "note": 90,
      "start": 54.2033,
      "duration": 0.0828,
      "velocity": 127,
      "chip": "ym2612"
    },
    {
      "channel": 0,
      "note": 62,
      "start": 54.2844,
      "duration": 0.3164,
      "velocity": 102,
      "chip": "ym2612"
    },
    {
      "channel": 2,
      "note": 71,
      "start": 54.2851,
      "duration": 0.0826,
      "velocity": 109,
      "chip": "ym2612"
    },
    {
      "channel": 3,
      "note": 64,
      "start": 54.2856,
      "duration": 0.0826,
      "velocity": 109,
      "chip": "ym2612"
    },
    {
      "channel": 5,
      "note": 69,
      "start": 54.2863,
      "duration": 0.0826,
      "velocity": 127,
      "chip": "ym2612"
    },
    {
      "channel": 2,
      "note": 72,
      "start": 54.3678,
      "duration": 0.0837,
      "velocity": 109,
      "chip": "ym2612"
    },
    {
      "channel": 3,
      "note": 69,
      "start": 54.3684,
      "duration": 0.0837,
      "velocity": 109,
      "chip": "ym2612"
    },
    {
      "channel": 5,
      "note": 90,
      "start": 54.369,
      "duration": 0.1665,
      "velocity": 127,
      "chip": "ym2612"
    },
    {
      "channel": 1,
      "note": 62,
      "start": 54.4511,
      "duration": 0.3165,
      "velocity": 108,
      "chip": "ym2612"
    },
    {
      "channel": 2,
      "note": 64,
      "start": 54.4517,
      "duration": 0.0826,
      "velocity": 109,
      "chip": "ym2612"
    },
    {
      "channel": 3,
      "note": 71,
      "start": 54.4522,
      "duration": 0.0827,
      "velocity": 109,
      "chip": "ym2612"
    },
    {
      "channel": 4,
      "note": 74,
      "start": 54.4527,
      "duration": 0.3165,
      "velocity": 109,
      "chip": "ym2612"
    },
    {
      "channel": 2,
      "note": 69,
      "start": 54.5345,
      "duration": 0.067,
      "velocity": 109,
      "chip": "ym2612"
    },
    {
      "channel": 3,
      "note": 72,
      "start": 54.5351,
      "duration": 0.067,
      "velocity": 109,
      "chip": "ym2612"
    },
    {
      "channel": 5,
      "note": 90,
      "start": 54.5357,
      "duration": 0.067,
      "velocity": 127,
      "chip": "ym2612"
    },
    {
      "channel": 0,
      "note": 64,
      "start": 54.601,
      "duration": 0.3332,
      "velocity": 102,
      "chip": "ym2612"
    },
    {
      "channel": 2,
      "note": 71,
      "start": 54.6017,
      "duration": 0.0826,
      "velocity": 109,
      "chip": "ym2612"
    },
    {
      "channel": 3,
      "note": 64,
      "start": 54.6022,
      "duration": 0.0826,
      "velocity": 109,
      "chip": "ym2612"
    },
    {
      "channel": 5,
      "note": 69,
      "start": 54.6029,
      "duration": 0.0826,
      "velocity": 127,
      "chip": "ym2612"
    },
    {
      "channel": 2,
      "note": 72,
      "start": 54.6845,
      "duration": 0.0837,
      "velocity": 109,
      "chip": "ym2612"
    },
    {
      "channel": 3,
      "note": 69,
      "start": 54.6851,
      "duration": 0.0837,
      "velocity": 109,
      "chip": "ym2612"
    },
    {
      "channel": 5,
      "note": 90,
      "start": 54.6857,
      "duration": 0.1665,
      "velocity": 127,
      "chip": "ym2612"
    },
    {
      "channel": 1,
      "note": 59,
      "start": 54.7678,
      "duration": 0.317,
      "velocity": 108,
      "chip": "ym2612"
    },
    {
      "channel": 2,
      "note": 64,
      "start": 54.7683,
      "duration": 0.0827,
      "velocity": 109,
      "chip": "ym2612"
    },
    {
      "channel": 3,
      "note": 71,
      "start": 54.7688,
      "duration": 0.0827,
      "velocity": 109,
      "chip": "ym2612"
    },
    {
      "channel": 4,
      "note": 71,
      "start": 54.7694,
      "duration": 0.317,
      "velocity": 109,
      "chip": "ym2612"
    },
    {
      "channel": 2,
      "note": 69,
      "start": 54.8512,
      "duration": 0.0837,
      "velocity": 109,
      "chip": "ym2612"
    },
    {
      "channel": 3,
      "note": 72,
      "start": 54.8517,
      "duration": 0.0837,
      "velocity": 109,
      "chip": "ym2612"
    },
    {
      "channel": 5,
      "note": 90,
      "start": 54.8524,
      "duration": 0.0837,
      "velocity": 127,
      "chip": "ym2612"
    },
    {
      "channel": 0,
      "note": 50,
      "start": 54.9344,
      "duration": 0.1498,
      "velocity": 102,
      "chip": "ym2612"
    },
    {
      "channel": 2,
      "note": 71,
      "start": 54.935,
      "duration": 0.066,
      "velocity": 109,
      "chip": "ym2612"
    },
    {
      "channel": 3,
      "note": 64,
      "start": 54.9355,
      "duration": 0.066,
      "velocity": 109,
      "chip": "ym2612"
    },
    {
      "channel": 5,
      "note": 69,
      "start": 54.9361,
      "duration": 0.066,
      "velocity": 127,
      "chip": "ym2612"
    },
    {
      "channel": 2,
      "note": 72,
      "start": 55.0012,
      "duration": 0.0841,
      "velocity": 109,
      "chip": "ym2612"
    },
    {
      "channel": 3,
      "note": 69,
      "start": 55.0017,
      "duration": 0.0841,
      "velocity": 109,
      "chip": "ym2612"
    },
    {
      "channel": 5,
      "note": 90,
      "start": 55.0024,
      "duration": 0.1665,
      "velocity": 127,
      "chip": "ym2612"
    },
    {
      "channel": 0,
      "note": 52,
      "start": 55.0844,
      "duration": 0.3165,
      "velocity": 102,
      "chip": "ym2612"
    },
    {
      "channel": 1,
      "note": 64,
      "start": 55.0849,
      "duration": 0.4826,
      "velocity": 108,
      "chip": "ym2612"
    },
    {
      "channel": 2,
      "note": 64,
      "start": 55.0854,
      "duration": 0.0822,
      "velocity": 109,
      "chip": "ym2612"
    },
    {
      "channel": 3,
      "note": 71,
      "start": 55.086,
      "duration": 0.0822,
      "velocity": 109,
      "chip": "ym2612"
    },
    {
      "channel": 4,
      "note": 76,
      "start": 55.0866,
      "duration": 0.4826,
      "velocity": 109,
      "chip": "ym2612"
    },
    {
      "channel": 2,
      "note": 67,
      "start": 55.1679,
      "duration": 0.083,
      "velocity": 109,
      "chip": "ym2612"
    },
    {
      "channel": 3,
      "note": 72,
      "start": 55.1685,
      "duration": 0.083,
      "velocity": 109,
      "chip": "ym2612"
    },
    {
      "channel": 5,
      "note": 90,
      "start": 55.1691,
      "duration": 0.083,
      "velocity": 127,
      "chip": "ym2612"
    },
    {
      "channel": 2,
      "note": 69,
      "start": 55.2511,
      "duration": 0.0831,
      "velocity": 109,
      "chip": "ym2612"
    },
    {
      "channel": 3,
      "note": 64,
      "start": 55.2517,
      "duration": 0.0832,
      "velocity": 109,
      "chip": "ym2612"
    },
    {
      "channel": 5,
      "note": 69,
      "start": 55.2523,
      "duration": 0.0832,
      "velocity": 127,
      "chip": "ym2612"
    },
    {
      "channel": 2,
      "note": 71,
      "start": 55.3344,
      "duration": 0.0671,
      "velocity": 109,
      "chip": "ym2612"
    },
    {
      "channel": 3,
      "note": 67,
      "start": 55.335,
      "duration": 0.0671,
      "velocity": 109,
      "chip": "ym2612"
    },
    {
      "channel": 5,
      "note": 90,
      "start": 55.3356,
      "duration": 0.1499,
      "velocity": 127,
      "chip": "ym2612"
    },
    {
      "channel": 0,
      "note": 64,
      "start": 55.401,
      "duration": 0.3332,
      "velocity": 102,
      "chip": "ym2612"
    },
    {
      "channel": 2,
      "note": 64,
      "start": 55.4017,
      "duration": 0.0826,
      "velocity": 109,
      "chip": "ym2612"
    },
    {
      "channel": 3,
      "note": 69,
      "start": 55.4022,
      "duration": 0.0826,
      "velocity": 109,
      "chip": "ym2612"
    },
    {
      "channel": 2,
      "note": 67,
      "start": 55.4845,
      "duration": 0.0837,
      "velocity": 109,
      "chip": "ym2612"
    },
    {
      "channel": 3,
      "note": 71,
      "start": 55.4851,
      "duration": 0.0837,
      "velocity": 109,
      "chip": "ym2612"
    },
    {
      "channel": 5,
      "note": 90,
      "start": 55.4857,
      "duration": 0.0841,
      "velocity": 127,
      "chip": "ym2612"
    },
    {
      "channel": 1,
      "note": 66,
      "start": 55.5678,
      "duration": 0.317,
      "velocity": 108,
      "chip": "ym2612"
    },
    {
      "channel": 2,
      "note": 69,
      "start": 55.5683,
      "duration": 0.0826,
      "velocity": 109,
      "chip": "ym2612"
    },
    {
      "channel": 3,
      "note": 64,
      "start": 55.5688,
      "duration": 0.0827,
      "velocity": 109,
      "chip": "ym2612"
    },
    {
      "channel": 4,
      "note": 78,
      "start": 55.5694,
      "duration": 0.317,
      "velocity": 109,
      "chip": "ym2612"
    },
    {
      "channel": 5,
      "note": 69,
      "start": 55.57,
      "duration": 0.0822,
      "velocity": 127,
      "chip": "ym2612"
    },
    {
      "channel": 2,
      "note": 71,
      "start": 55.6512,
      "duration": 0.0836,
      "velocity": 109,
      "chip": "ym2612"
    },
    {
      "channel": 3,
      "note": 67,
      "start": 55.6517,
      "duration": 0.0836,
      "velocity": 109,
      "chip": "ym2612"
    },
    {
      "channel": 5,
      "note": 90,
      "start": 55.6524,
      "duration": 0.1498,
      "velocity": 127,
      "chip": "ym2612"
    },
    {
      "channel": 0,
      "note": 62,
      "start": 55.7343,
      "duration": 0.1499,
      "velocity": 102,
      "chip": "ym2612"
    },
    {
      "channel": 2,
      "note": 64,
      "start": 55.7349,
      "duration": 0.066,
      "velocity": 109,
      "chip": "ym2612"
    },
    {
      "channel": 3,
      "note": 69,
      "start": 55.7355,
      "duration": 0.066,
      "velocity": 109,
      "chip": "ym2612"
    },
    {
      "channel": 2,
      "note": 67,
      "start": 55.8011,
      "duration": 0.0842,
      "velocity": 109,
      "chip": "ym2612"
    },
    {
      "channel": 3,
      "note": 71,
      "start": 55.8017,
      "duration": 0.0842,
      "velocity": 109,
      "chip": "ym2612"
    },
    {
      "channel": 5,
      "note": 90,
      "start": 55.8023,
      "duration": 0.0847,
      "velocity": 127,
      "chip": "ym2612"
    },
    {
      "channel": 0,
      "note": 64,
      "start": 55.8844,
      "duration": 0.1665,
      "velocity": 102,
      "chip": "ym2612"
    },
    {
      "channel": 1,
      "note": 67,
      "start": 55.8849,
      "duration": 0.3165,
      "velocity": 108,
      "chip": "ym2612"
    },
    {
      "channel": 2,
      "note": 69,
      "start": 55.8855,
      "duration": 0.0821,
      "velocity": 109,
      "chip": "ym2612"
    },
    {
      "channel": 3,
      "note": 64,
      "start": 55.886,
      "duration": 0.0822,
      "velocity": 109,
      "chip": "ym2612"
    },
    {
      "channel": 4,
      "note": 79,
      "start": 55.8866,
      "duration": 0.3166,
      "velocity": 109,
      "chip": "ym2612"
    },
    {
      "channel": 5,
      "note": 69,
      "start": 55.8871,
      "duration": 0.0817,
      "velocity": 127,
      "chip": "ym2612"
    },
    {
      "channel": 2,
      "note": 71,
      "start": 55.9678,
      "duration": 0.0837,
      "velocity": 109,
      "chip": "ym2612"
    },
    {
      "channel": 3,
      "note": 67,
      "start": 55.9684,
      "duration": 0.0836,
      "velocity": 109,
      "chip": "ym2612"
    },
    {
      "channel": 5,
      "note": 90,
      "start": 55.969,
      "duration": 0.1664,
      "velocity": 127,
      "chip": "ym2612"
    },
    {
      "channel": 0,
      "note": 50,
      "start": 56.051,
      "duration": 0.1499,
      "velocity": 102,
      "chip": "ym2612"
    },
    {
      "channel": 2,
      "note": 64,
      "start": 56.0516,
      "duration": 0.0827,
      "velocity": 109,
      "chip": "ym2612"
    },
    {
      "channel": 3,
      "note": 69,
      "start": 56.0522,
      "duration": 0.0827,
      "velocity": 109,
      "chip": "ym2612"
    },
    {
      "channel": 2,
      "note": 67,
      "start": 56.1344,
      "duration": 0.0676,
      "velocity": 109,
      "chip": "ym2612"
    },
    {
      "channel": 3,
      "note": 71,
      "start": 56.135,
      "duration": 0.0676,
      "velocity": 109,
      "chip": "ym2612"
    },
    {
      "channel": 5,
      "note": 90,
      "start": 56.1356,
      "duration": 0.0681,
      "velocity": 127,
      "chip": "ym2612"
    },
    {
      "channel": 0,
      "note": 52,
      "start": 56.201,
      "duration": 0.3332,
      "velocity": 102,
      "chip": "ym2612"
    },
    {
      "channel": 1,
      "note": 66,
      "start": 56.2016,
      "duration": 0.3332,
      "velocity": 108,
      "chip": "ym2612"
    },
    {
      "channel": 2,
      "note": 69,
      "start": 56.2022,
      "duration": 0.0822,
      "velocity": 109,
      "chip": "ym2612"
    },
    {
      "channel": 3,
      "note": 64,
      "start": 56.2027,
      "duration": 0.0822,
      "velocity": 109,
      "chip": "ym2612"
    },
    {
      "channel": 4,
      "note": 78,
      "start": 56.2032,
      "duration": 0.3332,
      "velocity": 109,
      "chip": "ym2612"
    },
    {
      "channel": 5,
      "note": 69,
      "start": 56.2038,
      "duration": 0.0817,
      "velocity": 127,
      "chip": "ym2612"
    },
    {
      "channel": 2,
      "note": 71,
      "start": 56.2845,
      "duration": 0.0831,
      "velocity": 109,
      "chip": "ym2612"
    },
    {
      "channel": 3,
      "note": 67,
      "start": 56.2851,
      "duration": 0.0831,
      "velocity": 109,
      "chip": "ym2612"
    },
    {
      "channel": 5,
      "note": 90,
      "start": 56.2857,
      "duration": 0.1664,
      "velocity": 127,
      "chip": "ym2612"
    },
    {
      "channel": 2,
      "note": 64,
      "start": 56.3678,
      "duration": 0.0831,
      "velocity": 109,
      "chip": "ym2612"
    },
    {
      "channel": 3,
      "note": 69,
      "start": 56.3683,
      "duration": 0.0832,
      "velocity": 109,
      "chip": "ym2612"
    },
    {
      "channel": 2,
      "note": 66,
      "start": 56.4511,
      "duration": 0.0842,
      "velocity": 109,
      "chip": "ym2612"
    },
    {
      "channel": 3,
      "note": 71,
      "start": 56.4516,
      "duration": 0.0843,
      "velocity": 109,
      "chip": "ym2612"
    },
    {
      "channel": 5,
      "note": 90,
      "start": 56.4522,
      "duration": 0.0848,
      "velocity": 127,
      "chip": "ym2612"
    },
    {
      "channel": 0,
      "note": 64,
      "start": 56.5344,
      "duration": 0.3165,
      "velocity": 102,
      "chip": "ym2612"
    },
    {
      "channel": 1,
      "note": 66,
      "start": 56.5349,
      "duration": 0.1493,
      "velocity": 108,
      "chip": "ym2612"
    },
    {
      "channel": 2,
      "note": 67,
      "start": 56.5355,
      "duration": 0.0655,
      "velocity": 109,
      "chip": "ym2612"
    },
    {
      "channel": 3,
      "note": 64,
      "start": 56.536,
      "duration": 0.0655,
      "velocity": 109,
      "chip": "ym2612"
    },
    {
      "channel": 4,
      "note": 78,
      "start": 56.5366,
      "duration": 0.1493,
      "velocity": 109,
      "chip": "ym2612"
    },
    {
      "channel": 5,
      "note": 69,
      "start": 56.5371,
      "duration": 0.065,
      "velocity": 127,
      "chip": "ym2612"
    },
    {
      "channel": 2,
      "note": 69,
      "start": 56.6012,
      "duration": 0.0837,
      "velocity": 109,
      "chip": "ym2612"
    },
    {
      "channel": 3,
      "note": 66,
      "start": 56.6017,
      "duration": 0.0837,
      "velocity": 109,
      "chip": "ym2612"
    },
    {
      "channel": 5,
      "note": 90,
      "start": 56.6024,
      "duration": 0.1665,
      "velocity": 127,
      "chip": "ym2612"
    },
    {
      "channel": 1,
      "note": 67,
      "start": 56.6844,
      "duration": 0.167,
      "velocity": 108,
      "chip": "ym2612"
    },
    {
      "channel": 2,
      "note": 64,
      "start": 56.6849,
      "duration": 0.0827,
      "velocity": 109,
      "chip": "ym2612"
    },
    {
      "channel": 3,
      "note": 67,
      "start": 56.6855,
      "duration": 0.0827,
      "velocity": 109,
      "chip": "ym2612"
    },
    {
      "channel": 4,
      "note": 79,
      "start": 56.6861,
      "duration": 0.1671,
      "velocity": 109,
      "chip": "ym2612"
    },
    {
      "channel": 2,
      "note": 66,
      "start": 56.7678,
      "duration": 0.0841,
      "velocity": 109,
      "chip": "ym2612"
    },
    {
      "channel": 3,
      "note": 69,
      "start": 56.7684,
      "duration": 0.0841,
      "velocity": 109,
      "chip": "ym2612"
    },
    {
      "channel": 5,
      "note": 90,
      "start": 56.769,
      "duration": 0.0847,
      "velocity": 127,
      "chip": "ym2612"
    },
    {
      "channel": 0,
      "note": 62,
      "start": 56.851,
      "duration": 0.3165,
      "velocity": 102,
      "chip": "ym2612"
    },
    {
      "channel": 1,
      "note": 69,
      "start": 56.8516,
      "duration": 0.1493,
      "velocity": 108,
      "chip": "ym2612"
    },
    {
      "channel": 2,
      "note": 67,
      "start": 56.8522,
      "duration": 0.0821,
      "velocity": 109,
      "chip": "ym2612"
    },
    {
      "channel": 3,
      "note": 64,
      "start": 56.8527,
      "duration": 0.0821,
      "velocity": 109,
      "chip": "ym2612"
    },
    {
      "channel": 4,
      "note": 81,
      "start": 56.8532,
      "duration": 0.1493,
      "velocity": 109,
      "chip": "ym2612"
    },
    {
      "channel": 5,
      "note": 69,
      "start": 56.8538,
      "duration": 0.0817,
      "velocity": 127,
      "chip": "ym2612"
    },
    {
      "channel": 2,
      "note": 69,
      "start": 56.9345,
      "duration": 0.067,
      "velocity": 109,
      "chip": "ym2612"
    },
    {
      "channel": 3,
      "note": 66,
      "start": 56.9351,
      "duration": 0.067,
      "velocity": 109,
      "chip": "ym2612"
    },
    {
      "channel": 5,
      "note": 90,
      "start": 56.9357,
      "duration": 0.1498,
      "velocity": 127,
      "chip": "ym2612"
    },
    {
      "channel": 1,
      "note": 74,
      "start": 57.0011,
      "duration": 0.167,
      "velocity": 108,
      "chip": "ym2612"
    },
    {
      "channel": 2,
      "note": 64,
      "start": 57.0016,
      "duration": 0.0827,
      "velocity": 109,
      "chip": "ym2612"
    },
    {
      "channel": 3,
      "note": 67,
      "start": 57.0022,
      "duration": 0.0827,
      "velocity": 109,
      "chip": "ym2612"
    },
    {
      "channel": 4,
      "note": 86,
      "start": 57.0027,
      "duration": 0.167,
      "velocity": 109,
      "chip": "ym2612"
    },
    {
      "channel": 2,
      "note": 66,
      "start": 57.0845,
      "duration": 0.0841,
      "velocity": 109,
      "chip": "ym2612"
    },
    {
      "channel": 3,
      "note": 69,
      "start": 57.0851,
      "duration": 0.0841,
      "velocity": 109,
      "chip": "ym2612"
    },
    {
      "channel": 5,
      "note": 90,
      "start": 57.0857,
      "duration": 0.0847,
      "velocity": 127,
      "chip": "ym2612"
    },
    {
      "channel": 0,
      "note": 64,
      "start": 57.1677,
      "duration": 0.3165,
      "velocity": 102,
      "chip": "ym2612"
    },
    {
      "channel": 1,
      "note": 72,
      "start": 57.1683,
      "duration": 0.166,
      "velocity": 108,
      "chip": "ym2612"
    },
    {
      "channel": 2,
      "note": 67,
      "start": 57.1688,
      "duration": 0.0821,
      "velocity": 109,
      "chip": "ym2612"
    },
    {
      "channel": 3,
      "note": 64,
      "start": 57.1693,
      "duration": 0.0822,
      "velocity": 109,
      "chip": "ym2612"
    },
    {
      "channel": 4,
      "note": 84,
      "start": 57.1699,
      "duration": 0.166,
      "velocity": 109,
      "chip": "ym2612"
    },
    {
      "channel": 5,
      "note": 69,
      "start": 57.1705,
      "duration": 0.0817,
      "velocity": 127,
      "chip": "ym2612"
    },
    {
      "channel": 2,
      "note": 69,
      "start": 57.2512,
      "duration": 0.0837,
      "velocity": 109,
      "chip": "ym2612"
    },
    {
      "channel": 3,
      "note": 66,
      "start": 57.2517,
      "duration": 0.0837,
      "velocity": 109,
      "chip": "ym2612"
    },
    {
      "channel": 5,
      "note": 90,
      "start": 57.2524,
      "duration": 0.4832,
      "velocity": 127,
      "chip": "ym2612"
    },
    {
      "channel": 1,
      "note": 67,
      "start": 57.3344,
      "duration": 0.1503,
      "velocity": 108,
      "chip": "ym2612"
    },
    {
      "channel": 2,
      "note": 64,
      "start": 57.3349,
      "duration": 0.066,
      "velocity": 109,
      "chip": "ym2612"
    },
    {
      "channel": 3,
      "note": 67,
      "start": 57.3355,
      "duration": 0.066,
      "velocity": 109,
      "chip": "ym2612"
    },
    {
      "channel": 4,
      "note": 79,
      "start": 57.3361,
      "duration": 0.1503,
      "velocity": 109,
      "chip": "ym2612"
    },
    {
      "channel": 2,
      "note": 66,
      "start": 57.4012,
      "duration": 0.0841,
      "velocity": 109,
      "chip": "ym2612"
    },
    {
      "channel": 3,
      "note": 69,
      "start": 57.4017,
      "duration": 0.0841,
      "velocity": 109,
      "chip": "ym2612"
    },
    {
      "channel": 0,
      "note": 50,
      "start": 57.4844,
      "duration": 0.1666,
      "velocity": 102,
      "chip": "ym2612"
    },
    {
      "channel": 1,
      "note": 62,
      "start": 57.4849,
      "duration": 0.1666,
      "velocity": 108,
      "chip": "ym2612"
    },
    {
      "channel": 2,
      "note": 67,
      "start": 57.4855,
      "duration": 0.0822,
      "velocity": 109,
      "chip": "ym2612"
    },
    {
      "channel": 3,
      "note": 64,
      "start": 57.486,
      "duration": 0.0822,
      "velocity": 109,
      "chip": "ym2612"
    },
    {
      "channel": 4,
      "note": 74,
      "start": 57.4866,
      "duration": 0.1668,
      "velocity": 109,
      "chip": "ym2612"
    },
    {
      "channel": 2,
      "note": 69,
      "start": 57.5679,
      "duration": 0.0843,
      "velocity": 109,
      "chip": "ym2612"
    },
    {
      "channel": 3,
      "note": 66,
      "start": 57.5685,
      "duration": 0.0844,
      "velocity": 109,
      "chip": "ym2612"
    },
    {
      "channel": 0,
      "note": 52,
      "start": 57.6511,
      "duration": 0.3164,
      "velocity": 102,
      "chip": "ym2612"
    },
    {
      "channel": 1,
      "note": 60,
      "start": 57.6517,
      "duration": 0.4825,
      "velocity": 108,
      "chip": "ym2612"
    },
    {
      "channel": 2,
      "note": 64,
      "start": 57.6524,
      "duration": 0.082,
      "velocity": 109,
      "chip": "ym2612"
    },
    {
      "channel": 3,
      "note": 67,
      "start": 57.6529,
      "duration": 0.082,
      "velocity": 109,
      "chip": "ym2612"
    },
    {
      "channel": 4,
      "note": 72,
      "start": 57.6536,
      "duration": 0.4823,
      "velocity": 109,
      "chip": "ym2612"
    },
    {
      "channel": 2,
      "note": 69,
      "start": 57.7345,
      "duration": 0.0664,
      "velocity": 109,
      "chip": "ym2612"
    },
    {
      "channel": 3,
      "note": 69,
      "start": 57.7351,
      "duration": 0.0664,
      "velocity": 109,
      "chip": "ym2612"
    },
    {
      "channel": 5,
      "note": 90,
      "start": 57.7358,
      "duration": 0.0663,
      "velocity": 127,
      "chip": "ym2612"
    },
    {
      "channel": 2,
      "note": 71,
      "start": 57.8011,
      "duration": 0.0831,
      "velocity": 109,
      "chip": "ym2612"
    },
    {
      "channel": 3,
      "note": 64,
      "start": 57.8017,
      "duration": 0.0832,
      "velocity": 109,
      "chip": "ym2612"
    },
    {
      "channel": 5,
      "note": 69,
      "start": 57.8023,
      "duration": 0.0832,
      "velocity": 127,
      "chip": "ym2612"
    },
    {
      "channel": 2,
      "note": 74,
      "start": 57.8844,
      "duration": 0.0837,
      "velocity": 109,
      "chip": "ym2612"
    },
    {
      "channel": 3,
      "note": 69,
      "start": 57.8849,
      "duration": 0.0838,
      "velocity": 109,
      "chip": "ym2612"
    },
    {
      "channel": 5,
      "note": 90,
      "start": 57.8856,
      "duration": 0.1666,
      "velocity": 127,
      "chip": "ym2612"
    },
    {
      "channel": 0,
      "note": 64,
      "start": 57.9677,
      "duration": 0.3165,
      "velocity": 102,
      "chip": "ym2612"
    },
    {
      "channel": 2,
      "note": 64,
      "start": 57.9683,
      "duration": 0.0826,
      "velocity": 109,
      "chip": "ym2612"
    },
    {
      "channel": 3,
      "note": 71,
      "start": 57.9688,
      "duration": 0.0827,
      "velocity": 109,
      "chip": "ym2612"
    },
    {
      "channel": 2,
      "note": 69,
      "start": 58.0512,
      "duration": 0.0837,
      "velocity": 109,
      "chip": "ym2612"
    },
    {
      "channel": 3,
      "note": 74,
      "start": 58.0517,
      "duration": 0.0836,
      "velocity": 109,
      "chip": "ym2612"
    },
    {
      "channel": 5,
      "note": 90,
      "start": 58.0524,
      "duration": 0.0841,
      "velocity": 127,
      "chip": "ym2612"
    },
    {
      "channel": 1,
      "note": 67,
      "start": 58.1344,
      "duration": 0.317,
      "velocity": 108,
      "chip": "ym2612"
    },
    {
      "channel": 2,
      "note": 71,
      "start": 58.1349,
      "duration": 0.066,
      "velocity": 109,
      "chip": "ym2612"
    },
    {
      "channel": 3,
      "note": 64,
      "start": 58.1355,
      "duration": 0.066,
      "velocity": 109,
      "chip": "ym2612"
    },
    {
      "channel": 4,
      "note": 79,
      "start": 58.1361,
      "duration": 0.317,
      "velocity": 109,
      "chip": "ym2612"
    },
    {
      "channel": 5,
      "note": 69,
      "start": 58.1366,
      "duration": 0.0655,
      "velocity": 127,
      "chip": "ym2612"
    },
    {
      "channel": 2,
      "note": 74,
      "start": 58.2012,
      "duration": 0.0837,
      "velocity": 109,
      "chip": "ym2612"
    },
    {
      "channel": 3,
      "note": 69,
      "start": 58.2017,
      "duration": 0.0837,
      "velocity": 109,
      "chip": "ym2612"
    },
    {
      "channel": 5,
      "note": 90,
      "start": 58.2023,
      "duration": 0.1665,
      "velocity": 127,
      "chip": "ym2612"
    },
    {
      "channel": 0,
      "note": 62,
      "start": 58.2844,
      "duration": 0.1665,
      "velocity": 102,
      "chip": "ym2612"
    },
    {
      "channel": 2,
      "note": 64,
      "start": 58.285,
      "duration": 0.0826,
      "velocity": 109,
      "chip": "ym2612"
    },
    {
      "channel": 3,
      "note": 71,
      "start": 58.2855,
      "duration": 0.0827,
      "velocity": 109,
      "chip": "ym2612"
    },
    {
      "channel": 2,
      "note": 69,
      "start": 58.3678,
      "duration": 0.0841,
      "velocity": 109,
      "chip": "ym2612"
    },
    {
      "channel": 3,
      "note": 74,
      "start": 58.3684,
      "duration": 0.0841,
      "velocity": 109,
      "chip": "ym2612"
    },
    {
      "channel": 5,
      "note": 90,
      "start": 58.369,
      "duration": 0.0846,
      "velocity": 127,
      "chip": "ym2612"
    },
    {
      "channel": 0,
      "note": 64,
      "start": 58.451,
      "duration": 0.1498,
      "velocity": 102,
      "chip": "ym2612"
    },
    {
      "channel": 1,
      "note": 66,
      "start": 58.4516,
      "duration": 0.3165,
      "velocity": 108,
      "chip": "ym2612"
    },
    {
      "channel": 2,
      "note": 71,
      "start": 58.4521,
      "duration": 0.0822,
      "velocity": 109,
      "chip": "ym2612"
    },
    {
      "channel": 3,
      "note": 64,
      "start": 58.4527,
      "duration": 0.0822,
      "velocity": 109,
      "chip": "ym2612"
    },
    {
      "channel": 4,
      "note": 78,
      "start": 58.4532,
      "duration": 0.3165,
      "velocity": 109,
      "chip": "ym2612"
    },
    {
      "channel": 5,
      "note": 69,
      "start": 58.4538,
      "duration": 0.0817,
      "velocity": 127,
      "chip": "ym2612"
    },
    {
      "channel": 2,
      "note": 74,
      "start": 58.5345,
      "duration": 0.0669,
      "velocity": 109,
      "chip": "ym2612"
    },
    {
      "channel": 3,
      "note": 69,
      "start": 58.5351,
      "duration": 0.0669,
      "velocity": 109,
      "chip": "ym2612"
    },
    {
      "channel": 5,
      "note": 90,
      "start": 58.5358,
      "duration": 0.1497,
      "velocity": 127,
      "chip": "ym2612"
    },
    {
      "channel": 0,
      "note": 50,
      "start": 58.601,
      "duration": 0.1665,
      "velocity": 102,
      "chip": "ym2612"
    },
    {
      "channel": 2,
      "note": 64,
      "start": 58.6017,
      "duration": 0.0826,
      "velocity": 109,
      "chip": "ym2612"
    },
    {
      "channel": 3,
      "note": 71,
      "start": 58.6022,
      "duration": 0.0827,
      "velocity": 109,
      "chip": "ym2612"
    },
    {
      "channel": 2,
      "note": 69,
      "start": 58.6845,
      "duration": 0.0841,
      "velocity": 109,
      "chip": "ym2612"
    },
    {
      "channel": 3,
      "note": 74,
      "start": 58.6851,
      "duration": 0.0841,
      "velocity": 109,
      "chip": "ym2612"
    },
    {
      "channel": 5,
      "note": 90,
      "start": 58.6857,
      "duration": 0.0846,
      "velocity": 127,
      "chip": "ym2612"
    },
    {
      "channel": 0,
      "note": 52,
      "start": 58.7677,
      "duration": 0.3165,
      "velocity": 102,
      "chip": "ym2612"
    },
    {
      "channel": 1,
      "note": 62,
      "start": 58.7683,
      "duration": 0.6332,
      "velocity": 108,
      "chip": "ym2612"
    },
    {
      "channel": 2,
      "note": 71,
      "start": 58.7688,
      "duration": 0.0822,
      "velocity": 109,
      "chip": "ym2612"
    },
    {
      "channel": 3,
      "note": 64,
      "start": 58.7693,
      "duration": 0.0822,
      "velocity": 109,
      "chip": "ym2612"
    },
    {
      "channel": 4,
      "note": 74,
      "start": 58.7699,
      "duration": 0.6332,
      "velocity": 109,
      "chip": "ym2612"
    },
    {
      "channel": 5,
      "note": 69,
      "start": 58.7705,
      "duration": 0.0817,
      "velocity": 127,
      "chip": "ym2612"
    },
    {
      "channel": 2,
      "note": 74,
      "start": 58.8512,
      "duration": 0.083,
      "velocity": 109,
      "chip": "ym2612"
    },
    {
      "channel": 3,
      "note": 69,
      "start": 58.8518,
      "duration": 0.083,
      "velocity": 109,
      "chip": "ym2612"
    },
    {
      "channel": 5,
      "note": 90,
      "start": 58.8524,
      "duration": 0.1497,
      "velocity": 127,
      "chip": "ym2612"
    },
    {
      "channel": 2,
      "note": 64,
      "start": 58.9344,
      "duration": 0.0665,
      "velocity": 109,
      "chip": "ym2612"
    },
    {
      "channel": 3,
      "note": 71,
      "start": 58.935,
      "duration": 0.0665,
      "velocity": 109,
      "chip": "ym2612"
    },
    {
      "channel": 2,
      "note": 69,
      "start": 59.0011,
      "duration": 0.0837,
      "velocity": 109,
      "chip": "ym2612"
    },
    {
      "channel": 3,
      "note": 74,
      "start": 59.0017,
      "duration": 0.0837,
      "velocity": 109,
      "chip": "ym2612"
    },
    {
      "channel": 5,
      "note": 90,
      "start": 59.0023,
      "duration": 0.0837,
      "velocity": 127,
      "chip": "ym2612"
    },
    {
      "channel": 0,
      "note": 64,
      "start": 59.0844,
      "duration": 0.3165,
      "velocity": 102,
      "chip": "ym2612"
    },
    {
      "channel": 2,
      "note": 71,
      "start": 59.085,
      "duration": 0.0826,
      "velocity": 109,
      "chip": "ym2612"
    },
    {
      "channel": 3,
      "note": 64,
      "start": 59.0856,
      "duration": 0.0826,
      "velocity": 109,
      "chip": "ym2612"
    },
    {
      "channel": 5,
      "note": 69,
      "start": 59.0862,
      "duration": 0.0826,
      "velocity": 127,
      "chip": "ym2612"
    },
    {
      "channel": 2,
      "note": 72,
      "start": 59.1678,
      "duration": 0.0831,
      "velocity": 109,
      "chip": "ym2612"
    },
    {
      "channel": 3,
      "note": 69,
      "start": 59.1684,
      "duration": 0.0831,
      "velocity": 109,
      "chip": "ym2612"
    },
    {
      "channel": 5,
      "note": 90,
      "start": 59.169,
      "duration": 0.1664,
      "velocity": 127,
      "chip": "ym2612"
    },
    {
      "channel": 2,
      "note": 64,
      "start": 59.2511,
      "duration": 0.0831,
      "velocity": 109,
      "chip": "ym2612"
    },
    {
      "channel": 3,
      "note": 71,
      "start": 59.2517,
      "duration": 0.0832,
      "velocity": 109,
      "chip": "ym2612"
    },
    {
      "channel": 2,
      "note": 69,
      "start": 59.3344,
      "duration": 0.0676,
      "velocity": 109,
      "chip": "ym2612"
    },
    {
      "channel": 3,
      "note": 72,
      "start": 59.335,
      "duration": 0.0675,
      "velocity": 109,
      "chip": "ym2612"
    },
    {
      "channel": 5,
      "note": 90,
      "start": 59.3356,
      "duration": 0.068,
      "velocity": 127,
      "chip": "ym2612"
    },
    {
      "channel": 0,
      "note": 62,
      "start": 59.401,
      "duration": 0.3332,
      "velocity": 102,
      "chip": "ym2612"
    },
    {
      "channel": 1,
      "note": 62,
      "start": 59.4016,
      "duration": 0.166,
      "velocity": 108,
      "chip": "ym2612"
    },
    {
      "channel": 2,
      "note": 71,
      "start": 59.4021,
      "duration": 0.0822,
      "velocity": 109,
      "chip": "ym2612"
    },
    {
      "channel": 3,
      "note": 64,
      "start": 59.4027,
      "duration": 0.0822,
      "velocity": 109,
      "chip": "ym2612"
    },
    {
      "channel": 4,
      "note": 74,
      "start": 59.4032,
      "duration": 0.166,
      "velocity": 109,
      "chip": "ym2612"
    },
    {
      "channel": 5,
      "note": 69,
      "start": 59.4038,
      "duration": 0.0817,
      "velocity": 127,
      "chip": "ym2612"
    },
    {
      "channel": 2,
      "note": 72,
      "start": 59.4845,
      "duration": 0.0837,
      "velocity": 109,
      "chip": "ym2612"
    },
    {
      "channel": 3,
      "note": 69,
      "start": 59.4851,
      "duration": 0.0837,
      "velocity": 109,
      "chip": "ym2612"
    },
    {
      "channel": 5,
      "note": 90,
      "start": 59.4857,
      "duration": 0.1675,
      "velocity": 127,
      "chip": "ym2612"
    },
    {
      "channel": 1,
      "note": 67,
      "start": 59.5678,
      "duration": 0.0831,
      "velocity": 108,
      "chip": "ym2612"
    },
    {
      "channel": 2,
      "note": 64,
      "start": 59.5683,
      "duration": 0.0832,
      "velocity": 109,
      "chip": "ym2612"
    },
    {
      "channel": 3,
      "note": 71,
      "start": 59.5688,
      "duration": 0.0832,
      "velocity": 109,
      "chip": "ym2612"
    },
    {
      "channel": 4,
      "note": 79,
      "start": 59.5694,
      "duration": 0.0831,
      "velocity": 109,
      "chip": "ym2612"
    },
    {
      "channel": 1,
      "note": 69,
      "start": 59.6511,
      "duration": 0.2331,
      "velocity": 108,
      "chip": "ym2612"
    },
    {
      "channel": 2,
      "note": 69,
      "start": 59.6517,
      "duration": 0.0832,
      "velocity": 109,
      "chip": "ym2612"
    },
    {
      "channel": 3,
      "note": 72,
      "start": 59.6522,
      "duration": 0.0833,
      "velocity": 109,
      "chip": "ym2612"
    },
    {
      "channel": 4,
      "note": 81,
      "start": 59.6527,
      "duration": 0.2331,
      "velocity": 109,
      "chip": "ym2612"
    },
    {
      "channel": 5,
      "note": 90,
      "start": 59.6533,
      "duration": 0.0828,
      "velocity": 127,
      "chip": "ym2612"
    },
    {
      "channel": 0,
      "note": 64,
      "start": 59.7344,
      "duration": 0.3164,
      "velocity": 102,
      "chip": "ym2612"
    },
    {
      "channel": 2,
      "note": 71,
      "start": 59.7351,
      "duration": 0.0659,
      "velocity": 109,
      "chip": "ym2612"
    },
    {
      "channel": 3,
      "note": 64,
      "start": 59.7356,
      "duration": 0.066,
      "velocity": 109,
      "chip": "ym2612"
    },
    {
      "channel": 5,
      "note": 69,
      "start": 59.7362,
      "duration": 0.066,
      "velocity": 127,
      "chip": "ym2612"
    },
    {
      "channel": 2,
      "note": 72,
      "start": 59.8012,
      "duration": 0.0837,
      "velocity": 109,
      "chip": "ym2612"
    },
    {
      "channel": 3,
      "note": 69,
      "start": 59.8017,
      "duration": 0.0837,
      "velocity": 109,
      "chip": "ym2612"
    },
    {
      "channel": 5,
      "note": 90,
      "start": 59.8024,
      "duration": 0.1665,
      "velocity": 127,
      "chip": "ym2612"
    },
    {
      "channel": 1,
      "note": 67,
      "start": 59.8844,
      "duration": 0.317,
      "velocity": 108,
      "chip": "ym2612"
    },
    {
      "channel": 2,
      "note": 64,
      "start": 59.8849,
      "duration": 0.0827,
      "velocity": 109,
      "chip": "ym2612"
    },
    {
      "channel": 3,
      "note": 71,
      "start": 59.8855,
      "duration": 0.0827,
      "velocity": 109,
      "chip": "ym2612"
    },
    {
      "channel": 4,
      "note": 79,
      "start": 59.8861,
      "duration": 0.317,
      "velocity": 109,
      "chip": "ym2612"
    },
    {
      "channel": 2,
      "note": 69,
      "start": 59.9678,
      "duration": 0.0837,
      "velocity": 109,
      "chip": "ym2612"
    },
    {
      "channel": 3,
      "note": 72,
      "start": 59.9684,
      "duration": 0.0837,
      "velocity": 109,
      "chip": "ym2612"
    },
    {
      "channel": 5,
      "note": 90,
      "start": 59.969,
      "duration": 0.0837,
      "velocity": 127,
      "chip": "ym2612"
    },
    {
      "channel": 0,
      "note": 50,
      "start": 60.051,
      "duration": 0.1498,
      "velocity": 102,
      "chip": "ym2612"
    },
    {
      "channel": 2,
      "note": 71,
      "start": 60.0517,
      "duration": 0.0826,
      "velocity": 109,
      "chip": "ym2612"
    },
    {
      "channel": 3,
      "note": 64,
      "start": 60.0522,
      "duration": 0.0826,
      "velocity": 109,
      "chip": "ym2612"
    },
    {
      "channel": 5,
      "note": 69,
      "start": 60.0529,
      "duration": 0.0826,
      "velocity": 127,
      "chip": "ym2612"
    },
    {
      "channel": 2,
      "note": 72,
      "start": 60.1345,
      "duration": 0.0675,
      "velocity": 109,
      "chip": "ym2612"
    },
    {
      "channel": 3,
      "note": 69,
      "start": 60.1351,
      "duration": 0.0674,
      "velocity": 109,
      "chip": "ym2612"
    },
    {
      "channel": 5,
      "note": 90,
      "start": 60.1357,
      "duration": 0.1499,
      "velocity": 127,
      "chip": "ym2612"
    },
    {
      "channel": 0,
      "note": 52,
      "start": 60.201,
      "duration": 0.3332,
      "velocity": 102,
      "chip": "ym2612"
    },
    {
      "channel": 1,
      "note": 71,
      "start": 60.2016,
      "duration": 5.1349,
      "velocity": 109,
      "chip": "ym2612"
    },
    {
      "channel": 2,
      "note": 64,
      "start": 60.2021,
      "duration": 0.0822,
      "velocity": 109,
      "chip": "ym2612"
    },
    {
      "channel": 3,
      "note": 71,
      "start": 60.2027,
      "duration": 0.0822,
      "velocity": 109,
      "chip": "ym2612"
    },
    {
      "channel": 4,
      "note": 83,
      "start": 60.2032,
      "duration": 5.1366,
      "velocity": 1,
      "chip": "ym2612"
    },
    {
      "channel": 2,
      "note": 67,
      "start": 60.2845,
      "duration": 0.083,
      "velocity": 109,
      "chip": "ym2612"
    },
    {
      "channel": 3,
      "note": 72,
      "start": 60.2851,
      "duration": 0.083,
      "velocity": 109,
      "chip": "ym2612"
    },
    {
      "channel": 5,
      "note": 90,
      "start": 60.2858,
      "duration": 0.083,
      "velocity": 127,
      "chip": "ym2612"
    },
    {
      "channel": 2,
      "note": 69,
      "start": 60.3678,
      "duration": 0.0831,
      "velocity": 109,
      "chip": "ym2612"
    },
    {
      "channel": 3,
      "note": 64,
      "start": 60.3683,
      "duration": 0.0832,
      "velocity": 109,
      "chip": "ym2612"
    },
    {
      "channel": 5,
      "note": 69,
      "start": 60.369,
      "duration": 0.0832,
      "velocity": 127,
      "chip": "ym2612"
    },
    {
      "channel": 2,
      "note": 71,
      "start": 60.4511,
      "duration": 0.0837,
      "velocity": 109,
      "chip": "ym2612"
    },
    {
      "channel": 3,
      "note": 67,
      "start": 60.4517,
      "duration": 0.0837,
      "velocity": 109,
      "chip": "ym2612"
    },
    {
      "channel": 5,
      "note": 90,
      "start": 60.4523,
      "duration": 0.1499,
      "velocity": 127,
      "chip": "ym2612"
    },
    {
      "channel": 0,
      "note": 64,
      "start": 60.5344,
      "duration": 0.3165,
      "velocity": 102,
      "chip": "ym2612"
    },
    {
      "channel": 2,
      "note": 64,
      "start": 60.535,
      "duration": 0.066,
      "velocity": 109,
      "chip": "ym2612"
    },
    {
      "channel": 3,
      "note": 69,
      "start": 60.5355,
      "duration": 0.066,
      "velocity": 109,
      "chip": "ym2612"
    },
    {
      "channel": 2,
      "note": 67,
      "start": 60.6012,
      "duration": 0.0831,
      "velocity": 109,
      "chip": "ym2612"
    },
    {
      "channel": 3,
      "note": 71,
      "start": 60.6017,
      "duration": 0.0831,
      "velocity": 109,
      "chip": "ym2612"
    },
    {
      "channel": 5,
      "note": 90,
      "start": 60.6024,
      "duration": 0.0831,
      "velocity": 127,
      "chip": "ym2612"
    },
    {
      "channel": 2,
      "note": 69,
      "start": 60.6844,
      "duration": 0.0831,
      "velocity": 109,
      "chip": "ym2612"
    },
    {
      "channel": 3,
      "note": 64,
      "start": 60.685,
      "duration": 0.0832,
      "velocity": 109,
      "chip": "ym2612"
    },
    {
      "channel": 5,
      "note": 69,
      "start": 60.6856,
      "duration": 0.0832,
      "velocity": 127,
      "chip": "ym2612"
    },
    {
      "channel": 2,
      "note": 71,
      "start": 60.7678,
      "duration": 0.0854,
      "velocity": 109,
      "chip": "ym2612"
    },
    {
      "channel": 3,
      "note": 67,
      "start": 60.7683,
      "duration": 0.0853,
      "velocity": 109,
      "chip": "ym2612"
    },
    {
      "channel": 5,
      "note": 90,
      "start": 60.769,
      "duration": 0.1666,
      "velocity": 127,
      "chip": "ym2612"
    },
    {
      "channel": 0,
      "note": 62,
      "start": 60.851,
      "duration": 0.1498,
      "velocity": 102,
      "chip": "ym2612"
    },
    {
      "channel": 2,
      "note": 64,
      "start": 60.8532,
      "duration": 0.0811,
      "velocity": 109,
      "chip": "ym2612"
    },
    {
      "channel": 3,
      "note": 69,
      "start": 60.8538,
      "duration": 0.0811,
      "velocity": 109,
      "chip": "ym2612"
    },
    {
      "channel": 2,
      "note": 67,
      "start": 60.9345,
      "duration": 0.0669,
      "velocity": 109,
      "chip": "ym2612"
    },
    {
      "channel": 3,
      "note": 71,
      "start": 60.9351,
      "duration": 0.0669,
      "velocity": 109,
      "chip": "ym2612"
    },
    {
      "channel": 5,
      "note": 90,
      "start": 60.9358,
      "duration": 0.0669,
      "velocity": 127,
      "chip": "ym2612"
    },
    {
      "channel": 0,
      "note": 64,
      "start": 61.001,
      "duration": 0.1665,
      "velocity": 102,
      "chip": "ym2612"
    },
    {
      "channel": 2,
      "note": 69,
      "start": 61.0017,
      "duration": 0.0826,
      "velocity": 109,
      "chip": "ym2612"
    },
    {
      "channel": 3,
      "note": 64,
      "start": 61.0022,
      "duration": 0.0826,
      "velocity": 109,
      "chip": "ym2612"
    },
    {
      "channel": 5,
      "note": 69,
      "start": 61.0029,
      "duration": 0.0826,
      "velocity": 127,
      "chip": "ym2612"
    },
    {
      "channel": 2,
      "note": 71,
      "start": 61.0845,
      "duration": 0.0837,
      "velocity": 109,
      "chip": "ym2612"
    },
    {
      "channel": 3,
      "note": 67,
      "start": 61.0851,
      "duration": 0.0837,
      "velocity": 109,
      "chip": "ym2612"
    },
    {
      "channel": 5,
      "note": 90,
      "start": 61.0857,
      "duration": 0.1665,
      "velocity": 127,
      "chip": "ym2612"
    },
    {
      "channel": 0,
      "note": 50,
      "start": 61.1677,
      "duration": 0.1665,
      "velocity": 102,
      "chip": "ym2612"
    },
    {
      "channel": 2,
      "note": 64,
      "start": 61.1683,
      "duration": 0.0826,
      "velocity": 109,
      "chip": "ym2612"
    },
    {
      "channel": 3,
      "note": 69,
      "start": 61.1688,
      "duration": 0.0827,
      "velocity": 109,
      "chip": "ym2612"
    },
    {
      "channel": 2,
      "note": 67,
      "start": 61.2512,
      "duration": 0.0837,
      "velocity": 109,
      "chip": "ym2612"
    },
    {
      "channel": 3,
      "note": 71,
      "start": 61.2517,
      "duration": 0.0837,
      "velocity": 109,
      "chip": "ym2612"
    },
    {
      "channel": 5,
      "note": 90,
      "start": 61.2524,
      "duration": 0.0837,
      "velocity": 127,
      "chip": "ym2612"
    },
    {
      "channel": 0,
      "note": 52,
      "start": 61.3344,
      "duration": 0.3165,
      "velocity": 102,
      "chip": "ym2612"
    },
    {
      "channel": 2,
      "note": 69,
      "start": 61.335,
      "duration": 0.066,
      "velocity": 109,
      "chip": "ym2612"
    },
    {
      "channel": 3,
      "note": 64,
      "start": 61.3355,
      "duration": 0.066,
      "velocity": 109,
      "chip": "ym2612"
    },
    {
      "channel": 5,
      "note": 69,
      "start": 61.3361,
      "duration": 0.066,
      "velocity": 127,
      "chip": "ym2612"
    },
    {
      "channel": 2,
      "note": 71,
      "start": 61.4012,
      "duration": 0.0848,
      "velocity": 109,
      "chip": "ym2612"
    },
    {
      "channel": 3,
      "note": 67,
      "start": 61.4017,
      "duration": 0.0848,
      "velocity": 109,
      "chip": "ym2612"
    },
    {
      "channel": 5,
      "note": 90,
      "start": 61.4024,
      "duration": 0.1665,
      "velocity": 127,
      "chip": "ym2612"
    },
    {
      "channel": 2,
      "note": 64,
      "start": 61.4861,
      "duration": 0.0815,
      "velocity": 109,
      "chip": "ym2612"
    },
    {
      "channel": 3,
      "note": 69,
      "start": 61.4866,
      "duration": 0.0815,
      "velocity": 109,
      "chip": "ym2612"
    },
    {
      "channel": 2,
      "note": 66,
      "start": 61.5678,
      "duration": 0.0837,
      "velocity": 109,
      "chip": "ym2612"
    },
    {
      "channel": 3,
      "note": 71,
      "start": 61.5684,
      "duration": 0.0837,
      "velocity": 109,
      "chip": "ym2612"
    },
    {
      "channel": 5,
      "note": 90,
      "start": 61.569,
      "duration": 0.0837,
      "velocity": 127,
      "chip": "ym2612"
    },
    {
      "channel": 0,
      "note": 64,
      "start": 61.651,
      "duration": 0.3165,
      "velocity": 102,
      "chip": "ym2612"
    },
    {
      "channel": 2,
      "note": 67,
      "start": 61.6517,
      "duration": 0.0826,
      "velocity": 109,
      "chip": "ym2612"
    },
    {
      "channel": 3,
      "note": 64,
      "start": 61.6522,
      "duration": 0.0826,
      "velocity": 109,
      "chip": "ym2612"
    },
    {
      "channel": 5,
      "note": 69,
      "start": 61.6529,
      "duration": 0.0826,
      "velocity": 127,
      "chip": "ym2612"
    },
    {
      "channel": 2,
      "note": 69,
      "start": 61.7345,
      "duration": 0.0664,
      "velocity": 109,
      "chip": "ym2612"
    },
    {
      "channel": 3,
      "note": 66,
      "start": 61.7351,
      "duration": 0.0664,
      "velocity": 109,
      "chip": "ym2612"
    },
    {
      "channel": 5,
      "note": 90,
      "start": 61.7357,
      "duration": 0.1498,
      "velocity": 127,
      "chip": "ym2612"
    },
    {
      "channel": 2,
      "note": 64,
      "start": 61.8011,
      "duration": 0.0831,
      "velocity": 109,
      "chip": "ym2612"
    },
    {
      "channel": 3,
      "note": 67,
      "start": 61.8017,
      "duration": 0.0832,
      "velocity": 109,
      "chip": "ym2612"
    },
    {
      "channel": 2,
      "note": 66,
      "start": 61.8844,
      "duration": 0.0837,
      "velocity": 109,
      "chip": "ym2612"
    },
    {
      "channel": 3,
      "note": 69,
      "start": 61.885,
      "duration": 0.0837,
      "velocity": 109,
      "chip": "ym2612"
    },
    {
      "channel": 5,
      "note": 90,
      "start": 61.8856,
      "duration": 0.0837,
      "velocity": 127,
      "chip": "ym2612"
    },
    {
      "channel": 0,
      "note": 62,
      "start": 61.9677,
      "duration": 0.3165,
      "velocity": 102,
      "chip": "ym2612"
    },
    {
      "channel": 2,
      "note": 67,
      "start": 61.9683,
      "duration": 0.0826,
      "velocity": 109,
      "chip": "ym2612"
    },
    {
      "channel": 3,
      "note": 64,
      "start": 61.9689,
      "duration": 0.0826,
      "velocity": 109,
      "chip": "ym2612"
    },
    {
      "channel": 5,
      "note": 69,
      "start": 61.9695,
      "duration": 0.0826,
      "velocity": 127,
      "chip": "ym2612"
    },
    {
      "channel": 2,
      "note": 69,
      "start": 62.0512,
      "duration": 0.0831,
      "velocity": 109,
      "chip": "ym2612"
    },
    {
      "channel": 3,
      "note": 66,
      "start": 62.0517,
      "duration": 0.0831,
      "velocity": 109,
      "chip": "ym2612"
    },
    {
      "channel": 5,
      "note": 90,
      "start": 62.0524,
      "duration": 0.1498,
      "velocity": 127,
      "chip": "ym2612"
    },
    {
      "channel": 2,
      "note": 64,
      "start": 62.1344,
      "duration": 0.0665,
      "velocity": 109,
      "chip": "ym2612"
    },
    {
      "channel": 3,
      "note": 67,
      "start": 62.135,
      "duration": 0.0665,
      "velocity": 109,
      "chip": "ym2612"
    },
    {
      "channel": 2,
      "note": 66,
      "start": 62.2011,
      "duration": 0.0837,
      "velocity": 109,
      "chip": "ym2612"
    },
    {
      "channel": 3,
      "note": 69,
      "start": 62.2017,
      "duration": 0.0837,
      "velocity": 109,
      "chip": "ym2612"
    },
    {
      "channel": 5,
      "note": 90,
      "start": 62.2023,
      "duration": 0.0837,
      "velocity": 127,
      "chip": "ym2612"
    },
    {
      "channel": 0,
      "note": 64,
      "start": 62.2844,
      "duration": 0.3165,
      "velocity": 102,
      "chip": "ym2612"
    },
    {
      "channel": 2,
      "note": 67,
      "start": 62.285,
      "duration": 0.0826,
      "velocity": 109,
      "chip": "ym2612"
    },
    {
      "channel": 3,
      "note": 64,
      "start": 62.2856,
      "duration": 0.0826,
      "velocity": 109,
      "chip": "ym2612"
    },
    {
      "channel": 5,
      "note": 69,
      "start": 62.2862,
      "duration": 0.0826,
      "velocity": 127,
      "chip": "ym2612"
    },
    {
      "channel": 2,
      "note": 69,
      "start": 62.3678,
      "duration": 0.0831,
      "velocity": 109,
      "chip": "ym2612"
    },
    {
      "channel": 3,
      "note": 66,
      "start": 62.3684,
      "duration": 0.0831,
      "velocity": 109,
      "chip": "ym2612"
    },
    {
      "channel": 5,
      "note": 90,
      "start": 62.369,
      "duration": 0.4838,
      "velocity": 127,
      "chip": "ym2612"
    },
    {
      "channel": 2,
      "note": 64,
      "start": 62.4511,
      "duration": 0.0831,
      "velocity": 109,
      "chip": "ym2612"
    },
    {
      "channel": 3,
      "note": 67,
      "start": 62.4517,
      "duration": 0.0832,
      "velocity": 109,
      "chip": "ym2612"
    },
    {
      "channel": 2,
      "note": 66,
      "start": 62.5344,
      "duration": 0.0671,
      "velocity": 109,
      "chip": "ym2612"
    },
    {
      "channel": 3,
      "note": 69,
      "start": 62.535,
      "duration": 0.0671,
      "velocity": 109,
      "chip": "ym2612"
    },
    {
      "channel": 0,
      "note": 50,
      "start": 62.601,
      "duration": 0.1666,
      "velocity": 102,
      "chip": "ym2612"
    },
    {
      "channel": 2,
      "note": 67,
      "start": 62.6017,
      "duration": 0.0826,
      "velocity": 109,
      "chip": "ym2612"
    },
    {
      "channel": 3,
      "note": 64,
      "start": 62.6022,
      "duration": 0.0827,
      "velocity": 109,
      "chip": "ym2612"
    },
    {
      "channel": 2,
      "note": 69,
      "start": 62.6845,
      "duration": 0.0854,
      "velocity": 110,
      "chip": "ym2612"
    },
    {
      "channel": 3,
      "note": 66,
      "start": 62.6851,
      "duration": 0.0871,
      "velocity": 110,
      "chip": "ym2612"
    },
    {
      "channel": 0,
      "note": 48,
      "start": 62.7678,
      "duration": 0.4829,
      "velocity": 102,
      "chip": "ym2612"
    },
    {
      "channel": 2,
      "note": 64,
      "start": 62.7701,
      "duration": 1.2813,
      "velocity": 110,
      "chip": "ym2612"
    },
    {
      "channel": 3,
      "note": 67,
      "start": 62.7723,
      "duration": 1.2796,
      "velocity": 110,
      "chip": "ym2612"
    },
    {
      "channel": 5,
      "note": 90,
      "start": 62.8531,
      "duration": 0.0814,
      "velocity": 127,
      "chip": "ym2612"
    },
    {
      "channel": 5,
      "note": 69,
      "start": 62.9346,
      "duration": 0.0664,
      "velocity": 127,
      "chip": "ym2612"
    },
    {
      "channel": 5,
      "note": 90,
      "start": 63.0012,
      "duration": 0.1665,
      "velocity": 127,
      "chip": "ym2612"
    },
    {
      "channel": 5,
      "note": 90,
      "start": 63.1679,
      "duration": 0.0837,
      "velocity": 127,
      "chip": "ym2612"
    },
    {
      "channel": 0,
      "note": 60,
      "start": 63.2509,
      "duration": 0.3166,
      "velocity": 102,
      "chip": "ym2612"
    },
    {
      "channel": 5,
      "note": 69,
      "start": 63.2517,
      "duration": 0.0827,
      "velocity": 127,
      "chip": "ym2612"
    },
    {
      "channel": 5,
      "note": 90,
      "start": 63.3345,
      "duration": 0.1498,
      "velocity": 127,
      "chip": "ym2612"
    },
    {
      "channel": 5,
      "note": 90,
      "start": 63.4845,
      "duration": 0.0837,
      "velocity": 127,
      "chip": "ym2612"
    },
    {
      "channel": 0,
      "note": 48,
      "start": 63.5676,
      "duration": 0.1666,
      "velocity": 102,
      "chip": "ym2612"
    },
    {
      "channel": 5,
      "note": 69,
      "start": 63.5684,
      "duration": 0.0827,
      "velocity": 127,
      "chip": "ym2612"
    },
    {
      "channel": 5,
      "note": 90,
      "start": 63.6512,
      "duration": 0.1499,
      "velocity": 127,
      "chip": "ym2612"
    },
    {
      "channel": 0,
      "note": 60,
      "start": 63.7343,
      "duration": 0.1498,
      "velocity": 102,
      "chip": "ym2612"
    },
    {
      "channel": 5,
      "note": 90,
      "start": 63.8012,
      "duration": 0.0837,
      "velocity": 127,
      "chip": "ym2612"
    },
    {
      "channel": 0,
      "note": 57,
      "start": 63.8842,
      "duration": 0.1666,
      "velocity": 102,
      "chip": "ym2612"
    },
    {
      "channel": 5,
      "note": 69,
      "start": 63.8851,
      "duration": 0.0827,
      "velocity": 127,
      "chip": "ym2612"
    },
    {
      "channel": 5,
      "note": 90,
      "start": 63.9679,
      "duration": 0.1666,
      "velocity": 127,
      "chip": "ym2612"
    },
    {
      "channel": 0,
      "note": 50,
      "start": 64.051,
      "duration": 0.4832,
      "velocity": 102,
      "chip": "ym2612"
    },
    {
      "channel": 2,
      "note": 62,
      "start": 64.0516,
      "duration": 1.2855,
      "velocity": 110,
      "chip": "ym2612"
    },
    {
      "channel": 3,
      "note": 66,
      "start": 64.0522,
      "duration": 1.2856,
      "velocity": 110,
      "chip": "ym2612"
    },
    {
      "channel": 5,
      "note": 90,
      "start": 64.1347,
      "duration": 0.0663,
      "velocity": 127,
      "chip": "ym2612"
    },
    {
      "channel": 5,
      "note": 69,
      "start": 64.2012,
      "duration": 0.0832,
      "velocity": 127,
      "chip": "ym2612"
    },
    {
      "channel": 5,
      "note": 90,
      "start": 64.2845,
      "duration": 0.1665,
      "velocity": 127,
      "chip": "ym2612"
    },
    {
      "channel": 5,
      "note": 90,
      "start": 64.4512,
      "duration": 0.0837,
      "velocity": 127,
      "chip": "ym2612"
    },
    {
      "channel": 0,
      "note": 62,
      "start": 64.5342,
      "duration": 0.3166,
      "velocity": 102,
      "chip": "ym2612"
    },
    {
      "channel": 5,
      "note": 69,
      "start": 64.5351,
      "duration": 0.066,
      "velocity": 127,
      "chip": "ym2612"
    },
    {
      "channel": 5,
      "note": 90,
      "start": 64.6012,
      "duration": 0.1665,
      "velocity": 127,
      "chip": "ym2612"
    },
    {
      "channel": 5,
      "note": 90,
      "start": 64.7679,
      "duration": 0.0837,
      "velocity": 127,
      "chip": "ym2612"
    },
    {
      "channel": 0,
      "note": 57,
      "start": 64.8509,
      "duration": 0.1499,
      "velocity": 102,
      "chip": "ym2612"
    },
    {
      "channel": 5,
      "note": 69,
      "start": 64.8517,
      "duration": 0.0827,
      "velocity": 127,
      "chip": "ym2612"
    },
    {
      "channel": 5,
      "note": 90,
      "start": 64.9345,
      "duration": 0.1499,
      "velocity": 127,
      "chip": "ym2612"
    },
    {
      "channel": 0,
      "note": 59,
      "start": 65.0009,
      "duration": 0.1666,
      "velocity": 102,
      "chip": "ym2612"
    },
    {
      "channel": 5,
      "note": 90,
      "start": 65.0845,
      "duration": 0.0837,
      "velocity": 127,
      "chip": "ym2612"
    },
    {
      "channel": 0,
      "note": 62,
      "start": 65.1676,
      "duration": 0.1667,
      "velocity": 102,
      "chip": "ym2612"
    },
    {
      "channel": 5,
      "note": 69,
      "start": 65.1684,
      "duration": 0.0828,
      "velocity": 127,
      "chip": "ym2612"
    },
    {
      "channel": 5,
      "note": 90,
      "start": 65.2513,
      "duration": 0.15,
      "velocity": 127,
      "chip": "ym2612"
    },
    {
      "channel": 0,
      "note": 52,
      "start": 65.3344,
      "duration": 0.3163,
      "velocity": 102,
      "chip": "ym2612"
    },
    {
      "channel": 1,
      "note": 64,
      "start": 65.3366,
      "duration": 2.5497,
      "velocity": 97,
      "chip": "ym2612"
    },
    {
      "channel": 2,
      "note": 64,
      "start": 65.3373,
      "duration": 5.1165,
      "velocity": 110,
      "chip": "ym2612"
    },
    {
      "channel": 3,
      "note": 59,
      "start": 65.3378,
      "duration": 5.1166,
      "velocity": 110,
      "chip": "ym2612"
    },
    {
      "channel": 4,
      "note": 74,
      "start": 65.3401,
      "duration": 5.115,
      "velocity": 1,
      "chip": "ym2612"
    },
    {
      "channel": 5,
      "note": 90,
      "start": 65.4014,
      "duration": 0.0829,
      "velocity": 127,
      "chip": "ym2612"
    },
    {
      "channel": 5,
      "note": 69,
      "start": 65.4845,
      "duration": 0.0832,
      "velocity": 127,
      "chip": "ym2612"
    },
    {
      "channel": 5,
      "note": 90,
      "start": 65.5679,
      "duration": 0.1666,
      "velocity": 127,
      "chip": "ym2612"
    },
    {
      "channel": 0,
      "note": 64,
      "start": 65.651,
      "duration": 0.3165,
      "velocity": 102,
      "chip": "ym2612"
    },
    {
      "channel": 5,
      "note": 90,
      "start": 65.7346,
      "duration": 0.0664,
      "velocity": 127,
      "chip": "ym2612"
    },
    {
      "channel": 5,
      "note": 69,
      "start": 65.8012,
      "duration": 0.0832,
      "velocity": 127,
      "chip": "ym2612"
    },
    {
      "channel": 5,
      "note": 90,
      "start": 65.8845,
      "duration": 0.1666,
      "velocity": 127,
      "chip": "ym2612"
    },
    {
      "channel": 0,
      "note": 62,
      "start": 65.9676,
      "duration": 0.1665,
      "velocity": 102,
      "chip": "ym2612"
    },
    {
      "channel": 5,
      "note": 90,
      "start": 66.0513,
      "duration": 0.0837,
      "velocity": 127,
      "chip": "ym2612"
    },
    {
      "channel": 0,
      "note": 64,
      "start": 66.1343,
      "duration": 0.1498,
      "velocity": 102,
      "chip": "ym2612"
    },
    {
      "channel": 5,
      "note": 69,
      "start": 66.1351,
      "duration": 0.066,
      "velocity": 127,
      "chip": "ym2612"
    },
    {
      "channel": 5,
      "note": 90,
      "start": 66.2013,
      "duration": 0.1665,
      "velocity": 127,
      "chip": "ym2612"
    },
    {
      "channel": 0,
      "note": 50,
      "start": 66.2843,
      "duration": 0.1666,
      "velocity": 102,
      "chip": "ym2612"
    },
    {
      "channel": 5,
      "note": 90,
      "start": 66.3679,
      "duration": 0.0837,
      "velocity": 127,
      "chip": "ym2612"
    },
    {
      "channel": 0,
      "note": 52,
      "start": 66.451,
      "duration": 0.3165,
      "velocity": 102,
      "chip": "ym2612"
    },
    {
      "channel": 5,
      "note": 69,
      "start": 66.4518,
      "duration": 0.0826,
      "velocity": 127,
      "chip": "ym2612"
    },
    {
      "channel": 5,
      "note": 90,
      "start": 66.5346,
      "duration": 0.1498,
      "velocity": 127,
      "chip": "ym2612"
    },
    {
      "channel": 5,
      "note": 90,
      "start": 66.6845,
      "duration": 0.0837,
      "velocity": 127,
      "chip": "ym2612"
    },
    {
      "channel": 0,
      "note": 64,
      "start": 66.7676,
      "duration": 0.3165,
      "velocity": 102,
      "chip": "ym2612"
    },
    {
      "channel": 5,
      "note": 69,
      "start": 66.7685,
      "duration": 0.0826,
      "velocity": 127,
      "chip": "ym2612"
    },
    {
      "channel": 5,
      "note": 90,
      "start": 66.8513,
      "duration": 0.1498,
      "velocity": 127,
      "chip": "ym2612"
    },
    {
      "channel": 5,
      "note": 90,
      "start": 67.0012,
      "duration": 0.0837,
      "velocity": 127,
      "chip": "ym2612"
    },
    {
      "channel": 0,
      "note": 62,
      "start": 67.0843,
      "duration": 0.3166,
      "velocity": 102,
      "chip": "ym2612"
    },
    {
      "channel": 5,
      "note": 69,
      "start": 67.0851,
      "duration": 0.0826,
      "velocity": 127,
      "chip": "ym2612"
    },
    {
      "channel": 5,
      "note": 90,
      "start": 67.1679,
      "duration": 0.1664,
      "velocity": 127,
      "chip": "ym2612"
    },
    {
      "channel": 5,
      "note": 90,
      "start": 67.3345,
      "duration": 0.0671,
      "velocity": 127,
      "chip": "ym2612"
    },
    {
      "channel": 0,
      "note": 64,
      "start": 67.401,
      "duration": 0.3332,
      "velocity": 102,
      "chip": "ym2612"
    },
    {
      "channel": 5,
      "note": 69,
      "start": 67.4018,
      "duration": 0.0826,
      "velocity": 127,
      "chip": "ym2612"
    },
    {
      "channel": 5,
      "note": 90,
      "start": 67.4846,
      "duration": 0.1664,
      "velocity": 127,
      "chip": "ym2612"
    },
    {
      "channel": 5,
      "note": 90,
      "start": 67.6512,
      "duration": 0.0837,
      "velocity": 127,
      "chip": "ym2612"
    },
    {
      "channel": 0,
      "note": 50,
      "start": 67.7343,
      "duration": 0.1498,
      "velocity": 102,
      "chip": "ym2612"
    },
    {
      "channel": 5,
      "note": 69,
      "start": 67.7351,
      "duration": 0.066,
      "velocity": 127,
      "chip": "ym2612"
    },
    {
      "channel": 5,
      "note": 90,
      "start": 67.8013,
      "duration": 0.1665,
      "velocity": 127,
      "chip": "ym2612"
    },
    {
      "channel": 0,
      "note": 52,
      "start": 67.8843,
      "duration": 0.3165,
      "velocity": 102,
      "chip": "ym2612"
    },
    {
      "channel": 1,
      "note": 52,
      "start": 67.8865,
      "duration": 2.5667,
      "velocity": 115,
      "chip": "ym2612"
    },
    {
      "channel": 5,
      "note": 90,
      "start": 67.9679,
      "duration": 0.0831,
      "velocity": 127,
      "chip": "ym2612"
    },
    {
      "channel": 5,
      "note": 69,
      "start": 68.0512,
      "duration": 0.0832,
      "velocity": 127,
      "chip": "ym2612"
    },
    {
      "channel": 5,
      "note": 90,
      "start": 68.1345,
      "duration": 0.1499,
      "velocity": 127,
      "chip": "ym2612"
    },
    {
      "channel": 0,
      "note": 64,
      "start": 68.201,
      "duration": 0.3332,
      "velocity": 102,
      "chip": "ym2612"
    },
    {
      "channel": 5,
      "note": 90,
      "start": 68.2846,
      "duration": 0.0831,
      "velocity": 127,
      "chip": "ym2612"
    },
    {
      "channel": 5,
      "note": 69,
      "start": 68.3679,
      "duration": 0.0832,
      "velocity": 127,
      "chip": "ym2612"
    },
    {
      "channel": 5,
      "note": 90,
      "start": 68.4512,
      "duration": 0.1499,
      "velocity": 127,
      "chip": "ym2612"
    },
    {
      "channel": 0,
      "note": 62,
      "start": 68.5343,
      "duration": 0.1498,
      "velocity": 102,
      "chip": "ym2612"
    },
    {
      "channel": 5,
      "note": 90,
      "start": 68.6013,
      "duration": 0.0837,
      "velocity": 127,
      "chip": "ym2612"
    },
    {
      "channel": 0,
      "note": 64,
      "start": 68.6843,
      "duration": 0.1665,
      "velocity": 102,
      "chip": "ym2612"
    },
    {
      "channel": 5,
      "note": 69,
      "start": 68.6851,
      "duration": 0.0826,
      "velocity": 127,
      "chip": "ym2612"
    },
    {
      "channel": 5,
      "note": 90,
      "start": 68.7679,
      "duration": 0.1665,
      "velocity": 127,
      "chip": "ym2612"
    },
    {
      "channel": 0,
      "note": 50,
      "start": 68.851,
      "duration": 0.1498,
      "velocity": 102,
      "chip": "ym2612"
    },
    {
      "channel": 5,
      "note": 90,
      "start": 68.9346,
      "duration": 0.067,
      "velocity": 127,
      "chip": "ym2612"
    },
    {
      "channel": 0,
      "note": 52,
      "start": 69.001,
      "duration": 0.3332,
      "velocity": 102,
      "chip": "ym2612"
    },
    {
      "channel": 5,
      "note": 69,
      "start": 69.0018,
      "duration": 0.0826,
      "velocity": 127,
      "chip": "ym2612"
    },
    {
      "channel": 5,
      "note": 90,
      "start": 69.0846,
      "duration": 0.1664,
      "velocity": 127,
      "chip": "ym2612"
    },
    {
      "channel": 5,
      "note": 90,
      "start": 69.2512,
      "duration": 0.0837,
      "velocity": 127,
      "chip": "ym2612"
    },
    {
      "channel": 0,
      "note": 64,
      "start": 69.3343,
      "duration": 0.3165,
      "velocity": 102,
      "chip": "ym2612"
    },
    {
      "channel": 5,
      "note": 69,
      "start": 69.3351,
      "duration": 0.066,
      "velocity": 127,
      "chip": "ym2612"
    },
    {
      "channel": 5,
      "note": 90,
      "start": 69.4013,
      "duration": 0.1664,
      "velocity": 127,
      "chip": "ym2612"
    },
    {
      "channel": 5,
      "note": 90,
      "start": 69.5679,
      "duration": 0.0837,
      "velocity": 127,
      "chip": "ym2612"
    },
    {
      "channel": 0,
      "note": 62,
      "start": 69.651,
      "duration": 0.3165,
      "velocity": 102,
      "chip": "ym2612"
    },
    {
      "channel": 5,
      "note": 69,
      "start": 69.6518,
      "duration": 0.0826,
      "velocity": 127,
      "chip": "ym2612"
    },
    {
      "channel": 5,
      "note": 90,
      "start": 69.7346,
      "duration": 0.1498,
      "velocity": 127,
      "chip": "ym2612"
    },
    {
      "channel": 5,
      "note": 90,
      "start": 69.8845,
      "duration": 0.0837,
      "velocity": 127,
      "chip": "ym2612"
    },
    {
      "channel": 0,
      "note": 64,
      "start": 69.9676,
      "duration": 0.3165,
      "velocity": 102,
      "chip": "ym2612"
    },
    {
      "channel": 5,
      "note": 69,
      "start": 69.9685,
      "duration": 0.0826,
      "velocity": 127,
      "chip": "ym2612"
    },
    {
      "channel": 5,
      "note": 90,
      "start": 70.0513,
      "duration": 0.4059,
      "velocity": 1,
      "chip": "ym2612"
    },
    {
      "channel": 0,
      "note": 50,
      "start": 70.2843,
      "duration": 0.1667,
      "velocity": 102,
      "chip": "ym2612"
    },
    {
      "channel": 0,
      "note": 52,
      "start": 70.4512,
      "duration": 0.3163,
      "velocity": 102,
      "chip": "ym2612"
    },
    {
      "channel": 1,
      "note": 52,
      "start": 70.4534,
      "duration": 0.1474,
      "velocity": 115,
      "chip": "ym2612"
    },
    {
      "channel": 2,
      "note": 64,
      "start": 70.4539,
      "duration": 5.1165,
      "velocity": 104,
      "chip": "ym2612"
    },
    {
      "channel": 3,
      "note": 59,
      "start": 70.4546,
      "duration": 5.1181,
      "velocity": 1,
      "chip": "ym2612"
    },
    {
      "channel": 4,
      "note": 74,
      "start": 70.4552,
      "duration": 5.1181,
      "velocity": 1,
      "chip": "ym2612"
    },
    {
      "channel": 5,
      "note": 74,
      "start": 70.4574,
      "duration": 5.1165,
      "velocity": 1,
      "chip": "ym2612"
    },
    {
      "channel": 1,
      "note": 52,
      "start": 70.601,
      "duration": 0.1671,
      "velocity": 115,
      "chip": "ym2612"
    },
    {
      "channel": 0,
      "note": 64,
      "start": 70.7676,
      "duration": 0.3165,
      "velocity": 102,
      "chip": "ym2612"
    },
    {
      "channel": 1,
      "note": 50,
      "start": 70.7682,
      "duration": 0.1659,
      "velocity": 115,
      "chip": "ym2612"
    },
    {
      "channel": 1,
      "note": 52,
      "start": 70.9343,
      "duration": 0.1503,
      "velocity": 115,
      "chip": "ym2612"
    },
    {
      "channel": 0,
      "note": 62,
      "start": 71.0842,
      "duration": 0.1666,
      "velocity": 102,
      "chip": "ym2612"
    },
    {
      "channel": 1,
      "note": 52,
      "start": 71.0848,
      "duration": 0.1665,
      "velocity": 115,
      "chip": "ym2612"
    },
    {
      "channel": 0,
      "note": 64,
      "start": 71.251,
      "duration": 0.1498,
      "velocity": 102,
      "chip": "ym2612"
    },
    {
      "channel": 1,
      "note": 52,
      "start": 71.2515,
      "duration": 0.1498,
      "velocity": 115,
      "chip": "ym2612"
    },
    {
      "channel": 0,
      "note": 50,
      "start": 71.4009,
      "duration": 0.1666,
      "velocity": 102,
      "chip": "ym2612"
    },
    {
      "channel": 1,
      "note": 50,
      "start": 71.4015,
      "duration": 0.1665,
      "velocity": 115,
      "chip": "ym2612"
    },
    {
      "channel": 0,
      "note": 52,
      "start": 71.5676,
      "duration": 0.3166,
      "velocity": 102,
      "chip": "ym2612"
    },
    {
      "channel": 1,
      "note": 52,
      "start": 71.5681,
      "duration": 0.166,
      "velocity": 115,
      "chip": "ym2612"
    },
    {
      "channel": 1,
      "note": 52,
      "start": 71.7343,
      "duration": 0.1503,
      "velocity": 115,
      "chip": "ym2612"
    },
    {
      "channel": 0,
      "note": 64,
      "start": 71.8842,
      "duration": 0.3166,
      "velocity": 102,
      "chip": "ym2612"
    },
    {
      "channel": 1,
      "note": 52,
      "start": 71.8848,
      "duration": 0.166,
      "velocity": 115,
      "chip": "ym2612"
    },
    {
      "channel": 1,
      "note": 50,
      "start": 72.051,
      "duration": 0.1503,
      "velocity": 115,
      "chip": "ym2612"
    },
    {
      "channel": 0,
      "note": 62,
      "start": 72.2009,
      "duration": 0.3332,
      "velocity": 102,
      "chip": "ym2612"
    },
    {
      "channel": 1,
      "note": 52,
      "start": 72.2015,
      "duration": 0.166,
      "velocity": 115,
      "chip": "ym2612"
    },
    {
      "channel": 1,
      "note": 55,
      "start": 72.3676,
      "duration": 0.1671,
      "velocity": 115,
      "chip": "ym2612"
    },
    {
      "channel": 0,
      "note": 64,
      "start": 72.5343,
      "duration": 0.3165,
      "velocity": 102,
      "chip": "ym2612"
    },
    {
      "channel": 1,
      "note": 54,
      "start": 72.5348,
      "duration": 0.1493,
      "velocity": 115,
      "chip": "ym2612"
    },
    {
      "channel": 1,
      "note": 50,
      "start": 72.6843,
      "duration": 0.1671,
      "velocity": 115,
      "chip": "ym2612"
    },
    {
      "channel": 0,
      "note": 50,
      "start": 72.851,
      "duration": 0.1498,
      "velocity": 102,
      "chip": "ym2612"
    },
    {
      "channel": 1,
      "note": 45,
      "start": 72.8515,
      "duration": 0.1498,
      "velocity": 115,
      "chip": "ym2612"
    },
    {
      "channel": 0,
      "note": 52,
      "start": 73.0009,
      "duration": 0.3332,
      "velocity": 102,
      "chip": "ym2612"
    },
    {
      "channel": 1,
      "note": 52,
      "start": 73.0015,
      "duration": 0.166,
      "velocity": 115,
      "chip": "ym2612"
    },
    {
      "channel": 1,
      "note": 52,
      "start": 73.1676,
      "duration": 0.1671,
      "velocity": 115,
      "chip": "ym2612"
    },
    {
      "channel": 0,
      "note": 64,
      "start": 73.3343,
      "duration": 0.3165,
      "velocity": 102,
      "chip": "ym2612"
    },
    {
      "channel": 1,
      "note": 50,
      "start": 73.3349,
      "duration": 0.1493,
      "velocity": 115,
      "chip": "ym2612"
    },
    {
      "channel": 1,
      "note": 52,
      "start": 73.4843,
      "duration": 0.1671,
      "velocity": 115,
      "chip": "ym2612"
    },
    {
      "channel": 0,
      "note": 62,
      "start": 73.651,
      "duration": 0.1498,
      "velocity": 102,
      "chip": "ym2612"
    },
    {
      "channel": 1,
      "note": 52,
      "start": 73.6515,
      "duration": 0.1498,
      "velocity": 115,
      "chip": "ym2612"
    },
    {
      "channel": 0,
      "note": 64,
      "start": 73.801,
      "duration": 0.1665,
      "velocity": 102,
      "chip": "ym2612"
    },
    {
      "channel": 1,
      "note": 52,
      "start": 73.8015,
      "duration": 0.1665,
      "velocity": 115,
      "chip": "ym2612"
    },
    {
      "channel": 0,
      "note": 50,
      "start": 73.9676,
      "duration": 0.1665,
      "velocity": 102,
      "chip": "ym2612"
    },
    {
      "channel": 1,
      "note": 50,
      "start": 73.9682,
      "duration": 0.1665,
      "velocity": 115,
      "chip": "ym2612"
    },
    {
      "channel": 0,
      "note": 52,
      "start": 74.1343,
      "duration": 0.3165,
      "velocity": 102,
      "chip": "ym2612"
    },
    {
      "channel": 1,
      "note": 52,
      "start": 74.1349,
      "duration": 0.1493,
      "velocity": 115,
      "chip": "ym2612"
    },
    {
      "channel": 1,
      "note": 52,
      "start": 74.2843,
      "duration": 0.1671,
      "velocity": 115,
      "chip": "ym2612"
    },
    {
      "channel": 0,
      "note": 64,
      "start": 74.451,
      "duration": 0.3165,
      "velocity": 102,
      "chip": "ym2612"
    },
    {
      "channel": 1,
      "note": 52,
      "start": 74.4515,
      "duration": 0.1493,
      "velocity": 115,
      "chip": "ym2612"
    },
    {
      "channel": 1,
      "note": 50,
      "start": 74.601,
      "duration": 0.1671,
      "velocity": 115,
      "chip": "ym2612"
    },
    {
      "channel": 0,
      "note": 62,
      "start": 74.7676,
      "duration": 0.3165,
      "velocity": 102,
      "chip": "ym2612"
    },
    {
      "channel": 1,
      "note": 52,
      "start": 74.7682,
      "duration": 0.1659,
      "velocity": 115,
      "chip": "ym2612"
    },
    {
      "channel": 1,
      "note": 57,
      "start": 74.9343,
      "duration": 0.1504,
      "velocity": 115,
      "chip": "ym2612"
    },
    {
      "channel": 0,
      "note": 64,
      "start": 75.0843,
      "duration": 0.3165,
      "velocity": 102,
      "chip": "ym2612"
    },
    {
      "channel": 1,
      "note": 55,
      "start": 75.0849,
      "duration": 0.1659,
      "velocity": 115,
      "chip": "ym2612"
    },
    {
      "channel": 1,
      "note": 54,
      "start": 75.251,
      "duration": 0.1504,
      "velocity": 115,
      "chip": "ym2612"
    },
    {
      "channel": 0,
      "note": 50,
      "start": 75.401,
      "duration": 0.1667,
      "velocity": 102,
      "chip": "ym2612"
    },
    {
      "channel": 1,
      "note": 50,
      "start": 75.4015,
      "duration": 0.1667,
      "velocity": 115,
      "chip": "ym2612"
    },
    {
      "channel": 0,
      "note": 52,
      "start": 75.5678,
      "duration": 0.3163,
      "velocity": 102,
      "chip": "ym2612"
    },
    {
      "channel": 1,
      "note": 52,
      "start": 75.5685,
      "duration": 0.1656,
      "velocity": 115,
      "chip": "ym2612"
    },
    {
      "channel": 2,
      "note": 40,
      "start": 75.5706,
      "duration": 5.1197,
      "velocity": 1,
      "chip": "ym2612"
    },
    {
      "channel": 3,
      "note": 74,
      "start": 75.5728,
      "duration": 5.3136,
      "velocity": 27,
      "chip": "ym2612"
    },
    {
      "channel": 4,
      "note": 74,
      "start": 75.5734,
      "duration": 5.1175,
      "velocity": 1,
      "chip": "ym2612"
    },
    {
      "channel": 5,
      "note": 74,
      "start": 75.5741,
      "duration": 5.1175,
      "velocity": 1,
      "chip": "ym2612"
    },
    {
      "channel": 1,
      "note": 52,
      "start": 75.7343,
      "duration": 0.1504,
      "velocity": 115,
      "chip": "ym2612"
    },
    {
      "channel": 0,
      "note": 64,
      "start": 75.8843,
      "duration": 0.3165,
      "velocity": 102,
      "chip": "ym2612"
    },
    {
      "channel": 1,
      "note": 50,
      "start": 75.8849,
      "duration": 0.1659,
      "velocity": 115,
      "chip": "ym2612"
    },
    {
      "channel": 1,
      "note": 52,
      "start": 76.051,
      "duration": 0.1504,
      "velocity": 115,
      "chip": "ym2612"
    },
    {
      "channel": 0,
      "note": 62,
      "start": 76.201,
      "duration": 0.1665,
      "velocity": 102,
      "chip": "ym2612"
    },
    {
      "channel": 1,
      "note": 52,
      "start": 76.2015,
      "duration": 0.1665,
      "velocity": 115,
      "chip": "ym2612"
    },
    {
      "channel": 0,
      "note": 64,
      "start": 76.3676,
      "duration": 0.1665,
      "velocity": 102,
      "chip": "ym2612"
    },
    {
      "channel": 1,
      "note": 52,
      "start": 76.3681,
      "duration": 0.1665,
      "velocity": 115,
      "chip": "ym2612"
    },
    {
      "channel": 0,
      "note": 50,
      "start": 76.5342,
      "duration": 0.1499,
      "velocity": 102,
      "chip": "ym2612"
    },
    {
      "channel": 1,
      "note": 50,
      "start": 76.5348,
      "duration": 0.1499,
      "velocity": 115,
      "chip": "ym2612"
    },
    {
      "channel": 0,
      "note": 52,
      "start": 76.6843,
      "duration": 0.3165,
      "velocity": 102,
      "chip": "ym2612"
    },
    {
      "channel": 1,
      "note": 52,
      "start": 76.6848,
      "duration": 0.166,
      "velocity": 115,
      "chip": "ym2612"
    },
    {
      "channel": 1,
      "note": 52,
      "start": 76.851,
      "duration": 0.1503,
      "velocity": 115,
      "chip": "ym2612"
    },
    {
      "channel": 0,
      "note": 64,
      "start": 77.0009,
      "duration": 0.3332,
      "velocity": 102,
      "chip": "ym2612"
    },
    {
      "channel": 1,
      "note": 52,
      "start": 77.0015,
      "duration": 0.166,
      "velocity": 115,
      "chip": "ym2612"
    },
    {
      "channel": 1,
      "note": 50,
      "start": 77.1676,
      "duration": 0.167,
      "velocity": 115,
      "chip": "ym2612"
    },
    {
      "channel": 0,
      "note": 62,
      "start": 77.3342,
      "duration": 0.3166,
      "velocity": 102,
      "chip": "ym2612"
    },
    {
      "channel": 1,
      "note": 52,
      "start": 77.3348,
      "duration": 0.1493,
      "velocity": 115,
      "chip": "ym2612"
    },
    {
      "channel": 1,
      "note": 55,
      "start": 77.4843,
      "duration": 0.1671,
      "velocity": 115,
      "chip": "ym2612"
    },
    {
      "channel": 0,
      "note": 64,
      "start": 77.651,
      "duration": 0.3165,
      "velocity": 102,
      "chip": "ym2612"
    },
    {
      "channel": 1,
      "note": 54,
      "start": 77.6515,
      "duration": 0.1493,
      "velocity": 115,
      "chip": "ym2612"
    },
    {
      "channel": 1,
      "note": 50,
      "start": 77.801,
      "duration": 0.1671,
      "velocity": 115,
      "chip": "ym2612"
    },
    {
      "channel": 0,
      "note": 50,
      "start": 77.9676,
      "duration": 0.1665,
      "velocity": 102,
      "chip": "ym2612"
    },
    {
      "channel": 1,
      "note": 45,
      "start": 77.9681,
      "duration": 0.1665,
      "velocity": 115,
      "chip": "ym2612"
    },
    {
      "channel": 0,
      "note": 52,
      "start": 78.1342,
      "duration": 0.3166,
      "velocity": 102,
      "chip": "ym2612"
    },
    {
      "channel": 1,
      "note": 52,
      "start": 78.1348,
      "duration": 0.1493,
      "velocity": 115,
      "chip": "ym2612"
    },
    {
      "channel": 1,
      "note": 52,
      "start": 78.2843,
      "duration": 0.1671,
      "velocity": 115,
      "chip": "ym2612"
    },
    {
      "channel": 0,
      "note": 64,
      "start": 78.451,
      "duration": 0.3165,
      "velocity": 102,
      "chip": "ym2612"
    },
    {
      "channel": 1,
      "note": 50,
      "start": 78.4515,
      "duration": 0.1493,
      "velocity": 115,
      "chip": "ym2612"
    },
    {
      "channel": 1,
      "note": 52,
      "start": 78.601,
      "duration": 0.1671,
      "velocity": 115,
      "chip": "ym2612"
    },
    {
      "channel": 0,
      "note": 62,
      "start": 78.7676,
      "duration": 0.1665,
      "velocity": 102,
      "chip": "ym2612"
    },
    {
      "channel": 1,
      "note": 52,
      "start": 78.7682,
      "duration": 0.1665,
      "velocity": 115,
      "chip": "ym2612"
    },
    {
      "channel": 0,
      "note": 64,
      "start": 78.9343,
      "duration": 0.1498,
      "velocity": 102,
      "chip": "ym2612"
    },
    {
      "channel": 1,
      "note": 52,
      "start": 78.9349,
      "duration": 0.1498,
      "velocity": 115,
      "chip": "ym2612"
    },
    {
      "channel": 0,
      "note": 50,
      "start": 79.0843,
      "duration": 0.1666,
      "velocity": 102,
      "chip": "ym2612"
    },
    {
      "channel": 1,
      "note": 50,
      "start": 79.0849,
      "duration": 0.1665,
      "velocity": 115,
      "chip": "ym2612"
    },
    {
      "channel": 0,
      "note": 52,
      "start": 79.251,
      "duration": 0.3165,
      "velocity": 102,
      "chip": "ym2612"
    },
    {
      "channel": 1,
      "note": 52,
      "start": 79.2515,
      "duration": 0.1493,
      "velocity": 115,
      "chip": "ym2612"
    },
    {
      "channel": 1,
      "note": 52,
      "start": 79.401,
      "duration": 0.1671,
      "velocity": 115,
      "chip": "ym2612"
    },
    {
      "channel": 0,
      "note": 64,
      "start": 79.5676,
      "duration": 0.3165,
      "velocity": 102,
      "chip": "ym2612"
    },
    {
      "channel": 1,
      "note": 52,
      "start": 79.5682,
      "duration": 0.1659,
      "velocity": 115,
      "chip": "ym2612"
    },
    {
      "channel": 1,
      "note": 50,
      "start": 79.7343,
      "duration": 0.1504,
      "velocity": 115,
      "chip": "ym2612"
    },
    {
      "channel": 0,
      "note": 62,
      "start": 79.8843,
      "duration": 0.3165,
      "velocity": 102,
      "chip": "ym2612"
    },
    {
      "channel": 1,
      "note": 52,
      "start": 79.8849,
      "duration": 0.1659,
      "velocity": 115,
      "chip": "ym2612"
    },
    {
      "channel": 1,
      "note": 57,
      "start": 80.051,
      "duration": 0.1504,
      "velocity": 115,
      "chip": "ym2612"
    },
    {
      "channel": 0,
      "note": 64,
      "start": 80.201,
      "duration": 0.3332,
      "velocity": 102,
      "chip": "ym2612"
    },
    {
      "channel": 1,
      "note": 55,
      "start": 80.2015,
      "duration": 0.1659,
      "velocity": 115,
      "chip": "ym2612"
    },
    {
      "channel": 1,
      "note": 54,
      "start": 80.3676,
      "duration": 0.1671,
      "velocity": 115,
      "chip": "ym2612"
    },
    {
      "channel": 0,
      "note": 50,
      "start": 80.5343,
      "duration": 0.1516,
      "velocity": 97,
      "chip": "ym2612"
    },
    {
      "channel": 1,
      "note": 50,
      "start": 80.5349,
      "duration": 0.1532,
      "velocity": 102,
      "chip": "ym2612"
    },
    {
      "channel": 0,
      "note": 52,
      "start": 80.686,
      "duration": 0.0982,
      "velocity": 97,
      "chip": "ym2612"
    },
    {
      "channel": 1,
      "note": 52,
      "start": 80.6882,
      "duration": 0.3964,
      "velocity": 102,
      "chip": "ym2612"
    },
    {
      "channel": 2,
      "note": 74,
      "start": 80.6904,
      "duration": 0.9917,
      "velocity": 1,
      "chip": "ym2612"
    },
    {
      "channel": 4,
      "note": 74,
      "start": 80.6911,
      "duration": 0.991,
      "velocity": 1,
      "chip": "ym2612"
    },
    {
      "channel": 5,
      "note": 74,
      "start": 80.6917,
      "duration": 0.9904,
      "velocity": 1,
      "chip": "ym2612"
    },
    {
      "channel": 0,
      "note": 52,
      "start": 80.7844,
      "duration": 0.0997,
      "velocity": 97,
      "chip": "ym2612"
    },
    {
      "channel": 0,
      "note": 64,
      "start": 80.8843,
      "duration": 0.0998,
      "velocity": 97,
      "chip": "ym2612"
    },
    {
      "channel": 3,
      "note": 28,
      "start": 80.8866,
      "duration": 0.0982,
      "velocity": 27,
      "chip": "ym2612"
    },
    {
      "channel": 0,
      "note": 64,
      "start": 80.9842,
      "duration": 0.0999,
      "velocity": 97,
      "chip": "ym2612"
    },
    {
      "channel": 3,
      "note": 28,
      "start": 80.9849,
      "duration": 0.1004,
      "velocity": 27,
      "chip": "ym2612"
    },
    {
      "channel": 0,
      "note": 62,
      "start": 81.0843,
      "duration": 0.0998,
      "velocity": 97,
      "chip": "ym2612"
    },
    {
      "channel": 1,
      "note": 64,
      "start": 81.0849,
      "duration": 0.1998,
      "velocity": 102,
      "chip": "ym2612"
    },
    {
      "channel": 3,
      "note": 40,
      "start": 81.0854,
      "duration": 0.0994,
      "velocity": 27,
      "chip": "ym2612"
    },
    {
      "channel": 0,
      "note": 62,
      "start": 81.1843,
      "duration": 0.0998,
      "velocity": 97,
      "chip": "ym2612"
    },
    {
      "channel": 3,
      "note": 40,
      "start": 81.185,
      "duration": 0.1003,
      "velocity": 27,
      "chip": "ym2612"
    },
    {
      "channel": 0,
      "note": 52,
      "start": 81.2843,
      "duration": 0.0998,
      "velocity": 97,
      "chip": "ym2612"
    },
    {
      "channel": 1,
      "note": 48,
      "start": 81.2849,
      "duration": 0.3972,
      "velocity": 102,
      "chip": "ym2612"
    },
    {
      "channel": 3,
      "note": 28,
      "start": 81.2854,
      "duration": 0.101,
      "velocity": 27,
      "chip": "ym2612"
    },
    {
      "channel": 0,
      "note": 52,
      "start": 81.3843,
      "duration": 0.0998,
      "velocity": 97,
      "chip": "ym2612"
    },
    {
      "channel": 3,
      "note": 28,
      "start": 81.3866,
      "duration": 0.0982,
      "velocity": 27,
      "chip": "ym2612"
    },
    {
      "channel": 0,
      "note": 64,
      "start": 81.4843,
      "duration": 0.0998,
      "velocity": 97,
      "chip": "ym2612"
    },
    {
      "channel": 3,
      "note": 40,
      "start": 81.485,
      "duration": 0.0998,
      "velocity": 27,
      "chip": "ym2612"
    },
    {
      "channel": 0,
      "note": 64,
      "start": 81.5843,
      "duration": 0.0978,
      "velocity": 97,
      "chip": "ym2612"
    },
    {
      "channel": 3,
      "note": 40,
      "start": 81.585,
      "duration": 0.0971,
      "velocity": 27,
      "chip": "ym2612"
    }
  ]
}