{
  "track_name": "11 - Cross Fire",
  "duration_sec": 87.058,
  "sample_rate": 44100,
  "note_count": 2458,
  "unique_pitches": 43,
  "pitch_range": 58,
  "avg_note_duration": 0.1766,
  "reconstruction_stats": {
    "notes_reconstructed": 2458,
    "keyon_events": 2458,
    "keyoff_events": 2458,
    "orphan_keyons": 0,
    "unique_pitches": 43,
    "pitch_range": 58,
    "avg_duration_sec": 0.1766
  },
  "metadata": {
    "source": "M\\Mirage 2\\11 - Cross Fire.vgz"
  },
  "notes": [
    {
      "channel": 0,
      "note": 81,
      "start": 0.0028,
      "duration": 0.0646,
      "velocity": 97,
      "chip": "ym2612"
    },
    {
      "channel": 2,
      "note": 69,
      "start": 0.0042,
      "duration": 0.0633,
      "velocity": 107,
      "chip": "ym2612"
    },
    {
      "channel": 3,
      "note": 88,
      "start": 0.0057,
      "duration": 0.0619,
      "velocity": 97,
      "chip": "ym2612"
    },
    {
      "channel": 0,
      "note": 76,
      "start": 0.0681,
      "duration": 0.0635,
      "velocity": 97,
      "chip": "ym2612"
    },
    {
      "channel": 2,
      "note": 64,
      "start": 0.0686,
      "duration": 0.0631,
      "velocity": 107,
      "chip": "ym2612"
    },
    {
      "channel": 3,
      "note": 84,
      "start": 0.069,
      "duration": 0.0627,
      "velocity": 97,
      "chip": "ym2612"
    },
    {
      "channel": 0,
      "note": 72,
      "start": 0.1348,
      "duration": 0.0643,
      "velocity": 97,
      "chip": "ym2612"
    },
    {
      "channel": 2,
      "note": 60,
      "start": 0.1352,
      "duration": 0.0639,
      "velocity": 107,
      "chip": "ym2612"
    },
    {
      "channel": 3,
      "note": 81,
      "start": 0.1357,
      "duration": 0.0635,
      "velocity": 97,
      "chip": "ym2612"
    },
    {
      "channel": 0,
      "note": 69,
      "start": 0.2021,
      "duration": 0.0638,
      "velocity": 97,
      "chip": "ym2612"
    },
    {
      "channel": 1,
      "note": 81,
      "start": 0.2037,
      "duration": 0.0623,
      "velocity": 97,
      "chip": "ym2612"
    },
    {
      "channel": 2,
      "note": 57,
      "start": 0.2042,
      "duration": 0.0619,
      "velocity": 107,
      "chip": "ym2612"
    },
    {
      "channel": 3,
      "note": 76,
      "start": 0.2047,
      "duration": 0.0616,
      "velocity": 97,
      "chip": "ym2612"
    },
    {
      "channel": 4,
      "note": 88,
      "start": 0.2062,
      "duration": 0.0602,
      "velocity": 97,
      "chip": "ym2612"
    },
    {
      "channel": 0,
      "note": 80,
      "start": 0.269,
      "duration": 0.0638,
      "velocity": 97,
      "chip": "ym2612"
    },
    {
      "channel": 1,
      "note": 76,
      "start": 0.2695,
      "duration": 0.0635,
      "velocity": 97,
      "chip": "ym2612"
    },
    {
      "channel": 2,
      "note": 68,
      "start": 0.2699,
      "duration": 0.0631,
      "velocity": 107,
      "chip": "ym2612"
    },
    {
      "channel": 3,
      "note": 87,
      "start": 0.2704,
      "duration": 0.0627,
      "velocity": 97,
      "chip": "ym2612"
    },
    {
      "channel": 4,
      "note": 84,
      "start": 0.2708,
      "duration": 0.0624,
      "velocity": 97,
      "chip": "ym2612"
    },
    {
      "channel": 0,
      "note": 75,
      "start": 0.336,
      "duration": 0.0638,
      "velocity": 97,
      "chip": "ym2612"
    },
    {
      "channel": 1,
      "note": 72,
      "start": 0.3364,
      "duration": 0.0635,
      "velocity": 97,
      "chip": "ym2612"
    },
    {
      "channel": 2,
      "note": 63,
      "start": 0.3369,
      "duration": 0.0631,
      "velocity": 107,
      "chip": "ym2612"
    },
    {
      "channel": 3,
      "note": 83,
      "start": 0.3373,
      "duration": 0.0627,
      "velocity": 97,
      "chip": "ym2612"
    },
    {
      "channel": 4,
      "note": 81,
      "start": 0.3378,
      "duration": 0.0624,
      "velocity": 97,
      "chip": "ym2612"
    },
    {
      "channel": 0,
      "note": 71,
      "start": 0.403,
      "duration": 0.0641,
      "velocity": 97,
      "chip": "ym2612"
    },
    {
      "channel": 1,
      "note": 69,
      "start": 0.4035,
      "duration": 0.0637,
      "velocity": 97,
      "chip": "ym2612"
    },
    {
      "channel": 2,
      "note": 59,
      "start": 0.4039,
      "duration": 0.0634,
      "velocity": 107,
      "chip": "ym2612"
    },
    {
      "channel": 3,
      "note": 80,
      "start": 0.4044,
      "duration": 0.063,
      "velocity": 97,
      "chip": "ym2612"
    },
    {
      "channel": 4,
      "note": 76,
      "start": 0.4049,
      "duration": 0.0626,
      "velocity": 97,
      "chip": "ym2612"
    },
    {
      "channel": 0,
      "note": 68,
      "start": 0.4702,
      "duration": 0.0639,
      "velocity": 97,
      "chip": "ym2612"
    },
    {
      "channel": 1,
      "note": 80,
      "start": 0.4707,
      "duration": 0.0636,
      "velocity": 97,
      "chip": "ym2612"
    },
    {
      "channel": 2,
      "note": 56,
      "start": 0.4712,
      "duration": 0.0632,
      "velocity": 107,
      "chip": "ym2612"
    },
    {
      "channel": 3,
      "note": 75,
      "start": 0.4719,
      "duration": 0.0626,
      "velocity": 97,
      "chip": "ym2612"
    },
    {
      "channel": 4,
      "note": 87,
      "start": 0.4723,
      "duration": 0.0622,
      "velocity": 97,
      "chip": "ym2612"
    },
    {
      "channel": 0,
      "note": 79,
      "start": 0.5373,
      "duration": 0.0637,
      "velocity": 97,
      "chip": "ym2612"
    },
    {
      "channel": 1,
      "note": 75,
      "start": 0.5378,
      "duration": 0.0634,
      "velocity": 97,
      "chip": "ym2612"
    },
    {
      "channel": 2,
      "note": 67,
      "start": 0.5382,
      "duration": 0.063,
      "velocity": 107,
      "chip": "ym2612"
    },
    {
      "channel": 3,
      "note": 86,
      "start": 0.5387,
      "duration": 0.0627,
      "velocity": 97,
      "chip": "ym2612"
    },
    {
      "channel": 4,
      "note": 83,
      "start": 0.5391,
      "duration": 0.0623,
      "velocity": 97,
      "chip": "ym2612"
    },
    {
      "channel": 0,
      "note": 74,
      "start": 0.6043,
      "duration": 0.0637,
      "velocity": 97,
      "chip": "ym2612"
    },
    {
      "channel": 1,
      "note": 71,
      "start": 0.6047,
      "duration": 0.0633,
      "velocity": 97,
      "chip": "ym2612"
    },
    {
      "channel": 2,
      "note": 62,
      "start": 0.6052,
      "duration": 0.063,
      "velocity": 107,
      "chip": "ym2612"
    },
    {
      "channel": 3,
      "note": 82,
      "start": 0.6056,
      "duration": 0.0626,
      "velocity": 97,
      "chip": "ym2612"
    },
    {
      "channel": 4,
      "note": 80,
      "start": 0.6061,
      "duration": 0.0623,
      "velocity": 97,
      "chip": "ym2612"
    },
    {
      "channel": 0,
      "note": 70,
      "start": 0.6712,
      "duration": 0.0638,
      "velocity": 97,
      "chip": "ym2612"
    },
    {
      "channel": 1,
      "note": 68,
      "start": 0.6719,
      "duration": 0.0632,
      "velocity": 97,
      "chip": "ym2612"
    },
    {
      "channel": 2,
      "note": 58,
      "start": 0.6723,
      "duration": 0.0629,
      "velocity": 107,
      "chip": "ym2612"
    },
    {
      "channel": 3,
      "note": 79,
      "start": 0.6728,
      "duration": 0.0625,
      "velocity": 97,
      "chip": "ym2612"
    },
    {
      "channel": 4,
      "note": 75,
      "start": 0.6732,
      "duration": 0.0621,
      "velocity": 97,
      "chip": "ym2612"
    },
    {
      "channel": 0,
      "note": 67,
      "start": 0.7389,
      "duration": 0.063,
      "velocity": 97,
      "chip": "ym2612"
    },
    {
      "channel": 1,
      "note": 79,
      "start": 0.7394,
      "duration": 0.0626,
      "velocity": 97,
      "chip": "ym2612"
    },
    {
      "channel": 2,
      "note": 55,
      "start": 0.7398,
      "duration": 0.0623,
      "velocity": 107,
      "chip": "ym2612"
    },
    {
      "channel": 3,
      "note": 74,
      "start": 0.7403,
      "duration": 0.0619,
      "velocity": 97,
      "chip": "ym2612"
    },
    {
      "channel": 4,
      "note": 86,
      "start": 0.7408,
      "duration": 0.0615,
      "velocity": 97,
      "chip": "ym2612"
    },
    {
      "channel": 0,
      "note": 78,
      "start": 0.805,
      "duration": 0.0639,
      "velocity": 97,
      "chip": "ym2612"
    },
    {
      "channel": 1,
      "note": 74,
      "start": 0.8055,
      "duration": 0.0635,
      "velocity": 97,
      "chip": "ym2612"
    },
    {
      "channel": 2,
      "note": 66,
      "start": 0.806,
      "duration": 0.0631,
      "velocity": 107,
      "chip": "ym2612"
    },
    {
      "channel": 3,
      "note": 85,
      "start": 0.8064,
      "duration": 0.0627,
      "velocity": 97,
      "chip": "ym2612"
    },
    {
      "channel": 4,
      "note": 82,
      "start": 0.8069,
      "duration": 0.0624,
      "velocity": 97,
      "chip": "ym2612"
    },
    {
      "channel": 0,
      "note": 73,
      "start": 0.8722,
      "duration": 0.0636,
      "velocity": 97,
      "chip": "ym2612"
    },
    {
      "channel": 1,
      "note": 70,
      "start": 0.8727,
      "duration": 0.0632,
      "velocity": 97,
      "chip": "ym2612"
    },
    {
      "channel": 2,
      "note": 61,
      "start": 0.8732,
      "duration": 0.0629,
      "velocity": 107,
      "chip": "ym2612"
    },
    {
      "channel": 3,
      "note": 81,
      "start": 0.8736,
      "duration": 0.0625,
      "velocity": 97,
      "chip": "ym2612"
    },
    {
      "channel": 4,
      "note": 79,
      "start": 0.8741,
      "duration": 0.0622,
      "velocity": 97,
      "chip": "ym2612"
    },
    {
      "channel": 0,
      "note": 69,
      "start": 0.939,
      "duration": 0.0638,
      "velocity": 97,
      "chip": "ym2612"
    },
    {
      "channel": 1,
      "note": 67,
      "start": 0.9396,
      "duration": 0.0633,
      "velocity": 97,
      "chip": "ym2612"
    },
    {
      "channel": 2,
      "note": 57,
      "start": 0.94,
      "duration": 0.0629,
      "velocity": 107,
      "chip": "ym2612"
    },
    {
      "channel": 3,
      "note": 78,
      "start": 0.9405,
      "duration": 0.0626,
      "velocity": 97,
      "chip": "ym2612"
    },
    {
      "channel": 4,
      "note": 74,
      "start": 0.9409,
      "duration": 0.0622,
      "velocity": 97,
      "chip": "ym2612"
    },
    {
      "channel": 0,
      "note": 66,
      "start": 1.006,
      "duration": 0.0639,
      "velocity": 97,
      "chip": "ym2612"
    },
    {
      "channel": 1,
      "note": 78,
      "start": 1.0064,
      "duration": 0.0635,
      "velocity": 97,
      "chip": "ym2612"
    },
    {
      "channel": 2,
      "note": 54,
      "start": 1.0069,
      "duration": 0.0632,
      "velocity": 107,
      "chip": "ym2612"
    },
    {
      "channel": 3,
      "note": 73,
      "start": 1.0073,
      "duration": 0.0629,
      "velocity": 97,
      "chip": "ym2612"
    },
    {
      "channel": 4,
      "note": 85,
      "start": 1.0078,
      "duration": 0.0625,
      "velocity": 97,
      "chip": "ym2612"
    },
    {
      "channel": 0,
      "note": 61,
      "start": 1.0739,
      "duration": 0.0656,
      "velocity": 120,
      "chip": "ym2612"
    },
    {
      "channel": 2,
      "note": 48,
      "start": 1.0744,
      "duration": 0.1293,
      "velocity": 107,
      "chip": "ym2612"
    },
    {
      "channel": 5,
      "note": 87,
      "start": 1.076,
      "duration": 0.1277,
      "velocity": 115,
      "chip": "ym2612"
    },
    {
      "channel": 0,
      "note": 62,
      "start": 1.14,
      "duration": 0.5994,
      "velocity": 120,
      "chip": "ym2612"
    },
    {
      "channel": 2,
      "note": 50,
      "start": 1.2068,
      "duration": 0.1308,
      "velocity": 107,
      "chip": "ym2612"
    },
    {
      "channel": 3,
      "note": 62,
      "start": 1.2073,
      "duration": 0.2646,
      "velocity": 97,
      "chip": "ym2612"
    },
    {
      "channel": 4,
      "note": 53,
      "start": 1.2077,
      "duration": 0.2643,
      "velocity": 97,
      "chip": "ym2612"
    },
    {
      "channel": 5,
      "note": 87,
      "start": 1.2082,
      "duration": 0.1295,
      "velocity": 115,
      "chip": "ym2612"
    },
    {
      "channel": 1,
      "note": 61,
      "start": 1.2749,
      "duration": 0.0656,
      "velocity": 120,
      "chip": "ym2612"
    },
    {
      "channel": 1,
      "note": 62,
      "start": 1.3408,
      "duration": 0.5994,
      "velocity": 120,
      "chip": "ym2612"
    },
    {
      "channel": 2,
      "note": 50,
      "start": 1.3413,
      "duration": 0.1307,
      "velocity": 107,
      "chip": "ym2612"
    },
    {
      "channel": 5,
      "note": 87,
      "start": 1.3421,
      "duration": 0.1301,
      "velocity": 115,
      "chip": "ym2612"
    },
    {
      "channel": 2,
      "note": 50,
      "start": 1.4747,
      "duration": 0.1308,
      "velocity": 107,
      "chip": "ym2612"
    },
    {
      "channel": 3,
      "note": 64,
      "start": 1.4752,
      "duration": 0.1304,
      "velocity": 97,
      "chip": "ym2612"
    },
    {
      "channel": 4,
      "note": 55,
      "start": 1.4757,
      "duration": 0.1301,
      "velocity": 97,
      "chip": "ym2612"
    },
    {
      "channel": 5,
      "note": 87,
      "start": 1.4762,
      "duration": 0.1297,
      "velocity": 115,
      "chip": "ym2612"
    },
    {
      "channel": 2,
      "note": 50,
      "start": 1.6087,
      "duration": 0.1308,
      "velocity": 107,
      "chip": "ym2612"
    },
    {
      "channel": 5,
      "note": 87,
      "start": 1.6092,
      "duration": 0.1304,
      "velocity": 115,
      "chip": "ym2612"
    },
    {
      "channel": 0,
      "note": 69,
      "start": 1.7425,
      "duration": 0.1308,
      "velocity": 120,
      "chip": "ym2612"
    },
    {
      "channel": 2,
      "note": 50,
      "start": 1.7429,
      "duration": 0.1305,
      "velocity": 107,
      "chip": "ym2612"
    },
    {
      "channel": 3,
      "note": 65,
      "start": 1.7434,
      "duration": 0.1301,
      "velocity": 97,
      "chip": "ym2612"
    },
    {
      "channel": 4,
      "note": 57,
      "start": 1.7439,
      "duration": 0.1297,
      "velocity": 97,
      "chip": "ym2612"
    },
    {
      "channel": 5,
      "note": 87,
      "start": 1.7453,
      "duration": 0.1284,
      "velocity": 112,
      "chip": "ym2612"
    },
    {
      "channel": 2,
      "note": 48,
      "start": 1.8764,
      "duration": 0.1309,
      "velocity": 107,
      "chip": "ym2612"
    },
    {
      "channel": 3,
      "note": 67,
      "start": 1.877,
      "duration": 0.1304,
      "velocity": 97,
      "chip": "ym2612"
    },
    {
      "channel": 4,
      "note": 58,
      "start": 1.8774,
      "duration": 0.13,
      "velocity": 97,
      "chip": "ym2612"
    },
    {
      "channel": 5,
      "note": 87,
      "start": 1.8789,
      "duration": 0.1288,
      "velocity": 115,
      "chip": "ym2612"
    },
    {
      "channel": 1,
      "note": 69,
      "start": 1.9435,
      "duration": 0.1307,
      "velocity": 120,
      "chip": "ym2612"
    },
    {
      "channel": 0,
      "note": 68,
      "start": 2.0104,
      "duration": 0.8003,
      "velocity": 120,
      "chip": "ym2612"
    },
    {
      "channel": 2,
      "note": 52,
      "start": 2.0109,
      "duration": 0.2643,
      "velocity": 107,
      "chip": "ym2612"
    },
    {
      "channel": 3,
      "note": 68,
      "start": 2.0113,
      "duration": 0.7997,
      "velocity": 97,
      "chip": "ym2612"
    },
    {
      "channel": 4,
      "note": 64,
      "start": 2.012,
      "duration": 0.799,
      "velocity": 97,
      "chip": "ym2612"
    },
    {
      "channel": 5,
      "note": 87,
      "start": 2.0126,
      "duration": 0.1287,
      "velocity": 115,
      "chip": "ym2612"
    },
    {
      "channel": 5,
      "note": 87,
      "start": 2.1443,
      "duration": 0.1308,
      "velocity": 115,
      "chip": "ym2612"
    },
    {
      "channel": 1,
      "note": 68,
      "start": 2.2112,
      "duration": 0.8006,
      "velocity": 120,
      "chip": "ym2612"
    },
    {
      "channel": 2,
      "note": 52,
      "start": 2.2783,
      "duration": 0.1307,
      "velocity": 107,
      "chip": "ym2612"
    },
    {
      "channel": 5,
      "note": 87,
      "start": 2.2788,
      "duration": 0.1302,
      "velocity": 115,
      "chip": "ym2612"
    },
    {
      "channel": 2,
      "note": 52,
      "start": 2.4126,
      "duration": 0.1302,
      "velocity": 107,
      "chip": "ym2612"
    },
    {
      "channel": 5,
      "note": 87,
      "start": 2.4131,
      "duration": 0.1298,
      "velocity": 115,
      "chip": "ym2612"
    },
    {
      "channel": 2,
      "note": 52,
      "start": 2.546,
      "duration": 0.1308,
      "velocity": 107,
      "chip": "ym2612"
    },
    {
      "channel": 5,
      "note": 87,
      "start": 2.5465,
      "duration": 0.1304,
      "velocity": 115,
      "chip": "ym2612"
    },
    {
      "channel": 2,
      "note": 52,
      "start": 2.68,
      "duration": 0.1308,
      "velocity": 107,
      "chip": "ym2612"
    },
    {
      "channel": 5,
      "note": 87,
      "start": 2.6805,
      "duration": 0.1304,
      "velocity": 115,
      "chip": "ym2612"
    },
    {
      "channel": 0,
      "note": 64,
      "start": 2.8141,
      "duration": 0.1306,
      "velocity": 120,
      "chip": "ym2612"
    },
    {
      "channel": 2,
      "note": 52,
      "start": 2.8145,
      "duration": 0.1302,
      "velocity": 107,
      "chip": "ym2612"
    },
    {
      "channel": 3,
      "note": 70,
      "start": 2.815,
      "duration": 0.1299,
      "velocity": 97,
      "chip": "ym2612"
    },
    {
      "channel": 4,
      "note": 64,
      "start": 2.8154,
      "duration": 0.1295,
      "velocity": 97,
      "chip": "ym2612"
    },
    {
      "channel": 5,
      "note": 87,
      "start": 2.8169,
      "duration": 0.1283,
      "velocity": 112,
      "chip": "ym2612"
    },
    {
      "channel": 0,
      "note": 66,
      "start": 2.9479,
      "duration": 0.1308,
      "velocity": 120,
      "chip": "ym2612"
    },
    {
      "channel": 2,
      "note": 52,
      "start": 2.9483,
      "duration": 0.1304,
      "velocity": 107,
      "chip": "ym2612"
    },
    {
      "channel": 3,
      "note": 69,
      "start": 2.9488,
      "duration": 0.13,
      "velocity": 97,
      "chip": "ym2612"
    },
    {
      "channel": 4,
      "note": 62,
      "start": 2.9492,
      "duration": 0.1297,
      "velocity": 97,
      "chip": "ym2612"
    },
    {
      "channel": 5,
      "note": 87,
      "start": 2.9507,
      "duration": 0.1283,
      "velocity": 115,
      "chip": "ym2612"
    },
    {
      "channel": 1,
      "note": 64,
      "start": 3.0148,
      "duration": 0.1307,
      "velocity": 120,
      "chip": "ym2612"
    },
    {
      "channel": 0,
      "note": 67,
      "start": 3.082,
      "duration": 0.8001,
      "velocity": 120,
      "chip": "ym2612"
    },
    {
      "channel": 2,
      "note": 55,
      "start": 3.0824,
      "duration": 0.264,
      "velocity": 107,
      "chip": "ym2612"
    },
    {
      "channel": 3,
      "note": 67,
      "start": 3.0829,
      "duration": 0.7994,
      "velocity": 97,
      "chip": "ym2612"
    },
    {
      "channel": 4,
      "note": 62,
      "start": 3.0834,
      "duration": 0.799,
      "velocity": 97,
      "chip": "ym2612"
    },
    {
      "channel": 5,
      "note": 87,
      "start": 3.0839,
      "duration": 0.1286,
      "velocity": 115,
      "chip": "ym2612"
    },
    {
      "channel": 1,
      "note": 66,
      "start": 3.1487,
      "duration": 0.1307,
      "velocity": 120,
      "chip": "ym2612"
    },
    {
      "channel": 5,
      "note": 87,
      "start": 3.2157,
      "duration": 0.1308,
      "velocity": 115,
      "chip": "ym2612"
    },
    {
      "channel": 1,
      "note": 67,
      "start": 3.2827,
      "duration": 0.8003,
      "velocity": 120,
      "chip": "ym2612"
    },
    {
      "channel": 2,
      "note": 55,
      "start": 3.3496,
      "duration": 0.1308,
      "velocity": 107,
      "chip": "ym2612"
    },
    {
      "channel": 5,
      "note": 87,
      "start": 3.3501,
      "duration": 0.1304,
      "velocity": 115,
      "chip": "ym2612"
    },
    {
      "channel": 2,
      "note": 55,
      "start": 3.4834,
      "duration": 0.1308,
      "velocity": 107,
      "chip": "ym2612"
    },
    {
      "channel": 5,
      "note": 87,
      "start": 3.484,
      "duration": 0.1304,
      "velocity": 115,
      "chip": "ym2612"
    },
    {
      "channel": 2,
      "note": 55,
      "start": 3.6174,
      "duration": 0.1309,
      "velocity": 107,
      "chip": "ym2612"
    },
    {
      "channel": 5,
      "note": 87,
      "start": 3.6179,
      "duration": 0.1305,
      "velocity": 115,
      "chip": "ym2612"
    },
    {
      "channel": 2,
      "note": 55,
      "start": 3.7513,
      "duration": 0.1309,
      "velocity": 107,
      "chip": "ym2612"
    },
    {
      "channel": 5,
      "note": 87,
      "start": 3.7522,
      "duration": 0.1304,
      "velocity": 115,
      "chip": "ym2612"
    },
    {
      "channel": 0,
      "note": 68,
      "start": 3.8852,
      "duration": 0.0667,
      "velocity": 120,
      "chip": "ym2612"
    },
    {
      "channel": 2,
      "note": 55,
      "start": 3.8857,
      "duration": 0.1304,
      "velocity": 107,
      "chip": "ym2612"
    },
    {
      "channel": 3,
      "note": 69,
      "start": 3.8861,
      "duration": 0.1301,
      "velocity": 97,
      "chip": "ym2612"
    },
    {
      "channel": 4,
      "note": 62,
      "start": 3.8866,
      "duration": 0.1297,
      "velocity": 97,
      "chip": "ym2612"
    },
    {
      "channel": 5,
      "note": 87,
      "start": 3.888,
      "duration": 0.1283,
      "velocity": 112,
      "chip": "ym2612"
    },
    {
      "channel": 0,
      "note": 69,
      "start": 3.9523,
      "duration": 0.1976,
      "velocity": 120,
      "chip": "ym2612"
    },
    {
      "channel": 2,
      "note": 55,
      "start": 4.0192,
      "duration": 0.1308,
      "velocity": 107,
      "chip": "ym2612"
    },
    {
      "channel": 3,
      "note": 67,
      "start": 4.0196,
      "duration": 0.1305,
      "velocity": 97,
      "chip": "ym2612"
    },
    {
      "channel": 4,
      "note": 60,
      "start": 4.0201,
      "duration": 0.1301,
      "velocity": 97,
      "chip": "ym2612"
    },
    {
      "channel": 5,
      "note": 87,
      "start": 4.0218,
      "duration": 0.1285,
      "velocity": 115,
      "chip": "ym2612"
    },
    {
      "channel": 1,
      "note": 68,
      "start": 4.0861,
      "duration": 0.0666,
      "velocity": 120,
      "chip": "ym2612"
    },
    {
      "channel": 0,
      "note": 65,
      "start": 4.1532,
      "duration": 0.3987,
      "velocity": 120,
      "chip": "ym2612"
    },
    {
      "channel": 1,
      "note": 69,
      "start": 4.1536,
      "duration": 0.1972,
      "velocity": 120,
      "chip": "ym2612"
    },
    {
      "channel": 2,
      "note": 53,
      "start": 4.1541,
      "duration": 0.2637,
      "velocity": 107,
      "chip": "ym2612"
    },
    {
      "channel": 3,
      "note": 65,
      "start": 4.1545,
      "duration": 0.5314,
      "velocity": 97,
      "chip": "ym2612"
    },
    {
      "channel": 4,
      "note": 57,
      "start": 4.1551,
      "duration": 0.5309,
      "velocity": 97,
      "chip": "ym2612"
    },
    {
      "channel": 5,
      "note": 87,
      "start": 4.1557,
      "duration": 0.1281,
      "velocity": 115,
      "chip": "ym2612"
    },
    {
      "channel": 5,
      "note": 87,
      "start": 4.2871,
      "duration": 0.1307,
      "velocity": 115,
      "chip": "ym2612"
    },
    {
      "channel": 1,
      "note": 65,
      "start": 4.354,
      "duration": 0.3986,
      "velocity": 120,
      "chip": "ym2612"
    },
    {
      "channel": 2,
      "note": 65,
      "start": 4.4209,
      "duration": 0.131,
      "velocity": 107,
      "chip": "ym2612"
    },
    {
      "channel": 5,
      "note": 87,
      "start": 4.4214,
      "duration": 0.1306,
      "velocity": 115,
      "chip": "ym2612"
    },
    {
      "channel": 0,
      "note": 64,
      "start": 4.5549,
      "duration": 0.1308,
      "velocity": 120,
      "chip": "ym2612"
    },
    {
      "channel": 2,
      "note": 50,
      "start": 4.5553,
      "duration": 0.1305,
      "velocity": 107,
      "chip": "ym2612"
    },
    {
      "channel": 5,
      "note": 87,
      "start": 4.5558,
      "duration": 0.1302,
      "velocity": 115,
      "chip": "ym2612"
    },
    {
      "channel": 0,
      "note": 62,
      "start": 4.6889,
      "duration": 0.6663,
      "velocity": 120,
      "chip": "ym2612"
    },
    {
      "channel": 2,
      "note": 50,
      "start": 4.6894,
      "duration": 0.1302,
      "velocity": 107,
      "chip": "ym2612"
    },
    {
      "channel": 3,
      "note": 69,
      "start": 4.6898,
      "duration": 0.6656,
      "velocity": 97,
      "chip": "ym2612"
    },
    {
      "channel": 4,
      "note": 53,
      "start": 4.6903,
      "duration": 0.6653,
      "velocity": 97,
      "chip": "ym2612"
    },
    {
      "channel": 5,
      "note": 87,
      "start": 4.6908,
      "duration": 0.1289,
      "velocity": 115,
      "chip": "ym2612"
    },
    {
      "channel": 1,
      "note": 64,
      "start": 4.7558,
      "duration": 0.1307,
      "velocity": 120,
      "chip": "ym2612"
    },
    {
      "channel": 2,
      "note": 50,
      "start": 4.8227,
      "duration": 0.1308,
      "velocity": 107,
      "chip": "ym2612"
    },
    {
      "channel": 5,
      "note": 87,
      "start": 4.8232,
      "duration": 0.1304,
      "velocity": 115,
      "chip": "ym2612"
    },
    {
      "channel": 1,
      "note": 62,
      "start": 4.8898,
      "duration": 0.4655,
      "velocity": 120,
      "chip": "ym2612"
    },
    {
      "channel": 2,
      "note": 50,
      "start": 4.9566,
      "duration": 0.1309,
      "velocity": 107,
      "chip": "ym2612"
    },
    {
      "channel": 5,
      "note": 87,
      "start": 4.9579,
      "duration": 0.1296,
      "velocity": 112,
      "chip": "ym2612"
    },
    {
      "channel": 2,
      "note": 62,
      "start": 5.0905,
      "duration": 0.1309,
      "velocity": 107,
      "chip": "ym2612"
    },
    {
      "channel": 5,
      "note": 87,
      "start": 5.0922,
      "duration": 0.1295,
      "velocity": 115,
      "chip": "ym2612"
    },
    {
      "channel": 2,
      "note": 50,
      "start": 5.2245,
      "duration": 0.1309,
      "velocity": 107,
      "chip": "ym2612"
    },
    {
      "channel": 5,
      "note": 87,
      "start": 5.225,
      "duration": 0.1306,
      "velocity": 115,
      "chip": "ym2612"
    },
    {
      "channel": 0,
      "note": 61,
      "start": 5.3593,
      "duration": 0.0665,
      "velocity": 120,
      "chip": "ym2612"
    },
    {
      "channel": 2,
      "note": 48,
      "start": 5.3598,
      "duration": 0.1294,
      "velocity": 107,
      "chip": "ym2612"
    },
    {
      "channel": 5,
      "note": 87,
      "start": 5.3612,
      "duration": 0.128,
      "velocity": 115,
      "chip": "ym2612"
    },
    {
      "channel": 0,
      "note": 62,
      "start": 5.4262,
      "duration": 0.5986,
      "velocity": 120,
      "chip": "ym2612"
    },
    {
      "channel": 2,
      "note": 50,
      "start": 5.4923,
      "duration": 0.1308,
      "velocity": 107,
      "chip": "ym2612"
    },
    {
      "channel": 3,
      "note": 62,
      "start": 5.4927,
      "duration": 0.2643,
      "velocity": 97,
      "chip": "ym2612"
    },
    {
      "channel": 4,
      "note": 53,
      "start": 5.4932,
      "duration": 0.2641,
      "velocity": 97,
      "chip": "ym2612"
    },
    {
      "channel": 5,
      "note": 87,
      "start": 5.4937,
      "duration": 0.1295,
      "velocity": 115,
      "chip": "ym2612"
    },
    {
      "channel": 1,
      "note": 61,
      "start": 5.5602,
      "duration": 0.0656,
      "velocity": 120,
      "chip": "ym2612"
    },
    {
      "channel": 1,
      "note": 62,
      "start": 5.6264,
      "duration": 0.5993,
      "velocity": 120,
      "chip": "ym2612"
    },
    {
      "channel": 2,
      "note": 50,
      "start": 5.6268,
      "duration": 0.1303,
      "velocity": 107,
      "chip": "ym2612"
    },
    {
      "channel": 5,
      "note": 87,
      "start": 5.6274,
      "duration": 0.1301,
      "velocity": 115,
      "chip": "ym2612"
    },
    {
      "channel": 2,
      "note": 50,
      "start": 5.7602,
      "duration": 0.1307,
      "velocity": 107,
      "chip": "ym2612"
    },
    {
      "channel": 3,
      "note": 64,
      "start": 5.7606,
      "duration": 0.1303,
      "velocity": 97,
      "chip": "ym2612"
    },
    {
      "channel": 4,
      "note": 55,
      "start": 5.7611,
      "duration": 0.13,
      "velocity": 97,
      "chip": "ym2612"
    },
    {
      "channel": 5,
      "note": 87,
      "start": 5.7619,
      "duration": 0.1293,
      "velocity": 115,
      "chip": "ym2612"
    },
    {
      "channel": 2,
      "note": 50,
      "start": 5.8941,
      "duration": 0.1308,
      "velocity": 107,
      "chip": "ym2612"
    },
    {
      "channel": 5,
      "note": 87,
      "start": 5.8946,
      "duration": 0.1304,
      "velocity": 115,
      "chip": "ym2612"
    },
    {
      "channel": 0,
      "note": 69,
      "start": 6.028,
      "duration": 0.1308,
      "velocity": 120,
      "chip": "ym2612"
    },
    {
      "channel": 2,
      "note": 50,
      "start": 6.0285,
      "duration": 0.1304,
      "velocity": 107,
      "chip": "ym2612"
    },
    {
      "channel": 3,
      "note": 65,
      "start": 6.0289,
      "duration": 0.13,
      "velocity": 97,
      "chip": "ym2612"
    },
    {
      "channel": 4,
      "note": 57,
      "start": 6.0294,
      "duration": 0.1297,
      "velocity": 97,
      "chip": "ym2612"
    },
    {
      "channel": 5,
      "note": 87,
      "start": 6.031,
      "duration": 0.1282,
      "velocity": 112,
      "chip": "ym2612"
    },
    {
      "channel": 2,
      "note": 48,
      "start": 6.1622,
      "duration": 0.1308,
      "velocity": 107,
      "chip": "ym2612"
    },
    {
      "channel": 3,
      "note": 67,
      "start": 6.1627,
      "duration": 0.1304,
      "velocity": 97,
      "chip": "ym2612"
    },
    {
      "channel": 4,
      "note": 58,
      "start": 6.1631,
      "duration": 0.13,
      "velocity": 97,
      "chip": "ym2612"
    },
    {
      "channel": 5,
      "note": 87,
      "start": 6.1646,
      "duration": 0.1287,
      "velocity": 115,
      "chip": "ym2612"
    },
    {
      "channel": 1,
      "note": 69,
      "start": 6.2288,
      "duration": 0.1309,
      "velocity": 120,
      "chip": "ym2612"
    },
    {
      "channel": 0,
      "note": 68,
      "start": 6.2959,
      "duration": 0.8003,
      "velocity": 120,
      "chip": "ym2612"
    },
    {
      "channel": 2,
      "note": 52,
      "start": 6.2963,
      "duration": 0.2643,
      "velocity": 107,
      "chip": "ym2612"
    },
    {
      "channel": 3,
      "note": 68,
      "start": 6.2968,
      "duration": 0.7996,
      "velocity": 97,
      "chip": "ym2612"
    },
    {
      "channel": 4,
      "note": 64,
      "start": 6.2973,
      "duration": 0.7993,
      "velocity": 97,
      "chip": "ym2612"
    },
    {
      "channel": 5,
      "note": 87,
      "start": 6.2978,
      "duration": 0.1289,
      "velocity": 115,
      "chip": "ym2612"
    },
    {
      "channel": 5,
      "note": 87,
      "start": 6.4298,
      "duration": 0.1308,
      "velocity": 115,
      "chip": "ym2612"
    },
    {
      "channel": 1,
      "note": 68,
      "start": 6.4968,
      "duration": 0.8003,
      "velocity": 120,
      "chip": "ym2612"
    },
    {
      "channel": 2,
      "note": 52,
      "start": 6.5638,
      "duration": 0.1306,
      "velocity": 107,
      "chip": "ym2612"
    },
    {
      "channel": 5,
      "note": 87,
      "start": 6.5643,
      "duration": 0.1302,
      "velocity": 115,
      "chip": "ym2612"
    },
    {
      "channel": 2,
      "note": 52,
      "start": 6.6976,
      "duration": 0.1309,
      "velocity": 107,
      "chip": "ym2612"
    },
    {
      "channel": 5,
      "note": 87,
      "start": 6.6981,
      "duration": 0.1304,
      "velocity": 115,
      "chip": "ym2612"
    },
    {
      "channel": 2,
      "note": 52,
      "start": 6.8317,
      "duration": 0.1305,
      "velocity": 107,
      "chip": "ym2612"
    },
    {
      "channel": 5,
      "note": 87,
      "start": 6.8323,
      "duration": 0.13,
      "velocity": 115,
      "chip": "ym2612"
    },
    {
      "channel": 2,
      "note": 52,
      "start": 6.9654,
      "duration": 0.1309,
      "velocity": 107,
      "chip": "ym2612"
    },
    {
      "channel": 5,
      "note": 87,
      "start": 6.9659,
      "duration": 0.1305,
      "velocity": 115,
      "chip": "ym2612"
    },
    {
      "channel": 0,
      "note": 64,
      "start": 7.0994,
      "duration": 0.1307,
      "velocity": 120,
      "chip": "ym2612"
    },
    {
      "channel": 2,
      "note": 52,
      "start": 7.0998,
      "duration": 0.1303,
      "velocity": 107,
      "chip": "ym2612"
    },
    {
      "channel": 3,
      "note": 70,
      "start": 7.1003,
      "duration": 0.13,
      "velocity": 97,
      "chip": "ym2612"
    },
    {
      "channel": 4,
      "note": 64,
      "start": 7.1007,
      "duration": 0.1296,
      "velocity": 97,
      "chip": "ym2612"
    },
    {
      "channel": 5,
      "note": 87,
      "start": 7.1026,
      "duration": 0.1278,
      "velocity": 112,
      "chip": "ym2612"
    },
    {
      "channel": 0,
      "note": 66,
      "start": 7.2332,
      "duration": 0.1308,
      "velocity": 120,
      "chip": "ym2612"
    },
    {
      "channel": 2,
      "note": 52,
      "start": 7.2337,
      "duration": 0.1305,
      "velocity": 107,
      "chip": "ym2612"
    },
    {
      "channel": 3,
      "note": 69,
      "start": 7.2341,
      "duration": 0.1301,
      "velocity": 97,
      "chip": "ym2612"
    },
    {
      "channel": 4,
      "note": 62,
      "start": 7.2346,
      "duration": 0.1298,
      "velocity": 97,
      "chip": "ym2612"
    },
    {
      "channel": 5,
      "note": 87,
      "start": 7.2361,
      "duration": 0.1284,
      "velocity": 115,
      "chip": "ym2612"
    },
    {
      "channel": 1,
      "note": 64,
      "start": 7.3002,
      "duration": 0.1307,
      "velocity": 120,
      "chip": "ym2612"
    },
    {
      "channel": 0,
      "note": 67,
      "start": 7.3672,
      "duration": 0.8003,
      "velocity": 120,
      "chip": "ym2612"
    },
    {
      "channel": 2,
      "note": 55,
      "start": 7.3677,
      "duration": 0.2642,
      "velocity": 107,
      "chip": "ym2612"
    },
    {
      "channel": 3,
      "note": 67,
      "start": 7.3681,
      "duration": 0.7995,
      "velocity": 97,
      "chip": "ym2612"
    },
    {
      "channel": 4,
      "note": 62,
      "start": 7.3686,
      "duration": 0.7992,
      "velocity": 97,
      "chip": "ym2612"
    },
    {
      "channel": 5,
      "note": 87,
      "start": 7.3691,
      "duration": 0.1289,
      "velocity": 115,
      "chip": "ym2612"
    },
    {
      "channel": 1,
      "note": 66,
      "start": 7.4341,
      "duration": 0.1308,
      "velocity": 120,
      "chip": "ym2612"
    },
    {
      "channel": 5,
      "note": 87,
      "start": 7.5011,
      "duration": 0.1309,
      "velocity": 115,
      "chip": "ym2612"
    },
    {
      "channel": 1,
      "note": 67,
      "start": 7.568,
      "duration": 0.8004,
      "velocity": 120,
      "chip": "ym2612"
    },
    {
      "channel": 2,
      "note": 55,
      "start": 7.635,
      "duration": 0.1308,
      "velocity": 107,
      "chip": "ym2612"
    },
    {
      "channel": 5,
      "note": 87,
      "start": 7.6355,
      "duration": 0.1304,
      "velocity": 115,
      "chip": "ym2612"
    },
    {
      "channel": 2,
      "note": 55,
      "start": 7.7689,
      "duration": 0.1308,
      "velocity": 107,
      "chip": "ym2612"
    },
    {
      "channel": 5,
      "note": 87,
      "start": 7.7694,
      "duration": 0.1304,
      "velocity": 115,
      "chip": "ym2612"
    },
    {
      "channel": 2,
      "note": 55,
      "start": 7.9029,
      "duration": 0.1307,
      "velocity": 107,
      "chip": "ym2612"
    },
    {
      "channel": 5,
      "note": 87,
      "start": 7.9034,
      "duration": 0.1303,
      "velocity": 115,
      "chip": "ym2612"
    },
    {
      "channel": 2,
      "note": 55,
      "start": 8.0367,
      "duration": 0.1309,
      "velocity": 107,
      "chip": "ym2612"
    },
    {
      "channel": 5,
      "note": 87,
      "start": 8.0373,
      "duration": 0.1306,
      "velocity": 115,
      "chip": "ym2612"
    },
    {
      "channel": 0,
      "note": 68,
      "start": 8.1707,
      "duration": 0.0666,
      "velocity": 120,
      "chip": "ym2612"
    },
    {
      "channel": 2,
      "note": 55,
      "start": 8.1711,
      "duration": 0.1306,
      "velocity": 107,
      "chip": "ym2612"
    },
    {
      "channel": 3,
      "note": 69,
      "start": 8.1718,
      "duration": 0.13,
      "velocity": 97,
      "chip": "ym2612"
    },
    {
      "channel": 4,
      "note": 62,
      "start": 8.1723,
      "duration": 0.1296,
      "velocity": 97,
      "chip": "ym2612"
    },
    {
      "channel": 5,
      "note": 87,
      "start": 8.1737,
      "duration": 0.1283,
      "velocity": 112,
      "chip": "ym2612"
    },
    {
      "channel": 0,
      "note": 69,
      "start": 8.2378,
      "duration": 0.1976,
      "velocity": 120,
      "chip": "ym2612"
    },
    {
      "channel": 2,
      "note": 55,
      "start": 8.3047,
      "duration": 0.1308,
      "velocity": 107,
      "chip": "ym2612"
    },
    {
      "channel": 3,
      "note": 67,
      "start": 8.3051,
      "duration": 0.1304,
      "velocity": 97,
      "chip": "ym2612"
    },
    {
      "channel": 4,
      "note": 60,
      "start": 8.3056,
      "duration": 0.1301,
      "velocity": 97,
      "chip": "ym2612"
    },
    {
      "channel": 5,
      "note": 87,
      "start": 8.307,
      "duration": 0.1287,
      "velocity": 115,
      "chip": "ym2612"
    },
    {
      "channel": 1,
      "note": 68,
      "start": 8.3719,
      "duration": 0.0663,
      "velocity": 120,
      "chip": "ym2612"
    },
    {
      "channel": 0,
      "note": 65,
      "start": 8.4387,
      "duration": 0.3985,
      "velocity": 120,
      "chip": "ym2612"
    },
    {
      "channel": 1,
      "note": 69,
      "start": 8.4391,
      "duration": 0.1972,
      "velocity": 120,
      "chip": "ym2612"
    },
    {
      "channel": 2,
      "note": 53,
      "start": 8.4396,
      "duration": 0.2636,
      "velocity": 107,
      "chip": "ym2612"
    },
    {
      "channel": 3,
      "note": 65,
      "start": 8.44,
      "duration": 0.5313,
      "velocity": 97,
      "chip": "ym2612"
    },
    {
      "channel": 4,
      "note": 57,
      "start": 8.4405,
      "duration": 0.5309,
      "velocity": 97,
      "chip": "ym2612"
    },
    {
      "channel": 5,
      "note": 87,
      "start": 8.4411,
      "duration": 0.1282,
      "velocity": 115,
      "chip": "ym2612"
    },
    {
      "channel": 5,
      "note": 87,
      "start": 8.5725,
      "duration": 0.1308,
      "velocity": 115,
      "chip": "ym2612"
    },
    {
      "channel": 1,
      "note": 65,
      "start": 8.6395,
      "duration": 0.3986,
      "velocity": 120,
      "chip": "ym2612"
    },
    {
      "channel": 2,
      "note": 65,
      "start": 8.7063,
      "duration": 0.1309,
      "velocity": 107,
      "chip": "ym2612"
    },
    {
      "channel": 5,
      "note": 87,
      "start": 8.7068,
      "duration": 0.1305,
      "velocity": 115,
      "chip": "ym2612"
    },
    {
      "channel": 0,
      "note": 67,
      "start": 8.8403,
      "duration": 0.1308,
      "velocity": 120,
      "chip": "ym2612"
    },
    {
      "channel": 2,
      "note": 50,
      "start": 8.8408,
      "duration": 0.1304,
      "velocity": 107,
      "chip": "ym2612"
    },
    {
      "channel": 5,
      "note": 87,
      "start": 8.8413,
      "duration": 0.1305,
      "velocity": 115,
      "chip": "ym2612"
    },
    {
      "channel": 0,
      "note": 69,
      "start": 8.9743,
      "duration": 0.6663,
      "velocity": 120,
      "chip": "ym2612"
    },
    {
      "channel": 2,
      "note": 50,
      "start": 8.9747,
      "duration": 0.1302,
      "velocity": 107,
      "chip": "ym2612"
    },
    {
      "channel": 3,
      "note": 69,
      "start": 8.9752,
      "duration": 0.6657,
      "velocity": 97,
      "chip": "ym2612"
    },
    {
      "channel": 4,
      "note": 53,
      "start": 8.9757,
      "duration": 0.6654,
      "velocity": 97,
      "chip": "ym2612"
    },
    {
      "channel": 5,
      "note": 87,
      "start": 8.9762,
      "duration": 0.1289,
      "velocity": 115,
      "chip": "ym2612"
    },
    {
      "channel": 1,
      "note": 67,
      "start": 9.0412,
      "duration": 0.1307,
      "velocity": 120,
      "chip": "ym2612"
    },
    {
      "channel": 2,
      "note": 50,
      "start": 9.1081,
      "duration": 0.1307,
      "velocity": 107,
      "chip": "ym2612"
    },
    {
      "channel": 5,
      "note": 87,
      "start": 9.1086,
      "duration": 0.1303,
      "velocity": 115,
      "chip": "ym2612"
    },
    {
      "channel": 1,
      "note": 69,
      "start": 9.1751,
      "duration": 0.4656,
      "velocity": 120,
      "chip": "ym2612"
    },
    {
      "channel": 2,
      "note": 50,
      "start": 9.2422,
      "duration": 0.1305,
      "velocity": 107,
      "chip": "ym2612"
    },
    {
      "channel": 5,
      "note": 87,
      "start": 9.2436,
      "duration": 0.1293,
      "velocity": 112,
      "chip": "ym2612"
    },
    {
      "channel": 2,
      "note": 62,
      "start": 9.3759,
      "duration": 0.1309,
      "velocity": 107,
      "chip": "ym2612"
    },
    {
      "channel": 5,
      "note": 87,
      "start": 9.3774,
      "duration": 0.1295,
      "velocity": 115,
      "chip": "ym2612"
    },
    {
      "channel": 2,
      "note": 50,
      "start": 9.5099,
      "duration": 0.131,
      "velocity": 107,
      "chip": "ym2612"
    },
    {
      "channel": 5,
      "note": 87,
      "start": 9.5104,
      "duration": 0.1307,
      "velocity": 115,
      "chip": "ym2612"
    },
    {
      "channel": 0,
      "note": 69,
      "start": 9.6438,
      "duration": 0.0667,
      "velocity": 120,
      "chip": "ym2612"
    },
    {
      "channel": 2,
      "note": 55,
      "start": 9.6442,
      "duration": 0.1303,
      "velocity": 107,
      "chip": "ym2612"
    },
    {
      "channel": 3,
      "note": 67,
      "start": 9.6456,
      "duration": 0.6647,
      "velocity": 120,
      "chip": "ym2612"
    },
    {
      "channel": 5,
      "note": 103,
      "start": 9.648,
      "duration": 0.2607,
      "velocity": 127,
      "chip": "ym2612"
    },
    {
      "channel": 0,
      "note": 70,
      "start": 9.7109,
      "duration": 0.5993,
      "velocity": 120,
      "chip": "ym2612"
    },
    {
      "channel": 2,
      "note": 55,
      "start": 9.7778,
      "duration": 0.1308,
      "velocity": 107,
      "chip": "ym2612"
    },
    {
      "channel": 4,
      "note": 62,
      "start": 9.7783,
      "duration": 0.0131,
      "velocity": 97,
      "chip": "ym2612"
    },
    {
      "channel": 1,
      "note": 69,
      "start": 9.8446,
      "duration": 0.0667,
      "velocity": 120,
      "chip": "ym2612"
    },
    {
      "channel": 4,
      "note": 62,
      "start": 9.8451,
      "duration": 0.0132,
      "velocity": 97,
      "chip": "ym2612"
    },
    {
      "channel": 1,
      "note": 70,
      "start": 9.9121,
      "duration": 0.599,
      "velocity": 120,
      "chip": "ym2612"
    },
    {
      "channel": 2,
      "note": 55,
      "start": 9.9125,
      "duration": 0.1301,
      "velocity": 107,
      "chip": "ym2612"
    },
    {
      "channel": 4,
      "note": 65,
      "start": 9.913,
      "duration": 0.0123,
      "velocity": 97,
      "chip": "ym2612"
    },
    {
      "channel": 5,
      "note": 103,
      "start": 9.9135,
      "duration": 0.2629,
      "velocity": 127,
      "chip": "ym2612"
    },
    {
      "channel": 4,
      "note": 65,
      "start": 9.9787,
      "duration": 0.0136,
      "velocity": 97,
      "chip": "ym2612"
    },
    {
      "channel": 2,
      "note": 55,
      "start": 10.0455,
      "duration": 0.1308,
      "velocity": 107,
      "chip": "ym2612"
    },
    {
      "channel": 4,
      "note": 62,
      "start": 10.046,
      "duration": 0.0132,
      "velocity": 97,
      "chip": "ym2612"
    },
    {
      "channel": 4,
      "note": 62,
      "start": 10.1133,
      "duration": 0.0128,
      "velocity": 97,
      "chip": "ym2612"
    },
    {
      "channel": 2,
      "note": 55,
      "start": 10.1795,
      "duration": 0.131,
      "velocity": 107,
      "chip": "ym2612"
    },
    {
      "channel": 4,
      "note": 72,
      "start": 10.1799,
      "duration": 0.0132,
      "velocity": 97,
      "chip": "ym2612"
    },
    {
      "channel": 5,
      "note": 103,
      "start": 10.1804,
      "duration": 0.2642,
      "velocity": 127,
      "chip": "ym2612"
    },
    {
      "channel": 4,
      "note": 72,
      "start": 10.2464,
      "duration": 0.0136,
      "velocity": 97,
      "chip": "ym2612"
    },
    {
      "channel": 0,
      "note": 72,
      "start": 10.3134,
      "duration": 0.1309,
      "velocity": 120,
      "chip": "ym2612"
    },
    {
      "channel": 2,
      "note": 55,
      "start": 10.3139,
      "duration": 0.1304,
      "velocity": 107,
      "chip": "ym2612"
    },
    {
      "channel": 3,
      "note": 69,
      "start": 10.3144,
      "duration": 0.13,
      "velocity": 120,
      "chip": "ym2612"
    },
    {
      "channel": 4,
      "note": 74,
      "start": 10.3149,
      "duration": 0.0121,
      "velocity": 97,
      "chip": "ym2612"
    },
    {
      "channel": 4,
      "note": 74,
      "start": 10.3804,
      "duration": 0.0135,
      "velocity": 97,
      "chip": "ym2612"
    },
    {
      "channel": 0,
      "note": 74,
      "start": 10.4474,
      "duration": 0.1308,
      "velocity": 120,
      "chip": "ym2612"
    },
    {
      "channel": 2,
      "note": 55,
      "start": 10.4478,
      "duration": 0.1304,
      "velocity": 107,
      "chip": "ym2612"
    },
    {
      "channel": 3,
      "note": 70,
      "start": 10.4483,
      "duration": 0.13,
      "velocity": 120,
      "chip": "ym2612"
    },
    {
      "channel": 4,
      "note": 76,
      "start": 10.4488,
      "duration": 0.0122,
      "velocity": 97,
      "chip": "ym2612"
    },
    {
      "channel": 5,
      "note": 103,
      "start": 10.4493,
      "duration": 0.2629,
      "velocity": 127,
      "chip": "ym2612"
    },
    {
      "channel": 1,
      "note": 72,
      "start": 10.5143,
      "duration": 0.1309,
      "velocity": 120,
      "chip": "ym2612"
    },
    {
      "channel": 4,
      "note": 76,
      "start": 10.5147,
      "duration": 0.0131,
      "velocity": 97,
      "chip": "ym2612"
    },
    {
      "channel": 0,
      "note": 72,
      "start": 10.5812,
      "duration": 0.5326,
      "velocity": 120,
      "chip": "ym2612"
    },
    {
      "channel": 2,
      "note": 57,
      "start": 10.5819,
      "duration": 0.264,
      "velocity": 107,
      "chip": "ym2612"
    },
    {
      "channel": 3,
      "note": 69,
      "start": 10.5824,
      "duration": 0.5317,
      "velocity": 120,
      "chip": "ym2612"
    },
    {
      "channel": 4,
      "note": 72,
      "start": 10.5828,
      "duration": 0.012,
      "velocity": 97,
      "chip": "ym2612"
    },
    {
      "channel": 1,
      "note": 74,
      "start": 10.6483,
      "duration": 0.1307,
      "velocity": 120,
      "chip": "ym2612"
    },
    {
      "channel": 4,
      "note": 72,
      "start": 10.6487,
      "duration": 0.0131,
      "velocity": 97,
      "chip": "ym2612"
    },
    {
      "channel": 5,
      "note": 103,
      "start": 10.7152,
      "duration": 0.2647,
      "velocity": 127,
      "chip": "ym2612"
    },
    {
      "channel": 1,
      "note": 72,
      "start": 10.7822,
      "duration": 0.5325,
      "velocity": 120,
      "chip": "ym2612"
    },
    {
      "channel": 2,
      "note": 57,
      "start": 10.8491,
      "duration": 0.1307,
      "velocity": 107,
      "chip": "ym2612"
    },
    {
      "channel": 4,
      "note": 72,
      "start": 10.8496,
      "duration": 0.0131,
      "velocity": 97,
      "chip": "ym2612"
    },
    {
      "channel": 4,
      "note": 72,
      "start": 10.916,
      "duration": 0.0136,
      "velocity": 97,
      "chip": "ym2612"
    },
    {
      "channel": 2,
      "note": 57,
      "start": 10.9831,
      "duration": 0.1309,
      "velocity": 107,
      "chip": "ym2612"
    },
    {
      "channel": 4,
      "note": 76,
      "start": 10.9835,
      "duration": 0.0132,
      "velocity": 97,
      "chip": "ym2612"
    },
    {
      "channel": 5,
      "note": 103,
      "start": 10.984,
      "duration": 0.2639,
      "velocity": 127,
      "chip": "ym2612"
    },
    {
      "channel": 4,
      "note": 76,
      "start": 11.05,
      "duration": 0.0135,
      "velocity": 97,
      "chip": "ym2612"
    },
    {
      "channel": 0,
      "note": 69,
      "start": 11.1169,
      "duration": 0.5325,
      "velocity": 120,
      "chip": "ym2612"
    },
    {
      "channel": 2,
      "note": 57,
      "start": 11.1173,
      "duration": 0.1305,
      "velocity": 107,
      "chip": "ym2612"
    },
    {
      "channel": 3,
      "note": 64,
      "start": 11.1178,
      "duration": 0.5318,
      "velocity": 120,
      "chip": "ym2612"
    },
    {
      "channel": 4,
      "note": 72,
      "start": 11.1183,
      "duration": 0.0128,
      "velocity": 97,
      "chip": "ym2612"
    },
    {
      "channel": 4,
      "note": 72,
      "start": 11.1839,
      "duration": 0.0136,
      "velocity": 97,
      "chip": "ym2612"
    },
    {
      "channel": 2,
      "note": 57,
      "start": 11.2508,
      "duration": 0.1311,
      "velocity": 107,
      "chip": "ym2612"
    },
    {
      "channel": 4,
      "note": 81,
      "start": 11.2514,
      "duration": 0.013,
      "velocity": 97,
      "chip": "ym2612"
    },
    {
      "channel": 5,
      "note": 103,
      "start": 11.2521,
      "duration": 0.2635,
      "velocity": 127,
      "chip": "ym2612"
    },
    {
      "channel": 1,
      "note": 69,
      "start": 11.3179,
      "duration": 0.5324,
      "velocity": 120,
      "chip": "ym2612"
    },
    {
      "channel": 4,
      "note": 81,
      "start": 11.3183,
      "duration": 0.0136,
      "velocity": 97,
      "chip": "ym2612"
    },
    {
      "channel": 2,
      "note": 57,
      "start": 11.3848,
      "duration": 0.1307,
      "velocity": 107,
      "chip": "ym2612"
    },
    {
      "channel": 4,
      "note": 72,
      "start": 11.3853,
      "duration": 0.0131,
      "velocity": 97,
      "chip": "ym2612"
    },
    {
      "channel": 4,
      "note": 72,
      "start": 11.452,
      "duration": 0.0134,
      "velocity": 97,
      "chip": "ym2612"
    },
    {
      "channel": 2,
      "note": 57,
      "start": 11.5187,
      "duration": 0.1309,
      "velocity": 107,
      "chip": "ym2612"
    },
    {
      "channel": 4,
      "note": 74,
      "start": 11.5191,
      "duration": 0.0132,
      "velocity": 97,
      "chip": "ym2612"
    },
    {
      "channel": 5,
      "note": 103,
      "start": 11.5196,
      "duration": 0.2638,
      "velocity": 127,
      "chip": "ym2612"
    },
    {
      "channel": 4,
      "note": 74,
      "start": 11.5857,
      "duration": 0.0135,
      "velocity": 97,
      "chip": "ym2612"
    },
    {
      "channel": 0,
      "note": 67,
      "start": 11.6526,
      "duration": 0.8004,
      "velocity": 120,
      "chip": "ym2612"
    },
    {
      "channel": 2,
      "note": 58,
      "start": 11.653,
      "duration": 0.2642,
      "velocity": 107,
      "chip": "ym2612"
    },
    {
      "channel": 3,
      "note": 62,
      "start": 11.6535,
      "duration": 0.7996,
      "velocity": 120,
      "chip": "ym2612"
    },
    {
      "channel": 4,
      "note": 76,
      "start": 11.6539,
      "duration": 0.0122,
      "velocity": 97,
      "chip": "ym2612"
    },
    {
      "channel": 4,
      "note": 76,
      "start": 11.7196,
      "duration": 0.0136,
      "velocity": 97,
      "chip": "ym2612"
    },
    {
      "channel": 5,
      "note": 103,
      "start": 11.7865,
      "duration": 0.2649,
      "velocity": 127,
      "chip": "ym2612"
    },
    {
      "channel": 1,
      "note": 67,
      "start": 11.8534,
      "duration": 0.8005,
      "velocity": 120,
      "chip": "ym2612"
    },
    {
      "channel": 2,
      "note": 58,
      "start": 11.9205,
      "duration": 0.1308,
      "velocity": 107,
      "chip": "ym2612"
    },
    {
      "channel": 4,
      "note": 70,
      "start": 11.921,
      "duration": 0.0131,
      "velocity": 97,
      "chip": "ym2612"
    },
    {
      "channel": 4,
      "note": 70,
      "start": 11.9874,
      "duration": 0.0136,
      "velocity": 97,
      "chip": "ym2612"
    },
    {
      "channel": 2,
      "note": 58,
      "start": 12.0544,
      "duration": 0.1308,
      "velocity": 107,
      "chip": "ym2612"
    },
    {
      "channel": 4,
      "note": 74,
      "start": 12.0549,
      "duration": 0.0131,
      "velocity": 97,
      "chip": "ym2612"
    },
    {
      "channel": 5,
      "note": 103,
      "start": 12.0554,
      "duration": 0.2638,
      "velocity": 127,
      "chip": "ym2612"
    },
    {
      "channel": 4,
      "note": 74,
      "start": 12.1214,
      "duration": 0.0136,
      "velocity": 97,
      "chip": "ym2612"
    },
    {
      "channel": 2,
      "note": 58,
      "start": 12.1885,
      "duration": 0.1306,
      "velocity": 107,
      "chip": "ym2612"
    },
    {
      "channel": 4,
      "note": 70,
      "start": 12.1889,
      "duration": 0.013,
      "velocity": 97,
      "chip": "ym2612"
    },
    {
      "channel": 4,
      "note": 70,
      "start": 12.2553,
      "duration": 0.0135,
      "velocity": 97,
      "chip": "ym2612"
    },
    {
      "channel": 2,
      "note": 58,
      "start": 12.3223,
      "duration": 0.1307,
      "velocity": 107,
      "chip": "ym2612"
    },
    {
      "channel": 4,
      "note": 79,
      "start": 12.3227,
      "duration": 0.0131,
      "velocity": 97,
      "chip": "ym2612"
    },
    {
      "channel": 5,
      "note": 103,
      "start": 12.3232,
      "duration": 0.264,
      "velocity": 127,
      "chip": "ym2612"
    },
    {
      "channel": 4,
      "note": 79,
      "start": 12.3892,
      "duration": 0.0135,
      "velocity": 97,
      "chip": "ym2612"
    },
    {
      "channel": 0,
      "note": 69,
      "start": 12.4561,
      "duration": 0.1308,
      "velocity": 120,
      "chip": "ym2612"
    },
    {
      "channel": 2,
      "note": 58,
      "start": 12.4566,
      "duration": 0.1305,
      "velocity": 107,
      "chip": "ym2612"
    },
    {
      "channel": 3,
      "note": 64,
      "start": 12.4571,
      "duration": 0.1301,
      "velocity": 120,
      "chip": "ym2612"
    },
    {
      "channel": 4,
      "note": 70,
      "start": 12.4575,
      "duration": 0.0123,
      "velocity": 97,
      "chip": "ym2612"
    },
    {
      "channel": 4,
      "note": 70,
      "start": 12.5231,
      "duration": 0.0136,
      "velocity": 97,
      "chip": "ym2612"
    },
    {
      "channel": 0,
      "note": 70,
      "start": 12.59,
      "duration": 0.1308,
      "velocity": 120,
      "chip": "ym2612"
    },
    {
      "channel": 2,
      "note": 58,
      "start": 12.5905,
      "duration": 0.1305,
      "velocity": 107,
      "chip": "ym2612"
    },
    {
      "channel": 3,
      "note": 65,
      "start": 12.591,
      "duration": 0.1301,
      "velocity": 120,
      "chip": "ym2612"
    },
    {
      "channel": 4,
      "note": 74,
      "start": 12.5914,
      "duration": 0.0122,
      "velocity": 97,
      "chip": "ym2612"
    },
    {
      "channel": 5,
      "note": 103,
      "start": 12.5925,
      "duration": 0.2622,
      "velocity": 127,
      "chip": "ym2612"
    },
    {
      "channel": 1,
      "note": 69,
      "start": 12.6571,
      "duration": 0.1307,
      "velocity": 120,
      "chip": "ym2612"
    },
    {
      "channel": 4,
      "note": 74,
      "start": 12.6575,
      "duration": 0.0132,
      "velocity": 97,
      "chip": "ym2612"
    },
    {
      "channel": 0,
      "note": 69,
      "start": 12.7239,
      "duration": 1.2022,
      "velocity": 120,
      "chip": "ym2612"
    },
    {
      "channel": 2,
      "note": 57,
      "start": 12.7244,
      "duration": 0.2643,
      "velocity": 107,
      "chip": "ym2612"
    },
    {
      "channel": 3,
      "note": 64,
      "start": 12.7249,
      "duration": 1.2015,
      "velocity": 120,
      "chip": "ym2612"
    },
    {
      "channel": 4,
      "note": 69,
      "start": 12.7253,
      "duration": 0.0123,
      "velocity": 97,
      "chip": "ym2612"
    },
    {
      "channel": 1,
      "note": 70,
      "start": 12.7909,
      "duration": 0.131,
      "velocity": 120,
      "chip": "ym2612"
    },
    {
      "channel": 4,
      "note": 69,
      "start": 12.7914,
      "duration": 0.0133,
      "velocity": 97,
      "chip": "ym2612"
    },
    {
      "channel": 5,
      "note": 103,
      "start": 12.8579,
      "duration": 0.2648,
      "velocity": 127,
      "chip": "ym2612"
    },
    {
      "channel": 1,
      "note": 69,
      "start": 12.9249,
      "duration": 1.0014,
      "velocity": 120,
      "chip": "ym2612"
    },
    {
      "channel": 2,
      "note": 57,
      "start": 12.992,
      "duration": 0.1306,
      "velocity": 107,
      "chip": "ym2612"
    },
    {
      "channel": 4,
      "note": 69,
      "start": 12.9925,
      "duration": 0.0134,
      "velocity": 97,
      "chip": "ym2612"
    },
    {
      "channel": 4,
      "note": 69,
      "start": 13.0588,
      "duration": 0.0136,
      "velocity": 97,
      "chip": "ym2612"
    },
    {
      "channel": 2,
      "note": 57,
      "start": 13.1257,
      "duration": 0.1308,
      "velocity": 107,
      "chip": "ym2612"
    },
    {
      "channel": 4,
      "note": 72,
      "start": 13.1263,
      "duration": 0.013,
      "velocity": 97,
      "chip": "ym2612"
    },
    {
      "channel": 5,
      "note": 103,
      "start": 13.1268,
      "duration": 0.2637,
      "velocity": 127,
      "chip": "ym2612"
    },
    {
      "channel": 4,
      "note": 72,
      "start": 13.1927,
      "duration": 0.0137,
      "velocity": 97,
      "chip": "ym2612"
    },
    {
      "channel": 2,
      "note": 57,
      "start": 13.2596,
      "duration": 0.1308,
      "velocity": 107,
      "chip": "ym2612"
    },
    {
      "channel": 4,
      "note": 69,
      "start": 13.2601,
      "duration": 0.0132,
      "velocity": 97,
      "chip": "ym2612"
    },
    {
      "channel": 4,
      "note": 69,
      "start": 13.3267,
      "duration": 0.0136,
      "velocity": 97,
      "chip": "ym2612"
    },
    {
      "channel": 2,
      "note": 57,
      "start": 13.3937,
      "duration": 0.1307,
      "velocity": 107,
      "chip": "ym2612"
    },
    {
      "channel": 4,
      "note": 74,
      "start": 13.3941,
      "duration": 0.0131,
      "velocity": 97,
      "chip": "ym2612"
    },
    {
      "channel": 5,
      "note": 103,
      "start": 13.3946,
      "duration": 0.2638,
      "velocity": 127,
      "chip": "ym2612"
    },
    {
      "channel": 4,
      "note": 74,
      "start": 13.4606,
      "duration": 0.0136,
      "velocity": 97,
      "chip": "ym2612"
    },
    {
      "channel": 2,
      "note": 57,
      "start": 13.5275,
      "duration": 0.1308,
      "velocity": 107,
      "chip": "ym2612"
    },
    {
      "channel": 4,
      "note": 69,
      "start": 13.5279,
      "duration": 0.0131,
      "velocity": 97,
      "chip": "ym2612"
    },
    {
      "channel": 4,
      "note": 69,
      "start": 13.5945,
      "duration": 0.0136,
      "velocity": 97,
      "chip": "ym2612"
    },
    {
      "channel": 2,
      "note": 57,
      "start": 13.6614,
      "duration": 0.1308,
      "velocity": 107,
      "chip": "ym2612"
    },
    {
      "channel": 4,
      "note": 76,
      "start": 13.6621,
      "duration": 0.0129,
      "velocity": 97,
      "chip": "ym2612"
    },
    {
      "channel": 5,
      "note": 103,
      "start": 13.6626,
      "duration": 0.2639,
      "velocity": 127,
      "chip": "ym2612"
    },
    {
      "channel": 4,
      "note": 76,
      "start": 13.7284,
      "duration": 0.0135,
      "velocity": 97,
      "chip": "ym2612"
    },
    {
      "channel": 2,
      "note": 57,
      "start": 13.7953,
      "duration": 0.131,
      "velocity": 107,
      "chip": "ym2612"
    },
    {
      "channel": 4,
      "note": 69,
      "start": 13.7958,
      "duration": 0.0132,
      "velocity": 97,
      "chip": "ym2612"
    },
    {
      "channel": 4,
      "note": 69,
      "start": 13.8623,
      "duration": 0.0136,
      "velocity": 97,
      "chip": "ym2612"
    },
    {
      "channel": 0,
      "note": 69,
      "start": 13.9292,
      "duration": 0.0667,
      "velocity": 120,
      "chip": "ym2612"
    },
    {
      "channel": 2,
      "note": 55,
      "start": 13.9297,
      "duration": 0.1304,
      "velocity": 107,
      "chip": "ym2612"
    },
    {
      "channel": 3,
      "note": 67,
      "start": 13.9301,
      "duration": 0.6657,
      "velocity": 120,
      "chip": "ym2612"
    },
    {
      "channel": 5,
      "note": 103,
      "start": 13.933,
      "duration": 0.261,
      "velocity": 127,
      "chip": "ym2612"
    },
    {
      "channel": 0,
      "note": 70,
      "start": 13.9964,
      "duration": 0.5994,
      "velocity": 120,
      "chip": "ym2612"
    },
    {
      "channel": 2,
      "note": 55,
      "start": 14.0631,
      "duration": 0.1308,
      "velocity": 107,
      "chip": "ym2612"
    },
    {
      "channel": 4,
      "note": 62,
      "start": 14.0637,
      "duration": 0.013,
      "velocity": 97,
      "chip": "ym2612"
    },
    {
      "channel": 1,
      "note": 69,
      "start": 14.1301,
      "duration": 0.0667,
      "velocity": 120,
      "chip": "ym2612"
    },
    {
      "channel": 4,
      "note": 62,
      "start": 14.1306,
      "duration": 0.0131,
      "velocity": 97,
      "chip": "ym2612"
    },
    {
      "channel": 1,
      "note": 70,
      "start": 14.1973,
      "duration": 0.5993,
      "velocity": 120,
      "chip": "ym2612"
    },
    {
      "channel": 2,
      "note": 55,
      "start": 14.1977,
      "duration": 0.1302,
      "velocity": 107,
      "chip": "ym2612"
    },
    {
      "channel": 4,
      "note": 65,
      "start": 14.1982,
      "duration": 0.0125,
      "velocity": 97,
      "chip": "ym2612"
    },
    {
      "channel": 5,
      "note": 103,
      "start": 14.1986,
      "duration": 0.2634,
      "velocity": 127,
      "chip": "ym2612"
    },
    {
      "channel": 4,
      "note": 65,
      "start": 14.264,
      "duration": 0.0136,
      "velocity": 97,
      "chip": "ym2612"
    },
    {
      "channel": 2,
      "note": 55,
      "start": 14.3311,
      "duration": 0.1308,
      "velocity": 107,
      "chip": "ym2612"
    },
    {
      "channel": 4,
      "note": 62,
      "start": 14.3318,
      "duration": 0.0129,
      "velocity": 97,
      "chip": "ym2612"
    },
    {
      "channel": 4,
      "note": 62,
      "start": 14.398,
      "duration": 0.0138,
      "velocity": 97,
      "chip": "ym2612"
    },
    {
      "channel": 2,
      "note": 55,
      "start": 14.465,
      "duration": 0.1309,
      "velocity": 107,
      "chip": "ym2612"
    },
    {
      "channel": 4,
      "note": 72,
      "start": 14.4655,
      "duration": 0.013,
      "velocity": 97,
      "chip": "ym2612"
    },
    {
      "channel": 5,
      "note": 103,
      "start": 14.466,
      "duration": 0.264,
      "velocity": 127,
      "chip": "ym2612"
    },
    {
      "channel": 4,
      "note": 72,
      "start": 14.5322,
      "duration": 0.0133,
      "velocity": 97,
      "chip": "ym2612"
    },
    {
      "channel": 0,
      "note": 72,
      "start": 14.5989,
      "duration": 0.1307,
      "velocity": 120,
      "chip": "ym2612"
    },
    {
      "channel": 2,
      "note": 55,
      "start": 14.5994,
      "duration": 0.1304,
      "velocity": 107,
      "chip": "ym2612"
    },
    {
      "channel": 3,
      "note": 69,
      "start": 14.5998,
      "duration": 0.13,
      "velocity": 120,
      "chip": "ym2612"
    },
    {
      "channel": 4,
      "note": 74,
      "start": 14.6003,
      "duration": 0.0121,
      "velocity": 97,
      "chip": "ym2612"
    },
    {
      "channel": 4,
      "note": 74,
      "start": 14.6658,
      "duration": 0.0136,
      "velocity": 97,
      "chip": "ym2612"
    },
    {
      "channel": 0,
      "note": 74,
      "start": 14.7327,
      "duration": 0.1308,
      "velocity": 120,
      "chip": "ym2612"
    },
    {
      "channel": 2,
      "note": 55,
      "start": 14.7332,
      "duration": 0.1304,
      "velocity": 107,
      "chip": "ym2612"
    },
    {
      "channel": 3,
      "note": 70,
      "start": 14.7337,
      "duration": 0.13,
      "velocity": 120,
      "chip": "ym2612"
    },
    {
      "channel": 4,
      "note": 76,
      "start": 14.7341,
      "duration": 0.0122,
      "velocity": 97,
      "chip": "ym2612"
    },
    {
      "channel": 5,
      "note": 103,
      "start": 14.7346,
      "duration": 0.263,
      "velocity": 127,
      "chip": "ym2612"
    },
    {
      "channel": 1,
      "note": 72,
      "start": 14.7998,
      "duration": 0.1307,
      "velocity": 120,
      "chip": "ym2612"
    },
    {
      "channel": 4,
      "note": 76,
      "start": 14.8002,
      "duration": 0.0131,
      "velocity": 97,
      "chip": "ym2612"
    },
    {
      "channel": 0,
      "note": 72,
      "start": 14.8667,
      "duration": 0.5326,
      "velocity": 120,
      "chip": "ym2612"
    },
    {
      "channel": 2,
      "note": 57,
      "start": 14.8671,
      "duration": 0.2647,
      "velocity": 107,
      "chip": "ym2612"
    },
    {
      "channel": 3,
      "note": 69,
      "start": 14.8676,
      "duration": 0.5319,
      "velocity": 120,
      "chip": "ym2612"
    },
    {
      "channel": 4,
      "note": 72,
      "start": 14.868,
      "duration": 0.0123,
      "velocity": 97,
      "chip": "ym2612"
    },
    {
      "channel": 1,
      "note": 74,
      "start": 14.9337,
      "duration": 0.1307,
      "velocity": 120,
      "chip": "ym2612"
    },
    {
      "channel": 4,
      "note": 72,
      "start": 14.9342,
      "duration": 0.0131,
      "velocity": 97,
      "chip": "ym2612"
    },
    {
      "channel": 5,
      "note": 103,
      "start": 15.0008,
      "duration": 0.2646,
      "velocity": 127,
      "chip": "ym2612"
    },
    {
      "channel": 1,
      "note": 72,
      "start": 15.0676,
      "duration": 0.5324,
      "velocity": 120,
      "chip": "ym2612"
    },
    {
      "channel": 2,
      "note": 57,
      "start": 15.1346,
      "duration": 0.1307,
      "velocity": 107,
      "chip": "ym2612"
    },
    {
      "channel": 4,
      "note": 72,
      "start": 15.135,
      "duration": 0.0132,
      "velocity": 97,
      "chip": "ym2612"
    },
    {
      "channel": 4,
      "note": 72,
      "start": 15.2018,
      "duration": 0.0133,
      "velocity": 97,
      "chip": "ym2612"
    },
    {
      "channel": 2,
      "note": 57,
      "start": 15.2684,
      "duration": 0.131,
      "velocity": 107,
      "chip": "ym2612"
    },
    {
      "channel": 4,
      "note": 76,
      "start": 15.2689,
      "duration": 0.0133,
      "velocity": 97,
      "chip": "ym2612"
    },
    {
      "channel": 5,
      "note": 103,
      "start": 15.2694,
      "duration": 0.2639,
      "velocity": 127,
      "chip": "ym2612"
    },
    {
      "channel": 4,
      "note": 76,
      "start": 15.3354,
      "duration": 0.0136,
      "velocity": 97,
      "chip": "ym2612"
    },
    {
      "channel": 0,
      "note": 69,
      "start": 15.4024,
      "duration": 0.5324,
      "velocity": 120,
      "chip": "ym2612"
    },
    {
      "channel": 2,
      "note": 57,
      "start": 15.4029,
      "duration": 0.1302,
      "velocity": 107,
      "chip": "ym2612"
    },
    {
      "channel": 3,
      "note": 64,
      "start": 15.4033,
      "duration": 0.5317,
      "velocity": 120,
      "chip": "ym2612"
    },
    {
      "channel": 4,
      "note": 72,
      "start": 15.4038,
      "duration": 0.0123,
      "velocity": 97,
      "chip": "ym2612"
    },
    {
      "channel": 4,
      "note": 72,
      "start": 15.4694,
      "duration": 0.0135,
      "velocity": 97,
      "chip": "ym2612"
    },
    {
      "channel": 2,
      "note": 57,
      "start": 15.5363,
      "duration": 0.1307,
      "velocity": 107,
      "chip": "ym2612"
    },
    {
      "channel": 4,
      "note": 81,
      "start": 15.5368,
      "duration": 0.0131,
      "velocity": 97,
      "chip": "ym2612"
    },
    {
      "channel": 5,
      "note": 103,
      "start": 15.5373,
      "duration": 0.2639,
      "velocity": 127,
      "chip": "ym2612"
    },
    {
      "channel": 1,
      "note": 69,
      "start": 15.6032,
      "duration": 0.5325,
      "velocity": 120,
      "chip": "ym2612"
    },
    {
      "channel": 4,
      "note": 81,
      "start": 15.6037,
      "duration": 0.0131,
      "velocity": 97,
      "chip": "ym2612"
    },
    {
      "channel": 2,
      "note": 57,
      "start": 15.6702,
      "duration": 0.1309,
      "velocity": 107,
      "chip": "ym2612"
    },
    {
      "channel": 4,
      "note": 72,
      "start": 15.6706,
      "duration": 0.0131,
      "velocity": 97,
      "chip": "ym2612"
    },
    {
      "channel": 4,
      "note": 72,
      "start": 15.738,
      "duration": 0.0128,
      "velocity": 97,
      "chip": "ym2612"
    },
    {
      "channel": 2,
      "note": 57,
      "start": 15.8042,
      "duration": 0.1308,
      "velocity": 107,
      "chip": "ym2612"
    },
    {
      "channel": 4,
      "note": 74,
      "start": 15.8046,
      "duration": 0.013,
      "velocity": 97,
      "chip": "ym2612"
    },
    {
      "channel": 5,
      "note": 103,
      "start": 15.8051,
      "duration": 0.2637,
      "velocity": 127,
      "chip": "ym2612"
    },
    {
      "channel": 4,
      "note": 74,
      "start": 15.8711,
      "duration": 0.0136,
      "velocity": 97,
      "chip": "ym2612"
    },
    {
      "channel": 0,
      "note": 67,
      "start": 15.938,
      "duration": 0.8005,
      "velocity": 120,
      "chip": "ym2612"
    },
    {
      "channel": 2,
      "note": 58,
      "start": 15.9386,
      "duration": 0.2641,
      "velocity": 107,
      "chip": "ym2612"
    },
    {
      "channel": 3,
      "note": 62,
      "start": 15.939,
      "duration": 0.7997,
      "velocity": 120,
      "chip": "ym2612"
    },
    {
      "channel": 4,
      "note": 76,
      "start": 15.9395,
      "duration": 0.0124,
      "velocity": 97,
      "chip": "ym2612"
    },
    {
      "channel": 4,
      "note": 76,
      "start": 16.0051,
      "duration": 0.0135,
      "velocity": 97,
      "chip": "ym2612"
    },
    {
      "channel": 5,
      "note": 103,
      "start": 16.0723,
      "duration": 0.2644,
      "velocity": 127,
      "chip": "ym2612"
    },
    {
      "channel": 1,
      "note": 67,
      "start": 16.1389,
      "duration": 0.8004,
      "velocity": 120,
      "chip": "ym2612"
    },
    {
      "channel": 2,
      "note": 58,
      "start": 16.2059,
      "duration": 0.1307,
      "velocity": 107,
      "chip": "ym2612"
    },
    {
      "channel": 4,
      "note": 70,
      "start": 16.2063,
      "duration": 0.0132,
      "velocity": 97,
      "chip": "ym2612"
    },
    {
      "channel": 4,
      "note": 70,
      "start": 16.2729,
      "duration": 0.0137,
      "velocity": 97,
      "chip": "ym2612"
    },
    {
      "channel": 2,
      "note": 58,
      "start": 16.3398,
      "duration": 0.1308,
      "velocity": 107,
      "chip": "ym2612"
    },
    {
      "channel": 4,
      "note": 74,
      "start": 16.3402,
      "duration": 0.0133,
      "velocity": 97,
      "chip": "ym2612"
    },
    {
      "channel": 5,
      "note": 103,
      "start": 16.3407,
      "duration": 0.2638,
      "velocity": 127,
      "chip": "ym2612"
    },
    {
      "channel": 4,
      "note": 74,
      "start": 16.4068,
      "duration": 0.0137,
      "velocity": 97,
      "chip": "ym2612"
    },
    {
      "channel": 2,
      "note": 58,
      "start": 16.4737,
      "duration": 0.1308,
      "velocity": 107,
      "chip": "ym2612"
    },
    {
      "channel": 4,
      "note": 70,
      "start": 16.4741,
      "duration": 0.0132,
      "velocity": 97,
      "chip": "ym2612"
    },
    {
      "channel": 4,
      "note": 70,
      "start": 16.5407,
      "duration": 0.0137,
      "velocity": 97,
      "chip": "ym2612"
    },
    {
      "channel": 2,
      "note": 58,
      "start": 16.6076,
      "duration": 0.131,
      "velocity": 107,
      "chip": "ym2612"
    },
    {
      "channel": 4,
      "note": 79,
      "start": 16.6081,
      "duration": 0.0132,
      "velocity": 97,
      "chip": "ym2612"
    },
    {
      "channel": 5,
      "note": 103,
      "start": 16.6085,
      "duration": 0.2641,
      "velocity": 127,
      "chip": "ym2612"
    },
    {
      "channel": 4,
      "note": 79,
      "start": 16.6746,
      "duration": 0.0136,
      "velocity": 97,
      "chip": "ym2612"
    },
    {
      "channel": 0,
      "note": 69,
      "start": 16.7418,
      "duration": 0.1305,
      "velocity": 120,
      "chip": "ym2612"
    },
    {
      "channel": 2,
      "note": 58,
      "start": 16.7422,
      "duration": 0.1302,
      "velocity": 107,
      "chip": "ym2612"
    },
    {
      "channel": 3,
      "note": 64,
      "start": 16.7427,
      "duration": 0.1298,
      "velocity": 120,
      "chip": "ym2612"
    },
    {
      "channel": 4,
      "note": 70,
      "start": 16.7432,
      "duration": 0.0125,
      "velocity": 97,
      "chip": "ym2612"
    },
    {
      "channel": 4,
      "note": 70,
      "start": 16.8086,
      "duration": 0.0135,
      "velocity": 97,
      "chip": "ym2612"
    },
    {
      "channel": 0,
      "note": 70,
      "start": 16.8756,
      "duration": 0.1306,
      "velocity": 120,
      "chip": "ym2612"
    },
    {
      "channel": 2,
      "note": 58,
      "start": 16.8761,
      "duration": 0.1302,
      "velocity": 107,
      "chip": "ym2612"
    },
    {
      "channel": 3,
      "note": 65,
      "start": 16.8766,
      "duration": 0.1299,
      "velocity": 120,
      "chip": "ym2612"
    },
    {
      "channel": 4,
      "note": 74,
      "start": 16.877,
      "duration": 0.012,
      "velocity": 97,
      "chip": "ym2612"
    },
    {
      "channel": 5,
      "note": 103,
      "start": 16.8775,
      "duration": 0.2627,
      "velocity": 127,
      "chip": "ym2612"
    },
    {
      "channel": 1,
      "note": 69,
      "start": 16.9425,
      "duration": 0.1307,
      "velocity": 120,
      "chip": "ym2612"
    },
    {
      "channel": 4,
      "note": 74,
      "start": 16.9429,
      "duration": 0.0132,
      "velocity": 97,
      "chip": "ym2612"
    },
    {
      "channel": 0,
      "note": 72,
      "start": 17.0095,
      "duration": 0.5326,
      "velocity": 120,
      "chip": "ym2612"
    },
    {
      "channel": 2,
      "note": 57,
      "start": 17.01,
      "duration": 0.2639,
      "velocity": 107,
      "chip": "ym2612"
    },
    {
      "channel": 3,
      "note": 69,
      "start": 17.0104,
      "duration": 0.5319,
      "velocity": 120,
      "chip": "ym2612"
    },
    {
      "channel": 4,
      "note": 69,
      "start": 17.0109,
      "duration": 0.0121,
      "velocity": 97,
      "chip": "ym2612"
    },
    {
      "channel": 1,
      "note": 70,
      "start": 17.0764,
      "duration": 0.1306,
      "velocity": 120,
      "chip": "ym2612"
    },
    {
      "channel": 4,
      "note": 69,
      "start": 17.0769,
      "duration": 0.013,
      "velocity": 97,
      "chip": "ym2612"
    },
    {
      "channel": 5,
      "note": 103,
      "start": 17.1434,
      "duration": 0.2645,
      "velocity": 127,
      "chip": "ym2612"
    },
    {
      "channel": 1,
      "note": 72,
      "start": 17.2102,
      "duration": 0.5332,
      "velocity": 120,
      "chip": "ym2612"
    },
    {
      "channel": 2,
      "note": 57,
      "start": 17.2771,
      "duration": 0.1308,
      "velocity": 107,
      "chip": "ym2612"
    },
    {
      "channel": 4,
      "note": 69,
      "start": 17.2775,
      "duration": 0.0131,
      "velocity": 97,
      "chip": "ym2612"
    },
    {
      "channel": 4,
      "note": 69,
      "start": 17.344,
      "duration": 0.0137,
      "velocity": 97,
      "chip": "ym2612"
    },
    {
      "channel": 2,
      "note": 57,
      "start": 17.4111,
      "duration": 0.131,
      "velocity": 107,
      "chip": "ym2612"
    },
    {
      "channel": 4,
      "note": 72,
      "start": 17.4119,
      "duration": 0.0127,
      "velocity": 97,
      "chip": "ym2612"
    },
    {
      "channel": 5,
      "note": 103,
      "start": 17.4124,
      "duration": 0.2634,
      "velocity": 127,
      "chip": "ym2612"
    },
    {
      "channel": 4,
      "note": 72,
      "start": 17.4779,
      "duration": 0.0138,
      "velocity": 97,
      "chip": "ym2612"
    },
    {
      "channel": 0,
      "note": 76,
      "start": 17.5449,
      "duration": 0.6667,
      "velocity": 120,
      "chip": "ym2612"
    },
    {
      "channel": 2,
      "note": 58,
      "start": 17.5453,
      "duration": 0.2643,
      "velocity": 107,
      "chip": "ym2612"
    },
    {
      "channel": 3,
      "note": 67,
      "start": 17.5458,
      "duration": 0.6661,
      "velocity": 120,
      "chip": "ym2612"
    },
    {
      "channel": 4,
      "note": 69,
      "start": 17.5462,
      "duration": 0.0122,
      "velocity": 97,
      "chip": "ym2612"
    },
    {
      "channel": 4,
      "note": 69,
      "start": 17.6124,
      "duration": 0.0132,
      "velocity": 97,
      "chip": "ym2612"
    },
    {
      "channel": 4,
      "note": 74,
      "start": 17.6788,
      "duration": 0.0141,
      "velocity": 97,
      "chip": "ym2612"
    },
    {
      "channel": 5,
      "note": 103,
      "start": 17.6793,
      "duration": 0.2644,
      "velocity": 127,
      "chip": "ym2612"
    },
    {
      "channel": 1,
      "note": 76,
      "start": 17.7458,
      "duration": 0.4659,
      "velocity": 120,
      "chip": "ym2612"
    },
    {
      "channel": 4,
      "note": 74,
      "start": 17.7462,
      "duration": 0.0132,
      "velocity": 97,
      "chip": "ym2612"
    },
    {
      "channel": 2,
      "note": 70,
      "start": 17.8127,
      "duration": 0.1308,
      "velocity": 107,
      "chip": "ym2612"
    },
    {
      "channel": 4,
      "note": 69,
      "start": 17.8133,
      "duration": 0.013,
      "velocity": 97,
      "chip": "ym2612"
    },
    {
      "channel": 4,
      "note": 69,
      "start": 17.8798,
      "duration": 0.0135,
      "velocity": 97,
      "chip": "ym2612"
    },
    {
      "channel": 2,
      "note": 58,
      "start": 17.9466,
      "duration": 0.1309,
      "velocity": 107,
      "chip": "ym2612"
    },
    {
      "channel": 4,
      "note": 76,
      "start": 17.9471,
      "duration": 0.0132,
      "velocity": 97,
      "chip": "ym2612"
    },
    {
      "channel": 5,
      "note": 103,
      "start": 17.9476,
      "duration": 0.2644,
      "velocity": 127,
      "chip": "ym2612"
    },
    {
      "channel": 4,
      "note": 76,
      "start": 18.0136,
      "duration": 0.0137,
      "velocity": 97,
      "chip": "ym2612"
    },
    {
      "channel": 2,
      "note": 55,
      "start": 18.0807,
      "duration": 0.1311,
      "velocity": 107,
      "chip": "ym2612"
    },
    {
      "channel": 4,
      "note": 69,
      "start": 18.0811,
      "duration": 0.013,
      "velocity": 97,
      "chip": "ym2612"
    },
    {
      "channel": 4,
      "note": 69,
      "start": 18.1475,
      "duration": 0.0136,
      "velocity": 97,
      "chip": "ym2612"
    },
    {
      "channel": 0,
      "note": 61,
      "start": 18.2154,
      "duration": 0.0657,
      "velocity": 120,
      "chip": "ym2612"
    },
    {
      "channel": 2,
      "note": 48,
      "start": 18.2159,
      "duration": 0.1294,
      "velocity": 107,
      "chip": "ym2612"
    },
    {
      "channel": 5,
      "note": 99,
      "start": 18.2195,
      "duration": 0.1259,
      "velocity": 115,
      "chip": "ym2612"
    },
    {
      "channel": 0,
      "note": 62,
      "start": 18.2818,
      "duration": 0.5992,
      "velocity": 120,
      "chip": "ym2612"
    },
    {
      "channel": 2,
      "note": 50,
      "start": 18.3484,
      "duration": 0.1308,
      "velocity": 107,
      "chip": "ym2612"
    },
    {
      "channel": 3,
      "note": 62,
      "start": 18.3488,
      "duration": 0.2644,
      "velocity": 97,
      "chip": "ym2612"
    },
    {
      "channel": 4,
      "note": 53,
      "start": 18.3493,
      "duration": 0.0629,
      "velocity": 97,
      "chip": "ym2612"
    },
    {
      "channel": 5,
      "note": 99,
      "start": 18.3498,
      "duration": 0.1295,
      "velocity": 115,
      "chip": "ym2612"
    },
    {
      "channel": 1,
      "note": 61,
      "start": 18.4163,
      "duration": 0.0657,
      "velocity": 120,
      "chip": "ym2612"
    },
    {
      "channel": 1,
      "note": 62,
      "start": 18.4825,
      "duration": 0.5993,
      "velocity": 120,
      "chip": "ym2612"
    },
    {
      "channel": 2,
      "note": 50,
      "start": 18.4829,
      "duration": 0.1304,
      "velocity": 107,
      "chip": "ym2612"
    },
    {
      "channel": 5,
      "note": 99,
      "start": 18.4835,
      "duration": 0.1299,
      "velocity": 115,
      "chip": "ym2612"
    },
    {
      "channel": 2,
      "note": 50,
      "start": 18.6162,
      "duration": 0.1309,
      "velocity": 107,
      "chip": "ym2612"
    },
    {
      "channel": 3,
      "note": 64,
      "start": 18.6167,
      "duration": 0.1305,
      "velocity": 97,
      "chip": "ym2612"
    },
    {
      "channel": 4,
      "note": 55,
      "start": 18.6171,
      "duration": 0.0294,
      "velocity": 97,
      "chip": "ym2612"
    },
    {
      "channel": 5,
      "note": 99,
      "start": 18.6177,
      "duration": 0.1297,
      "velocity": 115,
      "chip": "ym2612"
    },
    {
      "channel": 2,
      "note": 50,
      "start": 18.7502,
      "duration": 0.131,
      "velocity": 107,
      "chip": "ym2612"
    },
    {
      "channel": 5,
      "note": 99,
      "start": 18.7508,
      "duration": 0.1305,
      "velocity": 115,
      "chip": "ym2612"
    },
    {
      "channel": 0,
      "note": 69,
      "start": 18.8841,
      "duration": 0.1308,
      "velocity": 120,
      "chip": "ym2612"
    },
    {
      "channel": 2,
      "note": 50,
      "start": 18.8845,
      "duration": 0.1304,
      "velocity": 107,
      "chip": "ym2612"
    },
    {
      "channel": 3,
      "note": 65,
      "start": 18.885,
      "duration": 0.13,
      "velocity": 97,
      "chip": "ym2612"
    },
    {
      "channel": 4,
      "note": 57,
      "start": 18.8854,
      "duration": 0.0291,
      "velocity": 97,
      "chip": "ym2612"
    },
    {
      "channel": 5,
      "note": 99,
      "start": 18.8869,
      "duration": 0.1283,
      "velocity": 112,
      "chip": "ym2612"
    },
    {
      "channel": 2,
      "note": 48,
      "start": 19.018,
      "duration": 0.1309,
      "velocity": 107,
      "chip": "ym2612"
    },
    {
      "channel": 3,
      "note": 67,
      "start": 19.0185,
      "duration": 0.1305,
      "velocity": 97,
      "chip": "ym2612"
    },
    {
      "channel": 4,
      "note": 58,
      "start": 19.0189,
      "duration": 0.0295,
      "velocity": 97,
      "chip": "ym2612"
    },
    {
      "channel": 5,
      "note": 99,
      "start": 19.0204,
      "duration": 0.1287,
      "velocity": 115,
      "chip": "ym2612"
    },
    {
      "channel": 1,
      "note": 69,
      "start": 19.085,
      "duration": 0.1307,
      "velocity": 120,
      "chip": "ym2612"
    },
    {
      "channel": 0,
      "note": 68,
      "start": 19.1521,
      "duration": 0.8003,
      "velocity": 120,
      "chip": "ym2612"
    },
    {
      "channel": 2,
      "note": 52,
      "start": 19.1525,
      "duration": 0.2642,
      "velocity": 107,
      "chip": "ym2612"
    },
    {
      "channel": 3,
      "note": 68,
      "start": 19.153,
      "duration": 0.7997,
      "velocity": 97,
      "chip": "ym2612"
    },
    {
      "channel": 4,
      "note": 64,
      "start": 19.1535,
      "duration": 0.3972,
      "velocity": 97,
      "chip": "ym2612"
    },
    {
      "channel": 5,
      "note": 99,
      "start": 19.1541,
      "duration": 0.1288,
      "velocity": 115,
      "chip": "ym2612"
    },
    {
      "channel": 5,
      "note": 99,
      "start": 19.286,
      "duration": 0.1306,
      "velocity": 115,
      "chip": "ym2612"
    },
    {
      "channel": 1,
      "note": 68,
      "start": 19.3528,
      "duration": 0.8004,
      "velocity": 120,
      "chip": "ym2612"
    },
    {
      "channel": 2,
      "note": 52,
      "start": 19.4198,
      "duration": 0.1308,
      "velocity": 107,
      "chip": "ym2612"
    },
    {
      "channel": 5,
      "note": 99,
      "start": 19.4203,
      "duration": 0.1303,
      "velocity": 115,
      "chip": "ym2612"
    },
    {
      "channel": 2,
      "note": 52,
      "start": 19.5537,
      "duration": 0.1309,
      "velocity": 107,
      "chip": "ym2612"
    },
    {
      "channel": 5,
      "note": 99,
      "start": 19.5542,
      "duration": 0.1305,
      "velocity": 115,
      "chip": "ym2612"
    },
    {
      "channel": 2,
      "note": 52,
      "start": 19.6876,
      "duration": 0.1309,
      "velocity": 107,
      "chip": "ym2612"
    },
    {
      "channel": 5,
      "note": 99,
      "start": 19.6882,
      "duration": 0.1303,
      "velocity": 115,
      "chip": "ym2612"
    },
    {
      "channel": 2,
      "note": 52,
      "start": 19.8218,
      "duration": 0.1307,
      "velocity": 107,
      "chip": "ym2612"
    },
    {
      "channel": 5,
      "note": 99,
      "start": 19.8223,
      "duration": 0.1302,
      "velocity": 115,
      "chip": "ym2612"
    },
    {
      "channel": 0,
      "note": 64,
      "start": 19.9554,
      "duration": 0.1308,
      "velocity": 120,
      "chip": "ym2612"
    },
    {
      "channel": 2,
      "note": 52,
      "start": 19.9559,
      "duration": 0.1304,
      "velocity": 107,
      "chip": "ym2612"
    },
    {
      "channel": 3,
      "note": 70,
      "start": 19.9563,
      "duration": 0.1301,
      "velocity": 97,
      "chip": "ym2612"
    },
    {
      "channel": 4,
      "note": 64,
      "start": 19.9568,
      "duration": 0.029,
      "velocity": 97,
      "chip": "ym2612"
    },
    {
      "channel": 5,
      "note": 99,
      "start": 19.9583,
      "duration": 0.1282,
      "velocity": 112,
      "chip": "ym2612"
    },
    {
      "channel": 0,
      "note": 66,
      "start": 20.0895,
      "duration": 0.1308,
      "velocity": 120,
      "chip": "ym2612"
    },
    {
      "channel": 2,
      "note": 52,
      "start": 20.0899,
      "duration": 0.1304,
      "velocity": 107,
      "chip": "ym2612"
    },
    {
      "channel": 3,
      "note": 69,
      "start": 20.0904,
      "duration": 0.13,
      "velocity": 97,
      "chip": "ym2612"
    },
    {
      "channel": 4,
      "note": 62,
      "start": 20.0908,
      "duration": 0.029,
      "velocity": 97,
      "chip": "ym2612"
    },
    {
      "channel": 5,
      "note": 99,
      "start": 20.0926,
      "duration": 0.1279,
      "velocity": 115,
      "chip": "ym2612"
    },
    {
      "channel": 1,
      "note": 64,
      "start": 20.1563,
      "duration": 0.1309,
      "velocity": 120,
      "chip": "ym2612"
    },
    {
      "channel": 0,
      "note": 67,
      "start": 20.2233,
      "duration": 0.8003,
      "velocity": 120,
      "chip": "ym2612"
    },
    {
      "channel": 2,
      "note": 55,
      "start": 20.2238,
      "duration": 0.2642,
      "velocity": 107,
      "chip": "ym2612"
    },
    {
      "channel": 3,
      "note": 67,
      "start": 20.2242,
      "duration": 0.7996,
      "velocity": 97,
      "chip": "ym2612"
    },
    {
      "channel": 4,
      "note": 62,
      "start": 20.2247,
      "duration": 0.3974,
      "velocity": 97,
      "chip": "ym2612"
    },
    {
      "channel": 5,
      "note": 99,
      "start": 20.2252,
      "duration": 0.1288,
      "velocity": 115,
      "chip": "ym2612"
    },
    {
      "channel": 1,
      "note": 66,
      "start": 20.2903,
      "duration": 0.1308,
      "velocity": 120,
      "chip": "ym2612"
    },
    {
      "channel": 5,
      "note": 99,
      "start": 20.3573,
      "duration": 0.1308,
      "velocity": 115,
      "chip": "ym2612"
    },
    {
      "channel": 1,
      "note": 67,
      "start": 20.4249,
      "duration": 0.7997,
      "velocity": 120,
      "chip": "ym2612"
    },
    {
      "channel": 2,
      "note": 55,
      "start": 20.4911,
      "duration": 0.1309,
      "velocity": 107,
      "chip": "ym2612"
    },
    {
      "channel": 5,
      "note": 99,
      "start": 20.4919,
      "duration": 0.1303,
      "velocity": 115,
      "chip": "ym2612"
    },
    {
      "channel": 2,
      "note": 55,
      "start": 20.6251,
      "duration": 0.1307,
      "velocity": 107,
      "chip": "ym2612"
    },
    {
      "channel": 5,
      "note": 99,
      "start": 20.6257,
      "duration": 0.1302,
      "velocity": 115,
      "chip": "ym2612"
    },
    {
      "channel": 2,
      "note": 55,
      "start": 20.759,
      "duration": 0.1307,
      "velocity": 107,
      "chip": "ym2612"
    },
    {
      "channel": 5,
      "note": 99,
      "start": 20.7595,
      "duration": 0.1303,
      "velocity": 115,
      "chip": "ym2612"
    },
    {
      "channel": 2,
      "note": 55,
      "start": 20.8929,
      "duration": 0.1309,
      "velocity": 107,
      "chip": "ym2612"
    },
    {
      "channel": 5,
      "note": 99,
      "start": 20.8934,
      "duration": 0.1306,
      "velocity": 115,
      "chip": "ym2612"
    },
    {
      "channel": 0,
      "note": 68,
      "start": 21.0269,
      "duration": 0.0665,
      "velocity": 120,
      "chip": "ym2612"
    },
    {
      "channel": 2,
      "note": 55,
      "start": 21.0273,
      "duration": 0.1302,
      "velocity": 107,
      "chip": "ym2612"
    },
    {
      "channel": 3,
      "note": 69,
      "start": 21.0278,
      "duration": 0.1299,
      "velocity": 97,
      "chip": "ym2612"
    },
    {
      "channel": 4,
      "note": 62,
      "start": 21.0283,
      "duration": 0.029,
      "velocity": 97,
      "chip": "ym2612"
    },
    {
      "channel": 5,
      "note": 99,
      "start": 21.0298,
      "duration": 0.128,
      "velocity": 112,
      "chip": "ym2612"
    },
    {
      "channel": 0,
      "note": 69,
      "start": 21.0939,
      "duration": 0.1981,
      "velocity": 120,
      "chip": "ym2612"
    },
    {
      "channel": 2,
      "note": 55,
      "start": 21.1608,
      "duration": 0.1313,
      "velocity": 107,
      "chip": "ym2612"
    },
    {
      "channel": 3,
      "note": 67,
      "start": 21.1612,
      "duration": 0.131,
      "velocity": 97,
      "chip": "ym2612"
    },
    {
      "channel": 4,
      "note": 60,
      "start": 21.162,
      "duration": 0.0291,
      "velocity": 97,
      "chip": "ym2612"
    },
    {
      "channel": 5,
      "note": 99,
      "start": 21.1634,
      "duration": 0.1289,
      "velocity": 115,
      "chip": "ym2612"
    },
    {
      "channel": 1,
      "note": 68,
      "start": 21.2277,
      "duration": 0.0667,
      "velocity": 120,
      "chip": "ym2612"
    },
    {
      "channel": 0,
      "note": 65,
      "start": 21.2948,
      "duration": 0.3984,
      "velocity": 120,
      "chip": "ym2612"
    },
    {
      "channel": 1,
      "note": 69,
      "start": 21.2953,
      "duration": 0.1978,
      "velocity": 120,
      "chip": "ym2612"
    },
    {
      "channel": 2,
      "note": 53,
      "start": 21.2957,
      "duration": 0.2637,
      "velocity": 107,
      "chip": "ym2612"
    },
    {
      "channel": 3,
      "note": 65,
      "start": 21.2962,
      "duration": 0.5312,
      "velocity": 97,
      "chip": "ym2612"
    },
    {
      "channel": 4,
      "note": 57,
      "start": 21.2966,
      "duration": 0.2292,
      "velocity": 97,
      "chip": "ym2612"
    },
    {
      "channel": 5,
      "note": 99,
      "start": 21.2973,
      "duration": 0.1282,
      "velocity": 115,
      "chip": "ym2612"
    },
    {
      "channel": 5,
      "note": 99,
      "start": 21.4286,
      "duration": 0.1309,
      "velocity": 115,
      "chip": "ym2612"
    },
    {
      "channel": 1,
      "note": 65,
      "start": 21.4955,
      "duration": 0.3986,
      "velocity": 120,
      "chip": "ym2612"
    },
    {
      "channel": 2,
      "note": 65,
      "start": 21.5625,
      "duration": 0.1308,
      "velocity": 107,
      "chip": "ym2612"
    },
    {
      "channel": 5,
      "note": 99,
      "start": 21.5631,
      "duration": 0.1303,
      "velocity": 115,
      "chip": "ym2612"
    },
    {
      "channel": 0,
      "note": 64,
      "start": 21.6965,
      "duration": 0.1307,
      "velocity": 120,
      "chip": "ym2612"
    },
    {
      "channel": 2,
      "note": 50,
      "start": 21.6969,
      "duration": 0.1303,
      "velocity": 107,
      "chip": "ym2612"
    },
    {
      "channel": 5,
      "note": 99,
      "start": 21.6975,
      "duration": 0.13,
      "velocity": 115,
      "chip": "ym2612"
    },
    {
      "channel": 0,
      "note": 62,
      "start": 21.8303,
      "duration": 0.6664,
      "velocity": 120,
      "chip": "ym2612"
    },
    {
      "channel": 2,
      "note": 50,
      "start": 21.8308,
      "duration": 0.1304,
      "velocity": 107,
      "chip": "ym2612"
    },
    {
      "channel": 3,
      "note": 69,
      "start": 21.8315,
      "duration": 0.6655,
      "velocity": 97,
      "chip": "ym2612"
    },
    {
      "channel": 4,
      "note": 53,
      "start": 21.832,
      "duration": 0.2631,
      "velocity": 97,
      "chip": "ym2612"
    },
    {
      "channel": 5,
      "note": 99,
      "start": 21.8325,
      "duration": 0.1291,
      "velocity": 115,
      "chip": "ym2612"
    },
    {
      "channel": 1,
      "note": 64,
      "start": 21.8974,
      "duration": 0.1307,
      "velocity": 120,
      "chip": "ym2612"
    },
    {
      "channel": 2,
      "note": 50,
      "start": 21.9642,
      "duration": 0.1308,
      "velocity": 107,
      "chip": "ym2612"
    },
    {
      "channel": 5,
      "note": 99,
      "start": 21.9648,
      "duration": 0.1304,
      "velocity": 115,
      "chip": "ym2612"
    },
    {
      "channel": 1,
      "note": 62,
      "start": 22.0312,
      "duration": 0.4656,
      "velocity": 120,
      "chip": "ym2612"
    },
    {
      "channel": 2,
      "note": 50,
      "start": 22.0982,
      "duration": 0.1307,
      "velocity": 107,
      "chip": "ym2612"
    },
    {
      "channel": 5,
      "note": 99,
      "start": 22.0996,
      "duration": 0.1294,
      "velocity": 112,
      "chip": "ym2612"
    },
    {
      "channel": 2,
      "note": 62,
      "start": 22.2321,
      "duration": 0.1308,
      "velocity": 107,
      "chip": "ym2612"
    },
    {
      "channel": 5,
      "note": 99,
      "start": 22.2334,
      "duration": 0.1295,
      "velocity": 115,
      "chip": "ym2612"
    },
    {
      "channel": 2,
      "note": 50,
      "start": 22.3661,
      "duration": 0.1309,
      "velocity": 107,
      "chip": "ym2612"
    },
    {
      "channel": 5,
      "note": 99,
      "start": 22.3666,
      "duration": 0.1305,
      "velocity": 115,
      "chip": "ym2612"
    },
    {
      "channel": 0,
      "note": 61,
      "start": 22.501,
      "duration": 0.0655,
      "velocity": 120,
      "chip": "ym2612"
    },
    {
      "channel": 2,
      "note": 48,
      "start": 22.5017,
      "duration": 0.129,
      "velocity": 107,
      "chip": "ym2612"
    },
    {
      "channel": 5,
      "note": 99,
      "start": 22.5032,
      "duration": 0.1276,
      "velocity": 115,
      "chip": "ym2612"
    },
    {
      "channel": 0,
      "note": 62,
      "start": 22.567,
      "duration": 0.5995,
      "velocity": 120,
      "chip": "ym2612"
    },
    {
      "channel": 2,
      "note": 50,
      "start": 22.6338,
      "duration": 0.1309,
      "velocity": 107,
      "chip": "ym2612"
    },
    {
      "channel": 3,
      "note": 62,
      "start": 22.6343,
      "duration": 0.2643,
      "velocity": 97,
      "chip": "ym2612"
    },
    {
      "channel": 4,
      "note": 53,
      "start": 22.6348,
      "duration": 0.0629,
      "velocity": 97,
      "chip": "ym2612"
    },
    {
      "channel": 5,
      "note": 99,
      "start": 22.6353,
      "duration": 0.1296,
      "velocity": 115,
      "chip": "ym2612"
    },
    {
      "channel": 1,
      "note": 61,
      "start": 22.7021,
      "duration": 0.0653,
      "velocity": 120,
      "chip": "ym2612"
    },
    {
      "channel": 1,
      "note": 62,
      "start": 22.7678,
      "duration": 0.6001,
      "velocity": 120,
      "chip": "ym2612"
    },
    {
      "channel": 2,
      "note": 50,
      "start": 22.7683,
      "duration": 0.1304,
      "velocity": 107,
      "chip": "ym2612"
    },
    {
      "channel": 5,
      "note": 99,
      "start": 22.7688,
      "duration": 0.13,
      "velocity": 115,
      "chip": "ym2612"
    },
    {
      "channel": 2,
      "note": 50,
      "start": 22.9019,
      "duration": 0.1306,
      "velocity": 107,
      "chip": "ym2612"
    },
    {
      "channel": 3,
      "note": 64,
      "start": 22.9024,
      "duration": 0.1302,
      "velocity": 97,
      "chip": "ym2612"
    },
    {
      "channel": 4,
      "note": 55,
      "start": 22.9029,
      "duration": 0.0292,
      "velocity": 97,
      "chip": "ym2612"
    },
    {
      "channel": 5,
      "note": 99,
      "start": 22.9035,
      "duration": 0.1293,
      "velocity": 115,
      "chip": "ym2612"
    },
    {
      "channel": 2,
      "note": 50,
      "start": 23.0357,
      "duration": 0.1309,
      "velocity": 107,
      "chip": "ym2612"
    },
    {
      "channel": 5,
      "note": 99,
      "start": 23.0362,
      "duration": 0.1305,
      "velocity": 115,
      "chip": "ym2612"
    },
    {
      "channel": 0,
      "note": 69,
      "start": 23.1695,
      "duration": 0.1308,
      "velocity": 120,
      "chip": "ym2612"
    },
    {
      "channel": 2,
      "note": 50,
      "start": 23.17,
      "duration": 0.1304,
      "velocity": 107,
      "chip": "ym2612"
    },
    {
      "channel": 3,
      "note": 65,
      "start": 23.1704,
      "duration": 0.1301,
      "velocity": 97,
      "chip": "ym2612"
    },
    {
      "channel": 4,
      "note": 57,
      "start": 23.1709,
      "duration": 0.029,
      "velocity": 97,
      "chip": "ym2612"
    },
    {
      "channel": 5,
      "note": 99,
      "start": 23.1726,
      "duration": 0.128,
      "velocity": 112,
      "chip": "ym2612"
    },
    {
      "channel": 2,
      "note": 48,
      "start": 23.3034,
      "duration": 0.1308,
      "velocity": 107,
      "chip": "ym2612"
    },
    {
      "channel": 3,
      "note": 67,
      "start": 23.3039,
      "duration": 0.1304,
      "velocity": 97,
      "chip": "ym2612"
    },
    {
      "channel": 4,
      "note": 58,
      "start": 23.3044,
      "duration": 0.0295,
      "velocity": 97,
      "chip": "ym2612"
    },
    {
      "channel": 5,
      "note": 99,
      "start": 23.3058,
      "duration": 0.1286,
      "velocity": 115,
      "chip": "ym2612"
    },
    {
      "channel": 1,
      "note": 69,
      "start": 23.3705,
      "duration": 0.131,
      "velocity": 120,
      "chip": "ym2612"
    },
    {
      "channel": 0,
      "note": 68,
      "start": 23.4374,
      "duration": 0.8004,
      "velocity": 120,
      "chip": "ym2612"
    },
    {
      "channel": 2,
      "note": 52,
      "start": 23.4379,
      "duration": 0.2642,
      "velocity": 107,
      "chip": "ym2612"
    },
    {
      "channel": 3,
      "note": 68,
      "start": 23.4384,
      "duration": 0.7997,
      "velocity": 97,
      "chip": "ym2612"
    },
    {
      "channel": 4,
      "note": 64,
      "start": 23.4388,
      "duration": 0.3974,
      "velocity": 97,
      "chip": "ym2612"
    },
    {
      "channel": 5,
      "note": 99,
      "start": 23.4394,
      "duration": 0.129,
      "velocity": 115,
      "chip": "ym2612"
    },
    {
      "channel": 5,
      "note": 99,
      "start": 23.5717,
      "duration": 0.1303,
      "velocity": 115,
      "chip": "ym2612"
    },
    {
      "channel": 1,
      "note": 68,
      "start": 23.6382,
      "duration": 0.8004,
      "velocity": 120,
      "chip": "ym2612"
    },
    {
      "channel": 2,
      "note": 52,
      "start": 23.7052,
      "duration": 0.1309,
      "velocity": 107,
      "chip": "ym2612"
    },
    {
      "channel": 5,
      "note": 99,
      "start": 23.7057,
      "duration": 0.1305,
      "velocity": 115,
      "chip": "ym2612"
    },
    {
      "channel": 2,
      "note": 52,
      "start": 23.8392,
      "duration": 0.1307,
      "velocity": 107,
      "chip": "ym2612"
    },
    {
      "channel": 5,
      "note": 99,
      "start": 23.8397,
      "duration": 0.1303,
      "velocity": 115,
      "chip": "ym2612"
    },
    {
      "channel": 2,
      "note": 52,
      "start": 23.9731,
      "duration": 0.1307,
      "velocity": 107,
      "chip": "ym2612"
    },
    {
      "channel": 5,
      "note": 99,
      "start": 23.9736,
      "duration": 0.1303,
      "velocity": 115,
      "chip": "ym2612"
    },
    {
      "channel": 2,
      "note": 52,
      "start": 24.107,
      "duration": 0.1309,
      "velocity": 107,
      "chip": "ym2612"
    },
    {
      "channel": 5,
      "note": 99,
      "start": 24.1075,
      "duration": 0.1305,
      "velocity": 115,
      "chip": "ym2612"
    },
    {
      "channel": 0,
      "note": 64,
      "start": 24.2409,
      "duration": 0.1308,
      "velocity": 120,
      "chip": "ym2612"
    },
    {
      "channel": 2,
      "note": 52,
      "start": 24.2416,
      "duration": 0.1302,
      "velocity": 107,
      "chip": "ym2612"
    },
    {
      "channel": 3,
      "note": 70,
      "start": 24.242,
      "duration": 0.1299,
      "velocity": 97,
      "chip": "ym2612"
    },
    {
      "channel": 4,
      "note": 64,
      "start": 24.2425,
      "duration": 0.0291,
      "velocity": 97,
      "chip": "ym2612"
    },
    {
      "channel": 5,
      "note": 99,
      "start": 24.2441,
      "duration": 0.1279,
      "velocity": 112,
      "chip": "ym2612"
    },
    {
      "channel": 0,
      "note": 66,
      "start": 24.375,
      "duration": 0.1306,
      "velocity": 120,
      "chip": "ym2612"
    },
    {
      "channel": 2,
      "note": 52,
      "start": 24.3755,
      "duration": 0.1302,
      "velocity": 107,
      "chip": "ym2612"
    },
    {
      "channel": 3,
      "note": 69,
      "start": 24.3759,
      "duration": 0.1299,
      "velocity": 97,
      "chip": "ym2612"
    },
    {
      "channel": 4,
      "note": 62,
      "start": 24.3764,
      "duration": 0.0289,
      "velocity": 97,
      "chip": "ym2612"
    },
    {
      "channel": 5,
      "note": 99,
      "start": 24.3778,
      "duration": 0.1281,
      "velocity": 115,
      "chip": "ym2612"
    },
    {
      "channel": 1,
      "note": 64,
      "start": 24.4421,
      "duration": 0.1304,
      "velocity": 120,
      "chip": "ym2612"
    },
    {
      "channel": 0,
      "note": 67,
      "start": 24.5087,
      "duration": 0.8005,
      "velocity": 120,
      "chip": "ym2612"
    },
    {
      "channel": 2,
      "note": 55,
      "start": 24.5092,
      "duration": 0.2642,
      "velocity": 107,
      "chip": "ym2612"
    },
    {
      "channel": 3,
      "note": 67,
      "start": 24.5096,
      "duration": 0.7998,
      "velocity": 97,
      "chip": "ym2612"
    },
    {
      "channel": 4,
      "note": 62,
      "start": 24.5101,
      "duration": 0.3974,
      "velocity": 97,
      "chip": "ym2612"
    },
    {
      "channel": 5,
      "note": 99,
      "start": 24.5106,
      "duration": 0.1289,
      "velocity": 115,
      "chip": "ym2612"
    },
    {
      "channel": 1,
      "note": 66,
      "start": 24.5758,
      "duration": 0.1308,
      "velocity": 120,
      "chip": "ym2612"
    },
    {
      "channel": 5,
      "note": 99,
      "start": 24.6427,
      "duration": 0.1308,
      "velocity": 115,
      "chip": "ym2612"
    },
    {
      "channel": 1,
      "note": 67,
      "start": 24.7097,
      "duration": 0.8003,
      "velocity": 120,
      "chip": "ym2612"
    },
    {
      "channel": 2,
      "note": 55,
      "start": 24.7766,
      "duration": 0.1308,
      "velocity": 107,
      "chip": "ym2612"
    },
    {
      "channel": 5,
      "note": 99,
      "start": 24.7771,
      "duration": 0.1305,
      "velocity": 115,
      "chip": "ym2612"
    },
    {
      "channel": 2,
      "note": 55,
      "start": 24.9106,
      "duration": 0.1307,
      "velocity": 107,
      "chip": "ym2612"
    },
    {
      "channel": 5,
      "note": 99,
      "start": 24.9111,
      "duration": 0.1305,
      "velocity": 115,
      "chip": "ym2612"
    },
    {
      "channel": 2,
      "note": 55,
      "start": 25.0445,
      "duration": 0.1308,
      "velocity": 107,
      "chip": "ym2612"
    },
    {
      "channel": 5,
      "note": 99,
      "start": 25.045,
      "duration": 0.1304,
      "velocity": 115,
      "chip": "ym2612"
    },
    {
      "channel": 2,
      "note": 55,
      "start": 25.1783,
      "duration": 0.131,
      "velocity": 107,
      "chip": "ym2612"
    },
    {
      "channel": 5,
      "note": 99,
      "start": 25.1788,
      "duration": 0.1307,
      "velocity": 115,
      "chip": "ym2612"
    },
    {
      "channel": 0,
      "note": 68,
      "start": 25.3124,
      "duration": 0.0664,
      "velocity": 120,
      "chip": "ym2612"
    },
    {
      "channel": 2,
      "note": 55,
      "start": 25.3129,
      "duration": 0.1301,
      "velocity": 107,
      "chip": "ym2612"
    },
    {
      "channel": 3,
      "note": 69,
      "start": 25.3133,
      "duration": 0.1298,
      "velocity": 97,
      "chip": "ym2612"
    },
    {
      "channel": 4,
      "note": 62,
      "start": 25.3138,
      "duration": 0.0289,
      "velocity": 97,
      "chip": "ym2612"
    },
    {
      "channel": 5,
      "note": 99,
      "start": 25.3153,
      "duration": 0.128,
      "velocity": 112,
      "chip": "ym2612"
    },
    {
      "channel": 0,
      "note": 69,
      "start": 25.3793,
      "duration": 0.1977,
      "velocity": 120,
      "chip": "ym2612"
    },
    {
      "channel": 2,
      "note": 55,
      "start": 25.4462,
      "duration": 0.1309,
      "velocity": 107,
      "chip": "ym2612"
    },
    {
      "channel": 3,
      "note": 67,
      "start": 25.4467,
      "duration": 0.1305,
      "velocity": 97,
      "chip": "ym2612"
    },
    {
      "channel": 4,
      "note": 60,
      "start": 25.4471,
      "duration": 0.0295,
      "velocity": 97,
      "chip": "ym2612"
    },
    {
      "channel": 5,
      "note": 99,
      "start": 25.4486,
      "duration": 0.1287,
      "velocity": 115,
      "chip": "ym2612"
    },
    {
      "channel": 1,
      "note": 68,
      "start": 25.5131,
      "duration": 0.0666,
      "velocity": 120,
      "chip": "ym2612"
    },
    {
      "channel": 0,
      "note": 65,
      "start": 25.5802,
      "duration": 0.3985,
      "velocity": 120,
      "chip": "ym2612"
    },
    {
      "channel": 1,
      "note": 69,
      "start": 25.5806,
      "duration": 0.1973,
      "velocity": 120,
      "chip": "ym2612"
    },
    {
      "channel": 2,
      "note": 53,
      "start": 25.5811,
      "duration": 0.2637,
      "velocity": 107,
      "chip": "ym2612"
    },
    {
      "channel": 3,
      "note": 65,
      "start": 25.5818,
      "duration": 0.531,
      "velocity": 97,
      "chip": "ym2612"
    },
    {
      "channel": 4,
      "note": 57,
      "start": 25.5822,
      "duration": 0.2293,
      "velocity": 97,
      "chip": "ym2612"
    },
    {
      "channel": 5,
      "note": 99,
      "start": 25.5829,
      "duration": 0.1281,
      "velocity": 115,
      "chip": "ym2612"
    },
    {
      "channel": 5,
      "note": 99,
      "start": 25.7141,
      "duration": 0.1309,
      "velocity": 115,
      "chip": "ym2612"
    },
    {
      "channel": 1,
      "note": 65,
      "start": 25.7811,
      "duration": 0.3985,
      "velocity": 120,
      "chip": "ym2612"
    },
    {
      "channel": 2,
      "note": 65,
      "start": 25.848,
      "duration": 0.1308,
      "velocity": 107,
      "chip": "ym2612"
    },
    {
      "channel": 5,
      "note": 99,
      "start": 25.8485,
      "duration": 0.1304,
      "velocity": 115,
      "chip": "ym2612"
    },
    {
      "channel": 0,
      "note": 67,
      "start": 25.9821,
      "duration": 0.1305,
      "velocity": 120,
      "chip": "ym2612"
    },
    {
      "channel": 2,
      "note": 50,
      "start": 25.9825,
      "duration": 0.1302,
      "velocity": 107,
      "chip": "ym2612"
    },
    {
      "channel": 5,
      "note": 99,
      "start": 25.9831,
      "duration": 0.1298,
      "velocity": 115,
      "chip": "ym2612"
    },
    {
      "channel": 0,
      "note": 69,
      "start": 26.1158,
      "duration": 0.6664,
      "velocity": 120,
      "chip": "ym2612"
    },
    {
      "channel": 2,
      "note": 50,
      "start": 26.1162,
      "duration": 0.1304,
      "velocity": 107,
      "chip": "ym2612"
    },
    {
      "channel": 3,
      "note": 69,
      "start": 26.1167,
      "duration": 0.6658,
      "velocity": 97,
      "chip": "ym2612"
    },
    {
      "channel": 4,
      "note": 53,
      "start": 26.1171,
      "duration": 0.2635,
      "velocity": 97,
      "chip": "ym2612"
    },
    {
      "channel": 5,
      "note": 99,
      "start": 26.1176,
      "duration": 0.1291,
      "velocity": 115,
      "chip": "ym2612"
    },
    {
      "channel": 1,
      "note": 67,
      "start": 26.1827,
      "duration": 0.1308,
      "velocity": 120,
      "chip": "ym2612"
    },
    {
      "channel": 2,
      "note": 50,
      "start": 26.2499,
      "duration": 0.1307,
      "velocity": 107,
      "chip": "ym2612"
    },
    {
      "channel": 5,
      "note": 99,
      "start": 26.2504,
      "duration": 0.1304,
      "velocity": 115,
      "chip": "ym2612"
    },
    {
      "channel": 1,
      "note": 69,
      "start": 26.3167,
      "duration": 0.4656,
      "velocity": 120,
      "chip": "ym2612"
    },
    {
      "channel": 2,
      "note": 50,
      "start": 26.3836,
      "duration": 0.1308,
      "velocity": 107,
      "chip": "ym2612"
    },
    {
      "channel": 5,
      "note": 99,
      "start": 26.3849,
      "duration": 0.1295,
      "velocity": 112,
      "chip": "ym2612"
    },
    {
      "channel": 2,
      "note": 62,
      "start": 26.5175,
      "duration": 0.1309,
      "velocity": 107,
      "chip": "ym2612"
    },
    {
      "channel": 5,
      "note": 99,
      "start": 26.5189,
      "duration": 0.1296,
      "velocity": 115,
      "chip": "ym2612"
    },
    {
      "channel": 2,
      "note": 50,
      "start": 26.6517,
      "duration": 0.1307,
      "velocity": 107,
      "chip": "ym2612"
    },
    {
      "channel": 5,
      "note": 99,
      "start": 26.6522,
      "duration": 0.1304,
      "velocity": 115,
      "chip": "ym2612"
    },
    {
      "channel": 0,
      "note": 69,
      "start": 26.7854,
      "duration": 0.0666,
      "velocity": 120,
      "chip": "ym2612"
    },
    {
      "channel": 2,
      "note": 55,
      "start": 26.7858,
      "duration": 0.1303,
      "velocity": 107,
      "chip": "ym2612"
    },
    {
      "channel": 3,
      "note": 67,
      "start": 26.7872,
      "duration": 0.6647,
      "velocity": 120,
      "chip": "ym2612"
    },
    {
      "channel": 5,
      "note": 103,
      "start": 26.7896,
      "duration": 0.2606,
      "velocity": 127,
      "chip": "ym2612"
    },
    {
      "channel": 0,
      "note": 70,
      "start": 26.8524,
      "duration": 0.5994,
      "velocity": 120,
      "chip": "ym2612"
    },
    {
      "channel": 2,
      "note": 55,
      "start": 26.9193,
      "duration": 0.1308,
      "velocity": 107,
      "chip": "ym2612"
    },
    {
      "channel": 4,
      "note": 62,
      "start": 26.9198,
      "duration": 0.0131,
      "velocity": 97,
      "chip": "ym2612"
    },
    {
      "channel": 1,
      "note": 69,
      "start": 26.9863,
      "duration": 0.0666,
      "velocity": 120,
      "chip": "ym2612"
    },
    {
      "channel": 4,
      "note": 62,
      "start": 26.9867,
      "duration": 0.0131,
      "velocity": 97,
      "chip": "ym2612"
    },
    {
      "channel": 1,
      "note": 70,
      "start": 27.0533,
      "duration": 0.5995,
      "velocity": 120,
      "chip": "ym2612"
    },
    {
      "channel": 2,
      "note": 55,
      "start": 27.0537,
      "duration": 0.1302,
      "velocity": 107,
      "chip": "ym2612"
    },
    {
      "channel": 4,
      "note": 65,
      "start": 27.0542,
      "duration": 0.0126,
      "velocity": 97,
      "chip": "ym2612"
    },
    {
      "channel": 5,
      "note": 103,
      "start": 27.0547,
      "duration": 0.2634,
      "velocity": 127,
      "chip": "ym2612"
    },
    {
      "channel": 4,
      "note": 65,
      "start": 27.1202,
      "duration": 0.0137,
      "velocity": 97,
      "chip": "ym2612"
    },
    {
      "channel": 2,
      "note": 55,
      "start": 27.1873,
      "duration": 0.1307,
      "velocity": 107,
      "chip": "ym2612"
    },
    {
      "channel": 4,
      "note": 62,
      "start": 27.1878,
      "duration": 0.0129,
      "velocity": 97,
      "chip": "ym2612"
    },
    {
      "channel": 4,
      "note": 62,
      "start": 27.2541,
      "duration": 0.0137,
      "velocity": 97,
      "chip": "ym2612"
    },
    {
      "channel": 2,
      "note": 55,
      "start": 27.321,
      "duration": 0.131,
      "velocity": 107,
      "chip": "ym2612"
    },
    {
      "channel": 4,
      "note": 72,
      "start": 27.3217,
      "duration": 0.0129,
      "velocity": 97,
      "chip": "ym2612"
    },
    {
      "channel": 5,
      "note": 103,
      "start": 27.3222,
      "duration": 0.2638,
      "velocity": 127,
      "chip": "ym2612"
    },
    {
      "channel": 4,
      "note": 72,
      "start": 27.388,
      "duration": 0.0137,
      "velocity": 97,
      "chip": "ym2612"
    },
    {
      "channel": 0,
      "note": 72,
      "start": 27.4549,
      "duration": 0.1308,
      "velocity": 120,
      "chip": "ym2612"
    },
    {
      "channel": 2,
      "note": 55,
      "start": 27.4554,
      "duration": 0.1305,
      "velocity": 107,
      "chip": "ym2612"
    },
    {
      "channel": 3,
      "note": 69,
      "start": 27.4559,
      "duration": 0.1301,
      "velocity": 120,
      "chip": "ym2612"
    },
    {
      "channel": 4,
      "note": 74,
      "start": 27.4563,
      "duration": 0.0123,
      "velocity": 97,
      "chip": "ym2612"
    },
    {
      "channel": 4,
      "note": 74,
      "start": 27.5221,
      "duration": 0.0136,
      "velocity": 97,
      "chip": "ym2612"
    },
    {
      "channel": 0,
      "note": 74,
      "start": 27.5889,
      "duration": 0.1308,
      "velocity": 120,
      "chip": "ym2612"
    },
    {
      "channel": 2,
      "note": 55,
      "start": 27.5893,
      "duration": 0.1304,
      "velocity": 107,
      "chip": "ym2612"
    },
    {
      "channel": 3,
      "note": 70,
      "start": 27.5898,
      "duration": 0.1301,
      "velocity": 120,
      "chip": "ym2612"
    },
    {
      "channel": 4,
      "note": 76,
      "start": 27.5902,
      "duration": 0.0123,
      "velocity": 97,
      "chip": "ym2612"
    },
    {
      "channel": 5,
      "note": 103,
      "start": 27.5908,
      "duration": 0.2629,
      "velocity": 127,
      "chip": "ym2612"
    },
    {
      "channel": 1,
      "note": 72,
      "start": 27.6559,
      "duration": 0.1308,
      "velocity": 120,
      "chip": "ym2612"
    },
    {
      "channel": 4,
      "note": 76,
      "start": 27.6564,
      "duration": 0.0132,
      "velocity": 97,
      "chip": "ym2612"
    },
    {
      "channel": 0,
      "note": 72,
      "start": 27.723,
      "duration": 0.5324,
      "velocity": 120,
      "chip": "ym2612"
    },
    {
      "channel": 2,
      "note": 57,
      "start": 27.7234,
      "duration": 0.2641,
      "velocity": 107,
      "chip": "ym2612"
    },
    {
      "channel": 3,
      "note": 69,
      "start": 27.7239,
      "duration": 0.5316,
      "velocity": 120,
      "chip": "ym2612"
    },
    {
      "channel": 4,
      "note": 72,
      "start": 27.7244,
      "duration": 0.0121,
      "velocity": 97,
      "chip": "ym2612"
    },
    {
      "channel": 1,
      "note": 74,
      "start": 27.7899,
      "duration": 0.1307,
      "velocity": 120,
      "chip": "ym2612"
    },
    {
      "channel": 4,
      "note": 72,
      "start": 27.7903,
      "duration": 0.0132,
      "velocity": 97,
      "chip": "ym2612"
    },
    {
      "channel": 5,
      "note": 103,
      "start": 27.8568,
      "duration": 0.265,
      "velocity": 127,
      "chip": "ym2612"
    },
    {
      "channel": 1,
      "note": 72,
      "start": 27.9237,
      "duration": 0.5325,
      "velocity": 120,
      "chip": "ym2612"
    },
    {
      "channel": 2,
      "note": 57,
      "start": 27.9907,
      "duration": 0.131,
      "velocity": 107,
      "chip": "ym2612"
    },
    {
      "channel": 4,
      "note": 72,
      "start": 27.9912,
      "duration": 0.0136,
      "velocity": 97,
      "chip": "ym2612"
    },
    {
      "channel": 4,
      "note": 72,
      "start": 28.0576,
      "duration": 0.0136,
      "velocity": 97,
      "chip": "ym2612"
    },
    {
      "channel": 2,
      "note": 57,
      "start": 28.1246,
      "duration": 0.1309,
      "velocity": 107,
      "chip": "ym2612"
    },
    {
      "channel": 4,
      "note": 76,
      "start": 28.1251,
      "duration": 0.0131,
      "velocity": 97,
      "chip": "ym2612"
    },
    {
      "channel": 5,
      "note": 103,
      "start": 28.1256,
      "duration": 0.2637,
      "velocity": 127,
      "chip": "ym2612"
    },
    {
      "channel": 4,
      "note": 76,
      "start": 28.1918,
      "duration": 0.0133,
      "velocity": 97,
      "chip": "ym2612"
    },
    {
      "channel": 0,
      "note": 69,
      "start": 28.2585,
      "duration": 0.5327,
      "velocity": 120,
      "chip": "ym2612"
    },
    {
      "channel": 2,
      "note": 57,
      "start": 28.2589,
      "duration": 0.1303,
      "velocity": 107,
      "chip": "ym2612"
    },
    {
      "channel": 3,
      "note": 64,
      "start": 28.2594,
      "duration": 0.5322,
      "velocity": 120,
      "chip": "ym2612"
    },
    {
      "channel": 4,
      "note": 72,
      "start": 28.2598,
      "duration": 0.0122,
      "velocity": 97,
      "chip": "ym2612"
    },
    {
      "channel": 4,
      "note": 72,
      "start": 28.3255,
      "duration": 0.0136,
      "velocity": 97,
      "chip": "ym2612"
    },
    {
      "channel": 2,
      "note": 57,
      "start": 28.3924,
      "duration": 0.1308,
      "velocity": 107,
      "chip": "ym2612"
    },
    {
      "channel": 4,
      "note": 81,
      "start": 28.3929,
      "duration": 0.0131,
      "velocity": 97,
      "chip": "ym2612"
    },
    {
      "channel": 5,
      "note": 103,
      "start": 28.3934,
      "duration": 0.2638,
      "velocity": 127,
      "chip": "ym2612"
    },
    {
      "channel": 1,
      "note": 69,
      "start": 28.4594,
      "duration": 0.5325,
      "velocity": 120,
      "chip": "ym2612"
    },
    {
      "channel": 4,
      "note": 81,
      "start": 28.4599,
      "duration": 0.0131,
      "velocity": 97,
      "chip": "ym2612"
    },
    {
      "channel": 2,
      "note": 57,
      "start": 28.5263,
      "duration": 0.1308,
      "velocity": 107,
      "chip": "ym2612"
    },
    {
      "channel": 4,
      "note": 72,
      "start": 28.5268,
      "duration": 0.0131,
      "velocity": 97,
      "chip": "ym2612"
    },
    {
      "channel": 4,
      "note": 72,
      "start": 28.5933,
      "duration": 0.0136,
      "velocity": 97,
      "chip": "ym2612"
    },
    {
      "channel": 2,
      "note": 57,
      "start": 28.6603,
      "duration": 0.1309,
      "velocity": 107,
      "chip": "ym2612"
    },
    {
      "channel": 4,
      "note": 74,
      "start": 28.6608,
      "duration": 0.0132,
      "velocity": 97,
      "chip": "ym2612"
    },
    {
      "channel": 5,
      "note": 103,
      "start": 28.6615,
      "duration": 0.2634,
      "velocity": 127,
      "chip": "ym2612"
    },
    {
      "channel": 4,
      "note": 74,
      "start": 28.7273,
      "duration": 0.0136,
      "velocity": 97,
      "chip": "ym2612"
    },
    {
      "channel": 0,
      "note": 67,
      "start": 28.7941,
      "duration": 0.8005,
      "velocity": 120,
      "chip": "ym2612"
    },
    {
      "channel": 2,
      "note": 58,
      "start": 28.7946,
      "duration": 0.2642,
      "velocity": 107,
      "chip": "ym2612"
    },
    {
      "channel": 3,
      "note": 62,
      "start": 28.7951,
      "duration": 0.7998,
      "velocity": 120,
      "chip": "ym2612"
    },
    {
      "channel": 4,
      "note": 76,
      "start": 28.7955,
      "duration": 0.0123,
      "velocity": 97,
      "chip": "ym2612"
    },
    {
      "channel": 4,
      "note": 76,
      "start": 28.8612,
      "duration": 0.0136,
      "velocity": 97,
      "chip": "ym2612"
    },
    {
      "channel": 5,
      "note": 103,
      "start": 28.9281,
      "duration": 0.2647,
      "velocity": 127,
      "chip": "ym2612"
    },
    {
      "channel": 1,
      "note": 67,
      "start": 28.9951,
      "duration": 0.8003,
      "velocity": 120,
      "chip": "ym2612"
    },
    {
      "channel": 2,
      "note": 58,
      "start": 29.0621,
      "duration": 0.1307,
      "velocity": 107,
      "chip": "ym2612"
    },
    {
      "channel": 4,
      "note": 70,
      "start": 29.0626,
      "duration": 0.0131,
      "velocity": 97,
      "chip": "ym2612"
    },
    {
      "channel": 4,
      "note": 70,
      "start": 29.1291,
      "duration": 0.0135,
      "velocity": 97,
      "chip": "ym2612"
    },
    {
      "channel": 2,
      "note": 58,
      "start": 29.196,
      "duration": 0.1307,
      "velocity": 107,
      "chip": "ym2612"
    },
    {
      "channel": 4,
      "note": 74,
      "start": 29.1965,
      "duration": 0.0131,
      "velocity": 97,
      "chip": "ym2612"
    },
    {
      "channel": 5,
      "note": 103,
      "start": 29.1969,
      "duration": 0.2638,
      "velocity": 127,
      "chip": "ym2612"
    },
    {
      "channel": 4,
      "note": 74,
      "start": 29.2629,
      "duration": 0.0136,
      "velocity": 97,
      "chip": "ym2612"
    },
    {
      "channel": 2,
      "note": 58,
      "start": 29.3299,
      "duration": 0.1307,
      "velocity": 107,
      "chip": "ym2612"
    },
    {
      "channel": 4,
      "note": 70,
      "start": 29.3304,
      "duration": 0.0131,
      "velocity": 97,
      "chip": "ym2612"
    },
    {
      "channel": 4,
      "note": 70,
      "start": 29.3968,
      "duration": 0.0136,
      "velocity": 97,
      "chip": "ym2612"
    },
    {
      "channel": 2,
      "note": 58,
      "start": 29.4637,
      "duration": 0.131,
      "velocity": 107,
      "chip": "ym2612"
    },
    {
      "channel": 4,
      "note": 79,
      "start": 29.4642,
      "duration": 0.0133,
      "velocity": 97,
      "chip": "ym2612"
    },
    {
      "channel": 5,
      "note": 103,
      "start": 29.4647,
      "duration": 0.264,
      "velocity": 127,
      "chip": "ym2612"
    },
    {
      "channel": 4,
      "note": 79,
      "start": 29.5308,
      "duration": 0.0135,
      "velocity": 97,
      "chip": "ym2612"
    },
    {
      "channel": 0,
      "note": 69,
      "start": 29.5978,
      "duration": 0.1307,
      "velocity": 120,
      "chip": "ym2612"
    },
    {
      "channel": 2,
      "note": 58,
      "start": 29.5982,
      "duration": 0.1303,
      "velocity": 107,
      "chip": "ym2612"
    },
    {
      "channel": 3,
      "note": 64,
      "start": 29.5987,
      "duration": 0.1299,
      "velocity": 120,
      "chip": "ym2612"
    },
    {
      "channel": 4,
      "note": 70,
      "start": 29.5992,
      "duration": 0.0125,
      "velocity": 97,
      "chip": "ym2612"
    },
    {
      "channel": 4,
      "note": 70,
      "start": 29.6647,
      "duration": 0.0135,
      "velocity": 97,
      "chip": "ym2612"
    },
    {
      "channel": 0,
      "note": 70,
      "start": 29.732,
      "duration": 0.1305,
      "velocity": 120,
      "chip": "ym2612"
    },
    {
      "channel": 2,
      "note": 58,
      "start": 29.7324,
      "duration": 0.1302,
      "velocity": 107,
      "chip": "ym2612"
    },
    {
      "channel": 3,
      "note": 65,
      "start": 29.7329,
      "duration": 0.1298,
      "velocity": 120,
      "chip": "ym2612"
    },
    {
      "channel": 4,
      "note": 74,
      "start": 29.7333,
      "duration": 0.0119,
      "velocity": 97,
      "chip": "ym2612"
    },
    {
      "channel": 5,
      "note": 103,
      "start": 29.7338,
      "duration": 0.2625,
      "velocity": 127,
      "chip": "ym2612"
    },
    {
      "channel": 1,
      "note": 69,
      "start": 29.7993,
      "duration": 0.1307,
      "velocity": 120,
      "chip": "ym2612"
    },
    {
      "channel": 4,
      "note": 74,
      "start": 29.7998,
      "duration": 0.0124,
      "velocity": 97,
      "chip": "ym2612"
    },
    {
      "channel": 0,
      "note": 69,
      "start": 29.8655,
      "duration": 1.2022,
      "velocity": 120,
      "chip": "ym2612"
    },
    {
      "channel": 2,
      "note": 57,
      "start": 29.866,
      "duration": 0.2643,
      "velocity": 107,
      "chip": "ym2612"
    },
    {
      "channel": 3,
      "note": 64,
      "start": 29.8664,
      "duration": 1.2017,
      "velocity": 120,
      "chip": "ym2612"
    },
    {
      "channel": 4,
      "note": 69,
      "start": 29.8669,
      "duration": 0.0124,
      "velocity": 97,
      "chip": "ym2612"
    },
    {
      "channel": 1,
      "note": 70,
      "start": 29.9325,
      "duration": 0.1309,
      "velocity": 120,
      "chip": "ym2612"
    },
    {
      "channel": 4,
      "note": 69,
      "start": 29.9329,
      "duration": 0.0132,
      "velocity": 97,
      "chip": "ym2612"
    },
    {
      "channel": 5,
      "note": 103,
      "start": 29.9995,
      "duration": 0.2647,
      "velocity": 127,
      "chip": "ym2612"
    },
    {
      "channel": 1,
      "note": 69,
      "start": 30.0664,
      "duration": 1.0014,
      "velocity": 120,
      "chip": "ym2612"
    },
    {
      "channel": 2,
      "note": 57,
      "start": 30.1334,
      "duration": 0.1308,
      "velocity": 107,
      "chip": "ym2612"
    },
    {
      "channel": 4,
      "note": 69,
      "start": 30.1338,
      "duration": 0.0132,
      "velocity": 97,
      "chip": "ym2612"
    },
    {
      "channel": 4,
      "note": 69,
      "start": 30.2004,
      "duration": 0.0136,
      "velocity": 97,
      "chip": "ym2612"
    },
    {
      "channel": 2,
      "note": 57,
      "start": 30.2674,
      "duration": 0.1308,
      "velocity": 107,
      "chip": "ym2612"
    },
    {
      "channel": 4,
      "note": 72,
      "start": 30.2678,
      "duration": 0.0131,
      "velocity": 97,
      "chip": "ym2612"
    },
    {
      "channel": 5,
      "note": 103,
      "start": 30.2683,
      "duration": 0.2639,
      "velocity": 127,
      "chip": "ym2612"
    },
    {
      "channel": 4,
      "note": 72,
      "start": 30.3344,
      "duration": 0.0135,
      "velocity": 97,
      "chip": "ym2612"
    },
    {
      "channel": 2,
      "note": 57,
      "start": 30.4015,
      "duration": 0.1305,
      "velocity": 107,
      "chip": "ym2612"
    },
    {
      "channel": 4,
      "note": 69,
      "start": 30.402,
      "duration": 0.0128,
      "velocity": 97,
      "chip": "ym2612"
    },
    {
      "channel": 4,
      "note": 69,
      "start": 30.4683,
      "duration": 0.0135,
      "velocity": 97,
      "chip": "ym2612"
    },
    {
      "channel": 2,
      "note": 57,
      "start": 30.5352,
      "duration": 0.1307,
      "velocity": 107,
      "chip": "ym2612"
    },
    {
      "channel": 4,
      "note": 74,
      "start": 30.5357,
      "duration": 0.013,
      "velocity": 97,
      "chip": "ym2612"
    },
    {
      "channel": 5,
      "note": 103,
      "start": 30.5361,
      "duration": 0.2638,
      "velocity": 127,
      "chip": "ym2612"
    },
    {
      "channel": 4,
      "note": 74,
      "start": 30.6021,
      "duration": 0.0136,
      "velocity": 97,
      "chip": "ym2612"
    },
    {
      "channel": 2,
      "note": 57,
      "start": 30.669,
      "duration": 0.1308,
      "velocity": 107,
      "chip": "ym2612"
    },
    {
      "channel": 4,
      "note": 69,
      "start": 30.6695,
      "duration": 0.0131,
      "velocity": 97,
      "chip": "ym2612"
    },
    {
      "channel": 4,
      "note": 69,
      "start": 30.7361,
      "duration": 0.0135,
      "velocity": 97,
      "chip": "ym2612"
    },
    {
      "channel": 2,
      "note": 57,
      "start": 30.8029,
      "duration": 0.1308,
      "velocity": 107,
      "chip": "ym2612"
    },
    {
      "channel": 4,
      "note": 76,
      "start": 30.8034,
      "duration": 0.0132,
      "velocity": 97,
      "chip": "ym2612"
    },
    {
      "channel": 5,
      "note": 103,
      "start": 30.8039,
      "duration": 0.2643,
      "velocity": 127,
      "chip": "ym2612"
    },
    {
      "channel": 4,
      "note": 76,
      "start": 30.8699,
      "duration": 0.0137,
      "velocity": 97,
      "chip": "ym2612"
    },
    {
      "channel": 2,
      "note": 57,
      "start": 30.9369,
      "duration": 0.131,
      "velocity": 107,
      "chip": "ym2612"
    },
    {
      "channel": 4,
      "note": 69,
      "start": 30.9375,
      "duration": 0.013,
      "velocity": 97,
      "chip": "ym2612"
    },
    {
      "channel": 4,
      "note": 69,
      "start": 31.0039,
      "duration": 0.0135,
      "velocity": 97,
      "chip": "ym2612"
    },
    {
      "channel": 0,
      "note": 69,
      "start": 31.0708,
      "duration": 0.0666,
      "velocity": 120,
      "chip": "ym2612"
    },
    {
      "channel": 2,
      "note": 55,
      "start": 31.0715,
      "duration": 0.1301,
      "velocity": 107,
      "chip": "ym2612"
    },
    {
      "channel": 3,
      "note": 67,
      "start": 31.072,
      "duration": 0.6682,
      "velocity": 120,
      "chip": "ym2612"
    },
    {
      "channel": 5,
      "note": 103,
      "start": 31.0744,
      "duration": 0.2612,
      "velocity": 127,
      "chip": "ym2612"
    },
    {
      "channel": 0,
      "note": 70,
      "start": 31.1378,
      "duration": 0.6022,
      "velocity": 120,
      "chip": "ym2612"
    },
    {
      "channel": 2,
      "note": 55,
      "start": 31.2047,
      "duration": 0.1308,
      "velocity": 107,
      "chip": "ym2612"
    },
    {
      "channel": 4,
      "note": 62,
      "start": 31.2052,
      "duration": 0.0132,
      "velocity": 97,
      "chip": "ym2612"
    },
    {
      "channel": 1,
      "note": 69,
      "start": 31.2719,
      "duration": 0.0664,
      "velocity": 120,
      "chip": "ym2612"
    },
    {
      "channel": 4,
      "note": 62,
      "start": 31.2724,
      "duration": 0.0129,
      "velocity": 97,
      "chip": "ym2612"
    },
    {
      "channel": 1,
      "note": 70,
      "start": 31.3388,
      "duration": 0.6022,
      "velocity": 120,
      "chip": "ym2612"
    },
    {
      "channel": 2,
      "note": 55,
      "start": 31.3392,
      "duration": 0.1302,
      "velocity": 107,
      "chip": "ym2612"
    },
    {
      "channel": 4,
      "note": 65,
      "start": 31.3397,
      "duration": 0.0127,
      "velocity": 97,
      "chip": "ym2612"
    },
    {
      "channel": 5,
      "note": 103,
      "start": 31.3402,
      "duration": 0.266,
      "velocity": 127,
      "chip": "ym2612"
    },
    {
      "channel": 4,
      "note": 65,
      "start": 31.4057,
      "duration": 0.0135,
      "velocity": 97,
      "chip": "ym2612"
    },
    {
      "channel": 2,
      "note": 55,
      "start": 31.4729,
      "duration": 0.1333,
      "velocity": 107,
      "chip": "ym2612"
    },
    {
      "channel": 4,
      "note": 62,
      "start": 31.4734,
      "duration": 0.0128,
      "velocity": 97,
      "chip": "ym2612"
    },
    {
      "channel": 4,
      "note": 62,
      "start": 31.5424,
      "duration": 0.0136,
      "velocity": 97,
      "chip": "ym2612"
    },
    {
      "channel": 2,
      "note": 55,
      "start": 31.6093,
      "duration": 0.1309,
      "velocity": 107,
      "chip": "ym2612"
    },
    {
      "channel": 4,
      "note": 72,
      "start": 31.6098,
      "duration": 0.0131,
      "velocity": 97,
      "chip": "ym2612"
    },
    {
      "channel": 5,
      "note": 103,
      "start": 31.6102,
      "duration": 0.264,
      "velocity": 127,
      "chip": "ym2612"
    },
    {
      "channel": 4,
      "note": 72,
      "start": 31.6762,
      "duration": 0.0137,
      "velocity": 97,
      "chip": "ym2612"
    },
    {
      "channel": 0,
      "note": 72,
      "start": 31.7432,
      "duration": 0.1308,
      "velocity": 120,
      "chip": "ym2612"
    },
    {
      "channel": 2,
      "note": 55,
      "start": 31.7437,
      "duration": 0.1303,
      "velocity": 107,
      "chip": "ym2612"
    },
    {
      "channel": 3,
      "note": 69,
      "start": 31.7442,
      "duration": 0.13,
      "velocity": 120,
      "chip": "ym2612"
    },
    {
      "channel": 4,
      "note": 74,
      "start": 31.7446,
      "duration": 0.0122,
      "velocity": 97,
      "chip": "ym2612"
    },
    {
      "channel": 4,
      "note": 74,
      "start": 31.8102,
      "duration": 0.0135,
      "velocity": 97,
      "chip": "ym2612"
    },
    {
      "channel": 0,
      "note": 74,
      "start": 31.8771,
      "duration": 0.1309,
      "velocity": 120,
      "chip": "ym2612"
    },
    {
      "channel": 2,
      "note": 55,
      "start": 31.8776,
      "duration": 0.1305,
      "velocity": 107,
      "chip": "ym2612"
    },
    {
      "channel": 3,
      "note": 70,
      "start": 31.878,
      "duration": 0.1302,
      "velocity": 120,
      "chip": "ym2612"
    },
    {
      "channel": 4,
      "note": 76,
      "start": 31.8785,
      "duration": 0.0122,
      "velocity": 97,
      "chip": "ym2612"
    },
    {
      "channel": 5,
      "note": 103,
      "start": 31.879,
      "duration": 0.2629,
      "velocity": 127,
      "chip": "ym2612"
    },
    {
      "channel": 1,
      "note": 72,
      "start": 31.9442,
      "duration": 0.1308,
      "velocity": 120,
      "chip": "ym2612"
    },
    {
      "channel": 4,
      "note": 76,
      "start": 31.9446,
      "duration": 0.013,
      "velocity": 97,
      "chip": "ym2612"
    },
    {
      "channel": 0,
      "note": 72,
      "start": 32.011,
      "duration": 0.5326,
      "velocity": 120,
      "chip": "ym2612"
    },
    {
      "channel": 2,
      "note": 57,
      "start": 32.0117,
      "duration": 0.264,
      "velocity": 107,
      "chip": "ym2612"
    },
    {
      "channel": 3,
      "note": 69,
      "start": 32.0122,
      "duration": 0.5316,
      "velocity": 120,
      "chip": "ym2612"
    },
    {
      "channel": 4,
      "note": 72,
      "start": 32.0127,
      "duration": 0.012,
      "velocity": 97,
      "chip": "ym2612"
    },
    {
      "channel": 1,
      "note": 74,
      "start": 32.0781,
      "duration": 0.1307,
      "velocity": 120,
      "chip": "ym2612"
    },
    {
      "channel": 4,
      "note": 72,
      "start": 32.0785,
      "duration": 0.0132,
      "velocity": 97,
      "chip": "ym2612"
    },
    {
      "channel": 5,
      "note": 103,
      "start": 32.145,
      "duration": 0.2649,
      "velocity": 127,
      "chip": "ym2612"
    },
    {
      "channel": 1,
      "note": 72,
      "start": 32.212,
      "duration": 0.5324,
      "velocity": 120,
      "chip": "ym2612"
    },
    {
      "channel": 2,
      "note": 57,
      "start": 32.2789,
      "duration": 0.1308,
      "velocity": 107,
      "chip": "ym2612"
    },
    {
      "channel": 4,
      "note": 72,
      "start": 32.2794,
      "duration": 0.0132,
      "velocity": 97,
      "chip": "ym2612"
    },
    {
      "channel": 4,
      "note": 72,
      "start": 32.346,
      "duration": 0.0135,
      "velocity": 97,
      "chip": "ym2612"
    },
    {
      "channel": 2,
      "note": 57,
      "start": 32.4128,
      "duration": 0.1309,
      "velocity": 107,
      "chip": "ym2612"
    },
    {
      "channel": 4,
      "note": 76,
      "start": 32.4132,
      "duration": 0.0132,
      "velocity": 97,
      "chip": "ym2612"
    },
    {
      "channel": 5,
      "note": 103,
      "start": 32.4137,
      "duration": 0.2639,
      "velocity": 127,
      "chip": "ym2612"
    },
    {
      "channel": 4,
      "note": 76,
      "start": 32.4799,
      "duration": 0.0134,
      "velocity": 97,
      "chip": "ym2612"
    },
    {
      "channel": 0,
      "note": 69,
      "start": 32.5468,
      "duration": 0.5325,
      "velocity": 120,
      "chip": "ym2612"
    },
    {
      "channel": 2,
      "note": 57,
      "start": 32.5473,
      "duration": 0.1303,
      "velocity": 107,
      "chip": "ym2612"
    },
    {
      "channel": 3,
      "note": 64,
      "start": 32.5477,
      "duration": 0.5318,
      "velocity": 120,
      "chip": "ym2612"
    },
    {
      "channel": 4,
      "note": 72,
      "start": 32.5482,
      "duration": 0.0128,
      "velocity": 97,
      "chip": "ym2612"
    },
    {
      "channel": 4,
      "note": 72,
      "start": 32.6137,
      "duration": 0.0137,
      "velocity": 97,
      "chip": "ym2612"
    },
    {
      "channel": 2,
      "note": 57,
      "start": 32.6806,
      "duration": 0.131,
      "velocity": 107,
      "chip": "ym2612"
    },
    {
      "channel": 4,
      "note": 81,
      "start": 32.6812,
      "duration": 0.013,
      "velocity": 97,
      "chip": "ym2612"
    },
    {
      "channel": 5,
      "note": 103,
      "start": 32.682,
      "duration": 0.2636,
      "velocity": 127,
      "chip": "ym2612"
    },
    {
      "channel": 1,
      "note": 69,
      "start": 32.7477,
      "duration": 0.5325,
      "velocity": 120,
      "chip": "ym2612"
    },
    {
      "channel": 4,
      "note": 81,
      "start": 32.7481,
      "duration": 0.0135,
      "velocity": 97,
      "chip": "ym2612"
    },
    {
      "channel": 2,
      "note": 57,
      "start": 32.8145,
      "duration": 0.1309,
      "velocity": 107,
      "chip": "ym2612"
    },
    {
      "channel": 4,
      "note": 72,
      "start": 32.815,
      "duration": 0.0132,
      "velocity": 97,
      "chip": "ym2612"
    },
    {
      "channel": 4,
      "note": 72,
      "start": 32.8819,
      "duration": 0.0132,
      "velocity": 97,
      "chip": "ym2612"
    },
    {
      "channel": 2,
      "note": 57,
      "start": 32.9485,
      "duration": 0.131,
      "velocity": 107,
      "chip": "ym2612"
    },
    {
      "channel": 4,
      "note": 74,
      "start": 32.9489,
      "duration": 0.0132,
      "velocity": 97,
      "chip": "ym2612"
    },
    {
      "channel": 5,
      "note": 103,
      "start": 32.9494,
      "duration": 0.2638,
      "velocity": 127,
      "chip": "ym2612"
    },
    {
      "channel": 4,
      "note": 74,
      "start": 33.0156,
      "duration": 0.0135,
      "velocity": 97,
      "chip": "ym2612"
    },
    {
      "channel": 0,
      "note": 67,
      "start": 33.0824,
      "duration": 0.8003,
      "velocity": 120,
      "chip": "ym2612"
    },
    {
      "channel": 2,
      "note": 58,
      "start": 33.0829,
      "duration": 0.2643,
      "velocity": 107,
      "chip": "ym2612"
    },
    {
      "channel": 3,
      "note": 62,
      "start": 33.0834,
      "duration": 0.7996,
      "velocity": 120,
      "chip": "ym2612"
    },
    {
      "channel": 4,
      "note": 76,
      "start": 33.0838,
      "duration": 0.0122,
      "velocity": 97,
      "chip": "ym2612"
    },
    {
      "channel": 4,
      "note": 76,
      "start": 33.1493,
      "duration": 0.0136,
      "velocity": 97,
      "chip": "ym2612"
    },
    {
      "channel": 5,
      "note": 103,
      "start": 33.2163,
      "duration": 0.2649,
      "velocity": 127,
      "chip": "ym2612"
    },
    {
      "channel": 1,
      "note": 67,
      "start": 33.2833,
      "duration": 0.8005,
      "velocity": 120,
      "chip": "ym2612"
    },
    {
      "channel": 2,
      "note": 58,
      "start": 33.3502,
      "duration": 0.1308,
      "velocity": 107,
      "chip": "ym2612"
    },
    {
      "channel": 4,
      "note": 70,
      "start": 33.3507,
      "duration": 0.0132,
      "velocity": 97,
      "chip": "ym2612"
    },
    {
      "channel": 4,
      "note": 70,
      "start": 33.4173,
      "duration": 0.0135,
      "velocity": 97,
      "chip": "ym2612"
    },
    {
      "channel": 2,
      "note": 58,
      "start": 33.4843,
      "duration": 0.1307,
      "velocity": 107,
      "chip": "ym2612"
    },
    {
      "channel": 4,
      "note": 74,
      "start": 33.4847,
      "duration": 0.013,
      "velocity": 97,
      "chip": "ym2612"
    },
    {
      "channel": 5,
      "note": 103,
      "start": 33.4852,
      "duration": 0.2638,
      "velocity": 127,
      "chip": "ym2612"
    },
    {
      "channel": 4,
      "note": 74,
      "start": 33.5511,
      "duration": 0.0136,
      "velocity": 97,
      "chip": "ym2612"
    },
    {
      "channel": 2,
      "note": 58,
      "start": 33.6182,
      "duration": 0.1308,
      "velocity": 107,
      "chip": "ym2612"
    },
    {
      "channel": 4,
      "note": 70,
      "start": 33.6187,
      "duration": 0.013,
      "velocity": 97,
      "chip": "ym2612"
    },
    {
      "channel": 4,
      "note": 70,
      "start": 33.685,
      "duration": 0.0136,
      "velocity": 97,
      "chip": "ym2612"
    },
    {
      "channel": 2,
      "note": 58,
      "start": 33.7521,
      "duration": 0.1308,
      "velocity": 107,
      "chip": "ym2612"
    },
    {
      "channel": 4,
      "note": 79,
      "start": 33.7525,
      "duration": 0.0131,
      "velocity": 97,
      "chip": "ym2612"
    },
    {
      "channel": 5,
      "note": 103,
      "start": 33.753,
      "duration": 0.264,
      "velocity": 127,
      "chip": "ym2612"
    },
    {
      "channel": 4,
      "note": 79,
      "start": 33.819,
      "duration": 0.0137,
      "velocity": 97,
      "chip": "ym2612"
    },
    {
      "channel": 0,
      "note": 69,
      "start": 33.8859,
      "duration": 0.1307,
      "velocity": 120,
      "chip": "ym2612"
    },
    {
      "channel": 2,
      "note": 58,
      "start": 33.8864,
      "duration": 0.1304,
      "velocity": 107,
      "chip": "ym2612"
    },
    {
      "channel": 3,
      "note": 64,
      "start": 33.8868,
      "duration": 0.13,
      "velocity": 120,
      "chip": "ym2612"
    },
    {
      "channel": 4,
      "note": 70,
      "start": 33.8873,
      "duration": 0.0123,
      "velocity": 97,
      "chip": "ym2612"
    },
    {
      "channel": 4,
      "note": 70,
      "start": 33.9529,
      "duration": 0.0136,
      "velocity": 97,
      "chip": "ym2612"
    },
    {
      "channel": 0,
      "note": 70,
      "start": 34.0198,
      "duration": 0.1309,
      "velocity": 120,
      "chip": "ym2612"
    },
    {
      "channel": 2,
      "note": 58,
      "start": 34.0203,
      "duration": 0.1305,
      "velocity": 107,
      "chip": "ym2612"
    },
    {
      "channel": 3,
      "note": 65,
      "start": 34.0207,
      "duration": 0.1301,
      "velocity": 120,
      "chip": "ym2612"
    },
    {
      "channel": 4,
      "note": 74,
      "start": 34.0212,
      "duration": 0.0122,
      "velocity": 97,
      "chip": "ym2612"
    },
    {
      "channel": 5,
      "note": 103,
      "start": 34.022,
      "duration": 0.2625,
      "velocity": 127,
      "chip": "ym2612"
    },
    {
      "channel": 1,
      "note": 69,
      "start": 34.0869,
      "duration": 0.1308,
      "velocity": 120,
      "chip": "ym2612"
    },
    {
      "channel": 4,
      "note": 74,
      "start": 34.0873,
      "duration": 0.0131,
      "velocity": 97,
      "chip": "ym2612"
    },
    {
      "channel": 0,
      "note": 72,
      "start": 34.1538,
      "duration": 0.5324,
      "velocity": 120,
      "chip": "ym2612"
    },
    {
      "channel": 2,
      "note": 57,
      "start": 34.1542,
      "duration": 0.264,
      "velocity": 107,
      "chip": "ym2612"
    },
    {
      "channel": 3,
      "note": 69,
      "start": 34.1547,
      "duration": 0.5317,
      "velocity": 120,
      "chip": "ym2612"
    },
    {
      "channel": 4,
      "note": 69,
      "start": 34.1551,
      "duration": 0.0122,
      "velocity": 97,
      "chip": "ym2612"
    },
    {
      "channel": 1,
      "note": 70,
      "start": 34.2208,
      "duration": 0.1306,
      "velocity": 120,
      "chip": "ym2612"
    },
    {
      "channel": 4,
      "note": 69,
      "start": 34.2215,
      "duration": 0.0129,
      "velocity": 97,
      "chip": "ym2612"
    },
    {
      "channel": 5,
      "note": 103,
      "start": 34.2877,
      "duration": 0.2646,
      "velocity": 127,
      "chip": "ym2612"
    },
    {
      "channel": 1,
      "note": 72,
      "start": 34.3545,
      "duration": 0.5325,
      "velocity": 120,
      "chip": "ym2612"
    },
    {
      "channel": 2,
      "note": 57,
      "start": 34.4217,
      "duration": 0.1305,
      "velocity": 107,
      "chip": "ym2612"
    },
    {
      "channel": 4,
      "note": 69,
      "start": 34.4221,
      "duration": 0.0129,
      "velocity": 97,
      "chip": "ym2612"
    },
    {
      "channel": 4,
      "note": 69,
      "start": 34.4884,
      "duration": 0.0136,
      "velocity": 97,
      "chip": "ym2612"
    },
    {
      "channel": 2,
      "note": 57,
      "start": 34.5554,
      "duration": 0.1309,
      "velocity": 107,
      "chip": "ym2612"
    },
    {
      "channel": 4,
      "note": 72,
      "start": 34.5559,
      "duration": 0.0131,
      "velocity": 97,
      "chip": "ym2612"
    },
    {
      "channel": 5,
      "note": 103,
      "start": 34.5564,
      "duration": 0.2638,
      "velocity": 127,
      "chip": "ym2612"
    },
    {
      "channel": 4,
      "note": 72,
      "start": 34.6223,
      "duration": 0.0136,
      "velocity": 97,
      "chip": "ym2612"
    },
    {
      "channel": 0,
      "note": 76,
      "start": 34.6894,
      "duration": 0.6663,
      "velocity": 120,
      "chip": "ym2612"
    },
    {
      "channel": 2,
      "note": 58,
      "start": 34.6898,
      "duration": 0.2641,
      "velocity": 107,
      "chip": "ym2612"
    },
    {
      "channel": 3,
      "note": 67,
      "start": 34.6903,
      "duration": 0.6657,
      "velocity": 120,
      "chip": "ym2612"
    },
    {
      "channel": 4,
      "note": 69,
      "start": 34.6907,
      "duration": 0.0122,
      "velocity": 97,
      "chip": "ym2612"
    },
    {
      "channel": 4,
      "note": 69,
      "start": 34.7563,
      "duration": 0.0135,
      "velocity": 97,
      "chip": "ym2612"
    },
    {
      "channel": 4,
      "note": 74,
      "start": 34.8232,
      "duration": 0.0136,
      "velocity": 97,
      "chip": "ym2612"
    },
    {
      "channel": 5,
      "note": 103,
      "start": 34.8237,
      "duration": 0.2643,
      "velocity": 127,
      "chip": "ym2612"
    },
    {
      "channel": 1,
      "note": 76,
      "start": 34.8902,
      "duration": 0.4656,
      "velocity": 120,
      "chip": "ym2612"
    },
    {
      "channel": 4,
      "note": 74,
      "start": 34.8907,
      "duration": 0.013,
      "velocity": 97,
      "chip": "ym2612"
    },
    {
      "channel": 2,
      "note": 70,
      "start": 34.9572,
      "duration": 0.1307,
      "velocity": 107,
      "chip": "ym2612"
    },
    {
      "channel": 4,
      "note": 69,
      "start": 34.9577,
      "duration": 0.013,
      "velocity": 97,
      "chip": "ym2612"
    },
    {
      "channel": 4,
      "note": 69,
      "start": 35.0241,
      "duration": 0.0137,
      "velocity": 97,
      "chip": "ym2612"
    },
    {
      "channel": 2,
      "note": 58,
      "start": 35.091,
      "duration": 0.1312,
      "velocity": 107,
      "chip": "ym2612"
    },
    {
      "channel": 4,
      "note": 76,
      "start": 35.0917,
      "duration": 0.013,
      "velocity": 97,
      "chip": "ym2612"
    },
    {
      "channel": 5,
      "note": 103,
      "start": 35.0922,
      "duration": 0.2639,
      "velocity": 127,
      "chip": "ym2612"
    },
    {
      "channel": 4,
      "note": 76,
      "start": 35.158,
      "duration": 0.0139,
      "velocity": 97,
      "chip": "ym2612"
    },
    {
      "channel": 2,
      "note": 55,
      "start": 35.2249,
      "duration": 0.131,
      "velocity": 107,
      "chip": "ym2612"
    },
    {
      "channel": 4,
      "note": 69,
      "start": 35.2254,
      "duration": 0.0132,
      "velocity": 97,
      "chip": "ym2612"
    },
    {
      "channel": 4,
      "note": 69,
      "start": 35.292,
      "duration": 0.0135,
      "velocity": 97,
      "chip": "ym2612"
    },
    {
      "channel": 0,
      "note": 62,
      "start": 35.3588,
      "duration": 0.1307,
      "velocity": 120,
      "chip": "ym2612"
    },
    {
      "channel": 2,
      "note": 50,
      "start": 35.3593,
      "duration": 0.1304,
      "velocity": 107,
      "chip": "ym2612"
    },
    {
      "channel": 3,
      "note": 57,
      "start": 35.3598,
      "duration": 0.13,
      "velocity": 120,
      "chip": "ym2612"
    },
    {
      "channel": 4,
      "note": 74,
      "start": 35.3617,
      "duration": 0.0191,
      "velocity": 103,
      "chip": "ym2612"
    },
    {
      "channel": 5,
      "note": 103,
      "start": 35.3632,
      "duration": 0.2606,
      "velocity": 127,
      "chip": "ym2612"
    },
    {
      "channel": 4,
      "note": 77,
      "start": 35.4258,
      "duration": 0.0218,
      "velocity": 103,
      "chip": "ym2612"
    },
    {
      "channel": 0,
      "note": 62,
      "start": 35.4927,
      "duration": 0.1307,
      "velocity": 120,
      "chip": "ym2612"
    },
    {
      "channel": 2,
      "note": 50,
      "start": 35.4932,
      "duration": 0.1303,
      "velocity": 107,
      "chip": "ym2612"
    },
    {
      "channel": 3,
      "note": 57,
      "start": 35.4937,
      "duration": 0.1299,
      "velocity": 120,
      "chip": "ym2612"
    },
    {
      "channel": 4,
      "note": 84,
      "start": 35.4943,
      "duration": 0.0204,
      "velocity": 103,
      "chip": "ym2612"
    },
    {
      "channel": 1,
      "note": 62,
      "start": 35.5596,
      "duration": 0.1308,
      "velocity": 120,
      "chip": "ym2612"
    },
    {
      "channel": 4,
      "note": 81,
      "start": 35.5602,
      "duration": 0.0215,
      "velocity": 103,
      "chip": "ym2612"
    },
    {
      "channel": 0,
      "note": 60,
      "start": 35.6267,
      "duration": 0.1307,
      "velocity": 120,
      "chip": "ym2612"
    },
    {
      "channel": 2,
      "note": 48,
      "start": 35.6271,
      "duration": 0.1303,
      "velocity": 107,
      "chip": "ym2612"
    },
    {
      "channel": 3,
      "note": 55,
      "start": 35.6276,
      "duration": 0.1299,
      "velocity": 120,
      "chip": "ym2612"
    },
    {
      "channel": 4,
      "note": 74,
      "start": 35.6282,
      "duration": 0.0204,
      "velocity": 103,
      "chip": "ym2612"
    },
    {
      "channel": 5,
      "note": 103,
      "start": 35.6287,
      "duration": 0.263,
      "velocity": 127,
      "chip": "ym2612"
    },
    {
      "channel": 1,
      "note": 62,
      "start": 35.6936,
      "duration": 0.1307,
      "velocity": 120,
      "chip": "ym2612"
    },
    {
      "channel": 4,
      "note": 77,
      "start": 35.6942,
      "duration": 0.0215,
      "velocity": 103,
      "chip": "ym2612"
    },
    {
      "channel": 0,
      "note": 62,
      "start": 35.7605,
      "duration": 0.1309,
      "velocity": 120,
      "chip": "ym2612"
    },
    {
      "channel": 2,
      "note": 50,
      "start": 35.761,
      "duration": 0.1305,
      "velocity": 107,
      "chip": "ym2612"
    },
    {
      "channel": 3,
      "note": 57,
      "start": 35.7617,
      "duration": 0.1299,
      "velocity": 120,
      "chip": "ym2612"
    },
    {
      "channel": 4,
      "note": 84,
      "start": 35.7622,
      "duration": 0.0202,
      "velocity": 103,
      "chip": "ym2612"
    },
    {
      "channel": 1,
      "note": 60,
      "start": 35.8276,
      "duration": 0.1308,
      "velocity": 120,
      "chip": "ym2612"
    },
    {
      "channel": 4,
      "note": 81,
      "start": 35.8282,
      "duration": 0.0213,
      "velocity": 103,
      "chip": "ym2612"
    },
    {
      "channel": 4,
      "note": 74,
      "start": 35.8946,
      "duration": 0.0218,
      "velocity": 103,
      "chip": "ym2612"
    },
    {
      "channel": 1,
      "note": 62,
      "start": 35.9617,
      "duration": 0.1304,
      "velocity": 120,
      "chip": "ym2612"
    },
    {
      "channel": 4,
      "note": 77,
      "start": 35.9623,
      "duration": 0.021,
      "velocity": 103,
      "chip": "ym2612"
    },
    {
      "channel": 0,
      "note": 57,
      "start": 36.0283,
      "duration": 0.1308,
      "velocity": 120,
      "chip": "ym2612"
    },
    {
      "channel": 2,
      "note": 45,
      "start": 36.0288,
      "duration": 0.1305,
      "velocity": 107,
      "chip": "ym2612"
    },
    {
      "channel": 3,
      "note": 50,
      "start": 36.0293,
      "duration": 0.1301,
      "velocity": 120,
      "chip": "ym2612"
    },
    {
      "channel": 4,
      "note": 84,
      "start": 36.0299,
      "duration": 0.0205,
      "velocity": 103,
      "chip": "ym2612"
    },
    {
      "channel": 5,
      "note": 103,
      "start": 36.0303,
      "duration": 0.2628,
      "velocity": 127,
      "chip": "ym2612"
    },
    {
      "channel": 4,
      "note": 81,
      "start": 36.0954,
      "duration": 0.022,
      "velocity": 103,
      "chip": "ym2612"
    },
    {
      "channel": 4,
      "note": 74,
      "start": 36.1625,
      "duration": 0.0217,
      "velocity": 103,
      "chip": "ym2612"
    },
    {
      "channel": 1,
      "note": 57,
      "start": 36.2293,
      "duration": 0.1315,
      "velocity": 120,
      "chip": "ym2612"
    },
    {
      "channel": 4,
      "note": 77,
      "start": 36.2299,
      "duration": 0.0215,
      "velocity": 103,
      "chip": "ym2612"
    },
    {
      "channel": 0,
      "note": 58,
      "start": 36.2962,
      "duration": 0.6665,
      "velocity": 120,
      "chip": "ym2612"
    },
    {
      "channel": 2,
      "note": 46,
      "start": 36.2966,
      "duration": 0.6661,
      "velocity": 107,
      "chip": "ym2612"
    },
    {
      "channel": 3,
      "note": 53,
      "start": 36.2971,
      "duration": 0.6657,
      "velocity": 120,
      "chip": "ym2612"
    },
    {
      "channel": 4,
      "note": 84,
      "start": 36.2977,
      "duration": 0.0205,
      "velocity": 103,
      "chip": "ym2612"
    },
    {
      "channel": 5,
      "note": 103,
      "start": 36.2982,
      "duration": 0.3967,
      "velocity": 127,
      "chip": "ym2612"
    },
    {
      "channel": 4,
      "note": 81,
      "start": 36.3633,
      "duration": 0.0218,
      "velocity": 103,
      "chip": "ym2612"
    },
    {
      "channel": 4,
      "note": 74,
      "start": 36.4304,
      "duration": 0.0216,
      "velocity": 103,
      "chip": "ym2612"
    },
    {
      "channel": 1,
      "note": 58,
      "start": 36.4971,
      "duration": 0.6665,
      "velocity": 120,
      "chip": "ym2612"
    },
    {
      "channel": 4,
      "note": 77,
      "start": 36.4976,
      "duration": 0.0214,
      "velocity": 103,
      "chip": "ym2612"
    },
    {
      "channel": 4,
      "note": 84,
      "start": 36.5642,
      "duration": 0.0218,
      "velocity": 103,
      "chip": "ym2612"
    },
    {
      "channel": 4,
      "note": 81,
      "start": 36.6315,
      "duration": 0.0216,
      "velocity": 103,
      "chip": "ym2612"
    },
    {
      "channel": 4,
      "note": 74,
      "start": 36.6981,
      "duration": 0.0219,
      "velocity": 103,
      "chip": "ym2612"
    },
    {
      "channel": 5,
      "note": 103,
      "start": 36.6985,
      "duration": 0.2644,
      "velocity": 127,
      "chip": "ym2612"
    },
    {
      "channel": 4,
      "note": 77,
      "start": 36.765,
      "duration": 0.0218,
      "velocity": 103,
      "chip": "ym2612"
    },
    {
      "channel": 4,
      "note": 84,
      "start": 36.8321,
      "duration": 0.0218,
      "velocity": 103,
      "chip": "ym2612"
    },
    {
      "channel": 4,
      "note": 81,
      "start": 36.899,
      "duration": 0.0219,
      "velocity": 103,
      "chip": "ym2612"
    },
    {
      "channel": 0,
      "note": 60,
      "start": 36.9659,
      "duration": 0.5325,
      "velocity": 120,
      "chip": "ym2612"
    },
    {
      "channel": 2,
      "note": 48,
      "start": 36.9664,
      "duration": 0.5321,
      "velocity": 107,
      "chip": "ym2612"
    },
    {
      "channel": 3,
      "note": 55,
      "start": 36.9668,
      "duration": 0.5317,
      "velocity": 120,
      "chip": "ym2612"
    },
    {
      "channel": 4,
      "note": 74,
      "start": 36.9675,
      "duration": 0.0203,
      "velocity": 103,
      "chip": "ym2612"
    },
    {
      "channel": 5,
      "note": 103,
      "start": 36.9679,
      "duration": 0.1286,
      "velocity": 127,
      "chip": "ym2612"
    },
    {
      "channel": 4,
      "note": 77,
      "start": 37.0329,
      "duration": 0.0218,
      "velocity": 103,
      "chip": "ym2612"
    },
    {
      "channel": 4,
      "note": 84,
      "start": 37.1,
      "duration": 0.0217,
      "velocity": 103,
      "chip": "ym2612"
    },
    {
      "channel": 5,
      "note": 103,
      "start": 37.1004,
      "duration": 0.3983,
      "velocity": 127,
      "chip": "ym2612"
    },
    {
      "channel": 1,
      "note": 60,
      "start": 37.1667,
      "duration": 0.5325,
      "velocity": 120,
      "chip": "ym2612"
    },
    {
      "channel": 4,
      "note": 81,
      "start": 37.1673,
      "duration": 0.0213,
      "velocity": 103,
      "chip": "ym2612"
    },
    {
      "channel": 4,
      "note": 74,
      "start": 37.2337,
      "duration": 0.0219,
      "velocity": 103,
      "chip": "ym2612"
    },
    {
      "channel": 4,
      "note": 77,
      "start": 37.3007,
      "duration": 0.0218,
      "velocity": 103,
      "chip": "ym2612"
    },
    {
      "channel": 4,
      "note": 84,
      "start": 37.3677,
      "duration": 0.0218,
      "velocity": 103,
      "chip": "ym2612"
    },
    {
      "channel": 4,
      "note": 81,
      "start": 37.4346,
      "duration": 0.0218,
      "velocity": 103,
      "chip": "ym2612"
    },
    {
      "channel": 0,
      "note": 62,
      "start": 37.5017,
      "duration": 0.1305,
      "velocity": 120,
      "chip": "ym2612"
    },
    {
      "channel": 2,
      "note": 50,
      "start": 37.5022,
      "duration": 0.1301,
      "velocity": 107,
      "chip": "ym2612"
    },
    {
      "channel": 3,
      "note": 57,
      "start": 37.5027,
      "duration": 0.1298,
      "velocity": 120,
      "chip": "ym2612"
    },
    {
      "channel": 4,
      "note": 74,
      "start": 37.5032,
      "duration": 0.0202,
      "velocity": 103,
      "chip": "ym2612"
    },
    {
      "channel": 5,
      "note": 103,
      "start": 37.5038,
      "duration": 0.2626,
      "velocity": 127,
      "chip": "ym2612"
    },
    {
      "channel": 4,
      "note": 77,
      "start": 37.5685,
      "duration": 0.022,
      "velocity": 103,
      "chip": "ym2612"
    },
    {
      "channel": 0,
      "note": 62,
      "start": 37.6354,
      "duration": 0.1308,
      "velocity": 120,
      "chip": "ym2612"
    },
    {
      "channel": 2,
      "note": 50,
      "start": 37.6358,
      "duration": 0.1304,
      "velocity": 107,
      "chip": "ym2612"
    },
    {
      "channel": 3,
      "note": 57,
      "start": 37.6363,
      "duration": 0.13,
      "velocity": 120,
      "chip": "ym2612"
    },
    {
      "channel": 4,
      "note": 84,
      "start": 37.6369,
      "duration": 0.0205,
      "velocity": 103,
      "chip": "ym2612"
    },
    {
      "channel": 1,
      "note": 62,
      "start": 37.7024,
      "duration": 0.1308,
      "velocity": 120,
      "chip": "ym2612"
    },
    {
      "channel": 4,
      "note": 81,
      "start": 37.703,
      "duration": 0.0213,
      "velocity": 103,
      "chip": "ym2612"
    },
    {
      "channel": 0,
      "note": 60,
      "start": 37.7693,
      "duration": 0.1307,
      "velocity": 120,
      "chip": "ym2612"
    },
    {
      "channel": 2,
      "note": 48,
      "start": 37.7698,
      "duration": 0.1304,
      "velocity": 107,
      "chip": "ym2612"
    },
    {
      "channel": 3,
      "note": 55,
      "start": 37.7702,
      "duration": 0.13,
      "velocity": 120,
      "chip": "ym2612"
    },
    {
      "channel": 4,
      "note": 74,
      "start": 37.7708,
      "duration": 0.0206,
      "velocity": 103,
      "chip": "ym2612"
    },
    {
      "channel": 5,
      "note": 103,
      "start": 37.7718,
      "duration": 0.2626,
      "velocity": 127,
      "chip": "ym2612"
    },
    {
      "channel": 1,
      "note": 62,
      "start": 37.8363,
      "duration": 0.1307,
      "velocity": 120,
      "chip": "ym2612"
    },
    {
      "channel": 4,
      "note": 77,
      "start": 37.8369,
      "duration": 0.0213,
      "velocity": 103,
      "chip": "ym2612"
    },
    {
      "channel": 0,
      "note": 62,
      "start": 37.9032,
      "duration": 0.1309,
      "velocity": 120,
      "chip": "ym2612"
    },
    {
      "channel": 2,
      "note": 50,
      "start": 37.9037,
      "duration": 0.1305,
      "velocity": 107,
      "chip": "ym2612"
    },
    {
      "channel": 3,
      "note": 57,
      "start": 37.9041,
      "duration": 0.1302,
      "velocity": 120,
      "chip": "ym2612"
    },
    {
      "channel": 4,
      "note": 84,
      "start": 37.9047,
      "duration": 0.0205,
      "velocity": 103,
      "chip": "ym2612"
    },
    {
      "channel": 1,
      "note": 60,
      "start": 37.9702,
      "duration": 0.1307,
      "velocity": 120,
      "chip": "ym2612"
    },
    {
      "channel": 4,
      "note": 81,
      "start": 37.9708,
      "duration": 0.0214,
      "velocity": 103,
      "chip": "ym2612"
    },
    {
      "channel": 4,
      "note": 74,
      "start": 38.0373,
      "duration": 0.0218,
      "velocity": 103,
      "chip": "ym2612"
    },
    {
      "channel": 1,
      "note": 62,
      "start": 38.1042,
      "duration": 0.1307,
      "velocity": 120,
      "chip": "ym2612"
    },
    {
      "channel": 4,
      "note": 77,
      "start": 38.1048,
      "duration": 0.0213,
      "velocity": 103,
      "chip": "ym2612"
    },
    {
      "channel": 0,
      "note": 57,
      "start": 38.1714,
      "duration": 0.1305,
      "velocity": 120,
      "chip": "ym2612"
    },
    {
      "channel": 2,
      "note": 45,
      "start": 38.1718,
      "duration": 0.1301,
      "velocity": 107,
      "chip": "ym2612"
    },
    {
      "channel": 3,
      "note": 50,
      "start": 38.1723,
      "duration": 0.1298,
      "velocity": 120,
      "chip": "ym2612"
    },
    {
      "channel": 4,
      "note": 84,
      "start": 38.1729,
      "duration": 0.0202,
      "velocity": 103,
      "chip": "ym2612"
    },
    {
      "channel": 5,
      "note": 103,
      "start": 38.1734,
      "duration": 0.2624,
      "velocity": 127,
      "chip": "ym2612"
    },
    {
      "channel": 4,
      "note": 81,
      "start": 38.2382,
      "duration": 0.0218,
      "velocity": 103,
      "chip": "ym2612"
    },
    {
      "channel": 4,
      "note": 74,
      "start": 38.3053,
      "duration": 0.0217,
      "velocity": 103,
      "chip": "ym2612"
    },
    {
      "channel": 1,
      "note": 57,
      "start": 38.372,
      "duration": 0.1307,
      "velocity": 120,
      "chip": "ym2612"
    },
    {
      "channel": 4,
      "note": 77,
      "start": 38.3725,
      "duration": 0.0214,
      "velocity": 103,
      "chip": "ym2612"
    },
    {
      "channel": 0,
      "note": 64,
      "start": 38.4389,
      "duration": 0.0666,
      "velocity": 120,
      "chip": "ym2612"
    },
    {
      "channel": 2,
      "note": 52,
      "start": 38.4393,
      "duration": 0.0663,
      "velocity": 107,
      "chip": "ym2612"
    },
    {
      "channel": 3,
      "note": 57,
      "start": 38.4398,
      "duration": 0.0659,
      "velocity": 120,
      "chip": "ym2612"
    },
    {
      "channel": 4,
      "note": 84,
      "start": 38.4404,
      "duration": 0.0205,
      "velocity": 103,
      "chip": "ym2612"
    },
    {
      "channel": 5,
      "note": 103,
      "start": 38.4409,
      "duration": 0.397,
      "velocity": 127,
      "chip": "ym2612"
    },
    {
      "channel": 0,
      "note": 65,
      "start": 38.5061,
      "duration": 0.1974,
      "velocity": 120,
      "chip": "ym2612"
    },
    {
      "channel": 2,
      "note": 53,
      "start": 38.5066,
      "duration": 0.1971,
      "velocity": 107,
      "chip": "ym2612"
    },
    {
      "channel": 3,
      "note": 58,
      "start": 38.5072,
      "duration": 0.1966,
      "velocity": 120,
      "chip": "ym2612"
    },
    {
      "channel": 4,
      "note": 81,
      "start": 38.5078,
      "duration": 0.0203,
      "velocity": 103,
      "chip": "ym2612"
    },
    {
      "channel": 4,
      "note": 74,
      "start": 38.573,
      "duration": 0.0219,
      "velocity": 103,
      "chip": "ym2612"
    },
    {
      "channel": 1,
      "note": 64,
      "start": 38.6399,
      "duration": 0.0665,
      "velocity": 120,
      "chip": "ym2612"
    },
    {
      "channel": 4,
      "note": 77,
      "start": 38.6405,
      "duration": 0.0213,
      "velocity": 103,
      "chip": "ym2612"
    },
    {
      "channel": 0,
      "note": 64,
      "start": 38.7068,
      "duration": 0.1308,
      "velocity": 120,
      "chip": "ym2612"
    },
    {
      "channel": 1,
      "note": 65,
      "start": 38.7073,
      "duration": 0.1973,
      "velocity": 120,
      "chip": "ym2612"
    },
    {
      "channel": 2,
      "note": 52,
      "start": 38.7077,
      "duration": 0.13,
      "velocity": 107,
      "chip": "ym2612"
    },
    {
      "channel": 3,
      "note": 57,
      "start": 38.7082,
      "duration": 0.1296,
      "velocity": 120,
      "chip": "ym2612"
    },
    {
      "channel": 4,
      "note": 84,
      "start": 38.7089,
      "duration": 0.0199,
      "velocity": 103,
      "chip": "ym2612"
    },
    {
      "channel": 4,
      "note": 81,
      "start": 38.7739,
      "duration": 0.0219,
      "velocity": 103,
      "chip": "ym2612"
    },
    {
      "channel": 4,
      "note": 74,
      "start": 38.8412,
      "duration": 0.0214,
      "velocity": 103,
      "chip": "ym2612"
    },
    {
      "channel": 5,
      "note": 103,
      "start": 38.8417,
      "duration": 0.2637,
      "velocity": 127,
      "chip": "ym2612"
    },
    {
      "channel": 1,
      "note": 64,
      "start": 38.9077,
      "duration": 0.1307,
      "velocity": 120,
      "chip": "ym2612"
    },
    {
      "channel": 4,
      "note": 77,
      "start": 38.9083,
      "duration": 0.0213,
      "velocity": 103,
      "chip": "ym2612"
    },
    {
      "channel": 0,
      "note": 62,
      "start": 38.9746,
      "duration": 0.1307,
      "velocity": 120,
      "chip": "ym2612"
    },
    {
      "channel": 2,
      "note": 50,
      "start": 38.9751,
      "duration": 0.1306,
      "velocity": 107,
      "chip": "ym2612"
    },
    {
      "channel": 3,
      "note": 57,
      "start": 38.9756,
      "duration": 0.1302,
      "velocity": 120,
      "chip": "ym2612"
    },
    {
      "channel": 4,
      "note": 84,
      "start": 38.9762,
      "duration": 0.0204,
      "velocity": 103,
      "chip": "ym2612"
    },
    {
      "channel": 4,
      "note": 81,
      "start": 39.042,
      "duration": 0.0215,
      "velocity": 103,
      "chip": "ym2612"
    },
    {
      "channel": 4,
      "note": 74,
      "start": 39.1086,
      "duration": 0.0219,
      "velocity": 103,
      "chip": "ym2612"
    },
    {
      "channel": 5,
      "note": 103,
      "start": 39.1091,
      "duration": 0.1302,
      "velocity": 127,
      "chip": "ym2612"
    },
    {
      "channel": 1,
      "note": 62,
      "start": 39.1755,
      "duration": 0.1307,
      "velocity": 120,
      "chip": "ym2612"
    },
    {
      "channel": 4,
      "note": 77,
      "start": 39.1761,
      "duration": 0.0213,
      "velocity": 103,
      "chip": "ym2612"
    },
    {
      "channel": 0,
      "note": 60,
      "start": 39.2424,
      "duration": 0.1308,
      "velocity": 120,
      "chip": "ym2612"
    },
    {
      "channel": 2,
      "note": 48,
      "start": 39.243,
      "duration": 0.1304,
      "velocity": 107,
      "chip": "ym2612"
    },
    {
      "channel": 3,
      "note": 55,
      "start": 39.2434,
      "duration": 0.13,
      "velocity": 120,
      "chip": "ym2612"
    },
    {
      "channel": 4,
      "note": 84,
      "start": 39.2441,
      "duration": 0.0203,
      "velocity": 103,
      "chip": "ym2612"
    },
    {
      "channel": 5,
      "note": 103,
      "start": 39.2445,
      "duration": 0.3971,
      "velocity": 127,
      "chip": "ym2612"
    },
    {
      "channel": 4,
      "note": 81,
      "start": 39.3096,
      "duration": 0.0217,
      "velocity": 103,
      "chip": "ym2612"
    },
    {
      "channel": 4,
      "note": 74,
      "start": 39.3765,
      "duration": 0.0218,
      "velocity": 103,
      "chip": "ym2612"
    },
    {
      "channel": 1,
      "note": 60,
      "start": 39.4433,
      "duration": 0.1308,
      "velocity": 120,
      "chip": "ym2612"
    },
    {
      "channel": 4,
      "note": 77,
      "start": 39.4439,
      "duration": 0.0214,
      "velocity": 103,
      "chip": "ym2612"
    },
    {
      "channel": 0,
      "note": 57,
      "start": 39.5103,
      "duration": 0.131,
      "velocity": 120,
      "chip": "ym2612"
    },
    {
      "channel": 2,
      "note": 45,
      "start": 39.5108,
      "duration": 0.1306,
      "velocity": 107,
      "chip": "ym2612"
    },
    {
      "channel": 3,
      "note": 52,
      "start": 39.5115,
      "duration": 0.13,
      "velocity": 120,
      "chip": "ym2612"
    },
    {
      "channel": 4,
      "note": 84,
      "start": 39.5121,
      "duration": 0.0201,
      "velocity": 103,
      "chip": "ym2612"
    },
    {
      "channel": 4,
      "note": 81,
      "start": 39.5773,
      "duration": 0.0218,
      "velocity": 103,
      "chip": "ym2612"
    },
    {
      "channel": 0,
      "note": 62,
      "start": 39.6442,
      "duration": 0.1308,
      "velocity": 120,
      "chip": "ym2612"
    },
    {
      "channel": 2,
      "note": 50,
      "start": 39.6446,
      "duration": 0.1304,
      "velocity": 107,
      "chip": "ym2612"
    },
    {
      "channel": 3,
      "note": 57,
      "start": 39.6451,
      "duration": 0.1301,
      "velocity": 120,
      "chip": "ym2612"
    },
    {
      "channel": 5,
      "note": 103,
      "start": 39.6456,
      "duration": 0.2637,
      "velocity": 127,
      "chip": "ym2612"
    },
    {
      "channel": 1,
      "note": 57,
      "start": 39.7114,
      "duration": 0.1305,
      "velocity": 120,
      "chip": "ym2612"
    },
    {
      "channel": 0,
      "note": 62,
      "start": 39.7783,
      "duration": 0.1307,
      "velocity": 120,
      "chip": "ym2612"
    },
    {
      "channel": 2,
      "note": 50,
      "start": 39.7787,
      "duration": 0.1303,
      "velocity": 107,
      "chip": "ym2612"
    },
    {
      "channel": 3,
      "note": 57,
      "start": 39.7792,
      "duration": 0.13,
      "velocity": 120,
      "chip": "ym2612"
    },
    {
      "channel": 1,
      "note": 62,
      "start": 39.8451,
      "duration": 0.1307,
      "velocity": 120,
      "chip": "ym2612"
    },
    {
      "channel": 0,
      "note": 60,
      "start": 39.9121,
      "duration": 0.1308,
      "velocity": 120,
      "chip": "ym2612"
    },
    {
      "channel": 2,
      "note": 48,
      "start": 39.9126,
      "duration": 0.1304,
      "velocity": 107,
      "chip": "ym2612"
    },
    {
      "channel": 3,
      "note": 55,
      "start": 39.913,
      "duration": 0.13,
      "velocity": 120,
      "chip": "ym2612"
    },
    {
      "channel": 5,
      "note": 103,
      "start": 39.9135,
      "duration": 0.2635,
      "velocity": 127,
      "chip": "ym2612"
    },
    {
      "channel": 1,
      "note": 62,
      "start": 39.979,
      "duration": 0.1308,
      "velocity": 120,
      "chip": "ym2612"
    },
    {
      "channel": 0,
      "note": 62,
      "start": 40.046,
      "duration": 0.1307,
      "velocity": 120,
      "chip": "ym2612"
    },
    {
      "channel": 2,
      "note": 50,
      "start": 40.0464,
      "duration": 0.1304,
      "velocity": 107,
      "chip": "ym2612"
    },
    {
      "channel": 3,
      "note": 57,
      "start": 40.0469,
      "duration": 0.13,
      "velocity": 120,
      "chip": "ym2612"
    },
    {
      "channel": 1,
      "note": 60,
      "start": 40.1129,
      "duration": 0.1307,
      "velocity": 120,
      "chip": "ym2612"
    },
    {
      "channel": 1,
      "note": 62,
      "start": 40.2469,
      "duration": 0.1307,
      "velocity": 120,
      "chip": "ym2612"
    },
    {
      "channel": 0,
      "note": 57,
      "start": 40.3138,
      "duration": 0.1308,
      "velocity": 120,
      "chip": "ym2612"
    },
    {
      "channel": 2,
      "note": 45,
      "start": 40.3142,
      "duration": 0.1304,
      "velocity": 107,
      "chip": "ym2612"
    },
    {
      "channel": 3,
      "note": 50,
      "start": 40.3147,
      "duration": 0.13,
      "velocity": 120,
      "chip": "ym2612"
    },
    {
      "channel": 5,
      "note": 103,
      "start": 40.3152,
      "duration": 0.2633,
      "velocity": 127,
      "chip": "ym2612"
    },
    {
      "channel": 1,
      "note": 57,
      "start": 40.5146,
      "duration": 0.1308,
      "velocity": 120,
      "chip": "ym2612"
    },
    {
      "channel": 0,
      "note": 58,
      "start": 40.5818,
      "duration": 0.6665,
      "velocity": 120,
      "chip": "ym2612"
    },
    {
      "channel": 2,
      "note": 46,
      "start": 40.5822,
      "duration": 0.6661,
      "velocity": 107,
      "chip": "ym2612"
    },
    {
      "channel": 3,
      "note": 53,
      "start": 40.5827,
      "duration": 0.6658,
      "velocity": 120,
      "chip": "ym2612"
    },
    {
      "channel": 5,
      "note": 103,
      "start": 40.5832,
      "duration": 0.3971,
      "velocity": 127,
      "chip": "ym2612"
    },
    {
      "channel": 1,
      "note": 58,
      "start": 40.7825,
      "duration": 0.6665,
      "velocity": 120,
      "chip": "ym2612"
    },
    {
      "channel": 5,
      "note": 103,
      "start": 40.9834,
      "duration": 0.2648,
      "velocity": 127,
      "chip": "ym2612"
    },
    {
      "channel": 0,
      "note": 60,
      "start": 41.2516,
      "duration": 0.5323,
      "velocity": 120,
      "chip": "ym2612"
    },
    {
      "channel": 2,
      "note": 48,
      "start": 41.252,
      "duration": 0.5319,
      "velocity": 107,
      "chip": "ym2612"
    },
    {
      "channel": 3,
      "note": 55,
      "start": 41.2525,
      "duration": 0.5316,
      "velocity": 120,
      "chip": "ym2612"
    },
    {
      "channel": 5,
      "note": 103,
      "start": 41.253,
      "duration": 0.129,
      "velocity": 127,
      "chip": "ym2612"
    },
    {
      "channel": 5,
      "note": 103,
      "start": 41.3852,
      "duration": 0.399,
      "velocity": 127,
      "chip": "ym2612"
    },
    {
      "channel": 1,
      "note": 60,
      "start": 41.4521,
      "duration": 0.5333,
      "velocity": 120,
      "chip": "ym2612"
    },
    {
      "channel": 0,
      "note": 62,
      "start": 41.787,
      "duration": 0.1308,
      "velocity": 120,
      "chip": "ym2612"
    },
    {
      "channel": 2,
      "note": 50,
      "start": 41.7875,
      "duration": 0.1304,
      "velocity": 107,
      "chip": "ym2612"
    },
    {
      "channel": 3,
      "note": 57,
      "start": 41.7879,
      "duration": 0.13,
      "velocity": 120,
      "chip": "ym2612"
    },
    {
      "channel": 5,
      "note": 103,
      "start": 41.7884,
      "duration": 0.2635,
      "velocity": 127,
      "chip": "ym2612"
    },
    {
      "channel": 0,
      "note": 62,
      "start": 41.9208,
      "duration": 0.1308,
      "velocity": 120,
      "chip": "ym2612"
    },
    {
      "channel": 2,
      "note": 50,
      "start": 41.9215,
      "duration": 0.1302,
      "velocity": 107,
      "chip": "ym2612"
    },
    {
      "channel": 3,
      "note": 57,
      "start": 41.922,
      "duration": 0.1298,
      "velocity": 120,
      "chip": "ym2612"
    },
    {
      "channel": 1,
      "note": 62,
      "start": 41.9879,
      "duration": 0.1307,
      "velocity": 120,
      "chip": "ym2612"
    },
    {
      "channel": 0,
      "note": 60,
      "start": 42.0548,
      "duration": 0.1307,
      "velocity": 120,
      "chip": "ym2612"
    },
    {
      "channel": 2,
      "note": 48,
      "start": 42.0554,
      "duration": 0.1302,
      "velocity": 107,
      "chip": "ym2612"
    },
    {
      "channel": 3,
      "note": 55,
      "start": 42.0558,
      "duration": 0.1299,
      "velocity": 120,
      "chip": "ym2612"
    },
    {
      "channel": 5,
      "note": 103,
      "start": 42.0563,
      "duration": 0.2634,
      "velocity": 127,
      "chip": "ym2612"
    },
    {
      "channel": 1,
      "note": 62,
      "start": 42.1218,
      "duration": 0.1307,
      "velocity": 120,
      "chip": "ym2612"
    },
    {
      "channel": 0,
      "note": 62,
      "start": 42.1886,
      "duration": 0.1308,
      "velocity": 120,
      "chip": "ym2612"
    },
    {
      "channel": 2,
      "note": 50,
      "start": 42.1891,
      "duration": 0.1304,
      "velocity": 107,
      "chip": "ym2612"
    },
    {
      "channel": 3,
      "note": 57,
      "start": 42.1896,
      "duration": 0.13,
      "velocity": 120,
      "chip": "ym2612"
    },
    {
      "channel": 1,
      "note": 60,
      "start": 42.2556,
      "duration": 0.1308,
      "velocity": 120,
      "chip": "ym2612"
    },
    {
      "channel": 1,
      "note": 62,
      "start": 42.3896,
      "duration": 0.1307,
      "velocity": 120,
      "chip": "ym2612"
    },
    {
      "channel": 0,
      "note": 57,
      "start": 42.4565,
      "duration": 0.1308,
      "velocity": 120,
      "chip": "ym2612"
    },
    {
      "channel": 2,
      "note": 45,
      "start": 42.457,
      "duration": 0.1304,
      "velocity": 107,
      "chip": "ym2612"
    },
    {
      "channel": 3,
      "note": 50,
      "start": 42.4574,
      "duration": 0.13,
      "velocity": 120,
      "chip": "ym2612"
    },
    {
      "channel": 5,
      "note": 103,
      "start": 42.4579,
      "duration": 0.2634,
      "velocity": 127,
      "chip": "ym2612"
    },
    {
      "channel": 1,
      "note": 57,
      "start": 42.6575,
      "duration": 0.1308,
      "velocity": 120,
      "chip": "ym2612"
    },
    {
      "channel": 0,
      "note": 67,
      "start": 42.7243,
      "duration": 0.067,
      "velocity": 120,
      "chip": "ym2612"
    },
    {
      "channel": 2,
      "note": 55,
      "start": 42.7248,
      "duration": 0.0666,
      "velocity": 107,
      "chip": "ym2612"
    },
    {
      "channel": 3,
      "note": 61,
      "start": 42.7253,
      "duration": 0.0663,
      "velocity": 120,
      "chip": "ym2612"
    },
    {
      "channel": 5,
      "note": 103,
      "start": 42.7257,
      "duration": 0.3975,
      "velocity": 127,
      "chip": "ym2612"
    },
    {
      "channel": 0,
      "note": 69,
      "start": 42.792,
      "duration": 0.4658,
      "velocity": 120,
      "chip": "ym2612"
    },
    {
      "channel": 2,
      "note": 57,
      "start": 42.7924,
      "duration": 0.0656,
      "velocity": 107,
      "chip": "ym2612"
    },
    {
      "channel": 3,
      "note": 62,
      "start": 42.7929,
      "duration": 0.4651,
      "velocity": 120,
      "chip": "ym2612"
    },
    {
      "channel": 2,
      "note": 56,
      "start": 42.8585,
      "duration": 0.3995,
      "velocity": 107,
      "chip": "ym2612"
    },
    {
      "channel": 1,
      "note": 67,
      "start": 42.9254,
      "duration": 0.0666,
      "velocity": 120,
      "chip": "ym2612"
    },
    {
      "channel": 1,
      "note": 69,
      "start": 42.9924,
      "duration": 0.4663,
      "velocity": 120,
      "chip": "ym2612"
    },
    {
      "channel": 5,
      "note": 103,
      "start": 43.1263,
      "duration": 0.2655,
      "velocity": 127,
      "chip": "ym2612"
    },
    {
      "channel": 0,
      "note": 67,
      "start": 43.261,
      "duration": 0.6667,
      "velocity": 120,
      "chip": "ym2612"
    },
    {
      "channel": 2,
      "note": 55,
      "start": 43.2614,
      "duration": 0.6663,
      "velocity": 107,
      "chip": "ym2612"
    },
    {
      "channel": 3,
      "note": 60,
      "start": 43.2619,
      "duration": 0.6661,
      "velocity": 120,
      "chip": "ym2612"
    },
    {
      "channel": 5,
      "note": 103,
      "start": 43.3949,
      "duration": 0.1308,
      "velocity": 127,
      "chip": "ym2612"
    },
    {
      "channel": 1,
      "note": 67,
      "start": 43.4619,
      "duration": 0.4662,
      "velocity": 120,
      "chip": "ym2612"
    },
    {
      "channel": 5,
      "note": 103,
      "start": 43.529,
      "duration": 0.3989,
      "velocity": 127,
      "chip": "ym2612"
    },
    {
      "channel": 0,
      "note": 61,
      "start": 43.9318,
      "duration": 0.0656,
      "velocity": 120,
      "chip": "ym2612"
    },
    {
      "channel": 2,
      "note": 48,
      "start": 43.9325,
      "duration": 0.129,
      "velocity": 107,
      "chip": "ym2612"
    },
    {
      "channel": 5,
      "note": 99,
      "start": 43.936,
      "duration": 0.1256,
      "velocity": 115,
      "chip": "ym2612"
    },
    {
      "channel": 0,
      "note": 62,
      "start": 43.9979,
      "duration": 0.5995,
      "velocity": 120,
      "chip": "ym2612"
    },
    {
      "channel": 2,
      "note": 50,
      "start": 44.0648,
      "duration": 0.1308,
      "velocity": 107,
      "chip": "ym2612"
    },
    {
      "channel": 3,
      "note": 62,
      "start": 44.0652,
      "duration": 0.2642,
      "velocity": 97,
      "chip": "ym2612"
    },
    {
      "channel": 4,
      "note": 53,
      "start": 44.0657,
      "duration": 0.0963,
      "velocity": 97,
      "chip": "ym2612"
    },
    {
      "channel": 5,
      "note": 99,
      "start": 44.0662,
      "duration": 0.1295,
      "velocity": 115,
      "chip": "ym2612"
    },
    {
      "channel": 1,
      "note": 61,
      "start": 44.133,
      "duration": 0.0652,
      "velocity": 120,
      "chip": "ym2612"
    },
    {
      "channel": 1,
      "note": 62,
      "start": 44.1987,
      "duration": 0.5995,
      "velocity": 120,
      "chip": "ym2612"
    },
    {
      "channel": 2,
      "note": 50,
      "start": 44.1991,
      "duration": 0.1304,
      "velocity": 107,
      "chip": "ym2612"
    },
    {
      "channel": 5,
      "note": 99,
      "start": 44.1996,
      "duration": 0.13,
      "velocity": 115,
      "chip": "ym2612"
    },
    {
      "channel": 2,
      "note": 50,
      "start": 44.3327,
      "duration": 0.1305,
      "velocity": 107,
      "chip": "ym2612"
    },
    {
      "channel": 3,
      "note": 64,
      "start": 44.3332,
      "duration": 0.1302,
      "velocity": 97,
      "chip": "ym2612"
    },
    {
      "channel": 4,
      "note": 55,
      "start": 44.3337,
      "duration": 0.0459,
      "velocity": 97,
      "chip": "ym2612"
    },
    {
      "channel": 5,
      "note": 99,
      "start": 44.3343,
      "duration": 0.1292,
      "velocity": 115,
      "chip": "ym2612"
    },
    {
      "channel": 2,
      "note": 50,
      "start": 44.4666,
      "duration": 0.1309,
      "velocity": 107,
      "chip": "ym2612"
    },
    {
      "channel": 5,
      "note": 99,
      "start": 44.4671,
      "duration": 0.1305,
      "velocity": 115,
      "chip": "ym2612"
    },
    {
      "channel": 0,
      "note": 69,
      "start": 44.6003,
      "duration": 0.1308,
      "velocity": 120,
      "chip": "ym2612"
    },
    {
      "channel": 2,
      "note": 50,
      "start": 44.6008,
      "duration": 0.1304,
      "velocity": 107,
      "chip": "ym2612"
    },
    {
      "channel": 3,
      "note": 65,
      "start": 44.6012,
      "duration": 0.1301,
      "velocity": 97,
      "chip": "ym2612"
    },
    {
      "channel": 4,
      "note": 57,
      "start": 44.6017,
      "duration": 0.0457,
      "velocity": 97,
      "chip": "ym2612"
    },
    {
      "channel": 5,
      "note": 99,
      "start": 44.6034,
      "duration": 0.128,
      "velocity": 112,
      "chip": "ym2612"
    },
    {
      "channel": 2,
      "note": 48,
      "start": 44.7343,
      "duration": 0.1307,
      "velocity": 107,
      "chip": "ym2612"
    },
    {
      "channel": 3,
      "note": 67,
      "start": 44.7348,
      "duration": 0.1303,
      "velocity": 97,
      "chip": "ym2612"
    },
    {
      "channel": 4,
      "note": 58,
      "start": 44.7352,
      "duration": 0.0461,
      "velocity": 97,
      "chip": "ym2612"
    },
    {
      "channel": 5,
      "note": 99,
      "start": 44.7367,
      "duration": 0.1285,
      "velocity": 115,
      "chip": "ym2612"
    },
    {
      "channel": 1,
      "note": 69,
      "start": 44.8013,
      "duration": 0.1307,
      "velocity": 120,
      "chip": "ym2612"
    },
    {
      "channel": 0,
      "note": 68,
      "start": 44.8682,
      "duration": 0.8004,
      "velocity": 120,
      "chip": "ym2612"
    },
    {
      "channel": 2,
      "note": 52,
      "start": 44.8687,
      "duration": 0.2643,
      "velocity": 107,
      "chip": "ym2612"
    },
    {
      "channel": 3,
      "note": 68,
      "start": 44.8692,
      "duration": 0.7996,
      "velocity": 97,
      "chip": "ym2612"
    },
    {
      "channel": 4,
      "note": 64,
      "start": 44.8696,
      "duration": 0.4641,
      "velocity": 97,
      "chip": "ym2612"
    },
    {
      "channel": 5,
      "note": 99,
      "start": 44.8702,
      "duration": 0.1289,
      "velocity": 115,
      "chip": "ym2612"
    },
    {
      "channel": 5,
      "note": 99,
      "start": 45.0024,
      "duration": 0.1305,
      "velocity": 115,
      "chip": "ym2612"
    },
    {
      "channel": 1,
      "note": 68,
      "start": 45.0691,
      "duration": 0.8003,
      "velocity": 120,
      "chip": "ym2612"
    },
    {
      "channel": 2,
      "note": 52,
      "start": 45.136,
      "duration": 0.1309,
      "velocity": 107,
      "chip": "ym2612"
    },
    {
      "channel": 5,
      "note": 99,
      "start": 45.1365,
      "duration": 0.1305,
      "velocity": 115,
      "chip": "ym2612"
    },
    {
      "channel": 2,
      "note": 52,
      "start": 45.2699,
      "duration": 0.1309,
      "velocity": 107,
      "chip": "ym2612"
    },
    {
      "channel": 5,
      "note": 99,
      "start": 45.2704,
      "duration": 0.1305,
      "velocity": 115,
      "chip": "ym2612"
    },
    {
      "channel": 2,
      "note": 52,
      "start": 45.4038,
      "duration": 0.1309,
      "velocity": 107,
      "chip": "ym2612"
    },
    {
      "channel": 5,
      "note": 99,
      "start": 45.4044,
      "duration": 0.1304,
      "velocity": 115,
      "chip": "ym2612"
    },
    {
      "channel": 2,
      "note": 52,
      "start": 45.5378,
      "duration": 0.1309,
      "velocity": 107,
      "chip": "ym2612"
    },
    {
      "channel": 5,
      "note": 99,
      "start": 45.5383,
      "duration": 0.1305,
      "velocity": 115,
      "chip": "ym2612"
    },
    {
      "channel": 0,
      "note": 64,
      "start": 45.6717,
      "duration": 0.1308,
      "velocity": 120,
      "chip": "ym2612"
    },
    {
      "channel": 2,
      "note": 52,
      "start": 45.6724,
      "duration": 0.1302,
      "velocity": 107,
      "chip": "ym2612"
    },
    {
      "channel": 3,
      "note": 70,
      "start": 45.6729,
      "duration": 0.1299,
      "velocity": 97,
      "chip": "ym2612"
    },
    {
      "channel": 4,
      "note": 64,
      "start": 45.6733,
      "duration": 0.0454,
      "velocity": 97,
      "chip": "ym2612"
    },
    {
      "channel": 5,
      "note": 99,
      "start": 45.6749,
      "duration": 0.1279,
      "velocity": 112,
      "chip": "ym2612"
    },
    {
      "channel": 0,
      "note": 66,
      "start": 45.8056,
      "duration": 0.1308,
      "velocity": 120,
      "chip": "ym2612"
    },
    {
      "channel": 2,
      "note": 52,
      "start": 45.8062,
      "duration": 0.1303,
      "velocity": 107,
      "chip": "ym2612"
    },
    {
      "channel": 3,
      "note": 69,
      "start": 45.8066,
      "duration": 0.1299,
      "velocity": 97,
      "chip": "ym2612"
    },
    {
      "channel": 4,
      "note": 62,
      "start": 45.8071,
      "duration": 0.0456,
      "velocity": 97,
      "chip": "ym2612"
    },
    {
      "channel": 5,
      "note": 99,
      "start": 45.8085,
      "duration": 0.1281,
      "velocity": 115,
      "chip": "ym2612"
    },
    {
      "channel": 1,
      "note": 64,
      "start": 45.8728,
      "duration": 0.1305,
      "velocity": 120,
      "chip": "ym2612"
    },
    {
      "channel": 0,
      "note": 67,
      "start": 45.9395,
      "duration": 0.8005,
      "velocity": 120,
      "chip": "ym2612"
    },
    {
      "channel": 2,
      "note": 55,
      "start": 45.94,
      "duration": 0.2642,
      "velocity": 107,
      "chip": "ym2612"
    },
    {
      "channel": 3,
      "note": 67,
      "start": 45.9404,
      "duration": 0.7998,
      "velocity": 97,
      "chip": "ym2612"
    },
    {
      "channel": 4,
      "note": 62,
      "start": 45.9409,
      "duration": 0.4642,
      "velocity": 97,
      "chip": "ym2612"
    },
    {
      "channel": 5,
      "note": 99,
      "start": 45.9414,
      "duration": 0.129,
      "velocity": 115,
      "chip": "ym2612"
    },
    {
      "channel": 1,
      "note": 66,
      "start": 46.0066,
      "duration": 0.1307,
      "velocity": 120,
      "chip": "ym2612"
    },
    {
      "channel": 5,
      "note": 99,
      "start": 46.0735,
      "duration": 0.1308,
      "velocity": 115,
      "chip": "ym2612"
    },
    {
      "channel": 1,
      "note": 67,
      "start": 46.1405,
      "duration": 0.8003,
      "velocity": 120,
      "chip": "ym2612"
    },
    {
      "channel": 2,
      "note": 55,
      "start": 46.2075,
      "duration": 0.1308,
      "velocity": 107,
      "chip": "ym2612"
    },
    {
      "channel": 5,
      "note": 99,
      "start": 46.208,
      "duration": 0.1304,
      "velocity": 115,
      "chip": "ym2612"
    },
    {
      "channel": 2,
      "note": 55,
      "start": 46.3414,
      "duration": 0.1307,
      "velocity": 107,
      "chip": "ym2612"
    },
    {
      "channel": 5,
      "note": 99,
      "start": 46.3419,
      "duration": 0.1305,
      "velocity": 115,
      "chip": "ym2612"
    },
    {
      "channel": 2,
      "note": 55,
      "start": 46.4753,
      "duration": 0.1306,
      "velocity": 107,
      "chip": "ym2612"
    },
    {
      "channel": 5,
      "note": 99,
      "start": 46.4758,
      "duration": 0.1302,
      "velocity": 115,
      "chip": "ym2612"
    },
    {
      "channel": 2,
      "note": 55,
      "start": 46.6091,
      "duration": 0.131,
      "velocity": 107,
      "chip": "ym2612"
    },
    {
      "channel": 5,
      "note": 99,
      "start": 46.6096,
      "duration": 0.1307,
      "velocity": 115,
      "chip": "ym2612"
    },
    {
      "channel": 0,
      "note": 68,
      "start": 46.743,
      "duration": 0.0667,
      "velocity": 120,
      "chip": "ym2612"
    },
    {
      "channel": 2,
      "note": 55,
      "start": 46.7436,
      "duration": 0.1302,
      "velocity": 107,
      "chip": "ym2612"
    },
    {
      "channel": 3,
      "note": 69,
      "start": 46.7441,
      "duration": 0.1299,
      "velocity": 97,
      "chip": "ym2612"
    },
    {
      "channel": 4,
      "note": 62,
      "start": 46.7445,
      "duration": 0.0456,
      "velocity": 97,
      "chip": "ym2612"
    },
    {
      "channel": 5,
      "note": 99,
      "start": 46.746,
      "duration": 0.1281,
      "velocity": 112,
      "chip": "ym2612"
    },
    {
      "channel": 0,
      "note": 69,
      "start": 46.8102,
      "duration": 0.1976,
      "velocity": 120,
      "chip": "ym2612"
    },
    {
      "channel": 2,
      "note": 55,
      "start": 46.877,
      "duration": 0.131,
      "velocity": 107,
      "chip": "ym2612"
    },
    {
      "channel": 3,
      "note": 67,
      "start": 46.8774,
      "duration": 0.1306,
      "velocity": 97,
      "chip": "ym2612"
    },
    {
      "channel": 4,
      "note": 60,
      "start": 46.8779,
      "duration": 0.0462,
      "velocity": 97,
      "chip": "ym2612"
    },
    {
      "channel": 5,
      "note": 99,
      "start": 46.8793,
      "duration": 0.1288,
      "velocity": 115,
      "chip": "ym2612"
    },
    {
      "channel": 1,
      "note": 68,
      "start": 46.944,
      "duration": 0.0666,
      "velocity": 120,
      "chip": "ym2612"
    },
    {
      "channel": 0,
      "note": 65,
      "start": 47.011,
      "duration": 0.3985,
      "velocity": 120,
      "chip": "ym2612"
    },
    {
      "channel": 1,
      "note": 69,
      "start": 47.0115,
      "duration": 0.1973,
      "velocity": 120,
      "chip": "ym2612"
    },
    {
      "channel": 2,
      "note": 53,
      "start": 47.0119,
      "duration": 0.2637,
      "velocity": 107,
      "chip": "ym2612"
    },
    {
      "channel": 3,
      "note": 65,
      "start": 47.0126,
      "duration": 0.531,
      "velocity": 97,
      "chip": "ym2612"
    },
    {
      "channel": 4,
      "note": 57,
      "start": 47.0131,
      "duration": 0.2795,
      "velocity": 97,
      "chip": "ym2612"
    },
    {
      "channel": 5,
      "note": 99,
      "start": 47.0137,
      "duration": 0.128,
      "velocity": 115,
      "chip": "ym2612"
    },
    {
      "channel": 5,
      "note": 99,
      "start": 47.1449,
      "duration": 0.1308,
      "velocity": 115,
      "chip": "ym2612"
    },
    {
      "channel": 1,
      "note": 65,
      "start": 47.2119,
      "duration": 0.3985,
      "velocity": 120,
      "chip": "ym2612"
    },
    {
      "channel": 2,
      "note": 65,
      "start": 47.2789,
      "duration": 0.1307,
      "velocity": 107,
      "chip": "ym2612"
    },
    {
      "channel": 5,
      "note": 99,
      "start": 47.2794,
      "duration": 0.1303,
      "velocity": 115,
      "chip": "ym2612"
    },
    {
      "channel": 0,
      "note": 64,
      "start": 47.4129,
      "duration": 0.1305,
      "velocity": 120,
      "chip": "ym2612"
    },
    {
      "channel": 2,
      "note": 50,
      "start": 47.4133,
      "duration": 0.1302,
      "velocity": 107,
      "chip": "ym2612"
    },
    {
      "channel": 5,
      "note": 99,
      "start": 47.4139,
      "duration": 0.1298,
      "velocity": 115,
      "chip": "ym2612"
    },
    {
      "channel": 0,
      "note": 62,
      "start": 47.5466,
      "duration": 0.6665,
      "velocity": 120,
      "chip": "ym2612"
    },
    {
      "channel": 2,
      "note": 50,
      "start": 47.547,
      "duration": 0.1304,
      "velocity": 107,
      "chip": "ym2612"
    },
    {
      "channel": 3,
      "note": 69,
      "start": 47.5475,
      "duration": 0.6658,
      "velocity": 97,
      "chip": "ym2612"
    },
    {
      "channel": 4,
      "note": 53,
      "start": 47.5479,
      "duration": 0.3303,
      "velocity": 97,
      "chip": "ym2612"
    },
    {
      "channel": 5,
      "note": 99,
      "start": 47.5484,
      "duration": 0.1292,
      "velocity": 115,
      "chip": "ym2612"
    },
    {
      "channel": 1,
      "note": 64,
      "start": 47.6135,
      "duration": 0.1308,
      "velocity": 120,
      "chip": "ym2612"
    },
    {
      "channel": 2,
      "note": 50,
      "start": 47.6805,
      "duration": 0.1309,
      "velocity": 107,
      "chip": "ym2612"
    },
    {
      "channel": 5,
      "note": 99,
      "start": 47.6811,
      "duration": 0.1304,
      "velocity": 115,
      "chip": "ym2612"
    },
    {
      "channel": 1,
      "note": 62,
      "start": 47.7475,
      "duration": 0.4656,
      "velocity": 120,
      "chip": "ym2612"
    },
    {
      "channel": 2,
      "note": 50,
      "start": 47.8144,
      "duration": 0.1308,
      "velocity": 107,
      "chip": "ym2612"
    },
    {
      "channel": 5,
      "note": 99,
      "start": 47.8157,
      "duration": 0.1296,
      "velocity": 112,
      "chip": "ym2612"
    },
    {
      "channel": 2,
      "note": 62,
      "start": 47.9483,
      "duration": 0.1309,
      "velocity": 107,
      "chip": "ym2612"
    },
    {
      "channel": 5,
      "note": 99,
      "start": 47.9497,
      "duration": 0.1296,
      "velocity": 115,
      "chip": "ym2612"
    },
    {
      "channel": 2,
      "note": 50,
      "start": 48.0825,
      "duration": 0.1307,
      "velocity": 107,
      "chip": "ym2612"
    },
    {
      "channel": 5,
      "note": 99,
      "start": 48.083,
      "duration": 0.1304,
      "velocity": 115,
      "chip": "ym2612"
    },
    {
      "channel": 0,
      "note": 61,
      "start": 48.2172,
      "duration": 0.0656,
      "velocity": 120,
      "chip": "ym2612"
    },
    {
      "channel": 2,
      "note": 48,
      "start": 48.2177,
      "duration": 0.1293,
      "velocity": 107,
      "chip": "ym2612"
    },
    {
      "channel": 5,
      "note": 99,
      "start": 48.2191,
      "duration": 0.1279,
      "velocity": 115,
      "chip": "ym2612"
    },
    {
      "channel": 0,
      "note": 62,
      "start": 48.2833,
      "duration": 0.5993,
      "velocity": 120,
      "chip": "ym2612"
    },
    {
      "channel": 2,
      "note": 50,
      "start": 48.3502,
      "duration": 0.1308,
      "velocity": 107,
      "chip": "ym2612"
    },
    {
      "channel": 3,
      "note": 62,
      "start": 48.3506,
      "duration": 0.2641,
      "velocity": 97,
      "chip": "ym2612"
    },
    {
      "channel": 4,
      "note": 53,
      "start": 48.3511,
      "duration": 0.0963,
      "velocity": 97,
      "chip": "ym2612"
    },
    {
      "channel": 5,
      "note": 99,
      "start": 48.3516,
      "duration": 0.1295,
      "velocity": 115,
      "chip": "ym2612"
    },
    {
      "channel": 1,
      "note": 61,
      "start": 48.4181,
      "duration": 0.0656,
      "velocity": 120,
      "chip": "ym2612"
    },
    {
      "channel": 1,
      "note": 62,
      "start": 48.4841,
      "duration": 0.5995,
      "velocity": 120,
      "chip": "ym2612"
    },
    {
      "channel": 2,
      "note": 50,
      "start": 48.4846,
      "duration": 0.1303,
      "velocity": 107,
      "chip": "ym2612"
    },
    {
      "channel": 5,
      "note": 99,
      "start": 48.4851,
      "duration": 0.1299,
      "velocity": 115,
      "chip": "ym2612"
    },
    {
      "channel": 2,
      "note": 50,
      "start": 48.6179,
      "duration": 0.1309,
      "velocity": 107,
      "chip": "ym2612"
    },
    {
      "channel": 3,
      "note": 64,
      "start": 48.6185,
      "duration": 0.1304,
      "velocity": 97,
      "chip": "ym2612"
    },
    {
      "channel": 4,
      "note": 55,
      "start": 48.6189,
      "duration": 0.0461,
      "velocity": 97,
      "chip": "ym2612"
    },
    {
      "channel": 5,
      "note": 99,
      "start": 48.6195,
      "duration": 0.1296,
      "velocity": 115,
      "chip": "ym2612"
    },
    {
      "channel": 2,
      "note": 50,
      "start": 48.7519,
      "duration": 0.1308,
      "velocity": 107,
      "chip": "ym2612"
    },
    {
      "channel": 5,
      "note": 99,
      "start": 48.7527,
      "duration": 0.1301,
      "velocity": 115,
      "chip": "ym2612"
    },
    {
      "channel": 0,
      "note": 69,
      "start": 48.8858,
      "duration": 0.1309,
      "velocity": 120,
      "chip": "ym2612"
    },
    {
      "channel": 2,
      "note": 50,
      "start": 48.8862,
      "duration": 0.1305,
      "velocity": 107,
      "chip": "ym2612"
    },
    {
      "channel": 3,
      "note": 65,
      "start": 48.8867,
      "duration": 0.1302,
      "velocity": 97,
      "chip": "ym2612"
    },
    {
      "channel": 4,
      "note": 57,
      "start": 48.8871,
      "duration": 0.0457,
      "velocity": 97,
      "chip": "ym2612"
    },
    {
      "channel": 5,
      "note": 99,
      "start": 48.8886,
      "duration": 0.1283,
      "velocity": 112,
      "chip": "ym2612"
    },
    {
      "channel": 2,
      "note": 48,
      "start": 49.0197,
      "duration": 0.1337,
      "velocity": 107,
      "chip": "ym2612"
    },
    {
      "channel": 3,
      "note": 67,
      "start": 49.0202,
      "duration": 0.1334,
      "velocity": 97,
      "chip": "ym2612"
    },
    {
      "channel": 4,
      "note": 58,
      "start": 49.0206,
      "duration": 0.0461,
      "velocity": 97,
      "chip": "ym2612"
    },
    {
      "channel": 5,
      "note": 99,
      "start": 49.0224,
      "duration": 0.1312,
      "velocity": 115,
      "chip": "ym2612"
    },
    {
      "channel": 1,
      "note": 69,
      "start": 49.0867,
      "duration": 0.1335,
      "velocity": 120,
      "chip": "ym2612"
    },
    {
      "channel": 0,
      "note": 68,
      "start": 49.1565,
      "duration": 0.8003,
      "velocity": 120,
      "chip": "ym2612"
    },
    {
      "channel": 2,
      "note": 52,
      "start": 49.1569,
      "duration": 0.2643,
      "velocity": 107,
      "chip": "ym2612"
    },
    {
      "channel": 3,
      "note": 68,
      "start": 49.1574,
      "duration": 0.7997,
      "velocity": 97,
      "chip": "ym2612"
    },
    {
      "channel": 4,
      "note": 64,
      "start": 49.1578,
      "duration": 0.4642,
      "velocity": 97,
      "chip": "ym2612"
    },
    {
      "channel": 5,
      "note": 99,
      "start": 49.1584,
      "duration": 0.129,
      "velocity": 115,
      "chip": "ym2612"
    },
    {
      "channel": 5,
      "note": 99,
      "start": 49.2904,
      "duration": 0.1308,
      "velocity": 115,
      "chip": "ym2612"
    },
    {
      "channel": 1,
      "note": 68,
      "start": 49.3573,
      "duration": 0.8004,
      "velocity": 120,
      "chip": "ym2612"
    },
    {
      "channel": 2,
      "note": 52,
      "start": 49.4243,
      "duration": 0.1307,
      "velocity": 107,
      "chip": "ym2612"
    },
    {
      "channel": 5,
      "note": 99,
      "start": 49.4249,
      "duration": 0.1302,
      "velocity": 115,
      "chip": "ym2612"
    },
    {
      "channel": 2,
      "note": 52,
      "start": 49.5581,
      "duration": 0.1308,
      "velocity": 107,
      "chip": "ym2612"
    },
    {
      "channel": 5,
      "note": 99,
      "start": 49.5587,
      "duration": 0.1304,
      "velocity": 115,
      "chip": "ym2612"
    },
    {
      "channel": 2,
      "note": 52,
      "start": 49.6921,
      "duration": 0.1308,
      "velocity": 107,
      "chip": "ym2612"
    },
    {
      "channel": 5,
      "note": 99,
      "start": 49.6928,
      "duration": 0.1301,
      "velocity": 115,
      "chip": "ym2612"
    },
    {
      "channel": 2,
      "note": 52,
      "start": 49.826,
      "duration": 0.1309,
      "velocity": 107,
      "chip": "ym2612"
    },
    {
      "channel": 5,
      "note": 99,
      "start": 49.8265,
      "duration": 0.1305,
      "velocity": 115,
      "chip": "ym2612"
    },
    {
      "channel": 0,
      "note": 64,
      "start": 49.9599,
      "duration": 0.1309,
      "velocity": 120,
      "chip": "ym2612"
    },
    {
      "channel": 2,
      "note": 52,
      "start": 49.9604,
      "duration": 0.1305,
      "velocity": 107,
      "chip": "ym2612"
    },
    {
      "channel": 3,
      "note": 70,
      "start": 49.9608,
      "duration": 0.1302,
      "velocity": 97,
      "chip": "ym2612"
    },
    {
      "channel": 4,
      "note": 64,
      "start": 49.9613,
      "duration": 0.0457,
      "velocity": 97,
      "chip": "ym2612"
    },
    {
      "channel": 5,
      "note": 99,
      "start": 49.9632,
      "duration": 0.1279,
      "velocity": 112,
      "chip": "ym2612"
    },
    {
      "channel": 0,
      "note": 66,
      "start": 50.0938,
      "duration": 0.1308,
      "velocity": 120,
      "chip": "ym2612"
    },
    {
      "channel": 2,
      "note": 52,
      "start": 50.0943,
      "duration": 0.1304,
      "velocity": 107,
      "chip": "ym2612"
    },
    {
      "channel": 3,
      "note": 69,
      "start": 50.0948,
      "duration": 0.13,
      "velocity": 97,
      "chip": "ym2612"
    },
    {
      "channel": 4,
      "note": 62,
      "start": 50.0952,
      "duration": 0.0461,
      "velocity": 97,
      "chip": "ym2612"
    },
    {
      "channel": 5,
      "note": 99,
      "start": 50.0967,
      "duration": 0.1282,
      "velocity": 115,
      "chip": "ym2612"
    },
    {
      "channel": 1,
      "note": 64,
      "start": 50.1609,
      "duration": 0.1307,
      "velocity": 120,
      "chip": "ym2612"
    },
    {
      "channel": 0,
      "note": 67,
      "start": 50.2278,
      "duration": 0.8005,
      "velocity": 120,
      "chip": "ym2612"
    },
    {
      "channel": 2,
      "note": 55,
      "start": 50.2282,
      "duration": 0.2643,
      "velocity": 107,
      "chip": "ym2612"
    },
    {
      "channel": 3,
      "note": 67,
      "start": 50.2287,
      "duration": 0.7998,
      "velocity": 97,
      "chip": "ym2612"
    },
    {
      "channel": 4,
      "note": 62,
      "start": 50.2291,
      "duration": 0.4642,
      "velocity": 97,
      "chip": "ym2612"
    },
    {
      "channel": 5,
      "note": 99,
      "start": 50.2296,
      "duration": 0.129,
      "velocity": 115,
      "chip": "ym2612"
    },
    {
      "channel": 1,
      "note": 66,
      "start": 50.2947,
      "duration": 0.1309,
      "velocity": 120,
      "chip": "ym2612"
    },
    {
      "channel": 5,
      "note": 99,
      "start": 50.3617,
      "duration": 0.1309,
      "velocity": 115,
      "chip": "ym2612"
    },
    {
      "channel": 1,
      "note": 67,
      "start": 50.4287,
      "duration": 0.8003,
      "velocity": 120,
      "chip": "ym2612"
    },
    {
      "channel": 2,
      "note": 55,
      "start": 50.4956,
      "duration": 0.1308,
      "velocity": 107,
      "chip": "ym2612"
    },
    {
      "channel": 5,
      "note": 99,
      "start": 50.4961,
      "duration": 0.1304,
      "velocity": 115,
      "chip": "ym2612"
    },
    {
      "channel": 2,
      "note": 55,
      "start": 50.6295,
      "duration": 0.1309,
      "velocity": 107,
      "chip": "ym2612"
    },
    {
      "channel": 5,
      "note": 99,
      "start": 50.63,
      "duration": 0.1305,
      "velocity": 115,
      "chip": "ym2612"
    },
    {
      "channel": 2,
      "note": 55,
      "start": 50.7635,
      "duration": 0.1308,
      "velocity": 107,
      "chip": "ym2612"
    },
    {
      "channel": 5,
      "note": 99,
      "start": 50.764,
      "duration": 0.1304,
      "velocity": 115,
      "chip": "ym2612"
    },
    {
      "channel": 2,
      "note": 55,
      "start": 50.8973,
      "duration": 0.131,
      "velocity": 107,
      "chip": "ym2612"
    },
    {
      "channel": 5,
      "note": 99,
      "start": 50.8979,
      "duration": 0.1306,
      "velocity": 115,
      "chip": "ym2612"
    },
    {
      "channel": 0,
      "note": 68,
      "start": 51.0313,
      "duration": 0.0667,
      "velocity": 120,
      "chip": "ym2612"
    },
    {
      "channel": 2,
      "note": 55,
      "start": 51.0317,
      "duration": 0.1307,
      "velocity": 107,
      "chip": "ym2612"
    },
    {
      "channel": 3,
      "note": 69,
      "start": 51.0324,
      "duration": 0.1301,
      "velocity": 97,
      "chip": "ym2612"
    },
    {
      "channel": 4,
      "note": 62,
      "start": 51.0329,
      "duration": 0.0458,
      "velocity": 97,
      "chip": "ym2612"
    },
    {
      "channel": 5,
      "note": 99,
      "start": 51.0344,
      "duration": 0.1283,
      "velocity": 112,
      "chip": "ym2612"
    },
    {
      "channel": 0,
      "note": 69,
      "start": 51.0985,
      "duration": 0.1975,
      "velocity": 120,
      "chip": "ym2612"
    },
    {
      "channel": 2,
      "note": 55,
      "start": 51.1652,
      "duration": 0.1309,
      "velocity": 107,
      "chip": "ym2612"
    },
    {
      "channel": 3,
      "note": 67,
      "start": 51.1656,
      "duration": 0.1305,
      "velocity": 97,
      "chip": "ym2612"
    },
    {
      "channel": 4,
      "note": 60,
      "start": 51.1661,
      "duration": 0.0464,
      "velocity": 97,
      "chip": "ym2612"
    },
    {
      "channel": 5,
      "note": 99,
      "start": 51.1676,
      "duration": 0.1287,
      "velocity": 115,
      "chip": "ym2612"
    },
    {
      "channel": 1,
      "note": 68,
      "start": 51.2324,
      "duration": 0.0663,
      "velocity": 120,
      "chip": "ym2612"
    },
    {
      "channel": 0,
      "note": 65,
      "start": 51.2992,
      "duration": 0.3985,
      "velocity": 120,
      "chip": "ym2612"
    },
    {
      "channel": 1,
      "note": 69,
      "start": 51.2998,
      "duration": 0.1971,
      "velocity": 120,
      "chip": "ym2612"
    },
    {
      "channel": 2,
      "note": 53,
      "start": 51.3002,
      "duration": 0.2637,
      "velocity": 107,
      "chip": "ym2612"
    },
    {
      "channel": 3,
      "note": 65,
      "start": 51.3007,
      "duration": 0.5313,
      "velocity": 97,
      "chip": "ym2612"
    },
    {
      "channel": 4,
      "note": 57,
      "start": 51.3011,
      "duration": 0.2794,
      "velocity": 97,
      "chip": "ym2612"
    },
    {
      "channel": 5,
      "note": 99,
      "start": 51.3017,
      "duration": 0.1282,
      "velocity": 115,
      "chip": "ym2612"
    },
    {
      "channel": 5,
      "note": 99,
      "start": 51.4332,
      "duration": 0.1308,
      "velocity": 115,
      "chip": "ym2612"
    },
    {
      "channel": 1,
      "note": 65,
      "start": 51.5001,
      "duration": 0.3985,
      "velocity": 120,
      "chip": "ym2612"
    },
    {
      "channel": 2,
      "note": 65,
      "start": 51.5669,
      "duration": 0.1309,
      "velocity": 107,
      "chip": "ym2612"
    },
    {
      "channel": 5,
      "note": 99,
      "start": 51.5675,
      "duration": 0.1305,
      "velocity": 115,
      "chip": "ym2612"
    },
    {
      "channel": 0,
      "note": 67,
      "start": 51.7009,
      "duration": 0.1309,
      "velocity": 120,
      "chip": "ym2612"
    },
    {
      "channel": 2,
      "note": 50,
      "start": 51.7013,
      "duration": 0.1305,
      "velocity": 107,
      "chip": "ym2612"
    },
    {
      "channel": 5,
      "note": 99,
      "start": 51.7018,
      "duration": 0.1302,
      "velocity": 115,
      "chip": "ym2612"
    },
    {
      "channel": 0,
      "note": 69,
      "start": 51.8349,
      "duration": 0.6664,
      "velocity": 120,
      "chip": "ym2612"
    },
    {
      "channel": 2,
      "note": 50,
      "start": 51.8353,
      "duration": 0.1302,
      "velocity": 107,
      "chip": "ym2612"
    },
    {
      "channel": 3,
      "note": 69,
      "start": 51.8358,
      "duration": 0.6657,
      "velocity": 97,
      "chip": "ym2612"
    },
    {
      "channel": 4,
      "note": 53,
      "start": 51.8362,
      "duration": 0.3303,
      "velocity": 97,
      "chip": "ym2612"
    },
    {
      "channel": 5,
      "note": 99,
      "start": 51.8368,
      "duration": 0.129,
      "velocity": 115,
      "chip": "ym2612"
    },
    {
      "channel": 1,
      "note": 67,
      "start": 51.9017,
      "duration": 0.1308,
      "velocity": 120,
      "chip": "ym2612"
    },
    {
      "channel": 2,
      "note": 50,
      "start": 51.9687,
      "duration": 0.1309,
      "velocity": 107,
      "chip": "ym2612"
    },
    {
      "channel": 5,
      "note": 99,
      "start": 51.9692,
      "duration": 0.1305,
      "velocity": 115,
      "chip": "ym2612"
    },
    {
      "channel": 1,
      "note": 69,
      "start": 52.0358,
      "duration": 0.4655,
      "velocity": 120,
      "chip": "ym2612"
    },
    {
      "channel": 2,
      "note": 50,
      "start": 52.1029,
      "duration": 0.1305,
      "velocity": 107,
      "chip": "ym2612"
    },
    {
      "channel": 5,
      "note": 99,
      "start": 52.1043,
      "duration": 0.1293,
      "velocity": 112,
      "chip": "ym2612"
    },
    {
      "channel": 2,
      "note": 62,
      "start": 52.2366,
      "duration": 0.1308,
      "velocity": 107,
      "chip": "ym2612"
    },
    {
      "channel": 5,
      "note": 99,
      "start": 52.238,
      "duration": 0.1294,
      "velocity": 115,
      "chip": "ym2612"
    },
    {
      "channel": 2,
      "note": 50,
      "start": 52.3705,
      "duration": 0.1309,
      "velocity": 107,
      "chip": "ym2612"
    },
    {
      "channel": 5,
      "note": 99,
      "start": 52.371,
      "duration": 0.1306,
      "velocity": 115,
      "chip": "ym2612"
    },
    {
      "channel": 0,
      "note": 69,
      "start": 52.5044,
      "duration": 0.0666,
      "velocity": 120,
      "chip": "ym2612"
    },
    {
      "channel": 2,
      "note": 55,
      "start": 52.5049,
      "duration": 0.1303,
      "velocity": 107,
      "chip": "ym2612"
    },
    {
      "channel": 3,
      "note": 67,
      "start": 52.5063,
      "duration": 0.6648,
      "velocity": 120,
      "chip": "ym2612"
    },
    {
      "channel": 5,
      "note": 103,
      "start": 52.5086,
      "duration": 0.2605,
      "velocity": 127,
      "chip": "ym2612"
    },
    {
      "channel": 0,
      "note": 70,
      "start": 52.5715,
      "duration": 0.5995,
      "velocity": 120,
      "chip": "ym2612"
    },
    {
      "channel": 2,
      "note": 55,
      "start": 52.6384,
      "duration": 0.1307,
      "velocity": 107,
      "chip": "ym2612"
    },
    {
      "channel": 4,
      "note": 62,
      "start": 52.6389,
      "duration": 0.0131,
      "velocity": 97,
      "chip": "ym2612"
    },
    {
      "channel": 1,
      "note": 69,
      "start": 52.7053,
      "duration": 0.0671,
      "velocity": 120,
      "chip": "ym2612"
    },
    {
      "channel": 4,
      "note": 62,
      "start": 52.7057,
      "duration": 0.0131,
      "velocity": 97,
      "chip": "ym2612"
    },
    {
      "channel": 1,
      "note": 70,
      "start": 52.7729,
      "duration": 0.5989,
      "velocity": 120,
      "chip": "ym2612"
    },
    {
      "channel": 2,
      "note": 55,
      "start": 52.7733,
      "duration": 0.1301,
      "velocity": 107,
      "chip": "ym2612"
    },
    {
      "channel": 4,
      "note": 65,
      "start": 52.7738,
      "duration": 0.0122,
      "velocity": 97,
      "chip": "ym2612"
    },
    {
      "channel": 5,
      "note": 103,
      "start": 52.7743,
      "duration": 0.2628,
      "velocity": 127,
      "chip": "ym2612"
    },
    {
      "channel": 4,
      "note": 65,
      "start": 52.8393,
      "duration": 0.0136,
      "velocity": 97,
      "chip": "ym2612"
    },
    {
      "channel": 2,
      "note": 55,
      "start": 52.9062,
      "duration": 0.1307,
      "velocity": 107,
      "chip": "ym2612"
    },
    {
      "channel": 4,
      "note": 62,
      "start": 52.9066,
      "duration": 0.0132,
      "velocity": 97,
      "chip": "ym2612"
    },
    {
      "channel": 4,
      "note": 62,
      "start": 52.9732,
      "duration": 0.0135,
      "velocity": 97,
      "chip": "ym2612"
    },
    {
      "channel": 2,
      "note": 55,
      "start": 53.0401,
      "duration": 0.1311,
      "velocity": 107,
      "chip": "ym2612"
    },
    {
      "channel": 4,
      "note": 72,
      "start": 53.0405,
      "duration": 0.0132,
      "velocity": 97,
      "chip": "ym2612"
    },
    {
      "channel": 5,
      "note": 103,
      "start": 53.041,
      "duration": 0.264,
      "velocity": 127,
      "chip": "ym2612"
    },
    {
      "channel": 4,
      "note": 72,
      "start": 53.1072,
      "duration": 0.0136,
      "velocity": 97,
      "chip": "ym2612"
    },
    {
      "channel": 0,
      "note": 72,
      "start": 53.174,
      "duration": 0.1308,
      "velocity": 120,
      "chip": "ym2612"
    },
    {
      "channel": 2,
      "note": 55,
      "start": 53.1746,
      "duration": 0.1303,
      "velocity": 107,
      "chip": "ym2612"
    },
    {
      "channel": 3,
      "note": 69,
      "start": 53.175,
      "duration": 0.13,
      "velocity": 120,
      "chip": "ym2612"
    },
    {
      "channel": 4,
      "note": 74,
      "start": 53.1755,
      "duration": 0.0121,
      "velocity": 97,
      "chip": "ym2612"
    },
    {
      "channel": 4,
      "note": 74,
      "start": 53.241,
      "duration": 0.0135,
      "velocity": 97,
      "chip": "ym2612"
    },
    {
      "channel": 0,
      "note": 74,
      "start": 53.3079,
      "duration": 0.1308,
      "velocity": 120,
      "chip": "ym2612"
    },
    {
      "channel": 2,
      "note": 55,
      "start": 53.3084,
      "duration": 0.1304,
      "velocity": 107,
      "chip": "ym2612"
    },
    {
      "channel": 3,
      "note": 70,
      "start": 53.3088,
      "duration": 0.13,
      "velocity": 120,
      "chip": "ym2612"
    },
    {
      "channel": 4,
      "note": 76,
      "start": 53.3093,
      "duration": 0.0124,
      "velocity": 97,
      "chip": "ym2612"
    },
    {
      "channel": 5,
      "note": 103,
      "start": 53.3098,
      "duration": 0.2629,
      "velocity": 127,
      "chip": "ym2612"
    },
    {
      "channel": 1,
      "note": 72,
      "start": 53.375,
      "duration": 0.1307,
      "velocity": 120,
      "chip": "ym2612"
    },
    {
      "channel": 4,
      "note": 76,
      "start": 53.3754,
      "duration": 0.0131,
      "velocity": 97,
      "chip": "ym2612"
    },
    {
      "channel": 0,
      "note": 72,
      "start": 53.4418,
      "duration": 0.5325,
      "velocity": 120,
      "chip": "ym2612"
    },
    {
      "channel": 2,
      "note": 57,
      "start": 53.4425,
      "duration": 0.264,
      "velocity": 107,
      "chip": "ym2612"
    },
    {
      "channel": 3,
      "note": 69,
      "start": 53.443,
      "duration": 0.5316,
      "velocity": 120,
      "chip": "ym2612"
    },
    {
      "channel": 4,
      "note": 72,
      "start": 53.4434,
      "duration": 0.012,
      "velocity": 97,
      "chip": "ym2612"
    },
    {
      "channel": 1,
      "note": 74,
      "start": 53.5088,
      "duration": 0.1308,
      "velocity": 120,
      "chip": "ym2612"
    },
    {
      "channel": 4,
      "note": 72,
      "start": 53.5093,
      "duration": 0.0133,
      "velocity": 97,
      "chip": "ym2612"
    },
    {
      "channel": 5,
      "note": 103,
      "start": 53.5758,
      "duration": 0.2648,
      "velocity": 127,
      "chip": "ym2612"
    },
    {
      "channel": 1,
      "note": 72,
      "start": 53.6428,
      "duration": 0.5325,
      "velocity": 120,
      "chip": "ym2612"
    },
    {
      "channel": 2,
      "note": 57,
      "start": 53.7097,
      "duration": 0.1308,
      "velocity": 107,
      "chip": "ym2612"
    },
    {
      "channel": 4,
      "note": 72,
      "start": 53.7101,
      "duration": 0.0132,
      "velocity": 97,
      "chip": "ym2612"
    },
    {
      "channel": 4,
      "note": 72,
      "start": 53.7766,
      "duration": 0.0137,
      "velocity": 97,
      "chip": "ym2612"
    },
    {
      "channel": 2,
      "note": 57,
      "start": 53.8437,
      "duration": 0.1308,
      "velocity": 107,
      "chip": "ym2612"
    },
    {
      "channel": 4,
      "note": 76,
      "start": 53.8441,
      "duration": 0.0131,
      "velocity": 97,
      "chip": "ym2612"
    },
    {
      "channel": 5,
      "note": 103,
      "start": 53.8446,
      "duration": 0.2638,
      "velocity": 127,
      "chip": "ym2612"
    },
    {
      "channel": 4,
      "note": 76,
      "start": 53.9107,
      "duration": 0.0134,
      "velocity": 97,
      "chip": "ym2612"
    },
    {
      "channel": 0,
      "note": 69,
      "start": 53.9775,
      "duration": 0.5325,
      "velocity": 120,
      "chip": "ym2612"
    },
    {
      "channel": 2,
      "note": 57,
      "start": 53.978,
      "duration": 0.1304,
      "velocity": 107,
      "chip": "ym2612"
    },
    {
      "channel": 3,
      "note": 64,
      "start": 53.9784,
      "duration": 0.5318,
      "velocity": 120,
      "chip": "ym2612"
    },
    {
      "channel": 4,
      "note": 72,
      "start": 53.9789,
      "duration": 0.0122,
      "velocity": 97,
      "chip": "ym2612"
    },
    {
      "channel": 4,
      "note": 72,
      "start": 54.0445,
      "duration": 0.0137,
      "velocity": 97,
      "chip": "ym2612"
    },
    {
      "channel": 2,
      "note": 57,
      "start": 54.1114,
      "duration": 0.1311,
      "velocity": 107,
      "chip": "ym2612"
    },
    {
      "channel": 4,
      "note": 81,
      "start": 54.112,
      "duration": 0.013,
      "velocity": 97,
      "chip": "ym2612"
    },
    {
      "channel": 5,
      "note": 103,
      "start": 54.1127,
      "duration": 0.2635,
      "velocity": 127,
      "chip": "ym2612"
    },
    {
      "channel": 1,
      "note": 69,
      "start": 54.1785,
      "duration": 0.5326,
      "velocity": 120,
      "chip": "ym2612"
    },
    {
      "channel": 4,
      "note": 81,
      "start": 54.1789,
      "duration": 0.0135,
      "velocity": 97,
      "chip": "ym2612"
    },
    {
      "channel": 2,
      "note": 57,
      "start": 54.2454,
      "duration": 0.1308,
      "velocity": 107,
      "chip": "ym2612"
    },
    {
      "channel": 4,
      "note": 72,
      "start": 54.2458,
      "duration": 0.0132,
      "velocity": 97,
      "chip": "ym2612"
    },
    {
      "channel": 4,
      "note": 72,
      "start": 54.3127,
      "duration": 0.0132,
      "velocity": 97,
      "chip": "ym2612"
    },
    {
      "channel": 2,
      "note": 57,
      "start": 54.3793,
      "duration": 0.1309,
      "velocity": 107,
      "chip": "ym2612"
    },
    {
      "channel": 4,
      "note": 74,
      "start": 54.3797,
      "duration": 0.0132,
      "velocity": 97,
      "chip": "ym2612"
    },
    {
      "channel": 5,
      "note": 103,
      "start": 54.3802,
      "duration": 0.2639,
      "velocity": 127,
      "chip": "ym2612"
    },
    {
      "channel": 4,
      "note": 74,
      "start": 54.4462,
      "duration": 0.0137,
      "velocity": 97,
      "chip": "ym2612"
    },
    {
      "channel": 0,
      "note": 67,
      "start": 54.5132,
      "duration": 0.8003,
      "velocity": 120,
      "chip": "ym2612"
    },
    {
      "channel": 2,
      "note": 58,
      "start": 54.5137,
      "duration": 0.2644,
      "velocity": 107,
      "chip": "ym2612"
    },
    {
      "channel": 3,
      "note": 62,
      "start": 54.5141,
      "duration": 0.7996,
      "velocity": 120,
      "chip": "ym2612"
    },
    {
      "channel": 4,
      "note": 76,
      "start": 54.5146,
      "duration": 0.0122,
      "velocity": 97,
      "chip": "ym2612"
    },
    {
      "channel": 4,
      "note": 76,
      "start": 54.5802,
      "duration": 0.0135,
      "velocity": 97,
      "chip": "ym2612"
    },
    {
      "channel": 5,
      "note": 103,
      "start": 54.6474,
      "duration": 0.2645,
      "velocity": 127,
      "chip": "ym2612"
    },
    {
      "channel": 1,
      "note": 67,
      "start": 54.7141,
      "duration": 0.8005,
      "velocity": 120,
      "chip": "ym2612"
    },
    {
      "channel": 2,
      "note": 58,
      "start": 54.781,
      "duration": 0.1308,
      "velocity": 107,
      "chip": "ym2612"
    },
    {
      "channel": 4,
      "note": 70,
      "start": 54.7815,
      "duration": 0.0131,
      "velocity": 97,
      "chip": "ym2612"
    },
    {
      "channel": 4,
      "note": 70,
      "start": 54.8481,
      "duration": 0.0136,
      "velocity": 97,
      "chip": "ym2612"
    },
    {
      "channel": 2,
      "note": 58,
      "start": 54.9149,
      "duration": 0.1308,
      "velocity": 107,
      "chip": "ym2612"
    },
    {
      "channel": 4,
      "note": 74,
      "start": 54.9154,
      "duration": 0.0139,
      "velocity": 97,
      "chip": "ym2612"
    },
    {
      "channel": 5,
      "note": 103,
      "start": 54.9159,
      "duration": 0.2639,
      "velocity": 127,
      "chip": "ym2612"
    },
    {
      "channel": 4,
      "note": 74,
      "start": 54.982,
      "duration": 0.0135,
      "velocity": 97,
      "chip": "ym2612"
    },
    {
      "channel": 2,
      "note": 58,
      "start": 55.0489,
      "duration": 0.1308,
      "velocity": 107,
      "chip": "ym2612"
    },
    {
      "channel": 4,
      "note": 70,
      "start": 55.0495,
      "duration": 0.0131,
      "velocity": 97,
      "chip": "ym2612"
    },
    {
      "channel": 4,
      "note": 70,
      "start": 55.1158,
      "duration": 0.0137,
      "velocity": 97,
      "chip": "ym2612"
    },
    {
      "channel": 2,
      "note": 58,
      "start": 55.1828,
      "duration": 0.1308,
      "velocity": 107,
      "chip": "ym2612"
    },
    {
      "channel": 4,
      "note": 79,
      "start": 55.1833,
      "duration": 0.0132,
      "velocity": 97,
      "chip": "ym2612"
    },
    {
      "channel": 5,
      "note": 103,
      "start": 55.1837,
      "duration": 0.264,
      "velocity": 127,
      "chip": "ym2612"
    },
    {
      "channel": 4,
      "note": 79,
      "start": 55.2499,
      "duration": 0.0135,
      "velocity": 97,
      "chip": "ym2612"
    },
    {
      "channel": 0,
      "note": 69,
      "start": 55.3167,
      "duration": 0.1308,
      "velocity": 120,
      "chip": "ym2612"
    },
    {
      "channel": 2,
      "note": 58,
      "start": 55.3172,
      "duration": 0.1304,
      "velocity": 107,
      "chip": "ym2612"
    },
    {
      "channel": 3,
      "note": 64,
      "start": 55.3176,
      "duration": 0.13,
      "velocity": 120,
      "chip": "ym2612"
    },
    {
      "channel": 4,
      "note": 70,
      "start": 55.3181,
      "duration": 0.0122,
      "velocity": 97,
      "chip": "ym2612"
    },
    {
      "channel": 4,
      "note": 70,
      "start": 55.3838,
      "duration": 0.0136,
      "velocity": 97,
      "chip": "ym2612"
    },
    {
      "channel": 0,
      "note": 70,
      "start": 55.4507,
      "duration": 0.1307,
      "velocity": 120,
      "chip": "ym2612"
    },
    {
      "channel": 2,
      "note": 58,
      "start": 55.4512,
      "duration": 0.1303,
      "velocity": 107,
      "chip": "ym2612"
    },
    {
      "channel": 3,
      "note": 65,
      "start": 55.4516,
      "duration": 0.13,
      "velocity": 120,
      "chip": "ym2612"
    },
    {
      "channel": 4,
      "note": 74,
      "start": 55.4524,
      "duration": 0.0118,
      "velocity": 97,
      "chip": "ym2612"
    },
    {
      "channel": 5,
      "note": 103,
      "start": 55.453,
      "duration": 0.2626,
      "velocity": 127,
      "chip": "ym2612"
    },
    {
      "channel": 1,
      "note": 69,
      "start": 55.5176,
      "duration": 0.1308,
      "velocity": 120,
      "chip": "ym2612"
    },
    {
      "channel": 4,
      "note": 74,
      "start": 55.518,
      "duration": 0.0132,
      "velocity": 97,
      "chip": "ym2612"
    },
    {
      "channel": 0,
      "note": 69,
      "start": 55.5849,
      "duration": 1.2018,
      "velocity": 120,
      "chip": "ym2612"
    },
    {
      "channel": 2,
      "note": 57,
      "start": 55.5854,
      "duration": 0.264,
      "velocity": 107,
      "chip": "ym2612"
    },
    {
      "channel": 3,
      "note": 64,
      "start": 55.5858,
      "duration": 1.2012,
      "velocity": 120,
      "chip": "ym2612"
    },
    {
      "channel": 4,
      "note": 69,
      "start": 55.5863,
      "duration": 0.0119,
      "velocity": 97,
      "chip": "ym2612"
    },
    {
      "channel": 1,
      "note": 70,
      "start": 55.6516,
      "duration": 0.1309,
      "velocity": 120,
      "chip": "ym2612"
    },
    {
      "channel": 4,
      "note": 69,
      "start": 55.6521,
      "duration": 0.013,
      "velocity": 97,
      "chip": "ym2612"
    },
    {
      "channel": 5,
      "note": 103,
      "start": 55.7185,
      "duration": 0.2648,
      "velocity": 127,
      "chip": "ym2612"
    },
    {
      "channel": 1,
      "note": 69,
      "start": 55.7855,
      "duration": 1.0012,
      "velocity": 120,
      "chip": "ym2612"
    },
    {
      "channel": 2,
      "note": 57,
      "start": 55.8527,
      "duration": 0.1304,
      "velocity": 107,
      "chip": "ym2612"
    },
    {
      "channel": 4,
      "note": 69,
      "start": 55.8532,
      "duration": 0.0128,
      "velocity": 97,
      "chip": "ym2612"
    },
    {
      "channel": 4,
      "note": 69,
      "start": 55.9194,
      "duration": 0.0136,
      "velocity": 97,
      "chip": "ym2612"
    },
    {
      "channel": 2,
      "note": 57,
      "start": 55.9863,
      "duration": 0.1309,
      "velocity": 107,
      "chip": "ym2612"
    },
    {
      "channel": 4,
      "note": 72,
      "start": 55.9869,
      "duration": 0.013,
      "velocity": 97,
      "chip": "ym2612"
    },
    {
      "channel": 5,
      "note": 103,
      "start": 55.9873,
      "duration": 0.2638,
      "velocity": 127,
      "chip": "ym2612"
    },
    {
      "channel": 4,
      "note": 72,
      "start": 56.0533,
      "duration": 0.0137,
      "velocity": 97,
      "chip": "ym2612"
    },
    {
      "channel": 2,
      "note": 57,
      "start": 56.1202,
      "duration": 0.1308,
      "velocity": 107,
      "chip": "ym2612"
    },
    {
      "channel": 4,
      "note": 69,
      "start": 56.1207,
      "duration": 0.0133,
      "velocity": 97,
      "chip": "ym2612"
    },
    {
      "channel": 4,
      "note": 69,
      "start": 56.1873,
      "duration": 0.0136,
      "velocity": 97,
      "chip": "ym2612"
    },
    {
      "channel": 2,
      "note": 57,
      "start": 56.2541,
      "duration": 0.1308,
      "velocity": 107,
      "chip": "ym2612"
    },
    {
      "channel": 4,
      "note": 74,
      "start": 56.2546,
      "duration": 0.0132,
      "velocity": 97,
      "chip": "ym2612"
    },
    {
      "channel": 5,
      "note": 103,
      "start": 56.2551,
      "duration": 0.2639,
      "velocity": 127,
      "chip": "ym2612"
    },
    {
      "channel": 4,
      "note": 74,
      "start": 56.3211,
      "duration": 0.0136,
      "velocity": 97,
      "chip": "ym2612"
    },
    {
      "channel": 2,
      "note": 57,
      "start": 56.3882,
      "duration": 0.1307,
      "velocity": 107,
      "chip": "ym2612"
    },
    {
      "channel": 4,
      "note": 69,
      "start": 56.3886,
      "duration": 0.0131,
      "velocity": 97,
      "chip": "ym2612"
    },
    {
      "channel": 4,
      "note": 69,
      "start": 56.4551,
      "duration": 0.0135,
      "velocity": 97,
      "chip": "ym2612"
    },
    {
      "channel": 2,
      "note": 57,
      "start": 56.5225,
      "duration": 0.1307,
      "velocity": 107,
      "chip": "ym2612"
    },
    {
      "channel": 4,
      "note": 76,
      "start": 56.5229,
      "duration": 0.0127,
      "velocity": 97,
      "chip": "ym2612"
    },
    {
      "channel": 5,
      "note": 103,
      "start": 56.5234,
      "duration": 0.2636,
      "velocity": 127,
      "chip": "ym2612"
    },
    {
      "channel": 4,
      "note": 76,
      "start": 56.589,
      "duration": 0.0136,
      "velocity": 97,
      "chip": "ym2612"
    },
    {
      "channel": 2,
      "note": 57,
      "start": 56.6559,
      "duration": 0.131,
      "velocity": 107,
      "chip": "ym2612"
    },
    {
      "channel": 4,
      "note": 69,
      "start": 56.6564,
      "duration": 0.0132,
      "velocity": 97,
      "chip": "ym2612"
    },
    {
      "channel": 4,
      "note": 69,
      "start": 56.723,
      "duration": 0.0135,
      "velocity": 97,
      "chip": "ym2612"
    },
    {
      "channel": 0,
      "note": 69,
      "start": 56.7899,
      "duration": 0.0665,
      "velocity": 120,
      "chip": "ym2612"
    },
    {
      "channel": 2,
      "note": 55,
      "start": 56.7904,
      "duration": 0.1303,
      "velocity": 107,
      "chip": "ym2612"
    },
    {
      "channel": 3,
      "note": 67,
      "start": 56.7908,
      "duration": 0.6656,
      "velocity": 120,
      "chip": "ym2612"
    },
    {
      "channel": 5,
      "note": 103,
      "start": 56.7936,
      "duration": 0.2611,
      "velocity": 127,
      "chip": "ym2612"
    },
    {
      "channel": 0,
      "note": 70,
      "start": 56.8569,
      "duration": 0.5995,
      "velocity": 120,
      "chip": "ym2612"
    },
    {
      "channel": 2,
      "note": 55,
      "start": 56.9238,
      "duration": 0.1307,
      "velocity": 107,
      "chip": "ym2612"
    },
    {
      "channel": 4,
      "note": 62,
      "start": 56.9243,
      "duration": 0.013,
      "velocity": 97,
      "chip": "ym2612"
    },
    {
      "channel": 1,
      "note": 69,
      "start": 56.9908,
      "duration": 0.0665,
      "velocity": 120,
      "chip": "ym2612"
    },
    {
      "channel": 4,
      "note": 62,
      "start": 56.9913,
      "duration": 0.0131,
      "velocity": 97,
      "chip": "ym2612"
    },
    {
      "channel": 1,
      "note": 70,
      "start": 57.0578,
      "duration": 0.5994,
      "velocity": 120,
      "chip": "ym2612"
    },
    {
      "channel": 2,
      "note": 55,
      "start": 57.0582,
      "duration": 0.1302,
      "velocity": 107,
      "chip": "ym2612"
    },
    {
      "channel": 4,
      "note": 65,
      "start": 57.0587,
      "duration": 0.0126,
      "velocity": 97,
      "chip": "ym2612"
    },
    {
      "channel": 5,
      "note": 103,
      "start": 57.0592,
      "duration": 0.2635,
      "velocity": 127,
      "chip": "ym2612"
    },
    {
      "channel": 4,
      "note": 65,
      "start": 57.1247,
      "duration": 0.0135,
      "velocity": 97,
      "chip": "ym2612"
    },
    {
      "channel": 2,
      "note": 55,
      "start": 57.1917,
      "duration": 0.1308,
      "velocity": 107,
      "chip": "ym2612"
    },
    {
      "channel": 4,
      "note": 62,
      "start": 57.1924,
      "duration": 0.0128,
      "velocity": 97,
      "chip": "ym2612"
    },
    {
      "channel": 4,
      "note": 62,
      "start": 57.2585,
      "duration": 0.0139,
      "velocity": 97,
      "chip": "ym2612"
    },
    {
      "channel": 2,
      "note": 55,
      "start": 57.3255,
      "duration": 0.1311,
      "velocity": 107,
      "chip": "ym2612"
    },
    {
      "channel": 4,
      "note": 72,
      "start": 57.326,
      "duration": 0.0132,
      "velocity": 97,
      "chip": "ym2612"
    },
    {
      "channel": 5,
      "note": 103,
      "start": 57.3265,
      "duration": 0.264,
      "velocity": 127,
      "chip": "ym2612"
    },
    {
      "channel": 4,
      "note": 72,
      "start": 57.3927,
      "duration": 0.0134,
      "velocity": 97,
      "chip": "ym2612"
    },
    {
      "channel": 0,
      "note": 72,
      "start": 57.4595,
      "duration": 0.1307,
      "velocity": 120,
      "chip": "ym2612"
    },
    {
      "channel": 2,
      "note": 55,
      "start": 57.4599,
      "duration": 0.1304,
      "velocity": 107,
      "chip": "ym2612"
    },
    {
      "channel": 3,
      "note": 69,
      "start": 57.4604,
      "duration": 0.13,
      "velocity": 120,
      "chip": "ym2612"
    },
    {
      "channel": 4,
      "note": 74,
      "start": 57.4608,
      "duration": 0.0122,
      "velocity": 97,
      "chip": "ym2612"
    },
    {
      "channel": 4,
      "note": 74,
      "start": 57.5264,
      "duration": 0.0136,
      "velocity": 97,
      "chip": "ym2612"
    },
    {
      "channel": 0,
      "note": 74,
      "start": 57.5934,
      "duration": 0.1308,
      "velocity": 120,
      "chip": "ym2612"
    },
    {
      "channel": 2,
      "note": 55,
      "start": 57.5938,
      "duration": 0.1304,
      "velocity": 107,
      "chip": "ym2612"
    },
    {
      "channel": 3,
      "note": 70,
      "start": 57.5943,
      "duration": 0.13,
      "velocity": 120,
      "chip": "ym2612"
    },
    {
      "channel": 4,
      "note": 76,
      "start": 57.5947,
      "duration": 0.0123,
      "velocity": 97,
      "chip": "ym2612"
    },
    {
      "channel": 5,
      "note": 103,
      "start": 57.5952,
      "duration": 0.263,
      "velocity": 127,
      "chip": "ym2612"
    },
    {
      "channel": 1,
      "note": 72,
      "start": 57.6605,
      "duration": 0.1307,
      "velocity": 120,
      "chip": "ym2612"
    },
    {
      "channel": 4,
      "note": 76,
      "start": 57.6609,
      "duration": 0.013,
      "velocity": 97,
      "chip": "ym2612"
    },
    {
      "channel": 0,
      "note": 72,
      "start": 57.7273,
      "duration": 0.5325,
      "velocity": 120,
      "chip": "ym2612"
    },
    {
      "channel": 2,
      "note": 57,
      "start": 57.7277,
      "duration": 0.2643,
      "velocity": 107,
      "chip": "ym2612"
    },
    {
      "channel": 3,
      "note": 69,
      "start": 57.7282,
      "duration": 0.5318,
      "velocity": 120,
      "chip": "ym2612"
    },
    {
      "channel": 4,
      "note": 72,
      "start": 57.7286,
      "duration": 0.0122,
      "velocity": 97,
      "chip": "ym2612"
    },
    {
      "channel": 1,
      "note": 74,
      "start": 57.7943,
      "duration": 0.1308,
      "velocity": 120,
      "chip": "ym2612"
    },
    {
      "channel": 4,
      "note": 72,
      "start": 57.7947,
      "duration": 0.0131,
      "velocity": 97,
      "chip": "ym2612"
    },
    {
      "channel": 5,
      "note": 103,
      "start": 57.8613,
      "duration": 0.2647,
      "velocity": 127,
      "chip": "ym2612"
    },
    {
      "channel": 1,
      "note": 72,
      "start": 57.9282,
      "duration": 0.5326,
      "velocity": 120,
      "chip": "ym2612"
    },
    {
      "channel": 2,
      "note": 57,
      "start": 57.9951,
      "duration": 0.1308,
      "velocity": 107,
      "chip": "ym2612"
    },
    {
      "channel": 4,
      "note": 72,
      "start": 57.9956,
      "duration": 0.0132,
      "velocity": 97,
      "chip": "ym2612"
    },
    {
      "channel": 4,
      "note": 72,
      "start": 58.0624,
      "duration": 0.0132,
      "velocity": 97,
      "chip": "ym2612"
    },
    {
      "channel": 2,
      "note": 57,
      "start": 58.129,
      "duration": 0.1309,
      "velocity": 107,
      "chip": "ym2612"
    },
    {
      "channel": 4,
      "note": 76,
      "start": 58.1295,
      "duration": 0.0131,
      "velocity": 97,
      "chip": "ym2612"
    },
    {
      "channel": 5,
      "note": 103,
      "start": 58.13,
      "duration": 0.2639,
      "velocity": 127,
      "chip": "ym2612"
    },
    {
      "channel": 4,
      "note": 76,
      "start": 58.196,
      "duration": 0.0137,
      "velocity": 97,
      "chip": "ym2612"
    },
    {
      "channel": 0,
      "note": 69,
      "start": 58.2629,
      "duration": 0.5326,
      "velocity": 120,
      "chip": "ym2612"
    },
    {
      "channel": 2,
      "note": 57,
      "start": 58.2634,
      "duration": 0.1303,
      "velocity": 107,
      "chip": "ym2612"
    },
    {
      "channel": 3,
      "note": 64,
      "start": 58.2639,
      "duration": 0.5319,
      "velocity": 120,
      "chip": "ym2612"
    },
    {
      "channel": 4,
      "note": 72,
      "start": 58.2643,
      "duration": 0.0122,
      "velocity": 97,
      "chip": "ym2612"
    },
    {
      "channel": 4,
      "note": 72,
      "start": 58.3299,
      "duration": 0.0136,
      "velocity": 97,
      "chip": "ym2612"
    },
    {
      "channel": 2,
      "note": 57,
      "start": 58.3972,
      "duration": 0.1306,
      "velocity": 107,
      "chip": "ym2612"
    },
    {
      "channel": 4,
      "note": 81,
      "start": 58.3977,
      "duration": 0.0129,
      "velocity": 97,
      "chip": "ym2612"
    },
    {
      "channel": 5,
      "note": 103,
      "start": 58.3982,
      "duration": 0.2635,
      "velocity": 127,
      "chip": "ym2612"
    },
    {
      "channel": 1,
      "note": 69,
      "start": 58.4638,
      "duration": 0.5327,
      "velocity": 120,
      "chip": "ym2612"
    },
    {
      "channel": 4,
      "note": 81,
      "start": 58.4643,
      "duration": 0.0132,
      "velocity": 97,
      "chip": "ym2612"
    },
    {
      "channel": 2,
      "note": 57,
      "start": 58.5308,
      "duration": 0.1308,
      "velocity": 107,
      "chip": "ym2612"
    },
    {
      "channel": 4,
      "note": 72,
      "start": 58.5312,
      "duration": 0.0132,
      "velocity": 97,
      "chip": "ym2612"
    },
    {
      "channel": 4,
      "note": 72,
      "start": 58.5979,
      "duration": 0.0135,
      "velocity": 97,
      "chip": "ym2612"
    },
    {
      "channel": 2,
      "note": 57,
      "start": 58.6647,
      "duration": 0.1309,
      "velocity": 107,
      "chip": "ym2612"
    },
    {
      "channel": 4,
      "note": 74,
      "start": 58.6652,
      "duration": 0.0131,
      "velocity": 97,
      "chip": "ym2612"
    },
    {
      "channel": 5,
      "note": 103,
      "start": 58.6657,
      "duration": 0.2638,
      "velocity": 127,
      "chip": "ym2612"
    },
    {
      "channel": 4,
      "note": 74,
      "start": 58.7318,
      "duration": 0.0136,
      "velocity": 97,
      "chip": "ym2612"
    },
    {
      "channel": 0,
      "note": 67,
      "start": 58.7986,
      "duration": 0.8004,
      "velocity": 120,
      "chip": "ym2612"
    },
    {
      "channel": 2,
      "note": 58,
      "start": 58.7992,
      "duration": 0.2642,
      "velocity": 107,
      "chip": "ym2612"
    },
    {
      "channel": 3,
      "note": 62,
      "start": 58.7996,
      "duration": 0.7996,
      "velocity": 120,
      "chip": "ym2612"
    },
    {
      "channel": 4,
      "note": 76,
      "start": 58.8001,
      "duration": 0.0124,
      "velocity": 97,
      "chip": "ym2612"
    },
    {
      "channel": 4,
      "note": 76,
      "start": 58.8656,
      "duration": 0.0137,
      "velocity": 97,
      "chip": "ym2612"
    },
    {
      "channel": 5,
      "note": 103,
      "start": 58.9328,
      "duration": 0.2646,
      "velocity": 127,
      "chip": "ym2612"
    },
    {
      "channel": 1,
      "note": 67,
      "start": 58.9995,
      "duration": 0.8004,
      "velocity": 120,
      "chip": "ym2612"
    },
    {
      "channel": 2,
      "note": 58,
      "start": 59.0665,
      "duration": 0.1309,
      "velocity": 107,
      "chip": "ym2612"
    },
    {
      "channel": 4,
      "note": 70,
      "start": 59.0669,
      "duration": 0.0132,
      "velocity": 97,
      "chip": "ym2612"
    },
    {
      "channel": 4,
      "note": 70,
      "start": 59.1335,
      "duration": 0.0136,
      "velocity": 97,
      "chip": "ym2612"
    },
    {
      "channel": 2,
      "note": 58,
      "start": 59.2004,
      "duration": 0.1308,
      "velocity": 107,
      "chip": "ym2612"
    },
    {
      "channel": 4,
      "note": 74,
      "start": 59.2008,
      "duration": 0.0132,
      "velocity": 97,
      "chip": "ym2612"
    },
    {
      "channel": 5,
      "note": 103,
      "start": 59.2013,
      "duration": 0.2641,
      "velocity": 127,
      "chip": "ym2612"
    },
    {
      "channel": 4,
      "note": 74,
      "start": 59.2673,
      "duration": 0.0137,
      "velocity": 97,
      "chip": "ym2612"
    },
    {
      "channel": 2,
      "note": 58,
      "start": 59.3346,
      "duration": 0.1308,
      "velocity": 107,
      "chip": "ym2612"
    },
    {
      "channel": 4,
      "note": 70,
      "start": 59.335,
      "duration": 0.0129,
      "velocity": 97,
      "chip": "ym2612"
    },
    {
      "channel": 4,
      "note": 70,
      "start": 59.4013,
      "duration": 0.0136,
      "velocity": 97,
      "chip": "ym2612"
    },
    {
      "channel": 2,
      "note": 58,
      "start": 59.4683,
      "duration": 0.1308,
      "velocity": 107,
      "chip": "ym2612"
    },
    {
      "channel": 4,
      "note": 79,
      "start": 59.4687,
      "duration": 0.0131,
      "velocity": 97,
      "chip": "ym2612"
    },
    {
      "channel": 5,
      "note": 103,
      "start": 59.4692,
      "duration": 0.264,
      "velocity": 127,
      "chip": "ym2612"
    },
    {
      "channel": 4,
      "note": 79,
      "start": 59.5353,
      "duration": 0.0135,
      "velocity": 97,
      "chip": "ym2612"
    },
    {
      "channel": 0,
      "note": 69,
      "start": 59.6024,
      "duration": 0.1305,
      "velocity": 120,
      "chip": "ym2612"
    },
    {
      "channel": 2,
      "note": 58,
      "start": 59.6029,
      "duration": 0.1302,
      "velocity": 107,
      "chip": "ym2612"
    },
    {
      "channel": 3,
      "note": 64,
      "start": 59.6033,
      "duration": 0.1298,
      "velocity": 120,
      "chip": "ym2612"
    },
    {
      "channel": 4,
      "note": 70,
      "start": 59.6038,
      "duration": 0.0128,
      "velocity": 97,
      "chip": "ym2612"
    },
    {
      "channel": 4,
      "note": 70,
      "start": 59.6691,
      "duration": 0.0137,
      "velocity": 97,
      "chip": "ym2612"
    },
    {
      "channel": 0,
      "note": 70,
      "start": 59.7362,
      "duration": 0.1307,
      "velocity": 120,
      "chip": "ym2612"
    },
    {
      "channel": 2,
      "note": 58,
      "start": 59.7367,
      "duration": 0.1302,
      "velocity": 107,
      "chip": "ym2612"
    },
    {
      "channel": 3,
      "note": 65,
      "start": 59.7372,
      "duration": 0.1299,
      "velocity": 120,
      "chip": "ym2612"
    },
    {
      "channel": 4,
      "note": 74,
      "start": 59.7376,
      "duration": 0.012,
      "velocity": 97,
      "chip": "ym2612"
    },
    {
      "channel": 5,
      "note": 103,
      "start": 59.7381,
      "duration": 0.2626,
      "velocity": 127,
      "chip": "ym2612"
    },
    {
      "channel": 1,
      "note": 69,
      "start": 59.8031,
      "duration": 0.1307,
      "velocity": 120,
      "chip": "ym2612"
    },
    {
      "channel": 4,
      "note": 74,
      "start": 59.8036,
      "duration": 0.0131,
      "velocity": 97,
      "chip": "ym2612"
    },
    {
      "channel": 0,
      "note": 72,
      "start": 59.87,
      "duration": 0.533,
      "velocity": 120,
      "chip": "ym2612"
    },
    {
      "channel": 2,
      "note": 57,
      "start": 59.8705,
      "duration": 0.2643,
      "velocity": 107,
      "chip": "ym2612"
    },
    {
      "channel": 3,
      "note": 69,
      "start": 59.8709,
      "duration": 0.5323,
      "velocity": 120,
      "chip": "ym2612"
    },
    {
      "channel": 4,
      "note": 69,
      "start": 59.8714,
      "duration": 0.0123,
      "velocity": 97,
      "chip": "ym2612"
    },
    {
      "channel": 1,
      "note": 70,
      "start": 59.937,
      "duration": 0.1308,
      "velocity": 120,
      "chip": "ym2612"
    },
    {
      "channel": 4,
      "note": 69,
      "start": 59.9375,
      "duration": 0.0132,
      "velocity": 97,
      "chip": "ym2612"
    },
    {
      "channel": 5,
      "note": 103,
      "start": 60.0041,
      "duration": 0.2647,
      "velocity": 127,
      "chip": "ym2612"
    },
    {
      "channel": 1,
      "note": 72,
      "start": 60.0709,
      "duration": 0.5326,
      "velocity": 120,
      "chip": "ym2612"
    },
    {
      "channel": 2,
      "note": 57,
      "start": 60.1379,
      "duration": 0.1308,
      "velocity": 107,
      "chip": "ym2612"
    },
    {
      "channel": 4,
      "note": 69,
      "start": 60.1384,
      "duration": 0.0131,
      "velocity": 97,
      "chip": "ym2612"
    },
    {
      "channel": 4,
      "note": 69,
      "start": 60.2048,
      "duration": 0.0136,
      "velocity": 97,
      "chip": "ym2612"
    },
    {
      "channel": 2,
      "note": 57,
      "start": 60.2724,
      "duration": 0.1307,
      "velocity": 107,
      "chip": "ym2612"
    },
    {
      "channel": 4,
      "note": 72,
      "start": 60.2728,
      "duration": 0.0125,
      "velocity": 97,
      "chip": "ym2612"
    },
    {
      "channel": 5,
      "note": 103,
      "start": 60.2733,
      "duration": 0.2633,
      "velocity": 127,
      "chip": "ym2612"
    },
    {
      "channel": 4,
      "note": 72,
      "start": 60.3387,
      "duration": 0.0139,
      "velocity": 97,
      "chip": "ym2612"
    },
    {
      "channel": 0,
      "note": 76,
      "start": 60.4058,
      "duration": 0.6667,
      "velocity": 120,
      "chip": "ym2612"
    },
    {
      "channel": 2,
      "note": 58,
      "start": 60.4062,
      "duration": 0.2641,
      "velocity": 107,
      "chip": "ym2612"
    },
    {
      "channel": 3,
      "note": 67,
      "start": 60.4067,
      "duration": 0.6661,
      "velocity": 120,
      "chip": "ym2612"
    },
    {
      "channel": 4,
      "note": 69,
      "start": 60.4071,
      "duration": 0.0122,
      "velocity": 97,
      "chip": "ym2612"
    },
    {
      "channel": 4,
      "note": 69,
      "start": 60.4729,
      "duration": 0.0135,
      "velocity": 97,
      "chip": "ym2612"
    },
    {
      "channel": 4,
      "note": 74,
      "start": 60.5397,
      "duration": 0.0135,
      "velocity": 97,
      "chip": "ym2612"
    },
    {
      "channel": 5,
      "note": 103,
      "start": 60.5402,
      "duration": 0.2642,
      "velocity": 127,
      "chip": "ym2612"
    },
    {
      "channel": 1,
      "note": 76,
      "start": 60.6067,
      "duration": 0.4659,
      "velocity": 120,
      "chip": "ym2612"
    },
    {
      "channel": 4,
      "note": 74,
      "start": 60.6071,
      "duration": 0.0131,
      "velocity": 97,
      "chip": "ym2612"
    },
    {
      "channel": 2,
      "note": 70,
      "start": 60.6736,
      "duration": 0.1307,
      "velocity": 107,
      "chip": "ym2612"
    },
    {
      "channel": 4,
      "note": 69,
      "start": 60.6742,
      "duration": 0.013,
      "velocity": 97,
      "chip": "ym2612"
    },
    {
      "channel": 4,
      "note": 69,
      "start": 60.7405,
      "duration": 0.0136,
      "velocity": 97,
      "chip": "ym2612"
    },
    {
      "channel": 2,
      "note": 58,
      "start": 60.8074,
      "duration": 0.1308,
      "velocity": 107,
      "chip": "ym2612"
    },
    {
      "channel": 4,
      "note": 76,
      "start": 60.8079,
      "duration": 0.0132,
      "velocity": 97,
      "chip": "ym2612"
    },
    {
      "channel": 5,
      "note": 103,
      "start": 60.8084,
      "duration": 0.2645,
      "velocity": 127,
      "chip": "ym2612"
    },
    {
      "channel": 4,
      "note": 76,
      "start": 60.8744,
      "duration": 0.0136,
      "velocity": 97,
      "chip": "ym2612"
    },
    {
      "channel": 2,
      "note": 55,
      "start": 60.9414,
      "duration": 0.1313,
      "velocity": 107,
      "chip": "ym2612"
    },
    {
      "channel": 4,
      "note": 69,
      "start": 60.9418,
      "duration": 0.0131,
      "velocity": 97,
      "chip": "ym2612"
    },
    {
      "channel": 4,
      "note": 69,
      "start": 61.0083,
      "duration": 0.0137,
      "velocity": 97,
      "chip": "ym2612"
    },
    {
      "channel": 0,
      "note": 61,
      "start": 61.0763,
      "duration": 0.0656,
      "velocity": 120,
      "chip": "ym2612"
    },
    {
      "channel": 2,
      "note": 48,
      "start": 61.0768,
      "duration": 0.1293,
      "velocity": 107,
      "chip": "ym2612"
    },
    {
      "channel": 5,
      "note": 99,
      "start": 61.0805,
      "duration": 0.1257,
      "velocity": 115,
      "chip": "ym2612"
    },
    {
      "channel": 0,
      "note": 62,
      "start": 61.1426,
      "duration": 0.5993,
      "velocity": 120,
      "chip": "ym2612"
    },
    {
      "channel": 2,
      "note": 50,
      "start": 61.2092,
      "duration": 0.1308,
      "velocity": 107,
      "chip": "ym2612"
    },
    {
      "channel": 3,
      "note": 62,
      "start": 61.2096,
      "duration": 0.2643,
      "velocity": 97,
      "chip": "ym2612"
    },
    {
      "channel": 4,
      "note": 53,
      "start": 61.2101,
      "duration": 0.0629,
      "velocity": 97,
      "chip": "ym2612"
    },
    {
      "channel": 5,
      "note": 99,
      "start": 61.2106,
      "duration": 0.1295,
      "velocity": 115,
      "chip": "ym2612"
    },
    {
      "channel": 1,
      "note": 61,
      "start": 61.2772,
      "duration": 0.0656,
      "velocity": 120,
      "chip": "ym2612"
    },
    {
      "channel": 1,
      "note": 62,
      "start": 61.3433,
      "duration": 0.5993,
      "velocity": 120,
      "chip": "ym2612"
    },
    {
      "channel": 2,
      "note": 50,
      "start": 61.3437,
      "duration": 0.1303,
      "velocity": 107,
      "chip": "ym2612"
    },
    {
      "channel": 5,
      "note": 99,
      "start": 61.3443,
      "duration": 0.1298,
      "velocity": 115,
      "chip": "ym2612"
    },
    {
      "channel": 2,
      "note": 50,
      "start": 61.4771,
      "duration": 0.1307,
      "velocity": 107,
      "chip": "ym2612"
    },
    {
      "channel": 3,
      "note": 64,
      "start": 61.4775,
      "duration": 0.1304,
      "velocity": 97,
      "chip": "ym2612"
    },
    {
      "channel": 4,
      "note": 55,
      "start": 61.478,
      "duration": 0.0294,
      "velocity": 97,
      "chip": "ym2612"
    },
    {
      "channel": 5,
      "note": 99,
      "start": 61.4785,
      "duration": 0.1296,
      "velocity": 115,
      "chip": "ym2612"
    },
    {
      "channel": 2,
      "note": 50,
      "start": 61.611,
      "duration": 0.131,
      "velocity": 107,
      "chip": "ym2612"
    },
    {
      "channel": 5,
      "note": 99,
      "start": 61.6116,
      "duration": 0.1305,
      "velocity": 115,
      "chip": "ym2612"
    },
    {
      "channel": 0,
      "note": 69,
      "start": 61.7449,
      "duration": 0.1309,
      "velocity": 120,
      "chip": "ym2612"
    },
    {
      "channel": 2,
      "note": 50,
      "start": 61.7454,
      "duration": 0.1305,
      "velocity": 107,
      "chip": "ym2612"
    },
    {
      "channel": 3,
      "note": 65,
      "start": 61.7458,
      "duration": 0.1302,
      "velocity": 97,
      "chip": "ym2612"
    },
    {
      "channel": 4,
      "note": 57,
      "start": 61.7463,
      "duration": 0.029,
      "velocity": 97,
      "chip": "ym2612"
    },
    {
      "channel": 5,
      "note": 99,
      "start": 61.7477,
      "duration": 0.1283,
      "velocity": 112,
      "chip": "ym2612"
    },
    {
      "channel": 2,
      "note": 48,
      "start": 61.8789,
      "duration": 0.1307,
      "velocity": 107,
      "chip": "ym2612"
    },
    {
      "channel": 3,
      "note": 67,
      "start": 61.8793,
      "duration": 0.1303,
      "velocity": 97,
      "chip": "ym2612"
    },
    {
      "channel": 4,
      "note": 58,
      "start": 61.8798,
      "duration": 0.0294,
      "velocity": 97,
      "chip": "ym2612"
    },
    {
      "channel": 5,
      "note": 99,
      "start": 61.8812,
      "duration": 0.1285,
      "velocity": 115,
      "chip": "ym2612"
    },
    {
      "channel": 1,
      "note": 69,
      "start": 61.9458,
      "duration": 0.1308,
      "velocity": 120,
      "chip": "ym2612"
    },
    {
      "channel": 0,
      "note": 68,
      "start": 62.0128,
      "duration": 0.8003,
      "velocity": 120,
      "chip": "ym2612"
    },
    {
      "channel": 2,
      "note": 52,
      "start": 62.0133,
      "duration": 0.2645,
      "velocity": 107,
      "chip": "ym2612"
    },
    {
      "channel": 3,
      "note": 68,
      "start": 62.0137,
      "duration": 0.7997,
      "velocity": 97,
      "chip": "ym2612"
    },
    {
      "channel": 4,
      "note": 64,
      "start": 62.0142,
      "duration": 0.3973,
      "velocity": 97,
      "chip": "ym2612"
    },
    {
      "channel": 5,
      "note": 99,
      "start": 62.0148,
      "duration": 0.1289,
      "velocity": 115,
      "chip": "ym2612"
    },
    {
      "channel": 5,
      "note": 99,
      "start": 62.147,
      "duration": 0.1307,
      "velocity": 115,
      "chip": "ym2612"
    },
    {
      "channel": 1,
      "note": 68,
      "start": 62.2137,
      "duration": 0.8005,
      "velocity": 120,
      "chip": "ym2612"
    },
    {
      "channel": 2,
      "note": 52,
      "start": 62.2805,
      "duration": 0.1308,
      "velocity": 107,
      "chip": "ym2612"
    },
    {
      "channel": 5,
      "note": 99,
      "start": 62.2811,
      "duration": 0.1304,
      "velocity": 115,
      "chip": "ym2612"
    },
    {
      "channel": 2,
      "note": 52,
      "start": 62.4145,
      "duration": 0.1308,
      "velocity": 107,
      "chip": "ym2612"
    },
    {
      "channel": 5,
      "note": 99,
      "start": 62.415,
      "duration": 0.1304,
      "velocity": 115,
      "chip": "ym2612"
    },
    {
      "channel": 2,
      "note": 52,
      "start": 62.5485,
      "duration": 0.1307,
      "velocity": 107,
      "chip": "ym2612"
    },
    {
      "channel": 5,
      "note": 99,
      "start": 62.5491,
      "duration": 0.1301,
      "velocity": 115,
      "chip": "ym2612"
    },
    {
      "channel": 2,
      "note": 52,
      "start": 62.6826,
      "duration": 0.1307,
      "velocity": 107,
      "chip": "ym2612"
    },
    {
      "channel": 5,
      "note": 99,
      "start": 62.6831,
      "duration": 0.1302,
      "velocity": 115,
      "chip": "ym2612"
    },
    {
      "channel": 0,
      "note": 64,
      "start": 62.8162,
      "duration": 0.1308,
      "velocity": 120,
      "chip": "ym2612"
    },
    {
      "channel": 2,
      "note": 52,
      "start": 62.8167,
      "duration": 0.1305,
      "velocity": 107,
      "chip": "ym2612"
    },
    {
      "channel": 3,
      "note": 70,
      "start": 62.8171,
      "duration": 0.1301,
      "velocity": 97,
      "chip": "ym2612"
    },
    {
      "channel": 4,
      "note": 64,
      "start": 62.8176,
      "duration": 0.029,
      "velocity": 97,
      "chip": "ym2612"
    },
    {
      "channel": 5,
      "note": 99,
      "start": 62.819,
      "duration": 0.1283,
      "velocity": 112,
      "chip": "ym2612"
    },
    {
      "channel": 0,
      "note": 66,
      "start": 62.9501,
      "duration": 0.1308,
      "velocity": 120,
      "chip": "ym2612"
    },
    {
      "channel": 2,
      "note": 52,
      "start": 62.9506,
      "duration": 0.1305,
      "velocity": 107,
      "chip": "ym2612"
    },
    {
      "channel": 3,
      "note": 69,
      "start": 62.951,
      "duration": 0.1301,
      "velocity": 97,
      "chip": "ym2612"
    },
    {
      "channel": 4,
      "note": 62,
      "start": 62.9515,
      "duration": 0.029,
      "velocity": 97,
      "chip": "ym2612"
    },
    {
      "channel": 5,
      "note": 99,
      "start": 62.9533,
      "duration": 0.1279,
      "velocity": 115,
      "chip": "ym2612"
    },
    {
      "channel": 1,
      "note": 64,
      "start": 63.0171,
      "duration": 0.1309,
      "velocity": 120,
      "chip": "ym2612"
    },
    {
      "channel": 0,
      "note": 67,
      "start": 63.0844,
      "duration": 0.8,
      "velocity": 120,
      "chip": "ym2612"
    },
    {
      "channel": 2,
      "note": 55,
      "start": 63.0849,
      "duration": 0.2639,
      "velocity": 107,
      "chip": "ym2612"
    },
    {
      "channel": 3,
      "note": 67,
      "start": 63.0853,
      "duration": 0.7993,
      "velocity": 97,
      "chip": "ym2612"
    },
    {
      "channel": 4,
      "note": 62,
      "start": 63.0858,
      "duration": 0.397,
      "velocity": 97,
      "chip": "ym2612"
    },
    {
      "channel": 5,
      "note": 99,
      "start": 63.0863,
      "duration": 0.1287,
      "velocity": 115,
      "chip": "ym2612"
    },
    {
      "channel": 1,
      "note": 66,
      "start": 63.1511,
      "duration": 0.1308,
      "velocity": 120,
      "chip": "ym2612"
    },
    {
      "channel": 5,
      "note": 99,
      "start": 63.2182,
      "duration": 0.1307,
      "velocity": 115,
      "chip": "ym2612"
    },
    {
      "channel": 1,
      "note": 67,
      "start": 63.2851,
      "duration": 0.8003,
      "velocity": 120,
      "chip": "ym2612"
    },
    {
      "channel": 2,
      "note": 55,
      "start": 63.352,
      "duration": 0.1307,
      "velocity": 107,
      "chip": "ym2612"
    },
    {
      "channel": 5,
      "note": 99,
      "start": 63.3528,
      "duration": 0.1301,
      "velocity": 115,
      "chip": "ym2612"
    },
    {
      "channel": 2,
      "note": 55,
      "start": 63.4858,
      "duration": 0.1308,
      "velocity": 107,
      "chip": "ym2612"
    },
    {
      "channel": 5,
      "note": 99,
      "start": 63.4864,
      "duration": 0.1303,
      "velocity": 115,
      "chip": "ym2612"
    },
    {
      "channel": 2,
      "note": 55,
      "start": 63.6198,
      "duration": 0.1308,
      "velocity": 107,
      "chip": "ym2612"
    },
    {
      "channel": 5,
      "note": 99,
      "start": 63.6203,
      "duration": 0.1303,
      "velocity": 115,
      "chip": "ym2612"
    },
    {
      "channel": 2,
      "note": 55,
      "start": 63.7537,
      "duration": 0.1309,
      "velocity": 107,
      "chip": "ym2612"
    },
    {
      "channel": 5,
      "note": 99,
      "start": 63.7542,
      "duration": 0.1306,
      "velocity": 115,
      "chip": "ym2612"
    },
    {
      "channel": 0,
      "note": 68,
      "start": 63.8876,
      "duration": 0.0666,
      "velocity": 120,
      "chip": "ym2612"
    },
    {
      "channel": 2,
      "note": 55,
      "start": 63.888,
      "duration": 0.1304,
      "velocity": 107,
      "chip": "ym2612"
    },
    {
      "channel": 3,
      "note": 69,
      "start": 63.8885,
      "duration": 0.13,
      "velocity": 97,
      "chip": "ym2612"
    },
    {
      "channel": 4,
      "note": 62,
      "start": 63.889,
      "duration": 0.0291,
      "velocity": 97,
      "chip": "ym2612"
    },
    {
      "channel": 5,
      "note": 99,
      "start": 63.8905,
      "duration": 0.1282,
      "velocity": 112,
      "chip": "ym2612"
    },
    {
      "channel": 0,
      "note": 69,
      "start": 63.9546,
      "duration": 0.1978,
      "velocity": 120,
      "chip": "ym2612"
    },
    {
      "channel": 2,
      "note": 55,
      "start": 64.0215,
      "duration": 0.131,
      "velocity": 107,
      "chip": "ym2612"
    },
    {
      "channel": 3,
      "note": 67,
      "start": 64.022,
      "duration": 0.1307,
      "velocity": 97,
      "chip": "ym2612"
    },
    {
      "channel": 4,
      "note": 60,
      "start": 64.0227,
      "duration": 0.0293,
      "velocity": 97,
      "chip": "ym2612"
    },
    {
      "channel": 5,
      "note": 99,
      "start": 64.0242,
      "duration": 0.1286,
      "velocity": 115,
      "chip": "ym2612"
    },
    {
      "channel": 1,
      "note": 68,
      "start": 64.0885,
      "duration": 0.0667,
      "velocity": 120,
      "chip": "ym2612"
    },
    {
      "channel": 0,
      "note": 65,
      "start": 64.1556,
      "duration": 0.3984,
      "velocity": 120,
      "chip": "ym2612"
    },
    {
      "channel": 1,
      "note": 69,
      "start": 64.1561,
      "duration": 0.1971,
      "velocity": 120,
      "chip": "ym2612"
    },
    {
      "channel": 2,
      "note": 53,
      "start": 64.1566,
      "duration": 0.2636,
      "velocity": 107,
      "chip": "ym2612"
    },
    {
      "channel": 3,
      "note": 65,
      "start": 64.157,
      "duration": 0.5312,
      "velocity": 97,
      "chip": "ym2612"
    },
    {
      "channel": 4,
      "note": 57,
      "start": 64.1575,
      "duration": 0.2293,
      "velocity": 97,
      "chip": "ym2612"
    },
    {
      "channel": 5,
      "note": 99,
      "start": 64.1581,
      "duration": 0.1282,
      "velocity": 115,
      "chip": "ym2612"
    },
    {
      "channel": 5,
      "note": 99,
      "start": 64.2894,
      "duration": 0.1308,
      "velocity": 115,
      "chip": "ym2612"
    },
    {
      "channel": 1,
      "note": 65,
      "start": 64.3563,
      "duration": 0.3986,
      "velocity": 120,
      "chip": "ym2612"
    },
    {
      "channel": 2,
      "note": 65,
      "start": 64.4233,
      "duration": 0.1309,
      "velocity": 107,
      "chip": "ym2612"
    },
    {
      "channel": 5,
      "note": 99,
      "start": 64.4239,
      "duration": 0.1304,
      "velocity": 115,
      "chip": "ym2612"
    },
    {
      "channel": 0,
      "note": 64,
      "start": 64.5572,
      "duration": 0.1307,
      "velocity": 120,
      "chip": "ym2612"
    },
    {
      "channel": 2,
      "note": 50,
      "start": 64.5577,
      "duration": 0.1304,
      "velocity": 107,
      "chip": "ym2612"
    },
    {
      "channel": 5,
      "note": 99,
      "start": 64.5582,
      "duration": 0.1301,
      "velocity": 115,
      "chip": "ym2612"
    },
    {
      "channel": 0,
      "note": 62,
      "start": 64.6911,
      "duration": 0.6666,
      "velocity": 120,
      "chip": "ym2612"
    },
    {
      "channel": 2,
      "note": 50,
      "start": 64.6916,
      "duration": 0.1303,
      "velocity": 107,
      "chip": "ym2612"
    },
    {
      "channel": 3,
      "note": 69,
      "start": 64.692,
      "duration": 0.666,
      "velocity": 97,
      "chip": "ym2612"
    },
    {
      "channel": 4,
      "note": 53,
      "start": 64.6927,
      "duration": 0.2632,
      "velocity": 97,
      "chip": "ym2612"
    },
    {
      "channel": 5,
      "note": 99,
      "start": 64.6933,
      "duration": 0.1288,
      "velocity": 115,
      "chip": "ym2612"
    },
    {
      "channel": 1,
      "note": 64,
      "start": 64.7581,
      "duration": 0.1309,
      "velocity": 120,
      "chip": "ym2612"
    },
    {
      "channel": 2,
      "note": 50,
      "start": 64.825,
      "duration": 0.1308,
      "velocity": 107,
      "chip": "ym2612"
    },
    {
      "channel": 5,
      "note": 99,
      "start": 64.8255,
      "duration": 0.1305,
      "velocity": 115,
      "chip": "ym2612"
    },
    {
      "channel": 1,
      "note": 62,
      "start": 64.8924,
      "duration": 0.4654,
      "velocity": 120,
      "chip": "ym2612"
    },
    {
      "channel": 2,
      "note": 50,
      "start": 64.959,
      "duration": 0.1309,
      "velocity": 107,
      "chip": "ym2612"
    },
    {
      "channel": 5,
      "note": 99,
      "start": 64.9603,
      "duration": 0.1296,
      "velocity": 112,
      "chip": "ym2612"
    },
    {
      "channel": 2,
      "note": 62,
      "start": 65.0929,
      "duration": 0.1308,
      "velocity": 107,
      "chip": "ym2612"
    },
    {
      "channel": 5,
      "note": 99,
      "start": 65.0942,
      "duration": 0.1295,
      "velocity": 115,
      "chip": "ym2612"
    },
    {
      "channel": 2,
      "note": 50,
      "start": 65.2268,
      "duration": 0.1311,
      "velocity": 107,
      "chip": "ym2612"
    },
    {
      "channel": 5,
      "note": 99,
      "start": 65.2273,
      "duration": 0.1307,
      "velocity": 115,
      "chip": "ym2612"
    },
    {
      "channel": 0,
      "note": 61,
      "start": 65.3618,
      "duration": 0.0656,
      "velocity": 120,
      "chip": "ym2612"
    },
    {
      "channel": 2,
      "note": 48,
      "start": 65.3625,
      "duration": 0.1291,
      "velocity": 107,
      "chip": "ym2612"
    },
    {
      "channel": 5,
      "note": 99,
      "start": 65.364,
      "duration": 0.1277,
      "velocity": 115,
      "chip": "ym2612"
    },
    {
      "channel": 0,
      "note": 62,
      "start": 65.4278,
      "duration": 0.5995,
      "velocity": 120,
      "chip": "ym2612"
    },
    {
      "channel": 2,
      "note": 50,
      "start": 65.4946,
      "duration": 0.1308,
      "velocity": 107,
      "chip": "ym2612"
    },
    {
      "channel": 3,
      "note": 62,
      "start": 65.4951,
      "duration": 0.2642,
      "velocity": 97,
      "chip": "ym2612"
    },
    {
      "channel": 4,
      "note": 53,
      "start": 65.4955,
      "duration": 0.0629,
      "velocity": 97,
      "chip": "ym2612"
    },
    {
      "channel": 5,
      "note": 99,
      "start": 65.4961,
      "duration": 0.1295,
      "velocity": 115,
      "chip": "ym2612"
    },
    {
      "channel": 1,
      "note": 61,
      "start": 65.5631,
      "duration": 0.0651,
      "velocity": 120,
      "chip": "ym2612"
    },
    {
      "channel": 1,
      "note": 62,
      "start": 65.6286,
      "duration": 0.5995,
      "velocity": 120,
      "chip": "ym2612"
    },
    {
      "channel": 2,
      "note": 50,
      "start": 65.6291,
      "duration": 0.1303,
      "velocity": 107,
      "chip": "ym2612"
    },
    {
      "channel": 5,
      "note": 99,
      "start": 65.6296,
      "duration": 0.1299,
      "velocity": 115,
      "chip": "ym2612"
    },
    {
      "channel": 2,
      "note": 50,
      "start": 65.7627,
      "duration": 0.1305,
      "velocity": 107,
      "chip": "ym2612"
    },
    {
      "channel": 3,
      "note": 64,
      "start": 65.7632,
      "duration": 0.1301,
      "velocity": 97,
      "chip": "ym2612"
    },
    {
      "channel": 4,
      "note": 55,
      "start": 65.7637,
      "duration": 0.0292,
      "velocity": 97,
      "chip": "ym2612"
    },
    {
      "channel": 5,
      "note": 99,
      "start": 65.7642,
      "duration": 0.1293,
      "velocity": 115,
      "chip": "ym2612"
    },
    {
      "channel": 2,
      "note": 50,
      "start": 65.8964,
      "duration": 0.131,
      "velocity": 107,
      "chip": "ym2612"
    },
    {
      "channel": 5,
      "note": 99,
      "start": 65.8969,
      "duration": 0.1306,
      "velocity": 115,
      "chip": "ym2612"
    },
    {
      "channel": 0,
      "note": 69,
      "start": 66.0303,
      "duration": 0.1307,
      "velocity": 120,
      "chip": "ym2612"
    },
    {
      "channel": 2,
      "note": 50,
      "start": 66.0308,
      "duration": 0.1304,
      "velocity": 107,
      "chip": "ym2612"
    },
    {
      "channel": 3,
      "note": 65,
      "start": 66.0312,
      "duration": 0.13,
      "velocity": 97,
      "chip": "ym2612"
    },
    {
      "channel": 4,
      "note": 57,
      "start": 66.0317,
      "duration": 0.029,
      "velocity": 97,
      "chip": "ym2612"
    },
    {
      "channel": 5,
      "note": 99,
      "start": 66.0334,
      "duration": 0.128,
      "velocity": 112,
      "chip": "ym2612"
    },
    {
      "channel": 2,
      "note": 48,
      "start": 66.1643,
      "duration": 0.1307,
      "velocity": 107,
      "chip": "ym2612"
    },
    {
      "channel": 3,
      "note": 67,
      "start": 66.1648,
      "duration": 0.1304,
      "velocity": 97,
      "chip": "ym2612"
    },
    {
      "channel": 4,
      "note": 58,
      "start": 66.1652,
      "duration": 0.0295,
      "velocity": 97,
      "chip": "ym2612"
    },
    {
      "channel": 5,
      "note": 99,
      "start": 66.1667,
      "duration": 0.1285,
      "velocity": 115,
      "chip": "ym2612"
    },
    {
      "channel": 1,
      "note": 69,
      "start": 66.2313,
      "duration": 0.1307,
      "velocity": 120,
      "chip": "ym2612"
    },
    {
      "channel": 0,
      "note": 68,
      "start": 66.2981,
      "duration": 0.8032,
      "velocity": 120,
      "chip": "ym2612"
    },
    {
      "channel": 2,
      "note": 52,
      "start": 66.2987,
      "duration": 0.2643,
      "velocity": 107,
      "chip": "ym2612"
    },
    {
      "channel": 3,
      "note": 68,
      "start": 66.2992,
      "duration": 0.8024,
      "velocity": 97,
      "chip": "ym2612"
    },
    {
      "channel": 4,
      "note": 64,
      "start": 66.2996,
      "duration": 0.3974,
      "velocity": 97,
      "chip": "ym2612"
    },
    {
      "channel": 5,
      "note": 99,
      "start": 66.3001,
      "duration": 0.129,
      "velocity": 115,
      "chip": "ym2612"
    },
    {
      "channel": 5,
      "note": 99,
      "start": 66.4324,
      "duration": 0.1305,
      "velocity": 115,
      "chip": "ym2612"
    },
    {
      "channel": 1,
      "note": 68,
      "start": 66.499,
      "duration": 0.8035,
      "velocity": 120,
      "chip": "ym2612"
    },
    {
      "channel": 2,
      "note": 52,
      "start": 66.566,
      "duration": 0.1308,
      "velocity": 107,
      "chip": "ym2612"
    },
    {
      "channel": 5,
      "note": 99,
      "start": 66.5665,
      "duration": 0.1304,
      "velocity": 115,
      "chip": "ym2612"
    },
    {
      "channel": 2,
      "note": 52,
      "start": 66.6999,
      "duration": 0.1336,
      "velocity": 107,
      "chip": "ym2612"
    },
    {
      "channel": 5,
      "note": 99,
      "start": 66.7004,
      "duration": 0.1331,
      "velocity": 115,
      "chip": "ym2612"
    },
    {
      "channel": 2,
      "note": 52,
      "start": 66.8366,
      "duration": 0.1308,
      "velocity": 107,
      "chip": "ym2612"
    },
    {
      "channel": 5,
      "note": 99,
      "start": 66.8371,
      "duration": 0.1303,
      "velocity": 115,
      "chip": "ym2612"
    },
    {
      "channel": 2,
      "note": 52,
      "start": 66.9705,
      "duration": 0.1309,
      "velocity": 107,
      "chip": "ym2612"
    },
    {
      "channel": 5,
      "note": 99,
      "start": 66.9711,
      "duration": 0.1304,
      "velocity": 115,
      "chip": "ym2612"
    },
    {
      "channel": 0,
      "note": 64,
      "start": 67.1045,
      "duration": 0.1309,
      "velocity": 120,
      "chip": "ym2612"
    },
    {
      "channel": 2,
      "note": 52,
      "start": 67.105,
      "duration": 0.1304,
      "velocity": 107,
      "chip": "ym2612"
    },
    {
      "channel": 3,
      "note": 70,
      "start": 67.1055,
      "duration": 0.13,
      "velocity": 97,
      "chip": "ym2612"
    },
    {
      "channel": 4,
      "note": 64,
      "start": 67.1059,
      "duration": 0.0289,
      "velocity": 97,
      "chip": "ym2612"
    },
    {
      "channel": 5,
      "note": 99,
      "start": 67.1074,
      "duration": 0.1282,
      "velocity": 112,
      "chip": "ym2612"
    },
    {
      "channel": 0,
      "note": 66,
      "start": 67.2384,
      "duration": 0.1308,
      "velocity": 120,
      "chip": "ym2612"
    },
    {
      "channel": 2,
      "note": 52,
      "start": 67.2388,
      "duration": 0.1304,
      "velocity": 107,
      "chip": "ym2612"
    },
    {
      "channel": 3,
      "note": 69,
      "start": 67.2393,
      "duration": 0.13,
      "velocity": 97,
      "chip": "ym2612"
    },
    {
      "channel": 4,
      "note": 62,
      "start": 67.2398,
      "duration": 0.029,
      "velocity": 97,
      "chip": "ym2612"
    },
    {
      "channel": 5,
      "note": 99,
      "start": 67.2412,
      "duration": 0.1282,
      "velocity": 115,
      "chip": "ym2612"
    },
    {
      "channel": 1,
      "note": 64,
      "start": 67.3054,
      "duration": 0.1308,
      "velocity": 120,
      "chip": "ym2612"
    },
    {
      "channel": 0,
      "note": 67,
      "start": 67.3726,
      "duration": 0.8002,
      "velocity": 120,
      "chip": "ym2612"
    },
    {
      "channel": 2,
      "note": 55,
      "start": 67.373,
      "duration": 0.264,
      "velocity": 107,
      "chip": "ym2612"
    },
    {
      "channel": 3,
      "note": 67,
      "start": 67.3735,
      "duration": 0.7995,
      "velocity": 97,
      "chip": "ym2612"
    },
    {
      "channel": 4,
      "note": 62,
      "start": 67.3739,
      "duration": 0.3973,
      "velocity": 97,
      "chip": "ym2612"
    },
    {
      "channel": 5,
      "note": 99,
      "start": 67.3744,
      "duration": 0.1286,
      "velocity": 115,
      "chip": "ym2612"
    },
    {
      "channel": 1,
      "note": 66,
      "start": 67.4393,
      "duration": 0.1307,
      "velocity": 120,
      "chip": "ym2612"
    },
    {
      "channel": 5,
      "note": 99,
      "start": 67.5063,
      "duration": 0.1308,
      "velocity": 115,
      "chip": "ym2612"
    },
    {
      "channel": 1,
      "note": 67,
      "start": 67.5732,
      "duration": 0.8004,
      "velocity": 120,
      "chip": "ym2612"
    },
    {
      "channel": 2,
      "note": 55,
      "start": 67.6406,
      "duration": 0.1306,
      "velocity": 107,
      "chip": "ym2612"
    },
    {
      "channel": 5,
      "note": 99,
      "start": 67.6411,
      "duration": 0.1303,
      "velocity": 115,
      "chip": "ym2612"
    },
    {
      "channel": 2,
      "note": 55,
      "start": 67.7741,
      "duration": 0.1308,
      "velocity": 107,
      "chip": "ym2612"
    },
    {
      "channel": 5,
      "note": 99,
      "start": 67.7746,
      "duration": 0.1304,
      "velocity": 115,
      "chip": "ym2612"
    },
    {
      "channel": 2,
      "note": 55,
      "start": 67.908,
      "duration": 0.1308,
      "velocity": 107,
      "chip": "ym2612"
    },
    {
      "channel": 5,
      "note": 99,
      "start": 67.9085,
      "duration": 0.1304,
      "velocity": 115,
      "chip": "ym2612"
    },
    {
      "channel": 2,
      "note": 55,
      "start": 68.0419,
      "duration": 0.131,
      "velocity": 107,
      "chip": "ym2612"
    },
    {
      "channel": 5,
      "note": 99,
      "start": 68.0428,
      "duration": 0.1303,
      "velocity": 115,
      "chip": "ym2612"
    },
    {
      "channel": 0,
      "note": 68,
      "start": 68.1758,
      "duration": 0.0667,
      "velocity": 120,
      "chip": "ym2612"
    },
    {
      "channel": 2,
      "note": 55,
      "start": 68.1763,
      "duration": 0.1303,
      "velocity": 107,
      "chip": "ym2612"
    },
    {
      "channel": 3,
      "note": 69,
      "start": 68.1767,
      "duration": 0.13,
      "velocity": 97,
      "chip": "ym2612"
    },
    {
      "channel": 4,
      "note": 62,
      "start": 68.1772,
      "duration": 0.029,
      "velocity": 97,
      "chip": "ym2612"
    },
    {
      "channel": 5,
      "note": 99,
      "start": 68.1787,
      "duration": 0.1282,
      "velocity": 112,
      "chip": "ym2612"
    },
    {
      "channel": 0,
      "note": 69,
      "start": 68.243,
      "duration": 0.1976,
      "velocity": 120,
      "chip": "ym2612"
    },
    {
      "channel": 2,
      "note": 55,
      "start": 68.3098,
      "duration": 0.1308,
      "velocity": 107,
      "chip": "ym2612"
    },
    {
      "channel": 3,
      "note": 67,
      "start": 68.3102,
      "duration": 0.1305,
      "velocity": 97,
      "chip": "ym2612"
    },
    {
      "channel": 4,
      "note": 60,
      "start": 68.3107,
      "duration": 0.0294,
      "velocity": 97,
      "chip": "ym2612"
    },
    {
      "channel": 5,
      "note": 99,
      "start": 68.3124,
      "duration": 0.1284,
      "velocity": 115,
      "chip": "ym2612"
    },
    {
      "channel": 1,
      "note": 68,
      "start": 68.3767,
      "duration": 0.0666,
      "velocity": 120,
      "chip": "ym2612"
    },
    {
      "channel": 0,
      "note": 65,
      "start": 68.4437,
      "duration": 0.3988,
      "velocity": 120,
      "chip": "ym2612"
    },
    {
      "channel": 1,
      "note": 69,
      "start": 68.4442,
      "duration": 0.1972,
      "velocity": 120,
      "chip": "ym2612"
    },
    {
      "channel": 2,
      "note": 53,
      "start": 68.4447,
      "duration": 0.2637,
      "velocity": 107,
      "chip": "ym2612"
    },
    {
      "channel": 3,
      "note": 65,
      "start": 68.4451,
      "duration": 0.5313,
      "velocity": 97,
      "chip": "ym2612"
    },
    {
      "channel": 4,
      "note": 57,
      "start": 68.4457,
      "duration": 0.2292,
      "velocity": 97,
      "chip": "ym2612"
    },
    {
      "channel": 5,
      "note": 99,
      "start": 68.4463,
      "duration": 0.1281,
      "velocity": 115,
      "chip": "ym2612"
    },
    {
      "channel": 5,
      "note": 99,
      "start": 68.5776,
      "duration": 0.1308,
      "velocity": 115,
      "chip": "ym2612"
    },
    {
      "channel": 1,
      "note": 65,
      "start": 68.6446,
      "duration": 0.3986,
      "velocity": 120,
      "chip": "ym2612"
    },
    {
      "channel": 2,
      "note": 65,
      "start": 68.7115,
      "duration": 0.1311,
      "velocity": 107,
      "chip": "ym2612"
    },
    {
      "channel": 5,
      "note": 99,
      "start": 68.712,
      "duration": 0.1307,
      "velocity": 115,
      "chip": "ym2612"
    },
    {
      "channel": 0,
      "note": 67,
      "start": 68.8455,
      "duration": 0.1307,
      "velocity": 120,
      "chip": "ym2612"
    },
    {
      "channel": 2,
      "note": 50,
      "start": 68.846,
      "duration": 0.1303,
      "velocity": 107,
      "chip": "ym2612"
    },
    {
      "channel": 5,
      "note": 99,
      "start": 68.8465,
      "duration": 0.13,
      "velocity": 115,
      "chip": "ym2612"
    },
    {
      "channel": 0,
      "note": 69,
      "start": 68.9793,
      "duration": 0.6667,
      "velocity": 120,
      "chip": "ym2612"
    },
    {
      "channel": 2,
      "note": 50,
      "start": 68.9799,
      "duration": 0.1303,
      "velocity": 107,
      "chip": "ym2612"
    },
    {
      "channel": 3,
      "note": 69,
      "start": 68.9803,
      "duration": 0.666,
      "velocity": 97,
      "chip": "ym2612"
    },
    {
      "channel": 4,
      "note": 53,
      "start": 68.9808,
      "duration": 0.2634,
      "velocity": 97,
      "chip": "ym2612"
    },
    {
      "channel": 5,
      "note": 99,
      "start": 68.9813,
      "duration": 0.129,
      "velocity": 115,
      "chip": "ym2612"
    },
    {
      "channel": 1,
      "note": 67,
      "start": 69.0464,
      "duration": 0.1307,
      "velocity": 120,
      "chip": "ym2612"
    },
    {
      "channel": 2,
      "note": 50,
      "start": 69.1133,
      "duration": 0.1308,
      "velocity": 107,
      "chip": "ym2612"
    },
    {
      "channel": 5,
      "note": 99,
      "start": 69.1138,
      "duration": 0.1305,
      "velocity": 115,
      "chip": "ym2612"
    },
    {
      "channel": 1,
      "note": 69,
      "start": 69.1802,
      "duration": 0.4659,
      "velocity": 120,
      "chip": "ym2612"
    },
    {
      "channel": 2,
      "note": 50,
      "start": 69.2473,
      "duration": 0.1307,
      "velocity": 107,
      "chip": "ym2612"
    },
    {
      "channel": 5,
      "note": 99,
      "start": 69.2486,
      "duration": 0.1294,
      "velocity": 112,
      "chip": "ym2612"
    },
    {
      "channel": 2,
      "note": 62,
      "start": 69.3811,
      "duration": 0.1309,
      "velocity": 107,
      "chip": "ym2612"
    },
    {
      "channel": 5,
      "note": 99,
      "start": 69.3827,
      "duration": 0.1294,
      "velocity": 115,
      "chip": "ym2612"
    },
    {
      "channel": 2,
      "note": 50,
      "start": 69.515,
      "duration": 0.1312,
      "velocity": 107,
      "chip": "ym2612"
    },
    {
      "channel": 5,
      "note": 99,
      "start": 69.5155,
      "duration": 0.1309,
      "velocity": 115,
      "chip": "ym2612"
    },
    {
      "channel": 0,
      "note": 69,
      "start": 69.6489,
      "duration": 0.0667,
      "velocity": 120,
      "chip": "ym2612"
    },
    {
      "channel": 2,
      "note": 55,
      "start": 69.6494,
      "duration": 0.1303,
      "velocity": 107,
      "chip": "ym2612"
    },
    {
      "channel": 3,
      "note": 67,
      "start": 69.6508,
      "duration": 0.6647,
      "velocity": 120,
      "chip": "ym2612"
    },
    {
      "channel": 5,
      "note": 103,
      "start": 69.6534,
      "duration": 0.2603,
      "velocity": 127,
      "chip": "ym2612"
    },
    {
      "channel": 0,
      "note": 70,
      "start": 69.7161,
      "duration": 0.5993,
      "velocity": 120,
      "chip": "ym2612"
    },
    {
      "channel": 2,
      "note": 55,
      "start": 69.7829,
      "duration": 0.1307,
      "velocity": 107,
      "chip": "ym2612"
    },
    {
      "channel": 4,
      "note": 62,
      "start": 69.7833,
      "duration": 0.0132,
      "velocity": 97,
      "chip": "ym2612"
    },
    {
      "channel": 1,
      "note": 69,
      "start": 69.85,
      "duration": 0.0665,
      "velocity": 120,
      "chip": "ym2612"
    },
    {
      "channel": 4,
      "note": 62,
      "start": 69.8504,
      "duration": 0.013,
      "velocity": 97,
      "chip": "ym2612"
    },
    {
      "channel": 1,
      "note": 70,
      "start": 69.9169,
      "duration": 0.5994,
      "velocity": 120,
      "chip": "ym2612"
    },
    {
      "channel": 2,
      "note": 55,
      "start": 69.9174,
      "duration": 0.1301,
      "velocity": 107,
      "chip": "ym2612"
    },
    {
      "channel": 4,
      "note": 65,
      "start": 69.9179,
      "duration": 0.0125,
      "velocity": 97,
      "chip": "ym2612"
    },
    {
      "channel": 5,
      "note": 103,
      "start": 69.9184,
      "duration": 0.2632,
      "velocity": 127,
      "chip": "ym2612"
    },
    {
      "channel": 4,
      "note": 65,
      "start": 69.9837,
      "duration": 0.0136,
      "velocity": 97,
      "chip": "ym2612"
    },
    {
      "channel": 2,
      "note": 55,
      "start": 70.0508,
      "duration": 0.1307,
      "velocity": 107,
      "chip": "ym2612"
    },
    {
      "channel": 4,
      "note": 62,
      "start": 70.0513,
      "duration": 0.0131,
      "velocity": 97,
      "chip": "ym2612"
    },
    {
      "channel": 4,
      "note": 62,
      "start": 70.1177,
      "duration": 0.0136,
      "velocity": 97,
      "chip": "ym2612"
    },
    {
      "channel": 2,
      "note": 55,
      "start": 70.1846,
      "duration": 0.1309,
      "velocity": 107,
      "chip": "ym2612"
    },
    {
      "channel": 4,
      "note": 72,
      "start": 70.1851,
      "duration": 0.0131,
      "velocity": 97,
      "chip": "ym2612"
    },
    {
      "channel": 5,
      "note": 103,
      "start": 70.1856,
      "duration": 0.264,
      "velocity": 127,
      "chip": "ym2612"
    },
    {
      "channel": 4,
      "note": 72,
      "start": 70.2516,
      "duration": 0.0137,
      "velocity": 97,
      "chip": "ym2612"
    },
    {
      "channel": 0,
      "note": 72,
      "start": 70.3186,
      "duration": 0.1307,
      "velocity": 120,
      "chip": "ym2612"
    },
    {
      "channel": 2,
      "note": 55,
      "start": 70.3191,
      "duration": 0.1303,
      "velocity": 107,
      "chip": "ym2612"
    },
    {
      "channel": 3,
      "note": 69,
      "start": 70.3195,
      "duration": 0.13,
      "velocity": 120,
      "chip": "ym2612"
    },
    {
      "channel": 4,
      "note": 74,
      "start": 70.32,
      "duration": 0.0124,
      "velocity": 97,
      "chip": "ym2612"
    },
    {
      "channel": 4,
      "note": 74,
      "start": 70.3855,
      "duration": 0.0136,
      "velocity": 97,
      "chip": "ym2612"
    },
    {
      "channel": 0,
      "note": 74,
      "start": 70.4532,
      "duration": 0.1328,
      "velocity": 120,
      "chip": "ym2612"
    },
    {
      "channel": 2,
      "note": 55,
      "start": 70.4537,
      "duration": 0.1324,
      "velocity": 107,
      "chip": "ym2612"
    },
    {
      "channel": 3,
      "note": 70,
      "start": 70.4542,
      "duration": 0.132,
      "velocity": 120,
      "chip": "ym2612"
    },
    {
      "channel": 4,
      "note": 76,
      "start": 70.4546,
      "duration": 0.0114,
      "velocity": 97,
      "chip": "ym2612"
    },
    {
      "channel": 5,
      "note": 103,
      "start": 70.4552,
      "duration": 0.2649,
      "velocity": 127,
      "chip": "ym2612"
    },
    {
      "channel": 1,
      "note": 72,
      "start": 70.5194,
      "duration": 0.1337,
      "velocity": 120,
      "chip": "ym2612"
    },
    {
      "channel": 4,
      "note": 76,
      "start": 70.5199,
      "duration": 0.0135,
      "velocity": 97,
      "chip": "ym2612"
    },
    {
      "channel": 0,
      "note": 72,
      "start": 70.5892,
      "duration": 0.5326,
      "velocity": 120,
      "chip": "ym2612"
    },
    {
      "channel": 2,
      "note": 57,
      "start": 70.5896,
      "duration": 0.2643,
      "velocity": 107,
      "chip": "ym2612"
    },
    {
      "channel": 3,
      "note": 69,
      "start": 70.5901,
      "duration": 0.5318,
      "velocity": 120,
      "chip": "ym2612"
    },
    {
      "channel": 4,
      "note": 72,
      "start": 70.5905,
      "duration": 0.0123,
      "velocity": 97,
      "chip": "ym2612"
    },
    {
      "channel": 1,
      "note": 74,
      "start": 70.6561,
      "duration": 0.1309,
      "velocity": 120,
      "chip": "ym2612"
    },
    {
      "channel": 4,
      "note": 72,
      "start": 70.6566,
      "duration": 0.0132,
      "velocity": 97,
      "chip": "ym2612"
    },
    {
      "channel": 5,
      "note": 103,
      "start": 70.7231,
      "duration": 0.2648,
      "velocity": 127,
      "chip": "ym2612"
    },
    {
      "channel": 1,
      "note": 72,
      "start": 70.7901,
      "duration": 0.5324,
      "velocity": 120,
      "chip": "ym2612"
    },
    {
      "channel": 2,
      "note": 57,
      "start": 70.857,
      "duration": 0.1308,
      "velocity": 107,
      "chip": "ym2612"
    },
    {
      "channel": 4,
      "note": 72,
      "start": 70.8575,
      "duration": 0.0132,
      "velocity": 97,
      "chip": "ym2612"
    },
    {
      "channel": 4,
      "note": 72,
      "start": 70.924,
      "duration": 0.0136,
      "velocity": 97,
      "chip": "ym2612"
    },
    {
      "channel": 2,
      "note": 57,
      "start": 70.991,
      "duration": 0.1308,
      "velocity": 107,
      "chip": "ym2612"
    },
    {
      "channel": 4,
      "note": 76,
      "start": 70.9914,
      "duration": 0.0131,
      "velocity": 97,
      "chip": "ym2612"
    },
    {
      "channel": 5,
      "note": 103,
      "start": 70.9919,
      "duration": 0.2638,
      "velocity": 127,
      "chip": "ym2612"
    },
    {
      "channel": 4,
      "note": 76,
      "start": 71.0579,
      "duration": 0.0136,
      "velocity": 97,
      "chip": "ym2612"
    },
    {
      "channel": 0,
      "note": 69,
      "start": 71.1249,
      "duration": 0.5326,
      "velocity": 120,
      "chip": "ym2612"
    },
    {
      "channel": 2,
      "note": 57,
      "start": 71.1253,
      "duration": 0.1303,
      "velocity": 107,
      "chip": "ym2612"
    },
    {
      "channel": 3,
      "note": 64,
      "start": 71.1258,
      "duration": 0.5319,
      "velocity": 120,
      "chip": "ym2612"
    },
    {
      "channel": 4,
      "note": 72,
      "start": 71.1262,
      "duration": 0.0123,
      "velocity": 97,
      "chip": "ym2612"
    },
    {
      "channel": 4,
      "note": 72,
      "start": 71.1919,
      "duration": 0.0135,
      "velocity": 97,
      "chip": "ym2612"
    },
    {
      "channel": 2,
      "note": 57,
      "start": 71.2593,
      "duration": 0.1306,
      "velocity": 107,
      "chip": "ym2612"
    },
    {
      "channel": 4,
      "note": 81,
      "start": 71.2598,
      "duration": 0.0127,
      "velocity": 97,
      "chip": "ym2612"
    },
    {
      "channel": 5,
      "note": 103,
      "start": 71.2602,
      "duration": 0.2634,
      "velocity": 127,
      "chip": "ym2612"
    },
    {
      "channel": 1,
      "note": 69,
      "start": 71.3259,
      "duration": 0.5324,
      "velocity": 120,
      "chip": "ym2612"
    },
    {
      "channel": 4,
      "note": 81,
      "start": 71.3263,
      "duration": 0.013,
      "velocity": 97,
      "chip": "ym2612"
    },
    {
      "channel": 2,
      "note": 57,
      "start": 71.3928,
      "duration": 0.1307,
      "velocity": 107,
      "chip": "ym2612"
    },
    {
      "channel": 4,
      "note": 72,
      "start": 71.3933,
      "duration": 0.0131,
      "velocity": 97,
      "chip": "ym2612"
    },
    {
      "channel": 4,
      "note": 72,
      "start": 71.4599,
      "duration": 0.0134,
      "velocity": 97,
      "chip": "ym2612"
    },
    {
      "channel": 2,
      "note": 57,
      "start": 71.5266,
      "duration": 0.131,
      "velocity": 107,
      "chip": "ym2612"
    },
    {
      "channel": 4,
      "note": 74,
      "start": 71.5271,
      "duration": 0.0133,
      "velocity": 97,
      "chip": "ym2612"
    },
    {
      "channel": 5,
      "note": 103,
      "start": 71.5276,
      "duration": 0.2639,
      "velocity": 127,
      "chip": "ym2612"
    },
    {
      "channel": 4,
      "note": 74,
      "start": 71.5936,
      "duration": 0.0136,
      "velocity": 97,
      "chip": "ym2612"
    },
    {
      "channel": 0,
      "note": 67,
      "start": 71.6605,
      "duration": 0.8004,
      "velocity": 120,
      "chip": "ym2612"
    },
    {
      "channel": 2,
      "note": 58,
      "start": 71.6611,
      "duration": 0.2641,
      "velocity": 107,
      "chip": "ym2612"
    },
    {
      "channel": 3,
      "note": 62,
      "start": 71.6615,
      "duration": 0.7995,
      "velocity": 120,
      "chip": "ym2612"
    },
    {
      "channel": 4,
      "note": 76,
      "start": 71.662,
      "duration": 0.0121,
      "velocity": 97,
      "chip": "ym2612"
    },
    {
      "channel": 4,
      "note": 76,
      "start": 71.7275,
      "duration": 0.0137,
      "velocity": 97,
      "chip": "ym2612"
    },
    {
      "channel": 5,
      "note": 103,
      "start": 71.7945,
      "duration": 0.2648,
      "velocity": 127,
      "chip": "ym2612"
    },
    {
      "channel": 1,
      "note": 67,
      "start": 71.8615,
      "duration": 0.8003,
      "velocity": 120,
      "chip": "ym2612"
    },
    {
      "channel": 2,
      "note": 58,
      "start": 71.9284,
      "duration": 0.1308,
      "velocity": 107,
      "chip": "ym2612"
    },
    {
      "channel": 4,
      "note": 70,
      "start": 71.9288,
      "duration": 0.0132,
      "velocity": 97,
      "chip": "ym2612"
    },
    {
      "channel": 4,
      "note": 70,
      "start": 71.9954,
      "duration": 0.0135,
      "velocity": 97,
      "chip": "ym2612"
    },
    {
      "channel": 2,
      "note": 58,
      "start": 72.0626,
      "duration": 0.1306,
      "velocity": 107,
      "chip": "ym2612"
    },
    {
      "channel": 4,
      "note": 74,
      "start": 72.063,
      "duration": 0.013,
      "velocity": 97,
      "chip": "ym2612"
    },
    {
      "channel": 5,
      "note": 103,
      "start": 72.0635,
      "duration": 0.2641,
      "velocity": 127,
      "chip": "ym2612"
    },
    {
      "channel": 4,
      "note": 74,
      "start": 72.1293,
      "duration": 0.0136,
      "velocity": 97,
      "chip": "ym2612"
    },
    {
      "channel": 2,
      "note": 58,
      "start": 72.1966,
      "duration": 0.1308,
      "velocity": 107,
      "chip": "ym2612"
    },
    {
      "channel": 4,
      "note": 70,
      "start": 72.1971,
      "duration": 0.0127,
      "velocity": 97,
      "chip": "ym2612"
    },
    {
      "channel": 4,
      "note": 70,
      "start": 72.2632,
      "duration": 0.0137,
      "velocity": 97,
      "chip": "ym2612"
    },
    {
      "channel": 2,
      "note": 58,
      "start": 72.3301,
      "duration": 0.1309,
      "velocity": 107,
      "chip": "ym2612"
    },
    {
      "channel": 4,
      "note": 79,
      "start": 72.3306,
      "duration": 0.0131,
      "velocity": 97,
      "chip": "ym2612"
    },
    {
      "channel": 5,
      "note": 103,
      "start": 72.3311,
      "duration": 0.264,
      "velocity": 127,
      "chip": "ym2612"
    },
    {
      "channel": 4,
      "note": 79,
      "start": 72.3973,
      "duration": 0.0134,
      "velocity": 97,
      "chip": "ym2612"
    },
    {
      "channel": 0,
      "note": 69,
      "start": 72.4641,
      "duration": 0.1308,
      "velocity": 120,
      "chip": "ym2612"
    },
    {
      "channel": 2,
      "note": 58,
      "start": 72.4645,
      "duration": 0.1304,
      "velocity": 107,
      "chip": "ym2612"
    },
    {
      "channel": 3,
      "note": 64,
      "start": 72.465,
      "duration": 0.13,
      "velocity": 120,
      "chip": "ym2612"
    },
    {
      "channel": 4,
      "note": 70,
      "start": 72.4654,
      "duration": 0.0124,
      "velocity": 97,
      "chip": "ym2612"
    },
    {
      "channel": 4,
      "note": 70,
      "start": 72.531,
      "duration": 0.0137,
      "velocity": 97,
      "chip": "ym2612"
    },
    {
      "channel": 0,
      "note": 70,
      "start": 72.598,
      "duration": 0.1308,
      "velocity": 120,
      "chip": "ym2612"
    },
    {
      "channel": 2,
      "note": 58,
      "start": 72.5986,
      "duration": 0.1303,
      "velocity": 107,
      "chip": "ym2612"
    },
    {
      "channel": 3,
      "note": 65,
      "start": 72.5991,
      "duration": 0.13,
      "velocity": 120,
      "chip": "ym2612"
    },
    {
      "channel": 4,
      "note": 74,
      "start": 72.5995,
      "duration": 0.0121,
      "velocity": 97,
      "chip": "ym2612"
    },
    {
      "channel": 5,
      "note": 103,
      "start": 72.6,
      "duration": 0.2627,
      "velocity": 127,
      "chip": "ym2612"
    },
    {
      "channel": 1,
      "note": 69,
      "start": 72.665,
      "duration": 0.1308,
      "velocity": 120,
      "chip": "ym2612"
    },
    {
      "channel": 4,
      "note": 74,
      "start": 72.6655,
      "duration": 0.013,
      "velocity": 97,
      "chip": "ym2612"
    },
    {
      "channel": 0,
      "note": 69,
      "start": 72.732,
      "duration": 1.202,
      "velocity": 120,
      "chip": "ym2612"
    },
    {
      "channel": 2,
      "note": 57,
      "start": 72.7327,
      "duration": 0.264,
      "velocity": 107,
      "chip": "ym2612"
    },
    {
      "channel": 3,
      "note": 64,
      "start": 72.7332,
      "duration": 1.2012,
      "velocity": 120,
      "chip": "ym2612"
    },
    {
      "channel": 4,
      "note": 69,
      "start": 72.7336,
      "duration": 0.0119,
      "velocity": 97,
      "chip": "ym2612"
    },
    {
      "channel": 1,
      "note": 70,
      "start": 72.7989,
      "duration": 0.1308,
      "velocity": 120,
      "chip": "ym2612"
    },
    {
      "channel": 4,
      "note": 69,
      "start": 72.7993,
      "duration": 0.0132,
      "velocity": 97,
      "chip": "ym2612"
    },
    {
      "channel": 5,
      "note": 103,
      "start": 72.8659,
      "duration": 0.2648,
      "velocity": 127,
      "chip": "ym2612"
    },
    {
      "channel": 1,
      "note": 69,
      "start": 72.9329,
      "duration": 1.0013,
      "velocity": 120,
      "chip": "ym2612"
    },
    {
      "channel": 2,
      "note": 57,
      "start": 72.9998,
      "duration": 0.1308,
      "velocity": 107,
      "chip": "ym2612"
    },
    {
      "channel": 4,
      "note": 69,
      "start": 73.0002,
      "duration": 0.0131,
      "velocity": 97,
      "chip": "ym2612"
    },
    {
      "channel": 4,
      "note": 69,
      "start": 73.0667,
      "duration": 0.0137,
      "velocity": 97,
      "chip": "ym2612"
    },
    {
      "channel": 2,
      "note": 57,
      "start": 73.1337,
      "duration": 0.1307,
      "velocity": 107,
      "chip": "ym2612"
    },
    {
      "channel": 4,
      "note": 72,
      "start": 73.1342,
      "duration": 0.0131,
      "velocity": 97,
      "chip": "ym2612"
    },
    {
      "channel": 5,
      "note": 103,
      "start": 73.1347,
      "duration": 0.2639,
      "velocity": 127,
      "chip": "ym2612"
    },
    {
      "channel": 4,
      "note": 72,
      "start": 73.2007,
      "duration": 0.0138,
      "velocity": 97,
      "chip": "ym2612"
    },
    {
      "channel": 2,
      "note": 57,
      "start": 73.2676,
      "duration": 0.1309,
      "velocity": 107,
      "chip": "ym2612"
    },
    {
      "channel": 4,
      "note": 69,
      "start": 73.268,
      "duration": 0.0132,
      "velocity": 97,
      "chip": "ym2612"
    },
    {
      "channel": 4,
      "note": 69,
      "start": 73.3346,
      "duration": 0.0136,
      "velocity": 97,
      "chip": "ym2612"
    },
    {
      "channel": 2,
      "note": 57,
      "start": 73.4016,
      "duration": 0.131,
      "velocity": 107,
      "chip": "ym2612"
    },
    {
      "channel": 4,
      "note": 74,
      "start": 73.402,
      "duration": 0.0131,
      "velocity": 97,
      "chip": "ym2612"
    },
    {
      "channel": 5,
      "note": 103,
      "start": 73.4028,
      "duration": 0.2635,
      "velocity": 127,
      "chip": "ym2612"
    },
    {
      "channel": 4,
      "note": 74,
      "start": 73.4685,
      "duration": 0.0136,
      "velocity": 97,
      "chip": "ym2612"
    },
    {
      "channel": 2,
      "note": 57,
      "start": 73.5354,
      "duration": 0.1308,
      "velocity": 107,
      "chip": "ym2612"
    },
    {
      "channel": 4,
      "note": 69,
      "start": 73.536,
      "duration": 0.013,
      "velocity": 97,
      "chip": "ym2612"
    },
    {
      "channel": 4,
      "note": 69,
      "start": 73.6026,
      "duration": 0.0134,
      "velocity": 97,
      "chip": "ym2612"
    },
    {
      "channel": 2,
      "note": 57,
      "start": 73.6694,
      "duration": 0.1307,
      "velocity": 107,
      "chip": "ym2612"
    },
    {
      "channel": 4,
      "note": 76,
      "start": 73.6699,
      "duration": 0.0131,
      "velocity": 97,
      "chip": "ym2612"
    },
    {
      "channel": 5,
      "note": 103,
      "start": 73.6704,
      "duration": 0.2641,
      "velocity": 127,
      "chip": "ym2612"
    },
    {
      "channel": 4,
      "note": 76,
      "start": 73.7364,
      "duration": 0.0135,
      "velocity": 97,
      "chip": "ym2612"
    },
    {
      "channel": 2,
      "note": 57,
      "start": 73.8033,
      "duration": 0.131,
      "velocity": 107,
      "chip": "ym2612"
    },
    {
      "channel": 4,
      "note": 69,
      "start": 73.8037,
      "duration": 0.0132,
      "velocity": 97,
      "chip": "ym2612"
    },
    {
      "channel": 4,
      "note": 69,
      "start": 73.8703,
      "duration": 0.0136,
      "velocity": 97,
      "chip": "ym2612"
    },
    {
      "channel": 0,
      "note": 69,
      "start": 73.9372,
      "duration": 0.0666,
      "velocity": 120,
      "chip": "ym2612"
    },
    {
      "channel": 2,
      "note": 55,
      "start": 73.9376,
      "duration": 0.1304,
      "velocity": 107,
      "chip": "ym2612"
    },
    {
      "channel": 3,
      "note": 67,
      "start": 73.9381,
      "duration": 0.6657,
      "velocity": 120,
      "chip": "ym2612"
    },
    {
      "channel": 5,
      "note": 103,
      "start": 73.9405,
      "duration": 0.2614,
      "velocity": 127,
      "chip": "ym2612"
    },
    {
      "channel": 0,
      "note": 70,
      "start": 74.0042,
      "duration": 0.5994,
      "velocity": 120,
      "chip": "ym2612"
    },
    {
      "channel": 2,
      "note": 55,
      "start": 74.0711,
      "duration": 0.1308,
      "velocity": 107,
      "chip": "ym2612"
    },
    {
      "channel": 4,
      "note": 62,
      "start": 74.0715,
      "duration": 0.0132,
      "velocity": 97,
      "chip": "ym2612"
    },
    {
      "channel": 1,
      "note": 69,
      "start": 74.1381,
      "duration": 0.0665,
      "velocity": 120,
      "chip": "ym2612"
    },
    {
      "channel": 4,
      "note": 62,
      "start": 74.1386,
      "duration": 0.0133,
      "velocity": 97,
      "chip": "ym2612"
    },
    {
      "channel": 1,
      "note": 70,
      "start": 74.2051,
      "duration": 0.5994,
      "velocity": 120,
      "chip": "ym2612"
    },
    {
      "channel": 2,
      "note": 55,
      "start": 74.2056,
      "duration": 0.1302,
      "velocity": 107,
      "chip": "ym2612"
    },
    {
      "channel": 4,
      "note": 65,
      "start": 74.206,
      "duration": 0.0127,
      "velocity": 97,
      "chip": "ym2612"
    },
    {
      "channel": 5,
      "note": 103,
      "start": 74.2065,
      "duration": 0.2634,
      "velocity": 127,
      "chip": "ym2612"
    },
    {
      "channel": 4,
      "note": 65,
      "start": 74.2724,
      "duration": 0.0132,
      "velocity": 97,
      "chip": "ym2612"
    },
    {
      "channel": 2,
      "note": 55,
      "start": 74.339,
      "duration": 0.1309,
      "velocity": 107,
      "chip": "ym2612"
    },
    {
      "channel": 4,
      "note": 62,
      "start": 74.3394,
      "duration": 0.0132,
      "velocity": 97,
      "chip": "ym2612"
    },
    {
      "channel": 4,
      "note": 62,
      "start": 74.406,
      "duration": 0.0136,
      "velocity": 97,
      "chip": "ym2612"
    },
    {
      "channel": 2,
      "note": 55,
      "start": 74.4729,
      "duration": 0.131,
      "velocity": 107,
      "chip": "ym2612"
    },
    {
      "channel": 4,
      "note": 72,
      "start": 74.4734,
      "duration": 0.0131,
      "velocity": 97,
      "chip": "ym2612"
    },
    {
      "channel": 5,
      "note": 103,
      "start": 74.4739,
      "duration": 0.264,
      "velocity": 127,
      "chip": "ym2612"
    },
    {
      "channel": 4,
      "note": 72,
      "start": 74.5399,
      "duration": 0.0135,
      "velocity": 97,
      "chip": "ym2612"
    },
    {
      "channel": 0,
      "note": 72,
      "start": 74.6069,
      "duration": 0.1308,
      "velocity": 120,
      "chip": "ym2612"
    },
    {
      "channel": 2,
      "note": 55,
      "start": 74.6073,
      "duration": 0.1304,
      "velocity": 107,
      "chip": "ym2612"
    },
    {
      "channel": 3,
      "note": 69,
      "start": 74.6078,
      "duration": 0.13,
      "velocity": 120,
      "chip": "ym2612"
    },
    {
      "channel": 4,
      "note": 74,
      "start": 74.6082,
      "duration": 0.0122,
      "velocity": 97,
      "chip": "ym2612"
    },
    {
      "channel": 4,
      "note": 74,
      "start": 74.6737,
      "duration": 0.0136,
      "velocity": 97,
      "chip": "ym2612"
    },
    {
      "channel": 0,
      "note": 74,
      "start": 74.7407,
      "duration": 0.1307,
      "velocity": 120,
      "chip": "ym2612"
    },
    {
      "channel": 2,
      "note": 55,
      "start": 74.7412,
      "duration": 0.1304,
      "velocity": 107,
      "chip": "ym2612"
    },
    {
      "channel": 3,
      "note": 70,
      "start": 74.7417,
      "duration": 0.13,
      "velocity": 120,
      "chip": "ym2612"
    },
    {
      "channel": 4,
      "note": 76,
      "start": 74.7424,
      "duration": 0.012,
      "velocity": 97,
      "chip": "ym2612"
    },
    {
      "channel": 5,
      "note": 103,
      "start": 74.7429,
      "duration": 0.2626,
      "velocity": 127,
      "chip": "ym2612"
    },
    {
      "channel": 1,
      "note": 72,
      "start": 74.8077,
      "duration": 0.1307,
      "velocity": 120,
      "chip": "ym2612"
    },
    {
      "channel": 4,
      "note": 76,
      "start": 74.8081,
      "duration": 0.0132,
      "velocity": 97,
      "chip": "ym2612"
    },
    {
      "channel": 0,
      "note": 72,
      "start": 74.8747,
      "duration": 0.5325,
      "velocity": 120,
      "chip": "ym2612"
    },
    {
      "channel": 2,
      "note": 57,
      "start": 74.8752,
      "duration": 0.2645,
      "velocity": 107,
      "chip": "ym2612"
    },
    {
      "channel": 3,
      "note": 69,
      "start": 74.8756,
      "duration": 0.5318,
      "velocity": 120,
      "chip": "ym2612"
    },
    {
      "channel": 4,
      "note": 72,
      "start": 74.8761,
      "duration": 0.0121,
      "velocity": 97,
      "chip": "ym2612"
    },
    {
      "channel": 1,
      "note": 74,
      "start": 74.9417,
      "duration": 0.1309,
      "velocity": 120,
      "chip": "ym2612"
    },
    {
      "channel": 4,
      "note": 72,
      "start": 74.9424,
      "duration": 0.0128,
      "velocity": 97,
      "chip": "ym2612"
    },
    {
      "channel": 5,
      "note": 103,
      "start": 75.0091,
      "duration": 0.2642,
      "velocity": 127,
      "chip": "ym2612"
    },
    {
      "channel": 1,
      "note": 72,
      "start": 75.0755,
      "duration": 0.5326,
      "velocity": 120,
      "chip": "ym2612"
    },
    {
      "channel": 2,
      "note": 57,
      "start": 75.1428,
      "duration": 0.1305,
      "velocity": 107,
      "chip": "ym2612"
    },
    {
      "channel": 4,
      "note": 72,
      "start": 75.1432,
      "duration": 0.0129,
      "velocity": 97,
      "chip": "ym2612"
    },
    {
      "channel": 4,
      "note": 72,
      "start": 75.2096,
      "duration": 0.0135,
      "velocity": 97,
      "chip": "ym2612"
    },
    {
      "channel": 2,
      "note": 57,
      "start": 75.2764,
      "duration": 0.131,
      "velocity": 107,
      "chip": "ym2612"
    },
    {
      "channel": 4,
      "note": 76,
      "start": 75.2768,
      "duration": 0.0133,
      "velocity": 97,
      "chip": "ym2612"
    },
    {
      "channel": 5,
      "note": 103,
      "start": 75.2773,
      "duration": 0.264,
      "velocity": 127,
      "chip": "ym2612"
    },
    {
      "channel": 4,
      "note": 76,
      "start": 75.3434,
      "duration": 0.0136,
      "velocity": 97,
      "chip": "ym2612"
    },
    {
      "channel": 0,
      "note": 69,
      "start": 75.4103,
      "duration": 0.5325,
      "velocity": 120,
      "chip": "ym2612"
    },
    {
      "channel": 2,
      "note": 57,
      "start": 75.4108,
      "duration": 0.1303,
      "velocity": 107,
      "chip": "ym2612"
    },
    {
      "channel": 3,
      "note": 64,
      "start": 75.4113,
      "duration": 0.5317,
      "velocity": 120,
      "chip": "ym2612"
    },
    {
      "channel": 4,
      "note": 72,
      "start": 75.4118,
      "duration": 0.0122,
      "velocity": 97,
      "chip": "ym2612"
    },
    {
      "channel": 4,
      "note": 72,
      "start": 75.4773,
      "duration": 0.0136,
      "velocity": 97,
      "chip": "ym2612"
    },
    {
      "channel": 2,
      "note": 57,
      "start": 75.5443,
      "duration": 0.1307,
      "velocity": 107,
      "chip": "ym2612"
    },
    {
      "channel": 4,
      "note": 81,
      "start": 75.5448,
      "duration": 0.013,
      "velocity": 97,
      "chip": "ym2612"
    },
    {
      "channel": 5,
      "note": 103,
      "start": 75.5453,
      "duration": 0.2637,
      "velocity": 127,
      "chip": "ym2612"
    },
    {
      "channel": 1,
      "note": 69,
      "start": 75.6112,
      "duration": 0.5325,
      "velocity": 120,
      "chip": "ym2612"
    },
    {
      "channel": 4,
      "note": 81,
      "start": 75.6116,
      "duration": 0.0132,
      "velocity": 97,
      "chip": "ym2612"
    },
    {
      "channel": 2,
      "note": 57,
      "start": 75.6781,
      "duration": 0.1308,
      "velocity": 107,
      "chip": "ym2612"
    },
    {
      "channel": 4,
      "note": 72,
      "start": 75.6786,
      "duration": 0.0132,
      "velocity": 97,
      "chip": "ym2612"
    },
    {
      "channel": 4,
      "note": 72,
      "start": 75.7451,
      "duration": 0.0136,
      "velocity": 97,
      "chip": "ym2612"
    },
    {
      "channel": 2,
      "note": 57,
      "start": 75.8121,
      "duration": 0.1309,
      "velocity": 107,
      "chip": "ym2612"
    },
    {
      "channel": 4,
      "note": 74,
      "start": 75.8128,
      "duration": 0.0129,
      "velocity": 97,
      "chip": "ym2612"
    },
    {
      "channel": 5,
      "note": 103,
      "start": 75.8133,
      "duration": 0.2638,
      "velocity": 127,
      "chip": "ym2612"
    },
    {
      "channel": 4,
      "note": 74,
      "start": 75.879,
      "duration": 0.0136,
      "velocity": 97,
      "chip": "ym2612"
    },
    {
      "channel": 0,
      "note": 67,
      "start": 75.9464,
      "duration": 0.7999,
      "velocity": 120,
      "chip": "ym2612"
    },
    {
      "channel": 2,
      "note": 58,
      "start": 75.9469,
      "duration": 0.2638,
      "velocity": 107,
      "chip": "ym2612"
    },
    {
      "channel": 3,
      "note": 62,
      "start": 75.9473,
      "duration": 0.7992,
      "velocity": 120,
      "chip": "ym2612"
    },
    {
      "channel": 4,
      "note": 76,
      "start": 75.9478,
      "duration": 0.0118,
      "velocity": 97,
      "chip": "ym2612"
    },
    {
      "channel": 4,
      "note": 76,
      "start": 76.0129,
      "duration": 0.0137,
      "velocity": 97,
      "chip": "ym2612"
    },
    {
      "channel": 5,
      "note": 103,
      "start": 76.08,
      "duration": 0.2647,
      "velocity": 127,
      "chip": "ym2612"
    },
    {
      "channel": 1,
      "note": 67,
      "start": 76.1471,
      "duration": 0.8003,
      "velocity": 120,
      "chip": "ym2612"
    },
    {
      "channel": 2,
      "note": 58,
      "start": 76.2139,
      "duration": 0.1307,
      "velocity": 107,
      "chip": "ym2612"
    },
    {
      "channel": 4,
      "note": 70,
      "start": 76.2144,
      "duration": 0.0132,
      "velocity": 97,
      "chip": "ym2612"
    },
    {
      "channel": 4,
      "note": 70,
      "start": 76.2808,
      "duration": 0.0137,
      "velocity": 97,
      "chip": "ym2612"
    },
    {
      "channel": 2,
      "note": 58,
      "start": 76.3477,
      "duration": 0.1309,
      "velocity": 107,
      "chip": "ym2612"
    },
    {
      "channel": 4,
      "note": 74,
      "start": 76.3483,
      "duration": 0.0131,
      "velocity": 97,
      "chip": "ym2612"
    },
    {
      "channel": 5,
      "note": 103,
      "start": 76.3488,
      "duration": 0.2638,
      "velocity": 127,
      "chip": "ym2612"
    },
    {
      "channel": 4,
      "note": 74,
      "start": 76.4147,
      "duration": 0.0137,
      "velocity": 97,
      "chip": "ym2612"
    },
    {
      "channel": 2,
      "note": 58,
      "start": 76.4817,
      "duration": 0.1307,
      "velocity": 107,
      "chip": "ym2612"
    },
    {
      "channel": 4,
      "note": 70,
      "start": 76.4825,
      "duration": 0.0128,
      "velocity": 97,
      "chip": "ym2612"
    },
    {
      "channel": 4,
      "note": 70,
      "start": 76.5486,
      "duration": 0.0138,
      "velocity": 97,
      "chip": "ym2612"
    },
    {
      "channel": 2,
      "note": 58,
      "start": 76.6156,
      "duration": 0.1309,
      "velocity": 107,
      "chip": "ym2612"
    },
    {
      "channel": 4,
      "note": 79,
      "start": 76.6161,
      "duration": 0.0131,
      "velocity": 97,
      "chip": "ym2612"
    },
    {
      "channel": 5,
      "note": 103,
      "start": 76.6165,
      "duration": 0.2641,
      "velocity": 127,
      "chip": "ym2612"
    },
    {
      "channel": 4,
      "note": 79,
      "start": 76.6828,
      "duration": 0.0134,
      "velocity": 97,
      "chip": "ym2612"
    },
    {
      "channel": 0,
      "note": 69,
      "start": 76.7496,
      "duration": 0.1308,
      "velocity": 120,
      "chip": "ym2612"
    },
    {
      "channel": 2,
      "note": 58,
      "start": 76.75,
      "duration": 0.1305,
      "velocity": 107,
      "chip": "ym2612"
    },
    {
      "channel": 3,
      "note": 64,
      "start": 76.7505,
      "duration": 0.1301,
      "velocity": 120,
      "chip": "ym2612"
    },
    {
      "channel": 4,
      "note": 70,
      "start": 76.751,
      "duration": 0.0122,
      "velocity": 97,
      "chip": "ym2612"
    },
    {
      "channel": 4,
      "note": 70,
      "start": 76.8166,
      "duration": 0.0135,
      "velocity": 97,
      "chip": "ym2612"
    },
    {
      "channel": 0,
      "note": 70,
      "start": 76.8834,
      "duration": 0.1307,
      "velocity": 120,
      "chip": "ym2612"
    },
    {
      "channel": 2,
      "note": 58,
      "start": 76.8839,
      "duration": 0.1304,
      "velocity": 107,
      "chip": "ym2612"
    },
    {
      "channel": 3,
      "note": 65,
      "start": 76.8844,
      "duration": 0.13,
      "velocity": 120,
      "chip": "ym2612"
    },
    {
      "channel": 4,
      "note": 74,
      "start": 76.8848,
      "duration": 0.0122,
      "velocity": 97,
      "chip": "ym2612"
    },
    {
      "channel": 5,
      "note": 103,
      "start": 76.8853,
      "duration": 0.2628,
      "velocity": 127,
      "chip": "ym2612"
    },
    {
      "channel": 1,
      "note": 69,
      "start": 76.9505,
      "duration": 0.1307,
      "velocity": 120,
      "chip": "ym2612"
    },
    {
      "channel": 4,
      "note": 74,
      "start": 76.951,
      "duration": 0.0132,
      "velocity": 97,
      "chip": "ym2612"
    },
    {
      "channel": 0,
      "note": 72,
      "start": 77.0173,
      "duration": 0.5323,
      "velocity": 120,
      "chip": "ym2612"
    },
    {
      "channel": 2,
      "note": 57,
      "start": 77.0178,
      "duration": 0.2644,
      "velocity": 107,
      "chip": "ym2612"
    },
    {
      "channel": 3,
      "note": 69,
      "start": 77.0183,
      "duration": 0.5316,
      "velocity": 120,
      "chip": "ym2612"
    },
    {
      "channel": 4,
      "note": 69,
      "start": 77.0187,
      "duration": 0.0122,
      "velocity": 97,
      "chip": "ym2612"
    },
    {
      "channel": 1,
      "note": 70,
      "start": 77.0844,
      "duration": 0.1307,
      "velocity": 120,
      "chip": "ym2612"
    },
    {
      "channel": 4,
      "note": 69,
      "start": 77.0849,
      "duration": 0.0131,
      "velocity": 97,
      "chip": "ym2612"
    },
    {
      "channel": 5,
      "note": 103,
      "start": 77.1513,
      "duration": 0.2646,
      "velocity": 127,
      "chip": "ym2612"
    },
    {
      "channel": 1,
      "note": 72,
      "start": 77.218,
      "duration": 0.5326,
      "velocity": 120,
      "chip": "ym2612"
    },
    {
      "channel": 2,
      "note": 57,
      "start": 77.285,
      "duration": 0.1308,
      "velocity": 107,
      "chip": "ym2612"
    },
    {
      "channel": 4,
      "note": 69,
      "start": 77.2856,
      "duration": 0.0131,
      "velocity": 97,
      "chip": "ym2612"
    },
    {
      "channel": 4,
      "note": 69,
      "start": 77.3522,
      "duration": 0.0134,
      "velocity": 97,
      "chip": "ym2612"
    },
    {
      "channel": 2,
      "note": 57,
      "start": 77.4189,
      "duration": 0.1309,
      "velocity": 107,
      "chip": "ym2612"
    },
    {
      "channel": 4,
      "note": 72,
      "start": 77.4194,
      "duration": 0.0132,
      "velocity": 97,
      "chip": "ym2612"
    },
    {
      "channel": 5,
      "note": 103,
      "start": 77.4199,
      "duration": 0.2638,
      "velocity": 127,
      "chip": "ym2612"
    },
    {
      "channel": 4,
      "note": 72,
      "start": 77.486,
      "duration": 0.0135,
      "velocity": 97,
      "chip": "ym2612"
    },
    {
      "channel": 0,
      "note": 76,
      "start": 77.5528,
      "duration": 0.6665,
      "velocity": 120,
      "chip": "ym2612"
    },
    {
      "channel": 2,
      "note": 58,
      "start": 77.5533,
      "duration": 0.2642,
      "velocity": 107,
      "chip": "ym2612"
    },
    {
      "channel": 3,
      "note": 67,
      "start": 77.5537,
      "duration": 0.6659,
      "velocity": 120,
      "chip": "ym2612"
    },
    {
      "channel": 4,
      "note": 69,
      "start": 77.5542,
      "duration": 0.0122,
      "velocity": 97,
      "chip": "ym2612"
    },
    {
      "channel": 4,
      "note": 69,
      "start": 77.6198,
      "duration": 0.0136,
      "velocity": 97,
      "chip": "ym2612"
    },
    {
      "channel": 4,
      "note": 74,
      "start": 77.6868,
      "duration": 0.0136,
      "velocity": 97,
      "chip": "ym2612"
    },
    {
      "channel": 5,
      "note": 103,
      "start": 77.6872,
      "duration": 0.2649,
      "velocity": 127,
      "chip": "ym2612"
    },
    {
      "channel": 1,
      "note": 76,
      "start": 77.7538,
      "duration": 0.4656,
      "velocity": 120,
      "chip": "ym2612"
    },
    {
      "channel": 4,
      "note": 74,
      "start": 77.7543,
      "duration": 0.013,
      "velocity": 97,
      "chip": "ym2612"
    },
    {
      "channel": 2,
      "note": 70,
      "start": 77.8211,
      "duration": 0.1307,
      "velocity": 107,
      "chip": "ym2612"
    },
    {
      "channel": 4,
      "note": 69,
      "start": 77.8216,
      "duration": 0.0128,
      "velocity": 97,
      "chip": "ym2612"
    },
    {
      "channel": 4,
      "note": 69,
      "start": 77.8878,
      "duration": 0.0135,
      "velocity": 97,
      "chip": "ym2612"
    },
    {
      "channel": 2,
      "note": 58,
      "start": 77.9547,
      "duration": 0.1307,
      "velocity": 107,
      "chip": "ym2612"
    },
    {
      "channel": 4,
      "note": 76,
      "start": 77.9551,
      "duration": 0.0131,
      "velocity": 97,
      "chip": "ym2612"
    },
    {
      "channel": 5,
      "note": 103,
      "start": 77.9556,
      "duration": 0.2641,
      "velocity": 127,
      "chip": "ym2612"
    },
    {
      "channel": 4,
      "note": 76,
      "start": 78.0217,
      "duration": 0.0134,
      "velocity": 97,
      "chip": "ym2612"
    },
    {
      "channel": 2,
      "note": 55,
      "start": 78.0886,
      "duration": 0.1309,
      "velocity": 107,
      "chip": "ym2612"
    },
    {
      "channel": 4,
      "note": 69,
      "start": 78.0891,
      "duration": 0.0134,
      "velocity": 97,
      "chip": "ym2612"
    },
    {
      "channel": 4,
      "note": 69,
      "start": 78.1556,
      "duration": 0.0136,
      "velocity": 97,
      "chip": "ym2612"
    },
    {
      "channel": 0,
      "note": 62,
      "start": 78.2227,
      "duration": 0.1304,
      "velocity": 120,
      "chip": "ym2612"
    },
    {
      "channel": 2,
      "note": 50,
      "start": 78.2232,
      "duration": 0.1299,
      "velocity": 107,
      "chip": "ym2612"
    },
    {
      "channel": 3,
      "note": 57,
      "start": 78.2237,
      "duration": 0.1296,
      "velocity": 120,
      "chip": "ym2612"
    },
    {
      "channel": 4,
      "note": 74,
      "start": 78.2252,
      "duration": 0.0191,
      "velocity": 103,
      "chip": "ym2612"
    },
    {
      "channel": 5,
      "note": 103,
      "start": 78.2266,
      "duration": 0.2608,
      "velocity": 127,
      "chip": "ym2612"
    },
    {
      "channel": 4,
      "note": 77,
      "start": 78.2894,
      "duration": 0.0219,
      "velocity": 103,
      "chip": "ym2612"
    },
    {
      "channel": 0,
      "note": 62,
      "start": 78.3563,
      "duration": 0.1307,
      "velocity": 120,
      "chip": "ym2612"
    },
    {
      "channel": 2,
      "note": 50,
      "start": 78.3568,
      "duration": 0.1304,
      "velocity": 107,
      "chip": "ym2612"
    },
    {
      "channel": 3,
      "note": 57,
      "start": 78.3573,
      "duration": 0.13,
      "velocity": 120,
      "chip": "ym2612"
    },
    {
      "channel": 4,
      "note": 84,
      "start": 78.3578,
      "duration": 0.0204,
      "velocity": 103,
      "chip": "ym2612"
    },
    {
      "channel": 1,
      "note": 62,
      "start": 78.4233,
      "duration": 0.1308,
      "velocity": 120,
      "chip": "ym2612"
    },
    {
      "channel": 4,
      "note": 81,
      "start": 78.4239,
      "duration": 0.0214,
      "velocity": 103,
      "chip": "ym2612"
    },
    {
      "channel": 0,
      "note": 60,
      "start": 78.4902,
      "duration": 0.1308,
      "velocity": 120,
      "chip": "ym2612"
    },
    {
      "channel": 2,
      "note": 48,
      "start": 78.4906,
      "duration": 0.1304,
      "velocity": 107,
      "chip": "ym2612"
    },
    {
      "channel": 3,
      "note": 55,
      "start": 78.4911,
      "duration": 0.13,
      "velocity": 120,
      "chip": "ym2612"
    },
    {
      "channel": 4,
      "note": 74,
      "start": 78.4917,
      "duration": 0.0205,
      "velocity": 103,
      "chip": "ym2612"
    },
    {
      "channel": 5,
      "note": 103,
      "start": 78.4925,
      "duration": 0.2627,
      "velocity": 127,
      "chip": "ym2612"
    },
    {
      "channel": 1,
      "note": 62,
      "start": 78.5571,
      "duration": 0.1308,
      "velocity": 120,
      "chip": "ym2612"
    },
    {
      "channel": 4,
      "note": 77,
      "start": 78.5577,
      "duration": 0.0215,
      "velocity": 103,
      "chip": "ym2612"
    },
    {
      "channel": 0,
      "note": 62,
      "start": 78.6241,
      "duration": 0.1308,
      "velocity": 120,
      "chip": "ym2612"
    },
    {
      "channel": 2,
      "note": 50,
      "start": 78.6245,
      "duration": 0.1304,
      "velocity": 107,
      "chip": "ym2612"
    },
    {
      "channel": 3,
      "note": 57,
      "start": 78.625,
      "duration": 0.1301,
      "velocity": 120,
      "chip": "ym2612"
    },
    {
      "channel": 4,
      "note": 84,
      "start": 78.6256,
      "duration": 0.0207,
      "velocity": 103,
      "chip": "ym2612"
    },
    {
      "channel": 1,
      "note": 60,
      "start": 78.6911,
      "duration": 0.131,
      "velocity": 120,
      "chip": "ym2612"
    },
    {
      "channel": 4,
      "note": 81,
      "start": 78.6917,
      "duration": 0.0213,
      "velocity": 103,
      "chip": "ym2612"
    },
    {
      "channel": 4,
      "note": 74,
      "start": 78.7582,
      "duration": 0.0218,
      "velocity": 103,
      "chip": "ym2612"
    },
    {
      "channel": 1,
      "note": 62,
      "start": 78.8249,
      "duration": 0.1308,
      "velocity": 120,
      "chip": "ym2612"
    },
    {
      "channel": 4,
      "note": 77,
      "start": 78.8256,
      "duration": 0.0214,
      "velocity": 103,
      "chip": "ym2612"
    },
    {
      "channel": 0,
      "note": 57,
      "start": 78.8923,
      "duration": 0.1304,
      "velocity": 120,
      "chip": "ym2612"
    },
    {
      "channel": 2,
      "note": 45,
      "start": 78.8927,
      "duration": 0.1301,
      "velocity": 107,
      "chip": "ym2612"
    },
    {
      "channel": 3,
      "note": 50,
      "start": 78.8932,
      "duration": 0.1297,
      "velocity": 120,
      "chip": "ym2612"
    },
    {
      "channel": 4,
      "note": 84,
      "start": 78.8938,
      "duration": 0.0202,
      "velocity": 103,
      "chip": "ym2612"
    },
    {
      "channel": 5,
      "note": 103,
      "start": 78.8944,
      "duration": 0.2623,
      "velocity": 127,
      "chip": "ym2612"
    },
    {
      "channel": 4,
      "note": 81,
      "start": 78.9593,
      "duration": 0.0217,
      "velocity": 103,
      "chip": "ym2612"
    },
    {
      "channel": 4,
      "note": 74,
      "start": 79.026,
      "duration": 0.0218,
      "velocity": 103,
      "chip": "ym2612"
    },
    {
      "channel": 1,
      "note": 57,
      "start": 79.0929,
      "duration": 0.1308,
      "velocity": 120,
      "chip": "ym2612"
    },
    {
      "channel": 4,
      "note": 77,
      "start": 79.0935,
      "duration": 0.0213,
      "velocity": 103,
      "chip": "ym2612"
    },
    {
      "channel": 0,
      "note": 58,
      "start": 79.1598,
      "duration": 0.6664,
      "velocity": 120,
      "chip": "ym2612"
    },
    {
      "channel": 2,
      "note": 46,
      "start": 79.1604,
      "duration": 0.6659,
      "velocity": 107,
      "chip": "ym2612"
    },
    {
      "channel": 3,
      "note": 53,
      "start": 79.1609,
      "duration": 0.6655,
      "velocity": 120,
      "chip": "ym2612"
    },
    {
      "channel": 4,
      "note": 84,
      "start": 79.1615,
      "duration": 0.0203,
      "velocity": 103,
      "chip": "ym2612"
    },
    {
      "channel": 5,
      "note": 103,
      "start": 79.1623,
      "duration": 0.3961,
      "velocity": 127,
      "chip": "ym2612"
    },
    {
      "channel": 4,
      "note": 81,
      "start": 79.227,
      "duration": 0.0218,
      "velocity": 103,
      "chip": "ym2612"
    },
    {
      "channel": 4,
      "note": 74,
      "start": 79.2939,
      "duration": 0.0218,
      "velocity": 103,
      "chip": "ym2612"
    },
    {
      "channel": 1,
      "note": 58,
      "start": 79.3607,
      "duration": 0.6666,
      "velocity": 120,
      "chip": "ym2612"
    },
    {
      "channel": 4,
      "note": 77,
      "start": 79.3613,
      "duration": 0.0214,
      "velocity": 103,
      "chip": "ym2612"
    },
    {
      "channel": 4,
      "note": 84,
      "start": 79.4278,
      "duration": 0.0218,
      "velocity": 103,
      "chip": "ym2612"
    },
    {
      "channel": 4,
      "note": 81,
      "start": 79.4948,
      "duration": 0.0218,
      "velocity": 103,
      "chip": "ym2612"
    },
    {
      "channel": 4,
      "note": 74,
      "start": 79.5617,
      "duration": 0.0218,
      "velocity": 103,
      "chip": "ym2612"
    },
    {
      "channel": 5,
      "note": 103,
      "start": 79.5624,
      "duration": 0.2641,
      "velocity": 127,
      "chip": "ym2612"
    },
    {
      "channel": 4,
      "note": 77,
      "start": 79.6287,
      "duration": 0.0218,
      "velocity": 103,
      "chip": "ym2612"
    },
    {
      "channel": 4,
      "note": 84,
      "start": 79.6957,
      "duration": 0.0219,
      "velocity": 103,
      "chip": "ym2612"
    },
    {
      "channel": 4,
      "note": 81,
      "start": 79.7627,
      "duration": 0.0217,
      "velocity": 103,
      "chip": "ym2612"
    },
    {
      "channel": 0,
      "note": 60,
      "start": 79.8295,
      "duration": 0.5327,
      "velocity": 120,
      "chip": "ym2612"
    },
    {
      "channel": 2,
      "note": 48,
      "start": 79.8299,
      "duration": 0.5323,
      "velocity": 107,
      "chip": "ym2612"
    },
    {
      "channel": 3,
      "note": 55,
      "start": 79.8304,
      "duration": 0.532,
      "velocity": 120,
      "chip": "ym2612"
    },
    {
      "channel": 4,
      "note": 74,
      "start": 79.831,
      "duration": 0.0204,
      "velocity": 103,
      "chip": "ym2612"
    },
    {
      "channel": 5,
      "note": 103,
      "start": 79.8315,
      "duration": 0.1287,
      "velocity": 127,
      "chip": "ym2612"
    },
    {
      "channel": 4,
      "note": 77,
      "start": 79.8967,
      "duration": 0.0217,
      "velocity": 103,
      "chip": "ym2612"
    },
    {
      "channel": 4,
      "note": 84,
      "start": 79.9635,
      "duration": 0.0218,
      "velocity": 103,
      "chip": "ym2612"
    },
    {
      "channel": 5,
      "note": 103,
      "start": 79.964,
      "duration": 0.3985,
      "velocity": 127,
      "chip": "ym2612"
    },
    {
      "channel": 1,
      "note": 60,
      "start": 80.0302,
      "duration": 0.5325,
      "velocity": 120,
      "chip": "ym2612"
    },
    {
      "channel": 4,
      "note": 81,
      "start": 80.0308,
      "duration": 0.0214,
      "velocity": 103,
      "chip": "ym2612"
    },
    {
      "channel": 4,
      "note": 74,
      "start": 80.0974,
      "duration": 0.0218,
      "velocity": 103,
      "chip": "ym2612"
    },
    {
      "channel": 4,
      "note": 77,
      "start": 80.1643,
      "duration": 0.0219,
      "velocity": 103,
      "chip": "ym2612"
    },
    {
      "channel": 4,
      "note": 84,
      "start": 80.2314,
      "duration": 0.0217,
      "velocity": 103,
      "chip": "ym2612"
    },
    {
      "channel": 4,
      "note": 81,
      "start": 80.2983,
      "duration": 0.0218,
      "velocity": 103,
      "chip": "ym2612"
    },
    {
      "channel": 0,
      "note": 62,
      "start": 80.3651,
      "duration": 0.1307,
      "velocity": 120,
      "chip": "ym2612"
    },
    {
      "channel": 2,
      "note": 50,
      "start": 80.3656,
      "duration": 0.1303,
      "velocity": 107,
      "chip": "ym2612"
    },
    {
      "channel": 3,
      "note": 57,
      "start": 80.3661,
      "duration": 0.13,
      "velocity": 120,
      "chip": "ym2612"
    },
    {
      "channel": 4,
      "note": 74,
      "start": 80.3666,
      "duration": 0.0204,
      "velocity": 103,
      "chip": "ym2612"
    },
    {
      "channel": 5,
      "note": 103,
      "start": 80.3671,
      "duration": 0.263,
      "velocity": 127,
      "chip": "ym2612"
    },
    {
      "channel": 4,
      "note": 77,
      "start": 80.4324,
      "duration": 0.0215,
      "velocity": 103,
      "chip": "ym2612"
    },
    {
      "channel": 0,
      "note": 62,
      "start": 80.499,
      "duration": 0.1308,
      "velocity": 120,
      "chip": "ym2612"
    },
    {
      "channel": 2,
      "note": 50,
      "start": 80.4994,
      "duration": 0.1305,
      "velocity": 107,
      "chip": "ym2612"
    },
    {
      "channel": 3,
      "note": 57,
      "start": 80.4999,
      "duration": 0.1301,
      "velocity": 120,
      "chip": "ym2612"
    },
    {
      "channel": 4,
      "note": 84,
      "start": 80.5005,
      "duration": 0.0205,
      "velocity": 103,
      "chip": "ym2612"
    },
    {
      "channel": 1,
      "note": 62,
      "start": 80.566,
      "duration": 0.1307,
      "velocity": 120,
      "chip": "ym2612"
    },
    {
      "channel": 4,
      "note": 81,
      "start": 80.5666,
      "duration": 0.0214,
      "velocity": 103,
      "chip": "ym2612"
    },
    {
      "channel": 0,
      "note": 60,
      "start": 80.633,
      "duration": 0.1307,
      "velocity": 120,
      "chip": "ym2612"
    },
    {
      "channel": 2,
      "note": 48,
      "start": 80.6334,
      "duration": 0.1303,
      "velocity": 107,
      "chip": "ym2612"
    },
    {
      "channel": 3,
      "note": 55,
      "start": 80.6339,
      "duration": 0.1299,
      "velocity": 120,
      "chip": "ym2612"
    },
    {
      "channel": 4,
      "note": 74,
      "start": 80.6345,
      "duration": 0.0204,
      "velocity": 103,
      "chip": "ym2612"
    },
    {
      "channel": 5,
      "note": 103,
      "start": 80.635,
      "duration": 0.2629,
      "velocity": 127,
      "chip": "ym2612"
    },
    {
      "channel": 1,
      "note": 62,
      "start": 80.6998,
      "duration": 0.1308,
      "velocity": 120,
      "chip": "ym2612"
    },
    {
      "channel": 4,
      "note": 77,
      "start": 80.7004,
      "duration": 0.0217,
      "velocity": 103,
      "chip": "ym2612"
    },
    {
      "channel": 0,
      "note": 62,
      "start": 80.7669,
      "duration": 0.1307,
      "velocity": 120,
      "chip": "ym2612"
    },
    {
      "channel": 2,
      "note": 50,
      "start": 80.7673,
      "duration": 0.1303,
      "velocity": 107,
      "chip": "ym2612"
    },
    {
      "channel": 3,
      "note": 57,
      "start": 80.7678,
      "duration": 0.13,
      "velocity": 120,
      "chip": "ym2612"
    },
    {
      "channel": 4,
      "note": 84,
      "start": 80.7684,
      "duration": 0.0205,
      "velocity": 103,
      "chip": "ym2612"
    },
    {
      "channel": 1,
      "note": 60,
      "start": 80.8339,
      "duration": 0.1307,
      "velocity": 120,
      "chip": "ym2612"
    },
    {
      "channel": 4,
      "note": 81,
      "start": 80.8345,
      "duration": 0.0213,
      "velocity": 103,
      "chip": "ym2612"
    },
    {
      "channel": 4,
      "note": 74,
      "start": 80.9009,
      "duration": 0.0218,
      "velocity": 103,
      "chip": "ym2612"
    },
    {
      "channel": 1,
      "note": 62,
      "start": 80.9677,
      "duration": 0.1308,
      "velocity": 120,
      "chip": "ym2612"
    },
    {
      "channel": 4,
      "note": 77,
      "start": 80.9683,
      "duration": 0.0214,
      "velocity": 103,
      "chip": "ym2612"
    },
    {
      "channel": 0,
      "note": 57,
      "start": 81.0347,
      "duration": 0.1308,
      "velocity": 120,
      "chip": "ym2612"
    },
    {
      "channel": 2,
      "note": 45,
      "start": 81.0353,
      "duration": 0.1303,
      "velocity": 107,
      "chip": "ym2612"
    },
    {
      "channel": 3,
      "note": 50,
      "start": 81.0358,
      "duration": 0.13,
      "velocity": 120,
      "chip": "ym2612"
    },
    {
      "channel": 4,
      "note": 84,
      "start": 81.0363,
      "duration": 0.0203,
      "velocity": 103,
      "chip": "ym2612"
    },
    {
      "channel": 5,
      "note": 103,
      "start": 81.0368,
      "duration": 0.2625,
      "velocity": 127,
      "chip": "ym2612"
    },
    {
      "channel": 4,
      "note": 81,
      "start": 81.1021,
      "duration": 0.0216,
      "velocity": 103,
      "chip": "ym2612"
    },
    {
      "channel": 4,
      "note": 74,
      "start": 81.1688,
      "duration": 0.0218,
      "velocity": 103,
      "chip": "ym2612"
    },
    {
      "channel": 1,
      "note": 57,
      "start": 81.2356,
      "duration": 0.1307,
      "velocity": 120,
      "chip": "ym2612"
    },
    {
      "channel": 4,
      "note": 77,
      "start": 81.2362,
      "duration": 0.0213,
      "velocity": 103,
      "chip": "ym2612"
    },
    {
      "channel": 0,
      "note": 64,
      "start": 81.3025,
      "duration": 0.0666,
      "velocity": 120,
      "chip": "ym2612"
    },
    {
      "channel": 2,
      "note": 52,
      "start": 81.303,
      "duration": 0.0662,
      "velocity": 107,
      "chip": "ym2612"
    },
    {
      "channel": 3,
      "note": 57,
      "start": 81.3034,
      "duration": 0.0659,
      "velocity": 120,
      "chip": "ym2612"
    },
    {
      "channel": 4,
      "note": 84,
      "start": 81.304,
      "duration": 0.0204,
      "velocity": 103,
      "chip": "ym2612"
    },
    {
      "channel": 5,
      "note": 103,
      "start": 81.3045,
      "duration": 0.3969,
      "velocity": 127,
      "chip": "ym2612"
    },
    {
      "channel": 0,
      "note": 65,
      "start": 81.3698,
      "duration": 0.1974,
      "velocity": 120,
      "chip": "ym2612"
    },
    {
      "channel": 2,
      "note": 53,
      "start": 81.3702,
      "duration": 0.1971,
      "velocity": 107,
      "chip": "ym2612"
    },
    {
      "channel": 3,
      "note": 58,
      "start": 81.3707,
      "duration": 0.1967,
      "velocity": 120,
      "chip": "ym2612"
    },
    {
      "channel": 4,
      "note": 81,
      "start": 81.3712,
      "duration": 0.0203,
      "velocity": 103,
      "chip": "ym2612"
    },
    {
      "channel": 4,
      "note": 74,
      "start": 81.4366,
      "duration": 0.022,
      "velocity": 103,
      "chip": "ym2612"
    },
    {
      "channel": 1,
      "note": 64,
      "start": 81.5034,
      "duration": 0.0667,
      "velocity": 120,
      "chip": "ym2612"
    },
    {
      "channel": 4,
      "note": 77,
      "start": 81.5039,
      "duration": 0.0215,
      "velocity": 103,
      "chip": "ym2612"
    },
    {
      "channel": 0,
      "note": 64,
      "start": 81.5705,
      "duration": 0.1306,
      "velocity": 120,
      "chip": "ym2612"
    },
    {
      "channel": 1,
      "note": 65,
      "start": 81.571,
      "duration": 0.1972,
      "velocity": 120,
      "chip": "ym2612"
    },
    {
      "channel": 2,
      "note": 52,
      "start": 81.5714,
      "duration": 0.1298,
      "velocity": 107,
      "chip": "ym2612"
    },
    {
      "channel": 3,
      "note": 57,
      "start": 81.5721,
      "duration": 0.1292,
      "velocity": 120,
      "chip": "ym2612"
    },
    {
      "channel": 4,
      "note": 84,
      "start": 81.5728,
      "duration": 0.0195,
      "velocity": 103,
      "chip": "ym2612"
    },
    {
      "channel": 4,
      "note": 81,
      "start": 81.6374,
      "duration": 0.0219,
      "velocity": 103,
      "chip": "ym2612"
    },
    {
      "channel": 4,
      "note": 74,
      "start": 81.7044,
      "duration": 0.0218,
      "velocity": 103,
      "chip": "ym2612"
    },
    {
      "channel": 5,
      "note": 103,
      "start": 81.7049,
      "duration": 0.2642,
      "velocity": 127,
      "chip": "ym2612"
    },
    {
      "channel": 1,
      "note": 64,
      "start": 81.7714,
      "duration": 0.1308,
      "velocity": 120,
      "chip": "ym2612"
    },
    {
      "channel": 4,
      "note": 77,
      "start": 81.7722,
      "duration": 0.0209,
      "velocity": 103,
      "chip": "ym2612"
    },
    {
      "channel": 0,
      "note": 62,
      "start": 81.8382,
      "duration": 0.1308,
      "velocity": 120,
      "chip": "ym2612"
    },
    {
      "channel": 2,
      "note": 50,
      "start": 81.8386,
      "duration": 0.1307,
      "velocity": 107,
      "chip": "ym2612"
    },
    {
      "channel": 3,
      "note": 57,
      "start": 81.8391,
      "duration": 0.1303,
      "velocity": 120,
      "chip": "ym2612"
    },
    {
      "channel": 4,
      "note": 84,
      "start": 81.8397,
      "duration": 0.0205,
      "velocity": 103,
      "chip": "ym2612"
    },
    {
      "channel": 4,
      "note": 81,
      "start": 81.9053,
      "duration": 0.0219,
      "velocity": 103,
      "chip": "ym2612"
    },
    {
      "channel": 4,
      "note": 74,
      "start": 81.9725,
      "duration": 0.0217,
      "velocity": 103,
      "chip": "ym2612"
    },
    {
      "channel": 5,
      "note": 103,
      "start": 81.973,
      "duration": 0.1299,
      "velocity": 127,
      "chip": "ym2612"
    },
    {
      "channel": 1,
      "note": 62,
      "start": 82.0391,
      "duration": 0.1308,
      "velocity": 120,
      "chip": "ym2612"
    },
    {
      "channel": 4,
      "note": 77,
      "start": 82.0397,
      "duration": 0.0214,
      "velocity": 103,
      "chip": "ym2612"
    },
    {
      "channel": 0,
      "note": 60,
      "start": 82.106,
      "duration": 0.1308,
      "velocity": 120,
      "chip": "ym2612"
    },
    {
      "channel": 2,
      "note": 48,
      "start": 82.1064,
      "duration": 0.1304,
      "velocity": 107,
      "chip": "ym2612"
    },
    {
      "channel": 3,
      "note": 55,
      "start": 82.1069,
      "duration": 0.1301,
      "velocity": 120,
      "chip": "ym2612"
    },
    {
      "channel": 4,
      "note": 84,
      "start": 82.1075,
      "duration": 0.0206,
      "velocity": 103,
      "chip": "ym2612"
    },
    {
      "channel": 5,
      "note": 103,
      "start": 82.108,
      "duration": 0.3969,
      "velocity": 127,
      "chip": "ym2612"
    },
    {
      "channel": 4,
      "note": 81,
      "start": 82.1731,
      "duration": 0.0218,
      "velocity": 103,
      "chip": "ym2612"
    },
    {
      "channel": 4,
      "note": 74,
      "start": 82.2401,
      "duration": 0.0221,
      "velocity": 103,
      "chip": "ym2612"
    },
    {
      "channel": 1,
      "note": 60,
      "start": 82.307,
      "duration": 0.1306,
      "velocity": 120,
      "chip": "ym2612"
    },
    {
      "channel": 4,
      "note": 77,
      "start": 82.3076,
      "duration": 0.0212,
      "velocity": 103,
      "chip": "ym2612"
    },
    {
      "channel": 0,
      "note": 57,
      "start": 82.3738,
      "duration": 0.1308,
      "velocity": 120,
      "chip": "ym2612"
    },
    {
      "channel": 2,
      "note": 45,
      "start": 82.3743,
      "duration": 0.1304,
      "velocity": 107,
      "chip": "ym2612"
    },
    {
      "channel": 3,
      "note": 52,
      "start": 82.3747,
      "duration": 0.1301,
      "velocity": 120,
      "chip": "ym2612"
    },
    {
      "channel": 4,
      "note": 84,
      "start": 82.3753,
      "duration": 0.0205,
      "velocity": 103,
      "chip": "ym2612"
    },
    {
      "channel": 4,
      "note": 81,
      "start": 82.441,
      "duration": 0.0219,
      "velocity": 103,
      "chip": "ym2612"
    },
    {
      "channel": 0,
      "note": 62,
      "start": 82.5078,
      "duration": 0.1308,
      "velocity": 120,
      "chip": "ym2612"
    },
    {
      "channel": 2,
      "note": 50,
      "start": 82.5082,
      "duration": 0.1304,
      "velocity": 107,
      "chip": "ym2612"
    },
    {
      "channel": 3,
      "note": 57,
      "start": 82.5087,
      "duration": 0.13,
      "velocity": 120,
      "chip": "ym2612"
    },
    {
      "channel": 5,
      "note": 103,
      "start": 82.5092,
      "duration": 0.2636,
      "velocity": 127,
      "chip": "ym2612"
    },
    {
      "channel": 1,
      "note": 57,
      "start": 82.5748,
      "duration": 0.1307,
      "velocity": 120,
      "chip": "ym2612"
    },
    {
      "channel": 0,
      "note": 62,
      "start": 82.6417,
      "duration": 0.1308,
      "velocity": 120,
      "chip": "ym2612"
    },
    {
      "channel": 2,
      "note": 50,
      "start": 82.6424,
      "duration": 0.1302,
      "velocity": 107,
      "chip": "ym2612"
    },
    {
      "channel": 3,
      "note": 57,
      "start": 82.6428,
      "duration": 0.1298,
      "velocity": 120,
      "chip": "ym2612"
    },
    {
      "channel": 1,
      "note": 62,
      "start": 82.7088,
      "duration": 0.1308,
      "velocity": 120,
      "chip": "ym2612"
    },
    {
      "channel": 0,
      "note": 60,
      "start": 82.7756,
      "duration": 0.1309,
      "velocity": 120,
      "chip": "ym2612"
    },
    {
      "channel": 2,
      "note": 48,
      "start": 82.7761,
      "duration": 0.1305,
      "velocity": 107,
      "chip": "ym2612"
    },
    {
      "channel": 3,
      "note": 55,
      "start": 82.7765,
      "duration": 0.1301,
      "velocity": 120,
      "chip": "ym2612"
    },
    {
      "channel": 5,
      "note": 103,
      "start": 82.777,
      "duration": 0.2636,
      "velocity": 127,
      "chip": "ym2612"
    },
    {
      "channel": 1,
      "note": 62,
      "start": 82.8426,
      "duration": 0.1307,
      "velocity": 120,
      "chip": "ym2612"
    },
    {
      "channel": 0,
      "note": 62,
      "start": 82.9095,
      "duration": 0.1308,
      "velocity": 120,
      "chip": "ym2612"
    },
    {
      "channel": 2,
      "note": 50,
      "start": 82.9101,
      "duration": 0.1303,
      "velocity": 107,
      "chip": "ym2612"
    },
    {
      "channel": 3,
      "note": 57,
      "start": 82.9105,
      "duration": 0.13,
      "velocity": 120,
      "chip": "ym2612"
    },
    {
      "channel": 1,
      "note": 60,
      "start": 82.9766,
      "duration": 0.1308,
      "velocity": 120,
      "chip": "ym2612"
    },
    {
      "channel": 1,
      "note": 62,
      "start": 83.1105,
      "duration": 0.1308,
      "velocity": 120,
      "chip": "ym2612"
    },
    {
      "channel": 0,
      "note": 57,
      "start": 83.1773,
      "duration": 0.1309,
      "velocity": 120,
      "chip": "ym2612"
    },
    {
      "channel": 2,
      "note": 45,
      "start": 83.1778,
      "duration": 0.1305,
      "velocity": 107,
      "chip": "ym2612"
    },
    {
      "channel": 3,
      "note": 50,
      "start": 83.1783,
      "duration": 0.1302,
      "velocity": 120,
      "chip": "ym2612"
    },
    {
      "channel": 5,
      "note": 103,
      "start": 83.1788,
      "duration": 0.2635,
      "velocity": 127,
      "chip": "ym2612"
    },
    {
      "channel": 1,
      "note": 57,
      "start": 83.3783,
      "duration": 0.1307,
      "velocity": 120,
      "chip": "ym2612"
    },
    {
      "channel": 0,
      "note": 58,
      "start": 83.4453,
      "duration": 0.6665,
      "velocity": 120,
      "chip": "ym2612"
    },
    {
      "channel": 2,
      "note": 46,
      "start": 83.4458,
      "duration": 0.6663,
      "velocity": 107,
      "chip": "ym2612"
    },
    {
      "channel": 3,
      "note": 53,
      "start": 83.4462,
      "duration": 0.666,
      "velocity": 120,
      "chip": "ym2612"
    },
    {
      "channel": 5,
      "note": 103,
      "start": 83.4467,
      "duration": 0.3971,
      "velocity": 127,
      "chip": "ym2612"
    },
    {
      "channel": 1,
      "note": 58,
      "start": 83.6462,
      "duration": 0.6663,
      "velocity": 120,
      "chip": "ym2612"
    },
    {
      "channel": 5,
      "note": 103,
      "start": 83.847,
      "duration": 0.2647,
      "velocity": 127,
      "chip": "ym2612"
    },
    {
      "channel": 0,
      "note": 60,
      "start": 84.1148,
      "duration": 0.5325,
      "velocity": 120,
      "chip": "ym2612"
    },
    {
      "channel": 2,
      "note": 48,
      "start": 84.1153,
      "duration": 0.5321,
      "velocity": 107,
      "chip": "ym2612"
    },
    {
      "channel": 3,
      "note": 55,
      "start": 84.1157,
      "duration": 0.5318,
      "velocity": 120,
      "chip": "ym2612"
    },
    {
      "channel": 5,
      "note": 103,
      "start": 84.1162,
      "duration": 0.1294,
      "velocity": 127,
      "chip": "ym2612"
    },
    {
      "channel": 5,
      "note": 103,
      "start": 84.2488,
      "duration": 0.3989,
      "velocity": 127,
      "chip": "ym2612"
    },
    {
      "channel": 1,
      "note": 60,
      "start": 84.3158,
      "duration": 0.5324,
      "velocity": 120,
      "chip": "ym2612"
    },
    {
      "channel": 0,
      "note": 62,
      "start": 84.6505,
      "duration": 0.1308,
      "velocity": 120,
      "chip": "ym2612"
    },
    {
      "channel": 2,
      "note": 50,
      "start": 84.6509,
      "duration": 0.1304,
      "velocity": 107,
      "chip": "ym2612"
    },
    {
      "channel": 3,
      "note": 57,
      "start": 84.6514,
      "duration": 0.1301,
      "velocity": 120,
      "chip": "ym2612"
    },
    {
      "channel": 5,
      "note": 103,
      "start": 84.6521,
      "duration": 0.2633,
      "velocity": 127,
      "chip": "ym2612"
    },
    {
      "channel": 0,
      "note": 62,
      "start": 84.7845,
      "duration": 0.1307,
      "velocity": 120,
      "chip": "ym2612"
    },
    {
      "channel": 2,
      "note": 50,
      "start": 84.7851,
      "duration": 0.1302,
      "velocity": 107,
      "chip": "ym2612"
    },
    {
      "channel": 3,
      "note": 57,
      "start": 84.7855,
      "duration": 0.1298,
      "velocity": 120,
      "chip": "ym2612"
    },
    {
      "channel": 1,
      "note": 62,
      "start": 84.8515,
      "duration": 0.1308,
      "velocity": 120,
      "chip": "ym2612"
    },
    {
      "channel": 0,
      "note": 60,
      "start": 84.9184,
      "duration": 0.1307,
      "velocity": 120,
      "chip": "ym2612"
    },
    {
      "channel": 2,
      "note": 48,
      "start": 84.9189,
      "duration": 0.1303,
      "velocity": 107,
      "chip": "ym2612"
    },
    {
      "channel": 3,
      "note": 55,
      "start": 84.9193,
      "duration": 0.13,
      "velocity": 120,
      "chip": "ym2612"
    },
    {
      "channel": 5,
      "note": 103,
      "start": 84.9198,
      "duration": 0.2635,
      "velocity": 127,
      "chip": "ym2612"
    },
    {
      "channel": 1,
      "note": 62,
      "start": 84.9853,
      "duration": 0.1309,
      "velocity": 120,
      "chip": "ym2612"
    },
    {
      "channel": 0,
      "note": 62,
      "start": 85.0525,
      "duration": 0.1305,
      "velocity": 120,
      "chip": "ym2612"
    },
    {
      "channel": 2,
      "note": 50,
      "start": 85.053,
      "duration": 0.1301,
      "velocity": 107,
      "chip": "ym2612"
    },
    {
      "channel": 3,
      "note": 57,
      "start": 85.0534,
      "duration": 0.1298,
      "velocity": 120,
      "chip": "ym2612"
    },
    {
      "channel": 1,
      "note": 60,
      "start": 85.1193,
      "duration": 0.1307,
      "velocity": 120,
      "chip": "ym2612"
    },
    {
      "channel": 1,
      "note": 62,
      "start": 85.2532,
      "duration": 0.1307,
      "velocity": 120,
      "chip": "ym2612"
    },
    {
      "channel": 0,
      "note": 57,
      "start": 85.3202,
      "duration": 0.1307,
      "velocity": 120,
      "chip": "ym2612"
    },
    {
      "channel": 2,
      "note": 45,
      "start": 85.3206,
      "duration": 0.1303,
      "velocity": 107,
      "chip": "ym2612"
    },
    {
      "channel": 3,
      "note": 50,
      "start": 85.3211,
      "duration": 0.13,
      "velocity": 120,
      "chip": "ym2612"
    },
    {
      "channel": 5,
      "note": 103,
      "start": 85.3216,
      "duration": 0.2633,
      "velocity": 127,
      "chip": "ym2612"
    },
    {
      "channel": 1,
      "note": 57,
      "start": 85.5211,
      "duration": 0.1311,
      "velocity": 120,
      "chip": "ym2612"
    },
    {
      "channel": 0,
      "note": 67,
      "start": 85.588,
      "duration": 0.0666,
      "velocity": 120,
      "chip": "ym2612"
    },
    {
      "channel": 2,
      "note": 55,
      "start": 85.5885,
      "duration": 0.0662,
      "velocity": 107,
      "chip": "ym2612"
    },
    {
      "channel": 3,
      "note": 61,
      "start": 85.5889,
      "duration": 0.0659,
      "velocity": 120,
      "chip": "ym2612"
    },
    {
      "channel": 5,
      "note": 103,
      "start": 85.5894,
      "duration": 0.3974,
      "velocity": 127,
      "chip": "ym2612"
    },
    {
      "channel": 0,
      "note": 69,
      "start": 85.6553,
      "duration": 0.4656,
      "velocity": 120,
      "chip": "ym2612"
    },
    {
      "channel": 2,
      "note": 57,
      "start": 85.6557,
      "duration": 0.0658,
      "velocity": 107,
      "chip": "ym2612"
    },
    {
      "channel": 3,
      "note": 62,
      "start": 85.6562,
      "duration": 0.4649,
      "velocity": 120,
      "chip": "ym2612"
    },
    {
      "channel": 2,
      "note": 56,
      "start": 85.7222,
      "duration": 0.3987,
      "velocity": 107,
      "chip": "ym2612"
    },
    {
      "channel": 1,
      "note": 67,
      "start": 85.7891,
      "duration": 0.0665,
      "velocity": 120,
      "chip": "ym2612"
    },
    {
      "channel": 1,
      "note": 69,
      "start": 85.8561,
      "duration": 0.4662,
      "velocity": 120,
      "chip": "ym2612"
    },
    {
      "channel": 5,
      "note": 103,
      "start": 85.9899,
      "duration": 0.2651,
      "velocity": 127,
      "chip": "ym2612"
    },
    {
      "channel": 0,
      "note": 67,
      "start": 86.1241,
      "duration": 0.6672,
      "velocity": 120,
      "chip": "ym2612"
    },
    {
      "channel": 2,
      "note": 55,
      "start": 86.1245,
      "duration": 0.6668,
      "velocity": 107,
      "chip": "ym2612"
    },
    {
      "channel": 3,
      "note": 60,
      "start": 86.125,
      "duration": 0.6666,
      "velocity": 120,
      "chip": "ym2612"
    },
    {
      "channel": 5,
      "note": 103,
      "start": 86.2582,
      "duration": 0.131,
      "velocity": 127,
      "chip": "ym2612"
    },
    {
      "channel": 1,
      "note": 67,
      "start": 86.3254,
      "duration": 0.4662,
      "velocity": 120,
      "chip": "ym2612"
    },
    {
      "channel": 5,
      "note": 103,
      "start": 86.3924,
      "duration": 0.399,
      "velocity": 127,
      "chip": "ym2612"
    },
    {
      "channel": 0,
      "note": 81,
      "start": 86.7956,
      "duration": 0.0627,
      "velocity": 97,
      "chip": "ym2612"
    },
    {
      "channel": 2,
      "note": 69,
      "start": 86.7971,
      "duration": 0.0613,
      "velocity": 107,
      "chip": "ym2612"
    },
    {
      "channel": 3,
      "note": 88,
      "start": 86.7986,
      "duration": 0.0599,
      "velocity": 97,
      "chip": "ym2612"
    },
    {
      "channel": 0,
      "note": 76,
      "start": 86.8615,
      "duration": 0.0638,
      "velocity": 97,
      "chip": "ym2612"
    },
    {
      "channel": 2,
      "note": 64,
      "start": 86.8619,
      "duration": 0.0634,
      "velocity": 107,
      "chip": "ym2612"
    },
    {
      "channel": 3,
      "note": 84,
      "start": 86.8624,
      "duration": 0.0631,
      "velocity": 97,
      "chip": "ym2612"
    },
    {
      "channel": 0,
      "note": 72,
      "start": 86.9284,
      "duration": 0.0639,
      "velocity": 97,
      "chip": "ym2612"
    },
    {
      "channel": 2,
      "note": 60,
      "start": 86.9289,
      "duration": 0.0636,
      "velocity": 107,
      "chip": "ym2612"
    },
    {
      "channel": 3,
      "note": 81,
      "start": 86.9293,
      "duration": 0.0632,
      "velocity": 97,
      "chip": "ym2612"
    },
    {
      "channel": 0,
      "note": 69,
      "start": 86.9955,
      "duration": 0.0638,
      "velocity": 97,
      "chip": "ym2612"
    },
    {
      "channel": 1,
      "note": 81,
      "start": 86.997,
      "duration": 0.0623,
      "velocity": 97,
      "chip": "ym2612"
    },
    {
      "channel": 2,
      "note": 57,
      "start": 86.9974,
      "duration": 0.062,
      "velocity": 107,
      "chip": "ym2612"
    },
    {
      "channel": 3,
      "note": 76,
      "start": 86.998,
      "duration": 0.0617,
      "velocity": 97,
      "chip": "ym2612"
    },
    {
      "channel": 4,
      "note": 88,
      "start": 86.9995,
      "duration": 0.0603,
      "velocity": 97,
      "chip": "ym2612"
    }
  ]
}