{
  "track_name": "11 - Track 17",
  "duration_sec": 22.631,
  "sample_rate": 44100,
  "note_count": 412,
  "unique_pitches": 26,
  "pitch_range": 39,
  "avg_note_duration": 0.1686,
  "reconstruction_stats": {
    "notes_reconstructed": 412,
    "keyon_events": 412,
    "keyoff_events": 409,
    "orphan_keyons": 3,
    "unique_pitches": 26,
    "pitch_range": 39,
    "avg_duration_sec": 0.1686
  },
  "metadata": {
    "source": "S\\Slam Dunk - Kyougou Makkou Taiketsu!\\11 - Track 17.vgz"
  },
  "notes": [
    {
      "channel": 0,
      "note": 51,
      "start": 0.0022,
      "duration": 0.0398,
      "velocity": 101,
      "chip": "ym2612"
    },
    {
      "channel": 1,
      "note": 51,
      "start": 0.0056,
      "duration": 0.037,
      "velocity": 91,
      "chip": "ym2612"
    },
    {
      "channel": 2,
      "note": 58,
      "start": 0.0083,
      "duration": 0.0348,
      "velocity": 101,
      "chip": "ym2612"
    },
    {
      "channel": 0,
      "note": 51,
      "start": 0.0424,
      "duration": 0.0396,
      "velocity": 101,
      "chip": "ym2612"
    },
    {
      "channel": 1,
      "note": 51,
      "start": 0.0429,
      "duration": 0.0397,
      "velocity": 91,
      "chip": "ym2612"
    },
    {
      "channel": 2,
      "note": 58,
      "start": 0.0434,
      "duration": 0.0397,
      "velocity": 101,
      "chip": "ym2612"
    },
    {
      "channel": 0,
      "note": 51,
      "start": 0.0824,
      "duration": 0.0334,
      "velocity": 101,
      "chip": "ym2612"
    },
    {
      "channel": 1,
      "note": 51,
      "start": 0.0829,
      "duration": 0.0333,
      "velocity": 91,
      "chip": "ym2612"
    },
    {
      "channel": 2,
      "note": 58,
      "start": 0.0834,
      "duration": 0.0334,
      "velocity": 101,
      "chip": "ym2612"
    },
    {
      "channel": 0,
      "note": 51,
      "start": 0.1161,
      "duration": 0.0302,
      "velocity": 101,
      "chip": "ym2612"
    },
    {
      "channel": 1,
      "note": 51,
      "start": 0.1166,
      "duration": 0.0303,
      "velocity": 91,
      "chip": "ym2612"
    },
    {
      "channel": 2,
      "note": 58,
      "start": 0.1171,
      "duration": 0.0303,
      "velocity": 101,
      "chip": "ym2612"
    },
    {
      "channel": 0,
      "note": 51,
      "start": 0.1467,
      "duration": 0.0328,
      "velocity": 101,
      "chip": "ym2612"
    },
    {
      "channel": 1,
      "note": 51,
      "start": 0.1473,
      "duration": 0.0328,
      "velocity": 91,
      "chip": "ym2612"
    },
    {
      "channel": 2,
      "note": 58,
      "start": 0.1478,
      "duration": 0.0328,
      "velocity": 101,
      "chip": "ym2612"
    },
    {
      "channel": 0,
      "note": 51,
      "start": 0.18,
      "duration": 0.0293,
      "velocity": 101,
      "chip": "ym2612"
    },
    {
      "channel": 1,
      "note": 51,
      "start": 0.1805,
      "duration": 0.0293,
      "velocity": 91,
      "chip": "ym2612"
    },
    {
      "channel": 2,
      "note": 58,
      "start": 0.181,
      "duration": 0.0293,
      "velocity": 101,
      "chip": "ym2612"
    },
    {
      "channel": 0,
      "note": 51,
      "start": 0.2096,
      "duration": 0.0321,
      "velocity": 101,
      "chip": "ym2612"
    },
    {
      "channel": 1,
      "note": 51,
      "start": 0.2101,
      "duration": 0.0321,
      "velocity": 91,
      "chip": "ym2612"
    },
    {
      "channel": 2,
      "note": 58,
      "start": 0.2106,
      "duration": 0.0322,
      "velocity": 101,
      "chip": "ym2612"
    },
    {
      "channel": 0,
      "note": 51,
      "start": 0.2421,
      "duration": 0.0301,
      "velocity": 101,
      "chip": "ym2612"
    },
    {
      "channel": 1,
      "note": 49,
      "start": 0.2428,
      "duration": 0.0301,
      "velocity": 91,
      "chip": "ym2612"
    },
    {
      "channel": 2,
      "note": 58,
      "start": 0.2432,
      "duration": 0.0303,
      "velocity": 101,
      "chip": "ym2612"
    },
    {
      "channel": 0,
      "note": 51,
      "start": 0.2728,
      "duration": 0.0328,
      "velocity": 101,
      "chip": "ym2612"
    },
    {
      "channel": 1,
      "note": 51,
      "start": 0.2734,
      "duration": 0.0327,
      "velocity": 91,
      "chip": "ym2612"
    },
    {
      "channel": 2,
      "note": 58,
      "start": 0.2741,
      "duration": 0.0325,
      "velocity": 101,
      "chip": "ym2612"
    },
    {
      "channel": 0,
      "note": 51,
      "start": 0.3059,
      "duration": 0.0293,
      "velocity": 101,
      "chip": "ym2612"
    },
    {
      "channel": 1,
      "note": 51,
      "start": 0.3065,
      "duration": 0.0293,
      "velocity": 91,
      "chip": "ym2612"
    },
    {
      "channel": 2,
      "note": 58,
      "start": 0.307,
      "duration": 0.0293,
      "velocity": 101,
      "chip": "ym2612"
    },
    {
      "channel": 0,
      "note": 51,
      "start": 0.3356,
      "duration": 0.0304,
      "velocity": 101,
      "chip": "ym2612"
    },
    {
      "channel": 1,
      "note": 51,
      "start": 0.3361,
      "duration": 0.0304,
      "velocity": 91,
      "chip": "ym2612"
    },
    {
      "channel": 2,
      "note": 58,
      "start": 0.3366,
      "duration": 0.0304,
      "velocity": 101,
      "chip": "ym2612"
    },
    {
      "channel": 0,
      "note": 51,
      "start": 0.3663,
      "duration": 0.0772,
      "velocity": 101,
      "chip": "ym2612"
    },
    {
      "channel": 1,
      "note": 51,
      "start": 0.3669,
      "duration": 0.0773,
      "velocity": 91,
      "chip": "ym2612"
    },
    {
      "channel": 2,
      "note": 58,
      "start": 0.3674,
      "duration": 0.0774,
      "velocity": 101,
      "chip": "ym2612"
    },
    {
      "channel": 0,
      "note": 54,
      "start": 0.4441,
      "duration": 0.0327,
      "velocity": 101,
      "chip": "ym2612"
    },
    {
      "channel": 1,
      "note": 54,
      "start": 0.4447,
      "duration": 0.0327,
      "velocity": 91,
      "chip": "ym2612"
    },
    {
      "channel": 2,
      "note": 61,
      "start": 0.4453,
      "duration": 0.0327,
      "velocity": 101,
      "chip": "ym2612"
    },
    {
      "channel": 0,
      "note": 49,
      "start": 0.4773,
      "duration": 0.0309,
      "velocity": 101,
      "chip": "ym2612"
    },
    {
      "channel": 1,
      "note": 49,
      "start": 0.4779,
      "duration": 0.0309,
      "velocity": 91,
      "chip": "ym2612"
    },
    {
      "channel": 2,
      "note": 56,
      "start": 0.4785,
      "duration": 0.0309,
      "velocity": 101,
      "chip": "ym2612"
    },
    {
      "channel": 0,
      "note": 50,
      "start": 0.5087,
      "duration": 0.0323,
      "velocity": 101,
      "chip": "ym2612"
    },
    {
      "channel": 1,
      "note": 50,
      "start": 0.5093,
      "duration": 0.0324,
      "velocity": 91,
      "chip": "ym2612"
    },
    {
      "channel": 2,
      "note": 57,
      "start": 0.5099,
      "duration": 0.0324,
      "velocity": 101,
      "chip": "ym2612"
    },
    {
      "channel": 0,
      "note": 51,
      "start": 0.5415,
      "duration": 0.0298,
      "velocity": 101,
      "chip": "ym2612"
    },
    {
      "channel": 1,
      "note": 51,
      "start": 0.5422,
      "duration": 0.0297,
      "velocity": 91,
      "chip": "ym2612"
    },
    {
      "channel": 2,
      "note": 58,
      "start": 0.5428,
      "duration": 0.0295,
      "velocity": 101,
      "chip": "ym2612"
    },
    {
      "channel": 0,
      "note": 51,
      "start": 0.5717,
      "duration": 0.0518,
      "velocity": 101,
      "chip": "ym2612"
    },
    {
      "channel": 1,
      "note": 51,
      "start": 0.5721,
      "duration": 0.0519,
      "velocity": 91,
      "chip": "ym2612"
    },
    {
      "channel": 2,
      "note": 58,
      "start": 0.5727,
      "duration": 0.0518,
      "velocity": 101,
      "chip": "ym2612"
    },
    {
      "channel": 0,
      "note": 51,
      "start": 0.6239,
      "duration": 0.0303,
      "velocity": 101,
      "chip": "ym2612"
    },
    {
      "channel": 1,
      "note": 51,
      "start": 0.6244,
      "duration": 0.0303,
      "velocity": 91,
      "chip": "ym2612"
    },
    {
      "channel": 2,
      "note": 58,
      "start": 0.6249,
      "duration": 0.0303,
      "velocity": 101,
      "chip": "ym2612"
    },
    {
      "channel": 0,
      "note": 51,
      "start": 0.6546,
      "duration": 0.0296,
      "velocity": 101,
      "chip": "ym2612"
    },
    {
      "channel": 1,
      "note": 51,
      "start": 0.655,
      "duration": 0.0297,
      "velocity": 91,
      "chip": "ym2612"
    },
    {
      "channel": 2,
      "note": 58,
      "start": 0.6555,
      "duration": 0.0297,
      "velocity": 101,
      "chip": "ym2612"
    },
    {
      "channel": 0,
      "note": 51,
      "start": 0.6846,
      "duration": 0.0328,
      "velocity": 101,
      "chip": "ym2612"
    },
    {
      "channel": 1,
      "note": 51,
      "start": 0.6851,
      "duration": 0.0328,
      "velocity": 91,
      "chip": "ym2612"
    },
    {
      "channel": 2,
      "note": 58,
      "start": 0.6856,
      "duration": 0.0328,
      "velocity": 101,
      "chip": "ym2612"
    },
    {
      "channel": 0,
      "note": 51,
      "start": 0.7178,
      "duration": 0.0294,
      "velocity": 101,
      "chip": "ym2612"
    },
    {
      "channel": 1,
      "note": 51,
      "start": 0.7183,
      "duration": 0.0294,
      "velocity": 91,
      "chip": "ym2612"
    },
    {
      "channel": 2,
      "note": 58,
      "start": 0.7188,
      "duration": 0.0294,
      "velocity": 101,
      "chip": "ym2612"
    },
    {
      "channel": 0,
      "note": 51,
      "start": 0.7476,
      "duration": 0.0333,
      "velocity": 101,
      "chip": "ym2612"
    },
    {
      "channel": 1,
      "note": 51,
      "start": 0.7481,
      "duration": 0.0333,
      "velocity": 91,
      "chip": "ym2612"
    },
    {
      "channel": 2,
      "note": 58,
      "start": 0.7486,
      "duration": 0.0334,
      "velocity": 101,
      "chip": "ym2612"
    },
    {
      "channel": 0,
      "note": 51,
      "start": 0.7812,
      "duration": 0.031,
      "velocity": 101,
      "chip": "ym2612"
    },
    {
      "channel": 1,
      "note": 49,
      "start": 0.7818,
      "duration": 0.031,
      "velocity": 91,
      "chip": "ym2612"
    },
    {
      "channel": 2,
      "note": 58,
      "start": 0.7824,
      "duration": 0.0314,
      "velocity": 101,
      "chip": "ym2612"
    },
    {
      "channel": 0,
      "note": 51,
      "start": 0.8127,
      "duration": 0.0331,
      "velocity": 101,
      "chip": "ym2612"
    },
    {
      "channel": 1,
      "note": 51,
      "start": 0.8133,
      "duration": 0.0331,
      "velocity": 91,
      "chip": "ym2612"
    },
    {
      "channel": 2,
      "note": 58,
      "start": 0.8143,
      "duration": 0.0327,
      "velocity": 101,
      "chip": "ym2612"
    },
    {
      "channel": 0,
      "note": 54,
      "start": 0.8463,
      "duration": 0.0297,
      "velocity": 101,
      "chip": "ym2612"
    },
    {
      "channel": 1,
      "note": 54,
      "start": 0.8469,
      "duration": 0.0297,
      "velocity": 91,
      "chip": "ym2612"
    },
    {
      "channel": 2,
      "note": 61,
      "start": 0.8476,
      "duration": 0.0297,
      "velocity": 101,
      "chip": "ym2612"
    },
    {
      "channel": 0,
      "note": 55,
      "start": 0.8765,
      "duration": 0.0327,
      "velocity": 101,
      "chip": "ym2612"
    },
    {
      "channel": 1,
      "note": 55,
      "start": 0.8771,
      "duration": 0.0327,
      "velocity": 91,
      "chip": "ym2612"
    },
    {
      "channel": 2,
      "note": 62,
      "start": 0.8778,
      "duration": 0.0327,
      "velocity": 101,
      "chip": "ym2612"
    },
    {
      "channel": 0,
      "note": 56,
      "start": 0.9097,
      "duration": 0.0674,
      "velocity": 101,
      "chip": "ym2612"
    },
    {
      "channel": 1,
      "note": 56,
      "start": 0.9104,
      "duration": 0.0674,
      "velocity": 91,
      "chip": "ym2612"
    },
    {
      "channel": 2,
      "note": 63,
      "start": 0.911,
      "duration": 0.0677,
      "velocity": 101,
      "chip": "ym2612"
    },
    {
      "channel": 3,
      "note": 60,
      "start": 0.9117,
      "duration": 0.0676,
      "velocity": 101,
      "chip": "ym2612"
    },
    {
      "channel": 0,
      "note": 48,
      "start": 0.9776,
      "duration": 0.0323,
      "velocity": 101,
      "chip": "ym2612"
    },
    {
      "channel": 1,
      "note": 48,
      "start": 0.9783,
      "duration": 0.0323,
      "velocity": 91,
      "chip": "ym2612"
    },
    {
      "channel": 2,
      "note": 55,
      "start": 0.9792,
      "duration": 0.032,
      "velocity": 101,
      "chip": "ym2612"
    },
    {
      "channel": 3,
      "note": 61,
      "start": 0.9798,
      "duration": 0.032,
      "velocity": 101,
      "chip": "ym2612"
    },
    {
      "channel": 0,
      "note": 49,
      "start": 1.0104,
      "duration": 0.0332,
      "velocity": 101,
      "chip": "ym2612"
    },
    {
      "channel": 1,
      "note": 49,
      "start": 1.0111,
      "duration": 0.0332,
      "velocity": 91,
      "chip": "ym2612"
    },
    {
      "channel": 2,
      "note": 56,
      "start": 1.0117,
      "duration": 0.0332,
      "velocity": 101,
      "chip": "ym2612"
    },
    {
      "channel": 3,
      "note": 60,
      "start": 1.0123,
      "duration": 0.0332,
      "velocity": 101,
      "chip": "ym2612"
    },
    {
      "channel": 0,
      "note": 50,
      "start": 1.0442,
      "duration": 0.0391,
      "velocity": 101,
      "chip": "ym2612"
    },
    {
      "channel": 1,
      "note": 50,
      "start": 1.0448,
      "duration": 0.0391,
      "velocity": 91,
      "chip": "ym2612"
    },
    {
      "channel": 2,
      "note": 57,
      "start": 1.0454,
      "duration": 0.0391,
      "velocity": 101,
      "chip": "ym2612"
    },
    {
      "channel": 3,
      "note": 56,
      "start": 1.0461,
      "duration": 0.0391,
      "velocity": 101,
      "chip": "ym2612"
    },
    {
      "channel": 0,
      "note": 51,
      "start": 1.0838,
      "duration": 0.0299,
      "velocity": 101,
      "chip": "ym2612"
    },
    {
      "channel": 1,
      "note": 51,
      "start": 1.0844,
      "duration": 0.0298,
      "velocity": 91,
      "chip": "ym2612"
    },
    {
      "channel": 2,
      "note": 58,
      "start": 1.0851,
      "duration": 0.0297,
      "velocity": 101,
      "chip": "ym2612"
    },
    {
      "channel": 0,
      "note": 51,
      "start": 1.1141,
      "duration": 0.0516,
      "velocity": 101,
      "chip": "ym2612"
    },
    {
      "channel": 1,
      "note": 51,
      "start": 1.1145,
      "duration": 0.0517,
      "velocity": 91,
      "chip": "ym2612"
    },
    {
      "channel": 2,
      "note": 58,
      "start": 1.115,
      "duration": 0.0516,
      "velocity": 101,
      "chip": "ym2612"
    },
    {
      "channel": 0,
      "note": 51,
      "start": 1.166,
      "duration": 0.0305,
      "velocity": 101,
      "chip": "ym2612"
    },
    {
      "channel": 1,
      "note": 51,
      "start": 1.1666,
      "duration": 0.0304,
      "velocity": 91,
      "chip": "ym2612"
    },
    {
      "channel": 2,
      "note": 58,
      "start": 1.1671,
      "duration": 0.0305,
      "velocity": 101,
      "chip": "ym2612"
    },
    {
      "channel": 0,
      "note": 51,
      "start": 1.1969,
      "duration": 0.0331,
      "velocity": 101,
      "chip": "ym2612"
    },
    {
      "channel": 1,
      "note": 51,
      "start": 1.1973,
      "duration": 0.0332,
      "velocity": 91,
      "chip": "ym2612"
    },
    {
      "channel": 2,
      "note": 58,
      "start": 1.1978,
      "duration": 0.0332,
      "velocity": 101,
      "chip": "ym2612"
    },
    {
      "channel": 0,
      "note": 51,
      "start": 1.2304,
      "duration": 0.0298,
      "velocity": 101,
      "chip": "ym2612"
    },
    {
      "channel": 1,
      "note": 51,
      "start": 1.2309,
      "duration": 0.0298,
      "velocity": 91,
      "chip": "ym2612"
    },
    {
      "channel": 2,
      "note": 58,
      "start": 1.2314,
      "duration": 0.0298,
      "velocity": 101,
      "chip": "ym2612"
    },
    {
      "channel": 0,
      "note": 51,
      "start": 1.2605,
      "duration": 0.0323,
      "velocity": 101,
      "chip": "ym2612"
    },
    {
      "channel": 1,
      "note": 51,
      "start": 1.2611,
      "duration": 0.0323,
      "velocity": 91,
      "chip": "ym2612"
    },
    {
      "channel": 2,
      "note": 58,
      "start": 1.2616,
      "duration": 0.0323,
      "velocity": 101,
      "chip": "ym2612"
    },
    {
      "channel": 0,
      "note": 51,
      "start": 1.2932,
      "duration": 0.0291,
      "velocity": 101,
      "chip": "ym2612"
    },
    {
      "channel": 1,
      "note": 51,
      "start": 1.2938,
      "duration": 0.0291,
      "velocity": 91,
      "chip": "ym2612"
    },
    {
      "channel": 2,
      "note": 58,
      "start": 1.2943,
      "duration": 0.0292,
      "velocity": 101,
      "chip": "ym2612"
    },
    {
      "channel": 0,
      "note": 51,
      "start": 1.3227,
      "duration": 0.0296,
      "velocity": 101,
      "chip": "ym2612"
    },
    {
      "channel": 1,
      "note": 49,
      "start": 1.3234,
      "duration": 0.0296,
      "velocity": 91,
      "chip": "ym2612"
    },
    {
      "channel": 2,
      "note": 58,
      "start": 1.3238,
      "duration": 0.0298,
      "velocity": 101,
      "chip": "ym2612"
    },
    {
      "channel": 0,
      "note": 51,
      "start": 1.3529,
      "duration": 0.0327,
      "velocity": 101,
      "chip": "ym2612"
    },
    {
      "channel": 1,
      "note": 51,
      "start": 1.3535,
      "duration": 0.0326,
      "velocity": 91,
      "chip": "ym2612"
    },
    {
      "channel": 2,
      "note": 58,
      "start": 1.3541,
      "duration": 0.0325,
      "velocity": 101,
      "chip": "ym2612"
    },
    {
      "channel": 0,
      "note": 51,
      "start": 1.386,
      "duration": 0.0294,
      "velocity": 101,
      "chip": "ym2612"
    },
    {
      "channel": 1,
      "note": 51,
      "start": 1.3865,
      "duration": 0.0294,
      "velocity": 91,
      "chip": "ym2612"
    },
    {
      "channel": 2,
      "note": 58,
      "start": 1.387,
      "duration": 0.0294,
      "velocity": 101,
      "chip": "ym2612"
    },
    {
      "channel": 0,
      "note": 51,
      "start": 1.4157,
      "duration": 0.0333,
      "velocity": 101,
      "chip": "ym2612"
    },
    {
      "channel": 1,
      "note": 51,
      "start": 1.4163,
      "duration": 0.0333,
      "velocity": 91,
      "chip": "ym2612"
    },
    {
      "channel": 2,
      "note": 58,
      "start": 1.4168,
      "duration": 0.0333,
      "velocity": 101,
      "chip": "ym2612"
    },
    {
      "channel": 0,
      "note": 51,
      "start": 1.4494,
      "duration": 0.0821,
      "velocity": 101,
      "chip": "ym2612"
    },
    {
      "channel": 1,
      "note": 51,
      "start": 1.4499,
      "duration": 0.0822,
      "velocity": 91,
      "chip": "ym2612"
    },
    {
      "channel": 2,
      "note": 58,
      "start": 1.4504,
      "duration": 0.0824,
      "velocity": 101,
      "chip": "ym2612"
    },
    {
      "channel": 0,
      "note": 54,
      "start": 1.532,
      "duration": 0.0296,
      "velocity": 101,
      "chip": "ym2612"
    },
    {
      "channel": 1,
      "note": 54,
      "start": 1.5327,
      "duration": 0.0296,
      "velocity": 91,
      "chip": "ym2612"
    },
    {
      "channel": 2,
      "note": 61,
      "start": 1.5333,
      "duration": 0.0296,
      "velocity": 101,
      "chip": "ym2612"
    },
    {
      "channel": 0,
      "note": 49,
      "start": 1.5622,
      "duration": 0.0338,
      "velocity": 101,
      "chip": "ym2612"
    },
    {
      "channel": 1,
      "note": 49,
      "start": 1.5628,
      "duration": 0.0338,
      "velocity": 91,
      "chip": "ym2612"
    },
    {
      "channel": 2,
      "note": 56,
      "start": 1.5635,
      "duration": 0.0338,
      "velocity": 101,
      "chip": "ym2612"
    },
    {
      "channel": 0,
      "note": 50,
      "start": 1.5965,
      "duration": 0.0294,
      "velocity": 101,
      "chip": "ym2612"
    },
    {
      "channel": 1,
      "note": 50,
      "start": 1.5971,
      "duration": 0.0294,
      "velocity": 91,
      "chip": "ym2612"
    },
    {
      "channel": 2,
      "note": 57,
      "start": 1.5978,
      "duration": 0.0294,
      "velocity": 101,
      "chip": "ym2612"
    },
    {
      "channel": 0,
      "note": 51,
      "start": 1.6264,
      "duration": 0.0329,
      "velocity": 101,
      "chip": "ym2612"
    },
    {
      "channel": 1,
      "note": 51,
      "start": 1.6271,
      "duration": 0.0327,
      "velocity": 91,
      "chip": "ym2612"
    },
    {
      "channel": 2,
      "note": 58,
      "start": 1.6277,
      "duration": 0.0326,
      "velocity": 101,
      "chip": "ym2612"
    },
    {
      "channel": 0,
      "note": 51,
      "start": 1.6597,
      "duration": 0.0487,
      "velocity": 101,
      "chip": "ym2612"
    },
    {
      "channel": 1,
      "note": 51,
      "start": 1.6601,
      "duration": 0.0488,
      "velocity": 91,
      "chip": "ym2612"
    },
    {
      "channel": 2,
      "note": 58,
      "start": 1.6607,
      "duration": 0.0488,
      "velocity": 101,
      "chip": "ym2612"
    },
    {
      "channel": 0,
      "note": 51,
      "start": 1.7088,
      "duration": 0.0304,
      "velocity": 101,
      "chip": "ym2612"
    },
    {
      "channel": 1,
      "note": 51,
      "start": 1.7093,
      "duration": 0.0304,
      "velocity": 91,
      "chip": "ym2612"
    },
    {
      "channel": 2,
      "note": 58,
      "start": 1.7098,
      "duration": 0.0304,
      "velocity": 101,
      "chip": "ym2612"
    },
    {
      "channel": 0,
      "note": 51,
      "start": 1.7396,
      "duration": 0.0331,
      "velocity": 101,
      "chip": "ym2612"
    },
    {
      "channel": 1,
      "note": 51,
      "start": 1.74,
      "duration": 0.0332,
      "velocity": 91,
      "chip": "ym2612"
    },
    {
      "channel": 2,
      "note": 58,
      "start": 1.7405,
      "duration": 0.0332,
      "velocity": 101,
      "chip": "ym2612"
    },
    {
      "channel": 0,
      "note": 51,
      "start": 1.7731,
      "duration": 0.0298,
      "velocity": 101,
      "chip": "ym2612"
    },
    {
      "channel": 1,
      "note": 51,
      "start": 1.7736,
      "duration": 0.0298,
      "velocity": 91,
      "chip": "ym2612"
    },
    {
      "channel": 2,
      "note": 58,
      "start": 1.7741,
      "duration": 0.0298,
      "velocity": 101,
      "chip": "ym2612"
    },
    {
      "channel": 0,
      "note": 51,
      "start": 1.8033,
      "duration": 0.0323,
      "velocity": 101,
      "chip": "ym2612"
    },
    {
      "channel": 1,
      "note": 51,
      "start": 1.8038,
      "duration": 0.0323,
      "velocity": 91,
      "chip": "ym2612"
    },
    {
      "channel": 2,
      "note": 58,
      "start": 1.8043,
      "duration": 0.0323,
      "velocity": 101,
      "chip": "ym2612"
    },
    {
      "channel": 0,
      "note": 51,
      "start": 1.836,
      "duration": 0.0304,
      "velocity": 101,
      "chip": "ym2612"
    },
    {
      "channel": 1,
      "note": 51,
      "start": 1.8365,
      "duration": 0.0304,
      "velocity": 91,
      "chip": "ym2612"
    },
    {
      "channel": 2,
      "note": 58,
      "start": 1.837,
      "duration": 0.0305,
      "velocity": 101,
      "chip": "ym2612"
    },
    {
      "channel": 0,
      "note": 51,
      "start": 1.8667,
      "duration": 0.0339,
      "velocity": 101,
      "chip": "ym2612"
    },
    {
      "channel": 1,
      "note": 49,
      "start": 1.8674,
      "duration": 0.0339,
      "velocity": 91,
      "chip": "ym2612"
    },
    {
      "channel": 2,
      "note": 58,
      "start": 1.8679,
      "duration": 0.0344,
      "velocity": 101,
      "chip": "ym2612"
    },
    {
      "channel": 0,
      "note": 51,
      "start": 1.9012,
      "duration": 0.0314,
      "velocity": 101,
      "chip": "ym2612"
    },
    {
      "channel": 1,
      "note": 51,
      "start": 1.9018,
      "duration": 0.0314,
      "velocity": 91,
      "chip": "ym2612"
    },
    {
      "channel": 2,
      "note": 58,
      "start": 1.9028,
      "duration": 0.0311,
      "velocity": 101,
      "chip": "ym2612"
    },
    {
      "channel": 0,
      "note": 54,
      "start": 1.9332,
      "duration": 0.0327,
      "velocity": 101,
      "chip": "ym2612"
    },
    {
      "channel": 1,
      "note": 54,
      "start": 1.9338,
      "duration": 0.0327,
      "velocity": 91,
      "chip": "ym2612"
    },
    {
      "channel": 2,
      "note": 61,
      "start": 1.9344,
      "duration": 0.0327,
      "velocity": 101,
      "chip": "ym2612"
    },
    {
      "channel": 0,
      "note": 55,
      "start": 1.9663,
      "duration": 0.0298,
      "velocity": 101,
      "chip": "ym2612"
    },
    {
      "channel": 1,
      "note": 55,
      "start": 1.967,
      "duration": 0.0298,
      "velocity": 91,
      "chip": "ym2612"
    },
    {
      "channel": 2,
      "note": 62,
      "start": 1.9676,
      "duration": 0.0298,
      "velocity": 101,
      "chip": "ym2612"
    },
    {
      "channel": 0,
      "note": 56,
      "start": 1.9967,
      "duration": 0.0674,
      "velocity": 101,
      "chip": "ym2612"
    },
    {
      "channel": 1,
      "note": 56,
      "start": 1.9973,
      "duration": 0.0674,
      "velocity": 91,
      "chip": "ym2612"
    },
    {
      "channel": 2,
      "note": 63,
      "start": 1.998,
      "duration": 0.0674,
      "velocity": 101,
      "chip": "ym2612"
    },
    {
      "channel": 3,
      "note": 60,
      "start": 1.9987,
      "duration": 0.0674,
      "velocity": 101,
      "chip": "ym2612"
    },
    {
      "channel": 0,
      "note": 57,
      "start": 2.0646,
      "duration": 0.0316,
      "velocity": 101,
      "chip": "ym2612"
    },
    {
      "channel": 1,
      "note": 57,
      "start": 2.0652,
      "duration": 0.0316,
      "velocity": 91,
      "chip": "ym2612"
    },
    {
      "channel": 2,
      "note": 64,
      "start": 2.0659,
      "duration": 0.0315,
      "velocity": 101,
      "chip": "ym2612"
    },
    {
      "channel": 3,
      "note": 60,
      "start": 2.0664,
      "duration": 0.0317,
      "velocity": 101,
      "chip": "ym2612"
    },
    {
      "channel": 0,
      "note": 58,
      "start": 2.0967,
      "duration": 0.0355,
      "velocity": 101,
      "chip": "ym2612"
    },
    {
      "channel": 1,
      "note": 58,
      "start": 2.0974,
      "duration": 0.0352,
      "velocity": 91,
      "chip": "ym2612"
    },
    {
      "channel": 2,
      "note": 65,
      "start": 2.098,
      "duration": 0.0351,
      "velocity": 101,
      "chip": "ym2612"
    },
    {
      "channel": 3,
      "note": 62,
      "start": 2.0986,
      "duration": 0.0351,
      "velocity": 101,
      "chip": "ym2612"
    },
    {
      "channel": 2,
      "note": 56,
      "start": 2.1337,
      "duration": 0.0301,
      "velocity": 92,
      "chip": "ym2612"
    },
    {
      "channel": 1,
      "note": 56,
      "start": 2.1617,
      "duration": 0.0337,
      "velocity": 91,
      "chip": "ym2612"
    },
    {
      "channel": 3,
      "note": 63,
      "start": 2.1649,
      "duration": 0.0311,
      "velocity": 101,
      "chip": "ym2612"
    },
    {
      "channel": 0,
      "note": 75,
      "start": 2.1953,
      "duration": 0.0308,
      "velocity": 92,
      "chip": "ym2612"
    },
    {
      "channel": 1,
      "note": 56,
      "start": 2.1958,
      "duration": 0.0309,
      "velocity": 91,
      "chip": "ym2612"
    },
    {
      "channel": 3,
      "note": 63,
      "start": 2.1963,
      "duration": 0.0311,
      "velocity": 101,
      "chip": "ym2612"
    },
    {
      "channel": 2,
      "note": 75,
      "start": 2.2113,
      "duration": 0.0317,
      "velocity": 92,
      "chip": "ym2612"
    },
    {
      "channel": 0,
      "note": 78,
      "start": 2.2266,
      "duration": 0.0349,
      "velocity": 92,
      "chip": "ym2612"
    },
    {
      "channel": 1,
      "note": 56,
      "start": 2.2271,
      "duration": 0.035,
      "velocity": 91,
      "chip": "ym2612"
    },
    {
      "channel": 3,
      "note": 63,
      "start": 2.2278,
      "duration": 0.0351,
      "velocity": 101,
      "chip": "ym2612"
    },
    {
      "channel": 2,
      "note": 78,
      "start": 2.2435,
      "duration": 0.0349,
      "velocity": 92,
      "chip": "ym2612"
    },
    {
      "channel": 0,
      "note": 75,
      "start": 2.262,
      "duration": 0.0315,
      "velocity": 92,
      "chip": "ym2612"
    },
    {
      "channel": 1,
      "note": 56,
      "start": 2.2625,
      "duration": 0.0316,
      "velocity": 91,
      "chip": "ym2612"
    },
    {
      "channel": 3,
      "note": 63,
      "start": 2.2633,
      "duration": 0.0316,
      "velocity": 101,
      "chip": "ym2612"
    },
    {
      "channel": 2,
      "note": 75,
      "start": 2.2789,
      "duration": 0.0368,
      "velocity": 92,
      "chip": "ym2612"
    },
    {
      "channel": 0,
      "note": 80,
      "start": 2.294,
      "duration": 0.0814,
      "velocity": 92,
      "chip": "ym2612"
    },
    {
      "channel": 1,
      "note": 56,
      "start": 2.2945,
      "duration": 0.0464,
      "velocity": 91,
      "chip": "ym2612"
    },
    {
      "channel": 3,
      "note": 63,
      "start": 2.2953,
      "duration": 0.0465,
      "velocity": 101,
      "chip": "ym2612"
    },
    {
      "channel": 2,
      "note": 80,
      "start": 2.3163,
      "duration": 0.076,
      "velocity": 92,
      "chip": "ym2612"
    },
    {
      "channel": 1,
      "note": 56,
      "start": 2.3413,
      "duration": 0.0347,
      "velocity": 91,
      "chip": "ym2612"
    },
    {
      "channel": 3,
      "note": 63,
      "start": 2.3421,
      "duration": 0.0348,
      "velocity": 101,
      "chip": "ym2612"
    },
    {
      "channel": 0,
      "note": 75,
      "start": 2.3759,
      "duration": 0.0319,
      "velocity": 92,
      "chip": "ym2612"
    },
    {
      "channel": 1,
      "note": 56,
      "start": 2.3764,
      "duration": 0.0321,
      "velocity": 91,
      "chip": "ym2612"
    },
    {
      "channel": 3,
      "note": 63,
      "start": 2.3772,
      "duration": 0.0321,
      "velocity": 101,
      "chip": "ym2612"
    },
    {
      "channel": 2,
      "note": 75,
      "start": 2.3929,
      "duration": 0.0351,
      "velocity": 92,
      "chip": "ym2612"
    },
    {
      "channel": 0,
      "note": 82,
      "start": 2.4084,
      "duration": 0.0354,
      "velocity": 92,
      "chip": "ym2612"
    },
    {
      "channel": 1,
      "note": 56,
      "start": 2.4089,
      "duration": 0.0356,
      "velocity": 91,
      "chip": "ym2612"
    },
    {
      "channel": 3,
      "note": 63,
      "start": 2.4096,
      "duration": 0.0358,
      "velocity": 101,
      "chip": "ym2612"
    },
    {
      "channel": 2,
      "note": 82,
      "start": 2.4285,
      "duration": 0.0326,
      "velocity": 92,
      "chip": "ym2612"
    },
    {
      "channel": 0,
      "note": 75,
      "start": 2.4443,
      "duration": 0.0321,
      "velocity": 92,
      "chip": "ym2612"
    },
    {
      "channel": 1,
      "note": 56,
      "start": 2.445,
      "duration": 0.0322,
      "velocity": 91,
      "chip": "ym2612"
    },
    {
      "channel": 3,
      "note": 63,
      "start": 2.4459,
      "duration": 0.032,
      "velocity": 101,
      "chip": "ym2612"
    },
    {
      "channel": 2,
      "note": 75,
      "start": 2.4617,
      "duration": 0.0348,
      "velocity": 92,
      "chip": "ym2612"
    },
    {
      "channel": 0,
      "note": 84,
      "start": 2.477,
      "duration": 0.0674,
      "velocity": 92,
      "chip": "ym2612"
    },
    {
      "channel": 1,
      "note": 56,
      "start": 2.4775,
      "duration": 0.0346,
      "velocity": 91,
      "chip": "ym2612"
    },
    {
      "channel": 3,
      "note": 63,
      "start": 2.4783,
      "duration": 0.0345,
      "velocity": 101,
      "chip": "ym2612"
    },
    {
      "channel": 2,
      "note": 84,
      "start": 2.4971,
      "duration": 0.0642,
      "velocity": 92,
      "chip": "ym2612"
    },
    {
      "channel": 1,
      "note": 56,
      "start": 2.5125,
      "duration": 0.0326,
      "velocity": 91,
      "chip": "ym2612"
    },
    {
      "channel": 3,
      "note": 63,
      "start": 2.5132,
      "duration": 0.0326,
      "velocity": 101,
      "chip": "ym2612"
    },
    {
      "channel": 0,
      "note": 78,
      "start": 2.5449,
      "duration": 0.0347,
      "velocity": 92,
      "chip": "ym2612"
    },
    {
      "channel": 1,
      "note": 56,
      "start": 2.5454,
      "duration": 0.0866,
      "velocity": 91,
      "chip": "ym2612"
    },
    {
      "channel": 3,
      "note": 63,
      "start": 2.5463,
      "duration": 0.0345,
      "velocity": 101,
      "chip": "ym2612"
    },
    {
      "channel": 2,
      "note": 78,
      "start": 2.5619,
      "duration": 0.0409,
      "velocity": 92,
      "chip": "ym2612"
    },
    {
      "channel": 0,
      "note": 80,
      "start": 2.5801,
      "duration": 0.0512,
      "velocity": 92,
      "chip": "ym2612"
    },
    {
      "channel": 3,
      "note": 63,
      "start": 2.5811,
      "duration": 0.0517,
      "velocity": 101,
      "chip": "ym2612"
    },
    {
      "channel": 2,
      "note": 80,
      "start": 2.6033,
      "duration": 0.045,
      "velocity": 92,
      "chip": "ym2612"
    },
    {
      "channel": 0,
      "note": 85,
      "start": 2.6318,
      "duration": 0.035,
      "velocity": 92,
      "chip": "ym2612"
    },
    {
      "channel": 1,
      "note": 48,
      "start": 2.6324,
      "duration": 0.035,
      "velocity": 91,
      "chip": "ym2612"
    },
    {
      "channel": 3,
      "note": 63,
      "start": 2.6332,
      "duration": 0.0351,
      "velocity": 101,
      "chip": "ym2612"
    },
    {
      "channel": 2,
      "note": 85,
      "start": 2.6488,
      "duration": 0.035,
      "velocity": 92,
      "chip": "ym2612"
    },
    {
      "channel": 0,
      "note": 84,
      "start": 2.6673,
      "duration": 0.0317,
      "velocity": 92,
      "chip": "ym2612"
    },
    {
      "channel": 1,
      "note": 49,
      "start": 2.6679,
      "duration": 0.0317,
      "velocity": 91,
      "chip": "ym2612"
    },
    {
      "channel": 3,
      "note": 63,
      "start": 2.6687,
      "duration": 0.0317,
      "velocity": 101,
      "chip": "ym2612"
    },
    {
      "channel": 2,
      "note": 84,
      "start": 2.6843,
      "duration": 0.0315,
      "velocity": 92,
      "chip": "ym2612"
    },
    {
      "channel": 0,
      "note": 80,
      "start": 2.6994,
      "duration": 0.0342,
      "velocity": 101,
      "chip": "ym2612"
    },
    {
      "channel": 1,
      "note": 50,
      "start": 2.7001,
      "duration": 0.0342,
      "velocity": 91,
      "chip": "ym2612"
    },
    {
      "channel": 3,
      "note": 63,
      "start": 2.7008,
      "duration": 0.0368,
      "velocity": 101,
      "chip": "ym2612"
    },
    {
      "channel": 2,
      "note": 80,
      "start": 2.7164,
      "duration": 0.0206,
      "velocity": 101,
      "chip": "ym2612"
    },
    {
      "channel": 0,
      "note": 58,
      "start": 2.7341,
      "duration": 0.0324,
      "velocity": 101,
      "chip": "ym2612"
    },
    {
      "channel": 1,
      "note": 51,
      "start": 2.7348,
      "duration": 0.0323,
      "velocity": 91,
      "chip": "ym2612"
    },
    {
      "channel": 0,
      "note": 58,
      "start": 2.7669,
      "duration": 0.0442,
      "velocity": 101,
      "chip": "ym2612"
    },
    {
      "channel": 1,
      "note": 51,
      "start": 2.7673,
      "duration": 0.0443,
      "velocity": 91,
      "chip": "ym2612"
    },
    {
      "channel": 2,
      "note": 61,
      "start": 2.768,
      "duration": 0.0441,
      "velocity": 101,
      "chip": "ym2612"
    },
    {
      "channel": 3,
      "note": 61,
      "start": 2.7687,
      "duration": 0.0441,
      "velocity": 101,
      "chip": "ym2612"
    },
    {
      "channel": 0,
      "note": 58,
      "start": 2.8115,
      "duration": 0.0364,
      "velocity": 101,
      "chip": "ym2612"
    },
    {
      "channel": 1,
      "note": 51,
      "start": 2.812,
      "duration": 0.0364,
      "velocity": 91,
      "chip": "ym2612"
    },
    {
      "channel": 2,
      "note": 62,
      "start": 2.8127,
      "duration": 0.0362,
      "velocity": 101,
      "chip": "ym2612"
    },
    {
      "channel": 3,
      "note": 62,
      "start": 2.8133,
      "duration": 0.0362,
      "velocity": 101,
      "chip": "ym2612"
    },
    {
      "channel": 0,
      "note": 58,
      "start": 2.8483,
      "duration": 0.0317,
      "velocity": 101,
      "chip": "ym2612"
    },
    {
      "channel": 1,
      "note": 51,
      "start": 2.8488,
      "duration": 0.0317,
      "velocity": 91,
      "chip": "ym2612"
    },
    {
      "channel": 2,
      "note": 63,
      "start": 2.8494,
      "duration": 0.0316,
      "velocity": 101,
      "chip": "ym2612"
    },
    {
      "channel": 3,
      "note": 63,
      "start": 2.85,
      "duration": 0.0316,
      "velocity": 101,
      "chip": "ym2612"
    },
    {
      "channel": 0,
      "note": 58,
      "start": 2.8804,
      "duration": 0.0576,
      "velocity": 101,
      "chip": "ym2612"
    },
    {
      "channel": 1,
      "note": 51,
      "start": 2.8808,
      "duration": 0.0577,
      "velocity": 91,
      "chip": "ym2612"
    },
    {
      "channel": 2,
      "note": 66,
      "start": 2.8814,
      "duration": 0.0576,
      "velocity": 101,
      "chip": "ym2612"
    },
    {
      "channel": 3,
      "note": 66,
      "start": 2.8821,
      "duration": 0.0575,
      "velocity": 101,
      "chip": "ym2612"
    },
    {
      "channel": 0,
      "note": 58,
      "start": 2.9384,
      "duration": 0.0322,
      "velocity": 101,
      "chip": "ym2612"
    },
    {
      "channel": 1,
      "note": 51,
      "start": 2.9389,
      "duration": 0.0322,
      "velocity": 91,
      "chip": "ym2612"
    },
    {
      "channel": 2,
      "note": 68,
      "start": 2.9395,
      "duration": 0.0321,
      "velocity": 101,
      "chip": "ym2612"
    },
    {
      "channel": 3,
      "note": 68,
      "start": 2.9402,
      "duration": 0.0321,
      "velocity": 101,
      "chip": "ym2612"
    },
    {
      "channel": 0,
      "note": 58,
      "start": 2.971,
      "duration": 0.0364,
      "velocity": 101,
      "chip": "ym2612"
    },
    {
      "channel": 1,
      "note": 51,
      "start": 2.9715,
      "duration": 0.0364,
      "velocity": 91,
      "chip": "ym2612"
    },
    {
      "channel": 2,
      "note": 69,
      "start": 2.9721,
      "duration": 0.0364,
      "velocity": 101,
      "chip": "ym2612"
    },
    {
      "channel": 3,
      "note": 69,
      "start": 2.9728,
      "duration": 0.0364,
      "velocity": 101,
      "chip": "ym2612"
    },
    {
      "channel": 0,
      "note": 58,
      "start": 3.0078,
      "duration": 0.0324,
      "velocity": 101,
      "chip": "ym2612"
    },
    {
      "channel": 1,
      "note": 49,
      "start": 3.0084,
      "duration": 0.0324,
      "velocity": 91,
      "chip": "ym2612"
    },
    {
      "channel": 2,
      "note": 70,
      "start": 3.009,
      "duration": 0.0324,
      "velocity": 101,
      "chip": "ym2612"
    },
    {
      "channel": 3,
      "note": 70,
      "start": 3.0097,
      "duration": 0.032,
      "velocity": 101,
      "chip": "ym2612"
    },
    {
      "channel": 0,
      "note": 58,
      "start": 3.0407,
      "duration": 0.0273,
      "velocity": 101,
      "chip": "ym2612"
    },
    {
      "channel": 1,
      "note": 51,
      "start": 3.0413,
      "duration": 0.0272,
      "velocity": 91,
      "chip": "ym2612"
    },
    {
      "channel": 0,
      "note": 58,
      "start": 3.0683,
      "duration": 0.0353,
      "velocity": 101,
      "chip": "ym2612"
    },
    {
      "channel": 1,
      "note": 54,
      "start": 3.069,
      "duration": 0.0351,
      "velocity": 91,
      "chip": "ym2612"
    },
    {
      "channel": 2,
      "note": 61,
      "start": 3.0696,
      "duration": 0.0351,
      "velocity": 101,
      "chip": "ym2612"
    },
    {
      "channel": 3,
      "note": 61,
      "start": 3.0702,
      "duration": 0.0351,
      "velocity": 101,
      "chip": "ym2612"
    },
    {
      "channel": 0,
      "note": 58,
      "start": 3.104,
      "duration": 0.0322,
      "velocity": 101,
      "chip": "ym2612"
    },
    {
      "channel": 1,
      "note": 55,
      "start": 3.1046,
      "duration": 0.0321,
      "velocity": 91,
      "chip": "ym2612"
    },
    {
      "channel": 2,
      "note": 62,
      "start": 3.1052,
      "duration": 0.0321,
      "velocity": 101,
      "chip": "ym2612"
    },
    {
      "channel": 3,
      "note": 62,
      "start": 3.1059,
      "duration": 0.0321,
      "velocity": 101,
      "chip": "ym2612"
    },
    {
      "channel": 0,
      "note": 58,
      "start": 3.1366,
      "duration": 0.035,
      "velocity": 101,
      "chip": "ym2612"
    },
    {
      "channel": 1,
      "note": 56,
      "start": 3.1372,
      "duration": 0.0795,
      "velocity": 91,
      "chip": "ym2612"
    },
    {
      "channel": 2,
      "note": 63,
      "start": 3.1378,
      "duration": 0.0345,
      "velocity": 101,
      "chip": "ym2612"
    },
    {
      "channel": 3,
      "note": 63,
      "start": 3.1385,
      "duration": 0.0345,
      "velocity": 101,
      "chip": "ym2612"
    },
    {
      "channel": 0,
      "note": 58,
      "start": 3.172,
      "duration": 0.0442,
      "velocity": 101,
      "chip": "ym2612"
    },
    {
      "channel": 2,
      "note": 66,
      "start": 3.1729,
      "duration": 0.0445,
      "velocity": 101,
      "chip": "ym2612"
    },
    {
      "channel": 3,
      "note": 66,
      "start": 3.1735,
      "duration": 0.0445,
      "velocity": 101,
      "chip": "ym2612"
    },
    {
      "channel": 0,
      "note": 58,
      "start": 3.2166,
      "duration": 0.0353,
      "velocity": 101,
      "chip": "ym2612"
    },
    {
      "channel": 1,
      "note": 57,
      "start": 3.2172,
      "duration": 0.0351,
      "velocity": 91,
      "chip": "ym2612"
    },
    {
      "channel": 2,
      "note": 68,
      "start": 3.2178,
      "duration": 0.0351,
      "velocity": 101,
      "chip": "ym2612"
    },
    {
      "channel": 3,
      "note": 68,
      "start": 3.2185,
      "duration": 0.0351,
      "velocity": 101,
      "chip": "ym2612"
    },
    {
      "channel": 0,
      "note": 58,
      "start": 3.2522,
      "duration": 0.035,
      "velocity": 101,
      "chip": "ym2612"
    },
    {
      "channel": 1,
      "note": 58,
      "start": 3.2528,
      "duration": 0.0349,
      "velocity": 91,
      "chip": "ym2612"
    },
    {
      "channel": 2,
      "note": 66,
      "start": 3.2535,
      "duration": 0.0346,
      "velocity": 101,
      "chip": "ym2612"
    },
    {
      "channel": 3,
      "note": 66,
      "start": 3.2541,
      "duration": 0.0346,
      "velocity": 101,
      "chip": "ym2612"
    },
    {
      "channel": 0,
      "note": 58,
      "start": 3.2876,
      "duration": 0.0351,
      "velocity": 92,
      "chip": "ym2612"
    },
    {
      "channel": 2,
      "note": 63,
      "start": 3.2885,
      "duration": 0.0369,
      "velocity": 92,
      "chip": "ym2612"
    },
    {
      "channel": 3,
      "note": 63,
      "start": 3.2892,
      "duration": 0.0368,
      "velocity": 101,
      "chip": "ym2612"
    },
    {
      "channel": 1,
      "note": 56,
      "start": 3.3234,
      "duration": 0.0307,
      "velocity": 91,
      "chip": "ym2612"
    },
    {
      "channel": 3,
      "note": 63,
      "start": 3.3265,
      "duration": 0.0282,
      "velocity": 101,
      "chip": "ym2612"
    },
    {
      "channel": 0,
      "note": 75,
      "start": 3.354,
      "duration": 0.0505,
      "velocity": 92,
      "chip": "ym2612"
    },
    {
      "channel": 1,
      "note": 56,
      "start": 3.3545,
      "duration": 0.0506,
      "velocity": 91,
      "chip": "ym2612"
    },
    {
      "channel": 3,
      "note": 63,
      "start": 3.3551,
      "duration": 0.0508,
      "velocity": 101,
      "chip": "ym2612"
    },
    {
      "channel": 2,
      "note": 75,
      "start": 3.375,
      "duration": 0.0463,
      "velocity": 92,
      "chip": "ym2612"
    },
    {
      "channel": 0,
      "note": 78,
      "start": 3.405,
      "duration": 0.0315,
      "velocity": 92,
      "chip": "ym2612"
    },
    {
      "channel": 1,
      "note": 56,
      "start": 3.4055,
      "duration": 0.0316,
      "velocity": 91,
      "chip": "ym2612"
    },
    {
      "channel": 3,
      "note": 63,
      "start": 3.4062,
      "duration": 0.0316,
      "velocity": 101,
      "chip": "ym2612"
    },
    {
      "channel": 2,
      "note": 78,
      "start": 3.4219,
      "duration": 0.0315,
      "velocity": 92,
      "chip": "ym2612"
    },
    {
      "channel": 0,
      "note": 75,
      "start": 3.437,
      "duration": 0.0322,
      "velocity": 92,
      "chip": "ym2612"
    },
    {
      "channel": 1,
      "note": 56,
      "start": 3.4375,
      "duration": 0.0324,
      "velocity": 91,
      "chip": "ym2612"
    },
    {
      "channel": 3,
      "note": 63,
      "start": 3.4382,
      "duration": 0.0324,
      "velocity": 101,
      "chip": "ym2612"
    },
    {
      "channel": 2,
      "note": 75,
      "start": 3.4539,
      "duration": 0.0353,
      "velocity": 92,
      "chip": "ym2612"
    },
    {
      "channel": 0,
      "note": 80,
      "start": 3.4697,
      "duration": 0.067,
      "velocity": 92,
      "chip": "ym2612"
    },
    {
      "channel": 1,
      "note": 56,
      "start": 3.4702,
      "duration": 0.0352,
      "velocity": 91,
      "chip": "ym2612"
    },
    {
      "channel": 3,
      "note": 63,
      "start": 3.471,
      "duration": 0.0351,
      "velocity": 101,
      "chip": "ym2612"
    },
    {
      "channel": 2,
      "note": 80,
      "start": 3.4898,
      "duration": 0.067,
      "velocity": 92,
      "chip": "ym2612"
    },
    {
      "channel": 1,
      "note": 56,
      "start": 3.5058,
      "duration": 0.0317,
      "velocity": 91,
      "chip": "ym2612"
    },
    {
      "channel": 3,
      "note": 63,
      "start": 3.5065,
      "duration": 0.0317,
      "velocity": 101,
      "chip": "ym2612"
    },
    {
      "channel": 0,
      "note": 75,
      "start": 3.5372,
      "duration": 0.0347,
      "velocity": 92,
      "chip": "ym2612"
    },
    {
      "channel": 1,
      "note": 56,
      "start": 3.5377,
      "duration": 0.0348,
      "velocity": 91,
      "chip": "ym2612"
    },
    {
      "channel": 3,
      "note": 63,
      "start": 3.5386,
      "duration": 0.0347,
      "velocity": 101,
      "chip": "ym2612"
    },
    {
      "channel": 2,
      "note": 75,
      "start": 3.5573,
      "duration": 0.0316,
      "velocity": 92,
      "chip": "ym2612"
    },
    {
      "channel": 0,
      "note": 82,
      "start": 3.5724,
      "duration": 0.0323,
      "velocity": 92,
      "chip": "ym2612"
    },
    {
      "channel": 1,
      "note": 56,
      "start": 3.5729,
      "duration": 0.0324,
      "velocity": 91,
      "chip": "ym2612"
    },
    {
      "channel": 3,
      "note": 63,
      "start": 3.5737,
      "duration": 0.0326,
      "velocity": 101,
      "chip": "ym2612"
    },
    {
      "channel": 2,
      "note": 82,
      "start": 3.5895,
      "duration": 0.0326,
      "velocity": 92,
      "chip": "ym2612"
    },
    {
      "channel": 0,
      "note": 78,
      "start": 3.6052,
      "duration": 0.0354,
      "velocity": 92,
      "chip": "ym2612"
    },
    {
      "channel": 1,
      "note": 56,
      "start": 3.6059,
      "duration": 0.0354,
      "velocity": 91,
      "chip": "ym2612"
    },
    {
      "channel": 3,
      "note": 63,
      "start": 3.6068,
      "duration": 0.0353,
      "velocity": 101,
      "chip": "ym2612"
    },
    {
      "channel": 2,
      "note": 78,
      "start": 3.6226,
      "duration": 0.035,
      "velocity": 92,
      "chip": "ym2612"
    },
    {
      "channel": 0,
      "note": 84,
      "start": 3.6412,
      "duration": 0.032,
      "velocity": 92,
      "chip": "ym2612"
    },
    {
      "channel": 1,
      "note": 56,
      "start": 3.6417,
      "duration": 0.0322,
      "velocity": 91,
      "chip": "ym2612"
    },
    {
      "channel": 3,
      "note": 63,
      "start": 3.6424,
      "duration": 0.0322,
      "velocity": 101,
      "chip": "ym2612"
    },
    {
      "channel": 2,
      "note": 84,
      "start": 3.6581,
      "duration": 0.0333,
      "velocity": 92,
      "chip": "ym2612"
    },
    {
      "channel": 0,
      "note": 80,
      "start": 3.6737,
      "duration": 0.0361,
      "velocity": 92,
      "chip": "ym2612"
    },
    {
      "channel": 1,
      "note": 56,
      "start": 3.6742,
      "duration": 0.0363,
      "velocity": 91,
      "chip": "ym2612"
    },
    {
      "channel": 3,
      "note": 63,
      "start": 3.675,
      "duration": 0.0363,
      "velocity": 101,
      "chip": "ym2612"
    },
    {
      "channel": 2,
      "note": 80,
      "start": 3.6919,
      "duration": 0.0349,
      "velocity": 92,
      "chip": "ym2612"
    },
    {
      "channel": 0,
      "note": 87,
      "start": 3.7104,
      "duration": 0.0786,
      "velocity": 92,
      "chip": "ym2612"
    },
    {
      "channel": 1,
      "note": 56,
      "start": 3.7109,
      "duration": 0.0788,
      "velocity": 91,
      "chip": "ym2612"
    },
    {
      "channel": 3,
      "note": 63,
      "start": 3.7117,
      "duration": 0.031,
      "velocity": 101,
      "chip": "ym2612"
    },
    {
      "channel": 2,
      "note": 87,
      "start": 3.7274,
      "duration": 0.0818,
      "velocity": 92,
      "chip": "ym2612"
    },
    {
      "channel": 3,
      "note": 63,
      "start": 3.7431,
      "duration": 0.0476,
      "velocity": 101,
      "chip": "ym2612"
    },
    {
      "channel": 0,
      "note": 85,
      "start": 3.7896,
      "duration": 0.0349,
      "velocity": 92,
      "chip": "ym2612"
    },
    {
      "channel": 1,
      "note": 48,
      "start": 3.7902,
      "duration": 0.035,
      "velocity": 91,
      "chip": "ym2612"
    },
    {
      "channel": 3,
      "note": 63,
      "start": 3.791,
      "duration": 0.0351,
      "velocity": 101,
      "chip": "ym2612"
    },
    {
      "channel": 2,
      "note": 85,
      "start": 3.8098,
      "duration": 0.0318,
      "velocity": 92,
      "chip": "ym2612"
    },
    {
      "channel": 0,
      "note": 84,
      "start": 3.8251,
      "duration": 0.0318,
      "velocity": 92,
      "chip": "ym2612"
    },
    {
      "channel": 1,
      "note": 49,
      "start": 3.8257,
      "duration": 0.0318,
      "velocity": 91,
      "chip": "ym2612"
    },
    {
      "channel": 3,
      "note": 63,
      "start": 3.8265,
      "duration": 0.0319,
      "velocity": 101,
      "chip": "ym2612"
    },
    {
      "channel": 2,
      "note": 84,
      "start": 3.8421,
      "duration": 0.0349,
      "velocity": 92,
      "chip": "ym2612"
    },
    {
      "channel": 0,
      "note": 80,
      "start": 3.8574,
      "duration": 0.0373,
      "velocity": 101,
      "chip": "ym2612"
    },
    {
      "channel": 1,
      "note": 50,
      "start": 3.858,
      "duration": 0.0373,
      "velocity": 91,
      "chip": "ym2612"
    },
    {
      "channel": 3,
      "note": 63,
      "start": 3.8588,
      "duration": 0.0399,
      "velocity": 101,
      "chip": "ym2612"
    },
    {
      "channel": 2,
      "note": 80,
      "start": 3.8776,
      "duration": 0.0205,
      "velocity": 101,
      "chip": "ym2612"
    },
    {
      "channel": 0,
      "note": 58,
      "start": 3.8951,
      "duration": 0.0297,
      "velocity": 101,
      "chip": "ym2612"
    },
    {
      "channel": 1,
      "note": 51,
      "start": 3.8958,
      "duration": 0.0296,
      "velocity": 91,
      "chip": "ym2612"
    },
    {
      "channel": 0,
      "note": 58,
      "start": 3.9253,
      "duration": 0.0516,
      "velocity": 101,
      "chip": "ym2612"
    },
    {
      "channel": 1,
      "note": 51,
      "start": 3.9257,
      "duration": 0.0517,
      "velocity": 91,
      "chip": "ym2612"
    },
    {
      "channel": 2,
      "note": 61,
      "start": 3.9263,
      "duration": 0.0516,
      "velocity": 101,
      "chip": "ym2612"
    },
    {
      "channel": 3,
      "note": 61,
      "start": 3.927,
      "duration": 0.0515,
      "velocity": 101,
      "chip": "ym2612"
    },
    {
      "channel": 0,
      "note": 58,
      "start": 3.9773,
      "duration": 0.033,
      "velocity": 101,
      "chip": "ym2612"
    },
    {
      "channel": 1,
      "note": 51,
      "start": 3.9778,
      "duration": 0.033,
      "velocity": 91,
      "chip": "ym2612"
    },
    {
      "channel": 2,
      "note": 62,
      "start": 3.9784,
      "duration": 0.0329,
      "velocity": 101,
      "chip": "ym2612"
    },
    {
      "channel": 3,
      "note": 62,
      "start": 3.9791,
      "duration": 0.0329,
      "velocity": 101,
      "chip": "ym2612"
    },
    {
      "channel": 0,
      "note": 58,
      "start": 4.0107,
      "duration": 0.0353,
      "velocity": 101,
      "chip": "ym2612"
    },
    {
      "channel": 1,
      "note": 51,
      "start": 4.0111,
      "duration": 0.0354,
      "velocity": 91,
      "chip": "ym2612"
    },
    {
      "channel": 2,
      "note": 63,
      "start": 4.0118,
      "duration": 0.0353,
      "velocity": 101,
      "chip": "ym2612"
    },
    {
      "channel": 3,
      "note": 63,
      "start": 4.0125,
      "duration": 0.0352,
      "velocity": 101,
      "chip": "ym2612"
    },
    {
      "channel": 0,
      "note": 58,
      "start": 4.0464,
      "duration": 0.0322,
      "velocity": 101,
      "chip": "ym2612"
    },
    {
      "channel": 1,
      "note": 51,
      "start": 4.0469,
      "duration": 0.0322,
      "velocity": 91,
      "chip": "ym2612"
    },
    {
      "channel": 2,
      "note": 66,
      "start": 4.0476,
      "duration": 0.0321,
      "velocity": 101,
      "chip": "ym2612"
    },
    {
      "channel": 3,
      "note": 66,
      "start": 4.0482,
      "duration": 0.0321,
      "velocity": 101,
      "chip": "ym2612"
    },
    {
      "channel": 0,
      "note": 58,
      "start": 4.079,
      "duration": 0.0322,
      "velocity": 101,
      "chip": "ym2612"
    },
    {
      "channel": 1,
      "note": 51,
      "start": 4.0795,
      "duration": 0.0322,
      "velocity": 91,
      "chip": "ym2612"
    },
    {
      "channel": 2,
      "note": 68,
      "start": 4.0802,
      "duration": 0.0321,
      "velocity": 101,
      "chip": "ym2612"
    },
    {
      "channel": 3,
      "note": 68,
      "start": 4.0808,
      "duration": 0.0321,
      "velocity": 101,
      "chip": "ym2612"
    },
    {
      "channel": 0,
      "note": 58,
      "start": 4.1117,
      "duration": 0.0363,
      "velocity": 101,
      "chip": "ym2612"
    },
    {
      "channel": 1,
      "note": 51,
      "start": 4.1122,
      "duration": 0.0363,
      "velocity": 91,
      "chip": "ym2612"
    },
    {
      "channel": 2,
      "note": 69,
      "start": 4.1128,
      "duration": 0.0363,
      "velocity": 101,
      "chip": "ym2612"
    },
    {
      "channel": 3,
      "note": 69,
      "start": 4.1134,
      "duration": 0.0363,
      "velocity": 101,
      "chip": "ym2612"
    },
    {
      "channel": 0,
      "note": 58,
      "start": 4.1483,
      "duration": 0.0168,
      "velocity": 101,
      "chip": "ym2612"
    },
    {
      "channel": 1,
      "note": 49,
      "start": 4.1489,
      "duration": 0.0332,
      "velocity": 91,
      "chip": "ym2612"
    },
    {
      "channel": 2,
      "note": 70,
      "start": 4.1496,
      "duration": 0.0332,
      "velocity": 101,
      "chip": "ym2612"
    },
    {
      "channel": 3,
      "note": 70,
      "start": 4.1502,
      "duration": 0.0329,
      "velocity": 101,
      "chip": "ym2612"
    },
    {
      "channel": 0,
      "note": 58,
      "start": 4.1654,
      "duration": 0.0161,
      "velocity": 101,
      "chip": "ym2612"
    },
    {
      "channel": 0,
      "note": 58,
      "start": 4.1821,
      "duration": 0.0314,
      "velocity": 101,
      "chip": "ym2612"
    },
    {
      "channel": 1,
      "note": 51,
      "start": 4.1827,
      "duration": 0.031,
      "velocity": 91,
      "chip": "ym2612"
    },
    {
      "channel": 1,
      "note": 56,
      "start": 4.2142,
      "duration": 0.0297,
      "velocity": 91,
      "chip": "ym2612"
    },
    {
      "channel": 2,
      "note": 68,
      "start": 4.2148,
      "duration": 0.0297,
      "velocity": 101,
      "chip": "ym2612"
    },
    {
      "channel": 3,
      "note": 56,
      "start": 4.2155,
      "duration": 0.0297,
      "velocity": 101,
      "chip": "ym2612"
    },
    {
      "channel": 1,
      "note": 58,
      "start": 4.2444,
      "duration": 0.0328,
      "velocity": 91,
      "chip": "ym2612"
    },
    {
      "channel": 2,
      "note": 70,
      "start": 4.2451,
      "duration": 0.0327,
      "velocity": 101,
      "chip": "ym2612"
    },
    {
      "channel": 3,
      "note": 58,
      "start": 4.2457,
      "duration": 0.0327,
      "velocity": 101,
      "chip": "ym2612"
    },
    {
      "channel": 1,
      "note": 51,
      "start": 4.2777,
      "duration": 0.0302,
      "velocity": 91,
      "chip": "ym2612"
    },
    {
      "channel": 2,
      "note": 63,
      "start": 4.2783,
      "duration": 0.0301,
      "velocity": 101,
      "chip": "ym2612"
    },
    {
      "channel": 3,
      "note": 51,
      "start": 4.279,
      "duration": 0.0305,
      "velocity": 101,
      "chip": "ym2612"
    },
    {
      "channel": 1,
      "note": 56,
      "start": 4.3083,
      "duration": 0.0343,
      "velocity": 91,
      "chip": "ym2612"
    },
    {
      "channel": 2,
      "note": 68,
      "start": 4.309,
      "duration": 0.0343,
      "velocity": 101,
      "chip": "ym2612"
    },
    {
      "channel": 3,
      "note": 63,
      "start": 4.31,
      "duration": 0.034,
      "velocity": 101,
      "chip": "ym2612"
    },
    {
      "channel": 1,
      "note": 54,
      "start": 4.3432,
      "duration": 0.0307,
      "velocity": 91,
      "chip": "ym2612"
    },
    {
      "channel": 2,
      "note": 66,
      "start": 4.3438,
      "duration": 0.062,
      "velocity": 101,
      "chip": "ym2612"
    },
    {
      "channel": 3,
      "note": 61,
      "start": 4.3444,
      "duration": 0.0617,
      "velocity": 101,
      "chip": "ym2612"
    },
    {
      "channel": 1,
      "note": 49,
      "start": 4.4057,
      "duration": 0.0303,
      "velocity": 91,
      "chip": "ym2612"
    },
    {
      "channel": 0,
      "note": 51,
      "start": 4.4358,
      "duration": 0.0305,
      "velocity": 101,
      "chip": "ym2612"
    },
    {
      "channel": 1,
      "note": 51,
      "start": 4.4365,
      "duration": 0.0302,
      "velocity": 91,
      "chip": "ym2612"
    },
    {
      "channel": 2,
      "note": 58,
      "start": 4.4372,
      "duration": 0.03,
      "velocity": 101,
      "chip": "ym2612"
    },
    {
      "channel": 0,
      "note": 51,
      "start": 4.4666,
      "duration": 18.1646,
      "velocity": 101,
      "chip": "ym2612"
    },
    {
      "channel": 1,
      "note": 51,
      "start": 4.467,
      "duration": 18.1642,
      "velocity": 91,
      "chip": "ym2612"
    },
    {
      "channel": 2,
      "note": 58,
      "start": 4.4676,
      "duration": 18.1637,
      "velocity": 101,
      "chip": "ym2612"
    }
  ]
}