{
  "track_name": "11 - The Mahout ~Indian Mahout~ (India)",
  "duration_sec": 72.004,
  "sample_rate": 44100,
  "note_count": 1059,
  "unique_pitches": 27,
  "pitch_range": 48,
  "avg_note_duration": 0.3286,
  "reconstruction_stats": {
    "notes_reconstructed": 1059,
    "keyon_events": 1059,
    "keyoff_events": 1055,
    "orphan_keyons": 4,
    "unique_pitches": 27,
    "pitch_range": 48,
    "avg_duration_sec": 0.3286
  },
  "metadata": {
    "source": "D\\Daikoukai Jidai II\\11 - The Mahout ~Indian Mahout~ (India).vgz"
  },
  "notes": [
    {
      "channel": 0,
      "note": 72,
      "start": 0.0126,
      "duration": 0.3151,
      "velocity": 94,
      "chip": "ym2612"
    },
    {
      "channel": 3,
      "note": 72,
      "start": 0.0167,
      "duration": 0.0735,
      "velocity": 94,
      "chip": "ym2612"
    },
    {
      "channel": 4,
      "note": 67,
      "start": 0.0184,
      "duration": 0.0723,
      "velocity": 94,
      "chip": "ym2612"
    },
    {
      "channel": 5,
      "note": 48,
      "start": 0.0201,
      "duration": 0.0772,
      "velocity": 23,
      "chip": "ym2612"
    },
    {
      "channel": 1,
      "note": 72,
      "start": 0.0329,
      "duration": 0.3164,
      "velocity": 94,
      "chip": "ym2612"
    },
    {
      "channel": 3,
      "note": 79,
      "start": 0.0905,
      "duration": 5.2412,
      "velocity": 94,
      "chip": "ym2612"
    },
    {
      "channel": 4,
      "note": 72,
      "start": 0.0911,
      "duration": 5.2408,
      "velocity": 94,
      "chip": "ym2612"
    },
    {
      "channel": 2,
      "note": 72,
      "start": 0.1193,
      "duration": 0.3453,
      "velocity": 94,
      "chip": "ym2612"
    },
    {
      "channel": 0,
      "note": 76,
      "start": 0.3498,
      "duration": 0.3163,
      "velocity": 94,
      "chip": "ym2612"
    },
    {
      "channel": 1,
      "note": 76,
      "start": 0.3785,
      "duration": 0.3164,
      "velocity": 94,
      "chip": "ym2612"
    },
    {
      "channel": 2,
      "note": 76,
      "start": 0.465,
      "duration": 0.3452,
      "velocity": 94,
      "chip": "ym2612"
    },
    {
      "channel": 0,
      "note": 76,
      "start": 0.6954,
      "duration": 0.3451,
      "velocity": 94,
      "chip": "ym2612"
    },
    {
      "channel": 5,
      "note": 72,
      "start": 0.6959,
      "duration": 0.1144,
      "velocity": 23,
      "chip": "ym2612"
    },
    {
      "channel": 1,
      "note": 76,
      "start": 0.7241,
      "duration": 0.3452,
      "velocity": 94,
      "chip": "ym2612"
    },
    {
      "channel": 2,
      "note": 76,
      "start": 0.8107,
      "duration": 0.3451,
      "velocity": 94,
      "chip": "ym2612"
    },
    {
      "channel": 0,
      "note": 77,
      "start": 1.041,
      "duration": 0.2732,
      "velocity": 94,
      "chip": "ym2612"
    },
    {
      "channel": 5,
      "note": 67,
      "start": 1.0417,
      "duration": 0.0998,
      "velocity": 23,
      "chip": "ym2612"
    },
    {
      "channel": 1,
      "note": 77,
      "start": 1.0698,
      "duration": 0.2732,
      "velocity": 94,
      "chip": "ym2612"
    },
    {
      "channel": 2,
      "note": 77,
      "start": 1.1562,
      "duration": 0.3453,
      "velocity": 94,
      "chip": "ym2612"
    },
    {
      "channel": 0,
      "note": 77,
      "start": 1.3865,
      "duration": 0.3452,
      "velocity": 94,
      "chip": "ym2612"
    },
    {
      "channel": 1,
      "note": 77,
      "start": 1.4153,
      "duration": 0.3452,
      "velocity": 94,
      "chip": "ym2612"
    },
    {
      "channel": 2,
      "note": 77,
      "start": 1.502,
      "duration": 0.345,
      "velocity": 94,
      "chip": "ym2612"
    },
    {
      "channel": 0,
      "note": 79,
      "start": 1.7323,
      "duration": 0.345,
      "velocity": 94,
      "chip": "ym2612"
    },
    {
      "channel": 5,
      "note": 55,
      "start": 1.7328,
      "duration": 0.0854,
      "velocity": 23,
      "chip": "ym2612"
    },
    {
      "channel": 1,
      "note": 79,
      "start": 1.761,
      "duration": 0.3451,
      "velocity": 94,
      "chip": "ym2612"
    },
    {
      "channel": 2,
      "note": 79,
      "start": 1.8474,
      "duration": 0.3451,
      "velocity": 94,
      "chip": "ym2612"
    },
    {
      "channel": 0,
      "note": 82,
      "start": 2.0778,
      "duration": 1.3388,
      "velocity": 94,
      "chip": "ym2612"
    },
    {
      "channel": 5,
      "note": 65,
      "start": 2.0783,
      "duration": 0.1287,
      "velocity": 23,
      "chip": "ym2612"
    },
    {
      "channel": 1,
      "note": 82,
      "start": 2.1066,
      "duration": 1.3388,
      "velocity": 94,
      "chip": "ym2612"
    },
    {
      "channel": 2,
      "note": 82,
      "start": 2.193,
      "duration": 1.382,
      "velocity": 94,
      "chip": "ym2612"
    },
    {
      "channel": 5,
      "note": 67,
      "start": 2.2505,
      "duration": 0.1005,
      "velocity": 23,
      "chip": "ym2612"
    },
    {
      "channel": 5,
      "note": 70,
      "start": 2.4233,
      "duration": 0.1005,
      "velocity": 23,
      "chip": "ym2612"
    },
    {
      "channel": 5,
      "note": 48,
      "start": 2.7689,
      "duration": 0.1293,
      "velocity": 23,
      "chip": "ym2612"
    },
    {
      "channel": 0,
      "note": 81,
      "start": 3.4601,
      "duration": 0.3452,
      "velocity": 94,
      "chip": "ym2612"
    },
    {
      "channel": 5,
      "note": 72,
      "start": 3.4606,
      "duration": 0.1,
      "velocity": 23,
      "chip": "ym2612"
    },
    {
      "channel": 1,
      "note": 81,
      "start": 3.4889,
      "duration": 0.3452,
      "velocity": 94,
      "chip": "ym2612"
    },
    {
      "channel": 2,
      "note": 81,
      "start": 3.5754,
      "duration": 0.3451,
      "velocity": 94,
      "chip": "ym2612"
    },
    {
      "channel": 0,
      "note": 82,
      "start": 3.8058,
      "duration": 0.3451,
      "velocity": 94,
      "chip": "ym2612"
    },
    {
      "channel": 5,
      "note": 67,
      "start": 3.8063,
      "duration": 0.0999,
      "velocity": 23,
      "chip": "ym2612"
    },
    {
      "channel": 1,
      "note": 82,
      "start": 3.8346,
      "duration": 0.3451,
      "velocity": 94,
      "chip": "ym2612"
    },
    {
      "channel": 2,
      "note": 82,
      "start": 3.921,
      "duration": 0.3451,
      "velocity": 94,
      "chip": "ym2612"
    },
    {
      "channel": 0,
      "note": 81,
      "start": 4.1517,
      "duration": 0.6904,
      "velocity": 94,
      "chip": "ym2612"
    },
    {
      "channel": 1,
      "note": 81,
      "start": 4.1802,
      "duration": 0.6907,
      "velocity": 94,
      "chip": "ym2612"
    },
    {
      "channel": 2,
      "note": 81,
      "start": 4.2666,
      "duration": 0.6907,
      "velocity": 94,
      "chip": "ym2612"
    },
    {
      "channel": 5,
      "note": 60,
      "start": 4.4969,
      "duration": 0.086,
      "velocity": 23,
      "chip": "ym2612"
    },
    {
      "channel": 0,
      "note": 79,
      "start": 4.8426,
      "duration": 0.3163,
      "velocity": 94,
      "chip": "ym2612"
    },
    {
      "channel": 5,
      "note": 65,
      "start": 4.8431,
      "duration": 0.1287,
      "velocity": 23,
      "chip": "ym2612"
    },
    {
      "channel": 1,
      "note": 79,
      "start": 4.8717,
      "duration": 0.3161,
      "velocity": 94,
      "chip": "ym2612"
    },
    {
      "channel": 2,
      "note": 79,
      "start": 4.9579,
      "duration": 0.345,
      "velocity": 94,
      "chip": "ym2612"
    },
    {
      "channel": 5,
      "note": 67,
      "start": 5.0153,
      "duration": 0.1149,
      "velocity": 23,
      "chip": "ym2612"
    },
    {
      "channel": 0,
      "note": 77,
      "start": 5.1882,
      "duration": 0.2587,
      "velocity": 94,
      "chip": "ym2612"
    },
    {
      "channel": 5,
      "note": 70,
      "start": 5.1887,
      "duration": 0.1144,
      "velocity": 23,
      "chip": "ym2612"
    },
    {
      "channel": 1,
      "note": 77,
      "start": 5.2169,
      "duration": 0.2588,
      "velocity": 94,
      "chip": "ym2612"
    },
    {
      "channel": 2,
      "note": 77,
      "start": 5.3035,
      "duration": 0.3451,
      "velocity": 94,
      "chip": "ym2612"
    },
    {
      "channel": 0,
      "note": 77,
      "start": 5.5337,
      "duration": 0.3453,
      "velocity": 94,
      "chip": "ym2612"
    },
    {
      "channel": 3,
      "note": 72,
      "start": 5.5341,
      "duration": 0.0856,
      "velocity": 94,
      "chip": "ym2612"
    },
    {
      "channel": 4,
      "note": 67,
      "start": 5.5346,
      "duration": 0.0857,
      "velocity": 94,
      "chip": "ym2612"
    },
    {
      "channel": 5,
      "note": 48,
      "start": 5.5351,
      "duration": 0.1279,
      "velocity": 23,
      "chip": "ym2612"
    },
    {
      "channel": 1,
      "note": 77,
      "start": 5.5625,
      "duration": 0.3453,
      "velocity": 94,
      "chip": "ym2612"
    },
    {
      "channel": 3,
      "note": 79,
      "start": 5.6202,
      "duration": 5.2414,
      "velocity": 94,
      "chip": "ym2612"
    },
    {
      "channel": 4,
      "note": 72,
      "start": 5.6207,
      "duration": 5.241,
      "velocity": 94,
      "chip": "ym2612"
    },
    {
      "channel": 2,
      "note": 77,
      "start": 5.649,
      "duration": 0.3451,
      "velocity": 94,
      "chip": "ym2612"
    },
    {
      "channel": 0,
      "note": 81,
      "start": 5.8794,
      "duration": 0.3163,
      "velocity": 94,
      "chip": "ym2612"
    },
    {
      "channel": 1,
      "note": 81,
      "start": 5.9082,
      "duration": 0.3163,
      "velocity": 94,
      "chip": "ym2612"
    },
    {
      "channel": 2,
      "note": 81,
      "start": 5.9946,
      "duration": 0.3451,
      "velocity": 94,
      "chip": "ym2612"
    },
    {
      "channel": 0,
      "note": 81,
      "start": 6.225,
      "duration": 0.7772,
      "velocity": 94,
      "chip": "ym2612"
    },
    {
      "channel": 5,
      "note": 72,
      "start": 6.2254,
      "duration": 0.0999,
      "velocity": 23,
      "chip": "ym2612"
    },
    {
      "channel": 1,
      "note": 81,
      "start": 6.2537,
      "duration": 0.7773,
      "velocity": 94,
      "chip": "ym2612"
    },
    {
      "channel": 2,
      "note": 81,
      "start": 6.3402,
      "duration": 0.7771,
      "velocity": 94,
      "chip": "ym2612"
    },
    {
      "channel": 5,
      "note": 67,
      "start": 6.5705,
      "duration": 0.1293,
      "velocity": 23,
      "chip": "ym2612"
    },
    {
      "channel": 0,
      "note": 82,
      "start": 7.0026,
      "duration": 0.086,
      "velocity": 94,
      "chip": "ym2612"
    },
    {
      "channel": 1,
      "note": 82,
      "start": 7.0316,
      "duration": 0.0859,
      "velocity": 94,
      "chip": "ym2612"
    },
    {
      "channel": 0,
      "note": 81,
      "start": 7.089,
      "duration": 0.8204,
      "velocity": 94,
      "chip": "ym2612"
    },
    {
      "channel": 1,
      "note": 81,
      "start": 7.1178,
      "duration": 0.8203,
      "velocity": 94,
      "chip": "ym2612"
    },
    {
      "channel": 2,
      "note": 82,
      "start": 7.1183,
      "duration": 0.0854,
      "velocity": 94,
      "chip": "ym2612"
    },
    {
      "channel": 2,
      "note": 81,
      "start": 7.2042,
      "duration": 0.8636,
      "velocity": 94,
      "chip": "ym2612"
    },
    {
      "channel": 5,
      "note": 55,
      "start": 7.2619,
      "duration": 0.1003,
      "velocity": 23,
      "chip": "ym2612"
    },
    {
      "channel": 5,
      "note": 65,
      "start": 7.6073,
      "duration": 0.1149,
      "velocity": 23,
      "chip": "ym2612"
    },
    {
      "channel": 5,
      "note": 67,
      "start": 7.7801,
      "duration": 0.1004,
      "velocity": 23,
      "chip": "ym2612"
    },
    {
      "channel": 0,
      "note": 79,
      "start": 7.9529,
      "duration": 2.4332,
      "velocity": 94,
      "chip": "ym2612"
    },
    {
      "channel": 5,
      "note": 70,
      "start": 7.9534,
      "duration": 0.1288,
      "velocity": 23,
      "chip": "ym2612"
    },
    {
      "channel": 1,
      "note": 79,
      "start": 7.982,
      "duration": 2.4329,
      "velocity": 94,
      "chip": "ym2612"
    },
    {
      "channel": 2,
      "note": 79,
      "start": 8.0682,
      "duration": 3.1099,
      "velocity": 94,
      "chip": "ym2612"
    },
    {
      "channel": 5,
      "note": 48,
      "start": 8.2985,
      "duration": 0.1293,
      "velocity": 23,
      "chip": "ym2612"
    },
    {
      "channel": 5,
      "note": 72,
      "start": 8.9897,
      "duration": 0.1293,
      "velocity": 23,
      "chip": "ym2612"
    },
    {
      "channel": 5,
      "note": 67,
      "start": 9.3353,
      "duration": 0.1437,
      "velocity": 23,
      "chip": "ym2612"
    },
    {
      "channel": 5,
      "note": 55,
      "start": 10.0265,
      "duration": 0.1005,
      "velocity": 23,
      "chip": "ym2612"
    },
    {
      "channel": 5,
      "note": 65,
      "start": 10.3721,
      "duration": 0.1294,
      "velocity": 23,
      "chip": "ym2612"
    },
    {
      "channel": 5,
      "note": 67,
      "start": 10.5449,
      "duration": 0.1005,
      "velocity": 23,
      "chip": "ym2612"
    },
    {
      "channel": 5,
      "note": 70,
      "start": 10.7177,
      "duration": 0.1292,
      "velocity": 23,
      "chip": "ym2612"
    },
    {
      "channel": 0,
      "note": 60,
      "start": 11.0633,
      "duration": 0.1437,
      "velocity": 94,
      "chip": "ym2612"
    },
    {
      "channel": 3,
      "note": 60,
      "start": 11.0637,
      "duration": 0.1578,
      "velocity": 94,
      "chip": "ym2612"
    },
    {
      "channel": 5,
      "note": 60,
      "start": 11.0642,
      "duration": 0.0996,
      "velocity": 23,
      "chip": "ym2612"
    },
    {
      "channel": 1,
      "note": 60,
      "start": 11.0921,
      "duration": 0.1437,
      "velocity": 94,
      "chip": "ym2612"
    },
    {
      "channel": 2,
      "note": 60,
      "start": 11.1786,
      "duration": 0.1724,
      "velocity": 94,
      "chip": "ym2612"
    },
    {
      "channel": 0,
      "note": 65,
      "start": 11.2362,
      "duration": 0.1724,
      "velocity": 94,
      "chip": "ym2612"
    },
    {
      "channel": 3,
      "note": 65,
      "start": 11.2366,
      "duration": 0.172,
      "velocity": 94,
      "chip": "ym2612"
    },
    {
      "channel": 5,
      "note": 65,
      "start": 11.2371,
      "duration": 0.0995,
      "velocity": 23,
      "chip": "ym2612"
    },
    {
      "channel": 1,
      "note": 65,
      "start": 11.2649,
      "duration": 0.1724,
      "velocity": 94,
      "chip": "ym2612"
    },
    {
      "channel": 2,
      "note": 65,
      "start": 11.3516,
      "duration": 0.1721,
      "velocity": 94,
      "chip": "ym2612"
    },
    {
      "channel": 0,
      "note": 67,
      "start": 11.4092,
      "duration": 0.1723,
      "velocity": 94,
      "chip": "ym2612"
    },
    {
      "channel": 3,
      "note": 67,
      "start": 11.4097,
      "duration": 0.172,
      "velocity": 94,
      "chip": "ym2612"
    },
    {
      "channel": 5,
      "note": 67,
      "start": 11.4101,
      "duration": 0.128,
      "velocity": 23,
      "chip": "ym2612"
    },
    {
      "channel": 1,
      "note": 67,
      "start": 11.4378,
      "duration": 0.1724,
      "velocity": 94,
      "chip": "ym2612"
    },
    {
      "channel": 2,
      "note": 67,
      "start": 11.5242,
      "duration": 0.1724,
      "velocity": 94,
      "chip": "ym2612"
    },
    {
      "channel": 0,
      "note": 70,
      "start": 11.5821,
      "duration": 0.1721,
      "velocity": 94,
      "chip": "ym2612"
    },
    {
      "channel": 3,
      "note": 70,
      "start": 11.5825,
      "duration": 0.1717,
      "velocity": 94,
      "chip": "ym2612"
    },
    {
      "channel": 5,
      "note": 70,
      "start": 11.583,
      "duration": 0.0992,
      "velocity": 23,
      "chip": "ym2612"
    },
    {
      "channel": 1,
      "note": 70,
      "start": 11.6107,
      "duration": 0.1722,
      "velocity": 94,
      "chip": "ym2612"
    },
    {
      "channel": 2,
      "note": 70,
      "start": 11.697,
      "duration": 0.1723,
      "velocity": 94,
      "chip": "ym2612"
    },
    {
      "channel": 0,
      "note": 72,
      "start": 11.7547,
      "duration": 0.3019,
      "velocity": 94,
      "chip": "ym2612"
    },
    {
      "channel": 3,
      "note": 72,
      "start": 11.7551,
      "duration": 0.1864,
      "velocity": 94,
      "chip": "ym2612"
    },
    {
      "channel": 5,
      "note": 72,
      "start": 11.7556,
      "duration": 0.0849,
      "velocity": 23,
      "chip": "ym2612"
    },
    {
      "channel": 1,
      "note": 72,
      "start": 11.7834,
      "duration": 0.302,
      "velocity": 94,
      "chip": "ym2612"
    },
    {
      "channel": 2,
      "note": 72,
      "start": 11.8698,
      "duration": 0.3451,
      "velocity": 94,
      "chip": "ym2612"
    },
    {
      "channel": 0,
      "note": 60,
      "start": 12.1001,
      "duration": 0.1437,
      "velocity": 94,
      "chip": "ym2612"
    },
    {
      "channel": 3,
      "note": 60,
      "start": 12.1005,
      "duration": 0.1576,
      "velocity": 94,
      "chip": "ym2612"
    },
    {
      "channel": 5,
      "note": 60,
      "start": 12.101,
      "duration": 0.0851,
      "velocity": 23,
      "chip": "ym2612"
    },
    {
      "channel": 1,
      "note": 60,
      "start": 12.1289,
      "duration": 0.1437,
      "velocity": 94,
      "chip": "ym2612"
    },
    {
      "channel": 2,
      "note": 60,
      "start": 12.2155,
      "duration": 0.1722,
      "velocity": 94,
      "chip": "ym2612"
    },
    {
      "channel": 0,
      "note": 65,
      "start": 12.273,
      "duration": 0.1724,
      "velocity": 94,
      "chip": "ym2612"
    },
    {
      "channel": 3,
      "note": 65,
      "start": 12.2734,
      "duration": 0.172,
      "velocity": 94,
      "chip": "ym2612"
    },
    {
      "channel": 5,
      "note": 65,
      "start": 12.2739,
      "duration": 0.0851,
      "velocity": 23,
      "chip": "ym2612"
    },
    {
      "channel": 1,
      "note": 65,
      "start": 12.3019,
      "duration": 0.1723,
      "velocity": 94,
      "chip": "ym2612"
    },
    {
      "channel": 2,
      "note": 65,
      "start": 12.3882,
      "duration": 0.1724,
      "velocity": 94,
      "chip": "ym2612"
    },
    {
      "channel": 0,
      "note": 67,
      "start": 12.4459,
      "duration": 0.1722,
      "velocity": 94,
      "chip": "ym2612"
    },
    {
      "channel": 3,
      "note": 67,
      "start": 12.4463,
      "duration": 0.1574,
      "velocity": 94,
      "chip": "ym2612"
    },
    {
      "channel": 5,
      "note": 67,
      "start": 12.4468,
      "duration": 0.1139,
      "velocity": 23,
      "chip": "ym2612"
    },
    {
      "channel": 1,
      "note": 67,
      "start": 12.4746,
      "duration": 0.1724,
      "velocity": 94,
      "chip": "ym2612"
    },
    {
      "channel": 2,
      "note": 67,
      "start": 12.5613,
      "duration": 0.172,
      "velocity": 94,
      "chip": "ym2612"
    },
    {
      "channel": 0,
      "note": 70,
      "start": 12.6187,
      "duration": 0.1722,
      "velocity": 94,
      "chip": "ym2612"
    },
    {
      "channel": 3,
      "note": 70,
      "start": 12.6192,
      "duration": 0.1719,
      "velocity": 94,
      "chip": "ym2612"
    },
    {
      "channel": 5,
      "note": 70,
      "start": 12.6196,
      "duration": 0.1138,
      "velocity": 23,
      "chip": "ym2612"
    },
    {
      "channel": 1,
      "note": 70,
      "start": 12.6474,
      "duration": 0.1724,
      "velocity": 94,
      "chip": "ym2612"
    },
    {
      "channel": 2,
      "note": 70,
      "start": 12.7339,
      "duration": 0.1722,
      "velocity": 94,
      "chip": "ym2612"
    },
    {
      "channel": 0,
      "note": 72,
      "start": 12.7917,
      "duration": 0.2728,
      "velocity": 94,
      "chip": "ym2612"
    },
    {
      "channel": 3,
      "note": 72,
      "start": 12.7922,
      "duration": 0.1427,
      "velocity": 94,
      "chip": "ym2612"
    },
    {
      "channel": 5,
      "note": 72,
      "start": 12.7927,
      "duration": 0.0991,
      "velocity": 23,
      "chip": "ym2612"
    },
    {
      "channel": 1,
      "note": 72,
      "start": 12.8203,
      "duration": 0.273,
      "velocity": 94,
      "chip": "ym2612"
    },
    {
      "channel": 2,
      "note": 72,
      "start": 12.9066,
      "duration": 0.3451,
      "velocity": 94,
      "chip": "ym2612"
    },
    {
      "channel": 0,
      "note": 60,
      "start": 13.1369,
      "duration": 0.158,
      "velocity": 94,
      "chip": "ym2612"
    },
    {
      "channel": 3,
      "note": 60,
      "start": 13.1373,
      "duration": 0.172,
      "velocity": 94,
      "chip": "ym2612"
    },
    {
      "channel": 5,
      "note": 60,
      "start": 13.1378,
      "duration": 0.0851,
      "velocity": 23,
      "chip": "ym2612"
    },
    {
      "channel": 1,
      "note": 60,
      "start": 13.1657,
      "duration": 0.1581,
      "velocity": 94,
      "chip": "ym2612"
    },
    {
      "channel": 2,
      "note": 60,
      "start": 13.2522,
      "duration": 0.1724,
      "velocity": 94,
      "chip": "ym2612"
    },
    {
      "channel": 0,
      "note": 65,
      "start": 13.3098,
      "duration": 0.1724,
      "velocity": 94,
      "chip": "ym2612"
    },
    {
      "channel": 3,
      "note": 65,
      "start": 13.3102,
      "duration": 0.172,
      "velocity": 94,
      "chip": "ym2612"
    },
    {
      "channel": 5,
      "note": 65,
      "start": 13.3107,
      "duration": 0.1139,
      "velocity": 23,
      "chip": "ym2612"
    },
    {
      "channel": 1,
      "note": 65,
      "start": 13.3385,
      "duration": 0.1724,
      "velocity": 94,
      "chip": "ym2612"
    },
    {
      "channel": 2,
      "note": 65,
      "start": 13.4252,
      "duration": 0.1722,
      "velocity": 94,
      "chip": "ym2612"
    },
    {
      "channel": 0,
      "note": 67,
      "start": 13.4827,
      "duration": 0.1578,
      "velocity": 94,
      "chip": "ym2612"
    },
    {
      "channel": 3,
      "note": 67,
      "start": 13.4832,
      "duration": 0.1718,
      "velocity": 94,
      "chip": "ym2612"
    },
    {
      "channel": 5,
      "note": 67,
      "start": 13.4836,
      "duration": 0.1138,
      "velocity": 23,
      "chip": "ym2612"
    },
    {
      "channel": 1,
      "note": 67,
      "start": 13.5116,
      "duration": 0.1577,
      "velocity": 94,
      "chip": "ym2612"
    },
    {
      "channel": 2,
      "note": 67,
      "start": 13.5979,
      "duration": 0.1722,
      "velocity": 94,
      "chip": "ym2612"
    },
    {
      "channel": 0,
      "note": 70,
      "start": 13.6554,
      "duration": 0.1292,
      "velocity": 94,
      "chip": "ym2612"
    },
    {
      "channel": 3,
      "note": 70,
      "start": 13.6559,
      "duration": 0.1288,
      "velocity": 94,
      "chip": "ym2612"
    },
    {
      "channel": 5,
      "note": 70,
      "start": 13.6563,
      "duration": 0.0995,
      "velocity": 23,
      "chip": "ym2612"
    },
    {
      "channel": 1,
      "note": 70,
      "start": 13.6841,
      "duration": 0.1293,
      "velocity": 94,
      "chip": "ym2612"
    },
    {
      "channel": 2,
      "note": 70,
      "start": 13.7706,
      "duration": 0.1724,
      "velocity": 94,
      "chip": "ym2612"
    },
    {
      "channel": 0,
      "note": 72,
      "start": 13.8281,
      "duration": 0.3165,
      "velocity": 94,
      "chip": "ym2612"
    },
    {
      "channel": 3,
      "note": 72,
      "start": 13.8287,
      "duration": 0.0856,
      "velocity": 94,
      "chip": "ym2612"
    },
    {
      "channel": 4,
      "note": 67,
      "start": 13.8291,
      "duration": 0.0857,
      "velocity": 94,
      "chip": "ym2612"
    },
    {
      "channel": 5,
      "note": 48,
      "start": 13.8296,
      "duration": 0.0846,
      "velocity": 23,
      "chip": "ym2612"
    },
    {
      "channel": 1,
      "note": 72,
      "start": 13.8569,
      "duration": 0.3165,
      "velocity": 94,
      "chip": "ym2612"
    },
    {
      "channel": 3,
      "note": 79,
      "start": 13.9146,
      "duration": 5.2411,
      "velocity": 94,
      "chip": "ym2612"
    },
    {
      "channel": 4,
      "note": 72,
      "start": 13.9151,
      "duration": 5.2407,
      "velocity": 94,
      "chip": "ym2612"
    },
    {
      "channel": 2,
      "note": 72,
      "start": 13.9434,
      "duration": 0.3451,
      "velocity": 94,
      "chip": "ym2612"
    },
    {
      "channel": 0,
      "note": 76,
      "start": 14.1738,
      "duration": 0.3164,
      "velocity": 94,
      "chip": "ym2612"
    },
    {
      "channel": 1,
      "note": 76,
      "start": 14.2025,
      "duration": 0.3165,
      "velocity": 94,
      "chip": "ym2612"
    },
    {
      "channel": 2,
      "note": 76,
      "start": 14.289,
      "duration": 0.3451,
      "velocity": 94,
      "chip": "ym2612"
    },
    {
      "channel": 0,
      "note": 76,
      "start": 14.5194,
      "duration": 0.3452,
      "velocity": 94,
      "chip": "ym2612"
    },
    {
      "channel": 5,
      "note": 72,
      "start": 14.5199,
      "duration": 0.1144,
      "velocity": 23,
      "chip": "ym2612"
    },
    {
      "channel": 1,
      "note": 76,
      "start": 14.5481,
      "duration": 0.3453,
      "velocity": 94,
      "chip": "ym2612"
    },
    {
      "channel": 2,
      "note": 76,
      "start": 14.6348,
      "duration": 0.3449,
      "velocity": 94,
      "chip": "ym2612"
    },
    {
      "channel": 0,
      "note": 77,
      "start": 14.865,
      "duration": 0.2731,
      "velocity": 94,
      "chip": "ym2612"
    },
    {
      "channel": 5,
      "note": 67,
      "start": 14.8655,
      "duration": 0.0999,
      "velocity": 23,
      "chip": "ym2612"
    },
    {
      "channel": 1,
      "note": 77,
      "start": 14.8938,
      "duration": 0.2732,
      "velocity": 94,
      "chip": "ym2612"
    },
    {
      "channel": 2,
      "note": 77,
      "start": 14.9802,
      "duration": 0.3451,
      "velocity": 94,
      "chip": "ym2612"
    },
    {
      "channel": 0,
      "note": 77,
      "start": 15.2105,
      "duration": 0.3453,
      "velocity": 94,
      "chip": "ym2612"
    },
    {
      "channel": 1,
      "note": 77,
      "start": 15.2393,
      "duration": 0.3453,
      "velocity": 94,
      "chip": "ym2612"
    },
    {
      "channel": 2,
      "note": 77,
      "start": 15.3258,
      "duration": 0.3451,
      "velocity": 94,
      "chip": "ym2612"
    },
    {
      "channel": 0,
      "note": 79,
      "start": 15.5562,
      "duration": 0.3453,
      "velocity": 94,
      "chip": "ym2612"
    },
    {
      "channel": 5,
      "note": 55,
      "start": 15.5566,
      "duration": 0.0855,
      "velocity": 23,
      "chip": "ym2612"
    },
    {
      "channel": 1,
      "note": 79,
      "start": 15.585,
      "duration": 0.3451,
      "velocity": 94,
      "chip": "ym2612"
    },
    {
      "channel": 2,
      "note": 79,
      "start": 15.6717,
      "duration": 0.3449,
      "velocity": 94,
      "chip": "ym2612"
    },
    {
      "channel": 0,
      "note": 82,
      "start": 15.902,
      "duration": 0.345,
      "velocity": 94,
      "chip": "ym2612"
    },
    {
      "channel": 5,
      "note": 65,
      "start": 15.9024,
      "duration": 0.1285,
      "velocity": 23,
      "chip": "ym2612"
    },
    {
      "channel": 1,
      "note": 82,
      "start": 15.9306,
      "duration": 0.3452,
      "velocity": 94,
      "chip": "ym2612"
    },
    {
      "channel": 2,
      "note": 82,
      "start": 16.017,
      "duration": 0.3452,
      "velocity": 94,
      "chip": "ym2612"
    },
    {
      "channel": 5,
      "note": 67,
      "start": 16.0745,
      "duration": 0.1004,
      "velocity": 23,
      "chip": "ym2612"
    },
    {
      "channel": 0,
      "note": 81,
      "start": 16.2475,
      "duration": 0.1723,
      "velocity": 94,
      "chip": "ym2612"
    },
    {
      "channel": 5,
      "note": 70,
      "start": 16.2479,
      "duration": 0.0998,
      "velocity": 23,
      "chip": "ym2612"
    },
    {
      "channel": 1,
      "note": 81,
      "start": 16.2762,
      "duration": 0.1724,
      "velocity": 94,
      "chip": "ym2612"
    },
    {
      "channel": 2,
      "note": 81,
      "start": 16.3626,
      "duration": 0.1724,
      "velocity": 94,
      "chip": "ym2612"
    },
    {
      "channel": 0,
      "note": 82,
      "start": 16.4202,
      "duration": 0.8204,
      "velocity": 94,
      "chip": "ym2612"
    },
    {
      "channel": 1,
      "note": 82,
      "start": 16.4491,
      "duration": 0.8203,
      "velocity": 94,
      "chip": "ym2612"
    },
    {
      "channel": 2,
      "note": 82,
      "start": 16.5354,
      "duration": 0.8636,
      "velocity": 94,
      "chip": "ym2612"
    },
    {
      "channel": 5,
      "note": 48,
      "start": 16.5929,
      "duration": 0.1293,
      "velocity": 23,
      "chip": "ym2612"
    },
    {
      "channel": 0,
      "note": 81,
      "start": 17.2841,
      "duration": 0.3452,
      "velocity": 94,
      "chip": "ym2612"
    },
    {
      "channel": 5,
      "note": 72,
      "start": 17.2846,
      "duration": 0.1,
      "velocity": 23,
      "chip": "ym2612"
    },
    {
      "channel": 1,
      "note": 81,
      "start": 17.3129,
      "duration": 0.3453,
      "velocity": 94,
      "chip": "ym2612"
    },
    {
      "channel": 2,
      "note": 81,
      "start": 17.3994,
      "duration": 0.3451,
      "velocity": 94,
      "chip": "ym2612"
    },
    {
      "channel": 0,
      "note": 82,
      "start": 17.6298,
      "duration": 0.3451,
      "velocity": 94,
      "chip": "ym2612"
    },
    {
      "channel": 5,
      "note": 67,
      "start": 17.6302,
      "duration": 0.0999,
      "velocity": 23,
      "chip": "ym2612"
    },
    {
      "channel": 1,
      "note": 82,
      "start": 17.6587,
      "duration": 0.345,
      "velocity": 94,
      "chip": "ym2612"
    },
    {
      "channel": 2,
      "note": 82,
      "start": 17.745,
      "duration": 0.3452,
      "velocity": 94,
      "chip": "ym2612"
    },
    {
      "channel": 0,
      "note": 81,
      "start": 17.9754,
      "duration": 0.3452,
      "velocity": 94,
      "chip": "ym2612"
    },
    {
      "channel": 1,
      "note": 81,
      "start": 18.0042,
      "duration": 0.3452,
      "velocity": 94,
      "chip": "ym2612"
    },
    {
      "channel": 2,
      "note": 81,
      "start": 18.0906,
      "duration": 0.3452,
      "velocity": 94,
      "chip": "ym2612"
    },
    {
      "channel": 0,
      "note": 82,
      "start": 18.321,
      "duration": 0.1724,
      "velocity": 94,
      "chip": "ym2612"
    },
    {
      "channel": 5,
      "note": 60,
      "start": 18.3217,
      "duration": 0.0853,
      "velocity": 23,
      "chip": "ym2612"
    },
    {
      "channel": 1,
      "note": 82,
      "start": 18.3498,
      "duration": 0.1724,
      "velocity": 94,
      "chip": "ym2612"
    },
    {
      "channel": 2,
      "note": 82,
      "start": 18.4361,
      "duration": 0.1724,
      "velocity": 94,
      "chip": "ym2612"
    },
    {
      "channel": 0,
      "note": 81,
      "start": 18.4938,
      "duration": 0.1436,
      "velocity": 94,
      "chip": "ym2612"
    },
    {
      "channel": 1,
      "note": 81,
      "start": 18.5226,
      "duration": 0.1436,
      "velocity": 94,
      "chip": "ym2612"
    },
    {
      "channel": 2,
      "note": 81,
      "start": 18.609,
      "duration": 0.1726,
      "velocity": 94,
      "chip": "ym2612"
    },
    {
      "channel": 0,
      "note": 79,
      "start": 18.6667,
      "duration": 0.3162,
      "velocity": 94,
      "chip": "ym2612"
    },
    {
      "channel": 5,
      "note": 65,
      "start": 18.6672,
      "duration": 0.1286,
      "velocity": 23,
      "chip": "ym2612"
    },
    {
      "channel": 1,
      "note": 79,
      "start": 18.6953,
      "duration": 0.3164,
      "velocity": 94,
      "chip": "ym2612"
    },
    {
      "channel": 2,
      "note": 79,
      "start": 18.782,
      "duration": 0.345,
      "velocity": 94,
      "chip": "ym2612"
    },
    {
      "channel": 5,
      "note": 67,
      "start": 18.8393,
      "duration": 0.1149,
      "velocity": 23,
      "chip": "ym2612"
    },
    {
      "channel": 0,
      "note": 77,
      "start": 19.0122,
      "duration": 0.2588,
      "velocity": 94,
      "chip": "ym2612"
    },
    {
      "channel": 5,
      "note": 70,
      "start": 19.0127,
      "duration": 0.1144,
      "velocity": 23,
      "chip": "ym2612"
    },
    {
      "channel": 1,
      "note": 77,
      "start": 19.0409,
      "duration": 0.2588,
      "velocity": 94,
      "chip": "ym2612"
    },
    {
      "channel": 2,
      "note": 77,
      "start": 19.1275,
      "duration": 0.345,
      "velocity": 94,
      "chip": "ym2612"
    },
    {
      "channel": 0,
      "note": 77,
      "start": 19.3577,
      "duration": 0.3453,
      "velocity": 94,
      "chip": "ym2612"
    },
    {
      "channel": 3,
      "note": 72,
      "start": 19.3581,
      "duration": 0.0856,
      "velocity": 94,
      "chip": "ym2612"
    },
    {
      "channel": 4,
      "note": 67,
      "start": 19.3586,
      "duration": 0.0857,
      "velocity": 94,
      "chip": "ym2612"
    },
    {
      "channel": 5,
      "note": 48,
      "start": 19.359,
      "duration": 0.1279,
      "velocity": 23,
      "chip": "ym2612"
    },
    {
      "channel": 1,
      "note": 77,
      "start": 19.3865,
      "duration": 0.3452,
      "velocity": 94,
      "chip": "ym2612"
    },
    {
      "channel": 3,
      "note": 79,
      "start": 19.4441,
      "duration": 5.2412,
      "velocity": 94,
      "chip": "ym2612"
    },
    {
      "channel": 4,
      "note": 72,
      "start": 19.4447,
      "duration": 5.2408,
      "velocity": 94,
      "chip": "ym2612"
    },
    {
      "channel": 2,
      "note": 77,
      "start": 19.4731,
      "duration": 0.345,
      "velocity": 94,
      "chip": "ym2612"
    },
    {
      "channel": 0,
      "note": 81,
      "start": 19.7034,
      "duration": 0.3163,
      "velocity": 94,
      "chip": "ym2612"
    },
    {
      "channel": 1,
      "note": 81,
      "start": 19.7322,
      "duration": 0.3163,
      "velocity": 94,
      "chip": "ym2612"
    },
    {
      "channel": 2,
      "note": 81,
      "start": 19.8186,
      "duration": 0.3451,
      "velocity": 94,
      "chip": "ym2612"
    },
    {
      "channel": 0,
      "note": 81,
      "start": 20.049,
      "duration": 0.7772,
      "velocity": 94,
      "chip": "ym2612"
    },
    {
      "channel": 5,
      "note": 72,
      "start": 20.0495,
      "duration": 0.0999,
      "velocity": 23,
      "chip": "ym2612"
    },
    {
      "channel": 1,
      "note": 81,
      "start": 20.0777,
      "duration": 0.7773,
      "velocity": 94,
      "chip": "ym2612"
    },
    {
      "channel": 2,
      "note": 81,
      "start": 20.1642,
      "duration": 0.7779,
      "velocity": 94,
      "chip": "ym2612"
    },
    {
      "channel": 5,
      "note": 67,
      "start": 20.3945,
      "duration": 0.1292,
      "velocity": 23,
      "chip": "ym2612"
    },
    {
      "channel": 0,
      "note": 82,
      "start": 20.8266,
      "duration": 0.086,
      "velocity": 94,
      "chip": "ym2612"
    },
    {
      "channel": 1,
      "note": 82,
      "start": 20.8554,
      "duration": 0.0862,
      "velocity": 94,
      "chip": "ym2612"
    },
    {
      "channel": 0,
      "note": 81,
      "start": 20.9129,
      "duration": 0.8204,
      "velocity": 94,
      "chip": "ym2612"
    },
    {
      "channel": 1,
      "note": 81,
      "start": 20.9419,
      "duration": 0.8202,
      "velocity": 94,
      "chip": "ym2612"
    },
    {
      "channel": 2,
      "note": 82,
      "start": 20.9424,
      "duration": 0.0854,
      "velocity": 94,
      "chip": "ym2612"
    },
    {
      "channel": 2,
      "note": 81,
      "start": 21.0282,
      "duration": 0.8636,
      "velocity": 94,
      "chip": "ym2612"
    },
    {
      "channel": 5,
      "note": 55,
      "start": 21.0857,
      "duration": 0.1004,
      "velocity": 23,
      "chip": "ym2612"
    },
    {
      "channel": 5,
      "note": 65,
      "start": 21.4315,
      "duration": 0.1146,
      "velocity": 23,
      "chip": "ym2612"
    },
    {
      "channel": 5,
      "note": 67,
      "start": 21.6041,
      "duration": 0.1005,
      "velocity": 23,
      "chip": "ym2612"
    },
    {
      "channel": 0,
      "note": 79,
      "start": 21.7769,
      "duration": 2.4333,
      "velocity": 94,
      "chip": "ym2612"
    },
    {
      "channel": 5,
      "note": 70,
      "start": 21.7774,
      "duration": 0.1288,
      "velocity": 23,
      "chip": "ym2612"
    },
    {
      "channel": 1,
      "note": 79,
      "start": 21.8057,
      "duration": 2.4332,
      "velocity": 94,
      "chip": "ym2612"
    },
    {
      "channel": 2,
      "note": 79,
      "start": 21.8923,
      "duration": 3.1098,
      "velocity": 94,
      "chip": "ym2612"
    },
    {
      "channel": 5,
      "note": 48,
      "start": 22.1225,
      "duration": 0.1293,
      "velocity": 23,
      "chip": "ym2612"
    },
    {
      "channel": 5,
      "note": 72,
      "start": 22.8137,
      "duration": 0.1293,
      "velocity": 23,
      "chip": "ym2612"
    },
    {
      "channel": 5,
      "note": 67,
      "start": 23.1593,
      "duration": 0.1437,
      "velocity": 23,
      "chip": "ym2612"
    },
    {
      "channel": 5,
      "note": 55,
      "start": 23.8505,
      "duration": 0.1005,
      "velocity": 23,
      "chip": "ym2612"
    },
    {
      "channel": 5,
      "note": 65,
      "start": 24.1961,
      "duration": 0.1293,
      "velocity": 23,
      "chip": "ym2612"
    },
    {
      "channel": 5,
      "note": 67,
      "start": 24.3689,
      "duration": 0.1004,
      "velocity": 23,
      "chip": "ym2612"
    },
    {
      "channel": 5,
      "note": 70,
      "start": 24.542,
      "duration": 0.129,
      "velocity": 23,
      "chip": "ym2612"
    },
    {
      "channel": 0,
      "note": 60,
      "start": 24.8873,
      "duration": 0.1437,
      "velocity": 94,
      "chip": "ym2612"
    },
    {
      "channel": 3,
      "note": 60,
      "start": 24.8878,
      "duration": 0.1576,
      "velocity": 94,
      "chip": "ym2612"
    },
    {
      "channel": 5,
      "note": 60,
      "start": 24.8882,
      "duration": 0.0995,
      "velocity": 23,
      "chip": "ym2612"
    },
    {
      "channel": 1,
      "note": 60,
      "start": 24.9161,
      "duration": 0.1437,
      "velocity": 94,
      "chip": "ym2612"
    },
    {
      "channel": 2,
      "note": 60,
      "start": 25.0026,
      "duration": 0.1723,
      "velocity": 94,
      "chip": "ym2612"
    },
    {
      "channel": 0,
      "note": 65,
      "start": 25.0602,
      "duration": 0.1723,
      "velocity": 94,
      "chip": "ym2612"
    },
    {
      "channel": 3,
      "note": 65,
      "start": 25.0607,
      "duration": 0.172,
      "velocity": 94,
      "chip": "ym2612"
    },
    {
      "channel": 5,
      "note": 65,
      "start": 25.0614,
      "duration": 0.0992,
      "velocity": 23,
      "chip": "ym2612"
    },
    {
      "channel": 1,
      "note": 65,
      "start": 25.0889,
      "duration": 0.1726,
      "velocity": 94,
      "chip": "ym2612"
    },
    {
      "channel": 2,
      "note": 65,
      "start": 25.1754,
      "duration": 0.1724,
      "velocity": 94,
      "chip": "ym2612"
    },
    {
      "channel": 0,
      "note": 67,
      "start": 25.2331,
      "duration": 0.1723,
      "velocity": 94,
      "chip": "ym2612"
    },
    {
      "channel": 3,
      "note": 67,
      "start": 25.2335,
      "duration": 0.1719,
      "velocity": 94,
      "chip": "ym2612"
    },
    {
      "channel": 5,
      "note": 67,
      "start": 25.234,
      "duration": 0.1282,
      "velocity": 23,
      "chip": "ym2612"
    },
    {
      "channel": 1,
      "note": 67,
      "start": 25.262,
      "duration": 0.1722,
      "velocity": 94,
      "chip": "ym2612"
    },
    {
      "channel": 2,
      "note": 67,
      "start": 25.3482,
      "duration": 0.1723,
      "velocity": 94,
      "chip": "ym2612"
    },
    {
      "channel": 0,
      "note": 70,
      "start": 25.4059,
      "duration": 0.1722,
      "velocity": 94,
      "chip": "ym2612"
    },
    {
      "channel": 3,
      "note": 70,
      "start": 25.4063,
      "duration": 0.1719,
      "velocity": 94,
      "chip": "ym2612"
    },
    {
      "channel": 5,
      "note": 70,
      "start": 25.4068,
      "duration": 0.0993,
      "velocity": 23,
      "chip": "ym2612"
    },
    {
      "channel": 1,
      "note": 70,
      "start": 25.4346,
      "duration": 0.1724,
      "velocity": 94,
      "chip": "ym2612"
    },
    {
      "channel": 2,
      "note": 70,
      "start": 25.5214,
      "duration": 0.172,
      "velocity": 94,
      "chip": "ym2612"
    },
    {
      "channel": 0,
      "note": 72,
      "start": 25.5787,
      "duration": 0.3019,
      "velocity": 94,
      "chip": "ym2612"
    },
    {
      "channel": 3,
      "note": 72,
      "start": 25.5791,
      "duration": 0.1862,
      "velocity": 94,
      "chip": "ym2612"
    },
    {
      "channel": 5,
      "note": 72,
      "start": 25.5796,
      "duration": 0.085,
      "velocity": 23,
      "chip": "ym2612"
    },
    {
      "channel": 1,
      "note": 72,
      "start": 25.6074,
      "duration": 0.302,
      "velocity": 94,
      "chip": "ym2612"
    },
    {
      "channel": 2,
      "note": 72,
      "start": 25.6938,
      "duration": 0.3452,
      "velocity": 94,
      "chip": "ym2612"
    },
    {
      "channel": 0,
      "note": 60,
      "start": 25.9241,
      "duration": 0.1437,
      "velocity": 94,
      "chip": "ym2612"
    },
    {
      "channel": 3,
      "note": 60,
      "start": 25.9246,
      "duration": 0.1575,
      "velocity": 94,
      "chip": "ym2612"
    },
    {
      "channel": 5,
      "note": 60,
      "start": 25.9251,
      "duration": 0.085,
      "velocity": 23,
      "chip": "ym2612"
    },
    {
      "channel": 1,
      "note": 60,
      "start": 25.9529,
      "duration": 0.1437,
      "velocity": 94,
      "chip": "ym2612"
    },
    {
      "channel": 2,
      "note": 60,
      "start": 26.0394,
      "duration": 0.1724,
      "velocity": 94,
      "chip": "ym2612"
    },
    {
      "channel": 0,
      "note": 65,
      "start": 26.097,
      "duration": 0.1724,
      "velocity": 94,
      "chip": "ym2612"
    },
    {
      "channel": 3,
      "note": 65,
      "start": 26.0974,
      "duration": 0.172,
      "velocity": 94,
      "chip": "ym2612"
    },
    {
      "channel": 5,
      "note": 65,
      "start": 26.0979,
      "duration": 0.085,
      "velocity": 23,
      "chip": "ym2612"
    },
    {
      "channel": 1,
      "note": 65,
      "start": 26.1257,
      "duration": 0.1725,
      "velocity": 94,
      "chip": "ym2612"
    },
    {
      "channel": 2,
      "note": 65,
      "start": 26.2122,
      "duration": 0.1723,
      "velocity": 94,
      "chip": "ym2612"
    },
    {
      "channel": 0,
      "note": 67,
      "start": 26.2699,
      "duration": 0.1723,
      "velocity": 94,
      "chip": "ym2612"
    },
    {
      "channel": 3,
      "note": 67,
      "start": 26.2703,
      "duration": 0.1574,
      "velocity": 94,
      "chip": "ym2612"
    },
    {
      "channel": 5,
      "note": 67,
      "start": 26.2708,
      "duration": 0.1139,
      "velocity": 23,
      "chip": "ym2612"
    },
    {
      "channel": 1,
      "note": 67,
      "start": 26.2986,
      "duration": 0.1724,
      "velocity": 94,
      "chip": "ym2612"
    },
    {
      "channel": 2,
      "note": 67,
      "start": 26.3851,
      "duration": 0.1722,
      "velocity": 94,
      "chip": "ym2612"
    },
    {
      "channel": 0,
      "note": 70,
      "start": 26.4426,
      "duration": 0.1724,
      "velocity": 94,
      "chip": "ym2612"
    },
    {
      "channel": 3,
      "note": 70,
      "start": 26.443,
      "duration": 0.172,
      "velocity": 94,
      "chip": "ym2612"
    },
    {
      "channel": 5,
      "note": 70,
      "start": 26.4435,
      "duration": 0.1139,
      "velocity": 23,
      "chip": "ym2612"
    },
    {
      "channel": 1,
      "note": 70,
      "start": 26.4716,
      "duration": 0.1721,
      "velocity": 94,
      "chip": "ym2612"
    },
    {
      "channel": 2,
      "note": 70,
      "start": 26.5579,
      "duration": 0.1722,
      "velocity": 94,
      "chip": "ym2612"
    },
    {
      "channel": 0,
      "note": 72,
      "start": 26.6155,
      "duration": 0.2731,
      "velocity": 94,
      "chip": "ym2612"
    },
    {
      "channel": 3,
      "note": 72,
      "start": 26.6159,
      "duration": 0.143,
      "velocity": 94,
      "chip": "ym2612"
    },
    {
      "channel": 5,
      "note": 72,
      "start": 26.6164,
      "duration": 0.0994,
      "velocity": 23,
      "chip": "ym2612"
    },
    {
      "channel": 1,
      "note": 72,
      "start": 26.6442,
      "duration": 0.2732,
      "velocity": 94,
      "chip": "ym2612"
    },
    {
      "channel": 2,
      "note": 72,
      "start": 26.7307,
      "duration": 0.345,
      "velocity": 94,
      "chip": "ym2612"
    },
    {
      "channel": 0,
      "note": 60,
      "start": 26.9609,
      "duration": 0.1581,
      "velocity": 94,
      "chip": "ym2612"
    },
    {
      "channel": 3,
      "note": 60,
      "start": 26.9616,
      "duration": 0.1718,
      "velocity": 94,
      "chip": "ym2612"
    },
    {
      "channel": 5,
      "note": 60,
      "start": 26.962,
      "duration": 0.0849,
      "velocity": 23,
      "chip": "ym2612"
    },
    {
      "channel": 1,
      "note": 60,
      "start": 26.9897,
      "duration": 0.158,
      "velocity": 94,
      "chip": "ym2612"
    },
    {
      "channel": 2,
      "note": 60,
      "start": 27.0762,
      "duration": 0.1724,
      "velocity": 94,
      "chip": "ym2612"
    },
    {
      "channel": 0,
      "note": 65,
      "start": 27.1339,
      "duration": 0.1722,
      "velocity": 94,
      "chip": "ym2612"
    },
    {
      "channel": 3,
      "note": 65,
      "start": 27.1344,
      "duration": 0.1719,
      "velocity": 94,
      "chip": "ym2612"
    },
    {
      "channel": 5,
      "note": 65,
      "start": 27.1348,
      "duration": 0.1138,
      "velocity": 23,
      "chip": "ym2612"
    },
    {
      "channel": 1,
      "note": 65,
      "start": 27.1625,
      "duration": 0.1725,
      "velocity": 94,
      "chip": "ym2612"
    },
    {
      "channel": 2,
      "note": 65,
      "start": 27.2491,
      "duration": 0.1724,
      "velocity": 94,
      "chip": "ym2612"
    },
    {
      "channel": 0,
      "note": 67,
      "start": 27.3067,
      "duration": 0.1579,
      "velocity": 94,
      "chip": "ym2612"
    },
    {
      "channel": 3,
      "note": 67,
      "start": 27.3071,
      "duration": 0.1718,
      "velocity": 94,
      "chip": "ym2612"
    },
    {
      "channel": 5,
      "note": 67,
      "start": 27.3076,
      "duration": 0.114,
      "velocity": 23,
      "chip": "ym2612"
    },
    {
      "channel": 1,
      "note": 67,
      "start": 27.3355,
      "duration": 0.1578,
      "velocity": 94,
      "chip": "ym2612"
    },
    {
      "channel": 2,
      "note": 67,
      "start": 27.4221,
      "duration": 0.1721,
      "velocity": 94,
      "chip": "ym2612"
    },
    {
      "channel": 0,
      "note": 70,
      "start": 27.4794,
      "duration": 0.1292,
      "velocity": 94,
      "chip": "ym2612"
    },
    {
      "channel": 3,
      "note": 70,
      "start": 27.4798,
      "duration": 0.1288,
      "velocity": 94,
      "chip": "ym2612"
    },
    {
      "channel": 5,
      "note": 70,
      "start": 27.4803,
      "duration": 0.0995,
      "velocity": 23,
      "chip": "ym2612"
    },
    {
      "channel": 1,
      "note": 70,
      "start": 27.5081,
      "duration": 0.1293,
      "velocity": 94,
      "chip": "ym2612"
    },
    {
      "channel": 2,
      "note": 70,
      "start": 27.5946,
      "duration": 0.1723,
      "velocity": 94,
      "chip": "ym2612"
    },
    {
      "channel": 0,
      "note": 72,
      "start": 27.6521,
      "duration": 0.3165,
      "velocity": 94,
      "chip": "ym2612"
    },
    {
      "channel": 3,
      "note": 72,
      "start": 27.6525,
      "duration": 0.0857,
      "velocity": 94,
      "chip": "ym2612"
    },
    {
      "channel": 4,
      "note": 67,
      "start": 27.653,
      "duration": 0.0859,
      "velocity": 94,
      "chip": "ym2612"
    },
    {
      "channel": 5,
      "note": 48,
      "start": 27.6534,
      "duration": 0.0847,
      "velocity": 23,
      "chip": "ym2612"
    },
    {
      "channel": 1,
      "note": 72,
      "start": 27.6809,
      "duration": 0.3164,
      "velocity": 94,
      "chip": "ym2612"
    },
    {
      "channel": 3,
      "note": 79,
      "start": 27.7388,
      "duration": 5.241,
      "velocity": 94,
      "chip": "ym2612"
    },
    {
      "channel": 4,
      "note": 72,
      "start": 27.7393,
      "duration": 5.2406,
      "velocity": 94,
      "chip": "ym2612"
    },
    {
      "channel": 2,
      "note": 72,
      "start": 27.7674,
      "duration": 0.3451,
      "velocity": 94,
      "chip": "ym2612"
    },
    {
      "channel": 0,
      "note": 76,
      "start": 27.9978,
      "duration": 0.3163,
      "velocity": 94,
      "chip": "ym2612"
    },
    {
      "channel": 1,
      "note": 76,
      "start": 28.0265,
      "duration": 0.3164,
      "velocity": 94,
      "chip": "ym2612"
    },
    {
      "channel": 2,
      "note": 76,
      "start": 28.113,
      "duration": 0.3451,
      "velocity": 94,
      "chip": "ym2612"
    },
    {
      "channel": 0,
      "note": 76,
      "start": 28.3435,
      "duration": 0.345,
      "velocity": 94,
      "chip": "ym2612"
    },
    {
      "channel": 5,
      "note": 72,
      "start": 28.344,
      "duration": 0.1143,
      "velocity": 23,
      "chip": "ym2612"
    },
    {
      "channel": 1,
      "note": 76,
      "start": 28.3721,
      "duration": 0.3452,
      "velocity": 94,
      "chip": "ym2612"
    },
    {
      "channel": 2,
      "note": 76,
      "start": 28.4587,
      "duration": 0.3451,
      "velocity": 94,
      "chip": "ym2612"
    },
    {
      "channel": 0,
      "note": 77,
      "start": 28.689,
      "duration": 0.2732,
      "velocity": 94,
      "chip": "ym2612"
    },
    {
      "channel": 5,
      "note": 67,
      "start": 28.6895,
      "duration": 0.0999,
      "velocity": 23,
      "chip": "ym2612"
    },
    {
      "channel": 1,
      "note": 77,
      "start": 28.7178,
      "duration": 0.2732,
      "velocity": 94,
      "chip": "ym2612"
    },
    {
      "channel": 2,
      "note": 77,
      "start": 28.8042,
      "duration": 0.3451,
      "velocity": 94,
      "chip": "ym2612"
    },
    {
      "channel": 0,
      "note": 77,
      "start": 29.0345,
      "duration": 0.3452,
      "velocity": 94,
      "chip": "ym2612"
    },
    {
      "channel": 1,
      "note": 77,
      "start": 29.0633,
      "duration": 0.3452,
      "velocity": 94,
      "chip": "ym2612"
    },
    {
      "channel": 2,
      "note": 77,
      "start": 29.1499,
      "duration": 0.345,
      "velocity": 94,
      "chip": "ym2612"
    },
    {
      "channel": 0,
      "note": 79,
      "start": 29.3802,
      "duration": 0.3451,
      "velocity": 94,
      "chip": "ym2612"
    },
    {
      "channel": 5,
      "note": 55,
      "start": 29.3807,
      "duration": 0.0855,
      "velocity": 23,
      "chip": "ym2612"
    },
    {
      "channel": 1,
      "note": 79,
      "start": 29.409,
      "duration": 0.3451,
      "velocity": 94,
      "chip": "ym2612"
    },
    {
      "channel": 2,
      "note": 79,
      "start": 29.4954,
      "duration": 0.3451,
      "velocity": 94,
      "chip": "ym2612"
    },
    {
      "channel": 0,
      "note": 82,
      "start": 29.7258,
      "duration": 0.3452,
      "velocity": 94,
      "chip": "ym2612"
    },
    {
      "channel": 5,
      "note": 65,
      "start": 29.7263,
      "duration": 0.1287,
      "velocity": 23,
      "chip": "ym2612"
    },
    {
      "channel": 1,
      "note": 82,
      "start": 29.7547,
      "duration": 0.3451,
      "velocity": 94,
      "chip": "ym2612"
    },
    {
      "channel": 2,
      "note": 82,
      "start": 29.841,
      "duration": 0.3452,
      "velocity": 94,
      "chip": "ym2612"
    },
    {
      "channel": 5,
      "note": 67,
      "start": 29.8985,
      "duration": 0.1005,
      "velocity": 23,
      "chip": "ym2612"
    },
    {
      "channel": 0,
      "note": 81,
      "start": 30.0716,
      "duration": 0.1722,
      "velocity": 94,
      "chip": "ym2612"
    },
    {
      "channel": 5,
      "note": 70,
      "start": 30.0721,
      "duration": 0.0997,
      "velocity": 23,
      "chip": "ym2612"
    },
    {
      "channel": 1,
      "note": 81,
      "start": 30.1002,
      "duration": 0.1724,
      "velocity": 94,
      "chip": "ym2612"
    },
    {
      "channel": 2,
      "note": 81,
      "start": 30.1866,
      "duration": 0.1724,
      "velocity": 94,
      "chip": "ym2612"
    },
    {
      "channel": 0,
      "note": 82,
      "start": 30.2441,
      "duration": 0.8204,
      "velocity": 94,
      "chip": "ym2612"
    },
    {
      "channel": 1,
      "note": 82,
      "start": 30.2729,
      "duration": 0.8204,
      "velocity": 94,
      "chip": "ym2612"
    },
    {
      "channel": 2,
      "note": 82,
      "start": 30.3595,
      "duration": 0.8635,
      "velocity": 94,
      "chip": "ym2612"
    },
    {
      "channel": 5,
      "note": 48,
      "start": 30.4169,
      "duration": 0.1292,
      "velocity": 23,
      "chip": "ym2612"
    },
    {
      "channel": 0,
      "note": 81,
      "start": 31.1081,
      "duration": 0.3453,
      "velocity": 94,
      "chip": "ym2612"
    },
    {
      "channel": 5,
      "note": 72,
      "start": 31.1085,
      "duration": 0.1,
      "velocity": 23,
      "chip": "ym2612"
    },
    {
      "channel": 1,
      "note": 81,
      "start": 31.1369,
      "duration": 0.3452,
      "velocity": 94,
      "chip": "ym2612"
    },
    {
      "channel": 2,
      "note": 81,
      "start": 31.2234,
      "duration": 0.3451,
      "velocity": 94,
      "chip": "ym2612"
    },
    {
      "channel": 0,
      "note": 82,
      "start": 31.4538,
      "duration": 0.3451,
      "velocity": 94,
      "chip": "ym2612"
    },
    {
      "channel": 5,
      "note": 67,
      "start": 31.4543,
      "duration": 0.0999,
      "velocity": 23,
      "chip": "ym2612"
    },
    {
      "channel": 1,
      "note": 82,
      "start": 31.4826,
      "duration": 0.3451,
      "velocity": 94,
      "chip": "ym2612"
    },
    {
      "channel": 2,
      "note": 82,
      "start": 31.5691,
      "duration": 0.345,
      "velocity": 94,
      "chip": "ym2612"
    },
    {
      "channel": 0,
      "note": 81,
      "start": 31.7994,
      "duration": 0.3452,
      "velocity": 94,
      "chip": "ym2612"
    },
    {
      "channel": 1,
      "note": 81,
      "start": 31.8282,
      "duration": 0.3452,
      "velocity": 94,
      "chip": "ym2612"
    },
    {
      "channel": 2,
      "note": 81,
      "start": 31.9146,
      "duration": 0.3452,
      "velocity": 94,
      "chip": "ym2612"
    },
    {
      "channel": 0,
      "note": 82,
      "start": 32.1449,
      "duration": 0.1724,
      "velocity": 94,
      "chip": "ym2612"
    },
    {
      "channel": 5,
      "note": 60,
      "start": 32.1454,
      "duration": 0.0855,
      "velocity": 23,
      "chip": "ym2612"
    },
    {
      "channel": 1,
      "note": 82,
      "start": 32.1739,
      "duration": 0.1723,
      "velocity": 94,
      "chip": "ym2612"
    },
    {
      "channel": 2,
      "note": 82,
      "start": 32.2602,
      "duration": 0.1724,
      "velocity": 94,
      "chip": "ym2612"
    },
    {
      "channel": 0,
      "note": 81,
      "start": 32.3178,
      "duration": 0.1438,
      "velocity": 94,
      "chip": "ym2612"
    },
    {
      "channel": 1,
      "note": 81,
      "start": 32.3466,
      "duration": 0.1436,
      "velocity": 94,
      "chip": "ym2612"
    },
    {
      "channel": 2,
      "note": 81,
      "start": 32.4329,
      "duration": 0.1724,
      "velocity": 94,
      "chip": "ym2612"
    },
    {
      "channel": 0,
      "note": 79,
      "start": 32.4906,
      "duration": 0.3163,
      "velocity": 94,
      "chip": "ym2612"
    },
    {
      "channel": 5,
      "note": 65,
      "start": 32.491,
      "duration": 0.1287,
      "velocity": 23,
      "chip": "ym2612"
    },
    {
      "channel": 1,
      "note": 79,
      "start": 32.5193,
      "duration": 0.3165,
      "velocity": 94,
      "chip": "ym2612"
    },
    {
      "channel": 2,
      "note": 79,
      "start": 32.6058,
      "duration": 0.3451,
      "velocity": 94,
      "chip": "ym2612"
    },
    {
      "channel": 5,
      "note": 67,
      "start": 32.6633,
      "duration": 0.1148,
      "velocity": 23,
      "chip": "ym2612"
    },
    {
      "channel": 0,
      "note": 77,
      "start": 32.8362,
      "duration": 0.2588,
      "velocity": 94,
      "chip": "ym2612"
    },
    {
      "channel": 5,
      "note": 70,
      "start": 32.8366,
      "duration": 0.1144,
      "velocity": 23,
      "chip": "ym2612"
    },
    {
      "channel": 1,
      "note": 77,
      "start": 32.8649,
      "duration": 0.2588,
      "velocity": 94,
      "chip": "ym2612"
    },
    {
      "channel": 2,
      "note": 77,
      "start": 32.9517,
      "duration": 0.3448,
      "velocity": 94,
      "chip": "ym2612"
    },
    {
      "channel": 0,
      "note": 77,
      "start": 33.182,
      "duration": 0.345,
      "velocity": 94,
      "chip": "ym2612"
    },
    {
      "channel": 3,
      "note": 72,
      "start": 33.1824,
      "duration": 0.0854,
      "velocity": 94,
      "chip": "ym2612"
    },
    {
      "channel": 4,
      "note": 67,
      "start": 33.1829,
      "duration": 0.0854,
      "velocity": 94,
      "chip": "ym2612"
    },
    {
      "channel": 5,
      "note": 48,
      "start": 33.1833,
      "duration": 0.1276,
      "velocity": 23,
      "chip": "ym2612"
    },
    {
      "channel": 1,
      "note": 77,
      "start": 33.2105,
      "duration": 0.3453,
      "velocity": 94,
      "chip": "ym2612"
    },
    {
      "channel": 3,
      "note": 79,
      "start": 33.2682,
      "duration": 5.2412,
      "velocity": 94,
      "chip": "ym2612"
    },
    {
      "channel": 4,
      "note": 72,
      "start": 33.2687,
      "duration": 5.2408,
      "velocity": 94,
      "chip": "ym2612"
    },
    {
      "channel": 2,
      "note": 77,
      "start": 33.297,
      "duration": 0.3451,
      "velocity": 94,
      "chip": "ym2612"
    },
    {
      "channel": 0,
      "note": 81,
      "start": 33.5274,
      "duration": 0.3163,
      "velocity": 94,
      "chip": "ym2612"
    },
    {
      "channel": 1,
      "note": 81,
      "start": 33.5562,
      "duration": 0.3164,
      "velocity": 94,
      "chip": "ym2612"
    },
    {
      "channel": 2,
      "note": 81,
      "start": 33.6426,
      "duration": 0.3451,
      "velocity": 94,
      "chip": "ym2612"
    },
    {
      "channel": 0,
      "note": 81,
      "start": 33.873,
      "duration": 0.7772,
      "velocity": 94,
      "chip": "ym2612"
    },
    {
      "channel": 5,
      "note": 72,
      "start": 33.8734,
      "duration": 0.0999,
      "velocity": 23,
      "chip": "ym2612"
    },
    {
      "channel": 1,
      "note": 81,
      "start": 33.9019,
      "duration": 0.7771,
      "velocity": 94,
      "chip": "ym2612"
    },
    {
      "channel": 2,
      "note": 81,
      "start": 33.9883,
      "duration": 0.7776,
      "velocity": 94,
      "chip": "ym2612"
    },
    {
      "channel": 5,
      "note": 67,
      "start": 34.2185,
      "duration": 0.1293,
      "velocity": 23,
      "chip": "ym2612"
    },
    {
      "channel": 0,
      "note": 82,
      "start": 34.6505,
      "duration": 0.086,
      "velocity": 94,
      "chip": "ym2612"
    },
    {
      "channel": 1,
      "note": 82,
      "start": 34.6794,
      "duration": 0.086,
      "velocity": 94,
      "chip": "ym2612"
    },
    {
      "channel": 0,
      "note": 81,
      "start": 34.737,
      "duration": 0.8204,
      "velocity": 94,
      "chip": "ym2612"
    },
    {
      "channel": 1,
      "note": 81,
      "start": 34.7658,
      "duration": 0.8204,
      "velocity": 94,
      "chip": "ym2612"
    },
    {
      "channel": 2,
      "note": 82,
      "start": 34.7663,
      "duration": 0.0855,
      "velocity": 94,
      "chip": "ym2612"
    },
    {
      "channel": 2,
      "note": 81,
      "start": 34.8522,
      "duration": 0.8636,
      "velocity": 94,
      "chip": "ym2612"
    },
    {
      "channel": 5,
      "note": 55,
      "start": 34.9097,
      "duration": 0.1005,
      "velocity": 23,
      "chip": "ym2612"
    },
    {
      "channel": 5,
      "note": 65,
      "start": 35.2553,
      "duration": 0.1149,
      "velocity": 23,
      "chip": "ym2612"
    },
    {
      "channel": 5,
      "note": 67,
      "start": 35.4281,
      "duration": 0.1005,
      "velocity": 23,
      "chip": "ym2612"
    },
    {
      "channel": 0,
      "note": 79,
      "start": 35.6009,
      "duration": 2.4332,
      "velocity": 94,
      "chip": "ym2612"
    },
    {
      "channel": 5,
      "note": 70,
      "start": 35.6017,
      "duration": 0.1284,
      "velocity": 23,
      "chip": "ym2612"
    },
    {
      "channel": 1,
      "note": 79,
      "start": 35.6297,
      "duration": 2.4332,
      "velocity": 94,
      "chip": "ym2612"
    },
    {
      "channel": 2,
      "note": 79,
      "start": 35.7162,
      "duration": 3.11,
      "velocity": 94,
      "chip": "ym2612"
    },
    {
      "channel": 5,
      "note": 48,
      "start": 35.9465,
      "duration": 0.1293,
      "velocity": 23,
      "chip": "ym2612"
    },
    {
      "channel": 5,
      "note": 72,
      "start": 36.6377,
      "duration": 0.1293,
      "velocity": 23,
      "chip": "ym2612"
    },
    {
      "channel": 5,
      "note": 67,
      "start": 36.9833,
      "duration": 0.1437,
      "velocity": 23,
      "chip": "ym2612"
    },
    {
      "channel": 5,
      "note": 55,
      "start": 37.6745,
      "duration": 0.1004,
      "velocity": 23,
      "chip": "ym2612"
    },
    {
      "channel": 5,
      "note": 65,
      "start": 38.0201,
      "duration": 0.1292,
      "velocity": 23,
      "chip": "ym2612"
    },
    {
      "channel": 5,
      "note": 67,
      "start": 38.1929,
      "duration": 0.1005,
      "velocity": 23,
      "chip": "ym2612"
    },
    {
      "channel": 5,
      "note": 70,
      "start": 38.3657,
      "duration": 0.1292,
      "velocity": 23,
      "chip": "ym2612"
    },
    {
      "channel": 0,
      "note": 60,
      "start": 38.7115,
      "duration": 0.1434,
      "velocity": 94,
      "chip": "ym2612"
    },
    {
      "channel": 3,
      "note": 60,
      "start": 38.712,
      "duration": 0.1573,
      "velocity": 94,
      "chip": "ym2612"
    },
    {
      "channel": 5,
      "note": 60,
      "start": 38.7124,
      "duration": 0.0993,
      "velocity": 23,
      "chip": "ym2612"
    },
    {
      "channel": 1,
      "note": 60,
      "start": 38.7401,
      "duration": 0.1437,
      "velocity": 94,
      "chip": "ym2612"
    },
    {
      "channel": 2,
      "note": 60,
      "start": 38.8267,
      "duration": 0.1722,
      "velocity": 94,
      "chip": "ym2612"
    },
    {
      "channel": 0,
      "note": 65,
      "start": 38.8842,
      "duration": 0.1724,
      "velocity": 94,
      "chip": "ym2612"
    },
    {
      "channel": 3,
      "note": 65,
      "start": 38.8846,
      "duration": 0.172,
      "velocity": 94,
      "chip": "ym2612"
    },
    {
      "channel": 5,
      "note": 65,
      "start": 38.8851,
      "duration": 0.0995,
      "velocity": 23,
      "chip": "ym2612"
    },
    {
      "channel": 1,
      "note": 65,
      "start": 38.9129,
      "duration": 0.1724,
      "velocity": 94,
      "chip": "ym2612"
    },
    {
      "channel": 2,
      "note": 65,
      "start": 38.9994,
      "duration": 0.1724,
      "velocity": 94,
      "chip": "ym2612"
    },
    {
      "channel": 0,
      "note": 67,
      "start": 39.0571,
      "duration": 0.1722,
      "velocity": 94,
      "chip": "ym2612"
    },
    {
      "channel": 3,
      "note": 67,
      "start": 39.0576,
      "duration": 0.1719,
      "velocity": 94,
      "chip": "ym2612"
    },
    {
      "channel": 5,
      "note": 67,
      "start": 39.058,
      "duration": 0.1281,
      "velocity": 23,
      "chip": "ym2612"
    },
    {
      "channel": 1,
      "note": 67,
      "start": 39.0858,
      "duration": 0.1724,
      "velocity": 94,
      "chip": "ym2612"
    },
    {
      "channel": 2,
      "note": 67,
      "start": 39.1722,
      "duration": 0.1723,
      "velocity": 94,
      "chip": "ym2612"
    },
    {
      "channel": 0,
      "note": 70,
      "start": 39.23,
      "duration": 0.1722,
      "velocity": 94,
      "chip": "ym2612"
    },
    {
      "channel": 3,
      "note": 70,
      "start": 39.2305,
      "duration": 0.1718,
      "velocity": 94,
      "chip": "ym2612"
    },
    {
      "channel": 5,
      "note": 70,
      "start": 39.2309,
      "duration": 0.0993,
      "velocity": 23,
      "chip": "ym2612"
    },
    {
      "channel": 1,
      "note": 70,
      "start": 39.2586,
      "duration": 0.1724,
      "velocity": 94,
      "chip": "ym2612"
    },
    {
      "channel": 2,
      "note": 70,
      "start": 39.345,
      "duration": 0.1724,
      "velocity": 94,
      "chip": "ym2612"
    },
    {
      "channel": 0,
      "note": 72,
      "start": 39.4027,
      "duration": 0.3019,
      "velocity": 94,
      "chip": "ym2612"
    },
    {
      "channel": 3,
      "note": 72,
      "start": 39.4032,
      "duration": 0.1862,
      "velocity": 94,
      "chip": "ym2612"
    },
    {
      "channel": 5,
      "note": 72,
      "start": 39.4036,
      "duration": 0.0849,
      "velocity": 23,
      "chip": "ym2612"
    },
    {
      "channel": 1,
      "note": 72,
      "start": 39.4317,
      "duration": 0.3016,
      "velocity": 94,
      "chip": "ym2612"
    },
    {
      "channel": 2,
      "note": 72,
      "start": 39.5178,
      "duration": 0.3451,
      "velocity": 94,
      "chip": "ym2612"
    },
    {
      "channel": 0,
      "note": 60,
      "start": 39.7481,
      "duration": 0.1437,
      "velocity": 94,
      "chip": "ym2612"
    },
    {
      "channel": 3,
      "note": 60,
      "start": 39.7485,
      "duration": 0.1576,
      "velocity": 94,
      "chip": "ym2612"
    },
    {
      "channel": 5,
      "note": 60,
      "start": 39.749,
      "duration": 0.0851,
      "velocity": 23,
      "chip": "ym2612"
    },
    {
      "channel": 1,
      "note": 60,
      "start": 39.7769,
      "duration": 0.1437,
      "velocity": 94,
      "chip": "ym2612"
    },
    {
      "channel": 2,
      "note": 60,
      "start": 39.8634,
      "duration": 0.1723,
      "velocity": 94,
      "chip": "ym2612"
    },
    {
      "channel": 0,
      "note": 65,
      "start": 39.921,
      "duration": 0.1724,
      "velocity": 94,
      "chip": "ym2612"
    },
    {
      "channel": 3,
      "note": 65,
      "start": 39.9217,
      "duration": 0.1717,
      "velocity": 94,
      "chip": "ym2612"
    },
    {
      "channel": 5,
      "note": 65,
      "start": 39.9222,
      "duration": 0.0848,
      "velocity": 23,
      "chip": "ym2612"
    },
    {
      "channel": 1,
      "note": 65,
      "start": 39.9497,
      "duration": 0.1724,
      "velocity": 94,
      "chip": "ym2612"
    },
    {
      "channel": 2,
      "note": 65,
      "start": 40.0363,
      "duration": 0.1722,
      "velocity": 94,
      "chip": "ym2612"
    },
    {
      "channel": 0,
      "note": 67,
      "start": 40.0939,
      "duration": 0.1722,
      "velocity": 94,
      "chip": "ym2612"
    },
    {
      "channel": 3,
      "note": 67,
      "start": 40.0944,
      "duration": 0.1574,
      "velocity": 94,
      "chip": "ym2612"
    },
    {
      "channel": 5,
      "note": 67,
      "start": 40.0948,
      "duration": 0.1138,
      "velocity": 23,
      "chip": "ym2612"
    },
    {
      "channel": 1,
      "note": 67,
      "start": 40.1226,
      "duration": 0.1724,
      "velocity": 94,
      "chip": "ym2612"
    },
    {
      "channel": 2,
      "note": 67,
      "start": 40.2091,
      "duration": 0.1724,
      "velocity": 94,
      "chip": "ym2612"
    },
    {
      "channel": 0,
      "note": 70,
      "start": 40.2666,
      "duration": 0.1724,
      "velocity": 94,
      "chip": "ym2612"
    },
    {
      "channel": 3,
      "note": 70,
      "start": 40.2671,
      "duration": 0.172,
      "velocity": 94,
      "chip": "ym2612"
    },
    {
      "channel": 5,
      "note": 70,
      "start": 40.2675,
      "duration": 0.1141,
      "velocity": 23,
      "chip": "ym2612"
    },
    {
      "channel": 1,
      "note": 70,
      "start": 40.2954,
      "duration": 0.1724,
      "velocity": 94,
      "chip": "ym2612"
    },
    {
      "channel": 2,
      "note": 70,
      "start": 40.3821,
      "duration": 0.1721,
      "velocity": 94,
      "chip": "ym2612"
    },
    {
      "channel": 0,
      "note": 72,
      "start": 40.4396,
      "duration": 0.2729,
      "velocity": 94,
      "chip": "ym2612"
    },
    {
      "channel": 3,
      "note": 72,
      "start": 40.44,
      "duration": 0.1429,
      "velocity": 94,
      "chip": "ym2612"
    },
    {
      "channel": 5,
      "note": 72,
      "start": 40.4405,
      "duration": 0.0992,
      "velocity": 23,
      "chip": "ym2612"
    },
    {
      "channel": 1,
      "note": 72,
      "start": 40.4682,
      "duration": 0.2733,
      "velocity": 94,
      "chip": "ym2612"
    },
    {
      "channel": 2,
      "note": 72,
      "start": 40.5546,
      "duration": 0.3451,
      "velocity": 94,
      "chip": "ym2612"
    },
    {
      "channel": 0,
      "note": 60,
      "start": 40.7849,
      "duration": 0.158,
      "velocity": 94,
      "chip": "ym2612"
    },
    {
      "channel": 3,
      "note": 60,
      "start": 40.7854,
      "duration": 0.172,
      "velocity": 94,
      "chip": "ym2612"
    },
    {
      "channel": 5,
      "note": 60,
      "start": 40.7858,
      "duration": 0.0851,
      "velocity": 23,
      "chip": "ym2612"
    },
    {
      "channel": 1,
      "note": 60,
      "start": 40.8137,
      "duration": 0.158,
      "velocity": 94,
      "chip": "ym2612"
    },
    {
      "channel": 2,
      "note": 60,
      "start": 40.9002,
      "duration": 0.1723,
      "velocity": 94,
      "chip": "ym2612"
    },
    {
      "channel": 0,
      "note": 65,
      "start": 40.9578,
      "duration": 0.1724,
      "velocity": 94,
      "chip": "ym2612"
    },
    {
      "channel": 3,
      "note": 65,
      "start": 40.9583,
      "duration": 0.172,
      "velocity": 94,
      "chip": "ym2612"
    },
    {
      "channel": 5,
      "note": 65,
      "start": 40.9587,
      "duration": 0.1139,
      "velocity": 23,
      "chip": "ym2612"
    },
    {
      "channel": 1,
      "note": 65,
      "start": 40.9865,
      "duration": 0.1724,
      "velocity": 94,
      "chip": "ym2612"
    },
    {
      "channel": 2,
      "note": 65,
      "start": 41.0731,
      "duration": 0.1723,
      "velocity": 94,
      "chip": "ym2612"
    },
    {
      "channel": 0,
      "note": 67,
      "start": 41.1307,
      "duration": 0.1579,
      "velocity": 94,
      "chip": "ym2612"
    },
    {
      "channel": 3,
      "note": 67,
      "start": 41.1314,
      "duration": 0.1716,
      "velocity": 94,
      "chip": "ym2612"
    },
    {
      "channel": 5,
      "note": 67,
      "start": 41.1318,
      "duration": 0.1136,
      "velocity": 23,
      "chip": "ym2612"
    },
    {
      "channel": 1,
      "note": 67,
      "start": 41.1594,
      "duration": 0.158,
      "velocity": 94,
      "chip": "ym2612"
    },
    {
      "channel": 2,
      "note": 67,
      "start": 41.246,
      "duration": 0.1721,
      "velocity": 94,
      "chip": "ym2612"
    },
    {
      "channel": 0,
      "note": 70,
      "start": 41.3034,
      "duration": 0.1291,
      "velocity": 94,
      "chip": "ym2612"
    },
    {
      "channel": 3,
      "note": 70,
      "start": 41.3039,
      "duration": 0.1288,
      "velocity": 94,
      "chip": "ym2612"
    },
    {
      "channel": 5,
      "note": 70,
      "start": 41.3043,
      "duration": 0.0995,
      "velocity": 23,
      "chip": "ym2612"
    },
    {
      "channel": 1,
      "note": 70,
      "start": 41.3321,
      "duration": 0.1294,
      "velocity": 94,
      "chip": "ym2612"
    },
    {
      "channel": 2,
      "note": 70,
      "start": 41.4186,
      "duration": 0.1724,
      "velocity": 94,
      "chip": "ym2612"
    },
    {
      "channel": 0,
      "note": 76,
      "start": 41.4761,
      "duration": 0.5468,
      "velocity": 94,
      "chip": "ym2612"
    },
    {
      "channel": 3,
      "note": 76,
      "start": 41.4766,
      "duration": 0.5465,
      "velocity": 94,
      "chip": "ym2612"
    },
    {
      "channel": 4,
      "note": 88,
      "start": 41.477,
      "duration": 0.5461,
      "velocity": 94,
      "chip": "ym2612"
    },
    {
      "channel": 5,
      "note": 72,
      "start": 41.4775,
      "duration": 0.0991,
      "velocity": 23,
      "chip": "ym2612"
    },
    {
      "channel": 1,
      "note": 76,
      "start": 41.5049,
      "duration": 0.5468,
      "velocity": 94,
      "chip": "ym2612"
    },
    {
      "channel": 2,
      "note": 76,
      "start": 41.5916,
      "duration": 0.6905,
      "velocity": 94,
      "chip": "ym2612"
    },
    {
      "channel": 0,
      "note": 76,
      "start": 42.1673,
      "duration": 0.5468,
      "velocity": 94,
      "chip": "ym2612"
    },
    {
      "channel": 3,
      "note": 76,
      "start": 42.1678,
      "duration": 0.5465,
      "velocity": 94,
      "chip": "ym2612"
    },
    {
      "channel": 4,
      "note": 88,
      "start": 42.1682,
      "duration": 0.5461,
      "velocity": 94,
      "chip": "ym2612"
    },
    {
      "channel": 5,
      "note": 76,
      "start": 42.1687,
      "duration": 0.5458,
      "velocity": 94,
      "chip": "ym2612"
    },
    {
      "channel": 1,
      "note": 76,
      "start": 42.1961,
      "duration": 0.5468,
      "velocity": 94,
      "chip": "ym2612"
    },
    {
      "channel": 2,
      "note": 76,
      "start": 42.2826,
      "duration": 0.6907,
      "velocity": 94,
      "chip": "ym2612"
    },
    {
      "channel": 0,
      "note": 72,
      "start": 42.8585,
      "duration": 0.1724,
      "velocity": 94,
      "chip": "ym2612"
    },
    {
      "channel": 3,
      "note": 72,
      "start": 42.859,
      "duration": 0.172,
      "velocity": 94,
      "chip": "ym2612"
    },
    {
      "channel": 4,
      "note": 84,
      "start": 42.8595,
      "duration": 0.1719,
      "velocity": 94,
      "chip": "ym2612"
    },
    {
      "channel": 5,
      "note": 72,
      "start": 42.86,
      "duration": 0.1715,
      "velocity": 94,
      "chip": "ym2612"
    },
    {
      "channel": 1,
      "note": 72,
      "start": 42.8873,
      "duration": 0.1724,
      "velocity": 94,
      "chip": "ym2612"
    },
    {
      "channel": 2,
      "note": 72,
      "start": 42.9738,
      "duration": 0.1723,
      "velocity": 94,
      "chip": "ym2612"
    },
    {
      "channel": 0,
      "note": 74,
      "start": 43.0319,
      "duration": 0.1574,
      "velocity": 94,
      "chip": "ym2612"
    },
    {
      "channel": 3,
      "note": 74,
      "start": 43.0324,
      "duration": 0.1571,
      "velocity": 94,
      "chip": "ym2612"
    },
    {
      "channel": 4,
      "note": 86,
      "start": 43.0328,
      "duration": 0.1567,
      "velocity": 94,
      "chip": "ym2612"
    },
    {
      "channel": 5,
      "note": 74,
      "start": 43.0333,
      "duration": 0.1563,
      "velocity": 94,
      "chip": "ym2612"
    },
    {
      "channel": 1,
      "note": 74,
      "start": 43.0603,
      "duration": 0.1578,
      "velocity": 94,
      "chip": "ym2612"
    },
    {
      "channel": 2,
      "note": 74,
      "start": 43.1466,
      "duration": 0.1724,
      "velocity": 94,
      "chip": "ym2612"
    },
    {
      "channel": 0,
      "note": 70,
      "start": 43.2041,
      "duration": 0.1724,
      "velocity": 94,
      "chip": "ym2612"
    },
    {
      "channel": 3,
      "note": 70,
      "start": 43.2046,
      "duration": 0.1721,
      "velocity": 94,
      "chip": "ym2612"
    },
    {
      "channel": 4,
      "note": 82,
      "start": 43.205,
      "duration": 0.1717,
      "velocity": 94,
      "chip": "ym2612"
    },
    {
      "channel": 5,
      "note": 70,
      "start": 43.2055,
      "duration": 0.1714,
      "velocity": 94,
      "chip": "ym2612"
    },
    {
      "channel": 1,
      "note": 70,
      "start": 43.2329,
      "duration": 0.1724,
      "velocity": 94,
      "chip": "ym2612"
    },
    {
      "channel": 2,
      "note": 70,
      "start": 43.3194,
      "duration": 0.1723,
      "velocity": 94,
      "chip": "ym2612"
    },
    {
      "channel": 0,
      "note": 72,
      "start": 43.3773,
      "duration": 0.1146,
      "velocity": 94,
      "chip": "ym2612"
    },
    {
      "channel": 3,
      "note": 72,
      "start": 43.3777,
      "duration": 0.1142,
      "velocity": 94,
      "chip": "ym2612"
    },
    {
      "channel": 4,
      "note": 84,
      "start": 43.3782,
      "duration": 0.1139,
      "velocity": 94,
      "chip": "ym2612"
    },
    {
      "channel": 5,
      "note": 72,
      "start": 43.3786,
      "duration": 0.1135,
      "velocity": 94,
      "chip": "ym2612"
    },
    {
      "channel": 1,
      "note": 72,
      "start": 43.4058,
      "duration": 0.1147,
      "velocity": 94,
      "chip": "ym2612"
    },
    {
      "channel": 2,
      "note": 72,
      "start": 43.4926,
      "duration": 0.172,
      "velocity": 94,
      "chip": "ym2612"
    },
    {
      "channel": 0,
      "note": 72,
      "start": 43.5497,
      "duration": 0.23,
      "velocity": 94,
      "chip": "ym2612"
    },
    {
      "channel": 3,
      "note": 72,
      "start": 43.5502,
      "duration": 0.2297,
      "velocity": 94,
      "chip": "ym2612"
    },
    {
      "channel": 4,
      "note": 84,
      "start": 43.5506,
      "duration": 0.2293,
      "velocity": 94,
      "chip": "ym2612"
    },
    {
      "channel": 5,
      "note": 72,
      "start": 43.5511,
      "duration": 0.229,
      "velocity": 94,
      "chip": "ym2612"
    },
    {
      "channel": 1,
      "note": 72,
      "start": 43.5785,
      "duration": 0.23,
      "velocity": 94,
      "chip": "ym2612"
    },
    {
      "channel": 2,
      "note": 72,
      "start": 43.6651,
      "duration": 0.345,
      "velocity": 94,
      "chip": "ym2612"
    },
    {
      "channel": 0,
      "note": 77,
      "start": 43.8953,
      "duration": 0.3165,
      "velocity": 94,
      "chip": "ym2612"
    },
    {
      "channel": 3,
      "note": 77,
      "start": 43.8958,
      "duration": 0.172,
      "velocity": 94,
      "chip": "ym2612"
    },
    {
      "channel": 4,
      "note": 89,
      "start": 43.8962,
      "duration": 0.1722,
      "velocity": 94,
      "chip": "ym2612"
    },
    {
      "channel": 5,
      "note": 77,
      "start": 43.8967,
      "duration": 0.1722,
      "velocity": 94,
      "chip": "ym2612"
    },
    {
      "channel": 1,
      "note": 77,
      "start": 43.9241,
      "duration": 0.3164,
      "velocity": 94,
      "chip": "ym2612"
    },
    {
      "channel": 2,
      "note": 77,
      "start": 44.0106,
      "duration": 0.3163,
      "velocity": 94,
      "chip": "ym2612"
    },
    {
      "channel": 3,
      "note": 78,
      "start": 44.0683,
      "duration": 0.1731,
      "velocity": 94,
      "chip": "ym2612"
    },
    {
      "channel": 4,
      "note": 90,
      "start": 44.0688,
      "duration": 0.1731,
      "velocity": 94,
      "chip": "ym2612"
    },
    {
      "channel": 5,
      "note": 78,
      "start": 44.0693,
      "duration": 0.1731,
      "velocity": 94,
      "chip": "ym2612"
    },
    {
      "channel": 0,
      "note": 77,
      "start": 44.241,
      "duration": 0.2876,
      "velocity": 94,
      "chip": "ym2612"
    },
    {
      "channel": 3,
      "note": 77,
      "start": 44.2417,
      "duration": 0.2869,
      "velocity": 94,
      "chip": "ym2612"
    },
    {
      "channel": 4,
      "note": 89,
      "start": 44.2422,
      "duration": 0.2865,
      "velocity": 94,
      "chip": "ym2612"
    },
    {
      "channel": 5,
      "note": 77,
      "start": 44.2427,
      "duration": 0.2861,
      "velocity": 94,
      "chip": "ym2612"
    },
    {
      "channel": 1,
      "note": 77,
      "start": 44.2697,
      "duration": 0.2876,
      "velocity": 94,
      "chip": "ym2612"
    },
    {
      "channel": 2,
      "note": 77,
      "start": 44.3561,
      "duration": 0.3454,
      "velocity": 94,
      "chip": "ym2612"
    },
    {
      "channel": 0,
      "note": 77,
      "start": 44.5865,
      "duration": 0.2877,
      "velocity": 94,
      "chip": "ym2612"
    },
    {
      "channel": 3,
      "note": 77,
      "start": 44.5869,
      "duration": 0.2873,
      "velocity": 94,
      "chip": "ym2612"
    },
    {
      "channel": 4,
      "note": 89,
      "start": 44.5874,
      "duration": 0.2869,
      "velocity": 94,
      "chip": "ym2612"
    },
    {
      "channel": 5,
      "note": 77,
      "start": 44.5879,
      "duration": 0.2866,
      "velocity": 94,
      "chip": "ym2612"
    },
    {
      "channel": 1,
      "note": 77,
      "start": 44.6153,
      "duration": 0.2876,
      "velocity": 94,
      "chip": "ym2612"
    },
    {
      "channel": 2,
      "note": 77,
      "start": 44.702,
      "duration": 0.345,
      "velocity": 94,
      "chip": "ym2612"
    },
    {
      "channel": 0,
      "note": 76,
      "start": 44.9321,
      "duration": 0.1294,
      "velocity": 94,
      "chip": "ym2612"
    },
    {
      "channel": 3,
      "note": 76,
      "start": 44.9325,
      "duration": 0.1291,
      "velocity": 94,
      "chip": "ym2612"
    },
    {
      "channel": 4,
      "note": 88,
      "start": 44.933,
      "duration": 0.1287,
      "velocity": 94,
      "chip": "ym2612"
    },
    {
      "channel": 5,
      "note": 76,
      "start": 44.9335,
      "duration": 0.1283,
      "velocity": 94,
      "chip": "ym2612"
    },
    {
      "channel": 1,
      "note": 76,
      "start": 44.9609,
      "duration": 0.1293,
      "velocity": 94,
      "chip": "ym2612"
    },
    {
      "channel": 2,
      "note": 76,
      "start": 45.0474,
      "duration": 0.1724,
      "velocity": 94,
      "chip": "ym2612"
    },
    {
      "channel": 0,
      "note": 77,
      "start": 45.1049,
      "duration": 0.1724,
      "velocity": 94,
      "chip": "ym2612"
    },
    {
      "channel": 3,
      "note": 77,
      "start": 45.1054,
      "duration": 0.1721,
      "velocity": 94,
      "chip": "ym2612"
    },
    {
      "channel": 4,
      "note": 89,
      "start": 45.1058,
      "duration": 0.1717,
      "velocity": 94,
      "chip": "ym2612"
    },
    {
      "channel": 5,
      "note": 77,
      "start": 45.1063,
      "duration": 0.1714,
      "velocity": 94,
      "chip": "ym2612"
    },
    {
      "channel": 1,
      "note": 77,
      "start": 45.1337,
      "duration": 0.1725,
      "velocity": 94,
      "chip": "ym2612"
    },
    {
      "channel": 2,
      "note": 77,
      "start": 45.2202,
      "duration": 0.1723,
      "velocity": 94,
      "chip": "ym2612"
    },
    {
      "channel": 0,
      "note": 76,
      "start": 45.2782,
      "duration": 0.172,
      "velocity": 94,
      "chip": "ym2612"
    },
    {
      "channel": 3,
      "note": 76,
      "start": 45.2786,
      "duration": 0.1716,
      "velocity": 94,
      "chip": "ym2612"
    },
    {
      "channel": 4,
      "note": 88,
      "start": 45.2791,
      "duration": 0.1712,
      "velocity": 94,
      "chip": "ym2612"
    },
    {
      "channel": 5,
      "note": 76,
      "start": 45.2796,
      "duration": 0.1709,
      "velocity": 94,
      "chip": "ym2612"
    },
    {
      "channel": 1,
      "note": 76,
      "start": 45.3066,
      "duration": 0.1724,
      "velocity": 94,
      "chip": "ym2612"
    },
    {
      "channel": 2,
      "note": 76,
      "start": 45.393,
      "duration": 0.1724,
      "velocity": 94,
      "chip": "ym2612"
    },
    {
      "channel": 0,
      "note": 72,
      "start": 45.4509,
      "duration": 0.1146,
      "velocity": 94,
      "chip": "ym2612"
    },
    {
      "channel": 3,
      "note": 72,
      "start": 45.4516,
      "duration": 0.1139,
      "velocity": 94,
      "chip": "ym2612"
    },
    {
      "channel": 4,
      "note": 84,
      "start": 45.452,
      "duration": 0.1136,
      "velocity": 94,
      "chip": "ym2612"
    },
    {
      "channel": 5,
      "note": 72,
      "start": 45.4525,
      "duration": 0.1132,
      "velocity": 94,
      "chip": "ym2612"
    },
    {
      "channel": 1,
      "note": 72,
      "start": 45.4795,
      "duration": 0.1146,
      "velocity": 94,
      "chip": "ym2612"
    },
    {
      "channel": 2,
      "note": 72,
      "start": 45.5662,
      "duration": 0.172,
      "velocity": 94,
      "chip": "ym2612"
    },
    {
      "channel": 0,
      "note": 70,
      "start": 45.6233,
      "duration": 0.1293,
      "velocity": 94,
      "chip": "ym2612"
    },
    {
      "channel": 3,
      "note": 70,
      "start": 45.6237,
      "duration": 0.1289,
      "velocity": 94,
      "chip": "ym2612"
    },
    {
      "channel": 4,
      "note": 82,
      "start": 45.6242,
      "duration": 0.1285,
      "velocity": 94,
      "chip": "ym2612"
    },
    {
      "channel": 5,
      "note": 70,
      "start": 45.6247,
      "duration": 0.1282,
      "velocity": 94,
      "chip": "ym2612"
    },
    {
      "channel": 1,
      "note": 70,
      "start": 45.6521,
      "duration": 0.1294,
      "velocity": 94,
      "chip": "ym2612"
    },
    {
      "channel": 2,
      "note": 70,
      "start": 45.7386,
      "duration": 0.1724,
      "velocity": 94,
      "chip": "ym2612"
    },
    {
      "channel": 0,
      "note": 72,
      "start": 45.7961,
      "duration": 0.1724,
      "velocity": 94,
      "chip": "ym2612"
    },
    {
      "channel": 3,
      "note": 72,
      "start": 45.7966,
      "duration": 0.1721,
      "velocity": 94,
      "chip": "ym2612"
    },
    {
      "channel": 4,
      "note": 84,
      "start": 45.797,
      "duration": 0.1717,
      "velocity": 94,
      "chip": "ym2612"
    },
    {
      "channel": 5,
      "note": 72,
      "start": 45.7975,
      "duration": 0.1714,
      "velocity": 94,
      "chip": "ym2612"
    },
    {
      "channel": 1,
      "note": 72,
      "start": 45.8249,
      "duration": 0.1724,
      "velocity": 94,
      "chip": "ym2612"
    },
    {
      "channel": 2,
      "note": 72,
      "start": 45.9116,
      "duration": 0.1721,
      "velocity": 94,
      "chip": "ym2612"
    },
    {
      "channel": 0,
      "note": 70,
      "start": 45.9693,
      "duration": 0.1722,
      "velocity": 94,
      "chip": "ym2612"
    },
    {
      "channel": 3,
      "note": 70,
      "start": 45.9697,
      "duration": 0.1719,
      "velocity": 94,
      "chip": "ym2612"
    },
    {
      "channel": 4,
      "note": 82,
      "start": 45.9702,
      "duration": 0.1715,
      "velocity": 94,
      "chip": "ym2612"
    },
    {
      "channel": 5,
      "note": 70,
      "start": 45.9707,
      "duration": 0.1712,
      "velocity": 94,
      "chip": "ym2612"
    },
    {
      "channel": 1,
      "note": 70,
      "start": 45.9978,
      "duration": 0.1724,
      "velocity": 94,
      "chip": "ym2612"
    },
    {
      "channel": 2,
      "note": 70,
      "start": 46.0843,
      "duration": 0.1722,
      "velocity": 94,
      "chip": "ym2612"
    },
    {
      "channel": 0,
      "note": 69,
      "start": 46.1422,
      "duration": 0.1575,
      "velocity": 94,
      "chip": "ym2612"
    },
    {
      "channel": 3,
      "note": 69,
      "start": 46.1427,
      "duration": 0.1571,
      "velocity": 94,
      "chip": "ym2612"
    },
    {
      "channel": 4,
      "note": 81,
      "start": 46.1432,
      "duration": 0.1568,
      "velocity": 94,
      "chip": "ym2612"
    },
    {
      "channel": 5,
      "note": 69,
      "start": 46.1436,
      "duration": 0.1564,
      "velocity": 94,
      "chip": "ym2612"
    },
    {
      "channel": 1,
      "note": 69,
      "start": 46.1706,
      "duration": 0.158,
      "velocity": 94,
      "chip": "ym2612"
    },
    {
      "channel": 2,
      "note": 69,
      "start": 46.257,
      "duration": 0.1723,
      "velocity": 94,
      "chip": "ym2612"
    },
    {
      "channel": 0,
      "note": 65,
      "start": 46.3145,
      "duration": 0.1724,
      "velocity": 94,
      "chip": "ym2612"
    },
    {
      "channel": 3,
      "note": 65,
      "start": 46.315,
      "duration": 0.1721,
      "velocity": 94,
      "chip": "ym2612"
    },
    {
      "channel": 4,
      "note": 77,
      "start": 46.3154,
      "duration": 0.1717,
      "velocity": 94,
      "chip": "ym2612"
    },
    {
      "channel": 5,
      "note": 65,
      "start": 46.3159,
      "duration": 0.1714,
      "velocity": 94,
      "chip": "ym2612"
    },
    {
      "channel": 1,
      "note": 65,
      "start": 46.3433,
      "duration": 0.1724,
      "velocity": 94,
      "chip": "ym2612"
    },
    {
      "channel": 2,
      "note": 65,
      "start": 46.4298,
      "duration": 0.1724,
      "velocity": 94,
      "chip": "ym2612"
    },
    {
      "channel": 0,
      "note": 67,
      "start": 46.4878,
      "duration": 0.1,
      "velocity": 94,
      "chip": "ym2612"
    },
    {
      "channel": 3,
      "note": 67,
      "start": 46.4883,
      "duration": 0.0996,
      "velocity": 94,
      "chip": "ym2612"
    },
    {
      "channel": 4,
      "note": 79,
      "start": 46.4887,
      "duration": 0.0992,
      "velocity": 94,
      "chip": "ym2612"
    },
    {
      "channel": 5,
      "note": 67,
      "start": 46.4892,
      "duration": 0.0989,
      "velocity": 94,
      "chip": "ym2612"
    },
    {
      "channel": 1,
      "note": 67,
      "start": 46.5162,
      "duration": 0.1004,
      "velocity": 94,
      "chip": "ym2612"
    },
    {
      "channel": 2,
      "note": 67,
      "start": 46.6026,
      "duration": 0.1724,
      "velocity": 94,
      "chip": "ym2612"
    },
    {
      "channel": 0,
      "note": 67,
      "start": 46.6601,
      "duration": 0.3021,
      "velocity": 94,
      "chip": "ym2612"
    },
    {
      "channel": 3,
      "note": 67,
      "start": 46.6605,
      "duration": 0.3017,
      "velocity": 94,
      "chip": "ym2612"
    },
    {
      "channel": 4,
      "note": 79,
      "start": 46.661,
      "duration": 0.3013,
      "velocity": 94,
      "chip": "ym2612"
    },
    {
      "channel": 5,
      "note": 67,
      "start": 46.6617,
      "duration": 0.3007,
      "velocity": 94,
      "chip": "ym2612"
    },
    {
      "channel": 1,
      "note": 67,
      "start": 46.6889,
      "duration": 0.302,
      "velocity": 94,
      "chip": "ym2612"
    },
    {
      "channel": 2,
      "note": 67,
      "start": 46.7754,
      "duration": 0.3451,
      "velocity": 94,
      "chip": "ym2612"
    },
    {
      "channel": 0,
      "note": 76,
      "start": 47.0057,
      "duration": 0.1725,
      "velocity": 94,
      "chip": "ym2612"
    },
    {
      "channel": 3,
      "note": 76,
      "start": 47.0061,
      "duration": 0.1725,
      "velocity": 94,
      "chip": "ym2612"
    },
    {
      "channel": 4,
      "note": 88,
      "start": 47.0066,
      "duration": 0.1726,
      "velocity": 94,
      "chip": "ym2612"
    },
    {
      "channel": 5,
      "note": 76,
      "start": 47.0071,
      "duration": 0.1727,
      "velocity": 94,
      "chip": "ym2612"
    },
    {
      "channel": 1,
      "note": 76,
      "start": 47.0345,
      "duration": 0.1725,
      "velocity": 94,
      "chip": "ym2612"
    },
    {
      "channel": 2,
      "note": 76,
      "start": 47.121,
      "duration": 0.1724,
      "velocity": 94,
      "chip": "ym2612"
    },
    {
      "channel": 0,
      "note": 77,
      "start": 47.1785,
      "duration": 0.1724,
      "velocity": 94,
      "chip": "ym2612"
    },
    {
      "channel": 3,
      "note": 77,
      "start": 47.1791,
      "duration": 0.1727,
      "velocity": 94,
      "chip": "ym2612"
    },
    {
      "channel": 4,
      "note": 89,
      "start": 47.1796,
      "duration": 0.1727,
      "velocity": 94,
      "chip": "ym2612"
    },
    {
      "channel": 5,
      "note": 77,
      "start": 47.1801,
      "duration": 0.1727,
      "velocity": 94,
      "chip": "ym2612"
    },
    {
      "channel": 1,
      "note": 77,
      "start": 47.2074,
      "duration": 0.1724,
      "velocity": 94,
      "chip": "ym2612"
    },
    {
      "channel": 2,
      "note": 77,
      "start": 47.2939,
      "duration": 0.1723,
      "velocity": 94,
      "chip": "ym2612"
    },
    {
      "channel": 0,
      "note": 76,
      "start": 47.3516,
      "duration": 0.3161,
      "velocity": 94,
      "chip": "ym2612"
    },
    {
      "channel": 3,
      "note": 76,
      "start": 47.3521,
      "duration": 0.3157,
      "velocity": 94,
      "chip": "ym2612"
    },
    {
      "channel": 4,
      "note": 88,
      "start": 47.3526,
      "duration": 0.3153,
      "velocity": 94,
      "chip": "ym2612"
    },
    {
      "channel": 5,
      "note": 76,
      "start": 47.3531,
      "duration": 0.3149,
      "velocity": 94,
      "chip": "ym2612"
    },
    {
      "channel": 1,
      "note": 76,
      "start": 47.3802,
      "duration": 0.3164,
      "velocity": 94,
      "chip": "ym2612"
    },
    {
      "channel": 2,
      "note": 76,
      "start": 47.4666,
      "duration": 0.3451,
      "velocity": 94,
      "chip": "ym2612"
    },
    {
      "channel": 0,
      "note": 76,
      "start": 47.6971,
      "duration": 0.1723,
      "velocity": 94,
      "chip": "ym2612"
    },
    {
      "channel": 3,
      "note": 76,
      "start": 47.6976,
      "duration": 0.1723,
      "velocity": 94,
      "chip": "ym2612"
    },
    {
      "channel": 4,
      "note": 88,
      "start": 47.698,
      "duration": 0.1724,
      "velocity": 94,
      "chip": "ym2612"
    },
    {
      "channel": 5,
      "note": 76,
      "start": 47.6985,
      "duration": 0.1724,
      "velocity": 94,
      "chip": "ym2612"
    },
    {
      "channel": 1,
      "note": 76,
      "start": 47.7257,
      "duration": 0.1725,
      "velocity": 94,
      "chip": "ym2612"
    },
    {
      "channel": 2,
      "note": 76,
      "start": 47.8122,
      "duration": 0.1724,
      "velocity": 94,
      "chip": "ym2612"
    },
    {
      "channel": 0,
      "note": 77,
      "start": 47.8698,
      "duration": 0.1724,
      "velocity": 94,
      "chip": "ym2612"
    },
    {
      "channel": 3,
      "note": 77,
      "start": 47.8703,
      "duration": 0.1724,
      "velocity": 94,
      "chip": "ym2612"
    },
    {
      "channel": 4,
      "note": 89,
      "start": 47.8708,
      "duration": 0.1724,
      "velocity": 94,
      "chip": "ym2612"
    },
    {
      "channel": 5,
      "note": 77,
      "start": 47.8715,
      "duration": 0.1722,
      "velocity": 94,
      "chip": "ym2612"
    },
    {
      "channel": 1,
      "note": 77,
      "start": 47.8987,
      "duration": 0.1723,
      "velocity": 94,
      "chip": "ym2612"
    },
    {
      "channel": 2,
      "note": 77,
      "start": 47.985,
      "duration": 0.1724,
      "velocity": 94,
      "chip": "ym2612"
    },
    {
      "channel": 0,
      "note": 76,
      "start": 48.0426,
      "duration": 0.3164,
      "velocity": 94,
      "chip": "ym2612"
    },
    {
      "channel": 3,
      "note": 76,
      "start": 48.0431,
      "duration": 0.316,
      "velocity": 94,
      "chip": "ym2612"
    },
    {
      "channel": 4,
      "note": 88,
      "start": 48.0436,
      "duration": 0.3156,
      "velocity": 94,
      "chip": "ym2612"
    },
    {
      "channel": 5,
      "note": 76,
      "start": 48.0441,
      "duration": 0.3151,
      "velocity": 94,
      "chip": "ym2612"
    },
    {
      "channel": 1,
      "note": 76,
      "start": 48.0716,
      "duration": 0.3162,
      "velocity": 94,
      "chip": "ym2612"
    },
    {
      "channel": 2,
      "note": 76,
      "start": 48.1578,
      "duration": 0.3452,
      "velocity": 94,
      "chip": "ym2612"
    },
    {
      "channel": 0,
      "note": 72,
      "start": 48.3882,
      "duration": 0.1724,
      "velocity": 94,
      "chip": "ym2612"
    },
    {
      "channel": 3,
      "note": 72,
      "start": 48.3886,
      "duration": 0.172,
      "velocity": 94,
      "chip": "ym2612"
    },
    {
      "channel": 4,
      "note": 84,
      "start": 48.3891,
      "duration": 0.1716,
      "velocity": 94,
      "chip": "ym2612"
    },
    {
      "channel": 5,
      "note": 72,
      "start": 48.3896,
      "duration": 0.1713,
      "velocity": 94,
      "chip": "ym2612"
    },
    {
      "channel": 1,
      "note": 72,
      "start": 48.4169,
      "duration": 0.1725,
      "velocity": 94,
      "chip": "ym2612"
    },
    {
      "channel": 2,
      "note": 72,
      "start": 48.5035,
      "duration": 0.1722,
      "velocity": 94,
      "chip": "ym2612"
    },
    {
      "channel": 0,
      "note": 74,
      "start": 48.5615,
      "duration": 0.1718,
      "velocity": 94,
      "chip": "ym2612"
    },
    {
      "channel": 3,
      "note": 74,
      "start": 48.562,
      "duration": 0.1715,
      "velocity": 94,
      "chip": "ym2612"
    },
    {
      "channel": 4,
      "note": 86,
      "start": 48.5624,
      "duration": 0.1711,
      "velocity": 94,
      "chip": "ym2612"
    },
    {
      "channel": 5,
      "note": 74,
      "start": 48.5629,
      "duration": 0.1707,
      "velocity": 94,
      "chip": "ym2612"
    },
    {
      "channel": 1,
      "note": 74,
      "start": 48.5898,
      "duration": 0.1724,
      "velocity": 94,
      "chip": "ym2612"
    },
    {
      "channel": 2,
      "note": 74,
      "start": 48.6762,
      "duration": 0.1724,
      "velocity": 94,
      "chip": "ym2612"
    },
    {
      "channel": 0,
      "note": 70,
      "start": 48.7341,
      "duration": 0.1721,
      "velocity": 94,
      "chip": "ym2612"
    },
    {
      "channel": 3,
      "note": 70,
      "start": 48.7345,
      "duration": 0.1717,
      "velocity": 94,
      "chip": "ym2612"
    },
    {
      "channel": 4,
      "note": 82,
      "start": 48.735,
      "duration": 0.1714,
      "velocity": 94,
      "chip": "ym2612"
    },
    {
      "channel": 5,
      "note": 70,
      "start": 48.7356,
      "duration": 0.1709,
      "velocity": 94,
      "chip": "ym2612"
    },
    {
      "channel": 1,
      "note": 70,
      "start": 48.7626,
      "duration": 0.1724,
      "velocity": 94,
      "chip": "ym2612"
    },
    {
      "channel": 2,
      "note": 70,
      "start": 48.849,
      "duration": 0.1725,
      "velocity": 94,
      "chip": "ym2612"
    },
    {
      "channel": 0,
      "note": 72,
      "start": 48.907,
      "duration": 0.1146,
      "velocity": 94,
      "chip": "ym2612"
    },
    {
      "channel": 3,
      "note": 72,
      "start": 48.9074,
      "duration": 0.1143,
      "velocity": 94,
      "chip": "ym2612"
    },
    {
      "channel": 4,
      "note": 84,
      "start": 48.9079,
      "duration": 0.1139,
      "velocity": 94,
      "chip": "ym2612"
    },
    {
      "channel": 5,
      "note": 72,
      "start": 48.9084,
      "duration": 0.1135,
      "velocity": 94,
      "chip": "ym2612"
    },
    {
      "channel": 1,
      "note": 72,
      "start": 48.9354,
      "duration": 0.1148,
      "velocity": 94,
      "chip": "ym2612"
    },
    {
      "channel": 2,
      "note": 72,
      "start": 49.0223,
      "duration": 0.1718,
      "velocity": 94,
      "chip": "ym2612"
    },
    {
      "channel": 0,
      "note": 72,
      "start": 49.0793,
      "duration": 0.2444,
      "velocity": 94,
      "chip": "ym2612"
    },
    {
      "channel": 3,
      "note": 72,
      "start": 49.0798,
      "duration": 0.2441,
      "velocity": 94,
      "chip": "ym2612"
    },
    {
      "channel": 4,
      "note": 84,
      "start": 49.0802,
      "duration": 0.2437,
      "velocity": 94,
      "chip": "ym2612"
    },
    {
      "channel": 5,
      "note": 72,
      "start": 49.0807,
      "duration": 0.2434,
      "velocity": 94,
      "chip": "ym2612"
    },
    {
      "channel": 1,
      "note": 72,
      "start": 49.1081,
      "duration": 0.2445,
      "velocity": 94,
      "chip": "ym2612"
    },
    {
      "channel": 2,
      "note": 72,
      "start": 49.1946,
      "duration": 0.3451,
      "velocity": 94,
      "chip": "ym2612"
    },
    {
      "channel": 0,
      "note": 77,
      "start": 49.4249,
      "duration": 0.5612,
      "velocity": 94,
      "chip": "ym2612"
    },
    {
      "channel": 3,
      "note": 77,
      "start": 49.4254,
      "duration": 0.5609,
      "velocity": 94,
      "chip": "ym2612"
    },
    {
      "channel": 4,
      "note": 89,
      "start": 49.4258,
      "duration": 0.5605,
      "velocity": 94,
      "chip": "ym2612"
    },
    {
      "channel": 5,
      "note": 77,
      "start": 49.4263,
      "duration": 0.5602,
      "velocity": 94,
      "chip": "ym2612"
    },
    {
      "channel": 1,
      "note": 77,
      "start": 49.4537,
      "duration": 0.5612,
      "velocity": 94,
      "chip": "ym2612"
    },
    {
      "channel": 2,
      "note": 77,
      "start": 49.5402,
      "duration": 0.6907,
      "velocity": 94,
      "chip": "ym2612"
    },
    {
      "channel": 0,
      "note": 77,
      "start": 50.1161,
      "duration": 0.23,
      "velocity": 94,
      "chip": "ym2612"
    },
    {
      "channel": 3,
      "note": 77,
      "start": 50.1167,
      "duration": 0.2296,
      "velocity": 94,
      "chip": "ym2612"
    },
    {
      "channel": 4,
      "note": 89,
      "start": 50.1171,
      "duration": 0.2292,
      "velocity": 94,
      "chip": "ym2612"
    },
    {
      "channel": 5,
      "note": 77,
      "start": 50.1176,
      "duration": 0.2289,
      "velocity": 94,
      "chip": "ym2612"
    },
    {
      "channel": 1,
      "note": 77,
      "start": 50.1449,
      "duration": 0.23,
      "velocity": 94,
      "chip": "ym2612"
    },
    {
      "channel": 2,
      "note": 77,
      "start": 50.2316,
      "duration": 0.3449,
      "velocity": 94,
      "chip": "ym2612"
    },
    {
      "channel": 0,
      "note": 76,
      "start": 50.4619,
      "duration": 0.1435,
      "velocity": 94,
      "chip": "ym2612"
    },
    {
      "channel": 3,
      "note": 76,
      "start": 50.4623,
      "duration": 0.1431,
      "velocity": 94,
      "chip": "ym2612"
    },
    {
      "channel": 4,
      "note": 88,
      "start": 50.4628,
      "duration": 0.1428,
      "velocity": 94,
      "chip": "ym2612"
    },
    {
      "channel": 5,
      "note": 76,
      "start": 50.4632,
      "duration": 0.1424,
      "velocity": 94,
      "chip": "ym2612"
    },
    {
      "channel": 1,
      "note": 76,
      "start": 50.4905,
      "duration": 0.1437,
      "velocity": 94,
      "chip": "ym2612"
    },
    {
      "channel": 2,
      "note": 76,
      "start": 50.577,
      "duration": 0.1723,
      "velocity": 94,
      "chip": "ym2612"
    },
    {
      "channel": 0,
      "note": 77,
      "start": 50.6346,
      "duration": 0.1579,
      "velocity": 94,
      "chip": "ym2612"
    },
    {
      "channel": 3,
      "note": 77,
      "start": 50.6351,
      "duration": 0.1576,
      "velocity": 94,
      "chip": "ym2612"
    },
    {
      "channel": 4,
      "note": 89,
      "start": 50.6355,
      "duration": 0.1572,
      "velocity": 94,
      "chip": "ym2612"
    },
    {
      "channel": 5,
      "note": 77,
      "start": 50.636,
      "duration": 0.1569,
      "velocity": 94,
      "chip": "ym2612"
    },
    {
      "channel": 1,
      "note": 77,
      "start": 50.6633,
      "duration": 0.1582,
      "velocity": 94,
      "chip": "ym2612"
    },
    {
      "channel": 2,
      "note": 77,
      "start": 50.7498,
      "duration": 0.1724,
      "velocity": 94,
      "chip": "ym2612"
    },
    {
      "channel": 0,
      "note": 76,
      "start": 50.8073,
      "duration": 0.1724,
      "velocity": 94,
      "chip": "ym2612"
    },
    {
      "channel": 3,
      "note": 76,
      "start": 50.8078,
      "duration": 0.1721,
      "velocity": 94,
      "chip": "ym2612"
    },
    {
      "channel": 4,
      "note": 88,
      "start": 50.8082,
      "duration": 0.1717,
      "velocity": 94,
      "chip": "ym2612"
    },
    {
      "channel": 5,
      "note": 76,
      "start": 50.8087,
      "duration": 0.1714,
      "velocity": 94,
      "chip": "ym2612"
    },
    {
      "channel": 1,
      "note": 76,
      "start": 50.8361,
      "duration": 0.1724,
      "velocity": 94,
      "chip": "ym2612"
    },
    {
      "channel": 2,
      "note": 76,
      "start": 50.9227,
      "duration": 0.1722,
      "velocity": 94,
      "chip": "ym2612"
    },
    {
      "channel": 0,
      "note": 72,
      "start": 50.9805,
      "duration": 0.1289,
      "velocity": 94,
      "chip": "ym2612"
    },
    {
      "channel": 3,
      "note": 72,
      "start": 50.9809,
      "duration": 0.1285,
      "velocity": 94,
      "chip": "ym2612"
    },
    {
      "channel": 4,
      "note": 84,
      "start": 50.9816,
      "duration": 0.1279,
      "velocity": 94,
      "chip": "ym2612"
    },
    {
      "channel": 5,
      "note": 72,
      "start": 50.9821,
      "duration": 0.1276,
      "velocity": 94,
      "chip": "ym2612"
    },
    {
      "channel": 1,
      "note": 72,
      "start": 51.009,
      "duration": 0.1292,
      "velocity": 94,
      "chip": "ym2612"
    },
    {
      "channel": 2,
      "note": 72,
      "start": 51.0954,
      "duration": 0.1724,
      "velocity": 94,
      "chip": "ym2612"
    },
    {
      "channel": 0,
      "note": 70,
      "start": 51.1529,
      "duration": 0.1149,
      "velocity": 94,
      "chip": "ym2612"
    },
    {
      "channel": 3,
      "note": 70,
      "start": 51.1534,
      "duration": 0.1146,
      "velocity": 94,
      "chip": "ym2612"
    },
    {
      "channel": 4,
      "note": 82,
      "start": 51.1538,
      "duration": 0.1142,
      "velocity": 94,
      "chip": "ym2612"
    },
    {
      "channel": 5,
      "note": 70,
      "start": 51.1543,
      "duration": 0.1139,
      "velocity": 94,
      "chip": "ym2612"
    },
    {
      "channel": 1,
      "note": 70,
      "start": 51.1819,
      "duration": 0.1147,
      "velocity": 94,
      "chip": "ym2612"
    },
    {
      "channel": 2,
      "note": 70,
      "start": 51.2686,
      "duration": 0.172,
      "velocity": 94,
      "chip": "ym2612"
    },
    {
      "channel": 0,
      "note": 72,
      "start": 51.3257,
      "duration": 0.158,
      "velocity": 94,
      "chip": "ym2612"
    },
    {
      "channel": 3,
      "note": 72,
      "start": 51.3263,
      "duration": 0.1576,
      "velocity": 94,
      "chip": "ym2612"
    },
    {
      "channel": 4,
      "note": 84,
      "start": 51.3267,
      "duration": 0.1572,
      "velocity": 94,
      "chip": "ym2612"
    },
    {
      "channel": 5,
      "note": 72,
      "start": 51.3272,
      "duration": 0.1569,
      "velocity": 94,
      "chip": "ym2612"
    },
    {
      "channel": 1,
      "note": 72,
      "start": 51.3545,
      "duration": 0.158,
      "velocity": 94,
      "chip": "ym2612"
    },
    {
      "channel": 2,
      "note": 72,
      "start": 51.441,
      "duration": 0.1724,
      "velocity": 94,
      "chip": "ym2612"
    },
    {
      "channel": 0,
      "note": 70,
      "start": 51.4985,
      "duration": 0.1437,
      "velocity": 94,
      "chip": "ym2612"
    },
    {
      "channel": 3,
      "note": 70,
      "start": 51.499,
      "duration": 0.1433,
      "velocity": 94,
      "chip": "ym2612"
    },
    {
      "channel": 4,
      "note": 82,
      "start": 51.4994,
      "duration": 0.1429,
      "velocity": 94,
      "chip": "ym2612"
    },
    {
      "channel": 5,
      "note": 70,
      "start": 51.4999,
      "duration": 0.1426,
      "velocity": 94,
      "chip": "ym2612"
    },
    {
      "channel": 1,
      "note": 70,
      "start": 51.5273,
      "duration": 0.1437,
      "velocity": 94,
      "chip": "ym2612"
    },
    {
      "channel": 2,
      "note": 70,
      "start": 51.6138,
      "duration": 0.1723,
      "velocity": 94,
      "chip": "ym2612"
    },
    {
      "channel": 0,
      "note": 69,
      "start": 51.6716,
      "duration": 0.1721,
      "velocity": 94,
      "chip": "ym2612"
    },
    {
      "channel": 3,
      "note": 69,
      "start": 51.6721,
      "duration": 0.1718,
      "velocity": 94,
      "chip": "ym2612"
    },
    {
      "channel": 4,
      "note": 81,
      "start": 51.6725,
      "duration": 0.1714,
      "velocity": 94,
      "chip": "ym2612"
    },
    {
      "channel": 5,
      "note": 69,
      "start": 51.673,
      "duration": 0.171,
      "velocity": 94,
      "chip": "ym2612"
    },
    {
      "channel": 1,
      "note": 69,
      "start": 51.7001,
      "duration": 0.1724,
      "velocity": 94,
      "chip": "ym2612"
    },
    {
      "channel": 2,
      "note": 69,
      "start": 51.7866,
      "duration": 0.1724,
      "velocity": 94,
      "chip": "ym2612"
    },
    {
      "channel": 0,
      "note": 65,
      "start": 51.8445,
      "duration": 0.1721,
      "velocity": 94,
      "chip": "ym2612"
    },
    {
      "channel": 3,
      "note": 65,
      "start": 51.8449,
      "duration": 0.1717,
      "velocity": 94,
      "chip": "ym2612"
    },
    {
      "channel": 4,
      "note": 77,
      "start": 51.8454,
      "duration": 0.1713,
      "velocity": 94,
      "chip": "ym2612"
    },
    {
      "channel": 5,
      "note": 65,
      "start": 51.8459,
      "duration": 0.171,
      "velocity": 94,
      "chip": "ym2612"
    },
    {
      "channel": 1,
      "note": 65,
      "start": 51.873,
      "duration": 0.1724,
      "velocity": 94,
      "chip": "ym2612"
    },
    {
      "channel": 2,
      "note": 65,
      "start": 51.9594,
      "duration": 0.1723,
      "velocity": 94,
      "chip": "ym2612"
    },
    {
      "channel": 0,
      "note": 67,
      "start": 52.0173,
      "duration": 0.1146,
      "velocity": 94,
      "chip": "ym2612"
    },
    {
      "channel": 3,
      "note": 67,
      "start": 52.0177,
      "duration": 0.1142,
      "velocity": 94,
      "chip": "ym2612"
    },
    {
      "channel": 4,
      "note": 79,
      "start": 52.0182,
      "duration": 0.1139,
      "velocity": 94,
      "chip": "ym2612"
    },
    {
      "channel": 5,
      "note": 67,
      "start": 52.0186,
      "duration": 0.1135,
      "velocity": 94,
      "chip": "ym2612"
    },
    {
      "channel": 1,
      "note": 67,
      "start": 52.0458,
      "duration": 0.1147,
      "velocity": 94,
      "chip": "ym2612"
    },
    {
      "channel": 2,
      "note": 67,
      "start": 52.1327,
      "duration": 0.1719,
      "velocity": 94,
      "chip": "ym2612"
    },
    {
      "channel": 0,
      "note": 67,
      "start": 52.1897,
      "duration": 0.3309,
      "velocity": 94,
      "chip": "ym2612"
    },
    {
      "channel": 3,
      "note": 67,
      "start": 52.1902,
      "duration": 0.3305,
      "velocity": 94,
      "chip": "ym2612"
    },
    {
      "channel": 4,
      "note": 79,
      "start": 52.1906,
      "duration": 0.3301,
      "velocity": 94,
      "chip": "ym2612"
    },
    {
      "channel": 5,
      "note": 67,
      "start": 52.1911,
      "duration": 0.3298,
      "velocity": 94,
      "chip": "ym2612"
    },
    {
      "channel": 1,
      "note": 67,
      "start": 52.2185,
      "duration": 0.3309,
      "velocity": 94,
      "chip": "ym2612"
    },
    {
      "channel": 2,
      "note": 67,
      "start": 52.305,
      "duration": 0.3451,
      "velocity": 94,
      "chip": "ym2612"
    },
    {
      "channel": 0,
      "note": 79,
      "start": 52.5353,
      "duration": 0.6188,
      "velocity": 94,
      "chip": "ym2612"
    },
    {
      "channel": 3,
      "note": 79,
      "start": 52.5359,
      "duration": 0.6184,
      "velocity": 94,
      "chip": "ym2612"
    },
    {
      "channel": 4,
      "note": 91,
      "start": 52.5363,
      "duration": 0.618,
      "velocity": 94,
      "chip": "ym2612"
    },
    {
      "channel": 5,
      "note": 67,
      "start": 52.5368,
      "duration": 0.6177,
      "velocity": 94,
      "chip": "ym2612"
    },
    {
      "channel": 1,
      "note": 79,
      "start": 52.5641,
      "duration": 0.6188,
      "velocity": 94,
      "chip": "ym2612"
    },
    {
      "channel": 2,
      "note": 79,
      "start": 52.6506,
      "duration": 0.6909,
      "velocity": 94,
      "chip": "ym2612"
    },
    {
      "channel": 0,
      "note": 77,
      "start": 53.2265,
      "duration": 0.1437,
      "velocity": 94,
      "chip": "ym2612"
    },
    {
      "channel": 3,
      "note": 77,
      "start": 53.2269,
      "duration": 0.1433,
      "velocity": 94,
      "chip": "ym2612"
    },
    {
      "channel": 4,
      "note": 89,
      "start": 53.2274,
      "duration": 0.1429,
      "velocity": 94,
      "chip": "ym2612"
    },
    {
      "channel": 5,
      "note": 65,
      "start": 53.2279,
      "duration": 0.1426,
      "velocity": 94,
      "chip": "ym2612"
    },
    {
      "channel": 1,
      "note": 77,
      "start": 53.2553,
      "duration": 0.1437,
      "velocity": 94,
      "chip": "ym2612"
    },
    {
      "channel": 2,
      "note": 77,
      "start": 53.3421,
      "duration": 0.1721,
      "velocity": 94,
      "chip": "ym2612"
    },
    {
      "channel": 0,
      "note": 79,
      "start": 53.3994,
      "duration": 0.1724,
      "velocity": 94,
      "chip": "ym2612"
    },
    {
      "channel": 3,
      "note": 79,
      "start": 53.3998,
      "duration": 0.172,
      "velocity": 94,
      "chip": "ym2612"
    },
    {
      "channel": 4,
      "note": 91,
      "start": 53.4003,
      "duration": 0.1717,
      "velocity": 94,
      "chip": "ym2612"
    },
    {
      "channel": 5,
      "note": 67,
      "start": 53.4008,
      "duration": 0.1713,
      "velocity": 94,
      "chip": "ym2612"
    },
    {
      "channel": 1,
      "note": 79,
      "start": 53.4281,
      "duration": 0.1725,
      "velocity": 94,
      "chip": "ym2612"
    },
    {
      "channel": 2,
      "note": 79,
      "start": 53.5146,
      "duration": 0.1723,
      "velocity": 94,
      "chip": "ym2612"
    },
    {
      "channel": 0,
      "note": 82,
      "start": 53.5725,
      "duration": 0.2585,
      "velocity": 94,
      "chip": "ym2612"
    },
    {
      "channel": 3,
      "note": 82,
      "start": 53.5729,
      "duration": 0.2581,
      "velocity": 94,
      "chip": "ym2612"
    },
    {
      "channel": 4,
      "note": 94,
      "start": 53.5734,
      "duration": 0.258,
      "velocity": 94,
      "chip": "ym2612"
    },
    {
      "channel": 5,
      "note": 70,
      "start": 53.574,
      "duration": 0.2575,
      "velocity": 94,
      "chip": "ym2612"
    },
    {
      "channel": 1,
      "note": 82,
      "start": 53.601,
      "duration": 0.2588,
      "velocity": 94,
      "chip": "ym2612"
    },
    {
      "channel": 2,
      "note": 82,
      "start": 53.6874,
      "duration": 0.3451,
      "velocity": 94,
      "chip": "ym2612"
    },
    {
      "channel": 0,
      "note": 82,
      "start": 53.9177,
      "duration": 0.1725,
      "velocity": 94,
      "chip": "ym2612"
    },
    {
      "channel": 3,
      "note": 82,
      "start": 53.9181,
      "duration": 0.1725,
      "velocity": 94,
      "chip": "ym2612"
    },
    {
      "channel": 4,
      "note": 94,
      "start": 53.9186,
      "duration": 0.1728,
      "velocity": 94,
      "chip": "ym2612"
    },
    {
      "channel": 5,
      "note": 70,
      "start": 53.9191,
      "duration": 0.1729,
      "velocity": 94,
      "chip": "ym2612"
    },
    {
      "channel": 1,
      "note": 82,
      "start": 53.9465,
      "duration": 0.1725,
      "velocity": 94,
      "chip": "ym2612"
    },
    {
      "channel": 2,
      "note": 82,
      "start": 54.033,
      "duration": 0.1724,
      "velocity": 94,
      "chip": "ym2612"
    },
    {
      "channel": 0,
      "note": 84,
      "start": 54.0905,
      "duration": 0.1724,
      "velocity": 94,
      "chip": "ym2612"
    },
    {
      "channel": 3,
      "note": 84,
      "start": 54.0911,
      "duration": 0.1724,
      "velocity": 94,
      "chip": "ym2612"
    },
    {
      "channel": 4,
      "note": 96,
      "start": 54.0918,
      "duration": 0.1722,
      "velocity": 94,
      "chip": "ym2612"
    },
    {
      "channel": 5,
      "note": 72,
      "start": 54.0923,
      "duration": 0.1722,
      "velocity": 94,
      "chip": "ym2612"
    },
    {
      "channel": 1,
      "note": 84,
      "start": 54.1194,
      "duration": 0.1724,
      "velocity": 94,
      "chip": "ym2612"
    },
    {
      "channel": 2,
      "note": 84,
      "start": 54.2058,
      "duration": 0.1724,
      "velocity": 94,
      "chip": "ym2612"
    },
    {
      "channel": 0,
      "note": 82,
      "start": 54.2634,
      "duration": 0.2876,
      "velocity": 94,
      "chip": "ym2612"
    },
    {
      "channel": 3,
      "note": 82,
      "start": 54.2639,
      "duration": 0.2872,
      "velocity": 94,
      "chip": "ym2612"
    },
    {
      "channel": 4,
      "note": 94,
      "start": 54.2644,
      "duration": 0.2871,
      "velocity": 94,
      "chip": "ym2612"
    },
    {
      "channel": 5,
      "note": 70,
      "start": 54.2649,
      "duration": 0.2867,
      "velocity": 94,
      "chip": "ym2612"
    },
    {
      "channel": 1,
      "note": 82,
      "start": 54.2922,
      "duration": 0.2876,
      "velocity": 94,
      "chip": "ym2612"
    },
    {
      "channel": 2,
      "note": 82,
      "start": 54.3786,
      "duration": 0.3451,
      "velocity": 94,
      "chip": "ym2612"
    },
    {
      "channel": 0,
      "note": 81,
      "start": 54.6089,
      "duration": 0.3453,
      "velocity": 94,
      "chip": "ym2612"
    },
    {
      "channel": 3,
      "note": 81,
      "start": 54.6093,
      "duration": 0.3449,
      "velocity": 94,
      "chip": "ym2612"
    },
    {
      "channel": 4,
      "note": 93,
      "start": 54.6098,
      "duration": 0.3445,
      "velocity": 94,
      "chip": "ym2612"
    },
    {
      "channel": 5,
      "note": 69,
      "start": 54.6103,
      "duration": 0.3442,
      "velocity": 94,
      "chip": "ym2612"
    },
    {
      "channel": 1,
      "note": 81,
      "start": 54.6377,
      "duration": 0.3452,
      "velocity": 94,
      "chip": "ym2612"
    },
    {
      "channel": 2,
      "note": 81,
      "start": 54.7242,
      "duration": 0.3451,
      "velocity": 94,
      "chip": "ym2612"
    },
    {
      "channel": 0,
      "note": 77,
      "start": 54.955,
      "duration": 0.6904,
      "velocity": 94,
      "chip": "ym2612"
    },
    {
      "channel": 3,
      "note": 77,
      "start": 54.9554,
      "duration": 0.69,
      "velocity": 94,
      "chip": "ym2612"
    },
    {
      "channel": 4,
      "note": 89,
      "start": 54.9559,
      "duration": 0.6896,
      "velocity": 94,
      "chip": "ym2612"
    },
    {
      "channel": 5,
      "note": 65,
      "start": 54.9563,
      "duration": 0.6893,
      "velocity": 94,
      "chip": "ym2612"
    },
    {
      "channel": 1,
      "note": 77,
      "start": 54.9834,
      "duration": 0.6907,
      "velocity": 94,
      "chip": "ym2612"
    },
    {
      "channel": 2,
      "note": 77,
      "start": 55.0698,
      "duration": 0.6907,
      "velocity": 94,
      "chip": "ym2612"
    },
    {
      "channel": 0,
      "note": 81,
      "start": 55.6461,
      "duration": 0.2729,
      "velocity": 94,
      "chip": "ym2612"
    },
    {
      "channel": 3,
      "note": 81,
      "start": 55.6465,
      "duration": 0.2725,
      "velocity": 94,
      "chip": "ym2612"
    },
    {
      "channel": 4,
      "note": 93,
      "start": 55.647,
      "duration": 0.2722,
      "velocity": 94,
      "chip": "ym2612"
    },
    {
      "channel": 5,
      "note": 69,
      "start": 55.6474,
      "duration": 0.2718,
      "velocity": 94,
      "chip": "ym2612"
    },
    {
      "channel": 1,
      "note": 81,
      "start": 55.6746,
      "duration": 0.2732,
      "velocity": 94,
      "chip": "ym2612"
    },
    {
      "channel": 2,
      "note": 81,
      "start": 55.7614,
      "duration": 0.3448,
      "velocity": 94,
      "chip": "ym2612"
    },
    {
      "channel": 0,
      "note": 81,
      "start": 55.9915,
      "duration": 0.1722,
      "velocity": 94,
      "chip": "ym2612"
    },
    {
      "channel": 3,
      "note": 81,
      "start": 55.992,
      "duration": 0.1724,
      "velocity": 94,
      "chip": "ym2612"
    },
    {
      "channel": 4,
      "note": 93,
      "start": 55.9924,
      "duration": 0.1724,
      "velocity": 94,
      "chip": "ym2612"
    },
    {
      "channel": 5,
      "note": 69,
      "start": 55.993,
      "duration": 0.1724,
      "velocity": 94,
      "chip": "ym2612"
    },
    {
      "channel": 1,
      "note": 81,
      "start": 56.0201,
      "duration": 0.1725,
      "velocity": 94,
      "chip": "ym2612"
    },
    {
      "channel": 2,
      "note": 81,
      "start": 56.1066,
      "duration": 0.1724,
      "velocity": 94,
      "chip": "ym2612"
    },
    {
      "channel": 0,
      "note": 82,
      "start": 56.1643,
      "duration": 0.1723,
      "velocity": 94,
      "chip": "ym2612"
    },
    {
      "channel": 3,
      "note": 82,
      "start": 56.1648,
      "duration": 0.1723,
      "velocity": 94,
      "chip": "ym2612"
    },
    {
      "channel": 4,
      "note": 94,
      "start": 56.1653,
      "duration": 0.1723,
      "velocity": 94,
      "chip": "ym2612"
    },
    {
      "channel": 5,
      "note": 70,
      "start": 56.1658,
      "duration": 0.1723,
      "velocity": 94,
      "chip": "ym2612"
    },
    {
      "channel": 1,
      "note": 82,
      "start": 56.193,
      "duration": 0.1724,
      "velocity": 94,
      "chip": "ym2612"
    },
    {
      "channel": 2,
      "note": 82,
      "start": 56.2794,
      "duration": 0.1724,
      "velocity": 94,
      "chip": "ym2612"
    },
    {
      "channel": 0,
      "note": 81,
      "start": 56.337,
      "duration": 0.3164,
      "velocity": 94,
      "chip": "ym2612"
    },
    {
      "channel": 3,
      "note": 81,
      "start": 56.3375,
      "duration": 0.316,
      "velocity": 94,
      "chip": "ym2612"
    },
    {
      "channel": 4,
      "note": 93,
      "start": 56.338,
      "duration": 0.3156,
      "velocity": 94,
      "chip": "ym2612"
    },
    {
      "channel": 5,
      "note": 69,
      "start": 56.3385,
      "duration": 0.3152,
      "velocity": 94,
      "chip": "ym2612"
    },
    {
      "channel": 1,
      "note": 81,
      "start": 56.3659,
      "duration": 0.3163,
      "velocity": 94,
      "chip": "ym2612"
    },
    {
      "channel": 2,
      "note": 81,
      "start": 56.4522,
      "duration": 0.3451,
      "velocity": 94,
      "chip": "ym2612"
    },
    {
      "channel": 0,
      "note": 79,
      "start": 56.6826,
      "duration": 0.302,
      "velocity": 94,
      "chip": "ym2612"
    },
    {
      "channel": 3,
      "note": 79,
      "start": 56.6831,
      "duration": 0.3016,
      "velocity": 94,
      "chip": "ym2612"
    },
    {
      "channel": 4,
      "note": 91,
      "start": 56.6835,
      "duration": 0.3012,
      "velocity": 94,
      "chip": "ym2612"
    },
    {
      "channel": 5,
      "note": 67,
      "start": 56.684,
      "duration": 0.3009,
      "velocity": 94,
      "chip": "ym2612"
    },
    {
      "channel": 1,
      "note": 79,
      "start": 56.7115,
      "duration": 0.3018,
      "velocity": 94,
      "chip": "ym2612"
    },
    {
      "channel": 2,
      "note": 79,
      "start": 56.7978,
      "duration": 0.3451,
      "velocity": 94,
      "chip": "ym2612"
    },
    {
      "channel": 0,
      "note": 77,
      "start": 57.0281,
      "duration": 0.1724,
      "velocity": 94,
      "chip": "ym2612"
    },
    {
      "channel": 3,
      "note": 77,
      "start": 57.0285,
      "duration": 0.1721,
      "velocity": 94,
      "chip": "ym2612"
    },
    {
      "channel": 4,
      "note": 89,
      "start": 57.029,
      "duration": 0.1717,
      "velocity": 94,
      "chip": "ym2612"
    },
    {
      "channel": 5,
      "note": 65,
      "start": 57.0295,
      "duration": 0.1714,
      "velocity": 94,
      "chip": "ym2612"
    },
    {
      "channel": 1,
      "note": 77,
      "start": 57.0569,
      "duration": 0.1725,
      "velocity": 94,
      "chip": "ym2612"
    },
    {
      "channel": 2,
      "note": 77,
      "start": 57.1434,
      "duration": 0.1723,
      "velocity": 94,
      "chip": "ym2612"
    },
    {
      "channel": 0,
      "note": 76,
      "start": 57.2015,
      "duration": 0.1718,
      "velocity": 94,
      "chip": "ym2612"
    },
    {
      "channel": 3,
      "note": 76,
      "start": 57.202,
      "duration": 0.1715,
      "velocity": 94,
      "chip": "ym2612"
    },
    {
      "channel": 4,
      "note": 88,
      "start": 57.2025,
      "duration": 0.171,
      "velocity": 94,
      "chip": "ym2612"
    },
    {
      "channel": 5,
      "note": 64,
      "start": 57.203,
      "duration": 0.1706,
      "velocity": 94,
      "chip": "ym2612"
    },
    {
      "channel": 1,
      "note": 76,
      "start": 57.2298,
      "duration": 0.1724,
      "velocity": 94,
      "chip": "ym2612"
    },
    {
      "channel": 2,
      "note": 76,
      "start": 57.3162,
      "duration": 0.1724,
      "velocity": 94,
      "chip": "ym2612"
    },
    {
      "channel": 0,
      "note": 74,
      "start": 57.3742,
      "duration": 0.3448,
      "velocity": 94,
      "chip": "ym2612"
    },
    {
      "channel": 3,
      "note": 74,
      "start": 57.3746,
      "duration": 0.3444,
      "velocity": 94,
      "chip": "ym2612"
    },
    {
      "channel": 4,
      "note": 86,
      "start": 57.3751,
      "duration": 0.344,
      "velocity": 94,
      "chip": "ym2612"
    },
    {
      "channel": 5,
      "note": 62,
      "start": 57.3756,
      "duration": 0.3437,
      "velocity": 94,
      "chip": "ym2612"
    },
    {
      "channel": 1,
      "note": 74,
      "start": 57.4026,
      "duration": 0.3451,
      "velocity": 94,
      "chip": "ym2612"
    },
    {
      "channel": 2,
      "note": 74,
      "start": 57.489,
      "duration": 0.3451,
      "velocity": 94,
      "chip": "ym2612"
    },
    {
      "channel": 0,
      "note": 76,
      "start": 57.7197,
      "duration": 0.1577,
      "velocity": 94,
      "chip": "ym2612"
    },
    {
      "channel": 3,
      "note": 76,
      "start": 57.7201,
      "duration": 0.1573,
      "velocity": 94,
      "chip": "ym2612"
    },
    {
      "channel": 4,
      "note": 88,
      "start": 57.7206,
      "duration": 0.157,
      "velocity": 94,
      "chip": "ym2612"
    },
    {
      "channel": 5,
      "note": 64,
      "start": 57.721,
      "duration": 0.1566,
      "velocity": 94,
      "chip": "ym2612"
    },
    {
      "channel": 1,
      "note": 76,
      "start": 57.7482,
      "duration": 0.158,
      "velocity": 94,
      "chip": "ym2612"
    },
    {
      "channel": 2,
      "note": 76,
      "start": 57.8346,
      "duration": 0.1723,
      "velocity": 94,
      "chip": "ym2612"
    },
    {
      "channel": 0,
      "note": 77,
      "start": 57.8921,
      "duration": 0.1724,
      "velocity": 94,
      "chip": "ym2612"
    },
    {
      "channel": 3,
      "note": 77,
      "start": 57.8926,
      "duration": 0.1721,
      "velocity": 94,
      "chip": "ym2612"
    },
    {
      "channel": 4,
      "note": 89,
      "start": 57.893,
      "duration": 0.1717,
      "velocity": 94,
      "chip": "ym2612"
    },
    {
      "channel": 5,
      "note": 65,
      "start": 57.8935,
      "duration": 0.1714,
      "velocity": 94,
      "chip": "ym2612"
    },
    {
      "channel": 1,
      "note": 77,
      "start": 57.9209,
      "duration": 0.1724,
      "velocity": 94,
      "chip": "ym2612"
    },
    {
      "channel": 2,
      "note": 77,
      "start": 58.0074,
      "duration": 0.1724,
      "velocity": 94,
      "chip": "ym2612"
    },
    {
      "channel": 0,
      "note": 79,
      "start": 58.0653,
      "duration": 0.2297,
      "velocity": 94,
      "chip": "ym2612"
    },
    {
      "channel": 3,
      "note": 79,
      "start": 58.0657,
      "duration": 0.2293,
      "velocity": 94,
      "chip": "ym2612"
    },
    {
      "channel": 4,
      "note": 91,
      "start": 58.0662,
      "duration": 0.229,
      "velocity": 94,
      "chip": "ym2612"
    },
    {
      "channel": 5,
      "note": 67,
      "start": 58.0666,
      "duration": 0.2286,
      "velocity": 94,
      "chip": "ym2612"
    },
    {
      "channel": 1,
      "note": 79,
      "start": 58.0938,
      "duration": 0.23,
      "velocity": 94,
      "chip": "ym2612"
    },
    {
      "channel": 2,
      "note": 79,
      "start": 58.1803,
      "duration": 0.345,
      "velocity": 94,
      "chip": "ym2612"
    },
    {
      "channel": 0,
      "note": 72,
      "start": 58.4105,
      "duration": 0.3453,
      "velocity": 94,
      "chip": "ym2612"
    },
    {
      "channel": 3,
      "note": 72,
      "start": 58.411,
      "duration": 0.3449,
      "velocity": 94,
      "chip": "ym2612"
    },
    {
      "channel": 4,
      "note": 84,
      "start": 58.4117,
      "duration": 0.3443,
      "velocity": 94,
      "chip": "ym2612"
    },
    {
      "channel": 5,
      "note": 60,
      "start": 58.4122,
      "duration": 0.3438,
      "velocity": 94,
      "chip": "ym2612"
    },
    {
      "channel": 1,
      "note": 72,
      "start": 58.4393,
      "duration": 0.3453,
      "velocity": 94,
      "chip": "ym2612"
    },
    {
      "channel": 2,
      "note": 72,
      "start": 58.5258,
      "duration": 0.3451,
      "velocity": 94,
      "chip": "ym2612"
    },
    {
      "channel": 0,
      "note": 70,
      "start": 58.7565,
      "duration": 0.3305,
      "velocity": 94,
      "chip": "ym2612"
    },
    {
      "channel": 3,
      "note": 70,
      "start": 58.7569,
      "duration": 0.3301,
      "velocity": 94,
      "chip": "ym2612"
    },
    {
      "channel": 4,
      "note": 82,
      "start": 58.7574,
      "duration": 0.3298,
      "velocity": 94,
      "chip": "ym2612"
    },
    {
      "channel": 5,
      "note": 58,
      "start": 58.7578,
      "duration": 0.3294,
      "velocity": 94,
      "chip": "ym2612"
    },
    {
      "channel": 1,
      "note": 70,
      "start": 58.7851,
      "duration": 0.3307,
      "velocity": 94,
      "chip": "ym2612"
    },
    {
      "channel": 2,
      "note": 70,
      "start": 58.8716,
      "duration": 0.3449,
      "velocity": 94,
      "chip": "ym2612"
    },
    {
      "channel": 0,
      "note": 77,
      "start": 59.1019,
      "duration": 0.3307,
      "velocity": 94,
      "chip": "ym2612"
    },
    {
      "channel": 3,
      "note": 77,
      "start": 59.1023,
      "duration": 0.3303,
      "velocity": 94,
      "chip": "ym2612"
    },
    {
      "channel": 4,
      "note": 89,
      "start": 59.1028,
      "duration": 0.33,
      "velocity": 94,
      "chip": "ym2612"
    },
    {
      "channel": 5,
      "note": 65,
      "start": 59.1032,
      "duration": 0.3296,
      "velocity": 94,
      "chip": "ym2612"
    },
    {
      "channel": 1,
      "note": 77,
      "start": 59.1305,
      "duration": 0.331,
      "velocity": 94,
      "chip": "ym2612"
    },
    {
      "channel": 2,
      "note": 77,
      "start": 59.217,
      "duration": 0.3451,
      "velocity": 94,
      "chip": "ym2612"
    },
    {
      "channel": 0,
      "note": 76,
      "start": 59.4473,
      "duration": 0.1725,
      "velocity": 94,
      "chip": "ym2612"
    },
    {
      "channel": 3,
      "note": 76,
      "start": 59.4478,
      "duration": 0.1725,
      "velocity": 94,
      "chip": "ym2612"
    },
    {
      "channel": 4,
      "note": 88,
      "start": 59.4482,
      "duration": 0.1726,
      "velocity": 94,
      "chip": "ym2612"
    },
    {
      "channel": 5,
      "note": 64,
      "start": 59.4487,
      "duration": 0.1729,
      "velocity": 94,
      "chip": "ym2612"
    },
    {
      "channel": 1,
      "note": 76,
      "start": 59.4761,
      "duration": 0.1725,
      "velocity": 94,
      "chip": "ym2612"
    },
    {
      "channel": 2,
      "note": 76,
      "start": 59.5626,
      "duration": 0.1723,
      "velocity": 94,
      "chip": "ym2612"
    },
    {
      "channel": 0,
      "note": 77,
      "start": 59.6202,
      "duration": 0.086,
      "velocity": 94,
      "chip": "ym2612"
    },
    {
      "channel": 3,
      "note": 77,
      "start": 59.6207,
      "duration": 0.086,
      "velocity": 94,
      "chip": "ym2612"
    },
    {
      "channel": 4,
      "note": 89,
      "start": 59.6214,
      "duration": 0.0858,
      "velocity": 94,
      "chip": "ym2612"
    },
    {
      "channel": 5,
      "note": 65,
      "start": 59.622,
      "duration": 0.0857,
      "velocity": 94,
      "chip": "ym2612"
    },
    {
      "channel": 1,
      "note": 77,
      "start": 59.649,
      "duration": 0.0861,
      "velocity": 94,
      "chip": "ym2612"
    },
    {
      "channel": 0,
      "note": 76,
      "start": 59.7066,
      "duration": 0.0716,
      "velocity": 94,
      "chip": "ym2612"
    },
    {
      "channel": 3,
      "note": 76,
      "start": 59.7071,
      "duration": 0.0712,
      "velocity": 94,
      "chip": "ym2612"
    },
    {
      "channel": 4,
      "note": 88,
      "start": 59.7076,
      "duration": 0.0708,
      "velocity": 94,
      "chip": "ym2612"
    },
    {
      "channel": 5,
      "note": 64,
      "start": 59.7081,
      "duration": 0.0704,
      "velocity": 94,
      "chip": "ym2612"
    },
    {
      "channel": 1,
      "note": 76,
      "start": 59.7354,
      "duration": 0.0715,
      "velocity": 94,
      "chip": "ym2612"
    },
    {
      "channel": 2,
      "note": 77,
      "start": 59.7359,
      "duration": 0.0856,
      "velocity": 94,
      "chip": "ym2612"
    },
    {
      "channel": 0,
      "note": 72,
      "start": 59.7929,
      "duration": 0.3308,
      "velocity": 94,
      "chip": "ym2612"
    },
    {
      "channel": 3,
      "note": 72,
      "start": 59.7935,
      "duration": 0.3304,
      "velocity": 94,
      "chip": "ym2612"
    },
    {
      "channel": 4,
      "note": 84,
      "start": 59.7939,
      "duration": 0.33,
      "velocity": 94,
      "chip": "ym2612"
    },
    {
      "channel": 5,
      "note": 60,
      "start": 59.7944,
      "duration": 0.3297,
      "velocity": 94,
      "chip": "ym2612"
    },
    {
      "channel": 1,
      "note": 72,
      "start": 59.822,
      "duration": 0.3306,
      "velocity": 94,
      "chip": "ym2612"
    },
    {
      "channel": 2,
      "note": 76,
      "start": 59.8224,
      "duration": 0.0853,
      "velocity": 94,
      "chip": "ym2612"
    },
    {
      "channel": 2,
      "note": 72,
      "start": 59.9082,
      "duration": 0.3451,
      "velocity": 94,
      "chip": "ym2612"
    },
    {
      "channel": 0,
      "note": 70,
      "start": 60.1385,
      "duration": 0.1437,
      "velocity": 94,
      "chip": "ym2612"
    },
    {
      "channel": 3,
      "note": 70,
      "start": 60.139,
      "duration": 0.1433,
      "velocity": 94,
      "chip": "ym2612"
    },
    {
      "channel": 4,
      "note": 82,
      "start": 60.1394,
      "duration": 0.1429,
      "velocity": 94,
      "chip": "ym2612"
    },
    {
      "channel": 5,
      "note": 58,
      "start": 60.1399,
      "duration": 0.1426,
      "velocity": 94,
      "chip": "ym2612"
    },
    {
      "channel": 1,
      "note": 70,
      "start": 60.1673,
      "duration": 0.1437,
      "velocity": 94,
      "chip": "ym2612"
    },
    {
      "channel": 2,
      "note": 70,
      "start": 60.2538,
      "duration": 0.1724,
      "velocity": 94,
      "chip": "ym2612"
    },
    {
      "channel": 0,
      "note": 72,
      "start": 60.3116,
      "duration": 0.1721,
      "velocity": 94,
      "chip": "ym2612"
    },
    {
      "channel": 3,
      "note": 72,
      "start": 60.3121,
      "duration": 0.1717,
      "velocity": 94,
      "chip": "ym2612"
    },
    {
      "channel": 4,
      "note": 84,
      "start": 60.3125,
      "duration": 0.1714,
      "velocity": 94,
      "chip": "ym2612"
    },
    {
      "channel": 5,
      "note": 60,
      "start": 60.313,
      "duration": 0.171,
      "velocity": 94,
      "chip": "ym2612"
    },
    {
      "channel": 1,
      "note": 72,
      "start": 60.3401,
      "duration": 0.1724,
      "velocity": 94,
      "chip": "ym2612"
    },
    {
      "channel": 2,
      "note": 72,
      "start": 60.4266,
      "duration": 0.1724,
      "velocity": 94,
      "chip": "ym2612"
    },
    {
      "channel": 0,
      "note": 74,
      "start": 60.4845,
      "duration": 0.6041,
      "velocity": 94,
      "chip": "ym2612"
    },
    {
      "channel": 3,
      "note": 74,
      "start": 60.4849,
      "duration": 0.6037,
      "velocity": 94,
      "chip": "ym2612"
    },
    {
      "channel": 4,
      "note": 86,
      "start": 60.4854,
      "duration": 0.6033,
      "velocity": 94,
      "chip": "ym2612"
    },
    {
      "channel": 5,
      "note": 62,
      "start": 60.4859,
      "duration": 0.603,
      "velocity": 94,
      "chip": "ym2612"
    },
    {
      "channel": 1,
      "note": 74,
      "start": 60.513,
      "duration": 0.6044,
      "velocity": 94,
      "chip": "ym2612"
    },
    {
      "channel": 2,
      "note": 74,
      "start": 60.5995,
      "duration": 0.6907,
      "velocity": 94,
      "chip": "ym2612"
    },
    {
      "channel": 0,
      "note": 74,
      "start": 61.1753,
      "duration": 0.1725,
      "velocity": 94,
      "chip": "ym2612"
    },
    {
      "channel": 3,
      "note": 74,
      "start": 61.1758,
      "duration": 0.1725,
      "velocity": 94,
      "chip": "ym2612"
    },
    {
      "channel": 4,
      "note": 86,
      "start": 61.1762,
      "duration": 0.1726,
      "velocity": 94,
      "chip": "ym2612"
    },
    {
      "channel": 5,
      "note": 62,
      "start": 61.1767,
      "duration": 0.1727,
      "velocity": 94,
      "chip": "ym2612"
    },
    {
      "channel": 1,
      "note": 74,
      "start": 61.2041,
      "duration": 0.1725,
      "velocity": 94,
      "chip": "ym2612"
    },
    {
      "channel": 2,
      "note": 74,
      "start": 61.2906,
      "duration": 0.1724,
      "velocity": 94,
      "chip": "ym2612"
    },
    {
      "channel": 0,
      "note": 76,
      "start": 61.3482,
      "duration": 0.1724,
      "velocity": 94,
      "chip": "ym2612"
    },
    {
      "channel": 3,
      "note": 76,
      "start": 61.3487,
      "duration": 0.1727,
      "velocity": 94,
      "chip": "ym2612"
    },
    {
      "channel": 4,
      "note": 88,
      "start": 61.3492,
      "duration": 0.1727,
      "velocity": 94,
      "chip": "ym2612"
    },
    {
      "channel": 5,
      "note": 64,
      "start": 61.3497,
      "duration": 0.1727,
      "velocity": 94,
      "chip": "ym2612"
    },
    {
      "channel": 1,
      "note": 76,
      "start": 61.377,
      "duration": 0.1724,
      "velocity": 94,
      "chip": "ym2612"
    },
    {
      "channel": 2,
      "note": 76,
      "start": 61.4634,
      "duration": 0.1724,
      "velocity": 94,
      "chip": "ym2612"
    },
    {
      "channel": 0,
      "note": 74,
      "start": 61.521,
      "duration": 0.3164,
      "velocity": 94,
      "chip": "ym2612"
    },
    {
      "channel": 3,
      "note": 74,
      "start": 61.5217,
      "duration": 0.3157,
      "velocity": 94,
      "chip": "ym2612"
    },
    {
      "channel": 4,
      "note": 86,
      "start": 61.5222,
      "duration": 0.3154,
      "velocity": 94,
      "chip": "ym2612"
    },
    {
      "channel": 5,
      "note": 62,
      "start": 61.5227,
      "duration": 0.3149,
      "velocity": 94,
      "chip": "ym2612"
    },
    {
      "channel": 1,
      "note": 74,
      "start": 61.5498,
      "duration": 0.3164,
      "velocity": 94,
      "chip": "ym2612"
    },
    {
      "channel": 2,
      "note": 74,
      "start": 61.6362,
      "duration": 0.3453,
      "velocity": 94,
      "chip": "ym2612"
    },
    {
      "channel": 0,
      "note": 74,
      "start": 61.8666,
      "duration": 0.1724,
      "velocity": 94,
      "chip": "ym2612"
    },
    {
      "channel": 3,
      "note": 74,
      "start": 61.8671,
      "duration": 0.1724,
      "velocity": 94,
      "chip": "ym2612"
    },
    {
      "channel": 4,
      "note": 86,
      "start": 61.8675,
      "duration": 0.1725,
      "velocity": 94,
      "chip": "ym2612"
    },
    {
      "channel": 5,
      "note": 62,
      "start": 61.868,
      "duration": 0.1726,
      "velocity": 94,
      "chip": "ym2612"
    },
    {
      "channel": 1,
      "note": 74,
      "start": 61.8953,
      "duration": 0.1725,
      "velocity": 94,
      "chip": "ym2612"
    },
    {
      "channel": 2,
      "note": 74,
      "start": 61.982,
      "duration": 0.1722,
      "velocity": 94,
      "chip": "ym2612"
    },
    {
      "channel": 0,
      "note": 76,
      "start": 62.0394,
      "duration": 0.1724,
      "velocity": 94,
      "chip": "ym2612"
    },
    {
      "channel": 3,
      "note": 76,
      "start": 62.0399,
      "duration": 0.1725,
      "velocity": 94,
      "chip": "ym2612"
    },
    {
      "channel": 4,
      "note": 88,
      "start": 62.0404,
      "duration": 0.1725,
      "velocity": 94,
      "chip": "ym2612"
    },
    {
      "channel": 5,
      "note": 64,
      "start": 62.041,
      "duration": 0.1724,
      "velocity": 94,
      "chip": "ym2612"
    },
    {
      "channel": 1,
      "note": 76,
      "start": 62.0682,
      "duration": 0.1724,
      "velocity": 94,
      "chip": "ym2612"
    },
    {
      "channel": 2,
      "note": 76,
      "start": 62.1546,
      "duration": 0.1724,
      "velocity": 94,
      "chip": "ym2612"
    },
    {
      "channel": 0,
      "note": 74,
      "start": 62.2123,
      "duration": 0.3163,
      "velocity": 94,
      "chip": "ym2612"
    },
    {
      "channel": 3,
      "note": 74,
      "start": 62.2128,
      "duration": 0.3159,
      "velocity": 94,
      "chip": "ym2612"
    },
    {
      "channel": 4,
      "note": 86,
      "start": 62.2133,
      "duration": 0.3155,
      "velocity": 94,
      "chip": "ym2612"
    },
    {
      "channel": 5,
      "note": 62,
      "start": 62.2138,
      "duration": 0.3151,
      "velocity": 94,
      "chip": "ym2612"
    },
    {
      "channel": 1,
      "note": 74,
      "start": 62.241,
      "duration": 0.3164,
      "velocity": 94,
      "chip": "ym2612"
    },
    {
      "channel": 2,
      "note": 74,
      "start": 62.3274,
      "duration": 0.3451,
      "velocity": 94,
      "chip": "ym2612"
    },
    {
      "channel": 0,
      "note": 77,
      "start": 62.5578,
      "duration": 0.3451,
      "velocity": 94,
      "chip": "ym2612"
    },
    {
      "channel": 3,
      "note": 77,
      "start": 62.5583,
      "duration": 0.3448,
      "velocity": 94,
      "chip": "ym2612"
    },
    {
      "channel": 4,
      "note": 89,
      "start": 62.5587,
      "duration": 0.3444,
      "velocity": 94,
      "chip": "ym2612"
    },
    {
      "channel": 5,
      "note": 65,
      "start": 62.5592,
      "duration": 0.3441,
      "velocity": 94,
      "chip": "ym2612"
    },
    {
      "channel": 1,
      "note": 77,
      "start": 62.5865,
      "duration": 0.3453,
      "velocity": 94,
      "chip": "ym2612"
    },
    {
      "channel": 2,
      "note": 77,
      "start": 62.673,
      "duration": 0.3451,
      "velocity": 94,
      "chip": "ym2612"
    },
    {
      "channel": 0,
      "note": 76,
      "start": 62.9037,
      "duration": 0.3449,
      "velocity": 94,
      "chip": "ym2612"
    },
    {
      "channel": 3,
      "note": 76,
      "start": 62.9041,
      "duration": 0.3445,
      "velocity": 94,
      "chip": "ym2612"
    },
    {
      "channel": 4,
      "note": 88,
      "start": 62.9046,
      "duration": 0.3442,
      "velocity": 94,
      "chip": "ym2612"
    },
    {
      "channel": 5,
      "note": 64,
      "start": 62.9051,
      "duration": 0.3438,
      "velocity": 94,
      "chip": "ym2612"
    },
    {
      "channel": 1,
      "note": 76,
      "start": 62.9322,
      "duration": 0.3451,
      "velocity": 94,
      "chip": "ym2612"
    },
    {
      "channel": 2,
      "note": 76,
      "start": 63.0187,
      "duration": 0.345,
      "velocity": 94,
      "chip": "ym2612"
    },
    {
      "channel": 0,
      "note": 72,
      "start": 63.2493,
      "duration": 0.3017,
      "velocity": 94,
      "chip": "ym2612"
    },
    {
      "channel": 3,
      "note": 72,
      "start": 63.2497,
      "duration": 0.3013,
      "velocity": 94,
      "chip": "ym2612"
    },
    {
      "channel": 4,
      "note": 84,
      "start": 63.2502,
      "duration": 0.3012,
      "velocity": 94,
      "chip": "ym2612"
    },
    {
      "channel": 5,
      "note": 60,
      "start": 63.2507,
      "duration": 0.3007,
      "velocity": 94,
      "chip": "ym2612"
    },
    {
      "channel": 1,
      "note": 72,
      "start": 63.2778,
      "duration": 0.302,
      "velocity": 94,
      "chip": "ym2612"
    },
    {
      "channel": 2,
      "note": 72,
      "start": 63.3642,
      "duration": 0.3451,
      "velocity": 94,
      "chip": "ym2612"
    },
    {
      "channel": 0,
      "note": 70,
      "start": 63.5945,
      "duration": 0.1437,
      "velocity": 94,
      "chip": "ym2612"
    },
    {
      "channel": 3,
      "note": 70,
      "start": 63.5949,
      "duration": 0.1433,
      "velocity": 94,
      "chip": "ym2612"
    },
    {
      "channel": 4,
      "note": 82,
      "start": 63.5954,
      "duration": 0.1429,
      "velocity": 94,
      "chip": "ym2612"
    },
    {
      "channel": 5,
      "note": 58,
      "start": 63.5959,
      "duration": 0.1426,
      "velocity": 94,
      "chip": "ym2612"
    },
    {
      "channel": 1,
      "note": 70,
      "start": 63.6233,
      "duration": 0.1437,
      "velocity": 94,
      "chip": "ym2612"
    },
    {
      "channel": 2,
      "note": 70,
      "start": 63.7098,
      "duration": 0.1436,
      "velocity": 94,
      "chip": "ym2612"
    },
    {
      "channel": 0,
      "note": 72,
      "start": 63.7674,
      "duration": 0.158,
      "velocity": 94,
      "chip": "ym2612"
    },
    {
      "channel": 3,
      "note": 72,
      "start": 63.7678,
      "duration": 0.1576,
      "velocity": 94,
      "chip": "ym2612"
    },
    {
      "channel": 4,
      "note": 84,
      "start": 63.7683,
      "duration": 0.1572,
      "velocity": 94,
      "chip": "ym2612"
    },
    {
      "channel": 5,
      "note": 60,
      "start": 63.7688,
      "duration": 0.1569,
      "velocity": 94,
      "chip": "ym2612"
    },
    {
      "channel": 1,
      "note": 72,
      "start": 63.7961,
      "duration": 0.158,
      "velocity": 94,
      "chip": "ym2612"
    },
    {
      "channel": 2,
      "note": 72,
      "start": 63.8825,
      "duration": 0.158,
      "velocity": 94,
      "chip": "ym2612"
    },
    {
      "channel": 0,
      "note": 74,
      "start": 63.9401,
      "duration": 0.3453,
      "velocity": 94,
      "chip": "ym2612"
    },
    {
      "channel": 3,
      "note": 74,
      "start": 63.9405,
      "duration": 0.3449,
      "velocity": 94,
      "chip": "ym2612"
    },
    {
      "channel": 4,
      "note": 86,
      "start": 63.941,
      "duration": 0.3445,
      "velocity": 94,
      "chip": "ym2612"
    },
    {
      "channel": 5,
      "note": 62,
      "start": 63.9417,
      "duration": 0.3439,
      "velocity": 94,
      "chip": "ym2612"
    },
    {
      "channel": 1,
      "note": 74,
      "start": 63.9689,
      "duration": 0.3452,
      "velocity": 94,
      "chip": "ym2612"
    },
    {
      "channel": 2,
      "note": 74,
      "start": 64.0553,
      "duration": 0.3452,
      "velocity": 94,
      "chip": "ym2612"
    },
    {
      "channel": 0,
      "note": 72,
      "start": 64.2861,
      "duration": 2.1593,
      "velocity": 94,
      "chip": "ym2612"
    },
    {
      "channel": 3,
      "note": 72,
      "start": 64.2865,
      "duration": 1.3813,
      "velocity": 94,
      "chip": "ym2612"
    },
    {
      "channel": 4,
      "note": 84,
      "start": 64.287,
      "duration": 1.3814,
      "velocity": 94,
      "chip": "ym2612"
    },
    {
      "channel": 5,
      "note": 60,
      "start": 64.2874,
      "duration": 0.6891,
      "velocity": 94,
      "chip": "ym2612"
    },
    {
      "channel": 1,
      "note": 72,
      "start": 64.3146,
      "duration": 2.1595,
      "velocity": 94,
      "chip": "ym2612"
    },
    {
      "channel": 2,
      "note": 72,
      "start": 64.401,
      "duration": 2.1595,
      "velocity": 94,
      "chip": "ym2612"
    },
    {
      "channel": 5,
      "note": 60,
      "start": 64.977,
      "duration": 0.6907,
      "velocity": 94,
      "chip": "ym2612"
    },
    {
      "channel": 3,
      "note": 79,
      "start": 65.6683,
      "duration": 5.3275,
      "velocity": 94,
      "chip": "ym2612"
    },
    {
      "channel": 4,
      "note": 72,
      "start": 65.6688,
      "duration": 5.3271,
      "velocity": 94,
      "chip": "ym2612"
    },
    {
      "channel": 5,
      "note": 48,
      "start": 66.3601,
      "duration": 0.0996,
      "velocity": 23,
      "chip": "ym2612"
    },
    {
      "channel": 5,
      "note": 72,
      "start": 67.0505,
      "duration": 0.0861,
      "velocity": 23,
      "chip": "ym2612"
    },
    {
      "channel": 5,
      "note": 67,
      "start": 67.3961,
      "duration": 0.0861,
      "velocity": 23,
      "chip": "ym2612"
    },
    {
      "channel": 5,
      "note": 55,
      "start": 68.0873,
      "duration": 0.1149,
      "velocity": 23,
      "chip": "ym2612"
    },
    {
      "channel": 5,
      "note": 65,
      "start": 68.4329,
      "duration": 0.1149,
      "velocity": 23,
      "chip": "ym2612"
    },
    {
      "channel": 5,
      "note": 67,
      "start": 68.6057,
      "duration": 0.1005,
      "velocity": 23,
      "chip": "ym2612"
    },
    {
      "channel": 5,
      "note": 70,
      "start": 68.7785,
      "duration": 0.1149,
      "velocity": 23,
      "chip": "ym2612"
    },
    {
      "channel": 5,
      "note": 48,
      "start": 69.1241,
      "duration": 0.1004,
      "velocity": 23,
      "chip": "ym2612"
    },
    {
      "channel": 5,
      "note": 72,
      "start": 69.8153,
      "duration": 0.1004,
      "velocity": 23,
      "chip": "ym2612"
    },
    {
      "channel": 5,
      "note": 67,
      "start": 70.1609,
      "duration": 0.1006,
      "velocity": 23,
      "chip": "ym2612"
    },
    {
      "channel": 5,
      "note": 55,
      "start": 70.8521,
      "duration": 0.1004,
      "velocity": 23,
      "chip": "ym2612"
    },
    {
      "channel": 5,
      "note": 65,
      "start": 71.1977,
      "duration": 0.1005,
      "velocity": 23,
      "chip": "ym2612"
    },
    {
      "channel": 5,
      "note": 67,
      "start": 71.3705,
      "duration": 0.1005,
      "velocity": 23,
      "chip": "ym2612"
    },
    {
      "channel": 5,
      "note": 70,
      "start": 71.5433,
      "duration": 0.1149,
      "velocity": 23,
      "chip": "ym2612"
    },
    {
      "channel": 0,
      "note": 72,
      "start": 71.8901,
      "duration": 0.1137,
      "velocity": 94,
      "chip": "ym2612"
    },
    {
      "channel": 3,
      "note": 72,
      "start": 71.8944,
      "duration": 0.0807,
      "velocity": 94,
      "chip": "ym2612"
    },
    {
      "channel": 4,
      "note": 67,
      "start": 71.8961,
      "duration": 0.0795,
      "velocity": 94,
      "chip": "ym2612"
    },
    {
      "channel": 5,
      "note": 48,
      "start": 71.8976,
      "duration": 0.0773,
      "velocity": 23,
      "chip": "ym2612"
    },
    {
      "channel": 1,
      "note": 72,
      "start": 71.9177,
      "duration": 0.0861,
      "velocity": 94,
      "chip": "ym2612"
    },
    {
      "channel": 3,
      "note": 79,
      "start": 71.9754,
      "duration": 0.0283,
      "velocity": 94,
      "chip": "ym2612"
    },
    {
      "channel": 4,
      "note": 72,
      "start": 71.9759,
      "duration": 0.0278,
      "velocity": 94,
      "chip": "ym2612"
    }
  ]
}