{
  "track_name": "11 - Dungeon",
  "duration_sec": 60.431,
  "sample_rate": 44100,
  "note_count": 857,
  "unique_pitches": 45,
  "pitch_range": 54,
  "avg_note_duration": 0.2145,
  "reconstruction_stats": {
    "notes_reconstructed": 857,
    "keyon_events": 857,
    "keyoff_events": 855,
    "orphan_keyons": 2,
    "unique_pitches": 45,
    "pitch_range": 54,
    "avg_duration_sec": 0.2145
  },
  "metadata": {
    "source": "S\\Sword of Vermilion\\11 - Dungeon.vgz"
  },
  "notes": [
    {
      "channel": 0,
      "note": 61,
      "start": 0.0049,
      "duration": 0.042,
      "velocity": 103,
      "chip": "ym2612"
    },
    {
      "channel": 2,
      "note": 49,
      "start": 0.0068,
      "duration": 0.0405,
      "velocity": 103,
      "chip": "ym2612"
    },
    {
      "channel": 3,
      "note": 61,
      "start": 0.0085,
      "duration": 0.3719,
      "velocity": 91,
      "chip": "ym2612"
    },
    {
      "channel": 0,
      "note": 61,
      "start": 0.0471,
      "duration": 0.2165,
      "velocity": 103,
      "chip": "ym2612"
    },
    {
      "channel": 2,
      "note": 49,
      "start": 0.0475,
      "duration": 0.2165,
      "velocity": 103,
      "chip": "ym2612"
    },
    {
      "channel": 0,
      "note": 68,
      "start": 0.2638,
      "duration": 0.2332,
      "velocity": 103,
      "chip": "ym2612"
    },
    {
      "channel": 2,
      "note": 56,
      "start": 0.2641,
      "duration": 0.2332,
      "velocity": 103,
      "chip": "ym2612"
    },
    {
      "channel": 0,
      "note": 68,
      "start": 0.4971,
      "duration": 0.2165,
      "velocity": 103,
      "chip": "ym2612"
    },
    {
      "channel": 2,
      "note": 56,
      "start": 0.4975,
      "duration": 0.2165,
      "velocity": 103,
      "chip": "ym2612"
    },
    {
      "channel": 3,
      "note": 68,
      "start": 0.4978,
      "duration": 0.384,
      "velocity": 91,
      "chip": "ym2612"
    },
    {
      "channel": 0,
      "note": 67,
      "start": 0.7138,
      "duration": 0.0512,
      "velocity": 103,
      "chip": "ym2612"
    },
    {
      "channel": 2,
      "note": 55,
      "start": 0.7141,
      "duration": 0.0512,
      "velocity": 103,
      "chip": "ym2612"
    },
    {
      "channel": 0,
      "note": 67,
      "start": 0.7651,
      "duration": 0.2332,
      "velocity": 103,
      "chip": "ym2612"
    },
    {
      "channel": 2,
      "note": 55,
      "start": 0.7655,
      "duration": 0.2332,
      "velocity": 103,
      "chip": "ym2612"
    },
    {
      "channel": 0,
      "note": 63,
      "start": 0.9985,
      "duration": 0.2165,
      "velocity": 103,
      "chip": "ym2612"
    },
    {
      "channel": 2,
      "note": 51,
      "start": 0.9988,
      "duration": 0.2165,
      "velocity": 103,
      "chip": "ym2612"
    },
    {
      "channel": 3,
      "note": 67,
      "start": 0.9992,
      "duration": 0.2164,
      "velocity": 91,
      "chip": "ym2612"
    },
    {
      "channel": 0,
      "note": 63,
      "start": 1.2151,
      "duration": 0.2165,
      "velocity": 103,
      "chip": "ym2612"
    },
    {
      "channel": 2,
      "note": 51,
      "start": 1.2155,
      "duration": 0.2165,
      "velocity": 103,
      "chip": "ym2612"
    },
    {
      "channel": 3,
      "note": 66,
      "start": 1.2158,
      "duration": 0.2846,
      "velocity": 91,
      "chip": "ym2612"
    },
    {
      "channel": 0,
      "note": 66,
      "start": 1.4318,
      "duration": 0.0678,
      "velocity": 103,
      "chip": "ym2612"
    },
    {
      "channel": 2,
      "note": 54,
      "start": 1.4321,
      "duration": 0.0678,
      "velocity": 103,
      "chip": "ym2612"
    },
    {
      "channel": 0,
      "note": 66,
      "start": 1.4998,
      "duration": 0.2165,
      "velocity": 103,
      "chip": "ym2612"
    },
    {
      "channel": 2,
      "note": 54,
      "start": 1.5001,
      "duration": 0.2165,
      "velocity": 103,
      "chip": "ym2612"
    },
    {
      "channel": 3,
      "note": 71,
      "start": 1.5005,
      "duration": 0.3326,
      "velocity": 91,
      "chip": "ym2612"
    },
    {
      "channel": 0,
      "note": 62,
      "start": 1.7165,
      "duration": 0.2165,
      "velocity": 103,
      "chip": "ym2612"
    },
    {
      "channel": 2,
      "note": 50,
      "start": 1.7168,
      "duration": 0.2165,
      "velocity": 103,
      "chip": "ym2612"
    },
    {
      "channel": 0,
      "note": 62,
      "start": 1.9332,
      "duration": 0.2332,
      "velocity": 103,
      "chip": "ym2612"
    },
    {
      "channel": 2,
      "note": 50,
      "start": 1.9335,
      "duration": 0.2332,
      "velocity": 103,
      "chip": "ym2612"
    },
    {
      "channel": 3,
      "note": 70,
      "start": 1.9338,
      "duration": 0.2335,
      "velocity": 91,
      "chip": "ym2612"
    },
    {
      "channel": 0,
      "note": 65,
      "start": 2.1665,
      "duration": 0.0513,
      "velocity": 103,
      "chip": "ym2612"
    },
    {
      "channel": 2,
      "note": 53,
      "start": 2.1668,
      "duration": 0.0513,
      "velocity": 103,
      "chip": "ym2612"
    },
    {
      "channel": 0,
      "note": 65,
      "start": 2.218,
      "duration": 0.2165,
      "velocity": 103,
      "chip": "ym2612"
    },
    {
      "channel": 2,
      "note": 53,
      "start": 2.2183,
      "duration": 0.2165,
      "velocity": 103,
      "chip": "ym2612"
    },
    {
      "channel": 3,
      "note": 67,
      "start": 2.2186,
      "duration": 0.2165,
      "velocity": 91,
      "chip": "ym2612"
    },
    {
      "channel": 0,
      "note": 60,
      "start": 2.4346,
      "duration": 0.2332,
      "velocity": 103,
      "chip": "ym2612"
    },
    {
      "channel": 2,
      "note": 48,
      "start": 2.4349,
      "duration": 0.2332,
      "velocity": 103,
      "chip": "ym2612"
    },
    {
      "channel": 3,
      "note": 68,
      "start": 2.4353,
      "duration": 0.2332,
      "velocity": 91,
      "chip": "ym2612"
    },
    {
      "channel": 0,
      "note": 60,
      "start": 2.668,
      "duration": 0.2166,
      "velocity": 103,
      "chip": "ym2612"
    },
    {
      "channel": 2,
      "note": 48,
      "start": 2.6683,
      "duration": 0.2183,
      "velocity": 103,
      "chip": "ym2612"
    },
    {
      "channel": 3,
      "note": 72,
      "start": 2.6687,
      "duration": 0.2182,
      "velocity": 91,
      "chip": "ym2612"
    },
    {
      "channel": 0,
      "note": 61,
      "start": 2.8848,
      "duration": 0.051,
      "velocity": 103,
      "chip": "ym2612"
    },
    {
      "channel": 2,
      "note": 49,
      "start": 2.8867,
      "duration": 0.0494,
      "velocity": 103,
      "chip": "ym2612"
    },
    {
      "channel": 3,
      "note": 73,
      "start": 2.8871,
      "duration": 0.0493,
      "velocity": 91,
      "chip": "ym2612"
    },
    {
      "channel": 0,
      "note": 61,
      "start": 2.9359,
      "duration": 0.2332,
      "velocity": 103,
      "chip": "ym2612"
    },
    {
      "channel": 2,
      "note": 49,
      "start": 2.9363,
      "duration": 0.2332,
      "velocity": 103,
      "chip": "ym2612"
    },
    {
      "channel": 3,
      "note": 76,
      "start": 2.9366,
      "duration": 0.2332,
      "velocity": 91,
      "chip": "ym2612"
    },
    {
      "channel": 0,
      "note": 68,
      "start": 3.1693,
      "duration": 0.2165,
      "velocity": 103,
      "chip": "ym2612"
    },
    {
      "channel": 2,
      "note": 56,
      "start": 3.1696,
      "duration": 0.2165,
      "velocity": 103,
      "chip": "ym2612"
    },
    {
      "channel": 3,
      "note": 75,
      "start": 3.1699,
      "duration": 0.2165,
      "velocity": 91,
      "chip": "ym2612"
    },
    {
      "channel": 0,
      "note": 68,
      "start": 3.3859,
      "duration": 0.2165,
      "velocity": 103,
      "chip": "ym2612"
    },
    {
      "channel": 2,
      "note": 56,
      "start": 3.3863,
      "duration": 0.2165,
      "velocity": 103,
      "chip": "ym2612"
    },
    {
      "channel": 3,
      "note": 66,
      "start": 3.3866,
      "duration": 0.2168,
      "velocity": 91,
      "chip": "ym2612"
    },
    {
      "channel": 0,
      "note": 67,
      "start": 3.6026,
      "duration": 0.0678,
      "velocity": 103,
      "chip": "ym2612"
    },
    {
      "channel": 2,
      "note": 55,
      "start": 3.6029,
      "duration": 0.0678,
      "velocity": 103,
      "chip": "ym2612"
    },
    {
      "channel": 0,
      "note": 67,
      "start": 3.6706,
      "duration": 0.2165,
      "velocity": 103,
      "chip": "ym2612"
    },
    {
      "channel": 2,
      "note": 55,
      "start": 3.671,
      "duration": 0.2165,
      "velocity": 103,
      "chip": "ym2612"
    },
    {
      "channel": 3,
      "note": 67,
      "start": 3.6713,
      "duration": 0.3326,
      "velocity": 91,
      "chip": "ym2612"
    },
    {
      "channel": 0,
      "note": 63,
      "start": 3.8873,
      "duration": 0.2165,
      "velocity": 103,
      "chip": "ym2612"
    },
    {
      "channel": 2,
      "note": 51,
      "start": 3.8876,
      "duration": 0.2165,
      "velocity": 103,
      "chip": "ym2612"
    },
    {
      "channel": 0,
      "note": 63,
      "start": 4.104,
      "duration": 0.2332,
      "velocity": 103,
      "chip": "ym2612"
    },
    {
      "channel": 2,
      "note": 51,
      "start": 4.1043,
      "duration": 0.2332,
      "velocity": 103,
      "chip": "ym2612"
    },
    {
      "channel": 3,
      "note": 68,
      "start": 4.1046,
      "duration": 0.2845,
      "velocity": 91,
      "chip": "ym2612"
    },
    {
      "channel": 0,
      "note": 66,
      "start": 4.3373,
      "duration": 0.0512,
      "velocity": 103,
      "chip": "ym2612"
    },
    {
      "channel": 2,
      "note": 54,
      "start": 4.3376,
      "duration": 0.0512,
      "velocity": 103,
      "chip": "ym2612"
    },
    {
      "channel": 0,
      "note": 66,
      "start": 4.3886,
      "duration": 0.2165,
      "velocity": 103,
      "chip": "ym2612"
    },
    {
      "channel": 2,
      "note": 54,
      "start": 4.389,
      "duration": 0.2165,
      "velocity": 103,
      "chip": "ym2612"
    },
    {
      "channel": 3,
      "note": 63,
      "start": 4.3893,
      "duration": 0.2166,
      "velocity": 91,
      "chip": "ym2612"
    },
    {
      "channel": 0,
      "note": 62,
      "start": 4.6053,
      "duration": 0.2332,
      "velocity": 103,
      "chip": "ym2612"
    },
    {
      "channel": 2,
      "note": 50,
      "start": 4.6056,
      "duration": 0.2332,
      "velocity": 103,
      "chip": "ym2612"
    },
    {
      "channel": 3,
      "note": 64,
      "start": 4.606,
      "duration": 0.2331,
      "velocity": 91,
      "chip": "ym2612"
    },
    {
      "channel": 0,
      "note": 62,
      "start": 4.8386,
      "duration": 0.2165,
      "velocity": 103,
      "chip": "ym2612"
    },
    {
      "channel": 2,
      "note": 50,
      "start": 4.839,
      "duration": 0.2165,
      "velocity": 103,
      "chip": "ym2612"
    },
    {
      "channel": 3,
      "note": 65,
      "start": 4.8393,
      "duration": 0.0993,
      "velocity": 91,
      "chip": "ym2612"
    },
    {
      "channel": 3,
      "note": 66,
      "start": 4.9388,
      "duration": 0.117,
      "velocity": 91,
      "chip": "ym2612"
    },
    {
      "channel": 0,
      "note": 65,
      "start": 5.0553,
      "duration": 0.0511,
      "velocity": 103,
      "chip": "ym2612"
    },
    {
      "channel": 2,
      "note": 53,
      "start": 5.0556,
      "duration": 0.0511,
      "velocity": 103,
      "chip": "ym2612"
    },
    {
      "channel": 3,
      "note": 67,
      "start": 5.0559,
      "duration": 0.0512,
      "velocity": 91,
      "chip": "ym2612"
    },
    {
      "channel": 0,
      "note": 65,
      "start": 5.1066,
      "duration": 0.2332,
      "velocity": 103,
      "chip": "ym2612"
    },
    {
      "channel": 2,
      "note": 53,
      "start": 5.1069,
      "duration": 0.2332,
      "velocity": 103,
      "chip": "ym2612"
    },
    {
      "channel": 3,
      "note": 68,
      "start": 5.1073,
      "duration": 0.2331,
      "velocity": 91,
      "chip": "ym2612"
    },
    {
      "channel": 0,
      "note": 60,
      "start": 5.34,
      "duration": 0.2165,
      "velocity": 103,
      "chip": "ym2612"
    },
    {
      "channel": 2,
      "note": 48,
      "start": 5.3403,
      "duration": 0.2168,
      "velocity": 103,
      "chip": "ym2612"
    },
    {
      "channel": 3,
      "note": 67,
      "start": 5.3406,
      "duration": 0.2167,
      "velocity": 91,
      "chip": "ym2612"
    },
    {
      "channel": 0,
      "note": 60,
      "start": 5.5566,
      "duration": 0.2166,
      "velocity": 103,
      "chip": "ym2612"
    },
    {
      "channel": 1,
      "note": 72,
      "start": 5.5569,
      "duration": 0.1162,
      "velocity": 103,
      "chip": "ym2612"
    },
    {
      "channel": 2,
      "note": 48,
      "start": 5.5573,
      "duration": 0.2167,
      "velocity": 103,
      "chip": "ym2612"
    },
    {
      "channel": 3,
      "note": 60,
      "start": 5.5575,
      "duration": 0.2168,
      "velocity": 91,
      "chip": "ym2612"
    },
    {
      "channel": 1,
      "note": 73,
      "start": 5.6734,
      "duration": 0.1002,
      "velocity": 103,
      "chip": "ym2612"
    },
    {
      "channel": 0,
      "note": 61,
      "start": 5.7734,
      "duration": 0.0698,
      "velocity": 103,
      "chip": "ym2612"
    },
    {
      "channel": 1,
      "note": 80,
      "start": 5.7737,
      "duration": 0.0698,
      "velocity": 103,
      "chip": "ym2612"
    },
    {
      "channel": 2,
      "note": 49,
      "start": 5.7741,
      "duration": 0.0698,
      "velocity": 103,
      "chip": "ym2612"
    },
    {
      "channel": 3,
      "note": 61,
      "start": 5.7746,
      "duration": 0.4021,
      "velocity": 91,
      "chip": "ym2612"
    },
    {
      "channel": 4,
      "note": 72,
      "start": 5.7749,
      "duration": 0.002,
      "velocity": 103,
      "chip": "ym2612"
    },
    {
      "channel": 4,
      "note": 73,
      "start": 5.7772,
      "duration": 0.067,
      "velocity": 103,
      "chip": "ym2612"
    },
    {
      "channel": 0,
      "note": 61,
      "start": 5.8434,
      "duration": 0.2165,
      "velocity": 103,
      "chip": "ym2612"
    },
    {
      "channel": 1,
      "note": 79,
      "start": 5.8437,
      "duration": 0.2165,
      "velocity": 103,
      "chip": "ym2612"
    },
    {
      "channel": 2,
      "note": 49,
      "start": 5.8441,
      "duration": 0.2163,
      "velocity": 103,
      "chip": "ym2612"
    },
    {
      "channel": 4,
      "note": 80,
      "start": 5.8444,
      "duration": 0.2163,
      "velocity": 103,
      "chip": "ym2612"
    },
    {
      "channel": 0,
      "note": 68,
      "start": 6.0601,
      "duration": 0.2165,
      "velocity": 103,
      "chip": "ym2612"
    },
    {
      "channel": 2,
      "note": 56,
      "start": 6.0605,
      "duration": 0.2167,
      "velocity": 103,
      "chip": "ym2612"
    },
    {
      "channel": 4,
      "note": 79,
      "start": 6.0609,
      "duration": 0.2168,
      "velocity": 103,
      "chip": "ym2612"
    },
    {
      "channel": 0,
      "note": 68,
      "start": 6.2768,
      "duration": 0.2332,
      "velocity": 103,
      "chip": "ym2612"
    },
    {
      "channel": 1,
      "note": 78,
      "start": 6.2771,
      "duration": 0.2332,
      "velocity": 103,
      "chip": "ym2612"
    },
    {
      "channel": 2,
      "note": 56,
      "start": 6.2774,
      "duration": 0.233,
      "velocity": 103,
      "chip": "ym2612"
    },
    {
      "channel": 3,
      "note": 68,
      "start": 6.2777,
      "duration": 0.4018,
      "velocity": 91,
      "chip": "ym2612"
    },
    {
      "channel": 0,
      "note": 67,
      "start": 6.5101,
      "duration": 0.0524,
      "velocity": 103,
      "chip": "ym2612"
    },
    {
      "channel": 2,
      "note": 55,
      "start": 6.5105,
      "duration": 0.0526,
      "velocity": 103,
      "chip": "ym2612"
    },
    {
      "channel": 4,
      "note": 78,
      "start": 6.5109,
      "duration": 0.0525,
      "velocity": 103,
      "chip": "ym2612"
    },
    {
      "channel": 0,
      "note": 67,
      "start": 6.5627,
      "duration": 0.2165,
      "velocity": 103,
      "chip": "ym2612"
    },
    {
      "channel": 1,
      "note": 75,
      "start": 6.563,
      "duration": 0.2165,
      "velocity": 103,
      "chip": "ym2612"
    },
    {
      "channel": 2,
      "note": 55,
      "start": 6.5633,
      "duration": 0.2163,
      "velocity": 103,
      "chip": "ym2612"
    },
    {
      "channel": 0,
      "note": 63,
      "start": 6.7794,
      "duration": 0.2332,
      "velocity": 103,
      "chip": "ym2612"
    },
    {
      "channel": 2,
      "note": 51,
      "start": 6.7798,
      "duration": 0.2333,
      "velocity": 103,
      "chip": "ym2612"
    },
    {
      "channel": 3,
      "note": 67,
      "start": 6.7802,
      "duration": 0.2332,
      "velocity": 91,
      "chip": "ym2612"
    },
    {
      "channel": 4,
      "note": 75,
      "start": 6.7805,
      "duration": 0.2332,
      "velocity": 103,
      "chip": "ym2612"
    },
    {
      "channel": 0,
      "note": 63,
      "start": 7.0127,
      "duration": 0.2165,
      "velocity": 103,
      "chip": "ym2612"
    },
    {
      "channel": 1,
      "note": 76,
      "start": 7.013,
      "duration": 0.2165,
      "velocity": 103,
      "chip": "ym2612"
    },
    {
      "channel": 2,
      "note": 51,
      "start": 7.0133,
      "duration": 0.2163,
      "velocity": 103,
      "chip": "ym2612"
    },
    {
      "channel": 3,
      "note": 66,
      "start": 7.0136,
      "duration": 0.269,
      "velocity": 91,
      "chip": "ym2612"
    },
    {
      "channel": 0,
      "note": 66,
      "start": 7.2294,
      "duration": 0.0525,
      "velocity": 103,
      "chip": "ym2612"
    },
    {
      "channel": 2,
      "note": 54,
      "start": 7.2298,
      "duration": 0.0524,
      "velocity": 103,
      "chip": "ym2612"
    },
    {
      "channel": 4,
      "note": 76,
      "start": 7.2303,
      "duration": 0.0526,
      "velocity": 103,
      "chip": "ym2612"
    },
    {
      "channel": 0,
      "note": 66,
      "start": 7.2821,
      "duration": 0.2332,
      "velocity": 103,
      "chip": "ym2612"
    },
    {
      "channel": 2,
      "note": 54,
      "start": 7.2824,
      "duration": 0.2332,
      "velocity": 103,
      "chip": "ym2612"
    },
    {
      "channel": 3,
      "note": 71,
      "start": 7.2828,
      "duration": 0.3326,
      "velocity": 91,
      "chip": "ym2612"
    },
    {
      "channel": 0,
      "note": 62,
      "start": 7.5154,
      "duration": 0.2165,
      "velocity": 103,
      "chip": "ym2612"
    },
    {
      "channel": 2,
      "note": 50,
      "start": 7.5157,
      "duration": 0.2168,
      "velocity": 103,
      "chip": "ym2612"
    },
    {
      "channel": 0,
      "note": 62,
      "start": 7.7321,
      "duration": 0.2165,
      "velocity": 103,
      "chip": "ym2612"
    },
    {
      "channel": 1,
      "note": 73,
      "start": 7.7324,
      "duration": 0.1162,
      "velocity": 103,
      "chip": "ym2612"
    },
    {
      "channel": 2,
      "note": 50,
      "start": 7.7327,
      "duration": 0.2165,
      "velocity": 103,
      "chip": "ym2612"
    },
    {
      "channel": 3,
      "note": 70,
      "start": 7.733,
      "duration": 0.2189,
      "velocity": 91,
      "chip": "ym2612"
    },
    {
      "channel": 1,
      "note": 74,
      "start": 7.8488,
      "duration": 0.1001,
      "velocity": 103,
      "chip": "ym2612"
    },
    {
      "channel": 0,
      "note": 65,
      "start": 7.9488,
      "duration": 0.07,
      "velocity": 103,
      "chip": "ym2612"
    },
    {
      "channel": 1,
      "note": 75,
      "start": 7.9491,
      "duration": 0.1698,
      "velocity": 103,
      "chip": "ym2612"
    },
    {
      "channel": 2,
      "note": 53,
      "start": 7.9494,
      "duration": 0.0698,
      "velocity": 103,
      "chip": "ym2612"
    },
    {
      "channel": 4,
      "note": 73,
      "start": 7.9497,
      "duration": 0.0022,
      "velocity": 103,
      "chip": "ym2612"
    },
    {
      "channel": 4,
      "note": 74,
      "start": 7.9522,
      "duration": 0.0676,
      "velocity": 103,
      "chip": "ym2612"
    },
    {
      "channel": 0,
      "note": 65,
      "start": 8.019,
      "duration": 0.2165,
      "velocity": 103,
      "chip": "ym2612"
    },
    {
      "channel": 2,
      "note": 53,
      "start": 8.0194,
      "duration": 0.2167,
      "velocity": 103,
      "chip": "ym2612"
    },
    {
      "channel": 3,
      "note": 67,
      "start": 8.0197,
      "duration": 0.2166,
      "velocity": 91,
      "chip": "ym2612"
    },
    {
      "channel": 4,
      "note": 75,
      "start": 8.02,
      "duration": 0.3323,
      "velocity": 103,
      "chip": "ym2612"
    },
    {
      "channel": 0,
      "note": 60,
      "start": 8.2356,
      "duration": 0.2165,
      "velocity": 103,
      "chip": "ym2612"
    },
    {
      "channel": 1,
      "note": 73,
      "start": 8.2359,
      "duration": 0.2165,
      "velocity": 103,
      "chip": "ym2612"
    },
    {
      "channel": 2,
      "note": 48,
      "start": 8.2363,
      "duration": 0.2165,
      "velocity": 103,
      "chip": "ym2612"
    },
    {
      "channel": 3,
      "note": 68,
      "start": 8.2365,
      "duration": 0.2165,
      "velocity": 91,
      "chip": "ym2612"
    },
    {
      "channel": 0,
      "note": 60,
      "start": 8.4523,
      "duration": 0.2333,
      "velocity": 103,
      "chip": "ym2612"
    },
    {
      "channel": 1,
      "note": 72,
      "start": 8.4526,
      "duration": 0.2333,
      "velocity": 103,
      "chip": "ym2612"
    },
    {
      "channel": 2,
      "note": 48,
      "start": 8.4529,
      "duration": 0.2333,
      "velocity": 103,
      "chip": "ym2612"
    },
    {
      "channel": 3,
      "note": 72,
      "start": 8.4532,
      "duration": 0.2333,
      "velocity": 91,
      "chip": "ym2612"
    },
    {
      "channel": 4,
      "note": 73,
      "start": 8.4536,
      "duration": 0.2333,
      "velocity": 103,
      "chip": "ym2612"
    },
    {
      "channel": 0,
      "note": 61,
      "start": 8.6858,
      "duration": 0.0532,
      "velocity": 103,
      "chip": "ym2612"
    },
    {
      "channel": 1,
      "note": 73,
      "start": 8.6861,
      "duration": 0.0532,
      "velocity": 103,
      "chip": "ym2612"
    },
    {
      "channel": 2,
      "note": 49,
      "start": 8.6865,
      "duration": 0.0531,
      "velocity": 103,
      "chip": "ym2612"
    },
    {
      "channel": 3,
      "note": 73,
      "start": 8.6868,
      "duration": 0.053,
      "velocity": 91,
      "chip": "ym2612"
    },
    {
      "channel": 4,
      "note": 72,
      "start": 8.6871,
      "duration": 0.053,
      "velocity": 103,
      "chip": "ym2612"
    },
    {
      "channel": 0,
      "note": 61,
      "start": 8.7391,
      "duration": 0.2165,
      "velocity": 103,
      "chip": "ym2612"
    },
    {
      "channel": 1,
      "note": 68,
      "start": 8.7394,
      "duration": 0.2165,
      "velocity": 103,
      "chip": "ym2612"
    },
    {
      "channel": 2,
      "note": 49,
      "start": 8.7398,
      "duration": 0.2163,
      "velocity": 103,
      "chip": "ym2612"
    },
    {
      "channel": 3,
      "note": 76,
      "start": 8.74,
      "duration": 0.2163,
      "velocity": 91,
      "chip": "ym2612"
    },
    {
      "channel": 4,
      "note": 73,
      "start": 8.7403,
      "duration": 0.2163,
      "velocity": 103,
      "chip": "ym2612"
    },
    {
      "channel": 0,
      "note": 68,
      "start": 8.9558,
      "duration": 0.2332,
      "velocity": 103,
      "chip": "ym2612"
    },
    {
      "channel": 2,
      "note": 56,
      "start": 8.9562,
      "duration": 0.233,
      "velocity": 103,
      "chip": "ym2612"
    },
    {
      "channel": 3,
      "note": 75,
      "start": 8.9566,
      "duration": 0.233,
      "velocity": 91,
      "chip": "ym2612"
    },
    {
      "channel": 4,
      "note": 68,
      "start": 8.9569,
      "duration": 0.2329,
      "velocity": 103,
      "chip": "ym2612"
    },
    {
      "channel": 0,
      "note": 68,
      "start": 9.1891,
      "duration": 0.2165,
      "velocity": 103,
      "chip": "ym2612"
    },
    {
      "channel": 2,
      "note": 56,
      "start": 9.1894,
      "duration": 0.2165,
      "velocity": 103,
      "chip": "ym2612"
    },
    {
      "channel": 3,
      "note": 66,
      "start": 9.1898,
      "duration": 0.2168,
      "velocity": 91,
      "chip": "ym2612"
    },
    {
      "channel": 0,
      "note": 67,
      "start": 9.4058,
      "duration": 0.0512,
      "velocity": 103,
      "chip": "ym2612"
    },
    {
      "channel": 2,
      "note": 55,
      "start": 9.4061,
      "duration": 0.0512,
      "velocity": 103,
      "chip": "ym2612"
    },
    {
      "channel": 0,
      "note": 67,
      "start": 9.4572,
      "duration": 0.2332,
      "velocity": 103,
      "chip": "ym2612"
    },
    {
      "channel": 2,
      "note": 55,
      "start": 9.4575,
      "duration": 0.2332,
      "velocity": 103,
      "chip": "ym2612"
    },
    {
      "channel": 3,
      "note": 67,
      "start": 9.4579,
      "duration": 0.3326,
      "velocity": 91,
      "chip": "ym2612"
    },
    {
      "channel": 0,
      "note": 63,
      "start": 9.6905,
      "duration": 0.2165,
      "velocity": 103,
      "chip": "ym2612"
    },
    {
      "channel": 2,
      "note": 51,
      "start": 9.6908,
      "duration": 0.2165,
      "velocity": 103,
      "chip": "ym2612"
    },
    {
      "channel": 0,
      "note": 63,
      "start": 9.9072,
      "duration": 0.2165,
      "velocity": 103,
      "chip": "ym2612"
    },
    {
      "channel": 2,
      "note": 51,
      "start": 9.9075,
      "duration": 0.2165,
      "velocity": 103,
      "chip": "ym2612"
    },
    {
      "channel": 3,
      "note": 68,
      "start": 9.9078,
      "duration": 0.2845,
      "velocity": 91,
      "chip": "ym2612"
    },
    {
      "channel": 0,
      "note": 66,
      "start": 10.1238,
      "duration": 0.0678,
      "velocity": 103,
      "chip": "ym2612"
    },
    {
      "channel": 2,
      "note": 54,
      "start": 10.1241,
      "duration": 0.0678,
      "velocity": 103,
      "chip": "ym2612"
    },
    {
      "channel": 0,
      "note": 66,
      "start": 10.1918,
      "duration": 0.2165,
      "velocity": 103,
      "chip": "ym2612"
    },
    {
      "channel": 2,
      "note": 54,
      "start": 10.1921,
      "duration": 0.2165,
      "velocity": 103,
      "chip": "ym2612"
    },
    {
      "channel": 3,
      "note": 63,
      "start": 10.1924,
      "duration": 0.2166,
      "velocity": 91,
      "chip": "ym2612"
    },
    {
      "channel": 0,
      "note": 62,
      "start": 10.4085,
      "duration": 0.2165,
      "velocity": 103,
      "chip": "ym2612"
    },
    {
      "channel": 2,
      "note": 50,
      "start": 10.4088,
      "duration": 0.2168,
      "velocity": 103,
      "chip": "ym2612"
    },
    {
      "channel": 3,
      "note": 64,
      "start": 10.4092,
      "duration": 0.2167,
      "velocity": 91,
      "chip": "ym2612"
    },
    {
      "channel": 0,
      "note": 62,
      "start": 10.6251,
      "duration": 0.2332,
      "velocity": 103,
      "chip": "ym2612"
    },
    {
      "channel": 1,
      "note": 64,
      "start": 10.6255,
      "duration": 0.1162,
      "velocity": 103,
      "chip": "ym2612"
    },
    {
      "channel": 2,
      "note": 50,
      "start": 10.6258,
      "duration": 0.2332,
      "velocity": 103,
      "chip": "ym2612"
    },
    {
      "channel": 3,
      "note": 65,
      "start": 10.6261,
      "duration": 0.116,
      "velocity": 91,
      "chip": "ym2612"
    },
    {
      "channel": 1,
      "note": 67,
      "start": 10.7419,
      "duration": 0.1167,
      "velocity": 103,
      "chip": "ym2612"
    },
    {
      "channel": 3,
      "note": 66,
      "start": 10.7422,
      "duration": 0.117,
      "velocity": 91,
      "chip": "ym2612"
    },
    {
      "channel": 0,
      "note": 65,
      "start": 10.8585,
      "duration": 0.053,
      "velocity": 103,
      "chip": "ym2612"
    },
    {
      "channel": 1,
      "note": 68,
      "start": 10.8588,
      "duration": 0.0029,
      "velocity": 103,
      "chip": "ym2612"
    },
    {
      "channel": 2,
      "note": 53,
      "start": 10.8591,
      "duration": 0.053,
      "velocity": 103,
      "chip": "ym2612"
    },
    {
      "channel": 3,
      "note": 67,
      "start": 10.8594,
      "duration": 0.053,
      "velocity": 91,
      "chip": "ym2612"
    },
    {
      "channel": 4,
      "note": 64,
      "start": 10.8597,
      "duration": 0.0022,
      "velocity": 103,
      "chip": "ym2612"
    },
    {
      "channel": 4,
      "note": 67,
      "start": 10.862,
      "duration": 0.0507,
      "velocity": 103,
      "chip": "ym2612"
    },
    {
      "channel": 0,
      "note": 65,
      "start": 10.9116,
      "duration": 0.2165,
      "velocity": 103,
      "chip": "ym2612"
    },
    {
      "channel": 1,
      "note": 71,
      "start": 10.912,
      "duration": 0.1162,
      "velocity": 103,
      "chip": "ym2612"
    },
    {
      "channel": 2,
      "note": 53,
      "start": 10.9123,
      "duration": 0.2165,
      "velocity": 103,
      "chip": "ym2612"
    },
    {
      "channel": 3,
      "note": 68,
      "start": 10.9126,
      "duration": 0.2164,
      "velocity": 91,
      "chip": "ym2612"
    },
    {
      "channel": 4,
      "note": 68,
      "start": 10.9129,
      "duration": 0.1155,
      "velocity": 103,
      "chip": "ym2612"
    },
    {
      "channel": 0,
      "note": 60,
      "start": 11.1283,
      "duration": 0.2332,
      "velocity": 103,
      "chip": "ym2612"
    },
    {
      "channel": 1,
      "note": 70,
      "start": 11.1286,
      "duration": 0.2332,
      "velocity": 103,
      "chip": "ym2612"
    },
    {
      "channel": 2,
      "note": 48,
      "start": 11.1289,
      "duration": 0.2332,
      "velocity": 103,
      "chip": "ym2612"
    },
    {
      "channel": 3,
      "note": 67,
      "start": 11.1292,
      "duration": 0.2331,
      "velocity": 91,
      "chip": "ym2612"
    },
    {
      "channel": 4,
      "note": 71,
      "start": 11.1295,
      "duration": 0.1155,
      "velocity": 103,
      "chip": "ym2612"
    },
    {
      "channel": 0,
      "note": 60,
      "start": 11.3616,
      "duration": 0.2166,
      "velocity": 103,
      "chip": "ym2612"
    },
    {
      "channel": 1,
      "note": 68,
      "start": 11.362,
      "duration": 0.2166,
      "velocity": 103,
      "chip": "ym2612"
    },
    {
      "channel": 2,
      "note": 48,
      "start": 11.3623,
      "duration": 0.2167,
      "velocity": 103,
      "chip": "ym2612"
    },
    {
      "channel": 3,
      "note": 60,
      "start": 11.3625,
      "duration": 0.2168,
      "velocity": 91,
      "chip": "ym2612"
    },
    {
      "channel": 4,
      "note": 70,
      "start": 11.3629,
      "duration": 0.2168,
      "velocity": 103,
      "chip": "ym2612"
    },
    {
      "channel": 0,
      "note": 61,
      "start": 11.5784,
      "duration": 0.0528,
      "velocity": 103,
      "chip": "ym2612"
    },
    {
      "channel": 1,
      "note": 67,
      "start": 11.5788,
      "duration": 0.0528,
      "velocity": 103,
      "chip": "ym2612"
    },
    {
      "channel": 2,
      "note": 49,
      "start": 11.5791,
      "duration": 0.0528,
      "velocity": 103,
      "chip": "ym2612"
    },
    {
      "channel": 3,
      "note": 61,
      "start": 11.5796,
      "duration": 0.3852,
      "velocity": 91,
      "chip": "ym2612"
    },
    {
      "channel": 4,
      "note": 68,
      "start": 11.5799,
      "duration": 0.0523,
      "velocity": 103,
      "chip": "ym2612"
    },
    {
      "channel": 0,
      "note": 61,
      "start": 11.6315,
      "duration": 0.2332,
      "velocity": 103,
      "chip": "ym2612"
    },
    {
      "channel": 1,
      "note": 73,
      "start": 11.6318,
      "duration": 0.2332,
      "velocity": 103,
      "chip": "ym2612"
    },
    {
      "channel": 2,
      "note": 49,
      "start": 11.6321,
      "duration": 0.233,
      "velocity": 103,
      "chip": "ym2612"
    },
    {
      "channel": 4,
      "note": 67,
      "start": 11.6324,
      "duration": 0.233,
      "velocity": 103,
      "chip": "ym2612"
    },
    {
      "channel": 0,
      "note": 68,
      "start": 11.8648,
      "duration": 0.2165,
      "velocity": 103,
      "chip": "ym2612"
    },
    {
      "channel": 2,
      "note": 56,
      "start": 11.8652,
      "duration": 0.2163,
      "velocity": 103,
      "chip": "ym2612"
    },
    {
      "channel": 4,
      "note": 73,
      "start": 11.8656,
      "duration": 0.2165,
      "velocity": 103,
      "chip": "ym2612"
    },
    {
      "channel": 0,
      "note": 68,
      "start": 12.0815,
      "duration": 0.2165,
      "velocity": 103,
      "chip": "ym2612"
    },
    {
      "channel": 2,
      "note": 56,
      "start": 12.0818,
      "duration": 0.2165,
      "velocity": 103,
      "chip": "ym2612"
    },
    {
      "channel": 3,
      "note": 68,
      "start": 12.0821,
      "duration": 0.384,
      "velocity": 91,
      "chip": "ym2612"
    },
    {
      "channel": 0,
      "note": 67,
      "start": 12.2981,
      "duration": 0.0678,
      "velocity": 103,
      "chip": "ym2612"
    },
    {
      "channel": 2,
      "note": 55,
      "start": 12.2984,
      "duration": 0.0678,
      "velocity": 103,
      "chip": "ym2612"
    },
    {
      "channel": 0,
      "note": 67,
      "start": 12.3661,
      "duration": 0.2165,
      "velocity": 103,
      "chip": "ym2612"
    },
    {
      "channel": 2,
      "note": 55,
      "start": 12.3664,
      "duration": 0.2165,
      "velocity": 103,
      "chip": "ym2612"
    },
    {
      "channel": 0,
      "note": 63,
      "start": 12.5828,
      "duration": 0.2165,
      "velocity": 103,
      "chip": "ym2612"
    },
    {
      "channel": 2,
      "note": 51,
      "start": 12.5831,
      "duration": 0.2168,
      "velocity": 103,
      "chip": "ym2612"
    },
    {
      "channel": 3,
      "note": 67,
      "start": 12.5835,
      "duration": 0.2167,
      "velocity": 91,
      "chip": "ym2612"
    },
    {
      "channel": 0,
      "note": 63,
      "start": 12.7995,
      "duration": 0.2332,
      "velocity": 103,
      "chip": "ym2612"
    },
    {
      "channel": 1,
      "note": 72,
      "start": 12.7998,
      "duration": 0.1162,
      "velocity": 103,
      "chip": "ym2612"
    },
    {
      "channel": 2,
      "note": 51,
      "start": 12.8001,
      "duration": 0.2332,
      "velocity": 103,
      "chip": "ym2612"
    },
    {
      "channel": 3,
      "note": 66,
      "start": 12.8004,
      "duration": 0.2863,
      "velocity": 91,
      "chip": "ym2612"
    },
    {
      "channel": 1,
      "note": 73,
      "start": 12.9162,
      "duration": 0.1167,
      "velocity": 103,
      "chip": "ym2612"
    },
    {
      "channel": 0,
      "note": 66,
      "start": 13.0328,
      "duration": 0.0531,
      "velocity": 103,
      "chip": "ym2612"
    },
    {
      "channel": 1,
      "note": 77,
      "start": 13.0331,
      "duration": 0.2698,
      "velocity": 103,
      "chip": "ym2612"
    },
    {
      "channel": 2,
      "note": 54,
      "start": 13.0334,
      "duration": 0.0529,
      "velocity": 103,
      "chip": "ym2612"
    },
    {
      "channel": 4,
      "note": 72,
      "start": 13.0338,
      "duration": 0.0016,
      "velocity": 103,
      "chip": "ym2612"
    },
    {
      "channel": 4,
      "note": 73,
      "start": 13.0357,
      "duration": 0.0513,
      "velocity": 103,
      "chip": "ym2612"
    },
    {
      "channel": 0,
      "note": 66,
      "start": 13.0861,
      "duration": 0.2165,
      "velocity": 103,
      "chip": "ym2612"
    },
    {
      "channel": 2,
      "note": 54,
      "start": 13.0865,
      "duration": 0.2167,
      "velocity": 103,
      "chip": "ym2612"
    },
    {
      "channel": 3,
      "note": 71,
      "start": 13.0869,
      "duration": 0.3326,
      "velocity": 91,
      "chip": "ym2612"
    },
    {
      "channel": 4,
      "note": 77,
      "start": 13.0872,
      "duration": 0.4497,
      "velocity": 103,
      "chip": "ym2612"
    },
    {
      "channel": 0,
      "note": 62,
      "start": 13.3027,
      "duration": 0.2332,
      "velocity": 103,
      "chip": "ym2612"
    },
    {
      "channel": 1,
      "note": 78,
      "start": 13.3031,
      "duration": 0.4498,
      "velocity": 103,
      "chip": "ym2612"
    },
    {
      "channel": 2,
      "note": 50,
      "start": 13.3034,
      "duration": 0.233,
      "velocity": 103,
      "chip": "ym2612"
    },
    {
      "channel": 0,
      "note": 62,
      "start": 13.5361,
      "duration": 0.2165,
      "velocity": 103,
      "chip": "ym2612"
    },
    {
      "channel": 2,
      "note": 50,
      "start": 13.5365,
      "duration": 0.2165,
      "velocity": 103,
      "chip": "ym2612"
    },
    {
      "channel": 3,
      "note": 70,
      "start": 13.5368,
      "duration": 0.2179,
      "velocity": 91,
      "chip": "ym2612"
    },
    {
      "channel": 4,
      "note": 78,
      "start": 13.5372,
      "duration": 0.2693,
      "velocity": 103,
      "chip": "ym2612"
    },
    {
      "channel": 0,
      "note": 65,
      "start": 13.7527,
      "duration": 0.0525,
      "velocity": 103,
      "chip": "ym2612"
    },
    {
      "channel": 2,
      "note": 53,
      "start": 13.7532,
      "duration": 0.0527,
      "velocity": 103,
      "chip": "ym2612"
    },
    {
      "channel": 0,
      "note": 65,
      "start": 13.8054,
      "duration": 0.2332,
      "velocity": 103,
      "chip": "ym2612"
    },
    {
      "channel": 1,
      "note": 79,
      "start": 13.8057,
      "duration": 0.2332,
      "velocity": 103,
      "chip": "ym2612"
    },
    {
      "channel": 2,
      "note": 53,
      "start": 13.8061,
      "duration": 0.2332,
      "velocity": 103,
      "chip": "ym2612"
    },
    {
      "channel": 3,
      "note": 67,
      "start": 13.8063,
      "duration": 0.2331,
      "velocity": 91,
      "chip": "ym2612"
    },
    {
      "channel": 0,
      "note": 60,
      "start": 14.0388,
      "duration": 0.2165,
      "velocity": 103,
      "chip": "ym2612"
    },
    {
      "channel": 1,
      "note": 80,
      "start": 14.0391,
      "duration": 0.2165,
      "velocity": 103,
      "chip": "ym2612"
    },
    {
      "channel": 2,
      "note": 48,
      "start": 14.0394,
      "duration": 0.2165,
      "velocity": 103,
      "chip": "ym2612"
    },
    {
      "channel": 3,
      "note": 68,
      "start": 14.0397,
      "duration": 0.2165,
      "velocity": 91,
      "chip": "ym2612"
    },
    {
      "channel": 4,
      "note": 79,
      "start": 14.04,
      "duration": 0.2165,
      "velocity": 103,
      "chip": "ym2612"
    },
    {
      "channel": 0,
      "note": 60,
      "start": 14.2554,
      "duration": 0.2166,
      "velocity": 103,
      "chip": "ym2612"
    },
    {
      "channel": 1,
      "note": 74,
      "start": 14.2557,
      "duration": 0.2166,
      "velocity": 103,
      "chip": "ym2612"
    },
    {
      "channel": 2,
      "note": 48,
      "start": 14.2561,
      "duration": 0.2167,
      "velocity": 103,
      "chip": "ym2612"
    },
    {
      "channel": 3,
      "note": 72,
      "start": 14.2564,
      "duration": 0.2167,
      "velocity": 91,
      "chip": "ym2612"
    },
    {
      "channel": 4,
      "note": 80,
      "start": 14.2567,
      "duration": 0.2166,
      "velocity": 103,
      "chip": "ym2612"
    },
    {
      "channel": 0,
      "note": 61,
      "start": 14.4722,
      "duration": 0.0701,
      "velocity": 103,
      "chip": "ym2612"
    },
    {
      "channel": 1,
      "note": 83,
      "start": 14.4725,
      "duration": 0.0701,
      "velocity": 103,
      "chip": "ym2612"
    },
    {
      "channel": 2,
      "note": 49,
      "start": 14.4729,
      "duration": 0.07,
      "velocity": 103,
      "chip": "ym2612"
    },
    {
      "channel": 3,
      "note": 73,
      "start": 14.4732,
      "duration": 0.0699,
      "velocity": 91,
      "chip": "ym2612"
    },
    {
      "channel": 4,
      "note": 74,
      "start": 14.4736,
      "duration": 0.0699,
      "velocity": 103,
      "chip": "ym2612"
    },
    {
      "channel": 0,
      "note": 61,
      "start": 14.5425,
      "duration": 0.2165,
      "velocity": 103,
      "chip": "ym2612"
    },
    {
      "channel": 1,
      "note": 83,
      "start": 14.5428,
      "duration": 0.2165,
      "velocity": 103,
      "chip": "ym2612"
    },
    {
      "channel": 2,
      "note": 49,
      "start": 14.5431,
      "duration": 0.2163,
      "velocity": 103,
      "chip": "ym2612"
    },
    {
      "channel": 3,
      "note": 76,
      "start": 14.5434,
      "duration": 0.2163,
      "velocity": 91,
      "chip": "ym2612"
    },
    {
      "channel": 4,
      "note": 83,
      "start": 14.5437,
      "duration": 0.2163,
      "velocity": 103,
      "chip": "ym2612"
    },
    {
      "channel": 0,
      "note": 68,
      "start": 14.7591,
      "duration": 0.2165,
      "velocity": 103,
      "chip": "ym2612"
    },
    {
      "channel": 2,
      "note": 56,
      "start": 14.7596,
      "duration": 0.2163,
      "velocity": 103,
      "chip": "ym2612"
    },
    {
      "channel": 3,
      "note": 75,
      "start": 14.7599,
      "duration": 0.2163,
      "velocity": 91,
      "chip": "ym2612"
    },
    {
      "channel": 4,
      "note": 83,
      "start": 14.7602,
      "duration": 0.2163,
      "velocity": 103,
      "chip": "ym2612"
    },
    {
      "channel": 0,
      "note": 68,
      "start": 14.9758,
      "duration": 0.2332,
      "velocity": 103,
      "chip": "ym2612"
    },
    {
      "channel": 2,
      "note": 56,
      "start": 14.9761,
      "duration": 0.2332,
      "velocity": 103,
      "chip": "ym2612"
    },
    {
      "channel": 3,
      "note": 66,
      "start": 14.9764,
      "duration": 0.2335,
      "velocity": 91,
      "chip": "ym2612"
    },
    {
      "channel": 0,
      "note": 67,
      "start": 15.2091,
      "duration": 0.0512,
      "velocity": 103,
      "chip": "ym2612"
    },
    {
      "channel": 2,
      "note": 55,
      "start": 15.2095,
      "duration": 0.0512,
      "velocity": 103,
      "chip": "ym2612"
    },
    {
      "channel": 0,
      "note": 67,
      "start": 15.2605,
      "duration": 0.2165,
      "velocity": 103,
      "chip": "ym2612"
    },
    {
      "channel": 2,
      "note": 55,
      "start": 15.2609,
      "duration": 0.2165,
      "velocity": 103,
      "chip": "ym2612"
    },
    {
      "channel": 3,
      "note": 67,
      "start": 15.2612,
      "duration": 0.3326,
      "velocity": 91,
      "chip": "ym2612"
    },
    {
      "channel": 0,
      "note": 63,
      "start": 15.4772,
      "duration": 0.2332,
      "velocity": 103,
      "chip": "ym2612"
    },
    {
      "channel": 2,
      "note": 51,
      "start": 15.4775,
      "duration": 0.2332,
      "velocity": 103,
      "chip": "ym2612"
    },
    {
      "channel": 0,
      "note": 63,
      "start": 15.7105,
      "duration": 0.2165,
      "velocity": 103,
      "chip": "ym2612"
    },
    {
      "channel": 2,
      "note": 51,
      "start": 15.7109,
      "duration": 0.2165,
      "velocity": 103,
      "chip": "ym2612"
    },
    {
      "channel": 3,
      "note": 68,
      "start": 15.7112,
      "duration": 0.2681,
      "velocity": 91,
      "chip": "ym2612"
    },
    {
      "channel": 0,
      "note": 66,
      "start": 15.9272,
      "duration": 0.0512,
      "velocity": 103,
      "chip": "ym2612"
    },
    {
      "channel": 2,
      "note": 54,
      "start": 15.9275,
      "duration": 0.0515,
      "velocity": 103,
      "chip": "ym2612"
    },
    {
      "channel": 0,
      "note": 66,
      "start": 15.9785,
      "duration": 0.2332,
      "velocity": 103,
      "chip": "ym2612"
    },
    {
      "channel": 1,
      "note": 85,
      "start": 15.9789,
      "duration": 0.4498,
      "velocity": 103,
      "chip": "ym2612"
    },
    {
      "channel": 2,
      "note": 54,
      "start": 15.9792,
      "duration": 0.233,
      "velocity": 103,
      "chip": "ym2612"
    },
    {
      "channel": 3,
      "note": 63,
      "start": 15.9795,
      "duration": 0.233,
      "velocity": 91,
      "chip": "ym2612"
    },
    {
      "channel": 0,
      "note": 62,
      "start": 16.2119,
      "duration": 0.2165,
      "velocity": 103,
      "chip": "ym2612"
    },
    {
      "channel": 2,
      "note": 50,
      "start": 16.2123,
      "duration": 0.2167,
      "velocity": 103,
      "chip": "ym2612"
    },
    {
      "channel": 3,
      "note": 64,
      "start": 16.2127,
      "duration": 0.2166,
      "velocity": 91,
      "chip": "ym2612"
    },
    {
      "channel": 4,
      "note": 85,
      "start": 16.213,
      "duration": 0.4331,
      "velocity": 103,
      "chip": "ym2612"
    },
    {
      "channel": 0,
      "note": 62,
      "start": 16.4285,
      "duration": 0.2165,
      "velocity": 103,
      "chip": "ym2612"
    },
    {
      "channel": 1,
      "note": 84,
      "start": 16.4289,
      "duration": 0.2863,
      "velocity": 103,
      "chip": "ym2612"
    },
    {
      "channel": 2,
      "note": 50,
      "start": 16.4292,
      "duration": 0.2163,
      "velocity": 103,
      "chip": "ym2612"
    },
    {
      "channel": 3,
      "note": 65,
      "start": 16.4295,
      "duration": 0.1158,
      "velocity": 91,
      "chip": "ym2612"
    },
    {
      "channel": 3,
      "note": 66,
      "start": 16.5455,
      "duration": 0.1003,
      "velocity": 91,
      "chip": "ym2612"
    },
    {
      "channel": 0,
      "note": 65,
      "start": 16.6452,
      "duration": 0.0696,
      "velocity": 103,
      "chip": "ym2612"
    },
    {
      "channel": 2,
      "note": 53,
      "start": 16.6457,
      "duration": 0.0698,
      "velocity": 103,
      "chip": "ym2612"
    },
    {
      "channel": 3,
      "note": 67,
      "start": 16.646,
      "duration": 0.0698,
      "velocity": 91,
      "chip": "ym2612"
    },
    {
      "channel": 4,
      "note": 84,
      "start": 16.6463,
      "duration": 0.2864,
      "velocity": 103,
      "chip": "ym2612"
    },
    {
      "channel": 0,
      "note": 65,
      "start": 16.715,
      "duration": 0.2165,
      "velocity": 103,
      "chip": "ym2612"
    },
    {
      "channel": 1,
      "note": 80,
      "start": 16.7154,
      "duration": 0.2165,
      "velocity": 103,
      "chip": "ym2612"
    },
    {
      "channel": 2,
      "note": 53,
      "start": 16.7157,
      "duration": 0.2165,
      "velocity": 103,
      "chip": "ym2612"
    },
    {
      "channel": 3,
      "note": 68,
      "start": 16.716,
      "duration": 0.2164,
      "velocity": 91,
      "chip": "ym2612"
    },
    {
      "channel": 0,
      "note": 60,
      "start": 16.9317,
      "duration": 0.2165,
      "velocity": 103,
      "chip": "ym2612"
    },
    {
      "channel": 1,
      "note": 82,
      "start": 16.932,
      "duration": 0.2165,
      "velocity": 103,
      "chip": "ym2612"
    },
    {
      "channel": 2,
      "note": 48,
      "start": 16.9323,
      "duration": 0.2165,
      "velocity": 103,
      "chip": "ym2612"
    },
    {
      "channel": 3,
      "note": 67,
      "start": 16.9326,
      "duration": 0.2165,
      "velocity": 91,
      "chip": "ym2612"
    },
    {
      "channel": 4,
      "note": 80,
      "start": 16.9329,
      "duration": 0.2165,
      "velocity": 103,
      "chip": "ym2612"
    },
    {
      "channel": 0,
      "note": 60,
      "start": 17.1484,
      "duration": 0.2333,
      "velocity": 103,
      "chip": "ym2612"
    },
    {
      "channel": 1,
      "note": 88,
      "start": 17.1487,
      "duration": 1.007,
      "velocity": 103,
      "chip": "ym2612"
    },
    {
      "channel": 2,
      "note": 48,
      "start": 17.149,
      "duration": 0.2332,
      "velocity": 103,
      "chip": "ym2612"
    },
    {
      "channel": 3,
      "note": 60,
      "start": 17.1493,
      "duration": 0.2334,
      "velocity": 91,
      "chip": "ym2612"
    },
    {
      "channel": 4,
      "note": 82,
      "start": 17.1496,
      "duration": 0.2333,
      "velocity": 103,
      "chip": "ym2612"
    },
    {
      "channel": 0,
      "note": 61,
      "start": 17.3818,
      "duration": 0.0535,
      "velocity": 103,
      "chip": "ym2612"
    },
    {
      "channel": 2,
      "note": 49,
      "start": 17.3824,
      "duration": 0.0534,
      "velocity": 103,
      "chip": "ym2612"
    },
    {
      "channel": 3,
      "note": 61,
      "start": 17.3829,
      "duration": 0.3861,
      "velocity": 91,
      "chip": "ym2612"
    },
    {
      "channel": 4,
      "note": 88,
      "start": 17.3832,
      "duration": 1.0064,
      "velocity": 103,
      "chip": "ym2612"
    },
    {
      "channel": 0,
      "note": 61,
      "start": 17.4355,
      "duration": 0.2165,
      "velocity": 103,
      "chip": "ym2612"
    },
    {
      "channel": 2,
      "note": 49,
      "start": 17.436,
      "duration": 0.2165,
      "velocity": 103,
      "chip": "ym2612"
    },
    {
      "channel": 0,
      "note": 68,
      "start": 17.6522,
      "duration": 0.2332,
      "velocity": 103,
      "chip": "ym2612"
    },
    {
      "channel": 2,
      "note": 56,
      "start": 17.6526,
      "duration": 0.2332,
      "velocity": 103,
      "chip": "ym2612"
    },
    {
      "channel": 0,
      "note": 68,
      "start": 17.8855,
      "duration": 0.2165,
      "velocity": 103,
      "chip": "ym2612"
    },
    {
      "channel": 2,
      "note": 56,
      "start": 17.886,
      "duration": 0.2165,
      "velocity": 103,
      "chip": "ym2612"
    },
    {
      "channel": 3,
      "note": 68,
      "start": 17.8863,
      "duration": 0.3859,
      "velocity": 91,
      "chip": "ym2612"
    },
    {
      "channel": 0,
      "note": 67,
      "start": 18.1022,
      "duration": 0.0532,
      "velocity": 103,
      "chip": "ym2612"
    },
    {
      "channel": 2,
      "note": 55,
      "start": 18.1026,
      "duration": 0.0532,
      "velocity": 103,
      "chip": "ym2612"
    },
    {
      "channel": 0,
      "note": 67,
      "start": 18.1555,
      "duration": 0.2332,
      "velocity": 103,
      "chip": "ym2612"
    },
    {
      "channel": 2,
      "note": 55,
      "start": 18.156,
      "duration": 0.233,
      "velocity": 103,
      "chip": "ym2612"
    },
    {
      "channel": 0,
      "note": 63,
      "start": 18.3888,
      "duration": 0.2165,
      "velocity": 103,
      "chip": "ym2612"
    },
    {
      "channel": 2,
      "note": 51,
      "start": 18.3892,
      "duration": 0.2168,
      "velocity": 103,
      "chip": "ym2612"
    },
    {
      "channel": 3,
      "note": 67,
      "start": 18.3895,
      "duration": 0.2167,
      "velocity": 91,
      "chip": "ym2612"
    },
    {
      "channel": 0,
      "note": 63,
      "start": 18.6055,
      "duration": 0.2165,
      "velocity": 103,
      "chip": "ym2612"
    },
    {
      "channel": 1,
      "note": 87,
      "start": 18.6058,
      "duration": 1.2237,
      "velocity": 103,
      "chip": "ym2612"
    },
    {
      "channel": 2,
      "note": 51,
      "start": 18.6061,
      "duration": 0.2163,
      "velocity": 103,
      "chip": "ym2612"
    },
    {
      "channel": 3,
      "note": 66,
      "start": 18.6064,
      "duration": 0.2864,
      "velocity": 91,
      "chip": "ym2612"
    },
    {
      "channel": 0,
      "note": 66,
      "start": 18.8222,
      "duration": 0.0699,
      "velocity": 103,
      "chip": "ym2612"
    },
    {
      "channel": 2,
      "note": 54,
      "start": 18.8226,
      "duration": 0.0699,
      "velocity": 103,
      "chip": "ym2612"
    },
    {
      "channel": 4,
      "note": 87,
      "start": 18.823,
      "duration": 1.2408,
      "velocity": 103,
      "chip": "ym2612"
    },
    {
      "channel": 0,
      "note": 66,
      "start": 18.8923,
      "duration": 0.2165,
      "velocity": 103,
      "chip": "ym2612"
    },
    {
      "channel": 2,
      "note": 54,
      "start": 18.8927,
      "duration": 0.2165,
      "velocity": 103,
      "chip": "ym2612"
    },
    {
      "channel": 3,
      "note": 71,
      "start": 18.8931,
      "duration": 0.3326,
      "velocity": 91,
      "chip": "ym2612"
    },
    {
      "channel": 0,
      "note": 62,
      "start": 19.1089,
      "duration": 0.2165,
      "velocity": 103,
      "chip": "ym2612"
    },
    {
      "channel": 2,
      "note": 50,
      "start": 19.1094,
      "duration": 0.2165,
      "velocity": 103,
      "chip": "ym2612"
    },
    {
      "channel": 0,
      "note": 62,
      "start": 19.3256,
      "duration": 0.2332,
      "velocity": 103,
      "chip": "ym2612"
    },
    {
      "channel": 2,
      "note": 50,
      "start": 19.3261,
      "duration": 0.2332,
      "velocity": 103,
      "chip": "ym2612"
    },
    {
      "channel": 3,
      "note": 70,
      "start": 19.3264,
      "duration": 0.2352,
      "velocity": 91,
      "chip": "ym2612"
    },
    {
      "channel": 0,
      "note": 65,
      "start": 19.5589,
      "duration": 0.0537,
      "velocity": 103,
      "chip": "ym2612"
    },
    {
      "channel": 2,
      "note": 53,
      "start": 19.5594,
      "duration": 0.0537,
      "velocity": 103,
      "chip": "ym2612"
    },
    {
      "channel": 0,
      "note": 65,
      "start": 19.6128,
      "duration": 0.2165,
      "velocity": 103,
      "chip": "ym2612"
    },
    {
      "channel": 2,
      "note": 53,
      "start": 19.6132,
      "duration": 0.2167,
      "velocity": 103,
      "chip": "ym2612"
    },
    {
      "channel": 3,
      "note": 67,
      "start": 19.6135,
      "duration": 0.2166,
      "velocity": 91,
      "chip": "ym2612"
    },
    {
      "channel": 0,
      "note": 60,
      "start": 19.8294,
      "duration": 0.2332,
      "velocity": 103,
      "chip": "ym2612"
    },
    {
      "channel": 1,
      "note": 83,
      "start": 19.8298,
      "duration": 0.2332,
      "velocity": 103,
      "chip": "ym2612"
    },
    {
      "channel": 2,
      "note": 48,
      "start": 19.8301,
      "duration": 0.2332,
      "velocity": 103,
      "chip": "ym2612"
    },
    {
      "channel": 3,
      "note": 68,
      "start": 19.8303,
      "duration": 0.2332,
      "velocity": 91,
      "chip": "ym2612"
    },
    {
      "channel": 0,
      "note": 60,
      "start": 20.0628,
      "duration": 0.2166,
      "velocity": 103,
      "chip": "ym2612"
    },
    {
      "channel": 1,
      "note": 87,
      "start": 20.0631,
      "duration": 0.2166,
      "velocity": 103,
      "chip": "ym2612"
    },
    {
      "channel": 2,
      "note": 48,
      "start": 20.0634,
      "duration": 0.2167,
      "velocity": 103,
      "chip": "ym2612"
    },
    {
      "channel": 3,
      "note": 72,
      "start": 20.0637,
      "duration": 0.2167,
      "velocity": 91,
      "chip": "ym2612"
    },
    {
      "channel": 4,
      "note": 83,
      "start": 20.064,
      "duration": 0.2166,
      "velocity": 103,
      "chip": "ym2612"
    },
    {
      "channel": 0,
      "note": 61,
      "start": 20.2796,
      "duration": 0.0537,
      "velocity": 103,
      "chip": "ym2612"
    },
    {
      "channel": 1,
      "note": 88,
      "start": 20.2799,
      "duration": 1.0075,
      "velocity": 103,
      "chip": "ym2612"
    },
    {
      "channel": 2,
      "note": 49,
      "start": 20.2803,
      "duration": 0.0535,
      "velocity": 103,
      "chip": "ym2612"
    },
    {
      "channel": 3,
      "note": 73,
      "start": 20.2806,
      "duration": 0.0535,
      "velocity": 91,
      "chip": "ym2612"
    },
    {
      "channel": 4,
      "note": 87,
      "start": 20.2809,
      "duration": 0.0534,
      "velocity": 103,
      "chip": "ym2612"
    },
    {
      "channel": 0,
      "note": 61,
      "start": 20.3335,
      "duration": 0.2332,
      "velocity": 103,
      "chip": "ym2612"
    },
    {
      "channel": 2,
      "note": 49,
      "start": 20.3339,
      "duration": 0.2332,
      "velocity": 103,
      "chip": "ym2612"
    },
    {
      "channel": 3,
      "note": 76,
      "start": 20.3342,
      "duration": 0.2332,
      "velocity": 91,
      "chip": "ym2612"
    },
    {
      "channel": 4,
      "note": 88,
      "start": 20.3346,
      "duration": 1.1704,
      "velocity": 103,
      "chip": "ym2612"
    },
    {
      "channel": 0,
      "note": 68,
      "start": 20.5668,
      "duration": 0.2165,
      "velocity": 103,
      "chip": "ym2612"
    },
    {
      "channel": 2,
      "note": 56,
      "start": 20.5673,
      "duration": 0.2165,
      "velocity": 103,
      "chip": "ym2612"
    },
    {
      "channel": 3,
      "note": 75,
      "start": 20.5675,
      "duration": 0.2166,
      "velocity": 91,
      "chip": "ym2612"
    },
    {
      "channel": 0,
      "note": 68,
      "start": 20.7835,
      "duration": 0.2165,
      "velocity": 103,
      "chip": "ym2612"
    },
    {
      "channel": 2,
      "note": 56,
      "start": 20.7839,
      "duration": 0.2165,
      "velocity": 103,
      "chip": "ym2612"
    },
    {
      "channel": 3,
      "note": 66,
      "start": 20.7842,
      "duration": 0.219,
      "velocity": 91,
      "chip": "ym2612"
    },
    {
      "channel": 0,
      "note": 67,
      "start": 21.0001,
      "duration": 0.0703,
      "velocity": 103,
      "chip": "ym2612"
    },
    {
      "channel": 2,
      "note": 55,
      "start": 21.0006,
      "duration": 0.0703,
      "velocity": 103,
      "chip": "ym2612"
    },
    {
      "channel": 0,
      "note": 67,
      "start": 21.0706,
      "duration": 0.2165,
      "velocity": 103,
      "chip": "ym2612"
    },
    {
      "channel": 2,
      "note": 55,
      "start": 21.0711,
      "duration": 0.2165,
      "velocity": 103,
      "chip": "ym2612"
    },
    {
      "channel": 3,
      "note": 67,
      "start": 21.0715,
      "duration": 0.3324,
      "velocity": 91,
      "chip": "ym2612"
    },
    {
      "channel": 0,
      "note": 63,
      "start": 21.2873,
      "duration": 0.2165,
      "velocity": 103,
      "chip": "ym2612"
    },
    {
      "channel": 2,
      "note": 51,
      "start": 21.2877,
      "duration": 0.2167,
      "velocity": 103,
      "chip": "ym2612"
    },
    {
      "channel": 0,
      "note": 63,
      "start": 21.5039,
      "duration": 0.2332,
      "velocity": 103,
      "chip": "ym2612"
    },
    {
      "channel": 1,
      "note": 87,
      "start": 21.5043,
      "duration": 0.2332,
      "velocity": 103,
      "chip": "ym2612"
    },
    {
      "channel": 2,
      "note": 51,
      "start": 21.5046,
      "duration": 0.233,
      "velocity": 103,
      "chip": "ym2612"
    },
    {
      "channel": 3,
      "note": 68,
      "start": 21.5049,
      "duration": 0.2857,
      "velocity": 91,
      "chip": "ym2612"
    },
    {
      "channel": 0,
      "note": 66,
      "start": 21.7373,
      "duration": 0.0524,
      "velocity": 103,
      "chip": "ym2612"
    },
    {
      "channel": 2,
      "note": 54,
      "start": 21.7377,
      "duration": 0.0526,
      "velocity": 103,
      "chip": "ym2612"
    },
    {
      "channel": 4,
      "note": 87,
      "start": 21.7382,
      "duration": 0.0527,
      "velocity": 103,
      "chip": "ym2612"
    },
    {
      "channel": 0,
      "note": 66,
      "start": 21.7899,
      "duration": 0.2165,
      "velocity": 103,
      "chip": "ym2612"
    },
    {
      "channel": 1,
      "note": 91,
      "start": 21.7902,
      "duration": 0.2165,
      "velocity": 103,
      "chip": "ym2612"
    },
    {
      "channel": 2,
      "note": 54,
      "start": 21.7905,
      "duration": 0.2165,
      "velocity": 103,
      "chip": "ym2612"
    },
    {
      "channel": 3,
      "note": 63,
      "start": 21.7908,
      "duration": 0.2165,
      "velocity": 91,
      "chip": "ym2612"
    },
    {
      "channel": 0,
      "note": 62,
      "start": 22.0066,
      "duration": 0.2332,
      "velocity": 103,
      "chip": "ym2612"
    },
    {
      "channel": 1,
      "note": 91,
      "start": 22.0069,
      "duration": 0.2332,
      "velocity": 103,
      "chip": "ym2612"
    },
    {
      "channel": 2,
      "note": 50,
      "start": 22.0072,
      "duration": 0.2332,
      "velocity": 103,
      "chip": "ym2612"
    },
    {
      "channel": 3,
      "note": 64,
      "start": 22.0075,
      "duration": 0.2331,
      "velocity": 91,
      "chip": "ym2612"
    },
    {
      "channel": 4,
      "note": 91,
      "start": 22.0078,
      "duration": 0.2331,
      "velocity": 103,
      "chip": "ym2612"
    },
    {
      "channel": 0,
      "note": 62,
      "start": 22.2399,
      "duration": 0.0045,
      "velocity": 103,
      "chip": "ym2612"
    },
    {
      "channel": 1,
      "note": 86,
      "start": 22.2402,
      "duration": 0.0045,
      "velocity": 103,
      "chip": "ym2612"
    },
    {
      "channel": 2,
      "note": 50,
      "start": 22.2405,
      "duration": 0.0044,
      "velocity": 103,
      "chip": "ym2612"
    },
    {
      "channel": 3,
      "note": 65,
      "start": 22.2408,
      "duration": 0.0019,
      "velocity": 91,
      "chip": "ym2612"
    },
    {
      "channel": 4,
      "note": 91,
      "start": 22.2411,
      "duration": 0.0044,
      "velocity": 103,
      "chip": "ym2612"
    },
    {
      "channel": 3,
      "note": 66,
      "start": 22.2428,
      "duration": 0.0024,
      "velocity": 91,
      "chip": "ym2612"
    },
    {
      "channel": 0,
      "note": 65,
      "start": 22.2446,
      "duration": 0.0524,
      "velocity": 103,
      "chip": "ym2612"
    },
    {
      "channel": 1,
      "note": 86,
      "start": 22.2449,
      "duration": 0.0524,
      "velocity": 103,
      "chip": "ym2612"
    },
    {
      "channel": 2,
      "note": 53,
      "start": 22.2451,
      "duration": 0.0524,
      "velocity": 103,
      "chip": "ym2612"
    },
    {
      "channel": 3,
      "note": 67,
      "start": 22.2454,
      "duration": 0.0525,
      "velocity": 91,
      "chip": "ym2612"
    },
    {
      "channel": 4,
      "note": 86,
      "start": 22.2456,
      "duration": 0.0525,
      "velocity": 103,
      "chip": "ym2612"
    },
    {
      "channel": 0,
      "note": 65,
      "start": 22.2971,
      "duration": 0.0043,
      "velocity": 103,
      "chip": "ym2612"
    },
    {
      "channel": 1,
      "note": 85,
      "start": 22.2974,
      "duration": 0.0042,
      "velocity": 103,
      "chip": "ym2612"
    },
    {
      "channel": 2,
      "note": 53,
      "start": 22.2978,
      "duration": 0.0041,
      "velocity": 103,
      "chip": "ym2612"
    },
    {
      "channel": 3,
      "note": 68,
      "start": 22.2981,
      "duration": 0.0041,
      "velocity": 91,
      "chip": "ym2612"
    },
    {
      "channel": 4,
      "note": 86,
      "start": 22.2984,
      "duration": 0.004,
      "velocity": 103,
      "chip": "ym2612"
    },
    {
      "channel": 0,
      "note": 60,
      "start": 22.3016,
      "duration": 0.0039,
      "velocity": 103,
      "chip": "ym2612"
    },
    {
      "channel": 1,
      "note": 85,
      "start": 22.3018,
      "duration": 0.0039,
      "velocity": 103,
      "chip": "ym2612"
    },
    {
      "channel": 2,
      "note": 48,
      "start": 22.3021,
      "duration": 0.004,
      "velocity": 103,
      "chip": "ym2612"
    },
    {
      "channel": 3,
      "note": 67,
      "start": 22.3023,
      "duration": 0.0041,
      "velocity": 91,
      "chip": "ym2612"
    },
    {
      "channel": 4,
      "note": 85,
      "start": 22.3026,
      "duration": 0.0041,
      "velocity": 103,
      "chip": "ym2612"
    },
    {
      "channel": 0,
      "note": 60,
      "start": 22.3057,
      "duration": 0.0042,
      "velocity": 103,
      "chip": "ym2612"
    },
    {
      "channel": 1,
      "note": 84,
      "start": 22.306,
      "duration": 0.0058,
      "velocity": 105,
      "chip": "ym2612"
    },
    {
      "channel": 2,
      "note": 48,
      "start": 22.3063,
      "duration": 0.0074,
      "velocity": 97,
      "chip": "ym2612"
    },
    {
      "channel": 3,
      "note": 60,
      "start": 22.3066,
      "duration": 0.0089,
      "velocity": 97,
      "chip": "ym2612"
    },
    {
      "channel": 4,
      "note": 85,
      "start": 22.307,
      "duration": 0.0102,
      "velocity": 105,
      "chip": "ym2612"
    },
    {
      "channel": 0,
      "note": 57,
      "start": 22.3101,
      "duration": 0.0116,
      "velocity": 103,
      "chip": "ym2612"
    },
    {
      "channel": 1,
      "note": 85,
      "start": 22.312,
      "duration": 0.7458,
      "velocity": 105,
      "chip": "ym2612"
    },
    {
      "channel": 2,
      "note": 57,
      "start": 22.3138,
      "duration": 0.1634,
      "velocity": 97,
      "chip": "ym2612"
    },
    {
      "channel": 3,
      "note": 57,
      "start": 22.3156,
      "duration": 0.162,
      "velocity": 97,
      "chip": "ym2612"
    },
    {
      "channel": 4,
      "note": 85,
      "start": 22.3189,
      "duration": 0.7396,
      "velocity": 105,
      "chip": "ym2612"
    },
    {
      "channel": 0,
      "note": 57,
      "start": 22.3816,
      "duration": 0.003,
      "velocity": 103,
      "chip": "ym2612"
    },
    {
      "channel": 0,
      "note": 57,
      "start": 22.3876,
      "duration": 0.0023,
      "velocity": 103,
      "chip": "ym2612"
    },
    {
      "channel": 0,
      "note": 57,
      "start": 22.477,
      "duration": 0.0039,
      "velocity": 103,
      "chip": "ym2612"
    },
    {
      "channel": 2,
      "note": 61,
      "start": 22.4774,
      "duration": 0.2771,
      "velocity": 97,
      "chip": "ym2612"
    },
    {
      "channel": 3,
      "note": 61,
      "start": 22.4778,
      "duration": 0.2771,
      "velocity": 97,
      "chip": "ym2612"
    },
    {
      "channel": 0,
      "note": 57,
      "start": 22.484,
      "duration": 0.0024,
      "velocity": 103,
      "chip": "ym2612"
    },
    {
      "channel": 0,
      "note": 57,
      "start": 22.5376,
      "duration": 0.1165,
      "velocity": 103,
      "chip": "ym2612"
    },
    {
      "channel": 0,
      "note": 57,
      "start": 22.7543,
      "duration": 0.1165,
      "velocity": 103,
      "chip": "ym2612"
    },
    {
      "channel": 2,
      "note": 63,
      "start": 22.7547,
      "duration": 0.2391,
      "velocity": 97,
      "chip": "ym2612"
    },
    {
      "channel": 3,
      "note": 63,
      "start": 22.755,
      "duration": 0.2391,
      "velocity": 97,
      "chip": "ym2612"
    },
    {
      "channel": 0,
      "note": 57,
      "start": 22.9876,
      "duration": 0.0027,
      "velocity": 103,
      "chip": "ym2612"
    },
    {
      "channel": 0,
      "note": 57,
      "start": 22.9936,
      "duration": 0.0056,
      "velocity": 103,
      "chip": "ym2612"
    },
    {
      "channel": 2,
      "note": 68,
      "start": 22.994,
      "duration": 0.0658,
      "velocity": 97,
      "chip": "ym2612"
    },
    {
      "channel": 3,
      "note": 68,
      "start": 22.9944,
      "duration": 0.0656,
      "velocity": 97,
      "chip": "ym2612"
    },
    {
      "channel": 0,
      "note": 57,
      "start": 23.0501,
      "duration": 0.0034,
      "velocity": 103,
      "chip": "ym2612"
    },
    {
      "channel": 0,
      "note": 57,
      "start": 23.0562,
      "duration": 0.002,
      "velocity": 103,
      "chip": "ym2612"
    },
    {
      "channel": 0,
      "note": 57,
      "start": 23.0595,
      "duration": 0.0028,
      "velocity": 103,
      "chip": "ym2612"
    },
    {
      "channel": 1,
      "note": 83,
      "start": 23.0597,
      "duration": 0.0942,
      "velocity": 105,
      "chip": "ym2612"
    },
    {
      "channel": 2,
      "note": 67,
      "start": 23.0599,
      "duration": 0.1671,
      "velocity": 97,
      "chip": "ym2612"
    },
    {
      "channel": 3,
      "note": 67,
      "start": 23.0602,
      "duration": 0.1673,
      "velocity": 97,
      "chip": "ym2612"
    },
    {
      "channel": 4,
      "note": 83,
      "start": 23.0609,
      "duration": 0.0939,
      "velocity": 105,
      "chip": "ym2612"
    },
    {
      "channel": 0,
      "note": 57,
      "start": 23.1502,
      "duration": 0.0044,
      "velocity": 103,
      "chip": "ym2612"
    },
    {
      "channel": 0,
      "note": 57,
      "start": 23.2221,
      "duration": 0.0026,
      "velocity": 103,
      "chip": "ym2612"
    },
    {
      "channel": 1,
      "note": 80,
      "start": 23.2224,
      "duration": 0.0017,
      "velocity": 105,
      "chip": "ym2612"
    },
    {
      "channel": 4,
      "note": 80,
      "start": 23.2238,
      "duration": 0.0012,
      "velocity": 105,
      "chip": "ym2612"
    },
    {
      "channel": 0,
      "note": 57,
      "start": 23.2266,
      "duration": 0.004,
      "velocity": 103,
      "chip": "ym2612"
    },
    {
      "channel": 1,
      "note": 80,
      "start": 23.227,
      "duration": 0.0065,
      "velocity": 105,
      "chip": "ym2612"
    },
    {
      "channel": 2,
      "note": 63,
      "start": 23.2273,
      "duration": 0.0118,
      "velocity": 97,
      "chip": "ym2612"
    },
    {
      "channel": 3,
      "note": 63,
      "start": 23.2277,
      "duration": 0.0118,
      "velocity": 97,
      "chip": "ym2612"
    },
    {
      "channel": 4,
      "note": 80,
      "start": 23.2289,
      "duration": 0.0059,
      "velocity": 105,
      "chip": "ym2612"
    },
    {
      "channel": 0,
      "note": 57,
      "start": 23.2334,
      "duration": 0.0033,
      "velocity": 103,
      "chip": "ym2612"
    },
    {
      "channel": 1,
      "note": 78,
      "start": 23.2337,
      "duration": 0.0038,
      "velocity": 105,
      "chip": "ym2612"
    },
    {
      "channel": 4,
      "note": 78,
      "start": 23.235,
      "duration": 0.0031,
      "velocity": 105,
      "chip": "ym2612"
    },
    {
      "channel": 0,
      "note": 56,
      "start": 23.2386,
      "duration": 0.0049,
      "velocity": 103,
      "chip": "ym2612"
    },
    {
      "channel": 1,
      "note": 78,
      "start": 23.239,
      "duration": 0.0219,
      "velocity": 105,
      "chip": "ym2612"
    },
    {
      "channel": 2,
      "note": 56,
      "start": 23.2393,
      "duration": 0.1672,
      "velocity": 97,
      "chip": "ym2612"
    },
    {
      "channel": 3,
      "note": 56,
      "start": 23.2397,
      "duration": 0.1672,
      "velocity": 97,
      "chip": "ym2612"
    },
    {
      "channel": 4,
      "note": 78,
      "start": 23.2413,
      "duration": 0.0537,
      "velocity": 105,
      "chip": "ym2612"
    },
    {
      "channel": 0,
      "note": 56,
      "start": 23.2944,
      "duration": 0.0034,
      "velocity": 103,
      "chip": "ym2612"
    },
    {
      "channel": 1,
      "note": 80,
      "start": 23.2947,
      "duration": 0.5889,
      "velocity": 105,
      "chip": "ym2612"
    },
    {
      "channel": 4,
      "note": 80,
      "start": 23.2964,
      "duration": 0.6212,
      "velocity": 105,
      "chip": "ym2612"
    },
    {
      "channel": 0,
      "note": 56,
      "start": 23.2998,
      "duration": 0.0027,
      "velocity": 103,
      "chip": "ym2612"
    },
    {
      "channel": 0,
      "note": 56,
      "start": 23.4063,
      "duration": 0.0034,
      "velocity": 103,
      "chip": "ym2612"
    },
    {
      "channel": 2,
      "note": 61,
      "start": 23.4068,
      "duration": 0.2939,
      "velocity": 97,
      "chip": "ym2612"
    },
    {
      "channel": 3,
      "note": 61,
      "start": 23.4071,
      "duration": 0.2939,
      "velocity": 97,
      "chip": "ym2612"
    },
    {
      "channel": 0,
      "note": 56,
      "start": 23.4125,
      "duration": 0.0034,
      "velocity": 103,
      "chip": "ym2612"
    },
    {
      "channel": 0,
      "note": 56,
      "start": 23.467,
      "duration": 0.1165,
      "velocity": 103,
      "chip": "ym2612"
    },
    {
      "channel": 0,
      "note": 56,
      "start": 23.7003,
      "duration": 0.0998,
      "velocity": 103,
      "chip": "ym2612"
    },
    {
      "channel": 2,
      "note": 63,
      "start": 23.7008,
      "duration": 0.2232,
      "velocity": 97,
      "chip": "ym2612"
    },
    {
      "channel": 3,
      "note": 63,
      "start": 23.7011,
      "duration": 0.2233,
      "velocity": 97,
      "chip": "ym2612"
    },
    {
      "channel": 0,
      "note": 56,
      "start": 23.917,
      "duration": 0.0037,
      "velocity": 103,
      "chip": "ym2612"
    },
    {
      "channel": 1,
      "note": 79,
      "start": 23.9173,
      "duration": 0.002,
      "velocity": 105,
      "chip": "ym2612"
    },
    {
      "channel": 4,
      "note": 79,
      "start": 23.9188,
      "duration": 0.0022,
      "velocity": 105,
      "chip": "ym2612"
    },
    {
      "channel": 1,
      "note": 78,
      "start": 23.9195,
      "duration": 0.002,
      "velocity": 105,
      "chip": "ym2612"
    },
    {
      "channel": 4,
      "note": 78,
      "start": 23.9212,
      "duration": 0.0016,
      "velocity": 105,
      "chip": "ym2612"
    },
    {
      "channel": 1,
      "note": 76,
      "start": 23.9217,
      "duration": 0.002,
      "velocity": 105,
      "chip": "ym2612"
    },
    {
      "channel": 4,
      "note": 76,
      "start": 23.9229,
      "duration": 0.0028,
      "velocity": 105,
      "chip": "ym2612"
    },
    {
      "channel": 0,
      "note": 56,
      "start": 23.9236,
      "duration": 0.0044,
      "velocity": 103,
      "chip": "ym2612"
    },
    {
      "channel": 1,
      "note": 75,
      "start": 23.9239,
      "duration": 0.0782,
      "velocity": 105,
      "chip": "ym2612"
    },
    {
      "channel": 2,
      "note": 68,
      "start": 23.9242,
      "duration": 0.24,
      "velocity": 97,
      "chip": "ym2612"
    },
    {
      "channel": 3,
      "note": 68,
      "start": 23.9246,
      "duration": 0.24,
      "velocity": 97,
      "chip": "ym2612"
    },
    {
      "channel": 4,
      "note": 75,
      "start": 23.9259,
      "duration": 0.0772,
      "velocity": 105,
      "chip": "ym2612"
    },
    {
      "channel": 0,
      "note": 54,
      "start": 23.9951,
      "duration": 0.0025,
      "velocity": 103,
      "chip": "ym2612"
    },
    {
      "channel": 0,
      "note": 54,
      "start": 24.0002,
      "duration": 0.0026,
      "velocity": 103,
      "chip": "ym2612"
    },
    {
      "channel": 0,
      "note": 56,
      "start": 24.0039,
      "duration": 0.0011,
      "velocity": 103,
      "chip": "ym2612"
    },
    {
      "channel": 0,
      "note": 56,
      "start": 24.1099,
      "duration": 0.0029,
      "velocity": 103,
      "chip": "ym2612"
    },
    {
      "channel": 1,
      "note": 73,
      "start": 24.1102,
      "duration": 0.0018,
      "velocity": 105,
      "chip": "ym2612"
    },
    {
      "channel": 4,
      "note": 73,
      "start": 24.1115,
      "duration": 0.0015,
      "velocity": 105,
      "chip": "ym2612"
    },
    {
      "channel": 1,
      "note": 75,
      "start": 24.1135,
      "duration": 0.0505,
      "velocity": 105,
      "chip": "ym2612"
    },
    {
      "channel": 4,
      "note": 75,
      "start": 24.131,
      "duration": 0.0345,
      "velocity": 105,
      "chip": "ym2612"
    },
    {
      "channel": 0,
      "note": 57,
      "start": 24.1639,
      "duration": 0.0027,
      "velocity": 103,
      "chip": "ym2612"
    },
    {
      "channel": 2,
      "note": 63,
      "start": 24.1644,
      "duration": 0.0105,
      "velocity": 97,
      "chip": "ym2612"
    },
    {
      "channel": 3,
      "note": 63,
      "start": 24.1647,
      "duration": 0.0105,
      "velocity": 97,
      "chip": "ym2612"
    },
    {
      "channel": 1,
      "note": 76,
      "start": 24.1659,
      "duration": 0.0018,
      "velocity": 105,
      "chip": "ym2612"
    },
    {
      "channel": 4,
      "note": 76,
      "start": 24.1673,
      "duration": 0.0011,
      "velocity": 105,
      "chip": "ym2612"
    },
    {
      "channel": 0,
      "note": 57,
      "start": 24.1688,
      "duration": 0.0031,
      "velocity": 103,
      "chip": "ym2612"
    },
    {
      "channel": 1,
      "note": 80,
      "start": 24.1691,
      "duration": 0.0021,
      "velocity": 105,
      "chip": "ym2612"
    },
    {
      "channel": 4,
      "note": 80,
      "start": 24.1703,
      "duration": 0.0018,
      "velocity": 105,
      "chip": "ym2612"
    },
    {
      "channel": 1,
      "note": 83,
      "start": 24.1725,
      "duration": 0.0022,
      "velocity": 105,
      "chip": "ym2612"
    },
    {
      "channel": 4,
      "note": 83,
      "start": 24.1733,
      "duration": 0.0032,
      "velocity": 105,
      "chip": "ym2612"
    },
    {
      "channel": 0,
      "note": 59,
      "start": 24.1746,
      "duration": 0.0028,
      "velocity": 103,
      "chip": "ym2612"
    },
    {
      "channel": 2,
      "note": 61,
      "start": 24.175,
      "duration": 0.0052,
      "velocity": 97,
      "chip": "ym2612"
    },
    {
      "channel": 3,
      "note": 61,
      "start": 24.1754,
      "duration": 0.0052,
      "velocity": 97,
      "chip": "ym2612"
    },
    {
      "channel": 1,
      "note": 84,
      "start": 24.1769,
      "duration": 0.0016,
      "velocity": 105,
      "chip": "ym2612"
    },
    {
      "channel": 4,
      "note": 84,
      "start": 24.1778,
      "duration": 0.0015,
      "velocity": 105,
      "chip": "ym2612"
    },
    {
      "channel": 0,
      "note": 57,
      "start": 24.1798,
      "duration": 0.0063,
      "velocity": 103,
      "chip": "ym2612"
    },
    {
      "channel": 1,
      "note": 85,
      "start": 24.1801,
      "duration": 0.7084,
      "velocity": 105,
      "chip": "ym2612"
    },
    {
      "channel": 2,
      "note": 57,
      "start": 24.1805,
      "duration": 0.168,
      "velocity": 97,
      "chip": "ym2612"
    },
    {
      "channel": 3,
      "note": 57,
      "start": 24.1809,
      "duration": 0.1679,
      "velocity": 97,
      "chip": "ym2612"
    },
    {
      "channel": 4,
      "note": 85,
      "start": 24.1832,
      "duration": 0.7393,
      "velocity": 105,
      "chip": "ym2612"
    },
    {
      "channel": 0,
      "note": 57,
      "start": 24.2364,
      "duration": 0.0031,
      "velocity": 103,
      "chip": "ym2612"
    },
    {
      "channel": 0,
      "note": 57,
      "start": 24.242,
      "duration": 0.0022,
      "velocity": 103,
      "chip": "ym2612"
    },
    {
      "channel": 0,
      "note": 57,
      "start": 24.3482,
      "duration": 0.0036,
      "velocity": 103,
      "chip": "ym2612"
    },
    {
      "channel": 2,
      "note": 61,
      "start": 24.3486,
      "duration": 0.2945,
      "velocity": 97,
      "chip": "ym2612"
    },
    {
      "channel": 3,
      "note": 61,
      "start": 24.349,
      "duration": 0.2945,
      "velocity": 97,
      "chip": "ym2612"
    },
    {
      "channel": 0,
      "note": 57,
      "start": 24.3548,
      "duration": 0.0035,
      "velocity": 103,
      "chip": "ym2612"
    },
    {
      "channel": 0,
      "note": 57,
      "start": 24.4262,
      "duration": 0.0998,
      "velocity": 103,
      "chip": "ym2612"
    },
    {
      "channel": 0,
      "note": 57,
      "start": 24.6429,
      "duration": 0.1165,
      "velocity": 103,
      "chip": "ym2612"
    },
    {
      "channel": 2,
      "note": 63,
      "start": 24.6433,
      "duration": 0.2226,
      "velocity": 97,
      "chip": "ym2612"
    },
    {
      "channel": 3,
      "note": 63,
      "start": 24.6436,
      "duration": 0.2226,
      "velocity": 97,
      "chip": "ym2612"
    },
    {
      "channel": 0,
      "note": 57,
      "start": 24.8595,
      "duration": 0.0033,
      "velocity": 103,
      "chip": "ym2612"
    },
    {
      "channel": 0,
      "note": 57,
      "start": 24.8657,
      "duration": 0.0051,
      "velocity": 103,
      "chip": "ym2612"
    },
    {
      "channel": 2,
      "note": 68,
      "start": 24.8661,
      "duration": 0.067,
      "velocity": 97,
      "chip": "ym2612"
    },
    {
      "channel": 3,
      "note": 68,
      "start": 24.8665,
      "duration": 0.0669,
      "velocity": 97,
      "chip": "ym2612"
    },
    {
      "channel": 0,
      "note": 57,
      "start": 24.922,
      "duration": 0.0033,
      "velocity": 103,
      "chip": "ym2612"
    },
    {
      "channel": 1,
      "note": 83,
      "start": 24.9223,
      "duration": 0.0031,
      "velocity": 105,
      "chip": "ym2612"
    },
    {
      "channel": 4,
      "note": 83,
      "start": 24.9239,
      "duration": 0.0023,
      "velocity": 105,
      "chip": "ym2612"
    },
    {
      "channel": 0,
      "note": 57,
      "start": 24.9269,
      "duration": 0.0031,
      "velocity": 103,
      "chip": "ym2612"
    },
    {
      "channel": 1,
      "note": 83,
      "start": 24.9272,
      "duration": 0.0058,
      "velocity": 105,
      "chip": "ym2612"
    },
    {
      "channel": 4,
      "note": 83,
      "start": 24.9285,
      "duration": 0.0059,
      "velocity": 105,
      "chip": "ym2612"
    },
    {
      "channel": 0,
      "note": 57,
      "start": 24.9329,
      "duration": 0.0028,
      "velocity": 103,
      "chip": "ym2612"
    },
    {
      "channel": 1,
      "note": 80,
      "start": 24.9332,
      "duration": 0.0729,
      "velocity": 105,
      "chip": "ym2612"
    },
    {
      "channel": 2,
      "note": 67,
      "start": 24.9334,
      "duration": 0.1694,
      "velocity": 97,
      "chip": "ym2612"
    },
    {
      "channel": 3,
      "note": 67,
      "start": 24.9336,
      "duration": 0.1695,
      "velocity": 97,
      "chip": "ym2612"
    },
    {
      "channel": 4,
      "note": 80,
      "start": 24.9345,
      "duration": 0.1056,
      "velocity": 105,
      "chip": "ym2612"
    },
    {
      "channel": 0,
      "note": 57,
      "start": 25.0395,
      "duration": 0.0052,
      "velocity": 103,
      "chip": "ym2612"
    },
    {
      "channel": 1,
      "note": 80,
      "start": 25.0398,
      "duration": 0.0225,
      "velocity": 105,
      "chip": "ym2612"
    },
    {
      "channel": 4,
      "note": 80,
      "start": 25.0421,
      "duration": 0.0543,
      "velocity": 105,
      "chip": "ym2612"
    },
    {
      "channel": 0,
      "note": 57,
      "start": 25.0957,
      "duration": 0.0038,
      "velocity": 103,
      "chip": "ym2612"
    },
    {
      "channel": 1,
      "note": 78,
      "start": 25.096,
      "duration": 0.0054,
      "velocity": 105,
      "chip": "ym2612"
    },
    {
      "channel": 4,
      "note": 78,
      "start": 25.0979,
      "duration": 0.0055,
      "velocity": 105,
      "chip": "ym2612"
    },
    {
      "channel": 0,
      "note": 57,
      "start": 25.1023,
      "duration": 0.0038,
      "velocity": 103,
      "chip": "ym2612"
    },
    {
      "channel": 1,
      "note": 78,
      "start": 25.1027,
      "duration": 0.0055,
      "velocity": 105,
      "chip": "ym2612"
    },
    {
      "channel": 2,
      "note": 63,
      "start": 25.103,
      "duration": 0.0124,
      "velocity": 97,
      "chip": "ym2612"
    },
    {
      "channel": 3,
      "note": 63,
      "start": 25.1033,
      "duration": 0.0124,
      "velocity": 97,
      "chip": "ym2612"
    },
    {
      "channel": 4,
      "note": 78,
      "start": 25.1046,
      "duration": 0.0049,
      "velocity": 105,
      "chip": "ym2612"
    },
    {
      "channel": 0,
      "note": 57,
      "start": 25.109,
      "duration": 0.0036,
      "velocity": 103,
      "chip": "ym2612"
    },
    {
      "channel": 1,
      "note": 88,
      "start": 25.1093,
      "duration": 0.005,
      "velocity": 105,
      "chip": "ym2612"
    },
    {
      "channel": 4,
      "note": 88,
      "start": 25.1106,
      "duration": 0.0054,
      "velocity": 105,
      "chip": "ym2612"
    },
    {
      "channel": 0,
      "note": 56,
      "start": 25.115,
      "duration": 0.0052,
      "velocity": 103,
      "chip": "ym2612"
    },
    {
      "channel": 1,
      "note": 87,
      "start": 25.1153,
      "duration": 0.5285,
      "velocity": 105,
      "chip": "ym2612"
    },
    {
      "channel": 2,
      "note": 56,
      "start": 25.1156,
      "duration": 0.1676,
      "velocity": 97,
      "chip": "ym2612"
    },
    {
      "channel": 3,
      "note": 56,
      "start": 25.1159,
      "duration": 0.1676,
      "velocity": 97,
      "chip": "ym2612"
    },
    {
      "channel": 4,
      "note": 87,
      "start": 25.1177,
      "duration": 0.5598,
      "velocity": 105,
      "chip": "ym2612"
    },
    {
      "channel": 0,
      "note": 56,
      "start": 25.1873,
      "duration": 0.003,
      "velocity": 103,
      "chip": "ym2612"
    },
    {
      "channel": 0,
      "note": 56,
      "start": 25.1932,
      "duration": 0.0024,
      "velocity": 103,
      "chip": "ym2612"
    },
    {
      "channel": 0,
      "note": 56,
      "start": 25.2829,
      "duration": 0.0036,
      "velocity": 103,
      "chip": "ym2612"
    },
    {
      "channel": 2,
      "note": 61,
      "start": 25.2834,
      "duration": 0.2775,
      "velocity": 97,
      "chip": "ym2612"
    },
    {
      "channel": 3,
      "note": 61,
      "start": 25.2837,
      "duration": 0.2775,
      "velocity": 97,
      "chip": "ym2612"
    },
    {
      "channel": 0,
      "note": 56,
      "start": 25.2896,
      "duration": 0.0026,
      "velocity": 103,
      "chip": "ym2612"
    },
    {
      "channel": 0,
      "note": 56,
      "start": 25.3439,
      "duration": 0.1165,
      "velocity": 103,
      "chip": "ym2612"
    },
    {
      "channel": 0,
      "note": 56,
      "start": 25.5605,
      "duration": 0.1165,
      "velocity": 103,
      "chip": "ym2612"
    },
    {
      "channel": 2,
      "note": 63,
      "start": 25.561,
      "duration": 0.2368,
      "velocity": 97,
      "chip": "ym2612"
    },
    {
      "channel": 3,
      "note": 63,
      "start": 25.5613,
      "duration": 0.2368,
      "velocity": 97,
      "chip": "ym2612"
    },
    {
      "channel": 0,
      "note": 56,
      "start": 25.7939,
      "duration": 0.0013,
      "velocity": 103,
      "chip": "ym2612"
    },
    {
      "channel": 0,
      "note": 56,
      "start": 25.7977,
      "duration": 0.0019,
      "velocity": 103,
      "chip": "ym2612"
    },
    {
      "channel": 2,
      "note": 68,
      "start": 25.798,
      "duration": 0.0249,
      "velocity": 97,
      "chip": "ym2612"
    },
    {
      "channel": 3,
      "note": 68,
      "start": 25.7984,
      "duration": 0.0247,
      "velocity": 97,
      "chip": "ym2612"
    },
    {
      "channel": 1,
      "note": 85,
      "start": 25.8001,
      "duration": 0.0017,
      "velocity": 105,
      "chip": "ym2612"
    },
    {
      "channel": 4,
      "note": 85,
      "start": 25.8012,
      "duration": 0.0015,
      "velocity": 105,
      "chip": "ym2612"
    },
    {
      "channel": 0,
      "note": 54,
      "start": 25.8018,
      "duration": 0.0025,
      "velocity": 103,
      "chip": "ym2612"
    },
    {
      "channel": 1,
      "note": 84,
      "start": 25.8033,
      "duration": 0.002,
      "velocity": 105,
      "chip": "ym2612"
    },
    {
      "channel": 4,
      "note": 84,
      "start": 25.8049,
      "duration": 0.0012,
      "velocity": 105,
      "chip": "ym2612"
    },
    {
      "channel": 0,
      "note": 54,
      "start": 25.8066,
      "duration": 0.0029,
      "velocity": 103,
      "chip": "ym2612"
    },
    {
      "channel": 1,
      "note": 85,
      "start": 25.8069,
      "duration": 0.0019,
      "velocity": 105,
      "chip": "ym2612"
    },
    {
      "channel": 4,
      "note": 85,
      "start": 25.8084,
      "duration": 0.0013,
      "velocity": 105,
      "chip": "ym2612"
    },
    {
      "channel": 1,
      "note": 87,
      "start": 25.81,
      "duration": 0.0022,
      "velocity": 105,
      "chip": "ym2612"
    },
    {
      "channel": 4,
      "note": 87,
      "start": 25.8114,
      "duration": 0.0017,
      "velocity": 105,
      "chip": "ym2612"
    },
    {
      "channel": 0,
      "note": 56,
      "start": 25.8122,
      "duration": 0.002,
      "velocity": 103,
      "chip": "ym2612"
    },
    {
      "channel": 1,
      "note": 88,
      "start": 25.8134,
      "duration": 0.002,
      "velocity": 105,
      "chip": "ym2612"
    },
    {
      "channel": 4,
      "note": 88,
      "start": 25.8148,
      "duration": 0.0013,
      "velocity": 105,
      "chip": "ym2612"
    },
    {
      "channel": 0,
      "note": 56,
      "start": 25.8166,
      "duration": 0.0034,
      "velocity": 103,
      "chip": "ym2612"
    },
    {
      "channel": 1,
      "note": 90,
      "start": 25.8169,
      "duration": 0.0024,
      "velocity": 105,
      "chip": "ym2612"
    },
    {
      "channel": 4,
      "note": 90,
      "start": 25.8183,
      "duration": 0.002,
      "velocity": 105,
      "chip": "ym2612"
    },
    {
      "channel": 1,
      "note": 88,
      "start": 25.8206,
      "duration": 0.0021,
      "velocity": 105,
      "chip": "ym2612"
    },
    {
      "channel": 4,
      "note": 88,
      "start": 25.8216,
      "duration": 0.0023,
      "velocity": 105,
      "chip": "ym2612"
    },
    {
      "channel": 0,
      "note": 57,
      "start": 25.8226,
      "duration": 0.0027,
      "velocity": 103,
      "chip": "ym2612"
    },
    {
      "channel": 2,
      "note": 63,
      "start": 25.823,
      "duration": 0.011,
      "velocity": 97,
      "chip": "ym2612"
    },
    {
      "channel": 3,
      "note": 63,
      "start": 25.8232,
      "duration": 0.011,
      "velocity": 97,
      "chip": "ym2612"
    },
    {
      "channel": 1,
      "note": 90,
      "start": 25.8244,
      "duration": 0.002,
      "velocity": 105,
      "chip": "ym2612"
    },
    {
      "channel": 4,
      "note": 90,
      "start": 25.8258,
      "duration": 0.0015,
      "velocity": 105,
      "chip": "ym2612"
    },
    {
      "channel": 0,
      "note": 57,
      "start": 25.8277,
      "duration": 0.0032,
      "velocity": 103,
      "chip": "ym2612"
    },
    {
      "channel": 1,
      "note": 92,
      "start": 25.8281,
      "duration": 0.002,
      "velocity": 105,
      "chip": "ym2612"
    },
    {
      "channel": 4,
      "note": 92,
      "start": 25.8296,
      "duration": 0.0015,
      "velocity": 105,
      "chip": "ym2612"
    },
    {
      "channel": 1,
      "note": 90,
      "start": 25.8315,
      "duration": 0.0024,
      "velocity": 105,
      "chip": "ym2612"
    },
    {
      "channel": 4,
      "note": 90,
      "start": 25.8329,
      "duration": 0.0021,
      "velocity": 105,
      "chip": "ym2612"
    },
    {
      "channel": 0,
      "note": 59,
      "start": 25.8338,
      "duration": 0.0027,
      "velocity": 103,
      "chip": "ym2612"
    },
    {
      "channel": 2,
      "note": 61,
      "start": 25.8342,
      "duration": 0.0053,
      "velocity": 97,
      "chip": "ym2612"
    },
    {
      "channel": 3,
      "note": 61,
      "start": 25.8344,
      "duration": 0.0054,
      "velocity": 97,
      "chip": "ym2612"
    },
    {
      "channel": 1,
      "note": 93,
      "start": 25.8357,
      "duration": 0.0018,
      "velocity": 105,
      "chip": "ym2612"
    },
    {
      "channel": 4,
      "note": 93,
      "start": 25.837,
      "duration": 0.0013,
      "velocity": 105,
      "chip": "ym2612"
    },
    {
      "channel": 0,
      "note": 57,
      "start": 25.8389,
      "duration": 0.0051,
      "velocity": 103,
      "chip": "ym2612"
    },
    {
      "channel": 1,
      "note": 92,
      "start": 25.8392,
      "duration": 0.0606,
      "velocity": 105,
      "chip": "ym2612"
    },
    {
      "channel": 2,
      "note": 57,
      "start": 25.8397,
      "duration": 0.168,
      "velocity": 97,
      "chip": "ym2612"
    },
    {
      "channel": 3,
      "note": 57,
      "start": 25.84,
      "duration": 0.1679,
      "velocity": 97,
      "chip": "ym2612"
    },
    {
      "channel": 4,
      "note": 92,
      "start": 25.8419,
      "duration": 0.0591,
      "velocity": 105,
      "chip": "ym2612"
    },
    {
      "channel": 0,
      "note": 57,
      "start": 25.895,
      "duration": 0.0032,
      "velocity": 103,
      "chip": "ym2612"
    },
    {
      "channel": 0,
      "note": 57,
      "start": 25.9005,
      "duration": 0.0026,
      "velocity": 103,
      "chip": "ym2612"
    },
    {
      "channel": 1,
      "note": 90,
      "start": 25.9008,
      "duration": 0.0563,
      "velocity": 105,
      "chip": "ym2612"
    },
    {
      "channel": 4,
      "note": 90,
      "start": 25.9017,
      "duration": 0.1066,
      "velocity": 105,
      "chip": "ym2612"
    },
    {
      "channel": 0,
      "note": 57,
      "start": 26.0072,
      "duration": 0.0035,
      "velocity": 103,
      "chip": "ym2612"
    },
    {
      "channel": 1,
      "note": 85,
      "start": 26.0075,
      "duration": 0.0104,
      "velocity": 105,
      "chip": "ym2612"
    },
    {
      "channel": 2,
      "note": 61,
      "start": 26.0078,
      "duration": 0.2935,
      "velocity": 97,
      "chip": "ym2612"
    },
    {
      "channel": 3,
      "note": 61,
      "start": 26.0082,
      "duration": 0.2935,
      "velocity": 97,
      "chip": "ym2612"
    },
    {
      "channel": 4,
      "note": 85,
      "start": 26.0094,
      "duration": 0.0252,
      "velocity": 105,
      "chip": "ym2612"
    },
    {
      "channel": 0,
      "note": 57,
      "start": 26.0136,
      "duration": 0.0033,
      "velocity": 103,
      "chip": "ym2612"
    },
    {
      "channel": 0,
      "note": 57,
      "start": 26.0678,
      "duration": 0.1165,
      "velocity": 103,
      "chip": "ym2612"
    },
    {
      "channel": 1,
      "note": 92,
      "start": 26.0681,
      "duration": 0.3662,
      "velocity": 105,
      "chip": "ym2612"
    },
    {
      "channel": 4,
      "note": 92,
      "start": 26.1016,
      "duration": 0.383,
      "velocity": 105,
      "chip": "ym2612"
    },
    {
      "channel": 0,
      "note": 57,
      "start": 26.3011,
      "duration": 0.0998,
      "velocity": 103,
      "chip": "ym2612"
    },
    {
      "channel": 2,
      "note": 63,
      "start": 26.3016,
      "duration": 0.2224,
      "velocity": 97,
      "chip": "ym2612"
    },
    {
      "channel": 3,
      "note": 63,
      "start": 26.3019,
      "duration": 0.2223,
      "velocity": 97,
      "chip": "ym2612"
    },
    {
      "channel": 0,
      "note": 57,
      "start": 26.5178,
      "duration": 0.0034,
      "velocity": 103,
      "chip": "ym2612"
    },
    {
      "channel": 1,
      "note": 90,
      "start": 26.5181,
      "duration": 0.0047,
      "velocity": 105,
      "chip": "ym2612"
    },
    {
      "channel": 4,
      "note": 90,
      "start": 26.5195,
      "duration": 0.005,
      "velocity": 105,
      "chip": "ym2612"
    },
    {
      "channel": 0,
      "note": 57,
      "start": 26.5234,
      "duration": 0.0059,
      "velocity": 103,
      "chip": "ym2612"
    },
    {
      "channel": 1,
      "note": 85,
      "start": 26.5238,
      "duration": 0.0805,
      "velocity": 105,
      "chip": "ym2612"
    },
    {
      "channel": 2,
      "note": 68,
      "start": 26.5241,
      "duration": 0.0824,
      "velocity": 97,
      "chip": "ym2612"
    },
    {
      "channel": 3,
      "note": 68,
      "start": 26.5245,
      "duration": 0.0824,
      "velocity": 97,
      "chip": "ym2612"
    },
    {
      "channel": 4,
      "note": 85,
      "start": 26.5266,
      "duration": 0.0788,
      "velocity": 105,
      "chip": "ym2612"
    },
    {
      "channel": 0,
      "note": 57,
      "start": 26.5968,
      "duration": 0.003,
      "velocity": 103,
      "chip": "ym2612"
    },
    {
      "channel": 0,
      "note": 57,
      "start": 26.6028,
      "duration": 0.0023,
      "velocity": 103,
      "chip": "ym2612"
    },
    {
      "channel": 0,
      "note": 57,
      "start": 26.6062,
      "duration": 0.0026,
      "velocity": 103,
      "chip": "ym2612"
    },
    {
      "channel": 1,
      "note": 92,
      "start": 26.6065,
      "duration": 0.0567,
      "velocity": 105,
      "chip": "ym2612"
    },
    {
      "channel": 2,
      "note": 67,
      "start": 26.6067,
      "duration": 0.1699,
      "velocity": 97,
      "chip": "ym2612"
    },
    {
      "channel": 3,
      "note": 67,
      "start": 26.6071,
      "duration": 0.1699,
      "velocity": 97,
      "chip": "ym2612"
    },
    {
      "channel": 4,
      "note": 92,
      "start": 26.6078,
      "duration": 0.1062,
      "velocity": 105,
      "chip": "ym2612"
    },
    {
      "channel": 0,
      "note": 57,
      "start": 26.7133,
      "duration": 0.0049,
      "velocity": 103,
      "chip": "ym2612"
    },
    {
      "channel": 1,
      "note": 90,
      "start": 26.7136,
      "duration": 0.0227,
      "velocity": 105,
      "chip": "ym2612"
    },
    {
      "channel": 4,
      "note": 90,
      "start": 26.7159,
      "duration": 0.0545,
      "velocity": 105,
      "chip": "ym2612"
    },
    {
      "channel": 0,
      "note": 57,
      "start": 26.7697,
      "duration": 0.0039,
      "velocity": 103,
      "chip": "ym2612"
    },
    {
      "channel": 1,
      "note": 88,
      "start": 26.77,
      "duration": 0.0063,
      "velocity": 105,
      "chip": "ym2612"
    },
    {
      "channel": 4,
      "note": 88,
      "start": 26.772,
      "duration": 0.0066,
      "velocity": 105,
      "chip": "ym2612"
    },
    {
      "channel": 0,
      "note": 57,
      "start": 26.7762,
      "duration": 0.0042,
      "velocity": 103,
      "chip": "ym2612"
    },
    {
      "channel": 1,
      "note": 85,
      "start": 26.7766,
      "duration": 0.0071,
      "velocity": 105,
      "chip": "ym2612"
    },
    {
      "channel": 2,
      "note": 63,
      "start": 26.7768,
      "duration": 0.0129,
      "velocity": 97,
      "chip": "ym2612"
    },
    {
      "channel": 3,
      "note": 63,
      "start": 26.7772,
      "duration": 0.0129,
      "velocity": 97,
      "chip": "ym2612"
    },
    {
      "channel": 4,
      "note": 85,
      "start": 26.7786,
      "duration": 0.0063,
      "velocity": 105,
      "chip": "ym2612"
    },
    {
      "channel": 0,
      "note": 57,
      "start": 26.7836,
      "duration": 0.0027,
      "velocity": 103,
      "chip": "ym2612"
    },
    {
      "channel": 1,
      "note": 88,
      "start": 26.7838,
      "duration": 0.0046,
      "velocity": 105,
      "chip": "ym2612"
    },
    {
      "channel": 4,
      "note": 88,
      "start": 26.7851,
      "duration": 0.0053,
      "velocity": 105,
      "chip": "ym2612"
    },
    {
      "channel": 0,
      "note": 56,
      "start": 26.7893,
      "duration": 0.006,
      "velocity": 103,
      "chip": "ym2612"
    },
    {
      "channel": 1,
      "note": 87,
      "start": 26.7896,
      "duration": 0.062,
      "velocity": 105,
      "chip": "ym2612"
    },
    {
      "channel": 2,
      "note": 56,
      "start": 26.7899,
      "duration": 0.1682,
      "velocity": 97,
      "chip": "ym2612"
    },
    {
      "channel": 3,
      "note": 56,
      "start": 26.7903,
      "duration": 0.1681,
      "velocity": 97,
      "chip": "ym2612"
    },
    {
      "channel": 4,
      "note": 87,
      "start": 26.7926,
      "duration": 0.0599,
      "velocity": 105,
      "chip": "ym2612"
    },
    {
      "channel": 0,
      "note": 56,
      "start": 26.8454,
      "duration": 0.0033,
      "velocity": 103,
      "chip": "ym2612"
    },
    {
      "channel": 0,
      "note": 56,
      "start": 26.8516,
      "duration": 0.0021,
      "velocity": 103,
      "chip": "ym2612"
    },
    {
      "channel": 1,
      "note": 85,
      "start": 26.8517,
      "duration": 0.0725,
      "velocity": 105,
      "chip": "ym2612"
    },
    {
      "channel": 4,
      "note": 85,
      "start": 26.8527,
      "duration": 0.106,
      "velocity": 105,
      "chip": "ym2612"
    },
    {
      "channel": 0,
      "note": 56,
      "start": 26.9577,
      "duration": 0.0038,
      "velocity": 103,
      "chip": "ym2612"
    },
    {
      "channel": 1,
      "note": 87,
      "start": 26.958,
      "duration": 0.5768,
      "velocity": 105,
      "chip": "ym2612"
    },
    {
      "channel": 2,
      "note": 61,
      "start": 26.9583,
      "duration": 0.2939,
      "velocity": 97,
      "chip": "ym2612"
    },
    {
      "channel": 3,
      "note": 61,
      "start": 26.9586,
      "duration": 0.2939,
      "velocity": 97,
      "chip": "ym2612"
    },
    {
      "channel": 4,
      "note": 87,
      "start": 26.9598,
      "duration": 0.5761,
      "velocity": 105,
      "chip": "ym2612"
    },
    {
      "channel": 0,
      "note": 56,
      "start": 26.964,
      "duration": 0.0033,
      "velocity": 103,
      "chip": "ym2612"
    },
    {
      "channel": 0,
      "note": 56,
      "start": 27.0352,
      "duration": 0.0998,
      "velocity": 103,
      "chip": "ym2612"
    },
    {
      "channel": 0,
      "note": 56,
      "start": 27.2519,
      "duration": 0.1165,
      "velocity": 103,
      "chip": "ym2612"
    },
    {
      "channel": 2,
      "note": 63,
      "start": 27.2524,
      "duration": 0.223,
      "velocity": 97,
      "chip": "ym2612"
    },
    {
      "channel": 3,
      "note": 63,
      "start": 27.2527,
      "duration": 0.223,
      "velocity": 97,
      "chip": "ym2612"
    },
    {
      "channel": 0,
      "note": 56,
      "start": 27.4686,
      "duration": 0.0034,
      "velocity": 103,
      "chip": "ym2612"
    },
    {
      "channel": 0,
      "note": 56,
      "start": 27.4751,
      "duration": 0.0034,
      "velocity": 103,
      "chip": "ym2612"
    },
    {
      "channel": 2,
      "note": 68,
      "start": 27.4756,
      "duration": 0.2236,
      "velocity": 97,
      "chip": "ym2612"
    },
    {
      "channel": 3,
      "note": 68,
      "start": 27.4759,
      "duration": 0.2235,
      "velocity": 97,
      "chip": "ym2612"
    },
    {
      "channel": 0,
      "note": 54,
      "start": 27.5294,
      "duration": 0.0031,
      "velocity": 103,
      "chip": "ym2612"
    },
    {
      "channel": 0,
      "note": 54,
      "start": 27.5347,
      "duration": 0.0018,
      "velocity": 103,
      "chip": "ym2612"
    },
    {
      "channel": 1,
      "note": 85,
      "start": 27.5371,
      "duration": 0.0019,
      "velocity": 105,
      "chip": "ym2612"
    },
    {
      "channel": 4,
      "note": 85,
      "start": 27.5379,
      "duration": 0.0017,
      "velocity": 105,
      "chip": "ym2612"
    },
    {
      "channel": 0,
      "note": 56,
      "start": 27.5389,
      "duration": 0.0014,
      "velocity": 103,
      "chip": "ym2612"
    },
    {
      "channel": 1,
      "note": 84,
      "start": 27.5399,
      "duration": 0.0217,
      "velocity": 105,
      "chip": "ym2612"
    },
    {
      "channel": 4,
      "note": 84,
      "start": 27.5407,
      "duration": 0.0712,
      "velocity": 105,
      "chip": "ym2612"
    },
    {
      "channel": 0,
      "note": 56,
      "start": 27.645,
      "duration": 0.0031,
      "velocity": 103,
      "chip": "ym2612"
    },
    {
      "channel": 1,
      "note": 85,
      "start": 27.6453,
      "duration": 0.0019,
      "velocity": 105,
      "chip": "ym2612"
    },
    {
      "channel": 4,
      "note": 85,
      "start": 27.6467,
      "duration": 0.0017,
      "velocity": 105,
      "chip": "ym2612"
    },
    {
      "channel": 0,
      "note": 57,
      "start": 27.6987,
      "duration": 0.0036,
      "velocity": 103,
      "chip": "ym2612"
    },
    {
      "channel": 1,
      "note": 87,
      "start": 27.699,
      "duration": 0.005,
      "velocity": 105,
      "chip": "ym2612"
    },
    {
      "channel": 2,
      "note": 63,
      "start": 27.6993,
      "duration": 0.012,
      "velocity": 97,
      "chip": "ym2612"
    },
    {
      "channel": 3,
      "note": 63,
      "start": 27.6996,
      "duration": 0.012,
      "velocity": 97,
      "chip": "ym2612"
    },
    {
      "channel": 4,
      "note": 87,
      "start": 27.7008,
      "duration": 0.0048,
      "velocity": 105,
      "chip": "ym2612"
    },
    {
      "channel": 0,
      "note": 57,
      "start": 27.705,
      "duration": 0.003,
      "velocity": 103,
      "chip": "ym2612"
    },
    {
      "channel": 1,
      "note": 88,
      "start": 27.7053,
      "duration": 0.0047,
      "velocity": 105,
      "chip": "ym2612"
    },
    {
      "channel": 4,
      "note": 88,
      "start": 27.7068,
      "duration": 0.0051,
      "velocity": 105,
      "chip": "ym2612"
    },
    {
      "channel": 0,
      "note": 59,
      "start": 27.7108,
      "duration": 0.0041,
      "velocity": 103,
      "chip": "ym2612"
    },
    {
      "channel": 1,
      "note": 90,
      "start": 27.7112,
      "duration": 0.0053,
      "velocity": 105,
      "chip": "ym2612"
    },
    {
      "channel": 2,
      "note": 61,
      "start": 27.7115,
      "duration": 0.0061,
      "velocity": 97,
      "chip": "ym2612"
    },
    {
      "channel": 3,
      "note": 61,
      "start": 27.7118,
      "duration": 0.0061,
      "velocity": 97,
      "chip": "ym2612"
    },
    {
      "channel": 4,
      "note": 90,
      "start": 27.7131,
      "duration": 0.0051,
      "velocity": 105,
      "chip": "ym2612"
    },
    {
      "channel": 0,
      "note": 57,
      "start": 27.7172,
      "duration": 0.0058,
      "velocity": 103,
      "chip": "ym2612"
    },
    {
      "channel": 1,
      "note": 97,
      "start": 27.7175,
      "duration": 0.1951,
      "velocity": 105,
      "chip": "ym2612"
    },
    {
      "channel": 2,
      "note": 57,
      "start": 27.7176,
      "duration": 0.168,
      "velocity": 97,
      "chip": "ym2612"
    },
    {
      "channel": 3,
      "note": 57,
      "start": 27.7181,
      "duration": 0.1679,
      "velocity": 97,
      "chip": "ym2612"
    },
    {
      "channel": 4,
      "note": 97,
      "start": 27.7203,
      "duration": 0.2263,
      "velocity": 105,
      "chip": "ym2612"
    },
    {
      "channel": 0,
      "note": 57,
      "start": 27.79,
      "duration": 0.003,
      "velocity": 103,
      "chip": "ym2612"
    },
    {
      "channel": 0,
      "note": 57,
      "start": 27.796,
      "duration": 0.0023,
      "velocity": 103,
      "chip": "ym2612"
    },
    {
      "channel": 0,
      "note": 57,
      "start": 27.8854,
      "duration": 0.0039,
      "velocity": 103,
      "chip": "ym2612"
    },
    {
      "channel": 2,
      "note": 61,
      "start": 27.8859,
      "duration": 0.2773,
      "velocity": 97,
      "chip": "ym2612"
    },
    {
      "channel": 3,
      "note": 61,
      "start": 27.8862,
      "duration": 0.2772,
      "velocity": 97,
      "chip": "ym2612"
    },
    {
      "channel": 0,
      "note": 57,
      "start": 27.8925,
      "duration": 0.0024,
      "velocity": 103,
      "chip": "ym2612"
    },
    {
      "channel": 0,
      "note": 57,
      "start": 27.946,
      "duration": 0.1165,
      "velocity": 103,
      "chip": "ym2612"
    },
    {
      "channel": 1,
      "note": 90,
      "start": 27.9463,
      "duration": 0.2165,
      "velocity": 105,
      "chip": "ym2612"
    },
    {
      "channel": 4,
      "note": 90,
      "start": 27.9798,
      "duration": 0.2164,
      "velocity": 105,
      "chip": "ym2612"
    },
    {
      "channel": 0,
      "note": 57,
      "start": 28.1627,
      "duration": 0.1165,
      "velocity": 103,
      "chip": "ym2612"
    },
    {
      "channel": 1,
      "note": 92,
      "start": 28.163,
      "duration": 0.1829,
      "velocity": 105,
      "chip": "ym2612"
    },
    {
      "channel": 2,
      "note": 63,
      "start": 28.1633,
      "duration": 0.2392,
      "velocity": 97,
      "chip": "ym2612"
    },
    {
      "channel": 3,
      "note": 63,
      "start": 28.1637,
      "duration": 0.2392,
      "velocity": 97,
      "chip": "ym2612"
    },
    {
      "channel": 4,
      "note": 92,
      "start": 28.1965,
      "duration": 0.2002,
      "velocity": 105,
      "chip": "ym2612"
    },
    {
      "channel": 0,
      "note": 57,
      "start": 28.396,
      "duration": 0.0029,
      "velocity": 103,
      "chip": "ym2612"
    },
    {
      "channel": 1,
      "note": 97,
      "start": 28.3963,
      "duration": 0.029,
      "velocity": 105,
      "chip": "ym2612"
    },
    {
      "channel": 4,
      "note": 97,
      "start": 28.3977,
      "duration": 0.0617,
      "velocity": 105,
      "chip": "ym2612"
    },
    {
      "channel": 0,
      "note": 57,
      "start": 28.4022,
      "duration": 0.0056,
      "velocity": 103,
      "chip": "ym2612"
    },
    {
      "channel": 2,
      "note": 68,
      "start": 28.4027,
      "duration": 0.0667,
      "velocity": 97,
      "chip": "ym2612"
    },
    {
      "channel": 3,
      "note": 68,
      "start": 28.4031,
      "duration": 0.0666,
      "velocity": 97,
      "chip": "ym2612"
    },
    {
      "channel": 0,
      "note": 57,
      "start": 28.4588,
      "duration": 0.0029,
      "velocity": 103,
      "chip": "ym2612"
    },
    {
      "channel": 1,
      "note": 90,
      "start": 28.4591,
      "duration": 0.004,
      "velocity": 105,
      "chip": "ym2612"
    },
    {
      "channel": 4,
      "note": 90,
      "start": 28.4607,
      "duration": 0.0037,
      "velocity": 105,
      "chip": "ym2612"
    },
    {
      "channel": 0,
      "note": 57,
      "start": 28.464,
      "duration": 0.0026,
      "velocity": 103,
      "chip": "ym2612"
    },
    {
      "channel": 1,
      "note": 92,
      "start": 28.4643,
      "duration": 0.0041,
      "velocity": 105,
      "chip": "ym2612"
    },
    {
      "channel": 4,
      "note": 92,
      "start": 28.4655,
      "duration": 0.0043,
      "velocity": 105,
      "chip": "ym2612"
    },
    {
      "channel": 0,
      "note": 57,
      "start": 28.4691,
      "duration": 0.0029,
      "velocity": 103,
      "chip": "ym2612"
    },
    {
      "channel": 1,
      "note": 97,
      "start": 28.4693,
      "duration": 0.1653,
      "velocity": 105,
      "chip": "ym2612"
    },
    {
      "channel": 2,
      "note": 67,
      "start": 28.4695,
      "duration": 0.168,
      "velocity": 97,
      "chip": "ym2612"
    },
    {
      "channel": 3,
      "note": 67,
      "start": 28.4697,
      "duration": 0.1681,
      "velocity": 97,
      "chip": "ym2612"
    },
    {
      "channel": 4,
      "note": 97,
      "start": 28.4706,
      "duration": 0.1648,
      "velocity": 105,
      "chip": "ym2612"
    },
    {
      "channel": 0,
      "note": 57,
      "start": 28.5592,
      "duration": 0.005,
      "velocity": 103,
      "chip": "ym2612"
    },
    {
      "channel": 0,
      "note": 57,
      "start": 28.6324,
      "duration": 0.0027,
      "velocity": 103,
      "chip": "ym2612"
    },
    {
      "channel": 0,
      "note": 57,
      "start": 28.637,
      "duration": 0.004,
      "velocity": 103,
      "chip": "ym2612"
    },
    {
      "channel": 1,
      "note": 100,
      "start": 28.6374,
      "duration": 0.0052,
      "velocity": 105,
      "chip": "ym2612"
    },
    {
      "channel": 2,
      "note": 63,
      "start": 28.6377,
      "duration": 0.0123,
      "velocity": 97,
      "chip": "ym2612"
    },
    {
      "channel": 3,
      "note": 63,
      "start": 28.638,
      "duration": 0.0122,
      "velocity": 97,
      "chip": "ym2612"
    },
    {
      "channel": 4,
      "note": 100,
      "start": 28.6391,
      "duration": 0.0048,
      "velocity": 105,
      "chip": "ym2612"
    },
    {
      "channel": 0,
      "note": 57,
      "start": 28.6434,
      "duration": 0.0034,
      "velocity": 103,
      "chip": "ym2612"
    },
    {
      "channel": 1,
      "note": 100,
      "start": 28.6437,
      "duration": 0.005,
      "velocity": 105,
      "chip": "ym2612"
    },
    {
      "channel": 4,
      "note": 100,
      "start": 28.6451,
      "duration": 0.0055,
      "velocity": 105,
      "chip": "ym2612"
    },
    {
      "channel": 0,
      "note": 56,
      "start": 28.6495,
      "duration": 0.0051,
      "velocity": 103,
      "chip": "ym2612"
    },
    {
      "channel": 1,
      "note": 99,
      "start": 28.6498,
      "duration": 0.0598,
      "velocity": 105,
      "chip": "ym2612"
    },
    {
      "channel": 2,
      "note": 56,
      "start": 28.6501,
      "duration": 0.1679,
      "velocity": 97,
      "chip": "ym2612"
    },
    {
      "channel": 3,
      "note": 56,
      "start": 28.6505,
      "duration": 0.1678,
      "velocity": 97,
      "chip": "ym2612"
    },
    {
      "channel": 4,
      "note": 99,
      "start": 28.6523,
      "duration": 0.0581,
      "velocity": 105,
      "chip": "ym2612"
    },
    {
      "channel": 0,
      "note": 56,
      "start": 28.7055,
      "duration": 0.0032,
      "velocity": 103,
      "chip": "ym2612"
    },
    {
      "channel": 0,
      "note": 56,
      "start": 28.7108,
      "duration": 0.0025,
      "velocity": 103,
      "chip": "ym2612"
    },
    {
      "channel": 1,
      "note": 97,
      "start": 28.711,
      "duration": 0.1067,
      "velocity": 105,
      "chip": "ym2612"
    },
    {
      "channel": 4,
      "note": 97,
      "start": 28.7118,
      "duration": 0.1079,
      "velocity": 105,
      "chip": "ym2612"
    },
    {
      "channel": 0,
      "note": 56,
      "start": 28.8176,
      "duration": 0.0038,
      "velocity": 103,
      "chip": "ym2612"
    },
    {
      "channel": 1,
      "note": 99,
      "start": 28.8179,
      "duration": 0.5899,
      "velocity": 105,
      "chip": "ym2612"
    },
    {
      "channel": 2,
      "note": 61,
      "start": 28.8182,
      "duration": 0.2943,
      "velocity": 97,
      "chip": "ym2612"
    },
    {
      "channel": 3,
      "note": 61,
      "start": 28.8185,
      "duration": 0.2943,
      "velocity": 97,
      "chip": "ym2612"
    },
    {
      "channel": 4,
      "note": 99,
      "start": 28.82,
      "duration": 0.5887,
      "velocity": 105,
      "chip": "ym2612"
    },
    {
      "channel": 0,
      "note": 56,
      "start": 28.8244,
      "duration": 0.0034,
      "velocity": 103,
      "chip": "ym2612"
    },
    {
      "channel": 0,
      "note": 56,
      "start": 28.8789,
      "duration": 0.1165,
      "velocity": 103,
      "chip": "ym2612"
    },
    {
      "channel": 0,
      "note": 56,
      "start": 29.1123,
      "duration": 0.0998,
      "velocity": 103,
      "chip": "ym2612"
    },
    {
      "channel": 2,
      "note": 63,
      "start": 29.1127,
      "duration": 0.2222,
      "velocity": 97,
      "chip": "ym2612"
    },
    {
      "channel": 3,
      "note": 63,
      "start": 29.113,
      "duration": 0.2222,
      "velocity": 97,
      "chip": "ym2612"
    },
    {
      "channel": 0,
      "note": 56,
      "start": 29.3289,
      "duration": 0.0032,
      "velocity": 103,
      "chip": "ym2612"
    },
    {
      "channel": 0,
      "note": 56,
      "start": 29.3347,
      "duration": 0.0045,
      "velocity": 103,
      "chip": "ym2612"
    },
    {
      "channel": 2,
      "note": 68,
      "start": 29.3351,
      "duration": 0.1443,
      "velocity": 97,
      "chip": "ym2612"
    },
    {
      "channel": 3,
      "note": 68,
      "start": 29.3355,
      "duration": 0.1442,
      "velocity": 97,
      "chip": "ym2612"
    },
    {
      "channel": 0,
      "note": 54,
      "start": 29.4062,
      "duration": 0.0028,
      "velocity": 103,
      "chip": "ym2612"
    },
    {
      "channel": 0,
      "note": 54,
      "start": 29.4104,
      "duration": 0.0036,
      "velocity": 103,
      "chip": "ym2612"
    },
    {
      "channel": 1,
      "note": 100,
      "start": 29.4108,
      "duration": 0.0089,
      "velocity": 105,
      "chip": "ym2612"
    },
    {
      "channel": 4,
      "note": 100,
      "start": 29.4123,
      "duration": 0.0084,
      "velocity": 105,
      "chip": "ym2612"
    },
    {
      "channel": 0,
      "note": 56,
      "start": 29.4167,
      "duration": 0.0037,
      "velocity": 103,
      "chip": "ym2612"
    },
    {
      "channel": 0,
      "note": 56,
      "start": 29.4231,
      "duration": 0.0043,
      "velocity": 103,
      "chip": "ym2612"
    },
    {
      "channel": 1,
      "note": 100,
      "start": 29.4235,
      "duration": 0.022,
      "velocity": 105,
      "chip": "ym2612"
    },
    {
      "channel": 4,
      "note": 100,
      "start": 29.4254,
      "duration": 0.0546,
      "velocity": 105,
      "chip": "ym2612"
    },
    {
      "channel": 0,
      "note": 57,
      "start": 29.479,
      "duration": 0.0041,
      "velocity": 103,
      "chip": "ym2612"
    },
    {
      "channel": 1,
      "note": 102,
      "start": 29.4793,
      "duration": 0.0109,
      "velocity": 105,
      "chip": "ym2612"
    },
    {
      "channel": 2,
      "note": 63,
      "start": 29.4796,
      "duration": 0.0123,
      "velocity": 97,
      "chip": "ym2612"
    },
    {
      "channel": 3,
      "note": 63,
      "start": 29.4799,
      "duration": 0.0122,
      "velocity": 97,
      "chip": "ym2612"
    },
    {
      "channel": 4,
      "note": 102,
      "start": 29.4812,
      "duration": 0.0097,
      "velocity": 105,
      "chip": "ym2612"
    },
    {
      "channel": 0,
      "note": 57,
      "start": 29.4857,
      "duration": 0.0036,
      "velocity": 103,
      "chip": "ym2612"
    },
    {
      "channel": 0,
      "note": 59,
      "start": 29.4916,
      "duration": 0.0033,
      "velocity": 103,
      "chip": "ym2612"
    },
    {
      "channel": 1,
      "note": 99,
      "start": 29.4918,
      "duration": 1.1958,
      "velocity": 105,
      "chip": "ym2612"
    },
    {
      "channel": 2,
      "note": 61,
      "start": 29.4921,
      "duration": 0.0074,
      "velocity": 103,
      "chip": "ym2612"
    },
    {
      "channel": 3,
      "note": 61,
      "start": 29.4923,
      "duration": 0.0095,
      "velocity": 91,
      "chip": "ym2612"
    },
    {
      "channel": 4,
      "note": 99,
      "start": 29.4934,
      "duration": 1.2286,
      "velocity": 105,
      "chip": "ym2612"
    },
    {
      "channel": 0,
      "note": 61,
      "start": 29.4978,
      "duration": 0.053,
      "velocity": 103,
      "chip": "ym2612"
    },
    {
      "channel": 2,
      "note": 49,
      "start": 29.4997,
      "duration": 0.0516,
      "velocity": 103,
      "chip": "ym2612"
    },
    {
      "channel": 3,
      "note": 61,
      "start": 29.5019,
      "duration": 0.3825,
      "velocity": 91,
      "chip": "ym2612"
    },
    {
      "channel": 0,
      "note": 61,
      "start": 29.551,
      "duration": 0.2332,
      "velocity": 103,
      "chip": "ym2612"
    },
    {
      "channel": 2,
      "note": 49,
      "start": 29.5515,
      "duration": 0.2332,
      "velocity": 103,
      "chip": "ym2612"
    },
    {
      "channel": 0,
      "note": 68,
      "start": 29.7844,
      "duration": 0.2165,
      "velocity": 103,
      "chip": "ym2612"
    },
    {
      "channel": 2,
      "note": 56,
      "start": 29.7848,
      "duration": 0.2165,
      "velocity": 103,
      "chip": "ym2612"
    },
    {
      "channel": 0,
      "note": 68,
      "start": 30.001,
      "duration": 0.2165,
      "velocity": 103,
      "chip": "ym2612"
    },
    {
      "channel": 2,
      "note": 56,
      "start": 30.0015,
      "duration": 0.2165,
      "velocity": 103,
      "chip": "ym2612"
    },
    {
      "channel": 3,
      "note": 68,
      "start": 30.0018,
      "duration": 0.386,
      "velocity": 91,
      "chip": "ym2612"
    },
    {
      "channel": 0,
      "note": 67,
      "start": 30.2177,
      "duration": 0.0698,
      "velocity": 103,
      "chip": "ym2612"
    },
    {
      "channel": 2,
      "note": 55,
      "start": 30.2181,
      "duration": 0.0698,
      "velocity": 103,
      "chip": "ym2612"
    },
    {
      "channel": 0,
      "note": 67,
      "start": 30.2877,
      "duration": 0.2165,
      "velocity": 103,
      "chip": "ym2612"
    },
    {
      "channel": 2,
      "note": 55,
      "start": 30.2881,
      "duration": 0.2165,
      "velocity": 103,
      "chip": "ym2612"
    },
    {
      "channel": 0,
      "note": 63,
      "start": 30.5044,
      "duration": 0.2165,
      "velocity": 103,
      "chip": "ym2612"
    },
    {
      "channel": 2,
      "note": 51,
      "start": 30.5048,
      "duration": 0.2167,
      "velocity": 103,
      "chip": "ym2612"
    },
    {
      "channel": 3,
      "note": 67,
      "start": 30.5052,
      "duration": 0.2165,
      "velocity": 91,
      "chip": "ym2612"
    },
    {
      "channel": 0,
      "note": 63,
      "start": 30.721,
      "duration": 0.2332,
      "velocity": 103,
      "chip": "ym2612"
    },
    {
      "channel": 1,
      "note": 97,
      "start": 30.7213,
      "duration": 1.3072,
      "velocity": 105,
      "chip": "ym2612"
    },
    {
      "channel": 2,
      "note": 51,
      "start": 30.7217,
      "duration": 0.233,
      "velocity": 103,
      "chip": "ym2612"
    },
    {
      "channel": 3,
      "note": 66,
      "start": 30.7219,
      "duration": 0.2868,
      "velocity": 91,
      "chip": "ym2612"
    },
    {
      "channel": 4,
      "note": 97,
      "start": 30.7547,
      "duration": 1.3073,
      "velocity": 105,
      "chip": "ym2612"
    },
    {
      "channel": 0,
      "note": 66,
      "start": 30.9544,
      "duration": 0.0536,
      "velocity": 103,
      "chip": "ym2612"
    },
    {
      "channel": 2,
      "note": 54,
      "start": 30.9548,
      "duration": 0.0536,
      "velocity": 103,
      "chip": "ym2612"
    },
    {
      "channel": 0,
      "note": 66,
      "start": 31.0081,
      "duration": 0.2165,
      "velocity": 103,
      "chip": "ym2612"
    },
    {
      "channel": 2,
      "note": 54,
      "start": 31.0086,
      "duration": 0.2165,
      "velocity": 103,
      "chip": "ym2612"
    },
    {
      "channel": 3,
      "note": 71,
      "start": 31.009,
      "duration": 0.3326,
      "velocity": 91,
      "chip": "ym2612"
    },
    {
      "channel": 0,
      "note": 62,
      "start": 31.2248,
      "duration": 0.2332,
      "velocity": 103,
      "chip": "ym2612"
    },
    {
      "channel": 2,
      "note": 50,
      "start": 31.2252,
      "duration": 0.2332,
      "velocity": 103,
      "chip": "ym2612"
    },
    {
      "channel": 0,
      "note": 62,
      "start": 31.4581,
      "duration": 0.2165,
      "velocity": 103,
      "chip": "ym2612"
    },
    {
      "channel": 2,
      "note": 50,
      "start": 31.4586,
      "duration": 0.2165,
      "velocity": 103,
      "chip": "ym2612"
    },
    {
      "channel": 3,
      "note": 70,
      "start": 31.4589,
      "duration": 0.2189,
      "velocity": 91,
      "chip": "ym2612"
    },
    {
      "channel": 0,
      "note": 65,
      "start": 31.6748,
      "duration": 0.0537,
      "velocity": 103,
      "chip": "ym2612"
    },
    {
      "channel": 2,
      "note": 53,
      "start": 31.6752,
      "duration": 0.0537,
      "velocity": 103,
      "chip": "ym2612"
    },
    {
      "channel": 0,
      "note": 65,
      "start": 31.7287,
      "duration": 0.2332,
      "velocity": 103,
      "chip": "ym2612"
    },
    {
      "channel": 2,
      "note": 53,
      "start": 31.7291,
      "duration": 0.2332,
      "velocity": 103,
      "chip": "ym2612"
    },
    {
      "channel": 3,
      "note": 67,
      "start": 31.7294,
      "duration": 0.2332,
      "velocity": 91,
      "chip": "ym2612"
    },
    {
      "channel": 0,
      "note": 60,
      "start": 31.962,
      "duration": 0.2165,
      "velocity": 103,
      "chip": "ym2612"
    },
    {
      "channel": 2,
      "note": 48,
      "start": 31.9624,
      "duration": 0.2163,
      "velocity": 103,
      "chip": "ym2612"
    },
    {
      "channel": 3,
      "note": 68,
      "start": 31.9627,
      "duration": 0.2165,
      "velocity": 91,
      "chip": "ym2612"
    },
    {
      "channel": 0,
      "note": 60,
      "start": 32.1787,
      "duration": 0.2166,
      "velocity": 103,
      "chip": "ym2612"
    },
    {
      "channel": 2,
      "note": 48,
      "start": 32.179,
      "duration": 0.2185,
      "velocity": 103,
      "chip": "ym2612"
    },
    {
      "channel": 3,
      "note": 72,
      "start": 32.1794,
      "duration": 28.252,
      "velocity": 91,
      "chip": "ym2612"
    },
    {
      "channel": 0,
      "note": 61,
      "start": 32.3955,
      "duration": 28.0359,
      "velocity": 103,
      "chip": "ym2612"
    }
  ]
}