{
  "track_name": "11 - Geisha Robot",
  "duration_sec": 45.053,
  "sample_rate": 44100,
  "note_count": 327,
  "unique_pitches": 29,
  "pitch_range": 39,
  "avg_note_duration": 0.6219,
  "reconstruction_stats": {
    "notes_reconstructed": 327,
    "keyon_events": 327,
    "keyoff_events": 184,
    "orphan_keyons": 4,
    "unique_pitches": 29,
    "pitch_range": 39,
    "avg_duration_sec": 0.6219
  },
  "metadata": {
    "source": "D\\Dynamite Headdy\\11 - Geisha Robot.vgz"
  },
  "notes": [
    {
      "channel": 0,
      "note": 67,
      "start": 0.0,
      "duration": 0.8593,
      "velocity": 127,
      "chip": "ym2612"
    },
    {
      "channel": 2,
      "note": 74,
      "start": 0.0,
      "duration": 0.8595,
      "velocity": 89,
      "chip": "ym2612"
    },
    {
      "channel": 5,
      "note": 71,
      "start": 0.0,
      "duration": 0.8602,
      "velocity": 79,
      "chip": "ym2612"
    },
    {
      "channel": 1,
      "note": 52,
      "start": 0.2094,
      "duration": 0.2166,
      "velocity": 79,
      "chip": "ym2612"
    },
    {
      "channel": 3,
      "note": 74,
      "start": 0.2106,
      "duration": 0.8656,
      "velocity": 89,
      "chip": "ym2612"
    },
    {
      "channel": 1,
      "note": 52,
      "start": 0.426,
      "duration": 1.3168,
      "velocity": 79,
      "chip": "ym2612"
    },
    {
      "channel": 4,
      "note": 79,
      "start": 0.5774,
      "duration": 0.8657,
      "velocity": 127,
      "chip": "ym2612"
    },
    {
      "channel": 0,
      "note": 67,
      "start": 0.8593,
      "duration": 0.4498,
      "velocity": 127,
      "chip": "ym2612"
    },
    {
      "channel": 2,
      "note": 74,
      "start": 0.8595,
      "duration": 0.8835,
      "velocity": 89,
      "chip": "ym2612"
    },
    {
      "channel": 5,
      "note": 71,
      "start": 0.8602,
      "duration": 0.8835,
      "velocity": 79,
      "chip": "ym2612"
    },
    {
      "channel": 3,
      "note": 74,
      "start": 1.0762,
      "duration": 0.8833,
      "velocity": 89,
      "chip": "ym2612"
    },
    {
      "channel": 0,
      "note": 66,
      "start": 1.4094,
      "duration": 0.2164,
      "velocity": 127,
      "chip": "ym2612"
    },
    {
      "channel": 4,
      "note": 79,
      "start": 1.4431,
      "duration": 0.4498,
      "velocity": 127,
      "chip": "ym2612"
    },
    {
      "channel": 0,
      "note": 62,
      "start": 1.626,
      "duration": 0.1165,
      "velocity": 127,
      "chip": "ym2612"
    },
    {
      "channel": 0,
      "note": 65,
      "start": 1.7427,
      "duration": 0.3331,
      "velocity": 127,
      "chip": "ym2612"
    },
    {
      "channel": 2,
      "note": 74,
      "start": 1.7431,
      "duration": 0.8831,
      "velocity": 89,
      "chip": "ym2612"
    },
    {
      "channel": 5,
      "note": 71,
      "start": 1.7437,
      "duration": 0.8831,
      "velocity": 79,
      "chip": "ym2612"
    },
    {
      "channel": 1,
      "note": 52,
      "start": 1.8594,
      "duration": 0.3168,
      "velocity": 79,
      "chip": "ym2612"
    },
    {
      "channel": 3,
      "note": 74,
      "start": 1.9595,
      "duration": 0.8833,
      "velocity": 89,
      "chip": "ym2612"
    },
    {
      "channel": 4,
      "note": 78,
      "start": 1.9932,
      "duration": 0.233,
      "velocity": 127,
      "chip": "ym2612"
    },
    {
      "channel": 0,
      "note": 59,
      "start": 2.076,
      "duration": 0.0999,
      "velocity": 127,
      "chip": "ym2612"
    },
    {
      "channel": 0,
      "note": 59,
      "start": 2.176,
      "duration": 0.45,
      "velocity": 127,
      "chip": "ym2612"
    },
    {
      "channel": 1,
      "note": 52,
      "start": 2.1762,
      "duration": 1.3333,
      "velocity": 79,
      "chip": "ym2612"
    },
    {
      "channel": 4,
      "note": 74,
      "start": 2.2265,
      "duration": 0.0996,
      "velocity": 127,
      "chip": "ym2612"
    },
    {
      "channel": 4,
      "note": 77,
      "start": 2.3265,
      "duration": 0.333,
      "velocity": 127,
      "chip": "ym2612"
    },
    {
      "channel": 0,
      "note": 59,
      "start": 2.626,
      "duration": 0.3332,
      "velocity": 127,
      "chip": "ym2612"
    },
    {
      "channel": 2,
      "note": 74,
      "start": 2.6262,
      "duration": 0.8837,
      "velocity": 89,
      "chip": "ym2612"
    },
    {
      "channel": 5,
      "note": 71,
      "start": 2.6268,
      "duration": 0.8837,
      "velocity": 79,
      "chip": "ym2612"
    },
    {
      "channel": 4,
      "note": 71,
      "start": 2.6599,
      "duration": 0.1166,
      "velocity": 127,
      "chip": "ym2612"
    },
    {
      "channel": 4,
      "note": 71,
      "start": 2.7764,
      "duration": 0.4333,
      "velocity": 127,
      "chip": "ym2612"
    },
    {
      "channel": 3,
      "note": 74,
      "start": 2.8428,
      "duration": 0.8836,
      "velocity": 89,
      "chip": "ym2612"
    },
    {
      "channel": 4,
      "note": 71,
      "start": 3.2098,
      "duration": 0.3331,
      "velocity": 127,
      "chip": "ym2612"
    },
    {
      "channel": 0,
      "note": 59,
      "start": 3.276,
      "duration": 0.2332,
      "velocity": 127,
      "chip": "ym2612"
    },
    {
      "channel": 0,
      "note": 60,
      "start": 3.5094,
      "duration": 0.0998,
      "velocity": 127,
      "chip": "ym2612"
    },
    {
      "channel": 1,
      "note": 52,
      "start": 3.5097,
      "duration": 1.7497,
      "velocity": 79,
      "chip": "ym2612"
    },
    {
      "channel": 2,
      "note": 74,
      "start": 3.5099,
      "duration": 0.8662,
      "velocity": 89,
      "chip": "ym2612"
    },
    {
      "channel": 5,
      "note": 71,
      "start": 3.5105,
      "duration": 0.8662,
      "velocity": 79,
      "chip": "ym2612"
    },
    {
      "channel": 0,
      "note": 61,
      "start": 3.6093,
      "duration": 0.1165,
      "velocity": 127,
      "chip": "ym2612"
    },
    {
      "channel": 0,
      "note": 64,
      "start": 3.726,
      "duration": 0.2164,
      "velocity": 127,
      "chip": "ym2612"
    },
    {
      "channel": 3,
      "note": 74,
      "start": 3.7264,
      "duration": 0.8831,
      "velocity": 89,
      "chip": "ym2612"
    },
    {
      "channel": 4,
      "note": 71,
      "start": 3.8765,
      "duration": 0.2163,
      "velocity": 127,
      "chip": "ym2612"
    },
    {
      "channel": 0,
      "note": 58,
      "start": 3.9427,
      "duration": 0.3331,
      "velocity": 127,
      "chip": "ym2612"
    },
    {
      "channel": 4,
      "note": 72,
      "start": 4.0932,
      "duration": 0.0997,
      "velocity": 127,
      "chip": "ym2612"
    },
    {
      "channel": 4,
      "note": 73,
      "start": 4.1932,
      "duration": 0.1163,
      "velocity": 127,
      "chip": "ym2612"
    },
    {
      "channel": 0,
      "note": 62,
      "start": 4.276,
      "duration": 0.2831,
      "velocity": 127,
      "chip": "ym2612"
    },
    {
      "channel": 4,
      "note": 76,
      "start": 4.3099,
      "duration": 0.2163,
      "velocity": 127,
      "chip": "ym2612"
    },
    {
      "channel": 2,
      "note": 74,
      "start": 4.376,
      "duration": 0.8838,
      "velocity": 89,
      "chip": "ym2612"
    },
    {
      "channel": 5,
      "note": 71,
      "start": 4.3767,
      "duration": 0.8838,
      "velocity": 79,
      "chip": "ym2612"
    },
    {
      "channel": 4,
      "note": 70,
      "start": 4.5265,
      "duration": 0.3333,
      "velocity": 127,
      "chip": "ym2612"
    },
    {
      "channel": 0,
      "note": 56,
      "start": 4.5593,
      "duration": 0.2998,
      "velocity": 127,
      "chip": "ym2612"
    },
    {
      "channel": 3,
      "note": 74,
      "start": 4.6095,
      "duration": 0.8667,
      "velocity": 89,
      "chip": "ym2612"
    },
    {
      "channel": 0,
      "note": 60,
      "start": 4.8593,
      "duration": 0.2998,
      "velocity": 127,
      "chip": "ym2612"
    },
    {
      "channel": 4,
      "note": 74,
      "start": 4.8601,
      "duration": 0.2997,
      "velocity": 127,
      "chip": "ym2612"
    },
    {
      "channel": 0,
      "note": 54,
      "start": 5.1594,
      "duration": 0.0999,
      "velocity": 127,
      "chip": "ym2612"
    },
    {
      "channel": 4,
      "note": 68,
      "start": 5.1601,
      "duration": 0.2828,
      "velocity": 127,
      "chip": "ym2612"
    },
    {
      "channel": 0,
      "note": 54,
      "start": 5.2593,
      "duration": 0.1165,
      "velocity": 127,
      "chip": "ym2612"
    },
    {
      "channel": 1,
      "note": 52,
      "start": 5.2596,
      "duration": 1.7664,
      "velocity": 79,
      "chip": "ym2612"
    },
    {
      "channel": 2,
      "note": 74,
      "start": 5.2598,
      "duration": 0.8829,
      "velocity": 89,
      "chip": "ym2612"
    },
    {
      "channel": 5,
      "note": 71,
      "start": 5.2605,
      "duration": 0.8829,
      "velocity": 79,
      "chip": "ym2612"
    },
    {
      "channel": 0,
      "note": 58,
      "start": 5.376,
      "duration": 0.3331,
      "velocity": 127,
      "chip": "ym2612"
    },
    {
      "channel": 4,
      "note": 72,
      "start": 5.4432,
      "duration": 0.2997,
      "velocity": 127,
      "chip": "ym2612"
    },
    {
      "channel": 3,
      "note": 74,
      "start": 5.4762,
      "duration": 0.8835,
      "velocity": 89,
      "chip": "ym2612"
    },
    {
      "channel": 0,
      "note": 52,
      "start": 5.7093,
      "duration": 0.3165,
      "velocity": 127,
      "chip": "ym2612"
    },
    {
      "channel": 4,
      "note": 66,
      "start": 5.7432,
      "duration": 0.0999,
      "velocity": 127,
      "chip": "ym2612"
    },
    {
      "channel": 4,
      "note": 66,
      "start": 5.8431,
      "duration": 0.1164,
      "velocity": 127,
      "chip": "ym2612"
    },
    {
      "channel": 4,
      "note": 70,
      "start": 5.9599,
      "duration": 0.333,
      "velocity": 127,
      "chip": "ym2612"
    },
    {
      "channel": 0,
      "note": 56,
      "start": 6.026,
      "duration": 0.3332,
      "velocity": 127,
      "chip": "ym2612"
    },
    {
      "channel": 2,
      "note": 74,
      "start": 6.1427,
      "duration": 0.8838,
      "velocity": 89,
      "chip": "ym2612"
    },
    {
      "channel": 5,
      "note": 71,
      "start": 6.1433,
      "duration": 0.8837,
      "velocity": 79,
      "chip": "ym2612"
    },
    {
      "channel": 4,
      "note": 64,
      "start": 6.2932,
      "duration": 0.333,
      "velocity": 127,
      "chip": "ym2612"
    },
    {
      "channel": 0,
      "note": 50,
      "start": 6.3594,
      "duration": 0.6666,
      "velocity": 127,
      "chip": "ym2612"
    },
    {
      "channel": 3,
      "note": 74,
      "start": 6.3598,
      "duration": 0.8831,
      "velocity": 89,
      "chip": "ym2612"
    },
    {
      "channel": 4,
      "note": 68,
      "start": 6.6265,
      "duration": 0.3164,
      "velocity": 127,
      "chip": "ym2612"
    },
    {
      "channel": 4,
      "note": 62,
      "start": 6.9432,
      "duration": 0.6666,
      "velocity": 127,
      "chip": "ym2612"
    },
    {
      "channel": 0,
      "note": 50,
      "start": 7.026,
      "duration": 0.8833,
      "velocity": 127,
      "chip": "ym2612"
    },
    {
      "channel": 1,
      "note": 52,
      "start": 7.0263,
      "duration": 0.4329,
      "velocity": 79,
      "chip": "ym2612"
    },
    {
      "channel": 2,
      "note": 74,
      "start": 7.0265,
      "duration": 0.8832,
      "velocity": 89,
      "chip": "ym2612"
    },
    {
      "channel": 5,
      "note": 71,
      "start": 7.0271,
      "duration": 0.8833,
      "velocity": 79,
      "chip": "ym2612"
    },
    {
      "channel": 3,
      "note": 74,
      "start": 7.2429,
      "duration": 0.8833,
      "velocity": 89,
      "chip": "ym2612"
    },
    {
      "channel": 4,
      "note": 62,
      "start": 7.6098,
      "duration": 0.8833,
      "velocity": 127,
      "chip": "ym2612"
    },
    {
      "channel": 0,
      "note": 50,
      "start": 7.9093,
      "duration": 0.8667,
      "velocity": 127,
      "chip": "ym2612"
    },
    {
      "channel": 2,
      "note": 74,
      "start": 7.9097,
      "duration": 0.8666,
      "velocity": 89,
      "chip": "ym2612"
    },
    {
      "channel": 5,
      "note": 71,
      "start": 7.9103,
      "duration": 0.8665,
      "velocity": 79,
      "chip": "ym2612"
    },
    {
      "channel": 3,
      "note": 74,
      "start": 8.1262,
      "duration": 0.7228,
      "velocity": 89,
      "chip": "ym2612"
    },
    {
      "channel": 4,
      "note": 62,
      "start": 8.4931,
      "duration": 0.3676,
      "velocity": 127,
      "chip": "ym2612"
    },
    {
      "channel": 0,
      "note": 70,
      "start": 8.8437,
      "duration": 0.0283,
      "velocity": 79,
      "chip": "ym2612"
    },
    {
      "channel": 1,
      "note": 52,
      "start": 8.844,
      "duration": 0.014,
      "velocity": 79,
      "chip": "ym2612"
    },
    {
      "channel": 2,
      "note": 55,
      "start": 8.8451,
      "duration": 0.0273,
      "velocity": 79,
      "chip": "ym2612"
    },
    {
      "channel": 3,
      "note": 55,
      "start": 8.8521,
      "duration": 0.0283,
      "velocity": 79,
      "chip": "ym2612"
    },
    {
      "channel": 4,
      "note": 70,
      "start": 8.8629,
      "duration": 0.0284,
      "velocity": 79,
      "chip": "ym2612"
    },
    {
      "channel": 0,
      "note": 70,
      "start": 8.872,
      "duration": 0.029,
      "velocity": 79,
      "chip": "ym2612"
    },
    {
      "channel": 2,
      "note": 55,
      "start": 8.8724,
      "duration": 0.0292,
      "velocity": 79,
      "chip": "ym2612"
    },
    {
      "channel": 3,
      "note": 55,
      "start": 8.8805,
      "duration": 0.0287,
      "velocity": 79,
      "chip": "ym2612"
    },
    {
      "channel": 4,
      "note": 70,
      "start": 8.8913,
      "duration": 0.0288,
      "velocity": 79,
      "chip": "ym2612"
    },
    {
      "channel": 0,
      "note": 72,
      "start": 8.9011,
      "duration": 0.0288,
      "velocity": 79,
      "chip": "ym2612"
    },
    {
      "channel": 1,
      "note": 52,
      "start": 8.9015,
      "duration": 0.0441,
      "velocity": 79,
      "chip": "ym2612"
    },
    {
      "channel": 2,
      "note": 57,
      "start": 8.9017,
      "duration": 0.0285,
      "velocity": 79,
      "chip": "ym2612"
    },
    {
      "channel": 3,
      "note": 57,
      "start": 8.9094,
      "duration": 0.0294,
      "velocity": 79,
      "chip": "ym2612"
    },
    {
      "channel": 4,
      "note": 72,
      "start": 8.9203,
      "duration": 0.0293,
      "velocity": 79,
      "chip": "ym2612"
    },
    {
      "channel": 0,
      "note": 72,
      "start": 8.93,
      "duration": 0.0294,
      "velocity": 79,
      "chip": "ym2612"
    },
    {
      "channel": 2,
      "note": 57,
      "start": 8.9302,
      "duration": 0.0298,
      "velocity": 79,
      "chip": "ym2612"
    },
    {
      "channel": 3,
      "note": 57,
      "start": 8.9387,
      "duration": 0.0273,
      "velocity": 79,
      "chip": "ym2612"
    },
    {
      "channel": 4,
      "note": 72,
      "start": 8.9495,
      "duration": 0.0257,
      "velocity": 79,
      "chip": "ym2612"
    },
    {
      "channel": 1,
      "note": 52,
      "start": 8.9551,
      "duration": 0.0048,
      "velocity": 79,
      "chip": "ym2612"
    },
    {
      "channel": 0,
      "note": 70,
      "start": 8.9597,
      "duration": 0.0233,
      "velocity": 79,
      "chip": "ym2612"
    },
    {
      "channel": 1,
      "note": 52,
      "start": 8.9599,
      "duration": 0.0115,
      "velocity": 79,
      "chip": "ym2612"
    },
    {
      "channel": 2,
      "note": 55,
      "start": 8.9602,
      "duration": 0.0231,
      "velocity": 79,
      "chip": "ym2612"
    },
    {
      "channel": 3,
      "note": 55,
      "start": 8.9662,
      "duration": 0.0235,
      "velocity": 79,
      "chip": "ym2612"
    },
    {
      "channel": 4,
      "note": 70,
      "start": 8.9754,
      "duration": 0.0235,
      "velocity": 79,
      "chip": "ym2612"
    },
    {
      "channel": 0,
      "note": 70,
      "start": 8.9829,
      "duration": 0.0235,
      "velocity": 79,
      "chip": "ym2612"
    },
    {
      "channel": 2,
      "note": 55,
      "start": 8.9833,
      "duration": 0.0236,
      "velocity": 79,
      "chip": "ym2612"
    },
    {
      "channel": 3,
      "note": 55,
      "start": 8.9897,
      "duration": 0.0236,
      "velocity": 79,
      "chip": "ym2612"
    },
    {
      "channel": 4,
      "note": 70,
      "start": 8.9989,
      "duration": 0.0234,
      "velocity": 79,
      "chip": "ym2612"
    },
    {
      "channel": 0,
      "note": 69,
      "start": 9.0067,
      "duration": 0.0234,
      "velocity": 79,
      "chip": "ym2612"
    },
    {
      "channel": 2,
      "note": 54,
      "start": 9.0072,
      "duration": 0.0233,
      "velocity": 79,
      "chip": "ym2612"
    },
    {
      "channel": 3,
      "note": 54,
      "start": 9.0136,
      "duration": 0.0236,
      "velocity": 79,
      "chip": "ym2612"
    },
    {
      "channel": 4,
      "note": 69,
      "start": 9.0224,
      "duration": 0.0231,
      "velocity": 79,
      "chip": "ym2612"
    },
    {
      "channel": 0,
      "note": 69,
      "start": 9.0301,
      "duration": 0.0225,
      "velocity": 79,
      "chip": "ym2612"
    },
    {
      "channel": 2,
      "note": 54,
      "start": 9.0305,
      "duration": 0.0227,
      "velocity": 79,
      "chip": "ym2612"
    },
    {
      "channel": 3,
      "note": 54,
      "start": 9.0371,
      "duration": 0.0234,
      "velocity": 79,
      "chip": "ym2612"
    },
    {
      "channel": 4,
      "note": 69,
      "start": 9.0455,
      "duration": 0.0258,
      "velocity": 79,
      "chip": "ym2612"
    },
    {
      "channel": 0,
      "note": 70,
      "start": 9.053,
      "duration": 0.0283,
      "velocity": 79,
      "chip": "ym2612"
    },
    {
      "channel": 2,
      "note": 55,
      "start": 9.0535,
      "duration": 0.0282,
      "velocity": 79,
      "chip": "ym2612"
    },
    {
      "channel": 3,
      "note": 55,
      "start": 9.0608,
      "duration": 0.029,
      "velocity": 79,
      "chip": "ym2612"
    },
    {
      "channel": 4,
      "note": 70,
      "start": 9.0715,
      "duration": 0.0291,
      "velocity": 79,
      "chip": "ym2612"
    },
    {
      "channel": 0,
      "note": 70,
      "start": 9.0813,
      "duration": 0.0287,
      "velocity": 79,
      "chip": "ym2612"
    },
    {
      "channel": 2,
      "note": 55,
      "start": 9.0817,
      "duration": 0.0288,
      "velocity": 79,
      "chip": "ym2612"
    },
    {
      "channel": 3,
      "note": 55,
      "start": 9.0898,
      "duration": 0.0283,
      "velocity": 79,
      "chip": "ym2612"
    },
    {
      "channel": 4,
      "note": 70,
      "start": 9.1006,
      "duration": 0.0282,
      "velocity": 79,
      "chip": "ym2612"
    },
    {
      "channel": 0,
      "note": 72,
      "start": 9.1103,
      "duration": 0.0284,
      "velocity": 79,
      "chip": "ym2612"
    },
    {
      "channel": 2,
      "note": 57,
      "start": 9.1107,
      "duration": 0.0283,
      "velocity": 79,
      "chip": "ym2612"
    },
    {
      "channel": 3,
      "note": 57,
      "start": 9.1183,
      "duration": 0.0285,
      "velocity": 79,
      "chip": "ym2612"
    },
    {
      "channel": 4,
      "note": 72,
      "start": 9.1289,
      "duration": 0.0288,
      "velocity": 79,
      "chip": "ym2612"
    },
    {
      "channel": 0,
      "note": 72,
      "start": 9.1387,
      "duration": 0.0287,
      "velocity": 79,
      "chip": "ym2612"
    },
    {
      "channel": 2,
      "note": 57,
      "start": 9.139,
      "duration": 0.0289,
      "velocity": 79,
      "chip": "ym2612"
    },
    {
      "channel": 3,
      "note": 57,
      "start": 9.1468,
      "duration": 0.0271,
      "velocity": 79,
      "chip": "ym2612"
    },
    {
      "channel": 4,
      "note": 72,
      "start": 9.1577,
      "duration": 0.0257,
      "velocity": 79,
      "chip": "ym2612"
    },
    {
      "channel": 0,
      "note": 70,
      "start": 9.1677,
      "duration": 0.0238,
      "velocity": 79,
      "chip": "ym2612"
    },
    {
      "channel": 2,
      "note": 55,
      "start": 9.1682,
      "duration": 0.0237,
      "velocity": 79,
      "chip": "ym2612"
    },
    {
      "channel": 3,
      "note": 55,
      "start": 9.1742,
      "duration": 0.0242,
      "velocity": 79,
      "chip": "ym2612"
    },
    {
      "channel": 4,
      "note": 70,
      "start": 9.1836,
      "duration": 0.0239,
      "velocity": 79,
      "chip": "ym2612"
    },
    {
      "channel": 0,
      "note": 70,
      "start": 9.1915,
      "duration": 0.0235,
      "velocity": 79,
      "chip": "ym2612"
    },
    {
      "channel": 2,
      "note": 55,
      "start": 9.1919,
      "duration": 0.0235,
      "velocity": 79,
      "chip": "ym2612"
    },
    {
      "channel": 3,
      "note": 55,
      "start": 9.1984,
      "duration": 0.0233,
      "velocity": 79,
      "chip": "ym2612"
    },
    {
      "channel": 4,
      "note": 70,
      "start": 9.2075,
      "duration": 0.0235,
      "velocity": 79,
      "chip": "ym2612"
    },
    {
      "channel": 0,
      "note": 69,
      "start": 9.2152,
      "duration": 0.0237,
      "velocity": 79,
      "chip": "ym2612"
    },
    {
      "channel": 2,
      "note": 54,
      "start": 9.2157,
      "duration": 0.0236,
      "velocity": 79,
      "chip": "ym2612"
    },
    {
      "channel": 3,
      "note": 54,
      "start": 9.2219,
      "duration": 0.024,
      "velocity": 79,
      "chip": "ym2612"
    },
    {
      "channel": 4,
      "note": 69,
      "start": 9.2312,
      "duration": 0.0231,
      "velocity": 79,
      "chip": "ym2612"
    },
    {
      "channel": 0,
      "note": 69,
      "start": 9.2389,
      "duration": 0.0233,
      "velocity": 79,
      "chip": "ym2612"
    },
    {
      "channel": 2,
      "note": 54,
      "start": 9.2393,
      "duration": 0.0248,
      "velocity": 127,
      "chip": "ym2612"
    },
    {
      "channel": 3,
      "note": 54,
      "start": 9.2459,
      "duration": 0.0254,
      "velocity": 127,
      "chip": "ym2612"
    },
    {
      "channel": 4,
      "note": 69,
      "start": 9.2542,
      "duration": 0.3166,
      "velocity": 79,
      "chip": "ym2612"
    },
    {
      "channel": 5,
      "note": 46,
      "start": 9.2622,
      "duration": 0.592,
      "velocity": 109,
      "chip": "ym2612"
    },
    {
      "channel": 1,
      "note": 64,
      "start": 9.2631,
      "duration": 0.6076,
      "velocity": 79,
      "chip": "ym2612"
    },
    {
      "channel": 2,
      "note": 61,
      "start": 9.2643,
      "duration": 0.6065,
      "velocity": 127,
      "chip": "ym2612"
    },
    {
      "channel": 3,
      "note": 61,
      "start": 9.2714,
      "duration": 0.8161,
      "velocity": 127,
      "chip": "ym2612"
    },
    {
      "channel": 5,
      "note": 46,
      "start": 9.8542,
      "duration": 0.867,
      "velocity": 109,
      "chip": "ym2612"
    },
    {
      "channel": 0,
      "note": 52,
      "start": 9.8704,
      "duration": 0.0498,
      "velocity": 79,
      "chip": "ym2612"
    },
    {
      "channel": 1,
      "note": 64,
      "start": 9.8706,
      "duration": 0.8667,
      "velocity": 79,
      "chip": "ym2612"
    },
    {
      "channel": 2,
      "note": 61,
      "start": 9.8708,
      "duration": 0.8667,
      "velocity": 127,
      "chip": "ym2612"
    },
    {
      "channel": 0,
      "note": 54,
      "start": 9.9204,
      "duration": 0.0498,
      "velocity": 79,
      "chip": "ym2612"
    },
    {
      "channel": 0,
      "note": 55,
      "start": 9.9704,
      "duration": 0.0664,
      "velocity": 79,
      "chip": "ym2612"
    },
    {
      "channel": 0,
      "note": 57,
      "start": 10.037,
      "duration": 0.0498,
      "velocity": 79,
      "chip": "ym2612"
    },
    {
      "channel": 0,
      "note": 58,
      "start": 10.087,
      "duration": 0.0498,
      "velocity": 79,
      "chip": "ym2612"
    },
    {
      "channel": 3,
      "note": 61,
      "start": 10.0875,
      "duration": 0.8667,
      "velocity": 127,
      "chip": "ym2612"
    },
    {
      "channel": 0,
      "note": 61,
      "start": 10.137,
      "duration": 0.0498,
      "velocity": 79,
      "chip": "ym2612"
    },
    {
      "channel": 0,
      "note": 64,
      "start": 10.187,
      "duration": 0.0664,
      "velocity": 79,
      "chip": "ym2612"
    },
    {
      "channel": 0,
      "note": 67,
      "start": 10.2537,
      "duration": 0.0498,
      "velocity": 79,
      "chip": "ym2612"
    },
    {
      "channel": 0,
      "note": 61,
      "start": 10.3037,
      "duration": 0.0498,
      "velocity": 79,
      "chip": "ym2612"
    },
    {
      "channel": 0,
      "note": 64,
      "start": 10.3537,
      "duration": 0.0498,
      "velocity": 79,
      "chip": "ym2612"
    },
    {
      "channel": 0,
      "note": 67,
      "start": 10.4037,
      "duration": 0.0664,
      "velocity": 79,
      "chip": "ym2612"
    },
    {
      "channel": 4,
      "note": 52,
      "start": 10.4376,
      "duration": 0.0664,
      "velocity": 79,
      "chip": "ym2612"
    },
    {
      "channel": 0,
      "note": 70,
      "start": 10.4704,
      "duration": 0.0498,
      "velocity": 79,
      "chip": "ym2612"
    },
    {
      "channel": 4,
      "note": 54,
      "start": 10.5043,
      "duration": 0.0498,
      "velocity": 79,
      "chip": "ym2612"
    },
    {
      "channel": 0,
      "note": 64,
      "start": 10.5204,
      "duration": 0.0498,
      "velocity": 79,
      "chip": "ym2612"
    },
    {
      "channel": 4,
      "note": 55,
      "start": 10.5543,
      "duration": 0.0498,
      "velocity": 79,
      "chip": "ym2612"
    },
    {
      "channel": 0,
      "note": 67,
      "start": 10.5704,
      "duration": 0.0498,
      "velocity": 79,
      "chip": "ym2612"
    },
    {
      "channel": 4,
      "note": 57,
      "start": 10.6043,
      "duration": 0.0498,
      "velocity": 79,
      "chip": "ym2612"
    },
    {
      "channel": 0,
      "note": 70,
      "start": 10.6204,
      "duration": 0.0664,
      "velocity": 79,
      "chip": "ym2612"
    },
    {
      "channel": 4,
      "note": 58,
      "start": 10.6543,
      "duration": 0.0665,
      "velocity": 79,
      "chip": "ym2612"
    },
    {
      "channel": 0,
      "note": 73,
      "start": 10.687,
      "duration": 0.0498,
      "velocity": 79,
      "chip": "ym2612"
    },
    {
      "channel": 4,
      "note": 61,
      "start": 10.7209,
      "duration": 0.0498,
      "velocity": 79,
      "chip": "ym2612"
    },
    {
      "channel": 5,
      "note": 46,
      "start": 10.7212,
      "duration": 0.8667,
      "velocity": 109,
      "chip": "ym2612"
    },
    {
      "channel": 0,
      "note": 67,
      "start": 10.737,
      "duration": 0.0498,
      "velocity": 79,
      "chip": "ym2612"
    },
    {
      "channel": 1,
      "note": 64,
      "start": 10.7373,
      "duration": 0.8666,
      "velocity": 79,
      "chip": "ym2612"
    },
    {
      "channel": 2,
      "note": 61,
      "start": 10.7375,
      "duration": 0.8666,
      "velocity": 127,
      "chip": "ym2612"
    },
    {
      "channel": 4,
      "note": 64,
      "start": 10.7709,
      "duration": 0.0498,
      "velocity": 79,
      "chip": "ym2612"
    },
    {
      "channel": 0,
      "note": 70,
      "start": 10.787,
      "duration": 0.0498,
      "velocity": 79,
      "chip": "ym2612"
    },
    {
      "channel": 4,
      "note": 67,
      "start": 10.8209,
      "duration": 0.0498,
      "velocity": 79,
      "chip": "ym2612"
    },
    {
      "channel": 0,
      "note": 73,
      "start": 10.837,
      "duration": 0.0664,
      "velocity": 79,
      "chip": "ym2612"
    },
    {
      "channel": 4,
      "note": 61,
      "start": 10.8709,
      "duration": 0.0665,
      "velocity": 79,
      "chip": "ym2612"
    },
    {
      "channel": 0,
      "note": 76,
      "start": 10.9037,
      "duration": 0.0498,
      "velocity": 79,
      "chip": "ym2612"
    },
    {
      "channel": 4,
      "note": 64,
      "start": 10.9376,
      "duration": 0.0498,
      "velocity": 79,
      "chip": "ym2612"
    },
    {
      "channel": 0,
      "note": 70,
      "start": 10.9537,
      "duration": 0.0498,
      "velocity": 79,
      "chip": "ym2612"
    },
    {
      "channel": 3,
      "note": 61,
      "start": 10.9542,
      "duration": 0.8666,
      "velocity": 127,
      "chip": "ym2612"
    },
    {
      "channel": 4,
      "note": 67,
      "start": 10.9876,
      "duration": 0.0498,
      "velocity": 79,
      "chip": "ym2612"
    },
    {
      "channel": 0,
      "note": 73,
      "start": 11.0037,
      "duration": 0.0498,
      "velocity": 79,
      "chip": "ym2612"
    },
    {
      "channel": 4,
      "note": 70,
      "start": 11.0376,
      "duration": 0.0498,
      "velocity": 79,
      "chip": "ym2612"
    },
    {
      "channel": 0,
      "note": 76,
      "start": 11.0537,
      "duration": 0.0664,
      "velocity": 79,
      "chip": "ym2612"
    },
    {
      "channel": 4,
      "note": 64,
      "start": 11.0876,
      "duration": 0.0664,
      "velocity": 79,
      "chip": "ym2612"
    },
    {
      "channel": 0,
      "note": 79,
      "start": 11.1204,
      "duration": 0.0498,
      "velocity": 79,
      "chip": "ym2612"
    },
    {
      "channel": 4,
      "note": 67,
      "start": 11.1543,
      "duration": 0.0498,
      "velocity": 79,
      "chip": "ym2612"
    },
    {
      "channel": 0,
      "note": 73,
      "start": 11.1704,
      "duration": 0.0498,
      "velocity": 79,
      "chip": "ym2612"
    },
    {
      "channel": 4,
      "note": 70,
      "start": 11.2043,
      "duration": 0.0498,
      "velocity": 79,
      "chip": "ym2612"
    },
    {
      "channel": 0,
      "note": 76,
      "start": 11.2204,
      "duration": 0.0498,
      "velocity": 79,
      "chip": "ym2612"
    },
    {
      "channel": 4,
      "note": 73,
      "start": 11.2543,
      "duration": 0.0498,
      "velocity": 79,
      "chip": "ym2612"
    },
    {
      "channel": 0,
      "note": 79,
      "start": 11.2704,
      "duration": 0.0664,
      "velocity": 79,
      "chip": "ym2612"
    },
    {
      "channel": 4,
      "note": 67,
      "start": 11.3043,
      "duration": 0.0665,
      "velocity": 79,
      "chip": "ym2612"
    },
    {
      "channel": 0,
      "note": 82,
      "start": 11.337,
      "duration": 0.0498,
      "velocity": 79,
      "chip": "ym2612"
    },
    {
      "channel": 4,
      "note": 70,
      "start": 11.3709,
      "duration": 0.0498,
      "velocity": 79,
      "chip": "ym2612"
    },
    {
      "channel": 0,
      "note": 76,
      "start": 11.387,
      "duration": 0.0498,
      "velocity": 79,
      "chip": "ym2612"
    },
    {
      "channel": 4,
      "note": 73,
      "start": 11.4209,
      "duration": 0.0498,
      "velocity": 79,
      "chip": "ym2612"
    },
    {
      "channel": 0,
      "note": 79,
      "start": 11.437,
      "duration": 0.0498,
      "velocity": 79,
      "chip": "ym2612"
    },
    {
      "channel": 4,
      "note": 76,
      "start": 11.4709,
      "duration": 0.0498,
      "velocity": 79,
      "chip": "ym2612"
    },
    {
      "channel": 0,
      "note": 82,
      "start": 11.487,
      "duration": 0.0664,
      "velocity": 79,
      "chip": "ym2612"
    },
    {
      "channel": 4,
      "note": 70,
      "start": 11.5209,
      "duration": 0.0664,
      "velocity": 79,
      "chip": "ym2612"
    },
    {
      "channel": 0,
      "note": 85,
      "start": 11.5537,
      "duration": 0.0499,
      "velocity": 79,
      "chip": "ym2612"
    },
    {
      "channel": 4,
      "note": 73,
      "start": 11.5876,
      "duration": 0.0498,
      "velocity": 79,
      "chip": "ym2612"
    },
    {
      "channel": 5,
      "note": 46,
      "start": 11.5878,
      "duration": 0.8666,
      "velocity": 109,
      "chip": "ym2612"
    },
    {
      "channel": 0,
      "note": 85,
      "start": 11.6036,
      "duration": 0.8667,
      "velocity": 79,
      "chip": "ym2612"
    },
    {
      "channel": 1,
      "note": 64,
      "start": 11.6039,
      "duration": 0.8667,
      "velocity": 79,
      "chip": "ym2612"
    },
    {
      "channel": 2,
      "note": 61,
      "start": 11.6041,
      "duration": 0.8667,
      "velocity": 127,
      "chip": "ym2612"
    },
    {
      "channel": 4,
      "note": 76,
      "start": 11.6376,
      "duration": 0.0498,
      "velocity": 79,
      "chip": "ym2612"
    },
    {
      "channel": 4,
      "note": 79,
      "start": 11.6876,
      "duration": 0.0498,
      "velocity": 79,
      "chip": "ym2612"
    },
    {
      "channel": 4,
      "note": 73,
      "start": 11.7376,
      "duration": 0.0665,
      "velocity": 79,
      "chip": "ym2612"
    },
    {
      "channel": 4,
      "note": 76,
      "start": 11.8043,
      "duration": 0.0498,
      "velocity": 79,
      "chip": "ym2612"
    },
    {
      "channel": 3,
      "note": 61,
      "start": 11.8207,
      "duration": 0.8667,
      "velocity": 127,
      "chip": "ym2612"
    },
    {
      "channel": 4,
      "note": 79,
      "start": 11.8543,
      "duration": 0.0498,
      "velocity": 79,
      "chip": "ym2612"
    },
    {
      "channel": 4,
      "note": 82,
      "start": 11.9043,
      "duration": 0.0498,
      "velocity": 79,
      "chip": "ym2612"
    },
    {
      "channel": 4,
      "note": 76,
      "start": 11.9543,
      "duration": 0.0664,
      "velocity": 79,
      "chip": "ym2612"
    },
    {
      "channel": 4,
      "note": 79,
      "start": 12.0209,
      "duration": 0.0498,
      "velocity": 79,
      "chip": "ym2612"
    },
    {
      "channel": 4,
      "note": 82,
      "start": 12.0709,
      "duration": 0.0498,
      "velocity": 79,
      "chip": "ym2612"
    },
    {
      "channel": 4,
      "note": 85,
      "start": 12.1209,
      "duration": 0.0499,
      "velocity": 79,
      "chip": "ym2612"
    },
    {
      "channel": 4,
      "note": 85,
      "start": 12.1709,
      "duration": 0.8667,
      "velocity": 79,
      "chip": "ym2612"
    },
    {
      "channel": 5,
      "note": 46,
      "start": 12.4544,
      "duration": 0.8667,
      "velocity": 109,
      "chip": "ym2612"
    },
    {
      "channel": 0,
      "note": 85,
      "start": 12.4703,
      "duration": 0.8667,
      "velocity": 79,
      "chip": "ym2612"
    },
    {
      "channel": 1,
      "note": 64,
      "start": 12.4705,
      "duration": 0.8667,
      "velocity": 79,
      "chip": "ym2612"
    },
    {
      "channel": 2,
      "note": 61,
      "start": 12.4707,
      "duration": 0.8667,
      "velocity": 127,
      "chip": "ym2612"
    },
    {
      "channel": 3,
      "note": 61,
      "start": 12.6874,
      "duration": 0.8667,
      "velocity": 127,
      "chip": "ym2612"
    },
    {
      "channel": 4,
      "note": 85,
      "start": 13.0375,
      "duration": 0.8834,
      "velocity": 79,
      "chip": "ym2612"
    },
    {
      "channel": 5,
      "note": 46,
      "start": 13.3211,
      "duration": 0.8831,
      "velocity": 109,
      "chip": "ym2612"
    },
    {
      "channel": 0,
      "note": 85,
      "start": 13.337,
      "duration": 0.4333,
      "velocity": 79,
      "chip": "ym2612"
    },
    {
      "channel": 1,
      "note": 64,
      "start": 13.3372,
      "duration": 0.8833,
      "velocity": 79,
      "chip": "ym2612"
    },
    {
      "channel": 2,
      "note": 61,
      "start": 13.3374,
      "duration": 0.8834,
      "velocity": 127,
      "chip": "ym2612"
    },
    {
      "channel": 3,
      "note": 61,
      "start": 13.5541,
      "duration": 0.8997,
      "velocity": 127,
      "chip": "ym2612"
    },
    {
      "channel": 0,
      "note": 85,
      "start": 13.7703,
      "duration": 0.45,
      "velocity": 79,
      "chip": "ym2612"
    },
    {
      "channel": 4,
      "note": 85,
      "start": 13.9209,
      "duration": 0.4497,
      "velocity": 79,
      "chip": "ym2612"
    },
    {
      "channel": 4,
      "note": 85,
      "start": 14.3706,
      "duration": 0.4499,
      "velocity": 79,
      "chip": "ym2612"
    },
    {
      "channel": 0,
      "note": 70,
      "start": 14.9045,
      "duration": 0.9158,
      "velocity": 79,
      "chip": "ym2612"
    },
    {
      "channel": 1,
      "note": 52,
      "start": 14.9056,
      "duration": 0.448,
      "velocity": 79,
      "chip": "ym2612"
    },
    {
      "channel": 2,
      "note": 55,
      "start": 14.9066,
      "duration": 0.9142,
      "velocity": 79,
      "chip": "ym2612"
    },
    {
      "channel": 3,
      "note": 55,
      "start": 15.1382,
      "duration": 0.9158,
      "velocity": 79,
      "chip": "ym2612"
    },
    {
      "channel": 4,
      "note": 70,
      "start": 15.5216,
      "duration": 0.8992,
      "velocity": 79,
      "chip": "ym2612"
    },
    {
      "channel": 0,
      "note": 70,
      "start": 15.8203,
      "duration": 0.9166,
      "velocity": 79,
      "chip": "ym2612"
    },
    {
      "channel": 2,
      "note": 55,
      "start": 15.8207,
      "duration": 0.9167,
      "velocity": 79,
      "chip": "ym2612"
    },
    {
      "channel": 3,
      "note": 55,
      "start": 16.054,
      "duration": 0.8999,
      "velocity": 79,
      "chip": "ym2612"
    },
    {
      "channel": 4,
      "note": 70,
      "start": 16.4208,
      "duration": 0.9165,
      "velocity": 79,
      "chip": "ym2612"
    },
    {
      "channel": 0,
      "note": 72,
      "start": 16.7371,
      "duration": 0.9165,
      "velocity": 79,
      "chip": "ym2612"
    },
    {
      "channel": 1,
      "note": 52,
      "start": 16.7374,
      "duration": 0.4495,
      "velocity": 79,
      "chip": "ym2612"
    },
    {
      "channel": 2,
      "note": 57,
      "start": 16.7377,
      "duration": 0.9163,
      "velocity": 79,
      "chip": "ym2612"
    },
    {
      "channel": 3,
      "note": 57,
      "start": 16.9541,
      "duration": 0.9165,
      "velocity": 79,
      "chip": "ym2612"
    },
    {
      "channel": 4,
      "note": 72,
      "start": 17.3375,
      "duration": 0.9166,
      "velocity": 79,
      "chip": "ym2612"
    },
    {
      "channel": 0,
      "note": 72,
      "start": 17.6536,
      "duration": 0.8999,
      "velocity": 79,
      "chip": "ym2612"
    },
    {
      "channel": 2,
      "note": 57,
      "start": 17.654,
      "duration": 0.9001,
      "velocity": 79,
      "chip": "ym2612"
    },
    {
      "channel": 3,
      "note": 57,
      "start": 17.8707,
      "duration": 0.9166,
      "velocity": 79,
      "chip": "ym2612"
    },
    {
      "channel": 4,
      "note": 72,
      "start": 18.2541,
      "duration": 0.9166,
      "velocity": 79,
      "chip": "ym2612"
    },
    {
      "channel": 0,
      "note": 70,
      "start": 18.5538,
      "duration": 0.9165,
      "velocity": 79,
      "chip": "ym2612"
    },
    {
      "channel": 1,
      "note": 52,
      "start": 18.5541,
      "duration": 1.3829,
      "velocity": 79,
      "chip": "ym2612"
    },
    {
      "channel": 2,
      "note": 55,
      "start": 18.5544,
      "duration": 0.9163,
      "velocity": 79,
      "chip": "ym2612"
    },
    {
      "channel": 3,
      "note": 55,
      "start": 18.7875,
      "duration": 0.9166,
      "velocity": 79,
      "chip": "ym2612"
    },
    {
      "channel": 4,
      "note": 70,
      "start": 19.1709,
      "duration": 0.9166,
      "velocity": 79,
      "chip": "ym2612"
    },
    {
      "channel": 0,
      "note": 70,
      "start": 19.4703,
      "duration": 0.9166,
      "velocity": 79,
      "chip": "ym2612"
    },
    {
      "channel": 2,
      "note": 55,
      "start": 19.4707,
      "duration": 0.9167,
      "velocity": 79,
      "chip": "ym2612"
    },
    {
      "channel": 3,
      "note": 55,
      "start": 19.7041,
      "duration": 0.9165,
      "velocity": 79,
      "chip": "ym2612"
    },
    {
      "channel": 4,
      "note": 70,
      "start": 20.0875,
      "duration": 0.9165,
      "velocity": 79,
      "chip": "ym2612"
    },
    {
      "channel": 1,
      "note": 52,
      "start": 20.2705,
      "duration": 0.1168,
      "velocity": 79,
      "chip": "ym2612"
    },
    {
      "channel": 0,
      "note": 69,
      "start": 20.3871,
      "duration": 0.9165,
      "velocity": 79,
      "chip": "ym2612"
    },
    {
      "channel": 1,
      "note": 52,
      "start": 20.3873,
      "duration": 0.4663,
      "velocity": 79,
      "chip": "ym2612"
    },
    {
      "channel": 2,
      "note": 54,
      "start": 20.3877,
      "duration": 0.9163,
      "velocity": 79,
      "chip": "ym2612"
    },
    {
      "channel": 3,
      "note": 54,
      "start": 20.6208,
      "duration": 0.9165,
      "velocity": 79,
      "chip": "ym2612"
    },
    {
      "channel": 4,
      "note": 69,
      "start": 21.0042,
      "duration": 0.9166,
      "velocity": 79,
      "chip": "ym2612"
    },
    {
      "channel": 0,
      "note": 69,
      "start": 21.3036,
      "duration": 0.9166,
      "velocity": 79,
      "chip": "ym2612"
    },
    {
      "channel": 2,
      "note": 54,
      "start": 21.304,
      "duration": 0.9167,
      "velocity": 79,
      "chip": "ym2612"
    },
    {
      "channel": 3,
      "note": 54,
      "start": 21.5373,
      "duration": 0.9165,
      "velocity": 79,
      "chip": "ym2612"
    },
    {
      "channel": 4,
      "note": 69,
      "start": 21.9208,
      "duration": 0.8998,
      "velocity": 79,
      "chip": "ym2612"
    },
    {
      "channel": 0,
      "note": 70,
      "start": 22.2205,
      "duration": 0.9165,
      "velocity": 79,
      "chip": "ym2612"
    },
    {
      "channel": 2,
      "note": 55,
      "start": 22.221,
      "duration": 0.9163,
      "velocity": 79,
      "chip": "ym2612"
    },
    {
      "channel": 3,
      "note": 55,
      "start": 22.4541,
      "duration": 0.8999,
      "velocity": 79,
      "chip": "ym2612"
    },
    {
      "channel": 4,
      "note": 70,
      "start": 22.8209,
      "duration": 0.9166,
      "velocity": 79,
      "chip": "ym2612"
    },
    {
      "channel": 0,
      "note": 70,
      "start": 23.137,
      "duration": 0.9166,
      "velocity": 79,
      "chip": "ym2612"
    },
    {
      "channel": 2,
      "note": 55,
      "start": 23.1373,
      "duration": 0.9167,
      "velocity": 79,
      "chip": "ym2612"
    },
    {
      "channel": 3,
      "note": 55,
      "start": 23.354,
      "duration": 0.9165,
      "velocity": 79,
      "chip": "ym2612"
    },
    {
      "channel": 4,
      "note": 70,
      "start": 23.7375,
      "duration": 0.9165,
      "velocity": 79,
      "chip": "ym2612"
    },
    {
      "channel": 0,
      "note": 72,
      "start": 24.0538,
      "duration": 0.8999,
      "velocity": 79,
      "chip": "ym2612"
    },
    {
      "channel": 2,
      "note": 57,
      "start": 24.0543,
      "duration": 0.8998,
      "velocity": 79,
      "chip": "ym2612"
    },
    {
      "channel": 3,
      "note": 57,
      "start": 24.2707,
      "duration": 0.9166,
      "velocity": 79,
      "chip": "ym2612"
    },
    {
      "channel": 4,
      "note": 72,
      "start": 24.6542,
      "duration": 0.9166,
      "velocity": 79,
      "chip": "ym2612"
    },
    {
      "channel": 0,
      "note": 72,
      "start": 24.9536,
      "duration": 0.9166,
      "velocity": 79,
      "chip": "ym2612"
    },
    {
      "channel": 2,
      "note": 57,
      "start": 24.954,
      "duration": 0.9167,
      "velocity": 79,
      "chip": "ym2612"
    },
    {
      "channel": 3,
      "note": 57,
      "start": 25.1873,
      "duration": 0.9165,
      "velocity": 79,
      "chip": "ym2612"
    },
    {
      "channel": 4,
      "note": 72,
      "start": 25.5708,
      "duration": 0.9165,
      "velocity": 79,
      "chip": "ym2612"
    },
    {
      "channel": 0,
      "note": 70,
      "start": 25.8705,
      "duration": 0.9165,
      "velocity": 79,
      "chip": "ym2612"
    },
    {
      "channel": 2,
      "note": 55,
      "start": 25.8709,
      "duration": 0.9164,
      "velocity": 79,
      "chip": "ym2612"
    },
    {
      "channel": 3,
      "note": 55,
      "start": 26.1041,
      "duration": 0.9166,
      "velocity": 79,
      "chip": "ym2612"
    },
    {
      "channel": 4,
      "note": 70,
      "start": 26.4875,
      "duration": 0.9166,
      "velocity": 79,
      "chip": "ym2612"
    },
    {
      "channel": 0,
      "note": 70,
      "start": 26.787,
      "duration": 0.9166,
      "velocity": 79,
      "chip": "ym2612"
    },
    {
      "channel": 2,
      "note": 55,
      "start": 26.7873,
      "duration": 0.9167,
      "velocity": 79,
      "chip": "ym2612"
    },
    {
      "channel": 3,
      "note": 55,
      "start": 27.0207,
      "duration": 0.9165,
      "velocity": 79,
      "chip": "ym2612"
    },
    {
      "channel": 4,
      "note": 70,
      "start": 27.4041,
      "duration": 0.9165,
      "velocity": 79,
      "chip": "ym2612"
    },
    {
      "channel": 0,
      "note": 69,
      "start": 27.7038,
      "duration": 0.9165,
      "velocity": 79,
      "chip": "ym2612"
    },
    {
      "channel": 2,
      "note": 54,
      "start": 27.7043,
      "duration": 0.9164,
      "velocity": 79,
      "chip": "ym2612"
    },
    {
      "channel": 3,
      "note": 54,
      "start": 27.9374,
      "duration": 0.9166,
      "velocity": 79,
      "chip": "ym2612"
    },
    {
      "channel": 4,
      "note": 69,
      "start": 28.3209,
      "duration": 0.9,
      "velocity": 79,
      "chip": "ym2612"
    },
    {
      "channel": 0,
      "note": 69,
      "start": 28.6203,
      "duration": 0.9167,
      "velocity": 79,
      "chip": "ym2612"
    },
    {
      "channel": 2,
      "note": 54,
      "start": 28.6207,
      "duration": 0.9169,
      "velocity": 79,
      "chip": "ym2612"
    },
    {
      "channel": 3,
      "note": 54,
      "start": 28.854,
      "duration": 0.8999,
      "velocity": 79,
      "chip": "ym2612"
    },
    {
      "channel": 4,
      "note": 69,
      "start": 29.2208,
      "duration": 0.9165,
      "velocity": 79,
      "chip": "ym2612"
    },
    {
      "channel": 0,
      "note": 70,
      "start": 29.5372,
      "duration": 0.9165,
      "velocity": 79,
      "chip": "ym2612"
    },
    {
      "channel": 1,
      "note": 52,
      "start": 29.5375,
      "duration": 0.4495,
      "velocity": 79,
      "chip": "ym2612"
    },
    {
      "channel": 2,
      "note": 55,
      "start": 29.5378,
      "duration": 0.9163,
      "velocity": 79,
      "chip": "ym2612"
    },
    {
      "channel": 3,
      "note": 55,
      "start": 29.7542,
      "duration": 0.9165,
      "velocity": 79,
      "chip": "ym2612"
    },
    {
      "channel": 4,
      "note": 70,
      "start": 30.1375,
      "duration": 0.9166,
      "velocity": 79,
      "chip": "ym2612"
    },
    {
      "channel": 0,
      "note": 70,
      "start": 30.4536,
      "duration": 14.599,
      "velocity": 79,
      "chip": "ym2612"
    },
    {
      "channel": 2,
      "note": 55,
      "start": 30.4541,
      "duration": 14.5985,
      "velocity": 79,
      "chip": "ym2612"
    },
    {
      "channel": 3,
      "note": 55,
      "start": 30.6707,
      "duration": 14.3819,
      "velocity": 79,
      "chip": "ym2612"
    },
    {
      "channel": 4,
      "note": 70,
      "start": 31.0541,
      "duration": 13.9985,
      "velocity": 79,
      "chip": "ym2612"
    }
  ]
}