{
  "track_name": "11 - Blood-Stained Lake",
  "duration_sec": 82.747,
  "sample_rate": 44100,
  "note_count": 1983,
  "unique_pitches": 31,
  "pitch_range": 40,
  "avg_note_duration": 0.1805,
  "reconstruction_stats": {
    "notes_reconstructed": 1983,
    "keyon_events": 1983,
    "keyoff_events": 1981,
    "orphan_keyons": 2,
    "unique_pitches": 31,
    "pitch_range": 40,
    "avg_duration_sec": 0.1805
  },
  "metadata": {
    "source": "E\\Elemental Master\\11 - Blood-Stained Lake.vgz"
  },
  "notes": [
    {
      "channel": 0,
      "note": 66,
      "start": 0.0,
      "duration": 0.106,
      "velocity": 103,
      "chip": "ym2612"
    },
    {
      "channel": 1,
      "note": 68,
      "start": 0.0,
      "duration": 0.0,
      "velocity": 94,
      "chip": "ym2612"
    },
    {
      "channel": 3,
      "note": 64,
      "start": 0.0,
      "duration": 0.0,
      "velocity": 127,
      "chip": "ym2612"
    },
    {
      "channel": 1,
      "note": 66,
      "start": 0.0016,
      "duration": 1.1447,
      "velocity": 97,
      "chip": "ym2612"
    },
    {
      "channel": 2,
      "note": 54,
      "start": 0.0033,
      "duration": 1.5333,
      "velocity": 115,
      "chip": "ym2612"
    },
    {
      "channel": 3,
      "note": 64,
      "start": 0.0083,
      "duration": 0.0173,
      "velocity": 127,
      "chip": "ym2612"
    },
    {
      "channel": 0,
      "note": 74,
      "start": 0.14,
      "duration": 0.0961,
      "velocity": 103,
      "chip": "ym2612"
    },
    {
      "channel": 0,
      "note": 73,
      "start": 0.27,
      "duration": 0.096,
      "velocity": 103,
      "chip": "ym2612"
    },
    {
      "channel": 4,
      "note": 66,
      "start": 0.2725,
      "duration": 0.0945,
      "velocity": 103,
      "chip": "ym2612"
    },
    {
      "channel": 5,
      "note": 54,
      "start": 0.2742,
      "duration": 1.5232,
      "velocity": 115,
      "chip": "ym2612"
    },
    {
      "channel": 0,
      "note": 66,
      "start": 0.4,
      "duration": 0.096,
      "velocity": 103,
      "chip": "ym2612"
    },
    {
      "channel": 4,
      "note": 74,
      "start": 0.4025,
      "duration": 0.0945,
      "velocity": 103,
      "chip": "ym2612"
    },
    {
      "channel": 0,
      "note": 73,
      "start": 0.5301,
      "duration": 0.096,
      "velocity": 103,
      "chip": "ym2612"
    },
    {
      "channel": 4,
      "note": 73,
      "start": 0.5325,
      "duration": 0.0945,
      "velocity": 103,
      "chip": "ym2612"
    },
    {
      "channel": 0,
      "note": 71,
      "start": 0.66,
      "duration": 0.0961,
      "velocity": 103,
      "chip": "ym2612"
    },
    {
      "channel": 4,
      "note": 66,
      "start": 0.6624,
      "duration": 0.0942,
      "velocity": 103,
      "chip": "ym2612"
    },
    {
      "channel": 0,
      "note": 66,
      "start": 0.7901,
      "duration": 0.096,
      "velocity": 103,
      "chip": "ym2612"
    },
    {
      "channel": 4,
      "note": 73,
      "start": 0.792,
      "duration": 0.0946,
      "velocity": 103,
      "chip": "ym2612"
    },
    {
      "channel": 0,
      "note": 71,
      "start": 0.9201,
      "duration": 0.096,
      "velocity": 103,
      "chip": "ym2612"
    },
    {
      "channel": 4,
      "note": 71,
      "start": 0.9221,
      "duration": 0.0945,
      "velocity": 103,
      "chip": "ym2612"
    },
    {
      "channel": 0,
      "note": 69,
      "start": 1.0501,
      "duration": 0.096,
      "velocity": 103,
      "chip": "ym2612"
    },
    {
      "channel": 4,
      "note": 66,
      "start": 1.0521,
      "duration": 0.0947,
      "velocity": 103,
      "chip": "ym2612"
    },
    {
      "channel": 0,
      "note": 66,
      "start": 1.18,
      "duration": 0.0961,
      "velocity": 103,
      "chip": "ym2612"
    },
    {
      "channel": 1,
      "note": 61,
      "start": 1.1817,
      "duration": 0.0946,
      "velocity": 97,
      "chip": "ym2612"
    },
    {
      "channel": 3,
      "note": 64,
      "start": 1.1835,
      "duration": 0.0118,
      "velocity": 127,
      "chip": "ym2612"
    },
    {
      "channel": 4,
      "note": 71,
      "start": 1.1852,
      "duration": 0.092,
      "velocity": 103,
      "chip": "ym2612"
    },
    {
      "channel": 0,
      "note": 69,
      "start": 1.3101,
      "duration": 0.0961,
      "velocity": 103,
      "chip": "ym2612"
    },
    {
      "channel": 1,
      "note": 69,
      "start": 1.3117,
      "duration": 0.0947,
      "velocity": 97,
      "chip": "ym2612"
    },
    {
      "channel": 3,
      "note": 64,
      "start": 1.3139,
      "duration": 0.0119,
      "velocity": 127,
      "chip": "ym2612"
    },
    {
      "channel": 4,
      "note": 69,
      "start": 1.3156,
      "duration": 0.0917,
      "velocity": 103,
      "chip": "ym2612"
    },
    {
      "channel": 0,
      "note": 68,
      "start": 1.4401,
      "duration": 0.0961,
      "velocity": 103,
      "chip": "ym2612"
    },
    {
      "channel": 1,
      "note": 68,
      "start": 1.4417,
      "duration": 0.0947,
      "velocity": 97,
      "chip": "ym2612"
    },
    {
      "channel": 3,
      "note": 64,
      "start": 1.4439,
      "duration": 0.0119,
      "velocity": 127,
      "chip": "ym2612"
    },
    {
      "channel": 4,
      "note": 66,
      "start": 1.4455,
      "duration": 0.0918,
      "velocity": 103,
      "chip": "ym2612"
    },
    {
      "channel": 0,
      "note": 66,
      "start": 1.5704,
      "duration": 0.0957,
      "velocity": 103,
      "chip": "ym2612"
    },
    {
      "channel": 1,
      "note": 66,
      "start": 1.5724,
      "duration": 1.1341,
      "velocity": 97,
      "chip": "ym2612"
    },
    {
      "channel": 2,
      "note": 57,
      "start": 1.574,
      "duration": 1.5227,
      "velocity": 115,
      "chip": "ym2612"
    },
    {
      "channel": 3,
      "note": 64,
      "start": 1.5762,
      "duration": 0.0095,
      "velocity": 127,
      "chip": "ym2612"
    },
    {
      "channel": 4,
      "note": 69,
      "start": 1.5779,
      "duration": 0.0893,
      "velocity": 103,
      "chip": "ym2612"
    },
    {
      "channel": 0,
      "note": 74,
      "start": 1.7002,
      "duration": 0.096,
      "velocity": 103,
      "chip": "ym2612"
    },
    {
      "channel": 4,
      "note": 68,
      "start": 1.7026,
      "duration": 0.0945,
      "velocity": 103,
      "chip": "ym2612"
    },
    {
      "channel": 0,
      "note": 73,
      "start": 1.8302,
      "duration": 0.0962,
      "velocity": 103,
      "chip": "ym2612"
    },
    {
      "channel": 4,
      "note": 66,
      "start": 1.8329,
      "duration": 0.0945,
      "velocity": 103,
      "chip": "ym2612"
    },
    {
      "channel": 5,
      "note": 57,
      "start": 1.8346,
      "duration": 1.5229,
      "velocity": 115,
      "chip": "ym2612"
    },
    {
      "channel": 0,
      "note": 66,
      "start": 1.9602,
      "duration": 0.0966,
      "velocity": 103,
      "chip": "ym2612"
    },
    {
      "channel": 4,
      "note": 74,
      "start": 1.9626,
      "duration": 0.0951,
      "velocity": 103,
      "chip": "ym2612"
    },
    {
      "channel": 0,
      "note": 73,
      "start": 2.0902,
      "duration": 0.0969,
      "velocity": 103,
      "chip": "ym2612"
    },
    {
      "channel": 4,
      "note": 73,
      "start": 2.0926,
      "duration": 0.0955,
      "velocity": 103,
      "chip": "ym2612"
    },
    {
      "channel": 0,
      "note": 71,
      "start": 2.2203,
      "duration": 0.0959,
      "velocity": 103,
      "chip": "ym2612"
    },
    {
      "channel": 4,
      "note": 66,
      "start": 2.2227,
      "duration": 0.094,
      "velocity": 103,
      "chip": "ym2612"
    },
    {
      "channel": 0,
      "note": 66,
      "start": 2.3502,
      "duration": 0.0961,
      "velocity": 103,
      "chip": "ym2612"
    },
    {
      "channel": 4,
      "note": 73,
      "start": 2.3522,
      "duration": 0.0946,
      "velocity": 103,
      "chip": "ym2612"
    },
    {
      "channel": 0,
      "note": 71,
      "start": 2.4802,
      "duration": 0.0961,
      "velocity": 103,
      "chip": "ym2612"
    },
    {
      "channel": 4,
      "note": 71,
      "start": 2.4822,
      "duration": 0.0946,
      "velocity": 103,
      "chip": "ym2612"
    },
    {
      "channel": 0,
      "note": 69,
      "start": 2.6102,
      "duration": 0.0961,
      "velocity": 103,
      "chip": "ym2612"
    },
    {
      "channel": 4,
      "note": 66,
      "start": 2.6123,
      "duration": 0.0946,
      "velocity": 103,
      "chip": "ym2612"
    },
    {
      "channel": 0,
      "note": 66,
      "start": 2.7402,
      "duration": 0.0961,
      "velocity": 103,
      "chip": "ym2612"
    },
    {
      "channel": 1,
      "note": 61,
      "start": 2.7418,
      "duration": 0.0946,
      "velocity": 97,
      "chip": "ym2612"
    },
    {
      "channel": 3,
      "note": 64,
      "start": 2.7436,
      "duration": 0.0118,
      "velocity": 127,
      "chip": "ym2612"
    },
    {
      "channel": 4,
      "note": 71,
      "start": 2.7453,
      "duration": 0.0921,
      "velocity": 103,
      "chip": "ym2612"
    },
    {
      "channel": 0,
      "note": 69,
      "start": 2.8703,
      "duration": 0.096,
      "velocity": 103,
      "chip": "ym2612"
    },
    {
      "channel": 1,
      "note": 69,
      "start": 2.8719,
      "duration": 0.0945,
      "velocity": 97,
      "chip": "ym2612"
    },
    {
      "channel": 3,
      "note": 64,
      "start": 2.8741,
      "duration": 0.0119,
      "velocity": 127,
      "chip": "ym2612"
    },
    {
      "channel": 4,
      "note": 69,
      "start": 2.8757,
      "duration": 0.0916,
      "velocity": 103,
      "chip": "ym2612"
    },
    {
      "channel": 0,
      "note": 68,
      "start": 3.0002,
      "duration": 0.0961,
      "velocity": 103,
      "chip": "ym2612"
    },
    {
      "channel": 1,
      "note": 68,
      "start": 3.0018,
      "duration": 0.0946,
      "velocity": 97,
      "chip": "ym2612"
    },
    {
      "channel": 3,
      "note": 64,
      "start": 3.004,
      "duration": 0.0119,
      "velocity": 127,
      "chip": "ym2612"
    },
    {
      "channel": 4,
      "note": 66,
      "start": 3.0057,
      "duration": 0.0918,
      "velocity": 103,
      "chip": "ym2612"
    },
    {
      "channel": 0,
      "note": 66,
      "start": 3.1306,
      "duration": 0.0957,
      "velocity": 103,
      "chip": "ym2612"
    },
    {
      "channel": 1,
      "note": 66,
      "start": 3.1325,
      "duration": 1.1341,
      "velocity": 97,
      "chip": "ym2612"
    },
    {
      "channel": 2,
      "note": 59,
      "start": 3.1341,
      "duration": 1.5227,
      "velocity": 115,
      "chip": "ym2612"
    },
    {
      "channel": 3,
      "note": 64,
      "start": 3.1363,
      "duration": 0.0096,
      "velocity": 127,
      "chip": "ym2612"
    },
    {
      "channel": 4,
      "note": 69,
      "start": 3.138,
      "duration": 0.0893,
      "velocity": 103,
      "chip": "ym2612"
    },
    {
      "channel": 0,
      "note": 74,
      "start": 3.2603,
      "duration": 0.096,
      "velocity": 103,
      "chip": "ym2612"
    },
    {
      "channel": 4,
      "note": 68,
      "start": 3.2627,
      "duration": 0.0946,
      "velocity": 103,
      "chip": "ym2612"
    },
    {
      "channel": 0,
      "note": 73,
      "start": 3.3903,
      "duration": 0.096,
      "velocity": 103,
      "chip": "ym2612"
    },
    {
      "channel": 4,
      "note": 66,
      "start": 3.393,
      "duration": 0.0943,
      "velocity": 103,
      "chip": "ym2612"
    },
    {
      "channel": 5,
      "note": 59,
      "start": 3.3947,
      "duration": 1.523,
      "velocity": 115,
      "chip": "ym2612"
    },
    {
      "channel": 0,
      "note": 66,
      "start": 3.5203,
      "duration": 0.0961,
      "velocity": 103,
      "chip": "ym2612"
    },
    {
      "channel": 4,
      "note": 74,
      "start": 3.5227,
      "duration": 0.0945,
      "velocity": 103,
      "chip": "ym2612"
    },
    {
      "channel": 0,
      "note": 73,
      "start": 3.6504,
      "duration": 0.096,
      "velocity": 103,
      "chip": "ym2612"
    },
    {
      "channel": 4,
      "note": 73,
      "start": 3.6528,
      "duration": 0.0945,
      "velocity": 103,
      "chip": "ym2612"
    },
    {
      "channel": 0,
      "note": 71,
      "start": 3.7803,
      "duration": 0.0961,
      "velocity": 103,
      "chip": "ym2612"
    },
    {
      "channel": 4,
      "note": 66,
      "start": 3.7827,
      "duration": 0.0942,
      "velocity": 103,
      "chip": "ym2612"
    },
    {
      "channel": 0,
      "note": 66,
      "start": 3.9103,
      "duration": 0.0961,
      "velocity": 103,
      "chip": "ym2612"
    },
    {
      "channel": 4,
      "note": 73,
      "start": 3.9124,
      "duration": 0.0946,
      "velocity": 103,
      "chip": "ym2612"
    },
    {
      "channel": 0,
      "note": 71,
      "start": 4.0404,
      "duration": 0.096,
      "velocity": 103,
      "chip": "ym2612"
    },
    {
      "channel": 4,
      "note": 71,
      "start": 4.0424,
      "duration": 0.0946,
      "velocity": 103,
      "chip": "ym2612"
    },
    {
      "channel": 0,
      "note": 69,
      "start": 4.1704,
      "duration": 0.096,
      "velocity": 103,
      "chip": "ym2612"
    },
    {
      "channel": 4,
      "note": 66,
      "start": 4.1724,
      "duration": 0.0947,
      "velocity": 103,
      "chip": "ym2612"
    },
    {
      "channel": 0,
      "note": 66,
      "start": 4.3004,
      "duration": 0.0961,
      "velocity": 103,
      "chip": "ym2612"
    },
    {
      "channel": 1,
      "note": 61,
      "start": 4.302,
      "duration": 0.0946,
      "velocity": 97,
      "chip": "ym2612"
    },
    {
      "channel": 3,
      "note": 64,
      "start": 4.307,
      "duration": 0.009,
      "velocity": 127,
      "chip": "ym2612"
    },
    {
      "channel": 4,
      "note": 71,
      "start": 4.3086,
      "duration": 0.0889,
      "velocity": 103,
      "chip": "ym2612"
    },
    {
      "channel": 0,
      "note": 69,
      "start": 4.4308,
      "duration": 0.0957,
      "velocity": 103,
      "chip": "ym2612"
    },
    {
      "channel": 1,
      "note": 69,
      "start": 4.4324,
      "duration": 0.0943,
      "velocity": 97,
      "chip": "ym2612"
    },
    {
      "channel": 3,
      "note": 64,
      "start": 4.4345,
      "duration": 0.0115,
      "velocity": 127,
      "chip": "ym2612"
    },
    {
      "channel": 4,
      "note": 69,
      "start": 4.4362,
      "duration": 0.0914,
      "velocity": 103,
      "chip": "ym2612"
    },
    {
      "channel": 0,
      "note": 68,
      "start": 4.561,
      "duration": 0.0955,
      "velocity": 103,
      "chip": "ym2612"
    },
    {
      "channel": 1,
      "note": 68,
      "start": 4.5626,
      "duration": 0.0941,
      "velocity": 97,
      "chip": "ym2612"
    },
    {
      "channel": 3,
      "note": 64,
      "start": 4.5647,
      "duration": 0.0113,
      "velocity": 127,
      "chip": "ym2612"
    },
    {
      "channel": 4,
      "note": 66,
      "start": 4.5664,
      "duration": 0.0912,
      "velocity": 103,
      "chip": "ym2612"
    },
    {
      "channel": 0,
      "note": 66,
      "start": 4.6917,
      "duration": 0.0948,
      "velocity": 103,
      "chip": "ym2612"
    },
    {
      "channel": 1,
      "note": 66,
      "start": 4.6936,
      "duration": 1.1332,
      "velocity": 97,
      "chip": "ym2612"
    },
    {
      "channel": 2,
      "note": 66,
      "start": 4.6952,
      "duration": 1.5217,
      "velocity": 115,
      "chip": "ym2612"
    },
    {
      "channel": 3,
      "note": 64,
      "start": 4.7004,
      "duration": 0.0066,
      "velocity": 127,
      "chip": "ym2612"
    },
    {
      "channel": 4,
      "note": 69,
      "start": 4.7021,
      "duration": 0.0854,
      "velocity": 103,
      "chip": "ym2612"
    },
    {
      "channel": 0,
      "note": 74,
      "start": 4.8205,
      "duration": 0.096,
      "velocity": 103,
      "chip": "ym2612"
    },
    {
      "channel": 4,
      "note": 68,
      "start": 4.8229,
      "duration": 0.0945,
      "velocity": 103,
      "chip": "ym2612"
    },
    {
      "channel": 0,
      "note": 73,
      "start": 4.9505,
      "duration": 0.096,
      "velocity": 103,
      "chip": "ym2612"
    },
    {
      "channel": 4,
      "note": 66,
      "start": 4.9532,
      "duration": 0.0943,
      "velocity": 103,
      "chip": "ym2612"
    },
    {
      "channel": 5,
      "note": 66,
      "start": 4.9549,
      "duration": 1.5392,
      "velocity": 115,
      "chip": "ym2612"
    },
    {
      "channel": 0,
      "note": 66,
      "start": 5.0805,
      "duration": 0.0961,
      "velocity": 103,
      "chip": "ym2612"
    },
    {
      "channel": 3,
      "note": 64,
      "start": 5.0859,
      "duration": 0.0102,
      "velocity": 127,
      "chip": "ym2612"
    },
    {
      "channel": 4,
      "note": 74,
      "start": 5.0876,
      "duration": 0.0898,
      "velocity": 103,
      "chip": "ym2612"
    },
    {
      "channel": 0,
      "note": 73,
      "start": 5.2105,
      "duration": 0.096,
      "velocity": 103,
      "chip": "ym2612"
    },
    {
      "channel": 4,
      "note": 73,
      "start": 5.2129,
      "duration": 0.0946,
      "velocity": 103,
      "chip": "ym2612"
    },
    {
      "channel": 0,
      "note": 71,
      "start": 5.3405,
      "duration": 0.0961,
      "velocity": 103,
      "chip": "ym2612"
    },
    {
      "channel": 4,
      "note": 66,
      "start": 5.3429,
      "duration": 0.0946,
      "velocity": 103,
      "chip": "ym2612"
    },
    {
      "channel": 0,
      "note": 66,
      "start": 5.4705,
      "duration": 0.096,
      "velocity": 103,
      "chip": "ym2612"
    },
    {
      "channel": 3,
      "note": 64,
      "start": 5.476,
      "duration": 0.0101,
      "velocity": 127,
      "chip": "ym2612"
    },
    {
      "channel": 4,
      "note": 73,
      "start": 5.4776,
      "duration": 0.0898,
      "velocity": 103,
      "chip": "ym2612"
    },
    {
      "channel": 0,
      "note": 71,
      "start": 5.6005,
      "duration": 0.0961,
      "velocity": 103,
      "chip": "ym2612"
    },
    {
      "channel": 3,
      "note": 64,
      "start": 5.6061,
      "duration": 0.0101,
      "velocity": 127,
      "chip": "ym2612"
    },
    {
      "channel": 4,
      "note": 71,
      "start": 5.6078,
      "duration": 0.0897,
      "velocity": 103,
      "chip": "ym2612"
    },
    {
      "channel": 0,
      "note": 69,
      "start": 5.7305,
      "duration": 0.0961,
      "velocity": 103,
      "chip": "ym2612"
    },
    {
      "channel": 3,
      "note": 64,
      "start": 5.7329,
      "duration": 0.0136,
      "velocity": 127,
      "chip": "ym2612"
    },
    {
      "channel": 4,
      "note": 66,
      "start": 5.7346,
      "duration": 0.093,
      "velocity": 103,
      "chip": "ym2612"
    },
    {
      "channel": 0,
      "note": 66,
      "start": 5.8605,
      "duration": 0.096,
      "velocity": 103,
      "chip": "ym2612"
    },
    {
      "channel": 1,
      "note": 61,
      "start": 5.8622,
      "duration": 0.0946,
      "velocity": 97,
      "chip": "ym2612"
    },
    {
      "channel": 3,
      "note": 64,
      "start": 5.8645,
      "duration": 0.0124,
      "velocity": 127,
      "chip": "ym2612"
    },
    {
      "channel": 4,
      "note": 71,
      "start": 5.8661,
      "duration": 0.0915,
      "velocity": 103,
      "chip": "ym2612"
    },
    {
      "channel": 0,
      "note": 69,
      "start": 5.9906,
      "duration": 0.096,
      "velocity": 103,
      "chip": "ym2612"
    },
    {
      "channel": 1,
      "note": 69,
      "start": 5.9922,
      "duration": 0.0946,
      "velocity": 97,
      "chip": "ym2612"
    },
    {
      "channel": 3,
      "note": 64,
      "start": 5.9945,
      "duration": 0.0116,
      "velocity": 127,
      "chip": "ym2612"
    },
    {
      "channel": 4,
      "note": 69,
      "start": 5.9962,
      "duration": 0.0915,
      "velocity": 103,
      "chip": "ym2612"
    },
    {
      "channel": 0,
      "note": 68,
      "start": 6.1205,
      "duration": 0.0961,
      "velocity": 103,
      "chip": "ym2612"
    },
    {
      "channel": 1,
      "note": 68,
      "start": 6.1222,
      "duration": 0.0946,
      "velocity": 97,
      "chip": "ym2612"
    },
    {
      "channel": 3,
      "note": 64,
      "start": 6.1245,
      "duration": 0.0118,
      "velocity": 127,
      "chip": "ym2612"
    },
    {
      "channel": 4,
      "note": 66,
      "start": 6.1262,
      "duration": 0.0915,
      "velocity": 103,
      "chip": "ym2612"
    },
    {
      "channel": 0,
      "note": 54,
      "start": 6.2541,
      "duration": 1.1651,
      "velocity": 111,
      "chip": "ym2612"
    },
    {
      "channel": 1,
      "note": 66,
      "start": 6.2563,
      "duration": 0.1067,
      "velocity": 97,
      "chip": "ym2612"
    },
    {
      "channel": 2,
      "note": 49,
      "start": 6.2613,
      "duration": 1.1583,
      "velocity": 105,
      "chip": "ym2612"
    },
    {
      "channel": 3,
      "note": 64,
      "start": 6.2671,
      "duration": 0.0154,
      "velocity": 127,
      "chip": "ym2612"
    },
    {
      "channel": 4,
      "note": 69,
      "start": 6.2688,
      "duration": 0.0951,
      "velocity": 103,
      "chip": "ym2612"
    },
    {
      "channel": 1,
      "note": 54,
      "start": 6.3969,
      "duration": 0.0961,
      "velocity": 97,
      "chip": "ym2612"
    },
    {
      "channel": 3,
      "note": 64,
      "start": 6.4022,
      "duration": 0.0103,
      "velocity": 127,
      "chip": "ym2612"
    },
    {
      "channel": 4,
      "note": 68,
      "start": 6.4039,
      "duration": 0.09,
      "velocity": 103,
      "chip": "ym2612"
    },
    {
      "channel": 1,
      "note": 66,
      "start": 6.5269,
      "duration": 0.1123,
      "velocity": 97,
      "chip": "ym2612"
    },
    {
      "channel": 3,
      "note": 64,
      "start": 6.5322,
      "duration": 0.0265,
      "velocity": 127,
      "chip": "ym2612"
    },
    {
      "channel": 4,
      "note": 54,
      "start": 6.5373,
      "duration": 1.1431,
      "velocity": 111,
      "chip": "ym2612"
    },
    {
      "channel": 5,
      "note": 49,
      "start": 6.5424,
      "duration": 1.1382,
      "velocity": 105,
      "chip": "ym2612"
    },
    {
      "channel": 1,
      "note": 66,
      "start": 6.6733,
      "duration": 0.096,
      "velocity": 97,
      "chip": "ym2612"
    },
    {
      "channel": 3,
      "note": 64,
      "start": 6.6787,
      "duration": 0.0102,
      "velocity": 127,
      "chip": "ym2612"
    },
    {
      "channel": 1,
      "note": 54,
      "start": 6.8032,
      "duration": 0.0961,
      "velocity": 97,
      "chip": "ym2612"
    },
    {
      "channel": 3,
      "note": 64,
      "start": 6.8085,
      "duration": 0.0102,
      "velocity": 127,
      "chip": "ym2612"
    },
    {
      "channel": 1,
      "note": 66,
      "start": 6.9334,
      "duration": 0.0959,
      "velocity": 97,
      "chip": "ym2612"
    },
    {
      "channel": 3,
      "note": 64,
      "start": 6.9387,
      "duration": 0.01,
      "velocity": 127,
      "chip": "ym2612"
    },
    {
      "channel": 1,
      "note": 66,
      "start": 7.064,
      "duration": 0.0953,
      "velocity": 97,
      "chip": "ym2612"
    },
    {
      "channel": 3,
      "note": 64,
      "start": 7.0695,
      "duration": 0.0093,
      "velocity": 127,
      "chip": "ym2612"
    },
    {
      "channel": 1,
      "note": 54,
      "start": 7.1941,
      "duration": 0.0952,
      "velocity": 97,
      "chip": "ym2612"
    },
    {
      "channel": 3,
      "note": 64,
      "start": 7.1994,
      "duration": 0.0093,
      "velocity": 127,
      "chip": "ym2612"
    },
    {
      "channel": 1,
      "note": 66,
      "start": 7.3232,
      "duration": 0.0963,
      "velocity": 97,
      "chip": "ym2612"
    },
    {
      "channel": 3,
      "note": 64,
      "start": 7.3285,
      "duration": 0.0103,
      "velocity": 127,
      "chip": "ym2612"
    },
    {
      "channel": 0,
      "note": 54,
      "start": 7.4532,
      "duration": 0.096,
      "velocity": 111,
      "chip": "ym2612"
    },
    {
      "channel": 1,
      "note": 66,
      "start": 7.455,
      "duration": 0.0944,
      "velocity": 97,
      "chip": "ym2612"
    },
    {
      "channel": 2,
      "note": 49,
      "start": 7.4567,
      "duration": 0.0929,
      "velocity": 105,
      "chip": "ym2612"
    },
    {
      "channel": 3,
      "note": 64,
      "start": 7.462,
      "duration": 0.0069,
      "velocity": 127,
      "chip": "ym2612"
    },
    {
      "channel": 0,
      "note": 56,
      "start": 7.5832,
      "duration": 0.096,
      "velocity": 111,
      "chip": "ym2612"
    },
    {
      "channel": 1,
      "note": 54,
      "start": 7.5848,
      "duration": 0.0946,
      "velocity": 97,
      "chip": "ym2612"
    },
    {
      "channel": 2,
      "note": 50,
      "start": 7.5865,
      "duration": 0.0932,
      "velocity": 105,
      "chip": "ym2612"
    },
    {
      "channel": 3,
      "note": 64,
      "start": 7.5918,
      "duration": 0.0071,
      "velocity": 127,
      "chip": "ym2612"
    },
    {
      "channel": 0,
      "note": 57,
      "start": 7.7133,
      "duration": 0.096,
      "velocity": 111,
      "chip": "ym2612"
    },
    {
      "channel": 1,
      "note": 66,
      "start": 7.7149,
      "duration": 0.0946,
      "velocity": 97,
      "chip": "ym2612"
    },
    {
      "channel": 2,
      "note": 52,
      "start": 7.7165,
      "duration": 0.0931,
      "velocity": 105,
      "chip": "ym2612"
    },
    {
      "channel": 3,
      "note": 64,
      "start": 7.7217,
      "duration": 0.0071,
      "velocity": 127,
      "chip": "ym2612"
    },
    {
      "channel": 4,
      "note": 54,
      "start": 7.7234,
      "duration": 0.087,
      "velocity": 111,
      "chip": "ym2612"
    },
    {
      "channel": 5,
      "note": 49,
      "start": 7.7252,
      "duration": 0.0855,
      "velocity": 105,
      "chip": "ym2612"
    },
    {
      "channel": 0,
      "note": 59,
      "start": 7.8433,
      "duration": 0.746,
      "velocity": 111,
      "chip": "ym2612"
    },
    {
      "channel": 1,
      "note": 65,
      "start": 7.8454,
      "duration": 0.094,
      "velocity": 97,
      "chip": "ym2612"
    },
    {
      "channel": 2,
      "note": 56,
      "start": 7.8471,
      "duration": 0.7426,
      "velocity": 105,
      "chip": "ym2612"
    },
    {
      "channel": 3,
      "note": 64,
      "start": 7.8525,
      "duration": 0.0079,
      "velocity": 127,
      "chip": "ym2612"
    },
    {
      "channel": 4,
      "note": 56,
      "start": 7.8541,
      "duration": 0.0861,
      "velocity": 111,
      "chip": "ym2612"
    },
    {
      "channel": 5,
      "note": 50,
      "start": 7.8558,
      "duration": 0.0847,
      "velocity": 105,
      "chip": "ym2612"
    },
    {
      "channel": 1,
      "note": 53,
      "start": 7.9733,
      "duration": 0.0961,
      "velocity": 97,
      "chip": "ym2612"
    },
    {
      "channel": 3,
      "note": 64,
      "start": 7.9786,
      "duration": 0.0102,
      "velocity": 127,
      "chip": "ym2612"
    },
    {
      "channel": 4,
      "note": 57,
      "start": 7.9802,
      "duration": 0.09,
      "velocity": 111,
      "chip": "ym2612"
    },
    {
      "channel": 5,
      "note": 52,
      "start": 7.982,
      "duration": 0.0885,
      "velocity": 105,
      "chip": "ym2612"
    },
    {
      "channel": 1,
      "note": 65,
      "start": 8.1033,
      "duration": 0.0961,
      "velocity": 97,
      "chip": "ym2612"
    },
    {
      "channel": 3,
      "note": 64,
      "start": 8.1086,
      "duration": 0.0103,
      "velocity": 127,
      "chip": "ym2612"
    },
    {
      "channel": 4,
      "note": 59,
      "start": 8.1103,
      "duration": 0.74,
      "velocity": 111,
      "chip": "ym2612"
    },
    {
      "channel": 5,
      "note": 56,
      "start": 8.112,
      "duration": 0.7385,
      "velocity": 105,
      "chip": "ym2612"
    },
    {
      "channel": 1,
      "note": 65,
      "start": 8.2334,
      "duration": 0.0961,
      "velocity": 97,
      "chip": "ym2612"
    },
    {
      "channel": 3,
      "note": 64,
      "start": 8.2388,
      "duration": 0.0105,
      "velocity": 127,
      "chip": "ym2612"
    },
    {
      "channel": 1,
      "note": 53,
      "start": 8.3633,
      "duration": 0.0961,
      "velocity": 97,
      "chip": "ym2612"
    },
    {
      "channel": 3,
      "note": 64,
      "start": 8.3686,
      "duration": 0.011,
      "velocity": 127,
      "chip": "ym2612"
    },
    {
      "channel": 1,
      "note": 65,
      "start": 8.4933,
      "duration": 0.0962,
      "velocity": 97,
      "chip": "ym2612"
    },
    {
      "channel": 3,
      "note": 64,
      "start": 8.4986,
      "duration": 0.0103,
      "velocity": 127,
      "chip": "ym2612"
    },
    {
      "channel": 0,
      "note": 57,
      "start": 8.6233,
      "duration": 0.7462,
      "velocity": 111,
      "chip": "ym2612"
    },
    {
      "channel": 1,
      "note": 65,
      "start": 8.6251,
      "duration": 0.0944,
      "velocity": 97,
      "chip": "ym2612"
    },
    {
      "channel": 2,
      "note": 53,
      "start": 8.6268,
      "duration": 0.7432,
      "velocity": 105,
      "chip": "ym2612"
    },
    {
      "channel": 3,
      "note": 64,
      "start": 8.6321,
      "duration": 0.0069,
      "velocity": 127,
      "chip": "ym2612"
    },
    {
      "channel": 1,
      "note": 53,
      "start": 8.7534,
      "duration": 0.0961,
      "velocity": 97,
      "chip": "ym2612"
    },
    {
      "channel": 3,
      "note": 64,
      "start": 8.7587,
      "duration": 0.0103,
      "velocity": 127,
      "chip": "ym2612"
    },
    {
      "channel": 1,
      "note": 65,
      "start": 8.8833,
      "duration": 0.0962,
      "velocity": 97,
      "chip": "ym2612"
    },
    {
      "channel": 3,
      "note": 64,
      "start": 8.8887,
      "duration": 0.0102,
      "velocity": 127,
      "chip": "ym2612"
    },
    {
      "channel": 4,
      "note": 57,
      "start": 8.8904,
      "duration": 0.7408,
      "velocity": 111,
      "chip": "ym2612"
    },
    {
      "channel": 5,
      "note": 53,
      "start": 8.8921,
      "duration": 0.7393,
      "velocity": 105,
      "chip": "ym2612"
    },
    {
      "channel": 1,
      "note": 65,
      "start": 9.0135,
      "duration": 0.096,
      "velocity": 97,
      "chip": "ym2612"
    },
    {
      "channel": 3,
      "note": 64,
      "start": 9.0189,
      "duration": 0.0102,
      "velocity": 127,
      "chip": "ym2612"
    },
    {
      "channel": 1,
      "note": 53,
      "start": 9.1434,
      "duration": 0.0961,
      "velocity": 97,
      "chip": "ym2612"
    },
    {
      "channel": 3,
      "note": 64,
      "start": 9.1487,
      "duration": 0.0103,
      "velocity": 127,
      "chip": "ym2612"
    },
    {
      "channel": 1,
      "note": 65,
      "start": 9.2734,
      "duration": 0.0963,
      "velocity": 97,
      "chip": "ym2612"
    },
    {
      "channel": 3,
      "note": 64,
      "start": 9.2787,
      "duration": 0.0103,
      "velocity": 127,
      "chip": "ym2612"
    },
    {
      "channel": 0,
      "note": 59,
      "start": 9.4034,
      "duration": 0.7461,
      "velocity": 111,
      "chip": "ym2612"
    },
    {
      "channel": 1,
      "note": 64,
      "start": 9.4056,
      "duration": 0.0943,
      "velocity": 97,
      "chip": "ym2612"
    },
    {
      "channel": 2,
      "note": 56,
      "start": 9.4072,
      "duration": 0.7426,
      "velocity": 105,
      "chip": "ym2612"
    },
    {
      "channel": 3,
      "note": 64,
      "start": 9.4126,
      "duration": 0.0064,
      "velocity": 127,
      "chip": "ym2612"
    },
    {
      "channel": 1,
      "note": 52,
      "start": 9.5334,
      "duration": 0.0969,
      "velocity": 97,
      "chip": "ym2612"
    },
    {
      "channel": 3,
      "note": 64,
      "start": 9.5388,
      "duration": 0.0102,
      "velocity": 127,
      "chip": "ym2612"
    },
    {
      "channel": 1,
      "note": 64,
      "start": 9.6634,
      "duration": 0.0961,
      "velocity": 97,
      "chip": "ym2612"
    },
    {
      "channel": 3,
      "note": 64,
      "start": 9.6688,
      "duration": 0.0103,
      "velocity": 127,
      "chip": "ym2612"
    },
    {
      "channel": 4,
      "note": 59,
      "start": 9.6705,
      "duration": 0.74,
      "velocity": 111,
      "chip": "ym2612"
    },
    {
      "channel": 5,
      "note": 56,
      "start": 9.6721,
      "duration": 0.7386,
      "velocity": 105,
      "chip": "ym2612"
    },
    {
      "channel": 1,
      "note": 64,
      "start": 9.7936,
      "duration": 0.096,
      "velocity": 97,
      "chip": "ym2612"
    },
    {
      "channel": 3,
      "note": 64,
      "start": 9.799,
      "duration": 0.0102,
      "velocity": 127,
      "chip": "ym2612"
    },
    {
      "channel": 1,
      "note": 52,
      "start": 9.9234,
      "duration": 0.0961,
      "velocity": 97,
      "chip": "ym2612"
    },
    {
      "channel": 3,
      "note": 64,
      "start": 9.9288,
      "duration": 0.0102,
      "velocity": 127,
      "chip": "ym2612"
    },
    {
      "channel": 1,
      "note": 64,
      "start": 10.0534,
      "duration": 0.0962,
      "velocity": 97,
      "chip": "ym2612"
    },
    {
      "channel": 3,
      "note": 64,
      "start": 10.0588,
      "duration": 0.0102,
      "velocity": 127,
      "chip": "ym2612"
    },
    {
      "channel": 0,
      "note": 57,
      "start": 10.1835,
      "duration": 0.356,
      "velocity": 111,
      "chip": "ym2612"
    },
    {
      "channel": 1,
      "note": 64,
      "start": 10.1853,
      "duration": 0.0943,
      "velocity": 97,
      "chip": "ym2612"
    },
    {
      "channel": 2,
      "note": 52,
      "start": 10.1869,
      "duration": 0.353,
      "velocity": 105,
      "chip": "ym2612"
    },
    {
      "channel": 3,
      "note": 64,
      "start": 10.1924,
      "duration": 0.0067,
      "velocity": 127,
      "chip": "ym2612"
    },
    {
      "channel": 1,
      "note": 52,
      "start": 10.3135,
      "duration": 0.0961,
      "velocity": 97,
      "chip": "ym2612"
    },
    {
      "channel": 3,
      "note": 64,
      "start": 10.3188,
      "duration": 0.0103,
      "velocity": 127,
      "chip": "ym2612"
    },
    {
      "channel": 1,
      "note": 64,
      "start": 10.4435,
      "duration": 0.0962,
      "velocity": 97,
      "chip": "ym2612"
    },
    {
      "channel": 3,
      "note": 64,
      "start": 10.4488,
      "duration": 0.0103,
      "velocity": 127,
      "chip": "ym2612"
    },
    {
      "channel": 4,
      "note": 57,
      "start": 10.4505,
      "duration": 0.3502,
      "velocity": 111,
      "chip": "ym2612"
    },
    {
      "channel": 5,
      "note": 52,
      "start": 10.4522,
      "duration": 0.3487,
      "velocity": 105,
      "chip": "ym2612"
    },
    {
      "channel": 0,
      "note": 59,
      "start": 10.5736,
      "duration": 0.0959,
      "velocity": 111,
      "chip": "ym2612"
    },
    {
      "channel": 1,
      "note": 64,
      "start": 10.5753,
      "duration": 0.0944,
      "velocity": 97,
      "chip": "ym2612"
    },
    {
      "channel": 2,
      "note": 56,
      "start": 10.577,
      "duration": 0.0929,
      "velocity": 105,
      "chip": "ym2612"
    },
    {
      "channel": 3,
      "note": 64,
      "start": 10.5822,
      "duration": 0.0069,
      "velocity": 127,
      "chip": "ym2612"
    },
    {
      "channel": 0,
      "note": 57,
      "start": 10.7036,
      "duration": 0.0959,
      "velocity": 111,
      "chip": "ym2612"
    },
    {
      "channel": 1,
      "note": 52,
      "start": 10.7053,
      "duration": 0.0945,
      "velocity": 97,
      "chip": "ym2612"
    },
    {
      "channel": 2,
      "note": 54,
      "start": 10.7069,
      "duration": 0.0931,
      "velocity": 105,
      "chip": "ym2612"
    },
    {
      "channel": 3,
      "note": 64,
      "start": 10.7121,
      "duration": 0.0071,
      "velocity": 127,
      "chip": "ym2612"
    },
    {
      "channel": 0,
      "note": 56,
      "start": 10.8336,
      "duration": 0.096,
      "velocity": 111,
      "chip": "ym2612"
    },
    {
      "channel": 1,
      "note": 64,
      "start": 10.8352,
      "duration": 0.0946,
      "velocity": 97,
      "chip": "ym2612"
    },
    {
      "channel": 2,
      "note": 52,
      "start": 10.8368,
      "duration": 0.0931,
      "velocity": 105,
      "chip": "ym2612"
    },
    {
      "channel": 3,
      "note": 64,
      "start": 10.8421,
      "duration": 0.0071,
      "velocity": 127,
      "chip": "ym2612"
    },
    {
      "channel": 4,
      "note": 59,
      "start": 10.8438,
      "duration": 0.0869,
      "velocity": 111,
      "chip": "ym2612"
    },
    {
      "channel": 5,
      "note": 56,
      "start": 10.8455,
      "duration": 0.0855,
      "velocity": 105,
      "chip": "ym2612"
    },
    {
      "channel": 0,
      "note": 59,
      "start": 10.9636,
      "duration": 0.7461,
      "velocity": 111,
      "chip": "ym2612"
    },
    {
      "channel": 1,
      "note": 63,
      "start": 10.9658,
      "duration": 0.0939,
      "velocity": 97,
      "chip": "ym2612"
    },
    {
      "channel": 2,
      "note": 54,
      "start": 10.9674,
      "duration": 0.7426,
      "velocity": 105,
      "chip": "ym2612"
    },
    {
      "channel": 3,
      "note": 64,
      "start": 10.9728,
      "duration": 0.0079,
      "velocity": 127,
      "chip": "ym2612"
    },
    {
      "channel": 4,
      "note": 57,
      "start": 10.9745,
      "duration": 0.0861,
      "velocity": 111,
      "chip": "ym2612"
    },
    {
      "channel": 5,
      "note": 54,
      "start": 10.9762,
      "duration": 0.0846,
      "velocity": 105,
      "chip": "ym2612"
    },
    {
      "channel": 1,
      "note": 51,
      "start": 11.0936,
      "duration": 0.0961,
      "velocity": 97,
      "chip": "ym2612"
    },
    {
      "channel": 3,
      "note": 64,
      "start": 11.0989,
      "duration": 0.0103,
      "velocity": 127,
      "chip": "ym2612"
    },
    {
      "channel": 4,
      "note": 56,
      "start": 11.1005,
      "duration": 0.09,
      "velocity": 111,
      "chip": "ym2612"
    },
    {
      "channel": 5,
      "note": 52,
      "start": 11.1022,
      "duration": 0.0886,
      "velocity": 105,
      "chip": "ym2612"
    },
    {
      "channel": 1,
      "note": 63,
      "start": 11.2236,
      "duration": 0.0961,
      "velocity": 97,
      "chip": "ym2612"
    },
    {
      "channel": 3,
      "note": 64,
      "start": 11.2289,
      "duration": 0.0103,
      "velocity": 127,
      "chip": "ym2612"
    },
    {
      "channel": 4,
      "note": 59,
      "start": 11.2306,
      "duration": 0.74,
      "velocity": 111,
      "chip": "ym2612"
    },
    {
      "channel": 5,
      "note": 54,
      "start": 11.2323,
      "duration": 0.7385,
      "velocity": 105,
      "chip": "ym2612"
    },
    {
      "channel": 1,
      "note": 63,
      "start": 11.3538,
      "duration": 0.096,
      "velocity": 97,
      "chip": "ym2612"
    },
    {
      "channel": 3,
      "note": 64,
      "start": 11.3591,
      "duration": 0.0101,
      "velocity": 127,
      "chip": "ym2612"
    },
    {
      "channel": 1,
      "note": 51,
      "start": 11.4836,
      "duration": 0.0961,
      "velocity": 97,
      "chip": "ym2612"
    },
    {
      "channel": 3,
      "note": 64,
      "start": 11.489,
      "duration": 0.0102,
      "velocity": 127,
      "chip": "ym2612"
    },
    {
      "channel": 1,
      "note": 63,
      "start": 11.6136,
      "duration": 0.0963,
      "velocity": 97,
      "chip": "ym2612"
    },
    {
      "channel": 3,
      "note": 64,
      "start": 11.6189,
      "duration": 0.0103,
      "velocity": 127,
      "chip": "ym2612"
    },
    {
      "channel": 0,
      "note": 57,
      "start": 11.7436,
      "duration": 0.356,
      "velocity": 111,
      "chip": "ym2612"
    },
    {
      "channel": 1,
      "note": 63,
      "start": 11.7454,
      "duration": 0.0943,
      "velocity": 97,
      "chip": "ym2612"
    },
    {
      "channel": 2,
      "note": 51,
      "start": 11.7471,
      "duration": 0.7431,
      "velocity": 105,
      "chip": "ym2612"
    },
    {
      "channel": 3,
      "note": 64,
      "start": 11.7525,
      "duration": 0.0068,
      "velocity": 127,
      "chip": "ym2612"
    },
    {
      "channel": 1,
      "note": 51,
      "start": 11.8737,
      "duration": 0.0961,
      "velocity": 97,
      "chip": "ym2612"
    },
    {
      "channel": 3,
      "note": 64,
      "start": 11.879,
      "duration": 0.0102,
      "velocity": 127,
      "chip": "ym2612"
    },
    {
      "channel": 1,
      "note": 63,
      "start": 12.0041,
      "duration": 0.0958,
      "velocity": 97,
      "chip": "ym2612"
    },
    {
      "channel": 3,
      "note": 64,
      "start": 12.0095,
      "duration": 0.0099,
      "velocity": 127,
      "chip": "ym2612"
    },
    {
      "channel": 4,
      "note": 57,
      "start": 12.0112,
      "duration": 0.3496,
      "velocity": 111,
      "chip": "ym2612"
    },
    {
      "channel": 5,
      "note": 51,
      "start": 12.0128,
      "duration": 0.7381,
      "velocity": 105,
      "chip": "ym2612"
    },
    {
      "channel": 0,
      "note": 54,
      "start": 12.1345,
      "duration": 0.0952,
      "velocity": 111,
      "chip": "ym2612"
    },
    {
      "channel": 1,
      "note": 63,
      "start": 12.1362,
      "duration": 0.0937,
      "velocity": 97,
      "chip": "ym2612"
    },
    {
      "channel": 3,
      "note": 64,
      "start": 12.1416,
      "duration": 0.0077,
      "velocity": 127,
      "chip": "ym2612"
    },
    {
      "channel": 0,
      "note": 56,
      "start": 12.2637,
      "duration": 0.096,
      "velocity": 111,
      "chip": "ym2612"
    },
    {
      "channel": 1,
      "note": 51,
      "start": 12.2653,
      "duration": 0.0946,
      "velocity": 97,
      "chip": "ym2612"
    },
    {
      "channel": 3,
      "note": 64,
      "start": 12.2707,
      "duration": 0.0086,
      "velocity": 127,
      "chip": "ym2612"
    },
    {
      "channel": 0,
      "note": 57,
      "start": 12.3937,
      "duration": 0.096,
      "velocity": 111,
      "chip": "ym2612"
    },
    {
      "channel": 1,
      "note": 63,
      "start": 12.3953,
      "duration": 0.0946,
      "velocity": 97,
      "chip": "ym2612"
    },
    {
      "channel": 3,
      "note": 64,
      "start": 12.4007,
      "duration": 0.0087,
      "velocity": 127,
      "chip": "ym2612"
    },
    {
      "channel": 4,
      "note": 54,
      "start": 12.4024,
      "duration": 0.0885,
      "velocity": 111,
      "chip": "ym2612"
    },
    {
      "channel": 0,
      "note": 59,
      "start": 12.5237,
      "duration": 0.096,
      "velocity": 111,
      "chip": "ym2612"
    },
    {
      "channel": 1,
      "note": 62,
      "start": 12.5259,
      "duration": 0.0941,
      "velocity": 97,
      "chip": "ym2612"
    },
    {
      "channel": 2,
      "note": 50,
      "start": 12.5275,
      "duration": 0.0926,
      "velocity": 105,
      "chip": "ym2612"
    },
    {
      "channel": 3,
      "note": 64,
      "start": 12.5329,
      "duration": 0.0064,
      "velocity": 127,
      "chip": "ym2612"
    },
    {
      "channel": 4,
      "note": 56,
      "start": 12.5346,
      "duration": 0.0864,
      "velocity": 111,
      "chip": "ym2612"
    },
    {
      "channel": 1,
      "note": 50,
      "start": 12.6537,
      "duration": 0.0961,
      "velocity": 97,
      "chip": "ym2612"
    },
    {
      "channel": 3,
      "note": 64,
      "start": 12.6591,
      "duration": 0.0104,
      "velocity": 127,
      "chip": "ym2612"
    },
    {
      "channel": 4,
      "note": 57,
      "start": 12.6607,
      "duration": 0.09,
      "velocity": 111,
      "chip": "ym2612"
    },
    {
      "channel": 0,
      "note": 57,
      "start": 12.7838,
      "duration": 0.096,
      "velocity": 111,
      "chip": "ym2612"
    },
    {
      "channel": 1,
      "note": 62,
      "start": 12.7854,
      "duration": 0.0946,
      "velocity": 97,
      "chip": "ym2612"
    },
    {
      "channel": 2,
      "note": 50,
      "start": 12.787,
      "duration": 0.0931,
      "velocity": 105,
      "chip": "ym2612"
    },
    {
      "channel": 3,
      "note": 64,
      "start": 12.7922,
      "duration": 0.0071,
      "velocity": 127,
      "chip": "ym2612"
    },
    {
      "channel": 4,
      "note": 59,
      "start": 12.7939,
      "duration": 0.087,
      "velocity": 111,
      "chip": "ym2612"
    },
    {
      "channel": 5,
      "note": 50,
      "start": 12.7956,
      "duration": 0.0856,
      "velocity": 105,
      "chip": "ym2612"
    },
    {
      "channel": 1,
      "note": 62,
      "start": 12.9139,
      "duration": 0.0959,
      "velocity": 97,
      "chip": "ym2612"
    },
    {
      "channel": 3,
      "note": 64,
      "start": 12.9193,
      "duration": 0.0101,
      "velocity": 127,
      "chip": "ym2612"
    },
    {
      "channel": 0,
      "note": 59,
      "start": 13.0437,
      "duration": 0.096,
      "velocity": 111,
      "chip": "ym2612"
    },
    {
      "channel": 1,
      "note": 50,
      "start": 13.0453,
      "duration": 0.0947,
      "velocity": 97,
      "chip": "ym2612"
    },
    {
      "channel": 2,
      "note": 50,
      "start": 13.047,
      "duration": 0.0932,
      "velocity": 105,
      "chip": "ym2612"
    },
    {
      "channel": 3,
      "note": 64,
      "start": 13.0522,
      "duration": 0.0072,
      "velocity": 127,
      "chip": "ym2612"
    },
    {
      "channel": 4,
      "note": 57,
      "start": 13.0539,
      "duration": 0.0871,
      "velocity": 111,
      "chip": "ym2612"
    },
    {
      "channel": 5,
      "note": 50,
      "start": 13.0556,
      "duration": 0.0856,
      "velocity": 105,
      "chip": "ym2612"
    },
    {
      "channel": 1,
      "note": 62,
      "start": 13.1738,
      "duration": 0.0961,
      "velocity": 97,
      "chip": "ym2612"
    },
    {
      "channel": 3,
      "note": 64,
      "start": 13.1791,
      "duration": 0.0106,
      "velocity": 127,
      "chip": "ym2612"
    },
    {
      "channel": 0,
      "note": 54,
      "start": 13.3038,
      "duration": 0.7461,
      "velocity": 111,
      "chip": "ym2612"
    },
    {
      "channel": 1,
      "note": 62,
      "start": 13.3056,
      "duration": 0.0943,
      "velocity": 97,
      "chip": "ym2612"
    },
    {
      "channel": 2,
      "note": 45,
      "start": 13.3073,
      "duration": 0.7429,
      "velocity": 105,
      "chip": "ym2612"
    },
    {
      "channel": 3,
      "note": 64,
      "start": 13.3127,
      "duration": 0.0073,
      "velocity": 127,
      "chip": "ym2612"
    },
    {
      "channel": 4,
      "note": 59,
      "start": 13.3144,
      "duration": 0.0865,
      "velocity": 111,
      "chip": "ym2612"
    },
    {
      "channel": 5,
      "note": 50,
      "start": 13.316,
      "duration": 0.085,
      "velocity": 105,
      "chip": "ym2612"
    },
    {
      "channel": 1,
      "note": 50,
      "start": 13.4338,
      "duration": 0.0961,
      "velocity": 97,
      "chip": "ym2612"
    },
    {
      "channel": 3,
      "note": 64,
      "start": 13.4392,
      "duration": 0.0111,
      "velocity": 127,
      "chip": "ym2612"
    },
    {
      "channel": 1,
      "note": 62,
      "start": 13.5638,
      "duration": 0.0961,
      "velocity": 97,
      "chip": "ym2612"
    },
    {
      "channel": 3,
      "note": 64,
      "start": 13.5691,
      "duration": 0.0103,
      "velocity": 127,
      "chip": "ym2612"
    },
    {
      "channel": 4,
      "note": 54,
      "start": 13.5708,
      "duration": 0.74,
      "velocity": 111,
      "chip": "ym2612"
    },
    {
      "channel": 5,
      "note": 45,
      "start": 13.5726,
      "duration": 0.7385,
      "velocity": 105,
      "chip": "ym2612"
    },
    {
      "channel": 1,
      "note": 62,
      "start": 13.694,
      "duration": 0.096,
      "velocity": 97,
      "chip": "ym2612"
    },
    {
      "channel": 3,
      "note": 64,
      "start": 13.6993,
      "duration": 0.0102,
      "velocity": 127,
      "chip": "ym2612"
    },
    {
      "channel": 1,
      "note": 50,
      "start": 13.8238,
      "duration": 0.0961,
      "velocity": 97,
      "chip": "ym2612"
    },
    {
      "channel": 3,
      "note": 64,
      "start": 13.8291,
      "duration": 0.0103,
      "velocity": 127,
      "chip": "ym2612"
    },
    {
      "channel": 1,
      "note": 62,
      "start": 13.9538,
      "duration": 0.0963,
      "velocity": 97,
      "chip": "ym2612"
    },
    {
      "channel": 3,
      "note": 64,
      "start": 13.9592,
      "duration": 0.0103,
      "velocity": 127,
      "chip": "ym2612"
    },
    {
      "channel": 0,
      "note": 59,
      "start": 14.0839,
      "duration": 0.096,
      "velocity": 111,
      "chip": "ym2612"
    },
    {
      "channel": 1,
      "note": 61,
      "start": 14.086,
      "duration": 0.0941,
      "velocity": 97,
      "chip": "ym2612"
    },
    {
      "channel": 2,
      "note": 49,
      "start": 14.0877,
      "duration": 0.0925,
      "velocity": 105,
      "chip": "ym2612"
    },
    {
      "channel": 3,
      "note": 64,
      "start": 14.0931,
      "duration": 0.0064,
      "velocity": 127,
      "chip": "ym2612"
    },
    {
      "channel": 1,
      "note": 49,
      "start": 14.2139,
      "duration": 0.0961,
      "velocity": 97,
      "chip": "ym2612"
    },
    {
      "channel": 3,
      "note": 64,
      "start": 14.2192,
      "duration": 0.0103,
      "velocity": 127,
      "chip": "ym2612"
    },
    {
      "channel": 0,
      "note": 57,
      "start": 14.3439,
      "duration": 0.0962,
      "velocity": 111,
      "chip": "ym2612"
    },
    {
      "channel": 1,
      "note": 61,
      "start": 14.3455,
      "duration": 0.0948,
      "velocity": 97,
      "chip": "ym2612"
    },
    {
      "channel": 2,
      "note": 49,
      "start": 14.3472,
      "duration": 0.0934,
      "velocity": 105,
      "chip": "ym2612"
    },
    {
      "channel": 3,
      "note": 64,
      "start": 14.3524,
      "duration": 0.0071,
      "velocity": 127,
      "chip": "ym2612"
    },
    {
      "channel": 4,
      "note": 59,
      "start": 14.3541,
      "duration": 0.0872,
      "velocity": 111,
      "chip": "ym2612"
    },
    {
      "channel": 5,
      "note": 49,
      "start": 14.3558,
      "duration": 0.0858,
      "velocity": 105,
      "chip": "ym2612"
    },
    {
      "channel": 1,
      "note": 61,
      "start": 14.474,
      "duration": 0.0966,
      "velocity": 97,
      "chip": "ym2612"
    },
    {
      "channel": 3,
      "note": 64,
      "start": 14.4794,
      "duration": 0.01,
      "velocity": 127,
      "chip": "ym2612"
    },
    {
      "channel": 0,
      "note": 59,
      "start": 14.6039,
      "duration": 0.0969,
      "velocity": 111,
      "chip": "ym2612"
    },
    {
      "channel": 1,
      "note": 49,
      "start": 14.6055,
      "duration": 0.0955,
      "velocity": 97,
      "chip": "ym2612"
    },
    {
      "channel": 2,
      "note": 49,
      "start": 14.6072,
      "duration": 0.0941,
      "velocity": 105,
      "chip": "ym2612"
    },
    {
      "channel": 3,
      "note": 64,
      "start": 14.6124,
      "duration": 0.0071,
      "velocity": 127,
      "chip": "ym2612"
    },
    {
      "channel": 4,
      "note": 57,
      "start": 14.614,
      "duration": 0.088,
      "velocity": 111,
      "chip": "ym2612"
    },
    {
      "channel": 5,
      "note": 49,
      "start": 14.6158,
      "duration": 0.0865,
      "velocity": 105,
      "chip": "ym2612"
    },
    {
      "channel": 1,
      "note": 61,
      "start": 14.7339,
      "duration": 0.0961,
      "velocity": 97,
      "chip": "ym2612"
    },
    {
      "channel": 3,
      "note": 64,
      "start": 14.7393,
      "duration": 0.0102,
      "velocity": 127,
      "chip": "ym2612"
    },
    {
      "channel": 0,
      "note": 52,
      "start": 14.864,
      "duration": 0.746,
      "velocity": 111,
      "chip": "ym2612"
    },
    {
      "channel": 1,
      "note": 61,
      "start": 14.8657,
      "duration": 0.0943,
      "velocity": 97,
      "chip": "ym2612"
    },
    {
      "channel": 2,
      "note": 45,
      "start": 14.8674,
      "duration": 0.743,
      "velocity": 105,
      "chip": "ym2612"
    },
    {
      "channel": 3,
      "note": 64,
      "start": 14.8728,
      "duration": 0.0068,
      "velocity": 127,
      "chip": "ym2612"
    },
    {
      "channel": 4,
      "note": 59,
      "start": 14.8745,
      "duration": 0.0865,
      "velocity": 111,
      "chip": "ym2612"
    },
    {
      "channel": 5,
      "note": 49,
      "start": 14.8762,
      "duration": 0.0849,
      "velocity": 105,
      "chip": "ym2612"
    },
    {
      "channel": 1,
      "note": 49,
      "start": 14.9939,
      "duration": 0.0961,
      "velocity": 97,
      "chip": "ym2612"
    },
    {
      "channel": 3,
      "note": 64,
      "start": 14.9993,
      "duration": 0.0102,
      "velocity": 127,
      "chip": "ym2612"
    },
    {
      "channel": 1,
      "note": 61,
      "start": 15.124,
      "duration": 0.0961,
      "velocity": 97,
      "chip": "ym2612"
    },
    {
      "channel": 3,
      "note": 64,
      "start": 15.1293,
      "duration": 0.0102,
      "velocity": 127,
      "chip": "ym2612"
    },
    {
      "channel": 4,
      "note": 52,
      "start": 15.131,
      "duration": 0.74,
      "velocity": 111,
      "chip": "ym2612"
    },
    {
      "channel": 5,
      "note": 45,
      "start": 15.1327,
      "duration": 0.7385,
      "velocity": 105,
      "chip": "ym2612"
    },
    {
      "channel": 1,
      "note": 61,
      "start": 15.2541,
      "duration": 0.096,
      "velocity": 97,
      "chip": "ym2612"
    },
    {
      "channel": 3,
      "note": 64,
      "start": 15.2595,
      "duration": 0.0102,
      "velocity": 127,
      "chip": "ym2612"
    },
    {
      "channel": 1,
      "note": 49,
      "start": 15.3839,
      "duration": 0.0961,
      "velocity": 97,
      "chip": "ym2612"
    },
    {
      "channel": 3,
      "note": 64,
      "start": 15.3894,
      "duration": 0.0102,
      "velocity": 127,
      "chip": "ym2612"
    },
    {
      "channel": 1,
      "note": 61,
      "start": 15.514,
      "duration": 0.0963,
      "velocity": 97,
      "chip": "ym2612"
    },
    {
      "channel": 3,
      "note": 64,
      "start": 15.5193,
      "duration": 0.0102,
      "velocity": 127,
      "chip": "ym2612"
    },
    {
      "channel": 0,
      "note": 51,
      "start": 15.644,
      "duration": 1.1361,
      "velocity": 111,
      "chip": "ym2612"
    },
    {
      "channel": 1,
      "note": 60,
      "start": 15.6462,
      "duration": 0.0939,
      "velocity": 97,
      "chip": "ym2612"
    },
    {
      "channel": 2,
      "note": 48,
      "start": 15.6478,
      "duration": 1.1327,
      "velocity": 105,
      "chip": "ym2612"
    },
    {
      "channel": 3,
      "note": 64,
      "start": 15.6532,
      "duration": 0.0064,
      "velocity": 127,
      "chip": "ym2612"
    },
    {
      "channel": 1,
      "note": 48,
      "start": 15.774,
      "duration": 0.0961,
      "velocity": 97,
      "chip": "ym2612"
    },
    {
      "channel": 3,
      "note": 64,
      "start": 15.7794,
      "duration": 0.0102,
      "velocity": 127,
      "chip": "ym2612"
    },
    {
      "channel": 1,
      "note": 60,
      "start": 15.9041,
      "duration": 0.0961,
      "velocity": 97,
      "chip": "ym2612"
    },
    {
      "channel": 3,
      "note": 64,
      "start": 15.9094,
      "duration": 0.0103,
      "velocity": 127,
      "chip": "ym2612"
    },
    {
      "channel": 4,
      "note": 51,
      "start": 15.9111,
      "duration": 1.13,
      "velocity": 111,
      "chip": "ym2612"
    },
    {
      "channel": 5,
      "note": 48,
      "start": 15.9128,
      "duration": 1.1286,
      "velocity": 105,
      "chip": "ym2612"
    },
    {
      "channel": 1,
      "note": 60,
      "start": 16.0342,
      "duration": 0.096,
      "velocity": 97,
      "chip": "ym2612"
    },
    {
      "channel": 3,
      "note": 64,
      "start": 16.0396,
      "duration": 0.0101,
      "velocity": 127,
      "chip": "ym2612"
    },
    {
      "channel": 1,
      "note": 48,
      "start": 16.164,
      "duration": 0.0961,
      "velocity": 97,
      "chip": "ym2612"
    },
    {
      "channel": 3,
      "note": 64,
      "start": 16.1694,
      "duration": 0.0102,
      "velocity": 127,
      "chip": "ym2612"
    },
    {
      "channel": 1,
      "note": 60,
      "start": 16.2941,
      "duration": 0.0961,
      "velocity": 97,
      "chip": "ym2612"
    },
    {
      "channel": 3,
      "note": 64,
      "start": 16.2994,
      "duration": 0.0102,
      "velocity": 127,
      "chip": "ym2612"
    },
    {
      "channel": 1,
      "note": 60,
      "start": 16.4242,
      "duration": 0.096,
      "velocity": 97,
      "chip": "ym2612"
    },
    {
      "channel": 3,
      "note": 64,
      "start": 16.4298,
      "duration": 0.0099,
      "velocity": 127,
      "chip": "ym2612"
    },
    {
      "channel": 1,
      "note": 48,
      "start": 16.5541,
      "duration": 0.0961,
      "velocity": 97,
      "chip": "ym2612"
    },
    {
      "channel": 3,
      "note": 64,
      "start": 16.5595,
      "duration": 0.0102,
      "velocity": 127,
      "chip": "ym2612"
    },
    {
      "channel": 1,
      "note": 60,
      "start": 16.6841,
      "duration": 0.0962,
      "velocity": 97,
      "chip": "ym2612"
    },
    {
      "channel": 3,
      "note": 64,
      "start": 16.6895,
      "duration": 0.0102,
      "velocity": 127,
      "chip": "ym2612"
    },
    {
      "channel": 0,
      "note": 59,
      "start": 16.8141,
      "duration": 0.356,
      "velocity": 111,
      "chip": "ym2612"
    },
    {
      "channel": 1,
      "note": 60,
      "start": 16.8159,
      "duration": 0.0944,
      "velocity": 97,
      "chip": "ym2612"
    },
    {
      "channel": 2,
      "note": 56,
      "start": 16.8175,
      "duration": 0.3531,
      "velocity": 105,
      "chip": "ym2612"
    },
    {
      "channel": 3,
      "note": 64,
      "start": 16.8228,
      "duration": 0.0069,
      "velocity": 127,
      "chip": "ym2612"
    },
    {
      "channel": 1,
      "note": 48,
      "start": 16.9443,
      "duration": 0.0959,
      "velocity": 97,
      "chip": "ym2612"
    },
    {
      "channel": 3,
      "note": 64,
      "start": 16.9497,
      "duration": 0.01,
      "velocity": 127,
      "chip": "ym2612"
    },
    {
      "channel": 1,
      "note": 60,
      "start": 17.0747,
      "duration": 0.0956,
      "velocity": 97,
      "chip": "ym2612"
    },
    {
      "channel": 3,
      "note": 64,
      "start": 17.0801,
      "duration": 0.0097,
      "velocity": 127,
      "chip": "ym2612"
    },
    {
      "channel": 4,
      "note": 59,
      "start": 17.0818,
      "duration": 0.3494,
      "velocity": 111,
      "chip": "ym2612"
    },
    {
      "channel": 5,
      "note": 56,
      "start": 17.0834,
      "duration": 0.348,
      "velocity": 105,
      "chip": "ym2612"
    },
    {
      "channel": 0,
      "note": 57,
      "start": 17.2054,
      "duration": 1.5249,
      "velocity": 111,
      "chip": "ym2612"
    },
    {
      "channel": 1,
      "note": 61,
      "start": 17.2076,
      "duration": 0.0926,
      "velocity": 97,
      "chip": "ym2612"
    },
    {
      "channel": 2,
      "note": 61,
      "start": 17.2093,
      "duration": 0.3513,
      "velocity": 105,
      "chip": "ym2612"
    },
    {
      "channel": 3,
      "note": 76,
      "start": 17.2153,
      "duration": 0.0048,
      "velocity": 127,
      "chip": "ym2612"
    },
    {
      "channel": 1,
      "note": 49,
      "start": 17.3341,
      "duration": 0.0961,
      "velocity": 97,
      "chip": "ym2612"
    },
    {
      "channel": 3,
      "note": 71,
      "start": 17.3366,
      "duration": 0.0132,
      "velocity": 127,
      "chip": "ym2612"
    },
    {
      "channel": 1,
      "note": 61,
      "start": 17.4642,
      "duration": 0.0961,
      "velocity": 97,
      "chip": "ym2612"
    },
    {
      "channel": 3,
      "note": 66,
      "start": 17.4666,
      "duration": 0.0132,
      "velocity": 127,
      "chip": "ym2612"
    },
    {
      "channel": 4,
      "note": 57,
      "start": 17.4685,
      "duration": 1.5228,
      "velocity": 111,
      "chip": "ym2612"
    },
    {
      "channel": 5,
      "note": 61,
      "start": 17.4702,
      "duration": 0.3512,
      "velocity": 105,
      "chip": "ym2612"
    },
    {
      "channel": 1,
      "note": 61,
      "start": 17.5943,
      "duration": 0.0961,
      "velocity": 97,
      "chip": "ym2612"
    },
    {
      "channel": 2,
      "note": 59,
      "start": 17.596,
      "duration": 0.3546,
      "velocity": 105,
      "chip": "ym2612"
    },
    {
      "channel": 3,
      "note": 76,
      "start": 17.5986,
      "duration": 0.0113,
      "velocity": 127,
      "chip": "ym2612"
    },
    {
      "channel": 1,
      "note": 49,
      "start": 17.7241,
      "duration": 0.0962,
      "velocity": 97,
      "chip": "ym2612"
    },
    {
      "channel": 3,
      "note": 71,
      "start": 17.7266,
      "duration": 0.0132,
      "velocity": 127,
      "chip": "ym2612"
    },
    {
      "channel": 1,
      "note": 61,
      "start": 17.8542,
      "duration": 0.0961,
      "velocity": 97,
      "chip": "ym2612"
    },
    {
      "channel": 3,
      "note": 66,
      "start": 17.8566,
      "duration": 0.0132,
      "velocity": 127,
      "chip": "ym2612"
    },
    {
      "channel": 5,
      "note": 59,
      "start": 17.8584,
      "duration": 0.353,
      "velocity": 105,
      "chip": "ym2612"
    },
    {
      "channel": 1,
      "note": 61,
      "start": 17.9859,
      "duration": 0.0945,
      "velocity": 97,
      "chip": "ym2612"
    },
    {
      "channel": 2,
      "note": 56,
      "start": 17.9875,
      "duration": 0.3531,
      "velocity": 105,
      "chip": "ym2612"
    },
    {
      "channel": 3,
      "note": 64,
      "start": 17.9931,
      "duration": 0.0071,
      "velocity": 127,
      "chip": "ym2612"
    },
    {
      "channel": 1,
      "note": 49,
      "start": 18.1142,
      "duration": 0.0961,
      "velocity": 97,
      "chip": "ym2612"
    },
    {
      "channel": 3,
      "note": 64,
      "start": 18.1198,
      "duration": 0.0101,
      "velocity": 127,
      "chip": "ym2612"
    },
    {
      "channel": 1,
      "note": 61,
      "start": 18.2443,
      "duration": 0.0961,
      "velocity": 97,
      "chip": "ym2612"
    },
    {
      "channel": 3,
      "note": 64,
      "start": 18.2466,
      "duration": 0.0137,
      "velocity": 127,
      "chip": "ym2612"
    },
    {
      "channel": 5,
      "note": 56,
      "start": 18.2499,
      "duration": 0.3515,
      "velocity": 105,
      "chip": "ym2612"
    },
    {
      "channel": 1,
      "note": 61,
      "start": 18.3744,
      "duration": 0.0959,
      "velocity": 97,
      "chip": "ym2612"
    },
    {
      "channel": 2,
      "note": 53,
      "start": 18.3761,
      "duration": 0.3546,
      "velocity": 105,
      "chip": "ym2612"
    },
    {
      "channel": 3,
      "note": 64,
      "start": 18.3783,
      "duration": 0.0123,
      "velocity": 127,
      "chip": "ym2612"
    },
    {
      "channel": 1,
      "note": 49,
      "start": 18.5043,
      "duration": 0.0961,
      "velocity": 97,
      "chip": "ym2612"
    },
    {
      "channel": 3,
      "note": 64,
      "start": 18.5066,
      "duration": 0.0133,
      "velocity": 127,
      "chip": "ym2612"
    },
    {
      "channel": 1,
      "note": 61,
      "start": 18.6343,
      "duration": 0.0962,
      "velocity": 97,
      "chip": "ym2612"
    },
    {
      "channel": 3,
      "note": 64,
      "start": 18.6366,
      "duration": 0.0133,
      "velocity": 127,
      "chip": "ym2612"
    },
    {
      "channel": 5,
      "note": 53,
      "start": 18.6384,
      "duration": 0.3531,
      "velocity": 105,
      "chip": "ym2612"
    },
    {
      "channel": 0,
      "note": 54,
      "start": 18.7646,
      "duration": 1.1358,
      "velocity": 111,
      "chip": "ym2612"
    },
    {
      "channel": 1,
      "note": 66,
      "start": 18.7669,
      "duration": 0.0935,
      "velocity": 97,
      "chip": "ym2612"
    },
    {
      "channel": 2,
      "note": 49,
      "start": 18.7689,
      "duration": 1.132,
      "velocity": 105,
      "chip": "ym2612"
    },
    {
      "channel": 3,
      "note": 64,
      "start": 18.7747,
      "duration": 0.0057,
      "velocity": 127,
      "chip": "ym2612"
    },
    {
      "channel": 1,
      "note": 54,
      "start": 18.8943,
      "duration": 0.0961,
      "velocity": 97,
      "chip": "ym2612"
    },
    {
      "channel": 3,
      "note": 64,
      "start": 18.8997,
      "duration": 0.0102,
      "velocity": 127,
      "chip": "ym2612"
    },
    {
      "channel": 1,
      "note": 66,
      "start": 19.0244,
      "duration": 0.0961,
      "velocity": 97,
      "chip": "ym2612"
    },
    {
      "channel": 3,
      "note": 64,
      "start": 19.0297,
      "duration": 0.0102,
      "velocity": 127,
      "chip": "ym2612"
    },
    {
      "channel": 4,
      "note": 54,
      "start": 19.0317,
      "duration": 1.13,
      "velocity": 111,
      "chip": "ym2612"
    },
    {
      "channel": 5,
      "note": 49,
      "start": 19.0336,
      "duration": 1.1282,
      "velocity": 105,
      "chip": "ym2612"
    },
    {
      "channel": 1,
      "note": 66,
      "start": 19.1545,
      "duration": 0.096,
      "velocity": 97,
      "chip": "ym2612"
    },
    {
      "channel": 3,
      "note": 64,
      "start": 19.1599,
      "duration": 0.0101,
      "velocity": 127,
      "chip": "ym2612"
    },
    {
      "channel": 1,
      "note": 54,
      "start": 19.2843,
      "duration": 0.0962,
      "velocity": 97,
      "chip": "ym2612"
    },
    {
      "channel": 3,
      "note": 64,
      "start": 19.2897,
      "duration": 0.0102,
      "velocity": 127,
      "chip": "ym2612"
    },
    {
      "channel": 1,
      "note": 66,
      "start": 19.4144,
      "duration": 0.0965,
      "velocity": 97,
      "chip": "ym2612"
    },
    {
      "channel": 3,
      "note": 64,
      "start": 19.4197,
      "duration": 0.0102,
      "velocity": 127,
      "chip": "ym2612"
    },
    {
      "channel": 1,
      "note": 66,
      "start": 19.5445,
      "duration": 0.0967,
      "velocity": 97,
      "chip": "ym2612"
    },
    {
      "channel": 3,
      "note": 64,
      "start": 19.55,
      "duration": 0.0099,
      "velocity": 127,
      "chip": "ym2612"
    },
    {
      "channel": 1,
      "note": 54,
      "start": 19.6744,
      "duration": 0.0961,
      "velocity": 97,
      "chip": "ym2612"
    },
    {
      "channel": 3,
      "note": 64,
      "start": 19.6797,
      "duration": 0.0103,
      "velocity": 127,
      "chip": "ym2612"
    },
    {
      "channel": 1,
      "note": 66,
      "start": 19.8044,
      "duration": 0.0962,
      "velocity": 97,
      "chip": "ym2612"
    },
    {
      "channel": 3,
      "note": 64,
      "start": 19.8098,
      "duration": 0.0102,
      "velocity": 127,
      "chip": "ym2612"
    },
    {
      "channel": 0,
      "note": 54,
      "start": 19.9345,
      "duration": 0.096,
      "velocity": 111,
      "chip": "ym2612"
    },
    {
      "channel": 1,
      "note": 66,
      "start": 19.9362,
      "duration": 0.0945,
      "velocity": 97,
      "chip": "ym2612"
    },
    {
      "channel": 2,
      "note": 49,
      "start": 19.9379,
      "duration": 0.0929,
      "velocity": 105,
      "chip": "ym2612"
    },
    {
      "channel": 3,
      "note": 64,
      "start": 19.9432,
      "duration": 0.0069,
      "velocity": 127,
      "chip": "ym2612"
    },
    {
      "channel": 0,
      "note": 56,
      "start": 20.0644,
      "duration": 0.096,
      "velocity": 111,
      "chip": "ym2612"
    },
    {
      "channel": 1,
      "note": 54,
      "start": 20.066,
      "duration": 0.0946,
      "velocity": 97,
      "chip": "ym2612"
    },
    {
      "channel": 2,
      "note": 50,
      "start": 20.0677,
      "duration": 0.0932,
      "velocity": 105,
      "chip": "ym2612"
    },
    {
      "channel": 3,
      "note": 64,
      "start": 20.0729,
      "duration": 0.0071,
      "velocity": 127,
      "chip": "ym2612"
    },
    {
      "channel": 0,
      "note": 57,
      "start": 20.1944,
      "duration": 0.096,
      "velocity": 111,
      "chip": "ym2612"
    },
    {
      "channel": 1,
      "note": 66,
      "start": 20.196,
      "duration": 0.0946,
      "velocity": 97,
      "chip": "ym2612"
    },
    {
      "channel": 2,
      "note": 52,
      "start": 20.1977,
      "duration": 0.0932,
      "velocity": 105,
      "chip": "ym2612"
    },
    {
      "channel": 3,
      "note": 64,
      "start": 20.2029,
      "duration": 0.0071,
      "velocity": 127,
      "chip": "ym2612"
    },
    {
      "channel": 4,
      "note": 54,
      "start": 20.2046,
      "duration": 0.087,
      "velocity": 111,
      "chip": "ym2612"
    },
    {
      "channel": 5,
      "note": 49,
      "start": 20.2063,
      "duration": 0.0855,
      "velocity": 105,
      "chip": "ym2612"
    },
    {
      "channel": 0,
      "note": 59,
      "start": 20.3245,
      "duration": 0.7461,
      "velocity": 111,
      "chip": "ym2612"
    },
    {
      "channel": 1,
      "note": 65,
      "start": 20.3266,
      "duration": 0.0939,
      "velocity": 97,
      "chip": "ym2612"
    },
    {
      "channel": 2,
      "note": 56,
      "start": 20.3283,
      "duration": 0.7427,
      "velocity": 105,
      "chip": "ym2612"
    },
    {
      "channel": 3,
      "note": 64,
      "start": 20.3337,
      "duration": 0.0079,
      "velocity": 127,
      "chip": "ym2612"
    },
    {
      "channel": 4,
      "note": 56,
      "start": 20.3354,
      "duration": 0.0861,
      "velocity": 111,
      "chip": "ym2612"
    },
    {
      "channel": 5,
      "note": 50,
      "start": 20.337,
      "duration": 0.0847,
      "velocity": 105,
      "chip": "ym2612"
    },
    {
      "channel": 1,
      "note": 53,
      "start": 20.4545,
      "duration": 0.0961,
      "velocity": 97,
      "chip": "ym2612"
    },
    {
      "channel": 3,
      "note": 64,
      "start": 20.4598,
      "duration": 0.0102,
      "velocity": 127,
      "chip": "ym2612"
    },
    {
      "channel": 4,
      "note": 57,
      "start": 20.4615,
      "duration": 0.09,
      "velocity": 111,
      "chip": "ym2612"
    },
    {
      "channel": 5,
      "note": 52,
      "start": 20.4632,
      "duration": 0.0885,
      "velocity": 105,
      "chip": "ym2612"
    },
    {
      "channel": 1,
      "note": 65,
      "start": 20.5845,
      "duration": 0.0961,
      "velocity": 97,
      "chip": "ym2612"
    },
    {
      "channel": 3,
      "note": 64,
      "start": 20.5898,
      "duration": 0.0103,
      "velocity": 127,
      "chip": "ym2612"
    },
    {
      "channel": 4,
      "note": 59,
      "start": 20.5915,
      "duration": 0.74,
      "velocity": 111,
      "chip": "ym2612"
    },
    {
      "channel": 5,
      "note": 56,
      "start": 20.5932,
      "duration": 0.7385,
      "velocity": 105,
      "chip": "ym2612"
    },
    {
      "channel": 1,
      "note": 65,
      "start": 20.7146,
      "duration": 0.0961,
      "velocity": 97,
      "chip": "ym2612"
    },
    {
      "channel": 3,
      "note": 64,
      "start": 20.72,
      "duration": 0.0102,
      "velocity": 127,
      "chip": "ym2612"
    },
    {
      "channel": 1,
      "note": 53,
      "start": 20.8444,
      "duration": 0.0962,
      "velocity": 97,
      "chip": "ym2612"
    },
    {
      "channel": 3,
      "note": 64,
      "start": 20.8498,
      "duration": 0.0103,
      "velocity": 127,
      "chip": "ym2612"
    },
    {
      "channel": 1,
      "note": 65,
      "start": 20.9745,
      "duration": 0.0962,
      "velocity": 97,
      "chip": "ym2612"
    },
    {
      "channel": 3,
      "note": 64,
      "start": 20.9799,
      "duration": 0.0102,
      "velocity": 127,
      "chip": "ym2612"
    },
    {
      "channel": 0,
      "note": 57,
      "start": 21.1046,
      "duration": 0.746,
      "velocity": 111,
      "chip": "ym2612"
    },
    {
      "channel": 1,
      "note": 65,
      "start": 21.1063,
      "duration": 0.0943,
      "velocity": 97,
      "chip": "ym2612"
    },
    {
      "channel": 2,
      "note": 53,
      "start": 21.108,
      "duration": 0.743,
      "velocity": 105,
      "chip": "ym2612"
    },
    {
      "channel": 3,
      "note": 64,
      "start": 21.1133,
      "duration": 0.0068,
      "velocity": 127,
      "chip": "ym2612"
    },
    {
      "channel": 1,
      "note": 53,
      "start": 21.2345,
      "duration": 0.0961,
      "velocity": 97,
      "chip": "ym2612"
    },
    {
      "channel": 3,
      "note": 64,
      "start": 21.2399,
      "duration": 0.0103,
      "velocity": 127,
      "chip": "ym2612"
    },
    {
      "channel": 1,
      "note": 65,
      "start": 21.3646,
      "duration": 0.0961,
      "velocity": 97,
      "chip": "ym2612"
    },
    {
      "channel": 3,
      "note": 64,
      "start": 21.3699,
      "duration": 0.0103,
      "velocity": 127,
      "chip": "ym2612"
    },
    {
      "channel": 4,
      "note": 57,
      "start": 21.3716,
      "duration": 0.74,
      "velocity": 111,
      "chip": "ym2612"
    },
    {
      "channel": 5,
      "note": 53,
      "start": 21.3733,
      "duration": 0.7385,
      "velocity": 105,
      "chip": "ym2612"
    },
    {
      "channel": 1,
      "note": 65,
      "start": 21.4947,
      "duration": 0.0961,
      "velocity": 97,
      "chip": "ym2612"
    },
    {
      "channel": 3,
      "note": 64,
      "start": 21.5001,
      "duration": 0.0101,
      "velocity": 127,
      "chip": "ym2612"
    },
    {
      "channel": 1,
      "note": 53,
      "start": 21.6245,
      "duration": 0.0961,
      "velocity": 97,
      "chip": "ym2612"
    },
    {
      "channel": 3,
      "note": 64,
      "start": 21.6299,
      "duration": 0.0103,
      "velocity": 127,
      "chip": "ym2612"
    },
    {
      "channel": 1,
      "note": 65,
      "start": 21.7546,
      "duration": 0.0962,
      "velocity": 97,
      "chip": "ym2612"
    },
    {
      "channel": 3,
      "note": 64,
      "start": 21.76,
      "duration": 0.0102,
      "velocity": 127,
      "chip": "ym2612"
    },
    {
      "channel": 0,
      "note": 59,
      "start": 21.8846,
      "duration": 0.746,
      "velocity": 111,
      "chip": "ym2612"
    },
    {
      "channel": 1,
      "note": 64,
      "start": 21.8868,
      "duration": 0.0939,
      "velocity": 97,
      "chip": "ym2612"
    },
    {
      "channel": 2,
      "note": 56,
      "start": 21.8885,
      "duration": 0.7426,
      "velocity": 105,
      "chip": "ym2612"
    },
    {
      "channel": 3,
      "note": 64,
      "start": 21.8939,
      "duration": 0.0063,
      "velocity": 127,
      "chip": "ym2612"
    },
    {
      "channel": 1,
      "note": 52,
      "start": 22.015,
      "duration": 0.0957,
      "velocity": 97,
      "chip": "ym2612"
    },
    {
      "channel": 3,
      "note": 64,
      "start": 22.0203,
      "duration": 0.0099,
      "velocity": 127,
      "chip": "ym2612"
    },
    {
      "channel": 1,
      "note": 64,
      "start": 22.1453,
      "duration": 0.0954,
      "velocity": 97,
      "chip": "ym2612"
    },
    {
      "channel": 3,
      "note": 64,
      "start": 22.1507,
      "duration": 0.0095,
      "velocity": 127,
      "chip": "ym2612"
    },
    {
      "channel": 4,
      "note": 59,
      "start": 22.1523,
      "duration": 0.7394,
      "velocity": 111,
      "chip": "ym2612"
    },
    {
      "channel": 5,
      "note": 56,
      "start": 22.1541,
      "duration": 0.7378,
      "velocity": 105,
      "chip": "ym2612"
    },
    {
      "channel": 1,
      "note": 64,
      "start": 22.2748,
      "duration": 0.096,
      "velocity": 97,
      "chip": "ym2612"
    },
    {
      "channel": 3,
      "note": 64,
      "start": 22.2801,
      "duration": 0.0102,
      "velocity": 127,
      "chip": "ym2612"
    },
    {
      "channel": 1,
      "note": 52,
      "start": 22.4046,
      "duration": 0.0961,
      "velocity": 97,
      "chip": "ym2612"
    },
    {
      "channel": 3,
      "note": 64,
      "start": 22.41,
      "duration": 0.0102,
      "velocity": 127,
      "chip": "ym2612"
    },
    {
      "channel": 1,
      "note": 64,
      "start": 22.5346,
      "duration": 0.0962,
      "velocity": 97,
      "chip": "ym2612"
    },
    {
      "channel": 3,
      "note": 64,
      "start": 22.54,
      "duration": 0.0103,
      "velocity": 127,
      "chip": "ym2612"
    },
    {
      "channel": 0,
      "note": 57,
      "start": 22.6647,
      "duration": 0.356,
      "velocity": 111,
      "chip": "ym2612"
    },
    {
      "channel": 1,
      "note": 64,
      "start": 22.6665,
      "duration": 0.0943,
      "velocity": 97,
      "chip": "ym2612"
    },
    {
      "channel": 2,
      "note": 52,
      "start": 22.6682,
      "duration": 0.353,
      "velocity": 105,
      "chip": "ym2612"
    },
    {
      "channel": 3,
      "note": 64,
      "start": 22.6736,
      "duration": 0.0067,
      "velocity": 127,
      "chip": "ym2612"
    },
    {
      "channel": 1,
      "note": 52,
      "start": 22.7946,
      "duration": 0.0962,
      "velocity": 97,
      "chip": "ym2612"
    },
    {
      "channel": 3,
      "note": 64,
      "start": 22.8,
      "duration": 0.0102,
      "velocity": 127,
      "chip": "ym2612"
    },
    {
      "channel": 1,
      "note": 64,
      "start": 22.9247,
      "duration": 0.0962,
      "velocity": 97,
      "chip": "ym2612"
    },
    {
      "channel": 3,
      "note": 64,
      "start": 22.93,
      "duration": 0.0103,
      "velocity": 127,
      "chip": "ym2612"
    },
    {
      "channel": 4,
      "note": 57,
      "start": 22.9317,
      "duration": 0.3502,
      "velocity": 111,
      "chip": "ym2612"
    },
    {
      "channel": 5,
      "note": 52,
      "start": 22.9334,
      "duration": 0.3487,
      "velocity": 105,
      "chip": "ym2612"
    },
    {
      "channel": 0,
      "note": 59,
      "start": 23.0548,
      "duration": 0.0959,
      "velocity": 111,
      "chip": "ym2612"
    },
    {
      "channel": 1,
      "note": 64,
      "start": 23.0565,
      "duration": 0.0944,
      "velocity": 97,
      "chip": "ym2612"
    },
    {
      "channel": 2,
      "note": 56,
      "start": 23.0582,
      "duration": 0.0929,
      "velocity": 105,
      "chip": "ym2612"
    },
    {
      "channel": 3,
      "note": 64,
      "start": 23.0635,
      "duration": 0.0069,
      "velocity": 127,
      "chip": "ym2612"
    },
    {
      "channel": 0,
      "note": 57,
      "start": 23.1847,
      "duration": 0.096,
      "velocity": 111,
      "chip": "ym2612"
    },
    {
      "channel": 1,
      "note": 52,
      "start": 23.1864,
      "duration": 0.0946,
      "velocity": 97,
      "chip": "ym2612"
    },
    {
      "channel": 2,
      "note": 54,
      "start": 23.188,
      "duration": 0.0931,
      "velocity": 105,
      "chip": "ym2612"
    },
    {
      "channel": 3,
      "note": 64,
      "start": 23.1932,
      "duration": 0.0073,
      "velocity": 127,
      "chip": "ym2612"
    },
    {
      "channel": 0,
      "note": 56,
      "start": 23.3147,
      "duration": 0.096,
      "velocity": 111,
      "chip": "ym2612"
    },
    {
      "channel": 1,
      "note": 64,
      "start": 23.3163,
      "duration": 0.0946,
      "velocity": 97,
      "chip": "ym2612"
    },
    {
      "channel": 2,
      "note": 52,
      "start": 23.318,
      "duration": 0.0932,
      "velocity": 105,
      "chip": "ym2612"
    },
    {
      "channel": 3,
      "note": 64,
      "start": 23.3233,
      "duration": 0.0076,
      "velocity": 127,
      "chip": "ym2612"
    },
    {
      "channel": 4,
      "note": 59,
      "start": 23.325,
      "duration": 0.087,
      "velocity": 111,
      "chip": "ym2612"
    },
    {
      "channel": 5,
      "note": 56,
      "start": 23.3266,
      "duration": 0.0855,
      "velocity": 105,
      "chip": "ym2612"
    },
    {
      "channel": 0,
      "note": 59,
      "start": 23.4448,
      "duration": 0.7461,
      "velocity": 111,
      "chip": "ym2612"
    },
    {
      "channel": 1,
      "note": 63,
      "start": 23.4469,
      "duration": 0.0939,
      "velocity": 97,
      "chip": "ym2612"
    },
    {
      "channel": 2,
      "note": 54,
      "start": 23.4486,
      "duration": 0.7426,
      "velocity": 105,
      "chip": "ym2612"
    },
    {
      "channel": 3,
      "note": 64,
      "start": 23.454,
      "duration": 0.0079,
      "velocity": 127,
      "chip": "ym2612"
    },
    {
      "channel": 4,
      "note": 57,
      "start": 23.4557,
      "duration": 0.086,
      "velocity": 111,
      "chip": "ym2612"
    },
    {
      "channel": 5,
      "note": 54,
      "start": 23.4574,
      "duration": 0.0846,
      "velocity": 105,
      "chip": "ym2612"
    },
    {
      "channel": 1,
      "note": 51,
      "start": 23.5747,
      "duration": 0.0961,
      "velocity": 97,
      "chip": "ym2612"
    },
    {
      "channel": 3,
      "note": 64,
      "start": 23.5801,
      "duration": 0.0102,
      "velocity": 127,
      "chip": "ym2612"
    },
    {
      "channel": 4,
      "note": 56,
      "start": 23.5818,
      "duration": 0.09,
      "velocity": 111,
      "chip": "ym2612"
    },
    {
      "channel": 5,
      "note": 52,
      "start": 23.5834,
      "duration": 0.0885,
      "velocity": 105,
      "chip": "ym2612"
    },
    {
      "channel": 1,
      "note": 63,
      "start": 23.7048,
      "duration": 0.0961,
      "velocity": 97,
      "chip": "ym2612"
    },
    {
      "channel": 3,
      "note": 64,
      "start": 23.7102,
      "duration": 0.0102,
      "velocity": 127,
      "chip": "ym2612"
    },
    {
      "channel": 4,
      "note": 59,
      "start": 23.7119,
      "duration": 0.7402,
      "velocity": 111,
      "chip": "ym2612"
    },
    {
      "channel": 5,
      "note": 54,
      "start": 23.7135,
      "duration": 0.7387,
      "velocity": 105,
      "chip": "ym2612"
    },
    {
      "channel": 1,
      "note": 63,
      "start": 23.8349,
      "duration": 0.0961,
      "velocity": 97,
      "chip": "ym2612"
    },
    {
      "channel": 3,
      "note": 64,
      "start": 23.8403,
      "duration": 0.0102,
      "velocity": 127,
      "chip": "ym2612"
    },
    {
      "channel": 1,
      "note": 51,
      "start": 23.9648,
      "duration": 0.0961,
      "velocity": 97,
      "chip": "ym2612"
    },
    {
      "channel": 3,
      "note": 64,
      "start": 23.9701,
      "duration": 0.0102,
      "velocity": 127,
      "chip": "ym2612"
    },
    {
      "channel": 1,
      "note": 63,
      "start": 24.0948,
      "duration": 0.0963,
      "velocity": 97,
      "chip": "ym2612"
    },
    {
      "channel": 3,
      "note": 64,
      "start": 24.1002,
      "duration": 0.0102,
      "velocity": 127,
      "chip": "ym2612"
    },
    {
      "channel": 0,
      "note": 57,
      "start": 24.2249,
      "duration": 0.3566,
      "velocity": 111,
      "chip": "ym2612"
    },
    {
      "channel": 1,
      "note": 63,
      "start": 24.2266,
      "duration": 0.0943,
      "velocity": 97,
      "chip": "ym2612"
    },
    {
      "channel": 2,
      "note": 51,
      "start": 24.2283,
      "duration": 0.7431,
      "velocity": 105,
      "chip": "ym2612"
    },
    {
      "channel": 3,
      "note": 64,
      "start": 24.2336,
      "duration": 0.0068,
      "velocity": 127,
      "chip": "ym2612"
    },
    {
      "channel": 1,
      "note": 51,
      "start": 24.3549,
      "duration": 0.0963,
      "velocity": 97,
      "chip": "ym2612"
    },
    {
      "channel": 3,
      "note": 64,
      "start": 24.3602,
      "duration": 0.0102,
      "velocity": 127,
      "chip": "ym2612"
    },
    {
      "channel": 1,
      "note": 63,
      "start": 24.4848,
      "duration": 0.0968,
      "velocity": 97,
      "chip": "ym2612"
    },
    {
      "channel": 3,
      "note": 64,
      "start": 24.4902,
      "duration": 0.0103,
      "velocity": 127,
      "chip": "ym2612"
    },
    {
      "channel": 4,
      "note": 57,
      "start": 24.4919,
      "duration": 0.3501,
      "velocity": 111,
      "chip": "ym2612"
    },
    {
      "channel": 5,
      "note": 51,
      "start": 24.4936,
      "duration": 0.7385,
      "velocity": 105,
      "chip": "ym2612"
    },
    {
      "channel": 0,
      "note": 54,
      "start": 24.6149,
      "duration": 0.0973,
      "velocity": 111,
      "chip": "ym2612"
    },
    {
      "channel": 1,
      "note": 63,
      "start": 24.6166,
      "duration": 0.0957,
      "velocity": 97,
      "chip": "ym2612"
    },
    {
      "channel": 3,
      "note": 64,
      "start": 24.6221,
      "duration": 0.0084,
      "velocity": 127,
      "chip": "ym2612"
    },
    {
      "channel": 0,
      "note": 56,
      "start": 24.7449,
      "duration": 0.096,
      "velocity": 111,
      "chip": "ym2612"
    },
    {
      "channel": 1,
      "note": 51,
      "start": 24.7465,
      "duration": 0.0946,
      "velocity": 97,
      "chip": "ym2612"
    },
    {
      "channel": 3,
      "note": 64,
      "start": 24.7518,
      "duration": 0.0086,
      "velocity": 127,
      "chip": "ym2612"
    },
    {
      "channel": 0,
      "note": 57,
      "start": 24.8749,
      "duration": 0.0961,
      "velocity": 111,
      "chip": "ym2612"
    },
    {
      "channel": 1,
      "note": 63,
      "start": 24.8764,
      "duration": 0.0947,
      "velocity": 97,
      "chip": "ym2612"
    },
    {
      "channel": 3,
      "note": 64,
      "start": 24.8818,
      "duration": 0.0087,
      "velocity": 127,
      "chip": "ym2612"
    },
    {
      "channel": 4,
      "note": 54,
      "start": 24.8835,
      "duration": 0.0886,
      "velocity": 111,
      "chip": "ym2612"
    },
    {
      "channel": 0,
      "note": 59,
      "start": 25.0049,
      "duration": 0.096,
      "velocity": 111,
      "chip": "ym2612"
    },
    {
      "channel": 1,
      "note": 62,
      "start": 25.0071,
      "duration": 0.094,
      "velocity": 97,
      "chip": "ym2612"
    },
    {
      "channel": 2,
      "note": 50,
      "start": 25.0088,
      "duration": 0.0926,
      "velocity": 105,
      "chip": "ym2612"
    },
    {
      "channel": 3,
      "note": 64,
      "start": 25.0142,
      "duration": 0.0064,
      "velocity": 127,
      "chip": "ym2612"
    },
    {
      "channel": 4,
      "note": 56,
      "start": 25.0158,
      "duration": 0.0863,
      "velocity": 111,
      "chip": "ym2612"
    },
    {
      "channel": 1,
      "note": 50,
      "start": 25.1349,
      "duration": 0.0961,
      "velocity": 97,
      "chip": "ym2612"
    },
    {
      "channel": 3,
      "note": 64,
      "start": 25.1402,
      "duration": 0.0103,
      "velocity": 127,
      "chip": "ym2612"
    },
    {
      "channel": 4,
      "note": 57,
      "start": 25.142,
      "duration": 0.0899,
      "velocity": 111,
      "chip": "ym2612"
    },
    {
      "channel": 0,
      "note": 57,
      "start": 25.2649,
      "duration": 0.096,
      "velocity": 111,
      "chip": "ym2612"
    },
    {
      "channel": 1,
      "note": 62,
      "start": 25.2665,
      "duration": 0.0946,
      "velocity": 97,
      "chip": "ym2612"
    },
    {
      "channel": 2,
      "note": 50,
      "start": 25.2682,
      "duration": 0.0932,
      "velocity": 105,
      "chip": "ym2612"
    },
    {
      "channel": 3,
      "note": 64,
      "start": 25.2734,
      "duration": 0.0072,
      "velocity": 127,
      "chip": "ym2612"
    },
    {
      "channel": 4,
      "note": 59,
      "start": 25.2751,
      "duration": 0.087,
      "velocity": 111,
      "chip": "ym2612"
    },
    {
      "channel": 5,
      "note": 50,
      "start": 25.2768,
      "duration": 0.0856,
      "velocity": 105,
      "chip": "ym2612"
    },
    {
      "channel": 1,
      "note": 62,
      "start": 25.3951,
      "duration": 0.096,
      "velocity": 97,
      "chip": "ym2612"
    },
    {
      "channel": 3,
      "note": 64,
      "start": 25.4004,
      "duration": 0.0101,
      "velocity": 127,
      "chip": "ym2612"
    },
    {
      "channel": 0,
      "note": 59,
      "start": 25.525,
      "duration": 0.096,
      "velocity": 111,
      "chip": "ym2612"
    },
    {
      "channel": 1,
      "note": 50,
      "start": 25.5266,
      "duration": 0.0946,
      "velocity": 97,
      "chip": "ym2612"
    },
    {
      "channel": 2,
      "note": 50,
      "start": 25.5282,
      "duration": 0.0932,
      "velocity": 105,
      "chip": "ym2612"
    },
    {
      "channel": 3,
      "note": 64,
      "start": 25.5334,
      "duration": 0.0071,
      "velocity": 127,
      "chip": "ym2612"
    },
    {
      "channel": 4,
      "note": 57,
      "start": 25.5351,
      "duration": 0.0871,
      "velocity": 111,
      "chip": "ym2612"
    },
    {
      "channel": 5,
      "note": 50,
      "start": 25.5369,
      "duration": 0.0855,
      "velocity": 105,
      "chip": "ym2612"
    },
    {
      "channel": 1,
      "note": 62,
      "start": 25.655,
      "duration": 0.0961,
      "velocity": 97,
      "chip": "ym2612"
    },
    {
      "channel": 3,
      "note": 64,
      "start": 25.6603,
      "duration": 0.0102,
      "velocity": 127,
      "chip": "ym2612"
    },
    {
      "channel": 0,
      "note": 54,
      "start": 25.785,
      "duration": 0.746,
      "velocity": 111,
      "chip": "ym2612"
    },
    {
      "channel": 1,
      "note": 62,
      "start": 25.7868,
      "duration": 0.0943,
      "velocity": 97,
      "chip": "ym2612"
    },
    {
      "channel": 2,
      "note": 45,
      "start": 25.7885,
      "duration": 0.743,
      "velocity": 105,
      "chip": "ym2612"
    },
    {
      "channel": 3,
      "note": 64,
      "start": 25.7939,
      "duration": 0.0067,
      "velocity": 127,
      "chip": "ym2612"
    },
    {
      "channel": 4,
      "note": 59,
      "start": 25.7955,
      "duration": 0.0864,
      "velocity": 111,
      "chip": "ym2612"
    },
    {
      "channel": 5,
      "note": 50,
      "start": 25.7972,
      "duration": 0.085,
      "velocity": 105,
      "chip": "ym2612"
    },
    {
      "channel": 1,
      "note": 50,
      "start": 25.9149,
      "duration": 0.0962,
      "velocity": 97,
      "chip": "ym2612"
    },
    {
      "channel": 3,
      "note": 64,
      "start": 25.9203,
      "duration": 0.0102,
      "velocity": 127,
      "chip": "ym2612"
    },
    {
      "channel": 1,
      "note": 62,
      "start": 26.045,
      "duration": 0.0961,
      "velocity": 97,
      "chip": "ym2612"
    },
    {
      "channel": 3,
      "note": 64,
      "start": 26.0504,
      "duration": 0.0102,
      "velocity": 127,
      "chip": "ym2612"
    },
    {
      "channel": 4,
      "note": 54,
      "start": 26.0521,
      "duration": 0.7399,
      "velocity": 111,
      "chip": "ym2612"
    },
    {
      "channel": 5,
      "note": 45,
      "start": 26.0537,
      "duration": 0.7385,
      "velocity": 105,
      "chip": "ym2612"
    },
    {
      "channel": 1,
      "note": 62,
      "start": 26.1752,
      "duration": 0.0961,
      "velocity": 97,
      "chip": "ym2612"
    },
    {
      "channel": 3,
      "note": 64,
      "start": 26.1805,
      "duration": 0.0102,
      "velocity": 127,
      "chip": "ym2612"
    },
    {
      "channel": 1,
      "note": 50,
      "start": 26.305,
      "duration": 0.0961,
      "velocity": 97,
      "chip": "ym2612"
    },
    {
      "channel": 3,
      "note": 64,
      "start": 26.3103,
      "duration": 0.0103,
      "velocity": 127,
      "chip": "ym2612"
    },
    {
      "channel": 1,
      "note": 62,
      "start": 26.435,
      "duration": 0.0962,
      "velocity": 97,
      "chip": "ym2612"
    },
    {
      "channel": 3,
      "note": 64,
      "start": 26.4405,
      "duration": 0.0101,
      "velocity": 127,
      "chip": "ym2612"
    },
    {
      "channel": 0,
      "note": 59,
      "start": 26.5651,
      "duration": 0.096,
      "velocity": 111,
      "chip": "ym2612"
    },
    {
      "channel": 1,
      "note": 61,
      "start": 26.5672,
      "duration": 0.094,
      "velocity": 97,
      "chip": "ym2612"
    },
    {
      "channel": 2,
      "note": 49,
      "start": 26.5689,
      "duration": 0.0926,
      "velocity": 105,
      "chip": "ym2612"
    },
    {
      "channel": 3,
      "note": 64,
      "start": 26.5743,
      "duration": 0.0063,
      "velocity": 127,
      "chip": "ym2612"
    },
    {
      "channel": 1,
      "note": 49,
      "start": 26.695,
      "duration": 0.0961,
      "velocity": 97,
      "chip": "ym2612"
    },
    {
      "channel": 3,
      "note": 64,
      "start": 26.7004,
      "duration": 0.0103,
      "velocity": 127,
      "chip": "ym2612"
    },
    {
      "channel": 0,
      "note": 57,
      "start": 26.8251,
      "duration": 0.096,
      "velocity": 111,
      "chip": "ym2612"
    },
    {
      "channel": 1,
      "note": 61,
      "start": 26.8267,
      "duration": 0.0946,
      "velocity": 97,
      "chip": "ym2612"
    },
    {
      "channel": 2,
      "note": 49,
      "start": 26.8283,
      "duration": 0.0932,
      "velocity": 105,
      "chip": "ym2612"
    },
    {
      "channel": 3,
      "note": 64,
      "start": 26.8336,
      "duration": 0.0071,
      "velocity": 127,
      "chip": "ym2612"
    },
    {
      "channel": 4,
      "note": 59,
      "start": 26.8353,
      "duration": 0.087,
      "velocity": 111,
      "chip": "ym2612"
    },
    {
      "channel": 5,
      "note": 49,
      "start": 26.8369,
      "duration": 0.0856,
      "velocity": 105,
      "chip": "ym2612"
    },
    {
      "channel": 1,
      "note": 61,
      "start": 26.9554,
      "duration": 0.0957,
      "velocity": 97,
      "chip": "ym2612"
    },
    {
      "channel": 3,
      "note": 64,
      "start": 26.9609,
      "duration": 0.0099,
      "velocity": 127,
      "chip": "ym2612"
    },
    {
      "channel": 0,
      "note": 59,
      "start": 27.0857,
      "duration": 0.0954,
      "velocity": 111,
      "chip": "ym2612"
    },
    {
      "channel": 1,
      "note": 49,
      "start": 27.0873,
      "duration": 0.0941,
      "velocity": 97,
      "chip": "ym2612"
    },
    {
      "channel": 2,
      "note": 49,
      "start": 27.0889,
      "duration": 0.0926,
      "velocity": 105,
      "chip": "ym2612"
    },
    {
      "channel": 3,
      "note": 64,
      "start": 27.0941,
      "duration": 0.0066,
      "velocity": 127,
      "chip": "ym2612"
    },
    {
      "channel": 4,
      "note": 57,
      "start": 27.0959,
      "duration": 0.0864,
      "velocity": 111,
      "chip": "ym2612"
    },
    {
      "channel": 5,
      "note": 49,
      "start": 27.0975,
      "duration": 0.085,
      "velocity": 105,
      "chip": "ym2612"
    },
    {
      "channel": 1,
      "note": 61,
      "start": 27.2159,
      "duration": 0.0953,
      "velocity": 97,
      "chip": "ym2612"
    },
    {
      "channel": 3,
      "note": 64,
      "start": 27.2214,
      "duration": 0.0093,
      "velocity": 127,
      "chip": "ym2612"
    },
    {
      "channel": 0,
      "note": 52,
      "start": 27.3451,
      "duration": 0.7461,
      "velocity": 111,
      "chip": "ym2612"
    },
    {
      "channel": 1,
      "note": 61,
      "start": 27.3469,
      "duration": 0.0943,
      "velocity": 97,
      "chip": "ym2612"
    },
    {
      "channel": 2,
      "note": 45,
      "start": 27.3486,
      "duration": 0.743,
      "velocity": 105,
      "chip": "ym2612"
    },
    {
      "channel": 3,
      "note": 64,
      "start": 27.354,
      "duration": 0.0067,
      "velocity": 127,
      "chip": "ym2612"
    },
    {
      "channel": 4,
      "note": 59,
      "start": 27.3557,
      "duration": 0.0864,
      "velocity": 111,
      "chip": "ym2612"
    },
    {
      "channel": 5,
      "note": 49,
      "start": 27.3574,
      "duration": 0.085,
      "velocity": 105,
      "chip": "ym2612"
    },
    {
      "channel": 1,
      "note": 49,
      "start": 27.4751,
      "duration": 0.0962,
      "velocity": 97,
      "chip": "ym2612"
    },
    {
      "channel": 3,
      "note": 64,
      "start": 27.4805,
      "duration": 0.0103,
      "velocity": 127,
      "chip": "ym2612"
    },
    {
      "channel": 1,
      "note": 61,
      "start": 27.6051,
      "duration": 0.0961,
      "velocity": 97,
      "chip": "ym2612"
    },
    {
      "channel": 3,
      "note": 64,
      "start": 27.6105,
      "duration": 0.0103,
      "velocity": 127,
      "chip": "ym2612"
    },
    {
      "channel": 4,
      "note": 52,
      "start": 27.6122,
      "duration": 0.74,
      "velocity": 111,
      "chip": "ym2612"
    },
    {
      "channel": 5,
      "note": 45,
      "start": 27.6139,
      "duration": 0.7385,
      "velocity": 105,
      "chip": "ym2612"
    },
    {
      "channel": 1,
      "note": 61,
      "start": 27.7353,
      "duration": 0.0961,
      "velocity": 97,
      "chip": "ym2612"
    },
    {
      "channel": 3,
      "note": 64,
      "start": 27.7407,
      "duration": 0.0102,
      "velocity": 127,
      "chip": "ym2612"
    },
    {
      "channel": 1,
      "note": 49,
      "start": 27.8651,
      "duration": 0.0961,
      "velocity": 97,
      "chip": "ym2612"
    },
    {
      "channel": 3,
      "note": 64,
      "start": 27.8705,
      "duration": 0.0103,
      "velocity": 127,
      "chip": "ym2612"
    },
    {
      "channel": 1,
      "note": 61,
      "start": 27.9951,
      "duration": 0.0962,
      "velocity": 97,
      "chip": "ym2612"
    },
    {
      "channel": 3,
      "note": 64,
      "start": 28.0005,
      "duration": 0.0102,
      "velocity": 127,
      "chip": "ym2612"
    },
    {
      "channel": 0,
      "note": 51,
      "start": 28.1252,
      "duration": 1.1361,
      "velocity": 111,
      "chip": "ym2612"
    },
    {
      "channel": 1,
      "note": 60,
      "start": 28.1273,
      "duration": 0.094,
      "velocity": 97,
      "chip": "ym2612"
    },
    {
      "channel": 2,
      "note": 48,
      "start": 28.129,
      "duration": 1.1326,
      "velocity": 105,
      "chip": "ym2612"
    },
    {
      "channel": 3,
      "note": 64,
      "start": 28.1344,
      "duration": 0.0065,
      "velocity": 127,
      "chip": "ym2612"
    },
    {
      "channel": 1,
      "note": 48,
      "start": 28.2552,
      "duration": 0.0961,
      "velocity": 97,
      "chip": "ym2612"
    },
    {
      "channel": 3,
      "note": 64,
      "start": 28.2605,
      "duration": 0.0107,
      "velocity": 127,
      "chip": "ym2612"
    },
    {
      "channel": 1,
      "note": 60,
      "start": 28.3852,
      "duration": 0.0961,
      "velocity": 97,
      "chip": "ym2612"
    },
    {
      "channel": 3,
      "note": 64,
      "start": 28.3906,
      "duration": 0.011,
      "velocity": 127,
      "chip": "ym2612"
    },
    {
      "channel": 4,
      "note": 51,
      "start": 28.3923,
      "duration": 1.1305,
      "velocity": 111,
      "chip": "ym2612"
    },
    {
      "channel": 5,
      "note": 48,
      "start": 28.3939,
      "duration": 1.129,
      "velocity": 105,
      "chip": "ym2612"
    },
    {
      "channel": 1,
      "note": 60,
      "start": 28.5154,
      "duration": 0.096,
      "velocity": 97,
      "chip": "ym2612"
    },
    {
      "channel": 3,
      "note": 64,
      "start": 28.5207,
      "duration": 0.0102,
      "velocity": 127,
      "chip": "ym2612"
    },
    {
      "channel": 1,
      "note": 48,
      "start": 28.6452,
      "duration": 0.0961,
      "velocity": 97,
      "chip": "ym2612"
    },
    {
      "channel": 3,
      "note": 64,
      "start": 28.6505,
      "duration": 0.0103,
      "velocity": 127,
      "chip": "ym2612"
    },
    {
      "channel": 1,
      "note": 60,
      "start": 28.7752,
      "duration": 0.0961,
      "velocity": 97,
      "chip": "ym2612"
    },
    {
      "channel": 3,
      "note": 64,
      "start": 28.7806,
      "duration": 0.0103,
      "velocity": 127,
      "chip": "ym2612"
    },
    {
      "channel": 1,
      "note": 60,
      "start": 28.9054,
      "duration": 0.0959,
      "velocity": 97,
      "chip": "ym2612"
    },
    {
      "channel": 3,
      "note": 64,
      "start": 28.911,
      "duration": 0.0099,
      "velocity": 127,
      "chip": "ym2612"
    },
    {
      "channel": 1,
      "note": 48,
      "start": 29.0352,
      "duration": 0.0962,
      "velocity": 97,
      "chip": "ym2612"
    },
    {
      "channel": 3,
      "note": 64,
      "start": 29.0406,
      "duration": 0.0102,
      "velocity": 127,
      "chip": "ym2612"
    },
    {
      "channel": 1,
      "note": 60,
      "start": 29.1652,
      "duration": 0.0963,
      "velocity": 97,
      "chip": "ym2612"
    },
    {
      "channel": 3,
      "note": 64,
      "start": 29.1707,
      "duration": 0.0102,
      "velocity": 127,
      "chip": "ym2612"
    },
    {
      "channel": 0,
      "note": 59,
      "start": 29.2953,
      "duration": 0.3568,
      "velocity": 111,
      "chip": "ym2612"
    },
    {
      "channel": 1,
      "note": 60,
      "start": 29.2971,
      "duration": 0.0943,
      "velocity": 97,
      "chip": "ym2612"
    },
    {
      "channel": 2,
      "note": 56,
      "start": 29.2988,
      "duration": 0.3537,
      "velocity": 105,
      "chip": "ym2612"
    },
    {
      "channel": 3,
      "note": 64,
      "start": 29.304,
      "duration": 0.0069,
      "velocity": 127,
      "chip": "ym2612"
    },
    {
      "channel": 1,
      "note": 48,
      "start": 29.4253,
      "duration": 0.0966,
      "velocity": 97,
      "chip": "ym2612"
    },
    {
      "channel": 3,
      "note": 64,
      "start": 29.4306,
      "duration": 0.0103,
      "velocity": 127,
      "chip": "ym2612"
    },
    {
      "channel": 1,
      "note": 60,
      "start": 29.5553,
      "duration": 0.097,
      "velocity": 97,
      "chip": "ym2612"
    },
    {
      "channel": 3,
      "note": 64,
      "start": 29.5607,
      "duration": 0.0103,
      "velocity": 127,
      "chip": "ym2612"
    },
    {
      "channel": 4,
      "note": 59,
      "start": 29.5624,
      "duration": 0.35,
      "velocity": 111,
      "chip": "ym2612"
    },
    {
      "channel": 5,
      "note": 56,
      "start": 29.564,
      "duration": 0.3485,
      "velocity": 105,
      "chip": "ym2612"
    },
    {
      "channel": 0,
      "note": 61,
      "start": 29.6857,
      "duration": 1.5258,
      "velocity": 111,
      "chip": "ym2612"
    },
    {
      "channel": 1,
      "note": 61,
      "start": 29.688,
      "duration": 0.0935,
      "velocity": 97,
      "chip": "ym2612"
    },
    {
      "channel": 2,
      "note": 61,
      "start": 29.6896,
      "duration": 0.3521,
      "velocity": 105,
      "chip": "ym2612"
    },
    {
      "channel": 3,
      "note": 64,
      "start": 29.6954,
      "duration": 0.0055,
      "velocity": 127,
      "chip": "ym2612"
    },
    {
      "channel": 1,
      "note": 49,
      "start": 29.8153,
      "duration": 0.0962,
      "velocity": 97,
      "chip": "ym2612"
    },
    {
      "channel": 3,
      "note": 64,
      "start": 29.8207,
      "duration": 0.0102,
      "velocity": 127,
      "chip": "ym2612"
    },
    {
      "channel": 1,
      "note": 61,
      "start": 29.9453,
      "duration": 0.0961,
      "velocity": 97,
      "chip": "ym2612"
    },
    {
      "channel": 3,
      "note": 64,
      "start": 29.9476,
      "duration": 0.0134,
      "velocity": 127,
      "chip": "ym2612"
    },
    {
      "channel": 4,
      "note": 61,
      "start": 29.9495,
      "duration": 1.5392,
      "velocity": 111,
      "chip": "ym2612"
    },
    {
      "channel": 5,
      "note": 61,
      "start": 29.9512,
      "duration": 0.3513,
      "velocity": 105,
      "chip": "ym2612"
    },
    {
      "channel": 1,
      "note": 61,
      "start": 30.0756,
      "duration": 0.096,
      "velocity": 97,
      "chip": "ym2612"
    },
    {
      "channel": 2,
      "note": 59,
      "start": 30.0772,
      "duration": 0.3545,
      "velocity": 105,
      "chip": "ym2612"
    },
    {
      "channel": 3,
      "note": 64,
      "start": 30.0826,
      "duration": 0.0085,
      "velocity": 127,
      "chip": "ym2612"
    },
    {
      "channel": 1,
      "note": 49,
      "start": 30.2054,
      "duration": 0.0961,
      "velocity": 97,
      "chip": "ym2612"
    },
    {
      "channel": 3,
      "note": 64,
      "start": 30.2107,
      "duration": 0.0103,
      "velocity": 127,
      "chip": "ym2612"
    },
    {
      "channel": 1,
      "note": 61,
      "start": 30.3354,
      "duration": 0.0961,
      "velocity": 97,
      "chip": "ym2612"
    },
    {
      "channel": 3,
      "note": 64,
      "start": 30.3376,
      "duration": 0.0134,
      "velocity": 127,
      "chip": "ym2612"
    },
    {
      "channel": 5,
      "note": 59,
      "start": 30.3394,
      "duration": 0.3532,
      "velocity": 105,
      "chip": "ym2612"
    },
    {
      "channel": 1,
      "note": 61,
      "start": 30.4656,
      "duration": 0.0959,
      "velocity": 97,
      "chip": "ym2612"
    },
    {
      "channel": 2,
      "note": 56,
      "start": 30.4672,
      "duration": 0.3545,
      "velocity": 105,
      "chip": "ym2612"
    },
    {
      "channel": 3,
      "note": 64,
      "start": 30.4726,
      "duration": 0.0084,
      "velocity": 127,
      "chip": "ym2612"
    },
    {
      "channel": 1,
      "note": 49,
      "start": 30.5954,
      "duration": 0.0961,
      "velocity": 97,
      "chip": "ym2612"
    },
    {
      "channel": 3,
      "note": 64,
      "start": 30.6007,
      "duration": 0.0103,
      "velocity": 127,
      "chip": "ym2612"
    },
    {
      "channel": 1,
      "note": 61,
      "start": 30.7254,
      "duration": 0.0961,
      "velocity": 97,
      "chip": "ym2612"
    },
    {
      "channel": 3,
      "note": 64,
      "start": 30.7276,
      "duration": 0.0135,
      "velocity": 127,
      "chip": "ym2612"
    },
    {
      "channel": 5,
      "note": 56,
      "start": 30.7294,
      "duration": 0.3532,
      "velocity": 105,
      "chip": "ym2612"
    },
    {
      "channel": 1,
      "note": 61,
      "start": 30.8556,
      "duration": 0.0959,
      "velocity": 97,
      "chip": "ym2612"
    },
    {
      "channel": 2,
      "note": 53,
      "start": 30.8573,
      "duration": 0.3546,
      "velocity": 105,
      "chip": "ym2612"
    },
    {
      "channel": 3,
      "note": 64,
      "start": 30.8597,
      "duration": 0.0115,
      "velocity": 127,
      "chip": "ym2612"
    },
    {
      "channel": 1,
      "note": 49,
      "start": 30.9854,
      "duration": 0.0961,
      "velocity": 97,
      "chip": "ym2612"
    },
    {
      "channel": 3,
      "note": 64,
      "start": 30.9878,
      "duration": 0.0133,
      "velocity": 127,
      "chip": "ym2612"
    },
    {
      "channel": 1,
      "note": 61,
      "start": 31.1154,
      "duration": 0.0962,
      "velocity": 97,
      "chip": "ym2612"
    },
    {
      "channel": 3,
      "note": 64,
      "start": 31.1178,
      "duration": 0.0133,
      "velocity": 127,
      "chip": "ym2612"
    },
    {
      "channel": 5,
      "note": 53,
      "start": 31.1196,
      "duration": 0.3694,
      "velocity": 105,
      "chip": "ym2612"
    },
    {
      "channel": 0,
      "note": 73,
      "start": 31.2491,
      "duration": 0.1086,
      "velocity": 103,
      "chip": "ym2612"
    },
    {
      "channel": 1,
      "note": 66,
      "start": 31.2512,
      "duration": 1.1468,
      "velocity": 97,
      "chip": "ym2612"
    },
    {
      "channel": 2,
      "note": 78,
      "start": 31.2563,
      "duration": 0.7518,
      "velocity": 113,
      "chip": "ym2612"
    },
    {
      "channel": 3,
      "note": 64,
      "start": 31.2622,
      "duration": 0.0151,
      "velocity": 127,
      "chip": "ym2612"
    },
    {
      "channel": 0,
      "note": 81,
      "start": 31.3917,
      "duration": 0.0961,
      "velocity": 103,
      "chip": "ym2612"
    },
    {
      "channel": 3,
      "note": 64,
      "start": 31.3972,
      "duration": 0.0102,
      "velocity": 127,
      "chip": "ym2612"
    },
    {
      "channel": 0,
      "note": 80,
      "start": 31.5217,
      "duration": 0.0961,
      "velocity": 103,
      "chip": "ym2612"
    },
    {
      "channel": 3,
      "note": 64,
      "start": 31.524,
      "duration": 0.0134,
      "velocity": 127,
      "chip": "ym2612"
    },
    {
      "channel": 4,
      "note": 73,
      "start": 31.5294,
      "duration": 0.0894,
      "velocity": 103,
      "chip": "ym2612"
    },
    {
      "channel": 5,
      "note": 78,
      "start": 31.5345,
      "duration": 0.7346,
      "velocity": 113,
      "chip": "ym2612"
    },
    {
      "channel": 0,
      "note": 78,
      "start": 31.6518,
      "duration": 0.096,
      "velocity": 103,
      "chip": "ym2612"
    },
    {
      "channel": 3,
      "note": 64,
      "start": 31.6541,
      "duration": 0.0133,
      "velocity": 127,
      "chip": "ym2612"
    },
    {
      "channel": 4,
      "note": 81,
      "start": 31.6558,
      "duration": 0.0929,
      "velocity": 103,
      "chip": "ym2612"
    },
    {
      "channel": 3,
      "note": 64,
      "start": 31.7174,
      "duration": 0.0149,
      "velocity": 127,
      "chip": "ym2612"
    },
    {
      "channel": 0,
      "note": 74,
      "start": 31.7818,
      "duration": 0.096,
      "velocity": 103,
      "chip": "ym2612"
    },
    {
      "channel": 3,
      "note": 64,
      "start": 31.7842,
      "duration": 0.0132,
      "velocity": 127,
      "chip": "ym2612"
    },
    {
      "channel": 4,
      "note": 80,
      "start": 31.7859,
      "duration": 0.0929,
      "velocity": 103,
      "chip": "ym2612"
    },
    {
      "channel": 0,
      "note": 73,
      "start": 31.9117,
      "duration": 0.0961,
      "velocity": 103,
      "chip": "ym2612"
    },
    {
      "channel": 3,
      "note": 64,
      "start": 31.9142,
      "duration": 0.0132,
      "velocity": 127,
      "chip": "ym2612"
    },
    {
      "channel": 4,
      "note": 78,
      "start": 31.9158,
      "duration": 0.0931,
      "velocity": 103,
      "chip": "ym2612"
    },
    {
      "channel": 0,
      "note": 73,
      "start": 32.042,
      "duration": 0.0959,
      "velocity": 103,
      "chip": "ym2612"
    },
    {
      "channel": 2,
      "note": 85,
      "start": 32.0437,
      "duration": 0.7446,
      "velocity": 113,
      "chip": "ym2612"
    },
    {
      "channel": 3,
      "note": 64,
      "start": 32.0459,
      "duration": 0.0115,
      "velocity": 127,
      "chip": "ym2612"
    },
    {
      "channel": 4,
      "note": 74,
      "start": 32.0476,
      "duration": 0.0913,
      "velocity": 103,
      "chip": "ym2612"
    },
    {
      "channel": 0,
      "note": 81,
      "start": 32.1719,
      "duration": 0.096,
      "velocity": 103,
      "chip": "ym2612"
    },
    {
      "channel": 3,
      "note": 64,
      "start": 32.1743,
      "duration": 0.0132,
      "velocity": 127,
      "chip": "ym2612"
    },
    {
      "channel": 4,
      "note": 73,
      "start": 32.1759,
      "duration": 0.0929,
      "velocity": 103,
      "chip": "ym2612"
    },
    {
      "channel": 0,
      "note": 80,
      "start": 32.3018,
      "duration": 0.096,
      "velocity": 103,
      "chip": "ym2612"
    },
    {
      "channel": 3,
      "note": 64,
      "start": 32.3075,
      "duration": 0.0099,
      "velocity": 127,
      "chip": "ym2612"
    },
    {
      "channel": 4,
      "note": 73,
      "start": 32.3093,
      "duration": 0.0895,
      "velocity": 103,
      "chip": "ym2612"
    },
    {
      "channel": 5,
      "note": 85,
      "start": 32.311,
      "duration": 0.7381,
      "velocity": 113,
      "chip": "ym2612"
    },
    {
      "channel": 0,
      "note": 78,
      "start": 32.4319,
      "duration": 0.096,
      "velocity": 103,
      "chip": "ym2612"
    },
    {
      "channel": 1,
      "note": 66,
      "start": 32.4334,
      "duration": 0.3546,
      "velocity": 97,
      "chip": "ym2612"
    },
    {
      "channel": 3,
      "note": 64,
      "start": 32.4388,
      "duration": 0.0086,
      "velocity": 127,
      "chip": "ym2612"
    },
    {
      "channel": 4,
      "note": 81,
      "start": 32.4405,
      "duration": 0.0884,
      "velocity": 103,
      "chip": "ym2612"
    },
    {
      "channel": 0,
      "note": 74,
      "start": 32.5618,
      "duration": 0.0961,
      "velocity": 103,
      "chip": "ym2612"
    },
    {
      "channel": 4,
      "note": 80,
      "start": 32.5643,
      "duration": 0.0946,
      "velocity": 103,
      "chip": "ym2612"
    },
    {
      "channel": 0,
      "note": 73,
      "start": 32.6918,
      "duration": 0.0961,
      "velocity": 103,
      "chip": "ym2612"
    },
    {
      "channel": 4,
      "note": 78,
      "start": 32.6943,
      "duration": 0.0948,
      "velocity": 103,
      "chip": "ym2612"
    },
    {
      "channel": 0,
      "note": 73,
      "start": 32.8221,
      "duration": 0.0958,
      "velocity": 103,
      "chip": "ym2612"
    },
    {
      "channel": 1,
      "note": 64,
      "start": 32.8239,
      "duration": 1.1343,
      "velocity": 97,
      "chip": "ym2612"
    },
    {
      "channel": 2,
      "note": 76,
      "start": 32.8256,
      "duration": 0.7427,
      "velocity": 113,
      "chip": "ym2612"
    },
    {
      "channel": 3,
      "note": 64,
      "start": 32.831,
      "duration": 0.0066,
      "velocity": 127,
      "chip": "ym2612"
    },
    {
      "channel": 4,
      "note": 74,
      "start": 32.8326,
      "duration": 0.0863,
      "velocity": 103,
      "chip": "ym2612"
    },
    {
      "channel": 0,
      "note": 81,
      "start": 32.9519,
      "duration": 0.096,
      "velocity": 103,
      "chip": "ym2612"
    },
    {
      "channel": 3,
      "note": 64,
      "start": 32.9574,
      "duration": 0.0102,
      "velocity": 127,
      "chip": "ym2612"
    },
    {
      "channel": 4,
      "note": 73,
      "start": 32.959,
      "duration": 0.0899,
      "velocity": 103,
      "chip": "ym2612"
    },
    {
      "channel": 0,
      "note": 80,
      "start": 33.0819,
      "duration": 0.0961,
      "velocity": 103,
      "chip": "ym2612"
    },
    {
      "channel": 3,
      "note": 64,
      "start": 33.0841,
      "duration": 0.0134,
      "velocity": 127,
      "chip": "ym2612"
    },
    {
      "channel": 4,
      "note": 73,
      "start": 33.0859,
      "duration": 0.093,
      "velocity": 103,
      "chip": "ym2612"
    },
    {
      "channel": 5,
      "note": 76,
      "start": 33.0876,
      "duration": 0.7415,
      "velocity": 113,
      "chip": "ym2612"
    },
    {
      "channel": 0,
      "note": 78,
      "start": 33.2121,
      "duration": 0.0958,
      "velocity": 103,
      "chip": "ym2612"
    },
    {
      "channel": 3,
      "note": 64,
      "start": 33.2144,
      "duration": 0.0131,
      "velocity": 127,
      "chip": "ym2612"
    },
    {
      "channel": 4,
      "note": 81,
      "start": 33.2161,
      "duration": 0.0928,
      "velocity": 103,
      "chip": "ym2612"
    },
    {
      "channel": 3,
      "note": 64,
      "start": 33.278,
      "duration": 0.0146,
      "velocity": 127,
      "chip": "ym2612"
    },
    {
      "channel": 0,
      "note": 74,
      "start": 33.343,
      "duration": 0.095,
      "velocity": 103,
      "chip": "ym2612"
    },
    {
      "channel": 3,
      "note": 64,
      "start": 33.3454,
      "duration": 0.0122,
      "velocity": 127,
      "chip": "ym2612"
    },
    {
      "channel": 4,
      "note": 80,
      "start": 33.3471,
      "duration": 0.0919,
      "velocity": 103,
      "chip": "ym2612"
    },
    {
      "channel": 0,
      "note": 73,
      "start": 33.4728,
      "duration": 0.0951,
      "velocity": 103,
      "chip": "ym2612"
    },
    {
      "channel": 3,
      "note": 64,
      "start": 33.4752,
      "duration": 0.0123,
      "velocity": 127,
      "chip": "ym2612"
    },
    {
      "channel": 4,
      "note": 78,
      "start": 33.4769,
      "duration": 0.0921,
      "velocity": 103,
      "chip": "ym2612"
    },
    {
      "channel": 0,
      "note": 73,
      "start": 33.6021,
      "duration": 0.0959,
      "velocity": 103,
      "chip": "ym2612"
    },
    {
      "channel": 2,
      "note": 85,
      "start": 33.6039,
      "duration": 0.7446,
      "velocity": 113,
      "chip": "ym2612"
    },
    {
      "channel": 3,
      "note": 64,
      "start": 33.6061,
      "duration": 0.0115,
      "velocity": 127,
      "chip": "ym2612"
    },
    {
      "channel": 4,
      "note": 74,
      "start": 33.6077,
      "duration": 0.0912,
      "velocity": 103,
      "chip": "ym2612"
    },
    {
      "channel": 0,
      "note": 81,
      "start": 33.732,
      "duration": 0.096,
      "velocity": 103,
      "chip": "ym2612"
    },
    {
      "channel": 3,
      "note": 64,
      "start": 33.7344,
      "duration": 0.0132,
      "velocity": 127,
      "chip": "ym2612"
    },
    {
      "channel": 4,
      "note": 73,
      "start": 33.7361,
      "duration": 0.0929,
      "velocity": 103,
      "chip": "ym2612"
    },
    {
      "channel": 0,
      "note": 80,
      "start": 33.862,
      "duration": 0.0961,
      "velocity": 103,
      "chip": "ym2612"
    },
    {
      "channel": 3,
      "note": 64,
      "start": 33.8675,
      "duration": 0.0101,
      "velocity": 127,
      "chip": "ym2612"
    },
    {
      "channel": 4,
      "note": 73,
      "start": 33.8693,
      "duration": 0.0898,
      "velocity": 103,
      "chip": "ym2612"
    },
    {
      "channel": 5,
      "note": 85,
      "start": 33.871,
      "duration": 0.7382,
      "velocity": 113,
      "chip": "ym2612"
    },
    {
      "channel": 0,
      "note": 78,
      "start": 33.992,
      "duration": 0.0961,
      "velocity": 103,
      "chip": "ym2612"
    },
    {
      "channel": 1,
      "note": 64,
      "start": 33.9936,
      "duration": 0.3546,
      "velocity": 97,
      "chip": "ym2612"
    },
    {
      "channel": 3,
      "note": 64,
      "start": 33.999,
      "duration": 0.0087,
      "velocity": 127,
      "chip": "ym2612"
    },
    {
      "channel": 4,
      "note": 81,
      "start": 34.0006,
      "duration": 0.0884,
      "velocity": 103,
      "chip": "ym2612"
    },
    {
      "channel": 0,
      "note": 74,
      "start": 34.122,
      "duration": 0.096,
      "velocity": 103,
      "chip": "ym2612"
    },
    {
      "channel": 4,
      "note": 80,
      "start": 34.1245,
      "duration": 0.0945,
      "velocity": 103,
      "chip": "ym2612"
    },
    {
      "channel": 0,
      "note": 73,
      "start": 34.252,
      "duration": 0.096,
      "velocity": 103,
      "chip": "ym2612"
    },
    {
      "channel": 4,
      "note": 78,
      "start": 34.2544,
      "duration": 0.0947,
      "velocity": 103,
      "chip": "ym2612"
    },
    {
      "channel": 0,
      "note": 73,
      "start": 34.3822,
      "duration": 0.0959,
      "velocity": 103,
      "chip": "ym2612"
    },
    {
      "channel": 1,
      "note": 62,
      "start": 34.384,
      "duration": 1.1344,
      "velocity": 97,
      "chip": "ym2612"
    },
    {
      "channel": 2,
      "note": 74,
      "start": 34.3857,
      "duration": 0.7427,
      "velocity": 113,
      "chip": "ym2612"
    },
    {
      "channel": 3,
      "note": 64,
      "start": 34.3911,
      "duration": 0.0066,
      "velocity": 127,
      "chip": "ym2612"
    },
    {
      "channel": 4,
      "note": 74,
      "start": 34.3927,
      "duration": 0.0863,
      "velocity": 103,
      "chip": "ym2612"
    },
    {
      "channel": 0,
      "note": 81,
      "start": 34.512,
      "duration": 0.0961,
      "velocity": 103,
      "chip": "ym2612"
    },
    {
      "channel": 3,
      "note": 64,
      "start": 34.5175,
      "duration": 0.0105,
      "velocity": 127,
      "chip": "ym2612"
    },
    {
      "channel": 4,
      "note": 73,
      "start": 34.5191,
      "duration": 0.0899,
      "velocity": 103,
      "chip": "ym2612"
    },
    {
      "channel": 0,
      "note": 80,
      "start": 34.642,
      "duration": 0.096,
      "velocity": 103,
      "chip": "ym2612"
    },
    {
      "channel": 3,
      "note": 64,
      "start": 34.6443,
      "duration": 0.0141,
      "velocity": 127,
      "chip": "ym2612"
    },
    {
      "channel": 4,
      "note": 73,
      "start": 34.6461,
      "duration": 0.0929,
      "velocity": 103,
      "chip": "ym2612"
    },
    {
      "channel": 5,
      "note": 74,
      "start": 34.6478,
      "duration": 0.7415,
      "velocity": 113,
      "chip": "ym2612"
    },
    {
      "channel": 0,
      "note": 78,
      "start": 34.7721,
      "duration": 0.096,
      "velocity": 103,
      "chip": "ym2612"
    },
    {
      "channel": 3,
      "note": 64,
      "start": 34.7744,
      "duration": 0.0134,
      "velocity": 127,
      "chip": "ym2612"
    },
    {
      "channel": 4,
      "note": 81,
      "start": 34.776,
      "duration": 0.0931,
      "velocity": 103,
      "chip": "ym2612"
    },
    {
      "channel": 3,
      "note": 64,
      "start": 34.8378,
      "duration": 0.015,
      "velocity": 127,
      "chip": "ym2612"
    },
    {
      "channel": 0,
      "note": 74,
      "start": 34.9021,
      "duration": 0.096,
      "velocity": 103,
      "chip": "ym2612"
    },
    {
      "channel": 3,
      "note": 64,
      "start": 34.9045,
      "duration": 0.0132,
      "velocity": 127,
      "chip": "ym2612"
    },
    {
      "channel": 4,
      "note": 80,
      "start": 34.9062,
      "duration": 0.0929,
      "velocity": 103,
      "chip": "ym2612"
    },
    {
      "channel": 0,
      "note": 73,
      "start": 35.032,
      "duration": 0.0961,
      "velocity": 103,
      "chip": "ym2612"
    },
    {
      "channel": 3,
      "note": 64,
      "start": 35.0345,
      "duration": 0.0132,
      "velocity": 127,
      "chip": "ym2612"
    },
    {
      "channel": 4,
      "note": 78,
      "start": 35.0362,
      "duration": 0.093,
      "velocity": 103,
      "chip": "ym2612"
    },
    {
      "channel": 0,
      "note": 73,
      "start": 35.1623,
      "duration": 0.0959,
      "velocity": 103,
      "chip": "ym2612"
    },
    {
      "channel": 2,
      "note": 85,
      "start": 35.164,
      "duration": 0.7454,
      "velocity": 113,
      "chip": "ym2612"
    },
    {
      "channel": 3,
      "note": 64,
      "start": 35.1662,
      "duration": 0.0115,
      "velocity": 127,
      "chip": "ym2612"
    },
    {
      "channel": 4,
      "note": 74,
      "start": 35.1678,
      "duration": 0.0912,
      "velocity": 103,
      "chip": "ym2612"
    },
    {
      "channel": 0,
      "note": 81,
      "start": 35.2921,
      "duration": 0.0961,
      "velocity": 103,
      "chip": "ym2612"
    },
    {
      "channel": 3,
      "note": 64,
      "start": 35.2945,
      "duration": 0.0132,
      "velocity": 127,
      "chip": "ym2612"
    },
    {
      "channel": 4,
      "note": 73,
      "start": 35.2962,
      "duration": 0.0929,
      "velocity": 103,
      "chip": "ym2612"
    },
    {
      "channel": 0,
      "note": 80,
      "start": 35.4221,
      "duration": 0.096,
      "velocity": 103,
      "chip": "ym2612"
    },
    {
      "channel": 3,
      "note": 64,
      "start": 35.4277,
      "duration": 0.0101,
      "velocity": 127,
      "chip": "ym2612"
    },
    {
      "channel": 4,
      "note": 73,
      "start": 35.4295,
      "duration": 0.0898,
      "velocity": 103,
      "chip": "ym2612"
    },
    {
      "channel": 5,
      "note": 85,
      "start": 35.4312,
      "duration": 0.7383,
      "velocity": 113,
      "chip": "ym2612"
    },
    {
      "channel": 0,
      "note": 78,
      "start": 35.5522,
      "duration": 0.0961,
      "velocity": 103,
      "chip": "ym2612"
    },
    {
      "channel": 1,
      "note": 62,
      "start": 35.5537,
      "duration": 0.3553,
      "velocity": 97,
      "chip": "ym2612"
    },
    {
      "channel": 3,
      "note": 64,
      "start": 35.5591,
      "duration": 0.0087,
      "velocity": 127,
      "chip": "ym2612"
    },
    {
      "channel": 4,
      "note": 81,
      "start": 35.5608,
      "duration": 0.0884,
      "velocity": 103,
      "chip": "ym2612"
    },
    {
      "channel": 0,
      "note": 74,
      "start": 35.6822,
      "duration": 0.0964,
      "velocity": 103,
      "chip": "ym2612"
    },
    {
      "channel": 4,
      "note": 80,
      "start": 35.6846,
      "duration": 0.095,
      "velocity": 103,
      "chip": "ym2612"
    },
    {
      "channel": 0,
      "note": 73,
      "start": 35.8121,
      "duration": 0.0968,
      "velocity": 103,
      "chip": "ym2612"
    },
    {
      "channel": 4,
      "note": 78,
      "start": 35.8146,
      "duration": 0.0955,
      "velocity": 103,
      "chip": "ym2612"
    },
    {
      "channel": 0,
      "note": 73,
      "start": 35.9423,
      "duration": 0.0959,
      "velocity": 103,
      "chip": "ym2612"
    },
    {
      "channel": 1,
      "note": 64,
      "start": 35.9443,
      "duration": 1.1342,
      "velocity": 97,
      "chip": "ym2612"
    },
    {
      "channel": 2,
      "note": 76,
      "start": 35.9459,
      "duration": 0.7427,
      "velocity": 113,
      "chip": "ym2612"
    },
    {
      "channel": 3,
      "note": 64,
      "start": 35.9513,
      "duration": 0.0065,
      "velocity": 127,
      "chip": "ym2612"
    },
    {
      "channel": 4,
      "note": 74,
      "start": 35.953,
      "duration": 0.0862,
      "velocity": 103,
      "chip": "ym2612"
    },
    {
      "channel": 0,
      "note": 81,
      "start": 36.0722,
      "duration": 0.096,
      "velocity": 103,
      "chip": "ym2612"
    },
    {
      "channel": 3,
      "note": 64,
      "start": 36.0776,
      "duration": 0.0102,
      "velocity": 127,
      "chip": "ym2612"
    },
    {
      "channel": 4,
      "note": 73,
      "start": 36.0793,
      "duration": 0.09,
      "velocity": 103,
      "chip": "ym2612"
    },
    {
      "channel": 0,
      "note": 80,
      "start": 36.2022,
      "duration": 0.096,
      "velocity": 103,
      "chip": "ym2612"
    },
    {
      "channel": 3,
      "note": 64,
      "start": 36.2045,
      "duration": 0.0133,
      "velocity": 127,
      "chip": "ym2612"
    },
    {
      "channel": 4,
      "note": 73,
      "start": 36.2063,
      "duration": 0.0929,
      "velocity": 103,
      "chip": "ym2612"
    },
    {
      "channel": 5,
      "note": 76,
      "start": 36.208,
      "duration": 0.7415,
      "velocity": 113,
      "chip": "ym2612"
    },
    {
      "channel": 0,
      "note": 78,
      "start": 36.3322,
      "duration": 0.096,
      "velocity": 103,
      "chip": "ym2612"
    },
    {
      "channel": 3,
      "note": 64,
      "start": 36.3345,
      "duration": 0.0134,
      "velocity": 127,
      "chip": "ym2612"
    },
    {
      "channel": 4,
      "note": 81,
      "start": 36.3362,
      "duration": 0.0931,
      "velocity": 103,
      "chip": "ym2612"
    },
    {
      "channel": 3,
      "note": 64,
      "start": 36.3979,
      "duration": 0.0149,
      "velocity": 127,
      "chip": "ym2612"
    },
    {
      "channel": 0,
      "note": 74,
      "start": 36.4622,
      "duration": 0.0961,
      "velocity": 103,
      "chip": "ym2612"
    },
    {
      "channel": 3,
      "note": 64,
      "start": 36.4646,
      "duration": 0.0132,
      "velocity": 127,
      "chip": "ym2612"
    },
    {
      "channel": 4,
      "note": 80,
      "start": 36.4663,
      "duration": 0.0929,
      "velocity": 103,
      "chip": "ym2612"
    },
    {
      "channel": 0,
      "note": 73,
      "start": 36.5922,
      "duration": 0.096,
      "velocity": 103,
      "chip": "ym2612"
    },
    {
      "channel": 3,
      "note": 64,
      "start": 36.5946,
      "duration": 0.0132,
      "velocity": 127,
      "chip": "ym2612"
    },
    {
      "channel": 4,
      "note": 78,
      "start": 36.5963,
      "duration": 0.0931,
      "velocity": 103,
      "chip": "ym2612"
    },
    {
      "channel": 0,
      "note": 73,
      "start": 36.7224,
      "duration": 0.0958,
      "velocity": 103,
      "chip": "ym2612"
    },
    {
      "channel": 2,
      "note": 85,
      "start": 36.7241,
      "duration": 0.7446,
      "velocity": 113,
      "chip": "ym2612"
    },
    {
      "channel": 3,
      "note": 64,
      "start": 36.7264,
      "duration": 0.0115,
      "velocity": 127,
      "chip": "ym2612"
    },
    {
      "channel": 4,
      "note": 74,
      "start": 36.728,
      "duration": 0.0913,
      "velocity": 103,
      "chip": "ym2612"
    },
    {
      "channel": 0,
      "note": 81,
      "start": 36.8522,
      "duration": 0.0961,
      "velocity": 103,
      "chip": "ym2612"
    },
    {
      "channel": 3,
      "note": 64,
      "start": 36.8547,
      "duration": 0.0132,
      "velocity": 127,
      "chip": "ym2612"
    },
    {
      "channel": 4,
      "note": 73,
      "start": 36.8563,
      "duration": 0.0929,
      "velocity": 103,
      "chip": "ym2612"
    },
    {
      "channel": 0,
      "note": 80,
      "start": 36.9822,
      "duration": 0.0961,
      "velocity": 103,
      "chip": "ym2612"
    },
    {
      "channel": 3,
      "note": 64,
      "start": 36.9878,
      "duration": 0.0101,
      "velocity": 127,
      "chip": "ym2612"
    },
    {
      "channel": 4,
      "note": 73,
      "start": 36.9897,
      "duration": 0.0897,
      "velocity": 103,
      "chip": "ym2612"
    },
    {
      "channel": 5,
      "note": 85,
      "start": 36.9913,
      "duration": 0.7382,
      "velocity": 113,
      "chip": "ym2612"
    },
    {
      "channel": 0,
      "note": 78,
      "start": 37.1123,
      "duration": 0.0961,
      "velocity": 103,
      "chip": "ym2612"
    },
    {
      "channel": 1,
      "note": 64,
      "start": 37.1139,
      "duration": 0.0946,
      "velocity": 97,
      "chip": "ym2612"
    },
    {
      "channel": 3,
      "note": 64,
      "start": 37.1193,
      "duration": 0.0087,
      "velocity": 127,
      "chip": "ym2612"
    },
    {
      "channel": 4,
      "note": 81,
      "start": 37.121,
      "duration": 0.0884,
      "velocity": 103,
      "chip": "ym2612"
    },
    {
      "channel": 0,
      "note": 74,
      "start": 37.2423,
      "duration": 0.096,
      "velocity": 103,
      "chip": "ym2612"
    },
    {
      "channel": 1,
      "note": 64,
      "start": 37.2439,
      "duration": 0.0946,
      "velocity": 97,
      "chip": "ym2612"
    },
    {
      "channel": 4,
      "note": 80,
      "start": 37.2462,
      "duration": 0.0931,
      "velocity": 103,
      "chip": "ym2612"
    },
    {
      "channel": 0,
      "note": 73,
      "start": 37.3723,
      "duration": 0.096,
      "velocity": 103,
      "chip": "ym2612"
    },
    {
      "channel": 1,
      "note": 64,
      "start": 37.3739,
      "duration": 0.0946,
      "velocity": 97,
      "chip": "ym2612"
    },
    {
      "channel": 4,
      "note": 78,
      "start": 37.3763,
      "duration": 0.0932,
      "velocity": 103,
      "chip": "ym2612"
    },
    {
      "channel": 0,
      "note": 73,
      "start": 37.5025,
      "duration": 0.0959,
      "velocity": 103,
      "chip": "ym2612"
    },
    {
      "channel": 1,
      "note": 66,
      "start": 37.5046,
      "duration": 1.1341,
      "velocity": 97,
      "chip": "ym2612"
    },
    {
      "channel": 2,
      "note": 78,
      "start": 37.5065,
      "duration": 0.7422,
      "velocity": 113,
      "chip": "ym2612"
    },
    {
      "channel": 3,
      "note": 64,
      "start": 37.5119,
      "duration": 0.0068,
      "velocity": 127,
      "chip": "ym2612"
    },
    {
      "channel": 4,
      "note": 74,
      "start": 37.5135,
      "duration": 0.0858,
      "velocity": 103,
      "chip": "ym2612"
    },
    {
      "channel": 0,
      "note": 81,
      "start": 37.6323,
      "duration": 0.0961,
      "velocity": 103,
      "chip": "ym2612"
    },
    {
      "channel": 3,
      "note": 64,
      "start": 37.6378,
      "duration": 0.0101,
      "velocity": 127,
      "chip": "ym2612"
    },
    {
      "channel": 4,
      "note": 73,
      "start": 37.6395,
      "duration": 0.0899,
      "velocity": 103,
      "chip": "ym2612"
    },
    {
      "channel": 0,
      "note": 80,
      "start": 37.7623,
      "duration": 0.0961,
      "velocity": 103,
      "chip": "ym2612"
    },
    {
      "channel": 3,
      "note": 64,
      "start": 37.7646,
      "duration": 0.0134,
      "velocity": 127,
      "chip": "ym2612"
    },
    {
      "channel": 4,
      "note": 73,
      "start": 37.7664,
      "duration": 0.0929,
      "velocity": 103,
      "chip": "ym2612"
    },
    {
      "channel": 5,
      "note": 78,
      "start": 37.7684,
      "duration": 0.7413,
      "velocity": 113,
      "chip": "ym2612"
    },
    {
      "channel": 0,
      "note": 78,
      "start": 37.8924,
      "duration": 0.0961,
      "velocity": 103,
      "chip": "ym2612"
    },
    {
      "channel": 3,
      "note": 64,
      "start": 37.8946,
      "duration": 0.0134,
      "velocity": 127,
      "chip": "ym2612"
    },
    {
      "channel": 4,
      "note": 81,
      "start": 37.8963,
      "duration": 0.0931,
      "velocity": 103,
      "chip": "ym2612"
    },
    {
      "channel": 3,
      "note": 64,
      "start": 37.958,
      "duration": 0.015,
      "velocity": 127,
      "chip": "ym2612"
    },
    {
      "channel": 0,
      "note": 74,
      "start": 38.0226,
      "duration": 0.0958,
      "velocity": 103,
      "chip": "ym2612"
    },
    {
      "channel": 3,
      "note": 64,
      "start": 38.025,
      "duration": 0.013,
      "velocity": 127,
      "chip": "ym2612"
    },
    {
      "channel": 4,
      "note": 80,
      "start": 38.0267,
      "duration": 0.0928,
      "velocity": 103,
      "chip": "ym2612"
    },
    {
      "channel": 0,
      "note": 73,
      "start": 38.1524,
      "duration": 0.096,
      "velocity": 103,
      "chip": "ym2612"
    },
    {
      "channel": 3,
      "note": 64,
      "start": 38.1549,
      "duration": 0.0131,
      "velocity": 127,
      "chip": "ym2612"
    },
    {
      "channel": 4,
      "note": 78,
      "start": 38.1565,
      "duration": 0.0929,
      "velocity": 103,
      "chip": "ym2612"
    },
    {
      "channel": 0,
      "note": 73,
      "start": 38.2829,
      "duration": 0.0955,
      "velocity": 103,
      "chip": "ym2612"
    },
    {
      "channel": 2,
      "note": 85,
      "start": 38.2847,
      "duration": 0.7441,
      "velocity": 113,
      "chip": "ym2612"
    },
    {
      "channel": 3,
      "note": 64,
      "start": 38.2869,
      "duration": 0.0111,
      "velocity": 127,
      "chip": "ym2612"
    },
    {
      "channel": 4,
      "note": 74,
      "start": 38.2886,
      "duration": 0.0908,
      "velocity": 103,
      "chip": "ym2612"
    },
    {
      "channel": 0,
      "note": 81,
      "start": 38.4132,
      "duration": 0.0953,
      "velocity": 103,
      "chip": "ym2612"
    },
    {
      "channel": 3,
      "note": 64,
      "start": 38.4156,
      "duration": 0.0125,
      "velocity": 127,
      "chip": "ym2612"
    },
    {
      "channel": 4,
      "note": 73,
      "start": 38.4172,
      "duration": 0.0922,
      "velocity": 103,
      "chip": "ym2612"
    },
    {
      "channel": 0,
      "note": 80,
      "start": 38.5424,
      "duration": 0.0961,
      "velocity": 103,
      "chip": "ym2612"
    },
    {
      "channel": 3,
      "note": 64,
      "start": 38.548,
      "duration": 0.01,
      "velocity": 127,
      "chip": "ym2612"
    },
    {
      "channel": 4,
      "note": 73,
      "start": 38.5498,
      "duration": 0.0898,
      "velocity": 103,
      "chip": "ym2612"
    },
    {
      "channel": 5,
      "note": 85,
      "start": 38.5515,
      "duration": 0.7382,
      "velocity": 113,
      "chip": "ym2612"
    },
    {
      "channel": 0,
      "note": 78,
      "start": 38.6724,
      "duration": 0.096,
      "velocity": 103,
      "chip": "ym2612"
    },
    {
      "channel": 1,
      "note": 66,
      "start": 38.6741,
      "duration": 0.3546,
      "velocity": 97,
      "chip": "ym2612"
    },
    {
      "channel": 3,
      "note": 64,
      "start": 38.6794,
      "duration": 0.0087,
      "velocity": 127,
      "chip": "ym2612"
    },
    {
      "channel": 4,
      "note": 81,
      "start": 38.6811,
      "duration": 0.0884,
      "velocity": 103,
      "chip": "ym2612"
    },
    {
      "channel": 0,
      "note": 74,
      "start": 38.8025,
      "duration": 0.096,
      "velocity": 103,
      "chip": "ym2612"
    },
    {
      "channel": 4,
      "note": 80,
      "start": 38.8049,
      "duration": 0.0945,
      "velocity": 103,
      "chip": "ym2612"
    },
    {
      "channel": 0,
      "note": 73,
      "start": 38.9324,
      "duration": 0.0961,
      "velocity": 103,
      "chip": "ym2612"
    },
    {
      "channel": 4,
      "note": 78,
      "start": 38.9349,
      "duration": 0.0947,
      "velocity": 103,
      "chip": "ym2612"
    },
    {
      "channel": 0,
      "note": 73,
      "start": 39.0626,
      "duration": 0.0959,
      "velocity": 103,
      "chip": "ym2612"
    },
    {
      "channel": 1,
      "note": 64,
      "start": 39.0645,
      "duration": 1.1343,
      "velocity": 97,
      "chip": "ym2612"
    },
    {
      "channel": 2,
      "note": 76,
      "start": 39.0661,
      "duration": 0.7427,
      "velocity": 113,
      "chip": "ym2612"
    },
    {
      "channel": 3,
      "note": 64,
      "start": 39.0715,
      "duration": 0.0066,
      "velocity": 127,
      "chip": "ym2612"
    },
    {
      "channel": 4,
      "note": 74,
      "start": 39.0732,
      "duration": 0.0863,
      "velocity": 103,
      "chip": "ym2612"
    },
    {
      "channel": 0,
      "note": 81,
      "start": 39.1925,
      "duration": 0.096,
      "velocity": 103,
      "chip": "ym2612"
    },
    {
      "channel": 3,
      "note": 64,
      "start": 39.1979,
      "duration": 0.0102,
      "velocity": 127,
      "chip": "ym2612"
    },
    {
      "channel": 4,
      "note": 73,
      "start": 39.1996,
      "duration": 0.0899,
      "velocity": 103,
      "chip": "ym2612"
    },
    {
      "channel": 0,
      "note": 80,
      "start": 39.3225,
      "duration": 0.096,
      "velocity": 103,
      "chip": "ym2612"
    },
    {
      "channel": 3,
      "note": 64,
      "start": 39.3248,
      "duration": 0.0134,
      "velocity": 127,
      "chip": "ym2612"
    },
    {
      "channel": 4,
      "note": 73,
      "start": 39.3266,
      "duration": 0.0929,
      "velocity": 103,
      "chip": "ym2612"
    },
    {
      "channel": 5,
      "note": 76,
      "start": 39.3283,
      "duration": 0.7415,
      "velocity": 113,
      "chip": "ym2612"
    },
    {
      "channel": 0,
      "note": 78,
      "start": 39.4525,
      "duration": 0.096,
      "velocity": 103,
      "chip": "ym2612"
    },
    {
      "channel": 3,
      "note": 64,
      "start": 39.4548,
      "duration": 0.0136,
      "velocity": 127,
      "chip": "ym2612"
    },
    {
      "channel": 4,
      "note": 81,
      "start": 39.4565,
      "duration": 0.093,
      "velocity": 103,
      "chip": "ym2612"
    },
    {
      "channel": 3,
      "note": 64,
      "start": 39.5182,
      "duration": 0.0154,
      "velocity": 127,
      "chip": "ym2612"
    },
    {
      "channel": 0,
      "note": 74,
      "start": 39.5825,
      "duration": 0.0961,
      "velocity": 103,
      "chip": "ym2612"
    },
    {
      "channel": 3,
      "note": 64,
      "start": 39.5849,
      "duration": 0.0138,
      "velocity": 127,
      "chip": "ym2612"
    },
    {
      "channel": 4,
      "note": 80,
      "start": 39.5866,
      "duration": 0.0929,
      "velocity": 103,
      "chip": "ym2612"
    },
    {
      "channel": 0,
      "note": 73,
      "start": 39.7125,
      "duration": 0.0961,
      "velocity": 103,
      "chip": "ym2612"
    },
    {
      "channel": 3,
      "note": 64,
      "start": 39.7149,
      "duration": 0.0141,
      "velocity": 127,
      "chip": "ym2612"
    },
    {
      "channel": 4,
      "note": 78,
      "start": 39.7166,
      "duration": 0.0931,
      "velocity": 103,
      "chip": "ym2612"
    },
    {
      "channel": 0,
      "note": 73,
      "start": 39.8427,
      "duration": 0.0959,
      "velocity": 103,
      "chip": "ym2612"
    },
    {
      "channel": 2,
      "note": 85,
      "start": 39.8444,
      "duration": 0.7446,
      "velocity": 113,
      "chip": "ym2612"
    },
    {
      "channel": 3,
      "note": 64,
      "start": 39.8467,
      "duration": 0.0115,
      "velocity": 127,
      "chip": "ym2612"
    },
    {
      "channel": 4,
      "note": 74,
      "start": 39.8483,
      "duration": 0.0912,
      "velocity": 103,
      "chip": "ym2612"
    },
    {
      "channel": 0,
      "note": 81,
      "start": 39.9726,
      "duration": 0.096,
      "velocity": 103,
      "chip": "ym2612"
    },
    {
      "channel": 3,
      "note": 64,
      "start": 39.975,
      "duration": 0.0132,
      "velocity": 127,
      "chip": "ym2612"
    },
    {
      "channel": 4,
      "note": 73,
      "start": 39.9767,
      "duration": 0.0929,
      "velocity": 103,
      "chip": "ym2612"
    },
    {
      "channel": 0,
      "note": 80,
      "start": 40.1026,
      "duration": 0.096,
      "velocity": 103,
      "chip": "ym2612"
    },
    {
      "channel": 3,
      "note": 64,
      "start": 40.1082,
      "duration": 0.01,
      "velocity": 127,
      "chip": "ym2612"
    },
    {
      "channel": 4,
      "note": 73,
      "start": 40.11,
      "duration": 0.0897,
      "velocity": 103,
      "chip": "ym2612"
    },
    {
      "channel": 5,
      "note": 85,
      "start": 40.1117,
      "duration": 0.7387,
      "velocity": 113,
      "chip": "ym2612"
    },
    {
      "channel": 0,
      "note": 78,
      "start": 40.2325,
      "duration": 0.0961,
      "velocity": 103,
      "chip": "ym2612"
    },
    {
      "channel": 1,
      "note": 64,
      "start": 40.2342,
      "duration": 0.3546,
      "velocity": 97,
      "chip": "ym2612"
    },
    {
      "channel": 3,
      "note": 64,
      "start": 40.2396,
      "duration": 0.0086,
      "velocity": 127,
      "chip": "ym2612"
    },
    {
      "channel": 4,
      "note": 81,
      "start": 40.2413,
      "duration": 0.0883,
      "velocity": 103,
      "chip": "ym2612"
    },
    {
      "channel": 0,
      "note": 74,
      "start": 40.3626,
      "duration": 0.0961,
      "velocity": 103,
      "chip": "ym2612"
    },
    {
      "channel": 4,
      "note": 80,
      "start": 40.365,
      "duration": 0.0946,
      "velocity": 103,
      "chip": "ym2612"
    },
    {
      "channel": 0,
      "note": 73,
      "start": 40.4926,
      "duration": 0.096,
      "velocity": 103,
      "chip": "ym2612"
    },
    {
      "channel": 4,
      "note": 78,
      "start": 40.495,
      "duration": 0.0948,
      "velocity": 103,
      "chip": "ym2612"
    },
    {
      "channel": 0,
      "note": 73,
      "start": 40.6228,
      "duration": 0.0961,
      "velocity": 103,
      "chip": "ym2612"
    },
    {
      "channel": 1,
      "note": 62,
      "start": 40.6247,
      "duration": 1.1343,
      "velocity": 97,
      "chip": "ym2612"
    },
    {
      "channel": 2,
      "note": 74,
      "start": 40.6263,
      "duration": 0.7427,
      "velocity": 113,
      "chip": "ym2612"
    },
    {
      "channel": 3,
      "note": 64,
      "start": 40.6317,
      "duration": 0.0066,
      "velocity": 127,
      "chip": "ym2612"
    },
    {
      "channel": 4,
      "note": 74,
      "start": 40.6334,
      "duration": 0.0865,
      "velocity": 103,
      "chip": "ym2612"
    },
    {
      "channel": 0,
      "note": 81,
      "start": 40.7526,
      "duration": 0.0966,
      "velocity": 103,
      "chip": "ym2612"
    },
    {
      "channel": 3,
      "note": 64,
      "start": 40.7581,
      "duration": 0.0101,
      "velocity": 127,
      "chip": "ym2612"
    },
    {
      "channel": 4,
      "note": 73,
      "start": 40.7598,
      "duration": 0.0904,
      "velocity": 103,
      "chip": "ym2612"
    },
    {
      "channel": 0,
      "note": 80,
      "start": 40.8826,
      "duration": 0.097,
      "velocity": 103,
      "chip": "ym2612"
    },
    {
      "channel": 3,
      "note": 64,
      "start": 40.8849,
      "duration": 0.0134,
      "velocity": 127,
      "chip": "ym2612"
    },
    {
      "channel": 4,
      "note": 73,
      "start": 40.8867,
      "duration": 0.0938,
      "velocity": 103,
      "chip": "ym2612"
    },
    {
      "channel": 5,
      "note": 74,
      "start": 40.8884,
      "duration": 0.7415,
      "velocity": 113,
      "chip": "ym2612"
    },
    {
      "channel": 0,
      "note": 78,
      "start": 41.0126,
      "duration": 0.096,
      "velocity": 103,
      "chip": "ym2612"
    },
    {
      "channel": 3,
      "note": 64,
      "start": 41.0149,
      "duration": 0.0134,
      "velocity": 127,
      "chip": "ym2612"
    },
    {
      "channel": 4,
      "note": 81,
      "start": 41.0166,
      "duration": 0.0931,
      "velocity": 103,
      "chip": "ym2612"
    },
    {
      "channel": 3,
      "note": 64,
      "start": 41.0783,
      "duration": 0.0149,
      "velocity": 127,
      "chip": "ym2612"
    },
    {
      "channel": 0,
      "note": 74,
      "start": 41.1427,
      "duration": 0.096,
      "velocity": 103,
      "chip": "ym2612"
    },
    {
      "channel": 3,
      "note": 64,
      "start": 41.1451,
      "duration": 0.0132,
      "velocity": 127,
      "chip": "ym2612"
    },
    {
      "channel": 4,
      "note": 80,
      "start": 41.1467,
      "duration": 0.0929,
      "velocity": 103,
      "chip": "ym2612"
    },
    {
      "channel": 0,
      "note": 73,
      "start": 41.2727,
      "duration": 0.0961,
      "velocity": 103,
      "chip": "ym2612"
    },
    {
      "channel": 3,
      "note": 64,
      "start": 41.2751,
      "duration": 0.0132,
      "velocity": 127,
      "chip": "ym2612"
    },
    {
      "channel": 4,
      "note": 78,
      "start": 41.2768,
      "duration": 0.0931,
      "velocity": 103,
      "chip": "ym2612"
    },
    {
      "channel": 0,
      "note": 73,
      "start": 41.4028,
      "duration": 0.0959,
      "velocity": 103,
      "chip": "ym2612"
    },
    {
      "channel": 2,
      "note": 85,
      "start": 41.4046,
      "duration": 0.7445,
      "velocity": 113,
      "chip": "ym2612"
    },
    {
      "channel": 3,
      "note": 64,
      "start": 41.4068,
      "duration": 0.0115,
      "velocity": 127,
      "chip": "ym2612"
    },
    {
      "channel": 4,
      "note": 74,
      "start": 41.4085,
      "duration": 0.0912,
      "velocity": 103,
      "chip": "ym2612"
    },
    {
      "channel": 0,
      "note": 81,
      "start": 41.5327,
      "duration": 0.0961,
      "velocity": 103,
      "chip": "ym2612"
    },
    {
      "channel": 3,
      "note": 64,
      "start": 41.5351,
      "duration": 0.0132,
      "velocity": 127,
      "chip": "ym2612"
    },
    {
      "channel": 4,
      "note": 73,
      "start": 41.5369,
      "duration": 0.0928,
      "velocity": 103,
      "chip": "ym2612"
    },
    {
      "channel": 0,
      "note": 80,
      "start": 41.6627,
      "duration": 0.096,
      "velocity": 103,
      "chip": "ym2612"
    },
    {
      "channel": 3,
      "note": 64,
      "start": 41.6683,
      "duration": 0.01,
      "velocity": 127,
      "chip": "ym2612"
    },
    {
      "channel": 4,
      "note": 73,
      "start": 41.6701,
      "duration": 0.0897,
      "velocity": 103,
      "chip": "ym2612"
    },
    {
      "channel": 5,
      "note": 85,
      "start": 41.6718,
      "duration": 0.7382,
      "velocity": 113,
      "chip": "ym2612"
    },
    {
      "channel": 0,
      "note": 78,
      "start": 41.7927,
      "duration": 0.096,
      "velocity": 103,
      "chip": "ym2612"
    },
    {
      "channel": 1,
      "note": 62,
      "start": 41.7943,
      "duration": 0.3546,
      "velocity": 97,
      "chip": "ym2612"
    },
    {
      "channel": 3,
      "note": 64,
      "start": 41.7997,
      "duration": 0.0086,
      "velocity": 127,
      "chip": "ym2612"
    },
    {
      "channel": 4,
      "note": 81,
      "start": 41.8014,
      "duration": 0.0883,
      "velocity": 103,
      "chip": "ym2612"
    },
    {
      "channel": 0,
      "note": 74,
      "start": 41.9227,
      "duration": 0.0961,
      "velocity": 103,
      "chip": "ym2612"
    },
    {
      "channel": 4,
      "note": 80,
      "start": 41.9252,
      "duration": 0.0946,
      "velocity": 103,
      "chip": "ym2612"
    },
    {
      "channel": 0,
      "note": 73,
      "start": 42.0528,
      "duration": 0.096,
      "velocity": 103,
      "chip": "ym2612"
    },
    {
      "channel": 4,
      "note": 78,
      "start": 42.0552,
      "duration": 0.0947,
      "velocity": 103,
      "chip": "ym2612"
    },
    {
      "channel": 0,
      "note": 73,
      "start": 42.1829,
      "duration": 0.0959,
      "velocity": 103,
      "chip": "ym2612"
    },
    {
      "channel": 1,
      "note": 64,
      "start": 42.1848,
      "duration": 1.1342,
      "velocity": 97,
      "chip": "ym2612"
    },
    {
      "channel": 2,
      "note": 76,
      "start": 42.1865,
      "duration": 0.7427,
      "velocity": 113,
      "chip": "ym2612"
    },
    {
      "channel": 3,
      "note": 64,
      "start": 42.1922,
      "duration": 0.0062,
      "velocity": 127,
      "chip": "ym2612"
    },
    {
      "channel": 4,
      "note": 74,
      "start": 42.1938,
      "duration": 0.0859,
      "velocity": 103,
      "chip": "ym2612"
    },
    {
      "channel": 0,
      "note": 81,
      "start": 42.3128,
      "duration": 0.096,
      "velocity": 103,
      "chip": "ym2612"
    },
    {
      "channel": 3,
      "note": 64,
      "start": 42.3182,
      "duration": 0.0102,
      "velocity": 127,
      "chip": "ym2612"
    },
    {
      "channel": 4,
      "note": 73,
      "start": 42.3199,
      "duration": 0.0899,
      "velocity": 103,
      "chip": "ym2612"
    },
    {
      "channel": 0,
      "note": 80,
      "start": 42.4428,
      "duration": 0.096,
      "velocity": 103,
      "chip": "ym2612"
    },
    {
      "channel": 3,
      "note": 64,
      "start": 42.445,
      "duration": 0.0134,
      "velocity": 127,
      "chip": "ym2612"
    },
    {
      "channel": 4,
      "note": 73,
      "start": 42.4469,
      "duration": 0.0929,
      "velocity": 103,
      "chip": "ym2612"
    },
    {
      "channel": 5,
      "note": 76,
      "start": 42.4485,
      "duration": 0.7415,
      "velocity": 113,
      "chip": "ym2612"
    },
    {
      "channel": 0,
      "note": 78,
      "start": 42.5728,
      "duration": 0.096,
      "velocity": 103,
      "chip": "ym2612"
    },
    {
      "channel": 3,
      "note": 64,
      "start": 42.5782,
      "duration": 0.0102,
      "velocity": 127,
      "chip": "ym2612"
    },
    {
      "channel": 4,
      "note": 81,
      "start": 42.5799,
      "duration": 0.0899,
      "velocity": 103,
      "chip": "ym2612"
    },
    {
      "channel": 0,
      "note": 74,
      "start": 42.7028,
      "duration": 0.0961,
      "velocity": 103,
      "chip": "ym2612"
    },
    {
      "channel": 3,
      "note": 64,
      "start": 42.7083,
      "duration": 0.0102,
      "velocity": 127,
      "chip": "ym2612"
    },
    {
      "channel": 4,
      "note": 80,
      "start": 42.7099,
      "duration": 0.0899,
      "velocity": 103,
      "chip": "ym2612"
    },
    {
      "channel": 0,
      "note": 73,
      "start": 42.8328,
      "duration": 0.096,
      "velocity": 103,
      "chip": "ym2612"
    },
    {
      "channel": 3,
      "note": 64,
      "start": 42.8383,
      "duration": 0.0102,
      "velocity": 127,
      "chip": "ym2612"
    },
    {
      "channel": 4,
      "note": 78,
      "start": 42.8399,
      "duration": 0.09,
      "velocity": 103,
      "chip": "ym2612"
    },
    {
      "channel": 0,
      "note": 73,
      "start": 42.963,
      "duration": 0.0959,
      "velocity": 103,
      "chip": "ym2612"
    },
    {
      "channel": 2,
      "note": 85,
      "start": 42.9647,
      "duration": 0.7446,
      "velocity": 113,
      "chip": "ym2612"
    },
    {
      "channel": 3,
      "note": 64,
      "start": 42.97,
      "duration": 0.0085,
      "velocity": 127,
      "chip": "ym2612"
    },
    {
      "channel": 4,
      "note": 74,
      "start": 42.9717,
      "duration": 0.0882,
      "velocity": 103,
      "chip": "ym2612"
    },
    {
      "channel": 0,
      "note": 81,
      "start": 43.0929,
      "duration": 0.096,
      "velocity": 103,
      "chip": "ym2612"
    },
    {
      "channel": 3,
      "note": 64,
      "start": 43.0985,
      "duration": 0.01,
      "velocity": 127,
      "chip": "ym2612"
    },
    {
      "channel": 4,
      "note": 73,
      "start": 43.1001,
      "duration": 0.0898,
      "velocity": 103,
      "chip": "ym2612"
    },
    {
      "channel": 0,
      "note": 80,
      "start": 43.2231,
      "duration": 0.0957,
      "velocity": 103,
      "chip": "ym2612"
    },
    {
      "channel": 3,
      "note": 71,
      "start": 43.2285,
      "duration": 0.01,
      "velocity": 127,
      "chip": "ym2612"
    },
    {
      "channel": 4,
      "note": 73,
      "start": 43.2304,
      "duration": 0.0896,
      "velocity": 103,
      "chip": "ym2612"
    },
    {
      "channel": 5,
      "note": 85,
      "start": 43.232,
      "duration": 0.7544,
      "velocity": 113,
      "chip": "ym2612"
    },
    {
      "channel": 0,
      "note": 78,
      "start": 43.3534,
      "duration": 0.0955,
      "velocity": 103,
      "chip": "ym2612"
    },
    {
      "channel": 1,
      "note": 64,
      "start": 43.3551,
      "duration": 0.094,
      "velocity": 97,
      "chip": "ym2612"
    },
    {
      "channel": 3,
      "note": 64,
      "start": 43.3606,
      "duration": 0.0079,
      "velocity": 127,
      "chip": "ym2612"
    },
    {
      "channel": 4,
      "note": 81,
      "start": 43.3623,
      "duration": 0.0877,
      "velocity": 103,
      "chip": "ym2612"
    },
    {
      "channel": 0,
      "note": 74,
      "start": 43.4842,
      "duration": 0.0947,
      "velocity": 103,
      "chip": "ym2612"
    },
    {
      "channel": 1,
      "note": 64,
      "start": 43.4858,
      "duration": 0.0933,
      "velocity": 97,
      "chip": "ym2612"
    },
    {
      "channel": 3,
      "note": 71,
      "start": 43.4912,
      "duration": 0.0073,
      "velocity": 127,
      "chip": "ym2612"
    },
    {
      "channel": 4,
      "note": 80,
      "start": 43.4929,
      "duration": 0.0871,
      "velocity": 103,
      "chip": "ym2612"
    },
    {
      "channel": 0,
      "note": 73,
      "start": 43.6129,
      "duration": 0.0961,
      "velocity": 103,
      "chip": "ym2612"
    },
    {
      "channel": 1,
      "note": 64,
      "start": 43.6145,
      "duration": 0.0946,
      "velocity": 97,
      "chip": "ym2612"
    },
    {
      "channel": 3,
      "note": 71,
      "start": 43.6168,
      "duration": 0.0118,
      "velocity": 127,
      "chip": "ym2612"
    },
    {
      "channel": 4,
      "note": 78,
      "start": 43.6185,
      "duration": 0.0916,
      "velocity": 103,
      "chip": "ym2612"
    },
    {
      "channel": 0,
      "note": 66,
      "start": 43.7466,
      "duration": 1.295,
      "velocity": 99,
      "chip": "ym2612"
    },
    {
      "channel": 1,
      "note": 54,
      "start": 43.7487,
      "duration": 0.1066,
      "velocity": 97,
      "chip": "ym2612"
    },
    {
      "channel": 2,
      "note": 61,
      "start": 43.7539,
      "duration": 1.2881,
      "velocity": 99,
      "chip": "ym2612"
    },
    {
      "channel": 3,
      "note": 64,
      "start": 43.7595,
      "duration": 0.0153,
      "velocity": 127,
      "chip": "ym2612"
    },
    {
      "channel": 4,
      "note": 74,
      "start": 43.7612,
      "duration": 0.095,
      "velocity": 103,
      "chip": "ym2612"
    },
    {
      "channel": 1,
      "note": 66,
      "start": 43.8892,
      "duration": 0.0962,
      "velocity": 97,
      "chip": "ym2612"
    },
    {
      "channel": 3,
      "note": 64,
      "start": 43.8946,
      "duration": 0.0103,
      "velocity": 127,
      "chip": "ym2612"
    },
    {
      "channel": 4,
      "note": 73,
      "start": 43.8962,
      "duration": 0.09,
      "velocity": 103,
      "chip": "ym2612"
    },
    {
      "channel": 1,
      "note": 54,
      "start": 44.0193,
      "duration": 0.1123,
      "velocity": 97,
      "chip": "ym2612"
    },
    {
      "channel": 3,
      "note": 64,
      "start": 44.0215,
      "duration": 0.0295,
      "velocity": 127,
      "chip": "ym2612"
    },
    {
      "channel": 4,
      "note": 66,
      "start": 44.0269,
      "duration": 1.2759,
      "velocity": 99,
      "chip": "ym2612"
    },
    {
      "channel": 5,
      "note": 61,
      "start": 44.032,
      "duration": 1.2711,
      "velocity": 99,
      "chip": "ym2612"
    },
    {
      "channel": 1,
      "note": 66,
      "start": 44.1654,
      "duration": 0.0961,
      "velocity": 97,
      "chip": "ym2612"
    },
    {
      "channel": 3,
      "note": 64,
      "start": 44.1708,
      "duration": 0.0103,
      "velocity": 127,
      "chip": "ym2612"
    },
    {
      "channel": 1,
      "note": 54,
      "start": 44.2956,
      "duration": 0.096,
      "velocity": 97,
      "chip": "ym2612"
    },
    {
      "channel": 3,
      "note": 64,
      "start": 44.3009,
      "duration": 0.0102,
      "velocity": 127,
      "chip": "ym2612"
    },
    {
      "channel": 1,
      "note": 66,
      "start": 44.4255,
      "duration": 0.0961,
      "velocity": 97,
      "chip": "ym2612"
    },
    {
      "channel": 3,
      "note": 64,
      "start": 44.4276,
      "duration": 0.0134,
      "velocity": 127,
      "chip": "ym2612"
    },
    {
      "channel": 1,
      "note": 54,
      "start": 44.5557,
      "duration": 0.0959,
      "velocity": 97,
      "chip": "ym2612"
    },
    {
      "channel": 3,
      "note": 64,
      "start": 44.5612,
      "duration": 0.01,
      "velocity": 127,
      "chip": "ym2612"
    },
    {
      "channel": 1,
      "note": 66,
      "start": 44.6855,
      "duration": 0.0961,
      "velocity": 97,
      "chip": "ym2612"
    },
    {
      "channel": 3,
      "note": 64,
      "start": 44.6909,
      "duration": 0.0102,
      "velocity": 127,
      "chip": "ym2612"
    },
    {
      "channel": 1,
      "note": 54,
      "start": 44.8157,
      "duration": 0.0959,
      "velocity": 97,
      "chip": "ym2612"
    },
    {
      "channel": 3,
      "note": 64,
      "start": 44.8178,
      "duration": 0.0133,
      "velocity": 127,
      "chip": "ym2612"
    },
    {
      "channel": 1,
      "note": 66,
      "start": 44.9455,
      "duration": 0.0962,
      "velocity": 97,
      "chip": "ym2612"
    },
    {
      "channel": 3,
      "note": 64,
      "start": 44.9509,
      "duration": 0.0102,
      "velocity": 127,
      "chip": "ym2612"
    },
    {
      "channel": 0,
      "note": 64,
      "start": 45.0756,
      "duration": 0.226,
      "velocity": 99,
      "chip": "ym2612"
    },
    {
      "channel": 1,
      "note": 54,
      "start": 45.0773,
      "duration": 0.0944,
      "velocity": 97,
      "chip": "ym2612"
    },
    {
      "channel": 2,
      "note": 59,
      "start": 45.079,
      "duration": 0.2231,
      "velocity": 99,
      "chip": "ym2612"
    },
    {
      "channel": 3,
      "note": 64,
      "start": 45.0842,
      "duration": 0.007,
      "velocity": 127,
      "chip": "ym2612"
    },
    {
      "channel": 1,
      "note": 66,
      "start": 45.2056,
      "duration": 0.0963,
      "velocity": 97,
      "chip": "ym2612"
    },
    {
      "channel": 3,
      "note": 64,
      "start": 45.2077,
      "duration": 0.0135,
      "velocity": 127,
      "chip": "ym2612"
    },
    {
      "channel": 0,
      "note": 66,
      "start": 45.3356,
      "duration": 1.2823,
      "velocity": 99,
      "chip": "ym2612"
    },
    {
      "channel": 1,
      "note": 50,
      "start": 45.3375,
      "duration": 0.1104,
      "velocity": 97,
      "chip": "ym2612"
    },
    {
      "channel": 2,
      "note": 62,
      "start": 45.3392,
      "duration": 1.2791,
      "velocity": 99,
      "chip": "ym2612"
    },
    {
      "channel": 3,
      "note": 64,
      "start": 45.3446,
      "duration": 0.0229,
      "velocity": 127,
      "chip": "ym2612"
    },
    {
      "channel": 4,
      "note": 64,
      "start": 45.3463,
      "duration": 0.2326,
      "velocity": 99,
      "chip": "ym2612"
    },
    {
      "channel": 5,
      "note": 59,
      "start": 45.3479,
      "duration": 0.2311,
      "velocity": 99,
      "chip": "ym2612"
    },
    {
      "channel": 1,
      "note": 62,
      "start": 45.4819,
      "duration": 0.0961,
      "velocity": 97,
      "chip": "ym2612"
    },
    {
      "channel": 3,
      "note": 64,
      "start": 45.4872,
      "duration": 0.0102,
      "velocity": 127,
      "chip": "ym2612"
    },
    {
      "channel": 1,
      "note": 50,
      "start": 45.612,
      "duration": 0.096,
      "velocity": 97,
      "chip": "ym2612"
    },
    {
      "channel": 3,
      "note": 64,
      "start": 45.6142,
      "duration": 0.0133,
      "velocity": 127,
      "chip": "ym2612"
    },
    {
      "channel": 4,
      "note": 66,
      "start": 45.6158,
      "duration": 1.2634,
      "velocity": 99,
      "chip": "ym2612"
    },
    {
      "channel": 5,
      "note": 62,
      "start": 45.6175,
      "duration": 1.2618,
      "velocity": 99,
      "chip": "ym2612"
    },
    {
      "channel": 1,
      "note": 62,
      "start": 45.7418,
      "duration": 0.0961,
      "velocity": 97,
      "chip": "ym2612"
    },
    {
      "channel": 3,
      "note": 64,
      "start": 45.7473,
      "duration": 0.0103,
      "velocity": 127,
      "chip": "ym2612"
    },
    {
      "channel": 1,
      "note": 50,
      "start": 45.8721,
      "duration": 0.0959,
      "velocity": 97,
      "chip": "ym2612"
    },
    {
      "channel": 3,
      "note": 64,
      "start": 45.8774,
      "duration": 0.0101,
      "velocity": 127,
      "chip": "ym2612"
    },
    {
      "channel": 1,
      "note": 62,
      "start": 46.0019,
      "duration": 0.0961,
      "velocity": 97,
      "chip": "ym2612"
    },
    {
      "channel": 3,
      "note": 64,
      "start": 46.0041,
      "duration": 0.0135,
      "velocity": 127,
      "chip": "ym2612"
    },
    {
      "channel": 1,
      "note": 50,
      "start": 46.132,
      "duration": 0.0959,
      "velocity": 97,
      "chip": "ym2612"
    },
    {
      "channel": 3,
      "note": 64,
      "start": 46.1376,
      "duration": 0.0099,
      "velocity": 127,
      "chip": "ym2612"
    },
    {
      "channel": 1,
      "note": 62,
      "start": 46.2619,
      "duration": 0.0961,
      "velocity": 97,
      "chip": "ym2612"
    },
    {
      "channel": 3,
      "note": 64,
      "start": 46.2672,
      "duration": 0.0103,
      "velocity": 127,
      "chip": "ym2612"
    },
    {
      "channel": 1,
      "note": 50,
      "start": 46.3921,
      "duration": 0.0959,
      "velocity": 97,
      "chip": "ym2612"
    },
    {
      "channel": 3,
      "note": 64,
      "start": 46.3943,
      "duration": 0.0133,
      "velocity": 127,
      "chip": "ym2612"
    },
    {
      "channel": 1,
      "note": 62,
      "start": 46.5219,
      "duration": 0.0962,
      "velocity": 97,
      "chip": "ym2612"
    },
    {
      "channel": 3,
      "note": 64,
      "start": 46.5273,
      "duration": 0.0102,
      "velocity": 127,
      "chip": "ym2612"
    },
    {
      "channel": 0,
      "note": 68,
      "start": 46.652,
      "duration": 0.096,
      "velocity": 99,
      "chip": "ym2612"
    },
    {
      "channel": 1,
      "note": 50,
      "start": 46.6537,
      "duration": 0.0944,
      "velocity": 97,
      "chip": "ym2612"
    },
    {
      "channel": 2,
      "note": 64,
      "start": 46.6554,
      "duration": 0.0929,
      "velocity": 99,
      "chip": "ym2612"
    },
    {
      "channel": 3,
      "note": 64,
      "start": 46.6607,
      "duration": 0.0069,
      "velocity": 127,
      "chip": "ym2612"
    },
    {
      "channel": 0,
      "note": 69,
      "start": 46.782,
      "duration": 0.096,
      "velocity": 99,
      "chip": "ym2612"
    },
    {
      "channel": 1,
      "note": 62,
      "start": 46.7836,
      "duration": 0.0946,
      "velocity": 97,
      "chip": "ym2612"
    },
    {
      "channel": 2,
      "note": 66,
      "start": 46.7852,
      "duration": 0.0932,
      "velocity": 99,
      "chip": "ym2612"
    },
    {
      "channel": 3,
      "note": 64,
      "start": 46.7873,
      "duration": 0.0103,
      "velocity": 127,
      "chip": "ym2612"
    },
    {
      "channel": 0,
      "note": 68,
      "start": 46.9121,
      "duration": 1.2822,
      "velocity": 99,
      "chip": "ym2612"
    },
    {
      "channel": 1,
      "note": 52,
      "start": 46.914,
      "duration": 0.1104,
      "velocity": 97,
      "chip": "ym2612"
    },
    {
      "channel": 2,
      "note": 64,
      "start": 46.9156,
      "duration": 1.2791,
      "velocity": 99,
      "chip": "ym2612"
    },
    {
      "channel": 3,
      "note": 64,
      "start": 46.921,
      "duration": 0.0228,
      "velocity": 127,
      "chip": "ym2612"
    },
    {
      "channel": 4,
      "note": 68,
      "start": 46.9227,
      "duration": 0.1025,
      "velocity": 99,
      "chip": "ym2612"
    },
    {
      "channel": 5,
      "note": 64,
      "start": 46.9244,
      "duration": 0.101,
      "velocity": 99,
      "chip": "ym2612"
    },
    {
      "channel": 1,
      "note": 64,
      "start": 47.0583,
      "duration": 0.0961,
      "velocity": 97,
      "chip": "ym2612"
    },
    {
      "channel": 3,
      "note": 64,
      "start": 47.0636,
      "duration": 0.0102,
      "velocity": 127,
      "chip": "ym2612"
    },
    {
      "channel": 4,
      "note": 69,
      "start": 47.0652,
      "duration": 0.09,
      "velocity": 99,
      "chip": "ym2612"
    },
    {
      "channel": 5,
      "note": 66,
      "start": 47.0669,
      "duration": 0.0886,
      "velocity": 99,
      "chip": "ym2612"
    },
    {
      "channel": 1,
      "note": 52,
      "start": 47.1884,
      "duration": 0.096,
      "velocity": 97,
      "chip": "ym2612"
    },
    {
      "channel": 3,
      "note": 64,
      "start": 47.1906,
      "duration": 0.0133,
      "velocity": 127,
      "chip": "ym2612"
    },
    {
      "channel": 4,
      "note": 68,
      "start": 47.1923,
      "duration": 1.2633,
      "velocity": 99,
      "chip": "ym2612"
    },
    {
      "channel": 5,
      "note": 64,
      "start": 47.1939,
      "duration": 1.2619,
      "velocity": 99,
      "chip": "ym2612"
    },
    {
      "channel": 1,
      "note": 64,
      "start": 47.3182,
      "duration": 0.0961,
      "velocity": 97,
      "chip": "ym2612"
    },
    {
      "channel": 3,
      "note": 64,
      "start": 47.3237,
      "duration": 0.0103,
      "velocity": 127,
      "chip": "ym2612"
    },
    {
      "channel": 1,
      "note": 52,
      "start": 47.4485,
      "duration": 0.0959,
      "velocity": 97,
      "chip": "ym2612"
    },
    {
      "channel": 3,
      "note": 64,
      "start": 47.4538,
      "duration": 0.0101,
      "velocity": 127,
      "chip": "ym2612"
    },
    {
      "channel": 1,
      "note": 64,
      "start": 47.5783,
      "duration": 0.0961,
      "velocity": 97,
      "chip": "ym2612"
    },
    {
      "channel": 3,
      "note": 64,
      "start": 47.5805,
      "duration": 0.0135,
      "velocity": 127,
      "chip": "ym2612"
    },
    {
      "channel": 1,
      "note": 52,
      "start": 47.7084,
      "duration": 0.096,
      "velocity": 97,
      "chip": "ym2612"
    },
    {
      "channel": 3,
      "note": 64,
      "start": 47.7139,
      "duration": 0.01,
      "velocity": 127,
      "chip": "ym2612"
    },
    {
      "channel": 1,
      "note": 64,
      "start": 47.8383,
      "duration": 0.0961,
      "velocity": 97,
      "chip": "ym2612"
    },
    {
      "channel": 3,
      "note": 64,
      "start": 47.8437,
      "duration": 0.0102,
      "velocity": 127,
      "chip": "ym2612"
    },
    {
      "channel": 1,
      "note": 52,
      "start": 47.9684,
      "duration": 0.096,
      "velocity": 97,
      "chip": "ym2612"
    },
    {
      "channel": 3,
      "note": 64,
      "start": 47.9707,
      "duration": 0.0133,
      "velocity": 127,
      "chip": "ym2612"
    },
    {
      "channel": 1,
      "note": 64,
      "start": 48.0983,
      "duration": 0.0963,
      "velocity": 97,
      "chip": "ym2612"
    },
    {
      "channel": 3,
      "note": 64,
      "start": 48.1037,
      "duration": 0.0102,
      "velocity": 127,
      "chip": "ym2612"
    },
    {
      "channel": 0,
      "note": 66,
      "start": 48.2286,
      "duration": 0.0957,
      "velocity": 99,
      "chip": "ym2612"
    },
    {
      "channel": 1,
      "note": 52,
      "start": 48.2303,
      "duration": 0.0942,
      "velocity": 97,
      "chip": "ym2612"
    },
    {
      "channel": 2,
      "note": 62,
      "start": 48.232,
      "duration": 0.0927,
      "velocity": 99,
      "chip": "ym2612"
    },
    {
      "channel": 3,
      "note": 64,
      "start": 48.2373,
      "duration": 0.0067,
      "velocity": 127,
      "chip": "ym2612"
    },
    {
      "channel": 0,
      "note": 64,
      "start": 48.359,
      "duration": 0.0955,
      "velocity": 99,
      "chip": "ym2612"
    },
    {
      "channel": 1,
      "note": 64,
      "start": 48.3605,
      "duration": 0.0941,
      "velocity": 97,
      "chip": "ym2612"
    },
    {
      "channel": 2,
      "note": 61,
      "start": 48.3622,
      "duration": 0.0926,
      "velocity": 99,
      "chip": "ym2612"
    },
    {
      "channel": 3,
      "note": 64,
      "start": 48.3642,
      "duration": 0.0097,
      "velocity": 127,
      "chip": "ym2612"
    },
    {
      "channel": 0,
      "note": 64,
      "start": 48.4893,
      "duration": 1.5415,
      "velocity": 99,
      "chip": "ym2612"
    },
    {
      "channel": 1,
      "note": 49,
      "start": 48.4912,
      "duration": 0.1095,
      "velocity": 97,
      "chip": "ym2612"
    },
    {
      "channel": 2,
      "note": 61,
      "start": 48.4929,
      "duration": 1.5383,
      "velocity": 99,
      "chip": "ym2612"
    },
    {
      "channel": 3,
      "note": 64,
      "start": 48.4983,
      "duration": 0.022,
      "velocity": 127,
      "chip": "ym2612"
    },
    {
      "channel": 4,
      "note": 66,
      "start": 48.4999,
      "duration": 0.1017,
      "velocity": 99,
      "chip": "ym2612"
    },
    {
      "channel": 5,
      "note": 62,
      "start": 48.5016,
      "duration": 0.1002,
      "velocity": 99,
      "chip": "ym2612"
    },
    {
      "channel": 1,
      "note": 61,
      "start": 48.6346,
      "duration": 0.0962,
      "velocity": 97,
      "chip": "ym2612"
    },
    {
      "channel": 3,
      "note": 64,
      "start": 48.64,
      "duration": 0.0102,
      "velocity": 127,
      "chip": "ym2612"
    },
    {
      "channel": 4,
      "note": 64,
      "start": 48.6417,
      "duration": 0.09,
      "velocity": 99,
      "chip": "ym2612"
    },
    {
      "channel": 5,
      "note": 61,
      "start": 48.6433,
      "duration": 0.0885,
      "velocity": 99,
      "chip": "ym2612"
    },
    {
      "channel": 1,
      "note": 49,
      "start": 48.7648,
      "duration": 0.0959,
      "velocity": 97,
      "chip": "ym2612"
    },
    {
      "channel": 3,
      "note": 64,
      "start": 48.767,
      "duration": 0.0133,
      "velocity": 127,
      "chip": "ym2612"
    },
    {
      "channel": 4,
      "note": 64,
      "start": 48.7686,
      "duration": 1.5232,
      "velocity": 99,
      "chip": "ym2612"
    },
    {
      "channel": 5,
      "note": 61,
      "start": 48.7703,
      "duration": 1.5217,
      "velocity": 99,
      "chip": "ym2612"
    },
    {
      "channel": 1,
      "note": 61,
      "start": 48.8946,
      "duration": 0.0961,
      "velocity": 97,
      "chip": "ym2612"
    },
    {
      "channel": 3,
      "note": 64,
      "start": 48.9,
      "duration": 0.0103,
      "velocity": 127,
      "chip": "ym2612"
    },
    {
      "channel": 1,
      "note": 49,
      "start": 49.0249,
      "duration": 0.0959,
      "velocity": 97,
      "chip": "ym2612"
    },
    {
      "channel": 3,
      "note": 64,
      "start": 49.0302,
      "duration": 0.0101,
      "velocity": 127,
      "chip": "ym2612"
    },
    {
      "channel": 1,
      "note": 61,
      "start": 49.1547,
      "duration": 0.0961,
      "velocity": 97,
      "chip": "ym2612"
    },
    {
      "channel": 3,
      "note": 64,
      "start": 49.1568,
      "duration": 0.0135,
      "velocity": 127,
      "chip": "ym2612"
    },
    {
      "channel": 1,
      "note": 49,
      "start": 49.2864,
      "duration": 0.0949,
      "velocity": 97,
      "chip": "ym2612"
    },
    {
      "channel": 3,
      "note": 64,
      "start": 49.2919,
      "duration": 0.0088,
      "velocity": 127,
      "chip": "ym2612"
    },
    {
      "channel": 1,
      "note": 61,
      "start": 49.4152,
      "duration": 0.0956,
      "velocity": 97,
      "chip": "ym2612"
    },
    {
      "channel": 3,
      "note": 64,
      "start": 49.4205,
      "duration": 0.0102,
      "velocity": 127,
      "chip": "ym2612"
    },
    {
      "channel": 1,
      "note": 49,
      "start": 49.5453,
      "duration": 0.0955,
      "velocity": 97,
      "chip": "ym2612"
    },
    {
      "channel": 3,
      "note": 64,
      "start": 49.5474,
      "duration": 0.0129,
      "velocity": 127,
      "chip": "ym2612"
    },
    {
      "channel": 1,
      "note": 61,
      "start": 49.6754,
      "duration": 0.0954,
      "velocity": 97,
      "chip": "ym2612"
    },
    {
      "channel": 3,
      "note": 64,
      "start": 49.6808,
      "duration": 0.0095,
      "velocity": 127,
      "chip": "ym2612"
    },
    {
      "channel": 1,
      "note": 49,
      "start": 49.8049,
      "duration": 0.096,
      "velocity": 97,
      "chip": "ym2612"
    },
    {
      "channel": 3,
      "note": 64,
      "start": 49.8102,
      "duration": 0.0102,
      "velocity": 127,
      "chip": "ym2612"
    },
    {
      "channel": 1,
      "note": 61,
      "start": 49.9347,
      "duration": 0.0962,
      "velocity": 97,
      "chip": "ym2612"
    },
    {
      "channel": 3,
      "note": 64,
      "start": 49.9369,
      "duration": 0.0135,
      "velocity": 127,
      "chip": "ym2612"
    },
    {
      "channel": 0,
      "note": 62,
      "start": 50.0648,
      "duration": 1.2661,
      "velocity": 99,
      "chip": "ym2612"
    },
    {
      "channel": 1,
      "note": 50,
      "start": 50.0667,
      "duration": 0.0942,
      "velocity": 97,
      "chip": "ym2612"
    },
    {
      "channel": 2,
      "note": 57,
      "start": 50.0684,
      "duration": 1.2629,
      "velocity": 99,
      "chip": "ym2612"
    },
    {
      "channel": 3,
      "note": 64,
      "start": 50.0738,
      "duration": 0.0066,
      "velocity": 127,
      "chip": "ym2612"
    },
    {
      "channel": 1,
      "note": 62,
      "start": 50.1948,
      "duration": 0.0961,
      "velocity": 97,
      "chip": "ym2612"
    },
    {
      "channel": 3,
      "note": 64,
      "start": 50.2002,
      "duration": 0.0102,
      "velocity": 127,
      "chip": "ym2612"
    },
    {
      "channel": 1,
      "note": 50,
      "start": 50.325,
      "duration": 0.096,
      "velocity": 97,
      "chip": "ym2612"
    },
    {
      "channel": 3,
      "note": 64,
      "start": 50.3271,
      "duration": 0.0133,
      "velocity": 127,
      "chip": "ym2612"
    },
    {
      "channel": 4,
      "note": 62,
      "start": 50.3288,
      "duration": 1.2633,
      "velocity": 99,
      "chip": "ym2612"
    },
    {
      "channel": 5,
      "note": 57,
      "start": 50.3305,
      "duration": 1.2618,
      "velocity": 99,
      "chip": "ym2612"
    },
    {
      "channel": 1,
      "note": 62,
      "start": 50.4548,
      "duration": 0.0961,
      "velocity": 97,
      "chip": "ym2612"
    },
    {
      "channel": 3,
      "note": 64,
      "start": 50.4602,
      "duration": 0.0103,
      "velocity": 127,
      "chip": "ym2612"
    },
    {
      "channel": 1,
      "note": 50,
      "start": 50.585,
      "duration": 0.0959,
      "velocity": 97,
      "chip": "ym2612"
    },
    {
      "channel": 3,
      "note": 64,
      "start": 50.5904,
      "duration": 0.01,
      "velocity": 127,
      "chip": "ym2612"
    },
    {
      "channel": 1,
      "note": 62,
      "start": 50.7148,
      "duration": 0.0961,
      "velocity": 97,
      "chip": "ym2612"
    },
    {
      "channel": 3,
      "note": 64,
      "start": 50.717,
      "duration": 0.0137,
      "velocity": 127,
      "chip": "ym2612"
    },
    {
      "channel": 1,
      "note": 50,
      "start": 50.845,
      "duration": 0.096,
      "velocity": 97,
      "chip": "ym2612"
    },
    {
      "channel": 3,
      "note": 64,
      "start": 50.8505,
      "duration": 0.0105,
      "velocity": 127,
      "chip": "ym2612"
    },
    {
      "channel": 1,
      "note": 62,
      "start": 50.9749,
      "duration": 0.0961,
      "velocity": 97,
      "chip": "ym2612"
    },
    {
      "channel": 3,
      "note": 64,
      "start": 50.9802,
      "duration": 0.0112,
      "velocity": 127,
      "chip": "ym2612"
    },
    {
      "channel": 1,
      "note": 50,
      "start": 51.1051,
      "duration": 0.0959,
      "velocity": 97,
      "chip": "ym2612"
    },
    {
      "channel": 3,
      "note": 64,
      "start": 51.1072,
      "duration": 0.0132,
      "velocity": 127,
      "chip": "ym2612"
    },
    {
      "channel": 1,
      "note": 62,
      "start": 51.2348,
      "duration": 0.0963,
      "velocity": 97,
      "chip": "ym2612"
    },
    {
      "channel": 3,
      "note": 64,
      "start": 51.2402,
      "duration": 0.0102,
      "velocity": 127,
      "chip": "ym2612"
    },
    {
      "channel": 0,
      "note": 62,
      "start": 51.3649,
      "duration": 0.096,
      "velocity": 99,
      "chip": "ym2612"
    },
    {
      "channel": 1,
      "note": 50,
      "start": 51.3666,
      "duration": 0.0945,
      "velocity": 97,
      "chip": "ym2612"
    },
    {
      "channel": 2,
      "note": 59,
      "start": 51.3684,
      "duration": 0.0929,
      "velocity": 99,
      "chip": "ym2612"
    },
    {
      "channel": 3,
      "note": 64,
      "start": 51.3736,
      "duration": 0.0069,
      "velocity": 127,
      "chip": "ym2612"
    },
    {
      "channel": 0,
      "note": 64,
      "start": 51.4949,
      "duration": 0.096,
      "velocity": 99,
      "chip": "ym2612"
    },
    {
      "channel": 1,
      "note": 62,
      "start": 51.4965,
      "duration": 0.0946,
      "velocity": 97,
      "chip": "ym2612"
    },
    {
      "channel": 2,
      "note": 61,
      "start": 51.4981,
      "duration": 0.0932,
      "velocity": 99,
      "chip": "ym2612"
    },
    {
      "channel": 3,
      "note": 64,
      "start": 51.5002,
      "duration": 0.0104,
      "velocity": 127,
      "chip": "ym2612"
    },
    {
      "channel": 0,
      "note": 66,
      "start": 51.625,
      "duration": 1.1523,
      "velocity": 99,
      "chip": "ym2612"
    },
    {
      "channel": 1,
      "note": 47,
      "start": 51.6269,
      "duration": 0.1104,
      "velocity": 97,
      "chip": "ym2612"
    },
    {
      "channel": 2,
      "note": 62,
      "start": 51.6285,
      "duration": 1.1491,
      "velocity": 99,
      "chip": "ym2612"
    },
    {
      "channel": 3,
      "note": 64,
      "start": 51.6339,
      "duration": 0.0228,
      "velocity": 127,
      "chip": "ym2612"
    },
    {
      "channel": 4,
      "note": 62,
      "start": 51.6356,
      "duration": 0.1026,
      "velocity": 99,
      "chip": "ym2612"
    },
    {
      "channel": 5,
      "note": 59,
      "start": 51.6373,
      "duration": 0.1011,
      "velocity": 99,
      "chip": "ym2612"
    },
    {
      "channel": 1,
      "note": 59,
      "start": 51.7712,
      "duration": 0.0961,
      "velocity": 97,
      "chip": "ym2612"
    },
    {
      "channel": 3,
      "note": 64,
      "start": 51.7766,
      "duration": 0.0102,
      "velocity": 127,
      "chip": "ym2612"
    },
    {
      "channel": 4,
      "note": 64,
      "start": 51.7782,
      "duration": 0.09,
      "velocity": 99,
      "chip": "ym2612"
    },
    {
      "channel": 5,
      "note": 61,
      "start": 51.7799,
      "duration": 0.0885,
      "velocity": 99,
      "chip": "ym2612"
    },
    {
      "channel": 1,
      "note": 47,
      "start": 51.9014,
      "duration": 0.0959,
      "velocity": 97,
      "chip": "ym2612"
    },
    {
      "channel": 3,
      "note": 64,
      "start": 51.9035,
      "duration": 0.0134,
      "velocity": 127,
      "chip": "ym2612"
    },
    {
      "channel": 4,
      "note": 66,
      "start": 51.9053,
      "duration": 1.1333,
      "velocity": 99,
      "chip": "ym2612"
    },
    {
      "channel": 5,
      "note": 62,
      "start": 51.9069,
      "duration": 1.1319,
      "velocity": 99,
      "chip": "ym2612"
    },
    {
      "channel": 1,
      "note": 59,
      "start": 52.0312,
      "duration": 0.0961,
      "velocity": 97,
      "chip": "ym2612"
    },
    {
      "channel": 3,
      "note": 64,
      "start": 52.0366,
      "duration": 0.0107,
      "velocity": 127,
      "chip": "ym2612"
    },
    {
      "channel": 1,
      "note": 47,
      "start": 52.1614,
      "duration": 0.0959,
      "velocity": 97,
      "chip": "ym2612"
    },
    {
      "channel": 3,
      "note": 64,
      "start": 52.1667,
      "duration": 0.0108,
      "velocity": 127,
      "chip": "ym2612"
    },
    {
      "channel": 1,
      "note": 59,
      "start": 52.2912,
      "duration": 0.0961,
      "velocity": 97,
      "chip": "ym2612"
    },
    {
      "channel": 3,
      "note": 64,
      "start": 52.2934,
      "duration": 0.0135,
      "velocity": 127,
      "chip": "ym2612"
    },
    {
      "channel": 1,
      "note": 47,
      "start": 52.4214,
      "duration": 0.0959,
      "velocity": 97,
      "chip": "ym2612"
    },
    {
      "channel": 3,
      "note": 64,
      "start": 52.427,
      "duration": 0.0099,
      "velocity": 127,
      "chip": "ym2612"
    },
    {
      "channel": 1,
      "note": 59,
      "start": 52.5512,
      "duration": 0.0961,
      "velocity": 97,
      "chip": "ym2612"
    },
    {
      "channel": 3,
      "note": 64,
      "start": 52.5566,
      "duration": 0.0102,
      "velocity": 127,
      "chip": "ym2612"
    },
    {
      "channel": 1,
      "note": 47,
      "start": 52.6814,
      "duration": 0.0961,
      "velocity": 97,
      "chip": "ym2612"
    },
    {
      "channel": 3,
      "note": 64,
      "start": 52.6836,
      "duration": 0.0133,
      "velocity": 127,
      "chip": "ym2612"
    },
    {
      "channel": 0,
      "note": 68,
      "start": 52.8113,
      "duration": 0.096,
      "velocity": 99,
      "chip": "ym2612"
    },
    {
      "channel": 1,
      "note": 59,
      "start": 52.8129,
      "duration": 0.0946,
      "velocity": 97,
      "chip": "ym2612"
    },
    {
      "channel": 2,
      "note": 64,
      "start": 52.8146,
      "duration": 0.0932,
      "velocity": 99,
      "chip": "ym2612"
    },
    {
      "channel": 3,
      "note": 64,
      "start": 52.8198,
      "duration": 0.0071,
      "velocity": 127,
      "chip": "ym2612"
    },
    {
      "channel": 0,
      "note": 69,
      "start": 52.9413,
      "duration": 0.096,
      "velocity": 99,
      "chip": "ym2612"
    },
    {
      "channel": 1,
      "note": 47,
      "start": 52.943,
      "duration": 0.0945,
      "velocity": 97,
      "chip": "ym2612"
    },
    {
      "channel": 2,
      "note": 66,
      "start": 52.9447,
      "duration": 0.0931,
      "velocity": 99,
      "chip": "ym2612"
    },
    {
      "channel": 3,
      "note": 64,
      "start": 52.9499,
      "duration": 0.007,
      "velocity": 127,
      "chip": "ym2612"
    },
    {
      "channel": 0,
      "note": 71,
      "start": 53.0714,
      "duration": 0.0961,
      "velocity": 99,
      "chip": "ym2612"
    },
    {
      "channel": 1,
      "note": 59,
      "start": 53.0729,
      "duration": 0.0946,
      "velocity": 97,
      "chip": "ym2612"
    },
    {
      "channel": 2,
      "note": 68,
      "start": 53.0746,
      "duration": 0.0932,
      "velocity": 99,
      "chip": "ym2612"
    },
    {
      "channel": 3,
      "note": 64,
      "start": 53.0766,
      "duration": 0.0103,
      "velocity": 127,
      "chip": "ym2612"
    },
    {
      "channel": 4,
      "note": 68,
      "start": 53.0783,
      "duration": 0.0902,
      "velocity": 99,
      "chip": "ym2612"
    },
    {
      "channel": 5,
      "note": 64,
      "start": 53.08,
      "duration": 0.0888,
      "velocity": 99,
      "chip": "ym2612"
    },
    {
      "channel": 0,
      "note": 69,
      "start": 53.2014,
      "duration": 3.1025,
      "velocity": 99,
      "chip": "ym2612"
    },
    {
      "channel": 1,
      "note": 49,
      "start": 53.2033,
      "duration": 0.1104,
      "velocity": 97,
      "chip": "ym2612"
    },
    {
      "channel": 2,
      "note": 85,
      "start": 53.2085,
      "duration": 0.1054,
      "velocity": 107,
      "chip": "ym2612"
    },
    {
      "channel": 3,
      "note": 64,
      "start": 53.2139,
      "duration": 0.0195,
      "velocity": 127,
      "chip": "ym2612"
    },
    {
      "channel": 4,
      "note": 69,
      "start": 53.2156,
      "duration": 0.0991,
      "velocity": 99,
      "chip": "ym2612"
    },
    {
      "channel": 5,
      "note": 66,
      "start": 53.2172,
      "duration": 0.0977,
      "velocity": 99,
      "chip": "ym2612"
    },
    {
      "channel": 1,
      "note": 61,
      "start": 53.3476,
      "duration": 0.0962,
      "velocity": 97,
      "chip": "ym2612"
    },
    {
      "channel": 2,
      "note": 83,
      "start": 53.3492,
      "duration": 0.0947,
      "velocity": 107,
      "chip": "ym2612"
    },
    {
      "channel": 3,
      "note": 64,
      "start": 53.3545,
      "duration": 0.0093,
      "velocity": 127,
      "chip": "ym2612"
    },
    {
      "channel": 4,
      "note": 71,
      "start": 53.3562,
      "duration": 0.0885,
      "velocity": 99,
      "chip": "ym2612"
    },
    {
      "channel": 5,
      "note": 68,
      "start": 53.3579,
      "duration": 0.087,
      "velocity": 99,
      "chip": "ym2612"
    },
    {
      "channel": 1,
      "note": 49,
      "start": 53.4778,
      "duration": 0.0959,
      "velocity": 97,
      "chip": "ym2612"
    },
    {
      "channel": 2,
      "note": 85,
      "start": 53.4794,
      "duration": 0.0945,
      "velocity": 107,
      "chip": "ym2612"
    },
    {
      "channel": 3,
      "note": 64,
      "start": 53.4815,
      "duration": 0.0127,
      "velocity": 127,
      "chip": "ym2612"
    },
    {
      "channel": 4,
      "note": 69,
      "start": 53.4832,
      "duration": 3.098,
      "velocity": 99,
      "chip": "ym2612"
    },
    {
      "channel": 5,
      "note": 85,
      "start": 53.4885,
      "duration": 0.0863,
      "velocity": 107,
      "chip": "ym2612"
    },
    {
      "channel": 1,
      "note": 61,
      "start": 53.6076,
      "duration": 0.0961,
      "velocity": 97,
      "chip": "ym2612"
    },
    {
      "channel": 2,
      "note": 83,
      "start": 53.6093,
      "duration": 0.0946,
      "velocity": 107,
      "chip": "ym2612"
    },
    {
      "channel": 3,
      "note": 64,
      "start": 53.6145,
      "duration": 0.0088,
      "velocity": 127,
      "chip": "ym2612"
    },
    {
      "channel": 5,
      "note": 83,
      "start": 53.6163,
      "duration": 0.0885,
      "velocity": 107,
      "chip": "ym2612"
    },
    {
      "channel": 1,
      "note": 49,
      "start": 53.7378,
      "duration": 0.0959,
      "velocity": 97,
      "chip": "ym2612"
    },
    {
      "channel": 2,
      "note": 81,
      "start": 53.7394,
      "duration": 0.0945,
      "velocity": 107,
      "chip": "ym2612"
    },
    {
      "channel": 3,
      "note": 64,
      "start": 53.7447,
      "duration": 0.0085,
      "velocity": 127,
      "chip": "ym2612"
    },
    {
      "channel": 5,
      "note": 85,
      "start": 53.7465,
      "duration": 0.0883,
      "velocity": 107,
      "chip": "ym2612"
    },
    {
      "channel": 1,
      "note": 61,
      "start": 53.8676,
      "duration": 0.0962,
      "velocity": 97,
      "chip": "ym2612"
    },
    {
      "channel": 2,
      "note": 83,
      "start": 53.8693,
      "duration": 0.0946,
      "velocity": 107,
      "chip": "ym2612"
    },
    {
      "channel": 3,
      "note": 64,
      "start": 53.8714,
      "duration": 0.0119,
      "velocity": 127,
      "chip": "ym2612"
    },
    {
      "channel": 5,
      "note": 83,
      "start": 53.8731,
      "duration": 0.0917,
      "velocity": 107,
      "chip": "ym2612"
    },
    {
      "channel": 1,
      "note": 49,
      "start": 53.9978,
      "duration": 0.0959,
      "velocity": 97,
      "chip": "ym2612"
    },
    {
      "channel": 2,
      "note": 81,
      "start": 53.9995,
      "duration": 0.0945,
      "velocity": 107,
      "chip": "ym2612"
    },
    {
      "channel": 3,
      "note": 64,
      "start": 54.0049,
      "duration": 0.0084,
      "velocity": 127,
      "chip": "ym2612"
    },
    {
      "channel": 5,
      "note": 81,
      "start": 54.0067,
      "duration": 0.0882,
      "velocity": 107,
      "chip": "ym2612"
    },
    {
      "channel": 1,
      "note": 61,
      "start": 54.1276,
      "duration": 0.0961,
      "velocity": 97,
      "chip": "ym2612"
    },
    {
      "channel": 2,
      "note": 80,
      "start": 54.1293,
      "duration": 0.0947,
      "velocity": 107,
      "chip": "ym2612"
    },
    {
      "channel": 3,
      "note": 64,
      "start": 54.1345,
      "duration": 0.0087,
      "velocity": 127,
      "chip": "ym2612"
    },
    {
      "channel": 5,
      "note": 83,
      "start": 54.1363,
      "duration": 0.0885,
      "velocity": 107,
      "chip": "ym2612"
    },
    {
      "channel": 1,
      "note": 49,
      "start": 54.2578,
      "duration": 0.096,
      "velocity": 97,
      "chip": "ym2612"
    },
    {
      "channel": 2,
      "note": 81,
      "start": 54.2595,
      "duration": 0.0945,
      "velocity": 107,
      "chip": "ym2612"
    },
    {
      "channel": 3,
      "note": 64,
      "start": 54.2615,
      "duration": 0.0118,
      "velocity": 127,
      "chip": "ym2612"
    },
    {
      "channel": 5,
      "note": 81,
      "start": 54.2633,
      "duration": 0.0916,
      "velocity": 107,
      "chip": "ym2612"
    },
    {
      "channel": 1,
      "note": 61,
      "start": 54.3877,
      "duration": 0.0963,
      "velocity": 97,
      "chip": "ym2612"
    },
    {
      "channel": 2,
      "note": 80,
      "start": 54.3894,
      "duration": 0.0948,
      "velocity": 107,
      "chip": "ym2612"
    },
    {
      "channel": 3,
      "note": 64,
      "start": 54.3946,
      "duration": 0.0087,
      "velocity": 127,
      "chip": "ym2612"
    },
    {
      "channel": 5,
      "note": 80,
      "start": 54.3964,
      "duration": 0.0887,
      "velocity": 107,
      "chip": "ym2612"
    },
    {
      "channel": 1,
      "note": 49,
      "start": 54.5178,
      "duration": 0.0965,
      "velocity": 97,
      "chip": "ym2612"
    },
    {
      "channel": 2,
      "note": 78,
      "start": 54.5195,
      "duration": 0.0951,
      "velocity": 107,
      "chip": "ym2612"
    },
    {
      "channel": 3,
      "note": 64,
      "start": 54.5248,
      "duration": 0.0085,
      "velocity": 127,
      "chip": "ym2612"
    },
    {
      "channel": 5,
      "note": 81,
      "start": 54.5266,
      "duration": 0.0889,
      "velocity": 107,
      "chip": "ym2612"
    },
    {
      "channel": 1,
      "note": 61,
      "start": 54.6477,
      "duration": 0.097,
      "velocity": 97,
      "chip": "ym2612"
    },
    {
      "channel": 2,
      "note": 80,
      "start": 54.6493,
      "duration": 0.0956,
      "velocity": 107,
      "chip": "ym2612"
    },
    {
      "channel": 3,
      "note": 64,
      "start": 54.6514,
      "duration": 0.012,
      "velocity": 127,
      "chip": "ym2612"
    },
    {
      "channel": 5,
      "note": 80,
      "start": 54.6532,
      "duration": 0.0926,
      "velocity": 107,
      "chip": "ym2612"
    },
    {
      "channel": 1,
      "note": 49,
      "start": 54.7794,
      "duration": 0.0945,
      "velocity": 97,
      "chip": "ym2612"
    },
    {
      "channel": 2,
      "note": 85,
      "start": 54.7812,
      "duration": 0.0929,
      "velocity": 107,
      "chip": "ym2612"
    },
    {
      "channel": 3,
      "note": 64,
      "start": 54.7868,
      "duration": 0.0071,
      "velocity": 127,
      "chip": "ym2612"
    },
    {
      "channel": 5,
      "note": 78,
      "start": 54.7887,
      "duration": 0.0863,
      "velocity": 107,
      "chip": "ym2612"
    },
    {
      "channel": 1,
      "note": 61,
      "start": 54.9077,
      "duration": 0.0962,
      "velocity": 97,
      "chip": "ym2612"
    },
    {
      "channel": 2,
      "note": 83,
      "start": 54.9094,
      "duration": 0.0947,
      "velocity": 107,
      "chip": "ym2612"
    },
    {
      "channel": 3,
      "note": 64,
      "start": 54.9146,
      "duration": 0.0087,
      "velocity": 127,
      "chip": "ym2612"
    },
    {
      "channel": 5,
      "note": 80,
      "start": 54.9164,
      "duration": 0.0886,
      "velocity": 107,
      "chip": "ym2612"
    },
    {
      "channel": 1,
      "note": 49,
      "start": 55.0379,
      "duration": 0.0959,
      "velocity": 97,
      "chip": "ym2612"
    },
    {
      "channel": 2,
      "note": 85,
      "start": 55.0395,
      "duration": 0.0945,
      "velocity": 107,
      "chip": "ym2612"
    },
    {
      "channel": 3,
      "note": 64,
      "start": 55.0416,
      "duration": 0.0118,
      "velocity": 127,
      "chip": "ym2612"
    },
    {
      "channel": 5,
      "note": 85,
      "start": 55.0451,
      "duration": 0.0899,
      "velocity": 107,
      "chip": "ym2612"
    },
    {
      "channel": 1,
      "note": 61,
      "start": 55.1677,
      "duration": 0.0961,
      "velocity": 97,
      "chip": "ym2612"
    },
    {
      "channel": 2,
      "note": 83,
      "start": 55.1694,
      "duration": 0.0947,
      "velocity": 107,
      "chip": "ym2612"
    },
    {
      "channel": 3,
      "note": 64,
      "start": 55.1747,
      "duration": 0.0087,
      "velocity": 127,
      "chip": "ym2612"
    },
    {
      "channel": 5,
      "note": 83,
      "start": 55.1765,
      "duration": 0.0885,
      "velocity": 107,
      "chip": "ym2612"
    },
    {
      "channel": 1,
      "note": 49,
      "start": 55.2979,
      "duration": 0.096,
      "velocity": 97,
      "chip": "ym2612"
    },
    {
      "channel": 2,
      "note": 81,
      "start": 55.2995,
      "duration": 0.0946,
      "velocity": 107,
      "chip": "ym2612"
    },
    {
      "channel": 3,
      "note": 64,
      "start": 55.3048,
      "duration": 0.0086,
      "velocity": 127,
      "chip": "ym2612"
    },
    {
      "channel": 5,
      "note": 85,
      "start": 55.3066,
      "duration": 0.0884,
      "velocity": 107,
      "chip": "ym2612"
    },
    {
      "channel": 1,
      "note": 61,
      "start": 55.4278,
      "duration": 0.0961,
      "velocity": 97,
      "chip": "ym2612"
    },
    {
      "channel": 2,
      "note": 83,
      "start": 55.4294,
      "duration": 0.0946,
      "velocity": 107,
      "chip": "ym2612"
    },
    {
      "channel": 3,
      "note": 64,
      "start": 55.4315,
      "duration": 0.012,
      "velocity": 127,
      "chip": "ym2612"
    },
    {
      "channel": 5,
      "note": 83,
      "start": 55.4332,
      "duration": 0.0917,
      "velocity": 107,
      "chip": "ym2612"
    },
    {
      "channel": 1,
      "note": 49,
      "start": 55.5579,
      "duration": 0.096,
      "velocity": 97,
      "chip": "ym2612"
    },
    {
      "channel": 2,
      "note": 81,
      "start": 55.5596,
      "duration": 0.0945,
      "velocity": 107,
      "chip": "ym2612"
    },
    {
      "channel": 3,
      "note": 64,
      "start": 55.565,
      "duration": 0.0084,
      "velocity": 127,
      "chip": "ym2612"
    },
    {
      "channel": 5,
      "note": 81,
      "start": 55.5668,
      "duration": 0.0882,
      "velocity": 107,
      "chip": "ym2612"
    },
    {
      "channel": 1,
      "note": 61,
      "start": 55.6878,
      "duration": 0.0961,
      "velocity": 97,
      "chip": "ym2612"
    },
    {
      "channel": 2,
      "note": 80,
      "start": 55.6895,
      "duration": 0.0947,
      "velocity": 107,
      "chip": "ym2612"
    },
    {
      "channel": 3,
      "note": 64,
      "start": 55.6947,
      "duration": 0.0087,
      "velocity": 127,
      "chip": "ym2612"
    },
    {
      "channel": 5,
      "note": 83,
      "start": 55.6966,
      "duration": 0.0885,
      "velocity": 107,
      "chip": "ym2612"
    },
    {
      "channel": 1,
      "note": 49,
      "start": 55.818,
      "duration": 0.0959,
      "velocity": 97,
      "chip": "ym2612"
    },
    {
      "channel": 2,
      "note": 81,
      "start": 55.8196,
      "duration": 0.0945,
      "velocity": 107,
      "chip": "ym2612"
    },
    {
      "channel": 3,
      "note": 64,
      "start": 55.825,
      "duration": 0.0084,
      "velocity": 127,
      "chip": "ym2612"
    },
    {
      "channel": 5,
      "note": 81,
      "start": 55.8268,
      "duration": 0.0882,
      "velocity": 107,
      "chip": "ym2612"
    },
    {
      "channel": 1,
      "note": 61,
      "start": 55.9478,
      "duration": 0.0961,
      "velocity": 97,
      "chip": "ym2612"
    },
    {
      "channel": 2,
      "note": 80,
      "start": 55.9495,
      "duration": 0.0947,
      "velocity": 107,
      "chip": "ym2612"
    },
    {
      "channel": 3,
      "note": 64,
      "start": 55.9548,
      "duration": 0.0086,
      "velocity": 127,
      "chip": "ym2612"
    },
    {
      "channel": 5,
      "note": 80,
      "start": 55.9565,
      "duration": 0.0885,
      "velocity": 107,
      "chip": "ym2612"
    },
    {
      "channel": 1,
      "note": 49,
      "start": 56.078,
      "duration": 0.096,
      "velocity": 97,
      "chip": "ym2612"
    },
    {
      "channel": 2,
      "note": 78,
      "start": 56.0796,
      "duration": 0.0945,
      "velocity": 107,
      "chip": "ym2612"
    },
    {
      "channel": 3,
      "note": 64,
      "start": 56.085,
      "duration": 0.0085,
      "velocity": 127,
      "chip": "ym2612"
    },
    {
      "channel": 5,
      "note": 81,
      "start": 56.0869,
      "duration": 0.0882,
      "velocity": 107,
      "chip": "ym2612"
    },
    {
      "channel": 1,
      "note": 61,
      "start": 56.2079,
      "duration": 0.0962,
      "velocity": 97,
      "chip": "ym2612"
    },
    {
      "channel": 2,
      "note": 80,
      "start": 56.2095,
      "duration": 0.0948,
      "velocity": 107,
      "chip": "ym2612"
    },
    {
      "channel": 3,
      "note": 64,
      "start": 56.2147,
      "duration": 0.0087,
      "velocity": 127,
      "chip": "ym2612"
    },
    {
      "channel": 5,
      "note": 80,
      "start": 56.2165,
      "duration": 0.0887,
      "velocity": 107,
      "chip": "ym2612"
    },
    {
      "channel": 0,
      "note": 69,
      "start": 56.3383,
      "duration": 1.1519,
      "velocity": 99,
      "chip": "ym2612"
    },
    {
      "channel": 1,
      "note": 54,
      "start": 56.3405,
      "duration": 0.1097,
      "velocity": 97,
      "chip": "ym2612"
    },
    {
      "channel": 2,
      "note": 73,
      "start": 56.3456,
      "duration": 1.145,
      "velocity": 99,
      "chip": "ym2612"
    },
    {
      "channel": 3,
      "note": 64,
      "start": 56.3515,
      "duration": 0.0183,
      "velocity": 127,
      "chip": "ym2612"
    },
    {
      "channel": 5,
      "note": 78,
      "start": 56.3533,
      "duration": 0.098,
      "velocity": 107,
      "chip": "ym2612"
    },
    {
      "channel": 1,
      "note": 66,
      "start": 56.4841,
      "duration": 0.0961,
      "velocity": 97,
      "chip": "ym2612"
    },
    {
      "channel": 3,
      "note": 64,
      "start": 56.4895,
      "duration": 0.0103,
      "velocity": 127,
      "chip": "ym2612"
    },
    {
      "channel": 5,
      "note": 80,
      "start": 56.4913,
      "duration": 0.0901,
      "velocity": 107,
      "chip": "ym2612"
    },
    {
      "channel": 1,
      "note": 54,
      "start": 56.6143,
      "duration": 0.096,
      "velocity": 97,
      "chip": "ym2612"
    },
    {
      "channel": 3,
      "note": 64,
      "start": 56.6165,
      "duration": 0.0133,
      "velocity": 127,
      "chip": "ym2612"
    },
    {
      "channel": 4,
      "note": 69,
      "start": 56.6185,
      "duration": 1.1329,
      "velocity": 99,
      "chip": "ym2612"
    },
    {
      "channel": 5,
      "note": 73,
      "start": 56.6238,
      "duration": 1.1279,
      "velocity": 99,
      "chip": "ym2612"
    },
    {
      "channel": 1,
      "note": 66,
      "start": 56.7441,
      "duration": 0.0961,
      "velocity": 97,
      "chip": "ym2612"
    },
    {
      "channel": 3,
      "note": 64,
      "start": 56.7495,
      "duration": 0.0103,
      "velocity": 127,
      "chip": "ym2612"
    },
    {
      "channel": 1,
      "note": 54,
      "start": 56.8743,
      "duration": 0.096,
      "velocity": 97,
      "chip": "ym2612"
    },
    {
      "channel": 3,
      "note": 64,
      "start": 56.8796,
      "duration": 0.0102,
      "velocity": 127,
      "chip": "ym2612"
    },
    {
      "channel": 1,
      "note": 66,
      "start": 57.0042,
      "duration": 0.0961,
      "velocity": 97,
      "chip": "ym2612"
    },
    {
      "channel": 3,
      "note": 64,
      "start": 57.0063,
      "duration": 0.0135,
      "velocity": 127,
      "chip": "ym2612"
    },
    {
      "channel": 1,
      "note": 54,
      "start": 57.1343,
      "duration": 0.096,
      "velocity": 97,
      "chip": "ym2612"
    },
    {
      "channel": 3,
      "note": 64,
      "start": 57.1399,
      "duration": 0.0099,
      "velocity": 127,
      "chip": "ym2612"
    },
    {
      "channel": 1,
      "note": 66,
      "start": 57.2642,
      "duration": 0.0962,
      "velocity": 97,
      "chip": "ym2612"
    },
    {
      "channel": 3,
      "note": 64,
      "start": 57.2695,
      "duration": 0.0103,
      "velocity": 127,
      "chip": "ym2612"
    },
    {
      "channel": 1,
      "note": 54,
      "start": 57.3944,
      "duration": 0.0961,
      "velocity": 97,
      "chip": "ym2612"
    },
    {
      "channel": 3,
      "note": 64,
      "start": 57.3966,
      "duration": 0.0133,
      "velocity": 127,
      "chip": "ym2612"
    },
    {
      "channel": 0,
      "note": 69,
      "start": 57.5243,
      "duration": 0.096,
      "velocity": 99,
      "chip": "ym2612"
    },
    {
      "channel": 1,
      "note": 66,
      "start": 57.5259,
      "duration": 0.0946,
      "velocity": 97,
      "chip": "ym2612"
    },
    {
      "channel": 2,
      "note": 73,
      "start": 57.5275,
      "duration": 0.0931,
      "velocity": 99,
      "chip": "ym2612"
    },
    {
      "channel": 3,
      "note": 64,
      "start": 57.5327,
      "duration": 0.0071,
      "velocity": 127,
      "chip": "ym2612"
    },
    {
      "channel": 0,
      "note": 68,
      "start": 57.6542,
      "duration": 0.0961,
      "velocity": 99,
      "chip": "ym2612"
    },
    {
      "channel": 1,
      "note": 54,
      "start": 57.656,
      "duration": 0.0945,
      "velocity": 97,
      "chip": "ym2612"
    },
    {
      "channel": 2,
      "note": 71,
      "start": 57.6577,
      "duration": 0.093,
      "velocity": 99,
      "chip": "ym2612"
    },
    {
      "channel": 3,
      "note": 64,
      "start": 57.6629,
      "duration": 0.007,
      "velocity": 127,
      "chip": "ym2612"
    },
    {
      "channel": 0,
      "note": 66,
      "start": 57.7843,
      "duration": 0.096,
      "velocity": 99,
      "chip": "ym2612"
    },
    {
      "channel": 1,
      "note": 66,
      "start": 57.7859,
      "duration": 0.0946,
      "velocity": 97,
      "chip": "ym2612"
    },
    {
      "channel": 2,
      "note": 69,
      "start": 57.7875,
      "duration": 0.0932,
      "velocity": 99,
      "chip": "ym2612"
    },
    {
      "channel": 3,
      "note": 64,
      "start": 57.7896,
      "duration": 0.0102,
      "velocity": 127,
      "chip": "ym2612"
    },
    {
      "channel": 4,
      "note": 69,
      "start": 57.7913,
      "duration": 0.0902,
      "velocity": 99,
      "chip": "ym2612"
    },
    {
      "channel": 5,
      "note": 73,
      "start": 57.793,
      "duration": 0.0887,
      "velocity": 99,
      "chip": "ym2612"
    },
    {
      "channel": 0,
      "note": 69,
      "start": 57.9144,
      "duration": 1.1522,
      "velocity": 99,
      "chip": "ym2612"
    },
    {
      "channel": 1,
      "note": 50,
      "start": 57.9163,
      "duration": 0.1103,
      "velocity": 97,
      "chip": "ym2612"
    },
    {
      "channel": 2,
      "note": 74,
      "start": 57.918,
      "duration": 1.149,
      "velocity": 99,
      "chip": "ym2612"
    },
    {
      "channel": 3,
      "note": 64,
      "start": 57.9234,
      "duration": 0.0228,
      "velocity": 127,
      "chip": "ym2612"
    },
    {
      "channel": 4,
      "note": 68,
      "start": 57.925,
      "duration": 0.1025,
      "velocity": 99,
      "chip": "ym2612"
    },
    {
      "channel": 5,
      "note": 71,
      "start": 57.9268,
      "duration": 0.101,
      "velocity": 99,
      "chip": "ym2612"
    },
    {
      "channel": 1,
      "note": 62,
      "start": 58.0605,
      "duration": 0.0961,
      "velocity": 97,
      "chip": "ym2612"
    },
    {
      "channel": 3,
      "note": 64,
      "start": 58.0659,
      "duration": 0.0102,
      "velocity": 127,
      "chip": "ym2612"
    },
    {
      "channel": 4,
      "note": 66,
      "start": 58.0675,
      "duration": 0.09,
      "velocity": 99,
      "chip": "ym2612"
    },
    {
      "channel": 5,
      "note": 69,
      "start": 58.0692,
      "duration": 0.0885,
      "velocity": 99,
      "chip": "ym2612"
    },
    {
      "channel": 1,
      "note": 50,
      "start": 58.1907,
      "duration": 0.096,
      "velocity": 97,
      "chip": "ym2612"
    },
    {
      "channel": 3,
      "note": 64,
      "start": 58.1929,
      "duration": 0.0133,
      "velocity": 127,
      "chip": "ym2612"
    },
    {
      "channel": 4,
      "note": 69,
      "start": 58.1947,
      "duration": 1.1332,
      "velocity": 99,
      "chip": "ym2612"
    },
    {
      "channel": 5,
      "note": 74,
      "start": 58.1964,
      "duration": 1.1316,
      "velocity": 99,
      "chip": "ym2612"
    },
    {
      "channel": 1,
      "note": 62,
      "start": 58.3205,
      "duration": 0.0962,
      "velocity": 97,
      "chip": "ym2612"
    },
    {
      "channel": 3,
      "note": 64,
      "start": 58.3259,
      "duration": 0.0103,
      "velocity": 127,
      "chip": "ym2612"
    },
    {
      "channel": 1,
      "note": 50,
      "start": 58.4507,
      "duration": 0.0959,
      "velocity": 97,
      "chip": "ym2612"
    },
    {
      "channel": 3,
      "note": 64,
      "start": 58.4561,
      "duration": 0.0101,
      "velocity": 127,
      "chip": "ym2612"
    },
    {
      "channel": 1,
      "note": 62,
      "start": 58.5806,
      "duration": 0.0961,
      "velocity": 97,
      "chip": "ym2612"
    },
    {
      "channel": 3,
      "note": 64,
      "start": 58.5827,
      "duration": 0.0134,
      "velocity": 127,
      "chip": "ym2612"
    },
    {
      "channel": 1,
      "note": 50,
      "start": 58.7107,
      "duration": 0.096,
      "velocity": 97,
      "chip": "ym2612"
    },
    {
      "channel": 3,
      "note": 64,
      "start": 58.7163,
      "duration": 0.0099,
      "velocity": 127,
      "chip": "ym2612"
    },
    {
      "channel": 1,
      "note": 62,
      "start": 58.8406,
      "duration": 0.0962,
      "velocity": 97,
      "chip": "ym2612"
    },
    {
      "channel": 3,
      "note": 64,
      "start": 58.8459,
      "duration": 0.0103,
      "velocity": 127,
      "chip": "ym2612"
    },
    {
      "channel": 1,
      "note": 50,
      "start": 58.9708,
      "duration": 0.0961,
      "velocity": 97,
      "chip": "ym2612"
    },
    {
      "channel": 3,
      "note": 64,
      "start": 58.9729,
      "duration": 0.0134,
      "velocity": 127,
      "chip": "ym2612"
    },
    {
      "channel": 0,
      "note": 69,
      "start": 59.1007,
      "duration": 0.096,
      "velocity": 99,
      "chip": "ym2612"
    },
    {
      "channel": 1,
      "note": 62,
      "start": 59.1023,
      "duration": 0.0946,
      "velocity": 97,
      "chip": "ym2612"
    },
    {
      "channel": 2,
      "note": 74,
      "start": 59.1039,
      "duration": 0.0931,
      "velocity": 99,
      "chip": "ym2612"
    },
    {
      "channel": 3,
      "note": 64,
      "start": 59.1092,
      "duration": 0.0071,
      "velocity": 127,
      "chip": "ym2612"
    },
    {
      "channel": 0,
      "note": 68,
      "start": 59.2306,
      "duration": 0.096,
      "velocity": 99,
      "chip": "ym2612"
    },
    {
      "channel": 1,
      "note": 50,
      "start": 59.2324,
      "duration": 0.0945,
      "velocity": 97,
      "chip": "ym2612"
    },
    {
      "channel": 2,
      "note": 73,
      "start": 59.2341,
      "duration": 0.093,
      "velocity": 99,
      "chip": "ym2612"
    },
    {
      "channel": 3,
      "note": 64,
      "start": 59.2393,
      "duration": 0.0069,
      "velocity": 127,
      "chip": "ym2612"
    },
    {
      "channel": 0,
      "note": 66,
      "start": 59.3607,
      "duration": 0.096,
      "velocity": 99,
      "chip": "ym2612"
    },
    {
      "channel": 1,
      "note": 62,
      "start": 59.3623,
      "duration": 0.0946,
      "velocity": 97,
      "chip": "ym2612"
    },
    {
      "channel": 2,
      "note": 71,
      "start": 59.3639,
      "duration": 0.0932,
      "velocity": 99,
      "chip": "ym2612"
    },
    {
      "channel": 3,
      "note": 64,
      "start": 59.3659,
      "duration": 0.0103,
      "velocity": 127,
      "chip": "ym2612"
    },
    {
      "channel": 4,
      "note": 69,
      "start": 59.3677,
      "duration": 0.0902,
      "velocity": 99,
      "chip": "ym2612"
    },
    {
      "channel": 5,
      "note": 74,
      "start": 59.3693,
      "duration": 0.0887,
      "velocity": 99,
      "chip": "ym2612"
    },
    {
      "channel": 0,
      "note": 71,
      "start": 59.4911,
      "duration": 0.7619,
      "velocity": 99,
      "chip": "ym2612"
    },
    {
      "channel": 1,
      "note": 52,
      "start": 59.493,
      "duration": 0.11,
      "velocity": 97,
      "chip": "ym2612"
    },
    {
      "channel": 2,
      "note": 76,
      "start": 59.4946,
      "duration": 0.7588,
      "velocity": 99,
      "chip": "ym2612"
    },
    {
      "channel": 3,
      "note": 64,
      "start": 59.5,
      "duration": 0.0225,
      "velocity": 127,
      "chip": "ym2612"
    },
    {
      "channel": 4,
      "note": 68,
      "start": 59.5017,
      "duration": 0.1022,
      "velocity": 99,
      "chip": "ym2612"
    },
    {
      "channel": 5,
      "note": 73,
      "start": 59.5034,
      "duration": 0.1008,
      "velocity": 99,
      "chip": "ym2612"
    },
    {
      "channel": 1,
      "note": 64,
      "start": 59.6369,
      "duration": 0.0961,
      "velocity": 97,
      "chip": "ym2612"
    },
    {
      "channel": 3,
      "note": 64,
      "start": 59.6424,
      "duration": 0.0102,
      "velocity": 127,
      "chip": "ym2612"
    },
    {
      "channel": 4,
      "note": 66,
      "start": 59.644,
      "duration": 0.09,
      "velocity": 99,
      "chip": "ym2612"
    },
    {
      "channel": 5,
      "note": 71,
      "start": 59.6456,
      "duration": 0.0885,
      "velocity": 99,
      "chip": "ym2612"
    },
    {
      "channel": 1,
      "note": 52,
      "start": 59.7671,
      "duration": 0.096,
      "velocity": 97,
      "chip": "ym2612"
    },
    {
      "channel": 3,
      "note": 64,
      "start": 59.7693,
      "duration": 0.0133,
      "velocity": 127,
      "chip": "ym2612"
    },
    {
      "channel": 4,
      "note": 71,
      "start": 59.7711,
      "duration": 0.7429,
      "velocity": 99,
      "chip": "ym2612"
    },
    {
      "channel": 5,
      "note": 76,
      "start": 59.7728,
      "duration": 0.7414,
      "velocity": 99,
      "chip": "ym2612"
    },
    {
      "channel": 1,
      "note": 64,
      "start": 59.897,
      "duration": 0.0961,
      "velocity": 97,
      "chip": "ym2612"
    },
    {
      "channel": 3,
      "note": 64,
      "start": 59.9023,
      "duration": 0.0103,
      "velocity": 127,
      "chip": "ym2612"
    },
    {
      "channel": 1,
      "note": 52,
      "start": 60.0271,
      "duration": 0.0959,
      "velocity": 97,
      "chip": "ym2612"
    },
    {
      "channel": 3,
      "note": 64,
      "start": 60.0325,
      "duration": 0.0101,
      "velocity": 127,
      "chip": "ym2612"
    },
    {
      "channel": 1,
      "note": 64,
      "start": 60.157,
      "duration": 0.0962,
      "velocity": 97,
      "chip": "ym2612"
    },
    {
      "channel": 3,
      "note": 64,
      "start": 60.1591,
      "duration": 0.0134,
      "velocity": 127,
      "chip": "ym2612"
    },
    {
      "channel": 0,
      "note": 71,
      "start": 60.287,
      "duration": 0.096,
      "velocity": 99,
      "chip": "ym2612"
    },
    {
      "channel": 1,
      "note": 52,
      "start": 60.2888,
      "duration": 0.0944,
      "velocity": 97,
      "chip": "ym2612"
    },
    {
      "channel": 2,
      "note": 76,
      "start": 60.2905,
      "duration": 0.0929,
      "velocity": 99,
      "chip": "ym2612"
    },
    {
      "channel": 3,
      "note": 64,
      "start": 60.2959,
      "duration": 0.0069,
      "velocity": 127,
      "chip": "ym2612"
    },
    {
      "channel": 1,
      "note": 64,
      "start": 60.417,
      "duration": 0.0961,
      "velocity": 97,
      "chip": "ym2612"
    },
    {
      "channel": 3,
      "note": 64,
      "start": 60.4224,
      "duration": 0.0102,
      "velocity": 127,
      "chip": "ym2612"
    },
    {
      "channel": 0,
      "note": 69,
      "start": 60.5471,
      "duration": 0.096,
      "velocity": 99,
      "chip": "ym2612"
    },
    {
      "channel": 1,
      "note": 52,
      "start": 60.5488,
      "duration": 0.0945,
      "velocity": 97,
      "chip": "ym2612"
    },
    {
      "channel": 2,
      "note": 74,
      "start": 60.5504,
      "duration": 0.093,
      "velocity": 99,
      "chip": "ym2612"
    },
    {
      "channel": 3,
      "note": 64,
      "start": 60.5525,
      "duration": 0.0102,
      "velocity": 127,
      "chip": "ym2612"
    },
    {
      "channel": 4,
      "note": 71,
      "start": 60.5542,
      "duration": 0.09,
      "velocity": 99,
      "chip": "ym2612"
    },
    {
      "channel": 5,
      "note": 76,
      "start": 60.5559,
      "duration": 0.0885,
      "velocity": 99,
      "chip": "ym2612"
    },
    {
      "channel": 1,
      "note": 64,
      "start": 60.6772,
      "duration": 0.0959,
      "velocity": 97,
      "chip": "ym2612"
    },
    {
      "channel": 3,
      "note": 64,
      "start": 60.6825,
      "duration": 0.0101,
      "velocity": 127,
      "chip": "ym2612"
    },
    {
      "channel": 0,
      "note": 71,
      "start": 60.8074,
      "duration": 0.1119,
      "velocity": 99,
      "chip": "ym2612"
    },
    {
      "channel": 1,
      "note": 52,
      "start": 60.8092,
      "duration": 0.1103,
      "velocity": 97,
      "chip": "ym2612"
    },
    {
      "channel": 2,
      "note": 76,
      "start": 60.8109,
      "duration": 0.1088,
      "velocity": 99,
      "chip": "ym2612"
    },
    {
      "channel": 3,
      "note": 64,
      "start": 60.8161,
      "duration": 0.0228,
      "velocity": 127,
      "chip": "ym2612"
    },
    {
      "channel": 4,
      "note": 69,
      "start": 60.8177,
      "duration": 0.1027,
      "velocity": 99,
      "chip": "ym2612"
    },
    {
      "channel": 5,
      "note": 74,
      "start": 60.8194,
      "duration": 0.1013,
      "velocity": 99,
      "chip": "ym2612"
    },
    {
      "channel": 1,
      "note": 64,
      "start": 60.9533,
      "duration": 0.0962,
      "velocity": 97,
      "chip": "ym2612"
    },
    {
      "channel": 3,
      "note": 64,
      "start": 60.9555,
      "duration": 0.0134,
      "velocity": 127,
      "chip": "ym2612"
    },
    {
      "channel": 0,
      "note": 68,
      "start": 61.0834,
      "duration": 1.5424,
      "velocity": 99,
      "chip": "ym2612"
    },
    {
      "channel": 1,
      "note": 49,
      "start": 61.0853,
      "duration": 0.1104,
      "velocity": 97,
      "chip": "ym2612"
    },
    {
      "channel": 2,
      "note": 73,
      "start": 61.0869,
      "duration": 1.5392,
      "velocity": 99,
      "chip": "ym2612"
    },
    {
      "channel": 3,
      "note": 64,
      "start": 61.0924,
      "duration": 0.0228,
      "velocity": 127,
      "chip": "ym2612"
    },
    {
      "channel": 4,
      "note": 71,
      "start": 61.094,
      "duration": 0.1026,
      "velocity": 99,
      "chip": "ym2612"
    },
    {
      "channel": 5,
      "note": 76,
      "start": 61.0956,
      "duration": 0.1012,
      "velocity": 99,
      "chip": "ym2612"
    },
    {
      "channel": 1,
      "note": 61,
      "start": 61.2296,
      "duration": 0.0961,
      "velocity": 97,
      "chip": "ym2612"
    },
    {
      "channel": 3,
      "note": 64,
      "start": 61.2349,
      "duration": 0.0103,
      "velocity": 127,
      "chip": "ym2612"
    },
    {
      "channel": 1,
      "note": 49,
      "start": 61.3598,
      "duration": 0.0959,
      "velocity": 97,
      "chip": "ym2612"
    },
    {
      "channel": 3,
      "note": 64,
      "start": 61.362,
      "duration": 0.0133,
      "velocity": 127,
      "chip": "ym2612"
    },
    {
      "channel": 4,
      "note": 68,
      "start": 61.3636,
      "duration": 1.5232,
      "velocity": 99,
      "chip": "ym2612"
    },
    {
      "channel": 5,
      "note": 73,
      "start": 61.3653,
      "duration": 1.5216,
      "velocity": 99,
      "chip": "ym2612"
    },
    {
      "channel": 1,
      "note": 61,
      "start": 61.4896,
      "duration": 0.0961,
      "velocity": 97,
      "chip": "ym2612"
    },
    {
      "channel": 3,
      "note": 64,
      "start": 61.495,
      "duration": 0.0104,
      "velocity": 127,
      "chip": "ym2612"
    },
    {
      "channel": 1,
      "note": 49,
      "start": 61.6198,
      "duration": 0.0959,
      "velocity": 97,
      "chip": "ym2612"
    },
    {
      "channel": 3,
      "note": 64,
      "start": 61.6252,
      "duration": 0.01,
      "velocity": 127,
      "chip": "ym2612"
    },
    {
      "channel": 1,
      "note": 61,
      "start": 61.7496,
      "duration": 0.0961,
      "velocity": 97,
      "chip": "ym2612"
    },
    {
      "channel": 3,
      "note": 64,
      "start": 61.7518,
      "duration": 0.0135,
      "velocity": 127,
      "chip": "ym2612"
    },
    {
      "channel": 1,
      "note": 49,
      "start": 61.8798,
      "duration": 0.0959,
      "velocity": 97,
      "chip": "ym2612"
    },
    {
      "channel": 3,
      "note": 64,
      "start": 61.8853,
      "duration": 0.01,
      "velocity": 127,
      "chip": "ym2612"
    },
    {
      "channel": 1,
      "note": 61,
      "start": 62.0097,
      "duration": 0.0961,
      "velocity": 97,
      "chip": "ym2612"
    },
    {
      "channel": 3,
      "note": 64,
      "start": 62.015,
      "duration": 0.0102,
      "velocity": 127,
      "chip": "ym2612"
    },
    {
      "channel": 1,
      "note": 49,
      "start": 62.1398,
      "duration": 0.096,
      "velocity": 97,
      "chip": "ym2612"
    },
    {
      "channel": 3,
      "note": 64,
      "start": 62.142,
      "duration": 0.0134,
      "velocity": 127,
      "chip": "ym2612"
    },
    {
      "channel": 1,
      "note": 61,
      "start": 62.2696,
      "duration": 0.0962,
      "velocity": 97,
      "chip": "ym2612"
    },
    {
      "channel": 3,
      "note": 64,
      "start": 62.275,
      "duration": 0.0102,
      "velocity": 127,
      "chip": "ym2612"
    },
    {
      "channel": 1,
      "note": 49,
      "start": 62.3999,
      "duration": 0.0959,
      "velocity": 97,
      "chip": "ym2612"
    },
    {
      "channel": 3,
      "note": 64,
      "start": 62.4052,
      "duration": 0.0101,
      "velocity": 127,
      "chip": "ym2612"
    },
    {
      "channel": 1,
      "note": 61,
      "start": 62.5297,
      "duration": 0.0963,
      "velocity": 97,
      "chip": "ym2612"
    },
    {
      "channel": 3,
      "note": 64,
      "start": 62.5319,
      "duration": 0.0135,
      "velocity": 127,
      "chip": "ym2612"
    },
    {
      "channel": 0,
      "note": 69,
      "start": 62.6598,
      "duration": 1.266,
      "velocity": 99,
      "chip": "ym2612"
    },
    {
      "channel": 1,
      "note": 50,
      "start": 62.6617,
      "duration": 0.0941,
      "velocity": 97,
      "chip": "ym2612"
    },
    {
      "channel": 2,
      "note": 74,
      "start": 62.6635,
      "duration": 1.2628,
      "velocity": 99,
      "chip": "ym2612"
    },
    {
      "channel": 3,
      "note": 64,
      "start": 62.6689,
      "duration": 0.0065,
      "velocity": 127,
      "chip": "ym2612"
    },
    {
      "channel": 1,
      "note": 62,
      "start": 62.7897,
      "duration": 0.0961,
      "velocity": 97,
      "chip": "ym2612"
    },
    {
      "channel": 3,
      "note": 64,
      "start": 62.7951,
      "duration": 0.0103,
      "velocity": 127,
      "chip": "ym2612"
    },
    {
      "channel": 1,
      "note": 50,
      "start": 62.9199,
      "duration": 0.096,
      "velocity": 97,
      "chip": "ym2612"
    },
    {
      "channel": 3,
      "note": 64,
      "start": 62.9221,
      "duration": 0.0134,
      "velocity": 127,
      "chip": "ym2612"
    },
    {
      "channel": 4,
      "note": 69,
      "start": 62.9238,
      "duration": 1.2633,
      "velocity": 99,
      "chip": "ym2612"
    },
    {
      "channel": 5,
      "note": 74,
      "start": 62.9256,
      "duration": 1.2616,
      "velocity": 99,
      "chip": "ym2612"
    },
    {
      "channel": 1,
      "note": 62,
      "start": 63.0497,
      "duration": 0.0961,
      "velocity": 97,
      "chip": "ym2612"
    },
    {
      "channel": 3,
      "note": 64,
      "start": 63.0551,
      "duration": 0.0103,
      "velocity": 127,
      "chip": "ym2612"
    },
    {
      "channel": 1,
      "note": 50,
      "start": 63.1799,
      "duration": 0.0959,
      "velocity": 97,
      "chip": "ym2612"
    },
    {
      "channel": 3,
      "note": 64,
      "start": 63.1853,
      "duration": 0.0101,
      "velocity": 127,
      "chip": "ym2612"
    },
    {
      "channel": 1,
      "note": 62,
      "start": 63.3102,
      "duration": 0.0957,
      "velocity": 97,
      "chip": "ym2612"
    },
    {
      "channel": 3,
      "note": 64,
      "start": 63.3123,
      "duration": 0.0131,
      "velocity": 127,
      "chip": "ym2612"
    },
    {
      "channel": 1,
      "note": 50,
      "start": 63.4407,
      "duration": 0.0952,
      "velocity": 97,
      "chip": "ym2612"
    },
    {
      "channel": 3,
      "note": 64,
      "start": 63.4462,
      "duration": 0.0092,
      "velocity": 127,
      "chip": "ym2612"
    },
    {
      "channel": 1,
      "note": 62,
      "start": 63.5698,
      "duration": 0.0961,
      "velocity": 97,
      "chip": "ym2612"
    },
    {
      "channel": 3,
      "note": 64,
      "start": 63.5752,
      "duration": 0.0102,
      "velocity": 127,
      "chip": "ym2612"
    },
    {
      "channel": 1,
      "note": 50,
      "start": 63.7,
      "duration": 0.0959,
      "velocity": 97,
      "chip": "ym2612"
    },
    {
      "channel": 3,
      "note": 64,
      "start": 63.7022,
      "duration": 0.0133,
      "velocity": 127,
      "chip": "ym2612"
    },
    {
      "channel": 1,
      "note": 62,
      "start": 63.8298,
      "duration": 0.0962,
      "velocity": 97,
      "chip": "ym2612"
    },
    {
      "channel": 3,
      "note": 64,
      "start": 63.8352,
      "duration": 0.0103,
      "velocity": 127,
      "chip": "ym2612"
    },
    {
      "channel": 0,
      "note": 68,
      "start": 63.9599,
      "duration": 0.0959,
      "velocity": 99,
      "chip": "ym2612"
    },
    {
      "channel": 1,
      "note": 50,
      "start": 63.9616,
      "duration": 0.0944,
      "velocity": 97,
      "chip": "ym2612"
    },
    {
      "channel": 2,
      "note": 73,
      "start": 63.9633,
      "duration": 0.0929,
      "velocity": 99,
      "chip": "ym2612"
    },
    {
      "channel": 3,
      "note": 64,
      "start": 63.9685,
      "duration": 0.0069,
      "velocity": 127,
      "chip": "ym2612"
    },
    {
      "channel": 0,
      "note": 66,
      "start": 64.0899,
      "duration": 0.096,
      "velocity": 99,
      "chip": "ym2612"
    },
    {
      "channel": 1,
      "note": 62,
      "start": 64.0915,
      "duration": 0.0946,
      "velocity": 97,
      "chip": "ym2612"
    },
    {
      "channel": 2,
      "note": 71,
      "start": 64.0931,
      "duration": 0.0932,
      "velocity": 99,
      "chip": "ym2612"
    },
    {
      "channel": 3,
      "note": 64,
      "start": 64.0951,
      "duration": 0.0103,
      "velocity": 127,
      "chip": "ym2612"
    },
    {
      "channel": 0,
      "note": 71,
      "start": 64.22,
      "duration": 1.2823,
      "velocity": 99,
      "chip": "ym2612"
    },
    {
      "channel": 1,
      "note": 47,
      "start": 64.2219,
      "duration": 0.1104,
      "velocity": 97,
      "chip": "ym2612"
    },
    {
      "channel": 2,
      "note": 74,
      "start": 64.2237,
      "duration": 1.279,
      "velocity": 99,
      "chip": "ym2612"
    },
    {
      "channel": 3,
      "note": 64,
      "start": 64.229,
      "duration": 0.0227,
      "velocity": 127,
      "chip": "ym2612"
    },
    {
      "channel": 4,
      "note": 68,
      "start": 64.2307,
      "duration": 0.1024,
      "velocity": 99,
      "chip": "ym2612"
    },
    {
      "channel": 5,
      "note": 73,
      "start": 64.2324,
      "duration": 0.101,
      "velocity": 99,
      "chip": "ym2612"
    },
    {
      "channel": 1,
      "note": 59,
      "start": 64.3661,
      "duration": 0.0961,
      "velocity": 97,
      "chip": "ym2612"
    },
    {
      "channel": 3,
      "note": 64,
      "start": 64.3715,
      "duration": 0.0103,
      "velocity": 127,
      "chip": "ym2612"
    },
    {
      "channel": 4,
      "note": 66,
      "start": 64.3731,
      "duration": 0.09,
      "velocity": 99,
      "chip": "ym2612"
    },
    {
      "channel": 5,
      "note": 71,
      "start": 64.3748,
      "duration": 0.0885,
      "velocity": 99,
      "chip": "ym2612"
    },
    {
      "channel": 1,
      "note": 47,
      "start": 64.4966,
      "duration": 0.0957,
      "velocity": 97,
      "chip": "ym2612"
    },
    {
      "channel": 3,
      "note": 64,
      "start": 64.4987,
      "duration": 0.013,
      "velocity": 127,
      "chip": "ym2612"
    },
    {
      "channel": 4,
      "note": 71,
      "start": 64.5004,
      "duration": 1.2631,
      "velocity": 99,
      "chip": "ym2612"
    },
    {
      "channel": 5,
      "note": 74,
      "start": 64.5022,
      "duration": 1.2615,
      "velocity": 99,
      "chip": "ym2612"
    },
    {
      "channel": 1,
      "note": 59,
      "start": 64.6267,
      "duration": 0.0956,
      "velocity": 97,
      "chip": "ym2612"
    },
    {
      "channel": 3,
      "note": 64,
      "start": 64.632,
      "duration": 0.0098,
      "velocity": 127,
      "chip": "ym2612"
    },
    {
      "channel": 1,
      "note": 47,
      "start": 64.7572,
      "duration": 0.095,
      "velocity": 97,
      "chip": "ym2612"
    },
    {
      "channel": 3,
      "note": 64,
      "start": 64.7626,
      "duration": 0.0092,
      "velocity": 127,
      "chip": "ym2612"
    },
    {
      "channel": 1,
      "note": 59,
      "start": 64.8862,
      "duration": 0.0961,
      "velocity": 97,
      "chip": "ym2612"
    },
    {
      "channel": 3,
      "note": 64,
      "start": 64.8883,
      "duration": 0.0134,
      "velocity": 127,
      "chip": "ym2612"
    },
    {
      "channel": 1,
      "note": 47,
      "start": 65.0163,
      "duration": 0.096,
      "velocity": 97,
      "chip": "ym2612"
    },
    {
      "channel": 3,
      "note": 64,
      "start": 65.0219,
      "duration": 0.0099,
      "velocity": 127,
      "chip": "ym2612"
    },
    {
      "channel": 1,
      "note": 59,
      "start": 65.1462,
      "duration": 0.0961,
      "velocity": 97,
      "chip": "ym2612"
    },
    {
      "channel": 3,
      "note": 64,
      "start": 65.1515,
      "duration": 0.0103,
      "velocity": 127,
      "chip": "ym2612"
    },
    {
      "channel": 1,
      "note": 47,
      "start": 65.2764,
      "duration": 0.0959,
      "velocity": 97,
      "chip": "ym2612"
    },
    {
      "channel": 3,
      "note": 64,
      "start": 65.2785,
      "duration": 0.0133,
      "velocity": 127,
      "chip": "ym2612"
    },
    {
      "channel": 1,
      "note": 59,
      "start": 65.4062,
      "duration": 0.0963,
      "velocity": 97,
      "chip": "ym2612"
    },
    {
      "channel": 3,
      "note": 64,
      "start": 65.4116,
      "duration": 0.0103,
      "velocity": 127,
      "chip": "ym2612"
    },
    {
      "channel": 0,
      "note": 69,
      "start": 65.5362,
      "duration": 0.096,
      "velocity": 99,
      "chip": "ym2612"
    },
    {
      "channel": 1,
      "note": 47,
      "start": 65.538,
      "duration": 0.0945,
      "velocity": 97,
      "chip": "ym2612"
    },
    {
      "channel": 2,
      "note": 73,
      "start": 65.5397,
      "duration": 0.0929,
      "velocity": 99,
      "chip": "ym2612"
    },
    {
      "channel": 3,
      "note": 64,
      "start": 65.545,
      "duration": 0.0069,
      "velocity": 127,
      "chip": "ym2612"
    },
    {
      "channel": 0,
      "note": 71,
      "start": 65.6663,
      "duration": 0.096,
      "velocity": 99,
      "chip": "ym2612"
    },
    {
      "channel": 1,
      "note": 59,
      "start": 65.6678,
      "duration": 0.0946,
      "velocity": 97,
      "chip": "ym2612"
    },
    {
      "channel": 2,
      "note": 71,
      "start": 65.6695,
      "duration": 0.0932,
      "velocity": 99,
      "chip": "ym2612"
    },
    {
      "channel": 3,
      "note": 64,
      "start": 65.6716,
      "duration": 0.0103,
      "velocity": 127,
      "chip": "ym2612"
    },
    {
      "channel": 0,
      "note": 69,
      "start": 65.7963,
      "duration": 3.1024,
      "velocity": 99,
      "chip": "ym2612"
    },
    {
      "channel": 1,
      "note": 49,
      "start": 65.7982,
      "duration": 0.1104,
      "velocity": 97,
      "chip": "ym2612"
    },
    {
      "channel": 2,
      "note": 85,
      "start": 65.8035,
      "duration": 0.1054,
      "velocity": 107,
      "chip": "ym2612"
    },
    {
      "channel": 3,
      "note": 64,
      "start": 65.809,
      "duration": 0.0192,
      "velocity": 127,
      "chip": "ym2612"
    },
    {
      "channel": 4,
      "note": 69,
      "start": 65.8107,
      "duration": 0.099,
      "velocity": 99,
      "chip": "ym2612"
    },
    {
      "channel": 5,
      "note": 73,
      "start": 65.8123,
      "duration": 0.0975,
      "velocity": 99,
      "chip": "ym2612"
    },
    {
      "channel": 1,
      "note": 61,
      "start": 65.9432,
      "duration": 0.0954,
      "velocity": 97,
      "chip": "ym2612"
    },
    {
      "channel": 2,
      "note": 83,
      "start": 65.9449,
      "duration": 0.0939,
      "velocity": 107,
      "chip": "ym2612"
    },
    {
      "channel": 3,
      "note": 64,
      "start": 65.9502,
      "duration": 0.0081,
      "velocity": 127,
      "chip": "ym2612"
    },
    {
      "channel": 4,
      "note": 71,
      "start": 65.9518,
      "duration": 0.0878,
      "velocity": 99,
      "chip": "ym2612"
    },
    {
      "channel": 5,
      "note": 71,
      "start": 65.9535,
      "duration": 0.0864,
      "velocity": 99,
      "chip": "ym2612"
    },
    {
      "channel": 1,
      "note": 49,
      "start": 66.0727,
      "duration": 0.096,
      "velocity": 97,
      "chip": "ym2612"
    },
    {
      "channel": 2,
      "note": 85,
      "start": 66.0744,
      "duration": 0.0945,
      "velocity": 107,
      "chip": "ym2612"
    },
    {
      "channel": 3,
      "note": 64,
      "start": 66.0764,
      "duration": 0.0118,
      "velocity": 127,
      "chip": "ym2612"
    },
    {
      "channel": 4,
      "note": 69,
      "start": 66.0782,
      "duration": 3.0979,
      "velocity": 99,
      "chip": "ym2612"
    },
    {
      "channel": 5,
      "note": 85,
      "start": 66.0835,
      "duration": 0.0863,
      "velocity": 107,
      "chip": "ym2612"
    },
    {
      "channel": 1,
      "note": 61,
      "start": 66.2025,
      "duration": 0.0961,
      "velocity": 97,
      "chip": "ym2612"
    },
    {
      "channel": 2,
      "note": 83,
      "start": 66.2042,
      "duration": 0.0946,
      "velocity": 107,
      "chip": "ym2612"
    },
    {
      "channel": 3,
      "note": 64,
      "start": 66.2095,
      "duration": 0.0087,
      "velocity": 127,
      "chip": "ym2612"
    },
    {
      "channel": 5,
      "note": 83,
      "start": 66.2113,
      "duration": 0.0885,
      "velocity": 107,
      "chip": "ym2612"
    },
    {
      "channel": 1,
      "note": 49,
      "start": 66.3327,
      "duration": 0.096,
      "velocity": 97,
      "chip": "ym2612"
    },
    {
      "channel": 2,
      "note": 81,
      "start": 66.3343,
      "duration": 0.0945,
      "velocity": 107,
      "chip": "ym2612"
    },
    {
      "channel": 3,
      "note": 64,
      "start": 66.3396,
      "duration": 0.0086,
      "velocity": 127,
      "chip": "ym2612"
    },
    {
      "channel": 5,
      "note": 85,
      "start": 66.3414,
      "duration": 0.0884,
      "velocity": 107,
      "chip": "ym2612"
    },
    {
      "channel": 1,
      "note": 61,
      "start": 66.4626,
      "duration": 0.0961,
      "velocity": 97,
      "chip": "ym2612"
    },
    {
      "channel": 2,
      "note": 83,
      "start": 66.4642,
      "duration": 0.0946,
      "velocity": 107,
      "chip": "ym2612"
    },
    {
      "channel": 3,
      "note": 64,
      "start": 66.4663,
      "duration": 0.012,
      "velocity": 127,
      "chip": "ym2612"
    },
    {
      "channel": 5,
      "note": 83,
      "start": 66.468,
      "duration": 0.0917,
      "velocity": 107,
      "chip": "ym2612"
    },
    {
      "channel": 1,
      "note": 49,
      "start": 66.5927,
      "duration": 0.096,
      "velocity": 97,
      "chip": "ym2612"
    },
    {
      "channel": 2,
      "note": 81,
      "start": 66.5944,
      "duration": 0.0945,
      "velocity": 107,
      "chip": "ym2612"
    },
    {
      "channel": 3,
      "note": 64,
      "start": 66.5998,
      "duration": 0.0084,
      "velocity": 127,
      "chip": "ym2612"
    },
    {
      "channel": 5,
      "note": 81,
      "start": 66.6016,
      "duration": 0.0882,
      "velocity": 107,
      "chip": "ym2612"
    },
    {
      "channel": 1,
      "note": 61,
      "start": 66.7226,
      "duration": 0.0961,
      "velocity": 97,
      "chip": "ym2612"
    },
    {
      "channel": 2,
      "note": 80,
      "start": 66.7243,
      "duration": 0.0946,
      "velocity": 107,
      "chip": "ym2612"
    },
    {
      "channel": 3,
      "note": 64,
      "start": 66.7295,
      "duration": 0.0088,
      "velocity": 127,
      "chip": "ym2612"
    },
    {
      "channel": 5,
      "note": 83,
      "start": 66.7313,
      "duration": 0.0885,
      "velocity": 107,
      "chip": "ym2612"
    },
    {
      "channel": 1,
      "note": 49,
      "start": 66.8528,
      "duration": 0.0959,
      "velocity": 97,
      "chip": "ym2612"
    },
    {
      "channel": 2,
      "note": 81,
      "start": 66.8545,
      "duration": 0.0945,
      "velocity": 107,
      "chip": "ym2612"
    },
    {
      "channel": 3,
      "note": 64,
      "start": 66.8565,
      "duration": 0.0117,
      "velocity": 127,
      "chip": "ym2612"
    },
    {
      "channel": 5,
      "note": 81,
      "start": 66.8583,
      "duration": 0.0915,
      "velocity": 107,
      "chip": "ym2612"
    },
    {
      "channel": 1,
      "note": 61,
      "start": 66.9826,
      "duration": 0.0961,
      "velocity": 97,
      "chip": "ym2612"
    },
    {
      "channel": 2,
      "note": 80,
      "start": 66.9843,
      "duration": 0.0947,
      "velocity": 107,
      "chip": "ym2612"
    },
    {
      "channel": 3,
      "note": 64,
      "start": 66.9895,
      "duration": 0.0089,
      "velocity": 127,
      "chip": "ym2612"
    },
    {
      "channel": 5,
      "note": 80,
      "start": 66.9913,
      "duration": 0.0885,
      "velocity": 107,
      "chip": "ym2612"
    },
    {
      "channel": 1,
      "note": 49,
      "start": 67.1128,
      "duration": 0.096,
      "velocity": 97,
      "chip": "ym2612"
    },
    {
      "channel": 2,
      "note": 78,
      "start": 67.1144,
      "duration": 0.0945,
      "velocity": 107,
      "chip": "ym2612"
    },
    {
      "channel": 3,
      "note": 64,
      "start": 67.1196,
      "duration": 0.0092,
      "velocity": 127,
      "chip": "ym2612"
    },
    {
      "channel": 5,
      "note": 81,
      "start": 67.1215,
      "duration": 0.0884,
      "velocity": 107,
      "chip": "ym2612"
    },
    {
      "channel": 1,
      "note": 61,
      "start": 67.2427,
      "duration": 0.0961,
      "velocity": 97,
      "chip": "ym2612"
    },
    {
      "channel": 2,
      "note": 80,
      "start": 67.2443,
      "duration": 0.0947,
      "velocity": 107,
      "chip": "ym2612"
    },
    {
      "channel": 3,
      "note": 64,
      "start": 67.2463,
      "duration": 0.0128,
      "velocity": 127,
      "chip": "ym2612"
    },
    {
      "channel": 5,
      "note": 80,
      "start": 67.2481,
      "duration": 0.0917,
      "velocity": 107,
      "chip": "ym2612"
    },
    {
      "channel": 1,
      "note": 49,
      "start": 67.3744,
      "duration": 0.0945,
      "velocity": 97,
      "chip": "ym2612"
    },
    {
      "channel": 2,
      "note": 85,
      "start": 67.3761,
      "duration": 0.0929,
      "velocity": 107,
      "chip": "ym2612"
    },
    {
      "channel": 3,
      "note": 76,
      "start": 67.382,
      "duration": 0.0071,
      "velocity": 127,
      "chip": "ym2612"
    },
    {
      "channel": 5,
      "note": 78,
      "start": 67.3838,
      "duration": 0.0861,
      "velocity": 107,
      "chip": "ym2612"
    },
    {
      "channel": 3,
      "note": 76,
      "start": 67.4388,
      "duration": 0.0149,
      "velocity": 127,
      "chip": "ym2612"
    },
    {
      "channel": 1,
      "note": 61,
      "start": 67.5027,
      "duration": 0.0961,
      "velocity": 97,
      "chip": "ym2612"
    },
    {
      "channel": 2,
      "note": 83,
      "start": 67.5044,
      "duration": 0.0946,
      "velocity": 107,
      "chip": "ym2612"
    },
    {
      "channel": 3,
      "note": 76,
      "start": 67.5065,
      "duration": 0.0118,
      "velocity": 127,
      "chip": "ym2612"
    },
    {
      "channel": 5,
      "note": 80,
      "start": 67.5083,
      "duration": 0.0917,
      "velocity": 107,
      "chip": "ym2612"
    },
    {
      "channel": 1,
      "note": 49,
      "start": 67.6329,
      "duration": 0.0959,
      "velocity": 97,
      "chip": "ym2612"
    },
    {
      "channel": 2,
      "note": 85,
      "start": 67.6345,
      "duration": 0.0945,
      "velocity": 107,
      "chip": "ym2612"
    },
    {
      "channel": 3,
      "note": 76,
      "start": 67.6366,
      "duration": 0.0118,
      "velocity": 127,
      "chip": "ym2612"
    },
    {
      "channel": 5,
      "note": 85,
      "start": 67.6401,
      "duration": 0.0899,
      "velocity": 107,
      "chip": "ym2612"
    },
    {
      "channel": 1,
      "note": 61,
      "start": 67.7627,
      "duration": 0.0961,
      "velocity": 97,
      "chip": "ym2612"
    },
    {
      "channel": 2,
      "note": 83,
      "start": 67.7644,
      "duration": 0.0947,
      "velocity": 107,
      "chip": "ym2612"
    },
    {
      "channel": 3,
      "note": 71,
      "start": 67.7666,
      "duration": 0.0117,
      "velocity": 127,
      "chip": "ym2612"
    },
    {
      "channel": 5,
      "note": 83,
      "start": 67.7684,
      "duration": 0.0915,
      "velocity": 107,
      "chip": "ym2612"
    },
    {
      "channel": 3,
      "note": 71,
      "start": 67.8284,
      "duration": 0.0149,
      "velocity": 127,
      "chip": "ym2612"
    },
    {
      "channel": 1,
      "note": 49,
      "start": 67.8929,
      "duration": 0.096,
      "velocity": 97,
      "chip": "ym2612"
    },
    {
      "channel": 2,
      "note": 81,
      "start": 67.8945,
      "duration": 0.0945,
      "velocity": 107,
      "chip": "ym2612"
    },
    {
      "channel": 3,
      "note": 71,
      "start": 67.8966,
      "duration": 0.0118,
      "velocity": 127,
      "chip": "ym2612"
    },
    {
      "channel": 5,
      "note": 85,
      "start": 67.8984,
      "duration": 0.0915,
      "velocity": 107,
      "chip": "ym2612"
    },
    {
      "channel": 1,
      "note": 61,
      "start": 68.0227,
      "duration": 0.0961,
      "velocity": 97,
      "chip": "ym2612"
    },
    {
      "channel": 2,
      "note": 83,
      "start": 68.0244,
      "duration": 0.0947,
      "velocity": 107,
      "chip": "ym2612"
    },
    {
      "channel": 3,
      "note": 71,
      "start": 68.0264,
      "duration": 0.012,
      "velocity": 127,
      "chip": "ym2612"
    },
    {
      "channel": 5,
      "note": 83,
      "start": 68.0282,
      "duration": 0.0918,
      "velocity": 107,
      "chip": "ym2612"
    },
    {
      "channel": 1,
      "note": 49,
      "start": 68.1529,
      "duration": 0.0961,
      "velocity": 97,
      "chip": "ym2612"
    },
    {
      "channel": 2,
      "note": 81,
      "start": 68.1546,
      "duration": 0.0947,
      "velocity": 107,
      "chip": "ym2612"
    },
    {
      "channel": 3,
      "note": 66,
      "start": 68.1568,
      "duration": 0.0115,
      "velocity": 127,
      "chip": "ym2612"
    },
    {
      "channel": 5,
      "note": 81,
      "start": 68.1586,
      "duration": 0.0915,
      "velocity": 107,
      "chip": "ym2612"
    },
    {
      "channel": 3,
      "note": 66,
      "start": 68.2184,
      "duration": 0.0149,
      "velocity": 127,
      "chip": "ym2612"
    },
    {
      "channel": 1,
      "note": 61,
      "start": 68.2827,
      "duration": 0.0967,
      "velocity": 97,
      "chip": "ym2612"
    },
    {
      "channel": 2,
      "note": 80,
      "start": 68.2844,
      "duration": 0.0952,
      "velocity": 107,
      "chip": "ym2612"
    },
    {
      "channel": 3,
      "note": 66,
      "start": 68.2864,
      "duration": 0.012,
      "velocity": 127,
      "chip": "ym2612"
    },
    {
      "channel": 5,
      "note": 83,
      "start": 68.2883,
      "duration": 0.0922,
      "velocity": 107,
      "chip": "ym2612"
    },
    {
      "channel": 1,
      "note": 49,
      "start": 68.4129,
      "duration": 0.0969,
      "velocity": 97,
      "chip": "ym2612"
    },
    {
      "channel": 2,
      "note": 81,
      "start": 68.4146,
      "duration": 0.0954,
      "velocity": 107,
      "chip": "ym2612"
    },
    {
      "channel": 3,
      "note": 64,
      "start": 68.42,
      "duration": 0.0084,
      "velocity": 127,
      "chip": "ym2612"
    },
    {
      "channel": 5,
      "note": 81,
      "start": 68.4219,
      "duration": 0.089,
      "velocity": 107,
      "chip": "ym2612"
    },
    {
      "channel": 1,
      "note": 61,
      "start": 68.5427,
      "duration": 0.0962,
      "velocity": 97,
      "chip": "ym2612"
    },
    {
      "channel": 2,
      "note": 80,
      "start": 68.5444,
      "duration": 0.0946,
      "velocity": 107,
      "chip": "ym2612"
    },
    {
      "channel": 3,
      "note": 64,
      "start": 68.5465,
      "duration": 0.0119,
      "velocity": 127,
      "chip": "ym2612"
    },
    {
      "channel": 5,
      "note": 80,
      "start": 68.5483,
      "duration": 0.0917,
      "velocity": 107,
      "chip": "ym2612"
    },
    {
      "channel": 1,
      "note": 49,
      "start": 68.6729,
      "duration": 0.0959,
      "velocity": 97,
      "chip": "ym2612"
    },
    {
      "channel": 2,
      "note": 78,
      "start": 68.6746,
      "duration": 0.0945,
      "velocity": 107,
      "chip": "ym2612"
    },
    {
      "channel": 3,
      "note": 64,
      "start": 68.6798,
      "duration": 0.0086,
      "velocity": 127,
      "chip": "ym2612"
    },
    {
      "channel": 5,
      "note": 81,
      "start": 68.6816,
      "duration": 0.0884,
      "velocity": 107,
      "chip": "ym2612"
    },
    {
      "channel": 1,
      "note": 61,
      "start": 68.8028,
      "duration": 0.0962,
      "velocity": 97,
      "chip": "ym2612"
    },
    {
      "channel": 2,
      "note": 80,
      "start": 68.8045,
      "duration": 0.0947,
      "velocity": 107,
      "chip": "ym2612"
    },
    {
      "channel": 3,
      "note": 64,
      "start": 68.8065,
      "duration": 0.0119,
      "velocity": 127,
      "chip": "ym2612"
    },
    {
      "channel": 5,
      "note": 80,
      "start": 68.8083,
      "duration": 0.0918,
      "velocity": 107,
      "chip": "ym2612"
    },
    {
      "channel": 0,
      "note": 66,
      "start": 68.9329,
      "duration": 0.763,
      "velocity": 99,
      "chip": "ym2612"
    },
    {
      "channel": 1,
      "note": 50,
      "start": 68.935,
      "duration": 0.1102,
      "velocity": 97,
      "chip": "ym2612"
    },
    {
      "channel": 2,
      "note": 74,
      "start": 68.9402,
      "duration": 0.7561,
      "velocity": 99,
      "chip": "ym2612"
    },
    {
      "channel": 3,
      "note": 64,
      "start": 68.9459,
      "duration": 0.0188,
      "velocity": 127,
      "chip": "ym2612"
    },
    {
      "channel": 5,
      "note": 78,
      "start": 68.9476,
      "duration": 0.0986,
      "velocity": 107,
      "chip": "ym2612"
    },
    {
      "channel": 1,
      "note": 62,
      "start": 69.0791,
      "duration": 0.0961,
      "velocity": 97,
      "chip": "ym2612"
    },
    {
      "channel": 3,
      "note": 64,
      "start": 69.0845,
      "duration": 0.0102,
      "velocity": 127,
      "chip": "ym2612"
    },
    {
      "channel": 5,
      "note": 80,
      "start": 69.0862,
      "duration": 0.0901,
      "velocity": 107,
      "chip": "ym2612"
    },
    {
      "channel": 1,
      "note": 50,
      "start": 69.2093,
      "duration": 0.0959,
      "velocity": 97,
      "chip": "ym2612"
    },
    {
      "channel": 3,
      "note": 64,
      "start": 69.2114,
      "duration": 0.0133,
      "velocity": 127,
      "chip": "ym2612"
    },
    {
      "channel": 4,
      "note": 66,
      "start": 69.2132,
      "duration": 0.7431,
      "velocity": 99,
      "chip": "ym2612"
    },
    {
      "channel": 5,
      "note": 74,
      "start": 69.2184,
      "duration": 0.7381,
      "velocity": 99,
      "chip": "ym2612"
    },
    {
      "channel": 1,
      "note": 62,
      "start": 69.3392,
      "duration": 0.0963,
      "velocity": 97,
      "chip": "ym2612"
    },
    {
      "channel": 3,
      "note": 64,
      "start": 69.3445,
      "duration": 0.0103,
      "velocity": 127,
      "chip": "ym2612"
    },
    {
      "channel": 1,
      "note": 50,
      "start": 69.4693,
      "duration": 0.0964,
      "velocity": 97,
      "chip": "ym2612"
    },
    {
      "channel": 3,
      "note": 64,
      "start": 69.4747,
      "duration": 0.01,
      "velocity": 127,
      "chip": "ym2612"
    },
    {
      "channel": 1,
      "note": 62,
      "start": 69.5991,
      "duration": 0.0969,
      "velocity": 97,
      "chip": "ym2612"
    },
    {
      "channel": 3,
      "note": 64,
      "start": 69.6012,
      "duration": 0.0135,
      "velocity": 127,
      "chip": "ym2612"
    },
    {
      "channel": 0,
      "note": 62,
      "start": 69.7294,
      "duration": 0.2258,
      "velocity": 99,
      "chip": "ym2612"
    },
    {
      "channel": 1,
      "note": 50,
      "start": 69.7312,
      "duration": 0.094,
      "velocity": 97,
      "chip": "ym2612"
    },
    {
      "channel": 2,
      "note": 69,
      "start": 69.7329,
      "duration": 0.0926,
      "velocity": 99,
      "chip": "ym2612"
    },
    {
      "channel": 3,
      "note": 64,
      "start": 69.7381,
      "duration": 0.0066,
      "velocity": 127,
      "chip": "ym2612"
    },
    {
      "channel": 1,
      "note": 62,
      "start": 69.8591,
      "duration": 0.0963,
      "velocity": 97,
      "chip": "ym2612"
    },
    {
      "channel": 3,
      "note": 64,
      "start": 69.8647,
      "duration": 0.0101,
      "velocity": 127,
      "chip": "ym2612"
    },
    {
      "channel": 0,
      "note": 64,
      "start": 69.9892,
      "duration": 0.226,
      "velocity": 99,
      "chip": "ym2612"
    },
    {
      "channel": 1,
      "note": 50,
      "start": 69.991,
      "duration": 0.0944,
      "velocity": 97,
      "chip": "ym2612"
    },
    {
      "channel": 2,
      "note": 69,
      "start": 69.9926,
      "duration": 0.093,
      "velocity": 99,
      "chip": "ym2612"
    },
    {
      "channel": 3,
      "note": 64,
      "start": 69.9978,
      "duration": 0.0085,
      "velocity": 127,
      "chip": "ym2612"
    },
    {
      "channel": 4,
      "note": 62,
      "start": 69.9998,
      "duration": 0.2165,
      "velocity": 99,
      "chip": "ym2612"
    },
    {
      "channel": 5,
      "note": 69,
      "start": 70.0015,
      "duration": 0.085,
      "velocity": 99,
      "chip": "ym2612"
    },
    {
      "channel": 1,
      "note": 62,
      "start": 70.1192,
      "duration": 0.0963,
      "velocity": 97,
      "chip": "ym2612"
    },
    {
      "channel": 3,
      "note": 64,
      "start": 70.1247,
      "duration": 0.0101,
      "velocity": 127,
      "chip": "ym2612"
    },
    {
      "channel": 0,
      "note": 66,
      "start": 70.2492,
      "duration": 0.226,
      "velocity": 99,
      "chip": "ym2612"
    },
    {
      "channel": 1,
      "note": 50,
      "start": 70.2509,
      "duration": 0.0944,
      "velocity": 97,
      "chip": "ym2612"
    },
    {
      "channel": 2,
      "note": 69,
      "start": 70.2526,
      "duration": 0.0929,
      "velocity": 99,
      "chip": "ym2612"
    },
    {
      "channel": 3,
      "note": 64,
      "start": 70.2579,
      "duration": 0.0081,
      "velocity": 127,
      "chip": "ym2612"
    },
    {
      "channel": 4,
      "note": 64,
      "start": 70.2595,
      "duration": 0.2168,
      "velocity": 99,
      "chip": "ym2612"
    },
    {
      "channel": 5,
      "note": 69,
      "start": 70.2612,
      "duration": 0.0852,
      "velocity": 99,
      "chip": "ym2612"
    },
    {
      "channel": 1,
      "note": 62,
      "start": 70.3792,
      "duration": 0.0962,
      "velocity": 97,
      "chip": "ym2612"
    },
    {
      "channel": 3,
      "note": 64,
      "start": 70.3815,
      "duration": 0.0134,
      "velocity": 127,
      "chip": "ym2612"
    },
    {
      "channel": 0,
      "note": 68,
      "start": 70.5093,
      "duration": 0.7623,
      "velocity": 99,
      "chip": "ym2612"
    },
    {
      "channel": 1,
      "note": 52,
      "start": 70.5112,
      "duration": 0.1104,
      "velocity": 97,
      "chip": "ym2612"
    },
    {
      "channel": 2,
      "note": 76,
      "start": 70.5128,
      "duration": 0.7591,
      "velocity": 99,
      "chip": "ym2612"
    },
    {
      "channel": 3,
      "note": 64,
      "start": 70.5182,
      "duration": 0.0228,
      "velocity": 127,
      "chip": "ym2612"
    },
    {
      "channel": 4,
      "note": 66,
      "start": 70.5199,
      "duration": 0.2328,
      "velocity": 99,
      "chip": "ym2612"
    },
    {
      "channel": 5,
      "note": 69,
      "start": 70.5215,
      "duration": 0.1011,
      "velocity": 99,
      "chip": "ym2612"
    },
    {
      "channel": 1,
      "note": 64,
      "start": 70.6555,
      "duration": 0.0963,
      "velocity": 97,
      "chip": "ym2612"
    },
    {
      "channel": 3,
      "note": 64,
      "start": 70.6609,
      "duration": 0.0103,
      "velocity": 127,
      "chip": "ym2612"
    },
    {
      "channel": 1,
      "note": 52,
      "start": 70.7857,
      "duration": 0.0965,
      "velocity": 97,
      "chip": "ym2612"
    },
    {
      "channel": 3,
      "note": 64,
      "start": 70.7878,
      "duration": 0.0133,
      "velocity": 127,
      "chip": "ym2612"
    },
    {
      "channel": 4,
      "note": 68,
      "start": 70.7895,
      "duration": 0.7431,
      "velocity": 99,
      "chip": "ym2612"
    },
    {
      "channel": 5,
      "note": 76,
      "start": 70.7912,
      "duration": 0.7417,
      "velocity": 99,
      "chip": "ym2612"
    },
    {
      "channel": 1,
      "note": 64,
      "start": 70.9155,
      "duration": 0.097,
      "velocity": 97,
      "chip": "ym2612"
    },
    {
      "channel": 3,
      "note": 64,
      "start": 70.9208,
      "duration": 0.0104,
      "velocity": 127,
      "chip": "ym2612"
    },
    {
      "channel": 1,
      "note": 52,
      "start": 71.0456,
      "duration": 0.096,
      "velocity": 97,
      "chip": "ym2612"
    },
    {
      "channel": 3,
      "note": 64,
      "start": 71.051,
      "duration": 0.0101,
      "velocity": 127,
      "chip": "ym2612"
    },
    {
      "channel": 1,
      "note": 64,
      "start": 71.1756,
      "duration": 0.0962,
      "velocity": 97,
      "chip": "ym2612"
    },
    {
      "channel": 3,
      "note": 64,
      "start": 71.1777,
      "duration": 0.0134,
      "velocity": 127,
      "chip": "ym2612"
    },
    {
      "channel": 0,
      "note": 68,
      "start": 71.3056,
      "duration": 0.226,
      "velocity": 99,
      "chip": "ym2612"
    },
    {
      "channel": 1,
      "note": 52,
      "start": 71.3074,
      "duration": 0.0943,
      "velocity": 97,
      "chip": "ym2612"
    },
    {
      "channel": 2,
      "note": 71,
      "start": 71.309,
      "duration": 0.0929,
      "velocity": 99,
      "chip": "ym2612"
    },
    {
      "channel": 3,
      "note": 64,
      "start": 71.3142,
      "duration": 0.007,
      "velocity": 127,
      "chip": "ym2612"
    },
    {
      "channel": 1,
      "note": 64,
      "start": 71.4355,
      "duration": 0.0963,
      "velocity": 97,
      "chip": "ym2612"
    },
    {
      "channel": 3,
      "note": 64,
      "start": 71.4411,
      "duration": 0.01,
      "velocity": 127,
      "chip": "ym2612"
    },
    {
      "channel": 0,
      "note": 66,
      "start": 71.5659,
      "duration": 0.242,
      "velocity": 99,
      "chip": "ym2612"
    },
    {
      "channel": 1,
      "note": 52,
      "start": 71.5677,
      "duration": 0.1102,
      "velocity": 97,
      "chip": "ym2612"
    },
    {
      "channel": 2,
      "note": 71,
      "start": 71.5693,
      "duration": 0.1088,
      "velocity": 99,
      "chip": "ym2612"
    },
    {
      "channel": 3,
      "note": 64,
      "start": 71.5745,
      "duration": 0.0229,
      "velocity": 127,
      "chip": "ym2612"
    },
    {
      "channel": 4,
      "note": 68,
      "start": 71.5763,
      "duration": 0.2327,
      "velocity": 99,
      "chip": "ym2612"
    },
    {
      "channel": 5,
      "note": 71,
      "start": 71.5779,
      "duration": 0.1011,
      "velocity": 99,
      "chip": "ym2612"
    },
    {
      "channel": 1,
      "note": 64,
      "start": 71.7118,
      "duration": 0.0962,
      "velocity": 97,
      "chip": "ym2612"
    },
    {
      "channel": 3,
      "note": 64,
      "start": 71.7173,
      "duration": 0.0101,
      "velocity": 127,
      "chip": "ym2612"
    },
    {
      "channel": 0,
      "note": 64,
      "start": 71.8418,
      "duration": 0.2265,
      "velocity": 99,
      "chip": "ym2612"
    },
    {
      "channel": 1,
      "note": 52,
      "start": 71.8436,
      "duration": 0.0945,
      "velocity": 97,
      "chip": "ym2612"
    },
    {
      "channel": 2,
      "note": 71,
      "start": 71.8453,
      "duration": 0.0931,
      "velocity": 99,
      "chip": "ym2612"
    },
    {
      "channel": 3,
      "note": 64,
      "start": 71.8505,
      "duration": 0.0085,
      "velocity": 127,
      "chip": "ym2612"
    },
    {
      "channel": 4,
      "note": 66,
      "start": 71.8525,
      "duration": 0.217,
      "velocity": 99,
      "chip": "ym2612"
    },
    {
      "channel": 5,
      "note": 71,
      "start": 71.8541,
      "duration": 0.0851,
      "velocity": 99,
      "chip": "ym2612"
    },
    {
      "channel": 1,
      "note": 64,
      "start": 71.9719,
      "duration": 0.0966,
      "velocity": 97,
      "chip": "ym2612"
    },
    {
      "channel": 3,
      "note": 64,
      "start": 71.9741,
      "duration": 0.0134,
      "velocity": 127,
      "chip": "ym2612"
    },
    {
      "channel": 0,
      "note": 66,
      "start": 72.102,
      "duration": 3.1025,
      "velocity": 99,
      "chip": "ym2612"
    },
    {
      "channel": 1,
      "note": 54,
      "start": 72.1041,
      "duration": 0.1101,
      "velocity": 97,
      "chip": "ym2612"
    },
    {
      "channel": 2,
      "note": 73,
      "start": 72.1061,
      "duration": 3.0988,
      "velocity": 99,
      "chip": "ym2612"
    },
    {
      "channel": 3,
      "note": 64,
      "start": 72.1116,
      "duration": 0.0227,
      "velocity": 127,
      "chip": "ym2612"
    },
    {
      "channel": 4,
      "note": 64,
      "start": 72.1133,
      "duration": 0.2319,
      "velocity": 99,
      "chip": "ym2612"
    },
    {
      "channel": 5,
      "note": 71,
      "start": 72.1149,
      "duration": 0.1003,
      "velocity": 99,
      "chip": "ym2612"
    },
    {
      "channel": 1,
      "note": 66,
      "start": 72.2481,
      "duration": 0.0961,
      "velocity": 97,
      "chip": "ym2612"
    },
    {
      "channel": 3,
      "note": 64,
      "start": 72.2535,
      "duration": 0.0112,
      "velocity": 127,
      "chip": "ym2612"
    },
    {
      "channel": 1,
      "note": 54,
      "start": 72.3783,
      "duration": 0.096,
      "velocity": 97,
      "chip": "ym2612"
    },
    {
      "channel": 3,
      "note": 64,
      "start": 72.3805,
      "duration": 0.0134,
      "velocity": 127,
      "chip": "ym2612"
    },
    {
      "channel": 4,
      "note": 66,
      "start": 72.3822,
      "duration": 3.0833,
      "velocity": 99,
      "chip": "ym2612"
    },
    {
      "channel": 5,
      "note": 73,
      "start": 72.3841,
      "duration": 3.0815,
      "velocity": 99,
      "chip": "ym2612"
    },
    {
      "channel": 1,
      "note": 66,
      "start": 72.5081,
      "duration": 0.0962,
      "velocity": 97,
      "chip": "ym2612"
    },
    {
      "channel": 3,
      "note": 64,
      "start": 72.5135,
      "duration": 0.0103,
      "velocity": 127,
      "chip": "ym2612"
    },
    {
      "channel": 1,
      "note": 54,
      "start": 72.6383,
      "duration": 0.0959,
      "velocity": 97,
      "chip": "ym2612"
    },
    {
      "channel": 3,
      "note": 64,
      "start": 72.6437,
      "duration": 0.0101,
      "velocity": 127,
      "chip": "ym2612"
    },
    {
      "channel": 1,
      "note": 66,
      "start": 72.7682,
      "duration": 0.0961,
      "velocity": 97,
      "chip": "ym2612"
    },
    {
      "channel": 3,
      "note": 64,
      "start": 72.7703,
      "duration": 0.0135,
      "velocity": 127,
      "chip": "ym2612"
    },
    {
      "channel": 1,
      "note": 54,
      "start": 72.8983,
      "duration": 0.096,
      "velocity": 97,
      "chip": "ym2612"
    },
    {
      "channel": 3,
      "note": 64,
      "start": 72.9038,
      "duration": 0.01,
      "velocity": 127,
      "chip": "ym2612"
    },
    {
      "channel": 1,
      "note": 66,
      "start": 73.0282,
      "duration": 0.0961,
      "velocity": 97,
      "chip": "ym2612"
    },
    {
      "channel": 3,
      "note": 64,
      "start": 73.0335,
      "duration": 0.0103,
      "velocity": 127,
      "chip": "ym2612"
    },
    {
      "channel": 1,
      "note": 54,
      "start": 73.1584,
      "duration": 0.0963,
      "velocity": 97,
      "chip": "ym2612"
    },
    {
      "channel": 3,
      "note": 64,
      "start": 73.1605,
      "duration": 0.0133,
      "velocity": 127,
      "chip": "ym2612"
    },
    {
      "channel": 1,
      "note": 66,
      "start": 73.2882,
      "duration": 0.0967,
      "velocity": 97,
      "chip": "ym2612"
    },
    {
      "channel": 3,
      "note": 64,
      "start": 73.2936,
      "duration": 0.0103,
      "velocity": 127,
      "chip": "ym2612"
    },
    {
      "channel": 1,
      "note": 54,
      "start": 73.4184,
      "duration": 0.0968,
      "velocity": 97,
      "chip": "ym2612"
    },
    {
      "channel": 3,
      "note": 64,
      "start": 73.4238,
      "duration": 0.0101,
      "velocity": 127,
      "chip": "ym2612"
    },
    {
      "channel": 1,
      "note": 66,
      "start": 73.5482,
      "duration": 0.0962,
      "velocity": 97,
      "chip": "ym2612"
    },
    {
      "channel": 3,
      "note": 64,
      "start": 73.5504,
      "duration": 0.0135,
      "velocity": 127,
      "chip": "ym2612"
    },
    {
      "channel": 1,
      "note": 54,
      "start": 73.6799,
      "duration": 0.0945,
      "velocity": 97,
      "chip": "ym2612"
    },
    {
      "channel": 3,
      "note": 64,
      "start": 73.6872,
      "duration": 0.0076,
      "velocity": 127,
      "chip": "ym2612"
    },
    {
      "channel": 1,
      "note": 66,
      "start": 73.8083,
      "duration": 0.0962,
      "velocity": 97,
      "chip": "ym2612"
    },
    {
      "channel": 3,
      "note": 64,
      "start": 73.8138,
      "duration": 0.0101,
      "velocity": 127,
      "chip": "ym2612"
    },
    {
      "channel": 1,
      "note": 54,
      "start": 73.9385,
      "duration": 0.0959,
      "velocity": 97,
      "chip": "ym2612"
    },
    {
      "channel": 3,
      "note": 64,
      "start": 73.9408,
      "duration": 0.0131,
      "velocity": 127,
      "chip": "ym2612"
    },
    {
      "channel": 1,
      "note": 66,
      "start": 74.0683,
      "duration": 0.0961,
      "velocity": 97,
      "chip": "ym2612"
    },
    {
      "channel": 3,
      "note": 64,
      "start": 74.0706,
      "duration": 0.0134,
      "velocity": 127,
      "chip": "ym2612"
    },
    {
      "channel": 1,
      "note": 54,
      "start": 74.1985,
      "duration": 0.096,
      "velocity": 97,
      "chip": "ym2612"
    },
    {
      "channel": 3,
      "note": 64,
      "start": 74.2008,
      "duration": 0.0131,
      "velocity": 127,
      "chip": "ym2612"
    },
    {
      "channel": 1,
      "note": 66,
      "start": 74.3283,
      "duration": 0.0962,
      "velocity": 97,
      "chip": "ym2612"
    },
    {
      "channel": 3,
      "note": 64,
      "start": 74.3306,
      "duration": 0.0133,
      "velocity": 127,
      "chip": "ym2612"
    },
    {
      "channel": 1,
      "note": 54,
      "start": 74.4585,
      "duration": 0.096,
      "velocity": 97,
      "chip": "ym2612"
    },
    {
      "channel": 3,
      "note": 64,
      "start": 74.4608,
      "duration": 0.0132,
      "velocity": 127,
      "chip": "ym2612"
    },
    {
      "channel": 1,
      "note": 66,
      "start": 74.5884,
      "duration": 0.0961,
      "velocity": 97,
      "chip": "ym2612"
    },
    {
      "channel": 3,
      "note": 64,
      "start": 74.5907,
      "duration": 0.0133,
      "velocity": 127,
      "chip": "ym2612"
    },
    {
      "channel": 1,
      "note": 54,
      "start": 74.7185,
      "duration": 0.096,
      "velocity": 97,
      "chip": "ym2612"
    },
    {
      "channel": 3,
      "note": 64,
      "start": 74.7208,
      "duration": 0.0132,
      "velocity": 127,
      "chip": "ym2612"
    },
    {
      "channel": 1,
      "note": 66,
      "start": 74.8484,
      "duration": 0.0961,
      "velocity": 97,
      "chip": "ym2612"
    },
    {
      "channel": 3,
      "note": 64,
      "start": 74.8507,
      "duration": 0.0133,
      "velocity": 127,
      "chip": "ym2612"
    },
    {
      "channel": 1,
      "note": 64,
      "start": 74.9785,
      "duration": 0.096,
      "velocity": 97,
      "chip": "ym2612"
    },
    {
      "channel": 3,
      "note": 64,
      "start": 74.9808,
      "duration": 0.0132,
      "velocity": 127,
      "chip": "ym2612"
    },
    {
      "channel": 1,
      "note": 62,
      "start": 75.1084,
      "duration": 0.0963,
      "velocity": 97,
      "chip": "ym2612"
    },
    {
      "channel": 3,
      "note": 64,
      "start": 75.1107,
      "duration": 0.0133,
      "velocity": 127,
      "chip": "ym2612"
    },
    {
      "channel": 0,
      "note": 62,
      "start": 75.2385,
      "duration": 0.7461,
      "velocity": 99,
      "chip": "ym2612"
    },
    {
      "channel": 1,
      "note": 50,
      "start": 75.2405,
      "duration": 0.094,
      "velocity": 97,
      "chip": "ym2612"
    },
    {
      "channel": 2,
      "note": 74,
      "start": 75.2425,
      "duration": 0.7424,
      "velocity": 99,
      "chip": "ym2612"
    },
    {
      "channel": 3,
      "note": 64,
      "start": 75.2483,
      "duration": 0.0061,
      "velocity": 127,
      "chip": "ym2612"
    },
    {
      "channel": 1,
      "note": 62,
      "start": 75.3684,
      "duration": 0.0961,
      "velocity": 97,
      "chip": "ym2612"
    },
    {
      "channel": 3,
      "note": 64,
      "start": 75.3738,
      "duration": 0.0103,
      "velocity": 127,
      "chip": "ym2612"
    },
    {
      "channel": 1,
      "note": 50,
      "start": 75.4986,
      "duration": 0.096,
      "velocity": 97,
      "chip": "ym2612"
    },
    {
      "channel": 3,
      "note": 64,
      "start": 75.5007,
      "duration": 0.0133,
      "velocity": 127,
      "chip": "ym2612"
    },
    {
      "channel": 4,
      "note": 62,
      "start": 75.5025,
      "duration": 0.7431,
      "velocity": 99,
      "chip": "ym2612"
    },
    {
      "channel": 5,
      "note": 74,
      "start": 75.5044,
      "duration": 0.7414,
      "velocity": 99,
      "chip": "ym2612"
    },
    {
      "channel": 1,
      "note": 62,
      "start": 75.6285,
      "duration": 0.0961,
      "velocity": 97,
      "chip": "ym2612"
    },
    {
      "channel": 3,
      "note": 64,
      "start": 75.6338,
      "duration": 0.0103,
      "velocity": 127,
      "chip": "ym2612"
    },
    {
      "channel": 1,
      "note": 50,
      "start": 75.7588,
      "duration": 0.0958,
      "velocity": 97,
      "chip": "ym2612"
    },
    {
      "channel": 3,
      "note": 64,
      "start": 75.7642,
      "duration": 0.0099,
      "velocity": 127,
      "chip": "ym2612"
    },
    {
      "channel": 1,
      "note": 62,
      "start": 75.889,
      "duration": 0.0957,
      "velocity": 97,
      "chip": "ym2612"
    },
    {
      "channel": 3,
      "note": 64,
      "start": 75.8912,
      "duration": 0.0129,
      "velocity": 127,
      "chip": "ym2612"
    },
    {
      "channel": 0,
      "note": 62,
      "start": 76.0197,
      "duration": 0.2248,
      "velocity": 99,
      "chip": "ym2612"
    },
    {
      "channel": 1,
      "note": 50,
      "start": 76.0215,
      "duration": 0.0931,
      "velocity": 97,
      "chip": "ym2612"
    },
    {
      "channel": 2,
      "note": 69,
      "start": 76.0232,
      "duration": 0.0917,
      "velocity": 99,
      "chip": "ym2612"
    },
    {
      "channel": 3,
      "note": 64,
      "start": 76.0284,
      "duration": 0.0057,
      "velocity": 127,
      "chip": "ym2612"
    },
    {
      "channel": 1,
      "note": 62,
      "start": 76.1485,
      "duration": 0.0962,
      "velocity": 97,
      "chip": "ym2612"
    },
    {
      "channel": 3,
      "note": 64,
      "start": 76.154,
      "duration": 0.0101,
      "velocity": 127,
      "chip": "ym2612"
    },
    {
      "channel": 0,
      "note": 64,
      "start": 76.2785,
      "duration": 0.2422,
      "velocity": 99,
      "chip": "ym2612"
    },
    {
      "channel": 1,
      "note": 50,
      "start": 76.2802,
      "duration": 0.1106,
      "velocity": 97,
      "chip": "ym2612"
    },
    {
      "channel": 2,
      "note": 69,
      "start": 76.2819,
      "duration": 0.1092,
      "velocity": 99,
      "chip": "ym2612"
    },
    {
      "channel": 3,
      "note": 64,
      "start": 76.2871,
      "duration": 0.0233,
      "velocity": 127,
      "chip": "ym2612"
    },
    {
      "channel": 4,
      "note": 62,
      "start": 76.2892,
      "duration": 0.2328,
      "velocity": 99,
      "chip": "ym2612"
    },
    {
      "channel": 5,
      "note": 69,
      "start": 76.2908,
      "duration": 0.1012,
      "velocity": 99,
      "chip": "ym2612"
    },
    {
      "channel": 1,
      "note": 62,
      "start": 76.4248,
      "duration": 0.0963,
      "velocity": 97,
      "chip": "ym2612"
    },
    {
      "channel": 3,
      "note": 64,
      "start": 76.4302,
      "duration": 0.0102,
      "velocity": 127,
      "chip": "ym2612"
    },
    {
      "channel": 0,
      "note": 66,
      "start": 76.5548,
      "duration": 0.226,
      "velocity": 99,
      "chip": "ym2612"
    },
    {
      "channel": 1,
      "note": 50,
      "start": 76.5566,
      "duration": 0.0943,
      "velocity": 97,
      "chip": "ym2612"
    },
    {
      "channel": 2,
      "note": 69,
      "start": 76.5583,
      "duration": 0.0929,
      "velocity": 99,
      "chip": "ym2612"
    },
    {
      "channel": 3,
      "note": 64,
      "start": 76.5635,
      "duration": 0.0082,
      "velocity": 127,
      "chip": "ym2612"
    },
    {
      "channel": 4,
      "note": 64,
      "start": 76.5651,
      "duration": 0.2168,
      "velocity": 99,
      "chip": "ym2612"
    },
    {
      "channel": 5,
      "note": 69,
      "start": 76.5668,
      "duration": 0.0853,
      "velocity": 99,
      "chip": "ym2612"
    },
    {
      "channel": 1,
      "note": 62,
      "start": 76.6848,
      "duration": 0.0962,
      "velocity": 97,
      "chip": "ym2612"
    },
    {
      "channel": 3,
      "note": 64,
      "start": 76.6871,
      "duration": 0.0134,
      "velocity": 127,
      "chip": "ym2612"
    },
    {
      "channel": 0,
      "note": 68,
      "start": 76.8149,
      "duration": 0.7623,
      "velocity": 99,
      "chip": "ym2612"
    },
    {
      "channel": 1,
      "note": 52,
      "start": 76.8168,
      "duration": 0.1104,
      "velocity": 97,
      "chip": "ym2612"
    },
    {
      "channel": 2,
      "note": 76,
      "start": 76.8184,
      "duration": 0.7592,
      "velocity": 99,
      "chip": "ym2612"
    },
    {
      "channel": 3,
      "note": 64,
      "start": 76.8239,
      "duration": 0.0228,
      "velocity": 127,
      "chip": "ym2612"
    },
    {
      "channel": 4,
      "note": 66,
      "start": 76.8256,
      "duration": 0.2325,
      "velocity": 99,
      "chip": "ym2612"
    },
    {
      "channel": 5,
      "note": 69,
      "start": 76.8273,
      "duration": 0.101,
      "velocity": 99,
      "chip": "ym2612"
    },
    {
      "channel": 1,
      "note": 64,
      "start": 76.961,
      "duration": 0.0961,
      "velocity": 97,
      "chip": "ym2612"
    },
    {
      "channel": 3,
      "note": 64,
      "start": 76.9665,
      "duration": 0.0102,
      "velocity": 127,
      "chip": "ym2612"
    },
    {
      "channel": 1,
      "note": 52,
      "start": 77.0913,
      "duration": 0.0959,
      "velocity": 97,
      "chip": "ym2612"
    },
    {
      "channel": 3,
      "note": 64,
      "start": 77.0934,
      "duration": 0.0133,
      "velocity": 127,
      "chip": "ym2612"
    },
    {
      "channel": 4,
      "note": 68,
      "start": 77.0951,
      "duration": 0.7432,
      "velocity": 99,
      "chip": "ym2612"
    },
    {
      "channel": 5,
      "note": 76,
      "start": 77.0968,
      "duration": 0.7417,
      "velocity": 99,
      "chip": "ym2612"
    },
    {
      "channel": 1,
      "note": 64,
      "start": 77.2212,
      "duration": 0.0961,
      "velocity": 97,
      "chip": "ym2612"
    },
    {
      "channel": 3,
      "note": 64,
      "start": 77.2265,
      "duration": 0.0103,
      "velocity": 127,
      "chip": "ym2612"
    },
    {
      "channel": 1,
      "note": 52,
      "start": 77.3512,
      "duration": 0.096,
      "velocity": 97,
      "chip": "ym2612"
    },
    {
      "channel": 3,
      "note": 64,
      "start": 77.3566,
      "duration": 0.0102,
      "velocity": 127,
      "chip": "ym2612"
    },
    {
      "channel": 1,
      "note": 64,
      "start": 77.4811,
      "duration": 0.0962,
      "velocity": 97,
      "chip": "ym2612"
    },
    {
      "channel": 3,
      "note": 64,
      "start": 77.4832,
      "duration": 0.0135,
      "velocity": 127,
      "chip": "ym2612"
    },
    {
      "channel": 0,
      "note": 68,
      "start": 77.6112,
      "duration": 0.226,
      "velocity": 99,
      "chip": "ym2612"
    },
    {
      "channel": 1,
      "note": 52,
      "start": 77.6129,
      "duration": 0.0943,
      "velocity": 97,
      "chip": "ym2612"
    },
    {
      "channel": 2,
      "note": 71,
      "start": 77.6146,
      "duration": 0.0929,
      "velocity": 99,
      "chip": "ym2612"
    },
    {
      "channel": 3,
      "note": 64,
      "start": 77.6198,
      "duration": 0.0069,
      "velocity": 127,
      "chip": "ym2612"
    },
    {
      "channel": 1,
      "note": 64,
      "start": 77.7411,
      "duration": 0.0963,
      "velocity": 97,
      "chip": "ym2612"
    },
    {
      "channel": 3,
      "note": 64,
      "start": 77.7467,
      "duration": 0.0101,
      "velocity": 127,
      "chip": "ym2612"
    },
    {
      "channel": 0,
      "note": 69,
      "start": 77.8715,
      "duration": 0.2419,
      "velocity": 99,
      "chip": "ym2612"
    },
    {
      "channel": 1,
      "note": 52,
      "start": 77.8733,
      "duration": 0.1103,
      "velocity": 97,
      "chip": "ym2612"
    },
    {
      "channel": 2,
      "note": 71,
      "start": 77.8749,
      "duration": 0.1088,
      "velocity": 99,
      "chip": "ym2612"
    },
    {
      "channel": 3,
      "note": 64,
      "start": 77.8801,
      "duration": 0.0229,
      "velocity": 127,
      "chip": "ym2612"
    },
    {
      "channel": 4,
      "note": 68,
      "start": 77.8819,
      "duration": 0.2327,
      "velocity": 99,
      "chip": "ym2612"
    },
    {
      "channel": 5,
      "note": 71,
      "start": 77.8835,
      "duration": 0.1011,
      "velocity": 99,
      "chip": "ym2612"
    },
    {
      "channel": 1,
      "note": 64,
      "start": 78.0174,
      "duration": 0.0962,
      "velocity": 97,
      "chip": "ym2612"
    },
    {
      "channel": 3,
      "note": 64,
      "start": 78.023,
      "duration": 0.01,
      "velocity": 127,
      "chip": "ym2612"
    },
    {
      "channel": 0,
      "note": 68,
      "start": 78.1475,
      "duration": 0.2428,
      "velocity": 99,
      "chip": "ym2612"
    },
    {
      "channel": 1,
      "note": 52,
      "start": 78.1492,
      "duration": 0.1108,
      "velocity": 97,
      "chip": "ym2612"
    },
    {
      "channel": 2,
      "note": 71,
      "start": 78.1509,
      "duration": 0.1094,
      "velocity": 99,
      "chip": "ym2612"
    },
    {
      "channel": 3,
      "note": 64,
      "start": 78.1561,
      "duration": 0.0232,
      "velocity": 127,
      "chip": "ym2612"
    },
    {
      "channel": 4,
      "note": 69,
      "start": 78.1581,
      "duration": 0.2333,
      "velocity": 99,
      "chip": "ym2612"
    },
    {
      "channel": 5,
      "note": 71,
      "start": 78.1598,
      "duration": 0.1013,
      "velocity": 99,
      "chip": "ym2612"
    },
    {
      "channel": 1,
      "note": 64,
      "start": 78.2937,
      "duration": 0.0968,
      "velocity": 97,
      "chip": "ym2612"
    },
    {
      "channel": 3,
      "note": 64,
      "start": 78.296,
      "duration": 0.0134,
      "velocity": 127,
      "chip": "ym2612"
    },
    {
      "channel": 0,
      "note": 66,
      "start": 78.4238,
      "duration": 3.1025,
      "velocity": 99,
      "chip": "ym2612"
    },
    {
      "channel": 1,
      "note": 54,
      "start": 78.4259,
      "duration": 0.1102,
      "velocity": 97,
      "chip": "ym2612"
    },
    {
      "channel": 2,
      "note": 70,
      "start": 78.4279,
      "duration": 3.0987,
      "velocity": 99,
      "chip": "ym2612"
    },
    {
      "channel": 3,
      "note": 64,
      "start": 78.4334,
      "duration": 0.0229,
      "velocity": 127,
      "chip": "ym2612"
    },
    {
      "channel": 4,
      "note": 68,
      "start": 78.4351,
      "duration": 0.2319,
      "velocity": 99,
      "chip": "ym2612"
    },
    {
      "channel": 5,
      "note": 71,
      "start": 78.4368,
      "duration": 0.1003,
      "velocity": 99,
      "chip": "ym2612"
    },
    {
      "channel": 1,
      "note": 66,
      "start": 78.57,
      "duration": 0.0961,
      "velocity": 97,
      "chip": "ym2612"
    },
    {
      "channel": 3,
      "note": 64,
      "start": 78.5754,
      "duration": 0.0102,
      "velocity": 127,
      "chip": "ym2612"
    },
    {
      "channel": 1,
      "note": 54,
      "start": 78.7002,
      "duration": 0.0959,
      "velocity": 97,
      "chip": "ym2612"
    },
    {
      "channel": 3,
      "note": 64,
      "start": 78.7023,
      "duration": 0.0133,
      "velocity": 127,
      "chip": "ym2612"
    },
    {
      "channel": 4,
      "note": 66,
      "start": 78.704,
      "duration": 3.0995,
      "velocity": 99,
      "chip": "ym2612"
    },
    {
      "channel": 5,
      "note": 70,
      "start": 78.706,
      "duration": 3.0977,
      "velocity": 99,
      "chip": "ym2612"
    },
    {
      "channel": 1,
      "note": 66,
      "start": 78.83,
      "duration": 0.0961,
      "velocity": 97,
      "chip": "ym2612"
    },
    {
      "channel": 3,
      "note": 64,
      "start": 78.8354,
      "duration": 0.0104,
      "velocity": 127,
      "chip": "ym2612"
    },
    {
      "channel": 1,
      "note": 54,
      "start": 78.9602,
      "duration": 0.096,
      "velocity": 97,
      "chip": "ym2612"
    },
    {
      "channel": 3,
      "note": 64,
      "start": 78.9655,
      "duration": 0.0101,
      "velocity": 127,
      "chip": "ym2612"
    },
    {
      "channel": 1,
      "note": 66,
      "start": 79.09,
      "duration": 0.0962,
      "velocity": 97,
      "chip": "ym2612"
    },
    {
      "channel": 3,
      "note": 64,
      "start": 79.0922,
      "duration": 0.0135,
      "velocity": 127,
      "chip": "ym2612"
    },
    {
      "channel": 1,
      "note": 54,
      "start": 79.2203,
      "duration": 0.0959,
      "velocity": 97,
      "chip": "ym2612"
    },
    {
      "channel": 3,
      "note": 64,
      "start": 79.2258,
      "duration": 0.0099,
      "velocity": 127,
      "chip": "ym2612"
    },
    {
      "channel": 1,
      "note": 66,
      "start": 79.35,
      "duration": 0.0962,
      "velocity": 97,
      "chip": "ym2612"
    },
    {
      "channel": 3,
      "note": 64,
      "start": 79.3554,
      "duration": 0.0102,
      "velocity": 127,
      "chip": "ym2612"
    },
    {
      "channel": 1,
      "note": 54,
      "start": 79.4802,
      "duration": 0.0964,
      "velocity": 97,
      "chip": "ym2612"
    },
    {
      "channel": 3,
      "note": 64,
      "start": 79.4824,
      "duration": 0.0133,
      "velocity": 127,
      "chip": "ym2612"
    },
    {
      "channel": 1,
      "note": 66,
      "start": 79.6101,
      "duration": 0.0968,
      "velocity": 97,
      "chip": "ym2612"
    },
    {
      "channel": 3,
      "note": 64,
      "start": 79.6154,
      "duration": 0.0102,
      "velocity": 127,
      "chip": "ym2612"
    },
    {
      "channel": 1,
      "note": 54,
      "start": 79.7402,
      "duration": 0.096,
      "velocity": 97,
      "chip": "ym2612"
    },
    {
      "channel": 3,
      "note": 64,
      "start": 79.7456,
      "duration": 0.0101,
      "velocity": 127,
      "chip": "ym2612"
    },
    {
      "channel": 1,
      "note": 66,
      "start": 79.8701,
      "duration": 0.0961,
      "velocity": 97,
      "chip": "ym2612"
    },
    {
      "channel": 3,
      "note": 64,
      "start": 79.8723,
      "duration": 0.0134,
      "velocity": 127,
      "chip": "ym2612"
    },
    {
      "channel": 1,
      "note": 54,
      "start": 80.0018,
      "duration": 0.0944,
      "velocity": 97,
      "chip": "ym2612"
    },
    {
      "channel": 3,
      "note": 64,
      "start": 80.0091,
      "duration": 0.0074,
      "velocity": 127,
      "chip": "ym2612"
    },
    {
      "channel": 1,
      "note": 61,
      "start": 80.1301,
      "duration": 0.2261,
      "velocity": 97,
      "chip": "ym2612"
    },
    {
      "channel": 3,
      "note": 64,
      "start": 80.1355,
      "duration": 0.0103,
      "velocity": 127,
      "chip": "ym2612"
    },
    {
      "channel": 3,
      "note": 64,
      "start": 80.2622,
      "duration": 0.0135,
      "velocity": 127,
      "chip": "ym2612"
    },
    {
      "channel": 1,
      "note": 52,
      "start": 80.3902,
      "duration": 0.0148,
      "velocity": 97,
      "chip": "ym2612"
    },
    {
      "channel": 3,
      "note": 64,
      "start": 80.3955,
      "duration": 0.0104,
      "velocity": 127,
      "chip": "ym2612"
    },
    {
      "channel": 1,
      "note": 64,
      "start": 80.5203,
      "duration": 0.096,
      "velocity": 97,
      "chip": "ym2612"
    },
    {
      "channel": 3,
      "note": 64,
      "start": 80.5256,
      "duration": 0.0102,
      "velocity": 127,
      "chip": "ym2612"
    },
    {
      "channel": 1,
      "note": 54,
      "start": 80.6502,
      "duration": 0.0961,
      "velocity": 97,
      "chip": "ym2612"
    },
    {
      "channel": 3,
      "note": 64,
      "start": 80.6558,
      "duration": 0.0101,
      "velocity": 127,
      "chip": "ym2612"
    },
    {
      "channel": 3,
      "note": 64,
      "start": 80.784,
      "duration": 0.0118,
      "velocity": 127,
      "chip": "ym2612"
    },
    {
      "channel": 1,
      "note": 54,
      "start": 80.9102,
      "duration": 0.0961,
      "velocity": 97,
      "chip": "ym2612"
    },
    {
      "channel": 3,
      "note": 64,
      "start": 80.9157,
      "duration": 0.0101,
      "velocity": 127,
      "chip": "ym2612"
    },
    {
      "channel": 3,
      "note": 64,
      "start": 81.0441,
      "duration": 0.0118,
      "velocity": 127,
      "chip": "ym2612"
    },
    {
      "channel": 1,
      "note": 56,
      "start": 81.1703,
      "duration": 0.0148,
      "velocity": 97,
      "chip": "ym2612"
    },
    {
      "channel": 3,
      "note": 64,
      "start": 81.1759,
      "duration": 0.01,
      "velocity": 127,
      "chip": "ym2612"
    },
    {
      "channel": 1,
      "note": 59,
      "start": 81.3002,
      "duration": 0.0149,
      "velocity": 97,
      "chip": "ym2612"
    },
    {
      "channel": 3,
      "note": 64,
      "start": 81.3056,
      "duration": 0.0103,
      "velocity": 127,
      "chip": "ym2612"
    },
    {
      "channel": 1,
      "note": 52,
      "start": 81.4302,
      "duration": 0.0148,
      "velocity": 97,
      "chip": "ym2612"
    },
    {
      "channel": 3,
      "note": 64,
      "start": 81.4324,
      "duration": 0.0135,
      "velocity": 127,
      "chip": "ym2612"
    },
    {
      "channel": 0,
      "note": 66,
      "start": 81.5647,
      "duration": 0.1078,
      "velocity": 103,
      "chip": "ym2612"
    },
    {
      "channel": 1,
      "note": 66,
      "start": 81.5707,
      "duration": 1.1422,
      "velocity": 97,
      "chip": "ym2612"
    },
    {
      "channel": 2,
      "note": 54,
      "start": 81.577,
      "duration": 1.1696,
      "velocity": 115,
      "chip": "ym2612"
    },
    {
      "channel": 3,
      "note": 64,
      "start": 81.5836,
      "duration": 0.0085,
      "velocity": 127,
      "chip": "ym2612"
    },
    {
      "channel": 0,
      "note": 74,
      "start": 81.7065,
      "duration": 0.096,
      "velocity": 103,
      "chip": "ym2612"
    },
    {
      "channel": 0,
      "note": 73,
      "start": 81.8366,
      "duration": 0.096,
      "velocity": 103,
      "chip": "ym2612"
    },
    {
      "channel": 4,
      "note": 66,
      "start": 81.8437,
      "duration": 0.0898,
      "velocity": 103,
      "chip": "ym2612"
    },
    {
      "channel": 5,
      "note": 54,
      "start": 81.8501,
      "duration": 0.8965,
      "velocity": 115,
      "chip": "ym2612"
    },
    {
      "channel": 0,
      "note": 66,
      "start": 81.9665,
      "duration": 0.0961,
      "velocity": 103,
      "chip": "ym2612"
    },
    {
      "channel": 4,
      "note": 74,
      "start": 81.969,
      "duration": 0.0945,
      "velocity": 103,
      "chip": "ym2612"
    },
    {
      "channel": 0,
      "note": 73,
      "start": 82.0966,
      "duration": 0.096,
      "velocity": 103,
      "chip": "ym2612"
    },
    {
      "channel": 4,
      "note": 73,
      "start": 82.099,
      "duration": 0.0946,
      "velocity": 103,
      "chip": "ym2612"
    },
    {
      "channel": 0,
      "note": 71,
      "start": 82.2266,
      "duration": 0.0961,
      "velocity": 103,
      "chip": "ym2612"
    },
    {
      "channel": 4,
      "note": 66,
      "start": 82.229,
      "duration": 0.0941,
      "velocity": 103,
      "chip": "ym2612"
    },
    {
      "channel": 0,
      "note": 66,
      "start": 82.3566,
      "duration": 0.096,
      "velocity": 103,
      "chip": "ym2612"
    },
    {
      "channel": 4,
      "note": 73,
      "start": 82.3586,
      "duration": 0.0946,
      "velocity": 103,
      "chip": "ym2612"
    },
    {
      "channel": 0,
      "note": 71,
      "start": 82.4866,
      "duration": 0.096,
      "velocity": 103,
      "chip": "ym2612"
    },
    {
      "channel": 4,
      "note": 71,
      "start": 82.4887,
      "duration": 0.0945,
      "velocity": 103,
      "chip": "ym2612"
    },
    {
      "channel": 0,
      "note": 69,
      "start": 82.6166,
      "duration": 0.0961,
      "velocity": 103,
      "chip": "ym2612"
    },
    {
      "channel": 4,
      "note": 66,
      "start": 82.6186,
      "duration": 0.0946,
      "velocity": 103,
      "chip": "ym2612"
    }
  ]
}