{
  "track_name": "11 - Track 11",
  "duration_sec": 41.456,
  "sample_rate": 44100,
  "note_count": 689,
  "unique_pitches": 37,
  "pitch_range": 50,
  "avg_note_duration": 0.2284,
  "reconstruction_stats": {
    "notes_reconstructed": 689,
    "keyon_events": 689,
    "keyoff_events": 686,
    "orphan_keyons": 2,
    "unique_pitches": 37,
    "pitch_range": 50,
    "avg_duration_sec": 0.2284
  },
  "metadata": {
    "source": "L\\Lord Monarch - Tokoton Sentou Densetsu\\11 - Track 11.vgz"
  },
  "notes": [
    {
      "channel": 0,
      "note": 71,
      "start": 0.0016,
      "duration": 0.1452,
      "velocity": 103,
      "chip": "ym2612"
    },
    {
      "channel": 1,
      "note": 68,
      "start": 0.0042,
      "duration": 0.1429,
      "velocity": 97,
      "chip": "ym2612"
    },
    {
      "channel": 4,
      "note": 82,
      "start": 0.1693,
      "duration": 0.1471,
      "velocity": 103,
      "chip": "ym2612"
    },
    {
      "channel": 0,
      "note": 71,
      "start": 0.3366,
      "duration": 0.1473,
      "velocity": 103,
      "chip": "ym2612"
    },
    {
      "channel": 1,
      "note": 68,
      "start": 0.3371,
      "duration": 0.147,
      "velocity": 97,
      "chip": "ym2612"
    },
    {
      "channel": 3,
      "note": 45,
      "start": 0.338,
      "duration": 0.0413,
      "velocity": 127,
      "chip": "ym2612"
    },
    {
      "channel": 3,
      "note": 51,
      "start": 0.3796,
      "duration": 0.0628,
      "velocity": 127,
      "chip": "ym2612"
    },
    {
      "channel": 3,
      "note": 51,
      "start": 0.4427,
      "duration": 0.068,
      "velocity": 127,
      "chip": "ym2612"
    },
    {
      "channel": 0,
      "note": 80,
      "start": 0.5069,
      "duration": 1.3253,
      "velocity": 103,
      "chip": "ym2612"
    },
    {
      "channel": 1,
      "note": 83,
      "start": 0.5093,
      "duration": 0.4803,
      "velocity": 103,
      "chip": "ym2612"
    },
    {
      "channel": 2,
      "note": 64,
      "start": 0.5101,
      "duration": 0.1638,
      "velocity": 95,
      "chip": "ym2612"
    },
    {
      "channel": 3,
      "note": 51,
      "start": 0.5138,
      "duration": 0.5004,
      "velocity": 127,
      "chip": "ym2612"
    },
    {
      "channel": 4,
      "note": 71,
      "start": 0.5144,
      "duration": 0.139,
      "velocity": 103,
      "chip": "ym2612"
    },
    {
      "channel": 4,
      "note": 71,
      "start": 0.6778,
      "duration": 1.3239,
      "velocity": 103,
      "chip": "ym2612"
    },
    {
      "channel": 1,
      "note": 64,
      "start": 1.0133,
      "duration": 0.2293,
      "velocity": 97,
      "chip": "ym2612"
    },
    {
      "channel": 2,
      "note": 64,
      "start": 1.0139,
      "duration": 0.1657,
      "velocity": 95,
      "chip": "ym2612"
    },
    {
      "channel": 3,
      "note": 51,
      "start": 1.0145,
      "duration": 0.503,
      "velocity": 127,
      "chip": "ym2612"
    },
    {
      "channel": 1,
      "note": 68,
      "start": 1.5166,
      "duration": 0.2316,
      "velocity": 97,
      "chip": "ym2612"
    },
    {
      "channel": 2,
      "note": 64,
      "start": 1.5171,
      "duration": 0.1681,
      "velocity": 95,
      "chip": "ym2612"
    },
    {
      "channel": 3,
      "note": 51,
      "start": 1.5178,
      "duration": 0.5074,
      "velocity": 127,
      "chip": "ym2612"
    },
    {
      "channel": 0,
      "note": 80,
      "start": 2.0219,
      "duration": 0.1055,
      "velocity": 103,
      "chip": "ym2612"
    },
    {
      "channel": 1,
      "note": 83,
      "start": 2.0242,
      "duration": 0.1034,
      "velocity": 103,
      "chip": "ym2612"
    },
    {
      "channel": 2,
      "note": 64,
      "start": 2.0248,
      "duration": 0.5041,
      "velocity": 95,
      "chip": "ym2612"
    },
    {
      "channel": 3,
      "note": 51,
      "start": 2.0255,
      "duration": 0.1661,
      "velocity": 127,
      "chip": "ym2612"
    },
    {
      "channel": 0,
      "note": 78,
      "start": 2.1904,
      "duration": 0.1052,
      "velocity": 103,
      "chip": "ym2612"
    },
    {
      "channel": 1,
      "note": 81,
      "start": 2.191,
      "duration": 0.1049,
      "velocity": 103,
      "chip": "ym2612"
    },
    {
      "channel": 3,
      "note": 51,
      "start": 2.1918,
      "duration": 0.1683,
      "velocity": 127,
      "chip": "ym2612"
    },
    {
      "channel": 4,
      "note": 80,
      "start": 2.1925,
      "duration": 0.1041,
      "velocity": 103,
      "chip": "ym2612"
    },
    {
      "channel": 0,
      "note": 76,
      "start": 2.359,
      "duration": 0.1051,
      "velocity": 103,
      "chip": "ym2612"
    },
    {
      "channel": 1,
      "note": 80,
      "start": 2.3595,
      "duration": 0.1049,
      "velocity": 103,
      "chip": "ym2612"
    },
    {
      "channel": 3,
      "note": 51,
      "start": 2.3604,
      "duration": 0.169,
      "velocity": 127,
      "chip": "ym2612"
    },
    {
      "channel": 4,
      "note": 80,
      "start": 2.3616,
      "duration": 0.1037,
      "velocity": 103,
      "chip": "ym2612"
    },
    {
      "channel": 0,
      "note": 81,
      "start": 2.5278,
      "duration": 0.8211,
      "velocity": 103,
      "chip": "ym2612"
    },
    {
      "channel": 1,
      "note": 85,
      "start": 2.5285,
      "duration": 0.4836,
      "velocity": 103,
      "chip": "ym2612"
    },
    {
      "channel": 2,
      "note": 57,
      "start": 2.5291,
      "duration": 0.1672,
      "velocity": 95,
      "chip": "ym2612"
    },
    {
      "channel": 3,
      "note": 51,
      "start": 2.5322,
      "duration": 0.5039,
      "velocity": 127,
      "chip": "ym2612"
    },
    {
      "channel": 4,
      "note": 78,
      "start": 2.5329,
      "duration": 0.1008,
      "velocity": 103,
      "chip": "ym2612"
    },
    {
      "channel": 4,
      "note": 76,
      "start": 2.6973,
      "duration": 0.8213,
      "velocity": 103,
      "chip": "ym2612"
    },
    {
      "channel": 1,
      "note": 64,
      "start": 3.0352,
      "duration": 0.1454,
      "velocity": 97,
      "chip": "ym2612"
    },
    {
      "channel": 2,
      "note": 57,
      "start": 3.0357,
      "duration": 0.1663,
      "velocity": 95,
      "chip": "ym2612"
    },
    {
      "channel": 3,
      "note": 51,
      "start": 3.0364,
      "duration": 0.5055,
      "velocity": 127,
      "chip": "ym2612"
    },
    {
      "channel": 0,
      "note": 76,
      "start": 3.3702,
      "duration": 0.1473,
      "velocity": 103,
      "chip": "ym2612"
    },
    {
      "channel": 1,
      "note": 81,
      "start": 3.3725,
      "duration": 0.1452,
      "velocity": 103,
      "chip": "ym2612"
    },
    {
      "channel": 0,
      "note": 73,
      "start": 3.5387,
      "duration": 0.1055,
      "velocity": 103,
      "chip": "ym2612"
    },
    {
      "channel": 1,
      "note": 69,
      "start": 3.5411,
      "duration": 0.1452,
      "velocity": 97,
      "chip": "ym2612"
    },
    {
      "channel": 2,
      "note": 57,
      "start": 3.5416,
      "duration": 0.166,
      "velocity": 95,
      "chip": "ym2612"
    },
    {
      "channel": 3,
      "note": 51,
      "start": 3.5423,
      "duration": 0.4186,
      "velocity": 127,
      "chip": "ym2612"
    },
    {
      "channel": 4,
      "note": 81,
      "start": 3.5429,
      "duration": 0.1441,
      "velocity": 103,
      "chip": "ym2612"
    },
    {
      "channel": 4,
      "note": 76,
      "start": 3.7086,
      "duration": 0.1048,
      "velocity": 103,
      "chip": "ym2612"
    },
    {
      "channel": 3,
      "note": 51,
      "start": 3.9639,
      "duration": 0.0389,
      "velocity": 127,
      "chip": "ym2612"
    },
    {
      "channel": 3,
      "note": 51,
      "start": 4.003,
      "duration": 0.045,
      "velocity": 127,
      "chip": "ym2612"
    },
    {
      "channel": 0,
      "note": 80,
      "start": 4.0446,
      "duration": 0.3156,
      "velocity": 103,
      "chip": "ym2612"
    },
    {
      "channel": 1,
      "note": 73,
      "start": 4.0471,
      "duration": 0.3136,
      "velocity": 103,
      "chip": "ym2612"
    },
    {
      "channel": 2,
      "note": 57,
      "start": 4.0477,
      "duration": 0.3346,
      "velocity": 95,
      "chip": "ym2612"
    },
    {
      "channel": 3,
      "note": 51,
      "start": 4.0507,
      "duration": 0.1627,
      "velocity": 127,
      "chip": "ym2612"
    },
    {
      "channel": 3,
      "note": 51,
      "start": 4.2137,
      "duration": 0.1692,
      "velocity": 127,
      "chip": "ym2612"
    },
    {
      "channel": 4,
      "note": 73,
      "start": 4.2144,
      "duration": 0.3154,
      "velocity": 103,
      "chip": "ym2612"
    },
    {
      "channel": 0,
      "note": 81,
      "start": 4.3814,
      "duration": 0.1473,
      "velocity": 103,
      "chip": "ym2612"
    },
    {
      "channel": 1,
      "note": 72,
      "start": 4.3819,
      "duration": 0.1471,
      "velocity": 103,
      "chip": "ym2612"
    },
    {
      "channel": 2,
      "note": 57,
      "start": 4.3824,
      "duration": 0.1683,
      "velocity": 95,
      "chip": "ym2612"
    },
    {
      "channel": 3,
      "note": 51,
      "start": 4.3831,
      "duration": 0.1683,
      "velocity": 127,
      "chip": "ym2612"
    },
    {
      "channel": 0,
      "note": 71,
      "start": 4.5499,
      "duration": 0.1052,
      "velocity": 103,
      "chip": "ym2612"
    },
    {
      "channel": 1,
      "note": 71,
      "start": 4.5504,
      "duration": 0.147,
      "velocity": 103,
      "chip": "ym2612"
    },
    {
      "channel": 2,
      "note": 59,
      "start": 4.551,
      "duration": 0.1679,
      "velocity": 95,
      "chip": "ym2612"
    },
    {
      "channel": 3,
      "note": 51,
      "start": 4.5541,
      "duration": 0.5046,
      "velocity": 127,
      "chip": "ym2612"
    },
    {
      "channel": 4,
      "note": 80,
      "start": 4.5548,
      "duration": 0.1435,
      "velocity": 103,
      "chip": "ym2612"
    },
    {
      "channel": 4,
      "note": 81,
      "start": 4.7198,
      "duration": 0.1048,
      "velocity": 103,
      "chip": "ym2612"
    },
    {
      "channel": 0,
      "note": 81,
      "start": 5.0555,
      "duration": 0.8215,
      "velocity": 103,
      "chip": "ym2612"
    },
    {
      "channel": 1,
      "note": 59,
      "start": 5.0579,
      "duration": 0.4822,
      "velocity": 97,
      "chip": "ym2612"
    },
    {
      "channel": 2,
      "note": 59,
      "start": 5.0584,
      "duration": 0.1659,
      "velocity": 95,
      "chip": "ym2612"
    },
    {
      "channel": 3,
      "note": 51,
      "start": 5.0591,
      "duration": 0.5036,
      "velocity": 127,
      "chip": "ym2612"
    },
    {
      "channel": 4,
      "note": 71,
      "start": 5.2254,
      "duration": 0.8212,
      "velocity": 103,
      "chip": "ym2612"
    },
    {
      "channel": 1,
      "note": 63,
      "start": 5.5617,
      "duration": 0.484,
      "velocity": 97,
      "chip": "ym2612"
    },
    {
      "channel": 2,
      "note": 63,
      "start": 5.5623,
      "duration": 0.1677,
      "velocity": 95,
      "chip": "ym2612"
    },
    {
      "channel": 3,
      "note": 51,
      "start": 5.563,
      "duration": 0.5052,
      "velocity": 127,
      "chip": "ym2612"
    },
    {
      "channel": 0,
      "note": 81,
      "start": 6.0668,
      "duration": 0.1051,
      "velocity": 103,
      "chip": "ym2612"
    },
    {
      "channel": 1,
      "note": 69,
      "start": 6.0673,
      "duration": 0.4841,
      "velocity": 97,
      "chip": "ym2612"
    },
    {
      "channel": 2,
      "note": 59,
      "start": 6.0678,
      "duration": 0.3366,
      "velocity": 95,
      "chip": "ym2612"
    },
    {
      "channel": 3,
      "note": 51,
      "start": 6.0685,
      "duration": 0.1676,
      "velocity": 127,
      "chip": "ym2612"
    },
    {
      "channel": 0,
      "note": 80,
      "start": 6.2353,
      "duration": 0.1051,
      "velocity": 103,
      "chip": "ym2612"
    },
    {
      "channel": 3,
      "note": 51,
      "start": 6.2364,
      "duration": 0.1686,
      "velocity": 127,
      "chip": "ym2612"
    },
    {
      "channel": 4,
      "note": 81,
      "start": 6.237,
      "duration": 0.1044,
      "velocity": 103,
      "chip": "ym2612"
    },
    {
      "channel": 0,
      "note": 78,
      "start": 6.4038,
      "duration": 0.1051,
      "velocity": 103,
      "chip": "ym2612"
    },
    {
      "channel": 2,
      "note": 63,
      "start": 6.4046,
      "duration": 0.1686,
      "velocity": 95,
      "chip": "ym2612"
    },
    {
      "channel": 3,
      "note": 51,
      "start": 6.4053,
      "duration": 0.1686,
      "velocity": 127,
      "chip": "ym2612"
    },
    {
      "channel": 4,
      "note": 81,
      "start": 6.4059,
      "duration": 0.1041,
      "velocity": 103,
      "chip": "ym2612"
    },
    {
      "channel": 0,
      "note": 77,
      "start": 6.5724,
      "duration": 0.8217,
      "velocity": 103,
      "chip": "ym2612"
    },
    {
      "channel": 1,
      "note": 68,
      "start": 6.5729,
      "duration": 0.8215,
      "velocity": 97,
      "chip": "ym2612"
    },
    {
      "channel": 2,
      "note": 61,
      "start": 6.5735,
      "duration": 0.1676,
      "velocity": 95,
      "chip": "ym2612"
    },
    {
      "channel": 3,
      "note": 51,
      "start": 6.5766,
      "duration": 0.5023,
      "velocity": 127,
      "chip": "ym2612"
    },
    {
      "channel": 4,
      "note": 80,
      "start": 6.5803,
      "duration": 0.8151,
      "velocity": 103,
      "chip": "ym2612"
    },
    {
      "channel": 2,
      "note": 61,
      "start": 7.0787,
      "duration": 0.1681,
      "velocity": 95,
      "chip": "ym2612"
    },
    {
      "channel": 3,
      "note": 51,
      "start": 7.0817,
      "duration": 0.376,
      "velocity": 127,
      "chip": "ym2612"
    },
    {
      "channel": 0,
      "note": 78,
      "start": 7.4151,
      "duration": 0.1473,
      "velocity": 103,
      "chip": "ym2612"
    },
    {
      "channel": 1,
      "note": 61,
      "start": 7.4156,
      "duration": 0.147,
      "velocity": 97,
      "chip": "ym2612"
    },
    {
      "channel": 4,
      "note": 80,
      "start": 7.4168,
      "duration": 0.1466,
      "velocity": 103,
      "chip": "ym2612"
    },
    {
      "channel": 3,
      "note": 51,
      "start": 7.4607,
      "duration": 0.0602,
      "velocity": 127,
      "chip": "ym2612"
    },
    {
      "channel": 3,
      "note": 51,
      "start": 7.5212,
      "duration": 0.0638,
      "velocity": 127,
      "chip": "ym2612"
    },
    {
      "channel": 0,
      "note": 80,
      "start": 7.5836,
      "duration": 0.4844,
      "velocity": 103,
      "chip": "ym2612"
    },
    {
      "channel": 1,
      "note": 73,
      "start": 7.5841,
      "duration": 0.4841,
      "velocity": 97,
      "chip": "ym2612"
    },
    {
      "channel": 2,
      "note": 65,
      "start": 7.5846,
      "duration": 0.1678,
      "velocity": 95,
      "chip": "ym2612"
    },
    {
      "channel": 3,
      "note": 51,
      "start": 7.5877,
      "duration": 0.3545,
      "velocity": 127,
      "chip": "ym2612"
    },
    {
      "channel": 4,
      "note": 81,
      "start": 7.5883,
      "duration": 0.4807,
      "velocity": 103,
      "chip": "ym2612"
    },
    {
      "channel": 3,
      "note": 51,
      "start": 7.9425,
      "duration": 0.1497,
      "velocity": 127,
      "chip": "ym2612"
    },
    {
      "channel": 1,
      "note": 73,
      "start": 8.0913,
      "duration": 0.1454,
      "velocity": 103,
      "chip": "ym2612"
    },
    {
      "channel": 2,
      "note": 68,
      "start": 8.0919,
      "duration": 0.3354,
      "velocity": 95,
      "chip": "ym2612"
    },
    {
      "channel": 3,
      "note": 51,
      "start": 8.0925,
      "duration": 0.1658,
      "velocity": 127,
      "chip": "ym2612"
    },
    {
      "channel": 3,
      "note": 51,
      "start": 8.2586,
      "duration": 0.1695,
      "velocity": 127,
      "chip": "ym2612"
    },
    {
      "channel": 0,
      "note": 73,
      "start": 8.4263,
      "duration": 0.1473,
      "velocity": 103,
      "chip": "ym2612"
    },
    {
      "channel": 1,
      "note": 77,
      "start": 8.4268,
      "duration": 0.147,
      "velocity": 103,
      "chip": "ym2612"
    },
    {
      "channel": 2,
      "note": 61,
      "start": 8.4276,
      "duration": 0.1683,
      "velocity": 95,
      "chip": "ym2612"
    },
    {
      "channel": 3,
      "note": 51,
      "start": 8.4285,
      "duration": 0.1679,
      "velocity": 127,
      "chip": "ym2612"
    },
    {
      "channel": 0,
      "note": 85,
      "start": 8.595,
      "duration": 1.1161,
      "velocity": 103,
      "chip": "ym2612"
    },
    {
      "channel": 1,
      "note": 81,
      "start": 8.5955,
      "duration": 0.4838,
      "velocity": 103,
      "chip": "ym2612"
    },
    {
      "channel": 2,
      "note": 57,
      "start": 8.596,
      "duration": 0.1675,
      "velocity": 95,
      "chip": "ym2612"
    },
    {
      "channel": 3,
      "note": 51,
      "start": 8.5992,
      "duration": 0.5042,
      "velocity": 127,
      "chip": "ym2612"
    },
    {
      "channel": 4,
      "note": 83,
      "start": 8.6025,
      "duration": 0.1406,
      "velocity": 103,
      "chip": "ym2612"
    },
    {
      "channel": 4,
      "note": 73,
      "start": 8.7645,
      "duration": 1.1161,
      "velocity": 103,
      "chip": "ym2612"
    },
    {
      "channel": 1,
      "note": 61,
      "start": 9.1025,
      "duration": 0.1455,
      "velocity": 97,
      "chip": "ym2612"
    },
    {
      "channel": 2,
      "note": 57,
      "start": 9.103,
      "duration": 0.1663,
      "velocity": 95,
      "chip": "ym2612"
    },
    {
      "channel": 3,
      "note": 51,
      "start": 9.1037,
      "duration": 0.5034,
      "velocity": 127,
      "chip": "ym2612"
    },
    {
      "channel": 1,
      "note": 61,
      "start": 9.4377,
      "duration": 0.1473,
      "velocity": 97,
      "chip": "ym2612"
    },
    {
      "channel": 1,
      "note": 73,
      "start": 9.6062,
      "duration": 0.4844,
      "velocity": 97,
      "chip": "ym2612"
    },
    {
      "channel": 2,
      "note": 57,
      "start": 9.6068,
      "duration": 0.168,
      "velocity": 95,
      "chip": "ym2612"
    },
    {
      "channel": 3,
      "note": 51,
      "start": 9.6074,
      "duration": 0.4209,
      "velocity": 127,
      "chip": "ym2612"
    },
    {
      "channel": 3,
      "note": 51,
      "start": 10.0311,
      "duration": 0.0389,
      "velocity": 127,
      "chip": "ym2612"
    },
    {
      "channel": 3,
      "note": 51,
      "start": 10.0703,
      "duration": 0.0448,
      "velocity": 127,
      "chip": "ym2612"
    },
    {
      "channel": 0,
      "note": 85,
      "start": 10.1118,
      "duration": 0.1049,
      "velocity": 103,
      "chip": "ym2612"
    },
    {
      "channel": 1,
      "note": 81,
      "start": 10.1141,
      "duration": 0.1029,
      "velocity": 103,
      "chip": "ym2612"
    },
    {
      "channel": 2,
      "note": 57,
      "start": 10.1147,
      "duration": 0.3348,
      "velocity": 95,
      "chip": "ym2612"
    },
    {
      "channel": 3,
      "note": 51,
      "start": 10.1178,
      "duration": 0.1634,
      "velocity": 127,
      "chip": "ym2612"
    },
    {
      "channel": 0,
      "note": 83,
      "start": 10.2801,
      "duration": 0.1051,
      "velocity": 103,
      "chip": "ym2612"
    },
    {
      "channel": 1,
      "note": 80,
      "start": 10.2806,
      "duration": 0.1049,
      "velocity": 103,
      "chip": "ym2612"
    },
    {
      "channel": 3,
      "note": 51,
      "start": 10.2815,
      "duration": 0.1685,
      "velocity": 127,
      "chip": "ym2612"
    },
    {
      "channel": 4,
      "note": 85,
      "start": 10.2822,
      "duration": 0.1042,
      "velocity": 103,
      "chip": "ym2612"
    },
    {
      "channel": 0,
      "note": 81,
      "start": 10.4486,
      "duration": 0.1052,
      "velocity": 103,
      "chip": "ym2612"
    },
    {
      "channel": 1,
      "note": 78,
      "start": 10.4492,
      "duration": 0.1049,
      "velocity": 103,
      "chip": "ym2612"
    },
    {
      "channel": 2,
      "note": 54,
      "start": 10.4497,
      "duration": 0.1684,
      "velocity": 95,
      "chip": "ym2612"
    },
    {
      "channel": 3,
      "note": 51,
      "start": 10.4504,
      "duration": 0.1683,
      "velocity": 127,
      "chip": "ym2612"
    },
    {
      "channel": 4,
      "note": 85,
      "start": 10.451,
      "duration": 0.1039,
      "velocity": 103,
      "chip": "ym2612"
    },
    {
      "channel": 0,
      "note": 80,
      "start": 10.6172,
      "duration": 0.8214,
      "velocity": 103,
      "chip": "ym2612"
    },
    {
      "channel": 1,
      "note": 76,
      "start": 10.6177,
      "duration": 0.484,
      "velocity": 103,
      "chip": "ym2612"
    },
    {
      "channel": 2,
      "note": 64,
      "start": 10.6182,
      "duration": 0.1678,
      "velocity": 95,
      "chip": "ym2612"
    },
    {
      "channel": 3,
      "note": 51,
      "start": 10.6214,
      "duration": 0.5044,
      "velocity": 127,
      "chip": "ym2612"
    },
    {
      "channel": 4,
      "note": 83,
      "start": 10.622,
      "duration": 0.1013,
      "velocity": 103,
      "chip": "ym2612"
    },
    {
      "channel": 4,
      "note": 81,
      "start": 10.7869,
      "duration": 0.8213,
      "velocity": 103,
      "chip": "ym2612"
    },
    {
      "channel": 1,
      "note": 64,
      "start": 11.1249,
      "duration": 0.1455,
      "velocity": 97,
      "chip": "ym2612"
    },
    {
      "channel": 2,
      "note": 64,
      "start": 11.1254,
      "duration": 0.1663,
      "velocity": 95,
      "chip": "ym2612"
    },
    {
      "channel": 3,
      "note": 51,
      "start": 11.1261,
      "duration": 0.5039,
      "velocity": 127,
      "chip": "ym2612"
    },
    {
      "channel": 0,
      "note": 81,
      "start": 11.4599,
      "duration": 0.1473,
      "velocity": 103,
      "chip": "ym2612"
    },
    {
      "channel": 1,
      "note": 64,
      "start": 11.4604,
      "duration": 0.147,
      "velocity": 97,
      "chip": "ym2612"
    },
    {
      "channel": 0,
      "note": 83,
      "start": 11.6286,
      "duration": 0.4841,
      "velocity": 103,
      "chip": "ym2612"
    },
    {
      "channel": 1,
      "note": 76,
      "start": 11.6291,
      "duration": 0.4839,
      "velocity": 97,
      "chip": "ym2612"
    },
    {
      "channel": 2,
      "note": 64,
      "start": 11.6296,
      "duration": 0.1676,
      "velocity": 95,
      "chip": "ym2612"
    },
    {
      "channel": 3,
      "note": 51,
      "start": 11.6303,
      "duration": 0.1673,
      "velocity": 127,
      "chip": "ym2612"
    },
    {
      "channel": 4,
      "note": 80,
      "start": 11.631,
      "duration": 0.1457,
      "velocity": 103,
      "chip": "ym2612"
    },
    {
      "channel": 3,
      "note": 51,
      "start": 11.7979,
      "duration": 0.1681,
      "velocity": 127,
      "chip": "ym2612"
    },
    {
      "channel": 4,
      "note": 81,
      "start": 11.7985,
      "duration": 0.4838,
      "velocity": 103,
      "chip": "ym2612"
    },
    {
      "channel": 3,
      "note": 51,
      "start": 11.9663,
      "duration": 0.1727,
      "velocity": 127,
      "chip": "ym2612"
    },
    {
      "channel": 0,
      "note": 76,
      "start": 12.1357,
      "duration": 0.4827,
      "velocity": 103,
      "chip": "ym2612"
    },
    {
      "channel": 1,
      "note": 71,
      "start": 12.138,
      "duration": 0.3121,
      "velocity": 103,
      "chip": "ym2612"
    },
    {
      "channel": 2,
      "note": 64,
      "start": 12.1385,
      "duration": 0.3331,
      "velocity": 95,
      "chip": "ym2612"
    },
    {
      "channel": 3,
      "note": 51,
      "start": 12.1392,
      "duration": 0.333,
      "velocity": 127,
      "chip": "ym2612"
    },
    {
      "channel": 4,
      "note": 83,
      "start": 12.3036,
      "duration": 0.4842,
      "velocity": 103,
      "chip": "ym2612"
    },
    {
      "channel": 1,
      "note": 73,
      "start": 12.4713,
      "duration": 0.1473,
      "velocity": 103,
      "chip": "ym2612"
    },
    {
      "channel": 2,
      "note": 63,
      "start": 12.4718,
      "duration": 0.1703,
      "velocity": 95,
      "chip": "ym2612"
    },
    {
      "channel": 3,
      "note": 51,
      "start": 12.4725,
      "duration": 0.1702,
      "velocity": 127,
      "chip": "ym2612"
    },
    {
      "channel": 0,
      "note": 74,
      "start": 12.6396,
      "duration": 0.99,
      "velocity": 103,
      "chip": "ym2612"
    },
    {
      "channel": 1,
      "note": 74,
      "start": 12.6418,
      "duration": 0.3139,
      "velocity": 103,
      "chip": "ym2612"
    },
    {
      "channel": 2,
      "note": 62,
      "start": 12.6423,
      "duration": 0.1661,
      "velocity": 95,
      "chip": "ym2612"
    },
    {
      "channel": 3,
      "note": 51,
      "start": 12.6459,
      "duration": 0.5006,
      "velocity": 127,
      "chip": "ym2612"
    },
    {
      "channel": 4,
      "note": 76,
      "start": 12.8093,
      "duration": 0.3156,
      "velocity": 103,
      "chip": "ym2612"
    },
    {
      "channel": 1,
      "note": 74,
      "start": 12.9791,
      "duration": 0.145,
      "velocity": 62,
      "chip": "ym2612"
    },
    {
      "channel": 1,
      "note": 74,
      "start": 13.1456,
      "duration": 0.1471,
      "velocity": 62,
      "chip": "ym2612"
    },
    {
      "channel": 2,
      "note": 62,
      "start": 13.1462,
      "duration": 0.1681,
      "velocity": 95,
      "chip": "ym2612"
    },
    {
      "channel": 3,
      "note": 51,
      "start": 13.1468,
      "duration": 0.4203,
      "velocity": 127,
      "chip": "ym2612"
    },
    {
      "channel": 4,
      "note": 74,
      "start": 13.15,
      "duration": 0.1435,
      "velocity": 62,
      "chip": "ym2612"
    },
    {
      "channel": 1,
      "note": 73,
      "start": 13.314,
      "duration": 0.1475,
      "velocity": 62,
      "chip": "ym2612"
    },
    {
      "channel": 4,
      "note": 74,
      "start": 13.3153,
      "duration": 0.1471,
      "velocity": 62,
      "chip": "ym2612"
    },
    {
      "channel": 1,
      "note": 74,
      "start": 13.4826,
      "duration": 0.1473,
      "velocity": 62,
      "chip": "ym2612"
    },
    {
      "channel": 4,
      "note": 74,
      "start": 13.4836,
      "duration": 0.147,
      "velocity": 62,
      "chip": "ym2612"
    },
    {
      "channel": 3,
      "note": 51,
      "start": 13.5698,
      "duration": 0.0394,
      "velocity": 127,
      "chip": "ym2612"
    },
    {
      "channel": 3,
      "note": 51,
      "start": 13.6095,
      "duration": 0.0427,
      "velocity": 127,
      "chip": "ym2612"
    },
    {
      "channel": 0,
      "note": 78,
      "start": 13.6508,
      "duration": 0.4844,
      "velocity": 103,
      "chip": "ym2612"
    },
    {
      "channel": 1,
      "note": 78,
      "start": 13.6513,
      "duration": 0.147,
      "velocity": 62,
      "chip": "ym2612"
    },
    {
      "channel": 2,
      "note": 62,
      "start": 13.6519,
      "duration": 0.168,
      "velocity": 95,
      "chip": "ym2612"
    },
    {
      "channel": 3,
      "note": 51,
      "start": 13.655,
      "duration": 0.4177,
      "velocity": 127,
      "chip": "ym2612"
    },
    {
      "channel": 4,
      "note": 73,
      "start": 13.6556,
      "duration": 0.1435,
      "velocity": 62,
      "chip": "ym2612"
    },
    {
      "channel": 1,
      "note": 77,
      "start": 13.8196,
      "duration": 0.1473,
      "velocity": 62,
      "chip": "ym2612"
    },
    {
      "channel": 4,
      "note": 74,
      "start": 13.8208,
      "duration": 0.1468,
      "velocity": 62,
      "chip": "ym2612"
    },
    {
      "channel": 1,
      "note": 78,
      "start": 13.9881,
      "duration": 0.1473,
      "velocity": 62,
      "chip": "ym2612"
    },
    {
      "channel": 4,
      "note": 78,
      "start": 13.9892,
      "duration": 0.147,
      "velocity": 62,
      "chip": "ym2612"
    },
    {
      "channel": 3,
      "note": 51,
      "start": 14.0754,
      "duration": 0.0394,
      "velocity": 127,
      "chip": "ym2612"
    },
    {
      "channel": 3,
      "note": 51,
      "start": 14.1151,
      "duration": 0.0427,
      "velocity": 127,
      "chip": "ym2612"
    },
    {
      "channel": 0,
      "note": 81,
      "start": 14.1564,
      "duration": 0.4843,
      "velocity": 103,
      "chip": "ym2612"
    },
    {
      "channel": 1,
      "note": 81,
      "start": 14.1569,
      "duration": 0.147,
      "velocity": 62,
      "chip": "ym2612"
    },
    {
      "channel": 2,
      "note": 62,
      "start": 14.1574,
      "duration": 0.3368,
      "velocity": 95,
      "chip": "ym2612"
    },
    {
      "channel": 3,
      "note": 51,
      "start": 14.1608,
      "duration": 0.1649,
      "velocity": 127,
      "chip": "ym2612"
    },
    {
      "channel": 4,
      "note": 77,
      "start": 14.1617,
      "duration": 0.1431,
      "velocity": 62,
      "chip": "ym2612"
    },
    {
      "channel": 1,
      "note": 80,
      "start": 14.3252,
      "duration": 0.1473,
      "velocity": 62,
      "chip": "ym2612"
    },
    {
      "channel": 3,
      "note": 51,
      "start": 14.3261,
      "duration": 0.169,
      "velocity": 127,
      "chip": "ym2612"
    },
    {
      "channel": 4,
      "note": 78,
      "start": 14.3267,
      "duration": 0.1466,
      "velocity": 62,
      "chip": "ym2612"
    },
    {
      "channel": 1,
      "note": 81,
      "start": 14.4937,
      "duration": 0.1473,
      "velocity": 62,
      "chip": "ym2612"
    },
    {
      "channel": 2,
      "note": 62,
      "start": 14.4945,
      "duration": 0.1684,
      "velocity": 95,
      "chip": "ym2612"
    },
    {
      "channel": 3,
      "note": 51,
      "start": 14.4954,
      "duration": 0.1681,
      "velocity": 127,
      "chip": "ym2612"
    },
    {
      "channel": 4,
      "note": 81,
      "start": 14.496,
      "duration": 0.1458,
      "velocity": 62,
      "chip": "ym2612"
    },
    {
      "channel": 0,
      "note": 83,
      "start": 14.6621,
      "duration": 0.9899,
      "velocity": 103,
      "chip": "ym2612"
    },
    {
      "channel": 1,
      "note": 83,
      "start": 14.6626,
      "duration": 0.9897,
      "velocity": 62,
      "chip": "ym2612"
    },
    {
      "channel": 2,
      "note": 59,
      "start": 14.6631,
      "duration": 0.1678,
      "velocity": 95,
      "chip": "ym2612"
    },
    {
      "channel": 3,
      "note": 51,
      "start": 14.6662,
      "duration": 0.5023,
      "velocity": 127,
      "chip": "ym2612"
    },
    {
      "channel": 4,
      "note": 80,
      "start": 14.6693,
      "duration": 0.9838,
      "velocity": 62,
      "chip": "ym2612"
    },
    {
      "channel": 2,
      "note": 63,
      "start": 15.1681,
      "duration": 0.1684,
      "velocity": 95,
      "chip": "ym2612"
    },
    {
      "channel": 3,
      "note": 51,
      "start": 15.1688,
      "duration": 0.5057,
      "velocity": 127,
      "chip": "ym2612"
    },
    {
      "channel": 1,
      "note": 78,
      "start": 15.6736,
      "duration": 0.1471,
      "velocity": 62,
      "chip": "ym2612"
    },
    {
      "channel": 2,
      "note": 66,
      "start": 15.6741,
      "duration": 0.1681,
      "velocity": 95,
      "chip": "ym2612"
    },
    {
      "channel": 3,
      "note": 51,
      "start": 15.6748,
      "duration": 0.3363,
      "velocity": 127,
      "chip": "ym2612"
    },
    {
      "channel": 4,
      "note": 75,
      "start": 15.6754,
      "duration": 0.1461,
      "velocity": 62,
      "chip": "ym2612"
    },
    {
      "channel": 3,
      "note": 51,
      "start": 16.0116,
      "duration": 0.1722,
      "velocity": 127,
      "chip": "ym2612"
    },
    {
      "channel": 0,
      "note": 83,
      "start": 16.1806,
      "duration": 0.1455,
      "velocity": 99,
      "chip": "ym2612"
    },
    {
      "channel": 1,
      "note": 71,
      "start": 16.183,
      "duration": 0.1434,
      "velocity": 97,
      "chip": "ym2612"
    },
    {
      "channel": 2,
      "note": 59,
      "start": 16.1836,
      "duration": 0.3332,
      "velocity": 95,
      "chip": "ym2612"
    },
    {
      "channel": 3,
      "note": 51,
      "start": 16.1843,
      "duration": 0.0162,
      "velocity": 127,
      "chip": "ym2612"
    },
    {
      "channel": 3,
      "note": 51,
      "start": 16.2217,
      "duration": 0.0209,
      "velocity": 127,
      "chip": "ym2612"
    },
    {
      "channel": 3,
      "note": 51,
      "start": 16.2663,
      "duration": 0.0184,
      "velocity": 127,
      "chip": "ym2612"
    },
    {
      "channel": 3,
      "note": 51,
      "start": 16.306,
      "duration": 0.0209,
      "velocity": 127,
      "chip": "ym2612"
    },
    {
      "channel": 4,
      "note": 71,
      "start": 16.3093,
      "duration": 0.1443,
      "velocity": 97,
      "chip": "ym2612"
    },
    {
      "channel": 3,
      "note": 51,
      "start": 16.3507,
      "duration": 0.0182,
      "velocity": 127,
      "chip": "ym2612"
    },
    {
      "channel": 3,
      "note": 51,
      "start": 16.3902,
      "duration": 0.0214,
      "velocity": 127,
      "chip": "ym2612"
    },
    {
      "channel": 3,
      "note": 51,
      "start": 16.4349,
      "duration": 0.0184,
      "velocity": 127,
      "chip": "ym2612"
    },
    {
      "channel": 3,
      "note": 51,
      "start": 16.4745,
      "duration": 0.0211,
      "velocity": 127,
      "chip": "ym2612"
    },
    {
      "channel": 0,
      "note": 83,
      "start": 16.5159,
      "duration": 0.1473,
      "velocity": 99,
      "chip": "ym2612"
    },
    {
      "channel": 1,
      "note": 71,
      "start": 16.5164,
      "duration": 0.147,
      "velocity": 97,
      "chip": "ym2612"
    },
    {
      "channel": 2,
      "note": 59,
      "start": 16.5169,
      "duration": 0.1684,
      "velocity": 95,
      "chip": "ym2612"
    },
    {
      "channel": 3,
      "note": 51,
      "start": 16.5176,
      "duration": 0.02,
      "velocity": 127,
      "chip": "ym2612"
    },
    {
      "channel": 3,
      "note": 51,
      "start": 16.5588,
      "duration": 0.0209,
      "velocity": 127,
      "chip": "ym2612"
    },
    {
      "channel": 3,
      "note": 51,
      "start": 16.6009,
      "duration": 0.0209,
      "velocity": 127,
      "chip": "ym2612"
    },
    {
      "channel": 3,
      "note": 51,
      "start": 16.643,
      "duration": 0.0209,
      "velocity": 127,
      "chip": "ym2612"
    },
    {
      "channel": 4,
      "note": 71,
      "start": 16.6437,
      "duration": 0.1469,
      "velocity": 97,
      "chip": "ym2612"
    },
    {
      "channel": 0,
      "note": 88,
      "start": 16.6845,
      "duration": 0.1473,
      "velocity": 99,
      "chip": "ym2612"
    },
    {
      "channel": 1,
      "note": 80,
      "start": 16.685,
      "duration": 1.3478,
      "velocity": 97,
      "chip": "ym2612"
    },
    {
      "channel": 2,
      "note": 64,
      "start": 16.6856,
      "duration": 0.1679,
      "velocity": 95,
      "chip": "ym2612"
    },
    {
      "channel": 3,
      "note": 51,
      "start": 16.6887,
      "duration": 0.4597,
      "velocity": 127,
      "chip": "ym2612"
    },
    {
      "channel": 4,
      "note": 71,
      "start": 16.8124,
      "duration": 1.3476,
      "velocity": 97,
      "chip": "ym2612"
    },
    {
      "channel": 0,
      "note": 83,
      "start": 16.853,
      "duration": 0.1473,
      "velocity": 99,
      "chip": "ym2612"
    },
    {
      "channel": 0,
      "note": 88,
      "start": 17.0215,
      "duration": 0.1473,
      "velocity": 99,
      "chip": "ym2612"
    },
    {
      "channel": 0,
      "note": 90,
      "start": 17.1901,
      "duration": 0.1473,
      "velocity": 99,
      "chip": "ym2612"
    },
    {
      "channel": 2,
      "note": 64,
      "start": 17.1908,
      "duration": 0.1683,
      "velocity": 95,
      "chip": "ym2612"
    },
    {
      "channel": 3,
      "note": 51,
      "start": 17.1914,
      "duration": 0.4627,
      "velocity": 127,
      "chip": "ym2612"
    },
    {
      "channel": 0,
      "note": 83,
      "start": 17.3586,
      "duration": 0.1473,
      "velocity": 99,
      "chip": "ym2612"
    },
    {
      "channel": 0,
      "note": 90,
      "start": 17.5274,
      "duration": 0.147,
      "velocity": 99,
      "chip": "ym2612"
    },
    {
      "channel": 0,
      "note": 92,
      "start": 17.6956,
      "duration": 0.1473,
      "velocity": 99,
      "chip": "ym2612"
    },
    {
      "channel": 2,
      "note": 64,
      "start": 17.6964,
      "duration": 0.1681,
      "velocity": 95,
      "chip": "ym2612"
    },
    {
      "channel": 3,
      "note": 51,
      "start": 17.6971,
      "duration": 0.4625,
      "velocity": 127,
      "chip": "ym2612"
    },
    {
      "channel": 0,
      "note": 85,
      "start": 18.2012,
      "duration": 0.1473,
      "velocity": 99,
      "chip": "ym2612"
    },
    {
      "channel": 1,
      "note": 80,
      "start": 18.2018,
      "duration": 0.1049,
      "velocity": 97,
      "chip": "ym2612"
    },
    {
      "channel": 2,
      "note": 64,
      "start": 18.2023,
      "duration": 0.5089,
      "velocity": 95,
      "chip": "ym2612"
    },
    {
      "channel": 3,
      "note": 51,
      "start": 18.2029,
      "duration": 0.1258,
      "velocity": 127,
      "chip": "ym2612"
    },
    {
      "channel": 4,
      "note": 80,
      "start": 18.3294,
      "duration": 0.1045,
      "velocity": 97,
      "chip": "ym2612"
    },
    {
      "channel": 0,
      "note": 87,
      "start": 18.3698,
      "duration": 0.1473,
      "velocity": 99,
      "chip": "ym2612"
    },
    {
      "channel": 1,
      "note": 78,
      "start": 18.3703,
      "duration": 0.1048,
      "velocity": 97,
      "chip": "ym2612"
    },
    {
      "channel": 3,
      "note": 51,
      "start": 18.3711,
      "duration": 0.1257,
      "velocity": 127,
      "chip": "ym2612"
    },
    {
      "channel": 4,
      "note": 80,
      "start": 18.4974,
      "duration": 0.105,
      "velocity": 97,
      "chip": "ym2612"
    },
    {
      "channel": 0,
      "note": 88,
      "start": 18.5383,
      "duration": 0.1473,
      "velocity": 99,
      "chip": "ym2612"
    },
    {
      "channel": 1,
      "note": 76,
      "start": 18.5388,
      "duration": 0.1049,
      "velocity": 97,
      "chip": "ym2612"
    },
    {
      "channel": 3,
      "note": 51,
      "start": 18.5396,
      "duration": 0.1257,
      "velocity": 127,
      "chip": "ym2612"
    },
    {
      "channel": 4,
      "note": 78,
      "start": 18.6659,
      "duration": 0.1049,
      "velocity": 97,
      "chip": "ym2612"
    },
    {
      "channel": 0,
      "note": 93,
      "start": 18.7085,
      "duration": 0.82,
      "velocity": 99,
      "chip": "ym2612"
    },
    {
      "channel": 1,
      "note": 69,
      "start": 18.711,
      "duration": 0.649,
      "velocity": 97,
      "chip": "ym2612"
    },
    {
      "channel": 2,
      "note": 57,
      "start": 18.7117,
      "duration": 0.1639,
      "velocity": 95,
      "chip": "ym2612"
    },
    {
      "channel": 3,
      "note": 51,
      "start": 18.7147,
      "duration": 0.4561,
      "velocity": 127,
      "chip": "ym2612"
    },
    {
      "channel": 4,
      "note": 76,
      "start": 18.8368,
      "duration": 0.8189,
      "velocity": 99,
      "chip": "ym2612"
    },
    {
      "channel": 2,
      "note": 57,
      "start": 19.213,
      "duration": 0.1686,
      "velocity": 95,
      "chip": "ym2612"
    },
    {
      "channel": 3,
      "note": 51,
      "start": 19.2135,
      "duration": 0.4629,
      "velocity": 127,
      "chip": "ym2612"
    },
    {
      "channel": 1,
      "note": 68,
      "start": 19.3812,
      "duration": 0.1475,
      "velocity": 97,
      "chip": "ym2612"
    },
    {
      "channel": 0,
      "note": 88,
      "start": 19.5495,
      "duration": 0.1473,
      "velocity": 99,
      "chip": "ym2612"
    },
    {
      "channel": 1,
      "note": 69,
      "start": 19.55,
      "duration": 0.147,
      "velocity": 97,
      "chip": "ym2612"
    },
    {
      "channel": 4,
      "note": 93,
      "start": 19.677,
      "duration": 0.1472,
      "velocity": 99,
      "chip": "ym2612"
    },
    {
      "channel": 0,
      "note": 85,
      "start": 19.718,
      "duration": 0.4844,
      "velocity": 99,
      "chip": "ym2612"
    },
    {
      "channel": 1,
      "note": 81,
      "start": 19.7185,
      "duration": 0.3998,
      "velocity": 97,
      "chip": "ym2612"
    },
    {
      "channel": 2,
      "note": 57,
      "start": 19.7191,
      "duration": 0.1678,
      "velocity": 95,
      "chip": "ym2612"
    },
    {
      "channel": 3,
      "note": 51,
      "start": 19.7197,
      "duration": 0.378,
      "velocity": 127,
      "chip": "ym2612"
    },
    {
      "channel": 4,
      "note": 88,
      "start": 19.8459,
      "duration": 0.484,
      "velocity": 99,
      "chip": "ym2612"
    },
    {
      "channel": 3,
      "note": 51,
      "start": 20.1427,
      "duration": 0.0001,
      "velocity": 127,
      "chip": "ym2612"
    },
    {
      "channel": 3,
      "note": 51,
      "start": 20.1823,
      "duration": 0.0001,
      "velocity": 127,
      "chip": "ym2612"
    },
    {
      "channel": 0,
      "note": 87,
      "start": 20.2237,
      "duration": 0.3158,
      "velocity": 99,
      "chip": "ym2612"
    },
    {
      "channel": 1,
      "note": 73,
      "start": 20.2241,
      "duration": 0.3156,
      "velocity": 97,
      "chip": "ym2612"
    },
    {
      "channel": 2,
      "note": 57,
      "start": 20.2247,
      "duration": 0.3373,
      "velocity": 95,
      "chip": "ym2612"
    },
    {
      "channel": 3,
      "note": 51,
      "start": 20.2283,
      "duration": 0.1223,
      "velocity": 127,
      "chip": "ym2612"
    },
    {
      "channel": 4,
      "note": 85,
      "start": 20.3512,
      "duration": 0.3156,
      "velocity": 99,
      "chip": "ym2612"
    },
    {
      "channel": 3,
      "note": 51,
      "start": 20.3929,
      "duration": 0.1262,
      "velocity": 127,
      "chip": "ym2612"
    },
    {
      "channel": 0,
      "note": 88,
      "start": 20.561,
      "duration": 0.147,
      "velocity": 99,
      "chip": "ym2612"
    },
    {
      "channel": 1,
      "note": 72,
      "start": 20.5617,
      "duration": 0.1465,
      "velocity": 97,
      "chip": "ym2612"
    },
    {
      "channel": 2,
      "note": 57,
      "start": 20.5623,
      "duration": 0.1711,
      "velocity": 95,
      "chip": "ym2612"
    },
    {
      "channel": 3,
      "note": 51,
      "start": 20.5629,
      "duration": 0.1247,
      "velocity": 127,
      "chip": "ym2612"
    },
    {
      "channel": 4,
      "note": 87,
      "start": 20.6882,
      "duration": 0.1472,
      "velocity": 99,
      "chip": "ym2612"
    },
    {
      "channel": 0,
      "note": 87,
      "start": 20.7309,
      "duration": 0.8198,
      "velocity": 99,
      "chip": "ym2612"
    },
    {
      "channel": 1,
      "note": 71,
      "start": 20.7331,
      "duration": 0.1437,
      "velocity": 97,
      "chip": "ym2612"
    },
    {
      "channel": 2,
      "note": 59,
      "start": 20.7336,
      "duration": 0.1645,
      "velocity": 95,
      "chip": "ym2612"
    },
    {
      "channel": 3,
      "note": 51,
      "start": 20.7366,
      "duration": 0.4566,
      "velocity": 127,
      "chip": "ym2612"
    },
    {
      "channel": 4,
      "note": 88,
      "start": 20.8592,
      "duration": 0.1031,
      "velocity": 97,
      "chip": "ym2612"
    },
    {
      "channel": 1,
      "note": 81,
      "start": 21.2351,
      "duration": 0.9689,
      "velocity": 97,
      "chip": "ym2612"
    },
    {
      "channel": 2,
      "note": 59,
      "start": 21.2356,
      "duration": 0.1681,
      "velocity": 95,
      "chip": "ym2612"
    },
    {
      "channel": 3,
      "note": 51,
      "start": 21.2362,
      "duration": 0.4626,
      "velocity": 127,
      "chip": "ym2612"
    },
    {
      "channel": 4,
      "note": 71,
      "start": 21.3625,
      "duration": 0.9265,
      "velocity": 97,
      "chip": "ym2612"
    },
    {
      "channel": 0,
      "note": 83,
      "start": 21.572,
      "duration": 0.1473,
      "velocity": 99,
      "chip": "ym2612"
    },
    {
      "channel": 0,
      "note": 93,
      "start": 21.7405,
      "duration": 0.4843,
      "velocity": 99,
      "chip": "ym2612"
    },
    {
      "channel": 2,
      "note": 63,
      "start": 21.7413,
      "duration": 0.1681,
      "velocity": 95,
      "chip": "ym2612"
    },
    {
      "channel": 3,
      "note": 51,
      "start": 21.7418,
      "duration": 0.4627,
      "velocity": 127,
      "chip": "ym2612"
    },
    {
      "channel": 0,
      "note": 87,
      "start": 22.246,
      "duration": 0.4844,
      "velocity": 99,
      "chip": "ym2612"
    },
    {
      "channel": 1,
      "note": 81,
      "start": 22.2466,
      "duration": 0.1049,
      "velocity": 97,
      "chip": "ym2612"
    },
    {
      "channel": 2,
      "note": 59,
      "start": 22.2471,
      "duration": 0.3366,
      "velocity": 95,
      "chip": "ym2612"
    },
    {
      "channel": 3,
      "note": 51,
      "start": 22.2477,
      "duration": 0.1254,
      "velocity": 127,
      "chip": "ym2612"
    },
    {
      "channel": 4,
      "note": 81,
      "start": 22.3737,
      "duration": 0.0838,
      "velocity": 97,
      "chip": "ym2612"
    },
    {
      "channel": 1,
      "note": 80,
      "start": 22.4149,
      "duration": 0.1051,
      "velocity": 97,
      "chip": "ym2612"
    },
    {
      "channel": 3,
      "note": 51,
      "start": 22.4157,
      "duration": 0.126,
      "velocity": 127,
      "chip": "ym2612"
    },
    {
      "channel": 4,
      "note": 81,
      "start": 22.5422,
      "duration": 0.0838,
      "velocity": 97,
      "chip": "ym2612"
    },
    {
      "channel": 1,
      "note": 78,
      "start": 22.5834,
      "duration": 0.1051,
      "velocity": 97,
      "chip": "ym2612"
    },
    {
      "channel": 2,
      "note": 63,
      "start": 22.5839,
      "duration": 0.1686,
      "velocity": 95,
      "chip": "ym2612"
    },
    {
      "channel": 3,
      "note": 51,
      "start": 22.5845,
      "duration": 0.1256,
      "velocity": 127,
      "chip": "ym2612"
    },
    {
      "channel": 4,
      "note": 80,
      "start": 22.711,
      "duration": 0.0841,
      "velocity": 97,
      "chip": "ym2612"
    },
    {
      "channel": 0,
      "note": 92,
      "start": 22.7517,
      "duration": 0.8214,
      "velocity": 99,
      "chip": "ym2612"
    },
    {
      "channel": 1,
      "note": 77,
      "start": 22.7522,
      "duration": 0.8212,
      "velocity": 97,
      "chip": "ym2612"
    },
    {
      "channel": 2,
      "note": 65,
      "start": 22.754,
      "duration": 0.1665,
      "velocity": 95,
      "chip": "ym2612"
    },
    {
      "channel": 3,
      "note": 51,
      "start": 22.757,
      "duration": 0.4587,
      "velocity": 127,
      "chip": "ym2612"
    },
    {
      "channel": 4,
      "note": 78,
      "start": 22.8794,
      "duration": 0.8215,
      "velocity": 97,
      "chip": "ym2612"
    },
    {
      "channel": 2,
      "note": 61,
      "start": 23.2578,
      "duration": 0.1683,
      "velocity": 95,
      "chip": "ym2612"
    },
    {
      "channel": 3,
      "note": 51,
      "start": 23.2584,
      "duration": 0.3375,
      "velocity": 127,
      "chip": "ym2612"
    },
    {
      "channel": 0,
      "note": 93,
      "start": 23.5946,
      "duration": 0.1471,
      "velocity": 99,
      "chip": "ym2612"
    },
    {
      "channel": 1,
      "note": 78,
      "start": 23.5953,
      "duration": 0.1466,
      "velocity": 97,
      "chip": "ym2612"
    },
    {
      "channel": 3,
      "note": 51,
      "start": 23.6397,
      "duration": 0.0184,
      "velocity": 127,
      "chip": "ym2612"
    },
    {
      "channel": 3,
      "note": 51,
      "start": 23.7004,
      "duration": 0.0209,
      "velocity": 127,
      "chip": "ym2612"
    },
    {
      "channel": 4,
      "note": 77,
      "start": 23.7219,
      "duration": 0.1471,
      "velocity": 97,
      "chip": "ym2612"
    },
    {
      "channel": 0,
      "note": 95,
      "start": 23.7629,
      "duration": 0.4844,
      "velocity": 99,
      "chip": "ym2612"
    },
    {
      "channel": 1,
      "note": 80,
      "start": 23.7634,
      "duration": 0.4841,
      "velocity": 97,
      "chip": "ym2612"
    },
    {
      "channel": 2,
      "note": 65,
      "start": 23.764,
      "duration": 0.1677,
      "velocity": 95,
      "chip": "ym2612"
    },
    {
      "channel": 3,
      "note": 51,
      "start": 23.767,
      "duration": 0.3124,
      "velocity": 127,
      "chip": "ym2612"
    },
    {
      "channel": 4,
      "note": 78,
      "start": 23.8903,
      "duration": 0.5265,
      "velocity": 97,
      "chip": "ym2612"
    },
    {
      "channel": 3,
      "note": 51,
      "start": 24.1218,
      "duration": 0.1051,
      "velocity": 127,
      "chip": "ym2612"
    },
    {
      "channel": 0,
      "note": 73,
      "start": 24.2703,
      "duration": 0.1454,
      "velocity": 104,
      "chip": "ym2612"
    },
    {
      "channel": 1,
      "note": 77,
      "start": 24.2726,
      "duration": 0.1434,
      "velocity": 97,
      "chip": "ym2612"
    },
    {
      "channel": 2,
      "note": 56,
      "start": 24.2732,
      "duration": 0.3332,
      "velocity": 95,
      "chip": "ym2612"
    },
    {
      "channel": 3,
      "note": 51,
      "start": 24.2738,
      "duration": 0.1218,
      "velocity": 127,
      "chip": "ym2612"
    },
    {
      "channel": 3,
      "note": 51,
      "start": 24.438,
      "duration": 0.1259,
      "velocity": 127,
      "chip": "ym2612"
    },
    {
      "channel": 4,
      "note": 80,
      "start": 24.4413,
      "duration": 0.1019,
      "velocity": 104,
      "chip": "ym2612"
    },
    {
      "channel": 0,
      "note": 73,
      "start": 24.6056,
      "duration": 0.1473,
      "velocity": 104,
      "chip": "ym2612"
    },
    {
      "channel": 1,
      "note": 83,
      "start": 24.6061,
      "duration": 0.147,
      "velocity": 97,
      "chip": "ym2612"
    },
    {
      "channel": 2,
      "note": 59,
      "start": 24.6066,
      "duration": 0.1683,
      "velocity": 95,
      "chip": "ym2612"
    },
    {
      "channel": 3,
      "note": 51,
      "start": 24.6072,
      "duration": 0.1253,
      "velocity": 127,
      "chip": "ym2612"
    },
    {
      "channel": 0,
      "note": 85,
      "start": 24.7741,
      "duration": 1.1584,
      "velocity": 104,
      "chip": "ym2612"
    },
    {
      "channel": 1,
      "note": 81,
      "start": 24.7746,
      "duration": 0.484,
      "velocity": 97,
      "chip": "ym2612"
    },
    {
      "channel": 2,
      "note": 57,
      "start": 24.7752,
      "duration": 0.1677,
      "velocity": 95,
      "chip": "ym2612"
    },
    {
      "channel": 3,
      "note": 51,
      "start": 24.7787,
      "duration": 0.4594,
      "velocity": 127,
      "chip": "ym2612"
    },
    {
      "channel": 4,
      "note": 73,
      "start": 24.7794,
      "duration": 0.0798,
      "velocity": 104,
      "chip": "ym2612"
    },
    {
      "channel": 4,
      "note": 73,
      "start": 24.9441,
      "duration": 0.3154,
      "velocity": 104,
      "chip": "ym2612"
    },
    {
      "channel": 1,
      "note": 81,
      "start": 25.28,
      "duration": 0.1476,
      "velocity": 97,
      "chip": "ym2612"
    },
    {
      "channel": 2,
      "note": 57,
      "start": 25.2805,
      "duration": 0.1684,
      "velocity": 95,
      "chip": "ym2612"
    },
    {
      "channel": 3,
      "note": 51,
      "start": 25.2811,
      "duration": 0.4626,
      "velocity": 127,
      "chip": "ym2612"
    },
    {
      "channel": 4,
      "note": 85,
      "start": 25.2843,
      "duration": 0.0805,
      "velocity": 103,
      "chip": "ym2612"
    },
    {
      "channel": 1,
      "note": 80,
      "start": 25.4485,
      "duration": 0.1473,
      "velocity": 97,
      "chip": "ym2612"
    },
    {
      "channel": 4,
      "note": 81,
      "start": 25.4497,
      "duration": 0.0836,
      "velocity": 103,
      "chip": "ym2612"
    },
    {
      "channel": 1,
      "note": 81,
      "start": 25.617,
      "duration": 0.1473,
      "velocity": 97,
      "chip": "ym2612"
    },
    {
      "channel": 4,
      "note": 81,
      "start": 25.6181,
      "duration": 0.0838,
      "velocity": 103,
      "chip": "ym2612"
    },
    {
      "channel": 1,
      "note": 83,
      "start": 25.7855,
      "duration": 0.1474,
      "velocity": 97,
      "chip": "ym2612"
    },
    {
      "channel": 2,
      "note": 57,
      "start": 25.7861,
      "duration": 0.1684,
      "velocity": 95,
      "chip": "ym2612"
    },
    {
      "channel": 3,
      "note": 51,
      "start": 25.7867,
      "duration": 0.3783,
      "velocity": 127,
      "chip": "ym2612"
    },
    {
      "channel": 4,
      "note": 81,
      "start": 25.7873,
      "duration": 0.4834,
      "velocity": 103,
      "chip": "ym2612"
    },
    {
      "channel": 1,
      "note": 81,
      "start": 25.9542,
      "duration": 0.1471,
      "velocity": 97,
      "chip": "ym2612"
    },
    {
      "channel": 1,
      "note": 83,
      "start": 26.1226,
      "duration": 0.1473,
      "velocity": 97,
      "chip": "ym2612"
    },
    {
      "channel": 3,
      "note": 51,
      "start": 26.2098,
      "duration": 0.0001,
      "velocity": 127,
      "chip": "ym2612"
    },
    {
      "channel": 3,
      "note": 51,
      "start": 26.2495,
      "duration": 0.0001,
      "velocity": 127,
      "chip": "ym2612"
    },
    {
      "channel": 0,
      "note": 85,
      "start": 26.2909,
      "duration": 0.1473,
      "velocity": 104,
      "chip": "ym2612"
    },
    {
      "channel": 1,
      "note": 85,
      "start": 26.2914,
      "duration": 0.1471,
      "velocity": 97,
      "chip": "ym2612"
    },
    {
      "channel": 2,
      "note": 61,
      "start": 26.292,
      "duration": 0.3371,
      "velocity": 95,
      "chip": "ym2612"
    },
    {
      "channel": 3,
      "note": 51,
      "start": 26.2955,
      "duration": 0.1223,
      "velocity": 127,
      "chip": "ym2612"
    },
    {
      "channel": 4,
      "note": 81,
      "start": 26.2986,
      "duration": 0.1407,
      "velocity": 104,
      "chip": "ym2612"
    },
    {
      "channel": 0,
      "note": 87,
      "start": 26.4595,
      "duration": 0.1473,
      "velocity": 104,
      "chip": "ym2612"
    },
    {
      "channel": 3,
      "note": 51,
      "start": 26.4609,
      "duration": 0.1255,
      "velocity": 127,
      "chip": "ym2612"
    },
    {
      "channel": 4,
      "note": 81,
      "start": 26.4617,
      "duration": 0.1461,
      "velocity": 104,
      "chip": "ym2612"
    },
    {
      "channel": 0,
      "note": 88,
      "start": 26.6282,
      "duration": 0.147,
      "velocity": 104,
      "chip": "ym2612"
    },
    {
      "channel": 1,
      "note": 85,
      "start": 26.6287,
      "duration": 0.1468,
      "velocity": 97,
      "chip": "ym2612"
    },
    {
      "channel": 2,
      "note": 57,
      "start": 26.6293,
      "duration": 0.168,
      "velocity": 95,
      "chip": "ym2612"
    },
    {
      "channel": 3,
      "note": 51,
      "start": 26.6299,
      "duration": 0.125,
      "velocity": 127,
      "chip": "ym2612"
    },
    {
      "channel": 4,
      "note": 83,
      "start": 26.6305,
      "duration": 0.1458,
      "velocity": 104,
      "chip": "ym2612"
    },
    {
      "channel": 0,
      "note": 87,
      "start": 26.7966,
      "duration": 1.1585,
      "velocity": 104,
      "chip": "ym2612"
    },
    {
      "channel": 1,
      "note": 84,
      "start": 26.7971,
      "duration": 0.6526,
      "velocity": 97,
      "chip": "ym2612"
    },
    {
      "channel": 2,
      "note": 56,
      "start": 26.7976,
      "duration": 0.1677,
      "velocity": 95,
      "chip": "ym2612"
    },
    {
      "channel": 3,
      "note": 51,
      "start": 26.8006,
      "duration": 0.4602,
      "velocity": 127,
      "chip": "ym2612"
    },
    {
      "channel": 4,
      "note": 85,
      "start": 26.8012,
      "duration": 0.4806,
      "velocity": 104,
      "chip": "ym2612"
    },
    {
      "channel": 2,
      "note": 56,
      "start": 27.3026,
      "duration": 0.1686,
      "velocity": 95,
      "chip": "ym2612"
    },
    {
      "channel": 3,
      "note": 51,
      "start": 27.3032,
      "duration": 0.4629,
      "velocity": 127,
      "chip": "ym2612"
    },
    {
      "channel": 4,
      "note": 84,
      "start": 27.4324,
      "duration": 0.1444,
      "velocity": 97,
      "chip": "ym2612"
    },
    {
      "channel": 1,
      "note": 83,
      "start": 27.4709,
      "duration": 0.1473,
      "velocity": 97,
      "chip": "ym2612"
    },
    {
      "channel": 4,
      "note": 84,
      "start": 27.5981,
      "duration": 0.1476,
      "velocity": 97,
      "chip": "ym2612"
    },
    {
      "channel": 1,
      "note": 84,
      "start": 27.6394,
      "duration": 0.1473,
      "velocity": 97,
      "chip": "ym2612"
    },
    {
      "channel": 4,
      "note": 83,
      "start": 27.7667,
      "duration": 0.1472,
      "velocity": 97,
      "chip": "ym2612"
    },
    {
      "channel": 1,
      "note": 87,
      "start": 27.808,
      "duration": 0.4844,
      "velocity": 97,
      "chip": "ym2612"
    },
    {
      "channel": 2,
      "note": 60,
      "start": 27.8085,
      "duration": 0.1681,
      "velocity": 95,
      "chip": "ym2612"
    },
    {
      "channel": 3,
      "note": 51,
      "start": 27.8091,
      "duration": 0.1255,
      "velocity": 127,
      "chip": "ym2612"
    },
    {
      "channel": 4,
      "note": 84,
      "start": 27.9352,
      "duration": 0.4842,
      "velocity": 97,
      "chip": "ym2612"
    },
    {
      "channel": 3,
      "note": 51,
      "start": 27.9775,
      "duration": 0.1256,
      "velocity": 127,
      "chip": "ym2612"
    },
    {
      "channel": 3,
      "note": 51,
      "start": 28.1458,
      "duration": 0.1259,
      "velocity": 127,
      "chip": "ym2612"
    },
    {
      "channel": 0,
      "note": 87,
      "start": 28.3133,
      "duration": 0.1475,
      "velocity": 104,
      "chip": "ym2612"
    },
    {
      "channel": 1,
      "note": 80,
      "start": 28.3138,
      "duration": 0.1473,
      "velocity": 97,
      "chip": "ym2612"
    },
    {
      "channel": 2,
      "note": 60,
      "start": 28.3144,
      "duration": 0.3368,
      "velocity": 95,
      "chip": "ym2612"
    },
    {
      "channel": 3,
      "note": 51,
      "start": 28.3149,
      "duration": 0.315,
      "velocity": 127,
      "chip": "ym2612"
    },
    {
      "channel": 4,
      "note": 87,
      "start": 28.4432,
      "duration": 0.1448,
      "velocity": 104,
      "chip": "ym2612"
    },
    {
      "channel": 0,
      "note": 88,
      "start": 28.4819,
      "duration": 0.1473,
      "velocity": 104,
      "chip": "ym2612"
    },
    {
      "channel": 4,
      "note": 87,
      "start": 28.6093,
      "duration": 0.1472,
      "velocity": 104,
      "chip": "ym2612"
    },
    {
      "channel": 0,
      "note": 90,
      "start": 28.6504,
      "duration": 0.1473,
      "velocity": 104,
      "chip": "ym2612"
    },
    {
      "channel": 1,
      "note": 87,
      "start": 28.6509,
      "duration": 0.147,
      "velocity": 97,
      "chip": "ym2612"
    },
    {
      "channel": 2,
      "note": 56,
      "start": 28.6515,
      "duration": 0.1683,
      "velocity": 95,
      "chip": "ym2612"
    },
    {
      "channel": 3,
      "note": 51,
      "start": 28.6722,
      "duration": 0.1054,
      "velocity": 127,
      "chip": "ym2612"
    },
    {
      "channel": 4,
      "note": 88,
      "start": 28.7784,
      "duration": 0.1466,
      "velocity": 104,
      "chip": "ym2612"
    },
    {
      "channel": 0,
      "note": 88,
      "start": 28.8189,
      "duration": 0.6529,
      "velocity": 104,
      "chip": "ym2612"
    },
    {
      "channel": 1,
      "note": 85,
      "start": 28.8195,
      "duration": 0.1469,
      "velocity": 97,
      "chip": "ym2612"
    },
    {
      "channel": 2,
      "note": 61,
      "start": 28.82,
      "duration": 0.1681,
      "velocity": 95,
      "chip": "ym2612"
    },
    {
      "channel": 3,
      "note": 51,
      "start": 28.823,
      "duration": 0.4599,
      "velocity": 127,
      "chip": "ym2612"
    },
    {
      "channel": 4,
      "note": 90,
      "start": 28.9465,
      "duration": 0.6527,
      "velocity": 104,
      "chip": "ym2612"
    },
    {
      "channel": 1,
      "note": 84,
      "start": 28.9877,
      "duration": 0.1472,
      "velocity": 97,
      "chip": "ym2612"
    },
    {
      "channel": 1,
      "note": 85,
      "start": 29.1562,
      "duration": 0.1473,
      "velocity": 97,
      "chip": "ym2612"
    },
    {
      "channel": 1,
      "note": 87,
      "start": 29.3247,
      "duration": 0.1474,
      "velocity": 97,
      "chip": "ym2612"
    },
    {
      "channel": 2,
      "note": 61,
      "start": 29.3253,
      "duration": 0.1684,
      "velocity": 95,
      "chip": "ym2612"
    },
    {
      "channel": 3,
      "note": 51,
      "start": 29.3259,
      "duration": 0.3784,
      "velocity": 127,
      "chip": "ym2612"
    },
    {
      "channel": 0,
      "note": 87,
      "start": 29.493,
      "duration": 0.1473,
      "velocity": 104,
      "chip": "ym2612"
    },
    {
      "channel": 4,
      "note": 88,
      "start": 29.6205,
      "duration": 0.1472,
      "velocity": 104,
      "chip": "ym2612"
    },
    {
      "channel": 0,
      "note": 88,
      "start": 29.6618,
      "duration": 0.1471,
      "velocity": 104,
      "chip": "ym2612"
    },
    {
      "channel": 3,
      "note": 51,
      "start": 29.749,
      "duration": 0.0001,
      "velocity": 127,
      "chip": "ym2612"
    },
    {
      "channel": 3,
      "note": 51,
      "start": 29.7888,
      "duration": 0.0001,
      "velocity": 127,
      "chip": "ym2612"
    },
    {
      "channel": 4,
      "note": 87,
      "start": 29.7895,
      "duration": 0.1468,
      "velocity": 104,
      "chip": "ym2612"
    },
    {
      "channel": 0,
      "note": 92,
      "start": 29.8301,
      "duration": 0.4844,
      "velocity": 104,
      "chip": "ym2612"
    },
    {
      "channel": 1,
      "note": 85,
      "start": 29.8306,
      "duration": 0.1473,
      "velocity": 97,
      "chip": "ym2612"
    },
    {
      "channel": 2,
      "note": 61,
      "start": 29.8312,
      "duration": 0.1681,
      "velocity": 95,
      "chip": "ym2612"
    },
    {
      "channel": 3,
      "note": 51,
      "start": 29.8342,
      "duration": 0.3756,
      "velocity": 127,
      "chip": "ym2612"
    },
    {
      "channel": 4,
      "note": 88,
      "start": 29.9576,
      "duration": 0.4844,
      "velocity": 104,
      "chip": "ym2612"
    },
    {
      "channel": 1,
      "note": 84,
      "start": 29.9989,
      "duration": 0.1473,
      "velocity": 97,
      "chip": "ym2612"
    },
    {
      "channel": 1,
      "note": 85,
      "start": 30.1674,
      "duration": 0.1473,
      "velocity": 97,
      "chip": "ym2612"
    },
    {
      "channel": 3,
      "note": 51,
      "start": 30.2546,
      "duration": 0.0001,
      "velocity": 127,
      "chip": "ym2612"
    },
    {
      "channel": 3,
      "note": 51,
      "start": 30.2949,
      "duration": 0.0001,
      "velocity": 127,
      "chip": "ym2612"
    },
    {
      "channel": 0,
      "note": 88,
      "start": 30.3358,
      "duration": 0.1472,
      "velocity": 104,
      "chip": "ym2612"
    },
    {
      "channel": 1,
      "note": 87,
      "start": 30.3362,
      "duration": 0.147,
      "velocity": 97,
      "chip": "ym2612"
    },
    {
      "channel": 2,
      "note": 61,
      "start": 30.3368,
      "duration": 0.3368,
      "velocity": 95,
      "chip": "ym2612"
    },
    {
      "channel": 3,
      "note": 51,
      "start": 30.3398,
      "duration": 0.1228,
      "velocity": 127,
      "chip": "ym2612"
    },
    {
      "channel": 4,
      "note": 92,
      "start": 30.4632,
      "duration": 0.1472,
      "velocity": 104,
      "chip": "ym2612"
    },
    {
      "channel": 1,
      "note": 88,
      "start": 30.5046,
      "duration": 0.1472,
      "velocity": 97,
      "chip": "ym2612"
    },
    {
      "channel": 3,
      "note": 51,
      "start": 30.5054,
      "duration": 0.1258,
      "velocity": 127,
      "chip": "ym2612"
    },
    {
      "channel": 0,
      "note": 88,
      "start": 30.6728,
      "duration": 0.1473,
      "velocity": 104,
      "chip": "ym2612"
    },
    {
      "channel": 1,
      "note": 89,
      "start": 30.6733,
      "duration": 0.147,
      "velocity": 97,
      "chip": "ym2612"
    },
    {
      "channel": 2,
      "note": 56,
      "start": 30.6738,
      "duration": 0.1683,
      "velocity": 95,
      "chip": "ym2612"
    },
    {
      "channel": 3,
      "note": 51,
      "start": 30.6745,
      "duration": 0.1253,
      "velocity": 127,
      "chip": "ym2612"
    },
    {
      "channel": 4,
      "note": 88,
      "start": 30.8003,
      "duration": 0.084,
      "velocity": 104,
      "chip": "ym2612"
    },
    {
      "channel": 0,
      "note": 90,
      "start": 30.8413,
      "duration": 0.6107,
      "velocity": 104,
      "chip": "ym2612"
    },
    {
      "channel": 1,
      "note": 90,
      "start": 30.8418,
      "duration": 0.147,
      "velocity": 97,
      "chip": "ym2612"
    },
    {
      "channel": 2,
      "note": 54,
      "start": 30.8424,
      "duration": 0.168,
      "velocity": 95,
      "chip": "ym2612"
    },
    {
      "channel": 3,
      "note": 51,
      "start": 30.8459,
      "duration": 0.4594,
      "velocity": 127,
      "chip": "ym2612"
    },
    {
      "channel": 4,
      "note": 88,
      "start": 30.9688,
      "duration": 0.5896,
      "velocity": 104,
      "chip": "ym2612"
    },
    {
      "channel": 1,
      "note": 88,
      "start": 31.0101,
      "duration": 0.1473,
      "velocity": 97,
      "chip": "ym2612"
    },
    {
      "channel": 1,
      "note": 87,
      "start": 31.1789,
      "duration": 0.1471,
      "velocity": 97,
      "chip": "ym2612"
    },
    {
      "channel": 1,
      "note": 85,
      "start": 31.3472,
      "duration": 0.1477,
      "velocity": 97,
      "chip": "ym2612"
    },
    {
      "channel": 2,
      "note": 56,
      "start": 31.3477,
      "duration": 0.1685,
      "velocity": 95,
      "chip": "ym2612"
    },
    {
      "channel": 3,
      "note": 51,
      "start": 31.3483,
      "duration": 0.3783,
      "velocity": 127,
      "chip": "ym2612"
    },
    {
      "channel": 0,
      "note": 90,
      "start": 31.5155,
      "duration": 0.1051,
      "velocity": 104,
      "chip": "ym2612"
    },
    {
      "channel": 4,
      "note": 90,
      "start": 31.643,
      "duration": 0.084,
      "velocity": 104,
      "chip": "ym2612"
    },
    {
      "channel": 0,
      "note": 90,
      "start": 31.684,
      "duration": 0.1051,
      "velocity": 104,
      "chip": "ym2612"
    },
    {
      "channel": 3,
      "note": 51,
      "start": 31.7715,
      "duration": 0.0001,
      "velocity": 127,
      "chip": "ym2612"
    },
    {
      "channel": 3,
      "note": 51,
      "start": 31.8117,
      "duration": 0.0001,
      "velocity": 127,
      "chip": "ym2612"
    },
    {
      "channel": 4,
      "note": 90,
      "start": 31.8125,
      "duration": 0.0832,
      "velocity": 104,
      "chip": "ym2612"
    },
    {
      "channel": 0,
      "note": 90,
      "start": 31.8525,
      "duration": 0.1052,
      "velocity": 104,
      "chip": "ym2612"
    },
    {
      "channel": 1,
      "note": 90,
      "start": 31.853,
      "duration": 0.147,
      "velocity": 97,
      "chip": "ym2612"
    },
    {
      "channel": 2,
      "note": 58,
      "start": 31.8536,
      "duration": 0.168,
      "velocity": 95,
      "chip": "ym2612"
    },
    {
      "channel": 3,
      "note": 51,
      "start": 31.8566,
      "duration": 0.123,
      "velocity": 127,
      "chip": "ym2612"
    },
    {
      "channel": 4,
      "note": 90,
      "start": 31.9801,
      "duration": 0.0839,
      "velocity": 104,
      "chip": "ym2612"
    },
    {
      "channel": 1,
      "note": 88,
      "start": 32.0213,
      "duration": 0.1473,
      "velocity": 97,
      "chip": "ym2612"
    },
    {
      "channel": 3,
      "note": 51,
      "start": 32.0222,
      "duration": 0.1258,
      "velocity": 127,
      "chip": "ym2612"
    },
    {
      "channel": 0,
      "note": 90,
      "start": 32.1054,
      "duration": 0.1054,
      "velocity": 104,
      "chip": "ym2612"
    },
    {
      "channel": 1,
      "note": 87,
      "start": 32.1899,
      "duration": 0.1473,
      "velocity": 97,
      "chip": "ym2612"
    },
    {
      "channel": 3,
      "note": 51,
      "start": 32.1907,
      "duration": 0.1258,
      "velocity": 127,
      "chip": "ym2612"
    },
    {
      "channel": 4,
      "note": 90,
      "start": 32.2329,
      "duration": 0.084,
      "velocity": 104,
      "chip": "ym2612"
    },
    {
      "channel": 0,
      "note": 90,
      "start": 32.3581,
      "duration": 0.1052,
      "velocity": 104,
      "chip": "ym2612"
    },
    {
      "channel": 1,
      "note": 85,
      "start": 32.3586,
      "duration": 0.1471,
      "velocity": 97,
      "chip": "ym2612"
    },
    {
      "channel": 2,
      "note": 61,
      "start": 32.3592,
      "duration": 0.337,
      "velocity": 95,
      "chip": "ym2612"
    },
    {
      "channel": 3,
      "note": 51,
      "start": 32.3598,
      "duration": 0.1254,
      "velocity": 127,
      "chip": "ym2612"
    },
    {
      "channel": 4,
      "note": 90,
      "start": 32.4858,
      "duration": 0.0838,
      "velocity": 104,
      "chip": "ym2612"
    },
    {
      "channel": 0,
      "note": 90,
      "start": 32.5267,
      "duration": 0.1052,
      "velocity": 104,
      "chip": "ym2612"
    },
    {
      "channel": 1,
      "note": 83,
      "start": 32.5275,
      "duration": 0.1468,
      "velocity": 97,
      "chip": "ym2612"
    },
    {
      "channel": 3,
      "note": 51,
      "start": 32.5285,
      "duration": 0.1252,
      "velocity": 127,
      "chip": "ym2612"
    },
    {
      "channel": 4,
      "note": 90,
      "start": 32.6543,
      "duration": 0.0838,
      "velocity": 104,
      "chip": "ym2612"
    },
    {
      "channel": 0,
      "note": 90,
      "start": 32.6955,
      "duration": 0.1049,
      "velocity": 104,
      "chip": "ym2612"
    },
    {
      "channel": 1,
      "note": 82,
      "start": 32.6959,
      "duration": 0.1469,
      "velocity": 97,
      "chip": "ym2612"
    },
    {
      "channel": 2,
      "note": 61,
      "start": 32.6965,
      "duration": 0.1683,
      "velocity": 95,
      "chip": "ym2612"
    },
    {
      "channel": 3,
      "note": 51,
      "start": 32.6971,
      "duration": 0.1252,
      "velocity": 127,
      "chip": "ym2612"
    },
    {
      "channel": 4,
      "note": 90,
      "start": 32.8228,
      "duration": 0.0843,
      "velocity": 104,
      "chip": "ym2612"
    },
    {
      "channel": 0,
      "note": 83,
      "start": 32.8639,
      "duration": 0.6527,
      "velocity": 104,
      "chip": "ym2612"
    },
    {
      "channel": 1,
      "note": 83,
      "start": 32.8645,
      "duration": 0.1471,
      "velocity": 97,
      "chip": "ym2612"
    },
    {
      "channel": 2,
      "note": 59,
      "start": 32.8652,
      "duration": 0.6308,
      "velocity": 95,
      "chip": "ym2612"
    },
    {
      "channel": 3,
      "note": 51,
      "start": 32.8684,
      "duration": 0.038,
      "velocity": 127,
      "chip": "ym2612"
    },
    {
      "channel": 3,
      "note": 51,
      "start": 32.9067,
      "duration": 0.0418,
      "velocity": 127,
      "chip": "ym2612"
    },
    {
      "channel": 3,
      "note": 51,
      "start": 32.9512,
      "duration": 0.0395,
      "velocity": 127,
      "chip": "ym2612"
    },
    {
      "channel": 3,
      "note": 51,
      "start": 32.991,
      "duration": 0.042,
      "velocity": 127,
      "chip": "ym2612"
    },
    {
      "channel": 4,
      "note": 90,
      "start": 32.9918,
      "duration": 0.4417,
      "velocity": 104,
      "chip": "ym2612"
    },
    {
      "channel": 1,
      "note": 85,
      "start": 33.0325,
      "duration": 0.1473,
      "velocity": 97,
      "chip": "ym2612"
    },
    {
      "channel": 3,
      "note": 51,
      "start": 33.0358,
      "duration": 0.0391,
      "velocity": 127,
      "chip": "ym2612"
    },
    {
      "channel": 3,
      "note": 51,
      "start": 33.0752,
      "duration": 0.0419,
      "velocity": 127,
      "chip": "ym2612"
    },
    {
      "channel": 3,
      "note": 51,
      "start": 33.1173,
      "duration": 0.0419,
      "velocity": 127,
      "chip": "ym2612"
    },
    {
      "channel": 3,
      "note": 51,
      "start": 33.1595,
      "duration": 0.0421,
      "velocity": 127,
      "chip": "ym2612"
    },
    {
      "channel": 1,
      "note": 87,
      "start": 33.2011,
      "duration": 0.1473,
      "velocity": 97,
      "chip": "ym2612"
    },
    {
      "channel": 3,
      "note": 51,
      "start": 33.202,
      "duration": 0.0415,
      "velocity": 127,
      "chip": "ym2612"
    },
    {
      "channel": 3,
      "note": 51,
      "start": 33.2441,
      "duration": 0.0415,
      "velocity": 127,
      "chip": "ym2612"
    },
    {
      "channel": 3,
      "note": 51,
      "start": 33.2859,
      "duration": 0.0423,
      "velocity": 127,
      "chip": "ym2612"
    },
    {
      "channel": 3,
      "note": 51,
      "start": 33.3285,
      "duration": 0.0417,
      "velocity": 127,
      "chip": "ym2612"
    },
    {
      "channel": 1,
      "note": 85,
      "start": 33.3696,
      "duration": 0.1473,
      "velocity": 97,
      "chip": "ym2612"
    },
    {
      "channel": 3,
      "note": 51,
      "start": 33.3705,
      "duration": 0.0418,
      "velocity": 127,
      "chip": "ym2612"
    },
    {
      "channel": 3,
      "note": 51,
      "start": 33.4126,
      "duration": 0.0416,
      "velocity": 127,
      "chip": "ym2612"
    },
    {
      "channel": 3,
      "note": 51,
      "start": 33.4545,
      "duration": 0.0419,
      "velocity": 127,
      "chip": "ym2612"
    },
    {
      "channel": 4,
      "note": 83,
      "start": 33.4577,
      "duration": 0.0849,
      "velocity": 97,
      "chip": "ym2612"
    },
    {
      "channel": 3,
      "note": 51,
      "start": 33.4967,
      "duration": 0.0426,
      "velocity": 127,
      "chip": "ym2612"
    },
    {
      "channel": 0,
      "note": 83,
      "start": 33.5379,
      "duration": 0.1051,
      "velocity": 104,
      "chip": "ym2612"
    },
    {
      "channel": 1,
      "note": 87,
      "start": 33.5384,
      "duration": 0.147,
      "velocity": 97,
      "chip": "ym2612"
    },
    {
      "channel": 2,
      "note": 59,
      "start": 33.539,
      "duration": 0.1683,
      "velocity": 95,
      "chip": "ym2612"
    },
    {
      "channel": 3,
      "note": 51,
      "start": 33.5422,
      "duration": 0.1228,
      "velocity": 127,
      "chip": "ym2612"
    },
    {
      "channel": 4,
      "note": 85,
      "start": 33.6232,
      "duration": 0.0853,
      "velocity": 97,
      "chip": "ym2612"
    },
    {
      "channel": 0,
      "note": 83,
      "start": 33.7064,
      "duration": 0.1054,
      "velocity": 104,
      "chip": "ym2612"
    },
    {
      "channel": 1,
      "note": 88,
      "start": 33.7069,
      "duration": 0.1471,
      "velocity": 97,
      "chip": "ym2612"
    },
    {
      "channel": 2,
      "note": 59,
      "start": 33.7075,
      "duration": 0.1683,
      "velocity": 95,
      "chip": "ym2612"
    },
    {
      "channel": 3,
      "note": 51,
      "start": 33.7081,
      "duration": 0.1254,
      "velocity": 127,
      "chip": "ym2612"
    },
    {
      "channel": 4,
      "note": 87,
      "start": 33.7917,
      "duration": 0.0853,
      "velocity": 97,
      "chip": "ym2612"
    },
    {
      "channel": 0,
      "note": 83,
      "start": 33.875,
      "duration": 0.1051,
      "velocity": 104,
      "chip": "ym2612"
    },
    {
      "channel": 1,
      "note": 87,
      "start": 33.8755,
      "duration": 0.147,
      "velocity": 97,
      "chip": "ym2612"
    },
    {
      "channel": 2,
      "note": 59,
      "start": 33.876,
      "duration": 0.1257,
      "velocity": 95,
      "chip": "ym2612"
    },
    {
      "channel": 3,
      "note": 51,
      "start": 33.8766,
      "duration": 0.2095,
      "velocity": 127,
      "chip": "ym2612"
    },
    {
      "channel": 4,
      "note": 88,
      "start": 33.9633,
      "duration": 0.0818,
      "velocity": 104,
      "chip": "ym2612"
    },
    {
      "channel": 1,
      "note": 88,
      "start": 34.044,
      "duration": 0.147,
      "velocity": 97,
      "chip": "ym2612"
    },
    {
      "channel": 0,
      "note": 83,
      "start": 34.128,
      "duration": 0.1049,
      "velocity": 104,
      "chip": "ym2612"
    },
    {
      "channel": 2,
      "note": 59,
      "start": 34.1289,
      "duration": 0.1256,
      "velocity": 95,
      "chip": "ym2612"
    },
    {
      "channel": 3,
      "note": 51,
      "start": 34.1295,
      "duration": 0.2094,
      "velocity": 127,
      "chip": "ym2612"
    },
    {
      "channel": 1,
      "note": 90,
      "start": 34.2123,
      "duration": 0.1473,
      "velocity": 97,
      "chip": "ym2612"
    },
    {
      "channel": 4,
      "note": 83,
      "start": 34.2134,
      "duration": 0.0837,
      "velocity": 104,
      "chip": "ym2612"
    },
    {
      "channel": 0,
      "note": 83,
      "start": 34.3806,
      "duration": 0.1051,
      "velocity": 104,
      "chip": "ym2612"
    },
    {
      "channel": 1,
      "note": 88,
      "start": 34.3811,
      "duration": 0.1473,
      "velocity": 97,
      "chip": "ym2612"
    },
    {
      "channel": 2,
      "note": 59,
      "start": 34.3816,
      "duration": 0.1683,
      "velocity": 95,
      "chip": "ym2612"
    },
    {
      "channel": 3,
      "note": 51,
      "start": 34.3822,
      "duration": 0.1254,
      "velocity": 127,
      "chip": "ym2612"
    },
    {
      "channel": 4,
      "note": 83,
      "start": 34.4684,
      "duration": 0.0828,
      "velocity": 97,
      "chip": "ym2612"
    },
    {
      "channel": 0,
      "note": 83,
      "start": 34.5491,
      "duration": 0.1051,
      "velocity": 104,
      "chip": "ym2612"
    },
    {
      "channel": 1,
      "note": 87,
      "start": 34.5496,
      "duration": 0.147,
      "velocity": 97,
      "chip": "ym2612"
    },
    {
      "channel": 2,
      "note": 59,
      "start": 34.5501,
      "duration": 0.1684,
      "velocity": 95,
      "chip": "ym2612"
    },
    {
      "channel": 3,
      "note": 51,
      "start": 34.5507,
      "duration": 0.1254,
      "velocity": 127,
      "chip": "ym2612"
    },
    {
      "channel": 4,
      "note": 88,
      "start": 34.6344,
      "duration": 0.0853,
      "velocity": 97,
      "chip": "ym2612"
    },
    {
      "channel": 0,
      "note": 83,
      "start": 34.7177,
      "duration": 0.1051,
      "velocity": 104,
      "chip": "ym2612"
    },
    {
      "channel": 1,
      "note": 85,
      "start": 34.7182,
      "duration": 0.147,
      "velocity": 97,
      "chip": "ym2612"
    },
    {
      "channel": 2,
      "note": 59,
      "start": 34.7187,
      "duration": 0.1686,
      "velocity": 95,
      "chip": "ym2612"
    },
    {
      "channel": 3,
      "note": 51,
      "start": 34.7193,
      "duration": 0.1258,
      "velocity": 127,
      "chip": "ym2612"
    },
    {
      "channel": 4,
      "note": 87,
      "start": 34.803,
      "duration": 0.063,
      "velocity": 97,
      "chip": "ym2612"
    },
    {
      "channel": 0,
      "note": 83,
      "start": 34.8863,
      "duration": 2.0011,
      "velocity": 104,
      "chip": "ym2612"
    },
    {
      "channel": 1,
      "note": 83,
      "start": 34.8869,
      "duration": 2.0008,
      "velocity": 97,
      "chip": "ym2612"
    },
    {
      "channel": 2,
      "note": 59,
      "start": 34.8876,
      "duration": 2.0221,
      "velocity": 95,
      "chip": "ym2612"
    },
    {
      "channel": 3,
      "note": 51,
      "start": 34.8908,
      "duration": 0.0382,
      "velocity": 127,
      "chip": "ym2612"
    },
    {
      "channel": 4,
      "note": 85,
      "start": 34.8944,
      "duration": 0.14,
      "velocity": 97,
      "chip": "ym2612"
    },
    {
      "channel": 3,
      "note": 51,
      "start": 34.9294,
      "duration": 0.0415,
      "velocity": 127,
      "chip": "ym2612"
    },
    {
      "channel": 3,
      "note": 51,
      "start": 34.9737,
      "duration": 0.0394,
      "velocity": 127,
      "chip": "ym2612"
    },
    {
      "channel": 3,
      "note": 51,
      "start": 35.0134,
      "duration": 0.0419,
      "velocity": 127,
      "chip": "ym2612"
    },
    {
      "channel": 3,
      "note": 51,
      "start": 35.058,
      "duration": 0.0394,
      "velocity": 127,
      "chip": "ym2612"
    },
    {
      "channel": 4,
      "note": 71,
      "start": 35.0586,
      "duration": 0.1443,
      "velocity": 97,
      "chip": "ym2612"
    },
    {
      "channel": 3,
      "note": 51,
      "start": 35.0976,
      "duration": 0.0419,
      "velocity": 127,
      "chip": "ym2612"
    },
    {
      "channel": 3,
      "note": 51,
      "start": 35.1398,
      "duration": 0.0418,
      "velocity": 127,
      "chip": "ym2612"
    },
    {
      "channel": 3,
      "note": 51,
      "start": 35.1819,
      "duration": 0.0418,
      "velocity": 127,
      "chip": "ym2612"
    },
    {
      "channel": 3,
      "note": 51,
      "start": 35.2241,
      "duration": 0.0418,
      "velocity": 127,
      "chip": "ym2612"
    },
    {
      "channel": 4,
      "note": 66,
      "start": 35.2247,
      "duration": 0.1468,
      "velocity": 97,
      "chip": "ym2612"
    },
    {
      "channel": 3,
      "note": 51,
      "start": 35.2661,
      "duration": 0.0419,
      "velocity": 127,
      "chip": "ym2612"
    },
    {
      "channel": 3,
      "note": 51,
      "start": 35.3083,
      "duration": 0.0419,
      "velocity": 127,
      "chip": "ym2612"
    },
    {
      "channel": 3,
      "note": 51,
      "start": 35.3505,
      "duration": 0.0419,
      "velocity": 127,
      "chip": "ym2612"
    },
    {
      "channel": 3,
      "note": 51,
      "start": 35.3927,
      "duration": 0.0419,
      "velocity": 127,
      "chip": "ym2612"
    },
    {
      "channel": 4,
      "note": 71,
      "start": 35.3933,
      "duration": 0.1468,
      "velocity": 97,
      "chip": "ym2612"
    },
    {
      "channel": 3,
      "note": 51,
      "start": 35.4349,
      "duration": 0.0418,
      "velocity": 127,
      "chip": "ym2612"
    },
    {
      "channel": 3,
      "note": 51,
      "start": 35.477,
      "duration": 0.0418,
      "velocity": 127,
      "chip": "ym2612"
    },
    {
      "channel": 3,
      "note": 51,
      "start": 35.5191,
      "duration": 0.0422,
      "velocity": 127,
      "chip": "ym2612"
    },
    {
      "channel": 3,
      "note": 51,
      "start": 35.5643,
      "duration": 0.123,
      "velocity": 127,
      "chip": "ym2612"
    },
    {
      "channel": 4,
      "note": 73,
      "start": 35.5649,
      "duration": 0.1438,
      "velocity": 97,
      "chip": "ym2612"
    },
    {
      "channel": 3,
      "note": 51,
      "start": 35.7297,
      "duration": 0.1261,
      "velocity": 127,
      "chip": "ym2612"
    },
    {
      "channel": 4,
      "note": 66,
      "start": 35.7303,
      "duration": 0.1472,
      "velocity": 97,
      "chip": "ym2612"
    },
    {
      "channel": 3,
      "note": 51,
      "start": 35.8983,
      "duration": 0.2104,
      "velocity": 127,
      "chip": "ym2612"
    },
    {
      "channel": 4,
      "note": 73,
      "start": 35.8989,
      "duration": 0.1471,
      "velocity": 97,
      "chip": "ym2612"
    },
    {
      "channel": 4,
      "note": 75,
      "start": 36.067,
      "duration": 0.1473,
      "velocity": 97,
      "chip": "ym2612"
    },
    {
      "channel": 3,
      "note": 51,
      "start": 36.151,
      "duration": 0.211,
      "velocity": 127,
      "chip": "ym2612"
    },
    {
      "channel": 4,
      "note": 66,
      "start": 36.2355,
      "duration": 0.1473,
      "velocity": 97,
      "chip": "ym2612"
    },
    {
      "channel": 3,
      "note": 51,
      "start": 36.4038,
      "duration": 0.1261,
      "velocity": 127,
      "chip": "ym2612"
    },
    {
      "channel": 4,
      "note": 75,
      "start": 36.4044,
      "duration": 0.1469,
      "velocity": 97,
      "chip": "ym2612"
    },
    {
      "channel": 3,
      "note": 51,
      "start": 36.5724,
      "duration": 0.1261,
      "velocity": 127,
      "chip": "ym2612"
    },
    {
      "channel": 4,
      "note": 76,
      "start": 36.573,
      "duration": 0.1469,
      "velocity": 97,
      "chip": "ym2612"
    },
    {
      "channel": 3,
      "note": 51,
      "start": 36.7409,
      "duration": 0.1262,
      "velocity": 127,
      "chip": "ym2612"
    },
    {
      "channel": 4,
      "note": 75,
      "start": 36.7415,
      "duration": 0.1471,
      "velocity": 97,
      "chip": "ym2612"
    },
    {
      "channel": 0,
      "note": 83,
      "start": 36.9087,
      "duration": 0.653,
      "velocity": 104,
      "chip": "ym2612"
    },
    {
      "channel": 1,
      "note": 83,
      "start": 36.9093,
      "duration": 0.1468,
      "velocity": 97,
      "chip": "ym2612"
    },
    {
      "channel": 2,
      "note": 59,
      "start": 36.91,
      "duration": 0.6308,
      "velocity": 95,
      "chip": "ym2612"
    },
    {
      "channel": 3,
      "note": 51,
      "start": 36.9138,
      "duration": 0.0375,
      "velocity": 127,
      "chip": "ym2612"
    },
    {
      "channel": 3,
      "note": 51,
      "start": 36.9515,
      "duration": 0.0418,
      "velocity": 127,
      "chip": "ym2612"
    },
    {
      "channel": 3,
      "note": 51,
      "start": 36.9966,
      "duration": 0.0389,
      "velocity": 127,
      "chip": "ym2612"
    },
    {
      "channel": 3,
      "note": 51,
      "start": 37.0358,
      "duration": 0.0426,
      "velocity": 127,
      "chip": "ym2612"
    },
    {
      "channel": 4,
      "note": 73,
      "start": 37.0366,
      "duration": 0.4422,
      "velocity": 97,
      "chip": "ym2612"
    },
    {
      "channel": 1,
      "note": 85,
      "start": 37.0776,
      "duration": 0.147,
      "velocity": 97,
      "chip": "ym2612"
    },
    {
      "channel": 3,
      "note": 51,
      "start": 37.0812,
      "duration": 0.0386,
      "velocity": 127,
      "chip": "ym2612"
    },
    {
      "channel": 3,
      "note": 51,
      "start": 37.1201,
      "duration": 0.042,
      "velocity": 127,
      "chip": "ym2612"
    },
    {
      "channel": 3,
      "note": 51,
      "start": 37.1624,
      "duration": 0.0416,
      "velocity": 127,
      "chip": "ym2612"
    },
    {
      "channel": 3,
      "note": 51,
      "start": 37.2043,
      "duration": 0.0422,
      "velocity": 127,
      "chip": "ym2612"
    },
    {
      "channel": 1,
      "note": 87,
      "start": 37.2459,
      "duration": 0.1473,
      "velocity": 97,
      "chip": "ym2612"
    },
    {
      "channel": 3,
      "note": 51,
      "start": 37.2468,
      "duration": 0.0415,
      "velocity": 127,
      "chip": "ym2612"
    },
    {
      "channel": 3,
      "note": 51,
      "start": 37.2886,
      "duration": 0.0419,
      "velocity": 127,
      "chip": "ym2612"
    },
    {
      "channel": 3,
      "note": 51,
      "start": 37.3308,
      "duration": 0.0418,
      "velocity": 127,
      "chip": "ym2612"
    },
    {
      "channel": 3,
      "note": 51,
      "start": 37.3729,
      "duration": 0.0421,
      "velocity": 127,
      "chip": "ym2612"
    },
    {
      "channel": 1,
      "note": 85,
      "start": 37.4144,
      "duration": 0.1476,
      "velocity": 97,
      "chip": "ym2612"
    },
    {
      "channel": 3,
      "note": 51,
      "start": 37.4153,
      "duration": 0.0416,
      "velocity": 127,
      "chip": "ym2612"
    },
    {
      "channel": 3,
      "note": 51,
      "start": 37.4572,
      "duration": 0.0419,
      "velocity": 127,
      "chip": "ym2612"
    },
    {
      "channel": 3,
      "note": 51,
      "start": 37.4993,
      "duration": 0.0419,
      "velocity": 127,
      "chip": "ym2612"
    },
    {
      "channel": 4,
      "note": 83,
      "start": 37.5025,
      "duration": 0.0849,
      "velocity": 97,
      "chip": "ym2612"
    },
    {
      "channel": 3,
      "note": 51,
      "start": 37.5416,
      "duration": 0.0426,
      "velocity": 127,
      "chip": "ym2612"
    },
    {
      "channel": 0,
      "note": 83,
      "start": 37.5827,
      "duration": 0.1051,
      "velocity": 104,
      "chip": "ym2612"
    },
    {
      "channel": 1,
      "note": 87,
      "start": 37.5832,
      "duration": 0.147,
      "velocity": 97,
      "chip": "ym2612"
    },
    {
      "channel": 2,
      "note": 59,
      "start": 37.5838,
      "duration": 0.1683,
      "velocity": 95,
      "chip": "ym2612"
    },
    {
      "channel": 3,
      "note": 51,
      "start": 37.5869,
      "duration": 0.1228,
      "velocity": 127,
      "chip": "ym2612"
    },
    {
      "channel": 4,
      "note": 85,
      "start": 37.668,
      "duration": 0.0852,
      "velocity": 97,
      "chip": "ym2612"
    },
    {
      "channel": 0,
      "note": 83,
      "start": 37.7512,
      "duration": 0.1052,
      "velocity": 104,
      "chip": "ym2612"
    },
    {
      "channel": 1,
      "note": 88,
      "start": 37.7518,
      "duration": 0.147,
      "velocity": 97,
      "chip": "ym2612"
    },
    {
      "channel": 2,
      "note": 59,
      "start": 37.7523,
      "duration": 0.1683,
      "velocity": 95,
      "chip": "ym2612"
    },
    {
      "channel": 3,
      "note": 51,
      "start": 37.7529,
      "duration": 0.1259,
      "velocity": 127,
      "chip": "ym2612"
    },
    {
      "channel": 4,
      "note": 87,
      "start": 37.8366,
      "duration": 0.0852,
      "velocity": 97,
      "chip": "ym2612"
    },
    {
      "channel": 0,
      "note": 83,
      "start": 37.9198,
      "duration": 0.1052,
      "velocity": 104,
      "chip": "ym2612"
    },
    {
      "channel": 1,
      "note": 87,
      "start": 37.9203,
      "duration": 0.147,
      "velocity": 97,
      "chip": "ym2612"
    },
    {
      "channel": 2,
      "note": 59,
      "start": 37.9208,
      "duration": 0.1257,
      "velocity": 95,
      "chip": "ym2612"
    },
    {
      "channel": 3,
      "note": 51,
      "start": 37.9214,
      "duration": 0.2095,
      "velocity": 127,
      "chip": "ym2612"
    },
    {
      "channel": 4,
      "note": 88,
      "start": 38.0076,
      "duration": 0.0818,
      "velocity": 104,
      "chip": "ym2612"
    },
    {
      "channel": 1,
      "note": 88,
      "start": 38.0885,
      "duration": 0.1473,
      "velocity": 97,
      "chip": "ym2612"
    },
    {
      "channel": 0,
      "note": 83,
      "start": 38.1726,
      "duration": 0.1051,
      "velocity": 104,
      "chip": "ym2612"
    },
    {
      "channel": 2,
      "note": 59,
      "start": 38.1734,
      "duration": 0.1259,
      "velocity": 95,
      "chip": "ym2612"
    },
    {
      "channel": 3,
      "note": 51,
      "start": 38.174,
      "duration": 0.2098,
      "velocity": 127,
      "chip": "ym2612"
    },
    {
      "channel": 1,
      "note": 90,
      "start": 38.2571,
      "duration": 0.1473,
      "velocity": 97,
      "chip": "ym2612"
    },
    {
      "channel": 4,
      "note": 83,
      "start": 38.2582,
      "duration": 0.0837,
      "velocity": 104,
      "chip": "ym2612"
    },
    {
      "channel": 0,
      "note": 83,
      "start": 38.4254,
      "duration": 0.1051,
      "velocity": 104,
      "chip": "ym2612"
    },
    {
      "channel": 1,
      "note": 88,
      "start": 38.4259,
      "duration": 0.1471,
      "velocity": 97,
      "chip": "ym2612"
    },
    {
      "channel": 2,
      "note": 59,
      "start": 38.4264,
      "duration": 0.1688,
      "velocity": 95,
      "chip": "ym2612"
    },
    {
      "channel": 3,
      "note": 51,
      "start": 38.427,
      "duration": 0.1254,
      "velocity": 127,
      "chip": "ym2612"
    },
    {
      "channel": 4,
      "note": 83,
      "start": 38.5137,
      "duration": 0.0828,
      "velocity": 97,
      "chip": "ym2612"
    },
    {
      "channel": 0,
      "note": 83,
      "start": 38.5942,
      "duration": 0.1049,
      "velocity": 104,
      "chip": "ym2612"
    },
    {
      "channel": 1,
      "note": 87,
      "start": 38.595,
      "duration": 0.1465,
      "velocity": 97,
      "chip": "ym2612"
    },
    {
      "channel": 2,
      "note": 59,
      "start": 38.5955,
      "duration": 0.1678,
      "velocity": 95,
      "chip": "ym2612"
    },
    {
      "channel": 3,
      "note": 51,
      "start": 38.5961,
      "duration": 0.1249,
      "velocity": 127,
      "chip": "ym2612"
    },
    {
      "channel": 4,
      "note": 88,
      "start": 38.6794,
      "duration": 0.0851,
      "velocity": 97,
      "chip": "ym2612"
    },
    {
      "channel": 0,
      "note": 83,
      "start": 38.7624,
      "duration": 0.1051,
      "velocity": 104,
      "chip": "ym2612"
    },
    {
      "channel": 1,
      "note": 85,
      "start": 38.763,
      "duration": 0.1471,
      "velocity": 97,
      "chip": "ym2612"
    },
    {
      "channel": 2,
      "note": 59,
      "start": 38.7635,
      "duration": 0.169,
      "velocity": 95,
      "chip": "ym2612"
    },
    {
      "channel": 3,
      "note": 51,
      "start": 38.7641,
      "duration": 0.1254,
      "velocity": 127,
      "chip": "ym2612"
    },
    {
      "channel": 4,
      "note": 87,
      "start": 38.8478,
      "duration": 0.0634,
      "velocity": 97,
      "chip": "ym2612"
    },
    {
      "channel": 0,
      "note": 83,
      "start": 38.9313,
      "duration": 0.1472,
      "velocity": 104,
      "chip": "ym2612"
    },
    {
      "channel": 1,
      "note": 87,
      "start": 38.9321,
      "duration": 0.1467,
      "velocity": 97,
      "chip": "ym2612"
    },
    {
      "channel": 2,
      "note": 59,
      "start": 38.933,
      "duration": 0.5061,
      "velocity": 95,
      "chip": "ym2612"
    },
    {
      "channel": 3,
      "note": 51,
      "start": 38.9362,
      "duration": 0.019,
      "velocity": 127,
      "chip": "ym2612"
    },
    {
      "channel": 3,
      "note": 51,
      "start": 38.9553,
      "duration": 0.3134,
      "velocity": 127,
      "chip": "ym2612"
    },
    {
      "channel": 4,
      "note": 85,
      "start": 39.0612,
      "duration": 0.1445,
      "velocity": 104,
      "chip": "ym2612"
    },
    {
      "channel": 3,
      "note": 51,
      "start": 39.3139,
      "duration": 0.0179,
      "velocity": 127,
      "chip": "ym2612"
    },
    {
      "channel": 3,
      "note": 51,
      "start": 39.3741,
      "duration": 0.0212,
      "velocity": 127,
      "chip": "ym2612"
    },
    {
      "channel": 0,
      "note": 59,
      "start": 39.4383,
      "duration": 0.1455,
      "velocity": 105,
      "chip": "ym2612"
    },
    {
      "channel": 1,
      "note": 83,
      "start": 39.4388,
      "duration": 0.4824,
      "velocity": 97,
      "chip": "ym2612"
    },
    {
      "channel": 2,
      "note": 59,
      "start": 39.4394,
      "duration": 0.5037,
      "velocity": 95,
      "chip": "ym2612"
    },
    {
      "channel": 3,
      "note": 51,
      "start": 39.4424,
      "duration": 0.3321,
      "velocity": 127,
      "chip": "ym2612"
    },
    {
      "channel": 4,
      "note": 83,
      "start": 39.564,
      "duration": 0.1478,
      "velocity": 105,
      "chip": "ym2612"
    },
    {
      "channel": 0,
      "note": 57,
      "start": 39.6051,
      "duration": 0.1473,
      "velocity": 105,
      "chip": "ym2612"
    },
    {
      "channel": 4,
      "note": 59,
      "start": 39.7326,
      "duration": 0.1475,
      "velocity": 105,
      "chip": "ym2612"
    },
    {
      "channel": 0,
      "note": 54,
      "start": 39.7737,
      "duration": 0.1473,
      "velocity": 105,
      "chip": "ym2612"
    },
    {
      "channel": 3,
      "note": 51,
      "start": 39.819,
      "duration": 0.0184,
      "velocity": 127,
      "chip": "ym2612"
    },
    {
      "channel": 3,
      "note": 51,
      "start": 39.8798,
      "duration": 0.0209,
      "velocity": 127,
      "chip": "ym2612"
    },
    {
      "channel": 4,
      "note": 57,
      "start": 39.9012,
      "duration": 0.1471,
      "velocity": 105,
      "chip": "ym2612"
    },
    {
      "channel": 0,
      "note": 51,
      "start": 39.9422,
      "duration": 0.4844,
      "velocity": 105,
      "chip": "ym2612"
    },
    {
      "channel": 1,
      "note": 85,
      "start": 39.9427,
      "duration": 0.4841,
      "velocity": 97,
      "chip": "ym2612"
    },
    {
      "channel": 2,
      "note": 57,
      "start": 39.9433,
      "duration": 0.507,
      "velocity": 95,
      "chip": "ym2612"
    },
    {
      "channel": 3,
      "note": 51,
      "start": 39.9468,
      "duration": 0.333,
      "velocity": 127,
      "chip": "ym2612"
    },
    {
      "channel": 4,
      "note": 54,
      "start": 40.0696,
      "duration": 0.4844,
      "velocity": 105,
      "chip": "ym2612"
    },
    {
      "channel": 3,
      "note": 51,
      "start": 40.3246,
      "duration": 0.0184,
      "velocity": 127,
      "chip": "ym2612"
    },
    {
      "channel": 3,
      "note": 51,
      "start": 40.3854,
      "duration": 0.0209,
      "velocity": 127,
      "chip": "ym2612"
    },
    {
      "channel": 0,
      "note": 71,
      "start": 40.4495,
      "duration": 0.1245,
      "velocity": 103,
      "chip": "ym2612"
    },
    {
      "channel": 1,
      "note": 87,
      "start": 40.45,
      "duration": 0.4825,
      "velocity": 97,
      "chip": "ym2612"
    },
    {
      "channel": 2,
      "note": 54,
      "start": 40.4505,
      "duration": 0.5075,
      "velocity": 95,
      "chip": "ym2612"
    },
    {
      "channel": 3,
      "note": 51,
      "start": 40.4536,
      "duration": 0.1212,
      "velocity": 127,
      "chip": "ym2612"
    },
    {
      "channel": 4,
      "note": 51,
      "start": 40.5783,
      "duration": 0.1441,
      "velocity": 103,
      "chip": "ym2612"
    },
    {
      "channel": 3,
      "note": 51,
      "start": 40.6171,
      "duration": 0.1262,
      "velocity": 127,
      "chip": "ym2612"
    },
    {
      "channel": 0,
      "note": 71,
      "start": 40.7849,
      "duration": 0.1263,
      "velocity": 103,
      "chip": "ym2612"
    },
    {
      "channel": 3,
      "note": 51,
      "start": 40.7859,
      "duration": 0.1261,
      "velocity": 127,
      "chip": "ym2612"
    },
    {
      "channel": 0,
      "note": 80,
      "start": 40.9553,
      "duration": 0.5007,
      "velocity": 103,
      "chip": "ym2612"
    },
    {
      "channel": 1,
      "note": 83,
      "start": 40.9577,
      "duration": 0.4803,
      "velocity": 103,
      "chip": "ym2612"
    },
    {
      "channel": 2,
      "note": 64,
      "start": 40.9584,
      "duration": 0.1638,
      "velocity": 95,
      "chip": "ym2612"
    },
    {
      "channel": 3,
      "note": 51,
      "start": 40.9621,
      "duration": 0.4552,
      "velocity": 127,
      "chip": "ym2612"
    },
    {
      "channel": 4,
      "note": 71,
      "start": 40.9628,
      "duration": 0.1389,
      "velocity": 103,
      "chip": "ym2612"
    },
    {
      "channel": 4,
      "note": 71,
      "start": 41.1259,
      "duration": 0.3301,
      "velocity": 103,
      "chip": "ym2612"
    }
  ]
}