{
  "track_name": "11 - The Lagoon of Songs, The Magical Ocean",
  "duration_sec": 99.877,
  "sample_rate": 44100,
  "note_count": 680,
  "unique_pitches": 20,
  "pitch_range": 43,
  "avg_note_duration": 0.4195,
  "reconstruction_stats": {
    "notes_reconstructed": 680,
    "keyon_events": 680,
    "keyoff_events": 680,
    "orphan_keyons": 0,
    "unique_pitches": 20,
    "pitch_range": 43,
    "avg_duration_sec": 0.4195
  },
  "metadata": {
    "source": "E\\Ecco Jr\\11 - The Lagoon of Songs, The Magical Ocean.vgz"
  },
  "notes": [
    {
      "channel": 4,
      "note": 95,
      "start": 0.0023,
      "duration": 0.0901,
      "velocity": 107,
      "chip": "ym2612"
    },
    {
      "channel": 4,
      "note": 95,
      "start": 0.2459,
      "duration": 0.0633,
      "velocity": 107,
      "chip": "ym2612"
    },
    {
      "channel": 4,
      "note": 95,
      "start": 0.4959,
      "duration": 0.0466,
      "velocity": 107,
      "chip": "ym2612"
    },
    {
      "channel": 4,
      "note": 95,
      "start": 0.746,
      "duration": 0.2465,
      "velocity": 107,
      "chip": "ym2612"
    },
    {
      "channel": 4,
      "note": 95,
      "start": 1.2459,
      "duration": 0.23,
      "velocity": 107,
      "chip": "ym2612"
    },
    {
      "channel": 4,
      "note": 95,
      "start": 1.746,
      "duration": 0.2964,
      "velocity": 107,
      "chip": "ym2612"
    },
    {
      "channel": 4,
      "note": 95,
      "start": 2.513,
      "duration": 0.0461,
      "velocity": 107,
      "chip": "ym2612"
    },
    {
      "channel": 4,
      "note": 95,
      "start": 2.7624,
      "duration": 0.0467,
      "velocity": 107,
      "chip": "ym2612"
    },
    {
      "channel": 4,
      "note": 95,
      "start": 3.0126,
      "duration": 0.0466,
      "velocity": 107,
      "chip": "ym2612"
    },
    {
      "channel": 4,
      "note": 95,
      "start": 4.0127,
      "duration": 0.0964,
      "velocity": 107,
      "chip": "ym2612"
    },
    {
      "channel": 4,
      "note": 95,
      "start": 4.2625,
      "duration": 0.08,
      "velocity": 107,
      "chip": "ym2612"
    },
    {
      "channel": 4,
      "note": 95,
      "start": 4.5124,
      "duration": 0.0633,
      "velocity": 107,
      "chip": "ym2612"
    },
    {
      "channel": 4,
      "note": 95,
      "start": 4.7628,
      "duration": 0.2464,
      "velocity": 107,
      "chip": "ym2612"
    },
    {
      "channel": 4,
      "note": 95,
      "start": 5.2628,
      "duration": 0.2463,
      "velocity": 107,
      "chip": "ym2612"
    },
    {
      "channel": 4,
      "note": 95,
      "start": 5.7626,
      "duration": 0.3131,
      "velocity": 107,
      "chip": "ym2612"
    },
    {
      "channel": 4,
      "note": 95,
      "start": 6.5294,
      "duration": 0.0464,
      "velocity": 107,
      "chip": "ym2612"
    },
    {
      "channel": 4,
      "note": 95,
      "start": 6.7792,
      "duration": 0.03,
      "velocity": 107,
      "chip": "ym2612"
    },
    {
      "channel": 4,
      "note": 95,
      "start": 7.0293,
      "duration": 0.0298,
      "velocity": 107,
      "chip": "ym2612"
    },
    {
      "channel": 4,
      "note": 95,
      "start": 8.0293,
      "duration": 0.0798,
      "velocity": 107,
      "chip": "ym2612"
    },
    {
      "channel": 5,
      "note": 69,
      "start": 8.0343,
      "duration": 0.1082,
      "velocity": 102,
      "chip": "ym2612"
    },
    {
      "channel": 4,
      "note": 95,
      "start": 8.2792,
      "duration": 0.03,
      "velocity": 107,
      "chip": "ym2612"
    },
    {
      "channel": 5,
      "note": 64,
      "start": 8.2826,
      "duration": 0.0099,
      "velocity": 102,
      "chip": "ym2612"
    },
    {
      "channel": 4,
      "note": 95,
      "start": 8.5294,
      "duration": 0.0297,
      "velocity": 107,
      "chip": "ym2612"
    },
    {
      "channel": 4,
      "note": 95,
      "start": 8.7794,
      "duration": 0.2298,
      "velocity": 107,
      "chip": "ym2612"
    },
    {
      "channel": 5,
      "note": 74,
      "start": 8.7825,
      "duration": 0.0933,
      "velocity": 102,
      "chip": "ym2612"
    },
    {
      "channel": 5,
      "note": 66,
      "start": 9.0293,
      "duration": 0.0632,
      "velocity": 102,
      "chip": "ym2612"
    },
    {
      "channel": 4,
      "note": 95,
      "start": 9.279,
      "duration": 0.23,
      "velocity": 107,
      "chip": "ym2612"
    },
    {
      "channel": 5,
      "note": 69,
      "start": 9.282,
      "duration": 0.0938,
      "velocity": 102,
      "chip": "ym2612"
    },
    {
      "channel": 5,
      "note": 62,
      "start": 9.5293,
      "duration": 0.0132,
      "velocity": 102,
      "chip": "ym2612"
    },
    {
      "channel": 4,
      "note": 95,
      "start": 9.7794,
      "duration": 0.2463,
      "velocity": 107,
      "chip": "ym2612"
    },
    {
      "channel": 5,
      "note": 71,
      "start": 9.7824,
      "duration": 0.0602,
      "velocity": 102,
      "chip": "ym2612"
    },
    {
      "channel": 5,
      "note": 64,
      "start": 10.0293,
      "duration": 0.0465,
      "velocity": 102,
      "chip": "ym2612"
    },
    {
      "channel": 5,
      "note": 66,
      "start": 10.2795,
      "duration": 0.0464,
      "velocity": 102,
      "chip": "ym2612"
    },
    {
      "channel": 4,
      "note": 95,
      "start": 10.5294,
      "duration": 0.0796,
      "velocity": 107,
      "chip": "ym2612"
    },
    {
      "channel": 5,
      "note": 78,
      "start": 10.5324,
      "duration": 0.0769,
      "velocity": 102,
      "chip": "ym2612"
    },
    {
      "channel": 4,
      "note": 95,
      "start": 10.7959,
      "duration": 0.0466,
      "velocity": 107,
      "chip": "ym2612"
    },
    {
      "channel": 5,
      "note": 76,
      "start": 10.7989,
      "duration": 0.0437,
      "velocity": 102,
      "chip": "ym2612"
    },
    {
      "channel": 4,
      "note": 95,
      "start": 11.0459,
      "duration": 0.0467,
      "velocity": 107,
      "chip": "ym2612"
    },
    {
      "channel": 5,
      "note": 74,
      "start": 11.0488,
      "duration": 0.0438,
      "velocity": 102,
      "chip": "ym2612"
    },
    {
      "channel": 5,
      "note": 78,
      "start": 11.5461,
      "duration": 0.0964,
      "velocity": 102,
      "chip": "ym2612"
    },
    {
      "channel": 5,
      "note": 64,
      "start": 11.7959,
      "duration": 0.0132,
      "velocity": 102,
      "chip": "ym2612"
    },
    {
      "channel": 4,
      "note": 95,
      "start": 12.0465,
      "duration": 0.0793,
      "velocity": 107,
      "chip": "ym2612"
    },
    {
      "channel": 5,
      "note": 66,
      "start": 12.0494,
      "duration": 0.0264,
      "velocity": 102,
      "chip": "ym2612"
    },
    {
      "channel": 4,
      "note": 95,
      "start": 12.2956,
      "duration": 0.0801,
      "velocity": 107,
      "chip": "ym2612"
    },
    {
      "channel": 5,
      "note": 76,
      "start": 12.2986,
      "duration": 0.0938,
      "velocity": 102,
      "chip": "ym2612"
    },
    {
      "channel": 4,
      "note": 95,
      "start": 12.5459,
      "duration": 0.0632,
      "velocity": 107,
      "chip": "ym2612"
    },
    {
      "channel": 5,
      "note": 78,
      "start": 12.5492,
      "duration": 0.0766,
      "velocity": 102,
      "chip": "ym2612"
    },
    {
      "channel": 4,
      "note": 95,
      "start": 12.796,
      "duration": 0.2465,
      "velocity": 107,
      "chip": "ym2612"
    },
    {
      "channel": 5,
      "note": 81,
      "start": 12.799,
      "duration": 0.0602,
      "velocity": 102,
      "chip": "ym2612"
    },
    {
      "channel": 5,
      "note": 62,
      "start": 13.046,
      "duration": 0.0465,
      "velocity": 102,
      "chip": "ym2612"
    },
    {
      "channel": 4,
      "note": 95,
      "start": 13.2959,
      "duration": 0.2132,
      "velocity": 107,
      "chip": "ym2612"
    },
    {
      "channel": 5,
      "note": 81,
      "start": 13.299,
      "duration": 0.0935,
      "velocity": 102,
      "chip": "ym2612"
    },
    {
      "channel": 4,
      "note": 95,
      "start": 13.7961,
      "duration": 0.2463,
      "velocity": 107,
      "chip": "ym2612"
    },
    {
      "channel": 5,
      "note": 83,
      "start": 13.7991,
      "duration": 0.0767,
      "velocity": 102,
      "chip": "ym2612"
    },
    {
      "channel": 5,
      "note": 86,
      "start": 14.2959,
      "duration": 0.0799,
      "velocity": 102,
      "chip": "ym2612"
    },
    {
      "channel": 4,
      "note": 95,
      "start": 14.546,
      "duration": 0.0632,
      "velocity": 107,
      "chip": "ym2612"
    },
    {
      "channel": 5,
      "note": 66,
      "start": 14.549,
      "duration": 0.0268,
      "velocity": 102,
      "chip": "ym2612"
    },
    {
      "channel": 4,
      "note": 95,
      "start": 14.7962,
      "duration": 0.0464,
      "velocity": 107,
      "chip": "ym2612"
    },
    {
      "channel": 5,
      "note": 90,
      "start": 14.7995,
      "duration": 0.1097,
      "velocity": 102,
      "chip": "ym2612"
    },
    {
      "channel": 4,
      "note": 95,
      "start": 15.0625,
      "duration": 0.0299,
      "velocity": 107,
      "chip": "ym2612"
    },
    {
      "channel": 5,
      "note": 66,
      "start": 15.0655,
      "duration": 0.0103,
      "velocity": 102,
      "chip": "ym2612"
    },
    {
      "channel": 5,
      "note": 88,
      "start": 15.3128,
      "duration": 0.0798,
      "velocity": 102,
      "chip": "ym2612"
    },
    {
      "channel": 5,
      "note": 86,
      "start": 15.8128,
      "duration": 0.113,
      "velocity": 102,
      "chip": "ym2612"
    },
    {
      "channel": 3,
      "note": 66,
      "start": 16.0644,
      "duration": 7.5282,
      "velocity": 112,
      "chip": "ym2612"
    },
    {
      "channel": 0,
      "note": 62,
      "start": 16.0676,
      "duration": 7.5247,
      "velocity": 112,
      "chip": "ym2612"
    },
    {
      "channel": 1,
      "note": 71,
      "start": 16.0707,
      "duration": 7.5217,
      "velocity": 112,
      "chip": "ym2612"
    },
    {
      "channel": 4,
      "note": 95,
      "start": 16.075,
      "duration": 0.0508,
      "velocity": 107,
      "chip": "ym2612"
    },
    {
      "channel": 5,
      "note": 83,
      "start": 16.0782,
      "duration": 0.0644,
      "velocity": 102,
      "chip": "ym2612"
    },
    {
      "channel": 4,
      "note": 95,
      "start": 16.3125,
      "duration": 0.03,
      "velocity": 107,
      "chip": "ym2612"
    },
    {
      "channel": 4,
      "note": 95,
      "start": 16.5626,
      "duration": 0.0633,
      "velocity": 107,
      "chip": "ym2612"
    },
    {
      "channel": 5,
      "note": 81,
      "start": 16.5657,
      "duration": 0.0935,
      "velocity": 102,
      "chip": "ym2612"
    },
    {
      "channel": 4,
      "note": 95,
      "start": 16.8127,
      "duration": 0.2464,
      "velocity": 107,
      "chip": "ym2612"
    },
    {
      "channel": 5,
      "note": 64,
      "start": 16.8161,
      "duration": 0.0765,
      "velocity": 102,
      "chip": "ym2612"
    },
    {
      "channel": 4,
      "note": 95,
      "start": 17.3126,
      "duration": 0.2298,
      "velocity": 107,
      "chip": "ym2612"
    },
    {
      "channel": 5,
      "note": 74,
      "start": 17.3156,
      "duration": 0.127,
      "velocity": 102,
      "chip": "ym2612"
    },
    {
      "channel": 4,
      "note": 95,
      "start": 17.8132,
      "duration": 0.2626,
      "velocity": 107,
      "chip": "ym2612"
    },
    {
      "channel": 5,
      "note": 78,
      "start": 17.8162,
      "duration": 0.0763,
      "velocity": 102,
      "chip": "ym2612"
    },
    {
      "channel": 5,
      "note": 69,
      "start": 18.0626,
      "duration": 0.0466,
      "velocity": 102,
      "chip": "ym2612"
    },
    {
      "channel": 5,
      "note": 71,
      "start": 18.3125,
      "duration": 0.0467,
      "velocity": 102,
      "chip": "ym2612"
    },
    {
      "channel": 4,
      "note": 95,
      "start": 18.5627,
      "duration": 0.0798,
      "velocity": 107,
      "chip": "ym2612"
    },
    {
      "channel": 5,
      "note": 76,
      "start": 18.5656,
      "duration": 0.0602,
      "velocity": 102,
      "chip": "ym2612"
    },
    {
      "channel": 4,
      "note": 95,
      "start": 18.8126,
      "duration": 0.0633,
      "velocity": 107,
      "chip": "ym2612"
    },
    {
      "channel": 5,
      "note": 78,
      "start": 18.8155,
      "duration": 0.077,
      "velocity": 102,
      "chip": "ym2612"
    },
    {
      "channel": 4,
      "note": 95,
      "start": 19.0625,
      "duration": 0.0633,
      "velocity": 107,
      "chip": "ym2612"
    },
    {
      "channel": 5,
      "note": 81,
      "start": 19.0653,
      "duration": 0.0772,
      "velocity": 102,
      "chip": "ym2612"
    },
    {
      "channel": 5,
      "note": 66,
      "start": 19.3292,
      "duration": 0.0801,
      "velocity": 102,
      "chip": "ym2612"
    },
    {
      "channel": 5,
      "note": 69,
      "start": 19.5797,
      "duration": 0.0295,
      "velocity": 102,
      "chip": "ym2612"
    },
    {
      "channel": 5,
      "note": 74,
      "start": 19.8293,
      "duration": 0.0799,
      "velocity": 102,
      "chip": "ym2612"
    },
    {
      "channel": 4,
      "note": 95,
      "start": 20.0793,
      "duration": 0.0466,
      "velocity": 107,
      "chip": "ym2612"
    },
    {
      "channel": 5,
      "note": 78,
      "start": 20.082,
      "duration": 0.0772,
      "velocity": 102,
      "chip": "ym2612"
    },
    {
      "channel": 4,
      "note": 95,
      "start": 20.3291,
      "duration": 0.0634,
      "velocity": 107,
      "chip": "ym2612"
    },
    {
      "channel": 5,
      "note": 76,
      "start": 20.3322,
      "duration": 0.0937,
      "velocity": 102,
      "chip": "ym2612"
    },
    {
      "channel": 4,
      "note": 95,
      "start": 20.579,
      "duration": 0.0635,
      "velocity": 107,
      "chip": "ym2612"
    },
    {
      "channel": 4,
      "note": 95,
      "start": 20.8298,
      "duration": 0.246,
      "velocity": 107,
      "chip": "ym2612"
    },
    {
      "channel": 5,
      "note": 66,
      "start": 20.8329,
      "duration": 0.0598,
      "velocity": 102,
      "chip": "ym2612"
    },
    {
      "channel": 5,
      "note": 69,
      "start": 21.0794,
      "duration": 0.0964,
      "velocity": 102,
      "chip": "ym2612"
    },
    {
      "channel": 4,
      "note": 95,
      "start": 21.3293,
      "duration": 0.2299,
      "velocity": 107,
      "chip": "ym2612"
    },
    {
      "channel": 5,
      "note": 74,
      "start": 21.5798,
      "duration": 0.0628,
      "velocity": 102,
      "chip": "ym2612"
    },
    {
      "channel": 4,
      "note": 95,
      "start": 21.8294,
      "duration": 0.2465,
      "velocity": 107,
      "chip": "ym2612"
    },
    {
      "channel": 5,
      "note": 59,
      "start": 21.8323,
      "duration": 0.0768,
      "velocity": 102,
      "chip": "ym2612"
    },
    {
      "channel": 5,
      "note": 62,
      "start": 22.0794,
      "duration": 0.0464,
      "velocity": 102,
      "chip": "ym2612"
    },
    {
      "channel": 5,
      "note": 64,
      "start": 22.3291,
      "duration": 0.0468,
      "velocity": 102,
      "chip": "ym2612"
    },
    {
      "channel": 4,
      "note": 95,
      "start": 22.5794,
      "duration": 0.0797,
      "velocity": 107,
      "chip": "ym2612"
    },
    {
      "channel": 5,
      "note": 76,
      "start": 22.5825,
      "duration": 0.1433,
      "velocity": 102,
      "chip": "ym2612"
    },
    {
      "channel": 4,
      "note": 95,
      "start": 22.8292,
      "duration": 0.0632,
      "velocity": 107,
      "chip": "ym2612"
    },
    {
      "channel": 4,
      "note": 95,
      "start": 23.0793,
      "duration": 0.0633,
      "velocity": 107,
      "chip": "ym2612"
    },
    {
      "channel": 5,
      "note": 81,
      "start": 23.0824,
      "duration": 0.0768,
      "velocity": 102,
      "chip": "ym2612"
    },
    {
      "channel": 5,
      "note": 69,
      "start": 23.3293,
      "duration": 0.0633,
      "velocity": 102,
      "chip": "ym2612"
    },
    {
      "channel": 5,
      "note": 71,
      "start": 23.5962,
      "duration": 0.0797,
      "velocity": 102,
      "chip": "ym2612"
    },
    {
      "channel": 5,
      "note": 83,
      "start": 23.8463,
      "duration": 0.0963,
      "velocity": 102,
      "chip": "ym2612"
    },
    {
      "channel": 0,
      "note": 66,
      "start": 24.0959,
      "duration": 7.9964,
      "velocity": 112,
      "chip": "ym2612"
    },
    {
      "channel": 1,
      "note": 64,
      "start": 24.0985,
      "duration": 7.994,
      "velocity": 112,
      "chip": "ym2612"
    },
    {
      "channel": 3,
      "note": 71,
      "start": 24.1013,
      "duration": 7.9913,
      "velocity": 112,
      "chip": "ym2612"
    },
    {
      "channel": 4,
      "note": 95,
      "start": 24.1045,
      "duration": 0.0713,
      "velocity": 107,
      "chip": "ym2612"
    },
    {
      "channel": 5,
      "note": 64,
      "start": 24.1086,
      "duration": 0.0674,
      "velocity": 102,
      "chip": "ym2612"
    },
    {
      "channel": 4,
      "note": 95,
      "start": 24.3463,
      "duration": 0.0462,
      "velocity": 107,
      "chip": "ym2612"
    },
    {
      "channel": 5,
      "note": 76,
      "start": 24.3491,
      "duration": 0.0768,
      "velocity": 102,
      "chip": "ym2612"
    },
    {
      "channel": 4,
      "note": 95,
      "start": 24.5958,
      "duration": 0.0634,
      "velocity": 107,
      "chip": "ym2612"
    },
    {
      "channel": 5,
      "note": 66,
      "start": 24.5986,
      "duration": 0.0774,
      "velocity": 102,
      "chip": "ym2612"
    },
    {
      "channel": 4,
      "note": 95,
      "start": 24.8461,
      "duration": 0.2297,
      "velocity": 107,
      "chip": "ym2612"
    },
    {
      "channel": 5,
      "note": 78,
      "start": 24.8488,
      "duration": 0.077,
      "velocity": 102,
      "chip": "ym2612"
    },
    {
      "channel": 5,
      "note": 81,
      "start": 25.096,
      "duration": 0.0965,
      "velocity": 102,
      "chip": "ym2612"
    },
    {
      "channel": 4,
      "note": 95,
      "start": 25.3458,
      "duration": 0.23,
      "velocity": 107,
      "chip": "ym2612"
    },
    {
      "channel": 5,
      "note": 62,
      "start": 25.3487,
      "duration": 0.0606,
      "velocity": 102,
      "chip": "ym2612"
    },
    {
      "channel": 5,
      "note": 64,
      "start": 25.596,
      "duration": 0.08,
      "velocity": 102,
      "chip": "ym2612"
    },
    {
      "channel": 4,
      "note": 95,
      "start": 25.8461,
      "duration": 0.2631,
      "velocity": 107,
      "chip": "ym2612"
    },
    {
      "channel": 5,
      "note": 83,
      "start": 25.849,
      "duration": 0.0934,
      "velocity": 102,
      "chip": "ym2612"
    },
    {
      "channel": 5,
      "note": 81,
      "start": 26.0962,
      "duration": 0.0796,
      "velocity": 102,
      "chip": "ym2612"
    },
    {
      "channel": 5,
      "note": 59,
      "start": 26.3459,
      "duration": 0.0634,
      "velocity": 102,
      "chip": "ym2612"
    },
    {
      "channel": 4,
      "note": 95,
      "start": 26.596,
      "duration": 0.0465,
      "velocity": 107,
      "chip": "ym2612"
    },
    {
      "channel": 5,
      "note": 62,
      "start": 26.5988,
      "duration": 0.0604,
      "velocity": 102,
      "chip": "ym2612"
    },
    {
      "channel": 4,
      "note": 95,
      "start": 26.8457,
      "duration": 0.0468,
      "velocity": 107,
      "chip": "ym2612"
    },
    {
      "channel": 5,
      "note": 64,
      "start": 26.8486,
      "duration": 0.044,
      "velocity": 102,
      "chip": "ym2612"
    },
    {
      "channel": 4,
      "note": 95,
      "start": 27.0963,
      "duration": 0.0627,
      "velocity": 107,
      "chip": "ym2612"
    },
    {
      "channel": 5,
      "note": 86,
      "start": 27.0993,
      "duration": 0.11,
      "velocity": 102,
      "chip": "ym2612"
    },
    {
      "channel": 5,
      "note": 83,
      "start": 27.3459,
      "duration": 0.0799,
      "velocity": 102,
      "chip": "ym2612"
    },
    {
      "channel": 5,
      "note": 81,
      "start": 27.5958,
      "duration": 0.08,
      "velocity": 102,
      "chip": "ym2612"
    },
    {
      "channel": 5,
      "note": 69,
      "start": 27.8626,
      "duration": 0.1133,
      "velocity": 102,
      "chip": "ym2612"
    },
    {
      "channel": 4,
      "note": 95,
      "start": 28.1126,
      "duration": 0.0466,
      "velocity": 107,
      "chip": "ym2612"
    },
    {
      "channel": 5,
      "note": 71,
      "start": 28.1156,
      "duration": 0.0438,
      "velocity": 102,
      "chip": "ym2612"
    },
    {
      "channel": 4,
      "note": 95,
      "start": 28.3625,
      "duration": 0.03,
      "velocity": 107,
      "chip": "ym2612"
    },
    {
      "channel": 5,
      "note": 74,
      "start": 28.3658,
      "duration": 0.0934,
      "velocity": 102,
      "chip": "ym2612"
    },
    {
      "channel": 4,
      "note": 95,
      "start": 28.6124,
      "duration": 0.0302,
      "velocity": 107,
      "chip": "ym2612"
    },
    {
      "channel": 5,
      "note": 78,
      "start": 28.6153,
      "duration": 0.0772,
      "velocity": 102,
      "chip": "ym2612"
    },
    {
      "channel": 4,
      "note": 95,
      "start": 28.8628,
      "duration": 0.2297,
      "velocity": 107,
      "chip": "ym2612"
    },
    {
      "channel": 5,
      "note": 76,
      "start": 28.8655,
      "duration": 0.077,
      "velocity": 102,
      "chip": "ym2612"
    },
    {
      "channel": 5,
      "note": 64,
      "start": 29.1126,
      "duration": 0.0298,
      "velocity": 102,
      "chip": "ym2612"
    },
    {
      "channel": 4,
      "note": 95,
      "start": 29.3624,
      "duration": 0.23,
      "velocity": 107,
      "chip": "ym2612"
    },
    {
      "channel": 5,
      "note": 81,
      "start": 29.3654,
      "duration": 0.0939,
      "velocity": 102,
      "chip": "ym2612"
    },
    {
      "channel": 5,
      "note": 69,
      "start": 29.6126,
      "duration": 0.0633,
      "velocity": 102,
      "chip": "ym2612"
    },
    {
      "channel": 4,
      "note": 95,
      "start": 29.8627,
      "duration": 0.2464,
      "velocity": 107,
      "chip": "ym2612"
    },
    {
      "channel": 5,
      "note": 74,
      "start": 29.8656,
      "duration": 0.0937,
      "velocity": 102,
      "chip": "ym2612"
    },
    {
      "channel": 5,
      "note": 76,
      "start": 30.1126,
      "duration": 0.0632,
      "velocity": 102,
      "chip": "ym2612"
    },
    {
      "channel": 5,
      "note": 78,
      "start": 30.3626,
      "duration": 0.0466,
      "velocity": 102,
      "chip": "ym2612"
    },
    {
      "channel": 4,
      "note": 95,
      "start": 30.6127,
      "duration": 0.0631,
      "velocity": 107,
      "chip": "ym2612"
    },
    {
      "channel": 5,
      "note": 62,
      "start": 30.616,
      "duration": 0.0765,
      "velocity": 102,
      "chip": "ym2612"
    },
    {
      "channel": 4,
      "note": 95,
      "start": 30.8629,
      "duration": 0.0462,
      "velocity": 107,
      "chip": "ym2612"
    },
    {
      "channel": 5,
      "note": 64,
      "start": 30.8659,
      "duration": 0.0434,
      "velocity": 102,
      "chip": "ym2612"
    },
    {
      "channel": 4,
      "note": 95,
      "start": 31.1128,
      "duration": 0.0631,
      "velocity": 107,
      "chip": "ym2612"
    },
    {
      "channel": 5,
      "note": 69,
      "start": 31.1157,
      "duration": 0.0768,
      "velocity": 102,
      "chip": "ym2612"
    },
    {
      "channel": 5,
      "note": 71,
      "start": 31.3626,
      "duration": 0.0633,
      "velocity": 102,
      "chip": "ym2612"
    },
    {
      "channel": 5,
      "note": 59,
      "start": 31.6128,
      "duration": 0.0298,
      "velocity": 102,
      "chip": "ym2612"
    },
    {
      "channel": 2,
      "note": 74,
      "start": 31.6158,
      "duration": 0.0601,
      "velocity": 102,
      "chip": "ym2612"
    },
    {
      "channel": 4,
      "note": 59,
      "start": 32.131,
      "duration": 0.3781,
      "velocity": 94,
      "chip": "ym2612"
    },
    {
      "channel": 0,
      "note": 71,
      "start": 32.1341,
      "duration": 7.4749,
      "velocity": 112,
      "chip": "ym2612"
    },
    {
      "channel": 1,
      "note": 66,
      "start": 32.1374,
      "duration": 7.4549,
      "velocity": 112,
      "chip": "ym2612"
    },
    {
      "channel": 3,
      "note": 62,
      "start": 32.1418,
      "duration": 7.4674,
      "velocity": 112,
      "chip": "ym2612"
    },
    {
      "channel": 5,
      "note": 95,
      "start": 32.1451,
      "duration": 0.0809,
      "velocity": 107,
      "chip": "ym2612"
    },
    {
      "channel": 2,
      "note": 59,
      "start": 32.1492,
      "duration": 0.0768,
      "velocity": 102,
      "chip": "ym2612"
    },
    {
      "channel": 5,
      "note": 95,
      "start": 32.3793,
      "duration": 0.0466,
      "velocity": 107,
      "chip": "ym2612"
    },
    {
      "channel": 2,
      "note": 69,
      "start": 32.3823,
      "duration": 0.1102,
      "velocity": 102,
      "chip": "ym2612"
    },
    {
      "channel": 4,
      "note": 59,
      "start": 32.6294,
      "duration": 0.0464,
      "velocity": 94,
      "chip": "ym2612"
    },
    {
      "channel": 5,
      "note": 95,
      "start": 32.6325,
      "duration": 0.0267,
      "velocity": 107,
      "chip": "ym2612"
    },
    {
      "channel": 2,
      "note": 71,
      "start": 32.6355,
      "duration": 0.0738,
      "velocity": 102,
      "chip": "ym2612"
    },
    {
      "channel": 4,
      "note": 59,
      "start": 32.879,
      "duration": 0.5136,
      "velocity": 94,
      "chip": "ym2612"
    },
    {
      "channel": 5,
      "note": 95,
      "start": 32.8823,
      "duration": 0.2436,
      "velocity": 107,
      "chip": "ym2612"
    },
    {
      "channel": 2,
      "note": 66,
      "start": 32.8854,
      "duration": 0.024,
      "velocity": 102,
      "chip": "ym2612"
    },
    {
      "channel": 2,
      "note": 78,
      "start": 33.1294,
      "duration": 0.0964,
      "velocity": 102,
      "chip": "ym2612"
    },
    {
      "channel": 5,
      "note": 95,
      "start": 33.3796,
      "duration": 0.2296,
      "velocity": 107,
      "chip": "ym2612"
    },
    {
      "channel": 2,
      "note": 76,
      "start": 33.3826,
      "duration": 0.0766,
      "velocity": 102,
      "chip": "ym2612"
    },
    {
      "channel": 4,
      "note": 52,
      "start": 33.629,
      "duration": 0.2302,
      "velocity": 94,
      "chip": "ym2612"
    },
    {
      "channel": 2,
      "note": 74,
      "start": 33.6326,
      "duration": 0.06,
      "velocity": 102,
      "chip": "ym2612"
    },
    {
      "channel": 4,
      "note": 54,
      "start": 33.8788,
      "duration": 0.197,
      "velocity": 94,
      "chip": "ym2612"
    },
    {
      "channel": 5,
      "note": 95,
      "start": 33.8821,
      "duration": 0.277,
      "velocity": 107,
      "chip": "ym2612"
    },
    {
      "channel": 2,
      "note": 64,
      "start": 33.8851,
      "duration": 0.0075,
      "velocity": 102,
      "chip": "ym2612"
    },
    {
      "channel": 4,
      "note": 57,
      "start": 34.1288,
      "duration": 0.2303,
      "velocity": 94,
      "chip": "ym2612"
    },
    {
      "channel": 2,
      "note": 69,
      "start": 34.132,
      "duration": 0.0772,
      "velocity": 102,
      "chip": "ym2612"
    },
    {
      "channel": 4,
      "note": 59,
      "start": 34.379,
      "duration": 0.0636,
      "velocity": 94,
      "chip": "ym2612"
    },
    {
      "channel": 2,
      "note": 66,
      "start": 34.3822,
      "duration": 0.0437,
      "velocity": 102,
      "chip": "ym2612"
    },
    {
      "channel": 5,
      "note": 95,
      "start": 34.6294,
      "duration": 0.0631,
      "velocity": 107,
      "chip": "ym2612"
    },
    {
      "channel": 2,
      "note": 71,
      "start": 34.6325,
      "duration": 0.0934,
      "velocity": 102,
      "chip": "ym2612"
    },
    {
      "channel": 4,
      "note": 59,
      "start": 34.8794,
      "duration": 0.7298,
      "velocity": 94,
      "chip": "ym2612"
    },
    {
      "channel": 5,
      "note": 95,
      "start": 34.8824,
      "duration": 0.0602,
      "velocity": 107,
      "chip": "ym2612"
    },
    {
      "channel": 2,
      "note": 74,
      "start": 34.8854,
      "duration": 0.0574,
      "velocity": 102,
      "chip": "ym2612"
    },
    {
      "channel": 5,
      "note": 95,
      "start": 35.1293,
      "duration": 0.0634,
      "velocity": 107,
      "chip": "ym2612"
    },
    {
      "channel": 2,
      "note": 59,
      "start": 35.1322,
      "duration": 0.0605,
      "velocity": 102,
      "chip": "ym2612"
    },
    {
      "channel": 2,
      "note": 78,
      "start": 35.3794,
      "duration": 0.0798,
      "velocity": 102,
      "chip": "ym2612"
    },
    {
      "channel": 2,
      "note": 76,
      "start": 35.6293,
      "duration": 0.08,
      "velocity": 102,
      "chip": "ym2612"
    },
    {
      "channel": 2,
      "note": 66,
      "start": 35.8798,
      "duration": 0.0628,
      "velocity": 102,
      "chip": "ym2612"
    },
    {
      "channel": 4,
      "note": 62,
      "start": 36.1289,
      "duration": 0.0803,
      "velocity": 94,
      "chip": "ym2612"
    },
    {
      "channel": 5,
      "note": 95,
      "start": 36.1322,
      "duration": 0.1102,
      "velocity": 107,
      "chip": "ym2612"
    },
    {
      "channel": 2,
      "note": 81,
      "start": 36.1354,
      "duration": 0.074,
      "velocity": 102,
      "chip": "ym2612"
    },
    {
      "channel": 4,
      "note": 62,
      "start": 36.3956,
      "duration": 0.4468,
      "velocity": 94,
      "chip": "ym2612"
    },
    {
      "channel": 5,
      "note": 95,
      "start": 36.3988,
      "duration": 0.0771,
      "velocity": 107,
      "chip": "ym2612"
    },
    {
      "channel": 5,
      "note": 95,
      "start": 36.6463,
      "duration": 0.0462,
      "velocity": 107,
      "chip": "ym2612"
    },
    {
      "channel": 2,
      "note": 78,
      "start": 36.6493,
      "duration": 0.0766,
      "velocity": 102,
      "chip": "ym2612"
    },
    {
      "channel": 4,
      "note": 61,
      "start": 36.8956,
      "duration": 0.0302,
      "velocity": 94,
      "chip": "ym2612"
    },
    {
      "channel": 5,
      "note": 95,
      "start": 36.899,
      "duration": 0.2436,
      "velocity": 107,
      "chip": "ym2612"
    },
    {
      "channel": 2,
      "note": 64,
      "start": 36.902,
      "duration": 0.0406,
      "velocity": 102,
      "chip": "ym2612"
    },
    {
      "channel": 4,
      "note": 61,
      "start": 37.1457,
      "duration": 0.4801,
      "velocity": 94,
      "chip": "ym2612"
    },
    {
      "channel": 2,
      "note": 66,
      "start": 37.1488,
      "duration": 0.0438,
      "velocity": 102,
      "chip": "ym2612"
    },
    {
      "channel": 5,
      "note": 95,
      "start": 37.3959,
      "duration": 0.2467,
      "velocity": 107,
      "chip": "ym2612"
    },
    {
      "channel": 2,
      "note": 85,
      "start": 37.399,
      "duration": 0.0936,
      "velocity": 102,
      "chip": "ym2612"
    },
    {
      "channel": 4,
      "note": 59,
      "start": 37.6461,
      "duration": 0.1464,
      "velocity": 94,
      "chip": "ym2612"
    },
    {
      "channel": 4,
      "note": 59,
      "start": 37.8956,
      "duration": 0.1136,
      "velocity": 94,
      "chip": "ym2612"
    },
    {
      "channel": 5,
      "note": 95,
      "start": 37.8989,
      "duration": 0.3103,
      "velocity": 107,
      "chip": "ym2612"
    },
    {
      "channel": 2,
      "note": 83,
      "start": 37.9021,
      "duration": 0.0572,
      "velocity": 102,
      "chip": "ym2612"
    },
    {
      "channel": 2,
      "note": 62,
      "start": 38.1464,
      "duration": 0.0795,
      "velocity": 102,
      "chip": "ym2612"
    },
    {
      "channel": 4,
      "note": 57,
      "start": 38.3955,
      "duration": 0.0804,
      "velocity": 94,
      "chip": "ym2612"
    },
    {
      "channel": 2,
      "note": 64,
      "start": 38.3986,
      "duration": 0.0775,
      "velocity": 102,
      "chip": "ym2612"
    },
    {
      "channel": 5,
      "note": 95,
      "start": 38.6461,
      "duration": 0.0632,
      "velocity": 107,
      "chip": "ym2612"
    },
    {
      "channel": 2,
      "note": 81,
      "start": 38.6491,
      "duration": 0.1268,
      "velocity": 102,
      "chip": "ym2612"
    },
    {
      "channel": 4,
      "note": 59,
      "start": 38.8956,
      "duration": 0.7802,
      "velocity": 94,
      "chip": "ym2612"
    },
    {
      "channel": 5,
      "note": 95,
      "start": 38.8988,
      "duration": 0.0438,
      "velocity": 107,
      "chip": "ym2612"
    },
    {
      "channel": 2,
      "note": 64,
      "start": 38.9018,
      "duration": 0.0409,
      "velocity": 102,
      "chip": "ym2612"
    },
    {
      "channel": 5,
      "note": 95,
      "start": 39.146,
      "duration": 0.0466,
      "velocity": 107,
      "chip": "ym2612"
    },
    {
      "channel": 2,
      "note": 76,
      "start": 39.149,
      "duration": 0.0769,
      "velocity": 102,
      "chip": "ym2612"
    },
    {
      "channel": 2,
      "note": 66,
      "start": 39.3962,
      "duration": 0.063,
      "velocity": 102,
      "chip": "ym2612"
    },
    {
      "channel": 5,
      "note": 78,
      "start": 39.3993,
      "duration": 0.0933,
      "velocity": 102,
      "chip": "ym2612"
    },
    {
      "channel": 5,
      "note": 74,
      "start": 39.6465,
      "duration": 0.1293,
      "velocity": 102,
      "chip": "ym2612"
    },
    {
      "channel": 4,
      "note": 59,
      "start": 40.1455,
      "duration": 0.3137,
      "velocity": 94,
      "chip": "ym2612"
    },
    {
      "channel": 0,
      "note": 66,
      "start": 40.1487,
      "duration": 5.8104,
      "velocity": 112,
      "chip": "ym2612"
    },
    {
      "channel": 1,
      "note": 71,
      "start": 40.1512,
      "duration": 5.808,
      "velocity": 112,
      "chip": "ym2612"
    },
    {
      "channel": 3,
      "note": 64,
      "start": 40.1549,
      "duration": 5.7876,
      "velocity": 112,
      "chip": "ym2612"
    },
    {
      "channel": 2,
      "note": 95,
      "start": 40.1597,
      "duration": 0.0663,
      "velocity": 107,
      "chip": "ym2612"
    },
    {
      "channel": 5,
      "note": 69,
      "start": 40.1627,
      "duration": 0.1132,
      "velocity": 102,
      "chip": "ym2612"
    },
    {
      "channel": 2,
      "note": 95,
      "start": 40.396,
      "duration": 0.0466,
      "velocity": 107,
      "chip": "ym2612"
    },
    {
      "channel": 5,
      "note": 64,
      "start": 40.3991,
      "duration": 0.0268,
      "velocity": 102,
      "chip": "ym2612"
    },
    {
      "channel": 4,
      "note": 59,
      "start": 40.6623,
      "duration": 0.0302,
      "velocity": 94,
      "chip": "ym2612"
    },
    {
      "channel": 2,
      "note": 95,
      "start": 40.6654,
      "duration": 0.0272,
      "velocity": 107,
      "chip": "ym2612"
    },
    {
      "channel": 4,
      "note": 59,
      "start": 40.9126,
      "duration": 0.6965,
      "velocity": 94,
      "chip": "ym2612"
    },
    {
      "channel": 2,
      "note": 95,
      "start": 40.916,
      "duration": 0.2432,
      "velocity": 107,
      "chip": "ym2612"
    },
    {
      "channel": 5,
      "note": 74,
      "start": 40.9191,
      "duration": 0.0901,
      "velocity": 102,
      "chip": "ym2612"
    },
    {
      "channel": 5,
      "note": 66,
      "start": 41.1627,
      "duration": 0.0465,
      "velocity": 102,
      "chip": "ym2612"
    },
    {
      "channel": 2,
      "note": 95,
      "start": 41.4128,
      "duration": 0.2132,
      "velocity": 107,
      "chip": "ym2612"
    },
    {
      "channel": 5,
      "note": 69,
      "start": 41.4157,
      "duration": 0.0936,
      "velocity": 102,
      "chip": "ym2612"
    },
    {
      "channel": 4,
      "note": 52,
      "start": 41.6622,
      "duration": 0.2547,
      "velocity": 94,
      "chip": "ym2612"
    },
    {
      "channel": 5,
      "note": 62,
      "start": 41.6654,
      "duration": 0.0105,
      "velocity": 102,
      "chip": "ym2612"
    },
    {
      "channel": 2,
      "note": 54,
      "start": 41.9123,
      "duration": 0.2471,
      "velocity": 94,
      "chip": "ym2612"
    },
    {
      "channel": 5,
      "note": 95,
      "start": 41.9156,
      "duration": 0.2603,
      "velocity": 107,
      "chip": "ym2612"
    },
    {
      "channel": 4,
      "note": 71,
      "start": 41.9191,
      "duration": 0.0567,
      "velocity": 102,
      "chip": "ym2612"
    },
    {
      "channel": 2,
      "note": 57,
      "start": 42.1624,
      "duration": 0.2802,
      "velocity": 94,
      "chip": "ym2612"
    },
    {
      "channel": 4,
      "note": 64,
      "start": 42.1656,
      "duration": 0.027,
      "velocity": 102,
      "chip": "ym2612"
    },
    {
      "channel": 5,
      "note": 59,
      "start": 42.4124,
      "duration": 0.0802,
      "velocity": 94,
      "chip": "ym2612"
    },
    {
      "channel": 4,
      "note": 66,
      "start": 42.4154,
      "duration": 0.027,
      "velocity": 102,
      "chip": "ym2612"
    },
    {
      "channel": 4,
      "note": 95,
      "start": 42.6629,
      "duration": 0.0796,
      "velocity": 107,
      "chip": "ym2612"
    },
    {
      "channel": 2,
      "note": 78,
      "start": 42.6659,
      "duration": 0.0768,
      "velocity": 102,
      "chip": "ym2612"
    },
    {
      "channel": 5,
      "note": 59,
      "start": 42.9124,
      "duration": 0.7301,
      "velocity": 94,
      "chip": "ym2612"
    },
    {
      "channel": 4,
      "note": 95,
      "start": 42.9158,
      "duration": 0.06,
      "velocity": 107,
      "chip": "ym2612"
    },
    {
      "channel": 2,
      "note": 76,
      "start": 42.9189,
      "duration": 0.0571,
      "velocity": 102,
      "chip": "ym2612"
    },
    {
      "channel": 4,
      "note": 95,
      "start": 43.1625,
      "duration": 0.0633,
      "velocity": 107,
      "chip": "ym2612"
    },
    {
      "channel": 2,
      "note": 74,
      "start": 43.1656,
      "duration": 0.0604,
      "velocity": 102,
      "chip": "ym2612"
    },
    {
      "channel": 2,
      "note": 78,
      "start": 43.6628,
      "duration": 0.0964,
      "velocity": 102,
      "chip": "ym2612"
    },
    {
      "channel": 2,
      "note": 64,
      "start": 43.9127,
      "duration": 0.0298,
      "velocity": 102,
      "chip": "ym2612"
    },
    {
      "channel": 5,
      "note": 62,
      "start": 44.1628,
      "duration": 0.0798,
      "velocity": 94,
      "chip": "ym2612"
    },
    {
      "channel": 4,
      "note": 95,
      "start": 44.166,
      "duration": 0.0765,
      "velocity": 107,
      "chip": "ym2612"
    },
    {
      "channel": 2,
      "note": 66,
      "start": 44.1695,
      "duration": 0.0398,
      "velocity": 102,
      "chip": "ym2612"
    },
    {
      "channel": 5,
      "note": 62,
      "start": 44.4123,
      "duration": 0.2469,
      "velocity": 94,
      "chip": "ym2612"
    },
    {
      "channel": 4,
      "note": 95,
      "start": 44.4152,
      "duration": 0.0773,
      "velocity": 107,
      "chip": "ym2612"
    },
    {
      "channel": 2,
      "note": 76,
      "start": 44.4182,
      "duration": 0.1078,
      "velocity": 102,
      "chip": "ym2612"
    },
    {
      "channel": 5,
      "note": 64,
      "start": 44.6623,
      "duration": 0.0802,
      "velocity": 94,
      "chip": "ym2612"
    },
    {
      "channel": 4,
      "note": 95,
      "start": 44.6654,
      "duration": 0.0604,
      "velocity": 107,
      "chip": "ym2612"
    },
    {
      "channel": 2,
      "note": 78,
      "start": 44.6684,
      "duration": 0.0742,
      "velocity": 102,
      "chip": "ym2612"
    },
    {
      "channel": 5,
      "note": 61,
      "start": 44.9288,
      "duration": 0.0471,
      "velocity": 94,
      "chip": "ym2612"
    },
    {
      "channel": 4,
      "note": 95,
      "start": 44.932,
      "duration": 0.2438,
      "velocity": 107,
      "chip": "ym2612"
    },
    {
      "channel": 2,
      "note": 81,
      "start": 44.9351,
      "duration": 0.041,
      "velocity": 102,
      "chip": "ym2612"
    },
    {
      "channel": 5,
      "note": 61,
      "start": 45.179,
      "duration": 0.2135,
      "velocity": 94,
      "chip": "ym2612"
    },
    {
      "channel": 2,
      "note": 62,
      "start": 45.1823,
      "duration": 0.027,
      "velocity": 102,
      "chip": "ym2612"
    },
    {
      "channel": 5,
      "note": 62,
      "start": 45.4289,
      "duration": 0.1137,
      "velocity": 94,
      "chip": "ym2612"
    },
    {
      "channel": 4,
      "note": 95,
      "start": 45.432,
      "duration": 0.1938,
      "velocity": 107,
      "chip": "ym2612"
    },
    {
      "channel": 2,
      "note": 81,
      "start": 45.4351,
      "duration": 0.0908,
      "velocity": 102,
      "chip": "ym2612"
    },
    {
      "channel": 5,
      "note": 59,
      "start": 45.6789,
      "duration": 0.0803,
      "velocity": 94,
      "chip": "ym2612"
    },
    {
      "channel": 5,
      "note": 59,
      "start": 45.9294,
      "duration": 0.4132,
      "velocity": 94,
      "chip": "ym2612"
    },
    {
      "channel": 4,
      "note": 95,
      "start": 45.933,
      "duration": 0.2428,
      "velocity": 107,
      "chip": "ym2612"
    },
    {
      "channel": 2,
      "note": 83,
      "start": 45.936,
      "duration": 0.0733,
      "velocity": 102,
      "chip": "ym2612"
    },
    {
      "channel": 0,
      "note": 64,
      "start": 46.1793,
      "duration": 1.8964,
      "velocity": 112,
      "chip": "ym2612"
    },
    {
      "channel": 1,
      "note": 66,
      "start": 46.1819,
      "duration": 1.894,
      "velocity": 112,
      "chip": "ym2612"
    },
    {
      "channel": 3,
      "note": 71,
      "start": 46.1848,
      "duration": 1.8912,
      "velocity": 112,
      "chip": "ym2612"
    },
    {
      "channel": 5,
      "note": 57,
      "start": 46.429,
      "duration": 0.1802,
      "velocity": 94,
      "chip": "ym2612"
    },
    {
      "channel": 2,
      "note": 86,
      "start": 46.4322,
      "duration": 0.0771,
      "velocity": 102,
      "chip": "ym2612"
    },
    {
      "channel": 5,
      "note": 61,
      "start": 46.6788,
      "duration": 0.2304,
      "velocity": 94,
      "chip": "ym2612"
    },
    {
      "channel": 4,
      "note": 95,
      "start": 46.682,
      "duration": 0.0605,
      "velocity": 107,
      "chip": "ym2612"
    },
    {
      "channel": 2,
      "note": 66,
      "start": 46.6855,
      "duration": 0.0072,
      "velocity": 102,
      "chip": "ym2612"
    },
    {
      "channel": 5,
      "note": 59,
      "start": 46.929,
      "duration": 0.7968,
      "velocity": 94,
      "chip": "ym2612"
    },
    {
      "channel": 4,
      "note": 95,
      "start": 46.9322,
      "duration": 0.027,
      "velocity": 107,
      "chip": "ym2612"
    },
    {
      "channel": 2,
      "note": 90,
      "start": 46.9351,
      "duration": 0.0907,
      "velocity": 102,
      "chip": "ym2612"
    },
    {
      "channel": 4,
      "note": 95,
      "start": 47.1793,
      "duration": 0.0466,
      "velocity": 107,
      "chip": "ym2612"
    },
    {
      "channel": 2,
      "note": 66,
      "start": 47.1822,
      "duration": 0.0104,
      "velocity": 102,
      "chip": "ym2612"
    },
    {
      "channel": 2,
      "note": 88,
      "start": 47.4295,
      "duration": 0.0798,
      "velocity": 102,
      "chip": "ym2612"
    },
    {
      "channel": 2,
      "note": 86,
      "start": 47.9296,
      "duration": 0.1297,
      "velocity": 102,
      "chip": "ym2612"
    },
    {
      "channel": 5,
      "note": 59,
      "start": 48.179,
      "duration": 0.3968,
      "velocity": 94,
      "chip": "ym2612"
    },
    {
      "channel": 0,
      "note": 66,
      "start": 48.1822,
      "duration": 7.5935,
      "velocity": 112,
      "chip": "ym2612"
    },
    {
      "channel": 1,
      "note": 62,
      "start": 48.1854,
      "duration": 7.6069,
      "velocity": 112,
      "chip": "ym2612"
    },
    {
      "channel": 3,
      "note": 71,
      "start": 48.1886,
      "duration": 7.5705,
      "velocity": 112,
      "chip": "ym2612"
    },
    {
      "channel": 4,
      "note": 95,
      "start": 48.1929,
      "duration": 0.0496,
      "velocity": 107,
      "chip": "ym2612"
    },
    {
      "channel": 2,
      "note": 83,
      "start": 48.1961,
      "duration": 0.0632,
      "velocity": 102,
      "chip": "ym2612"
    },
    {
      "channel": 4,
      "note": 95,
      "start": 48.4293,
      "duration": 0.0466,
      "velocity": 107,
      "chip": "ym2612"
    },
    {
      "channel": 5,
      "note": 59,
      "start": 48.679,
      "duration": 0.0802,
      "velocity": 94,
      "chip": "ym2612"
    },
    {
      "channel": 4,
      "note": 95,
      "start": 48.6819,
      "duration": 0.0438,
      "velocity": 107,
      "chip": "ym2612"
    },
    {
      "channel": 2,
      "note": 81,
      "start": 48.6855,
      "duration": 0.1071,
      "velocity": 102,
      "chip": "ym2612"
    },
    {
      "channel": 5,
      "note": 59,
      "start": 48.9294,
      "duration": 0.7298,
      "velocity": 94,
      "chip": "ym2612"
    },
    {
      "channel": 4,
      "note": 95,
      "start": 48.9331,
      "duration": 0.2595,
      "velocity": 107,
      "chip": "ym2612"
    },
    {
      "channel": 2,
      "note": 64,
      "start": 48.9362,
      "duration": 0.0731,
      "velocity": 102,
      "chip": "ym2612"
    },
    {
      "channel": 4,
      "note": 95,
      "start": 49.4459,
      "duration": 0.2133,
      "velocity": 107,
      "chip": "ym2612"
    },
    {
      "channel": 2,
      "note": 74,
      "start": 49.4489,
      "duration": 0.1104,
      "velocity": 102,
      "chip": "ym2612"
    },
    {
      "channel": 5,
      "note": 52,
      "start": 49.6956,
      "duration": 0.2135,
      "velocity": 94,
      "chip": "ym2612"
    },
    {
      "channel": 5,
      "note": 54,
      "start": 49.9454,
      "duration": 0.2137,
      "velocity": 94,
      "chip": "ym2612"
    },
    {
      "channel": 4,
      "note": 95,
      "start": 49.9486,
      "duration": 0.2606,
      "velocity": 107,
      "chip": "ym2612"
    },
    {
      "channel": 2,
      "note": 78,
      "start": 49.9518,
      "duration": 0.0742,
      "velocity": 102,
      "chip": "ym2612"
    },
    {
      "channel": 5,
      "note": 57,
      "start": 50.1953,
      "duration": 0.2305,
      "velocity": 94,
      "chip": "ym2612"
    },
    {
      "channel": 2,
      "note": 69,
      "start": 50.1986,
      "duration": 0.0274,
      "velocity": 102,
      "chip": "ym2612"
    },
    {
      "channel": 5,
      "note": 59,
      "start": 50.4457,
      "duration": 0.0802,
      "velocity": 94,
      "chip": "ym2612"
    },
    {
      "channel": 2,
      "note": 71,
      "start": 50.4488,
      "duration": 0.0271,
      "velocity": 102,
      "chip": "ym2612"
    },
    {
      "channel": 4,
      "note": 95,
      "start": 50.6961,
      "duration": 0.0798,
      "velocity": 107,
      "chip": "ym2612"
    },
    {
      "channel": 2,
      "note": 76,
      "start": 50.6991,
      "duration": 0.0602,
      "velocity": 102,
      "chip": "ym2612"
    },
    {
      "channel": 5,
      "note": 59,
      "start": 50.9456,
      "duration": 0.6635,
      "velocity": 94,
      "chip": "ym2612"
    },
    {
      "channel": 4,
      "note": 95,
      "start": 50.9488,
      "duration": 0.0604,
      "velocity": 107,
      "chip": "ym2612"
    },
    {
      "channel": 2,
      "note": 78,
      "start": 50.9521,
      "duration": 0.0738,
      "velocity": 102,
      "chip": "ym2612"
    },
    {
      "channel": 4,
      "note": 95,
      "start": 51.1959,
      "duration": 0.0633,
      "velocity": 107,
      "chip": "ym2612"
    },
    {
      "channel": 2,
      "note": 81,
      "start": 51.1988,
      "duration": 0.0772,
      "velocity": 102,
      "chip": "ym2612"
    },
    {
      "channel": 2,
      "note": 66,
      "start": 51.4459,
      "duration": 0.0801,
      "velocity": 102,
      "chip": "ym2612"
    },
    {
      "channel": 2,
      "note": 69,
      "start": 51.6961,
      "duration": 0.0464,
      "velocity": 102,
      "chip": "ym2612"
    },
    {
      "channel": 2,
      "note": 74,
      "start": 51.946,
      "duration": 0.08,
      "velocity": 102,
      "chip": "ym2612"
    },
    {
      "channel": 5,
      "note": 62,
      "start": 52.1961,
      "duration": 0.0632,
      "velocity": 94,
      "chip": "ym2612"
    },
    {
      "channel": 4,
      "note": 95,
      "start": 52.1992,
      "duration": 0.0599,
      "velocity": 107,
      "chip": "ym2612"
    },
    {
      "channel": 2,
      "note": 78,
      "start": 52.2021,
      "duration": 0.0739,
      "velocity": 102,
      "chip": "ym2612"
    },
    {
      "channel": 5,
      "note": 62,
      "start": 52.4457,
      "duration": 0.4634,
      "velocity": 94,
      "chip": "ym2612"
    },
    {
      "channel": 4,
      "note": 95,
      "start": 52.449,
      "duration": 0.0601,
      "velocity": 107,
      "chip": "ym2612"
    },
    {
      "channel": 2,
      "note": 76,
      "start": 52.4522,
      "duration": 0.1071,
      "velocity": 102,
      "chip": "ym2612"
    },
    {
      "channel": 4,
      "note": 95,
      "start": 52.6957,
      "duration": 0.0634,
      "velocity": 107,
      "chip": "ym2612"
    },
    {
      "channel": 5,
      "note": 64,
      "start": 52.9457,
      "duration": 0.0801,
      "velocity": 94,
      "chip": "ym2612"
    },
    {
      "channel": 4,
      "note": 95,
      "start": 52.949,
      "duration": 0.2436,
      "velocity": 107,
      "chip": "ym2612"
    },
    {
      "channel": 2,
      "note": 66,
      "start": 52.9521,
      "duration": 0.0572,
      "velocity": 102,
      "chip": "ym2612"
    },
    {
      "channel": 5,
      "note": 66,
      "start": 53.1958,
      "duration": 0.4467,
      "velocity": 94,
      "chip": "ym2612"
    },
    {
      "channel": 2,
      "note": 69,
      "start": 53.1996,
      "duration": 0.1097,
      "velocity": 102,
      "chip": "ym2612"
    },
    {
      "channel": 4,
      "note": 95,
      "start": 53.4626,
      "duration": 0.2133,
      "velocity": 107,
      "chip": "ym2612"
    },
    {
      "channel": 5,
      "note": 64,
      "start": 53.7123,
      "duration": 0.1968,
      "velocity": 94,
      "chip": "ym2612"
    },
    {
      "channel": 2,
      "note": 74,
      "start": 53.7157,
      "duration": 0.0435,
      "velocity": 102,
      "chip": "ym2612"
    },
    {
      "channel": 5,
      "note": 62,
      "start": 53.9624,
      "duration": 0.4635,
      "velocity": 94,
      "chip": "ym2612"
    },
    {
      "channel": 4,
      "note": 95,
      "start": 53.9656,
      "duration": 0.2435,
      "velocity": 107,
      "chip": "ym2612"
    },
    {
      "channel": 2,
      "note": 59,
      "start": 53.9687,
      "duration": 0.0739,
      "velocity": 102,
      "chip": "ym2612"
    },
    {
      "channel": 2,
      "note": 62,
      "start": 54.2128,
      "duration": 0.0298,
      "velocity": 102,
      "chip": "ym2612"
    },
    {
      "channel": 5,
      "note": 61,
      "start": 54.4623,
      "duration": 0.4803,
      "velocity": 94,
      "chip": "ym2612"
    },
    {
      "channel": 2,
      "note": 64,
      "start": 54.4654,
      "duration": 0.0272,
      "velocity": 102,
      "chip": "ym2612"
    },
    {
      "channel": 4,
      "note": 95,
      "start": 54.7128,
      "duration": 0.0798,
      "velocity": 107,
      "chip": "ym2612"
    },
    {
      "channel": 2,
      "note": 76,
      "start": 54.7159,
      "duration": 0.1433,
      "velocity": 102,
      "chip": "ym2612"
    },
    {
      "channel": 5,
      "note": 59,
      "start": 54.9623,
      "duration": 0.9636,
      "velocity": 94,
      "chip": "ym2612"
    },
    {
      "channel": 4,
      "note": 95,
      "start": 54.9654,
      "duration": 0.0605,
      "velocity": 107,
      "chip": "ym2612"
    },
    {
      "channel": 4,
      "note": 95,
      "start": 55.2129,
      "duration": 0.0629,
      "velocity": 107,
      "chip": "ym2612"
    },
    {
      "channel": 2,
      "note": 81,
      "start": 55.2161,
      "duration": 0.0765,
      "velocity": 102,
      "chip": "ym2612"
    },
    {
      "channel": 2,
      "note": 69,
      "start": 55.4631,
      "duration": 0.0628,
      "velocity": 102,
      "chip": "ym2612"
    },
    {
      "channel": 2,
      "note": 71,
      "start": 55.7128,
      "duration": 0.0799,
      "velocity": 102,
      "chip": "ym2612"
    },
    {
      "channel": 5,
      "note": 57,
      "start": 55.9623,
      "duration": 0.1802,
      "velocity": 94,
      "chip": "ym2612"
    },
    {
      "channel": 2,
      "note": 83,
      "start": 55.9656,
      "duration": 0.0937,
      "velocity": 102,
      "chip": "ym2612"
    },
    {
      "channel": 5,
      "note": 59,
      "start": 56.2123,
      "duration": 0.3137,
      "velocity": 94,
      "chip": "ym2612"
    },
    {
      "channel": 0,
      "note": 64,
      "start": 56.2154,
      "duration": 8.0102,
      "velocity": 112,
      "chip": "ym2612"
    },
    {
      "channel": 1,
      "note": 66,
      "start": 56.218,
      "duration": 8.0078,
      "velocity": 112,
      "chip": "ym2612"
    },
    {
      "channel": 3,
      "note": 71,
      "start": 56.2209,
      "duration": 8.005,
      "velocity": 112,
      "chip": "ym2612"
    },
    {
      "channel": 4,
      "note": 95,
      "start": 56.2252,
      "duration": 0.0672,
      "velocity": 107,
      "chip": "ym2612"
    },
    {
      "channel": 2,
      "note": 64,
      "start": 56.2283,
      "duration": 0.0644,
      "velocity": 102,
      "chip": "ym2612"
    },
    {
      "channel": 4,
      "note": 95,
      "start": 56.4626,
      "duration": 0.0632,
      "velocity": 107,
      "chip": "ym2612"
    },
    {
      "channel": 2,
      "note": 76,
      "start": 56.4654,
      "duration": 0.0771,
      "velocity": 102,
      "chip": "ym2612"
    },
    {
      "channel": 5,
      "note": 59,
      "start": 56.7123,
      "duration": 0.0802,
      "velocity": 94,
      "chip": "ym2612"
    },
    {
      "channel": 4,
      "note": 95,
      "start": 56.7152,
      "duration": 0.0606,
      "velocity": 107,
      "chip": "ym2612"
    },
    {
      "channel": 2,
      "note": 66,
      "start": 56.7181,
      "duration": 0.0745,
      "velocity": 102,
      "chip": "ym2612"
    },
    {
      "channel": 5,
      "note": 59,
      "start": 56.9624,
      "duration": 0.7302,
      "velocity": 94,
      "chip": "ym2612"
    },
    {
      "channel": 4,
      "note": 95,
      "start": 56.9656,
      "duration": 0.2269,
      "velocity": 107,
      "chip": "ym2612"
    },
    {
      "channel": 2,
      "note": 78,
      "start": 56.9685,
      "duration": 0.0741,
      "velocity": 102,
      "chip": "ym2612"
    },
    {
      "channel": 2,
      "note": 81,
      "start": 57.2128,
      "duration": 0.1132,
      "velocity": 102,
      "chip": "ym2612"
    },
    {
      "channel": 4,
      "note": 95,
      "start": 57.4624,
      "duration": 0.2301,
      "velocity": 107,
      "chip": "ym2612"
    },
    {
      "channel": 2,
      "note": 62,
      "start": 57.4654,
      "duration": 0.0605,
      "velocity": 102,
      "chip": "ym2612"
    },
    {
      "channel": 5,
      "note": 52,
      "start": 57.7294,
      "duration": 0.2132,
      "velocity": 94,
      "chip": "ym2612"
    },
    {
      "channel": 2,
      "note": 64,
      "start": 57.7326,
      "duration": 0.0767,
      "velocity": 102,
      "chip": "ym2612"
    },
    {
      "channel": 5,
      "note": 54,
      "start": 57.9789,
      "duration": 0.1803,
      "velocity": 94,
      "chip": "ym2612"
    },
    {
      "channel": 4,
      "note": 95,
      "start": 57.9822,
      "duration": 0.2603,
      "velocity": 107,
      "chip": "ym2612"
    },
    {
      "channel": 2,
      "note": 83,
      "start": 57.9855,
      "duration": 0.0903,
      "velocity": 102,
      "chip": "ym2612"
    },
    {
      "channel": 5,
      "note": 57,
      "start": 58.2289,
      "duration": 0.2136,
      "velocity": 94,
      "chip": "ym2612"
    },
    {
      "channel": 2,
      "note": 81,
      "start": 58.2322,
      "duration": 0.0771,
      "velocity": 102,
      "chip": "ym2612"
    },
    {
      "channel": 5,
      "note": 59,
      "start": 58.4789,
      "duration": 0.0803,
      "velocity": 94,
      "chip": "ym2612"
    },
    {
      "channel": 2,
      "note": 59,
      "start": 58.4822,
      "duration": 0.0438,
      "velocity": 102,
      "chip": "ym2612"
    },
    {
      "channel": 4,
      "note": 95,
      "start": 58.7297,
      "duration": 0.0294,
      "velocity": 107,
      "chip": "ym2612"
    },
    {
      "channel": 2,
      "note": 62,
      "start": 58.7326,
      "duration": 0.06,
      "velocity": 102,
      "chip": "ym2612"
    },
    {
      "channel": 5,
      "note": 59,
      "start": 58.979,
      "duration": 0.8302,
      "velocity": 94,
      "chip": "ym2612"
    },
    {
      "channel": 4,
      "note": 95,
      "start": 58.982,
      "duration": 0.0272,
      "velocity": 107,
      "chip": "ym2612"
    },
    {
      "channel": 2,
      "note": 64,
      "start": 58.985,
      "duration": 0.0243,
      "velocity": 102,
      "chip": "ym2612"
    },
    {
      "channel": 4,
      "note": 95,
      "start": 59.2294,
      "duration": 0.0632,
      "velocity": 107,
      "chip": "ym2612"
    },
    {
      "channel": 2,
      "note": 86,
      "start": 59.2324,
      "duration": 0.0935,
      "velocity": 102,
      "chip": "ym2612"
    },
    {
      "channel": 2,
      "note": 83,
      "start": 59.4794,
      "duration": 0.0799,
      "velocity": 102,
      "chip": "ym2612"
    },
    {
      "channel": 2,
      "note": 81,
      "start": 59.7292,
      "duration": 0.0802,
      "velocity": 102,
      "chip": "ym2612"
    },
    {
      "channel": 2,
      "note": 69,
      "start": 59.9794,
      "duration": 0.1298,
      "velocity": 102,
      "chip": "ym2612"
    },
    {
      "channel": 5,
      "note": 64,
      "start": 60.229,
      "duration": 0.2302,
      "velocity": 94,
      "chip": "ym2612"
    },
    {
      "channel": 4,
      "note": 95,
      "start": 60.2322,
      "duration": 0.0603,
      "velocity": 107,
      "chip": "ym2612"
    },
    {
      "channel": 2,
      "note": 71,
      "start": 60.2355,
      "duration": 0.0571,
      "velocity": 102,
      "chip": "ym2612"
    },
    {
      "channel": 5,
      "note": 66,
      "start": 60.4791,
      "duration": 0.23,
      "velocity": 94,
      "chip": "ym2612"
    },
    {
      "channel": 4,
      "note": 95,
      "start": 60.4822,
      "duration": 0.0436,
      "velocity": 107,
      "chip": "ym2612"
    },
    {
      "channel": 2,
      "note": 74,
      "start": 60.4852,
      "duration": 0.0907,
      "velocity": 102,
      "chip": "ym2612"
    },
    {
      "channel": 5,
      "note": 62,
      "start": 60.7289,
      "duration": 0.2137,
      "velocity": 94,
      "chip": "ym2612"
    },
    {
      "channel": 4,
      "note": 95,
      "start": 60.7318,
      "duration": 0.044,
      "velocity": 107,
      "chip": "ym2612"
    },
    {
      "channel": 2,
      "note": 78,
      "start": 60.7348,
      "duration": 0.0744,
      "velocity": 102,
      "chip": "ym2612"
    },
    {
      "channel": 5,
      "note": 64,
      "start": 60.9787,
      "duration": 0.2139,
      "velocity": 94,
      "chip": "ym2612"
    },
    {
      "channel": 4,
      "note": 95,
      "start": 60.9819,
      "duration": 0.2273,
      "velocity": 107,
      "chip": "ym2612"
    },
    {
      "channel": 2,
      "note": 76,
      "start": 60.9848,
      "duration": 0.0745,
      "velocity": 102,
      "chip": "ym2612"
    },
    {
      "channel": 5,
      "note": 61,
      "start": 61.229,
      "duration": 0.3968,
      "velocity": 94,
      "chip": "ym2612"
    },
    {
      "channel": 2,
      "note": 64,
      "start": 61.2324,
      "duration": 0.0435,
      "velocity": 102,
      "chip": "ym2612"
    },
    {
      "channel": 4,
      "note": 95,
      "start": 61.479,
      "duration": 0.2302,
      "velocity": 107,
      "chip": "ym2612"
    },
    {
      "channel": 2,
      "note": 81,
      "start": 61.482,
      "duration": 0.0773,
      "velocity": 102,
      "chip": "ym2612"
    },
    {
      "channel": 5,
      "note": 61,
      "start": 61.729,
      "duration": 0.2136,
      "velocity": 94,
      "chip": "ym2612"
    },
    {
      "channel": 2,
      "note": 69,
      "start": 61.7324,
      "duration": 0.0603,
      "velocity": 102,
      "chip": "ym2612"
    },
    {
      "channel": 5,
      "note": 62,
      "start": 61.9956,
      "duration": 0.2135,
      "velocity": 94,
      "chip": "ym2612"
    },
    {
      "channel": 4,
      "note": 95,
      "start": 61.9992,
      "duration": 0.2433,
      "velocity": 107,
      "chip": "ym2612"
    },
    {
      "channel": 2,
      "note": 74,
      "start": 62.0022,
      "duration": 0.0904,
      "velocity": 102,
      "chip": "ym2612"
    },
    {
      "channel": 5,
      "note": 59,
      "start": 62.2456,
      "duration": 0.1969,
      "velocity": 94,
      "chip": "ym2612"
    },
    {
      "channel": 2,
      "note": 76,
      "start": 62.2492,
      "duration": 0.0434,
      "velocity": 102,
      "chip": "ym2612"
    },
    {
      "channel": 5,
      "note": 61,
      "start": 62.4954,
      "duration": 0.1971,
      "velocity": 94,
      "chip": "ym2612"
    },
    {
      "channel": 2,
      "note": 78,
      "start": 62.4987,
      "duration": 0.0272,
      "velocity": 102,
      "chip": "ym2612"
    },
    {
      "channel": 5,
      "note": 57,
      "start": 62.7459,
      "duration": 0.2134,
      "velocity": 94,
      "chip": "ym2612"
    },
    {
      "channel": 4,
      "note": 95,
      "start": 62.7492,
      "duration": 0.0433,
      "velocity": 107,
      "chip": "ym2612"
    },
    {
      "channel": 2,
      "note": 62,
      "start": 62.7521,
      "duration": 0.0737,
      "velocity": 102,
      "chip": "ym2612"
    },
    {
      "channel": 5,
      "note": 59,
      "start": 62.9956,
      "duration": 1.1636,
      "velocity": 94,
      "chip": "ym2612"
    },
    {
      "channel": 4,
      "note": 95,
      "start": 62.9988,
      "duration": 0.027,
      "velocity": 107,
      "chip": "ym2612"
    },
    {
      "channel": 2,
      "note": 64,
      "start": 63.0018,
      "duration": 0.0242,
      "velocity": 102,
      "chip": "ym2612"
    },
    {
      "channel": 4,
      "note": 95,
      "start": 63.2459,
      "duration": 0.03,
      "velocity": 107,
      "chip": "ym2612"
    },
    {
      "channel": 2,
      "note": 69,
      "start": 63.2488,
      "duration": 0.077,
      "velocity": 102,
      "chip": "ym2612"
    },
    {
      "channel": 2,
      "note": 71,
      "start": 63.4961,
      "duration": 0.0632,
      "velocity": 102,
      "chip": "ym2612"
    },
    {
      "channel": 2,
      "note": 59,
      "start": 63.7462,
      "duration": 0.0131,
      "velocity": 102,
      "chip": "ym2612"
    },
    {
      "channel": 4,
      "note": 74,
      "start": 63.7495,
      "duration": 0.0596,
      "velocity": 102,
      "chip": "ym2612"
    },
    {
      "channel": 5,
      "note": 59,
      "start": 64.2457,
      "duration": 0.3968,
      "velocity": 94,
      "chip": "ym2612"
    },
    {
      "channel": 0,
      "note": 71,
      "start": 64.2492,
      "duration": 7.4765,
      "velocity": 112,
      "chip": "ym2612"
    },
    {
      "channel": 1,
      "note": 66,
      "start": 64.2521,
      "duration": 7.457,
      "velocity": 112,
      "chip": "ym2612"
    },
    {
      "channel": 3,
      "note": 62,
      "start": 64.2553,
      "duration": 7.5037,
      "velocity": 112,
      "chip": "ym2612"
    },
    {
      "channel": 2,
      "note": 95,
      "start": 64.2598,
      "duration": 0.0829,
      "velocity": 107,
      "chip": "ym2612"
    },
    {
      "channel": 4,
      "note": 59,
      "start": 64.2628,
      "duration": 0.0797,
      "velocity": 102,
      "chip": "ym2612"
    },
    {
      "channel": 2,
      "note": 95,
      "start": 64.496,
      "duration": 0.0632,
      "velocity": 107,
      "chip": "ym2612"
    },
    {
      "channel": 4,
      "note": 69,
      "start": 64.499,
      "duration": 0.1268,
      "velocity": 102,
      "chip": "ym2612"
    },
    {
      "channel": 5,
      "note": 59,
      "start": 64.7457,
      "duration": 0.0634,
      "velocity": 94,
      "chip": "ym2612"
    },
    {
      "channel": 2,
      "note": 95,
      "start": 64.749,
      "duration": 0.0437,
      "velocity": 107,
      "chip": "ym2612"
    },
    {
      "channel": 4,
      "note": 71,
      "start": 64.7519,
      "duration": 0.0739,
      "velocity": 102,
      "chip": "ym2612"
    },
    {
      "channel": 5,
      "note": 59,
      "start": 64.9956,
      "duration": 0.5302,
      "velocity": 94,
      "chip": "ym2612"
    },
    {
      "channel": 2,
      "note": 95,
      "start": 64.9994,
      "duration": 0.2432,
      "velocity": 107,
      "chip": "ym2612"
    },
    {
      "channel": 4,
      "note": 66,
      "start": 65.0023,
      "duration": 0.0401,
      "velocity": 102,
      "chip": "ym2612"
    },
    {
      "channel": 4,
      "note": 78,
      "start": 65.246,
      "duration": 0.1132,
      "velocity": 102,
      "chip": "ym2612"
    },
    {
      "channel": 2,
      "note": 95,
      "start": 65.496,
      "duration": 0.23,
      "velocity": 107,
      "chip": "ym2612"
    },
    {
      "channel": 4,
      "note": 76,
      "start": 65.499,
      "duration": 0.0769,
      "velocity": 102,
      "chip": "ym2612"
    },
    {
      "channel": 5,
      "note": 52,
      "start": 65.7456,
      "duration": 0.2303,
      "velocity": 94,
      "chip": "ym2612"
    },
    {
      "channel": 4,
      "note": 74,
      "start": 65.7487,
      "duration": 0.0605,
      "velocity": 102,
      "chip": "ym2612"
    },
    {
      "channel": 5,
      "note": 54,
      "start": 65.9959,
      "duration": 0.2132,
      "velocity": 94,
      "chip": "ym2612"
    },
    {
      "channel": 2,
      "note": 95,
      "start": 65.9993,
      "duration": 0.2932,
      "velocity": 107,
      "chip": "ym2612"
    },
    {
      "channel": 4,
      "note": 64,
      "start": 66.0026,
      "duration": 0.0399,
      "velocity": 102,
      "chip": "ym2612"
    },
    {
      "channel": 5,
      "note": 57,
      "start": 66.2621,
      "duration": 0.2137,
      "velocity": 94,
      "chip": "ym2612"
    },
    {
      "channel": 4,
      "note": 69,
      "start": 66.2652,
      "duration": 0.0772,
      "velocity": 102,
      "chip": "ym2612"
    },
    {
      "channel": 5,
      "note": 59,
      "start": 66.5124,
      "duration": 0.0468,
      "velocity": 94,
      "chip": "ym2612"
    },
    {
      "channel": 4,
      "note": 66,
      "start": 66.5155,
      "duration": 0.027,
      "velocity": 102,
      "chip": "ym2612"
    },
    {
      "channel": 2,
      "note": 95,
      "start": 66.7629,
      "duration": 0.0464,
      "velocity": 107,
      "chip": "ym2612"
    },
    {
      "channel": 4,
      "note": 71,
      "start": 66.7658,
      "duration": 0.0933,
      "velocity": 102,
      "chip": "ym2612"
    },
    {
      "channel": 5,
      "note": 59,
      "start": 67.0123,
      "duration": 0.7303,
      "velocity": 94,
      "chip": "ym2612"
    },
    {
      "channel": 2,
      "note": 95,
      "start": 67.0154,
      "duration": 0.044,
      "velocity": 107,
      "chip": "ym2612"
    },
    {
      "channel": 4,
      "note": 74,
      "start": 67.0183,
      "duration": 0.0409,
      "velocity": 102,
      "chip": "ym2612"
    },
    {
      "channel": 2,
      "note": 95,
      "start": 67.2628,
      "duration": 0.0633,
      "velocity": 107,
      "chip": "ym2612"
    },
    {
      "channel": 4,
      "note": 59,
      "start": 67.2655,
      "duration": 0.0604,
      "velocity": 102,
      "chip": "ym2612"
    },
    {
      "channel": 4,
      "note": 78,
      "start": 67.5125,
      "duration": 0.08,
      "velocity": 102,
      "chip": "ym2612"
    },
    {
      "channel": 4,
      "note": 76,
      "start": 67.7624,
      "duration": 0.0801,
      "velocity": 102,
      "chip": "ym2612"
    },
    {
      "channel": 4,
      "note": 66,
      "start": 68.0126,
      "duration": 0.0633,
      "velocity": 102,
      "chip": "ym2612"
    },
    {
      "channel": 5,
      "note": 62,
      "start": 68.2623,
      "duration": 0.0803,
      "velocity": 94,
      "chip": "ym2612"
    },
    {
      "channel": 2,
      "note": 95,
      "start": 68.2658,
      "duration": 0.0935,
      "velocity": 107,
      "chip": "ym2612"
    },
    {
      "channel": 4,
      "note": 81,
      "start": 68.2691,
      "duration": 0.0734,
      "velocity": 102,
      "chip": "ym2612"
    },
    {
      "channel": 5,
      "note": 62,
      "start": 68.5123,
      "duration": 0.4636,
      "velocity": 94,
      "chip": "ym2612"
    },
    {
      "channel": 2,
      "note": 95,
      "start": 68.5159,
      "duration": 0.0767,
      "velocity": 107,
      "chip": "ym2612"
    },
    {
      "channel": 2,
      "note": 95,
      "start": 68.7627,
      "duration": 0.0632,
      "velocity": 107,
      "chip": "ym2612"
    },
    {
      "channel": 4,
      "note": 78,
      "start": 68.7656,
      "duration": 0.0769,
      "velocity": 102,
      "chip": "ym2612"
    },
    {
      "channel": 5,
      "note": 61,
      "start": 69.0127,
      "duration": 0.0466,
      "velocity": 94,
      "chip": "ym2612"
    },
    {
      "channel": 2,
      "note": 95,
      "start": 69.0161,
      "duration": 0.2432,
      "velocity": 107,
      "chip": "ym2612"
    },
    {
      "channel": 4,
      "note": 64,
      "start": 69.0189,
      "duration": 0.0568,
      "velocity": 102,
      "chip": "ym2612"
    },
    {
      "channel": 5,
      "note": 61,
      "start": 69.2624,
      "duration": 0.4801,
      "velocity": 94,
      "chip": "ym2612"
    },
    {
      "channel": 4,
      "note": 66,
      "start": 69.2654,
      "duration": 0.0605,
      "velocity": 102,
      "chip": "ym2612"
    },
    {
      "channel": 2,
      "note": 95,
      "start": 69.5125,
      "duration": 0.2468,
      "velocity": 107,
      "chip": "ym2612"
    },
    {
      "channel": 4,
      "note": 85,
      "start": 69.5156,
      "duration": 0.1103,
      "velocity": 102,
      "chip": "ym2612"
    },
    {
      "channel": 5,
      "note": 59,
      "start": 69.7624,
      "duration": 0.1468,
      "velocity": 94,
      "chip": "ym2612"
    },
    {
      "channel": 5,
      "note": 59,
      "start": 70.0123,
      "duration": 0.1303,
      "velocity": 94,
      "chip": "ym2612"
    },
    {
      "channel": 2,
      "note": 95,
      "start": 70.0157,
      "duration": 0.3102,
      "velocity": 107,
      "chip": "ym2612"
    },
    {
      "channel": 4,
      "note": 83,
      "start": 70.0188,
      "duration": 0.0571,
      "velocity": 102,
      "chip": "ym2612"
    },
    {
      "channel": 4,
      "note": 62,
      "start": 70.2626,
      "duration": 0.08,
      "velocity": 102,
      "chip": "ym2612"
    },
    {
      "channel": 5,
      "note": 57,
      "start": 70.5289,
      "duration": 0.0805,
      "velocity": 94,
      "chip": "ym2612"
    },
    {
      "channel": 4,
      "note": 64,
      "start": 70.5322,
      "duration": 0.077,
      "velocity": 102,
      "chip": "ym2612"
    },
    {
      "channel": 2,
      "note": 95,
      "start": 70.7795,
      "duration": 0.0464,
      "velocity": 107,
      "chip": "ym2612"
    },
    {
      "channel": 4,
      "note": 81,
      "start": 70.7824,
      "duration": 0.1101,
      "velocity": 102,
      "chip": "ym2612"
    },
    {
      "channel": 5,
      "note": 59,
      "start": 71.0294,
      "duration": 0.7298,
      "velocity": 94,
      "chip": "ym2612"
    },
    {
      "channel": 2,
      "note": 95,
      "start": 71.0327,
      "duration": 0.0266,
      "velocity": 107,
      "chip": "ym2612"
    },
    {
      "channel": 4,
      "note": 64,
      "start": 71.0356,
      "duration": 0.0235,
      "velocity": 102,
      "chip": "ym2612"
    },
    {
      "channel": 2,
      "note": 95,
      "start": 71.2797,
      "duration": 0.0295,
      "velocity": 107,
      "chip": "ym2612"
    },
    {
      "channel": 4,
      "note": 76,
      "start": 71.2826,
      "duration": 0.0765,
      "velocity": 102,
      "chip": "ym2612"
    },
    {
      "channel": 4,
      "note": 66,
      "start": 71.5294,
      "duration": 0.0631,
      "velocity": 102,
      "chip": "ym2612"
    },
    {
      "channel": 2,
      "note": 78,
      "start": 71.5325,
      "duration": 0.11,
      "velocity": 102,
      "chip": "ym2612"
    },
    {
      "channel": 4,
      "note": 74,
      "start": 71.7793,
      "duration": 0.1132,
      "velocity": 102,
      "chip": "ym2612"
    },
    {
      "channel": 5,
      "note": 59,
      "start": 72.279,
      "duration": 0.3136,
      "velocity": 94,
      "chip": "ym2612"
    },
    {
      "channel": 0,
      "note": 66,
      "start": 72.2821,
      "duration": 5.8102,
      "velocity": 112,
      "chip": "ym2612"
    },
    {
      "channel": 1,
      "note": 71,
      "start": 72.2847,
      "duration": 5.8078,
      "velocity": 112,
      "chip": "ym2612"
    },
    {
      "channel": 3,
      "note": 64,
      "start": 72.2883,
      "duration": 5.7875,
      "velocity": 112,
      "chip": "ym2612"
    },
    {
      "channel": 2,
      "note": 95,
      "start": 72.2927,
      "duration": 0.0665,
      "velocity": 107,
      "chip": "ym2612"
    },
    {
      "channel": 4,
      "note": 69,
      "start": 72.296,
      "duration": 0.0965,
      "velocity": 102,
      "chip": "ym2612"
    },
    {
      "channel": 2,
      "note": 95,
      "start": 72.5294,
      "duration": 0.0298,
      "velocity": 107,
      "chip": "ym2612"
    },
    {
      "channel": 4,
      "note": 64,
      "start": 72.5324,
      "duration": 0.01,
      "velocity": 102,
      "chip": "ym2612"
    },
    {
      "channel": 5,
      "note": 59,
      "start": 72.779,
      "duration": 0.0469,
      "velocity": 94,
      "chip": "ym2612"
    },
    {
      "channel": 2,
      "note": 95,
      "start": 72.7822,
      "duration": 0.0439,
      "velocity": 107,
      "chip": "ym2612"
    },
    {
      "channel": 5,
      "note": 59,
      "start": 73.029,
      "duration": 0.7134,
      "velocity": 94,
      "chip": "ym2612"
    },
    {
      "channel": 2,
      "note": 95,
      "start": 73.0324,
      "duration": 0.2269,
      "velocity": 107,
      "chip": "ym2612"
    },
    {
      "channel": 4,
      "note": 74,
      "start": 73.0355,
      "duration": 0.0903,
      "velocity": 102,
      "chip": "ym2612"
    },
    {
      "channel": 4,
      "note": 66,
      "start": 73.2792,
      "duration": 0.0633,
      "velocity": 102,
      "chip": "ym2612"
    },
    {
      "channel": 2,
      "note": 95,
      "start": 73.5293,
      "duration": 0.23,
      "velocity": 107,
      "chip": "ym2612"
    },
    {
      "channel": 4,
      "note": 69,
      "start": 73.5321,
      "duration": 0.0938,
      "velocity": 102,
      "chip": "ym2612"
    },
    {
      "channel": 5,
      "note": 52,
      "start": 73.779,
      "duration": 0.2303,
      "velocity": 94,
      "chip": "ym2612"
    },
    {
      "channel": 4,
      "note": 62,
      "start": 73.7821,
      "duration": 0.027,
      "velocity": 102,
      "chip": "ym2612"
    },
    {
      "channel": 5,
      "note": 54,
      "start": 74.0287,
      "duration": 0.2305,
      "velocity": 94,
      "chip": "ym2612"
    },
    {
      "channel": 2,
      "note": 95,
      "start": 74.032,
      "duration": 0.2772,
      "velocity": 107,
      "chip": "ym2612"
    },
    {
      "channel": 4,
      "note": 71,
      "start": 74.0349,
      "duration": 0.0576,
      "velocity": 102,
      "chip": "ym2612"
    },
    {
      "channel": 5,
      "note": 57,
      "start": 74.2788,
      "duration": 0.2304,
      "velocity": 94,
      "chip": "ym2612"
    },
    {
      "channel": 4,
      "note": 64,
      "start": 74.2823,
      "duration": 0.0435,
      "velocity": 102,
      "chip": "ym2612"
    },
    {
      "channel": 5,
      "note": 59,
      "start": 74.5294,
      "duration": 0.0798,
      "velocity": 94,
      "chip": "ym2612"
    },
    {
      "channel": 4,
      "note": 66,
      "start": 74.5324,
      "duration": 0.0434,
      "velocity": 102,
      "chip": "ym2612"
    },
    {
      "channel": 2,
      "note": 95,
      "start": 74.7966,
      "duration": 0.0793,
      "velocity": 107,
      "chip": "ym2612"
    },
    {
      "channel": 4,
      "note": 78,
      "start": 74.7995,
      "duration": 0.0763,
      "velocity": 102,
      "chip": "ym2612"
    },
    {
      "channel": 5,
      "note": 59,
      "start": 75.0457,
      "duration": 0.7135,
      "velocity": 94,
      "chip": "ym2612"
    },
    {
      "channel": 2,
      "note": 95,
      "start": 75.049,
      "duration": 0.0437,
      "velocity": 107,
      "chip": "ym2612"
    },
    {
      "channel": 4,
      "note": 76,
      "start": 75.0519,
      "duration": 0.0406,
      "velocity": 102,
      "chip": "ym2612"
    },
    {
      "channel": 2,
      "note": 95,
      "start": 75.296,
      "duration": 0.0466,
      "velocity": 107,
      "chip": "ym2612"
    },
    {
      "channel": 4,
      "note": 74,
      "start": 75.299,
      "duration": 0.0435,
      "velocity": 102,
      "chip": "ym2612"
    },
    {
      "channel": 4,
      "note": 78,
      "start": 75.796,
      "duration": 0.0964,
      "velocity": 102,
      "chip": "ym2612"
    },
    {
      "channel": 4,
      "note": 64,
      "start": 76.0459,
      "duration": 0.0132,
      "velocity": 102,
      "chip": "ym2612"
    },
    {
      "channel": 5,
      "note": 62,
      "start": 76.2956,
      "duration": 0.0802,
      "velocity": 94,
      "chip": "ym2612"
    },
    {
      "channel": 2,
      "note": 95,
      "start": 76.299,
      "duration": 0.077,
      "velocity": 107,
      "chip": "ym2612"
    },
    {
      "channel": 4,
      "note": 66,
      "start": 76.302,
      "duration": 0.0239,
      "velocity": 102,
      "chip": "ym2612"
    },
    {
      "channel": 5,
      "note": 62,
      "start": 76.5456,
      "duration": 0.2303,
      "velocity": 94,
      "chip": "ym2612"
    },
    {
      "channel": 2,
      "note": 95,
      "start": 76.5487,
      "duration": 0.0772,
      "velocity": 107,
      "chip": "ym2612"
    },
    {
      "channel": 4,
      "note": 76,
      "start": 76.552,
      "duration": 0.0905,
      "velocity": 102,
      "chip": "ym2612"
    },
    {
      "channel": 5,
      "note": 64,
      "start": 76.7956,
      "duration": 0.0803,
      "velocity": 94,
      "chip": "ym2612"
    },
    {
      "channel": 2,
      "note": 95,
      "start": 76.7988,
      "duration": 0.0605,
      "velocity": 107,
      "chip": "ym2612"
    },
    {
      "channel": 4,
      "note": 78,
      "start": 76.8018,
      "duration": 0.074,
      "velocity": 102,
      "chip": "ym2612"
    },
    {
      "channel": 5,
      "note": 61,
      "start": 77.0456,
      "duration": 0.0637,
      "velocity": 94,
      "chip": "ym2612"
    },
    {
      "channel": 2,
      "note": 95,
      "start": 77.049,
      "duration": 0.2437,
      "velocity": 107,
      "chip": "ym2612"
    },
    {
      "channel": 4,
      "note": 81,
      "start": 77.0519,
      "duration": 0.0573,
      "velocity": 102,
      "chip": "ym2612"
    },
    {
      "channel": 5,
      "note": 61,
      "start": 77.2956,
      "duration": 0.2302,
      "velocity": 94,
      "chip": "ym2612"
    },
    {
      "channel": 4,
      "note": 62,
      "start": 77.2988,
      "duration": 0.0438,
      "velocity": 102,
      "chip": "ym2612"
    },
    {
      "channel": 5,
      "note": 62,
      "start": 77.5459,
      "duration": 0.13,
      "velocity": 94,
      "chip": "ym2612"
    },
    {
      "channel": 2,
      "note": 95,
      "start": 77.5495,
      "duration": 0.2098,
      "velocity": 107,
      "chip": "ym2612"
    },
    {
      "channel": 4,
      "note": 81,
      "start": 77.5525,
      "duration": 0.09,
      "velocity": 102,
      "chip": "ym2612"
    },
    {
      "channel": 5,
      "note": 59,
      "start": 77.7955,
      "duration": 0.0803,
      "velocity": 94,
      "chip": "ym2612"
    },
    {
      "channel": 5,
      "note": 59,
      "start": 78.0457,
      "duration": 0.4134,
      "velocity": 94,
      "chip": "ym2612"
    },
    {
      "channel": 2,
      "note": 95,
      "start": 78.0492,
      "duration": 0.2434,
      "velocity": 107,
      "chip": "ym2612"
    },
    {
      "channel": 4,
      "note": 83,
      "start": 78.052,
      "duration": 0.0737,
      "velocity": 102,
      "chip": "ym2612"
    },
    {
      "channel": 0,
      "note": 64,
      "start": 78.296,
      "duration": 1.913,
      "velocity": 112,
      "chip": "ym2612"
    },
    {
      "channel": 1,
      "note": 66,
      "start": 78.2985,
      "duration": 1.9106,
      "velocity": 112,
      "chip": "ym2612"
    },
    {
      "channel": 3,
      "note": 71,
      "start": 78.3015,
      "duration": 1.9078,
      "velocity": 112,
      "chip": "ym2612"
    },
    {
      "channel": 5,
      "note": 57,
      "start": 78.5456,
      "duration": 0.1969,
      "velocity": 94,
      "chip": "ym2612"
    },
    {
      "channel": 4,
      "note": 86,
      "start": 78.5488,
      "duration": 0.0771,
      "velocity": 102,
      "chip": "ym2612"
    },
    {
      "channel": 5,
      "note": 61,
      "start": 78.7956,
      "duration": 0.2302,
      "velocity": 94,
      "chip": "ym2612"
    },
    {
      "channel": 2,
      "note": 95,
      "start": 78.799,
      "duration": 0.0603,
      "velocity": 107,
      "chip": "ym2612"
    },
    {
      "channel": 4,
      "note": 66,
      "start": 78.8019,
      "duration": 0.0239,
      "velocity": 102,
      "chip": "ym2612"
    },
    {
      "channel": 5,
      "note": 59,
      "start": 79.0623,
      "duration": 0.7802,
      "velocity": 94,
      "chip": "ym2612"
    },
    {
      "channel": 2,
      "note": 95,
      "start": 79.0656,
      "duration": 0.027,
      "velocity": 107,
      "chip": "ym2612"
    },
    {
      "channel": 4,
      "note": 90,
      "start": 79.0688,
      "duration": 0.0904,
      "velocity": 102,
      "chip": "ym2612"
    },
    {
      "channel": 2,
      "note": 95,
      "start": 79.3126,
      "duration": 0.03,
      "velocity": 107,
      "chip": "ym2612"
    },
    {
      "channel": 4,
      "note": 66,
      "start": 79.3156,
      "duration": 0.0103,
      "velocity": 102,
      "chip": "ym2612"
    },
    {
      "channel": 4,
      "note": 88,
      "start": 79.5628,
      "duration": 0.0798,
      "velocity": 102,
      "chip": "ym2612"
    },
    {
      "channel": 4,
      "note": 86,
      "start": 80.0627,
      "duration": 0.1131,
      "velocity": 102,
      "chip": "ym2612"
    },
    {
      "channel": 5,
      "note": 59,
      "start": 80.3129,
      "duration": 0.1463,
      "velocity": 94,
      "chip": "ym2612"
    },
    {
      "channel": 0,
      "note": 66,
      "start": 80.316,
      "duration": 6.8929,
      "velocity": 112,
      "chip": "ym2612"
    },
    {
      "channel": 1,
      "note": 62,
      "start": 80.319,
      "duration": 6.8901,
      "velocity": 112,
      "chip": "ym2612"
    },
    {
      "channel": 3,
      "note": 71,
      "start": 80.3219,
      "duration": 6.8873,
      "velocity": 112,
      "chip": "ym2612"
    },
    {
      "channel": 2,
      "note": 95,
      "start": 80.3263,
      "duration": 0.0497,
      "velocity": 107,
      "chip": "ym2612"
    },
    {
      "channel": 4,
      "note": 83,
      "start": 80.3294,
      "duration": 0.0798,
      "velocity": 102,
      "chip": "ym2612"
    },
    {
      "channel": 2,
      "note": 95,
      "start": 80.5626,
      "duration": 0.0299,
      "velocity": 107,
      "chip": "ym2612"
    },
    {
      "channel": 2,
      "note": 95,
      "start": 80.8129,
      "duration": 0.0296,
      "velocity": 107,
      "chip": "ym2612"
    },
    {
      "channel": 4,
      "note": 81,
      "start": 80.8159,
      "duration": 0.0933,
      "velocity": 102,
      "chip": "ym2612"
    },
    {
      "channel": 2,
      "note": 95,
      "start": 81.0629,
      "duration": 0.2463,
      "velocity": 107,
      "chip": "ym2612"
    },
    {
      "channel": 4,
      "note": 64,
      "start": 81.0663,
      "duration": 0.0761,
      "velocity": 102,
      "chip": "ym2612"
    },
    {
      "channel": 2,
      "note": 95,
      "start": 81.5627,
      "duration": 0.2298,
      "velocity": 107,
      "chip": "ym2612"
    },
    {
      "channel": 4,
      "note": 74,
      "start": 81.5656,
      "duration": 0.1268,
      "velocity": 102,
      "chip": "ym2612"
    },
    {
      "channel": 2,
      "note": 95,
      "start": 82.0628,
      "duration": 0.2797,
      "velocity": 107,
      "chip": "ym2612"
    },
    {
      "channel": 4,
      "note": 78,
      "start": 82.0659,
      "duration": 0.0767,
      "velocity": 102,
      "chip": "ym2612"
    },
    {
      "channel": 4,
      "note": 69,
      "start": 82.3126,
      "duration": 0.0466,
      "velocity": 102,
      "chip": "ym2612"
    },
    {
      "channel": 4,
      "note": 71,
      "start": 82.5624,
      "duration": 0.0466,
      "velocity": 102,
      "chip": "ym2612"
    },
    {
      "channel": 2,
      "note": 95,
      "start": 82.8128,
      "duration": 0.0797,
      "velocity": 107,
      "chip": "ym2612"
    },
    {
      "channel": 4,
      "note": 76,
      "start": 82.8158,
      "duration": 0.06,
      "velocity": 102,
      "chip": "ym2612"
    },
    {
      "channel": 2,
      "note": 95,
      "start": 83.0627,
      "duration": 0.0632,
      "velocity": 107,
      "chip": "ym2612"
    },
    {
      "channel": 4,
      "note": 78,
      "start": 83.0656,
      "duration": 0.0769,
      "velocity": 102,
      "chip": "ym2612"
    },
    {
      "channel": 2,
      "note": 95,
      "start": 83.3294,
      "duration": 0.0465,
      "velocity": 107,
      "chip": "ym2612"
    },
    {
      "channel": 4,
      "note": 81,
      "start": 83.3322,
      "duration": 0.077,
      "velocity": 102,
      "chip": "ym2612"
    },
    {
      "channel": 4,
      "note": 66,
      "start": 83.579,
      "duration": 0.0802,
      "velocity": 102,
      "chip": "ym2612"
    },
    {
      "channel": 4,
      "note": 69,
      "start": 83.8297,
      "duration": 0.0295,
      "velocity": 102,
      "chip": "ym2612"
    },
    {
      "channel": 4,
      "note": 74,
      "start": 84.0792,
      "duration": 0.08,
      "velocity": 102,
      "chip": "ym2612"
    },
    {
      "channel": 2,
      "note": 95,
      "start": 84.3298,
      "duration": 0.0628,
      "velocity": 107,
      "chip": "ym2612"
    },
    {
      "channel": 4,
      "note": 78,
      "start": 84.3325,
      "duration": 0.0766,
      "velocity": 102,
      "chip": "ym2612"
    },
    {
      "channel": 2,
      "note": 95,
      "start": 84.5793,
      "duration": 0.0634,
      "velocity": 107,
      "chip": "ym2612"
    },
    {
      "channel": 4,
      "note": 76,
      "start": 84.5823,
      "duration": 0.0935,
      "velocity": 102,
      "chip": "ym2612"
    },
    {
      "channel": 2,
      "note": 95,
      "start": 84.8292,
      "duration": 0.0634,
      "velocity": 107,
      "chip": "ym2612"
    },
    {
      "channel": 2,
      "note": 95,
      "start": 85.0796,
      "duration": 0.2464,
      "velocity": 107,
      "chip": "ym2612"
    },
    {
      "channel": 4,
      "note": 66,
      "start": 85.0826,
      "duration": 0.0599,
      "velocity": 102,
      "chip": "ym2612"
    },
    {
      "channel": 4,
      "note": 69,
      "start": 85.3295,
      "duration": 0.0963,
      "velocity": 102,
      "chip": "ym2612"
    },
    {
      "channel": 2,
      "note": 95,
      "start": 85.5793,
      "duration": 0.2299,
      "velocity": 107,
      "chip": "ym2612"
    },
    {
      "channel": 4,
      "note": 74,
      "start": 85.8298,
      "duration": 0.0627,
      "velocity": 102,
      "chip": "ym2612"
    },
    {
      "channel": 2,
      "note": 95,
      "start": 86.0795,
      "duration": 0.2464,
      "velocity": 107,
      "chip": "ym2612"
    },
    {
      "channel": 4,
      "note": 59,
      "start": 86.0824,
      "duration": 0.0768,
      "velocity": 102,
      "chip": "ym2612"
    },
    {
      "channel": 4,
      "note": 62,
      "start": 86.3293,
      "duration": 0.0466,
      "velocity": 102,
      "chip": "ym2612"
    },
    {
      "channel": 4,
      "note": 64,
      "start": 86.5791,
      "duration": 0.0466,
      "velocity": 102,
      "chip": "ym2612"
    },
    {
      "channel": 2,
      "note": 95,
      "start": 86.8296,
      "duration": 0.0797,
      "velocity": 107,
      "chip": "ym2612"
    },
    {
      "channel": 4,
      "note": 76,
      "start": 86.8326,
      "duration": 0.1431,
      "velocity": 102,
      "chip": "ym2612"
    },
    {
      "channel": 2,
      "note": 95,
      "start": 87.0797,
      "duration": 0.0629,
      "velocity": 107,
      "chip": "ym2612"
    },
    {
      "channel": 2,
      "note": 95,
      "start": 87.3294,
      "duration": 0.0632,
      "velocity": 107,
      "chip": "ym2612"
    },
    {
      "channel": 4,
      "note": 81,
      "start": 87.3325,
      "duration": 0.0767,
      "velocity": 102,
      "chip": "ym2612"
    },
    {
      "channel": 4,
      "note": 69,
      "start": 87.596,
      "duration": 0.0464,
      "velocity": 102,
      "chip": "ym2612"
    },
    {
      "channel": 4,
      "note": 71,
      "start": 87.8459,
      "duration": 0.0798,
      "velocity": 102,
      "chip": "ym2612"
    },
    {
      "channel": 4,
      "note": 83,
      "start": 88.0963,
      "duration": 0.0962,
      "velocity": 102,
      "chip": "ym2612"
    },
    {
      "channel": 2,
      "note": 95,
      "start": 88.3462,
      "duration": 0.0798,
      "velocity": 107,
      "chip": "ym2612"
    },
    {
      "channel": 4,
      "note": 64,
      "start": 88.3491,
      "duration": 0.0767,
      "velocity": 102,
      "chip": "ym2612"
    },
    {
      "channel": 2,
      "note": 95,
      "start": 88.5961,
      "duration": 0.0632,
      "velocity": 107,
      "chip": "ym2612"
    },
    {
      "channel": 4,
      "note": 76,
      "start": 88.5989,
      "duration": 0.077,
      "velocity": 102,
      "chip": "ym2612"
    },
    {
      "channel": 2,
      "note": 95,
      "start": 88.8459,
      "duration": 0.0633,
      "velocity": 107,
      "chip": "ym2612"
    },
    {
      "channel": 4,
      "note": 66,
      "start": 88.8487,
      "duration": 0.0771,
      "velocity": 102,
      "chip": "ym2612"
    },
    {
      "channel": 2,
      "note": 95,
      "start": 89.0962,
      "duration": 0.2297,
      "velocity": 107,
      "chip": "ym2612"
    },
    {
      "channel": 4,
      "note": 78,
      "start": 89.099,
      "duration": 0.0767,
      "velocity": 102,
      "chip": "ym2612"
    },
    {
      "channel": 4,
      "note": 81,
      "start": 89.346,
      "duration": 0.0964,
      "velocity": 102,
      "chip": "ym2612"
    },
    {
      "channel": 2,
      "note": 95,
      "start": 89.5958,
      "duration": 0.2301,
      "velocity": 107,
      "chip": "ym2612"
    },
    {
      "channel": 4,
      "note": 62,
      "start": 89.5988,
      "duration": 0.0604,
      "velocity": 102,
      "chip": "ym2612"
    },
    {
      "channel": 4,
      "note": 64,
      "start": 89.8459,
      "duration": 0.0799,
      "velocity": 102,
      "chip": "ym2612"
    },
    {
      "channel": 2,
      "note": 95,
      "start": 90.0961,
      "duration": 0.2632,
      "velocity": 107,
      "chip": "ym2612"
    },
    {
      "channel": 4,
      "note": 83,
      "start": 90.0991,
      "duration": 0.0933,
      "velocity": 102,
      "chip": "ym2612"
    },
    {
      "channel": 4,
      "note": 81,
      "start": 90.3462,
      "duration": 0.0796,
      "velocity": 102,
      "chip": "ym2612"
    },
    {
      "channel": 4,
      "note": 59,
      "start": 90.5959,
      "duration": 0.0632,
      "velocity": 102,
      "chip": "ym2612"
    },
    {
      "channel": 2,
      "note": 95,
      "start": 90.8465,
      "duration": 0.0461,
      "velocity": 107,
      "chip": "ym2612"
    },
    {
      "channel": 4,
      "note": 62,
      "start": 90.8493,
      "duration": 0.0598,
      "velocity": 102,
      "chip": "ym2612"
    },
    {
      "channel": 2,
      "note": 95,
      "start": 91.0959,
      "duration": 0.0468,
      "velocity": 107,
      "chip": "ym2612"
    },
    {
      "channel": 4,
      "note": 64,
      "start": 91.0988,
      "duration": 0.0437,
      "velocity": 102,
      "chip": "ym2612"
    },
    {
      "channel": 2,
      "note": 95,
      "start": 91.3462,
      "duration": 0.063,
      "velocity": 107,
      "chip": "ym2612"
    },
    {
      "channel": 4,
      "note": 86,
      "start": 91.3491,
      "duration": 0.1101,
      "velocity": 102,
      "chip": "ym2612"
    },
    {
      "channel": 4,
      "note": 83,
      "start": 91.5959,
      "duration": 0.0799,
      "velocity": 102,
      "chip": "ym2612"
    },
    {
      "channel": 4,
      "note": 81,
      "start": 91.8625,
      "duration": 0.08,
      "velocity": 102,
      "chip": "ym2612"
    },
    {
      "channel": 4,
      "note": 69,
      "start": 92.1126,
      "duration": 0.1132,
      "velocity": 102,
      "chip": "ym2612"
    },
    {
      "channel": 2,
      "note": 95,
      "start": 92.3627,
      "duration": 0.0466,
      "velocity": 107,
      "chip": "ym2612"
    },
    {
      "channel": 4,
      "note": 71,
      "start": 92.3656,
      "duration": 0.0434,
      "velocity": 102,
      "chip": "ym2612"
    },
    {
      "channel": 2,
      "note": 95,
      "start": 92.6128,
      "duration": 0.0298,
      "velocity": 107,
      "chip": "ym2612"
    },
    {
      "channel": 4,
      "note": 74,
      "start": 92.616,
      "duration": 0.0931,
      "velocity": 102,
      "chip": "ym2612"
    },
    {
      "channel": 2,
      "note": 95,
      "start": 92.8625,
      "duration": 0.03,
      "velocity": 107,
      "chip": "ym2612"
    },
    {
      "channel": 4,
      "note": 78,
      "start": 92.8654,
      "duration": 0.077,
      "velocity": 102,
      "chip": "ym2612"
    },
    {
      "channel": 2,
      "note": 95,
      "start": 93.1128,
      "duration": 0.2298,
      "velocity": 107,
      "chip": "ym2612"
    },
    {
      "channel": 4,
      "note": 76,
      "start": 93.1156,
      "duration": 0.0768,
      "velocity": 102,
      "chip": "ym2612"
    },
    {
      "channel": 4,
      "note": 64,
      "start": 93.3626,
      "duration": 0.0298,
      "velocity": 102,
      "chip": "ym2612"
    },
    {
      "channel": 2,
      "note": 95,
      "start": 93.6126,
      "duration": 0.23,
      "velocity": 107,
      "chip": "ym2612"
    },
    {
      "channel": 4,
      "note": 81,
      "start": 93.6156,
      "duration": 0.0768,
      "velocity": 102,
      "chip": "ym2612"
    },
    {
      "channel": 4,
      "note": 69,
      "start": 93.8626,
      "duration": 0.0632,
      "velocity": 102,
      "chip": "ym2612"
    },
    {
      "channel": 2,
      "note": 95,
      "start": 94.1132,
      "duration": 0.2461,
      "velocity": 107,
      "chip": "ym2612"
    },
    {
      "channel": 4,
      "note": 74,
      "start": 94.1161,
      "duration": 0.093,
      "velocity": 102,
      "chip": "ym2612"
    },
    {
      "channel": 4,
      "note": 76,
      "start": 94.3626,
      "duration": 0.0631,
      "velocity": 102,
      "chip": "ym2612"
    },
    {
      "channel": 4,
      "note": 78,
      "start": 94.6126,
      "duration": 0.0466,
      "velocity": 102,
      "chip": "ym2612"
    },
    {
      "channel": 2,
      "note": 95,
      "start": 94.8628,
      "duration": 0.0631,
      "velocity": 107,
      "chip": "ym2612"
    },
    {
      "channel": 4,
      "note": 62,
      "start": 94.8661,
      "duration": 0.0764,
      "velocity": 102,
      "chip": "ym2612"
    },
    {
      "channel": 2,
      "note": 95,
      "start": 95.1126,
      "duration": 0.0467,
      "velocity": 107,
      "chip": "ym2612"
    },
    {
      "channel": 4,
      "note": 64,
      "start": 95.1156,
      "duration": 0.0435,
      "velocity": 102,
      "chip": "ym2612"
    },
    {
      "channel": 2,
      "note": 95,
      "start": 95.3626,
      "duration": 0.0466,
      "velocity": 107,
      "chip": "ym2612"
    },
    {
      "channel": 4,
      "note": 69,
      "start": 95.3656,
      "duration": 0.0769,
      "velocity": 102,
      "chip": "ym2612"
    },
    {
      "channel": 4,
      "note": 71,
      "start": 95.6125,
      "duration": 0.0632,
      "velocity": 102,
      "chip": "ym2612"
    },
    {
      "channel": 2,
      "note": 95,
      "start": 95.8663,
      "duration": 0.1097,
      "velocity": 107,
      "chip": "ym2612"
    },
    {
      "channel": 4,
      "note": 59,
      "start": 95.8693,
      "duration": 0.0232,
      "velocity": 102,
      "chip": "ym2612"
    },
    {
      "channel": 0,
      "note": 74,
      "start": 95.8722,
      "duration": 0.0534,
      "velocity": 102,
      "chip": "ym2612"
    },
    {
      "channel": 2,
      "note": 95,
      "start": 96.1293,
      "duration": 0.0465,
      "velocity": 107,
      "chip": "ym2612"
    },
    {
      "channel": 2,
      "note": 95,
      "start": 96.3793,
      "duration": 0.03,
      "velocity": 107,
      "chip": "ym2612"
    },
    {
      "channel": 2,
      "note": 95,
      "start": 96.6296,
      "duration": 0.2464,
      "velocity": 107,
      "chip": "ym2612"
    },
    {
      "channel": 2,
      "note": 95,
      "start": 97.1294,
      "duration": 0.2298,
      "velocity": 107,
      "chip": "ym2612"
    },
    {
      "channel": 2,
      "note": 95,
      "start": 97.6299,
      "duration": 0.2794,
      "velocity": 107,
      "chip": "ym2612"
    },
    {
      "channel": 2,
      "note": 95,
      "start": 98.3795,
      "duration": 0.0631,
      "velocity": 107,
      "chip": "ym2612"
    },
    {
      "channel": 2,
      "note": 95,
      "start": 98.6292,
      "duration": 0.0634,
      "velocity": 107,
      "chip": "ym2612"
    },
    {
      "channel": 2,
      "note": 95,
      "start": 98.8793,
      "duration": 0.0632,
      "velocity": 107,
      "chip": "ym2612"
    }
  ]
}