{
  "track_name": "11 - Unknown (Sound Code 08)",
  "duration_sec": 43.108,
  "sample_rate": 44100,
  "note_count": 814,
  "unique_pitches": 37,
  "pitch_range": 55,
  "avg_note_duration": 0.0781,
  "reconstruction_stats": {
    "notes_reconstructed": 814,
    "keyon_events": 814,
    "keyoff_events": 813,
    "orphan_keyons": 1,
    "unique_pitches": 37,
    "pitch_range": 55,
    "avg_duration_sec": 0.0781
  },
  "metadata": {
    "source": "N\\NBA Jam\\11 - Unknown (Sound Code 08).vgz"
  },
  "notes": [
    {
      "channel": 0,
      "note": 36,
      "start": 0.0,
      "duration": 0.0543,
      "velocity": 113,
      "chip": "ym2612"
    },
    {
      "channel": 1,
      "note": 60,
      "start": 0.0051,
      "duration": 0.0311,
      "velocity": 104,
      "chip": "ym2612"
    },
    {
      "channel": 3,
      "note": 67,
      "start": 0.0078,
      "duration": 0.0205,
      "velocity": 104,
      "chip": "ym2612"
    },
    {
      "channel": 4,
      "note": 79,
      "start": 0.0133,
      "duration": 0.0412,
      "velocity": 93,
      "chip": "ym2612"
    },
    {
      "channel": 2,
      "note": 33,
      "start": 0.0187,
      "duration": 0.3106,
      "velocity": 93,
      "chip": "ym2612"
    },
    {
      "channel": 5,
      "note": 67,
      "start": 0.027,
      "duration": 0.0094,
      "velocity": 98,
      "chip": "ym2612"
    },
    {
      "channel": 3,
      "note": 33,
      "start": 0.0342,
      "duration": 0.0701,
      "velocity": 105,
      "chip": "ym2612"
    },
    {
      "channel": 1,
      "note": 60,
      "start": 0.1081,
      "duration": 0.0962,
      "velocity": 104,
      "chip": "ym2612"
    },
    {
      "channel": 5,
      "note": 67,
      "start": 0.1109,
      "duration": 0.0769,
      "velocity": 104,
      "chip": "ym2612"
    },
    {
      "channel": 4,
      "note": 79,
      "start": 0.1136,
      "duration": 0.0408,
      "velocity": 93,
      "chip": "ym2612"
    },
    {
      "channel": 0,
      "note": 67,
      "start": 0.1167,
      "duration": 0.0209,
      "velocity": 98,
      "chip": "ym2612"
    },
    {
      "channel": 1,
      "note": 57,
      "start": 0.2444,
      "duration": 0.0323,
      "velocity": 104,
      "chip": "ym2612"
    },
    {
      "channel": 4,
      "note": 79,
      "start": 0.2467,
      "duration": 0.0131,
      "velocity": 93,
      "chip": "ym2612"
    },
    {
      "channel": 3,
      "note": 79,
      "start": 0.2495,
      "duration": 0.0102,
      "velocity": 111,
      "chip": "ym2612"
    },
    {
      "channel": 0,
      "note": 67,
      "start": 0.2523,
      "duration": 0.0036,
      "velocity": 98,
      "chip": "ym2612"
    },
    {
      "channel": 0,
      "note": 33,
      "start": 0.2579,
      "duration": 0.0442,
      "velocity": 105,
      "chip": "ym2612"
    },
    {
      "channel": 4,
      "note": 79,
      "start": 0.2959,
      "duration": 0.0211,
      "velocity": 93,
      "chip": "ym2612"
    },
    {
      "channel": 3,
      "note": 77,
      "start": 0.2983,
      "duration": 0.0128,
      "velocity": 111,
      "chip": "ym2612"
    },
    {
      "channel": 1,
      "note": 67,
      "start": 0.3008,
      "duration": 0.0103,
      "velocity": 98,
      "chip": "ym2612"
    },
    {
      "channel": 0,
      "note": 67,
      "start": 0.3433,
      "duration": 0.0242,
      "velocity": 104,
      "chip": "ym2612"
    },
    {
      "channel": 1,
      "note": 60,
      "start": 0.3458,
      "duration": 0.0218,
      "velocity": 104,
      "chip": "ym2612"
    },
    {
      "channel": 4,
      "note": 79,
      "start": 0.3483,
      "duration": 0.0132,
      "velocity": 93,
      "chip": "ym2612"
    },
    {
      "channel": 3,
      "note": 67,
      "start": 0.3513,
      "duration": 0.0101,
      "velocity": 98,
      "chip": "ym2612"
    },
    {
      "channel": 2,
      "note": 45,
      "start": 0.3593,
      "duration": 0.0503,
      "velocity": 105,
      "chip": "ym2612"
    },
    {
      "channel": 0,
      "note": 57,
      "start": 0.4487,
      "duration": 0.0134,
      "velocity": 104,
      "chip": "ym2612"
    },
    {
      "channel": 4,
      "note": 79,
      "start": 0.4514,
      "duration": 0.0441,
      "velocity": 93,
      "chip": "ym2612"
    },
    {
      "channel": 3,
      "note": 33,
      "start": 0.4548,
      "duration": 0.7469,
      "velocity": 93,
      "chip": "ym2612"
    },
    {
      "channel": 2,
      "note": 33,
      "start": 0.4657,
      "duration": 0.08,
      "velocity": 105,
      "chip": "ym2612"
    },
    {
      "channel": 0,
      "note": 67,
      "start": 0.5658,
      "duration": 0.3795,
      "velocity": 104,
      "chip": "ym2612"
    },
    {
      "channel": 1,
      "note": 60,
      "start": 0.5682,
      "duration": 0.3772,
      "velocity": 104,
      "chip": "ym2612"
    },
    {
      "channel": 5,
      "note": 67,
      "start": 0.5716,
      "duration": 0.0407,
      "velocity": 98,
      "chip": "ym2612"
    },
    {
      "channel": 4,
      "note": 36,
      "start": 0.6988,
      "duration": 0.0467,
      "velocity": 113,
      "chip": "ym2612"
    },
    {
      "channel": 2,
      "note": 33,
      "start": 0.7154,
      "duration": 0.0802,
      "velocity": 105,
      "chip": "ym2612"
    },
    {
      "channel": 4,
      "note": 36,
      "start": 0.9492,
      "duration": 0.0463,
      "velocity": 113,
      "chip": "ym2612"
    },
    {
      "channel": 0,
      "note": 57,
      "start": 0.9519,
      "duration": 0.0268,
      "velocity": 104,
      "chip": "ym2612"
    },
    {
      "channel": 5,
      "note": 79,
      "start": 0.9552,
      "duration": 0.0238,
      "velocity": 111,
      "chip": "ym2612"
    },
    {
      "channel": 2,
      "note": 33,
      "start": 0.9656,
      "duration": 0.0966,
      "velocity": 105,
      "chip": "ym2612"
    },
    {
      "channel": 5,
      "note": 77,
      "start": 1.0659,
      "duration": 0.0297,
      "velocity": 111,
      "chip": "ym2612"
    },
    {
      "channel": 2,
      "note": 45,
      "start": 1.1921,
      "duration": 0.0581,
      "velocity": 105,
      "chip": "ym2612"
    },
    {
      "channel": 1,
      "note": 79,
      "start": 1.294,
      "duration": 0.063,
      "velocity": 93,
      "chip": "ym2612"
    },
    {
      "channel": 0,
      "note": 79,
      "start": 1.2969,
      "duration": 0.0266,
      "velocity": 111,
      "chip": "ym2612"
    },
    {
      "channel": 2,
      "note": 33,
      "start": 1.3105,
      "duration": 0.0632,
      "velocity": 105,
      "chip": "ym2612"
    },
    {
      "channel": 0,
      "note": 77,
      "start": 1.4105,
      "duration": 0.0464,
      "velocity": 111,
      "chip": "ym2612"
    },
    {
      "channel": 4,
      "note": 36,
      "start": 1.5435,
      "duration": 0.047,
      "velocity": 113,
      "chip": "ym2612"
    },
    {
      "channel": 1,
      "note": 79,
      "start": 1.5462,
      "duration": 0.0441,
      "velocity": 93,
      "chip": "ym2612"
    },
    {
      "channel": 2,
      "note": 33,
      "start": 1.5603,
      "duration": 0.0635,
      "velocity": 105,
      "chip": "ym2612"
    },
    {
      "channel": 1,
      "note": 81,
      "start": 1.6604,
      "duration": 0.0632,
      "velocity": 93,
      "chip": "ym2612"
    },
    {
      "channel": 3,
      "note": 55,
      "start": 1.7806,
      "duration": 0.0118,
      "velocity": 104,
      "chip": "ym2612"
    },
    {
      "channel": 0,
      "note": 79,
      "start": 1.7829,
      "duration": 0.0176,
      "velocity": 111,
      "chip": "ym2612"
    },
    {
      "channel": 2,
      "note": 33,
      "start": 1.7956,
      "duration": 0.0409,
      "velocity": 105,
      "chip": "ym2612"
    },
    {
      "channel": 3,
      "note": 55,
      "start": 1.8429,
      "duration": 0.0064,
      "velocity": 104,
      "chip": "ym2612"
    },
    {
      "channel": 1,
      "note": 81,
      "start": 1.8455,
      "duration": 0.0168,
      "velocity": 93,
      "chip": "ym2612"
    },
    {
      "channel": 0,
      "note": 77,
      "start": 1.8481,
      "duration": 0.0068,
      "velocity": 111,
      "chip": "ym2612"
    },
    {
      "channel": 3,
      "note": 55,
      "start": 1.8999,
      "duration": 0.0018,
      "velocity": 104,
      "chip": "ym2612"
    },
    {
      "channel": 2,
      "note": 45,
      "start": 1.9052,
      "duration": 0.0524,
      "velocity": 105,
      "chip": "ym2612"
    },
    {
      "channel": 3,
      "note": 55,
      "start": 1.9417,
      "duration": 0.0219,
      "velocity": 104,
      "chip": "ym2612"
    },
    {
      "channel": 2,
      "note": 33,
      "start": 2.0196,
      "duration": 0.0634,
      "velocity": 105,
      "chip": "ym2612"
    },
    {
      "channel": 3,
      "note": 55,
      "start": 2.12,
      "duration": 0.2629,
      "velocity": 104,
      "chip": "ym2612"
    },
    {
      "channel": 4,
      "note": 36,
      "start": 2.2362,
      "duration": 0.0634,
      "velocity": 113,
      "chip": "ym2612"
    },
    {
      "channel": 2,
      "note": 33,
      "start": 2.2696,
      "duration": 0.0468,
      "velocity": 105,
      "chip": "ym2612"
    },
    {
      "channel": 4,
      "note": 36,
      "start": 2.4861,
      "duration": 0.0635,
      "velocity": 113,
      "chip": "ym2612"
    },
    {
      "channel": 3,
      "note": 57,
      "start": 2.4888,
      "duration": 0.094,
      "velocity": 104,
      "chip": "ym2612"
    },
    {
      "channel": 0,
      "note": 79,
      "start": 2.4916,
      "duration": 0.0412,
      "velocity": 111,
      "chip": "ym2612"
    },
    {
      "channel": 2,
      "note": 33,
      "start": 2.503,
      "duration": 0.23,
      "velocity": 105,
      "chip": "ym2612"
    },
    {
      "channel": 0,
      "note": 77,
      "start": 2.603,
      "duration": 0.0464,
      "velocity": 111,
      "chip": "ym2612"
    },
    {
      "channel": 3,
      "note": 57,
      "start": 2.7395,
      "duration": 0.0107,
      "velocity": 104,
      "chip": "ym2612"
    },
    {
      "channel": 2,
      "note": 45,
      "start": 2.7471,
      "duration": 0.069,
      "velocity": 105,
      "chip": "ym2612"
    },
    {
      "channel": 3,
      "note": 57,
      "start": 2.8476,
      "duration": 0.0132,
      "velocity": 104,
      "chip": "ym2612"
    },
    {
      "channel": 0,
      "note": 79,
      "start": 2.8508,
      "duration": 0.0268,
      "velocity": 111,
      "chip": "ym2612"
    },
    {
      "channel": 2,
      "note": 33,
      "start": 2.8646,
      "duration": 0.1131,
      "velocity": 105,
      "chip": "ym2612"
    },
    {
      "channel": 3,
      "note": 57,
      "start": 2.9643,
      "duration": 0.0634,
      "velocity": 104,
      "chip": "ym2612"
    },
    {
      "channel": 0,
      "note": 77,
      "start": 2.967,
      "duration": 0.0272,
      "velocity": 111,
      "chip": "ym2612"
    },
    {
      "channel": 2,
      "note": 45,
      "start": 2.9811,
      "duration": 0.0799,
      "velocity": 105,
      "chip": "ym2612"
    },
    {
      "channel": 4,
      "note": 36,
      "start": 3.0808,
      "duration": 0.0636,
      "velocity": 113,
      "chip": "ym2612"
    },
    {
      "channel": 3,
      "note": 60,
      "start": 3.0836,
      "duration": 0.044,
      "velocity": 104,
      "chip": "ym2612"
    },
    {
      "channel": 1,
      "note": 67,
      "start": 3.0868,
      "duration": 0.0101,
      "velocity": 104,
      "chip": "ym2612"
    },
    {
      "channel": 5,
      "note": 79,
      "start": 3.0895,
      "duration": 0.055,
      "velocity": 93,
      "chip": "ym2612"
    },
    {
      "channel": 0,
      "note": 41,
      "start": 3.0924,
      "duration": 0.2529,
      "velocity": 93,
      "chip": "ym2612"
    },
    {
      "channel": 2,
      "note": 67,
      "start": 3.0955,
      "duration": 0.0324,
      "velocity": 98,
      "chip": "ym2612"
    },
    {
      "channel": 1,
      "note": 41,
      "start": 3.1006,
      "duration": 0.0604,
      "velocity": 105,
      "chip": "ym2612"
    },
    {
      "channel": 3,
      "note": 60,
      "start": 3.2144,
      "duration": 0.0965,
      "velocity": 104,
      "chip": "ym2612"
    },
    {
      "channel": 2,
      "note": 67,
      "start": 3.2173,
      "duration": 0.0439,
      "velocity": 104,
      "chip": "ym2612"
    },
    {
      "channel": 5,
      "note": 79,
      "start": 3.2199,
      "duration": 0.0412,
      "velocity": 93,
      "chip": "ym2612"
    },
    {
      "channel": 4,
      "note": 67,
      "start": 3.2228,
      "duration": 0.0215,
      "velocity": 98,
      "chip": "ym2612"
    },
    {
      "channel": 3,
      "note": 57,
      "start": 3.3341,
      "duration": 0.0289,
      "velocity": 104,
      "chip": "ym2612"
    },
    {
      "channel": 1,
      "note": 79,
      "start": 3.3366,
      "duration": 0.0127,
      "velocity": 93,
      "chip": "ym2612"
    },
    {
      "channel": 4,
      "note": 79,
      "start": 3.3392,
      "duration": 0.0102,
      "velocity": 111,
      "chip": "ym2612"
    },
    {
      "channel": 2,
      "note": 67,
      "start": 3.3419,
      "duration": 0.0077,
      "velocity": 98,
      "chip": "ym2612"
    },
    {
      "channel": 0,
      "note": 41,
      "start": 3.3474,
      "duration": 0.03,
      "velocity": 105,
      "chip": "ym2612"
    },
    {
      "channel": 3,
      "note": 67,
      "start": 3.3933,
      "duration": 0.1141,
      "velocity": 104,
      "chip": "ym2612"
    },
    {
      "channel": 1,
      "note": 60,
      "start": 3.3958,
      "duration": 0.0992,
      "velocity": 104,
      "chip": "ym2612"
    },
    {
      "channel": 4,
      "note": 79,
      "start": 3.3984,
      "duration": 0.0208,
      "velocity": 93,
      "chip": "ym2612"
    },
    {
      "channel": 2,
      "note": 67,
      "start": 3.4013,
      "duration": 0.0111,
      "velocity": 98,
      "chip": "ym2612"
    },
    {
      "channel": 4,
      "note": 79,
      "start": 3.4551,
      "duration": 0.016,
      "velocity": 93,
      "chip": "ym2612"
    },
    {
      "channel": 2,
      "note": 67,
      "start": 3.4579,
      "duration": 0.0072,
      "velocity": 98,
      "chip": "ym2612"
    },
    {
      "channel": 0,
      "note": 41,
      "start": 3.4628,
      "duration": 0.0262,
      "velocity": 105,
      "chip": "ym2612"
    },
    {
      "channel": 1,
      "note": 62,
      "start": 3.5429,
      "duration": 0.0629,
      "velocity": 104,
      "chip": "ym2612"
    },
    {
      "channel": 3,
      "note": 67,
      "start": 3.5455,
      "duration": 0.077,
      "velocity": 104,
      "chip": "ym2612"
    },
    {
      "channel": 4,
      "note": 79,
      "start": 3.5482,
      "duration": 0.0577,
      "velocity": 93,
      "chip": "ym2612"
    },
    {
      "channel": 2,
      "note": 41,
      "start": 3.5513,
      "duration": 0.7505,
      "velocity": 93,
      "chip": "ym2612"
    },
    {
      "channel": 0,
      "note": 41,
      "start": 3.5755,
      "duration": 0.0637,
      "velocity": 105,
      "chip": "ym2612"
    },
    {
      "channel": 5,
      "note": 67,
      "start": 3.6772,
      "duration": 0.0287,
      "velocity": 98,
      "chip": "ym2612"
    },
    {
      "channel": 1,
      "note": 36,
      "start": 3.7926,
      "duration": 0.0632,
      "velocity": 113,
      "chip": "ym2612"
    },
    {
      "channel": 3,
      "note": 57,
      "start": 3.7955,
      "duration": 0.1436,
      "velocity": 104,
      "chip": "ym2612"
    },
    {
      "channel": 0,
      "note": 41,
      "start": 3.8088,
      "duration": 0.0802,
      "velocity": 105,
      "chip": "ym2612"
    },
    {
      "channel": 1,
      "note": 36,
      "start": 4.0424,
      "duration": 0.0468,
      "velocity": 113,
      "chip": "ym2612"
    },
    {
      "channel": 4,
      "note": 79,
      "start": 4.0455,
      "duration": 0.0271,
      "velocity": 111,
      "chip": "ym2612"
    },
    {
      "channel": 0,
      "note": 41,
      "start": 4.0588,
      "duration": 0.0803,
      "velocity": 105,
      "chip": "ym2612"
    },
    {
      "channel": 4,
      "note": 77,
      "start": 4.1595,
      "duration": 0.0298,
      "velocity": 111,
      "chip": "ym2612"
    },
    {
      "channel": 3,
      "note": 81,
      "start": 4.2791,
      "duration": 0.0227,
      "velocity": 93,
      "chip": "ym2612"
    },
    {
      "channel": 0,
      "note": 41,
      "start": 4.2919,
      "duration": 0.0632,
      "velocity": 105,
      "chip": "ym2612"
    },
    {
      "channel": 3,
      "note": 84,
      "start": 4.3911,
      "duration": 0.0227,
      "velocity": 93,
      "chip": "ym2612"
    },
    {
      "channel": 0,
      "note": 39,
      "start": 4.3988,
      "duration": 0.0332,
      "velocity": 105,
      "chip": "ym2612"
    },
    {
      "channel": 3,
      "note": 81,
      "start": 4.4404,
      "duration": 0.02,
      "velocity": 93,
      "chip": "ym2612"
    },
    {
      "channel": 0,
      "note": 36,
      "start": 4.4502,
      "duration": 0.0408,
      "velocity": 105,
      "chip": "ym2612"
    },
    {
      "channel": 1,
      "note": 36,
      "start": 4.487,
      "duration": 0.0169,
      "velocity": 113,
      "chip": "ym2612"
    },
    {
      "channel": 0,
      "note": 41,
      "start": 4.4942,
      "duration": 0.0277,
      "velocity": 105,
      "chip": "ym2612"
    },
    {
      "channel": 4,
      "note": 79,
      "start": 4.5879,
      "duration": 0.0172,
      "velocity": 111,
      "chip": "ym2612"
    },
    {
      "channel": 0,
      "note": 41,
      "start": 4.6012,
      "duration": 0.0332,
      "velocity": 105,
      "chip": "ym2612"
    },
    {
      "channel": 4,
      "note": 77,
      "start": 4.6423,
      "duration": 0.0071,
      "velocity": 111,
      "chip": "ym2612"
    },
    {
      "channel": 2,
      "note": 55,
      "start": 4.6872,
      "duration": 0.0155,
      "velocity": 104,
      "chip": "ym2612"
    },
    {
      "channel": 0,
      "note": 41,
      "start": 4.6934,
      "duration": 0.039,
      "velocity": 105,
      "chip": "ym2612"
    },
    {
      "channel": 2,
      "note": 55,
      "start": 4.7367,
      "duration": 0.0206,
      "velocity": 104,
      "chip": "ym2612"
    },
    {
      "channel": 4,
      "note": 79,
      "start": 4.7928,
      "duration": 0.0298,
      "velocity": 111,
      "chip": "ym2612"
    },
    {
      "channel": 0,
      "note": 41,
      "start": 4.8088,
      "duration": 0.097,
      "velocity": 105,
      "chip": "ym2612"
    },
    {
      "channel": 2,
      "note": 55,
      "start": 4.9099,
      "duration": 0.2626,
      "velocity": 104,
      "chip": "ym2612"
    },
    {
      "channel": 1,
      "note": 36,
      "start": 5.0426,
      "duration": 0.0465,
      "velocity": 113,
      "chip": "ym2612"
    },
    {
      "channel": 0,
      "note": 41,
      "start": 5.059,
      "duration": 0.08,
      "velocity": 105,
      "chip": "ym2612"
    },
    {
      "channel": 1,
      "note": 36,
      "start": 5.2756,
      "duration": 0.0635,
      "velocity": 113,
      "chip": "ym2612"
    },
    {
      "channel": 2,
      "note": 57,
      "start": 5.2785,
      "duration": 0.0775,
      "velocity": 104,
      "chip": "ym2612"
    },
    {
      "channel": 4,
      "note": 79,
      "start": 5.2817,
      "duration": 0.0408,
      "velocity": 111,
      "chip": "ym2612"
    },
    {
      "channel": 0,
      "note": 41,
      "start": 5.3088,
      "duration": 0.0636,
      "velocity": 105,
      "chip": "ym2612"
    },
    {
      "channel": 4,
      "note": 77,
      "start": 5.4095,
      "duration": 0.0297,
      "velocity": 111,
      "chip": "ym2612"
    },
    {
      "channel": 2,
      "note": 57,
      "start": 5.529,
      "duration": 0.0286,
      "velocity": 104,
      "chip": "ym2612"
    },
    {
      "channel": 0,
      "note": 41,
      "start": 5.5364,
      "duration": 0.0567,
      "velocity": 105,
      "chip": "ym2612"
    },
    {
      "channel": 2,
      "note": 57,
      "start": 5.6409,
      "duration": 0.0133,
      "velocity": 104,
      "chip": "ym2612"
    },
    {
      "channel": 4,
      "note": 79,
      "start": 5.6435,
      "duration": 0.0106,
      "velocity": 111,
      "chip": "ym2612"
    },
    {
      "channel": 0,
      "note": 43,
      "start": 5.6495,
      "duration": 0.0574,
      "velocity": 105,
      "chip": "ym2612"
    },
    {
      "channel": 2,
      "note": 57,
      "start": 5.6976,
      "duration": 0.0311,
      "velocity": 104,
      "chip": "ym2612"
    },
    {
      "channel": 3,
      "note": 45,
      "start": 5.7023,
      "duration": 0.0608,
      "velocity": 105,
      "chip": "ym2612"
    },
    {
      "channel": 1,
      "note": 36,
      "start": 5.7478,
      "duration": 0.0299,
      "velocity": 113,
      "chip": "ym2612"
    },
    {
      "channel": 2,
      "note": 67,
      "start": 5.7506,
      "duration": 0.0202,
      "velocity": 104,
      "chip": "ym2612"
    },
    {
      "channel": 4,
      "note": 60,
      "start": 5.7529,
      "duration": 0.0177,
      "velocity": 104,
      "chip": "ym2612"
    },
    {
      "channel": 0,
      "note": 79,
      "start": 5.7554,
      "duration": 0.0018,
      "velocity": 93,
      "chip": "ym2612"
    },
    {
      "channel": 0,
      "note": 38,
      "start": 5.7591,
      "duration": 0.0008,
      "velocity": 93,
      "chip": "ym2612"
    },
    {
      "channel": 0,
      "note": 67,
      "start": 5.7619,
      "duration": 0.0085,
      "velocity": 98,
      "chip": "ym2612"
    },
    {
      "channel": 3,
      "note": 38,
      "start": 5.767,
      "duration": 0.0541,
      "velocity": 105,
      "chip": "ym2612"
    },
    {
      "channel": 4,
      "note": 60,
      "start": 5.8109,
      "duration": 0.05,
      "velocity": 104,
      "chip": "ym2612"
    },
    {
      "channel": 2,
      "note": 67,
      "start": 5.8134,
      "duration": 0.0184,
      "velocity": 104,
      "chip": "ym2612"
    },
    {
      "channel": 0,
      "note": 79,
      "start": 5.816,
      "duration": 0.0086,
      "velocity": 93,
      "chip": "ym2612"
    },
    {
      "channel": 1,
      "note": 67,
      "start": 5.8199,
      "duration": 0.0048,
      "velocity": 98,
      "chip": "ym2612"
    },
    {
      "channel": 4,
      "note": 57,
      "start": 5.8976,
      "duration": 0.047,
      "velocity": 104,
      "chip": "ym2612"
    },
    {
      "channel": 0,
      "note": 79,
      "start": 5.9,
      "duration": 0.0607,
      "velocity": 93,
      "chip": "ym2612"
    },
    {
      "channel": 3,
      "note": 79,
      "start": 5.9029,
      "duration": 0.0415,
      "velocity": 111,
      "chip": "ym2612"
    },
    {
      "channel": 1,
      "note": 67,
      "start": 5.9055,
      "duration": 0.0387,
      "velocity": 98,
      "chip": "ym2612"
    },
    {
      "channel": 5,
      "note": 38,
      "start": 5.9146,
      "duration": 0.0963,
      "velocity": 105,
      "chip": "ym2612"
    },
    {
      "channel": 4,
      "note": 67,
      "start": 6.0142,
      "duration": 0.0468,
      "velocity": 104,
      "chip": "ym2612"
    },
    {
      "channel": 2,
      "note": 60,
      "start": 6.017,
      "duration": 0.0607,
      "velocity": 104,
      "chip": "ym2612"
    },
    {
      "channel": 0,
      "note": 79,
      "start": 6.0196,
      "duration": 0.0412,
      "velocity": 93,
      "chip": "ym2612"
    },
    {
      "channel": 1,
      "note": 67,
      "start": 6.0223,
      "duration": 0.0385,
      "velocity": 98,
      "chip": "ym2612"
    },
    {
      "channel": 0,
      "note": 79,
      "start": 6.1506,
      "duration": 0.0116,
      "velocity": 93,
      "chip": "ym2612"
    },
    {
      "channel": 1,
      "note": 67,
      "start": 6.1533,
      "duration": 0.0089,
      "velocity": 98,
      "chip": "ym2612"
    },
    {
      "channel": 3,
      "note": 38,
      "start": 6.1591,
      "duration": 0.027,
      "velocity": 105,
      "chip": "ym2612"
    },
    {
      "channel": 4,
      "note": 57,
      "start": 6.2421,
      "duration": 0.03,
      "velocity": 104,
      "chip": "ym2612"
    },
    {
      "channel": 0,
      "note": 79,
      "start": 6.2448,
      "duration": 0.0606,
      "velocity": 93,
      "chip": "ym2612"
    },
    {
      "channel": 2,
      "note": 38,
      "start": 6.2479,
      "duration": 0.6612,
      "velocity": 93,
      "chip": "ym2612"
    },
    {
      "channel": 3,
      "note": 38,
      "start": 6.2754,
      "duration": 0.1134,
      "velocity": 105,
      "chip": "ym2612"
    },
    {
      "channel": 4,
      "note": 67,
      "start": 6.3759,
      "duration": 0.376,
      "velocity": 104,
      "chip": "ym2612"
    },
    {
      "channel": 1,
      "note": 60,
      "start": 6.3787,
      "duration": 0.36,
      "velocity": 104,
      "chip": "ym2612"
    },
    {
      "channel": 5,
      "note": 67,
      "start": 6.3821,
      "duration": 0.0234,
      "velocity": 98,
      "chip": "ym2612"
    },
    {
      "channel": 0,
      "note": 36,
      "start": 6.492,
      "duration": 0.0633,
      "velocity": 113,
      "chip": "ym2612"
    },
    {
      "channel": 3,
      "note": 38,
      "start": 6.5087,
      "duration": 0.1133,
      "velocity": 105,
      "chip": "ym2612"
    },
    {
      "channel": 0,
      "note": 36,
      "start": 6.7453,
      "duration": 0.0291,
      "velocity": 113,
      "chip": "ym2612"
    },
    {
      "channel": 1,
      "note": 57,
      "start": 6.7478,
      "duration": 0.0341,
      "velocity": 104,
      "chip": "ym2612"
    },
    {
      "channel": 3,
      "note": 77,
      "start": 6.7505,
      "duration": 0.0088,
      "velocity": 111,
      "chip": "ym2612"
    },
    {
      "channel": 4,
      "note": 38,
      "start": 6.7558,
      "duration": 0.0404,
      "velocity": 105,
      "chip": "ym2612"
    },
    {
      "channel": 3,
      "note": 75,
      "start": 6.8044,
      "duration": 0.0014,
      "velocity": 111,
      "chip": "ym2612"
    },
    {
      "channel": 4,
      "note": 38,
      "start": 6.8698,
      "duration": 0.0269,
      "velocity": 105,
      "chip": "ym2612"
    },
    {
      "channel": 0,
      "note": 79,
      "start": 6.9545,
      "duration": 0.0626,
      "velocity": 93,
      "chip": "ym2612"
    },
    {
      "channel": 3,
      "note": 77,
      "start": 6.9574,
      "duration": 0.0432,
      "velocity": 111,
      "chip": "ym2612"
    },
    {
      "channel": 4,
      "note": 38,
      "start": 6.9704,
      "duration": 0.0801,
      "velocity": 105,
      "chip": "ym2612"
    },
    {
      "channel": 3,
      "note": 75,
      "start": 7.0879,
      "duration": 0.0293,
      "velocity": 111,
      "chip": "ym2612"
    },
    {
      "channel": 1,
      "note": 36,
      "start": 7.2039,
      "duration": 0.0634,
      "velocity": 113,
      "chip": "ym2612"
    },
    {
      "channel": 0,
      "note": 79,
      "start": 7.2065,
      "duration": 0.0606,
      "velocity": 93,
      "chip": "ym2612"
    },
    {
      "channel": 4,
      "note": 38,
      "start": 7.2203,
      "duration": 0.0802,
      "velocity": 105,
      "chip": "ym2612"
    },
    {
      "channel": 0,
      "note": 81,
      "start": 7.3203,
      "duration": 0.0634,
      "velocity": 93,
      "chip": "ym2612"
    },
    {
      "channel": 3,
      "note": 77,
      "start": 7.4541,
      "duration": 0.0298,
      "velocity": 111,
      "chip": "ym2612"
    },
    {
      "channel": 4,
      "note": 38,
      "start": 7.4705,
      "duration": 0.18,
      "velocity": 105,
      "chip": "ym2612"
    },
    {
      "channel": 2,
      "note": 55,
      "start": 7.5708,
      "duration": 0.0132,
      "velocity": 104,
      "chip": "ym2612"
    },
    {
      "channel": 0,
      "note": 81,
      "start": 7.5735,
      "duration": 0.0602,
      "velocity": 93,
      "chip": "ym2612"
    },
    {
      "channel": 3,
      "note": 75,
      "start": 7.5762,
      "duration": 0.0243,
      "velocity": 111,
      "chip": "ym2612"
    },
    {
      "channel": 2,
      "note": 55,
      "start": 7.6904,
      "duration": 0.0225,
      "velocity": 104,
      "chip": "ym2612"
    },
    {
      "channel": 4,
      "note": 40,
      "start": 7.7037,
      "duration": 0.0334,
      "velocity": 105,
      "chip": "ym2612"
    },
    {
      "channel": 2,
      "note": 55,
      "start": 7.7412,
      "duration": 0.003,
      "velocity": 104,
      "chip": "ym2612"
    },
    {
      "channel": 2,
      "note": 55,
      "start": 7.7989,
      "duration": 0.0463,
      "velocity": 104,
      "chip": "ym2612"
    },
    {
      "channel": 3,
      "note": 77,
      "start": 7.8018,
      "duration": 0.0433,
      "velocity": 111,
      "chip": "ym2612"
    },
    {
      "channel": 4,
      "note": 40,
      "start": 7.8151,
      "duration": 0.1467,
      "velocity": 105,
      "chip": "ym2612"
    },
    {
      "channel": 2,
      "note": 55,
      "start": 7.9153,
      "duration": 0.2299,
      "velocity": 104,
      "chip": "ym2612"
    },
    {
      "channel": 1,
      "note": 36,
      "start": 8.0481,
      "duration": 0.0469,
      "velocity": 113,
      "chip": "ym2612"
    },
    {
      "channel": 4,
      "note": 41,
      "start": 8.0649,
      "duration": 0.0969,
      "velocity": 105,
      "chip": "ym2612"
    },
    {
      "channel": 1,
      "note": 36,
      "start": 8.2848,
      "duration": 0.0288,
      "velocity": 113,
      "chip": "ym2612"
    },
    {
      "channel": 2,
      "note": 57,
      "start": 8.2876,
      "duration": 0.0338,
      "velocity": 104,
      "chip": "ym2612"
    },
    {
      "channel": 3,
      "note": 77,
      "start": 8.29,
      "duration": 0.0164,
      "velocity": 111,
      "chip": "ym2612"
    },
    {
      "channel": 4,
      "note": 41,
      "start": 8.3014,
      "duration": 0.1033,
      "velocity": 105,
      "chip": "ym2612"
    },
    {
      "channel": 2,
      "note": 57,
      "start": 8.4018,
      "duration": 0.0171,
      "velocity": 104,
      "chip": "ym2612"
    },
    {
      "channel": 4,
      "note": 43,
      "start": 8.4085,
      "duration": 0.0394,
      "velocity": 105,
      "chip": "ym2612"
    },
    {
      "channel": 2,
      "note": 57,
      "start": 8.5088,
      "duration": 0.0132,
      "velocity": 104,
      "chip": "ym2612"
    },
    {
      "channel": 3,
      "note": 77,
      "start": 8.5116,
      "duration": 0.0271,
      "velocity": 111,
      "chip": "ym2612"
    },
    {
      "channel": 4,
      "note": 43,
      "start": 8.5253,
      "duration": 0.1633,
      "velocity": 105,
      "chip": "ym2612"
    },
    {
      "channel": 2,
      "note": 57,
      "start": 8.6254,
      "duration": 0.0634,
      "velocity": 104,
      "chip": "ym2612"
    },
    {
      "channel": 3,
      "note": 75,
      "start": 8.6282,
      "duration": 0.0437,
      "velocity": 111,
      "chip": "ym2612"
    },
    {
      "channel": 1,
      "note": 36,
      "start": 8.7587,
      "duration": 0.0466,
      "velocity": 113,
      "chip": "ym2612"
    },
    {
      "channel": 2,
      "note": 67,
      "start": 8.7619,
      "duration": 0.0104,
      "velocity": 104,
      "chip": "ym2612"
    },
    {
      "channel": 0,
      "note": 79,
      "start": 8.7643,
      "duration": 0.0408,
      "velocity": 93,
      "chip": "ym2612"
    },
    {
      "channel": 5,
      "note": 33,
      "start": 8.7676,
      "duration": 0.2225,
      "velocity": 93,
      "chip": "ym2612"
    },
    {
      "channel": 3,
      "note": 67,
      "start": 8.7706,
      "duration": 0.0179,
      "velocity": 98,
      "chip": "ym2612"
    },
    {
      "channel": 4,
      "note": 33,
      "start": 8.7755,
      "duration": 0.0965,
      "velocity": 105,
      "chip": "ym2612"
    },
    {
      "channel": 2,
      "note": 60,
      "start": 8.8756,
      "duration": 0.0631,
      "velocity": 104,
      "chip": "ym2612"
    },
    {
      "channel": 3,
      "note": 67,
      "start": 8.8784,
      "duration": 0.027,
      "velocity": 104,
      "chip": "ym2612"
    },
    {
      "channel": 0,
      "note": 79,
      "start": 8.8809,
      "duration": 0.0242,
      "velocity": 93,
      "chip": "ym2612"
    },
    {
      "channel": 1,
      "note": 67,
      "start": 8.8839,
      "duration": 0.0214,
      "velocity": 98,
      "chip": "ym2612"
    },
    {
      "channel": 0,
      "note": 79,
      "start": 8.9958,
      "duration": 0.0251,
      "velocity": 93,
      "chip": "ym2612"
    },
    {
      "channel": 4,
      "note": 77,
      "start": 8.9983,
      "duration": 0.0157,
      "velocity": 111,
      "chip": "ym2612"
    },
    {
      "channel": 1,
      "note": 67,
      "start": 9.0006,
      "duration": 0.0134,
      "velocity": 98,
      "chip": "ym2612"
    },
    {
      "channel": 3,
      "note": 33,
      "start": 9.0059,
      "duration": 0.0623,
      "velocity": 105,
      "chip": "ym2612"
    },
    {
      "channel": 2,
      "note": 67,
      "start": 9.0523,
      "duration": 0.0814,
      "velocity": 104,
      "chip": "ym2612"
    },
    {
      "channel": 1,
      "note": 60,
      "start": 9.0549,
      "duration": 0.0843,
      "velocity": 104,
      "chip": "ym2612"
    },
    {
      "channel": 0,
      "note": 79,
      "start": 9.0571,
      "duration": 0.011,
      "velocity": 93,
      "chip": "ym2612"
    },
    {
      "channel": 4,
      "note": 67,
      "start": 9.0598,
      "duration": 0.0046,
      "velocity": 98,
      "chip": "ym2612"
    },
    {
      "channel": 0,
      "note": 79,
      "start": 9.0993,
      "duration": 0.0217,
      "velocity": 93,
      "chip": "ym2612"
    },
    {
      "channel": 4,
      "note": 67,
      "start": 9.1025,
      "duration": 0.0073,
      "velocity": 98,
      "chip": "ym2612"
    },
    {
      "channel": 3,
      "note": 45,
      "start": 9.1079,
      "duration": 0.0617,
      "velocity": 105,
      "chip": "ym2612"
    },
    {
      "channel": 0,
      "note": 79,
      "start": 9.2026,
      "duration": 0.0466,
      "velocity": 93,
      "chip": "ym2612"
    },
    {
      "channel": 4,
      "note": 33,
      "start": 9.2057,
      "duration": 0.7447,
      "velocity": 93,
      "chip": "ym2612"
    },
    {
      "channel": 2,
      "note": 77,
      "start": 9.2085,
      "duration": 0.0077,
      "velocity": 111,
      "chip": "ym2612"
    },
    {
      "channel": 3,
      "note": 33,
      "start": 9.2194,
      "duration": 0.0798,
      "velocity": 105,
      "chip": "ym2612"
    },
    {
      "channel": 1,
      "note": 67,
      "start": 9.3193,
      "duration": 0.3466,
      "velocity": 104,
      "chip": "ym2612"
    },
    {
      "channel": 5,
      "note": 60,
      "start": 9.3224,
      "duration": 0.3438,
      "velocity": 104,
      "chip": "ym2612"
    },
    {
      "channel": 2,
      "note": 67,
      "start": 9.3259,
      "duration": 0.0237,
      "velocity": 98,
      "chip": "ym2612"
    },
    {
      "channel": 0,
      "note": 36,
      "start": 9.436,
      "duration": 0.0632,
      "velocity": 113,
      "chip": "ym2612"
    },
    {
      "channel": 3,
      "note": 33,
      "start": 9.4693,
      "duration": 0.0468,
      "velocity": 105,
      "chip": "ym2612"
    },
    {
      "channel": 0,
      "note": 36,
      "start": 9.6858,
      "duration": 0.0635,
      "velocity": 113,
      "chip": "ym2612"
    },
    {
      "channel": 1,
      "note": 57,
      "start": 9.6884,
      "duration": 0.0774,
      "velocity": 104,
      "chip": "ym2612"
    },
    {
      "channel": 2,
      "note": 77,
      "start": 9.6917,
      "duration": 0.0078,
      "velocity": 111,
      "chip": "ym2612"
    },
    {
      "channel": 3,
      "note": 33,
      "start": 9.7027,
      "duration": 0.2299,
      "velocity": 105,
      "chip": "ym2612"
    },
    {
      "channel": 2,
      "note": 81,
      "start": 9.9395,
      "duration": 0.0174,
      "velocity": 93,
      "chip": "ym2612"
    },
    {
      "channel": 3,
      "note": 45,
      "start": 9.947,
      "duration": 0.0691,
      "velocity": 105,
      "chip": "ym2612"
    },
    {
      "channel": 2,
      "note": 84,
      "start": 10.0316,
      "duration": 0.0632,
      "velocity": 93,
      "chip": "ym2612"
    },
    {
      "channel": 0,
      "note": 77,
      "start": 10.0347,
      "duration": 0.0433,
      "velocity": 111,
      "chip": "ym2612"
    },
    {
      "channel": 3,
      "note": 39,
      "start": 10.0647,
      "duration": 0.08,
      "velocity": 105,
      "chip": "ym2612"
    },
    {
      "channel": 2,
      "note": 81,
      "start": 10.1651,
      "duration": 0.0464,
      "velocity": 93,
      "chip": "ym2612"
    },
    {
      "channel": 0,
      "note": 75,
      "start": 10.1677,
      "duration": 0.027,
      "velocity": 111,
      "chip": "ym2612"
    },
    {
      "channel": 3,
      "note": 45,
      "start": 10.1813,
      "duration": 0.0634,
      "velocity": 105,
      "chip": "ym2612"
    },
    {
      "channel": 1,
      "note": 36,
      "start": 10.2814,
      "duration": 0.0632,
      "velocity": 113,
      "chip": "ym2612"
    },
    {
      "channel": 3,
      "note": 33,
      "start": 10.2985,
      "duration": 0.0962,
      "velocity": 105,
      "chip": "ym2612"
    },
    {
      "channel": 0,
      "note": 77,
      "start": 10.5349,
      "duration": 0.0123,
      "velocity": 111,
      "chip": "ym2612"
    },
    {
      "channel": 3,
      "note": 33,
      "start": 10.5428,
      "duration": 0.0859,
      "velocity": 105,
      "chip": "ym2612"
    },
    {
      "channel": 4,
      "note": 57,
      "start": 10.5905,
      "duration": 0.0243,
      "velocity": 104,
      "chip": "ym2612"
    },
    {
      "channel": 4,
      "note": 60,
      "start": 10.6488,
      "duration": 0.0239,
      "velocity": 104,
      "chip": "ym2612"
    },
    {
      "channel": 2,
      "note": 67,
      "start": 10.6515,
      "duration": 0.0083,
      "velocity": 104,
      "chip": "ym2612"
    },
    {
      "channel": 3,
      "note": 45,
      "start": 10.6571,
      "duration": 0.0458,
      "velocity": 105,
      "chip": "ym2612"
    },
    {
      "channel": 4,
      "note": 62,
      "start": 10.6933,
      "duration": 0.0277,
      "velocity": 104,
      "chip": "ym2612"
    },
    {
      "channel": 3,
      "note": 33,
      "start": 10.7552,
      "duration": 0.0802,
      "velocity": 105,
      "chip": "ym2612"
    },
    {
      "channel": 4,
      "note": 57,
      "start": 10.8722,
      "duration": 0.0964,
      "velocity": 104,
      "chip": "ym2612"
    },
    {
      "channel": 1,
      "note": 36,
      "start": 10.9885,
      "duration": 0.0634,
      "velocity": 113,
      "chip": "ym2612"
    },
    {
      "channel": 3,
      "note": 33,
      "start": 11.0052,
      "duration": 0.0635,
      "velocity": 105,
      "chip": "ym2612"
    },
    {
      "channel": 1,
      "note": 36,
      "start": 11.242,
      "duration": 0.0179,
      "velocity": 113,
      "chip": "ym2612"
    },
    {
      "channel": 0,
      "note": 77,
      "start": 11.2446,
      "duration": 0.0093,
      "velocity": 111,
      "chip": "ym2612"
    },
    {
      "channel": 3,
      "note": 33,
      "start": 11.2506,
      "duration": 0.0675,
      "velocity": 105,
      "chip": "ym2612"
    },
    {
      "channel": 0,
      "note": 75,
      "start": 11.2922,
      "duration": 0.0067,
      "velocity": 111,
      "chip": "ym2612"
    },
    {
      "channel": 3,
      "note": 39,
      "start": 11.3486,
      "duration": 0.021,
      "velocity": 105,
      "chip": "ym2612"
    },
    {
      "channel": 3,
      "note": 40,
      "start": 11.3912,
      "duration": 0.0644,
      "velocity": 105,
      "chip": "ym2612"
    },
    {
      "channel": 0,
      "note": 77,
      "start": 11.4423,
      "duration": 0.0298,
      "velocity": 111,
      "chip": "ym2612"
    },
    {
      "channel": 3,
      "note": 39,
      "start": 11.4592,
      "duration": 0.0797,
      "velocity": 105,
      "chip": "ym2612"
    },
    {
      "channel": 4,
      "note": 57,
      "start": 11.5589,
      "duration": 0.0634,
      "velocity": 104,
      "chip": "ym2612"
    },
    {
      "channel": 0,
      "note": 75,
      "start": 11.5617,
      "duration": 0.0438,
      "velocity": 111,
      "chip": "ym2612"
    },
    {
      "channel": 3,
      "note": 40,
      "start": 11.5922,
      "duration": 0.03,
      "velocity": 105,
      "chip": "ym2612"
    },
    {
      "channel": 1,
      "note": 36,
      "start": 11.6946,
      "duration": 0.0441,
      "velocity": 113,
      "chip": "ym2612"
    },
    {
      "channel": 4,
      "note": 60,
      "start": 11.6974,
      "duration": 0.0129,
      "velocity": 104,
      "chip": "ym2612"
    },
    {
      "channel": 2,
      "note": 67,
      "start": 11.7001,
      "duration": 0.0104,
      "velocity": 104,
      "chip": "ym2612"
    },
    {
      "channel": 5,
      "note": 79,
      "start": 11.7029,
      "duration": 0.0361,
      "velocity": 93,
      "chip": "ym2612"
    },
    {
      "channel": 0,
      "note": 33,
      "start": 11.7058,
      "duration": 0.2935,
      "velocity": 93,
      "chip": "ym2612"
    },
    {
      "channel": 3,
      "note": 67,
      "start": 11.7088,
      "duration": 0.0134,
      "velocity": 98,
      "chip": "ym2612"
    },
    {
      "channel": 4,
      "note": 33,
      "start": 11.714,
      "duration": 0.0749,
      "velocity": 105,
      "chip": "ym2612"
    },
    {
      "channel": 2,
      "note": 67,
      "start": 11.8091,
      "duration": 0.0799,
      "velocity": 104,
      "chip": "ym2612"
    },
    {
      "channel": 3,
      "note": 60,
      "start": 11.8123,
      "duration": 0.0599,
      "velocity": 104,
      "chip": "ym2612"
    },
    {
      "channel": 5,
      "note": 79,
      "start": 11.815,
      "duration": 0.0408,
      "velocity": 93,
      "chip": "ym2612"
    },
    {
      "channel": 1,
      "note": 67,
      "start": 11.818,
      "duration": 0.0376,
      "velocity": 98,
      "chip": "ym2612"
    },
    {
      "channel": 4,
      "note": 79,
      "start": 11.9296,
      "duration": 0.0274,
      "velocity": 93,
      "chip": "ym2612"
    },
    {
      "channel": 1,
      "note": 77,
      "start": 11.9324,
      "duration": 0.0174,
      "velocity": 111,
      "chip": "ym2612"
    },
    {
      "channel": 3,
      "note": 67,
      "start": 11.9349,
      "duration": 0.0149,
      "velocity": 98,
      "chip": "ym2612"
    },
    {
      "channel": 2,
      "note": 33,
      "start": 11.9451,
      "duration": 0.0684,
      "velocity": 105,
      "chip": "ym2612"
    },
    {
      "channel": 1,
      "note": 60,
      "start": 11.9936,
      "duration": 0.0197,
      "velocity": 104,
      "chip": "ym2612"
    },
    {
      "channel": 3,
      "note": 67,
      "start": 11.9961,
      "duration": 0.0173,
      "velocity": 104,
      "chip": "ym2612"
    },
    {
      "channel": 4,
      "note": 79,
      "start": 11.9984,
      "duration": 0.015,
      "velocity": 93,
      "chip": "ym2612"
    },
    {
      "channel": 0,
      "note": 67,
      "start": 12.0014,
      "duration": 0.002,
      "velocity": 98,
      "chip": "ym2612"
    },
    {
      "channel": 4,
      "note": 79,
      "start": 12.0502,
      "duration": 0.0217,
      "velocity": 93,
      "chip": "ym2612"
    },
    {
      "channel": 0,
      "note": 67,
      "start": 12.053,
      "duration": 0.0127,
      "velocity": 98,
      "chip": "ym2612"
    },
    {
      "channel": 2,
      "note": 45,
      "start": 12.0582,
      "duration": 0.0517,
      "velocity": 105,
      "chip": "ym2612"
    },
    {
      "channel": 1,
      "note": 67,
      "start": 12.0927,
      "duration": 0.0168,
      "velocity": 104,
      "chip": "ym2612"
    },
    {
      "channel": 3,
      "note": 60,
      "start": 12.095,
      "duration": 0.0147,
      "velocity": 104,
      "chip": "ym2612"
    },
    {
      "channel": 1,
      "note": 57,
      "start": 12.1531,
      "duration": 0.0302,
      "velocity": 104,
      "chip": "ym2612"
    },
    {
      "channel": 4,
      "note": 79,
      "start": 12.1557,
      "duration": 0.061,
      "velocity": 93,
      "chip": "ym2612"
    },
    {
      "channel": 0,
      "note": 45,
      "start": 12.1588,
      "duration": 0.8078,
      "velocity": 93,
      "chip": "ym2612"
    },
    {
      "channel": 2,
      "note": 33,
      "start": 12.1701,
      "duration": 0.08,
      "velocity": 105,
      "chip": "ym2612"
    },
    {
      "channel": 1,
      "note": 60,
      "start": 12.27,
      "duration": 0.2799,
      "velocity": 104,
      "chip": "ym2612"
    },
    {
      "channel": 3,
      "note": 67,
      "start": 12.273,
      "duration": 0.2437,
      "velocity": 104,
      "chip": "ym2612"
    },
    {
      "channel": 5,
      "note": 67,
      "start": 12.2768,
      "duration": 0.04,
      "velocity": 98,
      "chip": "ym2612"
    },
    {
      "channel": 4,
      "note": 36,
      "start": 12.4034,
      "duration": 0.0467,
      "velocity": 113,
      "chip": "ym2612"
    },
    {
      "channel": 2,
      "note": 33,
      "start": 12.42,
      "duration": 0.0802,
      "velocity": 105,
      "chip": "ym2612"
    },
    {
      "channel": 4,
      "note": 36,
      "start": 12.6365,
      "duration": 0.0636,
      "velocity": 113,
      "chip": "ym2612"
    },
    {
      "channel": 1,
      "note": 57,
      "start": 12.6392,
      "duration": 0.0607,
      "velocity": 104,
      "chip": "ym2612"
    },
    {
      "channel": 5,
      "note": 77,
      "start": 12.6423,
      "duration": 0.0412,
      "velocity": 111,
      "chip": "ym2612"
    },
    {
      "channel": 2,
      "note": 33,
      "start": 12.6534,
      "duration": 0.18,
      "velocity": 105,
      "chip": "ym2612"
    },
    {
      "channel": 5,
      "note": 75,
      "start": 12.7706,
      "duration": 0.0128,
      "velocity": 111,
      "chip": "ym2612"
    },
    {
      "channel": 1,
      "note": 57,
      "start": 12.8899,
      "duration": 0.0407,
      "velocity": 104,
      "chip": "ym2612"
    },
    {
      "channel": 2,
      "note": 45,
      "start": 12.8978,
      "duration": 0.039,
      "velocity": 105,
      "chip": "ym2612"
    },
    {
      "channel": 3,
      "note": 79,
      "start": 12.9987,
      "duration": 0.0464,
      "velocity": 93,
      "chip": "ym2612"
    },
    {
      "channel": 4,
      "note": 77,
      "start": 13.0017,
      "duration": 0.0267,
      "velocity": 111,
      "chip": "ym2612"
    },
    {
      "channel": 2,
      "note": 33,
      "start": 13.0152,
      "duration": 0.08,
      "velocity": 105,
      "chip": "ym2612"
    },
    {
      "channel": 4,
      "note": 75,
      "start": 13.1154,
      "duration": 0.0297,
      "velocity": 111,
      "chip": "ym2612"
    },
    {
      "channel": 1,
      "note": 36,
      "start": 13.2318,
      "duration": 0.0632,
      "velocity": 113,
      "chip": "ym2612"
    },
    {
      "channel": 3,
      "note": 79,
      "start": 13.2346,
      "duration": 0.0606,
      "velocity": 93,
      "chip": "ym2612"
    },
    {
      "channel": 2,
      "note": 33,
      "start": 13.2651,
      "duration": 0.0634,
      "velocity": 105,
      "chip": "ym2612"
    },
    {
      "channel": 3,
      "note": 81,
      "start": 13.3651,
      "duration": 0.0468,
      "velocity": 93,
      "chip": "ym2612"
    },
    {
      "channel": 0,
      "note": 55,
      "start": 13.4855,
      "duration": 0.0137,
      "velocity": 104,
      "chip": "ym2612"
    },
    {
      "channel": 4,
      "note": 77,
      "start": 13.488,
      "duration": 0.0113,
      "velocity": 111,
      "chip": "ym2612"
    },
    {
      "channel": 2,
      "note": 33,
      "start": 13.4945,
      "duration": 0.0413,
      "velocity": 105,
      "chip": "ym2612"
    },
    {
      "channel": 0,
      "note": 55,
      "start": 13.5424,
      "duration": 0.0171,
      "velocity": 104,
      "chip": "ym2612"
    },
    {
      "channel": 3,
      "note": 81,
      "start": 13.5448,
      "duration": 0.0223,
      "velocity": 93,
      "chip": "ym2612"
    },
    {
      "channel": 0,
      "note": 55,
      "start": 13.6039,
      "duration": 0.0154,
      "velocity": 104,
      "chip": "ym2612"
    },
    {
      "channel": 2,
      "note": 45,
      "start": 13.6105,
      "duration": 0.0516,
      "velocity": 105,
      "chip": "ym2612"
    },
    {
      "channel": 0,
      "note": 55,
      "start": 13.6466,
      "duration": 0.0036,
      "velocity": 104,
      "chip": "ym2612"
    },
    {
      "channel": 2,
      "note": 33,
      "start": 13.7254,
      "duration": 0.0466,
      "velocity": 105,
      "chip": "ym2612"
    },
    {
      "channel": 0,
      "note": 55,
      "start": 13.8253,
      "duration": 0.2299,
      "velocity": 104,
      "chip": "ym2612"
    },
    {
      "channel": 1,
      "note": 36,
      "start": 13.9417,
      "duration": 0.0635,
      "velocity": 113,
      "chip": "ym2612"
    },
    {
      "channel": 2,
      "note": 33,
      "start": 13.9585,
      "duration": 0.0636,
      "velocity": 105,
      "chip": "ym2612"
    },
    {
      "channel": 1,
      "note": 36,
      "start": 14.1918,
      "duration": 0.0468,
      "velocity": 113,
      "chip": "ym2612"
    },
    {
      "channel": 0,
      "note": 57,
      "start": 14.1944,
      "duration": 0.0775,
      "velocity": 104,
      "chip": "ym2612"
    },
    {
      "channel": 4,
      "note": 77,
      "start": 14.1973,
      "duration": 0.0247,
      "velocity": 111,
      "chip": "ym2612"
    },
    {
      "channel": 2,
      "note": 33,
      "start": 14.2086,
      "duration": 0.24,
      "velocity": 105,
      "chip": "ym2612"
    },
    {
      "channel": 4,
      "note": 75,
      "start": 14.3093,
      "duration": 0.0461,
      "velocity": 111,
      "chip": "ym2612"
    },
    {
      "channel": 0,
      "note": 57,
      "start": 14.4449,
      "duration": 0.0347,
      "velocity": 104,
      "chip": "ym2612"
    },
    {
      "channel": 2,
      "note": 45,
      "start": 14.4527,
      "duration": 0.0629,
      "velocity": 105,
      "chip": "ym2612"
    },
    {
      "channel": 0,
      "note": 57,
      "start": 14.5366,
      "duration": 0.0466,
      "velocity": 104,
      "chip": "ym2612"
    },
    {
      "channel": 4,
      "note": 77,
      "start": 14.5395,
      "duration": 0.0439,
      "velocity": 111,
      "chip": "ym2612"
    },
    {
      "channel": 2,
      "note": 33,
      "start": 14.5539,
      "duration": 0.1128,
      "velocity": 105,
      "chip": "ym2612"
    },
    {
      "channel": 0,
      "note": 57,
      "start": 14.6699,
      "duration": 0.0466,
      "velocity": 104,
      "chip": "ym2612"
    },
    {
      "channel": 4,
      "note": 75,
      "start": 14.6728,
      "duration": 0.0271,
      "velocity": 111,
      "chip": "ym2612"
    },
    {
      "channel": 2,
      "note": 45,
      "start": 14.6867,
      "duration": 0.1166,
      "velocity": 105,
      "chip": "ym2612"
    },
    {
      "channel": 1,
      "note": 36,
      "start": 14.7867,
      "duration": 0.0632,
      "velocity": 113,
      "chip": "ym2612"
    },
    {
      "channel": 0,
      "note": 67,
      "start": 14.7897,
      "duration": 0.0099,
      "velocity": 104,
      "chip": "ym2612"
    },
    {
      "channel": 3,
      "note": 60,
      "start": 14.7925,
      "duration": 0.0105,
      "velocity": 104,
      "chip": "ym2612"
    },
    {
      "channel": 5,
      "note": 79,
      "start": 14.7956,
      "duration": 0.0545,
      "velocity": 93,
      "chip": "ym2612"
    },
    {
      "channel": 4,
      "note": 41,
      "start": 14.7986,
      "duration": 0.3324,
      "velocity": 93,
      "chip": "ym2612"
    },
    {
      "channel": 0,
      "note": 67,
      "start": 14.8016,
      "duration": 0.0149,
      "velocity": 98,
      "chip": "ym2612"
    },
    {
      "channel": 2,
      "note": 41,
      "start": 14.8068,
      "duration": 0.0765,
      "velocity": 105,
      "chip": "ym2612"
    },
    {
      "channel": 3,
      "note": 67,
      "start": 14.9033,
      "duration": 0.0632,
      "velocity": 104,
      "chip": "ym2612"
    },
    {
      "channel": 0,
      "note": 60,
      "start": 14.9061,
      "duration": 0.0436,
      "velocity": 104,
      "chip": "ym2612"
    },
    {
      "channel": 5,
      "note": 79,
      "start": 14.9088,
      "duration": 0.0413,
      "velocity": 93,
      "chip": "ym2612"
    },
    {
      "channel": 1,
      "note": 67,
      "start": 14.9118,
      "duration": 0.0381,
      "velocity": 98,
      "chip": "ym2612"
    },
    {
      "channel": 2,
      "note": 79,
      "start": 15.0404,
      "duration": 0.0173,
      "velocity": 93,
      "chip": "ym2612"
    },
    {
      "channel": 1,
      "note": 67,
      "start": 15.0429,
      "duration": 0.0088,
      "velocity": 98,
      "chip": "ym2612"
    },
    {
      "channel": 0,
      "note": 41,
      "start": 15.0485,
      "duration": 0.027,
      "velocity": 105,
      "chip": "ym2612"
    },
    {
      "channel": 3,
      "note": 60,
      "start": 15.0898,
      "duration": 0.0121,
      "velocity": 104,
      "chip": "ym2612"
    },
    {
      "channel": 1,
      "note": 67,
      "start": 15.0924,
      "duration": 0.0095,
      "velocity": 104,
      "chip": "ym2612"
    },
    {
      "channel": 2,
      "note": 79,
      "start": 15.0949,
      "duration": 0.0183,
      "velocity": 93,
      "chip": "ym2612"
    },
    {
      "channel": 0,
      "note": 67,
      "start": 15.0975,
      "duration": 0.0042,
      "velocity": 98,
      "chip": "ym2612"
    },
    {
      "channel": 1,
      "note": 57,
      "start": 15.1376,
      "duration": 0.0121,
      "velocity": 104,
      "chip": "ym2612"
    },
    {
      "channel": 2,
      "note": 79,
      "start": 15.1402,
      "duration": 0.0219,
      "velocity": 93,
      "chip": "ym2612"
    },
    {
      "channel": 0,
      "note": 77,
      "start": 15.143,
      "duration": 0.0131,
      "velocity": 111,
      "chip": "ym2612"
    },
    {
      "channel": 3,
      "note": 67,
      "start": 15.1457,
      "duration": 0.0106,
      "velocity": 98,
      "chip": "ym2612"
    },
    {
      "channel": 4,
      "note": 41,
      "start": 15.1528,
      "duration": 0.0331,
      "velocity": 105,
      "chip": "ym2612"
    },
    {
      "channel": 1,
      "note": 60,
      "start": 15.189,
      "duration": 0.0164,
      "velocity": 104,
      "chip": "ym2612"
    },
    {
      "channel": 0,
      "note": 67,
      "start": 15.1916,
      "duration": 0.0078,
      "velocity": 104,
      "chip": "ym2612"
    },
    {
      "channel": 0,
      "note": 57,
      "start": 15.2426,
      "duration": 0.0634,
      "velocity": 104,
      "chip": "ym2612"
    },
    {
      "channel": 2,
      "note": 79,
      "start": 15.2454,
      "duration": 0.061,
      "velocity": 93,
      "chip": "ym2612"
    },
    {
      "channel": 3,
      "note": 41,
      "start": 15.2488,
      "duration": 0.76,
      "velocity": 93,
      "chip": "ym2612"
    },
    {
      "channel": 4,
      "note": 41,
      "start": 15.2594,
      "duration": 0.08,
      "velocity": 105,
      "chip": "ym2612"
    },
    {
      "channel": 0,
      "note": 60,
      "start": 15.3594,
      "duration": 0.2966,
      "velocity": 104,
      "chip": "ym2612"
    },
    {
      "channel": 1,
      "note": 67,
      "start": 15.3618,
      "duration": 0.2943,
      "velocity": 104,
      "chip": "ym2612"
    },
    {
      "channel": 5,
      "note": 67,
      "start": 15.3652,
      "duration": 0.0409,
      "velocity": 98,
      "chip": "ym2612"
    },
    {
      "channel": 2,
      "note": 36,
      "start": 15.4927,
      "duration": 0.0468,
      "velocity": 113,
      "chip": "ym2612"
    },
    {
      "channel": 4,
      "note": 41,
      "start": 15.5093,
      "duration": 0.0801,
      "velocity": 105,
      "chip": "ym2612"
    },
    {
      "channel": 2,
      "note": 36,
      "start": 15.7261,
      "duration": 0.0636,
      "velocity": 113,
      "chip": "ym2612"
    },
    {
      "channel": 0,
      "note": 62,
      "start": 15.7288,
      "duration": 0.0772,
      "velocity": 104,
      "chip": "ym2612"
    },
    {
      "channel": 4,
      "note": 41,
      "start": 15.7593,
      "duration": 0.0802,
      "velocity": 105,
      "chip": "ym2612"
    },
    {
      "channel": 0,
      "note": 57,
      "start": 15.9796,
      "duration": 0.0412,
      "velocity": 104,
      "chip": "ym2612"
    },
    {
      "channel": 1,
      "note": 81,
      "start": 15.9822,
      "duration": 0.0209,
      "velocity": 93,
      "chip": "ym2612"
    },
    {
      "channel": 4,
      "note": 41,
      "start": 15.9881,
      "duration": 0.045,
      "velocity": 105,
      "chip": "ym2612"
    },
    {
      "channel": 1,
      "note": 84,
      "start": 16.0879,
      "duration": 0.0466,
      "velocity": 93,
      "chip": "ym2612"
    },
    {
      "channel": 2,
      "note": 77,
      "start": 16.0909,
      "duration": 0.0272,
      "velocity": 111,
      "chip": "ym2612"
    },
    {
      "channel": 4,
      "note": 39,
      "start": 16.1046,
      "duration": 0.08,
      "velocity": 105,
      "chip": "ym2612"
    },
    {
      "channel": 1,
      "note": 81,
      "start": 16.2049,
      "duration": 0.0629,
      "velocity": 93,
      "chip": "ym2612"
    },
    {
      "channel": 2,
      "note": 75,
      "start": 16.2078,
      "duration": 0.0434,
      "velocity": 111,
      "chip": "ym2612"
    },
    {
      "channel": 4,
      "note": 36,
      "start": 16.2212,
      "duration": 0.13,
      "velocity": 105,
      "chip": "ym2612"
    },
    {
      "channel": 3,
      "note": 36,
      "start": 16.3212,
      "duration": 0.0634,
      "velocity": 113,
      "chip": "ym2612"
    },
    {
      "channel": 4,
      "note": 41,
      "start": 16.3547,
      "duration": 0.0798,
      "velocity": 105,
      "chip": "ym2612"
    },
    {
      "channel": 2,
      "note": 77,
      "start": 16.5751,
      "duration": 0.0185,
      "velocity": 111,
      "chip": "ym2612"
    },
    {
      "channel": 4,
      "note": 41,
      "start": 16.5824,
      "duration": 0.0466,
      "velocity": 105,
      "chip": "ym2612"
    },
    {
      "channel": 0,
      "note": 57,
      "start": 16.6871,
      "duration": 0.01,
      "velocity": 104,
      "chip": "ym2612"
    },
    {
      "channel": 4,
      "note": 41,
      "start": 16.6937,
      "duration": 0.0331,
      "velocity": 105,
      "chip": "ym2612"
    },
    {
      "channel": 0,
      "note": 57,
      "start": 16.7295,
      "duration": 0.0159,
      "velocity": 104,
      "chip": "ym2612"
    },
    {
      "channel": 2,
      "note": 77,
      "start": 16.7936,
      "duration": 0.0298,
      "velocity": 111,
      "chip": "ym2612"
    },
    {
      "channel": 4,
      "note": 41,
      "start": 16.8098,
      "duration": 0.0968,
      "velocity": 105,
      "chip": "ym2612"
    },
    {
      "channel": 0,
      "note": 57,
      "start": 16.91,
      "duration": 0.0799,
      "velocity": 104,
      "chip": "ym2612"
    },
    {
      "channel": 3,
      "note": 36,
      "start": 17.0265,
      "duration": 0.0636,
      "velocity": 113,
      "chip": "ym2612"
    },
    {
      "channel": 4,
      "note": 41,
      "start": 17.0597,
      "duration": 0.097,
      "velocity": 105,
      "chip": "ym2612"
    },
    {
      "channel": 3,
      "note": 36,
      "start": 17.2765,
      "duration": 0.0636,
      "velocity": 113,
      "chip": "ym2612"
    },
    {
      "channel": 2,
      "note": 77,
      "start": 17.2795,
      "duration": 0.0273,
      "velocity": 111,
      "chip": "ym2612"
    },
    {
      "channel": 4,
      "note": 41,
      "start": 17.2933,
      "duration": 0.08,
      "velocity": 105,
      "chip": "ym2612"
    },
    {
      "channel": 0,
      "note": 57,
      "start": 17.5298,
      "duration": 0.0105,
      "velocity": 104,
      "chip": "ym2612"
    },
    {
      "channel": 4,
      "note": 41,
      "start": 17.5374,
      "duration": 0.0578,
      "velocity": 105,
      "chip": "ym2612"
    },
    {
      "channel": 0,
      "note": 57,
      "start": 17.5741,
      "duration": 0.0032,
      "velocity": 104,
      "chip": "ym2612"
    },
    {
      "channel": 0,
      "note": 57,
      "start": 17.6255,
      "duration": 0.0271,
      "velocity": 104,
      "chip": "ym2612"
    },
    {
      "channel": 2,
      "note": 77,
      "start": 17.6285,
      "duration": 0.0169,
      "velocity": 111,
      "chip": "ym2612"
    },
    {
      "channel": 4,
      "note": 43,
      "start": 17.6405,
      "duration": 0.0512,
      "velocity": 105,
      "chip": "ym2612"
    },
    {
      "channel": 2,
      "note": 75,
      "start": 17.6893,
      "duration": 0.0119,
      "velocity": 111,
      "chip": "ym2612"
    },
    {
      "channel": 4,
      "note": 45,
      "start": 17.6957,
      "duration": 0.041,
      "velocity": 105,
      "chip": "ym2612"
    },
    {
      "channel": 3,
      "note": 36,
      "start": 17.7417,
      "duration": 0.0302,
      "velocity": 113,
      "chip": "ym2612"
    },
    {
      "channel": 0,
      "note": 60,
      "start": 17.744,
      "duration": 0.01,
      "velocity": 104,
      "chip": "ym2612"
    },
    {
      "channel": 1,
      "note": 67,
      "start": 17.7467,
      "duration": 0.0113,
      "velocity": 104,
      "chip": "ym2612"
    },
    {
      "channel": 2,
      "note": 79,
      "start": 17.7505,
      "duration": 0.0215,
      "velocity": 93,
      "chip": "ym2612"
    },
    {
      "channel": 4,
      "note": 38,
      "start": 17.7531,
      "duration": 0.3953,
      "velocity": 93,
      "chip": "ym2612"
    },
    {
      "channel": 0,
      "note": 67,
      "start": 17.7559,
      "duration": 0.0096,
      "velocity": 98,
      "chip": "ym2612"
    },
    {
      "channel": 1,
      "note": 38,
      "start": 17.7612,
      "duration": 0.0641,
      "velocity": 105,
      "chip": "ym2612"
    },
    {
      "channel": 0,
      "note": 67,
      "start": 17.7974,
      "duration": 0.0061,
      "velocity": 104,
      "chip": "ym2612"
    },
    {
      "channel": 3,
      "note": 60,
      "start": 17.8,
      "duration": 0.0254,
      "velocity": 104,
      "chip": "ym2612"
    },
    {
      "channel": 2,
      "note": 79,
      "start": 17.8027,
      "duration": 0.0155,
      "velocity": 93,
      "chip": "ym2612"
    },
    {
      "channel": 0,
      "note": 67,
      "start": 17.8055,
      "duration": 0.0125,
      "velocity": 98,
      "chip": "ym2612"
    },
    {
      "channel": 2,
      "note": 79,
      "start": 17.8929,
      "duration": 0.0302,
      "velocity": 93,
      "chip": "ym2612"
    },
    {
      "channel": 0,
      "note": 77,
      "start": 17.8959,
      "duration": 0.0268,
      "velocity": 111,
      "chip": "ym2612"
    },
    {
      "channel": 1,
      "note": 67,
      "start": 17.8986,
      "duration": 0.0242,
      "velocity": 98,
      "chip": "ym2612"
    },
    {
      "channel": 3,
      "note": 38,
      "start": 17.9096,
      "duration": 0.1132,
      "velocity": 105,
      "chip": "ym2612"
    },
    {
      "channel": 5,
      "note": 60,
      "start": 18.0101,
      "duration": 0.0463,
      "velocity": 104,
      "chip": "ym2612"
    },
    {
      "channel": 0,
      "note": 67,
      "start": 18.0128,
      "duration": 0.0432,
      "velocity": 104,
      "chip": "ym2612"
    },
    {
      "channel": 2,
      "note": 79,
      "start": 18.0155,
      "duration": 0.0574,
      "velocity": 93,
      "chip": "ym2612"
    },
    {
      "channel": 1,
      "note": 67,
      "start": 18.0183,
      "duration": 0.0378,
      "velocity": 98,
      "chip": "ym2612"
    },
    {
      "channel": 2,
      "note": 79,
      "start": 18.1298,
      "duration": 0.0238,
      "velocity": 93,
      "chip": "ym2612"
    },
    {
      "channel": 1,
      "note": 67,
      "start": 18.1327,
      "duration": 0.0155,
      "velocity": 98,
      "chip": "ym2612"
    },
    {
      "channel": 3,
      "note": 38,
      "start": 18.144,
      "duration": 0.0411,
      "velocity": 105,
      "chip": "ym2612"
    },
    {
      "channel": 0,
      "note": 60,
      "start": 18.1806,
      "duration": 0.0103,
      "velocity": 104,
      "chip": "ym2612"
    },
    {
      "channel": 1,
      "note": 67,
      "start": 18.1832,
      "duration": 0.0018,
      "velocity": 104,
      "chip": "ym2612"
    },
    {
      "channel": 2,
      "note": 79,
      "start": 18.2377,
      "duration": 0.0632,
      "velocity": 93,
      "chip": "ym2612"
    },
    {
      "channel": 4,
      "note": 38,
      "start": 18.2407,
      "duration": 0.638,
      "velocity": 93,
      "chip": "ym2612"
    },
    {
      "channel": 1,
      "note": 77,
      "start": 18.2434,
      "duration": 0.0408,
      "velocity": 111,
      "chip": "ym2612"
    },
    {
      "channel": 3,
      "note": 38,
      "start": 18.2541,
      "duration": 0.1134,
      "velocity": 105,
      "chip": "ym2612"
    },
    {
      "channel": 0,
      "note": 60,
      "start": 18.3709,
      "duration": 0.2964,
      "velocity": 104,
      "chip": "ym2612"
    },
    {
      "channel": 5,
      "note": 67,
      "start": 18.3737,
      "duration": 0.2772,
      "velocity": 104,
      "chip": "ym2612"
    },
    {
      "channel": 1,
      "note": 67,
      "start": 18.3771,
      "duration": 0.0237,
      "velocity": 98,
      "chip": "ym2612"
    },
    {
      "channel": 2,
      "note": 36,
      "start": 18.4875,
      "duration": 0.0635,
      "velocity": 113,
      "chip": "ym2612"
    },
    {
      "channel": 3,
      "note": 38,
      "start": 18.5045,
      "duration": 0.0797,
      "velocity": 105,
      "chip": "ym2612"
    },
    {
      "channel": 2,
      "note": 36,
      "start": 18.7411,
      "duration": 0.0212,
      "velocity": 113,
      "chip": "ym2612"
    },
    {
      "channel": 0,
      "note": 57,
      "start": 18.7438,
      "duration": 0.0183,
      "velocity": 104,
      "chip": "ym2612"
    },
    {
      "channel": 1,
      "note": 77,
      "start": 18.7464,
      "duration": 0.0095,
      "velocity": 111,
      "chip": "ym2612"
    },
    {
      "channel": 3,
      "note": 38,
      "start": 18.7517,
      "duration": 0.0324,
      "velocity": 105,
      "chip": "ym2612"
    },
    {
      "channel": 0,
      "note": 57,
      "start": 18.851,
      "duration": 0.033,
      "velocity": 104,
      "chip": "ym2612"
    },
    {
      "channel": 3,
      "note": 38,
      "start": 18.8628,
      "duration": 0.0335,
      "velocity": 105,
      "chip": "ym2612"
    },
    {
      "channel": 1,
      "note": 79,
      "start": 18.9549,
      "duration": 0.0631,
      "velocity": 93,
      "chip": "ym2612"
    },
    {
      "channel": 2,
      "note": 77,
      "start": 18.9579,
      "duration": 0.027,
      "velocity": 111,
      "chip": "ym2612"
    },
    {
      "channel": 3,
      "note": 38,
      "start": 18.9713,
      "duration": 0.08,
      "velocity": 105,
      "chip": "ym2612"
    },
    {
      "channel": 2,
      "note": 75,
      "start": 19.0719,
      "duration": 0.0463,
      "velocity": 111,
      "chip": "ym2612"
    },
    {
      "channel": 4,
      "note": 36,
      "start": 19.2047,
      "duration": 0.0469,
      "velocity": 113,
      "chip": "ym2612"
    },
    {
      "channel": 0,
      "note": 55,
      "start": 19.2074,
      "duration": 0.044,
      "velocity": 104,
      "chip": "ym2612"
    },
    {
      "channel": 1,
      "note": 79,
      "start": 19.21,
      "duration": 0.0415,
      "velocity": 93,
      "chip": "ym2612"
    },
    {
      "channel": 3,
      "note": 38,
      "start": 19.2213,
      "duration": 0.0968,
      "velocity": 105,
      "chip": "ym2612"
    },
    {
      "channel": 0,
      "note": 57,
      "start": 19.3216,
      "duration": 0.0797,
      "velocity": 104,
      "chip": "ym2612"
    },
    {
      "channel": 1,
      "note": 81,
      "start": 19.3244,
      "duration": 0.0603,
      "velocity": 93,
      "chip": "ym2612"
    },
    {
      "channel": 2,
      "note": 75,
      "start": 19.3274,
      "duration": 0.0242,
      "velocity": 111,
      "chip": "ym2612"
    },
    {
      "channel": 2,
      "note": 77,
      "start": 19.4385,
      "duration": 0.0464,
      "velocity": 111,
      "chip": "ym2612"
    },
    {
      "channel": 3,
      "note": 38,
      "start": 19.4714,
      "duration": 0.1968,
      "velocity": 105,
      "chip": "ym2612"
    },
    {
      "channel": 0,
      "note": 57,
      "start": 19.5714,
      "duration": 0.0966,
      "velocity": 104,
      "chip": "ym2612"
    },
    {
      "channel": 1,
      "note": 81,
      "start": 19.5741,
      "duration": 0.044,
      "velocity": 93,
      "chip": "ym2612"
    },
    {
      "channel": 2,
      "note": 75,
      "start": 19.5774,
      "duration": 0.0242,
      "velocity": 111,
      "chip": "ym2612"
    },
    {
      "channel": 3,
      "note": 40,
      "start": 19.6975,
      "duration": 0.0335,
      "velocity": 105,
      "chip": "ym2612"
    },
    {
      "channel": 2,
      "note": 77,
      "start": 19.7986,
      "duration": 0.0296,
      "velocity": 111,
      "chip": "ym2612"
    },
    {
      "channel": 3,
      "note": 40,
      "start": 19.8147,
      "duration": 0.1968,
      "velocity": 105,
      "chip": "ym2612"
    },
    {
      "channel": 4,
      "note": 36,
      "start": 20.0313,
      "duration": 0.0636,
      "velocity": 113,
      "chip": "ym2612"
    },
    {
      "channel": 3,
      "note": 41,
      "start": 20.0648,
      "duration": 0.18,
      "velocity": 105,
      "chip": "ym2612"
    },
    {
      "channel": 4,
      "note": 36,
      "start": 20.2846,
      "duration": 0.0282,
      "velocity": 113,
      "chip": "ym2612"
    },
    {
      "channel": 0,
      "note": 55,
      "start": 20.2871,
      "duration": 0.0255,
      "velocity": 104,
      "chip": "ym2612"
    },
    {
      "channel": 2,
      "note": 77,
      "start": 20.2898,
      "duration": 0.0158,
      "velocity": 111,
      "chip": "ym2612"
    },
    {
      "channel": 3,
      "note": 43,
      "start": 20.2956,
      "duration": 0.1275,
      "velocity": 105,
      "chip": "ym2612"
    },
    {
      "channel": 0,
      "note": 55,
      "start": 20.3487,
      "duration": 0.0026,
      "velocity": 104,
      "chip": "ym2612"
    },
    {
      "channel": 0,
      "note": 57,
      "start": 20.4026,
      "duration": 0.0259,
      "velocity": 104,
      "chip": "ym2612"
    },
    {
      "channel": 0,
      "note": 57,
      "start": 20.5061,
      "duration": 0.0466,
      "velocity": 104,
      "chip": "ym2612"
    },
    {
      "channel": 2,
      "note": 77,
      "start": 20.5091,
      "duration": 0.0272,
      "velocity": 111,
      "chip": "ym2612"
    },
    {
      "channel": 3,
      "note": 43,
      "start": 20.5229,
      "duration": 0.2133,
      "velocity": 105,
      "chip": "ym2612"
    },
    {
      "channel": 0,
      "note": 57,
      "start": 20.6225,
      "duration": 0.0637,
      "velocity": 104,
      "chip": "ym2612"
    },
    {
      "channel": 2,
      "note": 75,
      "start": 20.6255,
      "duration": 0.0275,
      "velocity": 111,
      "chip": "ym2612"
    },
    {
      "channel": 4,
      "note": 36,
      "start": 20.7398,
      "duration": 0.063,
      "velocity": 113,
      "chip": "ym2612"
    },
    {
      "channel": 0,
      "note": 60,
      "start": 20.7425,
      "duration": 0.0127,
      "velocity": 104,
      "chip": "ym2612"
    },
    {
      "channel": 1,
      "note": 67,
      "start": 20.7451,
      "duration": 0.0102,
      "velocity": 104,
      "chip": "ym2612"
    },
    {
      "channel": 5,
      "note": 79,
      "start": 20.7479,
      "duration": 0.0551,
      "velocity": 93,
      "chip": "ym2612"
    },
    {
      "channel": 2,
      "note": 45,
      "start": 20.7509,
      "duration": 0.3401,
      "velocity": 93,
      "chip": "ym2612"
    },
    {
      "channel": 3,
      "note": 67,
      "start": 20.7539,
      "duration": 0.0323,
      "velocity": 98,
      "chip": "ym2612"
    },
    {
      "channel": 0,
      "note": 33,
      "start": 20.7589,
      "duration": 0.1106,
      "velocity": 105,
      "chip": "ym2612"
    },
    {
      "channel": 1,
      "note": 60,
      "start": 20.8734,
      "duration": 0.0794,
      "velocity": 104,
      "chip": "ym2612"
    },
    {
      "channel": 3,
      "note": 67,
      "start": 20.8761,
      "duration": 0.0769,
      "velocity": 104,
      "chip": "ym2612"
    },
    {
      "channel": 5,
      "note": 79,
      "start": 20.8786,
      "duration": 0.041,
      "velocity": 93,
      "chip": "ym2612"
    },
    {
      "channel": 4,
      "note": 67,
      "start": 20.8816,
      "duration": 0.0213,
      "velocity": 98,
      "chip": "ym2612"
    },
    {
      "channel": 0,
      "note": 79,
      "start": 20.993,
      "duration": 0.0275,
      "velocity": 93,
      "chip": "ym2612"
    },
    {
      "channel": 4,
      "note": 77,
      "start": 20.9955,
      "duration": 0.0122,
      "velocity": 111,
      "chip": "ym2612"
    },
    {
      "channel": 1,
      "note": 67,
      "start": 20.9981,
      "duration": 0.0095,
      "velocity": 98,
      "chip": "ym2612"
    },
    {
      "channel": 3,
      "note": 33,
      "start": 21.0035,
      "duration": 0.0655,
      "velocity": 105,
      "chip": "ym2612"
    },
    {
      "channel": 1,
      "note": 60,
      "start": 21.0502,
      "duration": 0.0257,
      "velocity": 104,
      "chip": "ym2612"
    },
    {
      "channel": 4,
      "note": 67,
      "start": 21.0528,
      "duration": 0.0163,
      "velocity": 104,
      "chip": "ym2612"
    },
    {
      "channel": 0,
      "note": 79,
      "start": 21.0552,
      "duration": 0.0007,
      "velocity": 93,
      "chip": "ym2612"
    },
    {
      "channel": 0,
      "note": 67,
      "start": 21.058,
      "duration": 0.011,
      "velocity": 98,
      "chip": "ym2612"
    },
    {
      "channel": 0,
      "note": 79,
      "start": 21.1129,
      "duration": 0.0156,
      "velocity": 93,
      "chip": "ym2612"
    },
    {
      "channel": 3,
      "note": 67,
      "start": 21.116,
      "duration": 0.0071,
      "velocity": 98,
      "chip": "ym2612"
    },
    {
      "channel": 4,
      "note": 45,
      "start": 21.1211,
      "duration": 0.0633,
      "velocity": 105,
      "chip": "ym2612"
    },
    {
      "channel": 1,
      "note": 60,
      "start": 21.1556,
      "duration": 0.0109,
      "velocity": 104,
      "chip": "ym2612"
    },
    {
      "channel": 2,
      "note": 67,
      "start": 21.1582,
      "duration": 0.0085,
      "velocity": 104,
      "chip": "ym2612"
    },
    {
      "channel": 1,
      "note": 57,
      "start": 21.1996,
      "duration": 0.0462,
      "velocity": 104,
      "chip": "ym2612"
    },
    {
      "channel": 0,
      "note": 79,
      "start": 21.2022,
      "duration": 0.0603,
      "velocity": 93,
      "chip": "ym2612"
    },
    {
      "channel": 3,
      "note": 45,
      "start": 21.2056,
      "duration": 0.7537,
      "velocity": 93,
      "chip": "ym2612"
    },
    {
      "channel": 2,
      "note": 77,
      "start": 21.2083,
      "duration": 0.0378,
      "velocity": 111,
      "chip": "ym2612"
    },
    {
      "channel": 4,
      "note": 33,
      "start": 21.2325,
      "duration": 0.0634,
      "velocity": 105,
      "chip": "ym2612"
    },
    {
      "channel": 1,
      "note": 60,
      "start": 21.3329,
      "duration": 0.2963,
      "velocity": 104,
      "chip": "ym2612"
    },
    {
      "channel": 5,
      "note": 67,
      "start": 21.3357,
      "duration": 0.277,
      "velocity": 104,
      "chip": "ym2612"
    },
    {
      "channel": 2,
      "note": 67,
      "start": 21.3391,
      "duration": 0.0236,
      "velocity": 98,
      "chip": "ym2612"
    },
    {
      "channel": 0,
      "note": 36,
      "start": 21.4492,
      "duration": 0.0634,
      "velocity": 113,
      "chip": "ym2612"
    },
    {
      "channel": 4,
      "note": 33,
      "start": 21.4659,
      "duration": 0.0634,
      "velocity": 105,
      "chip": "ym2612"
    },
    {
      "channel": 0,
      "note": 36,
      "start": 21.6989,
      "duration": 0.047,
      "velocity": 113,
      "chip": "ym2612"
    },
    {
      "channel": 1,
      "note": 57,
      "start": 21.7016,
      "duration": 0.0776,
      "velocity": 104,
      "chip": "ym2612"
    },
    {
      "channel": 2,
      "note": 77,
      "start": 21.7045,
      "duration": 0.0248,
      "velocity": 111,
      "chip": "ym2612"
    },
    {
      "channel": 4,
      "note": 33,
      "start": 21.7163,
      "duration": 0.213,
      "velocity": 105,
      "chip": "ym2612"
    },
    {
      "channel": 1,
      "note": 57,
      "start": 21.9357,
      "duration": 0.029,
      "velocity": 104,
      "chip": "ym2612"
    },
    {
      "channel": 2,
      "note": 81,
      "start": 21.9383,
      "duration": 0.021,
      "velocity": 93,
      "chip": "ym2612"
    },
    {
      "channel": 4,
      "note": 45,
      "start": 21.95,
      "duration": 0.0626,
      "velocity": 105,
      "chip": "ym2612"
    },
    {
      "channel": 1,
      "note": 57,
      "start": 22.0432,
      "duration": 0.0467,
      "velocity": 104,
      "chip": "ym2612"
    },
    {
      "channel": 2,
      "note": 84,
      "start": 22.0464,
      "duration": 0.0602,
      "velocity": 93,
      "chip": "ym2612"
    },
    {
      "channel": 0,
      "note": 77,
      "start": 22.0493,
      "duration": 0.0405,
      "velocity": 111,
      "chip": "ym2612"
    },
    {
      "channel": 4,
      "note": 33,
      "start": 22.0598,
      "duration": 0.0634,
      "velocity": 105,
      "chip": "ym2612"
    },
    {
      "channel": 1,
      "note": 55,
      "start": 22.1762,
      "duration": 0.0304,
      "velocity": 104,
      "chip": "ym2612"
    },
    {
      "channel": 2,
      "note": 81,
      "start": 22.1791,
      "duration": 0.0442,
      "velocity": 93,
      "chip": "ym2612"
    },
    {
      "channel": 0,
      "note": 75,
      "start": 22.1817,
      "duration": 0.0247,
      "velocity": 111,
      "chip": "ym2612"
    },
    {
      "channel": 3,
      "note": 36,
      "start": 22.2932,
      "duration": 0.0634,
      "velocity": 113,
      "chip": "ym2612"
    },
    {
      "channel": 1,
      "note": 55,
      "start": 22.2956,
      "duration": 0.0276,
      "velocity": 104,
      "chip": "ym2612"
    },
    {
      "channel": 4,
      "note": 33,
      "start": 22.3096,
      "duration": 0.0636,
      "velocity": 105,
      "chip": "ym2612"
    },
    {
      "channel": 1,
      "note": 57,
      "start": 22.4102,
      "duration": 0.0795,
      "velocity": 104,
      "chip": "ym2612"
    },
    {
      "channel": 0,
      "note": 75,
      "start": 22.4134,
      "duration": 0.0431,
      "velocity": 111,
      "chip": "ym2612"
    },
    {
      "channel": 0,
      "note": 77,
      "start": 22.5467,
      "duration": 0.0124,
      "velocity": 111,
      "chip": "ym2612"
    },
    {
      "channel": 4,
      "note": 33,
      "start": 22.5549,
      "duration": 0.0954,
      "velocity": 105,
      "chip": "ym2612"
    },
    {
      "channel": 1,
      "note": 57,
      "start": 22.6031,
      "duration": 0.0328,
      "velocity": 104,
      "chip": "ym2612"
    },
    {
      "channel": 0,
      "note": 75,
      "start": 22.6056,
      "duration": 0.0092,
      "velocity": 111,
      "chip": "ym2612"
    },
    {
      "channel": 4,
      "note": 45,
      "start": 22.6632,
      "duration": 0.0568,
      "velocity": 105,
      "chip": "ym2612"
    },
    {
      "channel": 0,
      "note": 77,
      "start": 22.762,
      "duration": 0.0298,
      "velocity": 111,
      "chip": "ym2612"
    },
    {
      "channel": 4,
      "note": 33,
      "start": 22.7785,
      "duration": 0.0634,
      "velocity": 105,
      "chip": "ym2612"
    },
    {
      "channel": 3,
      "note": 36,
      "start": 23.0117,
      "duration": 0.0468,
      "velocity": 113,
      "chip": "ym2612"
    },
    {
      "channel": 4,
      "note": 33,
      "start": 23.0283,
      "duration": 0.0635,
      "velocity": 105,
      "chip": "ym2612"
    },
    {
      "channel": 3,
      "note": 36,
      "start": 23.2489,
      "duration": 0.028,
      "velocity": 113,
      "chip": "ym2612"
    },
    {
      "channel": 1,
      "note": 57,
      "start": 23.2511,
      "duration": 0.0337,
      "velocity": 104,
      "chip": "ym2612"
    },
    {
      "channel": 0,
      "note": 77,
      "start": 23.2533,
      "duration": 0.016,
      "velocity": 111,
      "chip": "ym2612"
    },
    {
      "channel": 4,
      "note": 33,
      "start": 23.2647,
      "duration": 0.0924,
      "velocity": 105,
      "chip": "ym2612"
    },
    {
      "channel": 1,
      "note": 55,
      "start": 23.3643,
      "duration": 0.0217,
      "velocity": 104,
      "chip": "ym2612"
    },
    {
      "channel": 4,
      "note": 45,
      "start": 23.3714,
      "duration": 0.079,
      "velocity": 105,
      "chip": "ym2612"
    },
    {
      "channel": 1,
      "note": 57,
      "start": 23.407,
      "duration": 0.0866,
      "velocity": 104,
      "chip": "ym2612"
    },
    {
      "channel": 0,
      "note": 77,
      "start": 23.4739,
      "duration": 0.0124,
      "velocity": 111,
      "chip": "ym2612"
    },
    {
      "channel": 4,
      "note": 33,
      "start": 23.4821,
      "duration": 0.0327,
      "velocity": 105,
      "chip": "ym2612"
    },
    {
      "channel": 1,
      "note": 55,
      "start": 23.529,
      "duration": 0.019,
      "velocity": 104,
      "chip": "ym2612"
    },
    {
      "channel": 0,
      "note": 75,
      "start": 23.5317,
      "duration": 0.0164,
      "velocity": 111,
      "chip": "ym2612"
    },
    {
      "channel": 4,
      "note": 45,
      "start": 23.537,
      "duration": 0.0401,
      "velocity": 105,
      "chip": "ym2612"
    },
    {
      "channel": 3,
      "note": 36,
      "start": 23.5837,
      "duration": 0.0273,
      "velocity": 113,
      "chip": "ym2612"
    },
    {
      "channel": 1,
      "note": 38,
      "start": 23.5877,
      "duration": 0.1261,
      "velocity": 104,
      "chip": "ym2612"
    },
    {
      "channel": 2,
      "note": 74,
      "start": 23.5903,
      "duration": 0.0208,
      "velocity": 93,
      "chip": "ym2612"
    },
    {
      "channel": 0,
      "note": 38,
      "start": 23.5931,
      "duration": 0.208,
      "velocity": 93,
      "chip": "ym2612"
    },
    {
      "channel": 4,
      "note": 38,
      "start": 23.6006,
      "duration": 0.047,
      "velocity": 105,
      "chip": "ym2612"
    },
    {
      "channel": 1,
      "note": 50,
      "start": 23.7372,
      "duration": 0.0427,
      "velocity": 104,
      "chip": "ym2612"
    },
    {
      "channel": 3,
      "note": 75,
      "start": 23.74,
      "duration": 0.0159,
      "velocity": 111,
      "chip": "ym2612"
    },
    {
      "channel": 2,
      "note": 77,
      "start": 23.7426,
      "duration": 0.0135,
      "velocity": 111,
      "chip": "ym2612"
    },
    {
      "channel": 4,
      "note": 38,
      "start": 23.748,
      "duration": 0.0771,
      "velocity": 105,
      "chip": "ym2612"
    },
    {
      "channel": 3,
      "note": 75,
      "start": 23.7878,
      "duration": 0.0134,
      "velocity": 111,
      "chip": "ym2612"
    },
    {
      "channel": 1,
      "note": 40,
      "start": 23.8387,
      "duration": 0.0699,
      "velocity": 104,
      "chip": "ym2612"
    },
    {
      "channel": 2,
      "note": 76,
      "start": 23.8412,
      "duration": 0.0197,
      "velocity": 93,
      "chip": "ym2612"
    },
    {
      "channel": 0,
      "note": 40,
      "start": 23.8437,
      "duration": 0.2266,
      "velocity": 93,
      "chip": "ym2612"
    },
    {
      "channel": 4,
      "note": 40,
      "start": 23.849,
      "duration": 0.0359,
      "velocity": 105,
      "chip": "ym2612"
    },
    {
      "channel": 1,
      "note": 52,
      "start": 23.9402,
      "duration": 0.1136,
      "velocity": 104,
      "chip": "ym2612"
    },
    {
      "channel": 3,
      "note": 75,
      "start": 23.9431,
      "duration": 0.0273,
      "velocity": 111,
      "chip": "ym2612"
    },
    {
      "channel": 2,
      "note": 77,
      "start": 23.9458,
      "duration": 0.0248,
      "velocity": 111,
      "chip": "ym2612"
    },
    {
      "channel": 4,
      "note": 40,
      "start": 23.957,
      "duration": 0.1967,
      "velocity": 105,
      "chip": "ym2612"
    },
    {
      "channel": 3,
      "note": 75,
      "start": 24.0575,
      "duration": 0.0296,
      "velocity": 111,
      "chip": "ym2612"
    },
    {
      "channel": 5,
      "note": 36,
      "start": 24.1737,
      "duration": 0.0634,
      "velocity": 113,
      "chip": "ym2612"
    },
    {
      "channel": 1,
      "note": 41,
      "start": 24.1763,
      "duration": 0.1773,
      "velocity": 104,
      "chip": "ym2612"
    },
    {
      "channel": 2,
      "note": 77,
      "start": 24.179,
      "duration": 0.0583,
      "velocity": 93,
      "chip": "ym2612"
    },
    {
      "channel": 0,
      "note": 41,
      "start": 24.1815,
      "duration": 0.3555,
      "velocity": 93,
      "chip": "ym2612"
    },
    {
      "channel": 4,
      "note": 41,
      "start": 24.1907,
      "duration": 0.0798,
      "velocity": 105,
      "chip": "ym2612"
    },
    {
      "channel": 3,
      "note": 75,
      "start": 24.3073,
      "duration": 0.0297,
      "velocity": 111,
      "chip": "ym2612"
    },
    {
      "channel": 5,
      "note": 36,
      "start": 24.4237,
      "duration": 0.0635,
      "velocity": 113,
      "chip": "ym2612"
    },
    {
      "channel": 1,
      "note": 53,
      "start": 24.4263,
      "duration": 0.1939,
      "velocity": 104,
      "chip": "ym2612"
    },
    {
      "channel": 3,
      "note": 77,
      "start": 24.429,
      "duration": 0.0248,
      "velocity": 111,
      "chip": "ym2612"
    },
    {
      "channel": 4,
      "note": 41,
      "start": 24.4403,
      "duration": 0.1968,
      "velocity": 105,
      "chip": "ym2612"
    },
    {
      "channel": 3,
      "note": 75,
      "start": 24.5408,
      "duration": 0.0463,
      "velocity": 111,
      "chip": "ym2612"
    },
    {
      "channel": 1,
      "note": 43,
      "start": 24.6768,
      "duration": 0.0788,
      "velocity": 104,
      "chip": "ym2612"
    },
    {
      "channel": 2,
      "note": 79,
      "start": 24.6792,
      "duration": 0.0162,
      "velocity": 93,
      "chip": "ym2612"
    },
    {
      "channel": 0,
      "note": 43,
      "start": 24.6815,
      "duration": 0.2495,
      "velocity": 93,
      "chip": "ym2612"
    },
    {
      "channel": 4,
      "note": 43,
      "start": 24.6871,
      "duration": 0.0451,
      "velocity": 105,
      "chip": "ym2612"
    },
    {
      "channel": 3,
      "note": 75,
      "start": 24.7225,
      "duration": 0.0096,
      "velocity": 111,
      "chip": "ym2612"
    },
    {
      "channel": 1,
      "note": 55,
      "start": 24.7679,
      "duration": 0.1632,
      "velocity": 104,
      "chip": "ym2612"
    },
    {
      "channel": 3,
      "note": 77,
      "start": 24.7706,
      "duration": 0.044,
      "velocity": 111,
      "chip": "ym2612"
    },
    {
      "channel": 4,
      "note": 43,
      "start": 24.8012,
      "duration": 0.18,
      "velocity": 105,
      "chip": "ym2612"
    },
    {
      "channel": 3,
      "note": 75,
      "start": 24.9018,
      "duration": 0.0295,
      "velocity": 111,
      "chip": "ym2612"
    },
    {
      "channel": 2,
      "note": 36,
      "start": 25.0178,
      "duration": 0.0636,
      "velocity": 113,
      "chip": "ym2612"
    },
    {
      "channel": 5,
      "note": 76,
      "start": 25.0209,
      "duration": 0.0604,
      "velocity": 93,
      "chip": "ym2612"
    },
    {
      "channel": 0,
      "note": 40,
      "start": 25.0237,
      "duration": 0.5098,
      "velocity": 93,
      "chip": "ym2612"
    },
    {
      "channel": 1,
      "note": 62,
      "start": 25.0271,
      "duration": 0.0207,
      "velocity": 98,
      "chip": "ym2612"
    },
    {
      "channel": 4,
      "note": 40,
      "start": 25.0345,
      "duration": 0.0801,
      "velocity": 105,
      "chip": "ym2612"
    },
    {
      "channel": 1,
      "note": 62,
      "start": 25.1348,
      "duration": 0.0463,
      "velocity": 98,
      "chip": "ym2612"
    },
    {
      "channel": 3,
      "note": 77,
      "start": 25.2715,
      "duration": 0.0135,
      "velocity": 111,
      "chip": "ym2612"
    },
    {
      "channel": 1,
      "note": 62,
      "start": 25.2737,
      "duration": 0.0112,
      "velocity": 98,
      "chip": "ym2612"
    },
    {
      "channel": 4,
      "note": 40,
      "start": 25.2803,
      "duration": 0.0411,
      "velocity": 105,
      "chip": "ym2612"
    },
    {
      "channel": 2,
      "note": 52,
      "start": 25.3298,
      "duration": 0.0042,
      "velocity": 104,
      "chip": "ym2612"
    },
    {
      "channel": 1,
      "note": 62,
      "start": 25.3326,
      "duration": 0.0137,
      "velocity": 98,
      "chip": "ym2612"
    },
    {
      "channel": 2,
      "note": 59,
      "start": 25.3834,
      "duration": 0.01,
      "velocity": 104,
      "chip": "ym2612"
    },
    {
      "channel": 3,
      "note": 62,
      "start": 25.3858,
      "duration": 0.0074,
      "velocity": 104,
      "chip": "ym2612"
    },
    {
      "channel": 1,
      "note": 62,
      "start": 25.3886,
      "duration": 0.0115,
      "velocity": 98,
      "chip": "ym2612"
    },
    {
      "channel": 4,
      "note": 40,
      "start": 25.396,
      "duration": 0.042,
      "velocity": 105,
      "chip": "ym2612"
    },
    {
      "channel": 3,
      "note": 62,
      "start": 25.4327,
      "duration": 0.0357,
      "velocity": 104,
      "chip": "ym2612"
    },
    {
      "channel": 2,
      "note": 59,
      "start": 25.4352,
      "duration": 0.015,
      "velocity": 104,
      "chip": "ym2612"
    },
    {
      "channel": 1,
      "note": 77,
      "start": 25.4872,
      "duration": 0.0464,
      "velocity": 111,
      "chip": "ym2612"
    },
    {
      "channel": 4,
      "note": 40,
      "start": 25.5036,
      "duration": 0.0967,
      "velocity": 105,
      "chip": "ym2612"
    },
    {
      "channel": 3,
      "note": 59,
      "start": 25.6037,
      "duration": 0.0798,
      "velocity": 104,
      "chip": "ym2612"
    },
    {
      "channel": 2,
      "note": 62,
      "start": 25.607,
      "duration": 0.11,
      "velocity": 104,
      "chip": "ym2612"
    },
    {
      "channel": 5,
      "note": 62,
      "start": 25.6102,
      "duration": 0.0401,
      "velocity": 98,
      "chip": "ym2612"
    },
    {
      "channel": 0,
      "note": 36,
      "start": 25.7368,
      "duration": 0.0466,
      "velocity": 113,
      "chip": "ym2612"
    },
    {
      "channel": 3,
      "note": 52,
      "start": 25.7396,
      "duration": 0.0106,
      "velocity": 104,
      "chip": "ym2612"
    },
    {
      "channel": 4,
      "note": 40,
      "start": 25.754,
      "duration": 0.113,
      "velocity": 105,
      "chip": "ym2612"
    },
    {
      "channel": 5,
      "note": 62,
      "start": 25.8543,
      "duration": 0.0461,
      "velocity": 98,
      "chip": "ym2612"
    },
    {
      "channel": 0,
      "note": 36,
      "start": 25.9867,
      "duration": 0.0468,
      "velocity": 113,
      "chip": "ym2612"
    },
    {
      "channel": 1,
      "note": 77,
      "start": 25.9894,
      "duration": 0.0274,
      "velocity": 111,
      "chip": "ym2612"
    },
    {
      "channel": 4,
      "note": 40,
      "start": 26.0036,
      "duration": 0.0968,
      "velocity": 105,
      "chip": "ym2612"
    },
    {
      "channel": 3,
      "note": 64,
      "start": 26.2234,
      "duration": 0.0293,
      "velocity": 104,
      "chip": "ym2612"
    },
    {
      "channel": 2,
      "note": 59,
      "start": 26.226,
      "duration": 0.0326,
      "velocity": 104,
      "chip": "ym2612"
    },
    {
      "channel": 4,
      "note": 40,
      "start": 26.232,
      "duration": 0.058,
      "velocity": 105,
      "chip": "ym2612"
    },
    {
      "channel": 3,
      "note": 52,
      "start": 26.2745,
      "duration": 0.0091,
      "velocity": 104,
      "chip": "ym2612"
    },
    {
      "channel": 3,
      "note": 64,
      "start": 26.3317,
      "duration": 0.0795,
      "velocity": 104,
      "chip": "ym2612"
    },
    {
      "channel": 2,
      "note": 59,
      "start": 26.3344,
      "duration": 0.0772,
      "velocity": 104,
      "chip": "ym2612"
    },
    {
      "channel": 1,
      "note": 77,
      "start": 26.3372,
      "duration": 0.0074,
      "velocity": 111,
      "chip": "ym2612"
    },
    {
      "channel": 4,
      "note": 38,
      "start": 26.3483,
      "duration": 0.0631,
      "velocity": 105,
      "chip": "ym2612"
    },
    {
      "channel": 3,
      "note": 52,
      "start": 26.4479,
      "duration": 0.0635,
      "velocity": 104,
      "chip": "ym2612"
    },
    {
      "channel": 4,
      "note": 35,
      "start": 26.4646,
      "duration": 0.08,
      "velocity": 105,
      "chip": "ym2612"
    },
    {
      "channel": 0,
      "note": 36,
      "start": 26.5814,
      "duration": 0.0465,
      "velocity": 113,
      "chip": "ym2612"
    },
    {
      "channel": 3,
      "note": 62,
      "start": 26.5841,
      "duration": 0.0273,
      "velocity": 104,
      "chip": "ym2612"
    },
    {
      "channel": 2,
      "note": 59,
      "start": 26.5869,
      "duration": 0.0414,
      "velocity": 104,
      "chip": "ym2612"
    },
    {
      "channel": 5,
      "note": 74,
      "start": 26.5896,
      "duration": 0.0385,
      "velocity": 93,
      "chip": "ym2612"
    },
    {
      "channel": 1,
      "note": 62,
      "start": 26.5928,
      "duration": 0.0185,
      "velocity": 98,
      "chip": "ym2612"
    },
    {
      "channel": 4,
      "note": 40,
      "start": 26.5981,
      "duration": 0.0966,
      "velocity": 105,
      "chip": "ym2612"
    },
    {
      "channel": 3,
      "note": 59,
      "start": 26.6982,
      "duration": 0.0798,
      "velocity": 104,
      "chip": "ym2612"
    },
    {
      "channel": 2,
      "note": 62,
      "start": 26.7013,
      "duration": 0.0602,
      "velocity": 104,
      "chip": "ym2612"
    },
    {
      "channel": 5,
      "note": 74,
      "start": 26.7045,
      "duration": 0.0237,
      "velocity": 93,
      "chip": "ym2612"
    },
    {
      "channel": 1,
      "note": 62,
      "start": 26.7072,
      "duration": 0.0207,
      "velocity": 98,
      "chip": "ym2612"
    },
    {
      "channel": 0,
      "note": 74,
      "start": 26.8187,
      "duration": 0.0282,
      "velocity": 93,
      "chip": "ym2612"
    },
    {
      "channel": 4,
      "note": 77,
      "start": 26.8214,
      "duration": 0.0183,
      "velocity": 111,
      "chip": "ym2612"
    },
    {
      "channel": 1,
      "note": 62,
      "start": 26.8237,
      "duration": 0.016,
      "velocity": 98,
      "chip": "ym2612"
    },
    {
      "channel": 2,
      "note": 40,
      "start": 26.835,
      "duration": 0.0404,
      "velocity": 105,
      "chip": "ym2612"
    },
    {
      "channel": 3,
      "note": 59,
      "start": 26.8826,
      "duration": 0.0342,
      "velocity": 104,
      "chip": "ym2612"
    },
    {
      "channel": 1,
      "note": 62,
      "start": 26.885,
      "duration": 0.0175,
      "velocity": 104,
      "chip": "ym2612"
    },
    {
      "channel": 0,
      "note": 74,
      "start": 26.8875,
      "duration": 0.0073,
      "velocity": 93,
      "chip": "ym2612"
    },
    {
      "channel": 4,
      "note": 62,
      "start": 26.8903,
      "duration": 0.0046,
      "velocity": 98,
      "chip": "ym2612"
    },
    {
      "channel": 0,
      "note": 74,
      "start": 26.9378,
      "duration": 0.0237,
      "velocity": 93,
      "chip": "ym2612"
    },
    {
      "channel": 4,
      "note": 62,
      "start": 26.9407,
      "duration": 0.008,
      "velocity": 98,
      "chip": "ym2612"
    },
    {
      "channel": 2,
      "note": 40,
      "start": 26.9462,
      "duration": 0.0326,
      "velocity": 105,
      "chip": "ym2612"
    },
    {
      "channel": 1,
      "note": 52,
      "start": 27.0441,
      "duration": 0.0132,
      "velocity": 104,
      "chip": "ym2612"
    },
    {
      "channel": 0,
      "note": 76,
      "start": 27.0464,
      "duration": 0.0444,
      "velocity": 93,
      "chip": "ym2612"
    },
    {
      "channel": 3,
      "note": 77,
      "start": 27.0492,
      "duration": 0.0249,
      "velocity": 111,
      "chip": "ym2612"
    },
    {
      "channel": 2,
      "note": 40,
      "start": 27.0613,
      "duration": 0.0796,
      "velocity": 105,
      "chip": "ym2612"
    },
    {
      "channel": 4,
      "note": 62,
      "start": 27.1613,
      "duration": 0.0461,
      "velocity": 98,
      "chip": "ym2612"
    },
    {
      "channel": 5,
      "note": 36,
      "start": 27.2774,
      "duration": 0.0636,
      "velocity": 113,
      "chip": "ym2612"
    },
    {
      "channel": 1,
      "note": 52,
      "start": 27.28,
      "duration": 0.0608,
      "velocity": 104,
      "chip": "ym2612"
    },
    {
      "channel": 0,
      "note": 79,
      "start": 27.2824,
      "duration": 0.0582,
      "velocity": 93,
      "chip": "ym2612"
    },
    {
      "channel": 2,
      "note": 40,
      "start": 27.3109,
      "duration": 0.0466,
      "velocity": 105,
      "chip": "ym2612"
    },
    {
      "channel": 0,
      "note": 80,
      "start": 27.4106,
      "duration": 0.0467,
      "velocity": 93,
      "chip": "ym2612"
    },
    {
      "channel": 4,
      "note": 62,
      "start": 27.4137,
      "duration": 0.0271,
      "velocity": 98,
      "chip": "ym2612"
    },
    {
      "channel": 5,
      "note": 36,
      "start": 27.5272,
      "duration": 0.0636,
      "velocity": 113,
      "chip": "ym2612"
    },
    {
      "channel": 1,
      "note": 64,
      "start": 27.53,
      "duration": 0.0773,
      "velocity": 104,
      "chip": "ym2612"
    },
    {
      "channel": 3,
      "note": 59,
      "start": 27.5332,
      "duration": 0.0909,
      "velocity": 104,
      "chip": "ym2612"
    },
    {
      "channel": 2,
      "note": 77,
      "start": 27.5361,
      "duration": 0.0381,
      "velocity": 111,
      "chip": "ym2612"
    },
    {
      "channel": 4,
      "note": 40,
      "start": 27.5441,
      "duration": 0.0801,
      "velocity": 105,
      "chip": "ym2612"
    },
    {
      "channel": 1,
      "note": 52,
      "start": 27.6441,
      "duration": 0.0798,
      "velocity": 104,
      "chip": "ym2612"
    },
    {
      "channel": 0,
      "note": 76,
      "start": 27.6465,
      "duration": 0.0609,
      "velocity": 93,
      "chip": "ym2612"
    },
    {
      "channel": 2,
      "note": 62,
      "start": 27.7813,
      "duration": 0.0112,
      "velocity": 98,
      "chip": "ym2612"
    },
    {
      "channel": 4,
      "note": 40,
      "start": 27.7883,
      "duration": 0.0648,
      "velocity": 105,
      "chip": "ym2612"
    },
    {
      "channel": 1,
      "note": 52,
      "start": 27.8255,
      "duration": 0.0604,
      "velocity": 104,
      "chip": "ym2612"
    },
    {
      "channel": 0,
      "note": 76,
      "start": 27.8283,
      "duration": 0.019,
      "velocity": 93,
      "chip": "ym2612"
    },
    {
      "channel": 1,
      "note": 64,
      "start": 27.8928,
      "duration": 0.0363,
      "velocity": 104,
      "chip": "ym2612"
    },
    {
      "channel": 3,
      "note": 59,
      "start": 27.8952,
      "duration": 0.0566,
      "velocity": 104,
      "chip": "ym2612"
    },
    {
      "channel": 2,
      "note": 77,
      "start": 27.8981,
      "duration": 0.0074,
      "velocity": 111,
      "chip": "ym2612"
    },
    {
      "channel": 4,
      "note": 38,
      "start": 27.9034,
      "duration": 0.0413,
      "velocity": 105,
      "chip": "ym2612"
    },
    {
      "channel": 2,
      "note": 75,
      "start": 27.9427,
      "duration": 0.0093,
      "velocity": 111,
      "chip": "ym2612"
    },
    {
      "channel": 4,
      "note": 40,
      "start": 27.9486,
      "duration": 0.027,
      "velocity": 105,
      "chip": "ym2612"
    },
    {
      "channel": 0,
      "note": 36,
      "start": 27.9846,
      "duration": 0.0244,
      "velocity": 113,
      "chip": "ym2612"
    },
    {
      "channel": 1,
      "note": 47,
      "start": 27.9878,
      "duration": 0.0981,
      "velocity": 104,
      "chip": "ym2612"
    },
    {
      "channel": 3,
      "note": 35,
      "start": 27.9909,
      "duration": 0.1784,
      "velocity": 93,
      "chip": "ym2612"
    },
    {
      "channel": 4,
      "note": 35,
      "start": 27.9963,
      "duration": 0.0366,
      "velocity": 105,
      "chip": "ym2612"
    },
    {
      "channel": 2,
      "note": 75,
      "start": 28.0363,
      "duration": 0.0094,
      "velocity": 111,
      "chip": "ym2612"
    },
    {
      "channel": 1,
      "note": 59,
      "start": 28.0931,
      "duration": 0.0356,
      "velocity": 104,
      "chip": "ym2612"
    },
    {
      "channel": 2,
      "note": 77,
      "start": 28.0958,
      "duration": 0.0092,
      "velocity": 111,
      "chip": "ym2612"
    },
    {
      "channel": 4,
      "note": 35,
      "start": 28.1018,
      "duration": 0.0604,
      "velocity": 105,
      "chip": "ym2612"
    },
    {
      "channel": 2,
      "note": 75,
      "start": 28.1436,
      "duration": 0.0126,
      "velocity": 111,
      "chip": "ym2612"
    },
    {
      "channel": 1,
      "note": 49,
      "start": 28.1927,
      "duration": 0.0778,
      "velocity": 104,
      "chip": "ym2612"
    },
    {
      "channel": 3,
      "note": 37,
      "start": 28.1953,
      "duration": 0.2504,
      "velocity": 93,
      "chip": "ym2612"
    },
    {
      "channel": 4,
      "note": 37,
      "start": 28.2009,
      "duration": 0.04,
      "velocity": 105,
      "chip": "ym2612"
    },
    {
      "channel": 2,
      "note": 75,
      "start": 28.2371,
      "duration": 0.0099,
      "velocity": 111,
      "chip": "ym2612"
    },
    {
      "channel": 1,
      "note": 61,
      "start": 28.2823,
      "duration": 0.0968,
      "velocity": 104,
      "chip": "ym2612"
    },
    {
      "channel": 2,
      "note": 77,
      "start": 28.2851,
      "duration": 0.0441,
      "velocity": 111,
      "chip": "ym2612"
    },
    {
      "channel": 4,
      "note": 37,
      "start": 28.3157,
      "duration": 0.1967,
      "velocity": 105,
      "chip": "ym2612"
    },
    {
      "channel": 2,
      "note": 75,
      "start": 28.4162,
      "duration": 0.0297,
      "velocity": 111,
      "chip": "ym2612"
    },
    {
      "channel": 0,
      "note": 36,
      "start": 28.532,
      "duration": 0.0637,
      "velocity": 113,
      "chip": "ym2612"
    },
    {
      "channel": 1,
      "note": 50,
      "start": 28.5346,
      "duration": 0.2111,
      "velocity": 104,
      "chip": "ym2612"
    },
    {
      "channel": 3,
      "note": 38,
      "start": 28.5373,
      "duration": 0.3417,
      "velocity": 93,
      "chip": "ym2612"
    },
    {
      "channel": 4,
      "note": 38,
      "start": 28.549,
      "duration": 0.0801,
      "velocity": 105,
      "chip": "ym2612"
    },
    {
      "channel": 2,
      "note": 75,
      "start": 28.6494,
      "duration": 0.0464,
      "velocity": 111,
      "chip": "ym2612"
    },
    {
      "channel": 0,
      "note": 36,
      "start": 28.7821,
      "duration": 0.0468,
      "velocity": 113,
      "chip": "ym2612"
    },
    {
      "channel": 1,
      "note": 62,
      "start": 28.7847,
      "duration": 0.1277,
      "velocity": 104,
      "chip": "ym2612"
    },
    {
      "channel": 2,
      "note": 77,
      "start": 28.7876,
      "duration": 0.025,
      "velocity": 111,
      "chip": "ym2612"
    },
    {
      "channel": 4,
      "note": 38,
      "start": 28.7989,
      "duration": 0.1968,
      "velocity": 105,
      "chip": "ym2612"
    },
    {
      "channel": 2,
      "note": 75,
      "start": 28.8994,
      "duration": 0.0297,
      "velocity": 111,
      "chip": "ym2612"
    },
    {
      "channel": 1,
      "note": 52,
      "start": 29.0187,
      "duration": 0.0778,
      "velocity": 104,
      "chip": "ym2612"
    },
    {
      "channel": 3,
      "note": 40,
      "start": 29.0213,
      "duration": 0.158,
      "velocity": 93,
      "chip": "ym2612"
    },
    {
      "channel": 4,
      "note": 40,
      "start": 29.0332,
      "duration": 0.0328,
      "velocity": 105,
      "chip": "ym2612"
    },
    {
      "channel": 2,
      "note": 75,
      "start": 29.0706,
      "duration": 0.0083,
      "velocity": 111,
      "chip": "ym2612"
    },
    {
      "channel": 1,
      "note": 64,
      "start": 29.1296,
      "duration": 0.0814,
      "velocity": 104,
      "chip": "ym2612"
    },
    {
      "channel": 2,
      "note": 77,
      "start": 29.1321,
      "duration": 0.0172,
      "velocity": 111,
      "chip": "ym2612"
    },
    {
      "channel": 4,
      "note": 40,
      "start": 29.1384,
      "duration": 0.0939,
      "velocity": 105,
      "chip": "ym2612"
    },
    {
      "channel": 2,
      "note": 75,
      "start": 29.1877,
      "duration": 0.0162,
      "velocity": 111,
      "chip": "ym2612"
    },
    {
      "channel": 0,
      "note": 36,
      "start": 29.2428,
      "duration": 0.0155,
      "velocity": 113,
      "chip": "ym2612"
    },
    {
      "channel": 1,
      "note": 54,
      "start": 29.2465,
      "duration": 0.1044,
      "velocity": 104,
      "chip": "ym2612"
    },
    {
      "channel": 3,
      "note": 81,
      "start": 29.2491,
      "duration": 0.0176,
      "velocity": 93,
      "chip": "ym2612"
    },
    {
      "channel": 2,
      "note": 42,
      "start": 29.2521,
      "duration": 0.6939,
      "velocity": 93,
      "chip": "ym2612"
    },
    {
      "channel": 4,
      "note": 64,
      "start": 29.2549,
      "duration": 0.0075,
      "velocity": 98,
      "chip": "ym2612"
    },
    {
      "channel": 0,
      "note": 42,
      "start": 29.2605,
      "duration": 0.0337,
      "velocity": 105,
      "chip": "ym2612"
    },
    {
      "channel": 3,
      "note": 82,
      "start": 29.2974,
      "duration": 0.0368,
      "velocity": 93,
      "chip": "ym2612"
    },
    {
      "channel": 4,
      "note": 64,
      "start": 29.3,
      "duration": 0.0185,
      "velocity": 98,
      "chip": "ym2612"
    },
    {
      "channel": 3,
      "note": 85,
      "start": 29.3876,
      "duration": 0.0634,
      "velocity": 93,
      "chip": "ym2612"
    },
    {
      "channel": 0,
      "note": 77,
      "start": 29.3905,
      "duration": 0.0437,
      "velocity": 111,
      "chip": "ym2612"
    },
    {
      "channel": 4,
      "note": 64,
      "start": 29.3932,
      "duration": 0.0413,
      "velocity": 98,
      "chip": "ym2612"
    },
    {
      "channel": 5,
      "note": 42,
      "start": 29.4214,
      "duration": 0.1129,
      "velocity": 105,
      "chip": "ym2612"
    },
    {
      "channel": 1,
      "note": 54,
      "start": 29.521,
      "duration": 0.0299,
      "velocity": 104,
      "chip": "ym2612"
    },
    {
      "channel": 4,
      "note": 64,
      "start": 29.524,
      "duration": 0.0271,
      "velocity": 98,
      "chip": "ym2612"
    },
    {
      "channel": 1,
      "note": 66,
      "start": 29.6404,
      "duration": 0.0193,
      "velocity": 104,
      "chip": "ym2612"
    },
    {
      "channel": 0,
      "note": 61,
      "start": 29.6431,
      "duration": 0.008,
      "velocity": 104,
      "chip": "ym2612"
    },
    {
      "channel": 3,
      "note": 81,
      "start": 29.6454,
      "duration": 0.0204,
      "velocity": 93,
      "chip": "ym2612"
    },
    {
      "channel": 4,
      "note": 64,
      "start": 29.6481,
      "duration": 0.0117,
      "velocity": 98,
      "chip": "ym2612"
    },
    {
      "channel": 0,
      "note": 42,
      "start": 29.6531,
      "duration": 0.0474,
      "velocity": 105,
      "chip": "ym2612"
    },
    {
      "channel": 1,
      "note": 66,
      "start": 29.6931,
      "duration": 0.018,
      "velocity": 104,
      "chip": "ym2612"
    },
    {
      "channel": 4,
      "note": 61,
      "start": 29.6967,
      "duration": 0.0204,
      "velocity": 104,
      "chip": "ym2612"
    },
    {
      "channel": 3,
      "note": 82,
      "start": 29.699,
      "duration": 0.0121,
      "velocity": 93,
      "chip": "ym2612"
    },
    {
      "channel": 3,
      "note": 80,
      "start": 29.7492,
      "duration": 0.0633,
      "velocity": 93,
      "chip": "ym2612"
    },
    {
      "channel": 0,
      "note": 77,
      "start": 29.7519,
      "duration": 0.0271,
      "velocity": 111,
      "chip": "ym2612"
    },
    {
      "channel": 1,
      "note": 42,
      "start": 29.7657,
      "duration": 0.1134,
      "velocity": 105,
      "chip": "ym2612"
    },
    {
      "channel": 4,
      "note": 61,
      "start": 29.8657,
      "duration": 0.0801,
      "velocity": 104,
      "chip": "ym2612"
    },
    {
      "channel": 5,
      "note": 66,
      "start": 29.8689,
      "duration": 0.0602,
      "velocity": 104,
      "chip": "ym2612"
    },
    {
      "channel": 0,
      "note": 64,
      "start": 29.8725,
      "duration": 0.0398,
      "velocity": 98,
      "chip": "ym2612"
    },
    {
      "channel": 3,
      "note": 36,
      "start": 29.9991,
      "duration": 0.0468,
      "velocity": 113,
      "chip": "ym2612"
    },
    {
      "channel": 1,
      "note": 42,
      "start": 30.0157,
      "duration": 0.0967,
      "velocity": 105,
      "chip": "ym2612"
    },
    {
      "channel": 0,
      "note": 64,
      "start": 30.1162,
      "duration": 0.0294,
      "velocity": 98,
      "chip": "ym2612"
    },
    {
      "channel": 3,
      "note": 36,
      "start": 30.2357,
      "duration": 0.0281,
      "velocity": 113,
      "chip": "ym2612"
    },
    {
      "channel": 4,
      "note": 54,
      "start": 30.2382,
      "duration": 0.0181,
      "velocity": 104,
      "chip": "ym2612"
    },
    {
      "channel": 2,
      "note": 77,
      "start": 30.2409,
      "duration": 0.0156,
      "velocity": 111,
      "chip": "ym2612"
    },
    {
      "channel": 1,
      "note": 42,
      "start": 30.2516,
      "duration": 0.0272,
      "velocity": 105,
      "chip": "ym2612"
    },
    {
      "channel": 4,
      "note": 54,
      "start": 30.3528,
      "duration": 0.0223,
      "velocity": 104,
      "chip": "ym2612"
    },
    {
      "channel": 1,
      "note": 42,
      "start": 30.3593,
      "duration": 0.0628,
      "velocity": 105,
      "chip": "ym2612"
    },
    {
      "channel": 2,
      "note": 77,
      "start": 30.4591,
      "duration": 0.0296,
      "velocity": 111,
      "chip": "ym2612"
    },
    {
      "channel": 1,
      "note": 40,
      "start": 30.4753,
      "duration": 0.0799,
      "velocity": 105,
      "chip": "ym2612"
    },
    {
      "channel": 4,
      "note": 54,
      "start": 30.5752,
      "duration": 0.0635,
      "velocity": 104,
      "chip": "ym2612"
    },
    {
      "channel": 2,
      "note": 75,
      "start": 30.5783,
      "duration": 0.0272,
      "velocity": 111,
      "chip": "ym2612"
    },
    {
      "channel": 1,
      "note": 37,
      "start": 30.5917,
      "duration": 0.0802,
      "velocity": 105,
      "chip": "ym2612"
    },
    {
      "channel": 3,
      "note": 36,
      "start": 30.6917,
      "duration": 0.0636,
      "velocity": 113,
      "chip": "ym2612"
    },
    {
      "channel": 4,
      "note": 61,
      "start": 30.6945,
      "duration": 0.0442,
      "velocity": 104,
      "chip": "ym2612"
    },
    {
      "channel": 0,
      "note": 66,
      "start": 30.6976,
      "duration": 0.0575,
      "velocity": 104,
      "chip": "ym2612"
    },
    {
      "channel": 5,
      "note": 84,
      "start": 30.7004,
      "duration": 0.0551,
      "velocity": 93,
      "chip": "ym2612"
    },
    {
      "channel": 2,
      "note": 64,
      "start": 30.7036,
      "duration": 0.0354,
      "velocity": 98,
      "chip": "ym2612"
    },
    {
      "channel": 1,
      "note": 42,
      "start": 30.7258,
      "duration": 0.0961,
      "velocity": 105,
      "chip": "ym2612"
    },
    {
      "channel": 0,
      "note": 61,
      "start": 30.8253,
      "duration": 0.08,
      "velocity": 104,
      "chip": "ym2612"
    },
    {
      "channel": 4,
      "note": 66,
      "start": 30.828,
      "duration": 0.094,
      "velocity": 104,
      "chip": "ym2612"
    },
    {
      "channel": 5,
      "note": 85,
      "start": 30.8305,
      "duration": 0.0415,
      "velocity": 93,
      "chip": "ym2612"
    },
    {
      "channel": 2,
      "note": 64,
      "start": 30.8335,
      "duration": 0.0219,
      "velocity": 98,
      "chip": "ym2612"
    },
    {
      "channel": 5,
      "note": 88,
      "start": 30.9419,
      "duration": 0.0635,
      "velocity": 93,
      "chip": "ym2612"
    },
    {
      "channel": 3,
      "note": 77,
      "start": 30.9448,
      "duration": 0.0438,
      "velocity": 111,
      "chip": "ym2612"
    },
    {
      "channel": 2,
      "note": 64,
      "start": 30.9476,
      "duration": 0.0412,
      "velocity": 98,
      "chip": "ym2612"
    },
    {
      "channel": 1,
      "note": 42,
      "start": 30.9584,
      "duration": 0.0969,
      "velocity": 105,
      "chip": "ym2612"
    },
    {
      "channel": 0,
      "note": 61,
      "start": 31.0587,
      "duration": 0.0798,
      "velocity": 104,
      "chip": "ym2612"
    },
    {
      "channel": 4,
      "note": 66,
      "start": 31.0614,
      "duration": 0.1106,
      "velocity": 104,
      "chip": "ym2612"
    },
    {
      "channel": 5,
      "note": 85,
      "start": 31.0645,
      "duration": 0.0242,
      "velocity": 93,
      "chip": "ym2612"
    },
    {
      "channel": 2,
      "note": 64,
      "start": 31.0675,
      "duration": 0.038,
      "velocity": 98,
      "chip": "ym2612"
    },
    {
      "channel": 0,
      "note": 54,
      "start": 31.1949,
      "duration": 0.0126,
      "velocity": 104,
      "chip": "ym2612"
    },
    {
      "channel": 3,
      "note": 88,
      "start": 31.1974,
      "duration": 0.0162,
      "velocity": 93,
      "chip": "ym2612"
    },
    {
      "channel": 2,
      "note": 64,
      "start": 31.2003,
      "duration": 0.0075,
      "velocity": 98,
      "chip": "ym2612"
    },
    {
      "channel": 1,
      "note": 42,
      "start": 31.2054,
      "duration": 0.0323,
      "velocity": 105,
      "chip": "ym2612"
    },
    {
      "channel": 4,
      "note": 77,
      "start": 31.287,
      "duration": 0.0466,
      "velocity": 111,
      "chip": "ym2612"
    },
    {
      "channel": 1,
      "note": 42,
      "start": 31.3199,
      "duration": 0.0968,
      "velocity": 105,
      "chip": "ym2612"
    },
    {
      "channel": 3,
      "note": 88,
      "start": 31.4203,
      "duration": 0.0632,
      "velocity": 93,
      "chip": "ym2612"
    },
    {
      "channel": 2,
      "note": 64,
      "start": 31.4234,
      "duration": 0.0268,
      "velocity": 98,
      "chip": "ym2612"
    },
    {
      "channel": 0,
      "note": 36,
      "start": 31.5368,
      "duration": 0.0632,
      "velocity": 113,
      "chip": "ym2612"
    },
    {
      "channel": 1,
      "note": 42,
      "start": 31.5532,
      "duration": 0.1136,
      "velocity": 105,
      "chip": "ym2612"
    },
    {
      "channel": 3,
      "note": 88,
      "start": 31.6703,
      "duration": 0.0464,
      "velocity": 93,
      "chip": "ym2612"
    },
    {
      "channel": 2,
      "note": 64,
      "start": 31.6735,
      "duration": 0.0267,
      "velocity": 98,
      "chip": "ym2612"
    },
    {
      "channel": 0,
      "note": 36,
      "start": 31.7899,
      "duration": 0.0294,
      "velocity": 113,
      "chip": "ym2612"
    },
    {
      "channel": 4,
      "note": 61,
      "start": 31.7929,
      "duration": 0.0266,
      "velocity": 104,
      "chip": "ym2612"
    },
    {
      "channel": 1,
      "note": 66,
      "start": 31.7956,
      "duration": 0.0317,
      "velocity": 104,
      "chip": "ym2612"
    },
    {
      "channel": 2,
      "note": 77,
      "start": 31.7982,
      "duration": 0.0072,
      "velocity": 111,
      "chip": "ym2612"
    },
    {
      "channel": 3,
      "note": 42,
      "start": 31.8034,
      "duration": 0.0372,
      "velocity": 105,
      "chip": "ym2612"
    },
    {
      "channel": 1,
      "note": 54,
      "start": 31.8491,
      "duration": 0.0371,
      "velocity": 104,
      "chip": "ym2612"
    },
    {
      "channel": 1,
      "note": 61,
      "start": 31.9073,
      "duration": 0.0113,
      "velocity": 104,
      "chip": "ym2612"
    },
    {
      "channel": 4,
      "note": 66,
      "start": 31.9099,
      "duration": 0.0147,
      "velocity": 104,
      "chip": "ym2612"
    },
    {
      "channel": 3,
      "note": 42,
      "start": 31.9155,
      "duration": 0.0329,
      "velocity": 105,
      "chip": "ym2612"
    },
    {
      "channel": 1,
      "note": 61,
      "start": 31.9519,
      "duration": 0.0287,
      "velocity": 104,
      "chip": "ym2612"
    },
    {
      "channel": 4,
      "note": 66,
      "start": 31.955,
      "duration": 0.031,
      "velocity": 104,
      "chip": "ym2612"
    },
    {
      "channel": 1,
      "note": 54,
      "start": 31.9971,
      "duration": 0.0467,
      "velocity": 104,
      "chip": "ym2612"
    },
    {
      "channel": 2,
      "note": 77,
      "start": 32.0006,
      "duration": 0.0436,
      "velocity": 111,
      "chip": "ym2612"
    },
    {
      "channel": 3,
      "note": 42,
      "start": 32.0139,
      "duration": 0.1467,
      "velocity": 105,
      "chip": "ym2612"
    },
    {
      "channel": 2,
      "note": 75,
      "start": 32.1308,
      "duration": 0.03,
      "velocity": 111,
      "chip": "ym2612"
    },
    {
      "channel": 0,
      "note": 36,
      "start": 32.2473,
      "duration": 10.8606,
      "velocity": 113,
      "chip": "ym2612"
    }
  ]
}