{
  "track_name": "11 - Time's Running Out!",
  "duration_sec": 164.548,
  "sample_rate": 44100,
  "note_count": 5125,
  "unique_pitches": 43,
  "pitch_range": 51,
  "avg_note_duration": 0.1736,
  "reconstruction_stats": {
    "notes_reconstructed": 5125,
    "keyon_events": 5125,
    "keyoff_events": 5119,
    "orphan_keyons": 6,
    "unique_pitches": 43,
    "pitch_range": 51,
    "avg_duration_sec": 0.1736
  },
  "metadata": {
    "source": "D\\Devilish\\11 - Time's Running Out!.vgz"
  },
  "notes": [
    {
      "channel": 0,
      "note": 69,
      "start": 0.0,
      "duration": 0.0759,
      "velocity": 123,
      "chip": "ym2612"
    },
    {
      "channel": 1,
      "note": 22,
      "start": 0.0026,
      "duration": 2.9324,
      "velocity": 98,
      "chip": "ym2612"
    },
    {
      "channel": 2,
      "note": 26,
      "start": 0.0051,
      "duration": 0.0125,
      "velocity": 107,
      "chip": "ym2612"
    },
    {
      "channel": 3,
      "note": 46,
      "start": 0.012,
      "duration": 0.1654,
      "velocity": 114,
      "chip": "ym2612"
    },
    {
      "channel": 4,
      "note": 34,
      "start": 0.0154,
      "duration": 0.1629,
      "velocity": 110,
      "chip": "ym2612"
    },
    {
      "channel": 2,
      "note": 26,
      "start": 0.0179,
      "duration": 0.1568,
      "velocity": 127,
      "chip": "ym2612"
    },
    {
      "channel": 0,
      "note": 73,
      "start": 0.0761,
      "duration": 0.0961,
      "velocity": 123,
      "chip": "ym2612"
    },
    {
      "channel": 0,
      "note": 69,
      "start": 0.1723,
      "duration": 0.0961,
      "velocity": 123,
      "chip": "ym2612"
    },
    {
      "channel": 2,
      "note": 59,
      "start": 0.1749,
      "duration": 0.1931,
      "velocity": 127,
      "chip": "ym2612"
    },
    {
      "channel": 3,
      "note": 46,
      "start": 0.1776,
      "duration": 0.1933,
      "velocity": 114,
      "chip": "ym2612"
    },
    {
      "channel": 0,
      "note": 73,
      "start": 0.2686,
      "duration": 0.0968,
      "velocity": 123,
      "chip": "ym2612"
    },
    {
      "channel": 5,
      "note": 22,
      "start": 0.2748,
      "duration": 2.9523,
      "velocity": 98,
      "chip": "ym2612"
    },
    {
      "channel": 0,
      "note": 69,
      "start": 0.3657,
      "duration": 0.0983,
      "velocity": 123,
      "chip": "ym2612"
    },
    {
      "channel": 2,
      "note": 59,
      "start": 0.3681,
      "duration": 0.033,
      "velocity": 127,
      "chip": "ym2612"
    },
    {
      "channel": 3,
      "note": 46,
      "start": 0.371,
      "duration": 0.1923,
      "velocity": 114,
      "chip": "ym2612"
    },
    {
      "channel": 2,
      "note": 59,
      "start": 0.4014,
      "duration": 0.1585,
      "velocity": 127,
      "chip": "ym2612"
    },
    {
      "channel": 0,
      "note": 73,
      "start": 0.4641,
      "duration": 0.0933,
      "velocity": 123,
      "chip": "ym2612"
    },
    {
      "channel": 0,
      "note": 69,
      "start": 0.5576,
      "duration": 0.0989,
      "velocity": 123,
      "chip": "ym2612"
    },
    {
      "channel": 2,
      "note": 64,
      "start": 0.5601,
      "duration": 0.1926,
      "velocity": 123,
      "chip": "ym2612"
    },
    {
      "channel": 3,
      "note": 46,
      "start": 0.5635,
      "duration": 0.1919,
      "velocity": 114,
      "chip": "ym2612"
    },
    {
      "channel": 4,
      "note": 34,
      "start": 0.5644,
      "duration": 0.1919,
      "velocity": 110,
      "chip": "ym2612"
    },
    {
      "channel": 0,
      "note": 73,
      "start": 0.6568,
      "duration": 0.0933,
      "velocity": 123,
      "chip": "ym2612"
    },
    {
      "channel": 0,
      "note": 69,
      "start": 0.7503,
      "duration": 0.0988,
      "velocity": 123,
      "chip": "ym2612"
    },
    {
      "channel": 2,
      "note": 57,
      "start": 0.7529,
      "duration": 0.0338,
      "velocity": 123,
      "chip": "ym2612"
    },
    {
      "channel": 3,
      "note": 46,
      "start": 0.7557,
      "duration": 0.194,
      "velocity": 114,
      "chip": "ym2612"
    },
    {
      "channel": 2,
      "note": 57,
      "start": 0.7869,
      "duration": 0.03,
      "velocity": 123,
      "chip": "ym2612"
    },
    {
      "channel": 2,
      "note": 57,
      "start": 0.8172,
      "duration": 0.0333,
      "velocity": 123,
      "chip": "ym2612"
    },
    {
      "channel": 0,
      "note": 73,
      "start": 0.8494,
      "duration": 0.0933,
      "velocity": 123,
      "chip": "ym2612"
    },
    {
      "channel": 2,
      "note": 57,
      "start": 0.8507,
      "duration": 0.0295,
      "velocity": 123,
      "chip": "ym2612"
    },
    {
      "channel": 2,
      "note": 57,
      "start": 0.8804,
      "duration": 0.0327,
      "velocity": 123,
      "chip": "ym2612"
    },
    {
      "channel": 2,
      "note": 57,
      "start": 0.9133,
      "duration": 0.0321,
      "velocity": 127,
      "chip": "ym2612"
    },
    {
      "channel": 0,
      "note": 69,
      "start": 0.9429,
      "duration": 0.0989,
      "velocity": 123,
      "chip": "ym2612"
    },
    {
      "channel": 2,
      "note": 59,
      "start": 0.9457,
      "duration": 0.0334,
      "velocity": 127,
      "chip": "ym2612"
    },
    {
      "channel": 3,
      "note": 46,
      "start": 0.9498,
      "duration": 0.1941,
      "velocity": 114,
      "chip": "ym2612"
    },
    {
      "channel": 4,
      "note": 34,
      "start": 0.9507,
      "duration": 0.1941,
      "velocity": 110,
      "chip": "ym2612"
    },
    {
      "channel": 2,
      "note": 59,
      "start": 0.9793,
      "duration": 0.1615,
      "velocity": 127,
      "chip": "ym2612"
    },
    {
      "channel": 0,
      "note": 73,
      "start": 1.0421,
      "duration": 0.0961,
      "velocity": 123,
      "chip": "ym2612"
    },
    {
      "channel": 0,
      "note": 69,
      "start": 1.1384,
      "duration": 0.0961,
      "velocity": 123,
      "chip": "ym2612"
    },
    {
      "channel": 2,
      "note": 66,
      "start": 1.1409,
      "duration": 0.0946,
      "velocity": 127,
      "chip": "ym2612"
    },
    {
      "channel": 3,
      "note": 46,
      "start": 1.1441,
      "duration": 0.1912,
      "velocity": 114,
      "chip": "ym2612"
    },
    {
      "channel": 4,
      "note": 34,
      "start": 1.145,
      "duration": 0.1912,
      "velocity": 110,
      "chip": "ym2612"
    },
    {
      "channel": 0,
      "note": 73,
      "start": 1.2347,
      "duration": 0.0962,
      "velocity": 123,
      "chip": "ym2612"
    },
    {
      "channel": 2,
      "note": 66,
      "start": 1.2357,
      "duration": 0.0968,
      "velocity": 127,
      "chip": "ym2612"
    },
    {
      "channel": 0,
      "note": 69,
      "start": 1.3311,
      "duration": 0.0961,
      "velocity": 123,
      "chip": "ym2612"
    },
    {
      "channel": 2,
      "note": 66,
      "start": 1.3327,
      "duration": 0.0954,
      "velocity": 127,
      "chip": "ym2612"
    },
    {
      "channel": 3,
      "note": 46,
      "start": 1.3355,
      "duration": 0.1933,
      "velocity": 114,
      "chip": "ym2612"
    },
    {
      "channel": 0,
      "note": 73,
      "start": 1.4273,
      "duration": 0.0962,
      "velocity": 123,
      "chip": "ym2612"
    },
    {
      "channel": 2,
      "note": 66,
      "start": 1.4283,
      "duration": 0.0976,
      "velocity": 123,
      "chip": "ym2612"
    },
    {
      "channel": 0,
      "note": 69,
      "start": 1.5237,
      "duration": 0.0961,
      "velocity": 123,
      "chip": "ym2612"
    },
    {
      "channel": 2,
      "note": 68,
      "start": 1.5261,
      "duration": 0.0947,
      "velocity": 123,
      "chip": "ym2612"
    },
    {
      "channel": 3,
      "note": 46,
      "start": 1.529,
      "duration": 0.193,
      "velocity": 114,
      "chip": "ym2612"
    },
    {
      "channel": 0,
      "note": 73,
      "start": 1.62,
      "duration": 0.0961,
      "velocity": 123,
      "chip": "ym2612"
    },
    {
      "channel": 2,
      "note": 68,
      "start": 1.621,
      "duration": 0.0975,
      "velocity": 107,
      "chip": "ym2612"
    },
    {
      "channel": 0,
      "note": 69,
      "start": 1.7162,
      "duration": 0.0961,
      "velocity": 123,
      "chip": "ym2612"
    },
    {
      "channel": 2,
      "note": 30,
      "start": 1.7187,
      "duration": 0.031,
      "velocity": 107,
      "chip": "ym2612"
    },
    {
      "channel": 3,
      "note": 46,
      "start": 1.7223,
      "duration": 0.1917,
      "velocity": 114,
      "chip": "ym2612"
    },
    {
      "channel": 4,
      "note": 34,
      "start": 1.7232,
      "duration": 0.1923,
      "velocity": 110,
      "chip": "ym2612"
    },
    {
      "channel": 2,
      "note": 30,
      "start": 1.7499,
      "duration": 0.1612,
      "velocity": 123,
      "chip": "ym2612"
    },
    {
      "channel": 0,
      "note": 73,
      "start": 1.8125,
      "duration": 0.0961,
      "velocity": 123,
      "chip": "ym2612"
    },
    {
      "channel": 0,
      "note": 69,
      "start": 1.9088,
      "duration": 0.0961,
      "velocity": 123,
      "chip": "ym2612"
    },
    {
      "channel": 2,
      "note": 59,
      "start": 1.9114,
      "duration": 0.0945,
      "velocity": 123,
      "chip": "ym2612"
    },
    {
      "channel": 3,
      "note": 46,
      "start": 1.9141,
      "duration": 0.1931,
      "velocity": 114,
      "chip": "ym2612"
    },
    {
      "channel": 0,
      "note": 73,
      "start": 2.0052,
      "duration": 0.0961,
      "velocity": 123,
      "chip": "ym2612"
    },
    {
      "channel": 2,
      "note": 59,
      "start": 2.0061,
      "duration": 0.0976,
      "velocity": 107,
      "chip": "ym2612"
    },
    {
      "channel": 0,
      "note": 69,
      "start": 2.1015,
      "duration": 0.0961,
      "velocity": 123,
      "chip": "ym2612"
    },
    {
      "channel": 2,
      "note": 27,
      "start": 2.1039,
      "duration": 0.0308,
      "velocity": 107,
      "chip": "ym2612"
    },
    {
      "channel": 3,
      "note": 46,
      "start": 2.1075,
      "duration": 0.1924,
      "velocity": 114,
      "chip": "ym2612"
    },
    {
      "channel": 4,
      "note": 34,
      "start": 2.1084,
      "duration": 0.1924,
      "velocity": 110,
      "chip": "ym2612"
    },
    {
      "channel": 2,
      "note": 27,
      "start": 2.1349,
      "duration": 0.1615,
      "velocity": 127,
      "chip": "ym2612"
    },
    {
      "channel": 0,
      "note": 73,
      "start": 2.1978,
      "duration": 0.0961,
      "velocity": 123,
      "chip": "ym2612"
    },
    {
      "channel": 0,
      "note": 69,
      "start": 2.2941,
      "duration": 0.0961,
      "velocity": 123,
      "chip": "ym2612"
    },
    {
      "channel": 2,
      "note": 59,
      "start": 2.2967,
      "duration": 0.0307,
      "velocity": 127,
      "chip": "ym2612"
    },
    {
      "channel": 3,
      "note": 46,
      "start": 2.3001,
      "duration": 0.1926,
      "velocity": 114,
      "chip": "ym2612"
    },
    {
      "channel": 2,
      "note": 59,
      "start": 2.3276,
      "duration": 0.1615,
      "velocity": 123,
      "chip": "ym2612"
    },
    {
      "channel": 0,
      "note": 73,
      "start": 2.3904,
      "duration": 0.0961,
      "velocity": 123,
      "chip": "ym2612"
    },
    {
      "channel": 0,
      "note": 69,
      "start": 2.4867,
      "duration": 0.0961,
      "velocity": 123,
      "chip": "ym2612"
    },
    {
      "channel": 2,
      "note": 57,
      "start": 2.4893,
      "duration": 0.031,
      "velocity": 123,
      "chip": "ym2612"
    },
    {
      "channel": 3,
      "note": 46,
      "start": 2.4928,
      "duration": 0.1929,
      "velocity": 114,
      "chip": "ym2612"
    },
    {
      "channel": 4,
      "note": 34,
      "start": 2.4937,
      "duration": 0.1929,
      "velocity": 110,
      "chip": "ym2612"
    },
    {
      "channel": 2,
      "note": 57,
      "start": 2.5205,
      "duration": 0.0328,
      "velocity": 123,
      "chip": "ym2612"
    },
    {
      "channel": 2,
      "note": 57,
      "start": 2.5535,
      "duration": 0.0305,
      "velocity": 123,
      "chip": "ym2612"
    },
    {
      "channel": 0,
      "note": 73,
      "start": 2.583,
      "duration": 0.0961,
      "velocity": 123,
      "chip": "ym2612"
    },
    {
      "channel": 2,
      "note": 57,
      "start": 2.5842,
      "duration": 0.0323,
      "velocity": 123,
      "chip": "ym2612"
    },
    {
      "channel": 2,
      "note": 57,
      "start": 2.6168,
      "duration": 0.0298,
      "velocity": 123,
      "chip": "ym2612"
    },
    {
      "channel": 2,
      "note": 57,
      "start": 2.6469,
      "duration": 0.0356,
      "velocity": 127,
      "chip": "ym2612"
    },
    {
      "channel": 0,
      "note": 69,
      "start": 2.6793,
      "duration": 0.0961,
      "velocity": 123,
      "chip": "ym2612"
    },
    {
      "channel": 2,
      "note": 64,
      "start": 2.6827,
      "duration": 0.0937,
      "velocity": 127,
      "chip": "ym2612"
    },
    {
      "channel": 3,
      "note": 46,
      "start": 2.6859,
      "duration": 0.1896,
      "velocity": 114,
      "chip": "ym2612"
    },
    {
      "channel": 4,
      "note": 34,
      "start": 2.6868,
      "duration": 0.1896,
      "velocity": 110,
      "chip": "ym2612"
    },
    {
      "channel": 0,
      "note": 73,
      "start": 2.7756,
      "duration": 0.0961,
      "velocity": 123,
      "chip": "ym2612"
    },
    {
      "channel": 2,
      "note": 64,
      "start": 2.7766,
      "duration": 0.0961,
      "velocity": 127,
      "chip": "ym2612"
    },
    {
      "channel": 0,
      "note": 69,
      "start": 2.8719,
      "duration": 0.096,
      "velocity": 123,
      "chip": "ym2612"
    },
    {
      "channel": 2,
      "note": 64,
      "start": 2.8729,
      "duration": 0.096,
      "velocity": 127,
      "chip": "ym2612"
    },
    {
      "channel": 3,
      "note": 46,
      "start": 2.8757,
      "duration": 0.1929,
      "velocity": 114,
      "chip": "ym2612"
    },
    {
      "channel": 0,
      "note": 73,
      "start": 2.9681,
      "duration": 0.0933,
      "velocity": 123,
      "chip": "ym2612"
    },
    {
      "channel": 2,
      "note": 64,
      "start": 2.9691,
      "duration": 0.0952,
      "velocity": 107,
      "chip": "ym2612"
    },
    {
      "channel": 0,
      "note": 69,
      "start": 3.0617,
      "duration": 0.099,
      "velocity": 123,
      "chip": "ym2612"
    },
    {
      "channel": 1,
      "note": 24,
      "start": 3.0623,
      "duration": 2.9574,
      "velocity": 98,
      "chip": "ym2612"
    },
    {
      "channel": 2,
      "note": 26,
      "start": 3.0648,
      "duration": 0.0332,
      "velocity": 107,
      "chip": "ym2612"
    },
    {
      "channel": 3,
      "note": 46,
      "start": 3.0689,
      "duration": 0.1933,
      "velocity": 114,
      "chip": "ym2612"
    },
    {
      "channel": 4,
      "note": 34,
      "start": 3.0698,
      "duration": 0.1933,
      "velocity": 110,
      "chip": "ym2612"
    },
    {
      "channel": 2,
      "note": 26,
      "start": 3.0987,
      "duration": 0.1607,
      "velocity": 127,
      "chip": "ym2612"
    },
    {
      "channel": 0,
      "note": 73,
      "start": 3.1609,
      "duration": 0.0961,
      "velocity": 123,
      "chip": "ym2612"
    },
    {
      "channel": 0,
      "note": 69,
      "start": 3.2571,
      "duration": 0.0961,
      "velocity": 123,
      "chip": "ym2612"
    },
    {
      "channel": 2,
      "note": 59,
      "start": 3.2597,
      "duration": 0.1923,
      "velocity": 127,
      "chip": "ym2612"
    },
    {
      "channel": 3,
      "note": 46,
      "start": 3.2624,
      "duration": 0.1924,
      "velocity": 114,
      "chip": "ym2612"
    },
    {
      "channel": 0,
      "note": 73,
      "start": 3.3534,
      "duration": 0.0961,
      "velocity": 123,
      "chip": "ym2612"
    },
    {
      "channel": 5,
      "note": 24,
      "start": 3.3577,
      "duration": 2.9542,
      "velocity": 98,
      "chip": "ym2612"
    },
    {
      "channel": 0,
      "note": 69,
      "start": 3.4498,
      "duration": 0.0961,
      "velocity": 123,
      "chip": "ym2612"
    },
    {
      "channel": 2,
      "note": 59,
      "start": 3.4522,
      "duration": 0.0308,
      "velocity": 127,
      "chip": "ym2612"
    },
    {
      "channel": 3,
      "note": 46,
      "start": 3.455,
      "duration": 0.1937,
      "velocity": 114,
      "chip": "ym2612"
    },
    {
      "channel": 2,
      "note": 59,
      "start": 3.4832,
      "duration": 0.1614,
      "velocity": 127,
      "chip": "ym2612"
    },
    {
      "channel": 0,
      "note": 73,
      "start": 3.546,
      "duration": 0.0962,
      "velocity": 123,
      "chip": "ym2612"
    },
    {
      "channel": 0,
      "note": 69,
      "start": 3.6424,
      "duration": 0.0961,
      "velocity": 123,
      "chip": "ym2612"
    },
    {
      "channel": 2,
      "note": 64,
      "start": 3.6448,
      "duration": 0.1926,
      "velocity": 123,
      "chip": "ym2612"
    },
    {
      "channel": 3,
      "note": 46,
      "start": 3.6489,
      "duration": 0.1912,
      "velocity": 114,
      "chip": "ym2612"
    },
    {
      "channel": 4,
      "note": 34,
      "start": 3.6498,
      "duration": 0.1912,
      "velocity": 110,
      "chip": "ym2612"
    },
    {
      "channel": 0,
      "note": 73,
      "start": 3.7386,
      "duration": 0.0962,
      "velocity": 123,
      "chip": "ym2612"
    },
    {
      "channel": 0,
      "note": 69,
      "start": 3.835,
      "duration": 0.0962,
      "velocity": 123,
      "chip": "ym2612"
    },
    {
      "channel": 2,
      "note": 57,
      "start": 3.8376,
      "duration": 0.031,
      "velocity": 123,
      "chip": "ym2612"
    },
    {
      "channel": 3,
      "note": 46,
      "start": 3.8403,
      "duration": 0.1941,
      "velocity": 114,
      "chip": "ym2612"
    },
    {
      "channel": 2,
      "note": 57,
      "start": 3.8688,
      "duration": 0.0327,
      "velocity": 123,
      "chip": "ym2612"
    },
    {
      "channel": 2,
      "note": 57,
      "start": 3.9018,
      "duration": 0.0312,
      "velocity": 123,
      "chip": "ym2612"
    },
    {
      "channel": 0,
      "note": 73,
      "start": 3.932,
      "duration": 0.0955,
      "velocity": 123,
      "chip": "ym2612"
    },
    {
      "channel": 2,
      "note": 57,
      "start": 3.9333,
      "duration": 0.0323,
      "velocity": 123,
      "chip": "ym2612"
    },
    {
      "channel": 2,
      "note": 57,
      "start": 3.9658,
      "duration": 0.0324,
      "velocity": 123,
      "chip": "ym2612"
    },
    {
      "channel": 2,
      "note": 57,
      "start": 3.9988,
      "duration": 0.0314,
      "velocity": 127,
      "chip": "ym2612"
    },
    {
      "channel": 0,
      "note": 69,
      "start": 4.0278,
      "duration": 0.0989,
      "velocity": 123,
      "chip": "ym2612"
    },
    {
      "channel": 2,
      "note": 59,
      "start": 4.0305,
      "duration": 0.0334,
      "velocity": 127,
      "chip": "ym2612"
    },
    {
      "channel": 3,
      "note": 46,
      "start": 4.0346,
      "duration": 0.1941,
      "velocity": 114,
      "chip": "ym2612"
    },
    {
      "channel": 4,
      "note": 34,
      "start": 4.0355,
      "duration": 0.1941,
      "velocity": 110,
      "chip": "ym2612"
    },
    {
      "channel": 2,
      "note": 59,
      "start": 4.0641,
      "duration": 0.1614,
      "velocity": 127,
      "chip": "ym2612"
    },
    {
      "channel": 0,
      "note": 73,
      "start": 4.1268,
      "duration": 0.0961,
      "velocity": 123,
      "chip": "ym2612"
    },
    {
      "channel": 0,
      "note": 69,
      "start": 4.2232,
      "duration": 0.0961,
      "velocity": 123,
      "chip": "ym2612"
    },
    {
      "channel": 2,
      "note": 66,
      "start": 4.2257,
      "duration": 0.0946,
      "velocity": 127,
      "chip": "ym2612"
    },
    {
      "channel": 3,
      "note": 46,
      "start": 4.2289,
      "duration": 0.1908,
      "velocity": 114,
      "chip": "ym2612"
    },
    {
      "channel": 4,
      "note": 34,
      "start": 4.2298,
      "duration": 0.1908,
      "velocity": 110,
      "chip": "ym2612"
    },
    {
      "channel": 0,
      "note": 73,
      "start": 4.3195,
      "duration": 0.0965,
      "velocity": 123,
      "chip": "ym2612"
    },
    {
      "channel": 2,
      "note": 66,
      "start": 4.3205,
      "duration": 0.0964,
      "velocity": 127,
      "chip": "ym2612"
    },
    {
      "channel": 0,
      "note": 69,
      "start": 4.4162,
      "duration": 0.0957,
      "velocity": 123,
      "chip": "ym2612"
    },
    {
      "channel": 2,
      "note": 66,
      "start": 4.4172,
      "duration": 0.0957,
      "velocity": 127,
      "chip": "ym2612"
    },
    {
      "channel": 3,
      "note": 46,
      "start": 4.42,
      "duration": 0.1936,
      "velocity": 114,
      "chip": "ym2612"
    },
    {
      "channel": 0,
      "note": 73,
      "start": 4.5121,
      "duration": 0.0962,
      "velocity": 123,
      "chip": "ym2612"
    },
    {
      "channel": 2,
      "note": 66,
      "start": 4.5131,
      "duration": 0.0976,
      "velocity": 123,
      "chip": "ym2612"
    },
    {
      "channel": 0,
      "note": 69,
      "start": 4.6085,
      "duration": 0.0961,
      "velocity": 123,
      "chip": "ym2612"
    },
    {
      "channel": 2,
      "note": 68,
      "start": 4.611,
      "duration": 0.0946,
      "velocity": 123,
      "chip": "ym2612"
    },
    {
      "channel": 3,
      "note": 46,
      "start": 4.6137,
      "duration": 0.1931,
      "velocity": 114,
      "chip": "ym2612"
    },
    {
      "channel": 0,
      "note": 73,
      "start": 4.7048,
      "duration": 0.0961,
      "velocity": 123,
      "chip": "ym2612"
    },
    {
      "channel": 2,
      "note": 68,
      "start": 4.7057,
      "duration": 0.0976,
      "velocity": 107,
      "chip": "ym2612"
    },
    {
      "channel": 0,
      "note": 69,
      "start": 4.801,
      "duration": 0.0961,
      "velocity": 123,
      "chip": "ym2612"
    },
    {
      "channel": 2,
      "note": 30,
      "start": 4.8035,
      "duration": 0.0308,
      "velocity": 107,
      "chip": "ym2612"
    },
    {
      "channel": 3,
      "note": 46,
      "start": 4.8071,
      "duration": 0.1923,
      "velocity": 114,
      "chip": "ym2612"
    },
    {
      "channel": 4,
      "note": 34,
      "start": 4.808,
      "duration": 0.1923,
      "velocity": 110,
      "chip": "ym2612"
    },
    {
      "channel": 2,
      "note": 30,
      "start": 4.8346,
      "duration": 0.1614,
      "velocity": 123,
      "chip": "ym2612"
    },
    {
      "channel": 0,
      "note": 73,
      "start": 4.8973,
      "duration": 0.0961,
      "velocity": 123,
      "chip": "ym2612"
    },
    {
      "channel": 0,
      "note": 69,
      "start": 4.9937,
      "duration": 0.0961,
      "velocity": 123,
      "chip": "ym2612"
    },
    {
      "channel": 2,
      "note": 59,
      "start": 4.9962,
      "duration": 0.0945,
      "velocity": 123,
      "chip": "ym2612"
    },
    {
      "channel": 3,
      "note": 46,
      "start": 4.9996,
      "duration": 0.1925,
      "velocity": 114,
      "chip": "ym2612"
    },
    {
      "channel": 0,
      "note": 73,
      "start": 5.0899,
      "duration": 0.0962,
      "velocity": 123,
      "chip": "ym2612"
    },
    {
      "channel": 2,
      "note": 59,
      "start": 5.0909,
      "duration": 0.0977,
      "velocity": 107,
      "chip": "ym2612"
    },
    {
      "channel": 0,
      "note": 69,
      "start": 5.1863,
      "duration": 0.0963,
      "velocity": 123,
      "chip": "ym2612"
    },
    {
      "channel": 2,
      "note": 27,
      "start": 5.1888,
      "duration": 0.0308,
      "velocity": 107,
      "chip": "ym2612"
    },
    {
      "channel": 3,
      "note": 46,
      "start": 5.1923,
      "duration": 0.1923,
      "velocity": 114,
      "chip": "ym2612"
    },
    {
      "channel": 4,
      "note": 34,
      "start": 5.1932,
      "duration": 0.1923,
      "velocity": 110,
      "chip": "ym2612"
    },
    {
      "channel": 2,
      "note": 27,
      "start": 5.2197,
      "duration": 0.1618,
      "velocity": 127,
      "chip": "ym2612"
    },
    {
      "channel": 0,
      "note": 73,
      "start": 5.2828,
      "duration": 0.0959,
      "velocity": 123,
      "chip": "ym2612"
    },
    {
      "channel": 0,
      "note": 69,
      "start": 5.3789,
      "duration": 0.0961,
      "velocity": 123,
      "chip": "ym2612"
    },
    {
      "channel": 2,
      "note": 59,
      "start": 5.3821,
      "duration": 0.0301,
      "velocity": 127,
      "chip": "ym2612"
    },
    {
      "channel": 3,
      "note": 46,
      "start": 5.3849,
      "duration": 0.1926,
      "velocity": 114,
      "chip": "ym2612"
    },
    {
      "channel": 2,
      "note": 59,
      "start": 5.4124,
      "duration": 0.1614,
      "velocity": 123,
      "chip": "ym2612"
    },
    {
      "channel": 0,
      "note": 73,
      "start": 5.4752,
      "duration": 0.0961,
      "velocity": 123,
      "chip": "ym2612"
    },
    {
      "channel": 0,
      "note": 69,
      "start": 5.5715,
      "duration": 0.096,
      "velocity": 123,
      "chip": "ym2612"
    },
    {
      "channel": 2,
      "note": 57,
      "start": 5.5741,
      "duration": 0.031,
      "velocity": 123,
      "chip": "ym2612"
    },
    {
      "channel": 3,
      "note": 46,
      "start": 5.5776,
      "duration": 0.1929,
      "velocity": 114,
      "chip": "ym2612"
    },
    {
      "channel": 4,
      "note": 34,
      "start": 5.5785,
      "duration": 0.1929,
      "velocity": 110,
      "chip": "ym2612"
    },
    {
      "channel": 2,
      "note": 57,
      "start": 5.6053,
      "duration": 0.0328,
      "velocity": 123,
      "chip": "ym2612"
    },
    {
      "channel": 2,
      "note": 57,
      "start": 5.6383,
      "duration": 0.0305,
      "velocity": 123,
      "chip": "ym2612"
    },
    {
      "channel": 0,
      "note": 73,
      "start": 5.6678,
      "duration": 0.0961,
      "velocity": 123,
      "chip": "ym2612"
    },
    {
      "channel": 2,
      "note": 57,
      "start": 5.669,
      "duration": 0.0323,
      "velocity": 123,
      "chip": "ym2612"
    },
    {
      "channel": 2,
      "note": 57,
      "start": 5.7015,
      "duration": 0.0307,
      "velocity": 123,
      "chip": "ym2612"
    },
    {
      "channel": 2,
      "note": 57,
      "start": 5.7323,
      "duration": 0.0349,
      "velocity": 127,
      "chip": "ym2612"
    },
    {
      "channel": 0,
      "note": 69,
      "start": 5.7641,
      "duration": 0.096,
      "velocity": 123,
      "chip": "ym2612"
    },
    {
      "channel": 2,
      "note": 64,
      "start": 5.7675,
      "duration": 0.0936,
      "velocity": 127,
      "chip": "ym2612"
    },
    {
      "channel": 3,
      "note": 46,
      "start": 5.7707,
      "duration": 0.1896,
      "velocity": 114,
      "chip": "ym2612"
    },
    {
      "channel": 4,
      "note": 34,
      "start": 5.7716,
      "duration": 0.1896,
      "velocity": 110,
      "chip": "ym2612"
    },
    {
      "channel": 0,
      "note": 73,
      "start": 5.8604,
      "duration": 0.0961,
      "velocity": 123,
      "chip": "ym2612"
    },
    {
      "channel": 2,
      "note": 64,
      "start": 5.8613,
      "duration": 0.0961,
      "velocity": 127,
      "chip": "ym2612"
    },
    {
      "channel": 0,
      "note": 69,
      "start": 5.9567,
      "duration": 0.096,
      "velocity": 123,
      "chip": "ym2612"
    },
    {
      "channel": 2,
      "note": 64,
      "start": 5.9577,
      "duration": 0.096,
      "velocity": 127,
      "chip": "ym2612"
    },
    {
      "channel": 3,
      "note": 46,
      "start": 5.9605,
      "duration": 0.1932,
      "velocity": 114,
      "chip": "ym2612"
    },
    {
      "channel": 0,
      "note": 73,
      "start": 6.0529,
      "duration": 0.0933,
      "velocity": 123,
      "chip": "ym2612"
    },
    {
      "channel": 2,
      "note": 64,
      "start": 6.0539,
      "duration": 0.0961,
      "velocity": 107,
      "chip": "ym2612"
    },
    {
      "channel": 0,
      "note": 69,
      "start": 6.1464,
      "duration": 0.099,
      "velocity": 123,
      "chip": "ym2612"
    },
    {
      "channel": 1,
      "note": 25,
      "start": 6.1473,
      "duration": 2.9571,
      "velocity": 98,
      "chip": "ym2612"
    },
    {
      "channel": 2,
      "note": 26,
      "start": 6.1503,
      "duration": 0.0328,
      "velocity": 107,
      "chip": "ym2612"
    },
    {
      "channel": 3,
      "note": 46,
      "start": 6.1539,
      "duration": 0.1931,
      "velocity": 114,
      "chip": "ym2612"
    },
    {
      "channel": 4,
      "note": 34,
      "start": 6.1549,
      "duration": 0.1934,
      "velocity": 110,
      "chip": "ym2612"
    },
    {
      "channel": 2,
      "note": 26,
      "start": 6.1833,
      "duration": 0.1609,
      "velocity": 127,
      "chip": "ym2612"
    },
    {
      "channel": 0,
      "note": 73,
      "start": 6.2457,
      "duration": 0.0961,
      "velocity": 123,
      "chip": "ym2612"
    },
    {
      "channel": 0,
      "note": 69,
      "start": 6.3419,
      "duration": 0.0961,
      "velocity": 123,
      "chip": "ym2612"
    },
    {
      "channel": 2,
      "note": 59,
      "start": 6.3445,
      "duration": 0.1923,
      "velocity": 127,
      "chip": "ym2612"
    },
    {
      "channel": 3,
      "note": 46,
      "start": 6.3472,
      "duration": 0.1924,
      "velocity": 114,
      "chip": "ym2612"
    },
    {
      "channel": 0,
      "note": 73,
      "start": 6.4382,
      "duration": 0.0962,
      "velocity": 123,
      "chip": "ym2612"
    },
    {
      "channel": 5,
      "note": 25,
      "start": 6.4427,
      "duration": 2.9538,
      "velocity": 98,
      "chip": "ym2612"
    },
    {
      "channel": 0,
      "note": 69,
      "start": 6.5346,
      "duration": 0.0961,
      "velocity": 123,
      "chip": "ym2612"
    },
    {
      "channel": 2,
      "note": 59,
      "start": 6.537,
      "duration": 0.0308,
      "velocity": 127,
      "chip": "ym2612"
    },
    {
      "channel": 3,
      "note": 46,
      "start": 6.5398,
      "duration": 0.1936,
      "velocity": 114,
      "chip": "ym2612"
    },
    {
      "channel": 2,
      "note": 59,
      "start": 6.568,
      "duration": 0.1613,
      "velocity": 127,
      "chip": "ym2612"
    },
    {
      "channel": 0,
      "note": 73,
      "start": 6.6308,
      "duration": 0.0961,
      "velocity": 123,
      "chip": "ym2612"
    },
    {
      "channel": 0,
      "note": 69,
      "start": 6.7272,
      "duration": 0.0961,
      "velocity": 123,
      "chip": "ym2612"
    },
    {
      "channel": 2,
      "note": 64,
      "start": 6.7296,
      "duration": 0.1926,
      "velocity": 123,
      "chip": "ym2612"
    },
    {
      "channel": 3,
      "note": 46,
      "start": 6.7337,
      "duration": 0.1913,
      "velocity": 114,
      "chip": "ym2612"
    },
    {
      "channel": 4,
      "note": 34,
      "start": 6.7346,
      "duration": 0.1913,
      "velocity": 110,
      "chip": "ym2612"
    },
    {
      "channel": 0,
      "note": 73,
      "start": 6.8234,
      "duration": 0.0962,
      "velocity": 123,
      "chip": "ym2612"
    },
    {
      "channel": 0,
      "note": 69,
      "start": 6.9198,
      "duration": 0.0962,
      "velocity": 123,
      "chip": "ym2612"
    },
    {
      "channel": 2,
      "note": 57,
      "start": 6.9224,
      "duration": 0.031,
      "velocity": 123,
      "chip": "ym2612"
    },
    {
      "channel": 3,
      "note": 46,
      "start": 6.9251,
      "duration": 0.1939,
      "velocity": 114,
      "chip": "ym2612"
    },
    {
      "channel": 2,
      "note": 57,
      "start": 6.9536,
      "duration": 0.0327,
      "velocity": 123,
      "chip": "ym2612"
    },
    {
      "channel": 2,
      "note": 57,
      "start": 6.9866,
      "duration": 0.0307,
      "velocity": 123,
      "chip": "ym2612"
    },
    {
      "channel": 0,
      "note": 73,
      "start": 7.0162,
      "duration": 0.0959,
      "velocity": 123,
      "chip": "ym2612"
    },
    {
      "channel": 2,
      "note": 57,
      "start": 7.0175,
      "duration": 0.0324,
      "velocity": 123,
      "chip": "ym2612"
    },
    {
      "channel": 2,
      "note": 57,
      "start": 7.0501,
      "duration": 0.0297,
      "velocity": 123,
      "chip": "ym2612"
    },
    {
      "channel": 2,
      "note": 57,
      "start": 7.08,
      "duration": 0.0355,
      "velocity": 127,
      "chip": "ym2612"
    },
    {
      "channel": 0,
      "note": 69,
      "start": 7.1124,
      "duration": 0.099,
      "velocity": 123,
      "chip": "ym2612"
    },
    {
      "channel": 2,
      "note": 59,
      "start": 7.1157,
      "duration": 0.0335,
      "velocity": 127,
      "chip": "ym2612"
    },
    {
      "channel": 3,
      "note": 46,
      "start": 7.1192,
      "duration": 0.1913,
      "velocity": 114,
      "chip": "ym2612"
    },
    {
      "channel": 4,
      "note": 34,
      "start": 7.1201,
      "duration": 0.1913,
      "velocity": 110,
      "chip": "ym2612"
    },
    {
      "channel": 2,
      "note": 59,
      "start": 7.1494,
      "duration": 0.1579,
      "velocity": 127,
      "chip": "ym2612"
    },
    {
      "channel": 0,
      "note": 73,
      "start": 7.2116,
      "duration": 0.0933,
      "velocity": 123,
      "chip": "ym2612"
    },
    {
      "channel": 0,
      "note": 69,
      "start": 7.305,
      "duration": 0.0989,
      "velocity": 123,
      "chip": "ym2612"
    },
    {
      "channel": 2,
      "note": 66,
      "start": 7.3076,
      "duration": 0.0974,
      "velocity": 127,
      "chip": "ym2612"
    },
    {
      "channel": 3,
      "note": 46,
      "start": 7.3108,
      "duration": 0.1912,
      "velocity": 114,
      "chip": "ym2612"
    },
    {
      "channel": 4,
      "note": 34,
      "start": 7.3117,
      "duration": 0.1912,
      "velocity": 110,
      "chip": "ym2612"
    },
    {
      "channel": 0,
      "note": 73,
      "start": 7.4042,
      "duration": 0.0932,
      "velocity": 123,
      "chip": "ym2612"
    },
    {
      "channel": 2,
      "note": 66,
      "start": 7.4052,
      "duration": 0.0939,
      "velocity": 127,
      "chip": "ym2612"
    },
    {
      "channel": 0,
      "note": 69,
      "start": 7.4977,
      "duration": 0.0989,
      "velocity": 123,
      "chip": "ym2612"
    },
    {
      "channel": 2,
      "note": 66,
      "start": 7.4993,
      "duration": 0.0983,
      "velocity": 127,
      "chip": "ym2612"
    },
    {
      "channel": 3,
      "note": 46,
      "start": 7.5022,
      "duration": 0.1932,
      "velocity": 114,
      "chip": "ym2612"
    },
    {
      "channel": 0,
      "note": 73,
      "start": 7.5968,
      "duration": 0.0934,
      "velocity": 123,
      "chip": "ym2612"
    },
    {
      "channel": 2,
      "note": 66,
      "start": 7.5978,
      "duration": 0.0947,
      "velocity": 123,
      "chip": "ym2612"
    },
    {
      "channel": 0,
      "note": 69,
      "start": 7.6903,
      "duration": 0.0989,
      "velocity": 123,
      "chip": "ym2612"
    },
    {
      "channel": 2,
      "note": 68,
      "start": 7.6928,
      "duration": 0.0974,
      "velocity": 123,
      "chip": "ym2612"
    },
    {
      "channel": 3,
      "note": 46,
      "start": 7.6956,
      "duration": 0.1932,
      "velocity": 114,
      "chip": "ym2612"
    },
    {
      "channel": 0,
      "note": 73,
      "start": 7.7894,
      "duration": 0.0934,
      "velocity": 123,
      "chip": "ym2612"
    },
    {
      "channel": 2,
      "note": 68,
      "start": 7.7904,
      "duration": 0.0949,
      "velocity": 107,
      "chip": "ym2612"
    },
    {
      "channel": 0,
      "note": 69,
      "start": 7.883,
      "duration": 0.0994,
      "velocity": 123,
      "chip": "ym2612"
    },
    {
      "channel": 2,
      "note": 30,
      "start": 7.8855,
      "duration": 0.0335,
      "velocity": 107,
      "chip": "ym2612"
    },
    {
      "channel": 3,
      "note": 46,
      "start": 7.889,
      "duration": 0.1915,
      "velocity": 114,
      "chip": "ym2612"
    },
    {
      "channel": 4,
      "note": 34,
      "start": 7.8899,
      "duration": 0.1922,
      "velocity": 110,
      "chip": "ym2612"
    },
    {
      "channel": 2,
      "note": 30,
      "start": 7.9192,
      "duration": 0.1586,
      "velocity": 123,
      "chip": "ym2612"
    },
    {
      "channel": 0,
      "note": 73,
      "start": 7.9826,
      "duration": 0.0927,
      "velocity": 123,
      "chip": "ym2612"
    },
    {
      "channel": 0,
      "note": 69,
      "start": 8.0755,
      "duration": 0.0989,
      "velocity": 123,
      "chip": "ym2612"
    },
    {
      "channel": 2,
      "note": 59,
      "start": 8.078,
      "duration": 0.0975,
      "velocity": 123,
      "chip": "ym2612"
    },
    {
      "channel": 3,
      "note": 46,
      "start": 8.0808,
      "duration": 0.1931,
      "velocity": 114,
      "chip": "ym2612"
    },
    {
      "channel": 0,
      "note": 73,
      "start": 8.1746,
      "duration": 0.0933,
      "velocity": 123,
      "chip": "ym2612"
    },
    {
      "channel": 2,
      "note": 59,
      "start": 8.1756,
      "duration": 0.0947,
      "velocity": 107,
      "chip": "ym2612"
    },
    {
      "channel": 0,
      "note": 69,
      "start": 8.2681,
      "duration": 0.0989,
      "velocity": 123,
      "chip": "ym2612"
    },
    {
      "channel": 2,
      "note": 27,
      "start": 8.2706,
      "duration": 0.0337,
      "velocity": 107,
      "chip": "ym2612"
    },
    {
      "channel": 3,
      "note": 46,
      "start": 8.2742,
      "duration": 0.1923,
      "velocity": 114,
      "chip": "ym2612"
    },
    {
      "channel": 4,
      "note": 34,
      "start": 8.2751,
      "duration": 0.1923,
      "velocity": 110,
      "chip": "ym2612"
    },
    {
      "channel": 2,
      "note": 27,
      "start": 8.3045,
      "duration": 0.1586,
      "velocity": 127,
      "chip": "ym2612"
    },
    {
      "channel": 0,
      "note": 73,
      "start": 8.3673,
      "duration": 0.0933,
      "velocity": 123,
      "chip": "ym2612"
    },
    {
      "channel": 0,
      "note": 69,
      "start": 8.4608,
      "duration": 0.0988,
      "velocity": 123,
      "chip": "ym2612"
    },
    {
      "channel": 2,
      "note": 59,
      "start": 8.4633,
      "duration": 0.0335,
      "velocity": 127,
      "chip": "ym2612"
    },
    {
      "channel": 3,
      "note": 46,
      "start": 8.4667,
      "duration": 0.1926,
      "velocity": 114,
      "chip": "ym2612"
    },
    {
      "channel": 2,
      "note": 59,
      "start": 8.4971,
      "duration": 0.1587,
      "velocity": 123,
      "chip": "ym2612"
    },
    {
      "channel": 0,
      "note": 73,
      "start": 8.5599,
      "duration": 0.0933,
      "velocity": 123,
      "chip": "ym2612"
    },
    {
      "channel": 0,
      "note": 69,
      "start": 8.6534,
      "duration": 0.0989,
      "velocity": 123,
      "chip": "ym2612"
    },
    {
      "channel": 2,
      "note": 57,
      "start": 8.656,
      "duration": 0.0337,
      "velocity": 123,
      "chip": "ym2612"
    },
    {
      "channel": 3,
      "note": 46,
      "start": 8.6595,
      "duration": 0.1928,
      "velocity": 114,
      "chip": "ym2612"
    },
    {
      "channel": 4,
      "note": 34,
      "start": 8.6605,
      "duration": 0.1928,
      "velocity": 110,
      "chip": "ym2612"
    },
    {
      "channel": 2,
      "note": 57,
      "start": 8.69,
      "duration": 0.03,
      "velocity": 123,
      "chip": "ym2612"
    },
    {
      "channel": 2,
      "note": 57,
      "start": 8.7201,
      "duration": 0.0334,
      "velocity": 123,
      "chip": "ym2612"
    },
    {
      "channel": 0,
      "note": 73,
      "start": 8.7525,
      "duration": 0.0933,
      "velocity": 123,
      "chip": "ym2612"
    },
    {
      "channel": 2,
      "note": 57,
      "start": 8.7538,
      "duration": 0.0295,
      "velocity": 123,
      "chip": "ym2612"
    },
    {
      "channel": 2,
      "note": 57,
      "start": 8.7835,
      "duration": 0.033,
      "velocity": 123,
      "chip": "ym2612"
    },
    {
      "channel": 2,
      "note": 57,
      "start": 8.8167,
      "duration": 0.0324,
      "velocity": 127,
      "chip": "ym2612"
    },
    {
      "channel": 0,
      "note": 69,
      "start": 8.8459,
      "duration": 0.0989,
      "velocity": 123,
      "chip": "ym2612"
    },
    {
      "channel": 2,
      "note": 64,
      "start": 8.8494,
      "duration": 0.0965,
      "velocity": 127,
      "chip": "ym2612"
    },
    {
      "channel": 3,
      "note": 46,
      "start": 8.8526,
      "duration": 0.1896,
      "velocity": 114,
      "chip": "ym2612"
    },
    {
      "channel": 4,
      "note": 34,
      "start": 8.8534,
      "duration": 0.1896,
      "velocity": 110,
      "chip": "ym2612"
    },
    {
      "channel": 0,
      "note": 73,
      "start": 8.9451,
      "duration": 0.0933,
      "velocity": 123,
      "chip": "ym2612"
    },
    {
      "channel": 2,
      "note": 64,
      "start": 8.9461,
      "duration": 0.0932,
      "velocity": 127,
      "chip": "ym2612"
    },
    {
      "channel": 0,
      "note": 69,
      "start": 9.0386,
      "duration": 0.096,
      "velocity": 123,
      "chip": "ym2612"
    },
    {
      "channel": 2,
      "note": 64,
      "start": 9.0396,
      "duration": 0.096,
      "velocity": 127,
      "chip": "ym2612"
    },
    {
      "channel": 3,
      "note": 46,
      "start": 9.0424,
      "duration": 0.1958,
      "velocity": 114,
      "chip": "ym2612"
    },
    {
      "channel": 0,
      "note": 73,
      "start": 9.1347,
      "duration": 0.0962,
      "velocity": 123,
      "chip": "ym2612"
    },
    {
      "channel": 2,
      "note": 64,
      "start": 9.1358,
      "duration": 0.0987,
      "velocity": 107,
      "chip": "ym2612"
    },
    {
      "channel": 0,
      "note": 69,
      "start": 9.2312,
      "duration": 0.0988,
      "velocity": 123,
      "chip": "ym2612"
    },
    {
      "channel": 1,
      "note": 27,
      "start": 9.2324,
      "duration": 2.9539,
      "velocity": 98,
      "chip": "ym2612"
    },
    {
      "channel": 2,
      "note": 26,
      "start": 9.2347,
      "duration": 0.0326,
      "velocity": 107,
      "chip": "ym2612"
    },
    {
      "channel": 3,
      "note": 46,
      "start": 9.2384,
      "duration": 0.1905,
      "velocity": 114,
      "chip": "ym2612"
    },
    {
      "channel": 4,
      "note": 34,
      "start": 9.2393,
      "duration": 0.1905,
      "velocity": 110,
      "chip": "ym2612"
    },
    {
      "channel": 2,
      "note": 26,
      "start": 9.2675,
      "duration": 0.1586,
      "velocity": 127,
      "chip": "ym2612"
    },
    {
      "channel": 0,
      "note": 73,
      "start": 9.3303,
      "duration": 0.0933,
      "velocity": 123,
      "chip": "ym2612"
    },
    {
      "channel": 0,
      "note": 69,
      "start": 9.4239,
      "duration": 0.0988,
      "velocity": 123,
      "chip": "ym2612"
    },
    {
      "channel": 2,
      "note": 59,
      "start": 9.4263,
      "duration": 0.1923,
      "velocity": 127,
      "chip": "ym2612"
    },
    {
      "channel": 3,
      "note": 46,
      "start": 9.4291,
      "duration": 0.1923,
      "velocity": 114,
      "chip": "ym2612"
    },
    {
      "channel": 0,
      "note": 73,
      "start": 9.5229,
      "duration": 0.0933,
      "velocity": 123,
      "chip": "ym2612"
    },
    {
      "channel": 5,
      "note": 27,
      "start": 9.5272,
      "duration": 2.9513,
      "velocity": 98,
      "chip": "ym2612"
    },
    {
      "channel": 0,
      "note": 69,
      "start": 9.6164,
      "duration": 0.0994,
      "velocity": 123,
      "chip": "ym2612"
    },
    {
      "channel": 2,
      "note": 59,
      "start": 9.6188,
      "duration": 0.0337,
      "velocity": 127,
      "chip": "ym2612"
    },
    {
      "channel": 3,
      "note": 46,
      "start": 9.6217,
      "duration": 0.1937,
      "velocity": 114,
      "chip": "ym2612"
    },
    {
      "channel": 2,
      "note": 59,
      "start": 9.6527,
      "duration": 0.1585,
      "velocity": 127,
      "chip": "ym2612"
    },
    {
      "channel": 0,
      "note": 73,
      "start": 9.716,
      "duration": 0.0928,
      "velocity": 123,
      "chip": "ym2612"
    },
    {
      "channel": 0,
      "note": 69,
      "start": 9.809,
      "duration": 0.0988,
      "velocity": 123,
      "chip": "ym2612"
    },
    {
      "channel": 2,
      "note": 64,
      "start": 9.8115,
      "duration": 0.1926,
      "velocity": 123,
      "chip": "ym2612"
    },
    {
      "channel": 3,
      "note": 46,
      "start": 9.8155,
      "duration": 0.1912,
      "velocity": 114,
      "chip": "ym2612"
    },
    {
      "channel": 4,
      "note": 34,
      "start": 9.8164,
      "duration": 0.1912,
      "velocity": 110,
      "chip": "ym2612"
    },
    {
      "channel": 0,
      "note": 73,
      "start": 9.9081,
      "duration": 0.0934,
      "velocity": 123,
      "chip": "ym2612"
    },
    {
      "channel": 0,
      "note": 69,
      "start": 10.0017,
      "duration": 0.0989,
      "velocity": 123,
      "chip": "ym2612"
    },
    {
      "channel": 2,
      "note": 57,
      "start": 10.0043,
      "duration": 0.0337,
      "velocity": 123,
      "chip": "ym2612"
    },
    {
      "channel": 3,
      "note": 46,
      "start": 10.007,
      "duration": 0.194,
      "velocity": 114,
      "chip": "ym2612"
    },
    {
      "channel": 2,
      "note": 57,
      "start": 10.0383,
      "duration": 0.03,
      "velocity": 123,
      "chip": "ym2612"
    },
    {
      "channel": 2,
      "note": 57,
      "start": 10.0685,
      "duration": 0.0333,
      "velocity": 123,
      "chip": "ym2612"
    },
    {
      "channel": 0,
      "note": 73,
      "start": 10.1008,
      "duration": 0.0933,
      "velocity": 123,
      "chip": "ym2612"
    },
    {
      "channel": 2,
      "note": 57,
      "start": 10.102,
      "duration": 0.0301,
      "velocity": 123,
      "chip": "ym2612"
    },
    {
      "channel": 2,
      "note": 57,
      "start": 10.1323,
      "duration": 0.0322,
      "velocity": 123,
      "chip": "ym2612"
    },
    {
      "channel": 2,
      "note": 57,
      "start": 10.1654,
      "duration": 0.0314,
      "velocity": 127,
      "chip": "ym2612"
    },
    {
      "channel": 0,
      "note": 69,
      "start": 10.1943,
      "duration": 0.0989,
      "velocity": 123,
      "chip": "ym2612"
    },
    {
      "channel": 2,
      "note": 59,
      "start": 10.197,
      "duration": 0.0334,
      "velocity": 127,
      "chip": "ym2612"
    },
    {
      "channel": 3,
      "note": 46,
      "start": 10.2012,
      "duration": 0.1941,
      "velocity": 114,
      "chip": "ym2612"
    },
    {
      "channel": 4,
      "note": 34,
      "start": 10.202,
      "duration": 0.1941,
      "velocity": 110,
      "chip": "ym2612"
    },
    {
      "channel": 2,
      "note": 59,
      "start": 10.2307,
      "duration": 0.1614,
      "velocity": 127,
      "chip": "ym2612"
    },
    {
      "channel": 0,
      "note": 73,
      "start": 10.2935,
      "duration": 0.0961,
      "velocity": 123,
      "chip": "ym2612"
    },
    {
      "channel": 0,
      "note": 69,
      "start": 10.3898,
      "duration": 0.0961,
      "velocity": 123,
      "chip": "ym2612"
    },
    {
      "channel": 2,
      "note": 66,
      "start": 10.3922,
      "duration": 0.0946,
      "velocity": 127,
      "chip": "ym2612"
    },
    {
      "channel": 3,
      "note": 46,
      "start": 10.3955,
      "duration": 0.1909,
      "velocity": 114,
      "chip": "ym2612"
    },
    {
      "channel": 4,
      "note": 34,
      "start": 10.3964,
      "duration": 0.1909,
      "velocity": 110,
      "chip": "ym2612"
    },
    {
      "channel": 0,
      "note": 73,
      "start": 10.486,
      "duration": 0.0966,
      "velocity": 123,
      "chip": "ym2612"
    },
    {
      "channel": 2,
      "note": 66,
      "start": 10.487,
      "duration": 0.0965,
      "velocity": 127,
      "chip": "ym2612"
    },
    {
      "channel": 0,
      "note": 69,
      "start": 10.5828,
      "duration": 0.0957,
      "velocity": 123,
      "chip": "ym2612"
    },
    {
      "channel": 2,
      "note": 66,
      "start": 10.5838,
      "duration": 0.0956,
      "velocity": 127,
      "chip": "ym2612"
    },
    {
      "channel": 3,
      "note": 46,
      "start": 10.5866,
      "duration": 0.1935,
      "velocity": 114,
      "chip": "ym2612"
    },
    {
      "channel": 0,
      "note": 73,
      "start": 10.6786,
      "duration": 0.0962,
      "velocity": 123,
      "chip": "ym2612"
    },
    {
      "channel": 2,
      "note": 66,
      "start": 10.6797,
      "duration": 0.0976,
      "velocity": 123,
      "chip": "ym2612"
    },
    {
      "channel": 0,
      "note": 69,
      "start": 10.7751,
      "duration": 0.0961,
      "velocity": 123,
      "chip": "ym2612"
    },
    {
      "channel": 2,
      "note": 68,
      "start": 10.7775,
      "duration": 0.0947,
      "velocity": 123,
      "chip": "ym2612"
    },
    {
      "channel": 3,
      "note": 46,
      "start": 10.7804,
      "duration": 0.193,
      "velocity": 114,
      "chip": "ym2612"
    },
    {
      "channel": 0,
      "note": 73,
      "start": 10.8713,
      "duration": 0.0961,
      "velocity": 123,
      "chip": "ym2612"
    },
    {
      "channel": 2,
      "note": 68,
      "start": 10.8723,
      "duration": 0.0975,
      "velocity": 107,
      "chip": "ym2612"
    },
    {
      "channel": 0,
      "note": 69,
      "start": 10.9676,
      "duration": 0.0961,
      "velocity": 123,
      "chip": "ym2612"
    },
    {
      "channel": 2,
      "note": 30,
      "start": 10.97,
      "duration": 0.0308,
      "velocity": 107,
      "chip": "ym2612"
    },
    {
      "channel": 3,
      "note": 46,
      "start": 10.9736,
      "duration": 0.1923,
      "velocity": 114,
      "chip": "ym2612"
    },
    {
      "channel": 4,
      "note": 34,
      "start": 10.9745,
      "duration": 0.1923,
      "velocity": 110,
      "chip": "ym2612"
    },
    {
      "channel": 2,
      "note": 30,
      "start": 11.0011,
      "duration": 0.1614,
      "velocity": 123,
      "chip": "ym2612"
    },
    {
      "channel": 0,
      "note": 73,
      "start": 11.0639,
      "duration": 0.0961,
      "velocity": 123,
      "chip": "ym2612"
    },
    {
      "channel": 0,
      "note": 69,
      "start": 11.1602,
      "duration": 0.0961,
      "velocity": 123,
      "chip": "ym2612"
    },
    {
      "channel": 2,
      "note": 59,
      "start": 11.1627,
      "duration": 0.0945,
      "velocity": 123,
      "chip": "ym2612"
    },
    {
      "channel": 3,
      "note": 46,
      "start": 11.1662,
      "duration": 0.1925,
      "velocity": 114,
      "chip": "ym2612"
    },
    {
      "channel": 0,
      "note": 73,
      "start": 11.2565,
      "duration": 0.0961,
      "velocity": 123,
      "chip": "ym2612"
    },
    {
      "channel": 2,
      "note": 59,
      "start": 11.2575,
      "duration": 0.0976,
      "velocity": 107,
      "chip": "ym2612"
    },
    {
      "channel": 0,
      "note": 69,
      "start": 11.3528,
      "duration": 0.0964,
      "velocity": 123,
      "chip": "ym2612"
    },
    {
      "channel": 2,
      "note": 27,
      "start": 11.3553,
      "duration": 0.0308,
      "velocity": 107,
      "chip": "ym2612"
    },
    {
      "channel": 3,
      "note": 46,
      "start": 11.3588,
      "duration": 0.1924,
      "velocity": 114,
      "chip": "ym2612"
    },
    {
      "channel": 4,
      "note": 34,
      "start": 11.3598,
      "duration": 0.1924,
      "velocity": 110,
      "chip": "ym2612"
    },
    {
      "channel": 2,
      "note": 27,
      "start": 11.3863,
      "duration": 0.1615,
      "velocity": 127,
      "chip": "ym2612"
    },
    {
      "channel": 0,
      "note": 73,
      "start": 11.4495,
      "duration": 0.0957,
      "velocity": 123,
      "chip": "ym2612"
    },
    {
      "channel": 0,
      "note": 69,
      "start": 11.5455,
      "duration": 0.0961,
      "velocity": 123,
      "chip": "ym2612"
    },
    {
      "channel": 2,
      "note": 59,
      "start": 11.5487,
      "duration": 0.0301,
      "velocity": 127,
      "chip": "ym2612"
    },
    {
      "channel": 3,
      "note": 46,
      "start": 11.5514,
      "duration": 0.1926,
      "velocity": 114,
      "chip": "ym2612"
    },
    {
      "channel": 2,
      "note": 59,
      "start": 11.579,
      "duration": 0.1614,
      "velocity": 123,
      "chip": "ym2612"
    },
    {
      "channel": 0,
      "note": 73,
      "start": 11.6418,
      "duration": 0.096,
      "velocity": 123,
      "chip": "ym2612"
    },
    {
      "channel": 0,
      "note": 69,
      "start": 11.738,
      "duration": 0.0961,
      "velocity": 123,
      "chip": "ym2612"
    },
    {
      "channel": 2,
      "note": 57,
      "start": 11.7406,
      "duration": 0.031,
      "velocity": 123,
      "chip": "ym2612"
    },
    {
      "channel": 3,
      "note": 46,
      "start": 11.7441,
      "duration": 0.1929,
      "velocity": 114,
      "chip": "ym2612"
    },
    {
      "channel": 4,
      "note": 34,
      "start": 11.7451,
      "duration": 0.1929,
      "velocity": 110,
      "chip": "ym2612"
    },
    {
      "channel": 2,
      "note": 57,
      "start": 11.7718,
      "duration": 0.0328,
      "velocity": 123,
      "chip": "ym2612"
    },
    {
      "channel": 2,
      "note": 57,
      "start": 11.8049,
      "duration": 0.0305,
      "velocity": 123,
      "chip": "ym2612"
    },
    {
      "channel": 0,
      "note": 73,
      "start": 11.8343,
      "duration": 0.0961,
      "velocity": 123,
      "chip": "ym2612"
    },
    {
      "channel": 2,
      "note": 57,
      "start": 11.8356,
      "duration": 0.0323,
      "velocity": 123,
      "chip": "ym2612"
    },
    {
      "channel": 2,
      "note": 57,
      "start": 11.8681,
      "duration": 0.0306,
      "velocity": 123,
      "chip": "ym2612"
    },
    {
      "channel": 2,
      "note": 57,
      "start": 11.8989,
      "duration": 0.0349,
      "velocity": 127,
      "chip": "ym2612"
    },
    {
      "channel": 0,
      "note": 69,
      "start": 11.9306,
      "duration": 0.0961,
      "velocity": 123,
      "chip": "ym2612"
    },
    {
      "channel": 2,
      "note": 64,
      "start": 11.934,
      "duration": 0.0937,
      "velocity": 127,
      "chip": "ym2612"
    },
    {
      "channel": 3,
      "note": 46,
      "start": 11.9372,
      "duration": 0.1896,
      "velocity": 114,
      "chip": "ym2612"
    },
    {
      "channel": 4,
      "note": 34,
      "start": 11.9381,
      "duration": 0.1896,
      "velocity": 110,
      "chip": "ym2612"
    },
    {
      "channel": 0,
      "note": 73,
      "start": 12.0269,
      "duration": 0.0961,
      "velocity": 123,
      "chip": "ym2612"
    },
    {
      "channel": 2,
      "note": 64,
      "start": 12.0279,
      "duration": 0.0961,
      "velocity": 127,
      "chip": "ym2612"
    },
    {
      "channel": 0,
      "note": 69,
      "start": 12.1232,
      "duration": 0.096,
      "velocity": 123,
      "chip": "ym2612"
    },
    {
      "channel": 2,
      "note": 64,
      "start": 12.1242,
      "duration": 0.096,
      "velocity": 127,
      "chip": "ym2612"
    },
    {
      "channel": 3,
      "note": 46,
      "start": 12.1271,
      "duration": 0.1939,
      "velocity": 114,
      "chip": "ym2612"
    },
    {
      "channel": 0,
      "note": 73,
      "start": 12.2195,
      "duration": 0.0933,
      "velocity": 123,
      "chip": "ym2612"
    },
    {
      "channel": 2,
      "note": 64,
      "start": 12.2204,
      "duration": 0.0962,
      "velocity": 107,
      "chip": "ym2612"
    },
    {
      "channel": 0,
      "note": 69,
      "start": 12.313,
      "duration": 0.099,
      "velocity": 123,
      "chip": "ym2612"
    },
    {
      "channel": 1,
      "note": 23,
      "start": 12.314,
      "duration": 2.957,
      "velocity": 98,
      "chip": "ym2612"
    },
    {
      "channel": 2,
      "note": 26,
      "start": 12.3169,
      "duration": 0.0327,
      "velocity": 107,
      "chip": "ym2612"
    },
    {
      "channel": 3,
      "note": 47,
      "start": 12.3212,
      "duration": 0.1924,
      "velocity": 114,
      "chip": "ym2612"
    },
    {
      "channel": 4,
      "note": 35,
      "start": 12.3223,
      "duration": 0.1922,
      "velocity": 110,
      "chip": "ym2612"
    },
    {
      "channel": 2,
      "note": 26,
      "start": 12.3499,
      "duration": 0.1609,
      "velocity": 127,
      "chip": "ym2612"
    },
    {
      "channel": 0,
      "note": 73,
      "start": 12.4122,
      "duration": 0.0961,
      "velocity": 123,
      "chip": "ym2612"
    },
    {
      "channel": 0,
      "note": 69,
      "start": 12.5085,
      "duration": 0.0961,
      "velocity": 123,
      "chip": "ym2612"
    },
    {
      "channel": 2,
      "note": 59,
      "start": 12.511,
      "duration": 0.1923,
      "velocity": 127,
      "chip": "ym2612"
    },
    {
      "channel": 3,
      "note": 47,
      "start": 12.5138,
      "duration": 0.1923,
      "velocity": 114,
      "chip": "ym2612"
    },
    {
      "channel": 0,
      "note": 73,
      "start": 12.6048,
      "duration": 0.0961,
      "velocity": 123,
      "chip": "ym2612"
    },
    {
      "channel": 5,
      "note": 23,
      "start": 12.6095,
      "duration": 2.9536,
      "velocity": 98,
      "chip": "ym2612"
    },
    {
      "channel": 0,
      "note": 69,
      "start": 12.7011,
      "duration": 0.0961,
      "velocity": 123,
      "chip": "ym2612"
    },
    {
      "channel": 2,
      "note": 59,
      "start": 12.7036,
      "duration": 0.0308,
      "velocity": 127,
      "chip": "ym2612"
    },
    {
      "channel": 3,
      "note": 47,
      "start": 12.7064,
      "duration": 0.1936,
      "velocity": 114,
      "chip": "ym2612"
    },
    {
      "channel": 2,
      "note": 59,
      "start": 12.7346,
      "duration": 0.1614,
      "velocity": 127,
      "chip": "ym2612"
    },
    {
      "channel": 0,
      "note": 73,
      "start": 12.7974,
      "duration": 0.0961,
      "velocity": 123,
      "chip": "ym2612"
    },
    {
      "channel": 0,
      "note": 69,
      "start": 12.8937,
      "duration": 0.0961,
      "velocity": 123,
      "chip": "ym2612"
    },
    {
      "channel": 2,
      "note": 64,
      "start": 12.8961,
      "duration": 0.1926,
      "velocity": 123,
      "chip": "ym2612"
    },
    {
      "channel": 3,
      "note": 47,
      "start": 12.9003,
      "duration": 0.1912,
      "velocity": 114,
      "chip": "ym2612"
    },
    {
      "channel": 4,
      "note": 35,
      "start": 12.9011,
      "duration": 0.1913,
      "velocity": 110,
      "chip": "ym2612"
    },
    {
      "channel": 0,
      "note": 73,
      "start": 12.99,
      "duration": 0.0962,
      "velocity": 123,
      "chip": "ym2612"
    },
    {
      "channel": 0,
      "note": 69,
      "start": 13.0864,
      "duration": 0.0963,
      "velocity": 123,
      "chip": "ym2612"
    },
    {
      "channel": 2,
      "note": 57,
      "start": 13.0889,
      "duration": 0.031,
      "velocity": 123,
      "chip": "ym2612"
    },
    {
      "channel": 3,
      "note": 47,
      "start": 13.0917,
      "duration": 0.1938,
      "velocity": 114,
      "chip": "ym2612"
    },
    {
      "channel": 2,
      "note": 57,
      "start": 13.1202,
      "duration": 0.0328,
      "velocity": 123,
      "chip": "ym2612"
    },
    {
      "channel": 2,
      "note": 57,
      "start": 13.1531,
      "duration": 0.0309,
      "velocity": 123,
      "chip": "ym2612"
    },
    {
      "channel": 0,
      "note": 73,
      "start": 13.1829,
      "duration": 0.0958,
      "velocity": 123,
      "chip": "ym2612"
    },
    {
      "channel": 2,
      "note": 57,
      "start": 13.1842,
      "duration": 0.0323,
      "velocity": 123,
      "chip": "ym2612"
    },
    {
      "channel": 2,
      "note": 57,
      "start": 13.2167,
      "duration": 0.0297,
      "velocity": 123,
      "chip": "ym2612"
    },
    {
      "channel": 2,
      "note": 57,
      "start": 13.2466,
      "duration": 0.0355,
      "velocity": 127,
      "chip": "ym2612"
    },
    {
      "channel": 0,
      "note": 69,
      "start": 13.279,
      "duration": 0.099,
      "velocity": 123,
      "chip": "ym2612"
    },
    {
      "channel": 2,
      "note": 59,
      "start": 13.2823,
      "duration": 0.0335,
      "velocity": 127,
      "chip": "ym2612"
    },
    {
      "channel": 3,
      "note": 47,
      "start": 13.2858,
      "duration": 0.1914,
      "velocity": 114,
      "chip": "ym2612"
    },
    {
      "channel": 4,
      "note": 35,
      "start": 13.2866,
      "duration": 0.1914,
      "velocity": 110,
      "chip": "ym2612"
    },
    {
      "channel": 2,
      "note": 59,
      "start": 13.316,
      "duration": 0.1579,
      "velocity": 127,
      "chip": "ym2612"
    },
    {
      "channel": 0,
      "note": 73,
      "start": 13.3781,
      "duration": 0.0933,
      "velocity": 123,
      "chip": "ym2612"
    },
    {
      "channel": 0,
      "note": 69,
      "start": 13.4716,
      "duration": 0.0989,
      "velocity": 123,
      "chip": "ym2612"
    },
    {
      "channel": 2,
      "note": 66,
      "start": 13.4741,
      "duration": 0.0974,
      "velocity": 127,
      "chip": "ym2612"
    },
    {
      "channel": 3,
      "note": 47,
      "start": 13.4774,
      "duration": 0.1911,
      "velocity": 114,
      "chip": "ym2612"
    },
    {
      "channel": 4,
      "note": 35,
      "start": 13.4782,
      "duration": 0.1912,
      "velocity": 110,
      "chip": "ym2612"
    },
    {
      "channel": 0,
      "note": 73,
      "start": 13.5707,
      "duration": 0.0933,
      "velocity": 123,
      "chip": "ym2612"
    },
    {
      "channel": 2,
      "note": 66,
      "start": 13.5718,
      "duration": 0.0939,
      "velocity": 127,
      "chip": "ym2612"
    },
    {
      "channel": 0,
      "note": 69,
      "start": 13.6642,
      "duration": 0.099,
      "velocity": 123,
      "chip": "ym2612"
    },
    {
      "channel": 2,
      "note": 66,
      "start": 13.6659,
      "duration": 0.0983,
      "velocity": 127,
      "chip": "ym2612"
    },
    {
      "channel": 3,
      "note": 47,
      "start": 13.6687,
      "duration": 0.1933,
      "velocity": 114,
      "chip": "ym2612"
    },
    {
      "channel": 0,
      "note": 73,
      "start": 13.7634,
      "duration": 0.0933,
      "velocity": 123,
      "chip": "ym2612"
    },
    {
      "channel": 2,
      "note": 66,
      "start": 13.7644,
      "duration": 0.0947,
      "velocity": 123,
      "chip": "ym2612"
    },
    {
      "channel": 0,
      "note": 69,
      "start": 13.8569,
      "duration": 0.0989,
      "velocity": 123,
      "chip": "ym2612"
    },
    {
      "channel": 2,
      "note": 68,
      "start": 13.8594,
      "duration": 0.0974,
      "velocity": 123,
      "chip": "ym2612"
    },
    {
      "channel": 3,
      "note": 47,
      "start": 13.8622,
      "duration": 0.1933,
      "velocity": 114,
      "chip": "ym2612"
    },
    {
      "channel": 0,
      "note": 73,
      "start": 13.956,
      "duration": 0.0934,
      "velocity": 123,
      "chip": "ym2612"
    },
    {
      "channel": 2,
      "note": 68,
      "start": 13.9569,
      "duration": 0.095,
      "velocity": 107,
      "chip": "ym2612"
    },
    {
      "channel": 0,
      "note": 69,
      "start": 14.0496,
      "duration": 0.0994,
      "velocity": 123,
      "chip": "ym2612"
    },
    {
      "channel": 2,
      "note": 30,
      "start": 14.0521,
      "duration": 0.0335,
      "velocity": 107,
      "chip": "ym2612"
    },
    {
      "channel": 3,
      "note": 47,
      "start": 14.0557,
      "duration": 0.1915,
      "velocity": 114,
      "chip": "ym2612"
    },
    {
      "channel": 4,
      "note": 35,
      "start": 14.0565,
      "duration": 0.1922,
      "velocity": 110,
      "chip": "ym2612"
    },
    {
      "channel": 2,
      "note": 30,
      "start": 14.0858,
      "duration": 0.1586,
      "velocity": 123,
      "chip": "ym2612"
    },
    {
      "channel": 0,
      "note": 73,
      "start": 14.1493,
      "duration": 0.0926,
      "velocity": 123,
      "chip": "ym2612"
    },
    {
      "channel": 0,
      "note": 69,
      "start": 14.2421,
      "duration": 0.0989,
      "velocity": 123,
      "chip": "ym2612"
    },
    {
      "channel": 2,
      "note": 59,
      "start": 14.2446,
      "duration": 0.0973,
      "velocity": 123,
      "chip": "ym2612"
    },
    {
      "channel": 3,
      "note": 47,
      "start": 14.2473,
      "duration": 0.1931,
      "velocity": 114,
      "chip": "ym2612"
    },
    {
      "channel": 0,
      "note": 73,
      "start": 14.3412,
      "duration": 0.0932,
      "velocity": 123,
      "chip": "ym2612"
    },
    {
      "channel": 2,
      "note": 59,
      "start": 14.3422,
      "duration": 0.0947,
      "velocity": 107,
      "chip": "ym2612"
    },
    {
      "channel": 0,
      "note": 69,
      "start": 14.4347,
      "duration": 0.0989,
      "velocity": 123,
      "chip": "ym2612"
    },
    {
      "channel": 2,
      "note": 27,
      "start": 14.4372,
      "duration": 0.0337,
      "velocity": 107,
      "chip": "ym2612"
    },
    {
      "channel": 3,
      "note": 47,
      "start": 14.4407,
      "duration": 0.1924,
      "velocity": 114,
      "chip": "ym2612"
    },
    {
      "channel": 4,
      "note": 35,
      "start": 14.4416,
      "duration": 0.1924,
      "velocity": 110,
      "chip": "ym2612"
    },
    {
      "channel": 2,
      "note": 27,
      "start": 14.471,
      "duration": 0.1587,
      "velocity": 127,
      "chip": "ym2612"
    },
    {
      "channel": 0,
      "note": 73,
      "start": 14.5338,
      "duration": 0.0933,
      "velocity": 123,
      "chip": "ym2612"
    },
    {
      "channel": 0,
      "note": 69,
      "start": 14.6274,
      "duration": 0.0988,
      "velocity": 123,
      "chip": "ym2612"
    },
    {
      "channel": 2,
      "note": 59,
      "start": 14.6299,
      "duration": 0.0335,
      "velocity": 127,
      "chip": "ym2612"
    },
    {
      "channel": 3,
      "note": 47,
      "start": 14.6333,
      "duration": 0.1926,
      "velocity": 114,
      "chip": "ym2612"
    },
    {
      "channel": 2,
      "note": 59,
      "start": 14.6636,
      "duration": 0.1587,
      "velocity": 123,
      "chip": "ym2612"
    },
    {
      "channel": 0,
      "note": 73,
      "start": 14.7264,
      "duration": 0.0934,
      "velocity": 123,
      "chip": "ym2612"
    },
    {
      "channel": 0,
      "note": 69,
      "start": 14.82,
      "duration": 0.0989,
      "velocity": 123,
      "chip": "ym2612"
    },
    {
      "channel": 2,
      "note": 57,
      "start": 14.8226,
      "duration": 0.0337,
      "velocity": 123,
      "chip": "ym2612"
    },
    {
      "channel": 3,
      "note": 47,
      "start": 14.8261,
      "duration": 0.1928,
      "velocity": 114,
      "chip": "ym2612"
    },
    {
      "channel": 4,
      "note": 35,
      "start": 14.8271,
      "duration": 0.1927,
      "velocity": 110,
      "chip": "ym2612"
    },
    {
      "channel": 2,
      "note": 57,
      "start": 14.8566,
      "duration": 0.0299,
      "velocity": 123,
      "chip": "ym2612"
    },
    {
      "channel": 2,
      "note": 57,
      "start": 14.8867,
      "duration": 0.0334,
      "velocity": 123,
      "chip": "ym2612"
    },
    {
      "channel": 0,
      "note": 73,
      "start": 14.919,
      "duration": 0.0933,
      "velocity": 123,
      "chip": "ym2612"
    },
    {
      "channel": 2,
      "note": 57,
      "start": 14.9203,
      "duration": 0.0297,
      "velocity": 123,
      "chip": "ym2612"
    },
    {
      "channel": 2,
      "note": 57,
      "start": 14.9502,
      "duration": 0.0329,
      "velocity": 123,
      "chip": "ym2612"
    },
    {
      "channel": 2,
      "note": 57,
      "start": 14.9834,
      "duration": 0.0323,
      "velocity": 127,
      "chip": "ym2612"
    },
    {
      "channel": 0,
      "note": 69,
      "start": 15.0125,
      "duration": 0.0989,
      "velocity": 123,
      "chip": "ym2612"
    },
    {
      "channel": 2,
      "note": 64,
      "start": 15.0159,
      "duration": 0.0965,
      "velocity": 127,
      "chip": "ym2612"
    },
    {
      "channel": 3,
      "note": 47,
      "start": 15.0191,
      "duration": 0.1896,
      "velocity": 114,
      "chip": "ym2612"
    },
    {
      "channel": 4,
      "note": 35,
      "start": 15.02,
      "duration": 0.1896,
      "velocity": 110,
      "chip": "ym2612"
    },
    {
      "channel": 0,
      "note": 73,
      "start": 15.1117,
      "duration": 0.0933,
      "velocity": 123,
      "chip": "ym2612"
    },
    {
      "channel": 2,
      "note": 64,
      "start": 15.1127,
      "duration": 0.0932,
      "velocity": 127,
      "chip": "ym2612"
    },
    {
      "channel": 0,
      "note": 69,
      "start": 15.2052,
      "duration": 0.0959,
      "velocity": 123,
      "chip": "ym2612"
    },
    {
      "channel": 2,
      "note": 64,
      "start": 15.2061,
      "duration": 0.096,
      "velocity": 127,
      "chip": "ym2612"
    },
    {
      "channel": 3,
      "note": 47,
      "start": 15.209,
      "duration": 0.1957,
      "velocity": 114,
      "chip": "ym2612"
    },
    {
      "channel": 0,
      "note": 73,
      "start": 15.3013,
      "duration": 0.0962,
      "velocity": 123,
      "chip": "ym2612"
    },
    {
      "channel": 2,
      "note": 64,
      "start": 15.3023,
      "duration": 0.0988,
      "velocity": 107,
      "chip": "ym2612"
    },
    {
      "channel": 0,
      "note": 69,
      "start": 15.3977,
      "duration": 0.0989,
      "velocity": 123,
      "chip": "ym2612"
    },
    {
      "channel": 1,
      "note": 25,
      "start": 15.399,
      "duration": 2.9538,
      "velocity": 98,
      "chip": "ym2612"
    },
    {
      "channel": 2,
      "note": 26,
      "start": 15.4013,
      "duration": 0.0326,
      "velocity": 107,
      "chip": "ym2612"
    },
    {
      "channel": 3,
      "note": 47,
      "start": 15.405,
      "duration": 0.1905,
      "velocity": 114,
      "chip": "ym2612"
    },
    {
      "channel": 4,
      "note": 35,
      "start": 15.4059,
      "duration": 0.1905,
      "velocity": 110,
      "chip": "ym2612"
    },
    {
      "channel": 2,
      "note": 26,
      "start": 15.434,
      "duration": 0.1587,
      "velocity": 127,
      "chip": "ym2612"
    },
    {
      "channel": 0,
      "note": 73,
      "start": 15.4968,
      "duration": 0.0934,
      "velocity": 123,
      "chip": "ym2612"
    },
    {
      "channel": 0,
      "note": 69,
      "start": 15.5904,
      "duration": 0.0988,
      "velocity": 123,
      "chip": "ym2612"
    },
    {
      "channel": 2,
      "note": 59,
      "start": 15.5929,
      "duration": 0.1922,
      "velocity": 127,
      "chip": "ym2612"
    },
    {
      "channel": 3,
      "note": 47,
      "start": 15.5958,
      "duration": 0.1922,
      "velocity": 114,
      "chip": "ym2612"
    },
    {
      "channel": 0,
      "note": 73,
      "start": 15.6895,
      "duration": 0.0932,
      "velocity": 123,
      "chip": "ym2612"
    },
    {
      "channel": 5,
      "note": 25,
      "start": 15.6937,
      "duration": 2.9513,
      "velocity": 98,
      "chip": "ym2612"
    },
    {
      "channel": 0,
      "note": 69,
      "start": 15.7829,
      "duration": 0.0995,
      "velocity": 123,
      "chip": "ym2612"
    },
    {
      "channel": 2,
      "note": 59,
      "start": 15.7854,
      "duration": 0.0337,
      "velocity": 127,
      "chip": "ym2612"
    },
    {
      "channel": 3,
      "note": 47,
      "start": 15.7883,
      "duration": 0.1931,
      "velocity": 114,
      "chip": "ym2612"
    },
    {
      "channel": 2,
      "note": 59,
      "start": 15.8193,
      "duration": 0.1585,
      "velocity": 127,
      "chip": "ym2612"
    },
    {
      "channel": 0,
      "note": 73,
      "start": 15.8827,
      "duration": 0.0927,
      "velocity": 123,
      "chip": "ym2612"
    },
    {
      "channel": 0,
      "note": 69,
      "start": 15.9756,
      "duration": 0.0989,
      "velocity": 123,
      "chip": "ym2612"
    },
    {
      "channel": 2,
      "note": 64,
      "start": 15.978,
      "duration": 0.1926,
      "velocity": 123,
      "chip": "ym2612"
    },
    {
      "channel": 3,
      "note": 47,
      "start": 15.9821,
      "duration": 0.1912,
      "velocity": 114,
      "chip": "ym2612"
    },
    {
      "channel": 4,
      "note": 35,
      "start": 15.983,
      "duration": 0.1912,
      "velocity": 110,
      "chip": "ym2612"
    },
    {
      "channel": 0,
      "note": 73,
      "start": 16.0747,
      "duration": 0.0933,
      "velocity": 123,
      "chip": "ym2612"
    },
    {
      "channel": 0,
      "note": 69,
      "start": 16.1682,
      "duration": 0.0988,
      "velocity": 123,
      "chip": "ym2612"
    },
    {
      "channel": 2,
      "note": 57,
      "start": 16.1708,
      "duration": 0.0337,
      "velocity": 123,
      "chip": "ym2612"
    },
    {
      "channel": 3,
      "note": 47,
      "start": 16.1735,
      "duration": 0.194,
      "velocity": 114,
      "chip": "ym2612"
    },
    {
      "channel": 2,
      "note": 57,
      "start": 16.2048,
      "duration": 0.03,
      "velocity": 123,
      "chip": "ym2612"
    },
    {
      "channel": 2,
      "note": 57,
      "start": 16.2351,
      "duration": 0.0333,
      "velocity": 123,
      "chip": "ym2612"
    },
    {
      "channel": 0,
      "note": 73,
      "start": 16.2673,
      "duration": 0.0933,
      "velocity": 123,
      "chip": "ym2612"
    },
    {
      "channel": 2,
      "note": 57,
      "start": 16.2686,
      "duration": 0.0301,
      "velocity": 123,
      "chip": "ym2612"
    },
    {
      "channel": 2,
      "note": 57,
      "start": 16.2989,
      "duration": 0.0321,
      "velocity": 123,
      "chip": "ym2612"
    },
    {
      "channel": 2,
      "note": 57,
      "start": 16.3315,
      "duration": 0.0318,
      "velocity": 127,
      "chip": "ym2612"
    },
    {
      "channel": 0,
      "note": 69,
      "start": 16.3608,
      "duration": 0.0989,
      "velocity": 123,
      "chip": "ym2612"
    },
    {
      "channel": 2,
      "note": 59,
      "start": 16.3636,
      "duration": 0.0335,
      "velocity": 127,
      "chip": "ym2612"
    },
    {
      "channel": 3,
      "note": 47,
      "start": 16.3678,
      "duration": 0.1941,
      "velocity": 114,
      "chip": "ym2612"
    },
    {
      "channel": 4,
      "note": 35,
      "start": 16.3686,
      "duration": 0.194,
      "velocity": 110,
      "chip": "ym2612"
    },
    {
      "channel": 2,
      "note": 59,
      "start": 16.3972,
      "duration": 0.1614,
      "velocity": 127,
      "chip": "ym2612"
    },
    {
      "channel": 0,
      "note": 73,
      "start": 16.46,
      "duration": 0.0961,
      "velocity": 123,
      "chip": "ym2612"
    },
    {
      "channel": 0,
      "note": 69,
      "start": 16.5563,
      "duration": 0.0961,
      "velocity": 123,
      "chip": "ym2612"
    },
    {
      "channel": 2,
      "note": 66,
      "start": 16.5588,
      "duration": 0.0946,
      "velocity": 127,
      "chip": "ym2612"
    },
    {
      "channel": 3,
      "note": 47,
      "start": 16.562,
      "duration": 0.191,
      "velocity": 114,
      "chip": "ym2612"
    },
    {
      "channel": 4,
      "note": 35,
      "start": 16.5629,
      "duration": 0.191,
      "velocity": 110,
      "chip": "ym2612"
    },
    {
      "channel": 0,
      "note": 73,
      "start": 16.6526,
      "duration": 0.0966,
      "velocity": 123,
      "chip": "ym2612"
    },
    {
      "channel": 2,
      "note": 66,
      "start": 16.6536,
      "duration": 0.0966,
      "velocity": 127,
      "chip": "ym2612"
    },
    {
      "channel": 0,
      "note": 69,
      "start": 16.7494,
      "duration": 0.0956,
      "velocity": 123,
      "chip": "ym2612"
    },
    {
      "channel": 2,
      "note": 66,
      "start": 16.7505,
      "duration": 0.0956,
      "velocity": 127,
      "chip": "ym2612"
    },
    {
      "channel": 3,
      "note": 47,
      "start": 16.7533,
      "duration": 0.1934,
      "velocity": 114,
      "chip": "ym2612"
    },
    {
      "channel": 0,
      "note": 73,
      "start": 16.8452,
      "duration": 0.0962,
      "velocity": 123,
      "chip": "ym2612"
    },
    {
      "channel": 2,
      "note": 66,
      "start": 16.8462,
      "duration": 0.0976,
      "velocity": 123,
      "chip": "ym2612"
    },
    {
      "channel": 0,
      "note": 69,
      "start": 16.9416,
      "duration": 0.0961,
      "velocity": 123,
      "chip": "ym2612"
    },
    {
      "channel": 2,
      "note": 68,
      "start": 16.944,
      "duration": 0.0946,
      "velocity": 123,
      "chip": "ym2612"
    },
    {
      "channel": 3,
      "note": 47,
      "start": 16.9469,
      "duration": 0.1931,
      "velocity": 114,
      "chip": "ym2612"
    },
    {
      "channel": 0,
      "note": 73,
      "start": 17.0379,
      "duration": 0.0961,
      "velocity": 123,
      "chip": "ym2612"
    },
    {
      "channel": 2,
      "note": 68,
      "start": 17.0389,
      "duration": 0.0975,
      "velocity": 107,
      "chip": "ym2612"
    },
    {
      "channel": 0,
      "note": 69,
      "start": 17.1342,
      "duration": 0.0961,
      "velocity": 123,
      "chip": "ym2612"
    },
    {
      "channel": 2,
      "note": 30,
      "start": 17.1366,
      "duration": 0.0308,
      "velocity": 107,
      "chip": "ym2612"
    },
    {
      "channel": 3,
      "note": 47,
      "start": 17.1402,
      "duration": 0.1924,
      "velocity": 114,
      "chip": "ym2612"
    },
    {
      "channel": 4,
      "note": 35,
      "start": 17.141,
      "duration": 0.1924,
      "velocity": 110,
      "chip": "ym2612"
    },
    {
      "channel": 2,
      "note": 30,
      "start": 17.1676,
      "duration": 0.1615,
      "velocity": 123,
      "chip": "ym2612"
    },
    {
      "channel": 0,
      "note": 73,
      "start": 17.2304,
      "duration": 0.0961,
      "velocity": 123,
      "chip": "ym2612"
    },
    {
      "channel": 0,
      "note": 69,
      "start": 17.3268,
      "duration": 0.0961,
      "velocity": 123,
      "chip": "ym2612"
    },
    {
      "channel": 2,
      "note": 59,
      "start": 17.3293,
      "duration": 0.0946,
      "velocity": 123,
      "chip": "ym2612"
    },
    {
      "channel": 3,
      "note": 47,
      "start": 17.3327,
      "duration": 0.1925,
      "velocity": 114,
      "chip": "ym2612"
    },
    {
      "channel": 0,
      "note": 73,
      "start": 17.423,
      "duration": 0.0961,
      "velocity": 123,
      "chip": "ym2612"
    },
    {
      "channel": 2,
      "note": 59,
      "start": 17.4241,
      "duration": 0.0976,
      "velocity": 107,
      "chip": "ym2612"
    },
    {
      "channel": 0,
      "note": 69,
      "start": 17.5194,
      "duration": 0.0964,
      "velocity": 123,
      "chip": "ym2612"
    },
    {
      "channel": 2,
      "note": 27,
      "start": 17.5219,
      "duration": 0.0307,
      "velocity": 107,
      "chip": "ym2612"
    },
    {
      "channel": 3,
      "note": 47,
      "start": 17.5255,
      "duration": 0.1923,
      "velocity": 114,
      "chip": "ym2612"
    },
    {
      "channel": 4,
      "note": 35,
      "start": 17.5263,
      "duration": 0.1923,
      "velocity": 110,
      "chip": "ym2612"
    },
    {
      "channel": 2,
      "note": 27,
      "start": 17.5529,
      "duration": 0.1615,
      "velocity": 127,
      "chip": "ym2612"
    },
    {
      "channel": 0,
      "note": 73,
      "start": 17.6161,
      "duration": 0.0957,
      "velocity": 123,
      "chip": "ym2612"
    },
    {
      "channel": 0,
      "note": 69,
      "start": 17.712,
      "duration": 0.0961,
      "velocity": 123,
      "chip": "ym2612"
    },
    {
      "channel": 2,
      "note": 59,
      "start": 17.7148,
      "duration": 0.0305,
      "velocity": 127,
      "chip": "ym2612"
    },
    {
      "channel": 3,
      "note": 47,
      "start": 17.718,
      "duration": 0.1925,
      "velocity": 114,
      "chip": "ym2612"
    },
    {
      "channel": 2,
      "note": 59,
      "start": 17.7456,
      "duration": 0.1614,
      "velocity": 123,
      "chip": "ym2612"
    },
    {
      "channel": 0,
      "note": 73,
      "start": 17.8083,
      "duration": 0.0961,
      "velocity": 123,
      "chip": "ym2612"
    },
    {
      "channel": 0,
      "note": 69,
      "start": 17.9046,
      "duration": 0.0961,
      "velocity": 123,
      "chip": "ym2612"
    },
    {
      "channel": 2,
      "note": 57,
      "start": 17.9072,
      "duration": 0.0309,
      "velocity": 123,
      "chip": "ym2612"
    },
    {
      "channel": 3,
      "note": 47,
      "start": 17.9108,
      "duration": 0.1929,
      "velocity": 114,
      "chip": "ym2612"
    },
    {
      "channel": 4,
      "note": 35,
      "start": 17.9117,
      "duration": 0.1928,
      "velocity": 110,
      "chip": "ym2612"
    },
    {
      "channel": 2,
      "note": 57,
      "start": 17.9384,
      "duration": 0.0328,
      "velocity": 123,
      "chip": "ym2612"
    },
    {
      "channel": 2,
      "note": 57,
      "start": 17.9714,
      "duration": 0.0306,
      "velocity": 123,
      "chip": "ym2612"
    },
    {
      "channel": 0,
      "note": 73,
      "start": 18.0009,
      "duration": 0.0961,
      "velocity": 123,
      "chip": "ym2612"
    },
    {
      "channel": 2,
      "note": 57,
      "start": 18.0022,
      "duration": 0.0322,
      "velocity": 123,
      "chip": "ym2612"
    },
    {
      "channel": 2,
      "note": 57,
      "start": 18.0346,
      "duration": 0.0307,
      "velocity": 123,
      "chip": "ym2612"
    },
    {
      "channel": 2,
      "note": 57,
      "start": 18.0655,
      "duration": 0.0349,
      "velocity": 127,
      "chip": "ym2612"
    },
    {
      "channel": 0,
      "note": 69,
      "start": 18.0972,
      "duration": 0.0961,
      "velocity": 123,
      "chip": "ym2612"
    },
    {
      "channel": 2,
      "note": 64,
      "start": 18.1006,
      "duration": 0.0937,
      "velocity": 127,
      "chip": "ym2612"
    },
    {
      "channel": 3,
      "note": 47,
      "start": 18.1038,
      "duration": 0.1896,
      "velocity": 114,
      "chip": "ym2612"
    },
    {
      "channel": 4,
      "note": 35,
      "start": 18.1047,
      "duration": 0.1896,
      "velocity": 110,
      "chip": "ym2612"
    },
    {
      "channel": 0,
      "note": 73,
      "start": 18.1935,
      "duration": 0.0961,
      "velocity": 123,
      "chip": "ym2612"
    },
    {
      "channel": 2,
      "note": 64,
      "start": 18.1945,
      "duration": 0.0961,
      "velocity": 127,
      "chip": "ym2612"
    },
    {
      "channel": 0,
      "note": 69,
      "start": 18.2898,
      "duration": 0.096,
      "velocity": 123,
      "chip": "ym2612"
    },
    {
      "channel": 2,
      "note": 64,
      "start": 18.2909,
      "duration": 0.096,
      "velocity": 127,
      "chip": "ym2612"
    },
    {
      "channel": 3,
      "note": 47,
      "start": 18.2937,
      "duration": 0.1932,
      "velocity": 114,
      "chip": "ym2612"
    },
    {
      "channel": 0,
      "note": 73,
      "start": 18.386,
      "duration": 0.0933,
      "velocity": 123,
      "chip": "ym2612"
    },
    {
      "channel": 2,
      "note": 64,
      "start": 18.387,
      "duration": 0.0961,
      "velocity": 107,
      "chip": "ym2612"
    },
    {
      "channel": 0,
      "note": 69,
      "start": 18.4795,
      "duration": 0.099,
      "velocity": 123,
      "chip": "ym2612"
    },
    {
      "channel": 1,
      "note": 26,
      "start": 18.4805,
      "duration": 2.9571,
      "velocity": 98,
      "chip": "ym2612"
    },
    {
      "channel": 2,
      "note": 26,
      "start": 18.4833,
      "duration": 0.033,
      "velocity": 107,
      "chip": "ym2612"
    },
    {
      "channel": 3,
      "note": 47,
      "start": 18.487,
      "duration": 0.1931,
      "velocity": 114,
      "chip": "ym2612"
    },
    {
      "channel": 4,
      "note": 35,
      "start": 18.488,
      "duration": 0.193,
      "velocity": 110,
      "chip": "ym2612"
    },
    {
      "channel": 2,
      "note": 26,
      "start": 18.5166,
      "duration": 0.1608,
      "velocity": 127,
      "chip": "ym2612"
    },
    {
      "channel": 0,
      "note": 73,
      "start": 18.5788,
      "duration": 0.0961,
      "velocity": 123,
      "chip": "ym2612"
    },
    {
      "channel": 0,
      "note": 69,
      "start": 18.6751,
      "duration": 0.0961,
      "velocity": 123,
      "chip": "ym2612"
    },
    {
      "channel": 2,
      "note": 59,
      "start": 18.6776,
      "duration": 0.1924,
      "velocity": 127,
      "chip": "ym2612"
    },
    {
      "channel": 3,
      "note": 47,
      "start": 18.6804,
      "duration": 0.1924,
      "velocity": 114,
      "chip": "ym2612"
    },
    {
      "channel": 0,
      "note": 73,
      "start": 18.7713,
      "duration": 0.0961,
      "velocity": 123,
      "chip": "ym2612"
    },
    {
      "channel": 5,
      "note": 26,
      "start": 18.7758,
      "duration": 2.9538,
      "velocity": 98,
      "chip": "ym2612"
    },
    {
      "channel": 0,
      "note": 69,
      "start": 18.8676,
      "duration": 0.0961,
      "velocity": 123,
      "chip": "ym2612"
    },
    {
      "channel": 2,
      "note": 59,
      "start": 18.8701,
      "duration": 0.0309,
      "velocity": 127,
      "chip": "ym2612"
    },
    {
      "channel": 3,
      "note": 47,
      "start": 18.873,
      "duration": 0.1936,
      "velocity": 114,
      "chip": "ym2612"
    },
    {
      "channel": 2,
      "note": 59,
      "start": 18.9012,
      "duration": 0.1613,
      "velocity": 127,
      "chip": "ym2612"
    },
    {
      "channel": 0,
      "note": 73,
      "start": 18.9639,
      "duration": 0.0961,
      "velocity": 123,
      "chip": "ym2612"
    },
    {
      "channel": 0,
      "note": 69,
      "start": 19.0602,
      "duration": 0.0961,
      "velocity": 123,
      "chip": "ym2612"
    },
    {
      "channel": 2,
      "note": 64,
      "start": 19.0627,
      "duration": 0.1926,
      "velocity": 123,
      "chip": "ym2612"
    },
    {
      "channel": 3,
      "note": 47,
      "start": 19.0667,
      "duration": 0.1913,
      "velocity": 114,
      "chip": "ym2612"
    },
    {
      "channel": 4,
      "note": 35,
      "start": 19.0676,
      "duration": 0.1913,
      "velocity": 110,
      "chip": "ym2612"
    },
    {
      "channel": 0,
      "note": 73,
      "start": 19.1566,
      "duration": 0.0961,
      "velocity": 123,
      "chip": "ym2612"
    },
    {
      "channel": 0,
      "note": 69,
      "start": 19.2529,
      "duration": 0.0964,
      "velocity": 123,
      "chip": "ym2612"
    },
    {
      "channel": 2,
      "note": 57,
      "start": 19.2555,
      "duration": 0.031,
      "velocity": 123,
      "chip": "ym2612"
    },
    {
      "channel": 3,
      "note": 47,
      "start": 19.2583,
      "duration": 0.1939,
      "velocity": 114,
      "chip": "ym2612"
    },
    {
      "channel": 2,
      "note": 57,
      "start": 19.2867,
      "duration": 0.0328,
      "velocity": 123,
      "chip": "ym2612"
    },
    {
      "channel": 2,
      "note": 57,
      "start": 19.3197,
      "duration": 0.0309,
      "velocity": 123,
      "chip": "ym2612"
    },
    {
      "channel": 0,
      "note": 73,
      "start": 19.3496,
      "duration": 0.0957,
      "velocity": 123,
      "chip": "ym2612"
    },
    {
      "channel": 2,
      "note": 57,
      "start": 19.3508,
      "duration": 0.0323,
      "velocity": 123,
      "chip": "ym2612"
    },
    {
      "channel": 2,
      "note": 57,
      "start": 19.3834,
      "duration": 0.0295,
      "velocity": 123,
      "chip": "ym2612"
    },
    {
      "channel": 2,
      "note": 57,
      "start": 19.4132,
      "duration": 0.0354,
      "velocity": 127,
      "chip": "ym2612"
    },
    {
      "channel": 0,
      "note": 69,
      "start": 19.4455,
      "duration": 0.099,
      "velocity": 123,
      "chip": "ym2612"
    },
    {
      "channel": 2,
      "note": 59,
      "start": 19.4489,
      "duration": 0.0335,
      "velocity": 127,
      "chip": "ym2612"
    },
    {
      "channel": 3,
      "note": 47,
      "start": 19.4524,
      "duration": 0.1913,
      "velocity": 114,
      "chip": "ym2612"
    },
    {
      "channel": 4,
      "note": 35,
      "start": 19.4533,
      "duration": 0.1913,
      "velocity": 110,
      "chip": "ym2612"
    },
    {
      "channel": 2,
      "note": 59,
      "start": 19.4826,
      "duration": 0.1579,
      "velocity": 127,
      "chip": "ym2612"
    },
    {
      "channel": 0,
      "note": 73,
      "start": 19.5447,
      "duration": 0.0932,
      "velocity": 123,
      "chip": "ym2612"
    },
    {
      "channel": 0,
      "note": 69,
      "start": 19.6382,
      "duration": 0.0989,
      "velocity": 123,
      "chip": "ym2612"
    },
    {
      "channel": 2,
      "note": 66,
      "start": 19.6407,
      "duration": 0.0975,
      "velocity": 127,
      "chip": "ym2612"
    },
    {
      "channel": 3,
      "note": 47,
      "start": 19.6439,
      "duration": 0.1912,
      "velocity": 114,
      "chip": "ym2612"
    },
    {
      "channel": 4,
      "note": 35,
      "start": 19.6447,
      "duration": 0.1912,
      "velocity": 110,
      "chip": "ym2612"
    },
    {
      "channel": 0,
      "note": 73,
      "start": 19.7373,
      "duration": 0.0933,
      "velocity": 123,
      "chip": "ym2612"
    },
    {
      "channel": 2,
      "note": 66,
      "start": 19.7383,
      "duration": 0.0939,
      "velocity": 127,
      "chip": "ym2612"
    },
    {
      "channel": 0,
      "note": 69,
      "start": 19.8308,
      "duration": 0.0989,
      "velocity": 123,
      "chip": "ym2612"
    },
    {
      "channel": 2,
      "note": 66,
      "start": 19.8324,
      "duration": 0.0982,
      "velocity": 127,
      "chip": "ym2612"
    },
    {
      "channel": 3,
      "note": 47,
      "start": 19.8353,
      "duration": 0.1932,
      "velocity": 114,
      "chip": "ym2612"
    },
    {
      "channel": 0,
      "note": 73,
      "start": 19.9299,
      "duration": 0.0933,
      "velocity": 123,
      "chip": "ym2612"
    },
    {
      "channel": 2,
      "note": 66,
      "start": 19.9309,
      "duration": 0.0948,
      "velocity": 123,
      "chip": "ym2612"
    },
    {
      "channel": 0,
      "note": 69,
      "start": 20.0235,
      "duration": 0.0988,
      "velocity": 123,
      "chip": "ym2612"
    },
    {
      "channel": 2,
      "note": 68,
      "start": 20.0259,
      "duration": 0.0975,
      "velocity": 123,
      "chip": "ym2612"
    },
    {
      "channel": 3,
      "note": 47,
      "start": 20.0288,
      "duration": 0.1933,
      "velocity": 114,
      "chip": "ym2612"
    },
    {
      "channel": 0,
      "note": 73,
      "start": 20.1225,
      "duration": 0.0936,
      "velocity": 123,
      "chip": "ym2612"
    },
    {
      "channel": 2,
      "note": 68,
      "start": 20.1235,
      "duration": 0.0951,
      "velocity": 107,
      "chip": "ym2612"
    },
    {
      "channel": 0,
      "note": 69,
      "start": 20.2163,
      "duration": 0.0993,
      "velocity": 123,
      "chip": "ym2612"
    },
    {
      "channel": 2,
      "note": 30,
      "start": 20.2188,
      "duration": 0.0334,
      "velocity": 107,
      "chip": "ym2612"
    },
    {
      "channel": 3,
      "note": 47,
      "start": 20.2223,
      "duration": 0.1914,
      "velocity": 114,
      "chip": "ym2612"
    },
    {
      "channel": 4,
      "note": 35,
      "start": 20.2232,
      "duration": 0.1921,
      "velocity": 110,
      "chip": "ym2612"
    },
    {
      "channel": 2,
      "note": 30,
      "start": 20.2524,
      "duration": 0.1586,
      "velocity": 123,
      "chip": "ym2612"
    },
    {
      "channel": 0,
      "note": 73,
      "start": 20.3158,
      "duration": 0.0926,
      "velocity": 123,
      "chip": "ym2612"
    },
    {
      "channel": 0,
      "note": 69,
      "start": 20.4086,
      "duration": 0.0989,
      "velocity": 123,
      "chip": "ym2612"
    },
    {
      "channel": 2,
      "note": 59,
      "start": 20.4111,
      "duration": 0.0974,
      "velocity": 123,
      "chip": "ym2612"
    },
    {
      "channel": 3,
      "note": 47,
      "start": 20.4139,
      "duration": 0.1931,
      "velocity": 114,
      "chip": "ym2612"
    },
    {
      "channel": 0,
      "note": 73,
      "start": 20.5077,
      "duration": 0.0933,
      "velocity": 123,
      "chip": "ym2612"
    },
    {
      "channel": 2,
      "note": 59,
      "start": 20.5087,
      "duration": 0.0948,
      "velocity": 107,
      "chip": "ym2612"
    },
    {
      "channel": 0,
      "note": 69,
      "start": 20.6012,
      "duration": 0.0989,
      "velocity": 123,
      "chip": "ym2612"
    },
    {
      "channel": 2,
      "note": 27,
      "start": 20.6037,
      "duration": 0.0337,
      "velocity": 107,
      "chip": "ym2612"
    },
    {
      "channel": 3,
      "note": 47,
      "start": 20.6073,
      "duration": 0.1924,
      "velocity": 114,
      "chip": "ym2612"
    },
    {
      "channel": 4,
      "note": 35,
      "start": 20.6082,
      "duration": 0.1924,
      "velocity": 110,
      "chip": "ym2612"
    },
    {
      "channel": 2,
      "note": 27,
      "start": 20.6376,
      "duration": 0.1586,
      "velocity": 127,
      "chip": "ym2612"
    },
    {
      "channel": 0,
      "note": 73,
      "start": 20.7004,
      "duration": 0.0933,
      "velocity": 123,
      "chip": "ym2612"
    },
    {
      "channel": 0,
      "note": 69,
      "start": 20.7939,
      "duration": 0.0989,
      "velocity": 123,
      "chip": "ym2612"
    },
    {
      "channel": 2,
      "note": 59,
      "start": 20.7964,
      "duration": 0.0335,
      "velocity": 127,
      "chip": "ym2612"
    },
    {
      "channel": 3,
      "note": 47,
      "start": 20.7999,
      "duration": 0.1926,
      "velocity": 114,
      "chip": "ym2612"
    },
    {
      "channel": 2,
      "note": 59,
      "start": 20.8302,
      "duration": 0.1587,
      "velocity": 123,
      "chip": "ym2612"
    },
    {
      "channel": 0,
      "note": 73,
      "start": 20.8929,
      "duration": 0.0934,
      "velocity": 123,
      "chip": "ym2612"
    },
    {
      "channel": 0,
      "note": 69,
      "start": 20.9865,
      "duration": 0.0988,
      "velocity": 123,
      "chip": "ym2612"
    },
    {
      "channel": 2,
      "note": 57,
      "start": 20.9891,
      "duration": 0.0337,
      "velocity": 123,
      "chip": "ym2612"
    },
    {
      "channel": 3,
      "note": 47,
      "start": 20.9927,
      "duration": 0.1927,
      "velocity": 114,
      "chip": "ym2612"
    },
    {
      "channel": 4,
      "note": 35,
      "start": 20.9936,
      "duration": 0.1927,
      "velocity": 110,
      "chip": "ym2612"
    },
    {
      "channel": 2,
      "note": 57,
      "start": 21.0231,
      "duration": 0.03,
      "velocity": 123,
      "chip": "ym2612"
    },
    {
      "channel": 2,
      "note": 57,
      "start": 21.0533,
      "duration": 0.0334,
      "velocity": 123,
      "chip": "ym2612"
    },
    {
      "channel": 0,
      "note": 73,
      "start": 21.0856,
      "duration": 0.0932,
      "velocity": 123,
      "chip": "ym2612"
    },
    {
      "channel": 2,
      "note": 57,
      "start": 21.0868,
      "duration": 0.0298,
      "velocity": 123,
      "chip": "ym2612"
    },
    {
      "channel": 2,
      "note": 57,
      "start": 21.1168,
      "duration": 0.0331,
      "velocity": 123,
      "chip": "ym2612"
    },
    {
      "channel": 2,
      "note": 57,
      "start": 21.1501,
      "duration": 0.0321,
      "velocity": 127,
      "chip": "ym2612"
    },
    {
      "channel": 0,
      "note": 69,
      "start": 21.1791,
      "duration": 0.0989,
      "velocity": 123,
      "chip": "ym2612"
    },
    {
      "channel": 2,
      "note": 64,
      "start": 21.1824,
      "duration": 0.0965,
      "velocity": 127,
      "chip": "ym2612"
    },
    {
      "channel": 3,
      "note": 47,
      "start": 21.1856,
      "duration": 0.1896,
      "velocity": 114,
      "chip": "ym2612"
    },
    {
      "channel": 4,
      "note": 35,
      "start": 21.1865,
      "duration": 0.1896,
      "velocity": 110,
      "chip": "ym2612"
    },
    {
      "channel": 0,
      "note": 73,
      "start": 21.2782,
      "duration": 0.0933,
      "velocity": 123,
      "chip": "ym2612"
    },
    {
      "channel": 2,
      "note": 64,
      "start": 21.2792,
      "duration": 0.0933,
      "velocity": 127,
      "chip": "ym2612"
    },
    {
      "channel": 0,
      "note": 69,
      "start": 21.3717,
      "duration": 0.096,
      "velocity": 123,
      "chip": "ym2612"
    },
    {
      "channel": 2,
      "note": 64,
      "start": 21.3727,
      "duration": 0.096,
      "velocity": 127,
      "chip": "ym2612"
    },
    {
      "channel": 3,
      "note": 47,
      "start": 21.3755,
      "duration": 0.1957,
      "velocity": 114,
      "chip": "ym2612"
    },
    {
      "channel": 0,
      "note": 73,
      "start": 21.4679,
      "duration": 0.0961,
      "velocity": 123,
      "chip": "ym2612"
    },
    {
      "channel": 2,
      "note": 64,
      "start": 21.4689,
      "duration": 0.0987,
      "velocity": 107,
      "chip": "ym2612"
    },
    {
      "channel": 0,
      "note": 69,
      "start": 21.5643,
      "duration": 0.0989,
      "velocity": 123,
      "chip": "ym2612"
    },
    {
      "channel": 1,
      "note": 28,
      "start": 21.5656,
      "duration": 2.9539,
      "velocity": 98,
      "chip": "ym2612"
    },
    {
      "channel": 2,
      "note": 26,
      "start": 21.5678,
      "duration": 0.0326,
      "velocity": 107,
      "chip": "ym2612"
    },
    {
      "channel": 3,
      "note": 47,
      "start": 21.5715,
      "duration": 0.1905,
      "velocity": 114,
      "chip": "ym2612"
    },
    {
      "channel": 4,
      "note": 35,
      "start": 21.5724,
      "duration": 0.1905,
      "velocity": 110,
      "chip": "ym2612"
    },
    {
      "channel": 2,
      "note": 26,
      "start": 21.6006,
      "duration": 0.1587,
      "velocity": 127,
      "chip": "ym2612"
    },
    {
      "channel": 0,
      "note": 73,
      "start": 21.6634,
      "duration": 0.0933,
      "velocity": 123,
      "chip": "ym2612"
    },
    {
      "channel": 0,
      "note": 69,
      "start": 21.7569,
      "duration": 0.0989,
      "velocity": 123,
      "chip": "ym2612"
    },
    {
      "channel": 2,
      "note": 59,
      "start": 21.7595,
      "duration": 0.1923,
      "velocity": 127,
      "chip": "ym2612"
    },
    {
      "channel": 3,
      "note": 47,
      "start": 21.7623,
      "duration": 0.1924,
      "velocity": 114,
      "chip": "ym2612"
    },
    {
      "channel": 0,
      "note": 73,
      "start": 21.8561,
      "duration": 0.0933,
      "velocity": 123,
      "chip": "ym2612"
    },
    {
      "channel": 5,
      "note": 28,
      "start": 21.8603,
      "duration": 2.9513,
      "velocity": 98,
      "chip": "ym2612"
    },
    {
      "channel": 0,
      "note": 69,
      "start": 21.9496,
      "duration": 0.0994,
      "velocity": 123,
      "chip": "ym2612"
    },
    {
      "channel": 2,
      "note": 59,
      "start": 21.952,
      "duration": 0.0336,
      "velocity": 127,
      "chip": "ym2612"
    },
    {
      "channel": 3,
      "note": 47,
      "start": 21.9549,
      "duration": 0.193,
      "velocity": 114,
      "chip": "ym2612"
    },
    {
      "channel": 2,
      "note": 59,
      "start": 21.9858,
      "duration": 0.1585,
      "velocity": 127,
      "chip": "ym2612"
    },
    {
      "channel": 0,
      "note": 73,
      "start": 22.0493,
      "duration": 0.0926,
      "velocity": 123,
      "chip": "ym2612"
    },
    {
      "channel": 0,
      "note": 69,
      "start": 22.1421,
      "duration": 0.0989,
      "velocity": 123,
      "chip": "ym2612"
    },
    {
      "channel": 2,
      "note": 64,
      "start": 22.1445,
      "duration": 0.1926,
      "velocity": 123,
      "chip": "ym2612"
    },
    {
      "channel": 3,
      "note": 47,
      "start": 22.1486,
      "duration": 0.1913,
      "velocity": 114,
      "chip": "ym2612"
    },
    {
      "channel": 4,
      "note": 35,
      "start": 22.1495,
      "duration": 0.1913,
      "velocity": 110,
      "chip": "ym2612"
    },
    {
      "channel": 0,
      "note": 73,
      "start": 22.2412,
      "duration": 0.0933,
      "velocity": 123,
      "chip": "ym2612"
    },
    {
      "channel": 0,
      "note": 69,
      "start": 22.3348,
      "duration": 0.0989,
      "velocity": 123,
      "chip": "ym2612"
    },
    {
      "channel": 2,
      "note": 57,
      "start": 22.3373,
      "duration": 0.0338,
      "velocity": 123,
      "chip": "ym2612"
    },
    {
      "channel": 3,
      "note": 47,
      "start": 22.3402,
      "duration": 0.1939,
      "velocity": 114,
      "chip": "ym2612"
    },
    {
      "channel": 2,
      "note": 57,
      "start": 22.3714,
      "duration": 0.03,
      "velocity": 123,
      "chip": "ym2612"
    },
    {
      "channel": 2,
      "note": 57,
      "start": 22.4016,
      "duration": 0.0333,
      "velocity": 123,
      "chip": "ym2612"
    },
    {
      "channel": 0,
      "note": 73,
      "start": 22.4339,
      "duration": 0.0934,
      "velocity": 123,
      "chip": "ym2612"
    },
    {
      "channel": 2,
      "note": 57,
      "start": 22.4351,
      "duration": 0.0302,
      "velocity": 123,
      "chip": "ym2612"
    },
    {
      "channel": 2,
      "note": 57,
      "start": 22.4655,
      "duration": 0.0321,
      "velocity": 123,
      "chip": "ym2612"
    },
    {
      "channel": 2,
      "note": 57,
      "start": 22.4979,
      "duration": 0.032,
      "velocity": 127,
      "chip": "ym2612"
    },
    {
      "channel": 0,
      "note": 69,
      "start": 22.5274,
      "duration": 0.0989,
      "velocity": 123,
      "chip": "ym2612"
    },
    {
      "channel": 2,
      "note": 59,
      "start": 22.5302,
      "duration": 0.0334,
      "velocity": 127,
      "chip": "ym2612"
    },
    {
      "channel": 3,
      "note": 47,
      "start": 22.5343,
      "duration": 0.1941,
      "velocity": 114,
      "chip": "ym2612"
    },
    {
      "channel": 4,
      "note": 35,
      "start": 22.5352,
      "duration": 0.1941,
      "velocity": 110,
      "chip": "ym2612"
    },
    {
      "channel": 2,
      "note": 59,
      "start": 22.5637,
      "duration": 0.1615,
      "velocity": 127,
      "chip": "ym2612"
    },
    {
      "channel": 0,
      "note": 73,
      "start": 22.6265,
      "duration": 0.0961,
      "velocity": 123,
      "chip": "ym2612"
    },
    {
      "channel": 0,
      "note": 69,
      "start": 22.7229,
      "duration": 0.0961,
      "velocity": 123,
      "chip": "ym2612"
    },
    {
      "channel": 2,
      "note": 66,
      "start": 22.7254,
      "duration": 0.0946,
      "velocity": 127,
      "chip": "ym2612"
    },
    {
      "channel": 3,
      "note": 47,
      "start": 22.7286,
      "duration": 0.191,
      "velocity": 114,
      "chip": "ym2612"
    },
    {
      "channel": 4,
      "note": 35,
      "start": 22.7295,
      "duration": 0.1911,
      "velocity": 110,
      "chip": "ym2612"
    },
    {
      "channel": 0,
      "note": 73,
      "start": 22.8192,
      "duration": 0.0967,
      "velocity": 123,
      "chip": "ym2612"
    },
    {
      "channel": 2,
      "note": 66,
      "start": 22.8202,
      "duration": 0.0966,
      "velocity": 127,
      "chip": "ym2612"
    },
    {
      "channel": 0,
      "note": 69,
      "start": 22.916,
      "duration": 0.0956,
      "velocity": 123,
      "chip": "ym2612"
    },
    {
      "channel": 2,
      "note": 66,
      "start": 22.9171,
      "duration": 0.0955,
      "velocity": 127,
      "chip": "ym2612"
    },
    {
      "channel": 3,
      "note": 47,
      "start": 22.9199,
      "duration": 0.1933,
      "velocity": 114,
      "chip": "ym2612"
    },
    {
      "channel": 0,
      "note": 73,
      "start": 23.0118,
      "duration": 0.0961,
      "velocity": 123,
      "chip": "ym2612"
    },
    {
      "channel": 2,
      "note": 66,
      "start": 23.0128,
      "duration": 0.0976,
      "velocity": 123,
      "chip": "ym2612"
    },
    {
      "channel": 0,
      "note": 69,
      "start": 23.1082,
      "duration": 0.0961,
      "velocity": 123,
      "chip": "ym2612"
    },
    {
      "channel": 2,
      "note": 68,
      "start": 23.1106,
      "duration": 0.0947,
      "velocity": 123,
      "chip": "ym2612"
    },
    {
      "channel": 3,
      "note": 47,
      "start": 23.1134,
      "duration": 0.1931,
      "velocity": 114,
      "chip": "ym2612"
    },
    {
      "channel": 0,
      "note": 73,
      "start": 23.2045,
      "duration": 0.0961,
      "velocity": 123,
      "chip": "ym2612"
    },
    {
      "channel": 2,
      "note": 68,
      "start": 23.2054,
      "duration": 0.0976,
      "velocity": 107,
      "chip": "ym2612"
    },
    {
      "channel": 0,
      "note": 69,
      "start": 23.3007,
      "duration": 0.0961,
      "velocity": 123,
      "chip": "ym2612"
    },
    {
      "channel": 2,
      "note": 30,
      "start": 23.3032,
      "duration": 0.0308,
      "velocity": 107,
      "chip": "ym2612"
    },
    {
      "channel": 3,
      "note": 47,
      "start": 23.3068,
      "duration": 0.1923,
      "velocity": 114,
      "chip": "ym2612"
    },
    {
      "channel": 4,
      "note": 35,
      "start": 23.3076,
      "duration": 0.1923,
      "velocity": 110,
      "chip": "ym2612"
    },
    {
      "channel": 2,
      "note": 30,
      "start": 23.3342,
      "duration": 0.1615,
      "velocity": 123,
      "chip": "ym2612"
    },
    {
      "channel": 0,
      "note": 73,
      "start": 23.397,
      "duration": 0.0961,
      "velocity": 123,
      "chip": "ym2612"
    },
    {
      "channel": 0,
      "note": 69,
      "start": 23.4933,
      "duration": 0.0961,
      "velocity": 123,
      "chip": "ym2612"
    },
    {
      "channel": 2,
      "note": 59,
      "start": 23.4959,
      "duration": 0.0945,
      "velocity": 123,
      "chip": "ym2612"
    },
    {
      "channel": 3,
      "note": 47,
      "start": 23.4993,
      "duration": 0.1924,
      "velocity": 114,
      "chip": "ym2612"
    },
    {
      "channel": 0,
      "note": 73,
      "start": 23.5896,
      "duration": 0.0961,
      "velocity": 123,
      "chip": "ym2612"
    },
    {
      "channel": 2,
      "note": 59,
      "start": 23.5906,
      "duration": 0.0976,
      "velocity": 107,
      "chip": "ym2612"
    },
    {
      "channel": 0,
      "note": 69,
      "start": 23.686,
      "duration": 0.0966,
      "velocity": 123,
      "chip": "ym2612"
    },
    {
      "channel": 2,
      "note": 27,
      "start": 23.6884,
      "duration": 0.0308,
      "velocity": 107,
      "chip": "ym2612"
    },
    {
      "channel": 3,
      "note": 47,
      "start": 23.692,
      "duration": 0.1923,
      "velocity": 114,
      "chip": "ym2612"
    },
    {
      "channel": 4,
      "note": 35,
      "start": 23.6929,
      "duration": 0.1923,
      "velocity": 110,
      "chip": "ym2612"
    },
    {
      "channel": 2,
      "note": 27,
      "start": 23.7194,
      "duration": 0.1615,
      "velocity": 127,
      "chip": "ym2612"
    },
    {
      "channel": 0,
      "note": 73,
      "start": 23.7828,
      "duration": 0.0956,
      "velocity": 123,
      "chip": "ym2612"
    },
    {
      "channel": 0,
      "note": 69,
      "start": 23.8786,
      "duration": 0.0961,
      "velocity": 123,
      "chip": "ym2612"
    },
    {
      "channel": 2,
      "note": 59,
      "start": 23.8812,
      "duration": 0.0307,
      "velocity": 127,
      "chip": "ym2612"
    },
    {
      "channel": 3,
      "note": 47,
      "start": 23.8846,
      "duration": 0.1925,
      "velocity": 114,
      "chip": "ym2612"
    },
    {
      "channel": 2,
      "note": 59,
      "start": 23.9121,
      "duration": 0.1614,
      "velocity": 123,
      "chip": "ym2612"
    },
    {
      "channel": 0,
      "note": 73,
      "start": 23.9749,
      "duration": 0.0961,
      "velocity": 123,
      "chip": "ym2612"
    },
    {
      "channel": 0,
      "note": 69,
      "start": 24.0711,
      "duration": 0.0961,
      "velocity": 123,
      "chip": "ym2612"
    },
    {
      "channel": 2,
      "note": 57,
      "start": 24.0737,
      "duration": 0.031,
      "velocity": 123,
      "chip": "ym2612"
    },
    {
      "channel": 3,
      "note": 47,
      "start": 24.0773,
      "duration": 0.1928,
      "velocity": 114,
      "chip": "ym2612"
    },
    {
      "channel": 4,
      "note": 35,
      "start": 24.0782,
      "duration": 0.1928,
      "velocity": 110,
      "chip": "ym2612"
    },
    {
      "channel": 2,
      "note": 57,
      "start": 24.1049,
      "duration": 0.0328,
      "velocity": 123,
      "chip": "ym2612"
    },
    {
      "channel": 2,
      "note": 57,
      "start": 24.138,
      "duration": 0.0305,
      "velocity": 123,
      "chip": "ym2612"
    },
    {
      "channel": 0,
      "note": 73,
      "start": 24.1674,
      "duration": 0.0961,
      "velocity": 123,
      "chip": "ym2612"
    },
    {
      "channel": 2,
      "note": 57,
      "start": 24.1687,
      "duration": 0.0323,
      "velocity": 123,
      "chip": "ym2612"
    },
    {
      "channel": 2,
      "note": 57,
      "start": 24.2012,
      "duration": 0.0301,
      "velocity": 123,
      "chip": "ym2612"
    },
    {
      "channel": 2,
      "note": 57,
      "start": 24.2321,
      "duration": 0.0349,
      "velocity": 127,
      "chip": "ym2612"
    },
    {
      "channel": 0,
      "note": 69,
      "start": 24.2637,
      "duration": 0.0961,
      "velocity": 123,
      "chip": "ym2612"
    },
    {
      "channel": 2,
      "note": 64,
      "start": 24.2671,
      "duration": 0.0937,
      "velocity": 127,
      "chip": "ym2612"
    },
    {
      "channel": 3,
      "note": 47,
      "start": 24.2704,
      "duration": 0.1896,
      "velocity": 114,
      "chip": "ym2612"
    },
    {
      "channel": 4,
      "note": 35,
      "start": 24.2712,
      "duration": 0.1897,
      "velocity": 110,
      "chip": "ym2612"
    },
    {
      "channel": 0,
      "note": 73,
      "start": 24.3601,
      "duration": 0.0961,
      "velocity": 123,
      "chip": "ym2612"
    },
    {
      "channel": 2,
      "note": 64,
      "start": 24.361,
      "duration": 0.0961,
      "velocity": 127,
      "chip": "ym2612"
    },
    {
      "channel": 0,
      "note": 69,
      "start": 24.4564,
      "duration": 0.096,
      "velocity": 123,
      "chip": "ym2612"
    },
    {
      "channel": 2,
      "note": 64,
      "start": 24.4574,
      "duration": 0.096,
      "velocity": 127,
      "chip": "ym2612"
    },
    {
      "channel": 3,
      "note": 47,
      "start": 24.4602,
      "duration": 0.1939,
      "velocity": 114,
      "chip": "ym2612"
    },
    {
      "channel": 0,
      "note": 73,
      "start": 24.5526,
      "duration": 0.0933,
      "velocity": 123,
      "chip": "ym2612"
    },
    {
      "channel": 2,
      "note": 64,
      "start": 24.5536,
      "duration": 0.0962,
      "velocity": 107,
      "chip": "ym2612"
    },
    {
      "channel": 0,
      "note": 69,
      "start": 24.6461,
      "duration": 0.099,
      "velocity": 123,
      "chip": "ym2612"
    },
    {
      "channel": 1,
      "note": 24,
      "start": 24.6471,
      "duration": 2.9571,
      "velocity": 98,
      "chip": "ym2612"
    },
    {
      "channel": 2,
      "note": 26,
      "start": 24.65,
      "duration": 0.0329,
      "velocity": 107,
      "chip": "ym2612"
    },
    {
      "channel": 3,
      "note": 48,
      "start": 24.6543,
      "duration": 0.1924,
      "velocity": 114,
      "chip": "ym2612"
    },
    {
      "channel": 4,
      "note": 36,
      "start": 24.6554,
      "duration": 0.1922,
      "velocity": 110,
      "chip": "ym2612"
    },
    {
      "channel": 2,
      "note": 26,
      "start": 24.6832,
      "duration": 0.1607,
      "velocity": 127,
      "chip": "ym2612"
    },
    {
      "channel": 0,
      "note": 73,
      "start": 24.7454,
      "duration": 0.0961,
      "velocity": 123,
      "chip": "ym2612"
    },
    {
      "channel": 0,
      "note": 69,
      "start": 24.8416,
      "duration": 0.0961,
      "velocity": 123,
      "chip": "ym2612"
    },
    {
      "channel": 2,
      "note": 59,
      "start": 24.8441,
      "duration": 0.1923,
      "velocity": 127,
      "chip": "ym2612"
    },
    {
      "channel": 3,
      "note": 48,
      "start": 24.8469,
      "duration": 0.1924,
      "velocity": 114,
      "chip": "ym2612"
    },
    {
      "channel": 0,
      "note": 73,
      "start": 24.9379,
      "duration": 0.0961,
      "velocity": 123,
      "chip": "ym2612"
    },
    {
      "channel": 5,
      "note": 24,
      "start": 24.9427,
      "duration": 2.9535,
      "velocity": 98,
      "chip": "ym2612"
    },
    {
      "channel": 0,
      "note": 69,
      "start": 25.0342,
      "duration": 0.0961,
      "velocity": 123,
      "chip": "ym2612"
    },
    {
      "channel": 2,
      "note": 59,
      "start": 25.0366,
      "duration": 0.0309,
      "velocity": 127,
      "chip": "ym2612"
    },
    {
      "channel": 3,
      "note": 48,
      "start": 25.0395,
      "duration": 0.1936,
      "velocity": 114,
      "chip": "ym2612"
    },
    {
      "channel": 2,
      "note": 59,
      "start": 25.0677,
      "duration": 0.1613,
      "velocity": 127,
      "chip": "ym2612"
    },
    {
      "channel": 0,
      "note": 73,
      "start": 25.1305,
      "duration": 0.0961,
      "velocity": 123,
      "chip": "ym2612"
    },
    {
      "channel": 0,
      "note": 69,
      "start": 25.2268,
      "duration": 0.0961,
      "velocity": 123,
      "chip": "ym2612"
    },
    {
      "channel": 2,
      "note": 64,
      "start": 25.2293,
      "duration": 0.1926,
      "velocity": 123,
      "chip": "ym2612"
    },
    {
      "channel": 3,
      "note": 48,
      "start": 25.2333,
      "duration": 0.1912,
      "velocity": 114,
      "chip": "ym2612"
    },
    {
      "channel": 4,
      "note": 36,
      "start": 25.2342,
      "duration": 0.1912,
      "velocity": 110,
      "chip": "ym2612"
    },
    {
      "channel": 0,
      "note": 73,
      "start": 25.3231,
      "duration": 0.0962,
      "velocity": 123,
      "chip": "ym2612"
    },
    {
      "channel": 0,
      "note": 69,
      "start": 25.4195,
      "duration": 0.0965,
      "velocity": 123,
      "chip": "ym2612"
    },
    {
      "channel": 2,
      "note": 57,
      "start": 25.4221,
      "duration": 0.031,
      "velocity": 123,
      "chip": "ym2612"
    },
    {
      "channel": 3,
      "note": 48,
      "start": 25.4248,
      "duration": 0.1939,
      "velocity": 114,
      "chip": "ym2612"
    },
    {
      "channel": 2,
      "note": 57,
      "start": 25.4533,
      "duration": 0.0327,
      "velocity": 123,
      "chip": "ym2612"
    },
    {
      "channel": 2,
      "note": 57,
      "start": 25.4863,
      "duration": 0.031,
      "velocity": 123,
      "chip": "ym2612"
    },
    {
      "channel": 0,
      "note": 73,
      "start": 25.5162,
      "duration": 0.0957,
      "velocity": 123,
      "chip": "ym2612"
    },
    {
      "channel": 2,
      "note": 57,
      "start": 25.5175,
      "duration": 0.0323,
      "velocity": 123,
      "chip": "ym2612"
    },
    {
      "channel": 2,
      "note": 57,
      "start": 25.5501,
      "duration": 0.0295,
      "velocity": 123,
      "chip": "ym2612"
    },
    {
      "channel": 2,
      "note": 57,
      "start": 25.5797,
      "duration": 0.0349,
      "velocity": 127,
      "chip": "ym2612"
    },
    {
      "channel": 0,
      "note": 69,
      "start": 25.612,
      "duration": 0.099,
      "velocity": 123,
      "chip": "ym2612"
    },
    {
      "channel": 2,
      "note": 59,
      "start": 25.6154,
      "duration": 0.0335,
      "velocity": 127,
      "chip": "ym2612"
    },
    {
      "channel": 3,
      "note": 48,
      "start": 25.6189,
      "duration": 0.1913,
      "velocity": 114,
      "chip": "ym2612"
    },
    {
      "channel": 4,
      "note": 36,
      "start": 25.6198,
      "duration": 0.1913,
      "velocity": 110,
      "chip": "ym2612"
    },
    {
      "channel": 2,
      "note": 59,
      "start": 25.6491,
      "duration": 0.1579,
      "velocity": 127,
      "chip": "ym2612"
    },
    {
      "channel": 0,
      "note": 73,
      "start": 25.7113,
      "duration": 0.0933,
      "velocity": 123,
      "chip": "ym2612"
    },
    {
      "channel": 0,
      "note": 69,
      "start": 25.8047,
      "duration": 0.0989,
      "velocity": 123,
      "chip": "ym2612"
    },
    {
      "channel": 2,
      "note": 66,
      "start": 25.8073,
      "duration": 0.0974,
      "velocity": 127,
      "chip": "ym2612"
    },
    {
      "channel": 3,
      "note": 48,
      "start": 25.8105,
      "duration": 0.1912,
      "velocity": 114,
      "chip": "ym2612"
    },
    {
      "channel": 4,
      "note": 36,
      "start": 25.8113,
      "duration": 0.1912,
      "velocity": 110,
      "chip": "ym2612"
    },
    {
      "channel": 0,
      "note": 73,
      "start": 25.9039,
      "duration": 0.0932,
      "velocity": 123,
      "chip": "ym2612"
    },
    {
      "channel": 2,
      "note": 66,
      "start": 25.9049,
      "duration": 0.0939,
      "velocity": 127,
      "chip": "ym2612"
    },
    {
      "channel": 0,
      "note": 69,
      "start": 25.9973,
      "duration": 0.0989,
      "velocity": 123,
      "chip": "ym2612"
    },
    {
      "channel": 2,
      "note": 66,
      "start": 25.999,
      "duration": 0.0983,
      "velocity": 127,
      "chip": "ym2612"
    },
    {
      "channel": 3,
      "note": 48,
      "start": 26.0018,
      "duration": 0.1933,
      "velocity": 114,
      "chip": "ym2612"
    },
    {
      "channel": 0,
      "note": 73,
      "start": 26.0965,
      "duration": 0.0933,
      "velocity": 123,
      "chip": "ym2612"
    },
    {
      "channel": 2,
      "note": 66,
      "start": 26.0975,
      "duration": 0.0948,
      "velocity": 123,
      "chip": "ym2612"
    },
    {
      "channel": 0,
      "note": 69,
      "start": 26.19,
      "duration": 0.0989,
      "velocity": 123,
      "chip": "ym2612"
    },
    {
      "channel": 2,
      "note": 68,
      "start": 26.1925,
      "duration": 0.0974,
      "velocity": 123,
      "chip": "ym2612"
    },
    {
      "channel": 3,
      "note": 48,
      "start": 26.1953,
      "duration": 0.1934,
      "velocity": 114,
      "chip": "ym2612"
    },
    {
      "channel": 0,
      "note": 73,
      "start": 26.2891,
      "duration": 0.0937,
      "velocity": 123,
      "chip": "ym2612"
    },
    {
      "channel": 2,
      "note": 68,
      "start": 26.2901,
      "duration": 0.0952,
      "velocity": 107,
      "chip": "ym2612"
    },
    {
      "channel": 0,
      "note": 69,
      "start": 26.383,
      "duration": 0.0992,
      "velocity": 123,
      "chip": "ym2612"
    },
    {
      "channel": 2,
      "note": 30,
      "start": 26.3854,
      "duration": 0.0333,
      "velocity": 107,
      "chip": "ym2612"
    },
    {
      "channel": 3,
      "note": 48,
      "start": 26.389,
      "duration": 0.1912,
      "velocity": 114,
      "chip": "ym2612"
    },
    {
      "channel": 4,
      "note": 36,
      "start": 26.3899,
      "duration": 0.1914,
      "velocity": 110,
      "chip": "ym2612"
    },
    {
      "channel": 2,
      "note": 30,
      "start": 26.4189,
      "duration": 0.1586,
      "velocity": 123,
      "chip": "ym2612"
    },
    {
      "channel": 0,
      "note": 73,
      "start": 26.4824,
      "duration": 0.0926,
      "velocity": 123,
      "chip": "ym2612"
    },
    {
      "channel": 0,
      "note": 69,
      "start": 26.5752,
      "duration": 0.0989,
      "velocity": 123,
      "chip": "ym2612"
    },
    {
      "channel": 2,
      "note": 59,
      "start": 26.5777,
      "duration": 0.0974,
      "velocity": 123,
      "chip": "ym2612"
    },
    {
      "channel": 3,
      "note": 48,
      "start": 26.5805,
      "duration": 0.1931,
      "velocity": 114,
      "chip": "ym2612"
    },
    {
      "channel": 0,
      "note": 73,
      "start": 26.6743,
      "duration": 0.0933,
      "velocity": 123,
      "chip": "ym2612"
    },
    {
      "channel": 2,
      "note": 59,
      "start": 26.6753,
      "duration": 0.0947,
      "velocity": 107,
      "chip": "ym2612"
    },
    {
      "channel": 0,
      "note": 69,
      "start": 26.7678,
      "duration": 0.0989,
      "velocity": 123,
      "chip": "ym2612"
    },
    {
      "channel": 2,
      "note": 27,
      "start": 26.7703,
      "duration": 0.0337,
      "velocity": 107,
      "chip": "ym2612"
    },
    {
      "channel": 3,
      "note": 48,
      "start": 26.7739,
      "duration": 0.1923,
      "velocity": 114,
      "chip": "ym2612"
    },
    {
      "channel": 4,
      "note": 36,
      "start": 26.7748,
      "duration": 0.1923,
      "velocity": 110,
      "chip": "ym2612"
    },
    {
      "channel": 2,
      "note": 27,
      "start": 26.8041,
      "duration": 0.1586,
      "velocity": 127,
      "chip": "ym2612"
    },
    {
      "channel": 0,
      "note": 73,
      "start": 26.8669,
      "duration": 0.0933,
      "velocity": 123,
      "chip": "ym2612"
    },
    {
      "channel": 0,
      "note": 69,
      "start": 26.9605,
      "duration": 0.0989,
      "velocity": 123,
      "chip": "ym2612"
    },
    {
      "channel": 2,
      "note": 59,
      "start": 26.963,
      "duration": 0.0335,
      "velocity": 127,
      "chip": "ym2612"
    },
    {
      "channel": 3,
      "note": 48,
      "start": 26.9664,
      "duration": 0.1926,
      "velocity": 114,
      "chip": "ym2612"
    },
    {
      "channel": 2,
      "note": 59,
      "start": 26.9968,
      "duration": 0.1587,
      "velocity": 123,
      "chip": "ym2612"
    },
    {
      "channel": 0,
      "note": 73,
      "start": 27.0595,
      "duration": 0.0933,
      "velocity": 123,
      "chip": "ym2612"
    },
    {
      "channel": 0,
      "note": 69,
      "start": 27.1531,
      "duration": 0.0989,
      "velocity": 123,
      "chip": "ym2612"
    },
    {
      "channel": 2,
      "note": 57,
      "start": 27.1557,
      "duration": 0.0337,
      "velocity": 123,
      "chip": "ym2612"
    },
    {
      "channel": 3,
      "note": 48,
      "start": 27.1592,
      "duration": 0.1927,
      "velocity": 114,
      "chip": "ym2612"
    },
    {
      "channel": 4,
      "note": 36,
      "start": 27.1601,
      "duration": 0.1927,
      "velocity": 110,
      "chip": "ym2612"
    },
    {
      "channel": 2,
      "note": 57,
      "start": 27.1896,
      "duration": 0.03,
      "velocity": 123,
      "chip": "ym2612"
    },
    {
      "channel": 2,
      "note": 57,
      "start": 27.2198,
      "duration": 0.0334,
      "velocity": 123,
      "chip": "ym2612"
    },
    {
      "channel": 0,
      "note": 73,
      "start": 27.2522,
      "duration": 0.0933,
      "velocity": 123,
      "chip": "ym2612"
    },
    {
      "channel": 2,
      "note": 57,
      "start": 27.2534,
      "duration": 0.0298,
      "velocity": 123,
      "chip": "ym2612"
    },
    {
      "channel": 2,
      "note": 57,
      "start": 27.2835,
      "duration": 0.0329,
      "velocity": 123,
      "chip": "ym2612"
    },
    {
      "channel": 2,
      "note": 57,
      "start": 27.3166,
      "duration": 0.0322,
      "velocity": 127,
      "chip": "ym2612"
    },
    {
      "channel": 0,
      "note": 69,
      "start": 27.3456,
      "duration": 0.0989,
      "velocity": 123,
      "chip": "ym2612"
    },
    {
      "channel": 2,
      "note": 64,
      "start": 27.349,
      "duration": 0.0965,
      "velocity": 127,
      "chip": "ym2612"
    },
    {
      "channel": 3,
      "note": 48,
      "start": 27.3522,
      "duration": 0.1896,
      "velocity": 114,
      "chip": "ym2612"
    },
    {
      "channel": 4,
      "note": 36,
      "start": 27.3531,
      "duration": 0.1897,
      "velocity": 110,
      "chip": "ym2612"
    },
    {
      "channel": 0,
      "note": 73,
      "start": 27.4447,
      "duration": 0.0933,
      "velocity": 123,
      "chip": "ym2612"
    },
    {
      "channel": 2,
      "note": 64,
      "start": 27.4458,
      "duration": 0.0932,
      "velocity": 127,
      "chip": "ym2612"
    },
    {
      "channel": 0,
      "note": 69,
      "start": 27.5383,
      "duration": 0.096,
      "velocity": 123,
      "chip": "ym2612"
    },
    {
      "channel": 2,
      "note": 64,
      "start": 27.5393,
      "duration": 0.096,
      "velocity": 127,
      "chip": "ym2612"
    },
    {
      "channel": 3,
      "note": 48,
      "start": 27.5421,
      "duration": 0.1958,
      "velocity": 114,
      "chip": "ym2612"
    },
    {
      "channel": 0,
      "note": 73,
      "start": 27.6344,
      "duration": 0.0962,
      "velocity": 123,
      "chip": "ym2612"
    },
    {
      "channel": 2,
      "note": 64,
      "start": 27.6354,
      "duration": 0.0987,
      "velocity": 107,
      "chip": "ym2612"
    },
    {
      "channel": 0,
      "note": 69,
      "start": 27.7308,
      "duration": 0.099,
      "velocity": 123,
      "chip": "ym2612"
    },
    {
      "channel": 1,
      "note": 26,
      "start": 27.7321,
      "duration": 2.9539,
      "velocity": 98,
      "chip": "ym2612"
    },
    {
      "channel": 2,
      "note": 26,
      "start": 27.7344,
      "duration": 0.0326,
      "velocity": 107,
      "chip": "ym2612"
    },
    {
      "channel": 3,
      "note": 48,
      "start": 27.738,
      "duration": 0.1905,
      "velocity": 114,
      "chip": "ym2612"
    },
    {
      "channel": 4,
      "note": 36,
      "start": 27.739,
      "duration": 0.1905,
      "velocity": 110,
      "chip": "ym2612"
    },
    {
      "channel": 2,
      "note": 26,
      "start": 27.7672,
      "duration": 0.1586,
      "velocity": 127,
      "chip": "ym2612"
    },
    {
      "channel": 0,
      "note": 73,
      "start": 27.83,
      "duration": 0.0933,
      "velocity": 123,
      "chip": "ym2612"
    },
    {
      "channel": 0,
      "note": 69,
      "start": 27.9235,
      "duration": 0.0988,
      "velocity": 123,
      "chip": "ym2612"
    },
    {
      "channel": 2,
      "note": 59,
      "start": 27.926,
      "duration": 0.1924,
      "velocity": 127,
      "chip": "ym2612"
    },
    {
      "channel": 3,
      "note": 48,
      "start": 27.9288,
      "duration": 0.1925,
      "velocity": 114,
      "chip": "ym2612"
    },
    {
      "channel": 0,
      "note": 73,
      "start": 28.0226,
      "duration": 0.0934,
      "velocity": 123,
      "chip": "ym2612"
    },
    {
      "channel": 5,
      "note": 26,
      "start": 28.0268,
      "duration": 2.9513,
      "velocity": 98,
      "chip": "ym2612"
    },
    {
      "channel": 0,
      "note": 69,
      "start": 28.1162,
      "duration": 0.0994,
      "velocity": 123,
      "chip": "ym2612"
    },
    {
      "channel": 2,
      "note": 59,
      "start": 28.1187,
      "duration": 0.0335,
      "velocity": 127,
      "chip": "ym2612"
    },
    {
      "channel": 3,
      "note": 48,
      "start": 28.1215,
      "duration": 0.1928,
      "velocity": 114,
      "chip": "ym2612"
    },
    {
      "channel": 2,
      "note": 59,
      "start": 28.1524,
      "duration": 0.1585,
      "velocity": 127,
      "chip": "ym2612"
    },
    {
      "channel": 0,
      "note": 73,
      "start": 28.2159,
      "duration": 0.0926,
      "velocity": 123,
      "chip": "ym2612"
    },
    {
      "channel": 0,
      "note": 69,
      "start": 28.3087,
      "duration": 0.0988,
      "velocity": 123,
      "chip": "ym2612"
    },
    {
      "channel": 2,
      "note": 64,
      "start": 28.3111,
      "duration": 0.1926,
      "velocity": 123,
      "chip": "ym2612"
    },
    {
      "channel": 3,
      "note": 48,
      "start": 28.3148,
      "duration": 0.1916,
      "velocity": 114,
      "chip": "ym2612"
    },
    {
      "channel": 4,
      "note": 36,
      "start": 28.3161,
      "duration": 0.1912,
      "velocity": 110,
      "chip": "ym2612"
    },
    {
      "channel": 0,
      "note": 73,
      "start": 28.4078,
      "duration": 0.0933,
      "velocity": 123,
      "chip": "ym2612"
    },
    {
      "channel": 0,
      "note": 69,
      "start": 28.5013,
      "duration": 0.0989,
      "velocity": 123,
      "chip": "ym2612"
    },
    {
      "channel": 2,
      "note": 57,
      "start": 28.5039,
      "duration": 0.0337,
      "velocity": 123,
      "chip": "ym2612"
    },
    {
      "channel": 3,
      "note": 48,
      "start": 28.5067,
      "duration": 0.194,
      "velocity": 114,
      "chip": "ym2612"
    },
    {
      "channel": 2,
      "note": 57,
      "start": 28.5379,
      "duration": 0.03,
      "velocity": 123,
      "chip": "ym2612"
    },
    {
      "channel": 2,
      "note": 57,
      "start": 28.5681,
      "duration": 0.0333,
      "velocity": 123,
      "chip": "ym2612"
    },
    {
      "channel": 0,
      "note": 73,
      "start": 28.6005,
      "duration": 0.0933,
      "velocity": 123,
      "chip": "ym2612"
    },
    {
      "channel": 2,
      "note": 57,
      "start": 28.6017,
      "duration": 0.0295,
      "velocity": 123,
      "chip": "ym2612"
    },
    {
      "channel": 2,
      "note": 57,
      "start": 28.6321,
      "duration": 0.0321,
      "velocity": 123,
      "chip": "ym2612"
    },
    {
      "channel": 2,
      "note": 57,
      "start": 28.6643,
      "duration": 0.0321,
      "velocity": 127,
      "chip": "ym2612"
    },
    {
      "channel": 0,
      "note": 69,
      "start": 28.694,
      "duration": 0.0989,
      "velocity": 123,
      "chip": "ym2612"
    },
    {
      "channel": 2,
      "note": 59,
      "start": 28.6967,
      "duration": 0.0334,
      "velocity": 127,
      "chip": "ym2612"
    },
    {
      "channel": 3,
      "note": 48,
      "start": 28.7008,
      "duration": 0.1941,
      "velocity": 114,
      "chip": "ym2612"
    },
    {
      "channel": 4,
      "note": 36,
      "start": 28.7017,
      "duration": 0.1941,
      "velocity": 110,
      "chip": "ym2612"
    },
    {
      "channel": 2,
      "note": 59,
      "start": 28.7303,
      "duration": 0.1615,
      "velocity": 127,
      "chip": "ym2612"
    },
    {
      "channel": 0,
      "note": 73,
      "start": 28.7932,
      "duration": 0.0961,
      "velocity": 123,
      "chip": "ym2612"
    },
    {
      "channel": 0,
      "note": 69,
      "start": 28.8895,
      "duration": 0.0961,
      "velocity": 123,
      "chip": "ym2612"
    },
    {
      "channel": 2,
      "note": 66,
      "start": 28.8919,
      "duration": 0.0946,
      "velocity": 127,
      "chip": "ym2612"
    },
    {
      "channel": 3,
      "note": 48,
      "start": 28.8952,
      "duration": 0.1911,
      "velocity": 114,
      "chip": "ym2612"
    },
    {
      "channel": 4,
      "note": 36,
      "start": 28.896,
      "duration": 0.1912,
      "velocity": 110,
      "chip": "ym2612"
    },
    {
      "channel": 0,
      "note": 73,
      "start": 28.9857,
      "duration": 0.0968,
      "velocity": 123,
      "chip": "ym2612"
    },
    {
      "channel": 2,
      "note": 66,
      "start": 28.9867,
      "duration": 0.0968,
      "velocity": 127,
      "chip": "ym2612"
    },
    {
      "channel": 0,
      "note": 69,
      "start": 29.0827,
      "duration": 0.0955,
      "velocity": 123,
      "chip": "ym2612"
    },
    {
      "channel": 2,
      "note": 66,
      "start": 29.0837,
      "duration": 0.0954,
      "velocity": 127,
      "chip": "ym2612"
    },
    {
      "channel": 3,
      "note": 48,
      "start": 29.0865,
      "duration": 0.1933,
      "velocity": 114,
      "chip": "ym2612"
    },
    {
      "channel": 0,
      "note": 73,
      "start": 29.1783,
      "duration": 0.0962,
      "velocity": 123,
      "chip": "ym2612"
    },
    {
      "channel": 2,
      "note": 66,
      "start": 29.1793,
      "duration": 0.0976,
      "velocity": 123,
      "chip": "ym2612"
    },
    {
      "channel": 0,
      "note": 69,
      "start": 29.2747,
      "duration": 0.0961,
      "velocity": 123,
      "chip": "ym2612"
    },
    {
      "channel": 2,
      "note": 68,
      "start": 29.2772,
      "duration": 0.0947,
      "velocity": 123,
      "chip": "ym2612"
    },
    {
      "channel": 3,
      "note": 48,
      "start": 29.28,
      "duration": 0.1931,
      "velocity": 114,
      "chip": "ym2612"
    },
    {
      "channel": 0,
      "note": 73,
      "start": 29.371,
      "duration": 0.0961,
      "velocity": 123,
      "chip": "ym2612"
    },
    {
      "channel": 2,
      "note": 68,
      "start": 29.372,
      "duration": 0.0975,
      "velocity": 107,
      "chip": "ym2612"
    },
    {
      "channel": 0,
      "note": 69,
      "start": 29.4673,
      "duration": 0.0961,
      "velocity": 123,
      "chip": "ym2612"
    },
    {
      "channel": 2,
      "note": 30,
      "start": 29.4697,
      "duration": 0.0308,
      "velocity": 107,
      "chip": "ym2612"
    },
    {
      "channel": 3,
      "note": 48,
      "start": 29.4733,
      "duration": 0.1923,
      "velocity": 114,
      "chip": "ym2612"
    },
    {
      "channel": 4,
      "note": 36,
      "start": 29.4742,
      "duration": 0.1923,
      "velocity": 110,
      "chip": "ym2612"
    },
    {
      "channel": 2,
      "note": 30,
      "start": 29.5008,
      "duration": 0.1614,
      "velocity": 123,
      "chip": "ym2612"
    },
    {
      "channel": 0,
      "note": 73,
      "start": 29.5636,
      "duration": 0.0961,
      "velocity": 123,
      "chip": "ym2612"
    },
    {
      "channel": 0,
      "note": 69,
      "start": 29.6599,
      "duration": 0.0961,
      "velocity": 123,
      "chip": "ym2612"
    },
    {
      "channel": 2,
      "note": 59,
      "start": 29.6624,
      "duration": 0.0945,
      "velocity": 123,
      "chip": "ym2612"
    },
    {
      "channel": 3,
      "note": 48,
      "start": 29.6658,
      "duration": 0.1926,
      "velocity": 114,
      "chip": "ym2612"
    },
    {
      "channel": 0,
      "note": 73,
      "start": 29.7562,
      "duration": 0.0961,
      "velocity": 123,
      "chip": "ym2612"
    },
    {
      "channel": 2,
      "note": 59,
      "start": 29.7572,
      "duration": 0.0976,
      "velocity": 107,
      "chip": "ym2612"
    },
    {
      "channel": 0,
      "note": 69,
      "start": 29.8525,
      "duration": 0.0966,
      "velocity": 123,
      "chip": "ym2612"
    },
    {
      "channel": 2,
      "note": 27,
      "start": 29.855,
      "duration": 0.0308,
      "velocity": 107,
      "chip": "ym2612"
    },
    {
      "channel": 3,
      "note": 48,
      "start": 29.8585,
      "duration": 0.1924,
      "velocity": 114,
      "chip": "ym2612"
    },
    {
      "channel": 4,
      "note": 36,
      "start": 29.8594,
      "duration": 0.1924,
      "velocity": 110,
      "chip": "ym2612"
    },
    {
      "channel": 2,
      "note": 27,
      "start": 29.886,
      "duration": 0.1615,
      "velocity": 127,
      "chip": "ym2612"
    },
    {
      "channel": 0,
      "note": 73,
      "start": 29.9493,
      "duration": 0.0956,
      "velocity": 123,
      "chip": "ym2612"
    },
    {
      "channel": 0,
      "note": 69,
      "start": 30.0452,
      "duration": 0.0961,
      "velocity": 123,
      "chip": "ym2612"
    },
    {
      "channel": 2,
      "note": 59,
      "start": 30.0477,
      "duration": 0.0307,
      "velocity": 127,
      "chip": "ym2612"
    },
    {
      "channel": 3,
      "note": 48,
      "start": 30.0511,
      "duration": 0.1926,
      "velocity": 114,
      "chip": "ym2612"
    },
    {
      "channel": 2,
      "note": 59,
      "start": 30.0786,
      "duration": 0.1615,
      "velocity": 123,
      "chip": "ym2612"
    },
    {
      "channel": 0,
      "note": 73,
      "start": 30.1415,
      "duration": 0.096,
      "velocity": 123,
      "chip": "ym2612"
    },
    {
      "channel": 0,
      "note": 69,
      "start": 30.2377,
      "duration": 0.0961,
      "velocity": 123,
      "chip": "ym2612"
    },
    {
      "channel": 2,
      "note": 57,
      "start": 30.2403,
      "duration": 0.031,
      "velocity": 123,
      "chip": "ym2612"
    },
    {
      "channel": 3,
      "note": 48,
      "start": 30.2438,
      "duration": 0.1929,
      "velocity": 114,
      "chip": "ym2612"
    },
    {
      "channel": 4,
      "note": 36,
      "start": 30.2447,
      "duration": 0.1929,
      "velocity": 110,
      "chip": "ym2612"
    },
    {
      "channel": 2,
      "note": 57,
      "start": 30.2715,
      "duration": 0.0328,
      "velocity": 123,
      "chip": "ym2612"
    },
    {
      "channel": 2,
      "note": 57,
      "start": 30.3045,
      "duration": 0.0305,
      "velocity": 123,
      "chip": "ym2612"
    },
    {
      "channel": 0,
      "note": 73,
      "start": 30.334,
      "duration": 0.0961,
      "velocity": 123,
      "chip": "ym2612"
    },
    {
      "channel": 2,
      "note": 57,
      "start": 30.3353,
      "duration": 0.0322,
      "velocity": 123,
      "chip": "ym2612"
    },
    {
      "channel": 2,
      "note": 57,
      "start": 30.3678,
      "duration": 0.03,
      "velocity": 123,
      "chip": "ym2612"
    },
    {
      "channel": 2,
      "note": 57,
      "start": 30.3986,
      "duration": 0.0349,
      "velocity": 127,
      "chip": "ym2612"
    },
    {
      "channel": 0,
      "note": 69,
      "start": 30.4303,
      "duration": 0.0961,
      "velocity": 123,
      "chip": "ym2612"
    },
    {
      "channel": 2,
      "note": 64,
      "start": 30.4337,
      "duration": 0.0937,
      "velocity": 127,
      "chip": "ym2612"
    },
    {
      "channel": 3,
      "note": 48,
      "start": 30.4369,
      "duration": 0.1896,
      "velocity": 114,
      "chip": "ym2612"
    },
    {
      "channel": 4,
      "note": 36,
      "start": 30.4378,
      "duration": 0.1896,
      "velocity": 110,
      "chip": "ym2612"
    },
    {
      "channel": 0,
      "note": 73,
      "start": 30.5266,
      "duration": 0.0961,
      "velocity": 123,
      "chip": "ym2612"
    },
    {
      "channel": 2,
      "note": 64,
      "start": 30.5276,
      "duration": 0.0961,
      "velocity": 127,
      "chip": "ym2612"
    },
    {
      "channel": 0,
      "note": 69,
      "start": 30.623,
      "duration": 0.0959,
      "velocity": 123,
      "chip": "ym2612"
    },
    {
      "channel": 2,
      "note": 64,
      "start": 30.6239,
      "duration": 0.096,
      "velocity": 127,
      "chip": "ym2612"
    },
    {
      "channel": 3,
      "note": 48,
      "start": 30.6268,
      "duration": 0.1931,
      "velocity": 114,
      "chip": "ym2612"
    },
    {
      "channel": 0,
      "note": 73,
      "start": 30.7192,
      "duration": 0.0933,
      "velocity": 123,
      "chip": "ym2612"
    },
    {
      "channel": 2,
      "note": 64,
      "start": 30.7201,
      "duration": 0.0961,
      "velocity": 107,
      "chip": "ym2612"
    },
    {
      "channel": 0,
      "note": 69,
      "start": 30.8127,
      "duration": 0.099,
      "velocity": 123,
      "chip": "ym2612"
    },
    {
      "channel": 1,
      "note": 27,
      "start": 30.8136,
      "duration": 2.9571,
      "velocity": 98,
      "chip": "ym2612"
    },
    {
      "channel": 2,
      "note": 26,
      "start": 30.8165,
      "duration": 0.0331,
      "velocity": 107,
      "chip": "ym2612"
    },
    {
      "channel": 3,
      "note": 48,
      "start": 30.8201,
      "duration": 0.1931,
      "velocity": 114,
      "chip": "ym2612"
    },
    {
      "channel": 4,
      "note": 36,
      "start": 30.8211,
      "duration": 0.1931,
      "velocity": 110,
      "chip": "ym2612"
    },
    {
      "channel": 2,
      "note": 26,
      "start": 30.8498,
      "duration": 0.1607,
      "velocity": 127,
      "chip": "ym2612"
    },
    {
      "channel": 0,
      "note": 73,
      "start": 30.9119,
      "duration": 0.0961,
      "velocity": 123,
      "chip": "ym2612"
    },
    {
      "channel": 0,
      "note": 69,
      "start": 31.0082,
      "duration": 0.0961,
      "velocity": 123,
      "chip": "ym2612"
    },
    {
      "channel": 2,
      "note": 59,
      "start": 31.0107,
      "duration": 0.1923,
      "velocity": 127,
      "chip": "ym2612"
    },
    {
      "channel": 3,
      "note": 48,
      "start": 31.0135,
      "duration": 0.1923,
      "velocity": 114,
      "chip": "ym2612"
    },
    {
      "channel": 0,
      "note": 73,
      "start": 31.1044,
      "duration": 0.0962,
      "velocity": 123,
      "chip": "ym2612"
    },
    {
      "channel": 5,
      "note": 27,
      "start": 31.1089,
      "duration": 2.9538,
      "velocity": 98,
      "chip": "ym2612"
    },
    {
      "channel": 0,
      "note": 69,
      "start": 31.2008,
      "duration": 0.0961,
      "velocity": 123,
      "chip": "ym2612"
    },
    {
      "channel": 2,
      "note": 59,
      "start": 31.2033,
      "duration": 0.0308,
      "velocity": 127,
      "chip": "ym2612"
    },
    {
      "channel": 3,
      "note": 48,
      "start": 31.2061,
      "duration": 0.1936,
      "velocity": 114,
      "chip": "ym2612"
    },
    {
      "channel": 2,
      "note": 59,
      "start": 31.2342,
      "duration": 0.1614,
      "velocity": 127,
      "chip": "ym2612"
    },
    {
      "channel": 0,
      "note": 73,
      "start": 31.2971,
      "duration": 0.0961,
      "velocity": 123,
      "chip": "ym2612"
    },
    {
      "channel": 0,
      "note": 69,
      "start": 31.3934,
      "duration": 0.0961,
      "velocity": 123,
      "chip": "ym2612"
    },
    {
      "channel": 2,
      "note": 64,
      "start": 31.3958,
      "duration": 0.1926,
      "velocity": 123,
      "chip": "ym2612"
    },
    {
      "channel": 3,
      "note": 48,
      "start": 31.3999,
      "duration": 0.1913,
      "velocity": 114,
      "chip": "ym2612"
    },
    {
      "channel": 4,
      "note": 36,
      "start": 31.4008,
      "duration": 0.1913,
      "velocity": 110,
      "chip": "ym2612"
    },
    {
      "channel": 0,
      "note": 73,
      "start": 31.4896,
      "duration": 0.0962,
      "velocity": 123,
      "chip": "ym2612"
    },
    {
      "channel": 0,
      "note": 69,
      "start": 31.5861,
      "duration": 0.0966,
      "velocity": 123,
      "chip": "ym2612"
    },
    {
      "channel": 2,
      "note": 57,
      "start": 31.5886,
      "duration": 0.031,
      "velocity": 123,
      "chip": "ym2612"
    },
    {
      "channel": 3,
      "note": 48,
      "start": 31.5914,
      "duration": 0.1939,
      "velocity": 114,
      "chip": "ym2612"
    },
    {
      "channel": 2,
      "note": 57,
      "start": 31.6199,
      "duration": 0.0327,
      "velocity": 123,
      "chip": "ym2612"
    },
    {
      "channel": 2,
      "note": 57,
      "start": 31.6528,
      "duration": 0.0311,
      "velocity": 123,
      "chip": "ym2612"
    },
    {
      "channel": 0,
      "note": 73,
      "start": 31.6828,
      "duration": 0.0957,
      "velocity": 123,
      "chip": "ym2612"
    },
    {
      "channel": 2,
      "note": 57,
      "start": 31.6841,
      "duration": 0.0324,
      "velocity": 123,
      "chip": "ym2612"
    },
    {
      "channel": 2,
      "note": 57,
      "start": 31.7167,
      "duration": 0.0328,
      "velocity": 123,
      "chip": "ym2612"
    },
    {
      "channel": 2,
      "note": 57,
      "start": 31.7498,
      "duration": 0.0315,
      "velocity": 127,
      "chip": "ym2612"
    },
    {
      "channel": 0,
      "note": 69,
      "start": 31.7788,
      "duration": 0.0989,
      "velocity": 123,
      "chip": "ym2612"
    },
    {
      "channel": 2,
      "note": 59,
      "start": 31.7821,
      "duration": 0.0335,
      "velocity": 127,
      "chip": "ym2612"
    },
    {
      "channel": 3,
      "note": 48,
      "start": 31.7856,
      "duration": 0.1941,
      "velocity": 114,
      "chip": "ym2612"
    },
    {
      "channel": 4,
      "note": 36,
      "start": 31.7865,
      "duration": 0.1941,
      "velocity": 110,
      "chip": "ym2612"
    },
    {
      "channel": 2,
      "note": 59,
      "start": 31.8158,
      "duration": 0.1607,
      "velocity": 127,
      "chip": "ym2612"
    },
    {
      "channel": 0,
      "note": 73,
      "start": 31.8779,
      "duration": 0.0961,
      "velocity": 123,
      "chip": "ym2612"
    },
    {
      "channel": 0,
      "note": 69,
      "start": 31.9742,
      "duration": 0.0961,
      "velocity": 123,
      "chip": "ym2612"
    },
    {
      "channel": 2,
      "note": 66,
      "start": 31.9767,
      "duration": 0.0945,
      "velocity": 127,
      "chip": "ym2612"
    },
    {
      "channel": 3,
      "note": 48,
      "start": 31.98,
      "duration": 0.1905,
      "velocity": 114,
      "chip": "ym2612"
    },
    {
      "channel": 4,
      "note": 36,
      "start": 31.9808,
      "duration": 0.1905,
      "velocity": 110,
      "chip": "ym2612"
    },
    {
      "channel": 0,
      "note": 73,
      "start": 32.0705,
      "duration": 0.0961,
      "velocity": 123,
      "chip": "ym2612"
    },
    {
      "channel": 2,
      "note": 66,
      "start": 32.0715,
      "duration": 0.0961,
      "velocity": 127,
      "chip": "ym2612"
    },
    {
      "channel": 0,
      "note": 69,
      "start": 32.1669,
      "duration": 0.096,
      "velocity": 123,
      "chip": "ym2612"
    },
    {
      "channel": 2,
      "note": 66,
      "start": 32.1678,
      "duration": 0.096,
      "velocity": 127,
      "chip": "ym2612"
    },
    {
      "channel": 3,
      "note": 48,
      "start": 32.1707,
      "duration": 0.191,
      "velocity": 114,
      "chip": "ym2612"
    },
    {
      "channel": 0,
      "note": 73,
      "start": 32.2631,
      "duration": 0.0933,
      "velocity": 123,
      "chip": "ym2612"
    },
    {
      "channel": 2,
      "note": 66,
      "start": 32.2641,
      "duration": 0.0947,
      "velocity": 123,
      "chip": "ym2612"
    },
    {
      "channel": 0,
      "note": 69,
      "start": 32.3566,
      "duration": 0.0989,
      "velocity": 123,
      "chip": "ym2612"
    },
    {
      "channel": 2,
      "note": 68,
      "start": 32.359,
      "duration": 0.0974,
      "velocity": 123,
      "chip": "ym2612"
    },
    {
      "channel": 3,
      "note": 48,
      "start": 32.3618,
      "duration": 0.1936,
      "velocity": 114,
      "chip": "ym2612"
    },
    {
      "channel": 0,
      "note": 73,
      "start": 32.4557,
      "duration": 0.0937,
      "velocity": 123,
      "chip": "ym2612"
    },
    {
      "channel": 2,
      "note": 68,
      "start": 32.4566,
      "duration": 0.0952,
      "velocity": 107,
      "chip": "ym2612"
    },
    {
      "channel": 0,
      "note": 69,
      "start": 32.5496,
      "duration": 0.099,
      "velocity": 123,
      "chip": "ym2612"
    },
    {
      "channel": 2,
      "note": 30,
      "start": 32.5521,
      "duration": 0.0332,
      "velocity": 107,
      "chip": "ym2612"
    },
    {
      "channel": 3,
      "note": 48,
      "start": 32.5556,
      "duration": 0.1913,
      "velocity": 114,
      "chip": "ym2612"
    },
    {
      "channel": 4,
      "note": 36,
      "start": 32.5565,
      "duration": 0.1913,
      "velocity": 110,
      "chip": "ym2612"
    },
    {
      "channel": 2,
      "note": 30,
      "start": 32.5854,
      "duration": 0.1586,
      "velocity": 123,
      "chip": "ym2612"
    },
    {
      "channel": 0,
      "note": 73,
      "start": 32.6489,
      "duration": 0.0926,
      "velocity": 123,
      "chip": "ym2612"
    },
    {
      "channel": 0,
      "note": 69,
      "start": 32.7417,
      "duration": 0.0989,
      "velocity": 123,
      "chip": "ym2612"
    },
    {
      "channel": 2,
      "note": 59,
      "start": 32.7443,
      "duration": 0.0974,
      "velocity": 123,
      "chip": "ym2612"
    },
    {
      "channel": 3,
      "note": 48,
      "start": 32.7471,
      "duration": 0.1931,
      "velocity": 114,
      "chip": "ym2612"
    },
    {
      "channel": 0,
      "note": 73,
      "start": 32.8409,
      "duration": 0.0932,
      "velocity": 123,
      "chip": "ym2612"
    },
    {
      "channel": 2,
      "note": 59,
      "start": 32.8419,
      "duration": 0.0947,
      "velocity": 107,
      "chip": "ym2612"
    },
    {
      "channel": 0,
      "note": 69,
      "start": 32.9344,
      "duration": 0.0989,
      "velocity": 123,
      "chip": "ym2612"
    },
    {
      "channel": 2,
      "note": 27,
      "start": 32.9368,
      "duration": 0.0337,
      "velocity": 107,
      "chip": "ym2612"
    },
    {
      "channel": 3,
      "note": 48,
      "start": 32.9404,
      "duration": 0.1924,
      "velocity": 114,
      "chip": "ym2612"
    },
    {
      "channel": 4,
      "note": 36,
      "start": 32.9413,
      "duration": 0.1924,
      "velocity": 110,
      "chip": "ym2612"
    },
    {
      "channel": 2,
      "note": 27,
      "start": 32.9707,
      "duration": 0.1587,
      "velocity": 127,
      "chip": "ym2612"
    },
    {
      "channel": 0,
      "note": 73,
      "start": 33.0335,
      "duration": 0.0933,
      "velocity": 123,
      "chip": "ym2612"
    },
    {
      "channel": 0,
      "note": 69,
      "start": 33.1271,
      "duration": 0.0988,
      "velocity": 123,
      "chip": "ym2612"
    },
    {
      "channel": 2,
      "note": 59,
      "start": 33.1296,
      "duration": 0.0335,
      "velocity": 127,
      "chip": "ym2612"
    },
    {
      "channel": 3,
      "note": 48,
      "start": 33.133,
      "duration": 0.1926,
      "velocity": 114,
      "chip": "ym2612"
    },
    {
      "channel": 2,
      "note": 59,
      "start": 33.1633,
      "duration": 0.1587,
      "velocity": 123,
      "chip": "ym2612"
    },
    {
      "channel": 0,
      "note": 73,
      "start": 33.2261,
      "duration": 0.0933,
      "velocity": 123,
      "chip": "ym2612"
    },
    {
      "channel": 0,
      "note": 69,
      "start": 33.3196,
      "duration": 0.0988,
      "velocity": 123,
      "chip": "ym2612"
    },
    {
      "channel": 2,
      "note": 57,
      "start": 33.3222,
      "duration": 0.0338,
      "velocity": 123,
      "chip": "ym2612"
    },
    {
      "channel": 3,
      "note": 48,
      "start": 33.3258,
      "duration": 0.1928,
      "velocity": 114,
      "chip": "ym2612"
    },
    {
      "channel": 4,
      "note": 36,
      "start": 33.3267,
      "duration": 0.1927,
      "velocity": 110,
      "chip": "ym2612"
    },
    {
      "channel": 2,
      "note": 57,
      "start": 33.3562,
      "duration": 0.0299,
      "velocity": 123,
      "chip": "ym2612"
    },
    {
      "channel": 2,
      "note": 57,
      "start": 33.3864,
      "duration": 0.0333,
      "velocity": 123,
      "chip": "ym2612"
    },
    {
      "channel": 0,
      "note": 73,
      "start": 33.4187,
      "duration": 0.0933,
      "velocity": 123,
      "chip": "ym2612"
    },
    {
      "channel": 2,
      "note": 57,
      "start": 33.42,
      "duration": 0.03,
      "velocity": 123,
      "chip": "ym2612"
    },
    {
      "channel": 2,
      "note": 57,
      "start": 33.4501,
      "duration": 0.0329,
      "velocity": 123,
      "chip": "ym2612"
    },
    {
      "channel": 2,
      "note": 57,
      "start": 33.4833,
      "duration": 0.0321,
      "velocity": 127,
      "chip": "ym2612"
    },
    {
      "channel": 0,
      "note": 69,
      "start": 33.5122,
      "duration": 0.0989,
      "velocity": 123,
      "chip": "ym2612"
    },
    {
      "channel": 2,
      "note": 64,
      "start": 33.5155,
      "duration": 0.0966,
      "velocity": 127,
      "chip": "ym2612"
    },
    {
      "channel": 3,
      "note": 48,
      "start": 33.5188,
      "duration": 0.1896,
      "velocity": 114,
      "chip": "ym2612"
    },
    {
      "channel": 4,
      "note": 36,
      "start": 33.5197,
      "duration": 0.1896,
      "velocity": 110,
      "chip": "ym2612"
    },
    {
      "channel": 0,
      "note": 73,
      "start": 33.6113,
      "duration": 0.0933,
      "velocity": 123,
      "chip": "ym2612"
    },
    {
      "channel": 2,
      "note": 64,
      "start": 33.6123,
      "duration": 0.0933,
      "velocity": 127,
      "chip": "ym2612"
    },
    {
      "channel": 0,
      "note": 69,
      "start": 33.7048,
      "duration": 0.096,
      "velocity": 123,
      "chip": "ym2612"
    },
    {
      "channel": 2,
      "note": 64,
      "start": 33.7058,
      "duration": 0.096,
      "velocity": 127,
      "chip": "ym2612"
    },
    {
      "channel": 3,
      "note": 48,
      "start": 33.7086,
      "duration": 0.1958,
      "velocity": 114,
      "chip": "ym2612"
    },
    {
      "channel": 0,
      "note": 73,
      "start": 33.801,
      "duration": 0.0962,
      "velocity": 123,
      "chip": "ym2612"
    },
    {
      "channel": 2,
      "note": 64,
      "start": 33.802,
      "duration": 0.0987,
      "velocity": 107,
      "chip": "ym2612"
    },
    {
      "channel": 0,
      "note": 69,
      "start": 33.8973,
      "duration": 0.099,
      "velocity": 123,
      "chip": "ym2612"
    },
    {
      "channel": 1,
      "note": 29,
      "start": 33.8987,
      "duration": 2.9539,
      "velocity": 98,
      "chip": "ym2612"
    },
    {
      "channel": 2,
      "note": 26,
      "start": 33.9009,
      "duration": 0.0326,
      "velocity": 107,
      "chip": "ym2612"
    },
    {
      "channel": 3,
      "note": 48,
      "start": 33.9046,
      "duration": 0.1906,
      "velocity": 114,
      "chip": "ym2612"
    },
    {
      "channel": 4,
      "note": 36,
      "start": 33.9056,
      "duration": 0.1905,
      "velocity": 110,
      "chip": "ym2612"
    },
    {
      "channel": 2,
      "note": 26,
      "start": 33.9337,
      "duration": 0.1587,
      "velocity": 127,
      "chip": "ym2612"
    },
    {
      "channel": 0,
      "note": 73,
      "start": 33.9965,
      "duration": 0.0934,
      "velocity": 123,
      "chip": "ym2612"
    },
    {
      "channel": 0,
      "note": 69,
      "start": 34.0901,
      "duration": 0.0988,
      "velocity": 123,
      "chip": "ym2612"
    },
    {
      "channel": 2,
      "note": 59,
      "start": 34.0926,
      "duration": 0.1926,
      "velocity": 127,
      "chip": "ym2612"
    },
    {
      "channel": 3,
      "note": 48,
      "start": 34.0954,
      "duration": 0.1927,
      "velocity": 114,
      "chip": "ym2612"
    },
    {
      "channel": 0,
      "note": 73,
      "start": 34.1891,
      "duration": 0.0936,
      "velocity": 123,
      "chip": "ym2612"
    },
    {
      "channel": 5,
      "note": 29,
      "start": 34.1934,
      "duration": 2.9513,
      "velocity": 98,
      "chip": "ym2612"
    },
    {
      "channel": 0,
      "note": 69,
      "start": 34.2829,
      "duration": 0.0993,
      "velocity": 123,
      "chip": "ym2612"
    },
    {
      "channel": 2,
      "note": 59,
      "start": 34.2854,
      "duration": 0.0334,
      "velocity": 127,
      "chip": "ym2612"
    },
    {
      "channel": 3,
      "note": 48,
      "start": 34.2883,
      "duration": 0.1926,
      "velocity": 114,
      "chip": "ym2612"
    },
    {
      "channel": 2,
      "note": 59,
      "start": 34.319,
      "duration": 0.1585,
      "velocity": 127,
      "chip": "ym2612"
    },
    {
      "channel": 0,
      "note": 73,
      "start": 34.3824,
      "duration": 0.0926,
      "velocity": 123,
      "chip": "ym2612"
    },
    {
      "channel": 0,
      "note": 69,
      "start": 34.4753,
      "duration": 0.0989,
      "velocity": 123,
      "chip": "ym2612"
    },
    {
      "channel": 2,
      "note": 64,
      "start": 34.4777,
      "duration": 0.1926,
      "velocity": 123,
      "chip": "ym2612"
    },
    {
      "channel": 3,
      "note": 48,
      "start": 34.4812,
      "duration": 0.1918,
      "velocity": 114,
      "chip": "ym2612"
    },
    {
      "channel": 4,
      "note": 36,
      "start": 34.4827,
      "duration": 0.1912,
      "velocity": 110,
      "chip": "ym2612"
    },
    {
      "channel": 0,
      "note": 73,
      "start": 34.5744,
      "duration": 0.0933,
      "velocity": 123,
      "chip": "ym2612"
    },
    {
      "channel": 0,
      "note": 69,
      "start": 34.6679,
      "duration": 0.0989,
      "velocity": 123,
      "chip": "ym2612"
    },
    {
      "channel": 2,
      "note": 57,
      "start": 34.6705,
      "duration": 0.0337,
      "velocity": 123,
      "chip": "ym2612"
    },
    {
      "channel": 3,
      "note": 48,
      "start": 34.6732,
      "duration": 0.194,
      "velocity": 114,
      "chip": "ym2612"
    },
    {
      "channel": 2,
      "note": 57,
      "start": 34.7045,
      "duration": 0.03,
      "velocity": 123,
      "chip": "ym2612"
    },
    {
      "channel": 2,
      "note": 57,
      "start": 34.7347,
      "duration": 0.0333,
      "velocity": 123,
      "chip": "ym2612"
    },
    {
      "channel": 0,
      "note": 73,
      "start": 34.767,
      "duration": 0.0933,
      "velocity": 123,
      "chip": "ym2612"
    },
    {
      "channel": 2,
      "note": 57,
      "start": 34.7683,
      "duration": 0.0295,
      "velocity": 123,
      "chip": "ym2612"
    },
    {
      "channel": 2,
      "note": 57,
      "start": 34.7986,
      "duration": 0.0321,
      "velocity": 123,
      "chip": "ym2612"
    },
    {
      "channel": 2,
      "note": 57,
      "start": 34.8309,
      "duration": 0.0321,
      "velocity": 127,
      "chip": "ym2612"
    },
    {
      "channel": 0,
      "note": 69,
      "start": 34.8605,
      "duration": 0.0989,
      "velocity": 123,
      "chip": "ym2612"
    },
    {
      "channel": 2,
      "note": 59,
      "start": 34.8632,
      "duration": 0.0334,
      "velocity": 127,
      "chip": "ym2612"
    },
    {
      "channel": 3,
      "note": 48,
      "start": 34.8674,
      "duration": 0.1941,
      "velocity": 114,
      "chip": "ym2612"
    },
    {
      "channel": 4,
      "note": 36,
      "start": 34.8683,
      "duration": 0.1941,
      "velocity": 110,
      "chip": "ym2612"
    },
    {
      "channel": 2,
      "note": 59,
      "start": 34.8969,
      "duration": 0.1614,
      "velocity": 127,
      "chip": "ym2612"
    },
    {
      "channel": 0,
      "note": 73,
      "start": 34.9597,
      "duration": 0.0961,
      "velocity": 123,
      "chip": "ym2612"
    },
    {
      "channel": 0,
      "note": 69,
      "start": 35.056,
      "duration": 0.0961,
      "velocity": 123,
      "chip": "ym2612"
    },
    {
      "channel": 2,
      "note": 66,
      "start": 35.0585,
      "duration": 0.0946,
      "velocity": 127,
      "chip": "ym2612"
    },
    {
      "channel": 3,
      "note": 48,
      "start": 35.0617,
      "duration": 0.1912,
      "velocity": 114,
      "chip": "ym2612"
    },
    {
      "channel": 4,
      "note": 36,
      "start": 35.0626,
      "duration": 0.1912,
      "velocity": 110,
      "chip": "ym2612"
    },
    {
      "channel": 0,
      "note": 73,
      "start": 35.1523,
      "duration": 0.0968,
      "velocity": 123,
      "chip": "ym2612"
    },
    {
      "channel": 2,
      "note": 66,
      "start": 35.1533,
      "duration": 0.0968,
      "velocity": 127,
      "chip": "ym2612"
    },
    {
      "channel": 0,
      "note": 69,
      "start": 35.2493,
      "duration": 0.0954,
      "velocity": 123,
      "chip": "ym2612"
    },
    {
      "channel": 2,
      "note": 66,
      "start": 35.2503,
      "duration": 0.0954,
      "velocity": 127,
      "chip": "ym2612"
    },
    {
      "channel": 3,
      "note": 48,
      "start": 35.2531,
      "duration": 0.1933,
      "velocity": 114,
      "chip": "ym2612"
    },
    {
      "channel": 0,
      "note": 73,
      "start": 35.3449,
      "duration": 0.0962,
      "velocity": 123,
      "chip": "ym2612"
    },
    {
      "channel": 2,
      "note": 66,
      "start": 35.3459,
      "duration": 0.0976,
      "velocity": 123,
      "chip": "ym2612"
    },
    {
      "channel": 0,
      "note": 69,
      "start": 35.4413,
      "duration": 0.0961,
      "velocity": 123,
      "chip": "ym2612"
    },
    {
      "channel": 2,
      "note": 68,
      "start": 35.4437,
      "duration": 0.0946,
      "velocity": 123,
      "chip": "ym2612"
    },
    {
      "channel": 3,
      "note": 48,
      "start": 35.4466,
      "duration": 0.1931,
      "velocity": 114,
      "chip": "ym2612"
    },
    {
      "channel": 0,
      "note": 73,
      "start": 35.5376,
      "duration": 0.0961,
      "velocity": 123,
      "chip": "ym2612"
    },
    {
      "channel": 2,
      "note": 68,
      "start": 35.5386,
      "duration": 0.0976,
      "velocity": 107,
      "chip": "ym2612"
    },
    {
      "channel": 0,
      "note": 69,
      "start": 35.6339,
      "duration": 0.0961,
      "velocity": 123,
      "chip": "ym2612"
    },
    {
      "channel": 2,
      "note": 30,
      "start": 35.6363,
      "duration": 0.0308,
      "velocity": 107,
      "chip": "ym2612"
    },
    {
      "channel": 3,
      "note": 48,
      "start": 35.6398,
      "duration": 0.1923,
      "velocity": 114,
      "chip": "ym2612"
    },
    {
      "channel": 4,
      "note": 36,
      "start": 35.6407,
      "duration": 0.1924,
      "velocity": 110,
      "chip": "ym2612"
    },
    {
      "channel": 2,
      "note": 30,
      "start": 35.6673,
      "duration": 0.1615,
      "velocity": 123,
      "chip": "ym2612"
    },
    {
      "channel": 0,
      "note": 73,
      "start": 35.7301,
      "duration": 0.0961,
      "velocity": 123,
      "chip": "ym2612"
    },
    {
      "channel": 0,
      "note": 69,
      "start": 35.8265,
      "duration": 0.0961,
      "velocity": 123,
      "chip": "ym2612"
    },
    {
      "channel": 2,
      "note": 59,
      "start": 35.829,
      "duration": 0.0946,
      "velocity": 123,
      "chip": "ym2612"
    },
    {
      "channel": 3,
      "note": 48,
      "start": 35.8324,
      "duration": 0.1925,
      "velocity": 114,
      "chip": "ym2612"
    },
    {
      "channel": 0,
      "note": 73,
      "start": 35.9227,
      "duration": 0.0961,
      "velocity": 123,
      "chip": "ym2612"
    },
    {
      "channel": 2,
      "note": 59,
      "start": 35.9237,
      "duration": 0.0976,
      "velocity": 107,
      "chip": "ym2612"
    },
    {
      "channel": 0,
      "note": 69,
      "start": 36.0191,
      "duration": 0.0966,
      "velocity": 123,
      "chip": "ym2612"
    },
    {
      "channel": 2,
      "note": 27,
      "start": 36.0216,
      "duration": 0.0308,
      "velocity": 107,
      "chip": "ym2612"
    },
    {
      "channel": 3,
      "note": 48,
      "start": 36.0251,
      "duration": 0.1923,
      "velocity": 114,
      "chip": "ym2612"
    },
    {
      "channel": 4,
      "note": 36,
      "start": 36.026,
      "duration": 0.1923,
      "velocity": 110,
      "chip": "ym2612"
    },
    {
      "channel": 2,
      "note": 27,
      "start": 36.0526,
      "duration": 0.1615,
      "velocity": 127,
      "chip": "ym2612"
    },
    {
      "channel": 0,
      "note": 73,
      "start": 36.116,
      "duration": 0.0955,
      "velocity": 123,
      "chip": "ym2612"
    },
    {
      "channel": 0,
      "note": 69,
      "start": 36.2117,
      "duration": 0.0961,
      "velocity": 123,
      "chip": "ym2612"
    },
    {
      "channel": 2,
      "note": 59,
      "start": 36.2143,
      "duration": 0.0307,
      "velocity": 127,
      "chip": "ym2612"
    },
    {
      "channel": 3,
      "note": 48,
      "start": 36.2176,
      "duration": 0.1925,
      "velocity": 114,
      "chip": "ym2612"
    },
    {
      "channel": 2,
      "note": 59,
      "start": 36.2452,
      "duration": 0.1614,
      "velocity": 123,
      "chip": "ym2612"
    },
    {
      "channel": 0,
      "note": 73,
      "start": 36.308,
      "duration": 0.0961,
      "velocity": 123,
      "chip": "ym2612"
    },
    {
      "channel": 0,
      "note": 69,
      "start": 36.4043,
      "duration": 0.0961,
      "velocity": 123,
      "chip": "ym2612"
    },
    {
      "channel": 2,
      "note": 57,
      "start": 36.4069,
      "duration": 0.0309,
      "velocity": 123,
      "chip": "ym2612"
    },
    {
      "channel": 3,
      "note": 48,
      "start": 36.4105,
      "duration": 0.1928,
      "velocity": 114,
      "chip": "ym2612"
    },
    {
      "channel": 4,
      "note": 36,
      "start": 36.4113,
      "duration": 0.1928,
      "velocity": 110,
      "chip": "ym2612"
    },
    {
      "channel": 2,
      "note": 57,
      "start": 36.438,
      "duration": 0.0328,
      "velocity": 123,
      "chip": "ym2612"
    },
    {
      "channel": 2,
      "note": 57,
      "start": 36.4711,
      "duration": 0.0305,
      "velocity": 123,
      "chip": "ym2612"
    },
    {
      "channel": 0,
      "note": 73,
      "start": 36.5006,
      "duration": 0.0961,
      "velocity": 123,
      "chip": "ym2612"
    },
    {
      "channel": 2,
      "note": 57,
      "start": 36.5019,
      "duration": 0.0322,
      "velocity": 123,
      "chip": "ym2612"
    },
    {
      "channel": 2,
      "note": 57,
      "start": 36.5343,
      "duration": 0.03,
      "velocity": 123,
      "chip": "ym2612"
    },
    {
      "channel": 2,
      "note": 57,
      "start": 36.5646,
      "duration": 0.0354,
      "velocity": 127,
      "chip": "ym2612"
    },
    {
      "channel": 0,
      "note": 69,
      "start": 36.5969,
      "duration": 0.0961,
      "velocity": 123,
      "chip": "ym2612"
    },
    {
      "channel": 2,
      "note": 64,
      "start": 36.6003,
      "duration": 0.0937,
      "velocity": 127,
      "chip": "ym2612"
    },
    {
      "channel": 3,
      "note": 48,
      "start": 36.6034,
      "duration": 0.1896,
      "velocity": 114,
      "chip": "ym2612"
    },
    {
      "channel": 4,
      "note": 36,
      "start": 36.6043,
      "duration": 0.1896,
      "velocity": 110,
      "chip": "ym2612"
    },
    {
      "channel": 0,
      "note": 73,
      "start": 36.6932,
      "duration": 0.0961,
      "velocity": 123,
      "chip": "ym2612"
    },
    {
      "channel": 2,
      "note": 64,
      "start": 36.6941,
      "duration": 0.0961,
      "velocity": 127,
      "chip": "ym2612"
    },
    {
      "channel": 0,
      "note": 69,
      "start": 36.7895,
      "duration": 0.096,
      "velocity": 123,
      "chip": "ym2612"
    },
    {
      "channel": 2,
      "note": 64,
      "start": 36.7905,
      "duration": 0.0961,
      "velocity": 127,
      "chip": "ym2612"
    },
    {
      "channel": 3,
      "note": 48,
      "start": 36.7933,
      "duration": 0.1939,
      "velocity": 114,
      "chip": "ym2612"
    },
    {
      "channel": 0,
      "note": 73,
      "start": 36.8857,
      "duration": 0.0933,
      "velocity": 123,
      "chip": "ym2612"
    },
    {
      "channel": 2,
      "note": 64,
      "start": 36.8867,
      "duration": 0.0963,
      "velocity": 107,
      "chip": "ym2612"
    },
    {
      "channel": 0,
      "note": 69,
      "start": 36.9792,
      "duration": 0.099,
      "velocity": 123,
      "chip": "ym2612"
    },
    {
      "channel": 1,
      "note": 25,
      "start": 36.9802,
      "duration": 2.957,
      "velocity": 98,
      "chip": "ym2612"
    },
    {
      "channel": 2,
      "note": 26,
      "start": 36.9832,
      "duration": 0.0329,
      "velocity": 107,
      "chip": "ym2612"
    },
    {
      "channel": 3,
      "note": 49,
      "start": 36.9874,
      "duration": 0.1924,
      "velocity": 114,
      "chip": "ym2612"
    },
    {
      "channel": 4,
      "note": 37,
      "start": 36.9886,
      "duration": 0.1921,
      "velocity": 110,
      "chip": "ym2612"
    },
    {
      "channel": 2,
      "note": 26,
      "start": 37.0163,
      "duration": 0.1607,
      "velocity": 127,
      "chip": "ym2612"
    },
    {
      "channel": 0,
      "note": 73,
      "start": 37.0784,
      "duration": 0.0961,
      "velocity": 123,
      "chip": "ym2612"
    },
    {
      "channel": 0,
      "note": 69,
      "start": 37.1747,
      "duration": 0.0961,
      "velocity": 123,
      "chip": "ym2612"
    },
    {
      "channel": 2,
      "note": 59,
      "start": 37.1772,
      "duration": 0.1924,
      "velocity": 127,
      "chip": "ym2612"
    },
    {
      "channel": 3,
      "note": 49,
      "start": 37.18,
      "duration": 0.1924,
      "velocity": 114,
      "chip": "ym2612"
    },
    {
      "channel": 0,
      "note": 73,
      "start": 37.271,
      "duration": 0.0961,
      "velocity": 123,
      "chip": "ym2612"
    },
    {
      "channel": 5,
      "note": 25,
      "start": 37.2758,
      "duration": 2.9536,
      "velocity": 98,
      "chip": "ym2612"
    },
    {
      "channel": 0,
      "note": 69,
      "start": 37.3673,
      "duration": 0.0961,
      "velocity": 123,
      "chip": "ym2612"
    },
    {
      "channel": 2,
      "note": 59,
      "start": 37.3698,
      "duration": 0.0309,
      "velocity": 127,
      "chip": "ym2612"
    },
    {
      "channel": 3,
      "note": 49,
      "start": 37.3727,
      "duration": 0.1936,
      "velocity": 114,
      "chip": "ym2612"
    },
    {
      "channel": 2,
      "note": 59,
      "start": 37.4008,
      "duration": 0.1613,
      "velocity": 127,
      "chip": "ym2612"
    },
    {
      "channel": 0,
      "note": 73,
      "start": 37.4636,
      "duration": 0.0961,
      "velocity": 123,
      "chip": "ym2612"
    },
    {
      "channel": 0,
      "note": 69,
      "start": 37.5599,
      "duration": 0.0961,
      "velocity": 123,
      "chip": "ym2612"
    },
    {
      "channel": 2,
      "note": 64,
      "start": 37.5624,
      "duration": 0.1926,
      "velocity": 123,
      "chip": "ym2612"
    },
    {
      "channel": 3,
      "note": 49,
      "start": 37.5665,
      "duration": 0.1912,
      "velocity": 114,
      "chip": "ym2612"
    },
    {
      "channel": 4,
      "note": 37,
      "start": 37.5674,
      "duration": 0.1912,
      "velocity": 110,
      "chip": "ym2612"
    },
    {
      "channel": 0,
      "note": 73,
      "start": 37.6562,
      "duration": 0.0961,
      "velocity": 123,
      "chip": "ym2612"
    },
    {
      "channel": 0,
      "note": 69,
      "start": 37.7526,
      "duration": 0.0967,
      "velocity": 123,
      "chip": "ym2612"
    },
    {
      "channel": 2,
      "note": 57,
      "start": 37.7552,
      "duration": 0.031,
      "velocity": 123,
      "chip": "ym2612"
    },
    {
      "channel": 3,
      "note": 49,
      "start": 37.7579,
      "duration": 0.1941,
      "velocity": 114,
      "chip": "ym2612"
    },
    {
      "channel": 2,
      "note": 57,
      "start": 37.7864,
      "duration": 0.0328,
      "velocity": 123,
      "chip": "ym2612"
    },
    {
      "channel": 2,
      "note": 57,
      "start": 37.8193,
      "duration": 0.0312,
      "velocity": 123,
      "chip": "ym2612"
    },
    {
      "channel": 0,
      "note": 73,
      "start": 37.8494,
      "duration": 0.0957,
      "velocity": 123,
      "chip": "ym2612"
    },
    {
      "channel": 2,
      "note": 57,
      "start": 37.8508,
      "duration": 0.0324,
      "velocity": 123,
      "chip": "ym2612"
    },
    {
      "channel": 2,
      "note": 57,
      "start": 37.8834,
      "duration": 0.0328,
      "velocity": 123,
      "chip": "ym2612"
    },
    {
      "channel": 2,
      "note": 57,
      "start": 37.9163,
      "duration": 0.0315,
      "velocity": 127,
      "chip": "ym2612"
    },
    {
      "channel": 0,
      "note": 69,
      "start": 37.9453,
      "duration": 0.0989,
      "velocity": 123,
      "chip": "ym2612"
    },
    {
      "channel": 2,
      "note": 59,
      "start": 37.9487,
      "duration": 0.0334,
      "velocity": 127,
      "chip": "ym2612"
    },
    {
      "channel": 3,
      "note": 49,
      "start": 37.9522,
      "duration": 0.1941,
      "velocity": 114,
      "chip": "ym2612"
    },
    {
      "channel": 4,
      "note": 37,
      "start": 37.9531,
      "duration": 0.1941,
      "velocity": 110,
      "chip": "ym2612"
    },
    {
      "channel": 2,
      "note": 59,
      "start": 37.9823,
      "duration": 0.1607,
      "velocity": 127,
      "chip": "ym2612"
    },
    {
      "channel": 0,
      "note": 73,
      "start": 38.0445,
      "duration": 0.0961,
      "velocity": 123,
      "chip": "ym2612"
    },
    {
      "channel": 0,
      "note": 69,
      "start": 38.1408,
      "duration": 0.0961,
      "velocity": 123,
      "chip": "ym2612"
    },
    {
      "channel": 2,
      "note": 66,
      "start": 38.1433,
      "duration": 0.0946,
      "velocity": 127,
      "chip": "ym2612"
    },
    {
      "channel": 3,
      "note": 49,
      "start": 38.1465,
      "duration": 0.1905,
      "velocity": 114,
      "chip": "ym2612"
    },
    {
      "channel": 4,
      "note": 37,
      "start": 38.1474,
      "duration": 0.1905,
      "velocity": 110,
      "chip": "ym2612"
    },
    {
      "channel": 0,
      "note": 73,
      "start": 38.237,
      "duration": 0.0961,
      "velocity": 123,
      "chip": "ym2612"
    },
    {
      "channel": 2,
      "note": 66,
      "start": 38.238,
      "duration": 0.0961,
      "velocity": 127,
      "chip": "ym2612"
    },
    {
      "channel": 0,
      "note": 69,
      "start": 38.3334,
      "duration": 0.096,
      "velocity": 123,
      "chip": "ym2612"
    },
    {
      "channel": 2,
      "note": 66,
      "start": 38.3344,
      "duration": 0.0961,
      "velocity": 127,
      "chip": "ym2612"
    },
    {
      "channel": 3,
      "note": 49,
      "start": 38.3372,
      "duration": 0.191,
      "velocity": 114,
      "chip": "ym2612"
    },
    {
      "channel": 0,
      "note": 73,
      "start": 38.4296,
      "duration": 0.0933,
      "velocity": 123,
      "chip": "ym2612"
    },
    {
      "channel": 2,
      "note": 66,
      "start": 38.4306,
      "duration": 0.0947,
      "velocity": 123,
      "chip": "ym2612"
    },
    {
      "channel": 0,
      "note": 69,
      "start": 38.5231,
      "duration": 0.0988,
      "velocity": 123,
      "chip": "ym2612"
    },
    {
      "channel": 2,
      "note": 68,
      "start": 38.5256,
      "duration": 0.0974,
      "velocity": 123,
      "chip": "ym2612"
    },
    {
      "channel": 3,
      "note": 49,
      "start": 38.5284,
      "duration": 0.1937,
      "velocity": 114,
      "chip": "ym2612"
    },
    {
      "channel": 0,
      "note": 73,
      "start": 38.6222,
      "duration": 0.0938,
      "velocity": 123,
      "chip": "ym2612"
    },
    {
      "channel": 2,
      "note": 68,
      "start": 38.6232,
      "duration": 0.0954,
      "velocity": 107,
      "chip": "ym2612"
    },
    {
      "channel": 0,
      "note": 69,
      "start": 38.7163,
      "duration": 0.099,
      "velocity": 123,
      "chip": "ym2612"
    },
    {
      "channel": 2,
      "note": 30,
      "start": 38.7188,
      "duration": 0.033,
      "velocity": 107,
      "chip": "ym2612"
    },
    {
      "channel": 3,
      "note": 49,
      "start": 38.7223,
      "duration": 0.1911,
      "velocity": 114,
      "chip": "ym2612"
    },
    {
      "channel": 4,
      "note": 37,
      "start": 38.7232,
      "duration": 0.1911,
      "velocity": 110,
      "chip": "ym2612"
    },
    {
      "channel": 2,
      "note": 30,
      "start": 38.752,
      "duration": 0.1586,
      "velocity": 123,
      "chip": "ym2612"
    },
    {
      "channel": 0,
      "note": 73,
      "start": 38.8155,
      "duration": 0.0926,
      "velocity": 123,
      "chip": "ym2612"
    },
    {
      "channel": 0,
      "note": 69,
      "start": 38.9083,
      "duration": 0.0989,
      "velocity": 123,
      "chip": "ym2612"
    },
    {
      "channel": 2,
      "note": 59,
      "start": 38.9108,
      "duration": 0.0974,
      "velocity": 123,
      "chip": "ym2612"
    },
    {
      "channel": 3,
      "note": 49,
      "start": 38.9136,
      "duration": 0.1932,
      "velocity": 114,
      "chip": "ym2612"
    },
    {
      "channel": 0,
      "note": 73,
      "start": 39.0075,
      "duration": 0.0932,
      "velocity": 123,
      "chip": "ym2612"
    },
    {
      "channel": 2,
      "note": 59,
      "start": 39.0084,
      "duration": 0.0948,
      "velocity": 107,
      "chip": "ym2612"
    },
    {
      "channel": 0,
      "note": 69,
      "start": 39.1009,
      "duration": 0.0989,
      "velocity": 123,
      "chip": "ym2612"
    },
    {
      "channel": 2,
      "note": 27,
      "start": 39.1034,
      "duration": 0.0337,
      "velocity": 107,
      "chip": "ym2612"
    },
    {
      "channel": 3,
      "note": 49,
      "start": 39.1069,
      "duration": 0.1924,
      "velocity": 114,
      "chip": "ym2612"
    },
    {
      "channel": 4,
      "note": 37,
      "start": 39.1078,
      "duration": 0.1924,
      "velocity": 110,
      "chip": "ym2612"
    },
    {
      "channel": 2,
      "note": 27,
      "start": 39.1372,
      "duration": 0.1586,
      "velocity": 127,
      "chip": "ym2612"
    },
    {
      "channel": 0,
      "note": 73,
      "start": 39.2,
      "duration": 0.0933,
      "velocity": 123,
      "chip": "ym2612"
    },
    {
      "channel": 0,
      "note": 69,
      "start": 39.2935,
      "duration": 0.0989,
      "velocity": 123,
      "chip": "ym2612"
    },
    {
      "channel": 2,
      "note": 59,
      "start": 39.2961,
      "duration": 0.0336,
      "velocity": 127,
      "chip": "ym2612"
    },
    {
      "channel": 3,
      "note": 49,
      "start": 39.2995,
      "duration": 0.1926,
      "velocity": 114,
      "chip": "ym2612"
    },
    {
      "channel": 2,
      "note": 59,
      "start": 39.3298,
      "duration": 0.1587,
      "velocity": 123,
      "chip": "ym2612"
    },
    {
      "channel": 0,
      "note": 73,
      "start": 39.3927,
      "duration": 0.0933,
      "velocity": 123,
      "chip": "ym2612"
    },
    {
      "channel": 0,
      "note": 69,
      "start": 39.4862,
      "duration": 0.0988,
      "velocity": 123,
      "chip": "ym2612"
    },
    {
      "channel": 2,
      "note": 57,
      "start": 39.4888,
      "duration": 0.0337,
      "velocity": 123,
      "chip": "ym2612"
    },
    {
      "channel": 3,
      "note": 49,
      "start": 39.4924,
      "duration": 0.1927,
      "velocity": 114,
      "chip": "ym2612"
    },
    {
      "channel": 4,
      "note": 37,
      "start": 39.4933,
      "duration": 0.1927,
      "velocity": 110,
      "chip": "ym2612"
    },
    {
      "channel": 2,
      "note": 57,
      "start": 39.5228,
      "duration": 0.0299,
      "velocity": 123,
      "chip": "ym2612"
    },
    {
      "channel": 2,
      "note": 57,
      "start": 39.5529,
      "duration": 0.0334,
      "velocity": 123,
      "chip": "ym2612"
    },
    {
      "channel": 0,
      "note": 73,
      "start": 39.5853,
      "duration": 0.0932,
      "velocity": 123,
      "chip": "ym2612"
    },
    {
      "channel": 2,
      "note": 57,
      "start": 39.5866,
      "duration": 0.03,
      "velocity": 123,
      "chip": "ym2612"
    },
    {
      "channel": 2,
      "note": 57,
      "start": 39.6167,
      "duration": 0.0329,
      "velocity": 123,
      "chip": "ym2612"
    },
    {
      "channel": 2,
      "note": 57,
      "start": 39.6499,
      "duration": 0.0317,
      "velocity": 127,
      "chip": "ym2612"
    },
    {
      "channel": 0,
      "note": 69,
      "start": 39.6788,
      "duration": 0.0989,
      "velocity": 123,
      "chip": "ym2612"
    },
    {
      "channel": 2,
      "note": 64,
      "start": 39.6821,
      "duration": 0.0965,
      "velocity": 127,
      "chip": "ym2612"
    },
    {
      "channel": 3,
      "note": 49,
      "start": 39.6853,
      "duration": 0.1896,
      "velocity": 114,
      "chip": "ym2612"
    },
    {
      "channel": 4,
      "note": 37,
      "start": 39.6862,
      "duration": 0.1896,
      "velocity": 110,
      "chip": "ym2612"
    },
    {
      "channel": 0,
      "note": 73,
      "start": 39.7779,
      "duration": 0.0933,
      "velocity": 123,
      "chip": "ym2612"
    },
    {
      "channel": 2,
      "note": 64,
      "start": 39.7789,
      "duration": 0.0933,
      "velocity": 127,
      "chip": "ym2612"
    },
    {
      "channel": 0,
      "note": 69,
      "start": 39.8714,
      "duration": 0.0959,
      "velocity": 123,
      "chip": "ym2612"
    },
    {
      "channel": 2,
      "note": 64,
      "start": 39.8723,
      "duration": 0.096,
      "velocity": 127,
      "chip": "ym2612"
    },
    {
      "channel": 3,
      "note": 49,
      "start": 39.8752,
      "duration": 0.1957,
      "velocity": 114,
      "chip": "ym2612"
    },
    {
      "channel": 0,
      "note": 73,
      "start": 39.9676,
      "duration": 0.0961,
      "velocity": 123,
      "chip": "ym2612"
    },
    {
      "channel": 2,
      "note": 64,
      "start": 39.9685,
      "duration": 0.0988,
      "velocity": 107,
      "chip": "ym2612"
    },
    {
      "channel": 0,
      "note": 69,
      "start": 40.0639,
      "duration": 0.0989,
      "velocity": 123,
      "chip": "ym2612"
    },
    {
      "channel": 1,
      "note": 27,
      "start": 40.0653,
      "duration": 2.9538,
      "velocity": 98,
      "chip": "ym2612"
    },
    {
      "channel": 2,
      "note": 26,
      "start": 40.0675,
      "duration": 0.0326,
      "velocity": 107,
      "chip": "ym2612"
    },
    {
      "channel": 3,
      "note": 49,
      "start": 40.0712,
      "duration": 0.1905,
      "velocity": 114,
      "chip": "ym2612"
    },
    {
      "channel": 4,
      "note": 37,
      "start": 40.0721,
      "duration": 0.1905,
      "velocity": 110,
      "chip": "ym2612"
    },
    {
      "channel": 2,
      "note": 26,
      "start": 40.1003,
      "duration": 0.1587,
      "velocity": 127,
      "chip": "ym2612"
    },
    {
      "channel": 0,
      "note": 73,
      "start": 40.1631,
      "duration": 0.0933,
      "velocity": 123,
      "chip": "ym2612"
    },
    {
      "channel": 0,
      "note": 69,
      "start": 40.2566,
      "duration": 0.0989,
      "velocity": 123,
      "chip": "ym2612"
    },
    {
      "channel": 2,
      "note": 59,
      "start": 40.2592,
      "duration": 0.1926,
      "velocity": 127,
      "chip": "ym2612"
    },
    {
      "channel": 3,
      "note": 49,
      "start": 40.262,
      "duration": 0.1927,
      "velocity": 114,
      "chip": "ym2612"
    },
    {
      "channel": 0,
      "note": 73,
      "start": 40.3557,
      "duration": 0.0937,
      "velocity": 123,
      "chip": "ym2612"
    },
    {
      "channel": 5,
      "note": 27,
      "start": 40.36,
      "duration": 2.9513,
      "velocity": 98,
      "chip": "ym2612"
    },
    {
      "channel": 0,
      "note": 69,
      "start": 40.4496,
      "duration": 0.0992,
      "velocity": 123,
      "chip": "ym2612"
    },
    {
      "channel": 2,
      "note": 59,
      "start": 40.452,
      "duration": 0.0333,
      "velocity": 127,
      "chip": "ym2612"
    },
    {
      "channel": 3,
      "note": 49,
      "start": 40.4549,
      "duration": 0.1926,
      "velocity": 114,
      "chip": "ym2612"
    },
    {
      "channel": 2,
      "note": 59,
      "start": 40.4855,
      "duration": 0.1585,
      "velocity": 127,
      "chip": "ym2612"
    },
    {
      "channel": 0,
      "note": 73,
      "start": 40.549,
      "duration": 0.0926,
      "velocity": 123,
      "chip": "ym2612"
    },
    {
      "channel": 0,
      "note": 69,
      "start": 40.6418,
      "duration": 0.0989,
      "velocity": 123,
      "chip": "ym2612"
    },
    {
      "channel": 2,
      "note": 64,
      "start": 40.6442,
      "duration": 0.1926,
      "velocity": 123,
      "chip": "ym2612"
    },
    {
      "channel": 3,
      "note": 49,
      "start": 40.6477,
      "duration": 0.1919,
      "velocity": 114,
      "chip": "ym2612"
    },
    {
      "channel": 4,
      "note": 37,
      "start": 40.6492,
      "duration": 0.1912,
      "velocity": 110,
      "chip": "ym2612"
    },
    {
      "channel": 0,
      "note": 73,
      "start": 40.7409,
      "duration": 0.0933,
      "velocity": 123,
      "chip": "ym2612"
    },
    {
      "channel": 0,
      "note": 69,
      "start": 40.8344,
      "duration": 0.0989,
      "velocity": 123,
      "chip": "ym2612"
    },
    {
      "channel": 2,
      "note": 57,
      "start": 40.837,
      "duration": 0.0338,
      "velocity": 123,
      "chip": "ym2612"
    },
    {
      "channel": 3,
      "note": 49,
      "start": 40.8398,
      "duration": 0.194,
      "velocity": 114,
      "chip": "ym2612"
    },
    {
      "channel": 2,
      "note": 57,
      "start": 40.871,
      "duration": 0.0301,
      "velocity": 123,
      "chip": "ym2612"
    },
    {
      "channel": 2,
      "note": 57,
      "start": 40.9013,
      "duration": 0.0333,
      "velocity": 123,
      "chip": "ym2612"
    },
    {
      "channel": 0,
      "note": 73,
      "start": 40.9335,
      "duration": 0.0934,
      "velocity": 123,
      "chip": "ym2612"
    },
    {
      "channel": 2,
      "note": 57,
      "start": 40.9349,
      "duration": 0.0294,
      "velocity": 123,
      "chip": "ym2612"
    },
    {
      "channel": 2,
      "note": 57,
      "start": 40.9646,
      "duration": 0.0326,
      "velocity": 123,
      "chip": "ym2612"
    },
    {
      "channel": 2,
      "note": 57,
      "start": 40.9975,
      "duration": 0.0321,
      "velocity": 127,
      "chip": "ym2612"
    },
    {
      "channel": 0,
      "note": 69,
      "start": 41.0271,
      "duration": 0.0989,
      "velocity": 123,
      "chip": "ym2612"
    },
    {
      "channel": 2,
      "note": 59,
      "start": 41.0298,
      "duration": 0.0334,
      "velocity": 127,
      "chip": "ym2612"
    },
    {
      "channel": 3,
      "note": 49,
      "start": 41.034,
      "duration": 0.1941,
      "velocity": 114,
      "chip": "ym2612"
    },
    {
      "channel": 4,
      "note": 37,
      "start": 41.0349,
      "duration": 0.1941,
      "velocity": 110,
      "chip": "ym2612"
    },
    {
      "channel": 2,
      "note": 59,
      "start": 41.0634,
      "duration": 0.1615,
      "velocity": 127,
      "chip": "ym2612"
    },
    {
      "channel": 0,
      "note": 73,
      "start": 41.1262,
      "duration": 0.0961,
      "velocity": 123,
      "chip": "ym2612"
    },
    {
      "channel": 0,
      "note": 69,
      "start": 41.2226,
      "duration": 0.0961,
      "velocity": 123,
      "chip": "ym2612"
    },
    {
      "channel": 2,
      "note": 66,
      "start": 41.2251,
      "duration": 0.0945,
      "velocity": 127,
      "chip": "ym2612"
    },
    {
      "channel": 3,
      "note": 49,
      "start": 41.2283,
      "duration": 0.1911,
      "velocity": 114,
      "chip": "ym2612"
    },
    {
      "channel": 4,
      "note": 37,
      "start": 41.2291,
      "duration": 0.1912,
      "velocity": 110,
      "chip": "ym2612"
    },
    {
      "channel": 0,
      "note": 73,
      "start": 41.3188,
      "duration": 0.0968,
      "velocity": 123,
      "chip": "ym2612"
    },
    {
      "channel": 2,
      "note": 66,
      "start": 41.3199,
      "duration": 0.0968,
      "velocity": 127,
      "chip": "ym2612"
    },
    {
      "channel": 0,
      "note": 69,
      "start": 41.4159,
      "duration": 0.0954,
      "velocity": 123,
      "chip": "ym2612"
    },
    {
      "channel": 2,
      "note": 66,
      "start": 41.4168,
      "duration": 0.0954,
      "velocity": 127,
      "chip": "ym2612"
    },
    {
      "channel": 3,
      "note": 49,
      "start": 41.4197,
      "duration": 0.1933,
      "velocity": 114,
      "chip": "ym2612"
    },
    {
      "channel": 0,
      "note": 73,
      "start": 41.5115,
      "duration": 0.0962,
      "velocity": 123,
      "chip": "ym2612"
    },
    {
      "channel": 2,
      "note": 66,
      "start": 41.5125,
      "duration": 0.0976,
      "velocity": 123,
      "chip": "ym2612"
    },
    {
      "channel": 0,
      "note": 69,
      "start": 41.6078,
      "duration": 0.0961,
      "velocity": 123,
      "chip": "ym2612"
    },
    {
      "channel": 2,
      "note": 68,
      "start": 41.6103,
      "duration": 0.0946,
      "velocity": 123,
      "chip": "ym2612"
    },
    {
      "channel": 3,
      "note": 49,
      "start": 41.6131,
      "duration": 0.1931,
      "velocity": 114,
      "chip": "ym2612"
    },
    {
      "channel": 0,
      "note": 73,
      "start": 41.7041,
      "duration": 0.0961,
      "velocity": 123,
      "chip": "ym2612"
    },
    {
      "channel": 2,
      "note": 68,
      "start": 41.7051,
      "duration": 0.0976,
      "velocity": 107,
      "chip": "ym2612"
    },
    {
      "channel": 0,
      "note": 69,
      "start": 41.8004,
      "duration": 0.0961,
      "velocity": 123,
      "chip": "ym2612"
    },
    {
      "channel": 2,
      "note": 30,
      "start": 41.8029,
      "duration": 0.0308,
      "velocity": 107,
      "chip": "ym2612"
    },
    {
      "channel": 3,
      "note": 49,
      "start": 41.8064,
      "duration": 0.1922,
      "velocity": 114,
      "chip": "ym2612"
    },
    {
      "channel": 4,
      "note": 37,
      "start": 41.8073,
      "duration": 0.1923,
      "velocity": 110,
      "chip": "ym2612"
    },
    {
      "channel": 2,
      "note": 30,
      "start": 41.8339,
      "duration": 0.1615,
      "velocity": 123,
      "chip": "ym2612"
    },
    {
      "channel": 0,
      "note": 73,
      "start": 41.8967,
      "duration": 0.0961,
      "velocity": 123,
      "chip": "ym2612"
    },
    {
      "channel": 0,
      "note": 69,
      "start": 41.993,
      "duration": 0.0961,
      "velocity": 123,
      "chip": "ym2612"
    },
    {
      "channel": 2,
      "note": 59,
      "start": 41.9955,
      "duration": 0.0946,
      "velocity": 123,
      "chip": "ym2612"
    },
    {
      "channel": 3,
      "note": 49,
      "start": 41.9989,
      "duration": 0.1925,
      "velocity": 114,
      "chip": "ym2612"
    },
    {
      "channel": 0,
      "note": 73,
      "start": 42.0893,
      "duration": 0.0961,
      "velocity": 123,
      "chip": "ym2612"
    },
    {
      "channel": 2,
      "note": 59,
      "start": 42.0903,
      "duration": 0.0976,
      "velocity": 107,
      "chip": "ym2612"
    },
    {
      "channel": 0,
      "note": 69,
      "start": 42.1856,
      "duration": 0.0967,
      "velocity": 123,
      "chip": "ym2612"
    },
    {
      "channel": 2,
      "note": 27,
      "start": 42.1881,
      "duration": 0.0308,
      "velocity": 107,
      "chip": "ym2612"
    },
    {
      "channel": 3,
      "note": 49,
      "start": 42.1917,
      "duration": 0.1924,
      "velocity": 114,
      "chip": "ym2612"
    },
    {
      "channel": 4,
      "note": 37,
      "start": 42.1926,
      "duration": 0.1924,
      "velocity": 110,
      "chip": "ym2612"
    },
    {
      "channel": 2,
      "note": 27,
      "start": 42.2191,
      "duration": 0.1615,
      "velocity": 127,
      "chip": "ym2612"
    },
    {
      "channel": 0,
      "note": 73,
      "start": 42.2825,
      "duration": 0.0956,
      "velocity": 123,
      "chip": "ym2612"
    },
    {
      "channel": 0,
      "note": 69,
      "start": 42.3783,
      "duration": 0.0961,
      "velocity": 123,
      "chip": "ym2612"
    },
    {
      "channel": 2,
      "note": 59,
      "start": 42.3808,
      "duration": 0.0308,
      "velocity": 127,
      "chip": "ym2612"
    },
    {
      "channel": 3,
      "note": 49,
      "start": 42.3842,
      "duration": 0.1926,
      "velocity": 114,
      "chip": "ym2612"
    },
    {
      "channel": 2,
      "note": 59,
      "start": 42.4118,
      "duration": 0.1615,
      "velocity": 123,
      "chip": "ym2612"
    },
    {
      "channel": 0,
      "note": 73,
      "start": 42.4746,
      "duration": 0.0961,
      "velocity": 123,
      "chip": "ym2612"
    },
    {
      "channel": 0,
      "note": 69,
      "start": 42.5708,
      "duration": 0.0961,
      "velocity": 123,
      "chip": "ym2612"
    },
    {
      "channel": 2,
      "note": 57,
      "start": 42.5734,
      "duration": 0.031,
      "velocity": 123,
      "chip": "ym2612"
    },
    {
      "channel": 3,
      "note": 49,
      "start": 42.577,
      "duration": 0.1929,
      "velocity": 114,
      "chip": "ym2612"
    },
    {
      "channel": 4,
      "note": 37,
      "start": 42.5779,
      "duration": 0.1929,
      "velocity": 110,
      "chip": "ym2612"
    },
    {
      "channel": 2,
      "note": 57,
      "start": 42.6046,
      "duration": 0.0328,
      "velocity": 123,
      "chip": "ym2612"
    },
    {
      "channel": 2,
      "note": 57,
      "start": 42.6377,
      "duration": 0.0305,
      "velocity": 123,
      "chip": "ym2612"
    },
    {
      "channel": 0,
      "note": 73,
      "start": 42.6671,
      "duration": 0.0961,
      "velocity": 123,
      "chip": "ym2612"
    },
    {
      "channel": 2,
      "note": 57,
      "start": 42.6684,
      "duration": 0.0323,
      "velocity": 123,
      "chip": "ym2612"
    },
    {
      "channel": 2,
      "note": 57,
      "start": 42.7009,
      "duration": 0.03,
      "velocity": 123,
      "chip": "ym2612"
    },
    {
      "channel": 2,
      "note": 57,
      "start": 42.7311,
      "duration": 0.0356,
      "velocity": 127,
      "chip": "ym2612"
    },
    {
      "channel": 0,
      "note": 69,
      "start": 42.7634,
      "duration": 0.0961,
      "velocity": 123,
      "chip": "ym2612"
    },
    {
      "channel": 2,
      "note": 64,
      "start": 42.7669,
      "duration": 0.0936,
      "velocity": 127,
      "chip": "ym2612"
    },
    {
      "channel": 3,
      "note": 49,
      "start": 42.77,
      "duration": 0.1896,
      "velocity": 114,
      "chip": "ym2612"
    },
    {
      "channel": 4,
      "note": 37,
      "start": 42.7709,
      "duration": 0.1896,
      "velocity": 110,
      "chip": "ym2612"
    },
    {
      "channel": 0,
      "note": 73,
      "start": 42.8598,
      "duration": 0.0961,
      "velocity": 123,
      "chip": "ym2612"
    },
    {
      "channel": 2,
      "note": 64,
      "start": 42.8607,
      "duration": 0.0961,
      "velocity": 127,
      "chip": "ym2612"
    },
    {
      "channel": 0,
      "note": 69,
      "start": 42.9561,
      "duration": 0.096,
      "velocity": 123,
      "chip": "ym2612"
    },
    {
      "channel": 2,
      "note": 64,
      "start": 42.9571,
      "duration": 0.096,
      "velocity": 127,
      "chip": "ym2612"
    },
    {
      "channel": 3,
      "note": 49,
      "start": 42.9599,
      "duration": 0.1932,
      "velocity": 114,
      "chip": "ym2612"
    },
    {
      "channel": 0,
      "note": 73,
      "start": 43.0522,
      "duration": 0.0934,
      "velocity": 123,
      "chip": "ym2612"
    },
    {
      "channel": 2,
      "note": 64,
      "start": 43.0533,
      "duration": 0.0961,
      "velocity": 107,
      "chip": "ym2612"
    },
    {
      "channel": 0,
      "note": 69,
      "start": 43.1458,
      "duration": 0.099,
      "velocity": 123,
      "chip": "ym2612"
    },
    {
      "channel": 1,
      "note": 28,
      "start": 43.1467,
      "duration": 2.9572,
      "velocity": 98,
      "chip": "ym2612"
    },
    {
      "channel": 2,
      "note": 26,
      "start": 43.1496,
      "duration": 0.033,
      "velocity": 107,
      "chip": "ym2612"
    },
    {
      "channel": 3,
      "note": 49,
      "start": 43.1533,
      "duration": 0.1931,
      "velocity": 114,
      "chip": "ym2612"
    },
    {
      "channel": 4,
      "note": 37,
      "start": 43.1542,
      "duration": 0.1931,
      "velocity": 110,
      "chip": "ym2612"
    },
    {
      "channel": 2,
      "note": 26,
      "start": 43.1829,
      "duration": 0.1607,
      "velocity": 127,
      "chip": "ym2612"
    },
    {
      "channel": 0,
      "note": 73,
      "start": 43.2451,
      "duration": 0.0961,
      "velocity": 123,
      "chip": "ym2612"
    },
    {
      "channel": 0,
      "note": 69,
      "start": 43.3413,
      "duration": 0.0961,
      "velocity": 123,
      "chip": "ym2612"
    },
    {
      "channel": 2,
      "note": 59,
      "start": 43.3438,
      "duration": 0.1923,
      "velocity": 127,
      "chip": "ym2612"
    },
    {
      "channel": 3,
      "note": 49,
      "start": 43.3466,
      "duration": 0.1924,
      "velocity": 114,
      "chip": "ym2612"
    },
    {
      "channel": 0,
      "note": 73,
      "start": 43.4376,
      "duration": 0.0961,
      "velocity": 123,
      "chip": "ym2612"
    },
    {
      "channel": 5,
      "note": 28,
      "start": 43.4421,
      "duration": 2.9539,
      "velocity": 98,
      "chip": "ym2612"
    },
    {
      "channel": 0,
      "note": 69,
      "start": 43.5339,
      "duration": 0.0961,
      "velocity": 123,
      "chip": "ym2612"
    },
    {
      "channel": 2,
      "note": 59,
      "start": 43.5363,
      "duration": 0.0309,
      "velocity": 127,
      "chip": "ym2612"
    },
    {
      "channel": 3,
      "note": 49,
      "start": 43.5392,
      "duration": 0.1936,
      "velocity": 114,
      "chip": "ym2612"
    },
    {
      "channel": 2,
      "note": 59,
      "start": 43.5674,
      "duration": 0.1613,
      "velocity": 127,
      "chip": "ym2612"
    },
    {
      "channel": 0,
      "note": 73,
      "start": 43.6302,
      "duration": 0.0961,
      "velocity": 123,
      "chip": "ym2612"
    },
    {
      "channel": 0,
      "note": 69,
      "start": 43.7265,
      "duration": 0.0961,
      "velocity": 123,
      "chip": "ym2612"
    },
    {
      "channel": 2,
      "note": 64,
      "start": 43.729,
      "duration": 0.1926,
      "velocity": 123,
      "chip": "ym2612"
    },
    {
      "channel": 3,
      "note": 49,
      "start": 43.733,
      "duration": 0.1912,
      "velocity": 114,
      "chip": "ym2612"
    },
    {
      "channel": 4,
      "note": 37,
      "start": 43.7339,
      "duration": 0.1912,
      "velocity": 110,
      "chip": "ym2612"
    },
    {
      "channel": 0,
      "note": 73,
      "start": 43.8228,
      "duration": 0.0962,
      "velocity": 123,
      "chip": "ym2612"
    },
    {
      "channel": 0,
      "note": 69,
      "start": 43.9192,
      "duration": 0.0967,
      "velocity": 123,
      "chip": "ym2612"
    },
    {
      "channel": 2,
      "note": 57,
      "start": 43.9218,
      "duration": 0.031,
      "velocity": 123,
      "chip": "ym2612"
    },
    {
      "channel": 3,
      "note": 49,
      "start": 43.9245,
      "duration": 0.194,
      "velocity": 114,
      "chip": "ym2612"
    },
    {
      "channel": 2,
      "note": 57,
      "start": 43.9529,
      "duration": 0.0327,
      "velocity": 123,
      "chip": "ym2612"
    },
    {
      "channel": 2,
      "note": 57,
      "start": 43.986,
      "duration": 0.0312,
      "velocity": 123,
      "chip": "ym2612"
    },
    {
      "channel": 0,
      "note": 73,
      "start": 44.016,
      "duration": 0.0956,
      "velocity": 123,
      "chip": "ym2612"
    },
    {
      "channel": 2,
      "note": 57,
      "start": 44.0174,
      "duration": 0.0324,
      "velocity": 123,
      "chip": "ym2612"
    },
    {
      "channel": 2,
      "note": 57,
      "start": 44.05,
      "duration": 0.0327,
      "velocity": 123,
      "chip": "ym2612"
    },
    {
      "channel": 2,
      "note": 57,
      "start": 44.0829,
      "duration": 0.0314,
      "velocity": 127,
      "chip": "ym2612"
    },
    {
      "channel": 0,
      "note": 69,
      "start": 44.1118,
      "duration": 0.099,
      "velocity": 123,
      "chip": "ym2612"
    },
    {
      "channel": 2,
      "note": 59,
      "start": 44.1148,
      "duration": 0.0339,
      "velocity": 127,
      "chip": "ym2612"
    },
    {
      "channel": 3,
      "note": 49,
      "start": 44.1187,
      "duration": 0.1941,
      "velocity": 114,
      "chip": "ym2612"
    },
    {
      "channel": 4,
      "note": 37,
      "start": 44.1196,
      "duration": 0.1941,
      "velocity": 110,
      "chip": "ym2612"
    },
    {
      "channel": 2,
      "note": 59,
      "start": 44.1489,
      "duration": 0.1607,
      "velocity": 127,
      "chip": "ym2612"
    },
    {
      "channel": 0,
      "note": 73,
      "start": 44.211,
      "duration": 0.0961,
      "velocity": 123,
      "chip": "ym2612"
    },
    {
      "channel": 0,
      "note": 69,
      "start": 44.3073,
      "duration": 0.0961,
      "velocity": 123,
      "chip": "ym2612"
    },
    {
      "channel": 2,
      "note": 66,
      "start": 44.3098,
      "duration": 0.0946,
      "velocity": 127,
      "chip": "ym2612"
    },
    {
      "channel": 3,
      "note": 49,
      "start": 44.3131,
      "duration": 0.1905,
      "velocity": 114,
      "chip": "ym2612"
    },
    {
      "channel": 4,
      "note": 37,
      "start": 44.3139,
      "duration": 0.1905,
      "velocity": 110,
      "chip": "ym2612"
    },
    {
      "channel": 0,
      "note": 73,
      "start": 44.4036,
      "duration": 0.0961,
      "velocity": 123,
      "chip": "ym2612"
    },
    {
      "channel": 2,
      "note": 66,
      "start": 44.4046,
      "duration": 0.0961,
      "velocity": 127,
      "chip": "ym2612"
    },
    {
      "channel": 0,
      "note": 69,
      "start": 44.5,
      "duration": 0.096,
      "velocity": 123,
      "chip": "ym2612"
    },
    {
      "channel": 2,
      "note": 66,
      "start": 44.501,
      "duration": 0.096,
      "velocity": 127,
      "chip": "ym2612"
    },
    {
      "channel": 3,
      "note": 49,
      "start": 44.5038,
      "duration": 0.191,
      "velocity": 114,
      "chip": "ym2612"
    },
    {
      "channel": 0,
      "note": 73,
      "start": 44.5961,
      "duration": 0.0934,
      "velocity": 123,
      "chip": "ym2612"
    },
    {
      "channel": 2,
      "note": 66,
      "start": 44.5971,
      "duration": 0.0948,
      "velocity": 123,
      "chip": "ym2612"
    },
    {
      "channel": 0,
      "note": 69,
      "start": 44.6897,
      "duration": 0.0989,
      "velocity": 123,
      "chip": "ym2612"
    },
    {
      "channel": 2,
      "note": 68,
      "start": 44.6922,
      "duration": 0.0974,
      "velocity": 123,
      "chip": "ym2612"
    },
    {
      "channel": 3,
      "note": 49,
      "start": 44.695,
      "duration": 0.1937,
      "velocity": 114,
      "chip": "ym2612"
    },
    {
      "channel": 0,
      "note": 73,
      "start": 44.7888,
      "duration": 0.0939,
      "velocity": 123,
      "chip": "ym2612"
    },
    {
      "channel": 2,
      "note": 68,
      "start": 44.7898,
      "duration": 0.0954,
      "velocity": 107,
      "chip": "ym2612"
    },
    {
      "channel": 0,
      "note": 69,
      "start": 44.8829,
      "duration": 0.0987,
      "velocity": 123,
      "chip": "ym2612"
    },
    {
      "channel": 2,
      "note": 30,
      "start": 44.8854,
      "duration": 0.0331,
      "velocity": 107,
      "chip": "ym2612"
    },
    {
      "channel": 3,
      "note": 49,
      "start": 44.8889,
      "duration": 0.1946,
      "velocity": 114,
      "chip": "ym2612"
    },
    {
      "channel": 4,
      "note": 37,
      "start": 44.8898,
      "duration": 0.1946,
      "velocity": 110,
      "chip": "ym2612"
    },
    {
      "channel": 2,
      "note": 30,
      "start": 44.9186,
      "duration": 0.1615,
      "velocity": 123,
      "chip": "ym2612"
    },
    {
      "channel": 0,
      "note": 73,
      "start": 44.9821,
      "duration": 0.0954,
      "velocity": 123,
      "chip": "ym2612"
    },
    {
      "channel": 0,
      "note": 69,
      "start": 45.0778,
      "duration": 0.0961,
      "velocity": 123,
      "chip": "ym2612"
    },
    {
      "channel": 2,
      "note": 59,
      "start": 45.0803,
      "duration": 0.0946,
      "velocity": 123,
      "chip": "ym2612"
    },
    {
      "channel": 3,
      "note": 49,
      "start": 45.0837,
      "duration": 0.1925,
      "velocity": 114,
      "chip": "ym2612"
    },
    {
      "channel": 0,
      "note": 73,
      "start": 45.1741,
      "duration": 0.0961,
      "velocity": 123,
      "chip": "ym2612"
    },
    {
      "channel": 2,
      "note": 59,
      "start": 45.1751,
      "duration": 0.0976,
      "velocity": 107,
      "chip": "ym2612"
    },
    {
      "channel": 0,
      "note": 69,
      "start": 45.2704,
      "duration": 0.0961,
      "velocity": 123,
      "chip": "ym2612"
    },
    {
      "channel": 2,
      "note": 27,
      "start": 45.2729,
      "duration": 0.0308,
      "velocity": 107,
      "chip": "ym2612"
    },
    {
      "channel": 3,
      "note": 49,
      "start": 45.2765,
      "duration": 0.1923,
      "velocity": 114,
      "chip": "ym2612"
    },
    {
      "channel": 4,
      "note": 37,
      "start": 45.2774,
      "duration": 0.1923,
      "velocity": 110,
      "chip": "ym2612"
    },
    {
      "channel": 2,
      "note": 27,
      "start": 45.3039,
      "duration": 0.1621,
      "velocity": 127,
      "chip": "ym2612"
    },
    {
      "channel": 0,
      "note": 73,
      "start": 45.3667,
      "duration": 0.0962,
      "velocity": 123,
      "chip": "ym2612"
    },
    {
      "channel": 0,
      "note": 69,
      "start": 45.4631,
      "duration": 0.0961,
      "velocity": 123,
      "chip": "ym2612"
    },
    {
      "channel": 2,
      "note": 59,
      "start": 45.4663,
      "duration": 0.0301,
      "velocity": 127,
      "chip": "ym2612"
    },
    {
      "channel": 3,
      "note": 49,
      "start": 45.469,
      "duration": 0.1926,
      "velocity": 114,
      "chip": "ym2612"
    },
    {
      "channel": 2,
      "note": 59,
      "start": 45.4966,
      "duration": 0.1615,
      "velocity": 123,
      "chip": "ym2612"
    },
    {
      "channel": 0,
      "note": 73,
      "start": 45.5594,
      "duration": 0.0961,
      "velocity": 123,
      "chip": "ym2612"
    },
    {
      "channel": 0,
      "note": 69,
      "start": 45.6556,
      "duration": 0.0961,
      "velocity": 123,
      "chip": "ym2612"
    },
    {
      "channel": 2,
      "note": 57,
      "start": 45.6582,
      "duration": 0.031,
      "velocity": 123,
      "chip": "ym2612"
    },
    {
      "channel": 3,
      "note": 49,
      "start": 45.6618,
      "duration": 0.1929,
      "velocity": 114,
      "chip": "ym2612"
    },
    {
      "channel": 4,
      "note": 37,
      "start": 45.6627,
      "duration": 0.1928,
      "velocity": 110,
      "chip": "ym2612"
    },
    {
      "channel": 2,
      "note": 57,
      "start": 45.6894,
      "duration": 0.0328,
      "velocity": 123,
      "chip": "ym2612"
    },
    {
      "channel": 2,
      "note": 57,
      "start": 45.7224,
      "duration": 0.0305,
      "velocity": 123,
      "chip": "ym2612"
    },
    {
      "channel": 0,
      "note": 73,
      "start": 45.7519,
      "duration": 0.0968,
      "velocity": 123,
      "chip": "ym2612"
    },
    {
      "channel": 2,
      "note": 57,
      "start": 45.7532,
      "duration": 0.0322,
      "velocity": 123,
      "chip": "ym2612"
    },
    {
      "channel": 2,
      "note": 57,
      "start": 45.7856,
      "duration": 0.0307,
      "velocity": 123,
      "chip": "ym2612"
    },
    {
      "channel": 2,
      "note": 57,
      "start": 45.8165,
      "duration": 0.0349,
      "velocity": 127,
      "chip": "ym2612"
    },
    {
      "channel": 0,
      "note": 69,
      "start": 45.8489,
      "duration": 0.0954,
      "velocity": 123,
      "chip": "ym2612"
    },
    {
      "channel": 2,
      "note": 64,
      "start": 45.8516,
      "duration": 0.0937,
      "velocity": 127,
      "chip": "ym2612"
    },
    {
      "channel": 3,
      "note": 49,
      "start": 45.8549,
      "duration": 0.1896,
      "velocity": 114,
      "chip": "ym2612"
    },
    {
      "channel": 4,
      "note": 37,
      "start": 45.8557,
      "duration": 0.1896,
      "velocity": 110,
      "chip": "ym2612"
    },
    {
      "channel": 0,
      "note": 73,
      "start": 45.9445,
      "duration": 0.0961,
      "velocity": 123,
      "chip": "ym2612"
    },
    {
      "channel": 2,
      "note": 64,
      "start": 45.9455,
      "duration": 0.0961,
      "velocity": 127,
      "chip": "ym2612"
    },
    {
      "channel": 0,
      "note": 69,
      "start": 46.0409,
      "duration": 0.096,
      "velocity": 123,
      "chip": "ym2612"
    },
    {
      "channel": 2,
      "note": 64,
      "start": 46.0419,
      "duration": 0.096,
      "velocity": 127,
      "chip": "ym2612"
    },
    {
      "channel": 3,
      "note": 49,
      "start": 46.0447,
      "duration": 0.1929,
      "velocity": 114,
      "chip": "ym2612"
    },
    {
      "channel": 0,
      "note": 73,
      "start": 46.137,
      "duration": 0.0933,
      "velocity": 123,
      "chip": "ym2612"
    },
    {
      "channel": 2,
      "note": 64,
      "start": 46.138,
      "duration": 0.0959,
      "velocity": 107,
      "chip": "ym2612"
    },
    {
      "channel": 0,
      "note": 69,
      "start": 46.2305,
      "duration": 0.099,
      "velocity": 123,
      "chip": "ym2612"
    },
    {
      "channel": 1,
      "note": 30,
      "start": 46.2316,
      "duration": 2.9571,
      "velocity": 98,
      "chip": "ym2612"
    },
    {
      "channel": 2,
      "note": 26,
      "start": 46.2342,
      "duration": 0.0326,
      "velocity": 107,
      "chip": "ym2612"
    },
    {
      "channel": 3,
      "note": 49,
      "start": 46.2378,
      "duration": 0.1934,
      "velocity": 114,
      "chip": "ym2612"
    },
    {
      "channel": 4,
      "note": 37,
      "start": 46.2388,
      "duration": 0.1939,
      "velocity": 110,
      "chip": "ym2612"
    },
    {
      "channel": 2,
      "note": 26,
      "start": 46.267,
      "duration": 0.1614,
      "velocity": 127,
      "chip": "ym2612"
    },
    {
      "channel": 0,
      "note": 73,
      "start": 46.3298,
      "duration": 0.0961,
      "velocity": 123,
      "chip": "ym2612"
    },
    {
      "channel": 0,
      "note": 69,
      "start": 46.426,
      "duration": 0.0961,
      "velocity": 123,
      "chip": "ym2612"
    },
    {
      "channel": 2,
      "note": 59,
      "start": 46.4286,
      "duration": 0.1924,
      "velocity": 127,
      "chip": "ym2612"
    },
    {
      "channel": 3,
      "note": 49,
      "start": 46.432,
      "duration": 0.1917,
      "velocity": 114,
      "chip": "ym2612"
    },
    {
      "channel": 0,
      "note": 73,
      "start": 46.5223,
      "duration": 0.0961,
      "velocity": 123,
      "chip": "ym2612"
    },
    {
      "channel": 5,
      "note": 30,
      "start": 46.5267,
      "duration": 2.9541,
      "velocity": 98,
      "chip": "ym2612"
    },
    {
      "channel": 0,
      "note": 69,
      "start": 46.6186,
      "duration": 0.0968,
      "velocity": 123,
      "chip": "ym2612"
    },
    {
      "channel": 2,
      "note": 59,
      "start": 46.6211,
      "duration": 0.0308,
      "velocity": 127,
      "chip": "ym2612"
    },
    {
      "channel": 3,
      "note": 49,
      "start": 46.624,
      "duration": 0.1936,
      "velocity": 114,
      "chip": "ym2612"
    },
    {
      "channel": 2,
      "note": 59,
      "start": 46.6522,
      "duration": 0.1613,
      "velocity": 127,
      "chip": "ym2612"
    },
    {
      "channel": 0,
      "note": 73,
      "start": 46.7156,
      "duration": 0.0955,
      "velocity": 123,
      "chip": "ym2612"
    },
    {
      "channel": 0,
      "note": 69,
      "start": 46.8113,
      "duration": 0.0961,
      "velocity": 123,
      "chip": "ym2612"
    },
    {
      "channel": 2,
      "note": 64,
      "start": 46.8137,
      "duration": 0.1926,
      "velocity": 123,
      "chip": "ym2612"
    },
    {
      "channel": 3,
      "note": 49,
      "start": 46.8178,
      "duration": 0.1912,
      "velocity": 114,
      "chip": "ym2612"
    },
    {
      "channel": 4,
      "note": 37,
      "start": 46.8186,
      "duration": 0.1913,
      "velocity": 110,
      "chip": "ym2612"
    },
    {
      "channel": 0,
      "note": 73,
      "start": 46.9076,
      "duration": 0.0961,
      "velocity": 123,
      "chip": "ym2612"
    },
    {
      "channel": 0,
      "note": 69,
      "start": 47.0039,
      "duration": 0.0961,
      "velocity": 123,
      "chip": "ym2612"
    },
    {
      "channel": 2,
      "note": 57,
      "start": 47.0065,
      "duration": 0.031,
      "velocity": 123,
      "chip": "ym2612"
    },
    {
      "channel": 3,
      "note": 49,
      "start": 47.0093,
      "duration": 0.1939,
      "velocity": 114,
      "chip": "ym2612"
    },
    {
      "channel": 2,
      "note": 57,
      "start": 47.0377,
      "duration": 0.0328,
      "velocity": 123,
      "chip": "ym2612"
    },
    {
      "channel": 2,
      "note": 57,
      "start": 47.0707,
      "duration": 0.0306,
      "velocity": 123,
      "chip": "ym2612"
    },
    {
      "channel": 0,
      "note": 73,
      "start": 47.1003,
      "duration": 0.0961,
      "velocity": 123,
      "chip": "ym2612"
    },
    {
      "channel": 2,
      "note": 57,
      "start": 47.1015,
      "duration": 0.0321,
      "velocity": 123,
      "chip": "ym2612"
    },
    {
      "channel": 2,
      "note": 57,
      "start": 47.1339,
      "duration": 0.03,
      "velocity": 123,
      "chip": "ym2612"
    },
    {
      "channel": 2,
      "note": 57,
      "start": 47.1642,
      "duration": 0.0354,
      "velocity": 127,
      "chip": "ym2612"
    },
    {
      "channel": 0,
      "note": 69,
      "start": 47.1965,
      "duration": 0.099,
      "velocity": 123,
      "chip": "ym2612"
    },
    {
      "channel": 2,
      "note": 59,
      "start": 47.1999,
      "duration": 0.033,
      "velocity": 127,
      "chip": "ym2612"
    },
    {
      "channel": 3,
      "note": 49,
      "start": 47.2034,
      "duration": 0.1914,
      "velocity": 114,
      "chip": "ym2612"
    },
    {
      "channel": 4,
      "note": 37,
      "start": 47.2043,
      "duration": 0.1913,
      "velocity": 110,
      "chip": "ym2612"
    },
    {
      "channel": 2,
      "note": 59,
      "start": 47.2332,
      "duration": 0.1583,
      "velocity": 127,
      "chip": "ym2612"
    },
    {
      "channel": 0,
      "note": 73,
      "start": 47.2958,
      "duration": 0.0932,
      "velocity": 123,
      "chip": "ym2612"
    },
    {
      "channel": 0,
      "note": 69,
      "start": 47.3892,
      "duration": 0.0989,
      "velocity": 123,
      "chip": "ym2612"
    },
    {
      "channel": 2,
      "note": 66,
      "start": 47.3917,
      "duration": 0.0975,
      "velocity": 127,
      "chip": "ym2612"
    },
    {
      "channel": 3,
      "note": 49,
      "start": 47.3949,
      "duration": 0.1912,
      "velocity": 114,
      "chip": "ym2612"
    },
    {
      "channel": 4,
      "note": 37,
      "start": 47.3958,
      "duration": 0.1912,
      "velocity": 110,
      "chip": "ym2612"
    },
    {
      "channel": 0,
      "note": 73,
      "start": 47.4883,
      "duration": 0.094,
      "velocity": 123,
      "chip": "ym2612"
    },
    {
      "channel": 2,
      "note": 66,
      "start": 47.4893,
      "duration": 0.0939,
      "velocity": 127,
      "chip": "ym2612"
    },
    {
      "channel": 0,
      "note": 69,
      "start": 47.5824,
      "duration": 0.0983,
      "velocity": 123,
      "chip": "ym2612"
    },
    {
      "channel": 2,
      "note": 66,
      "start": 47.5835,
      "duration": 0.0989,
      "velocity": 127,
      "chip": "ym2612"
    },
    {
      "channel": 3,
      "note": 49,
      "start": 47.5863,
      "duration": 0.1932,
      "velocity": 114,
      "chip": "ym2612"
    },
    {
      "channel": 0,
      "note": 73,
      "start": 47.6809,
      "duration": 0.0933,
      "velocity": 123,
      "chip": "ym2612"
    },
    {
      "channel": 2,
      "note": 66,
      "start": 47.6826,
      "duration": 0.0941,
      "velocity": 123,
      "chip": "ym2612"
    },
    {
      "channel": 0,
      "note": 69,
      "start": 47.7744,
      "duration": 0.0989,
      "velocity": 123,
      "chip": "ym2612"
    },
    {
      "channel": 2,
      "note": 68,
      "start": 47.7769,
      "duration": 0.0974,
      "velocity": 123,
      "chip": "ym2612"
    },
    {
      "channel": 3,
      "note": 49,
      "start": 47.7797,
      "duration": 0.1932,
      "velocity": 114,
      "chip": "ym2612"
    },
    {
      "channel": 0,
      "note": 73,
      "start": 47.8735,
      "duration": 0.0933,
      "velocity": 123,
      "chip": "ym2612"
    },
    {
      "channel": 2,
      "note": 68,
      "start": 47.8746,
      "duration": 0.0948,
      "velocity": 107,
      "chip": "ym2612"
    },
    {
      "channel": 0,
      "note": 69,
      "start": 47.9671,
      "duration": 0.0989,
      "velocity": 123,
      "chip": "ym2612"
    },
    {
      "channel": 2,
      "note": 30,
      "start": 47.9696,
      "duration": 0.0335,
      "velocity": 107,
      "chip": "ym2612"
    },
    {
      "channel": 3,
      "note": 49,
      "start": 47.9731,
      "duration": 0.1922,
      "velocity": 114,
      "chip": "ym2612"
    },
    {
      "channel": 4,
      "note": 37,
      "start": 47.974,
      "duration": 0.1923,
      "velocity": 110,
      "chip": "ym2612"
    },
    {
      "channel": 2,
      "note": 30,
      "start": 48.0034,
      "duration": 0.1586,
      "velocity": 123,
      "chip": "ym2612"
    },
    {
      "channel": 0,
      "note": 73,
      "start": 48.0662,
      "duration": 0.0933,
      "velocity": 123,
      "chip": "ym2612"
    },
    {
      "channel": 0,
      "note": 69,
      "start": 48.1596,
      "duration": 0.099,
      "velocity": 123,
      "chip": "ym2612"
    },
    {
      "channel": 2,
      "note": 59,
      "start": 48.1622,
      "duration": 0.0974,
      "velocity": 123,
      "chip": "ym2612"
    },
    {
      "channel": 3,
      "note": 49,
      "start": 48.1656,
      "duration": 0.1925,
      "velocity": 114,
      "chip": "ym2612"
    },
    {
      "channel": 0,
      "note": 73,
      "start": 48.2588,
      "duration": 0.0932,
      "velocity": 123,
      "chip": "ym2612"
    },
    {
      "channel": 2,
      "note": 59,
      "start": 48.2598,
      "duration": 0.0947,
      "velocity": 107,
      "chip": "ym2612"
    },
    {
      "channel": 0,
      "note": 69,
      "start": 48.3522,
      "duration": 0.0989,
      "velocity": 123,
      "chip": "ym2612"
    },
    {
      "channel": 2,
      "note": 27,
      "start": 48.3547,
      "duration": 0.0337,
      "velocity": 107,
      "chip": "ym2612"
    },
    {
      "channel": 3,
      "note": 49,
      "start": 48.3583,
      "duration": 0.1924,
      "velocity": 114,
      "chip": "ym2612"
    },
    {
      "channel": 4,
      "note": 37,
      "start": 48.3592,
      "duration": 0.1924,
      "velocity": 110,
      "chip": "ym2612"
    },
    {
      "channel": 2,
      "note": 27,
      "start": 48.3886,
      "duration": 0.1586,
      "velocity": 127,
      "chip": "ym2612"
    },
    {
      "channel": 0,
      "note": 73,
      "start": 48.4514,
      "duration": 0.0933,
      "velocity": 123,
      "chip": "ym2612"
    },
    {
      "channel": 0,
      "note": 69,
      "start": 48.5449,
      "duration": 0.0989,
      "velocity": 123,
      "chip": "ym2612"
    },
    {
      "channel": 2,
      "note": 59,
      "start": 48.5475,
      "duration": 0.0335,
      "velocity": 127,
      "chip": "ym2612"
    },
    {
      "channel": 3,
      "note": 49,
      "start": 48.5509,
      "duration": 0.1926,
      "velocity": 114,
      "chip": "ym2612"
    },
    {
      "channel": 2,
      "note": 59,
      "start": 48.5813,
      "duration": 0.1586,
      "velocity": 123,
      "chip": "ym2612"
    },
    {
      "channel": 0,
      "note": 73,
      "start": 48.644,
      "duration": 0.0934,
      "velocity": 123,
      "chip": "ym2612"
    },
    {
      "channel": 0,
      "note": 69,
      "start": 48.7376,
      "duration": 0.0988,
      "velocity": 123,
      "chip": "ym2612"
    },
    {
      "channel": 2,
      "note": 57,
      "start": 48.7402,
      "duration": 0.0337,
      "velocity": 123,
      "chip": "ym2612"
    },
    {
      "channel": 3,
      "note": 49,
      "start": 48.7437,
      "duration": 0.1927,
      "velocity": 114,
      "chip": "ym2612"
    },
    {
      "channel": 4,
      "note": 37,
      "start": 48.7446,
      "duration": 0.1927,
      "velocity": 110,
      "chip": "ym2612"
    },
    {
      "channel": 2,
      "note": 57,
      "start": 48.7741,
      "duration": 0.03,
      "velocity": 123,
      "chip": "ym2612"
    },
    {
      "channel": 2,
      "note": 57,
      "start": 48.8043,
      "duration": 0.0334,
      "velocity": 123,
      "chip": "ym2612"
    },
    {
      "channel": 0,
      "note": 73,
      "start": 48.8366,
      "duration": 0.0932,
      "velocity": 123,
      "chip": "ym2612"
    },
    {
      "channel": 2,
      "note": 57,
      "start": 48.8379,
      "duration": 0.0294,
      "velocity": 123,
      "chip": "ym2612"
    },
    {
      "channel": 2,
      "note": 57,
      "start": 48.8675,
      "duration": 0.0328,
      "velocity": 123,
      "chip": "ym2612"
    },
    {
      "channel": 2,
      "note": 57,
      "start": 48.9005,
      "duration": 0.0327,
      "velocity": 127,
      "chip": "ym2612"
    },
    {
      "channel": 0,
      "note": 69,
      "start": 48.9301,
      "duration": 0.0989,
      "velocity": 123,
      "chip": "ym2612"
    },
    {
      "channel": 2,
      "note": 64,
      "start": 48.9335,
      "duration": 0.0966,
      "velocity": 127,
      "chip": "ym2612"
    },
    {
      "channel": 3,
      "note": 49,
      "start": 48.9366,
      "duration": 0.1897,
      "velocity": 114,
      "chip": "ym2612"
    },
    {
      "channel": 4,
      "note": 37,
      "start": 48.9376,
      "duration": 0.1897,
      "velocity": 110,
      "chip": "ym2612"
    },
    {
      "channel": 0,
      "note": 73,
      "start": 49.0292,
      "duration": 0.0933,
      "velocity": 123,
      "chip": "ym2612"
    },
    {
      "channel": 2,
      "note": 64,
      "start": 49.0302,
      "duration": 0.0933,
      "velocity": 127,
      "chip": "ym2612"
    },
    {
      "channel": 0,
      "note": 69,
      "start": 49.1227,
      "duration": 0.0989,
      "velocity": 123,
      "chip": "ym2612"
    },
    {
      "channel": 2,
      "note": 64,
      "start": 49.1237,
      "duration": 0.099,
      "velocity": 127,
      "chip": "ym2612"
    },
    {
      "channel": 3,
      "note": 49,
      "start": 49.1266,
      "duration": 0.1967,
      "velocity": 114,
      "chip": "ym2612"
    },
    {
      "channel": 0,
      "note": 73,
      "start": 49.2218,
      "duration": 0.0939,
      "velocity": 123,
      "chip": "ym2612"
    },
    {
      "channel": 2,
      "note": 64,
      "start": 49.2229,
      "duration": 0.0962,
      "velocity": 107,
      "chip": "ym2612"
    },
    {
      "channel": 0,
      "note": 69,
      "start": 49.316,
      "duration": 0.0984,
      "velocity": 123,
      "chip": "ym2612"
    },
    {
      "channel": 1,
      "note": 26,
      "start": 49.3171,
      "duration": 2.9534,
      "velocity": 98,
      "chip": "ym2612"
    },
    {
      "channel": 2,
      "note": 26,
      "start": 49.3193,
      "duration": 0.0323,
      "velocity": 107,
      "chip": "ym2612"
    },
    {
      "channel": 3,
      "note": 50,
      "start": 49.3235,
      "duration": 0.1931,
      "velocity": 114,
      "chip": "ym2612"
    },
    {
      "channel": 4,
      "note": 38,
      "start": 49.3247,
      "duration": 0.1928,
      "velocity": 110,
      "chip": "ym2612"
    },
    {
      "channel": 2,
      "note": 26,
      "start": 49.3518,
      "duration": 0.1614,
      "velocity": 127,
      "chip": "ym2612"
    },
    {
      "channel": 0,
      "note": 73,
      "start": 49.4153,
      "duration": 0.0954,
      "velocity": 123,
      "chip": "ym2612"
    },
    {
      "channel": 0,
      "note": 69,
      "start": 49.5108,
      "duration": 0.0961,
      "velocity": 123,
      "chip": "ym2612"
    },
    {
      "channel": 2,
      "note": 59,
      "start": 49.5134,
      "duration": 0.1924,
      "velocity": 127,
      "chip": "ym2612"
    },
    {
      "channel": 3,
      "note": 50,
      "start": 49.5168,
      "duration": 0.1917,
      "velocity": 114,
      "chip": "ym2612"
    },
    {
      "channel": 0,
      "note": 73,
      "start": 49.6071,
      "duration": 0.0961,
      "velocity": 123,
      "chip": "ym2612"
    },
    {
      "channel": 5,
      "note": 26,
      "start": 49.6119,
      "duration": 2.9507,
      "velocity": 98,
      "chip": "ym2612"
    },
    {
      "channel": 0,
      "note": 69,
      "start": 49.7034,
      "duration": 0.0961,
      "velocity": 123,
      "chip": "ym2612"
    },
    {
      "channel": 2,
      "note": 59,
      "start": 49.7059,
      "duration": 0.0308,
      "velocity": 127,
      "chip": "ym2612"
    },
    {
      "channel": 3,
      "note": 50,
      "start": 49.7088,
      "duration": 0.1936,
      "velocity": 114,
      "chip": "ym2612"
    },
    {
      "channel": 2,
      "note": 59,
      "start": 49.7369,
      "duration": 0.162,
      "velocity": 127,
      "chip": "ym2612"
    },
    {
      "channel": 0,
      "note": 73,
      "start": 49.7998,
      "duration": 0.0961,
      "velocity": 123,
      "chip": "ym2612"
    },
    {
      "channel": 0,
      "note": 69,
      "start": 49.8961,
      "duration": 0.0961,
      "velocity": 123,
      "chip": "ym2612"
    },
    {
      "channel": 2,
      "note": 64,
      "start": 49.8991,
      "duration": 0.192,
      "velocity": 123,
      "chip": "ym2612"
    },
    {
      "channel": 3,
      "note": 50,
      "start": 49.9026,
      "duration": 0.1912,
      "velocity": 114,
      "chip": "ym2612"
    },
    {
      "channel": 4,
      "note": 38,
      "start": 49.9034,
      "duration": 0.1913,
      "velocity": 110,
      "chip": "ym2612"
    },
    {
      "channel": 0,
      "note": 73,
      "start": 49.9923,
      "duration": 0.0962,
      "velocity": 123,
      "chip": "ym2612"
    },
    {
      "channel": 0,
      "note": 69,
      "start": 50.0888,
      "duration": 0.0961,
      "velocity": 123,
      "chip": "ym2612"
    },
    {
      "channel": 2,
      "note": 57,
      "start": 50.0913,
      "duration": 0.031,
      "velocity": 123,
      "chip": "ym2612"
    },
    {
      "channel": 3,
      "note": 50,
      "start": 50.0941,
      "duration": 0.1938,
      "velocity": 114,
      "chip": "ym2612"
    },
    {
      "channel": 2,
      "note": 57,
      "start": 50.1225,
      "duration": 0.0327,
      "velocity": 123,
      "chip": "ym2612"
    },
    {
      "channel": 2,
      "note": 57,
      "start": 50.1555,
      "duration": 0.0307,
      "velocity": 123,
      "chip": "ym2612"
    },
    {
      "channel": 0,
      "note": 73,
      "start": 50.1851,
      "duration": 0.0961,
      "velocity": 123,
      "chip": "ym2612"
    },
    {
      "channel": 2,
      "note": 57,
      "start": 50.1863,
      "duration": 0.0322,
      "velocity": 123,
      "chip": "ym2612"
    },
    {
      "channel": 2,
      "note": 57,
      "start": 50.2187,
      "duration": 0.0307,
      "velocity": 123,
      "chip": "ym2612"
    },
    {
      "channel": 2,
      "note": 57,
      "start": 50.2496,
      "duration": 0.0348,
      "velocity": 127,
      "chip": "ym2612"
    },
    {
      "channel": 0,
      "note": 69,
      "start": 50.282,
      "duration": 0.0983,
      "velocity": 123,
      "chip": "ym2612"
    },
    {
      "channel": 2,
      "note": 59,
      "start": 50.2847,
      "duration": 0.0328,
      "velocity": 127,
      "chip": "ym2612"
    },
    {
      "channel": 3,
      "note": 50,
      "start": 50.2882,
      "duration": 0.1913,
      "velocity": 114,
      "chip": "ym2612"
    },
    {
      "channel": 4,
      "note": 38,
      "start": 50.2891,
      "duration": 0.1913,
      "velocity": 110,
      "chip": "ym2612"
    },
    {
      "channel": 2,
      "note": 59,
      "start": 50.3177,
      "duration": 0.1586,
      "velocity": 127,
      "chip": "ym2612"
    },
    {
      "channel": 0,
      "note": 73,
      "start": 50.3805,
      "duration": 0.0932,
      "velocity": 123,
      "chip": "ym2612"
    },
    {
      "channel": 0,
      "note": 69,
      "start": 50.474,
      "duration": 0.0989,
      "velocity": 123,
      "chip": "ym2612"
    },
    {
      "channel": 2,
      "note": 66,
      "start": 50.4765,
      "duration": 0.0974,
      "velocity": 127,
      "chip": "ym2612"
    },
    {
      "channel": 3,
      "note": 50,
      "start": 50.4797,
      "duration": 0.1905,
      "velocity": 114,
      "chip": "ym2612"
    },
    {
      "channel": 4,
      "note": 38,
      "start": 50.4805,
      "duration": 0.1905,
      "velocity": 110,
      "chip": "ym2612"
    },
    {
      "channel": 0,
      "note": 73,
      "start": 50.5731,
      "duration": 0.0932,
      "velocity": 123,
      "chip": "ym2612"
    },
    {
      "channel": 2,
      "note": 66,
      "start": 50.5741,
      "duration": 0.0932,
      "velocity": 127,
      "chip": "ym2612"
    },
    {
      "channel": 0,
      "note": 69,
      "start": 50.6666,
      "duration": 0.096,
      "velocity": 123,
      "chip": "ym2612"
    },
    {
      "channel": 2,
      "note": 66,
      "start": 50.6676,
      "duration": 0.096,
      "velocity": 127,
      "chip": "ym2612"
    },
    {
      "channel": 3,
      "note": 50,
      "start": 50.6704,
      "duration": 0.1938,
      "velocity": 114,
      "chip": "ym2612"
    },
    {
      "channel": 0,
      "note": 73,
      "start": 50.7628,
      "duration": 0.0962,
      "velocity": 123,
      "chip": "ym2612"
    },
    {
      "channel": 2,
      "note": 66,
      "start": 50.7638,
      "duration": 0.0976,
      "velocity": 123,
      "chip": "ym2612"
    },
    {
      "channel": 0,
      "note": 69,
      "start": 50.8592,
      "duration": 0.0961,
      "velocity": 123,
      "chip": "ym2612"
    },
    {
      "channel": 2,
      "note": 68,
      "start": 50.8617,
      "duration": 0.0946,
      "velocity": 123,
      "chip": "ym2612"
    },
    {
      "channel": 3,
      "note": 50,
      "start": 50.8646,
      "duration": 0.193,
      "velocity": 114,
      "chip": "ym2612"
    },
    {
      "channel": 0,
      "note": 73,
      "start": 50.9555,
      "duration": 0.0961,
      "velocity": 123,
      "chip": "ym2612"
    },
    {
      "channel": 2,
      "note": 68,
      "start": 50.9564,
      "duration": 0.0976,
      "velocity": 107,
      "chip": "ym2612"
    },
    {
      "channel": 0,
      "note": 69,
      "start": 51.0517,
      "duration": 0.0962,
      "velocity": 123,
      "chip": "ym2612"
    },
    {
      "channel": 2,
      "note": 30,
      "start": 51.0543,
      "duration": 0.0307,
      "velocity": 107,
      "chip": "ym2612"
    },
    {
      "channel": 3,
      "note": 50,
      "start": 51.0578,
      "duration": 0.1923,
      "velocity": 114,
      "chip": "ym2612"
    },
    {
      "channel": 4,
      "note": 38,
      "start": 51.0587,
      "duration": 0.1923,
      "velocity": 110,
      "chip": "ym2612"
    },
    {
      "channel": 2,
      "note": 30,
      "start": 51.0852,
      "duration": 0.1615,
      "velocity": 123,
      "chip": "ym2612"
    },
    {
      "channel": 0,
      "note": 73,
      "start": 51.1487,
      "duration": 0.0955,
      "velocity": 123,
      "chip": "ym2612"
    },
    {
      "channel": 0,
      "note": 69,
      "start": 51.2444,
      "duration": 0.0961,
      "velocity": 123,
      "chip": "ym2612"
    },
    {
      "channel": 2,
      "note": 59,
      "start": 51.2469,
      "duration": 0.0945,
      "velocity": 123,
      "chip": "ym2612"
    },
    {
      "channel": 3,
      "note": 50,
      "start": 51.2503,
      "duration": 0.1925,
      "velocity": 114,
      "chip": "ym2612"
    },
    {
      "channel": 0,
      "note": 73,
      "start": 51.3406,
      "duration": 0.0962,
      "velocity": 123,
      "chip": "ym2612"
    },
    {
      "channel": 2,
      "note": 59,
      "start": 51.3416,
      "duration": 0.0976,
      "velocity": 107,
      "chip": "ym2612"
    },
    {
      "channel": 0,
      "note": 69,
      "start": 51.437,
      "duration": 0.0961,
      "velocity": 123,
      "chip": "ym2612"
    },
    {
      "channel": 2,
      "note": 27,
      "start": 51.4395,
      "duration": 0.0308,
      "velocity": 107,
      "chip": "ym2612"
    },
    {
      "channel": 3,
      "note": 50,
      "start": 51.443,
      "duration": 0.1923,
      "velocity": 114,
      "chip": "ym2612"
    },
    {
      "channel": 4,
      "note": 38,
      "start": 51.4439,
      "duration": 0.1923,
      "velocity": 110,
      "chip": "ym2612"
    },
    {
      "channel": 2,
      "note": 27,
      "start": 51.4704,
      "duration": 0.1622,
      "velocity": 127,
      "chip": "ym2612"
    },
    {
      "channel": 0,
      "note": 73,
      "start": 51.5332,
      "duration": 0.0962,
      "velocity": 123,
      "chip": "ym2612"
    },
    {
      "channel": 0,
      "note": 69,
      "start": 51.6296,
      "duration": 0.0961,
      "velocity": 123,
      "chip": "ym2612"
    },
    {
      "channel": 2,
      "note": 59,
      "start": 51.6328,
      "duration": 0.0301,
      "velocity": 127,
      "chip": "ym2612"
    },
    {
      "channel": 3,
      "note": 50,
      "start": 51.6356,
      "duration": 0.1925,
      "velocity": 114,
      "chip": "ym2612"
    },
    {
      "channel": 2,
      "note": 59,
      "start": 51.6631,
      "duration": 0.1615,
      "velocity": 123,
      "chip": "ym2612"
    },
    {
      "channel": 0,
      "note": 73,
      "start": 51.7259,
      "duration": 0.0961,
      "velocity": 123,
      "chip": "ym2612"
    },
    {
      "channel": 0,
      "note": 69,
      "start": 51.8222,
      "duration": 0.0961,
      "velocity": 123,
      "chip": "ym2612"
    },
    {
      "channel": 2,
      "note": 57,
      "start": 51.8248,
      "duration": 0.031,
      "velocity": 123,
      "chip": "ym2612"
    },
    {
      "channel": 3,
      "note": 50,
      "start": 51.8283,
      "duration": 0.1929,
      "velocity": 114,
      "chip": "ym2612"
    },
    {
      "channel": 4,
      "note": 38,
      "start": 51.8292,
      "duration": 0.1929,
      "velocity": 110,
      "chip": "ym2612"
    },
    {
      "channel": 2,
      "note": 57,
      "start": 51.8559,
      "duration": 0.0328,
      "velocity": 123,
      "chip": "ym2612"
    },
    {
      "channel": 2,
      "note": 57,
      "start": 51.889,
      "duration": 0.0305,
      "velocity": 123,
      "chip": "ym2612"
    },
    {
      "channel": 0,
      "note": 73,
      "start": 51.9185,
      "duration": 0.0964,
      "velocity": 123,
      "chip": "ym2612"
    },
    {
      "channel": 2,
      "note": 57,
      "start": 51.9197,
      "duration": 0.0322,
      "velocity": 123,
      "chip": "ym2612"
    },
    {
      "channel": 2,
      "note": 57,
      "start": 51.9522,
      "duration": 0.0307,
      "velocity": 123,
      "chip": "ym2612"
    },
    {
      "channel": 2,
      "note": 57,
      "start": 51.983,
      "duration": 0.0349,
      "velocity": 127,
      "chip": "ym2612"
    },
    {
      "channel": 0,
      "note": 69,
      "start": 52.0155,
      "duration": 0.0954,
      "velocity": 123,
      "chip": "ym2612"
    },
    {
      "channel": 2,
      "note": 64,
      "start": 52.0182,
      "duration": 0.0936,
      "velocity": 127,
      "chip": "ym2612"
    },
    {
      "channel": 3,
      "note": 50,
      "start": 52.0214,
      "duration": 0.1896,
      "velocity": 114,
      "chip": "ym2612"
    },
    {
      "channel": 4,
      "note": 38,
      "start": 52.0223,
      "duration": 0.1896,
      "velocity": 110,
      "chip": "ym2612"
    },
    {
      "channel": 0,
      "note": 73,
      "start": 52.1111,
      "duration": 0.0961,
      "velocity": 123,
      "chip": "ym2612"
    },
    {
      "channel": 2,
      "note": 64,
      "start": 52.112,
      "duration": 0.0961,
      "velocity": 127,
      "chip": "ym2612"
    },
    {
      "channel": 0,
      "note": 69,
      "start": 52.2074,
      "duration": 0.096,
      "velocity": 123,
      "chip": "ym2612"
    },
    {
      "channel": 2,
      "note": 64,
      "start": 52.2084,
      "duration": 0.096,
      "velocity": 127,
      "chip": "ym2612"
    },
    {
      "channel": 3,
      "note": 50,
      "start": 52.2112,
      "duration": 0.1929,
      "velocity": 114,
      "chip": "ym2612"
    },
    {
      "channel": 0,
      "note": 73,
      "start": 52.3036,
      "duration": 0.0933,
      "velocity": 123,
      "chip": "ym2612"
    },
    {
      "channel": 2,
      "note": 64,
      "start": 52.3046,
      "duration": 0.0959,
      "velocity": 107,
      "chip": "ym2612"
    },
    {
      "channel": 0,
      "note": 69,
      "start": 52.3971,
      "duration": 0.099,
      "velocity": 123,
      "chip": "ym2612"
    },
    {
      "channel": 1,
      "note": 28,
      "start": 52.3979,
      "duration": 2.9573,
      "velocity": 98,
      "chip": "ym2612"
    },
    {
      "channel": 2,
      "note": 26,
      "start": 52.4007,
      "duration": 0.0326,
      "velocity": 107,
      "chip": "ym2612"
    },
    {
      "channel": 3,
      "note": 50,
      "start": 52.4044,
      "duration": 0.1933,
      "velocity": 114,
      "chip": "ym2612"
    },
    {
      "channel": 4,
      "note": 38,
      "start": 52.4053,
      "duration": 0.194,
      "velocity": 110,
      "chip": "ym2612"
    },
    {
      "channel": 2,
      "note": 26,
      "start": 52.4336,
      "duration": 0.1613,
      "velocity": 127,
      "chip": "ym2612"
    },
    {
      "channel": 0,
      "note": 73,
      "start": 52.4964,
      "duration": 0.0961,
      "velocity": 123,
      "chip": "ym2612"
    },
    {
      "channel": 0,
      "note": 69,
      "start": 52.5926,
      "duration": 0.0961,
      "velocity": 123,
      "chip": "ym2612"
    },
    {
      "channel": 2,
      "note": 59,
      "start": 52.5952,
      "duration": 0.1923,
      "velocity": 127,
      "chip": "ym2612"
    },
    {
      "channel": 3,
      "note": 50,
      "start": 52.5986,
      "duration": 0.1917,
      "velocity": 114,
      "chip": "ym2612"
    },
    {
      "channel": 0,
      "note": 73,
      "start": 52.6889,
      "duration": 0.0961,
      "velocity": 123,
      "chip": "ym2612"
    },
    {
      "channel": 5,
      "note": 28,
      "start": 52.6932,
      "duration": 2.954,
      "velocity": 98,
      "chip": "ym2612"
    },
    {
      "channel": 0,
      "note": 69,
      "start": 52.7853,
      "duration": 0.0967,
      "velocity": 123,
      "chip": "ym2612"
    },
    {
      "channel": 2,
      "note": 59,
      "start": 52.7877,
      "duration": 0.0309,
      "velocity": 127,
      "chip": "ym2612"
    },
    {
      "channel": 3,
      "note": 50,
      "start": 52.7905,
      "duration": 0.1937,
      "velocity": 114,
      "chip": "ym2612"
    },
    {
      "channel": 2,
      "note": 59,
      "start": 52.8187,
      "duration": 0.1613,
      "velocity": 127,
      "chip": "ym2612"
    },
    {
      "channel": 0,
      "note": 73,
      "start": 52.8822,
      "duration": 0.0954,
      "velocity": 123,
      "chip": "ym2612"
    },
    {
      "channel": 0,
      "note": 69,
      "start": 52.9779,
      "duration": 0.0961,
      "velocity": 123,
      "chip": "ym2612"
    },
    {
      "channel": 2,
      "note": 64,
      "start": 52.9803,
      "duration": 0.1926,
      "velocity": 123,
      "chip": "ym2612"
    },
    {
      "channel": 3,
      "note": 50,
      "start": 52.9844,
      "duration": 0.1913,
      "velocity": 114,
      "chip": "ym2612"
    },
    {
      "channel": 4,
      "note": 38,
      "start": 52.9853,
      "duration": 0.1913,
      "velocity": 110,
      "chip": "ym2612"
    },
    {
      "channel": 0,
      "note": 73,
      "start": 53.0741,
      "duration": 0.0962,
      "velocity": 123,
      "chip": "ym2612"
    },
    {
      "channel": 0,
      "note": 69,
      "start": 53.1705,
      "duration": 0.0961,
      "velocity": 123,
      "chip": "ym2612"
    },
    {
      "channel": 2,
      "note": 57,
      "start": 53.1731,
      "duration": 0.031,
      "velocity": 123,
      "chip": "ym2612"
    },
    {
      "channel": 3,
      "note": 50,
      "start": 53.1758,
      "duration": 0.1939,
      "velocity": 114,
      "chip": "ym2612"
    },
    {
      "channel": 2,
      "note": 57,
      "start": 53.2043,
      "duration": 0.0327,
      "velocity": 123,
      "chip": "ym2612"
    },
    {
      "channel": 2,
      "note": 57,
      "start": 53.2373,
      "duration": 0.0306,
      "velocity": 123,
      "chip": "ym2612"
    },
    {
      "channel": 0,
      "note": 73,
      "start": 53.2668,
      "duration": 0.0961,
      "velocity": 123,
      "chip": "ym2612"
    },
    {
      "channel": 2,
      "note": 57,
      "start": 53.2681,
      "duration": 0.0322,
      "velocity": 123,
      "chip": "ym2612"
    },
    {
      "channel": 2,
      "note": 57,
      "start": 53.3005,
      "duration": 0.03,
      "velocity": 123,
      "chip": "ym2612"
    },
    {
      "channel": 2,
      "note": 57,
      "start": 53.3307,
      "duration": 0.0355,
      "velocity": 127,
      "chip": "ym2612"
    },
    {
      "channel": 0,
      "note": 69,
      "start": 53.3631,
      "duration": 0.099,
      "velocity": 123,
      "chip": "ym2612"
    },
    {
      "channel": 2,
      "note": 59,
      "start": 53.3664,
      "duration": 0.0332,
      "velocity": 127,
      "chip": "ym2612"
    },
    {
      "channel": 3,
      "note": 50,
      "start": 53.3699,
      "duration": 0.1913,
      "velocity": 114,
      "chip": "ym2612"
    },
    {
      "channel": 4,
      "note": 38,
      "start": 53.3708,
      "duration": 0.1913,
      "velocity": 110,
      "chip": "ym2612"
    },
    {
      "channel": 2,
      "note": 59,
      "start": 53.3998,
      "duration": 0.1582,
      "velocity": 127,
      "chip": "ym2612"
    },
    {
      "channel": 0,
      "note": 73,
      "start": 53.4623,
      "duration": 0.0933,
      "velocity": 123,
      "chip": "ym2612"
    },
    {
      "channel": 0,
      "note": 69,
      "start": 53.5557,
      "duration": 0.0989,
      "velocity": 123,
      "chip": "ym2612"
    },
    {
      "channel": 2,
      "note": 66,
      "start": 53.5582,
      "duration": 0.0975,
      "velocity": 127,
      "chip": "ym2612"
    },
    {
      "channel": 3,
      "note": 50,
      "start": 53.5615,
      "duration": 0.1912,
      "velocity": 114,
      "chip": "ym2612"
    },
    {
      "channel": 4,
      "note": 38,
      "start": 53.5624,
      "duration": 0.1912,
      "velocity": 110,
      "chip": "ym2612"
    },
    {
      "channel": 0,
      "note": 73,
      "start": 53.6549,
      "duration": 0.0939,
      "velocity": 123,
      "chip": "ym2612"
    },
    {
      "channel": 2,
      "note": 66,
      "start": 53.6559,
      "duration": 0.0939,
      "velocity": 127,
      "chip": "ym2612"
    },
    {
      "channel": 0,
      "note": 69,
      "start": 53.749,
      "duration": 0.0982,
      "velocity": 123,
      "chip": "ym2612"
    },
    {
      "channel": 2,
      "note": 66,
      "start": 53.75,
      "duration": 0.0989,
      "velocity": 127,
      "chip": "ym2612"
    },
    {
      "channel": 3,
      "note": 50,
      "start": 53.7529,
      "duration": 0.1932,
      "velocity": 114,
      "chip": "ym2612"
    },
    {
      "channel": 0,
      "note": 73,
      "start": 53.8475,
      "duration": 0.0934,
      "velocity": 123,
      "chip": "ym2612"
    },
    {
      "channel": 2,
      "note": 66,
      "start": 53.8491,
      "duration": 0.0941,
      "velocity": 123,
      "chip": "ym2612"
    },
    {
      "channel": 0,
      "note": 69,
      "start": 53.941,
      "duration": 0.0988,
      "velocity": 123,
      "chip": "ym2612"
    },
    {
      "channel": 2,
      "note": 68,
      "start": 53.9435,
      "duration": 0.0974,
      "velocity": 123,
      "chip": "ym2612"
    },
    {
      "channel": 3,
      "note": 50,
      "start": 53.9463,
      "duration": 0.1931,
      "velocity": 114,
      "chip": "ym2612"
    },
    {
      "channel": 0,
      "note": 73,
      "start": 54.0402,
      "duration": 0.0933,
      "velocity": 123,
      "chip": "ym2612"
    },
    {
      "channel": 2,
      "note": 68,
      "start": 54.0411,
      "duration": 0.0949,
      "velocity": 107,
      "chip": "ym2612"
    },
    {
      "channel": 0,
      "note": 69,
      "start": 54.1337,
      "duration": 0.0988,
      "velocity": 123,
      "chip": "ym2612"
    },
    {
      "channel": 2,
      "note": 30,
      "start": 54.1361,
      "duration": 0.0336,
      "velocity": 107,
      "chip": "ym2612"
    },
    {
      "channel": 3,
      "note": 50,
      "start": 54.1396,
      "duration": 0.1919,
      "velocity": 114,
      "chip": "ym2612"
    },
    {
      "channel": 4,
      "note": 38,
      "start": 54.1405,
      "duration": 0.1923,
      "velocity": 110,
      "chip": "ym2612"
    },
    {
      "channel": 2,
      "note": 30,
      "start": 54.1699,
      "duration": 0.1586,
      "velocity": 123,
      "chip": "ym2612"
    },
    {
      "channel": 0,
      "note": 73,
      "start": 54.2328,
      "duration": 0.0932,
      "velocity": 123,
      "chip": "ym2612"
    },
    {
      "channel": 0,
      "note": 69,
      "start": 54.3262,
      "duration": 0.0989,
      "velocity": 123,
      "chip": "ym2612"
    },
    {
      "channel": 2,
      "note": 59,
      "start": 54.3287,
      "duration": 0.0974,
      "velocity": 123,
      "chip": "ym2612"
    },
    {
      "channel": 3,
      "note": 50,
      "start": 54.3321,
      "duration": 0.1925,
      "velocity": 114,
      "chip": "ym2612"
    },
    {
      "channel": 0,
      "note": 73,
      "start": 54.4253,
      "duration": 0.0933,
      "velocity": 123,
      "chip": "ym2612"
    },
    {
      "channel": 2,
      "note": 59,
      "start": 54.4263,
      "duration": 0.0947,
      "velocity": 107,
      "chip": "ym2612"
    },
    {
      "channel": 0,
      "note": 69,
      "start": 54.5188,
      "duration": 0.0989,
      "velocity": 123,
      "chip": "ym2612"
    },
    {
      "channel": 2,
      "note": 27,
      "start": 54.5213,
      "duration": 0.0337,
      "velocity": 107,
      "chip": "ym2612"
    },
    {
      "channel": 3,
      "note": 50,
      "start": 54.5249,
      "duration": 0.1924,
      "velocity": 114,
      "chip": "ym2612"
    },
    {
      "channel": 4,
      "note": 38,
      "start": 54.5258,
      "duration": 0.1924,
      "velocity": 110,
      "chip": "ym2612"
    },
    {
      "channel": 2,
      "note": 27,
      "start": 54.5552,
      "duration": 0.1586,
      "velocity": 127,
      "chip": "ym2612"
    },
    {
      "channel": 0,
      "note": 73,
      "start": 54.618,
      "duration": 0.0933,
      "velocity": 123,
      "chip": "ym2612"
    },
    {
      "channel": 0,
      "note": 69,
      "start": 54.7115,
      "duration": 0.0989,
      "velocity": 123,
      "chip": "ym2612"
    },
    {
      "channel": 2,
      "note": 59,
      "start": 54.714,
      "duration": 0.0335,
      "velocity": 127,
      "chip": "ym2612"
    },
    {
      "channel": 3,
      "note": 50,
      "start": 54.7174,
      "duration": 0.1926,
      "velocity": 114,
      "chip": "ym2612"
    },
    {
      "channel": 2,
      "note": 59,
      "start": 54.7478,
      "duration": 0.1587,
      "velocity": 123,
      "chip": "ym2612"
    },
    {
      "channel": 0,
      "note": 73,
      "start": 54.8106,
      "duration": 0.0933,
      "velocity": 123,
      "chip": "ym2612"
    },
    {
      "channel": 0,
      "note": 69,
      "start": 54.9041,
      "duration": 0.0989,
      "velocity": 123,
      "chip": "ym2612"
    },
    {
      "channel": 2,
      "note": 57,
      "start": 54.9067,
      "duration": 0.0337,
      "velocity": 123,
      "chip": "ym2612"
    },
    {
      "channel": 3,
      "note": 50,
      "start": 54.9102,
      "duration": 0.1928,
      "velocity": 114,
      "chip": "ym2612"
    },
    {
      "channel": 4,
      "note": 38,
      "start": 54.9111,
      "duration": 0.1928,
      "velocity": 110,
      "chip": "ym2612"
    },
    {
      "channel": 2,
      "note": 57,
      "start": 54.9407,
      "duration": 0.03,
      "velocity": 123,
      "chip": "ym2612"
    },
    {
      "channel": 2,
      "note": 57,
      "start": 54.9708,
      "duration": 0.0334,
      "velocity": 123,
      "chip": "ym2612"
    },
    {
      "channel": 0,
      "note": 73,
      "start": 55.0032,
      "duration": 0.0932,
      "velocity": 123,
      "chip": "ym2612"
    },
    {
      "channel": 2,
      "note": 57,
      "start": 55.0045,
      "duration": 0.0294,
      "velocity": 123,
      "chip": "ym2612"
    },
    {
      "channel": 2,
      "note": 57,
      "start": 55.034,
      "duration": 0.0328,
      "velocity": 123,
      "chip": "ym2612"
    },
    {
      "channel": 2,
      "note": 57,
      "start": 55.0671,
      "duration": 0.0327,
      "velocity": 127,
      "chip": "ym2612"
    },
    {
      "channel": 0,
      "note": 69,
      "start": 55.0966,
      "duration": 0.0989,
      "velocity": 123,
      "chip": "ym2612"
    },
    {
      "channel": 2,
      "note": 64,
      "start": 55.1,
      "duration": 0.0966,
      "velocity": 127,
      "chip": "ym2612"
    },
    {
      "channel": 3,
      "note": 50,
      "start": 55.1033,
      "duration": 0.1896,
      "velocity": 114,
      "chip": "ym2612"
    },
    {
      "channel": 4,
      "note": 38,
      "start": 55.1041,
      "duration": 0.1896,
      "velocity": 110,
      "chip": "ym2612"
    },
    {
      "channel": 0,
      "note": 73,
      "start": 55.1958,
      "duration": 0.0933,
      "velocity": 123,
      "chip": "ym2612"
    },
    {
      "channel": 2,
      "note": 64,
      "start": 55.1968,
      "duration": 0.0933,
      "velocity": 127,
      "chip": "ym2612"
    },
    {
      "channel": 0,
      "note": 69,
      "start": 55.2893,
      "duration": 0.096,
      "velocity": 123,
      "chip": "ym2612"
    },
    {
      "channel": 2,
      "note": 64,
      "start": 55.2903,
      "duration": 0.096,
      "velocity": 127,
      "chip": "ym2612"
    },
    {
      "channel": 3,
      "note": 50,
      "start": 55.2931,
      "duration": 0.196,
      "velocity": 114,
      "chip": "ym2612"
    },
    {
      "channel": 0,
      "note": 73,
      "start": 55.3854,
      "duration": 0.0968,
      "velocity": 123,
      "chip": "ym2612"
    },
    {
      "channel": 2,
      "note": 64,
      "start": 55.3865,
      "duration": 0.099,
      "velocity": 107,
      "chip": "ym2612"
    },
    {
      "channel": 0,
      "note": 69,
      "start": 55.4824,
      "duration": 0.0983,
      "velocity": 123,
      "chip": "ym2612"
    },
    {
      "channel": 1,
      "note": 29,
      "start": 55.4834,
      "duration": 2.9536,
      "velocity": 98,
      "chip": "ym2612"
    },
    {
      "channel": 2,
      "note": 26,
      "start": 55.4856,
      "duration": 0.0324,
      "velocity": 107,
      "chip": "ym2612"
    },
    {
      "channel": 3,
      "note": 50,
      "start": 55.4893,
      "duration": 0.1903,
      "velocity": 114,
      "chip": "ym2612"
    },
    {
      "channel": 4,
      "note": 38,
      "start": 55.4902,
      "duration": 0.1903,
      "velocity": 110,
      "chip": "ym2612"
    },
    {
      "channel": 2,
      "note": 26,
      "start": 55.5182,
      "duration": 0.1586,
      "velocity": 127,
      "chip": "ym2612"
    },
    {
      "channel": 0,
      "note": 73,
      "start": 55.581,
      "duration": 0.0933,
      "velocity": 123,
      "chip": "ym2612"
    },
    {
      "channel": 0,
      "note": 69,
      "start": 55.6746,
      "duration": 0.0989,
      "velocity": 123,
      "chip": "ym2612"
    },
    {
      "channel": 2,
      "note": 59,
      "start": 55.6771,
      "duration": 0.1923,
      "velocity": 127,
      "chip": "ym2612"
    },
    {
      "channel": 3,
      "note": 50,
      "start": 55.6798,
      "duration": 0.1923,
      "velocity": 114,
      "chip": "ym2612"
    },
    {
      "channel": 0,
      "note": 73,
      "start": 55.7736,
      "duration": 0.0933,
      "velocity": 123,
      "chip": "ym2612"
    },
    {
      "channel": 5,
      "note": 29,
      "start": 55.7781,
      "duration": 2.9511,
      "velocity": 98,
      "chip": "ym2612"
    },
    {
      "channel": 0,
      "note": 69,
      "start": 55.8671,
      "duration": 0.0989,
      "velocity": 123,
      "chip": "ym2612"
    },
    {
      "channel": 2,
      "note": 59,
      "start": 55.8695,
      "duration": 0.0337,
      "velocity": 127,
      "chip": "ym2612"
    },
    {
      "channel": 3,
      "note": 50,
      "start": 55.8724,
      "duration": 0.1936,
      "velocity": 114,
      "chip": "ym2612"
    },
    {
      "channel": 2,
      "note": 59,
      "start": 55.9034,
      "duration": 0.1585,
      "velocity": 127,
      "chip": "ym2612"
    },
    {
      "channel": 0,
      "note": 73,
      "start": 55.9662,
      "duration": 0.0932,
      "velocity": 123,
      "chip": "ym2612"
    },
    {
      "channel": 0,
      "note": 69,
      "start": 56.0598,
      "duration": 0.0988,
      "velocity": 123,
      "chip": "ym2612"
    },
    {
      "channel": 2,
      "note": 64,
      "start": 56.0622,
      "duration": 0.1926,
      "velocity": 123,
      "chip": "ym2612"
    },
    {
      "channel": 3,
      "note": 50,
      "start": 56.0662,
      "duration": 0.1912,
      "velocity": 114,
      "chip": "ym2612"
    },
    {
      "channel": 4,
      "note": 38,
      "start": 56.0671,
      "duration": 0.1912,
      "velocity": 110,
      "chip": "ym2612"
    },
    {
      "channel": 0,
      "note": 73,
      "start": 56.1588,
      "duration": 0.0934,
      "velocity": 123,
      "chip": "ym2612"
    },
    {
      "channel": 0,
      "note": 69,
      "start": 56.2524,
      "duration": 0.0989,
      "velocity": 123,
      "chip": "ym2612"
    },
    {
      "channel": 2,
      "note": 57,
      "start": 56.255,
      "duration": 0.0337,
      "velocity": 123,
      "chip": "ym2612"
    },
    {
      "channel": 3,
      "note": 50,
      "start": 56.2577,
      "duration": 0.1939,
      "velocity": 114,
      "chip": "ym2612"
    },
    {
      "channel": 2,
      "note": 57,
      "start": 56.2889,
      "duration": 0.03,
      "velocity": 123,
      "chip": "ym2612"
    },
    {
      "channel": 2,
      "note": 57,
      "start": 56.3192,
      "duration": 0.0333,
      "velocity": 123,
      "chip": "ym2612"
    },
    {
      "channel": 0,
      "note": 73,
      "start": 56.3515,
      "duration": 0.0933,
      "velocity": 123,
      "chip": "ym2612"
    },
    {
      "channel": 2,
      "note": 57,
      "start": 56.3527,
      "duration": 0.0301,
      "velocity": 123,
      "chip": "ym2612"
    },
    {
      "channel": 2,
      "note": 57,
      "start": 56.3831,
      "duration": 0.0327,
      "velocity": 123,
      "chip": "ym2612"
    },
    {
      "channel": 2,
      "note": 57,
      "start": 56.416,
      "duration": 0.0315,
      "velocity": 127,
      "chip": "ym2612"
    },
    {
      "channel": 0,
      "note": 69,
      "start": 56.445,
      "duration": 0.0989,
      "velocity": 123,
      "chip": "ym2612"
    },
    {
      "channel": 2,
      "note": 59,
      "start": 56.4477,
      "duration": 0.0335,
      "velocity": 127,
      "chip": "ym2612"
    },
    {
      "channel": 3,
      "note": 50,
      "start": 56.4519,
      "duration": 0.1941,
      "velocity": 114,
      "chip": "ym2612"
    },
    {
      "channel": 4,
      "note": 38,
      "start": 56.4527,
      "duration": 0.1941,
      "velocity": 110,
      "chip": "ym2612"
    },
    {
      "channel": 2,
      "note": 59,
      "start": 56.482,
      "duration": 0.1607,
      "velocity": 127,
      "chip": "ym2612"
    },
    {
      "channel": 0,
      "note": 73,
      "start": 56.5441,
      "duration": 0.0961,
      "velocity": 123,
      "chip": "ym2612"
    },
    {
      "channel": 0,
      "note": 69,
      "start": 56.6405,
      "duration": 0.0961,
      "velocity": 123,
      "chip": "ym2612"
    },
    {
      "channel": 2,
      "note": 66,
      "start": 56.6429,
      "duration": 0.0946,
      "velocity": 127,
      "chip": "ym2612"
    },
    {
      "channel": 3,
      "note": 50,
      "start": 56.6462,
      "duration": 0.1905,
      "velocity": 114,
      "chip": "ym2612"
    },
    {
      "channel": 4,
      "note": 38,
      "start": 56.647,
      "duration": 0.1906,
      "velocity": 110,
      "chip": "ym2612"
    },
    {
      "channel": 0,
      "note": 73,
      "start": 56.7367,
      "duration": 0.0962,
      "velocity": 123,
      "chip": "ym2612"
    },
    {
      "channel": 2,
      "note": 66,
      "start": 56.7377,
      "duration": 0.0961,
      "velocity": 127,
      "chip": "ym2612"
    },
    {
      "channel": 0,
      "note": 69,
      "start": 56.8331,
      "duration": 0.096,
      "velocity": 123,
      "chip": "ym2612"
    },
    {
      "channel": 2,
      "note": 66,
      "start": 56.8341,
      "duration": 0.0959,
      "velocity": 127,
      "chip": "ym2612"
    },
    {
      "channel": 3,
      "note": 50,
      "start": 56.8369,
      "duration": 0.191,
      "velocity": 114,
      "chip": "ym2612"
    },
    {
      "channel": 0,
      "note": 73,
      "start": 56.9293,
      "duration": 0.0933,
      "velocity": 123,
      "chip": "ym2612"
    },
    {
      "channel": 2,
      "note": 66,
      "start": 56.9303,
      "duration": 0.0947,
      "velocity": 123,
      "chip": "ym2612"
    },
    {
      "channel": 0,
      "note": 69,
      "start": 57.0228,
      "duration": 0.0989,
      "velocity": 123,
      "chip": "ym2612"
    },
    {
      "channel": 2,
      "note": 68,
      "start": 57.0253,
      "duration": 0.0974,
      "velocity": 123,
      "chip": "ym2612"
    },
    {
      "channel": 3,
      "note": 50,
      "start": 57.0281,
      "duration": 0.1938,
      "velocity": 114,
      "chip": "ym2612"
    },
    {
      "channel": 0,
      "note": 73,
      "start": 57.1219,
      "duration": 0.094,
      "velocity": 123,
      "chip": "ym2612"
    },
    {
      "channel": 2,
      "note": 68,
      "start": 57.1229,
      "duration": 0.0955,
      "velocity": 107,
      "chip": "ym2612"
    },
    {
      "channel": 0,
      "note": 69,
      "start": 57.2161,
      "duration": 0.0983,
      "velocity": 123,
      "chip": "ym2612"
    },
    {
      "channel": 2,
      "note": 30,
      "start": 57.2186,
      "duration": 0.0329,
      "velocity": 107,
      "chip": "ym2612"
    },
    {
      "channel": 3,
      "note": 50,
      "start": 57.2221,
      "duration": 0.1945,
      "velocity": 114,
      "chip": "ym2612"
    },
    {
      "channel": 4,
      "note": 38,
      "start": 57.223,
      "duration": 0.1945,
      "velocity": 110,
      "chip": "ym2612"
    },
    {
      "channel": 2,
      "note": 30,
      "start": 57.2518,
      "duration": 0.1614,
      "velocity": 123,
      "chip": "ym2612"
    },
    {
      "channel": 0,
      "note": 73,
      "start": 57.3153,
      "duration": 0.0954,
      "velocity": 123,
      "chip": "ym2612"
    },
    {
      "channel": 0,
      "note": 69,
      "start": 57.4109,
      "duration": 0.0961,
      "velocity": 123,
      "chip": "ym2612"
    },
    {
      "channel": 2,
      "note": 59,
      "start": 57.4134,
      "duration": 0.0945,
      "velocity": 123,
      "chip": "ym2612"
    },
    {
      "channel": 3,
      "note": 50,
      "start": 57.4169,
      "duration": 0.1925,
      "velocity": 114,
      "chip": "ym2612"
    },
    {
      "channel": 0,
      "note": 73,
      "start": 57.5072,
      "duration": 0.0961,
      "velocity": 123,
      "chip": "ym2612"
    },
    {
      "channel": 2,
      "note": 59,
      "start": 57.5082,
      "duration": 0.0976,
      "velocity": 107,
      "chip": "ym2612"
    },
    {
      "channel": 0,
      "note": 69,
      "start": 57.6035,
      "duration": 0.0961,
      "velocity": 123,
      "chip": "ym2612"
    },
    {
      "channel": 2,
      "note": 27,
      "start": 57.606,
      "duration": 0.0308,
      "velocity": 107,
      "chip": "ym2612"
    },
    {
      "channel": 3,
      "note": 50,
      "start": 57.6095,
      "duration": 0.1924,
      "velocity": 114,
      "chip": "ym2612"
    },
    {
      "channel": 4,
      "note": 38,
      "start": 57.6105,
      "duration": 0.1924,
      "velocity": 110,
      "chip": "ym2612"
    },
    {
      "channel": 2,
      "note": 27,
      "start": 57.637,
      "duration": 0.1621,
      "velocity": 127,
      "chip": "ym2612"
    },
    {
      "channel": 0,
      "note": 73,
      "start": 57.6998,
      "duration": 0.0962,
      "velocity": 123,
      "chip": "ym2612"
    },
    {
      "channel": 0,
      "note": 69,
      "start": 57.7962,
      "duration": 0.0961,
      "velocity": 123,
      "chip": "ym2612"
    },
    {
      "channel": 2,
      "note": 59,
      "start": 57.7994,
      "duration": 0.0301,
      "velocity": 127,
      "chip": "ym2612"
    },
    {
      "channel": 3,
      "note": 50,
      "start": 57.8021,
      "duration": 0.1926,
      "velocity": 114,
      "chip": "ym2612"
    },
    {
      "channel": 2,
      "note": 59,
      "start": 57.8297,
      "duration": 0.1614,
      "velocity": 123,
      "chip": "ym2612"
    },
    {
      "channel": 0,
      "note": 73,
      "start": 57.8925,
      "duration": 0.096,
      "velocity": 123,
      "chip": "ym2612"
    },
    {
      "channel": 0,
      "note": 69,
      "start": 57.9888,
      "duration": 0.0961,
      "velocity": 123,
      "chip": "ym2612"
    },
    {
      "channel": 2,
      "note": 57,
      "start": 57.9913,
      "duration": 0.031,
      "velocity": 123,
      "chip": "ym2612"
    },
    {
      "channel": 3,
      "note": 50,
      "start": 57.9949,
      "duration": 0.1929,
      "velocity": 114,
      "chip": "ym2612"
    },
    {
      "channel": 4,
      "note": 38,
      "start": 57.9958,
      "duration": 0.1928,
      "velocity": 110,
      "chip": "ym2612"
    },
    {
      "channel": 2,
      "note": 57,
      "start": 58.0225,
      "duration": 0.0327,
      "velocity": 123,
      "chip": "ym2612"
    },
    {
      "channel": 2,
      "note": 57,
      "start": 58.0556,
      "duration": 0.0305,
      "velocity": 123,
      "chip": "ym2612"
    },
    {
      "channel": 0,
      "note": 73,
      "start": 58.085,
      "duration": 0.0962,
      "velocity": 123,
      "chip": "ym2612"
    },
    {
      "channel": 2,
      "note": 57,
      "start": 58.0863,
      "duration": 0.0322,
      "velocity": 123,
      "chip": "ym2612"
    },
    {
      "channel": 2,
      "note": 57,
      "start": 58.1188,
      "duration": 0.0306,
      "velocity": 123,
      "chip": "ym2612"
    },
    {
      "channel": 2,
      "note": 57,
      "start": 58.1496,
      "duration": 0.0349,
      "velocity": 127,
      "chip": "ym2612"
    },
    {
      "channel": 0,
      "note": 69,
      "start": 58.182,
      "duration": 0.0954,
      "velocity": 123,
      "chip": "ym2612"
    },
    {
      "channel": 2,
      "note": 64,
      "start": 58.1847,
      "duration": 0.0938,
      "velocity": 127,
      "chip": "ym2612"
    },
    {
      "channel": 3,
      "note": 50,
      "start": 58.1879,
      "duration": 0.1896,
      "velocity": 114,
      "chip": "ym2612"
    },
    {
      "channel": 4,
      "note": 38,
      "start": 58.1888,
      "duration": 0.1896,
      "velocity": 110,
      "chip": "ym2612"
    },
    {
      "channel": 0,
      "note": 73,
      "start": 58.2776,
      "duration": 0.0961,
      "velocity": 123,
      "chip": "ym2612"
    },
    {
      "channel": 2,
      "note": 64,
      "start": 58.2786,
      "duration": 0.0961,
      "velocity": 127,
      "chip": "ym2612"
    },
    {
      "channel": 0,
      "note": 69,
      "start": 58.374,
      "duration": 0.096,
      "velocity": 123,
      "chip": "ym2612"
    },
    {
      "channel": 2,
      "note": 64,
      "start": 58.3749,
      "duration": 0.096,
      "velocity": 127,
      "chip": "ym2612"
    },
    {
      "channel": 3,
      "note": 50,
      "start": 58.3778,
      "duration": 0.1929,
      "velocity": 114,
      "chip": "ym2612"
    },
    {
      "channel": 0,
      "note": 73,
      "start": 58.4702,
      "duration": 0.0933,
      "velocity": 123,
      "chip": "ym2612"
    },
    {
      "channel": 2,
      "note": 64,
      "start": 58.4712,
      "duration": 0.0959,
      "velocity": 107,
      "chip": "ym2612"
    },
    {
      "channel": 0,
      "note": 69,
      "start": 58.5637,
      "duration": 0.099,
      "velocity": 123,
      "chip": "ym2612"
    },
    {
      "channel": 1,
      "note": 31,
      "start": 58.5644,
      "duration": 2.9573,
      "velocity": 98,
      "chip": "ym2612"
    },
    {
      "channel": 2,
      "note": 26,
      "start": 58.5673,
      "duration": 0.0327,
      "velocity": 107,
      "chip": "ym2612"
    },
    {
      "channel": 3,
      "note": 50,
      "start": 58.5709,
      "duration": 0.1933,
      "velocity": 114,
      "chip": "ym2612"
    },
    {
      "channel": 4,
      "note": 38,
      "start": 58.5719,
      "duration": 0.1939,
      "velocity": 110,
      "chip": "ym2612"
    },
    {
      "channel": 2,
      "note": 26,
      "start": 58.6001,
      "duration": 0.1614,
      "velocity": 127,
      "chip": "ym2612"
    },
    {
      "channel": 0,
      "note": 73,
      "start": 58.6629,
      "duration": 0.0961,
      "velocity": 123,
      "chip": "ym2612"
    },
    {
      "channel": 0,
      "note": 69,
      "start": 58.7592,
      "duration": 0.0961,
      "velocity": 123,
      "chip": "ym2612"
    },
    {
      "channel": 2,
      "note": 59,
      "start": 58.7617,
      "duration": 0.1924,
      "velocity": 127,
      "chip": "ym2612"
    },
    {
      "channel": 3,
      "note": 50,
      "start": 58.7646,
      "duration": 0.1923,
      "velocity": 114,
      "chip": "ym2612"
    },
    {
      "channel": 0,
      "note": 73,
      "start": 58.8555,
      "duration": 0.0961,
      "velocity": 123,
      "chip": "ym2612"
    },
    {
      "channel": 5,
      "note": 31,
      "start": 58.8598,
      "duration": 2.9541,
      "velocity": 98,
      "chip": "ym2612"
    },
    {
      "channel": 0,
      "note": 69,
      "start": 58.9518,
      "duration": 0.0962,
      "velocity": 123,
      "chip": "ym2612"
    },
    {
      "channel": 2,
      "note": 59,
      "start": 58.9543,
      "duration": 0.0308,
      "velocity": 127,
      "chip": "ym2612"
    },
    {
      "channel": 3,
      "note": 50,
      "start": 58.9571,
      "duration": 0.1936,
      "velocity": 114,
      "chip": "ym2612"
    },
    {
      "channel": 2,
      "note": 59,
      "start": 58.9853,
      "duration": 0.1614,
      "velocity": 127,
      "chip": "ym2612"
    },
    {
      "channel": 0,
      "note": 73,
      "start": 59.0487,
      "duration": 0.0955,
      "velocity": 123,
      "chip": "ym2612"
    },
    {
      "channel": 0,
      "note": 69,
      "start": 59.1444,
      "duration": 0.0961,
      "velocity": 123,
      "chip": "ym2612"
    },
    {
      "channel": 2,
      "note": 64,
      "start": 59.1468,
      "duration": 0.1926,
      "velocity": 123,
      "chip": "ym2612"
    },
    {
      "channel": 3,
      "note": 50,
      "start": 59.1509,
      "duration": 0.1912,
      "velocity": 114,
      "chip": "ym2612"
    },
    {
      "channel": 4,
      "note": 38,
      "start": 59.1518,
      "duration": 0.1912,
      "velocity": 110,
      "chip": "ym2612"
    },
    {
      "channel": 0,
      "note": 73,
      "start": 59.2407,
      "duration": 0.0961,
      "velocity": 123,
      "chip": "ym2612"
    },
    {
      "channel": 0,
      "note": 69,
      "start": 59.337,
      "duration": 0.0961,
      "velocity": 123,
      "chip": "ym2612"
    },
    {
      "channel": 2,
      "note": 57,
      "start": 59.3396,
      "duration": 0.031,
      "velocity": 123,
      "chip": "ym2612"
    },
    {
      "channel": 3,
      "note": 50,
      "start": 59.3424,
      "duration": 0.1939,
      "velocity": 114,
      "chip": "ym2612"
    },
    {
      "channel": 2,
      "note": 57,
      "start": 59.3709,
      "duration": 0.0327,
      "velocity": 123,
      "chip": "ym2612"
    },
    {
      "channel": 2,
      "note": 57,
      "start": 59.4038,
      "duration": 0.0306,
      "velocity": 123,
      "chip": "ym2612"
    },
    {
      "channel": 0,
      "note": 73,
      "start": 59.4333,
      "duration": 0.0961,
      "velocity": 123,
      "chip": "ym2612"
    },
    {
      "channel": 2,
      "note": 57,
      "start": 59.4347,
      "duration": 0.0321,
      "velocity": 123,
      "chip": "ym2612"
    },
    {
      "channel": 2,
      "note": 57,
      "start": 59.4671,
      "duration": 0.03,
      "velocity": 123,
      "chip": "ym2612"
    },
    {
      "channel": 2,
      "note": 57,
      "start": 59.4973,
      "duration": 0.0355,
      "velocity": 127,
      "chip": "ym2612"
    },
    {
      "channel": 0,
      "note": 69,
      "start": 59.5296,
      "duration": 0.099,
      "velocity": 123,
      "chip": "ym2612"
    },
    {
      "channel": 2,
      "note": 59,
      "start": 59.533,
      "duration": 0.0333,
      "velocity": 127,
      "chip": "ym2612"
    },
    {
      "channel": 3,
      "note": 50,
      "start": 59.5365,
      "duration": 0.1913,
      "velocity": 114,
      "chip": "ym2612"
    },
    {
      "channel": 4,
      "note": 38,
      "start": 59.5373,
      "duration": 0.1914,
      "velocity": 110,
      "chip": "ym2612"
    },
    {
      "channel": 2,
      "note": 59,
      "start": 59.5664,
      "duration": 0.1581,
      "velocity": 127,
      "chip": "ym2612"
    },
    {
      "channel": 0,
      "note": 73,
      "start": 59.6288,
      "duration": 0.0933,
      "velocity": 123,
      "chip": "ym2612"
    },
    {
      "channel": 0,
      "note": 69,
      "start": 59.7223,
      "duration": 0.099,
      "velocity": 123,
      "chip": "ym2612"
    },
    {
      "channel": 2,
      "note": 66,
      "start": 59.7248,
      "duration": 0.0974,
      "velocity": 127,
      "chip": "ym2612"
    },
    {
      "channel": 3,
      "note": 50,
      "start": 59.728,
      "duration": 0.1912,
      "velocity": 114,
      "chip": "ym2612"
    },
    {
      "channel": 4,
      "note": 38,
      "start": 59.7289,
      "duration": 0.1912,
      "velocity": 110,
      "chip": "ym2612"
    },
    {
      "channel": 0,
      "note": 73,
      "start": 59.8215,
      "duration": 0.0939,
      "velocity": 123,
      "chip": "ym2612"
    },
    {
      "channel": 2,
      "note": 66,
      "start": 59.8225,
      "duration": 0.0939,
      "velocity": 127,
      "chip": "ym2612"
    },
    {
      "channel": 0,
      "note": 69,
      "start": 59.9156,
      "duration": 0.0983,
      "velocity": 123,
      "chip": "ym2612"
    },
    {
      "channel": 2,
      "note": 66,
      "start": 59.9166,
      "duration": 0.099,
      "velocity": 127,
      "chip": "ym2612"
    },
    {
      "channel": 3,
      "note": 50,
      "start": 59.9194,
      "duration": 0.1933,
      "velocity": 114,
      "chip": "ym2612"
    },
    {
      "channel": 0,
      "note": 73,
      "start": 60.0141,
      "duration": 0.0933,
      "velocity": 123,
      "chip": "ym2612"
    },
    {
      "channel": 2,
      "note": 66,
      "start": 60.0157,
      "duration": 0.0941,
      "velocity": 123,
      "chip": "ym2612"
    },
    {
      "channel": 0,
      "note": 69,
      "start": 60.1076,
      "duration": 0.0989,
      "velocity": 123,
      "chip": "ym2612"
    },
    {
      "channel": 2,
      "note": 68,
      "start": 60.1101,
      "duration": 0.0974,
      "velocity": 123,
      "chip": "ym2612"
    },
    {
      "channel": 3,
      "note": 50,
      "start": 60.1129,
      "duration": 0.1931,
      "velocity": 114,
      "chip": "ym2612"
    },
    {
      "channel": 0,
      "note": 73,
      "start": 60.2067,
      "duration": 0.0933,
      "velocity": 123,
      "chip": "ym2612"
    },
    {
      "channel": 2,
      "note": 68,
      "start": 60.2077,
      "duration": 0.0948,
      "velocity": 107,
      "chip": "ym2612"
    },
    {
      "channel": 0,
      "note": 69,
      "start": 60.3002,
      "duration": 0.099,
      "velocity": 123,
      "chip": "ym2612"
    },
    {
      "channel": 2,
      "note": 30,
      "start": 60.3027,
      "duration": 0.0336,
      "velocity": 107,
      "chip": "ym2612"
    },
    {
      "channel": 3,
      "note": 50,
      "start": 60.3062,
      "duration": 0.1917,
      "velocity": 114,
      "chip": "ym2612"
    },
    {
      "channel": 4,
      "note": 38,
      "start": 60.3071,
      "duration": 0.1923,
      "velocity": 110,
      "chip": "ym2612"
    },
    {
      "channel": 2,
      "note": 30,
      "start": 60.3365,
      "duration": 0.1585,
      "velocity": 123,
      "chip": "ym2612"
    },
    {
      "channel": 0,
      "note": 73,
      "start": 60.3994,
      "duration": 0.0932,
      "velocity": 123,
      "chip": "ym2612"
    },
    {
      "channel": 0,
      "note": 69,
      "start": 60.4928,
      "duration": 0.0989,
      "velocity": 123,
      "chip": "ym2612"
    },
    {
      "channel": 2,
      "note": 59,
      "start": 60.4953,
      "duration": 0.0974,
      "velocity": 123,
      "chip": "ym2612"
    },
    {
      "channel": 3,
      "note": 50,
      "start": 60.4987,
      "duration": 0.1925,
      "velocity": 114,
      "chip": "ym2612"
    },
    {
      "channel": 0,
      "note": 73,
      "start": 60.5919,
      "duration": 0.0933,
      "velocity": 123,
      "chip": "ym2612"
    },
    {
      "channel": 2,
      "note": 59,
      "start": 60.5929,
      "duration": 0.0948,
      "velocity": 107,
      "chip": "ym2612"
    },
    {
      "channel": 0,
      "note": 69,
      "start": 60.6854,
      "duration": 0.0989,
      "velocity": 123,
      "chip": "ym2612"
    },
    {
      "channel": 2,
      "note": 27,
      "start": 60.6879,
      "duration": 0.0337,
      "velocity": 107,
      "chip": "ym2612"
    },
    {
      "channel": 3,
      "note": 50,
      "start": 60.6914,
      "duration": 0.1924,
      "velocity": 114,
      "chip": "ym2612"
    },
    {
      "channel": 4,
      "note": 38,
      "start": 60.6923,
      "duration": 0.1924,
      "velocity": 110,
      "chip": "ym2612"
    },
    {
      "channel": 2,
      "note": 27,
      "start": 60.7217,
      "duration": 0.1587,
      "velocity": 127,
      "chip": "ym2612"
    },
    {
      "channel": 0,
      "note": 73,
      "start": 60.7845,
      "duration": 0.0933,
      "velocity": 123,
      "chip": "ym2612"
    },
    {
      "channel": 0,
      "note": 69,
      "start": 60.878,
      "duration": 0.0989,
      "velocity": 123,
      "chip": "ym2612"
    },
    {
      "channel": 2,
      "note": 59,
      "start": 60.8805,
      "duration": 0.0336,
      "velocity": 127,
      "chip": "ym2612"
    },
    {
      "channel": 3,
      "note": 50,
      "start": 60.884,
      "duration": 0.1926,
      "velocity": 114,
      "chip": "ym2612"
    },
    {
      "channel": 2,
      "note": 59,
      "start": 60.9143,
      "duration": 0.1587,
      "velocity": 123,
      "chip": "ym2612"
    },
    {
      "channel": 0,
      "note": 73,
      "start": 60.9771,
      "duration": 0.0933,
      "velocity": 123,
      "chip": "ym2612"
    },
    {
      "channel": 0,
      "note": 69,
      "start": 61.0707,
      "duration": 0.0989,
      "velocity": 123,
      "chip": "ym2612"
    },
    {
      "channel": 2,
      "note": 57,
      "start": 61.0732,
      "duration": 0.0338,
      "velocity": 123,
      "chip": "ym2612"
    },
    {
      "channel": 3,
      "note": 50,
      "start": 61.0768,
      "duration": 0.1928,
      "velocity": 114,
      "chip": "ym2612"
    },
    {
      "channel": 4,
      "note": 38,
      "start": 61.0777,
      "duration": 0.1927,
      "velocity": 110,
      "chip": "ym2612"
    },
    {
      "channel": 2,
      "note": 57,
      "start": 61.1072,
      "duration": 0.03,
      "velocity": 123,
      "chip": "ym2612"
    },
    {
      "channel": 2,
      "note": 57,
      "start": 61.1374,
      "duration": 0.0334,
      "velocity": 123,
      "chip": "ym2612"
    },
    {
      "channel": 0,
      "note": 73,
      "start": 61.1697,
      "duration": 0.0933,
      "velocity": 123,
      "chip": "ym2612"
    },
    {
      "channel": 2,
      "note": 57,
      "start": 61.1711,
      "duration": 0.0293,
      "velocity": 123,
      "chip": "ym2612"
    },
    {
      "channel": 2,
      "note": 57,
      "start": 61.2007,
      "duration": 0.0328,
      "velocity": 123,
      "chip": "ym2612"
    },
    {
      "channel": 2,
      "note": 57,
      "start": 61.2337,
      "duration": 0.0327,
      "velocity": 127,
      "chip": "ym2612"
    },
    {
      "channel": 0,
      "note": 69,
      "start": 61.2632,
      "duration": 0.099,
      "velocity": 123,
      "chip": "ym2612"
    },
    {
      "channel": 2,
      "note": 64,
      "start": 61.2666,
      "duration": 0.0966,
      "velocity": 127,
      "chip": "ym2612"
    },
    {
      "channel": 3,
      "note": 50,
      "start": 61.2698,
      "duration": 0.1896,
      "velocity": 114,
      "chip": "ym2612"
    },
    {
      "channel": 4,
      "note": 38,
      "start": 61.2707,
      "duration": 0.1896,
      "velocity": 110,
      "chip": "ym2612"
    },
    {
      "channel": 0,
      "note": 73,
      "start": 61.3624,
      "duration": 0.0932,
      "velocity": 123,
      "chip": "ym2612"
    },
    {
      "channel": 2,
      "note": 64,
      "start": 61.3634,
      "duration": 0.0932,
      "velocity": 127,
      "chip": "ym2612"
    },
    {
      "channel": 0,
      "note": 69,
      "start": 61.4559,
      "duration": 0.0959,
      "velocity": 123,
      "chip": "ym2612"
    },
    {
      "channel": 2,
      "note": 64,
      "start": 61.4568,
      "duration": 0.096,
      "velocity": 127,
      "chip": "ym2612"
    },
    {
      "channel": 3,
      "note": 50,
      "start": 61.4597,
      "duration": 0.1967,
      "velocity": 114,
      "chip": "ym2612"
    },
    {
      "channel": 0,
      "note": 73,
      "start": 61.552,
      "duration": 0.0969,
      "velocity": 123,
      "chip": "ym2612"
    },
    {
      "channel": 2,
      "note": 64,
      "start": 61.553,
      "duration": 0.0991,
      "velocity": 107,
      "chip": "ym2612"
    },
    {
      "channel": 0,
      "note": 69,
      "start": 61.649,
      "duration": 0.0983,
      "velocity": 123,
      "chip": "ym2612"
    },
    {
      "channel": 1,
      "note": 27,
      "start": 61.6501,
      "duration": 2.9535,
      "velocity": 98,
      "chip": "ym2612"
    },
    {
      "channel": 2,
      "note": 26,
      "start": 61.6523,
      "duration": 0.0323,
      "velocity": 107,
      "chip": "ym2612"
    },
    {
      "channel": 3,
      "note": 51,
      "start": 61.6566,
      "duration": 0.1896,
      "velocity": 114,
      "chip": "ym2612"
    },
    {
      "channel": 4,
      "note": 39,
      "start": 61.6578,
      "duration": 0.1893,
      "velocity": 110,
      "chip": "ym2612"
    },
    {
      "channel": 2,
      "note": 26,
      "start": 61.6847,
      "duration": 0.1587,
      "velocity": 127,
      "chip": "ym2612"
    },
    {
      "channel": 0,
      "note": 73,
      "start": 61.7476,
      "duration": 0.0933,
      "velocity": 123,
      "chip": "ym2612"
    },
    {
      "channel": 0,
      "note": 69,
      "start": 61.8411,
      "duration": 0.0988,
      "velocity": 123,
      "chip": "ym2612"
    },
    {
      "channel": 2,
      "note": 59,
      "start": 61.8437,
      "duration": 0.1922,
      "velocity": 127,
      "chip": "ym2612"
    },
    {
      "channel": 3,
      "note": 51,
      "start": 61.8464,
      "duration": 0.1923,
      "velocity": 114,
      "chip": "ym2612"
    },
    {
      "channel": 0,
      "note": 73,
      "start": 61.9402,
      "duration": 0.0932,
      "velocity": 123,
      "chip": "ym2612"
    },
    {
      "channel": 5,
      "note": 27,
      "start": 61.945,
      "duration": 2.9507,
      "velocity": 98,
      "chip": "ym2612"
    },
    {
      "channel": 0,
      "note": 69,
      "start": 62.0337,
      "duration": 0.0989,
      "velocity": 123,
      "chip": "ym2612"
    },
    {
      "channel": 2,
      "note": 59,
      "start": 62.0361,
      "duration": 0.0337,
      "velocity": 127,
      "chip": "ym2612"
    },
    {
      "channel": 3,
      "note": 51,
      "start": 62.0389,
      "duration": 0.1937,
      "velocity": 114,
      "chip": "ym2612"
    },
    {
      "channel": 2,
      "note": 59,
      "start": 62.07,
      "duration": 0.1585,
      "velocity": 127,
      "chip": "ym2612"
    },
    {
      "channel": 0,
      "note": 73,
      "start": 62.1328,
      "duration": 0.0933,
      "velocity": 123,
      "chip": "ym2612"
    },
    {
      "channel": 0,
      "note": 69,
      "start": 62.2263,
      "duration": 0.0989,
      "velocity": 123,
      "chip": "ym2612"
    },
    {
      "channel": 2,
      "note": 64,
      "start": 62.2287,
      "duration": 0.1925,
      "velocity": 123,
      "chip": "ym2612"
    },
    {
      "channel": 3,
      "note": 51,
      "start": 62.2328,
      "duration": 0.1912,
      "velocity": 114,
      "chip": "ym2612"
    },
    {
      "channel": 4,
      "note": 39,
      "start": 62.2337,
      "duration": 0.1912,
      "velocity": 110,
      "chip": "ym2612"
    },
    {
      "channel": 0,
      "note": 73,
      "start": 62.3254,
      "duration": 0.0933,
      "velocity": 123,
      "chip": "ym2612"
    },
    {
      "channel": 0,
      "note": 69,
      "start": 62.4189,
      "duration": 0.0988,
      "velocity": 123,
      "chip": "ym2612"
    },
    {
      "channel": 2,
      "note": 57,
      "start": 62.4215,
      "duration": 0.0338,
      "velocity": 123,
      "chip": "ym2612"
    },
    {
      "channel": 3,
      "note": 51,
      "start": 62.4242,
      "duration": 0.1939,
      "velocity": 114,
      "chip": "ym2612"
    },
    {
      "channel": 2,
      "note": 57,
      "start": 62.4556,
      "duration": 0.03,
      "velocity": 123,
      "chip": "ym2612"
    },
    {
      "channel": 2,
      "note": 57,
      "start": 62.4858,
      "duration": 0.0333,
      "velocity": 123,
      "chip": "ym2612"
    },
    {
      "channel": 0,
      "note": 73,
      "start": 62.518,
      "duration": 0.0933,
      "velocity": 123,
      "chip": "ym2612"
    },
    {
      "channel": 2,
      "note": 57,
      "start": 62.5193,
      "duration": 0.0301,
      "velocity": 123,
      "chip": "ym2612"
    },
    {
      "channel": 2,
      "note": 57,
      "start": 62.5496,
      "duration": 0.0327,
      "velocity": 123,
      "chip": "ym2612"
    },
    {
      "channel": 2,
      "note": 57,
      "start": 62.5826,
      "duration": 0.0314,
      "velocity": 127,
      "chip": "ym2612"
    },
    {
      "channel": 0,
      "note": 69,
      "start": 62.6115,
      "duration": 0.099,
      "velocity": 123,
      "chip": "ym2612"
    },
    {
      "channel": 2,
      "note": 59,
      "start": 62.6143,
      "duration": 0.0335,
      "velocity": 127,
      "chip": "ym2612"
    },
    {
      "channel": 3,
      "note": 51,
      "start": 62.6184,
      "duration": 0.1941,
      "velocity": 114,
      "chip": "ym2612"
    },
    {
      "channel": 4,
      "note": 39,
      "start": 62.6193,
      "duration": 0.1941,
      "velocity": 110,
      "chip": "ym2612"
    },
    {
      "channel": 2,
      "note": 59,
      "start": 62.6482,
      "duration": 0.1611,
      "velocity": 127,
      "chip": "ym2612"
    },
    {
      "channel": 0,
      "note": 73,
      "start": 62.7107,
      "duration": 0.0961,
      "velocity": 123,
      "chip": "ym2612"
    },
    {
      "channel": 0,
      "note": 69,
      "start": 62.807,
      "duration": 0.0961,
      "velocity": 123,
      "chip": "ym2612"
    },
    {
      "channel": 2,
      "note": 66,
      "start": 62.8095,
      "duration": 0.0946,
      "velocity": 127,
      "chip": "ym2612"
    },
    {
      "channel": 3,
      "note": 51,
      "start": 62.8127,
      "duration": 0.1905,
      "velocity": 114,
      "chip": "ym2612"
    },
    {
      "channel": 4,
      "note": 39,
      "start": 62.8136,
      "duration": 0.1905,
      "velocity": 110,
      "chip": "ym2612"
    },
    {
      "channel": 0,
      "note": 73,
      "start": 62.9033,
      "duration": 0.0961,
      "velocity": 123,
      "chip": "ym2612"
    },
    {
      "channel": 2,
      "note": 66,
      "start": 62.9043,
      "duration": 0.0961,
      "velocity": 127,
      "chip": "ym2612"
    },
    {
      "channel": 0,
      "note": 69,
      "start": 62.9996,
      "duration": 0.096,
      "velocity": 123,
      "chip": "ym2612"
    },
    {
      "channel": 2,
      "note": 66,
      "start": 63.0007,
      "duration": 0.096,
      "velocity": 127,
      "chip": "ym2612"
    },
    {
      "channel": 3,
      "note": 51,
      "start": 63.0034,
      "duration": 0.191,
      "velocity": 114,
      "chip": "ym2612"
    },
    {
      "channel": 0,
      "note": 73,
      "start": 63.0958,
      "duration": 0.0934,
      "velocity": 123,
      "chip": "ym2612"
    },
    {
      "channel": 2,
      "note": 66,
      "start": 63.0968,
      "duration": 0.0948,
      "velocity": 123,
      "chip": "ym2612"
    },
    {
      "channel": 0,
      "note": 69,
      "start": 63.1894,
      "duration": 0.0989,
      "velocity": 123,
      "chip": "ym2612"
    },
    {
      "channel": 2,
      "note": 68,
      "start": 63.1919,
      "duration": 0.0974,
      "velocity": 123,
      "chip": "ym2612"
    },
    {
      "channel": 3,
      "note": 51,
      "start": 63.1947,
      "duration": 0.1938,
      "velocity": 114,
      "chip": "ym2612"
    },
    {
      "channel": 0,
      "note": 73,
      "start": 63.2884,
      "duration": 0.094,
      "velocity": 123,
      "chip": "ym2612"
    },
    {
      "channel": 2,
      "note": 68,
      "start": 63.2895,
      "duration": 0.0955,
      "velocity": 107,
      "chip": "ym2612"
    },
    {
      "channel": 0,
      "note": 69,
      "start": 63.3827,
      "duration": 0.0983,
      "velocity": 123,
      "chip": "ym2612"
    },
    {
      "channel": 2,
      "note": 30,
      "start": 63.3851,
      "duration": 0.033,
      "velocity": 107,
      "chip": "ym2612"
    },
    {
      "channel": 3,
      "note": 51,
      "start": 63.3886,
      "duration": 0.1946,
      "velocity": 114,
      "chip": "ym2612"
    },
    {
      "channel": 4,
      "note": 39,
      "start": 63.3895,
      "duration": 0.1946,
      "velocity": 110,
      "chip": "ym2612"
    },
    {
      "channel": 2,
      "note": 30,
      "start": 63.4183,
      "duration": 0.1615,
      "velocity": 123,
      "chip": "ym2612"
    },
    {
      "channel": 0,
      "note": 73,
      "start": 63.4812,
      "duration": 0.096,
      "velocity": 123,
      "chip": "ym2612"
    },
    {
      "channel": 0,
      "note": 69,
      "start": 63.5775,
      "duration": 0.0961,
      "velocity": 123,
      "chip": "ym2612"
    },
    {
      "channel": 2,
      "note": 59,
      "start": 63.58,
      "duration": 0.0946,
      "velocity": 123,
      "chip": "ym2612"
    },
    {
      "channel": 3,
      "note": 51,
      "start": 63.5834,
      "duration": 0.1925,
      "velocity": 114,
      "chip": "ym2612"
    },
    {
      "channel": 0,
      "note": 73,
      "start": 63.6737,
      "duration": 0.0961,
      "velocity": 123,
      "chip": "ym2612"
    },
    {
      "channel": 2,
      "note": 59,
      "start": 63.6748,
      "duration": 0.0976,
      "velocity": 107,
      "chip": "ym2612"
    },
    {
      "channel": 0,
      "note": 69,
      "start": 63.7701,
      "duration": 0.0961,
      "velocity": 123,
      "chip": "ym2612"
    },
    {
      "channel": 2,
      "note": 27,
      "start": 63.7726,
      "duration": 0.0307,
      "velocity": 107,
      "chip": "ym2612"
    },
    {
      "channel": 3,
      "note": 51,
      "start": 63.7761,
      "duration": 0.1923,
      "velocity": 114,
      "chip": "ym2612"
    },
    {
      "channel": 4,
      "note": 39,
      "start": 63.7771,
      "duration": 0.1923,
      "velocity": 110,
      "chip": "ym2612"
    },
    {
      "channel": 2,
      "note": 27,
      "start": 63.8036,
      "duration": 0.1621,
      "velocity": 127,
      "chip": "ym2612"
    },
    {
      "channel": 0,
      "note": 73,
      "start": 63.8663,
      "duration": 0.0961,
      "velocity": 123,
      "chip": "ym2612"
    },
    {
      "channel": 0,
      "note": 69,
      "start": 63.9627,
      "duration": 0.0961,
      "velocity": 123,
      "chip": "ym2612"
    },
    {
      "channel": 2,
      "note": 59,
      "start": 63.9659,
      "duration": 0.0301,
      "velocity": 127,
      "chip": "ym2612"
    },
    {
      "channel": 3,
      "note": 51,
      "start": 63.9686,
      "duration": 0.1926,
      "velocity": 114,
      "chip": "ym2612"
    },
    {
      "channel": 2,
      "note": 59,
      "start": 63.9963,
      "duration": 0.1614,
      "velocity": 123,
      "chip": "ym2612"
    },
    {
      "channel": 0,
      "note": 73,
      "start": 64.059,
      "duration": 0.0961,
      "velocity": 123,
      "chip": "ym2612"
    },
    {
      "channel": 0,
      "note": 69,
      "start": 64.1553,
      "duration": 0.0961,
      "velocity": 123,
      "chip": "ym2612"
    },
    {
      "channel": 2,
      "note": 57,
      "start": 64.1579,
      "duration": 0.031,
      "velocity": 123,
      "chip": "ym2612"
    },
    {
      "channel": 3,
      "note": 51,
      "start": 64.1615,
      "duration": 0.1929,
      "velocity": 114,
      "chip": "ym2612"
    },
    {
      "channel": 4,
      "note": 39,
      "start": 64.1624,
      "duration": 0.1928,
      "velocity": 110,
      "chip": "ym2612"
    },
    {
      "channel": 2,
      "note": 57,
      "start": 64.1891,
      "duration": 0.0328,
      "velocity": 123,
      "chip": "ym2612"
    },
    {
      "channel": 2,
      "note": 57,
      "start": 64.2221,
      "duration": 0.0305,
      "velocity": 123,
      "chip": "ym2612"
    },
    {
      "channel": 0,
      "note": 73,
      "start": 64.2516,
      "duration": 0.0961,
      "velocity": 123,
      "chip": "ym2612"
    },
    {
      "channel": 2,
      "note": 57,
      "start": 64.2529,
      "duration": 0.0322,
      "velocity": 123,
      "chip": "ym2612"
    },
    {
      "channel": 2,
      "note": 57,
      "start": 64.2853,
      "duration": 0.0307,
      "velocity": 123,
      "chip": "ym2612"
    },
    {
      "channel": 2,
      "note": 57,
      "start": 64.3162,
      "duration": 0.0349,
      "velocity": 127,
      "chip": "ym2612"
    },
    {
      "channel": 0,
      "note": 69,
      "start": 64.3486,
      "duration": 0.0954,
      "velocity": 123,
      "chip": "ym2612"
    },
    {
      "channel": 2,
      "note": 64,
      "start": 64.3513,
      "duration": 0.0937,
      "velocity": 127,
      "chip": "ym2612"
    },
    {
      "channel": 3,
      "note": 51,
      "start": 64.3545,
      "duration": 0.1896,
      "velocity": 114,
      "chip": "ym2612"
    },
    {
      "channel": 4,
      "note": 39,
      "start": 64.3554,
      "duration": 0.1896,
      "velocity": 110,
      "chip": "ym2612"
    },
    {
      "channel": 0,
      "note": 73,
      "start": 64.4442,
      "duration": 0.0961,
      "velocity": 123,
      "chip": "ym2612"
    },
    {
      "channel": 2,
      "note": 64,
      "start": 64.4452,
      "duration": 0.0961,
      "velocity": 127,
      "chip": "ym2612"
    },
    {
      "channel": 0,
      "note": 69,
      "start": 64.5405,
      "duration": 0.096,
      "velocity": 123,
      "chip": "ym2612"
    },
    {
      "channel": 2,
      "note": 64,
      "start": 64.5415,
      "duration": 0.096,
      "velocity": 127,
      "chip": "ym2612"
    },
    {
      "channel": 3,
      "note": 51,
      "start": 64.5444,
      "duration": 0.1929,
      "velocity": 114,
      "chip": "ym2612"
    },
    {
      "channel": 0,
      "note": 73,
      "start": 64.6367,
      "duration": 0.0933,
      "velocity": 123,
      "chip": "ym2612"
    },
    {
      "channel": 2,
      "note": 64,
      "start": 64.6377,
      "duration": 0.0959,
      "velocity": 107,
      "chip": "ym2612"
    },
    {
      "channel": 0,
      "note": 69,
      "start": 64.7303,
      "duration": 0.099,
      "velocity": 123,
      "chip": "ym2612"
    },
    {
      "channel": 1,
      "note": 29,
      "start": 64.7309,
      "duration": 2.9573,
      "velocity": 98,
      "chip": "ym2612"
    },
    {
      "channel": 2,
      "note": 26,
      "start": 64.7339,
      "duration": 0.0326,
      "velocity": 107,
      "chip": "ym2612"
    },
    {
      "channel": 3,
      "note": 51,
      "start": 64.7375,
      "duration": 0.1933,
      "velocity": 114,
      "chip": "ym2612"
    },
    {
      "channel": 4,
      "note": 39,
      "start": 64.7384,
      "duration": 0.1939,
      "velocity": 110,
      "chip": "ym2612"
    },
    {
      "channel": 2,
      "note": 26,
      "start": 64.7667,
      "duration": 0.1614,
      "velocity": 127,
      "chip": "ym2612"
    },
    {
      "channel": 0,
      "note": 73,
      "start": 64.8295,
      "duration": 0.0961,
      "velocity": 123,
      "chip": "ym2612"
    },
    {
      "channel": 0,
      "note": 69,
      "start": 64.9258,
      "duration": 0.0961,
      "velocity": 123,
      "chip": "ym2612"
    },
    {
      "channel": 2,
      "note": 59,
      "start": 64.9283,
      "duration": 0.1924,
      "velocity": 127,
      "chip": "ym2612"
    },
    {
      "channel": 3,
      "note": 51,
      "start": 64.9311,
      "duration": 0.1924,
      "velocity": 114,
      "chip": "ym2612"
    },
    {
      "channel": 0,
      "note": 73,
      "start": 65.022,
      "duration": 0.0961,
      "velocity": 123,
      "chip": "ym2612"
    },
    {
      "channel": 5,
      "note": 29,
      "start": 65.0263,
      "duration": 2.954,
      "velocity": 98,
      "chip": "ym2612"
    },
    {
      "channel": 0,
      "note": 69,
      "start": 65.1183,
      "duration": 0.0962,
      "velocity": 123,
      "chip": "ym2612"
    },
    {
      "channel": 2,
      "note": 59,
      "start": 65.1208,
      "duration": 0.0308,
      "velocity": 127,
      "chip": "ym2612"
    },
    {
      "channel": 3,
      "note": 51,
      "start": 65.1237,
      "duration": 0.1936,
      "velocity": 114,
      "chip": "ym2612"
    },
    {
      "channel": 2,
      "note": 59,
      "start": 65.1519,
      "duration": 0.1613,
      "velocity": 127,
      "chip": "ym2612"
    },
    {
      "channel": 0,
      "note": 73,
      "start": 65.2153,
      "duration": 0.0955,
      "velocity": 123,
      "chip": "ym2612"
    },
    {
      "channel": 0,
      "note": 69,
      "start": 65.311,
      "duration": 0.0961,
      "velocity": 123,
      "chip": "ym2612"
    },
    {
      "channel": 2,
      "note": 64,
      "start": 65.3134,
      "duration": 0.1926,
      "velocity": 123,
      "chip": "ym2612"
    },
    {
      "channel": 3,
      "note": 51,
      "start": 65.3174,
      "duration": 0.1914,
      "velocity": 114,
      "chip": "ym2612"
    },
    {
      "channel": 4,
      "note": 39,
      "start": 65.3183,
      "duration": 0.1914,
      "velocity": 110,
      "chip": "ym2612"
    },
    {
      "channel": 0,
      "note": 73,
      "start": 65.4073,
      "duration": 0.0961,
      "velocity": 123,
      "chip": "ym2612"
    },
    {
      "channel": 0,
      "note": 69,
      "start": 65.5036,
      "duration": 0.0961,
      "velocity": 123,
      "chip": "ym2612"
    },
    {
      "channel": 2,
      "note": 57,
      "start": 65.5062,
      "duration": 0.031,
      "velocity": 123,
      "chip": "ym2612"
    },
    {
      "channel": 3,
      "note": 51,
      "start": 65.509,
      "duration": 0.1938,
      "velocity": 114,
      "chip": "ym2612"
    },
    {
      "channel": 2,
      "note": 57,
      "start": 65.5374,
      "duration": 0.0328,
      "velocity": 123,
      "chip": "ym2612"
    },
    {
      "channel": 2,
      "note": 57,
      "start": 65.5704,
      "duration": 0.0306,
      "velocity": 123,
      "chip": "ym2612"
    },
    {
      "channel": 0,
      "note": 73,
      "start": 65.6,
      "duration": 0.096,
      "velocity": 123,
      "chip": "ym2612"
    },
    {
      "channel": 2,
      "note": 57,
      "start": 65.6012,
      "duration": 0.0321,
      "velocity": 123,
      "chip": "ym2612"
    },
    {
      "channel": 2,
      "note": 57,
      "start": 65.6336,
      "duration": 0.03,
      "velocity": 123,
      "chip": "ym2612"
    },
    {
      "channel": 2,
      "note": 57,
      "start": 65.6639,
      "duration": 0.0354,
      "velocity": 127,
      "chip": "ym2612"
    },
    {
      "channel": 0,
      "note": 69,
      "start": 65.6962,
      "duration": 0.099,
      "velocity": 123,
      "chip": "ym2612"
    },
    {
      "channel": 2,
      "note": 59,
      "start": 65.6995,
      "duration": 0.0334,
      "velocity": 127,
      "chip": "ym2612"
    },
    {
      "channel": 3,
      "note": 51,
      "start": 65.703,
      "duration": 0.1914,
      "velocity": 114,
      "chip": "ym2612"
    },
    {
      "channel": 4,
      "note": 39,
      "start": 65.7039,
      "duration": 0.1913,
      "velocity": 110,
      "chip": "ym2612"
    },
    {
      "channel": 2,
      "note": 59,
      "start": 65.7331,
      "duration": 0.1581,
      "velocity": 127,
      "chip": "ym2612"
    },
    {
      "channel": 0,
      "note": 73,
      "start": 65.7954,
      "duration": 0.0933,
      "velocity": 123,
      "chip": "ym2612"
    },
    {
      "channel": 0,
      "note": 69,
      "start": 65.8889,
      "duration": 0.0989,
      "velocity": 123,
      "chip": "ym2612"
    },
    {
      "channel": 2,
      "note": 66,
      "start": 65.8914,
      "duration": 0.0975,
      "velocity": 127,
      "chip": "ym2612"
    },
    {
      "channel": 3,
      "note": 51,
      "start": 65.8946,
      "duration": 0.1912,
      "velocity": 114,
      "chip": "ym2612"
    },
    {
      "channel": 4,
      "note": 39,
      "start": 65.8955,
      "duration": 0.1912,
      "velocity": 110,
      "chip": "ym2612"
    },
    {
      "channel": 0,
      "note": 73,
      "start": 65.988,
      "duration": 0.0939,
      "velocity": 123,
      "chip": "ym2612"
    },
    {
      "channel": 2,
      "note": 66,
      "start": 65.989,
      "duration": 0.0939,
      "velocity": 127,
      "chip": "ym2612"
    },
    {
      "channel": 0,
      "note": 69,
      "start": 66.0821,
      "duration": 0.0983,
      "velocity": 123,
      "chip": "ym2612"
    },
    {
      "channel": 2,
      "note": 66,
      "start": 66.0832,
      "duration": 0.0989,
      "velocity": 127,
      "chip": "ym2612"
    },
    {
      "channel": 3,
      "note": 51,
      "start": 66.086,
      "duration": 0.1932,
      "velocity": 114,
      "chip": "ym2612"
    },
    {
      "channel": 0,
      "note": 73,
      "start": 66.1806,
      "duration": 0.0933,
      "velocity": 123,
      "chip": "ym2612"
    },
    {
      "channel": 2,
      "note": 66,
      "start": 66.1823,
      "duration": 0.0941,
      "velocity": 123,
      "chip": "ym2612"
    },
    {
      "channel": 0,
      "note": 69,
      "start": 66.2742,
      "duration": 0.0988,
      "velocity": 123,
      "chip": "ym2612"
    },
    {
      "channel": 2,
      "note": 68,
      "start": 66.2766,
      "duration": 0.0975,
      "velocity": 123,
      "chip": "ym2612"
    },
    {
      "channel": 3,
      "note": 51,
      "start": 66.2795,
      "duration": 0.1931,
      "velocity": 114,
      "chip": "ym2612"
    },
    {
      "channel": 0,
      "note": 73,
      "start": 66.3732,
      "duration": 0.0933,
      "velocity": 123,
      "chip": "ym2612"
    },
    {
      "channel": 2,
      "note": 68,
      "start": 66.3742,
      "duration": 0.0948,
      "velocity": 107,
      "chip": "ym2612"
    },
    {
      "channel": 0,
      "note": 69,
      "start": 66.4668,
      "duration": 0.099,
      "velocity": 123,
      "chip": "ym2612"
    },
    {
      "channel": 2,
      "note": 30,
      "start": 66.4693,
      "duration": 0.0335,
      "velocity": 107,
      "chip": "ym2612"
    },
    {
      "channel": 3,
      "note": 51,
      "start": 66.4728,
      "duration": 0.1916,
      "velocity": 114,
      "chip": "ym2612"
    },
    {
      "channel": 4,
      "note": 39,
      "start": 66.4737,
      "duration": 0.1923,
      "velocity": 110,
      "chip": "ym2612"
    },
    {
      "channel": 2,
      "note": 30,
      "start": 66.503,
      "duration": 0.1587,
      "velocity": 123,
      "chip": "ym2612"
    },
    {
      "channel": 0,
      "note": 73,
      "start": 66.566,
      "duration": 0.0931,
      "velocity": 123,
      "chip": "ym2612"
    },
    {
      "channel": 0,
      "note": 69,
      "start": 66.6593,
      "duration": 0.0989,
      "velocity": 123,
      "chip": "ym2612"
    },
    {
      "channel": 2,
      "note": 59,
      "start": 66.6618,
      "duration": 0.0974,
      "velocity": 123,
      "chip": "ym2612"
    },
    {
      "channel": 3,
      "note": 51,
      "start": 66.6653,
      "duration": 0.1925,
      "velocity": 114,
      "chip": "ym2612"
    },
    {
      "channel": 0,
      "note": 73,
      "start": 66.7585,
      "duration": 0.0932,
      "velocity": 123,
      "chip": "ym2612"
    },
    {
      "channel": 2,
      "note": 59,
      "start": 66.7594,
      "duration": 0.0948,
      "velocity": 107,
      "chip": "ym2612"
    },
    {
      "channel": 0,
      "note": 69,
      "start": 66.8519,
      "duration": 0.0989,
      "velocity": 123,
      "chip": "ym2612"
    },
    {
      "channel": 2,
      "note": 27,
      "start": 66.8544,
      "duration": 0.0337,
      "velocity": 107,
      "chip": "ym2612"
    },
    {
      "channel": 3,
      "note": 51,
      "start": 66.858,
      "duration": 0.1924,
      "velocity": 114,
      "chip": "ym2612"
    },
    {
      "channel": 4,
      "note": 39,
      "start": 66.8588,
      "duration": 0.1924,
      "velocity": 110,
      "chip": "ym2612"
    },
    {
      "channel": 2,
      "note": 27,
      "start": 66.8883,
      "duration": 0.1586,
      "velocity": 127,
      "chip": "ym2612"
    },
    {
      "channel": 0,
      "note": 73,
      "start": 66.9511,
      "duration": 0.0933,
      "velocity": 123,
      "chip": "ym2612"
    },
    {
      "channel": 0,
      "note": 69,
      "start": 67.0446,
      "duration": 0.0989,
      "velocity": 123,
      "chip": "ym2612"
    },
    {
      "channel": 2,
      "note": 59,
      "start": 67.0471,
      "duration": 0.0335,
      "velocity": 127,
      "chip": "ym2612"
    },
    {
      "channel": 3,
      "note": 51,
      "start": 67.0506,
      "duration": 0.1926,
      "velocity": 114,
      "chip": "ym2612"
    },
    {
      "channel": 2,
      "note": 59,
      "start": 67.0809,
      "duration": 0.1587,
      "velocity": 123,
      "chip": "ym2612"
    },
    {
      "channel": 0,
      "note": 73,
      "start": 67.1437,
      "duration": 0.0933,
      "velocity": 123,
      "chip": "ym2612"
    },
    {
      "channel": 0,
      "note": 69,
      "start": 67.2372,
      "duration": 0.0988,
      "velocity": 123,
      "chip": "ym2612"
    },
    {
      "channel": 2,
      "note": 57,
      "start": 67.2398,
      "duration": 0.0337,
      "velocity": 123,
      "chip": "ym2612"
    },
    {
      "channel": 3,
      "note": 51,
      "start": 67.2434,
      "duration": 0.1927,
      "velocity": 114,
      "chip": "ym2612"
    },
    {
      "channel": 4,
      "note": 39,
      "start": 67.2443,
      "duration": 0.1927,
      "velocity": 110,
      "chip": "ym2612"
    },
    {
      "channel": 2,
      "note": 57,
      "start": 67.2738,
      "duration": 0.03,
      "velocity": 123,
      "chip": "ym2612"
    },
    {
      "channel": 2,
      "note": 57,
      "start": 67.3039,
      "duration": 0.0334,
      "velocity": 123,
      "chip": "ym2612"
    },
    {
      "channel": 0,
      "note": 73,
      "start": 67.3363,
      "duration": 0.0932,
      "velocity": 123,
      "chip": "ym2612"
    },
    {
      "channel": 2,
      "note": 57,
      "start": 67.3376,
      "duration": 0.0295,
      "velocity": 123,
      "chip": "ym2612"
    },
    {
      "channel": 2,
      "note": 57,
      "start": 67.3672,
      "duration": 0.0328,
      "velocity": 123,
      "chip": "ym2612"
    },
    {
      "channel": 2,
      "note": 57,
      "start": 67.4002,
      "duration": 0.0327,
      "velocity": 127,
      "chip": "ym2612"
    },
    {
      "channel": 0,
      "note": 69,
      "start": 67.4298,
      "duration": 0.0989,
      "velocity": 123,
      "chip": "ym2612"
    },
    {
      "channel": 2,
      "note": 64,
      "start": 67.4332,
      "duration": 0.0965,
      "velocity": 127,
      "chip": "ym2612"
    },
    {
      "channel": 3,
      "note": 51,
      "start": 67.4363,
      "duration": 0.1896,
      "velocity": 114,
      "chip": "ym2612"
    },
    {
      "channel": 4,
      "note": 39,
      "start": 67.4372,
      "duration": 0.1896,
      "velocity": 110,
      "chip": "ym2612"
    },
    {
      "channel": 0,
      "note": 73,
      "start": 67.5289,
      "duration": 0.0933,
      "velocity": 123,
      "chip": "ym2612"
    },
    {
      "channel": 2,
      "note": 64,
      "start": 67.5299,
      "duration": 0.0933,
      "velocity": 127,
      "chip": "ym2612"
    },
    {
      "channel": 0,
      "note": 69,
      "start": 67.6224,
      "duration": 0.0959,
      "velocity": 123,
      "chip": "ym2612"
    },
    {
      "channel": 2,
      "note": 64,
      "start": 67.6234,
      "duration": 0.096,
      "velocity": 127,
      "chip": "ym2612"
    },
    {
      "channel": 3,
      "note": 51,
      "start": 67.6262,
      "duration": 0.196,
      "velocity": 114,
      "chip": "ym2612"
    },
    {
      "channel": 0,
      "note": 73,
      "start": 67.7186,
      "duration": 0.0968,
      "velocity": 123,
      "chip": "ym2612"
    },
    {
      "channel": 2,
      "note": 64,
      "start": 67.7195,
      "duration": 0.099,
      "velocity": 107,
      "chip": "ym2612"
    },
    {
      "channel": 0,
      "note": 69,
      "start": 67.8157,
      "duration": 0.0983,
      "velocity": 123,
      "chip": "ym2612"
    },
    {
      "channel": 1,
      "note": 30,
      "start": 67.8166,
      "duration": 2.9536,
      "velocity": 98,
      "chip": "ym2612"
    },
    {
      "channel": 2,
      "note": 26,
      "start": 67.8188,
      "duration": 0.0323,
      "velocity": 107,
      "chip": "ym2612"
    },
    {
      "channel": 3,
      "note": 51,
      "start": 67.8224,
      "duration": 0.1903,
      "velocity": 114,
      "chip": "ym2612"
    },
    {
      "channel": 4,
      "note": 39,
      "start": 67.8234,
      "duration": 0.1903,
      "velocity": 110,
      "chip": "ym2612"
    },
    {
      "channel": 2,
      "note": 26,
      "start": 67.8513,
      "duration": 0.1587,
      "velocity": 127,
      "chip": "ym2612"
    },
    {
      "channel": 0,
      "note": 73,
      "start": 67.9141,
      "duration": 0.0933,
      "velocity": 123,
      "chip": "ym2612"
    },
    {
      "channel": 0,
      "note": 69,
      "start": 68.0076,
      "duration": 0.0989,
      "velocity": 123,
      "chip": "ym2612"
    },
    {
      "channel": 2,
      "note": 59,
      "start": 68.0102,
      "duration": 0.1922,
      "velocity": 127,
      "chip": "ym2612"
    },
    {
      "channel": 3,
      "note": 51,
      "start": 68.013,
      "duration": 0.1923,
      "velocity": 114,
      "chip": "ym2612"
    },
    {
      "channel": 0,
      "note": 73,
      "start": 68.1068,
      "duration": 0.0932,
      "velocity": 123,
      "chip": "ym2612"
    },
    {
      "channel": 5,
      "note": 30,
      "start": 68.1112,
      "duration": 2.9511,
      "velocity": 98,
      "chip": "ym2612"
    },
    {
      "channel": 0,
      "note": 69,
      "start": 68.2002,
      "duration": 0.099,
      "velocity": 123,
      "chip": "ym2612"
    },
    {
      "channel": 2,
      "note": 59,
      "start": 68.2027,
      "duration": 0.0337,
      "velocity": 127,
      "chip": "ym2612"
    },
    {
      "channel": 3,
      "note": 51,
      "start": 68.2055,
      "duration": 0.1936,
      "velocity": 114,
      "chip": "ym2612"
    },
    {
      "channel": 2,
      "note": 59,
      "start": 68.2365,
      "duration": 0.1585,
      "velocity": 127,
      "chip": "ym2612"
    },
    {
      "channel": 0,
      "note": 73,
      "start": 68.2994,
      "duration": 0.0933,
      "velocity": 123,
      "chip": "ym2612"
    },
    {
      "channel": 0,
      "note": 69,
      "start": 68.3928,
      "duration": 0.0989,
      "velocity": 123,
      "chip": "ym2612"
    },
    {
      "channel": 2,
      "note": 64,
      "start": 68.3952,
      "duration": 0.1926,
      "velocity": 123,
      "chip": "ym2612"
    },
    {
      "channel": 3,
      "note": 51,
      "start": 68.3994,
      "duration": 0.1912,
      "velocity": 114,
      "chip": "ym2612"
    },
    {
      "channel": 4,
      "note": 39,
      "start": 68.4002,
      "duration": 0.1913,
      "velocity": 110,
      "chip": "ym2612"
    },
    {
      "channel": 0,
      "note": 73,
      "start": 68.4919,
      "duration": 0.0933,
      "velocity": 123,
      "chip": "ym2612"
    },
    {
      "channel": 0,
      "note": 69,
      "start": 68.5855,
      "duration": 0.0988,
      "velocity": 123,
      "chip": "ym2612"
    },
    {
      "channel": 2,
      "note": 57,
      "start": 68.588,
      "duration": 0.0338,
      "velocity": 123,
      "chip": "ym2612"
    },
    {
      "channel": 3,
      "note": 51,
      "start": 68.5909,
      "duration": 0.1939,
      "velocity": 114,
      "chip": "ym2612"
    },
    {
      "channel": 2,
      "note": 57,
      "start": 68.6221,
      "duration": 0.03,
      "velocity": 123,
      "chip": "ym2612"
    },
    {
      "channel": 2,
      "note": 57,
      "start": 68.6523,
      "duration": 0.0333,
      "velocity": 123,
      "chip": "ym2612"
    },
    {
      "channel": 0,
      "note": 73,
      "start": 68.6846,
      "duration": 0.0934,
      "velocity": 123,
      "chip": "ym2612"
    },
    {
      "channel": 2,
      "note": 57,
      "start": 68.6858,
      "duration": 0.0302,
      "velocity": 123,
      "chip": "ym2612"
    },
    {
      "channel": 2,
      "note": 57,
      "start": 68.7162,
      "duration": 0.0328,
      "velocity": 123,
      "chip": "ym2612"
    },
    {
      "channel": 2,
      "note": 57,
      "start": 68.7492,
      "duration": 0.0314,
      "velocity": 127,
      "chip": "ym2612"
    },
    {
      "channel": 0,
      "note": 69,
      "start": 68.7781,
      "duration": 0.0989,
      "velocity": 123,
      "chip": "ym2612"
    },
    {
      "channel": 2,
      "note": 59,
      "start": 68.7809,
      "duration": 0.0334,
      "velocity": 127,
      "chip": "ym2612"
    },
    {
      "channel": 3,
      "note": 51,
      "start": 68.785,
      "duration": 0.1941,
      "velocity": 114,
      "chip": "ym2612"
    },
    {
      "channel": 4,
      "note": 39,
      "start": 68.7859,
      "duration": 0.1941,
      "velocity": 110,
      "chip": "ym2612"
    },
    {
      "channel": 2,
      "note": 59,
      "start": 68.8145,
      "duration": 0.1614,
      "velocity": 127,
      "chip": "ym2612"
    },
    {
      "channel": 0,
      "note": 73,
      "start": 68.8772,
      "duration": 0.0961,
      "velocity": 123,
      "chip": "ym2612"
    },
    {
      "channel": 0,
      "note": 69,
      "start": 68.9736,
      "duration": 0.0961,
      "velocity": 123,
      "chip": "ym2612"
    },
    {
      "channel": 2,
      "note": 66,
      "start": 68.9761,
      "duration": 0.0945,
      "velocity": 127,
      "chip": "ym2612"
    },
    {
      "channel": 3,
      "note": 51,
      "start": 68.9793,
      "duration": 0.1905,
      "velocity": 114,
      "chip": "ym2612"
    },
    {
      "channel": 4,
      "note": 39,
      "start": 68.9802,
      "duration": 0.1905,
      "velocity": 110,
      "chip": "ym2612"
    },
    {
      "channel": 0,
      "note": 73,
      "start": 69.0699,
      "duration": 0.0961,
      "velocity": 123,
      "chip": "ym2612"
    },
    {
      "channel": 2,
      "note": 66,
      "start": 69.0709,
      "duration": 0.0961,
      "velocity": 127,
      "chip": "ym2612"
    },
    {
      "channel": 0,
      "note": 69,
      "start": 69.1662,
      "duration": 0.096,
      "velocity": 123,
      "chip": "ym2612"
    },
    {
      "channel": 2,
      "note": 66,
      "start": 69.1672,
      "duration": 0.096,
      "velocity": 127,
      "chip": "ym2612"
    },
    {
      "channel": 3,
      "note": 51,
      "start": 69.17,
      "duration": 0.191,
      "velocity": 114,
      "chip": "ym2612"
    },
    {
      "channel": 0,
      "note": 73,
      "start": 69.2624,
      "duration": 0.0933,
      "velocity": 123,
      "chip": "ym2612"
    },
    {
      "channel": 2,
      "note": 66,
      "start": 69.2634,
      "duration": 0.0948,
      "velocity": 123,
      "chip": "ym2612"
    },
    {
      "channel": 0,
      "note": 69,
      "start": 69.3559,
      "duration": 0.0989,
      "velocity": 123,
      "chip": "ym2612"
    },
    {
      "channel": 2,
      "note": 68,
      "start": 69.3584,
      "duration": 0.0974,
      "velocity": 123,
      "chip": "ym2612"
    },
    {
      "channel": 3,
      "note": 51,
      "start": 69.3612,
      "duration": 0.1938,
      "velocity": 114,
      "chip": "ym2612"
    },
    {
      "channel": 0,
      "note": 73,
      "start": 69.455,
      "duration": 0.094,
      "velocity": 123,
      "chip": "ym2612"
    },
    {
      "channel": 2,
      "note": 68,
      "start": 69.456,
      "duration": 0.0955,
      "velocity": 107,
      "chip": "ym2612"
    },
    {
      "channel": 0,
      "note": 69,
      "start": 69.5493,
      "duration": 0.0982,
      "velocity": 123,
      "chip": "ym2612"
    },
    {
      "channel": 2,
      "note": 30,
      "start": 69.5517,
      "duration": 0.0329,
      "velocity": 107,
      "chip": "ym2612"
    },
    {
      "channel": 3,
      "note": 51,
      "start": 69.5552,
      "duration": 0.1945,
      "velocity": 114,
      "chip": "ym2612"
    },
    {
      "channel": 4,
      "note": 39,
      "start": 69.5561,
      "duration": 0.1945,
      "velocity": 110,
      "chip": "ym2612"
    },
    {
      "channel": 2,
      "note": 30,
      "start": 69.5849,
      "duration": 0.1615,
      "velocity": 123,
      "chip": "ym2612"
    },
    {
      "channel": 0,
      "note": 73,
      "start": 69.6477,
      "duration": 0.0961,
      "velocity": 123,
      "chip": "ym2612"
    },
    {
      "channel": 0,
      "note": 69,
      "start": 69.744,
      "duration": 0.0961,
      "velocity": 123,
      "chip": "ym2612"
    },
    {
      "channel": 2,
      "note": 59,
      "start": 69.7466,
      "duration": 0.0945,
      "velocity": 123,
      "chip": "ym2612"
    },
    {
      "channel": 3,
      "note": 51,
      "start": 69.75,
      "duration": 0.1924,
      "velocity": 114,
      "chip": "ym2612"
    },
    {
      "channel": 0,
      "note": 73,
      "start": 69.8403,
      "duration": 0.0961,
      "velocity": 123,
      "chip": "ym2612"
    },
    {
      "channel": 2,
      "note": 59,
      "start": 69.8413,
      "duration": 0.0976,
      "velocity": 107,
      "chip": "ym2612"
    },
    {
      "channel": 0,
      "note": 69,
      "start": 69.9366,
      "duration": 0.0961,
      "velocity": 123,
      "chip": "ym2612"
    },
    {
      "channel": 2,
      "note": 27,
      "start": 69.9391,
      "duration": 0.0308,
      "velocity": 107,
      "chip": "ym2612"
    },
    {
      "channel": 3,
      "note": 51,
      "start": 69.9427,
      "duration": 0.1923,
      "velocity": 114,
      "chip": "ym2612"
    },
    {
      "channel": 4,
      "note": 39,
      "start": 69.9436,
      "duration": 0.1923,
      "velocity": 110,
      "chip": "ym2612"
    },
    {
      "channel": 2,
      "note": 27,
      "start": 69.9701,
      "duration": 0.1622,
      "velocity": 127,
      "chip": "ym2612"
    },
    {
      "channel": 0,
      "note": 73,
      "start": 70.0329,
      "duration": 0.0962,
      "velocity": 123,
      "chip": "ym2612"
    },
    {
      "channel": 0,
      "note": 69,
      "start": 70.1293,
      "duration": 0.0961,
      "velocity": 123,
      "chip": "ym2612"
    },
    {
      "channel": 2,
      "note": 59,
      "start": 70.1325,
      "duration": 0.0301,
      "velocity": 127,
      "chip": "ym2612"
    },
    {
      "channel": 3,
      "note": 51,
      "start": 70.1353,
      "duration": 0.1925,
      "velocity": 114,
      "chip": "ym2612"
    },
    {
      "channel": 2,
      "note": 59,
      "start": 70.1628,
      "duration": 0.1614,
      "velocity": 123,
      "chip": "ym2612"
    },
    {
      "channel": 0,
      "note": 73,
      "start": 70.2256,
      "duration": 0.0961,
      "velocity": 123,
      "chip": "ym2612"
    },
    {
      "channel": 0,
      "note": 69,
      "start": 70.3218,
      "duration": 0.0961,
      "velocity": 123,
      "chip": "ym2612"
    },
    {
      "channel": 2,
      "note": 57,
      "start": 70.3244,
      "duration": 0.031,
      "velocity": 123,
      "chip": "ym2612"
    },
    {
      "channel": 3,
      "note": 51,
      "start": 70.328,
      "duration": 0.1929,
      "velocity": 114,
      "chip": "ym2612"
    },
    {
      "channel": 4,
      "note": 39,
      "start": 70.3289,
      "duration": 0.1928,
      "velocity": 110,
      "chip": "ym2612"
    },
    {
      "channel": 2,
      "note": 57,
      "start": 70.3557,
      "duration": 0.0328,
      "velocity": 123,
      "chip": "ym2612"
    },
    {
      "channel": 2,
      "note": 57,
      "start": 70.3887,
      "duration": 0.0305,
      "velocity": 123,
      "chip": "ym2612"
    },
    {
      "channel": 0,
      "note": 73,
      "start": 70.4181,
      "duration": 0.0961,
      "velocity": 123,
      "chip": "ym2612"
    },
    {
      "channel": 2,
      "note": 57,
      "start": 70.4194,
      "duration": 0.0322,
      "velocity": 123,
      "chip": "ym2612"
    },
    {
      "channel": 2,
      "note": 57,
      "start": 70.4519,
      "duration": 0.0307,
      "velocity": 123,
      "chip": "ym2612"
    },
    {
      "channel": 2,
      "note": 57,
      "start": 70.4827,
      "duration": 0.0349,
      "velocity": 127,
      "chip": "ym2612"
    },
    {
      "channel": 0,
      "note": 69,
      "start": 70.5146,
      "duration": 0.0959,
      "velocity": 123,
      "chip": "ym2612"
    },
    {
      "channel": 2,
      "note": 64,
      "start": 70.5178,
      "duration": 0.0937,
      "velocity": 127,
      "chip": "ym2612"
    },
    {
      "channel": 3,
      "note": 51,
      "start": 70.5211,
      "duration": 0.1896,
      "velocity": 114,
      "chip": "ym2612"
    },
    {
      "channel": 4,
      "note": 39,
      "start": 70.522,
      "duration": 0.1896,
      "velocity": 110,
      "chip": "ym2612"
    },
    {
      "channel": 0,
      "note": 73,
      "start": 70.6108,
      "duration": 0.0961,
      "velocity": 123,
      "chip": "ym2612"
    },
    {
      "channel": 2,
      "note": 64,
      "start": 70.6117,
      "duration": 0.0962,
      "velocity": 127,
      "chip": "ym2612"
    },
    {
      "channel": 0,
      "note": 69,
      "start": 70.7071,
      "duration": 0.096,
      "velocity": 123,
      "chip": "ym2612"
    },
    {
      "channel": 2,
      "note": 64,
      "start": 70.7081,
      "duration": 0.096,
      "velocity": 127,
      "chip": "ym2612"
    },
    {
      "channel": 3,
      "note": 51,
      "start": 70.7109,
      "duration": 0.1929,
      "velocity": 114,
      "chip": "ym2612"
    },
    {
      "channel": 0,
      "note": 73,
      "start": 70.8033,
      "duration": 0.0933,
      "velocity": 123,
      "chip": "ym2612"
    },
    {
      "channel": 2,
      "note": 64,
      "start": 70.8043,
      "duration": 0.0959,
      "velocity": 107,
      "chip": "ym2612"
    },
    {
      "channel": 0,
      "note": 69,
      "start": 70.8968,
      "duration": 0.099,
      "velocity": 123,
      "chip": "ym2612"
    },
    {
      "channel": 1,
      "note": 32,
      "start": 70.8975,
      "duration": 2.9574,
      "velocity": 98,
      "chip": "ym2612"
    },
    {
      "channel": 2,
      "note": 26,
      "start": 70.9004,
      "duration": 0.0327,
      "velocity": 107,
      "chip": "ym2612"
    },
    {
      "channel": 3,
      "note": 51,
      "start": 70.904,
      "duration": 0.1934,
      "velocity": 114,
      "chip": "ym2612"
    },
    {
      "channel": 4,
      "note": 39,
      "start": 70.905,
      "duration": 0.194,
      "velocity": 110,
      "chip": "ym2612"
    },
    {
      "channel": 2,
      "note": 26,
      "start": 70.9333,
      "duration": 0.1613,
      "velocity": 127,
      "chip": "ym2612"
    },
    {
      "channel": 0,
      "note": 73,
      "start": 70.9961,
      "duration": 0.0961,
      "velocity": 123,
      "chip": "ym2612"
    },
    {
      "channel": 0,
      "note": 69,
      "start": 71.0923,
      "duration": 0.0961,
      "velocity": 123,
      "chip": "ym2612"
    },
    {
      "channel": 2,
      "note": 59,
      "start": 71.0949,
      "duration": 0.1923,
      "velocity": 127,
      "chip": "ym2612"
    },
    {
      "channel": 3,
      "note": 51,
      "start": 71.0976,
      "duration": 0.1924,
      "velocity": 114,
      "chip": "ym2612"
    },
    {
      "channel": 0,
      "note": 73,
      "start": 71.1886,
      "duration": 0.0962,
      "velocity": 123,
      "chip": "ym2612"
    },
    {
      "channel": 5,
      "note": 32,
      "start": 71.1929,
      "duration": 2.954,
      "velocity": 98,
      "chip": "ym2612"
    },
    {
      "channel": 0,
      "note": 69,
      "start": 71.2849,
      "duration": 0.0961,
      "velocity": 123,
      "chip": "ym2612"
    },
    {
      "channel": 2,
      "note": 59,
      "start": 71.2874,
      "duration": 0.0308,
      "velocity": 127,
      "chip": "ym2612"
    },
    {
      "channel": 3,
      "note": 51,
      "start": 71.2902,
      "duration": 0.1937,
      "velocity": 114,
      "chip": "ym2612"
    },
    {
      "channel": 2,
      "note": 59,
      "start": 71.3184,
      "duration": 0.1613,
      "velocity": 127,
      "chip": "ym2612"
    },
    {
      "channel": 0,
      "note": 73,
      "start": 71.3813,
      "duration": 0.096,
      "velocity": 123,
      "chip": "ym2612"
    },
    {
      "channel": 0,
      "note": 69,
      "start": 71.4776,
      "duration": 0.0961,
      "velocity": 123,
      "chip": "ym2612"
    },
    {
      "channel": 2,
      "note": 64,
      "start": 71.48,
      "duration": 0.1926,
      "velocity": 123,
      "chip": "ym2612"
    },
    {
      "channel": 3,
      "note": 51,
      "start": 71.484,
      "duration": 0.1912,
      "velocity": 114,
      "chip": "ym2612"
    },
    {
      "channel": 4,
      "note": 39,
      "start": 71.4849,
      "duration": 0.1912,
      "velocity": 110,
      "chip": "ym2612"
    },
    {
      "channel": 0,
      "note": 73,
      "start": 71.5738,
      "duration": 0.0962,
      "velocity": 123,
      "chip": "ym2612"
    },
    {
      "channel": 0,
      "note": 69,
      "start": 71.6702,
      "duration": 0.0961,
      "velocity": 123,
      "chip": "ym2612"
    },
    {
      "channel": 2,
      "note": 57,
      "start": 71.6728,
      "duration": 0.031,
      "velocity": 123,
      "chip": "ym2612"
    },
    {
      "channel": 3,
      "note": 51,
      "start": 71.6755,
      "duration": 0.1939,
      "velocity": 114,
      "chip": "ym2612"
    },
    {
      "channel": 2,
      "note": 57,
      "start": 71.7039,
      "duration": 0.0328,
      "velocity": 123,
      "chip": "ym2612"
    },
    {
      "channel": 2,
      "note": 57,
      "start": 71.737,
      "duration": 0.0306,
      "velocity": 123,
      "chip": "ym2612"
    },
    {
      "channel": 0,
      "note": 73,
      "start": 71.7665,
      "duration": 0.0961,
      "velocity": 123,
      "chip": "ym2612"
    },
    {
      "channel": 2,
      "note": 57,
      "start": 71.7678,
      "duration": 0.0322,
      "velocity": 123,
      "chip": "ym2612"
    },
    {
      "channel": 2,
      "note": 57,
      "start": 71.8001,
      "duration": 0.0301,
      "velocity": 123,
      "chip": "ym2612"
    },
    {
      "channel": 2,
      "note": 57,
      "start": 71.8304,
      "duration": 0.0354,
      "velocity": 127,
      "chip": "ym2612"
    },
    {
      "channel": 0,
      "note": 69,
      "start": 71.8627,
      "duration": 0.099,
      "velocity": 123,
      "chip": "ym2612"
    },
    {
      "channel": 2,
      "note": 59,
      "start": 71.8661,
      "duration": 0.0334,
      "velocity": 127,
      "chip": "ym2612"
    },
    {
      "channel": 3,
      "note": 51,
      "start": 71.8696,
      "duration": 0.1913,
      "velocity": 114,
      "chip": "ym2612"
    },
    {
      "channel": 4,
      "note": 39,
      "start": 71.8705,
      "duration": 0.1913,
      "velocity": 110,
      "chip": "ym2612"
    },
    {
      "channel": 2,
      "note": 59,
      "start": 71.8997,
      "duration": 0.158,
      "velocity": 127,
      "chip": "ym2612"
    },
    {
      "channel": 0,
      "note": 73,
      "start": 71.962,
      "duration": 0.0933,
      "velocity": 123,
      "chip": "ym2612"
    },
    {
      "channel": 0,
      "note": 69,
      "start": 72.0554,
      "duration": 0.0989,
      "velocity": 123,
      "chip": "ym2612"
    },
    {
      "channel": 2,
      "note": 66,
      "start": 72.058,
      "duration": 0.0974,
      "velocity": 127,
      "chip": "ym2612"
    },
    {
      "channel": 3,
      "note": 51,
      "start": 72.0611,
      "duration": 0.1912,
      "velocity": 114,
      "chip": "ym2612"
    },
    {
      "channel": 4,
      "note": 39,
      "start": 72.062,
      "duration": 0.1912,
      "velocity": 110,
      "chip": "ym2612"
    },
    {
      "channel": 0,
      "note": 73,
      "start": 72.1546,
      "duration": 0.0933,
      "velocity": 123,
      "chip": "ym2612"
    },
    {
      "channel": 2,
      "note": 66,
      "start": 72.1556,
      "duration": 0.0939,
      "velocity": 127,
      "chip": "ym2612"
    },
    {
      "channel": 0,
      "note": 69,
      "start": 72.2487,
      "duration": 0.0982,
      "velocity": 123,
      "chip": "ym2612"
    },
    {
      "channel": 2,
      "note": 66,
      "start": 72.2497,
      "duration": 0.0989,
      "velocity": 127,
      "chip": "ym2612"
    },
    {
      "channel": 3,
      "note": 51,
      "start": 72.2526,
      "duration": 0.1932,
      "velocity": 114,
      "chip": "ym2612"
    },
    {
      "channel": 0,
      "note": 73,
      "start": 72.3472,
      "duration": 0.0933,
      "velocity": 123,
      "chip": "ym2612"
    },
    {
      "channel": 2,
      "note": 66,
      "start": 72.3489,
      "duration": 0.0941,
      "velocity": 123,
      "chip": "ym2612"
    },
    {
      "channel": 0,
      "note": 69,
      "start": 72.4407,
      "duration": 0.0988,
      "velocity": 123,
      "chip": "ym2612"
    },
    {
      "channel": 2,
      "note": 68,
      "start": 72.4432,
      "duration": 0.0974,
      "velocity": 123,
      "chip": "ym2612"
    },
    {
      "channel": 3,
      "note": 51,
      "start": 72.446,
      "duration": 0.1931,
      "velocity": 114,
      "chip": "ym2612"
    },
    {
      "channel": 0,
      "note": 73,
      "start": 72.5398,
      "duration": 0.0934,
      "velocity": 123,
      "chip": "ym2612"
    },
    {
      "channel": 2,
      "note": 68,
      "start": 72.5408,
      "duration": 0.0948,
      "velocity": 107,
      "chip": "ym2612"
    },
    {
      "channel": 0,
      "note": 69,
      "start": 72.6333,
      "duration": 0.0992,
      "velocity": 123,
      "chip": "ym2612"
    },
    {
      "channel": 2,
      "note": 30,
      "start": 72.6358,
      "duration": 0.0336,
      "velocity": 107,
      "chip": "ym2612"
    },
    {
      "channel": 3,
      "note": 51,
      "start": 72.6394,
      "duration": 0.1915,
      "velocity": 114,
      "chip": "ym2612"
    },
    {
      "channel": 4,
      "note": 39,
      "start": 72.6402,
      "duration": 0.1923,
      "velocity": 110,
      "chip": "ym2612"
    },
    {
      "channel": 2,
      "note": 30,
      "start": 72.6696,
      "duration": 0.1586,
      "velocity": 123,
      "chip": "ym2612"
    },
    {
      "channel": 0,
      "note": 73,
      "start": 72.7328,
      "duration": 0.0929,
      "velocity": 123,
      "chip": "ym2612"
    },
    {
      "channel": 0,
      "note": 69,
      "start": 72.8259,
      "duration": 0.0989,
      "velocity": 123,
      "chip": "ym2612"
    },
    {
      "channel": 2,
      "note": 59,
      "start": 72.8284,
      "duration": 0.0974,
      "velocity": 123,
      "chip": "ym2612"
    },
    {
      "channel": 3,
      "note": 51,
      "start": 72.8312,
      "duration": 0.1931,
      "velocity": 114,
      "chip": "ym2612"
    },
    {
      "channel": 0,
      "note": 73,
      "start": 72.925,
      "duration": 0.0933,
      "velocity": 123,
      "chip": "ym2612"
    },
    {
      "channel": 2,
      "note": 59,
      "start": 72.926,
      "duration": 0.0947,
      "velocity": 107,
      "chip": "ym2612"
    },
    {
      "channel": 0,
      "note": 69,
      "start": 73.0185,
      "duration": 0.0988,
      "velocity": 123,
      "chip": "ym2612"
    },
    {
      "channel": 2,
      "note": 27,
      "start": 73.021,
      "duration": 0.0337,
      "velocity": 107,
      "chip": "ym2612"
    },
    {
      "channel": 3,
      "note": 51,
      "start": 73.0246,
      "duration": 0.1923,
      "velocity": 114,
      "chip": "ym2612"
    },
    {
      "channel": 4,
      "note": 39,
      "start": 73.0255,
      "duration": 0.1923,
      "velocity": 110,
      "chip": "ym2612"
    },
    {
      "channel": 2,
      "note": 27,
      "start": 73.0549,
      "duration": 0.1586,
      "velocity": 127,
      "chip": "ym2612"
    },
    {
      "channel": 0,
      "note": 73,
      "start": 73.1176,
      "duration": 0.0933,
      "velocity": 123,
      "chip": "ym2612"
    },
    {
      "channel": 0,
      "note": 69,
      "start": 73.2111,
      "duration": 0.0989,
      "velocity": 123,
      "chip": "ym2612"
    },
    {
      "channel": 2,
      "note": 59,
      "start": 73.2137,
      "duration": 0.0335,
      "velocity": 127,
      "chip": "ym2612"
    },
    {
      "channel": 3,
      "note": 51,
      "start": 73.2171,
      "duration": 0.1926,
      "velocity": 114,
      "chip": "ym2612"
    },
    {
      "channel": 2,
      "note": 59,
      "start": 73.2475,
      "duration": 0.1587,
      "velocity": 123,
      "chip": "ym2612"
    },
    {
      "channel": 0,
      "note": 73,
      "start": 73.3102,
      "duration": 0.0933,
      "velocity": 123,
      "chip": "ym2612"
    },
    {
      "channel": 0,
      "note": 69,
      "start": 73.4038,
      "duration": 0.0989,
      "velocity": 123,
      "chip": "ym2612"
    },
    {
      "channel": 2,
      "note": 57,
      "start": 73.4064,
      "duration": 0.0337,
      "velocity": 123,
      "chip": "ym2612"
    },
    {
      "channel": 3,
      "note": 51,
      "start": 73.4099,
      "duration": 0.1928,
      "velocity": 114,
      "chip": "ym2612"
    },
    {
      "channel": 4,
      "note": 39,
      "start": 73.4108,
      "duration": 0.1928,
      "velocity": 110,
      "chip": "ym2612"
    },
    {
      "channel": 2,
      "note": 57,
      "start": 73.4403,
      "duration": 0.03,
      "velocity": 123,
      "chip": "ym2612"
    },
    {
      "channel": 2,
      "note": 57,
      "start": 73.4706,
      "duration": 0.0333,
      "velocity": 123,
      "chip": "ym2612"
    },
    {
      "channel": 0,
      "note": 73,
      "start": 73.5029,
      "duration": 0.0932,
      "velocity": 123,
      "chip": "ym2612"
    },
    {
      "channel": 2,
      "note": 57,
      "start": 73.5041,
      "duration": 0.0294,
      "velocity": 123,
      "chip": "ym2612"
    },
    {
      "channel": 2,
      "note": 57,
      "start": 73.5337,
      "duration": 0.0328,
      "velocity": 123,
      "chip": "ym2612"
    },
    {
      "channel": 2,
      "note": 57,
      "start": 73.5668,
      "duration": 0.0327,
      "velocity": 127,
      "chip": "ym2612"
    },
    {
      "channel": 0,
      "note": 69,
      "start": 73.5963,
      "duration": 0.0989,
      "velocity": 123,
      "chip": "ym2612"
    },
    {
      "channel": 2,
      "note": 64,
      "start": 73.5997,
      "duration": 0.0966,
      "velocity": 127,
      "chip": "ym2612"
    },
    {
      "channel": 3,
      "note": 51,
      "start": 73.6029,
      "duration": 0.1896,
      "velocity": 114,
      "chip": "ym2612"
    },
    {
      "channel": 4,
      "note": 39,
      "start": 73.6038,
      "duration": 0.1896,
      "velocity": 110,
      "chip": "ym2612"
    },
    {
      "channel": 0,
      "note": 73,
      "start": 73.6954,
      "duration": 0.0933,
      "velocity": 123,
      "chip": "ym2612"
    },
    {
      "channel": 2,
      "note": 64,
      "start": 73.6964,
      "duration": 0.0933,
      "velocity": 127,
      "chip": "ym2612"
    },
    {
      "channel": 0,
      "note": 69,
      "start": 73.7889,
      "duration": 0.096,
      "velocity": 123,
      "chip": "ym2612"
    },
    {
      "channel": 2,
      "note": 64,
      "start": 73.79,
      "duration": 0.096,
      "velocity": 127,
      "chip": "ym2612"
    },
    {
      "channel": 3,
      "note": 51,
      "start": 73.7928,
      "duration": 0.1967,
      "velocity": 114,
      "chip": "ym2612"
    },
    {
      "channel": 0,
      "note": 73,
      "start": 73.8851,
      "duration": 0.0968,
      "velocity": 123,
      "chip": "ym2612"
    },
    {
      "channel": 2,
      "note": 64,
      "start": 73.8861,
      "duration": 0.099,
      "velocity": 107,
      "chip": "ym2612"
    },
    {
      "channel": 0,
      "note": 69,
      "start": 73.9821,
      "duration": 0.0983,
      "velocity": 123,
      "chip": "ym2612"
    },
    {
      "channel": 1,
      "note": 28,
      "start": 73.9832,
      "duration": 2.9536,
      "velocity": 98,
      "chip": "ym2612"
    },
    {
      "channel": 2,
      "note": 26,
      "start": 73.9854,
      "duration": 0.0322,
      "velocity": 107,
      "chip": "ym2612"
    },
    {
      "channel": 3,
      "note": 52,
      "start": 73.9897,
      "duration": 0.1896,
      "velocity": 114,
      "chip": "ym2612"
    },
    {
      "channel": 4,
      "note": 40,
      "start": 73.9909,
      "duration": 0.1893,
      "velocity": 110,
      "chip": "ym2612"
    },
    {
      "channel": 2,
      "note": 26,
      "start": 74.0179,
      "duration": 0.1586,
      "velocity": 127,
      "chip": "ym2612"
    },
    {
      "channel": 0,
      "note": 73,
      "start": 74.0807,
      "duration": 0.0933,
      "velocity": 123,
      "chip": "ym2612"
    },
    {
      "channel": 0,
      "note": 69,
      "start": 74.1742,
      "duration": 0.0989,
      "velocity": 123,
      "chip": "ym2612"
    },
    {
      "channel": 2,
      "note": 59,
      "start": 74.1767,
      "duration": 0.1923,
      "velocity": 127,
      "chip": "ym2612"
    },
    {
      "channel": 3,
      "note": 52,
      "start": 74.1795,
      "duration": 0.1923,
      "velocity": 114,
      "chip": "ym2612"
    },
    {
      "channel": 0,
      "note": 73,
      "start": 74.2733,
      "duration": 0.0933,
      "velocity": 123,
      "chip": "ym2612"
    },
    {
      "channel": 5,
      "note": 28,
      "start": 74.2781,
      "duration": 2.9507,
      "velocity": 98,
      "chip": "ym2612"
    },
    {
      "channel": 0,
      "note": 69,
      "start": 74.3667,
      "duration": 0.0991,
      "velocity": 123,
      "chip": "ym2612"
    },
    {
      "channel": 2,
      "note": 59,
      "start": 74.3692,
      "duration": 0.0337,
      "velocity": 127,
      "chip": "ym2612"
    },
    {
      "channel": 3,
      "note": 52,
      "start": 74.3721,
      "duration": 0.1936,
      "velocity": 114,
      "chip": "ym2612"
    },
    {
      "channel": 2,
      "note": 59,
      "start": 74.4031,
      "duration": 0.1585,
      "velocity": 127,
      "chip": "ym2612"
    },
    {
      "channel": 0,
      "note": 73,
      "start": 74.4661,
      "duration": 0.0931,
      "velocity": 123,
      "chip": "ym2612"
    },
    {
      "channel": 0,
      "note": 69,
      "start": 74.5594,
      "duration": 0.0988,
      "velocity": 123,
      "chip": "ym2612"
    },
    {
      "channel": 2,
      "note": 64,
      "start": 74.5618,
      "duration": 0.1926,
      "velocity": 123,
      "chip": "ym2612"
    },
    {
      "channel": 3,
      "note": 52,
      "start": 74.5659,
      "duration": 0.1912,
      "velocity": 114,
      "chip": "ym2612"
    },
    {
      "channel": 4,
      "note": 40,
      "start": 74.5668,
      "duration": 0.1912,
      "velocity": 110,
      "chip": "ym2612"
    },
    {
      "channel": 0,
      "note": 73,
      "start": 74.6585,
      "duration": 0.0933,
      "velocity": 123,
      "chip": "ym2612"
    },
    {
      "channel": 0,
      "note": 69,
      "start": 74.752,
      "duration": 0.0989,
      "velocity": 123,
      "chip": "ym2612"
    },
    {
      "channel": 2,
      "note": 57,
      "start": 74.7546,
      "duration": 0.0339,
      "velocity": 123,
      "chip": "ym2612"
    },
    {
      "channel": 3,
      "note": 52,
      "start": 74.7574,
      "duration": 0.1939,
      "velocity": 114,
      "chip": "ym2612"
    },
    {
      "channel": 2,
      "note": 57,
      "start": 74.7886,
      "duration": 0.03,
      "velocity": 123,
      "chip": "ym2612"
    },
    {
      "channel": 2,
      "note": 57,
      "start": 74.8189,
      "duration": 0.0333,
      "velocity": 123,
      "chip": "ym2612"
    },
    {
      "channel": 0,
      "note": 73,
      "start": 74.8512,
      "duration": 0.0933,
      "velocity": 123,
      "chip": "ym2612"
    },
    {
      "channel": 2,
      "note": 57,
      "start": 74.8524,
      "duration": 0.0301,
      "velocity": 123,
      "chip": "ym2612"
    },
    {
      "channel": 2,
      "note": 57,
      "start": 74.8827,
      "duration": 0.0328,
      "velocity": 123,
      "chip": "ym2612"
    },
    {
      "channel": 2,
      "note": 57,
      "start": 74.9157,
      "duration": 0.0314,
      "velocity": 127,
      "chip": "ym2612"
    },
    {
      "channel": 0,
      "note": 69,
      "start": 74.9447,
      "duration": 0.0989,
      "velocity": 123,
      "chip": "ym2612"
    },
    {
      "channel": 2,
      "note": 59,
      "start": 74.9474,
      "duration": 0.0334,
      "velocity": 127,
      "chip": "ym2612"
    },
    {
      "channel": 3,
      "note": 52,
      "start": 74.9515,
      "duration": 0.1941,
      "velocity": 114,
      "chip": "ym2612"
    },
    {
      "channel": 4,
      "note": 40,
      "start": 74.9524,
      "duration": 0.1941,
      "velocity": 110,
      "chip": "ym2612"
    },
    {
      "channel": 2,
      "note": 59,
      "start": 74.9811,
      "duration": 0.1614,
      "velocity": 127,
      "chip": "ym2612"
    },
    {
      "channel": 0,
      "note": 73,
      "start": 75.0438,
      "duration": 0.0961,
      "velocity": 123,
      "chip": "ym2612"
    },
    {
      "channel": 0,
      "note": 69,
      "start": 75.1402,
      "duration": 0.0961,
      "velocity": 123,
      "chip": "ym2612"
    },
    {
      "channel": 2,
      "note": 66,
      "start": 75.1426,
      "duration": 0.0946,
      "velocity": 127,
      "chip": "ym2612"
    },
    {
      "channel": 3,
      "note": 52,
      "start": 75.1459,
      "duration": 0.1906,
      "velocity": 114,
      "chip": "ym2612"
    },
    {
      "channel": 4,
      "note": 40,
      "start": 75.1467,
      "duration": 0.1906,
      "velocity": 110,
      "chip": "ym2612"
    },
    {
      "channel": 0,
      "note": 73,
      "start": 75.2364,
      "duration": 0.0963,
      "velocity": 123,
      "chip": "ym2612"
    },
    {
      "channel": 2,
      "note": 66,
      "start": 75.2374,
      "duration": 0.0963,
      "velocity": 127,
      "chip": "ym2612"
    },
    {
      "channel": 0,
      "note": 69,
      "start": 75.3328,
      "duration": 0.0959,
      "velocity": 123,
      "chip": "ym2612"
    },
    {
      "channel": 2,
      "note": 66,
      "start": 75.3339,
      "duration": 0.0959,
      "velocity": 127,
      "chip": "ym2612"
    },
    {
      "channel": 3,
      "note": 52,
      "start": 75.3366,
      "duration": 0.1909,
      "velocity": 114,
      "chip": "ym2612"
    },
    {
      "channel": 0,
      "note": 73,
      "start": 75.429,
      "duration": 0.0933,
      "velocity": 123,
      "chip": "ym2612"
    },
    {
      "channel": 2,
      "note": 66,
      "start": 75.43,
      "duration": 0.0947,
      "velocity": 123,
      "chip": "ym2612"
    },
    {
      "channel": 0,
      "note": 69,
      "start": 75.5225,
      "duration": 0.0988,
      "velocity": 123,
      "chip": "ym2612"
    },
    {
      "channel": 2,
      "note": 68,
      "start": 75.5249,
      "duration": 0.0974,
      "velocity": 123,
      "chip": "ym2612"
    },
    {
      "channel": 3,
      "note": 52,
      "start": 75.5278,
      "duration": 0.1938,
      "velocity": 114,
      "chip": "ym2612"
    },
    {
      "channel": 0,
      "note": 73,
      "start": 75.6216,
      "duration": 0.0939,
      "velocity": 123,
      "chip": "ym2612"
    },
    {
      "channel": 2,
      "note": 68,
      "start": 75.6225,
      "duration": 0.0955,
      "velocity": 107,
      "chip": "ym2612"
    },
    {
      "channel": 0,
      "note": 69,
      "start": 75.7158,
      "duration": 0.0983,
      "velocity": 123,
      "chip": "ym2612"
    },
    {
      "channel": 2,
      "note": 30,
      "start": 75.7183,
      "duration": 0.0329,
      "velocity": 107,
      "chip": "ym2612"
    },
    {
      "channel": 3,
      "note": 52,
      "start": 75.7218,
      "duration": 0.1945,
      "velocity": 114,
      "chip": "ym2612"
    },
    {
      "channel": 4,
      "note": 40,
      "start": 75.7227,
      "duration": 0.1945,
      "velocity": 110,
      "chip": "ym2612"
    },
    {
      "channel": 2,
      "note": 30,
      "start": 75.7515,
      "duration": 0.1614,
      "velocity": 123,
      "chip": "ym2612"
    },
    {
      "channel": 0,
      "note": 73,
      "start": 75.8143,
      "duration": 0.0961,
      "velocity": 123,
      "chip": "ym2612"
    },
    {
      "channel": 0,
      "note": 69,
      "start": 75.9106,
      "duration": 0.0961,
      "velocity": 123,
      "chip": "ym2612"
    },
    {
      "channel": 2,
      "note": 59,
      "start": 75.9131,
      "duration": 0.0945,
      "velocity": 123,
      "chip": "ym2612"
    },
    {
      "channel": 3,
      "note": 52,
      "start": 75.9166,
      "duration": 0.1925,
      "velocity": 114,
      "chip": "ym2612"
    },
    {
      "channel": 0,
      "note": 73,
      "start": 76.0069,
      "duration": 0.0961,
      "velocity": 123,
      "chip": "ym2612"
    },
    {
      "channel": 2,
      "note": 59,
      "start": 76.0078,
      "duration": 0.0976,
      "velocity": 107,
      "chip": "ym2612"
    },
    {
      "channel": 0,
      "note": 69,
      "start": 76.1032,
      "duration": 0.0961,
      "velocity": 123,
      "chip": "ym2612"
    },
    {
      "channel": 2,
      "note": 27,
      "start": 76.1057,
      "duration": 0.0308,
      "velocity": 107,
      "chip": "ym2612"
    },
    {
      "channel": 3,
      "note": 52,
      "start": 76.1092,
      "duration": 0.1924,
      "velocity": 114,
      "chip": "ym2612"
    },
    {
      "channel": 4,
      "note": 40,
      "start": 76.1101,
      "duration": 0.1924,
      "velocity": 110,
      "chip": "ym2612"
    },
    {
      "channel": 2,
      "note": 27,
      "start": 76.1367,
      "duration": 0.1621,
      "velocity": 127,
      "chip": "ym2612"
    },
    {
      "channel": 0,
      "note": 73,
      "start": 76.1995,
      "duration": 0.0961,
      "velocity": 123,
      "chip": "ym2612"
    },
    {
      "channel": 0,
      "note": 69,
      "start": 76.2959,
      "duration": 0.0961,
      "velocity": 123,
      "chip": "ym2612"
    },
    {
      "channel": 2,
      "note": 59,
      "start": 76.299,
      "duration": 0.0301,
      "velocity": 127,
      "chip": "ym2612"
    },
    {
      "channel": 3,
      "note": 52,
      "start": 76.3018,
      "duration": 0.1926,
      "velocity": 114,
      "chip": "ym2612"
    },
    {
      "channel": 2,
      "note": 59,
      "start": 76.3293,
      "duration": 0.1615,
      "velocity": 123,
      "chip": "ym2612"
    },
    {
      "channel": 0,
      "note": 73,
      "start": 76.3922,
      "duration": 0.0961,
      "velocity": 123,
      "chip": "ym2612"
    },
    {
      "channel": 0,
      "note": 69,
      "start": 76.4884,
      "duration": 0.0961,
      "velocity": 123,
      "chip": "ym2612"
    },
    {
      "channel": 2,
      "note": 57,
      "start": 76.491,
      "duration": 0.0309,
      "velocity": 123,
      "chip": "ym2612"
    },
    {
      "channel": 3,
      "note": 52,
      "start": 76.4946,
      "duration": 0.1928,
      "velocity": 114,
      "chip": "ym2612"
    },
    {
      "channel": 4,
      "note": 40,
      "start": 76.4955,
      "duration": 0.1928,
      "velocity": 110,
      "chip": "ym2612"
    },
    {
      "channel": 2,
      "note": 57,
      "start": 76.5222,
      "duration": 0.0328,
      "velocity": 123,
      "chip": "ym2612"
    },
    {
      "channel": 2,
      "note": 57,
      "start": 76.5552,
      "duration": 0.0305,
      "velocity": 123,
      "chip": "ym2612"
    },
    {
      "channel": 0,
      "note": 73,
      "start": 76.5847,
      "duration": 0.0961,
      "velocity": 123,
      "chip": "ym2612"
    },
    {
      "channel": 2,
      "note": 57,
      "start": 76.586,
      "duration": 0.0322,
      "velocity": 123,
      "chip": "ym2612"
    },
    {
      "channel": 2,
      "note": 57,
      "start": 76.6185,
      "duration": 0.0306,
      "velocity": 123,
      "chip": "ym2612"
    },
    {
      "channel": 2,
      "note": 57,
      "start": 76.6493,
      "duration": 0.035,
      "velocity": 127,
      "chip": "ym2612"
    },
    {
      "channel": 0,
      "note": 69,
      "start": 76.6811,
      "duration": 0.0961,
      "velocity": 123,
      "chip": "ym2612"
    },
    {
      "channel": 2,
      "note": 64,
      "start": 76.6844,
      "duration": 0.0937,
      "velocity": 127,
      "chip": "ym2612"
    },
    {
      "channel": 3,
      "note": 52,
      "start": 76.6877,
      "duration": 0.1896,
      "velocity": 114,
      "chip": "ym2612"
    },
    {
      "channel": 4,
      "note": 40,
      "start": 76.6885,
      "duration": 0.1896,
      "velocity": 110,
      "chip": "ym2612"
    },
    {
      "channel": 0,
      "note": 73,
      "start": 76.7773,
      "duration": 0.0961,
      "velocity": 123,
      "chip": "ym2612"
    },
    {
      "channel": 2,
      "note": 64,
      "start": 76.7783,
      "duration": 0.0961,
      "velocity": 127,
      "chip": "ym2612"
    },
    {
      "channel": 0,
      "note": 69,
      "start": 76.8737,
      "duration": 0.096,
      "velocity": 123,
      "chip": "ym2612"
    },
    {
      "channel": 2,
      "note": 64,
      "start": 76.8746,
      "duration": 0.096,
      "velocity": 127,
      "chip": "ym2612"
    },
    {
      "channel": 3,
      "note": 52,
      "start": 76.8775,
      "duration": 0.1929,
      "velocity": 114,
      "chip": "ym2612"
    },
    {
      "channel": 0,
      "note": 73,
      "start": 76.9699,
      "duration": 0.0933,
      "velocity": 123,
      "chip": "ym2612"
    },
    {
      "channel": 2,
      "note": 64,
      "start": 76.9709,
      "duration": 0.0959,
      "velocity": 107,
      "chip": "ym2612"
    },
    {
      "channel": 0,
      "note": 69,
      "start": 77.0634,
      "duration": 0.099,
      "velocity": 123,
      "chip": "ym2612"
    },
    {
      "channel": 1,
      "note": 30,
      "start": 77.0641,
      "duration": 2.9573,
      "velocity": 98,
      "chip": "ym2612"
    },
    {
      "channel": 2,
      "note": 26,
      "start": 77.0669,
      "duration": 0.0328,
      "velocity": 107,
      "chip": "ym2612"
    },
    {
      "channel": 3,
      "note": 52,
      "start": 77.0706,
      "duration": 0.1933,
      "velocity": 114,
      "chip": "ym2612"
    },
    {
      "channel": 4,
      "note": 40,
      "start": 77.0716,
      "duration": 0.1939,
      "velocity": 110,
      "chip": "ym2612"
    },
    {
      "channel": 2,
      "note": 26,
      "start": 77.1,
      "duration": 0.1612,
      "velocity": 127,
      "chip": "ym2612"
    },
    {
      "channel": 0,
      "note": 73,
      "start": 77.1626,
      "duration": 0.0961,
      "velocity": 123,
      "chip": "ym2612"
    },
    {
      "channel": 0,
      "note": 69,
      "start": 77.2588,
      "duration": 0.0961,
      "velocity": 123,
      "chip": "ym2612"
    },
    {
      "channel": 2,
      "note": 59,
      "start": 77.2614,
      "duration": 0.1923,
      "velocity": 127,
      "chip": "ym2612"
    },
    {
      "channel": 3,
      "note": 52,
      "start": 77.2642,
      "duration": 0.1923,
      "velocity": 114,
      "chip": "ym2612"
    },
    {
      "channel": 0,
      "note": 73,
      "start": 77.3552,
      "duration": 0.0961,
      "velocity": 123,
      "chip": "ym2612"
    },
    {
      "channel": 5,
      "note": 30,
      "start": 77.3594,
      "duration": 2.954,
      "velocity": 98,
      "chip": "ym2612"
    },
    {
      "channel": 0,
      "note": 69,
      "start": 77.4515,
      "duration": 0.0961,
      "velocity": 123,
      "chip": "ym2612"
    },
    {
      "channel": 2,
      "note": 59,
      "start": 77.4539,
      "duration": 0.0308,
      "velocity": 127,
      "chip": "ym2612"
    },
    {
      "channel": 3,
      "note": 52,
      "start": 77.4568,
      "duration": 0.1936,
      "velocity": 114,
      "chip": "ym2612"
    },
    {
      "channel": 2,
      "note": 59,
      "start": 77.485,
      "duration": 0.1613,
      "velocity": 127,
      "chip": "ym2612"
    },
    {
      "channel": 0,
      "note": 73,
      "start": 77.5478,
      "duration": 0.0961,
      "velocity": 123,
      "chip": "ym2612"
    },
    {
      "channel": 0,
      "note": 69,
      "start": 77.6441,
      "duration": 0.0961,
      "velocity": 123,
      "chip": "ym2612"
    },
    {
      "channel": 2,
      "note": 64,
      "start": 77.6465,
      "duration": 0.1926,
      "velocity": 123,
      "chip": "ym2612"
    },
    {
      "channel": 3,
      "note": 52,
      "start": 77.6507,
      "duration": 0.1912,
      "velocity": 114,
      "chip": "ym2612"
    },
    {
      "channel": 4,
      "note": 40,
      "start": 77.6515,
      "duration": 0.1913,
      "velocity": 110,
      "chip": "ym2612"
    },
    {
      "channel": 0,
      "note": 73,
      "start": 77.7403,
      "duration": 0.0962,
      "velocity": 123,
      "chip": "ym2612"
    },
    {
      "channel": 0,
      "note": 69,
      "start": 77.8368,
      "duration": 0.0961,
      "velocity": 123,
      "chip": "ym2612"
    },
    {
      "channel": 2,
      "note": 57,
      "start": 77.8393,
      "duration": 0.031,
      "velocity": 123,
      "chip": "ym2612"
    },
    {
      "channel": 3,
      "note": 52,
      "start": 77.8421,
      "duration": 0.1938,
      "velocity": 114,
      "chip": "ym2612"
    },
    {
      "channel": 2,
      "note": 57,
      "start": 77.8706,
      "duration": 0.0327,
      "velocity": 123,
      "chip": "ym2612"
    },
    {
      "channel": 2,
      "note": 57,
      "start": 77.9035,
      "duration": 0.0306,
      "velocity": 123,
      "chip": "ym2612"
    },
    {
      "channel": 0,
      "note": 73,
      "start": 77.933,
      "duration": 0.0961,
      "velocity": 123,
      "chip": "ym2612"
    },
    {
      "channel": 2,
      "note": 57,
      "start": 77.9344,
      "duration": 0.0322,
      "velocity": 123,
      "chip": "ym2612"
    },
    {
      "channel": 2,
      "note": 57,
      "start": 77.9668,
      "duration": 0.03,
      "velocity": 123,
      "chip": "ym2612"
    },
    {
      "channel": 2,
      "note": 57,
      "start": 77.997,
      "duration": 0.0355,
      "velocity": 127,
      "chip": "ym2612"
    },
    {
      "channel": 0,
      "note": 69,
      "start": 78.0293,
      "duration": 0.099,
      "velocity": 123,
      "chip": "ym2612"
    },
    {
      "channel": 2,
      "note": 59,
      "start": 78.0327,
      "duration": 0.0334,
      "velocity": 127,
      "chip": "ym2612"
    },
    {
      "channel": 3,
      "note": 52,
      "start": 78.0361,
      "duration": 0.1913,
      "velocity": 114,
      "chip": "ym2612"
    },
    {
      "channel": 4,
      "note": 40,
      "start": 78.037,
      "duration": 0.1914,
      "velocity": 110,
      "chip": "ym2612"
    },
    {
      "channel": 2,
      "note": 59,
      "start": 78.0663,
      "duration": 0.158,
      "velocity": 127,
      "chip": "ym2612"
    },
    {
      "channel": 0,
      "note": 73,
      "start": 78.1285,
      "duration": 0.0933,
      "velocity": 123,
      "chip": "ym2612"
    },
    {
      "channel": 0,
      "note": 69,
      "start": 78.222,
      "duration": 0.0989,
      "velocity": 123,
      "chip": "ym2612"
    },
    {
      "channel": 2,
      "note": 66,
      "start": 78.2245,
      "duration": 0.0974,
      "velocity": 127,
      "chip": "ym2612"
    },
    {
      "channel": 3,
      "note": 52,
      "start": 78.2278,
      "duration": 0.1911,
      "velocity": 114,
      "chip": "ym2612"
    },
    {
      "channel": 4,
      "note": 40,
      "start": 78.2286,
      "duration": 0.1912,
      "velocity": 110,
      "chip": "ym2612"
    },
    {
      "channel": 0,
      "note": 73,
      "start": 78.3211,
      "duration": 0.0933,
      "velocity": 123,
      "chip": "ym2612"
    },
    {
      "channel": 2,
      "note": 66,
      "start": 78.3222,
      "duration": 0.0939,
      "velocity": 127,
      "chip": "ym2612"
    },
    {
      "channel": 0,
      "note": 69,
      "start": 78.4153,
      "duration": 0.0983,
      "velocity": 123,
      "chip": "ym2612"
    },
    {
      "channel": 2,
      "note": 66,
      "start": 78.4162,
      "duration": 0.0984,
      "velocity": 127,
      "chip": "ym2612"
    },
    {
      "channel": 3,
      "note": 52,
      "start": 78.4191,
      "duration": 0.1933,
      "velocity": 114,
      "chip": "ym2612"
    },
    {
      "channel": 0,
      "note": 73,
      "start": 78.5137,
      "duration": 0.0933,
      "velocity": 123,
      "chip": "ym2612"
    },
    {
      "channel": 2,
      "note": 66,
      "start": 78.5154,
      "duration": 0.0941,
      "velocity": 123,
      "chip": "ym2612"
    },
    {
      "channel": 0,
      "note": 69,
      "start": 78.6073,
      "duration": 0.0989,
      "velocity": 123,
      "chip": "ym2612"
    },
    {
      "channel": 2,
      "note": 68,
      "start": 78.6098,
      "duration": 0.0974,
      "velocity": 123,
      "chip": "ym2612"
    },
    {
      "channel": 3,
      "note": 52,
      "start": 78.6125,
      "duration": 0.1931,
      "velocity": 114,
      "chip": "ym2612"
    },
    {
      "channel": 0,
      "note": 73,
      "start": 78.7063,
      "duration": 0.0934,
      "velocity": 123,
      "chip": "ym2612"
    },
    {
      "channel": 2,
      "note": 68,
      "start": 78.7073,
      "duration": 0.0949,
      "velocity": 107,
      "chip": "ym2612"
    },
    {
      "channel": 0,
      "note": 69,
      "start": 78.7999,
      "duration": 0.0993,
      "velocity": 123,
      "chip": "ym2612"
    },
    {
      "channel": 2,
      "note": 30,
      "start": 78.8024,
      "duration": 0.0336,
      "velocity": 107,
      "chip": "ym2612"
    },
    {
      "channel": 3,
      "note": 52,
      "start": 78.8059,
      "duration": 0.1916,
      "velocity": 114,
      "chip": "ym2612"
    },
    {
      "channel": 4,
      "note": 40,
      "start": 78.8068,
      "duration": 0.1923,
      "velocity": 110,
      "chip": "ym2612"
    },
    {
      "channel": 2,
      "note": 30,
      "start": 78.8361,
      "duration": 0.1586,
      "velocity": 123,
      "chip": "ym2612"
    },
    {
      "channel": 0,
      "note": 73,
      "start": 78.8994,
      "duration": 0.0929,
      "velocity": 123,
      "chip": "ym2612"
    },
    {
      "channel": 0,
      "note": 69,
      "start": 78.9924,
      "duration": 0.0989,
      "velocity": 123,
      "chip": "ym2612"
    },
    {
      "channel": 2,
      "note": 59,
      "start": 78.995,
      "duration": 0.0973,
      "velocity": 123,
      "chip": "ym2612"
    },
    {
      "channel": 3,
      "note": 52,
      "start": 78.9977,
      "duration": 0.1932,
      "velocity": 114,
      "chip": "ym2612"
    },
    {
      "channel": 0,
      "note": 73,
      "start": 79.0915,
      "duration": 0.0933,
      "velocity": 123,
      "chip": "ym2612"
    },
    {
      "channel": 2,
      "note": 59,
      "start": 79.0926,
      "duration": 0.0948,
      "velocity": 107,
      "chip": "ym2612"
    },
    {
      "channel": 0,
      "note": 69,
      "start": 79.1851,
      "duration": 0.0989,
      "velocity": 123,
      "chip": "ym2612"
    },
    {
      "channel": 2,
      "note": 27,
      "start": 79.1876,
      "duration": 0.0337,
      "velocity": 107,
      "chip": "ym2612"
    },
    {
      "channel": 3,
      "note": 52,
      "start": 79.1911,
      "duration": 0.1924,
      "velocity": 114,
      "chip": "ym2612"
    },
    {
      "channel": 4,
      "note": 40,
      "start": 79.192,
      "duration": 0.1924,
      "velocity": 110,
      "chip": "ym2612"
    },
    {
      "channel": 2,
      "note": 27,
      "start": 79.2214,
      "duration": 0.1587,
      "velocity": 127,
      "chip": "ym2612"
    },
    {
      "channel": 0,
      "note": 73,
      "start": 79.2842,
      "duration": 0.0933,
      "velocity": 123,
      "chip": "ym2612"
    },
    {
      "channel": 0,
      "note": 69,
      "start": 79.3778,
      "duration": 0.0988,
      "velocity": 123,
      "chip": "ym2612"
    },
    {
      "channel": 2,
      "note": 59,
      "start": 79.3803,
      "duration": 0.0335,
      "velocity": 127,
      "chip": "ym2612"
    },
    {
      "channel": 3,
      "note": 52,
      "start": 79.3837,
      "duration": 0.1926,
      "velocity": 114,
      "chip": "ym2612"
    },
    {
      "channel": 2,
      "note": 59,
      "start": 79.414,
      "duration": 0.1587,
      "velocity": 123,
      "chip": "ym2612"
    },
    {
      "channel": 0,
      "note": 73,
      "start": 79.4768,
      "duration": 0.0933,
      "velocity": 123,
      "chip": "ym2612"
    },
    {
      "channel": 0,
      "note": 69,
      "start": 79.5703,
      "duration": 0.0989,
      "velocity": 123,
      "chip": "ym2612"
    },
    {
      "channel": 2,
      "note": 57,
      "start": 79.5729,
      "duration": 0.0338,
      "velocity": 123,
      "chip": "ym2612"
    },
    {
      "channel": 3,
      "note": 52,
      "start": 79.5765,
      "duration": 0.1928,
      "velocity": 114,
      "chip": "ym2612"
    },
    {
      "channel": 4,
      "note": 40,
      "start": 79.5774,
      "duration": 0.1928,
      "velocity": 110,
      "chip": "ym2612"
    },
    {
      "channel": 2,
      "note": 57,
      "start": 79.6069,
      "duration": 0.03,
      "velocity": 123,
      "chip": "ym2612"
    },
    {
      "channel": 2,
      "note": 57,
      "start": 79.6371,
      "duration": 0.0334,
      "velocity": 123,
      "chip": "ym2612"
    },
    {
      "channel": 0,
      "note": 73,
      "start": 79.6694,
      "duration": 0.0933,
      "velocity": 123,
      "chip": "ym2612"
    },
    {
      "channel": 2,
      "note": 57,
      "start": 79.6707,
      "duration": 0.0294,
      "velocity": 123,
      "chip": "ym2612"
    },
    {
      "channel": 2,
      "note": 57,
      "start": 79.7003,
      "duration": 0.0329,
      "velocity": 123,
      "chip": "ym2612"
    },
    {
      "channel": 2,
      "note": 57,
      "start": 79.7335,
      "duration": 0.0326,
      "velocity": 127,
      "chip": "ym2612"
    },
    {
      "channel": 0,
      "note": 69,
      "start": 79.7629,
      "duration": 0.099,
      "velocity": 123,
      "chip": "ym2612"
    },
    {
      "channel": 2,
      "note": 64,
      "start": 79.7663,
      "duration": 0.0965,
      "velocity": 127,
      "chip": "ym2612"
    },
    {
      "channel": 3,
      "note": 52,
      "start": 79.7695,
      "duration": 0.1896,
      "velocity": 114,
      "chip": "ym2612"
    },
    {
      "channel": 4,
      "note": 40,
      "start": 79.7704,
      "duration": 0.1896,
      "velocity": 110,
      "chip": "ym2612"
    },
    {
      "channel": 0,
      "note": 73,
      "start": 79.862,
      "duration": 0.0932,
      "velocity": 123,
      "chip": "ym2612"
    },
    {
      "channel": 2,
      "note": 64,
      "start": 79.8631,
      "duration": 0.0932,
      "velocity": 127,
      "chip": "ym2612"
    },
    {
      "channel": 0,
      "note": 69,
      "start": 79.9555,
      "duration": 0.096,
      "velocity": 123,
      "chip": "ym2612"
    },
    {
      "channel": 2,
      "note": 64,
      "start": 79.9565,
      "duration": 0.096,
      "velocity": 127,
      "chip": "ym2612"
    },
    {
      "channel": 3,
      "note": 52,
      "start": 79.9593,
      "duration": 0.1961,
      "velocity": 114,
      "chip": "ym2612"
    },
    {
      "channel": 0,
      "note": 73,
      "start": 80.0517,
      "duration": 0.0963,
      "velocity": 123,
      "chip": "ym2612"
    },
    {
      "channel": 2,
      "note": 64,
      "start": 80.0527,
      "duration": 0.099,
      "velocity": 107,
      "chip": "ym2612"
    },
    {
      "channel": 0,
      "note": 69,
      "start": 80.1487,
      "duration": 0.0983,
      "velocity": 123,
      "chip": "ym2612"
    },
    {
      "channel": 1,
      "note": 31,
      "start": 80.1496,
      "duration": 2.9536,
      "velocity": 98,
      "chip": "ym2612"
    },
    {
      "channel": 2,
      "note": 26,
      "start": 80.1519,
      "duration": 0.0324,
      "velocity": 107,
      "chip": "ym2612"
    },
    {
      "channel": 3,
      "note": 52,
      "start": 80.1556,
      "duration": 0.1903,
      "velocity": 114,
      "chip": "ym2612"
    },
    {
      "channel": 4,
      "note": 40,
      "start": 80.1565,
      "duration": 0.1902,
      "velocity": 110,
      "chip": "ym2612"
    },
    {
      "channel": 2,
      "note": 26,
      "start": 80.1844,
      "duration": 0.1587,
      "velocity": 127,
      "chip": "ym2612"
    },
    {
      "channel": 0,
      "note": 73,
      "start": 80.2472,
      "duration": 0.0934,
      "velocity": 123,
      "chip": "ym2612"
    },
    {
      "channel": 0,
      "note": 69,
      "start": 80.3408,
      "duration": 0.0988,
      "velocity": 123,
      "chip": "ym2612"
    },
    {
      "channel": 2,
      "note": 59,
      "start": 80.3433,
      "duration": 0.1922,
      "velocity": 127,
      "chip": "ym2612"
    },
    {
      "channel": 3,
      "note": 52,
      "start": 80.3461,
      "duration": 0.1923,
      "velocity": 114,
      "chip": "ym2612"
    },
    {
      "channel": 0,
      "note": 73,
      "start": 80.4399,
      "duration": 0.0933,
      "velocity": 123,
      "chip": "ym2612"
    },
    {
      "channel": 5,
      "note": 31,
      "start": 80.4444,
      "duration": 2.951,
      "velocity": 98,
      "chip": "ym2612"
    },
    {
      "channel": 0,
      "note": 69,
      "start": 80.5333,
      "duration": 0.0992,
      "velocity": 123,
      "chip": "ym2612"
    },
    {
      "channel": 2,
      "note": 59,
      "start": 80.5358,
      "duration": 0.0336,
      "velocity": 127,
      "chip": "ym2612"
    },
    {
      "channel": 3,
      "note": 52,
      "start": 80.5386,
      "duration": 0.1937,
      "velocity": 114,
      "chip": "ym2612"
    },
    {
      "channel": 2,
      "note": 59,
      "start": 80.5697,
      "duration": 0.1585,
      "velocity": 127,
      "chip": "ym2612"
    },
    {
      "channel": 0,
      "note": 73,
      "start": 80.6327,
      "duration": 0.093,
      "velocity": 123,
      "chip": "ym2612"
    },
    {
      "channel": 0,
      "note": 69,
      "start": 80.726,
      "duration": 0.0989,
      "velocity": 123,
      "chip": "ym2612"
    },
    {
      "channel": 2,
      "note": 64,
      "start": 80.7284,
      "duration": 0.1925,
      "velocity": 123,
      "chip": "ym2612"
    },
    {
      "channel": 3,
      "note": 52,
      "start": 80.7324,
      "duration": 0.1912,
      "velocity": 114,
      "chip": "ym2612"
    },
    {
      "channel": 4,
      "note": 40,
      "start": 80.7333,
      "duration": 0.1912,
      "velocity": 110,
      "chip": "ym2612"
    },
    {
      "channel": 0,
      "note": 73,
      "start": 80.8251,
      "duration": 0.0933,
      "velocity": 123,
      "chip": "ym2612"
    },
    {
      "channel": 0,
      "note": 69,
      "start": 80.9186,
      "duration": 0.0988,
      "velocity": 123,
      "chip": "ym2612"
    },
    {
      "channel": 2,
      "note": 57,
      "start": 80.9212,
      "duration": 0.0338,
      "velocity": 123,
      "chip": "ym2612"
    },
    {
      "channel": 3,
      "note": 52,
      "start": 80.9239,
      "duration": 0.194,
      "velocity": 114,
      "chip": "ym2612"
    },
    {
      "channel": 2,
      "note": 57,
      "start": 80.9552,
      "duration": 0.03,
      "velocity": 123,
      "chip": "ym2612"
    },
    {
      "channel": 2,
      "note": 57,
      "start": 80.9854,
      "duration": 0.0333,
      "velocity": 123,
      "chip": "ym2612"
    },
    {
      "channel": 0,
      "note": 73,
      "start": 81.0177,
      "duration": 0.0933,
      "velocity": 123,
      "chip": "ym2612"
    },
    {
      "channel": 2,
      "note": 57,
      "start": 81.019,
      "duration": 0.0302,
      "velocity": 123,
      "chip": "ym2612"
    },
    {
      "channel": 2,
      "note": 57,
      "start": 81.0493,
      "duration": 0.0327,
      "velocity": 123,
      "chip": "ym2612"
    },
    {
      "channel": 2,
      "note": 57,
      "start": 81.0823,
      "duration": 0.0314,
      "velocity": 127,
      "chip": "ym2612"
    },
    {
      "channel": 0,
      "note": 69,
      "start": 81.1112,
      "duration": 0.0989,
      "velocity": 123,
      "chip": "ym2612"
    },
    {
      "channel": 2,
      "note": 59,
      "start": 81.1139,
      "duration": 0.0334,
      "velocity": 127,
      "chip": "ym2612"
    },
    {
      "channel": 3,
      "note": 52,
      "start": 81.1181,
      "duration": 0.1941,
      "velocity": 114,
      "chip": "ym2612"
    },
    {
      "channel": 4,
      "note": 40,
      "start": 81.119,
      "duration": 0.1941,
      "velocity": 110,
      "chip": "ym2612"
    },
    {
      "channel": 2,
      "note": 59,
      "start": 81.1476,
      "duration": 0.1614,
      "velocity": 127,
      "chip": "ym2612"
    },
    {
      "channel": 0,
      "note": 73,
      "start": 81.2104,
      "duration": 0.0961,
      "velocity": 123,
      "chip": "ym2612"
    },
    {
      "channel": 0,
      "note": 69,
      "start": 81.3067,
      "duration": 0.0961,
      "velocity": 123,
      "chip": "ym2612"
    },
    {
      "channel": 2,
      "note": 66,
      "start": 81.3092,
      "duration": 0.0946,
      "velocity": 127,
      "chip": "ym2612"
    },
    {
      "channel": 3,
      "note": 52,
      "start": 81.3124,
      "duration": 0.1907,
      "velocity": 114,
      "chip": "ym2612"
    },
    {
      "channel": 4,
      "note": 40,
      "start": 81.3133,
      "duration": 0.1907,
      "velocity": 110,
      "chip": "ym2612"
    },
    {
      "channel": 0,
      "note": 73,
      "start": 81.403,
      "duration": 0.0963,
      "velocity": 123,
      "chip": "ym2612"
    },
    {
      "channel": 2,
      "note": 66,
      "start": 81.4039,
      "duration": 0.0963,
      "velocity": 127,
      "chip": "ym2612"
    },
    {
      "channel": 0,
      "note": 69,
      "start": 81.4995,
      "duration": 0.0959,
      "velocity": 123,
      "chip": "ym2612"
    },
    {
      "channel": 2,
      "note": 66,
      "start": 81.5005,
      "duration": 0.0959,
      "velocity": 127,
      "chip": "ym2612"
    },
    {
      "channel": 3,
      "note": 52,
      "start": 81.5033,
      "duration": 0.1937,
      "velocity": 114,
      "chip": "ym2612"
    },
    {
      "channel": 0,
      "note": 73,
      "start": 81.5956,
      "duration": 0.0961,
      "velocity": 123,
      "chip": "ym2612"
    },
    {
      "channel": 2,
      "note": 66,
      "start": 81.5966,
      "duration": 0.0976,
      "velocity": 123,
      "chip": "ym2612"
    },
    {
      "channel": 0,
      "note": 69,
      "start": 81.692,
      "duration": 0.0961,
      "velocity": 123,
      "chip": "ym2612"
    },
    {
      "channel": 2,
      "note": 68,
      "start": 81.6944,
      "duration": 0.0946,
      "velocity": 123,
      "chip": "ym2612"
    },
    {
      "channel": 3,
      "note": 52,
      "start": 81.6973,
      "duration": 0.1931,
      "velocity": 114,
      "chip": "ym2612"
    },
    {
      "channel": 0,
      "note": 73,
      "start": 81.7883,
      "duration": 0.0961,
      "velocity": 123,
      "chip": "ym2612"
    },
    {
      "channel": 2,
      "note": 68,
      "start": 81.7893,
      "duration": 0.0975,
      "velocity": 107,
      "chip": "ym2612"
    },
    {
      "channel": 0,
      "note": 69,
      "start": 81.8846,
      "duration": 0.0961,
      "velocity": 123,
      "chip": "ym2612"
    },
    {
      "channel": 2,
      "note": 30,
      "start": 81.887,
      "duration": 0.0308,
      "velocity": 107,
      "chip": "ym2612"
    },
    {
      "channel": 3,
      "note": 52,
      "start": 81.8906,
      "duration": 0.1923,
      "velocity": 114,
      "chip": "ym2612"
    },
    {
      "channel": 4,
      "note": 40,
      "start": 81.8915,
      "duration": 0.1923,
      "velocity": 110,
      "chip": "ym2612"
    },
    {
      "channel": 2,
      "note": 30,
      "start": 81.918,
      "duration": 0.1615,
      "velocity": 123,
      "chip": "ym2612"
    },
    {
      "channel": 0,
      "note": 73,
      "start": 81.9808,
      "duration": 0.0961,
      "velocity": 123,
      "chip": "ym2612"
    },
    {
      "channel": 0,
      "note": 69,
      "start": 82.0772,
      "duration": 0.0961,
      "velocity": 123,
      "chip": "ym2612"
    },
    {
      "channel": 2,
      "note": 59,
      "start": 82.0797,
      "duration": 0.0946,
      "velocity": 123,
      "chip": "ym2612"
    },
    {
      "channel": 3,
      "note": 52,
      "start": 82.0831,
      "duration": 0.1925,
      "velocity": 114,
      "chip": "ym2612"
    },
    {
      "channel": 0,
      "note": 73,
      "start": 82.1734,
      "duration": 0.0961,
      "velocity": 123,
      "chip": "ym2612"
    },
    {
      "channel": 2,
      "note": 59,
      "start": 82.1744,
      "duration": 0.0976,
      "velocity": 107,
      "chip": "ym2612"
    },
    {
      "channel": 0,
      "note": 69,
      "start": 82.2698,
      "duration": 0.0962,
      "velocity": 123,
      "chip": "ym2612"
    },
    {
      "channel": 2,
      "note": 27,
      "start": 82.2723,
      "duration": 0.0308,
      "velocity": 107,
      "chip": "ym2612"
    },
    {
      "channel": 3,
      "note": 52,
      "start": 82.2758,
      "duration": 0.1923,
      "velocity": 114,
      "chip": "ym2612"
    },
    {
      "channel": 4,
      "note": 40,
      "start": 82.2767,
      "duration": 0.1923,
      "velocity": 110,
      "chip": "ym2612"
    },
    {
      "channel": 2,
      "note": 27,
      "start": 82.3033,
      "duration": 0.1621,
      "velocity": 127,
      "chip": "ym2612"
    },
    {
      "channel": 0,
      "note": 73,
      "start": 82.3662,
      "duration": 0.096,
      "velocity": 123,
      "chip": "ym2612"
    },
    {
      "channel": 0,
      "note": 69,
      "start": 82.4624,
      "duration": 0.0961,
      "velocity": 123,
      "chip": "ym2612"
    },
    {
      "channel": 2,
      "note": 59,
      "start": 82.4656,
      "duration": 0.0301,
      "velocity": 127,
      "chip": "ym2612"
    },
    {
      "channel": 3,
      "note": 52,
      "start": 82.4683,
      "duration": 0.1926,
      "velocity": 114,
      "chip": "ym2612"
    },
    {
      "channel": 2,
      "note": 59,
      "start": 82.4959,
      "duration": 0.1614,
      "velocity": 123,
      "chip": "ym2612"
    },
    {
      "channel": 0,
      "note": 73,
      "start": 82.5587,
      "duration": 0.0961,
      "velocity": 123,
      "chip": "ym2612"
    },
    {
      "channel": 0,
      "note": 69,
      "start": 82.655,
      "duration": 0.0961,
      "velocity": 123,
      "chip": "ym2612"
    },
    {
      "channel": 2,
      "note": 57,
      "start": 82.6576,
      "duration": 0.031,
      "velocity": 123,
      "chip": "ym2612"
    },
    {
      "channel": 3,
      "note": 52,
      "start": 82.6611,
      "duration": 0.1928,
      "velocity": 114,
      "chip": "ym2612"
    },
    {
      "channel": 4,
      "note": 40,
      "start": 82.662,
      "duration": 0.1928,
      "velocity": 110,
      "chip": "ym2612"
    },
    {
      "channel": 2,
      "note": 57,
      "start": 82.6888,
      "duration": 0.0328,
      "velocity": 123,
      "chip": "ym2612"
    },
    {
      "channel": 2,
      "note": 57,
      "start": 82.7218,
      "duration": 0.0305,
      "velocity": 123,
      "chip": "ym2612"
    },
    {
      "channel": 0,
      "note": 73,
      "start": 82.7513,
      "duration": 0.0961,
      "velocity": 123,
      "chip": "ym2612"
    },
    {
      "channel": 2,
      "note": 57,
      "start": 82.7526,
      "duration": 0.0322,
      "velocity": 123,
      "chip": "ym2612"
    },
    {
      "channel": 2,
      "note": 57,
      "start": 82.785,
      "duration": 0.0307,
      "velocity": 123,
      "chip": "ym2612"
    },
    {
      "channel": 2,
      "note": 57,
      "start": 82.8159,
      "duration": 0.0349,
      "velocity": 127,
      "chip": "ym2612"
    },
    {
      "channel": 0,
      "note": 69,
      "start": 82.8476,
      "duration": 0.0961,
      "velocity": 123,
      "chip": "ym2612"
    },
    {
      "channel": 2,
      "note": 64,
      "start": 82.851,
      "duration": 0.0937,
      "velocity": 127,
      "chip": "ym2612"
    },
    {
      "channel": 3,
      "note": 52,
      "start": 82.8542,
      "duration": 0.1896,
      "velocity": 114,
      "chip": "ym2612"
    },
    {
      "channel": 4,
      "note": 40,
      "start": 82.855,
      "duration": 0.1896,
      "velocity": 110,
      "chip": "ym2612"
    },
    {
      "channel": 0,
      "note": 73,
      "start": 82.9438,
      "duration": 0.0961,
      "velocity": 123,
      "chip": "ym2612"
    },
    {
      "channel": 2,
      "note": 64,
      "start": 82.9449,
      "duration": 0.0961,
      "velocity": 127,
      "chip": "ym2612"
    },
    {
      "channel": 0,
      "note": 69,
      "start": 83.0402,
      "duration": 0.096,
      "velocity": 123,
      "chip": "ym2612"
    },
    {
      "channel": 2,
      "note": 64,
      "start": 83.0412,
      "duration": 0.0961,
      "velocity": 127,
      "chip": "ym2612"
    },
    {
      "channel": 3,
      "note": 52,
      "start": 83.044,
      "duration": 0.1929,
      "velocity": 114,
      "chip": "ym2612"
    },
    {
      "channel": 0,
      "note": 73,
      "start": 83.1364,
      "duration": 0.0933,
      "velocity": 123,
      "chip": "ym2612"
    },
    {
      "channel": 2,
      "note": 64,
      "start": 83.1374,
      "duration": 0.0959,
      "velocity": 107,
      "chip": "ym2612"
    },
    {
      "channel": 0,
      "note": 69,
      "start": 83.2299,
      "duration": 0.099,
      "velocity": 123,
      "chip": "ym2612"
    },
    {
      "channel": 1,
      "note": 33,
      "start": 83.2306,
      "duration": 2.9573,
      "velocity": 98,
      "chip": "ym2612"
    },
    {
      "channel": 2,
      "note": 26,
      "start": 83.2335,
      "duration": 0.0329,
      "velocity": 107,
      "chip": "ym2612"
    },
    {
      "channel": 3,
      "note": 52,
      "start": 83.2372,
      "duration": 0.1933,
      "velocity": 114,
      "chip": "ym2612"
    },
    {
      "channel": 4,
      "note": 40,
      "start": 83.2381,
      "duration": 0.1939,
      "velocity": 110,
      "chip": "ym2612"
    },
    {
      "channel": 2,
      "note": 26,
      "start": 83.2666,
      "duration": 0.1611,
      "velocity": 127,
      "chip": "ym2612"
    },
    {
      "channel": 0,
      "note": 73,
      "start": 83.3291,
      "duration": 0.0961,
      "velocity": 123,
      "chip": "ym2612"
    },
    {
      "channel": 0,
      "note": 69,
      "start": 83.4254,
      "duration": 0.0961,
      "velocity": 123,
      "chip": "ym2612"
    },
    {
      "channel": 2,
      "note": 59,
      "start": 83.4279,
      "duration": 0.1924,
      "velocity": 127,
      "chip": "ym2612"
    },
    {
      "channel": 3,
      "note": 52,
      "start": 83.4307,
      "duration": 0.1924,
      "velocity": 114,
      "chip": "ym2612"
    },
    {
      "channel": 0,
      "note": 73,
      "start": 83.5217,
      "duration": 0.0961,
      "velocity": 123,
      "chip": "ym2612"
    },
    {
      "channel": 5,
      "note": 33,
      "start": 83.526,
      "duration": 2.9541,
      "velocity": 98,
      "chip": "ym2612"
    },
    {
      "channel": 0,
      "note": 69,
      "start": 83.618,
      "duration": 0.0961,
      "velocity": 123,
      "chip": "ym2612"
    },
    {
      "channel": 2,
      "note": 59,
      "start": 83.6205,
      "duration": 0.0308,
      "velocity": 127,
      "chip": "ym2612"
    },
    {
      "channel": 3,
      "note": 52,
      "start": 83.6234,
      "duration": 0.1936,
      "velocity": 114,
      "chip": "ym2612"
    },
    {
      "channel": 2,
      "note": 59,
      "start": 83.6515,
      "duration": 0.1613,
      "velocity": 127,
      "chip": "ym2612"
    },
    {
      "channel": 0,
      "note": 73,
      "start": 83.7143,
      "duration": 0.0961,
      "velocity": 123,
      "chip": "ym2612"
    },
    {
      "channel": 0,
      "note": 69,
      "start": 83.8106,
      "duration": 0.0961,
      "velocity": 123,
      "chip": "ym2612"
    },
    {
      "channel": 2,
      "note": 64,
      "start": 83.8131,
      "duration": 0.1926,
      "velocity": 123,
      "chip": "ym2612"
    },
    {
      "channel": 3,
      "note": 52,
      "start": 83.8172,
      "duration": 0.1912,
      "velocity": 114,
      "chip": "ym2612"
    },
    {
      "channel": 4,
      "note": 40,
      "start": 83.818,
      "duration": 0.1913,
      "velocity": 110,
      "chip": "ym2612"
    },
    {
      "channel": 0,
      "note": 73,
      "start": 83.9069,
      "duration": 0.0961,
      "velocity": 123,
      "chip": "ym2612"
    },
    {
      "channel": 0,
      "note": 69,
      "start": 84.0033,
      "duration": 0.0961,
      "velocity": 123,
      "chip": "ym2612"
    },
    {
      "channel": 2,
      "note": 57,
      "start": 84.0059,
      "duration": 0.031,
      "velocity": 123,
      "chip": "ym2612"
    },
    {
      "channel": 3,
      "note": 52,
      "start": 84.0087,
      "duration": 0.1938,
      "velocity": 114,
      "chip": "ym2612"
    },
    {
      "channel": 2,
      "note": 57,
      "start": 84.0371,
      "duration": 0.0327,
      "velocity": 123,
      "chip": "ym2612"
    },
    {
      "channel": 2,
      "note": 57,
      "start": 84.07,
      "duration": 0.0306,
      "velocity": 123,
      "chip": "ym2612"
    },
    {
      "channel": 0,
      "note": 73,
      "start": 84.0996,
      "duration": 0.096,
      "velocity": 123,
      "chip": "ym2612"
    },
    {
      "channel": 2,
      "note": 57,
      "start": 84.1009,
      "duration": 0.0323,
      "velocity": 123,
      "chip": "ym2612"
    },
    {
      "channel": 2,
      "note": 57,
      "start": 84.1335,
      "duration": 0.0298,
      "velocity": 123,
      "chip": "ym2612"
    },
    {
      "channel": 2,
      "note": 57,
      "start": 84.1636,
      "duration": 0.0354,
      "velocity": 127,
      "chip": "ym2612"
    },
    {
      "channel": 0,
      "note": 69,
      "start": 84.1959,
      "duration": 0.099,
      "velocity": 123,
      "chip": "ym2612"
    },
    {
      "channel": 2,
      "note": 59,
      "start": 84.1992,
      "duration": 0.0335,
      "velocity": 127,
      "chip": "ym2612"
    },
    {
      "channel": 3,
      "note": 52,
      "start": 84.2027,
      "duration": 0.1914,
      "velocity": 114,
      "chip": "ym2612"
    },
    {
      "channel": 4,
      "note": 40,
      "start": 84.2036,
      "duration": 0.1913,
      "velocity": 110,
      "chip": "ym2612"
    },
    {
      "channel": 2,
      "note": 59,
      "start": 84.233,
      "duration": 0.1579,
      "velocity": 127,
      "chip": "ym2612"
    },
    {
      "channel": 0,
      "note": 73,
      "start": 84.2951,
      "duration": 0.0933,
      "velocity": 123,
      "chip": "ym2612"
    },
    {
      "channel": 0,
      "note": 69,
      "start": 84.3886,
      "duration": 0.0989,
      "velocity": 123,
      "chip": "ym2612"
    },
    {
      "channel": 2,
      "note": 66,
      "start": 84.391,
      "duration": 0.0974,
      "velocity": 127,
      "chip": "ym2612"
    },
    {
      "channel": 3,
      "note": 52,
      "start": 84.3943,
      "duration": 0.1912,
      "velocity": 114,
      "chip": "ym2612"
    },
    {
      "channel": 4,
      "note": 40,
      "start": 84.3952,
      "duration": 0.1912,
      "velocity": 110,
      "chip": "ym2612"
    },
    {
      "channel": 0,
      "note": 73,
      "start": 84.4877,
      "duration": 0.0933,
      "velocity": 123,
      "chip": "ym2612"
    },
    {
      "channel": 2,
      "note": 66,
      "start": 84.4887,
      "duration": 0.0939,
      "velocity": 127,
      "chip": "ym2612"
    },
    {
      "channel": 0,
      "note": 69,
      "start": 84.5812,
      "duration": 0.0988,
      "velocity": 123,
      "chip": "ym2612"
    },
    {
      "channel": 2,
      "note": 66,
      "start": 84.5828,
      "duration": 0.0983,
      "velocity": 127,
      "chip": "ym2612"
    },
    {
      "channel": 3,
      "note": 52,
      "start": 84.5856,
      "duration": 0.1933,
      "velocity": 114,
      "chip": "ym2612"
    },
    {
      "channel": 0,
      "note": 73,
      "start": 84.6803,
      "duration": 0.0933,
      "velocity": 123,
      "chip": "ym2612"
    },
    {
      "channel": 2,
      "note": 66,
      "start": 84.682,
      "duration": 0.094,
      "velocity": 123,
      "chip": "ym2612"
    },
    {
      "channel": 0,
      "note": 69,
      "start": 84.7738,
      "duration": 0.0988,
      "velocity": 123,
      "chip": "ym2612"
    },
    {
      "channel": 2,
      "note": 68,
      "start": 84.7763,
      "duration": 0.0974,
      "velocity": 123,
      "chip": "ym2612"
    },
    {
      "channel": 3,
      "note": 52,
      "start": 84.7791,
      "duration": 0.1932,
      "velocity": 114,
      "chip": "ym2612"
    },
    {
      "channel": 0,
      "note": 73,
      "start": 84.8729,
      "duration": 0.0933,
      "velocity": 123,
      "chip": "ym2612"
    },
    {
      "channel": 2,
      "note": 68,
      "start": 84.8739,
      "duration": 0.0949,
      "velocity": 107,
      "chip": "ym2612"
    },
    {
      "channel": 0,
      "note": 69,
      "start": 84.9665,
      "duration": 0.0993,
      "velocity": 123,
      "chip": "ym2612"
    },
    {
      "channel": 2,
      "note": 30,
      "start": 84.969,
      "duration": 0.0335,
      "velocity": 107,
      "chip": "ym2612"
    },
    {
      "channel": 3,
      "note": 52,
      "start": 84.9725,
      "duration": 0.1916,
      "velocity": 114,
      "chip": "ym2612"
    },
    {
      "channel": 4,
      "note": 40,
      "start": 84.9734,
      "duration": 0.1923,
      "velocity": 110,
      "chip": "ym2612"
    },
    {
      "channel": 2,
      "note": 30,
      "start": 85.0027,
      "duration": 0.1586,
      "velocity": 123,
      "chip": "ym2612"
    },
    {
      "channel": 0,
      "note": 73,
      "start": 85.066,
      "duration": 0.0928,
      "velocity": 123,
      "chip": "ym2612"
    },
    {
      "channel": 0,
      "note": 69,
      "start": 85.159,
      "duration": 0.0989,
      "velocity": 123,
      "chip": "ym2612"
    },
    {
      "channel": 2,
      "note": 59,
      "start": 85.1615,
      "duration": 0.0974,
      "velocity": 123,
      "chip": "ym2612"
    },
    {
      "channel": 3,
      "note": 52,
      "start": 85.1643,
      "duration": 0.1931,
      "velocity": 114,
      "chip": "ym2612"
    },
    {
      "channel": 0,
      "note": 73,
      "start": 85.2582,
      "duration": 0.0932,
      "velocity": 123,
      "chip": "ym2612"
    },
    {
      "channel": 2,
      "note": 59,
      "start": 85.2591,
      "duration": 0.0948,
      "velocity": 107,
      "chip": "ym2612"
    },
    {
      "channel": 0,
      "note": 69,
      "start": 85.3516,
      "duration": 0.0989,
      "velocity": 123,
      "chip": "ym2612"
    },
    {
      "channel": 2,
      "note": 27,
      "start": 85.3541,
      "duration": 0.0337,
      "velocity": 107,
      "chip": "ym2612"
    },
    {
      "channel": 3,
      "note": 52,
      "start": 85.3576,
      "duration": 0.1924,
      "velocity": 114,
      "chip": "ym2612"
    },
    {
      "channel": 4,
      "note": 40,
      "start": 85.3585,
      "duration": 0.1924,
      "velocity": 110,
      "chip": "ym2612"
    },
    {
      "channel": 2,
      "note": 27,
      "start": 85.388,
      "duration": 0.1586,
      "velocity": 127,
      "chip": "ym2612"
    },
    {
      "channel": 0,
      "note": 73,
      "start": 85.4508,
      "duration": 0.0933,
      "velocity": 123,
      "chip": "ym2612"
    },
    {
      "channel": 0,
      "note": 69,
      "start": 85.5443,
      "duration": 0.0989,
      "velocity": 123,
      "chip": "ym2612"
    },
    {
      "channel": 2,
      "note": 59,
      "start": 85.5468,
      "duration": 0.0335,
      "velocity": 127,
      "chip": "ym2612"
    },
    {
      "channel": 3,
      "note": 52,
      "start": 85.5503,
      "duration": 0.1925,
      "velocity": 114,
      "chip": "ym2612"
    },
    {
      "channel": 2,
      "note": 59,
      "start": 85.5805,
      "duration": 0.1587,
      "velocity": 123,
      "chip": "ym2612"
    },
    {
      "channel": 0,
      "note": 73,
      "start": 85.6433,
      "duration": 0.0934,
      "velocity": 123,
      "chip": "ym2612"
    },
    {
      "channel": 0,
      "note": 69,
      "start": 85.7369,
      "duration": 0.0988,
      "velocity": 123,
      "chip": "ym2612"
    },
    {
      "channel": 2,
      "note": 57,
      "start": 85.7395,
      "duration": 0.0337,
      "velocity": 123,
      "chip": "ym2612"
    },
    {
      "channel": 3,
      "note": 52,
      "start": 85.7431,
      "duration": 0.1927,
      "velocity": 114,
      "chip": "ym2612"
    },
    {
      "channel": 4,
      "note": 40,
      "start": 85.744,
      "duration": 0.1927,
      "velocity": 110,
      "chip": "ym2612"
    },
    {
      "channel": 2,
      "note": 57,
      "start": 85.7735,
      "duration": 0.0299,
      "velocity": 123,
      "chip": "ym2612"
    },
    {
      "channel": 2,
      "note": 57,
      "start": 85.8036,
      "duration": 0.0334,
      "velocity": 123,
      "chip": "ym2612"
    },
    {
      "channel": 0,
      "note": 73,
      "start": 85.836,
      "duration": 0.0932,
      "velocity": 123,
      "chip": "ym2612"
    },
    {
      "channel": 2,
      "note": 57,
      "start": 85.8373,
      "duration": 0.0294,
      "velocity": 123,
      "chip": "ym2612"
    },
    {
      "channel": 2,
      "note": 57,
      "start": 85.8669,
      "duration": 0.033,
      "velocity": 123,
      "chip": "ym2612"
    },
    {
      "channel": 2,
      "note": 57,
      "start": 85.9001,
      "duration": 0.0324,
      "velocity": 127,
      "chip": "ym2612"
    },
    {
      "channel": 0,
      "note": 69,
      "start": 85.9295,
      "duration": 0.0989,
      "velocity": 123,
      "chip": "ym2612"
    },
    {
      "channel": 2,
      "note": 64,
      "start": 85.9328,
      "duration": 0.0966,
      "velocity": 127,
      "chip": "ym2612"
    },
    {
      "channel": 3,
      "note": 52,
      "start": 85.936,
      "duration": 0.1896,
      "velocity": 114,
      "chip": "ym2612"
    },
    {
      "channel": 4,
      "note": 40,
      "start": 85.9369,
      "duration": 0.1896,
      "velocity": 110,
      "chip": "ym2612"
    },
    {
      "channel": 0,
      "note": 73,
      "start": 86.0286,
      "duration": 0.0933,
      "velocity": 123,
      "chip": "ym2612"
    },
    {
      "channel": 2,
      "note": 64,
      "start": 86.0296,
      "duration": 0.0933,
      "velocity": 127,
      "chip": "ym2612"
    },
    {
      "channel": 0,
      "note": 69,
      "start": 86.1221,
      "duration": 0.0959,
      "velocity": 123,
      "chip": "ym2612"
    },
    {
      "channel": 2,
      "note": 64,
      "start": 86.123,
      "duration": 0.096,
      "velocity": 127,
      "chip": "ym2612"
    },
    {
      "channel": 3,
      "note": 52,
      "start": 86.1259,
      "duration": 0.1967,
      "velocity": 114,
      "chip": "ym2612"
    },
    {
      "channel": 0,
      "note": 73,
      "start": 86.2183,
      "duration": 0.0961,
      "velocity": 123,
      "chip": "ym2612"
    },
    {
      "channel": 2,
      "note": 64,
      "start": 86.2192,
      "duration": 0.0991,
      "velocity": 107,
      "chip": "ym2612"
    },
    {
      "channel": 0,
      "note": 69,
      "start": 86.3153,
      "duration": 0.0983,
      "velocity": 123,
      "chip": "ym2612"
    },
    {
      "channel": 1,
      "note": 29,
      "start": 86.3163,
      "duration": 2.9536,
      "velocity": 98,
      "chip": "ym2612"
    },
    {
      "channel": 2,
      "note": 26,
      "start": 86.3186,
      "duration": 0.0322,
      "velocity": 107,
      "chip": "ym2612"
    },
    {
      "channel": 3,
      "note": 53,
      "start": 86.3229,
      "duration": 0.1896,
      "velocity": 114,
      "chip": "ym2612"
    },
    {
      "channel": 4,
      "note": 41,
      "start": 86.324,
      "duration": 0.1893,
      "velocity": 110,
      "chip": "ym2612"
    },
    {
      "channel": 2,
      "note": 26,
      "start": 86.351,
      "duration": 0.1587,
      "velocity": 127,
      "chip": "ym2612"
    },
    {
      "channel": 0,
      "note": 73,
      "start": 86.4138,
      "duration": 0.0933,
      "velocity": 123,
      "chip": "ym2612"
    },
    {
      "channel": 0,
      "note": 69,
      "start": 86.5073,
      "duration": 0.0989,
      "velocity": 123,
      "chip": "ym2612"
    },
    {
      "channel": 2,
      "note": 59,
      "start": 86.5099,
      "duration": 0.1922,
      "velocity": 127,
      "chip": "ym2612"
    },
    {
      "channel": 3,
      "note": 53,
      "start": 86.5127,
      "duration": 0.1923,
      "velocity": 114,
      "chip": "ym2612"
    },
    {
      "channel": 0,
      "note": 73,
      "start": 86.6064,
      "duration": 0.0932,
      "velocity": 123,
      "chip": "ym2612"
    },
    {
      "channel": 5,
      "note": 29,
      "start": 86.6112,
      "duration": 2.9508,
      "velocity": 98,
      "chip": "ym2612"
    },
    {
      "channel": 0,
      "note": 69,
      "start": 86.6999,
      "duration": 0.0993,
      "velocity": 123,
      "chip": "ym2612"
    },
    {
      "channel": 2,
      "note": 59,
      "start": 86.7024,
      "duration": 0.0337,
      "velocity": 127,
      "chip": "ym2612"
    },
    {
      "channel": 3,
      "note": 53,
      "start": 86.7052,
      "duration": 0.1936,
      "velocity": 114,
      "chip": "ym2612"
    },
    {
      "channel": 2,
      "note": 59,
      "start": 86.7362,
      "duration": 0.1585,
      "velocity": 127,
      "chip": "ym2612"
    },
    {
      "channel": 0,
      "note": 73,
      "start": 86.7994,
      "duration": 0.0929,
      "velocity": 123,
      "chip": "ym2612"
    },
    {
      "channel": 0,
      "note": 69,
      "start": 86.8925,
      "duration": 0.0989,
      "velocity": 123,
      "chip": "ym2612"
    },
    {
      "channel": 2,
      "note": 64,
      "start": 86.8949,
      "duration": 0.1926,
      "velocity": 123,
      "chip": "ym2612"
    },
    {
      "channel": 3,
      "note": 53,
      "start": 86.899,
      "duration": 0.1913,
      "velocity": 114,
      "chip": "ym2612"
    },
    {
      "channel": 4,
      "note": 41,
      "start": 86.8999,
      "duration": 0.1913,
      "velocity": 110,
      "chip": "ym2612"
    },
    {
      "channel": 0,
      "note": 73,
      "start": 86.9916,
      "duration": 0.0933,
      "velocity": 123,
      "chip": "ym2612"
    },
    {
      "channel": 0,
      "note": 69,
      "start": 87.0851,
      "duration": 0.0989,
      "velocity": 123,
      "chip": "ym2612"
    },
    {
      "channel": 2,
      "note": 57,
      "start": 87.0877,
      "duration": 0.0338,
      "velocity": 123,
      "chip": "ym2612"
    },
    {
      "channel": 3,
      "note": 53,
      "start": 87.0905,
      "duration": 0.1939,
      "velocity": 114,
      "chip": "ym2612"
    },
    {
      "channel": 2,
      "note": 57,
      "start": 87.1218,
      "duration": 0.03,
      "velocity": 123,
      "chip": "ym2612"
    },
    {
      "channel": 2,
      "note": 57,
      "start": 87.152,
      "duration": 0.0333,
      "velocity": 123,
      "chip": "ym2612"
    },
    {
      "channel": 0,
      "note": 73,
      "start": 87.1842,
      "duration": 0.0933,
      "velocity": 123,
      "chip": "ym2612"
    },
    {
      "channel": 2,
      "note": 57,
      "start": 87.1855,
      "duration": 0.0302,
      "velocity": 123,
      "chip": "ym2612"
    },
    {
      "channel": 2,
      "note": 57,
      "start": 87.2159,
      "duration": 0.0328,
      "velocity": 123,
      "chip": "ym2612"
    },
    {
      "channel": 2,
      "note": 57,
      "start": 87.2488,
      "duration": 0.0314,
      "velocity": 127,
      "chip": "ym2612"
    },
    {
      "channel": 0,
      "note": 69,
      "start": 87.2778,
      "duration": 0.099,
      "velocity": 123,
      "chip": "ym2612"
    },
    {
      "channel": 2,
      "note": 59,
      "start": 87.2805,
      "duration": 0.0335,
      "velocity": 127,
      "chip": "ym2612"
    },
    {
      "channel": 3,
      "note": 53,
      "start": 87.2846,
      "duration": 0.1941,
      "velocity": 114,
      "chip": "ym2612"
    },
    {
      "channel": 4,
      "note": 41,
      "start": 87.2855,
      "duration": 0.1941,
      "velocity": 110,
      "chip": "ym2612"
    },
    {
      "channel": 2,
      "note": 59,
      "start": 87.3141,
      "duration": 0.1615,
      "velocity": 127,
      "chip": "ym2612"
    },
    {
      "channel": 0,
      "note": 73,
      "start": 87.3769,
      "duration": 0.0961,
      "velocity": 123,
      "chip": "ym2612"
    },
    {
      "channel": 0,
      "note": 69,
      "start": 87.4733,
      "duration": 0.0961,
      "velocity": 123,
      "chip": "ym2612"
    },
    {
      "channel": 2,
      "note": 66,
      "start": 87.4758,
      "duration": 0.0945,
      "velocity": 127,
      "chip": "ym2612"
    },
    {
      "channel": 3,
      "note": 53,
      "start": 87.479,
      "duration": 0.1908,
      "velocity": 114,
      "chip": "ym2612"
    },
    {
      "channel": 4,
      "note": 41,
      "start": 87.4798,
      "duration": 0.1908,
      "velocity": 110,
      "chip": "ym2612"
    },
    {
      "channel": 0,
      "note": 73,
      "start": 87.5695,
      "duration": 0.0964,
      "velocity": 123,
      "chip": "ym2612"
    },
    {
      "channel": 2,
      "note": 66,
      "start": 87.5706,
      "duration": 0.0964,
      "velocity": 127,
      "chip": "ym2612"
    },
    {
      "channel": 0,
      "note": 69,
      "start": 87.6662,
      "duration": 0.0957,
      "velocity": 123,
      "chip": "ym2612"
    },
    {
      "channel": 2,
      "note": 66,
      "start": 87.6672,
      "duration": 0.0957,
      "velocity": 127,
      "chip": "ym2612"
    },
    {
      "channel": 3,
      "note": 53,
      "start": 87.67,
      "duration": 0.1937,
      "velocity": 114,
      "chip": "ym2612"
    },
    {
      "channel": 0,
      "note": 73,
      "start": 87.7622,
      "duration": 0.0962,
      "velocity": 123,
      "chip": "ym2612"
    },
    {
      "channel": 2,
      "note": 66,
      "start": 87.7631,
      "duration": 0.0977,
      "velocity": 123,
      "chip": "ym2612"
    },
    {
      "channel": 0,
      "note": 69,
      "start": 87.8585,
      "duration": 0.0961,
      "velocity": 123,
      "chip": "ym2612"
    },
    {
      "channel": 2,
      "note": 68,
      "start": 87.861,
      "duration": 0.0946,
      "velocity": 123,
      "chip": "ym2612"
    },
    {
      "channel": 3,
      "note": 53,
      "start": 87.8638,
      "duration": 0.1931,
      "velocity": 114,
      "chip": "ym2612"
    },
    {
      "channel": 0,
      "note": 73,
      "start": 87.9549,
      "duration": 0.0961,
      "velocity": 123,
      "chip": "ym2612"
    },
    {
      "channel": 2,
      "note": 68,
      "start": 87.9558,
      "duration": 0.0976,
      "velocity": 107,
      "chip": "ym2612"
    },
    {
      "channel": 0,
      "note": 69,
      "start": 88.0511,
      "duration": 0.0961,
      "velocity": 123,
      "chip": "ym2612"
    },
    {
      "channel": 2,
      "note": 30,
      "start": 88.0536,
      "duration": 0.0308,
      "velocity": 107,
      "chip": "ym2612"
    },
    {
      "channel": 3,
      "note": 53,
      "start": 88.0571,
      "duration": 0.1924,
      "velocity": 114,
      "chip": "ym2612"
    },
    {
      "channel": 4,
      "note": 41,
      "start": 88.058,
      "duration": 0.1924,
      "velocity": 110,
      "chip": "ym2612"
    },
    {
      "channel": 2,
      "note": 30,
      "start": 88.0846,
      "duration": 0.1615,
      "velocity": 123,
      "chip": "ym2612"
    },
    {
      "channel": 0,
      "note": 73,
      "start": 88.1474,
      "duration": 0.0961,
      "velocity": 123,
      "chip": "ym2612"
    },
    {
      "channel": 0,
      "note": 69,
      "start": 88.2437,
      "duration": 0.0961,
      "velocity": 123,
      "chip": "ym2612"
    },
    {
      "channel": 2,
      "note": 59,
      "start": 88.2462,
      "duration": 0.0946,
      "velocity": 123,
      "chip": "ym2612"
    },
    {
      "channel": 3,
      "note": 53,
      "start": 88.2496,
      "duration": 0.1925,
      "velocity": 114,
      "chip": "ym2612"
    },
    {
      "channel": 0,
      "note": 73,
      "start": 88.34,
      "duration": 0.0961,
      "velocity": 123,
      "chip": "ym2612"
    },
    {
      "channel": 2,
      "note": 59,
      "start": 88.341,
      "duration": 0.0976,
      "velocity": 107,
      "chip": "ym2612"
    },
    {
      "channel": 0,
      "note": 69,
      "start": 88.4363,
      "duration": 0.0963,
      "velocity": 123,
      "chip": "ym2612"
    },
    {
      "channel": 2,
      "note": 27,
      "start": 88.4388,
      "duration": 0.0308,
      "velocity": 107,
      "chip": "ym2612"
    },
    {
      "channel": 3,
      "note": 53,
      "start": 88.4424,
      "duration": 0.1923,
      "velocity": 114,
      "chip": "ym2612"
    },
    {
      "channel": 4,
      "note": 41,
      "start": 88.4433,
      "duration": 0.1923,
      "velocity": 110,
      "chip": "ym2612"
    },
    {
      "channel": 2,
      "note": 27,
      "start": 88.4698,
      "duration": 0.1622,
      "velocity": 127,
      "chip": "ym2612"
    },
    {
      "channel": 0,
      "note": 73,
      "start": 88.5328,
      "duration": 0.0959,
      "velocity": 123,
      "chip": "ym2612"
    },
    {
      "channel": 0,
      "note": 69,
      "start": 88.629,
      "duration": 0.0961,
      "velocity": 123,
      "chip": "ym2612"
    },
    {
      "channel": 2,
      "note": 59,
      "start": 88.6322,
      "duration": 0.0301,
      "velocity": 127,
      "chip": "ym2612"
    },
    {
      "channel": 3,
      "note": 53,
      "start": 88.6349,
      "duration": 0.1925,
      "velocity": 114,
      "chip": "ym2612"
    },
    {
      "channel": 2,
      "note": 59,
      "start": 88.6625,
      "duration": 0.1615,
      "velocity": 123,
      "chip": "ym2612"
    },
    {
      "channel": 0,
      "note": 73,
      "start": 88.7253,
      "duration": 0.0961,
      "velocity": 123,
      "chip": "ym2612"
    },
    {
      "channel": 0,
      "note": 69,
      "start": 88.8215,
      "duration": 0.0961,
      "velocity": 123,
      "chip": "ym2612"
    },
    {
      "channel": 2,
      "note": 57,
      "start": 88.8241,
      "duration": 0.031,
      "velocity": 123,
      "chip": "ym2612"
    },
    {
      "channel": 3,
      "note": 53,
      "start": 88.8277,
      "duration": 0.1929,
      "velocity": 114,
      "chip": "ym2612"
    },
    {
      "channel": 4,
      "note": 41,
      "start": 88.8286,
      "duration": 0.1928,
      "velocity": 110,
      "chip": "ym2612"
    },
    {
      "channel": 2,
      "note": 57,
      "start": 88.8554,
      "duration": 0.0328,
      "velocity": 123,
      "chip": "ym2612"
    },
    {
      "channel": 2,
      "note": 57,
      "start": 88.8884,
      "duration": 0.0305,
      "velocity": 123,
      "chip": "ym2612"
    },
    {
      "channel": 0,
      "note": 73,
      "start": 88.9178,
      "duration": 0.0961,
      "velocity": 123,
      "chip": "ym2612"
    },
    {
      "channel": 2,
      "note": 57,
      "start": 88.9191,
      "duration": 0.0322,
      "velocity": 123,
      "chip": "ym2612"
    },
    {
      "channel": 2,
      "note": 57,
      "start": 88.9515,
      "duration": 0.0307,
      "velocity": 123,
      "chip": "ym2612"
    },
    {
      "channel": 2,
      "note": 57,
      "start": 88.9824,
      "duration": 0.0349,
      "velocity": 127,
      "chip": "ym2612"
    },
    {
      "channel": 0,
      "note": 69,
      "start": 89.0141,
      "duration": 0.0961,
      "velocity": 123,
      "chip": "ym2612"
    },
    {
      "channel": 2,
      "note": 64,
      "start": 89.0175,
      "duration": 0.0937,
      "velocity": 127,
      "chip": "ym2612"
    },
    {
      "channel": 3,
      "note": 53,
      "start": 89.0207,
      "duration": 0.1896,
      "velocity": 114,
      "chip": "ym2612"
    },
    {
      "channel": 4,
      "note": 41,
      "start": 89.0216,
      "duration": 0.1896,
      "velocity": 110,
      "chip": "ym2612"
    },
    {
      "channel": 0,
      "note": 73,
      "start": 89.1105,
      "duration": 0.0961,
      "velocity": 123,
      "chip": "ym2612"
    },
    {
      "channel": 2,
      "note": 64,
      "start": 89.1115,
      "duration": 0.0961,
      "velocity": 127,
      "chip": "ym2612"
    },
    {
      "channel": 0,
      "note": 69,
      "start": 89.2068,
      "duration": 0.096,
      "velocity": 123,
      "chip": "ym2612"
    },
    {
      "channel": 2,
      "note": 64,
      "start": 89.2078,
      "duration": 0.096,
      "velocity": 127,
      "chip": "ym2612"
    },
    {
      "channel": 3,
      "note": 53,
      "start": 89.2106,
      "duration": 0.1929,
      "velocity": 114,
      "chip": "ym2612"
    },
    {
      "channel": 0,
      "note": 73,
      "start": 89.3029,
      "duration": 0.0933,
      "velocity": 123,
      "chip": "ym2612"
    },
    {
      "channel": 2,
      "note": 64,
      "start": 89.3039,
      "duration": 0.0959,
      "velocity": 107,
      "chip": "ym2612"
    },
    {
      "channel": 0,
      "note": 69,
      "start": 89.3964,
      "duration": 0.099,
      "velocity": 123,
      "chip": "ym2612"
    },
    {
      "channel": 1,
      "note": 31,
      "start": 89.3971,
      "duration": 2.9574,
      "velocity": 98,
      "chip": "ym2612"
    },
    {
      "channel": 2,
      "note": 26,
      "start": 89.4001,
      "duration": 0.033,
      "velocity": 107,
      "chip": "ym2612"
    },
    {
      "channel": 3,
      "note": 53,
      "start": 89.4037,
      "duration": 0.1934,
      "velocity": 114,
      "chip": "ym2612"
    },
    {
      "channel": 4,
      "note": 41,
      "start": 89.4046,
      "duration": 0.194,
      "velocity": 110,
      "chip": "ym2612"
    },
    {
      "channel": 2,
      "note": 26,
      "start": 89.4333,
      "duration": 0.161,
      "velocity": 127,
      "chip": "ym2612"
    },
    {
      "channel": 0,
      "note": 73,
      "start": 89.4958,
      "duration": 0.0961,
      "velocity": 123,
      "chip": "ym2612"
    },
    {
      "channel": 0,
      "note": 69,
      "start": 89.592,
      "duration": 0.0961,
      "velocity": 123,
      "chip": "ym2612"
    },
    {
      "channel": 2,
      "note": 59,
      "start": 89.5945,
      "duration": 0.1923,
      "velocity": 127,
      "chip": "ym2612"
    },
    {
      "channel": 3,
      "note": 53,
      "start": 89.5973,
      "duration": 0.1924,
      "velocity": 114,
      "chip": "ym2612"
    },
    {
      "channel": 0,
      "note": 73,
      "start": 89.6883,
      "duration": 0.0961,
      "velocity": 123,
      "chip": "ym2612"
    },
    {
      "channel": 5,
      "note": 31,
      "start": 89.6926,
      "duration": 2.954,
      "velocity": 98,
      "chip": "ym2612"
    },
    {
      "channel": 0,
      "note": 69,
      "start": 89.7846,
      "duration": 0.0961,
      "velocity": 123,
      "chip": "ym2612"
    },
    {
      "channel": 2,
      "note": 59,
      "start": 89.787,
      "duration": 0.0309,
      "velocity": 127,
      "chip": "ym2612"
    },
    {
      "channel": 3,
      "note": 53,
      "start": 89.7899,
      "duration": 0.1937,
      "velocity": 114,
      "chip": "ym2612"
    },
    {
      "channel": 2,
      "note": 59,
      "start": 89.8181,
      "duration": 0.1613,
      "velocity": 127,
      "chip": "ym2612"
    },
    {
      "channel": 0,
      "note": 73,
      "start": 89.8809,
      "duration": 0.0961,
      "velocity": 123,
      "chip": "ym2612"
    },
    {
      "channel": 0,
      "note": 69,
      "start": 89.9772,
      "duration": 0.0961,
      "velocity": 123,
      "chip": "ym2612"
    },
    {
      "channel": 2,
      "note": 64,
      "start": 89.9797,
      "duration": 0.1926,
      "velocity": 123,
      "chip": "ym2612"
    },
    {
      "channel": 3,
      "note": 53,
      "start": 89.9837,
      "duration": 0.1912,
      "velocity": 114,
      "chip": "ym2612"
    },
    {
      "channel": 4,
      "note": 41,
      "start": 89.9846,
      "duration": 0.1912,
      "velocity": 110,
      "chip": "ym2612"
    },
    {
      "channel": 0,
      "note": 73,
      "start": 90.0735,
      "duration": 0.0962,
      "velocity": 123,
      "chip": "ym2612"
    },
    {
      "channel": 0,
      "note": 69,
      "start": 90.1699,
      "duration": 0.0962,
      "velocity": 123,
      "chip": "ym2612"
    },
    {
      "channel": 2,
      "note": 57,
      "start": 90.1725,
      "duration": 0.031,
      "velocity": 123,
      "chip": "ym2612"
    },
    {
      "channel": 3,
      "note": 53,
      "start": 90.1752,
      "duration": 0.1939,
      "velocity": 114,
      "chip": "ym2612"
    },
    {
      "channel": 2,
      "note": 57,
      "start": 90.2036,
      "duration": 0.0328,
      "velocity": 123,
      "chip": "ym2612"
    },
    {
      "channel": 2,
      "note": 57,
      "start": 90.2366,
      "duration": 0.0307,
      "velocity": 123,
      "chip": "ym2612"
    },
    {
      "channel": 0,
      "note": 73,
      "start": 90.2662,
      "duration": 0.096,
      "velocity": 123,
      "chip": "ym2612"
    },
    {
      "channel": 2,
      "note": 57,
      "start": 90.2675,
      "duration": 0.0324,
      "velocity": 123,
      "chip": "ym2612"
    },
    {
      "channel": 2,
      "note": 57,
      "start": 90.3001,
      "duration": 0.0298,
      "velocity": 123,
      "chip": "ym2612"
    },
    {
      "channel": 2,
      "note": 57,
      "start": 90.3301,
      "duration": 0.0354,
      "velocity": 127,
      "chip": "ym2612"
    },
    {
      "channel": 0,
      "note": 69,
      "start": 90.3624,
      "duration": 0.099,
      "velocity": 123,
      "chip": "ym2612"
    },
    {
      "channel": 2,
      "note": 59,
      "start": 90.3658,
      "duration": 0.0335,
      "velocity": 127,
      "chip": "ym2612"
    },
    {
      "channel": 3,
      "note": 53,
      "start": 90.3693,
      "duration": 0.1913,
      "velocity": 114,
      "chip": "ym2612"
    },
    {
      "channel": 4,
      "note": 41,
      "start": 90.3702,
      "duration": 0.1913,
      "velocity": 110,
      "chip": "ym2612"
    },
    {
      "channel": 2,
      "note": 59,
      "start": 90.3995,
      "duration": 0.1579,
      "velocity": 127,
      "chip": "ym2612"
    },
    {
      "channel": 0,
      "note": 73,
      "start": 90.4617,
      "duration": 0.0933,
      "velocity": 123,
      "chip": "ym2612"
    },
    {
      "channel": 0,
      "note": 69,
      "start": 90.5551,
      "duration": 0.0989,
      "velocity": 123,
      "chip": "ym2612"
    },
    {
      "channel": 2,
      "note": 66,
      "start": 90.5576,
      "duration": 0.0975,
      "velocity": 127,
      "chip": "ym2612"
    },
    {
      "channel": 3,
      "note": 53,
      "start": 90.5608,
      "duration": 0.1912,
      "velocity": 114,
      "chip": "ym2612"
    },
    {
      "channel": 4,
      "note": 41,
      "start": 90.5617,
      "duration": 0.1912,
      "velocity": 110,
      "chip": "ym2612"
    },
    {
      "channel": 0,
      "note": 73,
      "start": 90.6543,
      "duration": 0.0933,
      "velocity": 123,
      "chip": "ym2612"
    },
    {
      "channel": 2,
      "note": 66,
      "start": 90.6552,
      "duration": 0.0939,
      "velocity": 127,
      "chip": "ym2612"
    },
    {
      "channel": 0,
      "note": 69,
      "start": 90.7477,
      "duration": 0.0989,
      "velocity": 123,
      "chip": "ym2612"
    },
    {
      "channel": 2,
      "note": 66,
      "start": 90.7494,
      "duration": 0.0983,
      "velocity": 127,
      "chip": "ym2612"
    },
    {
      "channel": 3,
      "note": 53,
      "start": 90.7522,
      "duration": 0.1933,
      "velocity": 114,
      "chip": "ym2612"
    },
    {
      "channel": 0,
      "note": 73,
      "start": 90.8468,
      "duration": 0.0934,
      "velocity": 123,
      "chip": "ym2612"
    },
    {
      "channel": 2,
      "note": 66,
      "start": 90.8479,
      "duration": 0.0947,
      "velocity": 123,
      "chip": "ym2612"
    },
    {
      "channel": 0,
      "note": 69,
      "start": 90.9404,
      "duration": 0.0988,
      "velocity": 123,
      "chip": "ym2612"
    },
    {
      "channel": 2,
      "note": 68,
      "start": 90.9429,
      "duration": 0.0973,
      "velocity": 123,
      "chip": "ym2612"
    },
    {
      "channel": 3,
      "note": 53,
      "start": 90.9457,
      "duration": 0.1931,
      "velocity": 114,
      "chip": "ym2612"
    },
    {
      "channel": 0,
      "note": 73,
      "start": 91.0395,
      "duration": 0.0934,
      "velocity": 123,
      "chip": "ym2612"
    },
    {
      "channel": 2,
      "note": 68,
      "start": 91.0405,
      "duration": 0.0948,
      "velocity": 107,
      "chip": "ym2612"
    },
    {
      "channel": 0,
      "note": 69,
      "start": 91.133,
      "duration": 0.0994,
      "velocity": 123,
      "chip": "ym2612"
    },
    {
      "channel": 2,
      "note": 30,
      "start": 91.1355,
      "duration": 0.0336,
      "velocity": 107,
      "chip": "ym2612"
    },
    {
      "channel": 3,
      "note": 53,
      "start": 91.1391,
      "duration": 0.1915,
      "velocity": 114,
      "chip": "ym2612"
    },
    {
      "channel": 4,
      "note": 41,
      "start": 91.1399,
      "duration": 0.1923,
      "velocity": 110,
      "chip": "ym2612"
    },
    {
      "channel": 2,
      "note": 30,
      "start": 91.1693,
      "duration": 0.1586,
      "velocity": 123,
      "chip": "ym2612"
    },
    {
      "channel": 0,
      "note": 73,
      "start": 91.2327,
      "duration": 0.0927,
      "velocity": 123,
      "chip": "ym2612"
    },
    {
      "channel": 0,
      "note": 69,
      "start": 91.3256,
      "duration": 0.0989,
      "velocity": 123,
      "chip": "ym2612"
    },
    {
      "channel": 2,
      "note": 59,
      "start": 91.3281,
      "duration": 0.0974,
      "velocity": 123,
      "chip": "ym2612"
    },
    {
      "channel": 3,
      "note": 53,
      "start": 91.3309,
      "duration": 0.1931,
      "velocity": 114,
      "chip": "ym2612"
    },
    {
      "channel": 0,
      "note": 73,
      "start": 91.4247,
      "duration": 0.0933,
      "velocity": 123,
      "chip": "ym2612"
    },
    {
      "channel": 2,
      "note": 59,
      "start": 91.4256,
      "duration": 0.0948,
      "velocity": 107,
      "chip": "ym2612"
    },
    {
      "channel": 0,
      "note": 69,
      "start": 91.5182,
      "duration": 0.0988,
      "velocity": 123,
      "chip": "ym2612"
    },
    {
      "channel": 2,
      "note": 27,
      "start": 91.5207,
      "duration": 0.0336,
      "velocity": 107,
      "chip": "ym2612"
    },
    {
      "channel": 3,
      "note": 53,
      "start": 91.5242,
      "duration": 0.1923,
      "velocity": 114,
      "chip": "ym2612"
    },
    {
      "channel": 4,
      "note": 41,
      "start": 91.5251,
      "duration": 0.1923,
      "velocity": 110,
      "chip": "ym2612"
    },
    {
      "channel": 2,
      "note": 27,
      "start": 91.5545,
      "duration": 0.1586,
      "velocity": 127,
      "chip": "ym2612"
    },
    {
      "channel": 0,
      "note": 73,
      "start": 91.6173,
      "duration": 0.0933,
      "velocity": 123,
      "chip": "ym2612"
    },
    {
      "channel": 0,
      "note": 69,
      "start": 91.7108,
      "duration": 0.0989,
      "velocity": 123,
      "chip": "ym2612"
    },
    {
      "channel": 2,
      "note": 59,
      "start": 91.7134,
      "duration": 0.0335,
      "velocity": 127,
      "chip": "ym2612"
    },
    {
      "channel": 3,
      "note": 53,
      "start": 91.7168,
      "duration": 0.1926,
      "velocity": 114,
      "chip": "ym2612"
    },
    {
      "channel": 2,
      "note": 59,
      "start": 91.7471,
      "duration": 0.1587,
      "velocity": 123,
      "chip": "ym2612"
    },
    {
      "channel": 0,
      "note": 73,
      "start": 91.8099,
      "duration": 0.0933,
      "velocity": 123,
      "chip": "ym2612"
    },
    {
      "channel": 0,
      "note": 69,
      "start": 91.9034,
      "duration": 0.0988,
      "velocity": 123,
      "chip": "ym2612"
    },
    {
      "channel": 2,
      "note": 57,
      "start": 91.9061,
      "duration": 0.0337,
      "velocity": 123,
      "chip": "ym2612"
    },
    {
      "channel": 3,
      "note": 53,
      "start": 91.9096,
      "duration": 0.1927,
      "velocity": 114,
      "chip": "ym2612"
    },
    {
      "channel": 4,
      "note": 41,
      "start": 91.9105,
      "duration": 0.1928,
      "velocity": 110,
      "chip": "ym2612"
    },
    {
      "channel": 2,
      "note": 57,
      "start": 91.94,
      "duration": 0.03,
      "velocity": 123,
      "chip": "ym2612"
    },
    {
      "channel": 2,
      "note": 57,
      "start": 91.9702,
      "duration": 0.0333,
      "velocity": 123,
      "chip": "ym2612"
    },
    {
      "channel": 0,
      "note": 73,
      "start": 92.0026,
      "duration": 0.0932,
      "velocity": 123,
      "chip": "ym2612"
    },
    {
      "channel": 2,
      "note": 57,
      "start": 92.0038,
      "duration": 0.0295,
      "velocity": 123,
      "chip": "ym2612"
    },
    {
      "channel": 2,
      "note": 57,
      "start": 92.0335,
      "duration": 0.033,
      "velocity": 123,
      "chip": "ym2612"
    },
    {
      "channel": 2,
      "note": 57,
      "start": 92.0668,
      "duration": 0.0324,
      "velocity": 127,
      "chip": "ym2612"
    },
    {
      "channel": 0,
      "note": 69,
      "start": 92.096,
      "duration": 0.0989,
      "velocity": 123,
      "chip": "ym2612"
    },
    {
      "channel": 2,
      "note": 64,
      "start": 92.0994,
      "duration": 0.0966,
      "velocity": 127,
      "chip": "ym2612"
    },
    {
      "channel": 3,
      "note": 53,
      "start": 92.1026,
      "duration": 0.1896,
      "velocity": 114,
      "chip": "ym2612"
    },
    {
      "channel": 4,
      "note": 41,
      "start": 92.1034,
      "duration": 0.1897,
      "velocity": 110,
      "chip": "ym2612"
    },
    {
      "channel": 0,
      "note": 73,
      "start": 92.1951,
      "duration": 0.0933,
      "velocity": 123,
      "chip": "ym2612"
    },
    {
      "channel": 2,
      "note": 64,
      "start": 92.1961,
      "duration": 0.0933,
      "velocity": 127,
      "chip": "ym2612"
    },
    {
      "channel": 0,
      "note": 69,
      "start": 92.2886,
      "duration": 0.096,
      "velocity": 123,
      "chip": "ym2612"
    },
    {
      "channel": 2,
      "note": 64,
      "start": 92.2896,
      "duration": 0.096,
      "velocity": 127,
      "chip": "ym2612"
    },
    {
      "channel": 3,
      "note": 53,
      "start": 92.2924,
      "duration": 0.196,
      "velocity": 114,
      "chip": "ym2612"
    },
    {
      "channel": 0,
      "note": 73,
      "start": 92.3848,
      "duration": 0.0962,
      "velocity": 123,
      "chip": "ym2612"
    },
    {
      "channel": 2,
      "note": 64,
      "start": 92.3858,
      "duration": 0.099,
      "velocity": 107,
      "chip": "ym2612"
    },
    {
      "channel": 0,
      "note": 69,
      "start": 92.4813,
      "duration": 0.0988,
      "velocity": 123,
      "chip": "ym2612"
    },
    {
      "channel": 1,
      "note": 32,
      "start": 92.4828,
      "duration": 2.9536,
      "velocity": 98,
      "chip": "ym2612"
    },
    {
      "channel": 2,
      "note": 26,
      "start": 92.485,
      "duration": 0.0324,
      "velocity": 107,
      "chip": "ym2612"
    },
    {
      "channel": 3,
      "note": 53,
      "start": 92.4886,
      "duration": 0.1903,
      "velocity": 114,
      "chip": "ym2612"
    },
    {
      "channel": 4,
      "note": 41,
      "start": 92.4896,
      "duration": 0.1903,
      "velocity": 110,
      "chip": "ym2612"
    },
    {
      "channel": 2,
      "note": 26,
      "start": 92.5176,
      "duration": 0.1586,
      "velocity": 127,
      "chip": "ym2612"
    },
    {
      "channel": 0,
      "note": 73,
      "start": 92.5804,
      "duration": 0.0933,
      "velocity": 123,
      "chip": "ym2612"
    },
    {
      "channel": 0,
      "note": 69,
      "start": 92.6739,
      "duration": 0.0989,
      "velocity": 123,
      "chip": "ym2612"
    },
    {
      "channel": 2,
      "note": 59,
      "start": 92.6764,
      "duration": 0.1923,
      "velocity": 127,
      "chip": "ym2612"
    },
    {
      "channel": 3,
      "note": 53,
      "start": 92.6792,
      "duration": 0.1923,
      "velocity": 114,
      "chip": "ym2612"
    },
    {
      "channel": 0,
      "note": 73,
      "start": 92.773,
      "duration": 0.0933,
      "velocity": 123,
      "chip": "ym2612"
    },
    {
      "channel": 5,
      "note": 32,
      "start": 92.7774,
      "duration": 2.9511,
      "velocity": 98,
      "chip": "ym2612"
    },
    {
      "channel": 0,
      "note": 69,
      "start": 92.8664,
      "duration": 0.0994,
      "velocity": 123,
      "chip": "ym2612"
    },
    {
      "channel": 2,
      "note": 59,
      "start": 92.8689,
      "duration": 0.0337,
      "velocity": 127,
      "chip": "ym2612"
    },
    {
      "channel": 3,
      "note": 53,
      "start": 92.8718,
      "duration": 0.1936,
      "velocity": 114,
      "chip": "ym2612"
    },
    {
      "channel": 2,
      "note": 59,
      "start": 92.9028,
      "duration": 0.1585,
      "velocity": 127,
      "chip": "ym2612"
    },
    {
      "channel": 0,
      "note": 73,
      "start": 92.966,
      "duration": 0.0928,
      "velocity": 123,
      "chip": "ym2612"
    },
    {
      "channel": 0,
      "note": 69,
      "start": 93.0591,
      "duration": 0.0988,
      "velocity": 123,
      "chip": "ym2612"
    },
    {
      "channel": 2,
      "note": 64,
      "start": 93.0615,
      "duration": 0.1926,
      "velocity": 123,
      "chip": "ym2612"
    },
    {
      "channel": 3,
      "note": 53,
      "start": 93.0656,
      "duration": 0.1912,
      "velocity": 114,
      "chip": "ym2612"
    },
    {
      "channel": 4,
      "note": 41,
      "start": 93.0665,
      "duration": 0.1912,
      "velocity": 110,
      "chip": "ym2612"
    },
    {
      "channel": 0,
      "note": 73,
      "start": 93.1582,
      "duration": 0.0933,
      "velocity": 123,
      "chip": "ym2612"
    },
    {
      "channel": 0,
      "note": 69,
      "start": 93.2517,
      "duration": 0.0989,
      "velocity": 123,
      "chip": "ym2612"
    },
    {
      "channel": 2,
      "note": 57,
      "start": 93.2543,
      "duration": 0.0337,
      "velocity": 123,
      "chip": "ym2612"
    },
    {
      "channel": 3,
      "note": 53,
      "start": 93.2571,
      "duration": 0.1939,
      "velocity": 114,
      "chip": "ym2612"
    },
    {
      "channel": 2,
      "note": 57,
      "start": 93.2883,
      "duration": 0.03,
      "velocity": 123,
      "chip": "ym2612"
    },
    {
      "channel": 2,
      "note": 57,
      "start": 93.3186,
      "duration": 0.0333,
      "velocity": 123,
      "chip": "ym2612"
    },
    {
      "channel": 0,
      "note": 73,
      "start": 93.3508,
      "duration": 0.0934,
      "velocity": 123,
      "chip": "ym2612"
    },
    {
      "channel": 2,
      "note": 57,
      "start": 93.3521,
      "duration": 0.0301,
      "velocity": 123,
      "chip": "ym2612"
    },
    {
      "channel": 2,
      "note": 57,
      "start": 93.3824,
      "duration": 0.0322,
      "velocity": 123,
      "chip": "ym2612"
    },
    {
      "channel": 2,
      "note": 57,
      "start": 93.4154,
      "duration": 0.0314,
      "velocity": 127,
      "chip": "ym2612"
    },
    {
      "channel": 0,
      "note": 69,
      "start": 93.4444,
      "duration": 0.0989,
      "velocity": 123,
      "chip": "ym2612"
    },
    {
      "channel": 2,
      "note": 59,
      "start": 93.4471,
      "duration": 0.0334,
      "velocity": 127,
      "chip": "ym2612"
    },
    {
      "channel": 3,
      "note": 53,
      "start": 93.4512,
      "duration": 0.1941,
      "velocity": 114,
      "chip": "ym2612"
    },
    {
      "channel": 4,
      "note": 41,
      "start": 93.4521,
      "duration": 0.1941,
      "velocity": 110,
      "chip": "ym2612"
    },
    {
      "channel": 2,
      "note": 59,
      "start": 93.4807,
      "duration": 0.1615,
      "velocity": 127,
      "chip": "ym2612"
    },
    {
      "channel": 0,
      "note": 73,
      "start": 93.5435,
      "duration": 0.0961,
      "velocity": 123,
      "chip": "ym2612"
    },
    {
      "channel": 0,
      "note": 69,
      "start": 93.6398,
      "duration": 0.0961,
      "velocity": 123,
      "chip": "ym2612"
    },
    {
      "channel": 2,
      "note": 66,
      "start": 93.6423,
      "duration": 0.0946,
      "velocity": 127,
      "chip": "ym2612"
    },
    {
      "channel": 3,
      "note": 53,
      "start": 93.6456,
      "duration": 0.1908,
      "velocity": 114,
      "chip": "ym2612"
    },
    {
      "channel": 4,
      "note": 41,
      "start": 93.6464,
      "duration": 0.1909,
      "velocity": 110,
      "chip": "ym2612"
    },
    {
      "channel": 0,
      "note": 73,
      "start": 93.7361,
      "duration": 0.0965,
      "velocity": 123,
      "chip": "ym2612"
    },
    {
      "channel": 2,
      "note": 66,
      "start": 93.7371,
      "duration": 0.0965,
      "velocity": 127,
      "chip": "ym2612"
    },
    {
      "channel": 0,
      "note": 69,
      "start": 93.8328,
      "duration": 0.0957,
      "velocity": 123,
      "chip": "ym2612"
    },
    {
      "channel": 2,
      "note": 66,
      "start": 93.8338,
      "duration": 0.0957,
      "velocity": 127,
      "chip": "ym2612"
    },
    {
      "channel": 3,
      "note": 53,
      "start": 93.8366,
      "duration": 0.1935,
      "velocity": 114,
      "chip": "ym2612"
    },
    {
      "channel": 0,
      "note": 73,
      "start": 93.9287,
      "duration": 0.0962,
      "velocity": 123,
      "chip": "ym2612"
    },
    {
      "channel": 2,
      "note": 66,
      "start": 93.9297,
      "duration": 0.0976,
      "velocity": 123,
      "chip": "ym2612"
    },
    {
      "channel": 0,
      "note": 69,
      "start": 94.0251,
      "duration": 0.0961,
      "velocity": 123,
      "chip": "ym2612"
    },
    {
      "channel": 2,
      "note": 68,
      "start": 94.0276,
      "duration": 0.0947,
      "velocity": 123,
      "chip": "ym2612"
    },
    {
      "channel": 3,
      "note": 53,
      "start": 94.0304,
      "duration": 0.1931,
      "velocity": 114,
      "chip": "ym2612"
    },
    {
      "channel": 0,
      "note": 73,
      "start": 94.1214,
      "duration": 0.0961,
      "velocity": 123,
      "chip": "ym2612"
    },
    {
      "channel": 2,
      "note": 68,
      "start": 94.1224,
      "duration": 0.0975,
      "velocity": 107,
      "chip": "ym2612"
    },
    {
      "channel": 0,
      "note": 69,
      "start": 94.2176,
      "duration": 0.0961,
      "velocity": 123,
      "chip": "ym2612"
    },
    {
      "channel": 2,
      "note": 30,
      "start": 94.2202,
      "duration": 0.0307,
      "velocity": 107,
      "chip": "ym2612"
    },
    {
      "channel": 3,
      "note": 53,
      "start": 94.2237,
      "duration": 0.1923,
      "velocity": 114,
      "chip": "ym2612"
    },
    {
      "channel": 4,
      "note": 41,
      "start": 94.2246,
      "duration": 0.1923,
      "velocity": 110,
      "chip": "ym2612"
    },
    {
      "channel": 2,
      "note": 30,
      "start": 94.2512,
      "duration": 0.1614,
      "velocity": 123,
      "chip": "ym2612"
    },
    {
      "channel": 0,
      "note": 73,
      "start": 94.3139,
      "duration": 0.0961,
      "velocity": 123,
      "chip": "ym2612"
    },
    {
      "channel": 0,
      "note": 69,
      "start": 94.4102,
      "duration": 0.0961,
      "velocity": 123,
      "chip": "ym2612"
    },
    {
      "channel": 2,
      "note": 59,
      "start": 94.4128,
      "duration": 0.0945,
      "velocity": 123,
      "chip": "ym2612"
    },
    {
      "channel": 3,
      "note": 53,
      "start": 94.4162,
      "duration": 0.1925,
      "velocity": 114,
      "chip": "ym2612"
    },
    {
      "channel": 0,
      "note": 73,
      "start": 94.5066,
      "duration": 0.0961,
      "velocity": 123,
      "chip": "ym2612"
    },
    {
      "channel": 2,
      "note": 59,
      "start": 94.5075,
      "duration": 0.0976,
      "velocity": 107,
      "chip": "ym2612"
    },
    {
      "channel": 0,
      "note": 69,
      "start": 94.6029,
      "duration": 0.0964,
      "velocity": 123,
      "chip": "ym2612"
    },
    {
      "channel": 2,
      "note": 27,
      "start": 94.6054,
      "duration": 0.0308,
      "velocity": 107,
      "chip": "ym2612"
    },
    {
      "channel": 3,
      "note": 53,
      "start": 94.6089,
      "duration": 0.1924,
      "velocity": 114,
      "chip": "ym2612"
    },
    {
      "channel": 4,
      "note": 41,
      "start": 94.6098,
      "duration": 0.1924,
      "velocity": 110,
      "chip": "ym2612"
    },
    {
      "channel": 2,
      "note": 27,
      "start": 94.6363,
      "duration": 0.1616,
      "velocity": 127,
      "chip": "ym2612"
    },
    {
      "channel": 0,
      "note": 73,
      "start": 94.6995,
      "duration": 0.0958,
      "velocity": 123,
      "chip": "ym2612"
    },
    {
      "channel": 0,
      "note": 69,
      "start": 94.7956,
      "duration": 0.0961,
      "velocity": 123,
      "chip": "ym2612"
    },
    {
      "channel": 2,
      "note": 59,
      "start": 94.7987,
      "duration": 0.0301,
      "velocity": 127,
      "chip": "ym2612"
    },
    {
      "channel": 3,
      "note": 53,
      "start": 94.8015,
      "duration": 0.1926,
      "velocity": 114,
      "chip": "ym2612"
    },
    {
      "channel": 2,
      "note": 59,
      "start": 94.829,
      "duration": 0.1615,
      "velocity": 123,
      "chip": "ym2612"
    },
    {
      "channel": 0,
      "note": 73,
      "start": 94.8918,
      "duration": 0.0961,
      "velocity": 123,
      "chip": "ym2612"
    },
    {
      "channel": 0,
      "note": 69,
      "start": 94.9881,
      "duration": 0.0961,
      "velocity": 123,
      "chip": "ym2612"
    },
    {
      "channel": 2,
      "note": 57,
      "start": 94.9907,
      "duration": 0.031,
      "velocity": 123,
      "chip": "ym2612"
    },
    {
      "channel": 3,
      "note": 53,
      "start": 94.9942,
      "duration": 0.1929,
      "velocity": 114,
      "chip": "ym2612"
    },
    {
      "channel": 4,
      "note": 41,
      "start": 94.9951,
      "duration": 0.1929,
      "velocity": 110,
      "chip": "ym2612"
    },
    {
      "channel": 2,
      "note": 57,
      "start": 95.0218,
      "duration": 0.0328,
      "velocity": 123,
      "chip": "ym2612"
    },
    {
      "channel": 2,
      "note": 57,
      "start": 95.0549,
      "duration": 0.0305,
      "velocity": 123,
      "chip": "ym2612"
    },
    {
      "channel": 0,
      "note": 73,
      "start": 95.0844,
      "duration": 0.0961,
      "velocity": 123,
      "chip": "ym2612"
    },
    {
      "channel": 2,
      "note": 57,
      "start": 95.0857,
      "duration": 0.0322,
      "velocity": 123,
      "chip": "ym2612"
    },
    {
      "channel": 2,
      "note": 57,
      "start": 95.1181,
      "duration": 0.0306,
      "velocity": 123,
      "chip": "ym2612"
    },
    {
      "channel": 2,
      "note": 57,
      "start": 95.1489,
      "duration": 0.0349,
      "velocity": 127,
      "chip": "ym2612"
    },
    {
      "channel": 0,
      "note": 69,
      "start": 95.1807,
      "duration": 0.0961,
      "velocity": 123,
      "chip": "ym2612"
    },
    {
      "channel": 2,
      "note": 64,
      "start": 95.1841,
      "duration": 0.0937,
      "velocity": 127,
      "chip": "ym2612"
    },
    {
      "channel": 3,
      "note": 53,
      "start": 95.1873,
      "duration": 0.1896,
      "velocity": 114,
      "chip": "ym2612"
    },
    {
      "channel": 4,
      "note": 41,
      "start": 95.1882,
      "duration": 0.1896,
      "velocity": 110,
      "chip": "ym2612"
    },
    {
      "channel": 0,
      "note": 73,
      "start": 95.277,
      "duration": 0.0961,
      "velocity": 123,
      "chip": "ym2612"
    },
    {
      "channel": 2,
      "note": 64,
      "start": 95.278,
      "duration": 0.0961,
      "velocity": 127,
      "chip": "ym2612"
    },
    {
      "channel": 0,
      "note": 69,
      "start": 95.3733,
      "duration": 0.096,
      "velocity": 123,
      "chip": "ym2612"
    },
    {
      "channel": 2,
      "note": 64,
      "start": 95.3743,
      "duration": 0.096,
      "velocity": 127,
      "chip": "ym2612"
    },
    {
      "channel": 3,
      "note": 53,
      "start": 95.3771,
      "duration": 0.193,
      "velocity": 114,
      "chip": "ym2612"
    },
    {
      "channel": 0,
      "note": 73,
      "start": 95.4695,
      "duration": 0.0933,
      "velocity": 123,
      "chip": "ym2612"
    },
    {
      "channel": 2,
      "note": 64,
      "start": 95.4705,
      "duration": 0.0959,
      "velocity": 107,
      "chip": "ym2612"
    },
    {
      "channel": 0,
      "note": 69,
      "start": 95.5631,
      "duration": 0.099,
      "velocity": 123,
      "chip": "ym2612"
    },
    {
      "channel": 1,
      "note": 34,
      "start": 95.5637,
      "duration": 2.9575,
      "velocity": 98,
      "chip": "ym2612"
    },
    {
      "channel": 2,
      "note": 26,
      "start": 95.5666,
      "duration": 0.0331,
      "velocity": 107,
      "chip": "ym2612"
    },
    {
      "channel": 3,
      "note": 53,
      "start": 95.5703,
      "duration": 0.1933,
      "velocity": 114,
      "chip": "ym2612"
    },
    {
      "channel": 4,
      "note": 41,
      "start": 95.5712,
      "duration": 0.1934,
      "velocity": 110,
      "chip": "ym2612"
    },
    {
      "channel": 2,
      "note": 26,
      "start": 95.5999,
      "duration": 0.161,
      "velocity": 127,
      "chip": "ym2612"
    },
    {
      "channel": 0,
      "note": 73,
      "start": 95.6623,
      "duration": 0.0961,
      "velocity": 123,
      "chip": "ym2612"
    },
    {
      "channel": 0,
      "note": 69,
      "start": 95.7585,
      "duration": 0.0961,
      "velocity": 123,
      "chip": "ym2612"
    },
    {
      "channel": 2,
      "note": 59,
      "start": 95.7611,
      "duration": 0.1923,
      "velocity": 127,
      "chip": "ym2612"
    },
    {
      "channel": 3,
      "note": 53,
      "start": 95.7639,
      "duration": 0.1923,
      "velocity": 114,
      "chip": "ym2612"
    },
    {
      "channel": 0,
      "note": 73,
      "start": 95.8549,
      "duration": 0.0961,
      "velocity": 123,
      "chip": "ym2612"
    },
    {
      "channel": 5,
      "note": 34,
      "start": 95.8591,
      "duration": 2.9542,
      "velocity": 98,
      "chip": "ym2612"
    },
    {
      "channel": 0,
      "note": 69,
      "start": 95.9512,
      "duration": 0.0961,
      "velocity": 123,
      "chip": "ym2612"
    },
    {
      "channel": 2,
      "note": 59,
      "start": 95.9536,
      "duration": 0.0308,
      "velocity": 127,
      "chip": "ym2612"
    },
    {
      "channel": 3,
      "note": 53,
      "start": 95.9564,
      "duration": 0.1936,
      "velocity": 114,
      "chip": "ym2612"
    },
    {
      "channel": 2,
      "note": 59,
      "start": 95.9846,
      "duration": 0.1614,
      "velocity": 127,
      "chip": "ym2612"
    },
    {
      "channel": 0,
      "note": 73,
      "start": 96.0475,
      "duration": 0.0961,
      "velocity": 123,
      "chip": "ym2612"
    },
    {
      "channel": 0,
      "note": 69,
      "start": 96.1438,
      "duration": 0.0961,
      "velocity": 123,
      "chip": "ym2612"
    },
    {
      "channel": 2,
      "note": 64,
      "start": 96.1462,
      "duration": 0.1926,
      "velocity": 123,
      "chip": "ym2612"
    },
    {
      "channel": 3,
      "note": 53,
      "start": 96.1503,
      "duration": 0.1912,
      "velocity": 114,
      "chip": "ym2612"
    },
    {
      "channel": 4,
      "note": 41,
      "start": 96.1512,
      "duration": 0.1913,
      "velocity": 110,
      "chip": "ym2612"
    },
    {
      "channel": 0,
      "note": 73,
      "start": 96.24,
      "duration": 0.0962,
      "velocity": 123,
      "chip": "ym2612"
    },
    {
      "channel": 0,
      "note": 69,
      "start": 96.3364,
      "duration": 0.0963,
      "velocity": 123,
      "chip": "ym2612"
    },
    {
      "channel": 2,
      "note": 57,
      "start": 96.339,
      "duration": 0.031,
      "velocity": 123,
      "chip": "ym2612"
    },
    {
      "channel": 3,
      "note": 53,
      "start": 96.3417,
      "duration": 0.1939,
      "velocity": 114,
      "chip": "ym2612"
    },
    {
      "channel": 2,
      "note": 57,
      "start": 96.3702,
      "duration": 0.0327,
      "velocity": 123,
      "chip": "ym2612"
    },
    {
      "channel": 2,
      "note": 57,
      "start": 96.4032,
      "duration": 0.0307,
      "velocity": 123,
      "chip": "ym2612"
    },
    {
      "channel": 0,
      "note": 73,
      "start": 96.4329,
      "duration": 0.0959,
      "velocity": 123,
      "chip": "ym2612"
    },
    {
      "channel": 2,
      "note": 57,
      "start": 96.4342,
      "duration": 0.0324,
      "velocity": 123,
      "chip": "ym2612"
    },
    {
      "channel": 2,
      "note": 57,
      "start": 96.4668,
      "duration": 0.0296,
      "velocity": 123,
      "chip": "ym2612"
    },
    {
      "channel": 2,
      "note": 57,
      "start": 96.4966,
      "duration": 0.0355,
      "velocity": 127,
      "chip": "ym2612"
    },
    {
      "channel": 0,
      "note": 69,
      "start": 96.529,
      "duration": 0.099,
      "velocity": 123,
      "chip": "ym2612"
    },
    {
      "channel": 2,
      "note": 59,
      "start": 96.5323,
      "duration": 0.0335,
      "velocity": 127,
      "chip": "ym2612"
    },
    {
      "channel": 3,
      "note": 53,
      "start": 96.5358,
      "duration": 0.1913,
      "velocity": 114,
      "chip": "ym2612"
    },
    {
      "channel": 4,
      "note": 41,
      "start": 96.5367,
      "duration": 0.1914,
      "velocity": 110,
      "chip": "ym2612"
    },
    {
      "channel": 2,
      "note": 59,
      "start": 96.566,
      "duration": 0.158,
      "velocity": 127,
      "chip": "ym2612"
    },
    {
      "channel": 0,
      "note": 73,
      "start": 96.6282,
      "duration": 0.0933,
      "velocity": 123,
      "chip": "ym2612"
    },
    {
      "channel": 0,
      "note": 69,
      "start": 96.7217,
      "duration": 0.0989,
      "velocity": 123,
      "chip": "ym2612"
    },
    {
      "channel": 2,
      "note": 66,
      "start": 96.7242,
      "duration": 0.0974,
      "velocity": 127,
      "chip": "ym2612"
    },
    {
      "channel": 3,
      "note": 53,
      "start": 96.7274,
      "duration": 0.1911,
      "velocity": 114,
      "chip": "ym2612"
    },
    {
      "channel": 4,
      "note": 41,
      "start": 96.7283,
      "duration": 0.1912,
      "velocity": 110,
      "chip": "ym2612"
    },
    {
      "channel": 0,
      "note": 73,
      "start": 96.8208,
      "duration": 0.0932,
      "velocity": 123,
      "chip": "ym2612"
    },
    {
      "channel": 2,
      "note": 66,
      "start": 96.8218,
      "duration": 0.0939,
      "velocity": 127,
      "chip": "ym2612"
    },
    {
      "channel": 0,
      "note": 69,
      "start": 96.9143,
      "duration": 0.099,
      "velocity": 123,
      "chip": "ym2612"
    },
    {
      "channel": 2,
      "note": 66,
      "start": 96.9159,
      "duration": 0.0983,
      "velocity": 127,
      "chip": "ym2612"
    },
    {
      "channel": 3,
      "note": 53,
      "start": 96.9187,
      "duration": 0.1933,
      "velocity": 114,
      "chip": "ym2612"
    },
    {
      "channel": 0,
      "note": 73,
      "start": 97.0134,
      "duration": 0.0933,
      "velocity": 123,
      "chip": "ym2612"
    },
    {
      "channel": 2,
      "note": 66,
      "start": 97.0145,
      "duration": 0.0946,
      "velocity": 123,
      "chip": "ym2612"
    },
    {
      "channel": 0,
      "note": 69,
      "start": 97.1069,
      "duration": 0.0989,
      "velocity": 123,
      "chip": "ym2612"
    },
    {
      "channel": 2,
      "note": 68,
      "start": 97.1094,
      "duration": 0.0975,
      "velocity": 123,
      "chip": "ym2612"
    },
    {
      "channel": 3,
      "note": 53,
      "start": 97.1122,
      "duration": 0.1932,
      "velocity": 114,
      "chip": "ym2612"
    },
    {
      "channel": 0,
      "note": 73,
      "start": 97.2061,
      "duration": 0.0934,
      "velocity": 123,
      "chip": "ym2612"
    },
    {
      "channel": 2,
      "note": 68,
      "start": 97.207,
      "duration": 0.0949,
      "velocity": 107,
      "chip": "ym2612"
    },
    {
      "channel": 0,
      "note": 69,
      "start": 97.2996,
      "duration": 0.0994,
      "velocity": 123,
      "chip": "ym2612"
    },
    {
      "channel": 2,
      "note": 30,
      "start": 97.3021,
      "duration": 0.0335,
      "velocity": 107,
      "chip": "ym2612"
    },
    {
      "channel": 3,
      "note": 53,
      "start": 97.3057,
      "duration": 0.1915,
      "velocity": 114,
      "chip": "ym2612"
    },
    {
      "channel": 4,
      "note": 41,
      "start": 97.3065,
      "duration": 0.1923,
      "velocity": 110,
      "chip": "ym2612"
    },
    {
      "channel": 2,
      "note": 30,
      "start": 97.3358,
      "duration": 0.1586,
      "velocity": 123,
      "chip": "ym2612"
    },
    {
      "channel": 0,
      "note": 73,
      "start": 97.3993,
      "duration": 0.0927,
      "velocity": 123,
      "chip": "ym2612"
    },
    {
      "channel": 0,
      "note": 69,
      "start": 97.4921,
      "duration": 0.0989,
      "velocity": 123,
      "chip": "ym2612"
    },
    {
      "channel": 2,
      "note": 59,
      "start": 97.4947,
      "duration": 0.0974,
      "velocity": 123,
      "chip": "ym2612"
    },
    {
      "channel": 3,
      "note": 53,
      "start": 97.4975,
      "duration": 0.1931,
      "velocity": 114,
      "chip": "ym2612"
    },
    {
      "channel": 0,
      "note": 73,
      "start": 97.5912,
      "duration": 0.0933,
      "velocity": 123,
      "chip": "ym2612"
    },
    {
      "channel": 2,
      "note": 59,
      "start": 97.5922,
      "duration": 0.0948,
      "velocity": 107,
      "chip": "ym2612"
    },
    {
      "channel": 0,
      "note": 69,
      "start": 97.6847,
      "duration": 0.0989,
      "velocity": 123,
      "chip": "ym2612"
    },
    {
      "channel": 2,
      "note": 27,
      "start": 97.6872,
      "duration": 0.0337,
      "velocity": 107,
      "chip": "ym2612"
    },
    {
      "channel": 3,
      "note": 53,
      "start": 97.6908,
      "duration": 0.1924,
      "velocity": 114,
      "chip": "ym2612"
    },
    {
      "channel": 4,
      "note": 41,
      "start": 97.6917,
      "duration": 0.1924,
      "velocity": 110,
      "chip": "ym2612"
    },
    {
      "channel": 2,
      "note": 27,
      "start": 97.7211,
      "duration": 0.1587,
      "velocity": 127,
      "chip": "ym2612"
    },
    {
      "channel": 0,
      "note": 73,
      "start": 97.7839,
      "duration": 0.0933,
      "velocity": 123,
      "chip": "ym2612"
    },
    {
      "channel": 0,
      "note": 69,
      "start": 97.8774,
      "duration": 0.0988,
      "velocity": 123,
      "chip": "ym2612"
    },
    {
      "channel": 2,
      "note": 59,
      "start": 97.88,
      "duration": 0.0334,
      "velocity": 127,
      "chip": "ym2612"
    },
    {
      "channel": 3,
      "note": 53,
      "start": 97.8833,
      "duration": 0.1926,
      "velocity": 114,
      "chip": "ym2612"
    },
    {
      "channel": 2,
      "note": 59,
      "start": 97.9137,
      "duration": 0.1587,
      "velocity": 123,
      "chip": "ym2612"
    },
    {
      "channel": 0,
      "note": 73,
      "start": 97.9765,
      "duration": 0.0933,
      "velocity": 123,
      "chip": "ym2612"
    },
    {
      "channel": 0,
      "note": 69,
      "start": 98.07,
      "duration": 0.0988,
      "velocity": 123,
      "chip": "ym2612"
    },
    {
      "channel": 2,
      "note": 57,
      "start": 98.0726,
      "duration": 0.0338,
      "velocity": 123,
      "chip": "ym2612"
    },
    {
      "channel": 3,
      "note": 53,
      "start": 98.0761,
      "duration": 0.1929,
      "velocity": 114,
      "chip": "ym2612"
    },
    {
      "channel": 4,
      "note": 41,
      "start": 98.0771,
      "duration": 0.1929,
      "velocity": 110,
      "chip": "ym2612"
    },
    {
      "channel": 2,
      "note": 57,
      "start": 98.1066,
      "duration": 0.03,
      "velocity": 123,
      "chip": "ym2612"
    },
    {
      "channel": 2,
      "note": 57,
      "start": 98.1368,
      "duration": 0.0333,
      "velocity": 123,
      "chip": "ym2612"
    },
    {
      "channel": 0,
      "note": 73,
      "start": 98.1691,
      "duration": 0.0933,
      "velocity": 123,
      "chip": "ym2612"
    },
    {
      "channel": 2,
      "note": 57,
      "start": 98.1704,
      "duration": 0.0296,
      "velocity": 123,
      "chip": "ym2612"
    },
    {
      "channel": 2,
      "note": 57,
      "start": 98.2002,
      "duration": 0.0329,
      "velocity": 123,
      "chip": "ym2612"
    },
    {
      "channel": 2,
      "note": 57,
      "start": 98.2334,
      "duration": 0.0323,
      "velocity": 127,
      "chip": "ym2612"
    },
    {
      "channel": 0,
      "note": 69,
      "start": 98.2625,
      "duration": 0.099,
      "velocity": 123,
      "chip": "ym2612"
    },
    {
      "channel": 2,
      "note": 64,
      "start": 98.266,
      "duration": 0.0966,
      "velocity": 127,
      "chip": "ym2612"
    },
    {
      "channel": 3,
      "note": 53,
      "start": 98.2693,
      "duration": 0.1924,
      "velocity": 114,
      "chip": "ym2612"
    },
    {
      "channel": 4,
      "note": 41,
      "start": 98.2701,
      "duration": 0.1925,
      "velocity": 110,
      "chip": "ym2612"
    },
    {
      "channel": 0,
      "note": 73,
      "start": 98.3618,
      "duration": 0.0961,
      "velocity": 123,
      "chip": "ym2612"
    },
    {
      "channel": 2,
      "note": 64,
      "start": 98.3628,
      "duration": 0.0961,
      "velocity": 127,
      "chip": "ym2612"
    },
    {
      "channel": 0,
      "note": 69,
      "start": 98.4581,
      "duration": 0.096,
      "velocity": 123,
      "chip": "ym2612"
    },
    {
      "channel": 2,
      "note": 64,
      "start": 98.4591,
      "duration": 0.096,
      "velocity": 127,
      "chip": "ym2612"
    },
    {
      "channel": 3,
      "note": 53,
      "start": 98.4619,
      "duration": 0.1939,
      "velocity": 114,
      "chip": "ym2612"
    },
    {
      "channel": 0,
      "note": 73,
      "start": 98.5543,
      "duration": 0.0934,
      "velocity": 123,
      "chip": "ym2612"
    },
    {
      "channel": 2,
      "note": 64,
      "start": 98.5553,
      "duration": 0.0963,
      "velocity": 107,
      "chip": "ym2612"
    },
    {
      "channel": 0,
      "note": 69,
      "start": 98.6479,
      "duration": 0.0989,
      "velocity": 123,
      "chip": "ym2612"
    },
    {
      "channel": 1,
      "note": 30,
      "start": 98.6495,
      "duration": 2.9564,
      "velocity": 98,
      "chip": "ym2612"
    },
    {
      "channel": 2,
      "note": 26,
      "start": 98.6518,
      "duration": 0.0323,
      "velocity": 107,
      "chip": "ym2612"
    },
    {
      "channel": 3,
      "note": 54,
      "start": 98.6561,
      "duration": 0.1931,
      "velocity": 114,
      "chip": "ym2612"
    },
    {
      "channel": 4,
      "note": 42,
      "start": 98.6572,
      "duration": 0.1928,
      "velocity": 110,
      "chip": "ym2612"
    },
    {
      "channel": 2,
      "note": 26,
      "start": 98.6843,
      "duration": 0.1614,
      "velocity": 127,
      "chip": "ym2612"
    },
    {
      "channel": 0,
      "note": 73,
      "start": 98.7471,
      "duration": 0.0961,
      "velocity": 123,
      "chip": "ym2612"
    },
    {
      "channel": 0,
      "note": 69,
      "start": 98.8433,
      "duration": 0.0961,
      "velocity": 123,
      "chip": "ym2612"
    },
    {
      "channel": 2,
      "note": 59,
      "start": 98.8459,
      "duration": 0.1923,
      "velocity": 127,
      "chip": "ym2612"
    },
    {
      "channel": 3,
      "note": 54,
      "start": 98.8493,
      "duration": 0.1917,
      "velocity": 114,
      "chip": "ym2612"
    },
    {
      "channel": 0,
      "note": 73,
      "start": 98.9396,
      "duration": 0.0961,
      "velocity": 123,
      "chip": "ym2612"
    },
    {
      "channel": 5,
      "note": 30,
      "start": 98.9444,
      "duration": 2.9542,
      "velocity": 98,
      "chip": "ym2612"
    },
    {
      "channel": 0,
      "note": 69,
      "start": 99.036,
      "duration": 0.0966,
      "velocity": 123,
      "chip": "ym2612"
    },
    {
      "channel": 2,
      "note": 59,
      "start": 99.0384,
      "duration": 0.0308,
      "velocity": 127,
      "chip": "ym2612"
    },
    {
      "channel": 3,
      "note": 54,
      "start": 99.0412,
      "duration": 0.1937,
      "velocity": 114,
      "chip": "ym2612"
    },
    {
      "channel": 2,
      "note": 59,
      "start": 99.0694,
      "duration": 0.1614,
      "velocity": 127,
      "chip": "ym2612"
    },
    {
      "channel": 0,
      "note": 73,
      "start": 99.1328,
      "duration": 0.0956,
      "velocity": 123,
      "chip": "ym2612"
    },
    {
      "channel": 0,
      "note": 69,
      "start": 99.2286,
      "duration": 0.0961,
      "velocity": 123,
      "chip": "ym2612"
    },
    {
      "channel": 2,
      "note": 64,
      "start": 99.231,
      "duration": 0.1925,
      "velocity": 123,
      "chip": "ym2612"
    },
    {
      "channel": 3,
      "note": 54,
      "start": 99.2351,
      "duration": 0.1912,
      "velocity": 114,
      "chip": "ym2612"
    },
    {
      "channel": 4,
      "note": 42,
      "start": 99.236,
      "duration": 0.1912,
      "velocity": 110,
      "chip": "ym2612"
    },
    {
      "channel": 0,
      "note": 73,
      "start": 99.3248,
      "duration": 0.0962,
      "velocity": 123,
      "chip": "ym2612"
    },
    {
      "channel": 0,
      "note": 69,
      "start": 99.4212,
      "duration": 0.0961,
      "velocity": 123,
      "chip": "ym2612"
    },
    {
      "channel": 2,
      "note": 57,
      "start": 99.4238,
      "duration": 0.031,
      "velocity": 123,
      "chip": "ym2612"
    },
    {
      "channel": 3,
      "note": 54,
      "start": 99.4265,
      "duration": 0.1938,
      "velocity": 114,
      "chip": "ym2612"
    },
    {
      "channel": 2,
      "note": 57,
      "start": 99.455,
      "duration": 0.0327,
      "velocity": 123,
      "chip": "ym2612"
    },
    {
      "channel": 2,
      "note": 57,
      "start": 99.488,
      "duration": 0.0306,
      "velocity": 123,
      "chip": "ym2612"
    },
    {
      "channel": 0,
      "note": 73,
      "start": 99.5175,
      "duration": 0.0961,
      "velocity": 123,
      "chip": "ym2612"
    },
    {
      "channel": 2,
      "note": 57,
      "start": 99.5188,
      "duration": 0.0322,
      "velocity": 123,
      "chip": "ym2612"
    },
    {
      "channel": 2,
      "note": 57,
      "start": 99.5512,
      "duration": 0.0303,
      "velocity": 123,
      "chip": "ym2612"
    },
    {
      "channel": 2,
      "note": 57,
      "start": 99.5821,
      "duration": 0.0347,
      "velocity": 127,
      "chip": "ym2612"
    },
    {
      "channel": 0,
      "note": 69,
      "start": 99.6137,
      "duration": 0.099,
      "velocity": 123,
      "chip": "ym2612"
    },
    {
      "channel": 2,
      "note": 59,
      "start": 99.6171,
      "duration": 0.0328,
      "velocity": 127,
      "chip": "ym2612"
    },
    {
      "channel": 3,
      "note": 54,
      "start": 99.6206,
      "duration": 0.1914,
      "velocity": 114,
      "chip": "ym2612"
    },
    {
      "channel": 4,
      "note": 42,
      "start": 99.6215,
      "duration": 0.1913,
      "velocity": 110,
      "chip": "ym2612"
    },
    {
      "channel": 2,
      "note": 59,
      "start": 99.6502,
      "duration": 0.1585,
      "velocity": 127,
      "chip": "ym2612"
    },
    {
      "channel": 0,
      "note": 73,
      "start": 99.713,
      "duration": 0.0932,
      "velocity": 123,
      "chip": "ym2612"
    },
    {
      "channel": 0,
      "note": 69,
      "start": 99.8064,
      "duration": 0.099,
      "velocity": 123,
      "chip": "ym2612"
    },
    {
      "channel": 2,
      "note": 66,
      "start": 99.8089,
      "duration": 0.0975,
      "velocity": 127,
      "chip": "ym2612"
    },
    {
      "channel": 3,
      "note": 54,
      "start": 99.8122,
      "duration": 0.191,
      "velocity": 114,
      "chip": "ym2612"
    },
    {
      "channel": 4,
      "note": 42,
      "start": 99.8131,
      "duration": 0.191,
      "velocity": 110,
      "chip": "ym2612"
    },
    {
      "channel": 0,
      "note": 73,
      "start": 99.9056,
      "duration": 0.0937,
      "velocity": 123,
      "chip": "ym2612"
    },
    {
      "channel": 2,
      "note": 66,
      "start": 99.9066,
      "duration": 0.0937,
      "velocity": 127,
      "chip": "ym2612"
    },
    {
      "channel": 0,
      "note": 69,
      "start": 99.9996,
      "duration": 0.0991,
      "velocity": 123,
      "chip": "ym2612"
    },
    {
      "channel": 2,
      "note": 66,
      "start": 100.0005,
      "duration": 0.0992,
      "velocity": 127,
      "chip": "ym2612"
    },
    {
      "channel": 3,
      "note": 54,
      "start": 100.0034,
      "duration": 0.1934,
      "velocity": 114,
      "chip": "ym2612"
    },
    {
      "channel": 0,
      "note": 73,
      "start": 100.0989,
      "duration": 0.0926,
      "velocity": 123,
      "chip": "ym2612"
    },
    {
      "channel": 2,
      "note": 66,
      "start": 100.0999,
      "duration": 0.0941,
      "velocity": 123,
      "chip": "ym2612"
    },
    {
      "channel": 0,
      "note": 69,
      "start": 100.1917,
      "duration": 0.0988,
      "velocity": 123,
      "chip": "ym2612"
    },
    {
      "channel": 2,
      "note": 68,
      "start": 100.1941,
      "duration": 0.0975,
      "velocity": 123,
      "chip": "ym2612"
    },
    {
      "channel": 3,
      "note": 54,
      "start": 100.197,
      "duration": 0.1931,
      "velocity": 114,
      "chip": "ym2612"
    },
    {
      "channel": 0,
      "note": 73,
      "start": 100.2909,
      "duration": 0.0933,
      "velocity": 123,
      "chip": "ym2612"
    },
    {
      "channel": 2,
      "note": 68,
      "start": 100.2918,
      "duration": 0.0948,
      "velocity": 107,
      "chip": "ym2612"
    },
    {
      "channel": 0,
      "note": 69,
      "start": 100.3844,
      "duration": 0.0989,
      "velocity": 123,
      "chip": "ym2612"
    },
    {
      "channel": 2,
      "note": 30,
      "start": 100.3868,
      "duration": 0.0336,
      "velocity": 107,
      "chip": "ym2612"
    },
    {
      "channel": 3,
      "note": 54,
      "start": 100.3904,
      "duration": 0.1922,
      "velocity": 114,
      "chip": "ym2612"
    },
    {
      "channel": 4,
      "note": 42,
      "start": 100.3912,
      "duration": 0.1923,
      "velocity": 110,
      "chip": "ym2612"
    },
    {
      "channel": 2,
      "note": 30,
      "start": 100.4206,
      "duration": 0.1586,
      "velocity": 123,
      "chip": "ym2612"
    },
    {
      "channel": 0,
      "note": 73,
      "start": 100.4834,
      "duration": 0.0933,
      "velocity": 123,
      "chip": "ym2612"
    },
    {
      "channel": 0,
      "note": 69,
      "start": 100.5769,
      "duration": 0.0989,
      "velocity": 123,
      "chip": "ym2612"
    },
    {
      "channel": 2,
      "note": 59,
      "start": 100.5795,
      "duration": 0.0974,
      "velocity": 123,
      "chip": "ym2612"
    },
    {
      "channel": 3,
      "note": 54,
      "start": 100.5829,
      "duration": 0.1925,
      "velocity": 114,
      "chip": "ym2612"
    },
    {
      "channel": 0,
      "note": 73,
      "start": 100.676,
      "duration": 0.0933,
      "velocity": 123,
      "chip": "ym2612"
    },
    {
      "channel": 2,
      "note": 59,
      "start": 100.6771,
      "duration": 0.0948,
      "velocity": 107,
      "chip": "ym2612"
    },
    {
      "channel": 0,
      "note": 69,
      "start": 100.7695,
      "duration": 0.0988,
      "velocity": 123,
      "chip": "ym2612"
    },
    {
      "channel": 2,
      "note": 27,
      "start": 100.772,
      "duration": 0.0336,
      "velocity": 107,
      "chip": "ym2612"
    },
    {
      "channel": 3,
      "note": 54,
      "start": 100.7756,
      "duration": 0.1923,
      "velocity": 114,
      "chip": "ym2612"
    },
    {
      "channel": 4,
      "note": 42,
      "start": 100.7765,
      "duration": 0.1923,
      "velocity": 110,
      "chip": "ym2612"
    },
    {
      "channel": 2,
      "note": 27,
      "start": 100.8059,
      "duration": 0.1587,
      "velocity": 127,
      "chip": "ym2612"
    },
    {
      "channel": 0,
      "note": 73,
      "start": 100.8686,
      "duration": 0.0933,
      "velocity": 123,
      "chip": "ym2612"
    },
    {
      "channel": 0,
      "note": 69,
      "start": 100.9622,
      "duration": 0.0989,
      "velocity": 123,
      "chip": "ym2612"
    },
    {
      "channel": 2,
      "note": 59,
      "start": 100.9654,
      "duration": 0.0336,
      "velocity": 127,
      "chip": "ym2612"
    },
    {
      "channel": 3,
      "note": 54,
      "start": 100.9681,
      "duration": 0.1927,
      "velocity": 114,
      "chip": "ym2612"
    },
    {
      "channel": 2,
      "note": 59,
      "start": 100.9991,
      "duration": 0.1581,
      "velocity": 123,
      "chip": "ym2612"
    },
    {
      "channel": 0,
      "note": 73,
      "start": 101.0613,
      "duration": 0.0933,
      "velocity": 123,
      "chip": "ym2612"
    },
    {
      "channel": 0,
      "note": 69,
      "start": 101.1548,
      "duration": 0.0988,
      "velocity": 123,
      "chip": "ym2612"
    },
    {
      "channel": 2,
      "note": 57,
      "start": 101.1574,
      "duration": 0.0337,
      "velocity": 123,
      "chip": "ym2612"
    },
    {
      "channel": 3,
      "note": 54,
      "start": 101.161,
      "duration": 0.1927,
      "velocity": 114,
      "chip": "ym2612"
    },
    {
      "channel": 4,
      "note": 42,
      "start": 101.1618,
      "duration": 0.1927,
      "velocity": 110,
      "chip": "ym2612"
    },
    {
      "channel": 2,
      "note": 57,
      "start": 101.1914,
      "duration": 0.03,
      "velocity": 123,
      "chip": "ym2612"
    },
    {
      "channel": 2,
      "note": 57,
      "start": 101.2216,
      "duration": 0.0333,
      "velocity": 123,
      "chip": "ym2612"
    },
    {
      "channel": 0,
      "note": 73,
      "start": 101.2539,
      "duration": 0.0932,
      "velocity": 123,
      "chip": "ym2612"
    },
    {
      "channel": 2,
      "note": 57,
      "start": 101.2552,
      "duration": 0.0294,
      "velocity": 123,
      "chip": "ym2612"
    },
    {
      "channel": 2,
      "note": 57,
      "start": 101.2847,
      "duration": 0.0328,
      "velocity": 123,
      "chip": "ym2612"
    },
    {
      "channel": 2,
      "note": 57,
      "start": 101.3178,
      "duration": 0.0327,
      "velocity": 127,
      "chip": "ym2612"
    },
    {
      "channel": 0,
      "note": 69,
      "start": 101.3473,
      "duration": 0.0989,
      "velocity": 123,
      "chip": "ym2612"
    },
    {
      "channel": 2,
      "note": 64,
      "start": 101.3507,
      "duration": 0.0966,
      "velocity": 127,
      "chip": "ym2612"
    },
    {
      "channel": 3,
      "note": 54,
      "start": 101.3539,
      "duration": 0.1896,
      "velocity": 114,
      "chip": "ym2612"
    },
    {
      "channel": 4,
      "note": 42,
      "start": 101.3548,
      "duration": 0.1897,
      "velocity": 110,
      "chip": "ym2612"
    },
    {
      "channel": 0,
      "note": 73,
      "start": 101.4465,
      "duration": 0.0933,
      "velocity": 123,
      "chip": "ym2612"
    },
    {
      "channel": 2,
      "note": 64,
      "start": 101.4475,
      "duration": 0.0933,
      "velocity": 127,
      "chip": "ym2612"
    },
    {
      "channel": 0,
      "note": 69,
      "start": 101.54,
      "duration": 0.096,
      "velocity": 123,
      "chip": "ym2612"
    },
    {
      "channel": 2,
      "note": 64,
      "start": 101.541,
      "duration": 0.096,
      "velocity": 127,
      "chip": "ym2612"
    },
    {
      "channel": 3,
      "note": 54,
      "start": 101.5438,
      "duration": 0.1955,
      "velocity": 114,
      "chip": "ym2612"
    },
    {
      "channel": 0,
      "note": 73,
      "start": 101.6361,
      "duration": 0.0965,
      "velocity": 123,
      "chip": "ym2612"
    },
    {
      "channel": 2,
      "note": 64,
      "start": 101.6372,
      "duration": 0.0984,
      "velocity": 107,
      "chip": "ym2612"
    },
    {
      "channel": 0,
      "note": 69,
      "start": 101.7329,
      "duration": 0.0992,
      "velocity": 123,
      "chip": "ym2612"
    },
    {
      "channel": 1,
      "note": 32,
      "start": 101.7335,
      "duration": 2.9541,
      "velocity": 98,
      "chip": "ym2612"
    },
    {
      "channel": 2,
      "note": 26,
      "start": 101.7358,
      "duration": 0.0329,
      "velocity": 107,
      "chip": "ym2612"
    },
    {
      "channel": 3,
      "note": 54,
      "start": 101.7395,
      "duration": 0.1908,
      "velocity": 114,
      "chip": "ym2612"
    },
    {
      "channel": 4,
      "note": 42,
      "start": 101.7404,
      "duration": 0.1909,
      "velocity": 110,
      "chip": "ym2612"
    },
    {
      "channel": 2,
      "note": 26,
      "start": 101.7689,
      "duration": 0.1586,
      "velocity": 127,
      "chip": "ym2612"
    },
    {
      "channel": 0,
      "note": 73,
      "start": 101.8324,
      "duration": 0.0926,
      "velocity": 123,
      "chip": "ym2612"
    },
    {
      "channel": 0,
      "note": 69,
      "start": 101.9253,
      "duration": 0.0989,
      "velocity": 123,
      "chip": "ym2612"
    },
    {
      "channel": 2,
      "note": 59,
      "start": 101.9278,
      "duration": 0.1923,
      "velocity": 127,
      "chip": "ym2612"
    },
    {
      "channel": 3,
      "note": 54,
      "start": 101.9305,
      "duration": 0.1923,
      "velocity": 114,
      "chip": "ym2612"
    },
    {
      "channel": 0,
      "note": 73,
      "start": 102.0243,
      "duration": 0.0933,
      "velocity": 123,
      "chip": "ym2612"
    },
    {
      "channel": 5,
      "note": 32,
      "start": 102.0286,
      "duration": 2.9512,
      "velocity": 98,
      "chip": "ym2612"
    },
    {
      "channel": 0,
      "note": 69,
      "start": 102.1178,
      "duration": 0.0988,
      "velocity": 123,
      "chip": "ym2612"
    },
    {
      "channel": 2,
      "note": 59,
      "start": 102.1202,
      "duration": 0.0337,
      "velocity": 127,
      "chip": "ym2612"
    },
    {
      "channel": 3,
      "note": 54,
      "start": 102.1231,
      "duration": 0.1936,
      "velocity": 114,
      "chip": "ym2612"
    },
    {
      "channel": 2,
      "note": 59,
      "start": 102.1541,
      "duration": 0.1585,
      "velocity": 127,
      "chip": "ym2612"
    },
    {
      "channel": 0,
      "note": 73,
      "start": 102.2169,
      "duration": 0.0932,
      "velocity": 123,
      "chip": "ym2612"
    },
    {
      "channel": 0,
      "note": 69,
      "start": 102.3104,
      "duration": 0.0989,
      "velocity": 123,
      "chip": "ym2612"
    },
    {
      "channel": 2,
      "note": 64,
      "start": 102.3128,
      "duration": 0.1926,
      "velocity": 123,
      "chip": "ym2612"
    },
    {
      "channel": 3,
      "note": 54,
      "start": 102.3169,
      "duration": 0.1912,
      "velocity": 114,
      "chip": "ym2612"
    },
    {
      "channel": 4,
      "note": 42,
      "start": 102.3178,
      "duration": 0.1912,
      "velocity": 110,
      "chip": "ym2612"
    },
    {
      "channel": 0,
      "note": 73,
      "start": 102.4095,
      "duration": 0.0933,
      "velocity": 123,
      "chip": "ym2612"
    },
    {
      "channel": 0,
      "note": 69,
      "start": 102.5031,
      "duration": 0.0989,
      "velocity": 123,
      "chip": "ym2612"
    },
    {
      "channel": 2,
      "note": 57,
      "start": 102.5057,
      "duration": 0.0337,
      "velocity": 123,
      "chip": "ym2612"
    },
    {
      "channel": 3,
      "note": 54,
      "start": 102.5084,
      "duration": 0.1939,
      "velocity": 114,
      "chip": "ym2612"
    },
    {
      "channel": 2,
      "note": 57,
      "start": 102.5396,
      "duration": 0.03,
      "velocity": 123,
      "chip": "ym2612"
    },
    {
      "channel": 2,
      "note": 57,
      "start": 102.5699,
      "duration": 0.0333,
      "velocity": 123,
      "chip": "ym2612"
    },
    {
      "channel": 0,
      "note": 73,
      "start": 102.6022,
      "duration": 0.0933,
      "velocity": 123,
      "chip": "ym2612"
    },
    {
      "channel": 2,
      "note": 57,
      "start": 102.6034,
      "duration": 0.0299,
      "velocity": 123,
      "chip": "ym2612"
    },
    {
      "channel": 2,
      "note": 57,
      "start": 102.6335,
      "duration": 0.0329,
      "velocity": 123,
      "chip": "ym2612"
    },
    {
      "channel": 2,
      "note": 57,
      "start": 102.6667,
      "duration": 0.0322,
      "velocity": 127,
      "chip": "ym2612"
    },
    {
      "channel": 0,
      "note": 69,
      "start": 102.6957,
      "duration": 0.0989,
      "velocity": 123,
      "chip": "ym2612"
    },
    {
      "channel": 2,
      "note": 59,
      "start": 102.699,
      "duration": 0.0334,
      "velocity": 127,
      "chip": "ym2612"
    },
    {
      "channel": 3,
      "note": 54,
      "start": 102.7026,
      "duration": 0.1941,
      "velocity": 114,
      "chip": "ym2612"
    },
    {
      "channel": 4,
      "note": 42,
      "start": 102.7034,
      "duration": 0.1941,
      "velocity": 110,
      "chip": "ym2612"
    },
    {
      "channel": 2,
      "note": 59,
      "start": 102.7327,
      "duration": 0.1608,
      "velocity": 127,
      "chip": "ym2612"
    },
    {
      "channel": 0,
      "note": 73,
      "start": 102.7949,
      "duration": 0.0961,
      "velocity": 123,
      "chip": "ym2612"
    },
    {
      "channel": 0,
      "note": 69,
      "start": 102.8912,
      "duration": 0.0961,
      "velocity": 123,
      "chip": "ym2612"
    },
    {
      "channel": 2,
      "note": 66,
      "start": 102.8937,
      "duration": 0.0946,
      "velocity": 127,
      "chip": "ym2612"
    },
    {
      "channel": 3,
      "note": 54,
      "start": 102.8969,
      "duration": 0.1905,
      "velocity": 114,
      "chip": "ym2612"
    },
    {
      "channel": 4,
      "note": 42,
      "start": 102.8978,
      "duration": 0.1904,
      "velocity": 110,
      "chip": "ym2612"
    },
    {
      "channel": 0,
      "note": 73,
      "start": 102.9874,
      "duration": 0.0961,
      "velocity": 123,
      "chip": "ym2612"
    },
    {
      "channel": 2,
      "note": 66,
      "start": 102.9884,
      "duration": 0.0961,
      "velocity": 127,
      "chip": "ym2612"
    },
    {
      "channel": 0,
      "note": 69,
      "start": 103.0838,
      "duration": 0.096,
      "velocity": 123,
      "chip": "ym2612"
    },
    {
      "channel": 2,
      "note": 66,
      "start": 103.0847,
      "duration": 0.096,
      "velocity": 127,
      "chip": "ym2612"
    },
    {
      "channel": 3,
      "note": 54,
      "start": 103.0876,
      "duration": 0.191,
      "velocity": 114,
      "chip": "ym2612"
    },
    {
      "channel": 0,
      "note": 73,
      "start": 103.18,
      "duration": 0.0933,
      "velocity": 123,
      "chip": "ym2612"
    },
    {
      "channel": 2,
      "note": 66,
      "start": 103.181,
      "duration": 0.0947,
      "velocity": 123,
      "chip": "ym2612"
    },
    {
      "channel": 0,
      "note": 69,
      "start": 103.2735,
      "duration": 0.0989,
      "velocity": 123,
      "chip": "ym2612"
    },
    {
      "channel": 2,
      "note": 68,
      "start": 103.276,
      "duration": 0.0975,
      "velocity": 123,
      "chip": "ym2612"
    },
    {
      "channel": 3,
      "note": 54,
      "start": 103.2788,
      "duration": 0.1933,
      "velocity": 114,
      "chip": "ym2612"
    },
    {
      "channel": 0,
      "note": 73,
      "start": 103.3726,
      "duration": 0.0935,
      "velocity": 123,
      "chip": "ym2612"
    },
    {
      "channel": 2,
      "note": 68,
      "start": 103.3736,
      "duration": 0.095,
      "velocity": 107,
      "chip": "ym2612"
    },
    {
      "channel": 0,
      "note": 69,
      "start": 103.4663,
      "duration": 0.0994,
      "velocity": 123,
      "chip": "ym2612"
    },
    {
      "channel": 2,
      "note": 30,
      "start": 103.4688,
      "duration": 0.0334,
      "velocity": 107,
      "chip": "ym2612"
    },
    {
      "channel": 3,
      "note": 54,
      "start": 103.4723,
      "duration": 0.1914,
      "velocity": 114,
      "chip": "ym2612"
    },
    {
      "channel": 4,
      "note": 42,
      "start": 103.4732,
      "duration": 0.1921,
      "velocity": 110,
      "chip": "ym2612"
    },
    {
      "channel": 2,
      "note": 30,
      "start": 103.5024,
      "duration": 0.1585,
      "velocity": 123,
      "chip": "ym2612"
    },
    {
      "channel": 0,
      "note": 73,
      "start": 103.5659,
      "duration": 0.0926,
      "velocity": 123,
      "chip": "ym2612"
    },
    {
      "channel": 0,
      "note": 69,
      "start": 103.6587,
      "duration": 0.0989,
      "velocity": 123,
      "chip": "ym2612"
    },
    {
      "channel": 2,
      "note": 59,
      "start": 103.6612,
      "duration": 0.0974,
      "velocity": 123,
      "chip": "ym2612"
    },
    {
      "channel": 3,
      "note": 54,
      "start": 103.6639,
      "duration": 0.1932,
      "velocity": 114,
      "chip": "ym2612"
    },
    {
      "channel": 0,
      "note": 73,
      "start": 103.7578,
      "duration": 0.0932,
      "velocity": 123,
      "chip": "ym2612"
    },
    {
      "channel": 2,
      "note": 59,
      "start": 103.7588,
      "duration": 0.0948,
      "velocity": 107,
      "chip": "ym2612"
    },
    {
      "channel": 0,
      "note": 69,
      "start": 103.8513,
      "duration": 0.0989,
      "velocity": 123,
      "chip": "ym2612"
    },
    {
      "channel": 2,
      "note": 27,
      "start": 103.8538,
      "duration": 0.0337,
      "velocity": 107,
      "chip": "ym2612"
    },
    {
      "channel": 3,
      "note": 54,
      "start": 103.8573,
      "duration": 0.1924,
      "velocity": 114,
      "chip": "ym2612"
    },
    {
      "channel": 4,
      "note": 42,
      "start": 103.8582,
      "duration": 0.1924,
      "velocity": 110,
      "chip": "ym2612"
    },
    {
      "channel": 2,
      "note": 27,
      "start": 103.8877,
      "duration": 0.1586,
      "velocity": 127,
      "chip": "ym2612"
    },
    {
      "channel": 0,
      "note": 73,
      "start": 103.9504,
      "duration": 0.0933,
      "velocity": 123,
      "chip": "ym2612"
    },
    {
      "channel": 0,
      "note": 69,
      "start": 104.044,
      "duration": 0.0988,
      "velocity": 123,
      "chip": "ym2612"
    },
    {
      "channel": 2,
      "note": 59,
      "start": 104.0465,
      "duration": 0.0335,
      "velocity": 127,
      "chip": "ym2612"
    },
    {
      "channel": 3,
      "note": 54,
      "start": 104.0499,
      "duration": 0.1926,
      "velocity": 114,
      "chip": "ym2612"
    },
    {
      "channel": 2,
      "note": 59,
      "start": 104.0802,
      "duration": 0.1587,
      "velocity": 123,
      "chip": "ym2612"
    },
    {
      "channel": 0,
      "note": 73,
      "start": 104.1431,
      "duration": 0.0933,
      "velocity": 123,
      "chip": "ym2612"
    },
    {
      "channel": 0,
      "note": 69,
      "start": 104.2366,
      "duration": 0.0988,
      "velocity": 123,
      "chip": "ym2612"
    },
    {
      "channel": 2,
      "note": 57,
      "start": 104.2392,
      "duration": 0.0337,
      "velocity": 123,
      "chip": "ym2612"
    },
    {
      "channel": 3,
      "note": 54,
      "start": 104.2428,
      "duration": 0.1927,
      "velocity": 114,
      "chip": "ym2612"
    },
    {
      "channel": 4,
      "note": 42,
      "start": 104.2437,
      "duration": 0.1927,
      "velocity": 110,
      "chip": "ym2612"
    },
    {
      "channel": 2,
      "note": 57,
      "start": 104.2732,
      "duration": 0.03,
      "velocity": 123,
      "chip": "ym2612"
    },
    {
      "channel": 2,
      "note": 57,
      "start": 104.3033,
      "duration": 0.0334,
      "velocity": 123,
      "chip": "ym2612"
    },
    {
      "channel": 0,
      "note": 73,
      "start": 104.3356,
      "duration": 0.0933,
      "velocity": 123,
      "chip": "ym2612"
    },
    {
      "channel": 2,
      "note": 57,
      "start": 104.337,
      "duration": 0.0297,
      "velocity": 123,
      "chip": "ym2612"
    },
    {
      "channel": 2,
      "note": 57,
      "start": 104.3669,
      "duration": 0.0329,
      "velocity": 123,
      "chip": "ym2612"
    },
    {
      "channel": 2,
      "note": 57,
      "start": 104.4001,
      "duration": 0.0322,
      "velocity": 127,
      "chip": "ym2612"
    },
    {
      "channel": 0,
      "note": 69,
      "start": 104.4291,
      "duration": 0.0989,
      "velocity": 123,
      "chip": "ym2612"
    },
    {
      "channel": 2,
      "note": 64,
      "start": 104.4325,
      "duration": 0.0966,
      "velocity": 127,
      "chip": "ym2612"
    },
    {
      "channel": 3,
      "note": 54,
      "start": 104.4357,
      "duration": 0.1896,
      "velocity": 114,
      "chip": "ym2612"
    },
    {
      "channel": 4,
      "note": 42,
      "start": 104.4366,
      "duration": 0.1896,
      "velocity": 110,
      "chip": "ym2612"
    },
    {
      "channel": 0,
      "note": 73,
      "start": 104.5283,
      "duration": 0.0933,
      "velocity": 123,
      "chip": "ym2612"
    },
    {
      "channel": 2,
      "note": 64,
      "start": 104.5293,
      "duration": 0.0933,
      "velocity": 127,
      "chip": "ym2612"
    },
    {
      "channel": 0,
      "note": 69,
      "start": 104.6218,
      "duration": 0.0959,
      "velocity": 123,
      "chip": "ym2612"
    },
    {
      "channel": 2,
      "note": 64,
      "start": 104.6227,
      "duration": 0.096,
      "velocity": 127,
      "chip": "ym2612"
    },
    {
      "channel": 3,
      "note": 54,
      "start": 104.6256,
      "duration": 0.196,
      "velocity": 114,
      "chip": "ym2612"
    },
    {
      "channel": 0,
      "note": 73,
      "start": 104.718,
      "duration": 0.0961,
      "velocity": 123,
      "chip": "ym2612"
    },
    {
      "channel": 2,
      "note": 64,
      "start": 104.7189,
      "duration": 0.099,
      "velocity": 107,
      "chip": "ym2612"
    },
    {
      "channel": 0,
      "note": 69,
      "start": 104.8143,
      "duration": 0.0989,
      "velocity": 123,
      "chip": "ym2612"
    },
    {
      "channel": 1,
      "note": 33,
      "start": 104.8159,
      "duration": 2.9536,
      "velocity": 98,
      "chip": "ym2612"
    },
    {
      "channel": 2,
      "note": 26,
      "start": 104.8181,
      "duration": 0.0323,
      "velocity": 107,
      "chip": "ym2612"
    },
    {
      "channel": 3,
      "note": 54,
      "start": 104.8218,
      "duration": 0.1903,
      "velocity": 114,
      "chip": "ym2612"
    },
    {
      "channel": 4,
      "note": 42,
      "start": 104.8227,
      "duration": 0.1903,
      "velocity": 110,
      "chip": "ym2612"
    },
    {
      "channel": 2,
      "note": 26,
      "start": 104.8507,
      "duration": 0.1587,
      "velocity": 127,
      "chip": "ym2612"
    },
    {
      "channel": 0,
      "note": 73,
      "start": 104.9135,
      "duration": 0.0933,
      "velocity": 123,
      "chip": "ym2612"
    },
    {
      "channel": 0,
      "note": 69,
      "start": 105.007,
      "duration": 0.0989,
      "velocity": 123,
      "chip": "ym2612"
    },
    {
      "channel": 2,
      "note": 59,
      "start": 105.0095,
      "duration": 0.1922,
      "velocity": 127,
      "chip": "ym2612"
    },
    {
      "channel": 3,
      "note": 54,
      "start": 105.0124,
      "duration": 0.1923,
      "velocity": 114,
      "chip": "ym2612"
    },
    {
      "channel": 0,
      "note": 73,
      "start": 105.1061,
      "duration": 0.0932,
      "velocity": 123,
      "chip": "ym2612"
    },
    {
      "channel": 5,
      "note": 33,
      "start": 105.1106,
      "duration": 2.9511,
      "velocity": 98,
      "chip": "ym2612"
    },
    {
      "channel": 0,
      "note": 69,
      "start": 105.1996,
      "duration": 0.0995,
      "velocity": 123,
      "chip": "ym2612"
    },
    {
      "channel": 2,
      "note": 59,
      "start": 105.202,
      "duration": 0.0337,
      "velocity": 127,
      "chip": "ym2612"
    },
    {
      "channel": 3,
      "note": 54,
      "start": 105.2049,
      "duration": 0.1931,
      "velocity": 114,
      "chip": "ym2612"
    },
    {
      "channel": 2,
      "note": 59,
      "start": 105.2359,
      "duration": 0.1585,
      "velocity": 127,
      "chip": "ym2612"
    },
    {
      "channel": 0,
      "note": 73,
      "start": 105.2993,
      "duration": 0.0927,
      "velocity": 123,
      "chip": "ym2612"
    },
    {
      "channel": 0,
      "note": 69,
      "start": 105.3922,
      "duration": 0.0989,
      "velocity": 123,
      "chip": "ym2612"
    },
    {
      "channel": 2,
      "note": 64,
      "start": 105.3946,
      "duration": 0.1926,
      "velocity": 123,
      "chip": "ym2612"
    },
    {
      "channel": 3,
      "note": 54,
      "start": 105.3987,
      "duration": 0.1912,
      "velocity": 114,
      "chip": "ym2612"
    },
    {
      "channel": 4,
      "note": 42,
      "start": 105.3996,
      "duration": 0.1913,
      "velocity": 110,
      "chip": "ym2612"
    },
    {
      "channel": 0,
      "note": 73,
      "start": 105.4913,
      "duration": 0.0933,
      "velocity": 123,
      "chip": "ym2612"
    },
    {
      "channel": 0,
      "note": 69,
      "start": 105.5849,
      "duration": 0.0988,
      "velocity": 123,
      "chip": "ym2612"
    },
    {
      "channel": 2,
      "note": 57,
      "start": 105.5874,
      "duration": 0.0338,
      "velocity": 123,
      "chip": "ym2612"
    },
    {
      "channel": 3,
      "note": 54,
      "start": 105.5902,
      "duration": 0.1939,
      "velocity": 114,
      "chip": "ym2612"
    },
    {
      "channel": 2,
      "note": 57,
      "start": 105.6214,
      "duration": 0.0301,
      "velocity": 123,
      "chip": "ym2612"
    },
    {
      "channel": 2,
      "note": 57,
      "start": 105.6517,
      "duration": 0.0333,
      "velocity": 123,
      "chip": "ym2612"
    },
    {
      "channel": 0,
      "note": 73,
      "start": 105.6839,
      "duration": 0.0933,
      "velocity": 123,
      "chip": "ym2612"
    },
    {
      "channel": 2,
      "note": 57,
      "start": 105.6853,
      "duration": 0.0301,
      "velocity": 123,
      "chip": "ym2612"
    },
    {
      "channel": 2,
      "note": 57,
      "start": 105.7155,
      "duration": 0.0321,
      "velocity": 123,
      "chip": "ym2612"
    },
    {
      "channel": 2,
      "note": 57,
      "start": 105.7479,
      "duration": 0.032,
      "velocity": 127,
      "chip": "ym2612"
    },
    {
      "channel": 0,
      "note": 69,
      "start": 105.7774,
      "duration": 0.099,
      "velocity": 123,
      "chip": "ym2612"
    },
    {
      "channel": 2,
      "note": 59,
      "start": 105.7802,
      "duration": 0.0335,
      "velocity": 127,
      "chip": "ym2612"
    },
    {
      "channel": 3,
      "note": 54,
      "start": 105.7843,
      "duration": 0.1941,
      "velocity": 114,
      "chip": "ym2612"
    },
    {
      "channel": 4,
      "note": 42,
      "start": 105.7852,
      "duration": 0.1941,
      "velocity": 110,
      "chip": "ym2612"
    },
    {
      "channel": 2,
      "note": 59,
      "start": 105.8138,
      "duration": 0.1615,
      "velocity": 127,
      "chip": "ym2612"
    },
    {
      "channel": 0,
      "note": 73,
      "start": 105.8766,
      "duration": 0.0961,
      "velocity": 123,
      "chip": "ym2612"
    },
    {
      "channel": 0,
      "note": 69,
      "start": 105.973,
      "duration": 0.0961,
      "velocity": 123,
      "chip": "ym2612"
    },
    {
      "channel": 2,
      "note": 66,
      "start": 105.9755,
      "duration": 0.0945,
      "velocity": 127,
      "chip": "ym2612"
    },
    {
      "channel": 3,
      "note": 54,
      "start": 105.9787,
      "duration": 0.191,
      "velocity": 114,
      "chip": "ym2612"
    },
    {
      "channel": 4,
      "note": 42,
      "start": 105.9795,
      "duration": 0.1911,
      "velocity": 110,
      "chip": "ym2612"
    },
    {
      "channel": 0,
      "note": 73,
      "start": 106.0692,
      "duration": 0.0967,
      "velocity": 123,
      "chip": "ym2612"
    },
    {
      "channel": 2,
      "note": 66,
      "start": 106.0702,
      "duration": 0.0966,
      "velocity": 127,
      "chip": "ym2612"
    },
    {
      "channel": 0,
      "note": 69,
      "start": 106.1661,
      "duration": 0.0956,
      "velocity": 123,
      "chip": "ym2612"
    },
    {
      "channel": 2,
      "note": 66,
      "start": 106.1671,
      "duration": 0.0955,
      "velocity": 127,
      "chip": "ym2612"
    },
    {
      "channel": 3,
      "note": 54,
      "start": 106.1699,
      "duration": 0.1934,
      "velocity": 114,
      "chip": "ym2612"
    },
    {
      "channel": 0,
      "note": 73,
      "start": 106.2618,
      "duration": 0.0962,
      "velocity": 123,
      "chip": "ym2612"
    },
    {
      "channel": 2,
      "note": 66,
      "start": 106.2629,
      "duration": 0.0976,
      "velocity": 123,
      "chip": "ym2612"
    },
    {
      "channel": 0,
      "note": 69,
      "start": 106.3582,
      "duration": 0.0961,
      "velocity": 123,
      "chip": "ym2612"
    },
    {
      "channel": 2,
      "note": 68,
      "start": 106.3607,
      "duration": 0.0946,
      "velocity": 123,
      "chip": "ym2612"
    },
    {
      "channel": 3,
      "note": 54,
      "start": 106.3635,
      "duration": 0.1931,
      "velocity": 114,
      "chip": "ym2612"
    },
    {
      "channel": 0,
      "note": 73,
      "start": 106.4545,
      "duration": 0.096,
      "velocity": 123,
      "chip": "ym2612"
    },
    {
      "channel": 2,
      "note": 68,
      "start": 106.4556,
      "duration": 0.0974,
      "velocity": 107,
      "chip": "ym2612"
    },
    {
      "channel": 0,
      "note": 69,
      "start": 106.5508,
      "duration": 0.0961,
      "velocity": 123,
      "chip": "ym2612"
    },
    {
      "channel": 2,
      "note": 30,
      "start": 106.5533,
      "duration": 0.0308,
      "velocity": 107,
      "chip": "ym2612"
    },
    {
      "channel": 3,
      "note": 54,
      "start": 106.5568,
      "duration": 0.1924,
      "velocity": 114,
      "chip": "ym2612"
    },
    {
      "channel": 4,
      "note": 42,
      "start": 106.5576,
      "duration": 0.1924,
      "velocity": 110,
      "chip": "ym2612"
    },
    {
      "channel": 2,
      "note": 30,
      "start": 106.5842,
      "duration": 0.1615,
      "velocity": 123,
      "chip": "ym2612"
    },
    {
      "channel": 0,
      "note": 73,
      "start": 106.6471,
      "duration": 0.0961,
      "velocity": 123,
      "chip": "ym2612"
    },
    {
      "channel": 0,
      "note": 69,
      "start": 106.7434,
      "duration": 0.0961,
      "velocity": 123,
      "chip": "ym2612"
    },
    {
      "channel": 2,
      "note": 59,
      "start": 106.7459,
      "duration": 0.0945,
      "velocity": 123,
      "chip": "ym2612"
    },
    {
      "channel": 3,
      "note": 54,
      "start": 106.7494,
      "duration": 0.1924,
      "velocity": 114,
      "chip": "ym2612"
    },
    {
      "channel": 0,
      "note": 73,
      "start": 106.8396,
      "duration": 0.0961,
      "velocity": 123,
      "chip": "ym2612"
    },
    {
      "channel": 2,
      "note": 59,
      "start": 106.8407,
      "duration": 0.0976,
      "velocity": 107,
      "chip": "ym2612"
    },
    {
      "channel": 0,
      "note": 69,
      "start": 106.936,
      "duration": 0.0966,
      "velocity": 123,
      "chip": "ym2612"
    },
    {
      "channel": 2,
      "note": 27,
      "start": 106.9385,
      "duration": 0.0308,
      "velocity": 107,
      "chip": "ym2612"
    },
    {
      "channel": 3,
      "note": 54,
      "start": 106.9421,
      "duration": 0.1923,
      "velocity": 114,
      "chip": "ym2612"
    },
    {
      "channel": 4,
      "note": 42,
      "start": 106.9429,
      "duration": 0.1923,
      "velocity": 110,
      "chip": "ym2612"
    },
    {
      "channel": 2,
      "note": 27,
      "start": 106.9695,
      "duration": 0.1615,
      "velocity": 127,
      "chip": "ym2612"
    },
    {
      "channel": 0,
      "note": 73,
      "start": 107.0328,
      "duration": 0.0957,
      "velocity": 123,
      "chip": "ym2612"
    },
    {
      "channel": 0,
      "note": 69,
      "start": 107.1286,
      "duration": 0.0961,
      "velocity": 123,
      "chip": "ym2612"
    },
    {
      "channel": 2,
      "note": 59,
      "start": 107.1313,
      "duration": 0.0307,
      "velocity": 127,
      "chip": "ym2612"
    },
    {
      "channel": 3,
      "note": 54,
      "start": 107.1346,
      "duration": 0.1925,
      "velocity": 114,
      "chip": "ym2612"
    },
    {
      "channel": 2,
      "note": 59,
      "start": 107.1622,
      "duration": 0.1615,
      "velocity": 123,
      "chip": "ym2612"
    },
    {
      "channel": 0,
      "note": 73,
      "start": 107.2249,
      "duration": 0.0961,
      "velocity": 123,
      "chip": "ym2612"
    },
    {
      "channel": 0,
      "note": 69,
      "start": 107.3212,
      "duration": 0.0961,
      "velocity": 123,
      "chip": "ym2612"
    },
    {
      "channel": 2,
      "note": 57,
      "start": 107.3238,
      "duration": 0.031,
      "velocity": 123,
      "chip": "ym2612"
    },
    {
      "channel": 3,
      "note": 54,
      "start": 107.3274,
      "duration": 0.1929,
      "velocity": 114,
      "chip": "ym2612"
    },
    {
      "channel": 4,
      "note": 42,
      "start": 107.3283,
      "duration": 0.1928,
      "velocity": 110,
      "chip": "ym2612"
    },
    {
      "channel": 2,
      "note": 57,
      "start": 107.355,
      "duration": 0.0328,
      "velocity": 123,
      "chip": "ym2612"
    },
    {
      "channel": 2,
      "note": 57,
      "start": 107.388,
      "duration": 0.0305,
      "velocity": 123,
      "chip": "ym2612"
    },
    {
      "channel": 0,
      "note": 73,
      "start": 107.4175,
      "duration": 0.0961,
      "velocity": 123,
      "chip": "ym2612"
    },
    {
      "channel": 2,
      "note": 57,
      "start": 107.4188,
      "duration": 0.0322,
      "velocity": 123,
      "chip": "ym2612"
    },
    {
      "channel": 2,
      "note": 57,
      "start": 107.4513,
      "duration": 0.03,
      "velocity": 123,
      "chip": "ym2612"
    },
    {
      "channel": 2,
      "note": 57,
      "start": 107.4821,
      "duration": 0.0349,
      "velocity": 127,
      "chip": "ym2612"
    },
    {
      "channel": 0,
      "note": 69,
      "start": 107.5138,
      "duration": 0.0961,
      "velocity": 123,
      "chip": "ym2612"
    },
    {
      "channel": 2,
      "note": 64,
      "start": 107.5172,
      "duration": 0.0937,
      "velocity": 127,
      "chip": "ym2612"
    },
    {
      "channel": 3,
      "note": 54,
      "start": 107.5204,
      "duration": 0.1896,
      "velocity": 114,
      "chip": "ym2612"
    },
    {
      "channel": 4,
      "note": 42,
      "start": 107.5213,
      "duration": 0.1896,
      "velocity": 110,
      "chip": "ym2612"
    },
    {
      "channel": 0,
      "note": 73,
      "start": 107.6101,
      "duration": 0.0961,
      "velocity": 123,
      "chip": "ym2612"
    },
    {
      "channel": 2,
      "note": 64,
      "start": 107.6111,
      "duration": 0.0962,
      "velocity": 127,
      "chip": "ym2612"
    },
    {
      "channel": 0,
      "note": 69,
      "start": 107.7064,
      "duration": 0.096,
      "velocity": 123,
      "chip": "ym2612"
    },
    {
      "channel": 2,
      "note": 64,
      "start": 107.7075,
      "duration": 0.096,
      "velocity": 127,
      "chip": "ym2612"
    },
    {
      "channel": 3,
      "note": 54,
      "start": 107.7102,
      "duration": 0.1929,
      "velocity": 114,
      "chip": "ym2612"
    },
    {
      "channel": 0,
      "note": 73,
      "start": 107.8026,
      "duration": 0.0933,
      "velocity": 123,
      "chip": "ym2612"
    },
    {
      "channel": 2,
      "note": 64,
      "start": 107.8036,
      "duration": 0.0959,
      "velocity": 107,
      "chip": "ym2612"
    },
    {
      "channel": 0,
      "note": 69,
      "start": 107.8961,
      "duration": 0.099,
      "velocity": 123,
      "chip": "ym2612"
    },
    {
      "channel": 1,
      "note": 35,
      "start": 107.8968,
      "duration": 2.9574,
      "velocity": 98,
      "chip": "ym2612"
    },
    {
      "channel": 2,
      "note": 26,
      "start": 107.8998,
      "duration": 0.0332,
      "velocity": 107,
      "chip": "ym2612"
    },
    {
      "channel": 3,
      "note": 54,
      "start": 107.9034,
      "duration": 0.1933,
      "velocity": 114,
      "chip": "ym2612"
    },
    {
      "channel": 4,
      "note": 42,
      "start": 107.9043,
      "duration": 0.1933,
      "velocity": 110,
      "chip": "ym2612"
    },
    {
      "channel": 2,
      "note": 26,
      "start": 107.9332,
      "duration": 0.1608,
      "velocity": 127,
      "chip": "ym2612"
    },
    {
      "channel": 0,
      "note": 73,
      "start": 107.9954,
      "duration": 0.096,
      "velocity": 123,
      "chip": "ym2612"
    },
    {
      "channel": 0,
      "note": 69,
      "start": 108.0917,
      "duration": 0.0961,
      "velocity": 123,
      "chip": "ym2612"
    },
    {
      "channel": 2,
      "note": 59,
      "start": 108.0941,
      "duration": 0.1924,
      "velocity": 127,
      "chip": "ym2612"
    },
    {
      "channel": 3,
      "note": 54,
      "start": 108.097,
      "duration": 0.1924,
      "velocity": 114,
      "chip": "ym2612"
    },
    {
      "channel": 0,
      "note": 73,
      "start": 108.1879,
      "duration": 0.0961,
      "velocity": 123,
      "chip": "ym2612"
    },
    {
      "channel": 5,
      "note": 35,
      "start": 108.1922,
      "duration": 2.954,
      "velocity": 98,
      "chip": "ym2612"
    },
    {
      "channel": 0,
      "note": 69,
      "start": 108.2842,
      "duration": 0.0961,
      "velocity": 123,
      "chip": "ym2612"
    },
    {
      "channel": 2,
      "note": 59,
      "start": 108.2867,
      "duration": 0.0309,
      "velocity": 127,
      "chip": "ym2612"
    },
    {
      "channel": 3,
      "note": 54,
      "start": 108.2896,
      "duration": 0.1937,
      "velocity": 114,
      "chip": "ym2612"
    },
    {
      "channel": 2,
      "note": 59,
      "start": 108.3178,
      "duration": 0.1613,
      "velocity": 127,
      "chip": "ym2612"
    },
    {
      "channel": 0,
      "note": 73,
      "start": 108.3805,
      "duration": 0.0961,
      "velocity": 123,
      "chip": "ym2612"
    },
    {
      "channel": 0,
      "note": 69,
      "start": 108.4769,
      "duration": 0.096,
      "velocity": 123,
      "chip": "ym2612"
    },
    {
      "channel": 2,
      "note": 64,
      "start": 108.4793,
      "duration": 0.1926,
      "velocity": 123,
      "chip": "ym2612"
    },
    {
      "channel": 3,
      "note": 54,
      "start": 108.4834,
      "duration": 0.1912,
      "velocity": 114,
      "chip": "ym2612"
    },
    {
      "channel": 4,
      "note": 42,
      "start": 108.4843,
      "duration": 0.1912,
      "velocity": 110,
      "chip": "ym2612"
    },
    {
      "channel": 0,
      "note": 73,
      "start": 108.5732,
      "duration": 0.0961,
      "velocity": 123,
      "chip": "ym2612"
    },
    {
      "channel": 0,
      "note": 69,
      "start": 108.6695,
      "duration": 0.0965,
      "velocity": 123,
      "chip": "ym2612"
    },
    {
      "channel": 2,
      "note": 57,
      "start": 108.6721,
      "duration": 0.031,
      "velocity": 123,
      "chip": "ym2612"
    },
    {
      "channel": 3,
      "note": 54,
      "start": 108.6749,
      "duration": 0.1938,
      "velocity": 114,
      "chip": "ym2612"
    },
    {
      "channel": 2,
      "note": 57,
      "start": 108.7033,
      "duration": 0.0328,
      "velocity": 123,
      "chip": "ym2612"
    },
    {
      "channel": 2,
      "note": 57,
      "start": 108.7363,
      "duration": 0.031,
      "velocity": 123,
      "chip": "ym2612"
    },
    {
      "channel": 0,
      "note": 73,
      "start": 108.7662,
      "duration": 0.0957,
      "velocity": 123,
      "chip": "ym2612"
    },
    {
      "channel": 2,
      "note": 57,
      "start": 108.7675,
      "duration": 0.0323,
      "velocity": 123,
      "chip": "ym2612"
    },
    {
      "channel": 2,
      "note": 57,
      "start": 108.8001,
      "duration": 0.0295,
      "velocity": 123,
      "chip": "ym2612"
    },
    {
      "channel": 2,
      "note": 57,
      "start": 108.8298,
      "duration": 0.0351,
      "velocity": 127,
      "chip": "ym2612"
    },
    {
      "channel": 0,
      "note": 69,
      "start": 108.8621,
      "duration": 0.099,
      "velocity": 123,
      "chip": "ym2612"
    },
    {
      "channel": 2,
      "note": 59,
      "start": 108.8655,
      "duration": 0.0335,
      "velocity": 127,
      "chip": "ym2612"
    },
    {
      "channel": 3,
      "note": 54,
      "start": 108.869,
      "duration": 0.1914,
      "velocity": 114,
      "chip": "ym2612"
    },
    {
      "channel": 4,
      "note": 42,
      "start": 108.8699,
      "duration": 0.1913,
      "velocity": 110,
      "chip": "ym2612"
    },
    {
      "channel": 2,
      "note": 59,
      "start": 108.8992,
      "duration": 0.1579,
      "velocity": 127,
      "chip": "ym2612"
    },
    {
      "channel": 0,
      "note": 73,
      "start": 108.9613,
      "duration": 0.0932,
      "velocity": 123,
      "chip": "ym2612"
    },
    {
      "channel": 0,
      "note": 69,
      "start": 109.0548,
      "duration": 0.0989,
      "velocity": 123,
      "chip": "ym2612"
    },
    {
      "channel": 2,
      "note": 66,
      "start": 109.0573,
      "duration": 0.0974,
      "velocity": 127,
      "chip": "ym2612"
    },
    {
      "channel": 3,
      "note": 54,
      "start": 109.0605,
      "duration": 0.1912,
      "velocity": 114,
      "chip": "ym2612"
    },
    {
      "channel": 4,
      "note": 42,
      "start": 109.0614,
      "duration": 0.1912,
      "velocity": 110,
      "chip": "ym2612"
    },
    {
      "channel": 0,
      "note": 73,
      "start": 109.1539,
      "duration": 0.0933,
      "velocity": 123,
      "chip": "ym2612"
    },
    {
      "channel": 2,
      "note": 66,
      "start": 109.1549,
      "duration": 0.0939,
      "velocity": 127,
      "chip": "ym2612"
    },
    {
      "channel": 0,
      "note": 69,
      "start": 109.2474,
      "duration": 0.0989,
      "velocity": 123,
      "chip": "ym2612"
    },
    {
      "channel": 2,
      "note": 66,
      "start": 109.249,
      "duration": 0.0983,
      "velocity": 127,
      "chip": "ym2612"
    },
    {
      "channel": 3,
      "note": 54,
      "start": 109.2519,
      "duration": 0.1932,
      "velocity": 114,
      "chip": "ym2612"
    },
    {
      "channel": 0,
      "note": 73,
      "start": 109.3465,
      "duration": 0.0934,
      "velocity": 123,
      "chip": "ym2612"
    },
    {
      "channel": 2,
      "note": 66,
      "start": 109.3475,
      "duration": 0.0948,
      "velocity": 123,
      "chip": "ym2612"
    },
    {
      "channel": 0,
      "note": 69,
      "start": 109.4401,
      "duration": 0.0988,
      "velocity": 123,
      "chip": "ym2612"
    },
    {
      "channel": 2,
      "note": 68,
      "start": 109.4426,
      "duration": 0.0973,
      "velocity": 123,
      "chip": "ym2612"
    },
    {
      "channel": 3,
      "note": 54,
      "start": 109.4454,
      "duration": 0.1934,
      "velocity": 114,
      "chip": "ym2612"
    },
    {
      "channel": 0,
      "note": 73,
      "start": 109.5391,
      "duration": 0.0936,
      "velocity": 123,
      "chip": "ym2612"
    },
    {
      "channel": 2,
      "note": 68,
      "start": 109.5402,
      "duration": 0.0951,
      "velocity": 107,
      "chip": "ym2612"
    },
    {
      "channel": 0,
      "note": 69,
      "start": 109.633,
      "duration": 0.0992,
      "velocity": 123,
      "chip": "ym2612"
    },
    {
      "channel": 2,
      "note": 30,
      "start": 109.6354,
      "duration": 0.0333,
      "velocity": 107,
      "chip": "ym2612"
    },
    {
      "channel": 3,
      "note": 54,
      "start": 109.639,
      "duration": 0.1913,
      "velocity": 114,
      "chip": "ym2612"
    },
    {
      "channel": 4,
      "note": 42,
      "start": 109.6399,
      "duration": 0.1914,
      "velocity": 110,
      "chip": "ym2612"
    },
    {
      "channel": 2,
      "note": 30,
      "start": 109.669,
      "duration": 0.1586,
      "velocity": 123,
      "chip": "ym2612"
    },
    {
      "channel": 0,
      "note": 73,
      "start": 109.7324,
      "duration": 0.0926,
      "velocity": 123,
      "chip": "ym2612"
    },
    {
      "channel": 0,
      "note": 69,
      "start": 109.8253,
      "duration": 0.0989,
      "velocity": 123,
      "chip": "ym2612"
    },
    {
      "channel": 2,
      "note": 59,
      "start": 109.8278,
      "duration": 0.0974,
      "velocity": 123,
      "chip": "ym2612"
    },
    {
      "channel": 3,
      "note": 54,
      "start": 109.8305,
      "duration": 0.1931,
      "velocity": 114,
      "chip": "ym2612"
    },
    {
      "channel": 0,
      "note": 73,
      "start": 109.9244,
      "duration": 0.0933,
      "velocity": 123,
      "chip": "ym2612"
    },
    {
      "channel": 2,
      "note": 59,
      "start": 109.9254,
      "duration": 0.0947,
      "velocity": 107,
      "chip": "ym2612"
    },
    {
      "channel": 0,
      "note": 69,
      "start": 110.0179,
      "duration": 0.0988,
      "velocity": 123,
      "chip": "ym2612"
    },
    {
      "channel": 2,
      "note": 27,
      "start": 110.0204,
      "duration": 0.0336,
      "velocity": 107,
      "chip": "ym2612"
    },
    {
      "channel": 3,
      "note": 54,
      "start": 110.0239,
      "duration": 0.1923,
      "velocity": 114,
      "chip": "ym2612"
    },
    {
      "channel": 4,
      "note": 42,
      "start": 110.0248,
      "duration": 0.1923,
      "velocity": 110,
      "chip": "ym2612"
    },
    {
      "channel": 2,
      "note": 27,
      "start": 110.0542,
      "duration": 0.1586,
      "velocity": 127,
      "chip": "ym2612"
    },
    {
      "channel": 0,
      "note": 73,
      "start": 110.117,
      "duration": 0.0933,
      "velocity": 123,
      "chip": "ym2612"
    },
    {
      "channel": 0,
      "note": 69,
      "start": 110.2105,
      "duration": 0.0989,
      "velocity": 123,
      "chip": "ym2612"
    },
    {
      "channel": 2,
      "note": 59,
      "start": 110.2131,
      "duration": 0.0335,
      "velocity": 127,
      "chip": "ym2612"
    },
    {
      "channel": 3,
      "note": 54,
      "start": 110.2165,
      "duration": 0.1926,
      "velocity": 114,
      "chip": "ym2612"
    },
    {
      "channel": 2,
      "note": 59,
      "start": 110.2468,
      "duration": 0.1587,
      "velocity": 123,
      "chip": "ym2612"
    },
    {
      "channel": 0,
      "note": 73,
      "start": 110.3096,
      "duration": 0.0933,
      "velocity": 123,
      "chip": "ym2612"
    },
    {
      "channel": 0,
      "note": 69,
      "start": 110.4031,
      "duration": 0.0988,
      "velocity": 123,
      "chip": "ym2612"
    },
    {
      "channel": 2,
      "note": 57,
      "start": 110.4057,
      "duration": 0.0338,
      "velocity": 123,
      "chip": "ym2612"
    },
    {
      "channel": 3,
      "note": 54,
      "start": 110.4093,
      "duration": 0.1927,
      "velocity": 114,
      "chip": "ym2612"
    },
    {
      "channel": 4,
      "note": 42,
      "start": 110.4102,
      "duration": 0.1928,
      "velocity": 110,
      "chip": "ym2612"
    },
    {
      "channel": 2,
      "note": 57,
      "start": 110.4397,
      "duration": 0.03,
      "velocity": 123,
      "chip": "ym2612"
    },
    {
      "channel": 2,
      "note": 57,
      "start": 110.4699,
      "duration": 0.0333,
      "velocity": 123,
      "chip": "ym2612"
    },
    {
      "channel": 0,
      "note": 73,
      "start": 110.5022,
      "duration": 0.0932,
      "velocity": 123,
      "chip": "ym2612"
    },
    {
      "channel": 2,
      "note": 57,
      "start": 110.5035,
      "duration": 0.0298,
      "velocity": 123,
      "chip": "ym2612"
    },
    {
      "channel": 2,
      "note": 57,
      "start": 110.5335,
      "duration": 0.033,
      "velocity": 123,
      "chip": "ym2612"
    },
    {
      "channel": 2,
      "note": 57,
      "start": 110.5667,
      "duration": 0.0321,
      "velocity": 127,
      "chip": "ym2612"
    },
    {
      "channel": 0,
      "note": 69,
      "start": 110.5957,
      "duration": 0.0989,
      "velocity": 123,
      "chip": "ym2612"
    },
    {
      "channel": 2,
      "note": 64,
      "start": 110.599,
      "duration": 0.0966,
      "velocity": 127,
      "chip": "ym2612"
    },
    {
      "channel": 3,
      "note": 54,
      "start": 110.6023,
      "duration": 0.1896,
      "velocity": 114,
      "chip": "ym2612"
    },
    {
      "channel": 4,
      "note": 42,
      "start": 110.6031,
      "duration": 0.1896,
      "velocity": 110,
      "chip": "ym2612"
    },
    {
      "channel": 0,
      "note": 73,
      "start": 110.6948,
      "duration": 0.0933,
      "velocity": 123,
      "chip": "ym2612"
    },
    {
      "channel": 2,
      "note": 64,
      "start": 110.6958,
      "duration": 0.0933,
      "velocity": 127,
      "chip": "ym2612"
    },
    {
      "channel": 0,
      "note": 69,
      "start": 110.7883,
      "duration": 0.096,
      "velocity": 123,
      "chip": "ym2612"
    },
    {
      "channel": 2,
      "note": 64,
      "start": 110.7893,
      "duration": 0.096,
      "velocity": 127,
      "chip": "ym2612"
    },
    {
      "channel": 3,
      "note": 54,
      "start": 110.7921,
      "duration": 0.1968,
      "velocity": 114,
      "chip": "ym2612"
    },
    {
      "channel": 0,
      "note": 73,
      "start": 110.8845,
      "duration": 0.0962,
      "velocity": 123,
      "chip": "ym2612"
    },
    {
      "channel": 2,
      "note": 64,
      "start": 110.8855,
      "duration": 0.0991,
      "velocity": 107,
      "chip": "ym2612"
    },
    {
      "channel": 0,
      "note": 69,
      "start": 110.9809,
      "duration": 0.099,
      "velocity": 123,
      "chip": "ym2612"
    },
    {
      "channel": 1,
      "note": 31,
      "start": 110.9826,
      "duration": 2.9535,
      "velocity": 98,
      "chip": "ym2612"
    },
    {
      "channel": 2,
      "note": 26,
      "start": 110.9848,
      "duration": 0.0322,
      "velocity": 107,
      "chip": "ym2612"
    },
    {
      "channel": 3,
      "note": 55,
      "start": 110.9891,
      "duration": 0.1896,
      "velocity": 114,
      "chip": "ym2612"
    },
    {
      "channel": 4,
      "note": 43,
      "start": 110.9902,
      "duration": 0.1893,
      "velocity": 110,
      "chip": "ym2612"
    },
    {
      "channel": 2,
      "note": 26,
      "start": 111.0173,
      "duration": 0.1586,
      "velocity": 127,
      "chip": "ym2612"
    },
    {
      "channel": 0,
      "note": 73,
      "start": 111.08,
      "duration": 0.0933,
      "velocity": 123,
      "chip": "ym2612"
    },
    {
      "channel": 0,
      "note": 69,
      "start": 111.1735,
      "duration": 0.0989,
      "velocity": 123,
      "chip": "ym2612"
    },
    {
      "channel": 2,
      "note": 59,
      "start": 111.1761,
      "duration": 0.1924,
      "velocity": 127,
      "chip": "ym2612"
    },
    {
      "channel": 3,
      "note": 55,
      "start": 111.1789,
      "duration": 0.1924,
      "velocity": 114,
      "chip": "ym2612"
    },
    {
      "channel": 0,
      "note": 73,
      "start": 111.2727,
      "duration": 0.0934,
      "velocity": 123,
      "chip": "ym2612"
    },
    {
      "channel": 5,
      "note": 31,
      "start": 111.2774,
      "duration": 2.9507,
      "velocity": 98,
      "chip": "ym2612"
    },
    {
      "channel": 0,
      "note": 69,
      "start": 111.3662,
      "duration": 0.0994,
      "velocity": 123,
      "chip": "ym2612"
    },
    {
      "channel": 2,
      "note": 59,
      "start": 111.3687,
      "duration": 0.0335,
      "velocity": 127,
      "chip": "ym2612"
    },
    {
      "channel": 3,
      "note": 55,
      "start": 111.3715,
      "duration": 0.1929,
      "velocity": 114,
      "chip": "ym2612"
    },
    {
      "channel": 2,
      "note": 59,
      "start": 111.4025,
      "duration": 0.1585,
      "velocity": 127,
      "chip": "ym2612"
    },
    {
      "channel": 0,
      "note": 73,
      "start": 111.4659,
      "duration": 0.0926,
      "velocity": 123,
      "chip": "ym2612"
    },
    {
      "channel": 0,
      "note": 69,
      "start": 111.5587,
      "duration": 0.0989,
      "velocity": 123,
      "chip": "ym2612"
    },
    {
      "channel": 2,
      "note": 64,
      "start": 111.5611,
      "duration": 0.1926,
      "velocity": 123,
      "chip": "ym2612"
    },
    {
      "channel": 3,
      "note": 55,
      "start": 111.5653,
      "duration": 0.1912,
      "velocity": 114,
      "chip": "ym2612"
    },
    {
      "channel": 4,
      "note": 43,
      "start": 111.5661,
      "duration": 0.1913,
      "velocity": 110,
      "chip": "ym2612"
    },
    {
      "channel": 0,
      "note": 73,
      "start": 111.6578,
      "duration": 0.0933,
      "velocity": 123,
      "chip": "ym2612"
    },
    {
      "channel": 0,
      "note": 69,
      "start": 111.7514,
      "duration": 0.0989,
      "velocity": 123,
      "chip": "ym2612"
    },
    {
      "channel": 2,
      "note": 57,
      "start": 111.7539,
      "duration": 0.0338,
      "velocity": 123,
      "chip": "ym2612"
    },
    {
      "channel": 3,
      "note": 55,
      "start": 111.7568,
      "duration": 0.1939,
      "velocity": 114,
      "chip": "ym2612"
    },
    {
      "channel": 2,
      "note": 57,
      "start": 111.788,
      "duration": 0.03,
      "velocity": 123,
      "chip": "ym2612"
    },
    {
      "channel": 2,
      "note": 57,
      "start": 111.8183,
      "duration": 0.0333,
      "velocity": 123,
      "chip": "ym2612"
    },
    {
      "channel": 0,
      "note": 73,
      "start": 111.8505,
      "duration": 0.0933,
      "velocity": 123,
      "chip": "ym2612"
    },
    {
      "channel": 2,
      "note": 57,
      "start": 111.8518,
      "duration": 0.0297,
      "velocity": 123,
      "chip": "ym2612"
    },
    {
      "channel": 2,
      "note": 57,
      "start": 111.8821,
      "duration": 0.0321,
      "velocity": 123,
      "chip": "ym2612"
    },
    {
      "channel": 2,
      "note": 57,
      "start": 111.9144,
      "duration": 0.0321,
      "velocity": 127,
      "chip": "ym2612"
    },
    {
      "channel": 0,
      "note": 69,
      "start": 111.944,
      "duration": 0.0989,
      "velocity": 123,
      "chip": "ym2612"
    },
    {
      "channel": 2,
      "note": 59,
      "start": 111.9468,
      "duration": 0.0334,
      "velocity": 127,
      "chip": "ym2612"
    },
    {
      "channel": 3,
      "note": 55,
      "start": 111.9509,
      "duration": 0.1941,
      "velocity": 114,
      "chip": "ym2612"
    },
    {
      "channel": 4,
      "note": 43,
      "start": 111.9518,
      "duration": 0.1941,
      "velocity": 110,
      "chip": "ym2612"
    },
    {
      "channel": 2,
      "note": 59,
      "start": 111.9804,
      "duration": 0.1615,
      "velocity": 127,
      "chip": "ym2612"
    },
    {
      "channel": 0,
      "note": 73,
      "start": 112.0432,
      "duration": 0.0962,
      "velocity": 123,
      "chip": "ym2612"
    },
    {
      "channel": 0,
      "note": 69,
      "start": 112.1395,
      "duration": 0.0961,
      "velocity": 123,
      "chip": "ym2612"
    },
    {
      "channel": 2,
      "note": 66,
      "start": 112.142,
      "duration": 0.0946,
      "velocity": 127,
      "chip": "ym2612"
    },
    {
      "channel": 3,
      "note": 55,
      "start": 112.1452,
      "duration": 0.191,
      "velocity": 114,
      "chip": "ym2612"
    },
    {
      "channel": 4,
      "note": 43,
      "start": 112.1461,
      "duration": 0.191,
      "velocity": 110,
      "chip": "ym2612"
    },
    {
      "channel": 0,
      "note": 73,
      "start": 112.2358,
      "duration": 0.0967,
      "velocity": 123,
      "chip": "ym2612"
    },
    {
      "channel": 2,
      "note": 66,
      "start": 112.2368,
      "duration": 0.0967,
      "velocity": 127,
      "chip": "ym2612"
    },
    {
      "channel": 0,
      "note": 69,
      "start": 112.3327,
      "duration": 0.0955,
      "velocity": 123,
      "chip": "ym2612"
    },
    {
      "channel": 2,
      "note": 66,
      "start": 112.3337,
      "duration": 0.0955,
      "velocity": 127,
      "chip": "ym2612"
    },
    {
      "channel": 3,
      "note": 55,
      "start": 112.3365,
      "duration": 0.1933,
      "velocity": 114,
      "chip": "ym2612"
    },
    {
      "channel": 0,
      "note": 73,
      "start": 112.4284,
      "duration": 0.0962,
      "velocity": 123,
      "chip": "ym2612"
    },
    {
      "channel": 2,
      "note": 66,
      "start": 112.4294,
      "duration": 0.0976,
      "velocity": 123,
      "chip": "ym2612"
    },
    {
      "channel": 0,
      "note": 69,
      "start": 112.5248,
      "duration": 0.0961,
      "velocity": 123,
      "chip": "ym2612"
    },
    {
      "channel": 2,
      "note": 68,
      "start": 112.5272,
      "duration": 0.0947,
      "velocity": 123,
      "chip": "ym2612"
    },
    {
      "channel": 3,
      "note": 55,
      "start": 112.53,
      "duration": 0.1931,
      "velocity": 114,
      "chip": "ym2612"
    },
    {
      "channel": 0,
      "note": 73,
      "start": 112.6211,
      "duration": 0.0961,
      "velocity": 123,
      "chip": "ym2612"
    },
    {
      "channel": 2,
      "note": 68,
      "start": 112.6221,
      "duration": 0.0975,
      "velocity": 107,
      "chip": "ym2612"
    },
    {
      "channel": 0,
      "note": 69,
      "start": 112.7173,
      "duration": 0.0961,
      "velocity": 123,
      "chip": "ym2612"
    },
    {
      "channel": 2,
      "note": 30,
      "start": 112.7198,
      "duration": 0.0308,
      "velocity": 107,
      "chip": "ym2612"
    },
    {
      "channel": 3,
      "note": 55,
      "start": 112.7234,
      "duration": 0.1923,
      "velocity": 114,
      "chip": "ym2612"
    },
    {
      "channel": 4,
      "note": 43,
      "start": 112.7242,
      "duration": 0.1923,
      "velocity": 110,
      "chip": "ym2612"
    },
    {
      "channel": 2,
      "note": 30,
      "start": 112.7508,
      "duration": 0.1614,
      "velocity": 123,
      "chip": "ym2612"
    },
    {
      "channel": 0,
      "note": 73,
      "start": 112.8136,
      "duration": 0.0961,
      "velocity": 123,
      "chip": "ym2612"
    },
    {
      "channel": 0,
      "note": 69,
      "start": 112.9099,
      "duration": 0.0961,
      "velocity": 123,
      "chip": "ym2612"
    },
    {
      "channel": 2,
      "note": 59,
      "start": 112.9125,
      "duration": 0.0945,
      "velocity": 123,
      "chip": "ym2612"
    },
    {
      "channel": 3,
      "note": 55,
      "start": 112.9159,
      "duration": 0.1925,
      "velocity": 114,
      "chip": "ym2612"
    },
    {
      "channel": 0,
      "note": 73,
      "start": 113.0062,
      "duration": 0.0961,
      "velocity": 123,
      "chip": "ym2612"
    },
    {
      "channel": 2,
      "note": 59,
      "start": 113.0072,
      "duration": 0.0977,
      "velocity": 107,
      "chip": "ym2612"
    },
    {
      "channel": 0,
      "note": 69,
      "start": 113.1026,
      "duration": 0.0966,
      "velocity": 123,
      "chip": "ym2612"
    },
    {
      "channel": 2,
      "note": 27,
      "start": 113.105,
      "duration": 0.0308,
      "velocity": 107,
      "chip": "ym2612"
    },
    {
      "channel": 3,
      "note": 55,
      "start": 113.1086,
      "duration": 0.1924,
      "velocity": 114,
      "chip": "ym2612"
    },
    {
      "channel": 4,
      "note": 43,
      "start": 113.1095,
      "duration": 0.1924,
      "velocity": 110,
      "chip": "ym2612"
    },
    {
      "channel": 2,
      "note": 27,
      "start": 113.136,
      "duration": 0.1615,
      "velocity": 127,
      "chip": "ym2612"
    },
    {
      "channel": 0,
      "note": 73,
      "start": 113.1994,
      "duration": 0.0956,
      "velocity": 123,
      "chip": "ym2612"
    },
    {
      "channel": 0,
      "note": 69,
      "start": 113.2952,
      "duration": 0.0961,
      "velocity": 123,
      "chip": "ym2612"
    },
    {
      "channel": 2,
      "note": 59,
      "start": 113.2978,
      "duration": 0.0307,
      "velocity": 127,
      "chip": "ym2612"
    },
    {
      "channel": 3,
      "note": 55,
      "start": 113.3012,
      "duration": 0.1926,
      "velocity": 114,
      "chip": "ym2612"
    },
    {
      "channel": 2,
      "note": 59,
      "start": 113.3287,
      "duration": 0.1615,
      "velocity": 123,
      "chip": "ym2612"
    },
    {
      "channel": 0,
      "note": 73,
      "start": 113.3915,
      "duration": 0.0961,
      "velocity": 123,
      "chip": "ym2612"
    },
    {
      "channel": 0,
      "note": 69,
      "start": 113.4878,
      "duration": 0.0961,
      "velocity": 123,
      "chip": "ym2612"
    },
    {
      "channel": 2,
      "note": 57,
      "start": 113.4904,
      "duration": 0.0309,
      "velocity": 123,
      "chip": "ym2612"
    },
    {
      "channel": 3,
      "note": 55,
      "start": 113.494,
      "duration": 0.1928,
      "velocity": 114,
      "chip": "ym2612"
    },
    {
      "channel": 4,
      "note": 43,
      "start": 113.4949,
      "duration": 0.1928,
      "velocity": 110,
      "chip": "ym2612"
    },
    {
      "channel": 2,
      "note": 57,
      "start": 113.5216,
      "duration": 0.0328,
      "velocity": 123,
      "chip": "ym2612"
    },
    {
      "channel": 2,
      "note": 57,
      "start": 113.5546,
      "duration": 0.0305,
      "velocity": 123,
      "chip": "ym2612"
    },
    {
      "channel": 0,
      "note": 73,
      "start": 113.584,
      "duration": 0.0961,
      "velocity": 123,
      "chip": "ym2612"
    },
    {
      "channel": 2,
      "note": 57,
      "start": 113.5853,
      "duration": 0.0323,
      "velocity": 123,
      "chip": "ym2612"
    },
    {
      "channel": 2,
      "note": 57,
      "start": 113.6178,
      "duration": 0.03,
      "velocity": 123,
      "chip": "ym2612"
    },
    {
      "channel": 2,
      "note": 57,
      "start": 113.6487,
      "duration": 0.0349,
      "velocity": 127,
      "chip": "ym2612"
    },
    {
      "channel": 0,
      "note": 69,
      "start": 113.6804,
      "duration": 0.0961,
      "velocity": 123,
      "chip": "ym2612"
    },
    {
      "channel": 2,
      "note": 64,
      "start": 113.6838,
      "duration": 0.0937,
      "velocity": 127,
      "chip": "ym2612"
    },
    {
      "channel": 3,
      "note": 55,
      "start": 113.687,
      "duration": 0.1896,
      "velocity": 114,
      "chip": "ym2612"
    },
    {
      "channel": 4,
      "note": 43,
      "start": 113.6879,
      "duration": 0.1896,
      "velocity": 110,
      "chip": "ym2612"
    },
    {
      "channel": 0,
      "note": 73,
      "start": 113.7767,
      "duration": 0.0961,
      "velocity": 123,
      "chip": "ym2612"
    },
    {
      "channel": 2,
      "note": 64,
      "start": 113.7777,
      "duration": 0.0961,
      "velocity": 127,
      "chip": "ym2612"
    },
    {
      "channel": 0,
      "note": 69,
      "start": 113.873,
      "duration": 0.0959,
      "velocity": 123,
      "chip": "ym2612"
    },
    {
      "channel": 2,
      "note": 64,
      "start": 113.874,
      "duration": 0.096,
      "velocity": 127,
      "chip": "ym2612"
    },
    {
      "channel": 3,
      "note": 55,
      "start": 113.8768,
      "duration": 0.1929,
      "velocity": 114,
      "chip": "ym2612"
    },
    {
      "channel": 0,
      "note": 73,
      "start": 113.9692,
      "duration": 0.0933,
      "velocity": 123,
      "chip": "ym2612"
    },
    {
      "channel": 2,
      "note": 64,
      "start": 113.9702,
      "duration": 0.0959,
      "velocity": 107,
      "chip": "ym2612"
    },
    {
      "channel": 0,
      "note": 69,
      "start": 114.0627,
      "duration": 0.099,
      "velocity": 123,
      "chip": "ym2612"
    },
    {
      "channel": 1,
      "note": 33,
      "start": 114.0634,
      "duration": 2.9574,
      "velocity": 98,
      "chip": "ym2612"
    },
    {
      "channel": 2,
      "note": 26,
      "start": 114.0663,
      "duration": 0.0333,
      "velocity": 107,
      "chip": "ym2612"
    },
    {
      "channel": 3,
      "note": 55,
      "start": 114.07,
      "duration": 0.1933,
      "velocity": 114,
      "chip": "ym2612"
    },
    {
      "channel": 4,
      "note": 43,
      "start": 114.0709,
      "duration": 0.1933,
      "velocity": 110,
      "chip": "ym2612"
    },
    {
      "channel": 2,
      "note": 26,
      "start": 114.0998,
      "duration": 0.1608,
      "velocity": 127,
      "chip": "ym2612"
    },
    {
      "channel": 0,
      "note": 73,
      "start": 114.162,
      "duration": 0.0961,
      "velocity": 123,
      "chip": "ym2612"
    },
    {
      "channel": 0,
      "note": 69,
      "start": 114.2582,
      "duration": 0.0961,
      "velocity": 123,
      "chip": "ym2612"
    },
    {
      "channel": 2,
      "note": 59,
      "start": 114.2608,
      "duration": 0.1923,
      "velocity": 127,
      "chip": "ym2612"
    },
    {
      "channel": 3,
      "note": 55,
      "start": 114.2636,
      "duration": 0.1923,
      "velocity": 114,
      "chip": "ym2612"
    },
    {
      "channel": 0,
      "note": 73,
      "start": 114.3545,
      "duration": 0.0961,
      "velocity": 123,
      "chip": "ym2612"
    },
    {
      "channel": 5,
      "note": 33,
      "start": 114.3588,
      "duration": 2.9541,
      "velocity": 98,
      "chip": "ym2612"
    },
    {
      "channel": 0,
      "note": 69,
      "start": 114.4508,
      "duration": 0.0961,
      "velocity": 123,
      "chip": "ym2612"
    },
    {
      "channel": 2,
      "note": 59,
      "start": 114.4533,
      "duration": 0.0308,
      "velocity": 127,
      "chip": "ym2612"
    },
    {
      "channel": 3,
      "note": 55,
      "start": 114.4561,
      "duration": 0.1937,
      "velocity": 114,
      "chip": "ym2612"
    },
    {
      "channel": 2,
      "note": 59,
      "start": 114.4843,
      "duration": 0.1614,
      "velocity": 127,
      "chip": "ym2612"
    },
    {
      "channel": 0,
      "note": 73,
      "start": 114.5471,
      "duration": 0.0962,
      "velocity": 123,
      "chip": "ym2612"
    },
    {
      "channel": 0,
      "note": 69,
      "start": 114.6435,
      "duration": 0.0961,
      "velocity": 123,
      "chip": "ym2612"
    },
    {
      "channel": 2,
      "note": 64,
      "start": 114.6459,
      "duration": 0.1926,
      "velocity": 123,
      "chip": "ym2612"
    },
    {
      "channel": 3,
      "note": 55,
      "start": 114.6501,
      "duration": 0.1912,
      "velocity": 114,
      "chip": "ym2612"
    },
    {
      "channel": 4,
      "note": 43,
      "start": 114.651,
      "duration": 0.1912,
      "velocity": 110,
      "chip": "ym2612"
    },
    {
      "channel": 0,
      "note": 73,
      "start": 114.7397,
      "duration": 0.0962,
      "velocity": 123,
      "chip": "ym2612"
    },
    {
      "channel": 0,
      "note": 69,
      "start": 114.8361,
      "duration": 0.0965,
      "velocity": 123,
      "chip": "ym2612"
    },
    {
      "channel": 2,
      "note": 57,
      "start": 114.8387,
      "duration": 0.031,
      "velocity": 123,
      "chip": "ym2612"
    },
    {
      "channel": 3,
      "note": 55,
      "start": 114.8415,
      "duration": 0.1938,
      "velocity": 114,
      "chip": "ym2612"
    },
    {
      "channel": 2,
      "note": 57,
      "start": 114.8699,
      "duration": 0.0327,
      "velocity": 123,
      "chip": "ym2612"
    },
    {
      "channel": 2,
      "note": 57,
      "start": 114.9029,
      "duration": 0.031,
      "velocity": 123,
      "chip": "ym2612"
    },
    {
      "channel": 0,
      "note": 73,
      "start": 114.9328,
      "duration": 0.0956,
      "velocity": 123,
      "chip": "ym2612"
    },
    {
      "channel": 2,
      "note": 57,
      "start": 114.9342,
      "duration": 0.0322,
      "velocity": 123,
      "chip": "ym2612"
    },
    {
      "channel": 2,
      "note": 57,
      "start": 114.9667,
      "duration": 0.0295,
      "velocity": 123,
      "chip": "ym2612"
    },
    {
      "channel": 2,
      "note": 57,
      "start": 114.9963,
      "duration": 0.0349,
      "velocity": 127,
      "chip": "ym2612"
    },
    {
      "channel": 0,
      "note": 69,
      "start": 115.0286,
      "duration": 0.099,
      "velocity": 123,
      "chip": "ym2612"
    },
    {
      "channel": 2,
      "note": 59,
      "start": 115.032,
      "duration": 0.0335,
      "velocity": 127,
      "chip": "ym2612"
    },
    {
      "channel": 3,
      "note": 55,
      "start": 115.0355,
      "duration": 0.1913,
      "velocity": 114,
      "chip": "ym2612"
    },
    {
      "channel": 4,
      "note": 43,
      "start": 115.0364,
      "duration": 0.1914,
      "velocity": 110,
      "chip": "ym2612"
    },
    {
      "channel": 2,
      "note": 59,
      "start": 115.0657,
      "duration": 0.158,
      "velocity": 127,
      "chip": "ym2612"
    },
    {
      "channel": 0,
      "note": 73,
      "start": 115.1279,
      "duration": 0.0933,
      "velocity": 123,
      "chip": "ym2612"
    },
    {
      "channel": 0,
      "note": 69,
      "start": 115.2214,
      "duration": 0.0989,
      "velocity": 123,
      "chip": "ym2612"
    },
    {
      "channel": 2,
      "note": 66,
      "start": 115.2239,
      "duration": 0.0974,
      "velocity": 127,
      "chip": "ym2612"
    },
    {
      "channel": 3,
      "note": 55,
      "start": 115.2271,
      "duration": 0.1911,
      "velocity": 114,
      "chip": "ym2612"
    },
    {
      "channel": 4,
      "note": 43,
      "start": 115.2279,
      "duration": 0.1912,
      "velocity": 110,
      "chip": "ym2612"
    },
    {
      "channel": 0,
      "note": 73,
      "start": 115.3205,
      "duration": 0.0932,
      "velocity": 123,
      "chip": "ym2612"
    },
    {
      "channel": 2,
      "note": 66,
      "start": 115.3215,
      "duration": 0.0939,
      "velocity": 127,
      "chip": "ym2612"
    },
    {
      "channel": 0,
      "note": 69,
      "start": 115.4139,
      "duration": 0.0989,
      "velocity": 123,
      "chip": "ym2612"
    },
    {
      "channel": 2,
      "note": 66,
      "start": 115.4156,
      "duration": 0.0983,
      "velocity": 127,
      "chip": "ym2612"
    },
    {
      "channel": 3,
      "note": 55,
      "start": 115.4184,
      "duration": 0.1933,
      "velocity": 114,
      "chip": "ym2612"
    },
    {
      "channel": 0,
      "note": 73,
      "start": 115.5131,
      "duration": 0.0933,
      "velocity": 123,
      "chip": "ym2612"
    },
    {
      "channel": 2,
      "note": 66,
      "start": 115.5141,
      "duration": 0.0948,
      "velocity": 123,
      "chip": "ym2612"
    },
    {
      "channel": 0,
      "note": 69,
      "start": 115.6066,
      "duration": 0.0989,
      "velocity": 123,
      "chip": "ym2612"
    },
    {
      "channel": 2,
      "note": 68,
      "start": 115.609,
      "duration": 0.0975,
      "velocity": 123,
      "chip": "ym2612"
    },
    {
      "channel": 3,
      "note": 55,
      "start": 115.6119,
      "duration": 0.1935,
      "velocity": 114,
      "chip": "ym2612"
    },
    {
      "channel": 0,
      "note": 73,
      "start": 115.7057,
      "duration": 0.0937,
      "velocity": 123,
      "chip": "ym2612"
    },
    {
      "channel": 2,
      "note": 68,
      "start": 115.7067,
      "duration": 0.0952,
      "velocity": 107,
      "chip": "ym2612"
    },
    {
      "channel": 0,
      "note": 69,
      "start": 115.7996,
      "duration": 0.0991,
      "velocity": 123,
      "chip": "ym2612"
    },
    {
      "channel": 2,
      "note": 30,
      "start": 115.8021,
      "duration": 0.0332,
      "velocity": 107,
      "chip": "ym2612"
    },
    {
      "channel": 3,
      "note": 55,
      "start": 115.8056,
      "duration": 0.1913,
      "velocity": 114,
      "chip": "ym2612"
    },
    {
      "channel": 4,
      "note": 43,
      "start": 115.8065,
      "duration": 0.1913,
      "velocity": 110,
      "chip": "ym2612"
    },
    {
      "channel": 2,
      "note": 30,
      "start": 115.8355,
      "duration": 0.1586,
      "velocity": 123,
      "chip": "ym2612"
    },
    {
      "channel": 0,
      "note": 73,
      "start": 115.899,
      "duration": 0.0926,
      "velocity": 123,
      "chip": "ym2612"
    },
    {
      "channel": 0,
      "note": 69,
      "start": 115.9918,
      "duration": 0.0989,
      "velocity": 123,
      "chip": "ym2612"
    },
    {
      "channel": 2,
      "note": 59,
      "start": 115.9944,
      "duration": 0.0974,
      "velocity": 123,
      "chip": "ym2612"
    },
    {
      "channel": 3,
      "note": 55,
      "start": 115.9971,
      "duration": 0.1931,
      "velocity": 114,
      "chip": "ym2612"
    },
    {
      "channel": 0,
      "note": 73,
      "start": 116.0909,
      "duration": 0.0933,
      "velocity": 123,
      "chip": "ym2612"
    },
    {
      "channel": 2,
      "note": 59,
      "start": 116.0919,
      "duration": 0.0947,
      "velocity": 107,
      "chip": "ym2612"
    },
    {
      "channel": 0,
      "note": 69,
      "start": 116.1844,
      "duration": 0.0989,
      "velocity": 123,
      "chip": "ym2612"
    },
    {
      "channel": 2,
      "note": 27,
      "start": 116.1869,
      "duration": 0.0337,
      "velocity": 107,
      "chip": "ym2612"
    },
    {
      "channel": 3,
      "note": 55,
      "start": 116.1905,
      "duration": 0.1923,
      "velocity": 114,
      "chip": "ym2612"
    },
    {
      "channel": 4,
      "note": 43,
      "start": 116.1914,
      "duration": 0.1923,
      "velocity": 110,
      "chip": "ym2612"
    },
    {
      "channel": 2,
      "note": 27,
      "start": 116.2207,
      "duration": 0.1586,
      "velocity": 127,
      "chip": "ym2612"
    },
    {
      "channel": 0,
      "note": 73,
      "start": 116.2835,
      "duration": 0.0933,
      "velocity": 123,
      "chip": "ym2612"
    },
    {
      "channel": 0,
      "note": 69,
      "start": 116.3771,
      "duration": 0.0989,
      "velocity": 123,
      "chip": "ym2612"
    },
    {
      "channel": 2,
      "note": 59,
      "start": 116.3796,
      "duration": 0.0335,
      "velocity": 127,
      "chip": "ym2612"
    },
    {
      "channel": 3,
      "note": 55,
      "start": 116.383,
      "duration": 0.1926,
      "velocity": 114,
      "chip": "ym2612"
    },
    {
      "channel": 2,
      "note": 59,
      "start": 116.4134,
      "duration": 0.1587,
      "velocity": 123,
      "chip": "ym2612"
    },
    {
      "channel": 0,
      "note": 73,
      "start": 116.4761,
      "duration": 0.0933,
      "velocity": 123,
      "chip": "ym2612"
    },
    {
      "channel": 0,
      "note": 69,
      "start": 116.5697,
      "duration": 0.0989,
      "velocity": 123,
      "chip": "ym2612"
    },
    {
      "channel": 2,
      "note": 57,
      "start": 116.5723,
      "duration": 0.0338,
      "velocity": 123,
      "chip": "ym2612"
    },
    {
      "channel": 3,
      "note": 55,
      "start": 116.5758,
      "duration": 0.1928,
      "velocity": 114,
      "chip": "ym2612"
    },
    {
      "channel": 4,
      "note": 43,
      "start": 116.5767,
      "duration": 0.1927,
      "velocity": 110,
      "chip": "ym2612"
    },
    {
      "channel": 2,
      "note": 57,
      "start": 116.6062,
      "duration": 0.03,
      "velocity": 123,
      "chip": "ym2612"
    },
    {
      "channel": 2,
      "note": 57,
      "start": 116.6365,
      "duration": 0.0333,
      "velocity": 123,
      "chip": "ym2612"
    },
    {
      "channel": 0,
      "note": 73,
      "start": 116.6688,
      "duration": 0.0933,
      "velocity": 123,
      "chip": "ym2612"
    },
    {
      "channel": 2,
      "note": 57,
      "start": 116.67,
      "duration": 0.0298,
      "velocity": 123,
      "chip": "ym2612"
    },
    {
      "channel": 2,
      "note": 57,
      "start": 116.7001,
      "duration": 0.0329,
      "velocity": 123,
      "chip": "ym2612"
    },
    {
      "channel": 2,
      "note": 57,
      "start": 116.7333,
      "duration": 0.0321,
      "velocity": 127,
      "chip": "ym2612"
    },
    {
      "channel": 0,
      "note": 69,
      "start": 116.7622,
      "duration": 0.0989,
      "velocity": 123,
      "chip": "ym2612"
    },
    {
      "channel": 2,
      "note": 64,
      "start": 116.7656,
      "duration": 0.0966,
      "velocity": 127,
      "chip": "ym2612"
    },
    {
      "channel": 3,
      "note": 55,
      "start": 116.7688,
      "duration": 0.1896,
      "velocity": 114,
      "chip": "ym2612"
    },
    {
      "channel": 4,
      "note": 43,
      "start": 116.7697,
      "duration": 0.1896,
      "velocity": 110,
      "chip": "ym2612"
    },
    {
      "channel": 0,
      "note": 73,
      "start": 116.8614,
      "duration": 0.0932,
      "velocity": 123,
      "chip": "ym2612"
    },
    {
      "channel": 2,
      "note": 64,
      "start": 116.8624,
      "duration": 0.0932,
      "velocity": 127,
      "chip": "ym2612"
    },
    {
      "channel": 0,
      "note": 69,
      "start": 116.9549,
      "duration": 0.096,
      "velocity": 123,
      "chip": "ym2612"
    },
    {
      "channel": 2,
      "note": 64,
      "start": 116.9559,
      "duration": 0.096,
      "velocity": 127,
      "chip": "ym2612"
    },
    {
      "channel": 3,
      "note": 55,
      "start": 116.9587,
      "duration": 0.1961,
      "velocity": 114,
      "chip": "ym2612"
    },
    {
      "channel": 0,
      "note": 73,
      "start": 117.051,
      "duration": 0.0962,
      "velocity": 123,
      "chip": "ym2612"
    },
    {
      "channel": 2,
      "note": 64,
      "start": 117.052,
      "duration": 0.099,
      "velocity": 107,
      "chip": "ym2612"
    },
    {
      "channel": 0,
      "note": 69,
      "start": 117.1474,
      "duration": 0.099,
      "velocity": 123,
      "chip": "ym2612"
    },
    {
      "channel": 1,
      "note": 34,
      "start": 117.149,
      "duration": 2.9536,
      "velocity": 98,
      "chip": "ym2612"
    },
    {
      "channel": 2,
      "note": 26,
      "start": 117.1512,
      "duration": 0.0324,
      "velocity": 107,
      "chip": "ym2612"
    },
    {
      "channel": 3,
      "note": 55,
      "start": 117.1549,
      "duration": 0.1903,
      "velocity": 114,
      "chip": "ym2612"
    },
    {
      "channel": 4,
      "note": 43,
      "start": 117.1559,
      "duration": 0.1902,
      "velocity": 110,
      "chip": "ym2612"
    },
    {
      "channel": 2,
      "note": 26,
      "start": 117.1838,
      "duration": 0.1587,
      "velocity": 127,
      "chip": "ym2612"
    },
    {
      "channel": 0,
      "note": 73,
      "start": 117.2466,
      "duration": 0.0934,
      "velocity": 123,
      "chip": "ym2612"
    },
    {
      "channel": 0,
      "note": 69,
      "start": 117.3402,
      "duration": 0.0988,
      "velocity": 123,
      "chip": "ym2612"
    },
    {
      "channel": 2,
      "note": 59,
      "start": 117.3427,
      "duration": 0.1924,
      "velocity": 127,
      "chip": "ym2612"
    },
    {
      "channel": 3,
      "note": 55,
      "start": 117.3454,
      "duration": 0.1925,
      "velocity": 114,
      "chip": "ym2612"
    },
    {
      "channel": 0,
      "note": 73,
      "start": 117.4392,
      "duration": 0.0935,
      "velocity": 123,
      "chip": "ym2612"
    },
    {
      "channel": 5,
      "note": 34,
      "start": 117.4437,
      "duration": 2.951,
      "velocity": 98,
      "chip": "ym2612"
    },
    {
      "channel": 0,
      "note": 69,
      "start": 117.5329,
      "duration": 0.0994,
      "velocity": 123,
      "chip": "ym2612"
    },
    {
      "channel": 2,
      "note": 59,
      "start": 117.5354,
      "duration": 0.0335,
      "velocity": 127,
      "chip": "ym2612"
    },
    {
      "channel": 3,
      "note": 55,
      "start": 117.5382,
      "duration": 0.1927,
      "velocity": 114,
      "chip": "ym2612"
    },
    {
      "channel": 2,
      "note": 59,
      "start": 117.569,
      "duration": 0.1585,
      "velocity": 127,
      "chip": "ym2612"
    },
    {
      "channel": 0,
      "note": 73,
      "start": 117.6325,
      "duration": 0.0926,
      "velocity": 123,
      "chip": "ym2612"
    },
    {
      "channel": 0,
      "note": 69,
      "start": 117.7253,
      "duration": 0.0989,
      "velocity": 123,
      "chip": "ym2612"
    },
    {
      "channel": 2,
      "note": 64,
      "start": 117.7278,
      "duration": 0.1925,
      "velocity": 123,
      "chip": "ym2612"
    },
    {
      "channel": 3,
      "note": 55,
      "start": 117.7312,
      "duration": 0.1918,
      "velocity": 114,
      "chip": "ym2612"
    },
    {
      "channel": 4,
      "note": 43,
      "start": 117.7327,
      "duration": 0.1912,
      "velocity": 110,
      "chip": "ym2612"
    },
    {
      "channel": 0,
      "note": 73,
      "start": 117.8244,
      "duration": 0.0933,
      "velocity": 123,
      "chip": "ym2612"
    },
    {
      "channel": 0,
      "note": 69,
      "start": 117.918,
      "duration": 0.0988,
      "velocity": 123,
      "chip": "ym2612"
    },
    {
      "channel": 2,
      "note": 57,
      "start": 117.9206,
      "duration": 0.0337,
      "velocity": 123,
      "chip": "ym2612"
    },
    {
      "channel": 3,
      "note": 55,
      "start": 117.9233,
      "duration": 0.194,
      "velocity": 114,
      "chip": "ym2612"
    },
    {
      "channel": 2,
      "note": 57,
      "start": 117.9545,
      "duration": 0.03,
      "velocity": 123,
      "chip": "ym2612"
    },
    {
      "channel": 2,
      "note": 57,
      "start": 117.9848,
      "duration": 0.0333,
      "velocity": 123,
      "chip": "ym2612"
    },
    {
      "channel": 0,
      "note": 73,
      "start": 118.0171,
      "duration": 0.0933,
      "velocity": 123,
      "chip": "ym2612"
    },
    {
      "channel": 2,
      "note": 57,
      "start": 118.0183,
      "duration": 0.0296,
      "velocity": 123,
      "chip": "ym2612"
    },
    {
      "channel": 2,
      "note": 57,
      "start": 118.0487,
      "duration": 0.032,
      "velocity": 123,
      "chip": "ym2612"
    },
    {
      "channel": 2,
      "note": 57,
      "start": 118.081,
      "duration": 0.0321,
      "velocity": 127,
      "chip": "ym2612"
    },
    {
      "channel": 0,
      "note": 69,
      "start": 118.1106,
      "duration": 0.0989,
      "velocity": 123,
      "chip": "ym2612"
    },
    {
      "channel": 2,
      "note": 59,
      "start": 118.1133,
      "duration": 0.0334,
      "velocity": 127,
      "chip": "ym2612"
    },
    {
      "channel": 3,
      "note": 55,
      "start": 118.1174,
      "duration": 0.1941,
      "velocity": 114,
      "chip": "ym2612"
    },
    {
      "channel": 4,
      "note": 43,
      "start": 118.1183,
      "duration": 0.1941,
      "velocity": 110,
      "chip": "ym2612"
    },
    {
      "channel": 2,
      "note": 59,
      "start": 118.147,
      "duration": 0.1614,
      "velocity": 127,
      "chip": "ym2612"
    },
    {
      "channel": 0,
      "note": 73,
      "start": 118.2098,
      "duration": 0.0961,
      "velocity": 123,
      "chip": "ym2612"
    },
    {
      "channel": 0,
      "note": 69,
      "start": 118.3061,
      "duration": 0.0961,
      "velocity": 123,
      "chip": "ym2612"
    },
    {
      "channel": 2,
      "note": 66,
      "start": 118.3085,
      "duration": 0.0946,
      "velocity": 127,
      "chip": "ym2612"
    },
    {
      "channel": 3,
      "note": 55,
      "start": 118.3118,
      "duration": 0.1911,
      "velocity": 114,
      "chip": "ym2612"
    },
    {
      "channel": 4,
      "note": 43,
      "start": 118.3127,
      "duration": 0.1911,
      "velocity": 110,
      "chip": "ym2612"
    },
    {
      "channel": 0,
      "note": 73,
      "start": 118.4023,
      "duration": 0.0968,
      "velocity": 123,
      "chip": "ym2612"
    },
    {
      "channel": 2,
      "note": 66,
      "start": 118.4033,
      "duration": 0.0968,
      "velocity": 127,
      "chip": "ym2612"
    },
    {
      "channel": 0,
      "note": 69,
      "start": 118.4993,
      "duration": 0.0954,
      "velocity": 123,
      "chip": "ym2612"
    },
    {
      "channel": 2,
      "note": 66,
      "start": 118.5003,
      "duration": 0.0954,
      "velocity": 127,
      "chip": "ym2612"
    },
    {
      "channel": 3,
      "note": 55,
      "start": 118.5031,
      "duration": 0.1933,
      "velocity": 114,
      "chip": "ym2612"
    },
    {
      "channel": 0,
      "note": 73,
      "start": 118.5949,
      "duration": 0.0962,
      "velocity": 123,
      "chip": "ym2612"
    },
    {
      "channel": 2,
      "note": 66,
      "start": 118.5959,
      "duration": 0.0976,
      "velocity": 123,
      "chip": "ym2612"
    },
    {
      "channel": 0,
      "note": 69,
      "start": 118.6913,
      "duration": 0.0961,
      "velocity": 123,
      "chip": "ym2612"
    },
    {
      "channel": 2,
      "note": 68,
      "start": 118.6938,
      "duration": 0.0946,
      "velocity": 123,
      "chip": "ym2612"
    },
    {
      "channel": 3,
      "note": 55,
      "start": 118.6966,
      "duration": 0.1931,
      "velocity": 114,
      "chip": "ym2612"
    },
    {
      "channel": 0,
      "note": 73,
      "start": 118.7876,
      "duration": 0.0961,
      "velocity": 123,
      "chip": "ym2612"
    },
    {
      "channel": 2,
      "note": 68,
      "start": 118.7886,
      "duration": 0.0975,
      "velocity": 107,
      "chip": "ym2612"
    },
    {
      "channel": 0,
      "note": 69,
      "start": 118.8839,
      "duration": 0.0961,
      "velocity": 123,
      "chip": "ym2612"
    },
    {
      "channel": 2,
      "note": 30,
      "start": 118.8864,
      "duration": 0.0308,
      "velocity": 107,
      "chip": "ym2612"
    },
    {
      "channel": 3,
      "note": 55,
      "start": 118.8899,
      "duration": 0.1923,
      "velocity": 114,
      "chip": "ym2612"
    },
    {
      "channel": 4,
      "note": 43,
      "start": 118.8908,
      "duration": 0.1924,
      "velocity": 110,
      "chip": "ym2612"
    },
    {
      "channel": 2,
      "note": 30,
      "start": 118.9174,
      "duration": 0.1615,
      "velocity": 123,
      "chip": "ym2612"
    },
    {
      "channel": 0,
      "note": 73,
      "start": 118.9802,
      "duration": 0.0961,
      "velocity": 123,
      "chip": "ym2612"
    },
    {
      "channel": 0,
      "note": 69,
      "start": 119.0765,
      "duration": 0.0961,
      "velocity": 123,
      "chip": "ym2612"
    },
    {
      "channel": 2,
      "note": 59,
      "start": 119.079,
      "duration": 0.0946,
      "velocity": 123,
      "chip": "ym2612"
    },
    {
      "channel": 3,
      "note": 55,
      "start": 119.0824,
      "duration": 0.1925,
      "velocity": 114,
      "chip": "ym2612"
    },
    {
      "channel": 0,
      "note": 73,
      "start": 119.1728,
      "duration": 0.0961,
      "velocity": 123,
      "chip": "ym2612"
    },
    {
      "channel": 2,
      "note": 59,
      "start": 119.1738,
      "duration": 0.0976,
      "velocity": 107,
      "chip": "ym2612"
    },
    {
      "channel": 0,
      "note": 69,
      "start": 119.2691,
      "duration": 0.0967,
      "velocity": 123,
      "chip": "ym2612"
    },
    {
      "channel": 2,
      "note": 27,
      "start": 119.2716,
      "duration": 0.0307,
      "velocity": 107,
      "chip": "ym2612"
    },
    {
      "channel": 3,
      "note": 55,
      "start": 119.2752,
      "duration": 0.1923,
      "velocity": 114,
      "chip": "ym2612"
    },
    {
      "channel": 4,
      "note": 43,
      "start": 119.2761,
      "duration": 0.1923,
      "velocity": 110,
      "chip": "ym2612"
    },
    {
      "channel": 2,
      "note": 27,
      "start": 119.3026,
      "duration": 0.1614,
      "velocity": 127,
      "chip": "ym2612"
    },
    {
      "channel": 0,
      "note": 73,
      "start": 119.366,
      "duration": 0.0956,
      "velocity": 123,
      "chip": "ym2612"
    },
    {
      "channel": 0,
      "note": 69,
      "start": 119.4618,
      "duration": 0.0961,
      "velocity": 123,
      "chip": "ym2612"
    },
    {
      "channel": 2,
      "note": 59,
      "start": 119.4643,
      "duration": 0.0307,
      "velocity": 127,
      "chip": "ym2612"
    },
    {
      "channel": 3,
      "note": 55,
      "start": 119.4678,
      "duration": 0.1925,
      "velocity": 114,
      "chip": "ym2612"
    },
    {
      "channel": 2,
      "note": 59,
      "start": 119.4953,
      "duration": 0.1614,
      "velocity": 123,
      "chip": "ym2612"
    },
    {
      "channel": 0,
      "note": 73,
      "start": 119.5581,
      "duration": 0.0961,
      "velocity": 123,
      "chip": "ym2612"
    },
    {
      "channel": 0,
      "note": 69,
      "start": 119.6543,
      "duration": 0.0961,
      "velocity": 123,
      "chip": "ym2612"
    },
    {
      "channel": 2,
      "note": 57,
      "start": 119.6569,
      "duration": 0.0309,
      "velocity": 123,
      "chip": "ym2612"
    },
    {
      "channel": 3,
      "note": 55,
      "start": 119.6605,
      "duration": 0.1928,
      "velocity": 114,
      "chip": "ym2612"
    },
    {
      "channel": 4,
      "note": 43,
      "start": 119.6614,
      "duration": 0.1928,
      "velocity": 110,
      "chip": "ym2612"
    },
    {
      "channel": 2,
      "note": 57,
      "start": 119.6881,
      "duration": 0.0328,
      "velocity": 123,
      "chip": "ym2612"
    },
    {
      "channel": 2,
      "note": 57,
      "start": 119.7211,
      "duration": 0.0305,
      "velocity": 123,
      "chip": "ym2612"
    },
    {
      "channel": 0,
      "note": 73,
      "start": 119.7507,
      "duration": 0.0961,
      "velocity": 123,
      "chip": "ym2612"
    },
    {
      "channel": 2,
      "note": 57,
      "start": 119.7519,
      "duration": 0.0322,
      "velocity": 123,
      "chip": "ym2612"
    },
    {
      "channel": 2,
      "note": 57,
      "start": 119.7844,
      "duration": 0.03,
      "velocity": 123,
      "chip": "ym2612"
    },
    {
      "channel": 2,
      "note": 57,
      "start": 119.8148,
      "duration": 0.0353,
      "velocity": 127,
      "chip": "ym2612"
    },
    {
      "channel": 0,
      "note": 69,
      "start": 119.847,
      "duration": 0.0961,
      "velocity": 123,
      "chip": "ym2612"
    },
    {
      "channel": 2,
      "note": 64,
      "start": 119.8503,
      "duration": 0.0937,
      "velocity": 127,
      "chip": "ym2612"
    },
    {
      "channel": 3,
      "note": 55,
      "start": 119.8536,
      "duration": 0.1896,
      "velocity": 114,
      "chip": "ym2612"
    },
    {
      "channel": 4,
      "note": 43,
      "start": 119.8544,
      "duration": 0.1896,
      "velocity": 110,
      "chip": "ym2612"
    },
    {
      "channel": 0,
      "note": 73,
      "start": 119.9432,
      "duration": 0.0961,
      "velocity": 123,
      "chip": "ym2612"
    },
    {
      "channel": 2,
      "note": 64,
      "start": 119.9442,
      "duration": 0.0961,
      "velocity": 127,
      "chip": "ym2612"
    },
    {
      "channel": 0,
      "note": 69,
      "start": 120.0396,
      "duration": 0.096,
      "velocity": 123,
      "chip": "ym2612"
    },
    {
      "channel": 2,
      "note": 64,
      "start": 120.0405,
      "duration": 0.0961,
      "velocity": 127,
      "chip": "ym2612"
    },
    {
      "channel": 3,
      "note": 55,
      "start": 120.0434,
      "duration": 0.1929,
      "velocity": 114,
      "chip": "ym2612"
    },
    {
      "channel": 0,
      "note": 73,
      "start": 120.1358,
      "duration": 0.0933,
      "velocity": 123,
      "chip": "ym2612"
    },
    {
      "channel": 2,
      "note": 64,
      "start": 120.1368,
      "duration": 0.0959,
      "velocity": 107,
      "chip": "ym2612"
    },
    {
      "channel": 0,
      "note": 69,
      "start": 120.2293,
      "duration": 0.099,
      "velocity": 123,
      "chip": "ym2612"
    },
    {
      "channel": 1,
      "note": 36,
      "start": 120.23,
      "duration": 2.9573,
      "velocity": 98,
      "chip": "ym2612"
    },
    {
      "channel": 2,
      "note": 26,
      "start": 120.2329,
      "duration": 0.0333,
      "velocity": 107,
      "chip": "ym2612"
    },
    {
      "channel": 3,
      "note": 55,
      "start": 120.2366,
      "duration": 0.1932,
      "velocity": 114,
      "chip": "ym2612"
    },
    {
      "channel": 4,
      "note": 43,
      "start": 120.2375,
      "duration": 0.1932,
      "velocity": 110,
      "chip": "ym2612"
    },
    {
      "channel": 2,
      "note": 26,
      "start": 120.2663,
      "duration": 0.1608,
      "velocity": 127,
      "chip": "ym2612"
    },
    {
      "channel": 0,
      "note": 73,
      "start": 120.3285,
      "duration": 0.0961,
      "velocity": 123,
      "chip": "ym2612"
    },
    {
      "channel": 0,
      "note": 69,
      "start": 120.4248,
      "duration": 0.096,
      "velocity": 123,
      "chip": "ym2612"
    },
    {
      "channel": 2,
      "note": 59,
      "start": 120.4273,
      "duration": 0.1924,
      "velocity": 127,
      "chip": "ym2612"
    },
    {
      "channel": 3,
      "note": 55,
      "start": 120.4301,
      "duration": 0.1924,
      "velocity": 114,
      "chip": "ym2612"
    },
    {
      "channel": 0,
      "note": 73,
      "start": 120.5211,
      "duration": 0.0961,
      "velocity": 123,
      "chip": "ym2612"
    },
    {
      "channel": 5,
      "note": 36,
      "start": 120.5253,
      "duration": 2.9541,
      "velocity": 98,
      "chip": "ym2612"
    },
    {
      "channel": 0,
      "note": 69,
      "start": 120.6174,
      "duration": 0.0961,
      "velocity": 123,
      "chip": "ym2612"
    },
    {
      "channel": 2,
      "note": 59,
      "start": 120.6199,
      "duration": 0.0308,
      "velocity": 127,
      "chip": "ym2612"
    },
    {
      "channel": 3,
      "note": 55,
      "start": 120.6227,
      "duration": 0.1936,
      "velocity": 114,
      "chip": "ym2612"
    },
    {
      "channel": 2,
      "note": 59,
      "start": 120.6508,
      "duration": 0.1614,
      "velocity": 127,
      "chip": "ym2612"
    },
    {
      "channel": 0,
      "note": 73,
      "start": 120.7137,
      "duration": 0.0961,
      "velocity": 123,
      "chip": "ym2612"
    },
    {
      "channel": 0,
      "note": 69,
      "start": 120.81,
      "duration": 0.0961,
      "velocity": 123,
      "chip": "ym2612"
    },
    {
      "channel": 2,
      "note": 64,
      "start": 120.8124,
      "duration": 0.1926,
      "velocity": 123,
      "chip": "ym2612"
    },
    {
      "channel": 3,
      "note": 55,
      "start": 120.8166,
      "duration": 0.1912,
      "velocity": 114,
      "chip": "ym2612"
    },
    {
      "channel": 4,
      "note": 43,
      "start": 120.8174,
      "duration": 0.1912,
      "velocity": 110,
      "chip": "ym2612"
    },
    {
      "channel": 0,
      "note": 73,
      "start": 120.9062,
      "duration": 0.0962,
      "velocity": 123,
      "chip": "ym2612"
    },
    {
      "channel": 0,
      "note": 69,
      "start": 121.0027,
      "duration": 0.0966,
      "velocity": 123,
      "chip": "ym2612"
    },
    {
      "channel": 2,
      "note": 57,
      "start": 121.0052,
      "duration": 0.031,
      "velocity": 123,
      "chip": "ym2612"
    },
    {
      "channel": 3,
      "note": 55,
      "start": 121.008,
      "duration": 0.194,
      "velocity": 114,
      "chip": "ym2612"
    },
    {
      "channel": 2,
      "note": 57,
      "start": 121.0365,
      "duration": 0.0328,
      "velocity": 123,
      "chip": "ym2612"
    },
    {
      "channel": 2,
      "note": 57,
      "start": 121.0694,
      "duration": 0.0312,
      "velocity": 123,
      "chip": "ym2612"
    },
    {
      "channel": 0,
      "note": 73,
      "start": 121.0995,
      "duration": 0.0957,
      "velocity": 123,
      "chip": "ym2612"
    },
    {
      "channel": 2,
      "note": 57,
      "start": 121.1008,
      "duration": 0.0324,
      "velocity": 123,
      "chip": "ym2612"
    },
    {
      "channel": 2,
      "note": 57,
      "start": 121.1334,
      "duration": 0.0328,
      "velocity": 123,
      "chip": "ym2612"
    },
    {
      "channel": 2,
      "note": 57,
      "start": 121.1664,
      "duration": 0.0315,
      "velocity": 127,
      "chip": "ym2612"
    },
    {
      "channel": 0,
      "note": 69,
      "start": 121.1954,
      "duration": 0.0989,
      "velocity": 123,
      "chip": "ym2612"
    },
    {
      "channel": 2,
      "note": 59,
      "start": 121.1987,
      "duration": 0.0335,
      "velocity": 127,
      "chip": "ym2612"
    },
    {
      "channel": 3,
      "note": 55,
      "start": 121.2022,
      "duration": 0.1941,
      "velocity": 114,
      "chip": "ym2612"
    },
    {
      "channel": 4,
      "note": 43,
      "start": 121.2031,
      "duration": 0.1941,
      "velocity": 110,
      "chip": "ym2612"
    },
    {
      "channel": 2,
      "note": 59,
      "start": 121.2324,
      "duration": 0.1608,
      "velocity": 127,
      "chip": "ym2612"
    },
    {
      "channel": 0,
      "note": 73,
      "start": 121.2945,
      "duration": 0.0961,
      "velocity": 123,
      "chip": "ym2612"
    },
    {
      "channel": 0,
      "note": 69,
      "start": 121.3909,
      "duration": 0.0961,
      "velocity": 123,
      "chip": "ym2612"
    },
    {
      "channel": 2,
      "note": 66,
      "start": 121.3933,
      "duration": 0.0946,
      "velocity": 127,
      "chip": "ym2612"
    },
    {
      "channel": 3,
      "note": 55,
      "start": 121.3966,
      "duration": 0.1905,
      "velocity": 114,
      "chip": "ym2612"
    },
    {
      "channel": 4,
      "note": 43,
      "start": 121.3974,
      "duration": 0.1905,
      "velocity": 110,
      "chip": "ym2612"
    },
    {
      "channel": 0,
      "note": 73,
      "start": 121.4872,
      "duration": 0.0961,
      "velocity": 123,
      "chip": "ym2612"
    },
    {
      "channel": 2,
      "note": 66,
      "start": 121.4881,
      "duration": 0.0961,
      "velocity": 127,
      "chip": "ym2612"
    },
    {
      "channel": 0,
      "note": 69,
      "start": 121.5835,
      "duration": 0.096,
      "velocity": 123,
      "chip": "ym2612"
    },
    {
      "channel": 2,
      "note": 66,
      "start": 121.5844,
      "duration": 0.096,
      "velocity": 127,
      "chip": "ym2612"
    },
    {
      "channel": 3,
      "note": 55,
      "start": 121.5873,
      "duration": 0.191,
      "velocity": 114,
      "chip": "ym2612"
    },
    {
      "channel": 0,
      "note": 73,
      "start": 121.6797,
      "duration": 0.0933,
      "velocity": 123,
      "chip": "ym2612"
    },
    {
      "channel": 2,
      "note": 66,
      "start": 121.6807,
      "duration": 0.0947,
      "velocity": 123,
      "chip": "ym2612"
    },
    {
      "channel": 0,
      "note": 69,
      "start": 121.7732,
      "duration": 0.0988,
      "velocity": 123,
      "chip": "ym2612"
    },
    {
      "channel": 2,
      "note": 68,
      "start": 121.7756,
      "duration": 0.0974,
      "velocity": 123,
      "chip": "ym2612"
    },
    {
      "channel": 3,
      "note": 55,
      "start": 121.7784,
      "duration": 0.1937,
      "velocity": 114,
      "chip": "ym2612"
    },
    {
      "channel": 0,
      "note": 73,
      "start": 121.8723,
      "duration": 0.0938,
      "velocity": 123,
      "chip": "ym2612"
    },
    {
      "channel": 2,
      "note": 68,
      "start": 121.8732,
      "duration": 0.0954,
      "velocity": 107,
      "chip": "ym2612"
    },
    {
      "channel": 0,
      "note": 69,
      "start": 121.9663,
      "duration": 0.099,
      "velocity": 123,
      "chip": "ym2612"
    },
    {
      "channel": 2,
      "note": 30,
      "start": 121.9688,
      "duration": 0.0331,
      "velocity": 107,
      "chip": "ym2612"
    },
    {
      "channel": 3,
      "note": 55,
      "start": 121.9723,
      "duration": 0.1912,
      "velocity": 114,
      "chip": "ym2612"
    },
    {
      "channel": 4,
      "note": 43,
      "start": 121.9732,
      "duration": 0.1912,
      "velocity": 110,
      "chip": "ym2612"
    },
    {
      "channel": 2,
      "note": 30,
      "start": 122.002,
      "duration": 0.1587,
      "velocity": 123,
      "chip": "ym2612"
    },
    {
      "channel": 0,
      "note": 73,
      "start": 122.0655,
      "duration": 0.0926,
      "velocity": 123,
      "chip": "ym2612"
    },
    {
      "channel": 0,
      "note": 69,
      "start": 122.1583,
      "duration": 0.0989,
      "velocity": 123,
      "chip": "ym2612"
    },
    {
      "channel": 2,
      "note": 59,
      "start": 122.1609,
      "duration": 0.0974,
      "velocity": 123,
      "chip": "ym2612"
    },
    {
      "channel": 3,
      "note": 55,
      "start": 122.1637,
      "duration": 0.1931,
      "velocity": 114,
      "chip": "ym2612"
    },
    {
      "channel": 0,
      "note": 73,
      "start": 122.2575,
      "duration": 0.0932,
      "velocity": 123,
      "chip": "ym2612"
    },
    {
      "channel": 2,
      "note": 59,
      "start": 122.2585,
      "duration": 0.0948,
      "velocity": 107,
      "chip": "ym2612"
    },
    {
      "channel": 0,
      "note": 69,
      "start": 122.351,
      "duration": 0.0989,
      "velocity": 123,
      "chip": "ym2612"
    },
    {
      "channel": 2,
      "note": 27,
      "start": 122.3534,
      "duration": 0.0337,
      "velocity": 107,
      "chip": "ym2612"
    },
    {
      "channel": 3,
      "note": 55,
      "start": 122.357,
      "duration": 0.1924,
      "velocity": 114,
      "chip": "ym2612"
    },
    {
      "channel": 4,
      "note": 43,
      "start": 122.3579,
      "duration": 0.1924,
      "velocity": 110,
      "chip": "ym2612"
    },
    {
      "channel": 2,
      "note": 27,
      "start": 122.3873,
      "duration": 0.1587,
      "velocity": 127,
      "chip": "ym2612"
    },
    {
      "channel": 0,
      "note": 73,
      "start": 122.4501,
      "duration": 0.0933,
      "velocity": 123,
      "chip": "ym2612"
    },
    {
      "channel": 0,
      "note": 69,
      "start": 122.5436,
      "duration": 0.0989,
      "velocity": 123,
      "chip": "ym2612"
    },
    {
      "channel": 2,
      "note": 59,
      "start": 122.5461,
      "duration": 0.0336,
      "velocity": 127,
      "chip": "ym2612"
    },
    {
      "channel": 3,
      "note": 55,
      "start": 122.5496,
      "duration": 0.1926,
      "velocity": 114,
      "chip": "ym2612"
    },
    {
      "channel": 2,
      "note": 59,
      "start": 122.5799,
      "duration": 0.1587,
      "velocity": 123,
      "chip": "ym2612"
    },
    {
      "channel": 0,
      "note": 73,
      "start": 122.6427,
      "duration": 0.0934,
      "velocity": 123,
      "chip": "ym2612"
    },
    {
      "channel": 0,
      "note": 69,
      "start": 122.7363,
      "duration": 0.0988,
      "velocity": 123,
      "chip": "ym2612"
    },
    {
      "channel": 2,
      "note": 57,
      "start": 122.7389,
      "duration": 0.0337,
      "velocity": 123,
      "chip": "ym2612"
    },
    {
      "channel": 3,
      "note": 55,
      "start": 122.7424,
      "duration": 0.1927,
      "velocity": 114,
      "chip": "ym2612"
    },
    {
      "channel": 4,
      "note": 43,
      "start": 122.7433,
      "duration": 0.1927,
      "velocity": 110,
      "chip": "ym2612"
    },
    {
      "channel": 2,
      "note": 57,
      "start": 122.7729,
      "duration": 0.03,
      "velocity": 123,
      "chip": "ym2612"
    },
    {
      "channel": 2,
      "note": 57,
      "start": 122.803,
      "duration": 0.0334,
      "velocity": 123,
      "chip": "ym2612"
    },
    {
      "channel": 0,
      "note": 73,
      "start": 122.8353,
      "duration": 0.0933,
      "velocity": 123,
      "chip": "ym2612"
    },
    {
      "channel": 2,
      "note": 57,
      "start": 122.8366,
      "duration": 0.0299,
      "velocity": 123,
      "chip": "ym2612"
    },
    {
      "channel": 2,
      "note": 57,
      "start": 122.8668,
      "duration": 0.0329,
      "velocity": 123,
      "chip": "ym2612"
    },
    {
      "channel": 2,
      "note": 57,
      "start": 122.8999,
      "duration": 0.0321,
      "velocity": 127,
      "chip": "ym2612"
    },
    {
      "channel": 0,
      "note": 69,
      "start": 122.9288,
      "duration": 0.0989,
      "velocity": 123,
      "chip": "ym2612"
    },
    {
      "channel": 2,
      "note": 64,
      "start": 122.9322,
      "duration": 0.0965,
      "velocity": 127,
      "chip": "ym2612"
    },
    {
      "channel": 3,
      "note": 55,
      "start": 122.9354,
      "duration": 0.1896,
      "velocity": 114,
      "chip": "ym2612"
    },
    {
      "channel": 4,
      "note": 43,
      "start": 122.9363,
      "duration": 0.1896,
      "velocity": 110,
      "chip": "ym2612"
    },
    {
      "channel": 0,
      "note": 73,
      "start": 123.0279,
      "duration": 0.0933,
      "velocity": 123,
      "chip": "ym2612"
    },
    {
      "channel": 2,
      "note": 64,
      "start": 123.029,
      "duration": 0.0933,
      "velocity": 127,
      "chip": "ym2612"
    },
    {
      "channel": 0,
      "note": 69,
      "start": 123.1215,
      "duration": 0.0959,
      "velocity": 123,
      "chip": "ym2612"
    },
    {
      "channel": 2,
      "note": 64,
      "start": 123.1224,
      "duration": 0.096,
      "velocity": 127,
      "chip": "ym2612"
    },
    {
      "channel": 3,
      "note": 55,
      "start": 123.1253,
      "duration": 0.1967,
      "velocity": 114,
      "chip": "ym2612"
    },
    {
      "channel": 0,
      "note": 73,
      "start": 123.2176,
      "duration": 0.0961,
      "velocity": 123,
      "chip": "ym2612"
    },
    {
      "channel": 2,
      "note": 64,
      "start": 123.2186,
      "duration": 0.0991,
      "velocity": 107,
      "chip": "ym2612"
    },
    {
      "channel": 0,
      "note": 69,
      "start": 123.314,
      "duration": 0.0989,
      "velocity": 123,
      "chip": "ym2612"
    },
    {
      "channel": 1,
      "note": 32,
      "start": 123.3157,
      "duration": 2.9535,
      "velocity": 98,
      "chip": "ym2612"
    },
    {
      "channel": 2,
      "note": 26,
      "start": 123.3179,
      "duration": 0.0322,
      "velocity": 107,
      "chip": "ym2612"
    },
    {
      "channel": 3,
      "note": 56,
      "start": 123.3222,
      "duration": 0.1895,
      "velocity": 114,
      "chip": "ym2612"
    },
    {
      "channel": 4,
      "note": 44,
      "start": 123.3234,
      "duration": 0.1893,
      "velocity": 110,
      "chip": "ym2612"
    },
    {
      "channel": 2,
      "note": 26,
      "start": 123.3504,
      "duration": 0.1587,
      "velocity": 127,
      "chip": "ym2612"
    },
    {
      "channel": 0,
      "note": 73,
      "start": 123.4132,
      "duration": 0.0933,
      "velocity": 123,
      "chip": "ym2612"
    },
    {
      "channel": 0,
      "note": 69,
      "start": 123.5067,
      "duration": 0.0989,
      "velocity": 123,
      "chip": "ym2612"
    },
    {
      "channel": 2,
      "note": 59,
      "start": 123.5092,
      "duration": 0.1926,
      "velocity": 127,
      "chip": "ym2612"
    },
    {
      "channel": 3,
      "note": 56,
      "start": 123.512,
      "duration": 0.1927,
      "velocity": 114,
      "chip": "ym2612"
    },
    {
      "channel": 0,
      "note": 73,
      "start": 123.6057,
      "duration": 0.0936,
      "velocity": 123,
      "chip": "ym2612"
    },
    {
      "channel": 5,
      "note": 32,
      "start": 123.6106,
      "duration": 2.9508,
      "velocity": 98,
      "chip": "ym2612"
    },
    {
      "channel": 0,
      "note": 69,
      "start": 123.6996,
      "duration": 0.0992,
      "velocity": 123,
      "chip": "ym2612"
    },
    {
      "channel": 2,
      "note": 59,
      "start": 123.702,
      "duration": 0.0333,
      "velocity": 127,
      "chip": "ym2612"
    },
    {
      "channel": 3,
      "note": 56,
      "start": 123.7049,
      "duration": 0.1926,
      "velocity": 114,
      "chip": "ym2612"
    },
    {
      "channel": 2,
      "note": 59,
      "start": 123.7356,
      "duration": 0.1585,
      "velocity": 127,
      "chip": "ym2612"
    },
    {
      "channel": 0,
      "note": 73,
      "start": 123.799,
      "duration": 0.0926,
      "velocity": 123,
      "chip": "ym2612"
    },
    {
      "channel": 0,
      "note": 69,
      "start": 123.8919,
      "duration": 0.0989,
      "velocity": 123,
      "chip": "ym2612"
    },
    {
      "channel": 2,
      "note": 64,
      "start": 123.8943,
      "duration": 0.1926,
      "velocity": 123,
      "chip": "ym2612"
    },
    {
      "channel": 3,
      "note": 56,
      "start": 123.8977,
      "duration": 0.1918,
      "velocity": 114,
      "chip": "ym2612"
    },
    {
      "channel": 4,
      "note": 44,
      "start": 123.8993,
      "duration": 0.1912,
      "velocity": 110,
      "chip": "ym2612"
    },
    {
      "channel": 0,
      "note": 73,
      "start": 123.991,
      "duration": 0.0933,
      "velocity": 123,
      "chip": "ym2612"
    },
    {
      "channel": 0,
      "note": 69,
      "start": 124.0845,
      "duration": 0.0989,
      "velocity": 123,
      "chip": "ym2612"
    },
    {
      "channel": 2,
      "note": 57,
      "start": 124.0871,
      "duration": 0.0338,
      "velocity": 123,
      "chip": "ym2612"
    },
    {
      "channel": 3,
      "note": 56,
      "start": 124.0898,
      "duration": 0.1939,
      "velocity": 114,
      "chip": "ym2612"
    },
    {
      "channel": 2,
      "note": 57,
      "start": 124.1211,
      "duration": 0.0301,
      "velocity": 123,
      "chip": "ym2612"
    },
    {
      "channel": 2,
      "note": 57,
      "start": 124.1513,
      "duration": 0.0333,
      "velocity": 123,
      "chip": "ym2612"
    },
    {
      "channel": 0,
      "note": 73,
      "start": 124.1836,
      "duration": 0.0933,
      "velocity": 123,
      "chip": "ym2612"
    },
    {
      "channel": 2,
      "note": 57,
      "start": 124.1849,
      "duration": 0.0294,
      "velocity": 123,
      "chip": "ym2612"
    },
    {
      "channel": 2,
      "note": 57,
      "start": 124.2148,
      "duration": 0.0324,
      "velocity": 123,
      "chip": "ym2612"
    },
    {
      "channel": 2,
      "note": 57,
      "start": 124.2475,
      "duration": 0.0321,
      "velocity": 127,
      "chip": "ym2612"
    },
    {
      "channel": 0,
      "note": 69,
      "start": 124.2771,
      "duration": 0.099,
      "velocity": 123,
      "chip": "ym2612"
    },
    {
      "channel": 2,
      "note": 59,
      "start": 124.2798,
      "duration": 0.0335,
      "velocity": 127,
      "chip": "ym2612"
    },
    {
      "channel": 3,
      "note": 56,
      "start": 124.284,
      "duration": 0.1941,
      "velocity": 114,
      "chip": "ym2612"
    },
    {
      "channel": 4,
      "note": 44,
      "start": 124.2849,
      "duration": 0.1941,
      "velocity": 110,
      "chip": "ym2612"
    },
    {
      "channel": 2,
      "note": 59,
      "start": 124.3135,
      "duration": 0.1615,
      "velocity": 127,
      "chip": "ym2612"
    },
    {
      "channel": 0,
      "note": 73,
      "start": 124.3763,
      "duration": 0.0961,
      "velocity": 123,
      "chip": "ym2612"
    },
    {
      "channel": 0,
      "note": 69,
      "start": 124.4727,
      "duration": 0.0961,
      "velocity": 123,
      "chip": "ym2612"
    },
    {
      "channel": 2,
      "note": 66,
      "start": 124.4751,
      "duration": 0.0945,
      "velocity": 127,
      "chip": "ym2612"
    },
    {
      "channel": 3,
      "note": 56,
      "start": 124.4784,
      "duration": 0.1911,
      "velocity": 114,
      "chip": "ym2612"
    },
    {
      "channel": 4,
      "note": 44,
      "start": 124.4792,
      "duration": 0.1912,
      "velocity": 110,
      "chip": "ym2612"
    },
    {
      "channel": 0,
      "note": 73,
      "start": 124.5689,
      "duration": 0.0968,
      "velocity": 123,
      "chip": "ym2612"
    },
    {
      "channel": 2,
      "note": 66,
      "start": 124.5699,
      "duration": 0.0967,
      "velocity": 127,
      "chip": "ym2612"
    },
    {
      "channel": 0,
      "note": 69,
      "start": 124.6659,
      "duration": 0.0954,
      "velocity": 123,
      "chip": "ym2612"
    },
    {
      "channel": 2,
      "note": 66,
      "start": 124.6669,
      "duration": 0.0954,
      "velocity": 127,
      "chip": "ym2612"
    },
    {
      "channel": 3,
      "note": 56,
      "start": 124.6697,
      "duration": 0.1933,
      "velocity": 114,
      "chip": "ym2612"
    },
    {
      "channel": 0,
      "note": 73,
      "start": 124.7615,
      "duration": 0.0961,
      "velocity": 123,
      "chip": "ym2612"
    },
    {
      "channel": 2,
      "note": 66,
      "start": 124.7625,
      "duration": 0.0977,
      "velocity": 123,
      "chip": "ym2612"
    },
    {
      "channel": 0,
      "note": 69,
      "start": 124.8579,
      "duration": 0.0961,
      "velocity": 123,
      "chip": "ym2612"
    },
    {
      "channel": 2,
      "note": 68,
      "start": 124.8603,
      "duration": 0.0946,
      "velocity": 123,
      "chip": "ym2612"
    },
    {
      "channel": 3,
      "note": 56,
      "start": 124.8632,
      "duration": 0.1931,
      "velocity": 114,
      "chip": "ym2612"
    },
    {
      "channel": 0,
      "note": 73,
      "start": 124.9542,
      "duration": 0.096,
      "velocity": 123,
      "chip": "ym2612"
    },
    {
      "channel": 2,
      "note": 68,
      "start": 124.9552,
      "duration": 0.0974,
      "velocity": 107,
      "chip": "ym2612"
    },
    {
      "channel": 0,
      "note": 69,
      "start": 125.0505,
      "duration": 0.0961,
      "velocity": 123,
      "chip": "ym2612"
    },
    {
      "channel": 2,
      "note": 30,
      "start": 125.0529,
      "duration": 0.0308,
      "velocity": 107,
      "chip": "ym2612"
    },
    {
      "channel": 3,
      "note": 56,
      "start": 125.0564,
      "duration": 0.1923,
      "velocity": 114,
      "chip": "ym2612"
    },
    {
      "channel": 4,
      "note": 44,
      "start": 125.0573,
      "duration": 0.1924,
      "velocity": 110,
      "chip": "ym2612"
    },
    {
      "channel": 2,
      "note": 30,
      "start": 125.0839,
      "duration": 0.1615,
      "velocity": 123,
      "chip": "ym2612"
    },
    {
      "channel": 0,
      "note": 73,
      "start": 125.1468,
      "duration": 0.0961,
      "velocity": 123,
      "chip": "ym2612"
    },
    {
      "channel": 0,
      "note": 69,
      "start": 125.2431,
      "duration": 0.0961,
      "velocity": 123,
      "chip": "ym2612"
    },
    {
      "channel": 2,
      "note": 59,
      "start": 125.2456,
      "duration": 0.0946,
      "velocity": 123,
      "chip": "ym2612"
    },
    {
      "channel": 3,
      "note": 56,
      "start": 125.249,
      "duration": 0.1925,
      "velocity": 114,
      "chip": "ym2612"
    },
    {
      "channel": 0,
      "note": 73,
      "start": 125.3393,
      "duration": 0.0961,
      "velocity": 123,
      "chip": "ym2612"
    },
    {
      "channel": 2,
      "note": 59,
      "start": 125.3403,
      "duration": 0.0976,
      "velocity": 107,
      "chip": "ym2612"
    },
    {
      "channel": 0,
      "note": 69,
      "start": 125.4357,
      "duration": 0.0967,
      "velocity": 123,
      "chip": "ym2612"
    },
    {
      "channel": 2,
      "note": 27,
      "start": 125.4382,
      "duration": 0.0308,
      "velocity": 107,
      "chip": "ym2612"
    },
    {
      "channel": 3,
      "note": 56,
      "start": 125.4417,
      "duration": 0.1923,
      "velocity": 114,
      "chip": "ym2612"
    },
    {
      "channel": 4,
      "note": 44,
      "start": 125.4426,
      "duration": 0.1923,
      "velocity": 110,
      "chip": "ym2612"
    },
    {
      "channel": 2,
      "note": 27,
      "start": 125.4692,
      "duration": 0.1615,
      "velocity": 127,
      "chip": "ym2612"
    },
    {
      "channel": 0,
      "note": 73,
      "start": 125.5326,
      "duration": 0.0955,
      "velocity": 123,
      "chip": "ym2612"
    },
    {
      "channel": 0,
      "note": 69,
      "start": 125.6283,
      "duration": 0.0961,
      "velocity": 123,
      "chip": "ym2612"
    },
    {
      "channel": 2,
      "note": 59,
      "start": 125.6309,
      "duration": 0.0308,
      "velocity": 127,
      "chip": "ym2612"
    },
    {
      "channel": 3,
      "note": 56,
      "start": 125.6343,
      "duration": 0.1925,
      "velocity": 114,
      "chip": "ym2612"
    },
    {
      "channel": 2,
      "note": 59,
      "start": 125.6618,
      "duration": 0.1615,
      "velocity": 123,
      "chip": "ym2612"
    },
    {
      "channel": 0,
      "note": 73,
      "start": 125.7246,
      "duration": 0.0961,
      "velocity": 123,
      "chip": "ym2612"
    },
    {
      "channel": 0,
      "note": 69,
      "start": 125.8209,
      "duration": 0.0961,
      "velocity": 123,
      "chip": "ym2612"
    },
    {
      "channel": 2,
      "note": 57,
      "start": 125.8235,
      "duration": 0.031,
      "velocity": 123,
      "chip": "ym2612"
    },
    {
      "channel": 3,
      "note": 56,
      "start": 125.8271,
      "duration": 0.1929,
      "velocity": 114,
      "chip": "ym2612"
    },
    {
      "channel": 4,
      "note": 44,
      "start": 125.8279,
      "duration": 0.1929,
      "velocity": 110,
      "chip": "ym2612"
    },
    {
      "channel": 2,
      "note": 57,
      "start": 125.8546,
      "duration": 0.0328,
      "velocity": 123,
      "chip": "ym2612"
    },
    {
      "channel": 2,
      "note": 57,
      "start": 125.8877,
      "duration": 0.0305,
      "velocity": 123,
      "chip": "ym2612"
    },
    {
      "channel": 0,
      "note": 73,
      "start": 125.9172,
      "duration": 0.0961,
      "velocity": 123,
      "chip": "ym2612"
    },
    {
      "channel": 2,
      "note": 57,
      "start": 125.9185,
      "duration": 0.0322,
      "velocity": 123,
      "chip": "ym2612"
    },
    {
      "channel": 2,
      "note": 57,
      "start": 125.951,
      "duration": 0.0299,
      "velocity": 123,
      "chip": "ym2612"
    },
    {
      "channel": 2,
      "note": 57,
      "start": 125.9812,
      "duration": 0.0355,
      "velocity": 127,
      "chip": "ym2612"
    },
    {
      "channel": 0,
      "note": 69,
      "start": 126.0135,
      "duration": 0.0961,
      "velocity": 123,
      "chip": "ym2612"
    },
    {
      "channel": 2,
      "note": 64,
      "start": 126.0169,
      "duration": 0.0936,
      "velocity": 127,
      "chip": "ym2612"
    },
    {
      "channel": 3,
      "note": 56,
      "start": 126.0201,
      "duration": 0.1896,
      "velocity": 114,
      "chip": "ym2612"
    },
    {
      "channel": 4,
      "note": 44,
      "start": 126.021,
      "duration": 0.1896,
      "velocity": 110,
      "chip": "ym2612"
    },
    {
      "channel": 0,
      "note": 73,
      "start": 126.1098,
      "duration": 0.0961,
      "velocity": 123,
      "chip": "ym2612"
    },
    {
      "channel": 2,
      "note": 64,
      "start": 126.1108,
      "duration": 0.0961,
      "velocity": 127,
      "chip": "ym2612"
    },
    {
      "channel": 0,
      "note": 69,
      "start": 126.2061,
      "duration": 0.096,
      "velocity": 123,
      "chip": "ym2612"
    },
    {
      "channel": 2,
      "note": 64,
      "start": 126.2071,
      "duration": 0.096,
      "velocity": 127,
      "chip": "ym2612"
    },
    {
      "channel": 3,
      "note": 56,
      "start": 126.2099,
      "duration": 0.1929,
      "velocity": 114,
      "chip": "ym2612"
    },
    {
      "channel": 0,
      "note": 73,
      "start": 126.3023,
      "duration": 0.0933,
      "velocity": 123,
      "chip": "ym2612"
    },
    {
      "channel": 2,
      "note": 64,
      "start": 126.3033,
      "duration": 0.0959,
      "velocity": 107,
      "chip": "ym2612"
    },
    {
      "channel": 0,
      "note": 69,
      "start": 126.3958,
      "duration": 0.099,
      "velocity": 123,
      "chip": "ym2612"
    },
    {
      "channel": 1,
      "note": 34,
      "start": 126.3965,
      "duration": 2.9574,
      "velocity": 98,
      "chip": "ym2612"
    },
    {
      "channel": 2,
      "note": 26,
      "start": 126.3994,
      "duration": 0.0333,
      "velocity": 107,
      "chip": "ym2612"
    },
    {
      "channel": 3,
      "note": 56,
      "start": 126.4031,
      "duration": 0.1933,
      "velocity": 114,
      "chip": "ym2612"
    },
    {
      "channel": 4,
      "note": 44,
      "start": 126.404,
      "duration": 0.1933,
      "velocity": 110,
      "chip": "ym2612"
    },
    {
      "channel": 2,
      "note": 26,
      "start": 126.433,
      "duration": 0.1607,
      "velocity": 127,
      "chip": "ym2612"
    },
    {
      "channel": 0,
      "note": 73,
      "start": 126.4951,
      "duration": 0.0961,
      "velocity": 123,
      "chip": "ym2612"
    },
    {
      "channel": 0,
      "note": 69,
      "start": 126.5914,
      "duration": 0.0961,
      "velocity": 123,
      "chip": "ym2612"
    },
    {
      "channel": 2,
      "note": 59,
      "start": 126.5939,
      "duration": 0.1923,
      "velocity": 127,
      "chip": "ym2612"
    },
    {
      "channel": 3,
      "note": 56,
      "start": 126.5966,
      "duration": 0.1924,
      "velocity": 114,
      "chip": "ym2612"
    },
    {
      "channel": 0,
      "note": 73,
      "start": 126.6876,
      "duration": 0.0961,
      "velocity": 123,
      "chip": "ym2612"
    },
    {
      "channel": 5,
      "note": 34,
      "start": 126.6919,
      "duration": 2.954,
      "velocity": 98,
      "chip": "ym2612"
    },
    {
      "channel": 0,
      "note": 69,
      "start": 126.7839,
      "duration": 0.0961,
      "velocity": 123,
      "chip": "ym2612"
    },
    {
      "channel": 2,
      "note": 59,
      "start": 126.7864,
      "duration": 0.0309,
      "velocity": 127,
      "chip": "ym2612"
    },
    {
      "channel": 3,
      "note": 56,
      "start": 126.7893,
      "duration": 0.1937,
      "velocity": 114,
      "chip": "ym2612"
    },
    {
      "channel": 2,
      "note": 59,
      "start": 126.8174,
      "duration": 0.1613,
      "velocity": 127,
      "chip": "ym2612"
    },
    {
      "channel": 0,
      "note": 73,
      "start": 126.8802,
      "duration": 0.0961,
      "velocity": 123,
      "chip": "ym2612"
    },
    {
      "channel": 0,
      "note": 69,
      "start": 126.9766,
      "duration": 0.0961,
      "velocity": 123,
      "chip": "ym2612"
    },
    {
      "channel": 2,
      "note": 64,
      "start": 126.979,
      "duration": 0.1926,
      "velocity": 123,
      "chip": "ym2612"
    },
    {
      "channel": 3,
      "note": 56,
      "start": 126.9831,
      "duration": 0.1912,
      "velocity": 114,
      "chip": "ym2612"
    },
    {
      "channel": 4,
      "note": 44,
      "start": 126.984,
      "duration": 0.1912,
      "velocity": 110,
      "chip": "ym2612"
    },
    {
      "channel": 0,
      "note": 73,
      "start": 127.0729,
      "duration": 0.0962,
      "velocity": 123,
      "chip": "ym2612"
    },
    {
      "channel": 0,
      "note": 69,
      "start": 127.1692,
      "duration": 0.0967,
      "velocity": 123,
      "chip": "ym2612"
    },
    {
      "channel": 2,
      "note": 57,
      "start": 127.1718,
      "duration": 0.031,
      "velocity": 123,
      "chip": "ym2612"
    },
    {
      "channel": 3,
      "note": 56,
      "start": 127.1746,
      "duration": 0.194,
      "velocity": 114,
      "chip": "ym2612"
    },
    {
      "channel": 2,
      "note": 57,
      "start": 127.2031,
      "duration": 0.0327,
      "velocity": 123,
      "chip": "ym2612"
    },
    {
      "channel": 2,
      "note": 57,
      "start": 127.236,
      "duration": 0.0312,
      "velocity": 123,
      "chip": "ym2612"
    },
    {
      "channel": 0,
      "note": 73,
      "start": 127.2661,
      "duration": 0.0956,
      "velocity": 123,
      "chip": "ym2612"
    },
    {
      "channel": 2,
      "note": 57,
      "start": 127.2674,
      "duration": 0.0324,
      "velocity": 123,
      "chip": "ym2612"
    },
    {
      "channel": 2,
      "note": 57,
      "start": 127.3,
      "duration": 0.0328,
      "velocity": 123,
      "chip": "ym2612"
    },
    {
      "channel": 2,
      "note": 57,
      "start": 127.333,
      "duration": 0.0315,
      "velocity": 127,
      "chip": "ym2612"
    },
    {
      "channel": 0,
      "note": 69,
      "start": 127.3619,
      "duration": 0.099,
      "velocity": 123,
      "chip": "ym2612"
    },
    {
      "channel": 2,
      "note": 59,
      "start": 127.3653,
      "duration": 0.0334,
      "velocity": 127,
      "chip": "ym2612"
    },
    {
      "channel": 3,
      "note": 56,
      "start": 127.3688,
      "duration": 0.1941,
      "velocity": 114,
      "chip": "ym2612"
    },
    {
      "channel": 4,
      "note": 44,
      "start": 127.3697,
      "duration": 0.1941,
      "velocity": 110,
      "chip": "ym2612"
    },
    {
      "channel": 2,
      "note": 59,
      "start": 127.3989,
      "duration": 0.1607,
      "velocity": 127,
      "chip": "ym2612"
    },
    {
      "channel": 0,
      "note": 73,
      "start": 127.4611,
      "duration": 0.0961,
      "velocity": 123,
      "chip": "ym2612"
    },
    {
      "channel": 0,
      "note": 69,
      "start": 127.5574,
      "duration": 0.0961,
      "velocity": 123,
      "chip": "ym2612"
    },
    {
      "channel": 2,
      "note": 66,
      "start": 127.5599,
      "duration": 0.0945,
      "velocity": 127,
      "chip": "ym2612"
    },
    {
      "channel": 3,
      "note": 56,
      "start": 127.5631,
      "duration": 0.1905,
      "velocity": 114,
      "chip": "ym2612"
    },
    {
      "channel": 4,
      "note": 44,
      "start": 127.564,
      "duration": 0.1905,
      "velocity": 110,
      "chip": "ym2612"
    },
    {
      "channel": 0,
      "note": 73,
      "start": 127.6537,
      "duration": 0.0961,
      "velocity": 123,
      "chip": "ym2612"
    },
    {
      "channel": 2,
      "note": 66,
      "start": 127.6547,
      "duration": 0.0961,
      "velocity": 127,
      "chip": "ym2612"
    },
    {
      "channel": 0,
      "note": 69,
      "start": 127.75,
      "duration": 0.096,
      "velocity": 123,
      "chip": "ym2612"
    },
    {
      "channel": 2,
      "note": 66,
      "start": 127.751,
      "duration": 0.096,
      "velocity": 127,
      "chip": "ym2612"
    },
    {
      "channel": 3,
      "note": 56,
      "start": 127.7538,
      "duration": 0.191,
      "velocity": 114,
      "chip": "ym2612"
    },
    {
      "channel": 0,
      "note": 73,
      "start": 127.8462,
      "duration": 0.0933,
      "velocity": 123,
      "chip": "ym2612"
    },
    {
      "channel": 2,
      "note": 66,
      "start": 127.8472,
      "duration": 0.0948,
      "velocity": 123,
      "chip": "ym2612"
    },
    {
      "channel": 0,
      "note": 69,
      "start": 127.9398,
      "duration": 0.0988,
      "velocity": 123,
      "chip": "ym2612"
    },
    {
      "channel": 2,
      "note": 68,
      "start": 127.9422,
      "duration": 0.0974,
      "velocity": 123,
      "chip": "ym2612"
    },
    {
      "channel": 3,
      "note": 56,
      "start": 127.9451,
      "duration": 0.1937,
      "velocity": 114,
      "chip": "ym2612"
    },
    {
      "channel": 0,
      "note": 73,
      "start": 128.0388,
      "duration": 0.0939,
      "velocity": 123,
      "chip": "ym2612"
    },
    {
      "channel": 2,
      "note": 68,
      "start": 128.0398,
      "duration": 0.0954,
      "velocity": 107,
      "chip": "ym2612"
    },
    {
      "channel": 0,
      "note": 69,
      "start": 128.133,
      "duration": 0.0983,
      "velocity": 123,
      "chip": "ym2612"
    },
    {
      "channel": 2,
      "note": 30,
      "start": 128.1354,
      "duration": 0.033,
      "velocity": 107,
      "chip": "ym2612"
    },
    {
      "channel": 3,
      "note": 56,
      "start": 128.1389,
      "duration": 0.191,
      "velocity": 114,
      "chip": "ym2612"
    },
    {
      "channel": 4,
      "note": 44,
      "start": 128.1398,
      "duration": 0.191,
      "velocity": 110,
      "chip": "ym2612"
    },
    {
      "channel": 2,
      "note": 30,
      "start": 128.1686,
      "duration": 0.1586,
      "velocity": 123,
      "chip": "ym2612"
    },
    {
      "channel": 0,
      "note": 73,
      "start": 128.2321,
      "duration": 0.0926,
      "velocity": 123,
      "chip": "ym2612"
    },
    {
      "channel": 0,
      "note": 69,
      "start": 128.3249,
      "duration": 0.0989,
      "velocity": 123,
      "chip": "ym2612"
    },
    {
      "channel": 2,
      "note": 59,
      "start": 128.3274,
      "duration": 0.0974,
      "velocity": 123,
      "chip": "ym2612"
    },
    {
      "channel": 3,
      "note": 56,
      "start": 128.3302,
      "duration": 0.1931,
      "velocity": 114,
      "chip": "ym2612"
    },
    {
      "channel": 0,
      "note": 73,
      "start": 128.4241,
      "duration": 0.0933,
      "velocity": 123,
      "chip": "ym2612"
    },
    {
      "channel": 2,
      "note": 59,
      "start": 128.425,
      "duration": 0.0948,
      "velocity": 107,
      "chip": "ym2612"
    },
    {
      "channel": 0,
      "note": 69,
      "start": 128.5176,
      "duration": 0.0988,
      "velocity": 123,
      "chip": "ym2612"
    },
    {
      "channel": 2,
      "note": 27,
      "start": 128.52,
      "duration": 0.0336,
      "velocity": 107,
      "chip": "ym2612"
    },
    {
      "channel": 3,
      "note": 56,
      "start": 128.5236,
      "duration": 0.1923,
      "velocity": 114,
      "chip": "ym2612"
    },
    {
      "channel": 4,
      "note": 44,
      "start": 128.5245,
      "duration": 0.1923,
      "velocity": 110,
      "chip": "ym2612"
    },
    {
      "channel": 2,
      "note": 27,
      "start": 128.5538,
      "duration": 0.1586,
      "velocity": 127,
      "chip": "ym2612"
    },
    {
      "channel": 0,
      "note": 73,
      "start": 128.6167,
      "duration": 0.0933,
      "velocity": 123,
      "chip": "ym2612"
    },
    {
      "channel": 0,
      "note": 69,
      "start": 128.7102,
      "duration": 0.0989,
      "velocity": 123,
      "chip": "ym2612"
    },
    {
      "channel": 2,
      "note": 59,
      "start": 128.7127,
      "duration": 0.0335,
      "velocity": 127,
      "chip": "ym2612"
    },
    {
      "channel": 3,
      "note": 56,
      "start": 128.7161,
      "duration": 0.1926,
      "velocity": 114,
      "chip": "ym2612"
    },
    {
      "channel": 2,
      "note": 59,
      "start": 128.7464,
      "duration": 0.1587,
      "velocity": 123,
      "chip": "ym2612"
    },
    {
      "channel": 0,
      "note": 73,
      "start": 128.8092,
      "duration": 0.0934,
      "velocity": 123,
      "chip": "ym2612"
    },
    {
      "channel": 0,
      "note": 69,
      "start": 128.9028,
      "duration": 0.0988,
      "velocity": 123,
      "chip": "ym2612"
    },
    {
      "channel": 2,
      "note": 57,
      "start": 128.9054,
      "duration": 0.0337,
      "velocity": 123,
      "chip": "ym2612"
    },
    {
      "channel": 3,
      "note": 56,
      "start": 128.909,
      "duration": 0.1927,
      "velocity": 114,
      "chip": "ym2612"
    },
    {
      "channel": 4,
      "note": 44,
      "start": 128.9099,
      "duration": 0.1928,
      "velocity": 110,
      "chip": "ym2612"
    },
    {
      "channel": 2,
      "note": 57,
      "start": 128.9394,
      "duration": 0.03,
      "velocity": 123,
      "chip": "ym2612"
    },
    {
      "channel": 2,
      "note": 57,
      "start": 128.9696,
      "duration": 0.0333,
      "velocity": 123,
      "chip": "ym2612"
    },
    {
      "channel": 0,
      "note": 73,
      "start": 129.0019,
      "duration": 0.0932,
      "velocity": 123,
      "chip": "ym2612"
    },
    {
      "channel": 2,
      "note": 57,
      "start": 129.0032,
      "duration": 0.0299,
      "velocity": 123,
      "chip": "ym2612"
    },
    {
      "channel": 2,
      "note": 57,
      "start": 129.0333,
      "duration": 0.0329,
      "velocity": 123,
      "chip": "ym2612"
    },
    {
      "channel": 2,
      "note": 57,
      "start": 129.0665,
      "duration": 0.0315,
      "velocity": 127,
      "chip": "ym2612"
    },
    {
      "channel": 0,
      "note": 69,
      "start": 129.0954,
      "duration": 0.0989,
      "velocity": 123,
      "chip": "ym2612"
    },
    {
      "channel": 2,
      "note": 64,
      "start": 129.0987,
      "duration": 0.0965,
      "velocity": 127,
      "chip": "ym2612"
    },
    {
      "channel": 3,
      "note": 56,
      "start": 129.102,
      "duration": 0.1896,
      "velocity": 114,
      "chip": "ym2612"
    },
    {
      "channel": 4,
      "note": 44,
      "start": 129.1028,
      "duration": 0.1896,
      "velocity": 110,
      "chip": "ym2612"
    },
    {
      "channel": 0,
      "note": 73,
      "start": 129.1945,
      "duration": 0.0933,
      "velocity": 123,
      "chip": "ym2612"
    },
    {
      "channel": 2,
      "note": 64,
      "start": 129.1955,
      "duration": 0.0933,
      "velocity": 127,
      "chip": "ym2612"
    },
    {
      "channel": 0,
      "note": 69,
      "start": 129.288,
      "duration": 0.096,
      "velocity": 123,
      "chip": "ym2612"
    },
    {
      "channel": 2,
      "note": 64,
      "start": 129.2889,
      "duration": 0.096,
      "velocity": 127,
      "chip": "ym2612"
    },
    {
      "channel": 3,
      "note": 56,
      "start": 129.2918,
      "duration": 0.196,
      "velocity": 114,
      "chip": "ym2612"
    },
    {
      "channel": 0,
      "note": 73,
      "start": 129.3842,
      "duration": 0.0961,
      "velocity": 123,
      "chip": "ym2612"
    },
    {
      "channel": 2,
      "note": 64,
      "start": 129.3852,
      "duration": 0.0989,
      "velocity": 107,
      "chip": "ym2612"
    },
    {
      "channel": 0,
      "note": 69,
      "start": 129.4805,
      "duration": 0.0989,
      "velocity": 123,
      "chip": "ym2612"
    },
    {
      "channel": 1,
      "note": 35,
      "start": 129.4821,
      "duration": 2.9537,
      "velocity": 98,
      "chip": "ym2612"
    },
    {
      "channel": 2,
      "note": 26,
      "start": 129.4844,
      "duration": 0.0323,
      "velocity": 107,
      "chip": "ym2612"
    },
    {
      "channel": 3,
      "note": 56,
      "start": 129.488,
      "duration": 0.1903,
      "velocity": 114,
      "chip": "ym2612"
    },
    {
      "channel": 4,
      "note": 44,
      "start": 129.4889,
      "duration": 0.1903,
      "velocity": 110,
      "chip": "ym2612"
    },
    {
      "channel": 2,
      "note": 26,
      "start": 129.5169,
      "duration": 0.1586,
      "velocity": 127,
      "chip": "ym2612"
    },
    {
      "channel": 0,
      "note": 73,
      "start": 129.5797,
      "duration": 0.0933,
      "velocity": 123,
      "chip": "ym2612"
    },
    {
      "channel": 0,
      "note": 69,
      "start": 129.6732,
      "duration": 0.0989,
      "velocity": 123,
      "chip": "ym2612"
    },
    {
      "channel": 2,
      "note": 59,
      "start": 129.6758,
      "duration": 0.1927,
      "velocity": 127,
      "chip": "ym2612"
    },
    {
      "channel": 3,
      "note": 56,
      "start": 129.6786,
      "duration": 0.1927,
      "velocity": 114,
      "chip": "ym2612"
    },
    {
      "channel": 0,
      "note": 73,
      "start": 129.7723,
      "duration": 0.0937,
      "velocity": 123,
      "chip": "ym2612"
    },
    {
      "channel": 5,
      "note": 35,
      "start": 129.7768,
      "duration": 2.9511,
      "velocity": 98,
      "chip": "ym2612"
    },
    {
      "channel": 0,
      "note": 69,
      "start": 129.8662,
      "duration": 0.0992,
      "velocity": 123,
      "chip": "ym2612"
    },
    {
      "channel": 2,
      "note": 59,
      "start": 129.8686,
      "duration": 0.0333,
      "velocity": 127,
      "chip": "ym2612"
    },
    {
      "channel": 3,
      "note": 56,
      "start": 129.8715,
      "duration": 0.1925,
      "velocity": 114,
      "chip": "ym2612"
    },
    {
      "channel": 2,
      "note": 59,
      "start": 129.9021,
      "duration": 0.1585,
      "velocity": 127,
      "chip": "ym2612"
    },
    {
      "channel": 0,
      "note": 73,
      "start": 129.9656,
      "duration": 0.0926,
      "velocity": 123,
      "chip": "ym2612"
    },
    {
      "channel": 0,
      "note": 69,
      "start": 130.0584,
      "duration": 0.0989,
      "velocity": 123,
      "chip": "ym2612"
    },
    {
      "channel": 2,
      "note": 64,
      "start": 130.0608,
      "duration": 0.1926,
      "velocity": 123,
      "chip": "ym2612"
    },
    {
      "channel": 3,
      "note": 56,
      "start": 130.0643,
      "duration": 0.1919,
      "velocity": 114,
      "chip": "ym2612"
    },
    {
      "channel": 4,
      "note": 44,
      "start": 130.0658,
      "duration": 0.1913,
      "velocity": 110,
      "chip": "ym2612"
    },
    {
      "channel": 0,
      "note": 73,
      "start": 130.1575,
      "duration": 0.0933,
      "velocity": 123,
      "chip": "ym2612"
    },
    {
      "channel": 0,
      "note": 69,
      "start": 130.2511,
      "duration": 0.0989,
      "velocity": 123,
      "chip": "ym2612"
    },
    {
      "channel": 2,
      "note": 57,
      "start": 130.2536,
      "duration": 0.0338,
      "velocity": 123,
      "chip": "ym2612"
    },
    {
      "channel": 3,
      "note": 56,
      "start": 130.2564,
      "duration": 0.1939,
      "velocity": 114,
      "chip": "ym2612"
    },
    {
      "channel": 2,
      "note": 57,
      "start": 130.2877,
      "duration": 0.03,
      "velocity": 123,
      "chip": "ym2612"
    },
    {
      "channel": 2,
      "note": 57,
      "start": 130.3179,
      "duration": 0.0333,
      "velocity": 123,
      "chip": "ym2612"
    },
    {
      "channel": 0,
      "note": 73,
      "start": 130.3501,
      "duration": 0.0934,
      "velocity": 123,
      "chip": "ym2612"
    },
    {
      "channel": 2,
      "note": 57,
      "start": 130.3515,
      "duration": 0.0295,
      "velocity": 123,
      "chip": "ym2612"
    },
    {
      "channel": 2,
      "note": 57,
      "start": 130.3812,
      "duration": 0.0327,
      "velocity": 123,
      "chip": "ym2612"
    },
    {
      "channel": 2,
      "note": 57,
      "start": 130.4141,
      "duration": 0.0321,
      "velocity": 127,
      "chip": "ym2612"
    },
    {
      "channel": 0,
      "note": 69,
      "start": 130.4437,
      "duration": 0.0989,
      "velocity": 123,
      "chip": "ym2612"
    },
    {
      "channel": 2,
      "note": 59,
      "start": 130.4464,
      "duration": 0.0334,
      "velocity": 127,
      "chip": "ym2612"
    },
    {
      "channel": 3,
      "note": 56,
      "start": 130.4506,
      "duration": 0.1941,
      "velocity": 114,
      "chip": "ym2612"
    },
    {
      "channel": 4,
      "note": 44,
      "start": 130.4515,
      "duration": 0.1941,
      "velocity": 110,
      "chip": "ym2612"
    },
    {
      "channel": 2,
      "note": 59,
      "start": 130.48,
      "duration": 0.1615,
      "velocity": 127,
      "chip": "ym2612"
    },
    {
      "channel": 0,
      "note": 73,
      "start": 130.5428,
      "duration": 0.0962,
      "velocity": 123,
      "chip": "ym2612"
    },
    {
      "channel": 0,
      "note": 69,
      "start": 130.6392,
      "duration": 0.0961,
      "velocity": 123,
      "chip": "ym2612"
    },
    {
      "channel": 2,
      "note": 66,
      "start": 130.6417,
      "duration": 0.0945,
      "velocity": 127,
      "chip": "ym2612"
    },
    {
      "channel": 3,
      "note": 56,
      "start": 130.6449,
      "duration": 0.1912,
      "velocity": 114,
      "chip": "ym2612"
    },
    {
      "channel": 4,
      "note": 44,
      "start": 130.6458,
      "duration": 0.1912,
      "velocity": 110,
      "chip": "ym2612"
    },
    {
      "channel": 0,
      "note": 73,
      "start": 130.7354,
      "duration": 0.0968,
      "velocity": 123,
      "chip": "ym2612"
    },
    {
      "channel": 2,
      "note": 66,
      "start": 130.7365,
      "duration": 0.0968,
      "velocity": 127,
      "chip": "ym2612"
    },
    {
      "channel": 0,
      "note": 69,
      "start": 130.8324,
      "duration": 0.0954,
      "velocity": 123,
      "chip": "ym2612"
    },
    {
      "channel": 2,
      "note": 66,
      "start": 130.8335,
      "duration": 0.0954,
      "velocity": 127,
      "chip": "ym2612"
    },
    {
      "channel": 3,
      "note": 56,
      "start": 130.8363,
      "duration": 0.1933,
      "velocity": 114,
      "chip": "ym2612"
    },
    {
      "channel": 0,
      "note": 73,
      "start": 130.9281,
      "duration": 0.0962,
      "velocity": 123,
      "chip": "ym2612"
    },
    {
      "channel": 2,
      "note": 66,
      "start": 130.9291,
      "duration": 0.0976,
      "velocity": 123,
      "chip": "ym2612"
    },
    {
      "channel": 0,
      "note": 69,
      "start": 131.0244,
      "duration": 0.0961,
      "velocity": 123,
      "chip": "ym2612"
    },
    {
      "channel": 2,
      "note": 68,
      "start": 131.0269,
      "duration": 0.0946,
      "velocity": 123,
      "chip": "ym2612"
    },
    {
      "channel": 3,
      "note": 56,
      "start": 131.0298,
      "duration": 0.1931,
      "velocity": 114,
      "chip": "ym2612"
    },
    {
      "channel": 0,
      "note": 73,
      "start": 131.1207,
      "duration": 0.0961,
      "velocity": 123,
      "chip": "ym2612"
    },
    {
      "channel": 2,
      "note": 68,
      "start": 131.1218,
      "duration": 0.0975,
      "velocity": 107,
      "chip": "ym2612"
    },
    {
      "channel": 0,
      "note": 69,
      "start": 131.217,
      "duration": 0.0961,
      "velocity": 123,
      "chip": "ym2612"
    },
    {
      "channel": 2,
      "note": 30,
      "start": 131.2195,
      "duration": 0.0308,
      "velocity": 107,
      "chip": "ym2612"
    },
    {
      "channel": 3,
      "note": 56,
      "start": 131.223,
      "duration": 0.1923,
      "velocity": 114,
      "chip": "ym2612"
    },
    {
      "channel": 4,
      "note": 44,
      "start": 131.2239,
      "duration": 0.1923,
      "velocity": 110,
      "chip": "ym2612"
    },
    {
      "channel": 2,
      "note": 30,
      "start": 131.2505,
      "duration": 0.1614,
      "velocity": 123,
      "chip": "ym2612"
    },
    {
      "channel": 0,
      "note": 73,
      "start": 131.3133,
      "duration": 0.0961,
      "velocity": 123,
      "chip": "ym2612"
    },
    {
      "channel": 0,
      "note": 69,
      "start": 131.4096,
      "duration": 0.0961,
      "velocity": 123,
      "chip": "ym2612"
    },
    {
      "channel": 2,
      "note": 59,
      "start": 131.4122,
      "duration": 0.0945,
      "velocity": 123,
      "chip": "ym2612"
    },
    {
      "channel": 3,
      "note": 56,
      "start": 131.4155,
      "duration": 0.1925,
      "velocity": 114,
      "chip": "ym2612"
    },
    {
      "channel": 0,
      "note": 73,
      "start": 131.5059,
      "duration": 0.0961,
      "velocity": 123,
      "chip": "ym2612"
    },
    {
      "channel": 2,
      "note": 59,
      "start": 131.5069,
      "duration": 0.0976,
      "velocity": 107,
      "chip": "ym2612"
    },
    {
      "channel": 0,
      "note": 69,
      "start": 131.6022,
      "duration": 0.0967,
      "velocity": 123,
      "chip": "ym2612"
    },
    {
      "channel": 2,
      "note": 27,
      "start": 131.6047,
      "duration": 0.0308,
      "velocity": 107,
      "chip": "ym2612"
    },
    {
      "channel": 3,
      "note": 56,
      "start": 131.6083,
      "duration": 0.1923,
      "velocity": 114,
      "chip": "ym2612"
    },
    {
      "channel": 4,
      "note": 44,
      "start": 131.6092,
      "duration": 0.1923,
      "velocity": 110,
      "chip": "ym2612"
    },
    {
      "channel": 2,
      "note": 27,
      "start": 131.6357,
      "duration": 0.1615,
      "velocity": 127,
      "chip": "ym2612"
    },
    {
      "channel": 0,
      "note": 73,
      "start": 131.6992,
      "duration": 0.0955,
      "velocity": 123,
      "chip": "ym2612"
    },
    {
      "channel": 0,
      "note": 69,
      "start": 131.7949,
      "duration": 0.0961,
      "velocity": 123,
      "chip": "ym2612"
    },
    {
      "channel": 2,
      "note": 59,
      "start": 131.7974,
      "duration": 0.0308,
      "velocity": 127,
      "chip": "ym2612"
    },
    {
      "channel": 3,
      "note": 56,
      "start": 131.8008,
      "duration": 0.1926,
      "velocity": 114,
      "chip": "ym2612"
    },
    {
      "channel": 2,
      "note": 59,
      "start": 131.8284,
      "duration": 0.1614,
      "velocity": 123,
      "chip": "ym2612"
    },
    {
      "channel": 0,
      "note": 73,
      "start": 131.8912,
      "duration": 0.0961,
      "velocity": 123,
      "chip": "ym2612"
    },
    {
      "channel": 0,
      "note": 69,
      "start": 131.9875,
      "duration": 0.0961,
      "velocity": 123,
      "chip": "ym2612"
    },
    {
      "channel": 2,
      "note": 57,
      "start": 131.99,
      "duration": 0.031,
      "velocity": 123,
      "chip": "ym2612"
    },
    {
      "channel": 3,
      "note": 56,
      "start": 131.9936,
      "duration": 0.1929,
      "velocity": 114,
      "chip": "ym2612"
    },
    {
      "channel": 4,
      "note": 44,
      "start": 131.9945,
      "duration": 0.1928,
      "velocity": 110,
      "chip": "ym2612"
    },
    {
      "channel": 2,
      "note": 57,
      "start": 132.0212,
      "duration": 0.0328,
      "velocity": 123,
      "chip": "ym2612"
    },
    {
      "channel": 2,
      "note": 57,
      "start": 132.0543,
      "duration": 0.0305,
      "velocity": 123,
      "chip": "ym2612"
    },
    {
      "channel": 0,
      "note": 73,
      "start": 132.0837,
      "duration": 0.0961,
      "velocity": 123,
      "chip": "ym2612"
    },
    {
      "channel": 2,
      "note": 57,
      "start": 132.0851,
      "duration": 0.0322,
      "velocity": 123,
      "chip": "ym2612"
    },
    {
      "channel": 2,
      "note": 57,
      "start": 132.1174,
      "duration": 0.03,
      "velocity": 123,
      "chip": "ym2612"
    },
    {
      "channel": 2,
      "note": 57,
      "start": 132.1477,
      "duration": 0.0356,
      "velocity": 127,
      "chip": "ym2612"
    },
    {
      "channel": 0,
      "note": 69,
      "start": 132.18,
      "duration": 0.0961,
      "velocity": 123,
      "chip": "ym2612"
    },
    {
      "channel": 2,
      "note": 64,
      "start": 132.1834,
      "duration": 0.0937,
      "velocity": 127,
      "chip": "ym2612"
    },
    {
      "channel": 3,
      "note": 56,
      "start": 132.1866,
      "duration": 0.1896,
      "velocity": 114,
      "chip": "ym2612"
    },
    {
      "channel": 4,
      "note": 44,
      "start": 132.1876,
      "duration": 0.1896,
      "velocity": 110,
      "chip": "ym2612"
    },
    {
      "channel": 0,
      "note": 73,
      "start": 132.2763,
      "duration": 0.0961,
      "velocity": 123,
      "chip": "ym2612"
    },
    {
      "channel": 2,
      "note": 64,
      "start": 132.2774,
      "duration": 0.0961,
      "velocity": 127,
      "chip": "ym2612"
    },
    {
      "channel": 0,
      "note": 69,
      "start": 132.3727,
      "duration": 0.096,
      "velocity": 123,
      "chip": "ym2612"
    },
    {
      "channel": 2,
      "note": 64,
      "start": 132.3737,
      "duration": 0.096,
      "velocity": 127,
      "chip": "ym2612"
    },
    {
      "channel": 3,
      "note": 56,
      "start": 132.3765,
      "duration": 0.193,
      "velocity": 114,
      "chip": "ym2612"
    },
    {
      "channel": 0,
      "note": 73,
      "start": 132.4689,
      "duration": 0.0933,
      "velocity": 123,
      "chip": "ym2612"
    },
    {
      "channel": 2,
      "note": 64,
      "start": 132.4699,
      "duration": 0.0959,
      "velocity": 107,
      "chip": "ym2612"
    },
    {
      "channel": 0,
      "note": 69,
      "start": 132.5624,
      "duration": 0.099,
      "velocity": 123,
      "chip": "ym2612"
    },
    {
      "channel": 1,
      "note": 37,
      "start": 132.5631,
      "duration": 2.9575,
      "velocity": 98,
      "chip": "ym2612"
    },
    {
      "channel": 2,
      "note": 26,
      "start": 132.566,
      "duration": 0.0333,
      "velocity": 107,
      "chip": "ym2612"
    },
    {
      "channel": 3,
      "note": 56,
      "start": 132.5697,
      "duration": 0.1933,
      "velocity": 114,
      "chip": "ym2612"
    },
    {
      "channel": 4,
      "note": 44,
      "start": 132.5706,
      "duration": 0.1933,
      "velocity": 110,
      "chip": "ym2612"
    },
    {
      "channel": 2,
      "note": 26,
      "start": 132.5995,
      "duration": 0.1607,
      "velocity": 127,
      "chip": "ym2612"
    },
    {
      "channel": 0,
      "note": 73,
      "start": 132.6617,
      "duration": 0.0961,
      "velocity": 123,
      "chip": "ym2612"
    },
    {
      "channel": 0,
      "note": 69,
      "start": 132.7579,
      "duration": 0.0961,
      "velocity": 123,
      "chip": "ym2612"
    },
    {
      "channel": 2,
      "note": 59,
      "start": 132.7605,
      "duration": 0.1923,
      "velocity": 127,
      "chip": "ym2612"
    },
    {
      "channel": 3,
      "note": 56,
      "start": 132.7632,
      "duration": 0.1924,
      "velocity": 114,
      "chip": "ym2612"
    },
    {
      "channel": 0,
      "note": 73,
      "start": 132.8541,
      "duration": 0.0962,
      "velocity": 123,
      "chip": "ym2612"
    },
    {
      "channel": 5,
      "note": 37,
      "start": 132.8585,
      "duration": 2.9542,
      "velocity": 98,
      "chip": "ym2612"
    },
    {
      "channel": 0,
      "note": 69,
      "start": 132.9505,
      "duration": 0.0961,
      "velocity": 123,
      "chip": "ym2612"
    },
    {
      "channel": 2,
      "note": 59,
      "start": 132.953,
      "duration": 0.0308,
      "velocity": 127,
      "chip": "ym2612"
    },
    {
      "channel": 3,
      "note": 56,
      "start": 132.9558,
      "duration": 0.1936,
      "velocity": 114,
      "chip": "ym2612"
    },
    {
      "channel": 2,
      "note": 59,
      "start": 132.984,
      "duration": 0.1613,
      "velocity": 127,
      "chip": "ym2612"
    },
    {
      "channel": 0,
      "note": 73,
      "start": 133.0468,
      "duration": 0.0961,
      "velocity": 123,
      "chip": "ym2612"
    },
    {
      "channel": 0,
      "note": 69,
      "start": 133.1432,
      "duration": 0.0961,
      "velocity": 123,
      "chip": "ym2612"
    },
    {
      "channel": 2,
      "note": 64,
      "start": 133.1456,
      "duration": 0.1926,
      "velocity": 123,
      "chip": "ym2612"
    },
    {
      "channel": 3,
      "note": 56,
      "start": 133.1496,
      "duration": 0.1913,
      "velocity": 114,
      "chip": "ym2612"
    },
    {
      "channel": 4,
      "note": 44,
      "start": 133.1505,
      "duration": 0.1913,
      "velocity": 110,
      "chip": "ym2612"
    },
    {
      "channel": 0,
      "note": 73,
      "start": 133.2394,
      "duration": 0.0962,
      "velocity": 123,
      "chip": "ym2612"
    },
    {
      "channel": 0,
      "note": 69,
      "start": 133.3358,
      "duration": 0.0968,
      "velocity": 123,
      "chip": "ym2612"
    },
    {
      "channel": 2,
      "note": 57,
      "start": 133.3384,
      "duration": 0.031,
      "velocity": 123,
      "chip": "ym2612"
    },
    {
      "channel": 3,
      "note": 56,
      "start": 133.3411,
      "duration": 0.194,
      "velocity": 114,
      "chip": "ym2612"
    },
    {
      "channel": 2,
      "note": 57,
      "start": 133.3696,
      "duration": 0.0327,
      "velocity": 123,
      "chip": "ym2612"
    },
    {
      "channel": 2,
      "note": 57,
      "start": 133.4026,
      "duration": 0.0312,
      "velocity": 123,
      "chip": "ym2612"
    },
    {
      "channel": 0,
      "note": 73,
      "start": 133.4327,
      "duration": 0.0956,
      "velocity": 123,
      "chip": "ym2612"
    },
    {
      "channel": 2,
      "note": 57,
      "start": 133.434,
      "duration": 0.0324,
      "velocity": 123,
      "chip": "ym2612"
    },
    {
      "channel": 2,
      "note": 57,
      "start": 133.4666,
      "duration": 0.0328,
      "velocity": 123,
      "chip": "ym2612"
    },
    {
      "channel": 2,
      "note": 57,
      "start": 133.4996,
      "duration": 0.0314,
      "velocity": 127,
      "chip": "ym2612"
    },
    {
      "channel": 0,
      "note": 69,
      "start": 133.5285,
      "duration": 0.0989,
      "velocity": 123,
      "chip": "ym2612"
    },
    {
      "channel": 2,
      "note": 59,
      "start": 133.5315,
      "duration": 0.0338,
      "velocity": 127,
      "chip": "ym2612"
    },
    {
      "channel": 3,
      "note": 56,
      "start": 133.5354,
      "duration": 0.1941,
      "velocity": 114,
      "chip": "ym2612"
    },
    {
      "channel": 4,
      "note": 44,
      "start": 133.5363,
      "duration": 0.1941,
      "velocity": 110,
      "chip": "ym2612"
    },
    {
      "channel": 2,
      "note": 59,
      "start": 133.5655,
      "duration": 0.1608,
      "velocity": 127,
      "chip": "ym2612"
    },
    {
      "channel": 0,
      "note": 73,
      "start": 133.6276,
      "duration": 0.0961,
      "velocity": 123,
      "chip": "ym2612"
    },
    {
      "channel": 0,
      "note": 69,
      "start": 133.724,
      "duration": 0.0961,
      "velocity": 123,
      "chip": "ym2612"
    },
    {
      "channel": 2,
      "note": 66,
      "start": 133.7265,
      "duration": 0.0945,
      "velocity": 127,
      "chip": "ym2612"
    },
    {
      "channel": 3,
      "note": 56,
      "start": 133.7297,
      "duration": 0.1905,
      "velocity": 114,
      "chip": "ym2612"
    },
    {
      "channel": 4,
      "note": 44,
      "start": 133.7305,
      "duration": 0.1905,
      "velocity": 110,
      "chip": "ym2612"
    },
    {
      "channel": 0,
      "note": 73,
      "start": 133.8202,
      "duration": 0.0961,
      "velocity": 123,
      "chip": "ym2612"
    },
    {
      "channel": 2,
      "note": 66,
      "start": 133.8212,
      "duration": 0.0961,
      "velocity": 127,
      "chip": "ym2612"
    },
    {
      "channel": 0,
      "note": 69,
      "start": 133.9166,
      "duration": 0.096,
      "velocity": 123,
      "chip": "ym2612"
    },
    {
      "channel": 2,
      "note": 66,
      "start": 133.9176,
      "duration": 0.096,
      "velocity": 127,
      "chip": "ym2612"
    },
    {
      "channel": 3,
      "note": 56,
      "start": 133.9204,
      "duration": 0.191,
      "velocity": 114,
      "chip": "ym2612"
    },
    {
      "channel": 0,
      "note": 73,
      "start": 134.0127,
      "duration": 0.0933,
      "velocity": 123,
      "chip": "ym2612"
    },
    {
      "channel": 2,
      "note": 66,
      "start": 134.0137,
      "duration": 0.0948,
      "velocity": 123,
      "chip": "ym2612"
    },
    {
      "channel": 0,
      "note": 69,
      "start": 134.1063,
      "duration": 0.0989,
      "velocity": 123,
      "chip": "ym2612"
    },
    {
      "channel": 2,
      "note": 68,
      "start": 134.1087,
      "duration": 0.0975,
      "velocity": 123,
      "chip": "ym2612"
    },
    {
      "channel": 3,
      "note": 56,
      "start": 134.1116,
      "duration": 0.1937,
      "velocity": 114,
      "chip": "ym2612"
    },
    {
      "channel": 0,
      "note": 73,
      "start": 134.2054,
      "duration": 0.094,
      "velocity": 123,
      "chip": "ym2612"
    },
    {
      "channel": 2,
      "note": 68,
      "start": 134.2064,
      "duration": 0.0954,
      "velocity": 107,
      "chip": "ym2612"
    },
    {
      "channel": 0,
      "note": 69,
      "start": 134.2995,
      "duration": 0.0985,
      "velocity": 123,
      "chip": "ym2612"
    },
    {
      "channel": 2,
      "note": 30,
      "start": 134.302,
      "duration": 0.0331,
      "velocity": 107,
      "chip": "ym2612"
    },
    {
      "channel": 3,
      "note": 56,
      "start": 134.3056,
      "duration": 0.1946,
      "velocity": 114,
      "chip": "ym2612"
    },
    {
      "channel": 4,
      "note": 44,
      "start": 134.3064,
      "duration": 0.1946,
      "velocity": 110,
      "chip": "ym2612"
    },
    {
      "channel": 2,
      "note": 30,
      "start": 134.3353,
      "duration": 0.1615,
      "velocity": 123,
      "chip": "ym2612"
    },
    {
      "channel": 0,
      "note": 73,
      "start": 134.3987,
      "duration": 0.0954,
      "velocity": 123,
      "chip": "ym2612"
    },
    {
      "channel": 0,
      "note": 69,
      "start": 134.4944,
      "duration": 0.0961,
      "velocity": 123,
      "chip": "ym2612"
    },
    {
      "channel": 2,
      "note": 59,
      "start": 134.4969,
      "duration": 0.0946,
      "velocity": 123,
      "chip": "ym2612"
    },
    {
      "channel": 3,
      "note": 56,
      "start": 134.5003,
      "duration": 0.1925,
      "velocity": 114,
      "chip": "ym2612"
    },
    {
      "channel": 0,
      "note": 73,
      "start": 134.5907,
      "duration": 0.0961,
      "velocity": 123,
      "chip": "ym2612"
    },
    {
      "channel": 2,
      "note": 59,
      "start": 134.5917,
      "duration": 0.0976,
      "velocity": 107,
      "chip": "ym2612"
    },
    {
      "channel": 0,
      "note": 69,
      "start": 134.687,
      "duration": 0.0961,
      "velocity": 123,
      "chip": "ym2612"
    },
    {
      "channel": 2,
      "note": 27,
      "start": 134.6895,
      "duration": 0.0308,
      "velocity": 107,
      "chip": "ym2612"
    },
    {
      "channel": 3,
      "note": 56,
      "start": 134.6931,
      "duration": 0.1924,
      "velocity": 114,
      "chip": "ym2612"
    },
    {
      "channel": 4,
      "note": 44,
      "start": 134.694,
      "duration": 0.1924,
      "velocity": 110,
      "chip": "ym2612"
    },
    {
      "channel": 2,
      "note": 27,
      "start": 134.7205,
      "duration": 0.1622,
      "velocity": 127,
      "chip": "ym2612"
    },
    {
      "channel": 0,
      "note": 73,
      "start": 134.7833,
      "duration": 0.0962,
      "velocity": 123,
      "chip": "ym2612"
    },
    {
      "channel": 0,
      "note": 69,
      "start": 134.8797,
      "duration": 0.0961,
      "velocity": 123,
      "chip": "ym2612"
    },
    {
      "channel": 2,
      "note": 59,
      "start": 134.8829,
      "duration": 0.0301,
      "velocity": 127,
      "chip": "ym2612"
    },
    {
      "channel": 3,
      "note": 56,
      "start": 134.8856,
      "duration": 0.1926,
      "velocity": 114,
      "chip": "ym2612"
    },
    {
      "channel": 2,
      "note": 59,
      "start": 134.9132,
      "duration": 0.1615,
      "velocity": 123,
      "chip": "ym2612"
    },
    {
      "channel": 0,
      "note": 73,
      "start": 134.976,
      "duration": 0.0961,
      "velocity": 123,
      "chip": "ym2612"
    },
    {
      "channel": 0,
      "note": 69,
      "start": 135.0723,
      "duration": 0.0961,
      "velocity": 123,
      "chip": "ym2612"
    },
    {
      "channel": 2,
      "note": 57,
      "start": 135.0748,
      "duration": 0.031,
      "velocity": 123,
      "chip": "ym2612"
    },
    {
      "channel": 3,
      "note": 56,
      "start": 135.0784,
      "duration": 0.1929,
      "velocity": 114,
      "chip": "ym2612"
    },
    {
      "channel": 4,
      "note": 44,
      "start": 135.0793,
      "duration": 0.1928,
      "velocity": 110,
      "chip": "ym2612"
    },
    {
      "channel": 2,
      "note": 57,
      "start": 135.106,
      "duration": 0.0328,
      "velocity": 123,
      "chip": "ym2612"
    },
    {
      "channel": 2,
      "note": 57,
      "start": 135.1391,
      "duration": 0.0305,
      "velocity": 123,
      "chip": "ym2612"
    },
    {
      "channel": 0,
      "note": 73,
      "start": 135.1685,
      "duration": 0.0968,
      "velocity": 123,
      "chip": "ym2612"
    },
    {
      "channel": 2,
      "note": 57,
      "start": 135.1698,
      "duration": 0.0322,
      "velocity": 123,
      "chip": "ym2612"
    },
    {
      "channel": 2,
      "note": 57,
      "start": 135.2022,
      "duration": 0.0307,
      "velocity": 123,
      "chip": "ym2612"
    },
    {
      "channel": 2,
      "note": 57,
      "start": 135.2331,
      "duration": 0.0349,
      "velocity": 127,
      "chip": "ym2612"
    },
    {
      "channel": 0,
      "note": 69,
      "start": 135.2655,
      "duration": 0.0954,
      "velocity": 123,
      "chip": "ym2612"
    },
    {
      "channel": 2,
      "note": 64,
      "start": 135.2682,
      "duration": 0.0937,
      "velocity": 127,
      "chip": "ym2612"
    },
    {
      "channel": 3,
      "note": 56,
      "start": 135.2715,
      "duration": 0.1896,
      "velocity": 114,
      "chip": "ym2612"
    },
    {
      "channel": 4,
      "note": 44,
      "start": 135.2723,
      "duration": 0.1896,
      "velocity": 110,
      "chip": "ym2612"
    },
    {
      "channel": 0,
      "note": 73,
      "start": 135.3611,
      "duration": 0.0961,
      "velocity": 123,
      "chip": "ym2612"
    },
    {
      "channel": 2,
      "note": 64,
      "start": 135.3621,
      "duration": 0.0961,
      "velocity": 127,
      "chip": "ym2612"
    },
    {
      "channel": 0,
      "note": 69,
      "start": 135.4575,
      "duration": 0.096,
      "velocity": 123,
      "chip": "ym2612"
    },
    {
      "channel": 2,
      "note": 64,
      "start": 135.4585,
      "duration": 0.096,
      "velocity": 127,
      "chip": "ym2612"
    },
    {
      "channel": 3,
      "note": 56,
      "start": 135.4613,
      "duration": 0.1939,
      "velocity": 114,
      "chip": "ym2612"
    },
    {
      "channel": 0,
      "note": 73,
      "start": 135.5537,
      "duration": 0.0933,
      "velocity": 123,
      "chip": "ym2612"
    },
    {
      "channel": 2,
      "note": 64,
      "start": 135.5546,
      "duration": 0.0963,
      "velocity": 107,
      "chip": "ym2612"
    },
    {
      "channel": 0,
      "note": 69,
      "start": 135.6471,
      "duration": 0.099,
      "velocity": 123,
      "chip": "ym2612"
    },
    {
      "channel": 1,
      "note": 33,
      "start": 135.6489,
      "duration": 2.9564,
      "velocity": 98,
      "chip": "ym2612"
    },
    {
      "channel": 2,
      "note": 26,
      "start": 135.6512,
      "duration": 0.0322,
      "velocity": 107,
      "chip": "ym2612"
    },
    {
      "channel": 3,
      "note": 57,
      "start": 135.6554,
      "duration": 0.1924,
      "velocity": 114,
      "chip": "ym2612"
    },
    {
      "channel": 4,
      "note": 45,
      "start": 135.6566,
      "duration": 0.1928,
      "velocity": 110,
      "chip": "ym2612"
    },
    {
      "channel": 2,
      "note": 26,
      "start": 135.6836,
      "duration": 0.1614,
      "velocity": 127,
      "chip": "ym2612"
    },
    {
      "channel": 0,
      "note": 73,
      "start": 135.7464,
      "duration": 0.0961,
      "velocity": 123,
      "chip": "ym2612"
    },
    {
      "channel": 0,
      "note": 69,
      "start": 135.8427,
      "duration": 0.0961,
      "velocity": 123,
      "chip": "ym2612"
    },
    {
      "channel": 2,
      "note": 59,
      "start": 135.8452,
      "duration": 0.1923,
      "velocity": 127,
      "chip": "ym2612"
    },
    {
      "channel": 3,
      "note": 57,
      "start": 135.8487,
      "duration": 0.1917,
      "velocity": 114,
      "chip": "ym2612"
    },
    {
      "channel": 0,
      "note": 73,
      "start": 135.939,
      "duration": 0.0961,
      "velocity": 123,
      "chip": "ym2612"
    },
    {
      "channel": 5,
      "note": 33,
      "start": 135.9438,
      "duration": 2.9535,
      "velocity": 98,
      "chip": "ym2612"
    },
    {
      "channel": 0,
      "note": 69,
      "start": 136.0353,
      "duration": 0.0968,
      "velocity": 123,
      "chip": "ym2612"
    },
    {
      "channel": 2,
      "note": 59,
      "start": 136.0377,
      "duration": 0.0309,
      "velocity": 127,
      "chip": "ym2612"
    },
    {
      "channel": 3,
      "note": 57,
      "start": 136.0406,
      "duration": 0.1937,
      "velocity": 114,
      "chip": "ym2612"
    },
    {
      "channel": 2,
      "note": 59,
      "start": 136.0688,
      "duration": 0.1613,
      "velocity": 127,
      "chip": "ym2612"
    },
    {
      "channel": 0,
      "note": 73,
      "start": 136.1322,
      "duration": 0.0955,
      "velocity": 123,
      "chip": "ym2612"
    },
    {
      "channel": 0,
      "note": 69,
      "start": 136.2279,
      "duration": 0.0961,
      "velocity": 123,
      "chip": "ym2612"
    },
    {
      "channel": 2,
      "note": 64,
      "start": 136.2304,
      "duration": 0.1925,
      "velocity": 123,
      "chip": "ym2612"
    },
    {
      "channel": 3,
      "note": 57,
      "start": 136.2344,
      "duration": 0.1912,
      "velocity": 114,
      "chip": "ym2612"
    },
    {
      "channel": 4,
      "note": 45,
      "start": 136.2353,
      "duration": 0.1912,
      "velocity": 110,
      "chip": "ym2612"
    },
    {
      "channel": 0,
      "note": 73,
      "start": 136.3242,
      "duration": 0.0962,
      "velocity": 123,
      "chip": "ym2612"
    },
    {
      "channel": 0,
      "note": 69,
      "start": 136.4206,
      "duration": 0.0961,
      "velocity": 123,
      "chip": "ym2612"
    },
    {
      "channel": 2,
      "note": 57,
      "start": 136.4232,
      "duration": 0.031,
      "velocity": 123,
      "chip": "ym2612"
    },
    {
      "channel": 3,
      "note": 57,
      "start": 136.4259,
      "duration": 0.1939,
      "velocity": 114,
      "chip": "ym2612"
    },
    {
      "channel": 2,
      "note": 57,
      "start": 136.4543,
      "duration": 0.0328,
      "velocity": 123,
      "chip": "ym2612"
    },
    {
      "channel": 2,
      "note": 57,
      "start": 136.4873,
      "duration": 0.0307,
      "velocity": 123,
      "chip": "ym2612"
    },
    {
      "channel": 0,
      "note": 73,
      "start": 136.5169,
      "duration": 0.0961,
      "velocity": 123,
      "chip": "ym2612"
    },
    {
      "channel": 2,
      "note": 57,
      "start": 136.5181,
      "duration": 0.0322,
      "velocity": 123,
      "chip": "ym2612"
    },
    {
      "channel": 2,
      "note": 57,
      "start": 136.5506,
      "duration": 0.03,
      "velocity": 123,
      "chip": "ym2612"
    },
    {
      "channel": 2,
      "note": 57,
      "start": 136.5808,
      "duration": 0.0354,
      "velocity": 127,
      "chip": "ym2612"
    },
    {
      "channel": 0,
      "note": 69,
      "start": 136.6131,
      "duration": 0.099,
      "velocity": 123,
      "chip": "ym2612"
    },
    {
      "channel": 2,
      "note": 59,
      "start": 136.6165,
      "duration": 0.0332,
      "velocity": 127,
      "chip": "ym2612"
    },
    {
      "channel": 3,
      "note": 57,
      "start": 136.62,
      "duration": 0.1914,
      "velocity": 114,
      "chip": "ym2612"
    },
    {
      "channel": 4,
      "note": 45,
      "start": 136.6209,
      "duration": 0.1913,
      "velocity": 110,
      "chip": "ym2612"
    },
    {
      "channel": 2,
      "note": 59,
      "start": 136.6498,
      "duration": 0.1583,
      "velocity": 127,
      "chip": "ym2612"
    },
    {
      "channel": 0,
      "note": 73,
      "start": 136.7124,
      "duration": 0.0932,
      "velocity": 123,
      "chip": "ym2612"
    },
    {
      "channel": 0,
      "note": 69,
      "start": 136.8058,
      "duration": 0.0989,
      "velocity": 123,
      "chip": "ym2612"
    },
    {
      "channel": 2,
      "note": 66,
      "start": 136.8083,
      "duration": 0.0975,
      "velocity": 127,
      "chip": "ym2612"
    },
    {
      "channel": 3,
      "note": 57,
      "start": 136.8115,
      "duration": 0.1912,
      "velocity": 114,
      "chip": "ym2612"
    },
    {
      "channel": 4,
      "note": 45,
      "start": 136.8124,
      "duration": 0.1912,
      "velocity": 110,
      "chip": "ym2612"
    },
    {
      "channel": 0,
      "note": 73,
      "start": 136.9049,
      "duration": 0.0939,
      "velocity": 123,
      "chip": "ym2612"
    },
    {
      "channel": 2,
      "note": 66,
      "start": 136.9059,
      "duration": 0.094,
      "velocity": 127,
      "chip": "ym2612"
    },
    {
      "channel": 0,
      "note": 69,
      "start": 136.999,
      "duration": 0.0983,
      "velocity": 123,
      "chip": "ym2612"
    },
    {
      "channel": 2,
      "note": 66,
      "start": 137.0001,
      "duration": 0.0989,
      "velocity": 127,
      "chip": "ym2612"
    },
    {
      "channel": 3,
      "note": 57,
      "start": 137.0029,
      "duration": 0.1932,
      "velocity": 114,
      "chip": "ym2612"
    },
    {
      "channel": 0,
      "note": 73,
      "start": 137.0975,
      "duration": 0.0934,
      "velocity": 123,
      "chip": "ym2612"
    },
    {
      "channel": 2,
      "note": 66,
      "start": 137.0992,
      "duration": 0.0941,
      "velocity": 123,
      "chip": "ym2612"
    },
    {
      "channel": 0,
      "note": 69,
      "start": 137.1911,
      "duration": 0.0988,
      "velocity": 123,
      "chip": "ym2612"
    },
    {
      "channel": 2,
      "note": 68,
      "start": 137.1936,
      "duration": 0.0974,
      "velocity": 123,
      "chip": "ym2612"
    },
    {
      "channel": 3,
      "note": 57,
      "start": 137.1964,
      "duration": 0.1931,
      "velocity": 114,
      "chip": "ym2612"
    },
    {
      "channel": 0,
      "note": 73,
      "start": 137.2902,
      "duration": 0.0934,
      "velocity": 123,
      "chip": "ym2612"
    },
    {
      "channel": 2,
      "note": 68,
      "start": 137.2912,
      "duration": 0.0948,
      "velocity": 107,
      "chip": "ym2612"
    },
    {
      "channel": 0,
      "note": 69,
      "start": 137.3837,
      "duration": 0.0989,
      "velocity": 123,
      "chip": "ym2612"
    },
    {
      "channel": 2,
      "note": 30,
      "start": 137.3862,
      "duration": 0.0336,
      "velocity": 107,
      "chip": "ym2612"
    },
    {
      "channel": 3,
      "note": 57,
      "start": 137.3898,
      "duration": 0.1922,
      "velocity": 114,
      "chip": "ym2612"
    },
    {
      "channel": 4,
      "note": 45,
      "start": 137.3906,
      "duration": 0.1923,
      "velocity": 110,
      "chip": "ym2612"
    },
    {
      "channel": 2,
      "note": 30,
      "start": 137.42,
      "duration": 0.1586,
      "velocity": 123,
      "chip": "ym2612"
    },
    {
      "channel": 0,
      "note": 73,
      "start": 137.4828,
      "duration": 0.0933,
      "velocity": 123,
      "chip": "ym2612"
    },
    {
      "channel": 0,
      "note": 69,
      "start": 137.5763,
      "duration": 0.0989,
      "velocity": 123,
      "chip": "ym2612"
    },
    {
      "channel": 2,
      "note": 59,
      "start": 137.5788,
      "duration": 0.0974,
      "velocity": 123,
      "chip": "ym2612"
    },
    {
      "channel": 3,
      "note": 57,
      "start": 137.5822,
      "duration": 0.1925,
      "velocity": 114,
      "chip": "ym2612"
    },
    {
      "channel": 0,
      "note": 73,
      "start": 137.6754,
      "duration": 0.0932,
      "velocity": 123,
      "chip": "ym2612"
    },
    {
      "channel": 2,
      "note": 59,
      "start": 137.6763,
      "duration": 0.0948,
      "velocity": 107,
      "chip": "ym2612"
    },
    {
      "channel": 0,
      "note": 69,
      "start": 137.7689,
      "duration": 0.0988,
      "velocity": 123,
      "chip": "ym2612"
    },
    {
      "channel": 2,
      "note": 27,
      "start": 137.7714,
      "duration": 0.0336,
      "velocity": 107,
      "chip": "ym2612"
    },
    {
      "channel": 3,
      "note": 57,
      "start": 137.7749,
      "duration": 0.1923,
      "velocity": 114,
      "chip": "ym2612"
    },
    {
      "channel": 4,
      "note": 45,
      "start": 137.7758,
      "duration": 0.1923,
      "velocity": 110,
      "chip": "ym2612"
    },
    {
      "channel": 2,
      "note": 27,
      "start": 137.8052,
      "duration": 0.1586,
      "velocity": 127,
      "chip": "ym2612"
    },
    {
      "channel": 0,
      "note": 73,
      "start": 137.868,
      "duration": 0.0933,
      "velocity": 123,
      "chip": "ym2612"
    },
    {
      "channel": 0,
      "note": 69,
      "start": 137.9615,
      "duration": 0.0989,
      "velocity": 123,
      "chip": "ym2612"
    },
    {
      "channel": 2,
      "note": 59,
      "start": 137.9641,
      "duration": 0.0335,
      "velocity": 127,
      "chip": "ym2612"
    },
    {
      "channel": 3,
      "note": 57,
      "start": 137.9675,
      "duration": 0.1926,
      "velocity": 114,
      "chip": "ym2612"
    },
    {
      "channel": 2,
      "note": 59,
      "start": 137.9979,
      "duration": 0.1586,
      "velocity": 123,
      "chip": "ym2612"
    },
    {
      "channel": 0,
      "note": 73,
      "start": 138.0606,
      "duration": 0.0933,
      "velocity": 123,
      "chip": "ym2612"
    },
    {
      "channel": 0,
      "note": 69,
      "start": 138.1541,
      "duration": 0.0988,
      "velocity": 123,
      "chip": "ym2612"
    },
    {
      "channel": 2,
      "note": 57,
      "start": 138.1568,
      "duration": 0.0337,
      "velocity": 123,
      "chip": "ym2612"
    },
    {
      "channel": 3,
      "note": 57,
      "start": 138.1603,
      "duration": 0.1927,
      "velocity": 114,
      "chip": "ym2612"
    },
    {
      "channel": 4,
      "note": 45,
      "start": 138.1612,
      "duration": 0.1927,
      "velocity": 110,
      "chip": "ym2612"
    },
    {
      "channel": 2,
      "note": 57,
      "start": 138.1907,
      "duration": 0.03,
      "velocity": 123,
      "chip": "ym2612"
    },
    {
      "channel": 2,
      "note": 57,
      "start": 138.2209,
      "duration": 0.0333,
      "velocity": 123,
      "chip": "ym2612"
    },
    {
      "channel": 0,
      "note": 73,
      "start": 138.2533,
      "duration": 0.0932,
      "velocity": 123,
      "chip": "ym2612"
    },
    {
      "channel": 2,
      "note": 57,
      "start": 138.2545,
      "duration": 0.0294,
      "velocity": 123,
      "chip": "ym2612"
    },
    {
      "channel": 2,
      "note": 57,
      "start": 138.2841,
      "duration": 0.0328,
      "velocity": 123,
      "chip": "ym2612"
    },
    {
      "channel": 2,
      "note": 57,
      "start": 138.3172,
      "duration": 0.0327,
      "velocity": 127,
      "chip": "ym2612"
    },
    {
      "channel": 0,
      "note": 69,
      "start": 138.3467,
      "duration": 0.0989,
      "velocity": 123,
      "chip": "ym2612"
    },
    {
      "channel": 2,
      "note": 64,
      "start": 138.3501,
      "duration": 0.0966,
      "velocity": 127,
      "chip": "ym2612"
    },
    {
      "channel": 3,
      "note": 57,
      "start": 138.3533,
      "duration": 0.1896,
      "velocity": 114,
      "chip": "ym2612"
    },
    {
      "channel": 4,
      "note": 45,
      "start": 138.3541,
      "duration": 0.1896,
      "velocity": 110,
      "chip": "ym2612"
    },
    {
      "channel": 0,
      "note": 73,
      "start": 138.4458,
      "duration": 0.0933,
      "velocity": 123,
      "chip": "ym2612"
    },
    {
      "channel": 2,
      "note": 64,
      "start": 138.4468,
      "duration": 0.0933,
      "velocity": 127,
      "chip": "ym2612"
    },
    {
      "channel": 0,
      "note": 69,
      "start": 138.5393,
      "duration": 0.096,
      "velocity": 123,
      "chip": "ym2612"
    },
    {
      "channel": 2,
      "note": 64,
      "start": 138.5403,
      "duration": 0.096,
      "velocity": 127,
      "chip": "ym2612"
    },
    {
      "channel": 3,
      "note": 57,
      "start": 138.5432,
      "duration": 0.1958,
      "velocity": 114,
      "chip": "ym2612"
    },
    {
      "channel": 0,
      "note": 73,
      "start": 138.6355,
      "duration": 0.0968,
      "velocity": 123,
      "chip": "ym2612"
    },
    {
      "channel": 2,
      "note": 64,
      "start": 138.6365,
      "duration": 0.0987,
      "velocity": 107,
      "chip": "ym2612"
    },
    {
      "channel": 0,
      "note": 69,
      "start": 138.7325,
      "duration": 0.0983,
      "velocity": 123,
      "chip": "ym2612"
    },
    {
      "channel": 1,
      "note": 35,
      "start": 138.7332,
      "duration": 2.9539,
      "velocity": 98,
      "chip": "ym2612"
    },
    {
      "channel": 2,
      "note": 26,
      "start": 138.7354,
      "duration": 0.0326,
      "velocity": 107,
      "chip": "ym2612"
    },
    {
      "channel": 3,
      "note": 57,
      "start": 138.7391,
      "duration": 0.1905,
      "velocity": 114,
      "chip": "ym2612"
    },
    {
      "channel": 4,
      "note": 45,
      "start": 138.7401,
      "duration": 0.1905,
      "velocity": 110,
      "chip": "ym2612"
    },
    {
      "channel": 2,
      "note": 26,
      "start": 138.7683,
      "duration": 0.1586,
      "velocity": 127,
      "chip": "ym2612"
    },
    {
      "channel": 0,
      "note": 73,
      "start": 138.8311,
      "duration": 0.0933,
      "velocity": 123,
      "chip": "ym2612"
    },
    {
      "channel": 0,
      "note": 69,
      "start": 138.9246,
      "duration": 0.0989,
      "velocity": 123,
      "chip": "ym2612"
    },
    {
      "channel": 2,
      "note": 59,
      "start": 138.9271,
      "duration": 0.1923,
      "velocity": 127,
      "chip": "ym2612"
    },
    {
      "channel": 3,
      "note": 57,
      "start": 138.9299,
      "duration": 0.1923,
      "velocity": 114,
      "chip": "ym2612"
    },
    {
      "channel": 0,
      "note": 73,
      "start": 139.0237,
      "duration": 0.0933,
      "velocity": 123,
      "chip": "ym2612"
    },
    {
      "channel": 5,
      "note": 35,
      "start": 139.0279,
      "duration": 2.9513,
      "velocity": 98,
      "chip": "ym2612"
    },
    {
      "channel": 0,
      "note": 69,
      "start": 139.1171,
      "duration": 0.0989,
      "velocity": 123,
      "chip": "ym2612"
    },
    {
      "channel": 2,
      "note": 59,
      "start": 139.1196,
      "duration": 0.0337,
      "velocity": 127,
      "chip": "ym2612"
    },
    {
      "channel": 3,
      "note": 57,
      "start": 139.1225,
      "duration": 0.1936,
      "velocity": 114,
      "chip": "ym2612"
    },
    {
      "channel": 2,
      "note": 59,
      "start": 139.1534,
      "duration": 0.1585,
      "velocity": 127,
      "chip": "ym2612"
    },
    {
      "channel": 0,
      "note": 73,
      "start": 139.2163,
      "duration": 0.0932,
      "velocity": 123,
      "chip": "ym2612"
    },
    {
      "channel": 0,
      "note": 69,
      "start": 139.3098,
      "duration": 0.0988,
      "velocity": 123,
      "chip": "ym2612"
    },
    {
      "channel": 2,
      "note": 64,
      "start": 139.3122,
      "duration": 0.1926,
      "velocity": 123,
      "chip": "ym2612"
    },
    {
      "channel": 3,
      "note": 57,
      "start": 139.3163,
      "duration": 0.1912,
      "velocity": 114,
      "chip": "ym2612"
    },
    {
      "channel": 4,
      "note": 45,
      "start": 139.3172,
      "duration": 0.1912,
      "velocity": 110,
      "chip": "ym2612"
    },
    {
      "channel": 0,
      "note": 73,
      "start": 139.4089,
      "duration": 0.0933,
      "velocity": 123,
      "chip": "ym2612"
    },
    {
      "channel": 0,
      "note": 69,
      "start": 139.5024,
      "duration": 0.0989,
      "velocity": 123,
      "chip": "ym2612"
    },
    {
      "channel": 2,
      "note": 57,
      "start": 139.505,
      "duration": 0.0338,
      "velocity": 123,
      "chip": "ym2612"
    },
    {
      "channel": 3,
      "note": 57,
      "start": 139.5078,
      "duration": 0.1939,
      "velocity": 114,
      "chip": "ym2612"
    },
    {
      "channel": 2,
      "note": 57,
      "start": 139.539,
      "duration": 0.03,
      "velocity": 123,
      "chip": "ym2612"
    },
    {
      "channel": 2,
      "note": 57,
      "start": 139.5692,
      "duration": 0.0333,
      "velocity": 123,
      "chip": "ym2612"
    },
    {
      "channel": 0,
      "note": 73,
      "start": 139.6015,
      "duration": 0.0933,
      "velocity": 123,
      "chip": "ym2612"
    },
    {
      "channel": 2,
      "note": 57,
      "start": 139.6028,
      "duration": 0.0301,
      "velocity": 123,
      "chip": "ym2612"
    },
    {
      "channel": 2,
      "note": 57,
      "start": 139.6332,
      "duration": 0.0327,
      "velocity": 123,
      "chip": "ym2612"
    },
    {
      "channel": 2,
      "note": 57,
      "start": 139.6661,
      "duration": 0.0314,
      "velocity": 127,
      "chip": "ym2612"
    },
    {
      "channel": 0,
      "note": 69,
      "start": 139.6951,
      "duration": 0.0989,
      "velocity": 123,
      "chip": "ym2612"
    },
    {
      "channel": 2,
      "note": 59,
      "start": 139.6978,
      "duration": 0.0334,
      "velocity": 127,
      "chip": "ym2612"
    },
    {
      "channel": 3,
      "note": 57,
      "start": 139.7019,
      "duration": 0.1941,
      "velocity": 114,
      "chip": "ym2612"
    },
    {
      "channel": 4,
      "note": 45,
      "start": 139.7028,
      "duration": 0.1941,
      "velocity": 110,
      "chip": "ym2612"
    },
    {
      "channel": 2,
      "note": 59,
      "start": 139.7321,
      "duration": 0.1607,
      "velocity": 127,
      "chip": "ym2612"
    },
    {
      "channel": 0,
      "note": 73,
      "start": 139.7942,
      "duration": 0.0961,
      "velocity": 123,
      "chip": "ym2612"
    },
    {
      "channel": 0,
      "note": 69,
      "start": 139.8905,
      "duration": 0.0961,
      "velocity": 123,
      "chip": "ym2612"
    },
    {
      "channel": 2,
      "note": 66,
      "start": 139.893,
      "duration": 0.0946,
      "velocity": 127,
      "chip": "ym2612"
    },
    {
      "channel": 3,
      "note": 57,
      "start": 139.8963,
      "duration": 0.1905,
      "velocity": 114,
      "chip": "ym2612"
    },
    {
      "channel": 4,
      "note": 45,
      "start": 139.8971,
      "duration": 0.1905,
      "velocity": 110,
      "chip": "ym2612"
    },
    {
      "channel": 0,
      "note": 73,
      "start": 139.9868,
      "duration": 0.0961,
      "velocity": 123,
      "chip": "ym2612"
    },
    {
      "channel": 2,
      "note": 66,
      "start": 139.9878,
      "duration": 0.0961,
      "velocity": 127,
      "chip": "ym2612"
    },
    {
      "channel": 0,
      "note": 69,
      "start": 140.0832,
      "duration": 0.096,
      "velocity": 123,
      "chip": "ym2612"
    },
    {
      "channel": 2,
      "note": 66,
      "start": 140.0841,
      "duration": 0.0961,
      "velocity": 127,
      "chip": "ym2612"
    },
    {
      "channel": 3,
      "note": 57,
      "start": 140.087,
      "duration": 0.191,
      "velocity": 114,
      "chip": "ym2612"
    },
    {
      "channel": 0,
      "note": 73,
      "start": 140.1793,
      "duration": 0.0933,
      "velocity": 123,
      "chip": "ym2612"
    },
    {
      "channel": 2,
      "note": 66,
      "start": 140.1804,
      "duration": 0.0947,
      "velocity": 123,
      "chip": "ym2612"
    },
    {
      "channel": 0,
      "note": 69,
      "start": 140.2729,
      "duration": 0.0988,
      "velocity": 123,
      "chip": "ym2612"
    },
    {
      "channel": 2,
      "note": 68,
      "start": 140.2753,
      "duration": 0.0974,
      "velocity": 123,
      "chip": "ym2612"
    },
    {
      "channel": 3,
      "note": 57,
      "start": 140.2781,
      "duration": 0.1938,
      "velocity": 114,
      "chip": "ym2612"
    },
    {
      "channel": 0,
      "note": 73,
      "start": 140.372,
      "duration": 0.094,
      "velocity": 123,
      "chip": "ym2612"
    },
    {
      "channel": 2,
      "note": 68,
      "start": 140.3729,
      "duration": 0.0955,
      "velocity": 107,
      "chip": "ym2612"
    },
    {
      "channel": 0,
      "note": 69,
      "start": 140.4662,
      "duration": 0.0983,
      "velocity": 123,
      "chip": "ym2612"
    },
    {
      "channel": 2,
      "note": 30,
      "start": 140.4686,
      "duration": 0.033,
      "velocity": 107,
      "chip": "ym2612"
    },
    {
      "channel": 3,
      "note": 57,
      "start": 140.4722,
      "duration": 0.1946,
      "velocity": 114,
      "chip": "ym2612"
    },
    {
      "channel": 4,
      "note": 45,
      "start": 140.473,
      "duration": 0.1946,
      "velocity": 110,
      "chip": "ym2612"
    },
    {
      "channel": 2,
      "note": 30,
      "start": 140.5019,
      "duration": 0.1615,
      "velocity": 123,
      "chip": "ym2612"
    },
    {
      "channel": 0,
      "note": 73,
      "start": 140.5653,
      "duration": 0.0955,
      "velocity": 123,
      "chip": "ym2612"
    },
    {
      "channel": 0,
      "note": 69,
      "start": 140.661,
      "duration": 0.0961,
      "velocity": 123,
      "chip": "ym2612"
    },
    {
      "channel": 2,
      "note": 59,
      "start": 140.6635,
      "duration": 0.0945,
      "velocity": 123,
      "chip": "ym2612"
    },
    {
      "channel": 3,
      "note": 57,
      "start": 140.6669,
      "duration": 0.1925,
      "velocity": 114,
      "chip": "ym2612"
    },
    {
      "channel": 0,
      "note": 73,
      "start": 140.7573,
      "duration": 0.0961,
      "velocity": 123,
      "chip": "ym2612"
    },
    {
      "channel": 2,
      "note": 59,
      "start": 140.7582,
      "duration": 0.0977,
      "velocity": 107,
      "chip": "ym2612"
    },
    {
      "channel": 0,
      "note": 69,
      "start": 140.8536,
      "duration": 0.0961,
      "velocity": 123,
      "chip": "ym2612"
    },
    {
      "channel": 2,
      "note": 27,
      "start": 140.8561,
      "duration": 0.0308,
      "velocity": 107,
      "chip": "ym2612"
    },
    {
      "channel": 3,
      "note": 57,
      "start": 140.8596,
      "duration": 0.1924,
      "velocity": 114,
      "chip": "ym2612"
    },
    {
      "channel": 4,
      "note": 45,
      "start": 140.8605,
      "duration": 0.1924,
      "velocity": 110,
      "chip": "ym2612"
    },
    {
      "channel": 2,
      "note": 27,
      "start": 140.8871,
      "duration": 0.1621,
      "velocity": 127,
      "chip": "ym2612"
    },
    {
      "channel": 0,
      "note": 73,
      "start": 140.9499,
      "duration": 0.0961,
      "velocity": 123,
      "chip": "ym2612"
    },
    {
      "channel": 0,
      "note": 69,
      "start": 141.0463,
      "duration": 0.0961,
      "velocity": 123,
      "chip": "ym2612"
    },
    {
      "channel": 2,
      "note": 59,
      "start": 141.0494,
      "duration": 0.0301,
      "velocity": 127,
      "chip": "ym2612"
    },
    {
      "channel": 3,
      "note": 57,
      "start": 141.0522,
      "duration": 0.1926,
      "velocity": 114,
      "chip": "ym2612"
    },
    {
      "channel": 2,
      "note": 59,
      "start": 141.0798,
      "duration": 0.1614,
      "velocity": 123,
      "chip": "ym2612"
    },
    {
      "channel": 0,
      "note": 73,
      "start": 141.1425,
      "duration": 0.0961,
      "velocity": 123,
      "chip": "ym2612"
    },
    {
      "channel": 0,
      "note": 69,
      "start": 141.2388,
      "duration": 0.0961,
      "velocity": 123,
      "chip": "ym2612"
    },
    {
      "channel": 2,
      "note": 57,
      "start": 141.2414,
      "duration": 0.0309,
      "velocity": 123,
      "chip": "ym2612"
    },
    {
      "channel": 3,
      "note": 57,
      "start": 141.245,
      "duration": 0.1928,
      "velocity": 114,
      "chip": "ym2612"
    },
    {
      "channel": 4,
      "note": 45,
      "start": 141.2459,
      "duration": 0.1927,
      "velocity": 110,
      "chip": "ym2612"
    },
    {
      "channel": 2,
      "note": 57,
      "start": 141.2726,
      "duration": 0.0328,
      "velocity": 123,
      "chip": "ym2612"
    },
    {
      "channel": 2,
      "note": 57,
      "start": 141.3056,
      "duration": 0.0305,
      "velocity": 123,
      "chip": "ym2612"
    },
    {
      "channel": 0,
      "note": 73,
      "start": 141.3351,
      "duration": 0.0962,
      "velocity": 123,
      "chip": "ym2612"
    },
    {
      "channel": 2,
      "note": 57,
      "start": 141.3364,
      "duration": 0.0322,
      "velocity": 123,
      "chip": "ym2612"
    },
    {
      "channel": 2,
      "note": 57,
      "start": 141.3688,
      "duration": 0.0306,
      "velocity": 123,
      "chip": "ym2612"
    },
    {
      "channel": 2,
      "note": 57,
      "start": 141.3997,
      "duration": 0.0349,
      "velocity": 127,
      "chip": "ym2612"
    },
    {
      "channel": 0,
      "note": 69,
      "start": 141.4321,
      "duration": 0.0954,
      "velocity": 123,
      "chip": "ym2612"
    },
    {
      "channel": 2,
      "note": 64,
      "start": 141.4347,
      "duration": 0.0938,
      "velocity": 127,
      "chip": "ym2612"
    },
    {
      "channel": 3,
      "note": 57,
      "start": 141.438,
      "duration": 0.1896,
      "velocity": 114,
      "chip": "ym2612"
    },
    {
      "channel": 4,
      "note": 45,
      "start": 141.4389,
      "duration": 0.1896,
      "velocity": 110,
      "chip": "ym2612"
    },
    {
      "channel": 0,
      "note": 73,
      "start": 141.5277,
      "duration": 0.0961,
      "velocity": 123,
      "chip": "ym2612"
    },
    {
      "channel": 2,
      "note": 64,
      "start": 141.5287,
      "duration": 0.0961,
      "velocity": 127,
      "chip": "ym2612"
    },
    {
      "channel": 0,
      "note": 69,
      "start": 141.6241,
      "duration": 0.0959,
      "velocity": 123,
      "chip": "ym2612"
    },
    {
      "channel": 2,
      "note": 64,
      "start": 141.625,
      "duration": 0.096,
      "velocity": 127,
      "chip": "ym2612"
    },
    {
      "channel": 3,
      "note": 57,
      "start": 141.6279,
      "duration": 0.1931,
      "velocity": 114,
      "chip": "ym2612"
    },
    {
      "channel": 0,
      "note": 73,
      "start": 141.7202,
      "duration": 0.0933,
      "velocity": 123,
      "chip": "ym2612"
    },
    {
      "channel": 2,
      "note": 64,
      "start": 141.7212,
      "duration": 0.0961,
      "velocity": 107,
      "chip": "ym2612"
    },
    {
      "channel": 0,
      "note": 69,
      "start": 141.8137,
      "duration": 0.099,
      "velocity": 123,
      "chip": "ym2612"
    },
    {
      "channel": 1,
      "note": 36,
      "start": 141.8153,
      "duration": 2.9565,
      "velocity": 98,
      "chip": "ym2612"
    },
    {
      "channel": 2,
      "note": 26,
      "start": 141.8176,
      "duration": 0.0324,
      "velocity": 107,
      "chip": "ym2612"
    },
    {
      "channel": 3,
      "note": 57,
      "start": 141.8212,
      "duration": 0.1931,
      "velocity": 114,
      "chip": "ym2612"
    },
    {
      "channel": 4,
      "note": 45,
      "start": 141.8222,
      "duration": 0.1938,
      "velocity": 110,
      "chip": "ym2612"
    },
    {
      "channel": 2,
      "note": 26,
      "start": 141.8502,
      "duration": 0.1614,
      "velocity": 127,
      "chip": "ym2612"
    },
    {
      "channel": 0,
      "note": 73,
      "start": 141.913,
      "duration": 0.0961,
      "velocity": 123,
      "chip": "ym2612"
    },
    {
      "channel": 0,
      "note": 69,
      "start": 142.0092,
      "duration": 0.0961,
      "velocity": 123,
      "chip": "ym2612"
    },
    {
      "channel": 2,
      "note": 59,
      "start": 142.0118,
      "duration": 0.1923,
      "velocity": 127,
      "chip": "ym2612"
    },
    {
      "channel": 3,
      "note": 57,
      "start": 142.0148,
      "duration": 0.192,
      "velocity": 114,
      "chip": "ym2612"
    },
    {
      "channel": 0,
      "note": 73,
      "start": 142.1056,
      "duration": 0.0961,
      "velocity": 123,
      "chip": "ym2612"
    },
    {
      "channel": 5,
      "note": 36,
      "start": 142.11,
      "duration": 2.9539,
      "velocity": 98,
      "chip": "ym2612"
    },
    {
      "channel": 0,
      "note": 69,
      "start": 142.2019,
      "duration": 0.0964,
      "velocity": 123,
      "chip": "ym2612"
    },
    {
      "channel": 2,
      "note": 59,
      "start": 142.2043,
      "duration": 0.0308,
      "velocity": 127,
      "chip": "ym2612"
    },
    {
      "channel": 3,
      "note": 57,
      "start": 142.2071,
      "duration": 0.1936,
      "velocity": 114,
      "chip": "ym2612"
    },
    {
      "channel": 2,
      "note": 59,
      "start": 142.2353,
      "duration": 0.1614,
      "velocity": 127,
      "chip": "ym2612"
    },
    {
      "channel": 0,
      "note": 73,
      "start": 142.2988,
      "duration": 0.0955,
      "velocity": 123,
      "chip": "ym2612"
    },
    {
      "channel": 0,
      "note": 69,
      "start": 142.3945,
      "duration": 0.0961,
      "velocity": 123,
      "chip": "ym2612"
    },
    {
      "channel": 2,
      "note": 64,
      "start": 142.3969,
      "duration": 0.1926,
      "velocity": 123,
      "chip": "ym2612"
    },
    {
      "channel": 3,
      "note": 57,
      "start": 142.401,
      "duration": 0.1913,
      "velocity": 114,
      "chip": "ym2612"
    },
    {
      "channel": 4,
      "note": 45,
      "start": 142.4019,
      "duration": 0.1913,
      "velocity": 110,
      "chip": "ym2612"
    },
    {
      "channel": 0,
      "note": 73,
      "start": 142.4907,
      "duration": 0.0962,
      "velocity": 123,
      "chip": "ym2612"
    },
    {
      "channel": 0,
      "note": 69,
      "start": 142.5872,
      "duration": 0.0961,
      "velocity": 123,
      "chip": "ym2612"
    },
    {
      "channel": 2,
      "note": 57,
      "start": 142.5897,
      "duration": 0.031,
      "velocity": 123,
      "chip": "ym2612"
    },
    {
      "channel": 3,
      "note": 57,
      "start": 142.5925,
      "duration": 0.1938,
      "velocity": 114,
      "chip": "ym2612"
    },
    {
      "channel": 2,
      "note": 57,
      "start": 142.6209,
      "duration": 0.0327,
      "velocity": 123,
      "chip": "ym2612"
    },
    {
      "channel": 2,
      "note": 57,
      "start": 142.6539,
      "duration": 0.0306,
      "velocity": 123,
      "chip": "ym2612"
    },
    {
      "channel": 0,
      "note": 73,
      "start": 142.6834,
      "duration": 0.0961,
      "velocity": 123,
      "chip": "ym2612"
    },
    {
      "channel": 2,
      "note": 57,
      "start": 142.6847,
      "duration": 0.0321,
      "velocity": 123,
      "chip": "ym2612"
    },
    {
      "channel": 2,
      "note": 57,
      "start": 142.7171,
      "duration": 0.0301,
      "velocity": 123,
      "chip": "ym2612"
    },
    {
      "channel": 2,
      "note": 57,
      "start": 142.7473,
      "duration": 0.0355,
      "velocity": 127,
      "chip": "ym2612"
    },
    {
      "channel": 0,
      "note": 69,
      "start": 142.7797,
      "duration": 0.099,
      "velocity": 123,
      "chip": "ym2612"
    },
    {
      "channel": 2,
      "note": 59,
      "start": 142.783,
      "duration": 0.0333,
      "velocity": 127,
      "chip": "ym2612"
    },
    {
      "channel": 3,
      "note": 57,
      "start": 142.7865,
      "duration": 0.1913,
      "velocity": 114,
      "chip": "ym2612"
    },
    {
      "channel": 4,
      "note": 45,
      "start": 142.7874,
      "duration": 0.1914,
      "velocity": 110,
      "chip": "ym2612"
    },
    {
      "channel": 2,
      "note": 59,
      "start": 142.8165,
      "duration": 0.1582,
      "velocity": 127,
      "chip": "ym2612"
    },
    {
      "channel": 0,
      "note": 73,
      "start": 142.8789,
      "duration": 0.0933,
      "velocity": 123,
      "chip": "ym2612"
    },
    {
      "channel": 0,
      "note": 69,
      "start": 142.9724,
      "duration": 0.0989,
      "velocity": 123,
      "chip": "ym2612"
    },
    {
      "channel": 2,
      "note": 66,
      "start": 142.9749,
      "duration": 0.0974,
      "velocity": 127,
      "chip": "ym2612"
    },
    {
      "channel": 3,
      "note": 57,
      "start": 142.9781,
      "duration": 0.1911,
      "velocity": 114,
      "chip": "ym2612"
    },
    {
      "channel": 4,
      "note": 45,
      "start": 142.979,
      "duration": 0.1912,
      "velocity": 110,
      "chip": "ym2612"
    },
    {
      "channel": 0,
      "note": 73,
      "start": 143.0715,
      "duration": 0.0939,
      "velocity": 123,
      "chip": "ym2612"
    },
    {
      "channel": 2,
      "note": 66,
      "start": 143.0725,
      "duration": 0.0939,
      "velocity": 127,
      "chip": "ym2612"
    },
    {
      "channel": 0,
      "note": 69,
      "start": 143.1657,
      "duration": 0.0983,
      "velocity": 123,
      "chip": "ym2612"
    },
    {
      "channel": 2,
      "note": 66,
      "start": 143.1666,
      "duration": 0.099,
      "velocity": 127,
      "chip": "ym2612"
    },
    {
      "channel": 3,
      "note": 57,
      "start": 143.1695,
      "duration": 0.1933,
      "velocity": 114,
      "chip": "ym2612"
    },
    {
      "channel": 0,
      "note": 73,
      "start": 143.2641,
      "duration": 0.0933,
      "velocity": 123,
      "chip": "ym2612"
    },
    {
      "channel": 2,
      "note": 66,
      "start": 143.2658,
      "duration": 0.0941,
      "velocity": 123,
      "chip": "ym2612"
    },
    {
      "channel": 0,
      "note": 69,
      "start": 143.3576,
      "duration": 0.0989,
      "velocity": 123,
      "chip": "ym2612"
    },
    {
      "channel": 2,
      "note": 68,
      "start": 143.3601,
      "duration": 0.0974,
      "velocity": 123,
      "chip": "ym2612"
    },
    {
      "channel": 3,
      "note": 57,
      "start": 143.3629,
      "duration": 0.1931,
      "velocity": 114,
      "chip": "ym2612"
    },
    {
      "channel": 0,
      "note": 73,
      "start": 143.4568,
      "duration": 0.0933,
      "velocity": 123,
      "chip": "ym2612"
    },
    {
      "channel": 2,
      "note": 68,
      "start": 143.4577,
      "duration": 0.0949,
      "velocity": 107,
      "chip": "ym2612"
    },
    {
      "channel": 0,
      "note": 69,
      "start": 143.5503,
      "duration": 0.0989,
      "velocity": 123,
      "chip": "ym2612"
    },
    {
      "channel": 2,
      "note": 30,
      "start": 143.5527,
      "duration": 0.0336,
      "velocity": 107,
      "chip": "ym2612"
    },
    {
      "channel": 3,
      "note": 57,
      "start": 143.5563,
      "duration": 0.1917,
      "velocity": 114,
      "chip": "ym2612"
    },
    {
      "channel": 4,
      "note": 45,
      "start": 143.5571,
      "duration": 0.1923,
      "velocity": 110,
      "chip": "ym2612"
    },
    {
      "channel": 2,
      "note": 30,
      "start": 143.5865,
      "duration": 0.1586,
      "velocity": 123,
      "chip": "ym2612"
    },
    {
      "channel": 0,
      "note": 73,
      "start": 143.6494,
      "duration": 0.0931,
      "velocity": 123,
      "chip": "ym2612"
    },
    {
      "channel": 0,
      "note": 69,
      "start": 143.7428,
      "duration": 0.0989,
      "velocity": 123,
      "chip": "ym2612"
    },
    {
      "channel": 2,
      "note": 59,
      "start": 143.7453,
      "duration": 0.0975,
      "velocity": 123,
      "chip": "ym2612"
    },
    {
      "channel": 3,
      "note": 57,
      "start": 143.7487,
      "duration": 0.1926,
      "velocity": 114,
      "chip": "ym2612"
    },
    {
      "channel": 0,
      "note": 73,
      "start": 143.8419,
      "duration": 0.0933,
      "velocity": 123,
      "chip": "ym2612"
    },
    {
      "channel": 2,
      "note": 59,
      "start": 143.8429,
      "duration": 0.0948,
      "velocity": 107,
      "chip": "ym2612"
    },
    {
      "channel": 0,
      "note": 69,
      "start": 143.9354,
      "duration": 0.0989,
      "velocity": 123,
      "chip": "ym2612"
    },
    {
      "channel": 2,
      "note": 27,
      "start": 143.9379,
      "duration": 0.0336,
      "velocity": 107,
      "chip": "ym2612"
    },
    {
      "channel": 3,
      "note": 57,
      "start": 143.9415,
      "duration": 0.1924,
      "velocity": 114,
      "chip": "ym2612"
    },
    {
      "channel": 4,
      "note": 45,
      "start": 143.9424,
      "duration": 0.1924,
      "velocity": 110,
      "chip": "ym2612"
    },
    {
      "channel": 2,
      "note": 27,
      "start": 143.9718,
      "duration": 0.1586,
      "velocity": 127,
      "chip": "ym2612"
    },
    {
      "channel": 0,
      "note": 73,
      "start": 144.0346,
      "duration": 0.0933,
      "velocity": 123,
      "chip": "ym2612"
    },
    {
      "channel": 0,
      "note": 69,
      "start": 144.1281,
      "duration": 0.0988,
      "velocity": 123,
      "chip": "ym2612"
    },
    {
      "channel": 2,
      "note": 59,
      "start": 144.1306,
      "duration": 0.0335,
      "velocity": 127,
      "chip": "ym2612"
    },
    {
      "channel": 3,
      "note": 57,
      "start": 144.134,
      "duration": 0.1926,
      "velocity": 114,
      "chip": "ym2612"
    },
    {
      "channel": 2,
      "note": 59,
      "start": 144.1644,
      "duration": 0.1587,
      "velocity": 123,
      "chip": "ym2612"
    },
    {
      "channel": 0,
      "note": 73,
      "start": 144.2272,
      "duration": 0.0933,
      "velocity": 123,
      "chip": "ym2612"
    },
    {
      "channel": 0,
      "note": 69,
      "start": 144.3207,
      "duration": 0.0989,
      "velocity": 123,
      "chip": "ym2612"
    },
    {
      "channel": 2,
      "note": 57,
      "start": 144.3233,
      "duration": 0.0338,
      "velocity": 123,
      "chip": "ym2612"
    },
    {
      "channel": 3,
      "note": 57,
      "start": 144.3268,
      "duration": 0.1928,
      "velocity": 114,
      "chip": "ym2612"
    },
    {
      "channel": 4,
      "note": 45,
      "start": 144.3278,
      "duration": 0.1928,
      "velocity": 110,
      "chip": "ym2612"
    },
    {
      "channel": 2,
      "note": 57,
      "start": 144.3573,
      "duration": 0.03,
      "velocity": 123,
      "chip": "ym2612"
    },
    {
      "channel": 2,
      "note": 57,
      "start": 144.3875,
      "duration": 0.0333,
      "velocity": 123,
      "chip": "ym2612"
    },
    {
      "channel": 0,
      "note": 73,
      "start": 144.4198,
      "duration": 0.0933,
      "velocity": 123,
      "chip": "ym2612"
    },
    {
      "channel": 2,
      "note": 57,
      "start": 144.4211,
      "duration": 0.0294,
      "velocity": 123,
      "chip": "ym2612"
    },
    {
      "channel": 2,
      "note": 57,
      "start": 144.4507,
      "duration": 0.0328,
      "velocity": 123,
      "chip": "ym2612"
    },
    {
      "channel": 2,
      "note": 57,
      "start": 144.4837,
      "duration": 0.0327,
      "velocity": 127,
      "chip": "ym2612"
    },
    {
      "channel": 0,
      "note": 69,
      "start": 144.5132,
      "duration": 0.0989,
      "velocity": 123,
      "chip": "ym2612"
    },
    {
      "channel": 2,
      "note": 64,
      "start": 144.5167,
      "duration": 0.0965,
      "velocity": 127,
      "chip": "ym2612"
    },
    {
      "channel": 3,
      "note": 57,
      "start": 144.5199,
      "duration": 0.1896,
      "velocity": 114,
      "chip": "ym2612"
    },
    {
      "channel": 4,
      "note": 45,
      "start": 144.5207,
      "duration": 0.1896,
      "velocity": 110,
      "chip": "ym2612"
    },
    {
      "channel": 0,
      "note": 73,
      "start": 144.6124,
      "duration": 0.0933,
      "velocity": 123,
      "chip": "ym2612"
    },
    {
      "channel": 2,
      "note": 64,
      "start": 144.6134,
      "duration": 0.0932,
      "velocity": 127,
      "chip": "ym2612"
    },
    {
      "channel": 0,
      "note": 69,
      "start": 144.7059,
      "duration": 0.096,
      "velocity": 123,
      "chip": "ym2612"
    },
    {
      "channel": 2,
      "note": 64,
      "start": 144.7069,
      "duration": 0.096,
      "velocity": 127,
      "chip": "ym2612"
    },
    {
      "channel": 3,
      "note": 57,
      "start": 144.7097,
      "duration": 0.1958,
      "velocity": 114,
      "chip": "ym2612"
    },
    {
      "channel": 0,
      "note": 73,
      "start": 144.802,
      "duration": 0.0968,
      "velocity": 123,
      "chip": "ym2612"
    },
    {
      "channel": 2,
      "note": 64,
      "start": 144.8031,
      "duration": 0.0987,
      "velocity": 107,
      "chip": "ym2612"
    },
    {
      "channel": 0,
      "note": 69,
      "start": 144.8991,
      "duration": 0.0983,
      "velocity": 123,
      "chip": "ym2612"
    },
    {
      "channel": 1,
      "note": 38,
      "start": 144.8998,
      "duration": 2.9539,
      "velocity": 98,
      "chip": "ym2612"
    },
    {
      "channel": 2,
      "note": 26,
      "start": 144.902,
      "duration": 0.0326,
      "velocity": 107,
      "chip": "ym2612"
    },
    {
      "channel": 3,
      "note": 57,
      "start": 144.9057,
      "duration": 0.1906,
      "velocity": 114,
      "chip": "ym2612"
    },
    {
      "channel": 4,
      "note": 45,
      "start": 144.9066,
      "duration": 0.1905,
      "velocity": 110,
      "chip": "ym2612"
    },
    {
      "channel": 2,
      "note": 26,
      "start": 144.9348,
      "duration": 0.1587,
      "velocity": 127,
      "chip": "ym2612"
    },
    {
      "channel": 0,
      "note": 73,
      "start": 144.9976,
      "duration": 0.0934,
      "velocity": 123,
      "chip": "ym2612"
    },
    {
      "channel": 0,
      "note": 69,
      "start": 145.0912,
      "duration": 0.0988,
      "velocity": 123,
      "chip": "ym2612"
    },
    {
      "channel": 2,
      "note": 59,
      "start": 145.0937,
      "duration": 0.1922,
      "velocity": 127,
      "chip": "ym2612"
    },
    {
      "channel": 3,
      "note": 57,
      "start": 145.0965,
      "duration": 0.1922,
      "velocity": 114,
      "chip": "ym2612"
    },
    {
      "channel": 0,
      "note": 73,
      "start": 145.1902,
      "duration": 0.0933,
      "velocity": 123,
      "chip": "ym2612"
    },
    {
      "channel": 5,
      "note": 38,
      "start": 145.1945,
      "duration": 2.9513,
      "velocity": 98,
      "chip": "ym2612"
    },
    {
      "channel": 0,
      "note": 69,
      "start": 145.2837,
      "duration": 0.0989,
      "velocity": 123,
      "chip": "ym2612"
    },
    {
      "channel": 2,
      "note": 59,
      "start": 145.2861,
      "duration": 0.0337,
      "velocity": 127,
      "chip": "ym2612"
    },
    {
      "channel": 3,
      "note": 57,
      "start": 145.289,
      "duration": 0.1937,
      "velocity": 114,
      "chip": "ym2612"
    },
    {
      "channel": 2,
      "note": 59,
      "start": 145.32,
      "duration": 0.1585,
      "velocity": 127,
      "chip": "ym2612"
    },
    {
      "channel": 0,
      "note": 73,
      "start": 145.3828,
      "duration": 0.0933,
      "velocity": 123,
      "chip": "ym2612"
    },
    {
      "channel": 0,
      "note": 69,
      "start": 145.4763,
      "duration": 0.0988,
      "velocity": 123,
      "chip": "ym2612"
    },
    {
      "channel": 2,
      "note": 64,
      "start": 145.4788,
      "duration": 0.1925,
      "velocity": 123,
      "chip": "ym2612"
    },
    {
      "channel": 3,
      "note": 57,
      "start": 145.4828,
      "duration": 0.1912,
      "velocity": 114,
      "chip": "ym2612"
    },
    {
      "channel": 4,
      "note": 45,
      "start": 145.4837,
      "duration": 0.1912,
      "velocity": 110,
      "chip": "ym2612"
    },
    {
      "channel": 0,
      "note": 73,
      "start": 145.5755,
      "duration": 0.0933,
      "velocity": 123,
      "chip": "ym2612"
    },
    {
      "channel": 0,
      "note": 69,
      "start": 145.669,
      "duration": 0.0989,
      "velocity": 123,
      "chip": "ym2612"
    },
    {
      "channel": 2,
      "note": 57,
      "start": 145.6716,
      "duration": 0.0337,
      "velocity": 123,
      "chip": "ym2612"
    },
    {
      "channel": 3,
      "note": 57,
      "start": 145.6743,
      "duration": 0.1939,
      "velocity": 114,
      "chip": "ym2612"
    },
    {
      "channel": 2,
      "note": 57,
      "start": 145.7056,
      "duration": 0.03,
      "velocity": 123,
      "chip": "ym2612"
    },
    {
      "channel": 2,
      "note": 57,
      "start": 145.7358,
      "duration": 0.0333,
      "velocity": 123,
      "chip": "ym2612"
    },
    {
      "channel": 0,
      "note": 73,
      "start": 145.7681,
      "duration": 0.0933,
      "velocity": 123,
      "chip": "ym2612"
    },
    {
      "channel": 2,
      "note": 57,
      "start": 145.7693,
      "duration": 0.0301,
      "velocity": 123,
      "chip": "ym2612"
    },
    {
      "channel": 2,
      "note": 57,
      "start": 145.7997,
      "duration": 0.0328,
      "velocity": 123,
      "chip": "ym2612"
    },
    {
      "channel": 2,
      "note": 57,
      "start": 145.8327,
      "duration": 0.0314,
      "velocity": 127,
      "chip": "ym2612"
    },
    {
      "channel": 0,
      "note": 69,
      "start": 145.8616,
      "duration": 0.0989,
      "velocity": 123,
      "chip": "ym2612"
    },
    {
      "channel": 2,
      "note": 59,
      "start": 145.8643,
      "duration": 0.0335,
      "velocity": 127,
      "chip": "ym2612"
    },
    {
      "channel": 3,
      "note": 57,
      "start": 145.8685,
      "duration": 0.1941,
      "velocity": 114,
      "chip": "ym2612"
    },
    {
      "channel": 4,
      "note": 45,
      "start": 145.8693,
      "duration": 0.1941,
      "velocity": 110,
      "chip": "ym2612"
    },
    {
      "channel": 2,
      "note": 59,
      "start": 145.8986,
      "duration": 0.1607,
      "velocity": 127,
      "chip": "ym2612"
    },
    {
      "channel": 0,
      "note": 73,
      "start": 145.9608,
      "duration": 0.0961,
      "velocity": 123,
      "chip": "ym2612"
    },
    {
      "channel": 0,
      "note": 69,
      "start": 146.0571,
      "duration": 0.0961,
      "velocity": 123,
      "chip": "ym2612"
    },
    {
      "channel": 2,
      "note": 66,
      "start": 146.0595,
      "duration": 0.0946,
      "velocity": 127,
      "chip": "ym2612"
    },
    {
      "channel": 3,
      "note": 57,
      "start": 146.0628,
      "duration": 0.1905,
      "velocity": 114,
      "chip": "ym2612"
    },
    {
      "channel": 4,
      "note": 45,
      "start": 146.0637,
      "duration": 0.1905,
      "velocity": 110,
      "chip": "ym2612"
    },
    {
      "channel": 0,
      "note": 73,
      "start": 146.1534,
      "duration": 0.0961,
      "velocity": 123,
      "chip": "ym2612"
    },
    {
      "channel": 2,
      "note": 66,
      "start": 146.1544,
      "duration": 0.0961,
      "velocity": 127,
      "chip": "ym2612"
    },
    {
      "channel": 0,
      "note": 69,
      "start": 146.2497,
      "duration": 0.096,
      "velocity": 123,
      "chip": "ym2612"
    },
    {
      "channel": 2,
      "note": 66,
      "start": 146.2507,
      "duration": 0.096,
      "velocity": 127,
      "chip": "ym2612"
    },
    {
      "channel": 3,
      "note": 57,
      "start": 146.2535,
      "duration": 0.191,
      "velocity": 114,
      "chip": "ym2612"
    },
    {
      "channel": 0,
      "note": 73,
      "start": 146.3459,
      "duration": 0.0933,
      "velocity": 123,
      "chip": "ym2612"
    },
    {
      "channel": 2,
      "note": 66,
      "start": 146.3469,
      "duration": 0.0947,
      "velocity": 123,
      "chip": "ym2612"
    },
    {
      "channel": 0,
      "note": 69,
      "start": 146.4394,
      "duration": 0.0989,
      "velocity": 123,
      "chip": "ym2612"
    },
    {
      "channel": 2,
      "note": 68,
      "start": 146.4419,
      "duration": 0.0974,
      "velocity": 123,
      "chip": "ym2612"
    },
    {
      "channel": 3,
      "note": 57,
      "start": 146.4447,
      "duration": 0.1938,
      "velocity": 114,
      "chip": "ym2612"
    },
    {
      "channel": 0,
      "note": 73,
      "start": 146.5385,
      "duration": 0.094,
      "velocity": 123,
      "chip": "ym2612"
    },
    {
      "channel": 2,
      "note": 68,
      "start": 146.5395,
      "duration": 0.0955,
      "velocity": 107,
      "chip": "ym2612"
    },
    {
      "channel": 0,
      "note": 69,
      "start": 146.6327,
      "duration": 0.0983,
      "velocity": 123,
      "chip": "ym2612"
    },
    {
      "channel": 2,
      "note": 30,
      "start": 146.6352,
      "duration": 0.033,
      "velocity": 107,
      "chip": "ym2612"
    },
    {
      "channel": 3,
      "note": 57,
      "start": 146.6388,
      "duration": 0.1945,
      "velocity": 114,
      "chip": "ym2612"
    },
    {
      "channel": 4,
      "note": 45,
      "start": 146.6396,
      "duration": 0.1945,
      "velocity": 110,
      "chip": "ym2612"
    },
    {
      "channel": 2,
      "note": 30,
      "start": 146.6684,
      "duration": 0.1615,
      "velocity": 123,
      "chip": "ym2612"
    },
    {
      "channel": 0,
      "note": 73,
      "start": 146.7313,
      "duration": 0.096,
      "velocity": 123,
      "chip": "ym2612"
    },
    {
      "channel": 0,
      "note": 69,
      "start": 146.8276,
      "duration": 0.096,
      "velocity": 123,
      "chip": "ym2612"
    },
    {
      "channel": 2,
      "note": 59,
      "start": 146.83,
      "duration": 0.0945,
      "velocity": 123,
      "chip": "ym2612"
    },
    {
      "channel": 3,
      "note": 57,
      "start": 146.8335,
      "duration": 0.1925,
      "velocity": 114,
      "chip": "ym2612"
    },
    {
      "channel": 0,
      "note": 73,
      "start": 146.9238,
      "duration": 0.0961,
      "velocity": 123,
      "chip": "ym2612"
    },
    {
      "channel": 2,
      "note": 59,
      "start": 146.9248,
      "duration": 0.0976,
      "velocity": 107,
      "chip": "ym2612"
    },
    {
      "channel": 0,
      "note": 69,
      "start": 147.0201,
      "duration": 0.0961,
      "velocity": 123,
      "chip": "ym2612"
    },
    {
      "channel": 2,
      "note": 27,
      "start": 147.0227,
      "duration": 0.0307,
      "velocity": 107,
      "chip": "ym2612"
    },
    {
      "channel": 3,
      "note": 57,
      "start": 147.0262,
      "duration": 0.1923,
      "velocity": 114,
      "chip": "ym2612"
    },
    {
      "channel": 4,
      "note": 45,
      "start": 147.0271,
      "duration": 0.1923,
      "velocity": 110,
      "chip": "ym2612"
    },
    {
      "channel": 2,
      "note": 27,
      "start": 147.0536,
      "duration": 0.1621,
      "velocity": 127,
      "chip": "ym2612"
    },
    {
      "channel": 0,
      "note": 73,
      "start": 147.1164,
      "duration": 0.0961,
      "velocity": 123,
      "chip": "ym2612"
    },
    {
      "channel": 0,
      "note": 69,
      "start": 147.2128,
      "duration": 0.0961,
      "velocity": 123,
      "chip": "ym2612"
    },
    {
      "channel": 2,
      "note": 59,
      "start": 147.216,
      "duration": 0.0301,
      "velocity": 127,
      "chip": "ym2612"
    },
    {
      "channel": 3,
      "note": 57,
      "start": 147.2187,
      "duration": 0.1927,
      "velocity": 114,
      "chip": "ym2612"
    },
    {
      "channel": 2,
      "note": 59,
      "start": 147.2463,
      "duration": 0.1614,
      "velocity": 123,
      "chip": "ym2612"
    },
    {
      "channel": 0,
      "note": 73,
      "start": 147.3091,
      "duration": 0.0961,
      "velocity": 123,
      "chip": "ym2612"
    },
    {
      "channel": 0,
      "note": 69,
      "start": 147.4054,
      "duration": 0.0961,
      "velocity": 123,
      "chip": "ym2612"
    },
    {
      "channel": 2,
      "note": 57,
      "start": 147.408,
      "duration": 0.0309,
      "velocity": 123,
      "chip": "ym2612"
    },
    {
      "channel": 3,
      "note": 57,
      "start": 147.4116,
      "duration": 0.1927,
      "velocity": 114,
      "chip": "ym2612"
    },
    {
      "channel": 4,
      "note": 45,
      "start": 147.4125,
      "duration": 0.1928,
      "velocity": 110,
      "chip": "ym2612"
    },
    {
      "channel": 2,
      "note": 57,
      "start": 147.4391,
      "duration": 0.0328,
      "velocity": 123,
      "chip": "ym2612"
    },
    {
      "channel": 2,
      "note": 57,
      "start": 147.4722,
      "duration": 0.0305,
      "velocity": 123,
      "chip": "ym2612"
    },
    {
      "channel": 0,
      "note": 73,
      "start": 147.5017,
      "duration": 0.0962,
      "velocity": 123,
      "chip": "ym2612"
    },
    {
      "channel": 2,
      "note": 57,
      "start": 147.5029,
      "duration": 0.0322,
      "velocity": 123,
      "chip": "ym2612"
    },
    {
      "channel": 2,
      "note": 57,
      "start": 147.5354,
      "duration": 0.0306,
      "velocity": 123,
      "chip": "ym2612"
    },
    {
      "channel": 2,
      "note": 57,
      "start": 147.5662,
      "duration": 0.0349,
      "velocity": 127,
      "chip": "ym2612"
    },
    {
      "channel": 0,
      "note": 69,
      "start": 147.5986,
      "duration": 0.0954,
      "velocity": 123,
      "chip": "ym2612"
    },
    {
      "channel": 2,
      "note": 64,
      "start": 147.6013,
      "duration": 0.0937,
      "velocity": 127,
      "chip": "ym2612"
    },
    {
      "channel": 3,
      "note": 57,
      "start": 147.6046,
      "duration": 0.1896,
      "velocity": 114,
      "chip": "ym2612"
    },
    {
      "channel": 4,
      "note": 45,
      "start": 147.6054,
      "duration": 0.1896,
      "velocity": 110,
      "chip": "ym2612"
    },
    {
      "channel": 0,
      "note": 73,
      "start": 147.6942,
      "duration": 0.0961,
      "velocity": 123,
      "chip": "ym2612"
    },
    {
      "channel": 2,
      "note": 64,
      "start": 147.6952,
      "duration": 0.0961,
      "velocity": 127,
      "chip": "ym2612"
    },
    {
      "channel": 0,
      "note": 69,
      "start": 147.7906,
      "duration": 0.096,
      "velocity": 123,
      "chip": "ym2612"
    },
    {
      "channel": 2,
      "note": 64,
      "start": 147.7915,
      "duration": 0.096,
      "velocity": 127,
      "chip": "ym2612"
    },
    {
      "channel": 3,
      "note": 57,
      "start": 147.7944,
      "duration": 0.1938,
      "velocity": 114,
      "chip": "ym2612"
    },
    {
      "channel": 0,
      "note": 73,
      "start": 147.8868,
      "duration": 0.0933,
      "velocity": 123,
      "chip": "ym2612"
    },
    {
      "channel": 2,
      "note": 64,
      "start": 147.8878,
      "duration": 0.0962,
      "velocity": 107,
      "chip": "ym2612"
    },
    {
      "channel": 0,
      "note": 69,
      "start": 147.9803,
      "duration": 0.099,
      "velocity": 123,
      "chip": "ym2612"
    },
    {
      "channel": 1,
      "note": 34,
      "start": 147.982,
      "duration": 2.9563,
      "velocity": 98,
      "chip": "ym2612"
    },
    {
      "channel": 2,
      "note": 26,
      "start": 147.9842,
      "duration": 0.0323,
      "velocity": 107,
      "chip": "ym2612"
    },
    {
      "channel": 3,
      "note": 58,
      "start": 147.9885,
      "duration": 0.1924,
      "velocity": 114,
      "chip": "ym2612"
    },
    {
      "channel": 4,
      "note": 46,
      "start": 147.9896,
      "duration": 0.1928,
      "velocity": 110,
      "chip": "ym2612"
    },
    {
      "channel": 2,
      "note": 26,
      "start": 148.0167,
      "duration": 0.1614,
      "velocity": 127,
      "chip": "ym2612"
    },
    {
      "channel": 0,
      "note": 73,
      "start": 148.0795,
      "duration": 0.0961,
      "velocity": 123,
      "chip": "ym2612"
    },
    {
      "channel": 0,
      "note": 69,
      "start": 148.1758,
      "duration": 0.0961,
      "velocity": 123,
      "chip": "ym2612"
    },
    {
      "channel": 2,
      "note": 59,
      "start": 148.1783,
      "duration": 0.1924,
      "velocity": 127,
      "chip": "ym2612"
    },
    {
      "channel": 3,
      "note": 58,
      "start": 148.1812,
      "duration": 0.1923,
      "velocity": 114,
      "chip": "ym2612"
    },
    {
      "channel": 0,
      "note": 73,
      "start": 148.2721,
      "duration": 0.0961,
      "velocity": 123,
      "chip": "ym2612"
    },
    {
      "channel": 5,
      "note": 34,
      "start": 148.2769,
      "duration": 2.9535,
      "velocity": 98,
      "chip": "ym2612"
    },
    {
      "channel": 0,
      "note": 69,
      "start": 148.3684,
      "duration": 0.0962,
      "velocity": 123,
      "chip": "ym2612"
    },
    {
      "channel": 2,
      "note": 59,
      "start": 148.3709,
      "duration": 0.0308,
      "velocity": 127,
      "chip": "ym2612"
    },
    {
      "channel": 3,
      "note": 58,
      "start": 148.3737,
      "duration": 0.1936,
      "velocity": 114,
      "chip": "ym2612"
    },
    {
      "channel": 2,
      "note": 59,
      "start": 148.4019,
      "duration": 0.1613,
      "velocity": 127,
      "chip": "ym2612"
    },
    {
      "channel": 0,
      "note": 73,
      "start": 148.4654,
      "duration": 0.0955,
      "velocity": 123,
      "chip": "ym2612"
    },
    {
      "channel": 0,
      "note": 69,
      "start": 148.561,
      "duration": 0.0961,
      "velocity": 123,
      "chip": "ym2612"
    },
    {
      "channel": 2,
      "note": 64,
      "start": 148.5634,
      "duration": 0.1926,
      "velocity": 123,
      "chip": "ym2612"
    },
    {
      "channel": 3,
      "note": 58,
      "start": 148.5675,
      "duration": 0.1913,
      "velocity": 114,
      "chip": "ym2612"
    },
    {
      "channel": 4,
      "note": 46,
      "start": 148.5684,
      "duration": 0.1913,
      "velocity": 110,
      "chip": "ym2612"
    },
    {
      "channel": 0,
      "note": 73,
      "start": 148.6573,
      "duration": 0.0961,
      "velocity": 123,
      "chip": "ym2612"
    },
    {
      "channel": 0,
      "note": 69,
      "start": 148.7537,
      "duration": 0.0961,
      "velocity": 123,
      "chip": "ym2612"
    },
    {
      "channel": 2,
      "note": 57,
      "start": 148.7562,
      "duration": 0.031,
      "velocity": 123,
      "chip": "ym2612"
    },
    {
      "channel": 3,
      "note": 58,
      "start": 148.759,
      "duration": 0.1939,
      "velocity": 114,
      "chip": "ym2612"
    },
    {
      "channel": 2,
      "note": 57,
      "start": 148.7875,
      "duration": 0.0327,
      "velocity": 123,
      "chip": "ym2612"
    },
    {
      "channel": 2,
      "note": 57,
      "start": 148.8204,
      "duration": 0.0306,
      "velocity": 123,
      "chip": "ym2612"
    },
    {
      "channel": 0,
      "note": 73,
      "start": 148.85,
      "duration": 0.0961,
      "velocity": 123,
      "chip": "ym2612"
    },
    {
      "channel": 2,
      "note": 57,
      "start": 148.8513,
      "duration": 0.0321,
      "velocity": 123,
      "chip": "ym2612"
    },
    {
      "channel": 2,
      "note": 57,
      "start": 148.8837,
      "duration": 0.03,
      "velocity": 123,
      "chip": "ym2612"
    },
    {
      "channel": 2,
      "note": 57,
      "start": 148.9139,
      "duration": 0.0354,
      "velocity": 127,
      "chip": "ym2612"
    },
    {
      "channel": 0,
      "note": 69,
      "start": 148.9463,
      "duration": 0.099,
      "velocity": 123,
      "chip": "ym2612"
    },
    {
      "channel": 2,
      "note": 59,
      "start": 148.9496,
      "duration": 0.0333,
      "velocity": 127,
      "chip": "ym2612"
    },
    {
      "channel": 3,
      "note": 58,
      "start": 148.9531,
      "duration": 0.1913,
      "velocity": 114,
      "chip": "ym2612"
    },
    {
      "channel": 4,
      "note": 46,
      "start": 148.954,
      "duration": 0.1913,
      "velocity": 110,
      "chip": "ym2612"
    },
    {
      "channel": 2,
      "note": 59,
      "start": 148.9831,
      "duration": 0.1581,
      "velocity": 127,
      "chip": "ym2612"
    },
    {
      "channel": 0,
      "note": 73,
      "start": 149.0455,
      "duration": 0.0933,
      "velocity": 123,
      "chip": "ym2612"
    },
    {
      "channel": 0,
      "note": 69,
      "start": 149.1389,
      "duration": 0.0989,
      "velocity": 123,
      "chip": "ym2612"
    },
    {
      "channel": 2,
      "note": 66,
      "start": 149.1414,
      "duration": 0.0974,
      "velocity": 127,
      "chip": "ym2612"
    },
    {
      "channel": 3,
      "note": 58,
      "start": 149.1447,
      "duration": 0.1912,
      "velocity": 114,
      "chip": "ym2612"
    },
    {
      "channel": 4,
      "note": 46,
      "start": 149.1456,
      "duration": 0.1912,
      "velocity": 110,
      "chip": "ym2612"
    },
    {
      "channel": 0,
      "note": 73,
      "start": 149.238,
      "duration": 0.094,
      "velocity": 123,
      "chip": "ym2612"
    },
    {
      "channel": 2,
      "note": 66,
      "start": 149.2391,
      "duration": 0.0939,
      "velocity": 127,
      "chip": "ym2612"
    },
    {
      "channel": 0,
      "note": 69,
      "start": 149.3322,
      "duration": 0.0983,
      "velocity": 123,
      "chip": "ym2612"
    },
    {
      "channel": 2,
      "note": 66,
      "start": 149.3332,
      "duration": 0.0989,
      "velocity": 127,
      "chip": "ym2612"
    },
    {
      "channel": 3,
      "note": 58,
      "start": 149.336,
      "duration": 0.1933,
      "velocity": 114,
      "chip": "ym2612"
    },
    {
      "channel": 0,
      "note": 73,
      "start": 149.4307,
      "duration": 0.0933,
      "velocity": 123,
      "chip": "ym2612"
    },
    {
      "channel": 2,
      "note": 66,
      "start": 149.4324,
      "duration": 0.094,
      "velocity": 123,
      "chip": "ym2612"
    },
    {
      "channel": 0,
      "note": 69,
      "start": 149.5242,
      "duration": 0.0988,
      "velocity": 123,
      "chip": "ym2612"
    },
    {
      "channel": 2,
      "note": 68,
      "start": 149.5267,
      "duration": 0.0974,
      "velocity": 123,
      "chip": "ym2612"
    },
    {
      "channel": 3,
      "note": 58,
      "start": 149.5295,
      "duration": 0.1932,
      "velocity": 114,
      "chip": "ym2612"
    },
    {
      "channel": 0,
      "note": 73,
      "start": 149.6233,
      "duration": 0.0933,
      "velocity": 123,
      "chip": "ym2612"
    },
    {
      "channel": 2,
      "note": 68,
      "start": 149.6242,
      "duration": 0.0949,
      "velocity": 107,
      "chip": "ym2612"
    },
    {
      "channel": 0,
      "note": 69,
      "start": 149.7169,
      "duration": 0.099,
      "velocity": 123,
      "chip": "ym2612"
    },
    {
      "channel": 2,
      "note": 30,
      "start": 149.7193,
      "duration": 0.0335,
      "velocity": 107,
      "chip": "ym2612"
    },
    {
      "channel": 3,
      "note": 58,
      "start": 149.7229,
      "duration": 0.1917,
      "velocity": 114,
      "chip": "ym2612"
    },
    {
      "channel": 4,
      "note": 46,
      "start": 149.7237,
      "duration": 0.1923,
      "velocity": 110,
      "chip": "ym2612"
    },
    {
      "channel": 2,
      "note": 30,
      "start": 149.7531,
      "duration": 0.1586,
      "velocity": 123,
      "chip": "ym2612"
    },
    {
      "channel": 0,
      "note": 73,
      "start": 149.8161,
      "duration": 0.0931,
      "velocity": 123,
      "chip": "ym2612"
    },
    {
      "channel": 0,
      "note": 69,
      "start": 149.9094,
      "duration": 0.0989,
      "velocity": 123,
      "chip": "ym2612"
    },
    {
      "channel": 2,
      "note": 59,
      "start": 149.9119,
      "duration": 0.0974,
      "velocity": 123,
      "chip": "ym2612"
    },
    {
      "channel": 3,
      "note": 58,
      "start": 149.9154,
      "duration": 0.1925,
      "velocity": 114,
      "chip": "ym2612"
    },
    {
      "channel": 0,
      "note": 73,
      "start": 150.0085,
      "duration": 0.0933,
      "velocity": 123,
      "chip": "ym2612"
    },
    {
      "channel": 2,
      "note": 59,
      "start": 150.0095,
      "duration": 0.0948,
      "velocity": 107,
      "chip": "ym2612"
    },
    {
      "channel": 0,
      "note": 69,
      "start": 150.102,
      "duration": 0.0989,
      "velocity": 123,
      "chip": "ym2612"
    },
    {
      "channel": 2,
      "note": 27,
      "start": 150.1045,
      "duration": 0.0337,
      "velocity": 107,
      "chip": "ym2612"
    },
    {
      "channel": 3,
      "note": 58,
      "start": 150.108,
      "duration": 0.1924,
      "velocity": 114,
      "chip": "ym2612"
    },
    {
      "channel": 4,
      "note": 46,
      "start": 150.1089,
      "duration": 0.1924,
      "velocity": 110,
      "chip": "ym2612"
    },
    {
      "channel": 2,
      "note": 27,
      "start": 150.1384,
      "duration": 0.1586,
      "velocity": 127,
      "chip": "ym2612"
    },
    {
      "channel": 0,
      "note": 73,
      "start": 150.2012,
      "duration": 0.0933,
      "velocity": 123,
      "chip": "ym2612"
    },
    {
      "channel": 0,
      "note": 69,
      "start": 150.2946,
      "duration": 0.0989,
      "velocity": 123,
      "chip": "ym2612"
    },
    {
      "channel": 2,
      "note": 59,
      "start": 150.2971,
      "duration": 0.0336,
      "velocity": 127,
      "chip": "ym2612"
    },
    {
      "channel": 3,
      "note": 58,
      "start": 150.3006,
      "duration": 0.1926,
      "velocity": 114,
      "chip": "ym2612"
    },
    {
      "channel": 2,
      "note": 59,
      "start": 150.3309,
      "duration": 0.1587,
      "velocity": 123,
      "chip": "ym2612"
    },
    {
      "channel": 0,
      "note": 73,
      "start": 150.3937,
      "duration": 0.0934,
      "velocity": 123,
      "chip": "ym2612"
    },
    {
      "channel": 0,
      "note": 69,
      "start": 150.4873,
      "duration": 0.0989,
      "velocity": 123,
      "chip": "ym2612"
    },
    {
      "channel": 2,
      "note": 57,
      "start": 150.4899,
      "duration": 0.0337,
      "velocity": 123,
      "chip": "ym2612"
    },
    {
      "channel": 3,
      "note": 58,
      "start": 150.4935,
      "duration": 0.1927,
      "velocity": 114,
      "chip": "ym2612"
    },
    {
      "channel": 4,
      "note": 46,
      "start": 150.4944,
      "duration": 0.1927,
      "velocity": 110,
      "chip": "ym2612"
    },
    {
      "channel": 2,
      "note": 57,
      "start": 150.5238,
      "duration": 0.03,
      "velocity": 123,
      "chip": "ym2612"
    },
    {
      "channel": 2,
      "note": 57,
      "start": 150.554,
      "duration": 0.0334,
      "velocity": 123,
      "chip": "ym2612"
    },
    {
      "channel": 0,
      "note": 73,
      "start": 150.5863,
      "duration": 0.0933,
      "velocity": 123,
      "chip": "ym2612"
    },
    {
      "channel": 2,
      "note": 57,
      "start": 150.5876,
      "duration": 0.0294,
      "velocity": 123,
      "chip": "ym2612"
    },
    {
      "channel": 2,
      "note": 57,
      "start": 150.6173,
      "duration": 0.0328,
      "velocity": 123,
      "chip": "ym2612"
    },
    {
      "channel": 2,
      "note": 57,
      "start": 150.6503,
      "duration": 0.0327,
      "velocity": 127,
      "chip": "ym2612"
    },
    {
      "channel": 0,
      "note": 69,
      "start": 150.6798,
      "duration": 0.0989,
      "velocity": 123,
      "chip": "ym2612"
    },
    {
      "channel": 2,
      "note": 64,
      "start": 150.6832,
      "duration": 0.0965,
      "velocity": 127,
      "chip": "ym2612"
    },
    {
      "channel": 3,
      "note": 58,
      "start": 150.6864,
      "duration": 0.1896,
      "velocity": 114,
      "chip": "ym2612"
    },
    {
      "channel": 4,
      "note": 46,
      "start": 150.6873,
      "duration": 0.1896,
      "velocity": 110,
      "chip": "ym2612"
    },
    {
      "channel": 0,
      "note": 73,
      "start": 150.779,
      "duration": 0.0933,
      "velocity": 123,
      "chip": "ym2612"
    },
    {
      "channel": 2,
      "note": 64,
      "start": 150.7799,
      "duration": 0.0933,
      "velocity": 127,
      "chip": "ym2612"
    },
    {
      "channel": 0,
      "note": 69,
      "start": 150.8725,
      "duration": 0.0959,
      "velocity": 123,
      "chip": "ym2612"
    },
    {
      "channel": 2,
      "note": 64,
      "start": 150.8734,
      "duration": 0.096,
      "velocity": 127,
      "chip": "ym2612"
    },
    {
      "channel": 3,
      "note": 58,
      "start": 150.8763,
      "duration": 0.1957,
      "velocity": 114,
      "chip": "ym2612"
    },
    {
      "channel": 0,
      "note": 73,
      "start": 150.9686,
      "duration": 0.0968,
      "velocity": 123,
      "chip": "ym2612"
    },
    {
      "channel": 2,
      "note": 64,
      "start": 150.9696,
      "duration": 0.0988,
      "velocity": 107,
      "chip": "ym2612"
    },
    {
      "channel": 0,
      "note": 69,
      "start": 151.0657,
      "duration": 0.0983,
      "velocity": 123,
      "chip": "ym2612"
    },
    {
      "channel": 1,
      "note": 36,
      "start": 151.0663,
      "duration": 2.9539,
      "velocity": 98,
      "chip": "ym2612"
    },
    {
      "channel": 2,
      "note": 26,
      "start": 151.0686,
      "duration": 0.0326,
      "velocity": 107,
      "chip": "ym2612"
    },
    {
      "channel": 3,
      "note": 58,
      "start": 151.0723,
      "duration": 0.1905,
      "velocity": 114,
      "chip": "ym2612"
    },
    {
      "channel": 4,
      "note": 46,
      "start": 151.0732,
      "duration": 0.1905,
      "velocity": 110,
      "chip": "ym2612"
    },
    {
      "channel": 2,
      "note": 26,
      "start": 151.1013,
      "duration": 0.1587,
      "velocity": 127,
      "chip": "ym2612"
    },
    {
      "channel": 0,
      "note": 73,
      "start": 151.1642,
      "duration": 0.0933,
      "velocity": 123,
      "chip": "ym2612"
    },
    {
      "channel": 0,
      "note": 69,
      "start": 151.2577,
      "duration": 0.0988,
      "velocity": 123,
      "chip": "ym2612"
    },
    {
      "channel": 2,
      "note": 59,
      "start": 151.2602,
      "duration": 0.1922,
      "velocity": 127,
      "chip": "ym2612"
    },
    {
      "channel": 3,
      "note": 58,
      "start": 151.2631,
      "duration": 0.1923,
      "velocity": 114,
      "chip": "ym2612"
    },
    {
      "channel": 0,
      "note": 73,
      "start": 151.3568,
      "duration": 0.0932,
      "velocity": 123,
      "chip": "ym2612"
    },
    {
      "channel": 5,
      "note": 36,
      "start": 151.3611,
      "duration": 2.9513,
      "velocity": 98,
      "chip": "ym2612"
    },
    {
      "channel": 0,
      "note": 69,
      "start": 151.4503,
      "duration": 0.0989,
      "velocity": 123,
      "chip": "ym2612"
    },
    {
      "channel": 2,
      "note": 59,
      "start": 151.4527,
      "duration": 0.0337,
      "velocity": 127,
      "chip": "ym2612"
    },
    {
      "channel": 3,
      "note": 58,
      "start": 151.4556,
      "duration": 0.1936,
      "velocity": 114,
      "chip": "ym2612"
    },
    {
      "channel": 2,
      "note": 59,
      "start": 151.4866,
      "duration": 0.1585,
      "velocity": 127,
      "chip": "ym2612"
    },
    {
      "channel": 0,
      "note": 73,
      "start": 151.5494,
      "duration": 0.0933,
      "velocity": 123,
      "chip": "ym2612"
    },
    {
      "channel": 0,
      "note": 69,
      "start": 151.6429,
      "duration": 0.0989,
      "velocity": 123,
      "chip": "ym2612"
    },
    {
      "channel": 2,
      "note": 64,
      "start": 151.6453,
      "duration": 0.1926,
      "velocity": 123,
      "chip": "ym2612"
    },
    {
      "channel": 3,
      "note": 58,
      "start": 151.6494,
      "duration": 0.1912,
      "velocity": 114,
      "chip": "ym2612"
    },
    {
      "channel": 4,
      "note": 46,
      "start": 151.6503,
      "duration": 0.1912,
      "velocity": 110,
      "chip": "ym2612"
    },
    {
      "channel": 0,
      "note": 73,
      "start": 151.742,
      "duration": 0.0933,
      "velocity": 123,
      "chip": "ym2612"
    },
    {
      "channel": 0,
      "note": 69,
      "start": 151.8355,
      "duration": 0.0989,
      "velocity": 123,
      "chip": "ym2612"
    },
    {
      "channel": 2,
      "note": 57,
      "start": 151.8381,
      "duration": 0.0338,
      "velocity": 123,
      "chip": "ym2612"
    },
    {
      "channel": 3,
      "note": 58,
      "start": 151.8409,
      "duration": 0.1939,
      "velocity": 114,
      "chip": "ym2612"
    },
    {
      "channel": 2,
      "note": 57,
      "start": 151.8722,
      "duration": 0.03,
      "velocity": 123,
      "chip": "ym2612"
    },
    {
      "channel": 2,
      "note": 57,
      "start": 151.9024,
      "duration": 0.0333,
      "velocity": 123,
      "chip": "ym2612"
    },
    {
      "channel": 0,
      "note": 73,
      "start": 151.9346,
      "duration": 0.0933,
      "velocity": 123,
      "chip": "ym2612"
    },
    {
      "channel": 2,
      "note": 57,
      "start": 151.9359,
      "duration": 0.0301,
      "velocity": 123,
      "chip": "ym2612"
    },
    {
      "channel": 2,
      "note": 57,
      "start": 151.9662,
      "duration": 0.0328,
      "velocity": 123,
      "chip": "ym2612"
    },
    {
      "channel": 2,
      "note": 57,
      "start": 151.9992,
      "duration": 0.0314,
      "velocity": 127,
      "chip": "ym2612"
    },
    {
      "channel": 0,
      "note": 69,
      "start": 152.0281,
      "duration": 0.099,
      "velocity": 123,
      "chip": "ym2612"
    },
    {
      "channel": 2,
      "note": 59,
      "start": 152.0309,
      "duration": 0.0335,
      "velocity": 127,
      "chip": "ym2612"
    },
    {
      "channel": 3,
      "note": 58,
      "start": 152.035,
      "duration": 0.1941,
      "velocity": 114,
      "chip": "ym2612"
    },
    {
      "channel": 4,
      "note": 46,
      "start": 152.0359,
      "duration": 0.1941,
      "velocity": 110,
      "chip": "ym2612"
    },
    {
      "channel": 2,
      "note": 59,
      "start": 152.0646,
      "duration": 0.1613,
      "velocity": 127,
      "chip": "ym2612"
    },
    {
      "channel": 0,
      "note": 73,
      "start": 152.1273,
      "duration": 0.0961,
      "velocity": 123,
      "chip": "ym2612"
    },
    {
      "channel": 0,
      "note": 69,
      "start": 152.2237,
      "duration": 0.0961,
      "velocity": 123,
      "chip": "ym2612"
    },
    {
      "channel": 2,
      "note": 66,
      "start": 152.2261,
      "duration": 0.0945,
      "velocity": 127,
      "chip": "ym2612"
    },
    {
      "channel": 3,
      "note": 58,
      "start": 152.2294,
      "duration": 0.1905,
      "velocity": 114,
      "chip": "ym2612"
    },
    {
      "channel": 4,
      "note": 46,
      "start": 152.2302,
      "duration": 0.1905,
      "velocity": 110,
      "chip": "ym2612"
    },
    {
      "channel": 0,
      "note": 73,
      "start": 152.3199,
      "duration": 0.0961,
      "velocity": 123,
      "chip": "ym2612"
    },
    {
      "channel": 2,
      "note": 66,
      "start": 152.3209,
      "duration": 0.0961,
      "velocity": 127,
      "chip": "ym2612"
    },
    {
      "channel": 0,
      "note": 69,
      "start": 152.4162,
      "duration": 0.096,
      "velocity": 123,
      "chip": "ym2612"
    },
    {
      "channel": 2,
      "note": 66,
      "start": 152.4173,
      "duration": 0.096,
      "velocity": 127,
      "chip": "ym2612"
    },
    {
      "channel": 3,
      "note": 58,
      "start": 152.42,
      "duration": 0.191,
      "velocity": 114,
      "chip": "ym2612"
    },
    {
      "channel": 0,
      "note": 73,
      "start": 152.5125,
      "duration": 0.0933,
      "velocity": 123,
      "chip": "ym2612"
    },
    {
      "channel": 2,
      "note": 66,
      "start": 152.5134,
      "duration": 0.0948,
      "velocity": 123,
      "chip": "ym2612"
    },
    {
      "channel": 0,
      "note": 69,
      "start": 152.606,
      "duration": 0.0989,
      "velocity": 123,
      "chip": "ym2612"
    },
    {
      "channel": 2,
      "note": 68,
      "start": 152.6085,
      "duration": 0.0974,
      "velocity": 123,
      "chip": "ym2612"
    },
    {
      "channel": 3,
      "note": 58,
      "start": 152.6113,
      "duration": 0.1938,
      "velocity": 114,
      "chip": "ym2612"
    },
    {
      "channel": 0,
      "note": 73,
      "start": 152.705,
      "duration": 0.094,
      "velocity": 123,
      "chip": "ym2612"
    },
    {
      "channel": 2,
      "note": 68,
      "start": 152.7061,
      "duration": 0.0955,
      "velocity": 107,
      "chip": "ym2612"
    },
    {
      "channel": 0,
      "note": 69,
      "start": 152.7993,
      "duration": 0.0983,
      "velocity": 123,
      "chip": "ym2612"
    },
    {
      "channel": 2,
      "note": 30,
      "start": 152.8017,
      "duration": 0.033,
      "velocity": 107,
      "chip": "ym2612"
    },
    {
      "channel": 3,
      "note": 58,
      "start": 152.8053,
      "duration": 0.1945,
      "velocity": 114,
      "chip": "ym2612"
    },
    {
      "channel": 4,
      "note": 46,
      "start": 152.8062,
      "duration": 0.1945,
      "velocity": 110,
      "chip": "ym2612"
    },
    {
      "channel": 2,
      "note": 30,
      "start": 152.8349,
      "duration": 0.1615,
      "velocity": 123,
      "chip": "ym2612"
    },
    {
      "channel": 0,
      "note": 73,
      "start": 152.8978,
      "duration": 0.096,
      "velocity": 123,
      "chip": "ym2612"
    },
    {
      "channel": 0,
      "note": 69,
      "start": 152.9941,
      "duration": 0.0961,
      "velocity": 123,
      "chip": "ym2612"
    },
    {
      "channel": 2,
      "note": 59,
      "start": 152.9966,
      "duration": 0.0946,
      "velocity": 123,
      "chip": "ym2612"
    },
    {
      "channel": 3,
      "note": 58,
      "start": 153.0,
      "duration": 0.1926,
      "velocity": 114,
      "chip": "ym2612"
    },
    {
      "channel": 0,
      "note": 73,
      "start": 153.0903,
      "duration": 0.0962,
      "velocity": 123,
      "chip": "ym2612"
    },
    {
      "channel": 2,
      "note": 59,
      "start": 153.0914,
      "duration": 0.0976,
      "velocity": 107,
      "chip": "ym2612"
    },
    {
      "channel": 0,
      "note": 69,
      "start": 153.1867,
      "duration": 0.0961,
      "velocity": 123,
      "chip": "ym2612"
    },
    {
      "channel": 2,
      "note": 27,
      "start": 153.1892,
      "duration": 0.0308,
      "velocity": 107,
      "chip": "ym2612"
    },
    {
      "channel": 3,
      "note": 58,
      "start": 153.1928,
      "duration": 0.1924,
      "velocity": 114,
      "chip": "ym2612"
    },
    {
      "channel": 4,
      "note": 46,
      "start": 153.1937,
      "duration": 0.1924,
      "velocity": 110,
      "chip": "ym2612"
    },
    {
      "channel": 2,
      "note": 27,
      "start": 153.2202,
      "duration": 0.1622,
      "velocity": 127,
      "chip": "ym2612"
    },
    {
      "channel": 0,
      "note": 73,
      "start": 153.283,
      "duration": 0.0962,
      "velocity": 123,
      "chip": "ym2612"
    },
    {
      "channel": 0,
      "note": 69,
      "start": 153.3793,
      "duration": 0.0961,
      "velocity": 123,
      "chip": "ym2612"
    },
    {
      "channel": 2,
      "note": 59,
      "start": 153.3826,
      "duration": 0.0301,
      "velocity": 127,
      "chip": "ym2612"
    },
    {
      "channel": 3,
      "note": 58,
      "start": 153.3853,
      "duration": 0.1926,
      "velocity": 114,
      "chip": "ym2612"
    },
    {
      "channel": 2,
      "note": 59,
      "start": 153.4129,
      "duration": 0.1615,
      "velocity": 123,
      "chip": "ym2612"
    },
    {
      "channel": 0,
      "note": 73,
      "start": 153.4756,
      "duration": 0.0961,
      "velocity": 123,
      "chip": "ym2612"
    },
    {
      "channel": 0,
      "note": 69,
      "start": 153.5719,
      "duration": 0.0961,
      "velocity": 123,
      "chip": "ym2612"
    },
    {
      "channel": 2,
      "note": 57,
      "start": 153.5745,
      "duration": 0.031,
      "velocity": 123,
      "chip": "ym2612"
    },
    {
      "channel": 3,
      "note": 58,
      "start": 153.5781,
      "duration": 0.1928,
      "velocity": 114,
      "chip": "ym2612"
    },
    {
      "channel": 4,
      "note": 46,
      "start": 153.579,
      "duration": 0.1928,
      "velocity": 110,
      "chip": "ym2612"
    },
    {
      "channel": 2,
      "note": 57,
      "start": 153.6057,
      "duration": 0.0328,
      "velocity": 123,
      "chip": "ym2612"
    },
    {
      "channel": 2,
      "note": 57,
      "start": 153.6388,
      "duration": 0.0305,
      "velocity": 123,
      "chip": "ym2612"
    },
    {
      "channel": 0,
      "note": 73,
      "start": 153.6682,
      "duration": 0.0961,
      "velocity": 123,
      "chip": "ym2612"
    },
    {
      "channel": 2,
      "note": 57,
      "start": 153.6695,
      "duration": 0.0322,
      "velocity": 123,
      "chip": "ym2612"
    },
    {
      "channel": 2,
      "note": 57,
      "start": 153.7019,
      "duration": 0.0307,
      "velocity": 123,
      "chip": "ym2612"
    },
    {
      "channel": 2,
      "note": 57,
      "start": 153.7328,
      "duration": 0.0349,
      "velocity": 127,
      "chip": "ym2612"
    },
    {
      "channel": 0,
      "note": 69,
      "start": 153.7646,
      "duration": 0.096,
      "velocity": 123,
      "chip": "ym2612"
    },
    {
      "channel": 2,
      "note": 64,
      "start": 153.7679,
      "duration": 0.0937,
      "velocity": 127,
      "chip": "ym2612"
    },
    {
      "channel": 3,
      "note": 58,
      "start": 153.7711,
      "duration": 0.1896,
      "velocity": 114,
      "chip": "ym2612"
    },
    {
      "channel": 4,
      "note": 46,
      "start": 153.772,
      "duration": 0.1897,
      "velocity": 110,
      "chip": "ym2612"
    },
    {
      "channel": 0,
      "note": 73,
      "start": 153.8608,
      "duration": 0.0961,
      "velocity": 123,
      "chip": "ym2612"
    },
    {
      "channel": 2,
      "note": 64,
      "start": 153.8618,
      "duration": 0.0961,
      "velocity": 127,
      "chip": "ym2612"
    },
    {
      "channel": 0,
      "note": 69,
      "start": 153.9571,
      "duration": 0.096,
      "velocity": 123,
      "chip": "ym2612"
    },
    {
      "channel": 2,
      "note": 64,
      "start": 153.9582,
      "duration": 0.096,
      "velocity": 127,
      "chip": "ym2612"
    },
    {
      "channel": 3,
      "note": 58,
      "start": 153.961,
      "duration": 0.1932,
      "velocity": 114,
      "chip": "ym2612"
    },
    {
      "channel": 0,
      "note": 73,
      "start": 154.0533,
      "duration": 0.0933,
      "velocity": 123,
      "chip": "ym2612"
    },
    {
      "channel": 2,
      "note": 64,
      "start": 154.0543,
      "duration": 0.0961,
      "velocity": 107,
      "chip": "ym2612"
    },
    {
      "channel": 0,
      "note": 69,
      "start": 154.1468,
      "duration": 0.099,
      "velocity": 123,
      "chip": "ym2612"
    },
    {
      "channel": 1,
      "note": 37,
      "start": 154.1478,
      "duration": 2.9571,
      "velocity": 98,
      "chip": "ym2612"
    },
    {
      "channel": 2,
      "note": 26,
      "start": 154.1507,
      "duration": 0.0324,
      "velocity": 107,
      "chip": "ym2612"
    },
    {
      "channel": 3,
      "note": 58,
      "start": 154.1543,
      "duration": 0.1931,
      "velocity": 114,
      "chip": "ym2612"
    },
    {
      "channel": 4,
      "note": 46,
      "start": 154.1553,
      "duration": 0.1937,
      "velocity": 110,
      "chip": "ym2612"
    },
    {
      "channel": 2,
      "note": 26,
      "start": 154.1833,
      "duration": 0.1614,
      "velocity": 127,
      "chip": "ym2612"
    },
    {
      "channel": 0,
      "note": 73,
      "start": 154.2461,
      "duration": 0.096,
      "velocity": 123,
      "chip": "ym2612"
    },
    {
      "channel": 0,
      "note": 69,
      "start": 154.3424,
      "duration": 0.0961,
      "velocity": 123,
      "chip": "ym2612"
    },
    {
      "channel": 2,
      "note": 59,
      "start": 154.3449,
      "duration": 0.1924,
      "velocity": 127,
      "chip": "ym2612"
    },
    {
      "channel": 3,
      "note": 58,
      "start": 154.3477,
      "duration": 0.1924,
      "velocity": 114,
      "chip": "ym2612"
    },
    {
      "channel": 0,
      "note": 73,
      "start": 154.4386,
      "duration": 0.0961,
      "velocity": 123,
      "chip": "ym2612"
    },
    {
      "channel": 5,
      "note": 37,
      "start": 154.4432,
      "duration": 2.9538,
      "velocity": 98,
      "chip": "ym2612"
    },
    {
      "channel": 0,
      "note": 69,
      "start": 154.5349,
      "duration": 0.0961,
      "velocity": 123,
      "chip": "ym2612"
    },
    {
      "channel": 2,
      "note": 59,
      "start": 154.5374,
      "duration": 0.0309,
      "velocity": 127,
      "chip": "ym2612"
    },
    {
      "channel": 3,
      "note": 58,
      "start": 154.5403,
      "duration": 0.1937,
      "velocity": 114,
      "chip": "ym2612"
    },
    {
      "channel": 2,
      "note": 59,
      "start": 154.5685,
      "duration": 0.1613,
      "velocity": 127,
      "chip": "ym2612"
    },
    {
      "channel": 0,
      "note": 73,
      "start": 154.632,
      "duration": 0.0954,
      "velocity": 123,
      "chip": "ym2612"
    },
    {
      "channel": 0,
      "note": 69,
      "start": 154.7276,
      "duration": 0.0961,
      "velocity": 123,
      "chip": "ym2612"
    },
    {
      "channel": 2,
      "note": 64,
      "start": 154.73,
      "duration": 0.1926,
      "velocity": 123,
      "chip": "ym2612"
    },
    {
      "channel": 3,
      "note": 58,
      "start": 154.7341,
      "duration": 0.1912,
      "velocity": 114,
      "chip": "ym2612"
    },
    {
      "channel": 4,
      "note": 46,
      "start": 154.735,
      "duration": 0.1912,
      "velocity": 110,
      "chip": "ym2612"
    },
    {
      "channel": 0,
      "note": 73,
      "start": 154.8239,
      "duration": 0.0962,
      "velocity": 123,
      "chip": "ym2612"
    },
    {
      "channel": 0,
      "note": 69,
      "start": 154.9202,
      "duration": 0.0961,
      "velocity": 123,
      "chip": "ym2612"
    },
    {
      "channel": 2,
      "note": 57,
      "start": 154.9229,
      "duration": 0.031,
      "velocity": 123,
      "chip": "ym2612"
    },
    {
      "channel": 3,
      "note": 58,
      "start": 154.9256,
      "duration": 0.1939,
      "velocity": 114,
      "chip": "ym2612"
    },
    {
      "channel": 2,
      "note": 57,
      "start": 154.9541,
      "duration": 0.0327,
      "velocity": 123,
      "chip": "ym2612"
    },
    {
      "channel": 2,
      "note": 57,
      "start": 154.987,
      "duration": 0.0306,
      "velocity": 123,
      "chip": "ym2612"
    },
    {
      "channel": 0,
      "note": 73,
      "start": 155.0166,
      "duration": 0.0961,
      "velocity": 123,
      "chip": "ym2612"
    },
    {
      "channel": 2,
      "note": 57,
      "start": 155.0178,
      "duration": 0.0322,
      "velocity": 123,
      "chip": "ym2612"
    },
    {
      "channel": 2,
      "note": 57,
      "start": 155.0502,
      "duration": 0.03,
      "velocity": 123,
      "chip": "ym2612"
    },
    {
      "channel": 2,
      "note": 57,
      "start": 155.0805,
      "duration": 0.0354,
      "velocity": 127,
      "chip": "ym2612"
    },
    {
      "channel": 0,
      "note": 69,
      "start": 155.1128,
      "duration": 0.099,
      "velocity": 123,
      "chip": "ym2612"
    },
    {
      "channel": 2,
      "note": 59,
      "start": 155.1162,
      "duration": 0.0334,
      "velocity": 127,
      "chip": "ym2612"
    },
    {
      "channel": 3,
      "note": 58,
      "start": 155.1197,
      "duration": 0.1914,
      "velocity": 114,
      "chip": "ym2612"
    },
    {
      "channel": 4,
      "note": 46,
      "start": 155.1206,
      "duration": 0.1913,
      "velocity": 110,
      "chip": "ym2612"
    },
    {
      "channel": 2,
      "note": 59,
      "start": 155.1498,
      "duration": 0.158,
      "velocity": 127,
      "chip": "ym2612"
    },
    {
      "channel": 0,
      "note": 73,
      "start": 155.212,
      "duration": 0.0932,
      "velocity": 123,
      "chip": "ym2612"
    },
    {
      "channel": 0,
      "note": 69,
      "start": 155.3055,
      "duration": 0.0989,
      "velocity": 123,
      "chip": "ym2612"
    },
    {
      "channel": 2,
      "note": 66,
      "start": 155.308,
      "duration": 0.0975,
      "velocity": 127,
      "chip": "ym2612"
    },
    {
      "channel": 3,
      "note": 58,
      "start": 155.3112,
      "duration": 0.1912,
      "velocity": 114,
      "chip": "ym2612"
    },
    {
      "channel": 4,
      "note": 46,
      "start": 155.3121,
      "duration": 0.1912,
      "velocity": 110,
      "chip": "ym2612"
    },
    {
      "channel": 0,
      "note": 73,
      "start": 155.4046,
      "duration": 0.0936,
      "velocity": 123,
      "chip": "ym2612"
    },
    {
      "channel": 2,
      "note": 66,
      "start": 155.4056,
      "duration": 0.094,
      "velocity": 127,
      "chip": "ym2612"
    },
    {
      "channel": 0,
      "note": 69,
      "start": 155.4987,
      "duration": 0.0983,
      "velocity": 123,
      "chip": "ym2612"
    },
    {
      "channel": 2,
      "note": 66,
      "start": 155.4998,
      "duration": 0.0989,
      "velocity": 127,
      "chip": "ym2612"
    },
    {
      "channel": 3,
      "note": 58,
      "start": 155.5026,
      "duration": 0.1932,
      "velocity": 114,
      "chip": "ym2612"
    },
    {
      "channel": 0,
      "note": 73,
      "start": 155.5972,
      "duration": 0.0934,
      "velocity": 123,
      "chip": "ym2612"
    },
    {
      "channel": 2,
      "note": 66,
      "start": 155.5989,
      "duration": 0.0941,
      "velocity": 123,
      "chip": "ym2612"
    },
    {
      "channel": 0,
      "note": 69,
      "start": 155.6908,
      "duration": 0.0988,
      "velocity": 123,
      "chip": "ym2612"
    },
    {
      "channel": 2,
      "note": 68,
      "start": 155.6933,
      "duration": 0.0974,
      "velocity": 123,
      "chip": "ym2612"
    },
    {
      "channel": 3,
      "note": 58,
      "start": 155.6961,
      "duration": 0.1931,
      "velocity": 114,
      "chip": "ym2612"
    },
    {
      "channel": 0,
      "note": 73,
      "start": 155.7898,
      "duration": 0.0933,
      "velocity": 123,
      "chip": "ym2612"
    },
    {
      "channel": 2,
      "note": 68,
      "start": 155.7909,
      "duration": 0.0948,
      "velocity": 107,
      "chip": "ym2612"
    },
    {
      "channel": 0,
      "note": 69,
      "start": 155.8834,
      "duration": 0.0991,
      "velocity": 123,
      "chip": "ym2612"
    },
    {
      "channel": 2,
      "note": 30,
      "start": 155.8859,
      "duration": 0.0336,
      "velocity": 107,
      "chip": "ym2612"
    },
    {
      "channel": 3,
      "note": 58,
      "start": 155.8894,
      "duration": 0.1916,
      "velocity": 114,
      "chip": "ym2612"
    },
    {
      "channel": 4,
      "note": 46,
      "start": 155.8903,
      "duration": 0.1923,
      "velocity": 110,
      "chip": "ym2612"
    },
    {
      "channel": 2,
      "note": 30,
      "start": 155.9197,
      "duration": 0.1586,
      "velocity": 123,
      "chip": "ym2612"
    },
    {
      "channel": 0,
      "note": 73,
      "start": 155.9827,
      "duration": 0.093,
      "velocity": 123,
      "chip": "ym2612"
    },
    {
      "channel": 0,
      "note": 69,
      "start": 156.076,
      "duration": 0.0989,
      "velocity": 123,
      "chip": "ym2612"
    },
    {
      "channel": 2,
      "note": 59,
      "start": 156.0784,
      "duration": 0.0975,
      "velocity": 123,
      "chip": "ym2612"
    },
    {
      "channel": 3,
      "note": 58,
      "start": 156.0815,
      "duration": 0.1929,
      "velocity": 114,
      "chip": "ym2612"
    },
    {
      "channel": 0,
      "note": 73,
      "start": 156.1751,
      "duration": 0.0932,
      "velocity": 123,
      "chip": "ym2612"
    },
    {
      "channel": 2,
      "note": 59,
      "start": 156.1761,
      "duration": 0.0947,
      "velocity": 107,
      "chip": "ym2612"
    },
    {
      "channel": 0,
      "note": 69,
      "start": 156.2686,
      "duration": 0.0989,
      "velocity": 123,
      "chip": "ym2612"
    },
    {
      "channel": 2,
      "note": 27,
      "start": 156.2711,
      "duration": 0.0336,
      "velocity": 107,
      "chip": "ym2612"
    },
    {
      "channel": 3,
      "note": 58,
      "start": 156.2746,
      "duration": 0.1923,
      "velocity": 114,
      "chip": "ym2612"
    },
    {
      "channel": 4,
      "note": 46,
      "start": 156.2755,
      "duration": 0.1923,
      "velocity": 110,
      "chip": "ym2612"
    },
    {
      "channel": 2,
      "note": 27,
      "start": 156.3049,
      "duration": 0.1586,
      "velocity": 127,
      "chip": "ym2612"
    },
    {
      "channel": 0,
      "note": 73,
      "start": 156.3677,
      "duration": 0.0933,
      "velocity": 123,
      "chip": "ym2612"
    },
    {
      "channel": 0,
      "note": 69,
      "start": 156.4612,
      "duration": 0.0989,
      "velocity": 123,
      "chip": "ym2612"
    },
    {
      "channel": 2,
      "note": 59,
      "start": 156.4637,
      "duration": 0.0335,
      "velocity": 127,
      "chip": "ym2612"
    },
    {
      "channel": 3,
      "note": 58,
      "start": 156.4672,
      "duration": 0.1926,
      "velocity": 114,
      "chip": "ym2612"
    },
    {
      "channel": 2,
      "note": 59,
      "start": 156.4975,
      "duration": 0.1588,
      "velocity": 123,
      "chip": "ym2612"
    },
    {
      "channel": 0,
      "note": 73,
      "start": 156.5603,
      "duration": 0.0933,
      "velocity": 123,
      "chip": "ym2612"
    },
    {
      "channel": 0,
      "note": 69,
      "start": 156.6538,
      "duration": 0.0988,
      "velocity": 123,
      "chip": "ym2612"
    },
    {
      "channel": 2,
      "note": 57,
      "start": 156.6564,
      "duration": 0.0337,
      "velocity": 123,
      "chip": "ym2612"
    },
    {
      "channel": 3,
      "note": 58,
      "start": 156.66,
      "duration": 0.1927,
      "velocity": 114,
      "chip": "ym2612"
    },
    {
      "channel": 4,
      "note": 46,
      "start": 156.6609,
      "duration": 0.1927,
      "velocity": 110,
      "chip": "ym2612"
    },
    {
      "channel": 2,
      "note": 57,
      "start": 156.6904,
      "duration": 0.03,
      "velocity": 123,
      "chip": "ym2612"
    },
    {
      "channel": 2,
      "note": 57,
      "start": 156.7206,
      "duration": 0.0333,
      "velocity": 123,
      "chip": "ym2612"
    },
    {
      "channel": 0,
      "note": 73,
      "start": 156.7529,
      "duration": 0.0932,
      "velocity": 123,
      "chip": "ym2612"
    },
    {
      "channel": 2,
      "note": 57,
      "start": 156.7542,
      "duration": 0.0294,
      "velocity": 123,
      "chip": "ym2612"
    },
    {
      "channel": 2,
      "note": 57,
      "start": 156.7838,
      "duration": 0.0328,
      "velocity": 123,
      "chip": "ym2612"
    },
    {
      "channel": 2,
      "note": 57,
      "start": 156.8168,
      "duration": 0.0328,
      "velocity": 127,
      "chip": "ym2612"
    },
    {
      "channel": 0,
      "note": 69,
      "start": 156.8464,
      "duration": 0.0989,
      "velocity": 123,
      "chip": "ym2612"
    },
    {
      "channel": 2,
      "note": 64,
      "start": 156.8498,
      "duration": 0.0966,
      "velocity": 127,
      "chip": "ym2612"
    },
    {
      "channel": 3,
      "note": 58,
      "start": 156.853,
      "duration": 0.1896,
      "velocity": 114,
      "chip": "ym2612"
    },
    {
      "channel": 4,
      "note": 46,
      "start": 156.8538,
      "duration": 0.1896,
      "velocity": 110,
      "chip": "ym2612"
    },
    {
      "channel": 0,
      "note": 73,
      "start": 156.9455,
      "duration": 0.0933,
      "velocity": 123,
      "chip": "ym2612"
    },
    {
      "channel": 2,
      "note": 64,
      "start": 156.9465,
      "duration": 0.0933,
      "velocity": 127,
      "chip": "ym2612"
    },
    {
      "channel": 0,
      "note": 69,
      "start": 157.039,
      "duration": 0.096,
      "velocity": 123,
      "chip": "ym2612"
    },
    {
      "channel": 2,
      "note": 64,
      "start": 157.04,
      "duration": 0.0961,
      "velocity": 127,
      "chip": "ym2612"
    },
    {
      "channel": 3,
      "note": 58,
      "start": 157.0428,
      "duration": 0.1958,
      "velocity": 114,
      "chip": "ym2612"
    },
    {
      "channel": 0,
      "note": 73,
      "start": 157.1352,
      "duration": 0.0968,
      "velocity": 123,
      "chip": "ym2612"
    },
    {
      "channel": 2,
      "note": 64,
      "start": 157.1362,
      "duration": 0.0987,
      "velocity": 107,
      "chip": "ym2612"
    },
    {
      "channel": 0,
      "note": 69,
      "start": 157.2323,
      "duration": 0.0983,
      "velocity": 123,
      "chip": "ym2612"
    },
    {
      "channel": 1,
      "note": 39,
      "start": 157.2329,
      "duration": 2.9539,
      "velocity": 98,
      "chip": "ym2612"
    },
    {
      "channel": 2,
      "note": 26,
      "start": 157.2352,
      "duration": 0.0326,
      "velocity": 107,
      "chip": "ym2612"
    },
    {
      "channel": 3,
      "note": 58,
      "start": 157.2388,
      "duration": 0.1905,
      "velocity": 114,
      "chip": "ym2612"
    },
    {
      "channel": 4,
      "note": 46,
      "start": 157.2398,
      "duration": 0.1905,
      "velocity": 110,
      "chip": "ym2612"
    },
    {
      "channel": 2,
      "note": 26,
      "start": 157.268,
      "duration": 0.1586,
      "velocity": 127,
      "chip": "ym2612"
    },
    {
      "channel": 0,
      "note": 73,
      "start": 157.3307,
      "duration": 0.0933,
      "velocity": 123,
      "chip": "ym2612"
    },
    {
      "channel": 0,
      "note": 69,
      "start": 157.4243,
      "duration": 0.0988,
      "velocity": 123,
      "chip": "ym2612"
    },
    {
      "channel": 2,
      "note": 59,
      "start": 157.4268,
      "duration": 0.1923,
      "velocity": 127,
      "chip": "ym2612"
    },
    {
      "channel": 3,
      "note": 58,
      "start": 157.4296,
      "duration": 0.1923,
      "velocity": 114,
      "chip": "ym2612"
    },
    {
      "channel": 0,
      "note": 73,
      "start": 157.5234,
      "duration": 0.0933,
      "velocity": 123,
      "chip": "ym2612"
    },
    {
      "channel": 5,
      "note": 39,
      "start": 157.5276,
      "duration": 2.9513,
      "velocity": 98,
      "chip": "ym2612"
    },
    {
      "channel": 0,
      "note": 69,
      "start": 157.6168,
      "duration": 0.099,
      "velocity": 123,
      "chip": "ym2612"
    },
    {
      "channel": 2,
      "note": 59,
      "start": 157.6193,
      "duration": 0.0337,
      "velocity": 127,
      "chip": "ym2612"
    },
    {
      "channel": 3,
      "note": 58,
      "start": 157.6222,
      "duration": 0.1936,
      "velocity": 114,
      "chip": "ym2612"
    },
    {
      "channel": 2,
      "note": 59,
      "start": 157.6531,
      "duration": 0.1585,
      "velocity": 127,
      "chip": "ym2612"
    },
    {
      "channel": 0,
      "note": 73,
      "start": 157.716,
      "duration": 0.0932,
      "velocity": 123,
      "chip": "ym2612"
    },
    {
      "channel": 0,
      "note": 69,
      "start": 157.8094,
      "duration": 0.0989,
      "velocity": 123,
      "chip": "ym2612"
    },
    {
      "channel": 2,
      "note": 64,
      "start": 157.8118,
      "duration": 0.1926,
      "velocity": 123,
      "chip": "ym2612"
    },
    {
      "channel": 3,
      "note": 58,
      "start": 157.8159,
      "duration": 0.1913,
      "velocity": 114,
      "chip": "ym2612"
    },
    {
      "channel": 4,
      "note": 46,
      "start": 157.8168,
      "duration": 0.1913,
      "velocity": 110,
      "chip": "ym2612"
    },
    {
      "channel": 0,
      "note": 73,
      "start": 157.9085,
      "duration": 0.0933,
      "velocity": 123,
      "chip": "ym2612"
    },
    {
      "channel": 0,
      "note": 69,
      "start": 158.0021,
      "duration": 0.0989,
      "velocity": 123,
      "chip": "ym2612"
    },
    {
      "channel": 2,
      "note": 57,
      "start": 158.0046,
      "duration": 0.0338,
      "velocity": 123,
      "chip": "ym2612"
    },
    {
      "channel": 3,
      "note": 58,
      "start": 158.0075,
      "duration": 0.1939,
      "velocity": 114,
      "chip": "ym2612"
    },
    {
      "channel": 2,
      "note": 57,
      "start": 158.0387,
      "duration": 0.03,
      "velocity": 123,
      "chip": "ym2612"
    },
    {
      "channel": 2,
      "note": 57,
      "start": 158.0689,
      "duration": 0.0333,
      "velocity": 123,
      "chip": "ym2612"
    },
    {
      "channel": 0,
      "note": 73,
      "start": 158.1012,
      "duration": 0.0933,
      "velocity": 123,
      "chip": "ym2612"
    },
    {
      "channel": 2,
      "note": 57,
      "start": 158.1025,
      "duration": 0.0301,
      "velocity": 123,
      "chip": "ym2612"
    },
    {
      "channel": 2,
      "note": 57,
      "start": 158.1328,
      "duration": 0.0328,
      "velocity": 123,
      "chip": "ym2612"
    },
    {
      "channel": 2,
      "note": 57,
      "start": 158.1658,
      "duration": 0.0314,
      "velocity": 127,
      "chip": "ym2612"
    },
    {
      "channel": 0,
      "note": 69,
      "start": 158.1947,
      "duration": 0.0989,
      "velocity": 123,
      "chip": "ym2612"
    },
    {
      "channel": 2,
      "note": 59,
      "start": 158.1975,
      "duration": 0.0334,
      "velocity": 127,
      "chip": "ym2612"
    },
    {
      "channel": 3,
      "note": 58,
      "start": 158.2016,
      "duration": 0.1941,
      "velocity": 114,
      "chip": "ym2612"
    },
    {
      "channel": 4,
      "note": 46,
      "start": 158.2025,
      "duration": 0.1941,
      "velocity": 110,
      "chip": "ym2612"
    },
    {
      "channel": 2,
      "note": 59,
      "start": 158.2311,
      "duration": 0.1614,
      "velocity": 127,
      "chip": "ym2612"
    },
    {
      "channel": 0,
      "note": 73,
      "start": 158.2939,
      "duration": 0.0961,
      "velocity": 123,
      "chip": "ym2612"
    },
    {
      "channel": 0,
      "note": 69,
      "start": 158.3902,
      "duration": 0.0961,
      "velocity": 123,
      "chip": "ym2612"
    },
    {
      "channel": 2,
      "note": 66,
      "start": 158.3927,
      "duration": 0.0946,
      "velocity": 127,
      "chip": "ym2612"
    },
    {
      "channel": 3,
      "note": 58,
      "start": 158.3959,
      "duration": 0.1905,
      "velocity": 114,
      "chip": "ym2612"
    },
    {
      "channel": 4,
      "note": 46,
      "start": 158.3968,
      "duration": 0.1906,
      "velocity": 110,
      "chip": "ym2612"
    },
    {
      "channel": 0,
      "note": 73,
      "start": 158.4865,
      "duration": 0.0962,
      "velocity": 123,
      "chip": "ym2612"
    },
    {
      "channel": 2,
      "note": 66,
      "start": 158.4875,
      "duration": 0.0961,
      "velocity": 127,
      "chip": "ym2612"
    },
    {
      "channel": 0,
      "note": 69,
      "start": 158.5828,
      "duration": 0.0959,
      "velocity": 123,
      "chip": "ym2612"
    },
    {
      "channel": 2,
      "note": 66,
      "start": 158.5839,
      "duration": 0.0959,
      "velocity": 127,
      "chip": "ym2612"
    },
    {
      "channel": 3,
      "note": 58,
      "start": 158.5866,
      "duration": 0.191,
      "velocity": 114,
      "chip": "ym2612"
    },
    {
      "channel": 0,
      "note": 73,
      "start": 158.679,
      "duration": 0.0933,
      "velocity": 123,
      "chip": "ym2612"
    },
    {
      "channel": 2,
      "note": 66,
      "start": 158.68,
      "duration": 0.0948,
      "velocity": 123,
      "chip": "ym2612"
    },
    {
      "channel": 0,
      "note": 69,
      "start": 158.7725,
      "duration": 0.0988,
      "velocity": 123,
      "chip": "ym2612"
    },
    {
      "channel": 2,
      "note": 68,
      "start": 158.775,
      "duration": 0.0974,
      "velocity": 123,
      "chip": "ym2612"
    },
    {
      "channel": 3,
      "note": 58,
      "start": 158.7778,
      "duration": 0.1938,
      "velocity": 114,
      "chip": "ym2612"
    },
    {
      "channel": 0,
      "note": 73,
      "start": 158.8716,
      "duration": 0.094,
      "velocity": 123,
      "chip": "ym2612"
    },
    {
      "channel": 2,
      "note": 68,
      "start": 158.8726,
      "duration": 0.0955,
      "velocity": 107,
      "chip": "ym2612"
    },
    {
      "channel": 0,
      "note": 69,
      "start": 158.9659,
      "duration": 0.0983,
      "velocity": 123,
      "chip": "ym2612"
    },
    {
      "channel": 2,
      "note": 30,
      "start": 158.9683,
      "duration": 0.033,
      "velocity": 107,
      "chip": "ym2612"
    },
    {
      "channel": 3,
      "note": 58,
      "start": 158.9718,
      "duration": 0.1945,
      "velocity": 114,
      "chip": "ym2612"
    },
    {
      "channel": 4,
      "note": 46,
      "start": 158.9727,
      "duration": 0.1945,
      "velocity": 110,
      "chip": "ym2612"
    },
    {
      "channel": 2,
      "note": 30,
      "start": 159.0015,
      "duration": 0.1614,
      "velocity": 123,
      "chip": "ym2612"
    },
    {
      "channel": 0,
      "note": 73,
      "start": 159.0643,
      "duration": 0.0961,
      "velocity": 123,
      "chip": "ym2612"
    },
    {
      "channel": 0,
      "note": 69,
      "start": 159.1606,
      "duration": 0.0961,
      "velocity": 123,
      "chip": "ym2612"
    },
    {
      "channel": 2,
      "note": 59,
      "start": 159.1632,
      "duration": 0.0945,
      "velocity": 123,
      "chip": "ym2612"
    },
    {
      "channel": 3,
      "note": 58,
      "start": 159.1666,
      "duration": 0.1925,
      "velocity": 114,
      "chip": "ym2612"
    },
    {
      "channel": 0,
      "note": 73,
      "start": 159.2569,
      "duration": 0.0961,
      "velocity": 123,
      "chip": "ym2612"
    },
    {
      "channel": 2,
      "note": 59,
      "start": 159.2579,
      "duration": 0.0977,
      "velocity": 107,
      "chip": "ym2612"
    },
    {
      "channel": 0,
      "note": 69,
      "start": 159.3533,
      "duration": 0.0961,
      "velocity": 123,
      "chip": "ym2612"
    },
    {
      "channel": 2,
      "note": 27,
      "start": 159.3557,
      "duration": 0.0308,
      "velocity": 107,
      "chip": "ym2612"
    },
    {
      "channel": 3,
      "note": 58,
      "start": 159.3593,
      "duration": 0.1924,
      "velocity": 114,
      "chip": "ym2612"
    },
    {
      "channel": 4,
      "note": 46,
      "start": 159.3602,
      "duration": 0.1924,
      "velocity": 110,
      "chip": "ym2612"
    },
    {
      "channel": 2,
      "note": 27,
      "start": 159.3867,
      "duration": 0.1622,
      "velocity": 127,
      "chip": "ym2612"
    },
    {
      "channel": 0,
      "note": 73,
      "start": 159.4495,
      "duration": 0.0962,
      "velocity": 123,
      "chip": "ym2612"
    },
    {
      "channel": 0,
      "note": 69,
      "start": 159.5459,
      "duration": 0.0961,
      "velocity": 123,
      "chip": "ym2612"
    },
    {
      "channel": 2,
      "note": 59,
      "start": 159.5491,
      "duration": 0.0301,
      "velocity": 127,
      "chip": "ym2612"
    },
    {
      "channel": 3,
      "note": 58,
      "start": 159.5519,
      "duration": 0.1926,
      "velocity": 114,
      "chip": "ym2612"
    },
    {
      "channel": 2,
      "note": 59,
      "start": 159.5794,
      "duration": 0.1615,
      "velocity": 123,
      "chip": "ym2612"
    },
    {
      "channel": 0,
      "note": 73,
      "start": 159.6422,
      "duration": 0.0961,
      "velocity": 123,
      "chip": "ym2612"
    },
    {
      "channel": 0,
      "note": 69,
      "start": 159.7385,
      "duration": 0.0961,
      "velocity": 123,
      "chip": "ym2612"
    },
    {
      "channel": 2,
      "note": 57,
      "start": 159.7411,
      "duration": 0.0309,
      "velocity": 123,
      "chip": "ym2612"
    },
    {
      "channel": 3,
      "note": 58,
      "start": 159.7447,
      "duration": 0.1928,
      "velocity": 114,
      "chip": "ym2612"
    },
    {
      "channel": 4,
      "note": 46,
      "start": 159.7456,
      "duration": 0.1927,
      "velocity": 110,
      "chip": "ym2612"
    },
    {
      "channel": 2,
      "note": 57,
      "start": 159.7723,
      "duration": 0.0328,
      "velocity": 123,
      "chip": "ym2612"
    },
    {
      "channel": 2,
      "note": 57,
      "start": 159.8053,
      "duration": 0.0305,
      "velocity": 123,
      "chip": "ym2612"
    },
    {
      "channel": 0,
      "note": 73,
      "start": 159.8347,
      "duration": 0.0961,
      "velocity": 123,
      "chip": "ym2612"
    },
    {
      "channel": 2,
      "note": 57,
      "start": 159.8361,
      "duration": 0.0322,
      "velocity": 123,
      "chip": "ym2612"
    },
    {
      "channel": 2,
      "note": 57,
      "start": 159.8685,
      "duration": 0.0306,
      "velocity": 123,
      "chip": "ym2612"
    },
    {
      "channel": 2,
      "note": 57,
      "start": 159.8993,
      "duration": 0.0349,
      "velocity": 127,
      "chip": "ym2612"
    },
    {
      "channel": 0,
      "note": 69,
      "start": 159.9312,
      "duration": 0.096,
      "velocity": 123,
      "chip": "ym2612"
    },
    {
      "channel": 2,
      "note": 64,
      "start": 159.9344,
      "duration": 0.0938,
      "velocity": 127,
      "chip": "ym2612"
    },
    {
      "channel": 3,
      "note": 58,
      "start": 159.9377,
      "duration": 0.1896,
      "velocity": 114,
      "chip": "ym2612"
    },
    {
      "channel": 4,
      "note": 46,
      "start": 159.9386,
      "duration": 0.1896,
      "velocity": 110,
      "chip": "ym2612"
    },
    {
      "channel": 0,
      "note": 73,
      "start": 160.0274,
      "duration": 0.0961,
      "velocity": 123,
      "chip": "ym2612"
    },
    {
      "channel": 2,
      "note": 64,
      "start": 160.0284,
      "duration": 0.0961,
      "velocity": 127,
      "chip": "ym2612"
    },
    {
      "channel": 0,
      "note": 69,
      "start": 160.1237,
      "duration": 0.0959,
      "velocity": 123,
      "chip": "ym2612"
    },
    {
      "channel": 2,
      "note": 64,
      "start": 160.1247,
      "duration": 0.096,
      "velocity": 127,
      "chip": "ym2612"
    },
    {
      "channel": 3,
      "note": 58,
      "start": 160.1276,
      "duration": 0.1938,
      "velocity": 114,
      "chip": "ym2612"
    },
    {
      "channel": 0,
      "note": 73,
      "start": 160.2199,
      "duration": 0.0933,
      "velocity": 123,
      "chip": "ym2612"
    },
    {
      "channel": 2,
      "note": 64,
      "start": 160.2209,
      "duration": 0.0963,
      "velocity": 107,
      "chip": "ym2612"
    },
    {
      "channel": 0,
      "note": 69,
      "start": 160.3134,
      "duration": 0.099,
      "velocity": 123,
      "chip": "ym2612"
    },
    {
      "channel": 1,
      "note": 35,
      "start": 160.3145,
      "duration": 2.9569,
      "velocity": 98,
      "chip": "ym2612"
    },
    {
      "channel": 2,
      "note": 26,
      "start": 160.3174,
      "duration": 0.0324,
      "velocity": 107,
      "chip": "ym2612"
    },
    {
      "channel": 3,
      "note": 59,
      "start": 160.3216,
      "duration": 0.1924,
      "velocity": 114,
      "chip": "ym2612"
    },
    {
      "channel": 4,
      "note": 47,
      "start": 160.3228,
      "duration": 0.1928,
      "velocity": 110,
      "chip": "ym2612"
    },
    {
      "channel": 2,
      "note": 26,
      "start": 160.35,
      "duration": 0.1613,
      "velocity": 127,
      "chip": "ym2612"
    },
    {
      "channel": 0,
      "note": 73,
      "start": 160.4127,
      "duration": 0.0961,
      "velocity": 123,
      "chip": "ym2612"
    },
    {
      "channel": 0,
      "note": 69,
      "start": 160.5089,
      "duration": 0.0961,
      "velocity": 123,
      "chip": "ym2612"
    },
    {
      "channel": 2,
      "note": 59,
      "start": 160.5115,
      "duration": 0.1923,
      "velocity": 127,
      "chip": "ym2612"
    },
    {
      "channel": 3,
      "note": 59,
      "start": 160.5143,
      "duration": 0.1923,
      "velocity": 114,
      "chip": "ym2612"
    },
    {
      "channel": 0,
      "note": 73,
      "start": 160.6052,
      "duration": 0.0961,
      "velocity": 123,
      "chip": "ym2612"
    },
    {
      "channel": 5,
      "note": 35,
      "start": 160.61,
      "duration": 2.9536,
      "velocity": 98,
      "chip": "ym2612"
    },
    {
      "channel": 0,
      "note": 69,
      "start": 160.7015,
      "duration": 0.0961,
      "velocity": 123,
      "chip": "ym2612"
    },
    {
      "channel": 2,
      "note": 59,
      "start": 160.7039,
      "duration": 0.0309,
      "velocity": 127,
      "chip": "ym2612"
    },
    {
      "channel": 3,
      "note": 59,
      "start": 160.7068,
      "duration": 0.1936,
      "velocity": 114,
      "chip": "ym2612"
    },
    {
      "channel": 2,
      "note": 59,
      "start": 160.735,
      "duration": 0.1614,
      "velocity": 127,
      "chip": "ym2612"
    },
    {
      "channel": 0,
      "note": 73,
      "start": 160.7979,
      "duration": 0.0961,
      "velocity": 123,
      "chip": "ym2612"
    },
    {
      "channel": 0,
      "note": 69,
      "start": 160.8941,
      "duration": 0.0961,
      "velocity": 123,
      "chip": "ym2612"
    },
    {
      "channel": 2,
      "note": 64,
      "start": 160.8966,
      "duration": 0.1926,
      "velocity": 123,
      "chip": "ym2612"
    },
    {
      "channel": 3,
      "note": 59,
      "start": 160.9007,
      "duration": 0.1913,
      "velocity": 114,
      "chip": "ym2612"
    },
    {
      "channel": 4,
      "note": 47,
      "start": 160.9015,
      "duration": 0.1913,
      "velocity": 110,
      "chip": "ym2612"
    },
    {
      "channel": 0,
      "note": 73,
      "start": 160.9904,
      "duration": 0.0962,
      "velocity": 123,
      "chip": "ym2612"
    },
    {
      "channel": 0,
      "note": 69,
      "start": 161.0868,
      "duration": 0.0961,
      "velocity": 123,
      "chip": "ym2612"
    },
    {
      "channel": 2,
      "note": 57,
      "start": 161.0894,
      "duration": 0.031,
      "velocity": 123,
      "chip": "ym2612"
    },
    {
      "channel": 3,
      "note": 59,
      "start": 161.0922,
      "duration": 0.1938,
      "velocity": 114,
      "chip": "ym2612"
    },
    {
      "channel": 2,
      "note": 57,
      "start": 161.1206,
      "duration": 0.0327,
      "velocity": 123,
      "chip": "ym2612"
    },
    {
      "channel": 2,
      "note": 57,
      "start": 161.1536,
      "duration": 0.0306,
      "velocity": 123,
      "chip": "ym2612"
    },
    {
      "channel": 0,
      "note": 73,
      "start": 161.1832,
      "duration": 0.096,
      "velocity": 123,
      "chip": "ym2612"
    },
    {
      "channel": 2,
      "note": 57,
      "start": 161.1844,
      "duration": 0.0321,
      "velocity": 123,
      "chip": "ym2612"
    },
    {
      "channel": 2,
      "note": 57,
      "start": 161.2168,
      "duration": 0.03,
      "velocity": 123,
      "chip": "ym2612"
    },
    {
      "channel": 2,
      "note": 57,
      "start": 161.247,
      "duration": 0.0355,
      "velocity": 127,
      "chip": "ym2612"
    },
    {
      "channel": 0,
      "note": 69,
      "start": 161.2794,
      "duration": 0.099,
      "velocity": 123,
      "chip": "ym2612"
    },
    {
      "channel": 2,
      "note": 59,
      "start": 161.2827,
      "duration": 0.0335,
      "velocity": 127,
      "chip": "ym2612"
    },
    {
      "channel": 3,
      "note": 59,
      "start": 161.2863,
      "duration": 0.1913,
      "velocity": 114,
      "chip": "ym2612"
    },
    {
      "channel": 4,
      "note": 47,
      "start": 161.2871,
      "duration": 0.1913,
      "velocity": 110,
      "chip": "ym2612"
    },
    {
      "channel": 2,
      "note": 59,
      "start": 161.3163,
      "duration": 0.158,
      "velocity": 127,
      "chip": "ym2612"
    },
    {
      "channel": 0,
      "note": 73,
      "start": 161.3786,
      "duration": 0.0933,
      "velocity": 123,
      "chip": "ym2612"
    },
    {
      "channel": 0,
      "note": 69,
      "start": 161.4721,
      "duration": 0.0988,
      "velocity": 123,
      "chip": "ym2612"
    },
    {
      "channel": 2,
      "note": 66,
      "start": 161.4746,
      "duration": 0.0974,
      "velocity": 127,
      "chip": "ym2612"
    },
    {
      "channel": 3,
      "note": 59,
      "start": 161.4778,
      "duration": 0.1911,
      "velocity": 114,
      "chip": "ym2612"
    },
    {
      "channel": 4,
      "note": 47,
      "start": 161.4786,
      "duration": 0.1912,
      "velocity": 110,
      "chip": "ym2612"
    },
    {
      "channel": 0,
      "note": 73,
      "start": 161.5712,
      "duration": 0.0933,
      "velocity": 123,
      "chip": "ym2612"
    },
    {
      "channel": 2,
      "note": 66,
      "start": 161.5722,
      "duration": 0.0939,
      "velocity": 127,
      "chip": "ym2612"
    },
    {
      "channel": 0,
      "note": 69,
      "start": 161.6654,
      "duration": 0.0983,
      "velocity": 123,
      "chip": "ym2612"
    },
    {
      "channel": 2,
      "note": 66,
      "start": 161.6663,
      "duration": 0.099,
      "velocity": 127,
      "chip": "ym2612"
    },
    {
      "channel": 3,
      "note": 59,
      "start": 161.6692,
      "duration": 0.1932,
      "velocity": 114,
      "chip": "ym2612"
    },
    {
      "channel": 0,
      "note": 73,
      "start": 161.7638,
      "duration": 0.0933,
      "velocity": 123,
      "chip": "ym2612"
    },
    {
      "channel": 2,
      "note": 66,
      "start": 161.7655,
      "duration": 0.0941,
      "velocity": 123,
      "chip": "ym2612"
    },
    {
      "channel": 0,
      "note": 69,
      "start": 161.8573,
      "duration": 0.0989,
      "velocity": 123,
      "chip": "ym2612"
    },
    {
      "channel": 2,
      "note": 68,
      "start": 161.8598,
      "duration": 0.0974,
      "velocity": 123,
      "chip": "ym2612"
    },
    {
      "channel": 3,
      "note": 59,
      "start": 161.8626,
      "duration": 0.1931,
      "velocity": 114,
      "chip": "ym2612"
    },
    {
      "channel": 0,
      "note": 73,
      "start": 161.9564,
      "duration": 0.0933,
      "velocity": 123,
      "chip": "ym2612"
    },
    {
      "channel": 2,
      "note": 68,
      "start": 161.9574,
      "duration": 0.0949,
      "velocity": 107,
      "chip": "ym2612"
    },
    {
      "channel": 0,
      "note": 69,
      "start": 162.05,
      "duration": 0.0992,
      "velocity": 123,
      "chip": "ym2612"
    },
    {
      "channel": 2,
      "note": 30,
      "start": 162.0524,
      "duration": 0.0336,
      "velocity": 107,
      "chip": "ym2612"
    },
    {
      "channel": 3,
      "note": 59,
      "start": 162.056,
      "duration": 0.1916,
      "velocity": 114,
      "chip": "ym2612"
    },
    {
      "channel": 4,
      "note": 47,
      "start": 162.0568,
      "duration": 0.1923,
      "velocity": 110,
      "chip": "ym2612"
    },
    {
      "channel": 2,
      "note": 30,
      "start": 162.0862,
      "duration": 0.1586,
      "velocity": 123,
      "chip": "ym2612"
    },
    {
      "channel": 0,
      "note": 73,
      "start": 162.1494,
      "duration": 0.0929,
      "velocity": 123,
      "chip": "ym2612"
    },
    {
      "channel": 0,
      "note": 69,
      "start": 162.2425,
      "duration": 0.0989,
      "velocity": 123,
      "chip": "ym2612"
    },
    {
      "channel": 2,
      "note": 59,
      "start": 162.2451,
      "duration": 0.0974,
      "velocity": 123,
      "chip": "ym2612"
    },
    {
      "channel": 3,
      "note": 59,
      "start": 162.2479,
      "duration": 0.1931,
      "velocity": 114,
      "chip": "ym2612"
    },
    {
      "channel": 0,
      "note": 73,
      "start": 162.3416,
      "duration": 0.0933,
      "velocity": 123,
      "chip": "ym2612"
    },
    {
      "channel": 2,
      "note": 59,
      "start": 162.3426,
      "duration": 0.0948,
      "velocity": 107,
      "chip": "ym2612"
    },
    {
      "channel": 0,
      "note": 69,
      "start": 162.4351,
      "duration": 0.0989,
      "velocity": 123,
      "chip": "ym2612"
    },
    {
      "channel": 2,
      "note": 27,
      "start": 162.4376,
      "duration": 0.0337,
      "velocity": 107,
      "chip": "ym2612"
    },
    {
      "channel": 3,
      "note": 59,
      "start": 162.4412,
      "duration": 0.1924,
      "velocity": 114,
      "chip": "ym2612"
    },
    {
      "channel": 4,
      "note": 47,
      "start": 162.4421,
      "duration": 0.1924,
      "velocity": 110,
      "chip": "ym2612"
    },
    {
      "channel": 2,
      "note": 27,
      "start": 162.4715,
      "duration": 0.1586,
      "velocity": 127,
      "chip": "ym2612"
    },
    {
      "channel": 0,
      "note": 73,
      "start": 162.5342,
      "duration": 0.0933,
      "velocity": 123,
      "chip": "ym2612"
    },
    {
      "channel": 0,
      "note": 69,
      "start": 162.6278,
      "duration": 0.0988,
      "velocity": 123,
      "chip": "ym2612"
    },
    {
      "channel": 2,
      "note": 59,
      "start": 162.6303,
      "duration": 0.0335,
      "velocity": 127,
      "chip": "ym2612"
    },
    {
      "channel": 3,
      "note": 59,
      "start": 162.6337,
      "duration": 0.1926,
      "velocity": 114,
      "chip": "ym2612"
    },
    {
      "channel": 2,
      "note": 59,
      "start": 162.6641,
      "duration": 0.1587,
      "velocity": 123,
      "chip": "ym2612"
    },
    {
      "channel": 0,
      "note": 73,
      "start": 162.7268,
      "duration": 0.0933,
      "velocity": 123,
      "chip": "ym2612"
    },
    {
      "channel": 0,
      "note": 69,
      "start": 162.8204,
      "duration": 0.0989,
      "velocity": 123,
      "chip": "ym2612"
    },
    {
      "channel": 2,
      "note": 57,
      "start": 162.823,
      "duration": 0.0337,
      "velocity": 123,
      "chip": "ym2612"
    },
    {
      "channel": 3,
      "note": 59,
      "start": 162.8265,
      "duration": 0.1928,
      "velocity": 114,
      "chip": "ym2612"
    },
    {
      "channel": 4,
      "note": 47,
      "start": 162.8274,
      "duration": 0.1928,
      "velocity": 110,
      "chip": "ym2612"
    },
    {
      "channel": 2,
      "note": 57,
      "start": 162.8569,
      "duration": 0.03,
      "velocity": 123,
      "chip": "ym2612"
    },
    {
      "channel": 2,
      "note": 57,
      "start": 162.8872,
      "duration": 0.0333,
      "velocity": 123,
      "chip": "ym2612"
    },
    {
      "channel": 0,
      "note": 73,
      "start": 162.9195,
      "duration": 0.0933,
      "velocity": 123,
      "chip": "ym2612"
    },
    {
      "channel": 2,
      "note": 57,
      "start": 162.9207,
      "duration": 0.0294,
      "velocity": 123,
      "chip": "ym2612"
    },
    {
      "channel": 2,
      "note": 57,
      "start": 162.9504,
      "duration": 0.0328,
      "velocity": 123,
      "chip": "ym2612"
    },
    {
      "channel": 2,
      "note": 57,
      "start": 162.9835,
      "duration": 0.0326,
      "velocity": 127,
      "chip": "ym2612"
    },
    {
      "channel": 0,
      "note": 69,
      "start": 163.0129,
      "duration": 0.0989,
      "velocity": 123,
      "chip": "ym2612"
    },
    {
      "channel": 2,
      "note": 64,
      "start": 163.0163,
      "duration": 0.0965,
      "velocity": 127,
      "chip": "ym2612"
    },
    {
      "channel": 3,
      "note": 59,
      "start": 163.0195,
      "duration": 0.1896,
      "velocity": 114,
      "chip": "ym2612"
    },
    {
      "channel": 4,
      "note": 47,
      "start": 163.0204,
      "duration": 0.1896,
      "velocity": 110,
      "chip": "ym2612"
    },
    {
      "channel": 0,
      "note": 73,
      "start": 163.112,
      "duration": 0.0933,
      "velocity": 123,
      "chip": "ym2612"
    },
    {
      "channel": 2,
      "note": 64,
      "start": 163.1131,
      "duration": 0.0933,
      "velocity": 127,
      "chip": "ym2612"
    },
    {
      "channel": 0,
      "note": 69,
      "start": 163.2056,
      "duration": 0.0959,
      "velocity": 123,
      "chip": "ym2612"
    },
    {
      "channel": 2,
      "note": 64,
      "start": 163.2066,
      "duration": 0.096,
      "velocity": 127,
      "chip": "ym2612"
    },
    {
      "channel": 3,
      "note": 59,
      "start": 163.2094,
      "duration": 0.1957,
      "velocity": 114,
      "chip": "ym2612"
    },
    {
      "channel": 0,
      "note": 73,
      "start": 163.3017,
      "duration": 0.0964,
      "velocity": 123,
      "chip": "ym2612"
    },
    {
      "channel": 2,
      "note": 64,
      "start": 163.3027,
      "duration": 0.0987,
      "velocity": 107,
      "chip": "ym2612"
    },
    {
      "channel": 0,
      "note": 69,
      "start": 163.3988,
      "duration": 0.0983,
      "velocity": 123,
      "chip": "ym2612"
    },
    {
      "channel": 1,
      "note": 37,
      "start": 163.3994,
      "duration": 1.1483,
      "velocity": 98,
      "chip": "ym2612"
    },
    {
      "channel": 2,
      "note": 26,
      "start": 163.4017,
      "duration": 0.0326,
      "velocity": 107,
      "chip": "ym2612"
    },
    {
      "channel": 3,
      "note": 59,
      "start": 163.4054,
      "duration": 0.1906,
      "velocity": 114,
      "chip": "ym2612"
    },
    {
      "channel": 4,
      "note": 47,
      "start": 163.4063,
      "duration": 0.1905,
      "velocity": 110,
      "chip": "ym2612"
    },
    {
      "channel": 2,
      "note": 26,
      "start": 163.4345,
      "duration": 0.1587,
      "velocity": 127,
      "chip": "ym2612"
    },
    {
      "channel": 0,
      "note": 73,
      "start": 163.4973,
      "duration": 0.0934,
      "velocity": 123,
      "chip": "ym2612"
    },
    {
      "channel": 0,
      "note": 69,
      "start": 163.5909,
      "duration": 0.0988,
      "velocity": 123,
      "chip": "ym2612"
    },
    {
      "channel": 2,
      "note": 59,
      "start": 163.5934,
      "duration": 0.1922,
      "velocity": 127,
      "chip": "ym2612"
    },
    {
      "channel": 3,
      "note": 59,
      "start": 163.5962,
      "duration": 0.1924,
      "velocity": 114,
      "chip": "ym2612"
    },
    {
      "channel": 0,
      "note": 73,
      "start": 163.6899,
      "duration": 0.0933,
      "velocity": 123,
      "chip": "ym2612"
    },
    {
      "channel": 5,
      "note": 37,
      "start": 163.6941,
      "duration": 0.8536,
      "velocity": 98,
      "chip": "ym2612"
    },
    {
      "channel": 0,
      "note": 69,
      "start": 163.7834,
      "duration": 0.0991,
      "velocity": 123,
      "chip": "ym2612"
    },
    {
      "channel": 2,
      "note": 59,
      "start": 163.7858,
      "duration": 0.0337,
      "velocity": 127,
      "chip": "ym2612"
    },
    {
      "channel": 3,
      "note": 59,
      "start": 163.7888,
      "duration": 0.1935,
      "velocity": 114,
      "chip": "ym2612"
    },
    {
      "channel": 2,
      "note": 59,
      "start": 163.8197,
      "duration": 0.1585,
      "velocity": 127,
      "chip": "ym2612"
    },
    {
      "channel": 0,
      "note": 73,
      "start": 163.8828,
      "duration": 0.093,
      "velocity": 123,
      "chip": "ym2612"
    },
    {
      "channel": 0,
      "note": 69,
      "start": 163.976,
      "duration": 0.099,
      "velocity": 123,
      "chip": "ym2612"
    },
    {
      "channel": 2,
      "note": 64,
      "start": 163.9784,
      "duration": 0.1926,
      "velocity": 123,
      "chip": "ym2612"
    },
    {
      "channel": 3,
      "note": 59,
      "start": 163.9825,
      "duration": 0.1912,
      "velocity": 114,
      "chip": "ym2612"
    },
    {
      "channel": 4,
      "note": 47,
      "start": 163.9834,
      "duration": 0.1912,
      "velocity": 110,
      "chip": "ym2612"
    },
    {
      "channel": 0,
      "note": 73,
      "start": 164.0751,
      "duration": 0.0933,
      "velocity": 123,
      "chip": "ym2612"
    },
    {
      "channel": 0,
      "note": 69,
      "start": 164.1686,
      "duration": 0.0989,
      "velocity": 123,
      "chip": "ym2612"
    },
    {
      "channel": 2,
      "note": 57,
      "start": 164.1712,
      "duration": 0.0337,
      "velocity": 123,
      "chip": "ym2612"
    },
    {
      "channel": 3,
      "note": 59,
      "start": 164.174,
      "duration": 0.1939,
      "velocity": 114,
      "chip": "ym2612"
    },
    {
      "channel": 2,
      "note": 57,
      "start": 164.2052,
      "duration": 0.03,
      "velocity": 123,
      "chip": "ym2612"
    },
    {
      "channel": 2,
      "note": 57,
      "start": 164.2355,
      "duration": 0.0333,
      "velocity": 123,
      "chip": "ym2612"
    },
    {
      "channel": 0,
      "note": 73,
      "start": 164.2678,
      "duration": 0.0933,
      "velocity": 123,
      "chip": "ym2612"
    },
    {
      "channel": 2,
      "note": 57,
      "start": 164.269,
      "duration": 0.0302,
      "velocity": 123,
      "chip": "ym2612"
    },
    {
      "channel": 2,
      "note": 57,
      "start": 164.2994,
      "duration": 0.0328,
      "velocity": 123,
      "chip": "ym2612"
    },
    {
      "channel": 2,
      "note": 57,
      "start": 164.3323,
      "duration": 0.0314,
      "velocity": 127,
      "chip": "ym2612"
    },
    {
      "channel": 0,
      "note": 69,
      "start": 164.3613,
      "duration": 0.0989,
      "velocity": 123,
      "chip": "ym2612"
    },
    {
      "channel": 2,
      "note": 59,
      "start": 164.364,
      "duration": 0.0334,
      "velocity": 127,
      "chip": "ym2612"
    },
    {
      "channel": 3,
      "note": 59,
      "start": 164.3681,
      "duration": 0.1796,
      "velocity": 114,
      "chip": "ym2612"
    },
    {
      "channel": 4,
      "note": 47,
      "start": 164.369,
      "duration": 0.1787,
      "velocity": 110,
      "chip": "ym2612"
    },
    {
      "channel": 2,
      "note": 59,
      "start": 164.3977,
      "duration": 0.1501,
      "velocity": 127,
      "chip": "ym2612"
    },
    {
      "channel": 0,
      "note": 73,
      "start": 164.4605,
      "duration": 0.0873,
      "velocity": 123,
      "chip": "ym2612"
    }
  ]
}