{
  "track_name": "11 - Boss Theme 2",
  "duration_sec": 25.416,
  "sample_rate": 44100,
  "note_count": 686,
  "unique_pitches": 34,
  "pitch_range": 55,
  "avg_note_duration": 0.1355,
  "reconstruction_stats": {
    "notes_reconstructed": 686,
    "keyon_events": 686,
    "keyoff_events": 634,
    "orphan_keyons": 0,
    "unique_pitches": 34,
    "pitch_range": 55,
    "avg_duration_sec": 0.1355
  },
  "metadata": {
    "source": "G\\Gynoug\\11 - Boss Theme 2.vgz"
  },
  "notes": [
    {
      "channel": 0,
      "note": 54,
      "start": 0.0,
      "duration": 0.3788,
      "velocity": 91,
      "chip": "ym2612"
    },
    {
      "channel": 2,
      "note": 81,
      "start": 0.0031,
      "duration": 0.1112,
      "velocity": 77,
      "chip": "ym2612"
    },
    {
      "channel": 3,
      "note": 78,
      "start": 0.0064,
      "duration": 0.1081,
      "velocity": 77,
      "chip": "ym2612"
    },
    {
      "channel": 2,
      "note": 81,
      "start": 0.1311,
      "duration": 0.1162,
      "velocity": 77,
      "chip": "ym2612"
    },
    {
      "channel": 3,
      "note": 78,
      "start": 0.1316,
      "duration": 0.1159,
      "velocity": 77,
      "chip": "ym2612"
    },
    {
      "channel": 2,
      "note": 81,
      "start": 0.2639,
      "duration": 0.1154,
      "velocity": 77,
      "chip": "ym2612"
    },
    {
      "channel": 3,
      "note": 78,
      "start": 0.2644,
      "duration": 0.1155,
      "velocity": 77,
      "chip": "ym2612"
    },
    {
      "channel": 2,
      "note": 81,
      "start": 0.3962,
      "duration": 0.1155,
      "velocity": 77,
      "chip": "ym2612"
    },
    {
      "channel": 3,
      "note": 78,
      "start": 0.3971,
      "duration": 0.1148,
      "velocity": 77,
      "chip": "ym2612"
    },
    {
      "channel": 2,
      "note": 81,
      "start": 0.5283,
      "duration": 0.1159,
      "velocity": 77,
      "chip": "ym2612"
    },
    {
      "channel": 3,
      "note": 78,
      "start": 0.5289,
      "duration": 0.1156,
      "velocity": 77,
      "chip": "ym2612"
    },
    {
      "channel": 2,
      "note": 81,
      "start": 0.6608,
      "duration": 0.1156,
      "velocity": 77,
      "chip": "ym2612"
    },
    {
      "channel": 3,
      "note": 78,
      "start": 0.6614,
      "duration": 0.1154,
      "velocity": 77,
      "chip": "ym2612"
    },
    {
      "channel": 2,
      "note": 81,
      "start": 0.7932,
      "duration": 0.1158,
      "velocity": 77,
      "chip": "ym2612"
    },
    {
      "channel": 3,
      "note": 78,
      "start": 0.7937,
      "duration": 0.1155,
      "velocity": 77,
      "chip": "ym2612"
    },
    {
      "channel": 2,
      "note": 81,
      "start": 0.9256,
      "duration": 0.1158,
      "velocity": 77,
      "chip": "ym2612"
    },
    {
      "channel": 3,
      "note": 78,
      "start": 0.9261,
      "duration": 0.1155,
      "velocity": 77,
      "chip": "ym2612"
    },
    {
      "channel": 2,
      "note": 81,
      "start": 1.0581,
      "duration": 0.1156,
      "velocity": 77,
      "chip": "ym2612"
    },
    {
      "channel": 3,
      "note": 78,
      "start": 1.0586,
      "duration": 0.1154,
      "velocity": 77,
      "chip": "ym2612"
    },
    {
      "channel": 2,
      "note": 81,
      "start": 1.1905,
      "duration": 0.1157,
      "velocity": 77,
      "chip": "ym2612"
    },
    {
      "channel": 3,
      "note": 78,
      "start": 1.191,
      "duration": 0.1155,
      "velocity": 77,
      "chip": "ym2612"
    },
    {
      "channel": 2,
      "note": 81,
      "start": 1.3229,
      "duration": 0.1159,
      "velocity": 77,
      "chip": "ym2612"
    },
    {
      "channel": 3,
      "note": 78,
      "start": 1.3234,
      "duration": 0.1156,
      "velocity": 77,
      "chip": "ym2612"
    },
    {
      "channel": 2,
      "note": 81,
      "start": 1.4553,
      "duration": 0.1158,
      "velocity": 77,
      "chip": "ym2612"
    },
    {
      "channel": 3,
      "note": 78,
      "start": 1.4558,
      "duration": 0.1156,
      "velocity": 77,
      "chip": "ym2612"
    },
    {
      "channel": 0,
      "note": 54,
      "start": 1.5873,
      "duration": 0.3806,
      "velocity": 91,
      "chip": "ym2612"
    },
    {
      "channel": 2,
      "note": 81,
      "start": 1.5883,
      "duration": 0.1151,
      "velocity": 77,
      "chip": "ym2612"
    },
    {
      "channel": 3,
      "note": 78,
      "start": 1.589,
      "duration": 0.1146,
      "velocity": 77,
      "chip": "ym2612"
    },
    {
      "channel": 2,
      "note": 81,
      "start": 1.7202,
      "duration": 0.1156,
      "velocity": 77,
      "chip": "ym2612"
    },
    {
      "channel": 3,
      "note": 78,
      "start": 1.7207,
      "duration": 0.1154,
      "velocity": 77,
      "chip": "ym2612"
    },
    {
      "channel": 2,
      "note": 81,
      "start": 1.8526,
      "duration": 0.1158,
      "velocity": 77,
      "chip": "ym2612"
    },
    {
      "channel": 3,
      "note": 78,
      "start": 1.8531,
      "duration": 0.1156,
      "velocity": 77,
      "chip": "ym2612"
    },
    {
      "channel": 0,
      "note": 62,
      "start": 1.9845,
      "duration": 0.3805,
      "velocity": 91,
      "chip": "ym2612"
    },
    {
      "channel": 2,
      "note": 81,
      "start": 1.9852,
      "duration": 0.1155,
      "velocity": 77,
      "chip": "ym2612"
    },
    {
      "channel": 3,
      "note": 78,
      "start": 1.9857,
      "duration": 0.1153,
      "velocity": 77,
      "chip": "ym2612"
    },
    {
      "channel": 2,
      "note": 81,
      "start": 2.1173,
      "duration": 0.1159,
      "velocity": 77,
      "chip": "ym2612"
    },
    {
      "channel": 3,
      "note": 78,
      "start": 2.1179,
      "duration": 0.1156,
      "velocity": 77,
      "chip": "ym2612"
    },
    {
      "channel": 2,
      "note": 81,
      "start": 2.2498,
      "duration": 0.1158,
      "velocity": 77,
      "chip": "ym2612"
    },
    {
      "channel": 3,
      "note": 78,
      "start": 2.2504,
      "duration": 0.1155,
      "velocity": 77,
      "chip": "ym2612"
    },
    {
      "channel": 0,
      "note": 61,
      "start": 2.3819,
      "duration": 0.3805,
      "velocity": 91,
      "chip": "ym2612"
    },
    {
      "channel": 2,
      "note": 81,
      "start": 2.3825,
      "duration": 0.1155,
      "velocity": 77,
      "chip": "ym2612"
    },
    {
      "channel": 3,
      "note": 78,
      "start": 2.3831,
      "duration": 0.1153,
      "velocity": 77,
      "chip": "ym2612"
    },
    {
      "channel": 2,
      "note": 81,
      "start": 2.5147,
      "duration": 0.1159,
      "velocity": 77,
      "chip": "ym2612"
    },
    {
      "channel": 3,
      "note": 78,
      "start": 2.5153,
      "duration": 0.1156,
      "velocity": 77,
      "chip": "ym2612"
    },
    {
      "channel": 2,
      "note": 81,
      "start": 2.6473,
      "duration": 0.1159,
      "velocity": 77,
      "chip": "ym2612"
    },
    {
      "channel": 3,
      "note": 78,
      "start": 2.6479,
      "duration": 0.1156,
      "velocity": 77,
      "chip": "ym2612"
    },
    {
      "channel": 0,
      "note": 57,
      "start": 2.779,
      "duration": 0.3806,
      "velocity": 91,
      "chip": "ym2612"
    },
    {
      "channel": 2,
      "note": 81,
      "start": 2.78,
      "duration": 0.1152,
      "velocity": 77,
      "chip": "ym2612"
    },
    {
      "channel": 3,
      "note": 78,
      "start": 2.7806,
      "duration": 0.1149,
      "velocity": 77,
      "chip": "ym2612"
    },
    {
      "channel": 2,
      "note": 81,
      "start": 2.912,
      "duration": 0.1157,
      "velocity": 77,
      "chip": "ym2612"
    },
    {
      "channel": 3,
      "note": 78,
      "start": 2.9125,
      "duration": 0.1155,
      "velocity": 77,
      "chip": "ym2612"
    },
    {
      "channel": 2,
      "note": 81,
      "start": 3.0444,
      "duration": 0.1158,
      "velocity": 77,
      "chip": "ym2612"
    },
    {
      "channel": 3,
      "note": 78,
      "start": 3.0449,
      "duration": 0.1155,
      "velocity": 77,
      "chip": "ym2612"
    },
    {
      "channel": 0,
      "note": 54,
      "start": 3.1764,
      "duration": 0.3805,
      "velocity": 91,
      "chip": "ym2612"
    },
    {
      "channel": 1,
      "note": 80,
      "start": 3.1788,
      "duration": 0.0804,
      "velocity": 100,
      "chip": "ym2612"
    },
    {
      "channel": 2,
      "note": 81,
      "start": 3.1798,
      "duration": 0.1126,
      "velocity": 77,
      "chip": "ym2612"
    },
    {
      "channel": 3,
      "note": 78,
      "start": 3.1806,
      "duration": 0.1121,
      "velocity": 77,
      "chip": "ym2612"
    },
    {
      "channel": 1,
      "note": 81,
      "start": 3.2759,
      "duration": 0.0826,
      "velocity": 100,
      "chip": "ym2612"
    },
    {
      "channel": 2,
      "note": 81,
      "start": 3.3091,
      "duration": 0.1158,
      "velocity": 77,
      "chip": "ym2612"
    },
    {
      "channel": 3,
      "note": 78,
      "start": 3.3097,
      "duration": 0.1155,
      "velocity": 77,
      "chip": "ym2612"
    },
    {
      "channel": 4,
      "note": 85,
      "start": 3.3104,
      "duration": 0.0818,
      "velocity": 100,
      "chip": "ym2612"
    },
    {
      "channel": 1,
      "note": 90,
      "start": 3.3752,
      "duration": 0.0826,
      "velocity": 100,
      "chip": "ym2612"
    },
    {
      "channel": 4,
      "note": 80,
      "start": 3.409,
      "duration": 0.0826,
      "velocity": 100,
      "chip": "ym2612"
    },
    {
      "channel": 2,
      "note": 81,
      "start": 3.4415,
      "duration": 0.1159,
      "velocity": 77,
      "chip": "ym2612"
    },
    {
      "channel": 3,
      "note": 78,
      "start": 3.4421,
      "duration": 0.1156,
      "velocity": 77,
      "chip": "ym2612"
    },
    {
      "channel": 1,
      "note": 89,
      "start": 3.4744,
      "duration": 0.0828,
      "velocity": 100,
      "chip": "ym2612"
    },
    {
      "channel": 4,
      "note": 81,
      "start": 3.5083,
      "duration": 0.0826,
      "velocity": 100,
      "chip": "ym2612"
    },
    {
      "channel": 1,
      "note": 86,
      "start": 3.574,
      "duration": 0.7777,
      "velocity": 100,
      "chip": "ym2612"
    },
    {
      "channel": 2,
      "note": 81,
      "start": 3.5744,
      "duration": 0.1154,
      "velocity": 77,
      "chip": "ym2612"
    },
    {
      "channel": 3,
      "note": 78,
      "start": 3.5749,
      "duration": 0.1151,
      "velocity": 77,
      "chip": "ym2612"
    },
    {
      "channel": 4,
      "note": 90,
      "start": 3.6077,
      "duration": 0.0827,
      "velocity": 100,
      "chip": "ym2612"
    },
    {
      "channel": 2,
      "note": 81,
      "start": 3.7065,
      "duration": 0.1157,
      "velocity": 77,
      "chip": "ym2612"
    },
    {
      "channel": 3,
      "note": 78,
      "start": 3.707,
      "duration": 0.1155,
      "velocity": 77,
      "chip": "ym2612"
    },
    {
      "channel": 4,
      "note": 89,
      "start": 3.7076,
      "duration": 0.7773,
      "velocity": 100,
      "chip": "ym2612"
    },
    {
      "channel": 2,
      "note": 81,
      "start": 3.8388,
      "duration": 0.1159,
      "velocity": 77,
      "chip": "ym2612"
    },
    {
      "channel": 3,
      "note": 78,
      "start": 3.8394,
      "duration": 0.1155,
      "velocity": 77,
      "chip": "ym2612"
    },
    {
      "channel": 2,
      "note": 81,
      "start": 3.9713,
      "duration": 0.1158,
      "velocity": 77,
      "chip": "ym2612"
    },
    {
      "channel": 3,
      "note": 78,
      "start": 3.9719,
      "duration": 0.1155,
      "velocity": 77,
      "chip": "ym2612"
    },
    {
      "channel": 2,
      "note": 81,
      "start": 4.1038,
      "duration": 0.1158,
      "velocity": 77,
      "chip": "ym2612"
    },
    {
      "channel": 3,
      "note": 78,
      "start": 4.1043,
      "duration": 0.1155,
      "velocity": 77,
      "chip": "ym2612"
    },
    {
      "channel": 2,
      "note": 81,
      "start": 4.2362,
      "duration": 0.1158,
      "velocity": 77,
      "chip": "ym2612"
    },
    {
      "channel": 3,
      "note": 78,
      "start": 4.2367,
      "duration": 0.1156,
      "velocity": 77,
      "chip": "ym2612"
    },
    {
      "channel": 2,
      "note": 81,
      "start": 4.3687,
      "duration": 0.1156,
      "velocity": 77,
      "chip": "ym2612"
    },
    {
      "channel": 3,
      "note": 78,
      "start": 4.3693,
      "duration": 0.1153,
      "velocity": 77,
      "chip": "ym2612"
    },
    {
      "channel": 2,
      "note": 81,
      "start": 4.5009,
      "duration": 0.1159,
      "velocity": 77,
      "chip": "ym2612"
    },
    {
      "channel": 3,
      "note": 78,
      "start": 4.5015,
      "duration": 0.1156,
      "velocity": 77,
      "chip": "ym2612"
    },
    {
      "channel": 2,
      "note": 81,
      "start": 4.6334,
      "duration": 0.1159,
      "velocity": 77,
      "chip": "ym2612"
    },
    {
      "channel": 3,
      "note": 78,
      "start": 4.6339,
      "duration": 0.1156,
      "velocity": 77,
      "chip": "ym2612"
    },
    {
      "channel": 0,
      "note": 54,
      "start": 4.7654,
      "duration": 0.3806,
      "velocity": 91,
      "chip": "ym2612"
    },
    {
      "channel": 1,
      "note": 80,
      "start": 4.7658,
      "duration": 0.0823,
      "velocity": 100,
      "chip": "ym2612"
    },
    {
      "channel": 2,
      "note": 81,
      "start": 4.7663,
      "duration": 0.1151,
      "velocity": 77,
      "chip": "ym2612"
    },
    {
      "channel": 3,
      "note": 78,
      "start": 4.7668,
      "duration": 0.1149,
      "velocity": 77,
      "chip": "ym2612"
    },
    {
      "channel": 1,
      "note": 81,
      "start": 4.8649,
      "duration": 0.0826,
      "velocity": 100,
      "chip": "ym2612"
    },
    {
      "channel": 2,
      "note": 81,
      "start": 4.8981,
      "duration": 0.1158,
      "velocity": 77,
      "chip": "ym2612"
    },
    {
      "channel": 3,
      "note": 78,
      "start": 4.8987,
      "duration": 0.1156,
      "velocity": 77,
      "chip": "ym2612"
    },
    {
      "channel": 4,
      "note": 86,
      "start": 4.8993,
      "duration": 0.0821,
      "velocity": 100,
      "chip": "ym2612"
    },
    {
      "channel": 1,
      "note": 86,
      "start": 4.9642,
      "duration": 0.0828,
      "velocity": 100,
      "chip": "ym2612"
    },
    {
      "channel": 4,
      "note": 80,
      "start": 4.9981,
      "duration": 0.0829,
      "velocity": 100,
      "chip": "ym2612"
    },
    {
      "channel": 2,
      "note": 81,
      "start": 5.0306,
      "duration": 0.1162,
      "velocity": 77,
      "chip": "ym2612"
    },
    {
      "channel": 3,
      "note": 78,
      "start": 5.0312,
      "duration": 0.116,
      "velocity": 77,
      "chip": "ym2612"
    },
    {
      "channel": 1,
      "note": 85,
      "start": 5.0638,
      "duration": 0.0828,
      "velocity": 100,
      "chip": "ym2612"
    },
    {
      "channel": 4,
      "note": 81,
      "start": 5.0978,
      "duration": 0.0825,
      "velocity": 100,
      "chip": "ym2612"
    },
    {
      "channel": 0,
      "note": 62,
      "start": 5.1626,
      "duration": 0.3807,
      "velocity": 91,
      "chip": "ym2612"
    },
    {
      "channel": 1,
      "note": 77,
      "start": 5.1633,
      "duration": 0.7774,
      "velocity": 100,
      "chip": "ym2612"
    },
    {
      "channel": 2,
      "note": 81,
      "start": 5.1639,
      "duration": 0.1149,
      "velocity": 77,
      "chip": "ym2612"
    },
    {
      "channel": 3,
      "note": 78,
      "start": 5.1644,
      "duration": 0.1146,
      "velocity": 77,
      "chip": "ym2612"
    },
    {
      "channel": 4,
      "note": 86,
      "start": 5.1971,
      "duration": 0.0823,
      "velocity": 100,
      "chip": "ym2612"
    },
    {
      "channel": 2,
      "note": 81,
      "start": 5.2955,
      "duration": 0.1157,
      "velocity": 77,
      "chip": "ym2612"
    },
    {
      "channel": 3,
      "note": 78,
      "start": 5.296,
      "duration": 0.1155,
      "velocity": 77,
      "chip": "ym2612"
    },
    {
      "channel": 4,
      "note": 85,
      "start": 5.2971,
      "duration": 0.7768,
      "velocity": 100,
      "chip": "ym2612"
    },
    {
      "channel": 2,
      "note": 81,
      "start": 5.4278,
      "duration": 0.1159,
      "velocity": 77,
      "chip": "ym2612"
    },
    {
      "channel": 3,
      "note": 78,
      "start": 5.4284,
      "duration": 0.1156,
      "velocity": 77,
      "chip": "ym2612"
    },
    {
      "channel": 0,
      "note": 61,
      "start": 5.5598,
      "duration": 0.3806,
      "velocity": 91,
      "chip": "ym2612"
    },
    {
      "channel": 2,
      "note": 81,
      "start": 5.5605,
      "duration": 0.1155,
      "velocity": 77,
      "chip": "ym2612"
    },
    {
      "channel": 3,
      "note": 78,
      "start": 5.561,
      "duration": 0.1152,
      "velocity": 77,
      "chip": "ym2612"
    },
    {
      "channel": 2,
      "note": 81,
      "start": 5.6927,
      "duration": 0.1158,
      "velocity": 77,
      "chip": "ym2612"
    },
    {
      "channel": 3,
      "note": 78,
      "start": 5.6932,
      "duration": 0.1156,
      "velocity": 77,
      "chip": "ym2612"
    },
    {
      "channel": 2,
      "note": 81,
      "start": 5.8252,
      "duration": 0.1158,
      "velocity": 77,
      "chip": "ym2612"
    },
    {
      "channel": 3,
      "note": 78,
      "start": 5.8257,
      "duration": 0.1155,
      "velocity": 77,
      "chip": "ym2612"
    },
    {
      "channel": 0,
      "note": 57,
      "start": 5.9572,
      "duration": 0.3805,
      "velocity": 91,
      "chip": "ym2612"
    },
    {
      "channel": 2,
      "note": 81,
      "start": 5.9579,
      "duration": 0.1153,
      "velocity": 77,
      "chip": "ym2612"
    },
    {
      "channel": 3,
      "note": 78,
      "start": 5.9585,
      "duration": 0.115,
      "velocity": 77,
      "chip": "ym2612"
    },
    {
      "channel": 2,
      "note": 81,
      "start": 6.09,
      "duration": 0.1156,
      "velocity": 77,
      "chip": "ym2612"
    },
    {
      "channel": 3,
      "note": 78,
      "start": 6.0905,
      "duration": 0.1155,
      "velocity": 77,
      "chip": "ym2612"
    },
    {
      "channel": 2,
      "note": 81,
      "start": 6.2224,
      "duration": 0.1158,
      "velocity": 77,
      "chip": "ym2612"
    },
    {
      "channel": 3,
      "note": 78,
      "start": 6.223,
      "duration": 0.1154,
      "velocity": 77,
      "chip": "ym2612"
    },
    {
      "channel": 0,
      "note": 54,
      "start": 6.3544,
      "duration": 0.3805,
      "velocity": 91,
      "chip": "ym2612"
    },
    {
      "channel": 1,
      "note": 78,
      "start": 6.3549,
      "duration": 0.0824,
      "velocity": 100,
      "chip": "ym2612"
    },
    {
      "channel": 2,
      "note": 81,
      "start": 6.3553,
      "duration": 0.1153,
      "velocity": 77,
      "chip": "ym2612"
    },
    {
      "channel": 3,
      "note": 78,
      "start": 6.3558,
      "duration": 0.115,
      "velocity": 77,
      "chip": "ym2612"
    },
    {
      "channel": 1,
      "note": 81,
      "start": 6.4539,
      "duration": 0.0827,
      "velocity": 100,
      "chip": "ym2612"
    },
    {
      "channel": 2,
      "note": 81,
      "start": 6.4872,
      "duration": 0.1157,
      "velocity": 77,
      "chip": "ym2612"
    },
    {
      "channel": 3,
      "note": 78,
      "start": 6.4878,
      "duration": 0.1154,
      "velocity": 77,
      "chip": "ym2612"
    },
    {
      "channel": 4,
      "note": 77,
      "start": 6.4883,
      "duration": 0.0821,
      "velocity": 100,
      "chip": "ym2612"
    },
    {
      "channel": 1,
      "note": 90,
      "start": 6.5532,
      "duration": 0.0827,
      "velocity": 100,
      "chip": "ym2612"
    },
    {
      "channel": 4,
      "note": 78,
      "start": 6.5871,
      "duration": 0.0826,
      "velocity": 100,
      "chip": "ym2612"
    },
    {
      "channel": 2,
      "note": 81,
      "start": 6.6197,
      "duration": 0.1158,
      "velocity": 77,
      "chip": "ym2612"
    },
    {
      "channel": 3,
      "note": 78,
      "start": 6.6203,
      "duration": 0.1155,
      "velocity": 77,
      "chip": "ym2612"
    },
    {
      "channel": 1,
      "note": 89,
      "start": 6.6526,
      "duration": 0.0826,
      "velocity": 100,
      "chip": "ym2612"
    },
    {
      "channel": 4,
      "note": 81,
      "start": 6.6865,
      "duration": 0.0824,
      "velocity": 100,
      "chip": "ym2612"
    },
    {
      "channel": 1,
      "note": 85,
      "start": 6.752,
      "duration": 0.0824,
      "velocity": 100,
      "chip": "ym2612"
    },
    {
      "channel": 2,
      "note": 81,
      "start": 6.7525,
      "duration": 0.1154,
      "velocity": 77,
      "chip": "ym2612"
    },
    {
      "channel": 3,
      "note": 78,
      "start": 6.753,
      "duration": 0.1151,
      "velocity": 77,
      "chip": "ym2612"
    },
    {
      "channel": 4,
      "note": 90,
      "start": 6.7857,
      "duration": 0.0827,
      "velocity": 100,
      "chip": "ym2612"
    },
    {
      "channel": 1,
      "note": 86,
      "start": 6.8511,
      "duration": 0.0827,
      "velocity": 100,
      "chip": "ym2612"
    },
    {
      "channel": 2,
      "note": 81,
      "start": 6.8845,
      "duration": 0.1157,
      "velocity": 77,
      "chip": "ym2612"
    },
    {
      "channel": 3,
      "note": 78,
      "start": 6.8851,
      "duration": 0.1154,
      "velocity": 77,
      "chip": "ym2612"
    },
    {
      "channel": 4,
      "note": 89,
      "start": 6.8857,
      "duration": 0.0819,
      "velocity": 100,
      "chip": "ym2612"
    },
    {
      "channel": 1,
      "note": 85,
      "start": 6.9505,
      "duration": 0.0825,
      "velocity": 100,
      "chip": "ym2612"
    },
    {
      "channel": 4,
      "note": 85,
      "start": 6.9843,
      "duration": 0.0826,
      "velocity": 100,
      "chip": "ym2612"
    },
    {
      "channel": 2,
      "note": 81,
      "start": 7.0168,
      "duration": 0.1159,
      "velocity": 77,
      "chip": "ym2612"
    },
    {
      "channel": 3,
      "note": 78,
      "start": 7.0174,
      "duration": 0.1156,
      "velocity": 77,
      "chip": "ym2612"
    },
    {
      "channel": 1,
      "note": 95,
      "start": 7.0497,
      "duration": 0.0828,
      "velocity": 100,
      "chip": "ym2612"
    },
    {
      "channel": 4,
      "note": 86,
      "start": 7.0836,
      "duration": 0.0827,
      "velocity": 100,
      "chip": "ym2612"
    },
    {
      "channel": 1,
      "note": 93,
      "start": 7.1492,
      "duration": 0.0826,
      "velocity": 100,
      "chip": "ym2612"
    },
    {
      "channel": 2,
      "note": 81,
      "start": 7.1497,
      "duration": 0.1155,
      "velocity": 77,
      "chip": "ym2612"
    },
    {
      "channel": 3,
      "note": 78,
      "start": 7.1502,
      "duration": 0.1152,
      "velocity": 77,
      "chip": "ym2612"
    },
    {
      "channel": 4,
      "note": 85,
      "start": 7.183,
      "duration": 0.0828,
      "velocity": 100,
      "chip": "ym2612"
    },
    {
      "channel": 1,
      "note": 92,
      "start": 7.2484,
      "duration": 0.0827,
      "velocity": 100,
      "chip": "ym2612"
    },
    {
      "channel": 2,
      "note": 81,
      "start": 7.2817,
      "duration": 0.116,
      "velocity": 77,
      "chip": "ym2612"
    },
    {
      "channel": 3,
      "note": 78,
      "start": 7.2823,
      "duration": 0.1156,
      "velocity": 77,
      "chip": "ym2612"
    },
    {
      "channel": 4,
      "note": 95,
      "start": 7.2829,
      "duration": 0.082,
      "velocity": 100,
      "chip": "ym2612"
    },
    {
      "channel": 1,
      "note": 92,
      "start": 7.3478,
      "duration": 0.0826,
      "velocity": 100,
      "chip": "ym2612"
    },
    {
      "channel": 4,
      "note": 93,
      "start": 7.3816,
      "duration": 0.0828,
      "velocity": 100,
      "chip": "ym2612"
    },
    {
      "channel": 2,
      "note": 81,
      "start": 7.4142,
      "duration": 0.1161,
      "velocity": 77,
      "chip": "ym2612"
    },
    {
      "channel": 3,
      "note": 78,
      "start": 7.4147,
      "duration": 0.1159,
      "velocity": 77,
      "chip": "ym2612"
    },
    {
      "channel": 1,
      "note": 86,
      "start": 7.4471,
      "duration": 0.0829,
      "velocity": 100,
      "chip": "ym2612"
    },
    {
      "channel": 4,
      "note": 92,
      "start": 7.4813,
      "duration": 0.0826,
      "velocity": 100,
      "chip": "ym2612"
    },
    {
      "channel": 1,
      "note": 90,
      "start": 7.5467,
      "duration": 0.0823,
      "velocity": 100,
      "chip": "ym2612"
    },
    {
      "channel": 2,
      "note": 81,
      "start": 7.5473,
      "duration": 0.1151,
      "velocity": 77,
      "chip": "ym2612"
    },
    {
      "channel": 3,
      "note": 78,
      "start": 7.5478,
      "duration": 0.1148,
      "velocity": 77,
      "chip": "ym2612"
    },
    {
      "channel": 4,
      "note": 92,
      "start": 7.5806,
      "duration": 0.0827,
      "velocity": 100,
      "chip": "ym2612"
    },
    {
      "channel": 1,
      "note": 89,
      "start": 7.6458,
      "duration": 0.0826,
      "velocity": 100,
      "chip": "ym2612"
    },
    {
      "channel": 2,
      "note": 81,
      "start": 7.679,
      "duration": 0.1157,
      "velocity": 77,
      "chip": "ym2612"
    },
    {
      "channel": 3,
      "note": 78,
      "start": 7.68,
      "duration": 0.1151,
      "velocity": 77,
      "chip": "ym2612"
    },
    {
      "channel": 4,
      "note": 86,
      "start": 7.6806,
      "duration": 0.0816,
      "velocity": 100,
      "chip": "ym2612"
    },
    {
      "channel": 1,
      "note": 86,
      "start": 7.7451,
      "duration": 0.0826,
      "velocity": 100,
      "chip": "ym2612"
    },
    {
      "channel": 4,
      "note": 90,
      "start": 7.7789,
      "duration": 0.0826,
      "velocity": 100,
      "chip": "ym2612"
    },
    {
      "channel": 2,
      "note": 83,
      "start": 7.8114,
      "duration": 0.1159,
      "velocity": 77,
      "chip": "ym2612"
    },
    {
      "channel": 3,
      "note": 78,
      "start": 7.812,
      "duration": 0.1156,
      "velocity": 77,
      "chip": "ym2612"
    },
    {
      "channel": 1,
      "note": 83,
      "start": 7.8444,
      "duration": 0.0827,
      "velocity": 100,
      "chip": "ym2612"
    },
    {
      "channel": 4,
      "note": 89,
      "start": 7.8782,
      "duration": 0.0826,
      "velocity": 100,
      "chip": "ym2612"
    },
    {
      "channel": 0,
      "note": 56,
      "start": 7.9434,
      "duration": 0.3807,
      "velocity": 91,
      "chip": "ym2612"
    },
    {
      "channel": 1,
      "note": 80,
      "start": 7.9439,
      "duration": 1.175,
      "velocity": 100,
      "chip": "ym2612"
    },
    {
      "channel": 2,
      "note": 83,
      "start": 7.9443,
      "duration": 0.1152,
      "velocity": 77,
      "chip": "ym2612"
    },
    {
      "channel": 3,
      "note": 80,
      "start": 7.9448,
      "duration": 0.115,
      "velocity": 77,
      "chip": "ym2612"
    },
    {
      "channel": 4,
      "note": 86,
      "start": 7.9775,
      "duration": 0.0827,
      "velocity": 100,
      "chip": "ym2612"
    },
    {
      "channel": 2,
      "note": 80,
      "start": 8.0763,
      "duration": 0.1157,
      "velocity": 77,
      "chip": "ym2612"
    },
    {
      "channel": 3,
      "note": 80,
      "start": 8.0768,
      "duration": 0.1155,
      "velocity": 77,
      "chip": "ym2612"
    },
    {
      "channel": 4,
      "note": 83,
      "start": 8.0774,
      "duration": 1.1746,
      "velocity": 100,
      "chip": "ym2612"
    },
    {
      "channel": 2,
      "note": 80,
      "start": 8.2088,
      "duration": 0.1159,
      "velocity": 77,
      "chip": "ym2612"
    },
    {
      "channel": 3,
      "note": 77,
      "start": 8.2093,
      "duration": 0.1156,
      "velocity": 77,
      "chip": "ym2612"
    },
    {
      "channel": 0,
      "note": 59,
      "start": 8.3407,
      "duration": 0.3806,
      "velocity": 91,
      "chip": "ym2612"
    },
    {
      "channel": 2,
      "note": 80,
      "start": 8.3413,
      "duration": 0.1155,
      "velocity": 77,
      "chip": "ym2612"
    },
    {
      "channel": 3,
      "note": 77,
      "start": 8.3419,
      "duration": 0.1153,
      "velocity": 77,
      "chip": "ym2612"
    },
    {
      "channel": 2,
      "note": 77,
      "start": 8.4736,
      "duration": 0.1158,
      "velocity": 77,
      "chip": "ym2612"
    },
    {
      "channel": 3,
      "note": 77,
      "start": 8.4741,
      "duration": 0.1156,
      "velocity": 77,
      "chip": "ym2612"
    },
    {
      "channel": 2,
      "note": 77,
      "start": 8.606,
      "duration": 0.1158,
      "velocity": 77,
      "chip": "ym2612"
    },
    {
      "channel": 3,
      "note": 73,
      "start": 8.6065,
      "duration": 0.1156,
      "velocity": 77,
      "chip": "ym2612"
    },
    {
      "channel": 0,
      "note": 53,
      "start": 8.738,
      "duration": 0.3805,
      "velocity": 91,
      "chip": "ym2612"
    },
    {
      "channel": 2,
      "note": 77,
      "start": 8.7387,
      "duration": 0.1155,
      "velocity": 77,
      "chip": "ym2612"
    },
    {
      "channel": 3,
      "note": 73,
      "start": 8.7392,
      "duration": 0.1151,
      "velocity": 77,
      "chip": "ym2612"
    },
    {
      "channel": 2,
      "note": 80,
      "start": 8.8708,
      "duration": 0.1158,
      "velocity": 77,
      "chip": "ym2612"
    },
    {
      "channel": 3,
      "note": 73,
      "start": 8.8714,
      "duration": 0.1155,
      "velocity": 77,
      "chip": "ym2612"
    },
    {
      "channel": 2,
      "note": 86,
      "start": 9.0033,
      "duration": 0.1159,
      "velocity": 77,
      "chip": "ym2612"
    },
    {
      "channel": 3,
      "note": 77,
      "start": 9.0038,
      "duration": 0.1156,
      "velocity": 77,
      "chip": "ym2612"
    },
    {
      "channel": 0,
      "note": 56,
      "start": 9.1353,
      "duration": 0.3805,
      "velocity": 91,
      "chip": "ym2612"
    },
    {
      "channel": 2,
      "note": 86,
      "start": 9.1361,
      "duration": 0.1153,
      "velocity": 77,
      "chip": "ym2612"
    },
    {
      "channel": 3,
      "note": 83,
      "start": 9.1366,
      "duration": 0.1151,
      "velocity": 77,
      "chip": "ym2612"
    },
    {
      "channel": 2,
      "note": 85,
      "start": 9.268,
      "duration": 0.1158,
      "velocity": 77,
      "chip": "ym2612"
    },
    {
      "channel": 3,
      "note": 83,
      "start": 9.2685,
      "duration": 0.1155,
      "velocity": 77,
      "chip": "ym2612"
    },
    {
      "channel": 1,
      "note": 80,
      "start": 9.334,
      "duration": 0.182,
      "velocity": 100,
      "chip": "ym2612"
    },
    {
      "channel": 2,
      "note": 83,
      "start": 9.4005,
      "duration": 0.1158,
      "velocity": 77,
      "chip": "ym2612"
    },
    {
      "channel": 3,
      "note": 81,
      "start": 9.4011,
      "duration": 0.1155,
      "velocity": 77,
      "chip": "ym2612"
    },
    {
      "channel": 4,
      "note": 80,
      "start": 9.4673,
      "duration": 0.1819,
      "velocity": 100,
      "chip": "ym2612"
    },
    {
      "channel": 0,
      "note": 49,
      "start": 9.5325,
      "duration": 0.3808,
      "velocity": 91,
      "chip": "ym2612"
    },
    {
      "channel": 1,
      "note": 77,
      "start": 9.5329,
      "duration": 0.1817,
      "velocity": 100,
      "chip": "ym2612"
    },
    {
      "channel": 2,
      "note": 80,
      "start": 9.5334,
      "duration": 0.1153,
      "velocity": 77,
      "chip": "ym2612"
    },
    {
      "channel": 3,
      "note": 80,
      "start": 9.5339,
      "duration": 0.115,
      "velocity": 77,
      "chip": "ym2612"
    },
    {
      "channel": 2,
      "note": 80,
      "start": 9.6654,
      "duration": 0.1157,
      "velocity": 77,
      "chip": "ym2612"
    },
    {
      "channel": 3,
      "note": 77,
      "start": 9.6659,
      "duration": 0.1154,
      "velocity": 77,
      "chip": "ym2612"
    },
    {
      "channel": 4,
      "note": 80,
      "start": 9.6665,
      "duration": 0.1814,
      "velocity": 100,
      "chip": "ym2612"
    },
    {
      "channel": 1,
      "note": 77,
      "start": 9.7313,
      "duration": 0.1824,
      "velocity": 100,
      "chip": "ym2612"
    },
    {
      "channel": 2,
      "note": 80,
      "start": 9.7977,
      "duration": 0.1162,
      "velocity": 77,
      "chip": "ym2612"
    },
    {
      "channel": 3,
      "note": 77,
      "start": 9.7982,
      "duration": 0.116,
      "velocity": 77,
      "chip": "ym2612"
    },
    {
      "channel": 4,
      "note": 77,
      "start": 9.8646,
      "duration": 0.1822,
      "velocity": 100,
      "chip": "ym2612"
    },
    {
      "channel": 2,
      "note": 80,
      "start": 9.9308,
      "duration": 0.1151,
      "velocity": 77,
      "chip": "ym2612"
    },
    {
      "channel": 3,
      "note": 77,
      "start": 9.9313,
      "duration": 0.1151,
      "velocity": 77,
      "chip": "ym2612"
    },
    {
      "channel": 2,
      "note": 80,
      "start": 10.0626,
      "duration": 0.1158,
      "velocity": 77,
      "chip": "ym2612"
    },
    {
      "channel": 3,
      "note": 77,
      "start": 10.0635,
      "duration": 0.1151,
      "velocity": 77,
      "chip": "ym2612"
    },
    {
      "channel": 1,
      "note": 77,
      "start": 10.1286,
      "duration": 0.1819,
      "velocity": 100,
      "chip": "ym2612"
    },
    {
      "channel": 2,
      "note": 80,
      "start": 10.195,
      "duration": 0.1158,
      "velocity": 77,
      "chip": "ym2612"
    },
    {
      "channel": 3,
      "note": 77,
      "start": 10.1955,
      "duration": 0.1155,
      "velocity": 77,
      "chip": "ym2612"
    },
    {
      "channel": 4,
      "note": 77,
      "start": 10.2617,
      "duration": 0.182,
      "velocity": 100,
      "chip": "ym2612"
    },
    {
      "channel": 1,
      "note": 83,
      "start": 10.3273,
      "duration": 0.1819,
      "velocity": 100,
      "chip": "ym2612"
    },
    {
      "channel": 2,
      "note": 80,
      "start": 10.3277,
      "duration": 0.1155,
      "velocity": 77,
      "chip": "ym2612"
    },
    {
      "channel": 3,
      "note": 77,
      "start": 10.3282,
      "duration": 0.1152,
      "velocity": 77,
      "chip": "ym2612"
    },
    {
      "channel": 2,
      "note": 80,
      "start": 10.4599,
      "duration": 0.1157,
      "velocity": 77,
      "chip": "ym2612"
    },
    {
      "channel": 3,
      "note": 77,
      "start": 10.4604,
      "duration": 0.1155,
      "velocity": 77,
      "chip": "ym2612"
    },
    {
      "channel": 4,
      "note": 77,
      "start": 10.461,
      "duration": 0.1814,
      "velocity": 100,
      "chip": "ym2612"
    },
    {
      "channel": 1,
      "note": 83,
      "start": 10.5259,
      "duration": 0.1819,
      "velocity": 100,
      "chip": "ym2612"
    },
    {
      "channel": 2,
      "note": 80,
      "start": 10.5923,
      "duration": 0.1158,
      "velocity": 77,
      "chip": "ym2612"
    },
    {
      "channel": 3,
      "note": 77,
      "start": 10.5929,
      "duration": 0.1155,
      "velocity": 77,
      "chip": "ym2612"
    },
    {
      "channel": 4,
      "note": 83,
      "start": 10.659,
      "duration": 0.182,
      "velocity": 100,
      "chip": "ym2612"
    },
    {
      "channel": 2,
      "note": 80,
      "start": 10.7249,
      "duration": 0.1156,
      "velocity": 77,
      "chip": "ym2612"
    },
    {
      "channel": 3,
      "note": 77,
      "start": 10.7254,
      "duration": 0.1154,
      "velocity": 77,
      "chip": "ym2612"
    },
    {
      "channel": 2,
      "note": 81,
      "start": 10.8572,
      "duration": 0.1156,
      "velocity": 77,
      "chip": "ym2612"
    },
    {
      "channel": 3,
      "note": 77,
      "start": 10.8577,
      "duration": 0.1154,
      "velocity": 77,
      "chip": "ym2612"
    },
    {
      "channel": 1,
      "note": 86,
      "start": 10.9231,
      "duration": 0.182,
      "velocity": 100,
      "chip": "ym2612"
    },
    {
      "channel": 2,
      "note": 83,
      "start": 10.9895,
      "duration": 0.1158,
      "velocity": 77,
      "chip": "ym2612"
    },
    {
      "channel": 3,
      "note": 78,
      "start": 10.9901,
      "duration": 0.1155,
      "velocity": 77,
      "chip": "ym2612"
    },
    {
      "channel": 4,
      "note": 83,
      "start": 11.0563,
      "duration": 0.182,
      "velocity": 100,
      "chip": "ym2612"
    },
    {
      "channel": 0,
      "note": 54,
      "start": 11.1215,
      "duration": 0.3806,
      "velocity": 91,
      "chip": "ym2612"
    },
    {
      "channel": 1,
      "note": 82,
      "start": 11.1221,
      "duration": 0.1817,
      "velocity": 100,
      "chip": "ym2612"
    },
    {
      "channel": 2,
      "note": 82,
      "start": 11.1225,
      "duration": 0.1152,
      "velocity": 77,
      "chip": "ym2612"
    },
    {
      "channel": 3,
      "note": 80,
      "start": 11.123,
      "duration": 0.1149,
      "velocity": 77,
      "chip": "ym2612"
    },
    {
      "channel": 2,
      "note": 82,
      "start": 11.2544,
      "duration": 0.1156,
      "velocity": 77,
      "chip": "ym2612"
    },
    {
      "channel": 3,
      "note": 78,
      "start": 11.2549,
      "duration": 0.1153,
      "velocity": 77,
      "chip": "ym2612"
    },
    {
      "channel": 4,
      "note": 86,
      "start": 11.2555,
      "duration": 0.1812,
      "velocity": 100,
      "chip": "ym2612"
    },
    {
      "channel": 1,
      "note": 82,
      "start": 11.3204,
      "duration": 0.182,
      "velocity": 100,
      "chip": "ym2612"
    },
    {
      "channel": 2,
      "note": 82,
      "start": 11.3868,
      "duration": 0.1158,
      "velocity": 77,
      "chip": "ym2612"
    },
    {
      "channel": 3,
      "note": 78,
      "start": 11.3873,
      "duration": 0.1156,
      "velocity": 77,
      "chip": "ym2612"
    },
    {
      "channel": 4,
      "note": 82,
      "start": 11.4536,
      "duration": 0.1819,
      "velocity": 100,
      "chip": "ym2612"
    },
    {
      "channel": 2,
      "note": 82,
      "start": 11.5194,
      "duration": 0.1155,
      "velocity": 77,
      "chip": "ym2612"
    },
    {
      "channel": 3,
      "note": 78,
      "start": 11.5199,
      "duration": 0.1152,
      "velocity": 77,
      "chip": "ym2612"
    },
    {
      "channel": 2,
      "note": 82,
      "start": 11.6516,
      "duration": 0.1158,
      "velocity": 77,
      "chip": "ym2612"
    },
    {
      "channel": 3,
      "note": 78,
      "start": 11.6521,
      "duration": 0.1155,
      "velocity": 77,
      "chip": "ym2612"
    },
    {
      "channel": 1,
      "note": 90,
      "start": 11.7176,
      "duration": 0.182,
      "velocity": 100,
      "chip": "ym2612"
    },
    {
      "channel": 2,
      "note": 82,
      "start": 11.7839,
      "duration": 0.1159,
      "velocity": 77,
      "chip": "ym2612"
    },
    {
      "channel": 3,
      "note": 78,
      "start": 11.7845,
      "duration": 0.1156,
      "velocity": 77,
      "chip": "ym2612"
    },
    {
      "channel": 4,
      "note": 82,
      "start": 11.8509,
      "duration": 0.182,
      "velocity": 100,
      "chip": "ym2612"
    },
    {
      "channel": 1,
      "note": 90,
      "start": 11.9163,
      "duration": 0.182,
      "velocity": 100,
      "chip": "ym2612"
    },
    {
      "channel": 2,
      "note": 82,
      "start": 11.9167,
      "duration": 0.1155,
      "velocity": 77,
      "chip": "ym2612"
    },
    {
      "channel": 3,
      "note": 78,
      "start": 11.9173,
      "duration": 0.1152,
      "velocity": 77,
      "chip": "ym2612"
    },
    {
      "channel": 2,
      "note": 83,
      "start": 12.0488,
      "duration": 0.1158,
      "velocity": 77,
      "chip": "ym2612"
    },
    {
      "channel": 3,
      "note": 78,
      "start": 12.0494,
      "duration": 0.1156,
      "velocity": 77,
      "chip": "ym2612"
    },
    {
      "channel": 4,
      "note": 90,
      "start": 12.05,
      "duration": 0.1814,
      "velocity": 100,
      "chip": "ym2612"
    },
    {
      "channel": 1,
      "note": 85,
      "start": 12.1149,
      "duration": 0.1821,
      "velocity": 100,
      "chip": "ym2612"
    },
    {
      "channel": 2,
      "note": 85,
      "start": 12.1813,
      "duration": 0.1159,
      "velocity": 77,
      "chip": "ym2612"
    },
    {
      "channel": 3,
      "note": 80,
      "start": 12.1819,
      "duration": 0.1156,
      "velocity": 77,
      "chip": "ym2612"
    },
    {
      "channel": 4,
      "note": 90,
      "start": 12.2482,
      "duration": 0.1823,
      "velocity": 100,
      "chip": "ym2612"
    },
    {
      "channel": 2,
      "note": 88,
      "start": 12.3142,
      "duration": 0.1156,
      "velocity": 77,
      "chip": "ym2612"
    },
    {
      "channel": 3,
      "note": 82,
      "start": 12.3147,
      "duration": 0.1154,
      "velocity": 77,
      "chip": "ym2612"
    },
    {
      "channel": 2,
      "note": 86,
      "start": 12.4466,
      "duration": 0.1153,
      "velocity": 77,
      "chip": "ym2612"
    },
    {
      "channel": 3,
      "note": 85,
      "start": 12.4472,
      "duration": 0.1149,
      "velocity": 77,
      "chip": "ym2612"
    },
    {
      "channel": 2,
      "note": 85,
      "start": 12.5787,
      "duration": 0.1157,
      "velocity": 77,
      "chip": "ym2612"
    },
    {
      "channel": 3,
      "note": 83,
      "start": 12.5792,
      "duration": 0.1155,
      "velocity": 77,
      "chip": "ym2612"
    },
    {
      "channel": 0,
      "note": 47,
      "start": 12.7106,
      "duration": 0.7778,
      "velocity": 91,
      "chip": "ym2612"
    },
    {
      "channel": 1,
      "note": 86,
      "start": 12.711,
      "duration": 0.281,
      "velocity": 100,
      "chip": "ym2612"
    },
    {
      "channel": 2,
      "note": 86,
      "start": 12.7115,
      "duration": 0.1151,
      "velocity": 77,
      "chip": "ym2612"
    },
    {
      "channel": 3,
      "note": 82,
      "start": 12.7121,
      "duration": 0.1148,
      "velocity": 77,
      "chip": "ym2612"
    },
    {
      "channel": 2,
      "note": 86,
      "start": 12.8434,
      "duration": 0.1157,
      "velocity": 77,
      "chip": "ym2612"
    },
    {
      "channel": 3,
      "note": 83,
      "start": 12.8439,
      "duration": 0.1154,
      "velocity": 77,
      "chip": "ym2612"
    },
    {
      "channel": 4,
      "note": 85,
      "start": 12.8445,
      "duration": 0.2807,
      "velocity": 100,
      "chip": "ym2612"
    },
    {
      "channel": 2,
      "note": 86,
      "start": 12.9759,
      "duration": 0.1157,
      "velocity": 77,
      "chip": "ym2612"
    },
    {
      "channel": 3,
      "note": 83,
      "start": 12.9764,
      "duration": 0.1154,
      "velocity": 77,
      "chip": "ym2612"
    },
    {
      "channel": 1,
      "note": 85,
      "start": 13.0088,
      "duration": 0.0826,
      "velocity": 100,
      "chip": "ym2612"
    },
    {
      "channel": 1,
      "note": 83,
      "start": 13.1081,
      "duration": 0.0826,
      "velocity": 100,
      "chip": "ym2612"
    },
    {
      "channel": 2,
      "note": 86,
      "start": 13.1085,
      "duration": 0.1155,
      "velocity": 77,
      "chip": "ym2612"
    },
    {
      "channel": 3,
      "note": 83,
      "start": 13.109,
      "duration": 0.1153,
      "velocity": 77,
      "chip": "ym2612"
    },
    {
      "channel": 4,
      "note": 86,
      "start": 13.142,
      "duration": 0.0826,
      "velocity": 100,
      "chip": "ym2612"
    },
    {
      "channel": 1,
      "note": 81,
      "start": 13.2074,
      "duration": 0.0825,
      "velocity": 100,
      "chip": "ym2612"
    },
    {
      "channel": 2,
      "note": 86,
      "start": 13.2407,
      "duration": 0.1157,
      "velocity": 77,
      "chip": "ym2612"
    },
    {
      "channel": 3,
      "note": 83,
      "start": 13.2413,
      "duration": 0.1155,
      "velocity": 77,
      "chip": "ym2612"
    },
    {
      "channel": 4,
      "note": 85,
      "start": 13.2418,
      "duration": 0.0819,
      "velocity": 100,
      "chip": "ym2612"
    },
    {
      "channel": 1,
      "note": 80,
      "start": 13.3067,
      "duration": 0.0826,
      "velocity": 100,
      "chip": "ym2612"
    },
    {
      "channel": 4,
      "note": 83,
      "start": 13.3406,
      "duration": 0.0825,
      "velocity": 100,
      "chip": "ym2612"
    },
    {
      "channel": 2,
      "note": 86,
      "start": 13.3731,
      "duration": 0.1158,
      "velocity": 77,
      "chip": "ym2612"
    },
    {
      "channel": 3,
      "note": 83,
      "start": 13.3737,
      "duration": 0.1155,
      "velocity": 77,
      "chip": "ym2612"
    },
    {
      "channel": 1,
      "note": 85,
      "start": 13.4061,
      "duration": 0.0826,
      "velocity": 100,
      "chip": "ym2612"
    },
    {
      "channel": 4,
      "note": 81,
      "start": 13.4399,
      "duration": 0.0826,
      "velocity": 100,
      "chip": "ym2612"
    },
    {
      "channel": 0,
      "note": 48,
      "start": 13.5051,
      "duration": 0.7778,
      "velocity": 91,
      "chip": "ym2612"
    },
    {
      "channel": 1,
      "note": 84,
      "start": 13.5056,
      "duration": 0.0823,
      "velocity": 100,
      "chip": "ym2612"
    },
    {
      "channel": 2,
      "note": 87,
      "start": 13.506,
      "duration": 0.1151,
      "velocity": 77,
      "chip": "ym2612"
    },
    {
      "channel": 3,
      "note": 83,
      "start": 13.5066,
      "duration": 0.1148,
      "velocity": 77,
      "chip": "ym2612"
    },
    {
      "channel": 4,
      "note": 80,
      "start": 13.5392,
      "duration": 0.0826,
      "velocity": 100,
      "chip": "ym2612"
    },
    {
      "channel": 1,
      "note": 87,
      "start": 13.6046,
      "duration": 0.0826,
      "velocity": 100,
      "chip": "ym2612"
    },
    {
      "channel": 2,
      "note": 87,
      "start": 13.6379,
      "duration": 0.1157,
      "velocity": 77,
      "chip": "ym2612"
    },
    {
      "channel": 3,
      "note": 84,
      "start": 13.6384,
      "duration": 0.1154,
      "velocity": 77,
      "chip": "ym2612"
    },
    {
      "channel": 4,
      "note": 85,
      "start": 13.639,
      "duration": 0.0821,
      "velocity": 100,
      "chip": "ym2612"
    },
    {
      "channel": 1,
      "note": 92,
      "start": 13.7039,
      "duration": 0.182,
      "velocity": 100,
      "chip": "ym2612"
    },
    {
      "channel": 4,
      "note": 84,
      "start": 13.7377,
      "duration": 0.0826,
      "velocity": 100,
      "chip": "ym2612"
    },
    {
      "channel": 2,
      "note": 87,
      "start": 13.7704,
      "duration": 0.1156,
      "velocity": 77,
      "chip": "ym2612"
    },
    {
      "channel": 3,
      "note": 84,
      "start": 13.7709,
      "duration": 0.1155,
      "velocity": 77,
      "chip": "ym2612"
    },
    {
      "channel": 4,
      "note": 87,
      "start": 13.8371,
      "duration": 0.182,
      "velocity": 100,
      "chip": "ym2612"
    },
    {
      "channel": 2,
      "note": 87,
      "start": 13.9028,
      "duration": 0.1157,
      "velocity": 77,
      "chip": "ym2612"
    },
    {
      "channel": 3,
      "note": 84,
      "start": 13.9034,
      "duration": 0.1153,
      "velocity": 77,
      "chip": "ym2612"
    },
    {
      "channel": 2,
      "note": 92,
      "start": 14.0352,
      "duration": 0.1157,
      "velocity": 77,
      "chip": "ym2612"
    },
    {
      "channel": 3,
      "note": 84,
      "start": 14.0358,
      "duration": 0.1154,
      "velocity": 77,
      "chip": "ym2612"
    },
    {
      "channel": 2,
      "note": 90,
      "start": 14.1676,
      "duration": 0.1158,
      "velocity": 77,
      "chip": "ym2612"
    },
    {
      "channel": 3,
      "note": 89,
      "start": 14.1682,
      "duration": 0.1155,
      "velocity": 77,
      "chip": "ym2612"
    },
    {
      "channel": 0,
      "note": 61,
      "start": 14.2997,
      "duration": 0.7778,
      "velocity": 91,
      "chip": "ym2612"
    },
    {
      "channel": 1,
      "note": 89,
      "start": 14.3001,
      "duration": 0.1155,
      "velocity": 100,
      "chip": "ym2612"
    },
    {
      "channel": 2,
      "note": 92,
      "start": 14.3005,
      "duration": 0.1153,
      "velocity": 77,
      "chip": "ym2612"
    },
    {
      "channel": 3,
      "note": 87,
      "start": 14.3011,
      "duration": 0.115,
      "velocity": 77,
      "chip": "ym2612"
    },
    {
      "channel": 1,
      "note": 86,
      "start": 14.4322,
      "duration": 0.1157,
      "velocity": 100,
      "chip": "ym2612"
    },
    {
      "channel": 2,
      "note": 92,
      "start": 14.4327,
      "duration": 0.1155,
      "velocity": 77,
      "chip": "ym2612"
    },
    {
      "channel": 3,
      "note": 89,
      "start": 14.4332,
      "duration": 0.1153,
      "velocity": 77,
      "chip": "ym2612"
    },
    {
      "channel": 4,
      "note": 92,
      "start": 14.4338,
      "duration": 0.115,
      "velocity": 100,
      "chip": "ym2612"
    },
    {
      "channel": 1,
      "note": 85,
      "start": 14.5647,
      "duration": 0.1159,
      "velocity": 100,
      "chip": "ym2612"
    },
    {
      "channel": 2,
      "note": 92,
      "start": 14.5651,
      "duration": 0.1156,
      "velocity": 77,
      "chip": "ym2612"
    },
    {
      "channel": 3,
      "note": 89,
      "start": 14.5656,
      "duration": 0.1154,
      "velocity": 77,
      "chip": "ym2612"
    },
    {
      "channel": 4,
      "note": 89,
      "start": 14.5663,
      "duration": 0.1151,
      "velocity": 100,
      "chip": "ym2612"
    },
    {
      "channel": 1,
      "note": 83,
      "start": 14.6972,
      "duration": 0.116,
      "velocity": 100,
      "chip": "ym2612"
    },
    {
      "channel": 2,
      "note": 92,
      "start": 14.6976,
      "duration": 0.1158,
      "velocity": 77,
      "chip": "ym2612"
    },
    {
      "channel": 3,
      "note": 89,
      "start": 14.6981,
      "duration": 0.1156,
      "velocity": 77,
      "chip": "ym2612"
    },
    {
      "channel": 4,
      "note": 86,
      "start": 14.6987,
      "duration": 0.1153,
      "velocity": 100,
      "chip": "ym2612"
    },
    {
      "channel": 1,
      "note": 80,
      "start": 14.83,
      "duration": 0.1153,
      "velocity": 100,
      "chip": "ym2612"
    },
    {
      "channel": 2,
      "note": 92,
      "start": 14.8304,
      "duration": 0.1151,
      "velocity": 77,
      "chip": "ym2612"
    },
    {
      "channel": 3,
      "note": 89,
      "start": 14.831,
      "duration": 0.1148,
      "velocity": 77,
      "chip": "ym2612"
    },
    {
      "channel": 4,
      "note": 85,
      "start": 14.8315,
      "duration": 0.1146,
      "velocity": 100,
      "chip": "ym2612"
    },
    {
      "channel": 1,
      "note": 77,
      "start": 14.962,
      "duration": 0.1158,
      "velocity": 100,
      "chip": "ym2612"
    },
    {
      "channel": 2,
      "note": 92,
      "start": 14.9624,
      "duration": 0.1155,
      "velocity": 77,
      "chip": "ym2612"
    },
    {
      "channel": 3,
      "note": 89,
      "start": 14.9633,
      "duration": 0.115,
      "velocity": 77,
      "chip": "ym2612"
    },
    {
      "channel": 4,
      "note": 83,
      "start": 14.964,
      "duration": 0.1146,
      "velocity": 100,
      "chip": "ym2612"
    },
    {
      "channel": 0,
      "note": 49,
      "start": 15.0942,
      "duration": 0.7778,
      "velocity": 91,
      "chip": "ym2612"
    },
    {
      "channel": 1,
      "note": 71,
      "start": 15.0946,
      "duration": 0.1154,
      "velocity": 100,
      "chip": "ym2612"
    },
    {
      "channel": 2,
      "note": 92,
      "start": 15.0951,
      "duration": 0.1152,
      "velocity": 77,
      "chip": "ym2612"
    },
    {
      "channel": 3,
      "note": 89,
      "start": 15.0956,
      "duration": 0.115,
      "velocity": 77,
      "chip": "ym2612"
    },
    {
      "channel": 4,
      "note": 80,
      "start": 15.0966,
      "duration": 0.1144,
      "velocity": 100,
      "chip": "ym2612"
    },
    {
      "channel": 1,
      "note": 73,
      "start": 15.2268,
      "duration": 0.1157,
      "velocity": 100,
      "chip": "ym2612"
    },
    {
      "channel": 2,
      "note": 89,
      "start": 15.2273,
      "duration": 0.1154,
      "velocity": 77,
      "chip": "ym2612"
    },
    {
      "channel": 3,
      "note": 89,
      "start": 15.2278,
      "duration": 0.1153,
      "velocity": 77,
      "chip": "ym2612"
    },
    {
      "channel": 4,
      "note": 77,
      "start": 15.2283,
      "duration": 0.115,
      "velocity": 100,
      "chip": "ym2612"
    },
    {
      "channel": 1,
      "note": 74,
      "start": 15.3591,
      "duration": 0.1158,
      "velocity": 100,
      "chip": "ym2612"
    },
    {
      "channel": 2,
      "note": 89,
      "start": 15.3596,
      "duration": 0.1156,
      "velocity": 77,
      "chip": "ym2612"
    },
    {
      "channel": 3,
      "note": 85,
      "start": 15.3601,
      "duration": 0.1154,
      "velocity": 77,
      "chip": "ym2612"
    },
    {
      "channel": 4,
      "note": 71,
      "start": 15.3607,
      "duration": 0.1151,
      "velocity": 100,
      "chip": "ym2612"
    },
    {
      "channel": 1,
      "note": 77,
      "start": 15.4916,
      "duration": 0.1158,
      "velocity": 100,
      "chip": "ym2612"
    },
    {
      "channel": 2,
      "note": 89,
      "start": 15.492,
      "duration": 0.1156,
      "velocity": 77,
      "chip": "ym2612"
    },
    {
      "channel": 3,
      "note": 85,
      "start": 15.4925,
      "duration": 0.1154,
      "velocity": 77,
      "chip": "ym2612"
    },
    {
      "channel": 4,
      "note": 73,
      "start": 15.4932,
      "duration": 0.1151,
      "velocity": 100,
      "chip": "ym2612"
    },
    {
      "channel": 1,
      "note": 80,
      "start": 15.624,
      "duration": 0.1158,
      "velocity": 100,
      "chip": "ym2612"
    },
    {
      "channel": 2,
      "note": 89,
      "start": 15.6245,
      "duration": 0.1156,
      "velocity": 77,
      "chip": "ym2612"
    },
    {
      "channel": 3,
      "note": 85,
      "start": 15.6251,
      "duration": 0.1153,
      "velocity": 77,
      "chip": "ym2612"
    },
    {
      "channel": 4,
      "note": 74,
      "start": 15.6256,
      "duration": 0.1151,
      "velocity": 100,
      "chip": "ym2612"
    },
    {
      "channel": 1,
      "note": 85,
      "start": 15.7565,
      "duration": 0.1158,
      "velocity": 100,
      "chip": "ym2612"
    },
    {
      "channel": 2,
      "note": 89,
      "start": 15.7569,
      "duration": 0.1156,
      "velocity": 77,
      "chip": "ym2612"
    },
    {
      "channel": 3,
      "note": 85,
      "start": 15.7574,
      "duration": 0.1154,
      "velocity": 77,
      "chip": "ym2612"
    },
    {
      "channel": 4,
      "note": 77,
      "start": 15.7581,
      "duration": 0.1151,
      "velocity": 100,
      "chip": "ym2612"
    },
    {
      "channel": 0,
      "note": 54,
      "start": 15.8887,
      "duration": 0.3805,
      "velocity": 91,
      "chip": "ym2612"
    },
    {
      "channel": 1,
      "note": 83,
      "start": 15.8891,
      "duration": 0.0824,
      "velocity": 100,
      "chip": "ym2612"
    },
    {
      "channel": 2,
      "note": 81,
      "start": 15.8896,
      "duration": 0.1151,
      "velocity": 77,
      "chip": "ym2612"
    },
    {
      "channel": 3,
      "note": 85,
      "start": 15.8901,
      "duration": 0.115,
      "velocity": 77,
      "chip": "ym2612"
    },
    {
      "channel": 4,
      "note": 80,
      "start": 15.8907,
      "duration": 0.1147,
      "velocity": 100,
      "chip": "ym2612"
    },
    {
      "channel": 1,
      "note": 81,
      "start": 15.9881,
      "duration": 0.0827,
      "velocity": 100,
      "chip": "ym2612"
    },
    {
      "channel": 2,
      "note": 81,
      "start": 16.0215,
      "duration": 0.1158,
      "velocity": 77,
      "chip": "ym2612"
    },
    {
      "channel": 3,
      "note": 78,
      "start": 16.022,
      "duration": 0.1155,
      "velocity": 77,
      "chip": "ym2612"
    },
    {
      "channel": 4,
      "note": 85,
      "start": 16.0229,
      "duration": 0.0817,
      "velocity": 100,
      "chip": "ym2612"
    },
    {
      "channel": 1,
      "note": 80,
      "start": 16.0875,
      "duration": 0.0826,
      "velocity": 100,
      "chip": "ym2612"
    },
    {
      "channel": 4,
      "note": 83,
      "start": 16.1214,
      "duration": 0.0825,
      "velocity": 100,
      "chip": "ym2612"
    },
    {
      "channel": 2,
      "note": 81,
      "start": 16.1539,
      "duration": 0.1157,
      "velocity": 77,
      "chip": "ym2612"
    },
    {
      "channel": 3,
      "note": 78,
      "start": 16.1544,
      "duration": 0.1155,
      "velocity": 77,
      "chip": "ym2612"
    },
    {
      "channel": 1,
      "note": 81,
      "start": 16.1868,
      "duration": 0.0826,
      "velocity": 100,
      "chip": "ym2612"
    },
    {
      "channel": 4,
      "note": 81,
      "start": 16.2207,
      "duration": 0.0826,
      "velocity": 100,
      "chip": "ym2612"
    },
    {
      "channel": 1,
      "note": 80,
      "start": 16.2862,
      "duration": 0.0827,
      "velocity": 100,
      "chip": "ym2612"
    },
    {
      "channel": 2,
      "note": 81,
      "start": 16.2866,
      "duration": 0.1154,
      "velocity": 77,
      "chip": "ym2612"
    },
    {
      "channel": 3,
      "note": 78,
      "start": 16.2872,
      "duration": 0.1151,
      "velocity": 77,
      "chip": "ym2612"
    },
    {
      "channel": 4,
      "note": 80,
      "start": 16.32,
      "duration": 0.0827,
      "velocity": 100,
      "chip": "ym2612"
    },
    {
      "channel": 1,
      "note": 78,
      "start": 16.3855,
      "duration": 0.0826,
      "velocity": 100,
      "chip": "ym2612"
    },
    {
      "channel": 2,
      "note": 81,
      "start": 16.4188,
      "duration": 0.1157,
      "velocity": 77,
      "chip": "ym2612"
    },
    {
      "channel": 3,
      "note": 78,
      "start": 16.4193,
      "duration": 0.1155,
      "velocity": 77,
      "chip": "ym2612"
    },
    {
      "channel": 4,
      "note": 81,
      "start": 16.4199,
      "duration": 0.082,
      "velocity": 100,
      "chip": "ym2612"
    },
    {
      "channel": 1,
      "note": 80,
      "start": 16.4848,
      "duration": 0.0825,
      "velocity": 100,
      "chip": "ym2612"
    },
    {
      "channel": 4,
      "note": 80,
      "start": 16.5186,
      "duration": 0.0826,
      "velocity": 100,
      "chip": "ym2612"
    },
    {
      "channel": 2,
      "note": 81,
      "start": 16.5511,
      "duration": 0.1158,
      "velocity": 77,
      "chip": "ym2612"
    },
    {
      "channel": 3,
      "note": 78,
      "start": 16.5516,
      "duration": 0.1156,
      "velocity": 77,
      "chip": "ym2612"
    },
    {
      "channel": 1,
      "note": 78,
      "start": 16.584,
      "duration": 0.0826,
      "velocity": 100,
      "chip": "ym2612"
    },
    {
      "channel": 4,
      "note": 78,
      "start": 16.6179,
      "duration": 0.0826,
      "velocity": 100,
      "chip": "ym2612"
    },
    {
      "channel": 1,
      "note": 77,
      "start": 16.6834,
      "duration": 0.0827,
      "velocity": 100,
      "chip": "ym2612"
    },
    {
      "channel": 2,
      "note": 81,
      "start": 16.6838,
      "duration": 0.1156,
      "velocity": 77,
      "chip": "ym2612"
    },
    {
      "channel": 3,
      "note": 78,
      "start": 16.6844,
      "duration": 0.1153,
      "velocity": 77,
      "chip": "ym2612"
    },
    {
      "channel": 4,
      "note": 80,
      "start": 16.7172,
      "duration": 0.0828,
      "velocity": 100,
      "chip": "ym2612"
    },
    {
      "channel": 1,
      "note": 78,
      "start": 16.7827,
      "duration": 0.0827,
      "velocity": 100,
      "chip": "ym2612"
    },
    {
      "channel": 2,
      "note": 81,
      "start": 16.816,
      "duration": 0.1159,
      "velocity": 77,
      "chip": "ym2612"
    },
    {
      "channel": 3,
      "note": 78,
      "start": 16.8165,
      "duration": 0.1156,
      "velocity": 77,
      "chip": "ym2612"
    },
    {
      "channel": 4,
      "note": 78,
      "start": 16.8171,
      "duration": 0.0821,
      "velocity": 100,
      "chip": "ym2612"
    },
    {
      "channel": 1,
      "note": 77,
      "start": 16.882,
      "duration": 0.0826,
      "velocity": 100,
      "chip": "ym2612"
    },
    {
      "channel": 4,
      "note": 77,
      "start": 16.9159,
      "duration": 0.0826,
      "velocity": 100,
      "chip": "ym2612"
    },
    {
      "channel": 2,
      "note": 81,
      "start": 16.9484,
      "duration": 0.1159,
      "velocity": 77,
      "chip": "ym2612"
    },
    {
      "channel": 3,
      "note": 78,
      "start": 16.9489,
      "duration": 0.1156,
      "velocity": 77,
      "chip": "ym2612"
    },
    {
      "channel": 1,
      "note": 74,
      "start": 16.9813,
      "duration": 0.0826,
      "velocity": 100,
      "chip": "ym2612"
    },
    {
      "channel": 4,
      "note": 78,
      "start": 17.0153,
      "duration": 0.0826,
      "velocity": 100,
      "chip": "ym2612"
    },
    {
      "channel": 1,
      "note": 77,
      "start": 17.0807,
      "duration": 0.083,
      "velocity": 100,
      "chip": "ym2612"
    },
    {
      "channel": 2,
      "note": 81,
      "start": 17.0812,
      "duration": 0.1158,
      "velocity": 77,
      "chip": "ym2612"
    },
    {
      "channel": 3,
      "note": 78,
      "start": 17.0817,
      "duration": 0.1156,
      "velocity": 77,
      "chip": "ym2612"
    },
    {
      "channel": 4,
      "note": 77,
      "start": 17.1147,
      "duration": 0.0829,
      "velocity": 100,
      "chip": "ym2612"
    },
    {
      "channel": 1,
      "note": 74,
      "start": 17.1805,
      "duration": 0.0821,
      "velocity": 100,
      "chip": "ym2612"
    },
    {
      "channel": 2,
      "note": 81,
      "start": 17.2137,
      "duration": 0.1153,
      "velocity": 77,
      "chip": "ym2612"
    },
    {
      "channel": 3,
      "note": 78,
      "start": 17.2143,
      "duration": 0.115,
      "velocity": 77,
      "chip": "ym2612"
    },
    {
      "channel": 4,
      "note": 74,
      "start": 17.2149,
      "duration": 0.0819,
      "velocity": 100,
      "chip": "ym2612"
    },
    {
      "channel": 1,
      "note": 73,
      "start": 17.2794,
      "duration": 0.0825,
      "velocity": 100,
      "chip": "ym2612"
    },
    {
      "channel": 4,
      "note": 77,
      "start": 17.3136,
      "duration": 0.0821,
      "velocity": 100,
      "chip": "ym2612"
    },
    {
      "channel": 2,
      "note": 81,
      "start": 17.3456,
      "duration": 0.1159,
      "velocity": 77,
      "chip": "ym2612"
    },
    {
      "channel": 3,
      "note": 78,
      "start": 17.3466,
      "duration": 0.1153,
      "velocity": 77,
      "chip": "ym2612"
    },
    {
      "channel": 1,
      "note": 69,
      "start": 17.3786,
      "duration": 0.0826,
      "velocity": 100,
      "chip": "ym2612"
    },
    {
      "channel": 4,
      "note": 74,
      "start": 17.4124,
      "duration": 0.0498,
      "velocity": 100,
      "chip": "ym2612"
    },
    {
      "channel": 0,
      "note": 54,
      "start": 17.4777,
      "duration": 0.3805,
      "velocity": 91,
      "chip": "ym2612"
    },
    {
      "channel": 1,
      "note": 86,
      "start": 17.4781,
      "duration": 0.0824,
      "velocity": 100,
      "chip": "ym2612"
    },
    {
      "channel": 2,
      "note": 81,
      "start": 17.4785,
      "duration": 0.1153,
      "velocity": 77,
      "chip": "ym2612"
    },
    {
      "channel": 3,
      "note": 78,
      "start": 17.4791,
      "duration": 0.115,
      "velocity": 77,
      "chip": "ym2612"
    },
    {
      "channel": 4,
      "note": 73,
      "start": 17.4804,
      "duration": 0.0809,
      "velocity": 100,
      "chip": "ym2612"
    },
    {
      "channel": 1,
      "note": 85,
      "start": 17.5773,
      "duration": 0.0826,
      "velocity": 100,
      "chip": "ym2612"
    },
    {
      "channel": 4,
      "note": 83,
      "start": 17.5783,
      "duration": 0.0823,
      "velocity": 100,
      "chip": "ym2612"
    },
    {
      "channel": 2,
      "note": 81,
      "start": 17.6105,
      "duration": 0.1157,
      "velocity": 77,
      "chip": "ym2612"
    },
    {
      "channel": 3,
      "note": 78,
      "start": 17.611,
      "duration": 0.1155,
      "velocity": 77,
      "chip": "ym2612"
    },
    {
      "channel": 1,
      "note": 83,
      "start": 17.6765,
      "duration": 0.0826,
      "velocity": 100,
      "chip": "ym2612"
    },
    {
      "channel": 4,
      "note": 81,
      "start": 17.6775,
      "duration": 0.0823,
      "velocity": 100,
      "chip": "ym2612"
    },
    {
      "channel": 2,
      "note": 81,
      "start": 17.7429,
      "duration": 0.1158,
      "velocity": 77,
      "chip": "ym2612"
    },
    {
      "channel": 3,
      "note": 78,
      "start": 17.7434,
      "duration": 0.1156,
      "velocity": 77,
      "chip": "ym2612"
    },
    {
      "channel": 1,
      "note": 85,
      "start": 17.7759,
      "duration": 0.0826,
      "velocity": 100,
      "chip": "ym2612"
    },
    {
      "channel": 4,
      "note": 80,
      "start": 17.7769,
      "duration": 0.0824,
      "velocity": 100,
      "chip": "ym2612"
    },
    {
      "channel": 1,
      "note": 83,
      "start": 17.8752,
      "duration": 0.0825,
      "velocity": 100,
      "chip": "ym2612"
    },
    {
      "channel": 2,
      "note": 81,
      "start": 17.8757,
      "duration": 0.1154,
      "velocity": 77,
      "chip": "ym2612"
    },
    {
      "channel": 3,
      "note": 78,
      "start": 17.8762,
      "duration": 0.1152,
      "velocity": 77,
      "chip": "ym2612"
    },
    {
      "channel": 4,
      "note": 81,
      "start": 17.8768,
      "duration": 0.0817,
      "velocity": 100,
      "chip": "ym2612"
    },
    {
      "channel": 1,
      "note": 85,
      "start": 17.9745,
      "duration": 0.0826,
      "velocity": 100,
      "chip": "ym2612"
    },
    {
      "channel": 4,
      "note": 80,
      "start": 17.9755,
      "duration": 0.0823,
      "velocity": 100,
      "chip": "ym2612"
    },
    {
      "channel": 2,
      "note": 81,
      "start": 18.0077,
      "duration": 0.1157,
      "velocity": 77,
      "chip": "ym2612"
    },
    {
      "channel": 3,
      "note": 78,
      "start": 18.0083,
      "duration": 0.1155,
      "velocity": 77,
      "chip": "ym2612"
    },
    {
      "channel": 1,
      "note": 86,
      "start": 18.0737,
      "duration": 0.0827,
      "velocity": 100,
      "chip": "ym2612"
    },
    {
      "channel": 4,
      "note": 78,
      "start": 18.0747,
      "duration": 0.0824,
      "velocity": 100,
      "chip": "ym2612"
    },
    {
      "channel": 2,
      "note": 81,
      "start": 18.1402,
      "duration": 0.1156,
      "velocity": 77,
      "chip": "ym2612"
    },
    {
      "channel": 3,
      "note": 78,
      "start": 18.1407,
      "duration": 0.1155,
      "velocity": 77,
      "chip": "ym2612"
    },
    {
      "channel": 1,
      "note": 85,
      "start": 18.1731,
      "duration": 0.0826,
      "velocity": 100,
      "chip": "ym2612"
    },
    {
      "channel": 4,
      "note": 80,
      "start": 18.1741,
      "duration": 0.0824,
      "velocity": 100,
      "chip": "ym2612"
    },
    {
      "channel": 1,
      "note": 86,
      "start": 18.2724,
      "duration": 0.0827,
      "velocity": 100,
      "chip": "ym2612"
    },
    {
      "channel": 2,
      "note": 81,
      "start": 18.2729,
      "duration": 0.1155,
      "velocity": 77,
      "chip": "ym2612"
    },
    {
      "channel": 3,
      "note": 78,
      "start": 18.2734,
      "duration": 0.1151,
      "velocity": 77,
      "chip": "ym2612"
    },
    {
      "channel": 4,
      "note": 78,
      "start": 18.274,
      "duration": 0.0819,
      "velocity": 100,
      "chip": "ym2612"
    },
    {
      "channel": 1,
      "note": 90,
      "start": 18.3718,
      "duration": 0.0826,
      "velocity": 100,
      "chip": "ym2612"
    },
    {
      "channel": 4,
      "note": 77,
      "start": 18.3728,
      "duration": 0.0823,
      "velocity": 100,
      "chip": "ym2612"
    },
    {
      "channel": 2,
      "note": 81,
      "start": 18.4051,
      "duration": 0.1158,
      "velocity": 77,
      "chip": "ym2612"
    },
    {
      "channel": 3,
      "note": 78,
      "start": 18.4056,
      "duration": 0.1155,
      "velocity": 77,
      "chip": "ym2612"
    },
    {
      "channel": 1,
      "note": 92,
      "start": 18.4711,
      "duration": 0.0825,
      "velocity": 100,
      "chip": "ym2612"
    },
    {
      "channel": 4,
      "note": 78,
      "start": 18.4721,
      "duration": 0.0823,
      "velocity": 100,
      "chip": "ym2612"
    },
    {
      "channel": 2,
      "note": 81,
      "start": 18.5375,
      "duration": 0.1158,
      "velocity": 77,
      "chip": "ym2612"
    },
    {
      "channel": 3,
      "note": 78,
      "start": 18.5381,
      "duration": 0.1155,
      "velocity": 77,
      "chip": "ym2612"
    },
    {
      "channel": 1,
      "note": 90,
      "start": 18.5705,
      "duration": 0.0826,
      "velocity": 100,
      "chip": "ym2612"
    },
    {
      "channel": 4,
      "note": 77,
      "start": 18.5715,
      "duration": 0.0824,
      "velocity": 100,
      "chip": "ym2612"
    },
    {
      "channel": 1,
      "note": 92,
      "start": 18.6697,
      "duration": 0.0826,
      "velocity": 100,
      "chip": "ym2612"
    },
    {
      "channel": 2,
      "note": 81,
      "start": 18.6702,
      "duration": 0.1154,
      "velocity": 77,
      "chip": "ym2612"
    },
    {
      "channel": 3,
      "note": 78,
      "start": 18.6707,
      "duration": 0.1153,
      "velocity": 77,
      "chip": "ym2612"
    },
    {
      "channel": 4,
      "note": 74,
      "start": 18.6713,
      "duration": 0.0817,
      "velocity": 100,
      "chip": "ym2612"
    },
    {
      "channel": 1,
      "note": 90,
      "start": 18.769,
      "duration": 0.0827,
      "velocity": 100,
      "chip": "ym2612"
    },
    {
      "channel": 4,
      "note": 77,
      "start": 18.77,
      "duration": 0.0825,
      "velocity": 100,
      "chip": "ym2612"
    },
    {
      "channel": 2,
      "note": 81,
      "start": 18.8023,
      "duration": 0.1158,
      "velocity": 77,
      "chip": "ym2612"
    },
    {
      "channel": 3,
      "note": 78,
      "start": 18.8028,
      "duration": 0.1155,
      "velocity": 77,
      "chip": "ym2612"
    },
    {
      "channel": 1,
      "note": 93,
      "start": 18.8684,
      "duration": 0.0826,
      "velocity": 100,
      "chip": "ym2612"
    },
    {
      "channel": 4,
      "note": 74,
      "start": 18.8694,
      "duration": 0.0824,
      "velocity": 100,
      "chip": "ym2612"
    },
    {
      "channel": 2,
      "note": 81,
      "start": 18.9348,
      "duration": 0.1157,
      "velocity": 77,
      "chip": "ym2612"
    },
    {
      "channel": 3,
      "note": 78,
      "start": 18.9353,
      "duration": 0.1155,
      "velocity": 77,
      "chip": "ym2612"
    },
    {
      "channel": 1,
      "note": 97,
      "start": 18.9677,
      "duration": 0.0826,
      "velocity": 100,
      "chip": "ym2612"
    },
    {
      "channel": 4,
      "note": 73,
      "start": 18.9687,
      "duration": 0.0824,
      "velocity": 100,
      "chip": "ym2612"
    },
    {
      "channel": 0,
      "note": 54,
      "start": 19.0668,
      "duration": 0.3805,
      "velocity": 91,
      "chip": "ym2612"
    },
    {
      "channel": 1,
      "note": 97,
      "start": 19.0672,
      "duration": 0.3804,
      "velocity": 100,
      "chip": "ym2612"
    },
    {
      "channel": 2,
      "note": 90,
      "start": 19.0677,
      "duration": 0.1152,
      "velocity": 77,
      "chip": "ym2612"
    },
    {
      "channel": 3,
      "note": 78,
      "start": 19.0682,
      "duration": 0.1149,
      "velocity": 77,
      "chip": "ym2612"
    },
    {
      "channel": 4,
      "note": 69,
      "start": 19.0688,
      "duration": 0.1146,
      "velocity": 100,
      "chip": "ym2612"
    },
    {
      "channel": 2,
      "note": 90,
      "start": 19.1995,
      "duration": 0.1158,
      "velocity": 77,
      "chip": "ym2612"
    },
    {
      "channel": 3,
      "note": 85,
      "start": 19.2001,
      "duration": 0.1155,
      "velocity": 77,
      "chip": "ym2612"
    },
    {
      "channel": 4,
      "note": 77,
      "start": 19.2007,
      "duration": 0.1152,
      "velocity": 100,
      "chip": "ym2612"
    },
    {
      "channel": 2,
      "note": 90,
      "start": 19.332,
      "duration": 0.1159,
      "velocity": 77,
      "chip": "ym2612"
    },
    {
      "channel": 3,
      "note": 85,
      "start": 19.3326,
      "duration": 0.1155,
      "velocity": 77,
      "chip": "ym2612"
    },
    {
      "channel": 4,
      "note": 73,
      "start": 19.3331,
      "duration": 0.1153,
      "velocity": 100,
      "chip": "ym2612"
    },
    {
      "channel": 1,
      "note": 85,
      "start": 19.4643,
      "duration": 0.3805,
      "velocity": 100,
      "chip": "ym2612"
    },
    {
      "channel": 2,
      "note": 90,
      "start": 19.4647,
      "duration": 0.1156,
      "velocity": 77,
      "chip": "ym2612"
    },
    {
      "channel": 3,
      "note": 85,
      "start": 19.4653,
      "duration": 0.1154,
      "velocity": 77,
      "chip": "ym2612"
    },
    {
      "channel": 4,
      "note": 74,
      "start": 19.4659,
      "duration": 0.1151,
      "velocity": 100,
      "chip": "ym2612"
    },
    {
      "channel": 2,
      "note": 90,
      "start": 19.5973,
      "duration": 0.1153,
      "velocity": 77,
      "chip": "ym2612"
    },
    {
      "channel": 3,
      "note": 85,
      "start": 19.5978,
      "duration": 0.1153,
      "velocity": 77,
      "chip": "ym2612"
    },
    {
      "channel": 4,
      "note": 77,
      "start": 19.5984,
      "duration": 0.1151,
      "velocity": 100,
      "chip": "ym2612"
    },
    {
      "channel": 2,
      "note": 90,
      "start": 19.7293,
      "duration": 0.1158,
      "velocity": 77,
      "chip": "ym2612"
    },
    {
      "channel": 3,
      "note": 85,
      "start": 19.7301,
      "duration": 0.1151,
      "velocity": 77,
      "chip": "ym2612"
    },
    {
      "channel": 4,
      "note": 78,
      "start": 19.7308,
      "duration": 0.1149,
      "velocity": 100,
      "chip": "ym2612"
    },
    {
      "channel": 1,
      "note": 89,
      "start": 19.8614,
      "duration": 0.3806,
      "velocity": 100,
      "chip": "ym2612"
    },
    {
      "channel": 2,
      "note": 92,
      "start": 19.8619,
      "duration": 0.1156,
      "velocity": 77,
      "chip": "ym2612"
    },
    {
      "channel": 3,
      "note": 85,
      "start": 19.8624,
      "duration": 0.1154,
      "velocity": 77,
      "chip": "ym2612"
    },
    {
      "channel": 4,
      "note": 80,
      "start": 19.8633,
      "duration": 0.1148,
      "velocity": 100,
      "chip": "ym2612"
    },
    {
      "channel": 0,
      "note": 66,
      "start": 19.9936,
      "duration": 0.1158,
      "velocity": 91,
      "chip": "ym2612"
    },
    {
      "channel": 2,
      "note": 92,
      "start": 19.9943,
      "duration": 0.1155,
      "velocity": 77,
      "chip": "ym2612"
    },
    {
      "channel": 3,
      "note": 89,
      "start": 19.9948,
      "duration": 0.1153,
      "velocity": 77,
      "chip": "ym2612"
    },
    {
      "channel": 4,
      "note": 81,
      "start": 19.9954,
      "duration": 0.1151,
      "velocity": 100,
      "chip": "ym2612"
    },
    {
      "channel": 0,
      "note": 65,
      "start": 20.1261,
      "duration": 0.1158,
      "velocity": 91,
      "chip": "ym2612"
    },
    {
      "channel": 2,
      "note": 92,
      "start": 20.1267,
      "duration": 0.1157,
      "velocity": 77,
      "chip": "ym2612"
    },
    {
      "channel": 3,
      "note": 89,
      "start": 20.1272,
      "duration": 0.1154,
      "velocity": 77,
      "chip": "ym2612"
    },
    {
      "channel": 4,
      "note": 83,
      "start": 20.1278,
      "duration": 0.1152,
      "velocity": 100,
      "chip": "ym2612"
    },
    {
      "channel": 0,
      "note": 61,
      "start": 20.2585,
      "duration": 0.1157,
      "velocity": 91,
      "chip": "ym2612"
    },
    {
      "channel": 1,
      "note": 95,
      "start": 20.259,
      "duration": 0.3804,
      "velocity": 100,
      "chip": "ym2612"
    },
    {
      "channel": 2,
      "note": 92,
      "start": 20.2594,
      "duration": 0.1153,
      "velocity": 77,
      "chip": "ym2612"
    },
    {
      "channel": 3,
      "note": 89,
      "start": 20.26,
      "duration": 0.115,
      "velocity": 77,
      "chip": "ym2612"
    },
    {
      "channel": 4,
      "note": 85,
      "start": 20.2605,
      "duration": 0.0815,
      "velocity": 100,
      "chip": "ym2612"
    },
    {
      "channel": 0,
      "note": 62,
      "start": 20.3909,
      "duration": 0.1158,
      "velocity": 91,
      "chip": "ym2612"
    },
    {
      "channel": 2,
      "note": 92,
      "start": 20.3916,
      "duration": 0.1155,
      "velocity": 77,
      "chip": "ym2612"
    },
    {
      "channel": 3,
      "note": 89,
      "start": 20.3921,
      "duration": 0.1153,
      "velocity": 77,
      "chip": "ym2612"
    },
    {
      "channel": 4,
      "note": 86,
      "start": 20.4582,
      "duration": 0.0824,
      "velocity": 100,
      "chip": "ym2612"
    },
    {
      "channel": 0,
      "note": 57,
      "start": 20.5233,
      "duration": 0.1158,
      "velocity": 91,
      "chip": "ym2612"
    },
    {
      "channel": 2,
      "note": 92,
      "start": 20.524,
      "duration": 0.1156,
      "velocity": 77,
      "chip": "ym2612"
    },
    {
      "channel": 3,
      "note": 89,
      "start": 20.5245,
      "duration": 0.1153,
      "velocity": 77,
      "chip": "ym2612"
    },
    {
      "channel": 0,
      "note": 61,
      "start": 20.6558,
      "duration": 0.7778,
      "velocity": 91,
      "chip": "ym2612"
    },
    {
      "channel": 1,
      "note": 93,
      "start": 20.6562,
      "duration": 0.7776,
      "velocity": 100,
      "chip": "ym2612"
    },
    {
      "channel": 2,
      "note": 85,
      "start": 20.6567,
      "duration": 0.1153,
      "velocity": 77,
      "chip": "ym2612"
    },
    {
      "channel": 3,
      "note": 89,
      "start": 20.6572,
      "duration": 0.115,
      "velocity": 77,
      "chip": "ym2612"
    },
    {
      "channel": 4,
      "note": 86,
      "start": 20.6579,
      "duration": 0.0486,
      "velocity": 100,
      "chip": "ym2612"
    },
    {
      "channel": 4,
      "note": 85,
      "start": 20.7065,
      "duration": 0.0496,
      "velocity": 100,
      "chip": "ym2612"
    },
    {
      "channel": 4,
      "note": 86,
      "start": 20.7561,
      "duration": 0.0496,
      "velocity": 100,
      "chip": "ym2612"
    },
    {
      "channel": 2,
      "note": 81,
      "start": 20.7886,
      "duration": 0.1157,
      "velocity": 77,
      "chip": "ym2612"
    },
    {
      "channel": 3,
      "note": 81,
      "start": 20.7892,
      "duration": 0.1154,
      "velocity": 77,
      "chip": "ym2612"
    },
    {
      "channel": 4,
      "note": 85,
      "start": 20.8057,
      "duration": 0.0497,
      "velocity": 100,
      "chip": "ym2612"
    },
    {
      "channel": 4,
      "note": 86,
      "start": 20.8554,
      "duration": 0.0497,
      "velocity": 100,
      "chip": "ym2612"
    },
    {
      "channel": 4,
      "note": 85,
      "start": 20.9051,
      "duration": 0.0495,
      "velocity": 100,
      "chip": "ym2612"
    },
    {
      "channel": 2,
      "note": 81,
      "start": 20.921,
      "duration": 0.1159,
      "velocity": 77,
      "chip": "ym2612"
    },
    {
      "channel": 3,
      "note": 78,
      "start": 20.9215,
      "duration": 0.1155,
      "velocity": 77,
      "chip": "ym2612"
    },
    {
      "channel": 4,
      "note": 86,
      "start": 20.9546,
      "duration": 0.0498,
      "velocity": 100,
      "chip": "ym2612"
    },
    {
      "channel": 4,
      "note": 85,
      "start": 21.0044,
      "duration": 0.0502,
      "velocity": 100,
      "chip": "ym2612"
    },
    {
      "channel": 2,
      "note": 81,
      "start": 21.0535,
      "duration": 0.1157,
      "velocity": 77,
      "chip": "ym2612"
    },
    {
      "channel": 3,
      "note": 78,
      "start": 21.0541,
      "duration": 0.1154,
      "velocity": 77,
      "chip": "ym2612"
    },
    {
      "channel": 4,
      "note": 86,
      "start": 21.0546,
      "duration": 0.0491,
      "velocity": 100,
      "chip": "ym2612"
    },
    {
      "channel": 4,
      "note": 85,
      "start": 21.1037,
      "duration": 0.0497,
      "velocity": 100,
      "chip": "ym2612"
    },
    {
      "channel": 4,
      "note": 86,
      "start": 21.1534,
      "duration": 0.0497,
      "velocity": 100,
      "chip": "ym2612"
    },
    {
      "channel": 2,
      "note": 78,
      "start": 21.1859,
      "duration": 0.1159,
      "velocity": 77,
      "chip": "ym2612"
    },
    {
      "channel": 3,
      "note": 78,
      "start": 21.1864,
      "duration": 0.1156,
      "velocity": 77,
      "chip": "ym2612"
    },
    {
      "channel": 4,
      "note": 85,
      "start": 21.2031,
      "duration": 0.0496,
      "velocity": 100,
      "chip": "ym2612"
    },
    {
      "channel": 4,
      "note": 86,
      "start": 21.2527,
      "duration": 0.0499,
      "velocity": 100,
      "chip": "ym2612"
    },
    {
      "channel": 4,
      "note": 85,
      "start": 21.3026,
      "duration": 0.0495,
      "velocity": 100,
      "chip": "ym2612"
    },
    {
      "channel": 2,
      "note": 78,
      "start": 21.3183,
      "duration": 0.1158,
      "velocity": 77,
      "chip": "ym2612"
    },
    {
      "channel": 3,
      "note": 73,
      "start": 21.3188,
      "duration": 0.1156,
      "velocity": 77,
      "chip": "ym2612"
    },
    {
      "channel": 4,
      "note": 86,
      "start": 21.3521,
      "duration": 0.0498,
      "velocity": 100,
      "chip": "ym2612"
    },
    {
      "channel": 4,
      "note": 85,
      "start": 21.4018,
      "duration": 0.0329,
      "velocity": 100,
      "chip": "ym2612"
    },
    {
      "channel": 0,
      "note": 53,
      "start": 21.4503,
      "duration": 0.7777,
      "velocity": 91,
      "chip": "ym2612"
    },
    {
      "channel": 1,
      "note": 92,
      "start": 21.4507,
      "duration": 0.7776,
      "velocity": 100,
      "chip": "ym2612"
    },
    {
      "channel": 2,
      "note": 77,
      "start": 21.4512,
      "duration": 0.1152,
      "velocity": 77,
      "chip": "ym2612"
    },
    {
      "channel": 3,
      "note": 73,
      "start": 21.4517,
      "duration": 0.115,
      "velocity": 77,
      "chip": "ym2612"
    },
    {
      "channel": 4,
      "note": 86,
      "start": 21.4524,
      "duration": 0.0485,
      "velocity": 100,
      "chip": "ym2612"
    },
    {
      "channel": 4,
      "note": 73,
      "start": 21.5009,
      "duration": 0.0496,
      "velocity": 100,
      "chip": "ym2612"
    },
    {
      "channel": 4,
      "note": 74,
      "start": 21.5505,
      "duration": 0.0498,
      "velocity": 100,
      "chip": "ym2612"
    },
    {
      "channel": 2,
      "note": 80,
      "start": 21.5831,
      "duration": 0.1158,
      "velocity": 77,
      "chip": "ym2612"
    },
    {
      "channel": 3,
      "note": 73,
      "start": 21.5836,
      "duration": 0.1155,
      "velocity": 77,
      "chip": "ym2612"
    },
    {
      "channel": 4,
      "note": 73,
      "start": 21.6003,
      "duration": 0.0496,
      "velocity": 100,
      "chip": "ym2612"
    },
    {
      "channel": 4,
      "note": 74,
      "start": 21.6499,
      "duration": 0.0498,
      "velocity": 100,
      "chip": "ym2612"
    },
    {
      "channel": 4,
      "note": 73,
      "start": 21.6997,
      "duration": 0.0495,
      "velocity": 100,
      "chip": "ym2612"
    },
    {
      "channel": 2,
      "note": 86,
      "start": 21.7155,
      "duration": 0.1158,
      "velocity": 77,
      "chip": "ym2612"
    },
    {
      "channel": 3,
      "note": 77,
      "start": 21.7161,
      "duration": 0.1155,
      "velocity": 77,
      "chip": "ym2612"
    },
    {
      "channel": 4,
      "note": 74,
      "start": 21.7492,
      "duration": 0.0498,
      "velocity": 100,
      "chip": "ym2612"
    },
    {
      "channel": 4,
      "note": 73,
      "start": 21.799,
      "duration": 0.0502,
      "velocity": 100,
      "chip": "ym2612"
    },
    {
      "channel": 2,
      "note": 86,
      "start": 21.848,
      "duration": 0.116,
      "velocity": 77,
      "chip": "ym2612"
    },
    {
      "channel": 3,
      "note": 83,
      "start": 21.8486,
      "duration": 0.1156,
      "velocity": 77,
      "chip": "ym2612"
    },
    {
      "channel": 4,
      "note": 74,
      "start": 21.8492,
      "duration": 0.0491,
      "velocity": 100,
      "chip": "ym2612"
    },
    {
      "channel": 4,
      "note": 73,
      "start": 21.8983,
      "duration": 0.0498,
      "velocity": 100,
      "chip": "ym2612"
    },
    {
      "channel": 4,
      "note": 74,
      "start": 21.9481,
      "duration": 0.0499,
      "velocity": 100,
      "chip": "ym2612"
    },
    {
      "channel": 2,
      "note": 85,
      "start": 21.9808,
      "duration": 0.1158,
      "velocity": 77,
      "chip": "ym2612"
    },
    {
      "channel": 3,
      "note": 83,
      "start": 21.9813,
      "duration": 0.1156,
      "velocity": 77,
      "chip": "ym2612"
    },
    {
      "channel": 4,
      "note": 73,
      "start": 21.998,
      "duration": 0.0496,
      "velocity": 100,
      "chip": "ym2612"
    },
    {
      "channel": 4,
      "note": 74,
      "start": 22.0476,
      "duration": 0.0499,
      "velocity": 100,
      "chip": "ym2612"
    },
    {
      "channel": 4,
      "note": 73,
      "start": 22.0975,
      "duration": 0.0494,
      "velocity": 100,
      "chip": "ym2612"
    },
    {
      "channel": 2,
      "note": 83,
      "start": 22.1133,
      "duration": 0.1153,
      "velocity": 77,
      "chip": "ym2612"
    },
    {
      "channel": 3,
      "note": 81,
      "start": 22.1139,
      "duration": 0.115,
      "velocity": 77,
      "chip": "ym2612"
    },
    {
      "channel": 4,
      "note": 74,
      "start": 22.1469,
      "duration": 0.0497,
      "velocity": 100,
      "chip": "ym2612"
    },
    {
      "channel": 4,
      "note": 73,
      "start": 22.1966,
      "duration": 0.0326,
      "velocity": 100,
      "chip": "ym2612"
    },
    {
      "channel": 0,
      "note": 54,
      "start": 22.2448,
      "duration": 0.3805,
      "velocity": 91,
      "chip": "ym2612"
    },
    {
      "channel": 1,
      "note": 90,
      "start": 22.2452,
      "duration": 0.7777,
      "velocity": 100,
      "chip": "ym2612"
    },
    {
      "channel": 2,
      "note": 81,
      "start": 22.2456,
      "duration": 0.1154,
      "velocity": 77,
      "chip": "ym2612"
    },
    {
      "channel": 3,
      "note": 80,
      "start": 22.2466,
      "duration": 0.1147,
      "velocity": 77,
      "chip": "ym2612"
    },
    {
      "channel": 4,
      "note": 74,
      "start": 22.2472,
      "duration": 0.7766,
      "velocity": 100,
      "chip": "ym2612"
    },
    {
      "channel": 2,
      "note": 81,
      "start": 22.3776,
      "duration": 0.1158,
      "velocity": 77,
      "chip": "ym2612"
    },
    {
      "channel": 3,
      "note": 78,
      "start": 22.3781,
      "duration": 0.1155,
      "velocity": 77,
      "chip": "ym2612"
    },
    {
      "channel": 2,
      "note": 81,
      "start": 22.51,
      "duration": 0.1158,
      "velocity": 77,
      "chip": "ym2612"
    },
    {
      "channel": 3,
      "note": 78,
      "start": 22.5105,
      "duration": 0.1155,
      "velocity": 77,
      "chip": "ym2612"
    },
    {
      "channel": 2,
      "note": 81,
      "start": 22.6426,
      "duration": 0.1156,
      "velocity": 77,
      "chip": "ym2612"
    },
    {
      "channel": 3,
      "note": 78,
      "start": 22.6432,
      "duration": 0.1154,
      "velocity": 77,
      "chip": "ym2612"
    },
    {
      "channel": 2,
      "note": 81,
      "start": 22.775,
      "duration": 0.1157,
      "velocity": 77,
      "chip": "ym2612"
    },
    {
      "channel": 3,
      "note": 78,
      "start": 22.7756,
      "duration": 0.1155,
      "velocity": 77,
      "chip": "ym2612"
    },
    {
      "channel": 2,
      "note": 81,
      "start": 22.9073,
      "duration": 0.1158,
      "velocity": 77,
      "chip": "ym2612"
    },
    {
      "channel": 3,
      "note": 78,
      "start": 22.9079,
      "duration": 0.1156,
      "velocity": 77,
      "chip": "ym2612"
    },
    {
      "channel": 1,
      "note": 66,
      "start": 23.0397,
      "duration": 0.0496,
      "velocity": 100,
      "chip": "ym2612"
    },
    {
      "channel": 2,
      "note": 81,
      "start": 23.0401,
      "duration": 0.1154,
      "velocity": 77,
      "chip": "ym2612"
    },
    {
      "channel": 3,
      "note": 78,
      "start": 23.0406,
      "duration": 0.1152,
      "velocity": 77,
      "chip": "ym2612"
    },
    {
      "channel": 1,
      "note": 69,
      "start": 23.0893,
      "duration": 0.0495,
      "velocity": 100,
      "chip": "ym2612"
    },
    {
      "channel": 1,
      "note": 73,
      "start": 23.1388,
      "duration": 0.0497,
      "velocity": 100,
      "chip": "ym2612"
    },
    {
      "channel": 2,
      "note": 81,
      "start": 23.1721,
      "duration": 0.116,
      "velocity": 77,
      "chip": "ym2612"
    },
    {
      "channel": 3,
      "note": 78,
      "start": 23.1727,
      "duration": 0.1158,
      "velocity": 77,
      "chip": "ym2612"
    },
    {
      "channel": 4,
      "note": 78,
      "start": 23.1737,
      "duration": 0.0488,
      "velocity": 100,
      "chip": "ym2612"
    },
    {
      "channel": 1,
      "note": 78,
      "start": 23.1885,
      "duration": 0.0498,
      "velocity": 100,
      "chip": "ym2612"
    },
    {
      "channel": 4,
      "note": 66,
      "start": 23.2224,
      "duration": 0.0497,
      "velocity": 100,
      "chip": "ym2612"
    },
    {
      "channel": 1,
      "note": 81,
      "start": 23.2383,
      "duration": 0.0496,
      "velocity": 100,
      "chip": "ym2612"
    },
    {
      "channel": 4,
      "note": 69,
      "start": 23.2721,
      "duration": 0.0496,
      "velocity": 100,
      "chip": "ym2612"
    },
    {
      "channel": 1,
      "note": 85,
      "start": 23.2879,
      "duration": 0.0497,
      "velocity": 100,
      "chip": "ym2612"
    },
    {
      "channel": 2,
      "note": 81,
      "start": 23.3046,
      "duration": 0.1158,
      "velocity": 77,
      "chip": "ym2612"
    },
    {
      "channel": 3,
      "note": 78,
      "start": 23.3051,
      "duration": 0.1155,
      "velocity": 77,
      "chip": "ym2612"
    },
    {
      "channel": 4,
      "note": 73,
      "start": 23.3217,
      "duration": 0.0497,
      "velocity": 100,
      "chip": "ym2612"
    },
    {
      "channel": 1,
      "note": 78,
      "start": 23.3376,
      "duration": 0.0496,
      "velocity": 100,
      "chip": "ym2612"
    },
    {
      "channel": 4,
      "note": 78,
      "start": 23.3714,
      "duration": 0.0497,
      "velocity": 100,
      "chip": "ym2612"
    },
    {
      "channel": 1,
      "note": 81,
      "start": 23.3871,
      "duration": 0.0499,
      "velocity": 100,
      "chip": "ym2612"
    },
    {
      "channel": 4,
      "note": 81,
      "start": 23.4212,
      "duration": 0.0495,
      "velocity": 100,
      "chip": "ym2612"
    },
    {
      "channel": 0,
      "note": 61,
      "start": 23.4366,
      "duration": 0.3805,
      "velocity": 91,
      "chip": "ym2612"
    },
    {
      "channel": 1,
      "note": 90,
      "start": 23.4371,
      "duration": 0.0494,
      "velocity": 100,
      "chip": "ym2612"
    },
    {
      "channel": 2,
      "note": 80,
      "start": 23.4375,
      "duration": 0.1152,
      "velocity": 77,
      "chip": "ym2612"
    },
    {
      "channel": 3,
      "note": 78,
      "start": 23.4381,
      "duration": 0.1149,
      "velocity": 77,
      "chip": "ym2612"
    },
    {
      "channel": 4,
      "note": 85,
      "start": 23.4707,
      "duration": 0.0496,
      "velocity": 100,
      "chip": "ym2612"
    },
    {
      "channel": 1,
      "note": 93,
      "start": 23.4865,
      "duration": 0.0495,
      "velocity": 100,
      "chip": "ym2612"
    },
    {
      "channel": 4,
      "note": 78,
      "start": 23.5203,
      "duration": 0.0502,
      "velocity": 100,
      "chip": "ym2612"
    },
    {
      "channel": 1,
      "note": 97,
      "start": 23.5361,
      "duration": 0.0499,
      "velocity": 100,
      "chip": "ym2612"
    },
    {
      "channel": 2,
      "note": 83,
      "start": 23.5694,
      "duration": 0.1158,
      "velocity": 77,
      "chip": "ym2612"
    },
    {
      "channel": 3,
      "note": 77,
      "start": 23.5699,
      "duration": 0.1156,
      "velocity": 77,
      "chip": "ym2612"
    },
    {
      "channel": 4,
      "note": 81,
      "start": 23.5705,
      "duration": 0.0492,
      "velocity": 100,
      "chip": "ym2612"
    },
    {
      "channel": 1,
      "note": 102,
      "start": 23.5859,
      "duration": 0.0824,
      "velocity": 100,
      "chip": "ym2612"
    },
    {
      "channel": 4,
      "note": 90,
      "start": 23.6197,
      "duration": 0.0497,
      "velocity": 100,
      "chip": "ym2612"
    },
    {
      "channel": 4,
      "note": 93,
      "start": 23.6694,
      "duration": 0.0497,
      "velocity": 100,
      "chip": "ym2612"
    },
    {
      "channel": 2,
      "note": 83,
      "start": 23.7018,
      "duration": 0.1158,
      "velocity": 77,
      "chip": "ym2612"
    },
    {
      "channel": 3,
      "note": 74,
      "start": 23.7024,
      "duration": 0.1156,
      "velocity": 77,
      "chip": "ym2612"
    },
    {
      "channel": 4,
      "note": 97,
      "start": 23.7191,
      "duration": 0.0826,
      "velocity": 100,
      "chip": "ym2612"
    },
    {
      "channel": 0,
      "note": 54,
      "start": 23.8339,
      "duration": 0.3805,
      "velocity": 91,
      "chip": "ym2612"
    },
    {
      "channel": 1,
      "note": 80,
      "start": 23.8345,
      "duration": 0.0822,
      "velocity": 100,
      "chip": "ym2612"
    },
    {
      "channel": 2,
      "note": 81,
      "start": 23.8351,
      "duration": 0.1148,
      "velocity": 77,
      "chip": "ym2612"
    },
    {
      "channel": 3,
      "note": 74,
      "start": 23.8358,
      "duration": 0.1144,
      "velocity": 77,
      "chip": "ym2612"
    },
    {
      "channel": 1,
      "note": 81,
      "start": 23.9334,
      "duration": 0.0826,
      "velocity": 100,
      "chip": "ym2612"
    },
    {
      "channel": 2,
      "note": 81,
      "start": 23.9666,
      "duration": 0.1157,
      "velocity": 77,
      "chip": "ym2612"
    },
    {
      "channel": 3,
      "note": 78,
      "start": 23.9672,
      "duration": 0.1155,
      "velocity": 77,
      "chip": "ym2612"
    },
    {
      "channel": 4,
      "note": 102,
      "start": 23.9679,
      "duration": 0.0818,
      "velocity": 100,
      "chip": "ym2612"
    },
    {
      "channel": 1,
      "note": 90,
      "start": 24.0327,
      "duration": 0.0827,
      "velocity": 100,
      "chip": "ym2612"
    },
    {
      "channel": 4,
      "note": 80,
      "start": 24.0665,
      "duration": 0.0826,
      "velocity": 100,
      "chip": "ym2612"
    },
    {
      "channel": 2,
      "note": 81,
      "start": 24.0992,
      "duration": 0.1158,
      "velocity": 77,
      "chip": "ym2612"
    },
    {
      "channel": 3,
      "note": 78,
      "start": 24.0997,
      "duration": 0.1155,
      "velocity": 77,
      "chip": "ym2612"
    },
    {
      "channel": 1,
      "note": 89,
      "start": 24.132,
      "duration": 0.0826,
      "velocity": 100,
      "chip": "ym2612"
    },
    {
      "channel": 4,
      "note": 81,
      "start": 24.1658,
      "duration": 0.0826,
      "velocity": 100,
      "chip": "ym2612"
    },
    {
      "channel": 1,
      "note": 86,
      "start": 24.2315,
      "duration": 0.7777,
      "velocity": 100,
      "chip": "ym2612"
    },
    {
      "channel": 2,
      "note": 81,
      "start": 24.2319,
      "duration": 0.1153,
      "velocity": 77,
      "chip": "ym2612"
    },
    {
      "channel": 3,
      "note": 78,
      "start": 24.2324,
      "duration": 0.1151,
      "velocity": 77,
      "chip": "ym2612"
    },
    {
      "channel": 4,
      "note": 90,
      "start": 24.2652,
      "duration": 0.0827,
      "velocity": 100,
      "chip": "ym2612"
    },
    {
      "channel": 2,
      "note": 81,
      "start": 24.364,
      "duration": 0.116,
      "velocity": 77,
      "chip": "ym2612"
    },
    {
      "channel": 3,
      "note": 78,
      "start": 24.3645,
      "duration": 0.1158,
      "velocity": 77,
      "chip": "ym2612"
    },
    {
      "channel": 4,
      "note": 89,
      "start": 24.3651,
      "duration": 0.7772,
      "velocity": 100,
      "chip": "ym2612"
    },
    {
      "channel": 2,
      "note": 81,
      "start": 24.4967,
      "duration": 0.1155,
      "velocity": 77,
      "chip": "ym2612"
    },
    {
      "channel": 3,
      "note": 78,
      "start": 24.4973,
      "duration": 0.1151,
      "velocity": 77,
      "chip": "ym2612"
    },
    {
      "channel": 2,
      "note": 81,
      "start": 24.6289,
      "duration": 0.1156,
      "velocity": 77,
      "chip": "ym2612"
    },
    {
      "channel": 3,
      "note": 78,
      "start": 24.6294,
      "duration": 0.1154,
      "velocity": 77,
      "chip": "ym2612"
    },
    {
      "channel": 2,
      "note": 81,
      "start": 24.7612,
      "duration": 0.1158,
      "velocity": 77,
      "chip": "ym2612"
    },
    {
      "channel": 3,
      "note": 78,
      "start": 24.7618,
      "duration": 0.1155,
      "velocity": 77,
      "chip": "ym2612"
    },
    {
      "channel": 2,
      "note": 81,
      "start": 24.8936,
      "duration": 0.1158,
      "velocity": 77,
      "chip": "ym2612"
    },
    {
      "channel": 3,
      "note": 78,
      "start": 24.8942,
      "duration": 0.1155,
      "velocity": 77,
      "chip": "ym2612"
    },
    {
      "channel": 2,
      "note": 81,
      "start": 25.0261,
      "duration": 0.1156,
      "velocity": 77,
      "chip": "ym2612"
    },
    {
      "channel": 3,
      "note": 78,
      "start": 25.0267,
      "duration": 0.1154,
      "velocity": 77,
      "chip": "ym2612"
    },
    {
      "channel": 2,
      "note": 81,
      "start": 25.1585,
      "duration": 0.1158,
      "velocity": 77,
      "chip": "ym2612"
    },
    {
      "channel": 3,
      "note": 78,
      "start": 25.1591,
      "duration": 0.1155,
      "velocity": 77,
      "chip": "ym2612"
    },
    {
      "channel": 2,
      "note": 81,
      "start": 25.291,
      "duration": 0.1157,
      "velocity": 77,
      "chip": "ym2612"
    },
    {
      "channel": 3,
      "note": 78,
      "start": 25.2915,
      "duration": 0.1155,
      "velocity": 77,
      "chip": "ym2612"
    }
  ]
}