{
  "track_name": "11 - Mega Man- Dr. Wily Stage Boss",
  "duration_sec": 13.186,
  "sample_rate": 44100,
  "note_count": 342,
  "unique_pitches": 23,
  "pitch_range": 59,
  "avg_note_duration": 0.1425,
  "reconstruction_stats": {
    "notes_reconstructed": 342,
    "keyon_events": 342,
    "keyoff_events": 338,
    "orphan_keyons": 4,
    "unique_pitches": 23,
    "pitch_range": 59,
    "avg_duration_sec": 0.1425
  },
  "metadata": {
    "source": "M\\Mega Man - The Wily Wars\\11 - Mega Man- Dr. Wily Stage Boss.vgm"
  },
  "notes": [
    {
      "channel": 0,
      "note": 85,
      "start": 0.0,
      "duration": 0.0816,
      "velocity": 77,
      "chip": "ym2612"
    },
    {
      "channel": 1,
      "note": 59,
      "start": 0.0032,
      "duration": 0.7814,
      "velocity": 102,
      "chip": "ym2612"
    },
    {
      "channel": 2,
      "note": 76,
      "start": 0.0065,
      "duration": 0.0762,
      "velocity": 77,
      "chip": "ym2612"
    },
    {
      "channel": 5,
      "note": 32,
      "start": 0.0102,
      "duration": 0.1053,
      "velocity": 114,
      "chip": "ym2612"
    },
    {
      "channel": 0,
      "note": 83,
      "start": 0.0822,
      "duration": 0.0994,
      "velocity": 77,
      "chip": "ym2612"
    },
    {
      "channel": 2,
      "note": 74,
      "start": 0.0833,
      "duration": 0.0994,
      "velocity": 77,
      "chip": "ym2612"
    },
    {
      "channel": 0,
      "note": 85,
      "start": 0.1822,
      "duration": 0.0994,
      "velocity": 77,
      "chip": "ym2612"
    },
    {
      "channel": 2,
      "note": 76,
      "start": 0.1833,
      "duration": 0.0994,
      "velocity": 77,
      "chip": "ym2612"
    },
    {
      "channel": 0,
      "note": 86,
      "start": 0.2822,
      "duration": 0.1014,
      "velocity": 77,
      "chip": "ym2612"
    },
    {
      "channel": 2,
      "note": 78,
      "start": 0.2833,
      "duration": 0.1014,
      "velocity": 77,
      "chip": "ym2612"
    },
    {
      "channel": 0,
      "note": 78,
      "start": 0.3841,
      "duration": 0.0975,
      "velocity": 77,
      "chip": "ym2612"
    },
    {
      "channel": 2,
      "note": 71,
      "start": 0.3852,
      "duration": 0.0974,
      "velocity": 77,
      "chip": "ym2612"
    },
    {
      "channel": 5,
      "note": 75,
      "start": 0.3861,
      "duration": 0.2975,
      "velocity": 120,
      "chip": "ym2612"
    },
    {
      "channel": 0,
      "note": 83,
      "start": 0.4822,
      "duration": 0.0994,
      "velocity": 77,
      "chip": "ym2612"
    },
    {
      "channel": 2,
      "note": 74,
      "start": 0.4833,
      "duration": 0.0994,
      "velocity": 77,
      "chip": "ym2612"
    },
    {
      "channel": 0,
      "note": 85,
      "start": 0.5822,
      "duration": 0.0994,
      "velocity": 77,
      "chip": "ym2612"
    },
    {
      "channel": 2,
      "note": 76,
      "start": 0.5833,
      "duration": 0.0994,
      "velocity": 77,
      "chip": "ym2612"
    },
    {
      "channel": 0,
      "note": 86,
      "start": 0.6822,
      "duration": 0.1016,
      "velocity": 77,
      "chip": "ym2612"
    },
    {
      "channel": 2,
      "note": 78,
      "start": 0.6833,
      "duration": 0.102,
      "velocity": 77,
      "chip": "ym2612"
    },
    {
      "channel": 0,
      "note": 85,
      "start": 0.7843,
      "duration": 0.0973,
      "velocity": 77,
      "chip": "ym2612"
    },
    {
      "channel": 1,
      "note": 58,
      "start": 0.7851,
      "duration": 0.7995,
      "velocity": 102,
      "chip": "ym2612"
    },
    {
      "channel": 2,
      "note": 76,
      "start": 0.7858,
      "duration": 0.0968,
      "velocity": 77,
      "chip": "ym2612"
    },
    {
      "channel": 5,
      "note": 32,
      "start": 0.7867,
      "duration": 0.1288,
      "velocity": 114,
      "chip": "ym2612"
    },
    {
      "channel": 0,
      "note": 83,
      "start": 0.8822,
      "duration": 0.1014,
      "velocity": 77,
      "chip": "ym2612"
    },
    {
      "channel": 2,
      "note": 74,
      "start": 0.8833,
      "duration": 0.1014,
      "velocity": 77,
      "chip": "ym2612"
    },
    {
      "channel": 0,
      "note": 85,
      "start": 0.9841,
      "duration": 0.0975,
      "velocity": 77,
      "chip": "ym2612"
    },
    {
      "channel": 2,
      "note": 76,
      "start": 0.9852,
      "duration": 0.0974,
      "velocity": 77,
      "chip": "ym2612"
    },
    {
      "channel": 5,
      "note": 75,
      "start": 0.9861,
      "duration": 0.2975,
      "velocity": 120,
      "chip": "ym2612"
    },
    {
      "channel": 0,
      "note": 86,
      "start": 1.0822,
      "duration": 0.0994,
      "velocity": 77,
      "chip": "ym2612"
    },
    {
      "channel": 2,
      "note": 78,
      "start": 1.0833,
      "duration": 0.0994,
      "velocity": 77,
      "chip": "ym2612"
    },
    {
      "channel": 0,
      "note": 78,
      "start": 1.1822,
      "duration": 0.0994,
      "velocity": 77,
      "chip": "ym2612"
    },
    {
      "channel": 2,
      "note": 71,
      "start": 1.1832,
      "duration": 0.0995,
      "velocity": 77,
      "chip": "ym2612"
    },
    {
      "channel": 0,
      "note": 83,
      "start": 1.2822,
      "duration": 0.1014,
      "velocity": 77,
      "chip": "ym2612"
    },
    {
      "channel": 2,
      "note": 74,
      "start": 1.2833,
      "duration": 0.1014,
      "velocity": 77,
      "chip": "ym2612"
    },
    {
      "channel": 0,
      "note": 85,
      "start": 1.3841,
      "duration": 0.0975,
      "velocity": 77,
      "chip": "ym2612"
    },
    {
      "channel": 2,
      "note": 76,
      "start": 1.3852,
      "duration": 0.0974,
      "velocity": 77,
      "chip": "ym2612"
    },
    {
      "channel": 5,
      "note": 75,
      "start": 1.3861,
      "duration": 0.1949,
      "velocity": 120,
      "chip": "ym2612"
    },
    {
      "channel": 0,
      "note": 86,
      "start": 1.4822,
      "duration": 0.1017,
      "velocity": 77,
      "chip": "ym2612"
    },
    {
      "channel": 2,
      "note": 78,
      "start": 1.4833,
      "duration": 0.1024,
      "velocity": 77,
      "chip": "ym2612"
    },
    {
      "channel": 0,
      "note": 85,
      "start": 1.5845,
      "duration": 0.0971,
      "velocity": 77,
      "chip": "ym2612"
    },
    {
      "channel": 1,
      "note": 57,
      "start": 1.5852,
      "duration": 0.7994,
      "velocity": 102,
      "chip": "ym2612"
    },
    {
      "channel": 2,
      "note": 76,
      "start": 1.5862,
      "duration": 0.0964,
      "velocity": 77,
      "chip": "ym2612"
    },
    {
      "channel": 5,
      "note": 32,
      "start": 1.5873,
      "duration": 0.1282,
      "velocity": 114,
      "chip": "ym2612"
    },
    {
      "channel": 0,
      "note": 83,
      "start": 1.6822,
      "duration": 0.0994,
      "velocity": 77,
      "chip": "ym2612"
    },
    {
      "channel": 2,
      "note": 74,
      "start": 1.6833,
      "duration": 0.0994,
      "velocity": 77,
      "chip": "ym2612"
    },
    {
      "channel": 0,
      "note": 85,
      "start": 1.7822,
      "duration": 0.0994,
      "velocity": 77,
      "chip": "ym2612"
    },
    {
      "channel": 2,
      "note": 76,
      "start": 1.7833,
      "duration": 0.0994,
      "velocity": 77,
      "chip": "ym2612"
    },
    {
      "channel": 0,
      "note": 86,
      "start": 1.8822,
      "duration": 0.1014,
      "velocity": 77,
      "chip": "ym2612"
    },
    {
      "channel": 2,
      "note": 78,
      "start": 1.8833,
      "duration": 0.1013,
      "velocity": 77,
      "chip": "ym2612"
    },
    {
      "channel": 0,
      "note": 78,
      "start": 1.9841,
      "duration": 0.0975,
      "velocity": 77,
      "chip": "ym2612"
    },
    {
      "channel": 2,
      "note": 71,
      "start": 1.9852,
      "duration": 0.0974,
      "velocity": 77,
      "chip": "ym2612"
    },
    {
      "channel": 5,
      "note": 75,
      "start": 1.9861,
      "duration": 0.2975,
      "velocity": 120,
      "chip": "ym2612"
    },
    {
      "channel": 0,
      "note": 83,
      "start": 2.0822,
      "duration": 0.0994,
      "velocity": 77,
      "chip": "ym2612"
    },
    {
      "channel": 2,
      "note": 74,
      "start": 2.0833,
      "duration": 0.0994,
      "velocity": 77,
      "chip": "ym2612"
    },
    {
      "channel": 0,
      "note": 85,
      "start": 2.1822,
      "duration": 0.0994,
      "velocity": 77,
      "chip": "ym2612"
    },
    {
      "channel": 2,
      "note": 76,
      "start": 2.1833,
      "duration": 0.0994,
      "velocity": 77,
      "chip": "ym2612"
    },
    {
      "channel": 0,
      "note": 86,
      "start": 2.2822,
      "duration": 0.1016,
      "velocity": 77,
      "chip": "ym2612"
    },
    {
      "channel": 2,
      "note": 78,
      "start": 2.2833,
      "duration": 0.102,
      "velocity": 77,
      "chip": "ym2612"
    },
    {
      "channel": 0,
      "note": 85,
      "start": 2.3844,
      "duration": 0.0972,
      "velocity": 77,
      "chip": "ym2612"
    },
    {
      "channel": 1,
      "note": 56,
      "start": 2.3851,
      "duration": 0.7995,
      "velocity": 102,
      "chip": "ym2612"
    },
    {
      "channel": 2,
      "note": 76,
      "start": 2.3858,
      "duration": 0.0969,
      "velocity": 77,
      "chip": "ym2612"
    },
    {
      "channel": 5,
      "note": 32,
      "start": 2.3868,
      "duration": 0.1288,
      "velocity": 114,
      "chip": "ym2612"
    },
    {
      "channel": 0,
      "note": 83,
      "start": 2.4822,
      "duration": 0.0994,
      "velocity": 77,
      "chip": "ym2612"
    },
    {
      "channel": 2,
      "note": 74,
      "start": 2.4833,
      "duration": 0.0994,
      "velocity": 77,
      "chip": "ym2612"
    },
    {
      "channel": 0,
      "note": 85,
      "start": 2.5822,
      "duration": 0.0994,
      "velocity": 77,
      "chip": "ym2612"
    },
    {
      "channel": 2,
      "note": 76,
      "start": 2.5833,
      "duration": 0.0994,
      "velocity": 77,
      "chip": "ym2612"
    },
    {
      "channel": 0,
      "note": 86,
      "start": 2.6822,
      "duration": 0.1014,
      "velocity": 77,
      "chip": "ym2612"
    },
    {
      "channel": 2,
      "note": 78,
      "start": 2.6833,
      "duration": 0.1014,
      "velocity": 77,
      "chip": "ym2612"
    },
    {
      "channel": 0,
      "note": 78,
      "start": 2.7841,
      "duration": 0.0975,
      "velocity": 77,
      "chip": "ym2612"
    },
    {
      "channel": 2,
      "note": 71,
      "start": 2.7852,
      "duration": 0.0974,
      "velocity": 77,
      "chip": "ym2612"
    },
    {
      "channel": 5,
      "note": 75,
      "start": 2.7861,
      "duration": 0.1949,
      "velocity": 120,
      "chip": "ym2612"
    },
    {
      "channel": 0,
      "note": 83,
      "start": 2.8822,
      "duration": 0.1014,
      "velocity": 77,
      "chip": "ym2612"
    },
    {
      "channel": 2,
      "note": 74,
      "start": 2.8833,
      "duration": 0.1014,
      "velocity": 77,
      "chip": "ym2612"
    },
    {
      "channel": 0,
      "note": 85,
      "start": 2.9841,
      "duration": 0.0994,
      "velocity": 77,
      "chip": "ym2612"
    },
    {
      "channel": 2,
      "note": 76,
      "start": 2.9852,
      "duration": 0.0994,
      "velocity": 77,
      "chip": "ym2612"
    },
    {
      "channel": 5,
      "note": 75,
      "start": 2.9861,
      "duration": 0.0949,
      "velocity": 120,
      "chip": "ym2612"
    },
    {
      "channel": 0,
      "note": 86,
      "start": 3.0841,
      "duration": 0.0998,
      "velocity": 77,
      "chip": "ym2612"
    },
    {
      "channel": 2,
      "note": 78,
      "start": 3.0852,
      "duration": 0.1004,
      "velocity": 77,
      "chip": "ym2612"
    },
    {
      "channel": 5,
      "note": 75,
      "start": 3.0861,
      "duration": 0.095,
      "velocity": 120,
      "chip": "ym2612"
    },
    {
      "channel": 0,
      "note": 85,
      "start": 3.1845,
      "duration": 0.0971,
      "velocity": 77,
      "chip": "ym2612"
    },
    {
      "channel": 1,
      "note": 59,
      "start": 3.1852,
      "duration": 0.7993,
      "velocity": 102,
      "chip": "ym2612"
    },
    {
      "channel": 2,
      "note": 76,
      "start": 3.1863,
      "duration": 0.0964,
      "velocity": 77,
      "chip": "ym2612"
    },
    {
      "channel": 5,
      "note": 32,
      "start": 3.1874,
      "duration": 0.1281,
      "velocity": 114,
      "chip": "ym2612"
    },
    {
      "channel": 0,
      "note": 83,
      "start": 3.2822,
      "duration": 0.0994,
      "velocity": 77,
      "chip": "ym2612"
    },
    {
      "channel": 2,
      "note": 74,
      "start": 3.2833,
      "duration": 0.0994,
      "velocity": 77,
      "chip": "ym2612"
    },
    {
      "channel": 0,
      "note": 85,
      "start": 3.3822,
      "duration": 0.0994,
      "velocity": 77,
      "chip": "ym2612"
    },
    {
      "channel": 2,
      "note": 76,
      "start": 3.3833,
      "duration": 0.0994,
      "velocity": 77,
      "chip": "ym2612"
    },
    {
      "channel": 0,
      "note": 86,
      "start": 3.4822,
      "duration": 0.1014,
      "velocity": 77,
      "chip": "ym2612"
    },
    {
      "channel": 2,
      "note": 78,
      "start": 3.4833,
      "duration": 0.1014,
      "velocity": 77,
      "chip": "ym2612"
    },
    {
      "channel": 0,
      "note": 78,
      "start": 3.5841,
      "duration": 0.0975,
      "velocity": 77,
      "chip": "ym2612"
    },
    {
      "channel": 2,
      "note": 71,
      "start": 3.5852,
      "duration": 0.0974,
      "velocity": 77,
      "chip": "ym2612"
    },
    {
      "channel": 5,
      "note": 75,
      "start": 3.5861,
      "duration": 0.2975,
      "velocity": 120,
      "chip": "ym2612"
    },
    {
      "channel": 0,
      "note": 83,
      "start": 3.6822,
      "duration": 0.0994,
      "velocity": 77,
      "chip": "ym2612"
    },
    {
      "channel": 2,
      "note": 74,
      "start": 3.6833,
      "duration": 0.0994,
      "velocity": 77,
      "chip": "ym2612"
    },
    {
      "channel": 0,
      "note": 85,
      "start": 3.7822,
      "duration": 0.0994,
      "velocity": 77,
      "chip": "ym2612"
    },
    {
      "channel": 2,
      "note": 76,
      "start": 3.7833,
      "duration": 0.0994,
      "velocity": 77,
      "chip": "ym2612"
    },
    {
      "channel": 0,
      "note": 86,
      "start": 3.8822,
      "duration": 0.1016,
      "velocity": 77,
      "chip": "ym2612"
    },
    {
      "channel": 2,
      "note": 78,
      "start": 3.8833,
      "duration": 0.102,
      "velocity": 77,
      "chip": "ym2612"
    },
    {
      "channel": 0,
      "note": 85,
      "start": 3.9844,
      "duration": 0.0972,
      "velocity": 77,
      "chip": "ym2612"
    },
    {
      "channel": 1,
      "note": 58,
      "start": 3.9851,
      "duration": 0.7995,
      "velocity": 102,
      "chip": "ym2612"
    },
    {
      "channel": 2,
      "note": 76,
      "start": 3.9858,
      "duration": 0.0968,
      "velocity": 77,
      "chip": "ym2612"
    },
    {
      "channel": 5,
      "note": 32,
      "start": 3.9868,
      "duration": 0.1288,
      "velocity": 114,
      "chip": "ym2612"
    },
    {
      "channel": 0,
      "note": 83,
      "start": 4.0822,
      "duration": 0.1014,
      "velocity": 77,
      "chip": "ym2612"
    },
    {
      "channel": 2,
      "note": 74,
      "start": 4.0833,
      "duration": 0.1014,
      "velocity": 77,
      "chip": "ym2612"
    },
    {
      "channel": 0,
      "note": 85,
      "start": 4.1841,
      "duration": 0.0975,
      "velocity": 77,
      "chip": "ym2612"
    },
    {
      "channel": 2,
      "note": 76,
      "start": 4.1852,
      "duration": 0.0974,
      "velocity": 77,
      "chip": "ym2612"
    },
    {
      "channel": 5,
      "note": 75,
      "start": 4.1861,
      "duration": 0.2975,
      "velocity": 120,
      "chip": "ym2612"
    },
    {
      "channel": 0,
      "note": 86,
      "start": 4.2822,
      "duration": 0.0994,
      "velocity": 77,
      "chip": "ym2612"
    },
    {
      "channel": 2,
      "note": 78,
      "start": 4.2833,
      "duration": 0.0994,
      "velocity": 77,
      "chip": "ym2612"
    },
    {
      "channel": 0,
      "note": 78,
      "start": 4.3822,
      "duration": 0.0994,
      "velocity": 77,
      "chip": "ym2612"
    },
    {
      "channel": 2,
      "note": 71,
      "start": 4.3832,
      "duration": 0.0994,
      "velocity": 77,
      "chip": "ym2612"
    },
    {
      "channel": 0,
      "note": 83,
      "start": 4.4822,
      "duration": 0.1014,
      "velocity": 77,
      "chip": "ym2612"
    },
    {
      "channel": 2,
      "note": 74,
      "start": 4.4833,
      "duration": 0.1014,
      "velocity": 77,
      "chip": "ym2612"
    },
    {
      "channel": 0,
      "note": 85,
      "start": 4.5841,
      "duration": 0.0975,
      "velocity": 77,
      "chip": "ym2612"
    },
    {
      "channel": 2,
      "note": 76,
      "start": 4.5852,
      "duration": 0.0974,
      "velocity": 77,
      "chip": "ym2612"
    },
    {
      "channel": 5,
      "note": 75,
      "start": 4.5861,
      "duration": 0.1949,
      "velocity": 120,
      "chip": "ym2612"
    },
    {
      "channel": 0,
      "note": 86,
      "start": 4.6822,
      "duration": 0.1017,
      "velocity": 77,
      "chip": "ym2612"
    },
    {
      "channel": 2,
      "note": 78,
      "start": 4.6833,
      "duration": 0.1024,
      "velocity": 77,
      "chip": "ym2612"
    },
    {
      "channel": 0,
      "note": 85,
      "start": 4.7845,
      "duration": 0.0971,
      "velocity": 77,
      "chip": "ym2612"
    },
    {
      "channel": 1,
      "note": 57,
      "start": 4.7852,
      "duration": 0.7994,
      "velocity": 102,
      "chip": "ym2612"
    },
    {
      "channel": 2,
      "note": 76,
      "start": 4.7862,
      "duration": 0.0965,
      "velocity": 77,
      "chip": "ym2612"
    },
    {
      "channel": 5,
      "note": 32,
      "start": 4.7873,
      "duration": 0.1282,
      "velocity": 114,
      "chip": "ym2612"
    },
    {
      "channel": 0,
      "note": 83,
      "start": 4.8822,
      "duration": 0.0994,
      "velocity": 77,
      "chip": "ym2612"
    },
    {
      "channel": 2,
      "note": 74,
      "start": 4.8833,
      "duration": 0.0994,
      "velocity": 77,
      "chip": "ym2612"
    },
    {
      "channel": 0,
      "note": 85,
      "start": 4.9822,
      "duration": 0.0994,
      "velocity": 77,
      "chip": "ym2612"
    },
    {
      "channel": 2,
      "note": 76,
      "start": 4.9833,
      "duration": 0.0994,
      "velocity": 77,
      "chip": "ym2612"
    },
    {
      "channel": 0,
      "note": 86,
      "start": 5.0822,
      "duration": 0.1014,
      "velocity": 77,
      "chip": "ym2612"
    },
    {
      "channel": 2,
      "note": 78,
      "start": 5.0833,
      "duration": 0.1014,
      "velocity": 77,
      "chip": "ym2612"
    },
    {
      "channel": 0,
      "note": 78,
      "start": 5.1841,
      "duration": 0.0975,
      "velocity": 77,
      "chip": "ym2612"
    },
    {
      "channel": 2,
      "note": 71,
      "start": 5.1852,
      "duration": 0.0974,
      "velocity": 77,
      "chip": "ym2612"
    },
    {
      "channel": 5,
      "note": 75,
      "start": 5.1861,
      "duration": 0.2975,
      "velocity": 120,
      "chip": "ym2612"
    },
    {
      "channel": 0,
      "note": 83,
      "start": 5.2822,
      "duration": 0.0994,
      "velocity": 77,
      "chip": "ym2612"
    },
    {
      "channel": 2,
      "note": 74,
      "start": 5.2833,
      "duration": 0.0994,
      "velocity": 77,
      "chip": "ym2612"
    },
    {
      "channel": 0,
      "note": 85,
      "start": 5.3822,
      "duration": 0.0994,
      "velocity": 77,
      "chip": "ym2612"
    },
    {
      "channel": 2,
      "note": 76,
      "start": 5.3833,
      "duration": 0.0994,
      "velocity": 77,
      "chip": "ym2612"
    },
    {
      "channel": 0,
      "note": 86,
      "start": 5.4822,
      "duration": 0.1016,
      "velocity": 77,
      "chip": "ym2612"
    },
    {
      "channel": 2,
      "note": 78,
      "start": 5.4833,
      "duration": 0.102,
      "velocity": 77,
      "chip": "ym2612"
    },
    {
      "channel": 0,
      "note": 85,
      "start": 5.5843,
      "duration": 0.0973,
      "velocity": 77,
      "chip": "ym2612"
    },
    {
      "channel": 1,
      "note": 56,
      "start": 5.585,
      "duration": 0.7996,
      "velocity": 102,
      "chip": "ym2612"
    },
    {
      "channel": 2,
      "note": 76,
      "start": 5.5858,
      "duration": 0.0968,
      "velocity": 77,
      "chip": "ym2612"
    },
    {
      "channel": 5,
      "note": 32,
      "start": 5.5867,
      "duration": 0.1288,
      "velocity": 114,
      "chip": "ym2612"
    },
    {
      "channel": 0,
      "note": 83,
      "start": 5.6822,
      "duration": 0.0994,
      "velocity": 77,
      "chip": "ym2612"
    },
    {
      "channel": 2,
      "note": 74,
      "start": 5.6833,
      "duration": 0.0994,
      "velocity": 77,
      "chip": "ym2612"
    },
    {
      "channel": 0,
      "note": 85,
      "start": 5.7822,
      "duration": 0.0994,
      "velocity": 77,
      "chip": "ym2612"
    },
    {
      "channel": 2,
      "note": 76,
      "start": 5.7833,
      "duration": 0.0994,
      "velocity": 77,
      "chip": "ym2612"
    },
    {
      "channel": 0,
      "note": 86,
      "start": 5.8822,
      "duration": 0.1014,
      "velocity": 77,
      "chip": "ym2612"
    },
    {
      "channel": 2,
      "note": 78,
      "start": 5.8833,
      "duration": 0.1014,
      "velocity": 77,
      "chip": "ym2612"
    },
    {
      "channel": 0,
      "note": 78,
      "start": 5.9841,
      "duration": 0.0975,
      "velocity": 77,
      "chip": "ym2612"
    },
    {
      "channel": 2,
      "note": 71,
      "start": 5.9852,
      "duration": 0.0974,
      "velocity": 77,
      "chip": "ym2612"
    },
    {
      "channel": 5,
      "note": 75,
      "start": 5.9861,
      "duration": 0.1949,
      "velocity": 120,
      "chip": "ym2612"
    },
    {
      "channel": 0,
      "note": 83,
      "start": 6.0822,
      "duration": 0.1014,
      "velocity": 77,
      "chip": "ym2612"
    },
    {
      "channel": 2,
      "note": 74,
      "start": 6.0833,
      "duration": 0.1014,
      "velocity": 77,
      "chip": "ym2612"
    },
    {
      "channel": 0,
      "note": 85,
      "start": 6.1841,
      "duration": 0.0994,
      "velocity": 77,
      "chip": "ym2612"
    },
    {
      "channel": 2,
      "note": 76,
      "start": 6.1852,
      "duration": 0.0994,
      "velocity": 77,
      "chip": "ym2612"
    },
    {
      "channel": 5,
      "note": 75,
      "start": 6.1861,
      "duration": 0.0949,
      "velocity": 120,
      "chip": "ym2612"
    },
    {
      "channel": 0,
      "note": 86,
      "start": 6.2841,
      "duration": 0.0998,
      "velocity": 77,
      "chip": "ym2612"
    },
    {
      "channel": 2,
      "note": 78,
      "start": 6.2852,
      "duration": 0.1004,
      "velocity": 77,
      "chip": "ym2612"
    },
    {
      "channel": 5,
      "note": 75,
      "start": 6.2861,
      "duration": 0.095,
      "velocity": 120,
      "chip": "ym2612"
    },
    {
      "channel": 0,
      "note": 90,
      "start": 6.3845,
      "duration": 0.0971,
      "velocity": 77,
      "chip": "ym2612"
    },
    {
      "channel": 1,
      "note": 64,
      "start": 6.3852,
      "duration": 0.7993,
      "velocity": 102,
      "chip": "ym2612"
    },
    {
      "channel": 2,
      "note": 81,
      "start": 6.3863,
      "duration": 0.0964,
      "velocity": 77,
      "chip": "ym2612"
    },
    {
      "channel": 5,
      "note": 32,
      "start": 6.3874,
      "duration": 0.1281,
      "velocity": 114,
      "chip": "ym2612"
    },
    {
      "channel": 0,
      "note": 88,
      "start": 6.4822,
      "duration": 0.0994,
      "velocity": 77,
      "chip": "ym2612"
    },
    {
      "channel": 2,
      "note": 79,
      "start": 6.4833,
      "duration": 0.0994,
      "velocity": 77,
      "chip": "ym2612"
    },
    {
      "channel": 0,
      "note": 90,
      "start": 6.5822,
      "duration": 0.0994,
      "velocity": 77,
      "chip": "ym2612"
    },
    {
      "channel": 2,
      "note": 81,
      "start": 6.5833,
      "duration": 0.0994,
      "velocity": 77,
      "chip": "ym2612"
    },
    {
      "channel": 0,
      "note": 91,
      "start": 6.6822,
      "duration": 0.1014,
      "velocity": 77,
      "chip": "ym2612"
    },
    {
      "channel": 2,
      "note": 83,
      "start": 6.6833,
      "duration": 0.1014,
      "velocity": 77,
      "chip": "ym2612"
    },
    {
      "channel": 0,
      "note": 83,
      "start": 6.7841,
      "duration": 0.0975,
      "velocity": 77,
      "chip": "ym2612"
    },
    {
      "channel": 2,
      "note": 76,
      "start": 6.7852,
      "duration": 0.0974,
      "velocity": 77,
      "chip": "ym2612"
    },
    {
      "channel": 5,
      "note": 75,
      "start": 6.7861,
      "duration": 0.2975,
      "velocity": 120,
      "chip": "ym2612"
    },
    {
      "channel": 0,
      "note": 88,
      "start": 6.8822,
      "duration": 0.0994,
      "velocity": 77,
      "chip": "ym2612"
    },
    {
      "channel": 2,
      "note": 79,
      "start": 6.8833,
      "duration": 0.0994,
      "velocity": 77,
      "chip": "ym2612"
    },
    {
      "channel": 0,
      "note": 90,
      "start": 6.9822,
      "duration": 0.0994,
      "velocity": 77,
      "chip": "ym2612"
    },
    {
      "channel": 2,
      "note": 81,
      "start": 6.9833,
      "duration": 0.0994,
      "velocity": 77,
      "chip": "ym2612"
    },
    {
      "channel": 0,
      "note": 91,
      "start": 7.0822,
      "duration": 0.1016,
      "velocity": 77,
      "chip": "ym2612"
    },
    {
      "channel": 2,
      "note": 83,
      "start": 7.0833,
      "duration": 0.102,
      "velocity": 77,
      "chip": "ym2612"
    },
    {
      "channel": 0,
      "note": 90,
      "start": 7.1844,
      "duration": 0.0972,
      "velocity": 77,
      "chip": "ym2612"
    },
    {
      "channel": 1,
      "note": 63,
      "start": 7.1851,
      "duration": 0.7995,
      "velocity": 102,
      "chip": "ym2612"
    },
    {
      "channel": 2,
      "note": 81,
      "start": 7.1858,
      "duration": 0.0969,
      "velocity": 77,
      "chip": "ym2612"
    },
    {
      "channel": 5,
      "note": 32,
      "start": 7.1868,
      "duration": 0.1288,
      "velocity": 114,
      "chip": "ym2612"
    },
    {
      "channel": 0,
      "note": 88,
      "start": 7.2822,
      "duration": 0.1014,
      "velocity": 77,
      "chip": "ym2612"
    },
    {
      "channel": 2,
      "note": 79,
      "start": 7.2833,
      "duration": 0.1014,
      "velocity": 77,
      "chip": "ym2612"
    },
    {
      "channel": 0,
      "note": 90,
      "start": 7.3841,
      "duration": 0.0975,
      "velocity": 77,
      "chip": "ym2612"
    },
    {
      "channel": 2,
      "note": 81,
      "start": 7.3852,
      "duration": 0.0974,
      "velocity": 77,
      "chip": "ym2612"
    },
    {
      "channel": 5,
      "note": 75,
      "start": 7.3861,
      "duration": 0.2975,
      "velocity": 120,
      "chip": "ym2612"
    },
    {
      "channel": 0,
      "note": 91,
      "start": 7.4822,
      "duration": 0.0994,
      "velocity": 77,
      "chip": "ym2612"
    },
    {
      "channel": 2,
      "note": 83,
      "start": 7.4833,
      "duration": 0.0994,
      "velocity": 77,
      "chip": "ym2612"
    },
    {
      "channel": 0,
      "note": 83,
      "start": 7.5822,
      "duration": 0.0994,
      "velocity": 77,
      "chip": "ym2612"
    },
    {
      "channel": 2,
      "note": 76,
      "start": 7.5833,
      "duration": 0.0994,
      "velocity": 77,
      "chip": "ym2612"
    },
    {
      "channel": 0,
      "note": 88,
      "start": 7.6822,
      "duration": 0.1014,
      "velocity": 77,
      "chip": "ym2612"
    },
    {
      "channel": 2,
      "note": 79,
      "start": 7.6833,
      "duration": 0.1014,
      "velocity": 77,
      "chip": "ym2612"
    },
    {
      "channel": 0,
      "note": 90,
      "start": 7.7841,
      "duration": 0.0975,
      "velocity": 77,
      "chip": "ym2612"
    },
    {
      "channel": 2,
      "note": 81,
      "start": 7.7852,
      "duration": 0.0974,
      "velocity": 77,
      "chip": "ym2612"
    },
    {
      "channel": 5,
      "note": 75,
      "start": 7.7861,
      "duration": 0.1949,
      "velocity": 120,
      "chip": "ym2612"
    },
    {
      "channel": 0,
      "note": 91,
      "start": 7.8822,
      "duration": 0.1017,
      "velocity": 77,
      "chip": "ym2612"
    },
    {
      "channel": 2,
      "note": 83,
      "start": 7.8833,
      "duration": 0.1024,
      "velocity": 77,
      "chip": "ym2612"
    },
    {
      "channel": 0,
      "note": 90,
      "start": 7.9845,
      "duration": 0.0971,
      "velocity": 77,
      "chip": "ym2612"
    },
    {
      "channel": 1,
      "note": 62,
      "start": 7.9852,
      "duration": 0.7994,
      "velocity": 102,
      "chip": "ym2612"
    },
    {
      "channel": 2,
      "note": 81,
      "start": 7.9862,
      "duration": 0.0964,
      "velocity": 77,
      "chip": "ym2612"
    },
    {
      "channel": 5,
      "note": 32,
      "start": 7.9873,
      "duration": 0.1282,
      "velocity": 114,
      "chip": "ym2612"
    },
    {
      "channel": 0,
      "note": 88,
      "start": 8.0822,
      "duration": 0.0994,
      "velocity": 77,
      "chip": "ym2612"
    },
    {
      "channel": 2,
      "note": 79,
      "start": 8.0833,
      "duration": 0.0994,
      "velocity": 77,
      "chip": "ym2612"
    },
    {
      "channel": 0,
      "note": 90,
      "start": 8.1822,
      "duration": 0.0994,
      "velocity": 77,
      "chip": "ym2612"
    },
    {
      "channel": 2,
      "note": 81,
      "start": 8.1833,
      "duration": 0.0994,
      "velocity": 77,
      "chip": "ym2612"
    },
    {
      "channel": 0,
      "note": 91,
      "start": 8.2822,
      "duration": 0.1014,
      "velocity": 77,
      "chip": "ym2612"
    },
    {
      "channel": 2,
      "note": 83,
      "start": 8.2833,
      "duration": 0.1014,
      "velocity": 77,
      "chip": "ym2612"
    },
    {
      "channel": 0,
      "note": 83,
      "start": 8.3841,
      "duration": 0.0975,
      "velocity": 77,
      "chip": "ym2612"
    },
    {
      "channel": 2,
      "note": 76,
      "start": 8.3852,
      "duration": 0.0974,
      "velocity": 77,
      "chip": "ym2612"
    },
    {
      "channel": 5,
      "note": 75,
      "start": 8.3861,
      "duration": 0.2975,
      "velocity": 120,
      "chip": "ym2612"
    },
    {
      "channel": 0,
      "note": 88,
      "start": 8.4822,
      "duration": 0.0994,
      "velocity": 77,
      "chip": "ym2612"
    },
    {
      "channel": 2,
      "note": 79,
      "start": 8.4833,
      "duration": 0.0994,
      "velocity": 77,
      "chip": "ym2612"
    },
    {
      "channel": 0,
      "note": 90,
      "start": 8.5822,
      "duration": 0.0994,
      "velocity": 77,
      "chip": "ym2612"
    },
    {
      "channel": 2,
      "note": 81,
      "start": 8.5833,
      "duration": 0.0994,
      "velocity": 77,
      "chip": "ym2612"
    },
    {
      "channel": 0,
      "note": 91,
      "start": 8.6822,
      "duration": 0.1016,
      "velocity": 77,
      "chip": "ym2612"
    },
    {
      "channel": 2,
      "note": 83,
      "start": 8.6833,
      "duration": 0.102,
      "velocity": 77,
      "chip": "ym2612"
    },
    {
      "channel": 0,
      "note": 90,
      "start": 8.7844,
      "duration": 0.0972,
      "velocity": 77,
      "chip": "ym2612"
    },
    {
      "channel": 1,
      "note": 61,
      "start": 8.7851,
      "duration": 0.7995,
      "velocity": 102,
      "chip": "ym2612"
    },
    {
      "channel": 2,
      "note": 81,
      "start": 8.7858,
      "duration": 0.0968,
      "velocity": 77,
      "chip": "ym2612"
    },
    {
      "channel": 5,
      "note": 32,
      "start": 8.7868,
      "duration": 0.1288,
      "velocity": 114,
      "chip": "ym2612"
    },
    {
      "channel": 0,
      "note": 88,
      "start": 8.8822,
      "duration": 0.0994,
      "velocity": 77,
      "chip": "ym2612"
    },
    {
      "channel": 2,
      "note": 79,
      "start": 8.8833,
      "duration": 0.0994,
      "velocity": 77,
      "chip": "ym2612"
    },
    {
      "channel": 0,
      "note": 90,
      "start": 8.9822,
      "duration": 0.0994,
      "velocity": 77,
      "chip": "ym2612"
    },
    {
      "channel": 2,
      "note": 81,
      "start": 8.9833,
      "duration": 0.0994,
      "velocity": 77,
      "chip": "ym2612"
    },
    {
      "channel": 0,
      "note": 91,
      "start": 9.0822,
      "duration": 0.1014,
      "velocity": 77,
      "chip": "ym2612"
    },
    {
      "channel": 2,
      "note": 83,
      "start": 9.0833,
      "duration": 0.1014,
      "velocity": 77,
      "chip": "ym2612"
    },
    {
      "channel": 0,
      "note": 83,
      "start": 9.1841,
      "duration": 0.0975,
      "velocity": 77,
      "chip": "ym2612"
    },
    {
      "channel": 2,
      "note": 76,
      "start": 9.1852,
      "duration": 0.0974,
      "velocity": 77,
      "chip": "ym2612"
    },
    {
      "channel": 5,
      "note": 75,
      "start": 9.1861,
      "duration": 0.1949,
      "velocity": 120,
      "chip": "ym2612"
    },
    {
      "channel": 0,
      "note": 88,
      "start": 9.2822,
      "duration": 0.1014,
      "velocity": 77,
      "chip": "ym2612"
    },
    {
      "channel": 2,
      "note": 79,
      "start": 9.2833,
      "duration": 0.1014,
      "velocity": 77,
      "chip": "ym2612"
    },
    {
      "channel": 0,
      "note": 90,
      "start": 9.3841,
      "duration": 0.0994,
      "velocity": 77,
      "chip": "ym2612"
    },
    {
      "channel": 2,
      "note": 81,
      "start": 9.3852,
      "duration": 0.0994,
      "velocity": 77,
      "chip": "ym2612"
    },
    {
      "channel": 5,
      "note": 75,
      "start": 9.3861,
      "duration": 0.0949,
      "velocity": 120,
      "chip": "ym2612"
    },
    {
      "channel": 0,
      "note": 91,
      "start": 9.4841,
      "duration": 0.0998,
      "velocity": 77,
      "chip": "ym2612"
    },
    {
      "channel": 2,
      "note": 83,
      "start": 9.4852,
      "duration": 0.1004,
      "velocity": 77,
      "chip": "ym2612"
    },
    {
      "channel": 5,
      "note": 75,
      "start": 9.4861,
      "duration": 0.095,
      "velocity": 120,
      "chip": "ym2612"
    },
    {
      "channel": 0,
      "note": 90,
      "start": 9.5845,
      "duration": 0.0971,
      "velocity": 77,
      "chip": "ym2612"
    },
    {
      "channel": 1,
      "note": 64,
      "start": 9.5852,
      "duration": 0.7992,
      "velocity": 102,
      "chip": "ym2612"
    },
    {
      "channel": 2,
      "note": 81,
      "start": 9.5863,
      "duration": 0.0964,
      "velocity": 77,
      "chip": "ym2612"
    },
    {
      "channel": 5,
      "note": 32,
      "start": 9.5874,
      "duration": 0.1281,
      "velocity": 114,
      "chip": "ym2612"
    },
    {
      "channel": 0,
      "note": 88,
      "start": 9.6822,
      "duration": 0.0994,
      "velocity": 77,
      "chip": "ym2612"
    },
    {
      "channel": 2,
      "note": 79,
      "start": 9.6833,
      "duration": 0.0994,
      "velocity": 77,
      "chip": "ym2612"
    },
    {
      "channel": 0,
      "note": 90,
      "start": 9.7822,
      "duration": 0.0994,
      "velocity": 77,
      "chip": "ym2612"
    },
    {
      "channel": 2,
      "note": 81,
      "start": 9.7833,
      "duration": 0.0994,
      "velocity": 77,
      "chip": "ym2612"
    },
    {
      "channel": 0,
      "note": 91,
      "start": 9.8822,
      "duration": 0.1014,
      "velocity": 77,
      "chip": "ym2612"
    },
    {
      "channel": 2,
      "note": 83,
      "start": 9.8833,
      "duration": 0.1014,
      "velocity": 77,
      "chip": "ym2612"
    },
    {
      "channel": 0,
      "note": 83,
      "start": 9.9841,
      "duration": 0.0975,
      "velocity": 77,
      "chip": "ym2612"
    },
    {
      "channel": 2,
      "note": 76,
      "start": 9.9852,
      "duration": 0.0974,
      "velocity": 77,
      "chip": "ym2612"
    },
    {
      "channel": 5,
      "note": 75,
      "start": 9.9861,
      "duration": 0.2975,
      "velocity": 120,
      "chip": "ym2612"
    },
    {
      "channel": 0,
      "note": 88,
      "start": 10.0822,
      "duration": 0.0994,
      "velocity": 77,
      "chip": "ym2612"
    },
    {
      "channel": 2,
      "note": 79,
      "start": 10.0833,
      "duration": 0.0994,
      "velocity": 77,
      "chip": "ym2612"
    },
    {
      "channel": 0,
      "note": 90,
      "start": 10.1822,
      "duration": 0.0994,
      "velocity": 77,
      "chip": "ym2612"
    },
    {
      "channel": 2,
      "note": 81,
      "start": 10.1833,
      "duration": 0.0994,
      "velocity": 77,
      "chip": "ym2612"
    },
    {
      "channel": 0,
      "note": 91,
      "start": 10.2822,
      "duration": 0.1016,
      "velocity": 77,
      "chip": "ym2612"
    },
    {
      "channel": 2,
      "note": 83,
      "start": 10.2833,
      "duration": 0.1019,
      "velocity": 77,
      "chip": "ym2612"
    },
    {
      "channel": 0,
      "note": 90,
      "start": 10.3843,
      "duration": 0.0973,
      "velocity": 77,
      "chip": "ym2612"
    },
    {
      "channel": 1,
      "note": 63,
      "start": 10.385,
      "duration": 0.7996,
      "velocity": 102,
      "chip": "ym2612"
    },
    {
      "channel": 2,
      "note": 81,
      "start": 10.3857,
      "duration": 0.0969,
      "velocity": 77,
      "chip": "ym2612"
    },
    {
      "channel": 5,
      "note": 32,
      "start": 10.3867,
      "duration": 0.1288,
      "velocity": 114,
      "chip": "ym2612"
    },
    {
      "channel": 0,
      "note": 88,
      "start": 10.4822,
      "duration": 0.1014,
      "velocity": 77,
      "chip": "ym2612"
    },
    {
      "channel": 2,
      "note": 79,
      "start": 10.4833,
      "duration": 0.1014,
      "velocity": 77,
      "chip": "ym2612"
    },
    {
      "channel": 0,
      "note": 90,
      "start": 10.5841,
      "duration": 0.0975,
      "velocity": 77,
      "chip": "ym2612"
    },
    {
      "channel": 2,
      "note": 81,
      "start": 10.5852,
      "duration": 0.0974,
      "velocity": 77,
      "chip": "ym2612"
    },
    {
      "channel": 5,
      "note": 75,
      "start": 10.5861,
      "duration": 0.2975,
      "velocity": 120,
      "chip": "ym2612"
    },
    {
      "channel": 0,
      "note": 91,
      "start": 10.6822,
      "duration": 0.0994,
      "velocity": 77,
      "chip": "ym2612"
    },
    {
      "channel": 2,
      "note": 83,
      "start": 10.6833,
      "duration": 0.0994,
      "velocity": 77,
      "chip": "ym2612"
    },
    {
      "channel": 0,
      "note": 83,
      "start": 10.7822,
      "duration": 0.0994,
      "velocity": 77,
      "chip": "ym2612"
    },
    {
      "channel": 2,
      "note": 76,
      "start": 10.7833,
      "duration": 0.0994,
      "velocity": 77,
      "chip": "ym2612"
    },
    {
      "channel": 0,
      "note": 88,
      "start": 10.8822,
      "duration": 0.1014,
      "velocity": 77,
      "chip": "ym2612"
    },
    {
      "channel": 2,
      "note": 79,
      "start": 10.8833,
      "duration": 0.1014,
      "velocity": 77,
      "chip": "ym2612"
    },
    {
      "channel": 0,
      "note": 90,
      "start": 10.9841,
      "duration": 0.0975,
      "velocity": 77,
      "chip": "ym2612"
    },
    {
      "channel": 2,
      "note": 81,
      "start": 10.9852,
      "duration": 0.0974,
      "velocity": 77,
      "chip": "ym2612"
    },
    {
      "channel": 5,
      "note": 75,
      "start": 10.9861,
      "duration": 0.1949,
      "velocity": 120,
      "chip": "ym2612"
    },
    {
      "channel": 0,
      "note": 91,
      "start": 11.0822,
      "duration": 0.1017,
      "velocity": 77,
      "chip": "ym2612"
    },
    {
      "channel": 2,
      "note": 83,
      "start": 11.0833,
      "duration": 0.1024,
      "velocity": 77,
      "chip": "ym2612"
    },
    {
      "channel": 0,
      "note": 90,
      "start": 11.1845,
      "duration": 0.0971,
      "velocity": 77,
      "chip": "ym2612"
    },
    {
      "channel": 1,
      "note": 62,
      "start": 11.1852,
      "duration": 0.7994,
      "velocity": 102,
      "chip": "ym2612"
    },
    {
      "channel": 2,
      "note": 81,
      "start": 11.1862,
      "duration": 0.0964,
      "velocity": 77,
      "chip": "ym2612"
    },
    {
      "channel": 5,
      "note": 32,
      "start": 11.1873,
      "duration": 0.1284,
      "velocity": 114,
      "chip": "ym2612"
    },
    {
      "channel": 0,
      "note": 88,
      "start": 11.2822,
      "duration": 0.0994,
      "velocity": 77,
      "chip": "ym2612"
    },
    {
      "channel": 2,
      "note": 79,
      "start": 11.2833,
      "duration": 0.0994,
      "velocity": 77,
      "chip": "ym2612"
    },
    {
      "channel": 3,
      "note": 73,
      "start": 11.284,
      "duration": 0.0994,
      "velocity": 127,
      "chip": "ym2612"
    },
    {
      "channel": 0,
      "note": 90,
      "start": 11.3822,
      "duration": 0.0994,
      "velocity": 77,
      "chip": "ym2612"
    },
    {
      "channel": 2,
      "note": 81,
      "start": 11.3833,
      "duration": 0.0994,
      "velocity": 77,
      "chip": "ym2612"
    },
    {
      "channel": 0,
      "note": 91,
      "start": 11.4822,
      "duration": 0.1014,
      "velocity": 77,
      "chip": "ym2612"
    },
    {
      "channel": 2,
      "note": 83,
      "start": 11.4833,
      "duration": 0.1014,
      "velocity": 77,
      "chip": "ym2612"
    },
    {
      "channel": 3,
      "note": 73,
      "start": 11.4843,
      "duration": 0.1014,
      "velocity": 127,
      "chip": "ym2612"
    },
    {
      "channel": 0,
      "note": 83,
      "start": 11.5841,
      "duration": 0.0975,
      "velocity": 77,
      "chip": "ym2612"
    },
    {
      "channel": 2,
      "note": 76,
      "start": 11.5852,
      "duration": 0.0974,
      "velocity": 77,
      "chip": "ym2612"
    },
    {
      "channel": 3,
      "note": 81,
      "start": 11.5863,
      "duration": 0.0971,
      "velocity": 127,
      "chip": "ym2612"
    },
    {
      "channel": 5,
      "note": 75,
      "start": 11.5871,
      "duration": 0.2971,
      "velocity": 120,
      "chip": "ym2612"
    },
    {
      "channel": 0,
      "note": 88,
      "start": 11.6822,
      "duration": 0.0994,
      "velocity": 77,
      "chip": "ym2612"
    },
    {
      "channel": 2,
      "note": 79,
      "start": 11.6833,
      "duration": 0.0994,
      "velocity": 77,
      "chip": "ym2612"
    },
    {
      "channel": 0,
      "note": 90,
      "start": 11.7822,
      "duration": 0.0994,
      "velocity": 77,
      "chip": "ym2612"
    },
    {
      "channel": 2,
      "note": 81,
      "start": 11.7833,
      "duration": 0.0994,
      "velocity": 77,
      "chip": "ym2612"
    },
    {
      "channel": 3,
      "note": 73,
      "start": 11.7843,
      "duration": 0.099,
      "velocity": 127,
      "chip": "ym2612"
    },
    {
      "channel": 0,
      "note": 91,
      "start": 11.8822,
      "duration": 0.1016,
      "velocity": 77,
      "chip": "ym2612"
    },
    {
      "channel": 2,
      "note": 83,
      "start": 11.8833,
      "duration": 0.102,
      "velocity": 77,
      "chip": "ym2612"
    },
    {
      "channel": 3,
      "note": 73,
      "start": 11.884,
      "duration": 0.1023,
      "velocity": 127,
      "chip": "ym2612"
    },
    {
      "channel": 0,
      "note": 90,
      "start": 11.9844,
      "duration": 0.0972,
      "velocity": 77,
      "chip": "ym2612"
    },
    {
      "channel": 1,
      "note": 61,
      "start": 11.9851,
      "duration": 0.7997,
      "velocity": 102,
      "chip": "ym2612"
    },
    {
      "channel": 2,
      "note": 81,
      "start": 11.9858,
      "duration": 0.0969,
      "velocity": 77,
      "chip": "ym2612"
    },
    {
      "channel": 3,
      "note": 64,
      "start": 11.9869,
      "duration": 0.0969,
      "velocity": 127,
      "chip": "ym2612"
    },
    {
      "channel": 5,
      "note": 32,
      "start": 11.9877,
      "duration": 0.128,
      "velocity": 114,
      "chip": "ym2612"
    },
    {
      "channel": 0,
      "note": 88,
      "start": 12.0822,
      "duration": 0.0994,
      "velocity": 77,
      "chip": "ym2612"
    },
    {
      "channel": 2,
      "note": 79,
      "start": 12.0833,
      "duration": 0.0994,
      "velocity": 77,
      "chip": "ym2612"
    },
    {
      "channel": 3,
      "note": 64,
      "start": 12.0843,
      "duration": 0.099,
      "velocity": 127,
      "chip": "ym2612"
    },
    {
      "channel": 0,
      "note": 90,
      "start": 12.1822,
      "duration": 0.0994,
      "velocity": 77,
      "chip": "ym2612"
    },
    {
      "channel": 2,
      "note": 81,
      "start": 12.1833,
      "duration": 0.0994,
      "velocity": 77,
      "chip": "ym2612"
    },
    {
      "channel": 3,
      "note": 64,
      "start": 12.184,
      "duration": 0.0994,
      "velocity": 127,
      "chip": "ym2612"
    },
    {
      "channel": 0,
      "note": 91,
      "start": 12.2822,
      "duration": 0.1014,
      "velocity": 77,
      "chip": "ym2612"
    },
    {
      "channel": 2,
      "note": 83,
      "start": 12.2833,
      "duration": 0.1014,
      "velocity": 77,
      "chip": "ym2612"
    },
    {
      "channel": 3,
      "note": 64,
      "start": 12.284,
      "duration": 0.1018,
      "velocity": 127,
      "chip": "ym2612"
    },
    {
      "channel": 0,
      "note": 83,
      "start": 12.3841,
      "duration": 0.0975,
      "velocity": 77,
      "chip": "ym2612"
    },
    {
      "channel": 2,
      "note": 76,
      "start": 12.3852,
      "duration": 0.0974,
      "velocity": 77,
      "chip": "ym2612"
    },
    {
      "channel": 3,
      "note": 57,
      "start": 12.3863,
      "duration": 0.0975,
      "velocity": 127,
      "chip": "ym2612"
    },
    {
      "channel": 5,
      "note": 75,
      "start": 12.3871,
      "duration": 0.1939,
      "velocity": 120,
      "chip": "ym2612"
    },
    {
      "channel": 0,
      "note": 88,
      "start": 12.4822,
      "duration": 0.1014,
      "velocity": 77,
      "chip": "ym2612"
    },
    {
      "channel": 2,
      "note": 79,
      "start": 12.4833,
      "duration": 0.1014,
      "velocity": 77,
      "chip": "ym2612"
    },
    {
      "channel": 3,
      "note": 57,
      "start": 12.4843,
      "duration": 0.101,
      "velocity": 127,
      "chip": "ym2612"
    },
    {
      "channel": 0,
      "note": 90,
      "start": 12.5841,
      "duration": 0.0994,
      "velocity": 77,
      "chip": "ym2612"
    },
    {
      "channel": 2,
      "note": 81,
      "start": 12.5852,
      "duration": 0.0994,
      "velocity": 77,
      "chip": "ym2612"
    },
    {
      "channel": 3,
      "note": 57,
      "start": 12.5859,
      "duration": 0.0994,
      "velocity": 127,
      "chip": "ym2612"
    },
    {
      "channel": 5,
      "note": 75,
      "start": 12.5867,
      "duration": 0.0943,
      "velocity": 120,
      "chip": "ym2612"
    },
    {
      "channel": 0,
      "note": 91,
      "start": 12.6841,
      "duration": 0.0998,
      "velocity": 77,
      "chip": "ym2612"
    },
    {
      "channel": 2,
      "note": 83,
      "start": 12.6852,
      "duration": 0.1006,
      "velocity": 77,
      "chip": "ym2612"
    },
    {
      "channel": 3,
      "note": 57,
      "start": 12.6859,
      "duration": 0.1011,
      "velocity": 127,
      "chip": "ym2612"
    },
    {
      "channel": 5,
      "note": 75,
      "start": 12.6867,
      "duration": 0.0944,
      "velocity": 120,
      "chip": "ym2612"
    },
    {
      "channel": 0,
      "note": 85,
      "start": 12.7846,
      "duration": 0.097,
      "velocity": 77,
      "chip": "ym2612"
    },
    {
      "channel": 1,
      "note": 59,
      "start": 12.7854,
      "duration": 0.401,
      "velocity": 102,
      "chip": "ym2612"
    },
    {
      "channel": 2,
      "note": 76,
      "start": 12.7864,
      "duration": 0.0962,
      "velocity": 77,
      "chip": "ym2612"
    },
    {
      "channel": 5,
      "note": 32,
      "start": 12.788,
      "duration": 0.1275,
      "velocity": 114,
      "chip": "ym2612"
    },
    {
      "channel": 0,
      "note": 83,
      "start": 12.8822,
      "duration": 0.0994,
      "velocity": 77,
      "chip": "ym2612"
    },
    {
      "channel": 2,
      "note": 74,
      "start": 12.8833,
      "duration": 0.0994,
      "velocity": 77,
      "chip": "ym2612"
    },
    {
      "channel": 0,
      "note": 85,
      "start": 12.9822,
      "duration": 0.0994,
      "velocity": 77,
      "chip": "ym2612"
    },
    {
      "channel": 2,
      "note": 76,
      "start": 12.9833,
      "duration": 0.0994,
      "velocity": 77,
      "chip": "ym2612"
    },
    {
      "channel": 0,
      "note": 86,
      "start": 13.0822,
      "duration": 0.1014,
      "velocity": 77,
      "chip": "ym2612"
    },
    {
      "channel": 2,
      "note": 78,
      "start": 13.0833,
      "duration": 0.1014,
      "velocity": 77,
      "chip": "ym2612"
    },
    {
      "channel": 0,
      "note": 78,
      "start": 13.1841,
      "duration": 0.0022,
      "velocity": 77,
      "chip": "ym2612"
    },
    {
      "channel": 2,
      "note": 71,
      "start": 13.1852,
      "duration": 0.0011,
      "velocity": 77,
      "chip": "ym2612"
    },
    {
      "channel": 5,
      "note": 75,
      "start": 13.1861,
      "duration": 0.0003,
      "velocity": 120,
      "chip": "ym2612"
    }
  ]
}