{
  "track_name": "11 - The Tube",
  "duration_sec": 61.127,
  "sample_rate": 44100,
  "note_count": 576,
  "unique_pitches": 15,
  "pitch_range": 53,
  "avg_note_duration": 0.2178,
  "reconstruction_stats": {
    "notes_reconstructed": 576,
    "keyon_events": 576,
    "keyoff_events": 576,
    "orphan_keyons": 0,
    "unique_pitches": 15,
    "pitch_range": 53,
    "avg_duration_sec": 0.2178
  },
  "metadata": {
    "source": "E\\Ecco the Dolphin\\11 - The Tube.vgz"
  },
  "notes": [
    {
      "channel": 0,
      "note": 26,
      "start": 0.0,
      "duration": 0.1344,
      "velocity": 127,
      "chip": "ym2612"
    },
    {
      "channel": 1,
      "note": 50,
      "start": 0.0062,
      "duration": 0.0792,
      "velocity": 94,
      "chip": "ym2612"
    },
    {
      "channel": 1,
      "note": 50,
      "start": 0.1402,
      "duration": 0.0921,
      "velocity": 86,
      "chip": "ym2612"
    },
    {
      "channel": 0,
      "note": 26,
      "start": 0.4393,
      "duration": 0.1358,
      "velocity": 127,
      "chip": "ym2612"
    },
    {
      "channel": 1,
      "note": 50,
      "start": 0.5812,
      "duration": 0.092,
      "velocity": 94,
      "chip": "ym2612"
    },
    {
      "channel": 1,
      "note": 50,
      "start": 0.7277,
      "duration": 0.1413,
      "velocity": 86,
      "chip": "ym2612"
    },
    {
      "channel": 0,
      "note": 26,
      "start": 0.8799,
      "duration": 0.1361,
      "velocity": 127,
      "chip": "ym2612"
    },
    {
      "channel": 0,
      "note": 26,
      "start": 1.1745,
      "duration": 0.1357,
      "velocity": 127,
      "chip": "ym2612"
    },
    {
      "channel": 1,
      "note": 50,
      "start": 1.1804,
      "duration": 0.1295,
      "velocity": 94,
      "chip": "ym2612"
    },
    {
      "channel": 1,
      "note": 50,
      "start": 1.3161,
      "duration": 0.1407,
      "velocity": 86,
      "chip": "ym2612"
    },
    {
      "channel": 0,
      "note": 26,
      "start": 1.615,
      "duration": 0.1357,
      "velocity": 127,
      "chip": "ym2612"
    },
    {
      "channel": 1,
      "note": 50,
      "start": 1.7566,
      "duration": 0.0921,
      "velocity": 94,
      "chip": "ym2612"
    },
    {
      "channel": 1,
      "note": 50,
      "start": 1.9033,
      "duration": 0.1413,
      "velocity": 86,
      "chip": "ym2612"
    },
    {
      "channel": 0,
      "note": 26,
      "start": 2.0556,
      "duration": 0.136,
      "velocity": 127,
      "chip": "ym2612"
    },
    {
      "channel": 4,
      "note": 62,
      "start": 2.066,
      "duration": 5.342,
      "velocity": 110,
      "chip": "ym2612"
    },
    {
      "channel": 0,
      "note": 26,
      "start": 2.35,
      "duration": 0.1354,
      "velocity": 127,
      "chip": "ym2612"
    },
    {
      "channel": 1,
      "note": 50,
      "start": 2.3559,
      "duration": 0.0806,
      "velocity": 94,
      "chip": "ym2612"
    },
    {
      "channel": 1,
      "note": 50,
      "start": 2.4912,
      "duration": 0.0922,
      "velocity": 86,
      "chip": "ym2612"
    },
    {
      "channel": 0,
      "note": 26,
      "start": 2.7905,
      "duration": 0.1357,
      "velocity": 127,
      "chip": "ym2612"
    },
    {
      "channel": 1,
      "note": 50,
      "start": 2.9323,
      "duration": 0.0919,
      "velocity": 94,
      "chip": "ym2612"
    },
    {
      "channel": 1,
      "note": 50,
      "start": 3.0787,
      "duration": 0.1414,
      "velocity": 86,
      "chip": "ym2612"
    },
    {
      "channel": 0,
      "note": 26,
      "start": 3.2311,
      "duration": 0.136,
      "velocity": 127,
      "chip": "ym2612"
    },
    {
      "channel": 0,
      "note": 26,
      "start": 3.5255,
      "duration": 0.1358,
      "velocity": 127,
      "chip": "ym2612"
    },
    {
      "channel": 1,
      "note": 50,
      "start": 3.5317,
      "duration": 0.1293,
      "velocity": 94,
      "chip": "ym2612"
    },
    {
      "channel": 1,
      "note": 50,
      "start": 3.6672,
      "duration": 0.1407,
      "velocity": 86,
      "chip": "ym2612"
    },
    {
      "channel": 0,
      "note": 26,
      "start": 3.9659,
      "duration": 0.1358,
      "velocity": 127,
      "chip": "ym2612"
    },
    {
      "channel": 1,
      "note": 50,
      "start": 4.1077,
      "duration": 0.0921,
      "velocity": 94,
      "chip": "ym2612"
    },
    {
      "channel": 1,
      "note": 50,
      "start": 4.2543,
      "duration": 0.1414,
      "velocity": 86,
      "chip": "ym2612"
    },
    {
      "channel": 0,
      "note": 26,
      "start": 4.4066,
      "duration": 0.136,
      "velocity": 127,
      "chip": "ym2612"
    },
    {
      "channel": 0,
      "note": 26,
      "start": 4.7012,
      "duration": 0.1353,
      "velocity": 127,
      "chip": "ym2612"
    },
    {
      "channel": 1,
      "note": 50,
      "start": 4.7071,
      "duration": 0.0804,
      "velocity": 94,
      "chip": "ym2612"
    },
    {
      "channel": 1,
      "note": 50,
      "start": 4.8423,
      "duration": 0.0921,
      "velocity": 86,
      "chip": "ym2612"
    },
    {
      "channel": 0,
      "note": 26,
      "start": 5.1415,
      "duration": 0.1359,
      "velocity": 127,
      "chip": "ym2612"
    },
    {
      "channel": 1,
      "note": 50,
      "start": 5.2834,
      "duration": 0.0919,
      "velocity": 94,
      "chip": "ym2612"
    },
    {
      "channel": 1,
      "note": 50,
      "start": 5.4298,
      "duration": 0.1414,
      "velocity": 86,
      "chip": "ym2612"
    },
    {
      "channel": 0,
      "note": 26,
      "start": 5.5822,
      "duration": 0.1359,
      "velocity": 127,
      "chip": "ym2612"
    },
    {
      "channel": 0,
      "note": 26,
      "start": 5.8765,
      "duration": 0.1358,
      "velocity": 127,
      "chip": "ym2612"
    },
    {
      "channel": 1,
      "note": 50,
      "start": 5.8825,
      "duration": 0.1296,
      "velocity": 94,
      "chip": "ym2612"
    },
    {
      "channel": 1,
      "note": 50,
      "start": 6.0182,
      "duration": 0.1407,
      "velocity": 86,
      "chip": "ym2612"
    },
    {
      "channel": 0,
      "note": 26,
      "start": 6.317,
      "duration": 0.1359,
      "velocity": 127,
      "chip": "ym2612"
    },
    {
      "channel": 1,
      "note": 50,
      "start": 6.4588,
      "duration": 0.092,
      "velocity": 94,
      "chip": "ym2612"
    },
    {
      "channel": 1,
      "note": 50,
      "start": 6.6053,
      "duration": 0.1414,
      "velocity": 86,
      "chip": "ym2612"
    },
    {
      "channel": 0,
      "note": 26,
      "start": 6.7577,
      "duration": 0.136,
      "velocity": 127,
      "chip": "ym2612"
    },
    {
      "channel": 0,
      "note": 26,
      "start": 7.0521,
      "duration": 0.1354,
      "velocity": 127,
      "chip": "ym2612"
    },
    {
      "channel": 1,
      "note": 50,
      "start": 7.058,
      "duration": 0.0805,
      "velocity": 94,
      "chip": "ym2612"
    },
    {
      "channel": 1,
      "note": 50,
      "start": 7.1934,
      "duration": 0.0921,
      "velocity": 86,
      "chip": "ym2612"
    },
    {
      "channel": 2,
      "note": 62,
      "start": 7.3404,
      "duration": 0.1411,
      "velocity": 123,
      "chip": "ym2612"
    },
    {
      "channel": 0,
      "note": 26,
      "start": 7.4927,
      "duration": 0.136,
      "velocity": 127,
      "chip": "ym2612"
    },
    {
      "channel": 3,
      "note": 62,
      "start": 7.4989,
      "duration": 0.1295,
      "velocity": 123,
      "chip": "ym2612"
    },
    {
      "channel": 2,
      "note": 65,
      "start": 7.5308,
      "duration": 0.1466,
      "velocity": 123,
      "chip": "ym2612"
    },
    {
      "channel": 1,
      "note": 50,
      "start": 7.6347,
      "duration": 0.0916,
      "velocity": 94,
      "chip": "ym2612"
    },
    {
      "channel": 3,
      "note": 65,
      "start": 7.678,
      "duration": 0.1463,
      "velocity": 123,
      "chip": "ym2612"
    },
    {
      "channel": 2,
      "note": 67,
      "start": 7.727,
      "duration": 0.1463,
      "velocity": 123,
      "chip": "ym2612"
    },
    {
      "channel": 1,
      "note": 50,
      "start": 7.781,
      "duration": 0.1412,
      "velocity": 86,
      "chip": "ym2612"
    },
    {
      "channel": 3,
      "note": 67,
      "start": 7.8739,
      "duration": 0.1463,
      "velocity": 123,
      "chip": "ym2612"
    },
    {
      "channel": 0,
      "note": 26,
      "start": 7.9332,
      "duration": 0.1363,
      "velocity": 127,
      "chip": "ym2612"
    },
    {
      "channel": 2,
      "note": 65,
      "start": 7.9338,
      "duration": 0.1354,
      "velocity": 123,
      "chip": "ym2612"
    },
    {
      "channel": 3,
      "note": 65,
      "start": 8.0701,
      "duration": 0.146,
      "velocity": 123,
      "chip": "ym2612"
    },
    {
      "channel": 2,
      "note": 62,
      "start": 8.1185,
      "duration": 0.1466,
      "velocity": 123,
      "chip": "ym2612"
    },
    {
      "channel": 0,
      "note": 26,
      "start": 8.2279,
      "duration": 0.1355,
      "velocity": 127,
      "chip": "ym2612"
    },
    {
      "channel": 1,
      "note": 50,
      "start": 8.2339,
      "duration": 0.1291,
      "velocity": 94,
      "chip": "ym2612"
    },
    {
      "channel": 3,
      "note": 62,
      "start": 8.2658,
      "duration": 0.1463,
      "velocity": 123,
      "chip": "ym2612"
    },
    {
      "channel": 2,
      "note": 67,
      "start": 8.3145,
      "duration": 1.7639,
      "velocity": 123,
      "chip": "ym2612"
    },
    {
      "channel": 1,
      "note": 50,
      "start": 8.3694,
      "duration": 0.1407,
      "velocity": 86,
      "chip": "ym2612"
    },
    {
      "channel": 3,
      "note": 67,
      "start": 8.4614,
      "duration": 1.7637,
      "velocity": 123,
      "chip": "ym2612"
    },
    {
      "channel": 0,
      "note": 26,
      "start": 8.668,
      "duration": 0.1374,
      "velocity": 127,
      "chip": "ym2612"
    },
    {
      "channel": 1,
      "note": 50,
      "start": 8.8114,
      "duration": 0.0905,
      "velocity": 94,
      "chip": "ym2612"
    },
    {
      "channel": 1,
      "note": 50,
      "start": 8.9572,
      "duration": 0.1406,
      "velocity": 86,
      "chip": "ym2612"
    },
    {
      "channel": 0,
      "note": 26,
      "start": 9.1086,
      "duration": 0.1361,
      "velocity": 127,
      "chip": "ym2612"
    },
    {
      "channel": 0,
      "note": 26,
      "start": 9.4032,
      "duration": 0.1354,
      "velocity": 127,
      "chip": "ym2612"
    },
    {
      "channel": 1,
      "note": 50,
      "start": 9.4091,
      "duration": 0.0806,
      "velocity": 94,
      "chip": "ym2612"
    },
    {
      "channel": 1,
      "note": 50,
      "start": 9.5444,
      "duration": 0.0921,
      "velocity": 86,
      "chip": "ym2612"
    },
    {
      "channel": 0,
      "note": 26,
      "start": 9.8435,
      "duration": 0.1359,
      "velocity": 127,
      "chip": "ym2612"
    },
    {
      "channel": 1,
      "note": 50,
      "start": 9.9854,
      "duration": 0.092,
      "velocity": 94,
      "chip": "ym2612"
    },
    {
      "channel": 1,
      "note": 50,
      "start": 10.132,
      "duration": 0.1413,
      "velocity": 86,
      "chip": "ym2612"
    },
    {
      "channel": 0,
      "note": 26,
      "start": 10.2843,
      "duration": 0.1359,
      "velocity": 127,
      "chip": "ym2612"
    },
    {
      "channel": 0,
      "note": 26,
      "start": 10.5787,
      "duration": 0.1359,
      "velocity": 127,
      "chip": "ym2612"
    },
    {
      "channel": 1,
      "note": 50,
      "start": 10.5846,
      "duration": 0.1296,
      "velocity": 94,
      "chip": "ym2612"
    },
    {
      "channel": 1,
      "note": 50,
      "start": 10.7203,
      "duration": 0.1408,
      "velocity": 86,
      "chip": "ym2612"
    },
    {
      "channel": 0,
      "note": 26,
      "start": 11.0191,
      "duration": 0.1358,
      "velocity": 127,
      "chip": "ym2612"
    },
    {
      "channel": 1,
      "note": 50,
      "start": 11.1608,
      "duration": 0.0921,
      "velocity": 94,
      "chip": "ym2612"
    },
    {
      "channel": 2,
      "note": 74,
      "start": 11.1615,
      "duration": 0.1404,
      "velocity": 123,
      "chip": "ym2612"
    },
    {
      "channel": 1,
      "note": 50,
      "start": 11.3078,
      "duration": 0.141,
      "velocity": 86,
      "chip": "ym2612"
    },
    {
      "channel": 3,
      "note": 74,
      "start": 11.3084,
      "duration": 0.1407,
      "velocity": 123,
      "chip": "ym2612"
    },
    {
      "channel": 2,
      "note": 72,
      "start": 11.3512,
      "duration": 0.1466,
      "velocity": 123,
      "chip": "ym2612"
    },
    {
      "channel": 0,
      "note": 26,
      "start": 11.46,
      "duration": 0.1358,
      "velocity": 127,
      "chip": "ym2612"
    },
    {
      "channel": 3,
      "note": 72,
      "start": 11.4985,
      "duration": 0.1463,
      "velocity": 123,
      "chip": "ym2612"
    },
    {
      "channel": 2,
      "note": 69,
      "start": 11.5472,
      "duration": 0.1466,
      "velocity": 123,
      "chip": "ym2612"
    },
    {
      "channel": 4,
      "note": 50,
      "start": 11.5965,
      "duration": 4.9466,
      "velocity": 110,
      "chip": "ym2612"
    },
    {
      "channel": 3,
      "note": 69,
      "start": 11.6944,
      "duration": 0.1466,
      "velocity": 123,
      "chip": "ym2612"
    },
    {
      "channel": 0,
      "note": 26,
      "start": 11.7542,
      "duration": 0.1357,
      "velocity": 127,
      "chip": "ym2612"
    },
    {
      "channel": 1,
      "note": 50,
      "start": 11.7602,
      "duration": 0.0805,
      "velocity": 94,
      "chip": "ym2612"
    },
    {
      "channel": 2,
      "note": 74,
      "start": 11.7608,
      "duration": 0.1288,
      "velocity": 123,
      "chip": "ym2612"
    },
    {
      "channel": 1,
      "note": 50,
      "start": 11.8958,
      "duration": 0.0918,
      "velocity": 86,
      "chip": "ym2612"
    },
    {
      "channel": 3,
      "note": 74,
      "start": 11.8965,
      "duration": 0.1401,
      "velocity": 123,
      "chip": "ym2612"
    },
    {
      "channel": 2,
      "note": 72,
      "start": 11.939,
      "duration": 0.1466,
      "velocity": 123,
      "chip": "ym2612"
    },
    {
      "channel": 3,
      "note": 72,
      "start": 12.0863,
      "duration": 0.1462,
      "velocity": 123,
      "chip": "ym2612"
    },
    {
      "channel": 2,
      "note": 69,
      "start": 12.135,
      "duration": 0.1955,
      "velocity": 123,
      "chip": "ym2612"
    },
    {
      "channel": 0,
      "note": 26,
      "start": 12.1945,
      "duration": 0.1364,
      "velocity": 127,
      "chip": "ym2612"
    },
    {
      "channel": 3,
      "note": 69,
      "start": 12.2819,
      "duration": 0.1956,
      "velocity": 123,
      "chip": "ym2612"
    },
    {
      "channel": 1,
      "note": 50,
      "start": 12.3368,
      "duration": 0.0917,
      "velocity": 94,
      "chip": "ym2612"
    },
    {
      "channel": 2,
      "note": 74,
      "start": 12.3374,
      "duration": 0.238,
      "velocity": 123,
      "chip": "ym2612"
    },
    {
      "channel": 1,
      "note": 50,
      "start": 12.4834,
      "duration": 0.141,
      "velocity": 86,
      "chip": "ym2612"
    },
    {
      "channel": 3,
      "note": 74,
      "start": 12.4841,
      "duration": 0.2383,
      "velocity": 123,
      "chip": "ym2612"
    },
    {
      "channel": 0,
      "note": 26,
      "start": 12.6353,
      "duration": 0.136,
      "velocity": 127,
      "chip": "ym2612"
    },
    {
      "channel": 2,
      "note": 72,
      "start": 12.6359,
      "duration": 0.1844,
      "velocity": 123,
      "chip": "ym2612"
    },
    {
      "channel": 3,
      "note": 72,
      "start": 12.772,
      "duration": 0.1956,
      "velocity": 123,
      "chip": "ym2612"
    },
    {
      "channel": 2,
      "note": 69,
      "start": 12.821,
      "duration": 0.1463,
      "velocity": 123,
      "chip": "ym2612"
    },
    {
      "channel": 0,
      "note": 26,
      "start": 12.9297,
      "duration": 0.1358,
      "velocity": 127,
      "chip": "ym2612"
    },
    {
      "channel": 1,
      "note": 50,
      "start": 12.9357,
      "duration": 0.1295,
      "velocity": 94,
      "chip": "ym2612"
    },
    {
      "channel": 3,
      "note": 69,
      "start": 12.9682,
      "duration": 0.1462,
      "velocity": 123,
      "chip": "ym2612"
    },
    {
      "channel": 2,
      "note": 74,
      "start": 13.0166,
      "duration": 0.1466,
      "velocity": 123,
      "chip": "ym2612"
    },
    {
      "channel": 1,
      "note": 50,
      "start": 13.0713,
      "duration": 0.1408,
      "velocity": 86,
      "chip": "ym2612"
    },
    {
      "channel": 3,
      "note": 74,
      "start": 13.1638,
      "duration": 0.1463,
      "velocity": 123,
      "chip": "ym2612"
    },
    {
      "channel": 2,
      "note": 72,
      "start": 13.2128,
      "duration": 0.1952,
      "velocity": 123,
      "chip": "ym2612"
    },
    {
      "channel": 0,
      "note": 26,
      "start": 13.3703,
      "duration": 0.1357,
      "velocity": 127,
      "chip": "ym2612"
    },
    {
      "channel": 3,
      "note": 72,
      "start": 13.371,
      "duration": 0.184,
      "velocity": 123,
      "chip": "ym2612"
    },
    {
      "channel": 2,
      "note": 69,
      "start": 13.4088,
      "duration": 0.2442,
      "velocity": 123,
      "chip": "ym2612"
    },
    {
      "channel": 1,
      "note": 50,
      "start": 13.5119,
      "duration": 0.092,
      "velocity": 94,
      "chip": "ym2612"
    },
    {
      "channel": 3,
      "note": 69,
      "start": 13.5557,
      "duration": 0.2445,
      "velocity": 123,
      "chip": "ym2612"
    },
    {
      "channel": 1,
      "note": 50,
      "start": 13.6588,
      "duration": 0.1411,
      "velocity": 86,
      "chip": "ym2612"
    },
    {
      "channel": 2,
      "note": 67,
      "start": 13.7023,
      "duration": 0.3915,
      "velocity": 123,
      "chip": "ym2612"
    },
    {
      "channel": 0,
      "note": 26,
      "start": 13.8111,
      "duration": 0.1357,
      "velocity": 127,
      "chip": "ym2612"
    },
    {
      "channel": 3,
      "note": 67,
      "start": 13.8493,
      "duration": 0.3915,
      "velocity": 123,
      "chip": "ym2612"
    },
    {
      "channel": 0,
      "note": 26,
      "start": 14.1056,
      "duration": 0.1354,
      "velocity": 127,
      "chip": "ym2612"
    },
    {
      "channel": 1,
      "note": 50,
      "start": 14.1115,
      "duration": 0.0802,
      "velocity": 94,
      "chip": "ym2612"
    },
    {
      "channel": 2,
      "note": 65,
      "start": 14.1122,
      "duration": 0.1776,
      "velocity": 123,
      "chip": "ym2612"
    },
    {
      "channel": 1,
      "note": 50,
      "start": 14.2469,
      "duration": 0.0918,
      "velocity": 86,
      "chip": "ym2612"
    },
    {
      "channel": 3,
      "note": 65,
      "start": 14.2476,
      "duration": 0.1894,
      "velocity": 123,
      "chip": "ym2612"
    },
    {
      "channel": 2,
      "note": 62,
      "start": 14.2904,
      "duration": 0.1463,
      "velocity": 123,
      "chip": "ym2612"
    },
    {
      "channel": 3,
      "note": 62,
      "start": 14.4376,
      "duration": 0.146,
      "velocity": 123,
      "chip": "ym2612"
    },
    {
      "channel": 2,
      "note": 65,
      "start": 14.486,
      "duration": 0.1956,
      "velocity": 123,
      "chip": "ym2612"
    },
    {
      "channel": 0,
      "note": 26,
      "start": 14.5456,
      "duration": 0.1363,
      "velocity": 127,
      "chip": "ym2612"
    },
    {
      "channel": 3,
      "note": 65,
      "start": 14.6329,
      "duration": 0.1956,
      "velocity": 123,
      "chip": "ym2612"
    },
    {
      "channel": 1,
      "note": 50,
      "start": 14.6878,
      "duration": 0.0917,
      "velocity": 94,
      "chip": "ym2612"
    },
    {
      "channel": 2,
      "note": 62,
      "start": 14.6884,
      "duration": 1.7565,
      "velocity": 123,
      "chip": "ym2612"
    },
    {
      "channel": 1,
      "note": 50,
      "start": 14.8344,
      "duration": 0.141,
      "velocity": 86,
      "chip": "ym2612"
    },
    {
      "channel": 3,
      "note": 62,
      "start": 14.8351,
      "duration": 1.7568,
      "velocity": 123,
      "chip": "ym2612"
    },
    {
      "channel": 0,
      "note": 26,
      "start": 14.9871,
      "duration": 0.1352,
      "velocity": 127,
      "chip": "ym2612"
    },
    {
      "channel": 0,
      "note": 26,
      "start": 15.2809,
      "duration": 0.1357,
      "velocity": 127,
      "chip": "ym2612"
    },
    {
      "channel": 1,
      "note": 50,
      "start": 15.2869,
      "duration": 0.1294,
      "velocity": 94,
      "chip": "ym2612"
    },
    {
      "channel": 1,
      "note": 50,
      "start": 15.4224,
      "duration": 0.1408,
      "velocity": 86,
      "chip": "ym2612"
    },
    {
      "channel": 0,
      "note": 26,
      "start": 15.7212,
      "duration": 0.1358,
      "velocity": 127,
      "chip": "ym2612"
    },
    {
      "channel": 1,
      "note": 50,
      "start": 15.8629,
      "duration": 0.0921,
      "velocity": 94,
      "chip": "ym2612"
    },
    {
      "channel": 1,
      "note": 50,
      "start": 16.0096,
      "duration": 0.1414,
      "velocity": 86,
      "chip": "ym2612"
    },
    {
      "channel": 0,
      "note": 26,
      "start": 16.1618,
      "duration": 0.1361,
      "velocity": 127,
      "chip": "ym2612"
    },
    {
      "channel": 0,
      "note": 26,
      "start": 16.4568,
      "duration": 0.1353,
      "velocity": 127,
      "chip": "ym2612"
    },
    {
      "channel": 1,
      "note": 50,
      "start": 16.4627,
      "duration": 0.0801,
      "velocity": 94,
      "chip": "ym2612"
    },
    {
      "channel": 1,
      "note": 50,
      "start": 16.598,
      "duration": 0.0917,
      "velocity": 86,
      "chip": "ym2612"
    },
    {
      "channel": 0,
      "note": 26,
      "start": 16.8967,
      "duration": 0.1359,
      "velocity": 127,
      "chip": "ym2612"
    },
    {
      "channel": 1,
      "note": 50,
      "start": 17.0385,
      "duration": 0.092,
      "velocity": 94,
      "chip": "ym2612"
    },
    {
      "channel": 1,
      "note": 50,
      "start": 17.1852,
      "duration": 0.1413,
      "velocity": 86,
      "chip": "ym2612"
    },
    {
      "channel": 0,
      "note": 26,
      "start": 17.3374,
      "duration": 0.136,
      "velocity": 127,
      "chip": "ym2612"
    },
    {
      "channel": 0,
      "note": 26,
      "start": 17.6319,
      "duration": 0.1357,
      "velocity": 127,
      "chip": "ym2612"
    },
    {
      "channel": 1,
      "note": 50,
      "start": 17.6378,
      "duration": 0.1295,
      "velocity": 94,
      "chip": "ym2612"
    },
    {
      "channel": 1,
      "note": 50,
      "start": 17.7734,
      "duration": 0.1409,
      "velocity": 86,
      "chip": "ym2612"
    },
    {
      "channel": 0,
      "note": 26,
      "start": 18.0723,
      "duration": 0.1358,
      "velocity": 127,
      "chip": "ym2612"
    },
    {
      "channel": 1,
      "note": 50,
      "start": 18.214,
      "duration": 0.092,
      "velocity": 94,
      "chip": "ym2612"
    },
    {
      "channel": 1,
      "note": 50,
      "start": 18.3607,
      "duration": 0.1413,
      "velocity": 86,
      "chip": "ym2612"
    },
    {
      "channel": 0,
      "note": 26,
      "start": 18.5129,
      "duration": 0.1361,
      "velocity": 127,
      "chip": "ym2612"
    },
    {
      "channel": 0,
      "note": 26,
      "start": 18.8074,
      "duration": 0.1354,
      "velocity": 127,
      "chip": "ym2612"
    },
    {
      "channel": 1,
      "note": 50,
      "start": 18.8133,
      "duration": 0.0805,
      "velocity": 94,
      "chip": "ym2612"
    },
    {
      "channel": 1,
      "note": 50,
      "start": 18.9489,
      "duration": 0.0919,
      "velocity": 86,
      "chip": "ym2612"
    },
    {
      "channel": 0,
      "note": 26,
      "start": 19.2478,
      "duration": 0.1359,
      "velocity": 127,
      "chip": "ym2612"
    },
    {
      "channel": 1,
      "note": 50,
      "start": 19.3896,
      "duration": 0.092,
      "velocity": 94,
      "chip": "ym2612"
    },
    {
      "channel": 1,
      "note": 50,
      "start": 19.5363,
      "duration": 0.1412,
      "velocity": 86,
      "chip": "ym2612"
    },
    {
      "channel": 0,
      "note": 26,
      "start": 19.6885,
      "duration": 0.136,
      "velocity": 127,
      "chip": "ym2612"
    },
    {
      "channel": 2,
      "note": 74,
      "start": 19.7759,
      "duration": 0.1466,
      "velocity": 123,
      "chip": "ym2612"
    },
    {
      "channel": 3,
      "note": 74,
      "start": 19.9231,
      "duration": 0.1463,
      "velocity": 123,
      "chip": "ym2612"
    },
    {
      "channel": 0,
      "note": 26,
      "start": 19.9829,
      "duration": 0.1361,
      "velocity": 127,
      "chip": "ym2612"
    },
    {
      "channel": 1,
      "note": 50,
      "start": 19.9888,
      "duration": 0.1295,
      "velocity": 94,
      "chip": "ym2612"
    },
    {
      "channel": 2,
      "note": 77,
      "start": 19.9895,
      "duration": 0.1291,
      "velocity": 123,
      "chip": "ym2612"
    },
    {
      "channel": 1,
      "note": 50,
      "start": 20.1249,
      "duration": 0.1405,
      "velocity": 86,
      "chip": "ym2612"
    },
    {
      "channel": 3,
      "note": 77,
      "start": 20.1255,
      "duration": 0.1401,
      "velocity": 123,
      "chip": "ym2612"
    },
    {
      "channel": 2,
      "note": 79,
      "start": 20.1677,
      "duration": 0.1467,
      "velocity": 123,
      "chip": "ym2612"
    },
    {
      "channel": 3,
      "note": 79,
      "start": 20.3151,
      "duration": 0.1462,
      "velocity": 123,
      "chip": "ym2612"
    },
    {
      "channel": 2,
      "note": 77,
      "start": 20.3637,
      "duration": 0.1955,
      "velocity": 123,
      "chip": "ym2612"
    },
    {
      "channel": 0,
      "note": 26,
      "start": 20.4233,
      "duration": 0.1362,
      "velocity": 127,
      "chip": "ym2612"
    },
    {
      "channel": 3,
      "note": 77,
      "start": 20.5106,
      "duration": 0.1959,
      "velocity": 123,
      "chip": "ym2612"
    },
    {
      "channel": 1,
      "note": 50,
      "start": 20.5655,
      "duration": 0.0917,
      "velocity": 94,
      "chip": "ym2612"
    },
    {
      "channel": 2,
      "note": 74,
      "start": 20.5661,
      "duration": 0.14,
      "velocity": 123,
      "chip": "ym2612"
    },
    {
      "channel": 1,
      "note": 50,
      "start": 20.7123,
      "duration": 0.1408,
      "velocity": 86,
      "chip": "ym2612"
    },
    {
      "channel": 3,
      "note": 74,
      "start": 20.713,
      "duration": 0.1404,
      "velocity": 123,
      "chip": "ym2612"
    },
    {
      "channel": 2,
      "note": 79,
      "start": 20.7555,
      "duration": 1.567,
      "velocity": 123,
      "chip": "ym2612"
    },
    {
      "channel": 0,
      "note": 26,
      "start": 20.8645,
      "duration": 0.1356,
      "velocity": 127,
      "chip": "ym2612"
    },
    {
      "channel": 4,
      "note": 62,
      "start": 20.8749,
      "duration": 5.3416,
      "velocity": 110,
      "chip": "ym2612"
    },
    {
      "channel": 3,
      "note": 79,
      "start": 20.9024,
      "duration": 1.567,
      "velocity": 123,
      "chip": "ym2612"
    },
    {
      "channel": 0,
      "note": 26,
      "start": 21.1584,
      "duration": 0.1354,
      "velocity": 127,
      "chip": "ym2612"
    },
    {
      "channel": 1,
      "note": 50,
      "start": 21.1645,
      "duration": 0.0804,
      "velocity": 94,
      "chip": "ym2612"
    },
    {
      "channel": 1,
      "note": 50,
      "start": 21.2998,
      "duration": 0.092,
      "velocity": 86,
      "chip": "ym2612"
    },
    {
      "channel": 0,
      "note": 26,
      "start": 21.5988,
      "duration": 0.1359,
      "velocity": 127,
      "chip": "ym2612"
    },
    {
      "channel": 1,
      "note": 50,
      "start": 21.7406,
      "duration": 0.0921,
      "velocity": 94,
      "chip": "ym2612"
    },
    {
      "channel": 1,
      "note": 50,
      "start": 21.8872,
      "duration": 0.1414,
      "velocity": 86,
      "chip": "ym2612"
    },
    {
      "channel": 0,
      "note": 26,
      "start": 22.0397,
      "duration": 0.1359,
      "velocity": 127,
      "chip": "ym2612"
    },
    {
      "channel": 0,
      "note": 26,
      "start": 22.3343,
      "duration": 0.1357,
      "velocity": 127,
      "chip": "ym2612"
    },
    {
      "channel": 1,
      "note": 50,
      "start": 22.3402,
      "duration": 0.1295,
      "velocity": 94,
      "chip": "ym2612"
    },
    {
      "channel": 1,
      "note": 50,
      "start": 22.4759,
      "duration": 0.1405,
      "velocity": 86,
      "chip": "ym2612"
    },
    {
      "channel": 0,
      "note": 26,
      "start": 22.7744,
      "duration": 0.1359,
      "velocity": 127,
      "chip": "ym2612"
    },
    {
      "channel": 1,
      "note": 50,
      "start": 22.9163,
      "duration": 0.092,
      "velocity": 94,
      "chip": "ym2612"
    },
    {
      "channel": 1,
      "note": 50,
      "start": 23.0628,
      "duration": 0.1413,
      "velocity": 86,
      "chip": "ym2612"
    },
    {
      "channel": 0,
      "note": 26,
      "start": 23.2151,
      "duration": 0.136,
      "velocity": 127,
      "chip": "ym2612"
    },
    {
      "channel": 0,
      "note": 26,
      "start": 23.5095,
      "duration": 0.1355,
      "velocity": 127,
      "chip": "ym2612"
    },
    {
      "channel": 1,
      "note": 50,
      "start": 23.5154,
      "duration": 0.0805,
      "velocity": 94,
      "chip": "ym2612"
    },
    {
      "channel": 1,
      "note": 50,
      "start": 23.6509,
      "duration": 0.092,
      "velocity": 86,
      "chip": "ym2612"
    },
    {
      "channel": 2,
      "note": 77,
      "start": 23.7923,
      "duration": 0.1466,
      "velocity": 123,
      "chip": "ym2612"
    },
    {
      "channel": 0,
      "note": 26,
      "start": 23.9503,
      "duration": 0.1358,
      "velocity": 127,
      "chip": "ym2612"
    },
    {
      "channel": 3,
      "note": 77,
      "start": 23.951,
      "duration": 0.1348,
      "velocity": 123,
      "chip": "ym2612"
    },
    {
      "channel": 2,
      "note": 74,
      "start": 23.9881,
      "duration": 0.1466,
      "velocity": 123,
      "chip": "ym2612"
    },
    {
      "channel": 1,
      "note": 50,
      "start": 24.092,
      "duration": 0.0917,
      "velocity": 94,
      "chip": "ym2612"
    },
    {
      "channel": 3,
      "note": 74,
      "start": 24.1355,
      "duration": 0.1463,
      "velocity": 123,
      "chip": "ym2612"
    },
    {
      "channel": 2,
      "note": 77,
      "start": 24.1844,
      "duration": 0.1463,
      "velocity": 123,
      "chip": "ym2612"
    },
    {
      "channel": 1,
      "note": 50,
      "start": 24.2383,
      "duration": 0.1414,
      "velocity": 86,
      "chip": "ym2612"
    },
    {
      "channel": 3,
      "note": 77,
      "start": 24.3315,
      "duration": 0.1462,
      "velocity": 123,
      "chip": "ym2612"
    },
    {
      "channel": 0,
      "note": 26,
      "start": 24.3906,
      "duration": 0.1361,
      "velocity": 127,
      "chip": "ym2612"
    },
    {
      "channel": 2,
      "note": 74,
      "start": 24.3912,
      "duration": 0.1844,
      "velocity": 123,
      "chip": "ym2612"
    },
    {
      "channel": 3,
      "note": 74,
      "start": 24.5273,
      "duration": 0.1953,
      "velocity": 123,
      "chip": "ym2612"
    },
    {
      "channel": 0,
      "note": 26,
      "start": 24.6851,
      "duration": 0.1357,
      "velocity": 127,
      "chip": "ym2612"
    },
    {
      "channel": 1,
      "note": 50,
      "start": 24.691,
      "duration": 0.1295,
      "velocity": 94,
      "chip": "ym2612"
    },
    {
      "channel": 2,
      "note": 72,
      "start": 24.6916,
      "duration": 1.1574,
      "velocity": 123,
      "chip": "ym2612"
    },
    {
      "channel": 1,
      "note": 50,
      "start": 24.8266,
      "duration": 0.1408,
      "velocity": 86,
      "chip": "ym2612"
    },
    {
      "channel": 3,
      "note": 72,
      "start": 24.8273,
      "duration": 1.169,
      "velocity": 123,
      "chip": "ym2612"
    },
    {
      "channel": 0,
      "note": 26,
      "start": 25.1255,
      "duration": 0.1358,
      "velocity": 127,
      "chip": "ym2612"
    },
    {
      "channel": 1,
      "note": 50,
      "start": 25.2673,
      "duration": 0.092,
      "velocity": 94,
      "chip": "ym2612"
    },
    {
      "channel": 1,
      "note": 50,
      "start": 25.4138,
      "duration": 0.1414,
      "velocity": 86,
      "chip": "ym2612"
    },
    {
      "channel": 0,
      "note": 26,
      "start": 25.5661,
      "duration": 0.136,
      "velocity": 127,
      "chip": "ym2612"
    },
    {
      "channel": 0,
      "note": 26,
      "start": 25.8608,
      "duration": 0.1358,
      "velocity": 127,
      "chip": "ym2612"
    },
    {
      "channel": 1,
      "note": 50,
      "start": 25.8669,
      "duration": 0.0802,
      "velocity": 94,
      "chip": "ym2612"
    },
    {
      "channel": 2,
      "note": 71,
      "start": 25.8676,
      "duration": 0.1284,
      "velocity": 123,
      "chip": "ym2612"
    },
    {
      "channel": 1,
      "note": 50,
      "start": 26.0026,
      "duration": 0.0914,
      "velocity": 86,
      "chip": "ym2612"
    },
    {
      "channel": 3,
      "note": 71,
      "start": 26.0032,
      "duration": 0.1398,
      "velocity": 123,
      "chip": "ym2612"
    },
    {
      "channel": 2,
      "note": 69,
      "start": 26.0453,
      "duration": 0.1466,
      "velocity": 123,
      "chip": "ym2612"
    },
    {
      "channel": 3,
      "note": 69,
      "start": 26.1926,
      "duration": 0.1463,
      "velocity": 123,
      "chip": "ym2612"
    },
    {
      "channel": 2,
      "note": 72,
      "start": 26.2412,
      "duration": 0.1466,
      "velocity": 123,
      "chip": "ym2612"
    },
    {
      "channel": 0,
      "note": 26,
      "start": 26.3009,
      "duration": 0.1359,
      "velocity": 127,
      "chip": "ym2612"
    },
    {
      "channel": 3,
      "note": 72,
      "start": 26.3885,
      "duration": 0.1466,
      "velocity": 123,
      "chip": "ym2612"
    },
    {
      "channel": 1,
      "note": 50,
      "start": 26.4427,
      "duration": 0.092,
      "velocity": 94,
      "chip": "ym2612"
    },
    {
      "channel": 2,
      "note": 71,
      "start": 26.4434,
      "duration": 0.2383,
      "velocity": 123,
      "chip": "ym2612"
    },
    {
      "channel": 1,
      "note": 50,
      "start": 26.5893,
      "duration": 0.1414,
      "velocity": 86,
      "chip": "ym2612"
    },
    {
      "channel": 3,
      "note": 71,
      "start": 26.59,
      "duration": 0.2387,
      "velocity": 123,
      "chip": "ym2612"
    },
    {
      "channel": 0,
      "note": 26,
      "start": 26.7416,
      "duration": 0.136,
      "velocity": 127,
      "chip": "ym2612"
    },
    {
      "channel": 2,
      "note": 69,
      "start": 26.7423,
      "duration": 0.0375,
      "velocity": 123,
      "chip": "ym2612"
    },
    {
      "channel": 2,
      "note": 72,
      "start": 26.8294,
      "duration": 0.1463,
      "velocity": 123,
      "chip": "ym2612"
    },
    {
      "channel": 3,
      "note": 69,
      "start": 26.8783,
      "duration": 0.0483,
      "velocity": 123,
      "chip": "ym2612"
    },
    {
      "channel": 3,
      "note": 72,
      "start": 26.9763,
      "duration": 0.1463,
      "velocity": 123,
      "chip": "ym2612"
    },
    {
      "channel": 0,
      "note": 26,
      "start": 27.0362,
      "duration": 0.1359,
      "velocity": 127,
      "chip": "ym2612"
    },
    {
      "channel": 1,
      "note": 50,
      "start": 27.0422,
      "duration": 0.1294,
      "velocity": 94,
      "chip": "ym2612"
    },
    {
      "channel": 2,
      "note": 71,
      "start": 27.0429,
      "duration": 0.129,
      "velocity": 123,
      "chip": "ym2612"
    },
    {
      "channel": 1,
      "note": 50,
      "start": 27.178,
      "duration": 0.1405,
      "velocity": 86,
      "chip": "ym2612"
    },
    {
      "channel": 3,
      "note": 71,
      "start": 27.1787,
      "duration": 0.1401,
      "velocity": 123,
      "chip": "ym2612"
    },
    {
      "channel": 2,
      "note": 69,
      "start": 27.2209,
      "duration": 0.2445,
      "velocity": 123,
      "chip": "ym2612"
    },
    {
      "channel": 3,
      "note": 69,
      "start": 27.3678,
      "duration": 0.2445,
      "velocity": 123,
      "chip": "ym2612"
    },
    {
      "channel": 0,
      "note": 26,
      "start": 27.4768,
      "duration": 0.1359,
      "velocity": 127,
      "chip": "ym2612"
    },
    {
      "channel": 2,
      "note": 67,
      "start": 27.5148,
      "duration": 0.3425,
      "velocity": 123,
      "chip": "ym2612"
    },
    {
      "channel": 1,
      "note": 50,
      "start": 27.6187,
      "duration": 0.0916,
      "velocity": 94,
      "chip": "ym2612"
    },
    {
      "channel": 3,
      "note": 67,
      "start": 27.6617,
      "duration": 0.3425,
      "velocity": 123,
      "chip": "ym2612"
    },
    {
      "channel": 1,
      "note": 50,
      "start": 27.7649,
      "duration": 0.1413,
      "velocity": 86,
      "chip": "ym2612"
    },
    {
      "channel": 0,
      "note": 26,
      "start": 27.9171,
      "duration": 0.1363,
      "velocity": 127,
      "chip": "ym2612"
    },
    {
      "channel": 2,
      "note": 65,
      "start": 27.9178,
      "duration": 0.1354,
      "velocity": 123,
      "chip": "ym2612"
    },
    {
      "channel": 3,
      "note": 65,
      "start": 28.0542,
      "duration": 0.146,
      "velocity": 123,
      "chip": "ym2612"
    },
    {
      "channel": 2,
      "note": 62,
      "start": 28.1025,
      "duration": 1.4691,
      "velocity": 123,
      "chip": "ym2612"
    },
    {
      "channel": 0,
      "note": 26,
      "start": 28.2119,
      "duration": 0.1352,
      "velocity": 127,
      "chip": "ym2612"
    },
    {
      "channel": 1,
      "note": 50,
      "start": 28.2178,
      "duration": 0.0802,
      "velocity": 94,
      "chip": "ym2612"
    },
    {
      "channel": 3,
      "note": 62,
      "start": 28.2495,
      "duration": 1.4691,
      "velocity": 123,
      "chip": "ym2612"
    },
    {
      "channel": 1,
      "note": 50,
      "start": 28.353,
      "duration": 0.092,
      "velocity": 86,
      "chip": "ym2612"
    },
    {
      "channel": 0,
      "note": 26,
      "start": 28.652,
      "duration": 0.1359,
      "velocity": 127,
      "chip": "ym2612"
    },
    {
      "channel": 1,
      "note": 50,
      "start": 28.7938,
      "duration": 0.092,
      "velocity": 94,
      "chip": "ym2612"
    },
    {
      "channel": 1,
      "note": 50,
      "start": 28.9404,
      "duration": 0.1414,
      "velocity": 86,
      "chip": "ym2612"
    },
    {
      "channel": 0,
      "note": 26,
      "start": 29.0926,
      "duration": 0.1361,
      "velocity": 127,
      "chip": "ym2612"
    },
    {
      "channel": 0,
      "note": 26,
      "start": 29.3872,
      "duration": 0.1365,
      "velocity": 127,
      "chip": "ym2612"
    },
    {
      "channel": 1,
      "note": 50,
      "start": 29.3931,
      "duration": 0.1295,
      "velocity": 94,
      "chip": "ym2612"
    },
    {
      "channel": 1,
      "note": 50,
      "start": 29.5295,
      "duration": 0.14,
      "velocity": 86,
      "chip": "ym2612"
    },
    {
      "channel": 0,
      "note": 26,
      "start": 29.8275,
      "duration": 0.1359,
      "velocity": 127,
      "chip": "ym2612"
    },
    {
      "channel": 1,
      "note": 50,
      "start": 29.9694,
      "duration": 0.0919,
      "velocity": 94,
      "chip": "ym2612"
    },
    {
      "channel": 1,
      "note": 50,
      "start": 30.1161,
      "duration": 0.1412,
      "velocity": 86,
      "chip": "ym2612"
    },
    {
      "channel": 0,
      "note": 26,
      "start": 30.2682,
      "duration": 0.136,
      "velocity": 127,
      "chip": "ym2612"
    },
    {
      "channel": 4,
      "note": 50,
      "start": 30.4049,
      "duration": 4.9466,
      "velocity": 110,
      "chip": "ym2612"
    },
    {
      "channel": 0,
      "note": 26,
      "start": 30.5626,
      "duration": 0.1355,
      "velocity": 127,
      "chip": "ym2612"
    },
    {
      "channel": 1,
      "note": 50,
      "start": 30.5686,
      "duration": 0.0805,
      "velocity": 94,
      "chip": "ym2612"
    },
    {
      "channel": 1,
      "note": 50,
      "start": 30.704,
      "duration": 0.0921,
      "velocity": 86,
      "chip": "ym2612"
    },
    {
      "channel": 0,
      "note": 26,
      "start": 31.0031,
      "duration": 0.1359,
      "velocity": 127,
      "chip": "ym2612"
    },
    {
      "channel": 1,
      "note": 50,
      "start": 31.1449,
      "duration": 0.0921,
      "velocity": 94,
      "chip": "ym2612"
    },
    {
      "channel": 1,
      "note": 50,
      "start": 31.2915,
      "duration": 0.1414,
      "velocity": 86,
      "chip": "ym2612"
    },
    {
      "channel": 0,
      "note": 26,
      "start": 31.4437,
      "duration": 0.1361,
      "velocity": 127,
      "chip": "ym2612"
    },
    {
      "channel": 0,
      "note": 26,
      "start": 31.7383,
      "duration": 0.1357,
      "velocity": 127,
      "chip": "ym2612"
    },
    {
      "channel": 1,
      "note": 50,
      "start": 31.7442,
      "duration": 0.1295,
      "velocity": 94,
      "chip": "ym2612"
    },
    {
      "channel": 1,
      "note": 50,
      "start": 31.8798,
      "duration": 0.1408,
      "velocity": 86,
      "chip": "ym2612"
    },
    {
      "channel": 0,
      "note": 26,
      "start": 32.1785,
      "duration": 0.1359,
      "velocity": 127,
      "chip": "ym2612"
    },
    {
      "channel": 1,
      "note": 50,
      "start": 32.3204,
      "duration": 0.0921,
      "velocity": 94,
      "chip": "ym2612"
    },
    {
      "channel": 1,
      "note": 50,
      "start": 32.467,
      "duration": 0.1413,
      "velocity": 86,
      "chip": "ym2612"
    },
    {
      "channel": 0,
      "note": 26,
      "start": 32.6194,
      "duration": 0.1359,
      "velocity": 127,
      "chip": "ym2612"
    },
    {
      "channel": 0,
      "note": 26,
      "start": 32.9137,
      "duration": 0.1356,
      "velocity": 127,
      "chip": "ym2612"
    },
    {
      "channel": 1,
      "note": 50,
      "start": 32.9197,
      "duration": 0.0805,
      "velocity": 94,
      "chip": "ym2612"
    },
    {
      "channel": 1,
      "note": 50,
      "start": 33.0551,
      "duration": 0.0921,
      "velocity": 86,
      "chip": "ym2612"
    },
    {
      "channel": 0,
      "note": 26,
      "start": 33.3541,
      "duration": 0.1359,
      "velocity": 127,
      "chip": "ym2612"
    },
    {
      "channel": 1,
      "note": 50,
      "start": 33.4959,
      "duration": 0.0921,
      "velocity": 94,
      "chip": "ym2612"
    },
    {
      "channel": 1,
      "note": 50,
      "start": 33.6425,
      "duration": 0.1414,
      "velocity": 86,
      "chip": "ym2612"
    },
    {
      "channel": 0,
      "note": 26,
      "start": 33.7948,
      "duration": 0.1361,
      "velocity": 127,
      "chip": "ym2612"
    },
    {
      "channel": 0,
      "note": 26,
      "start": 34.0893,
      "duration": 0.1358,
      "velocity": 127,
      "chip": "ym2612"
    },
    {
      "channel": 1,
      "note": 50,
      "start": 34.0952,
      "duration": 0.1295,
      "velocity": 94,
      "chip": "ym2612"
    },
    {
      "channel": 1,
      "note": 50,
      "start": 34.231,
      "duration": 0.1407,
      "velocity": 86,
      "chip": "ym2612"
    },
    {
      "channel": 0,
      "note": 26,
      "start": 34.5296,
      "duration": 0.1359,
      "velocity": 127,
      "chip": "ym2612"
    },
    {
      "channel": 1,
      "note": 50,
      "start": 34.6715,
      "duration": 0.092,
      "velocity": 94,
      "chip": "ym2612"
    },
    {
      "channel": 1,
      "note": 50,
      "start": 34.8181,
      "duration": 0.1414,
      "velocity": 86,
      "chip": "ym2612"
    },
    {
      "channel": 2,
      "note": 45,
      "start": 34.8677,
      "duration": 0.1408,
      "velocity": 119,
      "chip": "ym2612"
    },
    {
      "channel": 0,
      "note": 26,
      "start": 34.9704,
      "duration": 0.1359,
      "velocity": 127,
      "chip": "ym2612"
    },
    {
      "channel": 2,
      "note": 50,
      "start": 35.0577,
      "duration": 0.1466,
      "velocity": 119,
      "chip": "ym2612"
    },
    {
      "channel": 3,
      "note": 45,
      "start": 35.0638,
      "duration": 0.1408,
      "velocity": 114,
      "chip": "ym2612"
    },
    {
      "channel": 0,
      "note": 26,
      "start": 35.2648,
      "duration": 0.1361,
      "velocity": 127,
      "chip": "ym2612"
    },
    {
      "channel": 1,
      "note": 50,
      "start": 35.2707,
      "duration": 0.0805,
      "velocity": 94,
      "chip": "ym2612"
    },
    {
      "channel": 2,
      "note": 53,
      "start": 35.2713,
      "duration": 0.1289,
      "velocity": 119,
      "chip": "ym2612"
    },
    {
      "channel": 3,
      "note": 50,
      "start": 35.272,
      "duration": 0.1286,
      "velocity": 114,
      "chip": "ym2612"
    },
    {
      "channel": 1,
      "note": 50,
      "start": 35.4067,
      "duration": 0.0915,
      "velocity": 86,
      "chip": "ym2612"
    },
    {
      "channel": 2,
      "note": 55,
      "start": 35.4495,
      "duration": 0.1956,
      "velocity": 119,
      "chip": "ym2612"
    },
    {
      "channel": 3,
      "note": 53,
      "start": 35.4502,
      "duration": 0.1459,
      "velocity": 114,
      "chip": "ym2612"
    },
    {
      "channel": 2,
      "note": 50,
      "start": 35.6458,
      "duration": 0.2936,
      "velocity": 119,
      "chip": "ym2612"
    },
    {
      "channel": 3,
      "note": 55,
      "start": 35.6465,
      "duration": 0.1456,
      "velocity": 114,
      "chip": "ym2612"
    },
    {
      "channel": 0,
      "note": 26,
      "start": 35.7053,
      "duration": 0.1358,
      "velocity": 127,
      "chip": "ym2612"
    },
    {
      "channel": 1,
      "note": 50,
      "start": 35.847,
      "duration": 0.092,
      "velocity": 94,
      "chip": "ym2612"
    },
    {
      "channel": 3,
      "note": 50,
      "start": 35.8477,
      "duration": 0.2876,
      "velocity": 114,
      "chip": "ym2612"
    },
    {
      "channel": 1,
      "note": 50,
      "start": 35.9935,
      "duration": 0.1414,
      "velocity": 86,
      "chip": "ym2612"
    },
    {
      "channel": 0,
      "note": 26,
      "start": 36.1461,
      "duration": 0.1358,
      "velocity": 127,
      "chip": "ym2612"
    },
    {
      "channel": 0,
      "note": 26,
      "start": 36.4404,
      "duration": 0.1357,
      "velocity": 127,
      "chip": "ym2612"
    },
    {
      "channel": 1,
      "note": 50,
      "start": 36.4463,
      "duration": 0.1295,
      "velocity": 94,
      "chip": "ym2612"
    },
    {
      "channel": 1,
      "note": 50,
      "start": 36.582,
      "duration": 0.1407,
      "velocity": 86,
      "chip": "ym2612"
    },
    {
      "channel": 0,
      "note": 26,
      "start": 36.8807,
      "duration": 0.1359,
      "velocity": 127,
      "chip": "ym2612"
    },
    {
      "channel": 1,
      "note": 50,
      "start": 37.0225,
      "duration": 0.0922,
      "velocity": 94,
      "chip": "ym2612"
    },
    {
      "channel": 1,
      "note": 50,
      "start": 37.1692,
      "duration": 0.1413,
      "velocity": 86,
      "chip": "ym2612"
    },
    {
      "channel": 0,
      "note": 26,
      "start": 37.3214,
      "duration": 0.136,
      "velocity": 127,
      "chip": "ym2612"
    },
    {
      "channel": 0,
      "note": 26,
      "start": 37.6159,
      "duration": 0.1354,
      "velocity": 127,
      "chip": "ym2612"
    },
    {
      "channel": 1,
      "note": 50,
      "start": 37.6219,
      "duration": 0.0805,
      "velocity": 94,
      "chip": "ym2612"
    },
    {
      "channel": 1,
      "note": 50,
      "start": 37.7572,
      "duration": 0.0921,
      "velocity": 86,
      "chip": "ym2612"
    },
    {
      "channel": 0,
      "note": 26,
      "start": 38.0563,
      "duration": 0.1358,
      "velocity": 127,
      "chip": "ym2612"
    },
    {
      "channel": 1,
      "note": 50,
      "start": 38.1982,
      "duration": 0.0919,
      "velocity": 94,
      "chip": "ym2612"
    },
    {
      "channel": 1,
      "note": 50,
      "start": 38.3446,
      "duration": 0.1414,
      "velocity": 86,
      "chip": "ym2612"
    },
    {
      "channel": 2,
      "note": 45,
      "start": 38.3884,
      "duration": 0.1956,
      "velocity": 119,
      "chip": "ym2612"
    },
    {
      "channel": 0,
      "note": 26,
      "start": 38.4968,
      "duration": 0.1361,
      "velocity": 127,
      "chip": "ym2612"
    },
    {
      "channel": 2,
      "note": 50,
      "start": 38.5846,
      "duration": 0.1464,
      "velocity": 119,
      "chip": "ym2612"
    },
    {
      "channel": 3,
      "note": 45,
      "start": 38.5853,
      "duration": 0.1946,
      "velocity": 114,
      "chip": "ym2612"
    },
    {
      "channel": 0,
      "note": 26,
      "start": 38.7918,
      "duration": 0.1359,
      "velocity": 127,
      "chip": "ym2612"
    },
    {
      "channel": 1,
      "note": 50,
      "start": 38.7978,
      "duration": 0.129,
      "velocity": 94,
      "chip": "ym2612"
    },
    {
      "channel": 2,
      "note": 53,
      "start": 38.7984,
      "duration": 0.1287,
      "velocity": 119,
      "chip": "ym2612"
    },
    {
      "channel": 3,
      "note": 50,
      "start": 38.7991,
      "duration": 0.1283,
      "velocity": 114,
      "chip": "ym2612"
    },
    {
      "channel": 1,
      "note": 50,
      "start": 38.9337,
      "duration": 0.1401,
      "velocity": 86,
      "chip": "ym2612"
    },
    {
      "channel": 2,
      "note": 55,
      "start": 38.9761,
      "duration": 0.1466,
      "velocity": 119,
      "chip": "ym2612"
    },
    {
      "channel": 3,
      "note": 53,
      "start": 38.9768,
      "duration": 0.1462,
      "velocity": 114,
      "chip": "ym2612"
    },
    {
      "channel": 2,
      "note": 53,
      "start": 39.172,
      "duration": 0.1956,
      "velocity": 119,
      "chip": "ym2612"
    },
    {
      "channel": 3,
      "note": 55,
      "start": 39.1727,
      "duration": 0.1459,
      "velocity": 114,
      "chip": "ym2612"
    },
    {
      "channel": 0,
      "note": 26,
      "start": 39.2318,
      "duration": 0.1362,
      "velocity": 127,
      "chip": "ym2612"
    },
    {
      "channel": 1,
      "note": 50,
      "start": 39.3739,
      "duration": 0.0917,
      "velocity": 94,
      "chip": "ym2612"
    },
    {
      "channel": 2,
      "note": 50,
      "start": 39.3745,
      "duration": 0.189,
      "velocity": 119,
      "chip": "ym2612"
    },
    {
      "channel": 3,
      "note": 53,
      "start": 39.3752,
      "duration": 0.1887,
      "velocity": 114,
      "chip": "ym2612"
    },
    {
      "channel": 1,
      "note": 50,
      "start": 39.5201,
      "duration": 0.1414,
      "velocity": 86,
      "chip": "ym2612"
    },
    {
      "channel": 3,
      "note": 50,
      "start": 39.5647,
      "duration": 0.1459,
      "velocity": 114,
      "chip": "ym2612"
    },
    {
      "channel": 0,
      "note": 26,
      "start": 39.6725,
      "duration": 0.136,
      "velocity": 127,
      "chip": "ym2612"
    },
    {
      "channel": 4,
      "note": 62,
      "start": 39.6829,
      "duration": 5.342,
      "velocity": 110,
      "chip": "ym2612"
    },
    {
      "channel": 2,
      "note": 48,
      "start": 39.7598,
      "duration": 0.1956,
      "velocity": 119,
      "chip": "ym2612"
    },
    {
      "channel": 0,
      "note": 26,
      "start": 39.9672,
      "duration": 0.1354,
      "velocity": 127,
      "chip": "ym2612"
    },
    {
      "channel": 1,
      "note": 50,
      "start": 39.9731,
      "duration": 0.0802,
      "velocity": 94,
      "chip": "ym2612"
    },
    {
      "channel": 3,
      "note": 48,
      "start": 39.9738,
      "duration": 0.1285,
      "velocity": 114,
      "chip": "ym2612"
    },
    {
      "channel": 1,
      "note": 50,
      "start": 40.1085,
      "duration": 0.0918,
      "velocity": 86,
      "chip": "ym2612"
    },
    {
      "channel": 2,
      "note": 48,
      "start": 40.1514,
      "duration": 0.147,
      "velocity": 119,
      "chip": "ym2612"
    },
    {
      "channel": 2,
      "note": 50,
      "start": 40.3477,
      "duration": 0.1465,
      "velocity": 119,
      "chip": "ym2612"
    },
    {
      "channel": 3,
      "note": 48,
      "start": 40.348,
      "duration": 0.1465,
      "velocity": 114,
      "chip": "ym2612"
    },
    {
      "channel": 0,
      "note": 26,
      "start": 40.4073,
      "duration": 0.1359,
      "velocity": 127,
      "chip": "ym2612"
    },
    {
      "channel": 1,
      "note": 50,
      "start": 40.5491,
      "duration": 0.092,
      "velocity": 94,
      "chip": "ym2612"
    },
    {
      "channel": 2,
      "note": 53,
      "start": 40.5498,
      "duration": 0.1403,
      "velocity": 119,
      "chip": "ym2612"
    },
    {
      "channel": 3,
      "note": 50,
      "start": 40.5504,
      "duration": 0.1887,
      "velocity": 114,
      "chip": "ym2612"
    },
    {
      "channel": 1,
      "note": 50,
      "start": 40.696,
      "duration": 0.1411,
      "velocity": 86,
      "chip": "ym2612"
    },
    {
      "channel": 2,
      "note": 55,
      "start": 40.7397,
      "duration": 0.1953,
      "velocity": 119,
      "chip": "ym2612"
    },
    {
      "channel": 3,
      "note": 53,
      "start": 40.7404,
      "duration": 0.1456,
      "velocity": 114,
      "chip": "ym2612"
    },
    {
      "channel": 0,
      "note": 26,
      "start": 40.848,
      "duration": 0.136,
      "velocity": 127,
      "chip": "ym2612"
    },
    {
      "channel": 3,
      "note": 55,
      "start": 40.9357,
      "duration": 0.1954,
      "velocity": 114,
      "chip": "ym2612"
    },
    {
      "channel": 0,
      "note": 26,
      "start": 41.1428,
      "duration": 0.1354,
      "velocity": 127,
      "chip": "ym2612"
    },
    {
      "channel": 1,
      "note": 50,
      "start": 41.1488,
      "duration": 0.1291,
      "velocity": 94,
      "chip": "ym2612"
    },
    {
      "channel": 1,
      "note": 50,
      "start": 41.2842,
      "duration": 0.1407,
      "velocity": 86,
      "chip": "ym2612"
    },
    {
      "channel": 0,
      "note": 26,
      "start": 41.5829,
      "duration": 0.1358,
      "velocity": 127,
      "chip": "ym2612"
    },
    {
      "channel": 1,
      "note": 50,
      "start": 41.7246,
      "duration": 0.0921,
      "velocity": 94,
      "chip": "ym2612"
    },
    {
      "channel": 1,
      "note": 50,
      "start": 41.8712,
      "duration": 0.1414,
      "velocity": 86,
      "chip": "ym2612"
    },
    {
      "channel": 0,
      "note": 26,
      "start": 42.0236,
      "duration": 0.136,
      "velocity": 127,
      "chip": "ym2612"
    },
    {
      "channel": 0,
      "note": 26,
      "start": 42.318,
      "duration": 0.1354,
      "velocity": 127,
      "chip": "ym2612"
    },
    {
      "channel": 1,
      "note": 50,
      "start": 42.3239,
      "duration": 0.0805,
      "velocity": 94,
      "chip": "ym2612"
    },
    {
      "channel": 1,
      "note": 50,
      "start": 42.4593,
      "duration": 0.0921,
      "velocity": 86,
      "chip": "ym2612"
    },
    {
      "channel": 2,
      "note": 45,
      "start": 42.5027,
      "duration": 0.1466,
      "velocity": 119,
      "chip": "ym2612"
    },
    {
      "channel": 2,
      "note": 50,
      "start": 42.6986,
      "duration": 0.1466,
      "velocity": 119,
      "chip": "ym2612"
    },
    {
      "channel": 3,
      "note": 45,
      "start": 42.6993,
      "duration": 0.1462,
      "velocity": 114,
      "chip": "ym2612"
    },
    {
      "channel": 0,
      "note": 26,
      "start": 42.7584,
      "duration": 0.1359,
      "velocity": 127,
      "chip": "ym2612"
    },
    {
      "channel": 1,
      "note": 50,
      "start": 42.9002,
      "duration": 0.092,
      "velocity": 94,
      "chip": "ym2612"
    },
    {
      "channel": 2,
      "note": 53,
      "start": 42.9009,
      "duration": 0.1403,
      "velocity": 119,
      "chip": "ym2612"
    },
    {
      "channel": 3,
      "note": 50,
      "start": 42.9015,
      "duration": 0.14,
      "velocity": 114,
      "chip": "ym2612"
    },
    {
      "channel": 1,
      "note": 50,
      "start": 43.0474,
      "duration": 0.1408,
      "velocity": 86,
      "chip": "ym2612"
    },
    {
      "channel": 2,
      "note": 55,
      "start": 43.0905,
      "duration": 0.1466,
      "velocity": 119,
      "chip": "ym2612"
    },
    {
      "channel": 3,
      "note": 53,
      "start": 43.0911,
      "duration": 0.195,
      "velocity": 114,
      "chip": "ym2612"
    },
    {
      "channel": 0,
      "note": 26,
      "start": 43.1991,
      "duration": 0.1359,
      "velocity": 127,
      "chip": "ym2612"
    },
    {
      "channel": 2,
      "note": 53,
      "start": 43.2867,
      "duration": 0.1463,
      "velocity": 119,
      "chip": "ym2612"
    },
    {
      "channel": 3,
      "note": 55,
      "start": 43.2874,
      "duration": 0.146,
      "velocity": 114,
      "chip": "ym2612"
    },
    {
      "channel": 0,
      "note": 26,
      "start": 43.4935,
      "duration": 0.1361,
      "velocity": 127,
      "chip": "ym2612"
    },
    {
      "channel": 1,
      "note": 50,
      "start": 43.4995,
      "duration": 0.1295,
      "velocity": 94,
      "chip": "ym2612"
    },
    {
      "channel": 2,
      "note": 50,
      "start": 43.5001,
      "duration": 0.1779,
      "velocity": 119,
      "chip": "ym2612"
    },
    {
      "channel": 3,
      "note": 53,
      "start": 43.5007,
      "duration": 0.1286,
      "velocity": 114,
      "chip": "ym2612"
    },
    {
      "channel": 1,
      "note": 50,
      "start": 43.6355,
      "duration": 0.1403,
      "velocity": 86,
      "chip": "ym2612"
    },
    {
      "channel": 3,
      "note": 50,
      "start": 43.6786,
      "duration": 0.1953,
      "velocity": 114,
      "chip": "ym2612"
    },
    {
      "channel": 0,
      "note": 26,
      "start": 43.9339,
      "duration": 0.1359,
      "velocity": 127,
      "chip": "ym2612"
    },
    {
      "channel": 1,
      "note": 50,
      "start": 44.0757,
      "duration": 0.092,
      "velocity": 94,
      "chip": "ym2612"
    },
    {
      "channel": 1,
      "note": 50,
      "start": 44.2222,
      "duration": 0.1414,
      "velocity": 86,
      "chip": "ym2612"
    },
    {
      "channel": 2,
      "note": 48,
      "start": 44.266,
      "duration": 0.1466,
      "velocity": 119,
      "chip": "ym2612"
    },
    {
      "channel": 0,
      "note": 26,
      "start": 44.3747,
      "duration": 0.1359,
      "velocity": 127,
      "chip": "ym2612"
    },
    {
      "channel": 2,
      "note": 50,
      "start": 44.4619,
      "duration": 0.1466,
      "velocity": 119,
      "chip": "ym2612"
    },
    {
      "channel": 3,
      "note": 48,
      "start": 44.4626,
      "duration": 0.1462,
      "velocity": 114,
      "chip": "ym2612"
    },
    {
      "channel": 0,
      "note": 26,
      "start": 44.669,
      "duration": 0.1358,
      "velocity": 127,
      "chip": "ym2612"
    },
    {
      "channel": 1,
      "note": 50,
      "start": 44.675,
      "duration": 0.0805,
      "velocity": 94,
      "chip": "ym2612"
    },
    {
      "channel": 2,
      "note": 53,
      "start": 44.6756,
      "duration": 0.2758,
      "velocity": 119,
      "chip": "ym2612"
    },
    {
      "channel": 3,
      "note": 50,
      "start": 44.6762,
      "duration": 0.1283,
      "velocity": 114,
      "chip": "ym2612"
    },
    {
      "channel": 1,
      "note": 50,
      "start": 44.8107,
      "duration": 0.0918,
      "velocity": 86,
      "chip": "ym2612"
    },
    {
      "channel": 3,
      "note": 53,
      "start": 44.8538,
      "duration": 0.2936,
      "velocity": 114,
      "chip": "ym2612"
    },
    {
      "channel": 0,
      "note": 26,
      "start": 45.1093,
      "duration": 0.1359,
      "velocity": 127,
      "chip": "ym2612"
    },
    {
      "channel": 1,
      "note": 50,
      "start": 45.2513,
      "duration": 0.0919,
      "velocity": 94,
      "chip": "ym2612"
    },
    {
      "channel": 1,
      "note": 50,
      "start": 45.3979,
      "duration": 0.1413,
      "velocity": 86,
      "chip": "ym2612"
    },
    {
      "channel": 0,
      "note": 26,
      "start": 45.5501,
      "duration": 0.136,
      "velocity": 127,
      "chip": "ym2612"
    },
    {
      "channel": 0,
      "note": 26,
      "start": 45.8445,
      "duration": 0.1358,
      "velocity": 127,
      "chip": "ym2612"
    },
    {
      "channel": 1,
      "note": 50,
      "start": 45.8505,
      "duration": 0.1295,
      "velocity": 94,
      "chip": "ym2612"
    },
    {
      "channel": 1,
      "note": 50,
      "start": 45.9862,
      "duration": 0.1407,
      "velocity": 86,
      "chip": "ym2612"
    },
    {
      "channel": 0,
      "note": 26,
      "start": 46.2851,
      "duration": 0.1358,
      "velocity": 127,
      "chip": "ym2612"
    },
    {
      "channel": 1,
      "note": 50,
      "start": 46.4268,
      "duration": 0.092,
      "velocity": 94,
      "chip": "ym2612"
    },
    {
      "channel": 1,
      "note": 50,
      "start": 46.5733,
      "duration": 0.1414,
      "velocity": 86,
      "chip": "ym2612"
    },
    {
      "channel": 2,
      "note": 48,
      "start": 46.6171,
      "duration": 0.1466,
      "velocity": 119,
      "chip": "ym2612"
    },
    {
      "channel": 0,
      "note": 26,
      "start": 46.7255,
      "duration": 0.1361,
      "velocity": 127,
      "chip": "ym2612"
    },
    {
      "channel": 2,
      "note": 50,
      "start": 46.813,
      "duration": 0.1466,
      "velocity": 119,
      "chip": "ym2612"
    },
    {
      "channel": 3,
      "note": 48,
      "start": 46.8137,
      "duration": 0.1462,
      "velocity": 114,
      "chip": "ym2612"
    },
    {
      "channel": 0,
      "note": 26,
      "start": 47.0201,
      "duration": 0.1361,
      "velocity": 127,
      "chip": "ym2612"
    },
    {
      "channel": 1,
      "note": 50,
      "start": 47.026,
      "duration": 0.0805,
      "velocity": 94,
      "chip": "ym2612"
    },
    {
      "channel": 2,
      "note": 53,
      "start": 47.0266,
      "duration": 0.1289,
      "velocity": 119,
      "chip": "ym2612"
    },
    {
      "channel": 3,
      "note": 50,
      "start": 47.0273,
      "duration": 0.1286,
      "velocity": 114,
      "chip": "ym2612"
    },
    {
      "channel": 1,
      "note": 50,
      "start": 47.162,
      "duration": 0.0915,
      "velocity": 86,
      "chip": "ym2612"
    },
    {
      "channel": 2,
      "note": 55,
      "start": 47.2049,
      "duration": 0.1466,
      "velocity": 119,
      "chip": "ym2612"
    },
    {
      "channel": 3,
      "note": 53,
      "start": 47.2055,
      "duration": 0.1949,
      "velocity": 114,
      "chip": "ym2612"
    },
    {
      "channel": 2,
      "note": 53,
      "start": 47.401,
      "duration": 0.1463,
      "velocity": 119,
      "chip": "ym2612"
    },
    {
      "channel": 3,
      "note": 55,
      "start": 47.4017,
      "duration": 0.1461,
      "velocity": 114,
      "chip": "ym2612"
    },
    {
      "channel": 0,
      "note": 26,
      "start": 47.4604,
      "duration": 0.1359,
      "velocity": 127,
      "chip": "ym2612"
    },
    {
      "channel": 1,
      "note": 50,
      "start": 47.6023,
      "duration": 0.092,
      "velocity": 94,
      "chip": "ym2612"
    },
    {
      "channel": 2,
      "note": 50,
      "start": 47.603,
      "duration": 0.1893,
      "velocity": 119,
      "chip": "ym2612"
    },
    {
      "channel": 3,
      "note": 53,
      "start": 47.6036,
      "duration": 0.1397,
      "velocity": 114,
      "chip": "ym2612"
    },
    {
      "channel": 1,
      "note": 50,
      "start": 47.7493,
      "duration": 0.141,
      "velocity": 86,
      "chip": "ym2612"
    },
    {
      "channel": 3,
      "note": 50,
      "start": 47.793,
      "duration": 0.1952,
      "velocity": 114,
      "chip": "ym2612"
    },
    {
      "channel": 0,
      "note": 26,
      "start": 47.9011,
      "duration": 0.1361,
      "velocity": 127,
      "chip": "ym2612"
    },
    {
      "channel": 2,
      "note": 50,
      "start": 47.9885,
      "duration": 0.1956,
      "velocity": 119,
      "chip": "ym2612"
    },
    {
      "channel": 0,
      "note": 26,
      "start": 48.1959,
      "duration": 0.1355,
      "velocity": 127,
      "chip": "ym2612"
    },
    {
      "channel": 1,
      "note": 50,
      "start": 48.202,
      "duration": 0.1291,
      "velocity": 94,
      "chip": "ym2612"
    },
    {
      "channel": 3,
      "note": 50,
      "start": 48.2023,
      "duration": 0.1777,
      "velocity": 114,
      "chip": "ym2612"
    },
    {
      "channel": 1,
      "note": 50,
      "start": 48.3373,
      "duration": 0.1408,
      "velocity": 86,
      "chip": "ym2612"
    },
    {
      "channel": 2,
      "note": 45,
      "start": 48.3807,
      "duration": 0.2932,
      "velocity": 119,
      "chip": "ym2612"
    },
    {
      "channel": 3,
      "note": 45,
      "start": 48.5763,
      "duration": 0.2938,
      "velocity": 114,
      "chip": "ym2612"
    },
    {
      "channel": 0,
      "note": 26,
      "start": 48.636,
      "duration": 0.1358,
      "velocity": 127,
      "chip": "ym2612"
    },
    {
      "channel": 1,
      "note": 50,
      "start": 48.7778,
      "duration": 0.092,
      "velocity": 94,
      "chip": "ym2612"
    },
    {
      "channel": 1,
      "note": 50,
      "start": 48.9244,
      "duration": 0.1413,
      "velocity": 86,
      "chip": "ym2612"
    },
    {
      "channel": 2,
      "note": 45,
      "start": 48.9678,
      "duration": 0.2449,
      "velocity": 119,
      "chip": "ym2612"
    },
    {
      "channel": 0,
      "note": 26,
      "start": 49.0766,
      "duration": 0.1364,
      "velocity": 127,
      "chip": "ym2612"
    },
    {
      "channel": 3,
      "note": 45,
      "start": 49.1637,
      "duration": 0.2449,
      "velocity": 114,
      "chip": "ym2612"
    },
    {
      "channel": 4,
      "note": 50,
      "start": 49.2137,
      "duration": 4.9463,
      "velocity": 110,
      "chip": "ym2612"
    },
    {
      "channel": 0,
      "note": 26,
      "start": 49.3713,
      "duration": 0.1356,
      "velocity": 127,
      "chip": "ym2612"
    },
    {
      "channel": 1,
      "note": 50,
      "start": 49.3772,
      "duration": 0.0804,
      "velocity": 94,
      "chip": "ym2612"
    },
    {
      "channel": 2,
      "note": 48,
      "start": 49.3778,
      "duration": 0.1288,
      "velocity": 119,
      "chip": "ym2612"
    },
    {
      "channel": 1,
      "note": 50,
      "start": 49.5128,
      "duration": 0.0918,
      "velocity": 86,
      "chip": "ym2612"
    },
    {
      "channel": 2,
      "note": 50,
      "start": 49.5559,
      "duration": 0.1466,
      "velocity": 119,
      "chip": "ym2612"
    },
    {
      "channel": 3,
      "note": 48,
      "start": 49.5565,
      "duration": 0.1463,
      "velocity": 114,
      "chip": "ym2612"
    },
    {
      "channel": 2,
      "note": 53,
      "start": 49.7518,
      "duration": 0.1466,
      "velocity": 119,
      "chip": "ym2612"
    },
    {
      "channel": 3,
      "note": 50,
      "start": 49.7524,
      "duration": 0.1463,
      "velocity": 114,
      "chip": "ym2612"
    },
    {
      "channel": 0,
      "note": 26,
      "start": 49.8115,
      "duration": 0.136,
      "velocity": 127,
      "chip": "ym2612"
    },
    {
      "channel": 1,
      "note": 50,
      "start": 49.9535,
      "duration": 0.0919,
      "velocity": 94,
      "chip": "ym2612"
    },
    {
      "channel": 2,
      "note": 55,
      "start": 49.9541,
      "duration": 0.1893,
      "velocity": 119,
      "chip": "ym2612"
    },
    {
      "channel": 3,
      "note": 53,
      "start": 49.9548,
      "duration": 0.1396,
      "velocity": 114,
      "chip": "ym2612"
    },
    {
      "channel": 1,
      "note": 50,
      "start": 50.1003,
      "duration": 0.141,
      "velocity": 86,
      "chip": "ym2612"
    },
    {
      "channel": 3,
      "note": 55,
      "start": 50.144,
      "duration": 0.1953,
      "velocity": 114,
      "chip": "ym2612"
    },
    {
      "channel": 0,
      "note": 26,
      "start": 50.2522,
      "duration": 0.136,
      "velocity": 127,
      "chip": "ym2612"
    },
    {
      "channel": 0,
      "note": 26,
      "start": 50.5466,
      "duration": 0.1358,
      "velocity": 127,
      "chip": "ym2612"
    },
    {
      "channel": 1,
      "note": 50,
      "start": 50.5527,
      "duration": 0.1294,
      "velocity": 94,
      "chip": "ym2612"
    },
    {
      "channel": 1,
      "note": 50,
      "start": 50.6883,
      "duration": 0.1408,
      "velocity": 86,
      "chip": "ym2612"
    },
    {
      "channel": 0,
      "note": 26,
      "start": 50.9871,
      "duration": 0.1359,
      "velocity": 127,
      "chip": "ym2612"
    },
    {
      "channel": 1,
      "note": 50,
      "start": 51.1288,
      "duration": 0.0921,
      "velocity": 94,
      "chip": "ym2612"
    },
    {
      "channel": 1,
      "note": 50,
      "start": 51.2754,
      "duration": 0.1414,
      "velocity": 86,
      "chip": "ym2612"
    },
    {
      "channel": 0,
      "note": 26,
      "start": 51.4277,
      "duration": 0.1361,
      "velocity": 127,
      "chip": "ym2612"
    },
    {
      "channel": 0,
      "note": 26,
      "start": 51.7222,
      "duration": 0.1354,
      "velocity": 127,
      "chip": "ym2612"
    },
    {
      "channel": 1,
      "note": 50,
      "start": 51.7281,
      "duration": 0.0806,
      "velocity": 94,
      "chip": "ym2612"
    },
    {
      "channel": 1,
      "note": 50,
      "start": 51.8634,
      "duration": 0.0922,
      "velocity": 86,
      "chip": "ym2612"
    },
    {
      "channel": 0,
      "note": 26,
      "start": 52.1625,
      "duration": 0.1359,
      "velocity": 127,
      "chip": "ym2612"
    },
    {
      "channel": 1,
      "note": 50,
      "start": 52.3044,
      "duration": 0.0921,
      "velocity": 94,
      "chip": "ym2612"
    },
    {
      "channel": 1,
      "note": 50,
      "start": 52.4511,
      "duration": 0.1412,
      "velocity": 86,
      "chip": "ym2612"
    },
    {
      "channel": 2,
      "note": 45,
      "start": 52.4947,
      "duration": 0.1467,
      "velocity": 119,
      "chip": "ym2612"
    },
    {
      "channel": 0,
      "note": 26,
      "start": 52.6033,
      "duration": 0.136,
      "velocity": 127,
      "chip": "ym2612"
    },
    {
      "channel": 2,
      "note": 50,
      "start": 52.6906,
      "duration": 0.1466,
      "velocity": 119,
      "chip": "ym2612"
    },
    {
      "channel": 3,
      "note": 45,
      "start": 52.6913,
      "duration": 0.1463,
      "velocity": 114,
      "chip": "ym2612"
    },
    {
      "channel": 0,
      "note": 26,
      "start": 52.8978,
      "duration": 0.1361,
      "velocity": 127,
      "chip": "ym2612"
    },
    {
      "channel": 1,
      "note": 50,
      "start": 52.9037,
      "duration": 0.1295,
      "velocity": 94,
      "chip": "ym2612"
    },
    {
      "channel": 2,
      "note": 53,
      "start": 52.9043,
      "duration": 0.1779,
      "velocity": 119,
      "chip": "ym2612"
    },
    {
      "channel": 3,
      "note": 50,
      "start": 52.9049,
      "duration": 0.1285,
      "velocity": 114,
      "chip": "ym2612"
    },
    {
      "channel": 1,
      "note": 50,
      "start": 53.0397,
      "duration": 0.1405,
      "velocity": 86,
      "chip": "ym2612"
    },
    {
      "channel": 3,
      "note": 53,
      "start": 53.0828,
      "duration": 0.1953,
      "velocity": 114,
      "chip": "ym2612"
    },
    {
      "channel": 0,
      "note": 26,
      "start": 53.3381,
      "duration": 0.1359,
      "velocity": 127,
      "chip": "ym2612"
    },
    {
      "channel": 1,
      "note": 50,
      "start": 53.4799,
      "duration": 0.092,
      "velocity": 94,
      "chip": "ym2612"
    },
    {
      "channel": 1,
      "note": 50,
      "start": 53.6265,
      "duration": 0.1413,
      "velocity": 86,
      "chip": "ym2612"
    },
    {
      "channel": 0,
      "note": 26,
      "start": 53.7787,
      "duration": 0.1361,
      "velocity": 127,
      "chip": "ym2612"
    },
    {
      "channel": 0,
      "note": 26,
      "start": 54.0732,
      "duration": 0.1354,
      "velocity": 127,
      "chip": "ym2612"
    },
    {
      "channel": 1,
      "note": 50,
      "start": 54.0792,
      "duration": 0.0805,
      "velocity": 94,
      "chip": "ym2612"
    },
    {
      "channel": 1,
      "note": 50,
      "start": 54.2146,
      "duration": 0.092,
      "velocity": 86,
      "chip": "ym2612"
    },
    {
      "channel": 0,
      "note": 26,
      "start": 54.5136,
      "duration": 0.1359,
      "velocity": 127,
      "chip": "ym2612"
    },
    {
      "channel": 1,
      "note": 50,
      "start": 54.6554,
      "duration": 0.0921,
      "velocity": 94,
      "chip": "ym2612"
    },
    {
      "channel": 1,
      "note": 50,
      "start": 54.8021,
      "duration": 0.1413,
      "velocity": 86,
      "chip": "ym2612"
    },
    {
      "channel": 2,
      "note": 48,
      "start": 54.8458,
      "duration": 0.1466,
      "velocity": 119,
      "chip": "ym2612"
    },
    {
      "channel": 0,
      "note": 26,
      "start": 54.9544,
      "duration": 0.1359,
      "velocity": 127,
      "chip": "ym2612"
    },
    {
      "channel": 2,
      "note": 50,
      "start": 55.0417,
      "duration": 0.1466,
      "velocity": 119,
      "chip": "ym2612"
    },
    {
      "channel": 3,
      "note": 48,
      "start": 55.0424,
      "duration": 0.1462,
      "velocity": 114,
      "chip": "ym2612"
    },
    {
      "channel": 0,
      "note": 26,
      "start": 55.2488,
      "duration": 0.136,
      "velocity": 127,
      "chip": "ym2612"
    },
    {
      "channel": 1,
      "note": 50,
      "start": 55.2547,
      "duration": 0.1295,
      "velocity": 94,
      "chip": "ym2612"
    },
    {
      "channel": 2,
      "note": 53,
      "start": 55.2554,
      "duration": 0.2268,
      "velocity": 119,
      "chip": "ym2612"
    },
    {
      "channel": 3,
      "note": 50,
      "start": 55.256,
      "duration": 0.1286,
      "velocity": 114,
      "chip": "ym2612"
    },
    {
      "channel": 1,
      "note": 50,
      "start": 55.3907,
      "duration": 0.1406,
      "velocity": 86,
      "chip": "ym2612"
    },
    {
      "channel": 3,
      "note": 53,
      "start": 55.4336,
      "duration": 0.2446,
      "velocity": 114,
      "chip": "ym2612"
    },
    {
      "channel": 2,
      "note": 55,
      "start": 55.6295,
      "duration": 0.1956,
      "velocity": 119,
      "chip": "ym2612"
    },
    {
      "channel": 0,
      "note": 26,
      "start": 55.6895,
      "duration": 0.1358,
      "velocity": 127,
      "chip": "ym2612"
    },
    {
      "channel": 1,
      "note": 50,
      "start": 55.8313,
      "duration": 0.0917,
      "velocity": 94,
      "chip": "ym2612"
    },
    {
      "channel": 3,
      "note": 55,
      "start": 55.832,
      "duration": 0.189,
      "velocity": 114,
      "chip": "ym2612"
    },
    {
      "channel": 1,
      "note": 50,
      "start": 55.9775,
      "duration": 0.1414,
      "velocity": 86,
      "chip": "ym2612"
    },
    {
      "channel": 0,
      "note": 26,
      "start": 56.1298,
      "duration": 0.1361,
      "velocity": 127,
      "chip": "ym2612"
    },
    {
      "channel": 0,
      "note": 26,
      "start": 56.4243,
      "duration": 0.1354,
      "velocity": 127,
      "chip": "ym2612"
    },
    {
      "channel": 1,
      "note": 50,
      "start": 56.4302,
      "duration": 0.0805,
      "velocity": 94,
      "chip": "ym2612"
    },
    {
      "channel": 1,
      "note": 50,
      "start": 56.5657,
      "duration": 0.092,
      "velocity": 86,
      "chip": "ym2612"
    },
    {
      "channel": 0,
      "note": 26,
      "start": 56.8648,
      "duration": 0.1358,
      "velocity": 127,
      "chip": "ym2612"
    },
    {
      "channel": 1,
      "note": 50,
      "start": 57.0065,
      "duration": 0.092,
      "velocity": 94,
      "chip": "ym2612"
    },
    {
      "channel": 1,
      "note": 50,
      "start": 57.1532,
      "duration": 0.1413,
      "velocity": 86,
      "chip": "ym2612"
    },
    {
      "channel": 2,
      "note": 48,
      "start": 57.1968,
      "duration": 0.1466,
      "velocity": 119,
      "chip": "ym2612"
    },
    {
      "channel": 0,
      "note": 26,
      "start": 57.3054,
      "duration": 0.136,
      "velocity": 127,
      "chip": "ym2612"
    },
    {
      "channel": 2,
      "note": 50,
      "start": 57.3928,
      "duration": 0.1466,
      "velocity": 119,
      "chip": "ym2612"
    },
    {
      "channel": 3,
      "note": 48,
      "start": 57.3935,
      "duration": 0.1462,
      "velocity": 114,
      "chip": "ym2612"
    },
    {
      "channel": 0,
      "note": 26,
      "start": 57.5998,
      "duration": 0.1361,
      "velocity": 127,
      "chip": "ym2612"
    },
    {
      "channel": 1,
      "note": 50,
      "start": 57.6058,
      "duration": 0.1295,
      "velocity": 94,
      "chip": "ym2612"
    },
    {
      "channel": 2,
      "note": 53,
      "start": 57.6064,
      "duration": 0.3248,
      "velocity": 119,
      "chip": "ym2612"
    },
    {
      "channel": 3,
      "note": 50,
      "start": 57.607,
      "duration": 0.1286,
      "velocity": 114,
      "chip": "ym2612"
    },
    {
      "channel": 1,
      "note": 50,
      "start": 57.7418,
      "duration": 0.1405,
      "velocity": 86,
      "chip": "ym2612"
    },
    {
      "channel": 3,
      "note": 53,
      "start": 57.7846,
      "duration": 0.3425,
      "velocity": 114,
      "chip": "ym2612"
    },
    {
      "channel": 2,
      "note": 55,
      "start": 57.9805,
      "duration": 0.3426,
      "velocity": 119,
      "chip": "ym2612"
    },
    {
      "channel": 0,
      "note": 26,
      "start": 58.0404,
      "duration": 0.1358,
      "velocity": 127,
      "chip": "ym2612"
    },
    {
      "channel": 1,
      "note": 50,
      "start": 58.1821,
      "duration": 0.092,
      "velocity": 94,
      "chip": "ym2612"
    },
    {
      "channel": 3,
      "note": 55,
      "start": 58.1827,
      "duration": 0.3366,
      "velocity": 114,
      "chip": "ym2612"
    },
    {
      "channel": 1,
      "note": 50,
      "start": 58.3289,
      "duration": 0.1411,
      "velocity": 86,
      "chip": "ym2612"
    },
    {
      "channel": 2,
      "note": 53,
      "start": 58.3724,
      "duration": 0.1466,
      "velocity": 119,
      "chip": "ym2612"
    },
    {
      "channel": 0,
      "note": 26,
      "start": 58.481,
      "duration": 0.136,
      "velocity": 127,
      "chip": "ym2612"
    },
    {
      "channel": 2,
      "note": 50,
      "start": 58.5683,
      "duration": 0.1466,
      "velocity": 119,
      "chip": "ym2612"
    },
    {
      "channel": 3,
      "note": 53,
      "start": 58.5689,
      "duration": 0.1463,
      "velocity": 114,
      "chip": "ym2612"
    },
    {
      "channel": 0,
      "note": 26,
      "start": 58.7754,
      "duration": 0.1358,
      "velocity": 127,
      "chip": "ym2612"
    },
    {
      "channel": 1,
      "note": 50,
      "start": 58.7815,
      "duration": 0.0804,
      "velocity": 94,
      "chip": "ym2612"
    },
    {
      "channel": 2,
      "note": 45,
      "start": 58.7821,
      "duration": 0.2757,
      "velocity": 119,
      "chip": "ym2612"
    },
    {
      "channel": 3,
      "note": 50,
      "start": 58.7827,
      "duration": 0.1281,
      "velocity": 114,
      "chip": "ym2612"
    },
    {
      "channel": 1,
      "note": 50,
      "start": 58.917,
      "duration": 0.0917,
      "velocity": 86,
      "chip": "ym2612"
    },
    {
      "channel": 3,
      "note": 45,
      "start": 58.9602,
      "duration": 0.2936,
      "velocity": 114,
      "chip": "ym2612"
    },
    {
      "channel": 2,
      "note": 48,
      "start": 59.1561,
      "duration": 0.1466,
      "velocity": 119,
      "chip": "ym2612"
    },
    {
      "channel": 0,
      "note": 26,
      "start": 59.2157,
      "duration": 0.1359,
      "velocity": 127,
      "chip": "ym2612"
    },
    {
      "channel": 1,
      "note": 50,
      "start": 59.3576,
      "duration": 0.092,
      "velocity": 94,
      "chip": "ym2612"
    },
    {
      "channel": 2,
      "note": 50,
      "start": 59.3582,
      "duration": 0.1404,
      "velocity": 119,
      "chip": "ym2612"
    },
    {
      "channel": 3,
      "note": 48,
      "start": 59.3588,
      "duration": 0.1889,
      "velocity": 114,
      "chip": "ym2612"
    },
    {
      "channel": 1,
      "note": 50,
      "start": 59.5044,
      "duration": 0.1411,
      "velocity": 86,
      "chip": "ym2612"
    },
    {
      "channel": 2,
      "note": 53,
      "start": 59.5483,
      "duration": 0.1462,
      "velocity": 119,
      "chip": "ym2612"
    },
    {
      "channel": 3,
      "note": 50,
      "start": 59.549,
      "duration": 0.1459,
      "velocity": 114,
      "chip": "ym2612"
    },
    {
      "channel": 0,
      "note": 26,
      "start": 59.6565,
      "duration": 0.136,
      "velocity": 127,
      "chip": "ym2612"
    },
    {
      "channel": 2,
      "note": 55,
      "start": 59.7438,
      "duration": 0.1466,
      "velocity": 119,
      "chip": "ym2612"
    },
    {
      "channel": 3,
      "note": 53,
      "start": 59.7444,
      "duration": 0.1463,
      "velocity": 114,
      "chip": "ym2612"
    },
    {
      "channel": 0,
      "note": 26,
      "start": 59.951,
      "duration": 0.1359,
      "velocity": 127,
      "chip": "ym2612"
    },
    {
      "channel": 1,
      "note": 50,
      "start": 59.957,
      "duration": 0.1294,
      "velocity": 94,
      "chip": "ym2612"
    },
    {
      "channel": 2,
      "note": 53,
      "start": 59.9576,
      "duration": 0.3247,
      "velocity": 119,
      "chip": "ym2612"
    },
    {
      "channel": 3,
      "note": 55,
      "start": 59.9582,
      "duration": 0.1284,
      "velocity": 114,
      "chip": "ym2612"
    },
    {
      "channel": 1,
      "note": 50,
      "start": 60.0928,
      "duration": 0.1405,
      "velocity": 86,
      "chip": "ym2612"
    },
    {
      "channel": 3,
      "note": 53,
      "start": 60.1357,
      "duration": 0.3425,
      "velocity": 114,
      "chip": "ym2612"
    },
    {
      "channel": 2,
      "note": 50,
      "start": 60.3316,
      "duration": 0.2938,
      "velocity": 119,
      "chip": "ym2612"
    },
    {
      "channel": 0,
      "note": 26,
      "start": 60.3913,
      "duration": 0.1358,
      "velocity": 127,
      "chip": "ym2612"
    },
    {
      "channel": 1,
      "note": 50,
      "start": 60.5332,
      "duration": 0.0919,
      "velocity": 94,
      "chip": "ym2612"
    },
    {
      "channel": 3,
      "note": 50,
      "start": 60.5339,
      "duration": 0.2874,
      "velocity": 114,
      "chip": "ym2612"
    },
    {
      "channel": 1,
      "note": 50,
      "start": 60.6797,
      "duration": 0.1413,
      "velocity": 86,
      "chip": "ym2612"
    },
    {
      "channel": 0,
      "note": 26,
      "start": 60.8323,
      "duration": 0.1357,
      "velocity": 127,
      "chip": "ym2612"
    }
  ]
}