{
  "track_name": "11 - Blood & Flame",
  "duration_sec": 91.487,
  "sample_rate": 44100,
  "note_count": 1142,
  "unique_pitches": 50,
  "pitch_range": 83,
  "avg_note_duration": 0.3285,
  "reconstruction_stats": {
    "notes_reconstructed": 1142,
    "keyon_events": 1142,
    "keyoff_events": 1139,
    "orphan_keyons": 3,
    "unique_pitches": 50,
    "pitch_range": 83,
    "avg_duration_sec": 0.3285
  },
  "metadata": {
    "source": "D\\Death Bringer - Himerata Monshou\\11 - Blood & Flame.vgz"
  },
  "notes": [
    {
      "channel": 0,
      "note": 52,
      "start": 0.0021,
      "duration": 0.0447,
      "velocity": 86,
      "chip": "ym2612"
    },
    {
      "channel": 3,
      "note": 40,
      "start": 0.0103,
      "duration": 0.3577,
      "velocity": 93,
      "chip": "ym2612"
    },
    {
      "channel": 4,
      "note": 33,
      "start": 0.0128,
      "duration": 0.0695,
      "velocity": 123,
      "chip": "ym2612"
    },
    {
      "channel": 0,
      "note": 52,
      "start": 0.0975,
      "duration": 0.0502,
      "velocity": 86,
      "chip": "ym2612"
    },
    {
      "channel": 4,
      "note": 33,
      "start": 0.1,
      "duration": 0.0833,
      "velocity": 123,
      "chip": "ym2612"
    },
    {
      "channel": 0,
      "note": 52,
      "start": 0.1985,
      "duration": 0.0501,
      "velocity": 86,
      "chip": "ym2612"
    },
    {
      "channel": 4,
      "note": 33,
      "start": 0.2008,
      "duration": 0.0834,
      "velocity": 123,
      "chip": "ym2612"
    },
    {
      "channel": 5,
      "note": 52,
      "start": 0.236,
      "duration": 0.0485,
      "velocity": 86,
      "chip": "ym2612"
    },
    {
      "channel": 0,
      "note": 52,
      "start": 0.2993,
      "duration": 0.0502,
      "velocity": 86,
      "chip": "ym2612"
    },
    {
      "channel": 4,
      "note": 33,
      "start": 0.3016,
      "duration": 0.0835,
      "velocity": 123,
      "chip": "ym2612"
    },
    {
      "channel": 5,
      "note": 52,
      "start": 0.3351,
      "duration": 0.0503,
      "velocity": 86,
      "chip": "ym2612"
    },
    {
      "channel": 0,
      "note": 52,
      "start": 0.4003,
      "duration": 0.0502,
      "velocity": 86,
      "chip": "ym2612"
    },
    {
      "channel": 3,
      "note": 40,
      "start": 0.4023,
      "duration": 0.3695,
      "velocity": 93,
      "chip": "ym2612"
    },
    {
      "channel": 4,
      "note": 33,
      "start": 0.4032,
      "duration": 0.0827,
      "velocity": 123,
      "chip": "ym2612"
    },
    {
      "channel": 5,
      "note": 52,
      "start": 0.4361,
      "duration": 0.0502,
      "velocity": 86,
      "chip": "ym2612"
    },
    {
      "channel": 0,
      "note": 52,
      "start": 0.5012,
      "duration": 0.0502,
      "velocity": 86,
      "chip": "ym2612"
    },
    {
      "channel": 4,
      "note": 33,
      "start": 0.5037,
      "duration": 0.0833,
      "velocity": 123,
      "chip": "ym2612"
    },
    {
      "channel": 5,
      "note": 52,
      "start": 0.537,
      "duration": 0.0503,
      "velocity": 86,
      "chip": "ym2612"
    },
    {
      "channel": 0,
      "note": 52,
      "start": 0.6021,
      "duration": 0.0502,
      "velocity": 86,
      "chip": "ym2612"
    },
    {
      "channel": 4,
      "note": 33,
      "start": 0.6044,
      "duration": 0.0835,
      "velocity": 123,
      "chip": "ym2612"
    },
    {
      "channel": 5,
      "note": 52,
      "start": 0.6379,
      "duration": 0.0502,
      "velocity": 86,
      "chip": "ym2612"
    },
    {
      "channel": 0,
      "note": 52,
      "start": 0.703,
      "duration": 0.0502,
      "velocity": 86,
      "chip": "ym2612"
    },
    {
      "channel": 4,
      "note": 33,
      "start": 0.7053,
      "duration": 0.0835,
      "velocity": 123,
      "chip": "ym2612"
    },
    {
      "channel": 5,
      "note": 52,
      "start": 0.7388,
      "duration": 0.0503,
      "velocity": 86,
      "chip": "ym2612"
    },
    {
      "channel": 0,
      "note": 52,
      "start": 0.804,
      "duration": 0.0502,
      "velocity": 86,
      "chip": "ym2612"
    },
    {
      "channel": 1,
      "note": 61,
      "start": 0.8046,
      "duration": 1.5805,
      "velocity": 104,
      "chip": "ym2612"
    },
    {
      "channel": 2,
      "note": 57,
      "start": 0.8052,
      "duration": 1.5802,
      "velocity": 104,
      "chip": "ym2612"
    },
    {
      "channel": 3,
      "note": 40,
      "start": 0.8068,
      "duration": 0.7724,
      "velocity": 93,
      "chip": "ym2612"
    },
    {
      "channel": 4,
      "note": 33,
      "start": 0.8077,
      "duration": 0.0821,
      "velocity": 123,
      "chip": "ym2612"
    },
    {
      "channel": 5,
      "note": 52,
      "start": 0.8397,
      "duration": 0.0504,
      "velocity": 86,
      "chip": "ym2612"
    },
    {
      "channel": 0,
      "note": 52,
      "start": 0.9049,
      "duration": 0.0502,
      "velocity": 86,
      "chip": "ym2612"
    },
    {
      "channel": 4,
      "note": 33,
      "start": 0.9074,
      "duration": 0.0833,
      "velocity": 123,
      "chip": "ym2612"
    },
    {
      "channel": 5,
      "note": 52,
      "start": 0.9407,
      "duration": 0.0503,
      "velocity": 86,
      "chip": "ym2612"
    },
    {
      "channel": 0,
      "note": 52,
      "start": 1.0058,
      "duration": 0.0502,
      "velocity": 86,
      "chip": "ym2612"
    },
    {
      "channel": 4,
      "note": 33,
      "start": 1.0081,
      "duration": 0.0835,
      "velocity": 123,
      "chip": "ym2612"
    },
    {
      "channel": 5,
      "note": 52,
      "start": 1.0417,
      "duration": 0.0502,
      "velocity": 86,
      "chip": "ym2612"
    },
    {
      "channel": 0,
      "note": 52,
      "start": 1.1067,
      "duration": 0.0502,
      "velocity": 86,
      "chip": "ym2612"
    },
    {
      "channel": 4,
      "note": 33,
      "start": 1.109,
      "duration": 0.0835,
      "velocity": 123,
      "chip": "ym2612"
    },
    {
      "channel": 5,
      "note": 52,
      "start": 1.1425,
      "duration": 0.0502,
      "velocity": 86,
      "chip": "ym2612"
    },
    {
      "channel": 0,
      "note": 64,
      "start": 1.2078,
      "duration": 0.0501,
      "velocity": 86,
      "chip": "ym2612"
    },
    {
      "channel": 4,
      "note": 33,
      "start": 1.2103,
      "duration": 0.0831,
      "velocity": 123,
      "chip": "ym2612"
    },
    {
      "channel": 5,
      "note": 52,
      "start": 1.2434,
      "duration": 0.0502,
      "velocity": 86,
      "chip": "ym2612"
    },
    {
      "channel": 0,
      "note": 52,
      "start": 1.3086,
      "duration": 0.0501,
      "velocity": 86,
      "chip": "ym2612"
    },
    {
      "channel": 4,
      "note": 33,
      "start": 1.3112,
      "duration": 0.0832,
      "velocity": 123,
      "chip": "ym2612"
    },
    {
      "channel": 5,
      "note": 52,
      "start": 1.3444,
      "duration": 0.0503,
      "velocity": 86,
      "chip": "ym2612"
    },
    {
      "channel": 0,
      "note": 52,
      "start": 1.4095,
      "duration": 0.0502,
      "velocity": 86,
      "chip": "ym2612"
    },
    {
      "channel": 4,
      "note": 33,
      "start": 1.4118,
      "duration": 0.0835,
      "velocity": 123,
      "chip": "ym2612"
    },
    {
      "channel": 5,
      "note": 64,
      "start": 1.4454,
      "duration": 0.0501,
      "velocity": 86,
      "chip": "ym2612"
    },
    {
      "channel": 0,
      "note": 52,
      "start": 1.5104,
      "duration": 0.0502,
      "velocity": 86,
      "chip": "ym2612"
    },
    {
      "channel": 4,
      "note": 33,
      "start": 1.5127,
      "duration": 0.0835,
      "velocity": 123,
      "chip": "ym2612"
    },
    {
      "channel": 5,
      "note": 52,
      "start": 1.5463,
      "duration": 0.0502,
      "velocity": 86,
      "chip": "ym2612"
    },
    {
      "channel": 0,
      "note": 52,
      "start": 1.6115,
      "duration": 0.0501,
      "velocity": 86,
      "chip": "ym2612"
    },
    {
      "channel": 3,
      "note": 40,
      "start": 1.6136,
      "duration": 0.3692,
      "velocity": 93,
      "chip": "ym2612"
    },
    {
      "channel": 4,
      "note": 33,
      "start": 1.6145,
      "duration": 0.0826,
      "velocity": 123,
      "chip": "ym2612"
    },
    {
      "channel": 5,
      "note": 52,
      "start": 1.6471,
      "duration": 0.0502,
      "velocity": 86,
      "chip": "ym2612"
    },
    {
      "channel": 0,
      "note": 52,
      "start": 1.7123,
      "duration": 0.0502,
      "velocity": 86,
      "chip": "ym2612"
    },
    {
      "channel": 4,
      "note": 33,
      "start": 1.7148,
      "duration": 0.0833,
      "velocity": 123,
      "chip": "ym2612"
    },
    {
      "channel": 5,
      "note": 52,
      "start": 1.7481,
      "duration": 0.0503,
      "velocity": 86,
      "chip": "ym2612"
    },
    {
      "channel": 0,
      "note": 52,
      "start": 1.8132,
      "duration": 0.0502,
      "velocity": 86,
      "chip": "ym2612"
    },
    {
      "channel": 4,
      "note": 33,
      "start": 1.8155,
      "duration": 0.0835,
      "velocity": 123,
      "chip": "ym2612"
    },
    {
      "channel": 5,
      "note": 52,
      "start": 1.8491,
      "duration": 0.0501,
      "velocity": 86,
      "chip": "ym2612"
    },
    {
      "channel": 0,
      "note": 52,
      "start": 1.9141,
      "duration": 0.0502,
      "velocity": 86,
      "chip": "ym2612"
    },
    {
      "channel": 4,
      "note": 33,
      "start": 1.9164,
      "duration": 0.0835,
      "velocity": 123,
      "chip": "ym2612"
    },
    {
      "channel": 5,
      "note": 52,
      "start": 1.9499,
      "duration": 0.0503,
      "velocity": 86,
      "chip": "ym2612"
    },
    {
      "channel": 0,
      "note": 52,
      "start": 2.0151,
      "duration": 0.0502,
      "velocity": 86,
      "chip": "ym2612"
    },
    {
      "channel": 3,
      "note": 40,
      "start": 2.0171,
      "duration": 0.3695,
      "velocity": 93,
      "chip": "ym2612"
    },
    {
      "channel": 4,
      "note": 33,
      "start": 2.018,
      "duration": 0.0828,
      "velocity": 123,
      "chip": "ym2612"
    },
    {
      "channel": 5,
      "note": 52,
      "start": 2.0509,
      "duration": 0.0502,
      "velocity": 86,
      "chip": "ym2612"
    },
    {
      "channel": 0,
      "note": 52,
      "start": 2.116,
      "duration": 0.0502,
      "velocity": 86,
      "chip": "ym2612"
    },
    {
      "channel": 4,
      "note": 33,
      "start": 2.1185,
      "duration": 0.0833,
      "velocity": 123,
      "chip": "ym2612"
    },
    {
      "channel": 5,
      "note": 52,
      "start": 2.1518,
      "duration": 0.0503,
      "velocity": 86,
      "chip": "ym2612"
    },
    {
      "channel": 0,
      "note": 52,
      "start": 2.2169,
      "duration": 0.0503,
      "velocity": 86,
      "chip": "ym2612"
    },
    {
      "channel": 4,
      "note": 33,
      "start": 2.2192,
      "duration": 0.0835,
      "velocity": 123,
      "chip": "ym2612"
    },
    {
      "channel": 5,
      "note": 52,
      "start": 2.2527,
      "duration": 0.0502,
      "velocity": 86,
      "chip": "ym2612"
    },
    {
      "channel": 0,
      "note": 52,
      "start": 2.3178,
      "duration": 0.0502,
      "velocity": 86,
      "chip": "ym2612"
    },
    {
      "channel": 4,
      "note": 33,
      "start": 2.3201,
      "duration": 0.0835,
      "velocity": 123,
      "chip": "ym2612"
    },
    {
      "channel": 5,
      "note": 52,
      "start": 2.3536,
      "duration": 0.0502,
      "velocity": 86,
      "chip": "ym2612"
    },
    {
      "channel": 0,
      "note": 52,
      "start": 2.4188,
      "duration": 0.0502,
      "velocity": 86,
      "chip": "ym2612"
    },
    {
      "channel": 1,
      "note": 63,
      "start": 2.4194,
      "duration": 1.5805,
      "velocity": 104,
      "chip": "ym2612"
    },
    {
      "channel": 2,
      "note": 59,
      "start": 2.42,
      "duration": 1.5802,
      "velocity": 104,
      "chip": "ym2612"
    },
    {
      "channel": 3,
      "note": 40,
      "start": 2.4216,
      "duration": 0.7723,
      "velocity": 93,
      "chip": "ym2612"
    },
    {
      "channel": 4,
      "note": 33,
      "start": 2.4225,
      "duration": 0.082,
      "velocity": 123,
      "chip": "ym2612"
    },
    {
      "channel": 5,
      "note": 52,
      "start": 2.4545,
      "duration": 0.0503,
      "velocity": 86,
      "chip": "ym2612"
    },
    {
      "channel": 0,
      "note": 52,
      "start": 2.5197,
      "duration": 0.0502,
      "velocity": 86,
      "chip": "ym2612"
    },
    {
      "channel": 4,
      "note": 33,
      "start": 2.5222,
      "duration": 0.0832,
      "velocity": 123,
      "chip": "ym2612"
    },
    {
      "channel": 5,
      "note": 52,
      "start": 2.5555,
      "duration": 0.0502,
      "velocity": 86,
      "chip": "ym2612"
    },
    {
      "channel": 0,
      "note": 52,
      "start": 2.6206,
      "duration": 0.0502,
      "velocity": 86,
      "chip": "ym2612"
    },
    {
      "channel": 4,
      "note": 33,
      "start": 2.6229,
      "duration": 0.0835,
      "velocity": 123,
      "chip": "ym2612"
    },
    {
      "channel": 5,
      "note": 52,
      "start": 2.6565,
      "duration": 0.0502,
      "velocity": 86,
      "chip": "ym2612"
    },
    {
      "channel": 0,
      "note": 52,
      "start": 2.7215,
      "duration": 0.0502,
      "velocity": 86,
      "chip": "ym2612"
    },
    {
      "channel": 4,
      "note": 33,
      "start": 2.7238,
      "duration": 0.0835,
      "velocity": 123,
      "chip": "ym2612"
    },
    {
      "channel": 5,
      "note": 52,
      "start": 2.7573,
      "duration": 0.0502,
      "velocity": 86,
      "chip": "ym2612"
    },
    {
      "channel": 0,
      "note": 64,
      "start": 2.8226,
      "duration": 0.0501,
      "velocity": 86,
      "chip": "ym2612"
    },
    {
      "channel": 4,
      "note": 33,
      "start": 2.8252,
      "duration": 0.083,
      "velocity": 123,
      "chip": "ym2612"
    },
    {
      "channel": 5,
      "note": 52,
      "start": 2.8583,
      "duration": 0.0502,
      "velocity": 86,
      "chip": "ym2612"
    },
    {
      "channel": 0,
      "note": 52,
      "start": 2.9234,
      "duration": 0.0502,
      "velocity": 86,
      "chip": "ym2612"
    },
    {
      "channel": 4,
      "note": 33,
      "start": 2.9259,
      "duration": 0.0832,
      "velocity": 123,
      "chip": "ym2612"
    },
    {
      "channel": 5,
      "note": 52,
      "start": 2.9593,
      "duration": 0.0502,
      "velocity": 86,
      "chip": "ym2612"
    },
    {
      "channel": 0,
      "note": 52,
      "start": 3.0243,
      "duration": 0.0502,
      "velocity": 86,
      "chip": "ym2612"
    },
    {
      "channel": 4,
      "note": 33,
      "start": 3.0266,
      "duration": 0.0835,
      "velocity": 123,
      "chip": "ym2612"
    },
    {
      "channel": 5,
      "note": 64,
      "start": 3.0602,
      "duration": 0.0501,
      "velocity": 86,
      "chip": "ym2612"
    },
    {
      "channel": 0,
      "note": 52,
      "start": 3.1252,
      "duration": 0.0502,
      "velocity": 86,
      "chip": "ym2612"
    },
    {
      "channel": 4,
      "note": 33,
      "start": 3.1275,
      "duration": 0.0835,
      "velocity": 123,
      "chip": "ym2612"
    },
    {
      "channel": 5,
      "note": 52,
      "start": 3.1611,
      "duration": 0.0502,
      "velocity": 86,
      "chip": "ym2612"
    },
    {
      "channel": 0,
      "note": 52,
      "start": 3.2263,
      "duration": 0.0501,
      "velocity": 86,
      "chip": "ym2612"
    },
    {
      "channel": 3,
      "note": 40,
      "start": 3.2284,
      "duration": 0.3692,
      "velocity": 93,
      "chip": "ym2612"
    },
    {
      "channel": 4,
      "note": 33,
      "start": 3.2293,
      "duration": 0.0826,
      "velocity": 123,
      "chip": "ym2612"
    },
    {
      "channel": 5,
      "note": 52,
      "start": 3.2619,
      "duration": 0.0503,
      "velocity": 86,
      "chip": "ym2612"
    },
    {
      "channel": 0,
      "note": 52,
      "start": 3.3271,
      "duration": 0.0502,
      "velocity": 86,
      "chip": "ym2612"
    },
    {
      "channel": 4,
      "note": 33,
      "start": 3.3296,
      "duration": 0.0832,
      "velocity": 123,
      "chip": "ym2612"
    },
    {
      "channel": 5,
      "note": 52,
      "start": 3.3629,
      "duration": 0.0502,
      "velocity": 86,
      "chip": "ym2612"
    },
    {
      "channel": 0,
      "note": 52,
      "start": 3.428,
      "duration": 0.0502,
      "velocity": 86,
      "chip": "ym2612"
    },
    {
      "channel": 4,
      "note": 33,
      "start": 3.4303,
      "duration": 0.0835,
      "velocity": 123,
      "chip": "ym2612"
    },
    {
      "channel": 5,
      "note": 52,
      "start": 3.4639,
      "duration": 0.0501,
      "velocity": 86,
      "chip": "ym2612"
    },
    {
      "channel": 0,
      "note": 52,
      "start": 3.5289,
      "duration": 0.0502,
      "velocity": 86,
      "chip": "ym2612"
    },
    {
      "channel": 4,
      "note": 33,
      "start": 3.5312,
      "duration": 0.0835,
      "velocity": 123,
      "chip": "ym2612"
    },
    {
      "channel": 5,
      "note": 52,
      "start": 3.5647,
      "duration": 0.0502,
      "velocity": 86,
      "chip": "ym2612"
    },
    {
      "channel": 0,
      "note": 52,
      "start": 3.6299,
      "duration": 0.0502,
      "velocity": 86,
      "chip": "ym2612"
    },
    {
      "channel": 3,
      "note": 40,
      "start": 3.632,
      "duration": 0.3695,
      "velocity": 93,
      "chip": "ym2612"
    },
    {
      "channel": 4,
      "note": 33,
      "start": 3.6329,
      "duration": 0.0828,
      "velocity": 123,
      "chip": "ym2612"
    },
    {
      "channel": 5,
      "note": 52,
      "start": 3.6656,
      "duration": 0.0503,
      "velocity": 86,
      "chip": "ym2612"
    },
    {
      "channel": 0,
      "note": 52,
      "start": 3.7308,
      "duration": 0.0502,
      "velocity": 86,
      "chip": "ym2612"
    },
    {
      "channel": 4,
      "note": 33,
      "start": 3.7333,
      "duration": 0.0832,
      "velocity": 123,
      "chip": "ym2612"
    },
    {
      "channel": 5,
      "note": 52,
      "start": 3.7666,
      "duration": 0.0502,
      "velocity": 86,
      "chip": "ym2612"
    },
    {
      "channel": 0,
      "note": 52,
      "start": 3.8317,
      "duration": 0.0502,
      "velocity": 86,
      "chip": "ym2612"
    },
    {
      "channel": 4,
      "note": 33,
      "start": 3.834,
      "duration": 0.0835,
      "velocity": 123,
      "chip": "ym2612"
    },
    {
      "channel": 5,
      "note": 52,
      "start": 3.8676,
      "duration": 0.0502,
      "velocity": 86,
      "chip": "ym2612"
    },
    {
      "channel": 0,
      "note": 52,
      "start": 3.9326,
      "duration": 0.0502,
      "velocity": 86,
      "chip": "ym2612"
    },
    {
      "channel": 4,
      "note": 33,
      "start": 3.9349,
      "duration": 0.0835,
      "velocity": 123,
      "chip": "ym2612"
    },
    {
      "channel": 5,
      "note": 52,
      "start": 3.9684,
      "duration": 0.0502,
      "velocity": 86,
      "chip": "ym2612"
    },
    {
      "channel": 0,
      "note": 52,
      "start": 4.0336,
      "duration": 0.0501,
      "velocity": 86,
      "chip": "ym2612"
    },
    {
      "channel": 1,
      "note": 64,
      "start": 4.0342,
      "duration": 1.5805,
      "velocity": 104,
      "chip": "ym2612"
    },
    {
      "channel": 2,
      "note": 61,
      "start": 4.0349,
      "duration": 1.5802,
      "velocity": 104,
      "chip": "ym2612"
    },
    {
      "channel": 3,
      "note": 40,
      "start": 4.0364,
      "duration": 0.7723,
      "velocity": 93,
      "chip": "ym2612"
    },
    {
      "channel": 4,
      "note": 33,
      "start": 4.0373,
      "duration": 0.082,
      "velocity": 123,
      "chip": "ym2612"
    },
    {
      "channel": 5,
      "note": 52,
      "start": 4.0694,
      "duration": 0.0502,
      "velocity": 86,
      "chip": "ym2612"
    },
    {
      "channel": 0,
      "note": 52,
      "start": 4.1345,
      "duration": 0.0502,
      "velocity": 86,
      "chip": "ym2612"
    },
    {
      "channel": 4,
      "note": 33,
      "start": 4.137,
      "duration": 0.0832,
      "velocity": 123,
      "chip": "ym2612"
    },
    {
      "channel": 5,
      "note": 52,
      "start": 4.1703,
      "duration": 0.0502,
      "velocity": 86,
      "chip": "ym2612"
    },
    {
      "channel": 0,
      "note": 52,
      "start": 4.2354,
      "duration": 0.0502,
      "velocity": 86,
      "chip": "ym2612"
    },
    {
      "channel": 4,
      "note": 33,
      "start": 4.2377,
      "duration": 0.0835,
      "velocity": 123,
      "chip": "ym2612"
    },
    {
      "channel": 5,
      "note": 52,
      "start": 4.2712,
      "duration": 0.0502,
      "velocity": 86,
      "chip": "ym2612"
    },
    {
      "channel": 0,
      "note": 52,
      "start": 4.3363,
      "duration": 0.0503,
      "velocity": 86,
      "chip": "ym2612"
    },
    {
      "channel": 4,
      "note": 33,
      "start": 4.3386,
      "duration": 0.0835,
      "velocity": 123,
      "chip": "ym2612"
    },
    {
      "channel": 5,
      "note": 52,
      "start": 4.3721,
      "duration": 0.0502,
      "velocity": 86,
      "chip": "ym2612"
    },
    {
      "channel": 0,
      "note": 64,
      "start": 4.4374,
      "duration": 0.0501,
      "velocity": 86,
      "chip": "ym2612"
    },
    {
      "channel": 4,
      "note": 33,
      "start": 4.44,
      "duration": 0.0831,
      "velocity": 123,
      "chip": "ym2612"
    },
    {
      "channel": 5,
      "note": 52,
      "start": 4.4731,
      "duration": 0.0502,
      "velocity": 86,
      "chip": "ym2612"
    },
    {
      "channel": 0,
      "note": 52,
      "start": 4.5383,
      "duration": 0.0501,
      "velocity": 86,
      "chip": "ym2612"
    },
    {
      "channel": 4,
      "note": 33,
      "start": 4.5408,
      "duration": 0.0832,
      "velocity": 123,
      "chip": "ym2612"
    },
    {
      "channel": 5,
      "note": 52,
      "start": 4.574,
      "duration": 0.0502,
      "velocity": 86,
      "chip": "ym2612"
    },
    {
      "channel": 0,
      "note": 52,
      "start": 4.6391,
      "duration": 0.0502,
      "velocity": 86,
      "chip": "ym2612"
    },
    {
      "channel": 4,
      "note": 33,
      "start": 4.6414,
      "duration": 0.0835,
      "velocity": 123,
      "chip": "ym2612"
    },
    {
      "channel": 5,
      "note": 64,
      "start": 4.675,
      "duration": 0.0501,
      "velocity": 86,
      "chip": "ym2612"
    },
    {
      "channel": 0,
      "note": 52,
      "start": 4.74,
      "duration": 0.0502,
      "velocity": 86,
      "chip": "ym2612"
    },
    {
      "channel": 4,
      "note": 33,
      "start": 4.7423,
      "duration": 0.0835,
      "velocity": 123,
      "chip": "ym2612"
    },
    {
      "channel": 5,
      "note": 52,
      "start": 4.7759,
      "duration": 0.0502,
      "velocity": 86,
      "chip": "ym2612"
    },
    {
      "channel": 0,
      "note": 52,
      "start": 4.841,
      "duration": 0.0501,
      "velocity": 86,
      "chip": "ym2612"
    },
    {
      "channel": 3,
      "note": 40,
      "start": 4.8432,
      "duration": 0.3693,
      "velocity": 93,
      "chip": "ym2612"
    },
    {
      "channel": 4,
      "note": 33,
      "start": 4.8441,
      "duration": 0.0827,
      "velocity": 123,
      "chip": "ym2612"
    },
    {
      "channel": 5,
      "note": 52,
      "start": 4.8768,
      "duration": 0.0502,
      "velocity": 86,
      "chip": "ym2612"
    },
    {
      "channel": 0,
      "note": 64,
      "start": 4.942,
      "duration": 0.0502,
      "velocity": 86,
      "chip": "ym2612"
    },
    {
      "channel": 4,
      "note": 33,
      "start": 4.9445,
      "duration": 0.0833,
      "velocity": 123,
      "chip": "ym2612"
    },
    {
      "channel": 5,
      "note": 52,
      "start": 4.9777,
      "duration": 0.0504,
      "velocity": 86,
      "chip": "ym2612"
    },
    {
      "channel": 0,
      "note": 52,
      "start": 5.0429,
      "duration": 0.0502,
      "velocity": 86,
      "chip": "ym2612"
    },
    {
      "channel": 4,
      "note": 33,
      "start": 5.0451,
      "duration": 0.0834,
      "velocity": 123,
      "chip": "ym2612"
    },
    {
      "channel": 5,
      "note": 52,
      "start": 5.0787,
      "duration": 0.0502,
      "velocity": 86,
      "chip": "ym2612"
    },
    {
      "channel": 0,
      "note": 52,
      "start": 5.1437,
      "duration": 0.0502,
      "velocity": 86,
      "chip": "ym2612"
    },
    {
      "channel": 4,
      "note": 33,
      "start": 5.146,
      "duration": 0.0835,
      "velocity": 123,
      "chip": "ym2612"
    },
    {
      "channel": 5,
      "note": 64,
      "start": 5.1796,
      "duration": 0.0502,
      "velocity": 86,
      "chip": "ym2612"
    },
    {
      "channel": 0,
      "note": 52,
      "start": 5.2446,
      "duration": 0.0502,
      "velocity": 86,
      "chip": "ym2612"
    },
    {
      "channel": 3,
      "note": 40,
      "start": 5.2467,
      "duration": 0.3695,
      "velocity": 93,
      "chip": "ym2612"
    },
    {
      "channel": 4,
      "note": 33,
      "start": 5.2476,
      "duration": 0.0828,
      "velocity": 123,
      "chip": "ym2612"
    },
    {
      "channel": 5,
      "note": 52,
      "start": 5.2805,
      "duration": 0.0502,
      "velocity": 86,
      "chip": "ym2612"
    },
    {
      "channel": 0,
      "note": 52,
      "start": 5.3456,
      "duration": 0.0502,
      "velocity": 86,
      "chip": "ym2612"
    },
    {
      "channel": 4,
      "note": 33,
      "start": 5.3481,
      "duration": 0.0832,
      "velocity": 123,
      "chip": "ym2612"
    },
    {
      "channel": 5,
      "note": 52,
      "start": 5.3814,
      "duration": 0.0502,
      "velocity": 86,
      "chip": "ym2612"
    },
    {
      "channel": 0,
      "note": 52,
      "start": 5.4465,
      "duration": 0.0502,
      "velocity": 86,
      "chip": "ym2612"
    },
    {
      "channel": 4,
      "note": 33,
      "start": 5.4488,
      "duration": 0.0835,
      "velocity": 123,
      "chip": "ym2612"
    },
    {
      "channel": 5,
      "note": 52,
      "start": 5.4823,
      "duration": 0.0503,
      "velocity": 86,
      "chip": "ym2612"
    },
    {
      "channel": 0,
      "note": 52,
      "start": 5.5474,
      "duration": 0.0502,
      "velocity": 86,
      "chip": "ym2612"
    },
    {
      "channel": 4,
      "note": 33,
      "start": 5.5497,
      "duration": 0.0835,
      "velocity": 123,
      "chip": "ym2612"
    },
    {
      "channel": 5,
      "note": 52,
      "start": 5.5832,
      "duration": 0.0502,
      "velocity": 86,
      "chip": "ym2612"
    },
    {
      "channel": 0,
      "note": 52,
      "start": 5.6484,
      "duration": 0.0502,
      "velocity": 86,
      "chip": "ym2612"
    },
    {
      "channel": 1,
      "note": 69,
      "start": 5.649,
      "duration": 1.9842,
      "velocity": 104,
      "chip": "ym2612"
    },
    {
      "channel": 2,
      "note": 64,
      "start": 5.6497,
      "duration": 1.9838,
      "velocity": 104,
      "chip": "ym2612"
    },
    {
      "channel": 3,
      "note": 40,
      "start": 5.6512,
      "duration": 1.9835,
      "velocity": 93,
      "chip": "ym2612"
    },
    {
      "channel": 4,
      "note": 33,
      "start": 5.6521,
      "duration": 0.082,
      "velocity": 123,
      "chip": "ym2612"
    },
    {
      "channel": 5,
      "note": 52,
      "start": 5.6841,
      "duration": 0.0503,
      "velocity": 86,
      "chip": "ym2612"
    },
    {
      "channel": 0,
      "note": 52,
      "start": 5.7493,
      "duration": 0.0502,
      "velocity": 86,
      "chip": "ym2612"
    },
    {
      "channel": 4,
      "note": 33,
      "start": 5.7518,
      "duration": 0.0833,
      "velocity": 123,
      "chip": "ym2612"
    },
    {
      "channel": 5,
      "note": 52,
      "start": 5.7851,
      "duration": 0.0503,
      "velocity": 86,
      "chip": "ym2612"
    },
    {
      "channel": 0,
      "note": 64,
      "start": 5.8503,
      "duration": 0.0502,
      "velocity": 86,
      "chip": "ym2612"
    },
    {
      "channel": 4,
      "note": 33,
      "start": 5.8526,
      "duration": 0.0834,
      "velocity": 123,
      "chip": "ym2612"
    },
    {
      "channel": 5,
      "note": 52,
      "start": 5.886,
      "duration": 0.0502,
      "velocity": 86,
      "chip": "ym2612"
    },
    {
      "channel": 0,
      "note": 52,
      "start": 5.9512,
      "duration": 0.0502,
      "velocity": 86,
      "chip": "ym2612"
    },
    {
      "channel": 4,
      "note": 33,
      "start": 5.9535,
      "duration": 0.0834,
      "velocity": 123,
      "chip": "ym2612"
    },
    {
      "channel": 5,
      "note": 52,
      "start": 5.987,
      "duration": 0.0502,
      "velocity": 86,
      "chip": "ym2612"
    },
    {
      "channel": 0,
      "note": 64,
      "start": 6.0521,
      "duration": 0.0502,
      "velocity": 86,
      "chip": "ym2612"
    },
    {
      "channel": 4,
      "note": 33,
      "start": 6.0547,
      "duration": 0.0831,
      "velocity": 123,
      "chip": "ym2612"
    },
    {
      "channel": 5,
      "note": 64,
      "start": 6.0879,
      "duration": 0.0502,
      "velocity": 86,
      "chip": "ym2612"
    },
    {
      "channel": 0,
      "note": 52,
      "start": 6.1531,
      "duration": 0.0501,
      "velocity": 86,
      "chip": "ym2612"
    },
    {
      "channel": 4,
      "note": 33,
      "start": 6.1556,
      "duration": 0.0832,
      "velocity": 123,
      "chip": "ym2612"
    },
    {
      "channel": 5,
      "note": 52,
      "start": 6.1888,
      "duration": 0.0502,
      "velocity": 86,
      "chip": "ym2612"
    },
    {
      "channel": 0,
      "note": 52,
      "start": 6.2539,
      "duration": 0.0502,
      "velocity": 86,
      "chip": "ym2612"
    },
    {
      "channel": 4,
      "note": 33,
      "start": 6.2562,
      "duration": 0.0835,
      "velocity": 123,
      "chip": "ym2612"
    },
    {
      "channel": 5,
      "note": 64,
      "start": 6.2898,
      "duration": 0.0502,
      "velocity": 86,
      "chip": "ym2612"
    },
    {
      "channel": 0,
      "note": 52,
      "start": 6.3548,
      "duration": 0.0503,
      "velocity": 86,
      "chip": "ym2612"
    },
    {
      "channel": 4,
      "note": 33,
      "start": 6.3571,
      "duration": 0.0835,
      "velocity": 123,
      "chip": "ym2612"
    },
    {
      "channel": 5,
      "note": 52,
      "start": 6.3907,
      "duration": 0.0502,
      "velocity": 86,
      "chip": "ym2612"
    },
    {
      "channel": 0,
      "note": 52,
      "start": 6.4558,
      "duration": 0.0502,
      "velocity": 86,
      "chip": "ym2612"
    },
    {
      "channel": 4,
      "note": 33,
      "start": 6.4583,
      "duration": 0.0832,
      "velocity": 123,
      "chip": "ym2612"
    },
    {
      "channel": 5,
      "note": 52,
      "start": 6.4916,
      "duration": 0.0502,
      "velocity": 86,
      "chip": "ym2612"
    },
    {
      "channel": 0,
      "note": 52,
      "start": 6.5567,
      "duration": 0.0502,
      "velocity": 86,
      "chip": "ym2612"
    },
    {
      "channel": 4,
      "note": 33,
      "start": 6.5592,
      "duration": 0.0832,
      "velocity": 123,
      "chip": "ym2612"
    },
    {
      "channel": 5,
      "note": 52,
      "start": 6.5925,
      "duration": 0.0502,
      "velocity": 86,
      "chip": "ym2612"
    },
    {
      "channel": 0,
      "note": 52,
      "start": 6.6576,
      "duration": 0.0502,
      "velocity": 86,
      "chip": "ym2612"
    },
    {
      "channel": 4,
      "note": 33,
      "start": 6.6599,
      "duration": 0.0835,
      "velocity": 123,
      "chip": "ym2612"
    },
    {
      "channel": 5,
      "note": 52,
      "start": 6.6934,
      "duration": 0.0502,
      "velocity": 86,
      "chip": "ym2612"
    },
    {
      "channel": 0,
      "note": 64,
      "start": 6.7586,
      "duration": 0.0502,
      "velocity": 86,
      "chip": "ym2612"
    },
    {
      "channel": 4,
      "note": 33,
      "start": 6.7609,
      "duration": 0.0834,
      "velocity": 123,
      "chip": "ym2612"
    },
    {
      "channel": 5,
      "note": 52,
      "start": 6.7944,
      "duration": 0.0502,
      "velocity": 86,
      "chip": "ym2612"
    },
    {
      "channel": 0,
      "note": 52,
      "start": 6.8595,
      "duration": 0.0502,
      "velocity": 86,
      "chip": "ym2612"
    },
    {
      "channel": 4,
      "note": 33,
      "start": 6.8621,
      "duration": 0.0831,
      "velocity": 123,
      "chip": "ym2612"
    },
    {
      "channel": 5,
      "note": 52,
      "start": 6.8953,
      "duration": 0.0503,
      "velocity": 86,
      "chip": "ym2612"
    },
    {
      "channel": 0,
      "note": 52,
      "start": 6.9604,
      "duration": 0.0502,
      "velocity": 86,
      "chip": "ym2612"
    },
    {
      "channel": 4,
      "note": 33,
      "start": 6.9629,
      "duration": 0.0832,
      "velocity": 123,
      "chip": "ym2612"
    },
    {
      "channel": 5,
      "note": 64,
      "start": 6.9963,
      "duration": 0.0502,
      "velocity": 86,
      "chip": "ym2612"
    },
    {
      "channel": 0,
      "note": 52,
      "start": 7.0613,
      "duration": 0.0502,
      "velocity": 86,
      "chip": "ym2612"
    },
    {
      "channel": 4,
      "note": 33,
      "start": 7.0636,
      "duration": 0.0835,
      "velocity": 123,
      "chip": "ym2612"
    },
    {
      "channel": 5,
      "note": 52,
      "start": 7.0973,
      "duration": 0.0501,
      "velocity": 86,
      "chip": "ym2612"
    },
    {
      "channel": 0,
      "note": 52,
      "start": 7.1622,
      "duration": 0.0502,
      "velocity": 86,
      "chip": "ym2612"
    },
    {
      "channel": 4,
      "note": 33,
      "start": 7.1645,
      "duration": 0.0835,
      "velocity": 123,
      "chip": "ym2612"
    },
    {
      "channel": 5,
      "note": 52,
      "start": 7.198,
      "duration": 0.0502,
      "velocity": 86,
      "chip": "ym2612"
    },
    {
      "channel": 0,
      "note": 52,
      "start": 7.2632,
      "duration": 0.0502,
      "velocity": 86,
      "chip": "ym2612"
    },
    {
      "channel": 4,
      "note": 33,
      "start": 7.2658,
      "duration": 0.0832,
      "velocity": 123,
      "chip": "ym2612"
    },
    {
      "channel": 5,
      "note": 52,
      "start": 7.299,
      "duration": 0.0503,
      "velocity": 86,
      "chip": "ym2612"
    },
    {
      "channel": 0,
      "note": 64,
      "start": 7.3642,
      "duration": 0.0501,
      "velocity": 86,
      "chip": "ym2612"
    },
    {
      "channel": 4,
      "note": 33,
      "start": 7.3667,
      "duration": 0.0832,
      "velocity": 123,
      "chip": "ym2612"
    },
    {
      "channel": 5,
      "note": 52,
      "start": 7.3999,
      "duration": 0.0503,
      "velocity": 86,
      "chip": "ym2612"
    },
    {
      "channel": 0,
      "note": 52,
      "start": 7.4651,
      "duration": 0.0502,
      "velocity": 86,
      "chip": "ym2612"
    },
    {
      "channel": 4,
      "note": 33,
      "start": 7.4674,
      "duration": 0.0834,
      "velocity": 123,
      "chip": "ym2612"
    },
    {
      "channel": 5,
      "note": 52,
      "start": 7.5008,
      "duration": 0.0502,
      "velocity": 86,
      "chip": "ym2612"
    },
    {
      "channel": 0,
      "note": 64,
      "start": 7.566,
      "duration": 0.0502,
      "velocity": 86,
      "chip": "ym2612"
    },
    {
      "channel": 4,
      "note": 33,
      "start": 7.5683,
      "duration": 0.0834,
      "velocity": 123,
      "chip": "ym2612"
    },
    {
      "channel": 5,
      "note": 64,
      "start": 7.6018,
      "duration": 0.0502,
      "velocity": 86,
      "chip": "ym2612"
    },
    {
      "channel": 0,
      "note": 88,
      "start": 7.6688,
      "duration": 0.0651,
      "velocity": 99,
      "chip": "ym2612"
    },
    {
      "channel": 1,
      "note": 76,
      "start": 7.6695,
      "duration": 0.0647,
      "velocity": 104,
      "chip": "ym2612"
    },
    {
      "channel": 2,
      "note": 71,
      "start": 7.6702,
      "duration": 0.0643,
      "velocity": 104,
      "chip": "ym2612"
    },
    {
      "channel": 3,
      "note": 52,
      "start": 7.6718,
      "duration": 0.0639,
      "velocity": 93,
      "chip": "ym2612"
    },
    {
      "channel": 4,
      "note": 42,
      "start": 7.6742,
      "duration": 0.0784,
      "velocity": 125,
      "chip": "ym2612"
    },
    {
      "channel": 5,
      "note": 52,
      "start": 7.7027,
      "duration": 0.0502,
      "velocity": 86,
      "chip": "ym2612"
    },
    {
      "channel": 0,
      "note": 87,
      "start": 7.7678,
      "duration": 0.067,
      "velocity": 99,
      "chip": "ym2612"
    },
    {
      "channel": 1,
      "note": 75,
      "start": 7.7684,
      "duration": 0.0667,
      "velocity": 104,
      "chip": "ym2612"
    },
    {
      "channel": 2,
      "note": 71,
      "start": 7.769,
      "duration": 0.0664,
      "velocity": 104,
      "chip": "ym2612"
    },
    {
      "channel": 3,
      "note": 51,
      "start": 7.7706,
      "duration": 0.066,
      "velocity": 93,
      "chip": "ym2612"
    },
    {
      "channel": 4,
      "note": 33,
      "start": 7.7727,
      "duration": 0.0809,
      "velocity": 119,
      "chip": "ym2612"
    },
    {
      "channel": 5,
      "note": 64,
      "start": 7.8037,
      "duration": 0.0502,
      "velocity": 86,
      "chip": "ym2612"
    },
    {
      "channel": 0,
      "note": 83,
      "start": 7.8687,
      "duration": 0.067,
      "velocity": 99,
      "chip": "ym2612"
    },
    {
      "channel": 1,
      "note": 71,
      "start": 7.8693,
      "duration": 0.0667,
      "velocity": 104,
      "chip": "ym2612"
    },
    {
      "channel": 2,
      "note": 68,
      "start": 7.87,
      "duration": 0.0663,
      "velocity": 104,
      "chip": "ym2612"
    },
    {
      "channel": 3,
      "note": 47,
      "start": 7.8716,
      "duration": 0.066,
      "velocity": 93,
      "chip": "ym2612"
    },
    {
      "channel": 4,
      "note": 42,
      "start": 7.8736,
      "duration": 0.0809,
      "velocity": 125,
      "chip": "ym2612"
    },
    {
      "channel": 5,
      "note": 88,
      "start": 7.9065,
      "duration": 0.067,
      "velocity": 99,
      "chip": "ym2612"
    },
    {
      "channel": 0,
      "note": 85,
      "start": 7.9696,
      "duration": 0.0671,
      "velocity": 99,
      "chip": "ym2612"
    },
    {
      "channel": 1,
      "note": 73,
      "start": 7.9702,
      "duration": 0.0667,
      "velocity": 104,
      "chip": "ym2612"
    },
    {
      "channel": 2,
      "note": 69,
      "start": 7.9709,
      "duration": 0.0663,
      "velocity": 104,
      "chip": "ym2612"
    },
    {
      "channel": 3,
      "note": 49,
      "start": 7.9725,
      "duration": 0.066,
      "velocity": 93,
      "chip": "ym2612"
    },
    {
      "channel": 4,
      "note": 42,
      "start": 7.9731,
      "duration": 0.0823,
      "velocity": 125,
      "chip": "ym2612"
    },
    {
      "channel": 5,
      "note": 87,
      "start": 8.0054,
      "duration": 0.0695,
      "velocity": 99,
      "chip": "ym2612"
    },
    {
      "channel": 4,
      "note": 33,
      "start": 8.0745,
      "duration": 0.0818,
      "velocity": 123,
      "chip": "ym2612"
    },
    {
      "channel": 5,
      "note": 83,
      "start": 8.1064,
      "duration": 0.068,
      "velocity": 99,
      "chip": "ym2612"
    },
    {
      "channel": 4,
      "note": 33,
      "start": 8.174,
      "duration": 0.0833,
      "velocity": 123,
      "chip": "ym2612"
    },
    {
      "channel": 5,
      "note": 85,
      "start": 8.2073,
      "duration": 0.0705,
      "velocity": 99,
      "chip": "ym2612"
    },
    {
      "channel": 0,
      "note": 83,
      "start": 8.2724,
      "duration": 0.067,
      "velocity": 99,
      "chip": "ym2612"
    },
    {
      "channel": 1,
      "note": 71,
      "start": 8.273,
      "duration": 0.0667,
      "velocity": 104,
      "chip": "ym2612"
    },
    {
      "channel": 2,
      "note": 66,
      "start": 8.2737,
      "duration": 0.0663,
      "velocity": 104,
      "chip": "ym2612"
    },
    {
      "channel": 3,
      "note": 47,
      "start": 8.2753,
      "duration": 0.066,
      "velocity": 93,
      "chip": "ym2612"
    },
    {
      "channel": 4,
      "note": 42,
      "start": 8.2774,
      "duration": 0.0808,
      "velocity": 125,
      "chip": "ym2612"
    },
    {
      "channel": 0,
      "note": 81,
      "start": 8.3734,
      "duration": 0.067,
      "velocity": 99,
      "chip": "ym2612"
    },
    {
      "channel": 1,
      "note": 69,
      "start": 8.374,
      "duration": 0.0667,
      "velocity": 104,
      "chip": "ym2612"
    },
    {
      "channel": 2,
      "note": 66,
      "start": 8.3746,
      "duration": 0.0664,
      "velocity": 104,
      "chip": "ym2612"
    },
    {
      "channel": 3,
      "note": 45,
      "start": 8.3761,
      "duration": 0.066,
      "velocity": 93,
      "chip": "ym2612"
    },
    {
      "channel": 4,
      "note": 33,
      "start": 8.3782,
      "duration": 0.0809,
      "velocity": 119,
      "chip": "ym2612"
    },
    {
      "channel": 0,
      "note": 80,
      "start": 8.4744,
      "duration": 0.0669,
      "velocity": 99,
      "chip": "ym2612"
    },
    {
      "channel": 1,
      "note": 68,
      "start": 8.4751,
      "duration": 0.0665,
      "velocity": 104,
      "chip": "ym2612"
    },
    {
      "channel": 2,
      "note": 63,
      "start": 8.4757,
      "duration": 0.0661,
      "velocity": 104,
      "chip": "ym2612"
    },
    {
      "channel": 3,
      "note": 44,
      "start": 8.4773,
      "duration": 0.0658,
      "velocity": 93,
      "chip": "ym2612"
    },
    {
      "channel": 4,
      "note": 42,
      "start": 8.4794,
      "duration": 0.0806,
      "velocity": 125,
      "chip": "ym2612"
    },
    {
      "channel": 5,
      "note": 83,
      "start": 8.5101,
      "duration": 0.0698,
      "velocity": 99,
      "chip": "ym2612"
    },
    {
      "channel": 0,
      "note": 81,
      "start": 8.5753,
      "duration": 0.067,
      "velocity": 99,
      "chip": "ym2612"
    },
    {
      "channel": 1,
      "note": 69,
      "start": 8.5759,
      "duration": 0.0666,
      "velocity": 104,
      "chip": "ym2612"
    },
    {
      "channel": 2,
      "note": 64,
      "start": 8.5766,
      "duration": 0.0662,
      "velocity": 104,
      "chip": "ym2612"
    },
    {
      "channel": 3,
      "note": 45,
      "start": 8.5789,
      "duration": 0.0651,
      "velocity": 93,
      "chip": "ym2612"
    },
    {
      "channel": 4,
      "note": 42,
      "start": 8.5795,
      "duration": 0.0814,
      "velocity": 125,
      "chip": "ym2612"
    },
    {
      "channel": 5,
      "note": 81,
      "start": 8.611,
      "duration": 0.0695,
      "velocity": 99,
      "chip": "ym2612"
    },
    {
      "channel": 4,
      "note": 33,
      "start": 8.6801,
      "duration": 0.0818,
      "velocity": 123,
      "chip": "ym2612"
    },
    {
      "channel": 5,
      "note": 80,
      "start": 8.712,
      "duration": 0.068,
      "velocity": 99,
      "chip": "ym2612"
    },
    {
      "channel": 4,
      "note": 33,
      "start": 8.7796,
      "duration": 0.0832,
      "velocity": 123,
      "chip": "ym2612"
    },
    {
      "channel": 5,
      "note": 81,
      "start": 8.8129,
      "duration": 0.0706,
      "velocity": 99,
      "chip": "ym2612"
    },
    {
      "channel": 0,
      "note": 76,
      "start": 8.878,
      "duration": 0.0669,
      "velocity": 99,
      "chip": "ym2612"
    },
    {
      "channel": 1,
      "note": 64,
      "start": 8.8787,
      "duration": 0.0666,
      "velocity": 104,
      "chip": "ym2612"
    },
    {
      "channel": 2,
      "note": 59,
      "start": 8.8793,
      "duration": 0.0662,
      "velocity": 104,
      "chip": "ym2612"
    },
    {
      "channel": 3,
      "note": 40,
      "start": 8.881,
      "duration": 0.0658,
      "velocity": 93,
      "chip": "ym2612"
    },
    {
      "channel": 4,
      "note": 42,
      "start": 8.8831,
      "duration": 0.0806,
      "velocity": 125,
      "chip": "ym2612"
    },
    {
      "channel": 0,
      "note": 75,
      "start": 8.9789,
      "duration": 0.067,
      "velocity": 99,
      "chip": "ym2612"
    },
    {
      "channel": 1,
      "note": 63,
      "start": 8.9795,
      "duration": 0.0667,
      "velocity": 104,
      "chip": "ym2612"
    },
    {
      "channel": 2,
      "note": 59,
      "start": 8.9801,
      "duration": 0.0664,
      "velocity": 104,
      "chip": "ym2612"
    },
    {
      "channel": 3,
      "note": 39,
      "start": 8.9817,
      "duration": 0.0661,
      "velocity": 93,
      "chip": "ym2612"
    },
    {
      "channel": 4,
      "note": 33,
      "start": 8.9837,
      "duration": 0.0809,
      "velocity": 119,
      "chip": "ym2612"
    },
    {
      "channel": 0,
      "note": 73,
      "start": 9.0798,
      "duration": 0.067,
      "velocity": 99,
      "chip": "ym2612"
    },
    {
      "channel": 1,
      "note": 61,
      "start": 9.0805,
      "duration": 0.0667,
      "velocity": 104,
      "chip": "ym2612"
    },
    {
      "channel": 2,
      "note": 56,
      "start": 9.0811,
      "duration": 0.0663,
      "velocity": 104,
      "chip": "ym2612"
    },
    {
      "channel": 3,
      "note": 37,
      "start": 9.0827,
      "duration": 0.066,
      "velocity": 93,
      "chip": "ym2612"
    },
    {
      "channel": 4,
      "note": 42,
      "start": 9.0847,
      "duration": 0.081,
      "velocity": 125,
      "chip": "ym2612"
    },
    {
      "channel": 5,
      "note": 76,
      "start": 9.1157,
      "duration": 0.0689,
      "velocity": 99,
      "chip": "ym2612"
    },
    {
      "channel": 0,
      "note": 75,
      "start": 9.1807,
      "duration": 0.067,
      "velocity": 99,
      "chip": "ym2612"
    },
    {
      "channel": 1,
      "note": 63,
      "start": 9.1814,
      "duration": 0.0667,
      "velocity": 104,
      "chip": "ym2612"
    },
    {
      "channel": 2,
      "note": 57,
      "start": 9.1821,
      "duration": 0.0663,
      "velocity": 104,
      "chip": "ym2612"
    },
    {
      "channel": 3,
      "note": 39,
      "start": 9.1836,
      "duration": 0.066,
      "velocity": 93,
      "chip": "ym2612"
    },
    {
      "channel": 4,
      "note": 42,
      "start": 9.1842,
      "duration": 0.0823,
      "velocity": 125,
      "chip": "ym2612"
    },
    {
      "channel": 5,
      "note": 75,
      "start": 9.2166,
      "duration": 0.0695,
      "velocity": 99,
      "chip": "ym2612"
    },
    {
      "channel": 4,
      "note": 33,
      "start": 9.2857,
      "duration": 0.0817,
      "velocity": 123,
      "chip": "ym2612"
    },
    {
      "channel": 5,
      "note": 73,
      "start": 9.3175,
      "duration": 0.068,
      "velocity": 99,
      "chip": "ym2612"
    },
    {
      "channel": 4,
      "note": 33,
      "start": 9.3851,
      "duration": 0.0832,
      "velocity": 123,
      "chip": "ym2612"
    },
    {
      "channel": 5,
      "note": 75,
      "start": 9.4184,
      "duration": 0.0706,
      "velocity": 99,
      "chip": "ym2612"
    },
    {
      "channel": 0,
      "note": 63,
      "start": 9.4836,
      "duration": 1.5808,
      "velocity": 99,
      "chip": "ym2612"
    },
    {
      "channel": 1,
      "note": 51,
      "start": 9.4843,
      "duration": 1.5805,
      "velocity": 104,
      "chip": "ym2612"
    },
    {
      "channel": 2,
      "note": 47,
      "start": 9.4849,
      "duration": 1.5801,
      "velocity": 104,
      "chip": "ym2612"
    },
    {
      "channel": 3,
      "note": 27,
      "start": 9.4865,
      "duration": 1.5797,
      "velocity": 93,
      "chip": "ym2612"
    },
    {
      "channel": 4,
      "note": 44,
      "start": 9.4887,
      "duration": 1.5945,
      "velocity": 127,
      "chip": "ym2612"
    },
    {
      "channel": 5,
      "note": 63,
      "start": 9.7212,
      "duration": 1.5829,
      "velocity": 99,
      "chip": "ym2612"
    },
    {
      "channel": 0,
      "note": 63,
      "start": 11.0983,
      "duration": 0.0671,
      "velocity": 99,
      "chip": "ym2612"
    },
    {
      "channel": 1,
      "note": 51,
      "start": 11.0989,
      "duration": 0.0667,
      "velocity": 104,
      "chip": "ym2612"
    },
    {
      "channel": 3,
      "note": 27,
      "start": 11.1011,
      "duration": 0.0661,
      "velocity": 93,
      "chip": "ym2612"
    },
    {
      "channel": 4,
      "note": 33,
      "start": 11.1031,
      "duration": 0.081,
      "velocity": 119,
      "chip": "ym2612"
    },
    {
      "channel": 0,
      "note": 68,
      "start": 11.1993,
      "duration": 0.067,
      "velocity": 99,
      "chip": "ym2612"
    },
    {
      "channel": 1,
      "note": 56,
      "start": 11.1999,
      "duration": 0.0667,
      "velocity": 104,
      "chip": "ym2612"
    },
    {
      "channel": 2,
      "note": 51,
      "start": 11.2005,
      "duration": 0.0664,
      "velocity": 104,
      "chip": "ym2612"
    },
    {
      "channel": 3,
      "note": 32,
      "start": 11.202,
      "duration": 0.0661,
      "velocity": 93,
      "chip": "ym2612"
    },
    {
      "channel": 4,
      "note": 33,
      "start": 11.2027,
      "duration": 0.0824,
      "velocity": 119,
      "chip": "ym2612"
    },
    {
      "channel": 0,
      "note": 71,
      "start": 11.3002,
      "duration": 0.067,
      "velocity": 99,
      "chip": "ym2612"
    },
    {
      "channel": 1,
      "note": 59,
      "start": 11.3009,
      "duration": 0.0666,
      "velocity": 104,
      "chip": "ym2612"
    },
    {
      "channel": 2,
      "note": 56,
      "start": 11.3015,
      "duration": 0.0663,
      "velocity": 104,
      "chip": "ym2612"
    },
    {
      "channel": 3,
      "note": 35,
      "start": 11.3032,
      "duration": 0.0659,
      "velocity": 93,
      "chip": "ym2612"
    },
    {
      "channel": 4,
      "note": 33,
      "start": 11.3038,
      "duration": 0.0822,
      "velocity": 119,
      "chip": "ym2612"
    },
    {
      "channel": 5,
      "note": 63,
      "start": 11.336,
      "duration": 0.0704,
      "velocity": 99,
      "chip": "ym2612"
    },
    {
      "channel": 0,
      "note": 75,
      "start": 11.4011,
      "duration": 0.067,
      "velocity": 99,
      "chip": "ym2612"
    },
    {
      "channel": 1,
      "note": 63,
      "start": 11.4017,
      "duration": 0.0667,
      "velocity": 104,
      "chip": "ym2612"
    },
    {
      "channel": 2,
      "note": 59,
      "start": 11.4024,
      "duration": 0.0663,
      "velocity": 104,
      "chip": "ym2612"
    },
    {
      "channel": 3,
      "note": 39,
      "start": 11.4039,
      "duration": 0.066,
      "velocity": 93,
      "chip": "ym2612"
    },
    {
      "channel": 4,
      "note": 42,
      "start": 11.406,
      "duration": 0.0809,
      "velocity": 125,
      "chip": "ym2612"
    },
    {
      "channel": 5,
      "note": 68,
      "start": 11.4369,
      "duration": 0.0689,
      "velocity": 99,
      "chip": "ym2612"
    },
    {
      "channel": 0,
      "note": 71,
      "start": 11.502,
      "duration": 0.067,
      "velocity": 99,
      "chip": "ym2612"
    },
    {
      "channel": 1,
      "note": 59,
      "start": 11.5027,
      "duration": 0.0667,
      "velocity": 104,
      "chip": "ym2612"
    },
    {
      "channel": 2,
      "note": 63,
      "start": 11.5033,
      "duration": 0.0664,
      "velocity": 104,
      "chip": "ym2612"
    },
    {
      "channel": 3,
      "note": 35,
      "start": 11.5048,
      "duration": 0.0661,
      "velocity": 93,
      "chip": "ym2612"
    },
    {
      "channel": 4,
      "note": 42,
      "start": 11.5054,
      "duration": 0.0824,
      "velocity": 125,
      "chip": "ym2612"
    },
    {
      "channel": 5,
      "note": 71,
      "start": 11.5379,
      "duration": 0.0688,
      "velocity": 99,
      "chip": "ym2612"
    },
    {
      "channel": 0,
      "note": 75,
      "start": 11.6029,
      "duration": 0.0671,
      "velocity": 99,
      "chip": "ym2612"
    },
    {
      "channel": 1,
      "note": 63,
      "start": 11.6036,
      "duration": 0.0667,
      "velocity": 104,
      "chip": "ym2612"
    },
    {
      "channel": 2,
      "note": 59,
      "start": 11.6042,
      "duration": 0.0664,
      "velocity": 104,
      "chip": "ym2612"
    },
    {
      "channel": 3,
      "note": 39,
      "start": 11.6057,
      "duration": 0.0661,
      "velocity": 93,
      "chip": "ym2612"
    },
    {
      "channel": 4,
      "note": 42,
      "start": 11.6063,
      "duration": 0.0824,
      "velocity": 125,
      "chip": "ym2612"
    },
    {
      "channel": 5,
      "note": 75,
      "start": 11.6388,
      "duration": 0.0689,
      "velocity": 99,
      "chip": "ym2612"
    },
    {
      "channel": 0,
      "note": 76,
      "start": 11.7039,
      "duration": 0.067,
      "velocity": 99,
      "chip": "ym2612"
    },
    {
      "channel": 1,
      "note": 64,
      "start": 11.7045,
      "duration": 0.0667,
      "velocity": 104,
      "chip": "ym2612"
    },
    {
      "channel": 2,
      "note": 63,
      "start": 11.7051,
      "duration": 0.0664,
      "velocity": 104,
      "chip": "ym2612"
    },
    {
      "channel": 3,
      "note": 40,
      "start": 11.7067,
      "duration": 0.0661,
      "velocity": 93,
      "chip": "ym2612"
    },
    {
      "channel": 4,
      "note": 42,
      "start": 11.7073,
      "duration": 0.0824,
      "velocity": 125,
      "chip": "ym2612"
    },
    {
      "channel": 5,
      "note": 71,
      "start": 11.7397,
      "duration": 0.0689,
      "velocity": 99,
      "chip": "ym2612"
    },
    {
      "channel": 0,
      "note": 78,
      "start": 11.8048,
      "duration": 0.067,
      "velocity": 99,
      "chip": "ym2612"
    },
    {
      "channel": 1,
      "note": 66,
      "start": 11.8054,
      "duration": 0.0667,
      "velocity": 104,
      "chip": "ym2612"
    },
    {
      "channel": 2,
      "note": 64,
      "start": 11.8061,
      "duration": 0.0664,
      "velocity": 104,
      "chip": "ym2612"
    },
    {
      "channel": 3,
      "note": 42,
      "start": 11.8076,
      "duration": 0.0661,
      "velocity": 93,
      "chip": "ym2612"
    },
    {
      "channel": 4,
      "note": 42,
      "start": 11.8082,
      "duration": 0.0824,
      "velocity": 125,
      "chip": "ym2612"
    },
    {
      "channel": 5,
      "note": 75,
      "start": 11.8406,
      "duration": 0.0703,
      "velocity": 99,
      "chip": "ym2612"
    },
    {
      "channel": 0,
      "note": 71,
      "start": 11.9057,
      "duration": 0.067,
      "velocity": 99,
      "chip": "ym2612"
    },
    {
      "channel": 1,
      "note": 59,
      "start": 11.9064,
      "duration": 0.0667,
      "velocity": 104,
      "chip": "ym2612"
    },
    {
      "channel": 2,
      "note": 66,
      "start": 11.907,
      "duration": 0.0664,
      "velocity": 104,
      "chip": "ym2612"
    },
    {
      "channel": 3,
      "note": 35,
      "start": 11.9085,
      "duration": 0.0661,
      "velocity": 93,
      "chip": "ym2612"
    },
    {
      "channel": 4,
      "note": 33,
      "start": 11.9106,
      "duration": 0.0809,
      "velocity": 119,
      "chip": "ym2612"
    },
    {
      "channel": 5,
      "note": 76,
      "start": 11.9415,
      "duration": 0.0703,
      "velocity": 99,
      "chip": "ym2612"
    },
    {
      "channel": 0,
      "note": 75,
      "start": 12.0066,
      "duration": 0.0671,
      "velocity": 99,
      "chip": "ym2612"
    },
    {
      "channel": 1,
      "note": 63,
      "start": 12.0073,
      "duration": 0.0667,
      "velocity": 104,
      "chip": "ym2612"
    },
    {
      "channel": 2,
      "note": 59,
      "start": 12.0079,
      "duration": 0.0664,
      "velocity": 104,
      "chip": "ym2612"
    },
    {
      "channel": 3,
      "note": 39,
      "start": 12.0094,
      "duration": 0.0661,
      "velocity": 93,
      "chip": "ym2612"
    },
    {
      "channel": 4,
      "note": 42,
      "start": 12.0115,
      "duration": 0.0809,
      "velocity": 125,
      "chip": "ym2612"
    },
    {
      "channel": 5,
      "note": 78,
      "start": 12.0424,
      "duration": 0.0689,
      "velocity": 99,
      "chip": "ym2612"
    },
    {
      "channel": 0,
      "note": 78,
      "start": 12.1076,
      "duration": 0.067,
      "velocity": 99,
      "chip": "ym2612"
    },
    {
      "channel": 1,
      "note": 66,
      "start": 12.1082,
      "duration": 0.0667,
      "velocity": 104,
      "chip": "ym2612"
    },
    {
      "channel": 2,
      "note": 63,
      "start": 12.1088,
      "duration": 0.0664,
      "velocity": 104,
      "chip": "ym2612"
    },
    {
      "channel": 3,
      "note": 42,
      "start": 12.1104,
      "duration": 0.0661,
      "velocity": 93,
      "chip": "ym2612"
    },
    {
      "channel": 4,
      "note": 42,
      "start": 12.111,
      "duration": 0.0824,
      "velocity": 125,
      "chip": "ym2612"
    },
    {
      "channel": 5,
      "note": 71,
      "start": 12.1434,
      "duration": 0.0704,
      "velocity": 99,
      "chip": "ym2612"
    },
    {
      "channel": 0,
      "note": 39,
      "start": 12.2088,
      "duration": 0.0668,
      "velocity": 99,
      "chip": "ym2612"
    },
    {
      "channel": 2,
      "note": 66,
      "start": 12.2098,
      "duration": 0.0666,
      "velocity": 104,
      "chip": "ym2612"
    },
    {
      "channel": 3,
      "note": 21,
      "start": 12.2114,
      "duration": 1.5798,
      "velocity": 93,
      "chip": "ym2612"
    },
    {
      "channel": 4,
      "note": 44,
      "start": 12.2135,
      "duration": 1.5947,
      "velocity": 127,
      "chip": "ym2612"
    },
    {
      "channel": 5,
      "note": 75,
      "start": 12.2443,
      "duration": 0.0672,
      "velocity": 99,
      "chip": "ym2612"
    },
    {
      "channel": 0,
      "note": 42,
      "start": 12.2758,
      "duration": 0.0671,
      "velocity": 99,
      "chip": "ym2612"
    },
    {
      "channel": 0,
      "note": 47,
      "start": 12.3431,
      "duration": 0.0671,
      "velocity": 99,
      "chip": "ym2612"
    },
    {
      "channel": 5,
      "note": 78,
      "start": 12.3457,
      "duration": 0.067,
      "velocity": 99,
      "chip": "ym2612"
    },
    {
      "channel": 0,
      "note": 51,
      "start": 12.4104,
      "duration": 0.067,
      "velocity": 99,
      "chip": "ym2612"
    },
    {
      "channel": 5,
      "note": 39,
      "start": 12.4464,
      "duration": 0.0668,
      "velocity": 99,
      "chip": "ym2612"
    },
    {
      "channel": 0,
      "note": 54,
      "start": 12.4776,
      "duration": 0.0671,
      "velocity": 99,
      "chip": "ym2612"
    },
    {
      "channel": 5,
      "note": 42,
      "start": 12.5134,
      "duration": 0.0671,
      "velocity": 99,
      "chip": "ym2612"
    },
    {
      "channel": 0,
      "note": 59,
      "start": 12.545,
      "duration": 0.067,
      "velocity": 99,
      "chip": "ym2612"
    },
    {
      "channel": 5,
      "note": 47,
      "start": 12.5808,
      "duration": 0.0671,
      "velocity": 99,
      "chip": "ym2612"
    },
    {
      "channel": 0,
      "note": 63,
      "start": 12.6122,
      "duration": 0.0671,
      "velocity": 99,
      "chip": "ym2612"
    },
    {
      "channel": 5,
      "note": 51,
      "start": 12.6481,
      "duration": 0.067,
      "velocity": 99,
      "chip": "ym2612"
    },
    {
      "channel": 0,
      "note": 66,
      "start": 12.6795,
      "duration": 0.0671,
      "velocity": 99,
      "chip": "ym2612"
    },
    {
      "channel": 5,
      "note": 54,
      "start": 12.7153,
      "duration": 0.0671,
      "velocity": 99,
      "chip": "ym2612"
    },
    {
      "channel": 0,
      "note": 71,
      "start": 12.7468,
      "duration": 0.0671,
      "velocity": 99,
      "chip": "ym2612"
    },
    {
      "channel": 5,
      "note": 59,
      "start": 12.7827,
      "duration": 0.0671,
      "velocity": 99,
      "chip": "ym2612"
    },
    {
      "channel": 0,
      "note": 75,
      "start": 12.8141,
      "duration": 0.067,
      "velocity": 99,
      "chip": "ym2612"
    },
    {
      "channel": 5,
      "note": 63,
      "start": 12.8499,
      "duration": 0.067,
      "velocity": 99,
      "chip": "ym2612"
    },
    {
      "channel": 0,
      "note": 78,
      "start": 12.8814,
      "duration": 0.0671,
      "velocity": 99,
      "chip": "ym2612"
    },
    {
      "channel": 5,
      "note": 66,
      "start": 12.9171,
      "duration": 0.0671,
      "velocity": 99,
      "chip": "ym2612"
    },
    {
      "channel": 0,
      "note": 83,
      "start": 12.9487,
      "duration": 0.0671,
      "velocity": 99,
      "chip": "ym2612"
    },
    {
      "channel": 5,
      "note": 71,
      "start": 12.9845,
      "duration": 0.0671,
      "velocity": 99,
      "chip": "ym2612"
    },
    {
      "channel": 0,
      "note": 87,
      "start": 13.0161,
      "duration": 0.0669,
      "velocity": 99,
      "chip": "ym2612"
    },
    {
      "channel": 5,
      "note": 75,
      "start": 13.0518,
      "duration": 0.067,
      "velocity": 99,
      "chip": "ym2612"
    },
    {
      "channel": 0,
      "note": 90,
      "start": 13.0832,
      "duration": 0.0671,
      "velocity": 99,
      "chip": "ym2612"
    },
    {
      "channel": 5,
      "note": 78,
      "start": 13.119,
      "duration": 0.0671,
      "velocity": 99,
      "chip": "ym2612"
    },
    {
      "channel": 0,
      "note": 93,
      "start": 13.1506,
      "duration": 0.067,
      "velocity": 99,
      "chip": "ym2612"
    },
    {
      "channel": 5,
      "note": 83,
      "start": 13.1863,
      "duration": 0.0671,
      "velocity": 99,
      "chip": "ym2612"
    },
    {
      "channel": 0,
      "note": 95,
      "start": 13.2178,
      "duration": 0.0675,
      "velocity": 99,
      "chip": "ym2612"
    },
    {
      "channel": 5,
      "note": 87,
      "start": 13.2537,
      "duration": 0.0669,
      "velocity": 99,
      "chip": "ym2612"
    },
    {
      "channel": 0,
      "note": 87,
      "start": 13.2855,
      "duration": 0.0666,
      "velocity": 99,
      "chip": "ym2612"
    },
    {
      "channel": 5,
      "note": 90,
      "start": 13.3209,
      "duration": 0.0671,
      "velocity": 99,
      "chip": "ym2612"
    },
    {
      "channel": 0,
      "note": 90,
      "start": 13.3523,
      "duration": 0.0671,
      "velocity": 99,
      "chip": "ym2612"
    },
    {
      "channel": 5,
      "note": 93,
      "start": 13.3882,
      "duration": 0.067,
      "velocity": 99,
      "chip": "ym2612"
    },
    {
      "channel": 0,
      "note": 93,
      "start": 13.4197,
      "duration": 0.067,
      "velocity": 99,
      "chip": "ym2612"
    },
    {
      "channel": 5,
      "note": 95,
      "start": 13.4554,
      "duration": 0.0675,
      "velocity": 99,
      "chip": "ym2612"
    },
    {
      "channel": 0,
      "note": 95,
      "start": 13.4869,
      "duration": 0.0675,
      "velocity": 99,
      "chip": "ym2612"
    },
    {
      "channel": 5,
      "note": 87,
      "start": 13.5231,
      "duration": 0.0666,
      "velocity": 99,
      "chip": "ym2612"
    },
    {
      "channel": 0,
      "note": 87,
      "start": 13.5546,
      "duration": 0.0666,
      "velocity": 99,
      "chip": "ym2612"
    },
    {
      "channel": 5,
      "note": 90,
      "start": 13.59,
      "duration": 0.0671,
      "velocity": 99,
      "chip": "ym2612"
    },
    {
      "channel": 0,
      "note": 90,
      "start": 13.6215,
      "duration": 0.0671,
      "velocity": 99,
      "chip": "ym2612"
    },
    {
      "channel": 5,
      "note": 93,
      "start": 13.6573,
      "duration": 0.067,
      "velocity": 99,
      "chip": "ym2612"
    },
    {
      "channel": 0,
      "note": 93,
      "start": 13.6888,
      "duration": 0.067,
      "velocity": 99,
      "chip": "ym2612"
    },
    {
      "channel": 5,
      "note": 95,
      "start": 13.7245,
      "duration": 0.0676,
      "velocity": 99,
      "chip": "ym2612"
    },
    {
      "channel": 0,
      "note": 95,
      "start": 13.756,
      "duration": 0.0693,
      "velocity": 102,
      "chip": "ym2612"
    },
    {
      "channel": 5,
      "note": 87,
      "start": 13.7924,
      "duration": 0.0665,
      "velocity": 99,
      "chip": "ym2612"
    },
    {
      "channel": 0,
      "note": 68,
      "start": 13.8256,
      "duration": 1.5281,
      "velocity": 102,
      "chip": "ym2612"
    },
    {
      "channel": 3,
      "note": 25,
      "start": 13.8301,
      "duration": 1.5761,
      "velocity": 97,
      "chip": "ym2612"
    },
    {
      "channel": 4,
      "note": 33,
      "start": 13.8325,
      "duration": 0.3793,
      "velocity": 119,
      "chip": "ym2612"
    },
    {
      "channel": 5,
      "note": 90,
      "start": 13.8591,
      "duration": 0.0671,
      "velocity": 99,
      "chip": "ym2612"
    },
    {
      "channel": 5,
      "note": 93,
      "start": 13.9265,
      "duration": 0.0671,
      "velocity": 99,
      "chip": "ym2612"
    },
    {
      "channel": 5,
      "note": 95,
      "start": 13.9938,
      "duration": 0.0692,
      "velocity": 102,
      "chip": "ym2612"
    },
    {
      "channel": 5,
      "note": 68,
      "start": 14.0633,
      "duration": 1.5282,
      "velocity": 102,
      "chip": "ym2612"
    },
    {
      "channel": 4,
      "note": 33,
      "start": 14.229,
      "duration": 0.3866,
      "velocity": 119,
      "chip": "ym2612"
    },
    {
      "channel": 4,
      "note": 33,
      "start": 14.6343,
      "duration": 0.3852,
      "velocity": 123,
      "chip": "ym2612"
    },
    {
      "channel": 0,
      "note": 66,
      "start": 15.4381,
      "duration": 0.7231,
      "velocity": 102,
      "chip": "ym2612"
    },
    {
      "channel": 3,
      "note": 27,
      "start": 15.4407,
      "duration": 0.7727,
      "velocity": 97,
      "chip": "ym2612"
    },
    {
      "channel": 4,
      "note": 33,
      "start": 15.4428,
      "duration": 0.3839,
      "velocity": 119,
      "chip": "ym2612"
    },
    {
      "channel": 5,
      "note": 66,
      "start": 15.6758,
      "duration": 0.7231,
      "velocity": 102,
      "chip": "ym2612"
    },
    {
      "channel": 4,
      "note": 33,
      "start": 15.8438,
      "duration": 0.3866,
      "velocity": 119,
      "chip": "ym2612"
    },
    {
      "channel": 0,
      "note": 71,
      "start": 16.2456,
      "duration": 0.723,
      "velocity": 102,
      "chip": "ym2612"
    },
    {
      "channel": 3,
      "note": 28,
      "start": 16.2477,
      "duration": 0.3693,
      "velocity": 97,
      "chip": "ym2612"
    },
    {
      "channel": 4,
      "note": 33,
      "start": 16.2498,
      "duration": 0.3843,
      "velocity": 123,
      "chip": "ym2612"
    },
    {
      "channel": 5,
      "note": 71,
      "start": 16.4833,
      "duration": 0.723,
      "velocity": 102,
      "chip": "ym2612"
    },
    {
      "channel": 3,
      "note": 30,
      "start": 16.6509,
      "duration": 0.3699,
      "velocity": 97,
      "chip": "ym2612"
    },
    {
      "channel": 0,
      "note": 68,
      "start": 17.053,
      "duration": 3.1453,
      "velocity": 102,
      "chip": "ym2612"
    },
    {
      "channel": 3,
      "note": 32,
      "start": 17.0555,
      "duration": 1.5802,
      "velocity": 97,
      "chip": "ym2612"
    },
    {
      "channel": 4,
      "note": 33,
      "start": 17.0577,
      "duration": 0.3838,
      "velocity": 119,
      "chip": "ym2612"
    },
    {
      "channel": 5,
      "note": 68,
      "start": 17.2907,
      "duration": 3.1452,
      "velocity": 102,
      "chip": "ym2612"
    },
    {
      "channel": 4,
      "note": 33,
      "start": 17.4586,
      "duration": 0.3866,
      "velocity": 119,
      "chip": "ym2612"
    },
    {
      "channel": 4,
      "note": 33,
      "start": 17.8639,
      "duration": 0.3852,
      "velocity": 123,
      "chip": "ym2612"
    },
    {
      "channel": 3,
      "note": 35,
      "start": 18.6701,
      "duration": 0.773,
      "velocity": 97,
      "chip": "ym2612"
    },
    {
      "channel": 4,
      "note": 33,
      "start": 18.6722,
      "duration": 0.3842,
      "velocity": 119,
      "chip": "ym2612"
    },
    {
      "channel": 4,
      "note": 33,
      "start": 19.0735,
      "duration": 0.3866,
      "velocity": 119,
      "chip": "ym2612"
    },
    {
      "channel": 3,
      "note": 33,
      "start": 19.477,
      "duration": 0.3698,
      "velocity": 97,
      "chip": "ym2612"
    },
    {
      "channel": 4,
      "note": 33,
      "start": 19.479,
      "duration": 0.3848,
      "velocity": 123,
      "chip": "ym2612"
    },
    {
      "channel": 3,
      "note": 30,
      "start": 19.8807,
      "duration": 0.3698,
      "velocity": 97,
      "chip": "ym2612"
    },
    {
      "channel": 0,
      "note": 68,
      "start": 20.2825,
      "duration": 1.5305,
      "velocity": 102,
      "chip": "ym2612"
    },
    {
      "channel": 3,
      "note": 25,
      "start": 20.2851,
      "duration": 1.1765,
      "velocity": 97,
      "chip": "ym2612"
    },
    {
      "channel": 4,
      "note": 33,
      "start": 20.2873,
      "duration": 0.3838,
      "velocity": 119,
      "chip": "ym2612"
    },
    {
      "channel": 5,
      "note": 68,
      "start": 20.5202,
      "duration": 1.5304,
      "velocity": 102,
      "chip": "ym2612"
    },
    {
      "channel": 4,
      "note": 33,
      "start": 20.6882,
      "duration": 0.3866,
      "velocity": 119,
      "chip": "ym2612"
    },
    {
      "channel": 4,
      "note": 33,
      "start": 21.0935,
      "duration": 0.3852,
      "velocity": 123,
      "chip": "ym2612"
    },
    {
      "channel": 3,
      "note": 25,
      "start": 21.4955,
      "duration": 0.1007,
      "velocity": 97,
      "chip": "ym2612"
    },
    {
      "channel": 3,
      "note": 23,
      "start": 21.6301,
      "duration": 0.1007,
      "velocity": 97,
      "chip": "ym2612"
    },
    {
      "channel": 3,
      "note": 25,
      "start": 21.7646,
      "duration": 0.1008,
      "velocity": 97,
      "chip": "ym2612"
    },
    {
      "channel": 0,
      "note": 66,
      "start": 21.8974,
      "duration": 0.723,
      "velocity": 102,
      "chip": "ym2612"
    },
    {
      "channel": 3,
      "note": 27,
      "start": 21.8999,
      "duration": 0.7727,
      "velocity": 97,
      "chip": "ym2612"
    },
    {
      "channel": 4,
      "note": 33,
      "start": 21.902,
      "duration": 0.3839,
      "velocity": 119,
      "chip": "ym2612"
    },
    {
      "channel": 5,
      "note": 66,
      "start": 22.135,
      "duration": 0.7231,
      "velocity": 102,
      "chip": "ym2612"
    },
    {
      "channel": 4,
      "note": 33,
      "start": 22.303,
      "duration": 0.3866,
      "velocity": 119,
      "chip": "ym2612"
    },
    {
      "channel": 0,
      "note": 69,
      "start": 22.7048,
      "duration": 0.3193,
      "velocity": 102,
      "chip": "ym2612"
    },
    {
      "channel": 3,
      "note": 23,
      "start": 22.7069,
      "duration": 0.7731,
      "velocity": 97,
      "chip": "ym2612"
    },
    {
      "channel": 4,
      "note": 33,
      "start": 22.709,
      "duration": 0.3843,
      "velocity": 123,
      "chip": "ym2612"
    },
    {
      "channel": 5,
      "note": 69,
      "start": 22.9425,
      "duration": 0.3193,
      "velocity": 102,
      "chip": "ym2612"
    },
    {
      "channel": 0,
      "note": 71,
      "start": 23.1085,
      "duration": 0.3194,
      "velocity": 102,
      "chip": "ym2612"
    },
    {
      "channel": 5,
      "note": 71,
      "start": 23.3461,
      "duration": 0.3193,
      "velocity": 102,
      "chip": "ym2612"
    },
    {
      "channel": 0,
      "note": 68,
      "start": 23.5122,
      "duration": 3.1452,
      "velocity": 102,
      "chip": "ym2612"
    },
    {
      "channel": 3,
      "note": 32,
      "start": 23.5148,
      "duration": 1.1764,
      "velocity": 97,
      "chip": "ym2612"
    },
    {
      "channel": 4,
      "note": 33,
      "start": 23.5169,
      "duration": 0.3838,
      "velocity": 119,
      "chip": "ym2612"
    },
    {
      "channel": 5,
      "note": 68,
      "start": 23.7499,
      "duration": 3.1452,
      "velocity": 102,
      "chip": "ym2612"
    },
    {
      "channel": 4,
      "note": 33,
      "start": 23.9178,
      "duration": 0.3866,
      "velocity": 119,
      "chip": "ym2612"
    },
    {
      "channel": 4,
      "note": 33,
      "start": 24.3231,
      "duration": 0.3852,
      "velocity": 123,
      "chip": "ym2612"
    },
    {
      "channel": 3,
      "note": 32,
      "start": 24.7251,
      "duration": 0.3699,
      "velocity": 97,
      "chip": "ym2612"
    },
    {
      "channel": 3,
      "note": 32,
      "start": 25.1293,
      "duration": 0.7731,
      "velocity": 97,
      "chip": "ym2612"
    },
    {
      "channel": 4,
      "note": 33,
      "start": 25.1314,
      "duration": 0.3843,
      "velocity": 119,
      "chip": "ym2612"
    },
    {
      "channel": 4,
      "note": 33,
      "start": 25.5328,
      "duration": 0.3866,
      "velocity": 119,
      "chip": "ym2612"
    },
    {
      "channel": 3,
      "note": 30,
      "start": 25.9362,
      "duration": 0.3698,
      "velocity": 97,
      "chip": "ym2612"
    },
    {
      "channel": 4,
      "note": 33,
      "start": 25.9383,
      "duration": 0.3848,
      "velocity": 123,
      "chip": "ym2612"
    },
    {
      "channel": 3,
      "note": 27,
      "start": 26.3399,
      "duration": 0.3699,
      "velocity": 97,
      "chip": "ym2612"
    },
    {
      "channel": 0,
      "note": 73,
      "start": 26.7419,
      "duration": 1.5304,
      "velocity": 102,
      "chip": "ym2612"
    },
    {
      "channel": 3,
      "note": 30,
      "start": 26.7444,
      "duration": 1.1764,
      "velocity": 97,
      "chip": "ym2612"
    },
    {
      "channel": 4,
      "note": 33,
      "start": 26.7466,
      "duration": 0.3837,
      "velocity": 119,
      "chip": "ym2612"
    },
    {
      "channel": 5,
      "note": 73,
      "start": 26.9795,
      "duration": 1.5304,
      "velocity": 102,
      "chip": "ym2612"
    },
    {
      "channel": 4,
      "note": 33,
      "start": 27.1474,
      "duration": 0.3866,
      "velocity": 119,
      "chip": "ym2612"
    },
    {
      "channel": 4,
      "note": 44,
      "start": 27.5527,
      "duration": 0.3852,
      "velocity": 125,
      "chip": "ym2612"
    },
    {
      "channel": 3,
      "note": 30,
      "start": 27.9547,
      "duration": 0.3699,
      "velocity": 97,
      "chip": "ym2612"
    },
    {
      "channel": 4,
      "note": 33,
      "start": 27.9568,
      "duration": 0.3848,
      "velocity": 123,
      "chip": "ym2612"
    },
    {
      "channel": 0,
      "note": 76,
      "start": 28.3566,
      "duration": 0.7231,
      "velocity": 102,
      "chip": "ym2612"
    },
    {
      "channel": 3,
      "note": 33,
      "start": 28.3592,
      "duration": 0.7726,
      "velocity": 97,
      "chip": "ym2612"
    },
    {
      "channel": 4,
      "note": 33,
      "start": 28.3613,
      "duration": 0.3838,
      "velocity": 119,
      "chip": "ym2612"
    },
    {
      "channel": 5,
      "note": 76,
      "start": 28.5943,
      "duration": 0.723,
      "velocity": 102,
      "chip": "ym2612"
    },
    {
      "channel": 4,
      "note": 33,
      "start": 28.7622,
      "duration": 0.3866,
      "velocity": 119,
      "chip": "ym2612"
    },
    {
      "channel": 0,
      "note": 75,
      "start": 29.1641,
      "duration": 0.3192,
      "velocity": 102,
      "chip": "ym2612"
    },
    {
      "channel": 3,
      "note": 34,
      "start": 29.1662,
      "duration": 0.7731,
      "velocity": 97,
      "chip": "ym2612"
    },
    {
      "channel": 4,
      "note": 44,
      "start": 29.1683,
      "duration": 0.3843,
      "velocity": 125,
      "chip": "ym2612"
    },
    {
      "channel": 5,
      "note": 75,
      "start": 29.4017,
      "duration": 0.3193,
      "velocity": 102,
      "chip": "ym2612"
    },
    {
      "channel": 0,
      "note": 71,
      "start": 29.5677,
      "duration": 0.3193,
      "velocity": 102,
      "chip": "ym2612"
    },
    {
      "channel": 4,
      "note": 33,
      "start": 29.5715,
      "duration": 0.3847,
      "velocity": 123,
      "chip": "ym2612"
    },
    {
      "channel": 5,
      "note": 71,
      "start": 29.8054,
      "duration": 0.3193,
      "velocity": 102,
      "chip": "ym2612"
    },
    {
      "channel": 0,
      "note": 68,
      "start": 29.9715,
      "duration": 3.1452,
      "velocity": 102,
      "chip": "ym2612"
    },
    {
      "channel": 3,
      "note": 28,
      "start": 29.9741,
      "duration": 1.5802,
      "velocity": 97,
      "chip": "ym2612"
    },
    {
      "channel": 4,
      "note": 33,
      "start": 29.9762,
      "duration": 0.3838,
      "velocity": 119,
      "chip": "ym2612"
    },
    {
      "channel": 5,
      "note": 68,
      "start": 30.2091,
      "duration": 3.1452,
      "velocity": 102,
      "chip": "ym2612"
    },
    {
      "channel": 4,
      "note": 33,
      "start": 30.377,
      "duration": 0.3866,
      "velocity": 119,
      "chip": "ym2612"
    },
    {
      "channel": 4,
      "note": 44,
      "start": 30.7823,
      "duration": 0.3852,
      "velocity": 125,
      "chip": "ym2612"
    },
    {
      "channel": 4,
      "note": 33,
      "start": 31.186,
      "duration": 0.3852,
      "velocity": 123,
      "chip": "ym2612"
    },
    {
      "channel": 3,
      "note": 30,
      "start": 31.5885,
      "duration": 0.7731,
      "velocity": 97,
      "chip": "ym2612"
    },
    {
      "channel": 4,
      "note": 33,
      "start": 31.5906,
      "duration": 0.3843,
      "velocity": 119,
      "chip": "ym2612"
    },
    {
      "channel": 4,
      "note": 33,
      "start": 31.992,
      "duration": 0.3866,
      "velocity": 119,
      "chip": "ym2612"
    },
    {
      "channel": 3,
      "note": 32,
      "start": 32.3955,
      "duration": 0.7736,
      "velocity": 97,
      "chip": "ym2612"
    },
    {
      "channel": 4,
      "note": 44,
      "start": 32.3975,
      "duration": 0.3848,
      "velocity": 125,
      "chip": "ym2612"
    },
    {
      "channel": 4,
      "note": 33,
      "start": 32.8009,
      "duration": 0.3852,
      "velocity": 123,
      "chip": "ym2612"
    },
    {
      "channel": 0,
      "note": 73,
      "start": 33.2011,
      "duration": 1.5304,
      "velocity": 102,
      "chip": "ym2612"
    },
    {
      "channel": 3,
      "note": 33,
      "start": 33.2037,
      "duration": 1.1764,
      "velocity": 97,
      "chip": "ym2612"
    },
    {
      "channel": 4,
      "note": 33,
      "start": 33.206,
      "duration": 0.3835,
      "velocity": 119,
      "chip": "ym2612"
    },
    {
      "channel": 5,
      "note": 73,
      "start": 33.4388,
      "duration": 1.5304,
      "velocity": 102,
      "chip": "ym2612"
    },
    {
      "channel": 4,
      "note": 33,
      "start": 33.6066,
      "duration": 0.3866,
      "velocity": 119,
      "chip": "ym2612"
    },
    {
      "channel": 4,
      "note": 44,
      "start": 34.012,
      "duration": 0.3852,
      "velocity": 125,
      "chip": "ym2612"
    },
    {
      "channel": 3,
      "note": 30,
      "start": 34.414,
      "duration": 0.1679,
      "velocity": 97,
      "chip": "ym2612"
    },
    {
      "channel": 4,
      "note": 33,
      "start": 34.4161,
      "duration": 0.3848,
      "velocity": 123,
      "chip": "ym2612"
    },
    {
      "channel": 3,
      "note": 32,
      "start": 34.6158,
      "duration": 0.168,
      "velocity": 97,
      "chip": "ym2612"
    },
    {
      "channel": 0,
      "note": 76,
      "start": 34.8158,
      "duration": 0.723,
      "velocity": 102,
      "chip": "ym2612"
    },
    {
      "channel": 3,
      "note": 40,
      "start": 34.8184,
      "duration": 0.7726,
      "velocity": 97,
      "chip": "ym2612"
    },
    {
      "channel": 4,
      "note": 33,
      "start": 34.8206,
      "duration": 0.3838,
      "velocity": 119,
      "chip": "ym2612"
    },
    {
      "channel": 5,
      "note": 76,
      "start": 35.0535,
      "duration": 0.723,
      "velocity": 102,
      "chip": "ym2612"
    },
    {
      "channel": 4,
      "note": 33,
      "start": 35.2215,
      "duration": 0.3866,
      "velocity": 119,
      "chip": "ym2612"
    },
    {
      "channel": 0,
      "note": 75,
      "start": 35.6232,
      "duration": 0.3193,
      "velocity": 102,
      "chip": "ym2612"
    },
    {
      "channel": 3,
      "note": 42,
      "start": 35.6253,
      "duration": 0.7732,
      "velocity": 97,
      "chip": "ym2612"
    },
    {
      "channel": 4,
      "note": 44,
      "start": 35.6274,
      "duration": 0.3844,
      "velocity": 125,
      "chip": "ym2612"
    },
    {
      "channel": 5,
      "note": 75,
      "start": 35.8609,
      "duration": 0.3193,
      "velocity": 102,
      "chip": "ym2612"
    },
    {
      "channel": 0,
      "note": 71,
      "start": 36.0269,
      "duration": 0.3193,
      "velocity": 102,
      "chip": "ym2612"
    },
    {
      "channel": 4,
      "note": 33,
      "start": 36.0307,
      "duration": 0.3847,
      "velocity": 123,
      "chip": "ym2612"
    },
    {
      "channel": 5,
      "note": 71,
      "start": 36.2646,
      "duration": 0.3193,
      "velocity": 102,
      "chip": "ym2612"
    },
    {
      "channel": 0,
      "note": 68,
      "start": 36.4307,
      "duration": 1.1267,
      "velocity": 102,
      "chip": "ym2612"
    },
    {
      "channel": 3,
      "note": 40,
      "start": 36.4332,
      "duration": 1.1764,
      "velocity": 97,
      "chip": "ym2612"
    },
    {
      "channel": 4,
      "note": 33,
      "start": 36.4354,
      "duration": 0.3838,
      "velocity": 119,
      "chip": "ym2612"
    },
    {
      "channel": 5,
      "note": 68,
      "start": 36.6684,
      "duration": 1.1267,
      "velocity": 102,
      "chip": "ym2612"
    },
    {
      "channel": 4,
      "note": 33,
      "start": 36.8363,
      "duration": 0.3866,
      "velocity": 119,
      "chip": "ym2612"
    },
    {
      "channel": 4,
      "note": 44,
      "start": 37.2416,
      "duration": 0.3851,
      "velocity": 125,
      "chip": "ym2612"
    },
    {
      "channel": 0,
      "note": 68,
      "start": 37.6417,
      "duration": 0.3193,
      "velocity": 102,
      "chip": "ym2612"
    },
    {
      "channel": 3,
      "note": 28,
      "start": 37.6439,
      "duration": 0.3694,
      "velocity": 97,
      "chip": "ym2612"
    },
    {
      "channel": 4,
      "note": 33,
      "start": 37.646,
      "duration": 0.3843,
      "velocity": 123,
      "chip": "ym2612"
    },
    {
      "channel": 5,
      "note": 68,
      "start": 37.8793,
      "duration": 0.3194,
      "velocity": 102,
      "chip": "ym2612"
    },
    {
      "channel": 0,
      "note": 72,
      "start": 38.0455,
      "duration": 1.5304,
      "velocity": 102,
      "chip": "ym2612"
    },
    {
      "channel": 3,
      "note": 32,
      "start": 38.048,
      "duration": 0.3689,
      "velocity": 97,
      "chip": "ym2612"
    },
    {
      "channel": 4,
      "note": 33,
      "start": 38.0502,
      "duration": 0.3838,
      "velocity": 119,
      "chip": "ym2612"
    },
    {
      "channel": 5,
      "note": 72,
      "start": 38.2832,
      "duration": 1.5304,
      "velocity": 102,
      "chip": "ym2612"
    },
    {
      "channel": 3,
      "note": 24,
      "start": 38.4508,
      "duration": 0.3698,
      "velocity": 97,
      "chip": "ym2612"
    },
    {
      "channel": 4,
      "note": 33,
      "start": 38.4514,
      "duration": 0.3863,
      "velocity": 119,
      "chip": "ym2612"
    },
    {
      "channel": 3,
      "note": 25,
      "start": 38.8547,
      "duration": 0.3698,
      "velocity": 97,
      "chip": "ym2612"
    },
    {
      "channel": 4,
      "note": 44,
      "start": 38.8567,
      "duration": 0.3848,
      "velocity": 125,
      "chip": "ym2612"
    },
    {
      "channel": 3,
      "note": 27,
      "start": 39.2583,
      "duration": 0.3699,
      "velocity": 97,
      "chip": "ym2612"
    },
    {
      "channel": 4,
      "note": 33,
      "start": 39.2605,
      "duration": 0.1157,
      "velocity": 119,
      "chip": "ym2612"
    },
    {
      "channel": 4,
      "note": 44,
      "start": 39.3947,
      "duration": 0.116,
      "velocity": 125,
      "chip": "ym2612"
    },
    {
      "channel": 4,
      "note": 44,
      "start": 39.5278,
      "duration": 0.1175,
      "velocity": 125,
      "chip": "ym2612"
    },
    {
      "channel": 0,
      "note": 68,
      "start": 39.6603,
      "duration": 1.5304,
      "velocity": 102,
      "chip": "ym2612"
    },
    {
      "channel": 3,
      "note": 37,
      "start": 39.6681,
      "duration": 0.1282,
      "velocity": 93,
      "chip": "ym2612"
    },
    {
      "channel": 4,
      "note": 33,
      "start": 39.6704,
      "duration": 0.3784,
      "velocity": 119,
      "chip": "ym2612"
    },
    {
      "channel": 5,
      "note": 68,
      "start": 39.898,
      "duration": 1.5304,
      "velocity": 102,
      "chip": "ym2612"
    },
    {
      "channel": 1,
      "note": 56,
      "start": 40.0642,
      "duration": 0.3698,
      "velocity": 86,
      "chip": "ym2612"
    },
    {
      "channel": 2,
      "note": 52,
      "start": 40.0648,
      "duration": 0.3695,
      "velocity": 86,
      "chip": "ym2612"
    },
    {
      "channel": 4,
      "note": 33,
      "start": 40.0668,
      "duration": 0.3857,
      "velocity": 119,
      "chip": "ym2612"
    },
    {
      "channel": 3,
      "note": 32,
      "start": 40.2003,
      "duration": 0.1343,
      "velocity": 93,
      "chip": "ym2612"
    },
    {
      "channel": 3,
      "note": 37,
      "start": 40.3348,
      "duration": 0.1352,
      "velocity": 93,
      "chip": "ym2612"
    },
    {
      "channel": 1,
      "note": 61,
      "start": 40.4681,
      "duration": 0.3698,
      "velocity": 86,
      "chip": "ym2612"
    },
    {
      "channel": 2,
      "note": 56,
      "start": 40.4687,
      "duration": 0.3694,
      "velocity": 86,
      "chip": "ym2612"
    },
    {
      "channel": 3,
      "note": 37,
      "start": 40.4703,
      "duration": 0.1336,
      "velocity": 93,
      "chip": "ym2612"
    },
    {
      "channel": 4,
      "note": 44,
      "start": 40.4724,
      "duration": 0.384,
      "velocity": 125,
      "chip": "ym2612"
    },
    {
      "channel": 1,
      "note": 68,
      "start": 40.8718,
      "duration": 0.3698,
      "velocity": 86,
      "chip": "ym2612"
    },
    {
      "channel": 2,
      "note": 61,
      "start": 40.8725,
      "duration": 0.3694,
      "velocity": 86,
      "chip": "ym2612"
    },
    {
      "channel": 4,
      "note": 33,
      "start": 40.8759,
      "duration": 0.3842,
      "velocity": 123,
      "chip": "ym2612"
    },
    {
      "channel": 0,
      "note": 66,
      "start": 41.2751,
      "duration": 0.723,
      "velocity": 102,
      "chip": "ym2612"
    },
    {
      "channel": 1,
      "note": 66,
      "start": 41.2757,
      "duration": 0.7731,
      "velocity": 86,
      "chip": "ym2612"
    },
    {
      "channel": 2,
      "note": 63,
      "start": 41.2763,
      "duration": 0.7728,
      "velocity": 86,
      "chip": "ym2612"
    },
    {
      "channel": 4,
      "note": 33,
      "start": 41.2798,
      "duration": 0.3838,
      "velocity": 119,
      "chip": "ym2612"
    },
    {
      "channel": 5,
      "note": 66,
      "start": 41.5127,
      "duration": 0.723,
      "velocity": 102,
      "chip": "ym2612"
    },
    {
      "channel": 3,
      "note": 37,
      "start": 41.6804,
      "duration": 0.1343,
      "velocity": 93,
      "chip": "ym2612"
    },
    {
      "channel": 4,
      "note": 33,
      "start": 41.681,
      "duration": 0.3863,
      "velocity": 119,
      "chip": "ym2612"
    },
    {
      "channel": 3,
      "note": 44,
      "start": 41.815,
      "duration": 0.1343,
      "velocity": 93,
      "chip": "ym2612"
    },
    {
      "channel": 3,
      "note": 42,
      "start": 41.9495,
      "duration": 0.1356,
      "velocity": 93,
      "chip": "ym2612"
    },
    {
      "channel": 0,
      "note": 71,
      "start": 42.0825,
      "duration": 0.723,
      "velocity": 102,
      "chip": "ym2612"
    },
    {
      "channel": 1,
      "note": 63,
      "start": 42.0832,
      "duration": 0.773,
      "velocity": 86,
      "chip": "ym2612"
    },
    {
      "channel": 2,
      "note": 59,
      "start": 42.0838,
      "duration": 0.7727,
      "velocity": 86,
      "chip": "ym2612"
    },
    {
      "channel": 3,
      "note": 40,
      "start": 42.0854,
      "duration": 0.1331,
      "velocity": 93,
      "chip": "ym2612"
    },
    {
      "channel": 4,
      "note": 44,
      "start": 42.0874,
      "duration": 0.3836,
      "velocity": 125,
      "chip": "ym2612"
    },
    {
      "channel": 5,
      "note": 71,
      "start": 42.3202,
      "duration": 0.723,
      "velocity": 102,
      "chip": "ym2612"
    },
    {
      "channel": 3,
      "note": 39,
      "start": 42.4878,
      "duration": 0.1344,
      "velocity": 93,
      "chip": "ym2612"
    },
    {
      "channel": 4,
      "note": 33,
      "start": 42.4899,
      "duration": 0.3848,
      "velocity": 123,
      "chip": "ym2612"
    },
    {
      "channel": 0,
      "note": 68,
      "start": 42.8899,
      "duration": 3.1452,
      "velocity": 102,
      "chip": "ym2612"
    },
    {
      "channel": 1,
      "note": 61,
      "start": 42.8906,
      "duration": 1.1769,
      "velocity": 86,
      "chip": "ym2612"
    },
    {
      "channel": 2,
      "note": 56,
      "start": 42.8913,
      "duration": 1.1765,
      "velocity": 86,
      "chip": "ym2612"
    },
    {
      "channel": 4,
      "note": 33,
      "start": 42.8955,
      "duration": 0.3829,
      "velocity": 119,
      "chip": "ym2612"
    },
    {
      "channel": 5,
      "note": 68,
      "start": 43.1276,
      "duration": 3.1452,
      "velocity": 102,
      "chip": "ym2612"
    },
    {
      "channel": 3,
      "note": 37,
      "start": 43.2952,
      "duration": 0.1344,
      "velocity": 93,
      "chip": "ym2612"
    },
    {
      "channel": 4,
      "note": 33,
      "start": 43.2959,
      "duration": 0.3863,
      "velocity": 119,
      "chip": "ym2612"
    },
    {
      "channel": 3,
      "note": 32,
      "start": 43.4299,
      "duration": 0.1343,
      "velocity": 93,
      "chip": "ym2612"
    },
    {
      "channel": 3,
      "note": 35,
      "start": 43.5644,
      "duration": 0.1344,
      "velocity": 93,
      "chip": "ym2612"
    },
    {
      "channel": 3,
      "note": 37,
      "start": 43.6991,
      "duration": 0.1344,
      "velocity": 93,
      "chip": "ym2612"
    },
    {
      "channel": 4,
      "note": 44,
      "start": 43.7012,
      "duration": 0.3848,
      "velocity": 125,
      "chip": "ym2612"
    },
    {
      "channel": 1,
      "note": 56,
      "start": 44.1015,
      "duration": 0.1006,
      "velocity": 86,
      "chip": "ym2612"
    },
    {
      "channel": 2,
      "note": 52,
      "start": 44.1022,
      "duration": 0.1002,
      "velocity": 86,
      "chip": "ym2612"
    },
    {
      "channel": 4,
      "note": 33,
      "start": 44.1056,
      "duration": 0.3841,
      "velocity": 123,
      "chip": "ym2612"
    },
    {
      "channel": 1,
      "note": 61,
      "start": 44.2361,
      "duration": 0.1007,
      "velocity": 86,
      "chip": "ym2612"
    },
    {
      "channel": 2,
      "note": 56,
      "start": 44.2367,
      "duration": 0.1004,
      "velocity": 86,
      "chip": "ym2612"
    },
    {
      "channel": 1,
      "note": 68,
      "start": 44.3705,
      "duration": 0.1007,
      "velocity": 86,
      "chip": "ym2612"
    },
    {
      "channel": 2,
      "note": 61,
      "start": 44.3712,
      "duration": 0.1003,
      "velocity": 86,
      "chip": "ym2612"
    },
    {
      "channel": 1,
      "note": 63,
      "start": 44.5051,
      "duration": 0.7735,
      "velocity": 86,
      "chip": "ym2612"
    },
    {
      "channel": 2,
      "note": 59,
      "start": 44.5057,
      "duration": 0.7732,
      "velocity": 86,
      "chip": "ym2612"
    },
    {
      "channel": 3,
      "note": 37,
      "start": 44.5072,
      "duration": 0.1336,
      "velocity": 93,
      "chip": "ym2612"
    },
    {
      "channel": 4,
      "note": 33,
      "start": 44.5094,
      "duration": 0.384,
      "velocity": 119,
      "chip": "ym2612"
    },
    {
      "channel": 4,
      "note": 33,
      "start": 44.9105,
      "duration": 0.3866,
      "velocity": 119,
      "chip": "ym2612"
    },
    {
      "channel": 1,
      "note": 59,
      "start": 45.3125,
      "duration": 0.7735,
      "velocity": 86,
      "chip": "ym2612"
    },
    {
      "channel": 2,
      "note": 56,
      "start": 45.3132,
      "duration": 0.7731,
      "velocity": 86,
      "chip": "ym2612"
    },
    {
      "channel": 4,
      "note": 44,
      "start": 45.3164,
      "duration": 0.3844,
      "velocity": 125,
      "chip": "ym2612"
    },
    {
      "channel": 3,
      "note": 37,
      "start": 45.4485,
      "duration": 0.1344,
      "velocity": 93,
      "chip": "ym2612"
    },
    {
      "channel": 3,
      "note": 47,
      "start": 45.5831,
      "duration": 0.1344,
      "velocity": 93,
      "chip": "ym2612"
    },
    {
      "channel": 3,
      "note": 37,
      "start": 45.7178,
      "duration": 0.1342,
      "velocity": 93,
      "chip": "ym2612"
    },
    {
      "channel": 4,
      "note": 33,
      "start": 45.7199,
      "duration": 0.1155,
      "velocity": 119,
      "chip": "ym2612"
    },
    {
      "channel": 3,
      "note": 44,
      "start": 45.8522,
      "duration": 0.1343,
      "velocity": 93,
      "chip": "ym2612"
    },
    {
      "channel": 4,
      "note": 44,
      "start": 45.8543,
      "duration": 0.1156,
      "velocity": 125,
      "chip": "ym2612"
    },
    {
      "channel": 3,
      "note": 42,
      "start": 45.9867,
      "duration": 0.1354,
      "velocity": 93,
      "chip": "ym2612"
    },
    {
      "channel": 4,
      "note": 44,
      "start": 45.9874,
      "duration": 0.1171,
      "velocity": 125,
      "chip": "ym2612"
    },
    {
      "channel": 0,
      "note": 68,
      "start": 46.1195,
      "duration": 1.5305,
      "velocity": 102,
      "chip": "ym2612"
    },
    {
      "channel": 1,
      "note": 61,
      "start": 46.1202,
      "duration": 1.5807,
      "velocity": 86,
      "chip": "ym2612"
    },
    {
      "channel": 2,
      "note": 56,
      "start": 46.1208,
      "duration": 0.369,
      "velocity": 86,
      "chip": "ym2612"
    },
    {
      "channel": 3,
      "note": 37,
      "start": 46.1224,
      "duration": 0.1331,
      "velocity": 93,
      "chip": "ym2612"
    },
    {
      "channel": 4,
      "note": 33,
      "start": 46.1246,
      "duration": 0.3834,
      "velocity": 119,
      "chip": "ym2612"
    },
    {
      "channel": 5,
      "note": 68,
      "start": 46.3571,
      "duration": 1.5304,
      "velocity": 102,
      "chip": "ym2612"
    },
    {
      "channel": 2,
      "note": 56,
      "start": 46.5237,
      "duration": 0.3698,
      "velocity": 86,
      "chip": "ym2612"
    },
    {
      "channel": 4,
      "note": 33,
      "start": 46.5256,
      "duration": 0.3861,
      "velocity": 119,
      "chip": "ym2612"
    },
    {
      "channel": 2,
      "note": 61,
      "start": 46.9276,
      "duration": 0.3698,
      "velocity": 86,
      "chip": "ym2612"
    },
    {
      "channel": 4,
      "note": 44,
      "start": 46.931,
      "duration": 0.3846,
      "velocity": 125,
      "chip": "ym2612"
    },
    {
      "channel": 2,
      "note": 68,
      "start": 47.3312,
      "duration": 0.3699,
      "velocity": 86,
      "chip": "ym2612"
    },
    {
      "channel": 3,
      "note": 37,
      "start": 47.3328,
      "duration": 0.1341,
      "velocity": 93,
      "chip": "ym2612"
    },
    {
      "channel": 4,
      "note": 33,
      "start": 47.3349,
      "duration": 0.3844,
      "velocity": 123,
      "chip": "ym2612"
    },
    {
      "channel": 3,
      "note": 32,
      "start": 47.4671,
      "duration": 0.1343,
      "velocity": 93,
      "chip": "ym2612"
    },
    {
      "channel": 3,
      "note": 37,
      "start": 47.6016,
      "duration": 0.1353,
      "velocity": 93,
      "chip": "ym2612"
    },
    {
      "channel": 0,
      "note": 66,
      "start": 47.7343,
      "duration": 0.7231,
      "velocity": 102,
      "chip": "ym2612"
    },
    {
      "channel": 1,
      "note": 66,
      "start": 47.735,
      "duration": 0.3694,
      "velocity": 86,
      "chip": "ym2612"
    },
    {
      "channel": 2,
      "note": 63,
      "start": 47.7356,
      "duration": 1.5801,
      "velocity": 86,
      "chip": "ym2612"
    },
    {
      "channel": 3,
      "note": 37,
      "start": 47.7372,
      "duration": 0.1331,
      "velocity": 93,
      "chip": "ym2612"
    },
    {
      "channel": 4,
      "note": 33,
      "start": 47.7393,
      "duration": 0.3835,
      "velocity": 119,
      "chip": "ym2612"
    },
    {
      "channel": 5,
      "note": 66,
      "start": 47.972,
      "duration": 0.723,
      "velocity": 102,
      "chip": "ym2612"
    },
    {
      "channel": 1,
      "note": 59,
      "start": 48.1382,
      "duration": 0.3698,
      "velocity": 86,
      "chip": "ym2612"
    },
    {
      "channel": 4,
      "note": 33,
      "start": 48.1404,
      "duration": 0.3861,
      "velocity": 119,
      "chip": "ym2612"
    },
    {
      "channel": 0,
      "note": 69,
      "start": 48.5417,
      "duration": 0.3193,
      "velocity": 102,
      "chip": "ym2612"
    },
    {
      "channel": 1,
      "note": 66,
      "start": 48.5424,
      "duration": 0.3694,
      "velocity": 86,
      "chip": "ym2612"
    },
    {
      "channel": 4,
      "note": 44,
      "start": 48.5461,
      "duration": 0.3842,
      "velocity": 125,
      "chip": "ym2612"
    },
    {
      "channel": 3,
      "note": 37,
      "start": 48.6779,
      "duration": 0.1344,
      "velocity": 93,
      "chip": "ym2612"
    },
    {
      "channel": 5,
      "note": 69,
      "start": 48.7794,
      "duration": 0.3193,
      "velocity": 102,
      "chip": "ym2612"
    },
    {
      "channel": 3,
      "note": 32,
      "start": 48.8126,
      "duration": 0.1352,
      "velocity": 93,
      "chip": "ym2612"
    },
    {
      "channel": 0,
      "note": 71,
      "start": 48.9454,
      "duration": 0.3193,
      "velocity": 102,
      "chip": "ym2612"
    },
    {
      "channel": 1,
      "note": 71,
      "start": 48.9461,
      "duration": 0.3693,
      "velocity": 86,
      "chip": "ym2612"
    },
    {
      "channel": 3,
      "note": 35,
      "start": 48.948,
      "duration": 0.1334,
      "velocity": 93,
      "chip": "ym2612"
    },
    {
      "channel": 4,
      "note": 33,
      "start": 48.95,
      "duration": 0.3839,
      "velocity": 123,
      "chip": "ym2612"
    },
    {
      "channel": 3,
      "note": 37,
      "start": 49.0816,
      "duration": 0.1344,
      "velocity": 93,
      "chip": "ym2612"
    },
    {
      "channel": 5,
      "note": 71,
      "start": 49.183,
      "duration": 0.3194,
      "velocity": 102,
      "chip": "ym2612"
    },
    {
      "channel": 3,
      "note": 39,
      "start": 49.2162,
      "duration": 0.1353,
      "velocity": 93,
      "chip": "ym2612"
    },
    {
      "channel": 0,
      "note": 68,
      "start": 49.3492,
      "duration": 3.1452,
      "velocity": 102,
      "chip": "ym2612"
    },
    {
      "channel": 3,
      "note": 37,
      "start": 49.3518,
      "duration": 0.1333,
      "velocity": 93,
      "chip": "ym2612"
    },
    {
      "channel": 4,
      "note": 33,
      "start": 49.3539,
      "duration": 0.3837,
      "velocity": 119,
      "chip": "ym2612"
    },
    {
      "channel": 5,
      "note": 68,
      "start": 49.5868,
      "duration": 3.1452,
      "velocity": 102,
      "chip": "ym2612"
    },
    {
      "channel": 1,
      "note": 56,
      "start": 49.7531,
      "duration": 0.1007,
      "velocity": 86,
      "chip": "ym2612"
    },
    {
      "channel": 2,
      "note": 52,
      "start": 49.7538,
      "duration": 0.1003,
      "velocity": 86,
      "chip": "ym2612"
    },
    {
      "channel": 4,
      "note": 33,
      "start": 49.7557,
      "duration": 0.3856,
      "velocity": 119,
      "chip": "ym2612"
    },
    {
      "channel": 1,
      "note": 61,
      "start": 49.8877,
      "duration": 0.1006,
      "velocity": 86,
      "chip": "ym2612"
    },
    {
      "channel": 2,
      "note": 56,
      "start": 49.8883,
      "duration": 0.1003,
      "velocity": 86,
      "chip": "ym2612"
    },
    {
      "channel": 1,
      "note": 68,
      "start": 50.0222,
      "duration": 0.1007,
      "velocity": 86,
      "chip": "ym2612"
    },
    {
      "channel": 2,
      "note": 61,
      "start": 50.0229,
      "duration": 0.1003,
      "velocity": 86,
      "chip": "ym2612"
    },
    {
      "channel": 1,
      "note": 66,
      "start": 50.1569,
      "duration": 0.7735,
      "velocity": 86,
      "chip": "ym2612"
    },
    {
      "channel": 2,
      "note": 61,
      "start": 50.1575,
      "duration": 0.7732,
      "velocity": 86,
      "chip": "ym2612"
    },
    {
      "channel": 4,
      "note": 44,
      "start": 50.1609,
      "duration": 0.3844,
      "velocity": 125,
      "chip": "ym2612"
    },
    {
      "channel": 4,
      "note": 33,
      "start": 50.5639,
      "duration": 0.385,
      "velocity": 123,
      "chip": "ym2612"
    },
    {
      "channel": 3,
      "note": 37,
      "start": 50.6966,
      "duration": 0.1343,
      "velocity": 93,
      "chip": "ym2612"
    },
    {
      "channel": 3,
      "note": 37,
      "start": 50.8312,
      "duration": 0.1351,
      "velocity": 93,
      "chip": "ym2612"
    },
    {
      "channel": 1,
      "note": 63,
      "start": 50.9643,
      "duration": 0.7735,
      "velocity": 86,
      "chip": "ym2612"
    },
    {
      "channel": 2,
      "note": 59,
      "start": 50.9649,
      "duration": 1.5806,
      "velocity": 86,
      "chip": "ym2612"
    },
    {
      "channel": 3,
      "note": 37,
      "start": 50.9665,
      "duration": 0.1336,
      "velocity": 93,
      "chip": "ym2612"
    },
    {
      "channel": 4,
      "note": 33,
      "start": 50.9686,
      "duration": 0.384,
      "velocity": 119,
      "chip": "ym2612"
    },
    {
      "channel": 4,
      "note": 33,
      "start": 51.3698,
      "duration": 0.3865,
      "velocity": 119,
      "chip": "ym2612"
    },
    {
      "channel": 1,
      "note": 68,
      "start": 51.7717,
      "duration": 0.7735,
      "velocity": 86,
      "chip": "ym2612"
    },
    {
      "channel": 4,
      "note": 44,
      "start": 51.7754,
      "duration": 0.3846,
      "velocity": 125,
      "chip": "ym2612"
    },
    {
      "channel": 3,
      "note": 40,
      "start": 51.9077,
      "duration": 0.1343,
      "velocity": 93,
      "chip": "ym2612"
    },
    {
      "channel": 3,
      "note": 39,
      "start": 52.0423,
      "duration": 0.1343,
      "velocity": 93,
      "chip": "ym2612"
    },
    {
      "channel": 3,
      "note": 37,
      "start": 52.1768,
      "duration": 0.1344,
      "velocity": 93,
      "chip": "ym2612"
    },
    {
      "channel": 4,
      "note": 33,
      "start": 52.179,
      "duration": 0.1156,
      "velocity": 119,
      "chip": "ym2612"
    },
    {
      "channel": 3,
      "note": 35,
      "start": 52.3115,
      "duration": 0.1344,
      "velocity": 93,
      "chip": "ym2612"
    },
    {
      "channel": 4,
      "note": 44,
      "start": 52.3135,
      "duration": 0.1156,
      "velocity": 125,
      "chip": "ym2612"
    },
    {
      "channel": 3,
      "note": 32,
      "start": 52.446,
      "duration": 0.1377,
      "velocity": 93,
      "chip": "ym2612"
    },
    {
      "channel": 4,
      "note": 44,
      "start": 52.4466,
      "duration": 0.1171,
      "velocity": 125,
      "chip": "ym2612"
    },
    {
      "channel": 0,
      "note": 73,
      "start": 52.5788,
      "duration": 1.5304,
      "velocity": 102,
      "chip": "ym2612"
    },
    {
      "channel": 1,
      "note": 69,
      "start": 52.5812,
      "duration": 1.5284,
      "velocity": 102,
      "chip": "ym2612"
    },
    {
      "channel": 2,
      "note": 68,
      "start": 52.5822,
      "duration": 0.0305,
      "velocity": 86,
      "chip": "ym2612"
    },
    {
      "channel": 3,
      "note": 42,
      "start": 52.5839,
      "duration": 0.4004,
      "velocity": 93,
      "chip": "ym2612"
    },
    {
      "channel": 4,
      "note": 33,
      "start": 52.5862,
      "duration": 0.1119,
      "velocity": 119,
      "chip": "ym2612"
    },
    {
      "channel": 2,
      "note": 68,
      "start": 52.7138,
      "duration": 0.0334,
      "velocity": 86,
      "chip": "ym2612"
    },
    {
      "channel": 4,
      "note": 33,
      "start": 52.717,
      "duration": 0.1157,
      "velocity": 123,
      "chip": "ym2612"
    },
    {
      "channel": 5,
      "note": 73,
      "start": 52.8164,
      "duration": 1.5304,
      "velocity": 102,
      "chip": "ym2612"
    },
    {
      "channel": 2,
      "note": 73,
      "start": 52.8484,
      "duration": 0.0333,
      "velocity": 86,
      "chip": "ym2612"
    },
    {
      "channel": 4,
      "note": 33,
      "start": 52.8502,
      "duration": 0.1171,
      "velocity": 123,
      "chip": "ym2612"
    },
    {
      "channel": 2,
      "note": 68,
      "start": 52.983,
      "duration": 0.0332,
      "velocity": 86,
      "chip": "ym2612"
    },
    {
      "channel": 4,
      "note": 44,
      "start": 52.9864,
      "duration": 0.1154,
      "velocity": 125,
      "chip": "ym2612"
    },
    {
      "channel": 2,
      "note": 68,
      "start": 53.1175,
      "duration": 0.0334,
      "velocity": 86,
      "chip": "ym2612"
    },
    {
      "channel": 3,
      "note": 42,
      "start": 53.119,
      "duration": 0.1344,
      "velocity": 93,
      "chip": "ym2612"
    },
    {
      "channel": 4,
      "note": 33,
      "start": 53.1211,
      "duration": 0.1153,
      "velocity": 123,
      "chip": "ym2612"
    },
    {
      "channel": 2,
      "note": 73,
      "start": 53.2521,
      "duration": 0.0333,
      "velocity": 86,
      "chip": "ym2612"
    },
    {
      "channel": 3,
      "note": 42,
      "start": 53.2537,
      "duration": 0.1346,
      "velocity": 93,
      "chip": "ym2612"
    },
    {
      "channel": 4,
      "note": 33,
      "start": 53.2543,
      "duration": 0.1167,
      "velocity": 123,
      "chip": "ym2612"
    },
    {
      "channel": 2,
      "note": 68,
      "start": 53.3869,
      "duration": 0.0333,
      "velocity": 86,
      "chip": "ym2612"
    },
    {
      "channel": 3,
      "note": 42,
      "start": 53.3885,
      "duration": 0.4034,
      "velocity": 93,
      "chip": "ym2612"
    },
    {
      "channel": 4,
      "note": 33,
      "start": 53.3906,
      "duration": 0.1151,
      "velocity": 119,
      "chip": "ym2612"
    },
    {
      "channel": 2,
      "note": 68,
      "start": 53.5214,
      "duration": 0.0334,
      "velocity": 86,
      "chip": "ym2612"
    },
    {
      "channel": 4,
      "note": 33,
      "start": 53.5232,
      "duration": 0.1171,
      "velocity": 119,
      "chip": "ym2612"
    },
    {
      "channel": 2,
      "note": 73,
      "start": 53.656,
      "duration": 0.0333,
      "velocity": 86,
      "chip": "ym2612"
    },
    {
      "channel": 4,
      "note": 33,
      "start": 53.6592,
      "duration": 0.1156,
      "velocity": 123,
      "chip": "ym2612"
    },
    {
      "channel": 2,
      "note": 68,
      "start": 53.7906,
      "duration": 0.0333,
      "velocity": 86,
      "chip": "ym2612"
    },
    {
      "channel": 4,
      "note": 44,
      "start": 53.794,
      "duration": 0.1154,
      "velocity": 125,
      "chip": "ym2612"
    },
    {
      "channel": 2,
      "note": 68,
      "start": 53.9251,
      "duration": 0.0334,
      "velocity": 86,
      "chip": "ym2612"
    },
    {
      "channel": 3,
      "note": 42,
      "start": 53.9266,
      "duration": 0.1344,
      "velocity": 93,
      "chip": "ym2612"
    },
    {
      "channel": 4,
      "note": 33,
      "start": 53.9287,
      "duration": 0.1153,
      "velocity": 123,
      "chip": "ym2612"
    },
    {
      "channel": 2,
      "note": 73,
      "start": 54.0597,
      "duration": 0.0333,
      "velocity": 86,
      "chip": "ym2612"
    },
    {
      "channel": 3,
      "note": 42,
      "start": 54.0612,
      "duration": 0.1353,
      "velocity": 93,
      "chip": "ym2612"
    },
    {
      "channel": 4,
      "note": 33,
      "start": 54.0618,
      "duration": 0.1167,
      "velocity": 123,
      "chip": "ym2612"
    },
    {
      "channel": 0,
      "note": 76,
      "start": 54.1935,
      "duration": 0.7231,
      "velocity": 102,
      "chip": "ym2612"
    },
    {
      "channel": 1,
      "note": 73,
      "start": 54.1942,
      "duration": 0.7227,
      "velocity": 102,
      "chip": "ym2612"
    },
    {
      "channel": 2,
      "note": 69,
      "start": 54.1951,
      "duration": 0.0323,
      "velocity": 86,
      "chip": "ym2612"
    },
    {
      "channel": 3,
      "note": 45,
      "start": 54.1968,
      "duration": 0.8068,
      "velocity": 93,
      "chip": "ym2612"
    },
    {
      "channel": 4,
      "note": 33,
      "start": 54.1989,
      "duration": 0.114,
      "velocity": 119,
      "chip": "ym2612"
    },
    {
      "channel": 2,
      "note": 69,
      "start": 54.3286,
      "duration": 0.0334,
      "velocity": 86,
      "chip": "ym2612"
    },
    {
      "channel": 4,
      "note": 33,
      "start": 54.3318,
      "duration": 0.1156,
      "velocity": 123,
      "chip": "ym2612"
    },
    {
      "channel": 5,
      "note": 76,
      "start": 54.4312,
      "duration": 0.723,
      "velocity": 102,
      "chip": "ym2612"
    },
    {
      "channel": 2,
      "note": 76,
      "start": 54.4631,
      "duration": 0.0334,
      "velocity": 86,
      "chip": "ym2612"
    },
    {
      "channel": 4,
      "note": 33,
      "start": 54.4649,
      "duration": 0.1171,
      "velocity": 123,
      "chip": "ym2612"
    },
    {
      "channel": 2,
      "note": 69,
      "start": 54.5978,
      "duration": 0.0333,
      "velocity": 86,
      "chip": "ym2612"
    },
    {
      "channel": 4,
      "note": 44,
      "start": 54.601,
      "duration": 0.1156,
      "velocity": 125,
      "chip": "ym2612"
    },
    {
      "channel": 2,
      "note": 69,
      "start": 54.7323,
      "duration": 0.0334,
      "velocity": 86,
      "chip": "ym2612"
    },
    {
      "channel": 4,
      "note": 33,
      "start": 54.7355,
      "duration": 0.1157,
      "velocity": 123,
      "chip": "ym2612"
    },
    {
      "channel": 2,
      "note": 76,
      "start": 54.8668,
      "duration": 0.0334,
      "velocity": 86,
      "chip": "ym2612"
    },
    {
      "channel": 4,
      "note": 33,
      "start": 54.8686,
      "duration": 0.1171,
      "velocity": 123,
      "chip": "ym2612"
    },
    {
      "channel": 0,
      "note": 75,
      "start": 55.0009,
      "duration": 0.3193,
      "velocity": 102,
      "chip": "ym2612"
    },
    {
      "channel": 1,
      "note": 71,
      "start": 55.0016,
      "duration": 0.319,
      "velocity": 102,
      "chip": "ym2612"
    },
    {
      "channel": 2,
      "note": 69,
      "start": 55.0023,
      "duration": 0.0325,
      "velocity": 86,
      "chip": "ym2612"
    },
    {
      "channel": 4,
      "note": 33,
      "start": 55.0057,
      "duration": 0.1146,
      "velocity": 119,
      "chip": "ym2612"
    },
    {
      "channel": 2,
      "note": 69,
      "start": 55.136,
      "duration": 0.0334,
      "velocity": 86,
      "chip": "ym2612"
    },
    {
      "channel": 3,
      "note": 42,
      "start": 55.1376,
      "duration": 0.1343,
      "velocity": 93,
      "chip": "ym2612"
    },
    {
      "channel": 4,
      "note": 33,
      "start": 55.1382,
      "duration": 0.1167,
      "velocity": 119,
      "chip": "ym2612"
    },
    {
      "channel": 5,
      "note": 75,
      "start": 55.2386,
      "duration": 0.3194,
      "velocity": 102,
      "chip": "ym2612"
    },
    {
      "channel": 2,
      "note": 76,
      "start": 55.2705,
      "duration": 0.0334,
      "velocity": 86,
      "chip": "ym2612"
    },
    {
      "channel": 3,
      "note": 44,
      "start": 55.2721,
      "duration": 0.1354,
      "velocity": 93,
      "chip": "ym2612"
    },
    {
      "channel": 4,
      "note": 33,
      "start": 55.2741,
      "duration": 0.1153,
      "velocity": 123,
      "chip": "ym2612"
    },
    {
      "channel": 0,
      "note": 71,
      "start": 55.4046,
      "duration": 0.3193,
      "velocity": 102,
      "chip": "ym2612"
    },
    {
      "channel": 1,
      "note": 68,
      "start": 55.4054,
      "duration": 0.3189,
      "velocity": 102,
      "chip": "ym2612"
    },
    {
      "channel": 2,
      "note": 69,
      "start": 55.4061,
      "duration": 0.0324,
      "velocity": 86,
      "chip": "ym2612"
    },
    {
      "channel": 3,
      "note": 45,
      "start": 55.4077,
      "duration": 0.4037,
      "velocity": 93,
      "chip": "ym2612"
    },
    {
      "channel": 4,
      "note": 44,
      "start": 55.4097,
      "duration": 0.1143,
      "velocity": 125,
      "chip": "ym2612"
    },
    {
      "channel": 2,
      "note": 69,
      "start": 55.5397,
      "duration": 0.0334,
      "velocity": 86,
      "chip": "ym2612"
    },
    {
      "channel": 4,
      "note": 33,
      "start": 55.5429,
      "duration": 0.1157,
      "velocity": 123,
      "chip": "ym2612"
    },
    {
      "channel": 5,
      "note": 71,
      "start": 55.6423,
      "duration": 0.3193,
      "velocity": 102,
      "chip": "ym2612"
    },
    {
      "channel": 2,
      "note": 76,
      "start": 55.6743,
      "duration": 0.0334,
      "velocity": 86,
      "chip": "ym2612"
    },
    {
      "channel": 4,
      "note": 33,
      "start": 55.6761,
      "duration": 0.1171,
      "velocity": 123,
      "chip": "ym2612"
    },
    {
      "channel": 0,
      "note": 68,
      "start": 55.8084,
      "duration": 3.1452,
      "velocity": 102,
      "chip": "ym2612"
    },
    {
      "channel": 1,
      "note": 64,
      "start": 55.8091,
      "duration": 1.5301,
      "velocity": 102,
      "chip": "ym2612"
    },
    {
      "channel": 2,
      "note": 71,
      "start": 55.8098,
      "duration": 0.0324,
      "velocity": 86,
      "chip": "ym2612"
    },
    {
      "channel": 3,
      "note": 40,
      "start": 55.8115,
      "duration": 0.4024,
      "velocity": 93,
      "chip": "ym2612"
    },
    {
      "channel": 4,
      "note": 33,
      "start": 55.8137,
      "duration": 0.1141,
      "velocity": 119,
      "chip": "ym2612"
    },
    {
      "channel": 2,
      "note": 76,
      "start": 55.9434,
      "duration": 0.0334,
      "velocity": 86,
      "chip": "ym2612"
    },
    {
      "channel": 4,
      "note": 33,
      "start": 55.9466,
      "duration": 0.1158,
      "velocity": 123,
      "chip": "ym2612"
    },
    {
      "channel": 5,
      "note": 68,
      "start": 56.0461,
      "duration": 3.1452,
      "velocity": 102,
      "chip": "ym2612"
    },
    {
      "channel": 2,
      "note": 76,
      "start": 56.078,
      "duration": 0.0334,
      "velocity": 86,
      "chip": "ym2612"
    },
    {
      "channel": 4,
      "note": 33,
      "start": 56.0798,
      "duration": 0.1171,
      "velocity": 123,
      "chip": "ym2612"
    },
    {
      "channel": 2,
      "note": 71,
      "start": 56.2126,
      "duration": 0.0333,
      "velocity": 86,
      "chip": "ym2612"
    },
    {
      "channel": 4,
      "note": 44,
      "start": 56.216,
      "duration": 0.1154,
      "velocity": 125,
      "chip": "ym2612"
    },
    {
      "channel": 2,
      "note": 76,
      "start": 56.3471,
      "duration": 0.0334,
      "velocity": 86,
      "chip": "ym2612"
    },
    {
      "channel": 3,
      "note": 40,
      "start": 56.3486,
      "duration": 0.1343,
      "velocity": 93,
      "chip": "ym2612"
    },
    {
      "channel": 4,
      "note": 33,
      "start": 56.3507,
      "duration": 0.1153,
      "velocity": 123,
      "chip": "ym2612"
    },
    {
      "channel": 2,
      "note": 76,
      "start": 56.4817,
      "duration": 0.0334,
      "velocity": 86,
      "chip": "ym2612"
    },
    {
      "channel": 3,
      "note": 40,
      "start": 56.4832,
      "duration": 0.1346,
      "velocity": 93,
      "chip": "ym2612"
    },
    {
      "channel": 4,
      "note": 33,
      "start": 56.4838,
      "duration": 0.1168,
      "velocity": 123,
      "chip": "ym2612"
    },
    {
      "channel": 2,
      "note": 71,
      "start": 56.6164,
      "duration": 0.0334,
      "velocity": 86,
      "chip": "ym2612"
    },
    {
      "channel": 3,
      "note": 40,
      "start": 56.618,
      "duration": 0.4034,
      "velocity": 93,
      "chip": "ym2612"
    },
    {
      "channel": 4,
      "note": 33,
      "start": 56.6201,
      "duration": 0.1152,
      "velocity": 119,
      "chip": "ym2612"
    },
    {
      "channel": 2,
      "note": 76,
      "start": 56.7511,
      "duration": 0.0333,
      "velocity": 86,
      "chip": "ym2612"
    },
    {
      "channel": 4,
      "note": 33,
      "start": 56.7529,
      "duration": 0.117,
      "velocity": 119,
      "chip": "ym2612"
    },
    {
      "channel": 2,
      "note": 76,
      "start": 56.8855,
      "duration": 0.0334,
      "velocity": 86,
      "chip": "ym2612"
    },
    {
      "channel": 4,
      "note": 33,
      "start": 56.8888,
      "duration": 0.1157,
      "velocity": 123,
      "chip": "ym2612"
    },
    {
      "channel": 2,
      "note": 71,
      "start": 57.0201,
      "duration": 0.0334,
      "velocity": 86,
      "chip": "ym2612"
    },
    {
      "channel": 4,
      "note": 44,
      "start": 57.0235,
      "duration": 0.1155,
      "velocity": 125,
      "chip": "ym2612"
    },
    {
      "channel": 2,
      "note": 76,
      "start": 57.1547,
      "duration": 0.0334,
      "velocity": 86,
      "chip": "ym2612"
    },
    {
      "channel": 3,
      "note": 40,
      "start": 57.1563,
      "duration": 0.1343,
      "velocity": 93,
      "chip": "ym2612"
    },
    {
      "channel": 4,
      "note": 33,
      "start": 57.1583,
      "duration": 0.1153,
      "velocity": 123,
      "chip": "ym2612"
    },
    {
      "channel": 2,
      "note": 76,
      "start": 57.2892,
      "duration": 0.0334,
      "velocity": 86,
      "chip": "ym2612"
    },
    {
      "channel": 3,
      "note": 40,
      "start": 57.2908,
      "duration": 0.1349,
      "velocity": 93,
      "chip": "ym2612"
    },
    {
      "channel": 4,
      "note": 33,
      "start": 57.2914,
      "duration": 0.1167,
      "velocity": 123,
      "chip": "ym2612"
    },
    {
      "channel": 1,
      "note": 63,
      "start": 57.4235,
      "duration": 0.723,
      "velocity": 102,
      "chip": "ym2612"
    },
    {
      "channel": 2,
      "note": 69,
      "start": 57.4243,
      "duration": 0.0329,
      "velocity": 86,
      "chip": "ym2612"
    },
    {
      "channel": 3,
      "note": 40,
      "start": 57.4259,
      "duration": 0.1338,
      "velocity": 93,
      "chip": "ym2612"
    },
    {
      "channel": 4,
      "note": 33,
      "start": 57.4281,
      "duration": 0.1146,
      "velocity": 119,
      "chip": "ym2612"
    },
    {
      "channel": 2,
      "note": 80,
      "start": 57.5584,
      "duration": 0.0334,
      "velocity": 86,
      "chip": "ym2612"
    },
    {
      "channel": 3,
      "note": 40,
      "start": 57.5599,
      "duration": 0.269,
      "velocity": 93,
      "chip": "ym2612"
    },
    {
      "channel": 4,
      "note": 33,
      "start": 57.5605,
      "duration": 0.1167,
      "velocity": 119,
      "chip": "ym2612"
    },
    {
      "channel": 2,
      "note": 80,
      "start": 57.6929,
      "duration": 0.0334,
      "velocity": 86,
      "chip": "ym2612"
    },
    {
      "channel": 4,
      "note": 33,
      "start": 57.6964,
      "duration": 0.1154,
      "velocity": 123,
      "chip": "ym2612"
    },
    {
      "channel": 2,
      "note": 69,
      "start": 57.8276,
      "duration": 0.0334,
      "velocity": 86,
      "chip": "ym2612"
    },
    {
      "channel": 3,
      "note": 40,
      "start": 57.8291,
      "duration": 0.2688,
      "velocity": 93,
      "chip": "ym2612"
    },
    {
      "channel": 4,
      "note": 44,
      "start": 57.8312,
      "duration": 0.1152,
      "velocity": 125,
      "chip": "ym2612"
    },
    {
      "channel": 2,
      "note": 80,
      "start": 57.9621,
      "duration": 0.0334,
      "velocity": 86,
      "chip": "ym2612"
    },
    {
      "channel": 4,
      "note": 33,
      "start": 57.9656,
      "duration": 0.1154,
      "velocity": 123,
      "chip": "ym2612"
    },
    {
      "channel": 2,
      "note": 80,
      "start": 58.0966,
      "duration": 0.0335,
      "velocity": 86,
      "chip": "ym2612"
    },
    {
      "channel": 3,
      "note": 40,
      "start": 58.0982,
      "duration": 0.1348,
      "velocity": 93,
      "chip": "ym2612"
    },
    {
      "channel": 4,
      "note": 33,
      "start": 58.0988,
      "duration": 0.1167,
      "velocity": 123,
      "chip": "ym2612"
    },
    {
      "channel": 1,
      "note": 59,
      "start": 58.231,
      "duration": 0.7231,
      "velocity": 102,
      "chip": "ym2612"
    },
    {
      "channel": 2,
      "note": 69,
      "start": 58.2316,
      "duration": 0.033,
      "velocity": 86,
      "chip": "ym2612"
    },
    {
      "channel": 3,
      "note": 40,
      "start": 58.2332,
      "duration": 0.134,
      "velocity": 93,
      "chip": "ym2612"
    },
    {
      "channel": 4,
      "note": 33,
      "start": 58.2352,
      "duration": 0.1149,
      "velocity": 119,
      "chip": "ym2612"
    },
    {
      "channel": 2,
      "note": 80,
      "start": 58.3658,
      "duration": 0.0334,
      "velocity": 86,
      "chip": "ym2612"
    },
    {
      "channel": 3,
      "note": 52,
      "start": 58.3674,
      "duration": 0.1343,
      "velocity": 93,
      "chip": "ym2612"
    },
    {
      "channel": 4,
      "note": 33,
      "start": 58.368,
      "duration": 0.1166,
      "velocity": 119,
      "chip": "ym2612"
    },
    {
      "channel": 2,
      "note": 80,
      "start": 58.5003,
      "duration": 0.0334,
      "velocity": 86,
      "chip": "ym2612"
    },
    {
      "channel": 3,
      "note": 40,
      "start": 58.5019,
      "duration": 0.1344,
      "velocity": 93,
      "chip": "ym2612"
    },
    {
      "channel": 4,
      "note": 33,
      "start": 58.5026,
      "duration": 0.1167,
      "velocity": 119,
      "chip": "ym2612"
    },
    {
      "channel": 2,
      "note": 69,
      "start": 58.635,
      "duration": 0.0333,
      "velocity": 86,
      "chip": "ym2612"
    },
    {
      "channel": 3,
      "note": 51,
      "start": 58.6366,
      "duration": 0.1343,
      "velocity": 93,
      "chip": "ym2612"
    },
    {
      "channel": 4,
      "note": 44,
      "start": 58.6386,
      "duration": 0.1152,
      "velocity": 125,
      "chip": "ym2612"
    },
    {
      "channel": 2,
      "note": 80,
      "start": 58.7695,
      "duration": 0.0334,
      "velocity": 86,
      "chip": "ym2612"
    },
    {
      "channel": 3,
      "note": 40,
      "start": 58.7711,
      "duration": 0.1343,
      "velocity": 93,
      "chip": "ym2612"
    },
    {
      "channel": 4,
      "note": 33,
      "start": 58.7732,
      "duration": 0.1152,
      "velocity": 123,
      "chip": "ym2612"
    },
    {
      "channel": 2,
      "note": 80,
      "start": 58.904,
      "duration": 0.0334,
      "velocity": 86,
      "chip": "ym2612"
    },
    {
      "channel": 3,
      "note": 49,
      "start": 58.9056,
      "duration": 0.1353,
      "velocity": 93,
      "chip": "ym2612"
    },
    {
      "channel": 4,
      "note": 44,
      "start": 58.9077,
      "duration": 0.1152,
      "velocity": 125,
      "chip": "ym2612"
    },
    {
      "channel": 0,
      "note": 73,
      "start": 59.038,
      "duration": 1.5304,
      "velocity": 102,
      "chip": "ym2612"
    },
    {
      "channel": 1,
      "note": 69,
      "start": 59.0388,
      "duration": 1.5301,
      "velocity": 102,
      "chip": "ym2612"
    },
    {
      "channel": 2,
      "note": 69,
      "start": 59.0395,
      "duration": 0.0323,
      "velocity": 86,
      "chip": "ym2612"
    },
    {
      "channel": 3,
      "note": 42,
      "start": 59.0412,
      "duration": 0.4023,
      "velocity": 93,
      "chip": "ym2612"
    },
    {
      "channel": 4,
      "note": 33,
      "start": 59.0434,
      "duration": 0.1139,
      "velocity": 119,
      "chip": "ym2612"
    },
    {
      "channel": 2,
      "note": 78,
      "start": 59.173,
      "duration": 0.0334,
      "velocity": 86,
      "chip": "ym2612"
    },
    {
      "channel": 4,
      "note": 33,
      "start": 59.1762,
      "duration": 0.1157,
      "velocity": 123,
      "chip": "ym2612"
    },
    {
      "channel": 5,
      "note": 73,
      "start": 59.2756,
      "duration": 1.5304,
      "velocity": 102,
      "chip": "ym2612"
    },
    {
      "channel": 2,
      "note": 78,
      "start": 59.3076,
      "duration": 0.0334,
      "velocity": 86,
      "chip": "ym2612"
    },
    {
      "channel": 4,
      "note": 33,
      "start": 59.3094,
      "duration": 0.1171,
      "velocity": 123,
      "chip": "ym2612"
    },
    {
      "channel": 2,
      "note": 69,
      "start": 59.4422,
      "duration": 0.0333,
      "velocity": 86,
      "chip": "ym2612"
    },
    {
      "channel": 4,
      "note": 44,
      "start": 59.4456,
      "duration": 0.1154,
      "velocity": 125,
      "chip": "ym2612"
    },
    {
      "channel": 2,
      "note": 78,
      "start": 59.5767,
      "duration": 0.0334,
      "velocity": 86,
      "chip": "ym2612"
    },
    {
      "channel": 3,
      "note": 42,
      "start": 59.5783,
      "duration": 0.1343,
      "velocity": 93,
      "chip": "ym2612"
    },
    {
      "channel": 4,
      "note": 33,
      "start": 59.5803,
      "duration": 0.1153,
      "velocity": 123,
      "chip": "ym2612"
    },
    {
      "channel": 2,
      "note": 78,
      "start": 59.7112,
      "duration": 0.0334,
      "velocity": 86,
      "chip": "ym2612"
    },
    {
      "channel": 3,
      "note": 42,
      "start": 59.7128,
      "duration": 0.1346,
      "velocity": 93,
      "chip": "ym2612"
    },
    {
      "channel": 4,
      "note": 33,
      "start": 59.7134,
      "duration": 0.1168,
      "velocity": 123,
      "chip": "ym2612"
    },
    {
      "channel": 2,
      "note": 69,
      "start": 59.8461,
      "duration": 0.0334,
      "velocity": 86,
      "chip": "ym2612"
    },
    {
      "channel": 3,
      "note": 42,
      "start": 59.8477,
      "duration": 0.4034,
      "velocity": 93,
      "chip": "ym2612"
    },
    {
      "channel": 4,
      "note": 33,
      "start": 59.8497,
      "duration": 0.1152,
      "velocity": 119,
      "chip": "ym2612"
    },
    {
      "channel": 2,
      "note": 78,
      "start": 59.9806,
      "duration": 0.0333,
      "velocity": 86,
      "chip": "ym2612"
    },
    {
      "channel": 4,
      "note": 33,
      "start": 59.9824,
      "duration": 0.1171,
      "velocity": 119,
      "chip": "ym2612"
    },
    {
      "channel": 2,
      "note": 78,
      "start": 60.1151,
      "duration": 0.0334,
      "velocity": 86,
      "chip": "ym2612"
    },
    {
      "channel": 4,
      "note": 33,
      "start": 60.1184,
      "duration": 0.1157,
      "velocity": 123,
      "chip": "ym2612"
    },
    {
      "channel": 2,
      "note": 69,
      "start": 60.2498,
      "duration": 0.0334,
      "velocity": 86,
      "chip": "ym2612"
    },
    {
      "channel": 4,
      "note": 44,
      "start": 60.2532,
      "duration": 0.1155,
      "velocity": 125,
      "chip": "ym2612"
    },
    {
      "channel": 2,
      "note": 78,
      "start": 60.3843,
      "duration": 0.0334,
      "velocity": 86,
      "chip": "ym2612"
    },
    {
      "channel": 3,
      "note": 42,
      "start": 60.3859,
      "duration": 0.1343,
      "velocity": 93,
      "chip": "ym2612"
    },
    {
      "channel": 4,
      "note": 33,
      "start": 60.3879,
      "duration": 0.1153,
      "velocity": 123,
      "chip": "ym2612"
    },
    {
      "channel": 2,
      "note": 78,
      "start": 60.5188,
      "duration": 0.0334,
      "velocity": 86,
      "chip": "ym2612"
    },
    {
      "channel": 3,
      "note": 42,
      "start": 60.5204,
      "duration": 0.1353,
      "velocity": 93,
      "chip": "ym2612"
    },
    {
      "channel": 4,
      "note": 33,
      "start": 60.521,
      "duration": 0.1168,
      "velocity": 123,
      "chip": "ym2612"
    },
    {
      "channel": 0,
      "note": 76,
      "start": 60.6527,
      "duration": 0.7231,
      "velocity": 102,
      "chip": "ym2612"
    },
    {
      "channel": 1,
      "note": 73,
      "start": 60.6534,
      "duration": 0.7227,
      "velocity": 102,
      "chip": "ym2612"
    },
    {
      "channel": 2,
      "note": 69,
      "start": 60.6542,
      "duration": 0.0324,
      "velocity": 86,
      "chip": "ym2612"
    },
    {
      "channel": 4,
      "note": 33,
      "start": 60.6578,
      "duration": 0.1144,
      "velocity": 119,
      "chip": "ym2612"
    },
    {
      "channel": 2,
      "note": 76,
      "start": 60.7878,
      "duration": 0.0334,
      "velocity": 86,
      "chip": "ym2612"
    },
    {
      "channel": 3,
      "note": 45,
      "start": 60.7894,
      "duration": 0.1343,
      "velocity": 93,
      "chip": "ym2612"
    },
    {
      "channel": 4,
      "note": 33,
      "start": 60.7914,
      "duration": 0.1153,
      "velocity": 123,
      "chip": "ym2612"
    },
    {
      "channel": 5,
      "note": 76,
      "start": 60.8905,
      "duration": 0.7229,
      "velocity": 102,
      "chip": "ym2612"
    },
    {
      "channel": 2,
      "note": 76,
      "start": 60.9224,
      "duration": 0.0334,
      "velocity": 86,
      "chip": "ym2612"
    },
    {
      "channel": 3,
      "note": 45,
      "start": 60.9239,
      "duration": 0.1344,
      "velocity": 93,
      "chip": "ym2612"
    },
    {
      "channel": 4,
      "note": 33,
      "start": 60.9245,
      "duration": 0.1168,
      "velocity": 123,
      "chip": "ym2612"
    },
    {
      "channel": 2,
      "note": 69,
      "start": 61.057,
      "duration": 0.0333,
      "velocity": 86,
      "chip": "ym2612"
    },
    {
      "channel": 3,
      "note": 45,
      "start": 61.0585,
      "duration": 0.4043,
      "velocity": 93,
      "chip": "ym2612"
    },
    {
      "channel": 4,
      "note": 44,
      "start": 61.0606,
      "duration": 0.1153,
      "velocity": 125,
      "chip": "ym2612"
    },
    {
      "channel": 2,
      "note": 76,
      "start": 61.1915,
      "duration": 0.0334,
      "velocity": 86,
      "chip": "ym2612"
    },
    {
      "channel": 4,
      "note": 33,
      "start": 61.1947,
      "duration": 0.1157,
      "velocity": 123,
      "chip": "ym2612"
    },
    {
      "channel": 2,
      "note": 76,
      "start": 61.326,
      "duration": 0.0334,
      "velocity": 86,
      "chip": "ym2612"
    },
    {
      "channel": 4,
      "note": 33,
      "start": 61.3278,
      "duration": 0.1172,
      "velocity": 123,
      "chip": "ym2612"
    },
    {
      "channel": 0,
      "note": 78,
      "start": 61.4601,
      "duration": 0.723,
      "velocity": 102,
      "chip": "ym2612"
    },
    {
      "channel": 1,
      "note": 71,
      "start": 61.4608,
      "duration": 0.3189,
      "velocity": 102,
      "chip": "ym2612"
    },
    {
      "channel": 2,
      "note": 69,
      "start": 61.4615,
      "duration": 0.0325,
      "velocity": 86,
      "chip": "ym2612"
    },
    {
      "channel": 3,
      "note": 45,
      "start": 61.4631,
      "duration": 0.268,
      "velocity": 93,
      "chip": "ym2612"
    },
    {
      "channel": 4,
      "note": 33,
      "start": 61.4652,
      "duration": 0.1145,
      "velocity": 119,
      "chip": "ym2612"
    },
    {
      "channel": 2,
      "note": 76,
      "start": 61.5952,
      "duration": 0.0334,
      "velocity": 86,
      "chip": "ym2612"
    },
    {
      "channel": 4,
      "note": 33,
      "start": 61.597,
      "duration": 0.1171,
      "velocity": 119,
      "chip": "ym2612"
    },
    {
      "channel": 5,
      "note": 78,
      "start": 61.6978,
      "duration": 0.723,
      "velocity": 102,
      "chip": "ym2612"
    },
    {
      "channel": 2,
      "note": 76,
      "start": 61.7298,
      "duration": 0.0334,
      "velocity": 86,
      "chip": "ym2612"
    },
    {
      "channel": 3,
      "note": 45,
      "start": 61.7313,
      "duration": 0.2689,
      "velocity": 93,
      "chip": "ym2612"
    },
    {
      "channel": 4,
      "note": 33,
      "start": 61.7334,
      "duration": 0.1153,
      "velocity": 123,
      "chip": "ym2612"
    },
    {
      "channel": 1,
      "note": 68,
      "start": 61.8641,
      "duration": 0.3193,
      "velocity": 102,
      "chip": "ym2612"
    },
    {
      "channel": 2,
      "note": 69,
      "start": 61.8648,
      "duration": 0.0329,
      "velocity": 86,
      "chip": "ym2612"
    },
    {
      "channel": 4,
      "note": 44,
      "start": 61.8681,
      "duration": 0.1152,
      "velocity": 125,
      "chip": "ym2612"
    },
    {
      "channel": 2,
      "note": 76,
      "start": 61.9989,
      "duration": 0.0334,
      "velocity": 86,
      "chip": "ym2612"
    },
    {
      "channel": 3,
      "note": 47,
      "start": 62.0005,
      "duration": 0.2701,
      "velocity": 93,
      "chip": "ym2612"
    },
    {
      "channel": 4,
      "note": 33,
      "start": 62.0025,
      "duration": 0.1153,
      "velocity": 123,
      "chip": "ym2612"
    },
    {
      "channel": 2,
      "note": 76,
      "start": 62.1335,
      "duration": 0.0334,
      "velocity": 86,
      "chip": "ym2612"
    },
    {
      "channel": 4,
      "note": 33,
      "start": 62.1353,
      "duration": 0.1171,
      "velocity": 123,
      "chip": "ym2612"
    },
    {
      "channel": 0,
      "note": 80,
      "start": 62.2676,
      "duration": 1.5304,
      "velocity": 102,
      "chip": "ym2612"
    },
    {
      "channel": 1,
      "note": 64,
      "start": 62.2683,
      "duration": 1.1264,
      "velocity": 102,
      "chip": "ym2612"
    },
    {
      "channel": 2,
      "note": 71,
      "start": 62.2691,
      "duration": 0.0323,
      "velocity": 86,
      "chip": "ym2612"
    },
    {
      "channel": 3,
      "note": 40,
      "start": 62.2708,
      "duration": 0.8062,
      "velocity": 93,
      "chip": "ym2612"
    },
    {
      "channel": 4,
      "note": 33,
      "start": 62.2729,
      "duration": 0.1141,
      "velocity": 119,
      "chip": "ym2612"
    },
    {
      "channel": 2,
      "note": 80,
      "start": 62.4026,
      "duration": 0.0334,
      "velocity": 86,
      "chip": "ym2612"
    },
    {
      "channel": 4,
      "note": 33,
      "start": 62.4059,
      "duration": 0.1157,
      "velocity": 123,
      "chip": "ym2612"
    },
    {
      "channel": 5,
      "note": 80,
      "start": 62.5052,
      "duration": 1.5305,
      "velocity": 102,
      "chip": "ym2612"
    },
    {
      "channel": 2,
      "note": 80,
      "start": 62.5372,
      "duration": 0.0334,
      "velocity": 86,
      "chip": "ym2612"
    },
    {
      "channel": 4,
      "note": 33,
      "start": 62.539,
      "duration": 0.1171,
      "velocity": 123,
      "chip": "ym2612"
    },
    {
      "channel": 2,
      "note": 71,
      "start": 62.6718,
      "duration": 0.0333,
      "velocity": 86,
      "chip": "ym2612"
    },
    {
      "channel": 4,
      "note": 44,
      "start": 62.675,
      "duration": 0.1156,
      "velocity": 125,
      "chip": "ym2612"
    },
    {
      "channel": 2,
      "note": 80,
      "start": 62.8063,
      "duration": 0.0334,
      "velocity": 86,
      "chip": "ym2612"
    },
    {
      "channel": 4,
      "note": 33,
      "start": 62.8095,
      "duration": 0.1157,
      "velocity": 123,
      "chip": "ym2612"
    },
    {
      "channel": 2,
      "note": 80,
      "start": 62.9409,
      "duration": 0.0334,
      "velocity": 86,
      "chip": "ym2612"
    },
    {
      "channel": 4,
      "note": 33,
      "start": 62.9427,
      "duration": 0.1171,
      "velocity": 123,
      "chip": "ym2612"
    },
    {
      "channel": 2,
      "note": 71,
      "start": 63.0757,
      "duration": 0.0334,
      "velocity": 86,
      "chip": "ym2612"
    },
    {
      "channel": 4,
      "note": 33,
      "start": 63.0791,
      "duration": 0.1155,
      "velocity": 119,
      "chip": "ym2612"
    },
    {
      "channel": 2,
      "note": 80,
      "start": 63.2102,
      "duration": 0.0334,
      "velocity": 86,
      "chip": "ym2612"
    },
    {
      "channel": 3,
      "note": 40,
      "start": 63.2118,
      "duration": 0.1343,
      "velocity": 93,
      "chip": "ym2612"
    },
    {
      "channel": 4,
      "note": 33,
      "start": 63.2124,
      "duration": 0.1167,
      "velocity": 119,
      "chip": "ym2612"
    },
    {
      "channel": 2,
      "note": 80,
      "start": 63.3447,
      "duration": 0.0334,
      "velocity": 86,
      "chip": "ym2612"
    },
    {
      "channel": 3,
      "note": 40,
      "start": 63.3463,
      "duration": 0.1348,
      "velocity": 93,
      "chip": "ym2612"
    },
    {
      "channel": 4,
      "note": 33,
      "start": 63.3484,
      "duration": 0.1153,
      "velocity": 123,
      "chip": "ym2612"
    },
    {
      "channel": 1,
      "note": 66,
      "start": 63.4791,
      "duration": 0.3194,
      "velocity": 102,
      "chip": "ym2612"
    },
    {
      "channel": 2,
      "note": 71,
      "start": 63.4798,
      "duration": 0.033,
      "velocity": 86,
      "chip": "ym2612"
    },
    {
      "channel": 3,
      "note": 40,
      "start": 63.4813,
      "duration": 0.1339,
      "velocity": 93,
      "chip": "ym2612"
    },
    {
      "channel": 4,
      "note": 44,
      "start": 63.4834,
      "duration": 0.1149,
      "velocity": 125,
      "chip": "ym2612"
    },
    {
      "channel": 2,
      "note": 80,
      "start": 63.6139,
      "duration": 0.0334,
      "velocity": 86,
      "chip": "ym2612"
    },
    {
      "channel": 3,
      "note": 40,
      "start": 63.6155,
      "duration": 0.1343,
      "velocity": 93,
      "chip": "ym2612"
    },
    {
      "channel": 4,
      "note": 33,
      "start": 63.6175,
      "duration": 0.1153,
      "velocity": 123,
      "chip": "ym2612"
    },
    {
      "channel": 2,
      "note": 80,
      "start": 63.7484,
      "duration": 0.0334,
      "velocity": 86,
      "chip": "ym2612"
    },
    {
      "channel": 3,
      "note": 40,
      "start": 63.75,
      "duration": 0.1354,
      "velocity": 93,
      "chip": "ym2612"
    },
    {
      "channel": 4,
      "note": 33,
      "start": 63.7506,
      "duration": 0.1168,
      "velocity": 123,
      "chip": "ym2612"
    },
    {
      "channel": 0,
      "note": 84,
      "start": 63.8824,
      "duration": 0.723,
      "velocity": 102,
      "chip": "ym2612"
    },
    {
      "channel": 1,
      "note": 68,
      "start": 63.8831,
      "duration": 0.7226,
      "velocity": 102,
      "chip": "ym2612"
    },
    {
      "channel": 2,
      "note": 92,
      "start": 63.8841,
      "duration": 0.0321,
      "velocity": 86,
      "chip": "ym2612"
    },
    {
      "channel": 3,
      "note": 44,
      "start": 63.8856,
      "duration": 0.4023,
      "velocity": 93,
      "chip": "ym2612"
    },
    {
      "channel": 4,
      "note": 33,
      "start": 63.8878,
      "duration": 0.114,
      "velocity": 119,
      "chip": "ym2612"
    },
    {
      "channel": 2,
      "note": 92,
      "start": 64.0174,
      "duration": 0.0334,
      "velocity": 86,
      "chip": "ym2612"
    },
    {
      "channel": 4,
      "note": 33,
      "start": 64.0192,
      "duration": 0.1171,
      "velocity": 119,
      "chip": "ym2612"
    },
    {
      "channel": 5,
      "note": 84,
      "start": 64.1201,
      "duration": 0.723,
      "velocity": 102,
      "chip": "ym2612"
    },
    {
      "channel": 2,
      "note": 92,
      "start": 64.152,
      "duration": 0.0334,
      "velocity": 86,
      "chip": "ym2612"
    },
    {
      "channel": 4,
      "note": 33,
      "start": 64.1552,
      "duration": 0.1157,
      "velocity": 123,
      "chip": "ym2612"
    },
    {
      "channel": 2,
      "note": 92,
      "start": 64.2866,
      "duration": 0.0333,
      "velocity": 86,
      "chip": "ym2612"
    },
    {
      "channel": 4,
      "note": 44,
      "start": 64.29,
      "duration": 0.1155,
      "velocity": 125,
      "chip": "ym2612"
    },
    {
      "channel": 2,
      "note": 92,
      "start": 64.4211,
      "duration": 0.0334,
      "velocity": 86,
      "chip": "ym2612"
    },
    {
      "channel": 3,
      "note": 44,
      "start": 64.4227,
      "duration": 0.1343,
      "velocity": 93,
      "chip": "ym2612"
    },
    {
      "channel": 4,
      "note": 33,
      "start": 64.4247,
      "duration": 0.1153,
      "velocity": 123,
      "chip": "ym2612"
    },
    {
      "channel": 2,
      "note": 92,
      "start": 64.5557,
      "duration": 0.0334,
      "velocity": 86,
      "chip": "ym2612"
    },
    {
      "channel": 3,
      "note": 44,
      "start": 64.5572,
      "duration": 0.1354,
      "velocity": 93,
      "chip": "ym2612"
    },
    {
      "channel": 4,
      "note": 33,
      "start": 64.5578,
      "duration": 0.1168,
      "velocity": 123,
      "chip": "ym2612"
    },
    {
      "channel": 0,
      "note": 87,
      "start": 64.6898,
      "duration": 0.723,
      "velocity": 102,
      "chip": "ym2612"
    },
    {
      "channel": 1,
      "note": 70,
      "start": 64.6905,
      "duration": 0.3189,
      "velocity": 102,
      "chip": "ym2612"
    },
    {
      "channel": 2,
      "note": 92,
      "start": 64.6913,
      "duration": 0.0324,
      "velocity": 86,
      "chip": "ym2612"
    },
    {
      "channel": 4,
      "note": 33,
      "start": 64.6947,
      "duration": 0.1145,
      "velocity": 119,
      "chip": "ym2612"
    },
    {
      "channel": 2,
      "note": 104,
      "start": 64.8249,
      "duration": 0.0333,
      "velocity": 86,
      "chip": "ym2612"
    },
    {
      "channel": 3,
      "note": 44,
      "start": 64.8264,
      "duration": 0.1344,
      "velocity": 93,
      "chip": "ym2612"
    },
    {
      "channel": 4,
      "note": 33,
      "start": 64.8271,
      "duration": 0.1167,
      "velocity": 119,
      "chip": "ym2612"
    },
    {
      "channel": 5,
      "note": 87,
      "start": 64.9274,
      "duration": 0.723,
      "velocity": 102,
      "chip": "ym2612"
    },
    {
      "channel": 2,
      "note": 92,
      "start": 64.9595,
      "duration": 0.0333,
      "velocity": 86,
      "chip": "ym2612"
    },
    {
      "channel": 3,
      "note": 56,
      "start": 64.9611,
      "duration": 0.1347,
      "velocity": 93,
      "chip": "ym2612"
    },
    {
      "channel": 4,
      "note": 33,
      "start": 64.9617,
      "duration": 0.1166,
      "velocity": 119,
      "chip": "ym2612"
    },
    {
      "channel": 1,
      "note": 72,
      "start": 65.0937,
      "duration": 0.3194,
      "velocity": 102,
      "chip": "ym2612"
    },
    {
      "channel": 2,
      "note": 92,
      "start": 65.0944,
      "duration": 0.0329,
      "velocity": 86,
      "chip": "ym2612"
    },
    {
      "channel": 3,
      "note": 42,
      "start": 65.096,
      "duration": 0.134,
      "velocity": 93,
      "chip": "ym2612"
    },
    {
      "channel": 4,
      "note": 44,
      "start": 65.0981,
      "duration": 0.1148,
      "velocity": 125,
      "chip": "ym2612"
    },
    {
      "channel": 2,
      "note": 104,
      "start": 65.2286,
      "duration": 0.0333,
      "velocity": 86,
      "chip": "ym2612"
    },
    {
      "channel": 3,
      "note": 54,
      "start": 65.2302,
      "duration": 0.1344,
      "velocity": 93,
      "chip": "ym2612"
    },
    {
      "channel": 4,
      "note": 33,
      "start": 65.2323,
      "duration": 0.1152,
      "velocity": 123,
      "chip": "ym2612"
    },
    {
      "channel": 2,
      "note": 92,
      "start": 65.3632,
      "duration": 0.0333,
      "velocity": 86,
      "chip": "ym2612"
    },
    {
      "channel": 3,
      "note": 39,
      "start": 65.3648,
      "duration": 0.1369,
      "velocity": 97,
      "chip": "ym2612"
    },
    {
      "channel": 4,
      "note": 44,
      "start": 65.3668,
      "duration": 0.1152,
      "velocity": 125,
      "chip": "ym2612"
    },
    {
      "channel": 0,
      "note": 68,
      "start": 65.4973,
      "duration": 1.5302,
      "velocity": 102,
      "chip": "ym2612"
    },
    {
      "channel": 3,
      "note": 25,
      "start": 65.5019,
      "duration": 1.578,
      "velocity": 97,
      "chip": "ym2612"
    },
    {
      "channel": 4,
      "note": 33,
      "start": 65.5042,
      "duration": 0.3815,
      "velocity": 119,
      "chip": "ym2612"
    },
    {
      "channel": 5,
      "note": 68,
      "start": 65.735,
      "duration": 1.5302,
      "velocity": 102,
      "chip": "ym2612"
    },
    {
      "channel": 4,
      "note": 33,
      "start": 65.9028,
      "duration": 0.3866,
      "velocity": 119,
      "chip": "ym2612"
    },
    {
      "channel": 4,
      "note": 33,
      "start": 66.3081,
      "duration": 0.3852,
      "velocity": 123,
      "chip": "ym2612"
    },
    {
      "channel": 0,
      "note": 66,
      "start": 67.112,
      "duration": 0.7231,
      "velocity": 102,
      "chip": "ym2612"
    },
    {
      "channel": 3,
      "note": 27,
      "start": 67.1145,
      "duration": 0.7727,
      "velocity": 97,
      "chip": "ym2612"
    },
    {
      "channel": 4,
      "note": 33,
      "start": 67.1166,
      "duration": 0.3839,
      "velocity": 119,
      "chip": "ym2612"
    },
    {
      "channel": 5,
      "note": 66,
      "start": 67.3496,
      "duration": 0.7231,
      "velocity": 102,
      "chip": "ym2612"
    },
    {
      "channel": 4,
      "note": 33,
      "start": 67.5176,
      "duration": 0.3866,
      "velocity": 119,
      "chip": "ym2612"
    },
    {
      "channel": 0,
      "note": 71,
      "start": 67.9194,
      "duration": 0.723,
      "velocity": 102,
      "chip": "ym2612"
    },
    {
      "channel": 3,
      "note": 28,
      "start": 67.9215,
      "duration": 0.3693,
      "velocity": 97,
      "chip": "ym2612"
    },
    {
      "channel": 4,
      "note": 33,
      "start": 67.9236,
      "duration": 0.3843,
      "velocity": 123,
      "chip": "ym2612"
    },
    {
      "channel": 5,
      "note": 71,
      "start": 68.1571,
      "duration": 0.723,
      "velocity": 102,
      "chip": "ym2612"
    },
    {
      "channel": 3,
      "note": 30,
      "start": 68.3247,
      "duration": 0.3698,
      "velocity": 97,
      "chip": "ym2612"
    },
    {
      "channel": 0,
      "note": 68,
      "start": 68.7268,
      "duration": 3.1452,
      "velocity": 102,
      "chip": "ym2612"
    },
    {
      "channel": 3,
      "note": 32,
      "start": 68.7294,
      "duration": 1.5801,
      "velocity": 97,
      "chip": "ym2612"
    },
    {
      "channel": 4,
      "note": 33,
      "start": 68.7315,
      "duration": 0.3838,
      "velocity": 119,
      "chip": "ym2612"
    },
    {
      "channel": 5,
      "note": 68,
      "start": 68.9645,
      "duration": 3.1452,
      "velocity": 102,
      "chip": "ym2612"
    },
    {
      "channel": 4,
      "note": 33,
      "start": 69.1324,
      "duration": 0.3866,
      "velocity": 119,
      "chip": "ym2612"
    },
    {
      "channel": 4,
      "note": 33,
      "start": 69.5377,
      "duration": 0.3852,
      "velocity": 123,
      "chip": "ym2612"
    },
    {
      "channel": 3,
      "note": 35,
      "start": 70.3439,
      "duration": 0.773,
      "velocity": 97,
      "chip": "ym2612"
    },
    {
      "channel": 4,
      "note": 33,
      "start": 70.3461,
      "duration": 0.3842,
      "velocity": 119,
      "chip": "ym2612"
    },
    {
      "channel": 4,
      "note": 33,
      "start": 70.7474,
      "duration": 0.3866,
      "velocity": 119,
      "chip": "ym2612"
    },
    {
      "channel": 3,
      "note": 33,
      "start": 71.1508,
      "duration": 0.3698,
      "velocity": 97,
      "chip": "ym2612"
    },
    {
      "channel": 4,
      "note": 33,
      "start": 71.1529,
      "duration": 0.3848,
      "velocity": 123,
      "chip": "ym2612"
    },
    {
      "channel": 3,
      "note": 30,
      "start": 71.5546,
      "duration": 0.3699,
      "velocity": 97,
      "chip": "ym2612"
    },
    {
      "channel": 0,
      "note": 68,
      "start": 71.9564,
      "duration": 1.5305,
      "velocity": 102,
      "chip": "ym2612"
    },
    {
      "channel": 3,
      "note": 25,
      "start": 71.959,
      "duration": 1.1765,
      "velocity": 97,
      "chip": "ym2612"
    },
    {
      "channel": 4,
      "note": 33,
      "start": 71.9611,
      "duration": 0.3838,
      "velocity": 119,
      "chip": "ym2612"
    },
    {
      "channel": 5,
      "note": 68,
      "start": 72.194,
      "duration": 1.5305,
      "velocity": 102,
      "chip": "ym2612"
    },
    {
      "channel": 4,
      "note": 33,
      "start": 72.362,
      "duration": 0.3866,
      "velocity": 119,
      "chip": "ym2612"
    },
    {
      "channel": 4,
      "note": 33,
      "start": 72.7673,
      "duration": 0.3852,
      "velocity": 123,
      "chip": "ym2612"
    },
    {
      "channel": 3,
      "note": 25,
      "start": 73.1693,
      "duration": 0.1007,
      "velocity": 97,
      "chip": "ym2612"
    },
    {
      "channel": 3,
      "note": 23,
      "start": 73.304,
      "duration": 0.1006,
      "velocity": 97,
      "chip": "ym2612"
    },
    {
      "channel": 3,
      "note": 25,
      "start": 73.4385,
      "duration": 0.1007,
      "velocity": 97,
      "chip": "ym2612"
    },
    {
      "channel": 0,
      "note": 66,
      "start": 73.5712,
      "duration": 0.7231,
      "velocity": 102,
      "chip": "ym2612"
    },
    {
      "channel": 3,
      "note": 27,
      "start": 73.5737,
      "duration": 0.7727,
      "velocity": 97,
      "chip": "ym2612"
    },
    {
      "channel": 4,
      "note": 33,
      "start": 73.5759,
      "duration": 0.3839,
      "velocity": 119,
      "chip": "ym2612"
    },
    {
      "channel": 5,
      "note": 66,
      "start": 73.8088,
      "duration": 0.7231,
      "velocity": 102,
      "chip": "ym2612"
    },
    {
      "channel": 4,
      "note": 33,
      "start": 73.9768,
      "duration": 0.3866,
      "velocity": 119,
      "chip": "ym2612"
    },
    {
      "channel": 0,
      "note": 69,
      "start": 74.3787,
      "duration": 0.3193,
      "velocity": 102,
      "chip": "ym2612"
    },
    {
      "channel": 3,
      "note": 23,
      "start": 74.3808,
      "duration": 0.773,
      "velocity": 97,
      "chip": "ym2612"
    },
    {
      "channel": 4,
      "note": 33,
      "start": 74.3828,
      "duration": 0.3843,
      "velocity": 123,
      "chip": "ym2612"
    },
    {
      "channel": 5,
      "note": 69,
      "start": 74.6163,
      "duration": 0.3193,
      "velocity": 102,
      "chip": "ym2612"
    },
    {
      "channel": 0,
      "note": 71,
      "start": 74.7823,
      "duration": 0.3194,
      "velocity": 102,
      "chip": "ym2612"
    },
    {
      "channel": 5,
      "note": 71,
      "start": 75.02,
      "duration": 0.3193,
      "velocity": 102,
      "chip": "ym2612"
    },
    {
      "channel": 0,
      "note": 68,
      "start": 75.1861,
      "duration": 3.1452,
      "velocity": 102,
      "chip": "ym2612"
    },
    {
      "channel": 3,
      "note": 32,
      "start": 75.1887,
      "duration": 1.1764,
      "velocity": 97,
      "chip": "ym2612"
    },
    {
      "channel": 4,
      "note": 33,
      "start": 75.1908,
      "duration": 0.3838,
      "velocity": 119,
      "chip": "ym2612"
    },
    {
      "channel": 5,
      "note": 68,
      "start": 75.4237,
      "duration": 3.1451,
      "velocity": 102,
      "chip": "ym2612"
    },
    {
      "channel": 4,
      "note": 33,
      "start": 75.5916,
      "duration": 0.3866,
      "velocity": 119,
      "chip": "ym2612"
    },
    {
      "channel": 4,
      "note": 33,
      "start": 75.9969,
      "duration": 0.3852,
      "velocity": 123,
      "chip": "ym2612"
    },
    {
      "channel": 3,
      "note": 32,
      "start": 76.3989,
      "duration": 0.3698,
      "velocity": 97,
      "chip": "ym2612"
    },
    {
      "channel": 3,
      "note": 32,
      "start": 76.8031,
      "duration": 0.7731,
      "velocity": 97,
      "chip": "ym2612"
    },
    {
      "channel": 4,
      "note": 33,
      "start": 76.8052,
      "duration": 0.3843,
      "velocity": 119,
      "chip": "ym2612"
    },
    {
      "channel": 4,
      "note": 33,
      "start": 77.2073,
      "duration": 0.3859,
      "velocity": 119,
      "chip": "ym2612"
    },
    {
      "channel": 3,
      "note": 30,
      "start": 77.61,
      "duration": 0.3698,
      "velocity": 97,
      "chip": "ym2612"
    },
    {
      "channel": 4,
      "note": 33,
      "start": 77.6121,
      "duration": 0.3848,
      "velocity": 123,
      "chip": "ym2612"
    },
    {
      "channel": 3,
      "note": 27,
      "start": 78.0137,
      "duration": 0.3698,
      "velocity": 97,
      "chip": "ym2612"
    },
    {
      "channel": 0,
      "note": 73,
      "start": 78.4157,
      "duration": 1.5304,
      "velocity": 102,
      "chip": "ym2612"
    },
    {
      "channel": 3,
      "note": 30,
      "start": 78.4182,
      "duration": 1.1764,
      "velocity": 97,
      "chip": "ym2612"
    },
    {
      "channel": 4,
      "note": 33,
      "start": 78.4204,
      "duration": 0.3837,
      "velocity": 119,
      "chip": "ym2612"
    },
    {
      "channel": 5,
      "note": 73,
      "start": 78.6533,
      "duration": 1.5304,
      "velocity": 102,
      "chip": "ym2612"
    },
    {
      "channel": 4,
      "note": 33,
      "start": 78.8213,
      "duration": 0.3865,
      "velocity": 119,
      "chip": "ym2612"
    },
    {
      "channel": 4,
      "note": 44,
      "start": 79.2265,
      "duration": 0.3852,
      "velocity": 125,
      "chip": "ym2612"
    },
    {
      "channel": 3,
      "note": 30,
      "start": 79.6285,
      "duration": 0.3698,
      "velocity": 97,
      "chip": "ym2612"
    },
    {
      "channel": 4,
      "note": 33,
      "start": 79.6306,
      "duration": 0.3848,
      "velocity": 123,
      "chip": "ym2612"
    },
    {
      "channel": 0,
      "note": 76,
      "start": 80.0304,
      "duration": 0.723,
      "velocity": 102,
      "chip": "ym2612"
    },
    {
      "channel": 3,
      "note": 33,
      "start": 80.033,
      "duration": 0.7726,
      "velocity": 97,
      "chip": "ym2612"
    },
    {
      "channel": 4,
      "note": 33,
      "start": 80.0351,
      "duration": 0.3838,
      "velocity": 119,
      "chip": "ym2612"
    },
    {
      "channel": 5,
      "note": 76,
      "start": 80.2681,
      "duration": 0.7231,
      "velocity": 102,
      "chip": "ym2612"
    },
    {
      "channel": 4,
      "note": 33,
      "start": 80.436,
      "duration": 0.3866,
      "velocity": 119,
      "chip": "ym2612"
    },
    {
      "channel": 0,
      "note": 75,
      "start": 80.8378,
      "duration": 0.3193,
      "velocity": 102,
      "chip": "ym2612"
    },
    {
      "channel": 3,
      "note": 34,
      "start": 80.8399,
      "duration": 0.7731,
      "velocity": 97,
      "chip": "ym2612"
    },
    {
      "channel": 4,
      "note": 44,
      "start": 80.842,
      "duration": 0.3844,
      "velocity": 125,
      "chip": "ym2612"
    },
    {
      "channel": 5,
      "note": 75,
      "start": 81.0755,
      "duration": 0.3193,
      "velocity": 102,
      "chip": "ym2612"
    },
    {
      "channel": 0,
      "note": 71,
      "start": 81.2415,
      "duration": 0.3193,
      "velocity": 102,
      "chip": "ym2612"
    },
    {
      "channel": 4,
      "note": 33,
      "start": 81.2453,
      "duration": 0.3848,
      "velocity": 123,
      "chip": "ym2612"
    },
    {
      "channel": 5,
      "note": 71,
      "start": 81.4792,
      "duration": 0.3193,
      "velocity": 102,
      "chip": "ym2612"
    },
    {
      "channel": 0,
      "note": 68,
      "start": 81.6453,
      "duration": 3.1452,
      "velocity": 102,
      "chip": "ym2612"
    },
    {
      "channel": 3,
      "note": 28,
      "start": 81.6479,
      "duration": 1.5801,
      "velocity": 97,
      "chip": "ym2612"
    },
    {
      "channel": 4,
      "note": 33,
      "start": 81.65,
      "duration": 0.3837,
      "velocity": 119,
      "chip": "ym2612"
    },
    {
      "channel": 5,
      "note": 68,
      "start": 81.8829,
      "duration": 3.1453,
      "velocity": 102,
      "chip": "ym2612"
    },
    {
      "channel": 4,
      "note": 33,
      "start": 82.0508,
      "duration": 0.3866,
      "velocity": 119,
      "chip": "ym2612"
    },
    {
      "channel": 4,
      "note": 44,
      "start": 82.4561,
      "duration": 0.3852,
      "velocity": 125,
      "chip": "ym2612"
    },
    {
      "channel": 4,
      "note": 33,
      "start": 82.8599,
      "duration": 0.3852,
      "velocity": 123,
      "chip": "ym2612"
    },
    {
      "channel": 3,
      "note": 30,
      "start": 83.2623,
      "duration": 0.7731,
      "velocity": 97,
      "chip": "ym2612"
    },
    {
      "channel": 4,
      "note": 33,
      "start": 83.2644,
      "duration": 0.3844,
      "velocity": 119,
      "chip": "ym2612"
    },
    {
      "channel": 4,
      "note": 33,
      "start": 83.6658,
      "duration": 0.3866,
      "velocity": 119,
      "chip": "ym2612"
    },
    {
      "channel": 3,
      "note": 32,
      "start": 84.0693,
      "duration": 0.7735,
      "velocity": 97,
      "chip": "ym2612"
    },
    {
      "channel": 4,
      "note": 44,
      "start": 84.0713,
      "duration": 0.3848,
      "velocity": 125,
      "chip": "ym2612"
    },
    {
      "channel": 4,
      "note": 33,
      "start": 84.4746,
      "duration": 0.3852,
      "velocity": 123,
      "chip": "ym2612"
    },
    {
      "channel": 0,
      "note": 73,
      "start": 84.8749,
      "duration": 1.5305,
      "velocity": 102,
      "chip": "ym2612"
    },
    {
      "channel": 3,
      "note": 33,
      "start": 84.8775,
      "duration": 1.1764,
      "velocity": 97,
      "chip": "ym2612"
    },
    {
      "channel": 4,
      "note": 33,
      "start": 84.8798,
      "duration": 0.3835,
      "velocity": 119,
      "chip": "ym2612"
    },
    {
      "channel": 5,
      "note": 73,
      "start": 85.1126,
      "duration": 1.5304,
      "velocity": 102,
      "chip": "ym2612"
    },
    {
      "channel": 4,
      "note": 33,
      "start": 85.2805,
      "duration": 0.3866,
      "velocity": 119,
      "chip": "ym2612"
    },
    {
      "channel": 4,
      "note": 44,
      "start": 85.6858,
      "duration": 0.3852,
      "velocity": 125,
      "chip": "ym2612"
    },
    {
      "channel": 3,
      "note": 30,
      "start": 86.0878,
      "duration": 0.1679,
      "velocity": 97,
      "chip": "ym2612"
    },
    {
      "channel": 4,
      "note": 33,
      "start": 86.0899,
      "duration": 0.3847,
      "velocity": 123,
      "chip": "ym2612"
    },
    {
      "channel": 3,
      "note": 32,
      "start": 86.2896,
      "duration": 0.168,
      "velocity": 97,
      "chip": "ym2612"
    },
    {
      "channel": 0,
      "note": 76,
      "start": 86.4896,
      "duration": 0.723,
      "velocity": 102,
      "chip": "ym2612"
    },
    {
      "channel": 3,
      "note": 40,
      "start": 86.4922,
      "duration": 0.7726,
      "velocity": 97,
      "chip": "ym2612"
    },
    {
      "channel": 4,
      "note": 33,
      "start": 86.4944,
      "duration": 0.3838,
      "velocity": 119,
      "chip": "ym2612"
    },
    {
      "channel": 5,
      "note": 76,
      "start": 86.7273,
      "duration": 0.723,
      "velocity": 102,
      "chip": "ym2612"
    },
    {
      "channel": 4,
      "note": 33,
      "start": 86.8953,
      "duration": 0.3866,
      "velocity": 119,
      "chip": "ym2612"
    },
    {
      "channel": 0,
      "note": 75,
      "start": 87.2971,
      "duration": 0.3193,
      "velocity": 102,
      "chip": "ym2612"
    },
    {
      "channel": 3,
      "note": 42,
      "start": 87.2992,
      "duration": 0.7731,
      "velocity": 97,
      "chip": "ym2612"
    },
    {
      "channel": 4,
      "note": 44,
      "start": 87.3012,
      "duration": 0.3844,
      "velocity": 125,
      "chip": "ym2612"
    },
    {
      "channel": 5,
      "note": 75,
      "start": 87.5347,
      "duration": 0.3193,
      "velocity": 102,
      "chip": "ym2612"
    },
    {
      "channel": 0,
      "note": 71,
      "start": 87.7007,
      "duration": 0.3193,
      "velocity": 102,
      "chip": "ym2612"
    },
    {
      "channel": 4,
      "note": 33,
      "start": 87.7045,
      "duration": 0.3848,
      "velocity": 123,
      "chip": "ym2612"
    },
    {
      "channel": 5,
      "note": 71,
      "start": 87.9384,
      "duration": 0.3194,
      "velocity": 102,
      "chip": "ym2612"
    },
    {
      "channel": 0,
      "note": 68,
      "start": 88.1045,
      "duration": 1.1267,
      "velocity": 102,
      "chip": "ym2612"
    },
    {
      "channel": 3,
      "note": 40,
      "start": 88.1071,
      "duration": 1.1764,
      "velocity": 97,
      "chip": "ym2612"
    },
    {
      "channel": 4,
      "note": 33,
      "start": 88.1092,
      "duration": 0.3838,
      "velocity": 119,
      "chip": "ym2612"
    },
    {
      "channel": 5,
      "note": 68,
      "start": 88.3422,
      "duration": 1.1267,
      "velocity": 102,
      "chip": "ym2612"
    },
    {
      "channel": 4,
      "note": 33,
      "start": 88.5101,
      "duration": 0.3866,
      "velocity": 119,
      "chip": "ym2612"
    },
    {
      "channel": 4,
      "note": 44,
      "start": 88.9154,
      "duration": 0.3851,
      "velocity": 125,
      "chip": "ym2612"
    },
    {
      "channel": 0,
      "note": 68,
      "start": 89.3156,
      "duration": 0.3193,
      "velocity": 102,
      "chip": "ym2612"
    },
    {
      "channel": 3,
      "note": 28,
      "start": 89.3177,
      "duration": 0.3693,
      "velocity": 97,
      "chip": "ym2612"
    },
    {
      "channel": 4,
      "note": 33,
      "start": 89.3198,
      "duration": 0.3843,
      "velocity": 123,
      "chip": "ym2612"
    },
    {
      "channel": 5,
      "note": 68,
      "start": 89.5532,
      "duration": 0.3194,
      "velocity": 102,
      "chip": "ym2612"
    },
    {
      "channel": 0,
      "note": 72,
      "start": 89.7193,
      "duration": 1.5304,
      "velocity": 102,
      "chip": "ym2612"
    },
    {
      "channel": 3,
      "note": 32,
      "start": 89.7219,
      "duration": 0.3689,
      "velocity": 97,
      "chip": "ym2612"
    },
    {
      "channel": 4,
      "note": 33,
      "start": 89.724,
      "duration": 0.3838,
      "velocity": 119,
      "chip": "ym2612"
    },
    {
      "channel": 5,
      "note": 72,
      "start": 89.957,
      "duration": 1.5304,
      "velocity": 102,
      "chip": "ym2612"
    },
    {
      "channel": 3,
      "note": 24,
      "start": 90.1246,
      "duration": 0.3698,
      "velocity": 97,
      "chip": "ym2612"
    },
    {
      "channel": 4,
      "note": 33,
      "start": 90.1253,
      "duration": 0.3863,
      "velocity": 119,
      "chip": "ym2612"
    },
    {
      "channel": 3,
      "note": 25,
      "start": 90.5285,
      "duration": 0.3698,
      "velocity": 97,
      "chip": "ym2612"
    },
    {
      "channel": 4,
      "note": 44,
      "start": 90.5306,
      "duration": 0.3848,
      "velocity": 125,
      "chip": "ym2612"
    },
    {
      "channel": 3,
      "note": 27,
      "start": 90.9322,
      "duration": 0.3698,
      "velocity": 97,
      "chip": "ym2612"
    },
    {
      "channel": 4,
      "note": 33,
      "start": 90.9343,
      "duration": 0.1156,
      "velocity": 119,
      "chip": "ym2612"
    },
    {
      "channel": 4,
      "note": 44,
      "start": 91.0685,
      "duration": 0.116,
      "velocity": 125,
      "chip": "ym2612"
    },
    {
      "channel": 4,
      "note": 44,
      "start": 91.2016,
      "duration": 0.1175,
      "velocity": 125,
      "chip": "ym2612"
    },
    {
      "channel": 0,
      "note": 68,
      "start": 91.3341,
      "duration": 0.1532,
      "velocity": 102,
      "chip": "ym2612"
    },
    {
      "channel": 3,
      "note": 37,
      "start": 91.3419,
      "duration": 0.1282,
      "velocity": 93,
      "chip": "ym2612"
    },
    {
      "channel": 4,
      "note": 33,
      "start": 91.3442,
      "duration": 0.1432,
      "velocity": 119,
      "chip": "ym2612"
    }
  ]
}