{
  "track_name": "11 - Mission 9",
  "duration_sec": 109.829,
  "sample_rate": 44100,
  "note_count": 2681,
  "unique_pitches": 52,
  "pitch_range": 69,
  "avg_note_duration": 0.0951,
  "reconstruction_stats": {
    "notes_reconstructed": 2681,
    "keyon_events": 2681,
    "keyoff_events": 1842,
    "orphan_keyons": 1,
    "unique_pitches": 52,
    "pitch_range": 69,
    "avg_duration_sec": 0.0951
  },
  "metadata": {
    "source": "D\\Darxide\\11 - Mission 9.vgz"
  },
  "notes": [
    {
      "channel": 0,
      "note": 66,
      "start": 0.0,
      "duration": 0.0,
      "velocity": 1,
      "chip": "ym2612"
    },
    {
      "channel": 1,
      "note": 60,
      "start": 0.0,
      "duration": 0.0,
      "velocity": 1,
      "chip": "ym2612"
    },
    {
      "channel": 2,
      "note": 57,
      "start": 0.0,
      "duration": 0.0,
      "velocity": 98,
      "chip": "ym2612"
    },
    {
      "channel": 2,
      "note": 57,
      "start": 0.0,
      "duration": 0.0,
      "velocity": 98,
      "chip": "ym2612"
    },
    {
      "channel": 2,
      "note": 57,
      "start": 0.0,
      "duration": 0.0,
      "velocity": 1,
      "chip": "ym2612"
    },
    {
      "channel": 3,
      "note": 78,
      "start": 0.0,
      "duration": 0.0,
      "velocity": 1,
      "chip": "ym2612"
    },
    {
      "channel": 3,
      "note": 23,
      "start": 0.0,
      "duration": 1.7354,
      "velocity": 120,
      "chip": "ym2612"
    },
    {
      "channel": 4,
      "note": 43,
      "start": 0.0,
      "duration": 0.0,
      "velocity": 1,
      "chip": "ym2612"
    },
    {
      "channel": 4,
      "note": 35,
      "start": 0.0,
      "duration": 1.7354,
      "velocity": 120,
      "chip": "ym2612"
    },
    {
      "channel": 3,
      "note": 23,
      "start": 1.7354,
      "duration": 0.9074,
      "velocity": 105,
      "chip": "ym2612"
    },
    {
      "channel": 4,
      "note": 35,
      "start": 1.7354,
      "duration": 0.9079,
      "velocity": 120,
      "chip": "ym2612"
    },
    {
      "channel": 0,
      "note": 71,
      "start": 2.6415,
      "duration": 0.0033,
      "velocity": 127,
      "chip": "ym2612"
    },
    {
      "channel": 1,
      "note": 79,
      "start": 2.6419,
      "duration": 0.0024,
      "velocity": 93,
      "chip": "ym2612"
    },
    {
      "channel": 3,
      "note": 35,
      "start": 2.6429,
      "duration": 0.0902,
      "velocity": 105,
      "chip": "ym2612"
    },
    {
      "channel": 4,
      "note": 40,
      "start": 2.6434,
      "duration": 0.2126,
      "velocity": 120,
      "chip": "ym2612"
    },
    {
      "channel": 0,
      "note": 59,
      "start": 2.6933,
      "duration": 0.0797,
      "velocity": 127,
      "chip": "ym2612"
    },
    {
      "channel": 1,
      "note": 76,
      "start": 2.6933,
      "duration": 0.0398,
      "velocity": 93,
      "chip": "ym2612"
    },
    {
      "channel": 0,
      "note": 59,
      "start": 2.8533,
      "duration": 0.0011,
      "velocity": 127,
      "chip": "ym2612"
    },
    {
      "channel": 1,
      "note": 76,
      "start": 2.8534,
      "duration": 0.0007,
      "velocity": 93,
      "chip": "ym2612"
    },
    {
      "channel": 3,
      "note": 35,
      "start": 2.8535,
      "duration": 0.0496,
      "velocity": 105,
      "chip": "ym2612"
    },
    {
      "channel": 0,
      "note": 59,
      "start": 2.8558,
      "duration": 0.0873,
      "velocity": 127,
      "chip": "ym2612"
    },
    {
      "channel": 1,
      "note": 78,
      "start": 2.8559,
      "duration": 0.0473,
      "velocity": 93,
      "chip": "ym2612"
    },
    {
      "channel": 4,
      "note": 38,
      "start": 2.856,
      "duration": 0.3663,
      "velocity": 120,
      "chip": "ym2612"
    },
    {
      "channel": 1,
      "note": 71,
      "start": 3.0233,
      "duration": 0.0398,
      "velocity": 93,
      "chip": "ym2612"
    },
    {
      "channel": 3,
      "note": 35,
      "start": 3.0234,
      "duration": 0.0797,
      "velocity": 105,
      "chip": "ym2612"
    },
    {
      "channel": 0,
      "note": 59,
      "start": 3.1834,
      "duration": 0.0021,
      "velocity": 127,
      "chip": "ym2612"
    },
    {
      "channel": 1,
      "note": 71,
      "start": 3.1835,
      "duration": 0.0015,
      "velocity": 93,
      "chip": "ym2612"
    },
    {
      "channel": 3,
      "note": 35,
      "start": 3.1836,
      "duration": 0.0401,
      "velocity": 105,
      "chip": "ym2612"
    },
    {
      "channel": 0,
      "note": 71,
      "start": 3.2222,
      "duration": 0.0012,
      "velocity": 127,
      "chip": "ym2612"
    },
    {
      "channel": 1,
      "note": 79,
      "start": 3.2223,
      "duration": 0.0008,
      "velocity": 93,
      "chip": "ym2612"
    },
    {
      "channel": 4,
      "note": 35,
      "start": 3.2224,
      "duration": 0.626,
      "velocity": 120,
      "chip": "ym2612"
    },
    {
      "channel": 0,
      "note": 59,
      "start": 3.2321,
      "duration": 0.0597,
      "velocity": 127,
      "chip": "ym2612"
    },
    {
      "channel": 1,
      "note": 76,
      "start": 3.2322,
      "duration": 0.0397,
      "velocity": 93,
      "chip": "ym2612"
    },
    {
      "channel": 3,
      "note": 33,
      "start": 3.2323,
      "duration": 0.1395,
      "velocity": 105,
      "chip": "ym2612"
    },
    {
      "channel": 0,
      "note": 59,
      "start": 3.3921,
      "duration": 0.0019,
      "velocity": 127,
      "chip": "ym2612"
    },
    {
      "channel": 1,
      "note": 76,
      "start": 3.3922,
      "duration": 0.0015,
      "velocity": 93,
      "chip": "ym2612"
    },
    {
      "channel": 3,
      "note": 35,
      "start": 3.3923,
      "duration": 0.0983,
      "velocity": 105,
      "chip": "ym2612"
    },
    {
      "channel": 0,
      "note": 59,
      "start": 3.4507,
      "duration": 0.0997,
      "velocity": 127,
      "chip": "ym2612"
    },
    {
      "channel": 1,
      "note": 78,
      "start": 3.4508,
      "duration": 0.0398,
      "velocity": 93,
      "chip": "ym2612"
    },
    {
      "channel": 1,
      "note": 71,
      "start": 3.6108,
      "duration": 0.0006,
      "velocity": 93,
      "chip": "ym2612"
    },
    {
      "channel": 3,
      "note": 35,
      "start": 3.6109,
      "duration": 0.0008,
      "velocity": 105,
      "chip": "ym2612"
    },
    {
      "channel": 0,
      "note": 59,
      "start": 3.612,
      "duration": 0.0024,
      "velocity": 127,
      "chip": "ym2612"
    },
    {
      "channel": 1,
      "note": 71,
      "start": 3.6121,
      "duration": 0.0007,
      "velocity": 93,
      "chip": "ym2612"
    },
    {
      "channel": 3,
      "note": 35,
      "start": 3.6121,
      "duration": 0.1376,
      "velocity": 105,
      "chip": "ym2612"
    },
    {
      "channel": 0,
      "note": 71,
      "start": 3.6699,
      "duration": 0.0797,
      "velocity": 127,
      "chip": "ym2612"
    },
    {
      "channel": 1,
      "note": 79,
      "start": 3.67,
      "duration": 0.0398,
      "velocity": 93,
      "chip": "ym2612"
    },
    {
      "channel": 0,
      "note": 59,
      "start": 3.83,
      "duration": 0.0022,
      "velocity": 127,
      "chip": "ym2612"
    },
    {
      "channel": 1,
      "note": 76,
      "start": 3.8301,
      "duration": 0.0016,
      "velocity": 93,
      "chip": "ym2612"
    },
    {
      "channel": 3,
      "note": 35,
      "start": 3.8301,
      "duration": 0.0402,
      "velocity": 105,
      "chip": "ym2612"
    },
    {
      "channel": 0,
      "note": 69,
      "start": 3.8688,
      "duration": 0.0011,
      "velocity": 127,
      "chip": "ym2612"
    },
    {
      "channel": 1,
      "note": 78,
      "start": 3.8689,
      "duration": 0.0007,
      "velocity": 93,
      "chip": "ym2612"
    },
    {
      "channel": 4,
      "note": 33,
      "start": 3.869,
      "duration": 0.17,
      "velocity": 120,
      "chip": "ym2612"
    },
    {
      "channel": 0,
      "note": 59,
      "start": 3.8788,
      "duration": 0.0797,
      "velocity": 127,
      "chip": "ym2612"
    },
    {
      "channel": 1,
      "note": 71,
      "start": 3.8788,
      "duration": 0.0398,
      "velocity": 93,
      "chip": "ym2612"
    },
    {
      "channel": 3,
      "note": 33,
      "start": 3.8789,
      "duration": 0.0796,
      "velocity": 105,
      "chip": "ym2612"
    },
    {
      "channel": 0,
      "note": 71,
      "start": 4.0389,
      "duration": 0.002,
      "velocity": 127,
      "chip": "ym2612"
    },
    {
      "channel": 1,
      "note": 79,
      "start": 4.0389,
      "duration": 0.0015,
      "velocity": 93,
      "chip": "ym2612"
    },
    {
      "channel": 3,
      "note": 35,
      "start": 4.039,
      "duration": 0.1182,
      "velocity": 105,
      "chip": "ym2612"
    },
    {
      "channel": 4,
      "note": 35,
      "start": 4.0391,
      "duration": 0.2209,
      "velocity": 120,
      "chip": "ym2612"
    },
    {
      "channel": 0,
      "note": 59,
      "start": 4.0774,
      "duration": 0.0797,
      "velocity": 127,
      "chip": "ym2612"
    },
    {
      "channel": 1,
      "note": 76,
      "start": 4.0775,
      "duration": 0.0398,
      "velocity": 93,
      "chip": "ym2612"
    },
    {
      "channel": 0,
      "note": 59,
      "start": 4.2576,
      "duration": 0.0007,
      "velocity": 127,
      "chip": "ym2612"
    },
    {
      "channel": 1,
      "note": 76,
      "start": 4.2576,
      "duration": 0.0006,
      "velocity": 93,
      "chip": "ym2612"
    },
    {
      "channel": 3,
      "note": 35,
      "start": 4.2577,
      "duration": 0.0496,
      "velocity": 105,
      "chip": "ym2612"
    },
    {
      "channel": 0,
      "note": 59,
      "start": 4.2599,
      "duration": 0.1073,
      "velocity": 127,
      "chip": "ym2612"
    },
    {
      "channel": 1,
      "note": 78,
      "start": 4.26,
      "duration": 0.0273,
      "velocity": 93,
      "chip": "ym2612"
    },
    {
      "channel": 4,
      "note": 38,
      "start": 4.2601,
      "duration": 0.3663,
      "velocity": 120,
      "chip": "ym2612"
    },
    {
      "channel": 1,
      "note": 71,
      "start": 4.4074,
      "duration": 0.0398,
      "velocity": 93,
      "chip": "ym2612"
    },
    {
      "channel": 3,
      "note": 35,
      "start": 4.4075,
      "duration": 0.0797,
      "velocity": 105,
      "chip": "ym2612"
    },
    {
      "channel": 0,
      "note": 59,
      "start": 4.5876,
      "duration": 0.0032,
      "velocity": 127,
      "chip": "ym2612"
    },
    {
      "channel": 1,
      "note": 71,
      "start": 4.5876,
      "duration": 0.0014,
      "velocity": 93,
      "chip": "ym2612"
    },
    {
      "channel": 3,
      "note": 35,
      "start": 4.5877,
      "duration": 0.0399,
      "velocity": 105,
      "chip": "ym2612"
    },
    {
      "channel": 0,
      "note": 71,
      "start": 4.6263,
      "duration": 0.0011,
      "velocity": 127,
      "chip": "ym2612"
    },
    {
      "channel": 1,
      "note": 79,
      "start": 4.6263,
      "duration": 0.0007,
      "velocity": 93,
      "chip": "ym2612"
    },
    {
      "channel": 4,
      "note": 33,
      "start": 4.6265,
      "duration": 0.6361,
      "velocity": 120,
      "chip": "ym2612"
    },
    {
      "channel": 0,
      "note": 59,
      "start": 4.6286,
      "duration": 0.0672,
      "velocity": 127,
      "chip": "ym2612"
    },
    {
      "channel": 1,
      "note": 76,
      "start": 4.6287,
      "duration": 0.0273,
      "velocity": 93,
      "chip": "ym2612"
    },
    {
      "channel": 3,
      "note": 33,
      "start": 4.6288,
      "duration": 0.1071,
      "velocity": 105,
      "chip": "ym2612"
    },
    {
      "channel": 0,
      "note": 59,
      "start": 4.7962,
      "duration": 0.0017,
      "velocity": 127,
      "chip": "ym2612"
    },
    {
      "channel": 1,
      "note": 76,
      "start": 4.7963,
      "duration": 0.0015,
      "velocity": 93,
      "chip": "ym2612"
    },
    {
      "channel": 3,
      "note": 35,
      "start": 4.7964,
      "duration": 0.0583,
      "velocity": 105,
      "chip": "ym2612"
    },
    {
      "channel": 0,
      "note": 59,
      "start": 4.8348,
      "duration": 0.0997,
      "velocity": 127,
      "chip": "ym2612"
    },
    {
      "channel": 1,
      "note": 78,
      "start": 4.8348,
      "duration": 0.0397,
      "velocity": 93,
      "chip": "ym2612"
    },
    {
      "channel": 1,
      "note": 71,
      "start": 4.9948,
      "duration": 0.0007,
      "velocity": 93,
      "chip": "ym2612"
    },
    {
      "channel": 3,
      "note": 35,
      "start": 4.9948,
      "duration": 0.0009,
      "velocity": 105,
      "chip": "ym2612"
    },
    {
      "channel": 0,
      "note": 59,
      "start": 5.0048,
      "duration": 0.0032,
      "velocity": 127,
      "chip": "ym2612"
    },
    {
      "channel": 1,
      "note": 71,
      "start": 5.0049,
      "duration": 0.0015,
      "velocity": 93,
      "chip": "ym2612"
    },
    {
      "channel": 3,
      "note": 35,
      "start": 5.0049,
      "duration": 0.1582,
      "velocity": 105,
      "chip": "ym2612"
    },
    {
      "channel": 0,
      "note": 71,
      "start": 5.0434,
      "duration": 0.0997,
      "velocity": 127,
      "chip": "ym2612"
    },
    {
      "channel": 1,
      "note": 79,
      "start": 5.0435,
      "duration": 0.0398,
      "velocity": 93,
      "chip": "ym2612"
    },
    {
      "channel": 0,
      "note": 59,
      "start": 5.2035,
      "duration": 0.0185,
      "velocity": 127,
      "chip": "ym2612"
    },
    {
      "channel": 1,
      "note": 76,
      "start": 5.2036,
      "duration": 0.0018,
      "velocity": 93,
      "chip": "ym2612"
    },
    {
      "channel": 3,
      "note": 38,
      "start": 5.2037,
      "duration": 0.0595,
      "velocity": 105,
      "chip": "ym2612"
    },
    {
      "channel": 0,
      "note": 69,
      "start": 5.2624,
      "duration": 0.0011,
      "velocity": 127,
      "chip": "ym2612"
    },
    {
      "channel": 1,
      "note": 78,
      "start": 5.2625,
      "duration": 0.0007,
      "velocity": 93,
      "chip": "ym2612"
    },
    {
      "channel": 4,
      "note": 35,
      "start": 5.2626,
      "duration": 0.1699,
      "velocity": 120,
      "chip": "ym2612"
    },
    {
      "channel": 0,
      "note": 59,
      "start": 5.2646,
      "duration": 0.1074,
      "velocity": 127,
      "chip": "ym2612"
    },
    {
      "channel": 1,
      "note": 71,
      "start": 5.2647,
      "duration": 0.0273,
      "velocity": 93,
      "chip": "ym2612"
    },
    {
      "channel": 3,
      "note": 38,
      "start": 5.2647,
      "duration": 0.1271,
      "velocity": 105,
      "chip": "ym2612"
    },
    {
      "channel": 0,
      "note": 71,
      "start": 5.4323,
      "duration": 0.0018,
      "velocity": 127,
      "chip": "ym2612"
    },
    {
      "channel": 1,
      "note": 79,
      "start": 5.4324,
      "duration": 0.0016,
      "velocity": 93,
      "chip": "ym2612"
    },
    {
      "channel": 3,
      "note": 35,
      "start": 5.4325,
      "duration": 0.0784,
      "velocity": 105,
      "chip": "ym2612"
    },
    {
      "channel": 4,
      "note": 40,
      "start": 5.4326,
      "duration": 0.2086,
      "velocity": 120,
      "chip": "ym2612"
    },
    {
      "channel": 0,
      "note": 59,
      "start": 5.471,
      "duration": 0.0797,
      "velocity": 127,
      "chip": "ym2612"
    },
    {
      "channel": 1,
      "note": 76,
      "start": 5.471,
      "duration": 0.0398,
      "velocity": 93,
      "chip": "ym2612"
    },
    {
      "channel": 0,
      "note": 59,
      "start": 5.6311,
      "duration": 0.001,
      "velocity": 127,
      "chip": "ym2612"
    },
    {
      "channel": 1,
      "note": 76,
      "start": 5.6312,
      "duration": 0.0006,
      "velocity": 93,
      "chip": "ym2612"
    },
    {
      "channel": 3,
      "note": 35,
      "start": 5.6312,
      "duration": 0.0496,
      "velocity": 105,
      "chip": "ym2612"
    },
    {
      "channel": 0,
      "note": 59,
      "start": 5.6411,
      "duration": 0.0797,
      "velocity": 127,
      "chip": "ym2612"
    },
    {
      "channel": 1,
      "note": 78,
      "start": 5.6411,
      "duration": 0.0398,
      "velocity": 93,
      "chip": "ym2612"
    },
    {
      "channel": 4,
      "note": 38,
      "start": 5.6412,
      "duration": 0.3787,
      "velocity": 120,
      "chip": "ym2612"
    },
    {
      "channel": 1,
      "note": 71,
      "start": 5.8009,
      "duration": 0.0398,
      "velocity": 93,
      "chip": "ym2612"
    },
    {
      "channel": 3,
      "note": 35,
      "start": 5.801,
      "duration": 0.0797,
      "velocity": 105,
      "chip": "ym2612"
    },
    {
      "channel": 0,
      "note": 59,
      "start": 5.9611,
      "duration": 0.0021,
      "velocity": 127,
      "chip": "ym2612"
    },
    {
      "channel": 1,
      "note": 71,
      "start": 5.9612,
      "duration": 0.0015,
      "velocity": 93,
      "chip": "ym2612"
    },
    {
      "channel": 3,
      "note": 35,
      "start": 5.9612,
      "duration": 0.0599,
      "velocity": 105,
      "chip": "ym2612"
    },
    {
      "channel": 0,
      "note": 71,
      "start": 6.0198,
      "duration": 0.0011,
      "velocity": 127,
      "chip": "ym2612"
    },
    {
      "channel": 1,
      "note": 79,
      "start": 6.0199,
      "duration": 0.0007,
      "velocity": 93,
      "chip": "ym2612"
    },
    {
      "channel": 4,
      "note": 35,
      "start": 6.02,
      "duration": 0.3698,
      "velocity": 120,
      "chip": "ym2612"
    },
    {
      "channel": 0,
      "note": 59,
      "start": 6.0222,
      "duration": 0.0473,
      "velocity": 127,
      "chip": "ym2612"
    },
    {
      "channel": 1,
      "note": 76,
      "start": 6.0222,
      "duration": 0.0273,
      "velocity": 93,
      "chip": "ym2612"
    },
    {
      "channel": 3,
      "note": 33,
      "start": 6.0223,
      "duration": 0.1271,
      "velocity": 105,
      "chip": "ym2612"
    },
    {
      "channel": 0,
      "note": 59,
      "start": 6.1698,
      "duration": 0.0019,
      "velocity": 127,
      "chip": "ym2612"
    },
    {
      "channel": 1,
      "note": 76,
      "start": 6.1699,
      "duration": 0.0015,
      "velocity": 93,
      "chip": "ym2612"
    },
    {
      "channel": 3,
      "note": 35,
      "start": 6.1699,
      "duration": 0.0984,
      "velocity": 105,
      "chip": "ym2612"
    },
    {
      "channel": 0,
      "note": 59,
      "start": 6.2284,
      "duration": 0.0997,
      "velocity": 127,
      "chip": "ym2612"
    },
    {
      "channel": 1,
      "note": 78,
      "start": 6.2285,
      "duration": 0.0398,
      "velocity": 93,
      "chip": "ym2612"
    },
    {
      "channel": 1,
      "note": 71,
      "start": 6.3884,
      "duration": 0.0006,
      "velocity": 93,
      "chip": "ym2612"
    },
    {
      "channel": 3,
      "note": 35,
      "start": 6.3885,
      "duration": 0.0009,
      "velocity": 105,
      "chip": "ym2612"
    },
    {
      "channel": 0,
      "note": 59,
      "start": 6.3897,
      "duration": 0.0025,
      "velocity": 127,
      "chip": "ym2612"
    },
    {
      "channel": 1,
      "note": 71,
      "start": 6.3898,
      "duration": 0.0008,
      "velocity": 93,
      "chip": "ym2612"
    },
    {
      "channel": 3,
      "note": 35,
      "start": 6.3899,
      "duration": 0.1574,
      "velocity": 105,
      "chip": "ym2612"
    },
    {
      "channel": 4,
      "note": 33,
      "start": 6.3899,
      "duration": 0.2566,
      "velocity": 120,
      "chip": "ym2612"
    },
    {
      "channel": 0,
      "note": 71,
      "start": 6.4475,
      "duration": 0.0997,
      "velocity": 127,
      "chip": "ym2612"
    },
    {
      "channel": 1,
      "note": 79,
      "start": 6.4475,
      "duration": 0.0398,
      "velocity": 93,
      "chip": "ym2612"
    },
    {
      "channel": 0,
      "note": 59,
      "start": 6.6076,
      "duration": 0.0033,
      "velocity": 127,
      "chip": "ym2612"
    },
    {
      "channel": 1,
      "note": 76,
      "start": 6.6077,
      "duration": 0.0016,
      "velocity": 93,
      "chip": "ym2612"
    },
    {
      "channel": 3,
      "note": 35,
      "start": 6.6078,
      "duration": 0.0401,
      "velocity": 105,
      "chip": "ym2612"
    },
    {
      "channel": 0,
      "note": 69,
      "start": 6.6464,
      "duration": 0.0011,
      "velocity": 127,
      "chip": "ym2612"
    },
    {
      "channel": 1,
      "note": 78,
      "start": 6.6465,
      "duration": 0.0007,
      "velocity": 93,
      "chip": "ym2612"
    },
    {
      "channel": 4,
      "note": 35,
      "start": 6.6466,
      "duration": 0.9287,
      "velocity": 120,
      "chip": "ym2612"
    },
    {
      "channel": 0,
      "note": 59,
      "start": 6.6564,
      "duration": 0.0797,
      "velocity": 127,
      "chip": "ym2612"
    },
    {
      "channel": 1,
      "note": 71,
      "start": 6.6564,
      "duration": 0.0398,
      "velocity": 93,
      "chip": "ym2612"
    },
    {
      "channel": 3,
      "note": 33,
      "start": 6.6565,
      "duration": 0.0995,
      "velocity": 105,
      "chip": "ym2612"
    },
    {
      "channel": 0,
      "note": 71,
      "start": 6.8164,
      "duration": 0.002,
      "velocity": 127,
      "chip": "ym2612"
    },
    {
      "channel": 1,
      "note": 79,
      "start": 6.8165,
      "duration": 0.0016,
      "velocity": 93,
      "chip": "ym2612"
    },
    {
      "channel": 3,
      "note": 35,
      "start": 6.8166,
      "duration": 0.1383,
      "velocity": 105,
      "chip": "ym2612"
    },
    {
      "channel": 0,
      "note": 59,
      "start": 6.8551,
      "duration": 0.0797,
      "velocity": 127,
      "chip": "ym2612"
    },
    {
      "channel": 1,
      "note": 76,
      "start": 6.8552,
      "duration": 0.0598,
      "velocity": 93,
      "chip": "ym2612"
    },
    {
      "channel": 0,
      "note": 59,
      "start": 7.0353,
      "duration": 0.0009,
      "velocity": 127,
      "chip": "ym2612"
    },
    {
      "channel": 1,
      "note": 76,
      "start": 7.0353,
      "duration": 0.0006,
      "velocity": 93,
      "chip": "ym2612"
    },
    {
      "channel": 3,
      "note": 35,
      "start": 7.0354,
      "duration": 0.0495,
      "velocity": 105,
      "chip": "ym2612"
    },
    {
      "channel": 0,
      "note": 59,
      "start": 7.0375,
      "duration": 0.1073,
      "velocity": 127,
      "chip": "ym2612"
    },
    {
      "channel": 1,
      "note": 78,
      "start": 7.0376,
      "duration": 0.0274,
      "velocity": 93,
      "chip": "ym2612"
    },
    {
      "channel": 1,
      "note": 71,
      "start": 7.185,
      "duration": 0.0598,
      "velocity": 93,
      "chip": "ym2612"
    },
    {
      "channel": 3,
      "note": 35,
      "start": 7.1851,
      "duration": 0.0797,
      "velocity": 105,
      "chip": "ym2612"
    },
    {
      "channel": 0,
      "note": 59,
      "start": 7.3652,
      "duration": 0.0033,
      "velocity": 127,
      "chip": "ym2612"
    },
    {
      "channel": 1,
      "note": 71,
      "start": 7.3653,
      "duration": 0.0015,
      "velocity": 93,
      "chip": "ym2612"
    },
    {
      "channel": 3,
      "note": 35,
      "start": 7.3654,
      "duration": 0.04,
      "velocity": 105,
      "chip": "ym2612"
    },
    {
      "channel": 0,
      "note": 71,
      "start": 7.4041,
      "duration": 0.001,
      "velocity": 127,
      "chip": "ym2612"
    },
    {
      "channel": 1,
      "note": 79,
      "start": 7.4041,
      "duration": 0.0006,
      "velocity": 93,
      "chip": "ym2612"
    },
    {
      "channel": 0,
      "note": 59,
      "start": 7.414,
      "duration": 0.0597,
      "velocity": 127,
      "chip": "ym2612"
    },
    {
      "channel": 1,
      "note": 76,
      "start": 7.4141,
      "duration": 0.0398,
      "velocity": 93,
      "chip": "ym2612"
    },
    {
      "channel": 3,
      "note": 33,
      "start": 7.4141,
      "duration": 0.0995,
      "velocity": 105,
      "chip": "ym2612"
    },
    {
      "channel": 0,
      "note": 59,
      "start": 7.5741,
      "duration": 0.0009,
      "velocity": 127,
      "chip": "ym2612"
    },
    {
      "channel": 1,
      "note": 76,
      "start": 7.5741,
      "duration": 0.0006,
      "velocity": 93,
      "chip": "ym2612"
    },
    {
      "channel": 3,
      "note": 35,
      "start": 7.5742,
      "duration": 0.0019,
      "velocity": 105,
      "chip": "ym2612"
    },
    {
      "channel": 4,
      "note": 35,
      "start": 7.5753,
      "duration": 0.0231,
      "velocity": 120,
      "chip": "ym2612"
    },
    {
      "channel": 0,
      "note": 59,
      "start": 7.5756,
      "duration": 0.0008,
      "velocity": 127,
      "chip": "ym2612"
    },
    {
      "channel": 1,
      "note": 78,
      "start": 7.5757,
      "duration": 0.0004,
      "velocity": 93,
      "chip": "ym2612"
    },
    {
      "channel": 1,
      "note": 71,
      "start": 7.5769,
      "duration": 0.0004,
      "velocity": 93,
      "chip": "ym2612"
    },
    {
      "channel": 3,
      "note": 35,
      "start": 7.5769,
      "duration": 0.0006,
      "velocity": 105,
      "chip": "ym2612"
    },
    {
      "channel": 0,
      "note": 59,
      "start": 7.5779,
      "duration": 0.0031,
      "velocity": 127,
      "chip": "ym2612"
    },
    {
      "channel": 1,
      "note": 71,
      "start": 7.578,
      "duration": 0.0006,
      "velocity": 93,
      "chip": "ym2612"
    },
    {
      "channel": 3,
      "note": 35,
      "start": 7.5781,
      "duration": 0.005,
      "velocity": 105,
      "chip": "ym2612"
    },
    {
      "channel": 0,
      "note": 71,
      "start": 7.5815,
      "duration": 0.0013,
      "velocity": 127,
      "chip": "ym2612"
    },
    {
      "channel": 1,
      "note": 79,
      "start": 7.5815,
      "duration": 0.0007,
      "velocity": 93,
      "chip": "ym2612"
    },
    {
      "channel": 0,
      "note": 59,
      "start": 7.5916,
      "duration": 0.0026,
      "velocity": 127,
      "chip": "ym2612"
    },
    {
      "channel": 1,
      "note": 76,
      "start": 7.5917,
      "duration": 0.0007,
      "velocity": 93,
      "chip": "ym2612"
    },
    {
      "channel": 3,
      "note": 38,
      "start": 7.5917,
      "duration": 0.0044,
      "velocity": 105,
      "chip": "ym2612"
    },
    {
      "channel": 0,
      "note": 69,
      "start": 7.5954,
      "duration": 0.0015,
      "velocity": 127,
      "chip": "ym2612"
    },
    {
      "channel": 1,
      "note": 78,
      "start": 7.5954,
      "duration": 0.0006,
      "velocity": 93,
      "chip": "ym2612"
    },
    {
      "channel": 0,
      "note": 59,
      "start": 7.5982,
      "duration": 0.0019,
      "velocity": 127,
      "chip": "ym2612"
    },
    {
      "channel": 1,
      "note": 71,
      "start": 7.5983,
      "duration": 0.0007,
      "velocity": 93,
      "chip": "ym2612"
    },
    {
      "channel": 3,
      "note": 38,
      "start": 7.5984,
      "duration": 0.0017,
      "velocity": 105,
      "chip": "ym2612"
    },
    {
      "channel": 0,
      "note": 71,
      "start": 7.6003,
      "duration": 0.0031,
      "velocity": 127,
      "chip": "ym2612"
    },
    {
      "channel": 1,
      "note": 79,
      "start": 7.6007,
      "duration": 0.0024,
      "velocity": 93,
      "chip": "ym2612"
    },
    {
      "channel": 2,
      "note": 59,
      "start": 7.6013,
      "duration": 0.954,
      "velocity": 83,
      "chip": "ym2612"
    },
    {
      "channel": 3,
      "note": 35,
      "start": 7.6014,
      "duration": 0.0748,
      "velocity": 105,
      "chip": "ym2612"
    },
    {
      "channel": 4,
      "note": 59,
      "start": 7.6018,
      "duration": 0.0014,
      "velocity": 120,
      "chip": "ym2612"
    },
    {
      "channel": 4,
      "note": 59,
      "start": 7.6032,
      "duration": 0.0005,
      "velocity": 120,
      "chip": "ym2612"
    },
    {
      "channel": 4,
      "note": 59,
      "start": 7.6037,
      "duration": 0.0015,
      "velocity": 120,
      "chip": "ym2612"
    },
    {
      "channel": 4,
      "note": 59,
      "start": 7.6051,
      "duration": 0.0313,
      "velocity": 120,
      "chip": "ym2612"
    },
    {
      "channel": 0,
      "note": 59,
      "start": 7.6363,
      "duration": 0.0797,
      "velocity": 127,
      "chip": "ym2612"
    },
    {
      "channel": 1,
      "note": 76,
      "start": 7.6364,
      "duration": 0.0398,
      "velocity": 93,
      "chip": "ym2612"
    },
    {
      "channel": 4,
      "note": 59,
      "start": 7.6365,
      "duration": 0.0398,
      "velocity": 120,
      "chip": "ym2612"
    },
    {
      "channel": 4,
      "note": 59,
      "start": 7.6762,
      "duration": 0.0399,
      "velocity": 120,
      "chip": "ym2612"
    },
    {
      "channel": 4,
      "note": 59,
      "start": 7.7161,
      "duration": 0.0399,
      "velocity": 120,
      "chip": "ym2612"
    },
    {
      "channel": 4,
      "note": 59,
      "start": 7.7561,
      "duration": 0.0406,
      "velocity": 120,
      "chip": "ym2612"
    },
    {
      "channel": 0,
      "note": 59,
      "start": 7.7964,
      "duration": 0.0014,
      "velocity": 127,
      "chip": "ym2612"
    },
    {
      "channel": 1,
      "note": 76,
      "start": 7.7964,
      "duration": 0.0008,
      "velocity": 93,
      "chip": "ym2612"
    },
    {
      "channel": 3,
      "note": 35,
      "start": 7.7966,
      "duration": 0.0497,
      "velocity": 105,
      "chip": "ym2612"
    },
    {
      "channel": 4,
      "note": 59,
      "start": 7.7966,
      "duration": 0.0007,
      "velocity": 120,
      "chip": "ym2612"
    },
    {
      "channel": 4,
      "note": 59,
      "start": 7.7973,
      "duration": 0.0007,
      "velocity": 120,
      "chip": "ym2612"
    },
    {
      "channel": 4,
      "note": 59,
      "start": 7.798,
      "duration": 0.0004,
      "velocity": 120,
      "chip": "ym2612"
    },
    {
      "channel": 4,
      "note": 59,
      "start": 7.7984,
      "duration": 0.0081,
      "velocity": 120,
      "chip": "ym2612"
    },
    {
      "channel": 0,
      "note": 59,
      "start": 7.8063,
      "duration": 0.0995,
      "velocity": 127,
      "chip": "ym2612"
    },
    {
      "channel": 1,
      "note": 78,
      "start": 7.8064,
      "duration": 0.0398,
      "velocity": 93,
      "chip": "ym2612"
    },
    {
      "channel": 4,
      "note": 59,
      "start": 7.8066,
      "duration": 0.0398,
      "velocity": 120,
      "chip": "ym2612"
    },
    {
      "channel": 4,
      "note": 59,
      "start": 7.8463,
      "duration": 0.0399,
      "velocity": 120,
      "chip": "ym2612"
    },
    {
      "channel": 4,
      "note": 59,
      "start": 7.8862,
      "duration": 0.0399,
      "velocity": 120,
      "chip": "ym2612"
    },
    {
      "channel": 4,
      "note": 59,
      "start": 7.9262,
      "duration": 0.0403,
      "velocity": 120,
      "chip": "ym2612"
    },
    {
      "channel": 1,
      "note": 71,
      "start": 7.9663,
      "duration": 0.0398,
      "velocity": 93,
      "chip": "ym2612"
    },
    {
      "channel": 3,
      "note": 35,
      "start": 7.9664,
      "duration": 0.0798,
      "velocity": 105,
      "chip": "ym2612"
    },
    {
      "channel": 4,
      "note": 59,
      "start": 7.9665,
      "duration": 0.0398,
      "velocity": 120,
      "chip": "ym2612"
    },
    {
      "channel": 4,
      "note": 59,
      "start": 8.0063,
      "duration": 0.04,
      "velocity": 120,
      "chip": "ym2612"
    },
    {
      "channel": 4,
      "note": 59,
      "start": 8.0462,
      "duration": 0.0399,
      "velocity": 120,
      "chip": "ym2612"
    },
    {
      "channel": 4,
      "note": 59,
      "start": 8.0862,
      "duration": 0.0406,
      "velocity": 120,
      "chip": "ym2612"
    },
    {
      "channel": 0,
      "note": 59,
      "start": 8.1265,
      "duration": 0.0024,
      "velocity": 127,
      "chip": "ym2612"
    },
    {
      "channel": 1,
      "note": 71,
      "start": 8.1266,
      "duration": 0.0016,
      "velocity": 93,
      "chip": "ym2612"
    },
    {
      "channel": 3,
      "note": 35,
      "start": 8.1267,
      "duration": 0.0603,
      "velocity": 105,
      "chip": "ym2612"
    },
    {
      "channel": 4,
      "note": 59,
      "start": 8.1267,
      "duration": 0.0016,
      "velocity": 120,
      "chip": "ym2612"
    },
    {
      "channel": 4,
      "note": 59,
      "start": 8.1283,
      "duration": 0.0007,
      "velocity": 120,
      "chip": "ym2612"
    },
    {
      "channel": 4,
      "note": 59,
      "start": 8.129,
      "duration": 0.0159,
      "velocity": 120,
      "chip": "ym2612"
    },
    {
      "channel": 4,
      "note": 59,
      "start": 8.145,
      "duration": 0.0404,
      "velocity": 120,
      "chip": "ym2612"
    },
    {
      "channel": 0,
      "note": 71,
      "start": 8.1852,
      "duration": 0.0015,
      "velocity": 127,
      "chip": "ym2612"
    },
    {
      "channel": 1,
      "note": 79,
      "start": 8.1853,
      "duration": 0.0007,
      "velocity": 93,
      "chip": "ym2612"
    },
    {
      "channel": 4,
      "note": 59,
      "start": 8.1854,
      "duration": 0.0007,
      "velocity": 120,
      "chip": "ym2612"
    },
    {
      "channel": 4,
      "note": 59,
      "start": 8.1861,
      "duration": 0.0005,
      "velocity": 120,
      "chip": "ym2612"
    },
    {
      "channel": 4,
      "note": 59,
      "start": 8.1866,
      "duration": 0.0005,
      "velocity": 120,
      "chip": "ym2612"
    },
    {
      "channel": 4,
      "note": 59,
      "start": 8.1871,
      "duration": 0.0009,
      "velocity": 120,
      "chip": "ym2612"
    },
    {
      "channel": 0,
      "note": 59,
      "start": 8.1877,
      "duration": 0.0673,
      "velocity": 127,
      "chip": "ym2612"
    },
    {
      "channel": 1,
      "note": 76,
      "start": 8.1878,
      "duration": 0.0273,
      "velocity": 93,
      "chip": "ym2612"
    },
    {
      "channel": 3,
      "note": 33,
      "start": 8.1879,
      "duration": 0.1269,
      "velocity": 105,
      "chip": "ym2612"
    },
    {
      "channel": 4,
      "note": 59,
      "start": 8.1879,
      "duration": 0.0272,
      "velocity": 120,
      "chip": "ym2612"
    },
    {
      "channel": 4,
      "note": 59,
      "start": 8.2151,
      "duration": 0.0399,
      "velocity": 120,
      "chip": "ym2612"
    },
    {
      "channel": 4,
      "note": 59,
      "start": 8.2551,
      "duration": 0.04,
      "velocity": 120,
      "chip": "ym2612"
    },
    {
      "channel": 4,
      "note": 59,
      "start": 8.295,
      "duration": 0.0405,
      "velocity": 120,
      "chip": "ym2612"
    },
    {
      "channel": 0,
      "note": 59,
      "start": 8.3353,
      "duration": 0.0022,
      "velocity": 127,
      "chip": "ym2612"
    },
    {
      "channel": 1,
      "note": 76,
      "start": 8.3354,
      "duration": 0.0019,
      "velocity": 93,
      "chip": "ym2612"
    },
    {
      "channel": 3,
      "note": 35,
      "start": 8.3355,
      "duration": 0.1182,
      "velocity": 105,
      "chip": "ym2612"
    },
    {
      "channel": 4,
      "note": 59,
      "start": 8.3355,
      "duration": 0.0018,
      "velocity": 120,
      "chip": "ym2612"
    },
    {
      "channel": 4,
      "note": 59,
      "start": 8.3373,
      "duration": 0.0005,
      "velocity": 120,
      "chip": "ym2612"
    },
    {
      "channel": 4,
      "note": 59,
      "start": 8.3378,
      "duration": 0.016,
      "velocity": 120,
      "chip": "ym2612"
    },
    {
      "channel": 4,
      "note": 59,
      "start": 8.3538,
      "duration": 0.0403,
      "velocity": 120,
      "chip": "ym2612"
    },
    {
      "channel": 0,
      "note": 59,
      "start": 8.3939,
      "duration": 0.0995,
      "velocity": 127,
      "chip": "ym2612"
    },
    {
      "channel": 1,
      "note": 78,
      "start": 8.394,
      "duration": 0.0398,
      "velocity": 93,
      "chip": "ym2612"
    },
    {
      "channel": 4,
      "note": 59,
      "start": 8.3941,
      "duration": 0.0398,
      "velocity": 120,
      "chip": "ym2612"
    },
    {
      "channel": 4,
      "note": 59,
      "start": 8.4339,
      "duration": 0.0399,
      "velocity": 120,
      "chip": "ym2612"
    },
    {
      "channel": 4,
      "note": 59,
      "start": 8.4738,
      "duration": 0.0399,
      "velocity": 120,
      "chip": "ym2612"
    },
    {
      "channel": 4,
      "note": 59,
      "start": 8.5138,
      "duration": 0.0404,
      "velocity": 120,
      "chip": "ym2612"
    },
    {
      "channel": 1,
      "note": 71,
      "start": 8.554,
      "duration": 0.0007,
      "velocity": 93,
      "chip": "ym2612"
    },
    {
      "channel": 3,
      "note": 35,
      "start": 8.5541,
      "duration": 0.001,
      "velocity": 105,
      "chip": "ym2612"
    },
    {
      "channel": 4,
      "note": 59,
      "start": 8.5541,
      "duration": 0.0006,
      "velocity": 120,
      "chip": "ym2612"
    },
    {
      "channel": 4,
      "note": 59,
      "start": 8.5548,
      "duration": 0.0003,
      "velocity": 120,
      "chip": "ym2612"
    },
    {
      "channel": 4,
      "note": 59,
      "start": 8.5551,
      "duration": 0.0004,
      "velocity": 120,
      "chip": "ym2612"
    },
    {
      "channel": 2,
      "note": 59,
      "start": 8.5553,
      "duration": 0.2788,
      "velocity": 83,
      "chip": "ym2612"
    },
    {
      "channel": 4,
      "note": 59,
      "start": 8.5555,
      "duration": 0.0011,
      "velocity": 120,
      "chip": "ym2612"
    },
    {
      "channel": 0,
      "note": 59,
      "start": 8.5563,
      "duration": 0.0037,
      "velocity": 127,
      "chip": "ym2612"
    },
    {
      "channel": 1,
      "note": 71,
      "start": 8.5564,
      "duration": 0.0019,
      "velocity": 93,
      "chip": "ym2612"
    },
    {
      "channel": 3,
      "note": 35,
      "start": 8.5565,
      "duration": 0.1582,
      "velocity": 105,
      "chip": "ym2612"
    },
    {
      "channel": 4,
      "note": 59,
      "start": 8.5566,
      "duration": 0.0018,
      "velocity": 120,
      "chip": "ym2612"
    },
    {
      "channel": 4,
      "note": 59,
      "start": 8.5584,
      "duration": 0.0005,
      "velocity": 120,
      "chip": "ym2612"
    },
    {
      "channel": 4,
      "note": 59,
      "start": 8.559,
      "duration": 0.016,
      "velocity": 120,
      "chip": "ym2612"
    },
    {
      "channel": 4,
      "note": 59,
      "start": 8.5749,
      "duration": 0.0404,
      "velocity": 120,
      "chip": "ym2612"
    },
    {
      "channel": 0,
      "note": 71,
      "start": 8.6151,
      "duration": 0.0995,
      "velocity": 127,
      "chip": "ym2612"
    },
    {
      "channel": 1,
      "note": 79,
      "start": 8.6152,
      "duration": 0.0398,
      "velocity": 93,
      "chip": "ym2612"
    },
    {
      "channel": 4,
      "note": 59,
      "start": 8.6153,
      "duration": 0.0398,
      "velocity": 120,
      "chip": "ym2612"
    },
    {
      "channel": 4,
      "note": 59,
      "start": 8.655,
      "duration": 0.0399,
      "velocity": 120,
      "chip": "ym2612"
    },
    {
      "channel": 4,
      "note": 59,
      "start": 8.695,
      "duration": 0.0399,
      "velocity": 120,
      "chip": "ym2612"
    },
    {
      "channel": 4,
      "note": 59,
      "start": 8.7349,
      "duration": 0.0406,
      "velocity": 120,
      "chip": "ym2612"
    },
    {
      "channel": 0,
      "note": 59,
      "start": 8.7752,
      "duration": 0.0035,
      "velocity": 127,
      "chip": "ym2612"
    },
    {
      "channel": 1,
      "note": 76,
      "start": 8.7753,
      "duration": 0.0016,
      "velocity": 93,
      "chip": "ym2612"
    },
    {
      "channel": 3,
      "note": 35,
      "start": 8.7754,
      "duration": 0.0602,
      "velocity": 105,
      "chip": "ym2612"
    },
    {
      "channel": 4,
      "note": 59,
      "start": 8.7755,
      "duration": 0.0015,
      "velocity": 120,
      "chip": "ym2612"
    },
    {
      "channel": 4,
      "note": 59,
      "start": 8.777,
      "duration": 0.0005,
      "velocity": 120,
      "chip": "ym2612"
    },
    {
      "channel": 4,
      "note": 59,
      "start": 8.7775,
      "duration": 0.0014,
      "velocity": 120,
      "chip": "ym2612"
    },
    {
      "channel": 4,
      "note": 59,
      "start": 8.7789,
      "duration": 0.0553,
      "velocity": 120,
      "chip": "ym2612"
    },
    {
      "channel": 0,
      "note": 69,
      "start": 8.834,
      "duration": 0.0011,
      "velocity": 127,
      "chip": "ym2612"
    },
    {
      "channel": 1,
      "note": 78,
      "start": 8.834,
      "duration": 0.0007,
      "velocity": 93,
      "chip": "ym2612"
    },
    {
      "channel": 2,
      "note": 62,
      "start": 8.8341,
      "duration": 0.0023,
      "velocity": 83,
      "chip": "ym2612"
    },
    {
      "channel": 4,
      "note": 59,
      "start": 8.8342,
      "duration": 0.0007,
      "velocity": 120,
      "chip": "ym2612"
    },
    {
      "channel": 4,
      "note": 59,
      "start": 8.8349,
      "duration": 0.0004,
      "velocity": 120,
      "chip": "ym2612"
    },
    {
      "channel": 4,
      "note": 59,
      "start": 8.8353,
      "duration": 0.0004,
      "velocity": 120,
      "chip": "ym2612"
    },
    {
      "channel": 4,
      "note": 59,
      "start": 8.8357,
      "duration": 0.0009,
      "velocity": 120,
      "chip": "ym2612"
    },
    {
      "channel": 0,
      "note": 59,
      "start": 8.8363,
      "duration": 0.0672,
      "velocity": 127,
      "chip": "ym2612"
    },
    {
      "channel": 1,
      "note": 71,
      "start": 8.8364,
      "duration": 0.0272,
      "velocity": 93,
      "chip": "ym2612"
    },
    {
      "channel": 2,
      "note": 59,
      "start": 8.8365,
      "duration": 0.1477,
      "velocity": 83,
      "chip": "ym2612"
    },
    {
      "channel": 3,
      "note": 33,
      "start": 8.8365,
      "duration": 0.0868,
      "velocity": 105,
      "chip": "ym2612"
    },
    {
      "channel": 4,
      "note": 59,
      "start": 8.8366,
      "duration": 0.0271,
      "velocity": 120,
      "chip": "ym2612"
    },
    {
      "channel": 4,
      "note": 59,
      "start": 8.8637,
      "duration": 0.0399,
      "velocity": 120,
      "chip": "ym2612"
    },
    {
      "channel": 4,
      "note": 59,
      "start": 8.9037,
      "duration": 0.0399,
      "velocity": 120,
      "chip": "ym2612"
    },
    {
      "channel": 4,
      "note": 59,
      "start": 8.9436,
      "duration": 0.0408,
      "velocity": 120,
      "chip": "ym2612"
    },
    {
      "channel": 0,
      "note": 71,
      "start": 8.9841,
      "duration": 0.0022,
      "velocity": 127,
      "chip": "ym2612"
    },
    {
      "channel": 1,
      "note": 79,
      "start": 8.9841,
      "duration": 0.0016,
      "velocity": 93,
      "chip": "ym2612"
    },
    {
      "channel": 2,
      "note": 64,
      "start": 8.9843,
      "duration": 0.2207,
      "velocity": 83,
      "chip": "ym2612"
    },
    {
      "channel": 3,
      "note": 35,
      "start": 8.9843,
      "duration": 0.1379,
      "velocity": 105,
      "chip": "ym2612"
    },
    {
      "channel": 4,
      "note": 59,
      "start": 8.9844,
      "duration": 0.0015,
      "velocity": 120,
      "chip": "ym2612"
    },
    {
      "channel": 4,
      "note": 59,
      "start": 8.9859,
      "duration": 0.0005,
      "velocity": 120,
      "chip": "ym2612"
    },
    {
      "channel": 4,
      "note": 59,
      "start": 8.9864,
      "duration": 0.0014,
      "velocity": 120,
      "chip": "ym2612"
    },
    {
      "channel": 4,
      "note": 59,
      "start": 8.9878,
      "duration": 0.0549,
      "velocity": 120,
      "chip": "ym2612"
    },
    {
      "channel": 0,
      "note": 59,
      "start": 9.0425,
      "duration": 0.0595,
      "velocity": 127,
      "chip": "ym2612"
    },
    {
      "channel": 1,
      "note": 76,
      "start": 9.0426,
      "duration": 0.0398,
      "velocity": 93,
      "chip": "ym2612"
    },
    {
      "channel": 4,
      "note": 59,
      "start": 9.0427,
      "duration": 0.0398,
      "velocity": 120,
      "chip": "ym2612"
    },
    {
      "channel": 4,
      "note": 59,
      "start": 9.0824,
      "duration": 0.0399,
      "velocity": 120,
      "chip": "ym2612"
    },
    {
      "channel": 4,
      "note": 59,
      "start": 9.1223,
      "duration": 0.0399,
      "velocity": 120,
      "chip": "ym2612"
    },
    {
      "channel": 4,
      "note": 59,
      "start": 9.1623,
      "duration": 0.0406,
      "velocity": 120,
      "chip": "ym2612"
    },
    {
      "channel": 0,
      "note": 59,
      "start": 9.2026,
      "duration": 0.0011,
      "velocity": 127,
      "chip": "ym2612"
    },
    {
      "channel": 1,
      "note": 76,
      "start": 9.2027,
      "duration": 0.0008,
      "velocity": 93,
      "chip": "ym2612"
    },
    {
      "channel": 3,
      "note": 35,
      "start": 9.2028,
      "duration": 0.0493,
      "velocity": 105,
      "chip": "ym2612"
    },
    {
      "channel": 4,
      "note": 59,
      "start": 9.2028,
      "duration": 0.0007,
      "velocity": 120,
      "chip": "ym2612"
    },
    {
      "channel": 4,
      "note": 59,
      "start": 9.2036,
      "duration": 0.0004,
      "velocity": 120,
      "chip": "ym2612"
    },
    {
      "channel": 4,
      "note": 59,
      "start": 9.204,
      "duration": 0.0004,
      "velocity": 120,
      "chip": "ym2612"
    },
    {
      "channel": 4,
      "note": 59,
      "start": 9.2044,
      "duration": 0.0008,
      "velocity": 120,
      "chip": "ym2612"
    },
    {
      "channel": 0,
      "note": 59,
      "start": 9.2049,
      "duration": 0.1273,
      "velocity": 127,
      "chip": "ym2612"
    },
    {
      "channel": 1,
      "note": 78,
      "start": 9.205,
      "duration": 0.0273,
      "velocity": 93,
      "chip": "ym2612"
    },
    {
      "channel": 2,
      "note": 62,
      "start": 9.205,
      "duration": 0.3458,
      "velocity": 83,
      "chip": "ym2612"
    },
    {
      "channel": 4,
      "note": 59,
      "start": 9.2051,
      "duration": 0.0273,
      "velocity": 120,
      "chip": "ym2612"
    },
    {
      "channel": 4,
      "note": 59,
      "start": 9.2324,
      "duration": 0.0399,
      "velocity": 120,
      "chip": "ym2612"
    },
    {
      "channel": 4,
      "note": 59,
      "start": 9.2723,
      "duration": 0.06,
      "velocity": 120,
      "chip": "ym2612"
    },
    {
      "channel": 4,
      "note": 59,
      "start": 9.3323,
      "duration": 0.0402,
      "velocity": 120,
      "chip": "ym2612"
    },
    {
      "channel": 1,
      "note": 71,
      "start": 9.3724,
      "duration": 0.0398,
      "velocity": 93,
      "chip": "ym2612"
    },
    {
      "channel": 3,
      "note": 35,
      "start": 9.3725,
      "duration": 0.0595,
      "velocity": 105,
      "chip": "ym2612"
    },
    {
      "channel": 4,
      "note": 59,
      "start": 9.3726,
      "duration": 0.0398,
      "velocity": 120,
      "chip": "ym2612"
    },
    {
      "channel": 4,
      "note": 59,
      "start": 9.4124,
      "duration": 0.0399,
      "velocity": 120,
      "chip": "ym2612"
    },
    {
      "channel": 4,
      "note": 59,
      "start": 9.4522,
      "duration": 0.04,
      "velocity": 120,
      "chip": "ym2612"
    },
    {
      "channel": 4,
      "note": 59,
      "start": 9.4922,
      "duration": 0.0406,
      "velocity": 120,
      "chip": "ym2612"
    },
    {
      "channel": 0,
      "note": 59,
      "start": 9.5326,
      "duration": 0.0037,
      "velocity": 127,
      "chip": "ym2612"
    },
    {
      "channel": 1,
      "note": 71,
      "start": 9.5326,
      "duration": 0.0016,
      "velocity": 93,
      "chip": "ym2612"
    },
    {
      "channel": 3,
      "note": 35,
      "start": 9.5327,
      "duration": 0.04,
      "velocity": 105,
      "chip": "ym2612"
    },
    {
      "channel": 4,
      "note": 59,
      "start": 9.5328,
      "duration": 0.0015,
      "velocity": 120,
      "chip": "ym2612"
    },
    {
      "channel": 4,
      "note": 59,
      "start": 9.5344,
      "duration": 0.0006,
      "velocity": 120,
      "chip": "ym2612"
    },
    {
      "channel": 4,
      "note": 59,
      "start": 9.5349,
      "duration": 0.0014,
      "velocity": 120,
      "chip": "ym2612"
    },
    {
      "channel": 4,
      "note": 59,
      "start": 9.5363,
      "duration": 0.0352,
      "velocity": 120,
      "chip": "ym2612"
    },
    {
      "channel": 0,
      "note": 71,
      "start": 9.5714,
      "duration": 0.0011,
      "velocity": 127,
      "chip": "ym2612"
    },
    {
      "channel": 1,
      "note": 79,
      "start": 9.5715,
      "duration": 0.0007,
      "velocity": 93,
      "chip": "ym2612"
    },
    {
      "channel": 2,
      "note": 61,
      "start": 9.5715,
      "duration": 0.2084,
      "velocity": 83,
      "chip": "ym2612"
    },
    {
      "channel": 4,
      "note": 55,
      "start": 9.5734,
      "duration": 0.4263,
      "velocity": 120,
      "chip": "ym2612"
    },
    {
      "channel": 0,
      "note": 59,
      "start": 9.5812,
      "duration": 0.0597,
      "velocity": 127,
      "chip": "ym2612"
    },
    {
      "channel": 1,
      "note": 76,
      "start": 9.5813,
      "duration": 0.0398,
      "velocity": 93,
      "chip": "ym2612"
    },
    {
      "channel": 3,
      "note": 33,
      "start": 9.5814,
      "duration": 0.0995,
      "velocity": 105,
      "chip": "ym2612"
    },
    {
      "channel": 0,
      "note": 59,
      "start": 9.7413,
      "duration": 0.0018,
      "velocity": 127,
      "chip": "ym2612"
    },
    {
      "channel": 1,
      "note": 76,
      "start": 9.7413,
      "duration": 0.0015,
      "velocity": 93,
      "chip": "ym2612"
    },
    {
      "channel": 3,
      "note": 35,
      "start": 9.7415,
      "duration": 0.0782,
      "velocity": 105,
      "chip": "ym2612"
    },
    {
      "channel": 0,
      "note": 59,
      "start": 9.7798,
      "duration": 0.0996,
      "velocity": 127,
      "chip": "ym2612"
    },
    {
      "channel": 1,
      "note": 78,
      "start": 9.7799,
      "duration": 0.0398,
      "velocity": 93,
      "chip": "ym2612"
    },
    {
      "channel": 2,
      "note": 59,
      "start": 9.78,
      "duration": 0.2196,
      "velocity": 83,
      "chip": "ym2612"
    },
    {
      "channel": 1,
      "note": 71,
      "start": 9.9598,
      "duration": 0.0006,
      "velocity": 93,
      "chip": "ym2612"
    },
    {
      "channel": 3,
      "note": 35,
      "start": 9.9599,
      "duration": 0.0012,
      "velocity": 105,
      "chip": "ym2612"
    },
    {
      "channel": 0,
      "note": 59,
      "start": 9.9615,
      "duration": 0.0026,
      "velocity": 127,
      "chip": "ym2612"
    },
    {
      "channel": 1,
      "note": 71,
      "start": 9.9616,
      "duration": 0.0006,
      "velocity": 93,
      "chip": "ym2612"
    },
    {
      "channel": 3,
      "note": 35,
      "start": 9.9617,
      "duration": 0.1773,
      "velocity": 105,
      "chip": "ym2612"
    },
    {
      "channel": 0,
      "note": 71,
      "start": 9.9995,
      "duration": 0.0996,
      "velocity": 127,
      "chip": "ym2612"
    },
    {
      "channel": 1,
      "note": 79,
      "start": 9.9995,
      "duration": 0.0397,
      "velocity": 93,
      "chip": "ym2612"
    },
    {
      "channel": 2,
      "note": 57,
      "start": 9.9996,
      "duration": 0.2188,
      "velocity": 83,
      "chip": "ym2612"
    },
    {
      "channel": 4,
      "note": 54,
      "start": 9.9997,
      "duration": 0.3684,
      "velocity": 120,
      "chip": "ym2612"
    },
    {
      "channel": 0,
      "note": 59,
      "start": 10.1795,
      "duration": 0.0035,
      "velocity": 127,
      "chip": "ym2612"
    },
    {
      "channel": 1,
      "note": 76,
      "start": 10.1795,
      "duration": 0.0016,
      "velocity": 93,
      "chip": "ym2612"
    },
    {
      "channel": 3,
      "note": 38,
      "start": 10.1797,
      "duration": 0.0395,
      "velocity": 105,
      "chip": "ym2612"
    },
    {
      "channel": 0,
      "note": 69,
      "start": 10.2183,
      "duration": 0.0014,
      "velocity": 127,
      "chip": "ym2612"
    },
    {
      "channel": 1,
      "note": 78,
      "start": 10.2184,
      "duration": 0.0007,
      "velocity": 93,
      "chip": "ym2612"
    },
    {
      "channel": 2,
      "note": 54,
      "start": 10.2185,
      "duration": 0.0024,
      "velocity": 83,
      "chip": "ym2612"
    },
    {
      "channel": 0,
      "note": 59,
      "start": 10.2208,
      "duration": 0.1272,
      "velocity": 127,
      "chip": "ym2612"
    },
    {
      "channel": 1,
      "note": 71,
      "start": 10.2209,
      "duration": 0.0473,
      "velocity": 93,
      "chip": "ym2612"
    },
    {
      "channel": 2,
      "note": 55,
      "start": 10.221,
      "duration": 1.0634,
      "velocity": 83,
      "chip": "ym2612"
    },
    {
      "channel": 3,
      "note": 38,
      "start": 10.221,
      "duration": 0.1271,
      "velocity": 105,
      "chip": "ym2612"
    },
    {
      "channel": 4,
      "note": 52,
      "start": 10.3682,
      "duration": 0.9774,
      "velocity": 120,
      "chip": "ym2612"
    },
    {
      "channel": 0,
      "note": 76,
      "start": 10.3884,
      "duration": 0.0018,
      "velocity": 127,
      "chip": "ym2612"
    },
    {
      "channel": 1,
      "note": 79,
      "start": 10.3885,
      "duration": 0.0016,
      "velocity": 93,
      "chip": "ym2612"
    },
    {
      "channel": 3,
      "note": 40,
      "start": 10.3886,
      "duration": 0.1381,
      "velocity": 105,
      "chip": "ym2612"
    },
    {
      "channel": 0,
      "note": 64,
      "start": 10.427,
      "duration": 0.0797,
      "velocity": 127,
      "chip": "ym2612"
    },
    {
      "channel": 1,
      "note": 76,
      "start": 10.4271,
      "duration": 0.0398,
      "velocity": 93,
      "chip": "ym2612"
    },
    {
      "channel": 0,
      "note": 64,
      "start": 10.5872,
      "duration": 0.0013,
      "velocity": 127,
      "chip": "ym2612"
    },
    {
      "channel": 1,
      "note": 76,
      "start": 10.5873,
      "duration": 0.001,
      "velocity": 93,
      "chip": "ym2612"
    },
    {
      "channel": 3,
      "note": 40,
      "start": 10.5873,
      "duration": 0.0298,
      "velocity": 105,
      "chip": "ym2612"
    },
    {
      "channel": 0,
      "note": 64,
      "start": 10.5971,
      "duration": 0.0997,
      "velocity": 127,
      "chip": "ym2612"
    },
    {
      "channel": 1,
      "note": 78,
      "start": 10.5972,
      "duration": 0.0398,
      "velocity": 93,
      "chip": "ym2612"
    },
    {
      "channel": 1,
      "note": 71,
      "start": 10.7571,
      "duration": 0.0398,
      "velocity": 93,
      "chip": "ym2612"
    },
    {
      "channel": 3,
      "note": 40,
      "start": 10.7572,
      "duration": 0.0797,
      "velocity": 105,
      "chip": "ym2612"
    },
    {
      "channel": 0,
      "note": 64,
      "start": 10.9373,
      "duration": 0.002,
      "velocity": 127,
      "chip": "ym2612"
    },
    {
      "channel": 1,
      "note": 71,
      "start": 10.9373,
      "duration": 0.0015,
      "velocity": 93,
      "chip": "ym2612"
    },
    {
      "channel": 3,
      "note": 40,
      "start": 10.9375,
      "duration": 0.0402,
      "velocity": 105,
      "chip": "ym2612"
    },
    {
      "channel": 0,
      "note": 76,
      "start": 10.9758,
      "duration": 0.0015,
      "velocity": 127,
      "chip": "ym2612"
    },
    {
      "channel": 1,
      "note": 79,
      "start": 10.9759,
      "duration": 0.0007,
      "velocity": 93,
      "chip": "ym2612"
    },
    {
      "channel": 0,
      "note": 64,
      "start": 10.9783,
      "duration": 0.0673,
      "velocity": 127,
      "chip": "ym2612"
    },
    {
      "channel": 1,
      "note": 76,
      "start": 10.9784,
      "duration": 0.0273,
      "velocity": 93,
      "chip": "ym2612"
    },
    {
      "channel": 3,
      "note": 38,
      "start": 10.9785,
      "duration": 0.1071,
      "velocity": 105,
      "chip": "ym2612"
    },
    {
      "channel": 0,
      "note": 64,
      "start": 11.146,
      "duration": 0.0017,
      "velocity": 127,
      "chip": "ym2612"
    },
    {
      "channel": 1,
      "note": 76,
      "start": 11.1461,
      "duration": 0.0015,
      "velocity": 93,
      "chip": "ym2612"
    },
    {
      "channel": 3,
      "note": 40,
      "start": 11.1462,
      "duration": 0.0981,
      "velocity": 105,
      "chip": "ym2612"
    },
    {
      "channel": 0,
      "note": 64,
      "start": 11.1845,
      "duration": 0.0997,
      "velocity": 127,
      "chip": "ym2612"
    },
    {
      "channel": 1,
      "note": 78,
      "start": 11.1846,
      "duration": 0.0398,
      "velocity": 93,
      "chip": "ym2612"
    },
    {
      "channel": 2,
      "note": 55,
      "start": 11.2843,
      "duration": 0.8863,
      "velocity": 83,
      "chip": "ym2612"
    },
    {
      "channel": 1,
      "note": 71,
      "start": 11.3445,
      "duration": 0.0006,
      "velocity": 93,
      "chip": "ym2612"
    },
    {
      "channel": 3,
      "note": 40,
      "start": 11.3446,
      "duration": 0.0009,
      "velocity": 105,
      "chip": "ym2612"
    },
    {
      "channel": 4,
      "note": 52,
      "start": 11.3456,
      "duration": 0.9668,
      "velocity": 120,
      "chip": "ym2612"
    },
    {
      "channel": 0,
      "note": 64,
      "start": 11.3545,
      "duration": 0.0021,
      "velocity": 127,
      "chip": "ym2612"
    },
    {
      "channel": 1,
      "note": 71,
      "start": 11.3545,
      "duration": 0.0015,
      "velocity": 93,
      "chip": "ym2612"
    },
    {
      "channel": 3,
      "note": 40,
      "start": 11.3565,
      "duration": 0.1565,
      "velocity": 105,
      "chip": "ym2612"
    },
    {
      "channel": 0,
      "note": 76,
      "start": 11.3932,
      "duration": 0.0997,
      "velocity": 127,
      "chip": "ym2612"
    },
    {
      "channel": 1,
      "note": 79,
      "start": 11.3933,
      "duration": 0.0398,
      "velocity": 93,
      "chip": "ym2612"
    },
    {
      "channel": 0,
      "note": 64,
      "start": 11.5534,
      "duration": 0.0035,
      "velocity": 127,
      "chip": "ym2612"
    },
    {
      "channel": 1,
      "note": 76,
      "start": 11.5534,
      "duration": 0.0016,
      "velocity": 93,
      "chip": "ym2612"
    },
    {
      "channel": 3,
      "note": 40,
      "start": 11.5536,
      "duration": 0.0612,
      "velocity": 105,
      "chip": "ym2612"
    },
    {
      "channel": 0,
      "note": 74,
      "start": 11.6121,
      "duration": 0.001,
      "velocity": 127,
      "chip": "ym2612"
    },
    {
      "channel": 1,
      "note": 78,
      "start": 11.6122,
      "duration": 0.0007,
      "velocity": 93,
      "chip": "ym2612"
    },
    {
      "channel": 0,
      "note": 64,
      "start": 11.6146,
      "duration": 0.0673,
      "velocity": 127,
      "chip": "ym2612"
    },
    {
      "channel": 1,
      "note": 71,
      "start": 11.6147,
      "duration": 0.0273,
      "velocity": 93,
      "chip": "ym2612"
    },
    {
      "channel": 3,
      "note": 38,
      "start": 11.6148,
      "duration": 0.1071,
      "velocity": 105,
      "chip": "ym2612"
    },
    {
      "channel": 0,
      "note": 76,
      "start": 11.7623,
      "duration": 0.0023,
      "velocity": 127,
      "chip": "ym2612"
    },
    {
      "channel": 1,
      "note": 79,
      "start": 11.7623,
      "duration": 0.0016,
      "velocity": 93,
      "chip": "ym2612"
    },
    {
      "channel": 3,
      "note": 40,
      "start": 11.7625,
      "duration": 0.0983,
      "velocity": 105,
      "chip": "ym2612"
    },
    {
      "channel": 0,
      "note": 64,
      "start": 11.8209,
      "duration": 0.0597,
      "velocity": 127,
      "chip": "ym2612"
    },
    {
      "channel": 1,
      "note": 76,
      "start": 11.8209,
      "duration": 0.0398,
      "velocity": 93,
      "chip": "ym2612"
    },
    {
      "channel": 0,
      "note": 64,
      "start": 11.981,
      "duration": 0.0009,
      "velocity": 127,
      "chip": "ym2612"
    },
    {
      "channel": 1,
      "note": 76,
      "start": 11.9811,
      "duration": 0.0007,
      "velocity": 93,
      "chip": "ym2612"
    },
    {
      "channel": 3,
      "note": 40,
      "start": 11.9812,
      "duration": 0.0294,
      "velocity": 105,
      "chip": "ym2612"
    },
    {
      "channel": 0,
      "note": 64,
      "start": 11.9832,
      "duration": 0.1273,
      "velocity": 127,
      "chip": "ym2612"
    },
    {
      "channel": 1,
      "note": 78,
      "start": 11.9832,
      "duration": 0.0274,
      "velocity": 93,
      "chip": "ym2612"
    },
    {
      "channel": 1,
      "note": 71,
      "start": 12.1507,
      "duration": 0.0398,
      "velocity": 93,
      "chip": "ym2612"
    },
    {
      "channel": 3,
      "note": 40,
      "start": 12.1508,
      "duration": 0.0598,
      "velocity": 105,
      "chip": "ym2612"
    },
    {
      "channel": 2,
      "note": 55,
      "start": 12.1706,
      "duration": 0.1798,
      "velocity": 83,
      "chip": "ym2612"
    },
    {
      "channel": 0,
      "note": 64,
      "start": 12.3109,
      "duration": 0.0035,
      "velocity": 127,
      "chip": "ym2612"
    },
    {
      "channel": 1,
      "note": 71,
      "start": 12.311,
      "duration": 0.0015,
      "velocity": 93,
      "chip": "ym2612"
    },
    {
      "channel": 3,
      "note": 40,
      "start": 12.3111,
      "duration": 0.0401,
      "velocity": 105,
      "chip": "ym2612"
    },
    {
      "channel": 4,
      "note": 52,
      "start": 12.3124,
      "duration": 0.7602,
      "velocity": 120,
      "chip": "ym2612"
    },
    {
      "channel": 0,
      "note": 76,
      "start": 12.3496,
      "duration": 0.0014,
      "velocity": 127,
      "chip": "ym2612"
    },
    {
      "channel": 1,
      "note": 79,
      "start": 12.3497,
      "duration": 0.001,
      "velocity": 93,
      "chip": "ym2612"
    },
    {
      "channel": 0,
      "note": 64,
      "start": 12.3597,
      "duration": 0.0597,
      "velocity": 127,
      "chip": "ym2612"
    },
    {
      "channel": 1,
      "note": 76,
      "start": 12.3598,
      "duration": 0.0398,
      "velocity": 93,
      "chip": "ym2612"
    },
    {
      "channel": 3,
      "note": 38,
      "start": 12.3599,
      "duration": 0.0995,
      "velocity": 105,
      "chip": "ym2612"
    },
    {
      "channel": 0,
      "note": 64,
      "start": 12.5199,
      "duration": 0.0021,
      "velocity": 127,
      "chip": "ym2612"
    },
    {
      "channel": 1,
      "note": 76,
      "start": 12.52,
      "duration": 0.0016,
      "velocity": 93,
      "chip": "ym2612"
    },
    {
      "channel": 2,
      "note": 59,
      "start": 12.52,
      "duration": 0.0385,
      "velocity": 83,
      "chip": "ym2612"
    },
    {
      "channel": 3,
      "note": 40,
      "start": 12.5201,
      "duration": 0.0783,
      "velocity": 105,
      "chip": "ym2612"
    },
    {
      "channel": 0,
      "note": 64,
      "start": 12.5584,
      "duration": 0.0996,
      "velocity": 127,
      "chip": "ym2612"
    },
    {
      "channel": 1,
      "note": 78,
      "start": 12.5585,
      "duration": 0.0597,
      "velocity": 93,
      "chip": "ym2612"
    },
    {
      "channel": 2,
      "note": 59,
      "start": 12.5586,
      "duration": 0.1799,
      "velocity": 83,
      "chip": "ym2612"
    },
    {
      "channel": 1,
      "note": 71,
      "start": 12.7384,
      "duration": 0.0007,
      "velocity": 93,
      "chip": "ym2612"
    },
    {
      "channel": 2,
      "note": 62,
      "start": 12.7385,
      "duration": 0.0012,
      "velocity": 83,
      "chip": "ym2612"
    },
    {
      "channel": 3,
      "note": 40,
      "start": 12.7386,
      "duration": 0.0014,
      "velocity": 105,
      "chip": "ym2612"
    },
    {
      "channel": 0,
      "note": 64,
      "start": 12.7401,
      "duration": 0.0026,
      "velocity": 127,
      "chip": "ym2612"
    },
    {
      "channel": 1,
      "note": 71,
      "start": 12.7402,
      "duration": 0.0008,
      "velocity": 93,
      "chip": "ym2612"
    },
    {
      "channel": 2,
      "note": 64,
      "start": 12.7403,
      "duration": 0.218,
      "velocity": 83,
      "chip": "ym2612"
    },
    {
      "channel": 3,
      "note": 43,
      "start": 12.7404,
      "duration": 0.0974,
      "velocity": 105,
      "chip": "ym2612"
    },
    {
      "channel": 0,
      "note": 76,
      "start": 12.7979,
      "duration": 0.0797,
      "velocity": 127,
      "chip": "ym2612"
    },
    {
      "channel": 1,
      "note": 79,
      "start": 12.798,
      "duration": 0.0398,
      "velocity": 93,
      "chip": "ym2612"
    },
    {
      "channel": 0,
      "note": 64,
      "start": 12.9581,
      "duration": 0.004,
      "velocity": 127,
      "chip": "ym2612"
    },
    {
      "channel": 1,
      "note": 76,
      "start": 12.9582,
      "duration": 0.0016,
      "velocity": 93,
      "chip": "ym2612"
    },
    {
      "channel": 2,
      "note": 61,
      "start": 12.9582,
      "duration": 0.0065,
      "velocity": 83,
      "chip": "ym2612"
    },
    {
      "channel": 3,
      "note": 43,
      "start": 12.9583,
      "duration": 0.0055,
      "velocity": 105,
      "chip": "ym2612"
    },
    {
      "channel": 0,
      "note": 74,
      "start": 12.9626,
      "duration": 0.0014,
      "velocity": 127,
      "chip": "ym2612"
    },
    {
      "channel": 1,
      "note": 78,
      "start": 12.9626,
      "duration": 0.0007,
      "velocity": 93,
      "chip": "ym2612"
    },
    {
      "channel": 0,
      "note": 64,
      "start": 12.9728,
      "duration": 0.1195,
      "velocity": 127,
      "chip": "ym2612"
    },
    {
      "channel": 1,
      "note": 71,
      "start": 12.9729,
      "duration": 0.0396,
      "velocity": 93,
      "chip": "ym2612"
    },
    {
      "channel": 2,
      "note": 57,
      "start": 12.9729,
      "duration": 0.1601,
      "velocity": 83,
      "chip": "ym2612"
    },
    {
      "channel": 3,
      "note": 42,
      "start": 12.973,
      "duration": 0.1601,
      "velocity": 105,
      "chip": "ym2612"
    },
    {
      "channel": 4,
      "note": 52,
      "start": 13.0726,
      "duration": 0.0399,
      "velocity": 120,
      "chip": "ym2612"
    },
    {
      "channel": 4,
      "note": 59,
      "start": 13.1125,
      "duration": 0.0207,
      "velocity": 120,
      "chip": "ym2612"
    },
    {
      "channel": 0,
      "note": 71,
      "start": 13.133,
      "duration": 0.002,
      "velocity": 127,
      "chip": "ym2612"
    },
    {
      "channel": 1,
      "note": 79,
      "start": 13.133,
      "duration": 0.0016,
      "velocity": 93,
      "chip": "ym2612"
    },
    {
      "channel": 2,
      "note": 59,
      "start": 13.1331,
      "duration": 0.9575,
      "velocity": 83,
      "chip": "ym2612"
    },
    {
      "channel": 3,
      "note": 35,
      "start": 13.1332,
      "duration": 0.1182,
      "velocity": 105,
      "chip": "ym2612"
    },
    {
      "channel": 4,
      "note": 59,
      "start": 13.1332,
      "duration": 0.0015,
      "velocity": 120,
      "chip": "ym2612"
    },
    {
      "channel": 4,
      "note": 59,
      "start": 13.1348,
      "duration": 0.0005,
      "velocity": 120,
      "chip": "ym2612"
    },
    {
      "channel": 4,
      "note": 59,
      "start": 13.1353,
      "duration": 0.0013,
      "velocity": 120,
      "chip": "ym2612"
    },
    {
      "channel": 4,
      "note": 59,
      "start": 13.1366,
      "duration": 0.0351,
      "velocity": 120,
      "chip": "ym2612"
    },
    {
      "channel": 0,
      "note": 59,
      "start": 13.1715,
      "duration": 0.0798,
      "velocity": 127,
      "chip": "ym2612"
    },
    {
      "channel": 1,
      "note": 76,
      "start": 13.1716,
      "duration": 0.0398,
      "velocity": 93,
      "chip": "ym2612"
    },
    {
      "channel": 4,
      "note": 59,
      "start": 13.1717,
      "duration": 0.0398,
      "velocity": 120,
      "chip": "ym2612"
    },
    {
      "channel": 4,
      "note": 59,
      "start": 13.2115,
      "duration": 0.0399,
      "velocity": 120,
      "chip": "ym2612"
    },
    {
      "channel": 4,
      "note": 59,
      "start": 13.2514,
      "duration": 0.0599,
      "velocity": 120,
      "chip": "ym2612"
    },
    {
      "channel": 4,
      "note": 59,
      "start": 13.3113,
      "duration": 0.0406,
      "velocity": 120,
      "chip": "ym2612"
    },
    {
      "channel": 0,
      "note": 59,
      "start": 13.3516,
      "duration": 0.0011,
      "velocity": 127,
      "chip": "ym2612"
    },
    {
      "channel": 1,
      "note": 76,
      "start": 13.3517,
      "duration": 0.0008,
      "velocity": 93,
      "chip": "ym2612"
    },
    {
      "channel": 3,
      "note": 35,
      "start": 13.3518,
      "duration": 0.0297,
      "velocity": 105,
      "chip": "ym2612"
    },
    {
      "channel": 4,
      "note": 59,
      "start": 13.3519,
      "duration": 0.0007,
      "velocity": 120,
      "chip": "ym2612"
    },
    {
      "channel": 4,
      "note": 59,
      "start": 13.3526,
      "duration": 0.0005,
      "velocity": 120,
      "chip": "ym2612"
    },
    {
      "channel": 4,
      "note": 59,
      "start": 13.3531,
      "duration": 0.0004,
      "velocity": 120,
      "chip": "ym2612"
    },
    {
      "channel": 4,
      "note": 59,
      "start": 13.3535,
      "duration": 0.0007,
      "velocity": 120,
      "chip": "ym2612"
    },
    {
      "channel": 0,
      "note": 59,
      "start": 13.3539,
      "duration": 0.0871,
      "velocity": 127,
      "chip": "ym2612"
    },
    {
      "channel": 1,
      "note": 78,
      "start": 13.354,
      "duration": 0.0274,
      "velocity": 93,
      "chip": "ym2612"
    },
    {
      "channel": 4,
      "note": 59,
      "start": 13.3541,
      "duration": 0.0274,
      "velocity": 120,
      "chip": "ym2612"
    },
    {
      "channel": 4,
      "note": 59,
      "start": 13.3815,
      "duration": 0.0399,
      "velocity": 120,
      "chip": "ym2612"
    },
    {
      "channel": 4,
      "note": 59,
      "start": 13.4214,
      "duration": 0.0399,
      "velocity": 120,
      "chip": "ym2612"
    },
    {
      "channel": 4,
      "note": 59,
      "start": 13.4613,
      "duration": 0.0403,
      "velocity": 120,
      "chip": "ym2612"
    },
    {
      "channel": 1,
      "note": 71,
      "start": 13.5015,
      "duration": 0.0398,
      "velocity": 93,
      "chip": "ym2612"
    },
    {
      "channel": 3,
      "note": 35,
      "start": 13.5016,
      "duration": 0.0798,
      "velocity": 105,
      "chip": "ym2612"
    },
    {
      "channel": 4,
      "note": 59,
      "start": 13.5017,
      "duration": 0.0398,
      "velocity": 120,
      "chip": "ym2612"
    },
    {
      "channel": 4,
      "note": 59,
      "start": 13.5415,
      "duration": 0.04,
      "velocity": 120,
      "chip": "ym2612"
    },
    {
      "channel": 4,
      "note": 59,
      "start": 13.5814,
      "duration": 0.0599,
      "velocity": 120,
      "chip": "ym2612"
    },
    {
      "channel": 4,
      "note": 59,
      "start": 13.6413,
      "duration": 0.0406,
      "velocity": 120,
      "chip": "ym2612"
    },
    {
      "channel": 0,
      "note": 59,
      "start": 13.6817,
      "duration": 0.0025,
      "velocity": 127,
      "chip": "ym2612"
    },
    {
      "channel": 1,
      "note": 71,
      "start": 13.6817,
      "duration": 0.0016,
      "velocity": 93,
      "chip": "ym2612"
    },
    {
      "channel": 3,
      "note": 35,
      "start": 13.6818,
      "duration": 0.0413,
      "velocity": 105,
      "chip": "ym2612"
    },
    {
      "channel": 4,
      "note": 59,
      "start": 13.6819,
      "duration": 0.0015,
      "velocity": 120,
      "chip": "ym2612"
    },
    {
      "channel": 4,
      "note": 59,
      "start": 13.6834,
      "duration": 0.0006,
      "velocity": 120,
      "chip": "ym2612"
    },
    {
      "channel": 4,
      "note": 59,
      "start": 13.684,
      "duration": 0.0015,
      "velocity": 120,
      "chip": "ym2612"
    },
    {
      "channel": 4,
      "note": 59,
      "start": 13.6855,
      "duration": 0.0352,
      "velocity": 120,
      "chip": "ym2612"
    },
    {
      "channel": 0,
      "note": 71,
      "start": 13.7205,
      "duration": 0.0015,
      "velocity": 127,
      "chip": "ym2612"
    },
    {
      "channel": 1,
      "note": 79,
      "start": 13.7206,
      "duration": 0.0007,
      "velocity": 93,
      "chip": "ym2612"
    },
    {
      "channel": 4,
      "note": 59,
      "start": 13.7207,
      "duration": 0.0007,
      "velocity": 120,
      "chip": "ym2612"
    },
    {
      "channel": 4,
      "note": 59,
      "start": 13.7214,
      "duration": 0.0005,
      "velocity": 120,
      "chip": "ym2612"
    },
    {
      "channel": 4,
      "note": 59,
      "start": 13.7219,
      "duration": 0.0005,
      "velocity": 120,
      "chip": "ym2612"
    },
    {
      "channel": 4,
      "note": 59,
      "start": 13.7224,
      "duration": 0.001,
      "velocity": 120,
      "chip": "ym2612"
    },
    {
      "channel": 0,
      "note": 59,
      "start": 13.7231,
      "duration": 0.067,
      "velocity": 127,
      "chip": "ym2612"
    },
    {
      "channel": 1,
      "note": 76,
      "start": 13.7231,
      "duration": 0.0272,
      "velocity": 93,
      "chip": "ym2612"
    },
    {
      "channel": 3,
      "note": 33,
      "start": 13.7232,
      "duration": 0.127,
      "velocity": 105,
      "chip": "ym2612"
    },
    {
      "channel": 4,
      "note": 59,
      "start": 13.7233,
      "duration": 0.0271,
      "velocity": 120,
      "chip": "ym2612"
    },
    {
      "channel": 4,
      "note": 59,
      "start": 13.7505,
      "duration": 0.0599,
      "velocity": 120,
      "chip": "ym2612"
    },
    {
      "channel": 4,
      "note": 59,
      "start": 13.8103,
      "duration": 0.04,
      "velocity": 120,
      "chip": "ym2612"
    },
    {
      "channel": 4,
      "note": 59,
      "start": 13.8503,
      "duration": 0.0405,
      "velocity": 120,
      "chip": "ym2612"
    },
    {
      "channel": 0,
      "note": 59,
      "start": 13.8906,
      "duration": 0.002,
      "velocity": 127,
      "chip": "ym2612"
    },
    {
      "channel": 1,
      "note": 76,
      "start": 13.8907,
      "duration": 0.0016,
      "velocity": 93,
      "chip": "ym2612"
    },
    {
      "channel": 3,
      "note": 35,
      "start": 13.8908,
      "duration": 0.0981,
      "velocity": 105,
      "chip": "ym2612"
    },
    {
      "channel": 4,
      "note": 59,
      "start": 13.8908,
      "duration": 0.0015,
      "velocity": 120,
      "chip": "ym2612"
    },
    {
      "channel": 4,
      "note": 59,
      "start": 13.8924,
      "duration": 0.0005,
      "velocity": 120,
      "chip": "ym2612"
    },
    {
      "channel": 4,
      "note": 59,
      "start": 13.8929,
      "duration": 0.0014,
      "velocity": 120,
      "chip": "ym2612"
    },
    {
      "channel": 4,
      "note": 59,
      "start": 13.8942,
      "duration": 0.0351,
      "velocity": 120,
      "chip": "ym2612"
    },
    {
      "channel": 0,
      "note": 59,
      "start": 13.9292,
      "duration": 0.1198,
      "velocity": 127,
      "chip": "ym2612"
    },
    {
      "channel": 1,
      "note": 78,
      "start": 13.9292,
      "duration": 0.0398,
      "velocity": 93,
      "chip": "ym2612"
    },
    {
      "channel": 4,
      "note": 59,
      "start": 13.9294,
      "duration": 0.0398,
      "velocity": 120,
      "chip": "ym2612"
    },
    {
      "channel": 4,
      "note": 59,
      "start": 13.9692,
      "duration": 0.0399,
      "velocity": 120,
      "chip": "ym2612"
    },
    {
      "channel": 4,
      "note": 59,
      "start": 14.009,
      "duration": 0.04,
      "velocity": 120,
      "chip": "ym2612"
    },
    {
      "channel": 4,
      "note": 59,
      "start": 14.049,
      "duration": 0.0403,
      "velocity": 120,
      "chip": "ym2612"
    },
    {
      "channel": 1,
      "note": 71,
      "start": 14.0892,
      "duration": 0.0007,
      "velocity": 93,
      "chip": "ym2612"
    },
    {
      "channel": 3,
      "note": 35,
      "start": 14.0893,
      "duration": 0.0013,
      "velocity": 105,
      "chip": "ym2612"
    },
    {
      "channel": 4,
      "note": 59,
      "start": 14.0894,
      "duration": 0.0007,
      "velocity": 120,
      "chip": "ym2612"
    },
    {
      "channel": 4,
      "note": 59,
      "start": 14.0901,
      "duration": 0.0006,
      "velocity": 120,
      "chip": "ym2612"
    },
    {
      "channel": 2,
      "note": 59,
      "start": 14.0906,
      "duration": 0.2665,
      "velocity": 83,
      "chip": "ym2612"
    },
    {
      "channel": 4,
      "note": 59,
      "start": 14.0907,
      "duration": 0.0004,
      "velocity": 120,
      "chip": "ym2612"
    },
    {
      "channel": 4,
      "note": 59,
      "start": 14.0911,
      "duration": 0.0086,
      "velocity": 120,
      "chip": "ym2612"
    },
    {
      "channel": 0,
      "note": 59,
      "start": 14.0994,
      "duration": 0.0024,
      "velocity": 127,
      "chip": "ym2612"
    },
    {
      "channel": 1,
      "note": 71,
      "start": 14.0995,
      "duration": 0.0016,
      "velocity": 93,
      "chip": "ym2612"
    },
    {
      "channel": 3,
      "note": 35,
      "start": 14.0996,
      "duration": 0.0982,
      "velocity": 105,
      "chip": "ym2612"
    },
    {
      "channel": 4,
      "note": 59,
      "start": 14.0996,
      "duration": 0.0015,
      "velocity": 120,
      "chip": "ym2612"
    },
    {
      "channel": 4,
      "note": 59,
      "start": 14.1012,
      "duration": 0.0006,
      "velocity": 120,
      "chip": "ym2612"
    },
    {
      "channel": 4,
      "note": 59,
      "start": 14.1017,
      "duration": 0.0014,
      "velocity": 120,
      "chip": "ym2612"
    },
    {
      "channel": 4,
      "note": 59,
      "start": 14.1032,
      "duration": 0.0351,
      "velocity": 120,
      "chip": "ym2612"
    },
    {
      "channel": 0,
      "note": 71,
      "start": 14.1381,
      "duration": 0.0995,
      "velocity": 127,
      "chip": "ym2612"
    },
    {
      "channel": 1,
      "note": 79,
      "start": 14.1382,
      "duration": 0.0398,
      "velocity": 93,
      "chip": "ym2612"
    },
    {
      "channel": 4,
      "note": 59,
      "start": 14.1383,
      "duration": 0.0398,
      "velocity": 120,
      "chip": "ym2612"
    },
    {
      "channel": 4,
      "note": 59,
      "start": 14.178,
      "duration": 0.0399,
      "velocity": 120,
      "chip": "ym2612"
    },
    {
      "channel": 4,
      "note": 59,
      "start": 14.2179,
      "duration": 0.0399,
      "velocity": 120,
      "chip": "ym2612"
    },
    {
      "channel": 4,
      "note": 59,
      "start": 14.2579,
      "duration": 0.0406,
      "velocity": 120,
      "chip": "ym2612"
    },
    {
      "channel": 0,
      "note": 59,
      "start": 14.2983,
      "duration": 0.0035,
      "velocity": 127,
      "chip": "ym2612"
    },
    {
      "channel": 1,
      "note": 76,
      "start": 14.2983,
      "duration": 0.0018,
      "velocity": 93,
      "chip": "ym2612"
    },
    {
      "channel": 3,
      "note": 35,
      "start": 14.2984,
      "duration": 0.0603,
      "velocity": 105,
      "chip": "ym2612"
    },
    {
      "channel": 4,
      "note": 59,
      "start": 14.2985,
      "duration": 0.0017,
      "velocity": 120,
      "chip": "ym2612"
    },
    {
      "channel": 4,
      "note": 59,
      "start": 14.3002,
      "duration": 0.0005,
      "velocity": 120,
      "chip": "ym2612"
    },
    {
      "channel": 4,
      "note": 59,
      "start": 14.3007,
      "duration": 0.0159,
      "velocity": 120,
      "chip": "ym2612"
    },
    {
      "channel": 4,
      "note": 59,
      "start": 14.3166,
      "duration": 0.0406,
      "velocity": 120,
      "chip": "ym2612"
    },
    {
      "channel": 0,
      "note": 69,
      "start": 14.357,
      "duration": 0.0011,
      "velocity": 127,
      "chip": "ym2612"
    },
    {
      "channel": 1,
      "note": 78,
      "start": 14.3571,
      "duration": 0.0007,
      "velocity": 93,
      "chip": "ym2612"
    },
    {
      "channel": 2,
      "note": 62,
      "start": 14.3571,
      "duration": 0.0024,
      "velocity": 83,
      "chip": "ym2612"
    },
    {
      "channel": 4,
      "note": 59,
      "start": 14.3572,
      "duration": 0.0007,
      "velocity": 120,
      "chip": "ym2612"
    },
    {
      "channel": 4,
      "note": 59,
      "start": 14.358,
      "duration": 0.0005,
      "velocity": 120,
      "chip": "ym2612"
    },
    {
      "channel": 4,
      "note": 59,
      "start": 14.3584,
      "duration": 0.0004,
      "velocity": 120,
      "chip": "ym2612"
    },
    {
      "channel": 4,
      "note": 59,
      "start": 14.3588,
      "duration": 0.0009,
      "velocity": 120,
      "chip": "ym2612"
    },
    {
      "channel": 0,
      "note": 59,
      "start": 14.3594,
      "duration": 0.0672,
      "velocity": 127,
      "chip": "ym2612"
    },
    {
      "channel": 1,
      "note": 71,
      "start": 14.3594,
      "duration": 0.0273,
      "velocity": 93,
      "chip": "ym2612"
    },
    {
      "channel": 2,
      "note": 59,
      "start": 14.3595,
      "duration": 0.1477,
      "velocity": 83,
      "chip": "ym2612"
    },
    {
      "channel": 3,
      "note": 33,
      "start": 14.3596,
      "duration": 0.1476,
      "velocity": 105,
      "chip": "ym2612"
    },
    {
      "channel": 4,
      "note": 59,
      "start": 14.3597,
      "duration": 0.0271,
      "velocity": 120,
      "chip": "ym2612"
    },
    {
      "channel": 4,
      "note": 59,
      "start": 14.3868,
      "duration": 0.0399,
      "velocity": 120,
      "chip": "ym2612"
    },
    {
      "channel": 4,
      "note": 59,
      "start": 14.4267,
      "duration": 0.04,
      "velocity": 120,
      "chip": "ym2612"
    },
    {
      "channel": 4,
      "note": 59,
      "start": 14.4667,
      "duration": 0.0407,
      "velocity": 120,
      "chip": "ym2612"
    },
    {
      "channel": 0,
      "note": 71,
      "start": 14.5071,
      "duration": 0.0026,
      "velocity": 127,
      "chip": "ym2612"
    },
    {
      "channel": 1,
      "note": 79,
      "start": 14.5071,
      "duration": 0.002,
      "velocity": 93,
      "chip": "ym2612"
    },
    {
      "channel": 2,
      "note": 64,
      "start": 14.5073,
      "duration": 0.2285,
      "velocity": 83,
      "chip": "ym2612"
    },
    {
      "channel": 3,
      "note": 35,
      "start": 14.5073,
      "duration": 0.118,
      "velocity": 105,
      "chip": "ym2612"
    },
    {
      "channel": 4,
      "note": 59,
      "start": 14.5074,
      "duration": 0.0018,
      "velocity": 120,
      "chip": "ym2612"
    },
    {
      "channel": 4,
      "note": 59,
      "start": 14.5092,
      "duration": 0.0006,
      "velocity": 120,
      "chip": "ym2612"
    },
    {
      "channel": 4,
      "note": 59,
      "start": 14.5098,
      "duration": 0.0157,
      "velocity": 120,
      "chip": "ym2612"
    },
    {
      "channel": 4,
      "note": 59,
      "start": 14.5255,
      "duration": 0.0404,
      "velocity": 120,
      "chip": "ym2612"
    },
    {
      "channel": 0,
      "note": 59,
      "start": 14.5657,
      "duration": 0.0595,
      "velocity": 127,
      "chip": "ym2612"
    },
    {
      "channel": 1,
      "note": 76,
      "start": 14.5657,
      "duration": 0.0398,
      "velocity": 93,
      "chip": "ym2612"
    },
    {
      "channel": 4,
      "note": 59,
      "start": 14.5659,
      "duration": 0.0398,
      "velocity": 120,
      "chip": "ym2612"
    },
    {
      "channel": 4,
      "note": 59,
      "start": 14.6056,
      "duration": 0.0398,
      "velocity": 120,
      "chip": "ym2612"
    },
    {
      "channel": 4,
      "note": 59,
      "start": 14.6454,
      "duration": 0.04,
      "velocity": 120,
      "chip": "ym2612"
    },
    {
      "channel": 4,
      "note": 59,
      "start": 14.6854,
      "duration": 0.0406,
      "velocity": 120,
      "chip": "ym2612"
    },
    {
      "channel": 0,
      "note": 59,
      "start": 14.7257,
      "duration": 0.0011,
      "velocity": 127,
      "chip": "ym2612"
    },
    {
      "channel": 1,
      "note": 76,
      "start": 14.7258,
      "duration": 0.0008,
      "velocity": 93,
      "chip": "ym2612"
    },
    {
      "channel": 3,
      "note": 35,
      "start": 14.7259,
      "duration": 0.0497,
      "velocity": 105,
      "chip": "ym2612"
    },
    {
      "channel": 4,
      "note": 59,
      "start": 14.726,
      "duration": 0.0007,
      "velocity": 120,
      "chip": "ym2612"
    },
    {
      "channel": 4,
      "note": 59,
      "start": 14.7267,
      "duration": 0.0005,
      "velocity": 120,
      "chip": "ym2612"
    },
    {
      "channel": 4,
      "note": 59,
      "start": 14.7272,
      "duration": 0.0004,
      "velocity": 120,
      "chip": "ym2612"
    },
    {
      "channel": 4,
      "note": 59,
      "start": 14.7276,
      "duration": 0.0084,
      "velocity": 120,
      "chip": "ym2612"
    },
    {
      "channel": 0,
      "note": 59,
      "start": 14.7357,
      "duration": 0.1197,
      "velocity": 127,
      "chip": "ym2612"
    },
    {
      "channel": 1,
      "note": 78,
      "start": 14.7358,
      "duration": 0.0398,
      "velocity": 93,
      "chip": "ym2612"
    },
    {
      "channel": 2,
      "note": 62,
      "start": 14.7359,
      "duration": 0.3788,
      "velocity": 83,
      "chip": "ym2612"
    },
    {
      "channel": 4,
      "note": 59,
      "start": 14.736,
      "duration": 0.0397,
      "velocity": 120,
      "chip": "ym2612"
    },
    {
      "channel": 4,
      "note": 59,
      "start": 14.7756,
      "duration": 0.0399,
      "velocity": 120,
      "chip": "ym2612"
    },
    {
      "channel": 4,
      "note": 59,
      "start": 14.8155,
      "duration": 0.04,
      "velocity": 120,
      "chip": "ym2612"
    },
    {
      "channel": 4,
      "note": 59,
      "start": 14.8555,
      "duration": 0.0402,
      "velocity": 120,
      "chip": "ym2612"
    },
    {
      "channel": 1,
      "note": 71,
      "start": 14.8956,
      "duration": 0.0398,
      "velocity": 93,
      "chip": "ym2612"
    },
    {
      "channel": 3,
      "note": 35,
      "start": 14.8957,
      "duration": 0.0798,
      "velocity": 105,
      "chip": "ym2612"
    },
    {
      "channel": 4,
      "note": 59,
      "start": 14.8958,
      "duration": 0.0398,
      "velocity": 120,
      "chip": "ym2612"
    },
    {
      "channel": 4,
      "note": 59,
      "start": 14.9356,
      "duration": 0.04,
      "velocity": 120,
      "chip": "ym2612"
    },
    {
      "channel": 4,
      "note": 59,
      "start": 14.9755,
      "duration": 0.0399,
      "velocity": 120,
      "chip": "ym2612"
    },
    {
      "channel": 4,
      "note": 59,
      "start": 15.0155,
      "duration": 0.0406,
      "velocity": 120,
      "chip": "ym2612"
    },
    {
      "channel": 0,
      "note": 59,
      "start": 15.0558,
      "duration": 0.0037,
      "velocity": 127,
      "chip": "ym2612"
    },
    {
      "channel": 1,
      "note": 71,
      "start": 15.0559,
      "duration": 0.0016,
      "velocity": 93,
      "chip": "ym2612"
    },
    {
      "channel": 3,
      "note": 35,
      "start": 15.056,
      "duration": 0.0597,
      "velocity": 105,
      "chip": "ym2612"
    },
    {
      "channel": 4,
      "note": 59,
      "start": 15.056,
      "duration": 0.0015,
      "velocity": 120,
      "chip": "ym2612"
    },
    {
      "channel": 4,
      "note": 59,
      "start": 15.0576,
      "duration": 0.0006,
      "velocity": 120,
      "chip": "ym2612"
    },
    {
      "channel": 4,
      "note": 59,
      "start": 15.0581,
      "duration": 0.0014,
      "velocity": 120,
      "chip": "ym2612"
    },
    {
      "channel": 4,
      "note": 59,
      "start": 15.0595,
      "duration": 0.0346,
      "velocity": 120,
      "chip": "ym2612"
    },
    {
      "channel": 0,
      "note": 71,
      "start": 15.1146,
      "duration": 0.0011,
      "velocity": 127,
      "chip": "ym2612"
    },
    {
      "channel": 1,
      "note": 79,
      "start": 15.1146,
      "duration": 0.0007,
      "velocity": 93,
      "chip": "ym2612"
    },
    {
      "channel": 2,
      "note": 61,
      "start": 15.1147,
      "duration": 0.2084,
      "velocity": 83,
      "chip": "ym2612"
    },
    {
      "channel": 4,
      "note": 55,
      "start": 15.116,
      "duration": 0.4062,
      "velocity": 120,
      "chip": "ym2612"
    },
    {
      "channel": 0,
      "note": 59,
      "start": 15.1167,
      "duration": 0.0473,
      "velocity": 127,
      "chip": "ym2612"
    },
    {
      "channel": 1,
      "note": 76,
      "start": 15.1168,
      "duration": 0.0274,
      "velocity": 93,
      "chip": "ym2612"
    },
    {
      "channel": 3,
      "note": 33,
      "start": 15.1169,
      "duration": 0.1476,
      "velocity": 105,
      "chip": "ym2612"
    },
    {
      "channel": 0,
      "note": 59,
      "start": 15.2644,
      "duration": 0.0021,
      "velocity": 127,
      "chip": "ym2612"
    },
    {
      "channel": 1,
      "note": 76,
      "start": 15.2645,
      "duration": 0.0016,
      "velocity": 93,
      "chip": "ym2612"
    },
    {
      "channel": 3,
      "note": 35,
      "start": 15.2646,
      "duration": 0.0982,
      "velocity": 105,
      "chip": "ym2612"
    },
    {
      "channel": 0,
      "note": 59,
      "start": 15.323,
      "duration": 0.0796,
      "velocity": 127,
      "chip": "ym2612"
    },
    {
      "channel": 1,
      "note": 78,
      "start": 15.3231,
      "duration": 0.0398,
      "velocity": 93,
      "chip": "ym2612"
    },
    {
      "channel": 2,
      "note": 59,
      "start": 15.3232,
      "duration": 0.1791,
      "velocity": 83,
      "chip": "ym2612"
    },
    {
      "channel": 1,
      "note": 71,
      "start": 15.483,
      "duration": 0.0006,
      "velocity": 93,
      "chip": "ym2612"
    },
    {
      "channel": 3,
      "note": 35,
      "start": 15.4831,
      "duration": 0.0042,
      "velocity": 105,
      "chip": "ym2612"
    },
    {
      "channel": 0,
      "note": 59,
      "start": 15.4847,
      "duration": 0.0175,
      "velocity": 127,
      "chip": "ym2612"
    },
    {
      "channel": 1,
      "note": 71,
      "start": 15.4847,
      "duration": 0.0007,
      "velocity": 93,
      "chip": "ym2612"
    },
    {
      "channel": 4,
      "note": 54,
      "start": 15.5222,
      "duration": 0.369,
      "velocity": 120,
      "chip": "ym2612"
    },
    {
      "channel": 0,
      "note": 71,
      "start": 15.5426,
      "duration": 0.0996,
      "velocity": 127,
      "chip": "ym2612"
    },
    {
      "channel": 1,
      "note": 79,
      "start": 15.5427,
      "duration": 0.0397,
      "velocity": 93,
      "chip": "ym2612"
    },
    {
      "channel": 2,
      "note": 57,
      "start": 15.5427,
      "duration": 0.1988,
      "velocity": 83,
      "chip": "ym2612"
    },
    {
      "channel": 3,
      "note": 35,
      "start": 15.5428,
      "duration": 0.1599,
      "velocity": 105,
      "chip": "ym2612"
    },
    {
      "channel": 0,
      "note": 59,
      "start": 15.7026,
      "duration": 0.0035,
      "velocity": 127,
      "chip": "ym2612"
    },
    {
      "channel": 1,
      "note": 76,
      "start": 15.7027,
      "duration": 0.0016,
      "velocity": 93,
      "chip": "ym2612"
    },
    {
      "channel": 3,
      "note": 38,
      "start": 15.7028,
      "duration": 0.0395,
      "velocity": 105,
      "chip": "ym2612"
    },
    {
      "channel": 0,
      "note": 69,
      "start": 15.7414,
      "duration": 0.0013,
      "velocity": 127,
      "chip": "ym2612"
    },
    {
      "channel": 1,
      "note": 78,
      "start": 15.7415,
      "duration": 0.0007,
      "velocity": 93,
      "chip": "ym2612"
    },
    {
      "channel": 2,
      "note": 54,
      "start": 15.7416,
      "duration": 0.01,
      "velocity": 83,
      "chip": "ym2612"
    },
    {
      "channel": 0,
      "note": 59,
      "start": 15.7515,
      "duration": 0.1196,
      "velocity": 127,
      "chip": "ym2612"
    },
    {
      "channel": 1,
      "note": 71,
      "start": 15.7516,
      "duration": 0.0397,
      "velocity": 93,
      "chip": "ym2612"
    },
    {
      "channel": 2,
      "note": 55,
      "start": 15.7516,
      "duration": 0.381,
      "velocity": 83,
      "chip": "ym2612"
    },
    {
      "channel": 3,
      "note": 38,
      "start": 15.7517,
      "duration": 0.1395,
      "velocity": 105,
      "chip": "ym2612"
    },
    {
      "channel": 4,
      "note": 52,
      "start": 15.8913,
      "duration": 0.9975,
      "velocity": 120,
      "chip": "ym2612"
    },
    {
      "channel": 0,
      "note": 76,
      "start": 15.9116,
      "duration": 0.0021,
      "velocity": 127,
      "chip": "ym2612"
    },
    {
      "channel": 1,
      "note": 79,
      "start": 15.9116,
      "duration": 0.0016,
      "velocity": 93,
      "chip": "ym2612"
    },
    {
      "channel": 3,
      "note": 40,
      "start": 15.9117,
      "duration": 0.1182,
      "velocity": 105,
      "chip": "ym2612"
    },
    {
      "channel": 0,
      "note": 64,
      "start": 15.9502,
      "duration": 0.0997,
      "velocity": 127,
      "chip": "ym2612"
    },
    {
      "channel": 1,
      "note": 76,
      "start": 15.9502,
      "duration": 0.0398,
      "velocity": 93,
      "chip": "ym2612"
    },
    {
      "channel": 0,
      "note": 64,
      "start": 16.1303,
      "duration": 0.0009,
      "velocity": 127,
      "chip": "ym2612"
    },
    {
      "channel": 1,
      "note": 76,
      "start": 16.1303,
      "duration": 0.0006,
      "velocity": 93,
      "chip": "ym2612"
    },
    {
      "channel": 3,
      "note": 40,
      "start": 16.1305,
      "duration": 0.0096,
      "velocity": 105,
      "chip": "ym2612"
    },
    {
      "channel": 0,
      "note": 64,
      "start": 16.1326,
      "duration": 0.0872,
      "velocity": 127,
      "chip": "ym2612"
    },
    {
      "channel": 1,
      "note": 78,
      "start": 16.1326,
      "duration": 0.0273,
      "velocity": 93,
      "chip": "ym2612"
    },
    {
      "channel": 2,
      "note": 62,
      "start": 16.1327,
      "duration": 0.9765,
      "velocity": 83,
      "chip": "ym2612"
    },
    {
      "channel": 1,
      "note": 71,
      "start": 16.28,
      "duration": 0.0598,
      "velocity": 93,
      "chip": "ym2612"
    },
    {
      "channel": 3,
      "note": 40,
      "start": 16.2802,
      "duration": 0.0797,
      "velocity": 105,
      "chip": "ym2612"
    },
    {
      "channel": 0,
      "note": 64,
      "start": 16.4602,
      "duration": 0.0022,
      "velocity": 127,
      "chip": "ym2612"
    },
    {
      "channel": 1,
      "note": 71,
      "start": 16.4603,
      "duration": 0.0015,
      "velocity": 93,
      "chip": "ym2612"
    },
    {
      "channel": 3,
      "note": 40,
      "start": 16.4604,
      "duration": 0.0401,
      "velocity": 105,
      "chip": "ym2612"
    },
    {
      "channel": 0,
      "note": 76,
      "start": 16.4989,
      "duration": 0.0014,
      "velocity": 127,
      "chip": "ym2612"
    },
    {
      "channel": 1,
      "note": 79,
      "start": 16.499,
      "duration": 0.0007,
      "velocity": 93,
      "chip": "ym2612"
    },
    {
      "channel": 0,
      "note": 64,
      "start": 16.5014,
      "duration": 0.0673,
      "velocity": 127,
      "chip": "ym2612"
    },
    {
      "channel": 1,
      "note": 76,
      "start": 16.5015,
      "duration": 0.0473,
      "velocity": 93,
      "chip": "ym2612"
    },
    {
      "channel": 3,
      "note": 38,
      "start": 16.5016,
      "duration": 0.1676,
      "velocity": 105,
      "chip": "ym2612"
    },
    {
      "channel": 0,
      "note": 64,
      "start": 16.669,
      "duration": 0.0018,
      "velocity": 127,
      "chip": "ym2612"
    },
    {
      "channel": 1,
      "note": 76,
      "start": 16.6691,
      "duration": 0.0016,
      "velocity": 93,
      "chip": "ym2612"
    },
    {
      "channel": 3,
      "note": 40,
      "start": 16.6693,
      "duration": 0.0783,
      "velocity": 105,
      "chip": "ym2612"
    },
    {
      "channel": 0,
      "note": 64,
      "start": 16.7077,
      "duration": 0.1197,
      "velocity": 127,
      "chip": "ym2612"
    },
    {
      "channel": 1,
      "note": 78,
      "start": 16.7077,
      "duration": 0.0398,
      "velocity": 93,
      "chip": "ym2612"
    },
    {
      "channel": 1,
      "note": 71,
      "start": 16.8877,
      "duration": 0.0006,
      "velocity": 93,
      "chip": "ym2612"
    },
    {
      "channel": 3,
      "note": 40,
      "start": 16.8878,
      "duration": 0.001,
      "velocity": 105,
      "chip": "ym2612"
    },
    {
      "channel": 4,
      "note": 52,
      "start": 16.8888,
      "duration": 0.9574,
      "velocity": 120,
      "chip": "ym2612"
    },
    {
      "channel": 0,
      "note": 64,
      "start": 16.8894,
      "duration": 0.0012,
      "velocity": 127,
      "chip": "ym2612"
    },
    {
      "channel": 1,
      "note": 71,
      "start": 16.8895,
      "duration": 0.0005,
      "velocity": 93,
      "chip": "ym2612"
    },
    {
      "channel": 3,
      "note": 40,
      "start": 16.8896,
      "duration": 0.1171,
      "velocity": 105,
      "chip": "ym2612"
    },
    {
      "channel": 0,
      "note": 76,
      "start": 16.927,
      "duration": 0.0997,
      "velocity": 127,
      "chip": "ym2612"
    },
    {
      "channel": 1,
      "note": 79,
      "start": 16.927,
      "duration": 0.0398,
      "velocity": 93,
      "chip": "ym2612"
    },
    {
      "channel": 0,
      "note": 64,
      "start": 17.1071,
      "duration": 0.0023,
      "velocity": 127,
      "chip": "ym2612"
    },
    {
      "channel": 1,
      "note": 76,
      "start": 17.1071,
      "duration": 0.0016,
      "velocity": 93,
      "chip": "ym2612"
    },
    {
      "channel": 3,
      "note": 40,
      "start": 17.1073,
      "duration": 0.0412,
      "velocity": 105,
      "chip": "ym2612"
    },
    {
      "channel": 2,
      "note": 62,
      "start": 17.1092,
      "duration": 0.6352,
      "velocity": 83,
      "chip": "ym2612"
    },
    {
      "channel": 0,
      "note": 74,
      "start": 17.1458,
      "duration": 0.001,
      "velocity": 127,
      "chip": "ym2612"
    },
    {
      "channel": 1,
      "note": 78,
      "start": 17.1459,
      "duration": 0.0007,
      "velocity": 93,
      "chip": "ym2612"
    },
    {
      "channel": 0,
      "note": 64,
      "start": 17.1483,
      "duration": 0.0673,
      "velocity": 127,
      "chip": "ym2612"
    },
    {
      "channel": 1,
      "note": 71,
      "start": 17.1484,
      "duration": 0.0273,
      "velocity": 93,
      "chip": "ym2612"
    },
    {
      "channel": 3,
      "note": 38,
      "start": 17.1485,
      "duration": 0.1071,
      "velocity": 105,
      "chip": "ym2612"
    },
    {
      "channel": 0,
      "note": 76,
      "start": 17.316,
      "duration": 0.0021,
      "velocity": 127,
      "chip": "ym2612"
    },
    {
      "channel": 1,
      "note": 79,
      "start": 17.3161,
      "duration": 0.0016,
      "velocity": 93,
      "chip": "ym2612"
    },
    {
      "channel": 3,
      "note": 40,
      "start": 17.3162,
      "duration": 0.1382,
      "velocity": 105,
      "chip": "ym2612"
    },
    {
      "channel": 0,
      "note": 64,
      "start": 17.3546,
      "duration": 0.0597,
      "velocity": 127,
      "chip": "ym2612"
    },
    {
      "channel": 1,
      "note": 76,
      "start": 17.3547,
      "duration": 0.0398,
      "velocity": 93,
      "chip": "ym2612"
    },
    {
      "channel": 0,
      "note": 64,
      "start": 17.5148,
      "duration": 0.001,
      "velocity": 127,
      "chip": "ym2612"
    },
    {
      "channel": 1,
      "note": 76,
      "start": 17.5149,
      "duration": 0.0007,
      "velocity": 93,
      "chip": "ym2612"
    },
    {
      "channel": 3,
      "note": 40,
      "start": 17.5149,
      "duration": 0.0496,
      "velocity": 105,
      "chip": "ym2612"
    },
    {
      "channel": 0,
      "note": 64,
      "start": 17.5247,
      "duration": 0.1197,
      "velocity": 127,
      "chip": "ym2612"
    },
    {
      "channel": 1,
      "note": 78,
      "start": 17.5248,
      "duration": 0.0398,
      "velocity": 93,
      "chip": "ym2612"
    },
    {
      "channel": 1,
      "note": 71,
      "start": 17.6846,
      "duration": 0.0398,
      "velocity": 93,
      "chip": "ym2612"
    },
    {
      "channel": 3,
      "note": 40,
      "start": 17.6848,
      "duration": 0.0796,
      "velocity": 105,
      "chip": "ym2612"
    },
    {
      "channel": 0,
      "note": 64,
      "start": 17.8448,
      "duration": 0.0184,
      "velocity": 127,
      "chip": "ym2612"
    },
    {
      "channel": 1,
      "note": 71,
      "start": 17.8448,
      "duration": 0.0016,
      "velocity": 93,
      "chip": "ym2612"
    },
    {
      "channel": 3,
      "note": 40,
      "start": 17.8449,
      "duration": 0.0598,
      "velocity": 105,
      "chip": "ym2612"
    },
    {
      "channel": 4,
      "note": 52,
      "start": 17.8463,
      "duration": 0.5023,
      "velocity": 120,
      "chip": "ym2612"
    },
    {
      "channel": 0,
      "note": 76,
      "start": 17.9035,
      "duration": 0.001,
      "velocity": 127,
      "chip": "ym2612"
    },
    {
      "channel": 1,
      "note": 79,
      "start": 17.9035,
      "duration": 0.0007,
      "velocity": 93,
      "chip": "ym2612"
    },
    {
      "channel": 0,
      "note": 64,
      "start": 17.9058,
      "duration": 0.0673,
      "velocity": 127,
      "chip": "ym2612"
    },
    {
      "channel": 1,
      "note": 76,
      "start": 17.9058,
      "duration": 0.0274,
      "velocity": 93,
      "chip": "ym2612"
    },
    {
      "channel": 3,
      "note": 38,
      "start": 17.906,
      "duration": 0.1071,
      "velocity": 105,
      "chip": "ym2612"
    },
    {
      "channel": 0,
      "note": 64,
      "start": 18.0534,
      "duration": 0.002,
      "velocity": 127,
      "chip": "ym2612"
    },
    {
      "channel": 1,
      "note": 76,
      "start": 18.0535,
      "duration": 0.0015,
      "velocity": 93,
      "chip": "ym2612"
    },
    {
      "channel": 3,
      "note": 40,
      "start": 18.0536,
      "duration": 0.0784,
      "velocity": 105,
      "chip": "ym2612"
    },
    {
      "channel": 0,
      "note": 64,
      "start": 18.1121,
      "duration": 0.0997,
      "velocity": 127,
      "chip": "ym2612"
    },
    {
      "channel": 1,
      "note": 78,
      "start": 18.1122,
      "duration": 0.0397,
      "velocity": 93,
      "chip": "ym2612"
    },
    {
      "channel": 1,
      "note": 71,
      "start": 18.2721,
      "duration": 0.0006,
      "velocity": 93,
      "chip": "ym2612"
    },
    {
      "channel": 3,
      "note": 40,
      "start": 18.2722,
      "duration": 0.0012,
      "velocity": 105,
      "chip": "ym2612"
    },
    {
      "channel": 0,
      "note": 64,
      "start": 18.2736,
      "duration": 0.0176,
      "velocity": 127,
      "chip": "ym2612"
    },
    {
      "channel": 1,
      "note": 71,
      "start": 18.2737,
      "duration": 0.0009,
      "velocity": 93,
      "chip": "ym2612"
    },
    {
      "channel": 3,
      "note": 43,
      "start": 18.2737,
      "duration": 0.0585,
      "velocity": 105,
      "chip": "ym2612"
    },
    {
      "channel": 0,
      "note": 76,
      "start": 18.3315,
      "duration": 0.0011,
      "velocity": 127,
      "chip": "ym2612"
    },
    {
      "channel": 1,
      "note": 79,
      "start": 18.3315,
      "duration": 0.0007,
      "velocity": 93,
      "chip": "ym2612"
    },
    {
      "channel": 0,
      "note": 64,
      "start": 18.3328,
      "duration": 0.003,
      "velocity": 127,
      "chip": "ym2612"
    },
    {
      "channel": 1,
      "note": 76,
      "start": 18.3329,
      "duration": 0.0006,
      "velocity": 93,
      "chip": "ym2612"
    },
    {
      "channel": 3,
      "note": 43,
      "start": 18.333,
      "duration": 0.0034,
      "velocity": 105,
      "chip": "ym2612"
    },
    {
      "channel": 0,
      "note": 74,
      "start": 18.3363,
      "duration": 0.0014,
      "velocity": 127,
      "chip": "ym2612"
    },
    {
      "channel": 1,
      "note": 78,
      "start": 18.3363,
      "duration": 0.001,
      "velocity": 93,
      "chip": "ym2612"
    },
    {
      "channel": 3,
      "note": 42,
      "start": 18.3365,
      "duration": 0.0284,
      "velocity": 105,
      "chip": "ym2612"
    },
    {
      "channel": 0,
      "note": 64,
      "start": 18.3464,
      "duration": 0.0032,
      "velocity": 127,
      "chip": "ym2612"
    },
    {
      "channel": 1,
      "note": 71,
      "start": 18.3465,
      "duration": 0.0015,
      "velocity": 93,
      "chip": "ym2612"
    },
    {
      "channel": 4,
      "note": 52,
      "start": 18.3486,
      "duration": 0.042,
      "velocity": 101,
      "chip": "ym2612"
    },
    {
      "channel": 0,
      "note": 64,
      "start": 18.389,
      "duration": 0.0048,
      "velocity": 106,
      "chip": "ym2612"
    },
    {
      "channel": 1,
      "note": 33,
      "start": 18.3895,
      "duration": 0.7531,
      "velocity": 120,
      "chip": "ym2612"
    },
    {
      "channel": 2,
      "note": 76,
      "start": 18.39,
      "duration": 0.584,
      "velocity": 91,
      "chip": "ym2612"
    },
    {
      "channel": 3,
      "note": 33,
      "start": 18.3901,
      "duration": 0.1137,
      "velocity": 105,
      "chip": "ym2612"
    },
    {
      "channel": 4,
      "note": 76,
      "start": 18.3906,
      "duration": 0.5833,
      "velocity": 101,
      "chip": "ym2612"
    },
    {
      "channel": 0,
      "note": 69,
      "start": 18.3939,
      "duration": 0.09,
      "velocity": 106,
      "chip": "ym2612"
    },
    {
      "channel": 0,
      "note": 73,
      "start": 18.4839,
      "duration": 0.1201,
      "velocity": 106,
      "chip": "ym2612"
    },
    {
      "channel": 0,
      "note": 76,
      "start": 18.604,
      "duration": 0.0013,
      "velocity": 106,
      "chip": "ym2612"
    },
    {
      "channel": 3,
      "note": 33,
      "start": 18.6042,
      "duration": 0.2094,
      "velocity": 105,
      "chip": "ym2612"
    },
    {
      "channel": 0,
      "note": 73,
      "start": 18.6053,
      "duration": 0.0484,
      "velocity": 106,
      "chip": "ym2612"
    },
    {
      "channel": 0,
      "note": 69,
      "start": 18.6537,
      "duration": 0.12,
      "velocity": 106,
      "chip": "ym2612"
    },
    {
      "channel": 0,
      "note": 78,
      "start": 18.7737,
      "duration": 0.0999,
      "velocity": 106,
      "chip": "ym2612"
    },
    {
      "channel": 0,
      "note": 73,
      "start": 18.8736,
      "duration": 0.0618,
      "velocity": 106,
      "chip": "ym2612"
    },
    {
      "channel": 3,
      "note": 33,
      "start": 18.9338,
      "duration": 0.0393,
      "velocity": 105,
      "chip": "ym2612"
    },
    {
      "channel": 0,
      "note": 69,
      "start": 18.9354,
      "duration": 0.0369,
      "velocity": 106,
      "chip": "ym2612"
    },
    {
      "channel": 0,
      "note": 76,
      "start": 18.9723,
      "duration": 0.0015,
      "velocity": 106,
      "chip": "ym2612"
    },
    {
      "channel": 0,
      "note": 73,
      "start": 18.9739,
      "duration": 0.0484,
      "velocity": 106,
      "chip": "ym2612"
    },
    {
      "channel": 2,
      "note": 81,
      "start": 18.9825,
      "duration": 0.1602,
      "velocity": 91,
      "chip": "ym2612"
    },
    {
      "channel": 3,
      "note": 33,
      "start": 18.9825,
      "duration": 0.1602,
      "velocity": 105,
      "chip": "ym2612"
    },
    {
      "channel": 4,
      "note": 81,
      "start": 18.9826,
      "duration": 0.1602,
      "velocity": 101,
      "chip": "ym2612"
    },
    {
      "channel": 0,
      "note": 69,
      "start": 19.0223,
      "duration": 0.1203,
      "velocity": 106,
      "chip": "ym2612"
    },
    {
      "channel": 0,
      "note": 66,
      "start": 19.1427,
      "duration": 0.0034,
      "velocity": 106,
      "chip": "ym2612"
    },
    {
      "channel": 1,
      "note": 35,
      "start": 19.1427,
      "duration": 0.6076,
      "velocity": 120,
      "chip": "ym2612"
    },
    {
      "channel": 2,
      "note": 81,
      "start": 19.1428,
      "duration": 0.0381,
      "velocity": 91,
      "chip": "ym2612"
    },
    {
      "channel": 3,
      "note": 35,
      "start": 19.1429,
      "duration": 0.098,
      "velocity": 105,
      "chip": "ym2612"
    },
    {
      "channel": 4,
      "note": 81,
      "start": 19.1429,
      "duration": 0.0381,
      "velocity": 101,
      "chip": "ym2612"
    },
    {
      "channel": 0,
      "note": 71,
      "start": 19.1461,
      "duration": 0.0947,
      "velocity": 106,
      "chip": "ym2612"
    },
    {
      "channel": 2,
      "note": 79,
      "start": 19.181,
      "duration": 0.1802,
      "velocity": 91,
      "chip": "ym2612"
    },
    {
      "channel": 4,
      "note": 79,
      "start": 19.1811,
      "duration": 0.1802,
      "velocity": 101,
      "chip": "ym2612"
    },
    {
      "channel": 0,
      "note": 74,
      "start": 19.2409,
      "duration": 0.1202,
      "velocity": 106,
      "chip": "ym2612"
    },
    {
      "channel": 0,
      "note": 78,
      "start": 19.3611,
      "duration": 0.0014,
      "velocity": 106,
      "chip": "ym2612"
    },
    {
      "channel": 2,
      "note": 78,
      "start": 19.3612,
      "duration": 0.0017,
      "velocity": 91,
      "chip": "ym2612"
    },
    {
      "channel": 3,
      "note": 35,
      "start": 19.3613,
      "duration": 0.001,
      "velocity": 105,
      "chip": "ym2612"
    },
    {
      "channel": 4,
      "note": 78,
      "start": 19.3614,
      "duration": 0.0017,
      "velocity": 101,
      "chip": "ym2612"
    },
    {
      "channel": 0,
      "note": 74,
      "start": 19.3626,
      "duration": 0.0026,
      "velocity": 106,
      "chip": "ym2612"
    },
    {
      "channel": 2,
      "note": 76,
      "start": 19.3634,
      "duration": 0.0035,
      "velocity": 91,
      "chip": "ym2612"
    },
    {
      "channel": 3,
      "note": 35,
      "start": 19.3634,
      "duration": 0.1383,
      "velocity": 105,
      "chip": "ym2612"
    },
    {
      "channel": 4,
      "note": 76,
      "start": 19.3636,
      "duration": 0.0034,
      "velocity": 101,
      "chip": "ym2612"
    },
    {
      "channel": 0,
      "note": 71,
      "start": 19.3651,
      "duration": 0.0368,
      "velocity": 106,
      "chip": "ym2612"
    },
    {
      "channel": 2,
      "note": 77,
      "start": 19.3669,
      "duration": 0.0149,
      "velocity": 91,
      "chip": "ym2612"
    },
    {
      "channel": 4,
      "note": 77,
      "start": 19.367,
      "duration": 0.0149,
      "velocity": 101,
      "chip": "ym2612"
    },
    {
      "channel": 2,
      "note": 77,
      "start": 19.3818,
      "duration": 0.0202,
      "velocity": 91,
      "chip": "ym2612"
    },
    {
      "channel": 4,
      "note": 77,
      "start": 19.3819,
      "duration": 0.0202,
      "velocity": 101,
      "chip": "ym2612"
    },
    {
      "channel": 0,
      "note": 79,
      "start": 19.402,
      "duration": 0.1198,
      "velocity": 106,
      "chip": "ym2612"
    },
    {
      "channel": 2,
      "note": 78,
      "start": 19.402,
      "duration": 0.1801,
      "velocity": 91,
      "chip": "ym2612"
    },
    {
      "channel": 4,
      "note": 78,
      "start": 19.4021,
      "duration": 0.1801,
      "velocity": 101,
      "chip": "ym2612"
    },
    {
      "channel": 0,
      "note": 74,
      "start": 19.5217,
      "duration": 0.0618,
      "velocity": 106,
      "chip": "ym2612"
    },
    {
      "channel": 2,
      "note": 77,
      "start": 19.5821,
      "duration": 0.0016,
      "velocity": 91,
      "chip": "ym2612"
    },
    {
      "channel": 3,
      "note": 35,
      "start": 19.5822,
      "duration": 0.0393,
      "velocity": 105,
      "chip": "ym2612"
    },
    {
      "channel": 4,
      "note": 77,
      "start": 19.5822,
      "duration": 0.0016,
      "velocity": 101,
      "chip": "ym2612"
    },
    {
      "channel": 0,
      "note": 71,
      "start": 19.5836,
      "duration": 0.0369,
      "velocity": 106,
      "chip": "ym2612"
    },
    {
      "channel": 2,
      "note": 76,
      "start": 19.5837,
      "duration": 0.037,
      "velocity": 91,
      "chip": "ym2612"
    },
    {
      "channel": 4,
      "note": 76,
      "start": 19.5838,
      "duration": 0.037,
      "velocity": 101,
      "chip": "ym2612"
    },
    {
      "channel": 0,
      "note": 78,
      "start": 19.6206,
      "duration": 0.0016,
      "velocity": 106,
      "chip": "ym2612"
    },
    {
      "channel": 2,
      "note": 74,
      "start": 19.6207,
      "duration": 0.0023,
      "velocity": 91,
      "chip": "ym2612"
    },
    {
      "channel": 4,
      "note": 74,
      "start": 19.6208,
      "duration": 0.0023,
      "velocity": 101,
      "chip": "ym2612"
    },
    {
      "channel": 0,
      "note": 74,
      "start": 19.6223,
      "duration": 0.0482,
      "velocity": 106,
      "chip": "ym2612"
    },
    {
      "channel": 2,
      "note": 76,
      "start": 19.6231,
      "duration": 0.3663,
      "velocity": 91,
      "chip": "ym2612"
    },
    {
      "channel": 3,
      "note": 35,
      "start": 19.6232,
      "duration": 0.1677,
      "velocity": 105,
      "chip": "ym2612"
    },
    {
      "channel": 4,
      "note": 76,
      "start": 19.6232,
      "duration": 0.3663,
      "velocity": 101,
      "chip": "ym2612"
    },
    {
      "channel": 0,
      "note": 71,
      "start": 19.6705,
      "duration": 0.1202,
      "velocity": 106,
      "chip": "ym2612"
    },
    {
      "channel": 0,
      "note": 69,
      "start": 19.7907,
      "duration": 0.0022,
      "velocity": 106,
      "chip": "ym2612"
    },
    {
      "channel": 1,
      "note": 45,
      "start": 19.7908,
      "duration": 0.5281,
      "velocity": 120,
      "chip": "ym2612"
    },
    {
      "channel": 3,
      "note": 37,
      "start": 19.7909,
      "duration": 0.1381,
      "velocity": 105,
      "chip": "ym2612"
    },
    {
      "channel": 0,
      "note": 73,
      "start": 19.7929,
      "duration": 0.0961,
      "velocity": 106,
      "chip": "ym2612"
    },
    {
      "channel": 0,
      "note": 76,
      "start": 19.889,
      "duration": 0.1002,
      "velocity": 106,
      "chip": "ym2612"
    },
    {
      "channel": 0,
      "note": 81,
      "start": 19.9893,
      "duration": 0.0016,
      "velocity": 106,
      "chip": "ym2612"
    },
    {
      "channel": 2,
      "note": 78,
      "start": 19.9894,
      "duration": 0.0095,
      "velocity": 91,
      "chip": "ym2612"
    },
    {
      "channel": 3,
      "note": 37,
      "start": 19.9895,
      "duration": 0.1495,
      "velocity": 105,
      "chip": "ym2612"
    },
    {
      "channel": 4,
      "note": 78,
      "start": 19.9896,
      "duration": 0.0094,
      "velocity": 101,
      "chip": "ym2612"
    },
    {
      "channel": 0,
      "note": 76,
      "start": 19.991,
      "duration": 0.0679,
      "velocity": 106,
      "chip": "ym2612"
    },
    {
      "channel": 2,
      "note": 74,
      "start": 19.999,
      "duration": 0.1002,
      "velocity": 91,
      "chip": "ym2612"
    },
    {
      "channel": 4,
      "note": 74,
      "start": 19.9991,
      "duration": 0.1002,
      "velocity": 101,
      "chip": "ym2612"
    },
    {
      "channel": 0,
      "note": 73,
      "start": 20.0589,
      "duration": 0.0999,
      "velocity": 106,
      "chip": "ym2612"
    },
    {
      "channel": 2,
      "note": 74,
      "start": 20.0992,
      "duration": 0.0198,
      "velocity": 91,
      "chip": "ym2612"
    },
    {
      "channel": 4,
      "note": 74,
      "start": 20.0993,
      "duration": 0.0198,
      "velocity": 101,
      "chip": "ym2612"
    },
    {
      "channel": 2,
      "note": 75,
      "start": 20.119,
      "duration": 0.0201,
      "velocity": 91,
      "chip": "ym2612"
    },
    {
      "channel": 4,
      "note": 75,
      "start": 20.119,
      "duration": 0.0201,
      "velocity": 101,
      "chip": "ym2612"
    },
    {
      "channel": 2,
      "note": 76,
      "start": 20.139,
      "duration": 0.1985,
      "velocity": 91,
      "chip": "ym2612"
    },
    {
      "channel": 4,
      "note": 76,
      "start": 20.1391,
      "duration": 0.1985,
      "velocity": 101,
      "chip": "ym2612"
    },
    {
      "channel": 0,
      "note": 69,
      "start": 20.1588,
      "duration": 0.12,
      "velocity": 106,
      "chip": "ym2612"
    },
    {
      "channel": 0,
      "note": 74,
      "start": 20.2788,
      "duration": 0.0419,
      "velocity": 106,
      "chip": "ym2612"
    },
    {
      "channel": 1,
      "note": 38,
      "start": 20.319,
      "duration": 0.2085,
      "velocity": 120,
      "chip": "ym2612"
    },
    {
      "channel": 3,
      "note": 38,
      "start": 20.3192,
      "duration": 0.0593,
      "velocity": 105,
      "chip": "ym2612"
    },
    {
      "channel": 0,
      "note": 78,
      "start": 20.3208,
      "duration": 0.0568,
      "velocity": 106,
      "chip": "ym2612"
    },
    {
      "channel": 2,
      "note": 75,
      "start": 20.3376,
      "duration": 0.02,
      "velocity": 91,
      "chip": "ym2612"
    },
    {
      "channel": 4,
      "note": 75,
      "start": 20.3376,
      "duration": 0.02,
      "velocity": 101,
      "chip": "ym2612"
    },
    {
      "channel": 2,
      "note": 74,
      "start": 20.3576,
      "duration": 0.0205,
      "velocity": 91,
      "chip": "ym2612"
    },
    {
      "channel": 4,
      "note": 74,
      "start": 20.3576,
      "duration": 0.0206,
      "velocity": 101,
      "chip": "ym2612"
    },
    {
      "channel": 0,
      "note": 81,
      "start": 20.3776,
      "duration": 0.0014,
      "velocity": 106,
      "chip": "ym2612"
    },
    {
      "channel": 2,
      "note": 74,
      "start": 20.3781,
      "duration": 0.0015,
      "velocity": 91,
      "chip": "ym2612"
    },
    {
      "channel": 4,
      "note": 74,
      "start": 20.3782,
      "duration": 0.0014,
      "velocity": 101,
      "chip": "ym2612"
    },
    {
      "channel": 0,
      "note": 78,
      "start": 20.3791,
      "duration": 0.0486,
      "velocity": 106,
      "chip": "ym2612"
    },
    {
      "channel": 2,
      "note": 71,
      "start": 20.3802,
      "duration": 0.368,
      "velocity": 91,
      "chip": "ym2612"
    },
    {
      "channel": 3,
      "note": 38,
      "start": 20.3802,
      "duration": 0.1678,
      "velocity": 105,
      "chip": "ym2612"
    },
    {
      "channel": 4,
      "note": 71,
      "start": 20.3804,
      "duration": 0.3679,
      "velocity": 101,
      "chip": "ym2612"
    },
    {
      "channel": 0,
      "note": 74,
      "start": 20.4277,
      "duration": 0.1201,
      "velocity": 106,
      "chip": "ym2612"
    },
    {
      "channel": 0,
      "note": 79,
      "start": 20.5478,
      "duration": 0.0023,
      "velocity": 106,
      "chip": "ym2612"
    },
    {
      "channel": 1,
      "note": 40,
      "start": 20.5479,
      "duration": 0.5155,
      "velocity": 120,
      "chip": "ym2612"
    },
    {
      "channel": 3,
      "note": 40,
      "start": 20.548,
      "duration": 0.0983,
      "velocity": 105,
      "chip": "ym2612"
    },
    {
      "channel": 0,
      "note": 78,
      "start": 20.5502,
      "duration": 0.0961,
      "velocity": 106,
      "chip": "ym2612"
    },
    {
      "channel": 0,
      "note": 79,
      "start": 20.6463,
      "duration": 0.1001,
      "velocity": 106,
      "chip": "ym2612"
    },
    {
      "channel": 0,
      "note": 76,
      "start": 20.7464,
      "duration": 0.0016,
      "velocity": 106,
      "chip": "ym2612"
    },
    {
      "channel": 3,
      "note": 40,
      "start": 20.7466,
      "duration": 0.0013,
      "velocity": 105,
      "chip": "ym2612"
    },
    {
      "channel": 0,
      "note": 79,
      "start": 20.7481,
      "duration": 0.01,
      "velocity": 106,
      "chip": "ym2612"
    },
    {
      "channel": 2,
      "note": 71,
      "start": 20.7482,
      "duration": 0.0002,
      "velocity": 91,
      "chip": "ym2612"
    },
    {
      "channel": 4,
      "note": 71,
      "start": 20.7482,
      "duration": 0.0002,
      "velocity": 101,
      "chip": "ym2612"
    },
    {
      "channel": 2,
      "note": 71,
      "start": 20.7484,
      "duration": 0.0082,
      "velocity": 91,
      "chip": "ym2612"
    },
    {
      "channel": 4,
      "note": 71,
      "start": 20.7484,
      "duration": 0.0083,
      "velocity": 101,
      "chip": "ym2612"
    },
    {
      "channel": 2,
      "note": 71,
      "start": 20.7566,
      "duration": 0.0013,
      "velocity": 91,
      "chip": "ym2612"
    },
    {
      "channel": 3,
      "note": 40,
      "start": 20.7567,
      "duration": 0.1782,
      "velocity": 105,
      "chip": "ym2612"
    },
    {
      "channel": 4,
      "note": 71,
      "start": 20.7567,
      "duration": 0.0013,
      "velocity": 101,
      "chip": "ym2612"
    },
    {
      "channel": 2,
      "note": 71,
      "start": 20.7579,
      "duration": 0.0372,
      "velocity": 91,
      "chip": "ym2612"
    },
    {
      "channel": 4,
      "note": 71,
      "start": 20.758,
      "duration": 0.0372,
      "velocity": 101,
      "chip": "ym2612"
    },
    {
      "channel": 0,
      "note": 78,
      "start": 20.7582,
      "duration": 0.0368,
      "velocity": 106,
      "chip": "ym2612"
    },
    {
      "channel": 0,
      "note": 74,
      "start": 20.795,
      "duration": 0.0999,
      "velocity": 106,
      "chip": "ym2612"
    },
    {
      "channel": 2,
      "note": 74,
      "start": 20.7952,
      "duration": 0.2186,
      "velocity": 91,
      "chip": "ym2612"
    },
    {
      "channel": 4,
      "note": 74,
      "start": 20.7953,
      "duration": 0.2185,
      "velocity": 101,
      "chip": "ym2612"
    },
    {
      "channel": 0,
      "note": 79,
      "start": 20.8949,
      "duration": 0.0617,
      "velocity": 106,
      "chip": "ym2612"
    },
    {
      "channel": 3,
      "note": 42,
      "start": 20.955,
      "duration": 0.0384,
      "velocity": 105,
      "chip": "ym2612"
    },
    {
      "channel": 0,
      "note": 78,
      "start": 20.9567,
      "duration": 0.057,
      "velocity": 106,
      "chip": "ym2612"
    },
    {
      "channel": 0,
      "note": 71,
      "start": 21.0137,
      "duration": 0.0012,
      "velocity": 106,
      "chip": "ym2612"
    },
    {
      "channel": 2,
      "note": 76,
      "start": 21.0138,
      "duration": 0.002,
      "velocity": 91,
      "chip": "ym2612"
    },
    {
      "channel": 4,
      "note": 76,
      "start": 21.0139,
      "duration": 0.0021,
      "velocity": 101,
      "chip": "ym2612"
    },
    {
      "channel": 0,
      "note": 79,
      "start": 21.0149,
      "duration": 0.0484,
      "velocity": 106,
      "chip": "ym2612"
    },
    {
      "channel": 2,
      "note": 69,
      "start": 21.0159,
      "duration": 0.3671,
      "velocity": 91,
      "chip": "ym2612"
    },
    {
      "channel": 3,
      "note": 42,
      "start": 21.0159,
      "duration": 0.1478,
      "velocity": 105,
      "chip": "ym2612"
    },
    {
      "channel": 4,
      "note": 69,
      "start": 21.0161,
      "duration": 0.367,
      "velocity": 101,
      "chip": "ym2612"
    },
    {
      "channel": 0,
      "note": 74,
      "start": 21.0634,
      "duration": 0.1001,
      "velocity": 106,
      "chip": "ym2612"
    },
    {
      "channel": 0,
      "note": 69,
      "start": 21.1636,
      "duration": 0.0034,
      "velocity": 106,
      "chip": "ym2612"
    },
    {
      "channel": 1,
      "note": 33,
      "start": 21.1636,
      "duration": 0.6766,
      "velocity": 120,
      "chip": "ym2612"
    },
    {
      "channel": 3,
      "note": 33,
      "start": 21.1637,
      "duration": 0.1181,
      "velocity": 105,
      "chip": "ym2612"
    },
    {
      "channel": 0,
      "note": 73,
      "start": 21.1669,
      "duration": 0.0949,
      "velocity": 106,
      "chip": "ym2612"
    },
    {
      "channel": 0,
      "note": 76,
      "start": 21.2619,
      "duration": 0.1201,
      "velocity": 106,
      "chip": "ym2612"
    },
    {
      "channel": 0,
      "note": 81,
      "start": 21.3821,
      "duration": 0.0017,
      "velocity": 106,
      "chip": "ym2612"
    },
    {
      "channel": 3,
      "note": 33,
      "start": 21.3822,
      "duration": 0.21,
      "velocity": 105,
      "chip": "ym2612"
    },
    {
      "channel": 2,
      "note": 69,
      "start": 21.383,
      "duration": 0.0003,
      "velocity": 91,
      "chip": "ym2612"
    },
    {
      "channel": 4,
      "note": 69,
      "start": 21.3831,
      "duration": 0.0003,
      "velocity": 101,
      "chip": "ym2612"
    },
    {
      "channel": 2,
      "note": 69,
      "start": 21.3833,
      "duration": 0.0002,
      "velocity": 91,
      "chip": "ym2612"
    },
    {
      "channel": 4,
      "note": 69,
      "start": 21.3834,
      "duration": 0.0002,
      "velocity": 101,
      "chip": "ym2612"
    },
    {
      "channel": 2,
      "note": 69,
      "start": 21.3836,
      "duration": 0.0003,
      "velocity": 91,
      "chip": "ym2612"
    },
    {
      "channel": 4,
      "note": 69,
      "start": 21.3836,
      "duration": 0.0004,
      "velocity": 101,
      "chip": "ym2612"
    },
    {
      "channel": 0,
      "note": 76,
      "start": 21.3838,
      "duration": 0.048,
      "velocity": 106,
      "chip": "ym2612"
    },
    {
      "channel": 2,
      "note": 69,
      "start": 21.3839,
      "duration": 0.0006,
      "velocity": 91,
      "chip": "ym2612"
    },
    {
      "channel": 4,
      "note": 69,
      "start": 21.384,
      "duration": 0.0002,
      "velocity": 101,
      "chip": "ym2612"
    },
    {
      "channel": 4,
      "note": 69,
      "start": 21.3843,
      "duration": 0.0002,
      "velocity": 101,
      "chip": "ym2612"
    },
    {
      "channel": 2,
      "note": 69,
      "start": 21.3844,
      "duration": 0.0277,
      "velocity": 91,
      "chip": "ym2612"
    },
    {
      "channel": 4,
      "note": 69,
      "start": 21.3845,
      "duration": 0.0075,
      "velocity": 101,
      "chip": "ym2612"
    },
    {
      "channel": 4,
      "note": 69,
      "start": 21.392,
      "duration": 0.0202,
      "velocity": 101,
      "chip": "ym2612"
    },
    {
      "channel": 2,
      "note": 69,
      "start": 21.4122,
      "duration": 0.0398,
      "velocity": 91,
      "chip": "ym2612"
    },
    {
      "channel": 4,
      "note": 69,
      "start": 21.4122,
      "duration": 0.0398,
      "velocity": 101,
      "chip": "ym2612"
    },
    {
      "channel": 0,
      "note": 73,
      "start": 21.4319,
      "duration": 0.1201,
      "velocity": 106,
      "chip": "ym2612"
    },
    {
      "channel": 2,
      "note": 69,
      "start": 21.452,
      "duration": 0.02,
      "velocity": 91,
      "chip": "ym2612"
    },
    {
      "channel": 4,
      "note": 69,
      "start": 21.452,
      "duration": 0.02,
      "velocity": 101,
      "chip": "ym2612"
    },
    {
      "channel": 2,
      "note": 69,
      "start": 21.472,
      "duration": 0.02,
      "velocity": 91,
      "chip": "ym2612"
    },
    {
      "channel": 4,
      "note": 69,
      "start": 21.472,
      "duration": 0.02,
      "velocity": 101,
      "chip": "ym2612"
    },
    {
      "channel": 2,
      "note": 69,
      "start": 21.492,
      "duration": 0.0202,
      "velocity": 91,
      "chip": "ym2612"
    },
    {
      "channel": 4,
      "note": 69,
      "start": 21.492,
      "duration": 0.0202,
      "velocity": 101,
      "chip": "ym2612"
    },
    {
      "channel": 2,
      "note": 69,
      "start": 21.5122,
      "duration": 0.0198,
      "velocity": 91,
      "chip": "ym2612"
    },
    {
      "channel": 4,
      "note": 69,
      "start": 21.5122,
      "duration": 0.0198,
      "velocity": 101,
      "chip": "ym2612"
    },
    {
      "channel": 2,
      "note": 69,
      "start": 21.532,
      "duration": 0.0201,
      "velocity": 91,
      "chip": "ym2612"
    },
    {
      "channel": 4,
      "note": 69,
      "start": 21.532,
      "duration": 0.0202,
      "velocity": 101,
      "chip": "ym2612"
    },
    {
      "channel": 0,
      "note": 78,
      "start": 21.552,
      "duration": 0.1001,
      "velocity": 106,
      "chip": "ym2612"
    },
    {
      "channel": 2,
      "note": 69,
      "start": 21.5521,
      "duration": 0.0199,
      "velocity": 91,
      "chip": "ym2612"
    },
    {
      "channel": 4,
      "note": 69,
      "start": 21.5522,
      "duration": 0.0198,
      "velocity": 101,
      "chip": "ym2612"
    },
    {
      "channel": 2,
      "note": 69,
      "start": 21.572,
      "duration": 0.0201,
      "velocity": 91,
      "chip": "ym2612"
    },
    {
      "channel": 4,
      "note": 69,
      "start": 21.572,
      "duration": 0.0202,
      "velocity": 101,
      "chip": "ym2612"
    },
    {
      "channel": 2,
      "note": 69,
      "start": 21.5921,
      "duration": 0.0399,
      "velocity": 91,
      "chip": "ym2612"
    },
    {
      "channel": 4,
      "note": 69,
      "start": 21.5922,
      "duration": 0.0398,
      "velocity": 101,
      "chip": "ym2612"
    },
    {
      "channel": 2,
      "note": 69,
      "start": 21.632,
      "duration": 0.0202,
      "velocity": 91,
      "chip": "ym2612"
    },
    {
      "channel": 4,
      "note": 69,
      "start": 21.632,
      "duration": 0.0202,
      "velocity": 101,
      "chip": "ym2612"
    },
    {
      "channel": 0,
      "note": 73,
      "start": 21.6522,
      "duration": 0.0617,
      "velocity": 106,
      "chip": "ym2612"
    },
    {
      "channel": 2,
      "note": 69,
      "start": 21.6522,
      "duration": 0.0598,
      "velocity": 91,
      "chip": "ym2612"
    },
    {
      "channel": 4,
      "note": 69,
      "start": 21.6523,
      "duration": 0.0599,
      "velocity": 101,
      "chip": "ym2612"
    },
    {
      "channel": 2,
      "note": 76,
      "start": 21.712,
      "duration": 0.0486,
      "velocity": 91,
      "chip": "ym2612"
    },
    {
      "channel": 3,
      "note": 33,
      "start": 21.7121,
      "duration": 0.039,
      "velocity": 105,
      "chip": "ym2612"
    },
    {
      "channel": 4,
      "note": 76,
      "start": 21.7122,
      "duration": 0.0486,
      "velocity": 101,
      "chip": "ym2612"
    },
    {
      "channel": 0,
      "note": 69,
      "start": 21.7138,
      "duration": 0.0367,
      "velocity": 106,
      "chip": "ym2612"
    },
    {
      "channel": 0,
      "note": 76,
      "start": 21.7505,
      "duration": 0.0016,
      "velocity": 106,
      "chip": "ym2612"
    },
    {
      "channel": 0,
      "note": 73,
      "start": 21.7521,
      "duration": 0.0683,
      "velocity": 106,
      "chip": "ym2612"
    },
    {
      "channel": 2,
      "note": 81,
      "start": 21.7607,
      "duration": 0.0599,
      "velocity": 91,
      "chip": "ym2612"
    },
    {
      "channel": 3,
      "note": 33,
      "start": 21.7608,
      "duration": 0.1602,
      "velocity": 105,
      "chip": "ym2612"
    },
    {
      "channel": 4,
      "note": 81,
      "start": 21.7609,
      "duration": 0.0598,
      "velocity": 101,
      "chip": "ym2612"
    },
    {
      "channel": 0,
      "note": 69,
      "start": 21.8205,
      "duration": 0.1003,
      "velocity": 106,
      "chip": "ym2612"
    },
    {
      "channel": 0,
      "note": 66,
      "start": 21.9209,
      "duration": 0.0034,
      "velocity": 106,
      "chip": "ym2612"
    },
    {
      "channel": 1,
      "note": 35,
      "start": 21.921,
      "duration": 0.6078,
      "velocity": 120,
      "chip": "ym2612"
    },
    {
      "channel": 2,
      "note": 81,
      "start": 21.921,
      "duration": 0.0381,
      "velocity": 91,
      "chip": "ym2612"
    },
    {
      "channel": 3,
      "note": 35,
      "start": 21.9211,
      "duration": 0.1179,
      "velocity": 105,
      "chip": "ym2612"
    },
    {
      "channel": 4,
      "note": 81,
      "start": 21.9212,
      "duration": 0.0381,
      "velocity": 101,
      "chip": "ym2612"
    },
    {
      "channel": 0,
      "note": 71,
      "start": 21.9243,
      "duration": 0.0948,
      "velocity": 106,
      "chip": "ym2612"
    },
    {
      "channel": 2,
      "note": 79,
      "start": 21.9592,
      "duration": 0.1802,
      "velocity": 91,
      "chip": "ym2612"
    },
    {
      "channel": 4,
      "note": 79,
      "start": 21.9594,
      "duration": 0.1802,
      "velocity": 101,
      "chip": "ym2612"
    },
    {
      "channel": 0,
      "note": 74,
      "start": 22.0191,
      "duration": 0.1202,
      "velocity": 106,
      "chip": "ym2612"
    },
    {
      "channel": 0,
      "note": 78,
      "start": 22.1394,
      "duration": 0.0015,
      "velocity": 106,
      "chip": "ym2612"
    },
    {
      "channel": 2,
      "note": 78,
      "start": 22.1395,
      "duration": 0.0018,
      "velocity": 91,
      "chip": "ym2612"
    },
    {
      "channel": 3,
      "note": 35,
      "start": 22.1395,
      "duration": 0.0009,
      "velocity": 105,
      "chip": "ym2612"
    },
    {
      "channel": 4,
      "note": 78,
      "start": 22.1396,
      "duration": 0.0017,
      "velocity": 101,
      "chip": "ym2612"
    },
    {
      "channel": 0,
      "note": 74,
      "start": 22.1408,
      "duration": 0.0027,
      "velocity": 106,
      "chip": "ym2612"
    },
    {
      "channel": 2,
      "note": 76,
      "start": 22.1417,
      "duration": 0.002,
      "velocity": 91,
      "chip": "ym2612"
    },
    {
      "channel": 3,
      "note": 35,
      "start": 22.1419,
      "duration": 0.1584,
      "velocity": 105,
      "chip": "ym2612"
    },
    {
      "channel": 4,
      "note": 76,
      "start": 22.1419,
      "duration": 0.002,
      "velocity": 101,
      "chip": "ym2612"
    },
    {
      "channel": 0,
      "note": 71,
      "start": 22.1435,
      "duration": 0.0368,
      "velocity": 106,
      "chip": "ym2612"
    },
    {
      "channel": 2,
      "note": 76,
      "start": 22.1438,
      "duration": 0.0003,
      "velocity": 91,
      "chip": "ym2612"
    },
    {
      "channel": 4,
      "note": 76,
      "start": 22.1439,
      "duration": 0.0003,
      "velocity": 101,
      "chip": "ym2612"
    },
    {
      "channel": 2,
      "note": 77,
      "start": 22.1441,
      "duration": 0.0013,
      "velocity": 91,
      "chip": "ym2612"
    },
    {
      "channel": 4,
      "note": 77,
      "start": 22.1442,
      "duration": 0.0013,
      "velocity": 101,
      "chip": "ym2612"
    },
    {
      "channel": 2,
      "note": 78,
      "start": 22.1454,
      "duration": 0.215,
      "velocity": 91,
      "chip": "ym2612"
    },
    {
      "channel": 4,
      "note": 78,
      "start": 22.1455,
      "duration": 0.2151,
      "velocity": 101,
      "chip": "ym2612"
    },
    {
      "channel": 0,
      "note": 79,
      "start": 22.1802,
      "duration": 0.1199,
      "velocity": 106,
      "chip": "ym2612"
    },
    {
      "channel": 0,
      "note": 74,
      "start": 22.3002,
      "duration": 0.0619,
      "velocity": 106,
      "chip": "ym2612"
    },
    {
      "channel": 2,
      "note": 77,
      "start": 22.3604,
      "duration": 0.0013,
      "velocity": 91,
      "chip": "ym2612"
    },
    {
      "channel": 3,
      "note": 35,
      "start": 22.3605,
      "duration": 0.0183,
      "velocity": 105,
      "chip": "ym2612"
    },
    {
      "channel": 4,
      "note": 77,
      "start": 22.3606,
      "duration": 0.0013,
      "velocity": 101,
      "chip": "ym2612"
    },
    {
      "channel": 2,
      "note": 76,
      "start": 22.3617,
      "duration": 0.0373,
      "velocity": 91,
      "chip": "ym2612"
    },
    {
      "channel": 4,
      "note": 76,
      "start": 22.3619,
      "duration": 0.0372,
      "velocity": 101,
      "chip": "ym2612"
    },
    {
      "channel": 0,
      "note": 71,
      "start": 22.3622,
      "duration": 0.0367,
      "velocity": 106,
      "chip": "ym2612"
    },
    {
      "channel": 0,
      "note": 78,
      "start": 22.3989,
      "duration": 0.0015,
      "velocity": 106,
      "chip": "ym2612"
    },
    {
      "channel": 2,
      "note": 74,
      "start": 22.3991,
      "duration": 0.0099,
      "velocity": 91,
      "chip": "ym2612"
    },
    {
      "channel": 4,
      "note": 74,
      "start": 22.3991,
      "duration": 0.01,
      "velocity": 101,
      "chip": "ym2612"
    },
    {
      "channel": 0,
      "note": 74,
      "start": 22.4005,
      "duration": 0.0483,
      "velocity": 106,
      "chip": "ym2612"
    },
    {
      "channel": 2,
      "note": 76,
      "start": 22.409,
      "duration": 0.3788,
      "velocity": 91,
      "chip": "ym2612"
    },
    {
      "channel": 3,
      "note": 35,
      "start": 22.4091,
      "duration": 0.1602,
      "velocity": 105,
      "chip": "ym2612"
    },
    {
      "channel": 4,
      "note": 76,
      "start": 22.4092,
      "duration": 0.3787,
      "velocity": 101,
      "chip": "ym2612"
    },
    {
      "channel": 0,
      "note": 71,
      "start": 22.4489,
      "duration": 0.1202,
      "velocity": 106,
      "chip": "ym2612"
    },
    {
      "channel": 0,
      "note": 69,
      "start": 22.5691,
      "duration": 0.0022,
      "velocity": 106,
      "chip": "ym2612"
    },
    {
      "channel": 1,
      "note": 45,
      "start": 22.5692,
      "duration": 0.5483,
      "velocity": 120,
      "chip": "ym2612"
    },
    {
      "channel": 3,
      "note": 37,
      "start": 22.5693,
      "duration": 0.078,
      "velocity": 105,
      "chip": "ym2612"
    },
    {
      "channel": 0,
      "note": 73,
      "start": 22.5714,
      "duration": 0.096,
      "velocity": 106,
      "chip": "ym2612"
    },
    {
      "channel": 0,
      "note": 76,
      "start": 22.6674,
      "duration": 0.1203,
      "velocity": 106,
      "chip": "ym2612"
    },
    {
      "channel": 0,
      "note": 81,
      "start": 22.7878,
      "duration": 0.0013,
      "velocity": 106,
      "chip": "ym2612"
    },
    {
      "channel": 2,
      "note": 74,
      "start": 22.7878,
      "duration": 0.002,
      "velocity": 91,
      "chip": "ym2612"
    },
    {
      "channel": 3,
      "note": 37,
      "start": 22.7879,
      "duration": 0.1693,
      "velocity": 105,
      "chip": "ym2612"
    },
    {
      "channel": 4,
      "note": 74,
      "start": 22.788,
      "duration": 0.0019,
      "velocity": 101,
      "chip": "ym2612"
    },
    {
      "channel": 0,
      "note": 76,
      "start": 22.7891,
      "duration": 0.0482,
      "velocity": 106,
      "chip": "ym2612"
    },
    {
      "channel": 2,
      "note": 76,
      "start": 22.7898,
      "duration": 0.2275,
      "velocity": 91,
      "chip": "ym2612"
    },
    {
      "channel": 4,
      "note": 76,
      "start": 22.79,
      "duration": 0.2274,
      "velocity": 101,
      "chip": "ym2612"
    },
    {
      "channel": 0,
      "note": 73,
      "start": 22.8373,
      "duration": 0.1,
      "velocity": 106,
      "chip": "ym2612"
    },
    {
      "channel": 0,
      "note": 69,
      "start": 22.9373,
      "duration": 0.12,
      "velocity": 106,
      "chip": "ym2612"
    },
    {
      "channel": 2,
      "note": 76,
      "start": 23.0173,
      "duration": 0.02,
      "velocity": 91,
      "chip": "ym2612"
    },
    {
      "channel": 4,
      "note": 76,
      "start": 23.0173,
      "duration": 0.02,
      "velocity": 101,
      "chip": "ym2612"
    },
    {
      "channel": 2,
      "note": 76,
      "start": 23.0373,
      "duration": 0.0202,
      "velocity": 91,
      "chip": "ym2612"
    },
    {
      "channel": 4,
      "note": 76,
      "start": 23.0373,
      "duration": 0.0202,
      "velocity": 101,
      "chip": "ym2612"
    },
    {
      "channel": 0,
      "note": 74,
      "start": 23.0574,
      "duration": 0.0617,
      "velocity": 106,
      "chip": "ym2612"
    },
    {
      "channel": 2,
      "note": 76,
      "start": 23.0575,
      "duration": 0.0198,
      "velocity": 91,
      "chip": "ym2612"
    },
    {
      "channel": 4,
      "note": 76,
      "start": 23.0576,
      "duration": 0.0198,
      "velocity": 101,
      "chip": "ym2612"
    },
    {
      "channel": 2,
      "note": 76,
      "start": 23.0773,
      "duration": 0.0198,
      "velocity": 91,
      "chip": "ym2612"
    },
    {
      "channel": 4,
      "note": 76,
      "start": 23.0773,
      "duration": 0.0198,
      "velocity": 101,
      "chip": "ym2612"
    },
    {
      "channel": 1,
      "note": 38,
      "start": 23.1176,
      "duration": 0.2086,
      "velocity": 120,
      "chip": "ym2612"
    },
    {
      "channel": 2,
      "note": 78,
      "start": 23.1176,
      "duration": 0.0408,
      "velocity": 91,
      "chip": "ym2612"
    },
    {
      "channel": 3,
      "note": 38,
      "start": 23.1177,
      "duration": 0.0388,
      "velocity": 105,
      "chip": "ym2612"
    },
    {
      "channel": 4,
      "note": 78,
      "start": 23.1177,
      "duration": 0.0409,
      "velocity": 101,
      "chip": "ym2612"
    },
    {
      "channel": 0,
      "note": 78,
      "start": 23.1191,
      "duration": 0.0368,
      "velocity": 106,
      "chip": "ym2612"
    },
    {
      "channel": 0,
      "note": 76,
      "start": 23.1559,
      "duration": 0.0016,
      "velocity": 106,
      "chip": "ym2612"
    },
    {
      "channel": 0,
      "note": 78,
      "start": 23.1575,
      "duration": 0.0484,
      "velocity": 106,
      "chip": "ym2612"
    },
    {
      "channel": 2,
      "note": 76,
      "start": 23.1585,
      "duration": 0.1701,
      "velocity": 91,
      "chip": "ym2612"
    },
    {
      "channel": 3,
      "note": 38,
      "start": 23.1585,
      "duration": 0.1677,
      "velocity": 105,
      "chip": "ym2612"
    },
    {
      "channel": 4,
      "note": 76,
      "start": 23.1587,
      "duration": 0.17,
      "velocity": 101,
      "chip": "ym2612"
    },
    {
      "channel": 0,
      "note": 74,
      "start": 23.206,
      "duration": 0.1201,
      "velocity": 106,
      "chip": "ym2612"
    },
    {
      "channel": 0,
      "note": 71,
      "start": 23.3261,
      "duration": 0.0023,
      "velocity": 106,
      "chip": "ym2612"
    },
    {
      "channel": 1,
      "note": 40,
      "start": 23.3262,
      "duration": 0.4071,
      "velocity": 120,
      "chip": "ym2612"
    },
    {
      "channel": 3,
      "note": 40,
      "start": 23.3263,
      "duration": 0.0783,
      "velocity": 105,
      "chip": "ym2612"
    },
    {
      "channel": 0,
      "note": 76,
      "start": 23.3285,
      "duration": 0.0961,
      "velocity": 106,
      "chip": "ym2612"
    },
    {
      "channel": 2,
      "note": 78,
      "start": 23.3286,
      "duration": 0.0961,
      "velocity": 91,
      "chip": "ym2612"
    },
    {
      "channel": 4,
      "note": 78,
      "start": 23.3288,
      "duration": 0.0961,
      "velocity": 101,
      "chip": "ym2612"
    },
    {
      "channel": 0,
      "note": 79,
      "start": 23.4247,
      "duration": 0.1001,
      "velocity": 106,
      "chip": "ym2612"
    },
    {
      "channel": 2,
      "note": 79,
      "start": 23.4248,
      "duration": 0.1001,
      "velocity": 91,
      "chip": "ym2612"
    },
    {
      "channel": 4,
      "note": 79,
      "start": 23.4249,
      "duration": 0.1002,
      "velocity": 101,
      "chip": "ym2612"
    },
    {
      "channel": 0,
      "note": 78,
      "start": 23.5249,
      "duration": 0.0016,
      "velocity": 106,
      "chip": "ym2612"
    },
    {
      "channel": 2,
      "note": 78,
      "start": 23.525,
      "duration": 0.0016,
      "velocity": 91,
      "chip": "ym2612"
    },
    {
      "channel": 3,
      "note": 40,
      "start": 23.5251,
      "duration": 0.0016,
      "velocity": 105,
      "chip": "ym2612"
    },
    {
      "channel": 4,
      "note": 78,
      "start": 23.5251,
      "duration": 0.0015,
      "velocity": 101,
      "chip": "ym2612"
    },
    {
      "channel": 0,
      "note": 79,
      "start": 23.5266,
      "duration": 0.0095,
      "velocity": 106,
      "chip": "ym2612"
    },
    {
      "channel": 2,
      "note": 81,
      "start": 23.5266,
      "duration": 0.0096,
      "velocity": 91,
      "chip": "ym2612"
    },
    {
      "channel": 4,
      "note": 81,
      "start": 23.5267,
      "duration": 0.0096,
      "velocity": 101,
      "chip": "ym2612"
    },
    {
      "channel": 3,
      "note": 40,
      "start": 23.5347,
      "duration": 0.0785,
      "velocity": 105,
      "chip": "ym2612"
    },
    {
      "channel": 0,
      "note": 76,
      "start": 23.5361,
      "duration": 0.0372,
      "velocity": 106,
      "chip": "ym2612"
    },
    {
      "channel": 2,
      "note": 83,
      "start": 23.5363,
      "duration": 0.0372,
      "velocity": 91,
      "chip": "ym2612"
    },
    {
      "channel": 4,
      "note": 83,
      "start": 23.5364,
      "duration": 0.0372,
      "velocity": 101,
      "chip": "ym2612"
    },
    {
      "channel": 0,
      "note": 73,
      "start": 23.5734,
      "duration": 0.1199,
      "velocity": 106,
      "chip": "ym2612"
    },
    {
      "channel": 2,
      "note": 79,
      "start": 23.5736,
      "duration": 0.1199,
      "velocity": 91,
      "chip": "ym2612"
    },
    {
      "channel": 4,
      "note": 79,
      "start": 23.5737,
      "duration": 0.1198,
      "velocity": 101,
      "chip": "ym2612"
    },
    {
      "channel": 0,
      "note": 74,
      "start": 23.6934,
      "duration": 0.0417,
      "velocity": 106,
      "chip": "ym2612"
    },
    {
      "channel": 2,
      "note": 81,
      "start": 23.6935,
      "duration": 0.0417,
      "velocity": 91,
      "chip": "ym2612"
    },
    {
      "channel": 4,
      "note": 81,
      "start": 23.6936,
      "duration": 0.0418,
      "velocity": 101,
      "chip": "ym2612"
    },
    {
      "channel": 1,
      "note": 42,
      "start": 23.7334,
      "duration": 0.0098,
      "velocity": 120,
      "chip": "ym2612"
    },
    {
      "channel": 3,
      "note": 42,
      "start": 23.7336,
      "duration": 0.0045,
      "velocity": 105,
      "chip": "ym2612"
    },
    {
      "channel": 0,
      "note": 76,
      "start": 23.7352,
      "duration": 0.0027,
      "velocity": 106,
      "chip": "ym2612"
    },
    {
      "channel": 2,
      "note": 83,
      "start": 23.7353,
      "duration": 0.0027,
      "velocity": 91,
      "chip": "ym2612"
    },
    {
      "channel": 4,
      "note": 83,
      "start": 23.7354,
      "duration": 0.0027,
      "velocity": 101,
      "chip": "ym2612"
    },
    {
      "channel": 0,
      "note": 78,
      "start": 23.738,
      "duration": 0.0022,
      "velocity": 106,
      "chip": "ym2612"
    },
    {
      "channel": 2,
      "note": 85,
      "start": 23.7381,
      "duration": 0.0022,
      "velocity": 91,
      "chip": "ym2612"
    },
    {
      "channel": 4,
      "note": 85,
      "start": 23.7381,
      "duration": 0.0022,
      "velocity": 101,
      "chip": "ym2612"
    },
    {
      "channel": 0,
      "note": 79,
      "start": 23.7402,
      "duration": 0.0017,
      "velocity": 106,
      "chip": "ym2612"
    },
    {
      "channel": 2,
      "note": 86,
      "start": 23.7403,
      "duration": 0.0017,
      "velocity": 91,
      "chip": "ym2612"
    },
    {
      "channel": 4,
      "note": 86,
      "start": 23.7404,
      "duration": 0.0017,
      "velocity": 101,
      "chip": "ym2612"
    },
    {
      "channel": 3,
      "note": 42,
      "start": 23.7411,
      "duration": 0.0027,
      "velocity": 105,
      "chip": "ym2612"
    },
    {
      "channel": 0,
      "note": 81,
      "start": 23.742,
      "duration": 0.0012,
      "velocity": 106,
      "chip": "ym2612"
    },
    {
      "channel": 2,
      "note": 88,
      "start": 23.742,
      "duration": 0.0017,
      "velocity": 101,
      "chip": "ym2612"
    },
    {
      "channel": 4,
      "note": 88,
      "start": 23.7421,
      "duration": 0.0022,
      "velocity": 91,
      "chip": "ym2612"
    },
    {
      "channel": 0,
      "note": 72,
      "start": 23.7433,
      "duration": 0.0043,
      "velocity": 106,
      "chip": "ym2612"
    },
    {
      "channel": 1,
      "note": 41,
      "start": 23.7433,
      "duration": 0.6066,
      "velocity": 120,
      "chip": "ym2612"
    },
    {
      "channel": 2,
      "note": 77,
      "start": 23.7438,
      "duration": 0.2184,
      "velocity": 101,
      "chip": "ym2612"
    },
    {
      "channel": 3,
      "note": 41,
      "start": 23.7439,
      "duration": 0.0958,
      "velocity": 105,
      "chip": "ym2612"
    },
    {
      "channel": 4,
      "note": 77,
      "start": 23.7444,
      "duration": 0.2178,
      "velocity": 91,
      "chip": "ym2612"
    },
    {
      "channel": 0,
      "note": 77,
      "start": 23.7476,
      "duration": 0.1121,
      "velocity": 106,
      "chip": "ym2612"
    },
    {
      "channel": 0,
      "note": 80,
      "start": 23.8597,
      "duration": 0.1002,
      "velocity": 106,
      "chip": "ym2612"
    },
    {
      "channel": 0,
      "note": 84,
      "start": 23.96,
      "duration": 0.0016,
      "velocity": 106,
      "chip": "ym2612"
    },
    {
      "channel": 3,
      "note": 41,
      "start": 23.9602,
      "duration": 0.1295,
      "velocity": 105,
      "chip": "ym2612"
    },
    {
      "channel": 0,
      "note": 80,
      "start": 23.9617,
      "duration": 0.0481,
      "velocity": 106,
      "chip": "ym2612"
    },
    {
      "channel": 2,
      "note": 79,
      "start": 23.9622,
      "duration": 0.3277,
      "velocity": 101,
      "chip": "ym2612"
    },
    {
      "channel": 4,
      "note": 79,
      "start": 23.9623,
      "duration": 0.3277,
      "velocity": 91,
      "chip": "ym2612"
    },
    {
      "channel": 0,
      "note": 77,
      "start": 24.0098,
      "duration": 0.1199,
      "velocity": 106,
      "chip": "ym2612"
    },
    {
      "channel": 0,
      "note": 72,
      "start": 24.1297,
      "duration": 0.1,
      "velocity": 106,
      "chip": "ym2612"
    },
    {
      "channel": 0,
      "note": 77,
      "start": 24.2297,
      "duration": 0.062,
      "velocity": 106,
      "chip": "ym2612"
    },
    {
      "channel": 2,
      "note": 80,
      "start": 24.2899,
      "duration": 0.0602,
      "velocity": 101,
      "chip": "ym2612"
    },
    {
      "channel": 3,
      "note": 41,
      "start": 24.29,
      "duration": 0.0601,
      "velocity": 105,
      "chip": "ym2612"
    },
    {
      "channel": 4,
      "note": 80,
      "start": 24.2901,
      "duration": 0.06,
      "velocity": 91,
      "chip": "ym2612"
    },
    {
      "channel": 0,
      "note": 80,
      "start": 24.2917,
      "duration": 0.0567,
      "velocity": 106,
      "chip": "ym2612"
    },
    {
      "channel": 0,
      "note": 84,
      "start": 24.3485,
      "duration": 0.0013,
      "velocity": 106,
      "chip": "ym2612"
    },
    {
      "channel": 0,
      "note": 80,
      "start": 24.3499,
      "duration": 0.0484,
      "velocity": 106,
      "chip": "ym2612"
    },
    {
      "channel": 1,
      "note": 37,
      "start": 24.3508,
      "duration": 0.6358,
      "velocity": 120,
      "chip": "ym2612"
    },
    {
      "channel": 2,
      "note": 73,
      "start": 24.3509,
      "duration": 0.3687,
      "velocity": 101,
      "chip": "ym2612"
    },
    {
      "channel": 3,
      "note": 37,
      "start": 24.351,
      "duration": 0.1072,
      "velocity": 105,
      "chip": "ym2612"
    },
    {
      "channel": 4,
      "note": 73,
      "start": 24.3511,
      "duration": 0.3687,
      "velocity": 91,
      "chip": "ym2612"
    },
    {
      "channel": 0,
      "note": 77,
      "start": 24.3983,
      "duration": 0.1,
      "velocity": 106,
      "chip": "ym2612"
    },
    {
      "channel": 0,
      "note": 73,
      "start": 24.4983,
      "duration": 0.0032,
      "velocity": 106,
      "chip": "ym2612"
    },
    {
      "channel": 0,
      "note": 77,
      "start": 24.5015,
      "duration": 0.0955,
      "velocity": 106,
      "chip": "ym2612"
    },
    {
      "channel": 3,
      "note": 37,
      "start": 24.5571,
      "duration": 0.1606,
      "velocity": 105,
      "chip": "ym2612"
    },
    {
      "channel": 0,
      "note": 80,
      "start": 24.597,
      "duration": 0.12,
      "velocity": 106,
      "chip": "ym2612"
    },
    {
      "channel": 0,
      "note": 84,
      "start": 24.7171,
      "duration": 0.0013,
      "velocity": 106,
      "chip": "ym2612"
    },
    {
      "channel": 0,
      "note": 80,
      "start": 24.7185,
      "duration": 0.0029,
      "velocity": 106,
      "chip": "ym2612"
    },
    {
      "channel": 2,
      "note": 80,
      "start": 24.7197,
      "duration": 0.2184,
      "velocity": 101,
      "chip": "ym2612"
    },
    {
      "channel": 3,
      "note": 37,
      "start": 24.7197,
      "duration": 0.002,
      "velocity": 105,
      "chip": "ym2612"
    },
    {
      "channel": 4,
      "note": 80,
      "start": 24.7198,
      "duration": 0.2184,
      "velocity": 91,
      "chip": "ym2612"
    },
    {
      "channel": 0,
      "note": 77,
      "start": 24.7214,
      "duration": 0.0567,
      "velocity": 106,
      "chip": "ym2612"
    },
    {
      "channel": 0,
      "note": 85,
      "start": 24.7782,
      "duration": 0.0999,
      "velocity": 106,
      "chip": "ym2612"
    },
    {
      "channel": 3,
      "note": 37,
      "start": 24.7783,
      "duration": 0.1612,
      "velocity": 105,
      "chip": "ym2612"
    },
    {
      "channel": 0,
      "note": 80,
      "start": 24.8781,
      "duration": 0.0618,
      "velocity": 106,
      "chip": "ym2612"
    },
    {
      "channel": 2,
      "note": 75,
      "start": 24.9382,
      "duration": 0.039,
      "velocity": 101,
      "chip": "ym2612"
    },
    {
      "channel": 4,
      "note": 75,
      "start": 24.9383,
      "duration": 0.0391,
      "velocity": 91,
      "chip": "ym2612"
    },
    {
      "channel": 0,
      "note": 77,
      "start": 24.9399,
      "duration": 0.0372,
      "velocity": 106,
      "chip": "ym2612"
    },
    {
      "channel": 0,
      "note": 84,
      "start": 24.9772,
      "duration": 0.0015,
      "velocity": 106,
      "chip": "ym2612"
    },
    {
      "channel": 2,
      "note": 79,
      "start": 24.9773,
      "duration": 0.7579,
      "velocity": 101,
      "chip": "ym2612"
    },
    {
      "channel": 3,
      "note": 37,
      "start": 24.9774,
      "duration": 0.001,
      "velocity": 105,
      "chip": "ym2612"
    },
    {
      "channel": 4,
      "note": 79,
      "start": 24.9775,
      "duration": 0.7577,
      "velocity": 91,
      "chip": "ym2612"
    },
    {
      "channel": 0,
      "note": 80,
      "start": 24.9788,
      "duration": 0.0479,
      "velocity": 106,
      "chip": "ym2612"
    },
    {
      "channel": 1,
      "note": 39,
      "start": 24.9867,
      "duration": 0.8765,
      "velocity": 120,
      "chip": "ym2612"
    },
    {
      "channel": 3,
      "note": 37,
      "start": 24.9867,
      "duration": 0.1198,
      "velocity": 105,
      "chip": "ym2612"
    },
    {
      "channel": 0,
      "note": 77,
      "start": 25.0266,
      "duration": 0.1201,
      "velocity": 106,
      "chip": "ym2612"
    },
    {
      "channel": 0,
      "note": 75,
      "start": 25.1467,
      "duration": 0.0034,
      "velocity": 106,
      "chip": "ym2612"
    },
    {
      "channel": 3,
      "note": 39,
      "start": 25.1469,
      "duration": 0.1182,
      "velocity": 105,
      "chip": "ym2612"
    },
    {
      "channel": 0,
      "note": 70,
      "start": 25.1501,
      "duration": 0.0951,
      "velocity": 106,
      "chip": "ym2612"
    },
    {
      "channel": 0,
      "note": 79,
      "start": 25.2452,
      "duration": 0.1201,
      "velocity": 106,
      "chip": "ym2612"
    },
    {
      "channel": 0,
      "note": 82,
      "start": 25.3654,
      "duration": 0.0013,
      "velocity": 106,
      "chip": "ym2612"
    },
    {
      "channel": 3,
      "note": 39,
      "start": 25.3655,
      "duration": 0.0495,
      "velocity": 105,
      "chip": "ym2612"
    },
    {
      "channel": 0,
      "note": 79,
      "start": 25.3667,
      "duration": 0.0482,
      "velocity": 106,
      "chip": "ym2612"
    },
    {
      "channel": 0,
      "note": 75,
      "start": 25.415,
      "duration": 0.1,
      "velocity": 106,
      "chip": "ym2612"
    },
    {
      "channel": 0,
      "note": 70,
      "start": 25.5151,
      "duration": 0.1199,
      "velocity": 106,
      "chip": "ym2612"
    },
    {
      "channel": 3,
      "note": 39,
      "start": 25.5153,
      "duration": 0.0997,
      "velocity": 105,
      "chip": "ym2612"
    },
    {
      "channel": 0,
      "note": 75,
      "start": 25.6349,
      "duration": 0.0617,
      "velocity": 106,
      "chip": "ym2612"
    },
    {
      "channel": 3,
      "note": 39,
      "start": 25.6951,
      "duration": 0.0393,
      "velocity": 105,
      "chip": "ym2612"
    },
    {
      "channel": 0,
      "note": 79,
      "start": 25.6967,
      "duration": 0.0369,
      "velocity": 106,
      "chip": "ym2612"
    },
    {
      "channel": 0,
      "note": 82,
      "start": 25.7336,
      "duration": 0.0015,
      "velocity": 106,
      "chip": "ym2612"
    },
    {
      "channel": 0,
      "note": 79,
      "start": 25.7351,
      "duration": 0.0482,
      "velocity": 106,
      "chip": "ym2612"
    },
    {
      "channel": 3,
      "note": 36,
      "start": 25.7358,
      "duration": 0.17,
      "velocity": 105,
      "chip": "ym2612"
    },
    {
      "channel": 0,
      "note": 75,
      "start": 25.7834,
      "duration": 0.1202,
      "velocity": 106,
      "chip": "ym2612"
    },
    {
      "channel": 0,
      "note": 72,
      "start": 25.9037,
      "duration": 0.0022,
      "velocity": 106,
      "chip": "ym2612"
    },
    {
      "channel": 1,
      "note": 36,
      "start": 25.9038,
      "duration": 0.4681,
      "velocity": 120,
      "chip": "ym2612"
    },
    {
      "channel": 2,
      "note": 79,
      "start": 25.9038,
      "duration": 0.1986,
      "velocity": 101,
      "chip": "ym2612"
    },
    {
      "channel": 4,
      "note": 79,
      "start": 25.904,
      "duration": 0.1985,
      "velocity": 91,
      "chip": "ym2612"
    },
    {
      "channel": 0,
      "note": 75,
      "start": 25.906,
      "duration": 0.0961,
      "velocity": 106,
      "chip": "ym2612"
    },
    {
      "channel": 3,
      "note": 36,
      "start": 25.9422,
      "duration": 0.161,
      "velocity": 105,
      "chip": "ym2612"
    },
    {
      "channel": 0,
      "note": 79,
      "start": 26.0021,
      "duration": 0.1002,
      "velocity": 106,
      "chip": "ym2612"
    },
    {
      "channel": 0,
      "note": 82,
      "start": 26.1024,
      "duration": 0.0016,
      "velocity": 106,
      "chip": "ym2612"
    },
    {
      "channel": 2,
      "note": 77,
      "start": 26.1024,
      "duration": 0.0099,
      "velocity": 101,
      "chip": "ym2612"
    },
    {
      "channel": 4,
      "note": 77,
      "start": 26.1025,
      "duration": 0.01,
      "velocity": 91,
      "chip": "ym2612"
    },
    {
      "channel": 0,
      "note": 79,
      "start": 26.104,
      "duration": 0.0101,
      "velocity": 106,
      "chip": "ym2612"
    },
    {
      "channel": 2,
      "note": 75,
      "start": 26.1124,
      "duration": 0.1984,
      "velocity": 101,
      "chip": "ym2612"
    },
    {
      "channel": 3,
      "note": 36,
      "start": 26.1124,
      "duration": 0.0023,
      "velocity": 105,
      "chip": "ym2612"
    },
    {
      "channel": 4,
      "note": 75,
      "start": 26.1125,
      "duration": 0.1983,
      "velocity": 91,
      "chip": "ym2612"
    },
    {
      "channel": 0,
      "note": 75,
      "start": 26.1141,
      "duration": 0.0368,
      "velocity": 106,
      "chip": "ym2612"
    },
    {
      "channel": 0,
      "note": 84,
      "start": 26.151,
      "duration": 0.1199,
      "velocity": 106,
      "chip": "ym2612"
    },
    {
      "channel": 3,
      "note": 36,
      "start": 26.1511,
      "duration": 0.1818,
      "velocity": 105,
      "chip": "ym2612"
    },
    {
      "channel": 0,
      "note": 79,
      "start": 26.2709,
      "duration": 0.0617,
      "velocity": 106,
      "chip": "ym2612"
    },
    {
      "channel": 2,
      "note": 79,
      "start": 26.331,
      "duration": 0.0409,
      "velocity": 101,
      "chip": "ym2612"
    },
    {
      "channel": 4,
      "note": 79,
      "start": 26.3312,
      "duration": 0.0409,
      "velocity": 91,
      "chip": "ym2612"
    },
    {
      "channel": 0,
      "note": 75,
      "start": 26.3326,
      "duration": 0.0371,
      "velocity": 106,
      "chip": "ym2612"
    },
    {
      "channel": 0,
      "note": 82,
      "start": 26.3697,
      "duration": 0.0013,
      "velocity": 106,
      "chip": "ym2612"
    },
    {
      "channel": 3,
      "note": 36,
      "start": 26.3698,
      "duration": 0.0012,
      "velocity": 105,
      "chip": "ym2612"
    },
    {
      "channel": 0,
      "note": 79,
      "start": 26.371,
      "duration": 0.0484,
      "velocity": 106,
      "chip": "ym2612"
    },
    {
      "channel": 1,
      "note": 41,
      "start": 26.3719,
      "duration": 0.7564,
      "velocity": 120,
      "chip": "ym2612"
    },
    {
      "channel": 2,
      "note": 77,
      "start": 26.372,
      "duration": 0.3758,
      "velocity": 101,
      "chip": "ym2612"
    },
    {
      "channel": 3,
      "note": 36,
      "start": 26.3721,
      "duration": 0.1072,
      "velocity": 105,
      "chip": "ym2612"
    },
    {
      "channel": 4,
      "note": 77,
      "start": 26.3721,
      "duration": 0.3757,
      "velocity": 91,
      "chip": "ym2612"
    },
    {
      "channel": 0,
      "note": 75,
      "start": 26.4194,
      "duration": 0.1201,
      "velocity": 106,
      "chip": "ym2612"
    },
    {
      "channel": 0,
      "note": 72,
      "start": 26.5395,
      "duration": 0.0022,
      "velocity": 106,
      "chip": "ym2612"
    },
    {
      "channel": 3,
      "note": 41,
      "start": 26.5397,
      "duration": 0.1182,
      "velocity": 105,
      "chip": "ym2612"
    },
    {
      "channel": 0,
      "note": 77,
      "start": 26.5417,
      "duration": 0.0962,
      "velocity": 106,
      "chip": "ym2612"
    },
    {
      "channel": 0,
      "note": 80,
      "start": 26.6379,
      "duration": 0.1001,
      "velocity": 106,
      "chip": "ym2612"
    },
    {
      "channel": 0,
      "note": 84,
      "start": 26.7381,
      "duration": 0.0015,
      "velocity": 106,
      "chip": "ym2612"
    },
    {
      "channel": 3,
      "note": 41,
      "start": 26.7382,
      "duration": 0.0495,
      "velocity": 105,
      "chip": "ym2612"
    },
    {
      "channel": 0,
      "note": 80,
      "start": 26.7396,
      "duration": 0.048,
      "velocity": 106,
      "chip": "ym2612"
    },
    {
      "channel": 2,
      "note": 79,
      "start": 26.7478,
      "duration": 0.3201,
      "velocity": 101,
      "chip": "ym2612"
    },
    {
      "channel": 4,
      "note": 79,
      "start": 26.7479,
      "duration": 0.3201,
      "velocity": 91,
      "chip": "ym2612"
    },
    {
      "channel": 0,
      "note": 77,
      "start": 26.7877,
      "duration": 0.12,
      "velocity": 106,
      "chip": "ym2612"
    },
    {
      "channel": 0,
      "note": 72,
      "start": 26.9078,
      "duration": 0.1199,
      "velocity": 106,
      "chip": "ym2612"
    },
    {
      "channel": 3,
      "note": 41,
      "start": 26.908,
      "duration": 0.0997,
      "velocity": 105,
      "chip": "ym2612"
    },
    {
      "channel": 0,
      "note": 77,
      "start": 27.0277,
      "duration": 0.042,
      "velocity": 106,
      "chip": "ym2612"
    },
    {
      "channel": 2,
      "note": 80,
      "start": 27.0679,
      "duration": 0.061,
      "velocity": 101,
      "chip": "ym2612"
    },
    {
      "channel": 3,
      "note": 41,
      "start": 27.068,
      "duration": 0.0599,
      "velocity": 105,
      "chip": "ym2612"
    },
    {
      "channel": 4,
      "note": 80,
      "start": 27.0681,
      "duration": 0.0609,
      "velocity": 91,
      "chip": "ym2612"
    },
    {
      "channel": 0,
      "note": 80,
      "start": 27.0697,
      "duration": 0.0567,
      "velocity": 106,
      "chip": "ym2612"
    },
    {
      "channel": 0,
      "note": 84,
      "start": 27.1265,
      "duration": 0.0013,
      "velocity": 106,
      "chip": "ym2612"
    },
    {
      "channel": 0,
      "note": 80,
      "start": 27.1278,
      "duration": 0.0485,
      "velocity": 106,
      "chip": "ym2612"
    },
    {
      "channel": 1,
      "note": 37,
      "start": 27.1288,
      "duration": 0.6261,
      "velocity": 120,
      "chip": "ym2612"
    },
    {
      "channel": 2,
      "note": 73,
      "start": 27.1289,
      "duration": 0.3688,
      "velocity": 101,
      "chip": "ym2612"
    },
    {
      "channel": 3,
      "note": 37,
      "start": 27.129,
      "duration": 0.1508,
      "velocity": 105,
      "chip": "ym2612"
    },
    {
      "channel": 4,
      "note": 73,
      "start": 27.1291,
      "duration": 0.3688,
      "velocity": 91,
      "chip": "ym2612"
    },
    {
      "channel": 0,
      "note": 77,
      "start": 27.1763,
      "duration": 0.1,
      "velocity": 106,
      "chip": "ym2612"
    },
    {
      "channel": 0,
      "note": 73,
      "start": 27.2764,
      "duration": 0.0034,
      "velocity": 106,
      "chip": "ym2612"
    },
    {
      "channel": 0,
      "note": 77,
      "start": 27.2798,
      "duration": 0.0951,
      "velocity": 106,
      "chip": "ym2612"
    },
    {
      "channel": 3,
      "note": 37,
      "start": 27.335,
      "duration": 0.1606,
      "velocity": 105,
      "chip": "ym2612"
    },
    {
      "channel": 0,
      "note": 80,
      "start": 27.375,
      "duration": 0.12,
      "velocity": 106,
      "chip": "ym2612"
    },
    {
      "channel": 0,
      "note": 84,
      "start": 27.4951,
      "duration": 0.0015,
      "velocity": 106,
      "chip": "ym2612"
    },
    {
      "channel": 0,
      "note": 80,
      "start": 27.4966,
      "duration": 0.0029,
      "velocity": 106,
      "chip": "ym2612"
    },
    {
      "channel": 2,
      "note": 80,
      "start": 27.4977,
      "duration": 0.2183,
      "velocity": 101,
      "chip": "ym2612"
    },
    {
      "channel": 3,
      "note": 37,
      "start": 27.4978,
      "duration": 0.0022,
      "velocity": 105,
      "chip": "ym2612"
    },
    {
      "channel": 4,
      "note": 80,
      "start": 27.4979,
      "duration": 0.2183,
      "velocity": 91,
      "chip": "ym2612"
    },
    {
      "channel": 0,
      "note": 77,
      "start": 27.4995,
      "duration": 0.0565,
      "velocity": 106,
      "chip": "ym2612"
    },
    {
      "channel": 0,
      "note": 85,
      "start": 27.5561,
      "duration": 0.0999,
      "velocity": 106,
      "chip": "ym2612"
    },
    {
      "channel": 3,
      "note": 37,
      "start": 27.5562,
      "duration": 0.1613,
      "velocity": 105,
      "chip": "ym2612"
    },
    {
      "channel": 0,
      "note": 80,
      "start": 27.656,
      "duration": 0.0619,
      "velocity": 106,
      "chip": "ym2612"
    },
    {
      "channel": 2,
      "note": 82,
      "start": 27.7161,
      "duration": 0.0486,
      "velocity": 101,
      "chip": "ym2612"
    },
    {
      "channel": 4,
      "note": 82,
      "start": 27.7163,
      "duration": 0.0486,
      "velocity": 91,
      "chip": "ym2612"
    },
    {
      "channel": 0,
      "note": 77,
      "start": 27.7179,
      "duration": 0.037,
      "velocity": 106,
      "chip": "ym2612"
    },
    {
      "channel": 0,
      "note": 84,
      "start": 27.755,
      "duration": 0.0016,
      "velocity": 106,
      "chip": "ym2612"
    },
    {
      "channel": 1,
      "note": 39,
      "start": 27.755,
      "duration": 0.7582,
      "velocity": 120,
      "chip": "ym2612"
    },
    {
      "channel": 3,
      "note": 37,
      "start": 27.7551,
      "duration": 0.0018,
      "velocity": 105,
      "chip": "ym2612"
    },
    {
      "channel": 0,
      "note": 80,
      "start": 27.7566,
      "duration": 0.068,
      "velocity": 106,
      "chip": "ym2612"
    },
    {
      "channel": 2,
      "note": 79,
      "start": 27.7648,
      "duration": 0.8166,
      "velocity": 101,
      "chip": "ym2612"
    },
    {
      "channel": 3,
      "note": 37,
      "start": 27.7649,
      "duration": 0.1397,
      "velocity": 105,
      "chip": "ym2612"
    },
    {
      "channel": 4,
      "note": 79,
      "start": 27.7649,
      "duration": 0.8165,
      "velocity": 91,
      "chip": "ym2612"
    },
    {
      "channel": 0,
      "note": 77,
      "start": 27.8246,
      "duration": 0.1001,
      "velocity": 106,
      "chip": "ym2612"
    },
    {
      "channel": 0,
      "note": 75,
      "start": 27.9247,
      "duration": 0.0033,
      "velocity": 106,
      "chip": "ym2612"
    },
    {
      "channel": 3,
      "note": 39,
      "start": 27.9249,
      "duration": 0.1381,
      "velocity": 105,
      "chip": "ym2612"
    },
    {
      "channel": 0,
      "note": 79,
      "start": 27.928,
      "duration": 0.0951,
      "velocity": 106,
      "chip": "ym2612"
    },
    {
      "channel": 0,
      "note": 82,
      "start": 28.0232,
      "duration": 0.1201,
      "velocity": 106,
      "chip": "ym2612"
    },
    {
      "channel": 0,
      "note": 87,
      "start": 28.1432,
      "duration": 0.0013,
      "velocity": 106,
      "chip": "ym2612"
    },
    {
      "channel": 3,
      "note": 39,
      "start": 28.1434,
      "duration": 0.0295,
      "velocity": 105,
      "chip": "ym2612"
    },
    {
      "channel": 0,
      "note": 82,
      "start": 28.1446,
      "duration": 0.0483,
      "velocity": 106,
      "chip": "ym2612"
    },
    {
      "channel": 0,
      "note": 79,
      "start": 28.193,
      "duration": 0.12,
      "velocity": 106,
      "chip": "ym2612"
    },
    {
      "channel": 0,
      "note": 77,
      "start": 28.313,
      "duration": 0.1,
      "velocity": 106,
      "chip": "ym2612"
    },
    {
      "channel": 3,
      "note": 39,
      "start": 28.3132,
      "duration": 0.0999,
      "velocity": 105,
      "chip": "ym2612"
    },
    {
      "channel": 0,
      "note": 82,
      "start": 28.413,
      "duration": 0.0617,
      "velocity": 106,
      "chip": "ym2612"
    },
    {
      "channel": 3,
      "note": 39,
      "start": 28.4731,
      "duration": 0.0396,
      "velocity": 105,
      "chip": "ym2612"
    },
    {
      "channel": 0,
      "note": 79,
      "start": 28.4747,
      "duration": 0.0369,
      "velocity": 106,
      "chip": "ym2612"
    },
    {
      "channel": 0,
      "note": 77,
      "start": 28.5116,
      "duration": 0.0016,
      "velocity": 106,
      "chip": "ym2612"
    },
    {
      "channel": 0,
      "note": 79,
      "start": 28.5132,
      "duration": 0.0483,
      "velocity": 106,
      "chip": "ym2612"
    },
    {
      "channel": 1,
      "note": 39,
      "start": 28.5216,
      "duration": 0.38,
      "velocity": 120,
      "chip": "ym2612"
    },
    {
      "channel": 3,
      "note": 39,
      "start": 28.5216,
      "duration": 0.1615,
      "velocity": 105,
      "chip": "ym2612"
    },
    {
      "channel": 0,
      "note": 75,
      "start": 28.5615,
      "duration": 0.1201,
      "velocity": 106,
      "chip": "ym2612"
    },
    {
      "channel": 0,
      "note": 72,
      "start": 28.6817,
      "duration": 0.0023,
      "velocity": 106,
      "chip": "ym2612"
    },
    {
      "channel": 2,
      "note": 79,
      "start": 28.6818,
      "duration": 0.2187,
      "velocity": 101,
      "chip": "ym2612"
    },
    {
      "channel": 4,
      "note": 79,
      "start": 28.682,
      "duration": 0.2188,
      "velocity": 91,
      "chip": "ym2612"
    },
    {
      "channel": 0,
      "note": 75,
      "start": 28.684,
      "duration": 0.0962,
      "velocity": 106,
      "chip": "ym2612"
    },
    {
      "channel": 3,
      "note": 39,
      "start": 28.7202,
      "duration": 0.1199,
      "velocity": 105,
      "chip": "ym2612"
    },
    {
      "channel": 0,
      "note": 79,
      "start": 28.7802,
      "duration": 0.1202,
      "velocity": 106,
      "chip": "ym2612"
    },
    {
      "channel": 0,
      "note": 84,
      "start": 28.9005,
      "duration": 0.0013,
      "velocity": 106,
      "chip": "ym2612"
    },
    {
      "channel": 2,
      "note": 80,
      "start": 28.9006,
      "duration": 0.0021,
      "velocity": 101,
      "chip": "ym2612"
    },
    {
      "channel": 3,
      "note": 39,
      "start": 28.9007,
      "duration": 0.0016,
      "velocity": 105,
      "chip": "ym2612"
    },
    {
      "channel": 4,
      "note": 80,
      "start": 28.9008,
      "duration": 0.002,
      "velocity": 91,
      "chip": "ym2612"
    },
    {
      "channel": 0,
      "note": 79,
      "start": 28.9019,
      "duration": 0.0026,
      "velocity": 106,
      "chip": "ym2612"
    },
    {
      "channel": 1,
      "note": 40,
      "start": 28.9027,
      "duration": 0.2594,
      "velocity": 120,
      "chip": "ym2612"
    },
    {
      "channel": 2,
      "note": 79,
      "start": 28.9027,
      "duration": 0.1981,
      "velocity": 101,
      "chip": "ym2612"
    },
    {
      "channel": 3,
      "note": 40,
      "start": 28.9028,
      "duration": 0.0782,
      "velocity": 105,
      "chip": "ym2612"
    },
    {
      "channel": 4,
      "note": 79,
      "start": 28.9029,
      "duration": 0.1981,
      "velocity": 91,
      "chip": "ym2612"
    },
    {
      "channel": 0,
      "note": 75,
      "start": 28.9045,
      "duration": 0.0366,
      "velocity": 106,
      "chip": "ym2612"
    },
    {
      "channel": 0,
      "note": 82,
      "start": 28.9411,
      "duration": 0.1199,
      "velocity": 106,
      "chip": "ym2612"
    },
    {
      "channel": 0,
      "note": 79,
      "start": 29.0611,
      "duration": 0.0617,
      "velocity": 106,
      "chip": "ym2612"
    },
    {
      "channel": 2,
      "note": 77,
      "start": 29.1213,
      "duration": 0.0182,
      "velocity": 101,
      "chip": "ym2612"
    },
    {
      "channel": 3,
      "note": 40,
      "start": 29.1213,
      "duration": 0.002,
      "velocity": 105,
      "chip": "ym2612"
    },
    {
      "channel": 4,
      "note": 77,
      "start": 29.1215,
      "duration": 0.0181,
      "velocity": 91,
      "chip": "ym2612"
    },
    {
      "channel": 0,
      "note": 75,
      "start": 29.1228,
      "duration": 0.037,
      "velocity": 106,
      "chip": "ym2612"
    },
    {
      "channel": 0,
      "note": 80,
      "start": 29.1599,
      "duration": 0.0016,
      "velocity": 106,
      "chip": "ym2612"
    },
    {
      "channel": 2,
      "note": 76,
      "start": 29.16,
      "duration": 0.0022,
      "velocity": 101,
      "chip": "ym2612"
    },
    {
      "channel": 3,
      "note": 40,
      "start": 29.1601,
      "duration": 0.001,
      "velocity": 105,
      "chip": "ym2612"
    },
    {
      "channel": 4,
      "note": 76,
      "start": 29.1602,
      "duration": 0.0022,
      "velocity": 91,
      "chip": "ym2612"
    },
    {
      "channel": 0,
      "note": 79,
      "start": 29.1615,
      "duration": 0.048,
      "velocity": 106,
      "chip": "ym2612"
    },
    {
      "channel": 1,
      "note": 41,
      "start": 29.1621,
      "duration": 0.7569,
      "velocity": 120,
      "chip": "ym2612"
    },
    {
      "channel": 2,
      "note": 77,
      "start": 29.1622,
      "duration": 0.3757,
      "velocity": 101,
      "chip": "ym2612"
    },
    {
      "channel": 3,
      "note": 40,
      "start": 29.1623,
      "duration": 0.1072,
      "velocity": 105,
      "chip": "ym2612"
    },
    {
      "channel": 4,
      "note": 77,
      "start": 29.1624,
      "duration": 0.3757,
      "velocity": 91,
      "chip": "ym2612"
    },
    {
      "channel": 0,
      "note": 75,
      "start": 29.2096,
      "duration": 0.1201,
      "velocity": 106,
      "chip": "ym2612"
    },
    {
      "channel": 0,
      "note": 72,
      "start": 29.3298,
      "duration": 0.0022,
      "velocity": 106,
      "chip": "ym2612"
    },
    {
      "channel": 3,
      "note": 41,
      "start": 29.3299,
      "duration": 0.1381,
      "velocity": 105,
      "chip": "ym2612"
    },
    {
      "channel": 0,
      "note": 77,
      "start": 29.3319,
      "duration": 0.0962,
      "velocity": 106,
      "chip": "ym2612"
    },
    {
      "channel": 0,
      "note": 80,
      "start": 29.4281,
      "duration": 0.1001,
      "velocity": 106,
      "chip": "ym2612"
    },
    {
      "channel": 0,
      "note": 84,
      "start": 29.5283,
      "duration": 0.0015,
      "velocity": 106,
      "chip": "ym2612"
    },
    {
      "channel": 3,
      "note": 41,
      "start": 29.5284,
      "duration": 0.1094,
      "velocity": 105,
      "chip": "ym2612"
    },
    {
      "channel": 0,
      "note": 80,
      "start": 29.5298,
      "duration": 0.068,
      "velocity": 106,
      "chip": "ym2612"
    },
    {
      "channel": 2,
      "note": 84,
      "start": 29.538,
      "duration": 0.3201,
      "velocity": 101,
      "chip": "ym2612"
    },
    {
      "channel": 4,
      "note": 84,
      "start": 29.5381,
      "duration": 0.3201,
      "velocity": 91,
      "chip": "ym2612"
    },
    {
      "channel": 0,
      "note": 77,
      "start": 29.5979,
      "duration": 0.1,
      "velocity": 106,
      "chip": "ym2612"
    },
    {
      "channel": 0,
      "note": 72,
      "start": 29.6979,
      "duration": 0.1199,
      "velocity": 106,
      "chip": "ym2612"
    },
    {
      "channel": 3,
      "note": 41,
      "start": 29.6981,
      "duration": 0.0797,
      "velocity": 105,
      "chip": "ym2612"
    },
    {
      "channel": 0,
      "note": 77,
      "start": 29.8178,
      "duration": 0.042,
      "velocity": 106,
      "chip": "ym2612"
    },
    {
      "channel": 2,
      "note": 80,
      "start": 29.8581,
      "duration": 0.061,
      "velocity": 101,
      "chip": "ym2612"
    },
    {
      "channel": 3,
      "note": 41,
      "start": 29.8582,
      "duration": 0.0603,
      "velocity": 105,
      "chip": "ym2612"
    },
    {
      "channel": 4,
      "note": 80,
      "start": 29.8582,
      "duration": 0.061,
      "velocity": 91,
      "chip": "ym2612"
    },
    {
      "channel": 0,
      "note": 80,
      "start": 29.8598,
      "duration": 0.0567,
      "velocity": 106,
      "chip": "ym2612"
    },
    {
      "channel": 0,
      "note": 84,
      "start": 29.9166,
      "duration": 0.0013,
      "velocity": 106,
      "chip": "ym2612"
    },
    {
      "channel": 0,
      "note": 80,
      "start": 29.9179,
      "duration": 0.0485,
      "velocity": 106,
      "chip": "ym2612"
    },
    {
      "channel": 1,
      "note": 37,
      "start": 29.9191,
      "duration": 0.5146,
      "velocity": 120,
      "chip": "ym2612"
    },
    {
      "channel": 2,
      "note": 85,
      "start": 29.9191,
      "duration": 0.3662,
      "velocity": 101,
      "chip": "ym2612"
    },
    {
      "channel": 3,
      "note": 37,
      "start": 29.9192,
      "duration": 0.1494,
      "velocity": 105,
      "chip": "ym2612"
    },
    {
      "channel": 4,
      "note": 85,
      "start": 29.9193,
      "duration": 0.3662,
      "velocity": 91,
      "chip": "ym2612"
    },
    {
      "channel": 0,
      "note": 77,
      "start": 29.9664,
      "duration": 0.1,
      "velocity": 106,
      "chip": "ym2612"
    },
    {
      "channel": 0,
      "note": 73,
      "start": 30.0665,
      "duration": 0.0034,
      "velocity": 106,
      "chip": "ym2612"
    },
    {
      "channel": 0,
      "note": 77,
      "start": 30.0698,
      "duration": 0.1152,
      "velocity": 106,
      "chip": "ym2612"
    },
    {
      "channel": 3,
      "note": 37,
      "start": 30.1251,
      "duration": 0.161,
      "velocity": 105,
      "chip": "ym2612"
    },
    {
      "channel": 0,
      "note": 80,
      "start": 30.1851,
      "duration": 0.1002,
      "velocity": 106,
      "chip": "ym2612"
    },
    {
      "channel": 0,
      "note": 84,
      "start": 30.2853,
      "duration": 0.0016,
      "velocity": 106,
      "chip": "ym2612"
    },
    {
      "channel": 2,
      "note": 84,
      "start": 30.2854,
      "duration": 0.0098,
      "velocity": 101,
      "chip": "ym2612"
    },
    {
      "channel": 4,
      "note": 84,
      "start": 30.2855,
      "duration": 0.0099,
      "velocity": 91,
      "chip": "ym2612"
    },
    {
      "channel": 0,
      "note": 80,
      "start": 30.2869,
      "duration": 0.0099,
      "velocity": 106,
      "chip": "ym2612"
    },
    {
      "channel": 2,
      "note": 82,
      "start": 30.2952,
      "duration": 0.1987,
      "velocity": 101,
      "chip": "ym2612"
    },
    {
      "channel": 3,
      "note": 37,
      "start": 30.2953,
      "duration": 0.002,
      "velocity": 105,
      "chip": "ym2612"
    },
    {
      "channel": 4,
      "note": 82,
      "start": 30.2954,
      "duration": 0.1985,
      "velocity": 91,
      "chip": "ym2612"
    },
    {
      "channel": 0,
      "note": 77,
      "start": 30.2968,
      "duration": 0.0369,
      "velocity": 106,
      "chip": "ym2612"
    },
    {
      "channel": 0,
      "note": 85,
      "start": 30.3338,
      "duration": 0.0999,
      "velocity": 106,
      "chip": "ym2612"
    },
    {
      "channel": 3,
      "note": 37,
      "start": 30.3339,
      "duration": 0.1618,
      "velocity": 105,
      "chip": "ym2612"
    },
    {
      "channel": 0,
      "note": 80,
      "start": 30.4337,
      "duration": 0.0619,
      "velocity": 106,
      "chip": "ym2612"
    },
    {
      "channel": 1,
      "note": 37,
      "start": 30.4938,
      "duration": 0.0588,
      "velocity": 120,
      "chip": "ym2612"
    },
    {
      "channel": 2,
      "note": 80,
      "start": 30.4939,
      "duration": 0.061,
      "velocity": 101,
      "chip": "ym2612"
    },
    {
      "channel": 4,
      "note": 80,
      "start": 30.494,
      "duration": 0.061,
      "velocity": 91,
      "chip": "ym2612"
    },
    {
      "channel": 0,
      "note": 77,
      "start": 30.4957,
      "duration": 0.0569,
      "velocity": 106,
      "chip": "ym2612"
    },
    {
      "channel": 0,
      "note": 84,
      "start": 30.5527,
      "duration": 0.0014,
      "velocity": 106,
      "chip": "ym2612"
    },
    {
      "channel": 1,
      "note": 39,
      "start": 30.5527,
      "duration": 0.8666,
      "velocity": 120,
      "chip": "ym2612"
    },
    {
      "channel": 3,
      "note": 37,
      "start": 30.5528,
      "duration": 0.0014,
      "velocity": 105,
      "chip": "ym2612"
    },
    {
      "channel": 0,
      "note": 80,
      "start": 30.5541,
      "duration": 0.0482,
      "velocity": 106,
      "chip": "ym2612"
    },
    {
      "channel": 2,
      "note": 82,
      "start": 30.5549,
      "duration": 0.9048,
      "velocity": 101,
      "chip": "ym2612"
    },
    {
      "channel": 3,
      "note": 37,
      "start": 30.555,
      "duration": 0.1476,
      "velocity": 105,
      "chip": "ym2612"
    },
    {
      "channel": 4,
      "note": 82,
      "start": 30.5551,
      "duration": 0.9048,
      "velocity": 91,
      "chip": "ym2612"
    },
    {
      "channel": 0,
      "note": 77,
      "start": 30.6024,
      "duration": 0.1001,
      "velocity": 106,
      "chip": "ym2612"
    },
    {
      "channel": 0,
      "note": 75,
      "start": 30.7025,
      "duration": 0.0034,
      "velocity": 106,
      "chip": "ym2612"
    },
    {
      "channel": 3,
      "note": 39,
      "start": 30.7027,
      "duration": 0.1582,
      "velocity": 105,
      "chip": "ym2612"
    },
    {
      "channel": 0,
      "note": 70,
      "start": 30.7059,
      "duration": 0.095,
      "velocity": 106,
      "chip": "ym2612"
    },
    {
      "channel": 0,
      "note": 79,
      "start": 30.801,
      "duration": 0.1202,
      "velocity": 106,
      "chip": "ym2612"
    },
    {
      "channel": 0,
      "note": 82,
      "start": 30.9212,
      "duration": 0.0016,
      "velocity": 106,
      "chip": "ym2612"
    },
    {
      "channel": 3,
      "note": 39,
      "start": 30.9213,
      "duration": 0.0496,
      "velocity": 105,
      "chip": "ym2612"
    },
    {
      "channel": 0,
      "note": 79,
      "start": 30.9228,
      "duration": 0.048,
      "velocity": 106,
      "chip": "ym2612"
    },
    {
      "channel": 0,
      "note": 75,
      "start": 30.9709,
      "duration": 0.12,
      "velocity": 106,
      "chip": "ym2612"
    },
    {
      "channel": 0,
      "note": 70,
      "start": 31.0909,
      "duration": 0.0999,
      "velocity": 106,
      "chip": "ym2612"
    },
    {
      "channel": 3,
      "note": 39,
      "start": 31.0911,
      "duration": 0.0998,
      "velocity": 105,
      "chip": "ym2612"
    },
    {
      "channel": 0,
      "note": 75,
      "start": 31.1909,
      "duration": 0.0617,
      "velocity": 106,
      "chip": "ym2612"
    },
    {
      "channel": 3,
      "note": 39,
      "start": 31.251,
      "duration": 0.0394,
      "velocity": 105,
      "chip": "ym2612"
    },
    {
      "channel": 0,
      "note": 79,
      "start": 31.2525,
      "duration": 0.0368,
      "velocity": 106,
      "chip": "ym2612"
    },
    {
      "channel": 0,
      "note": 82,
      "start": 31.2895,
      "duration": 0.0015,
      "velocity": 106,
      "chip": "ym2612"
    },
    {
      "channel": 0,
      "note": 79,
      "start": 31.2911,
      "duration": 0.0483,
      "velocity": 106,
      "chip": "ym2612"
    },
    {
      "channel": 3,
      "note": 36,
      "start": 31.2995,
      "duration": 0.1622,
      "velocity": 105,
      "chip": "ym2612"
    },
    {
      "channel": 0,
      "note": 75,
      "start": 31.3394,
      "duration": 0.1202,
      "velocity": 106,
      "chip": "ym2612"
    },
    {
      "channel": 0,
      "note": 72,
      "start": 31.4597,
      "duration": 0.0034,
      "velocity": 106,
      "chip": "ym2612"
    },
    {
      "channel": 1,
      "note": 36,
      "start": 31.4597,
      "duration": 0.648,
      "velocity": 120,
      "chip": "ym2612"
    },
    {
      "channel": 2,
      "note": 84,
      "start": 31.4598,
      "duration": 0.2185,
      "velocity": 101,
      "chip": "ym2612"
    },
    {
      "channel": 4,
      "note": 84,
      "start": 31.4599,
      "duration": 0.2185,
      "velocity": 91,
      "chip": "ym2612"
    },
    {
      "channel": 0,
      "note": 75,
      "start": 31.4631,
      "duration": 0.0949,
      "velocity": 106,
      "chip": "ym2612"
    },
    {
      "channel": 3,
      "note": 36,
      "start": 31.498,
      "duration": 0.1813,
      "velocity": 105,
      "chip": "ym2612"
    },
    {
      "channel": 0,
      "note": 79,
      "start": 31.558,
      "duration": 0.1202,
      "velocity": 106,
      "chip": "ym2612"
    },
    {
      "channel": 0,
      "note": 82,
      "start": 31.6783,
      "duration": 0.0014,
      "velocity": 106,
      "chip": "ym2612"
    },
    {
      "channel": 2,
      "note": 82,
      "start": 31.6783,
      "duration": 0.0024,
      "velocity": 101,
      "chip": "ym2612"
    },
    {
      "channel": 4,
      "note": 82,
      "start": 31.6784,
      "duration": 0.0024,
      "velocity": 91,
      "chip": "ym2612"
    },
    {
      "channel": 0,
      "note": 79,
      "start": 31.6798,
      "duration": 0.0028,
      "velocity": 106,
      "chip": "ym2612"
    },
    {
      "channel": 2,
      "note": 80,
      "start": 31.6808,
      "duration": 0.1981,
      "velocity": 101,
      "chip": "ym2612"
    },
    {
      "channel": 3,
      "note": 36,
      "start": 31.6809,
      "duration": 0.0182,
      "velocity": 105,
      "chip": "ym2612"
    },
    {
      "channel": 4,
      "note": 80,
      "start": 31.681,
      "duration": 0.198,
      "velocity": 91,
      "chip": "ym2612"
    },
    {
      "channel": 0,
      "note": 75,
      "start": 31.6825,
      "duration": 0.0366,
      "velocity": 106,
      "chip": "ym2612"
    },
    {
      "channel": 0,
      "note": 84,
      "start": 31.7192,
      "duration": 0.1199,
      "velocity": 106,
      "chip": "ym2612"
    },
    {
      "channel": 3,
      "note": 36,
      "start": 31.7194,
      "duration": 0.1397,
      "velocity": 105,
      "chip": "ym2612"
    },
    {
      "channel": 0,
      "note": 79,
      "start": 31.8392,
      "duration": 0.0617,
      "velocity": 106,
      "chip": "ym2612"
    },
    {
      "channel": 2,
      "note": 79,
      "start": 31.8992,
      "duration": 0.0409,
      "velocity": 101,
      "chip": "ym2612"
    },
    {
      "channel": 4,
      "note": 79,
      "start": 31.8992,
      "duration": 0.041,
      "velocity": 91,
      "chip": "ym2612"
    },
    {
      "channel": 0,
      "note": 75,
      "start": 31.9008,
      "duration": 0.0371,
      "velocity": 106,
      "chip": "ym2612"
    },
    {
      "channel": 0,
      "note": 82,
      "start": 31.938,
      "duration": 0.0015,
      "velocity": 106,
      "chip": "ym2612"
    },
    {
      "channel": 3,
      "note": 36,
      "start": 31.9381,
      "duration": 0.1294,
      "velocity": 105,
      "chip": "ym2612"
    },
    {
      "channel": 0,
      "note": 79,
      "start": 31.9395,
      "duration": 0.0481,
      "velocity": 106,
      "chip": "ym2612"
    },
    {
      "channel": 2,
      "note": 77,
      "start": 31.9402,
      "duration": 0.7568,
      "velocity": 101,
      "chip": "ym2612"
    },
    {
      "channel": 4,
      "note": 77,
      "start": 31.9403,
      "duration": 0.7568,
      "velocity": 91,
      "chip": "ym2612"
    },
    {
      "channel": 0,
      "note": 75,
      "start": 31.9876,
      "duration": 0.1201,
      "velocity": 106,
      "chip": "ym2612"
    },
    {
      "channel": 0,
      "note": 77,
      "start": 32.1078,
      "duration": 0.0023,
      "velocity": 106,
      "chip": "ym2612"
    },
    {
      "channel": 1,
      "note": 37,
      "start": 32.1078,
      "duration": 0.5891,
      "velocity": 120,
      "chip": "ym2612"
    },
    {
      "channel": 3,
      "note": 37,
      "start": 32.1079,
      "duration": 0.1381,
      "velocity": 105,
      "chip": "ym2612"
    },
    {
      "channel": 0,
      "note": 80,
      "start": 32.11,
      "duration": 0.0961,
      "velocity": 106,
      "chip": "ym2612"
    },
    {
      "channel": 0,
      "note": 85,
      "start": 32.2062,
      "duration": 0.1201,
      "velocity": 106,
      "chip": "ym2612"
    },
    {
      "channel": 0,
      "note": 89,
      "start": 32.3262,
      "duration": 0.0014,
      "velocity": 106,
      "chip": "ym2612"
    },
    {
      "channel": 3,
      "note": 37,
      "start": 32.3264,
      "duration": 0.0695,
      "velocity": 105,
      "chip": "ym2612"
    },
    {
      "channel": 0,
      "note": 85,
      "start": 32.3276,
      "duration": 0.0484,
      "velocity": 106,
      "chip": "ym2612"
    },
    {
      "channel": 0,
      "note": 80,
      "start": 32.376,
      "duration": 0.1,
      "velocity": 106,
      "chip": "ym2612"
    },
    {
      "channel": 0,
      "note": 87,
      "start": 32.4761,
      "duration": 0.1198,
      "velocity": 106,
      "chip": "ym2612"
    },
    {
      "channel": 3,
      "note": 37,
      "start": 32.4762,
      "duration": 0.1198,
      "velocity": 105,
      "chip": "ym2612"
    },
    {
      "channel": 0,
      "note": 85,
      "start": 32.596,
      "duration": 0.0615,
      "velocity": 106,
      "chip": "ym2612"
    },
    {
      "channel": 3,
      "note": 37,
      "start": 32.6561,
      "duration": 0.041,
      "velocity": 105,
      "chip": "ym2612"
    },
    {
      "channel": 0,
      "note": 80,
      "start": 32.6575,
      "duration": 0.0371,
      "velocity": 106,
      "chip": "ym2612"
    },
    {
      "channel": 0,
      "note": 77,
      "start": 32.6946,
      "duration": 0.0013,
      "velocity": 106,
      "chip": "ym2612"
    },
    {
      "channel": 0,
      "note": 85,
      "start": 32.696,
      "duration": 0.0484,
      "velocity": 106,
      "chip": "ym2612"
    },
    {
      "channel": 1,
      "note": 39,
      "start": 32.697,
      "duration": 0.3762,
      "velocity": 120,
      "chip": "ym2612"
    },
    {
      "channel": 2,
      "note": 79,
      "start": 32.6971,
      "duration": 0.1859,
      "velocity": 101,
      "chip": "ym2612"
    },
    {
      "channel": 3,
      "note": 39,
      "start": 32.6971,
      "duration": 0.1858,
      "velocity": 105,
      "chip": "ym2612"
    },
    {
      "channel": 4,
      "note": 79,
      "start": 32.6972,
      "duration": 0.1858,
      "velocity": 91,
      "chip": "ym2612"
    },
    {
      "channel": 0,
      "note": 80,
      "start": 32.7445,
      "duration": 0.12,
      "velocity": 106,
      "chip": "ym2612"
    },
    {
      "channel": 0,
      "note": 79,
      "start": 32.8645,
      "duration": 0.0022,
      "velocity": 106,
      "chip": "ym2612"
    },
    {
      "channel": 0,
      "note": 82,
      "start": 32.8667,
      "duration": 0.0963,
      "velocity": 106,
      "chip": "ym2612"
    },
    {
      "channel": 2,
      "note": 75,
      "start": 32.9032,
      "duration": 0.1701,
      "velocity": 101,
      "chip": "ym2612"
    },
    {
      "channel": 3,
      "note": 39,
      "start": 32.9032,
      "duration": 0.1618,
      "velocity": 105,
      "chip": "ym2612"
    },
    {
      "channel": 4,
      "note": 75,
      "start": 32.9034,
      "duration": 0.17,
      "velocity": 91,
      "chip": "ym2612"
    },
    {
      "channel": 0,
      "note": 87,
      "start": 32.9631,
      "duration": 0.1,
      "velocity": 106,
      "chip": "ym2612"
    },
    {
      "channel": 0,
      "note": 91,
      "start": 33.0631,
      "duration": 0.0016,
      "velocity": 106,
      "chip": "ym2612"
    },
    {
      "channel": 0,
      "note": 87,
      "start": 33.0647,
      "duration": 0.0101,
      "velocity": 106,
      "chip": "ym2612"
    },
    {
      "channel": 1,
      "note": 41,
      "start": 33.0732,
      "duration": 0.2596,
      "velocity": 120,
      "chip": "ym2612"
    },
    {
      "channel": 2,
      "note": 80,
      "start": 33.0733,
      "duration": 0.1583,
      "velocity": 101,
      "chip": "ym2612"
    },
    {
      "channel": 3,
      "note": 41,
      "start": 33.0734,
      "duration": 0.1583,
      "velocity": 105,
      "chip": "ym2612"
    },
    {
      "channel": 4,
      "note": 80,
      "start": 33.0735,
      "duration": 0.1582,
      "velocity": 91,
      "chip": "ym2612"
    },
    {
      "channel": 0,
      "note": 79,
      "start": 33.0748,
      "duration": 0.0367,
      "velocity": 106,
      "chip": "ym2612"
    },
    {
      "channel": 0,
      "note": 80,
      "start": 33.1116,
      "duration": 0.12,
      "velocity": 106,
      "chip": "ym2612"
    },
    {
      "channel": 0,
      "note": 84,
      "start": 33.2316,
      "duration": 0.0419,
      "velocity": 106,
      "chip": "ym2612"
    },
    {
      "channel": 2,
      "note": 75,
      "start": 33.2718,
      "duration": 0.0603,
      "velocity": 101,
      "chip": "ym2612"
    },
    {
      "channel": 3,
      "note": 41,
      "start": 33.2719,
      "duration": 0.0592,
      "velocity": 105,
      "chip": "ym2612"
    },
    {
      "channel": 4,
      "note": 75,
      "start": 33.2719,
      "duration": 0.0602,
      "velocity": 91,
      "chip": "ym2612"
    },
    {
      "channel": 0,
      "note": 89,
      "start": 33.2735,
      "duration": 0.0567,
      "velocity": 106,
      "chip": "ym2612"
    },
    {
      "channel": 0,
      "note": 92,
      "start": 33.3302,
      "duration": 0.0014,
      "velocity": 106,
      "chip": "ym2612"
    },
    {
      "channel": 0,
      "note": 89,
      "start": 33.3317,
      "duration": 0.0486,
      "velocity": 106,
      "chip": "ym2612"
    },
    {
      "channel": 1,
      "note": 42,
      "start": 33.3329,
      "duration": 0.8644,
      "velocity": 120,
      "chip": "ym2612"
    },
    {
      "channel": 2,
      "note": 82,
      "start": 33.3329,
      "duration": 1.0432,
      "velocity": 101,
      "chip": "ym2612"
    },
    {
      "channel": 3,
      "note": 41,
      "start": 33.333,
      "duration": 0.1475,
      "velocity": 105,
      "chip": "ym2612"
    },
    {
      "channel": 4,
      "note": 82,
      "start": 33.3331,
      "duration": 1.0431,
      "velocity": 91,
      "chip": "ym2612"
    },
    {
      "channel": 0,
      "note": 84,
      "start": 33.3803,
      "duration": 0.1001,
      "velocity": 106,
      "chip": "ym2612"
    },
    {
      "channel": 0,
      "note": 90,
      "start": 33.4804,
      "duration": 0.0034,
      "velocity": 106,
      "chip": "ym2612"
    },
    {
      "channel": 3,
      "note": 42,
      "start": 33.4806,
      "duration": 0.0982,
      "velocity": 105,
      "chip": "ym2612"
    },
    {
      "channel": 0,
      "note": 88,
      "start": 33.4838,
      "duration": 0.115,
      "velocity": 106,
      "chip": "ym2612"
    },
    {
      "channel": 0,
      "note": 90,
      "start": 33.5988,
      "duration": 0.1002,
      "velocity": 106,
      "chip": "ym2612"
    },
    {
      "channel": 0,
      "note": 86,
      "start": 33.699,
      "duration": 0.0016,
      "velocity": 106,
      "chip": "ym2612"
    },
    {
      "channel": 3,
      "note": 42,
      "start": 33.6992,
      "duration": 0.0895,
      "velocity": 105,
      "chip": "ym2612"
    },
    {
      "channel": 0,
      "note": 90,
      "start": 33.7005,
      "duration": 0.0482,
      "velocity": 106,
      "chip": "ym2612"
    },
    {
      "channel": 0,
      "note": 85,
      "start": 33.7487,
      "duration": 0.12,
      "velocity": 106,
      "chip": "ym2612"
    },
    {
      "channel": 0,
      "note": 90,
      "start": 33.8688,
      "duration": 0.0999,
      "velocity": 106,
      "chip": "ym2612"
    },
    {
      "channel": 3,
      "note": 42,
      "start": 33.869,
      "duration": 0.0998,
      "velocity": 105,
      "chip": "ym2612"
    },
    {
      "channel": 0,
      "note": 83,
      "start": 33.9687,
      "duration": 0.0617,
      "velocity": 106,
      "chip": "ym2612"
    },
    {
      "channel": 3,
      "note": 42,
      "start": 34.0288,
      "duration": 0.0395,
      "velocity": 105,
      "chip": "ym2612"
    },
    {
      "channel": 0,
      "note": 90,
      "start": 34.0305,
      "duration": 0.0369,
      "velocity": 106,
      "chip": "ym2612"
    },
    {
      "channel": 0,
      "note": 82,
      "start": 34.0674,
      "duration": 0.0016,
      "velocity": 106,
      "chip": "ym2612"
    },
    {
      "channel": 0,
      "note": 90,
      "start": 34.069,
      "duration": 0.0683,
      "velocity": 106,
      "chip": "ym2612"
    },
    {
      "channel": 3,
      "note": 42,
      "start": 34.0774,
      "duration": 0.1619,
      "velocity": 105,
      "chip": "ym2612"
    },
    {
      "channel": 0,
      "note": 79,
      "start": 34.1374,
      "duration": 0.1,
      "velocity": 106,
      "chip": "ym2612"
    },
    {
      "channel": 0,
      "note": 78,
      "start": 34.2375,
      "duration": 0.0034,
      "velocity": 106,
      "chip": "ym2612"
    },
    {
      "channel": 1,
      "note": 42,
      "start": 34.2375,
      "duration": 0.22,
      "velocity": 120,
      "chip": "ym2612"
    },
    {
      "channel": 0,
      "note": 76,
      "start": 34.2408,
      "duration": 0.0952,
      "velocity": 106,
      "chip": "ym2612"
    },
    {
      "channel": 3,
      "note": 42,
      "start": 34.2961,
      "duration": 0.1606,
      "velocity": 105,
      "chip": "ym2612"
    },
    {
      "channel": 0,
      "note": 78,
      "start": 34.3361,
      "duration": 0.12,
      "velocity": 106,
      "chip": "ym2612"
    },
    {
      "channel": 2,
      "note": 82,
      "start": 34.3761,
      "duration": 0.5142,
      "velocity": 101,
      "chip": "ym2612"
    },
    {
      "channel": 4,
      "note": 82,
      "start": 34.3762,
      "duration": 0.5148,
      "velocity": 101,
      "chip": "ym2612"
    },
    {
      "channel": 0,
      "note": 74,
      "start": 34.4561,
      "duration": 0.0013,
      "velocity": 106,
      "chip": "ym2612"
    },
    {
      "channel": 0,
      "note": 78,
      "start": 34.4574,
      "duration": 0.0028,
      "velocity": 106,
      "chip": "ym2612"
    },
    {
      "channel": 1,
      "note": 42,
      "start": 34.4585,
      "duration": 0.2594,
      "velocity": 120,
      "chip": "ym2612"
    },
    {
      "channel": 3,
      "note": 42,
      "start": 34.4586,
      "duration": 0.0019,
      "velocity": 105,
      "chip": "ym2612"
    },
    {
      "channel": 0,
      "note": 73,
      "start": 34.4602,
      "duration": 0.0569,
      "velocity": 106,
      "chip": "ym2612"
    },
    {
      "channel": 0,
      "note": 78,
      "start": 34.5171,
      "duration": 0.0999,
      "velocity": 106,
      "chip": "ym2612"
    },
    {
      "channel": 3,
      "note": 42,
      "start": 34.5173,
      "duration": 0.0797,
      "velocity": 105,
      "chip": "ym2612"
    },
    {
      "channel": 0,
      "note": 71,
      "start": 34.617,
      "duration": 0.0619,
      "velocity": 106,
      "chip": "ym2612"
    },
    {
      "channel": 3,
      "note": 42,
      "start": 34.6773,
      "duration": 0.0018,
      "velocity": 105,
      "chip": "ym2612"
    },
    {
      "channel": 0,
      "note": 78,
      "start": 34.679,
      "duration": 0.0369,
      "velocity": 106,
      "chip": "ym2612"
    },
    {
      "channel": 0,
      "note": 70,
      "start": 34.716,
      "duration": 0.0015,
      "velocity": 106,
      "chip": "ym2612"
    },
    {
      "channel": 3,
      "note": 42,
      "start": 34.7161,
      "duration": 0.0015,
      "velocity": 105,
      "chip": "ym2612"
    },
    {
      "channel": 0,
      "note": 78,
      "start": 34.7176,
      "duration": 0.048,
      "velocity": 106,
      "chip": "ym2612"
    },
    {
      "channel": 3,
      "note": 45,
      "start": 34.7257,
      "duration": 0.1199,
      "velocity": 105,
      "chip": "ym2612"
    },
    {
      "channel": 0,
      "note": 67,
      "start": 34.7657,
      "duration": 0.1237,
      "velocity": 106,
      "chip": "ym2612"
    },
    {
      "channel": 0,
      "note": 73,
      "start": 34.8894,
      "duration": 0.0351,
      "velocity": 106,
      "chip": "ym2612"
    },
    {
      "channel": 1,
      "note": 38,
      "start": 34.8899,
      "duration": 0.4642,
      "velocity": 120,
      "chip": "ym2612"
    },
    {
      "channel": 2,
      "note": 73,
      "start": 34.8904,
      "duration": 0.4614,
      "velocity": 101,
      "chip": "ym2612"
    },
    {
      "channel": 3,
      "note": 38,
      "start": 34.8905,
      "duration": 0.0739,
      "velocity": 105,
      "chip": "ym2612"
    },
    {
      "channel": 0,
      "note": 69,
      "start": 34.9245,
      "duration": 0.1801,
      "velocity": 106,
      "chip": "ym2612"
    },
    {
      "channel": 4,
      "note": 73,
      "start": 34.9247,
      "duration": 0.1801,
      "velocity": 101,
      "chip": "ym2612"
    },
    {
      "channel": 0,
      "note": 66,
      "start": 35.1046,
      "duration": 0.0021,
      "velocity": 106,
      "chip": "ym2612"
    },
    {
      "channel": 3,
      "note": 38,
      "start": 35.1048,
      "duration": 0.1518,
      "velocity": 105,
      "chip": "ym2612"
    },
    {
      "channel": 4,
      "note": 69,
      "start": 35.1048,
      "duration": 0.002,
      "velocity": 101,
      "chip": "ym2612"
    },
    {
      "channel": 0,
      "note": 74,
      "start": 35.1067,
      "duration": 0.1476,
      "velocity": 106,
      "chip": "ym2612"
    },
    {
      "channel": 4,
      "note": 66,
      "start": 35.1069,
      "duration": 0.1476,
      "velocity": 101,
      "chip": "ym2612"
    },
    {
      "channel": 0,
      "note": 69,
      "start": 35.2544,
      "duration": 0.0586,
      "velocity": 106,
      "chip": "ym2612"
    },
    {
      "channel": 4,
      "note": 74,
      "start": 35.2546,
      "duration": 0.0586,
      "velocity": 101,
      "chip": "ym2612"
    },
    {
      "channel": 0,
      "note": 66,
      "start": 35.313,
      "duration": 0.0386,
      "velocity": 106,
      "chip": "ym2612"
    },
    {
      "channel": 3,
      "note": 38,
      "start": 35.3132,
      "duration": 0.0019,
      "velocity": 105,
      "chip": "ym2612"
    },
    {
      "channel": 4,
      "note": 69,
      "start": 35.3132,
      "duration": 0.0387,
      "velocity": 101,
      "chip": "ym2612"
    },
    {
      "channel": 0,
      "note": 73,
      "start": 35.3517,
      "duration": 0.0023,
      "velocity": 106,
      "chip": "ym2612"
    },
    {
      "channel": 2,
      "note": 74,
      "start": 35.3518,
      "duration": 0.0023,
      "velocity": 101,
      "chip": "ym2612"
    },
    {
      "channel": 3,
      "note": 38,
      "start": 35.3519,
      "duration": 0.0012,
      "velocity": 105,
      "chip": "ym2612"
    },
    {
      "channel": 4,
      "note": 66,
      "start": 35.352,
      "duration": 0.0023,
      "velocity": 101,
      "chip": "ym2612"
    },
    {
      "channel": 0,
      "note": 69,
      "start": 35.3541,
      "duration": 0.1673,
      "velocity": 106,
      "chip": "ym2612"
    },
    {
      "channel": 1,
      "note": 40,
      "start": 35.3541,
      "duration": 0.5141,
      "velocity": 120,
      "chip": "ym2612"
    },
    {
      "channel": 2,
      "note": 73,
      "start": 35.3542,
      "duration": 0.2445,
      "velocity": 101,
      "chip": "ym2612"
    },
    {
      "channel": 3,
      "note": 40,
      "start": 35.3543,
      "duration": 0.2241,
      "velocity": 105,
      "chip": "ym2612"
    },
    {
      "channel": 4,
      "note": 73,
      "start": 35.3543,
      "duration": 0.1673,
      "velocity": 101,
      "chip": "ym2612"
    },
    {
      "channel": 0,
      "note": 66,
      "start": 35.5215,
      "duration": 0.0385,
      "velocity": 106,
      "chip": "ym2612"
    },
    {
      "channel": 4,
      "note": 69,
      "start": 35.5217,
      "duration": 0.0385,
      "velocity": 101,
      "chip": "ym2612"
    },
    {
      "channel": 0,
      "note": 71,
      "start": 35.56,
      "duration": 0.0385,
      "velocity": 106,
      "chip": "ym2612"
    },
    {
      "channel": 4,
      "note": 66,
      "start": 35.5602,
      "duration": 0.0385,
      "velocity": 101,
      "chip": "ym2612"
    },
    {
      "channel": 0,
      "note": 68,
      "start": 35.5986,
      "duration": 0.01,
      "velocity": 106,
      "chip": "ym2612"
    },
    {
      "channel": 2,
      "note": 71,
      "start": 35.5988,
      "duration": 0.01,
      "velocity": 101,
      "chip": "ym2612"
    },
    {
      "channel": 4,
      "note": 71,
      "start": 35.5988,
      "duration": 0.0101,
      "velocity": 101,
      "chip": "ym2612"
    },
    {
      "channel": 0,
      "note": 64,
      "start": 35.6086,
      "duration": 0.0383,
      "velocity": 106,
      "chip": "ym2612"
    },
    {
      "channel": 2,
      "note": 69,
      "start": 35.6088,
      "duration": 0.2166,
      "velocity": 101,
      "chip": "ym2612"
    },
    {
      "channel": 3,
      "note": 40,
      "start": 35.6088,
      "duration": 0.118,
      "velocity": 105,
      "chip": "ym2612"
    },
    {
      "channel": 4,
      "note": 68,
      "start": 35.609,
      "duration": 0.0381,
      "velocity": 101,
      "chip": "ym2612"
    },
    {
      "channel": 0,
      "note": 69,
      "start": 35.647,
      "duration": 0.1601,
      "velocity": 106,
      "chip": "ym2612"
    },
    {
      "channel": 4,
      "note": 64,
      "start": 35.6472,
      "duration": 0.1601,
      "velocity": 101,
      "chip": "ym2612"
    },
    {
      "channel": 0,
      "note": 66,
      "start": 35.8071,
      "duration": 0.0587,
      "velocity": 106,
      "chip": "ym2612"
    },
    {
      "channel": 3,
      "note": 40,
      "start": 35.8072,
      "duration": 0.0021,
      "velocity": 105,
      "chip": "ym2612"
    },
    {
      "channel": 4,
      "note": 69,
      "start": 35.8073,
      "duration": 0.0588,
      "velocity": 101,
      "chip": "ym2612"
    },
    {
      "channel": 0,
      "note": 71,
      "start": 35.8658,
      "duration": 0.0024,
      "velocity": 106,
      "chip": "ym2612"
    },
    {
      "channel": 2,
      "note": 71,
      "start": 35.8659,
      "duration": 0.0024,
      "velocity": 101,
      "chip": "ym2612"
    },
    {
      "channel": 3,
      "note": 40,
      "start": 35.866,
      "duration": 0.0016,
      "velocity": 105,
      "chip": "ym2612"
    },
    {
      "channel": 4,
      "note": 66,
      "start": 35.8661,
      "duration": 0.0024,
      "velocity": 101,
      "chip": "ym2612"
    },
    {
      "channel": 0,
      "note": 68,
      "start": 35.8682,
      "duration": 0.0585,
      "velocity": 106,
      "chip": "ym2612"
    },
    {
      "channel": 1,
      "note": 42,
      "start": 35.8683,
      "duration": 0.5262,
      "velocity": 120,
      "chip": "ym2612"
    },
    {
      "channel": 2,
      "note": 73,
      "start": 35.8683,
      "duration": 0.5239,
      "velocity": 101,
      "chip": "ym2612"
    },
    {
      "channel": 3,
      "note": 42,
      "start": 35.8684,
      "duration": 0.002,
      "velocity": 105,
      "chip": "ym2612"
    },
    {
      "channel": 4,
      "note": 71,
      "start": 35.8685,
      "duration": 0.0583,
      "velocity": 101,
      "chip": "ym2612"
    },
    {
      "channel": 0,
      "note": 73,
      "start": 35.9268,
      "duration": 0.0383,
      "velocity": 106,
      "chip": "ym2612"
    },
    {
      "channel": 3,
      "note": 42,
      "start": 35.9269,
      "duration": 0.0781,
      "velocity": 105,
      "chip": "ym2612"
    },
    {
      "channel": 4,
      "note": 68,
      "start": 35.9269,
      "duration": 0.0383,
      "velocity": 101,
      "chip": "ym2612"
    },
    {
      "channel": 0,
      "note": 69,
      "start": 35.9651,
      "duration": 0.1601,
      "velocity": 106,
      "chip": "ym2612"
    },
    {
      "channel": 4,
      "note": 73,
      "start": 35.9653,
      "duration": 0.1601,
      "velocity": 101,
      "chip": "ym2612"
    },
    {
      "channel": 0,
      "note": 66,
      "start": 36.1252,
      "duration": 0.0096,
      "velocity": 106,
      "chip": "ym2612"
    },
    {
      "channel": 3,
      "note": 42,
      "start": 36.1253,
      "duration": 0.0894,
      "velocity": 105,
      "chip": "ym2612"
    },
    {
      "channel": 4,
      "note": 69,
      "start": 36.1254,
      "duration": 0.0096,
      "velocity": 101,
      "chip": "ym2612"
    },
    {
      "channel": 0,
      "note": 74,
      "start": 36.1348,
      "duration": 0.1601,
      "velocity": 106,
      "chip": "ym2612"
    },
    {
      "channel": 4,
      "note": 66,
      "start": 36.135,
      "duration": 0.1601,
      "velocity": 101,
      "chip": "ym2612"
    },
    {
      "channel": 0,
      "note": 69,
      "start": 36.2949,
      "duration": 0.0385,
      "velocity": 106,
      "chip": "ym2612"
    },
    {
      "channel": 3,
      "note": 42,
      "start": 36.2951,
      "duration": 0.0019,
      "velocity": 105,
      "chip": "ym2612"
    },
    {
      "channel": 4,
      "note": 74,
      "start": 36.2951,
      "duration": 0.0385,
      "velocity": 101,
      "chip": "ym2612"
    },
    {
      "channel": 0,
      "note": 66,
      "start": 36.3335,
      "duration": 0.0586,
      "velocity": 106,
      "chip": "ym2612"
    },
    {
      "channel": 3,
      "note": 42,
      "start": 36.3337,
      "duration": 0.0018,
      "velocity": 105,
      "chip": "ym2612"
    },
    {
      "channel": 4,
      "note": 69,
      "start": 36.3337,
      "duration": 0.0586,
      "velocity": 101,
      "chip": "ym2612"
    },
    {
      "channel": 0,
      "note": 73,
      "start": 36.3922,
      "duration": 0.0022,
      "velocity": 106,
      "chip": "ym2612"
    },
    {
      "channel": 2,
      "note": 74,
      "start": 36.3922,
      "duration": 0.0023,
      "velocity": 101,
      "chip": "ym2612"
    },
    {
      "channel": 3,
      "note": 42,
      "start": 36.3924,
      "duration": 0.0015,
      "velocity": 105,
      "chip": "ym2612"
    },
    {
      "channel": 4,
      "note": 66,
      "start": 36.3924,
      "duration": 0.0023,
      "velocity": 101,
      "chip": "ym2612"
    },
    {
      "channel": 0,
      "note": 69,
      "start": 36.3945,
      "duration": 0.1473,
      "velocity": 106,
      "chip": "ym2612"
    },
    {
      "channel": 1,
      "note": 40,
      "start": 36.3945,
      "duration": 0.2472,
      "velocity": 120,
      "chip": "ym2612"
    },
    {
      "channel": 2,
      "note": 73,
      "start": 36.3946,
      "duration": 0.2448,
      "velocity": 101,
      "chip": "ym2612"
    },
    {
      "channel": 3,
      "note": 44,
      "start": 36.3946,
      "duration": 0.1489,
      "velocity": 105,
      "chip": "ym2612"
    },
    {
      "channel": 4,
      "note": 73,
      "start": 36.3948,
      "duration": 0.1472,
      "velocity": 101,
      "chip": "ym2612"
    },
    {
      "channel": 0,
      "note": 66,
      "start": 36.5419,
      "duration": 0.0587,
      "velocity": 106,
      "chip": "ym2612"
    },
    {
      "channel": 4,
      "note": 69,
      "start": 36.5421,
      "duration": 0.0587,
      "velocity": 101,
      "chip": "ym2612"
    },
    {
      "channel": 0,
      "note": 78,
      "start": 36.6007,
      "duration": 0.0386,
      "velocity": 106,
      "chip": "ym2612"
    },
    {
      "channel": 3,
      "note": 44,
      "start": 36.6008,
      "duration": 0.0019,
      "velocity": 105,
      "chip": "ym2612"
    },
    {
      "channel": 4,
      "note": 66,
      "start": 36.6008,
      "duration": 0.0387,
      "velocity": 101,
      "chip": "ym2612"
    },
    {
      "channel": 0,
      "note": 73,
      "start": 36.6393,
      "duration": 0.0024,
      "velocity": 106,
      "chip": "ym2612"
    },
    {
      "channel": 2,
      "note": 78,
      "start": 36.6394,
      "duration": 0.0024,
      "velocity": 101,
      "chip": "ym2612"
    },
    {
      "channel": 3,
      "note": 44,
      "start": 36.6395,
      "duration": 0.0016,
      "velocity": 105,
      "chip": "ym2612"
    },
    {
      "channel": 4,
      "note": 78,
      "start": 36.6396,
      "duration": 0.0024,
      "velocity": 101,
      "chip": "ym2612"
    },
    {
      "channel": 0,
      "note": 69,
      "start": 36.6417,
      "duration": 0.058,
      "velocity": 106,
      "chip": "ym2612"
    },
    {
      "channel": 1,
      "note": 45,
      "start": 36.6418,
      "duration": 0.2588,
      "velocity": 120,
      "chip": "ym2612"
    },
    {
      "channel": 2,
      "note": 76,
      "start": 36.6419,
      "duration": 0.257,
      "velocity": 101,
      "chip": "ym2612"
    },
    {
      "channel": 3,
      "note": 45,
      "start": 36.642,
      "duration": 0.0778,
      "velocity": 105,
      "chip": "ym2612"
    },
    {
      "channel": 4,
      "note": 73,
      "start": 36.642,
      "duration": 0.058,
      "velocity": 101,
      "chip": "ym2612"
    },
    {
      "channel": 0,
      "note": 76,
      "start": 36.6999,
      "duration": 0.16,
      "velocity": 106,
      "chip": "ym2612"
    },
    {
      "channel": 4,
      "note": 69,
      "start": 36.7,
      "duration": 0.1601,
      "velocity": 101,
      "chip": "ym2612"
    },
    {
      "channel": 0,
      "note": 69,
      "start": 36.86,
      "duration": 0.0387,
      "velocity": 106,
      "chip": "ym2612"
    },
    {
      "channel": 3,
      "note": 45,
      "start": 36.8601,
      "duration": 0.0022,
      "velocity": 105,
      "chip": "ym2612"
    },
    {
      "channel": 4,
      "note": 76,
      "start": 36.8602,
      "duration": 0.0387,
      "velocity": 101,
      "chip": "ym2612"
    },
    {
      "channel": 0,
      "note": 74,
      "start": 36.8988,
      "duration": 0.01,
      "velocity": 106,
      "chip": "ym2612"
    },
    {
      "channel": 2,
      "note": 74,
      "start": 36.8989,
      "duration": 0.0019,
      "velocity": 101,
      "chip": "ym2612"
    },
    {
      "channel": 3,
      "note": 45,
      "start": 36.899,
      "duration": 0.0019,
      "velocity": 105,
      "chip": "ym2612"
    },
    {
      "channel": 4,
      "note": 69,
      "start": 36.899,
      "duration": 0.01,
      "velocity": 101,
      "chip": "ym2612"
    },
    {
      "channel": 0,
      "note": 69,
      "start": 36.9088,
      "duration": 0.0383,
      "velocity": 106,
      "chip": "ym2612"
    },
    {
      "channel": 1,
      "note": 38,
      "start": 36.9088,
      "duration": 0.5141,
      "velocity": 120,
      "chip": "ym2612"
    },
    {
      "channel": 2,
      "note": 73,
      "start": 36.9089,
      "duration": 0.5041,
      "velocity": 101,
      "chip": "ym2612"
    },
    {
      "channel": 3,
      "note": 38,
      "start": 36.909,
      "duration": 0.002,
      "velocity": 105,
      "chip": "ym2612"
    },
    {
      "channel": 4,
      "note": 74,
      "start": 36.909,
      "duration": 0.0383,
      "velocity": 101,
      "chip": "ym2612"
    },
    {
      "channel": 0,
      "note": 73,
      "start": 36.9471,
      "duration": 0.0385,
      "velocity": 106,
      "chip": "ym2612"
    },
    {
      "channel": 3,
      "note": 38,
      "start": 36.9473,
      "duration": 0.1184,
      "velocity": 105,
      "chip": "ym2612"
    },
    {
      "channel": 0,
      "note": 69,
      "start": 36.9857,
      "duration": 0.1801,
      "velocity": 106,
      "chip": "ym2612"
    },
    {
      "channel": 4,
      "note": 73,
      "start": 36.9859,
      "duration": 0.1801,
      "velocity": 101,
      "chip": "ym2612"
    },
    {
      "channel": 0,
      "note": 66,
      "start": 37.1659,
      "duration": 0.002,
      "velocity": 106,
      "chip": "ym2612"
    },
    {
      "channel": 3,
      "note": 38,
      "start": 37.1661,
      "duration": 0.1518,
      "velocity": 105,
      "chip": "ym2612"
    },
    {
      "channel": 4,
      "note": 69,
      "start": 37.1661,
      "duration": 0.002,
      "velocity": 101,
      "chip": "ym2612"
    },
    {
      "channel": 0,
      "note": 74,
      "start": 37.168,
      "duration": 0.1476,
      "velocity": 106,
      "chip": "ym2612"
    },
    {
      "channel": 4,
      "note": 66,
      "start": 37.1682,
      "duration": 0.1476,
      "velocity": 101,
      "chip": "ym2612"
    },
    {
      "channel": 0,
      "note": 69,
      "start": 37.3156,
      "duration": 0.0586,
      "velocity": 106,
      "chip": "ym2612"
    },
    {
      "channel": 4,
      "note": 74,
      "start": 37.3158,
      "duration": 0.0586,
      "velocity": 101,
      "chip": "ym2612"
    },
    {
      "channel": 0,
      "note": 66,
      "start": 37.3743,
      "duration": 0.0387,
      "velocity": 106,
      "chip": "ym2612"
    },
    {
      "channel": 3,
      "note": 38,
      "start": 37.3744,
      "duration": 0.0017,
      "velocity": 105,
      "chip": "ym2612"
    },
    {
      "channel": 4,
      "note": 69,
      "start": 37.3745,
      "duration": 0.0387,
      "velocity": 101,
      "chip": "ym2612"
    },
    {
      "channel": 0,
      "note": 73,
      "start": 37.4129,
      "duration": 0.01,
      "velocity": 106,
      "chip": "ym2612"
    },
    {
      "channel": 3,
      "note": 38,
      "start": 37.4131,
      "duration": 0.002,
      "velocity": 105,
      "chip": "ym2612"
    },
    {
      "channel": 4,
      "note": 66,
      "start": 37.4132,
      "duration": 0.0099,
      "velocity": 101,
      "chip": "ym2612"
    },
    {
      "channel": 0,
      "note": 69,
      "start": 37.4229,
      "duration": 0.1601,
      "velocity": 106,
      "chip": "ym2612"
    },
    {
      "channel": 1,
      "note": 40,
      "start": 37.423,
      "duration": 0.5188,
      "velocity": 120,
      "chip": "ym2612"
    },
    {
      "channel": 3,
      "note": 40,
      "start": 37.4231,
      "duration": 0.1618,
      "velocity": 105,
      "chip": "ym2612"
    },
    {
      "channel": 4,
      "note": 73,
      "start": 37.4232,
      "duration": 0.16,
      "velocity": 101,
      "chip": "ym2612"
    },
    {
      "channel": 0,
      "note": 66,
      "start": 37.5831,
      "duration": 0.0386,
      "velocity": 106,
      "chip": "ym2612"
    },
    {
      "channel": 2,
      "note": 73,
      "start": 37.5832,
      "duration": 0.0972,
      "velocity": 101,
      "chip": "ym2612"
    },
    {
      "channel": 4,
      "note": 69,
      "start": 37.5833,
      "duration": 0.0386,
      "velocity": 101,
      "chip": "ym2612"
    },
    {
      "channel": 0,
      "note": 71,
      "start": 37.6217,
      "duration": 0.0586,
      "velocity": 106,
      "chip": "ym2612"
    },
    {
      "channel": 3,
      "note": 40,
      "start": 37.6219,
      "duration": 0.0595,
      "velocity": 105,
      "chip": "ym2612"
    },
    {
      "channel": 4,
      "note": 66,
      "start": 37.6219,
      "duration": 0.0586,
      "velocity": 101,
      "chip": "ym2612"
    },
    {
      "channel": 0,
      "note": 68,
      "start": 37.6804,
      "duration": 0.0022,
      "velocity": 106,
      "chip": "ym2612"
    },
    {
      "channel": 2,
      "note": 71,
      "start": 37.6804,
      "duration": 0.0409,
      "velocity": 101,
      "chip": "ym2612"
    },
    {
      "channel": 4,
      "note": 71,
      "start": 37.6806,
      "duration": 0.0022,
      "velocity": 101,
      "chip": "ym2612"
    },
    {
      "channel": 0,
      "note": 64,
      "start": 37.6826,
      "duration": 0.0386,
      "velocity": 106,
      "chip": "ym2612"
    },
    {
      "channel": 3,
      "note": 40,
      "start": 37.6828,
      "duration": 0.0021,
      "velocity": 105,
      "chip": "ym2612"
    },
    {
      "channel": 4,
      "note": 68,
      "start": 37.6828,
      "duration": 0.0386,
      "velocity": 101,
      "chip": "ym2612"
    },
    {
      "channel": 0,
      "note": 69,
      "start": 37.7213,
      "duration": 0.1799,
      "velocity": 106,
      "chip": "ym2612"
    },
    {
      "channel": 2,
      "note": 68,
      "start": 37.7214,
      "duration": 0.2187,
      "velocity": 101,
      "chip": "ym2612"
    },
    {
      "channel": 3,
      "note": 40,
      "start": 37.7215,
      "duration": 0.1395,
      "velocity": 105,
      "chip": "ym2612"
    },
    {
      "channel": 4,
      "note": 64,
      "start": 37.7215,
      "duration": 0.1798,
      "velocity": 101,
      "chip": "ym2612"
    },
    {
      "channel": 0,
      "note": 66,
      "start": 37.9012,
      "duration": 0.0388,
      "velocity": 106,
      "chip": "ym2612"
    },
    {
      "channel": 3,
      "note": 40,
      "start": 37.9013,
      "duration": 0.0018,
      "velocity": 105,
      "chip": "ym2612"
    },
    {
      "channel": 4,
      "note": 69,
      "start": 37.9014,
      "duration": 0.0388,
      "velocity": 101,
      "chip": "ym2612"
    },
    {
      "channel": 0,
      "note": 71,
      "start": 37.94,
      "duration": 0.0021,
      "velocity": 106,
      "chip": "ym2612"
    },
    {
      "channel": 2,
      "note": 64,
      "start": 37.9401,
      "duration": 0.0609,
      "velocity": 101,
      "chip": "ym2612"
    },
    {
      "channel": 3,
      "note": 40,
      "start": 37.9402,
      "duration": 0.0015,
      "velocity": 105,
      "chip": "ym2612"
    },
    {
      "channel": 4,
      "note": 66,
      "start": 37.9403,
      "duration": 0.0021,
      "velocity": 101,
      "chip": "ym2612"
    },
    {
      "channel": 0,
      "note": 68,
      "start": 37.9422,
      "duration": 0.0586,
      "velocity": 106,
      "chip": "ym2612"
    },
    {
      "channel": 1,
      "note": 42,
      "start": 37.9423,
      "duration": 0.5258,
      "velocity": 120,
      "chip": "ym2612"
    },
    {
      "channel": 3,
      "note": 42,
      "start": 37.9424,
      "duration": 0.0019,
      "velocity": 105,
      "chip": "ym2612"
    },
    {
      "channel": 4,
      "note": 71,
      "start": 37.9424,
      "duration": 0.0586,
      "velocity": 101,
      "chip": "ym2612"
    },
    {
      "channel": 0,
      "note": 73,
      "start": 38.0009,
      "duration": 0.0382,
      "velocity": 106,
      "chip": "ym2612"
    },
    {
      "channel": 2,
      "note": 68,
      "start": 38.0009,
      "duration": 0.1986,
      "velocity": 101,
      "chip": "ym2612"
    },
    {
      "channel": 3,
      "note": 42,
      "start": 38.0011,
      "duration": 0.0779,
      "velocity": 105,
      "chip": "ym2612"
    },
    {
      "channel": 4,
      "note": 68,
      "start": 38.0011,
      "duration": 0.0381,
      "velocity": 101,
      "chip": "ym2612"
    },
    {
      "channel": 0,
      "note": 69,
      "start": 38.0391,
      "duration": 0.1603,
      "velocity": 106,
      "chip": "ym2612"
    },
    {
      "channel": 4,
      "note": 73,
      "start": 38.0393,
      "duration": 0.1603,
      "velocity": 101,
      "chip": "ym2612"
    },
    {
      "channel": 0,
      "note": 66,
      "start": 38.1994,
      "duration": 0.0096,
      "velocity": 106,
      "chip": "ym2612"
    },
    {
      "channel": 2,
      "note": 69,
      "start": 38.1996,
      "duration": 0.0018,
      "velocity": 101,
      "chip": "ym2612"
    },
    {
      "channel": 3,
      "note": 42,
      "start": 38.1996,
      "duration": 0.0292,
      "velocity": 105,
      "chip": "ym2612"
    },
    {
      "channel": 4,
      "note": 69,
      "start": 38.1997,
      "duration": 0.0096,
      "velocity": 101,
      "chip": "ym2612"
    },
    {
      "channel": 0,
      "note": 74,
      "start": 38.2091,
      "duration": 0.1599,
      "velocity": 106,
      "chip": "ym2612"
    },
    {
      "channel": 2,
      "note": 69,
      "start": 38.2093,
      "duration": 0.4452,
      "velocity": 101,
      "chip": "ym2612"
    },
    {
      "channel": 4,
      "note": 66,
      "start": 38.2094,
      "duration": 0.1599,
      "velocity": 101,
      "chip": "ym2612"
    },
    {
      "channel": 0,
      "note": 69,
      "start": 38.369,
      "duration": 0.0385,
      "velocity": 106,
      "chip": "ym2612"
    },
    {
      "channel": 3,
      "note": 42,
      "start": 38.3693,
      "duration": 0.0018,
      "velocity": 105,
      "chip": "ym2612"
    },
    {
      "channel": 4,
      "note": 74,
      "start": 38.3693,
      "duration": 0.0384,
      "velocity": 101,
      "chip": "ym2612"
    },
    {
      "channel": 0,
      "note": 66,
      "start": 38.4075,
      "duration": 0.0585,
      "velocity": 106,
      "chip": "ym2612"
    },
    {
      "channel": 3,
      "note": 42,
      "start": 38.4077,
      "duration": 0.0018,
      "velocity": 105,
      "chip": "ym2612"
    },
    {
      "channel": 4,
      "note": 69,
      "start": 38.4078,
      "duration": 0.0585,
      "velocity": 101,
      "chip": "ym2612"
    },
    {
      "channel": 0,
      "note": 73,
      "start": 38.4661,
      "duration": 0.0023,
      "velocity": 106,
      "chip": "ym2612"
    },
    {
      "channel": 3,
      "note": 42,
      "start": 38.4663,
      "duration": 0.0014,
      "velocity": 105,
      "chip": "ym2612"
    },
    {
      "channel": 4,
      "note": 66,
      "start": 38.4663,
      "duration": 0.0024,
      "velocity": 101,
      "chip": "ym2612"
    },
    {
      "channel": 0,
      "note": 69,
      "start": 38.4685,
      "duration": 0.1475,
      "velocity": 106,
      "chip": "ym2612"
    },
    {
      "channel": 1,
      "note": 40,
      "start": 38.4685,
      "duration": 0.3688,
      "velocity": 120,
      "chip": "ym2612"
    },
    {
      "channel": 3,
      "note": 44,
      "start": 38.4687,
      "duration": 0.149,
      "velocity": 105,
      "chip": "ym2612"
    },
    {
      "channel": 4,
      "note": 73,
      "start": 38.4687,
      "duration": 0.1475,
      "velocity": 101,
      "chip": "ym2612"
    },
    {
      "channel": 0,
      "note": 66,
      "start": 38.6161,
      "duration": 0.0588,
      "velocity": 106,
      "chip": "ym2612"
    },
    {
      "channel": 4,
      "note": 69,
      "start": 38.6163,
      "duration": 0.0588,
      "velocity": 101,
      "chip": "ym2612"
    },
    {
      "channel": 0,
      "note": 78,
      "start": 38.6749,
      "duration": 0.1598,
      "velocity": 106,
      "chip": "ym2612"
    },
    {
      "channel": 2,
      "note": 68,
      "start": 38.6749,
      "duration": 0.1624,
      "velocity": 101,
      "chip": "ym2612"
    },
    {
      "channel": 3,
      "note": 44,
      "start": 38.675,
      "duration": 0.0795,
      "velocity": 105,
      "chip": "ym2612"
    },
    {
      "channel": 4,
      "note": 66,
      "start": 38.6751,
      "duration": 0.1598,
      "velocity": 101,
      "chip": "ym2612"
    },
    {
      "channel": 0,
      "note": 73,
      "start": 38.8347,
      "duration": 0.0025,
      "velocity": 106,
      "chip": "ym2612"
    },
    {
      "channel": 3,
      "note": 44,
      "start": 38.8349,
      "duration": 0.0015,
      "velocity": 105,
      "chip": "ym2612"
    },
    {
      "channel": 4,
      "note": 78,
      "start": 38.8349,
      "duration": 0.0026,
      "velocity": 101,
      "chip": "ym2612"
    },
    {
      "channel": 0,
      "note": 69,
      "start": 38.8373,
      "duration": 0.0581,
      "velocity": 106,
      "chip": "ym2612"
    },
    {
      "channel": 1,
      "note": 45,
      "start": 38.8373,
      "duration": 0.1217,
      "velocity": 120,
      "chip": "ym2612"
    },
    {
      "channel": 2,
      "note": 69,
      "start": 38.8374,
      "duration": 0.0599,
      "velocity": 101,
      "chip": "ym2612"
    },
    {
      "channel": 3,
      "note": 45,
      "start": 38.8375,
      "duration": 0.0619,
      "velocity": 105,
      "chip": "ym2612"
    },
    {
      "channel": 4,
      "note": 73,
      "start": 38.8376,
      "duration": 0.058,
      "velocity": 101,
      "chip": "ym2612"
    },
    {
      "channel": 0,
      "note": 76,
      "start": 38.8954,
      "duration": 0.0024,
      "velocity": 106,
      "chip": "ym2612"
    },
    {
      "channel": 4,
      "note": 69,
      "start": 38.8956,
      "duration": 0.0024,
      "velocity": 101,
      "chip": "ym2612"
    },
    {
      "channel": 0,
      "note": 69,
      "start": 38.8978,
      "duration": 0.0586,
      "velocity": 106,
      "chip": "ym2612"
    },
    {
      "channel": 2,
      "note": 71,
      "start": 38.898,
      "duration": 0.0611,
      "velocity": 101,
      "chip": "ym2612"
    },
    {
      "channel": 4,
      "note": 76,
      "start": 38.8981,
      "duration": 0.0586,
      "velocity": 101,
      "chip": "ym2612"
    },
    {
      "channel": 0,
      "note": 81,
      "start": 38.9566,
      "duration": 0.0024,
      "velocity": 106,
      "chip": "ym2612"
    },
    {
      "channel": 3,
      "note": 49,
      "start": 38.9567,
      "duration": 0.0017,
      "velocity": 105,
      "chip": "ym2612"
    },
    {
      "channel": 4,
      "note": 69,
      "start": 38.9567,
      "duration": 0.0025,
      "velocity": 101,
      "chip": "ym2612"
    },
    {
      "channel": 0,
      "note": 69,
      "start": 38.959,
      "duration": 0.0382,
      "velocity": 106,
      "chip": "ym2612"
    },
    {
      "channel": 1,
      "note": 38,
      "start": 38.9591,
      "duration": 0.5143,
      "velocity": 120,
      "chip": "ym2612"
    },
    {
      "channel": 2,
      "note": 73,
      "start": 38.9592,
      "duration": 0.5043,
      "velocity": 101,
      "chip": "ym2612"
    },
    {
      "channel": 3,
      "note": 38,
      "start": 38.9593,
      "duration": 0.0017,
      "velocity": 105,
      "chip": "ym2612"
    },
    {
      "channel": 4,
      "note": 81,
      "start": 38.9593,
      "duration": 0.0382,
      "velocity": 101,
      "chip": "ym2612"
    },
    {
      "channel": 0,
      "note": 73,
      "start": 38.9973,
      "duration": 0.0587,
      "velocity": 106,
      "chip": "ym2612"
    },
    {
      "channel": 3,
      "note": 38,
      "start": 38.9975,
      "duration": 0.1185,
      "velocity": 105,
      "chip": "ym2612"
    },
    {
      "channel": 0,
      "note": 69,
      "start": 39.0561,
      "duration": 0.1601,
      "velocity": 106,
      "chip": "ym2612"
    },
    {
      "channel": 4,
      "note": 73,
      "start": 39.0563,
      "duration": 0.1601,
      "velocity": 101,
      "chip": "ym2612"
    },
    {
      "channel": 0,
      "note": 66,
      "start": 39.2161,
      "duration": 0.002,
      "velocity": 106,
      "chip": "ym2612"
    },
    {
      "channel": 3,
      "note": 38,
      "start": 39.2163,
      "duration": 0.1712,
      "velocity": 105,
      "chip": "ym2612"
    },
    {
      "channel": 4,
      "note": 69,
      "start": 39.2164,
      "duration": 0.002,
      "velocity": 101,
      "chip": "ym2612"
    },
    {
      "channel": 0,
      "note": 74,
      "start": 39.2182,
      "duration": 0.1676,
      "velocity": 106,
      "chip": "ym2612"
    },
    {
      "channel": 4,
      "note": 66,
      "start": 39.2184,
      "duration": 0.1676,
      "velocity": 101,
      "chip": "ym2612"
    },
    {
      "channel": 0,
      "note": 69,
      "start": 39.3859,
      "duration": 0.0387,
      "velocity": 106,
      "chip": "ym2612"
    },
    {
      "channel": 4,
      "note": 74,
      "start": 39.3861,
      "duration": 0.0387,
      "velocity": 101,
      "chip": "ym2612"
    },
    {
      "channel": 0,
      "note": 66,
      "start": 39.4247,
      "duration": 0.0387,
      "velocity": 106,
      "chip": "ym2612"
    },
    {
      "channel": 3,
      "note": 38,
      "start": 39.4248,
      "duration": 0.0017,
      "velocity": 105,
      "chip": "ym2612"
    },
    {
      "channel": 4,
      "note": 69,
      "start": 39.4249,
      "duration": 0.0388,
      "velocity": 101,
      "chip": "ym2612"
    },
    {
      "channel": 0,
      "note": 73,
      "start": 39.4635,
      "duration": 0.0098,
      "velocity": 106,
      "chip": "ym2612"
    },
    {
      "channel": 2,
      "note": 74,
      "start": 39.4635,
      "duration": 0.01,
      "velocity": 101,
      "chip": "ym2612"
    },
    {
      "channel": 3,
      "note": 38,
      "start": 39.4637,
      "duration": 0.0017,
      "velocity": 105,
      "chip": "ym2612"
    },
    {
      "channel": 4,
      "note": 66,
      "start": 39.4637,
      "duration": 0.0099,
      "velocity": 101,
      "chip": "ym2612"
    },
    {
      "channel": 0,
      "note": 69,
      "start": 39.4734,
      "duration": 0.1597,
      "velocity": 106,
      "chip": "ym2612"
    },
    {
      "channel": 1,
      "note": 40,
      "start": 39.4734,
      "duration": 0.5194,
      "velocity": 120,
      "chip": "ym2612"
    },
    {
      "channel": 2,
      "note": 73,
      "start": 39.4735,
      "duration": 0.2571,
      "velocity": 101,
      "chip": "ym2612"
    },
    {
      "channel": 3,
      "note": 40,
      "start": 39.4736,
      "duration": 0.1614,
      "velocity": 105,
      "chip": "ym2612"
    },
    {
      "channel": 4,
      "note": 73,
      "start": 39.4737,
      "duration": 0.1596,
      "velocity": 101,
      "chip": "ym2612"
    },
    {
      "channel": 0,
      "note": 66,
      "start": 39.6332,
      "duration": 0.0387,
      "velocity": 106,
      "chip": "ym2612"
    },
    {
      "channel": 4,
      "note": 69,
      "start": 39.6334,
      "duration": 0.0387,
      "velocity": 101,
      "chip": "ym2612"
    },
    {
      "channel": 0,
      "note": 71,
      "start": 39.6719,
      "duration": 0.0585,
      "velocity": 106,
      "chip": "ym2612"
    },
    {
      "channel": 3,
      "note": 40,
      "start": 39.672,
      "duration": 0.0594,
      "velocity": 105,
      "chip": "ym2612"
    },
    {
      "channel": 4,
      "note": 66,
      "start": 39.6721,
      "duration": 0.0586,
      "velocity": 101,
      "chip": "ym2612"
    },
    {
      "channel": 0,
      "note": 68,
      "start": 39.7305,
      "duration": 0.0025,
      "velocity": 106,
      "chip": "ym2612"
    },
    {
      "channel": 2,
      "note": 71,
      "start": 39.7306,
      "duration": 0.0025,
      "velocity": 101,
      "chip": "ym2612"
    },
    {
      "channel": 4,
      "note": 71,
      "start": 39.7307,
      "duration": 0.0025,
      "velocity": 101,
      "chip": "ym2612"
    },
    {
      "channel": 0,
      "note": 64,
      "start": 39.7331,
      "duration": 0.0382,
      "velocity": 106,
      "chip": "ym2612"
    },
    {
      "channel": 2,
      "note": 69,
      "start": 39.7331,
      "duration": 0.2368,
      "velocity": 101,
      "chip": "ym2612"
    },
    {
      "channel": 3,
      "note": 40,
      "start": 39.7332,
      "duration": 0.1179,
      "velocity": 105,
      "chip": "ym2612"
    },
    {
      "channel": 4,
      "note": 68,
      "start": 39.7333,
      "duration": 0.0381,
      "velocity": 101,
      "chip": "ym2612"
    },
    {
      "channel": 0,
      "note": 69,
      "start": 39.7713,
      "duration": 0.1801,
      "velocity": 106,
      "chip": "ym2612"
    },
    {
      "channel": 4,
      "note": 64,
      "start": 39.7715,
      "duration": 0.1801,
      "velocity": 101,
      "chip": "ym2612"
    },
    {
      "channel": 0,
      "note": 66,
      "start": 39.9514,
      "duration": 0.0389,
      "velocity": 106,
      "chip": "ym2612"
    },
    {
      "channel": 3,
      "note": 40,
      "start": 39.9516,
      "duration": 0.0017,
      "velocity": 105,
      "chip": "ym2612"
    },
    {
      "channel": 4,
      "note": 69,
      "start": 39.9516,
      "duration": 0.039,
      "velocity": 101,
      "chip": "ym2612"
    },
    {
      "channel": 0,
      "note": 71,
      "start": 39.9903,
      "duration": 0.0024,
      "velocity": 106,
      "chip": "ym2612"
    },
    {
      "channel": 2,
      "note": 71,
      "start": 39.9904,
      "duration": 0.0024,
      "velocity": 101,
      "chip": "ym2612"
    },
    {
      "channel": 3,
      "note": 40,
      "start": 39.9905,
      "duration": 0.0016,
      "velocity": 105,
      "chip": "ym2612"
    },
    {
      "channel": 4,
      "note": 66,
      "start": 39.9906,
      "duration": 0.0023,
      "velocity": 101,
      "chip": "ym2612"
    },
    {
      "channel": 0,
      "note": 68,
      "start": 39.9928,
      "duration": 0.0583,
      "velocity": 106,
      "chip": "ym2612"
    },
    {
      "channel": 1,
      "note": 42,
      "start": 39.9928,
      "duration": 0.5263,
      "velocity": 120,
      "chip": "ym2612"
    },
    {
      "channel": 2,
      "note": 73,
      "start": 39.9929,
      "duration": 0.5238,
      "velocity": 101,
      "chip": "ym2612"
    },
    {
      "channel": 3,
      "note": 42,
      "start": 39.993,
      "duration": 0.0021,
      "velocity": 105,
      "chip": "ym2612"
    },
    {
      "channel": 4,
      "note": 71,
      "start": 39.993,
      "duration": 0.0583,
      "velocity": 101,
      "chip": "ym2612"
    },
    {
      "channel": 0,
      "note": 73,
      "start": 40.0512,
      "duration": 0.0383,
      "velocity": 106,
      "chip": "ym2612"
    },
    {
      "channel": 3,
      "note": 42,
      "start": 40.0513,
      "duration": 0.1181,
      "velocity": 105,
      "chip": "ym2612"
    },
    {
      "channel": 4,
      "note": 68,
      "start": 40.0514,
      "duration": 0.0383,
      "velocity": 101,
      "chip": "ym2612"
    },
    {
      "channel": 0,
      "note": 69,
      "start": 40.0896,
      "duration": 0.1601,
      "velocity": 106,
      "chip": "ym2612"
    },
    {
      "channel": 4,
      "note": 73,
      "start": 40.0898,
      "duration": 0.1601,
      "velocity": 101,
      "chip": "ym2612"
    },
    {
      "channel": 0,
      "note": 66,
      "start": 40.2496,
      "duration": 0.0097,
      "velocity": 106,
      "chip": "ym2612"
    },
    {
      "channel": 3,
      "note": 42,
      "start": 40.2498,
      "duration": 0.1094,
      "velocity": 105,
      "chip": "ym2612"
    },
    {
      "channel": 4,
      "note": 69,
      "start": 40.2499,
      "duration": 0.0096,
      "velocity": 101,
      "chip": "ym2612"
    },
    {
      "channel": 0,
      "note": 74,
      "start": 40.2593,
      "duration": 0.1601,
      "velocity": 106,
      "chip": "ym2612"
    },
    {
      "channel": 4,
      "note": 66,
      "start": 40.2595,
      "duration": 0.1601,
      "velocity": 101,
      "chip": "ym2612"
    },
    {
      "channel": 0,
      "note": 69,
      "start": 40.4194,
      "duration": 0.0586,
      "velocity": 106,
      "chip": "ym2612"
    },
    {
      "channel": 3,
      "note": 42,
      "start": 40.4196,
      "duration": 0.0021,
      "velocity": 105,
      "chip": "ym2612"
    },
    {
      "channel": 4,
      "note": 74,
      "start": 40.4197,
      "duration": 0.0585,
      "velocity": 101,
      "chip": "ym2612"
    },
    {
      "channel": 0,
      "note": 66,
      "start": 40.4781,
      "duration": 0.0385,
      "velocity": 106,
      "chip": "ym2612"
    },
    {
      "channel": 3,
      "note": 42,
      "start": 40.4782,
      "duration": 0.0018,
      "velocity": 105,
      "chip": "ym2612"
    },
    {
      "channel": 4,
      "note": 69,
      "start": 40.4783,
      "duration": 0.0386,
      "velocity": 101,
      "chip": "ym2612"
    },
    {
      "channel": 0,
      "note": 73,
      "start": 40.5167,
      "duration": 0.0024,
      "velocity": 106,
      "chip": "ym2612"
    },
    {
      "channel": 2,
      "note": 74,
      "start": 40.5167,
      "duration": 0.0024,
      "velocity": 101,
      "chip": "ym2612"
    },
    {
      "channel": 3,
      "note": 42,
      "start": 40.5169,
      "duration": 0.0013,
      "velocity": 105,
      "chip": "ym2612"
    },
    {
      "channel": 4,
      "note": 66,
      "start": 40.5169,
      "duration": 0.0024,
      "velocity": 101,
      "chip": "ym2612"
    },
    {
      "channel": 0,
      "note": 69,
      "start": 40.5191,
      "duration": 0.1673,
      "velocity": 106,
      "chip": "ym2612"
    },
    {
      "channel": 1,
      "note": 40,
      "start": 40.5192,
      "duration": 0.2548,
      "velocity": 120,
      "chip": "ym2612"
    },
    {
      "channel": 2,
      "note": 73,
      "start": 40.5192,
      "duration": 0.2449,
      "velocity": 101,
      "chip": "ym2612"
    },
    {
      "channel": 3,
      "note": 44,
      "start": 40.5193,
      "duration": 0.1686,
      "velocity": 105,
      "chip": "ym2612"
    },
    {
      "channel": 4,
      "note": 73,
      "start": 40.5194,
      "duration": 0.1672,
      "velocity": 101,
      "chip": "ym2612"
    },
    {
      "channel": 0,
      "note": 66,
      "start": 40.6865,
      "duration": 0.0387,
      "velocity": 106,
      "chip": "ym2612"
    },
    {
      "channel": 4,
      "note": 69,
      "start": 40.6867,
      "duration": 0.0387,
      "velocity": 101,
      "chip": "ym2612"
    },
    {
      "channel": 0,
      "note": 78,
      "start": 40.7253,
      "duration": 0.0388,
      "velocity": 106,
      "chip": "ym2612"
    },
    {
      "channel": 3,
      "note": 44,
      "start": 40.7254,
      "duration": 0.0019,
      "velocity": 105,
      "chip": "ym2612"
    },
    {
      "channel": 4,
      "note": 66,
      "start": 40.7254,
      "duration": 0.0388,
      "velocity": 101,
      "chip": "ym2612"
    },
    {
      "channel": 0,
      "note": 73,
      "start": 40.7641,
      "duration": 0.0098,
      "velocity": 106,
      "chip": "ym2612"
    },
    {
      "channel": 2,
      "note": 78,
      "start": 40.7642,
      "duration": 0.0098,
      "velocity": 101,
      "chip": "ym2612"
    },
    {
      "channel": 3,
      "note": 44,
      "start": 40.7643,
      "duration": 0.0017,
      "velocity": 105,
      "chip": "ym2612"
    },
    {
      "channel": 4,
      "note": 78,
      "start": 40.7643,
      "duration": 0.0098,
      "velocity": 101,
      "chip": "ym2612"
    },
    {
      "channel": 0,
      "note": 69,
      "start": 40.7739,
      "duration": 0.1597,
      "velocity": 106,
      "chip": "ym2612"
    },
    {
      "channel": 1,
      "note": 45,
      "start": 40.774,
      "duration": 0.2598,
      "velocity": 120,
      "chip": "ym2612"
    },
    {
      "channel": 2,
      "note": 76,
      "start": 40.774,
      "duration": 0.2573,
      "velocity": 101,
      "chip": "ym2612"
    },
    {
      "channel": 3,
      "note": 45,
      "start": 40.7741,
      "duration": 0.1612,
      "velocity": 105,
      "chip": "ym2612"
    },
    {
      "channel": 4,
      "note": 73,
      "start": 40.7742,
      "duration": 0.1596,
      "velocity": 101,
      "chip": "ym2612"
    },
    {
      "channel": 0,
      "note": 76,
      "start": 40.9337,
      "duration": 0.0387,
      "velocity": 106,
      "chip": "ym2612"
    },
    {
      "channel": 4,
      "note": 69,
      "start": 40.9339,
      "duration": 0.0388,
      "velocity": 101,
      "chip": "ym2612"
    },
    {
      "channel": 0,
      "note": 69,
      "start": 40.9724,
      "duration": 0.0588,
      "velocity": 106,
      "chip": "ym2612"
    },
    {
      "channel": 3,
      "note": 45,
      "start": 40.9726,
      "duration": 0.0022,
      "velocity": 105,
      "chip": "ym2612"
    },
    {
      "channel": 4,
      "note": 76,
      "start": 40.9727,
      "duration": 0.0588,
      "velocity": 101,
      "chip": "ym2612"
    },
    {
      "channel": 0,
      "note": 74,
      "start": 41.0313,
      "duration": 0.0024,
      "velocity": 106,
      "chip": "ym2612"
    },
    {
      "channel": 2,
      "note": 73,
      "start": 41.0313,
      "duration": 0.0024,
      "velocity": 101,
      "chip": "ym2612"
    },
    {
      "channel": 3,
      "note": 45,
      "start": 41.0314,
      "duration": 0.0016,
      "velocity": 105,
      "chip": "ym2612"
    },
    {
      "channel": 4,
      "note": 69,
      "start": 41.0315,
      "duration": 0.0024,
      "velocity": 101,
      "chip": "ym2612"
    },
    {
      "channel": 0,
      "note": 69,
      "start": 41.0337,
      "duration": 0.1472,
      "velocity": 106,
      "chip": "ym2612"
    },
    {
      "channel": 1,
      "note": 43,
      "start": 41.0338,
      "duration": 0.6153,
      "velocity": 120,
      "chip": "ym2612"
    },
    {
      "channel": 2,
      "note": 71,
      "start": 41.0339,
      "duration": 0.3666,
      "velocity": 101,
      "chip": "ym2612"
    },
    {
      "channel": 3,
      "note": 43,
      "start": 41.0339,
      "duration": 0.2059,
      "velocity": 105,
      "chip": "ym2612"
    },
    {
      "channel": 4,
      "note": 74,
      "start": 41.034,
      "duration": 0.1471,
      "velocity": 101,
      "chip": "ym2612"
    },
    {
      "channel": 0,
      "note": 73,
      "start": 41.181,
      "duration": 0.0587,
      "velocity": 106,
      "chip": "ym2612"
    },
    {
      "channel": 0,
      "note": 69,
      "start": 41.2398,
      "duration": 0.1601,
      "velocity": 106,
      "chip": "ym2612"
    },
    {
      "channel": 4,
      "note": 73,
      "start": 41.2399,
      "duration": 0.1601,
      "velocity": 101,
      "chip": "ym2612"
    },
    {
      "channel": 0,
      "note": 66,
      "start": 41.3999,
      "duration": 0.0022,
      "velocity": 106,
      "chip": "ym2612"
    },
    {
      "channel": 3,
      "note": 43,
      "start": 41.4001,
      "duration": 0.0695,
      "velocity": 105,
      "chip": "ym2612"
    },
    {
      "channel": 4,
      "note": 69,
      "start": 41.4001,
      "duration": 0.0021,
      "velocity": 101,
      "chip": "ym2612"
    },
    {
      "channel": 2,
      "note": 71,
      "start": 41.4005,
      "duration": 0.0004,
      "velocity": 101,
      "chip": "ym2612"
    },
    {
      "channel": 2,
      "note": 71,
      "start": 41.4009,
      "duration": 0.0007,
      "velocity": 101,
      "chip": "ym2612"
    },
    {
      "channel": 2,
      "note": 71,
      "start": 41.4015,
      "duration": 0.0003,
      "velocity": 101,
      "chip": "ym2612"
    },
    {
      "channel": 2,
      "note": 71,
      "start": 41.4018,
      "duration": 0.0078,
      "velocity": 101,
      "chip": "ym2612"
    },
    {
      "channel": 0,
      "note": 74,
      "start": 41.4021,
      "duration": 0.1677,
      "velocity": 106,
      "chip": "ym2612"
    },
    {
      "channel": 4,
      "note": 66,
      "start": 41.4023,
      "duration": 0.1676,
      "velocity": 101,
      "chip": "ym2612"
    },
    {
      "channel": 2,
      "note": 71,
      "start": 41.4096,
      "duration": 0.02,
      "velocity": 101,
      "chip": "ym2612"
    },
    {
      "channel": 2,
      "note": 71,
      "start": 41.4296,
      "duration": 0.06,
      "velocity": 101,
      "chip": "ym2612"
    },
    {
      "channel": 2,
      "note": 71,
      "start": 41.4896,
      "duration": 0.1595,
      "velocity": 101,
      "chip": "ym2612"
    },
    {
      "channel": 0,
      "note": 71,
      "start": 41.5698,
      "duration": 0.0385,
      "velocity": 106,
      "chip": "ym2612"
    },
    {
      "channel": 3,
      "note": 43,
      "start": 41.57,
      "duration": 0.0017,
      "velocity": 105,
      "chip": "ym2612"
    },
    {
      "channel": 4,
      "note": 74,
      "start": 41.57,
      "duration": 0.0386,
      "velocity": 101,
      "chip": "ym2612"
    },
    {
      "channel": 0,
      "note": 67,
      "start": 41.6085,
      "duration": 0.0387,
      "velocity": 106,
      "chip": "ym2612"
    },
    {
      "channel": 3,
      "note": 43,
      "start": 41.6086,
      "duration": 0.002,
      "velocity": 105,
      "chip": "ym2612"
    },
    {
      "channel": 4,
      "note": 71,
      "start": 41.6087,
      "duration": 0.0387,
      "velocity": 101,
      "chip": "ym2612"
    },
    {
      "channel": 0,
      "note": 76,
      "start": 41.6473,
      "duration": 0.0099,
      "velocity": 106,
      "chip": "ym2612"
    },
    {
      "channel": 3,
      "note": 43,
      "start": 41.6474,
      "duration": 0.0017,
      "velocity": 105,
      "chip": "ym2612"
    },
    {
      "channel": 4,
      "note": 67,
      "start": 41.6474,
      "duration": 0.0099,
      "velocity": 101,
      "chip": "ym2612"
    },
    {
      "channel": 2,
      "note": 71,
      "start": 41.6491,
      "duration": 0.0081,
      "velocity": 101,
      "chip": "ym2612"
    },
    {
      "channel": 0,
      "note": 73,
      "start": 41.6572,
      "duration": 0.0385,
      "velocity": 106,
      "chip": "ym2612"
    },
    {
      "channel": 1,
      "note": 43,
      "start": 41.6573,
      "duration": 0.4092,
      "velocity": 120,
      "chip": "ym2612"
    },
    {
      "channel": 3,
      "note": 38,
      "start": 41.6573,
      "duration": 0.0385,
      "velocity": 105,
      "chip": "ym2612"
    },
    {
      "channel": 4,
      "note": 76,
      "start": 41.6574,
      "duration": 0.0385,
      "velocity": 101,
      "chip": "ym2612"
    },
    {
      "channel": 0,
      "note": 69,
      "start": 41.6958,
      "duration": 0.0386,
      "velocity": 106,
      "chip": "ym2612"
    },
    {
      "channel": 3,
      "note": 43,
      "start": 41.6959,
      "duration": 0.0575,
      "velocity": 105,
      "chip": "ym2612"
    },
    {
      "channel": 4,
      "note": 73,
      "start": 41.6959,
      "duration": 0.0386,
      "velocity": 101,
      "chip": "ym2612"
    },
    {
      "channel": 0,
      "note": 74,
      "start": 41.7345,
      "duration": 0.059,
      "velocity": 106,
      "chip": "ym2612"
    },
    {
      "channel": 4,
      "note": 69,
      "start": 41.7346,
      "duration": 0.0591,
      "velocity": 101,
      "chip": "ym2612"
    },
    {
      "channel": 2,
      "note": 71,
      "start": 41.7534,
      "duration": 0.0403,
      "velocity": 101,
      "chip": "ym2612"
    },
    {
      "channel": 0,
      "note": 71,
      "start": 41.7936,
      "duration": 0.0024,
      "velocity": 106,
      "chip": "ym2612"
    },
    {
      "channel": 2,
      "note": 73,
      "start": 41.7937,
      "duration": 0.0024,
      "velocity": 101,
      "chip": "ym2612"
    },
    {
      "channel": 3,
      "note": 43,
      "start": 41.7938,
      "duration": 0.0013,
      "velocity": 105,
      "chip": "ym2612"
    },
    {
      "channel": 4,
      "note": 74,
      "start": 41.7938,
      "duration": 0.0024,
      "velocity": 101,
      "chip": "ym2612"
    },
    {
      "channel": 0,
      "note": 67,
      "start": 41.796,
      "duration": 0.0582,
      "velocity": 106,
      "chip": "ym2612"
    },
    {
      "channel": 2,
      "note": 74,
      "start": 41.7961,
      "duration": 0.2184,
      "velocity": 101,
      "chip": "ym2612"
    },
    {
      "channel": 3,
      "note": 43,
      "start": 41.7962,
      "duration": 0.0779,
      "velocity": 105,
      "chip": "ym2612"
    },
    {
      "channel": 4,
      "note": 71,
      "start": 41.7963,
      "duration": 0.0581,
      "velocity": 101,
      "chip": "ym2612"
    },
    {
      "channel": 0,
      "note": 73,
      "start": 41.8542,
      "duration": 0.1602,
      "velocity": 106,
      "chip": "ym2612"
    },
    {
      "channel": 4,
      "note": 67,
      "start": 41.8544,
      "duration": 0.1602,
      "velocity": 101,
      "chip": "ym2612"
    },
    {
      "channel": 0,
      "note": 69,
      "start": 42.0144,
      "duration": 0.0385,
      "velocity": 106,
      "chip": "ym2612"
    },
    {
      "channel": 2,
      "note": 76,
      "start": 42.0146,
      "duration": 0.0406,
      "velocity": 101,
      "chip": "ym2612"
    },
    {
      "channel": 3,
      "note": 43,
      "start": 42.0146,
      "duration": 0.002,
      "velocity": 105,
      "chip": "ym2612"
    },
    {
      "channel": 4,
      "note": 73,
      "start": 42.0148,
      "duration": 0.0384,
      "velocity": 101,
      "chip": "ym2612"
    },
    {
      "channel": 0,
      "note": 74,
      "start": 42.053,
      "duration": 0.0101,
      "velocity": 106,
      "chip": "ym2612"
    },
    {
      "channel": 3,
      "note": 43,
      "start": 42.0531,
      "duration": 0.0018,
      "velocity": 105,
      "chip": "ym2612"
    },
    {
      "channel": 4,
      "note": 69,
      "start": 42.0532,
      "duration": 0.0101,
      "velocity": 101,
      "chip": "ym2612"
    },
    {
      "channel": 0,
      "note": 71,
      "start": 42.0631,
      "duration": 0.0383,
      "velocity": 106,
      "chip": "ym2612"
    },
    {
      "channel": 2,
      "note": 73,
      "start": 42.0632,
      "duration": 0.4119,
      "velocity": 101,
      "chip": "ym2612"
    },
    {
      "channel": 3,
      "note": 37,
      "start": 42.0633,
      "duration": 0.0019,
      "velocity": 105,
      "chip": "ym2612"
    },
    {
      "channel": 4,
      "note": 74,
      "start": 42.0634,
      "duration": 0.0384,
      "velocity": 101,
      "chip": "ym2612"
    },
    {
      "channel": 0,
      "note": 76,
      "start": 42.1015,
      "duration": 0.0022,
      "velocity": 106,
      "chip": "ym2612"
    },
    {
      "channel": 1,
      "note": 37,
      "start": 42.1016,
      "duration": 0.3096,
      "velocity": 120,
      "chip": "ym2612"
    },
    {
      "channel": 3,
      "note": 37,
      "start": 42.1017,
      "duration": 0.1184,
      "velocity": 105,
      "chip": "ym2612"
    },
    {
      "channel": 4,
      "note": 76,
      "start": 42.1036,
      "duration": 0.0765,
      "velocity": 101,
      "chip": "ym2612"
    },
    {
      "channel": 0,
      "note": 74,
      "start": 42.1038,
      "duration": 0.0962,
      "velocity": 106,
      "chip": "ym2612"
    },
    {
      "channel": 4,
      "note": 74,
      "start": 42.1802,
      "duration": 0.0998,
      "velocity": 101,
      "chip": "ym2612"
    },
    {
      "channel": 0,
      "note": 76,
      "start": 42.2,
      "duration": 0.1201,
      "velocity": 106,
      "chip": "ym2612"
    },
    {
      "channel": 4,
      "note": 76,
      "start": 42.2801,
      "duration": 0.0412,
      "velocity": 101,
      "chip": "ym2612"
    },
    {
      "channel": 0,
      "note": 73,
      "start": 42.3201,
      "duration": 0.0014,
      "velocity": 106,
      "chip": "ym2612"
    },
    {
      "channel": 3,
      "note": 37,
      "start": 42.3203,
      "duration": 0.0036,
      "velocity": 105,
      "chip": "ym2612"
    },
    {
      "channel": 4,
      "note": 73,
      "start": 42.3214,
      "duration": 0.0023,
      "velocity": 101,
      "chip": "ym2612"
    },
    {
      "channel": 0,
      "note": 71,
      "start": 42.3216,
      "duration": 0.0024,
      "velocity": 106,
      "chip": "ym2612"
    },
    {
      "channel": 4,
      "note": 71,
      "start": 42.3237,
      "duration": 0.0172,
      "velocity": 101,
      "chip": "ym2612"
    },
    {
      "channel": 0,
      "note": 69,
      "start": 42.324,
      "duration": 0.0369,
      "velocity": 106,
      "chip": "ym2612"
    },
    {
      "channel": 4,
      "note": 69,
      "start": 42.341,
      "duration": 0.0211,
      "velocity": 101,
      "chip": "ym2612"
    },
    {
      "channel": 0,
      "note": 78,
      "start": 42.361,
      "duration": 0.0015,
      "velocity": 106,
      "chip": "ym2612"
    },
    {
      "channel": 3,
      "note": 37,
      "start": 42.3611,
      "duration": 0.001,
      "velocity": 105,
      "chip": "ym2612"
    },
    {
      "channel": 4,
      "note": 78,
      "start": 42.3622,
      "duration": 0.0101,
      "velocity": 101,
      "chip": "ym2612"
    },
    {
      "channel": 0,
      "note": 76,
      "start": 42.3625,
      "duration": 0.0099,
      "velocity": 106,
      "chip": "ym2612"
    },
    {
      "channel": 3,
      "note": 37,
      "start": 42.371,
      "duration": 0.0404,
      "velocity": 105,
      "chip": "ym2612"
    },
    {
      "channel": 4,
      "note": 76,
      "start": 42.3723,
      "duration": 0.0172,
      "velocity": 101,
      "chip": "ym2612"
    },
    {
      "channel": 0,
      "note": 78,
      "start": 42.3724,
      "duration": 0.0369,
      "velocity": 106,
      "chip": "ym2612"
    },
    {
      "channel": 4,
      "note": 78,
      "start": 42.3896,
      "duration": 0.0212,
      "velocity": 101,
      "chip": "ym2612"
    },
    {
      "channel": 0,
      "note": 74,
      "start": 42.4094,
      "duration": 0.0017,
      "velocity": 106,
      "chip": "ym2612"
    },
    {
      "channel": 4,
      "note": 74,
      "start": 42.4108,
      "duration": 0.0028,
      "velocity": 101,
      "chip": "ym2612"
    },
    {
      "channel": 0,
      "note": 73,
      "start": 42.4112,
      "duration": 0.0026,
      "velocity": 106,
      "chip": "ym2612"
    },
    {
      "channel": 1,
      "note": 37,
      "start": 42.412,
      "duration": 0.1673,
      "velocity": 120,
      "chip": "ym2612"
    },
    {
      "channel": 3,
      "note": 35,
      "start": 42.4121,
      "duration": 0.0034,
      "velocity": 105,
      "chip": "ym2612"
    },
    {
      "channel": 4,
      "note": 73,
      "start": 42.4137,
      "duration": 0.0167,
      "velocity": 101,
      "chip": "ym2612"
    },
    {
      "channel": 0,
      "note": 71,
      "start": 42.4138,
      "duration": 0.0567,
      "velocity": 106,
      "chip": "ym2612"
    },
    {
      "channel": 4,
      "note": 71,
      "start": 42.4304,
      "duration": 0.0412,
      "velocity": 101,
      "chip": "ym2612"
    },
    {
      "channel": 0,
      "note": 80,
      "start": 42.4705,
      "duration": 0.0014,
      "velocity": 106,
      "chip": "ym2612"
    },
    {
      "channel": 3,
      "note": 37,
      "start": 42.4707,
      "duration": 0.001,
      "velocity": 105,
      "chip": "ym2612"
    },
    {
      "channel": 4,
      "note": 80,
      "start": 42.4717,
      "duration": 0.0025,
      "velocity": 101,
      "chip": "ym2612"
    },
    {
      "channel": 0,
      "note": 78,
      "start": 42.4719,
      "duration": 0.0027,
      "velocity": 106,
      "chip": "ym2612"
    },
    {
      "channel": 3,
      "note": 37,
      "start": 42.4729,
      "duration": 0.002,
      "velocity": 105,
      "chip": "ym2612"
    },
    {
      "channel": 4,
      "note": 78,
      "start": 42.4743,
      "duration": 0.017,
      "velocity": 101,
      "chip": "ym2612"
    },
    {
      "channel": 0,
      "note": 80,
      "start": 42.4746,
      "duration": 0.037,
      "velocity": 106,
      "chip": "ym2612"
    },
    {
      "channel": 2,
      "note": 73,
      "start": 42.4751,
      "duration": 0.0366,
      "velocity": 101,
      "chip": "ym2612"
    },
    {
      "channel": 4,
      "note": 80,
      "start": 42.4914,
      "duration": 0.0217,
      "velocity": 101,
      "chip": "ym2612"
    },
    {
      "channel": 0,
      "note": 76,
      "start": 42.5116,
      "duration": 0.0017,
      "velocity": 106,
      "chip": "ym2612"
    },
    {
      "channel": 2,
      "note": 68,
      "start": 42.5117,
      "duration": 0.0097,
      "velocity": 101,
      "chip": "ym2612"
    },
    {
      "channel": 3,
      "note": 37,
      "start": 42.5118,
      "duration": 0.0013,
      "velocity": 105,
      "chip": "ym2612"
    },
    {
      "channel": 4,
      "note": 76,
      "start": 42.5132,
      "duration": 0.0096,
      "velocity": 101,
      "chip": "ym2612"
    },
    {
      "channel": 0,
      "note": 74,
      "start": 42.5133,
      "duration": 0.0099,
      "velocity": 106,
      "chip": "ym2612"
    },
    {
      "channel": 2,
      "note": 61,
      "start": 42.5215,
      "duration": 0.0516,
      "velocity": 101,
      "chip": "ym2612"
    },
    {
      "channel": 3,
      "note": 37,
      "start": 42.5216,
      "duration": 0.0393,
      "velocity": 105,
      "chip": "ym2612"
    },
    {
      "channel": 4,
      "note": 74,
      "start": 42.5229,
      "duration": 0.0171,
      "velocity": 101,
      "chip": "ym2612"
    },
    {
      "channel": 0,
      "note": 73,
      "start": 42.5232,
      "duration": 0.0368,
      "velocity": 106,
      "chip": "ym2612"
    },
    {
      "channel": 4,
      "note": 73,
      "start": 42.5401,
      "duration": 0.0215,
      "velocity": 101,
      "chip": "ym2612"
    },
    {
      "channel": 0,
      "note": 81,
      "start": 42.5601,
      "duration": 0.0014,
      "velocity": 106,
      "chip": "ym2612"
    },
    {
      "channel": 0,
      "note": 73,
      "start": 42.5615,
      "duration": 0.0016,
      "velocity": 106,
      "chip": "ym2612"
    },
    {
      "channel": 4,
      "note": 81,
      "start": 42.5617,
      "duration": 0.0016,
      "velocity": 101,
      "chip": "ym2612"
    },
    {
      "channel": 0,
      "note": 74,
      "start": 42.5632,
      "duration": 0.0014,
      "velocity": 106,
      "chip": "ym2612"
    },
    {
      "channel": 3,
      "note": 37,
      "start": 42.5633,
      "duration": 0.0014,
      "velocity": 105,
      "chip": "ym2612"
    },
    {
      "channel": 4,
      "note": 73,
      "start": 42.5634,
      "duration": 0.0013,
      "velocity": 101,
      "chip": "ym2612"
    },
    {
      "channel": 0,
      "note": 76,
      "start": 42.5646,
      "duration": 0.0085,
      "velocity": 106,
      "chip": "ym2612"
    },
    {
      "channel": 4,
      "note": 74,
      "start": 42.5648,
      "duration": 0.0085,
      "velocity": 101,
      "chip": "ym2612"
    },
    {
      "channel": 0,
      "note": 78,
      "start": 42.573,
      "duration": 0.0011,
      "velocity": 106,
      "chip": "ym2612"
    },
    {
      "channel": 3,
      "note": 37,
      "start": 42.5732,
      "duration": 0.0022,
      "velocity": 105,
      "chip": "ym2612"
    },
    {
      "channel": 4,
      "note": 76,
      "start": 42.5733,
      "duration": 0.001,
      "velocity": 101,
      "chip": "ym2612"
    },
    {
      "channel": 0,
      "note": 80,
      "start": 42.5742,
      "duration": 0.0011,
      "velocity": 106,
      "chip": "ym2612"
    },
    {
      "channel": 4,
      "note": 78,
      "start": 42.5743,
      "duration": 0.0012,
      "velocity": 101,
      "chip": "ym2612"
    },
    {
      "channel": 0,
      "note": 81,
      "start": 42.5754,
      "duration": 0.0023,
      "velocity": 106,
      "chip": "ym2612"
    },
    {
      "channel": 3,
      "note": 40,
      "start": 42.5755,
      "duration": 0.0038,
      "velocity": 105,
      "chip": "ym2612"
    },
    {
      "channel": 4,
      "note": 80,
      "start": 42.5756,
      "duration": 0.0022,
      "velocity": 101,
      "chip": "ym2612"
    },
    {
      "channel": 0,
      "note": 83,
      "start": 42.5777,
      "duration": 0.0019,
      "velocity": 106,
      "chip": "ym2612"
    },
    {
      "channel": 4,
      "note": 81,
      "start": 42.5779,
      "duration": 0.0029,
      "velocity": 120,
      "chip": "ym2612"
    },
    {
      "channel": 0,
      "note": 71,
      "start": 42.5797,
      "duration": 0.0558,
      "velocity": 106,
      "chip": "ym2612"
    },
    {
      "channel": 1,
      "note": 47,
      "start": 42.5798,
      "duration": 0.4855,
      "velocity": 120,
      "chip": "ym2612"
    },
    {
      "channel": 2,
      "note": 86,
      "start": 42.5802,
      "duration": 0.7303,
      "velocity": 107,
      "chip": "ym2612"
    },
    {
      "channel": 3,
      "note": 35,
      "start": 42.5803,
      "duration": 0.1149,
      "velocity": 105,
      "chip": "ym2612"
    },
    {
      "channel": 4,
      "note": 47,
      "start": 42.5813,
      "duration": 0.0004,
      "velocity": 120,
      "chip": "ym2612"
    },
    {
      "channel": 4,
      "note": 47,
      "start": 42.5817,
      "duration": 0.0006,
      "velocity": 120,
      "chip": "ym2612"
    },
    {
      "channel": 4,
      "note": 47,
      "start": 42.5823,
      "duration": 0.0132,
      "velocity": 120,
      "chip": "ym2612"
    },
    {
      "channel": 4,
      "note": 47,
      "start": 42.5955,
      "duration": 0.0402,
      "velocity": 120,
      "chip": "ym2612"
    },
    {
      "channel": 0,
      "note": 83,
      "start": 42.6355,
      "duration": 0.1601,
      "velocity": 106,
      "chip": "ym2612"
    },
    {
      "channel": 4,
      "note": 47,
      "start": 42.6356,
      "duration": 0.0398,
      "velocity": 120,
      "chip": "ym2612"
    },
    {
      "channel": 4,
      "note": 47,
      "start": 42.6755,
      "duration": 0.0399,
      "velocity": 120,
      "chip": "ym2612"
    },
    {
      "channel": 4,
      "note": 47,
      "start": 42.7154,
      "duration": 0.04,
      "velocity": 120,
      "chip": "ym2612"
    },
    {
      "channel": 4,
      "note": 47,
      "start": 42.7554,
      "duration": 0.0405,
      "velocity": 120,
      "chip": "ym2612"
    },
    {
      "channel": 0,
      "note": 78,
      "start": 42.7956,
      "duration": 0.0097,
      "velocity": 106,
      "chip": "ym2612"
    },
    {
      "channel": 3,
      "note": 35,
      "start": 42.7958,
      "duration": 0.0495,
      "velocity": 105,
      "chip": "ym2612"
    },
    {
      "channel": 4,
      "note": 47,
      "start": 42.7959,
      "duration": 0.0007,
      "velocity": 120,
      "chip": "ym2612"
    },
    {
      "channel": 4,
      "note": 47,
      "start": 42.7965,
      "duration": 0.0006,
      "velocity": 120,
      "chip": "ym2612"
    },
    {
      "channel": 4,
      "note": 47,
      "start": 42.7971,
      "duration": 0.0005,
      "velocity": 120,
      "chip": "ym2612"
    },
    {
      "channel": 4,
      "note": 47,
      "start": 42.7976,
      "duration": 0.008,
      "velocity": 120,
      "chip": "ym2612"
    },
    {
      "channel": 0,
      "note": 71,
      "start": 42.8054,
      "duration": 0.1601,
      "velocity": 106,
      "chip": "ym2612"
    },
    {
      "channel": 4,
      "note": 47,
      "start": 42.8056,
      "duration": 0.0398,
      "velocity": 120,
      "chip": "ym2612"
    },
    {
      "channel": 4,
      "note": 47,
      "start": 42.8454,
      "duration": 0.0399,
      "velocity": 120,
      "chip": "ym2612"
    },
    {
      "channel": 4,
      "note": 47,
      "start": 42.8853,
      "duration": 0.04,
      "velocity": 120,
      "chip": "ym2612"
    },
    {
      "channel": 4,
      "note": 47,
      "start": 42.9253,
      "duration": 0.0405,
      "velocity": 120,
      "chip": "ym2612"
    },
    {
      "channel": 0,
      "note": 83,
      "start": 42.9656,
      "duration": 0.0386,
      "velocity": 106,
      "chip": "ym2612"
    },
    {
      "channel": 3,
      "note": 35,
      "start": 42.9657,
      "duration": 0.0018,
      "velocity": 105,
      "chip": "ym2612"
    },
    {
      "channel": 4,
      "note": 47,
      "start": 42.9658,
      "duration": 0.0015,
      "velocity": 120,
      "chip": "ym2612"
    },
    {
      "channel": 4,
      "note": 47,
      "start": 42.9673,
      "duration": 0.0004,
      "velocity": 120,
      "chip": "ym2612"
    },
    {
      "channel": 4,
      "note": 47,
      "start": 42.9677,
      "duration": 0.0015,
      "velocity": 120,
      "chip": "ym2612"
    },
    {
      "channel": 4,
      "note": 47,
      "start": 42.9692,
      "duration": 0.0353,
      "velocity": 120,
      "chip": "ym2612"
    },
    {
      "channel": 0,
      "note": 78,
      "start": 43.0042,
      "duration": 0.0586,
      "velocity": 106,
      "chip": "ym2612"
    },
    {
      "channel": 3,
      "note": 35,
      "start": 43.0044,
      "duration": 0.038,
      "velocity": 105,
      "chip": "ym2612"
    },
    {
      "channel": 4,
      "note": 47,
      "start": 43.0044,
      "duration": 0.0016,
      "velocity": 120,
      "chip": "ym2612"
    },
    {
      "channel": 4,
      "note": 47,
      "start": 43.006,
      "duration": 0.0005,
      "velocity": 120,
      "chip": "ym2612"
    },
    {
      "channel": 4,
      "note": 47,
      "start": 43.0066,
      "duration": 0.0014,
      "velocity": 120,
      "chip": "ym2612"
    },
    {
      "channel": 4,
      "note": 47,
      "start": 43.008,
      "duration": 0.055,
      "velocity": 120,
      "chip": "ym2612"
    },
    {
      "channel": 0,
      "note": 71,
      "start": 43.0628,
      "duration": 0.0024,
      "velocity": 106,
      "chip": "ym2612"
    },
    {
      "channel": 3,
      "note": 42,
      "start": 43.0629,
      "duration": 0.0025,
      "velocity": 105,
      "chip": "ym2612"
    },
    {
      "channel": 4,
      "note": 47,
      "start": 43.063,
      "duration": 0.0007,
      "velocity": 120,
      "chip": "ym2612"
    },
    {
      "channel": 4,
      "note": 47,
      "start": 43.0637,
      "duration": 0.0005,
      "velocity": 120,
      "chip": "ym2612"
    },
    {
      "channel": 4,
      "note": 47,
      "start": 43.0642,
      "duration": 0.0006,
      "velocity": 120,
      "chip": "ym2612"
    },
    {
      "channel": 4,
      "note": 47,
      "start": 43.0648,
      "duration": 0.0003,
      "velocity": 120,
      "chip": "ym2612"
    },
    {
      "channel": 4,
      "note": 55,
      "start": 43.0651,
      "duration": 0.0004,
      "velocity": 120,
      "chip": "ym2612"
    },
    {
      "channel": 0,
      "note": 71,
      "start": 43.0653,
      "duration": 0.2063,
      "velocity": 106,
      "chip": "ym2612"
    },
    {
      "channel": 1,
      "note": 43,
      "start": 43.0653,
      "duration": 0.5071,
      "velocity": 120,
      "chip": "ym2612"
    },
    {
      "channel": 3,
      "note": 43,
      "start": 43.0655,
      "duration": 0.1488,
      "velocity": 105,
      "chip": "ym2612"
    },
    {
      "channel": 4,
      "note": 55,
      "start": 43.0655,
      "duration": 0.0272,
      "velocity": 120,
      "chip": "ym2612"
    },
    {
      "channel": 4,
      "note": 55,
      "start": 43.0927,
      "duration": 0.04,
      "velocity": 120,
      "chip": "ym2612"
    },
    {
      "channel": 4,
      "note": 55,
      "start": 43.1327,
      "duration": 0.04,
      "velocity": 120,
      "chip": "ym2612"
    },
    {
      "channel": 4,
      "note": 55,
      "start": 43.1727,
      "duration": 0.0401,
      "velocity": 120,
      "chip": "ym2612"
    },
    {
      "channel": 4,
      "note": 55,
      "start": 43.2128,
      "duration": 0.0015,
      "velocity": 120,
      "chip": "ym2612"
    },
    {
      "channel": 4,
      "note": 55,
      "start": 43.2143,
      "duration": 0.0005,
      "velocity": 120,
      "chip": "ym2612"
    },
    {
      "channel": 4,
      "note": 55,
      "start": 43.2148,
      "duration": 0.0165,
      "velocity": 120,
      "chip": "ym2612"
    },
    {
      "channel": 4,
      "note": 55,
      "start": 43.2313,
      "duration": 0.0405,
      "velocity": 120,
      "chip": "ym2612"
    },
    {
      "channel": 0,
      "note": 83,
      "start": 43.2716,
      "duration": 0.0388,
      "velocity": 106,
      "chip": "ym2612"
    },
    {
      "channel": 3,
      "note": 43,
      "start": 43.2717,
      "duration": 0.0021,
      "velocity": 105,
      "chip": "ym2612"
    },
    {
      "channel": 4,
      "note": 55,
      "start": 43.2718,
      "duration": 0.0015,
      "velocity": 120,
      "chip": "ym2612"
    },
    {
      "channel": 4,
      "note": 55,
      "start": 43.2733,
      "duration": 0.0006,
      "velocity": 120,
      "chip": "ym2612"
    },
    {
      "channel": 4,
      "note": 55,
      "start": 43.2739,
      "duration": 0.0015,
      "velocity": 120,
      "chip": "ym2612"
    },
    {
      "channel": 4,
      "note": 55,
      "start": 43.2753,
      "duration": 0.0353,
      "velocity": 120,
      "chip": "ym2612"
    },
    {
      "channel": 0,
      "note": 78,
      "start": 43.3104,
      "duration": 0.0025,
      "velocity": 106,
      "chip": "ym2612"
    },
    {
      "channel": 2,
      "note": 85,
      "start": 43.3105,
      "duration": 0.0025,
      "velocity": 107,
      "chip": "ym2612"
    },
    {
      "channel": 3,
      "note": 43,
      "start": 43.3106,
      "duration": 0.0017,
      "velocity": 105,
      "chip": "ym2612"
    },
    {
      "channel": 4,
      "note": 55,
      "start": 43.3107,
      "duration": 0.0007,
      "velocity": 120,
      "chip": "ym2612"
    },
    {
      "channel": 4,
      "note": 55,
      "start": 43.3113,
      "duration": 0.0005,
      "velocity": 120,
      "chip": "ym2612"
    },
    {
      "channel": 4,
      "note": 55,
      "start": 43.3119,
      "duration": 0.0005,
      "velocity": 120,
      "chip": "ym2612"
    },
    {
      "channel": 4,
      "note": 55,
      "start": 43.3124,
      "duration": 0.0008,
      "velocity": 120,
      "chip": "ym2612"
    },
    {
      "channel": 0,
      "note": 71,
      "start": 43.3129,
      "duration": 0.0583,
      "velocity": 106,
      "chip": "ym2612"
    },
    {
      "channel": 2,
      "note": 83,
      "start": 43.3131,
      "duration": 0.2186,
      "velocity": 107,
      "chip": "ym2612"
    },
    {
      "channel": 3,
      "note": 43,
      "start": 43.3131,
      "duration": 0.1179,
      "velocity": 105,
      "chip": "ym2612"
    },
    {
      "channel": 4,
      "note": 55,
      "start": 43.3132,
      "duration": 0.0015,
      "velocity": 120,
      "chip": "ym2612"
    },
    {
      "channel": 4,
      "note": 55,
      "start": 43.3147,
      "duration": 0.0006,
      "velocity": 120,
      "chip": "ym2612"
    },
    {
      "channel": 4,
      "note": 55,
      "start": 43.3153,
      "duration": 0.0159,
      "velocity": 120,
      "chip": "ym2612"
    },
    {
      "channel": 4,
      "note": 55,
      "start": 43.3312,
      "duration": 0.0402,
      "velocity": 120,
      "chip": "ym2612"
    },
    {
      "channel": 0,
      "note": 83,
      "start": 43.3713,
      "duration": 0.1602,
      "velocity": 106,
      "chip": "ym2612"
    },
    {
      "channel": 4,
      "note": 55,
      "start": 43.3714,
      "duration": 0.0398,
      "velocity": 120,
      "chip": "ym2612"
    },
    {
      "channel": 4,
      "note": 55,
      "start": 43.4112,
      "duration": 0.04,
      "velocity": 120,
      "chip": "ym2612"
    },
    {
      "channel": 4,
      "note": 55,
      "start": 43.4512,
      "duration": 0.0399,
      "velocity": 120,
      "chip": "ym2612"
    },
    {
      "channel": 4,
      "note": 55,
      "start": 43.4912,
      "duration": 0.0406,
      "velocity": 120,
      "chip": "ym2612"
    },
    {
      "channel": 0,
      "note": 78,
      "start": 43.5316,
      "duration": 0.0384,
      "velocity": 106,
      "chip": "ym2612"
    },
    {
      "channel": 2,
      "note": 86,
      "start": 43.5316,
      "duration": 0.0487,
      "velocity": 107,
      "chip": "ym2612"
    },
    {
      "channel": 3,
      "note": 43,
      "start": 43.5318,
      "duration": 0.002,
      "velocity": 105,
      "chip": "ym2612"
    },
    {
      "channel": 4,
      "note": 55,
      "start": 43.5318,
      "duration": 0.0015,
      "velocity": 120,
      "chip": "ym2612"
    },
    {
      "channel": 4,
      "note": 55,
      "start": 43.5333,
      "duration": 0.0005,
      "velocity": 120,
      "chip": "ym2612"
    },
    {
      "channel": 4,
      "note": 55,
      "start": 43.5338,
      "duration": 0.0014,
      "velocity": 120,
      "chip": "ym2612"
    },
    {
      "channel": 4,
      "note": 55,
      "start": 43.5353,
      "duration": 0.035,
      "velocity": 120,
      "chip": "ym2612"
    },
    {
      "channel": 0,
      "note": 71,
      "start": 43.57,
      "duration": 0.0101,
      "velocity": 106,
      "chip": "ym2612"
    },
    {
      "channel": 3,
      "note": 43,
      "start": 43.5702,
      "duration": 0.0018,
      "velocity": 105,
      "chip": "ym2612"
    },
    {
      "channel": 4,
      "note": 55,
      "start": 43.5702,
      "duration": 0.0007,
      "velocity": 120,
      "chip": "ym2612"
    },
    {
      "channel": 4,
      "note": 55,
      "start": 43.5709,
      "duration": 0.0009,
      "velocity": 120,
      "chip": "ym2612"
    },
    {
      "channel": 4,
      "note": 55,
      "start": 43.5718,
      "duration": 0.0004,
      "velocity": 120,
      "chip": "ym2612"
    },
    {
      "channel": 4,
      "note": 57,
      "start": 43.5723,
      "duration": 0.0082,
      "velocity": 120,
      "chip": "ym2612"
    },
    {
      "channel": 0,
      "note": 69,
      "start": 43.5802,
      "duration": 0.077,
      "velocity": 106,
      "chip": "ym2612"
    },
    {
      "channel": 1,
      "note": 45,
      "start": 43.5803,
      "duration": 0.8368,
      "velocity": 120,
      "chip": "ym2612"
    },
    {
      "channel": 2,
      "note": 85,
      "start": 43.5804,
      "duration": 0.2593,
      "velocity": 107,
      "chip": "ym2612"
    },
    {
      "channel": 3,
      "note": 45,
      "start": 43.5804,
      "duration": 0.0021,
      "velocity": 105,
      "chip": "ym2612"
    },
    {
      "channel": 4,
      "note": 57,
      "start": 43.5805,
      "duration": 0.0016,
      "velocity": 120,
      "chip": "ym2612"
    },
    {
      "channel": 4,
      "note": 57,
      "start": 43.5821,
      "duration": 0.0005,
      "velocity": 120,
      "chip": "ym2612"
    },
    {
      "channel": 4,
      "note": 57,
      "start": 43.5826,
      "duration": 0.0014,
      "velocity": 120,
      "chip": "ym2612"
    },
    {
      "channel": 4,
      "note": 57,
      "start": 43.584,
      "duration": 0.0347,
      "velocity": 120,
      "chip": "ym2612"
    },
    {
      "channel": 3,
      "note": 45,
      "start": 43.6186,
      "duration": 0.1385,
      "velocity": 105,
      "chip": "ym2612"
    },
    {
      "channel": 4,
      "note": 57,
      "start": 43.6187,
      "duration": 0.0016,
      "velocity": 120,
      "chip": "ym2612"
    },
    {
      "channel": 4,
      "note": 57,
      "start": 43.6202,
      "duration": 0.0006,
      "velocity": 120,
      "chip": "ym2612"
    },
    {
      "channel": 4,
      "note": 57,
      "start": 43.6208,
      "duration": 0.0015,
      "velocity": 120,
      "chip": "ym2612"
    },
    {
      "channel": 4,
      "note": 57,
      "start": 43.6223,
      "duration": 0.0351,
      "velocity": 120,
      "chip": "ym2612"
    },
    {
      "channel": 0,
      "note": 81,
      "start": 43.6573,
      "duration": 0.18,
      "velocity": 106,
      "chip": "ym2612"
    },
    {
      "channel": 4,
      "note": 57,
      "start": 43.6575,
      "duration": 0.0398,
      "velocity": 120,
      "chip": "ym2612"
    },
    {
      "channel": 4,
      "note": 57,
      "start": 43.6973,
      "duration": 0.0599,
      "velocity": 120,
      "chip": "ym2612"
    },
    {
      "channel": 4,
      "note": 57,
      "start": 43.7572,
      "duration": 0.0399,
      "velocity": 120,
      "chip": "ym2612"
    },
    {
      "channel": 4,
      "note": 57,
      "start": 43.7971,
      "duration": 0.0405,
      "velocity": 120,
      "chip": "ym2612"
    },
    {
      "channel": 0,
      "note": 76,
      "start": 43.8374,
      "duration": 0.0025,
      "velocity": 106,
      "chip": "ym2612"
    },
    {
      "channel": 3,
      "note": 45,
      "start": 43.8375,
      "duration": 0.0496,
      "velocity": 105,
      "chip": "ym2612"
    },
    {
      "channel": 4,
      "note": 57,
      "start": 43.8376,
      "duration": 0.0008,
      "velocity": 120,
      "chip": "ym2612"
    },
    {
      "channel": 4,
      "note": 57,
      "start": 43.8384,
      "duration": 0.0006,
      "velocity": 120,
      "chip": "ym2612"
    },
    {
      "channel": 4,
      "note": 57,
      "start": 43.8389,
      "duration": 0.0005,
      "velocity": 120,
      "chip": "ym2612"
    },
    {
      "channel": 4,
      "note": 57,
      "start": 43.8394,
      "duration": 0.0007,
      "velocity": 120,
      "chip": "ym2612"
    },
    {
      "channel": 2,
      "note": 85,
      "start": 43.8397,
      "duration": 0.1498,
      "velocity": 107,
      "chip": "ym2612"
    },
    {
      "channel": 0,
      "note": 69,
      "start": 43.84,
      "duration": 0.1475,
      "velocity": 106,
      "chip": "ym2612"
    },
    {
      "channel": 4,
      "note": 57,
      "start": 43.8401,
      "duration": 0.0272,
      "velocity": 120,
      "chip": "ym2612"
    },
    {
      "channel": 4,
      "note": 57,
      "start": 43.8673,
      "duration": 0.0399,
      "velocity": 120,
      "chip": "ym2612"
    },
    {
      "channel": 4,
      "note": 57,
      "start": 43.9073,
      "duration": 0.04,
      "velocity": 120,
      "chip": "ym2612"
    },
    {
      "channel": 4,
      "note": 57,
      "start": 43.9473,
      "duration": 0.0405,
      "velocity": 120,
      "chip": "ym2612"
    },
    {
      "channel": 0,
      "note": 81,
      "start": 43.9875,
      "duration": 0.0586,
      "velocity": 106,
      "chip": "ym2612"
    },
    {
      "channel": 3,
      "note": 45,
      "start": 43.9877,
      "duration": 0.0023,
      "velocity": 105,
      "chip": "ym2612"
    },
    {
      "channel": 4,
      "note": 57,
      "start": 43.9877,
      "duration": 0.0018,
      "velocity": 120,
      "chip": "ym2612"
    },
    {
      "channel": 2,
      "note": 85,
      "start": 43.9895,
      "duration": 0.2263,
      "velocity": 107,
      "chip": "ym2612"
    },
    {
      "channel": 4,
      "note": 57,
      "start": 43.9895,
      "duration": 0.0005,
      "velocity": 120,
      "chip": "ym2612"
    },
    {
      "channel": 4,
      "note": 57,
      "start": 43.99,
      "duration": 0.0159,
      "velocity": 120,
      "chip": "ym2612"
    },
    {
      "channel": 4,
      "note": 57,
      "start": 44.0059,
      "duration": 0.0405,
      "velocity": 120,
      "chip": "ym2612"
    },
    {
      "channel": 0,
      "note": 76,
      "start": 44.0462,
      "duration": 0.16,
      "velocity": 106,
      "chip": "ym2612"
    },
    {
      "channel": 3,
      "note": 45,
      "start": 44.0463,
      "duration": 0.0595,
      "velocity": 105,
      "chip": "ym2612"
    },
    {
      "channel": 4,
      "note": 57,
      "start": 44.0464,
      "duration": 0.0397,
      "velocity": 120,
      "chip": "ym2612"
    },
    {
      "channel": 4,
      "note": 57,
      "start": 44.0861,
      "duration": 0.0399,
      "velocity": 120,
      "chip": "ym2612"
    },
    {
      "channel": 4,
      "note": 57,
      "start": 44.1259,
      "duration": 0.04,
      "velocity": 120,
      "chip": "ym2612"
    },
    {
      "channel": 4,
      "note": 57,
      "start": 44.1659,
      "duration": 0.0405,
      "velocity": 120,
      "chip": "ym2612"
    },
    {
      "channel": 0,
      "note": 69,
      "start": 44.2062,
      "duration": 0.0023,
      "velocity": 106,
      "chip": "ym2612"
    },
    {
      "channel": 3,
      "note": 45,
      "start": 44.2063,
      "duration": 0.0012,
      "velocity": 105,
      "chip": "ym2612"
    },
    {
      "channel": 4,
      "note": 57,
      "start": 44.2064,
      "duration": 0.0008,
      "velocity": 120,
      "chip": "ym2612"
    },
    {
      "channel": 4,
      "note": 57,
      "start": 44.2072,
      "duration": 0.0005,
      "velocity": 120,
      "chip": "ym2612"
    },
    {
      "channel": 4,
      "note": 57,
      "start": 44.2076,
      "duration": 0.0004,
      "velocity": 120,
      "chip": "ym2612"
    },
    {
      "channel": 4,
      "note": 57,
      "start": 44.208,
      "duration": 0.0007,
      "velocity": 120,
      "chip": "ym2612"
    },
    {
      "channel": 0,
      "note": 69,
      "start": 44.2085,
      "duration": 0.2061,
      "velocity": 106,
      "chip": "ym2612"
    },
    {
      "channel": 3,
      "note": 45,
      "start": 44.2087,
      "duration": 0.1688,
      "velocity": 105,
      "chip": "ym2612"
    },
    {
      "channel": 4,
      "note": 57,
      "start": 44.2087,
      "duration": 0.0472,
      "velocity": 120,
      "chip": "ym2612"
    },
    {
      "channel": 2,
      "note": 85,
      "start": 44.2158,
      "duration": 0.2579,
      "velocity": 107,
      "chip": "ym2612"
    },
    {
      "channel": 4,
      "note": 57,
      "start": 44.2559,
      "duration": 0.04,
      "velocity": 120,
      "chip": "ym2612"
    },
    {
      "channel": 4,
      "note": 57,
      "start": 44.2959,
      "duration": 0.04,
      "velocity": 120,
      "chip": "ym2612"
    },
    {
      "channel": 4,
      "note": 57,
      "start": 44.3359,
      "duration": 0.0401,
      "velocity": 120,
      "chip": "ym2612"
    },
    {
      "channel": 4,
      "note": 57,
      "start": 44.376,
      "duration": 0.0015,
      "velocity": 120,
      "chip": "ym2612"
    },
    {
      "channel": 4,
      "note": 57,
      "start": 44.3775,
      "duration": 0.0004,
      "velocity": 120,
      "chip": "ym2612"
    },
    {
      "channel": 4,
      "note": 57,
      "start": 44.378,
      "duration": 0.0014,
      "velocity": 120,
      "chip": "ym2612"
    },
    {
      "channel": 4,
      "note": 57,
      "start": 44.3794,
      "duration": 0.0355,
      "velocity": 120,
      "chip": "ym2612"
    },
    {
      "channel": 0,
      "note": 81,
      "start": 44.4147,
      "duration": 0.0588,
      "velocity": 106,
      "chip": "ym2612"
    },
    {
      "channel": 3,
      "note": 45,
      "start": 44.4149,
      "duration": 0.002,
      "velocity": 105,
      "chip": "ym2612"
    },
    {
      "channel": 4,
      "note": 57,
      "start": 44.4149,
      "duration": 0.0016,
      "velocity": 120,
      "chip": "ym2612"
    },
    {
      "channel": 4,
      "note": 57,
      "start": 44.4165,
      "duration": 0.0005,
      "velocity": 120,
      "chip": "ym2612"
    },
    {
      "channel": 4,
      "note": 57,
      "start": 44.417,
      "duration": 0.0014,
      "velocity": 120,
      "chip": "ym2612"
    },
    {
      "channel": 1,
      "note": 45,
      "start": 44.4171,
      "duration": 0.0589,
      "velocity": 120,
      "chip": "ym2612"
    },
    {
      "channel": 4,
      "note": 57,
      "start": 44.4184,
      "duration": 0.0555,
      "velocity": 120,
      "chip": "ym2612"
    },
    {
      "channel": 0,
      "note": 78,
      "start": 44.4736,
      "duration": 0.0024,
      "velocity": 106,
      "chip": "ym2612"
    },
    {
      "channel": 2,
      "note": 83,
      "start": 44.4737,
      "duration": 0.0024,
      "velocity": 107,
      "chip": "ym2612"
    },
    {
      "channel": 3,
      "note": 45,
      "start": 44.4738,
      "duration": 0.0024,
      "velocity": 105,
      "chip": "ym2612"
    },
    {
      "channel": 4,
      "note": 57,
      "start": 44.4739,
      "duration": 0.0007,
      "velocity": 120,
      "chip": "ym2612"
    },
    {
      "channel": 4,
      "note": 57,
      "start": 44.4746,
      "duration": 0.0006,
      "velocity": 120,
      "chip": "ym2612"
    },
    {
      "channel": 4,
      "note": 57,
      "start": 44.4751,
      "duration": 0.0005,
      "velocity": 120,
      "chip": "ym2612"
    },
    {
      "channel": 4,
      "note": 54,
      "start": 44.4756,
      "duration": 0.0007,
      "velocity": 120,
      "chip": "ym2612"
    },
    {
      "channel": 0,
      "note": 69,
      "start": 44.4761,
      "duration": 0.0382,
      "velocity": 106,
      "chip": "ym2612"
    },
    {
      "channel": 1,
      "note": 38,
      "start": 44.4761,
      "duration": 0.2586,
      "velocity": 120,
      "chip": "ym2612"
    },
    {
      "channel": 2,
      "note": 81,
      "start": 44.4762,
      "duration": 0.1777,
      "velocity": 107,
      "chip": "ym2612"
    },
    {
      "channel": 3,
      "note": 38,
      "start": 44.4762,
      "duration": 0.0779,
      "velocity": 105,
      "chip": "ym2612"
    },
    {
      "channel": 4,
      "note": 54,
      "start": 44.4763,
      "duration": 0.0012,
      "velocity": 120,
      "chip": "ym2612"
    },
    {
      "channel": 4,
      "note": 54,
      "start": 44.4775,
      "duration": 0.0003,
      "velocity": 120,
      "chip": "ym2612"
    },
    {
      "channel": 4,
      "note": 54,
      "start": 44.4778,
      "duration": 0.0006,
      "velocity": 120,
      "chip": "ym2612"
    },
    {
      "channel": 4,
      "note": 54,
      "start": 44.4783,
      "duration": 0.0014,
      "velocity": 120,
      "chip": "ym2612"
    },
    {
      "channel": 4,
      "note": 54,
      "start": 44.4798,
      "duration": 0.0347,
      "velocity": 120,
      "chip": "ym2612"
    },
    {
      "channel": 0,
      "note": 81,
      "start": 44.5143,
      "duration": 0.1802,
      "velocity": 106,
      "chip": "ym2612"
    },
    {
      "channel": 4,
      "note": 54,
      "start": 44.5144,
      "duration": 0.0398,
      "velocity": 120,
      "chip": "ym2612"
    },
    {
      "channel": 4,
      "note": 54,
      "start": 44.5542,
      "duration": 0.0399,
      "velocity": 120,
      "chip": "ym2612"
    },
    {
      "channel": 4,
      "note": 54,
      "start": 44.5941,
      "duration": 0.04,
      "velocity": 120,
      "chip": "ym2612"
    },
    {
      "channel": 4,
      "note": 54,
      "start": 44.6341,
      "duration": 0.0606,
      "velocity": 120,
      "chip": "ym2612"
    },
    {
      "channel": 0,
      "note": 78,
      "start": 44.6946,
      "duration": 0.0383,
      "velocity": 106,
      "chip": "ym2612"
    },
    {
      "channel": 2,
      "note": 78,
      "start": 44.6946,
      "duration": 0.041,
      "velocity": 107,
      "chip": "ym2612"
    },
    {
      "channel": 3,
      "note": 38,
      "start": 44.6947,
      "duration": 0.0018,
      "velocity": 105,
      "chip": "ym2612"
    },
    {
      "channel": 4,
      "note": 54,
      "start": 44.6948,
      "duration": 0.0016,
      "velocity": 120,
      "chip": "ym2612"
    },
    {
      "channel": 4,
      "note": 54,
      "start": 44.6963,
      "duration": 0.0005,
      "velocity": 120,
      "chip": "ym2612"
    },
    {
      "channel": 4,
      "note": 54,
      "start": 44.6968,
      "duration": 0.0014,
      "velocity": 120,
      "chip": "ym2612"
    },
    {
      "channel": 4,
      "note": 54,
      "start": 44.6982,
      "duration": 0.035,
      "velocity": 120,
      "chip": "ym2612"
    },
    {
      "channel": 0,
      "note": 69,
      "start": 44.733,
      "duration": 0.0026,
      "velocity": 106,
      "chip": "ym2612"
    },
    {
      "channel": 3,
      "note": 38,
      "start": 44.7331,
      "duration": 0.0017,
      "velocity": 105,
      "chip": "ym2612"
    },
    {
      "channel": 4,
      "note": 54,
      "start": 44.7332,
      "duration": 0.0007,
      "velocity": 120,
      "chip": "ym2612"
    },
    {
      "channel": 4,
      "note": 54,
      "start": 44.7339,
      "duration": 0.0005,
      "velocity": 120,
      "chip": "ym2612"
    },
    {
      "channel": 4,
      "note": 54,
      "start": 44.7344,
      "duration": 0.0005,
      "velocity": 120,
      "chip": "ym2612"
    },
    {
      "channel": 4,
      "note": 54,
      "start": 44.7348,
      "duration": 0.001,
      "velocity": 120,
      "chip": "ym2612"
    },
    {
      "channel": 0,
      "note": 67,
      "start": 44.7356,
      "duration": 0.0971,
      "velocity": 106,
      "chip": "ym2612"
    },
    {
      "channel": 1,
      "note": 40,
      "start": 44.7357,
      "duration": 0.5268,
      "velocity": 120,
      "chip": "ym2612"
    },
    {
      "channel": 2,
      "note": 79,
      "start": 44.7357,
      "duration": 0.097,
      "velocity": 107,
      "chip": "ym2612"
    },
    {
      "channel": 3,
      "note": 40,
      "start": 44.7358,
      "duration": 0.0024,
      "velocity": 105,
      "chip": "ym2612"
    },
    {
      "channel": 4,
      "note": 55,
      "start": 44.7359,
      "duration": 0.0015,
      "velocity": 120,
      "chip": "ym2612"
    },
    {
      "channel": 4,
      "note": 55,
      "start": 44.7375,
      "duration": 0.0002,
      "velocity": 120,
      "chip": "ym2612"
    },
    {
      "channel": 4,
      "note": 55,
      "start": 44.7377,
      "duration": 0.0003,
      "velocity": 120,
      "chip": "ym2612"
    },
    {
      "channel": 4,
      "note": 55,
      "start": 44.738,
      "duration": 0.0157,
      "velocity": 120,
      "chip": "ym2612"
    },
    {
      "channel": 4,
      "note": 55,
      "start": 44.7537,
      "duration": 0.0402,
      "velocity": 120,
      "chip": "ym2612"
    },
    {
      "channel": 3,
      "note": 40,
      "start": 44.7939,
      "duration": 0.1383,
      "velocity": 105,
      "chip": "ym2612"
    },
    {
      "channel": 4,
      "note": 55,
      "start": 44.7939,
      "duration": 0.0016,
      "velocity": 120,
      "chip": "ym2612"
    },
    {
      "channel": 4,
      "note": 55,
      "start": 44.7955,
      "duration": 0.0005,
      "velocity": 120,
      "chip": "ym2612"
    },
    {
      "channel": 4,
      "note": 55,
      "start": 44.7961,
      "duration": 0.0015,
      "velocity": 120,
      "chip": "ym2612"
    },
    {
      "channel": 4,
      "note": 55,
      "start": 44.7976,
      "duration": 0.0354,
      "velocity": 120,
      "chip": "ym2612"
    },
    {
      "channel": 0,
      "note": 79,
      "start": 44.8327,
      "duration": 0.1598,
      "velocity": 106,
      "chip": "ym2612"
    },
    {
      "channel": 2,
      "note": 86,
      "start": 44.8328,
      "duration": 0.4272,
      "velocity": 107,
      "chip": "ym2612"
    },
    {
      "channel": 4,
      "note": 55,
      "start": 44.833,
      "duration": 0.0395,
      "velocity": 120,
      "chip": "ym2612"
    },
    {
      "channel": 4,
      "note": 55,
      "start": 44.8724,
      "duration": 0.04,
      "velocity": 120,
      "chip": "ym2612"
    },
    {
      "channel": 4,
      "note": 55,
      "start": 44.9124,
      "duration": 0.0399,
      "velocity": 120,
      "chip": "ym2612"
    },
    {
      "channel": 4,
      "note": 55,
      "start": 44.9524,
      "duration": 0.0404,
      "velocity": 120,
      "chip": "ym2612"
    },
    {
      "channel": 0,
      "note": 74,
      "start": 44.9926,
      "duration": 0.0098,
      "velocity": 106,
      "chip": "ym2612"
    },
    {
      "channel": 3,
      "note": 40,
      "start": 44.9927,
      "duration": 0.0496,
      "velocity": 105,
      "chip": "ym2612"
    },
    {
      "channel": 4,
      "note": 55,
      "start": 44.9928,
      "duration": 0.0007,
      "velocity": 120,
      "chip": "ym2612"
    },
    {
      "channel": 4,
      "note": 55,
      "start": 44.9935,
      "duration": 0.0005,
      "velocity": 120,
      "chip": "ym2612"
    },
    {
      "channel": 4,
      "note": 55,
      "start": 44.994,
      "duration": 0.0007,
      "velocity": 120,
      "chip": "ym2612"
    },
    {
      "channel": 4,
      "note": 55,
      "start": 44.9947,
      "duration": 0.0079,
      "velocity": 120,
      "chip": "ym2612"
    },
    {
      "channel": 0,
      "note": 67,
      "start": 45.0025,
      "duration": 0.16,
      "velocity": 106,
      "chip": "ym2612"
    },
    {
      "channel": 4,
      "note": 55,
      "start": 45.0026,
      "duration": 0.0398,
      "velocity": 120,
      "chip": "ym2612"
    },
    {
      "channel": 4,
      "note": 55,
      "start": 45.0424,
      "duration": 0.0399,
      "velocity": 120,
      "chip": "ym2612"
    },
    {
      "channel": 4,
      "note": 55,
      "start": 45.0823,
      "duration": 0.04,
      "velocity": 120,
      "chip": "ym2612"
    },
    {
      "channel": 4,
      "note": 55,
      "start": 45.1223,
      "duration": 0.0405,
      "velocity": 120,
      "chip": "ym2612"
    },
    {
      "channel": 0,
      "note": 79,
      "start": 45.1625,
      "duration": 0.0386,
      "velocity": 106,
      "chip": "ym2612"
    },
    {
      "channel": 3,
      "note": 40,
      "start": 45.1627,
      "duration": 0.0024,
      "velocity": 105,
      "chip": "ym2612"
    },
    {
      "channel": 4,
      "note": 55,
      "start": 45.1627,
      "duration": 0.0015,
      "velocity": 120,
      "chip": "ym2612"
    },
    {
      "channel": 4,
      "note": 55,
      "start": 45.1643,
      "duration": 0.0006,
      "velocity": 120,
      "chip": "ym2612"
    },
    {
      "channel": 4,
      "note": 55,
      "start": 45.1649,
      "duration": 0.0014,
      "velocity": 120,
      "chip": "ym2612"
    },
    {
      "channel": 4,
      "note": 55,
      "start": 45.1663,
      "duration": 0.0351,
      "velocity": 120,
      "chip": "ym2612"
    },
    {
      "channel": 0,
      "note": 74,
      "start": 45.2012,
      "duration": 0.0588,
      "velocity": 106,
      "chip": "ym2612"
    },
    {
      "channel": 3,
      "note": 40,
      "start": 45.2013,
      "duration": 0.0023,
      "velocity": 105,
      "chip": "ym2612"
    },
    {
      "channel": 4,
      "note": 55,
      "start": 45.2014,
      "duration": 0.0015,
      "velocity": 120,
      "chip": "ym2612"
    },
    {
      "channel": 4,
      "note": 55,
      "start": 45.2029,
      "duration": 0.0007,
      "velocity": 120,
      "chip": "ym2612"
    },
    {
      "channel": 4,
      "note": 55,
      "start": 45.2036,
      "duration": 0.016,
      "velocity": 120,
      "chip": "ym2612"
    },
    {
      "channel": 4,
      "note": 55,
      "start": 45.2196,
      "duration": 0.0406,
      "velocity": 120,
      "chip": "ym2612"
    },
    {
      "channel": 0,
      "note": 67,
      "start": 45.2601,
      "duration": 0.0024,
      "velocity": 106,
      "chip": "ym2612"
    },
    {
      "channel": 2,
      "note": 79,
      "start": 45.2601,
      "duration": 0.0024,
      "velocity": 107,
      "chip": "ym2612"
    },
    {
      "channel": 3,
      "note": 40,
      "start": 45.2602,
      "duration": 0.002,
      "velocity": 105,
      "chip": "ym2612"
    },
    {
      "channel": 4,
      "note": 55,
      "start": 45.2602,
      "duration": 0.0007,
      "velocity": 120,
      "chip": "ym2612"
    },
    {
      "channel": 4,
      "note": 55,
      "start": 45.2609,
      "duration": 0.0006,
      "velocity": 120,
      "chip": "ym2612"
    },
    {
      "channel": 4,
      "note": 55,
      "start": 45.2615,
      "duration": 0.0005,
      "velocity": 120,
      "chip": "ym2612"
    },
    {
      "channel": 4,
      "note": 55,
      "start": 45.262,
      "duration": 0.0002,
      "velocity": 120,
      "chip": "ym2612"
    },
    {
      "channel": 4,
      "note": 54,
      "start": 45.2622,
      "duration": 0.0005,
      "velocity": 120,
      "chip": "ym2612"
    },
    {
      "channel": 0,
      "note": 66,
      "start": 45.2625,
      "duration": 0.2059,
      "velocity": 106,
      "chip": "ym2612"
    },
    {
      "channel": 1,
      "note": 42,
      "start": 45.2626,
      "duration": 0.6357,
      "velocity": 120,
      "chip": "ym2612"
    },
    {
      "channel": 2,
      "note": 81,
      "start": 45.2627,
      "duration": 0.0068,
      "velocity": 107,
      "chip": "ym2612"
    },
    {
      "channel": 3,
      "note": 42,
      "start": 45.2627,
      "duration": 0.1491,
      "velocity": 105,
      "chip": "ym2612"
    },
    {
      "channel": 4,
      "note": 54,
      "start": 45.2628,
      "duration": 0.0269,
      "velocity": 120,
      "chip": "ym2612"
    },
    {
      "channel": 2,
      "note": 81,
      "start": 45.2695,
      "duration": 0.1991,
      "velocity": 107,
      "chip": "ym2612"
    },
    {
      "channel": 4,
      "note": 54,
      "start": 45.2897,
      "duration": 0.04,
      "velocity": 120,
      "chip": "ym2612"
    },
    {
      "channel": 4,
      "note": 54,
      "start": 45.3297,
      "duration": 0.04,
      "velocity": 120,
      "chip": "ym2612"
    },
    {
      "channel": 4,
      "note": 54,
      "start": 45.3697,
      "duration": 0.0401,
      "velocity": 120,
      "chip": "ym2612"
    },
    {
      "channel": 4,
      "note": 54,
      "start": 45.4098,
      "duration": 0.0015,
      "velocity": 120,
      "chip": "ym2612"
    },
    {
      "channel": 4,
      "note": 54,
      "start": 45.4113,
      "duration": 0.0006,
      "velocity": 120,
      "chip": "ym2612"
    },
    {
      "channel": 4,
      "note": 54,
      "start": 45.4119,
      "duration": 0.0162,
      "velocity": 120,
      "chip": "ym2612"
    },
    {
      "channel": 4,
      "note": 54,
      "start": 45.4282,
      "duration": 0.0406,
      "velocity": 120,
      "chip": "ym2612"
    },
    {
      "channel": 0,
      "note": 78,
      "start": 45.4685,
      "duration": 0.1598,
      "velocity": 106,
      "chip": "ym2612"
    },
    {
      "channel": 2,
      "note": 86,
      "start": 45.4685,
      "duration": 0.4198,
      "velocity": 107,
      "chip": "ym2612"
    },
    {
      "channel": 3,
      "note": 42,
      "start": 45.4687,
      "duration": 0.1611,
      "velocity": 105,
      "chip": "ym2612"
    },
    {
      "channel": 4,
      "note": 54,
      "start": 45.4688,
      "duration": 0.0395,
      "velocity": 120,
      "chip": "ym2612"
    },
    {
      "channel": 4,
      "note": 54,
      "start": 45.5082,
      "duration": 0.04,
      "velocity": 120,
      "chip": "ym2612"
    },
    {
      "channel": 4,
      "note": 54,
      "start": 45.5482,
      "duration": 0.04,
      "velocity": 120,
      "chip": "ym2612"
    },
    {
      "channel": 4,
      "note": 54,
      "start": 45.5882,
      "duration": 0.0402,
      "velocity": 120,
      "chip": "ym2612"
    },
    {
      "channel": 0,
      "note": 74,
      "start": 45.6284,
      "duration": 0.0024,
      "velocity": 106,
      "chip": "ym2612"
    },
    {
      "channel": 4,
      "note": 54,
      "start": 45.6285,
      "duration": 0.0007,
      "velocity": 120,
      "chip": "ym2612"
    },
    {
      "channel": 4,
      "note": 54,
      "start": 45.6292,
      "duration": 0.0006,
      "velocity": 120,
      "chip": "ym2612"
    },
    {
      "channel": 4,
      "note": 54,
      "start": 45.6298,
      "duration": 0.0004,
      "velocity": 120,
      "chip": "ym2612"
    },
    {
      "channel": 4,
      "note": 54,
      "start": 45.6302,
      "duration": 0.0008,
      "velocity": 120,
      "chip": "ym2612"
    },
    {
      "channel": 0,
      "note": 66,
      "start": 45.6308,
      "duration": 0.0586,
      "velocity": 106,
      "chip": "ym2612"
    },
    {
      "channel": 3,
      "note": 42,
      "start": 45.631,
      "duration": 0.0024,
      "velocity": 105,
      "chip": "ym2612"
    },
    {
      "channel": 4,
      "note": 54,
      "start": 45.631,
      "duration": 0.0018,
      "velocity": 120,
      "chip": "ym2612"
    },
    {
      "channel": 4,
      "note": 54,
      "start": 45.6328,
      "duration": 0.0006,
      "velocity": 120,
      "chip": "ym2612"
    },
    {
      "channel": 4,
      "note": 54,
      "start": 45.6334,
      "duration": 0.0159,
      "velocity": 120,
      "chip": "ym2612"
    },
    {
      "channel": 4,
      "note": 54,
      "start": 45.6493,
      "duration": 0.0405,
      "velocity": 120,
      "chip": "ym2612"
    },
    {
      "channel": 0,
      "note": 78,
      "start": 45.6895,
      "duration": 0.1599,
      "velocity": 106,
      "chip": "ym2612"
    },
    {
      "channel": 3,
      "note": 42,
      "start": 45.6897,
      "duration": 0.0994,
      "velocity": 105,
      "chip": "ym2612"
    },
    {
      "channel": 4,
      "note": 54,
      "start": 45.6898,
      "duration": 0.0396,
      "velocity": 120,
      "chip": "ym2612"
    },
    {
      "channel": 4,
      "note": 54,
      "start": 45.7294,
      "duration": 0.0401,
      "velocity": 120,
      "chip": "ym2612"
    },
    {
      "channel": 4,
      "note": 54,
      "start": 45.7695,
      "duration": 0.0399,
      "velocity": 120,
      "chip": "ym2612"
    },
    {
      "channel": 4,
      "note": 54,
      "start": 45.8093,
      "duration": 0.0404,
      "velocity": 120,
      "chip": "ym2612"
    },
    {
      "channel": 0,
      "note": 74,
      "start": 45.8495,
      "duration": 0.0387,
      "velocity": 106,
      "chip": "ym2612"
    },
    {
      "channel": 3,
      "note": 42,
      "start": 45.8497,
      "duration": 0.0023,
      "velocity": 105,
      "chip": "ym2612"
    },
    {
      "channel": 4,
      "note": 54,
      "start": 45.8497,
      "duration": 0.0016,
      "velocity": 120,
      "chip": "ym2612"
    },
    {
      "channel": 4,
      "note": 54,
      "start": 45.8513,
      "duration": 0.0005,
      "velocity": 120,
      "chip": "ym2612"
    },
    {
      "channel": 4,
      "note": 54,
      "start": 45.8518,
      "duration": 0.0014,
      "velocity": 120,
      "chip": "ym2612"
    },
    {
      "channel": 4,
      "note": 54,
      "start": 45.8532,
      "duration": 0.0354,
      "velocity": 120,
      "chip": "ym2612"
    },
    {
      "channel": 0,
      "note": 66,
      "start": 45.8883,
      "duration": 0.0099,
      "velocity": 106,
      "chip": "ym2612"
    },
    {
      "channel": 2,
      "note": 81,
      "start": 45.8885,
      "duration": 0.0099,
      "velocity": 107,
      "chip": "ym2612"
    },
    {
      "channel": 3,
      "note": 42,
      "start": 45.8885,
      "duration": 0.0019,
      "velocity": 105,
      "chip": "ym2612"
    },
    {
      "channel": 4,
      "note": 54,
      "start": 45.8886,
      "duration": 0.0009,
      "velocity": 120,
      "chip": "ym2612"
    },
    {
      "channel": 4,
      "note": 54,
      "start": 45.8894,
      "duration": 0.0006,
      "velocity": 120,
      "chip": "ym2612"
    },
    {
      "channel": 4,
      "note": 54,
      "start": 45.89,
      "duration": 0.0005,
      "velocity": 120,
      "chip": "ym2612"
    },
    {
      "channel": 4,
      "note": 52,
      "start": 45.8905,
      "duration": 0.008,
      "velocity": 120,
      "chip": "ym2612"
    },
    {
      "channel": 0,
      "note": 64,
      "start": 45.8982,
      "duration": 0.0972,
      "velocity": 106,
      "chip": "ym2612"
    },
    {
      "channel": 1,
      "note": 43,
      "start": 45.8983,
      "duration": 0.5581,
      "velocity": 120,
      "chip": "ym2612"
    },
    {
      "channel": 2,
      "note": 83,
      "start": 45.8983,
      "duration": 0.0972,
      "velocity": 107,
      "chip": "ym2612"
    },
    {
      "channel": 3,
      "note": 43,
      "start": 45.8984,
      "duration": 0.002,
      "velocity": 105,
      "chip": "ym2612"
    },
    {
      "channel": 4,
      "note": 52,
      "start": 45.8985,
      "duration": 0.0015,
      "velocity": 120,
      "chip": "ym2612"
    },
    {
      "channel": 4,
      "note": 52,
      "start": 45.9,
      "duration": 0.0005,
      "velocity": 120,
      "chip": "ym2612"
    },
    {
      "channel": 4,
      "note": 52,
      "start": 45.9005,
      "duration": 0.0014,
      "velocity": 120,
      "chip": "ym2612"
    },
    {
      "channel": 4,
      "note": 52,
      "start": 45.9019,
      "duration": 0.0348,
      "velocity": 120,
      "chip": "ym2612"
    },
    {
      "channel": 3,
      "note": 43,
      "start": 45.9366,
      "duration": 0.0985,
      "velocity": 105,
      "chip": "ym2612"
    },
    {
      "channel": 4,
      "note": 52,
      "start": 45.9367,
      "duration": 0.0016,
      "velocity": 120,
      "chip": "ym2612"
    },
    {
      "channel": 4,
      "note": 52,
      "start": 45.9383,
      "duration": 0.0005,
      "velocity": 120,
      "chip": "ym2612"
    },
    {
      "channel": 4,
      "note": 52,
      "start": 45.9388,
      "duration": 0.0015,
      "velocity": 120,
      "chip": "ym2612"
    },
    {
      "channel": 4,
      "note": 52,
      "start": 45.9403,
      "duration": 0.0554,
      "velocity": 120,
      "chip": "ym2612"
    },
    {
      "channel": 0,
      "note": 76,
      "start": 45.9954,
      "duration": 0.1599,
      "velocity": 106,
      "chip": "ym2612"
    },
    {
      "channel": 2,
      "note": 86,
      "start": 45.9955,
      "duration": 0.1617,
      "velocity": 107,
      "chip": "ym2612"
    },
    {
      "channel": 4,
      "note": 52,
      "start": 45.9956,
      "duration": 0.0396,
      "velocity": 120,
      "chip": "ym2612"
    },
    {
      "channel": 4,
      "note": 52,
      "start": 46.0352,
      "duration": 0.0399,
      "velocity": 120,
      "chip": "ym2612"
    },
    {
      "channel": 4,
      "note": 52,
      "start": 46.0752,
      "duration": 0.04,
      "velocity": 120,
      "chip": "ym2612"
    },
    {
      "channel": 4,
      "note": 52,
      "start": 46.1152,
      "duration": 0.0404,
      "velocity": 120,
      "chip": "ym2612"
    },
    {
      "channel": 0,
      "note": 71,
      "start": 46.1554,
      "duration": 0.0024,
      "velocity": 106,
      "chip": "ym2612"
    },
    {
      "channel": 3,
      "note": 43,
      "start": 46.1555,
      "duration": 0.0495,
      "velocity": 105,
      "chip": "ym2612"
    },
    {
      "channel": 4,
      "note": 52,
      "start": 46.1556,
      "duration": 0.0007,
      "velocity": 120,
      "chip": "ym2612"
    },
    {
      "channel": 4,
      "note": 52,
      "start": 46.1563,
      "duration": 0.0005,
      "velocity": 120,
      "chip": "ym2612"
    },
    {
      "channel": 4,
      "note": 52,
      "start": 46.1568,
      "duration": 0.0005,
      "velocity": 120,
      "chip": "ym2612"
    },
    {
      "channel": 4,
      "note": 52,
      "start": 46.1573,
      "duration": 0.0007,
      "velocity": 120,
      "chip": "ym2612"
    },
    {
      "channel": 0,
      "note": 64,
      "start": 46.1578,
      "duration": 0.1676,
      "velocity": 106,
      "chip": "ym2612"
    },
    {
      "channel": 2,
      "note": 86,
      "start": 46.1579,
      "duration": 0.2063,
      "velocity": 107,
      "chip": "ym2612"
    },
    {
      "channel": 4,
      "note": 52,
      "start": 46.158,
      "duration": 0.0272,
      "velocity": 120,
      "chip": "ym2612"
    },
    {
      "channel": 4,
      "note": 52,
      "start": 46.1853,
      "duration": 0.0399,
      "velocity": 120,
      "chip": "ym2612"
    },
    {
      "channel": 4,
      "note": 52,
      "start": 46.2252,
      "duration": 0.04,
      "velocity": 120,
      "chip": "ym2612"
    },
    {
      "channel": 4,
      "note": 52,
      "start": 46.2652,
      "duration": 0.0605,
      "velocity": 120,
      "chip": "ym2612"
    },
    {
      "channel": 0,
      "note": 76,
      "start": 46.3254,
      "duration": 0.0387,
      "velocity": 106,
      "chip": "ym2612"
    },
    {
      "channel": 3,
      "note": 43,
      "start": 46.3256,
      "duration": 0.0021,
      "velocity": 105,
      "chip": "ym2612"
    },
    {
      "channel": 4,
      "note": 52,
      "start": 46.3256,
      "duration": 0.0016,
      "velocity": 120,
      "chip": "ym2612"
    },
    {
      "channel": 4,
      "note": 52,
      "start": 46.3273,
      "duration": 0.0005,
      "velocity": 120,
      "chip": "ym2612"
    },
    {
      "channel": 4,
      "note": 52,
      "start": 46.3278,
      "duration": 0.0014,
      "velocity": 120,
      "chip": "ym2612"
    },
    {
      "channel": 4,
      "note": 52,
      "start": 46.3292,
      "duration": 0.0353,
      "velocity": 120,
      "chip": "ym2612"
    },
    {
      "channel": 0,
      "note": 71,
      "start": 46.3642,
      "duration": 0.0385,
      "velocity": 106,
      "chip": "ym2612"
    },
    {
      "channel": 2,
      "note": 88,
      "start": 46.3643,
      "duration": 0.0485,
      "velocity": 107,
      "chip": "ym2612"
    },
    {
      "channel": 3,
      "note": 43,
      "start": 46.3644,
      "duration": 0.018,
      "velocity": 105,
      "chip": "ym2612"
    },
    {
      "channel": 4,
      "note": 52,
      "start": 46.3644,
      "duration": 0.0015,
      "velocity": 120,
      "chip": "ym2612"
    },
    {
      "channel": 4,
      "note": 52,
      "start": 46.366,
      "duration": 0.0006,
      "velocity": 120,
      "chip": "ym2612"
    },
    {
      "channel": 4,
      "note": 52,
      "start": 46.3666,
      "duration": 0.0015,
      "velocity": 120,
      "chip": "ym2612"
    },
    {
      "channel": 4,
      "note": 52,
      "start": 46.368,
      "duration": 0.035,
      "velocity": 120,
      "chip": "ym2612"
    },
    {
      "channel": 0,
      "note": 64,
      "start": 46.4028,
      "duration": 0.01,
      "velocity": 106,
      "chip": "ym2612"
    },
    {
      "channel": 3,
      "note": 38,
      "start": 46.4029,
      "duration": 0.01,
      "velocity": 105,
      "chip": "ym2612"
    },
    {
      "channel": 4,
      "note": 52,
      "start": 46.403,
      "duration": 0.0008,
      "velocity": 120,
      "chip": "ym2612"
    },
    {
      "channel": 4,
      "note": 52,
      "start": 46.4037,
      "duration": 0.0006,
      "velocity": 120,
      "chip": "ym2612"
    },
    {
      "channel": 4,
      "note": 52,
      "start": 46.4043,
      "duration": 0.0006,
      "velocity": 120,
      "chip": "ym2612"
    },
    {
      "channel": 4,
      "note": 52,
      "start": 46.4049,
      "duration": 0.0081,
      "velocity": 120,
      "chip": "ym2612"
    },
    {
      "channel": 0,
      "note": 64,
      "start": 46.4128,
      "duration": 0.041,
      "velocity": 106,
      "chip": "ym2612"
    },
    {
      "channel": 2,
      "note": 90,
      "start": 46.4129,
      "duration": 0.041,
      "velocity": 107,
      "chip": "ym2612"
    },
    {
      "channel": 3,
      "note": 43,
      "start": 46.413,
      "duration": 0.0392,
      "velocity": 105,
      "chip": "ym2612"
    },
    {
      "channel": 4,
      "note": 52,
      "start": 46.4131,
      "duration": 0.0016,
      "velocity": 120,
      "chip": "ym2612"
    },
    {
      "channel": 4,
      "note": 52,
      "start": 46.4146,
      "duration": 0.0006,
      "velocity": 120,
      "chip": "ym2612"
    },
    {
      "channel": 4,
      "note": 52,
      "start": 46.4152,
      "duration": 0.0014,
      "velocity": 120,
      "chip": "ym2612"
    },
    {
      "channel": 4,
      "note": 52,
      "start": 46.4166,
      "duration": 0.0346,
      "velocity": 120,
      "chip": "ym2612"
    },
    {
      "channel": 4,
      "note": 52,
      "start": 46.4513,
      "duration": 0.0007,
      "velocity": 120,
      "chip": "ym2612"
    },
    {
      "channel": 4,
      "note": 52,
      "start": 46.452,
      "duration": 0.0004,
      "velocity": 120,
      "chip": "ym2612"
    },
    {
      "channel": 4,
      "note": 52,
      "start": 46.4524,
      "duration": 0.0005,
      "velocity": 120,
      "chip": "ym2612"
    },
    {
      "channel": 4,
      "note": 52,
      "start": 46.4529,
      "duration": 0.0012,
      "velocity": 120,
      "chip": "ym2612"
    },
    {
      "channel": 0,
      "note": 76,
      "start": 46.4539,
      "duration": 0.0586,
      "velocity": 106,
      "chip": "ym2612"
    },
    {
      "channel": 2,
      "note": 91,
      "start": 46.4539,
      "duration": 0.0587,
      "velocity": 107,
      "chip": "ym2612"
    },
    {
      "channel": 3,
      "note": 43,
      "start": 46.4541,
      "duration": 0.0024,
      "velocity": 105,
      "chip": "ym2612"
    },
    {
      "channel": 4,
      "note": 52,
      "start": 46.4541,
      "duration": 0.0015,
      "velocity": 120,
      "chip": "ym2612"
    },
    {
      "channel": 4,
      "note": 52,
      "start": 46.4556,
      "duration": 0.0005,
      "velocity": 120,
      "chip": "ym2612"
    },
    {
      "channel": 4,
      "note": 52,
      "start": 46.4562,
      "duration": 0.016,
      "velocity": 120,
      "chip": "ym2612"
    },
    {
      "channel": 1,
      "note": 43,
      "start": 46.4563,
      "duration": 0.0581,
      "velocity": 120,
      "chip": "ym2612"
    },
    {
      "channel": 4,
      "note": 52,
      "start": 46.4721,
      "duration": 0.0406,
      "velocity": 120,
      "chip": "ym2612"
    },
    {
      "channel": 0,
      "note": 71,
      "start": 46.5125,
      "duration": 0.0024,
      "velocity": 106,
      "chip": "ym2612"
    },
    {
      "channel": 2,
      "note": 90,
      "start": 46.5126,
      "duration": 0.0025,
      "velocity": 107,
      "chip": "ym2612"
    },
    {
      "channel": 3,
      "note": 43,
      "start": 46.5127,
      "duration": 0.001,
      "velocity": 105,
      "chip": "ym2612"
    },
    {
      "channel": 4,
      "note": 52,
      "start": 46.5128,
      "duration": 0.0007,
      "velocity": 120,
      "chip": "ym2612"
    },
    {
      "channel": 4,
      "note": 52,
      "start": 46.5134,
      "duration": 0.0005,
      "velocity": 120,
      "chip": "ym2612"
    },
    {
      "channel": 4,
      "note": 52,
      "start": 46.5139,
      "duration": 0.0005,
      "velocity": 120,
      "chip": "ym2612"
    },
    {
      "channel": 4,
      "note": 52,
      "start": 46.5144,
      "duration": 0.0002,
      "velocity": 120,
      "chip": "ym2612"
    },
    {
      "channel": 4,
      "note": 54,
      "start": 46.5146,
      "duration": 0.0007,
      "velocity": 120,
      "chip": "ym2612"
    },
    {
      "channel": 0,
      "note": 64,
      "start": 46.515,
      "duration": 0.0383,
      "velocity": 106,
      "chip": "ym2612"
    },
    {
      "channel": 1,
      "note": 45,
      "start": 46.5151,
      "duration": 0.0897,
      "velocity": 120,
      "chip": "ym2612"
    },
    {
      "channel": 2,
      "note": 88,
      "start": 46.5151,
      "duration": 0.0402,
      "velocity": 107,
      "chip": "ym2612"
    },
    {
      "channel": 3,
      "note": 45,
      "start": 46.5152,
      "duration": 0.0389,
      "velocity": 105,
      "chip": "ym2612"
    },
    {
      "channel": 4,
      "note": 54,
      "start": 46.5153,
      "duration": 0.0015,
      "velocity": 120,
      "chip": "ym2612"
    },
    {
      "channel": 4,
      "note": 54,
      "start": 46.5168,
      "duration": 0.0005,
      "velocity": 120,
      "chip": "ym2612"
    },
    {
      "channel": 4,
      "note": 54,
      "start": 46.5173,
      "duration": 0.0015,
      "velocity": 120,
      "chip": "ym2612"
    },
    {
      "channel": 4,
      "note": 54,
      "start": 46.5188,
      "duration": 0.0347,
      "velocity": 120,
      "chip": "ym2612"
    },
    {
      "channel": 0,
      "note": 66,
      "start": 46.5533,
      "duration": 0.0103,
      "velocity": 106,
      "chip": "ym2612"
    },
    {
      "channel": 4,
      "note": 54,
      "start": 46.5535,
      "duration": 0.0007,
      "velocity": 120,
      "chip": "ym2612"
    },
    {
      "channel": 4,
      "note": 54,
      "start": 46.5542,
      "duration": 0.0007,
      "velocity": 120,
      "chip": "ym2612"
    },
    {
      "channel": 4,
      "note": 54,
      "start": 46.5549,
      "duration": 0.0005,
      "velocity": 120,
      "chip": "ym2612"
    },
    {
      "channel": 4,
      "note": 54,
      "start": 46.5554,
      "duration": 0.0085,
      "velocity": 120,
      "chip": "ym2612"
    },
    {
      "channel": 0,
      "note": 78,
      "start": 46.5637,
      "duration": 0.0385,
      "velocity": 106,
      "chip": "ym2612"
    },
    {
      "channel": 2,
      "note": 86,
      "start": 46.5637,
      "duration": 0.018,
      "velocity": 107,
      "chip": "ym2612"
    },
    {
      "channel": 3,
      "note": 45,
      "start": 46.5639,
      "duration": 0.002,
      "velocity": 105,
      "chip": "ym2612"
    },
    {
      "channel": 4,
      "note": 54,
      "start": 46.5639,
      "duration": 0.0016,
      "velocity": 120,
      "chip": "ym2612"
    },
    {
      "channel": 4,
      "note": 54,
      "start": 46.5655,
      "duration": 0.0005,
      "velocity": 120,
      "chip": "ym2612"
    },
    {
      "channel": 4,
      "note": 54,
      "start": 46.566,
      "duration": 0.0014,
      "velocity": 120,
      "chip": "ym2612"
    },
    {
      "channel": 4,
      "note": 54,
      "start": 46.5674,
      "duration": 0.0352,
      "velocity": 120,
      "chip": "ym2612"
    },
    {
      "channel": 0,
      "note": 73,
      "start": 46.6023,
      "duration": 0.0025,
      "velocity": 106,
      "chip": "ym2612"
    },
    {
      "channel": 2,
      "note": 85,
      "start": 46.6024,
      "duration": 0.0024,
      "velocity": 107,
      "chip": "ym2612"
    },
    {
      "channel": 3,
      "note": 45,
      "start": 46.6025,
      "duration": 0.0018,
      "velocity": 105,
      "chip": "ym2612"
    },
    {
      "channel": 4,
      "note": 54,
      "start": 46.6025,
      "duration": 0.0007,
      "velocity": 120,
      "chip": "ym2612"
    },
    {
      "channel": 4,
      "note": 54,
      "start": 46.6033,
      "duration": 0.0006,
      "velocity": 120,
      "chip": "ym2612"
    },
    {
      "channel": 4,
      "note": 54,
      "start": 46.6039,
      "duration": 0.0005,
      "velocity": 120,
      "chip": "ym2612"
    },
    {
      "channel": 4,
      "note": 54,
      "start": 46.6044,
      "duration": 0.0007,
      "velocity": 120,
      "chip": "ym2612"
    },
    {
      "channel": 1,
      "note": 47,
      "start": 46.6048,
      "duration": 0.5272,
      "velocity": 120,
      "chip": "ym2612"
    },
    {
      "channel": 2,
      "note": 86,
      "start": 46.6049,
      "duration": 0.137,
      "velocity": 107,
      "chip": "ym2612"
    },
    {
      "channel": 3,
      "note": 47,
      "start": 46.605,
      "duration": 0.0378,
      "velocity": 105,
      "chip": "ym2612"
    },
    {
      "channel": 4,
      "note": 54,
      "start": 46.605,
      "duration": 0.0012,
      "velocity": 120,
      "chip": "ym2612"
    },
    {
      "channel": 4,
      "note": 54,
      "start": 46.6063,
      "duration": 0.0007,
      "velocity": 120,
      "chip": "ym2612"
    },
    {
      "channel": 4,
      "note": 54,
      "start": 46.607,
      "duration": 0.016,
      "velocity": 120,
      "chip": "ym2612"
    },
    {
      "channel": 4,
      "note": 47,
      "start": 46.623,
      "duration": 0.0405,
      "velocity": 120,
      "chip": "ym2612"
    },
    {
      "channel": 0,
      "note": 71,
      "start": 46.6632,
      "duration": 0.0385,
      "velocity": 106,
      "chip": "ym2612"
    },
    {
      "channel": 3,
      "note": 35,
      "start": 46.6634,
      "duration": 0.0785,
      "velocity": 105,
      "chip": "ym2612"
    },
    {
      "channel": 4,
      "note": 47,
      "start": 46.6634,
      "duration": 0.0016,
      "velocity": 120,
      "chip": "ym2612"
    },
    {
      "channel": 4,
      "note": 47,
      "start": 46.665,
      "duration": 0.0005,
      "velocity": 120,
      "chip": "ym2612"
    },
    {
      "channel": 4,
      "note": 47,
      "start": 46.6656,
      "duration": 0.0015,
      "velocity": 120,
      "chip": "ym2612"
    },
    {
      "channel": 4,
      "note": 47,
      "start": 46.6671,
      "duration": 0.0349,
      "velocity": 120,
      "chip": "ym2612"
    },
    {
      "channel": 0,
      "note": 83,
      "start": 46.7019,
      "duration": 0.1604,
      "velocity": 106,
      "chip": "ym2612"
    },
    {
      "channel": 4,
      "note": 47,
      "start": 46.702,
      "duration": 0.04,
      "velocity": 120,
      "chip": "ym2612"
    },
    {
      "channel": 2,
      "note": 86,
      "start": 46.7419,
      "duration": 0.0198,
      "velocity": 107,
      "chip": "ym2612"
    },
    {
      "channel": 4,
      "note": 47,
      "start": 46.7419,
      "duration": 0.0399,
      "velocity": 120,
      "chip": "ym2612"
    },
    {
      "channel": 2,
      "note": 86,
      "start": 46.7617,
      "duration": 0.0201,
      "velocity": 107,
      "chip": "ym2612"
    },
    {
      "channel": 2,
      "note": 86,
      "start": 46.7818,
      "duration": 0.0199,
      "velocity": 107,
      "chip": "ym2612"
    },
    {
      "channel": 4,
      "note": 47,
      "start": 46.7819,
      "duration": 0.0402,
      "velocity": 120,
      "chip": "ym2612"
    },
    {
      "channel": 2,
      "note": 86,
      "start": 46.8017,
      "duration": 0.0203,
      "velocity": 107,
      "chip": "ym2612"
    },
    {
      "channel": 2,
      "note": 86,
      "start": 46.822,
      "duration": 0.0404,
      "velocity": 107,
      "chip": "ym2612"
    },
    {
      "channel": 4,
      "note": 47,
      "start": 46.822,
      "duration": 0.0405,
      "velocity": 120,
      "chip": "ym2612"
    },
    {
      "channel": 0,
      "note": 78,
      "start": 46.8623,
      "duration": 0.0098,
      "velocity": 106,
      "chip": "ym2612"
    },
    {
      "channel": 2,
      "note": 86,
      "start": 46.8624,
      "duration": 0.0006,
      "velocity": 107,
      "chip": "ym2612"
    },
    {
      "channel": 3,
      "note": 35,
      "start": 46.8624,
      "duration": 0.0495,
      "velocity": 105,
      "chip": "ym2612"
    },
    {
      "channel": 4,
      "note": 47,
      "start": 46.8625,
      "duration": 0.001,
      "velocity": 120,
      "chip": "ym2612"
    },
    {
      "channel": 2,
      "note": 86,
      "start": 46.8629,
      "duration": 0.0002,
      "velocity": 107,
      "chip": "ym2612"
    },
    {
      "channel": 2,
      "note": 86,
      "start": 46.8632,
      "duration": 0.0002,
      "velocity": 107,
      "chip": "ym2612"
    },
    {
      "channel": 2,
      "note": 86,
      "start": 46.8634,
      "duration": 0.0004,
      "velocity": 107,
      "chip": "ym2612"
    },
    {
      "channel": 4,
      "note": 47,
      "start": 46.8635,
      "duration": 0.0006,
      "velocity": 120,
      "chip": "ym2612"
    },
    {
      "channel": 2,
      "note": 86,
      "start": 46.8638,
      "duration": 0.0003,
      "velocity": 107,
      "chip": "ym2612"
    },
    {
      "channel": 2,
      "note": 86,
      "start": 46.8641,
      "duration": 0.0003,
      "velocity": 107,
      "chip": "ym2612"
    },
    {
      "channel": 4,
      "note": 47,
      "start": 46.8641,
      "duration": 0.0006,
      "velocity": 120,
      "chip": "ym2612"
    },
    {
      "channel": 2,
      "note": 86,
      "start": 46.8644,
      "duration": 0.0003,
      "velocity": 107,
      "chip": "ym2612"
    },
    {
      "channel": 2,
      "note": 86,
      "start": 46.8646,
      "duration": 0.0003,
      "velocity": 107,
      "chip": "ym2612"
    },
    {
      "channel": 4,
      "note": 47,
      "start": 46.8647,
      "duration": 0.0076,
      "velocity": 120,
      "chip": "ym2612"
    },
    {
      "channel": 2,
      "note": 86,
      "start": 46.8649,
      "duration": 0.0073,
      "velocity": 107,
      "chip": "ym2612"
    },
    {
      "channel": 0,
      "note": 71,
      "start": 46.8722,
      "duration": 0.1599,
      "velocity": 106,
      "chip": "ym2612"
    },
    {
      "channel": 2,
      "note": 86,
      "start": 46.8722,
      "duration": 0.0397,
      "velocity": 107,
      "chip": "ym2612"
    },
    {
      "channel": 4,
      "note": 47,
      "start": 46.8724,
      "duration": 0.0396,
      "velocity": 120,
      "chip": "ym2612"
    },
    {
      "channel": 2,
      "note": 86,
      "start": 46.9119,
      "duration": 0.0199,
      "velocity": 107,
      "chip": "ym2612"
    },
    {
      "channel": 4,
      "note": 47,
      "start": 46.912,
      "duration": 0.04,
      "velocity": 120,
      "chip": "ym2612"
    },
    {
      "channel": 2,
      "note": 86,
      "start": 46.9318,
      "duration": 0.0201,
      "velocity": 107,
      "chip": "ym2612"
    },
    {
      "channel": 2,
      "note": 86,
      "start": 46.9519,
      "duration": 0.0199,
      "velocity": 107,
      "chip": "ym2612"
    },
    {
      "channel": 4,
      "note": 47,
      "start": 46.952,
      "duration": 0.0399,
      "velocity": 120,
      "chip": "ym2612"
    },
    {
      "channel": 2,
      "note": 86,
      "start": 46.9718,
      "duration": 0.02,
      "velocity": 107,
      "chip": "ym2612"
    },
    {
      "channel": 2,
      "note": 86,
      "start": 46.9918,
      "duration": 0.0199,
      "velocity": 107,
      "chip": "ym2612"
    },
    {
      "channel": 4,
      "note": 47,
      "start": 46.9919,
      "duration": 0.0405,
      "velocity": 120,
      "chip": "ym2612"
    },
    {
      "channel": 2,
      "note": 86,
      "start": 47.0117,
      "duration": 0.0205,
      "velocity": 107,
      "chip": "ym2612"
    },
    {
      "channel": 0,
      "note": 83,
      "start": 47.0322,
      "duration": 0.0386,
      "velocity": 106,
      "chip": "ym2612"
    },
    {
      "channel": 2,
      "note": 86,
      "start": 47.0322,
      "duration": 0.0014,
      "velocity": 107,
      "chip": "ym2612"
    },
    {
      "channel": 3,
      "note": 35,
      "start": 47.0324,
      "duration": 0.002,
      "velocity": 105,
      "chip": "ym2612"
    },
    {
      "channel": 4,
      "note": 47,
      "start": 47.0324,
      "duration": 0.0015,
      "velocity": 120,
      "chip": "ym2612"
    },
    {
      "channel": 2,
      "note": 86,
      "start": 47.0336,
      "duration": 0.0002,
      "velocity": 107,
      "chip": "ym2612"
    },
    {
      "channel": 2,
      "note": 86,
      "start": 47.0339,
      "duration": 0.0003,
      "velocity": 107,
      "chip": "ym2612"
    },
    {
      "channel": 4,
      "note": 47,
      "start": 47.0339,
      "duration": 0.0005,
      "velocity": 120,
      "chip": "ym2612"
    },
    {
      "channel": 2,
      "note": 86,
      "start": 47.0342,
      "duration": 0.0002,
      "velocity": 107,
      "chip": "ym2612"
    },
    {
      "channel": 2,
      "note": 86,
      "start": 47.0344,
      "duration": 0.0014,
      "velocity": 107,
      "chip": "ym2612"
    },
    {
      "channel": 4,
      "note": 47,
      "start": 47.0344,
      "duration": 0.0014,
      "velocity": 120,
      "chip": "ym2612"
    },
    {
      "channel": 2,
      "note": 86,
      "start": 47.0358,
      "duration": 0.0145,
      "velocity": 107,
      "chip": "ym2612"
    },
    {
      "channel": 4,
      "note": 47,
      "start": 47.0359,
      "duration": 0.0351,
      "velocity": 120,
      "chip": "ym2612"
    },
    {
      "channel": 2,
      "note": 86,
      "start": 47.0503,
      "duration": 0.0206,
      "velocity": 107,
      "chip": "ym2612"
    },
    {
      "channel": 0,
      "note": 78,
      "start": 47.0708,
      "duration": 0.0586,
      "velocity": 106,
      "chip": "ym2612"
    },
    {
      "channel": 2,
      "note": 86,
      "start": 47.0709,
      "duration": 0.0016,
      "velocity": 107,
      "chip": "ym2612"
    },
    {
      "channel": 3,
      "note": 35,
      "start": 47.071,
      "duration": 0.0381,
      "velocity": 105,
      "chip": "ym2612"
    },
    {
      "channel": 4,
      "note": 47,
      "start": 47.071,
      "duration": 0.0019,
      "velocity": 120,
      "chip": "ym2612"
    },
    {
      "channel": 2,
      "note": 86,
      "start": 47.0725,
      "duration": 0.0575,
      "velocity": 107,
      "chip": "ym2612"
    },
    {
      "channel": 4,
      "note": 47,
      "start": 47.0729,
      "duration": 0.0006,
      "velocity": 120,
      "chip": "ym2612"
    },
    {
      "channel": 4,
      "note": 47,
      "start": 47.0735,
      "duration": 0.0158,
      "velocity": 120,
      "chip": "ym2612"
    },
    {
      "channel": 4,
      "note": 47,
      "start": 47.0893,
      "duration": 0.0404,
      "velocity": 120,
      "chip": "ym2612"
    },
    {
      "channel": 0,
      "note": 71,
      "start": 47.1294,
      "duration": 0.0026,
      "velocity": 106,
      "chip": "ym2612"
    },
    {
      "channel": 3,
      "note": 42,
      "start": 47.1296,
      "duration": 0.0025,
      "velocity": 105,
      "chip": "ym2612"
    },
    {
      "channel": 4,
      "note": 47,
      "start": 47.1297,
      "duration": 0.0007,
      "velocity": 120,
      "chip": "ym2612"
    },
    {
      "channel": 2,
      "note": 86,
      "start": 47.13,
      "duration": 0.0294,
      "velocity": 107,
      "chip": "ym2612"
    },
    {
      "channel": 4,
      "note": 47,
      "start": 47.1304,
      "duration": 0.0005,
      "velocity": 120,
      "chip": "ym2612"
    },
    {
      "channel": 4,
      "note": 47,
      "start": 47.131,
      "duration": 0.0006,
      "velocity": 120,
      "chip": "ym2612"
    },
    {
      "channel": 4,
      "note": 47,
      "start": 47.1316,
      "duration": 0.0003,
      "velocity": 120,
      "chip": "ym2612"
    },
    {
      "channel": 4,
      "note": 55,
      "start": 47.1319,
      "duration": 0.0003,
      "velocity": 120,
      "chip": "ym2612"
    },
    {
      "channel": 0,
      "note": 71,
      "start": 47.132,
      "duration": 0.2059,
      "velocity": 106,
      "chip": "ym2612"
    },
    {
      "channel": 1,
      "note": 43,
      "start": 47.132,
      "duration": 0.6355,
      "velocity": 120,
      "chip": "ym2612"
    },
    {
      "channel": 3,
      "note": 43,
      "start": 47.1322,
      "duration": 0.1695,
      "velocity": 105,
      "chip": "ym2612"
    },
    {
      "channel": 4,
      "note": 55,
      "start": 47.1322,
      "duration": 0.0273,
      "velocity": 120,
      "chip": "ym2612"
    },
    {
      "channel": 2,
      "note": 86,
      "start": 47.1594,
      "duration": 0.0199,
      "velocity": 107,
      "chip": "ym2612"
    },
    {
      "channel": 4,
      "note": 55,
      "start": 47.1595,
      "duration": 0.04,
      "velocity": 120,
      "chip": "ym2612"
    },
    {
      "channel": 2,
      "note": 86,
      "start": 47.1793,
      "duration": 0.0201,
      "velocity": 107,
      "chip": "ym2612"
    },
    {
      "channel": 2,
      "note": 86,
      "start": 47.1994,
      "duration": 0.0199,
      "velocity": 107,
      "chip": "ym2612"
    },
    {
      "channel": 4,
      "note": 55,
      "start": 47.1995,
      "duration": 0.0401,
      "velocity": 120,
      "chip": "ym2612"
    },
    {
      "channel": 2,
      "note": 86,
      "start": 47.2193,
      "duration": 0.0202,
      "velocity": 107,
      "chip": "ym2612"
    },
    {
      "channel": 2,
      "note": 86,
      "start": 47.2395,
      "duration": 0.238,
      "velocity": 107,
      "chip": "ym2612"
    },
    {
      "channel": 4,
      "note": 55,
      "start": 47.2396,
      "duration": 0.0598,
      "velocity": 120,
      "chip": "ym2612"
    },
    {
      "channel": 4,
      "note": 55,
      "start": 47.2994,
      "duration": 0.0016,
      "velocity": 120,
      "chip": "ym2612"
    },
    {
      "channel": 4,
      "note": 55,
      "start": 47.301,
      "duration": 0.0005,
      "velocity": 120,
      "chip": "ym2612"
    },
    {
      "channel": 4,
      "note": 55,
      "start": 47.3015,
      "duration": 0.0014,
      "velocity": 120,
      "chip": "ym2612"
    },
    {
      "channel": 4,
      "note": 55,
      "start": 47.3028,
      "duration": 0.0353,
      "velocity": 120,
      "chip": "ym2612"
    },
    {
      "channel": 0,
      "note": 83,
      "start": 47.338,
      "duration": 0.16,
      "velocity": 106,
      "chip": "ym2612"
    },
    {
      "channel": 3,
      "note": 43,
      "start": 47.3381,
      "duration": 0.1614,
      "velocity": 105,
      "chip": "ym2612"
    },
    {
      "channel": 4,
      "note": 55,
      "start": 47.3382,
      "duration": 0.0397,
      "velocity": 120,
      "chip": "ym2612"
    },
    {
      "channel": 4,
      "note": 55,
      "start": 47.3778,
      "duration": 0.04,
      "velocity": 120,
      "chip": "ym2612"
    },
    {
      "channel": 4,
      "note": 55,
      "start": 47.4178,
      "duration": 0.04,
      "velocity": 120,
      "chip": "ym2612"
    },
    {
      "channel": 4,
      "note": 55,
      "start": 47.4578,
      "duration": 0.0405,
      "velocity": 120,
      "chip": "ym2612"
    },
    {
      "channel": 0,
      "note": 78,
      "start": 47.4981,
      "duration": 0.01,
      "velocity": 106,
      "chip": "ym2612"
    },
    {
      "channel": 2,
      "note": 85,
      "start": 47.4982,
      "duration": 0.01,
      "velocity": 107,
      "chip": "ym2612"
    },
    {
      "channel": 4,
      "note": 55,
      "start": 47.4983,
      "duration": 0.0007,
      "velocity": 120,
      "chip": "ym2612"
    },
    {
      "channel": 4,
      "note": 55,
      "start": 47.499,
      "duration": 0.0006,
      "velocity": 120,
      "chip": "ym2612"
    },
    {
      "channel": 4,
      "note": 55,
      "start": 47.4996,
      "duration": 0.0005,
      "velocity": 120,
      "chip": "ym2612"
    },
    {
      "channel": 4,
      "note": 55,
      "start": 47.5,
      "duration": 0.0083,
      "velocity": 120,
      "chip": "ym2612"
    },
    {
      "channel": 0,
      "note": 71,
      "start": 47.5081,
      "duration": 0.16,
      "velocity": 106,
      "chip": "ym2612"
    },
    {
      "channel": 2,
      "note": 83,
      "start": 47.5082,
      "duration": 0.1987,
      "velocity": 107,
      "chip": "ym2612"
    },
    {
      "channel": 3,
      "note": 43,
      "start": 47.5083,
      "duration": 0.0795,
      "velocity": 105,
      "chip": "ym2612"
    },
    {
      "channel": 4,
      "note": 55,
      "start": 47.5084,
      "duration": 0.0395,
      "velocity": 120,
      "chip": "ym2612"
    },
    {
      "channel": 4,
      "note": 55,
      "start": 47.5479,
      "duration": 0.04,
      "velocity": 120,
      "chip": "ym2612"
    },
    {
      "channel": 4,
      "note": 55,
      "start": 47.5879,
      "duration": 0.0399,
      "velocity": 120,
      "chip": "ym2612"
    },
    {
      "channel": 4,
      "note": 55,
      "start": 47.6278,
      "duration": 0.0405,
      "velocity": 120,
      "chip": "ym2612"
    },
    {
      "channel": 0,
      "note": 83,
      "start": 47.6681,
      "duration": 0.0387,
      "velocity": 106,
      "chip": "ym2612"
    },
    {
      "channel": 3,
      "note": 43,
      "start": 47.6682,
      "duration": 0.0024,
      "velocity": 105,
      "chip": "ym2612"
    },
    {
      "channel": 4,
      "note": 55,
      "start": 47.6683,
      "duration": 0.0016,
      "velocity": 120,
      "chip": "ym2612"
    },
    {
      "channel": 4,
      "note": 55,
      "start": 47.6699,
      "duration": 0.0006,
      "velocity": 120,
      "chip": "ym2612"
    },
    {
      "channel": 4,
      "note": 55,
      "start": 47.6705,
      "duration": 0.0014,
      "velocity": 120,
      "chip": "ym2612"
    },
    {
      "channel": 4,
      "note": 55,
      "start": 47.6719,
      "duration": 0.0353,
      "velocity": 120,
      "chip": "ym2612"
    },
    {
      "channel": 0,
      "note": 78,
      "start": 47.7069,
      "duration": 0.0585,
      "velocity": 106,
      "chip": "ym2612"
    },
    {
      "channel": 2,
      "note": 86,
      "start": 47.707,
      "duration": 0.0606,
      "velocity": 107,
      "chip": "ym2612"
    },
    {
      "channel": 3,
      "note": 43,
      "start": 47.7071,
      "duration": 0.002,
      "velocity": 105,
      "chip": "ym2612"
    },
    {
      "channel": 4,
      "note": 55,
      "start": 47.7071,
      "duration": 0.0015,
      "velocity": 120,
      "chip": "ym2612"
    },
    {
      "channel": 4,
      "note": 55,
      "start": 47.7087,
      "duration": 0.0005,
      "velocity": 120,
      "chip": "ym2612"
    },
    {
      "channel": 4,
      "note": 55,
      "start": 47.7092,
      "duration": 0.016,
      "velocity": 120,
      "chip": "ym2612"
    },
    {
      "channel": 4,
      "note": 55,
      "start": 47.7252,
      "duration": 0.0405,
      "velocity": 120,
      "chip": "ym2612"
    },
    {
      "channel": 0,
      "note": 71,
      "start": 47.7654,
      "duration": 0.0027,
      "velocity": 106,
      "chip": "ym2612"
    },
    {
      "channel": 3,
      "note": 43,
      "start": 47.7656,
      "duration": 0.0018,
      "velocity": 105,
      "chip": "ym2612"
    },
    {
      "channel": 4,
      "note": 55,
      "start": 47.7656,
      "duration": 0.0007,
      "velocity": 120,
      "chip": "ym2612"
    },
    {
      "channel": 4,
      "note": 55,
      "start": 47.7663,
      "duration": 0.0005,
      "velocity": 120,
      "chip": "ym2612"
    },
    {
      "channel": 4,
      "note": 55,
      "start": 47.7668,
      "duration": 0.0005,
      "velocity": 120,
      "chip": "ym2612"
    },
    {
      "channel": 4,
      "note": 55,
      "start": 47.7674,
      "duration": 0.0002,
      "velocity": 120,
      "chip": "ym2612"
    },
    {
      "channel": 4,
      "note": 57,
      "start": 47.7676,
      "duration": 0.0008,
      "velocity": 120,
      "chip": "ym2612"
    },
    {
      "channel": 0,
      "note": 69,
      "start": 47.7682,
      "duration": 0.0968,
      "velocity": 106,
      "chip": "ym2612"
    },
    {
      "channel": 1,
      "note": 45,
      "start": 47.7683,
      "duration": 0.7153,
      "velocity": 120,
      "chip": "ym2612"
    },
    {
      "channel": 2,
      "note": 85,
      "start": 47.7683,
      "duration": 0.7153,
      "velocity": 107,
      "chip": "ym2612"
    },
    {
      "channel": 3,
      "note": 45,
      "start": 47.7684,
      "duration": 0.0024,
      "velocity": 105,
      "chip": "ym2612"
    },
    {
      "channel": 4,
      "note": 57,
      "start": 47.7684,
      "duration": 0.0013,
      "velocity": 120,
      "chip": "ym2612"
    },
    {
      "channel": 4,
      "note": 57,
      "start": 47.7698,
      "duration": 0.0003,
      "velocity": 120,
      "chip": "ym2612"
    },
    {
      "channel": 4,
      "note": 57,
      "start": 47.77,
      "duration": 0.0005,
      "velocity": 120,
      "chip": "ym2612"
    },
    {
      "channel": 4,
      "note": 57,
      "start": 47.7705,
      "duration": 0.0014,
      "velocity": 120,
      "chip": "ym2612"
    },
    {
      "channel": 4,
      "note": 57,
      "start": 47.7719,
      "duration": 0.0346,
      "velocity": 120,
      "chip": "ym2612"
    },
    {
      "channel": 3,
      "note": 45,
      "start": 47.8064,
      "duration": 0.1183,
      "velocity": 105,
      "chip": "ym2612"
    },
    {
      "channel": 4,
      "note": 57,
      "start": 47.8065,
      "duration": 0.0016,
      "velocity": 120,
      "chip": "ym2612"
    },
    {
      "channel": 4,
      "note": 57,
      "start": 47.808,
      "duration": 0.0005,
      "velocity": 120,
      "chip": "ym2612"
    },
    {
      "channel": 4,
      "note": 57,
      "start": 47.8086,
      "duration": 0.0164,
      "velocity": 120,
      "chip": "ym2612"
    },
    {
      "channel": 4,
      "note": 57,
      "start": 47.825,
      "duration": 0.0402,
      "velocity": 120,
      "chip": "ym2612"
    },
    {
      "channel": 0,
      "note": 81,
      "start": 47.8651,
      "duration": 0.16,
      "velocity": 106,
      "chip": "ym2612"
    },
    {
      "channel": 4,
      "note": 57,
      "start": 47.8652,
      "duration": 0.0398,
      "velocity": 120,
      "chip": "ym2612"
    },
    {
      "channel": 4,
      "note": 57,
      "start": 47.905,
      "duration": 0.0399,
      "velocity": 120,
      "chip": "ym2612"
    },
    {
      "channel": 4,
      "note": 57,
      "start": 47.9449,
      "duration": 0.04,
      "velocity": 120,
      "chip": "ym2612"
    },
    {
      "channel": 4,
      "note": 57,
      "start": 47.9849,
      "duration": 0.0405,
      "velocity": 120,
      "chip": "ym2612"
    },
    {
      "channel": 0,
      "note": 76,
      "start": 48.0251,
      "duration": 0.0025,
      "velocity": 106,
      "chip": "ym2612"
    },
    {
      "channel": 3,
      "note": 45,
      "start": 48.0253,
      "duration": 0.0898,
      "velocity": 105,
      "chip": "ym2612"
    },
    {
      "channel": 4,
      "note": 57,
      "start": 48.0254,
      "duration": 0.0007,
      "velocity": 120,
      "chip": "ym2612"
    },
    {
      "channel": 4,
      "note": 57,
      "start": 48.0261,
      "duration": 0.0006,
      "velocity": 120,
      "chip": "ym2612"
    },
    {
      "channel": 4,
      "note": 57,
      "start": 48.0267,
      "duration": 0.0005,
      "velocity": 120,
      "chip": "ym2612"
    },
    {
      "channel": 4,
      "note": 57,
      "start": 48.0272,
      "duration": 0.0007,
      "velocity": 120,
      "chip": "ym2612"
    },
    {
      "channel": 0,
      "note": 69,
      "start": 48.0277,
      "duration": 0.1675,
      "velocity": 106,
      "chip": "ym2612"
    },
    {
      "channel": 4,
      "note": 57,
      "start": 48.0279,
      "duration": 0.0272,
      "velocity": 120,
      "chip": "ym2612"
    },
    {
      "channel": 4,
      "note": 57,
      "start": 48.0551,
      "duration": 0.06,
      "velocity": 120,
      "chip": "ym2612"
    },
    {
      "channel": 4,
      "note": 57,
      "start": 48.1151,
      "duration": 0.0399,
      "velocity": 120,
      "chip": "ym2612"
    },
    {
      "channel": 4,
      "note": 57,
      "start": 48.1551,
      "duration": 0.0405,
      "velocity": 120,
      "chip": "ym2612"
    },
    {
      "channel": 0,
      "note": 81,
      "start": 48.1953,
      "duration": 0.0385,
      "velocity": 106,
      "chip": "ym2612"
    },
    {
      "channel": 3,
      "note": 45,
      "start": 48.1954,
      "duration": 0.0024,
      "velocity": 105,
      "chip": "ym2612"
    },
    {
      "channel": 4,
      "note": 57,
      "start": 48.1955,
      "duration": 0.0016,
      "velocity": 120,
      "chip": "ym2612"
    },
    {
      "channel": 4,
      "note": 57,
      "start": 48.1971,
      "duration": 0.0006,
      "velocity": 120,
      "chip": "ym2612"
    },
    {
      "channel": 4,
      "note": 57,
      "start": 48.1977,
      "duration": 0.0013,
      "velocity": 120,
      "chip": "ym2612"
    },
    {
      "channel": 4,
      "note": 57,
      "start": 48.199,
      "duration": 0.0351,
      "velocity": 120,
      "chip": "ym2612"
    },
    {
      "channel": 0,
      "note": 76,
      "start": 48.2339,
      "duration": 0.0385,
      "velocity": 106,
      "chip": "ym2612"
    },
    {
      "channel": 3,
      "note": 45,
      "start": 48.234,
      "duration": 0.002,
      "velocity": 105,
      "chip": "ym2612"
    },
    {
      "channel": 4,
      "note": 57,
      "start": 48.2341,
      "duration": 0.0015,
      "velocity": 120,
      "chip": "ym2612"
    },
    {
      "channel": 4,
      "note": 57,
      "start": 48.2356,
      "duration": 0.0005,
      "velocity": 120,
      "chip": "ym2612"
    },
    {
      "channel": 4,
      "note": 57,
      "start": 48.2361,
      "duration": 0.0014,
      "velocity": 120,
      "chip": "ym2612"
    },
    {
      "channel": 4,
      "note": 57,
      "start": 48.2376,
      "duration": 0.0351,
      "velocity": 120,
      "chip": "ym2612"
    },
    {
      "channel": 0,
      "note": 69,
      "start": 48.2725,
      "duration": 0.0099,
      "velocity": 106,
      "chip": "ym2612"
    },
    {
      "channel": 3,
      "note": 45,
      "start": 48.2726,
      "duration": 0.001,
      "velocity": 105,
      "chip": "ym2612"
    },
    {
      "channel": 4,
      "note": 57,
      "start": 48.2727,
      "duration": 0.0007,
      "velocity": 120,
      "chip": "ym2612"
    },
    {
      "channel": 4,
      "note": 57,
      "start": 48.2734,
      "duration": 0.0007,
      "velocity": 120,
      "chip": "ym2612"
    },
    {
      "channel": 4,
      "note": 57,
      "start": 48.2741,
      "duration": 0.0005,
      "velocity": 120,
      "chip": "ym2612"
    },
    {
      "channel": 4,
      "note": 57,
      "start": 48.2746,
      "duration": 0.0081,
      "velocity": 120,
      "chip": "ym2612"
    },
    {
      "channel": 0,
      "note": 69,
      "start": 48.2825,
      "duration": 0.1986,
      "velocity": 106,
      "chip": "ym2612"
    },
    {
      "channel": 3,
      "note": 45,
      "start": 48.2826,
      "duration": 0.1613,
      "velocity": 105,
      "chip": "ym2612"
    },
    {
      "channel": 4,
      "note": 57,
      "start": 48.2827,
      "duration": 0.0397,
      "velocity": 120,
      "chip": "ym2612"
    },
    {
      "channel": 4,
      "note": 57,
      "start": 48.3223,
      "duration": 0.04,
      "velocity": 120,
      "chip": "ym2612"
    },
    {
      "channel": 4,
      "note": 57,
      "start": 48.3623,
      "duration": 0.04,
      "velocity": 120,
      "chip": "ym2612"
    },
    {
      "channel": 4,
      "note": 57,
      "start": 48.4023,
      "duration": 0.0401,
      "velocity": 120,
      "chip": "ym2612"
    },
    {
      "channel": 4,
      "note": 57,
      "start": 48.4424,
      "duration": 0.0015,
      "velocity": 120,
      "chip": "ym2612"
    },
    {
      "channel": 4,
      "note": 57,
      "start": 48.4439,
      "duration": 0.0005,
      "velocity": 120,
      "chip": "ym2612"
    },
    {
      "channel": 4,
      "note": 57,
      "start": 48.4444,
      "duration": 0.0014,
      "velocity": 120,
      "chip": "ym2612"
    },
    {
      "channel": 4,
      "note": 57,
      "start": 48.4458,
      "duration": 0.0355,
      "velocity": 120,
      "chip": "ym2612"
    },
    {
      "channel": 0,
      "note": 81,
      "start": 48.4811,
      "duration": 0.0588,
      "velocity": 106,
      "chip": "ym2612"
    },
    {
      "channel": 3,
      "note": 45,
      "start": 48.4813,
      "duration": 0.0589,
      "velocity": 105,
      "chip": "ym2612"
    },
    {
      "channel": 4,
      "note": 57,
      "start": 48.4813,
      "duration": 0.0018,
      "velocity": 120,
      "chip": "ym2612"
    },
    {
      "channel": 4,
      "note": 57,
      "start": 48.4831,
      "duration": 0.0005,
      "velocity": 120,
      "chip": "ym2612"
    },
    {
      "channel": 1,
      "note": 45,
      "start": 48.4836,
      "duration": 0.0588,
      "velocity": 120,
      "chip": "ym2612"
    },
    {
      "channel": 2,
      "note": 85,
      "start": 48.4836,
      "duration": 0.0565,
      "velocity": 107,
      "chip": "ym2612"
    },
    {
      "channel": 4,
      "note": 57,
      "start": 48.4837,
      "duration": 0.0159,
      "velocity": 120,
      "chip": "ym2612"
    },
    {
      "channel": 4,
      "note": 57,
      "start": 48.4996,
      "duration": 0.0407,
      "velocity": 120,
      "chip": "ym2612"
    },
    {
      "channel": 0,
      "note": 78,
      "start": 48.54,
      "duration": 0.0022,
      "velocity": 106,
      "chip": "ym2612"
    },
    {
      "channel": 2,
      "note": 83,
      "start": 48.5401,
      "duration": 0.0023,
      "velocity": 107,
      "chip": "ym2612"
    },
    {
      "channel": 3,
      "note": 43,
      "start": 48.5402,
      "duration": 0.0019,
      "velocity": 105,
      "chip": "ym2612"
    },
    {
      "channel": 4,
      "note": 57,
      "start": 48.5403,
      "duration": 0.0007,
      "velocity": 120,
      "chip": "ym2612"
    },
    {
      "channel": 4,
      "note": 57,
      "start": 48.5409,
      "duration": 0.0006,
      "velocity": 120,
      "chip": "ym2612"
    },
    {
      "channel": 4,
      "note": 57,
      "start": 48.5415,
      "duration": 0.0002,
      "velocity": 120,
      "chip": "ym2612"
    },
    {
      "channel": 4,
      "note": 54,
      "start": 48.5422,
      "duration": 0.0004,
      "velocity": 120,
      "chip": "ym2612"
    },
    {
      "channel": 0,
      "note": 69,
      "start": 48.5422,
      "duration": 0.0383,
      "velocity": 106,
      "chip": "ym2612"
    },
    {
      "channel": 1,
      "note": 42,
      "start": 48.5423,
      "duration": 0.2671,
      "velocity": 120,
      "chip": "ym2612"
    },
    {
      "channel": 2,
      "note": 81,
      "start": 48.5424,
      "duration": 0.178,
      "velocity": 107,
      "chip": "ym2612"
    },
    {
      "channel": 3,
      "note": 42,
      "start": 48.5425,
      "duration": 0.138,
      "velocity": 105,
      "chip": "ym2612"
    },
    {
      "channel": 4,
      "note": 54,
      "start": 48.5426,
      "duration": 0.0015,
      "velocity": 120,
      "chip": "ym2612"
    },
    {
      "channel": 4,
      "note": 54,
      "start": 48.5441,
      "duration": 0.0005,
      "velocity": 120,
      "chip": "ym2612"
    },
    {
      "channel": 4,
      "note": 54,
      "start": 48.5446,
      "duration": 0.0014,
      "velocity": 120,
      "chip": "ym2612"
    },
    {
      "channel": 4,
      "note": 54,
      "start": 48.546,
      "duration": 0.0348,
      "velocity": 120,
      "chip": "ym2612"
    },
    {
      "channel": 0,
      "note": 81,
      "start": 48.5807,
      "duration": 0.1802,
      "velocity": 106,
      "chip": "ym2612"
    },
    {
      "channel": 4,
      "note": 54,
      "start": 48.5808,
      "duration": 0.0598,
      "velocity": 120,
      "chip": "ym2612"
    },
    {
      "channel": 4,
      "note": 54,
      "start": 48.6405,
      "duration": 0.04,
      "velocity": 120,
      "chip": "ym2612"
    },
    {
      "channel": 4,
      "note": 54,
      "start": 48.6805,
      "duration": 0.0399,
      "velocity": 120,
      "chip": "ym2612"
    },
    {
      "channel": 4,
      "note": 54,
      "start": 48.7205,
      "duration": 0.0406,
      "velocity": 120,
      "chip": "ym2612"
    },
    {
      "channel": 0,
      "note": 78,
      "start": 48.7609,
      "duration": 0.0384,
      "velocity": 106,
      "chip": "ym2612"
    },
    {
      "channel": 2,
      "note": 79,
      "start": 48.761,
      "duration": 0.0385,
      "velocity": 107,
      "chip": "ym2612"
    },
    {
      "channel": 3,
      "note": 42,
      "start": 48.761,
      "duration": 0.002,
      "velocity": 105,
      "chip": "ym2612"
    },
    {
      "channel": 4,
      "note": 54,
      "start": 48.7611,
      "duration": 0.0016,
      "velocity": 120,
      "chip": "ym2612"
    },
    {
      "channel": 4,
      "note": 54,
      "start": 48.7627,
      "duration": 0.0005,
      "velocity": 120,
      "chip": "ym2612"
    },
    {
      "channel": 4,
      "note": 54,
      "start": 48.7631,
      "duration": 0.0014,
      "velocity": 120,
      "chip": "ym2612"
    },
    {
      "channel": 4,
      "note": 54,
      "start": 48.7646,
      "duration": 0.0351,
      "velocity": 120,
      "chip": "ym2612"
    },
    {
      "channel": 0,
      "note": 69,
      "start": 48.7994,
      "duration": 0.01,
      "velocity": 106,
      "chip": "ym2612"
    },
    {
      "channel": 2,
      "note": 78,
      "start": 48.7995,
      "duration": 0.01,
      "velocity": 107,
      "chip": "ym2612"
    },
    {
      "channel": 3,
      "note": 42,
      "start": 48.7996,
      "duration": 0.0021,
      "velocity": 105,
      "chip": "ym2612"
    },
    {
      "channel": 4,
      "note": 54,
      "start": 48.7997,
      "duration": 0.0007,
      "velocity": 120,
      "chip": "ym2612"
    },
    {
      "channel": 4,
      "note": 54,
      "start": 48.8004,
      "duration": 0.0006,
      "velocity": 120,
      "chip": "ym2612"
    },
    {
      "channel": 4,
      "note": 54,
      "start": 48.801,
      "duration": 0.0005,
      "velocity": 120,
      "chip": "ym2612"
    },
    {
      "channel": 4,
      "note": 54,
      "start": 48.8015,
      "duration": 0.0002,
      "velocity": 120,
      "chip": "ym2612"
    },
    {
      "channel": 4,
      "note": 55,
      "start": 48.8017,
      "duration": 0.008,
      "velocity": 120,
      "chip": "ym2612"
    },
    {
      "channel": 0,
      "note": 67,
      "start": 48.8095,
      "duration": 0.0771,
      "velocity": 106,
      "chip": "ym2612"
    },
    {
      "channel": 1,
      "note": 43,
      "start": 48.8095,
      "duration": 0.5064,
      "velocity": 120,
      "chip": "ym2612"
    },
    {
      "channel": 2,
      "note": 79,
      "start": 48.8096,
      "duration": 0.0771,
      "velocity": 107,
      "chip": "ym2612"
    },
    {
      "channel": 3,
      "note": 43,
      "start": 48.8096,
      "duration": 0.0021,
      "velocity": 105,
      "chip": "ym2612"
    },
    {
      "channel": 4,
      "note": 55,
      "start": 48.8097,
      "duration": 0.0016,
      "velocity": 120,
      "chip": "ym2612"
    },
    {
      "channel": 4,
      "note": 55,
      "start": 48.8113,
      "duration": 0.0005,
      "velocity": 120,
      "chip": "ym2612"
    },
    {
      "channel": 4,
      "note": 55,
      "start": 48.8118,
      "duration": 0.0014,
      "velocity": 120,
      "chip": "ym2612"
    },
    {
      "channel": 4,
      "note": 55,
      "start": 48.8132,
      "duration": 0.0347,
      "velocity": 120,
      "chip": "ym2612"
    },
    {
      "channel": 3,
      "note": 43,
      "start": 48.8478,
      "duration": 0.1184,
      "velocity": 105,
      "chip": "ym2612"
    },
    {
      "channel": 4,
      "note": 55,
      "start": 48.8479,
      "duration": 0.0015,
      "velocity": 120,
      "chip": "ym2612"
    },
    {
      "channel": 4,
      "note": 55,
      "start": 48.8494,
      "duration": 0.0005,
      "velocity": 120,
      "chip": "ym2612"
    },
    {
      "channel": 4,
      "note": 55,
      "start": 48.8499,
      "duration": 0.0015,
      "velocity": 120,
      "chip": "ym2612"
    },
    {
      "channel": 4,
      "note": 55,
      "start": 48.8515,
      "duration": 0.0354,
      "velocity": 120,
      "chip": "ym2612"
    },
    {
      "channel": 0,
      "note": 79,
      "start": 48.8867,
      "duration": 0.1798,
      "velocity": 106,
      "chip": "ym2612"
    },
    {
      "channel": 2,
      "note": 86,
      "start": 48.8867,
      "duration": 0.4298,
      "velocity": 107,
      "chip": "ym2612"
    },
    {
      "channel": 4,
      "note": 55,
      "start": 48.8869,
      "duration": 0.0395,
      "velocity": 120,
      "chip": "ym2612"
    },
    {
      "channel": 4,
      "note": 55,
      "start": 48.9263,
      "duration": 0.04,
      "velocity": 120,
      "chip": "ym2612"
    },
    {
      "channel": 4,
      "note": 55,
      "start": 48.9663,
      "duration": 0.0399,
      "velocity": 120,
      "chip": "ym2612"
    },
    {
      "channel": 4,
      "note": 55,
      "start": 49.0063,
      "duration": 0.0604,
      "velocity": 120,
      "chip": "ym2612"
    },
    {
      "channel": 0,
      "note": 74,
      "start": 49.0665,
      "duration": 0.0023,
      "velocity": 106,
      "chip": "ym2612"
    },
    {
      "channel": 3,
      "note": 43,
      "start": 49.0666,
      "duration": 0.0296,
      "velocity": 105,
      "chip": "ym2612"
    },
    {
      "channel": 4,
      "note": 55,
      "start": 49.0667,
      "duration": 0.0007,
      "velocity": 120,
      "chip": "ym2612"
    },
    {
      "channel": 4,
      "note": 55,
      "start": 49.0674,
      "duration": 0.0005,
      "velocity": 120,
      "chip": "ym2612"
    },
    {
      "channel": 4,
      "note": 55,
      "start": 49.0679,
      "duration": 0.0005,
      "velocity": 120,
      "chip": "ym2612"
    },
    {
      "channel": 4,
      "note": 55,
      "start": 49.0684,
      "duration": 0.0006,
      "velocity": 120,
      "chip": "ym2612"
    },
    {
      "channel": 0,
      "note": 67,
      "start": 49.0688,
      "duration": 0.1476,
      "velocity": 106,
      "chip": "ym2612"
    },
    {
      "channel": 4,
      "note": 55,
      "start": 49.069,
      "duration": 0.0273,
      "velocity": 120,
      "chip": "ym2612"
    },
    {
      "channel": 4,
      "note": 55,
      "start": 49.0963,
      "duration": 0.0399,
      "velocity": 120,
      "chip": "ym2612"
    },
    {
      "channel": 4,
      "note": 55,
      "start": 49.1362,
      "duration": 0.04,
      "velocity": 120,
      "chip": "ym2612"
    },
    {
      "channel": 4,
      "note": 55,
      "start": 49.1762,
      "duration": 0.0405,
      "velocity": 120,
      "chip": "ym2612"
    },
    {
      "channel": 0,
      "note": 79,
      "start": 49.2165,
      "duration": 0.0586,
      "velocity": 106,
      "chip": "ym2612"
    },
    {
      "channel": 3,
      "note": 43,
      "start": 49.2166,
      "duration": 0.002,
      "velocity": 105,
      "chip": "ym2612"
    },
    {
      "channel": 4,
      "note": 55,
      "start": 49.2167,
      "duration": 0.0015,
      "velocity": 120,
      "chip": "ym2612"
    },
    {
      "channel": 4,
      "note": 55,
      "start": 49.2182,
      "duration": 0.0005,
      "velocity": 120,
      "chip": "ym2612"
    },
    {
      "channel": 4,
      "note": 55,
      "start": 49.2187,
      "duration": 0.0162,
      "velocity": 120,
      "chip": "ym2612"
    },
    {
      "channel": 4,
      "note": 55,
      "start": 49.2349,
      "duration": 0.0404,
      "velocity": 120,
      "chip": "ym2612"
    },
    {
      "channel": 0,
      "note": 74,
      "start": 49.2751,
      "duration": 0.0386,
      "velocity": 106,
      "chip": "ym2612"
    },
    {
      "channel": 3,
      "note": 43,
      "start": 49.2753,
      "duration": 0.0182,
      "velocity": 105,
      "chip": "ym2612"
    },
    {
      "channel": 4,
      "note": 55,
      "start": 49.2753,
      "duration": 0.0016,
      "velocity": 120,
      "chip": "ym2612"
    },
    {
      "channel": 4,
      "note": 55,
      "start": 49.2769,
      "duration": 0.0005,
      "velocity": 120,
      "chip": "ym2612"
    },
    {
      "channel": 4,
      "note": 55,
      "start": 49.2774,
      "duration": 0.0015,
      "velocity": 120,
      "chip": "ym2612"
    },
    {
      "channel": 4,
      "note": 55,
      "start": 49.2789,
      "duration": 0.0351,
      "velocity": 120,
      "chip": "ym2612"
    },
    {
      "channel": 0,
      "note": 67,
      "start": 49.3138,
      "duration": 0.0026,
      "velocity": 106,
      "chip": "ym2612"
    },
    {
      "channel": 3,
      "note": 43,
      "start": 49.314,
      "duration": 0.0015,
      "velocity": 105,
      "chip": "ym2612"
    },
    {
      "channel": 4,
      "note": 55,
      "start": 49.314,
      "duration": 0.0007,
      "velocity": 120,
      "chip": "ym2612"
    },
    {
      "channel": 4,
      "note": 55,
      "start": 49.3147,
      "duration": 0.0006,
      "velocity": 120,
      "chip": "ym2612"
    },
    {
      "channel": 4,
      "note": 55,
      "start": 49.3153,
      "duration": 0.0004,
      "velocity": 120,
      "chip": "ym2612"
    },
    {
      "channel": 4,
      "note": 55,
      "start": 49.3157,
      "duration": 0.0002,
      "velocity": 120,
      "chip": "ym2612"
    },
    {
      "channel": 4,
      "note": 50,
      "start": 49.3161,
      "duration": 0.0007,
      "velocity": 120,
      "chip": "ym2612"
    },
    {
      "channel": 0,
      "note": 66,
      "start": 49.3164,
      "duration": 0.2185,
      "velocity": 106,
      "chip": "ym2612"
    },
    {
      "channel": 1,
      "note": 38,
      "start": 49.3165,
      "duration": 0.2671,
      "velocity": 120,
      "chip": "ym2612"
    },
    {
      "channel": 2,
      "note": 81,
      "start": 49.3166,
      "duration": 0.1978,
      "velocity": 107,
      "chip": "ym2612"
    },
    {
      "channel": 3,
      "note": 38,
      "start": 49.3167,
      "duration": 0.1177,
      "velocity": 105,
      "chip": "ym2612"
    },
    {
      "channel": 4,
      "note": 50,
      "start": 49.3167,
      "duration": 0.0015,
      "velocity": 120,
      "chip": "ym2612"
    },
    {
      "channel": 4,
      "note": 50,
      "start": 49.3182,
      "duration": 0.0005,
      "velocity": 120,
      "chip": "ym2612"
    },
    {
      "channel": 4,
      "note": 50,
      "start": 49.3187,
      "duration": 0.0159,
      "velocity": 120,
      "chip": "ym2612"
    },
    {
      "channel": 4,
      "note": 50,
      "start": 49.3346,
      "duration": 0.04,
      "velocity": 120,
      "chip": "ym2612"
    },
    {
      "channel": 4,
      "note": 50,
      "start": 49.3746,
      "duration": 0.04,
      "velocity": 120,
      "chip": "ym2612"
    },
    {
      "channel": 4,
      "note": 50,
      "start": 49.4146,
      "duration": 0.0399,
      "velocity": 120,
      "chip": "ym2612"
    },
    {
      "channel": 4,
      "note": 50,
      "start": 49.4546,
      "duration": 0.04,
      "velocity": 120,
      "chip": "ym2612"
    },
    {
      "channel": 4,
      "note": 50,
      "start": 49.4946,
      "duration": 0.0406,
      "velocity": 120,
      "chip": "ym2612"
    },
    {
      "channel": 0,
      "note": 78,
      "start": 49.535,
      "duration": 0.0384,
      "velocity": 106,
      "chip": "ym2612"
    },
    {
      "channel": 2,
      "note": 86,
      "start": 49.535,
      "duration": 0.0486,
      "velocity": 107,
      "chip": "ym2612"
    },
    {
      "channel": 3,
      "note": 38,
      "start": 49.5352,
      "duration": 0.0018,
      "velocity": 105,
      "chip": "ym2612"
    },
    {
      "channel": 4,
      "note": 50,
      "start": 49.5352,
      "duration": 0.0016,
      "velocity": 120,
      "chip": "ym2612"
    },
    {
      "channel": 4,
      "note": 50,
      "start": 49.5368,
      "duration": 0.0004,
      "velocity": 120,
      "chip": "ym2612"
    },
    {
      "channel": 4,
      "note": 50,
      "start": 49.5372,
      "duration": 0.0014,
      "velocity": 120,
      "chip": "ym2612"
    },
    {
      "channel": 4,
      "note": 50,
      "start": 49.5386,
      "duration": 0.035,
      "velocity": 120,
      "chip": "ym2612"
    },
    {
      "channel": 0,
      "note": 74,
      "start": 49.5734,
      "duration": 0.0101,
      "velocity": 106,
      "chip": "ym2612"
    },
    {
      "channel": 3,
      "note": 38,
      "start": 49.5735,
      "duration": 0.0019,
      "velocity": 105,
      "chip": "ym2612"
    },
    {
      "channel": 4,
      "note": 50,
      "start": 49.5736,
      "duration": 0.0007,
      "velocity": 120,
      "chip": "ym2612"
    },
    {
      "channel": 4,
      "note": 50,
      "start": 49.5743,
      "duration": 0.0007,
      "velocity": 120,
      "chip": "ym2612"
    },
    {
      "channel": 4,
      "note": 50,
      "start": 49.575,
      "duration": 0.0005,
      "velocity": 120,
      "chip": "ym2612"
    },
    {
      "channel": 4,
      "note": 50,
      "start": 49.5755,
      "duration": 0.0002,
      "velocity": 120,
      "chip": "ym2612"
    },
    {
      "channel": 4,
      "note": 52,
      "start": 49.5758,
      "duration": 0.008,
      "velocity": 120,
      "chip": "ym2612"
    },
    {
      "channel": 0,
      "note": 66,
      "start": 49.5836,
      "duration": 0.0382,
      "velocity": 106,
      "chip": "ym2612"
    },
    {
      "channel": 1,
      "note": 40,
      "start": 49.5837,
      "duration": 0.2596,
      "velocity": 120,
      "chip": "ym2612"
    },
    {
      "channel": 2,
      "note": 83,
      "start": 49.5837,
      "duration": 0.1985,
      "velocity": 107,
      "chip": "ym2612"
    },
    {
      "channel": 3,
      "note": 40,
      "start": 49.5838,
      "duration": 0.0578,
      "velocity": 105,
      "chip": "ym2612"
    },
    {
      "channel": 4,
      "note": 52,
      "start": 49.5838,
      "duration": 0.0013,
      "velocity": 120,
      "chip": "ym2612"
    },
    {
      "channel": 4,
      "note": 52,
      "start": 49.5851,
      "duration": 0.0002,
      "velocity": 120,
      "chip": "ym2612"
    },
    {
      "channel": 4,
      "note": 52,
      "start": 49.5854,
      "duration": 0.0005,
      "velocity": 120,
      "chip": "ym2612"
    },
    {
      "channel": 4,
      "note": 52,
      "start": 49.5859,
      "duration": 0.0015,
      "velocity": 120,
      "chip": "ym2612"
    },
    {
      "channel": 4,
      "note": 52,
      "start": 49.5874,
      "duration": 0.0346,
      "velocity": 120,
      "chip": "ym2612"
    },
    {
      "channel": 0,
      "note": 67,
      "start": 49.6219,
      "duration": 0.1602,
      "velocity": 106,
      "chip": "ym2612"
    },
    {
      "channel": 4,
      "note": 52,
      "start": 49.622,
      "duration": 0.0398,
      "velocity": 120,
      "chip": "ym2612"
    },
    {
      "channel": 4,
      "note": 52,
      "start": 49.6617,
      "duration": 0.0401,
      "velocity": 120,
      "chip": "ym2612"
    },
    {
      "channel": 4,
      "note": 52,
      "start": 49.7018,
      "duration": 0.0399,
      "velocity": 120,
      "chip": "ym2612"
    },
    {
      "channel": 4,
      "note": 52,
      "start": 49.7417,
      "duration": 0.0406,
      "velocity": 120,
      "chip": "ym2612"
    },
    {
      "channel": 0,
      "note": 76,
      "start": 49.7821,
      "duration": 0.0585,
      "velocity": 106,
      "chip": "ym2612"
    },
    {
      "channel": 2,
      "note": 86,
      "start": 49.7822,
      "duration": 0.0585,
      "velocity": 107,
      "chip": "ym2612"
    },
    {
      "channel": 3,
      "note": 40,
      "start": 49.7823,
      "duration": 0.018,
      "velocity": 105,
      "chip": "ym2612"
    },
    {
      "channel": 4,
      "note": 52,
      "start": 49.7824,
      "duration": 0.0015,
      "velocity": 120,
      "chip": "ym2612"
    },
    {
      "channel": 4,
      "note": 52,
      "start": 49.7839,
      "duration": 0.0008,
      "velocity": 120,
      "chip": "ym2612"
    },
    {
      "channel": 4,
      "note": 52,
      "start": 49.7847,
      "duration": 0.0157,
      "velocity": 120,
      "chip": "ym2612"
    },
    {
      "channel": 4,
      "note": 52,
      "start": 49.8004,
      "duration": 0.0405,
      "velocity": 120,
      "chip": "ym2612"
    },
    {
      "channel": 0,
      "note": 79,
      "start": 49.8407,
      "duration": 0.0026,
      "velocity": 106,
      "chip": "ym2612"
    },
    {
      "channel": 2,
      "note": 88,
      "start": 49.8408,
      "duration": 0.0026,
      "velocity": 107,
      "chip": "ym2612"
    },
    {
      "channel": 3,
      "note": 40,
      "start": 49.8409,
      "duration": 0.0018,
      "velocity": 105,
      "chip": "ym2612"
    },
    {
      "channel": 4,
      "note": 52,
      "start": 49.8409,
      "duration": 0.0007,
      "velocity": 120,
      "chip": "ym2612"
    },
    {
      "channel": 4,
      "note": 52,
      "start": 49.8417,
      "duration": 0.0006,
      "velocity": 120,
      "chip": "ym2612"
    },
    {
      "channel": 4,
      "note": 52,
      "start": 49.8423,
      "duration": 0.0002,
      "velocity": 120,
      "chip": "ym2612"
    },
    {
      "channel": 4,
      "note": 54,
      "start": 49.8429,
      "duration": 0.0006,
      "velocity": 120,
      "chip": "ym2612"
    },
    {
      "channel": 0,
      "note": 66,
      "start": 49.8433,
      "duration": 0.0407,
      "velocity": 106,
      "chip": "ym2612"
    },
    {
      "channel": 1,
      "note": 42,
      "start": 49.8434,
      "duration": 0.6967,
      "velocity": 120,
      "chip": "ym2612"
    },
    {
      "channel": 2,
      "note": 90,
      "start": 49.8434,
      "duration": 0.7967,
      "velocity": 107,
      "chip": "ym2612"
    },
    {
      "channel": 3,
      "note": 42,
      "start": 49.8435,
      "duration": 0.0024,
      "velocity": 105,
      "chip": "ym2612"
    },
    {
      "channel": 4,
      "note": 54,
      "start": 49.8435,
      "duration": 0.0016,
      "velocity": 120,
      "chip": "ym2612"
    },
    {
      "channel": 4,
      "note": 54,
      "start": 49.8451,
      "duration": 0.0006,
      "velocity": 120,
      "chip": "ym2612"
    },
    {
      "channel": 4,
      "note": 54,
      "start": 49.8457,
      "duration": 0.0014,
      "velocity": 120,
      "chip": "ym2612"
    },
    {
      "channel": 4,
      "note": 54,
      "start": 49.8471,
      "duration": 0.0347,
      "velocity": 120,
      "chip": "ym2612"
    },
    {
      "channel": 3,
      "note": 42,
      "start": 49.8817,
      "duration": 0.1187,
      "velocity": 105,
      "chip": "ym2612"
    },
    {
      "channel": 4,
      "note": 54,
      "start": 49.8817,
      "duration": 0.0018,
      "velocity": 120,
      "chip": "ym2612"
    },
    {
      "channel": 4,
      "note": 54,
      "start": 49.8836,
      "duration": 0.0006,
      "velocity": 120,
      "chip": "ym2612"
    },
    {
      "channel": 4,
      "note": 54,
      "start": 49.8842,
      "duration": 0.0163,
      "velocity": 120,
      "chip": "ym2612"
    },
    {
      "channel": 0,
      "note": 70,
      "start": 49.8854,
      "duration": 0.1149,
      "velocity": 106,
      "chip": "ym2612"
    },
    {
      "channel": 4,
      "note": 54,
      "start": 49.9005,
      "duration": 0.04,
      "velocity": 120,
      "chip": "ym2612"
    },
    {
      "channel": 4,
      "note": 54,
      "start": 49.9405,
      "duration": 0.04,
      "velocity": 120,
      "chip": "ym2612"
    },
    {
      "channel": 4,
      "note": 54,
      "start": 49.9805,
      "duration": 0.0399,
      "velocity": 120,
      "chip": "ym2612"
    },
    {
      "channel": 0,
      "note": 73,
      "start": 50.0003,
      "duration": 0.1002,
      "velocity": 106,
      "chip": "ym2612"
    },
    {
      "channel": 4,
      "note": 54,
      "start": 50.0204,
      "duration": 0.04,
      "velocity": 120,
      "chip": "ym2612"
    },
    {
      "channel": 4,
      "note": 54,
      "start": 50.0604,
      "duration": 0.0404,
      "velocity": 120,
      "chip": "ym2612"
    },
    {
      "channel": 0,
      "note": 78,
      "start": 50.1006,
      "duration": 0.0036,
      "velocity": 106,
      "chip": "ym2612"
    },
    {
      "channel": 3,
      "note": 42,
      "start": 50.1007,
      "duration": 0.1384,
      "velocity": 105,
      "chip": "ym2612"
    },
    {
      "channel": 4,
      "note": 54,
      "start": 50.1008,
      "duration": 0.0015,
      "velocity": 120,
      "chip": "ym2612"
    },
    {
      "channel": 4,
      "note": 54,
      "start": 50.1024,
      "duration": 0.0005,
      "velocity": 120,
      "chip": "ym2612"
    },
    {
      "channel": 4,
      "note": 54,
      "start": 50.1029,
      "duration": 0.0016,
      "velocity": 120,
      "chip": "ym2612"
    },
    {
      "channel": 0,
      "note": 73,
      "start": 50.1043,
      "duration": 0.0948,
      "velocity": 106,
      "chip": "ym2612"
    },
    {
      "channel": 4,
      "note": 54,
      "start": 50.1045,
      "duration": 0.0347,
      "velocity": 120,
      "chip": "ym2612"
    },
    {
      "channel": 4,
      "note": 54,
      "start": 50.1392,
      "duration": 0.0602,
      "velocity": 120,
      "chip": "ym2612"
    },
    {
      "channel": 0,
      "note": 70,
      "start": 50.1992,
      "duration": 0.1201,
      "velocity": 106,
      "chip": "ym2612"
    },
    {
      "channel": 4,
      "note": 54,
      "start": 50.1994,
      "duration": 0.0398,
      "velocity": 120,
      "chip": "ym2612"
    },
    {
      "channel": 4,
      "note": 54,
      "start": 50.2392,
      "duration": 0.0399,
      "velocity": 120,
      "chip": "ym2612"
    },
    {
      "channel": 4,
      "note": 54,
      "start": 50.2791,
      "duration": 0.0405,
      "velocity": 120,
      "chip": "ym2612"
    },
    {
      "channel": 0,
      "note": 82,
      "start": 50.3194,
      "duration": 0.0024,
      "velocity": 106,
      "chip": "ym2612"
    },
    {
      "channel": 3,
      "note": 42,
      "start": 50.3195,
      "duration": 0.002,
      "velocity": 105,
      "chip": "ym2612"
    },
    {
      "channel": 4,
      "note": 54,
      "start": 50.3196,
      "duration": 0.0015,
      "velocity": 120,
      "chip": "ym2612"
    },
    {
      "channel": 4,
      "note": 54,
      "start": 50.3211,
      "duration": 0.0005,
      "velocity": 120,
      "chip": "ym2612"
    },
    {
      "channel": 4,
      "note": 54,
      "start": 50.3216,
      "duration": 0.0015,
      "velocity": 120,
      "chip": "ym2612"
    },
    {
      "channel": 0,
      "note": 78,
      "start": 50.3218,
      "duration": 0.0959,
      "velocity": 106,
      "chip": "ym2612"
    },
    {
      "channel": 4,
      "note": 54,
      "start": 50.3231,
      "duration": 0.0349,
      "velocity": 120,
      "chip": "ym2612"
    },
    {
      "channel": 3,
      "note": 42,
      "start": 50.3579,
      "duration": 0.0799,
      "velocity": 105,
      "chip": "ym2612"
    },
    {
      "channel": 4,
      "note": 54,
      "start": 50.358,
      "duration": 0.0399,
      "velocity": 120,
      "chip": "ym2612"
    },
    {
      "channel": 4,
      "note": 54,
      "start": 50.3978,
      "duration": 0.04,
      "velocity": 120,
      "chip": "ym2612"
    },
    {
      "channel": 0,
      "note": 73,
      "start": 50.4177,
      "duration": 0.1202,
      "velocity": 106,
      "chip": "ym2612"
    },
    {
      "channel": 4,
      "note": 54,
      "start": 50.4378,
      "duration": 0.0399,
      "velocity": 120,
      "chip": "ym2612"
    },
    {
      "channel": 4,
      "note": 54,
      "start": 50.4778,
      "duration": 0.0604,
      "velocity": 120,
      "chip": "ym2612"
    },
    {
      "channel": 0,
      "note": 76,
      "start": 50.538,
      "duration": 0.0024,
      "velocity": 106,
      "chip": "ym2612"
    },
    {
      "channel": 3,
      "note": 42,
      "start": 50.5381,
      "duration": 0.0433,
      "velocity": 105,
      "chip": "ym2612"
    },
    {
      "channel": 4,
      "note": 54,
      "start": 50.5382,
      "duration": 0.0016,
      "velocity": 120,
      "chip": "ym2612"
    },
    {
      "channel": 4,
      "note": 54,
      "start": 50.5397,
      "duration": 0.0005,
      "velocity": 120,
      "chip": "ym2612"
    },
    {
      "channel": 4,
      "note": 54,
      "start": 50.5402,
      "duration": 0.0015,
      "velocity": 120,
      "chip": "ym2612"
    },
    {
      "channel": 0,
      "note": 82,
      "start": 50.5404,
      "duration": 0.0371,
      "velocity": 106,
      "chip": "ym2612"
    },
    {
      "channel": 4,
      "note": 54,
      "start": 50.5417,
      "duration": 0.0349,
      "velocity": 120,
      "chip": "ym2612"
    },
    {
      "channel": 1,
      "note": 42,
      "start": 50.5765,
      "duration": 0.2205,
      "velocity": 120,
      "chip": "ym2612"
    },
    {
      "channel": 4,
      "note": 54,
      "start": 50.5766,
      "duration": 0.0007,
      "velocity": 120,
      "chip": "ym2612"
    },
    {
      "channel": 4,
      "note": 54,
      "start": 50.5773,
      "duration": 0.0007,
      "velocity": 120,
      "chip": "ym2612"
    },
    {
      "channel": 0,
      "note": 85,
      "start": 50.5776,
      "duration": 0.0015,
      "velocity": 106,
      "chip": "ym2612"
    },
    {
      "channel": 4,
      "note": 54,
      "start": 50.578,
      "duration": 0.0005,
      "velocity": 120,
      "chip": "ym2612"
    },
    {
      "channel": 4,
      "note": 54,
      "start": 50.5785,
      "duration": 0.0007,
      "velocity": 120,
      "chip": "ym2612"
    },
    {
      "channel": 0,
      "note": 88,
      "start": 50.5791,
      "duration": 0.0022,
      "velocity": 106,
      "chip": "ym2612"
    },
    {
      "channel": 4,
      "note": 54,
      "start": 50.5792,
      "duration": 0.0016,
      "velocity": 120,
      "chip": "ym2612"
    },
    {
      "channel": 4,
      "note": 54,
      "start": 50.5808,
      "duration": 0.0007,
      "velocity": 120,
      "chip": "ym2612"
    },
    {
      "channel": 0,
      "note": 86,
      "start": 50.5814,
      "duration": 0.0564,
      "velocity": 106,
      "chip": "ym2612"
    },
    {
      "channel": 4,
      "note": 54,
      "start": 50.5815,
      "duration": 0.0014,
      "velocity": 120,
      "chip": "ym2612"
    },
    {
      "channel": 4,
      "note": 54,
      "start": 50.5829,
      "duration": 0.0551,
      "velocity": 120,
      "chip": "ym2612"
    },
    {
      "channel": 0,
      "note": 85,
      "start": 50.6378,
      "duration": 0.0022,
      "velocity": 106,
      "chip": "ym2612"
    },
    {
      "channel": 3,
      "note": 42,
      "start": 50.6379,
      "duration": 0.0022,
      "velocity": 105,
      "chip": "ym2612"
    },
    {
      "channel": 4,
      "note": 54,
      "start": 50.638,
      "duration": 0.0016,
      "velocity": 120,
      "chip": "ym2612"
    },
    {
      "channel": 4,
      "note": 54,
      "start": 50.6396,
      "duration": 0.0006,
      "velocity": 120,
      "chip": "ym2612"
    },
    {
      "channel": 0,
      "note": 83,
      "start": 50.6401,
      "duration": 0.0364,
      "velocity": 106,
      "chip": "ym2612"
    },
    {
      "channel": 2,
      "note": 90,
      "start": 50.6401,
      "duration": 0.2029,
      "velocity": 98,
      "chip": "ym2612"
    },
    {
      "channel": 4,
      "note": 54,
      "start": 50.6402,
      "duration": 0.0014,
      "velocity": 120,
      "chip": "ym2612"
    },
    {
      "channel": 4,
      "note": 54,
      "start": 50.6416,
      "duration": 0.0351,
      "velocity": 120,
      "chip": "ym2612"
    },
    {
      "channel": 0,
      "note": 86,
      "start": 50.6765,
      "duration": 0.0014,
      "velocity": 106,
      "chip": "ym2612"
    },
    {
      "channel": 3,
      "note": 42,
      "start": 50.6767,
      "duration": 0.0014,
      "velocity": 105,
      "chip": "ym2612"
    },
    {
      "channel": 4,
      "note": 54,
      "start": 50.6767,
      "duration": 0.0007,
      "velocity": 120,
      "chip": "ym2612"
    },
    {
      "channel": 4,
      "note": 54,
      "start": 50.6775,
      "duration": 0.0006,
      "velocity": 120,
      "chip": "ym2612"
    },
    {
      "channel": 0,
      "note": 85,
      "start": 50.678,
      "duration": 0.001,
      "velocity": 106,
      "chip": "ym2612"
    },
    {
      "channel": 4,
      "note": 54,
      "start": 50.6781,
      "duration": 0.0004,
      "velocity": 120,
      "chip": "ym2612"
    },
    {
      "channel": 4,
      "note": 54,
      "start": 50.6785,
      "duration": 0.0007,
      "velocity": 120,
      "chip": "ym2612"
    },
    {
      "channel": 0,
      "note": 83,
      "start": 50.679,
      "duration": 0.0021,
      "velocity": 106,
      "chip": "ym2612"
    },
    {
      "channel": 3,
      "note": 42,
      "start": 50.6791,
      "duration": 0.0604,
      "velocity": 105,
      "chip": "ym2612"
    },
    {
      "channel": 4,
      "note": 54,
      "start": 50.6792,
      "duration": 0.0015,
      "velocity": 120,
      "chip": "ym2612"
    },
    {
      "channel": 4,
      "note": 54,
      "start": 50.6807,
      "duration": 0.0006,
      "velocity": 120,
      "chip": "ym2612"
    },
    {
      "channel": 0,
      "note": 82,
      "start": 50.6812,
      "duration": 0.0564,
      "velocity": 106,
      "chip": "ym2612"
    },
    {
      "channel": 4,
      "note": 54,
      "start": 50.6813,
      "duration": 0.0161,
      "velocity": 120,
      "chip": "ym2612"
    },
    {
      "channel": 4,
      "note": 54,
      "start": 50.6974,
      "duration": 0.0403,
      "velocity": 120,
      "chip": "ym2612"
    },
    {
      "channel": 0,
      "note": 79,
      "start": 50.7376,
      "duration": 0.0021,
      "velocity": 106,
      "chip": "ym2612"
    },
    {
      "channel": 4,
      "note": 54,
      "start": 50.7378,
      "duration": 0.0016,
      "velocity": 120,
      "chip": "ym2612"
    },
    {
      "channel": 4,
      "note": 54,
      "start": 50.7393,
      "duration": 0.0006,
      "velocity": 120,
      "chip": "ym2612"
    },
    {
      "channel": 0,
      "note": 83,
      "start": 50.7398,
      "duration": 0.0365,
      "velocity": 106,
      "chip": "ym2612"
    },
    {
      "channel": 4,
      "note": 54,
      "start": 50.7399,
      "duration": 0.0015,
      "velocity": 120,
      "chip": "ym2612"
    },
    {
      "channel": 4,
      "note": 54,
      "start": 50.7413,
      "duration": 0.0351,
      "velocity": 120,
      "chip": "ym2612"
    },
    {
      "channel": 0,
      "note": 82,
      "start": 50.7763,
      "duration": 0.0013,
      "velocity": 106,
      "chip": "ym2612"
    },
    {
      "channel": 3,
      "note": 42,
      "start": 50.7764,
      "duration": 0.0015,
      "velocity": 105,
      "chip": "ym2612"
    },
    {
      "channel": 4,
      "note": 54,
      "start": 50.7765,
      "duration": 0.0007,
      "velocity": 120,
      "chip": "ym2612"
    },
    {
      "channel": 4,
      "note": 54,
      "start": 50.7772,
      "duration": 0.0006,
      "velocity": 120,
      "chip": "ym2612"
    },
    {
      "channel": 0,
      "note": 79,
      "start": 50.7776,
      "duration": 0.001,
      "velocity": 106,
      "chip": "ym2612"
    },
    {
      "channel": 4,
      "note": 54,
      "start": 50.7778,
      "duration": 0.0004,
      "velocity": 120,
      "chip": "ym2612"
    },
    {
      "channel": 4,
      "note": 54,
      "start": 50.7782,
      "duration": 0.0006,
      "velocity": 120,
      "chip": "ym2612"
    },
    {
      "channel": 0,
      "note": 78,
      "start": 50.7787,
      "duration": 0.0022,
      "velocity": 106,
      "chip": "ym2612"
    },
    {
      "channel": 3,
      "note": 42,
      "start": 50.7788,
      "duration": 0.0037,
      "velocity": 105,
      "chip": "ym2612"
    },
    {
      "channel": 4,
      "note": 54,
      "start": 50.7788,
      "duration": 0.0016,
      "velocity": 120,
      "chip": "ym2612"
    },
    {
      "channel": 4,
      "note": 54,
      "start": 50.7804,
      "duration": 0.0007,
      "velocity": 120,
      "chip": "ym2612"
    },
    {
      "channel": 0,
      "note": 76,
      "start": 50.7809,
      "duration": 0.0562,
      "velocity": 106,
      "chip": "ym2612"
    },
    {
      "channel": 4,
      "note": 54,
      "start": 50.7811,
      "duration": 0.016,
      "velocity": 120,
      "chip": "ym2612"
    },
    {
      "channel": 4,
      "note": 54,
      "start": 50.7971,
      "duration": 0.0402,
      "velocity": 120,
      "chip": "ym2612"
    },
    {
      "channel": 0,
      "note": 74,
      "start": 50.8372,
      "duration": 0.001,
      "velocity": 106,
      "chip": "ym2612"
    },
    {
      "channel": 4,
      "note": 54,
      "start": 50.8373,
      "duration": 0.0006,
      "velocity": 120,
      "chip": "ym2612"
    },
    {
      "channel": 4,
      "note": 54,
      "start": 50.8379,
      "duration": 0.0002,
      "velocity": 120,
      "chip": "ym2612"
    },
    {
      "channel": 0,
      "note": 73,
      "start": 50.8383,
      "duration": 0.0029,
      "velocity": 127,
      "chip": "ym2612"
    },
    {
      "channel": 0,
      "note": 71,
      "start": 50.8412,
      "duration": 0.0053,
      "velocity": 127,
      "chip": "ym2612"
    },
    {
      "channel": 1,
      "note": 79,
      "start": 50.8421,
      "duration": 0.0043,
      "velocity": 93,
      "chip": "ym2612"
    },
    {
      "channel": 3,
      "note": 35,
      "start": 50.8439,
      "duration": 0.0653,
      "velocity": 105,
      "chip": "ym2612"
    },
    {
      "channel": 4,
      "note": 40,
      "start": 50.8448,
      "duration": 58.9844,
      "velocity": 120,
      "chip": "ym2612"
    },
    {
      "channel": 0,
      "note": 59,
      "start": 50.8693,
      "duration": 0.0997,
      "velocity": 127,
      "chip": "ym2612"
    },
    {
      "channel": 1,
      "note": 76,
      "start": 50.8694,
      "duration": 0.0398,
      "velocity": 93,
      "chip": "ym2612"
    }
  ]
}