{
  "track_name": "11 - Vanish Into the Night",
  "duration_sec": 19.084,
  "sample_rate": 44100,
  "note_count": 464,
  "unique_pitches": 14,
  "pitch_range": 51,
  "avg_note_duration": 0.1295,
  "reconstruction_stats": {
    "notes_reconstructed": 464,
    "keyon_events": 464,
    "keyoff_events": 460,
    "orphan_keyons": 4,
    "unique_pitches": 14,
    "pitch_range": 51,
    "avg_duration_sec": 0.1295
  },
  "metadata": {
    "source": "M\\M.U.S.H.A\\11 - Vanish Into the Night.vgz"
  },
  "notes": [
    {
      "channel": 1,
      "note": 57,
      "start": 0.0,
      "duration": 0.1135,
      "velocity": 125,
      "chip": "ym2612"
    },
    {
      "channel": 3,
      "note": 49,
      "start": 0.0012,
      "duration": 0.1133,
      "velocity": 104,
      "chip": "ym2612"
    },
    {
      "channel": 1,
      "note": 57,
      "start": 0.2313,
      "duration": 0.0322,
      "velocity": 125,
      "chip": "ym2612"
    },
    {
      "channel": 3,
      "note": 49,
      "start": 0.233,
      "duration": 0.0314,
      "velocity": 104,
      "chip": "ym2612"
    },
    {
      "channel": 1,
      "note": 57,
      "start": 0.3479,
      "duration": 0.1156,
      "velocity": 125,
      "chip": "ym2612"
    },
    {
      "channel": 3,
      "note": 49,
      "start": 0.3497,
      "duration": 0.1148,
      "velocity": 104,
      "chip": "ym2612"
    },
    {
      "channel": 1,
      "note": 57,
      "start": 0.5813,
      "duration": 0.0322,
      "velocity": 125,
      "chip": "ym2612"
    },
    {
      "channel": 3,
      "note": 49,
      "start": 0.583,
      "duration": 0.0314,
      "velocity": 104,
      "chip": "ym2612"
    },
    {
      "channel": 1,
      "note": 57,
      "start": 0.6979,
      "duration": 0.0323,
      "velocity": 125,
      "chip": "ym2612"
    },
    {
      "channel": 3,
      "note": 49,
      "start": 0.6996,
      "duration": 0.0315,
      "velocity": 104,
      "chip": "ym2612"
    },
    {
      "channel": 1,
      "note": 57,
      "start": 0.8145,
      "duration": 0.0323,
      "velocity": 125,
      "chip": "ym2612"
    },
    {
      "channel": 3,
      "note": 49,
      "start": 0.8163,
      "duration": 0.0315,
      "velocity": 104,
      "chip": "ym2612"
    },
    {
      "channel": 1,
      "note": 57,
      "start": 0.9313,
      "duration": 0.1156,
      "velocity": 125,
      "chip": "ym2612"
    },
    {
      "channel": 3,
      "note": 49,
      "start": 0.933,
      "duration": 0.1148,
      "velocity": 104,
      "chip": "ym2612"
    },
    {
      "channel": 1,
      "note": 57,
      "start": 1.1646,
      "duration": 0.0322,
      "velocity": 125,
      "chip": "ym2612"
    },
    {
      "channel": 3,
      "note": 49,
      "start": 1.1664,
      "duration": 0.0314,
      "velocity": 104,
      "chip": "ym2612"
    },
    {
      "channel": 1,
      "note": 57,
      "start": 1.2813,
      "duration": 0.1156,
      "velocity": 125,
      "chip": "ym2612"
    },
    {
      "channel": 3,
      "note": 49,
      "start": 1.283,
      "duration": 0.1148,
      "velocity": 104,
      "chip": "ym2612"
    },
    {
      "channel": 1,
      "note": 57,
      "start": 1.5147,
      "duration": 0.0322,
      "velocity": 125,
      "chip": "ym2612"
    },
    {
      "channel": 3,
      "note": 49,
      "start": 1.5164,
      "duration": 0.0314,
      "velocity": 104,
      "chip": "ym2612"
    },
    {
      "channel": 1,
      "note": 57,
      "start": 1.6313,
      "duration": 0.0322,
      "velocity": 125,
      "chip": "ym2612"
    },
    {
      "channel": 3,
      "note": 49,
      "start": 1.6331,
      "duration": 0.0314,
      "velocity": 104,
      "chip": "ym2612"
    },
    {
      "channel": 1,
      "note": 57,
      "start": 1.748,
      "duration": 0.0322,
      "velocity": 125,
      "chip": "ym2612"
    },
    {
      "channel": 3,
      "note": 49,
      "start": 1.7498,
      "duration": 0.0314,
      "velocity": 104,
      "chip": "ym2612"
    },
    {
      "channel": 1,
      "note": 57,
      "start": 1.8647,
      "duration": 0.0322,
      "velocity": 125,
      "chip": "ym2612"
    },
    {
      "channel": 3,
      "note": 49,
      "start": 1.8666,
      "duration": 0.1157,
      "velocity": 104,
      "chip": "ym2612"
    },
    {
      "channel": 4,
      "note": 61,
      "start": 1.8678,
      "duration": 0.1155,
      "velocity": 116,
      "chip": "ym2612"
    },
    {
      "channel": 2,
      "note": 68,
      "start": 1.8691,
      "duration": 0.1153,
      "velocity": 116,
      "chip": "ym2612"
    },
    {
      "channel": 1,
      "note": 57,
      "start": 1.9813,
      "duration": 0.0322,
      "velocity": 125,
      "chip": "ym2612"
    },
    {
      "channel": 1,
      "note": 57,
      "start": 2.0813,
      "duration": 0.0488,
      "velocity": 125,
      "chip": "ym2612"
    },
    {
      "channel": 3,
      "note": 49,
      "start": 2.0832,
      "duration": 0.048,
      "velocity": 104,
      "chip": "ym2612"
    },
    {
      "channel": 4,
      "note": 61,
      "start": 2.0853,
      "duration": 0.047,
      "velocity": 116,
      "chip": "ym2612"
    },
    {
      "channel": 2,
      "note": 68,
      "start": 2.0873,
      "duration": 0.046,
      "velocity": 116,
      "chip": "ym2612"
    },
    {
      "channel": 1,
      "note": 57,
      "start": 2.198,
      "duration": 0.0488,
      "velocity": 125,
      "chip": "ym2612"
    },
    {
      "channel": 3,
      "note": 49,
      "start": 2.1998,
      "duration": 0.1158,
      "velocity": 104,
      "chip": "ym2612"
    },
    {
      "channel": 4,
      "note": 61,
      "start": 2.2019,
      "duration": 0.1148,
      "velocity": 116,
      "chip": "ym2612"
    },
    {
      "channel": 2,
      "note": 68,
      "start": 2.204,
      "duration": 0.1138,
      "velocity": 116,
      "chip": "ym2612"
    },
    {
      "channel": 1,
      "note": 57,
      "start": 2.3147,
      "duration": 0.0488,
      "velocity": 125,
      "chip": "ym2612"
    },
    {
      "channel": 1,
      "note": 57,
      "start": 2.4313,
      "duration": 0.0488,
      "velocity": 125,
      "chip": "ym2612"
    },
    {
      "channel": 3,
      "note": 49,
      "start": 2.4332,
      "duration": 0.048,
      "velocity": 104,
      "chip": "ym2612"
    },
    {
      "channel": 4,
      "note": 61,
      "start": 2.4353,
      "duration": 0.047,
      "velocity": 116,
      "chip": "ym2612"
    },
    {
      "channel": 2,
      "note": 68,
      "start": 2.4373,
      "duration": 0.046,
      "velocity": 116,
      "chip": "ym2612"
    },
    {
      "channel": 1,
      "note": 57,
      "start": 2.548,
      "duration": 0.0488,
      "velocity": 125,
      "chip": "ym2612"
    },
    {
      "channel": 3,
      "note": 49,
      "start": 2.5498,
      "duration": 0.048,
      "velocity": 104,
      "chip": "ym2612"
    },
    {
      "channel": 4,
      "note": 61,
      "start": 2.5519,
      "duration": 0.047,
      "velocity": 116,
      "chip": "ym2612"
    },
    {
      "channel": 2,
      "note": 68,
      "start": 2.5539,
      "duration": 0.0461,
      "velocity": 116,
      "chip": "ym2612"
    },
    {
      "channel": 1,
      "note": 57,
      "start": 2.6647,
      "duration": 0.0488,
      "velocity": 125,
      "chip": "ym2612"
    },
    {
      "channel": 3,
      "note": 49,
      "start": 2.6664,
      "duration": 0.048,
      "velocity": 104,
      "chip": "ym2612"
    },
    {
      "channel": 4,
      "note": 61,
      "start": 2.6685,
      "duration": 0.047,
      "velocity": 116,
      "chip": "ym2612"
    },
    {
      "channel": 2,
      "note": 68,
      "start": 2.6706,
      "duration": 0.0461,
      "velocity": 116,
      "chip": "ym2612"
    },
    {
      "channel": 1,
      "note": 57,
      "start": 2.7813,
      "duration": 0.0488,
      "velocity": 125,
      "chip": "ym2612"
    },
    {
      "channel": 3,
      "note": 49,
      "start": 2.7832,
      "duration": 0.1158,
      "velocity": 104,
      "chip": "ym2612"
    },
    {
      "channel": 4,
      "note": 61,
      "start": 2.7853,
      "duration": 0.1148,
      "velocity": 116,
      "chip": "ym2612"
    },
    {
      "channel": 2,
      "note": 68,
      "start": 2.7873,
      "duration": 0.1138,
      "velocity": 116,
      "chip": "ym2612"
    },
    {
      "channel": 1,
      "note": 57,
      "start": 2.898,
      "duration": 0.0488,
      "velocity": 125,
      "chip": "ym2612"
    },
    {
      "channel": 1,
      "note": 57,
      "start": 3.0147,
      "duration": 0.0488,
      "velocity": 125,
      "chip": "ym2612"
    },
    {
      "channel": 3,
      "note": 49,
      "start": 3.0165,
      "duration": 0.048,
      "velocity": 104,
      "chip": "ym2612"
    },
    {
      "channel": 4,
      "note": 61,
      "start": 3.0186,
      "duration": 0.047,
      "velocity": 116,
      "chip": "ym2612"
    },
    {
      "channel": 2,
      "note": 68,
      "start": 3.0206,
      "duration": 0.046,
      "velocity": 116,
      "chip": "ym2612"
    },
    {
      "channel": 1,
      "note": 57,
      "start": 3.1313,
      "duration": 0.0488,
      "velocity": 125,
      "chip": "ym2612"
    },
    {
      "channel": 3,
      "note": 49,
      "start": 3.1332,
      "duration": 0.1158,
      "velocity": 104,
      "chip": "ym2612"
    },
    {
      "channel": 4,
      "note": 61,
      "start": 3.1353,
      "duration": 0.1148,
      "velocity": 116,
      "chip": "ym2612"
    },
    {
      "channel": 2,
      "note": 68,
      "start": 3.1373,
      "duration": 0.1138,
      "velocity": 116,
      "chip": "ym2612"
    },
    {
      "channel": 1,
      "note": 57,
      "start": 3.248,
      "duration": 0.0488,
      "velocity": 125,
      "chip": "ym2612"
    },
    {
      "channel": 1,
      "note": 57,
      "start": 3.3647,
      "duration": 0.0488,
      "velocity": 125,
      "chip": "ym2612"
    },
    {
      "channel": 3,
      "note": 49,
      "start": 3.3665,
      "duration": 0.048,
      "velocity": 104,
      "chip": "ym2612"
    },
    {
      "channel": 4,
      "note": 61,
      "start": 3.3686,
      "duration": 0.047,
      "velocity": 116,
      "chip": "ym2612"
    },
    {
      "channel": 2,
      "note": 68,
      "start": 3.3706,
      "duration": 0.046,
      "velocity": 116,
      "chip": "ym2612"
    },
    {
      "channel": 1,
      "note": 57,
      "start": 3.4813,
      "duration": 0.0488,
      "velocity": 125,
      "chip": "ym2612"
    },
    {
      "channel": 3,
      "note": 49,
      "start": 3.4831,
      "duration": 0.048,
      "velocity": 104,
      "chip": "ym2612"
    },
    {
      "channel": 4,
      "note": 61,
      "start": 3.4852,
      "duration": 0.047,
      "velocity": 116,
      "chip": "ym2612"
    },
    {
      "channel": 2,
      "note": 68,
      "start": 3.4872,
      "duration": 0.0461,
      "velocity": 116,
      "chip": "ym2612"
    },
    {
      "channel": 1,
      "note": 57,
      "start": 3.598,
      "duration": 0.0488,
      "velocity": 125,
      "chip": "ym2612"
    },
    {
      "channel": 3,
      "note": 49,
      "start": 3.5998,
      "duration": 0.048,
      "velocity": 104,
      "chip": "ym2612"
    },
    {
      "channel": 4,
      "note": 61,
      "start": 3.6019,
      "duration": 0.047,
      "velocity": 116,
      "chip": "ym2612"
    },
    {
      "channel": 2,
      "note": 68,
      "start": 3.6039,
      "duration": 0.0461,
      "velocity": 116,
      "chip": "ym2612"
    },
    {
      "channel": 1,
      "note": 46,
      "start": 3.7176,
      "duration": 0.3459,
      "velocity": 122,
      "chip": "ym2612"
    },
    {
      "channel": 3,
      "note": 49,
      "start": 3.7194,
      "duration": 0.1116,
      "velocity": 104,
      "chip": "ym2612"
    },
    {
      "channel": 4,
      "note": 58,
      "start": 3.7217,
      "duration": 1.7447,
      "velocity": 116,
      "chip": "ym2612"
    },
    {
      "channel": 2,
      "note": 64,
      "start": 3.7238,
      "duration": 1.7436,
      "velocity": 116,
      "chip": "ym2612"
    },
    {
      "channel": 0,
      "note": 97,
      "start": 3.7253,
      "duration": 0.1092,
      "velocity": 116,
      "chip": "ym2612"
    },
    {
      "channel": 5,
      "note": 97,
      "start": 3.8845,
      "duration": 0.1164,
      "velocity": 116,
      "chip": "ym2612"
    },
    {
      "channel": 3,
      "note": 49,
      "start": 3.9486,
      "duration": 0.0491,
      "velocity": 104,
      "chip": "ym2612"
    },
    {
      "channel": 0,
      "note": 97,
      "start": 3.9538,
      "duration": 0.0482,
      "velocity": 116,
      "chip": "ym2612"
    },
    {
      "channel": 3,
      "note": 49,
      "start": 4.0653,
      "duration": 0.0492,
      "velocity": 104,
      "chip": "ym2612"
    },
    {
      "channel": 0,
      "note": 97,
      "start": 4.0706,
      "duration": 0.1195,
      "velocity": 116,
      "chip": "ym2612"
    },
    {
      "channel": 5,
      "note": 97,
      "start": 4.1187,
      "duration": 0.0323,
      "velocity": 116,
      "chip": "ym2612"
    },
    {
      "channel": 1,
      "note": 57,
      "start": 4.1841,
      "duration": 0.3461,
      "velocity": 125,
      "chip": "ym2612"
    },
    {
      "channel": 3,
      "note": 57,
      "start": 4.1859,
      "duration": 0.0285,
      "velocity": 104,
      "chip": "ym2612"
    },
    {
      "channel": 5,
      "note": 97,
      "start": 4.2186,
      "duration": 0.1157,
      "velocity": 116,
      "chip": "ym2612"
    },
    {
      "channel": 3,
      "note": 56,
      "start": 4.2986,
      "duration": 0.0326,
      "velocity": 104,
      "chip": "ym2612"
    },
    {
      "channel": 0,
      "note": 97,
      "start": 4.3038,
      "duration": 0.0316,
      "velocity": 116,
      "chip": "ym2612"
    },
    {
      "channel": 3,
      "note": 49,
      "start": 4.4152,
      "duration": 0.0325,
      "velocity": 104,
      "chip": "ym2612"
    },
    {
      "channel": 0,
      "note": 97,
      "start": 4.4205,
      "duration": 0.0326,
      "velocity": 116,
      "chip": "ym2612"
    },
    {
      "channel": 5,
      "note": 97,
      "start": 4.452,
      "duration": 0.0489,
      "velocity": 116,
      "chip": "ym2612"
    },
    {
      "channel": 3,
      "note": 49,
      "start": 4.532,
      "duration": 0.0325,
      "velocity": 104,
      "chip": "ym2612"
    },
    {
      "channel": 0,
      "note": 97,
      "start": 4.5372,
      "duration": 0.0326,
      "velocity": 116,
      "chip": "ym2612"
    },
    {
      "channel": 5,
      "note": 97,
      "start": 4.5687,
      "duration": 0.049,
      "velocity": 116,
      "chip": "ym2612"
    },
    {
      "channel": 3,
      "note": 56,
      "start": 4.649,
      "duration": 0.0314,
      "velocity": 104,
      "chip": "ym2612"
    },
    {
      "channel": 0,
      "note": 97,
      "start": 4.6541,
      "duration": 0.1147,
      "velocity": 116,
      "chip": "ym2612"
    },
    {
      "channel": 5,
      "note": 97,
      "start": 4.6845,
      "duration": 0.049,
      "velocity": 116,
      "chip": "ym2612"
    },
    {
      "channel": 3,
      "note": 54,
      "start": 4.7645,
      "duration": 0.0325,
      "velocity": 104,
      "chip": "ym2612"
    },
    {
      "channel": 5,
      "note": 97,
      "start": 4.8012,
      "duration": 0.1164,
      "velocity": 116,
      "chip": "ym2612"
    },
    {
      "channel": 1,
      "note": 46,
      "start": 4.8833,
      "duration": 0.0302,
      "velocity": 122,
      "chip": "ym2612"
    },
    {
      "channel": 3,
      "note": 49,
      "start": 4.8851,
      "duration": 0.0294,
      "velocity": 104,
      "chip": "ym2612"
    },
    {
      "channel": 0,
      "note": 97,
      "start": 4.8903,
      "duration": 0.0284,
      "velocity": 116,
      "chip": "ym2612"
    },
    {
      "channel": 1,
      "note": 46,
      "start": 4.9979,
      "duration": 0.0323,
      "velocity": 122,
      "chip": "ym2612"
    },
    {
      "channel": 3,
      "note": 52,
      "start": 4.9996,
      "duration": 0.0315,
      "velocity": 104,
      "chip": "ym2612"
    },
    {
      "channel": 0,
      "note": 97,
      "start": 5.0049,
      "duration": 0.1185,
      "velocity": 116,
      "chip": "ym2612"
    },
    {
      "channel": 5,
      "note": 97,
      "start": 5.0353,
      "duration": 0.049,
      "velocity": 116,
      "chip": "ym2612"
    },
    {
      "channel": 1,
      "note": 57,
      "start": 5.1174,
      "duration": 0.3461,
      "velocity": 125,
      "chip": "ym2612"
    },
    {
      "channel": 3,
      "note": 49,
      "start": 5.1192,
      "duration": 0.0285,
      "velocity": 104,
      "chip": "ym2612"
    },
    {
      "channel": 5,
      "note": 97,
      "start": 5.1519,
      "duration": 0.1157,
      "velocity": 116,
      "chip": "ym2612"
    },
    {
      "channel": 3,
      "note": 51,
      "start": 5.2319,
      "duration": 0.0325,
      "velocity": 104,
      "chip": "ym2612"
    },
    {
      "channel": 0,
      "note": 97,
      "start": 5.2372,
      "duration": 0.0315,
      "velocity": 116,
      "chip": "ym2612"
    },
    {
      "channel": 3,
      "note": 49,
      "start": 5.3486,
      "duration": 0.0325,
      "velocity": 104,
      "chip": "ym2612"
    },
    {
      "channel": 0,
      "note": 97,
      "start": 5.3538,
      "duration": 0.0326,
      "velocity": 116,
      "chip": "ym2612"
    },
    {
      "channel": 5,
      "note": 97,
      "start": 5.3853,
      "duration": 0.0489,
      "velocity": 116,
      "chip": "ym2612"
    },
    {
      "channel": 3,
      "note": 61,
      "start": 5.4653,
      "duration": 0.0325,
      "velocity": 104,
      "chip": "ym2612"
    },
    {
      "channel": 0,
      "note": 97,
      "start": 5.4706,
      "duration": 0.0325,
      "velocity": 116,
      "chip": "ym2612"
    },
    {
      "channel": 5,
      "note": 97,
      "start": 5.5021,
      "duration": 0.049,
      "velocity": 116,
      "chip": "ym2612"
    },
    {
      "channel": 1,
      "note": 46,
      "start": 5.5842,
      "duration": 0.346,
      "velocity": 122,
      "chip": "ym2612"
    },
    {
      "channel": 3,
      "note": 49,
      "start": 5.586,
      "duration": 0.1118,
      "velocity": 104,
      "chip": "ym2612"
    },
    {
      "channel": 4,
      "note": 57,
      "start": 5.5881,
      "duration": 1.745,
      "velocity": 116,
      "chip": "ym2612"
    },
    {
      "channel": 2,
      "note": 63,
      "start": 5.5901,
      "duration": 1.744,
      "velocity": 116,
      "chip": "ym2612"
    },
    {
      "channel": 0,
      "note": 97,
      "start": 5.5933,
      "duration": 0.1087,
      "velocity": 116,
      "chip": "ym2612"
    },
    {
      "channel": 5,
      "note": 97,
      "start": 5.6185,
      "duration": 0.049,
      "velocity": 116,
      "chip": "ym2612"
    },
    {
      "channel": 5,
      "note": 97,
      "start": 5.7353,
      "duration": 0.1156,
      "velocity": 116,
      "chip": "ym2612"
    },
    {
      "channel": 3,
      "note": 49,
      "start": 5.8153,
      "duration": 0.0324,
      "velocity": 104,
      "chip": "ym2612"
    },
    {
      "channel": 0,
      "note": 97,
      "start": 5.8205,
      "duration": 0.0315,
      "velocity": 116,
      "chip": "ym2612"
    },
    {
      "channel": 3,
      "note": 49,
      "start": 5.932,
      "duration": 0.0325,
      "velocity": 104,
      "chip": "ym2612"
    },
    {
      "channel": 0,
      "note": 97,
      "start": 5.9372,
      "duration": 0.1195,
      "velocity": 116,
      "chip": "ym2612"
    },
    {
      "channel": 5,
      "note": 97,
      "start": 5.9687,
      "duration": 0.049,
      "velocity": 116,
      "chip": "ym2612"
    },
    {
      "channel": 1,
      "note": 57,
      "start": 6.0507,
      "duration": 0.3461,
      "velocity": 125,
      "chip": "ym2612"
    },
    {
      "channel": 3,
      "note": 57,
      "start": 6.0524,
      "duration": 0.0286,
      "velocity": 104,
      "chip": "ym2612"
    },
    {
      "channel": 5,
      "note": 97,
      "start": 6.0853,
      "duration": 0.1157,
      "velocity": 116,
      "chip": "ym2612"
    },
    {
      "channel": 3,
      "note": 56,
      "start": 6.1652,
      "duration": 0.0325,
      "velocity": 104,
      "chip": "ym2612"
    },
    {
      "channel": 0,
      "note": 97,
      "start": 6.1705,
      "duration": 0.0315,
      "velocity": 116,
      "chip": "ym2612"
    },
    {
      "channel": 3,
      "note": 49,
      "start": 6.2819,
      "duration": 0.0325,
      "velocity": 104,
      "chip": "ym2612"
    },
    {
      "channel": 0,
      "note": 97,
      "start": 6.2871,
      "duration": 0.0326,
      "velocity": 116,
      "chip": "ym2612"
    },
    {
      "channel": 5,
      "note": 97,
      "start": 6.3187,
      "duration": 0.0323,
      "velocity": 116,
      "chip": "ym2612"
    },
    {
      "channel": 3,
      "note": 49,
      "start": 6.3986,
      "duration": 0.0325,
      "velocity": 104,
      "chip": "ym2612"
    },
    {
      "channel": 0,
      "note": 97,
      "start": 6.4039,
      "duration": 0.0326,
      "velocity": 116,
      "chip": "ym2612"
    },
    {
      "channel": 5,
      "note": 97,
      "start": 6.4353,
      "duration": 0.0323,
      "velocity": 116,
      "chip": "ym2612"
    },
    {
      "channel": 3,
      "note": 56,
      "start": 6.5156,
      "duration": 0.0314,
      "velocity": 104,
      "chip": "ym2612"
    },
    {
      "channel": 0,
      "note": 97,
      "start": 6.5208,
      "duration": 0.1147,
      "velocity": 116,
      "chip": "ym2612"
    },
    {
      "channel": 5,
      "note": 97,
      "start": 6.5512,
      "duration": 0.0324,
      "velocity": 116,
      "chip": "ym2612"
    },
    {
      "channel": 3,
      "note": 54,
      "start": 6.6312,
      "duration": 0.0325,
      "velocity": 104,
      "chip": "ym2612"
    },
    {
      "channel": 5,
      "note": 97,
      "start": 6.6679,
      "duration": 0.1164,
      "velocity": 116,
      "chip": "ym2612"
    },
    {
      "channel": 1,
      "note": 46,
      "start": 6.75,
      "duration": 0.0302,
      "velocity": 122,
      "chip": "ym2612"
    },
    {
      "channel": 3,
      "note": 49,
      "start": 6.7517,
      "duration": 0.0294,
      "velocity": 104,
      "chip": "ym2612"
    },
    {
      "channel": 0,
      "note": 97,
      "start": 6.757,
      "duration": 0.0284,
      "velocity": 116,
      "chip": "ym2612"
    },
    {
      "channel": 1,
      "note": 46,
      "start": 6.8645,
      "duration": 0.0323,
      "velocity": 122,
      "chip": "ym2612"
    },
    {
      "channel": 3,
      "note": 52,
      "start": 6.8663,
      "duration": 0.0315,
      "velocity": 104,
      "chip": "ym2612"
    },
    {
      "channel": 0,
      "note": 97,
      "start": 6.8716,
      "duration": 0.1185,
      "velocity": 116,
      "chip": "ym2612"
    },
    {
      "channel": 5,
      "note": 97,
      "start": 6.902,
      "duration": 0.0323,
      "velocity": 116,
      "chip": "ym2612"
    },
    {
      "channel": 1,
      "note": 57,
      "start": 6.9841,
      "duration": 0.3462,
      "velocity": 125,
      "chip": "ym2612"
    },
    {
      "channel": 3,
      "note": 49,
      "start": 6.9859,
      "duration": 0.0285,
      "velocity": 104,
      "chip": "ym2612"
    },
    {
      "channel": 5,
      "note": 97,
      "start": 7.0186,
      "duration": 0.1157,
      "velocity": 116,
      "chip": "ym2612"
    },
    {
      "channel": 3,
      "note": 51,
      "start": 7.0986,
      "duration": 0.0325,
      "velocity": 104,
      "chip": "ym2612"
    },
    {
      "channel": 0,
      "note": 97,
      "start": 7.1039,
      "duration": 0.0315,
      "velocity": 116,
      "chip": "ym2612"
    },
    {
      "channel": 3,
      "note": 49,
      "start": 7.2152,
      "duration": 0.0325,
      "velocity": 104,
      "chip": "ym2612"
    },
    {
      "channel": 0,
      "note": 97,
      "start": 7.2205,
      "duration": 0.0326,
      "velocity": 116,
      "chip": "ym2612"
    },
    {
      "channel": 5,
      "note": 97,
      "start": 7.252,
      "duration": 0.0323,
      "velocity": 116,
      "chip": "ym2612"
    },
    {
      "channel": 3,
      "note": 62,
      "start": 7.332,
      "duration": 0.0325,
      "velocity": 104,
      "chip": "ym2612"
    },
    {
      "channel": 0,
      "note": 97,
      "start": 7.3373,
      "duration": 0.0325,
      "velocity": 116,
      "chip": "ym2612"
    },
    {
      "channel": 5,
      "note": 97,
      "start": 7.3687,
      "duration": 0.0324,
      "velocity": 116,
      "chip": "ym2612"
    },
    {
      "channel": 1,
      "note": 46,
      "start": 7.4509,
      "duration": 0.346,
      "velocity": 122,
      "chip": "ym2612"
    },
    {
      "channel": 3,
      "note": 49,
      "start": 7.4526,
      "duration": 0.1118,
      "velocity": 104,
      "chip": "ym2612"
    },
    {
      "channel": 4,
      "note": 57,
      "start": 7.4547,
      "duration": 1.7283,
      "velocity": 116,
      "chip": "ym2612"
    },
    {
      "channel": 2,
      "note": 62,
      "start": 7.4568,
      "duration": 1.7273,
      "velocity": 116,
      "chip": "ym2612"
    },
    {
      "channel": 0,
      "note": 97,
      "start": 7.46,
      "duration": 0.1087,
      "velocity": 116,
      "chip": "ym2612"
    },
    {
      "channel": 5,
      "note": 97,
      "start": 7.4852,
      "duration": 0.0323,
      "velocity": 116,
      "chip": "ym2612"
    },
    {
      "channel": 5,
      "note": 97,
      "start": 7.602,
      "duration": 0.1156,
      "velocity": 116,
      "chip": "ym2612"
    },
    {
      "channel": 3,
      "note": 49,
      "start": 7.682,
      "duration": 0.0324,
      "velocity": 104,
      "chip": "ym2612"
    },
    {
      "channel": 0,
      "note": 97,
      "start": 7.6871,
      "duration": 0.0315,
      "velocity": 116,
      "chip": "ym2612"
    },
    {
      "channel": 3,
      "note": 49,
      "start": 7.7986,
      "duration": 0.0325,
      "velocity": 104,
      "chip": "ym2612"
    },
    {
      "channel": 0,
      "note": 97,
      "start": 7.8039,
      "duration": 0.1195,
      "velocity": 116,
      "chip": "ym2612"
    },
    {
      "channel": 5,
      "note": 97,
      "start": 7.8353,
      "duration": 0.0323,
      "velocity": 116,
      "chip": "ym2612"
    },
    {
      "channel": 1,
      "note": 57,
      "start": 7.9174,
      "duration": 0.3461,
      "velocity": 125,
      "chip": "ym2612"
    },
    {
      "channel": 3,
      "note": 57,
      "start": 7.9191,
      "duration": 0.0286,
      "velocity": 104,
      "chip": "ym2612"
    },
    {
      "channel": 5,
      "note": 97,
      "start": 7.9519,
      "duration": 0.1157,
      "velocity": 116,
      "chip": "ym2612"
    },
    {
      "channel": 3,
      "note": 56,
      "start": 8.0319,
      "duration": 0.0325,
      "velocity": 104,
      "chip": "ym2612"
    },
    {
      "channel": 0,
      "note": 97,
      "start": 8.0371,
      "duration": 0.0315,
      "velocity": 116,
      "chip": "ym2612"
    },
    {
      "channel": 3,
      "note": 49,
      "start": 8.1486,
      "duration": 0.0325,
      "velocity": 104,
      "chip": "ym2612"
    },
    {
      "channel": 0,
      "note": 97,
      "start": 8.1538,
      "duration": 0.0326,
      "velocity": 116,
      "chip": "ym2612"
    },
    {
      "channel": 5,
      "note": 97,
      "start": 8.1853,
      "duration": 0.0323,
      "velocity": 116,
      "chip": "ym2612"
    },
    {
      "channel": 3,
      "note": 62,
      "start": 8.2653,
      "duration": 0.0325,
      "velocity": 104,
      "chip": "ym2612"
    },
    {
      "channel": 0,
      "note": 97,
      "start": 8.2705,
      "duration": 0.0326,
      "velocity": 116,
      "chip": "ym2612"
    },
    {
      "channel": 5,
      "note": 97,
      "start": 8.302,
      "duration": 0.0323,
      "velocity": 116,
      "chip": "ym2612"
    },
    {
      "channel": 3,
      "note": 49,
      "start": 8.3823,
      "duration": 0.0314,
      "velocity": 104,
      "chip": "ym2612"
    },
    {
      "channel": 0,
      "note": 97,
      "start": 8.3874,
      "duration": 0.098,
      "velocity": 116,
      "chip": "ym2612"
    },
    {
      "channel": 5,
      "note": 97,
      "start": 8.4178,
      "duration": 0.0324,
      "velocity": 116,
      "chip": "ym2612"
    },
    {
      "channel": 3,
      "note": 61,
      "start": 8.4812,
      "duration": 0.0492,
      "velocity": 104,
      "chip": "ym2612"
    },
    {
      "channel": 5,
      "note": 97,
      "start": 8.5346,
      "duration": 0.1164,
      "velocity": 116,
      "chip": "ym2612"
    },
    {
      "channel": 1,
      "note": 46,
      "start": 8.6,
      "duration": 0.0469,
      "velocity": 122,
      "chip": "ym2612"
    },
    {
      "channel": 3,
      "note": 49,
      "start": 8.6017,
      "duration": 0.0461,
      "velocity": 104,
      "chip": "ym2612"
    },
    {
      "channel": 0,
      "note": 97,
      "start": 8.607,
      "duration": 0.0451,
      "velocity": 116,
      "chip": "ym2612"
    },
    {
      "channel": 1,
      "note": 46,
      "start": 8.7145,
      "duration": 0.049,
      "velocity": 122,
      "chip": "ym2612"
    },
    {
      "channel": 3,
      "note": 49,
      "start": 8.7163,
      "duration": 0.0482,
      "velocity": 104,
      "chip": "ym2612"
    },
    {
      "channel": 0,
      "note": 97,
      "start": 8.7216,
      "duration": 0.1185,
      "velocity": 116,
      "chip": "ym2612"
    },
    {
      "channel": 5,
      "note": 97,
      "start": 8.7687,
      "duration": 0.0323,
      "velocity": 116,
      "chip": "ym2612"
    },
    {
      "channel": 1,
      "note": 57,
      "start": 8.8341,
      "duration": 0.3461,
      "velocity": 125,
      "chip": "ym2612"
    },
    {
      "channel": 3,
      "note": 57,
      "start": 8.8359,
      "duration": 0.0452,
      "velocity": 104,
      "chip": "ym2612"
    },
    {
      "channel": 5,
      "note": 97,
      "start": 8.8853,
      "duration": 0.1157,
      "velocity": 116,
      "chip": "ym2612"
    },
    {
      "channel": 3,
      "note": 56,
      "start": 8.9486,
      "duration": 0.0492,
      "velocity": 104,
      "chip": "ym2612"
    },
    {
      "channel": 0,
      "note": 97,
      "start": 8.9538,
      "duration": 0.0482,
      "velocity": 116,
      "chip": "ym2612"
    },
    {
      "channel": 3,
      "note": 62,
      "start": 9.0652,
      "duration": 0.0492,
      "velocity": 104,
      "chip": "ym2612"
    },
    {
      "channel": 0,
      "note": 97,
      "start": 9.0705,
      "duration": 0.0492,
      "velocity": 116,
      "chip": "ym2612"
    },
    {
      "channel": 5,
      "note": 97,
      "start": 9.1187,
      "duration": 0.0323,
      "velocity": 116,
      "chip": "ym2612"
    },
    {
      "channel": 3,
      "note": 61,
      "start": 9.182,
      "duration": 0.0492,
      "velocity": 104,
      "chip": "ym2612"
    },
    {
      "channel": 0,
      "note": 97,
      "start": 9.1873,
      "duration": 0.0492,
      "velocity": 116,
      "chip": "ym2612"
    },
    {
      "channel": 5,
      "note": 97,
      "start": 9.2354,
      "duration": 0.0323,
      "velocity": 116,
      "chip": "ym2612"
    },
    {
      "channel": 1,
      "note": 46,
      "start": 9.3009,
      "duration": 0.346,
      "velocity": 122,
      "chip": "ym2612"
    },
    {
      "channel": 3,
      "note": 49,
      "start": 9.3026,
      "duration": 0.0451,
      "velocity": 104,
      "chip": "ym2612"
    },
    {
      "channel": 4,
      "note": 56,
      "start": 9.3047,
      "duration": 1.745,
      "velocity": 116,
      "chip": "ym2612"
    },
    {
      "channel": 2,
      "note": 61,
      "start": 9.3068,
      "duration": 1.744,
      "velocity": 116,
      "chip": "ym2612"
    },
    {
      "channel": 0,
      "note": 97,
      "start": 9.31,
      "duration": 0.1095,
      "velocity": 116,
      "chip": "ym2612"
    },
    {
      "channel": 5,
      "note": 97,
      "start": 9.3519,
      "duration": 0.0323,
      "velocity": 116,
      "chip": "ym2612"
    },
    {
      "channel": 3,
      "note": 49,
      "start": 9.4152,
      "duration": 0.0492,
      "velocity": 104,
      "chip": "ym2612"
    },
    {
      "channel": 5,
      "note": 97,
      "start": 9.4687,
      "duration": 0.1156,
      "velocity": 116,
      "chip": "ym2612"
    },
    {
      "channel": 3,
      "note": 49,
      "start": 9.5319,
      "duration": 0.0492,
      "velocity": 104,
      "chip": "ym2612"
    },
    {
      "channel": 0,
      "note": 97,
      "start": 9.5371,
      "duration": 0.0482,
      "velocity": 116,
      "chip": "ym2612"
    },
    {
      "channel": 3,
      "note": 49,
      "start": 9.6486,
      "duration": 0.0492,
      "velocity": 104,
      "chip": "ym2612"
    },
    {
      "channel": 0,
      "note": 97,
      "start": 9.6539,
      "duration": 0.1195,
      "velocity": 116,
      "chip": "ym2612"
    },
    {
      "channel": 5,
      "note": 97,
      "start": 9.702,
      "duration": 0.0323,
      "velocity": 116,
      "chip": "ym2612"
    },
    {
      "channel": 1,
      "note": 57,
      "start": 9.7674,
      "duration": 0.3461,
      "velocity": 125,
      "chip": "ym2612"
    },
    {
      "channel": 3,
      "note": 64,
      "start": 9.7691,
      "duration": 0.0453,
      "velocity": 104,
      "chip": "ym2612"
    },
    {
      "channel": 5,
      "note": 97,
      "start": 9.8187,
      "duration": 0.1156,
      "velocity": 116,
      "chip": "ym2612"
    },
    {
      "channel": 3,
      "note": 62,
      "start": 9.8819,
      "duration": 0.0492,
      "velocity": 104,
      "chip": "ym2612"
    },
    {
      "channel": 0,
      "note": 97,
      "start": 9.8871,
      "duration": 0.0482,
      "velocity": 116,
      "chip": "ym2612"
    },
    {
      "channel": 3,
      "note": 49,
      "start": 9.9986,
      "duration": 0.0492,
      "velocity": 104,
      "chip": "ym2612"
    },
    {
      "channel": 0,
      "note": 97,
      "start": 10.0038,
      "duration": 0.0492,
      "velocity": 116,
      "chip": "ym2612"
    },
    {
      "channel": 5,
      "note": 97,
      "start": 10.052,
      "duration": 0.0323,
      "velocity": 116,
      "chip": "ym2612"
    },
    {
      "channel": 3,
      "note": 61,
      "start": 10.1153,
      "duration": 0.0492,
      "velocity": 104,
      "chip": "ym2612"
    },
    {
      "channel": 0,
      "note": 97,
      "start": 10.1205,
      "duration": 0.0492,
      "velocity": 116,
      "chip": "ym2612"
    },
    {
      "channel": 5,
      "note": 97,
      "start": 10.1687,
      "duration": 0.0323,
      "velocity": 116,
      "chip": "ym2612"
    },
    {
      "channel": 3,
      "note": 56,
      "start": 10.2323,
      "duration": 0.0481,
      "velocity": 104,
      "chip": "ym2612"
    },
    {
      "channel": 0,
      "note": 97,
      "start": 10.2374,
      "duration": 0.1147,
      "velocity": 116,
      "chip": "ym2612"
    },
    {
      "channel": 5,
      "note": 97,
      "start": 10.2845,
      "duration": 0.0324,
      "velocity": 116,
      "chip": "ym2612"
    },
    {
      "channel": 3,
      "note": 62,
      "start": 10.3479,
      "duration": 0.0492,
      "velocity": 104,
      "chip": "ym2612"
    },
    {
      "channel": 5,
      "note": 97,
      "start": 10.4012,
      "duration": 0.1164,
      "velocity": 116,
      "chip": "ym2612"
    },
    {
      "channel": 1,
      "note": 46,
      "start": 10.4666,
      "duration": 0.0469,
      "velocity": 122,
      "chip": "ym2612"
    },
    {
      "channel": 3,
      "note": 61,
      "start": 10.4684,
      "duration": 0.0461,
      "velocity": 104,
      "chip": "ym2612"
    },
    {
      "channel": 0,
      "note": 97,
      "start": 10.4736,
      "duration": 0.0451,
      "velocity": 116,
      "chip": "ym2612"
    },
    {
      "channel": 1,
      "note": 46,
      "start": 10.5812,
      "duration": 0.0323,
      "velocity": 122,
      "chip": "ym2612"
    },
    {
      "channel": 3,
      "note": 57,
      "start": 10.583,
      "duration": 0.0315,
      "velocity": 104,
      "chip": "ym2612"
    },
    {
      "channel": 0,
      "note": 97,
      "start": 10.5883,
      "duration": 0.1185,
      "velocity": 116,
      "chip": "ym2612"
    },
    {
      "channel": 5,
      "note": 97,
      "start": 10.6187,
      "duration": 0.049,
      "velocity": 116,
      "chip": "ym2612"
    },
    {
      "channel": 1,
      "note": 57,
      "start": 10.7007,
      "duration": 0.3461,
      "velocity": 125,
      "chip": "ym2612"
    },
    {
      "channel": 3,
      "note": 52,
      "start": 10.7025,
      "duration": 0.0285,
      "velocity": 104,
      "chip": "ym2612"
    },
    {
      "channel": 5,
      "note": 97,
      "start": 10.7353,
      "duration": 0.1157,
      "velocity": 116,
      "chip": "ym2612"
    },
    {
      "channel": 3,
      "note": 51,
      "start": 10.8152,
      "duration": 0.0325,
      "velocity": 104,
      "chip": "ym2612"
    },
    {
      "channel": 0,
      "note": 97,
      "start": 10.8205,
      "duration": 0.0315,
      "velocity": 116,
      "chip": "ym2612"
    },
    {
      "channel": 3,
      "note": 49,
      "start": 10.9319,
      "duration": 0.0325,
      "velocity": 104,
      "chip": "ym2612"
    },
    {
      "channel": 0,
      "note": 97,
      "start": 10.9371,
      "duration": 0.0326,
      "velocity": 116,
      "chip": "ym2612"
    },
    {
      "channel": 5,
      "note": 97,
      "start": 10.9687,
      "duration": 0.0489,
      "velocity": 116,
      "chip": "ym2612"
    },
    {
      "channel": 3,
      "note": 62,
      "start": 11.0486,
      "duration": 0.0325,
      "velocity": 104,
      "chip": "ym2612"
    },
    {
      "channel": 0,
      "note": 97,
      "start": 11.054,
      "duration": 0.0325,
      "velocity": 116,
      "chip": "ym2612"
    },
    {
      "channel": 5,
      "note": 97,
      "start": 11.0854,
      "duration": 0.049,
      "velocity": 116,
      "chip": "ym2612"
    },
    {
      "channel": 1,
      "note": 46,
      "start": 11.1675,
      "duration": 0.346,
      "velocity": 122,
      "chip": "ym2612"
    },
    {
      "channel": 3,
      "note": 49,
      "start": 11.1693,
      "duration": 0.0285,
      "velocity": 104,
      "chip": "ym2612"
    },
    {
      "channel": 4,
      "note": 58,
      "start": 11.1715,
      "duration": 1.7449,
      "velocity": 116,
      "chip": "ym2612"
    },
    {
      "channel": 2,
      "note": 64,
      "start": 11.1736,
      "duration": 1.7439,
      "velocity": 116,
      "chip": "ym2612"
    },
    {
      "channel": 0,
      "note": 97,
      "start": 11.1768,
      "duration": 0.1094,
      "velocity": 116,
      "chip": "ym2612"
    },
    {
      "channel": 5,
      "note": 97,
      "start": 11.2019,
      "duration": 0.049,
      "velocity": 116,
      "chip": "ym2612"
    },
    {
      "channel": 3,
      "note": 49,
      "start": 11.2819,
      "duration": 0.0325,
      "velocity": 104,
      "chip": "ym2612"
    },
    {
      "channel": 5,
      "note": 97,
      "start": 11.3187,
      "duration": 0.1156,
      "velocity": 116,
      "chip": "ym2612"
    },
    {
      "channel": 3,
      "note": 49,
      "start": 11.3986,
      "duration": 0.0325,
      "velocity": 104,
      "chip": "ym2612"
    },
    {
      "channel": 0,
      "note": 97,
      "start": 11.4038,
      "duration": 0.0315,
      "velocity": 116,
      "chip": "ym2612"
    },
    {
      "channel": 3,
      "note": 49,
      "start": 11.5153,
      "duration": 0.0325,
      "velocity": 104,
      "chip": "ym2612"
    },
    {
      "channel": 0,
      "note": 97,
      "start": 11.5206,
      "duration": 0.1195,
      "velocity": 116,
      "chip": "ym2612"
    },
    {
      "channel": 5,
      "note": 97,
      "start": 11.552,
      "duration": 0.049,
      "velocity": 116,
      "chip": "ym2612"
    },
    {
      "channel": 1,
      "note": 57,
      "start": 11.6341,
      "duration": 0.3462,
      "velocity": 125,
      "chip": "ym2612"
    },
    {
      "channel": 3,
      "note": 56,
      "start": 11.6358,
      "duration": 0.0286,
      "velocity": 104,
      "chip": "ym2612"
    },
    {
      "channel": 5,
      "note": 97,
      "start": 11.6686,
      "duration": 0.1157,
      "velocity": 116,
      "chip": "ym2612"
    },
    {
      "channel": 3,
      "note": 57,
      "start": 11.7486,
      "duration": 0.0325,
      "velocity": 104,
      "chip": "ym2612"
    },
    {
      "channel": 0,
      "note": 97,
      "start": 11.7538,
      "duration": 0.0315,
      "velocity": 116,
      "chip": "ym2612"
    },
    {
      "channel": 3,
      "note": 49,
      "start": 11.8652,
      "duration": 0.0325,
      "velocity": 104,
      "chip": "ym2612"
    },
    {
      "channel": 0,
      "note": 97,
      "start": 11.8705,
      "duration": 0.0326,
      "velocity": 116,
      "chip": "ym2612"
    },
    {
      "channel": 5,
      "note": 97,
      "start": 11.902,
      "duration": 0.0489,
      "velocity": 116,
      "chip": "ym2612"
    },
    {
      "channel": 3,
      "note": 49,
      "start": 11.982,
      "duration": 0.0325,
      "velocity": 104,
      "chip": "ym2612"
    },
    {
      "channel": 0,
      "note": 97,
      "start": 11.9872,
      "duration": 0.0326,
      "velocity": 116,
      "chip": "ym2612"
    },
    {
      "channel": 5,
      "note": 97,
      "start": 12.0187,
      "duration": 0.049,
      "velocity": 116,
      "chip": "ym2612"
    },
    {
      "channel": 3,
      "note": 49,
      "start": 12.099,
      "duration": 0.0314,
      "velocity": 104,
      "chip": "ym2612"
    },
    {
      "channel": 0,
      "note": 97,
      "start": 12.1041,
      "duration": 0.1147,
      "velocity": 116,
      "chip": "ym2612"
    },
    {
      "channel": 5,
      "note": 97,
      "start": 12.1345,
      "duration": 0.049,
      "velocity": 116,
      "chip": "ym2612"
    },
    {
      "channel": 3,
      "note": 58,
      "start": 12.2145,
      "duration": 0.0325,
      "velocity": 104,
      "chip": "ym2612"
    },
    {
      "channel": 5,
      "note": 97,
      "start": 12.2512,
      "duration": 0.1164,
      "velocity": 116,
      "chip": "ym2612"
    },
    {
      "channel": 1,
      "note": 46,
      "start": 12.3333,
      "duration": 0.0302,
      "velocity": 122,
      "chip": "ym2612"
    },
    {
      "channel": 3,
      "note": 49,
      "start": 12.3351,
      "duration": 0.0294,
      "velocity": 104,
      "chip": "ym2612"
    },
    {
      "channel": 0,
      "note": 97,
      "start": 12.3403,
      "duration": 0.0284,
      "velocity": 116,
      "chip": "ym2612"
    },
    {
      "channel": 1,
      "note": 46,
      "start": 12.4479,
      "duration": 0.0323,
      "velocity": 122,
      "chip": "ym2612"
    },
    {
      "channel": 3,
      "note": 57,
      "start": 12.4496,
      "duration": 0.0315,
      "velocity": 104,
      "chip": "ym2612"
    },
    {
      "channel": 0,
      "note": 97,
      "start": 12.4549,
      "duration": 0.1185,
      "velocity": 116,
      "chip": "ym2612"
    },
    {
      "channel": 5,
      "note": 97,
      "start": 12.4853,
      "duration": 0.049,
      "velocity": 116,
      "chip": "ym2612"
    },
    {
      "channel": 1,
      "note": 57,
      "start": 12.5674,
      "duration": 0.3461,
      "velocity": 125,
      "chip": "ym2612"
    },
    {
      "channel": 3,
      "note": 49,
      "start": 12.5692,
      "duration": 0.0285,
      "velocity": 104,
      "chip": "ym2612"
    },
    {
      "channel": 5,
      "note": 97,
      "start": 12.6019,
      "duration": 0.1157,
      "velocity": 116,
      "chip": "ym2612"
    },
    {
      "channel": 3,
      "note": 56,
      "start": 12.6819,
      "duration": 0.0325,
      "velocity": 104,
      "chip": "ym2612"
    },
    {
      "channel": 0,
      "note": 97,
      "start": 12.6872,
      "duration": 0.0315,
      "velocity": 116,
      "chip": "ym2612"
    },
    {
      "channel": 3,
      "note": 49,
      "start": 12.7986,
      "duration": 0.0325,
      "velocity": 104,
      "chip": "ym2612"
    },
    {
      "channel": 0,
      "note": 97,
      "start": 12.8038,
      "duration": 0.0326,
      "velocity": 116,
      "chip": "ym2612"
    },
    {
      "channel": 5,
      "note": 97,
      "start": 12.8353,
      "duration": 0.0323,
      "velocity": 116,
      "chip": "ym2612"
    },
    {
      "channel": 3,
      "note": 54,
      "start": 12.9153,
      "duration": 0.0325,
      "velocity": 104,
      "chip": "ym2612"
    },
    {
      "channel": 0,
      "note": 97,
      "start": 12.9206,
      "duration": 0.0325,
      "velocity": 116,
      "chip": "ym2612"
    },
    {
      "channel": 5,
      "note": 97,
      "start": 12.9521,
      "duration": 0.0324,
      "velocity": 116,
      "chip": "ym2612"
    },
    {
      "channel": 1,
      "note": 46,
      "start": 13.0342,
      "duration": 0.346,
      "velocity": 122,
      "chip": "ym2612"
    },
    {
      "channel": 3,
      "note": 49,
      "start": 13.0359,
      "duration": 0.0285,
      "velocity": 104,
      "chip": "ym2612"
    },
    {
      "channel": 4,
      "note": 57,
      "start": 13.038,
      "duration": 1.745,
      "velocity": 116,
      "chip": "ym2612"
    },
    {
      "channel": 2,
      "note": 63,
      "start": 13.0401,
      "duration": 1.744,
      "velocity": 116,
      "chip": "ym2612"
    },
    {
      "channel": 0,
      "note": 97,
      "start": 13.0433,
      "duration": 0.1095,
      "velocity": 116,
      "chip": "ym2612"
    },
    {
      "channel": 5,
      "note": 97,
      "start": 13.0686,
      "duration": 0.0323,
      "velocity": 116,
      "chip": "ym2612"
    },
    {
      "channel": 3,
      "note": 49,
      "start": 13.1486,
      "duration": 0.0325,
      "velocity": 104,
      "chip": "ym2612"
    },
    {
      "channel": 5,
      "note": 97,
      "start": 13.1853,
      "duration": 0.1156,
      "velocity": 116,
      "chip": "ym2612"
    },
    {
      "channel": 3,
      "note": 49,
      "start": 13.2652,
      "duration": 0.0325,
      "velocity": 104,
      "chip": "ym2612"
    },
    {
      "channel": 0,
      "note": 97,
      "start": 13.2705,
      "duration": 0.0315,
      "velocity": 116,
      "chip": "ym2612"
    },
    {
      "channel": 3,
      "note": 49,
      "start": 13.382,
      "duration": 0.0325,
      "velocity": 104,
      "chip": "ym2612"
    },
    {
      "channel": 0,
      "note": 97,
      "start": 13.3872,
      "duration": 0.1195,
      "velocity": 116,
      "chip": "ym2612"
    },
    {
      "channel": 5,
      "note": 97,
      "start": 13.4187,
      "duration": 0.0323,
      "velocity": 116,
      "chip": "ym2612"
    },
    {
      "channel": 1,
      "note": 57,
      "start": 13.5007,
      "duration": 0.3461,
      "velocity": 125,
      "chip": "ym2612"
    },
    {
      "channel": 3,
      "note": 56,
      "start": 13.5024,
      "duration": 0.0286,
      "velocity": 104,
      "chip": "ym2612"
    },
    {
      "channel": 5,
      "note": 97,
      "start": 13.5353,
      "duration": 0.1157,
      "velocity": 116,
      "chip": "ym2612"
    },
    {
      "channel": 3,
      "note": 57,
      "start": 13.6152,
      "duration": 0.0325,
      "velocity": 104,
      "chip": "ym2612"
    },
    {
      "channel": 0,
      "note": 97,
      "start": 13.6205,
      "duration": 0.0315,
      "velocity": 116,
      "chip": "ym2612"
    },
    {
      "channel": 3,
      "note": 49,
      "start": 13.7319,
      "duration": 0.0325,
      "velocity": 104,
      "chip": "ym2612"
    },
    {
      "channel": 0,
      "note": 97,
      "start": 13.7371,
      "duration": 0.0326,
      "velocity": 116,
      "chip": "ym2612"
    },
    {
      "channel": 5,
      "note": 97,
      "start": 13.7687,
      "duration": 0.0323,
      "velocity": 116,
      "chip": "ym2612"
    },
    {
      "channel": 3,
      "note": 49,
      "start": 13.8486,
      "duration": 0.0325,
      "velocity": 104,
      "chip": "ym2612"
    },
    {
      "channel": 0,
      "note": 97,
      "start": 13.8539,
      "duration": 0.0326,
      "velocity": 116,
      "chip": "ym2612"
    },
    {
      "channel": 5,
      "note": 97,
      "start": 13.8853,
      "duration": 0.0323,
      "velocity": 116,
      "chip": "ym2612"
    },
    {
      "channel": 3,
      "note": 58,
      "start": 13.9656,
      "duration": 0.0314,
      "velocity": 104,
      "chip": "ym2612"
    },
    {
      "channel": 0,
      "note": 97,
      "start": 13.9708,
      "duration": 0.1147,
      "velocity": 116,
      "chip": "ym2612"
    },
    {
      "channel": 5,
      "note": 97,
      "start": 14.0012,
      "duration": 0.0324,
      "velocity": 116,
      "chip": "ym2612"
    },
    {
      "channel": 3,
      "note": 49,
      "start": 14.0812,
      "duration": 0.0325,
      "velocity": 104,
      "chip": "ym2612"
    },
    {
      "channel": 5,
      "note": 97,
      "start": 14.1179,
      "duration": 0.1164,
      "velocity": 116,
      "chip": "ym2612"
    },
    {
      "channel": 1,
      "note": 46,
      "start": 14.2,
      "duration": 0.0302,
      "velocity": 122,
      "chip": "ym2612"
    },
    {
      "channel": 3,
      "note": 57,
      "start": 14.2017,
      "duration": 0.0294,
      "velocity": 104,
      "chip": "ym2612"
    },
    {
      "channel": 0,
      "note": 97,
      "start": 14.207,
      "duration": 0.0284,
      "velocity": 116,
      "chip": "ym2612"
    },
    {
      "channel": 1,
      "note": 46,
      "start": 14.3145,
      "duration": 0.0323,
      "velocity": 122,
      "chip": "ym2612"
    },
    {
      "channel": 3,
      "note": 49,
      "start": 14.3163,
      "duration": 0.0315,
      "velocity": 104,
      "chip": "ym2612"
    },
    {
      "channel": 0,
      "note": 97,
      "start": 14.3216,
      "duration": 0.1185,
      "velocity": 116,
      "chip": "ym2612"
    },
    {
      "channel": 5,
      "note": 97,
      "start": 14.352,
      "duration": 0.0324,
      "velocity": 116,
      "chip": "ym2612"
    },
    {
      "channel": 1,
      "note": 57,
      "start": 14.4341,
      "duration": 0.3461,
      "velocity": 125,
      "chip": "ym2612"
    },
    {
      "channel": 3,
      "note": 56,
      "start": 14.4359,
      "duration": 0.0285,
      "velocity": 104,
      "chip": "ym2612"
    },
    {
      "channel": 5,
      "note": 97,
      "start": 14.4686,
      "duration": 0.1157,
      "velocity": 116,
      "chip": "ym2612"
    },
    {
      "channel": 3,
      "note": 49,
      "start": 14.5486,
      "duration": 0.0325,
      "velocity": 104,
      "chip": "ym2612"
    },
    {
      "channel": 0,
      "note": 97,
      "start": 14.5539,
      "duration": 0.0315,
      "velocity": 116,
      "chip": "ym2612"
    },
    {
      "channel": 3,
      "note": 56,
      "start": 14.6652,
      "duration": 0.0325,
      "velocity": 104,
      "chip": "ym2612"
    },
    {
      "channel": 0,
      "note": 97,
      "start": 14.6705,
      "duration": 0.0326,
      "velocity": 116,
      "chip": "ym2612"
    },
    {
      "channel": 5,
      "note": 97,
      "start": 14.702,
      "duration": 0.0323,
      "velocity": 116,
      "chip": "ym2612"
    },
    {
      "channel": 3,
      "note": 57,
      "start": 14.782,
      "duration": 0.0325,
      "velocity": 104,
      "chip": "ym2612"
    },
    {
      "channel": 0,
      "note": 97,
      "start": 14.7873,
      "duration": 0.0325,
      "velocity": 116,
      "chip": "ym2612"
    },
    {
      "channel": 5,
      "note": 97,
      "start": 14.8187,
      "duration": 0.0324,
      "velocity": 116,
      "chip": "ym2612"
    },
    {
      "channel": 1,
      "note": 46,
      "start": 14.8842,
      "duration": 0.346,
      "velocity": 122,
      "chip": "ym2612"
    },
    {
      "channel": 3,
      "note": 49,
      "start": 14.8859,
      "duration": 0.0451,
      "velocity": 104,
      "chip": "ym2612"
    },
    {
      "channel": 4,
      "note": 57,
      "start": 14.8881,
      "duration": 1.745,
      "velocity": 116,
      "chip": "ym2612"
    },
    {
      "channel": 2,
      "note": 62,
      "start": 14.8901,
      "duration": 1.744,
      "velocity": 116,
      "chip": "ym2612"
    },
    {
      "channel": 0,
      "note": 97,
      "start": 14.8933,
      "duration": 0.1095,
      "velocity": 116,
      "chip": "ym2612"
    },
    {
      "channel": 5,
      "note": 97,
      "start": 14.9353,
      "duration": 0.0323,
      "velocity": 116,
      "chip": "ym2612"
    },
    {
      "channel": 3,
      "note": 54,
      "start": 14.9986,
      "duration": 0.0492,
      "velocity": 104,
      "chip": "ym2612"
    },
    {
      "channel": 5,
      "note": 97,
      "start": 15.052,
      "duration": 0.1156,
      "velocity": 116,
      "chip": "ym2612"
    },
    {
      "channel": 3,
      "note": 56,
      "start": 15.1152,
      "duration": 0.0492,
      "velocity": 104,
      "chip": "ym2612"
    },
    {
      "channel": 0,
      "note": 97,
      "start": 15.1205,
      "duration": 0.0482,
      "velocity": 116,
      "chip": "ym2612"
    },
    {
      "channel": 3,
      "note": 57,
      "start": 15.232,
      "duration": 0.0492,
      "velocity": 104,
      "chip": "ym2612"
    },
    {
      "channel": 0,
      "note": 97,
      "start": 15.2372,
      "duration": 0.1195,
      "velocity": 116,
      "chip": "ym2612"
    },
    {
      "channel": 5,
      "note": 97,
      "start": 15.2854,
      "duration": 0.0322,
      "velocity": 116,
      "chip": "ym2612"
    },
    {
      "channel": 1,
      "note": 57,
      "start": 15.3507,
      "duration": 0.3461,
      "velocity": 125,
      "chip": "ym2612"
    },
    {
      "channel": 3,
      "note": 49,
      "start": 15.3524,
      "duration": 0.0453,
      "velocity": 104,
      "chip": "ym2612"
    },
    {
      "channel": 5,
      "note": 97,
      "start": 15.402,
      "duration": 0.1156,
      "velocity": 116,
      "chip": "ym2612"
    },
    {
      "channel": 3,
      "note": 54,
      "start": 15.4652,
      "duration": 0.0492,
      "velocity": 104,
      "chip": "ym2612"
    },
    {
      "channel": 0,
      "note": 97,
      "start": 15.4705,
      "duration": 0.0482,
      "velocity": 116,
      "chip": "ym2612"
    },
    {
      "channel": 3,
      "note": 56,
      "start": 15.5819,
      "duration": 0.0492,
      "velocity": 104,
      "chip": "ym2612"
    },
    {
      "channel": 0,
      "note": 97,
      "start": 15.5871,
      "duration": 0.0492,
      "velocity": 116,
      "chip": "ym2612"
    },
    {
      "channel": 5,
      "note": 97,
      "start": 15.6353,
      "duration": 0.0323,
      "velocity": 116,
      "chip": "ym2612"
    },
    {
      "channel": 3,
      "note": 57,
      "start": 15.6986,
      "duration": 0.0492,
      "velocity": 104,
      "chip": "ym2612"
    },
    {
      "channel": 0,
      "note": 97,
      "start": 15.7039,
      "duration": 0.0492,
      "velocity": 116,
      "chip": "ym2612"
    },
    {
      "channel": 5,
      "note": 97,
      "start": 15.752,
      "duration": 0.0323,
      "velocity": 116,
      "chip": "ym2612"
    },
    {
      "channel": 3,
      "note": 49,
      "start": 15.8156,
      "duration": 0.0481,
      "velocity": 104,
      "chip": "ym2612"
    },
    {
      "channel": 0,
      "note": 97,
      "start": 15.8208,
      "duration": 0.1147,
      "velocity": 116,
      "chip": "ym2612"
    },
    {
      "channel": 5,
      "note": 97,
      "start": 15.8678,
      "duration": 0.0324,
      "velocity": 116,
      "chip": "ym2612"
    },
    {
      "channel": 3,
      "note": 54,
      "start": 15.9312,
      "duration": 0.0492,
      "velocity": 104,
      "chip": "ym2612"
    },
    {
      "channel": 5,
      "note": 97,
      "start": 15.9846,
      "duration": 0.1164,
      "velocity": 116,
      "chip": "ym2612"
    },
    {
      "channel": 1,
      "note": 46,
      "start": 16.05,
      "duration": 0.0469,
      "velocity": 122,
      "chip": "ym2612"
    },
    {
      "channel": 3,
      "note": 56,
      "start": 16.0517,
      "duration": 0.0461,
      "velocity": 104,
      "chip": "ym2612"
    },
    {
      "channel": 0,
      "note": 97,
      "start": 16.057,
      "duration": 0.0451,
      "velocity": 116,
      "chip": "ym2612"
    },
    {
      "channel": 1,
      "note": 46,
      "start": 16.1645,
      "duration": 0.049,
      "velocity": 122,
      "chip": "ym2612"
    },
    {
      "channel": 3,
      "note": 57,
      "start": 16.1663,
      "duration": 0.0482,
      "velocity": 104,
      "chip": "ym2612"
    },
    {
      "channel": 0,
      "note": 97,
      "start": 16.1716,
      "duration": 0.1185,
      "velocity": 116,
      "chip": "ym2612"
    },
    {
      "channel": 5,
      "note": 97,
      "start": 16.2187,
      "duration": 0.0323,
      "velocity": 116,
      "chip": "ym2612"
    },
    {
      "channel": 1,
      "note": 57,
      "start": 16.2841,
      "duration": 0.3462,
      "velocity": 125,
      "chip": "ym2612"
    },
    {
      "channel": 3,
      "note": 49,
      "start": 16.2859,
      "duration": 0.0452,
      "velocity": 104,
      "chip": "ym2612"
    },
    {
      "channel": 5,
      "note": 97,
      "start": 16.3353,
      "duration": 0.1157,
      "velocity": 116,
      "chip": "ym2612"
    },
    {
      "channel": 3,
      "note": 49,
      "start": 16.3986,
      "duration": 0.0492,
      "velocity": 104,
      "chip": "ym2612"
    },
    {
      "channel": 0,
      "note": 97,
      "start": 16.4039,
      "duration": 0.0481,
      "velocity": 116,
      "chip": "ym2612"
    },
    {
      "channel": 3,
      "note": 62,
      "start": 16.5152,
      "duration": 0.0492,
      "velocity": 104,
      "chip": "ym2612"
    },
    {
      "channel": 0,
      "note": 97,
      "start": 16.5205,
      "duration": 0.0493,
      "velocity": 116,
      "chip": "ym2612"
    },
    {
      "channel": 5,
      "note": 97,
      "start": 16.5687,
      "duration": 0.0322,
      "velocity": 116,
      "chip": "ym2612"
    },
    {
      "channel": 3,
      "note": 61,
      "start": 16.632,
      "duration": 0.0492,
      "velocity": 104,
      "chip": "ym2612"
    },
    {
      "channel": 0,
      "note": 97,
      "start": 16.6373,
      "duration": 0.0492,
      "velocity": 116,
      "chip": "ym2612"
    },
    {
      "channel": 5,
      "note": 97,
      "start": 16.6854,
      "duration": 0.0323,
      "velocity": 116,
      "chip": "ym2612"
    },
    {
      "channel": 1,
      "note": 46,
      "start": 16.7508,
      "duration": 0.3461,
      "velocity": 122,
      "chip": "ym2612"
    },
    {
      "channel": 3,
      "note": 49,
      "start": 16.7526,
      "duration": 0.0451,
      "velocity": 104,
      "chip": "ym2612"
    },
    {
      "channel": 4,
      "note": 56,
      "start": 16.7547,
      "duration": 1.7461,
      "velocity": 116,
      "chip": "ym2612"
    },
    {
      "channel": 2,
      "note": 61,
      "start": 16.7567,
      "duration": 1.7451,
      "velocity": 116,
      "chip": "ym2612"
    },
    {
      "channel": 0,
      "note": 97,
      "start": 16.7599,
      "duration": 0.1096,
      "velocity": 116,
      "chip": "ym2612"
    },
    {
      "channel": 5,
      "note": 97,
      "start": 16.8019,
      "duration": 0.0323,
      "velocity": 116,
      "chip": "ym2612"
    },
    {
      "channel": 3,
      "note": 64,
      "start": 16.8652,
      "duration": 0.0492,
      "velocity": 104,
      "chip": "ym2612"
    },
    {
      "channel": 5,
      "note": 97,
      "start": 16.9187,
      "duration": 0.0989,
      "velocity": 116,
      "chip": "ym2612"
    },
    {
      "channel": 3,
      "note": 49,
      "start": 16.9819,
      "duration": 0.0325,
      "velocity": 104,
      "chip": "ym2612"
    },
    {
      "channel": 0,
      "note": 97,
      "start": 16.9871,
      "duration": 0.0315,
      "velocity": 116,
      "chip": "ym2612"
    },
    {
      "channel": 3,
      "note": 62,
      "start": 17.0986,
      "duration": 0.0325,
      "velocity": 104,
      "chip": "ym2612"
    },
    {
      "channel": 0,
      "note": 97,
      "start": 17.1039,
      "duration": 0.1195,
      "velocity": 116,
      "chip": "ym2612"
    },
    {
      "channel": 5,
      "note": 97,
      "start": 17.1353,
      "duration": 0.049,
      "velocity": 116,
      "chip": "ym2612"
    },
    {
      "channel": 1,
      "note": 57,
      "start": 17.2174,
      "duration": 0.3461,
      "velocity": 125,
      "chip": "ym2612"
    },
    {
      "channel": 3,
      "note": 49,
      "start": 17.2191,
      "duration": 0.0286,
      "velocity": 104,
      "chip": "ym2612"
    },
    {
      "channel": 5,
      "note": 97,
      "start": 17.2519,
      "duration": 0.1157,
      "velocity": 116,
      "chip": "ym2612"
    },
    {
      "channel": 3,
      "note": 61,
      "start": 17.3319,
      "duration": 0.0325,
      "velocity": 104,
      "chip": "ym2612"
    },
    {
      "channel": 0,
      "note": 97,
      "start": 17.3371,
      "duration": 0.0315,
      "velocity": 116,
      "chip": "ym2612"
    },
    {
      "channel": 3,
      "note": 49,
      "start": 17.4486,
      "duration": 0.0325,
      "velocity": 104,
      "chip": "ym2612"
    },
    {
      "channel": 0,
      "note": 97,
      "start": 17.4538,
      "duration": 0.0326,
      "velocity": 116,
      "chip": "ym2612"
    },
    {
      "channel": 5,
      "note": 97,
      "start": 17.4853,
      "duration": 0.0489,
      "velocity": 116,
      "chip": "ym2612"
    },
    {
      "channel": 3,
      "note": 58,
      "start": 17.5653,
      "duration": 0.0325,
      "velocity": 104,
      "chip": "ym2612"
    },
    {
      "channel": 0,
      "note": 97,
      "start": 17.5705,
      "duration": 0.0326,
      "velocity": 116,
      "chip": "ym2612"
    },
    {
      "channel": 5,
      "note": 97,
      "start": 17.602,
      "duration": 0.049,
      "velocity": 116,
      "chip": "ym2612"
    },
    {
      "channel": 3,
      "note": 49,
      "start": 17.6823,
      "duration": 0.0314,
      "velocity": 104,
      "chip": "ym2612"
    },
    {
      "channel": 0,
      "note": 97,
      "start": 17.6874,
      "duration": 0.1147,
      "velocity": 116,
      "chip": "ym2612"
    },
    {
      "channel": 5,
      "note": 97,
      "start": 17.7178,
      "duration": 0.049,
      "velocity": 116,
      "chip": "ym2612"
    },
    {
      "channel": 3,
      "note": 49,
      "start": 17.7979,
      "duration": 0.0325,
      "velocity": 104,
      "chip": "ym2612"
    },
    {
      "channel": 5,
      "note": 97,
      "start": 17.8346,
      "duration": 0.1164,
      "velocity": 116,
      "chip": "ym2612"
    },
    {
      "channel": 1,
      "note": 46,
      "start": 17.9166,
      "duration": 0.0302,
      "velocity": 122,
      "chip": "ym2612"
    },
    {
      "channel": 3,
      "note": 56,
      "start": 17.9184,
      "duration": 0.0294,
      "velocity": 104,
      "chip": "ym2612"
    },
    {
      "channel": 0,
      "note": 97,
      "start": 17.9236,
      "duration": 0.0284,
      "velocity": 116,
      "chip": "ym2612"
    },
    {
      "channel": 1,
      "note": 46,
      "start": 18.0312,
      "duration": 0.0323,
      "velocity": 122,
      "chip": "ym2612"
    },
    {
      "channel": 3,
      "note": 57,
      "start": 18.033,
      "duration": 0.0315,
      "velocity": 104,
      "chip": "ym2612"
    },
    {
      "channel": 0,
      "note": 97,
      "start": 18.0383,
      "duration": 0.1185,
      "velocity": 116,
      "chip": "ym2612"
    },
    {
      "channel": 5,
      "note": 97,
      "start": 18.0687,
      "duration": 0.049,
      "velocity": 116,
      "chip": "ym2612"
    },
    {
      "channel": 1,
      "note": 57,
      "start": 18.1507,
      "duration": 0.0295,
      "velocity": 125,
      "chip": "ym2612"
    },
    {
      "channel": 3,
      "note": 49,
      "start": 18.1524,
      "duration": 0.0287,
      "velocity": 104,
      "chip": "ym2612"
    },
    {
      "channel": 5,
      "note": 97,
      "start": 18.1853,
      "duration": 0.1156,
      "velocity": 116,
      "chip": "ym2612"
    },
    {
      "channel": 1,
      "note": 57,
      "start": 18.2645,
      "duration": 0.0323,
      "velocity": 125,
      "chip": "ym2612"
    },
    {
      "channel": 3,
      "note": 61,
      "start": 18.2663,
      "duration": 0.0315,
      "velocity": 104,
      "chip": "ym2612"
    },
    {
      "channel": 0,
      "note": 97,
      "start": 18.2716,
      "duration": 0.0305,
      "velocity": 116,
      "chip": "ym2612"
    },
    {
      "channel": 1,
      "note": 57,
      "start": 18.3812,
      "duration": 0.0323,
      "velocity": 125,
      "chip": "ym2612"
    },
    {
      "channel": 3,
      "note": 49,
      "start": 18.383,
      "duration": 0.0315,
      "velocity": 104,
      "chip": "ym2612"
    },
    {
      "channel": 0,
      "note": 97,
      "start": 18.3882,
      "duration": 0.0315,
      "velocity": 116,
      "chip": "ym2612"
    },
    {
      "channel": 5,
      "note": 97,
      "start": 18.4187,
      "duration": 0.0489,
      "velocity": 116,
      "chip": "ym2612"
    },
    {
      "channel": 1,
      "note": 57,
      "start": 18.4979,
      "duration": 0.0323,
      "velocity": 125,
      "chip": "ym2612"
    },
    {
      "channel": 3,
      "note": 62,
      "start": 18.4996,
      "duration": 0.0315,
      "velocity": 104,
      "chip": "ym2612"
    },
    {
      "channel": 0,
      "note": 97,
      "start": 18.505,
      "duration": 0.0315,
      "velocity": 116,
      "chip": "ym2612"
    },
    {
      "channel": 5,
      "note": 97,
      "start": 18.5354,
      "duration": 0.049,
      "velocity": 116,
      "chip": "ym2612"
    },
    {
      "channel": 1,
      "note": 46,
      "start": 18.6175,
      "duration": 0.346,
      "velocity": 122,
      "chip": "ym2612"
    },
    {
      "channel": 3,
      "note": 49,
      "start": 18.6194,
      "duration": 0.1116,
      "velocity": 104,
      "chip": "ym2612"
    },
    {
      "channel": 4,
      "note": 58,
      "start": 18.6216,
      "duration": 0.4625,
      "velocity": 116,
      "chip": "ym2612"
    },
    {
      "channel": 2,
      "note": 64,
      "start": 18.6237,
      "duration": 0.4604,
      "velocity": 116,
      "chip": "ym2612"
    },
    {
      "channel": 0,
      "note": 97,
      "start": 18.6269,
      "duration": 0.1084,
      "velocity": 116,
      "chip": "ym2612"
    },
    {
      "channel": 5,
      "note": 97,
      "start": 18.6519,
      "duration": 0.049,
      "velocity": 116,
      "chip": "ym2612"
    },
    {
      "channel": 5,
      "note": 97,
      "start": 18.7687,
      "duration": 0.1156,
      "velocity": 116,
      "chip": "ym2612"
    },
    {
      "channel": 3,
      "note": 49,
      "start": 18.8486,
      "duration": 0.0324,
      "velocity": 104,
      "chip": "ym2612"
    },
    {
      "channel": 0,
      "note": 97,
      "start": 18.8538,
      "duration": 0.0315,
      "velocity": 116,
      "chip": "ym2612"
    },
    {
      "channel": 3,
      "note": 49,
      "start": 18.9653,
      "duration": 0.0325,
      "velocity": 104,
      "chip": "ym2612"
    },
    {
      "channel": 0,
      "note": 97,
      "start": 18.9706,
      "duration": 0.1135,
      "velocity": 116,
      "chip": "ym2612"
    },
    {
      "channel": 5,
      "note": 97,
      "start": 19.002,
      "duration": 0.049,
      "velocity": 116,
      "chip": "ym2612"
    },
    {
      "channel": 1,
      "note": 57,
      "start": 19.0841,
      "duration": 0.0,
      "velocity": 125,
      "chip": "ym2612"
    }
  ]
}